,note_name,start_time,duration,velocity,tempo
0,A2,1.5,0.5,34,190.0
1,E3,1.583,417/1000,37,190.0
2,A3,1.667,333/1000,41,190.0
3,C4,1.75,0.25,44,190.0
4,E4,1.812,0.188,44,190.0
5,A4,1.875,0.125,48,190.0
6,C5,1.938,0.062,53,190.0
7,A5,2.0,0.25,61,190.0
8,E4,2.0,0.25,44,190.0
9,A4,2.0,0.25,48,190.0
10,C5,2.0,0.25,53,190.0
11,A2,2.0,229/1000,34,190.0
12,E3,2.0,0.25,37,190.0
13,A3,2.0,0.25,41,190.0
14,C4,2.0,0.25,44,190.0
15,A4,2.875,23/200,48,190.0
16,A4,3.0,0.25,57,190.0
17,C5,3.25,0.25,54,190.0
18,B4,3.5,0.25,57,190.0
19,A4,3.75,0.25,54,190.0
20,E3,4.0,0.5,36,190.0
21,B3,4.083,417/1000,38,190.0
22,E4,4.167,333/1000,42,190.0
23,G#4,4.25,0.25,45,190.0
24,B4,4.312,0.188,45,190.0
25,E5,4.375,0.125,49,190.0
26,G#5,4.438,0.062,53,190.0
27,E6,4.5,0.25,59,190.0
28,B4,4.5,0.25,45,190.0
29,E5,4.5,0.25,49,190.0
30,G#5,4.5,0.25,53,190.0
31,E3,4.5,229/1000,36,190.0
32,B3,4.5,0.25,38,190.0
33,E4,4.5,0.25,42,190.0
34,G#4,4.5,0.25,45,190.0
35,E4,5.375,23/200,48,190.0
36,E4,5.5,0.25,57,190.0
37,G#4,5.75,0.25,54,190.0
38,F#4,6.0,0.25,57,190.0
39,E4,6.25,0.25,54,190.0
40,A2,6.5,0.5,33,190.0
41,E3,6.583,417/1000,36,190.0
42,A3,6.667,333/1000,39,190.0
43,C4,6.75,0.25,42,190.0
44,E4,6.812,0.188,44,190.0
45,A4,6.875,0.125,47,190.0
46,C5,6.938,0.062,51,190.0
47,A5,7.0,0.25,59,190.0
48,E4,7.0,0.25,44,190.0
49,A4,7.0,0.25,47,190.0
50,C5,7.0,0.25,51,190.0
51,A2,7.0,229/1000,33,190.0
52,E3,7.0,0.25,36,190.0
53,A3,7.0,0.25,39,190.0
54,C4,7.0,0.25,42,190.0
55,A4,7.875,23/200,48,190.0
56,A4,8.0,0.25,57,190.0
57,C5,8.25,0.25,54,190.0
58,B4,8.5,0.25,57,190.0
59,A4,8.75,0.25,54,190.0
60,E3,9.0,0.5,38,190.0
61,B3,9.083,417/1000,36,190.0
62,E4,9.167,333/1000,41,190.0
63,G#4,9.25,0.25,45,190.0
64,B4,9.312,0.188,48,190.0
65,G#5,9.375,0.125,51,190.0
66,E6,9.438,0.062,54,190.0
67,E5,9.5,1.0,63,190.0
68,B4,9.5,0.25,48,190.0
69,G#5,9.5,0.25,51,190.0
70,E6,9.5,0.25,54,190.0
71,E3,9.5,229/1000,38,190.0
72,B3,9.5,0.25,36,190.0
73,E4,9.5,0.25,41,190.0
74,G#4,9.5,0.25,45,190.0
75,E4,10.5,0.25,62,190.0
76,A2,11.5,0.5,29,190.0
77,E3,11.583,417/1000,32,190.0
78,A3,11.667,333/1000,33,190.0
79,C4,11.75,0.25,36,190.0
80,E4,11.812,0.188,36,190.0
81,A4,11.875,0.125,40,190.0
82,C5,11.938,0.062,42,190.0
83,A5,12.0,0.25,45,190.0
84,E4,12.0,0.25,36,190.0
85,A4,12.0,0.25,40,190.0
86,C5,12.0,0.25,42,190.0
87,A2,12.0,229/1000,29,190.0
88,E3,12.0,0.25,32,190.0
89,A3,12.0,0.25,33,190.0
90,C4,12.0,0.25,36,190.0
91,A4,12.875,23/200,36,190.0
92,A4,13.0,0.25,43,190.0
93,C5,13.25,0.25,40,190.0
94,B4,13.5,0.25,43,190.0
95,A4,13.75,0.25,40,190.0
96,E3,14.0,0.5,28,190.0
97,B3,14.083,417/1000,31,190.0
98,E4,14.167,333/1000,33,190.0
99,G#4,14.25,0.25,36,190.0
100,B4,14.312,0.188,36,190.0
101,E5,14.375,0.125,39,190.0
102,G#5,14.438,0.062,41,190.0
103,E6,14.5,0.25,44,190.0
104,B4,14.5,0.25,36,190.0
105,E5,14.5,0.25,39,190.0
106,G#5,14.5,0.25,41,190.0
107,E3,14.5,229/1000,28,190.0
108,B3,14.5,0.25,31,190.0
109,E4,14.5,0.25,33,190.0
110,G#4,14.5,0.25,36,190.0
111,E4,15.375,23/200,36,190.0
112,E4,15.5,0.25,43,190.0
113,G#4,15.75,0.25,40,190.0
114,F#4,16.0,0.25,43,190.0
115,E4,16.25,0.25,40,190.0
116,A2,16.5,0.5,28,190.0
117,E3,16.583,417/1000,31,190.0
118,A3,16.667,333/1000,33,190.0
119,C4,16.75,0.25,36,190.0
120,E4,16.812,0.188,36,190.0
121,A4,16.875,0.125,39,190.0
122,C5,16.938,0.062,41,190.0
123,A5,17.0,0.25,44,190.0
124,E4,17.0,0.25,36,190.0
125,A4,17.0,0.25,39,190.0
126,C5,17.0,0.25,41,190.0
127,A2,17.0,229/1000,28,190.0
128,E3,17.0,0.25,31,190.0
129,A3,17.0,0.25,33,190.0
130,C4,17.0,0.25,36,190.0
131,A4,17.875,23/200,36,190.0
132,A4,18.0,0.25,43,190.0
133,C5,18.25,0.25,40,190.0
134,B4,18.5,0.25,43,190.0
135,A4,18.75,0.25,40,190.0
136,E3,19.0,0.5,28,190.0
137,B3,19.083,417/1000,31,190.0
138,E4,19.167,333/1000,33,190.0
139,G#4,19.25,0.25,36,190.0
140,B4,19.312,0.188,36,190.0
141,G#5,19.375,0.125,41,190.0
142,E6,19.438,0.062,43,190.0
143,E5,19.5,1.0,53,190.0
144,B4,19.5,0.25,36,190.0
145,G#5,19.5,0.25,41,190.0
146,E6,19.5,0.25,43,190.0
147,E3,19.5,229/1000,28,190.0
148,B3,19.5,0.25,31,190.0
149,E4,19.5,0.25,33,190.0
150,G#4,19.5,0.25,36,190.0
151,E4,20.5,0.25,53,190.0
152,A2,21.5,0.5,34,190.0
153,E3,21.583,417/1000,36,190.0
154,A3,21.667,333/1000,40,190.0
155,C#4,21.75,0.25,43,190.0
156,E5,21.812,0.188,46,190.0
157,A5,21.875,0.125,50,190.0
158,C#6,21.938,0.062,53,190.0
159,A6,22.0,0.25,61,190.0
160,E5,22.0,0.25,46,190.0
161,A5,22.0,0.25,50,190.0
162,C#6,22.0,0.25,53,190.0
163,A2,22.0,229/1000,34,190.0
164,E3,22.0,0.25,36,190.0
165,A3,22.0,0.25,40,190.0
166,C#4,22.0,0.25,43,190.0
167,A5,22.875,23/200,48,190.0
168,A5,23.0,0.25,57,190.0
169,B-5,23.25,0.25,54,190.0
170,A5,23.5,0.25,57,190.0
171,G5,23.75,0.25,54,190.0
172,D3,24.0,0.5,36,190.0
173,A3,24.083,417/1000,37,190.0
174,D4,24.167,333/1000,40,190.0
175,F4,24.25,0.25,43,190.0
176,A4,24.312,0.188,45,190.0
177,F5,24.375,0.125,49,190.0
178,A5,24.438,0.062,52,190.0
179,F6,24.5,0.25,61,190.0
180,A4,24.5,0.25,45,190.0
181,F5,24.5,0.25,49,190.0
182,A5,24.5,0.25,52,190.0
183,D3,24.5,229/1000,36,190.0
184,A3,24.5,0.25,37,190.0
185,D4,24.5,0.25,40,190.0
186,F4,24.5,0.25,43,190.0
187,D5,25.375,23/200,48,190.0
188,D5,25.5,0.25,57,190.0
189,F5,25.75,0.25,54,190.0
190,E5,26.0,0.25,57,190.0
191,D5,26.25,0.25,54,190.0
192,G2,26.5,0.5,35,190.0
193,D3,26.583,417/1000,37,190.0
194,G3,26.667,333/1000,41,190.0
195,B3,26.75,0.25,45,190.0
196,D5,26.812,0.188,45,190.0
197,G5,26.875,0.125,48,190.0
198,B5,26.938,0.062,52,190.0
199,G6,27.0,0.25,61,190.0
200,D5,27.0,0.25,45,190.0
201,G5,27.0,0.25,48,190.0
202,B5,27.0,0.25,52,190.0
203,G2,27.0,229/1000,35,190.0
204,D3,27.0,0.25,37,190.0
205,G3,27.0,0.25,41,190.0
206,B3,27.0,0.25,45,190.0
207,G5,27.875,23/200,48,190.0
208,G5,28.0,0.25,57,190.0
209,A5,28.25,0.25,54,190.0
210,G5,28.5,0.25,57,190.0
211,F5,28.75,0.25,54,190.0
212,C3,29.0,0.5,39,190.0
213,G3,29.083,417/1000,39,190.0
214,C4,29.167,333/1000,42,190.0
215,E4,29.25,0.25,45,190.0
216,G4,29.312,0.188,45,190.0
217,E5,29.375,0.125,48,190.0
218,G5,29.438,0.062,52,190.0
219,E6,29.5,0.25,61,190.0
220,G4,29.5,0.25,45,190.0
221,E5,29.5,0.25,48,190.0
222,G5,29.5,0.25,52,190.0
223,C3,29.5,229/1000,39,190.0
224,G3,29.5,0.25,39,190.0
225,C4,29.5,0.25,42,190.0
226,E4,29.5,0.25,45,190.0
227,C5,30.375,23/200,48,190.0
228,C5,30.5,0.25,51,190.0
229,E5,30.75,0.25,48,190.0
230,D5,31.0,0.25,50,190.0
231,C5,31.25,0.25,47,190.0
232,D3,31.5,0.5,33,190.0
233,F3,31.583,417/1000,35,190.0
234,B3,31.667,333/1000,37,190.0
235,F4,31.75,0.25,39,190.0
236,B4,31.812,0.188,39,190.0
237,F5,31.875,0.125,42,190.0
238,B5,31.938,0.062,45,190.0
239,F6,32.0,0.25,53,190.0
240,B4,32.0,0.25,39,190.0
241,F5,32.0,0.25,42,190.0
242,B5,32.0,0.25,45,190.0
243,D3,32.0,229/1000,33,190.0
244,F3,32.0,0.25,35,190.0
245,B3,32.0,0.25,37,190.0
246,F4,32.0,0.25,39,190.0
247,B4,32.875,23/200,40,190.0
248,B4,33.0,0.25,47,190.0
249,D5,33.25,0.25,45,190.0
250,C5,33.5,0.25,47,190.0
251,B4,33.75,0.25,44,190.0
252,C3,34.0,0.5,32,190.0
253,C4,34.167,333/1000,36,190.0
254,E4,34.25,0.25,38,190.0
255,A4,34.312,0.188,36,190.0
256,E5,34.375,0.125,39,190.0
257,A5,34.438,0.062,42,190.0
258,E6,34.5,0.25,48,190.0
259,A4,34.5,0.25,36,190.0
260,E5,34.5,0.25,39,190.0
261,A5,34.5,0.25,42,190.0
262,C3,34.5,229/1000,32,190.0
263,C4,34.5,0.25,36,190.0
264,E4,34.5,0.25,38,190.0
265,A4,35.375,23/200,40,190.0
266,A4,35.5,0.25,48,190.0
267,C5,35.75,0.25,45,190.0
268,B4,36.0,0.25,48,190.0
269,A4,36.25,0.25,45,190.0
270,F4,36.5,1.0,52,190.0
271,F3,36.5,1.0,44,190.0
272,E-5,37.25,0.25,40,190.0
273,E-4,37.25,0.25,36,190.0
274,A3,37.25,0.25,36,190.0
275,E4,37.5,1.0,46,190.0
276,E3,37.5,1.0,40,190.0
277,E5,37.75,0.25,40,190.0
278,D5,38.0,0.25,46,190.0
279,B4,38.25,0.25,40,190.0
280,D4,38.25,0.25,33,190.0
281,G#3,38.25,0.25,33,190.0
282,E4,38.5,1.0,45,190.0
283,A4,38.5,1.0,45,190.0
284,C4,38.5,1.0,40,190.0
285,A3,38.5,1.0,40,190.0
286,A5,39.5,0.25,40,190.0
287,C5,39.5,0.25,40,190.0
288,A4,39.5,0.25,33,190.0
289,E4,39.5,0.25,33,190.0
290,A2,40.5,0.5,29,190.0
291,E3,40.583,417/1000,32,190.0
292,A3,40.667,333/1000,33,190.0
293,C#4,40.75,0.25,36,190.0
294,E5,40.812,0.188,36,190.0
295,A5,40.875,0.125,40,190.0
296,C#6,40.938,0.062,42,190.0
297,A6,41.0,0.25,45,190.0
298,E5,41.0,0.25,36,190.0
299,A5,41.0,0.25,40,190.0
300,C#6,41.0,0.25,42,190.0
301,A2,41.0,229/1000,29,190.0
302,E3,41.0,0.25,32,190.0
303,A3,41.0,0.25,33,190.0
304,C#4,41.0,0.25,36,190.0
305,A5,41.875,23/200,36,190.0
306,A5,42.0,0.25,43,190.0
307,C#4,42.0,0.5,29,190.0
308,E4,42.0,0.5,29,190.0
309,A4,42.0,0.5,29,190.0
310,B-5,42.25,0.25,40,190.0
311,A5,42.5,0.25,43,190.0
312,G5,42.75,0.25,40,190.0
313,D3,43.0,0.5,29,190.0
314,A3,43.125,0.375,32,190.0
315,F4,43.25,0.25,36,190.0
316,A4,43.312,0.188,36,190.0
317,F5,43.375,0.125,40,190.0
318,A5,43.438,0.062,42,190.0
319,F6,43.5,0.25,45,190.0
320,A4,43.5,0.25,36,190.0
321,F5,43.5,0.25,40,190.0
322,A5,43.5,0.25,42,190.0
323,D3,43.5,229/1000,29,190.0
324,A3,43.5,0.25,32,190.0
325,F4,43.5,0.25,36,190.0
326,D5,44.375,23/200,36,190.0
327,D5,44.5,0.25,43,190.0
328,D4,44.5,0.5,29,190.0
329,F4,44.5,0.5,29,190.0
330,A4,44.5,0.5,29,190.0
331,F5,44.75,0.25,40,190.0
332,E5,45.0,0.25,43,190.0
333,D5,45.25,0.25,40,190.0
334,G2,45.5,0.5,29,190.0
335,D3,45.625,0.375,32,190.0
336,B3,45.75,0.25,36,190.0
337,D5,45.812,0.188,36,190.0
338,G5,45.875,0.125,40,190.0
339,B5,45.938,0.062,42,190.0
340,G6,46.0,0.25,45,190.0
341,D5,46.0,0.25,36,190.0
342,G5,46.0,0.25,40,190.0
343,B5,46.0,0.25,42,190.0
344,G2,46.0,229/1000,29,190.0
345,D3,46.0,0.25,32,190.0
346,B3,46.0,0.25,36,190.0
347,G5,46.875,23/200,36,190.0
348,G5,47.0,0.25,43,190.0
349,B3,47.0,0.5,29,190.0
350,D4,47.0,0.5,29,190.0
351,G4,47.0,0.5,29,190.0
352,A5,47.25,0.25,40,190.0
353,G5,47.5,0.25,43,190.0
354,F5,47.75,0.25,40,190.0
355,C3,48.0,0.5,29,190.0
356,G3,48.125,0.375,32,190.0
357,E4,48.25,0.25,36,190.0
358,G4,48.312,0.188,36,190.0
359,E5,48.375,0.125,40,190.0
360,G5,48.438,0.062,42,190.0
361,E6,48.5,0.25,45,190.0
362,G4,48.5,0.25,36,190.0
363,E5,48.5,0.25,40,190.0
364,G5,48.5,0.25,42,190.0
365,C3,48.5,229/1000,29,190.0
366,G3,48.5,0.25,32,190.0
367,E4,48.5,0.25,36,190.0
368,C5,49.375,23/200,36,190.0
369,C5,49.5,0.25,46,190.0
370,E4,49.5,0.5,32,190.0
371,G4,49.5,0.5,32,190.0
372,E5,49.75,0.25,44,190.0
373,D5,50.0,0.25,46,190.0
374,C5,50.25,0.25,44,190.0
375,D3,50.5,0.5,32,190.0
376,B-3,50.625,0.375,36,190.0
377,F4,50.75,0.25,39,190.0
378,B-4,50.875,0.125,40,190.0
379,F5,50.938,0.062,44,190.0
380,F6,51.0,0.25,50,190.0
381,B-4,51.0,0.25,40,190.0
382,F5,51.0,0.25,44,190.0
383,D3,51.0,229/1000,32,190.0
384,B-3,51.0,21/500,36,190.0
385,F4,51.0,0.25,39,190.0
386,B-4,51.875,23/200,39,190.0
387,B-4,52.0,0.25,46,190.0
388,F4,52.0,0.5,32,190.0
389,D4,52.0,0.5,32,190.0
390,D5,52.25,0.25,44,190.0
391,C5,52.5,0.25,46,190.0
392,B-4,52.75,0.25,44,190.0
393,C3,53.0,0.5,32,190.0
394,C4,53.125,0.375,36,190.0
395,E4,53.25,0.25,39,190.0
396,A4,53.375,0.125,40,190.0
397,E5,53.438,0.062,44,190.0
398,E6,53.5,0.25,50,190.0
399,A4,53.5,0.25,40,190.0
400,E5,53.5,0.25,44,190.0
401,C3,53.5,229/1000,32,190.0
402,C4,53.5,21/500,36,190.0
403,E4,53.5,0.25,39,190.0
404,A4,54.375,23/200,37,190.0
405,A4,54.5,0.25,45,190.0
406,E4,54.5,0.5,31,190.0
407,C4,54.5,0.5,31,190.0
408,C5,54.75,0.25,42,190.0
409,B4,55.0,0.25,45,190.0
410,A4,55.25,0.25,42,190.0
411,F4,55.5,1.0,45,190.0
412,F3,55.5,1.0,37,190.0
413,E-5,56.25,0.25,37,190.0
414,E-4,56.25,0.25,34,190.0
415,A3,56.25,0.25,34,190.0
416,E4,56.5,1.0,44,190.0
417,E3,56.5,1.0,37,190.0
418,E5,56.75,0.25,37,190.0
419,D5,57.0,0.25,44,190.0
420,B4,57.25,0.25,37,190.0
421,D4,57.25,0.25,31,190.0
422,G#3,57.25,0.25,31,190.0
423,E4,57.5,1.0,43,190.0
424,A4,57.5,1.0,43,190.0
425,C4,57.5,1.0,37,190.0
426,A3,57.5,1.0,37,190.0
427,A5,58.5,0.25,37,190.0
428,C5,58.5,0.25,37,190.0
429,A4,58.5,0.25,31,190.0
430,E4,58.5,0.25,31,190.0
431,C5,59.333,83/1000,41,190.0
432,A5,59.417,83/1000,45,190.0
433,E6,59.5,0.188,58,190.0
434,A3,59.5,0.188,61,190.0
435,C6,59.833,0.25,49,190.0
436,A5,60.167,0.25,49,190.0
437,A3,60.25,0.125,48,190.0
438,E5,60.5,0.25,52,190.0
439,A3,60.5,0.25,57,190.0
440,C4,60.75,0.25,54,190.0
441,C5,60.833,0.25,48,190.0
442,B3,61.0,0.25,57,190.0
443,A4,61.167,167/1000,48,190.0
444,A3,61.25,0.25,54,190.0
445,G#4,61.333,83/1000,41,190.0
446,E5,61.417,83/1000,45,190.0
447,B5,61.5,0.188,61,190.0
448,E4,61.5,0.188,59,190.0
449,G#5,61.833,0.25,54,190.0
450,E5,62.167,0.25,53,190.0
451,E3,62.25,0.125,48,190.0
452,B4,62.5,0.25,52,190.0
453,E3,62.5,0.25,57,190.0
454,G3,62.75,0.25,54,190.0
455,G#4,62.833,0.25,45,190.0
456,F3,63.0,0.25,57,190.0
457,E4,63.167,167/1000,45,190.0
458,E3,63.25,0.25,54,190.0
459,C5,63.333,83/1000,41,190.0
460,A5,63.417,83/1000,45,190.0
461,E6,63.5,0.188,58,190.0
462,A3,63.5,0.188,61,190.0
463,A2,63.5,729/1000,38,190.0
464,E3,63.583,667/1000,41,190.0
465,A3,63.667,0.375,45,190.0
466,C4,63.75,0.5,48,190.0
467,C6,63.833,0.25,49,190.0
468,A5,64.167,0.25,49,190.0
469,A3,64.25,0.125,48,190.0
470,E5,64.5,0.25,52,190.0
471,A3,64.5,0.25,57,190.0
472,C4,64.75,0.25,54,190.0
473,C5,64.833,0.25,48,190.0
474,B3,65.0,0.25,57,190.0
475,A4,65.167,0.25,48,190.0
476,A3,65.25,0.25,54,190.0
477,E4,65.5,1.0,61,190.0
478,G#4,65.833,0.25,49,190.0
479,E5,65.833,0.25,49,190.0
480,B4,66.167,0.25,46,190.0
481,G#5,66.167,0.25,46,190.0
482,E3,66.5,0.25,46,190.0
483,E6,66.5,0.25,44,190.0
484,E5,66.5,0.25,44,190.0
485,C5,67.333,83/1000,32,190.0
486,A5,67.417,83/1000,36,190.0
487,E6,67.5,0.188,46,190.0
488,A3,67.5,0.188,48,190.0
489,C6,67.833,0.25,39,190.0
490,A5,68.167,0.25,39,190.0
491,A3,68.25,0.125,38,190.0
492,E5,68.5,0.25,41,190.0
493,A3,68.5,0.25,45,190.0
494,C4,68.75,0.25,43,190.0
495,C5,68.833,0.25,38,190.0
496,B3,69.0,0.25,45,190.0
497,A4,69.167,167/1000,38,190.0
498,A3,69.25,0.25,43,190.0
499,G#4,69.333,83/1000,32,190.0
500,E5,69.417,83/1000,36,190.0
501,B5,69.5,0.188,48,190.0
502,E4,69.5,0.188,46,190.0
503,G#5,69.833,0.25,43,190.0
504,E5,70.167,0.25,42,190.0
505,E3,70.25,0.125,38,190.0
506,B4,70.5,0.25,41,190.0
507,E3,70.5,0.25,45,190.0
508,G3,70.75,0.25,43,190.0
509,G#4,70.833,0.25,36,190.0
510,F3,71.0,0.25,45,190.0
511,E4,71.167,167/1000,36,190.0
512,E3,71.25,0.25,43,190.0
513,C5,71.333,83/1000,32,190.0
514,A5,71.417,83/1000,36,190.0
515,E6,71.5,0.188,46,190.0
516,A3,71.5,0.188,48,190.0
517,C6,71.833,0.25,39,190.0
518,A5,72.167,0.25,39,190.0
519,A3,72.25,0.125,38,190.0
520,E5,72.5,0.25,41,190.0
521,A3,72.5,0.25,45,190.0
522,C4,72.75,0.25,43,190.0
523,C5,72.833,0.25,38,190.0
524,B3,73.0,0.25,45,190.0
525,A4,73.167,0.25,38,190.0
526,A3,73.25,0.25,43,190.0
527,E4,73.5,1.0,48,190.0
528,G#4,73.833,0.25,39,190.0
529,E5,73.833,0.25,39,190.0
530,B4,74.167,0.25,36,190.0
531,G#5,74.167,0.25,36,190.0
532,E3,74.5,0.25,36,190.0
533,E6,74.5,0.25,35,190.0
534,E5,74.5,0.25,35,190.0
535,A3,75.188,0.312,39,190.0
536,E4,75.25,0.25,41,190.0
537,A4,75.312,0.188,43,190.0
538,A5,75.375,0.125,41,190.0
539,C#6,75.438,0.062,45,190.0
540,A6,75.5,0.188,58,190.0
541,A5,75.5,0.188,41,190.0
542,C#6,75.5,0.188,45,190.0
543,A3,75.5,0.188,39,190.0
544,E4,75.5,0.188,41,190.0
545,A4,75.5,0.188,43,190.0
546,E6,75.833,0.25,49,190.0
547,C#6,76.167,0.25,49,190.0
548,A4,76.25,0.125,48,190.0
549,A5,76.5,0.25,52,190.0
550,A4,76.5,0.25,57,190.0
551,B-4,76.75,0.25,54,190.0
552,E5,76.833,0.25,48,190.0
553,A4,77.0,0.25,57,190.0
554,C#5,77.167,0.25,48,190.0
555,G4,77.25,167/1000,54,190.0
556,D3,77.417,83/1000,53,190.0
557,F4,77.5,0.25,59,190.0
558,D3,77.5,0.25,53,190.0
559,A4,77.833,0.25,50,190.0
560,D5,77.833,0.25,50,190.0
561,D5,78.167,0.25,49,190.0
562,F5,78.167,0.25,49,190.0
563,D4,78.25,0.125,48,190.0
564,D4,78.5,0.25,57,190.0
565,F5,78.5,0.25,48,190.0
566,A5,78.5,0.25,48,190.0
567,F4,78.75,0.25,54,190.0
568,A5,78.833,0.25,44,190.0
569,D6,78.833,0.25,44,190.0
570,E4,79.0,0.25,57,190.0
571,D6,79.167,0.25,45,190.0
572,F6,79.167,0.25,45,190.0
573,D4,79.25,0.25,54,190.0
574,G3,79.5,0.5,37,190.0
575,D4,79.6,2/5,40,190.0
576,G4,79.7,3/10,44,190.0
577,G5,79.8,1/5,47,190.0
578,B5,79.9,1/10,50,190.0
579,G6,80.0,0.188,58,190.0
580,G5,80.0,0.188,47,190.0
581,B5,80.0,0.188,50,190.0
582,G3,80.0,0.188,37,190.0
583,D4,80.0,0.188,40,190.0
584,G4,80.0,0.188,44,190.0
585,D6,80.333,0.25,49,190.0
586,B5,80.667,0.25,49,190.0
587,G4,80.75,0.125,48,190.0
588,G5,81.0,0.25,52,190.0
589,G4,81.0,0.25,57,190.0
590,A4,81.25,0.25,54,190.0
591,D5,81.333,0.25,48,190.0
592,G4,81.5,0.25,57,190.0
593,B4,81.667,0.25,48,190.0
594,F4,81.75,167/1000,54,190.0
595,C3,81.917,83/1000,53,190.0
596,E4,82.0,0.25,59,190.0
597,C3,82.0,0.25,53,190.0
598,G4,82.333,0.25,50,190.0
599,C5,82.333,0.25,50,190.0
600,C5,82.667,0.25,49,190.0
601,E5,82.667,0.25,49,190.0
602,C4,82.75,0.125,48,190.0
603,C4,83.0,0.25,57,190.0
604,E5,83.0,0.25,48,190.0
605,G5,83.0,0.25,48,190.0
606,E4,83.25,0.25,54,190.0
607,G5,83.333,0.25,44,190.0
608,C6,83.333,0.25,44,190.0
609,D4,83.5,0.25,57,190.0
610,C6,83.667,0.25,45,190.0
611,E6,83.667,0.25,45,190.0
612,C4,83.75,0.125,54,190.0
613,D3,83.875,0.125,32,190.0
614,G#3,83.938,0.062,36,190.0
615,F4,84.0,0.188,48,190.0
616,D3,84.0,0.188,32,190.0
617,G#3,84.0,0.188,36,190.0
618,B5,84.0,0.188,42,190.0
619,F6,84.0,0.188,42,190.0
620,G#5,84.333,0.25,36,190.0
621,D6,84.333,0.25,36,190.0
622,F5,84.667,0.25,36,190.0
623,B5,84.667,0.25,36,190.0
624,B3,84.75,0.125,38,190.0
625,B3,85.0,0.25,45,190.0
626,D5,85.0,0.25,38,190.0
627,G#5,85.0,0.25,38,190.0
628,D4,85.25,0.25,43,190.0
629,B4,85.333,0.25,35,190.0
630,F5,85.333,0.25,35,190.0
631,C4,85.5,0.25,45,190.0
632,D5,85.667,167/1000,38,190.0
633,B3,85.75,0.125,43,190.0
634,E5,85.833,83/1000,32,190.0
635,C3,85.875,0.125,42,190.0
636,A5,85.917,83/1000,36,190.0
637,E6,86.0,0.188,48,190.0
638,E4,86.0,0.188,46,190.0
639,C6,86.333,0.25,43,190.0
640,A5,86.667,0.25,42,190.0
641,A3,86.75,0.125,38,190.0
642,E5,87.0,0.25,41,190.0
643,A3,87.0,0.25,45,190.0
644,C4,87.25,0.25,43,190.0
645,C5,87.333,0.25,38,190.0
646,B3,87.5,0.25,45,190.0
647,A4,87.667,0.25,39,190.0
648,A3,87.75,0.25,43,190.0
649,F3,88.0,1.0,48,190.0
650,E-4,88.333,0.25,36,190.0
651,B4,88.333,0.25,36,190.0
652,E-5,88.667,0.25,36,190.0
653,A4,88.667,0.25,36,190.0
654,B3,88.75,0.25,38,190.0
655,E3,89.0,1.0,45,190.0
656,E4,89.25,0.25,43,190.0
657,E5,89.333,0.25,36,190.0
658,G#4,89.333,0.25,36,190.0
659,D4,89.5,0.25,45,190.0
660,G#5,89.667,0.25,33,190.0
661,B4,89.667,0.25,33,190.0
662,B3,89.75,0.25,43,190.0
663,A3,90.0,1.0,48,190.0
664,A5,90.333,0.25,36,190.0
665,C5,90.333,0.25,36,190.0
666,E5,90.667,0.25,33,190.0
667,C6,90.667,0.25,33,190.0
668,A5,91.0,0.25,42,190.0
669,A6,91.0,0.25,42,190.0
670,E4,91.0,0.25,32,190.0
671,C5,91.0,0.25,32,190.0
672,F2,92.0,1.0,43,190.0
673,A2,92.0,271/1000,51,190.0
674,G#2,92.25,271/1000,48,190.0
675,A2,92.5,271/1000,51,190.0
676,G#2,92.75,0.25,48,190.0
677,B-2,92.875,73/500,54,190.0
678,A2,93.0,271/1000,58,190.0
679,B2,93.25,271/1000,48,190.0
680,C3,93.5,271/1000,51,190.0
681,D3,93.75,0.25,47,190.0
682,E3,94.0,271/1000,51,190.0
683,E2,94.0,1.0,43,190.0
684,G#2,94.0,1.0,43,190.0
685,E-3,94.25,271/1000,48,190.0
686,E3,94.5,271/1000,51,190.0
687,E-3,94.75,0.25,48,190.0
688,F3,94.875,73/500,52,190.0
689,E3,95.0,271/1000,56,190.0
690,D3,95.25,271/1000,48,190.0
691,C3,95.5,271/1000,51,190.0
692,B2,95.75,0.25,47,190.0
693,F2,96.0,1.0,38,190.0
694,A2,96.0,271/1000,45,190.0
695,G#2,96.25,271/1000,43,190.0
696,A2,96.5,271/1000,45,190.0
697,G#2,96.75,0.25,41,190.0
698,B-2,96.875,73/500,48,190.0
699,A2,97.0,271/1000,50,190.0
700,B2,97.25,271/1000,41,190.0
701,C3,97.5,271/1000,44,190.0
702,D3,97.75,0.25,40,190.0
703,E3,98.0,271/1000,43,190.0
704,E2,98.0,1.0,36,190.0
705,G#2,98.0,1.0,36,190.0
706,E-3,98.25,271/1000,40,190.0
707,E3,98.5,271/1000,42,190.0
708,E-3,98.75,0.25,39,190.0
709,F3,98.875,73/500,40,190.0
710,E3,99.0,0.375,36,190.0
711,F3,100.0,1.0,43,190.0
712,A3,100.0,271/1000,51,190.0
713,G#3,100.25,271/1000,48,190.0
714,A3,100.5,271/1000,51,190.0
715,G#3,100.75,0.25,48,190.0
716,B-3,100.875,73/500,53,190.0
717,A3,101.0,271/1000,56,190.0
718,B3,101.25,271/1000,48,190.0
719,C4,101.5,271/1000,51,190.0
720,D4,101.75,0.25,47,190.0
721,E4,102.0,271/1000,51,190.0
722,E3,102.0,1.0,43,190.0
723,G#3,102.0,1.0,43,190.0
724,E-4,102.25,271/1000,48,190.0
725,E4,102.5,271/1000,51,190.0
726,E-4,102.75,0.25,48,190.0
727,F4,102.875,73/500,50,190.0
728,E4,103.0,271/1000,54,190.0
729,D4,103.25,271/1000,48,190.0
730,C4,103.5,271/1000,51,190.0
731,B3,103.75,0.25,47,190.0
732,F3,104.0,1.0,38,190.0
733,A3,104.0,271/1000,45,190.0
734,G#3,104.25,271/1000,43,190.0
735,A3,104.5,271/1000,45,190.0
736,G#3,104.75,0.25,41,190.0
737,B-3,104.875,73/500,48,190.0
738,A3,105.0,271/1000,53,190.0
739,B3,105.25,271/1000,41,190.0
740,C4,105.5,271/1000,44,190.0
741,D4,105.75,0.25,40,190.0
742,E4,106.0,271/1000,43,190.0
743,E3,106.0,1.0,36,190.0
744,G#3,106.0,1.0,36,190.0
745,E-4,106.25,271/1000,40,190.0
746,E4,106.5,271/1000,42,190.0
747,E-4,106.75,0.25,39,190.0
748,F4,106.875,0.125,40,190.0
749,E4,107.0,0.375,36,190.0
750,A4,108.0,271/1000,51,190.0
751,C#4,108.0,1.0,42,190.0
752,E4,108.0,1.0,42,190.0
753,G#4,108.25,271/1000,48,190.0
754,A4,108.5,271/1000,51,190.0
755,G#4,108.75,0.25,48,190.0
756,B-4,108.875,73/500,50,190.0
757,A4,109.0,271/1000,54,190.0
758,G4,109.25,271/1000,48,190.0
759,F4,109.5,271/1000,51,190.0
760,E4,109.75,0.25,47,190.0
761,D4,110.0,271/1000,51,190.0
762,F3,110.0,1.0,43,190.0
763,A3,110.0,1.0,43,190.0
764,C#4,110.25,271/1000,48,190.0
765,D4,110.5,271/1000,51,190.0
766,C#4,110.75,0.25,48,190.0
767,E-4,110.875,73/500,47,190.0
768,D4,111.0,271/1000,54,190.0
769,E4,111.25,271/1000,48,190.0
770,F4,111.5,271/1000,51,190.0
771,D4,111.75,0.25,47,190.0
772,G4,112.0,271/1000,49,190.0
773,B3,112.0,1.0,40,190.0
774,D4,112.0,1.0,40,190.0
775,F#4,112.25,271/1000,47,190.0
776,G4,112.5,271/1000,48,190.0
777,F#4,112.75,0.25,45,190.0
778,G#4,112.875,73/500,51,190.0
779,G4,113.0,271/1000,54,190.0
780,F4,113.25,271/1000,45,190.0
781,E4,113.5,271/1000,48,190.0
782,D4,113.75,0.25,44,190.0
783,C4,114.0,271/1000,51,190.0
784,E3,114.0,1.0,43,190.0
785,G3,114.0,1.0,43,190.0
786,B3,114.25,271/1000,48,190.0
787,C4,114.5,271/1000,51,190.0
788,B3,114.75,0.25,48,190.0
789,C#4,114.875,73/500,47,190.0
790,C4,115.0,271/1000,52,190.0
791,D4,115.25,271/1000,48,190.0
792,E4,115.5,271/1000,51,190.0
793,C4,115.75,0.25,47,190.0
794,F4,116.0,271/1000,51,190.0
795,D3,116.0,1.0,41,190.0
796,G#3,116.0,1.0,41,190.0
797,E4,116.25,271/1000,48,190.0
798,F4,116.5,271/1000,51,190.0
799,E4,116.75,0.25,48,190.0
800,G4,116.875,73/500,48,190.0
801,F4,117.0,271/1000,52,190.0
802,D4,117.25,271/1000,48,190.0
803,C4,117.5,271/1000,51,190.0
804,B3,117.75,0.25,47,190.0
805,E4,118.0,271/1000,51,190.0
806,C3,118.0,1.0,43,190.0
807,A3,118.0,1.0,43,190.0
808,E-4,118.25,271/1000,48,190.0
809,E4,118.5,271/1000,51,190.0
810,E-4,118.75,0.25,48,190.0
811,F4,118.875,73/500,51,190.0
812,E4,119.0,271/1000,54,190.0
813,C4,119.25,271/1000,48,190.0
814,B3,119.5,271/1000,51,190.0
815,A3,119.75,0.25,47,190.0
816,B-3,120.0,271/1000,45,190.0
817,D3,120.0,1.0,37,190.0
818,F3,120.0,1.0,37,190.0
819,A3,120.25,271/1000,43,190.0
820,B-3,120.5,271/1000,45,190.0
821,A3,120.75,0.25,41,190.0
822,C4,120.875,73/500,47,190.0
823,B3,121.0,271/1000,51,190.0
824,E3,121.0,0.5,40,190.0
825,G#3,121.0,0.5,40,190.0
826,F4,121.25,271/1000,41,190.0
827,E4,121.5,271/1000,44,190.0
828,G#3,121.75,0.25,40,190.0
829,A3,122.0,271/1000,44,190.0
830,G#3,122.25,271/1000,40,190.0
831,A3,122.5,271/1000,45,190.0
832,D3,122.5,0.125,41,190.0
833,F3,122.5,0.125,41,190.0
834,G#3,122.75,0.25,39,190.0
835,A3,123.0,0.125,43,190.0
836,C3,123.0,0.125,41,190.0
837,E3,123.0,0.125,41,190.0
838,A2,124.0,271/1000,51,190.0
839,G#2,124.25,271/1000,48,190.0
840,A2,124.5,271/1000,51,190.0
841,G#2,124.75,0.125,48,190.0
842,B-2,124.875,73/500,46,190.0
843,A2,125.0,271/1000,51,190.0
844,C#4,125.0,1.0,38,190.0
845,E3,125.0,1.0,38,190.0
846,G3,125.0,1.0,38,190.0
847,G2,125.25,271/1000,48,190.0
848,F2,125.5,271/1000,51,190.0
849,E2,125.75,0.25,47,190.0
850,D2,126.0,271/1000,51,190.0
851,C#2,126.25,271/1000,48,190.0
852,D2,126.5,271/1000,51,190.0
853,C#2,126.75,0.125,48,190.0
854,E-2,126.875,73/500,48,190.0
855,D2,127.0,271/1000,53,190.0
856,F4,127.0,1.0,38,190.0
857,F3,127.0,1.0,38,190.0
858,A3,127.0,1.0,38,190.0
859,E2,127.25,271/1000,48,190.0
860,F2,127.5,271/1000,51,190.0
861,D2,127.75,0.25,47,190.0
862,G2,128.0,271/1000,51,190.0
863,D2,128.0,21/1000,47,190.0
864,F#2,128.25,271/1000,48,190.0
865,G2,128.5,271/1000,51,190.0
866,F#2,128.75,0.125,48,190.0
867,G#2,128.875,73/500,49,190.0
868,G2,129.0,271/1000,51,190.0
869,B3,129.0,1.0,38,190.0
870,D3,129.0,1.0,38,190.0
871,F3,129.0,1.0,38,190.0
872,F2,129.25,271/1000,48,190.0
873,E2,129.5,271/1000,51,190.0
874,D2,129.75,0.25,47,190.0
875,C2,130.0,271/1000,51,190.0
876,B1,130.25,271/1000,48,190.0
877,C2,130.5,271/1000,51,190.0
878,B1,130.75,0.125,48,190.0
879,C#2,130.875,73/500,47,190.0
880,C2,131.0,271/1000,52,190.0
881,E4,131.0,1.0,38,190.0
882,E3,131.0,1.0,38,190.0
883,G3,131.0,1.0,38,190.0
884,D2,131.25,271/1000,48,190.0
885,E2,131.5,271/1000,51,190.0
886,C2,131.75,0.25,47,190.0
887,F2,132.0,271/1000,51,190.0
888,C2,132.0,21/1000,47,190.0
889,E2,132.25,271/1000,48,190.0
890,F2,132.5,271/1000,51,190.0
891,E2,132.75,0.125,48,190.0
892,G2,132.875,73/500,46,190.0
893,F2,133.0,271/1000,50,190.0
894,B3,133.0,1.0,38,190.0
895,D3,133.0,1.0,38,190.0
896,G#3,133.0,1.0,38,190.0
897,D2,133.25,271/1000,48,190.0
898,C2,133.5,271/1000,51,190.0
899,B1,133.75,0.25,47,190.0
900,E2,134.0,271/1000,51,190.0
901,B1,134.0,21/1000,47,190.0
902,E-2,134.25,271/1000,48,190.0
903,E2,134.5,271/1000,51,190.0
904,E-2,134.75,0.125,48,190.0
905,F2,134.875,73/500,45,190.0
906,E2,135.0,271/1000,50,190.0
907,C4,135.0,1.0,38,190.0
908,E3,135.0,1.0,38,190.0
909,A3,135.0,1.0,38,190.0
910,C2,135.25,271/1000,48,190.0
911,B1,135.5,271/1000,51,190.0
912,A1,135.75,0.25,47,190.0
913,D4,136.0,0.5,43,190.0
914,B1,136.0,271/1000,51,190.0
915,F3,136.0,1.0,36,190.0
916,A3,136.0,1.0,36,190.0
917,B-1,136.25,271/1000,48,190.0
918,E-4,136.5,0.5,43,190.0
919,B1,136.5,271/1000,51,190.0
920,B-1,136.75,0.25,48,190.0
921,C2,137.0,271/1000,51,190.0
922,E4,137.0,0.5,38,190.0
923,E3,137.0,0.5,38,190.0
924,G#3,137.0,0.5,38,190.0
925,B1,137.25,271/1000,48,190.0
926,F2,137.5,271/1000,51,190.0
927,E2,137.75,0.25,47,190.0
928,A1,138.0,0.25,43,190.0
929,G#1,138.25,0.25,40,190.0
930,A1,138.5,0.25,43,190.0
931,G#1,138.75,0.125,40,190.0
932,B-1,138.875,73/500,36,190.0
933,A1,139.0,0.25,43,190.0
934,D4,139.0,0.5,32,190.0
935,F3,139.0,0.5,32,190.0
936,A3,139.0,0.5,32,190.0
937,G#1,139.25,0.25,40,190.0
938,A1,139.5,0.25,43,190.0
939,G#1,139.75,0.25,40,190.0
940,A1,140.0,0.25,43,190.0
941,E3,140.0,0.5,32,190.0
942,A3,140.0,0.5,32,190.0
943,C4,140.0,0.5,32,190.0
944,G#1,140.25,0.25,39,190.0
945,A1,140.5,0.25,42,190.0
946,G#1,140.75,0.125,38,190.0
947,B-1,140.875,73/500,40,190.0
948,A1,141.0,0.25,38,190.0
949,D3,141.0,0.5,28,190.0
950,F3,141.0,0.5,28,190.0
951,A3,141.0,0.5,28,190.0
952,G#1,141.25,0.25,35,190.0
953,A1,141.5,0.25,37,190.0
954,G#1,141.75,0.25,33,190.0
955,A1,142.0,0.25,35,190.0
956,C3,142.0,0.5,26,190.0
957,E3,142.0,0.5,26,190.0
958,A3,142.0,0.5,26,190.0
959,G#1,142.25,0.25,31,190.0
960,A1,142.5,0.25,32,190.0
961,G#1,142.75,0.125,28,190.0
962,B-1,142.875,73/500,29,190.0
963,A1,143.0,0.25,29,190.0
964,D3,143.0,0.5,22,190.0
965,F3,143.0,0.5,22,190.0
966,G#1,143.25,0.25,27,190.0
967,A1,143.5,0.25,27,190.0
968,G#1,143.75,0.25,24,190.0
969,A1,144.0,0.5,23,190.0
970,C3,144.0,0.5,16,190.0
971,E3,144.0,0.5,16,190.0
972,A3,144.0,0.5,16,190.0
973,A4,146.0,0.25,66,190.0
974,A3,146.0,0.25,66,190.0
975,C2,146.0,1.0,63,190.0
976,C3,146.0,1.0,63,190.0
977,E-4,146.25,0.125,48,190.0
978,F#4,146.25,0.125,48,190.0
979,A3,146.75,0.25,50,190.0
980,A4,146.75,0.25,50,190.0
981,E-3,146.75,0.25,43,190.0
982,F#3,146.75,0.25,43,190.0
983,C4,146.75,0.25,43,190.0
984,A4,147.0,0.25,62,190.0
985,A3,147.0,0.25,62,190.0
986,E-3,147.0,0.25,48,190.0
987,F#3,147.0,0.25,48,190.0
988,C4,147.0,0.25,48,190.0
989,C5,147.25,0.25,58,190.0
990,C4,147.25,0.25,58,190.0
991,B4,147.5,0.25,62,190.0
992,B3,147.5,0.25,62,190.0
993,A1,147.5,0.5,50,190.0
994,A2,147.5,0.5,50,190.0
995,A4,147.75,0.25,58,190.0
996,A3,147.75,0.25,58,190.0
997,E5,148.0,0.25,66,190.0
998,E4,148.0,0.25,66,190.0
999,G#1,148.0,0.5,60,190.0
1000,G#2,148.0,0.5,60,190.0
1001,G#4,148.25,0.125,48,190.0
1002,B4,148.25,0.125,48,190.0
1003,B1,148.5,0.5,58,190.0
1004,B2,148.5,0.5,58,190.0
1005,E4,148.75,0.25,50,190.0
1006,E5,148.75,0.25,50,190.0
1007,E5,149.0,0.25,62,190.0
1008,E4,149.0,0.25,62,190.0
1009,E2,149.0,1.0,64,190.0
1010,G#2,149.0,1.0,64,190.0
1011,E3,149.0,1.0,64,190.0
1012,G5,149.25,0.25,58,190.0
1013,G4,149.25,0.25,58,190.0
1014,F5,149.5,0.25,62,190.0
1015,F4,149.5,0.25,62,190.0
1016,E5,149.75,0.25,58,190.0
1017,E4,149.75,0.25,58,190.0
1018,A4,150.0,0.25,68,190.0
1019,A3,150.0,0.25,68,190.0
1020,C2,150.0,1.0,70,190.0
1021,C3,150.0,1.0,70,190.0
1022,E-4,150.25,0.125,50,190.0
1023,F#4,150.25,0.125,50,190.0
1024,A3,150.75,0.25,54,190.0
1025,A4,150.75,0.25,54,190.0
1026,E-3,150.75,0.25,46,190.0
1027,F#3,150.75,0.25,46,190.0
1028,C4,150.75,0.25,46,190.0
1029,A4,151.0,0.25,64,190.0
1030,A3,151.0,0.25,64,190.0
1031,E-3,151.0,0.25,50,190.0
1032,F#3,151.0,0.25,50,190.0
1033,C4,151.0,0.25,50,190.0
1034,C5,151.25,0.25,60,190.0
1035,C4,151.25,0.25,60,190.0
1036,B4,151.5,0.25,64,190.0
1037,B3,151.5,0.25,64,190.0
1038,A1,151.5,0.5,53,190.0
1039,A2,151.5,0.5,53,190.0
1040,A4,151.75,0.25,60,190.0
1041,A3,151.75,0.25,60,190.0
1042,G#4,152.0,0.25,68,190.0
1043,G#3,152.0,0.25,68,190.0
1044,B1,152.0,0.5,58,190.0
1045,B2,152.0,0.5,58,190.0
1046,B3,152.25,0.125,68,190.0
1047,E-2,152.5,0.5,65,190.0
1048,E-3,152.5,0.5,65,190.0
1049,E-4,152.75,0.25,64,190.0
1050,G#3,153.0,0.5,66,190.0
1051,F4,153.0,0.5,66,190.0
1052,B3,153.0,0.5,66,190.0
1053,F2,153.0,0.5,71,190.0
1054,F3,153.0,0.5,71,190.0
1055,E4,153.5,0.25,70,190.0
1056,E2,153.5,0.25,68,190.0
1057,E3,153.5,0.25,68,190.0
1058,A5,154.0,0.25,72,190.0
1059,A4,154.0,0.25,72,190.0
1060,C2,154.0,1.0,68,190.0
1061,C3,154.0,1.0,68,190.0
1062,E-5,154.25,0.125,52,190.0
1063,F#5,154.25,0.125,52,190.0
1064,A4,154.75,0.25,56,190.0
1065,A5,154.75,0.25,56,190.0
1066,E-3,154.75,0.25,43,190.0
1067,F#3,154.75,0.25,43,190.0
1068,C4,154.75,0.25,43,190.0
1069,A5,155.0,0.25,68,190.0
1070,A4,155.0,0.25,68,190.0
1071,E-3,155.0,0.25,48,190.0
1072,F#3,155.0,0.25,48,190.0
1073,C4,155.0,0.25,48,190.0
1074,C6,155.25,0.25,64,190.0
1075,C5,155.25,0.25,64,190.0
1076,B5,155.5,0.25,68,190.0
1077,B4,155.5,0.25,68,190.0
1078,A1,155.5,0.5,50,190.0
1079,A2,155.5,0.5,50,190.0
1080,A5,155.75,0.25,64,190.0
1081,A4,155.75,0.25,64,190.0
1082,E6,156.0,0.25,72,190.0
1083,E5,156.0,0.25,72,190.0
1084,G#1,156.0,0.5,60,190.0
1085,G#2,156.0,0.5,60,190.0
1086,G#5,156.25,0.125,52,190.0
1087,B5,156.25,0.125,52,190.0
1088,B1,156.5,0.5,58,190.0
1089,B2,156.5,0.5,58,190.0
1090,E5,156.75,0.25,56,190.0
1091,E6,156.75,0.25,56,190.0
1092,E6,157.0,0.25,68,190.0
1093,E5,157.0,0.25,68,190.0
1094,E2,157.0,1.0,64,190.0
1095,G#2,157.0,1.0,64,190.0
1096,E3,157.0,1.0,64,190.0
1097,G6,157.25,0.25,64,190.0
1098,G5,157.25,0.25,64,190.0
1099,F6,157.5,0.25,68,190.0
1100,F5,157.5,0.25,68,190.0
1101,E6,157.75,0.25,64,190.0
1102,E5,157.75,0.25,64,190.0
1103,A5,158.0,0.25,74,190.0
1104,A4,158.0,0.25,74,190.0
1105,C2,158.0,1.0,70,190.0
1106,C3,158.0,1.0,70,190.0
1107,E-5,158.25,0.125,55,190.0
1108,F#5,158.25,0.125,55,190.0
1109,A4,158.75,0.25,58,190.0
1110,A5,158.75,0.25,58,190.0
1111,E-3,158.75,0.25,46,190.0
1112,F#3,158.75,0.25,46,190.0
1113,C4,158.75,0.25,46,190.0
1114,A5,159.0,0.25,68,190.0
1115,A4,159.0,0.25,68,190.0
1116,E-3,159.0,0.25,50,190.0
1117,F#3,159.0,0.25,50,190.0
1118,C4,159.0,0.25,50,190.0
1119,C6,159.25,0.25,64,190.0
1120,C5,159.25,0.25,64,190.0
1121,B5,159.5,0.25,68,190.0
1122,B4,159.5,0.25,68,190.0
1123,A1,159.5,0.5,53,190.0
1124,A2,159.5,0.5,53,190.0
1125,A5,159.75,0.25,64,190.0
1126,A4,159.75,0.25,64,190.0
1127,G#5,160.0,0.25,72,190.0
1128,G#4,160.0,0.25,72,190.0
1129,B1,160.0,0.5,58,190.0
1130,B2,160.0,0.5,58,190.0
1131,B5,160.25,0.125,70,190.0
1132,B4,160.25,0.125,70,190.0
1133,E-2,160.5,0.5,65,190.0
1134,E-3,160.5,0.5,65,190.0
1135,E-6,160.75,0.25,62,190.0
1136,E-5,160.75,0.25,62,190.0
1137,F6,161.0,0.5,67,190.0
1138,F5,161.0,0.5,67,190.0
1139,F2,161.0,0.5,71,190.0
1140,F3,161.0,0.5,71,190.0
1141,E6,161.5,0.25,68,190.0
1142,E5,161.5,0.25,68,190.0
1143,E2,161.5,0.25,68,190.0
1144,E3,161.5,0.25,68,190.0
1145,A5,162.0,0.25,73,190.0
1146,A6,162.0,0.25,73,190.0
1147,G5,162.0,0.25,73,190.0
1148,A2,162.0,1.0,58,190.0
1149,E3,162.0,1.0,58,190.0
1150,C#4,162.0,1.0,58,190.0
1151,C#6,162.25,0.125,55,190.0
1152,E6,162.25,0.125,55,190.0
1153,A5,162.75,0.25,58,190.0
1154,A6,162.75,0.25,58,190.0
1155,C#4,162.75,0.25,43,190.0
1156,E4,162.75,0.25,43,190.0
1157,A4,162.75,0.25,43,190.0
1158,A6,163.0,0.25,71,190.0
1159,A5,163.0,0.25,71,190.0
1160,C#4,163.0,0.25,48,190.0
1161,E4,163.0,0.25,48,190.0
1162,A4,163.0,0.25,48,190.0
1163,B-6,163.25,0.25,66,190.0
1164,B-5,163.25,0.25,66,190.0
1165,A6,163.5,0.25,71,190.0
1166,A5,163.5,0.25,71,190.0
1167,C#2,163.5,0.5,50,190.0
1168,E3,163.5,0.5,50,190.0
1169,G6,163.75,0.25,66,190.0
1170,G5,163.75,0.25,66,190.0
1171,F6,164.0,0.25,75,190.0
1172,F5,164.0,0.25,75,190.0
1173,D2,164.0,0.5,60,190.0
1174,F3,164.0,0.5,60,190.0
1175,A5,164.25,0.125,55,190.0
1176,D6,164.25,0.125,55,190.0
1177,E2,164.5,0.5,58,190.0
1178,G3,164.5,0.5,58,190.0
1179,C#5,164.75,0.25,58,190.0
1180,C#6,164.75,0.25,58,190.0
1181,D6,165.0,0.25,71,190.0
1182,D5,165.0,0.25,71,190.0
1183,F2,165.0,0.5,66,190.0
1184,G#3,165.0,0.5,66,190.0
1185,F6,165.25,0.25,66,190.0
1186,F5,165.25,0.25,66,190.0
1187,E-6,165.5,0.25,71,190.0
1188,E-5,165.5,0.25,71,190.0
1189,F#2,165.5,0.5,70,190.0
1190,A3,165.5,0.5,70,190.0
1191,D6,165.75,0.25,66,190.0
1192,D5,165.75,0.25,66,190.0
1193,G5,166.0,0.25,73,190.0
1194,G6,166.0,0.25,73,190.0
1195,F5,166.0,0.25,73,190.0
1196,G2,166.0,1.0,58,190.0
1197,D3,166.0,1.0,58,190.0
1198,B3,166.0,1.0,58,190.0
1199,B5,166.25,0.125,55,190.0
1200,D6,166.25,0.125,55,190.0
1201,G5,166.75,0.25,58,190.0
1202,G6,166.75,0.25,58,190.0
1203,B3,166.75,0.25,43,190.0
1204,D4,166.75,0.25,43,190.0
1205,G4,166.75,0.25,43,190.0
1206,G6,167.0,0.25,71,190.0
1207,G5,167.0,0.25,71,190.0
1208,B3,167.0,0.25,48,190.0
1209,D4,167.0,0.25,48,190.0
1210,G4,167.0,0.25,48,190.0
1211,G#6,167.25,0.25,66,190.0
1212,G#5,167.25,0.25,66,190.0
1213,G6,167.5,0.25,71,190.0
1214,G5,167.5,0.25,71,190.0
1215,B1,167.5,0.5,50,190.0
1216,D3,167.5,0.5,50,190.0
1217,F6,167.75,0.25,66,190.0
1218,F5,167.75,0.25,66,190.0
1219,E6,168.0,0.25,75,190.0
1220,E5,168.0,0.25,75,190.0
1221,C2,168.0,0.5,60,190.0
1222,E3,168.0,0.5,60,190.0
1223,G5,168.25,0.125,55,190.0
1224,C6,168.25,0.125,55,190.0
1225,D2,168.5,0.5,58,190.0
1226,F3,168.5,0.5,58,190.0
1227,B4,168.75,0.25,58,190.0
1228,B5,168.75,0.25,58,190.0
1229,C6,169.0,0.25,71,190.0
1230,C5,169.0,0.25,71,190.0
1231,E-2,169.0,0.5,69,190.0
1232,F#3,169.0,0.5,69,190.0
1233,E-6,169.25,0.25,66,190.0
1234,E-5,169.25,0.25,66,190.0
1235,C#6,169.5,0.25,71,190.0
1236,C#5,169.5,0.25,71,190.0
1237,E2,169.5,0.5,76,190.0
1238,G3,169.5,0.5,76,190.0
1239,C6,169.75,0.25,66,190.0
1240,C5,169.75,0.25,66,190.0
1241,F6,170.0,0.25,75,190.0
1242,F5,170.0,0.25,75,190.0
1243,D3,170.0,0.25,65,190.0
1244,F2,170.0,0.25,65,190.0
1245,B2,170.0,0.25,65,190.0
1246,G#3,170.0,0.25,65,190.0
1247,G#5,170.25,0.125,55,190.0
1248,B5,170.25,0.125,55,190.0
1249,G#4,170.75,0.25,50,190.0
1250,B4,170.75,0.25,50,190.0
1251,D4,170.75,0.25,44,190.0
1252,F4,170.75,0.25,44,190.0
1253,B4,171.0,0.25,66,190.0
1254,G#4,171.0,1.0,58,190.0
1255,D4,171.0,0.25,45,190.0
1256,F4,171.0,1.0,54,190.0
1257,D5,171.25,0.25,62,190.0
1258,B3,171.25,0.25,45,190.0
1259,C5,171.5,0.25,66,190.0
1260,C4,171.5,0.25,45,190.0
1261,B4,171.75,0.25,62,190.0
1262,D4,171.75,0.25,45,190.0
1263,E6,172.0,0.25,75,190.0
1264,E5,172.0,0.25,75,190.0
1265,E2,172.0,0.25,53,190.0
1266,C3,172.0,0.25,53,190.0
1267,A3,172.0,0.25,53,190.0
1268,A5,172.25,0.125,55,190.0
1269,C6,172.25,0.125,55,190.0
1270,C4,172.75,0.25,45,190.0
1271,E4,172.75,0.25,52,190.0
1272,A4,172.75,0.25,52,190.0
1273,A4,173.0,0.25,61,190.0
1274,E4,173.0,1.0,54,190.0
1275,C4,173.0,0.25,49,190.0
1276,C5,173.25,0.25,56,190.0
1277,A3,173.25,0.25,42,190.0
1278,B4,173.5,0.25,61,190.0
1279,B3,173.5,0.25,42,190.0
1280,A4,173.75,0.25,57,190.0
1281,C4,173.75,0.25,42,190.0
1282,D4,174.0,0.25,57,190.0
1283,D5,174.0,0.25,57,190.0
1284,B2,174.0,1.0,41,190.0
1285,F3,174.0,1.0,41,190.0
1286,A3,174.0,1.0,41,190.0
1287,F4,174.25,0.25,56,190.0
1288,F5,174.25,0.25,56,190.0
1289,E4,174.5,0.25,56,190.0
1290,E5,174.5,0.25,56,190.0
1291,E-4,174.75,0.25,52,190.0
1292,E-5,174.75,0.25,52,190.0
1293,E4,175.0,0.25,56,190.0
1294,E5,175.0,0.25,56,190.0
1295,E2,175.0,1.0,41,190.0
1296,G#3,175.0,1.0,41,190.0
1297,B3,175.25,0.25,46,190.0
1298,B4,175.25,0.25,46,190.0
1299,D4,175.5,0.25,48,190.0
1300,D5,175.5,0.25,48,190.0
1301,C4,175.75,0.25,46,190.0
1302,C5,175.75,0.25,46,190.0
1303,E4,176.0,0.25,54,190.0
1304,E3,176.0,0.25,41,190.0
1305,B3,176.0,1.0,35,190.0
1306,B4,176.0,1.0,35,190.0
1307,A2,176.0,1.0,29,190.0
1308,D3,176.0,1.0,29,190.0
1309,G#3,176.0,1.0,29,190.0
1310,G4,176.25,0.25,45,190.0
1311,G3,176.25,0.25,38,190.0
1312,F4,176.5,0.25,45,190.0
1313,F3,176.5,0.25,36,190.0
1314,E4,176.75,0.5,42,190.0
1315,E3,176.75,0.5,35,190.0
1316,A3,177.0,0.25,32,190.0
1317,A4,177.0,0.25,32,190.0
1318,C3,177.0,0.25,31,190.0
1319,A2,177.0,0.25,31,190.0
1320,A5,178.0,0.5,45,190.0
1321,A3,178.0,0.125,38,190.0
1322,C4,178.0,0.125,38,190.0
1323,A4,178.0,0.125,38,190.0
1324,A6,178.25,73/250,51,190.0
1325,G#6,178.5,73/250,47,190.0
1326,G#5,178.5,73/250,47,190.0
1327,E4,178.5,0.125,40,190.0
1328,C5,178.5,0.125,40,190.0
1329,G6,178.75,73/250,46,190.0
1330,G5,178.75,73/250,46,190.0
1331,F#6,179.0,73/250,46,190.0
1332,F#5,179.0,73/250,46,190.0
1333,D4,179.0,0.125,38,190.0
1334,B4,179.0,0.125,38,190.0
1335,F6,179.25,73/250,45,190.0
1336,F5,179.25,73/250,45,190.0
1337,E6,179.5,73/250,45,190.0
1338,E5,179.5,73/250,45,190.0
1339,C4,179.5,0.125,37,190.0
1340,A4,179.5,0.125,37,190.0
1341,E-6,179.75,0.25,44,190.0
1342,E-5,179.75,0.25,44,190.0
1343,F5,180.0,73/250,47,190.0
1344,F6,180.0,73/250,47,190.0
1345,E3,180.0,0.125,38,190.0
1346,G#3,180.0,0.125,38,190.0
1347,E4,180.0,0.125,38,190.0
1348,E5,180.25,73/250,41,190.0
1349,E6,180.25,73/250,41,190.0
1350,E-5,180.5,73/250,44,190.0
1351,E-6,180.5,73/250,44,190.0
1352,B3,180.5,0.125,36,190.0
1353,G4,180.5,0.125,36,190.0
1354,F6,180.75,0.25,41,190.0
1355,F5,180.75,0.25,41,190.0
1356,E5,181.0,0.5,40,190.0
1357,E6,181.0,73/250,47,190.0
1358,A3,181.0,0.125,41,190.0
1359,F4,181.0,0.125,41,190.0
1360,B5,181.25,73/250,46,190.0
1361,B4,181.5,0.5,38,190.0
1362,G#5,181.5,73/250,45,190.0
1363,G#3,181.5,0.125,38,190.0
1364,E4,181.5,0.125,38,190.0
1365,E5,181.75,0.25,45,190.0
1366,A5,182.0,0.5,45,190.0
1367,A3,182.0,0.125,38,190.0
1368,C4,182.0,0.125,38,190.0
1369,A4,182.0,0.125,38,190.0
1370,A6,182.25,73/250,51,190.0
1371,G#6,182.5,73/250,47,190.0
1372,G#5,182.5,73/250,47,190.0
1373,E4,182.5,0.125,40,190.0
1374,C5,182.5,0.125,40,190.0
1375,G6,182.75,73/250,46,190.0
1376,G5,182.75,73/250,46,190.0
1377,F#6,183.0,73/250,46,190.0
1378,F#5,183.0,73/250,46,190.0
1379,D4,183.0,0.125,38,190.0
1380,B4,183.0,0.125,38,190.0
1381,F6,183.25,73/250,45,190.0
1382,F5,183.25,73/250,45,190.0
1383,E6,183.5,73/250,45,190.0
1384,E5,183.5,73/250,45,190.0
1385,C4,183.5,0.125,37,190.0
1386,A4,183.5,0.125,37,190.0
1387,E-6,183.75,0.25,44,190.0
1388,E-5,183.75,0.25,44,190.0
1389,F5,184.0,73/250,47,190.0
1390,F6,184.0,73/250,47,190.0
1391,A3,184.0,0.25,38,190.0
1392,C4,184.0,0.25,38,190.0
1393,F4,184.0,0.25,38,190.0
1394,E5,184.25,73/250,41,190.0
1395,E6,184.25,73/250,41,190.0
1396,E-5,184.5,73/250,44,190.0
1397,E-6,184.5,73/250,44,190.0
1398,F6,184.75,73/250,41,190.0
1399,F5,184.75,73/250,41,190.0
1400,E5,185.0,0.25,44,190.0
1401,E6,185.0,0.25,44,190.0
1402,E3,185.0,0.25,40,190.0
1403,G#3,185.0,0.25,40,190.0
1404,E4,185.0,0.25,40,190.0
1405,E5,185.5,0.25,47,190.0
1406,A5,186.0,0.5,45,190.0
1407,A3,186.0,0.125,38,190.0
1408,C4,186.0,0.125,38,190.0
1409,A4,186.0,0.125,38,190.0
1410,A6,186.25,73/250,51,190.0
1411,G#6,186.5,73/250,47,190.0
1412,G#5,186.5,73/250,47,190.0
1413,E4,186.5,0.125,40,190.0
1414,C5,186.5,0.125,40,190.0
1415,G6,186.75,73/250,46,190.0
1416,G5,186.75,73/250,46,190.0
1417,F#6,187.0,73/250,46,190.0
1418,F#5,187.0,73/250,46,190.0
1419,D4,187.0,0.125,38,190.0
1420,B4,187.0,0.125,38,190.0
1421,F6,187.25,73/250,45,190.0
1422,F5,187.25,73/250,45,190.0
1423,E6,187.5,73/250,45,190.0
1424,E5,187.5,73/250,45,190.0
1425,C4,187.5,0.125,37,190.0
1426,A4,187.5,0.125,37,190.0
1427,E-6,187.75,0.25,44,190.0
1428,E-5,187.75,0.25,44,190.0
1429,F5,188.0,73/250,47,190.0
1430,F6,188.0,73/250,47,190.0
1431,E3,188.0,0.125,38,190.0
1432,G#3,188.0,0.125,38,190.0
1433,E4,188.0,0.125,38,190.0
1434,E5,188.25,73/250,41,190.0
1435,E6,188.25,73/250,41,190.0
1436,E-5,188.5,73/250,44,190.0
1437,E-6,188.5,73/250,44,190.0
1438,B3,188.5,0.125,36,190.0
1439,G4,188.5,0.125,36,190.0
1440,F6,188.75,0.25,41,190.0
1441,F5,188.75,0.25,41,190.0
1442,E5,189.0,0.5,40,190.0
1443,E6,189.0,73/250,47,190.0
1444,A3,189.0,0.125,41,190.0
1445,F4,189.0,0.125,41,190.0
1446,B5,189.25,73/250,46,190.0
1447,B4,189.5,0.5,38,190.0
1448,G#5,189.5,73/250,45,190.0
1449,G#3,189.5,0.125,38,190.0
1450,E4,189.5,0.125,38,190.0
1451,E5,189.75,0.25,45,190.0
1452,A5,190.0,0.5,45,190.0
1453,A3,190.0,0.125,38,190.0
1454,C4,190.0,0.125,38,190.0
1455,A4,190.0,0.125,38,190.0
1456,A6,190.25,73/250,51,190.0
1457,G#6,190.5,73/250,47,190.0
1458,G#5,190.5,73/250,47,190.0
1459,E4,190.5,0.125,40,190.0
1460,C5,190.5,0.125,40,190.0
1461,G6,190.75,73/250,46,190.0
1462,G5,190.75,73/250,46,190.0
1463,F#6,191.0,73/250,46,190.0
1464,F#5,191.0,73/250,46,190.0
1465,D4,191.0,0.125,38,190.0
1466,B4,191.0,0.125,38,190.0
1467,F6,191.25,73/250,45,190.0
1468,F5,191.25,73/250,45,190.0
1469,E6,191.5,73/250,45,190.0
1470,E5,191.5,73/250,45,190.0
1471,C4,191.5,0.125,37,190.0
1472,A4,191.5,0.125,37,190.0
1473,E-6,191.75,0.25,44,190.0
1474,E-5,191.75,0.25,44,190.0
1475,F5,192.0,73/250,47,190.0
1476,F6,192.0,73/250,47,190.0
1477,A3,192.0,0.25,38,190.0
1478,C4,192.0,0.25,38,190.0
1479,F4,192.0,0.25,38,190.0
1480,E5,192.25,73/250,41,190.0
1481,E6,192.25,73/250,41,190.0
1482,E-5,192.5,73/250,44,190.0
1483,E-6,192.5,73/250,44,190.0
1484,F6,192.75,73/250,41,190.0
1485,F5,192.75,73/250,41,190.0
1486,E5,193.0,0.25,44,190.0
1487,E6,193.0,0.25,44,190.0
1488,E3,193.0,0.25,40,190.0
1489,G#3,193.0,0.25,40,190.0
1490,E4,193.0,0.25,40,190.0
1491,E5,193.5,0.25,47,190.0
1492,A5,194.0,0.5,53,190.0
1493,A3,194.0,0.125,45,190.0
1494,C#4,194.0,0.125,45,190.0
1495,A4,194.0,0.125,45,190.0
1496,A6,194.25,73/250,60,190.0
1497,G#6,194.5,73/250,55,190.0
1498,G#5,194.5,73/250,55,190.0
1499,D4,194.5,0.125,46,190.0
1500,B-4,194.5,0.125,46,190.0
1501,G6,194.75,73/250,54,190.0
1502,G5,194.75,73/250,54,190.0
1503,F#6,195.0,73/250,54,190.0
1504,F#5,195.0,73/250,54,190.0
1505,C#4,195.0,0.125,44,190.0
1506,A4,195.0,0.125,44,190.0
1507,F6,195.25,73/250,54,190.0
1508,F5,195.25,73/250,54,190.0
1509,E6,195.5,73/250,54,190.0
1510,E5,195.5,73/250,54,190.0
1511,B-3,195.5,0.125,44,190.0
1512,G4,195.5,0.125,44,190.0
1513,D6,195.75,0.25,53,190.0
1514,D5,195.75,0.25,53,190.0
1515,C#5,196.0,0.5,50,190.0
1516,C#6,196.0,73/250,60,190.0
1517,A3,196.0,0.125,46,190.0
1518,F4,196.0,0.125,46,190.0
1519,E6,196.25,73/250,53,190.0
1520,C#5,196.5,0.5,48,190.0
1521,A5,196.5,73/250,58,190.0
1522,G3,196.5,0.125,43,190.0
1523,E4,196.5,0.125,43,190.0
1524,C#6,196.75,0.25,53,190.0
1525,D5,197.0,0.5,48,190.0
1526,D6,197.0,73/250,57,190.0
1527,F3,197.0,0.125,49,190.0
1528,D4,197.0,0.125,49,190.0
1529,A5,197.25,73/250,56,190.0
1530,A4,197.5,0.5,46,190.0
1531,F5,197.5,73/250,55,190.0
1532,D3,197.5,0.125,44,190.0
1533,F4,197.5,0.125,44,190.0
1534,D5,197.75,0.25,53,190.0
1535,G5,198.0,0.5,56,190.0
1536,G3,198.0,0.125,47,190.0
1537,B3,198.0,0.125,47,190.0
1538,G4,198.0,0.125,47,190.0
1539,G6,198.25,73/250,63,190.0
1540,F#6,198.5,73/250,58,190.0
1541,F#5,198.5,73/250,58,190.0
1542,C4,198.5,0.125,48,190.0
1543,G#4,198.5,0.125,48,190.0
1544,F6,198.75,73/250,56,190.0
1545,F5,198.75,73/250,56,190.0
1546,E6,199.0,73/250,56,190.0
1547,E5,199.0,73/250,56,190.0
1548,B3,199.0,0.125,46,190.0
1549,G4,199.0,0.125,46,190.0
1550,E-6,199.25,73/250,56,190.0
1551,E-5,199.25,73/250,56,190.0
1552,D6,199.5,73/250,56,190.0
1553,D5,199.5,73/250,56,190.0
1554,G#3,199.5,0.125,45,190.0
1555,F4,199.5,0.125,45,190.0
1556,C6,199.75,0.25,54,190.0
1557,C5,199.75,0.25,54,190.0
1558,B4,200.0,0.5,52,190.0
1559,B5,200.0,73/250,63,190.0
1560,G3,200.0,0.125,48,190.0
1561,E4,200.0,0.125,48,190.0
1562,D6,200.25,73/250,56,190.0
1563,B4,200.5,0.5,49,190.0
1564,G5,200.5,73/250,59,190.0
1565,F3,200.5,0.125,44,190.0
1566,D4,200.5,0.125,44,190.0
1567,B5,200.75,0.25,56,190.0
1568,C5,201.0,0.5,49,190.0
1569,C6,201.0,73/250,59,190.0
1570,E3,201.0,0.125,52,190.0
1571,C4,201.0,0.125,52,190.0
1572,G5,201.25,73/250,58,190.0
1573,G4,201.5,0.5,48,190.0
1574,E5,201.5,73/250,57,190.0
1575,C3,201.5,0.125,46,190.0
1576,E4,201.5,0.125,46,190.0
1577,C5,201.75,0.25,56,190.0
1578,F5,202.0,0.25,50,190.0
1579,B3,202.0,0.25,38,190.0
1580,D3,202.0,0.25,38,190.0
1581,G#3,202.0,0.25,38,190.0
1582,F4,202.0,0.25,38,190.0
1583,A6,202.125,0.125,63,190.0
1584,E6,202.5,73/250,47,190.0
1585,E5,202.5,73/250,47,190.0
1586,E-6,202.75,73/250,46,190.0
1587,E-5,202.75,73/250,46,190.0
1588,D5,203.0,73/250,50,190.0
1589,C#6,203.25,73/250,45,190.0
1590,C#5,203.25,73/250,45,190.0
1591,C6,203.5,73/250,45,190.0
1592,C5,203.5,73/250,45,190.0
1593,B5,203.75,0.25,44,190.0
1594,B4,203.75,0.25,44,190.0
1595,E5,204.0,0.25,54,190.0
1596,A3,204.0,0.25,38,190.0
1597,C3,204.0,0.25,38,190.0
1598,E4,204.0,0.25,38,190.0
1599,G6,204.125,0.125,66,190.0
1600,E-6,204.5,73/250,47,190.0
1601,E-5,204.5,73/250,47,190.0
1602,D6,204.75,73/250,46,190.0
1603,D5,204.75,73/250,46,190.0
1604,C5,205.0,73/250,50,190.0
1605,B5,205.25,73/250,45,190.0
1606,B4,205.25,73/250,45,190.0
1607,B-5,205.5,73/250,45,190.0
1608,B-4,205.5,73/250,45,190.0
1609,A5,205.75,0.25,44,190.0
1610,A4,205.75,0.25,44,190.0
1611,A3,206.0,0.125,46,190.0
1612,F4,206.0,0.125,46,190.0
1613,E5,206.25,73/250,45,190.0
1614,E4,206.25,73/250,45,190.0
1615,E-5,206.5,73/250,45,190.0
1616,E-4,206.5,73/250,45,190.0
1617,D5,206.75,0.25,44,190.0
1618,D4,206.75,0.25,44,190.0
1619,G#3,207.0,0.125,46,190.0
1620,E4,207.0,0.125,46,190.0
1621,C5,207.25,73/250,45,190.0
1622,C4,207.25,73/250,45,190.0
1623,B4,207.5,73/250,45,190.0
1624,B3,207.5,73/250,45,190.0
1625,B-4,207.75,0.25,44,190.0
1626,B-3,207.75,0.25,44,190.0
1627,A3,208.0,73/250,52,190.0
1628,F4,208.25,73/250,50,190.0
1629,F3,208.25,73/250,44,190.0
1630,E4,208.5,73/250,49,190.0
1631,E3,208.5,73/250,44,190.0
1632,E-4,208.75,73/250,48,190.0
1633,E-3,208.75,73/250,43,190.0
1634,D4,209.0,73/250,46,190.0
1635,D3,209.0,73/250,42,190.0
1636,C4,209.25,73/250,45,190.0
1637,C3,209.25,73/250,41,190.0
1638,B3,209.5,73/250,45,190.0
1639,B2,209.5,73/250,41,190.0
1640,B-3,209.75,0.25,44,190.0
1641,B-2,209.75,0.25,40,190.0
1642,A3,210.0,0.25,45,190.0
1643,A2,210.0,0.25,43,190.0
1644,F6,210.5,73/250,47,190.0
1645,A5,210.5,73/250,47,190.0
1646,C6,210.75,73/250,46,190.0
1647,F5,210.75,73/250,46,190.0
1648,E5,211.0,73/250,41,190.0
1649,A4,211.0,73/250,41,190.0
1650,C5,211.25,73/250,40,190.0
1651,E4,211.25,73/250,40,190.0
1652,C4,211.5,167/1000,47,190.0
1653,C3,211.5,167/1000,45,190.0
1654,B3,211.667,167/1000,46,190.0
1655,B2,211.667,167/1000,44,190.0
1656,A3,211.833,167/1000,45,190.0
1657,A2,211.833,167/1000,42,190.0
1658,G#3,212.0,0.25,45,190.0
1659,G#2,212.0,0.25,43,190.0
1660,E-6,212.5,73/250,47,190.0
1661,G#5,212.5,73/250,47,190.0
1662,B5,212.75,73/250,46,190.0
1663,E-5,212.75,73/250,46,190.0
1664,E5,213.0,73/250,41,190.0
1665,G#4,213.0,73/250,41,190.0
1666,B4,213.25,73/250,40,190.0
1667,E4,213.25,73/250,40,190.0
1668,E3,213.5,167/1000,39,190.0
1669,E2,213.5,167/1000,36,190.0
1670,F#3,213.667,167/1000,41,190.0
1671,F#2,213.667,167/1000,39,190.0
1672,G#3,213.833,167/1000,43,190.0
1673,G#2,213.833,167/1000,42,190.0
1674,A3,214.0,0.25,45,190.0
1675,A2,214.0,0.25,43,190.0
1676,F6,214.5,73/250,47,190.0
1677,A5,214.5,73/250,47,190.0
1678,C6,214.75,73/250,46,190.0
1679,F5,214.75,73/250,46,190.0
1680,E5,215.0,73/250,41,190.0
1681,A4,215.0,73/250,41,190.0
1682,C5,215.25,73/250,40,190.0
1683,E4,215.25,73/250,40,190.0
1684,C4,215.5,167/1000,47,190.0
1685,C3,215.5,167/1000,45,190.0
1686,B3,215.667,167/1000,46,190.0
1687,B2,215.667,167/1000,44,190.0
1688,A3,215.833,167/1000,45,190.0
1689,A2,215.833,167/1000,42,190.0
1690,G#3,216.0,0.25,45,190.0
1691,G#2,216.0,0.25,43,190.0
1692,E-6,216.5,73/250,47,190.0
1693,G#5,216.5,73/250,47,190.0
1694,B5,216.75,73/250,46,190.0
1695,E-5,216.75,73/250,46,190.0
1696,E5,217.0,73/250,41,190.0
1697,G#4,217.0,73/250,41,190.0
1698,B4,217.25,73/250,40,190.0
1699,E4,217.25,73/250,40,190.0
1700,E3,217.625,0.125,75,190.0
1701,E2,217.625,0.125,63,190.0
1702,F#3,217.75,0.125,79,190.0
1703,F#2,217.75,0.125,66,190.0
1704,G#3,217.875,0.125,81,190.0
1705,G#2,217.875,0.125,70,190.0
1706,A3,218.0,0.25,83,190.0
1707,A1,218.0,0.25,72,190.0
1708,A2,218.0,0.25,72,190.0
1709,F6,218.5,73/250,74,190.0
1710,A5,218.5,73/250,74,190.0
1711,C6,218.75,73/250,72,190.0
1712,F5,218.75,73/250,72,190.0
1713,E5,219.0,73/250,64,190.0
1714,A4,219.0,73/250,64,190.0
1715,C5,219.25,73/250,62,190.0
1716,E4,219.25,73/250,62,190.0
1717,C4,219.5,167/1000,81,190.0
1718,C3,219.5,167/1000,74,190.0
1719,B3,219.667,167/1000,80,190.0
1720,B2,219.667,167/1000,72,190.0
1721,A3,219.833,167/1000,77,190.0
1722,A2,219.833,167/1000,69,190.0
1723,G#3,220.0,0.25,81,190.0
1724,G#2,220.0,0.25,74,190.0
1725,G#1,220.0,0.25,74,190.0
1726,E-6,220.5,73/250,74,190.0
1727,G#5,220.5,73/250,74,190.0
1728,B5,220.75,73/250,72,190.0
1729,E-5,220.75,73/250,72,190.0
1730,E5,221.0,73/250,64,190.0
1731,G#4,221.0,73/250,64,190.0
1732,B4,221.25,73/250,62,190.0
1733,E4,221.25,73/250,62,190.0
1734,E3,221.5,167/1000,66,190.0
1735,E2,221.5,167/1000,64,190.0
1736,F#3,221.667,167/1000,72,190.0
1737,F#2,221.667,167/1000,69,190.0
1738,G#3,221.833,167/1000,77,190.0
1739,G#2,221.833,167/1000,72,190.0
1740,A3,222.0,0.25,83,190.0
1741,A1,222.0,0.25,75,190.0
1742,A2,222.0,0.25,75,190.0
1743,F6,222.5,73/250,74,190.0
1744,A5,222.5,73/250,74,190.0
1745,C6,222.75,73/250,72,190.0
1746,F5,222.75,73/250,72,190.0
1747,E5,223.0,73/250,64,190.0
1748,A4,223.0,73/250,64,190.0
1749,C5,223.25,73/250,62,190.0
1750,E4,223.25,73/250,62,190.0
1751,C4,223.5,167/1000,77,190.0
1752,C3,223.5,167/1000,77,190.0
1753,B3,223.667,167/1000,76,190.0
1754,B2,223.667,167/1000,75,190.0
1755,A3,223.833,167/1000,74,190.0
1756,A2,223.833,167/1000,72,190.0
1757,G#3,224.0,0.25,73,190.0
1758,G#2,224.0,0.25,73,190.0
1759,G#1,224.0,0.25,73,190.0
1760,E-6,224.5,73/250,74,190.0
1761,G#5,224.5,73/250,74,190.0
1762,B5,224.75,73/250,72,190.0
1763,E-5,224.75,73/250,72,190.0
1764,E5,225.0,73/250,64,190.0
1765,G#4,225.0,73/250,64,190.0
1766,B4,225.25,73/250,62,190.0
1767,E4,225.25,73/250,62,190.0
1768,A3,225.625,0.125,42,190.0
1769,A2,225.625,0.125,37,190.0
1770,B3,225.75,0.125,44,190.0
1771,B2,225.75,0.125,40,190.0
1772,C4,225.875,0.125,45,190.0
1773,C3,225.875,0.125,43,190.0
1774,C#4,226.0,0.25,47,190.0
1775,C#2,226.0,0.25,42,190.0
1776,C#3,226.0,0.25,42,190.0
1777,B-6,226.5,73/250,47,190.0
1778,E6,226.5,73/250,47,190.0
1779,G6,226.75,73/250,46,190.0
1780,B-5,226.75,73/250,46,190.0
1781,A5,227.0,73/250,41,190.0
1782,E5,227.0,73/250,41,190.0
1783,G5,227.25,73/250,40,190.0
1784,A4,227.25,73/250,40,190.0
1785,A3,227.5,167/1000,46,190.0
1786,A2,227.5,167/1000,48,190.0
1787,B3,227.667,167/1000,50,190.0
1788,B2,227.667,167/1000,50,190.0
1789,C#4,227.833,167/1000,52,190.0
1790,C#3,227.833,167/1000,52,190.0
1791,D4,228.0,0.25,55,190.0
1792,D2,228.0,0.25,50,190.0
1793,D3,228.0,0.25,50,190.0
1794,E6,228.5,73/250,54,190.0
1795,A5,228.5,73/250,54,190.0
1796,D6,228.75,73/250,54,190.0
1797,E5,228.75,73/250,54,190.0
1798,F5,229.0,73/250,48,190.0
1799,A4,229.0,73/250,48,190.0
1800,D5,229.25,73/250,46,190.0
1801,F4,229.25,73/250,46,190.0
1802,E4,229.5,167/1000,51,190.0
1803,E3,229.5,167/1000,45,190.0
1804,D4,229.667,167/1000,53,190.0
1805,D3,229.667,167/1000,48,190.0
1806,C4,229.833,167/1000,54,190.0
1807,C3,229.833,167/1000,52,190.0
1808,B3,230.0,0.25,57,190.0
1809,B1,230.0,0.25,52,190.0
1810,B2,230.0,0.25,52,190.0
1811,G#6,230.5,73/250,58,190.0
1812,D6,230.5,73/250,58,190.0
1813,F6,230.75,73/250,56,190.0
1814,G#5,230.75,73/250,56,190.0
1815,G5,231.0,73/250,50,190.0
1816,D5,231.0,73/250,50,190.0
1817,F5,231.25,73/250,50,190.0
1818,G4,231.25,73/250,50,190.0
1819,G3,231.5,167/1000,66,190.0
1820,G2,231.5,167/1000,63,190.0
1821,A3,231.667,167/1000,70,190.0
1822,A2,231.667,167/1000,65,190.0
1823,B3,231.833,167/1000,73,190.0
1824,B2,231.833,167/1000,67,190.0
1825,C4,232.0,0.25,76,190.0
1826,C2,232.0,0.25,64,190.0
1827,C3,232.0,0.25,64,190.0
1828,E-6,232.5,73/250,66,190.0
1829,G5,232.5,73/250,66,190.0
1830,C6,232.75,73/250,66,190.0
1831,E-5,232.75,73/250,66,190.0
1832,E5,233.0,73/250,58,190.0
1833,G4,233.0,73/250,58,190.0
1834,C5,233.25,73/250,57,190.0
1835,E4,233.25,73/250,57,190.0
1836,B3,233.5,167/1000,70,190.0
1837,B2,233.5,167/1000,67,190.0
1838,C4,233.667,167/1000,72,190.0
1839,C3,233.667,167/1000,70,190.0
1840,C#4,233.833,167/1000,74,190.0
1841,C#3,233.833,167/1000,73,190.0
1842,D4,234.0,0.25,77,190.0
1843,D2,234.0,0.25,70,190.0
1844,D3,234.0,0.25,70,190.0
1845,B6,234.5,73/250,70,190.0
1846,D6,234.5,73/250,70,190.0
1847,F6,234.75,73/250,70,190.0
1848,B5,234.75,73/250,70,190.0
1849,B-5,235.0,73/250,61,190.0
1850,D5,235.0,73/250,61,190.0
1851,F5,235.25,73/250,60,190.0
1852,B-4,235.25,73/250,60,190.0
1853,B-3,235.5,167/1000,74,190.0
1854,B-2,235.5,167/1000,71,190.0
1855,C4,235.667,167/1000,78,190.0
1856,C3,235.667,167/1000,74,190.0
1857,D4,235.833,167/1000,81,190.0
1858,D3,235.833,167/1000,78,190.0
1859,E4,236.0,0.25,84,190.0
1860,E2,236.0,0.25,75,190.0
1861,E3,236.0,0.25,75,190.0
1862,G#6,236.5,73/250,78,190.0
1863,B5,236.5,73/250,78,190.0
1864,D6,236.75,73/250,76,190.0
1865,G#5,236.75,73/250,76,190.0
1866,A5,237.0,73/250,68,190.0
1867,C5,237.0,73/250,68,190.0
1868,E5,237.25,73/250,66,190.0
1869,A4,237.25,73/250,66,190.0
1870,F4,237.5,167/1000,78,190.0
1871,F3,237.5,167/1000,76,190.0
1872,E4,237.667,167/1000,81,190.0
1873,E3,237.667,167/1000,79,190.0
1874,E-4,237.833,167/1000,84,190.0
1875,E-3,237.833,167/1000,81,190.0
1876,D4,238.0,0.25,87,190.0
1877,D2,238.0,0.25,77,190.0
1878,D3,238.0,0.25,77,190.0
1879,B2,238.5,167/1000,69,190.0
1880,F6,238.5,73/250,84,190.0
1881,A5,238.5,73/250,84,190.0
1882,C3,238.667,167/1000,71,190.0
1883,B5,238.75,73/250,81,190.0
1884,F5,238.75,73/250,81,190.0
1885,D3,238.833,167/1000,73,190.0
1886,G#4,239.0,73/250,79,190.0
1887,E5,239.0,73/250,79,190.0
1888,E3,239.0,0.25,70,190.0
1889,E2,239.0,0.25,70,190.0
1890,E4,239.25,73/250,76,190.0
1891,B4,239.25,73/250,76,190.0
1892,D4,239.5,167/1000,73,190.0
1893,D3,239.5,167/1000,69,190.0
1894,C4,239.667,167/1000,77,190.0
1895,C3,239.667,167/1000,77,190.0
1896,B3,239.833,167/1000,81,190.0
1897,B2,239.833,167/1000,81,190.0
1898,A3,240.0,0.25,87,190.0
1899,A1,240.0,0.25,83,190.0
1900,A2,240.0,0.25,83,190.0
1901,C7,240.5,73/250,88,190.0
1902,E6,240.5,73/250,88,190.0
1903,E4,240.5,0.25,74,190.0
1904,C5,240.5,0.25,74,190.0
1905,C6,240.75,73/250,92,190.0
1906,E6,241.0,73/250,88,190.0
1907,A6,241.0,73/250,88,190.0
1908,C4,241.0,0.25,74,190.0
1909,A4,241.0,0.25,74,190.0
1910,A5,241.25,73/250,92,190.0
1911,E7,242.0,1.5,85,190.0
1912,C7,242.0,1.5,85,190.0
1913,E6,242.0,1.5,85,190.0
1914,A1,242.0,0.188,58,190.0
1915,C2,242.0,0.188,58,190.0
1916,B1,242.25,0.188,52,190.0
1917,D2,242.25,0.188,52,190.0
1918,C2,242.5,0.188,59,190.0
1919,E2,242.5,0.188,59,190.0
1920,D2,242.75,0.188,54,190.0
1921,F2,242.75,0.188,54,190.0
1922,E2,243.0,0.188,60,190.0
1923,G#2,243.0,0.188,60,190.0
1924,F2,243.25,0.188,56,190.0
1925,A2,243.25,0.188,56,190.0
1926,D7,243.5,0.188,63,190.0
1927,B6,243.5,0.188,63,190.0
1928,D6,243.5,0.188,63,190.0
1929,G#2,243.5,0.188,55,190.0
1930,B2,243.5,0.188,55,190.0
1931,C6,243.75,0.188,63,190.0
1932,A6,243.75,0.188,63,190.0
1933,C7,243.75,0.188,63,190.0
1934,A2,243.75,0.188,51,190.0
1935,C3,243.75,0.188,51,190.0
1936,B6,244.0,0.188,74,190.0
1937,G#6,244.0,0.188,74,190.0
1938,B5,244.0,0.188,74,190.0
1939,B2,244.0,0.188,58,190.0
1940,D3,244.0,0.188,58,190.0
1941,A5,244.25,0.188,63,190.0
1942,F6,244.25,0.188,63,190.0
1943,A6,244.25,0.188,63,190.0
1944,C3,244.25,0.188,52,190.0
1945,E3,244.25,0.188,52,190.0
1946,G#5,244.5,0.188,66,190.0
1947,E6,244.5,0.188,66,190.0
1948,G#6,244.5,0.188,66,190.0
1949,D3,244.5,0.188,58,190.0
1950,F3,244.5,0.188,58,190.0
1951,F5,244.75,0.188,63,190.0
1952,D6,244.75,0.188,63,190.0
1953,F6,244.75,0.188,63,190.0
1954,E3,244.75,0.188,52,190.0
1955,G#3,244.75,0.188,52,190.0
1956,E6,245.0,0.188,66,190.0
1957,C6,245.0,0.188,66,190.0
1958,E5,245.0,0.188,66,190.0
1959,F3,245.0,0.188,58,190.0
1960,A3,245.0,0.188,58,190.0
1961,D6,245.25,0.188,64,190.0
1962,B5,245.25,0.188,64,190.0
1963,D5,245.25,0.188,64,190.0
1964,G#3,245.25,0.188,58,190.0
1965,B3,245.25,0.188,58,190.0
1966,C6,245.5,0.188,65,190.0
1967,A5,245.5,0.188,65,190.0
1968,C5,245.5,0.188,65,190.0
1969,A3,245.5,0.188,58,190.0
1970,C4,245.5,0.188,58,190.0
1971,B4,245.75,0.188,65,190.0
1972,B5,245.75,0.188,65,190.0
1973,G#5,245.75,0.188,65,190.0
1974,B3,245.75,0.188,52,190.0
1975,D4,245.75,0.188,52,190.0
1976,C6,246.0,1.5,68,190.0
1977,A5,246.0,1.5,68,190.0
1978,C5,246.0,1.5,68,190.0
1979,C4,246.0,0.188,58,190.0
1980,A3,246.0,0.188,58,190.0
1981,B3,246.25,0.188,54,190.0
1982,D4,246.25,0.188,54,190.0
1983,C4,246.5,0.188,59,190.0
1984,E4,246.5,0.188,59,190.0
1985,D4,246.75,0.188,63,190.0
1986,F4,246.75,0.188,63,190.0
1987,D4,247.0,0.188,66,190.0
1988,F4,247.0,0.188,66,190.0
1989,C4,247.25,0.188,64,190.0
1990,E4,247.25,0.188,64,190.0
1991,D6,247.5,0.25,63,190.0
1992,B5,247.5,0.25,63,190.0
1993,D5,247.5,0.25,63,190.0
1994,B3,247.5,0.25,60,190.0
1995,D4,247.5,0.25,60,190.0
1996,E6,247.75,0.25,63,190.0
1997,C6,247.75,0.25,63,190.0
1998,E5,247.75,0.25,63,190.0
1999,A3,247.75,0.25,58,190.0
2000,C4,247.75,0.25,58,190.0
2001,D5,248.0,0.25,72,190.0
2002,B5,248.0,0.25,72,190.0
2003,D6,248.0,0.25,72,190.0
2004,B3,248.0,0.25,52,190.0
2005,D4,248.0,0.25,52,190.0
2006,C6,248.25,0.25,67,190.0
2007,A5,248.25,0.25,67,190.0
2008,C5,248.25,0.25,67,190.0
2009,C4,248.25,0.25,51,190.0
2010,A3,248.25,0.25,51,190.0
2011,B5,248.5,0.25,64,190.0
2012,G#5,248.5,0.25,64,190.0
2013,B4,248.5,0.25,64,190.0
2014,B3,248.5,0.25,50,190.0
2015,G#3,248.5,0.25,50,190.0
2016,A4,248.75,0.25,63,190.0
2017,F5,248.75,0.25,63,190.0
2018,A5,248.75,0.25,63,190.0
2019,F3,248.75,0.25,48,190.0
2020,A3,248.75,0.25,48,190.0
2021,G#4,249.0,1.0,61,190.0
2022,E5,249.0,1.0,61,190.0
2023,G#5,249.0,1.0,61,190.0
2024,E3,249.0,1.0,44,190.0
2025,G#3,249.0,1.0,44,190.0
2026,E7,250.0,1.5,85,190.0
2027,C7,250.0,1.5,85,190.0
2028,E6,250.0,1.5,85,190.0
2029,A1,250.0,0.188,58,190.0
2030,A2,250.0,0.188,58,190.0
2031,B1,250.25,0.188,52,190.0
2032,B2,250.25,0.188,52,190.0
2033,C2,250.5,0.188,59,190.0
2034,C3,250.5,0.188,59,190.0
2035,D2,250.75,0.188,54,190.0
2036,D3,250.75,0.188,54,190.0
2037,E2,251.0,0.188,60,190.0
2038,E3,251.0,0.188,60,190.0
2039,F2,251.25,0.188,56,190.0
2040,F3,251.25,0.188,56,190.0
2041,D7,251.5,0.188,63,190.0
2042,B6,251.5,0.188,63,190.0
2043,D6,251.5,0.188,63,190.0
2044,G#2,251.5,0.188,55,190.0
2045,G#3,251.5,0.188,55,190.0
2046,C6,251.75,0.188,63,190.0
2047,A6,251.75,0.188,63,190.0
2048,C7,251.75,0.188,63,190.0
2049,A2,251.75,0.188,51,190.0
2050,A3,251.75,0.188,51,190.0
2051,B6,252.0,0.188,74,190.0
2052,G#6,252.0,0.188,74,190.0
2053,B5,252.0,0.188,74,190.0
2054,B2,252.0,0.188,58,190.0
2055,B3,252.0,0.188,58,190.0
2056,A5,252.25,0.188,63,190.0
2057,F6,252.25,0.188,63,190.0
2058,A6,252.25,0.188,63,190.0
2059,C3,252.25,0.188,52,190.0
2060,C4,252.25,0.188,52,190.0
2061,G#5,252.5,0.188,66,190.0
2062,E6,252.5,0.188,66,190.0
2063,G#6,252.5,0.188,66,190.0
2064,D3,252.5,0.188,58,190.0
2065,D4,252.5,0.188,58,190.0
2066,F5,252.75,0.188,63,190.0
2067,D6,252.75,0.188,63,190.0
2068,F6,252.75,0.188,63,190.0
2069,E3,252.75,0.188,52,190.0
2070,E4,252.75,0.188,52,190.0
2071,E6,253.0,0.188,66,190.0
2072,C6,253.0,0.188,66,190.0
2073,E5,253.0,0.188,66,190.0
2074,F3,253.0,0.188,58,190.0
2075,F4,253.0,0.188,58,190.0
2076,D6,253.25,0.188,65,190.0
2077,B5,253.25,0.188,65,190.0
2078,D5,253.25,0.188,65,190.0
2079,G#3,253.25,0.188,58,190.0
2080,G#4,253.25,0.188,58,190.0
2081,C6,253.5,0.188,67,190.0
2082,A5,253.5,0.188,67,190.0
2083,C5,253.5,0.188,67,190.0
2084,A3,253.5,0.188,58,190.0
2085,A4,253.5,0.188,58,190.0
2086,B5,253.75,0.188,68,190.0
2087,G#5,253.75,0.188,68,190.0
2088,B3,253.75,0.188,52,190.0
2089,B4,253.75,0.188,52,190.0
2090,C6,254.0,1.5,65,190.0
2091,A5,254.0,1.5,65,190.0
2092,C5,254.0,1.5,65,190.0
2093,A4,254.0,0.188,58,190.0
2094,A3,254.0,0.188,58,190.0
2095,G#3,254.25,0.188,54,190.0
2096,G#4,254.25,0.188,54,190.0
2097,F3,254.5,0.188,56,190.0
2098,F4,254.5,0.188,56,190.0
2099,E3,254.75,0.188,58,190.0
2100,E4,254.75,0.188,58,190.0
2101,F3,255.0,0.188,60,190.0
2102,F4,255.0,0.188,60,190.0
2103,E3,255.25,0.188,59,190.0
2104,E4,255.25,0.188,59,190.0
2105,D6,255.5,0.25,63,190.0
2106,B5,255.5,0.25,63,190.0
2107,D5,255.5,0.25,63,190.0
2108,D3,255.5,0.25,58,190.0
2109,D4,255.5,0.25,58,190.0
2110,E6,255.75,0.25,63,190.0
2111,C6,255.75,0.25,63,190.0
2112,E5,255.75,0.25,63,190.0
2113,C4,255.75,0.25,56,190.0
2114,C3,255.75,0.25,56,190.0
2115,D5,256.0,0.25,70,190.0
2116,D6,256.0,0.25,70,190.0
2117,B3,256.0,0.25,52,190.0
2118,B2,256.0,0.25,52,190.0
2119,C6,256.25,0.25,68,190.0
2120,C5,256.25,0.25,68,190.0
2121,A2,256.25,0.25,51,190.0
2122,A3,256.25,0.25,51,190.0
2123,B5,256.5,0.25,66,190.0
2124,B4,256.5,0.25,66,190.0
2125,G#2,256.5,0.25,50,190.0
2126,G#3,256.5,0.25,50,190.0
2127,A4,256.75,0.25,65,190.0
2128,A5,256.75,0.25,65,190.0
2129,F4,256.75,0.25,48,190.0
2130,F3,256.75,0.25,48,190.0
2131,G#4,257.0,1.0,62,190.0
2132,G#5,257.0,1.0,62,190.0
2133,E4,257.0,1.0,44,190.0
2134,E3,257.0,1.0,44,190.0
2135,E5,258.0,1.0,80,190.0
2136,C#6,258.0,1.25,87,190.0
2137,C#5,258.0,1.25,87,190.0
2138,B-4,258.0,0.188,68,190.0
2139,B-3,258.0,0.188,68,190.0
2140,A4,258.25,0.188,62,190.0
2141,A3,258.25,0.188,62,190.0
2142,G3,258.5,0.188,60,190.0
2143,G4,258.5,0.188,60,190.0
2144,E3,258.75,0.188,60,190.0
2145,E4,258.75,0.188,60,190.0
2146,A5,259.0,0.25,90,190.0
2147,C#3,259.0,0.188,60,190.0
2148,C#4,259.0,0.188,60,190.0
2149,B-2,259.25,0.188,59,190.0
2150,B-3,259.25,0.188,59,190.0
2151,A2,259.5,0.5,54,190.0
2152,A3,259.5,0.188,63,190.0
2153,D6,259.5,0.188,63,190.0
2154,B5,259.5,0.188,63,190.0
2155,D5,259.5,0.188,63,190.0
2156,G3,259.75,0.188,63,190.0
2157,E5,259.75,0.188,70,190.0
2158,C#6,259.75,0.188,70,190.0
2159,E6,259.75,0.188,70,190.0
2160,F6,260.0,0.188,72,190.0
2161,D6,260.0,0.188,72,190.0
2162,F5,260.0,0.188,72,190.0
2163,D3,260.0,0.188,58,190.0
2164,F3,260.0,0.188,58,190.0
2165,G5,260.25,0.188,75,190.0
2166,E6,260.25,0.188,75,190.0
2167,G6,260.25,0.188,75,190.0
2168,C#3,260.25,0.188,59,190.0
2169,E3,260.25,0.188,59,190.0
2170,A5,260.5,0.188,77,190.0
2171,F6,260.5,0.188,77,190.0
2172,A6,260.5,0.188,77,190.0
2173,B2,260.5,0.188,60,190.0
2174,D3,260.5,0.188,60,190.0
2175,B5,260.75,0.188,79,190.0
2176,G6,260.75,0.188,79,190.0
2177,B6,260.75,0.188,79,190.0
2178,A2,260.75,0.188,62,190.0
2179,C#3,260.75,0.188,62,190.0
2180,C#7,261.0,0.188,81,190.0
2181,A6,261.0,0.188,81,190.0
2182,C#6,261.0,0.188,81,190.0
2183,G2,261.0,0.188,64,190.0
2184,B2,261.0,0.188,64,190.0
2185,D7,261.25,0.188,83,190.0
2186,B6,261.25,0.188,83,190.0
2187,D6,261.25,0.188,83,190.0
2188,F2,261.25,0.188,65,190.0
2189,A2,261.25,0.188,65,190.0
2190,E7,261.5,0.188,86,190.0
2191,C#7,261.5,0.188,86,190.0
2192,E6,261.5,0.188,86,190.0
2193,E2,261.5,0.188,69,190.0
2194,G2,261.5,0.188,69,190.0
2195,D7,261.75,0.188,88,190.0
2196,F7,261.75,0.188,88,190.0
2197,F6,261.75,0.188,88,190.0
2198,D2,261.75,0.188,71,190.0
2199,F2,261.75,0.188,71,190.0
2200,D5,262.0,1.0,80,190.0
2201,B5,262.0,1.25,87,190.0
2202,B4,262.0,1.25,87,190.0
2203,G#3,262.0,0.188,68,190.0
2204,G#4,262.0,0.188,68,190.0
2205,G3,262.25,0.188,62,190.0
2206,G4,262.25,0.188,62,190.0
2207,F3,262.5,0.188,60,190.0
2208,F4,262.5,0.188,60,190.0
2209,D3,262.75,0.188,60,190.0
2210,D4,262.75,0.188,60,190.0
2211,G5,263.0,0.25,90,190.0
2212,B2,263.0,0.188,60,190.0
2213,B3,263.0,0.188,60,190.0
2214,G#2,263.25,0.188,59,190.0
2215,G#3,263.25,0.188,59,190.0
2216,G2,263.5,0.5,54,190.0
2217,G3,263.5,0.188,63,190.0
2218,C6,263.5,0.188,63,190.0
2219,A5,263.5,0.188,63,190.0
2220,C5,263.5,0.188,63,190.0
2221,F3,263.75,0.188,63,190.0
2222,D5,263.75,0.188,70,190.0
2223,B5,263.75,0.188,70,190.0
2224,D6,263.75,0.188,70,190.0
2225,E6,264.0,0.188,72,190.0
2226,C6,264.0,0.188,72,190.0
2227,E5,264.0,0.188,72,190.0
2228,C3,264.0,0.188,58,190.0
2229,E3,264.0,0.188,58,190.0
2230,F5,264.25,0.188,75,190.0
2231,D6,264.25,0.188,75,190.0
2232,F6,264.25,0.188,75,190.0
2233,B2,264.25,0.188,59,190.0
2234,D3,264.25,0.188,59,190.0
2235,G5,264.5,0.188,77,190.0
2236,E6,264.5,0.188,77,190.0
2237,G6,264.5,0.188,77,190.0
2238,A2,264.5,0.188,60,190.0
2239,C3,264.5,0.188,60,190.0
2240,A5,264.75,0.188,79,190.0
2241,F6,264.75,0.188,79,190.0
2242,A6,264.75,0.188,79,190.0
2243,G2,264.75,0.188,62,190.0
2244,B2,264.75,0.188,62,190.0
2245,B6,265.0,0.188,81,190.0
2246,G6,265.0,0.188,81,190.0
2247,B5,265.0,0.188,81,190.0
2248,A2,265.0,0.188,64,190.0
2249,F2,265.0,0.188,64,190.0
2250,C7,265.25,0.188,83,190.0
2251,A6,265.25,0.188,83,190.0
2252,C6,265.25,0.188,83,190.0
2253,G2,265.25,0.188,65,190.0
2254,E2,265.25,0.188,65,190.0
2255,D7,265.5,0.188,86,190.0
2256,B6,265.5,0.188,86,190.0
2257,D6,265.5,0.188,86,190.0
2258,F2,265.5,0.188,69,190.0
2259,D2,265.5,0.188,69,190.0
2260,C7,265.75,0.188,88,190.0
2261,E7,265.75,0.188,88,190.0
2262,E6,265.75,0.188,88,190.0
2263,E2,265.75,0.188,71,190.0
2264,C2,265.75,0.188,71,190.0
2265,F6,266.0,0.188,82,190.0
2266,B6,266.0,0.188,82,190.0
2267,G#6,266.0,0.188,82,190.0
2268,F7,266.0,0.188,82,190.0
2269,G#2,266.0,0.188,66,190.0
2270,B2,266.0,0.188,66,190.0
2271,D3,266.0,0.188,66,190.0
2272,D2,266.0,0.188,66,190.0
2273,D6,266.25,0.188,82,190.0
2274,D7,266.25,0.188,82,190.0
2275,F3,266.25,0.188,60,190.0
2276,F2,266.25,0.188,60,190.0
2277,B5,266.5,0.188,79,190.0
2278,B6,266.5,0.188,79,190.0
2279,G#2,266.5,0.188,60,190.0
2280,G#3,266.5,0.188,60,190.0
2281,G#5,266.75,0.188,79,190.0
2282,G#6,266.75,0.188,79,190.0
2283,B2,266.75,0.188,60,190.0
2284,B3,266.75,0.188,60,190.0
2285,F5,267.0,0.188,74,190.0
2286,G#5,267.0,0.188,74,190.0
2287,B5,267.0,0.188,74,190.0
2288,F6,267.0,0.188,74,190.0
2289,B3,267.0,0.188,63,190.0
2290,D4,267.0,0.188,63,190.0
2291,D3,267.0,0.188,63,190.0
2292,G#3,267.0,0.188,63,190.0
2293,E-5,267.25,0.188,71,190.0
2294,E-6,267.25,0.188,71,190.0
2295,E-4,267.25,0.188,57,190.0
2296,E-3,267.25,0.188,57,190.0
2297,E5,267.5,0.188,76,190.0
2298,E6,267.5,0.188,76,190.0
2299,E3,267.5,0.188,60,190.0
2300,E4,267.5,0.188,60,190.0
2301,D5,267.75,0.188,82,190.0
2302,D6,267.75,0.188,82,190.0
2303,F4,267.75,0.188,64,190.0
2304,F3,267.75,0.188,64,190.0
2305,C6,268.0,0.188,82,190.0
2306,F#6,268.0,0.188,82,190.0
2307,E-6,268.0,0.188,82,190.0
2308,C7,268.0,0.188,82,190.0
2309,A1,268.0,0.188,66,190.0
2310,A2,268.0,0.188,66,190.0
2311,F#2,268.0,0.188,66,190.0
2312,E-2,268.0,0.188,66,190.0
2313,A5,268.25,0.188,82,190.0
2314,A6,268.25,0.188,82,190.0
2315,C2,268.25,0.188,60,190.0
2316,C3,268.25,0.188,60,190.0
2317,F#5,268.5,0.188,79,190.0
2318,F#6,268.5,0.188,79,190.0
2319,E-2,268.5,0.188,60,190.0
2320,E-3,268.5,0.188,60,190.0
2321,E-5,268.75,0.188,79,190.0
2322,E-6,268.75,0.188,79,190.0
2323,F#2,268.75,0.188,60,190.0
2324,F#3,268.75,0.188,60,190.0
2325,C5,269.0,0.188,74,190.0
2326,E-5,269.0,0.188,74,190.0
2327,F#5,269.0,0.188,74,190.0
2328,C6,269.0,0.188,74,190.0
2329,F#3,269.0,0.188,63,190.0
2330,A3,269.0,0.188,63,190.0
2331,A2,269.0,0.188,63,190.0
2332,E-3,269.0,0.188,63,190.0
2333,B-4,269.25,0.188,71,190.0
2334,B-5,269.25,0.188,71,190.0
2335,B-3,269.25,0.188,57,190.0
2336,B-2,269.25,0.188,57,190.0
2337,B4,269.5,0.188,76,190.0
2338,B5,269.5,0.188,76,190.0
2339,B2,269.5,0.188,60,190.0
2340,B3,269.5,0.188,60,190.0
2341,A4,269.75,0.188,82,190.0
2342,A5,269.75,0.188,82,190.0
2343,C4,269.75,0.188,64,190.0
2344,C3,269.75,0.188,64,190.0
2345,F4,270.0,0.188,69,190.0
2346,B4,270.0,0.188,69,190.0
2347,A4,270.0,0.188,69,190.0
2348,F5,270.0,0.188,69,190.0
2349,D3,270.0,0.188,59,190.0
2350,A3,270.0,0.188,59,190.0
2351,B3,270.0,0.188,59,190.0
2352,E-3,270.25,0.188,60,190.0
2353,E-4,270.25,0.188,69,190.0
2354,E-5,270.25,0.188,69,190.0
2355,E3,270.5,0.188,60,190.0
2356,E4,270.5,0.188,66,190.0
2357,E5,270.5,0.188,66,190.0
2358,F3,270.75,0.188,60,190.0
2359,D4,270.75,0.188,66,190.0
2360,D5,270.75,0.188,66,190.0
2361,C#4,271.0,0.188,66,190.0
2362,C#5,271.0,0.188,66,190.0
2363,E3,271.0,0.5,64,190.0
2364,G#3,271.0,0.5,64,190.0
2365,E4,271.0,0.5,64,190.0
2366,B3,271.25,0.188,60,190.0
2367,B4,271.25,0.188,60,190.0
2368,C4,271.5,0.188,64,190.0
2369,C5,271.5,0.188,64,190.0
2370,D4,271.5,0.5,58,190.0
2371,G#3,271.5,0.5,58,190.0
2372,E3,271.5,0.5,58,190.0
2373,B3,271.75,0.188,68,190.0
2374,B4,271.75,0.188,68,190.0
2375,A2,272.0,1.5,54,190.0
2376,D4,272.0,1.0,63,190.0
2377,F4,272.0,1.0,63,190.0
2378,A3,272.0,1.5,69,190.0
2379,A4,272.0,1.5,69,190.0
2380,D3,272.0,1.0,60,190.0
2381,F3,272.0,1.0,60,190.0
2382,C4,273.0,0.5,48,190.0
2383,E4,273.0,0.5,48,190.0
2384,C3,273.0,0.5,40,190.0
2385,E3,273.0,0.5,40,190.0
2386,E6,274.0,167/1000,52,190.0
2387,E4,274.0,167/1000,44,190.0
2388,F6,274.167,167/1000,45,190.0
2389,F4,274.167,167/1000,37,190.0
2390,E6,274.333,167/1000,45,190.0
2391,E4,274.333,167/1000,37,190.0
2392,C6,274.5,1.0,49,190.0
2393,C4,274.5,1.0,41,190.0
2394,C5,275.0,0.25,33,190.0
2395,E5,275.0,0.25,33,190.0
2396,A2,275.0,0.25,27,190.0
2397,E3,275.0,0.25,27,190.0
2398,A5,275.5,0.188,48,190.0
2399,A3,275.5,0.188,40,190.0
2400,B5,275.667,0.188,45,190.0
2401,B3,275.667,0.188,37,190.0
2402,A5,275.833,167/1000,45,190.0
2403,A3,275.833,167/1000,37,190.0
2404,B5,276.0,0.188,47,190.0
2405,A5,276.0,21/1000,45,190.0
2406,B3,276.0,0.188,40,190.0
2407,A3,276.0,21/1000,37,190.0
2408,C6,276.167,0.188,45,190.0
2409,C4,276.167,0.188,37,190.0
2410,B5,276.333,0.188,45,190.0
2411,B3,276.333,0.188,37,190.0
2412,G#5,276.5,0.188,47,190.0
2413,G#3,276.5,0.188,40,190.0
2414,A5,276.667,0.188,44,190.0
2415,A3,276.667,0.188,36,190.0
2416,G#5,276.833,0.188,44,190.0
2417,G#3,276.833,0.188,36,190.0
2418,E5,277.0,0.188,46,190.0
2419,E3,277.0,0.188,39,190.0
2420,F5,277.167,0.188,41,190.0
2421,F3,277.167,0.188,35,190.0
2422,E5,277.333,0.188,42,190.0
2423,E3,277.333,0.188,35,190.0
2424,D4,277.5,0.25,30,190.0
2425,E4,277.5,0.25,30,190.0
2426,B4,277.5,0.25,30,190.0
2427,A2,277.5,0.25,25,190.0
2428,G#3,277.5,0.25,25,190.0
2429,E6,278.0,167/1000,52,190.0
2430,E4,278.0,167/1000,44,190.0
2431,F6,278.167,167/1000,45,190.0
2432,F4,278.167,167/1000,37,190.0
2433,E6,278.333,167/1000,45,190.0
2434,E4,278.333,167/1000,37,190.0
2435,C6,278.5,1.0,49,190.0
2436,C4,278.5,1.0,41,190.0
2437,C5,279.0,0.25,37,190.0
2438,E5,279.0,0.25,37,190.0
2439,A2,279.0,0.25,31,190.0
2440,E3,279.0,0.25,31,190.0
2441,E4,279.5,0.5,45,190.0
2442,C4,279.5,167/1000,54,190.0
2443,A3,279.5,167/1000,45,190.0
2444,D4,279.667,167/1000,53,190.0
2445,B3,279.667,167/1000,44,190.0
2446,C4,279.833,167/1000,56,190.0
2447,A3,279.833,167/1000,46,190.0
2448,E4,280.0,0.5,51,190.0
2449,B3,280.0,167/1000,63,190.0
2450,G#3,280.0,167/1000,53,190.0
2451,C4,280.167,167/1000,63,190.0
2452,A3,280.167,167/1000,53,190.0
2453,B3,280.333,167/1000,67,190.0
2454,G3,280.333,167/1000,56,190.0
2455,E-4,280.5,0.5,56,190.0
2456,A4,280.5,167/1000,72,190.0
2457,F#3,280.5,167/1000,61,190.0
2458,B4,280.667,167/1000,67,190.0
2459,G3,280.667,167/1000,56,190.0
2460,A4,280.833,167/1000,68,190.0
2461,F3,280.833,167/1000,57,190.0
2462,E4,281.0,0.5,56,190.0
2463,G#4,281.0,167/1000,74,190.0
2464,E3,281.0,167/1000,63,190.0
2465,A4,281.167,167/1000,66,190.0
2466,F3,281.167,167/1000,56,190.0
2467,G#4,281.333,167/1000,69,190.0
2468,E3,281.333,167/1000,56,190.0
2469,E2,281.5,0.25,72,190.0
2470,E6,282.0,167/1000,52,190.0
2471,E4,282.0,167/1000,44,190.0
2472,F6,282.167,167/1000,45,190.0
2473,F4,282.167,167/1000,37,190.0
2474,E6,282.333,167/1000,45,190.0
2475,E4,282.333,167/1000,37,190.0
2476,C6,282.5,1.0,49,190.0
2477,C4,282.5,1.0,41,190.0
2478,C5,283.0,0.25,33,190.0
2479,E5,283.0,0.25,33,190.0
2480,A2,283.0,0.25,27,190.0
2481,E3,283.0,0.25,27,190.0
2482,A5,283.5,0.188,48,190.0
2483,A3,283.5,0.188,40,190.0
2484,B5,283.667,0.188,45,190.0
2485,B3,283.667,0.188,37,190.0
2486,A5,283.833,167/1000,45,190.0
2487,A3,283.833,167/1000,37,190.0
2488,B5,284.0,0.188,47,190.0
2489,A5,284.0,21/1000,45,190.0
2490,B3,284.0,0.188,40,190.0
2491,A3,284.0,21/1000,37,190.0
2492,C6,284.167,0.188,45,190.0
2493,C4,284.167,0.188,37,190.0
2494,B5,284.333,0.188,45,190.0
2495,B3,284.333,0.188,37,190.0
2496,G#5,284.5,0.188,47,190.0
2497,G#3,284.5,0.188,40,190.0
2498,A5,284.667,0.188,44,190.0
2499,A3,284.667,0.188,36,190.0
2500,G#5,284.833,0.188,44,190.0
2501,G#3,284.833,0.188,36,190.0
2502,E5,285.0,0.188,46,190.0
2503,E3,285.0,0.188,39,190.0
2504,F5,285.167,0.188,41,190.0
2505,F3,285.167,0.188,35,190.0
2506,E5,285.333,0.188,42,190.0
2507,E3,285.333,0.188,35,190.0
2508,D4,285.5,0.25,30,190.0
2509,E4,285.5,0.25,30,190.0
2510,B4,285.5,0.25,30,190.0
2511,A2,285.5,0.25,25,190.0
2512,G#3,285.5,0.25,25,190.0
2513,E6,286.0,167/1000,52,190.0
2514,E4,286.0,167/1000,44,190.0
2515,F6,286.167,167/1000,45,190.0
2516,F4,286.167,167/1000,37,190.0
2517,E6,286.333,167/1000,45,190.0
2518,E4,286.333,167/1000,37,190.0
2519,C6,286.5,1.0,49,190.0
2520,C4,286.5,1.0,41,190.0
2521,C5,287.0,0.25,37,190.0
2522,E5,287.0,0.25,37,190.0
2523,A2,287.0,0.25,31,190.0
2524,E3,287.0,0.25,31,190.0
2525,E4,287.5,0.5,45,190.0
2526,C4,287.5,167/1000,54,190.0
2527,A3,287.5,167/1000,45,190.0
2528,D4,287.667,167/1000,53,190.0
2529,B3,287.667,167/1000,44,190.0
2530,C4,287.833,167/1000,56,190.0
2531,A3,287.833,167/1000,46,190.0
2532,E4,288.0,0.5,51,190.0
2533,B3,288.0,167/1000,63,190.0
2534,G#3,288.0,167/1000,53,190.0
2535,C4,288.167,167/1000,63,190.0
2536,A3,288.167,167/1000,53,190.0
2537,B3,288.333,167/1000,67,190.0
2538,G3,288.333,167/1000,56,190.0
2539,E-4,288.5,0.5,56,190.0
2540,A4,288.5,167/1000,72,190.0
2541,F#3,288.5,167/1000,61,190.0
2542,B4,288.667,167/1000,67,190.0
2543,G3,288.667,167/1000,56,190.0
2544,A4,288.833,167/1000,68,190.0
2545,F3,288.833,167/1000,57,190.0
2546,E4,289.0,0.5,56,190.0
2547,G#4,289.0,167/1000,74,190.0
2548,E3,289.0,167/1000,63,190.0
2549,A4,289.167,167/1000,66,190.0
2550,F3,289.167,167/1000,56,190.0
2551,G#4,289.333,167/1000,69,190.0
2552,E3,289.333,167/1000,56,190.0
2553,E2,289.5,0.25,72,190.0
2554,E6,290.0,167/1000,52,190.0
2555,E4,290.0,167/1000,44,190.0
2556,F6,290.167,167/1000,45,190.0
2557,F4,290.167,167/1000,37,190.0
2558,E6,290.333,167/1000,45,190.0
2559,E4,290.333,167/1000,37,190.0
2560,C#6,290.5,1.0,49,190.0
2561,C#4,290.5,1.0,41,190.0
2562,C#5,291.0,0.25,33,190.0
2563,E5,291.0,0.25,33,190.0
2564,G3,291.0,0.25,27,190.0
2565,A2,291.0,0.25,27,190.0
2566,B-3,291.0,0.25,27,190.0
2567,A5,291.5,0.188,48,190.0
2568,A3,291.5,0.188,40,190.0
2569,B-5,291.667,0.188,45,190.0
2570,B-3,291.667,0.188,37,190.0
2571,A5,291.833,167/1000,45,190.0
2572,A3,291.833,167/1000,37,190.0
2573,D6,292.0,0.188,47,190.0
2574,A5,292.0,21/1000,45,190.0
2575,D4,292.0,0.188,40,190.0
2576,A3,292.0,21/1000,37,190.0
2577,E6,292.167,0.188,45,190.0
2578,E4,292.167,0.188,37,190.0
2579,D6,292.333,0.188,45,190.0
2580,D4,292.333,0.188,37,190.0
2581,C#4,292.5,0.5,62,190.0
2582,A4,292.5,0.5,62,190.0
2583,E4,292.667,0.188,58,190.0
2584,B-4,292.667,0.188,58,190.0
2585,A4,292.833,0.188,62,190.0
2586,A3,293.0,0.375,60,190.0
2587,F4,293.0,0.375,60,190.0
2588,D4,293.167,0.188,56,190.0
2589,G4,293.167,0.188,56,190.0
2590,F4,293.333,0.188,61,190.0
2591,F3,293.375,0.375,69,190.0
2592,A3,293.438,0.312,72,190.0
2593,D4,293.5,0.25,73,190.0
2594,D6,294.0,167/1000,52,190.0
2595,D4,294.0,167/1000,44,190.0
2596,E6,294.167,167/1000,45,190.0
2597,E4,294.167,167/1000,37,190.0
2598,D6,294.333,167/1000,45,190.0
2599,D4,294.333,167/1000,37,190.0
2600,B5,294.5,1.0,49,190.0
2601,B3,294.5,1.0,41,190.0
2602,B4,295.0,0.25,33,190.0
2603,D5,295.0,0.25,33,190.0
2604,F3,295.0,0.25,27,190.0
2605,G2,295.0,0.25,27,190.0
2606,G#3,295.0,0.25,27,190.0
2607,G5,295.5,0.188,48,190.0
2608,G3,295.5,0.188,40,190.0
2609,A5,295.667,0.188,45,190.0
2610,A3,295.667,0.188,37,190.0
2611,G5,295.833,167/1000,45,190.0
2612,G3,295.833,167/1000,37,190.0
2613,C6,296.0,0.188,47,190.0
2614,G5,296.0,21/1000,45,190.0
2615,C4,296.0,0.188,40,190.0
2616,G3,296.0,21/1000,37,190.0
2617,D6,296.167,0.188,45,190.0
2618,D4,296.167,0.188,37,190.0
2619,C6,296.333,0.188,45,190.0
2620,C4,296.333,0.188,37,190.0
2621,B3,296.5,0.5,62,190.0
2622,G4,296.5,0.5,62,190.0
2623,D4,296.667,0.188,58,190.0
2624,A4,296.667,0.188,58,190.0
2625,G4,296.833,0.188,62,190.0
2626,G3,297.0,0.375,60,190.0
2627,E4,297.0,0.375,60,190.0
2628,C4,297.167,0.188,56,190.0
2629,F4,297.167,0.188,56,190.0
2630,E4,297.333,0.188,61,190.0
2631,E3,297.375,0.375,69,190.0
2632,G3,297.438,0.312,72,190.0
2633,C4,297.5,0.25,73,190.0
2634,D6,298.0,167/1000,52,190.0
2635,D4,298.0,167/1000,44,190.0
2636,E6,298.167,167/1000,45,190.0
2637,E4,298.167,167/1000,37,190.0
2638,D6,298.333,167/1000,45,190.0
2639,D4,298.333,167/1000,37,190.0
2640,F6,298.5,1.0,49,190.0
2641,F4,298.5,1.0,41,190.0
2642,F5,299.0,0.25,33,190.0
2643,G#5,299.0,0.25,33,190.0
2644,D3,299.0,0.25,27,190.0
2645,B3,299.0,0.25,27,190.0
2646,B4,299.5,83/1000,44,190.0
2647,D4,299.5,83/1000,38,190.0
2648,F4,299.5,83/1000,38,190.0
2649,G#4,299.5,83/1000,38,190.0
2650,E4,299.583,83/1000,33,190.0
2651,C5,299.583,83/1000,33,190.0
2652,D4,299.667,21/500,33,190.0
2653,B4,299.667,21/500,33,190.0
2654,C6,300.0,167/1000,52,190.0
2655,C4,300.0,167/1000,44,190.0
2656,D6,300.167,167/1000,45,190.0
2657,D4,300.167,167/1000,37,190.0
2658,C6,300.333,167/1000,45,190.0
2659,C4,300.333,167/1000,37,190.0
2660,E6,300.5,1.0,49,190.0
2661,E4,300.5,1.0,41,190.0
2662,E5,301.0,0.25,33,190.0
2663,A5,301.0,0.25,33,190.0
2664,C3,301.0,0.25,27,190.0
2665,A3,301.0,0.25,27,190.0
2666,A4,301.5,83/1000,44,190.0
2667,C4,301.5,83/1000,40,190.0
2668,E4,301.5,83/1000,40,190.0
2669,D4,301.583,83/1000,33,190.0
2670,B-4,301.583,83/1000,33,190.0
2671,C4,301.667,21/500,33,190.0
2672,A4,301.667,21/500,33,190.0
2673,D3,302.0,0.5,27,190.0
2674,F4,302.0,83/1000,45,190.0
2675,B4,302.0,83/1000,45,190.0
2676,A4,302.083,83/1000,31,190.0
2677,C5,302.083,83/1000,31,190.0
2678,F4,302.167,21/500,27,190.0
2679,B4,302.167,21/500,27,190.0
2680,A4,302.5,83/1000,47,190.0
2681,F5,302.5,83/1000,47,190.0
2682,F4,302.5,0.5,28,190.0
2683,D4,302.5,0.5,28,190.0
2684,B4,302.583,83/1000,32,190.0
2685,G5,302.583,83/1000,32,190.0
2686,A4,302.667,21/500,28,190.0
2687,F5,302.667,21/500,28,190.0
2688,E3,303.0,0.5,29,190.0
2689,G#4,303.0,83/1000,49,190.0
2690,E5,303.0,83/1000,49,190.0
2691,F5,303.083,83/1000,34,190.0
2692,B4,303.083,83/1000,34,190.0
2693,G#4,303.167,21/500,30,190.0
2694,E5,303.167,21/500,30,190.0
2695,D5,303.5,83/1000,51,190.0
2696,B5,303.5,83/1000,51,190.0
2697,G#4,303.5,0.5,31,190.0
2698,E4,303.5,0.5,31,190.0
2699,E5,303.583,83/1000,35,190.0
2700,C6,303.583,83/1000,35,190.0
2701,D5,303.667,21/500,31,190.0
2702,B5,303.667,21/500,31,190.0
2703,C5,304.0,83/1000,53,190.0
2704,A5,304.0,83/1000,53,190.0
2705,E4,304.0,0.5,32,190.0
2706,A4,304.0,0.5,32,190.0
2707,A3,304.0,0.5,32,190.0
2708,E5,304.083,83/1000,36,190.0
2709,B5,304.083,83/1000,36,190.0
2710,C5,304.167,21/500,32,190.0
2711,A5,304.167,21/500,32,190.0
2712,A5,304.5,83/1000,45,190.0
2713,F6,304.5,83/1000,45,190.0
2714,D2,304.5,0.25,27,190.0
2715,A2,304.5,0.25,27,190.0
2716,D6,304.583,83/1000,31,190.0
2717,G6,304.583,83/1000,31,190.0
2718,A5,304.667,21/500,27,190.0
2719,F6,304.667,21/500,27,190.0
2720,C7,305.0,0.25,36,190.0
2721,E6,305.0,0.25,36,190.0
2722,C6,305.0,0.25,36,190.0
2723,A1,305.0,0.25,27,190.0
2724,A2,305.0,0.25,27,190.0
2725,E4,306.0,0.25,72,190.0
2726,A3,306.0,0.25,72,190.0
2727,C4,306.0,0.25,72,190.0
2728,E3,306.0,0.25,79,190.0
2729,A2,306.0,0.25,79,190.0
2730,C3,306.5,0.25,50,190.0
2731,E3,306.5,0.25,50,190.0
2732,E4,306.75,0.25,61,190.0
2733,E3,307.0,0.25,50,190.0
2734,B2,307.0,0.25,50,190.0
2735,E4,307.25,0.25,56,190.0
2736,D4,307.25,0.25,56,190.0
2737,E3,307.5,0.25,50,190.0
2738,A2,307.5,0.25,50,190.0
2739,E4,307.75,0.188,52,190.0
2740,C4,307.75,0.188,52,190.0
2741,E3,308.0,0.25,58,190.0
2742,G#2,308.0,0.25,58,190.0
2743,E4,308.25,0.25,59,190.0
2744,B3,308.25,0.25,59,190.0
2745,E3,308.5,0.25,52,190.0
2746,E2,308.5,0.25,52,190.0
2747,B4,308.75,0.25,50,190.0
2748,B3,308.75,0.25,50,190.0
2749,E4,308.75,0.25,50,190.0
2750,F#2,309.0,0.25,52,190.0
2751,E3,309.0,0.25,52,190.0
2752,E4,309.25,0.25,54,190.0
2753,A3,309.25,0.25,54,190.0
2754,E3,309.5,0.25,52,190.0
2755,G#2,309.5,0.25,52,190.0
2756,E4,309.75,0.188,53,190.0
2757,B3,309.75,0.188,53,190.0
2758,E4,310.0,0.25,72,190.0
2759,A3,310.0,0.25,72,190.0
2760,C4,310.0,0.25,72,190.0
2761,E3,310.0,0.25,79,190.0
2762,A2,310.0,0.25,79,190.0
2763,E3,310.5,0.25,50,190.0
2764,C3,310.5,0.25,50,190.0
2765,E4,310.75,0.25,61,190.0
2766,E3,311.0,0.25,50,190.0
2767,B2,311.0,0.25,50,190.0
2768,E4,311.25,0.25,56,190.0
2769,D4,311.25,0.25,56,190.0
2770,E3,311.5,0.25,50,190.0
2771,A2,311.5,0.25,50,190.0
2772,E4,311.75,0.188,52,190.0
2773,C4,311.75,0.188,52,190.0
2774,E3,312.0,0.25,58,190.0
2775,G#2,312.0,0.25,58,190.0
2776,E4,312.25,0.25,56,190.0
2777,B3,312.25,0.25,56,190.0
2778,E-3,312.5,0.25,52,190.0
2779,F2,312.5,0.25,52,190.0
2780,A4,312.75,0.25,53,190.0
2781,B3,312.75,0.25,53,190.0
2782,E-4,312.75,0.25,53,190.0
2783,E3,313.0,0.25,56,190.0
2784,E2,313.0,0.25,56,190.0
2785,G#4,313.25,0.25,53,190.0
2786,E4,313.25,0.25,53,190.0
2787,B3,313.25,0.25,53,190.0
2788,G#3,313.5,0.25,52,190.0
2789,E3,313.5,0.25,52,190.0
2790,E4,313.75,0.188,56,190.0
2791,E4,314.0,0.25,75,190.0
2792,E5,314.0,0.25,75,190.0
2793,A4,314.0,0.25,75,190.0
2794,C5,314.0,0.25,75,190.0
2795,A3,314.0,0.25,82,190.0
2796,A2,314.0,0.25,82,190.0
2797,C4,314.5,0.25,54,190.0
2798,C3,314.5,0.25,54,190.0
2799,E4,314.75,0.25,60,190.0
2800,E5,314.75,0.25,60,190.0
2801,B3,315.0,0.25,54,190.0
2802,B2,315.0,0.25,54,190.0
2803,D5,315.25,0.25,57,190.0
2804,E4,315.25,0.25,57,190.0
2805,E5,315.25,0.25,57,190.0
2806,A3,315.5,0.25,54,190.0
2807,A2,315.5,0.25,54,190.0
2808,E4,315.75,0.188,55,190.0
2809,E5,315.75,0.188,55,190.0
2810,C5,315.75,0.188,55,190.0
2811,G#3,316.0,0.25,64,190.0
2812,G#2,316.0,0.25,64,190.0
2813,E4,316.25,0.25,60,190.0
2814,E5,316.25,0.25,60,190.0
2815,B4,316.25,0.25,60,190.0
2816,E3,316.5,0.25,58,190.0
2817,E2,316.5,0.25,58,190.0
2818,B5,316.75,0.25,55,190.0
2819,B4,316.75,0.25,55,190.0
2820,F#3,317.0,0.25,56,190.0
2821,F#2,317.0,0.25,56,190.0
2822,E4,317.25,0.25,54,190.0
2823,E5,317.25,0.25,54,190.0
2824,A4,317.25,0.25,54,190.0
2825,G#3,317.5,0.25,56,190.0
2826,G#2,317.5,0.25,56,190.0
2827,E4,317.75,0.188,54,190.0
2828,E5,317.75,0.188,54,190.0
2829,B4,317.75,0.188,54,190.0
2830,E4,318.0,0.25,75,190.0
2831,E5,318.0,0.25,75,190.0
2832,A4,318.0,0.25,75,190.0
2833,C5,318.0,0.25,75,190.0
2834,A3,318.0,0.25,82,190.0
2835,A2,318.0,0.25,82,190.0
2836,C4,318.5,0.25,55,190.0
2837,C3,318.5,0.25,55,190.0
2838,E5,318.75,0.25,62,190.0
2839,E4,318.75,0.25,62,190.0
2840,B3,319.0,0.25,56,190.0
2841,B2,319.0,0.25,56,190.0
2842,D5,319.25,0.25,63,190.0
2843,E5,319.25,0.25,63,190.0
2844,E4,319.25,0.25,63,190.0
2845,A3,319.5,0.25,58,190.0
2846,A2,319.5,0.25,58,190.0
2847,E4,319.75,0.188,59,190.0
2848,E5,319.75,0.188,59,190.0
2849,C5,319.75,0.188,59,190.0
2850,G#3,320.0,0.25,68,190.0
2851,G#2,320.0,0.25,68,190.0
2852,E4,320.25,0.25,68,190.0
2853,E5,320.25,0.25,68,190.0
2854,B4,320.25,0.25,68,190.0
2855,F3,320.5,0.25,70,190.0
2856,F2,320.5,0.25,70,190.0
2857,A5,320.75,0.25,66,190.0
2858,A4,320.75,0.25,66,190.0
2859,E-5,320.75,0.25,66,190.0
2860,E3,321.0,0.25,71,190.0
2861,E2,321.0,0.25,71,190.0
2862,G#5,321.25,0.25,67,190.0
2863,E5,321.25,0.25,67,190.0
2864,G#4,321.25,0.25,67,190.0
2865,G#3,321.5,0.25,71,190.0
2866,E4,321.5,0.25,71,190.0
2867,B3,321.5,0.25,71,190.0
2868,E5,321.75,0.188,74,190.0
2869,G#4,321.75,0.188,74,190.0
2870,B4,321.75,0.188,74,190.0
2871,E5,322.0,0.25,79,190.0
2872,A4,322.0,0.25,79,190.0
2873,C#5,322.0,0.25,79,190.0
2874,E4,322.0,0.25,79,190.0
2875,A3,322.0,0.25,86,190.0
2876,A2,322.0,0.25,86,190.0
2877,B3,322.5,0.25,57,190.0
2878,B2,322.5,0.25,57,190.0
2879,E4,322.75,0.25,59,190.0
2880,D5,322.75,0.25,59,190.0
2881,A4,322.75,0.25,59,190.0
2882,E5,322.75,0.25,59,190.0
2883,C#3,323.0,0.25,57,190.0
2884,C#4,323.0,0.25,57,190.0
2885,E5,323.25,0.25,58,190.0
2886,A4,323.25,0.25,58,190.0
2887,E4,323.25,0.25,58,190.0
2888,A3,323.5,0.25,57,190.0
2889,A2,323.5,0.25,57,190.0
2890,E4,323.75,0.188,58,190.0
2891,E5,323.75,0.188,58,190.0
2892,C#5,323.75,0.188,58,190.0
2893,D4,324.0,0.25,66,190.0
2894,D3,324.0,0.25,66,190.0
2895,D5,324.25,0.5,68,190.0
2896,D6,324.25,0.5,68,190.0
2897,F5,324.25,0.5,68,190.0
2898,C#4,324.5,0.5,70,190.0
2899,B-4,324.5,0.5,70,190.0
2900,E5,324.75,0.5,64,190.0
2901,E6,324.75,0.5,64,190.0
2902,G5,324.75,0.5,64,190.0
2903,A4,325.0,0.5,70,190.0
2904,D4,325.0,0.5,70,190.0
2905,F5,325.25,0.5,67,190.0
2906,F6,325.25,0.5,67,190.0
2907,A5,325.25,0.5,67,190.0
2908,A4,325.5,0.5,72,190.0
2909,F4,325.5,0.5,72,190.0
2910,D5,325.75,0.188,69,190.0
2911,D6,325.75,0.188,69,190.0
2912,F5,325.75,0.188,69,190.0
2913,D4,326.0,0.25,78,190.0
2914,D5,326.0,0.25,78,190.0
2915,G4,326.0,0.25,78,190.0
2916,B4,326.0,0.25,78,190.0
2917,G3,326.0,0.25,86,190.0
2918,G2,326.0,0.25,86,190.0
2919,A3,326.5,0.25,57,190.0
2920,A2,326.5,0.25,57,190.0
2921,C5,326.75,0.25,61,190.0
2922,G4,326.75,0.25,61,190.0
2923,D5,326.75,0.25,61,190.0
2924,D4,326.75,0.25,61,190.0
2925,B3,327.0,0.25,57,190.0
2926,B2,327.0,0.25,57,190.0
2927,G4,327.25,0.25,62,190.0
2928,D5,327.25,0.25,62,190.0
2929,D4,327.25,0.25,62,190.0
2930,G3,327.5,0.25,57,190.0
2931,G2,327.5,0.25,57,190.0
2932,D4,327.75,0.188,58,190.0
2933,D5,327.75,0.188,58,190.0
2934,B4,327.75,0.188,58,190.0
2935,C4,328.0,0.25,70,190.0
2936,C3,328.0,0.25,70,190.0
2937,E5,328.25,0.5,68,190.0
2938,E6,328.25,0.5,68,190.0
2939,C6,328.25,0.5,68,190.0
2940,G4,328.5,0.5,71,190.0
2941,D4,328.5,0.5,71,190.0
2942,F6,328.75,0.5,65,190.0
2943,F5,328.75,0.5,65,190.0
2944,C6,328.75,0.5,65,190.0
2945,G4,329.0,0.5,70,190.0
2946,E4,329.0,0.5,70,190.0
2947,G6,329.25,0.5,67,190.0
2948,C6,329.25,0.5,67,190.0
2949,G5,329.25,0.5,67,190.0
2950,G4,329.5,0.5,72,190.0
2951,C4,329.5,0.5,72,190.0
2952,E6,329.75,0.188,70,190.0
2953,E5,329.75,0.188,70,190.0
2954,C6,329.75,0.188,70,190.0
2955,F6,330.0,0.25,76,190.0
2956,G#5,330.0,0.25,76,190.0
2957,B5,330.0,0.25,76,190.0
2958,F5,330.0,0.25,76,190.0
2959,D4,330.0,0.25,82,190.0
2960,D3,330.0,0.25,82,190.0
2961,F4,330.5,0.375,55,190.0
2962,G#4,330.5,0.375,55,190.0
2963,B4,330.5,0.375,55,190.0
2964,B5,330.75,0.375,61,190.0
2965,G#5,330.75,0.375,61,190.0
2966,D6,330.75,0.375,61,190.0
2967,D5,330.75,0.375,61,190.0
2968,E4,331.0,0.375,55,190.0
2969,G#4,331.0,0.375,55,190.0
2970,B4,331.0,0.375,55,190.0
2971,E5,331.25,0.375,61,190.0
2972,B5,331.25,0.375,61,190.0
2973,E6,331.25,0.375,61,190.0
2974,G#5,331.25,0.375,61,190.0
2975,D4,331.5,0.375,55,190.0
2976,G#4,331.5,0.375,55,190.0
2977,B4,331.5,0.375,55,190.0
2978,F5,331.75,0.25,56,190.0
2979,G#5,331.75,0.25,56,190.0
2980,F6,331.75,0.25,56,190.0
2981,B5,331.75,0.25,56,190.0
2982,C4,332.0,0.375,65,190.0
2983,C5,332.0,0.375,65,190.0
2984,A4,332.0,0.375,65,190.0
2985,E5,332.25,0.375,65,190.0
2986,E6,332.25,0.375,65,190.0
2987,A5,332.25,0.375,65,190.0
2988,F4,332.5,0.375,62,190.0
2989,G#4,332.5,0.375,62,190.0
2990,B3,332.5,0.375,62,190.0
2991,G#5,332.75,0.375,57,190.0
2992,D6,332.75,0.375,57,190.0
2993,D5,332.75,0.375,57,190.0
2994,F5,332.75,0.375,57,190.0
2995,A3,333.0,0.375,60,190.0
2996,A4,333.0,0.375,60,190.0
2997,E4,333.0,0.375,60,190.0
2998,E5,333.25,0.375,57,190.0
2999,C6,333.25,0.375,57,190.0
3000,A5,333.25,0.375,57,190.0
3001,C5,333.25,0.375,57,190.0
3002,C#4,333.5,0.375,60,190.0
3003,E4,333.5,0.375,60,190.0
3004,G3,333.5,0.375,60,190.0
3005,E5,333.75,0.25,59,190.0
3006,C#6,333.75,0.25,59,190.0
3007,C#5,333.75,0.25,59,190.0
3008,B-5,333.75,0.25,59,190.0
3009,F3,334.0,0.375,71,190.0
3010,F4,334.0,0.375,71,190.0
3011,D4,334.0,0.375,71,190.0
3012,B-5,334.25,0.375,70,190.0
3013,D5,334.25,0.375,70,190.0
3014,D6,334.25,0.375,70,190.0
3015,F5,334.25,0.375,70,190.0
3016,E-3,334.5,0.375,68,190.0
3017,E-4,334.5,0.375,68,190.0
3018,C4,334.5,0.375,68,190.0
3019,A3,334.5,0.375,68,190.0
3020,F6,334.75,0.375,66,190.0
3021,A6,334.75,0.375,66,190.0
3022,A5,334.75,0.375,66,190.0
3023,C6,334.75,0.375,66,190.0
3024,C4,335.0,0.375,70,190.0
3025,E3,335.0,0.375,70,190.0
3026,E4,335.0,0.375,70,190.0
3027,A3,335.0,0.375,70,190.0
3028,C6,335.25,0.375,70,190.0
3029,A6,335.25,0.375,70,190.0
3030,E6,335.25,0.375,70,190.0
3031,A5,335.25,0.375,70,190.0
3032,G#3,335.5,0.375,74,190.0
3033,B3,335.5,0.375,74,190.0
3034,E4,335.5,0.375,74,190.0
3035,E3,335.5,0.375,74,190.0
3036,B5,335.75,0.25,75,190.0
3037,G#6,335.75,0.25,75,190.0
3038,G#5,335.75,0.25,75,190.0
3039,E6,335.75,0.25,75,190.0
3040,A5,336.0,1.0,80,190.0
3041,C6,336.0,1.0,80,190.0
3042,E6,336.0,1.0,80,190.0
3043,A6,336.0,1.0,80,190.0
3044,A2,336.0,1.0,84,190.0
3045,E3,336.0,1.0,84,190.0
3046,A3,336.0,1.0,84,190.0
3047,C5,337.0,0.25,78,190.0
3048,E5,337.0,0.25,78,190.0
3049,A5,337.0,0.25,78,190.0
3050,E4,337.0,0.25,70,190.0
3051,A4,337.0,0.25,70,190.0
3052,C4,337.0,0.25,70,190.0
3053,E5,337.875,0.125,38,190.0
3054,C6,338.0,0.125,56,190.0
3055,E5,338.0,0.5,38,190.0
3056,A3,338.0,0.125,38,190.0
3057,A5,338.25,0.125,40,190.0
3058,E4,338.25,0.125,32,190.0
3059,E5,338.5,0.125,41,190.0
3060,E3,338.5,0.125,32,190.0
3061,C5,338.75,0.125,36,190.0
3062,E4,338.75,0.125,32,190.0
3063,A4,339.0,0.125,36,190.0
3064,C4,339.0,0.125,34,190.0
3065,E5,339.25,0.125,38,190.0
3066,E4,339.25,0.125,31,190.0
3067,C5,339.5,0.125,38,190.0
3068,A3,339.5,0.125,29,190.0
3069,A4,339.75,0.094,38,190.0
3070,E4,339.75,0.125,30,190.0
3071,E5,339.875,0.125,38,190.0
3072,B5,340.0,0.125,64,190.0
3073,E5,340.0,0.5,38,190.0
3074,G#3,340.0,0.125,38,190.0
3075,G#5,340.25,0.125,40,190.0
3076,E4,340.25,0.125,32,190.0
3077,E5,340.5,0.125,41,190.0
3078,E3,340.5,0.125,32,190.0
3079,D6,340.75,0.125,41,190.0
3080,E4,340.75,0.125,32,190.0
3081,B5,341.0,0.125,45,190.0
3082,G#3,341.0,0.125,38,190.0
3083,E5,341.25,0.125,41,190.0
3084,E4,341.25,0.125,32,190.0
3085,G#5,341.5,0.125,38,190.0
3086,B3,341.5,0.125,29,190.0
3087,E5,341.75,49/500,38,190.0
3088,E4,341.75,0.125,30,190.0
3089,E5,341.875,0.125,38,190.0
3090,C6,342.0,0.125,61,190.0
3091,E5,342.0,0.5,38,190.0
3092,A3,342.0,0.125,38,190.0
3093,A5,342.25,0.125,40,190.0
3094,E4,342.25,0.125,32,190.0
3095,E5,342.5,0.125,41,190.0
3096,E3,342.5,0.125,32,190.0
3097,C5,342.75,0.125,41,190.0
3098,E4,342.75,0.125,32,190.0
3099,A4,343.0,0.125,39,190.0
3100,C4,343.0,0.125,36,190.0
3101,E5,343.25,0.125,45,190.0
3102,E4,343.25,0.125,32,190.0
3103,C5,343.5,0.125,40,190.0
3104,A3,343.5,0.125,29,190.0
3105,A4,343.75,23/250,38,190.0
3106,E4,343.75,0.125,30,190.0
3107,E5,343.875,0.125,38,190.0
3108,B5,344.0,0.125,59,190.0
3109,E5,344.0,0.5,38,190.0
3110,G#3,344.0,0.125,38,190.0
3111,G#5,344.25,0.125,40,190.0
3112,E4,344.25,0.125,32,190.0
3113,E5,344.5,0.125,37,190.0
3114,E3,344.5,0.125,32,190.0
3115,E5,344.75,0.125,31,190.0
3116,E4,344.75,0.125,32,190.0
3117,B4,345.0,0.125,38,190.0
3118,G#3,345.0,0.125,35,190.0
3119,G#4,345.25,0.125,34,190.0
3120,B3,345.25,0.125,29,190.0
3121,E4,345.5,0.5,39,190.0
3122,C6,345.875,0.125,38,190.0
3123,E6,345.938,0.062,38,190.0
3124,C7,346.0,0.125,59,190.0
3125,C6,346.0,0.5,38,190.0
3126,E6,346.0,123/250,38,190.0
3127,A3,346.0,0.125,38,190.0
3128,A6,346.25,0.125,40,190.0
3129,E4,346.25,0.125,32,190.0
3130,E6,346.5,0.125,41,190.0
3131,E3,346.5,0.125,32,190.0
3132,C6,346.75,0.125,36,190.0
3133,E4,346.75,0.125,32,190.0
3134,A5,347.0,0.125,36,190.0
3135,C4,347.0,0.125,34,190.0
3136,E6,347.25,0.125,38,190.0
3137,E4,347.25,0.125,31,190.0
3138,C6,347.5,0.125,38,190.0
3139,A3,347.5,0.125,29,190.0
3140,A5,347.75,53/500,38,190.0
3141,E4,347.75,0.125,30,190.0
3142,B5,347.875,0.125,38,190.0
3143,E6,347.938,0.062,38,190.0
3144,B6,348.0,0.125,59,190.0
3145,B5,348.0,0.5,38,190.0
3146,E6,348.0,61/125,38,190.0
3147,G#3,348.0,0.125,38,190.0
3148,G#6,348.25,0.125,40,190.0
3149,E4,348.25,0.125,32,190.0
3150,E6,348.5,0.125,41,190.0
3151,E3,348.5,0.125,32,190.0
3152,D7,348.75,0.125,41,190.0
3153,E4,348.75,0.125,32,190.0
3154,B6,349.0,0.125,45,190.0
3155,G#3,349.0,0.125,38,190.0
3156,E6,349.25,0.125,41,190.0
3157,E4,349.25,0.125,32,190.0
3158,G#6,349.5,0.125,38,190.0
3159,B3,349.5,0.125,29,190.0
3160,E6,349.75,27/250,38,190.0
3161,E4,349.75,0.125,30,190.0
3162,C6,349.875,0.125,38,190.0
3163,E6,349.938,0.062,38,190.0
3164,C7,350.0,0.125,62,190.0
3165,C6,350.0,0.5,38,190.0
3166,E6,350.0,123/250,38,190.0
3167,A3,350.0,0.125,38,190.0
3168,A6,350.25,0.125,40,190.0
3169,E4,350.25,0.125,32,190.0
3170,E6,350.5,0.125,41,190.0
3171,E3,350.5,0.125,32,190.0
3172,C6,350.75,0.125,41,190.0
3173,E4,350.75,0.125,32,190.0
3174,A5,351.0,0.125,39,190.0
3175,C4,351.0,0.125,36,190.0
3176,E6,351.25,0.125,45,190.0
3177,E4,351.25,0.125,32,190.0
3178,C6,351.5,0.125,40,190.0
3179,A3,351.5,0.125,29,190.0
3180,A5,351.75,1/10,38,190.0
3181,E4,351.75,0.125,30,190.0
3182,B5,351.875,0.125,38,190.0
3183,E6,351.938,0.062,38,190.0
3184,B6,352.0,0.125,62,190.0
3185,B5,352.0,0.5,38,190.0
3186,E6,352.0,49/100,38,190.0
3187,G#3,352.0,0.125,38,190.0
3188,G#6,352.25,0.125,40,190.0
3189,E4,352.25,0.125,32,190.0
3190,E6,352.5,0.125,37,190.0
3191,E3,352.5,0.125,32,190.0
3192,B5,352.75,0.125,31,190.0
3193,E4,352.75,0.125,32,190.0
3194,G#5,353.0,0.125,37,190.0
3195,B3,353.0,0.125,33,190.0
3196,B4,353.25,0.125,31,190.0
3197,G#4,353.25,0.125,26,190.0
3198,E5,353.5,177/500,37,190.0
3199,E4,353.5,0.5,32,190.0
3200,E5,353.875,0.125,49,190.0
3201,E6,354.0,0.25,70,190.0
3202,E5,354.0,0.5,49,190.0
3203,C#4,354.0,0.25,49,190.0
3204,C#6,354.25,0.25,52,190.0
3205,A4,354.25,0.25,41,190.0
3206,A5,354.5,0.25,53,190.0
3207,A3,354.5,0.25,41,190.0
3208,E5,354.75,0.25,46,190.0
3209,A4,354.75,0.25,41,190.0
3210,C#5,355.0,0.125,44,190.0
3211,A4,355.25,0.25,51,190.0
3212,G4,355.5,0.25,54,190.0
3213,E4,355.75,0.25,56,190.0
3214,F4,356.0,0.125,63,190.0
3215,D3,356.0,0.5,54,190.0
3216,A3,356.0,0.5,54,190.0
3217,D4,356.25,0.125,57,190.0
3218,D6,356.5,0.125,61,190.0
3219,A5,356.75,0.125,57,190.0
3220,F5,357.0,0.125,56,190.0
3221,D5,357.25,0.125,49,190.0
3222,F4,357.5,0.125,53,190.0
3223,D4,357.75,14/125,53,190.0
3224,G5,357.875,0.125,46,190.0
3225,D6,358.0,0.25,70,190.0
3226,G5,358.0,0.5,46,190.0
3227,B3,358.0,0.25,46,190.0
3228,B5,358.25,0.25,49,190.0
3229,G4,358.25,0.25,38,190.0
3230,G5,358.5,0.25,50,190.0
3231,G3,358.5,0.25,38,190.0
3232,F5,358.75,0.25,44,190.0
3233,G4,358.75,0.25,38,190.0
3234,D5,359.0,0.125,41,190.0
3235,B4,359.25,0.25,48,190.0
3236,F4,359.5,0.25,51,190.0
3237,D4,359.75,0.25,53,190.0
3238,E4,360.0,0.125,60,190.0
3239,C3,360.0,0.5,51,190.0
3240,G3,360.0,0.5,51,190.0
3241,C4,360.25,0.125,54,190.0
3242,C6,360.5,0.125,57,190.0
3243,G5,360.75,0.125,54,190.0
3244,E5,361.0,0.125,53,190.0
3245,C5,361.25,0.125,46,190.0
3246,E4,361.5,0.125,50,190.0
3247,C4,361.75,0.125,45,190.0
3248,B5,362.0,0.125,54,190.0
3249,F4,362.0,0.5,34,190.0
3250,G#3,362.0,0.5,34,190.0
3251,D4,362.0,0.5,34,190.0
3252,A5,362.25,0.125,46,190.0
3253,F6,362.25,0.125,46,190.0
3254,G#5,362.5,0.125,53,190.0
3255,F5,362.75,0.125,46,190.0
3256,D6,362.75,0.125,46,190.0
3257,E5,363.0,0.125,53,190.0
3258,D5,363.25,0.125,44,190.0
3259,B5,363.25,0.125,44,190.0
3260,C5,363.5,0.125,52,190.0
3261,B4,363.75,0.125,44,190.0
3262,G#5,363.75,0.125,44,190.0
3263,A4,364.0,0.125,51,190.0
3264,E4,364.0,0.5,35,190.0
3265,C4,364.0,0.5,35,190.0
3266,G4,364.25,0.125,45,190.0
3267,E5,364.25,0.125,45,190.0
3268,F4,364.5,0.125,45,190.0
3269,E4,364.75,0.125,42,190.0
3270,C5,364.75,0.125,42,190.0
3271,D4,365.0,0.125,45,190.0
3272,C4,365.25,0.125,42,190.0
3273,A4,365.25,0.125,42,190.0
3274,B3,365.5,0.125,45,190.0
3275,A3,365.75,0.125,40,190.0
3276,E4,365.75,0.125,40,190.0
3277,F4,366.0,0.125,45,190.0
3278,D3,366.25,0.125,45,190.0
3279,A5,366.5,0.125,46,190.0
3280,B4,366.5,0.125,46,190.0
3281,F5,366.75,0.125,41,190.0
3282,D5,366.75,0.125,41,190.0
3283,G#4,367.0,0.125,45,190.0
3284,E3,367.25,0.125,45,190.0
3285,B5,367.5,0.125,46,190.0
3286,B4,367.5,0.125,46,190.0
3287,G#5,367.75,0.125,40,190.0
3288,D5,367.75,0.125,40,190.0
3289,A5,368.0,0.125,41,190.0
3290,C5,368.0,0.125,41,190.0
3291,A4,368.25,0.125,38,190.0
3292,E4,368.25,0.125,38,190.0
3293,C4,368.5,0.125,42,190.0
3294,A3,368.75,0.125,37,190.0
3295,A2,369.0,0.5,38,190.0
3296,A6,370.0,3.0,55,190.0
3297,A4,370.0,4.0,38,190.0
3298,E5,370.0,167/1000,17,190.0
3299,A5,370.0,4.0,38,190.0
3300,C6,370.0,4.0,38,190.0
3301,F5,370.167,167/1000,17,190.0
3302,E5,370.333,167/1000,18,190.0
3303,F5,370.5,167/1000,18,190.0
3304,E5,370.667,167/1000,18,190.0
3305,F5,370.833,167/1000,18,190.0
3306,E5,371.0,167/1000,18,190.0
3307,F5,371.167,167/1000,20,190.0
3308,E5,371.333,167/1000,20,190.0
3309,F5,371.5,167/1000,22,190.0
3310,E5,371.667,167/1000,23,190.0
3311,F5,371.833,167/1000,23,190.0
3312,E5,372.0,167/1000,22,190.0
3313,F5,372.167,167/1000,22,190.0
3314,E5,372.333,167/1000,22,190.0
3315,F5,372.5,167/1000,22,190.0
3316,E5,372.667,167/1000,22,190.0
3317,F5,372.833,167/1000,22,190.0
3318,E6,373.0,0.5,52,190.0
3319,E5,373.0,167/1000,22,190.0
3320,F5,373.167,167/1000,22,190.0
3321,E5,373.333,167/1000,22,190.0
3322,C7,373.5,0.5,54,190.0
3323,F5,373.5,167/1000,22,190.0
3324,E5,373.667,167/1000,22,190.0
3325,F5,373.833,167/1000,22,190.0
3326,B6,374.0,0.5,54,190.0
3327,B5,374.0,4.0,37,190.0
3328,E6,374.0,2.5,37,190.0
3329,E5,374.0,167/1000,21,190.0
3330,A4,374.0,4.0,38,190.0
3331,D5,374.0,4.0,38,190.0
3332,F5,374.167,167/1000,21,190.0
3333,E5,374.333,167/1000,21,190.0
3334,A6,374.5,0.5,52,190.0
3335,F5,374.5,167/1000,22,190.0
3336,E5,374.667,167/1000,22,190.0
3337,F5,374.833,167/1000,22,190.0
3338,G#6,375.0,0.5,51,190.0
3339,E5,375.0,167/1000,23,190.0
3340,F5,375.167,167/1000,24,190.0
3341,E5,375.333,167/1000,24,190.0
3342,F#6,375.5,0.5,49,190.0
3343,F5,375.5,167/1000,25,190.0
3344,E5,375.667,167/1000,26,190.0
3345,F5,375.833,167/1000,29,190.0
3346,E6,376.0,2.0,51,190.0
3347,E5,376.0,167/1000,31,190.0
3348,F5,376.167,167/1000,30,190.0
3349,E5,376.333,167/1000,29,190.0
3350,F#6,376.5,0.5,49,190.0
3351,F5,376.5,167/1000,29,190.0
3352,E5,376.667,167/1000,29,190.0
3353,F5,376.833,167/1000,27,190.0
3354,G#6,377.0,0.5,52,190.0
3355,E5,377.0,167/1000,25,190.0
3356,F5,377.167,167/1000,25,190.0
3357,E5,377.333,167/1000,25,190.0
3358,E6,377.5,0.5,54,190.0
3359,F5,377.5,167/1000,25,190.0
3360,E5,377.667,167/1000,25,190.0
3361,F5,377.833,167/1000,23,190.0
3362,A6,378.0,1917/1000,57,190.0
3363,E5,378.0,167/1000,19,190.0
3364,C6,378.0,4.0,39,190.0
3365,E6,378.0,4.0,39,190.0
3366,C5,378.0,4.0,38,190.0
3367,A4,378.0,4.0,38,190.0
3368,F5,378.167,167/1000,23,190.0
3369,E5,378.333,167/1000,24,190.0
3370,F5,378.5,167/1000,24,190.0
3371,E5,378.667,167/1000,25,190.0
3372,F5,378.833,167/1000,25,190.0
3373,E5,379.0,167/1000,25,190.0
3374,F5,379.167,167/1000,26,190.0
3375,E5,379.333,167/1000,26,190.0
3376,F5,379.5,167/1000,26,190.0
3377,E5,379.667,167/1000,28,190.0
3378,B6,379.75,83/1000,47,190.0
3379,A6,379.833,167/1000,42,190.0
3380,F5,379.833,167/1000,28,190.0
3381,G#6,379.917,83/1000,42,190.0
3382,A6,380.0,0.5,58,190.0
3383,E5,380.0,167/1000,28,190.0
3384,F5,380.167,167/1000,29,190.0
3385,E5,380.333,167/1000,29,190.0
3386,B6,380.5,0.5,54,190.0
3387,F5,380.5,167/1000,29,190.0
3388,E5,380.667,167/1000,29,190.0
3389,F5,380.833,167/1000,29,190.0
3390,C7,381.0,0.5,55,190.0
3391,E5,381.0,167/1000,29,190.0
3392,F5,381.167,167/1000,29,190.0
3393,E5,381.333,167/1000,27,190.0
3394,D7,381.5,0.5,58,190.0
3395,F5,381.5,167/1000,25,190.0
3396,E5,381.667,167/1000,25,190.0
3397,F5,381.833,167/1000,25,190.0
3398,E-7,382.0,1.5,62,190.0
3399,E5,382.0,167/1000,26,190.0
3400,D6,382.0,4.0,41,190.0
3401,G#6,382.0,4.0,41,190.0
3402,B4,382.0,4.0,38,190.0
3403,A4,382.0,4.0,38,190.0
3404,F5,382.167,167/1000,22,190.0
3405,E5,382.333,167/1000,23,190.0
3406,F5,382.5,167/1000,24,190.0
3407,E5,382.667,167/1000,24,190.0
3408,F5,382.833,167/1000,24,190.0
3409,E5,383.0,167/1000,26,190.0
3410,F5,383.167,167/1000,28,190.0
3411,E5,383.333,167/1000,28,190.0
3412,E7,383.5,0.5,54,190.0
3413,F5,383.5,167/1000,30,190.0
3414,E5,383.667,167/1000,31,190.0
3415,F5,383.833,167/1000,31,190.0
3416,E6,384.0,2.0,55,190.0
3417,E5,384.0,167/1000,30,190.0
3418,F5,384.167,167/1000,30,190.0
3419,E5,384.333,167/1000,30,190.0
3420,F5,384.5,167/1000,30,190.0
3421,E5,384.667,167/1000,29,190.0
3422,F5,384.833,167/1000,26,190.0
3423,E5,385.0,167/1000,26,190.0
3424,F5,385.167,167/1000,25,190.0
3425,E5,385.333,167/1000,24,190.0
3426,F5,385.5,167/1000,24,190.0
3427,E5,385.667,167/1000,23,190.0
3428,F5,385.833,167/1000,21,190.0
3429,A6,386.0,3.0,55,190.0
3430,A4,386.0,4.0,38,190.0
3431,E5,386.0,167/1000,21,190.0
3432,C6,386.0,4.0,38,190.0
3433,A5,386.0,4.0,38,190.0
3434,F5,386.167,167/1000,21,190.0
3435,E5,386.333,167/1000,21,190.0
3436,F5,386.5,167/1000,22,190.0
3437,E5,386.667,167/1000,24,190.0
3438,F5,386.833,167/1000,24,190.0
3439,E5,387.0,167/1000,25,190.0
3440,F5,387.167,167/1000,26,190.0
3441,E5,387.333,167/1000,26,190.0
3442,F5,387.5,167/1000,28,190.0
3443,E5,387.667,167/1000,28,190.0
3444,F5,387.833,167/1000,28,190.0
3445,E5,388.0,167/1000,27,190.0
3446,F5,388.167,167/1000,27,190.0
3447,E5,388.333,167/1000,27,190.0
3448,F5,388.5,167/1000,27,190.0
3449,E5,388.667,167/1000,25,190.0
3450,F5,388.833,167/1000,23,190.0
3451,E6,389.0,0.5,56,190.0
3452,E5,389.0,167/1000,23,190.0
3453,F5,389.167,167/1000,23,190.0
3454,E5,389.333,167/1000,23,190.0
3455,C7,389.5,0.5,55,190.0
3456,F5,389.5,167/1000,23,190.0
3457,E5,389.667,167/1000,23,190.0
3458,F5,389.833,167/1000,23,190.0
3459,B6,390.0,0.5,54,190.0
3460,B5,390.0,4.0,37,190.0
3461,E6,390.0,2.5,37,190.0
3462,E5,390.0,167/1000,23,190.0
3463,A4,390.0,4.0,38,190.0
3464,D5,390.0,4.0,38,190.0
3465,F5,390.167,167/1000,23,190.0
3466,E5,390.333,167/1000,23,190.0
3467,A6,390.5,0.5,51,190.0
3468,F5,390.5,167/1000,23,190.0
3469,E5,390.667,167/1000,25,190.0
3470,F5,390.833,167/1000,22,190.0
3471,G#6,391.0,0.5,51,190.0
3472,E5,391.0,167/1000,22,190.0
3473,F5,391.167,167/1000,22,190.0
3474,E5,391.333,167/1000,22,190.0
3475,F#6,391.5,0.5,51,190.0
3476,F5,391.5,167/1000,23,190.0
3477,E5,391.667,167/1000,25,190.0
3478,F5,391.833,167/1000,26,190.0
3479,E6,392.0,2.0,52,190.0
3480,E5,392.0,167/1000,27,190.0
3481,F5,392.167,167/1000,27,190.0
3482,E5,392.333,167/1000,27,190.0
3483,F#6,392.5,0.5,51,190.0
3484,F5,392.5,167/1000,27,190.0
3485,E5,392.667,167/1000,27,190.0
3486,F5,392.833,167/1000,27,190.0
3487,G#6,393.0,0.5,52,190.0
3488,E5,393.0,167/1000,26,190.0
3489,F5,393.167,167/1000,25,190.0
3490,E5,393.333,167/1000,25,190.0
3491,E6,393.5,0.5,54,190.0
3492,F5,393.5,167/1000,25,190.0
3493,E5,393.667,167/1000,24,190.0
3494,F5,393.833,167/1000,19,190.0
3495,A6,394.0,1917/1000,57,190.0
3496,E5,394.0,167/1000,17,190.0
3497,C6,394.0,4.0,39,190.0
3498,E6,394.0,4.0,39,190.0
3499,A4,394.0,4.0,38,190.0
3500,C5,394.0,4.0,38,190.0
3501,F5,394.167,167/1000,18,190.0
3502,E5,394.333,167/1000,18,190.0
3503,F5,394.5,167/1000,20,190.0
3504,E5,394.667,167/1000,20,190.0
3505,F5,394.833,167/1000,22,190.0
3506,E5,395.0,167/1000,24,190.0
3507,F5,395.167,167/1000,25,190.0
3508,E5,395.333,167/1000,26,190.0
3509,F5,395.5,167/1000,29,190.0
3510,E5,395.667,167/1000,29,190.0
3511,B6,395.75,83/1000,47,190.0
3512,A6,395.833,167/1000,42,190.0
3513,F5,395.833,167/1000,30,190.0
3514,G#6,395.917,83/1000,42,190.0
3515,A6,396.0,0.5,58,190.0
3516,E5,396.0,167/1000,25,190.0
3517,F5,396.167,167/1000,25,190.0
3518,E5,396.333,167/1000,25,190.0
3519,B6,396.5,0.5,54,190.0
3520,F5,396.5,167/1000,25,190.0
3521,E5,396.667,167/1000,25,190.0
3522,F5,396.833,167/1000,25,190.0
3523,C7,397.0,0.5,55,190.0
3524,E5,397.0,167/1000,25,190.0
3525,F5,397.167,167/1000,25,190.0
3526,E5,397.333,167/1000,25,190.0
3527,D7,397.5,0.5,57,190.0
3528,F5,397.5,167/1000,25,190.0
3529,E5,397.667,167/1000,25,190.0
3530,F5,397.833,167/1000,24,190.0
3531,E-7,398.0,1.5,59,190.0
3532,E5,398.0,167/1000,26,190.0
3533,D6,398.0,4.0,41,190.0
3534,G#6,398.0,4.0,41,190.0
3535,B4,398.0,4.0,38,190.0
3536,A4,398.0,4.0,38,190.0
3537,F5,398.167,167/1000,23,190.0
3538,E5,398.333,167/1000,24,190.0
3539,F5,398.5,167/1000,26,190.0
3540,E5,398.667,167/1000,28,190.0
3541,F5,398.833,167/1000,29,190.0
3542,E5,399.0,167/1000,29,190.0
3543,F5,399.167,167/1000,29,190.0
3544,E5,399.333,167/1000,29,190.0
3545,E7,399.5,0.5,54,190.0
3546,F5,399.5,167/1000,29,190.0
3547,E5,399.667,167/1000,29,190.0
3548,F5,399.833,167/1000,26,190.0
3549,E6,400.0,2.0,55,190.0
3550,E5,400.0,167/1000,27,190.0
3551,F5,400.167,167/1000,26,190.0
3552,E5,400.333,167/1000,26,190.0
3553,F5,400.5,167/1000,26,190.0
3554,E5,400.667,167/1000,26,190.0
3555,F5,400.833,167/1000,26,190.0
3556,E5,401.0,167/1000,26,190.0
3557,F5,401.167,167/1000,23,190.0
3558,E5,401.333,167/1000,21,190.0
3559,F5,401.5,167/1000,18,190.0
3560,E5,401.667,167/1000,18,190.0
3561,F5,401.833,167/1000,18,190.0
3562,A6,402.0,2.5,55,190.0
3563,A4,402.0,2.0,38,190.0
3564,E5,402.0,0.25,23,190.0
3565,G5,402.0,4.0,38,190.0
3566,C#6,402.0,4.0,38,190.0
3567,F5,402.25,0.25,16,190.0
3568,E5,402.5,0.25,16,190.0
3569,F5,402.75,0.25,16,190.0
3570,E5,403.0,0.25,17,190.0
3571,F5,403.25,0.25,17,190.0
3572,E5,403.5,0.25,18,190.0
3573,F5,403.75,0.25,18,190.0
3574,E5,404.0,1.0,30,190.0
3575,E7,404.5,0.5,49,190.0
3576,C#7,405.0,0.5,49,190.0
3577,A6,405.5,0.5,53,190.0
3578,G6,406.0,0.5,54,190.0
3579,E6,406.5,0.5,52,190.0
3580,C#6,407.0,0.5,51,190.0
3581,A5,407.5,0.5,50,190.0
3582,G5,408.0,0.5,50,190.0
3583,F5,408.5,0.5,49,190.0
3584,E5,409.0,0.5,48,190.0
3585,F6,409.0,0.5,48,190.0
3586,D6,409.0,0.5,48,190.0
3587,A5,409.0,0.5,48,190.0
3588,D5,409.5,0.5,46,190.0
3589,G6,410.0,2.5,55,190.0
3590,B4,410.0,2.0,38,190.0
3591,F5,410.0,0.25,24,190.0
3592,G5,410.0,4.0,38,190.0
3593,D6,410.0,4.0,38,190.0
3594,E5,410.25,0.25,16,190.0
3595,F5,410.5,0.25,16,190.0
3596,E5,410.75,0.25,16,190.0
3597,F5,411.0,0.25,17,190.0
3598,E5,411.25,0.25,17,190.0
3599,F5,411.5,0.25,18,190.0
3600,E5,411.75,0.25,18,190.0
3601,F5,412.0,1.0,30,190.0
3602,D7,412.5,0.5,49,190.0
3603,B6,413.0,0.5,49,190.0
3604,G6,413.5,0.5,53,190.0
3605,F6,414.0,0.5,54,190.0
3606,D6,414.5,0.5,52,190.0
3607,B5,415.0,0.5,51,190.0
3608,G5,415.5,0.5,50,190.0
3609,F5,416.0,0.5,50,190.0
3610,E5,416.5,0.5,49,190.0
3611,D5,417.0,0.5,48,190.0
3612,E6,417.0,0.5,48,190.0
3613,C6,417.0,0.5,48,190.0
3614,G5,417.0,0.5,48,190.0
3615,C5,417.5,0.5,46,190.0
3616,F5,418.0,0.25,23,190.0
3617,F6,418.0,2.5,46,190.0
3618,B5,418.0,2.5,46,190.0
3619,G#4,418.0,2.0,37,190.0
3620,D5,418.0,2.0,37,190.0
3621,E5,418.25,0.25,19,190.0
3622,F5,418.5,0.25,16,190.0
3623,E5,418.75,0.25,16,190.0
3624,F5,419.0,0.25,17,190.0
3625,E5,419.25,0.25,17,190.0
3626,F5,419.5,0.25,18,190.0
3627,E5,419.75,0.25,18,190.0
3628,F5,420.0,1.0,30,190.0
3629,D6,420.5,0.5,49,190.0
3630,B5,421.0,0.5,49,190.0
3631,A5,421.5,0.5,53,190.0
3632,G#5,422.0,0.5,49,190.0
3633,E5,422.5,0.5,49,190.0
3634,D5,423.0,0.5,45,190.0
3635,E6,423.0,0.5,45,190.0
3636,G#5,423.0,0.5,45,190.0
3637,B4,423.5,0.5,45,190.0
3638,C5,424.0,0.5,47,190.0
3639,E6,424.0,0.5,44,190.0
3640,A5,424.0,0.5,44,190.0
3641,E5,424.5,0.5,49,190.0
3642,A5,425.0,0.5,49,190.0
3643,E6,425.0,0.5,44,190.0
3644,C#6,425.0,0.5,44,190.0
3645,G5,425.5,0.5,49,190.0
3646,F5,426.0,0.5,49,190.0
3647,F6,426.0,0.5,45,190.0
3648,D6,426.0,0.5,45,190.0
3649,D6,426.5,0.5,47,190.0
3650,B5,427.0,0.5,47,190.0
3651,A5,427.5,0.5,47,190.0
3652,G#5,428.0,0.5,49,190.0
3653,E5,428.0,0.5,40,190.0
3654,D6,428.0,0.5,40,190.0
3655,B6,428.5,0.5,49,190.0
3656,G#6,429.0,0.5,45,190.0
3657,E6,429.5,0.375,39,190.0
3658,G#6,429.875,0.125,38,190.0
3659,A6,430.0,2.0,38,190.0
3660,C6,430.0,4.0,37,190.0
3661,A5,430.0,4.0,37,190.0
3662,A5,432.0,0.5,27,190.0
3663,E2,433.5,167/1000,69,190.0
3664,F#2,433.667,167/1000,74,190.0
3665,G#2,433.833,167/1000,79,190.0
3666,A2,434.0,1.0,75,190.0
3667,A1,434.0,1.0,75,190.0
3668,E3,434.167,167/1000,69,190.0
3669,A3,434.333,167/1000,69,190.0
3670,A3,434.5,0.5,79,190.0
3671,E4,434.5,167/1000,72,190.0
3672,C4,434.5,167/1000,72,190.0
3673,E4,434.667,167/1000,67,190.0
3674,A4,434.833,167/1000,67,190.0
3675,E5,435.0,3/20,73,190.0
3676,C5,435.0,3/20,73,190.0
3677,C3,435.0,1.0,76,190.0
3678,C2,435.0,1.0,76,190.0
3679,E5,435.167,167/1000,69,190.0
3680,A5,435.333,167/1000,68,190.0
3681,C4,435.5,0.5,79,190.0
3682,E6,435.5,3/20,73,190.0
3683,C6,435.5,3/20,73,190.0
3684,E6,435.667,167/1000,71,190.0
3685,A6,435.833,167/1000,71,190.0
3686,E7,436.0,167/1000,73,190.0
3687,D7,436.0,167/1000,73,190.0
3688,B2,436.0,1.0,76,190.0
3689,B1,436.0,1.0,76,190.0
3690,G#6,436.167,167/1000,70,190.0
3691,E6,436.333,3/20,70,190.0
3692,B3,436.5,0.5,77,190.0
3693,E6,436.5,167/1000,73,190.0
3694,D6,436.5,167/1000,73,190.0
3695,G#5,436.667,167/1000,70,190.0
3696,E5,436.833,3/20,67,190.0
3697,E5,437.0,167/1000,67,190.0
3698,C5,437.0,167/1000,67,190.0
3699,A2,437.0,1.0,75,190.0
3700,A1,437.0,1.0,75,190.0
3701,A4,437.167,167/1000,69,190.0
3702,E4,437.333,3/20,64,190.0
3703,A3,437.5,0.5,77,190.0
3704,E4,437.5,0.5,58,190.0
3705,C4,437.5,0.5,58,190.0
3706,E4,438.0,0.25,64,190.0
3707,G#3,438.0,0.25,64,190.0
3708,B3,438.0,0.25,64,190.0
3709,G#1,438.167,167/1000,58,190.0
3710,B1,438.333,167/1000,59,190.0
3711,E2,438.5,167/1000,60,190.0
3712,E6,438.5,1.0,74,190.0
3713,B5,438.5,1.0,74,190.0
3714,G#5,438.5,1.0,74,190.0
3715,E5,438.5,1.0,74,190.0
3716,G#2,438.667,167/1000,61,190.0
3717,B2,438.833,167/1000,62,190.0
3718,E3,439.0,167/1000,64,190.0
3719,G#3,439.167,167/1000,63,190.0
3720,B3,439.333,167/1000,66,190.0
3721,E4,439.5,167/1000,67,190.0
3722,G6,439.5,1.0,74,190.0
3723,D6,439.5,1.0,74,190.0
3724,B5,439.5,1.0,74,190.0
3725,G5,439.5,1.0,74,190.0
3726,G#4,439.667,167/1000,68,190.0
3727,B4,439.833,167/1000,69,190.0
3728,E5,440.0,167/1000,73,190.0
3729,B4,440.167,167/1000,70,190.0
3730,G#4,440.333,167/1000,70,190.0
3731,E4,440.5,167/1000,69,190.0
3732,F6,440.5,1.0,74,190.0
3733,D6,440.5,1.0,74,190.0
3734,B5,440.5,1.0,74,190.0
3735,F5,440.5,1.0,74,190.0
3736,B3,440.667,167/1000,69,190.0
3737,G#3,440.833,167/1000,68,190.0
3738,E3,441.0,167/1000,67,190.0
3739,B2,441.167,167/1000,66,190.0
3740,G#2,441.333,167/1000,64,190.0
3741,E2,441.5,167/1000,63,190.0
3742,E6,441.5,0.5,70,190.0
3743,D6,441.5,0.5,70,190.0
3744,B5,441.5,0.5,70,190.0
3745,E5,441.5,0.5,70,190.0
3746,B1,441.667,167/1000,62,190.0
3747,G#1,441.833,167/1000,61,190.0
3748,A1,442.0,1.0,75,190.0
3749,A2,442.0,1.0,75,190.0
3750,E3,442.167,167/1000,69,190.0
3751,A3,442.333,167/1000,69,190.0
3752,A3,442.5,0.5,79,190.0
3753,E4,442.5,3/20,72,190.0
3754,C4,442.5,3/20,72,190.0
3755,E4,442.667,167/1000,67,190.0
3756,A4,442.833,167/1000,67,190.0
3757,E5,443.0,3/20,73,190.0
3758,C5,443.0,3/20,73,190.0
3759,C3,443.0,1.0,76,190.0
3760,C2,443.0,1.0,76,190.0
3761,E5,443.167,167/1000,69,190.0
3762,A5,443.333,167/1000,68,190.0
3763,C4,443.5,0.5,79,190.0
3764,E6,443.5,167/1000,73,190.0
3765,C6,443.5,167/1000,73,190.0
3766,E6,443.667,167/1000,71,190.0
3767,A6,443.833,167/1000,71,190.0
3768,E7,444.0,167/1000,73,190.0
3769,D7,444.0,167/1000,73,190.0
3770,B2,444.0,1.0,76,190.0
3771,B1,444.0,1.0,76,190.0
3772,G#6,444.167,167/1000,70,190.0
3773,E6,444.333,3/20,70,190.0
3774,B3,444.5,0.5,77,190.0
3775,E6,444.5,167/1000,73,190.0
3776,D6,444.5,167/1000,73,190.0
3777,G#5,444.667,167/1000,70,190.0
3778,E5,444.833,3/20,67,190.0
3779,E5,445.0,167/1000,67,190.0
3780,C5,445.0,167/1000,67,190.0
3781,A2,445.0,1.0,75,190.0
3782,A1,445.0,1.0,75,190.0
3783,A4,445.167,167/1000,69,190.0
3784,E4,445.333,3/20,64,190.0
3785,A3,445.5,0.5,77,190.0
3786,E4,445.5,0.5,58,190.0
3787,C4,445.5,0.5,58,190.0
3788,E4,446.0,0.25,60,190.0
3789,G#3,446.0,0.25,60,190.0
3790,E3,446.0,0.25,63,190.0
3791,E2,446.0,0.25,63,190.0
3792,B2,446.0,0.25,63,190.0
3793,E3,446.25,0.25,51,190.0
3794,E5,446.25,0.25,54,190.0
3795,E4,446.25,0.25,54,190.0
3796,F3,446.5,0.25,52,190.0
3797,F5,446.5,0.25,56,190.0
3798,F4,446.5,0.25,56,190.0
3799,F#3,446.75,0.25,55,190.0
3800,F#5,446.75,0.25,58,190.0
3801,F#4,446.75,0.25,58,190.0
3802,G3,447.0,0.25,57,190.0
3803,G5,447.0,0.25,61,190.0
3804,G4,447.0,0.25,61,190.0
3805,G#3,447.25,0.25,59,190.0
3806,G#5,447.25,0.25,63,190.0
3807,G#4,447.25,0.25,63,190.0
3808,A3,447.5,0.25,61,190.0
3809,A5,447.5,0.25,66,190.0
3810,A4,447.5,0.25,66,190.0
3811,B-3,447.75,0.25,62,190.0
3812,B-5,447.75,0.25,67,190.0
3813,B-4,447.75,0.25,67,190.0
3814,B3,448.0,0.25,64,190.0
3815,B5,448.0,0.25,70,190.0
3816,B4,448.0,0.25,70,190.0
3817,C4,448.25,0.25,67,190.0
3818,C6,448.25,0.25,72,190.0
3819,C5,448.25,0.25,72,190.0
3820,C#4,448.5,0.25,69,190.0
3821,C#6,448.5,0.25,74,190.0
3822,C#5,448.5,0.25,74,190.0
3823,D4,448.75,0.25,71,190.0
3824,D6,448.75,0.25,77,190.0
3825,D5,448.75,0.25,77,190.0
3826,E-4,449.0,0.25,73,190.0
3827,E-6,449.0,0.25,80,190.0
3828,E-5,449.0,0.25,80,190.0
3829,E4,449.25,0.25,75,190.0
3830,E6,449.25,0.25,85,190.0
3831,E5,449.25,0.25,85,190.0
3832,F4,449.5,0.25,73,190.0
3833,F6,449.5,0.25,88,190.0
3834,F5,449.5,0.25,88,190.0
3835,E4,449.75,0.188,67,190.0
3836,E6,449.75,0.188,76,190.0
3837,E5,449.75,0.188,76,190.0
3838,E2,450.0,167/1000,69,190.0
3839,F#2,450.167,167/1000,74,190.0
3840,G#2,450.333,167/1000,79,190.0
3841,A2,450.5,1.0,75,190.0
3842,A1,450.5,1.0,75,190.0
3843,E3,450.667,167/1000,69,190.0
3844,A3,450.833,167/1000,69,190.0
3845,A3,451.0,0.5,79,190.0
3846,E4,451.0,3/20,72,190.0
3847,C4,451.0,3/20,72,190.0
3848,E4,451.167,167/1000,67,190.0
3849,A4,451.333,167/1000,67,190.0
3850,E5,451.5,3/20,73,190.0
3851,C5,451.5,3/20,73,190.0
3852,C3,451.5,1.0,76,190.0
3853,C2,451.5,1.0,76,190.0
3854,E5,451.667,167/1000,69,190.0
3855,A5,451.833,167/1000,68,190.0
3856,C4,452.0,0.5,79,190.0
3857,E6,452.0,3/20,73,190.0
3858,C6,452.0,3/20,73,190.0
3859,E6,452.167,167/1000,71,190.0
3860,A6,452.333,167/1000,71,190.0
3861,E7,452.5,167/1000,73,190.0
3862,D7,452.5,167/1000,73,190.0
3863,B2,452.5,1.0,76,190.0
3864,B1,452.5,1.0,76,190.0
3865,G#6,452.667,167/1000,70,190.0
3866,E6,452.833,167/1000,70,190.0
3867,B3,453.0,0.5,77,190.0
3868,E6,453.0,167/1000,73,190.0
3869,D6,453.0,167/1000,73,190.0
3870,G#5,453.167,167/1000,70,190.0
3871,E5,453.333,3/20,67,190.0
3872,E5,453.5,167/1000,67,190.0
3873,C5,453.5,167/1000,67,190.0
3874,A2,453.5,1.0,75,190.0
3875,A1,453.5,1.0,75,190.0
3876,A4,453.667,167/1000,69,190.0
3877,E4,453.833,3/20,64,190.0
3878,A3,454.0,0.5,77,190.0
3879,E4,454.0,0.5,58,190.0
3880,C4,454.0,0.5,58,190.0
3881,E4,454.5,0.25,64,190.0
3882,G#3,454.5,0.25,64,190.0
3883,B3,454.5,0.25,64,190.0
3884,G#1,454.667,167/1000,58,190.0
3885,B1,454.833,167/1000,59,190.0
3886,E2,455.0,167/1000,60,190.0
3887,E6,455.0,1.0,74,190.0
3888,B5,455.0,1.0,74,190.0
3889,G#5,455.0,1.0,74,190.0
3890,E5,455.0,1.0,74,190.0
3891,G#2,455.167,167/1000,61,190.0
3892,B2,455.333,167/1000,62,190.0
3893,E3,455.5,167/1000,64,190.0
3894,G#3,455.667,167/1000,63,190.0
3895,B3,455.833,167/1000,66,190.0
3896,E4,456.0,167/1000,67,190.0
3897,G6,456.0,1.0,74,190.0
3898,D6,456.0,1.0,74,190.0
3899,B5,456.0,1.0,74,190.0
3900,G5,456.0,1.0,74,190.0
3901,G#4,456.167,167/1000,68,190.0
3902,B4,456.333,167/1000,69,190.0
3903,E5,456.5,167/1000,73,190.0
3904,B4,456.667,167/1000,70,190.0
3905,G#4,456.833,167/1000,70,190.0
3906,E4,457.0,167/1000,69,190.0
3907,F6,457.0,1.0,74,190.0
3908,D6,457.0,1.0,74,190.0
3909,B5,457.0,1.0,74,190.0
3910,F5,457.0,1.0,74,190.0
3911,B3,457.167,167/1000,69,190.0
3912,G#3,457.333,167/1000,68,190.0
3913,E3,457.5,167/1000,67,190.0
3914,B2,457.667,167/1000,66,190.0
3915,G#2,457.833,167/1000,64,190.0
3916,E2,458.0,167/1000,63,190.0
3917,E6,458.0,0.5,70,190.0
3918,D6,458.0,0.5,70,190.0
3919,B5,458.0,0.5,70,190.0
3920,E5,458.0,0.5,70,190.0
3921,B1,458.167,167/1000,62,190.0
3922,G#1,458.333,167/1000,61,190.0
3923,A1,458.5,1.0,75,190.0
3924,A2,458.5,1.0,75,190.0
3925,E3,458.667,167/1000,69,190.0
3926,A3,458.833,167/1000,69,190.0
3927,A3,459.0,0.5,79,190.0
3928,E4,459.0,3/20,72,190.0
3929,C4,459.0,3/20,72,190.0
3930,E4,459.167,167/1000,67,190.0
3931,A4,459.333,167/1000,67,190.0
3932,E5,459.5,3/20,73,190.0
3933,C5,459.5,3/20,73,190.0
3934,C3,459.5,1.0,76,190.0
3935,C2,459.5,1.0,76,190.0
3936,E5,459.667,167/1000,69,190.0
3937,A5,459.833,167/1000,68,190.0
3938,C4,460.0,0.5,79,190.0
3939,E6,460.0,3/20,73,190.0
3940,C6,460.0,3/20,73,190.0
3941,E6,460.167,167/1000,71,190.0
3942,A6,460.333,167/1000,71,190.0
3943,E7,460.5,167/1000,73,190.0
3944,D7,460.5,167/1000,73,190.0
3945,B2,460.5,1.0,76,190.0
3946,B1,460.5,1.0,76,190.0
3947,G#6,460.667,167/1000,70,190.0
3948,E6,460.833,3/20,70,190.0
3949,B3,461.0,0.5,77,190.0
3950,E6,461.0,167/1000,73,190.0
3951,D6,461.0,167/1000,73,190.0
3952,G#5,461.167,167/1000,70,190.0
3953,E5,461.333,3/20,67,190.0
3954,E5,461.5,167/1000,67,190.0
3955,C5,461.5,167/1000,67,190.0
3956,A2,461.5,1.0,75,190.0
3957,A1,461.5,1.0,75,190.0
3958,A4,461.667,167/1000,69,190.0
3959,E4,461.833,3/20,64,190.0
3960,A3,462.0,0.5,77,190.0
3961,E4,462.0,0.5,58,190.0
3962,C4,462.0,0.5,58,190.0
3963,E4,462.5,0.25,60,190.0
3964,G#3,462.5,0.25,60,190.0
3965,E3,462.5,0.25,63,190.0
3966,E2,462.5,0.25,63,190.0
3967,B2,462.5,0.25,63,190.0
3968,E3,462.75,0.25,51,190.0
3969,E5,462.75,0.25,54,190.0
3970,E4,462.75,0.25,54,190.0
3971,F3,463.0,0.25,52,190.0
3972,F5,463.0,0.25,56,190.0
3973,F4,463.0,0.25,56,190.0
3974,F#3,463.25,0.25,55,190.0
3975,F#5,463.25,0.25,58,190.0
3976,F#4,463.25,0.25,58,190.0
3977,G3,463.5,0.25,57,190.0
3978,G5,463.5,0.25,61,190.0
3979,G4,463.5,0.25,61,190.0
3980,G#3,463.75,0.25,59,190.0
3981,G#5,463.75,0.25,63,190.0
3982,G#4,463.75,0.25,63,190.0
3983,A3,464.0,0.25,61,190.0
3984,A5,464.0,0.25,66,190.0
3985,A4,464.0,0.25,66,190.0
3986,B-3,464.25,0.25,62,190.0
3987,B-5,464.25,0.25,67,190.0
3988,B-4,464.25,0.25,67,190.0
3989,B3,464.5,0.25,64,190.0
3990,B5,464.5,0.25,70,190.0
3991,B4,464.5,0.25,70,190.0
3992,C4,464.75,0.25,67,190.0
3993,C6,464.75,0.25,72,190.0
3994,C5,464.75,0.25,72,190.0
3995,C#4,465.0,0.25,69,190.0
3996,C#6,465.0,0.25,74,190.0
3997,C#5,465.0,0.25,74,190.0
3998,D4,465.25,0.25,71,190.0
3999,D6,465.25,0.25,77,190.0
4000,D5,465.25,0.25,77,190.0
4001,E-4,465.5,0.25,73,190.0
4002,E-6,465.5,0.25,80,190.0
4003,E-5,465.5,0.25,80,190.0
4004,E4,465.75,0.25,75,190.0
4005,E6,465.75,0.25,85,190.0
4006,E5,465.75,0.25,85,190.0
4007,F4,466.0,0.25,73,190.0
4008,F6,466.0,0.25,88,190.0
4009,F5,466.0,0.25,88,190.0
4010,E4,466.25,0.25,67,190.0
4011,E6,466.25,0.25,76,190.0
4012,E5,466.25,0.25,76,190.0
4013,A3,466.5,0.5,63,190.0
4014,C#3,466.5,0.5,63,190.0
4015,E3,466.5,0.5,63,190.0
4016,C#4,466.667,167/1000,59,190.0
4017,E4,466.833,167/1000,59,190.0
4018,A4,467.0,3/20,69,190.0
4019,C#2,467.0,0.5,67,190.0
4020,A4,467.167,167/1000,59,190.0
4021,C#5,467.333,167/1000,59,190.0
4022,B-5,467.5,3/20,66,190.0
4023,G5,467.5,3/20,66,190.0
4024,B-3,467.5,0.5,64,190.0
4025,C#3,467.5,0.5,64,190.0
4026,G3,467.5,0.5,64,190.0
4027,B-5,467.667,167/1000,62,190.0
4028,C#6,467.833,167/1000,62,190.0
4029,A2,468.0,0.5,67,190.0
4030,B-6,468.0,167/1000,68,190.0
4031,G6,468.0,167/1000,68,190.0
4032,C#6,468.167,167/1000,66,190.0
4033,B-5,468.333,167/1000,66,190.0
4034,A6,468.5,167/1000,66,190.0
4035,F6,468.5,167/1000,66,190.0
4036,A3,468.5,0.5,66,190.0
4037,C#3,468.5,0.5,66,190.0
4038,F3,468.5,0.5,66,190.0
4039,C#6,468.667,167/1000,64,190.0
4040,A5,468.833,167/1000,64,190.0
4041,C#2,469.0,0.5,67,190.0
4042,A5,469.0,167/1000,64,190.0
4043,F5,469.0,167/1000,64,190.0
4044,C#5,469.167,167/1000,70,190.0
4045,A4,469.333,167/1000,62,190.0
4046,G5,469.5,167/1000,52,190.0
4047,E5,469.5,167/1000,52,190.0
4048,G3,469.5,0.5,67,190.0
4049,C#3,469.5,0.5,67,190.0
4050,E3,469.5,0.5,67,190.0
4051,B-4,469.667,167/1000,68,190.0
4052,A4,469.833,167/1000,63,190.0
4053,A2,470.0,0.5,69,190.0
4054,G4,470.0,167/1000,57,190.0
4055,E4,470.0,167/1000,57,190.0
4056,B-3,470.167,167/1000,61,190.0
4057,A3,470.333,167/1000,59,190.0
4058,D4,470.5,0.25,70,190.0
4059,F4,470.5,0.25,70,190.0
4060,F3,470.5,0.25,69,190.0
4061,D2,470.5,0.25,69,190.0
4062,C#5,471.0,0.188,53,190.0
4063,G4,471.0,0.5,53,190.0
4064,E4,471.0,0.25,40,190.0
4065,G3,471.0,0.25,40,190.0
4066,B-3,471.0,0.25,40,190.0
4067,D5,471.167,0.188,52,190.0
4068,E5,471.333,0.188,53,190.0
4069,F5,471.5,0.188,55,190.0
4070,D5,471.5,0.5,55,190.0
4071,F4,471.5,0.25,42,190.0
4072,A3,471.5,0.25,42,190.0
4073,D4,471.5,0.25,42,190.0
4074,G5,471.667,0.188,56,190.0
4075,A5,471.833,0.188,57,190.0
4076,C#6,472.0,0.188,58,190.0
4077,G5,472.0,0.5,58,190.0
4078,E5,472.0,0.25,43,190.0
4079,G4,472.0,0.25,43,190.0
4080,B-4,472.0,0.25,43,190.0
4081,D6,472.167,0.188,59,190.0
4082,E6,472.333,0.188,59,190.0
4083,F6,472.5,0.188,60,190.0
4084,D6,472.5,0.5,60,190.0
4085,F5,472.5,0.25,44,190.0
4086,A4,472.5,0.25,44,190.0
4087,D5,472.5,0.25,44,190.0
4088,G6,472.667,0.188,61,190.0
4089,A6,472.833,0.188,62,190.0
4090,C#7,473.0,0.188,62,190.0
4091,G6,473.0,0.5,62,190.0
4092,E6,473.0,0.25,45,190.0
4093,B-5,473.0,0.25,45,190.0
4094,G5,473.0,0.25,45,190.0
4095,D7,473.167,0.188,63,190.0
4096,E7,473.333,0.188,64,190.0
4097,F7,473.5,0.25,66,190.0
4098,D7,473.5,0.25,66,190.0
4099,A6,473.5,0.25,66,190.0
4100,F6,473.5,0.25,48,190.0
4101,A5,473.5,0.25,48,190.0
4102,D6,473.5,0.25,48,190.0
4103,G3,474.5,0.5,63,190.0
4104,B2,474.5,0.5,63,190.0
4105,D3,474.5,0.5,63,190.0
4106,B3,474.667,167/1000,59,190.0
4107,D4,474.833,167/1000,59,190.0
4108,G4,475.0,3/20,69,190.0
4109,B1,475.0,0.5,67,190.0
4110,G4,475.167,167/1000,59,190.0
4111,B4,475.333,167/1000,59,190.0
4112,G#5,475.5,3/20,66,190.0
4113,F5,475.5,3/20,66,190.0
4114,G#3,475.5,0.5,64,190.0
4115,B2,475.5,0.5,64,190.0
4116,F3,475.5,0.5,64,190.0
4117,G#5,475.667,167/1000,62,190.0
4118,B5,475.833,167/1000,62,190.0
4119,G2,476.0,0.5,67,190.0
4120,G#6,476.0,167/1000,68,190.0
4121,F6,476.0,167/1000,68,190.0
4122,B5,476.167,167/1000,66,190.0
4123,G#5,476.333,167/1000,66,190.0
4124,G6,476.5,167/1000,66,190.0
4125,E6,476.5,167/1000,66,190.0
4126,G3,476.5,0.5,66,190.0
4127,B2,476.5,0.5,66,190.0
4128,E3,476.5,0.5,66,190.0
4129,B5,476.667,167/1000,64,190.0
4130,G5,476.833,167/1000,64,190.0
4131,B1,477.0,0.5,67,190.0
4132,G5,477.0,167/1000,64,190.0
4133,E5,477.0,167/1000,64,190.0
4134,B4,477.167,167/1000,68,190.0
4135,G4,477.333,167/1000,62,190.0
4136,F5,477.5,167/1000,52,190.0
4137,D5,477.5,167/1000,52,190.0
4138,F3,477.5,0.5,67,190.0
4139,B2,477.5,0.5,67,190.0
4140,D3,477.5,0.5,67,190.0
4141,G#4,477.667,167/1000,68,190.0
4142,G4,477.833,167/1000,63,190.0
4143,G2,478.0,0.5,69,190.0
4144,F4,478.0,167/1000,57,190.0
4145,D4,478.0,167/1000,57,190.0
4146,G#3,478.167,167/1000,61,190.0
4147,G3,478.333,167/1000,59,190.0
4148,C4,478.5,0.25,69,190.0
4149,E4,478.5,0.25,69,190.0
4150,E3,478.5,0.25,67,190.0
4151,C2,478.5,0.25,67,190.0
4152,B4,479.0,0.188,53,190.0
4153,F4,479.0,0.5,53,190.0
4154,D4,479.0,0.25,40,190.0
4155,F3,479.0,0.25,40,190.0
4156,G#3,479.0,0.25,40,190.0
4157,C5,479.167,0.188,52,190.0
4158,D5,479.333,0.188,53,190.0
4159,E5,479.5,0.188,55,190.0
4160,C5,479.5,0.5,55,190.0
4161,E4,479.5,0.25,42,190.0
4162,G3,479.5,0.25,42,190.0
4163,C4,479.5,0.25,42,190.0
4164,F5,479.667,0.188,56,190.0
4165,G5,479.833,0.188,57,190.0
4166,B5,480.0,0.188,58,190.0
4167,F5,480.0,0.5,58,190.0
4168,G#4,480.0,0.25,43,190.0
4169,D5,480.0,0.25,43,190.0
4170,F4,480.0,0.25,43,190.0
4171,C6,480.167,0.188,59,190.0
4172,D6,480.333,0.188,59,190.0
4173,E6,480.5,0.188,60,190.0
4174,C6,480.5,0.5,60,190.0
4175,E5,480.5,0.25,44,190.0
4176,G4,480.5,0.25,44,190.0
4177,C5,480.5,0.25,44,190.0
4178,F6,480.667,0.188,61,190.0
4179,G6,480.833,0.188,62,190.0
4180,B6,481.0,0.188,62,190.0
4181,F6,481.0,0.5,62,190.0
4182,D6,481.0,0.25,45,190.0
4183,G#5,481.0,0.25,45,190.0
4184,F5,481.0,0.25,45,190.0
4185,C7,481.167,0.188,63,190.0
4186,D7,481.333,0.188,64,190.0
4187,E7,481.5,0.25,66,190.0
4188,C7,481.5,0.25,66,190.0
4189,G6,481.5,0.25,66,190.0
4190,E6,481.5,0.25,48,190.0
4191,G5,481.5,0.25,48,190.0
4192,C6,481.5,0.25,48,190.0
4193,C4,482.0,167/1000,67,190.0
4194,C3,482.0,167/1000,61,190.0
4195,D4,482.167,167/1000,70,190.0
4196,D3,482.167,167/1000,66,190.0
4197,E4,482.333,167/1000,71,190.0
4198,E3,482.333,167/1000,69,190.0
4199,F4,482.5,0.5,85,190.0
4200,F3,482.5,0.5,74,190.0
4201,F2,482.5,0.5,74,190.0
4202,F6,483.0,0.5,68,190.0
4203,F5,483.0,0.5,68,190.0
4204,G#4,483.0,0.5,62,190.0
4205,D4,483.0,0.5,62,190.0
4206,B3,483.0,0.5,62,190.0
4207,B5,483.5,0.5,70,190.0
4208,B4,483.5,0.5,70,190.0
4209,G#4,483.5,0.5,62,190.0
4210,D4,483.5,0.5,62,190.0
4211,B3,483.5,0.5,62,190.0
4212,B3,484.0,167/1000,68,190.0
4213,B1,484.0,0.5,66,190.0
4214,B2,484.0,0.5,66,190.0
4215,C4,484.167,167/1000,71,190.0
4216,D4,484.333,167/1000,73,190.0
4217,E-4,484.5,0.5,85,190.0
4218,E-3,484.5,0.5,79,190.0
4219,E-2,484.5,0.5,79,190.0
4220,E-6,485.0,0.5,70,190.0
4221,E-5,485.0,0.5,70,190.0
4222,F#4,485.0,0.5,62,190.0
4223,C4,485.0,0.5,62,190.0
4224,A3,485.0,0.5,62,190.0
4225,A5,485.5,0.5,72,190.0
4226,A4,485.5,0.5,72,190.0
4227,F#4,485.5,0.5,60,190.0
4228,C4,485.5,0.5,60,190.0
4229,A3,485.5,0.5,60,190.0
4230,A3,486.0,167/1000,69,190.0
4231,A1,486.0,0.5,68,190.0
4232,A2,486.0,0.5,68,190.0
4233,B3,486.167,167/1000,72,190.0
4234,C4,486.333,167/1000,75,190.0
4235,C#4,486.5,0.5,89,190.0
4236,C#3,486.5,0.5,79,190.0
4237,C#2,486.5,0.5,79,190.0
4238,C#6,487.0,0.5,72,190.0
4239,C#5,487.0,0.5,72,190.0
4240,E4,487.0,0.5,64,190.0
4241,B-3,487.0,0.5,64,190.0
4242,G3,487.0,0.5,64,190.0
4243,G5,487.5,0.5,74,190.0
4244,G4,487.5,0.5,74,190.0
4245,E4,487.5,0.5,64,190.0
4246,B-3,487.5,0.5,64,190.0
4247,G3,487.5,0.5,64,190.0
4248,G3,488.0,167/1000,70,190.0
4249,G1,488.0,0.5,69,190.0
4250,G2,488.0,0.5,69,190.0
4251,G#3,488.167,167/1000,74,190.0
4252,B-3,488.333,167/1000,77,190.0
4253,B3,488.5,0.5,88,190.0
4254,B2,488.5,0.5,83,190.0
4255,B1,488.5,0.5,83,190.0
4256,B5,489.0,0.5,74,190.0
4257,B4,489.0,0.5,74,190.0
4258,D4,489.0,0.5,65,190.0
4259,G#3,489.0,0.5,65,190.0
4260,F3,489.0,0.5,65,190.0
4261,F5,489.5,0.5,75,190.0
4262,F4,489.5,0.5,75,190.0
4263,D4,489.5,0.5,66,190.0
4264,G#3,489.5,0.5,66,190.0
4265,F3,489.5,0.5,66,190.0
4266,F3,490.0,167/1000,71,190.0
4267,F1,490.0,0.5,71,190.0
4268,F2,490.0,0.5,71,190.0
4269,G#3,490.167,167/1000,75,190.0
4270,B-3,490.333,167/1000,78,190.0
4271,B3,490.5,0.5,91,190.0
4272,B2,490.5,0.5,85,190.0
4273,B1,490.5,0.5,85,190.0
4274,B5,491.0,0.5,75,190.0
4275,B4,491.0,0.5,75,190.0
4276,D4,491.0,0.5,66,190.0
4277,A3,491.0,0.5,66,190.0
4278,F3,491.0,0.5,66,190.0
4279,F5,491.5,0.5,76,190.0
4280,F4,491.5,0.5,76,190.0
4281,D4,491.5,0.5,67,190.0
4282,A3,491.5,0.5,67,190.0
4283,F3,491.5,0.5,67,190.0
4284,F3,492.0,167/1000,73,190.0
4285,F1,492.0,0.5,73,190.0
4286,F2,492.0,0.5,73,190.0
4287,A3,492.167,167/1000,78,190.0
4288,B-3,492.333,167/1000,79,190.0
4289,B3,492.5,0.5,94,190.0
4290,B2,492.5,0.5,86,190.0
4291,B1,492.5,0.5,86,190.0
4292,B5,493.0,0.5,76,190.0
4293,B4,493.0,0.5,76,190.0
4294,E-4,493.0,0.5,68,190.0
4295,A3,493.0,0.5,68,190.0
4296,F3,493.0,0.5,68,190.0
4297,F5,493.5,0.5,78,190.0
4298,F4,493.5,0.5,78,190.0
4299,E-4,493.5,0.5,68,190.0
4300,A3,493.5,0.5,68,190.0
4301,F3,493.5,0.5,68,190.0
4302,A3,494.0,167/1000,92,190.0
4303,A2,494.0,167/1000,79,190.0
4304,G3,494.167,167/1000,95,190.0
4305,G2,494.167,167/1000,82,190.0
4306,F3,494.333,167/1000,99,190.0
4307,F2,494.333,167/1000,85,190.0
4308,E3,494.5,0.5,106,190.0
4309,E2,494.5,0.5,89,190.0
4310,B5,495.5,0.5,84,190.0
4311,A5,495.5,0.5,84,190.0
4312,E5,495.5,0.5,84,190.0
4313,B4,495.5,0.5,84,190.0
4314,E4,495.5,0.5,74,190.0
4315,B3,495.5,0.5,74,190.0
4316,A3,495.5,0.5,74,190.0
4317,E3,495.5,0.5,74,190.0
4318,E4,496.5,0.5,96,190.0
4319,E3,496.5,0.5,82,190.0
4320,E2,496.5,0.5,82,190.0
4321,E6,497.5,0.5,82,190.0
4322,B5,497.5,0.5,82,190.0
4323,G#5,497.5,0.5,82,190.0
4324,E5,497.5,0.5,82,190.0
4325,E4,497.5,0.5,74,190.0
4326,B3,497.5,0.5,74,190.0
4327,G#3,497.5,0.5,74,190.0
4328,E3,497.5,0.5,74,190.0
4329,A2,498.5,0.5,77,190.0
4330,A1,498.5,0.5,77,190.0
4331,C2,498.5,0.5,77,190.0
4332,E2,498.5,0.5,77,190.0
4333,E3,498.667,167/1000,59,190.0
4334,A3,498.833,167/1000,59,190.0
4335,E4,499.0,3/20,69,190.0
4336,C4,499.0,3/20,69,190.0
4337,E4,499.167,167/1000,59,190.0
4338,A3,499.25,0.25,78,190.0
4339,A4,499.333,167/1000,59,190.0
4340,A3,499.5,0.25,82,190.0
4341,E5,499.5,3/20,66,190.0
4342,C5,499.5,3/20,66,190.0
4343,E5,499.667,167/1000,62,190.0
4344,C4,499.75,0.25,79,190.0
4345,A5,499.833,167/1000,62,190.0
4346,B3,500.0,0.25,83,190.0
4347,E6,500.0,3/20,68,190.0
4348,C6,500.0,3/20,68,190.0
4349,E6,500.167,167/1000,66,190.0
4350,A3,500.25,0.25,79,190.0
4351,A6,500.333,167/1000,66,190.0
4352,E4,500.5,0.5,85,190.0
4353,E7,500.5,167/1000,66,190.0
4354,C7,500.5,167/1000,66,190.0
4355,A6,500.667,167/1000,64,190.0
4356,E6,500.833,3/20,64,190.0
4357,E6,501.0,167/1000,64,190.0
4358,C6,501.0,167/1000,64,190.0
4359,A5,501.167,167/1000,66,190.0
4360,E2,501.25,0.25,80,190.0
4361,E5,501.333,3/20,62,190.0
4362,E2,501.5,0.25,85,190.0
4363,E5,501.5,167/1000,52,190.0
4364,C5,501.5,167/1000,52,190.0
4365,A4,501.667,167/1000,68,190.0
4366,G2,501.75,0.25,80,190.0
4367,E4,501.833,3/20,63,190.0
4368,F2,502.0,0.25,86,190.0
4369,E4,502.0,167/1000,57,190.0
4370,C4,502.0,167/1000,57,190.0
4371,A3,502.167,167/1000,61,190.0
4372,E2,502.25,0.25,80,190.0
4373,E3,502.333,167/1000,59,190.0
4374,A2,502.5,0.5,77,190.0
4375,A1,502.5,0.5,77,190.0
4376,C#2,502.5,0.5,77,190.0
4377,E2,502.5,0.5,77,190.0
4378,E3,502.667,167/1000,59,190.0
4379,A3,502.833,167/1000,59,190.0
4380,E4,503.0,3/20,69,190.0
4381,C#4,503.0,3/20,69,190.0
4382,E4,503.167,167/1000,59,190.0
4383,A3,503.25,0.25,79,190.0
4384,A4,503.333,167/1000,59,190.0
4385,A3,503.5,0.25,83,190.0
4386,E5,503.5,3/20,66,190.0
4387,C#5,503.5,3/20,66,190.0
4388,E5,503.667,167/1000,62,190.0
4389,C4,503.75,0.25,78,190.0
4390,A5,503.833,167/1000,62,190.0
4391,B-3,504.0,0.25,82,190.0
4392,E6,504.0,3/20,68,190.0
4393,C#6,504.0,3/20,68,190.0
4394,E6,504.167,167/1000,66,190.0
4395,A3,504.25,0.25,79,190.0
4396,A6,504.333,167/1000,66,190.0
4397,G4,504.5,0.5,83,190.0
4398,E7,504.5,167/1000,66,190.0
4399,C#7,504.5,167/1000,66,190.0
4400,A6,504.667,167/1000,64,190.0
4401,E6,504.833,3/20,64,190.0
4402,E6,505.0,167/1000,64,190.0
4403,C#6,505.0,167/1000,64,190.0
4404,A5,505.167,167/1000,66,190.0
4405,A2,505.25,0.25,81,190.0
4406,E5,505.333,3/20,62,190.0
4407,A2,505.5,0.25,86,190.0
4408,E5,505.5,167/1000,52,190.0
4409,C#5,505.5,167/1000,52,190.0
4410,A4,505.667,167/1000,68,190.0
4411,C3,505.75,0.25,81,190.0
4412,E4,505.833,3/20,63,190.0
4413,B-2,506.0,0.25,86,190.0
4414,E4,506.0,167/1000,57,190.0
4415,C#4,506.0,167/1000,57,190.0
4416,A3,506.167,167/1000,61,190.0
4417,A2,506.25,0.25,79,190.0
4418,E3,506.333,167/1000,59,190.0
4419,A2,506.5,0.5,77,190.0
4420,D3,506.5,0.5,77,190.0
4421,D2,506.5,0.5,77,190.0
4422,F2,506.5,0.5,77,190.0
4423,F3,506.667,167/1000,59,190.0
4424,A3,506.833,167/1000,59,190.0
4425,F4,507.0,3/20,69,190.0
4426,D4,507.0,3/20,69,190.0
4427,F4,507.167,167/1000,59,190.0
4428,A3,507.25,0.25,79,190.0
4429,A4,507.333,167/1000,59,190.0
4430,A3,507.5,0.25,83,190.0
4431,F5,507.5,3/20,66,190.0
4432,D5,507.5,3/20,66,190.0
4433,F5,507.667,167/1000,62,190.0
4434,C4,507.75,0.25,77,190.0
4435,A5,507.833,167/1000,62,190.0
4436,B-3,508.0,0.25,82,190.0
4437,F6,508.0,3/20,68,190.0
4438,D6,508.0,3/20,68,190.0
4439,F6,508.167,167/1000,66,190.0
4440,A3,508.25,0.25,73,190.0
4441,A6,508.333,167/1000,66,190.0
4442,F4,508.5,0.5,85,190.0
4443,F7,508.5,167/1000,66,190.0
4444,D7,508.5,167/1000,66,190.0
4445,A6,508.667,167/1000,64,190.0
4446,F6,508.833,3/20,64,190.0
4447,F6,509.0,167/1000,64,190.0
4448,D6,509.0,167/1000,64,190.0
4449,A5,509.167,167/1000,66,190.0
4450,D2,509.25,0.25,81,190.0
4451,F5,509.333,3/20,62,190.0
4452,D2,509.5,0.25,89,190.0
4453,F5,509.5,167/1000,52,190.0
4454,D5,509.5,167/1000,52,190.0
4455,A4,509.667,167/1000,68,190.0
4456,C#2,509.75,0.25,82,190.0
4457,F4,509.833,3/20,63,190.0
4458,D2,510.0,0.25,88,190.0
4459,F4,510.0,167/1000,64,190.0
4460,D4,510.0,167/1000,64,190.0
4461,A3,510.167,167/1000,64,190.0
4462,E2,510.25,0.25,80,190.0
4463,F3,510.333,167/1000,67,190.0
4464,F3,510.5,1.0,82,190.0
4465,F2,510.5,1.0,82,190.0
4466,B5,511.0,0.5,76,190.0
4467,B4,511.0,0.5,76,190.0
4468,D5,511.0,0.5,76,190.0
4469,F4,511.0,0.5,72,190.0
4470,G#3,511.0,0.5,72,190.0
4471,D4,511.0,0.5,72,190.0
4472,G#3,511.5,1.0,82,190.0
4473,G#2,511.5,1.0,82,190.0
4474,D6,512.0,0.5,76,190.0
4475,D5,512.0,0.5,76,190.0
4476,F5,512.0,0.5,76,190.0
4477,G#4,512.0,0.5,73,190.0
4478,F4,512.0,0.5,73,190.0
4479,B3,512.0,0.5,73,190.0
4480,B3,512.5,1.0,82,190.0
4481,B2,512.5,1.0,82,190.0
4482,F6,513.0,0.5,76,190.0
4483,F5,513.0,0.5,76,190.0
4484,G#5,513.0,0.5,76,190.0
4485,B4,513.0,0.5,72,190.0
4486,G#4,513.0,0.5,72,190.0
4487,D4,513.0,0.5,72,190.0
4488,E3,513.5,1.0,84,190.0
4489,E2,513.5,1.0,84,190.0
4490,E6,514.0,0.5,76,190.0
4491,E5,514.0,0.5,76,190.0
4492,G#5,514.0,0.5,76,190.0
4493,E4,514.0,0.5,74,190.0
4494,B3,514.0,0.5,74,190.0
4495,G#3,514.0,0.5,74,190.0
4496,A2,514.5,0.5,77,190.0
4497,A1,514.5,0.5,77,190.0
4498,C2,514.5,0.5,77,190.0
4499,E2,514.5,0.5,77,190.0
4500,E3,514.667,167/1000,59,190.0
4501,A3,514.833,167/1000,59,190.0
4502,E4,515.0,3/20,69,190.0
4503,C4,515.0,3/20,69,190.0
4504,E4,515.167,167/1000,59,190.0
4505,A3,515.25,0.25,79,190.0
4506,A4,515.333,167/1000,59,190.0
4507,A3,515.5,0.25,84,190.0
4508,E5,515.5,3/20,66,190.0
4509,C5,515.5,3/20,66,190.0
4510,E5,515.667,167/1000,62,190.0
4511,C4,515.75,0.25,79,190.0
4512,A5,515.833,167/1000,62,190.0
4513,B3,516.0,0.25,86,190.0
4514,E6,516.0,3/20,68,190.0
4515,C6,516.0,3/20,68,190.0
4516,E6,516.167,167/1000,66,190.0
4517,A3,516.25,0.25,79,190.0
4518,A6,516.333,167/1000,66,190.0
4519,E4,516.5,0.5,88,190.0
4520,E7,516.5,167/1000,66,190.0
4521,C7,516.5,167/1000,66,190.0
4522,A6,516.667,167/1000,64,190.0
4523,E6,516.833,3/20,64,190.0
4524,E6,517.0,167/1000,64,190.0
4525,C6,517.0,167/1000,64,190.0
4526,A5,517.167,167/1000,66,190.0
4527,E2,517.25,0.25,80,190.0
4528,E5,517.333,3/20,62,190.0
4529,E2,517.5,0.25,85,190.0
4530,E5,517.5,167/1000,52,190.0
4531,C5,517.5,167/1000,52,190.0
4532,A4,517.667,167/1000,68,190.0
4533,G2,517.75,0.25,80,190.0
4534,E4,517.833,3/20,63,190.0
4535,F2,518.0,0.25,86,190.0
4536,E4,518.0,167/1000,57,190.0
4537,C4,518.0,167/1000,57,190.0
4538,A3,518.167,167/1000,61,190.0
4539,E2,518.25,0.25,80,190.0
4540,E3,518.333,167/1000,59,190.0
4541,A2,518.5,0.5,77,190.0
4542,A1,518.5,0.5,77,190.0
4543,C#2,518.5,0.5,77,190.0
4544,E2,518.5,0.5,77,190.0
4545,E3,518.667,167/1000,59,190.0
4546,A3,518.833,167/1000,59,190.0
4547,E4,519.0,3/20,69,190.0
4548,C#4,519.0,3/20,69,190.0
4549,E4,519.167,167/1000,59,190.0
4550,A3,519.25,0.25,79,190.0
4551,A4,519.333,167/1000,59,190.0
4552,A3,519.5,0.25,83,190.0
4553,E5,519.5,3/20,66,190.0
4554,C#5,519.5,3/20,66,190.0
4555,E5,519.667,167/1000,62,190.0
4556,C4,519.75,0.25,79,190.0
4557,A5,519.833,167/1000,62,190.0
4558,B-3,520.0,0.25,82,190.0
4559,E6,520.0,3/20,68,190.0
4560,C#6,520.0,3/20,68,190.0
4561,E6,520.167,167/1000,66,190.0
4562,A3,520.25,0.25,78,190.0
4563,A6,520.333,167/1000,66,190.0
4564,G4,520.5,0.5,84,190.0
4565,E7,520.5,167/1000,66,190.0
4566,C#7,520.5,167/1000,66,190.0
4567,A6,520.667,167/1000,64,190.0
4568,E6,520.833,3/20,64,190.0
4569,E6,521.0,167/1000,64,190.0
4570,C#6,521.0,167/1000,64,190.0
4571,A5,521.167,167/1000,66,190.0
4572,A2,521.25,0.25,81,190.0
4573,E5,521.333,3/20,62,190.0
4574,A2,521.5,0.25,86,190.0
4575,E5,521.5,167/1000,52,190.0
4576,C#5,521.5,167/1000,52,190.0
4577,A4,521.667,167/1000,68,190.0
4578,C3,521.75,0.25,81,190.0
4579,E4,521.833,3/20,63,190.0
4580,B-2,522.0,0.25,86,190.0
4581,E4,522.0,167/1000,57,190.0
4582,C#4,522.0,167/1000,57,190.0
4583,A3,522.167,167/1000,61,190.0
4584,A2,522.25,0.25,79,190.0
4585,E3,522.333,167/1000,59,190.0
4586,A2,522.5,0.5,77,190.0
4587,D3,522.5,0.5,77,190.0
4588,D2,522.5,0.5,77,190.0
4589,F2,522.5,0.5,77,190.0
4590,F3,522.667,167/1000,59,190.0
4591,A3,522.833,167/1000,59,190.0
4592,F4,523.0,3/20,69,190.0
4593,D4,523.0,3/20,69,190.0
4594,F4,523.167,167/1000,59,190.0
4595,A3,523.25,0.25,80,190.0
4596,A4,523.333,167/1000,59,190.0
4597,A3,523.5,0.25,83,190.0
4598,F5,523.5,3/20,66,190.0
4599,D5,523.5,3/20,66,190.0
4600,F5,523.667,167/1000,62,190.0
4601,C4,523.75,0.25,79,190.0
4602,A5,523.833,167/1000,62,190.0
4603,B-3,524.0,0.25,83,190.0
4604,F6,524.0,3/20,68,190.0
4605,D6,524.0,3/20,68,190.0
4606,F6,524.167,167/1000,66,190.0
4607,A3,524.25,0.25,77,190.0
4608,A6,524.333,167/1000,66,190.0
4609,F4,524.5,0.5,82,190.0
4610,F7,524.5,167/1000,66,190.0
4611,D7,524.5,167/1000,66,190.0
4612,A6,524.667,167/1000,64,190.0
4613,F6,524.833,3/20,64,190.0
4614,F6,525.0,167/1000,64,190.0
4615,D6,525.0,167/1000,64,190.0
4616,A5,525.167,167/1000,66,190.0
4617,D2,525.25,0.25,81,190.0
4618,F5,525.333,3/20,62,190.0
4619,D2,525.5,0.25,89,190.0
4620,F5,525.5,167/1000,52,190.0
4621,D5,525.5,167/1000,52,190.0
4622,A4,525.667,167/1000,68,190.0
4623,C#2,525.75,0.25,82,190.0
4624,F4,525.833,3/20,63,190.0
4625,D2,526.0,0.25,88,190.0
4626,F4,526.0,167/1000,64,190.0
4627,D4,526.0,167/1000,64,190.0
4628,A3,526.167,167/1000,64,190.0
4629,E2,526.25,0.25,80,190.0
4630,F3,526.333,167/1000,67,190.0
4631,F3,526.5,1.0,82,190.0
4632,F2,526.5,1.0,82,190.0
4633,B5,527.0,0.5,76,190.0
4634,B4,527.0,0.5,76,190.0
4635,D5,527.0,0.5,76,190.0
4636,F4,527.0,0.5,72,190.0
4637,G#3,527.0,0.5,72,190.0
4638,D4,527.0,0.5,72,190.0
4639,G#3,527.5,1.0,82,190.0
4640,G#2,527.5,1.0,82,190.0
4641,D6,528.0,0.5,76,190.0
4642,D5,528.0,0.5,76,190.0
4643,F5,528.0,0.5,76,190.0
4644,G#4,528.0,247/500,73,190.0
4645,F4,528.0,247/500,73,190.0
4646,B3,528.0,247/500,73,190.0
4647,B3,528.5,1.0,82,190.0
4648,B2,528.5,1.0,82,190.0
4649,F6,529.0,0.5,76,190.0
4650,F5,529.0,0.5,76,190.0
4651,G#5,529.0,0.5,76,190.0
4652,B4,529.0,0.5,72,190.0
4653,G#4,529.0,0.5,72,190.0
4654,D4,529.0,0.5,72,190.0
4655,E3,529.5,1.0,84,190.0
4656,E2,529.5,1.0,84,190.0
4657,E6,530.0,0.5,76,190.0
4658,E5,530.0,0.5,76,190.0
4659,G#5,530.0,0.5,76,190.0
4660,E4,530.0,0.5,74,190.0
4661,B3,530.0,0.5,74,190.0
4662,G#3,530.0,0.5,74,190.0
4663,A2,530.5,2.0,97,190.0
4664,A1,530.5,2.0,88,190.0
4665,C#3,530.667,167/1000,67,190.0
4666,C#2,530.667,167/1000,61,190.0
4667,E3,530.833,167/1000,69,190.0
4668,E2,530.833,167/1000,62,190.0
4669,A3,531.0,167/1000,69,190.0
4670,A2,531.0,167/1000,63,190.0
4671,C#4,531.167,167/1000,71,190.0
4672,C#3,531.167,167/1000,63,190.0
4673,E4,531.333,167/1000,72,190.0
4674,E3,531.333,167/1000,64,190.0
4675,A4,531.5,167/1000,74,190.0
4676,A3,531.5,167/1000,66,190.0
4677,C#5,531.667,167/1000,77,190.0
4678,C#4,531.667,167/1000,67,190.0
4679,E5,531.833,167/1000,78,190.0
4680,E4,531.833,167/1000,68,190.0
4681,A5,532.0,167/1000,79,190.0
4682,A4,532.0,167/1000,69,190.0
4683,C#6,532.167,167/1000,80,190.0
4684,C#5,532.167,167/1000,69,190.0
4685,E6,532.333,167/1000,82,190.0
4686,E5,532.333,167/1000,69,190.0
4687,A6,532.5,167/1000,95,190.0
4688,A5,532.5,167/1000,80,190.0
4689,E6,532.667,167/1000,84,190.0
4690,E5,532.667,167/1000,70,190.0
4691,C#6,532.833,167/1000,84,190.0
4692,C#5,532.833,167/1000,70,190.0
4693,A5,533.0,167/1000,83,190.0
4694,A4,533.0,167/1000,69,190.0
4695,E5,533.167,167/1000,81,190.0
4696,E4,533.167,167/1000,69,190.0
4697,C#5,533.333,167/1000,80,190.0
4698,C#4,533.333,167/1000,68,190.0
4699,A4,533.5,167/1000,79,190.0
4700,A3,533.5,167/1000,67,190.0
4701,E4,533.667,167/1000,78,190.0
4702,E3,533.667,167/1000,66,190.0
4703,C#4,533.833,167/1000,75,190.0
4704,C#3,533.833,167/1000,64,190.0
4705,A3,534.0,167/1000,74,190.0
4706,A2,534.0,167/1000,63,190.0
4707,E3,534.167,167/1000,72,190.0
4708,E2,534.167,167/1000,63,190.0
4709,C#3,534.333,167/1000,71,190.0
4710,C#2,534.333,167/1000,61,190.0
4711,A2,534.5,2.0,99,190.0
4712,A1,534.5,2.0,85,190.0
4713,C#3,534.667,167/1000,68,190.0
4714,C#2,534.667,167/1000,56,190.0
4715,E3,534.833,167/1000,69,190.0
4716,E2,534.833,167/1000,58,190.0
4717,A3,535.0,167/1000,71,190.0
4718,A2,535.0,167/1000,59,190.0
4719,C#4,535.167,167/1000,72,190.0
4720,C#3,535.167,167/1000,60,190.0
4721,E4,535.333,167/1000,74,190.0
4722,E3,535.333,167/1000,62,190.0
4723,A4,535.5,167/1000,77,190.0
4724,A3,535.5,167/1000,64,190.0
4725,C#5,535.667,167/1000,79,190.0
4726,C#4,535.667,167/1000,67,190.0
4727,E5,535.833,167/1000,80,190.0
4728,E4,535.833,167/1000,69,190.0
4729,A5,536.0,0.125,82,190.0
4730,A4,536.0,0.125,70,190.0
4731,C#6,536.125,0.125,83,190.0
4732,C#5,536.125,0.125,71,190.0
4733,E6,536.25,0.125,85,190.0
4734,E5,536.25,0.125,72,190.0
4735,A6,536.375,0.125,86,190.0
4736,A5,536.375,0.125,74,190.0
4737,C#7,536.5,0.125,88,190.0
4738,C#6,536.5,0.125,75,190.0
4739,A6,536.625,0.125,86,190.0
4740,A5,536.625,0.125,74,190.0
4741,E6,536.75,0.125,86,190.0
4742,E5,536.75,0.125,73,190.0
4743,C#6,536.875,0.125,84,190.0
4744,C#5,536.875,0.125,72,190.0
4745,A5,537.0,167/1000,82,190.0
4746,A4,537.0,167/1000,70,190.0
4747,E5,537.167,167/1000,81,190.0
4748,E4,537.167,167/1000,69,190.0
4749,C#5,537.333,167/1000,79,190.0
4750,C#4,537.333,167/1000,69,190.0
4751,A4,537.5,167/1000,79,190.0
4752,A3,537.5,167/1000,67,190.0
4753,E4,537.667,167/1000,77,190.0
4754,E3,537.667,167/1000,64,190.0
4755,C#4,537.833,167/1000,74,190.0
4756,C#3,537.833,167/1000,63,190.0
4757,A3,538.0,167/1000,73,190.0
4758,A2,538.0,167/1000,61,190.0
4759,E3,538.167,167/1000,71,190.0
4760,E2,538.167,167/1000,60,190.0
4761,C#3,538.333,167/1000,70,190.0
4762,C#2,538.333,167/1000,59,190.0
4763,A2,538.5,2.0,97,190.0
4764,A1,538.5,2.0,88,190.0
4765,C#3,538.667,167/1000,71,190.0
4766,C#2,538.667,167/1000,59,190.0
4767,E3,538.833,167/1000,69,190.0
4768,E2,538.833,167/1000,59,190.0
4769,A3,539.0,167/1000,70,190.0
4770,A2,539.0,167/1000,61,190.0
4771,C#4,539.167,167/1000,71,190.0
4772,C#3,539.167,167/1000,62,190.0
4773,E4,539.333,167/1000,73,190.0
4774,E3,539.333,167/1000,63,190.0
4775,A4,539.5,167/1000,75,190.0
4776,A3,539.5,167/1000,66,190.0
4777,C#5,539.667,167/1000,77,190.0
4778,C#4,539.667,167/1000,67,190.0
4779,E5,539.833,167/1000,79,190.0
4780,E4,539.833,167/1000,69,190.0
4781,A5,540.0,167/1000,80,190.0
4782,A4,540.0,167/1000,69,190.0
4783,C#6,540.167,167/1000,81,190.0
4784,C#5,540.167,167/1000,71,190.0
4785,E6,540.333,167/1000,86,190.0
4786,E5,540.333,167/1000,72,190.0
4787,A6,540.5,1/5,89,190.0
4788,A5,540.5,1/5,74,190.0
4789,C#7,540.7,1/5,89,190.0
4790,C#6,540.7,1/5,75,190.0
4791,F7,540.9,1/5,92,190.0
4792,F6,540.9,1/5,78,190.0
4793,E7,541.1,1/5,91,190.0
4794,E6,541.1,1/5,77,190.0
4795,C#7,541.3,1/5,89,190.0
4796,C#6,541.3,1/5,77,190.0
4797,A6,541.508,167/1000,88,190.0
4798,A5,541.508,167/1000,74,190.0
4799,E6,541.675,167/1000,84,190.0
4800,E5,541.675,167/1000,72,190.0
4801,C#6,541.842,167/1000,83,190.0
4802,C#5,541.842,167/1000,71,190.0
4803,A5,542.008,167/1000,82,190.0
4804,A4,542.008,167/1000,69,190.0
4805,E5,542.175,167/1000,81,190.0
4806,E4,542.175,167/1000,69,190.0
4807,C#5,542.342,167/1000,79,190.0
4808,C#4,542.342,167/1000,67,190.0
4809,A4,542.508,167/1000,79,190.0
4810,A3,542.508,167/1000,66,190.0
4811,E4,542.675,167/1000,78,190.0
4812,E3,542.675,167/1000,63,190.0
4813,C#4,542.842,167/1000,77,190.0
4814,C#3,542.842,167/1000,62,190.0
4815,A3,543.008,167/1000,75,190.0
4816,A2,543.008,167/1000,60,190.0
4817,E3,543.175,167/1000,74,190.0
4818,E2,543.175,167/1000,59,190.0
4819,C#3,543.342,79/500,73,190.0
4820,C#2,543.342,79/500,58,190.0
4821,A2,543.5,81/500,77,190.0
4822,C#3,543.5,1/125,73,190.0
4823,A1,543.5,81/500,67,190.0
4824,C#2,543.5,1/125,58,190.0
4825,B-2,543.625,81/500,69,190.0
4826,B-1,543.625,81/500,59,190.0
4827,A2,543.75,81/500,77,190.0
4828,A1,543.75,81/500,64,190.0
4829,B-2,543.875,81/500,70,190.0
4830,B-1,543.875,81/500,58,190.0
4831,A2,544.0,81/500,79,190.0
4832,A1,544.0,81/500,64,190.0
4833,B-2,544.125,81/500,69,190.0
4834,B-1,544.125,81/500,58,190.0
4835,A2,544.25,81/500,77,190.0
4836,A1,544.25,81/500,64,190.0
4837,B-2,544.375,81/500,70,190.0
4838,B-1,544.375,81/500,58,190.0
4839,A2,544.5,81/500,78,190.0
4840,A1,544.5,81/500,64,190.0
4841,B-2,544.625,81/500,69,190.0
4842,B-1,544.625,81/500,58,190.0
4843,A2,544.75,81/500,73,190.0
4844,A1,544.75,81/500,66,190.0
4845,B-2,544.875,81/500,70,190.0
4846,B-1,544.875,81/500,59,190.0
4847,A2,545.0,81/500,75,190.0
4848,A1,545.0,81/500,66,190.0
4849,B-2,545.125,81/500,70,190.0
4850,B-1,545.125,81/500,60,190.0
4851,A2,545.25,81/500,77,190.0
4852,A1,545.25,81/500,66,190.0
4853,B-2,545.375,81/500,74,190.0
4854,B-1,545.375,81/500,59,190.0
4855,A2,545.5,0.125,79,190.0
4856,A1,545.5,0.125,62,190.0
4857,B-2,545.625,0.125,79,190.0
4858,B-1,545.625,0.125,64,190.0
4859,B2,545.75,0.125,80,190.0
4860,B1,545.75,0.125,67,190.0
4861,C3,545.875,0.125,83,190.0
4862,C2,545.875,0.125,69,190.0
4863,C#3,546.0,0.125,85,190.0
4864,C#2,546.0,0.125,71,190.0
4865,D3,546.125,0.125,88,190.0
4866,D2,546.125,0.125,73,190.0
4867,E-3,546.25,0.125,89,190.0
4868,E-2,546.25,0.125,75,190.0
4869,E3,546.375,0.125,91,190.0
4870,E2,546.375,0.125,78,190.0
4871,F3,546.5,0.125,94,190.0
4872,F2,546.5,0.125,80,190.0
4873,E3,546.625,0.125,96,190.0
4874,E2,546.625,0.125,81,190.0
4875,E-3,546.75,0.125,97,190.0
4876,E-2,546.75,0.125,80,190.0
4877,D3,546.875,0.125,96,190.0
4878,D2,546.875,0.125,80,190.0
4879,C#3,547.0,0.125,94,190.0
4880,C#2,547.0,0.125,79,190.0
4881,C3,547.125,0.125,93,190.0
4882,C2,547.125,0.125,79,190.0
4883,B2,547.25,0.125,92,190.0
4884,B1,547.25,0.125,79,190.0
4885,B-2,547.375,0.125,90,190.0
4886,B-1,547.375,0.125,78,190.0
4887,A2,547.5,0.5,105,190.0
4888,A1,547.5,0.5,89,190.0
4889,A5,548.5,0.5,91,190.0
4890,E5,548.5,0.5,91,190.0
4891,C#5,548.5,0.5,91,190.0
4892,A4,548.5,0.5,91,190.0
4893,A3,548.5,0.5,75,190.0
4894,E3,548.5,0.5,75,190.0
4895,C#3,548.5,0.5,75,190.0
4896,A2,548.5,0.5,75,190.0
4897,A6,549.5,0.5,91,190.0
4898,E6,549.5,0.5,91,190.0
4899,C#6,549.5,0.5,91,190.0
4900,A5,549.5,0.5,91,190.0
4901,A4,549.5,0.5,75,190.0
4902,E4,549.5,0.5,75,190.0
4903,C#4,549.5,0.5,75,190.0
4904,A3,549.5,0.5,75,190.0
