,note_name,start_time,duration,velocity,tempo
0,F#3,0.0,0.125,43,102.39
1,F#3,0.25,0.125,39,102.39
2,F#3,0.5,0.125,40,102.39
3,F#3,0.75,0.125,37,102.39
4,F#3,1.0,0.125,40,102.39
5,F#3,1.25,0.125,37,102.39
6,F#3,1.5,0.125,36,102.39
7,E4,1.5,0.125,36,102.39
8,C#4,1.5,0.125,36,102.39
9,F#3,1.75,0.125,32,102.39
10,C#4,1.75,0.125,32,102.39
11,E4,1.75,0.125,32,102.39
12,E4,2.0,0.125,35,102.39
13,C#4,2.0,0.125,35,102.39
14,F#3,2.0,0.125,35,102.39
15,F#3,2.25,0.125,32,102.39
16,C#4,2.25,0.125,32,102.39
17,E4,2.25,0.125,32,102.39
18,F#4,2.5,0.25,50,102.39
19,E4,2.5,0.125,35,102.39
20,C#4,2.5,0.125,35,102.39
21,F#3,2.5,0.125,35,102.39
22,F#3,2.75,0.125,33,102.39
23,C#4,2.75,0.125,33,102.39
24,E4,2.75,0.125,33,102.39
25,F#4,3.0,0.5,56,102.39
26,B-2,3.0,0.125,40,102.39
27,F#3,3.25,0.125,36,102.39
28,C#4,3.25,0.125,36,102.39
29,E4,3.25,0.125,36,102.39
30,G#4,3.5,0.125,58,102.39
31,F#3,3.5,0.125,40,102.39
32,C#4,3.5,0.125,40,102.39
33,E4,3.5,0.125,40,102.39
34,B-4,3.75,0.125,59,102.39
35,F#3,3.75,0.125,43,102.39
36,C#4,3.75,0.125,43,102.39
37,E4,3.75,0.125,43,102.39
38,B4,4.0,0.125,63,102.39
39,F#3,4.0,0.125,46,102.39
40,C#4,4.0,0.125,46,102.39
41,E4,4.0,0.125,46,102.39
42,C#5,4.25,0.125,66,102.39
43,F#3,4.25,0.125,50,102.39
44,C#4,4.25,0.125,50,102.39
45,E4,4.25,0.125,50,102.39
46,D5,4.5,0.5,74,102.39
47,B2,4.5,0.125,60,102.39
48,D4,4.75,0.125,37,102.39
49,B3,4.75,0.125,37,102.39
50,F#3,4.75,0.125,37,102.39
51,B-4,5.0,0.5,63,102.39
52,F#3,5.0,0.125,45,102.39
53,B3,5.0,0.125,45,102.39
54,D4,5.0,0.125,45,102.39
55,F#3,5.25,0.125,42,102.39
56,B3,5.25,0.125,42,102.39
57,D4,5.25,0.125,42,102.39
58,B4,5.5,0.5,64,102.39
59,D4,5.5,0.125,48,102.39
60,B3,5.5,0.125,48,102.39
61,F#3,5.5,0.125,48,102.39
62,F#3,5.75,0.125,46,102.39
63,B3,5.75,0.125,46,102.39
64,D4,5.75,0.125,46,102.39
65,E5,6.0,0.5,76,102.39
66,G2,6.0,0.125,67,102.39
67,E4,6.25,0.125,42,102.39
68,B3,6.25,0.125,42,102.39
69,G3,6.25,0.125,42,102.39
70,B-4,6.5,0.5,66,102.39
71,G3,6.5,0.125,48,102.39
72,B3,6.5,0.125,48,102.39
73,E4,6.5,0.125,48,102.39
74,G3,6.75,0.125,45,102.39
75,B3,6.75,0.125,45,102.39
76,E4,6.75,0.125,45,102.39
77,B4,7.0,0.5,71,102.39
78,G3,7.0,0.125,50,102.39
79,B3,7.0,0.125,50,102.39
80,E4,7.0,0.125,50,102.39
81,G3,7.25,0.125,57,102.39
82,B3,7.25,0.125,57,102.39
83,E4,7.25,0.125,57,102.39
84,C#5,7.5,1.0,81,102.39
85,F#2,7.5,0.125,73,102.39
86,E4,7.75,0.125,52,102.39
87,B-3,7.75,0.125,52,102.39
88,F#3,7.75,0.125,52,102.39
89,E4,8.0,0.125,57,102.39
90,B-3,8.0,0.125,57,102.39
91,F#3,8.0,0.125,57,102.39
92,E4,8.25,0.125,61,102.39
93,B-3,8.25,0.125,61,102.39
94,F#3,8.25,0.125,61,102.39
95,G5,8.5,0.5,85,102.39
96,E4,8.5,0.125,62,102.39
97,B-3,8.5,0.125,62,102.39
98,F#3,8.5,0.125,62,102.39
99,F#3,8.75,0.125,52,102.39
100,B-3,8.75,0.125,52,102.39
101,E4,8.75,0.125,52,102.39
102,F#5,9.0,0.75,93,102.39
103,B-2,9.0,0.125,78,102.39
104,F#4,9.25,0.125,52,102.39
105,F#3,9.25,0.125,52,102.39
106,C#4,9.25,0.125,52,102.39
107,E4,9.25,0.125,52,102.39
108,F#4,9.5,0.125,49,102.39
109,E4,9.5,0.125,49,102.39
110,C#4,9.5,0.125,49,102.39
111,F#3,9.5,0.125,49,102.39
112,E5,9.75,0.125,81,102.39
113,F#4,9.75,0.125,54,102.39
114,F#3,9.75,0.125,54,102.39
115,C#4,9.75,0.125,54,102.39
116,E4,9.75,0.125,54,102.39
117,D5,10.0,0.125,86,102.39
118,F#4,10.0,0.125,55,102.39
119,F#3,10.0,0.125,55,102.39
120,C#4,10.0,0.125,55,102.39
121,E4,10.0,0.125,55,102.39
122,C#5,10.25,0.125,86,102.39
123,F#4,10.25,0.125,58,102.39
124,F#3,10.25,0.125,58,102.39
125,C#4,10.25,0.125,58,102.39
126,E4,10.25,0.125,58,102.39
127,E5,10.5,0.75,92,102.39
128,B2,10.5,0.125,75,102.39
129,F#4,10.75,0.125,52,102.39
130,D4,10.75,0.125,52,102.39
131,B3,10.75,0.125,52,102.39
132,F#3,10.75,0.125,52,102.39
133,F#4,11.0,0.125,52,102.39
134,D4,11.0,0.125,52,102.39
135,B3,11.0,0.125,52,102.39
136,F#3,11.0,0.125,52,102.39
137,D5,11.25,0.125,75,102.39
138,F#4,11.25,0.125,48,102.39
139,D4,11.25,0.125,48,102.39
140,B3,11.25,0.125,48,102.39
141,F#3,11.25,0.125,48,102.39
142,C#5,11.5,0.125,75,102.39
143,F#4,11.5,0.125,54,102.39
144,D4,11.5,0.125,54,102.39
145,B3,11.5,0.125,54,102.39
146,F#3,11.5,0.125,54,102.39
147,B4,11.75,0.125,84,102.39
148,F#4,11.75,0.125,50,102.39
149,D4,11.75,0.125,50,102.39
150,B3,11.75,0.125,50,102.39
151,F#3,11.75,0.125,50,102.39
152,A4,12.0,0.75,90,102.39
153,C#3,12.0,0.25,75,102.39
154,F3,12.25,0.125,47,102.39
155,B3,12.25,0.125,47,102.39
156,C#4,12.25,0.125,47,102.39
157,F3,12.5,0.125,52,102.39
158,B3,12.5,0.125,52,102.39
159,C#4,12.5,0.125,52,102.39
160,G#4,12.75,0.125,68,102.39
161,C#4,12.75,0.125,46,102.39
162,B3,12.75,0.125,46,102.39
163,F3,12.75,0.125,46,102.39
164,F#4,13.0,0.125,66,102.39
165,C#4,13.0,0.125,53,102.39
166,B3,13.0,0.125,53,102.39
167,F#3,13.0,0.125,53,102.39
168,F4,13.25,0.125,72,102.39
169,C#4,13.25,0.125,52,102.39
170,B3,13.25,0.125,52,102.39
171,G#3,13.25,0.125,52,102.39
172,F4,13.5,0.5,78,102.39
173,F#3,13.5,0.125,57,102.39
174,B-3,13.5,0.125,57,102.39
175,C#4,13.5,0.125,57,102.39
176,F#3,13.75,0.125,42,102.39
177,B-3,13.75,0.125,42,102.39
178,C#4,13.75,0.125,42,102.39
179,F#4,14.0,0.438,64,102.39
180,F#3,14.0,0.125,45,102.39
181,B-3,14.0,0.125,45,102.39
182,C#4,14.0,0.125,45,102.39
183,C#4,14.25,0.125,35,102.39
184,B-3,14.25,0.125,35,102.39
185,F#3,14.25,0.125,35,102.39
186,F#4,14.5,0.25,61,102.39
187,F#3,14.5,0.125,39,102.39
188,B-3,14.5,0.125,39,102.39
189,C#4,14.5,0.125,39,102.39
190,C#4,14.75,0.125,35,102.39
191,B-3,14.75,0.125,35,102.39
192,F#3,14.75,0.125,35,102.39
193,F#4,15.0,0.5,56,102.39
194,B-2,15.0,0.125,40,102.39
195,F#3,15.25,0.125,36,102.39
196,C#4,15.25,0.125,36,102.39
197,E4,15.25,0.125,36,102.39
198,G#4,15.5,0.125,58,102.39
199,F#3,15.5,0.125,40,102.39
200,C#4,15.5,0.125,40,102.39
201,E4,15.5,0.125,40,102.39
202,B-4,15.75,0.125,59,102.39
203,F#3,15.75,0.125,43,102.39
204,C#4,15.75,0.125,43,102.39
205,E4,15.75,0.125,43,102.39
206,B4,16.0,0.125,63,102.39
207,F#3,16.0,0.125,46,102.39
208,C#4,16.0,0.125,46,102.39
209,E4,16.0,0.125,46,102.39
210,C#5,16.25,0.125,66,102.39
211,F#3,16.25,0.125,50,102.39
212,C#4,16.25,0.125,50,102.39
213,E4,16.25,0.125,50,102.39
214,D5,16.5,0.5,74,102.39
215,B2,16.5,0.125,60,102.39
216,D4,16.75,0.125,37,102.39
217,B3,16.75,0.125,37,102.39
218,F#3,16.75,0.125,37,102.39
219,B-4,17.0,0.5,63,102.39
220,F#3,17.0,0.125,45,102.39
221,B3,17.0,0.125,45,102.39
222,D4,17.0,0.125,45,102.39
223,F#3,17.25,0.125,42,102.39
224,B3,17.25,0.125,42,102.39
225,D4,17.25,0.125,42,102.39
226,B4,17.5,0.5,65,102.39
227,D4,17.5,0.125,48,102.39
228,B3,17.5,0.125,48,102.39
229,F#3,17.5,0.125,48,102.39
230,F#3,17.75,0.125,46,102.39
231,B3,17.75,0.125,46,102.39
232,D4,17.75,0.125,46,102.39
233,F5,18.0,0.5,78,102.39
234,B2,18.0,0.125,69,102.39
235,F4,18.25,0.125,43,102.39
236,C#4,18.25,0.125,43,102.39
237,G#3,18.25,0.125,43,102.39
238,C5,18.5,0.5,67,102.39
239,G#3,18.5,0.125,49,102.39
240,C#4,18.5,0.125,49,102.39
241,F4,18.5,0.125,49,102.39
242,G#3,18.75,0.125,47,102.39
243,C#4,18.75,0.125,47,102.39
244,F4,18.75,0.125,47,102.39
245,C#5,19.0,0.5,73,102.39
246,G#3,19.0,0.125,51,102.39
247,C#4,19.0,0.125,51,102.39
248,F4,19.0,0.125,51,102.39
249,G#3,19.25,0.125,59,102.39
250,C#4,19.25,0.125,59,102.39
251,F4,19.25,0.125,59,102.39
252,F#5,19.5,1.0,86,102.39
253,A2,19.5,0.125,73,102.39
254,F#4,19.75,0.125,52,102.39
255,C#4,19.75,0.125,52,102.39
256,A3,19.75,0.125,52,102.39
257,F#3,19.75,0.125,52,102.39
258,F#4,20.0,0.125,56,102.39
259,C#4,20.0,0.125,56,102.39
260,A3,20.0,0.125,56,102.39
261,F#3,20.0,0.125,56,102.39
262,F#4,20.25,0.125,60,102.39
263,C#4,20.25,0.125,60,102.39
264,A3,20.25,0.125,60,102.39
265,F#3,20.25,0.125,60,102.39
266,F#5,20.5,0.5,85,102.39
267,F#4,20.5,0.125,62,102.39
268,C#4,20.5,0.125,62,102.39
269,A3,20.5,0.125,62,102.39
270,F#3,20.5,0.125,62,102.39
271,F#4,20.75,0.125,52,102.39
272,F#3,20.75,0.125,52,102.39
273,A3,20.75,0.125,52,102.39
274,C#4,20.75,0.125,52,102.39
275,E5,21.0,0.75,93,102.39
276,B2,21.0,0.125,78,102.39
277,F#3,21.25,0.125,52,102.39
278,G#3,21.25,0.125,52,102.39
279,D4,21.25,0.125,52,102.39
280,D4,21.5,0.125,49,102.39
281,G#3,21.5,0.125,49,102.39
282,F#3,21.5,0.125,49,102.39
283,D5,21.75,0.125,81,102.39
284,F#3,21.75,0.125,54,102.39
285,G#3,21.75,0.125,54,102.39
286,D4,21.75,0.125,54,102.39
287,C#5,22.0,0.125,86,102.39
288,F#3,22.0,0.125,55,102.39
289,G#3,22.0,0.125,55,102.39
290,D4,22.0,0.125,55,102.39
291,D5,22.25,0.125,86,102.39
292,F#3,22.25,0.125,59,102.39
293,G#3,22.25,0.125,59,102.39
294,D4,22.25,0.125,59,102.39
295,C#5,22.5,1.0,81,102.39
296,C#3,22.5,0.125,73,102.39
297,F#4,22.75,0.125,52,102.39
298,C#4,22.75,0.125,52,102.39
299,A3,22.75,0.125,52,102.39
300,F#3,22.75,0.125,52,102.39
301,F#4,23.0,0.125,56,102.39
302,C#4,23.0,0.125,56,102.39
303,A3,23.0,0.125,56,102.39
304,F#3,23.0,0.125,56,102.39
305,F#4,23.25,0.125,60,102.39
306,C#4,23.25,0.125,60,102.39
307,A3,23.25,0.125,60,102.39
308,F#3,23.25,0.125,60,102.39
309,F#5,23.5,0.5,85,102.39
310,F#4,23.5,0.125,62,102.39
311,C#4,23.5,0.125,62,102.39
312,A3,23.5,0.125,62,102.39
313,F#3,23.5,0.125,62,102.39
314,F#4,23.75,0.125,52,102.39
315,F#3,23.75,0.125,52,102.39
316,A3,23.75,0.125,52,102.39
317,C#4,23.75,0.125,52,102.39
318,E5,24.0,0.75,93,102.39
319,B2,24.0,0.125,78,102.39
320,F#3,24.25,0.125,52,102.39
321,G#3,24.25,0.125,52,102.39
322,D4,24.25,0.125,52,102.39
323,D4,24.5,0.125,49,102.39
324,G#3,24.5,0.125,49,102.39
325,F#3,24.5,0.125,49,102.39
326,D5,24.75,0.125,81,102.39
327,F#3,24.75,0.125,54,102.39
328,G#3,24.75,0.125,54,102.39
329,D4,24.75,0.125,54,102.39
330,C#5,25.0,0.125,86,102.39
331,F#3,25.0,0.125,55,102.39
332,G#3,25.0,0.125,55,102.39
333,D4,25.0,0.125,55,102.39
334,D5,25.25,0.125,86,102.39
335,F#3,25.25,0.125,59,102.39
336,G#3,25.25,0.125,59,102.39
337,D4,25.25,0.125,59,102.39
338,C#5,25.5,0.75,93,102.39
339,C#3,25.5,0.125,52,102.39
340,F#3,25.5,0.125,52,102.39
341,A3,25.5,0.125,52,102.39
342,A3,25.75,0.125,49,102.39
343,F#3,25.75,0.125,49,102.39
344,C#3,25.75,0.125,49,102.39
345,C#3,26.0,0.125,54,102.39
346,F#3,26.0,0.125,54,102.39
347,A3,26.0,0.125,54,102.39
348,F#4,26.25,0.125,51,102.39
349,F4,26.5,0.125,53,102.39
350,F#4,26.75,0.125,56,102.39
351,G#4,27.0,0.75,52,102.39
352,F#4,27.0,0.75,52,102.39
353,D4,27.0,0.75,52,102.39
354,B3,27.0,0.125,59,102.39
355,C#3,27.0,0.125,59,102.39
356,C#3,27.25,0.125,52,102.39
357,B3,27.25,0.125,52,102.39
358,C#3,27.5,0.5,52,102.39
359,B3,27.5,0.5,52,102.39
360,G#4,27.75,0.125,56,102.39
361,F#4,28.0,0.125,59,102.39
362,G#4,28.25,0.125,62,102.39
363,F#4,28.5,0.625,61,102.39
364,A4,28.5,0.625,61,102.39
365,C#4,28.5,0.125,62,102.39
366,C#3,28.5,0.125,62,102.39
367,C#3,28.75,0.125,52,102.39
368,C#4,28.75,0.125,52,102.39
369,C#4,29.0,0.5,56,102.39
370,C#3,29.0,0.5,56,102.39
371,B4,29.208,21/500,61,102.39
372,A4,29.25,0.125,61,102.39
373,G#4,29.5,0.125,62,102.39
374,A4,29.75,0.125,66,102.39
375,B4,30.0,0.75,66,102.39
376,F#4,30.0,0.75,66,102.39
377,D4,30.0,0.125,63,102.39
378,C#3,30.0,0.125,63,102.39
379,C#3,30.25,0.125,52,102.39
380,D4,30.25,0.125,52,102.39
381,D4,30.5,0.5,54,102.39
382,C#3,30.5,0.5,54,102.39
383,B4,30.75,0.125,63,102.39
384,A4,31.0,0.125,67,102.39
385,B4,31.25,0.125,68,102.39
386,C#5,31.5,0.625,66,102.39
387,A4,31.5,0.625,66,102.39
388,F#4,31.5,0.625,66,102.39
389,C#4,31.5,0.125,66,102.39
390,C#3,31.5,0.125,66,102.39
391,C#3,31.75,0.125,54,102.39
392,C#4,31.75,0.125,54,102.39
393,C#4,32.0,0.5,58,102.39
394,C#3,32.0,0.5,58,102.39
395,D5,32.208,21/500,68,102.39
396,C#5,32.25,0.125,68,102.39
397,C5,32.5,0.125,70,102.39
398,C#5,32.75,0.125,73,102.39
399,G#4,33.0,0.75,73,102.39
400,C#5,33.0,0.75,73,102.39
401,F5,33.0,0.75,73,102.39
402,B3,33.0,0.125,68,102.39
403,C#3,33.0,0.125,68,102.39
404,B3,33.25,0.125,59,102.39
405,C#3,33.25,0.125,59,102.39
406,C#3,33.5,0.5,52,102.39
407,B3,33.5,0.5,52,102.39
408,F5,33.75,0.125,73,102.39
409,E-5,34.0,0.125,78,102.39
410,F5,34.25,0.125,83,102.39
411,F#5,34.5,1.5,93,102.39
412,D2,34.5,0.125,87,102.39
413,A4,34.75,0.125,54,102.39
414,F#4,34.75,0.125,54,102.39
415,D4,34.75,0.125,54,102.39
416,A3,34.75,0.125,54,102.39
417,D3,34.75,0.125,54,102.39
418,A4,35.0,0.125,59,102.39
419,F#4,35.0,0.125,59,102.39
420,D4,35.0,0.125,59,102.39
421,A3,35.0,0.125,59,102.39
422,D3,35.0,0.125,59,102.39
423,A4,35.25,0.125,63,102.39
424,F#4,35.25,0.125,63,102.39
425,D4,35.25,0.125,63,102.39
426,A3,35.25,0.125,63,102.39
427,D3,35.25,0.125,63,102.39
428,A4,35.5,0.125,64,102.39
429,F#4,35.5,0.125,64,102.39
430,D4,35.5,0.125,64,102.39
431,A3,35.5,0.125,64,102.39
432,D3,35.5,0.125,64,102.39
433,A4,35.75,0.125,54,102.39
434,F#4,35.75,0.125,54,102.39
435,D3,35.75,0.125,54,102.39
436,A3,35.75,0.125,54,102.39
437,D4,35.75,0.125,54,102.39
438,F#5,36.0,0.5,93,102.39
439,D4,36.0,0.125,65,102.39
440,C4,36.0,0.125,65,102.39
441,F#4,36.0,0.125,65,102.39
442,A4,36.0,0.125,65,102.39
443,A3,36.0,0.125,65,102.39
444,D3,36.0,0.125,65,102.39
445,D4,36.25,0.125,60,102.39
446,C4,36.25,0.125,60,102.39
447,F#4,36.25,0.125,60,102.39
448,A4,36.25,0.125,60,102.39
449,A3,36.25,0.125,60,102.39
450,D3,36.25,0.125,60,102.39
451,E5,36.5,0.5,87,102.39
452,C4,36.5,0.125,68,102.39
453,A3,36.5,0.125,68,102.39
454,D4,36.5,0.125,68,102.39
455,D3,36.5,0.125,68,102.39
456,C4,36.75,0.125,69,102.39
457,D4,36.75,0.125,69,102.39
458,F#4,36.75,0.125,69,102.39
459,A4,36.75,0.125,69,102.39
460,D3,36.75,0.125,69,102.39
461,A3,36.75,0.125,69,102.39
462,D5,37.0,0.438,90,102.39
463,C4,37.0,0.125,72,102.39
464,D4,37.0,0.125,72,102.39
465,A3,37.0,0.125,72,102.39
466,D3,37.0,0.125,72,102.39
467,F#4,37.25,0.125,60,102.39
468,C4,37.25,0.125,60,102.39
469,D4,37.25,0.125,60,102.39
470,A3,37.25,0.125,60,102.39
471,A4,37.25,0.125,60,102.39
472,D3,37.25,0.125,60,102.39
473,D5,37.5,0.5,98,102.39
474,G2,37.5,0.125,87,102.39
475,D4,37.75,0.125,59,102.39
476,G4,37.75,0.125,59,102.39
477,B3,37.75,0.125,59,102.39
478,G3,37.75,0.125,59,102.39
479,B4,38.0,0.5,87,102.39
480,B3,38.0,0.125,66,102.39
481,G3,38.0,0.125,66,102.39
482,B3,38.25,0.125,68,102.39
483,G3,38.25,0.125,68,102.39
484,G4,38.5,0.5,77,102.39
485,B-3,38.5,0.125,66,102.39
486,G3,38.5,0.125,66,102.39
487,G3,38.75,0.125,54,102.39
488,B-3,38.75,0.125,54,102.39
489,E4,39.0,1.0,78,102.39
490,A2,39.0,0.125,69,102.39
491,A3,39.25,0.125,48,102.39
492,D4,39.25,0.125,48,102.39
493,G3,39.25,0.125,48,102.39
494,E3,39.25,0.125,48,102.39
495,E3,39.5,0.125,52,102.39
496,A3,39.5,0.125,52,102.39
497,D4,39.5,0.125,52,102.39
498,G3,39.5,0.125,52,102.39
499,E3,39.75,0.125,56,102.39
500,A3,39.75,0.125,56,102.39
501,D4,39.75,0.125,56,102.39
502,G3,39.75,0.125,56,102.39
503,A4,40.0,0.5,78,102.39
504,G3,40.0,0.125,59,102.39
505,A3,40.0,0.125,59,102.39
506,E3,40.0,0.125,59,102.39
507,A3,40.25,0.125,47,102.39
508,G3,40.25,0.125,47,102.39
509,C#4,40.25,0.125,47,102.39
510,E3,40.25,0.125,47,102.39
511,E4,40.25,0.125,47,102.39
512,F#4,40.5,0.75,78,102.39
513,D3,40.5,0.125,69,102.39
514,A3,40.75,0.125,49,102.39
515,D4,40.75,0.125,49,102.39
516,F#3,40.75,0.125,49,102.39
517,F#3,41.0,0.125,54,102.39
518,A3,41.0,0.125,54,102.39
519,D4,41.0,0.125,54,102.39
520,F#4,41.25,0.125,82,102.39
521,F#3,41.25,0.125,58,102.39
522,A3,41.25,0.125,58,102.39
523,D4,41.25,0.125,58,102.39
524,A4,41.5,0.125,85,102.39
525,A3,41.5,0.125,59,102.39
526,D4,41.5,0.125,59,102.39
527,F#3,41.5,0.125,59,102.39
528,D5,41.75,0.125,91,102.39
529,A3,41.75,0.125,49,102.39
530,F#3,41.75,0.125,49,102.39
531,D4,41.75,0.125,49,102.39
532,F#5,42.0,0.5,93,102.39
533,D3,42.0,0.125,69,102.39
534,D4,42.25,0.125,60,102.39
535,C4,42.25,0.125,60,102.39
536,F#4,42.25,0.125,60,102.39
537,A4,42.25,0.125,60,102.39
538,A3,42.25,0.125,60,102.39
539,E5,42.5,0.5,87,102.39
540,C4,42.5,0.125,70,102.39
541,A3,42.5,0.125,70,102.39
542,D4,42.5,0.125,70,102.39
543,C4,42.75,0.125,69,102.39
544,D4,42.75,0.125,69,102.39
545,F#4,42.75,0.125,69,102.39
546,A4,42.75,0.125,69,102.39
547,A3,42.75,0.125,69,102.39
548,D5,43.0,0.438,90,102.39
549,C4,43.0,0.125,74,102.39
550,D4,43.0,0.125,74,102.39
551,A3,43.0,0.125,74,102.39
552,F#4,43.25,0.125,60,102.39
553,C4,43.25,0.125,60,102.39
554,D4,43.25,0.125,60,102.39
555,A3,43.25,0.125,60,102.39
556,A4,43.25,0.125,60,102.39
557,D5,43.5,0.5,98,102.39
558,G3,43.5,0.125,87,102.39
559,B3,43.75,0.125,53,102.39
560,D4,43.75,0.125,53,102.39
561,B4,44.0,0.5,81,102.39
562,B3,44.0,0.125,62,102.39
563,D4,44.0,0.125,62,102.39
564,B3,44.25,0.125,60,102.39
565,D4,44.25,0.125,60,102.39
566,G4,44.5,0.5,66,102.39
567,B3,44.5,0.125,58,102.39
568,D4,44.5,0.125,58,102.39
569,D4,44.75,0.125,44,102.39
570,B3,44.75,0.125,44,102.39
571,E4,45.0,1.0,62,102.39
572,G2,45.0,1.5,55,102.39
573,G3,45.25,0.125,44,102.39
574,C4,45.25,0.125,44,102.39
575,E3,45.5,0.5,50,102.39
576,G3,45.5,0.125,52,102.39
577,C4,45.5,0.125,52,102.39
578,G3,45.75,0.125,44,102.39
579,C4,45.75,0.125,44,102.39
580,G4,46.0,0.5,62,102.39
581,E-3,46.0,0.5,54,102.39
582,G3,46.25,0.125,44,102.39
583,C4,46.25,0.125,44,102.39
584,D4,46.5,1.0,62,102.39
585,G2,46.5,1.0,55,102.39
586,G3,46.75,0.125,44,102.39
587,B3,46.75,0.125,44,102.39
588,G3,47.0,0.125,52,102.39
589,B3,47.0,0.125,52,102.39
590,G3,47.25,0.125,44,102.39
591,B3,47.25,0.125,44,102.39
592,G4,47.5,0.5,52,102.39
593,G3,47.75,0.125,37,102.39
594,B3,47.75,0.125,37,102.39
595,E4,48.0,1.0,52,102.39
596,G2,48.0,1.5,46,102.39
597,G3,48.25,0.125,37,102.39
598,C4,48.25,0.125,37,102.39
599,E3,48.5,0.5,42,102.39
600,G3,48.5,0.125,44,102.39
601,C4,48.5,0.125,44,102.39
602,G3,48.75,0.125,37,102.39
603,C4,48.75,0.125,37,102.39
604,G4,49.0,0.5,52,102.39
605,E-3,49.0,0.5,45,102.39
606,G3,49.25,0.125,37,102.39
607,C4,49.25,0.125,37,102.39
608,D4,49.5,1.0,52,102.39
609,D3,49.5,1.0,45,102.39
610,G2,49.5,1.0,46,102.39
611,G3,49.75,0.125,34,102.39
612,B3,49.75,0.125,34,102.39
613,G3,50.0,0.125,42,102.39
614,B3,50.0,0.125,42,102.39
615,G3,50.25,0.125,36,102.39
616,B3,50.25,0.125,36,102.39
617,G3,50.5,0.125,50,102.39
618,B3,50.5,0.125,50,102.39
619,G3,50.75,0.125,38,102.39
620,B3,50.75,0.125,38,102.39
621,B3,51.0,0.125,39,102.39
622,G3,51.0,0.125,39,102.39
623,G3,51.25,0.125,40,102.39
624,B3,51.25,0.125,40,102.39
625,G3,51.5,0.125,42,102.39
626,B3,51.5,0.125,42,102.39
627,G3,51.75,0.125,42,102.39
628,B3,51.75,0.125,42,102.39
629,F#4,52.0,0.25,50,102.39
630,F#3,52.0,0.5,32,102.39
631,B3,52.25,0.125,34,102.39
632,D4,52.25,0.125,34,102.39
633,F#4,52.5,0.5,56,102.39
634,B-2,52.5,0.125,40,102.39
635,F#3,52.75,0.125,36,102.39
636,C#4,52.75,0.125,36,102.39
637,E4,52.75,0.125,36,102.39
638,G#4,53.0,0.125,58,102.39
639,F#3,53.0,0.125,40,102.39
640,C#4,53.0,0.125,40,102.39
641,E4,53.0,0.125,40,102.39
642,B-4,53.25,0.125,59,102.39
643,F#3,53.25,0.125,43,102.39
644,C#4,53.25,0.125,43,102.39
645,E4,53.25,0.125,43,102.39
646,B4,53.5,0.125,63,102.39
647,F#3,53.5,0.125,46,102.39
648,C#4,53.5,0.125,46,102.39
649,E4,53.5,0.125,46,102.39
650,C#5,53.75,0.125,66,102.39
651,F#3,53.75,0.125,50,102.39
652,C#4,53.75,0.125,50,102.39
653,E4,53.75,0.125,50,102.39
654,D5,54.0,0.5,74,102.39
655,B2,54.0,0.125,60,102.39
656,D4,54.25,0.125,37,102.39
657,B3,54.25,0.125,37,102.39
658,F#3,54.25,0.125,37,102.39
659,B-4,54.5,0.5,63,102.39
660,F#3,54.5,0.125,45,102.39
661,B3,54.5,0.125,45,102.39
662,D4,54.5,0.125,45,102.39
663,F#3,54.75,0.125,42,102.39
664,B3,54.75,0.125,42,102.39
665,D4,54.75,0.125,42,102.39
666,B4,55.0,0.5,64,102.39
667,D4,55.0,0.125,48,102.39
668,B3,55.0,0.125,48,102.39
669,F#3,55.0,0.125,48,102.39
670,F#3,55.25,0.125,46,102.39
671,B3,55.25,0.125,46,102.39
672,D4,55.25,0.125,46,102.39
673,E5,55.5,0.5,76,102.39
674,G2,55.5,0.125,67,102.39
675,E4,55.75,0.125,42,102.39
676,B3,55.75,0.125,42,102.39
677,G3,55.75,0.125,42,102.39
678,B-4,56.0,0.5,66,102.39
679,G3,56.0,0.125,48,102.39
680,B3,56.0,0.125,48,102.39
681,E4,56.0,0.125,48,102.39
682,G3,56.25,0.125,45,102.39
683,B3,56.25,0.125,45,102.39
684,E4,56.25,0.125,45,102.39
685,B4,56.5,0.5,71,102.39
686,G3,56.5,0.125,50,102.39
687,B3,56.5,0.125,50,102.39
688,E4,56.5,0.125,50,102.39
689,G3,56.75,0.125,57,102.39
690,B3,56.75,0.125,57,102.39
691,E4,56.75,0.125,57,102.39
692,C#5,57.0,1.0,81,102.39
693,F#2,57.0,0.125,73,102.39
694,E4,57.25,0.125,52,102.39
695,B-3,57.25,0.125,52,102.39
696,F#3,57.25,0.125,52,102.39
697,E4,57.5,0.125,57,102.39
698,B-3,57.5,0.125,57,102.39
699,F#3,57.5,0.125,57,102.39
700,E4,57.75,0.125,61,102.39
701,B-3,57.75,0.125,61,102.39
702,F#3,57.75,0.125,61,102.39
703,G5,58.0,0.5,85,102.39
704,E4,58.0,0.125,62,102.39
705,B-3,58.0,0.125,62,102.39
706,F#3,58.0,0.125,62,102.39
707,F#3,58.25,0.125,52,102.39
708,B-3,58.25,0.125,52,102.39
709,E4,58.25,0.125,52,102.39
710,F#5,58.5,0.75,93,102.39
711,B-2,58.5,0.125,78,102.39
712,F#4,58.75,0.125,52,102.39
713,F#3,58.75,0.125,52,102.39
714,C#4,58.75,0.125,52,102.39
715,E4,58.75,0.125,52,102.39
716,F#4,59.0,0.125,49,102.39
717,E4,59.0,0.125,49,102.39
718,C#4,59.0,0.125,49,102.39
719,F#3,59.0,0.125,49,102.39
720,E5,59.25,0.125,81,102.39
721,F#4,59.25,0.125,54,102.39
722,F#3,59.25,0.125,54,102.39
723,C#4,59.25,0.125,54,102.39
724,E4,59.25,0.125,54,102.39
725,D5,59.5,0.125,86,102.39
726,F#4,59.5,0.125,55,102.39
727,F#3,59.5,0.125,55,102.39
728,C#4,59.5,0.125,55,102.39
729,E4,59.5,0.125,55,102.39
730,C#5,59.75,0.125,86,102.39
731,F#4,59.75,0.125,58,102.39
732,F#3,59.75,0.125,58,102.39
733,C#4,59.75,0.125,58,102.39
734,E4,59.75,0.125,58,102.39
735,E5,60.0,0.75,92,102.39
736,B2,60.0,0.125,75,102.39
737,F#4,60.25,0.125,52,102.39
738,D4,60.25,0.125,52,102.39
739,B3,60.25,0.125,52,102.39
740,F#3,60.25,0.125,52,102.39
741,F#4,60.5,0.125,52,102.39
742,D4,60.5,0.125,52,102.39
743,B3,60.5,0.125,52,102.39
744,F#3,60.5,0.125,52,102.39
745,D5,60.75,0.125,75,102.39
746,F#4,60.75,0.125,48,102.39
747,D4,60.75,0.125,48,102.39
748,B3,60.75,0.125,48,102.39
749,F#3,60.75,0.125,48,102.39
750,C#5,61.0,0.125,75,102.39
751,F#4,61.0,0.125,54,102.39
752,D4,61.0,0.125,54,102.39
753,B3,61.0,0.125,54,102.39
754,F#3,61.0,0.125,54,102.39
755,B4,61.25,0.125,84,102.39
756,F#4,61.25,0.125,50,102.39
757,D4,61.25,0.125,50,102.39
758,B3,61.25,0.125,50,102.39
759,F#3,61.25,0.125,50,102.39
760,A4,61.5,0.75,90,102.39
761,C#3,61.5,0.25,75,102.39
762,F3,61.75,0.125,47,102.39
763,B3,61.75,0.125,47,102.39
764,C#4,61.75,0.125,47,102.39
765,F3,62.0,0.125,52,102.39
766,B3,62.0,0.125,52,102.39
767,C#4,62.0,0.125,52,102.39
768,G#4,62.25,0.125,68,102.39
769,C#4,62.25,0.125,46,102.39
770,B3,62.25,0.125,46,102.39
771,F3,62.25,0.125,46,102.39
772,F#4,62.5,0.125,66,102.39
773,C#4,62.5,0.125,53,102.39
774,B3,62.5,0.125,53,102.39
775,F#3,62.5,0.125,53,102.39
776,F4,62.75,0.125,72,102.39
777,C#4,62.75,0.125,52,102.39
778,B3,62.75,0.125,52,102.39
779,G#3,62.75,0.125,52,102.39
780,F4,63.0,0.5,78,102.39
781,F#3,63.0,0.125,57,102.39
782,B-3,63.0,0.125,57,102.39
783,C#4,63.0,0.125,57,102.39
784,F#3,63.25,0.125,42,102.39
785,B-3,63.25,0.125,42,102.39
786,C#4,63.25,0.125,42,102.39
787,F#4,63.5,0.438,64,102.39
788,F#3,63.5,0.125,45,102.39
789,B-3,63.5,0.125,45,102.39
790,C#4,63.5,0.125,45,102.39
791,C#4,63.75,0.125,35,102.39
792,B-3,63.75,0.125,35,102.39
793,F#3,63.75,0.125,35,102.39
794,F#4,64.0,0.25,61,102.39
795,F#3,64.0,0.125,39,102.39
796,B-3,64.0,0.125,39,102.39
797,C#4,64.0,0.125,39,102.39
798,C#4,64.25,0.125,35,102.39
799,B-3,64.25,0.125,35,102.39
800,F#3,64.25,0.125,35,102.39
801,F#4,64.5,0.5,56,102.39
802,B-2,64.5,0.125,40,102.39
803,F#3,64.75,0.125,36,102.39
804,C#4,64.75,0.125,36,102.39
805,E4,64.75,0.125,36,102.39
806,G#4,65.0,0.125,58,102.39
807,F#3,65.0,0.125,40,102.39
808,C#4,65.0,0.125,40,102.39
809,E4,65.0,0.125,40,102.39
810,B-4,65.25,0.125,59,102.39
811,F#3,65.25,0.125,43,102.39
812,C#4,65.25,0.125,43,102.39
813,E4,65.25,0.125,43,102.39
814,B4,65.5,0.125,63,102.39
815,F#3,65.5,0.125,46,102.39
816,C#4,65.5,0.125,46,102.39
817,E4,65.5,0.125,46,102.39
818,C#5,65.75,0.125,66,102.39
819,F#3,65.75,0.125,50,102.39
820,C#4,65.75,0.125,50,102.39
821,E4,65.75,0.125,50,102.39
822,D5,66.0,0.5,74,102.39
823,B2,66.0,0.125,60,102.39
824,D4,66.25,0.125,37,102.39
825,B3,66.25,0.125,37,102.39
826,F#3,66.25,0.125,37,102.39
827,B-4,66.5,0.5,63,102.39
828,F#3,66.5,0.125,45,102.39
829,B3,66.5,0.125,45,102.39
830,D4,66.5,0.125,45,102.39
831,F#3,66.75,0.125,42,102.39
832,B3,66.75,0.125,42,102.39
833,D4,66.75,0.125,42,102.39
834,B4,67.0,0.5,65,102.39
835,D4,67.0,0.125,48,102.39
836,B3,67.0,0.125,48,102.39
837,F#3,67.0,0.125,48,102.39
838,F#3,67.25,0.125,46,102.39
839,B3,67.25,0.125,46,102.39
840,D4,67.25,0.125,46,102.39
841,F5,67.5,0.5,78,102.39
842,B2,67.5,0.125,69,102.39
843,F4,67.75,0.125,43,102.39
844,C#4,67.75,0.125,43,102.39
845,G#3,67.75,0.125,43,102.39
846,C5,68.0,0.5,67,102.39
847,G#3,68.0,0.125,49,102.39
848,C#4,68.0,0.125,49,102.39
849,F4,68.0,0.125,49,102.39
850,G#3,68.25,0.125,47,102.39
851,C#4,68.25,0.125,47,102.39
852,F4,68.25,0.125,47,102.39
853,C#5,68.5,0.5,73,102.39
854,G#3,68.5,0.125,51,102.39
855,C#4,68.5,0.125,51,102.39
856,F4,68.5,0.125,51,102.39
857,G#3,68.75,0.125,59,102.39
858,C#4,68.75,0.125,59,102.39
859,F4,68.75,0.125,59,102.39
860,F#5,69.0,1.0,86,102.39
861,A2,69.0,0.125,73,102.39
862,F#4,69.25,0.125,52,102.39
863,C#4,69.25,0.125,52,102.39
864,A3,69.25,0.125,52,102.39
865,F#3,69.25,0.125,52,102.39
866,F#4,69.5,0.125,56,102.39
867,C#4,69.5,0.125,56,102.39
868,A3,69.5,0.125,56,102.39
869,F#3,69.5,0.125,56,102.39
870,F#4,69.75,0.125,60,102.39
871,C#4,69.75,0.125,60,102.39
872,A3,69.75,0.125,60,102.39
873,F#3,69.75,0.125,60,102.39
874,F#5,70.0,0.5,85,102.39
875,F#4,70.0,0.125,62,102.39
876,C#4,70.0,0.125,62,102.39
877,A3,70.0,0.125,62,102.39
878,F#3,70.0,0.125,62,102.39
879,F#4,70.25,0.125,52,102.39
880,F#3,70.25,0.125,52,102.39
881,A3,70.25,0.125,52,102.39
882,C#4,70.25,0.125,52,102.39
883,E5,70.5,0.75,93,102.39
884,B2,70.5,0.125,78,102.39
885,F#3,70.75,0.125,52,102.39
886,G#3,70.75,0.125,52,102.39
887,D4,70.75,0.125,52,102.39
888,D4,71.0,0.125,49,102.39
889,G#3,71.0,0.125,49,102.39
890,F#3,71.0,0.125,49,102.39
891,D5,71.25,0.125,81,102.39
892,F#3,71.25,0.125,54,102.39
893,G#3,71.25,0.125,54,102.39
894,D4,71.25,0.125,54,102.39
895,C#5,71.5,0.125,86,102.39
896,F#3,71.5,0.125,55,102.39
897,G#3,71.5,0.125,55,102.39
898,D4,71.5,0.125,55,102.39
899,D5,71.75,0.125,86,102.39
900,F#3,71.75,0.125,59,102.39
901,G#3,71.75,0.125,59,102.39
902,D4,71.75,0.125,59,102.39
903,C#5,72.0,1.0,81,102.39
904,C#3,72.0,0.125,73,102.39
905,F#4,72.25,0.125,52,102.39
906,C#4,72.25,0.125,52,102.39
907,A3,72.25,0.125,52,102.39
908,F#3,72.25,0.125,52,102.39
909,F#4,72.5,0.125,56,102.39
910,C#4,72.5,0.125,56,102.39
911,A3,72.5,0.125,56,102.39
912,F#3,72.5,0.125,56,102.39
913,F#4,72.75,0.125,60,102.39
914,C#4,72.75,0.125,60,102.39
915,A3,72.75,0.125,60,102.39
916,F#3,72.75,0.125,60,102.39
917,F#5,73.0,0.5,85,102.39
918,F#4,73.0,0.125,62,102.39
919,C#4,73.0,0.125,62,102.39
920,A3,73.0,0.125,62,102.39
921,F#3,73.0,0.125,62,102.39
922,F#4,73.25,0.125,52,102.39
923,F#3,73.25,0.125,52,102.39
924,A3,73.25,0.125,52,102.39
925,C#4,73.25,0.125,52,102.39
926,E5,73.5,0.75,93,102.39
927,B2,73.5,0.125,78,102.39
928,F#3,73.75,0.125,52,102.39
929,G#3,73.75,0.125,52,102.39
930,D4,73.75,0.125,52,102.39
931,D4,74.0,0.125,49,102.39
932,G#3,74.0,0.125,49,102.39
933,F#3,74.0,0.125,49,102.39
934,D5,74.25,0.125,81,102.39
935,F#3,74.25,0.125,54,102.39
936,G#3,74.25,0.125,54,102.39
937,D4,74.25,0.125,54,102.39
938,C#5,74.5,0.125,86,102.39
939,F#3,74.5,0.125,55,102.39
940,G#3,74.5,0.125,55,102.39
941,D4,74.5,0.125,55,102.39
942,D5,74.75,0.125,86,102.39
943,F#3,74.75,0.125,59,102.39
944,G#3,74.75,0.125,59,102.39
945,D4,74.75,0.125,59,102.39
946,C#5,75.0,0.75,93,102.39
947,C#3,75.0,0.125,52,102.39
948,F#3,75.0,0.125,52,102.39
949,A3,75.0,0.125,52,102.39
950,A3,75.25,0.125,49,102.39
951,F#3,75.25,0.125,49,102.39
952,C#3,75.25,0.125,49,102.39
953,C#3,75.5,0.125,54,102.39
954,F#3,75.5,0.125,54,102.39
955,A3,75.5,0.125,54,102.39
956,F#4,75.75,0.125,51,102.39
957,F4,76.0,0.125,53,102.39
958,F#4,76.25,0.125,56,102.39
959,G#4,76.5,0.75,52,102.39
960,F#4,76.5,0.75,52,102.39
961,D4,76.5,0.75,52,102.39
962,B3,76.5,0.125,59,102.39
963,C#3,76.5,0.125,59,102.39
964,C#3,76.75,0.125,52,102.39
965,B3,76.75,0.125,52,102.39
966,C#3,77.0,0.5,52,102.39
967,B3,77.0,0.5,52,102.39
968,G#4,77.25,0.125,56,102.39
969,F#4,77.5,0.125,59,102.39
970,G#4,77.75,0.125,62,102.39
971,F#4,78.0,0.625,61,102.39
972,A4,78.0,0.625,61,102.39
973,C#4,78.0,0.125,62,102.39
974,C#3,78.0,0.125,62,102.39
975,C#3,78.25,0.125,52,102.39
976,C#4,78.25,0.125,52,102.39
977,C#4,78.5,0.5,56,102.39
978,C#3,78.5,0.5,56,102.39
979,B4,78.708,21/500,61,102.39
980,A4,78.75,0.125,61,102.39
981,G#4,79.0,0.125,62,102.39
982,A4,79.25,0.125,66,102.39
983,B4,79.5,0.75,66,102.39
984,F#4,79.5,0.75,66,102.39
985,D4,79.5,0.125,63,102.39
986,C#3,79.5,0.125,63,102.39
987,C#3,79.75,0.125,52,102.39
988,D4,79.75,0.125,52,102.39
989,D4,80.0,0.5,54,102.39
990,C#3,80.0,0.5,54,102.39
991,B4,80.25,0.125,63,102.39
992,A4,80.5,0.125,67,102.39
993,B4,80.75,0.125,68,102.39
994,C#5,81.0,0.625,66,102.39
995,A4,81.0,0.625,66,102.39
996,F#4,81.0,0.625,66,102.39
997,C#4,81.0,0.125,66,102.39
998,C#3,81.0,0.125,66,102.39
999,C#3,81.25,0.125,54,102.39
1000,C#4,81.25,0.125,54,102.39
1001,C#4,81.5,0.5,58,102.39
1002,C#3,81.5,0.5,58,102.39
1003,D5,81.708,21/500,68,102.39
1004,C#5,81.75,0.125,68,102.39
1005,C5,82.0,0.125,70,102.39
1006,C#5,82.25,0.125,73,102.39
1007,G#4,82.5,0.75,73,102.39
1008,C#5,82.5,0.75,73,102.39
1009,F5,82.5,0.75,73,102.39
1010,B3,82.5,0.125,68,102.39
1011,C#3,82.5,0.125,68,102.39
1012,B3,82.75,0.125,59,102.39
1013,C#3,82.75,0.125,59,102.39
1014,C#3,83.0,0.5,52,102.39
1015,B3,83.0,0.5,52,102.39
1016,F5,83.25,0.125,73,102.39
1017,E-5,83.5,0.125,78,102.39
1018,F5,83.75,0.125,83,102.39
1019,F#5,84.0,1.5,93,102.39
1020,D2,84.0,0.125,87,102.39
1021,A4,84.25,0.125,54,102.39
1022,F#4,84.25,0.125,54,102.39
1023,D4,84.25,0.125,54,102.39
1024,A3,84.25,0.125,54,102.39
1025,D3,84.25,0.125,54,102.39
1026,A4,84.5,0.125,59,102.39
1027,F#4,84.5,0.125,59,102.39
1028,D4,84.5,0.125,59,102.39
1029,A3,84.5,0.125,59,102.39
1030,D3,84.5,0.125,59,102.39
1031,A4,84.75,0.125,63,102.39
1032,F#4,84.75,0.125,63,102.39
1033,D4,84.75,0.125,63,102.39
1034,A3,84.75,0.125,63,102.39
1035,D3,84.75,0.125,63,102.39
1036,A4,85.0,0.125,64,102.39
1037,F#4,85.0,0.125,64,102.39
1038,D4,85.0,0.125,64,102.39
1039,A3,85.0,0.125,64,102.39
1040,D3,85.0,0.125,64,102.39
1041,A4,85.25,0.125,54,102.39
1042,F#4,85.25,0.125,54,102.39
1043,D3,85.25,0.125,54,102.39
1044,A3,85.25,0.125,54,102.39
1045,D4,85.25,0.125,54,102.39
1046,F#5,85.5,0.5,93,102.39
1047,D4,85.5,0.125,65,102.39
1048,C4,85.5,0.125,65,102.39
1049,F#4,85.5,0.125,65,102.39
1050,A4,85.5,0.125,65,102.39
1051,A3,85.5,0.125,65,102.39
1052,D3,85.5,0.125,65,102.39
1053,D4,85.75,0.125,60,102.39
1054,C4,85.75,0.125,60,102.39
1055,F#4,85.75,0.125,60,102.39
1056,A4,85.75,0.125,60,102.39
1057,A3,85.75,0.125,60,102.39
1058,D3,85.75,0.125,60,102.39
1059,E5,86.0,0.5,87,102.39
1060,C4,86.0,0.125,68,102.39
1061,A3,86.0,0.125,68,102.39
1062,D4,86.0,0.125,68,102.39
1063,D3,86.0,0.125,68,102.39
1064,C4,86.25,0.125,69,102.39
1065,D4,86.25,0.125,69,102.39
1066,F#4,86.25,0.125,69,102.39
1067,A4,86.25,0.125,69,102.39
1068,D3,86.25,0.125,69,102.39
1069,A3,86.25,0.125,69,102.39
1070,D5,86.5,0.438,90,102.39
1071,C4,86.5,0.125,72,102.39
1072,D4,86.5,0.125,72,102.39
1073,A3,86.5,0.125,72,102.39
1074,D3,86.5,0.125,72,102.39
1075,F#4,86.75,0.125,60,102.39
1076,C4,86.75,0.125,60,102.39
1077,D4,86.75,0.125,60,102.39
1078,A3,86.75,0.125,60,102.39
1079,A4,86.75,0.125,60,102.39
1080,D3,86.75,0.125,60,102.39
1081,D5,87.0,0.5,98,102.39
1082,G2,87.0,0.125,87,102.39
1083,D4,87.25,0.125,59,102.39
1084,G4,87.25,0.125,59,102.39
1085,B3,87.25,0.125,59,102.39
1086,G3,87.25,0.125,59,102.39
1087,B4,87.5,0.5,87,102.39
1088,B3,87.5,0.125,66,102.39
1089,G3,87.5,0.125,66,102.39
1090,B3,87.75,0.125,68,102.39
1091,G3,87.75,0.125,68,102.39
1092,G4,88.0,0.5,77,102.39
1093,B-3,88.0,0.125,66,102.39
1094,G3,88.0,0.125,66,102.39
1095,G3,88.25,0.125,54,102.39
1096,B-3,88.25,0.125,54,102.39
1097,E4,88.5,1.0,78,102.39
1098,A2,88.5,0.125,69,102.39
1099,A3,88.75,0.125,48,102.39
1100,D4,88.75,0.125,48,102.39
1101,G3,88.75,0.125,48,102.39
1102,E3,88.75,0.125,48,102.39
1103,E3,89.0,0.125,52,102.39
1104,A3,89.0,0.125,52,102.39
1105,D4,89.0,0.125,52,102.39
1106,G3,89.0,0.125,52,102.39
1107,E3,89.25,0.125,56,102.39
1108,A3,89.25,0.125,56,102.39
1109,D4,89.25,0.125,56,102.39
1110,G3,89.25,0.125,56,102.39
1111,A4,89.5,0.5,78,102.39
1112,G3,89.5,0.125,59,102.39
1113,A3,89.5,0.125,59,102.39
1114,E3,89.5,0.125,59,102.39
1115,A3,89.75,0.125,47,102.39
1116,G3,89.75,0.125,47,102.39
1117,C#4,89.75,0.125,47,102.39
1118,E3,89.75,0.125,47,102.39
1119,E4,89.75,0.125,47,102.39
1120,F#4,90.0,0.75,78,102.39
1121,D3,90.0,0.125,69,102.39
1122,A3,90.25,0.125,49,102.39
1123,D4,90.25,0.125,49,102.39
1124,F#3,90.25,0.125,49,102.39
1125,F#3,90.5,0.125,54,102.39
1126,A3,90.5,0.125,54,102.39
1127,D4,90.5,0.125,54,102.39
1128,F#4,90.75,0.125,82,102.39
1129,F#3,90.75,0.125,58,102.39
1130,A3,90.75,0.125,58,102.39
1131,D4,90.75,0.125,58,102.39
1132,A4,91.0,0.125,85,102.39
1133,A3,91.0,0.125,59,102.39
1134,D4,91.0,0.125,59,102.39
1135,F#3,91.0,0.125,59,102.39
1136,D5,91.25,0.125,91,102.39
1137,A3,91.25,0.125,49,102.39
1138,F#3,91.25,0.125,49,102.39
1139,D4,91.25,0.125,49,102.39
1140,F#5,91.5,0.5,93,102.39
1141,D3,91.5,0.125,69,102.39
1142,D4,91.75,0.125,60,102.39
1143,C4,91.75,0.125,60,102.39
1144,F#4,91.75,0.125,60,102.39
1145,A4,91.75,0.125,60,102.39
1146,A3,91.75,0.125,60,102.39
1147,E5,92.0,0.5,87,102.39
1148,C4,92.0,0.125,70,102.39
1149,A3,92.0,0.125,70,102.39
1150,D4,92.0,0.125,70,102.39
1151,C4,92.25,0.125,69,102.39
1152,D4,92.25,0.125,69,102.39
1153,F#4,92.25,0.125,69,102.39
1154,A4,92.25,0.125,69,102.39
1155,A3,92.25,0.125,69,102.39
1156,D5,92.5,0.438,90,102.39
1157,C4,92.5,0.125,74,102.39
1158,D4,92.5,0.125,74,102.39
1159,A3,92.5,0.125,74,102.39
1160,F#4,92.75,0.125,60,102.39
1161,C4,92.75,0.125,60,102.39
1162,D4,92.75,0.125,60,102.39
1163,A3,92.75,0.125,60,102.39
1164,A4,92.75,0.125,60,102.39
1165,D5,93.0,0.5,98,102.39
1166,G3,93.0,0.125,87,102.39
1167,B3,93.25,0.125,53,102.39
1168,D4,93.25,0.125,53,102.39
1169,B4,93.5,0.5,81,102.39
1170,B3,93.5,0.125,62,102.39
1171,D4,93.5,0.125,62,102.39
1172,B3,93.75,0.125,60,102.39
1173,D4,93.75,0.125,60,102.39
1174,G4,94.0,0.5,66,102.39
1175,B3,94.0,0.125,58,102.39
1176,D4,94.0,0.125,58,102.39
1177,D4,94.25,0.125,44,102.39
1178,B3,94.25,0.125,44,102.39
1179,E4,94.5,1.0,62,102.39
1180,G2,94.5,1.5,55,102.39
1181,G3,94.75,0.125,44,102.39
1182,C4,94.75,0.125,44,102.39
1183,E3,95.0,0.5,50,102.39
1184,G3,95.0,0.125,52,102.39
1185,C4,95.0,0.125,52,102.39
1186,G3,95.25,0.125,44,102.39
1187,C4,95.25,0.125,44,102.39
1188,G4,95.5,0.5,62,102.39
1189,E-3,95.5,0.5,54,102.39
1190,G3,95.75,0.125,44,102.39
1191,C4,95.75,0.125,44,102.39
1192,D4,96.0,1.0,62,102.39
1193,G2,96.0,1.0,55,102.39
1194,G3,96.25,0.125,44,102.39
1195,B3,96.25,0.125,44,102.39
1196,G3,96.5,0.125,52,102.39
1197,B3,96.5,0.125,52,102.39
1198,G3,96.75,0.125,44,102.39
1199,B3,96.75,0.125,44,102.39
1200,G4,97.0,0.5,52,102.39
1201,G3,97.25,0.125,37,102.39
1202,B3,97.25,0.125,37,102.39
1203,E4,97.5,1.0,52,102.39
1204,G2,97.5,1.5,46,102.39
1205,G3,97.75,0.125,37,102.39
1206,C4,97.75,0.125,37,102.39
1207,E3,98.0,0.5,42,102.39
1208,G3,98.0,0.125,44,102.39
1209,C4,98.0,0.125,44,102.39
1210,G3,98.25,0.125,37,102.39
1211,C4,98.25,0.125,37,102.39
1212,G4,98.5,0.5,52,102.39
1213,E-3,98.5,0.5,45,102.39
1214,G3,98.75,0.125,37,102.39
1215,C4,98.75,0.125,37,102.39
1216,D4,99.0,1.0,52,102.39
1217,D3,99.0,1.0,45,102.39
1218,G2,99.0,1.0,46,102.39
1219,G3,99.25,0.125,34,102.39
1220,B3,99.25,0.125,34,102.39
1221,G3,99.5,0.125,42,102.39
1222,B3,99.5,0.125,42,102.39
1223,G3,99.75,0.125,36,102.39
1224,B3,99.75,0.125,36,102.39
1225,G4,100.0,0.5,52,102.39
1226,G3,100.25,0.125,38,102.39
1227,B3,100.25,0.125,38,102.39
1228,E-4,100.5,1.0,52,102.39
1229,G3,100.75,0.125,34,102.39
1230,B3,100.75,0.125,34,102.39
1231,G1,101.0,0.5,44,102.39
1232,G2,101.0,0.5,44,102.39
1233,G3,101.0,0.125,42,102.39
1234,B3,101.0,0.125,42,102.39
1235,G3,101.25,0.125,36,102.39
1236,B3,101.25,0.125,36,102.39
1237,G4,101.5,0.5,52,102.39
1238,G3,101.75,0.125,38,102.39
1239,B3,101.75,0.125,38,102.39
1240,E4,102.0,1.0,57,102.39
1241,B3,102.25,0.125,38,102.39
1242,D4,102.25,0.125,38,102.39
1243,G#1,102.5,0.5,50,102.39
1244,G#2,102.5,0.5,50,102.39
1245,B3,102.5,0.125,47,102.39
1246,D4,102.5,0.125,47,102.39
1247,B3,102.75,0.125,42,102.39
1248,D4,102.75,0.125,42,102.39
1249,G#4,103.0,0.5,64,102.39
1250,B3,103.25,0.125,46,102.39
1251,D4,103.25,0.125,46,102.39
1252,B4,103.5,0.5,77,102.39
1253,B3,103.75,0.125,42,102.39
1254,D4,103.75,0.125,42,102.39
1255,G#4,104.0,0.5,72,102.39
1256,E3,104.0,0.5,57,102.39
1257,E2,104.0,0.5,57,102.39
1258,B3,104.25,0.125,47,102.39
1259,D4,104.25,0.125,47,102.39
1260,E4,104.5,0.5,74,102.39
1261,B3,104.75,0.125,51,102.39
1262,D4,104.75,0.125,51,102.39
1263,E4,105.0,1.0,72,102.39
1264,A3,105.25,0.125,47,102.39
1265,C#4,105.25,0.125,47,102.39
1266,A1,105.5,0.5,62,102.39
1267,A2,105.5,0.5,62,102.39
1268,A3,105.5,0.125,58,102.39
1269,C#4,105.5,0.125,58,102.39
1270,A3,105.75,0.125,50,102.39
1271,C#4,105.75,0.125,50,102.39
1272,A4,106.0,0.5,52,102.39
1273,A3,106.25,0.125,38,102.39
1274,C#4,106.25,0.125,38,102.39
1275,F4,106.5,1.0,62,102.39
1276,A3,106.75,0.125,36,102.39
1277,C#4,106.75,0.125,36,102.39
1278,A1,107.0,0.5,49,102.39
1279,A2,107.0,0.5,49,102.39
1280,A3,107.0,0.125,46,102.39
1281,C#4,107.0,0.125,46,102.39
1282,A3,107.25,0.125,40,102.39
1283,C#4,107.25,0.125,40,102.39
1284,A4,107.5,0.5,65,102.39
1285,A3,107.75,0.125,44,102.39
1286,C#4,107.75,0.125,44,102.39
1287,F#4,108.0,1.0,73,102.39
1288,C#4,108.25,0.125,42,102.39
1289,E4,108.25,0.125,42,102.39
1290,B-1,108.5,0.5,56,102.39
1291,B-2,108.5,0.5,56,102.39
1292,C#4,108.5,0.125,52,102.39
1293,E4,108.5,0.125,52,102.39
1294,C#4,108.75,0.125,47,102.39
1295,E4,108.75,0.125,47,102.39
1296,B-4,109.0,0.5,72,102.39
1297,C#4,109.25,0.125,51,102.39
1298,E4,109.25,0.125,51,102.39
1299,C#5,109.5,0.5,83,102.39
1300,C#4,109.75,0.125,45,102.39
1301,E4,109.75,0.125,45,102.39
1302,B-4,110.0,0.5,75,102.39
1303,F#3,110.0,0.5,60,102.39
1304,F#2,110.0,0.5,60,102.39
1305,C#4,110.25,0.125,48,102.39
1306,E4,110.25,0.125,48,102.39
1307,F#4,110.5,479/1000,74,102.39
1308,C#4,110.75,0.125,50,102.39
1309,E4,110.75,0.125,50,102.39
1310,F#4,111.0,1.0,70,102.39
1311,B3,111.25,0.125,45,102.39
1312,E-4,111.25,0.125,45,102.39
1313,B1,111.5,0.5,60,102.39
1314,B2,111.5,0.5,60,102.39
1315,B3,111.5,0.125,56,102.39
1316,E-4,111.5,0.125,56,102.39
1317,B3,111.75,0.125,48,102.39
1318,E-4,111.75,0.125,48,102.39
1319,B4,112.0,479/1000,70,102.39
1320,B2,112.0,0.5,58,102.39
1321,B3,112.25,0.125,48,102.39
1322,E-4,112.25,0.125,48,102.39
1323,F#4,112.25,0.125,48,102.39
1324,B4,112.5,979/1000,70,102.39
1325,B2,112.5,0.5,62,102.39
1326,F#4,112.75,0.125,56,102.39
1327,A4,112.75,0.125,56,102.39
1328,C#3,113.0,0.125,52,102.39
1329,F#4,113.0,0.125,52,102.39
1330,A4,113.0,0.125,52,102.39
1331,E-3,113.25,0.125,50,102.39
1332,F#4,113.25,0.125,50,102.39
1333,A4,113.25,0.125,50,102.39
1334,B4,113.5,479/1000,70,102.39
1335,E3,113.5,0.125,72,102.39
1336,F#3,113.75,0.125,76,102.39
1337,F#4,113.75,0.125,76,102.39
1338,A4,113.75,0.125,76,102.39
1339,B4,114.0,0.5,79,102.39
1340,G3,114.0,1.5,84,102.39
1341,B3,114.25,0.125,63,102.39
1342,G4,114.25,0.125,63,102.39
1343,E4,114.25,0.125,63,102.39
1344,C#5,114.5,0.125,76,102.39
1345,E4,114.5,0.125,59,102.39
1346,G4,114.5,0.125,59,102.39
1347,B3,114.5,0.125,59,102.39
1348,E-5,114.75,0.125,77,102.39
1349,E4,114.75,0.125,61,102.39
1350,G4,114.75,0.125,61,102.39
1351,B3,114.75,0.125,61,102.39
1352,E5,115.0,0.125,79,102.39
1353,E4,115.0,0.125,63,102.39
1354,G4,115.0,0.125,63,102.39
1355,B3,115.0,0.125,63,102.39
1356,F#5,115.25,0.125,83,102.39
1357,E4,115.25,0.125,65,102.39
1358,G4,115.25,0.125,65,102.39
1359,B3,115.25,0.125,65,102.39
1360,G5,115.5,1.5,85,102.39
1361,G4,115.5,1.5,85,102.39
1362,B2,115.5,0.25,72,102.39
1363,G3,115.75,0.188,63,102.39
1364,D4,115.75,0.188,63,102.39
1365,F4,115.75,0.188,63,102.39
1366,F4,116.0,0.188,63,102.39
1367,D4,116.0,0.188,63,102.39
1368,G3,116.0,0.188,63,102.39
1369,G3,116.25,0.188,63,102.39
1370,D4,116.25,0.188,63,102.39
1371,F4,116.25,0.188,63,102.39
1372,G3,116.5,0.188,63,102.39
1373,D4,116.5,0.188,63,102.39
1374,F4,116.5,0.188,63,102.39
1375,G3,116.75,0.188,63,102.39
1376,D4,116.75,0.188,63,102.39
1377,F4,116.75,0.188,63,102.39
1378,E5,117.0,0.5,85,102.39
1379,G4,117.0,0.5,85,102.39
1380,C3,117.0,0.25,72,102.39
1381,G3,117.25,0.188,63,102.39
1382,C4,117.25,0.188,63,102.39
1383,E4,117.25,0.188,63,102.39
1384,E4,117.5,0.188,63,102.39
1385,C4,117.5,0.188,63,102.39
1386,G3,117.5,0.188,63,102.39
1387,C4,117.75,0.125,48,102.39
1388,E4,117.75,0.125,48,102.39
1389,G4,118.0,479/1000,70,102.39
1390,G2,118.0,0.5,58,102.39
1391,C4,118.0,0.125,64,102.39
1392,E4,118.0,0.125,64,102.39
1393,C4,118.25,0.125,50,102.39
1394,E4,118.25,0.125,50,102.39
1395,G4,118.5,979/1000,70,102.39
1396,G2,118.5,0.5,62,102.39
1397,D4,118.75,0.125,56,102.39
1398,F4,118.75,0.125,56,102.39
1399,A2,119.0,0.125,52,102.39
1400,D4,119.0,0.125,52,102.39
1401,F4,119.0,0.125,52,102.39
1402,B2,119.25,0.125,50,102.39
1403,D4,119.25,0.125,50,102.39
1404,F4,119.25,0.125,50,102.39
1405,G4,119.5,479/1000,70,102.39
1406,C3,119.5,0.125,76,102.39
1407,D3,119.75,0.125,78,102.39
1408,D4,119.75,0.125,78,102.39
1409,F4,119.75,0.125,78,102.39
1410,G4,120.0,0.5,79,102.39
1411,E3,120.0,1.5,84,102.39
1412,G3,120.25,0.125,63,102.39
1413,E4,120.25,0.125,63,102.39
1414,C4,120.25,0.125,63,102.39
1415,A4,120.5,0.125,76,102.39
1416,C4,120.5,0.125,59,102.39
1417,E4,120.5,0.125,59,102.39
1418,G3,120.5,0.125,59,102.39
1419,B4,120.75,0.125,77,102.39
1420,C4,120.75,0.125,61,102.39
1421,E4,120.75,0.125,61,102.39
1422,G3,120.75,0.125,61,102.39
1423,C5,121.0,0.125,79,102.39
1424,C4,121.0,0.125,63,102.39
1425,E4,121.0,0.125,63,102.39
1426,G3,121.0,0.125,63,102.39
1427,D5,121.25,0.125,83,102.39
1428,C4,121.25,0.125,65,102.39
1429,E4,121.25,0.125,65,102.39
1430,G3,121.25,0.125,65,102.39
1431,E5,121.5,1.5,85,102.39
1432,E4,121.5,1.5,85,102.39
1433,G#2,121.5,0.25,72,102.39
1434,E3,121.75,0.188,56,102.39
1435,B3,121.75,0.188,56,102.39
1436,D4,121.75,0.188,56,102.39
1437,D4,122.0,0.188,63,102.39
1438,B3,122.0,0.188,63,102.39
1439,E3,122.0,0.188,63,102.39
1440,E3,122.25,0.188,56,102.39
1441,B3,122.25,0.188,56,102.39
1442,D4,122.25,0.188,56,102.39
1443,E3,122.5,0.188,63,102.39
1444,B3,122.5,0.188,63,102.39
1445,D4,122.5,0.188,63,102.39
1446,E3,122.75,0.188,56,102.39
1447,B3,122.75,0.188,56,102.39
1448,D4,122.75,0.188,56,102.39
1449,C5,123.0,0.5,85,102.39
1450,E4,123.0,0.5,85,102.39
1451,A2,123.0,0.25,72,102.39
1452,A3,123.25,0.188,64,102.39
1453,C4,123.25,0.188,64,102.39
1454,C4,123.5,0.188,64,102.39
1455,A3,123.5,0.188,64,102.39
1456,G3,123.75,0.188,63,102.39
1457,A3,123.75,0.188,63,102.39
1458,C4,123.75,0.188,63,102.39
1459,C5,124.0,479/1000,70,102.39
1460,G3,124.0,0.188,63,102.39
1461,A3,124.0,0.188,63,102.39
1462,C4,124.0,0.188,63,102.39
1463,F#3,124.25,0.188,63,102.39
1464,A3,124.25,0.188,63,102.39
1465,C4,124.25,0.188,63,102.39
1466,B4,124.5,0.5,79,102.39
1467,E-3,124.5,0.125,70,102.39
1468,F#3,124.5,0.125,70,102.39
1469,A3,124.5,0.125,70,102.39
1470,B3,124.5,0.125,70,102.39
1471,F#3,124.75,127/1000,47,102.39
1472,E-3,124.75,127/1000,47,102.39
1473,A3,124.75,127/1000,47,102.39
1474,B3,124.75,127/1000,47,102.39
1475,C#5,125.0,0.125,78,102.39
1476,F#3,125.0,127/1000,53,102.39
1477,B3,125.0,127/1000,53,102.39
1478,A3,125.0,127/1000,53,102.39
1479,E-3,125.0,127/1000,53,102.39
1480,E-5,125.25,0.125,84,102.39
1481,F#3,125.25,127/1000,54,102.39
1482,E-3,125.25,127/1000,54,102.39
1483,A3,125.25,127/1000,54,102.39
1484,B3,125.25,127/1000,54,102.39
1485,E5,125.5,0.125,85,102.39
1486,F#3,125.5,127/1000,56,102.39
1487,E-3,125.5,127/1000,56,102.39
1488,A3,125.5,127/1000,56,102.39
1489,B3,125.5,127/1000,56,102.39
1490,F#5,125.75,0.125,87,102.39
1491,F#3,125.75,127/1000,57,102.39
1492,E-3,125.75,127/1000,57,102.39
1493,A3,125.75,127/1000,57,102.39
1494,B3,125.75,127/1000,57,102.39
1495,G5,126.0,0.5,94,102.39
1496,E3,126.0,0.5,59,102.39
1497,G3,126.0,0.5,59,102.39
1498,B3,126.0,0.5,59,102.39
1499,E5,126.5,0.5,87,102.39
1500,E4,126.75,0.125,59,102.39
1501,G4,126.75,0.125,59,102.39
1502,C5,127.0,0.5,87,102.39
1503,E4,127.0,0.125,61,102.39
1504,G4,127.0,0.125,61,102.39
1505,G4,127.25,0.125,59,102.39
1506,E4,127.25,0.125,59,102.39
1507,G5,127.5,0.5,94,102.39
1508,E5,128.0,0.5,86,102.39
1509,D4,128.25,0.125,55,102.39
1510,F#4,128.25,0.125,55,102.39
1511,G4,128.25,0.125,55,102.39
1512,B4,128.5,0.5,84,102.39
1513,D4,128.5,0.125,57,102.39
1514,F#4,128.5,0.125,57,102.39
1515,G4,128.5,0.125,57,102.39
1516,D4,128.75,0.125,54,102.39
1517,G4,128.75,0.125,54,102.39
1518,F#4,128.75,0.125,54,102.39
1519,G5,129.0,0.5,89,102.39
1520,E5,129.5,0.5,81,102.39
1521,C#4,129.75,0.125,53,102.39
1522,E4,129.75,0.125,53,102.39
1523,G4,129.75,0.125,53,102.39
1524,B-4,130.0,0.5,80,102.39
1525,C#4,130.0,0.125,54,102.39
1526,E4,130.0,0.125,54,102.39
1527,G4,130.0,0.125,54,102.39
1528,C#4,130.25,0.125,52,102.39
1529,G4,130.25,0.125,52,102.39
1530,E4,130.25,0.125,52,102.39
1531,F#5,130.5,0.5,84,102.39
1532,D5,131.0,0.5,77,102.39
1533,D4,131.25,0.125,52,102.39
1534,F#4,131.25,0.125,52,102.39
1535,B4,131.5,0.5,75,102.39
1536,D4,131.5,0.125,52,102.39
1537,F#4,131.5,0.125,52,102.39
1538,D4,131.75,0.125,50,102.39
1539,F#4,131.75,0.125,50,102.39
1540,D5,132.0,0.5,79,102.39
1541,B4,132.5,0.5,73,102.39
1542,B3,132.75,0.125,48,102.39
1543,D4,132.75,0.125,48,102.39
1544,G4,133.0,0.5,71,102.39
1545,B3,133.0,0.125,50,102.39
1546,D4,133.0,0.125,50,102.39
1547,B3,133.25,0.125,47,102.39
1548,D4,133.25,0.125,47,102.39
1549,B4,133.5,0.5,70,102.39
1550,G4,134.0,0.5,59,102.39
1551,G3,134.25,0.125,38,102.39
1552,B3,134.25,0.125,38,102.39
1553,D4,134.5,0.5,54,102.39
1554,G3,134.5,0.125,38,102.39
1555,B3,134.5,0.125,38,102.39
1556,G3,134.75,0.125,35,102.39
1557,B3,134.75,0.125,35,102.39
1558,G4,135.0,0.5,52,102.39
1559,D4,135.5,0.5,48,102.39
1560,D3,135.75,0.125,33,102.39
1561,G3,135.75,0.125,33,102.39
1562,B3,136.0,0.5,48,102.39
1563,D3,136.0,0.125,34,102.39
1564,G3,136.0,0.125,34,102.39
1565,D3,136.25,0.125,33,102.39
1566,G3,136.25,0.125,33,102.39
1567,D4,136.5,0.5,52,102.39
1568,B3,137.0,0.5,48,102.39
1569,G2,137.25,0.125,33,102.39
1570,B2,137.25,0.125,33,102.39
1571,F3,137.5,0.5,48,102.39
1572,G2,137.5,0.125,34,102.39
1573,B2,137.5,0.125,34,102.39
1574,G2,137.75,0.125,33,102.39
1575,B2,137.75,0.125,33,102.39
1576,F#3,138.0,0.375,52,102.39
1577,F#2,138.0,0.375,36,102.39
1578,B-2,138.0,0.375,36,102.39
1579,B-4,138.5,0.125,57,102.39
1580,B-3,138.5,0.125,57,102.39
1581,B4,138.75,0.125,60,102.39
1582,B3,138.75,0.125,60,102.39
1583,C#5,139.0,0.125,62,102.39
1584,C#4,139.0,0.125,62,102.39
1585,D5,139.25,0.125,64,102.39
1586,D4,139.25,0.125,64,102.39
1587,E4,139.5,1.5,72,102.39
1588,E5,139.5,1.5,72,102.39
1589,G3,139.75,0.125,38,102.39
1590,E3,139.75,0.125,38,102.39
1591,C#3,139.75,0.125,38,102.39
1592,B2,139.75,0.125,38,102.39
1593,B2,140.0,0.125,42,102.39
1594,C#3,140.0,0.125,42,102.39
1595,E3,140.0,0.125,42,102.39
1596,G3,140.0,0.125,42,102.39
1597,G3,140.25,0.125,38,102.39
1598,E3,140.25,0.125,38,102.39
1599,C#3,140.25,0.125,38,102.39
1600,B2,140.25,0.125,38,102.39
1601,B2,140.5,0.125,44,102.39
1602,C#3,140.5,0.125,44,102.39
1603,E3,140.5,0.125,44,102.39
1604,G3,140.5,0.125,44,102.39
1605,G3,140.75,0.125,38,102.39
1606,E3,140.75,0.125,38,102.39
1607,C#3,140.75,0.125,38,102.39
1608,B2,140.75,0.125,38,102.39
1609,B-2,141.0,0.5,52,102.39
1610,C#3,141.0,0.5,52,102.39
1611,F#3,141.0,0.5,52,102.39
1612,F#4,141.25,0.125,65,102.39
1613,F#5,141.25,0.125,65,102.39
1614,B-5,141.5,0.125,65,102.39
1615,B-4,141.5,0.125,65,102.39
1616,B5,141.75,0.125,68,102.39
1617,B4,141.75,0.125,68,102.39
1618,C#6,142.0,0.125,70,102.39
1619,C#5,142.0,0.125,70,102.39
1620,D6,142.25,0.125,74,102.39
1621,D5,142.25,0.125,74,102.39
1622,E5,142.5,1.5,82,102.39
1623,E6,142.5,1.5,82,102.39
1624,G3,142.75,0.125,38,102.39
1625,E3,142.75,0.125,38,102.39
1626,C#3,142.75,0.125,38,102.39
1627,B2,142.75,0.125,38,102.39
1628,B2,143.0,0.125,42,102.39
1629,C#3,143.0,0.125,42,102.39
1630,E3,143.0,0.125,42,102.39
1631,G3,143.0,0.125,42,102.39
1632,G3,143.25,0.125,38,102.39
1633,E3,143.25,0.125,38,102.39
1634,C#3,143.25,0.125,38,102.39
1635,B2,143.25,0.125,38,102.39
1636,B2,143.5,0.125,44,102.39
1637,C#3,143.5,0.125,44,102.39
1638,E3,143.5,0.125,44,102.39
1639,G3,143.5,0.125,44,102.39
1640,G3,143.75,0.125,38,102.39
1641,E3,143.75,0.125,38,102.39
1642,C#3,143.75,0.125,38,102.39
1643,B2,143.75,0.125,38,102.39
1644,B-2,144.0,0.5,52,102.39
1645,C#3,144.0,0.5,52,102.39
1646,F#3,144.0,0.5,52,102.39
1647,E5,144.188,0.188,82,102.39
1648,E6,144.188,0.188,82,102.39
1649,F#4,144.438,0.25,53,102.39
1650,B-4,144.688,0.25,53,102.39
1651,B4,144.938,0.25,53,102.39
1652,C#5,145.188,0.25,55,102.39
1653,F#3,145.25,0.25,47,102.39
1654,D5,145.438,0.25,56,102.39
1655,A3,145.5,0.25,48,102.39
1656,E5,145.688,229/1000,57,102.39
1657,B3,145.75,0.25,43,102.39
1658,F#4,145.938,0.25,51,102.39
1659,C#4,146.0,0.25,43,102.39
1660,B-4,146.188,0.25,51,102.39
1661,D4,146.25,0.25,45,102.39
1662,B4,146.438,0.25,53,102.39
1663,E4,146.5,229/1000,50,102.39
1664,C#5,146.688,0.25,54,102.39
1665,A3,146.75,0.25,46,102.39
1666,D5,146.938,0.25,55,102.39
1667,C#4,147.0,0.25,47,102.39
1668,E5,147.188,229/1000,58,102.39
1669,D4,147.25,0.25,47,102.39
1670,B-4,147.438,0.25,56,102.39
1671,E4,147.5,0.25,47,102.39
1672,C#5,147.688,0.25,56,102.39
1673,F#4,147.75,0.25,48,102.39
1674,D5,147.938,0.25,57,102.39
1675,G4,148.0,229/1000,53,102.39
1676,E5,148.188,0.25,63,102.39
1677,B-3,148.25,0.25,50,102.39
1678,F#5,148.438,0.25,67,102.39
1679,C#4,148.5,229/1000,50,102.39
1680,G5,148.688,229/1000,68,102.39
1681,D4,148.75,0.25,52,102.39
1682,B-4,148.938,0.25,62,102.39
1683,E4,149.0,0.25,53,102.39
1684,C#5,149.188,0.25,63,102.39
1685,F#4,149.25,0.25,56,102.39
1686,D5,149.438,0.25,67,102.39
1687,G4,149.5,229/1000,57,102.39
1688,E5,149.688,0.25,68,102.39
1689,F#4,149.75,0.25,56,102.39
1690,F#5,149.938,0.25,71,102.39
1691,E4,150.0,0.25,55,102.39
1692,G5,150.188,0.25,70,102.39
1693,F#4,150.25,0.25,54,102.39
1694,F#5,150.438,0.25,64,102.39
1695,G4,150.5,0.25,59,102.39
1696,E5,150.688,0.25,70,102.39
1697,F#4,150.75,0.25,56,102.39
1698,D5,150.938,0.25,66,102.39
1699,E4,151.0,0.25,55,102.39
1700,C#5,151.188,0.25,70,102.39
1701,D4,151.25,0.25,53,102.39
1702,D5,151.438,0.25,69,102.39
1703,C#4,151.5,0.25,57,102.39
1704,E5,151.688,0.25,76,102.39
1705,D4,151.75,0.25,53,102.39
1706,D5,151.938,0.25,63,102.39
1707,E4,152.0,0.25,56,102.39
1708,C#5,152.188,0.25,66,102.39
1709,D4,152.25,0.25,50,102.39
1710,B4,152.438,0.25,59,102.39
1711,C#4,152.5,0.25,53,102.39
1712,B-4,152.688,0.25,63,102.39
1713,B3,152.75,0.25,50,102.39
1714,B4,152.938,0.25,59,102.39
1715,B-3,153.0,0.25,48,102.39
1716,C#5,153.188,0.25,62,102.39
1717,B3,153.25,0.25,42,102.39
1718,B-4,153.438,0.25,50,102.39
1719,C#4,153.5,0.25,50,102.39
1720,G4,153.688,0.25,59,102.39
1721,B-3,153.75,0.25,43,102.39
1722,F#4,153.938,0.25,51,102.39
1723,G3,154.0,0.25,49,102.39
1724,E4,154.188,0.25,58,102.39
1725,F#3,154.25,0.25,43,102.39
1726,F#4,154.438,0.25,51,102.39
1727,E3,154.5,0.25,46,102.39
1728,G4,154.688,0.25,55,102.39
1729,F#3,154.75,0.25,40,102.39
1730,E4,154.938,0.25,48,102.39
1731,G3,155.0,0.25,43,102.39
1732,C#4,155.188,0.25,51,102.39
1733,E3,155.25,0.25,40,102.39
1734,B3,155.438,0.25,48,102.39
1735,D3,155.5,0.25,40,102.39
1736,B-3,155.688,0.25,48,102.39
1737,F#4,155.688,0.375,50,102.39
1738,C#3,155.75,0.25,40,102.39
1739,B3,155.938,0.25,48,102.39
1740,C#4,156.0,0.125,44,102.39
1741,B-2,156.0,0.125,44,102.39
1742,F#4,156.188,0.5,56,102.39
1743,F#3,156.25,0.125,36,102.39
1744,C#4,156.25,0.125,36,102.39
1745,E4,156.25,0.125,36,102.39
1746,F#3,156.5,0.125,40,102.39
1747,C#4,156.5,0.125,40,102.39
1748,E4,156.5,0.125,40,102.39
1749,G#4,156.688,0.125,58,102.39
1750,F#3,156.75,0.125,43,102.39
1751,C#4,156.75,0.125,43,102.39
1752,E4,156.75,0.125,43,102.39
1753,B-4,156.938,0.125,59,102.39
1754,F#3,157.0,0.125,46,102.39
1755,C#4,157.0,0.125,46,102.39
1756,E4,157.0,0.125,46,102.39
1757,B4,157.188,0.125,63,102.39
1758,F#3,157.25,0.125,50,102.39
1759,C#4,157.25,0.125,50,102.39
1760,E4,157.25,0.125,50,102.39
1761,C#5,157.438,0.125,66,102.39
1762,B2,157.5,0.125,60,102.39
1763,D5,157.688,0.5,74,102.39
1764,D4,157.75,0.125,37,102.39
1765,B3,157.75,0.125,37,102.39
1766,F#3,157.75,0.125,37,102.39
1767,F#3,158.0,0.125,45,102.39
1768,B3,158.0,0.125,45,102.39
1769,D4,158.0,0.125,45,102.39
1770,B-4,158.188,0.5,63,102.39
1771,F#3,158.25,0.125,42,102.39
1772,B3,158.25,0.125,42,102.39
1773,D4,158.25,0.125,42,102.39
1774,D4,158.5,0.125,48,102.39
1775,B3,158.5,0.125,48,102.39
1776,F#3,158.5,0.125,48,102.39
1777,B4,158.688,0.5,64,102.39
1778,F#3,158.75,0.125,46,102.39
1779,B3,158.75,0.125,46,102.39
1780,D4,158.75,0.125,46,102.39
1781,G2,159.0,0.125,60,102.39
1782,E5,159.188,0.5,68,102.39
1783,E4,159.25,0.125,38,102.39
1784,B3,159.25,0.125,38,102.39
1785,G3,159.25,0.125,38,102.39
1786,G3,159.5,0.125,42,102.39
1787,B3,159.5,0.125,42,102.39
1788,E4,159.5,0.125,42,102.39
1789,B-4,159.688,0.5,59,102.39
1790,G3,159.75,0.125,40,102.39
1791,B3,159.75,0.125,40,102.39
1792,E4,159.75,0.125,40,102.39
1793,G3,160.0,0.125,44,102.39
1794,B3,160.0,0.125,44,102.39
1795,E4,160.0,0.125,44,102.39
1796,B4,160.188,0.5,63,102.39
1797,G3,160.25,0.125,50,102.39
1798,B3,160.25,0.125,50,102.39
1799,E4,160.25,0.125,50,102.39
1800,F#2,160.5,0.125,65,102.39
1801,C#5,160.688,1.0,72,102.39
1802,E4,160.75,0.125,47,102.39
1803,B-3,160.75,0.125,47,102.39
1804,F#3,160.75,0.125,47,102.39
1805,E4,161.0,0.125,50,102.39
1806,B-3,161.0,0.125,50,102.39
1807,F#3,161.0,0.125,50,102.39
1808,E4,161.25,0.125,54,102.39
1809,B-3,161.25,0.125,54,102.39
1810,F#3,161.25,0.125,54,102.39
1811,E4,161.5,0.125,39,102.39
1812,C#4,161.5,0.125,39,102.39
1813,F#3,161.5,0.125,39,102.39
1814,F#4,161.688,0.375,61,102.39
1815,F#3,161.75,0.125,37,102.39
1816,C#4,161.75,0.125,37,102.39
1817,E4,161.75,0.125,37,102.39
1818,B-2,162.0,0.125,46,102.39
1819,F#4,162.188,0.5,64,102.39
1820,F#3,162.25,0.125,41,102.39
1821,C#4,162.25,0.125,41,102.39
1822,E4,162.25,0.125,41,102.39
1823,F#3,162.5,0.125,46,102.39
1824,C#4,162.5,0.125,46,102.39
1825,E4,162.5,0.125,46,102.39
1826,G#4,162.688,0.125,66,102.39
1827,F#3,162.75,0.125,48,102.39
1828,C#4,162.75,0.125,48,102.39
1829,E4,162.75,0.125,48,102.39
1830,B-4,162.938,0.125,67,102.39
1831,F#3,163.0,0.125,52,102.39
1832,C#4,163.0,0.125,52,102.39
1833,E4,163.0,0.125,52,102.39
1834,B4,163.188,0.125,72,102.39
1835,F#3,163.25,0.125,56,102.39
1836,C#4,163.25,0.125,56,102.39
1837,E4,163.25,0.125,56,102.39
1838,C#5,163.438,0.125,75,102.39
1839,B2,163.5,0.125,69,102.39
1840,D5,163.688,0.5,85,102.39
1841,D4,163.75,0.125,42,102.39
1842,B3,163.75,0.125,42,102.39
1843,F#3,163.75,0.125,42,102.39
1844,F#3,164.0,0.125,51,102.39
1845,B3,164.0,0.125,51,102.39
1846,D4,164.0,0.125,51,102.39
1847,B-4,164.188,0.5,72,102.39
1848,F#3,164.25,0.125,48,102.39
1849,B3,164.25,0.125,48,102.39
1850,D4,164.25,0.125,48,102.39
1851,D4,164.5,0.125,55,102.39
1852,B3,164.5,0.125,55,102.39
1853,F#3,164.5,0.125,55,102.39
1854,B4,164.688,0.5,73,102.39
1855,F#3,164.75,0.125,53,102.39
1856,B3,164.75,0.125,53,102.39
1857,D4,164.75,0.125,53,102.39
1858,G2,165.0,0.125,77,102.39
1859,E5,165.188,0.5,87,102.39
1860,E4,165.25,0.125,48,102.39
1861,B3,165.25,0.125,48,102.39
1862,G3,165.25,0.125,48,102.39
1863,G3,165.5,0.125,54,102.39
1864,B3,165.5,0.125,54,102.39
1865,E4,165.5,0.125,54,102.39
1866,B-4,165.688,0.5,75,102.39
1867,G3,165.75,0.125,52,102.39
1868,B3,165.75,0.125,52,102.39
1869,E4,165.75,0.125,52,102.39
1870,G3,166.0,0.125,56,102.39
1871,B3,166.0,0.125,56,102.39
1872,E4,166.0,0.125,56,102.39
1873,B4,166.188,0.5,81,102.39
1874,G3,166.25,0.125,64,102.39
1875,B3,166.25,0.125,64,102.39
1876,E4,166.25,0.125,64,102.39
1877,F#2,166.5,0.125,83,102.39
1878,C#5,166.688,1.0,93,102.39
1879,F#3,166.75,0.125,58,102.39
1880,B-3,166.75,0.125,58,102.39
1881,E4,166.75,0.125,58,102.39
1882,F#3,167.0,0.125,65,102.39
1883,B-3,167.0,0.125,65,102.39
1884,E4,167.0,0.125,65,102.39
1885,F#3,167.25,0.125,56,102.39
1886,B-3,167.25,0.125,56,102.39
1887,E4,167.25,0.125,56,102.39
1888,F#3,167.5,0.125,65,102.39
1889,B-3,167.5,0.125,65,102.39
1890,E4,167.5,0.125,65,102.39
1891,F#4,167.688,0.375,81,102.39
1892,F#3,167.75,0.125,58,102.39
1893,B-3,167.75,0.125,58,102.39
1894,E4,167.75,0.125,58,102.39
1895,E4,168.0,0.125,57,102.39
1896,B-3,168.0,0.125,57,102.39
1897,F#3,168.0,0.125,57,102.39
1898,F#4,168.188,49/100,89,102.39
1899,E4,168.25,0.125,52,102.39
1900,B-3,168.25,0.125,52,102.39
1901,F#3,168.25,0.125,52,102.39
1902,F#4,168.5,0.125,54,102.39
1903,E4,168.5,0.125,54,102.39
1904,B-3,168.5,0.125,54,102.39
1905,F#3,168.5,0.125,54,102.39
1906,G#4,168.688,0.125,84,102.39
1907,F#4,168.75,0.125,58,102.39
1908,E4,168.75,0.125,58,102.39
1909,B-3,168.75,0.125,58,102.39
1910,F#3,168.75,0.125,58,102.39
1911,B-4,168.938,0.125,85,102.39
1912,F#4,169.0,0.125,60,102.39
1913,E4,169.0,0.125,60,102.39
1914,B-3,169.0,0.125,60,102.39
1915,F#3,169.0,0.125,60,102.39
1916,B4,169.188,0.125,89,102.39
1917,F#4,169.25,0.125,64,102.39
1918,E4,169.25,0.125,64,102.39
1919,B-3,169.25,0.125,64,102.39
1920,F#3,169.25,0.125,64,102.39
1921,C#5,169.438,0.125,93,102.39
1922,F#4,169.688,0.5,90,102.39
1923,D5,169.688,0.5,90,102.39
1924,D4,169.75,0.125,59,102.39
1925,B3,169.75,0.125,59,102.39
1926,E4,170.188,0.5,71,102.39
1927,B-4,170.188,0.5,71,102.39
1928,C#4,170.25,0.125,54,102.39
1929,F#3,170.25,0.125,54,102.39
1930,D4,170.688,0.5,78,102.39
1931,B4,170.688,0.5,78,102.39
1932,G3,170.75,0.125,56,102.39
1933,B3,170.75,0.125,56,102.39
1934,C4,171.188,0.5,80,102.39
1935,F#4,171.188,0.5,80,102.39
1936,A3,171.25,0.125,59,102.39
1937,E-3,171.25,0.125,59,102.39
1938,B3,171.688,0.5,71,102.39
1939,G4,171.688,0.5,71,102.39
1940,G3,171.75,0.125,54,102.39
1941,E3,171.75,0.125,54,102.39
1942,C4,172.188,0.5,78,102.39
1943,F#4,172.188,0.5,78,102.39
1944,E-3,172.25,0.125,56,102.39
1945,A3,172.25,0.125,56,102.39
1946,B3,172.688,0.5,80,102.39
1947,G4,172.688,0.5,80,102.39
1948,G3,172.75,0.125,59,102.39
1949,E3,172.75,0.125,59,102.39
1950,F4,173.188,0.5,81,102.39
1951,B4,173.188,0.5,81,102.39
1952,D4,173.25,0.125,54,102.39
1953,G#3,173.25,0.125,54,102.39
1954,E4,173.688,0.5,78,102.39
1955,C#5,173.688,0.5,78,102.39
1956,A3,173.75,0.125,56,102.39
1957,C#4,173.75,0.125,56,102.39
1958,D4,174.188,0.5,80,102.39
1959,G#4,174.188,0.5,80,102.39
1960,B3,174.25,0.125,59,102.39
1961,F3,174.25,0.125,59,102.39
1962,C#4,174.688,0.5,71,102.39
1963,A4,174.688,0.5,71,102.39
1964,A3,174.75,0.125,54,102.39
1965,F#3,174.75,0.125,54,102.39
1966,D4,175.188,0.5,78,102.39
1967,G#4,175.188,0.5,78,102.39
1968,F3,175.25,0.125,56,102.39
1969,B3,175.25,0.125,56,102.39
1970,C#4,175.688,0.5,80,102.39
1971,A4,175.688,0.5,80,102.39
1972,A3,175.75,0.125,59,102.39
1973,F#3,175.75,0.125,59,102.39
1974,B4,176.188,0.5,81,102.39
1975,F5,176.188,0.5,81,102.39
1976,G#4,176.25,0.125,54,102.39
1977,C#4,176.25,0.125,54,102.39
1978,A4,176.688,0.5,78,102.39
1979,F#5,176.688,0.5,78,102.39
1980,D4,176.75,0.125,56,102.39
1981,F#4,176.75,0.125,56,102.39
1982,G4,177.188,0.5,80,102.39
1983,C#5,177.188,0.5,80,102.39
1984,E4,177.25,0.125,59,102.39
1985,B-3,177.25,0.125,59,102.39
1986,F#4,177.688,0.5,71,102.39
1987,D5,177.688,0.5,71,102.39
1988,D4,177.75,0.125,54,102.39
1989,B3,177.75,0.125,54,102.39
1990,G4,178.188,0.5,78,102.39
1991,C#5,178.188,0.5,78,102.39
1992,B-3,178.25,0.125,56,102.39
1993,E4,178.25,0.125,56,102.39
1994,F#4,178.688,0.5,80,102.39
1995,D5,178.688,0.5,80,102.39
1996,D4,178.75,0.125,59,102.39
1997,B3,178.75,0.125,59,102.39
1998,B-3,179.188,0.5,81,102.39
1999,B-4,179.188,0.5,81,102.39
2000,F#3,179.25,0.125,54,102.39
2001,D3,179.25,0.125,54,102.39
2002,B3,179.688,0.5,78,102.39
2003,B4,179.688,0.5,78,102.39
2004,E-3,179.75,0.125,56,102.39
2005,F#3,179.75,0.125,56,102.39
2006,C#4,180.188,0.5,80,102.39
2007,C#5,180.188,0.5,80,102.39
2008,E3,180.25,0.125,57,102.39
2009,B3,180.25,0.125,57,102.39
2010,G3,180.25,0.125,57,102.39
2011,D4,180.688,0.5,81,102.39
2012,D5,180.688,0.5,81,102.39
2013,B3,180.75,0.125,54,102.39
2014,F#3,180.75,0.125,54,102.39
2015,E4,181.188,0.5,80,102.39
2016,E5,181.188,0.5,80,102.39
2017,G3,181.25,0.125,56,102.39
2018,B3,181.25,0.125,56,102.39
2019,F#4,181.688,0.5,82,102.39
2020,F#5,181.688,0.5,82,102.39
2021,F#3,181.75,0.125,58,102.39
2022,D4,181.75,0.125,58,102.39
2023,B3,181.75,0.125,58,102.39
2024,F4,182.188,0.5,84,102.39
2025,F5,182.188,0.5,84,102.39
2026,B3,182.25,0.125,55,102.39
2027,D4,182.25,0.125,55,102.39
2028,F#3,182.25,0.125,55,102.39
2029,F#4,182.688,0.5,83,102.39
2030,F#5,182.688,0.5,83,102.39
2031,B3,182.75,0.125,58,102.39
2032,F#3,182.75,0.125,58,102.39
2033,D4,182.75,0.125,58,102.39
2034,G4,183.188,0.5,86,102.39
2035,G5,183.188,0.5,86,102.39
2036,F#3,183.25,0.125,62,102.39
2037,E4,183.25,0.125,62,102.39
2038,B-3,183.25,0.125,62,102.39
2039,G#4,183.688,0.5,88,102.39
2040,G#5,183.688,0.5,88,102.39
2041,B3,183.75,0.125,57,102.39
2042,E4,183.75,0.125,57,102.39
2043,F#3,183.75,0.125,57,102.39
2044,B-4,184.188,0.5,87,102.39
2045,B-5,184.188,0.5,87,102.39
2046,C#4,184.25,0.125,60,102.39
2047,F#3,184.25,0.125,60,102.39
2048,E4,184.25,0.125,60,102.39
2049,G2,184.5,0.125,95,102.39
2050,B5,184.688,1.5,102,102.39
2051,D5,184.75,0.125,65,102.39
2052,B4,184.75,0.125,65,102.39
2053,G4,184.75,0.125,65,102.39
2054,D4,184.75,0.125,65,102.39
2055,G3,184.75,0.125,65,102.39
2056,D5,185.0,0.125,71,102.39
2057,B4,185.0,0.125,71,102.39
2058,G4,185.0,0.125,71,102.39
2059,D4,185.0,0.125,71,102.39
2060,G3,185.0,0.125,71,102.39
2061,D5,185.25,0.125,70,102.39
2062,B4,185.25,0.125,70,102.39
2063,G4,185.25,0.125,70,102.39
2064,D4,185.25,0.125,70,102.39
2065,G3,185.25,0.125,70,102.39
2066,D5,185.5,0.125,73,102.39
2067,B4,185.5,0.125,73,102.39
2068,G4,185.5,0.125,73,102.39
2069,D4,185.5,0.125,73,102.39
2070,G3,185.5,0.125,73,102.39
2071,D5,185.75,0.125,65,102.39
2072,B4,185.75,0.125,65,102.39
2073,G3,185.75,0.125,65,102.39
2074,D4,185.75,0.125,65,102.39
2075,G4,185.75,0.125,65,102.39
2076,G4,186.0,0.125,71,102.39
2077,F4,186.0,0.125,71,102.39
2078,B4,186.0,0.125,71,102.39
2079,D5,186.0,0.125,71,102.39
2080,D4,186.0,0.125,71,102.39
2081,G3,186.0,0.125,71,102.39
2082,B5,186.188,0.5,102,102.39
2083,G4,186.25,0.125,65,102.39
2084,F4,186.25,0.125,65,102.39
2085,B4,186.25,0.125,65,102.39
2086,D5,186.25,0.125,65,102.39
2087,D4,186.25,0.125,65,102.39
2088,G3,186.25,0.125,65,102.39
2089,F4,186.5,0.125,74,102.39
2090,D4,186.5,0.125,74,102.39
2091,G4,186.5,0.125,74,102.39
2092,G3,186.5,0.125,74,102.39
2093,A5,186.688,0.5,95,102.39
2094,F4,186.75,0.125,71,102.39
2095,G4,186.75,0.125,71,102.39
2096,B4,186.75,0.125,71,102.39
2097,D5,186.75,0.125,71,102.39
2098,G3,186.75,0.125,71,102.39
2099,D4,186.75,0.125,71,102.39
2100,F4,187.0,0.125,79,102.39
2101,G4,187.0,0.125,79,102.39
2102,D4,187.0,0.125,79,102.39
2103,G3,187.0,0.125,79,102.39
2104,G5,187.188,0.438,99,102.39
2105,F4,187.25,0.125,65,102.39
2106,G4,187.25,0.125,65,102.39
2107,D4,187.25,0.125,65,102.39
2108,D5,187.25,0.125,65,102.39
2109,G3,187.25,0.125,65,102.39
2110,C3,187.5,0.125,95,102.39
2111,G5,187.688,0.5,107,102.39
2112,G3,187.75,0.125,63,102.39
2113,G4,187.75,0.125,63,102.39
2114,C5,187.75,0.125,63,102.39
2115,E4,187.75,0.125,63,102.39
2116,C4,187.75,0.125,63,102.39
2117,G3,188.0,0.125,69,102.39
2118,E4,188.0,0.125,69,102.39
2119,C4,188.0,0.125,69,102.39
2120,E5,188.188,0.5,95,102.39
2121,G3,188.25,0.125,71,102.39
2122,E4,188.25,0.125,71,102.39
2123,C4,188.25,0.125,71,102.39
2124,G3,188.5,0.125,70,102.39
2125,E-4,188.5,0.125,70,102.39
2126,C4,188.5,0.125,70,102.39
2127,C5,188.688,0.5,84,102.39
2128,G3,188.75,0.125,56,102.39
2129,C4,188.75,0.125,56,102.39
2130,E-4,188.75,0.125,56,102.39
2131,D3,189.0,0.125,75,102.39
2132,A4,189.188,1.0,85,102.39
2133,D4,189.25,0.125,52,102.39
2134,G4,189.25,0.125,52,102.39
2135,C4,189.25,0.125,52,102.39
2136,A3,189.25,0.125,52,102.39
2137,A3,189.5,0.125,57,102.39
2138,D4,189.5,0.125,57,102.39
2139,G4,189.5,0.125,57,102.39
2140,C4,189.5,0.125,57,102.39
2141,A3,189.75,0.125,62,102.39
2142,D4,189.75,0.125,62,102.39
2143,G4,189.75,0.125,62,102.39
2144,C4,189.75,0.125,62,102.39
2145,C4,190.0,0.125,64,102.39
2146,D4,190.0,0.125,64,102.39
2147,A3,190.0,0.125,64,102.39
2148,D5,190.188,0.5,85,102.39
2149,D4,190.25,0.125,52,102.39
2150,C4,190.25,0.125,52,102.39
2151,F#4,190.25,0.125,52,102.39
2152,A3,190.25,0.125,52,102.39
2153,A4,190.25,0.125,52,102.39
2154,G3,190.5,0.125,75,102.39
2155,B4,190.688,0.75,85,102.39
2156,D4,190.75,0.125,54,102.39
2157,G4,190.75,0.125,54,102.39
2158,B3,190.75,0.125,54,102.39
2159,B3,191.0,0.125,58,102.39
2160,D4,191.0,0.125,58,102.39
2161,G4,191.0,0.125,58,102.39
2162,B3,191.25,0.125,63,102.39
2163,D4,191.25,0.125,63,102.39
2164,G4,191.25,0.125,63,102.39
2165,B4,191.438,0.125,90,102.39
2166,D4,191.5,0.125,64,102.39
2167,G4,191.5,0.125,64,102.39
2168,B3,191.5,0.125,64,102.39
2169,D5,191.688,0.125,93,102.39
2170,D4,191.75,0.125,53,102.39
2171,B3,191.75,0.125,53,102.39
2172,G4,191.75,0.125,53,102.39
2173,G5,191.938,0.125,100,102.39
2174,G2,192.0,0.125,75,102.39
2175,B5,192.188,0.5,102,102.39
2176,F4,192.25,0.125,61,102.39
2177,G3,192.25,0.125,61,102.39
2178,G4,192.25,0.125,61,102.39
2179,B4,192.25,0.125,61,102.39
2180,D5,192.25,0.125,61,102.39
2181,D4,192.25,0.125,61,102.39
2182,F4,192.5,0.125,69,102.39
2183,G3,192.5,0.125,69,102.39
2184,D4,192.5,0.125,69,102.39
2185,G4,192.5,0.125,69,102.39
2186,A5,192.688,0.5,95,102.39
2187,F4,192.75,0.125,70,102.39
2188,G3,192.75,0.125,70,102.39
2189,G4,192.75,0.125,70,102.39
2190,B4,192.75,0.125,70,102.39
2191,D5,192.75,0.125,70,102.39
2192,D4,192.75,0.125,70,102.39
2193,F4,193.0,0.125,75,102.39
2194,G3,193.0,0.125,75,102.39
2195,G4,193.0,0.125,75,102.39
2196,D4,193.0,0.125,75,102.39
2197,G5,193.188,0.438,99,102.39
2198,F4,193.25,0.125,65,102.39
2199,B4,193.25,0.125,65,102.39
2200,G3,193.25,0.125,65,102.39
2201,G4,193.25,0.125,65,102.39
2202,D4,193.25,0.125,65,102.39
2203,D5,193.25,0.125,65,102.39
2204,C3,193.5,0.125,95,102.39
2205,G5,193.688,0.5,107,102.39
2206,G4,193.75,0.125,57,102.39
2207,C5,193.75,0.125,57,102.39
2208,G3,193.75,0.125,57,102.39
2209,E4,193.75,0.125,57,102.39
2210,C4,193.75,0.125,57,102.39
2211,G3,194.0,0.125,62,102.39
2212,E4,194.0,0.125,62,102.39
2213,C4,194.0,0.125,62,102.39
2214,E5,194.188,0.5,86,102.39
2215,G3,194.25,0.125,61,102.39
2216,E4,194.25,0.125,61,102.39
2217,C4,194.25,0.125,61,102.39
2218,G3,194.5,0.125,57,102.39
2219,E4,194.5,0.125,57,102.39
2220,C4,194.5,0.125,57,102.39
2221,C5,194.688,0.5,68,102.39
2222,G3,194.75,0.125,43,102.39
2223,C4,194.75,0.125,43,102.39
2224,E4,194.75,0.125,43,102.39
2225,C3,195.0,1.5,55,102.39
2226,A4,195.188,1.0,62,102.39
2227,C4,195.25,0.125,44,102.39
2228,F4,195.25,0.125,44,102.39
2229,A3,195.5,0.5,50,102.39
2230,C4,195.5,0.125,52,102.39
2231,F4,195.5,0.125,52,102.39
2232,C4,195.75,0.125,44,102.39
2233,F4,195.75,0.125,44,102.39
2234,G#3,196.0,0.5,54,102.39
2235,C5,196.188,0.5,62,102.39
2236,C4,196.25,0.125,44,102.39
2237,F4,196.25,0.125,44,102.39
2238,G3,196.5,1.0,54,102.39
2239,C3,196.5,1.0,55,102.39
2240,G4,196.688,1.0,62,102.39
2241,C4,196.75,0.125,44,102.39
2242,E4,196.75,0.125,44,102.39
2243,C4,197.0,0.125,52,102.39
2244,E4,197.0,0.125,52,102.39
2245,C4,197.25,0.125,44,102.39
2246,E4,197.25,0.125,44,102.39
2247,C5,197.688,0.5,52,102.39
2248,C4,197.75,0.125,37,102.39
2249,E4,197.75,0.125,37,102.39
2250,F3,198.0,1.5,46,102.39
2251,C3,198.0,1.5,46,102.39
2252,A4,198.188,1.0,52,102.39
2253,C4,198.25,0.125,37,102.39
2254,F4,198.25,0.125,37,102.39
2255,A3,198.5,0.5,42,102.39
2256,C4,198.5,0.125,44,102.39
2257,F4,198.5,0.125,44,102.39
2258,C4,198.75,0.125,37,102.39
2259,F4,198.75,0.125,37,102.39
2260,G#3,199.0,0.5,45,102.39
2261,C5,199.188,0.5,52,102.39
2262,C4,199.25,0.125,37,102.39
2263,F4,199.25,0.125,37,102.39
2264,C3,199.5,1.5,46,102.39
2265,E3,199.5,1.5,46,102.39
2266,G3,199.5,1.5,46,102.39
2267,G4,199.688,1.0,52,102.39
2268,C4,199.75,0.125,34,102.39
2269,E4,199.75,0.125,34,102.39
2270,C4,200.0,0.125,42,102.39
2271,E4,200.0,0.125,42,102.39
2272,C4,200.25,0.125,36,102.39
2273,E4,200.25,0.125,36,102.39
2274,C4,200.5,0.125,50,102.39
2275,E4,200.5,0.125,50,102.39
2276,C4,200.75,0.125,38,102.39
2277,E4,200.75,0.125,38,102.39
2278,E4,201.0,0.125,39,102.39
2279,C4,201.0,0.125,39,102.39
2280,C4,201.25,0.125,40,102.39
2281,E4,201.25,0.125,40,102.39
2282,C4,201.5,0.125,42,102.39
2283,E4,201.5,0.125,42,102.39
2284,C4,201.75,0.125,42,102.39
2285,E4,201.75,0.125,42,102.39
2286,C5,202.188,0.5,57,102.39
2287,E4,202.25,0.125,40,102.39
2288,G4,202.25,0.125,40,102.39
2289,B4,202.688,1.0,63,102.39
2290,E-4,202.75,0.125,37,102.39
2291,F#4,202.75,0.125,37,102.39
2292,E-2,203.0,0.5,56,102.39
2293,E-3,203.0,0.5,56,102.39
2294,E-4,203.0,0.125,46,102.39
2295,F#4,203.0,0.125,46,102.39
2296,E-4,203.25,0.125,39,102.39
2297,F#4,203.25,0.125,39,102.39
2298,A4,203.688,0.5,57,102.39
2299,C4,203.75,0.125,41,102.39
2300,F#4,203.75,0.125,41,102.39
2301,G#4,204.188,1.0,62,102.39
2302,B3,204.25,0.125,37,102.39
2303,E4,204.25,0.125,37,102.39
2304,B3,204.5,0.125,46,102.39
2305,E4,204.5,0.125,46,102.39
2306,E2,204.5,0.5,56,102.39
2307,E3,204.5,0.5,56,102.39
2308,B3,204.75,0.125,39,102.39
2309,E4,204.75,0.125,39,102.39
2310,G4,205.188,0.5,57,102.39
2311,B3,205.25,0.125,41,102.39
2312,E4,205.25,0.125,41,102.39
2313,F#4,205.688,0.5,62,102.39
2314,B-3,205.75,0.125,41,102.39
2315,C#4,205.75,0.125,41,102.39
2316,F#2,206.0,0.5,62,102.39
2317,F#3,206.0,0.5,62,102.39
2318,B-4,206.188,0.5,67,102.39
2319,E4,206.25,0.125,45,102.39
2320,C#4,206.25,0.125,45,102.39
2321,C#5,206.688,0.5,70,102.39
2322,E4,206.75,0.125,50,102.39
2323,G4,206.75,0.125,50,102.39
2324,E5,207.188,0.5,84,102.39
2325,G4,207.25,0.125,46,102.39
2326,B-4,207.25,0.125,46,102.39
2327,B2,207.5,0.5,71,102.39
2328,B1,207.5,0.5,71,102.39
2329,E-5,207.688,0.5,77,102.39
2330,F#4,207.75,0.125,52,102.39
2331,B4,207.75,0.125,52,102.39
2332,C5,208.188,0.5,70,102.39
2333,E4,208.25,0.125,56,102.39
2334,G4,208.25,0.125,56,102.39
2335,B4,208.688,1.0,73,102.39
2336,E-4,208.75,0.125,37,102.39
2337,F#4,208.75,0.125,37,102.39
2338,E-2,209.0,0.5,56,102.39
2339,E-3,209.0,0.5,56,102.39
2340,E-4,209.0,0.125,46,102.39
2341,F#4,209.0,0.125,46,102.39
2342,E-4,209.25,0.125,39,102.39
2343,F#4,209.25,0.125,39,102.39
2344,A4,209.688,0.5,66,102.39
2345,C4,209.75,0.125,41,102.39
2346,F#4,209.75,0.125,41,102.39
2347,G#4,210.188,1.0,61,102.39
2348,B3,210.25,0.125,37,102.39
2349,E4,210.25,0.125,37,102.39
2350,B3,210.5,0.125,46,102.39
2351,E4,210.5,0.125,46,102.39
2352,E2,210.5,0.5,56,102.39
2353,E3,210.5,0.5,56,102.39
2354,B3,210.75,0.125,39,102.39
2355,E4,210.75,0.125,39,102.39
2356,G4,211.188,0.5,61,102.39
2357,B3,211.25,0.125,41,102.39
2358,E4,211.25,0.125,41,102.39
2359,F#4,211.688,0.5,62,102.39
2360,B-3,211.75,0.125,41,102.39
2361,C#4,211.75,0.125,41,102.39
2362,F#2,212.0,0.5,62,102.39
2363,F#3,212.0,0.5,62,102.39
2364,B-4,212.188,0.5,67,102.39
2365,E4,212.25,0.125,45,102.39
2366,C#4,212.25,0.125,45,102.39
2367,C#5,212.688,0.5,70,102.39
2368,E4,212.75,0.125,50,102.39
2369,G4,212.75,0.125,50,102.39
2370,E5,213.188,0.5,85,102.39
2371,G4,213.25,0.125,46,102.39
2372,B-4,213.25,0.125,46,102.39
2373,B2,213.5,0.5,71,102.39
2374,B1,213.5,0.5,71,102.39
2375,E-5,213.688,0.5,77,102.39
2376,F#4,213.75,0.125,52,102.39
2377,B4,213.75,0.125,52,102.39
2378,C5,214.188,0.5,73,102.39
2379,E4,214.25,0.125,56,102.39
2380,G4,214.25,0.125,56,102.39
2381,B4,214.688,1.5,85,102.39
2382,F#4,214.75,0.125,52,102.39
2383,B3,214.75,0.125,52,102.39
2384,A3,214.75,0.125,52,102.39
2385,F#3,214.75,0.125,52,102.39
2386,E-3,214.75,0.125,52,102.39
2387,A4,214.75,0.125,52,102.39
2388,E-3,215.0,0.125,51,102.39
2389,F#3,215.0,0.125,51,102.39
2390,A3,215.0,0.125,51,102.39
2391,B3,215.0,0.125,51,102.39
2392,F#4,215.0,0.125,51,102.39
2393,A4,215.0,0.125,51,102.39
2394,A4,215.25,0.125,56,102.39
2395,F#4,215.25,0.125,56,102.39
2396,B3,215.25,0.125,56,102.39
2397,A3,215.25,0.125,56,102.39
2398,F#3,215.25,0.125,56,102.39
2399,E-3,215.25,0.125,56,102.39
2400,E-3,215.5,0.125,56,102.39
2401,F#3,215.5,0.125,56,102.39
2402,A3,215.5,0.125,56,102.39
2403,B3,215.5,0.125,56,102.39
2404,F#4,215.5,0.125,56,102.39
2405,A4,215.5,0.125,56,102.39
2406,A4,215.75,0.125,61,102.39
2407,F#4,215.75,0.125,61,102.39
2408,B3,215.75,0.125,61,102.39
2409,A3,215.75,0.125,61,102.39
2410,F#3,215.75,0.125,61,102.39
2411,E-3,215.75,0.125,61,102.39
2412,B3,216.0,1.0,49,102.39
2413,E-3,216.0,0.5,61,102.39
2414,F#3,216.0,0.5,61,102.39
2415,A3,216.0,0.5,61,102.39
2416,F#4,216.0,0.5,61,102.39
2417,A4,216.0,0.5,61,102.39
2418,B4,216.188,0.5,85,102.39
2419,G#4,216.5,0.5,54,102.39
2420,E4,216.5,0.5,54,102.39
2421,G#3,216.5,0.5,54,102.39
2422,E3,216.5,0.5,54,102.39
2423,D5,217.188,0.5,73,102.39
2424,C#5,217.688,1.5,85,102.39
2425,G#4,217.75,0.125,52,102.39
2426,C#4,217.75,0.125,52,102.39
2427,B3,217.75,0.125,52,102.39
2428,G#3,217.75,0.125,52,102.39
2429,F3,217.75,0.125,52,102.39
2430,B4,217.75,0.125,52,102.39
2431,F3,218.0,0.125,51,102.39
2432,G#3,218.0,0.125,51,102.39
2433,B3,218.0,0.125,51,102.39
2434,C#4,218.0,0.125,51,102.39
2435,G#4,218.0,0.125,51,102.39
2436,B4,218.0,0.125,51,102.39
2437,B4,218.25,0.125,56,102.39
2438,G#4,218.25,0.125,56,102.39
2439,C#4,218.25,0.125,56,102.39
2440,B3,218.25,0.125,56,102.39
2441,G#3,218.25,0.125,56,102.39
2442,F3,218.25,0.125,56,102.39
2443,F3,218.5,0.125,56,102.39
2444,G#3,218.5,0.125,56,102.39
2445,B3,218.5,0.125,56,102.39
2446,C#4,218.5,0.125,56,102.39
2447,G#4,218.5,0.125,56,102.39
2448,B4,218.5,0.125,56,102.39
2449,B4,218.75,0.125,61,102.39
2450,G#4,218.75,0.125,61,102.39
2451,C#4,218.75,0.125,61,102.39
2452,B3,218.75,0.125,61,102.39
2453,G#3,218.75,0.125,61,102.39
2454,F3,218.75,0.125,61,102.39
2455,F#3,219.0,0.5,61,102.39
2456,B3,219.0,0.5,61,102.39
2457,C#4,219.0,0.5,61,102.39
2458,F#4,219.0,0.5,61,102.39
2459,B4,219.0,0.5,61,102.39
2460,C#5,219.188,0.5,85,102.39
2461,E4,219.5,0.5,54,102.39
2462,G3,219.5,0.5,54,102.39
2463,E5,220.188,0.5,73,102.39
2464,D5,220.688,0.5,85,102.39
2465,D4,220.75,0.125,55,102.39
2466,B3,220.75,0.125,55,102.39
2467,F#3,220.75,0.125,55,102.39
2468,F#3,221.0,0.125,47,102.39
2469,B3,221.0,0.125,47,102.39
2470,D4,221.0,0.125,47,102.39
2471,E5,221.188,0.125,78,102.39
2472,F#4,221.188,0.125,78,102.39
2473,D4,221.25,0.125,55,102.39
2474,B3,221.25,0.125,55,102.39
2475,F#3,221.25,0.125,55,102.39
2476,F#4,221.438,0.125,68,102.39
2477,D5,221.438,0.125,68,102.39
2478,F#3,221.5,0.125,47,102.39
2479,B3,221.5,0.125,47,102.39
2480,D4,221.5,0.125,47,102.39
2481,C#5,221.688,0.125,76,102.39
2482,F#4,221.688,0.125,76,102.39
2483,D4,221.75,0.125,55,102.39
2484,B3,221.75,0.125,55,102.39
2485,F#3,221.75,0.125,55,102.39
2486,B4,221.938,0.125,73,102.39
2487,F#4,221.938,0.125,73,102.39
2488,G5,222.188,0.25,85,102.39
2489,E4,222.25,0.125,55,102.39
2490,C#4,222.25,0.125,55,102.39
2491,F#3,222.25,0.125,55,102.39
2492,F#3,222.5,0.125,47,102.39
2493,C#4,222.5,0.125,47,102.39
2494,E4,222.5,0.125,47,102.39
2495,B-4,222.688,0.75,78,102.39
2496,G4,222.688,0.75,78,102.39
2497,E4,222.75,0.125,55,102.39
2498,C#4,222.75,0.125,55,102.39
2499,F#3,222.75,0.125,55,102.39
2500,F#3,223.0,0.125,47,102.39
2501,C#4,223.0,0.125,47,102.39
2502,E4,223.0,0.125,47,102.39
2503,E4,223.25,0.125,55,102.39
2504,C#4,223.25,0.125,55,102.39
2505,F#3,223.25,0.125,55,102.39
2506,B4,223.438,229/1000,73,102.39
2507,F#4,223.438,229/1000,73,102.39
2508,B3,223.5,0.5,70,102.39
2509,D4,223.5,0.5,70,102.39
2510,F#4,223.688,0.25,73,102.39
2511,B4,223.688,0.25,73,102.39
2512,E-4,223.938,0.125,55,102.39
2513,C5,223.938,0.125,55,102.39
2514,A4,223.938,0.125,55,102.39
2515,F#4,223.938,0.125,55,102.39
2516,E-4,224.188,0.125,48,102.39
2517,F#4,224.188,0.125,48,102.39
2518,A4,224.188,0.125,48,102.39
2519,C5,224.188,0.125,48,102.39
2520,E-4,224.438,0.125,59,102.39
2521,C5,224.438,0.125,59,102.39
2522,A4,224.438,0.125,59,102.39
2523,F#4,224.438,0.125,59,102.39
2524,E-4,224.688,0.125,54,102.39
2525,F#4,224.688,0.125,54,102.39
2526,A4,224.688,0.125,54,102.39
2527,C5,224.688,0.125,54,102.39
2528,E-4,224.938,0.125,66,102.39
2529,C5,224.938,0.125,66,102.39
2530,A4,224.938,0.125,66,102.39
2531,F#4,224.938,0.125,66,102.39
2532,E-4,225.188,0.125,59,102.39
2533,F#4,225.188,0.125,59,102.39
2534,A4,225.188,0.125,59,102.39
2535,C5,225.188,0.125,59,102.39
2536,E-4,225.438,0.125,70,102.39
2537,C5,225.438,0.125,70,102.39
2538,A4,225.438,0.125,70,102.39
2539,F#4,225.438,0.125,70,102.39
2540,E-4,225.688,0.125,61,102.39
2541,F#4,225.688,0.125,61,102.39
2542,A4,225.688,0.125,61,102.39
2543,C5,225.688,0.125,61,102.39
2544,E-4,225.938,0.125,72,102.39
2545,C5,225.938,0.125,72,102.39
2546,A4,225.938,0.125,72,102.39
2547,F#4,225.938,0.125,72,102.39
2548,E-4,226.188,0.125,62,102.39
2549,F#4,226.188,0.125,62,102.39
2550,A4,226.188,0.125,62,102.39
2551,C5,226.188,0.125,62,102.39
2552,E-4,226.438,0.125,74,102.39
2553,C5,226.438,0.125,74,102.39
2554,A4,226.438,0.125,74,102.39
2555,F#4,226.438,0.125,74,102.39
2556,E4,226.688,0.5,87,102.39
2557,G#4,226.688,0.5,87,102.39
2558,B4,226.688,0.5,87,102.39
2559,F#3,226.75,0.125,64,102.39
2560,F#2,226.75,0.125,64,102.39
2561,F#2,227.0,0.125,55,102.39
2562,F#3,227.0,0.125,55,102.39
2563,G4,227.188,0.125,86,102.39
2564,C#5,227.188,0.125,86,102.39
2565,B-4,227.188,0.125,86,102.39
2566,F#3,227.25,0.125,64,102.39
2567,F#2,227.25,0.125,64,102.39
2568,G4,227.438,0.125,76,102.39
2569,B-4,227.438,0.125,76,102.39
2570,D5,227.438,0.125,76,102.39
2571,F#2,227.5,0.125,55,102.39
2572,F#3,227.5,0.125,55,102.39
2573,G4,227.688,0.125,84,102.39
2574,E5,227.688,0.125,84,102.39
2575,B-4,227.688,0.125,84,102.39
2576,F#3,227.75,0.125,64,102.39
2577,F#2,227.75,0.125,64,102.39
2578,G4,227.938,0.125,81,102.39
2579,F#5,227.938,0.125,81,102.39
2580,A4,227.938,0.125,81,102.39
2581,F#2,228.0,0.125,66,102.39
2582,F#3,228.0,0.125,66,102.39
2583,G4,228.188,0.25,87,102.39
2584,B-4,228.188,0.25,87,102.39
2585,G5,228.188,0.25,87,102.39
2586,F#3,228.25,0.125,64,102.39
2587,F#2,228.25,0.125,64,102.39
2588,F#2,228.5,0.125,55,102.39
2589,F#3,228.5,0.125,55,102.39
2590,E4,228.688,93/125,75,102.39
2591,B-4,228.688,93/125,75,102.39
2592,F#4,228.688,93/125,75,102.39
2593,F#3,228.75,0.125,64,102.39
2594,F#2,228.75,0.125,64,102.39
2595,F#2,229.0,0.125,55,102.39
2596,F#3,229.0,0.125,55,102.39
2597,F#3,229.25,0.125,64,102.39
2598,F#2,229.25,0.125,64,102.39
2599,D4,229.438,229/1000,71,102.39
2600,B4,229.438,229/1000,71,102.39
2601,F#4,229.438,229/1000,71,102.39
2602,B1,229.5,0.5,82,102.39
2603,B2,229.5,0.5,82,102.39
2604,D4,229.688,0.25,71,102.39
2605,F#4,229.688,0.25,71,102.39
2606,B4,229.688,0.25,71,102.39
2607,E-4,229.938,0.125,55,102.39
2608,C5,229.938,0.125,55,102.39
2609,A4,229.938,0.125,55,102.39
2610,F#4,229.938,0.125,55,102.39
2611,E-4,230.188,0.125,48,102.39
2612,F#4,230.188,0.125,48,102.39
2613,A4,230.188,0.125,48,102.39
2614,C5,230.188,0.125,48,102.39
2615,E-4,230.438,0.125,59,102.39
2616,C5,230.438,0.125,59,102.39
2617,A4,230.438,0.125,59,102.39
2618,F#4,230.438,0.125,59,102.39
2619,E-4,230.688,0.125,54,102.39
2620,F#4,230.688,0.125,54,102.39
2621,A4,230.688,0.125,54,102.39
2622,C5,230.688,0.125,54,102.39
2623,E-4,230.938,0.125,66,102.39
2624,C5,230.938,0.125,66,102.39
2625,A4,230.938,0.125,66,102.39
2626,F#4,230.938,0.125,66,102.39
2627,E-4,231.188,0.125,59,102.39
2628,F#4,231.188,0.125,59,102.39
2629,A4,231.188,0.125,59,102.39
2630,C5,231.188,0.125,59,102.39
2631,E-4,231.438,0.125,70,102.39
2632,C5,231.438,0.125,70,102.39
2633,A4,231.438,0.125,70,102.39
2634,F#4,231.438,0.125,70,102.39
2635,E-4,231.688,0.125,61,102.39
2636,F#4,231.688,0.125,61,102.39
2637,A4,231.688,0.125,61,102.39
2638,C5,231.688,0.125,61,102.39
2639,E-4,231.938,0.125,73,102.39
2640,C5,231.938,0.125,73,102.39
2641,A4,231.938,0.125,73,102.39
2642,F#4,231.938,0.125,73,102.39
2643,E-4,232.188,0.125,62,102.39
2644,F#4,232.188,0.125,62,102.39
2645,A4,232.188,0.125,62,102.39
2646,C5,232.188,0.125,62,102.39
2647,E-4,232.438,0.125,75,102.39
2648,C5,232.438,0.125,75,102.39
2649,A4,232.438,0.125,75,102.39
2650,F#4,232.438,0.125,75,102.39
2651,E4,232.688,0.5,87,102.39
2652,G#4,232.688,0.5,87,102.39
2653,B4,232.688,0.5,87,102.39
2654,F#2,232.75,0.125,74,102.39
2655,F#1,232.75,0.125,74,102.39
2656,F#1,233.0,0.125,63,102.39
2657,F#2,233.0,0.125,63,102.39
2658,G4,233.188,0.125,86,102.39
2659,C#5,233.188,0.125,86,102.39
2660,B-4,233.188,0.125,86,102.39
2661,F#2,233.25,0.125,74,102.39
2662,F#1,233.25,0.125,74,102.39
2663,G4,233.438,0.125,76,102.39
2664,B-4,233.438,0.125,76,102.39
2665,D5,233.438,0.125,76,102.39
2666,F#1,233.5,0.125,63,102.39
2667,F#2,233.5,0.125,63,102.39
2668,G4,233.688,0.125,84,102.39
2669,E5,233.688,0.125,84,102.39
2670,B-4,233.688,0.125,84,102.39
2671,F#2,233.75,0.125,74,102.39
2672,F#1,233.75,0.125,74,102.39
2673,G4,233.938,0.125,81,102.39
2674,F#5,233.938,0.125,81,102.39
2675,B-4,233.938,0.125,81,102.39
2676,F#1,234.0,0.125,55,102.39
2677,F#2,234.0,0.125,55,102.39
2678,G4,234.188,0.25,87,102.39
2679,B-4,234.188,0.25,87,102.39
2680,G5,234.188,0.25,87,102.39
2681,F#2,234.25,0.125,64,102.39
2682,F#1,234.25,0.125,64,102.39
2683,F#1,234.5,0.125,55,102.39
2684,F#2,234.5,0.125,55,102.39
2685,E4,234.688,497/500,75,102.39
2686,B-4,234.688,497/500,75,102.39
2687,F#4,234.688,497/500,75,102.39
2688,F#2,234.75,0.125,64,102.39
2689,F#1,234.75,0.125,64,102.39
2690,F#1,235.0,0.125,55,102.39
2691,F#2,235.0,0.125,55,102.39
2692,F#2,235.25,0.125,64,102.39
2693,F#1,235.25,0.125,64,102.39
2694,D4,235.688,0.25,85,102.39
2695,F#4,235.688,0.25,85,102.39
2696,B4,235.688,0.25,85,102.39
2697,F#2,235.75,0.125,74,102.39
2698,F#1,235.75,0.125,74,102.39
2699,F#1,236.0,0.125,63,102.39
2700,F#2,236.0,0.125,63,102.39
2701,G4,236.188,0.125,86,102.39
2702,C#5,236.188,0.125,86,102.39
2703,B-4,236.188,0.125,86,102.39
2704,F#2,236.25,0.125,74,102.39
2705,F#1,236.25,0.125,74,102.39
2706,G4,236.438,0.125,76,102.39
2707,B-4,236.438,0.125,76,102.39
2708,D5,236.438,0.125,76,102.39
2709,F#1,236.5,0.125,63,102.39
2710,F#2,236.5,0.125,63,102.39
2711,G4,236.688,0.125,84,102.39
2712,E5,236.688,0.125,84,102.39
2713,B-4,236.688,0.125,84,102.39
2714,F#2,236.75,0.125,74,102.39
2715,F#1,236.75,0.125,74,102.39
2716,G4,236.938,0.125,81,102.39
2717,F#5,236.938,0.125,81,102.39
2718,B-4,236.938,0.125,81,102.39
2719,F#1,237.0,0.125,55,102.39
2720,F#2,237.0,0.125,55,102.39
2721,G4,237.188,0.25,87,102.39
2722,B-4,237.188,0.25,87,102.39
2723,G5,237.188,0.25,87,102.39
2724,F#2,237.25,0.125,64,102.39
2725,F#1,237.25,0.125,64,102.39
2726,F#1,237.5,0.125,55,102.39
2727,F#2,237.5,0.125,55,102.39
2728,E4,237.688,497/500,86,102.39
2729,B-4,237.688,497/500,86,102.39
2730,F#4,237.688,497/500,86,102.39
2731,F#2,237.75,0.125,64,102.39
2732,F#1,237.75,0.125,64,102.39
2733,F#1,238.0,0.125,55,102.39
2734,F#2,238.0,0.125,55,102.39
2735,F#2,238.25,0.125,64,102.39
2736,F#1,238.25,0.125,64,102.39
2737,D4,238.688,0.25,97,102.39
2738,F#4,238.688,0.25,97,102.39
2739,B4,238.688,0.25,97,102.39
2740,F#3,238.75,0.125,74,102.39
2741,F#2,238.75,0.125,74,102.39
2742,F#2,239.0,0.125,68,102.39
2743,F#3,239.0,0.125,68,102.39
2744,G4,239.188,0.125,94,102.39
2745,C#5,239.188,0.125,94,102.39
2746,B-4,239.188,0.125,94,102.39
2747,F#3,239.25,0.125,81,102.39
2748,F#2,239.25,0.125,81,102.39
2749,G4,239.438,0.125,83,102.39
2750,B-4,239.438,0.125,83,102.39
2751,D5,239.438,0.125,83,102.39
2752,F#2,239.5,0.125,68,102.39
2753,F#3,239.5,0.125,68,102.39
2754,G4,239.688,0.125,92,102.39
2755,E5,239.688,0.125,92,102.39
2756,B-4,239.688,0.125,92,102.39
2757,F#3,239.75,0.125,81,102.39
2758,F#2,239.75,0.125,81,102.39
2759,G4,239.938,0.125,88,102.39
2760,F#5,239.938,0.125,88,102.39
2761,B-4,239.938,0.125,88,102.39
2762,F#2,240.0,0.5,60,102.39
2763,F#3,240.0,0.125,60,102.39
2764,C#5,240.188,0.938,93,102.39
2765,E5,240.188,0.938,93,102.39
2766,G4,240.188,0.938,93,102.39
2767,B-4,240.188,0.938,93,102.39
2768,G5,240.188,0.938,93,102.39
2769,F#3,240.25,0.125,70,102.39
2770,F#3,240.5,0.125,60,102.39
2771,F#3,240.75,0.125,70,102.39
2772,F#2,241.0,0.5,55,102.39
2773,F#3,241.0,0.125,55,102.39
2774,C#4,241.188,0.25,85,102.39
2775,E4,241.188,0.25,85,102.39
2776,F#4,241.188,0.25,85,102.39
2777,B-4,241.188,0.25,85,102.39
2778,F#3,241.25,0.125,64,102.39
2779,B2,241.5,0.125,75,102.39
2780,B3,241.688,0.25,96,102.39
2781,D4,241.688,0.25,96,102.39
2782,F#4,241.688,0.25,96,102.39
2783,B4,241.688,0.25,96,102.39
2784,F#3,241.75,0.125,51,102.39
2785,F#3,242.0,0.125,56,102.39
2786,F#3,242.25,0.125,51,102.39
2787,F#3,242.5,0.125,56,102.39
2788,F#3,242.75,0.125,39,102.39
2789,F#3,243.0,0.125,51,102.39
2790,F#3,243.25,0.125,46,102.39
2791,F#3,243.5,0.125,51,102.39
2792,F#3,243.75,0.125,45,102.39
2793,F3,244.0,0.125,51,102.39
2794,F3,244.25,0.125,46,102.39
2795,F#3,244.5,0.125,56,102.39
2796,F#3,244.75,0.125,51,102.39
2797,G3,245.0,0.125,62,102.39
2798,G3,245.25,0.125,56,102.39
2799,F#3,245.5,0.125,57,102.39
2800,F#3,245.75,0.125,48,102.39
2801,G3,246.0,0.125,69,102.39
2802,G3,246.25,0.125,62,102.39
2803,F#3,246.5,0.125,62,102.39
2804,F#3,246.75,0.125,53,102.39
2805,B-3,247.0,0.125,46,102.39
2806,E4,247.188,0.125,50,102.39
2807,G4,247.188,0.125,50,102.39
2808,B-3,247.25,0.125,39,102.39
2809,E4,247.438,0.125,43,102.39
2810,G4,247.438,0.125,43,102.39
2811,B3,247.5,0.125,49,102.39
2812,F#4,247.688,0.125,49,102.39
2813,D4,247.688,0.125,49,102.39
2814,B3,247.75,0.125,45,102.39
2815,D4,247.938,0.125,45,102.39
2816,F#4,247.938,0.125,45,102.39
2817,C#4,248.0,0.125,52,102.39
2818,B-4,248.188,0.125,57,102.39
2819,E4,248.188,0.125,57,102.39
2820,C#4,248.25,0.125,49,102.39
2821,E4,248.438,0.125,54,102.39
2822,B-4,248.438,0.125,54,102.39
2823,D4,248.5,0.125,53,102.39
2824,B4,248.688,0.125,58,102.39
2825,F#4,248.688,0.125,58,102.39
2826,D4,248.75,0.125,51,102.39
2827,B4,248.938,0.125,56,102.39
2828,F#4,248.938,0.125,56,102.39
2829,E4,249.0,0.125,64,102.39
2830,G4,249.188,0.125,70,102.39
2831,C#5,249.188,0.125,70,102.39
2832,E4,249.25,0.125,62,102.39
2833,G4,249.438,0.125,68,102.39
2834,C#5,249.438,0.125,68,102.39
2835,F#4,249.5,0.125,67,102.39
2836,D5,249.688,0.125,73,102.39
2837,B4,249.688,0.125,73,102.39
2838,F#4,249.75,0.125,61,102.39
2839,D5,249.938,0.125,66,102.39
2840,B4,249.938,0.125,66,102.39
2841,E4,250.0,0.125,68,102.39
2842,C#5,250.188,0.125,74,102.39
2843,G4,250.188,0.125,74,102.39
2844,E4,250.25,0.125,58,102.39
2845,G4,250.438,0.125,64,102.39
2846,C#5,250.438,0.125,64,102.39
2847,D4,250.5,0.125,67,102.39
2848,B4,250.688,0.125,73,102.39
2849,F#4,250.688,0.125,73,102.39
2850,D4,250.75,0.125,59,102.39
2851,F#4,250.938,0.125,64,102.39
2852,B4,250.938,0.125,64,102.39
2853,C4,251.0,0.125,62,102.39
2854,A4,251.188,0.125,66,102.39
2855,F#4,251.188,0.125,66,102.39
2856,E-4,251.188,0.125,66,102.39
2857,C4,251.25,0.125,51,102.39
2858,A4,251.438,0.125,54,102.39
2859,F#4,251.438,0.125,54,102.39
2860,E-4,251.438,0.125,54,102.39
2861,B3,251.5,0.125,60,102.39
2862,G#4,251.688,0.125,66,102.39
2863,E4,251.688,0.125,66,102.39
2864,B3,251.75,0.125,51,102.39
2865,G#4,251.938,0.125,56,102.39
2866,E4,251.938,0.125,56,102.39
2867,B-3,252.0,0.125,53,102.39
2868,E4,252.188,0.125,58,102.39
2869,G4,252.188,0.125,58,102.39
2870,B-3,252.25,0.125,49,102.39
2871,G4,252.438,0.125,54,102.39
2872,E4,252.438,0.125,54,102.39
2873,B3,252.5,0.125,52,102.39
2874,F4,252.688,0.125,57,102.39
2875,C#4,252.688,0.125,57,102.39
2876,B3,252.75,0.125,47,102.39
2877,F4,252.938,0.125,52,102.39
2878,C#4,252.938,0.125,52,102.39
2879,F#3,253.0,0.125,52,102.39
2880,F#4,253.188,0.125,57,102.39
2881,D4,253.188,0.125,57,102.39
2882,F#3,253.25,0.125,49,102.39
2883,F#4,253.438,0.125,54,102.39
2884,D4,253.438,0.125,54,102.39
2885,G3,253.5,0.125,51,102.39
2886,C#4,253.688,0.125,56,102.39
2887,B-3,253.688,0.125,56,102.39
2888,G3,253.75,0.125,42,102.39
2889,C#4,253.938,0.125,46,102.39
2890,B-3,253.938,0.125,46,102.39
2891,F3,254.0,0.125,57,102.39
2892,D4,254.188,0.125,52,102.39
2893,B3,254.188,0.125,52,102.39
2894,F3,254.25,0.125,38,102.39
2895,D4,254.438,0.125,42,102.39
2896,B3,254.438,0.125,42,102.39
2897,F#3,254.5,0.125,43,102.39
2898,B3,254.688,0.125,47,102.39
2899,D4,254.688,0.125,47,102.39
2900,F#3,254.75,0.125,34,102.39
2901,D4,254.938,0.125,37,102.39
2902,B3,254.938,0.125,37,102.39
2903,C#3,255.0,0.125,42,102.39
2904,B3,255.188,0.125,46,102.39
2905,F#3,255.188,0.125,46,102.39
2906,C#3,255.25,0.125,36,102.39
2907,F#3,255.438,0.125,40,102.39
2908,B3,255.438,0.125,40,102.39
2909,D3,255.5,0.125,42,102.39
2910,B3,255.688,0.125,46,102.39
2911,F#3,255.688,0.125,46,102.39
2912,D3,255.75,0.125,35,102.39
2913,F#3,255.938,0.125,38,102.39
2914,B3,255.938,0.125,38,102.39
2915,B3,256.0,0.125,35,102.39
2916,F#3,256.0,0.125,35,102.39
2917,F#2,256.0,0.125,35,102.39
2918,F#4,256.188,0.25,50,102.39
2919,F#2,256.25,0.125,33,102.39
2920,F#3,256.25,0.125,33,102.39
2921,B3,256.25,0.125,33,102.39
2922,B3,256.5,0.125,35,102.39
2923,F#3,256.5,0.125,35,102.39
2924,B2,256.5,0.125,35,102.39
2925,F#4,256.688,0.5,56,102.39
2926,B3,256.75,0.125,37,102.39
2927,F#3,256.75,0.125,37,102.39
2928,B2,256.75,0.125,37,102.39
2929,D4,256.75,0.125,37,102.39
2930,B3,257.0,0.125,42,102.39
2931,F#3,257.0,0.125,42,102.39
2932,B2,257.0,0.125,42,102.39
2933,D4,257.0,0.125,42,102.39
2934,F#4,257.0,0.125,42,102.39
2935,G#4,257.188,0.125,63,102.39
2936,B3,257.25,0.125,48,102.39
2937,F#3,257.25,0.125,48,102.39
2938,B2,257.25,0.125,48,102.39
2939,D4,257.25,0.125,48,102.39
2940,F#4,257.25,0.125,48,102.39
2941,B-4,257.438,0.125,69,102.39
2942,B3,257.5,0.125,56,102.39
2943,F#3,257.5,0.125,56,102.39
2944,B2,257.5,0.125,56,102.39
2945,D4,257.5,0.125,56,102.39
2946,F#4,257.5,0.125,56,102.39
2947,B4,257.688,0.125,80,102.39
2948,B3,257.75,0.125,66,102.39
2949,F#3,257.75,0.125,66,102.39
2950,B2,257.75,0.125,66,102.39
2951,D4,257.75,0.125,66,102.39
2952,F#4,257.75,0.125,66,102.39
2953,C#5,257.938,0.125,91,102.39
2954,D4,258.0,0.125,60,102.39
2955,F#4,258.0,0.125,60,102.39
2956,B3,258.0,0.125,60,102.39
2957,F#3,258.0,0.125,60,102.39
2958,B2,258.0,0.125,60,102.39
2959,D5,258.188,1.5,101,102.39
2960,F#4,258.25,0.125,51,102.39
2961,B3,258.25,0.125,51,102.39
2962,F#3,258.25,0.125,51,102.39
2963,B2,258.25,0.125,51,102.39
2964,D4,258.25,0.125,51,102.39
2965,B3,258.5,0.125,57,102.39
2966,F#3,258.5,0.125,57,102.39
2967,B2,258.5,0.125,57,102.39
2968,D4,258.5,0.125,57,102.39
2969,F#4,258.5,0.125,57,102.39
2970,B3,258.75,0.125,52,102.39
2971,F#3,258.75,0.125,52,102.39
2972,B2,258.75,0.125,52,102.39
2973,D4,258.75,0.125,52,102.39
2974,F#4,258.75,0.125,52,102.39
2975,B3,259.0,0.125,58,102.39
2976,F#3,259.0,0.125,58,102.39
2977,B2,259.0,0.125,58,102.39
2978,D4,259.0,0.125,58,102.39
2979,F#4,259.0,0.125,58,102.39
2980,F#4,259.25,0.125,51,102.39
2981,D4,259.25,0.125,51,102.39
2982,B2,259.25,0.125,51,102.39
2983,F#3,259.25,0.125,51,102.39
2984,B3,259.25,0.125,51,102.39
2985,D4,259.5,0.125,56,102.39
2986,F#4,259.5,0.125,56,102.39
2987,B3,259.5,0.125,56,102.39
2988,F#3,259.5,0.125,56,102.39
2989,B2,259.5,0.125,56,102.39
2990,D5,259.688,1.5,101,102.39
2991,F#4,259.75,0.125,47,102.39
2992,B3,259.75,0.125,47,102.39
2993,F#3,259.75,0.125,47,102.39
2994,B2,259.75,0.125,47,102.39
2995,D4,259.75,0.125,47,102.39
2996,B3,260.0,0.125,53,102.39
2997,F#3,260.0,0.125,53,102.39
2998,B2,260.0,0.125,53,102.39
2999,D4,260.0,0.125,53,102.39
3000,F#4,260.0,0.125,53,102.39
3001,B3,260.25,0.125,48,102.39
3002,F#3,260.25,0.125,48,102.39
3003,B2,260.25,0.125,48,102.39
3004,D4,260.25,0.125,48,102.39
3005,F#4,260.25,0.125,48,102.39
3006,B3,260.5,0.125,51,102.39
3007,F#3,260.5,0.125,51,102.39
3008,B2,260.5,0.125,51,102.39
3009,D4,260.5,0.125,51,102.39
3010,F#4,260.5,0.125,51,102.39
3011,F#4,260.75,0.125,49,102.39
3012,D4,260.75,0.125,49,102.39
3013,B2,260.75,0.125,49,102.39
3014,F#3,260.75,0.125,49,102.39
3015,B3,260.75,0.125,49,102.39
3016,F#4,261.0,0.375,53,102.39
3017,D4,261.0,0.375,53,102.39
3018,B3,261.0,0.375,53,102.39
3019,F#3,261.0,0.375,53,102.39
3020,B2,261.0,0.375,53,102.39
3021,D5,261.188,1.5,101,102.39
3022,F#4,261.5,0.375,45,102.39
3023,D4,261.5,0.375,45,102.39
3024,B3,261.5,0.375,45,102.39
3025,F#3,261.5,0.375,45,102.39
3026,B2,261.5,0.375,45,102.39
3027,F#4,262.0,0.375,44,102.39
3028,D4,262.0,0.375,44,102.39
3029,B3,262.0,0.375,44,102.39
3030,F#3,262.0,0.375,44,102.39
3031,B2,262.0,0.375,44,102.39
3032,D4,262.5,0.5,35,102.39
3033,F#4,262.5,0.5,35,102.39
3034,B3,262.5,0.5,35,102.39
3035,F#3,262.5,0.5,35,102.39
3036,B2,262.5,0.5,35,102.39
3037,D5,262.688,1.5,101,102.39
3038,B2,264.0,0.5,32,102.39
3039,F#3,264.0,0.5,32,102.39
3040,B3,264.0,0.5,32,102.39
3041,D4,264.0,0.5,32,102.39
3042,F#4,264.0,0.5,32,102.39
3043,D5,264.188,1.5,101,102.39
3044,B2,265.5,0.5,28,102.39
3045,F#3,265.5,0.5,28,102.39
3046,B3,265.5,0.5,28,102.39
3047,D4,265.5,0.5,28,102.39
3048,F#4,265.5,0.5,28,102.39
3049,D5,265.688,1.5,101,102.39
