,note_name,start_time,duration,velocity,tempo
0,C#4,5.0,19/20,50,269.78
1,A3,5.5,0.5,40,269.78
2,C#4,6.0,2.0,56,269.78
3,F#1,6.0,2.0,44,269.78
4,F#2,6.0,2.0,44,269.78
5,G#3,6.5,0.5,37,269.78
6,A3,7.0,0.5,42,269.78
7,F#3,7.5,0.5,34,269.78
8,F#4,8.0,19/20,54,269.78
9,C#4,8.5,0.5,39,269.78
10,F#4,9.0,2.0,55,269.78
11,F#2,9.0,2.0,44,269.78
12,F#3,9.0,2.0,44,269.78
13,C4,9.5,0.5,45,269.78
14,C#4,10.0,0.5,55,269.78
15,A3,10.5,0.5,46,269.78
16,A4,11.0,1.0,66,269.78
17,F#4,11.5,0.5,55,269.78
18,D5,12.0,2.0,73,269.78
19,D4,12.0,2.0,60,269.78
20,A3,12.0,4.5,50,269.78
21,F#3,12.0,4.5,50,269.78
22,G#4,12.5,0.5,56,269.78
23,A4,13.0,0.5,61,269.78
24,F#4,13.5,0.5,56,269.78
25,C#5,14.0,1.0,68,269.78
26,C#4,14.0,1.0,48,269.78
27,A4,14.5,0.5,49,269.78
28,C5,15.0,1979/1000,68,269.78
29,C4,15.0,2.0,54,269.78
30,G#4,15.5,0.5,50,269.78
31,A4,16.0,0.5,55,269.78
32,F#4,16.5,0.5,45,269.78
33,C5,17.0,1.0,51,269.78
34,A3,17.0,1.0,36,269.78
35,F#3,17.0,1.0,36,269.78
36,A4,17.5,0.5,33,269.78
37,C#5,18.0,2.0,56,269.78
38,F3,18.0,1.0,44,269.78
39,G#3,18.0,1.0,44,269.78
40,G#4,18.5,0.5,43,269.78
41,C#4,19.0,0.5,46,269.78
42,E-4,19.5,0.5,42,269.78
43,F4,20.0,0.5,40,269.78
44,B4,20.0,427/500,50,269.78
45,C#3,20.0,1.0,35,269.78
46,C#2,20.0,1.0,35,269.78
47,C#4,20.5,0.5,38,269.78
48,B4,20.875,0.125,43,269.78
49,F#4,21.0,0.5,50,269.78
50,A4,21.0,0.5,50,269.78
51,F#2,21.0,1.0,44,269.78
52,F#3,21.0,1.0,44,269.78
53,C#4,21.5,0.5,46,269.78
54,F4,22.0,0.5,56,269.78
55,G#4,22.0,0.5,56,269.78
56,C#4,22.5,0.5,54,269.78
57,F#4,23.0,0.5,62,269.78
58,A4,23.0,0.5,62,269.78
59,C#4,23.5,0.5,57,269.78
60,F#4,24.0,0.5,55,269.78
61,A4,24.0,1.0,72,269.78
62,C#5,24.0,1.0,72,269.78
63,B1,24.0,1.0,44,269.78
64,B2,24.0,1.0,44,269.78
65,D4,24.5,0.5,54,269.78
66,G#4,25.0,0.5,48,269.78
67,B4,25.0,1.0,61,269.78
68,D4,25.5,0.5,49,269.78
69,F#4,26.0,0.5,45,269.78
70,A4,26.0,0.5,45,269.78
71,D4,26.5,0.5,41,269.78
72,F#4,27.0,0.5,44,269.78
73,A4,27.0,1.0,56,269.78
74,C#3,27.0,1.0,38,269.78
75,C#2,27.0,1.0,38,269.78
76,C#4,27.5,0.5,45,269.78
77,F4,28.0,0.5,40,269.78
78,G#4,28.0,1.0,50,269.78
79,B3,28.5,0.5,43,269.78
80,C#4,29.0,19/20,50,269.78
81,A3,29.5,0.5,40,269.78
82,C#4,30.0,2.0,56,269.78
83,F#1,30.0,2.0,44,269.78
84,F#2,30.0,2.0,44,269.78
85,G#3,30.5,0.5,37,269.78
86,A3,31.0,0.5,42,269.78
87,F#3,31.5,0.5,34,269.78
88,F#4,32.0,19/20,54,269.78
89,C#4,32.5,0.5,39,269.78
90,F#4,33.0,2.0,55,269.78
91,F#2,33.0,2.0,44,269.78
92,F#3,33.0,2.0,44,269.78
93,C4,33.5,0.5,45,269.78
94,C#4,34.0,0.5,55,269.78
95,A3,34.5,0.5,46,269.78
96,A4,35.0,1.0,66,269.78
97,F#4,35.5,0.5,55,269.78
98,D5,36.0,2.0,73,269.78
99,D4,36.0,2.0,55,269.78
100,A3,36.0,4.5,46,269.78
101,F#3,36.0,4.5,46,269.78
102,G#4,36.5,0.5,56,269.78
103,A4,37.0,0.5,61,269.78
104,F#4,37.5,0.5,56,269.78
105,C#5,38.0,1.0,68,269.78
106,C#4,38.0,1.0,48,269.78
107,A4,38.5,0.5,49,269.78
108,C5,39.0,1979/1000,68,269.78
109,C4,39.0,2.0,54,269.78
110,G#4,39.5,0.5,50,269.78
111,A4,40.0,0.5,55,269.78
112,F#4,40.5,0.5,45,269.78
113,C5,41.0,1.0,51,269.78
114,A3,41.0,1.0,36,269.78
115,F#3,41.0,1.0,36,269.78
116,A4,41.5,0.5,33,269.78
117,C#5,42.0,2.0,56,269.78
118,F3,42.0,1.0,44,269.78
119,G#3,42.0,1.0,44,269.78
120,G#4,42.5,0.5,43,269.78
121,C#4,43.0,0.5,46,269.78
122,D4,43.5,0.5,42,269.78
123,F#3,44.0,2.0,38,269.78
124,F#2,44.0,1.0,32,269.78
125,E4,44.0,0.5,45,269.78
126,B-4,44.0,0.5,45,269.78
127,C#4,44.5,0.5,38,269.78
128,D4,45.0,0.5,46,269.78
129,B4,45.0,1.0,56,269.78
130,B2,45.0,1.0,40,269.78
131,F#4,45.5,0.5,43,269.78
132,E4,46.0,0.5,46,269.78
133,D4,46.5,0.5,42,269.78
134,C#4,47.0,0.5,40,269.78
135,B-4,47.0,1.0,50,269.78
136,F#3,47.0,1.0,35,269.78
137,F#2,47.0,1.0,35,269.78
138,E4,47.5,0.5,38,269.78
139,D4,48.0,0.5,46,269.78
140,B4,48.0,1.0,56,269.78
141,B2,48.0,3.0,48,269.78
142,F#4,48.5,0.5,43,269.78
143,A4,49.0,0.5,48,269.78
144,C#4,49.0,0.5,48,269.78
145,E4,49.5,0.5,42,269.78
146,B3,50.0,0.5,45,269.78
147,G#4,50.0,0.5,45,269.78
148,D4,50.5,0.5,38,269.78
149,A3,51.0,0.5,46,269.78
150,F#4,51.0,1.0,56,269.78
151,C#3,51.0,2.0,40,269.78
152,C#4,51.5,0.5,43,269.78
153,F4,52.0,1.0,56,269.78
154,G#3,52.0,0.5,46,269.78
155,B3,52.5,0.5,42,269.78
156,C#4,53.0,0.5,40,269.78
157,B-4,53.0,1.0,50,269.78
158,F#3,53.0,1.0,38,269.78
159,F#2,53.0,1.0,32,269.78
160,E4,53.5,0.5,38,269.78
161,D4,54.0,0.5,43,269.78
162,B4,54.0,1.0,56,269.78
163,B2,54.0,1.0,40,269.78
164,F#3,54.0,1.0,38,269.78
165,F#4,54.5,0.5,43,269.78
166,E4,55.0,0.5,46,269.78
167,D4,55.5,0.5,42,269.78
168,C#4,56.0,0.5,40,269.78
169,B-4,56.0,1.0,50,269.78
170,F#3,56.0,2.0,38,269.78
171,F#2,56.0,1.0,32,269.78
172,E4,56.5,0.5,38,269.78
173,D4,57.0,0.5,46,269.78
174,B4,57.0,1.0,56,269.78
175,B2,57.0,1.0,40,269.78
176,F#4,57.5,0.5,43,269.78
177,E4,58.0,0.5,46,269.78
178,D4,58.5,0.5,42,269.78
179,C#4,59.0,0.5,40,269.78
180,B-4,59.0,1.0,50,269.78
181,F#3,59.0,1.0,35,269.78
182,F#2,59.0,1.0,35,269.78
183,E4,59.5,0.5,38,269.78
184,D4,60.0,0.5,46,269.78
185,B4,60.0,1.0,56,269.78
186,B2,60.0,3.0,48,269.78
187,F#4,60.5,0.5,43,269.78
188,A4,61.0,0.5,48,269.78
189,C#4,61.0,0.5,48,269.78
190,E4,61.5,0.5,42,269.78
191,B3,62.0,0.5,45,269.78
192,G#4,62.0,0.5,45,269.78
193,D4,62.5,0.5,38,269.78
194,A3,63.0,0.5,46,269.78
195,F#4,63.0,1.0,56,269.78
196,C#3,63.0,2.0,40,269.78
197,C#4,63.5,0.5,43,269.78
198,F4,64.0,1.0,56,269.78
199,G#3,64.0,0.5,46,269.78
200,B3,64.5,0.5,42,269.78
201,C#4,65.0,0.5,40,269.78
202,B-4,65.0,1.0,50,269.78
203,F#3,65.0,1.0,38,269.78
204,F#2,65.0,1.0,32,269.78
205,E4,65.5,0.5,38,269.78
206,D4,66.0,0.5,43,269.78
207,B4,66.0,1.0,56,269.78
208,B2,66.0,1.0,40,269.78
209,F#3,66.0,1.0,38,269.78
210,F#4,66.5,0.5,43,269.78
211,E4,67.0,0.5,46,269.78
212,D4,67.5,0.5,42,269.78
213,B-4,68.0,0.5,40,269.78
214,C#5,68.0,1.0,50,269.78
215,C#4,68.0,1.0,38,269.78
216,F#4,68.5,0.5,38,269.78
217,B4,69.0,0.5,45,269.78
218,D5,69.0,1.0,56,269.78
219,B3,69.0,1.0,42,269.78
220,F#4,69.5,0.5,43,269.78
221,C5,70.0,0.5,48,269.78
222,E-5,70.0,1.0,61,269.78
223,A3,70.0,1.0,46,269.78
224,F#4,70.5,0.5,48,269.78
225,B4,71.0,0.5,53,269.78
226,E5,71.0,1.0,66,269.78
227,G#3,71.0,1.0,50,269.78
228,G#4,71.5,0.5,52,269.78
229,E-5,72.0,0.5,58,269.78
230,F#5,72.0,1.0,72,269.78
231,F#3,72.0,1.0,54,269.78
232,A4,72.5,0.5,57,269.78
233,E5,73.0,0.5,62,269.78
234,G5,73.0,1.0,78,269.78
235,E3,73.0,1.0,63,269.78
236,B4,73.5,0.5,62,269.78
237,E5,74.0,0.5,67,269.78
238,G#5,74.0,1.0,84,269.78
239,D3,74.0,1.0,72,269.78
240,B4,74.5,0.5,66,269.78
241,E5,75.0,0.5,73,269.78
242,A5,75.0,1.0,91,269.78
243,C#3,75.0,1.0,84,269.78
244,C#5,75.5,0.5,70,269.78
245,E5,76.0,0.5,75,269.78
246,C#6,76.0,1.0,93,269.78
247,A2,76.0,1.0,82,269.78
248,C#5,76.5,0.5,71,269.78
249,E5,77.0,0.5,75,269.78
250,B5,77.0,0.938,93,269.78
251,G2,77.0,1.0,82,269.78
252,C#5,77.5,0.5,71,269.78
253,E5,78.0,0.5,75,269.78
254,B5,78.0,1.0,93,269.78
255,F#2,78.0,5.0,86,269.78
256,C#5,78.5,0.5,71,269.78
257,E5,79.0,0.5,75,269.78
258,B-5,79.0,1.0,93,269.78
259,C#5,79.5,0.5,71,269.78
260,D5,80.0,0.5,75,269.78
261,G5,80.0,0.938,93,269.78
262,B4,80.5,0.5,63,269.78
263,C#5,81.0,0.5,75,269.78
264,G5,81.0,1.0,93,269.78
265,B-4,81.5,0.5,68,269.78
266,C#5,82.0,0.5,71,269.78
267,F#5,82.0,1.0,90,269.78
268,B-4,82.5,0.5,65,269.78
269,C#5,83.0,0.5,66,269.78
270,E5,83.0,0.938,83,269.78
271,B-2,83.0,1.0,72,269.78
272,G4,83.5,0.5,60,269.78
273,C#5,84.0,0.5,61,269.78
274,E5,84.0,1.0,77,269.78
275,B2,84.0,2.0,70,269.78
276,F#4,84.5,0.5,56,269.78
277,C5,85.0,0.5,57,269.78
278,E-5,85.0,1.0,71,269.78
279,B-4,85.5,0.5,51,269.78
280,B4,86.0,0.5,52,269.78
281,D5,86.0,0.938,66,269.78
282,G#2,86.0,1.0,57,269.78
283,F4,86.5,0.5,47,269.78
284,B4,87.0,0.5,48,269.78
285,D5,87.0,1.0,60,269.78
286,A2,87.0,2.0,55,269.78
287,E4,87.5,0.5,44,269.78
288,A4,88.0,0.5,44,269.78
289,C#5,88.0,1.0,55,269.78
290,G#4,88.5,0.5,39,269.78
291,A4,89.0,0.5,40,269.78
292,C5,89.0,1.0,50,269.78
293,E-2,89.0,1.0,44,269.78
294,F4,89.5,0.5,38,269.78
295,G#4,90.0,0.5,40,269.78
296,B4,90.0,1.0,50,269.78
297,E2,90.0,1.0,47,269.78
298,E4,90.5,0.5,38,269.78
299,D5,91.0,1.0,74,269.78
300,B4,91.0,0.5,62,269.78
301,E3,91.0,1.0,64,269.78
302,G#2,91.0,1.0,64,269.78
303,E4,91.5,0.5,56,269.78
304,C5,92.0,1.0,62,269.78
305,A4,92.0,0.5,62,269.78
306,A2,92.0,1.0,53,269.78
307,E4,92.5,0.5,38,269.78
308,G#4,93.0,0.5,40,269.78
309,B4,93.0,1.0,50,269.78
310,E2,93.0,1.0,54,269.78
311,E4,93.5,0.5,38,269.78
312,E5,94.0,1.0,74,269.78
313,B4,94.0,0.5,62,269.78
314,E3,94.0,1.0,64,269.78
315,G#2,94.0,1.0,64,269.78
316,E4,94.5,0.5,56,269.78
317,C5,95.0,1.0,62,269.78
318,A4,95.0,0.5,62,269.78
319,A2,95.0,1.0,53,269.78
320,E4,95.5,0.5,38,269.78
321,G#4,96.0,0.5,40,269.78
322,B4,96.0,1.0,50,269.78
323,E2,96.0,1.0,54,269.78
324,E4,96.5,0.5,38,269.78
325,D5,97.0,1.0,74,269.78
326,B4,97.0,0.5,62,269.78
327,E3,97.0,1.0,64,269.78
328,G#2,97.0,1.0,64,269.78
329,E4,97.5,0.5,56,269.78
330,C5,98.0,1.0,62,269.78
331,A4,98.0,0.5,62,269.78
332,A2,98.0,1.0,53,269.78
333,E4,98.5,0.5,38,269.78
334,G#4,99.0,0.5,40,269.78
335,B4,99.0,1.0,50,269.78
336,E2,99.0,1.0,54,269.78
337,E4,99.5,0.5,38,269.78
338,E5,100.0,1.0,74,269.78
339,B4,100.0,0.5,62,269.78
340,E3,100.0,1.0,64,269.78
341,G#2,100.0,1.0,64,269.78
342,E4,100.5,0.5,56,269.78
343,C5,101.0,1.0,62,269.78
344,A4,101.0,0.5,62,269.78
345,A2,101.0,1.0,53,269.78
346,E4,101.5,0.5,38,269.78
347,E2,102.0,1.0,54,269.78
348,G#4,102.0,0.5,45,269.78
349,B4,102.0,0.5,45,269.78
350,E4,102.5,0.5,38,269.78
351,E-4,103.0,0.5,42,269.78
352,E4,103.5,0.5,38,269.78
353,G#4,104.0,0.5,42,269.78
354,E4,104.5,0.5,38,269.78
355,B4,105.0,0.5,45,269.78
356,G#4,105.5,0.5,45,269.78
357,G4,106.0,0.5,46,269.78
358,G#4,106.5,0.5,49,269.78
359,B4,107.0,0.5,50,269.78
360,G#4,107.5,0.5,52,269.78
361,D5,108.0,0.5,54,269.78
362,B4,108.5,0.5,54,269.78
363,F5,109.0,0.5,55,269.78
364,D5,109.5,0.5,56,269.78
365,G#5,110.0,0.5,59,269.78
366,F5,110.5,0.5,63,269.78
367,B5,111.0,0.5,70,269.78
368,G#5,111.5,0.5,62,269.78
369,D6,112.0,0.5,70,269.78
370,B5,112.5,0.5,59,269.78
371,A5,113.0,0.5,65,269.78
372,E2,113.0,1.0,54,269.78
373,G#5,113.5,0.5,61,269.78
374,E6,114.0,0.5,69,269.78
375,A2,114.0,4.0,64,269.78
376,C#2,114.0,2.0,64,269.78
377,D6,114.5,0.5,63,269.78
378,C#6,115.0,0.5,59,269.78
379,B5,115.5,0.5,58,269.78
380,A5,116.0,0.5,56,269.78
381,G#5,116.5,0.5,49,269.78
382,A5,117.0,0.5,55,269.78
383,F#2,117.0,2.0,58,269.78
384,F#5,117.5,0.5,53,269.78
385,E-5,118.0,0.5,51,269.78
386,G#2,118.0,1.0,62,269.78
387,B4,118.5,0.5,51,269.78
388,A4,119.0,0.5,48,269.78
389,A2,119.0,1.0,70,269.78
390,F#4,119.5,0.5,46,269.78
391,B2,120.0,3.0,72,269.78
392,E2,120.0,2.0,72,269.78
393,D5,120.0,0.5,61,269.78
394,G#4,120.0,0.5,61,269.78
395,B4,120.5,0.5,51,269.78
396,G#4,121.0,0.5,48,269.78
397,E4,121.5,0.5,47,269.78
398,D4,122.0,0.5,46,269.78
399,B3,122.5,0.5,43,269.78
400,G4,123.0,0.5,49,269.78
401,A2,123.0,2.0,54,269.78
402,C#3,123.0,3.0,54,269.78
403,E4,123.5,0.5,42,269.78
404,C#4,124.0,0.5,45,269.78
405,A3,124.5,0.5,46,269.78
406,G#3,125.0,0.5,48,269.78
407,G3,125.5,0.5,52,269.78
408,F#3,126.0,0.5,54,269.78
409,D2,126.0,2.0,73,269.78
410,E3,126.0,1.0,73,269.78
411,B-3,126.5,0.5,38,269.78
412,B3,127.0,0.5,45,269.78
413,D3,127.0,1.0,62,269.78
414,F#3,127.5,0.5,38,269.78
415,C#4,128.0,0.5,43,269.78
416,C#3,128.0,1.0,54,269.78
417,F#3,128.5,0.5,38,269.78
418,D4,129.0,0.5,50,269.78
419,E2,129.0,2.0,66,269.78
420,B2,129.0,1.0,66,269.78
421,G#3,129.5,0.5,38,269.78
422,E3,130.0,0.5,43,269.78
423,C#3,130.0,1.0,49,269.78
424,G#3,130.5,0.5,38,269.78
425,D3,131.0,0.5,45,269.78
426,B2,131.0,1.0,41,269.78
427,G#3,131.5,0.5,37,269.78
428,C#3,132.0,0.5,45,269.78
429,A2,132.0,5.0,50,269.78
430,E3,132.5,0.5,33,269.78
431,A3,133.0,0.5,33,269.78
432,B3,133.5,0.5,33,269.78
433,C#4,134.0,0.5,33,269.78
434,E4,134.5,0.5,33,269.78
435,C#4,135.0,0.5,36,269.78
436,B3,135.5,0.5,31,269.78
437,A3,136.0,0.5,33,269.78
438,E3,136.5,1.5,33,269.78
439,E4,137.0,1.0,50,269.78
440,C#3,137.0,0.5,36,269.78
441,A2,137.5,0.5,36,269.78
442,F#2,138.0,0.5,48,269.78
443,A4,138.0,4.0,60,269.78
444,A3,138.0,4.0,60,269.78
445,A2,138.5,0.5,36,269.78
446,B2,139.0,0.5,36,269.78
447,C#3,139.5,0.5,36,269.78
448,B2,140.0,0.5,37,269.78
449,A2,140.5,0.5,37,269.78
450,E-3,141.0,0.5,47,269.78
451,F#2,141.5,0.5,37,269.78
452,G#2,142.0,0.5,51,269.78
453,G#4,142.0,1.0,64,269.78
454,G#3,142.0,1.0,64,269.78
455,A2,142.5,0.5,45,269.78
456,G#2,143.0,0.5,56,269.78
457,A3,143.0,1.0,68,269.78
458,A4,143.0,1.0,68,269.78
459,F#2,143.5,0.5,50,269.78
460,E2,144.0,0.5,65,269.78
461,B4,144.0,3.0,78,269.78
462,B3,144.0,3.0,78,269.78
463,D3,144.5,0.5,38,269.78
464,E3,145.0,0.5,52,269.78
465,F#3,145.5,0.5,39,269.78
466,E3,146.0,0.5,51,269.78
467,D3,146.5,0.5,47,269.78
468,C#5,147.0,3.0,71,269.78
469,C#4,147.0,3.0,71,269.78
470,G3,147.0,0.5,67,269.78
471,A2,147.0,0.5,67,269.78
472,E3,147.5,0.5,49,269.78
473,C#3,148.0,0.5,54,269.78
474,B2,148.5,0.5,47,269.78
475,G2,149.0,0.5,57,269.78
476,E2,149.5,0.5,53,269.78
477,D2,150.0,0.5,72,269.78
478,E5,150.0,1.0,84,269.78
479,C#5,150.0,1.0,84,269.78
480,E4,150.0,1.0,84,269.78
481,F#2,150.5,0.5,51,269.78
482,G#2,151.0,0.5,58,269.78
483,D5,151.0,1.0,72,269.78
484,B4,151.0,1.0,72,269.78
485,D4,151.0,1.0,72,269.78
486,A2,151.5,0.5,48,269.78
487,B2,152.0,0.5,55,269.78
488,C#5,152.0,1.0,66,269.78
489,A4,152.0,1.0,66,269.78
490,C#4,152.0,1.0,66,269.78
491,C#3,152.5,0.5,47,269.78
492,B4,153.0,1.0,78,269.78
493,G#4,153.0,1.0,78,269.78
494,B3,153.0,1.0,78,269.78
495,D3,153.0,0.5,64,269.78
496,E2,153.0,0.5,64,269.78
497,C#3,153.5,0.5,49,269.78
498,D3,154.0,0.5,55,269.78
499,C#5,154.0,1.0,68,269.78
500,C#4,154.0,1.0,68,269.78
501,B2,154.5,0.5,48,269.78
502,E3,155.0,0.5,54,269.78
503,B4,155.0,1.0,62,269.78
504,B3,155.0,1.0,62,269.78
505,D3,155.5,0.5,41,269.78
506,A4,156.0,2.0,84,269.78
507,A3,156.0,2.0,84,269.78
508,C#3,156.0,0.5,60,269.78
509,A2,156.0,0.5,60,269.78
510,E3,156.5,0.5,54,269.78
511,D3,157.0,0.5,54,269.78
512,C#3,157.5,0.5,54,269.78
513,B2,158.0,0.5,54,269.78
514,A5,158.0,1.0,80,269.78
515,A4,158.0,1.0,80,269.78
516,A2,158.5,0.5,51,269.78
517,G#2,159.0,0.5,55,269.78
518,B5,159.0,2.0,84,269.78
519,B4,159.0,2.0,84,269.78
520,A2,159.5,0.5,55,269.78
521,G2,160.0,0.5,57,269.78
522,A2,160.5,0.5,60,269.78
523,F#2,161.0,0.5,61,269.78
524,C#6,161.0,1.0,88,269.78
525,C#5,161.0,1.0,88,269.78
526,B-2,161.5,0.5,65,269.78
527,D2,162.0,0.5,75,269.78
528,E5,162.0,1.0,92,269.78
529,C#6,162.0,1.0,92,269.78
530,E6,162.0,1.0,92,269.78
531,F#2,162.5,0.5,53,269.78
532,G#2,163.0,0.5,62,269.78
533,D5,163.0,1.0,84,269.78
534,B5,163.0,1.0,84,269.78
535,D6,163.0,1.0,84,269.78
536,A2,163.5,0.5,50,269.78
537,B2,164.0,0.5,65,269.78
538,C#5,164.0,1.0,78,269.78
539,A5,164.0,1.0,78,269.78
540,C#6,164.0,1.0,78,269.78
541,C#3,164.5,0.5,49,269.78
542,D3,165.0,0.5,73,269.78
543,B4,165.0,1.0,90,269.78
544,G#5,165.0,1.0,90,269.78
545,B5,165.0,1.0,90,269.78
546,E2,165.5,0.5,51,269.78
547,E3,166.0,0.5,64,269.78
548,C#5,166.0,1.0,82,269.78
549,C#6,166.0,1.0,82,269.78
550,E2,166.5,0.5,50,269.78
551,D3,167.0,0.5,56,269.78
552,B4,167.0,1.0,74,269.78
553,B5,167.0,1.0,74,269.78
554,E2,167.5,0.5,43,269.78
555,A2,168.0,3.5,63,269.78
556,A4,168.0,1.0,86,269.78
557,A5,168.0,1.0,86,269.78
558,C#3,168.5,0.5,48,269.78
559,D3,169.0,0.5,50,269.78
560,E5,169.0,1.0,80,269.78
561,G#5,169.0,1.0,80,269.78
562,E3,169.5,0.5,46,269.78
563,F#3,170.0,0.5,47,269.78
564,D5,170.0,1.0,77,269.78
565,F#5,170.0,1.0,77,269.78
566,D3,170.5,0.5,45,269.78
567,E3,171.0,0.5,45,269.78
568,C#5,171.0,1.0,72,269.78
569,E5,171.0,1.0,72,269.78
570,F#3,171.5,0.5,41,269.78
571,G#3,172.0,0.5,43,269.78
572,C5,172.0,1.0,70,269.78
573,E-5,172.0,1.0,70,269.78
574,E3,172.5,0.5,41,269.78
575,F#3,173.0,0.5,42,269.78
576,B4,173.0,1.0,70,269.78
577,D5,173.0,1.0,70,269.78
578,G#3,173.5,0.5,37,269.78
579,A3,174.0,0.5,42,269.78
580,C#5,174.0,0.5,70,269.78
581,A4,174.0,0.5,70,269.78
582,F#4,175.0,0.375,38,269.78
583,D5,175.0,0.375,54,269.78
584,A4,175.0,0.375,54,269.78
585,E4,176.0,0.375,32,269.78
586,C#5,176.0,0.375,48,269.78
587,A4,176.0,0.375,48,269.78
588,E-4,177.0,0.375,38,269.78
589,A4,177.0,0.375,52,269.78
590,F#4,177.0,0.375,52,269.78
591,B4,177.0,0.375,52,269.78
592,D4,179.0,0.5,38,269.78
593,G#4,179.0,0.5,70,269.78
594,E5,179.0,0.5,70,269.78
595,A3,180.0,3.5,63,269.78
596,A4,180.0,1.0,73,269.78
597,A5,180.0,1.0,73,269.78
598,C#4,180.5,0.5,48,269.78
599,D4,181.0,0.5,50,269.78
600,E5,181.0,1.0,62,269.78
601,G#5,181.0,1.0,62,269.78
602,E4,181.5,0.5,46,269.78
603,F#4,182.0,0.5,47,269.78
604,D5,182.0,1.0,60,269.78
605,F#5,182.0,1.0,60,269.78
606,D4,182.5,0.5,45,269.78
607,E4,183.0,0.5,45,269.78
608,C#5,183.0,1.0,56,269.78
609,E5,183.0,1.0,56,269.78
610,F#4,183.5,0.5,41,269.78
611,G#4,184.0,0.5,43,269.78
612,C5,184.0,1.0,54,269.78
613,E-5,184.0,1.0,54,269.78
614,E4,184.5,0.5,41,269.78
615,F#4,185.0,0.5,42,269.78
616,B4,185.0,1.0,54,269.78
617,D5,185.0,1.0,54,269.78
618,G#4,185.5,0.5,37,269.78
619,A4,186.0,3.5,56,269.78
620,C#5,186.5,0.5,47,269.78
621,D5,187.0,0.5,47,269.78
622,E4,187.0,1.0,59,269.78
623,G#4,187.0,1.0,59,269.78
624,E5,187.5,0.5,47,269.78
625,F#5,188.0,0.5,51,269.78
626,D4,188.0,1.0,56,269.78
627,F#4,188.0,1.0,56,269.78
628,D5,188.5,0.5,47,269.78
629,E5,189.0,0.5,50,269.78
630,C#4,189.0,1.0,52,269.78
631,E4,189.0,1.0,52,269.78
632,F#5,189.5,0.5,47,269.78
633,G#5,190.0,0.5,49,269.78
634,C4,190.0,1.0,52,269.78
635,E-4,190.0,1.0,52,269.78
636,E5,190.5,0.5,47,269.78
637,F#5,191.0,0.5,50,269.78
638,B3,191.0,1.0,52,269.78
639,D4,191.0,1.0,52,269.78
640,G#5,191.5,0.5,47,269.78
641,A5,192.0,0.5,50,269.78
642,A3,192.0,1.0,52,269.78
643,C#4,192.0,1.0,52,269.78
644,C#6,192.5,0.5,51,269.78
645,D6,193.0,0.5,51,269.78
646,E3,193.0,1.0,52,269.78
647,G#3,193.0,1.0,52,269.78
648,E6,193.5,0.5,50,269.78
649,F#6,194.0,0.5,54,269.78
650,D3,194.0,1.0,48,269.78
651,F#3,194.0,1.0,48,269.78
652,D6,194.5,0.5,48,269.78
653,E6,195.0,0.5,50,269.78
654,C#3,195.0,1.0,44,269.78
655,E3,195.0,1.0,44,269.78
656,F#6,195.5,0.5,47,269.78
657,G#6,196.0,0.5,47,269.78
658,C3,196.0,1.0,42,269.78
659,E-3,196.0,1.0,42,269.78
660,E6,196.5,0.5,45,269.78
661,F#6,197.0,0.5,47,269.78
662,B2,197.0,1.0,40,269.78
663,D3,197.0,1.0,40,269.78
664,G#6,197.5,0.5,44,269.78
665,A6,198.0,0.5,52,269.78
666,A2,198.0,3.0,41,269.78
667,C#3,198.0,3.0,41,269.78
668,E6,198.5,0.5,52,269.78
669,C#6,199.0,0.5,48,269.78
670,A5,199.5,0.5,48,269.78
671,E5,200.0,0.5,48,269.78
672,C#5,200.5,0.5,48,269.78
673,A4,201.0,0.5,46,269.78
674,E4,201.5,0.5,45,269.78
675,C#4,202.0,0.5,43,269.78
676,A3,202.5,0.5,42,269.78
677,C#4,203.0,19/20,50,269.78
678,A3,203.5,0.5,40,269.78
679,C#4,204.0,2.0,50,269.78
680,F#1,204.0,2.0,44,269.78
681,F#2,204.0,2.0,44,269.78
682,G#3,204.5,0.5,37,269.78
683,A3,205.0,0.5,42,269.78
684,F#3,205.5,0.5,34,269.78
685,F#4,206.0,19/20,54,269.78
686,C#4,206.5,0.5,39,269.78
687,F#4,207.0,2.0,55,269.78
688,F#2,207.0,2.0,44,269.78
689,F#3,207.0,2.0,44,269.78
690,C4,207.5,0.5,45,269.78
691,C#4,208.0,0.5,55,269.78
692,A3,208.5,0.5,46,269.78
693,A4,209.0,1.0,66,269.78
694,F#4,209.5,0.5,55,269.78
695,D5,210.0,2.0,73,269.78
696,D4,210.0,2.0,60,269.78
697,A3,210.0,4.5,50,269.78
698,F#3,210.0,4.5,50,269.78
699,G#4,210.5,0.5,56,269.78
700,A4,211.0,0.5,61,269.78
701,F#4,211.5,0.5,56,269.78
702,C#5,212.0,1.0,68,269.78
703,C#4,212.0,1.0,48,269.78
704,A4,212.5,0.5,49,269.78
705,C5,213.0,1979/1000,68,269.78
706,C4,213.0,2.0,54,269.78
707,G#4,213.5,0.5,50,269.78
708,A4,214.0,0.5,55,269.78
709,F#4,214.5,0.5,45,269.78
710,C5,215.0,1.0,51,269.78
711,A3,215.0,1.0,36,269.78
712,F#3,215.0,1.0,36,269.78
713,A4,215.5,0.5,33,269.78
714,C#5,216.0,2.0,56,269.78
715,F3,216.0,1.0,44,269.78
716,G#3,216.0,1.0,44,269.78
717,G#4,216.5,0.5,43,269.78
718,C#4,217.0,0.5,46,269.78
719,E-4,217.5,0.5,42,269.78
720,F4,218.0,0.5,40,269.78
721,B4,218.0,427/500,50,269.78
722,C#3,218.0,1.0,35,269.78
723,C#2,218.0,1.0,35,269.78
724,C#4,218.5,0.5,38,269.78
725,B4,218.875,0.125,43,269.78
726,F#4,219.0,0.5,50,269.78
727,A4,219.0,0.5,50,269.78
728,F#2,219.0,1.0,44,269.78
729,F#3,219.0,1.0,44,269.78
730,C#4,219.5,0.5,46,269.78
731,F4,220.0,0.5,56,269.78
732,G#4,220.0,0.5,56,269.78
733,C#4,220.5,0.5,54,269.78
734,F#4,221.0,0.5,62,269.78
735,A4,221.0,0.5,62,269.78
736,C#4,221.5,0.5,57,269.78
737,F#4,222.0,0.5,55,269.78
738,A4,222.0,1.0,72,269.78
739,C#5,222.0,1.0,72,269.78
740,B1,222.0,1.0,44,269.78
741,B2,222.0,1.0,44,269.78
742,D4,222.5,0.5,54,269.78
743,G#4,223.0,0.5,48,269.78
744,B4,223.0,1.0,61,269.78
745,D4,223.5,0.5,49,269.78
746,F#4,224.0,0.5,45,269.78
747,A4,224.0,0.5,45,269.78
748,D4,224.5,0.5,41,269.78
749,F#4,225.0,0.5,44,269.78
750,A4,225.0,1.0,56,269.78
751,C#3,225.0,1.0,38,269.78
752,C#2,225.0,1.0,38,269.78
753,C#4,225.5,0.5,45,269.78
754,F4,226.0,0.5,40,269.78
755,G#4,226.0,1.0,50,269.78
756,B3,226.5,0.5,43,269.78
757,C#4,227.0,19/20,50,269.78
758,A3,227.5,0.5,40,269.78
759,C#4,228.0,2.0,56,269.78
760,F#1,228.0,2.0,44,269.78
761,F#2,228.0,2.0,44,269.78
762,G#3,228.5,0.5,37,269.78
763,A3,229.0,0.5,42,269.78
764,F#3,229.5,0.5,34,269.78
765,F#4,230.0,19/20,54,269.78
766,C#4,230.5,0.5,39,269.78
767,F#4,231.0,2.0,55,269.78
768,F#2,231.0,2.0,44,269.78
769,F#3,231.0,2.0,44,269.78
770,C4,231.5,0.5,45,269.78
771,C#4,232.0,0.5,55,269.78
772,A3,232.5,0.5,46,269.78
773,A4,233.0,1.0,66,269.78
774,F#4,233.5,0.5,55,269.78
775,D5,234.0,2.0,73,269.78
776,D4,234.0,2.0,55,269.78
777,A3,234.0,4.5,46,269.78
778,F#3,234.0,4.5,46,269.78
779,G#4,234.5,0.5,56,269.78
780,A4,235.0,0.5,61,269.78
781,F#4,235.5,0.5,56,269.78
782,C#5,236.0,1.0,68,269.78
783,C#4,236.0,1.0,48,269.78
784,A4,236.5,0.5,49,269.78
785,C5,237.0,1979/1000,68,269.78
786,C4,237.0,2.0,54,269.78
787,G#4,237.5,0.5,50,269.78
788,A4,238.0,0.5,55,269.78
789,F#4,238.5,0.5,45,269.78
790,C5,239.0,1.0,51,269.78
791,A3,239.0,1.0,36,269.78
792,F#3,239.0,1.0,36,269.78
793,A4,239.5,0.5,33,269.78
794,C#5,240.0,2.0,56,269.78
795,F3,240.0,1.0,44,269.78
796,G#3,240.0,1.0,44,269.78
797,G#4,240.5,0.5,43,269.78
798,C#4,241.0,0.5,46,269.78
799,D4,241.5,0.5,42,269.78
800,F#3,242.0,2.0,38,269.78
801,F#2,242.0,1.0,32,269.78
802,E4,242.0,0.5,45,269.78
803,B-4,242.0,0.5,45,269.78
804,C#4,242.5,0.5,38,269.78
805,D4,243.0,0.5,46,269.78
806,B4,243.0,1.0,56,269.78
807,B2,243.0,1.0,40,269.78
808,F#4,243.5,0.5,43,269.78
809,E4,244.0,0.5,46,269.78
810,D4,244.5,0.5,42,269.78
811,C#4,245.0,0.5,40,269.78
812,B-4,245.0,1.0,50,269.78
813,F#3,245.0,1.0,35,269.78
814,F#2,245.0,1.0,35,269.78
815,E4,245.5,0.5,38,269.78
816,D4,246.0,0.5,46,269.78
817,B4,246.0,1.0,56,269.78
818,B2,246.0,3.0,48,269.78
819,F#4,246.5,0.5,43,269.78
820,A4,247.0,0.5,48,269.78
821,C#4,247.0,0.5,48,269.78
822,E4,247.5,0.5,42,269.78
823,B3,248.0,0.5,45,269.78
824,G#4,248.0,0.5,45,269.78
825,D4,248.5,0.5,38,269.78
826,A3,249.0,0.5,46,269.78
827,F#4,249.0,1.0,56,269.78
828,C#3,249.0,2.0,40,269.78
829,C#4,249.5,0.5,43,269.78
830,F4,250.0,1.0,56,269.78
831,G#3,250.0,0.5,46,269.78
832,B3,250.5,0.5,42,269.78
833,C#4,251.0,0.5,40,269.78
834,B-4,251.0,1.0,50,269.78
835,F#3,251.0,1.0,38,269.78
836,F#2,251.0,1.0,32,269.78
837,E4,251.5,0.5,38,269.78
838,D4,252.0,0.5,43,269.78
839,B4,252.0,1.0,56,269.78
840,B2,252.0,1.0,40,269.78
841,F#3,252.0,1.0,38,269.78
842,F#4,252.5,0.5,43,269.78
843,E4,253.0,0.5,46,269.78
844,D4,253.5,0.5,42,269.78
845,C#4,254.0,0.5,40,269.78
846,B-4,254.0,1.0,50,269.78
847,F#3,254.0,2.0,38,269.78
848,F#2,254.0,1.0,32,269.78
849,E4,254.5,0.5,38,269.78
850,D4,255.0,0.5,46,269.78
851,B4,255.0,1.0,56,269.78
852,B2,255.0,1.0,40,269.78
853,F#4,255.5,0.5,43,269.78
854,E4,256.0,0.5,46,269.78
855,D4,256.5,0.5,42,269.78
856,C#4,257.0,0.5,40,269.78
857,B-4,257.0,1.0,50,269.78
858,F#3,257.0,1.0,35,269.78
859,F#2,257.0,1.0,35,269.78
860,E4,257.5,0.5,38,269.78
861,D4,258.0,0.5,46,269.78
862,B4,258.0,1.0,56,269.78
863,B2,258.0,3.0,48,269.78
864,F#4,258.5,0.5,43,269.78
865,A4,259.0,0.5,48,269.78
866,C#4,259.0,0.5,48,269.78
867,E4,259.5,0.5,42,269.78
868,B3,260.0,0.5,45,269.78
869,G#4,260.0,0.5,45,269.78
870,D4,260.5,0.5,38,269.78
871,A3,261.0,0.5,46,269.78
872,F#4,261.0,1.0,56,269.78
873,C#3,261.0,2.0,40,269.78
874,C#4,261.5,0.5,43,269.78
875,F4,262.0,1.0,56,269.78
876,G#3,262.0,0.5,46,269.78
877,B3,262.5,0.5,42,269.78
878,C#4,263.0,0.5,40,269.78
879,B-4,263.0,1.0,50,269.78
880,F#3,263.0,1.0,38,269.78
881,F#2,263.0,1.0,32,269.78
882,E4,263.5,0.5,38,269.78
883,D4,264.0,0.5,43,269.78
884,B4,264.0,1.0,56,269.78
885,B2,264.0,1.0,40,269.78
886,F#3,264.0,1.0,38,269.78
887,F#4,264.5,0.5,43,269.78
888,E4,265.0,0.5,46,269.78
889,D4,265.5,0.5,42,269.78
890,B-4,266.0,0.5,40,269.78
891,C#5,266.0,1.0,50,269.78
892,C#4,266.0,1.0,38,269.78
893,F#4,266.5,0.5,38,269.78
894,B4,267.0,0.5,45,269.78
895,D5,267.0,1.0,56,269.78
896,B3,267.0,1.0,42,269.78
897,F#4,267.5,0.5,43,269.78
898,C5,268.0,0.5,48,269.78
899,E-5,268.0,1.0,61,269.78
900,A3,268.0,1.0,46,269.78
901,F#4,268.5,0.5,48,269.78
902,B4,269.0,0.5,53,269.78
903,E5,269.0,1.0,66,269.78
904,G#3,269.0,1.0,50,269.78
905,G#4,269.5,0.5,52,269.78
906,E-5,270.0,0.5,58,269.78
907,F#5,270.0,1.0,72,269.78
908,F#3,270.0,1.0,54,269.78
909,A4,270.5,0.5,57,269.78
910,E5,271.0,0.5,62,269.78
911,G5,271.0,1.0,78,269.78
912,E3,271.0,1.0,63,269.78
913,B4,271.5,0.5,62,269.78
914,E5,272.0,0.5,67,269.78
915,G#5,272.0,1.0,84,269.78
916,D3,272.0,1.0,72,269.78
917,B4,272.5,0.5,66,269.78
918,E5,273.0,0.5,73,269.78
919,A5,273.0,1.0,91,269.78
920,C#3,273.0,1.0,84,269.78
921,C#5,273.5,0.5,70,269.78
922,E5,274.0,0.5,75,269.78
923,C#6,274.0,1.0,93,269.78
924,A2,274.0,1.0,82,269.78
925,C#5,274.5,0.5,71,269.78
926,E5,275.0,0.5,75,269.78
927,B5,275.0,0.938,93,269.78
928,G2,275.0,1.0,82,269.78
929,C#5,275.5,0.5,71,269.78
930,E5,276.0,0.5,75,269.78
931,B5,276.0,1.0,93,269.78
932,F#2,276.0,5.0,86,269.78
933,C#5,276.5,0.5,71,269.78
934,E5,277.0,0.5,75,269.78
935,B-5,277.0,1.0,93,269.78
936,C#5,277.5,0.5,71,269.78
937,D5,278.0,0.5,75,269.78
938,G5,278.0,0.938,93,269.78
939,B4,278.5,0.5,63,269.78
940,C#5,279.0,0.5,75,269.78
941,G5,279.0,1.0,93,269.78
942,B-4,279.5,0.5,68,269.78
943,C#5,280.0,0.5,71,269.78
944,F#5,280.0,1.0,90,269.78
945,B-4,280.5,0.5,65,269.78
946,C#5,281.0,0.5,66,269.78
947,E5,281.0,0.938,83,269.78
948,B-2,281.0,1.0,72,269.78
949,G4,281.5,0.5,60,269.78
950,C#5,282.0,0.5,61,269.78
951,E5,282.0,1.0,77,269.78
952,B2,282.0,2.0,70,269.78
953,F#4,282.5,0.5,56,269.78
954,C5,283.0,0.5,57,269.78
955,E-5,283.0,1.0,71,269.78
956,B-4,283.5,0.5,51,269.78
957,B4,284.0,0.5,52,269.78
958,D5,284.0,0.938,66,269.78
959,G#2,284.0,1.0,57,269.78
960,F4,284.5,0.5,47,269.78
961,B4,285.0,0.5,48,269.78
962,D5,285.0,1.0,60,269.78
963,A2,285.0,2.0,55,269.78
964,E4,285.5,0.5,44,269.78
965,A4,286.0,0.5,44,269.78
966,C#5,286.0,1.0,55,269.78
967,G#4,286.5,0.5,39,269.78
968,A4,287.0,0.5,40,269.78
969,C5,287.0,1.0,50,269.78
970,E-2,287.0,1.0,44,269.78
971,F4,287.5,0.5,38,269.78
972,G#4,288.0,0.5,40,269.78
973,B4,288.0,1.0,50,269.78
974,E2,288.0,1.0,47,269.78
975,E4,288.5,0.5,38,269.78
976,D5,289.0,1.0,74,269.78
977,B4,289.0,0.5,62,269.78
978,E3,289.0,1.0,64,269.78
979,G#2,289.0,1.0,64,269.78
980,E4,289.5,0.5,56,269.78
981,C5,290.0,1.0,62,269.78
982,A4,290.0,0.5,62,269.78
983,A2,290.0,1.0,53,269.78
984,E4,290.5,0.5,38,269.78
985,G#4,291.0,0.5,40,269.78
986,B4,291.0,1.0,50,269.78
987,E2,291.0,1.0,54,269.78
988,E4,291.5,0.5,38,269.78
989,E5,292.0,1.0,74,269.78
990,B4,292.0,0.5,62,269.78
991,E3,292.0,1.0,64,269.78
992,G#2,292.0,1.0,64,269.78
993,E4,292.5,0.5,56,269.78
994,C5,293.0,1.0,62,269.78
995,A4,293.0,0.5,62,269.78
996,A2,293.0,1.0,53,269.78
997,E4,293.5,0.5,38,269.78
998,G#4,294.0,0.5,40,269.78
999,B4,294.0,1.0,50,269.78
1000,E2,294.0,1.0,54,269.78
1001,E4,294.5,0.5,38,269.78
1002,D5,295.0,1.0,74,269.78
1003,B4,295.0,0.5,62,269.78
1004,E3,295.0,1.0,64,269.78
1005,G#2,295.0,1.0,64,269.78
1006,E4,295.5,0.5,56,269.78
1007,C5,296.0,1.0,62,269.78
1008,A4,296.0,0.5,62,269.78
1009,A2,296.0,1.0,53,269.78
1010,E4,296.5,0.5,38,269.78
1011,G#4,297.0,0.5,40,269.78
1012,B4,297.0,1.0,50,269.78
1013,E2,297.0,1.0,54,269.78
1014,E4,297.5,0.5,38,269.78
1015,E5,298.0,1.0,74,269.78
1016,B4,298.0,0.5,62,269.78
1017,E3,298.0,1.0,64,269.78
1018,G#2,298.0,1.0,64,269.78
1019,E4,298.5,0.5,56,269.78
1020,C5,299.0,1.0,62,269.78
1021,A4,299.0,0.5,62,269.78
1022,A2,299.0,1.0,53,269.78
1023,E4,299.5,0.5,38,269.78
1024,E2,300.0,1.0,54,269.78
1025,G#4,300.0,0.5,45,269.78
1026,B4,300.0,0.5,45,269.78
1027,E4,300.5,0.5,38,269.78
1028,E-4,301.0,0.5,42,269.78
1029,E4,301.5,0.5,38,269.78
1030,G#4,302.0,0.5,42,269.78
1031,E4,302.5,0.5,38,269.78
1032,B4,303.0,0.5,45,269.78
1033,G#4,303.5,0.5,45,269.78
1034,G4,304.0,0.5,46,269.78
1035,G#4,304.5,0.5,49,269.78
1036,B4,305.0,0.5,50,269.78
1037,G#4,305.5,0.5,52,269.78
1038,D5,306.0,0.5,54,269.78
1039,B4,306.5,0.5,54,269.78
1040,F5,307.0,0.5,55,269.78
1041,D5,307.5,0.5,56,269.78
1042,G#5,308.0,0.5,59,269.78
1043,F5,308.5,0.5,63,269.78
1044,B5,309.0,0.5,70,269.78
1045,G#5,309.5,0.5,62,269.78
1046,D6,310.0,0.5,70,269.78
1047,B5,310.5,0.5,59,269.78
1048,A5,311.0,0.5,65,269.78
1049,E2,311.0,1.0,54,269.78
1050,G#5,311.5,0.5,61,269.78
1051,E6,312.0,0.5,69,269.78
1052,C#2,312.0,2.0,64,269.78
1053,A2,312.0,4.0,64,269.78
1054,D6,312.5,0.5,63,269.78
1055,C#6,313.0,0.5,59,269.78
1056,B5,313.5,0.5,58,269.78
1057,A5,314.0,0.5,56,269.78
1058,G#5,314.5,0.5,49,269.78
1059,A5,315.0,0.5,55,269.78
1060,F#2,315.0,2.0,58,269.78
1061,F#5,315.5,0.5,53,269.78
1062,E-5,316.0,0.5,51,269.78
1063,G#2,316.0,1.0,62,269.78
1064,B4,316.5,0.5,51,269.78
1065,A4,317.0,0.5,48,269.78
1066,A2,317.0,1.0,70,269.78
1067,F#4,317.5,0.5,46,269.78
1068,B2,318.0,3.0,72,269.78
1069,E2,318.0,2.0,72,269.78
1070,D5,318.0,0.5,61,269.78
1071,G#4,318.0,0.5,61,269.78
1072,B4,318.5,0.5,51,269.78
1073,G#4,319.0,0.5,48,269.78
1074,E4,319.5,0.5,47,269.78
1075,D4,320.0,0.5,46,269.78
1076,B3,320.5,0.5,43,269.78
1077,G4,321.0,0.5,49,269.78
1078,A2,321.0,2.0,54,269.78
1079,C#3,321.0,3.0,54,269.78
1080,E4,321.5,0.5,42,269.78
1081,C#4,322.0,0.5,45,269.78
1082,A3,322.5,0.5,46,269.78
1083,G#3,323.0,0.5,48,269.78
1084,G3,323.5,0.5,52,269.78
1085,F#3,324.0,0.5,54,269.78
1086,E3,324.0,1.0,73,269.78
1087,D2,324.0,2.0,73,269.78
1088,B-3,324.5,0.5,38,269.78
1089,B3,325.0,0.5,45,269.78
1090,D3,325.0,1.0,62,269.78
1091,F#3,325.5,0.5,38,269.78
1092,C#4,326.0,0.5,43,269.78
1093,C#3,326.0,1.0,54,269.78
1094,F#3,326.5,0.5,38,269.78
1095,D4,327.0,0.5,50,269.78
1096,B2,327.0,1.0,66,269.78
1097,E2,327.0,2.0,66,269.78
1098,G#3,327.5,0.5,38,269.78
1099,E3,328.0,0.5,43,269.78
1100,C#3,328.0,1.0,49,269.78
1101,G#3,328.5,0.5,38,269.78
1102,D3,329.0,0.5,45,269.78
1103,B2,329.0,1.0,41,269.78
1104,G#3,329.5,0.5,37,269.78
1105,C#3,330.0,0.5,45,269.78
1106,A2,330.0,5.0,50,269.78
1107,E3,330.5,0.5,33,269.78
1108,A3,331.0,0.5,33,269.78
1109,B3,331.5,0.5,33,269.78
1110,C#4,332.0,0.5,33,269.78
1111,E4,332.5,0.5,33,269.78
1112,C#4,333.0,0.5,36,269.78
1113,B3,333.5,0.5,31,269.78
1114,A3,334.0,0.5,33,269.78
1115,E3,334.5,1.5,33,269.78
1116,E4,335.0,1.0,50,269.78
1117,C#3,335.0,0.5,36,269.78
1118,A2,335.5,0.5,36,269.78
1119,F#2,336.0,0.5,48,269.78
1120,A4,336.0,4.0,60,269.78
1121,A3,336.0,4.0,60,269.78
1122,A2,336.5,0.5,36,269.78
1123,B2,337.0,0.5,36,269.78
1124,C#3,337.5,0.5,36,269.78
1125,B2,338.0,0.5,37,269.78
1126,A2,338.5,0.5,37,269.78
1127,E-3,339.0,0.5,47,269.78
1128,F#2,339.5,0.5,37,269.78
1129,G#2,340.0,0.5,51,269.78
1130,G#4,340.0,1.0,64,269.78
1131,G#3,340.0,1.0,64,269.78
1132,A2,340.5,0.5,45,269.78
1133,G#2,341.0,0.5,56,269.78
1134,A3,341.0,1.0,68,269.78
1135,A4,341.0,1.0,68,269.78
1136,F#2,341.5,0.5,50,269.78
1137,E2,342.0,0.5,65,269.78
1138,B4,342.0,3.0,78,269.78
1139,B3,342.0,3.0,78,269.78
1140,D3,342.5,0.5,38,269.78
1141,E3,343.0,0.5,52,269.78
1142,F#3,343.5,0.5,39,269.78
1143,E3,344.0,0.5,51,269.78
1144,D3,344.5,0.5,47,269.78
1145,C#5,345.0,3.0,71,269.78
1146,C#4,345.0,3.0,71,269.78
1147,G3,345.0,0.5,67,269.78
1148,A2,345.0,0.5,67,269.78
1149,E3,345.5,0.5,49,269.78
1150,C#3,346.0,0.5,62,269.78
1151,B2,346.5,0.5,56,269.78
1152,G2,347.0,0.5,65,269.78
1153,E2,347.5,0.5,62,269.78
1154,D2,348.0,0.5,72,269.78
1155,E5,348.0,1.0,84,269.78
1156,C#5,348.0,1.0,84,269.78
1157,E4,348.0,1.0,84,269.78
1158,F#2,348.5,0.5,51,269.78
1159,G#2,349.0,0.5,58,269.78
1160,D5,349.0,1.0,72,269.78
1161,B4,349.0,1.0,72,269.78
1162,D4,349.0,1.0,72,269.78
1163,A2,349.5,0.5,48,269.78
1164,B2,350.0,0.5,55,269.78
1165,C#5,350.0,1.0,66,269.78
1166,A4,350.0,1.0,66,269.78
1167,C#4,350.0,1.0,66,269.78
1168,C#3,350.5,0.5,47,269.78
1169,B4,351.0,1.0,78,269.78
1170,G#4,351.0,1.0,78,269.78
1171,B3,351.0,1.0,78,269.78
1172,D3,351.0,0.5,64,269.78
1173,E2,351.0,0.5,64,269.78
1174,C#3,351.5,0.5,49,269.78
1175,D3,352.0,0.5,55,269.78
1176,C#5,352.0,1.0,68,269.78
1177,C#4,352.0,1.0,68,269.78
1178,B2,352.5,0.5,48,269.78
1179,E3,353.0,0.5,54,269.78
1180,B4,353.0,1.0,62,269.78
1181,B3,353.0,1.0,62,269.78
1182,D3,353.5,0.5,41,269.78
1183,A4,354.0,2.0,84,269.78
1184,A3,354.0,2.0,84,269.78
1185,C#3,354.0,0.5,60,269.78
1186,A2,354.0,0.5,60,269.78
1187,E3,354.5,0.5,54,269.78
1188,D3,355.0,0.5,54,269.78
1189,C#3,355.5,0.5,54,269.78
1190,B2,356.0,0.5,54,269.78
1191,A5,356.0,1.0,80,269.78
1192,A4,356.0,1.0,80,269.78
1193,A2,356.5,0.5,51,269.78
1194,G#2,357.0,0.5,55,269.78
1195,B5,357.0,2.0,84,269.78
1196,B4,357.0,2.0,84,269.78
1197,A2,357.5,0.5,55,269.78
1198,G2,358.0,0.5,57,269.78
1199,A2,358.5,0.5,60,269.78
1200,F#2,359.0,0.5,61,269.78
1201,C#6,359.0,1.0,88,269.78
1202,C#5,359.0,1.0,88,269.78
1203,B-2,359.5,0.5,65,269.78
1204,D2,360.0,0.5,75,269.78
1205,E5,360.0,1.0,92,269.78
1206,C#6,360.0,1.0,92,269.78
1207,E6,360.0,1.0,92,269.78
1208,F#2,360.5,0.5,53,269.78
1209,G#2,361.0,0.5,66,269.78
1210,D5,361.0,1.0,84,269.78
1211,B5,361.0,1.0,84,269.78
1212,D6,361.0,1.0,84,269.78
1213,A2,361.5,0.5,50,269.78
1214,B2,362.0,0.5,63,269.78
1215,C#5,362.0,1.0,78,269.78
1216,A5,362.0,1.0,78,269.78
1217,C#6,362.0,1.0,78,269.78
1218,C#3,362.5,0.5,49,269.78
1219,D3,363.0,0.5,67,269.78
1220,B4,363.0,1.0,90,269.78
1221,G#5,363.0,1.0,90,269.78
1222,B5,363.0,1.0,90,269.78
1223,E2,363.5,0.5,51,269.78
1224,E3,364.0,0.5,57,269.78
1225,C#5,364.0,1.0,82,269.78
1226,C#6,364.0,1.0,82,269.78
1227,E2,364.5,0.5,50,269.78
1228,D3,365.0,0.5,56,269.78
1229,B4,365.0,1.0,74,269.78
1230,B5,365.0,1.0,74,269.78
1231,E2,365.5,0.5,43,269.78
1232,A2,366.0,3.5,63,269.78
1233,A4,366.0,1.0,86,269.78
1234,A5,366.0,1.0,86,269.78
1235,C#3,366.5,0.5,48,269.78
1236,D3,367.0,0.5,50,269.78
1237,E5,367.0,1.0,80,269.78
1238,G#5,367.0,1.0,80,269.78
1239,E3,367.5,0.5,46,269.78
1240,F#3,368.0,0.5,47,269.78
1241,D5,368.0,1.0,77,269.78
1242,F#5,368.0,1.0,77,269.78
1243,D3,368.5,0.5,45,269.78
1244,E3,369.0,0.5,45,269.78
1245,C#5,369.0,1.0,72,269.78
1246,E5,369.0,1.0,72,269.78
1247,F#3,369.5,0.5,41,269.78
1248,G#3,370.0,0.5,43,269.78
1249,C5,370.0,1.0,70,269.78
1250,E-5,370.0,1.0,70,269.78
1251,E3,370.5,0.5,41,269.78
1252,F#3,371.0,0.5,42,269.78
1253,B4,371.0,1.0,70,269.78
1254,D5,371.0,1.0,70,269.78
1255,G#3,371.5,0.5,37,269.78
1256,A3,372.0,0.5,42,269.78
1257,C#5,372.0,0.5,70,269.78
1258,A4,372.0,0.5,70,269.78
1259,F#4,373.0,0.375,38,269.78
1260,D5,373.0,0.375,54,269.78
1261,A4,373.0,0.375,54,269.78
1262,E4,374.0,0.375,32,269.78
1263,C#5,374.0,0.375,48,269.78
1264,A4,374.0,0.375,48,269.78
1265,E-4,375.0,0.375,38,269.78
1266,A4,375.0,0.375,52,269.78
1267,F#4,375.0,0.375,52,269.78
1268,B4,375.0,0.375,52,269.78
1269,D4,377.0,0.5,38,269.78
1270,G#4,377.0,0.5,70,269.78
1271,E5,377.0,0.5,70,269.78
1272,A3,378.0,3.5,63,269.78
1273,A4,378.0,1.0,73,269.78
1274,A5,378.0,1.0,73,269.78
1275,C#4,378.5,0.5,48,269.78
1276,D4,379.0,0.5,50,269.78
1277,E5,379.0,1.0,62,269.78
1278,G#5,379.0,1.0,62,269.78
1279,E4,379.5,0.5,46,269.78
1280,F#4,380.0,0.5,47,269.78
1281,D5,380.0,1.0,60,269.78
1282,F#5,380.0,1.0,60,269.78
1283,D4,380.5,0.5,45,269.78
1284,E4,381.0,0.5,45,269.78
1285,C#5,381.0,1.0,56,269.78
1286,E5,381.0,1.0,56,269.78
1287,F#4,381.5,0.5,41,269.78
1288,G#4,382.0,0.5,43,269.78
1289,C5,382.0,1.0,54,269.78
1290,E-5,382.0,1.0,54,269.78
1291,E4,382.5,0.5,41,269.78
1292,F#4,383.0,0.5,42,269.78
1293,B4,383.0,1.0,54,269.78
1294,D5,383.0,1.0,54,269.78
1295,G#4,383.5,0.5,37,269.78
1296,A4,384.0,3.5,56,269.78
1297,C#5,384.5,0.5,47,269.78
1298,D5,385.0,0.5,47,269.78
1299,E4,385.0,1.0,59,269.78
1300,G#4,385.0,1.0,59,269.78
1301,E5,385.5,0.5,47,269.78
1302,F#5,386.0,0.5,51,269.78
1303,F#4,386.0,1.0,56,269.78
1304,D4,386.0,1.0,56,269.78
1305,D5,386.5,0.5,47,269.78
1306,E5,387.0,0.5,50,269.78
1307,C#4,387.0,1.0,52,269.78
1308,E4,387.0,1.0,52,269.78
1309,F#5,387.5,0.5,47,269.78
1310,G#5,388.0,0.5,49,269.78
1311,C4,388.0,1.0,52,269.78
1312,E-4,388.0,1.0,52,269.78
1313,E5,388.5,0.5,47,269.78
1314,F#5,389.0,0.5,50,269.78
1315,B3,389.0,1.0,52,269.78
1316,D4,389.0,1.0,52,269.78
1317,G#5,389.5,0.5,47,269.78
1318,A5,390.0,0.5,50,269.78
1319,A3,390.0,1.0,52,269.78
1320,C#4,390.0,1.0,52,269.78
1321,C#6,390.5,0.5,51,269.78
1322,D6,391.0,0.5,51,269.78
1323,G#3,391.0,1.0,52,269.78
1324,E3,391.0,1.0,52,269.78
1325,E6,391.5,0.5,50,269.78
1326,F#6,392.0,0.5,54,269.78
1327,D3,392.0,1.0,48,269.78
1328,F#3,392.0,1.0,48,269.78
1329,D6,392.5,0.5,48,269.78
1330,E6,393.0,0.5,50,269.78
1331,E3,393.0,1.0,44,269.78
1332,C#3,393.0,1.0,44,269.78
1333,F#6,393.5,0.5,47,269.78
1334,G#6,394.0,0.5,47,269.78
1335,C3,394.0,1.0,42,269.78
1336,E-3,394.0,1.0,42,269.78
1337,E6,394.5,0.5,45,269.78
1338,F#6,395.0,0.5,47,269.78
1339,B2,395.0,1.0,40,269.78
1340,D3,395.0,1.0,40,269.78
1341,G#6,395.5,0.5,44,269.78
1342,A6,396.0,0.5,52,269.78
1343,A2,396.0,3.0,41,269.78
1344,C#3,396.0,3.0,41,269.78
1345,E6,396.5,0.5,52,269.78
1346,C#6,397.0,0.5,48,269.78
1347,A5,397.5,0.5,48,269.78
1348,E5,398.0,0.5,48,269.78
1349,C#5,398.5,0.5,48,269.78
1350,A4,399.0,0.5,46,269.78
1351,E4,399.5,0.5,45,269.78
1352,C#4,400.0,0.5,43,269.78
1353,A3,400.5,0.5,42,269.78
1354,E3,401.0,0.5,50,269.78
1355,C3,401.5,0.5,42,269.78
1356,E3,402.0,2.0,56,269.78
1357,A1,402.0,2.0,48,269.78
1358,B2,402.5,0.5,37,269.78
1359,C3,403.0,0.5,42,269.78
1360,A2,403.5,0.5,34,269.78
1361,A3,404.0,19/20,54,269.78
1362,E3,404.5,0.5,39,269.78
1363,A3,405.0,2.0,55,269.78
1364,A1,405.0,2.0,44,269.78
1365,A2,405.0,2.0,44,269.78
1366,E-3,405.5,0.5,45,269.78
1367,E3,406.0,0.5,55,269.78
1368,C3,406.5,0.5,46,269.78
1369,C4,407.0,1.0,66,269.78
1370,A3,407.5,0.5,55,269.78
1371,F4,408.0,2.0,73,269.78
1372,F3,408.0,2.0,60,269.78
1373,C3,408.0,4.5,50,269.78
1374,A2,408.0,4.5,50,269.78
1375,B3,408.5,0.5,56,269.78
1376,C4,409.0,0.5,61,269.78
1377,A3,409.5,0.5,56,269.78
1378,E4,410.0,1.0,68,269.78
1379,E3,410.0,1.0,48,269.78
1380,C4,410.5,0.5,49,269.78
1381,E-4,411.0,1979/1000,68,269.78
1382,E-3,411.0,2.0,54,269.78
1383,B3,411.5,0.5,50,269.78
1384,C4,412.0,0.5,55,269.78
1385,A3,412.5,0.5,45,269.78
1386,E-4,413.0,1.0,51,269.78
1387,C3,413.0,1.0,36,269.78
1388,A2,413.0,1.0,36,269.78
1389,C4,413.5,0.5,33,269.78
1390,E4,414.0,1.0,45,269.78
1391,G#1,414.5,0.5,35,269.78
1392,B2,415.0,0.5,42,269.78
1393,E3,415.5,0.5,39,269.78
1394,B3,416.0,0.5,40,269.78
1395,E-4,416.5,0.5,42,269.78
1396,E4,417.0,1.0,44,269.78
1397,G2,417.5,0.5,36,269.78
1398,B3,418.0,0.5,39,269.78
1399,E4,418.5,0.5,43,269.78
1400,B4,419.0,0.5,48,269.78
1401,E-5,419.5,0.5,50,269.78
1402,E5,420.0,1.0,52,269.78
1403,F#3,420.5,0.5,36,269.78
1404,G4,421.0,0.5,39,269.78
1405,E6,421.5,0.5,58,269.78
1406,C#6,422.0,0.5,57,269.78
1407,B-5,422.5,0.5,55,269.78
1408,G5,423.0,0.5,54,269.78
1409,E5,423.5,0.5,54,269.78
1410,C#5,424.0,0.5,54,269.78
1411,B-4,424.5,0.5,53,269.78
1412,F#4,425.0,0.5,50,269.78
1413,D4,425.5,0.5,46,269.78
1414,F#4,426.0,2.0,56,269.78
1415,B1,426.0,2.0,46,269.78
1416,B2,426.0,2.0,46,269.78
1417,C#4,426.5,0.5,37,269.78
1418,D4,427.0,0.5,42,269.78
1419,B3,427.5,0.5,34,269.78
1420,B4,428.0,19/20,54,269.78
1421,F#4,428.5,0.5,39,269.78
1422,B4,429.0,2.0,55,269.78
1423,B2,429.0,2.0,44,269.78
1424,B3,429.0,2.0,44,269.78
1425,F4,429.5,0.5,45,269.78
1426,F#4,430.0,0.5,55,269.78
1427,D4,430.5,0.5,46,269.78
1428,D5,431.0,1.0,66,269.78
1429,B4,431.5,0.5,55,269.78
1430,G5,432.0,2.0,73,269.78
1431,G4,432.0,2.0,60,269.78
1432,D4,432.0,4.5,50,269.78
1433,B3,432.0,4.5,50,269.78
1434,C#5,432.5,0.5,56,269.78
1435,D5,433.0,0.5,61,269.78
1436,B4,433.5,0.5,56,269.78
1437,F#5,434.0,1.0,68,269.78
1438,F#4,434.0,1.0,48,269.78
1439,D5,434.5,0.5,49,269.78
1440,F5,435.0,1979/1000,68,269.78
1441,F4,435.0,2.0,54,269.78
1442,C#5,435.5,0.5,50,269.78
1443,D5,436.0,0.5,55,269.78
1444,B4,436.5,0.5,45,269.78
1445,F5,437.0,1.0,51,269.78
1446,D4,437.0,1.0,36,269.78
1447,B3,437.0,1.0,36,269.78
1448,D5,437.5,0.5,33,269.78
1449,C#5,438.0,1.0,45,269.78
1450,F#5,438.0,1.0,45,269.78
1451,B-2,438.5,0.5,35,269.78
1452,C#4,439.0,0.5,42,269.78
1453,F#4,439.5,0.5,39,269.78
1454,C#5,440.0,0.5,40,269.78
1455,F5,440.5,0.5,42,269.78
1456,F#5,441.0,1.0,44,269.78
1457,A3,441.5,0.5,36,269.78
1458,C#5,442.0,0.5,39,269.78
1459,F#5,442.5,0.5,43,269.78
1460,C#6,443.0,0.5,48,269.78
1461,F6,443.5,0.5,50,269.78
1462,F#6,444.0,1.0,52,269.78
1463,G#4,444.5,0.5,36,269.78
1464,A5,445.0,0.5,39,269.78
1465,E-6,445.5,0.5,58,269.78
1466,C6,446.0,0.5,57,269.78
1467,A5,446.5,0.5,55,269.78
1468,F#5,447.0,0.5,54,269.78
1469,E-5,447.5,0.5,54,269.78
1470,C5,448.0,0.5,54,269.78
1471,A4,448.5,0.5,53,269.78
1472,F#4,449.0,0.5,50,269.78
1473,E-4,449.5,0.5,46,269.78
1474,C#4,450.0,1.0,45,269.78
1475,F2,450.5,0.5,35,269.78
1476,G#3,451.0,0.5,42,269.78
1477,C#4,451.5,0.5,42,269.78
1478,G#4,452.0,0.5,44,269.78
1479,B4,452.5,0.5,46,269.78
1480,B-4,453.0,1.0,49,269.78
1481,E3,453.5,0.5,40,269.78
1482,F#4,454.0,0.5,44,269.78
1483,C#5,454.5,0.5,49,269.78
1484,F#5,455.0,0.5,55,269.78
1485,B-5,455.5,0.5,57,269.78
1486,C#6,456.0,0.5,67,269.78
1487,B5,456.5,0.5,58,269.78
1488,E-2,456.5,0.5,40,269.78
1489,F#3,457.0,0.5,49,269.78
1490,B3,457.5,0.5,46,269.78
1491,F#4,458.0,0.5,47,269.78
1492,A4,458.5,0.5,50,269.78
1493,G#4,459.0,1.0,52,269.78
1494,D3,459.5,0.5,43,269.78
1495,E4,460.0,0.5,47,269.78
1496,B4,460.5,0.5,52,269.78
1497,E5,461.0,0.5,59,269.78
1498,G#5,461.5,0.5,62,269.78
1499,B5,462.0,0.5,70,269.78
1500,A5,462.5,0.5,62,269.78
1501,C#2,462.5,0.5,43,269.78
1502,E3,463.0,0.5,52,269.78
1503,A3,463.5,0.5,49,269.78
1504,E4,464.0,0.5,51,269.78
1505,G#4,464.5,0.5,53,269.78
1506,G4,465.0,1.0,56,269.78
1507,C#3,465.5,0.5,46,269.78
1508,E-4,466.0,0.5,51,269.78
1509,B-4,466.5,0.5,56,269.78
1510,E-5,467.0,0.5,63,269.78
1511,G5,467.5,0.5,66,269.78
1512,A5,468.0,0.5,73,269.78
1513,G#5,468.5,0.5,67,269.78
1514,C2,468.5,0.5,46,269.78
1515,E-3,469.0,0.5,56,269.78
1516,G#3,469.5,0.5,53,269.78
1517,E-4,470.0,0.5,54,269.78
1518,F#4,470.5,0.5,57,269.78
1519,F4,471.0,1.0,60,269.78
1520,B2,471.5,0.5,49,269.78
1521,C#4,472.0,0.5,54,269.78
1522,B4,472.5,0.5,60,269.78
1523,C#5,473.0,0.5,67,269.78
1524,F5,473.5,0.5,70,269.78
1525,G#5,474.0,0.5,77,269.78
1526,F#5,474.5,0.5,71,269.78
1527,A3,474.5,0.5,50,269.78
1528,C#4,475.0,0.5,60,269.78
1529,F#4,475.5,0.5,56,269.78
1530,B4,476.0,0.5,58,269.78
1531,G#3,476.0,1.0,59,269.78
1532,E5,476.5,0.5,61,269.78
1533,D5,477.0,1.0,64,269.78
1534,F#3,477.5,0.5,52,269.78
1535,C#4,478.0,0.5,57,269.78
1536,A4,478.5,0.5,64,269.78
1537,G#4,479.0,0.5,71,269.78
1538,F3,479.0,1.0,61,269.78
1539,C#5,479.5,0.5,75,269.78
1540,G#5,480.0,0.5,79,269.78
1541,F#5,480.5,0.5,76,269.78
1542,A3,480.5,0.5,53,269.78
1543,C#4,481.0,0.5,63,269.78
1544,F#4,481.5,0.5,59,269.78
1545,B4,482.0,0.5,61,269.78
1546,G#3,482.0,1.0,63,269.78
1547,E5,482.5,0.5,64,269.78
1548,D5,483.0,1.0,68,269.78
1549,F#3,483.5,0.5,56,269.78
1550,C#4,484.0,0.5,61,269.78
1551,A4,484.5,0.5,67,269.78
1552,G#4,485.0,0.5,75,269.78
1553,F3,485.0,1.0,64,269.78
1554,C#5,485.5,0.5,79,269.78
1555,B4,486.0,1.0,90,269.78
1556,D3,486.5,0.5,56,269.78
1557,F#3,487.0,0.5,67,269.78
1558,B3,487.5,0.5,62,269.78
1559,E4,488.0,0.5,64,269.78
1560,C#3,488.0,1.0,65,269.78
1561,G3,488.0,1.0,65,269.78
1562,B-4,488.5,0.5,67,269.78
1563,B4,489.0,1.0,70,269.78
1564,D3,489.5,0.5,57,269.78
1565,F#3,490.0,0.5,62,269.78
1566,B3,490.5,0.5,68,269.78
1567,E4,491.0,0.5,76,269.78
1568,C#3,491.0,1.0,65,269.78
1569,G3,491.0,1.0,65,269.78
1570,B-4,491.5,0.5,80,269.78
1571,B4,492.0,0.5,90,269.78
1572,F#3,492.0,0.5,56,269.78
1573,D3,492.0,0.5,56,269.78
1574,B3,492.5,0.5,62,269.78
1575,E4,493.0,0.5,66,269.78
1576,C#3,493.0,1.0,66,269.78
1577,G3,493.0,1.0,66,269.78
1578,B-4,493.5,0.5,72,269.78
1579,B4,494.0,0.5,84,269.78
1580,D3,494.0,0.5,58,269.78
1581,F#3,494.0,0.5,58,269.78
1582,B3,494.5,0.5,72,269.78
1583,E4,495.0,0.5,75,269.78
1584,C#3,495.0,1.0,69,269.78
1585,G3,495.0,1.0,69,269.78
1586,B-4,495.5,0.5,82,269.78
1587,B4,496.0,0.5,89,269.78
1588,D3,496.0,0.5,61,269.78
1589,F#3,496.0,0.5,61,269.78
1590,B3,496.5,0.5,77,269.78
1591,E4,497.0,0.5,81,269.78
1592,C#3,497.0,1.0,72,269.78
1593,G3,497.0,1.0,72,269.78
1594,B-4,497.5,0.5,88,269.78
1595,F#4,498.0,0.5,81,269.78
1596,C5,498.0,3.0,103,269.78
1597,D3,498.0,3.0,74,269.78
1598,F#3,498.0,4.0,74,269.78
1599,F4,498.5,0.5,67,269.78
1600,F#4,499.0,0.5,71,269.78
1601,G#4,499.5,0.5,72,269.78
1602,A4,500.0,0.5,78,269.78
1603,G#4,500.5,0.5,72,269.78
1604,F#4,501.0,0.5,81,269.78
1605,C#5,501.0,1.0,103,269.78
1606,C#3,501.0,1.0,74,269.78
1607,A3,501.0,1.0,74,269.78
1608,F4,501.5,0.5,70,269.78
1609,F#4,502.0,0.5,72,269.78
1610,G#4,502.5,0.5,74,269.78
1611,A4,503.0,0.5,76,269.78
1612,G#4,503.5,0.5,72,269.78
1613,F#4,504.0,0.5,81,269.78
1614,C5,504.0,3.0,103,269.78
1615,D3,504.0,3.0,74,269.78
1616,F#3,504.0,4.0,74,269.78
1617,F4,504.5,0.5,67,269.78
1618,F#4,505.0,0.5,71,269.78
1619,G#4,505.5,0.5,72,269.78
1620,A4,506.0,0.5,78,269.78
1621,G#4,506.5,0.5,72,269.78
1622,F#4,507.0,0.5,81,269.78
1623,C#5,507.0,1.0,103,269.78
1624,C#3,507.0,1.0,74,269.78
1625,A3,507.0,1.0,74,269.78
1626,F4,507.5,0.5,70,269.78
1627,F#4,508.0,0.5,72,269.78
1628,G#4,508.5,0.5,74,269.78
1629,A4,509.0,0.5,76,269.78
1630,G#4,509.5,0.5,72,269.78
1631,F#4,510.0,0.5,81,269.78
1632,C5,510.0,6.0,103,269.78
1633,D4,510.0,6.0,74,269.78
1634,F4,510.5,0.5,67,269.78
1635,F#4,511.0,0.5,71,269.78
1636,G#4,511.5,0.5,72,269.78
1637,A4,512.0,0.5,78,269.78
1638,G#4,512.5,0.5,72,269.78
1639,F#4,513.0,0.5,52,269.78
1640,F4,513.5,0.5,53,269.78
1641,F#4,514.0,0.5,54,269.78
1642,G4,514.5,0.5,55,269.78
1643,A4,515.0,0.5,61,269.78
1644,F#4,515.5,0.5,54,269.78
1645,B4,516.0,3.0,62,269.78
1646,A4,516.0,0.5,58,269.78
1647,G3,516.0,3.0,40,269.78
1648,G4,516.5,0.5,47,269.78
1649,F#4,517.0,0.5,47,269.78
1650,G4,517.5,0.5,47,269.78
1651,A4,518.0,0.5,54,269.78
1652,G4,518.5,0.5,47,269.78
1653,D5,519.0,3.0,60,269.78
1654,G#4,519.0,0.5,56,269.78
1655,E3,519.0,3.0,38,269.78
1656,F#4,519.5,0.5,45,269.78
1657,G#4,520.0,0.5,45,269.78
1658,A4,520.5,0.5,45,269.78
1659,B4,521.0,0.5,52,269.78
1660,G#4,521.5,0.5,45,269.78
1661,C#5,522.0,3.0,57,269.78
1662,B4,522.0,0.5,53,269.78
1663,A2,522.0,3.0,37,269.78
1664,A4,522.5,0.5,43,269.78
1665,G#4,523.0,0.5,44,269.78
1666,A4,523.5,0.5,44,269.78
1667,B4,524.0,0.5,49,269.78
1668,A4,524.5,0.5,44,269.78
1669,E5,525.0,3.0,55,269.78
1670,B-4,525.0,0.5,51,269.78
1671,F#2,525.0,3.0,35,269.78
1672,G#4,525.5,0.5,42,269.78
1673,B-4,526.0,0.5,42,269.78
1674,B4,526.5,0.5,41,269.78
1675,C#5,527.0,0.5,47,269.78
1676,B-4,527.5,0.5,42,269.78
1677,D5,528.0,3.0,52,269.78
1678,C#5,528.0,0.5,49,269.78
1679,B1,528.0,3.0,34,269.78
1680,B4,528.5,0.5,40,269.78
1681,B-4,529.0,0.5,40,269.78
1682,B4,529.5,0.5,40,269.78
1683,C#5,530.0,0.5,46,269.78
1684,B4,530.5,0.5,41,269.78
1685,C#5,531.0,3.0,52,269.78
1686,B4,531.0,0.5,49,269.78
1687,C#2,531.0,3.0,34,269.78
1688,A4,531.5,0.5,40,269.78
1689,G#4,532.0,0.5,40,269.78
1690,A4,532.5,0.5,40,269.78
1691,B4,533.0,0.5,46,269.78
1692,A4,533.5,0.5,41,269.78
1693,C5,534.0,3.0,52,269.78
1694,A4,534.0,0.5,49,269.78
1695,E-2,534.0,3.0,34,269.78
1696,G#4,534.5,0.5,40,269.78
1697,G4,535.0,0.5,40,269.78
1698,G#4,535.5,0.5,40,269.78
1699,A4,536.0,0.5,46,269.78
1700,G#4,536.5,0.5,41,269.78
1701,B4,537.0,3.0,52,269.78
1702,A4,537.0,0.5,49,269.78
1703,F2,537.0,3.0,34,269.78
1704,G#4,537.5,0.5,40,269.78
1705,F#4,538.0,0.5,40,269.78
1706,G#4,538.5,0.5,40,269.78
1707,A4,539.0,0.5,46,269.78
1708,G#4,539.5,0.5,41,269.78
1709,B-4,540.0,3.0,52,269.78
1710,G#4,540.0,0.5,49,269.78
1711,F#2,540.0,3.0,34,269.78
1712,F#4,540.5,0.5,40,269.78
1713,F4,541.0,0.5,40,269.78
1714,F#4,541.5,0.5,40,269.78
1715,G#4,542.0,0.5,46,269.78
1716,F#4,542.5,0.5,41,269.78
1717,A4,543.0,3.0,52,269.78
1718,G#4,543.0,0.5,49,269.78
1719,C2,543.0,3.0,34,269.78
1720,F#4,543.5,0.5,40,269.78
1721,F4,544.0,0.5,40,269.78
1722,F#4,544.5,0.5,40,269.78
1723,G#4,545.0,0.5,46,269.78
1724,F#4,545.5,0.5,41,269.78
1725,F4,546.0,0.5,55,269.78
1726,C#2,546.0,3.0,63,269.78
1727,C#4,546.5,0.5,45,269.78
1728,G#3,547.0,0.5,49,269.78
1729,C#4,547.5,0.5,47,269.78
1730,F4,548.0,0.5,49,269.78
1731,G#4,548.5,0.5,49,269.78
1732,F4,549.0,0.5,57,269.78
1733,F2,549.0,1.0,60,269.78
1734,C#4,549.5,0.5,45,269.78
1735,G#3,550.0,0.5,49,269.78
1736,G#2,550.0,1.0,56,269.78
1737,C#4,550.5,0.5,47,269.78
1738,F4,551.0,0.5,46,269.78
1739,B2,551.0,427/500,51,269.78
1740,G#4,551.5,0.5,43,269.78
1741,B2,551.875,0.125,56,269.78
1742,F#4,552.0,0.5,55,269.78
1743,C#2,552.0,3.0,69,269.78
1744,A2,552.0,1.0,69,269.78
1745,C#4,552.5,0.5,45,269.78
1746,A3,553.0,0.5,49,269.78
1747,G#2,553.0,1.0,64,269.78
1748,C#4,553.5,0.5,47,269.78
1749,F#4,554.0,0.5,49,269.78
1750,F#2,554.0,1.0,54,269.78
1751,A4,554.5,0.5,49,269.78
1752,F#4,555.0,0.5,57,269.78
1753,A2,555.0,1.0,64,269.78
1754,E-4,555.5,0.5,45,269.78
1755,C4,556.0,0.5,49,269.78
1756,G#2,556.0,1.0,59,269.78
1757,E-4,556.5,0.5,47,269.78
1758,F#4,557.0,0.5,46,269.78
1759,F#2,557.0,1.0,59,269.78
1760,A4,557.5,0.5,43,269.78
1761,G#4,558.0,0.5,55,269.78
1762,C#2,558.0,2.0,59,269.78
1763,C#3,558.0,3.0,63,269.78
1764,F4,558.5,0.5,45,269.78
1765,C#4,559.0,0.5,49,269.78
1766,F4,559.5,0.5,47,269.78
1767,G#4,560.0,0.5,49,269.78
1768,C#5,560.5,0.5,49,269.78
1769,G#4,561.0,0.5,57,269.78
1770,D3,561.0,1.0,60,269.78
1771,F4,561.5,0.5,45,269.78
1772,C#4,562.0,0.5,49,269.78
1773,C#3,562.0,1.0,56,269.78
1774,F4,562.5,0.5,47,269.78
1775,G#4,563.0,0.5,46,269.78
1776,B2,563.0,427/500,51,269.78
1777,C#5,563.5,0.5,43,269.78
1778,B2,563.875,0.125,56,269.78
1779,A4,564.0,0.5,55,269.78
1780,A2,564.0,1.0,69,269.78
1781,F#4,564.5,0.5,45,269.78
1782,C#4,565.0,0.5,49,269.78
1783,G#2,565.0,1.0,64,269.78
1784,F#4,565.5,0.5,47,269.78
1785,A4,566.0,0.5,49,269.78
1786,F#2,566.0,1.0,54,269.78
1787,C#5,566.5,0.5,49,269.78
1788,A4,567.0,0.5,57,269.78
1789,A2,567.0,1.0,64,269.78
1790,F#4,567.5,0.5,45,269.78
1791,E-4,568.0,0.5,49,269.78
1792,G#2,568.0,1.0,59,269.78
1793,F#4,568.5,0.5,47,269.78
1794,A4,569.0,0.5,46,269.78
1795,F#2,569.0,1.0,59,269.78
1796,C5,569.5,0.5,43,269.78
1797,C#5,570.0,0.5,55,269.78
1798,C#2,570.0,4.0,61,269.78
1799,G#2,570.0,4.0,61,269.78
1800,G#4,570.5,0.5,45,269.78
1801,F4,571.0,0.5,49,269.78
1802,G#4,571.5,0.5,47,269.78
1803,C#5,572.0,0.5,49,269.78
1804,F5,572.5,0.5,49,269.78
1805,G#5,573.0,0.5,55,269.78
1806,F5,573.5,0.5,45,269.78
1807,B5,574.0,0.5,55,269.78
1808,G#5,574.5,0.5,53,269.78
1809,F#5,575.0,0.5,49,269.78
1810,C#3,575.0,1.0,59,269.78
1811,F5,575.5,0.5,49,269.78
1812,C#6,576.0,0.5,69,269.78
1813,F#3,576.0,4.0,64,269.78
1814,B-2,576.0,2.0,64,269.78
1815,B5,576.5,0.5,63,269.78
1816,B-5,577.0,0.5,59,269.78
1817,G#5,577.5,0.5,58,269.78
1818,F#5,578.0,0.5,56,269.78
1819,F5,578.5,0.5,49,269.78
1820,F#5,579.0,0.5,55,269.78
1821,E-3,579.0,2.0,58,269.78
1822,E-5,579.5,0.5,53,269.78
1823,C5,580.0,0.5,51,269.78
1824,F3,580.0,1.0,62,269.78
1825,G#4,580.5,0.5,51,269.78
1826,F#4,581.0,0.5,48,269.78
1827,F#3,581.0,1.0,70,269.78
1828,E-4,581.5,0.5,46,269.78
1829,G#3,582.0,3.0,72,269.78
1830,C#3,582.0,2.0,72,269.78
1831,B4,582.0,0.5,61,269.78
1832,F4,582.0,0.5,61,269.78
1833,G#4,582.5,0.5,51,269.78
1834,F4,583.0,0.5,48,269.78
1835,C#4,583.5,0.5,47,269.78
1836,C4,584.0,0.5,46,269.78
1837,B3,584.5,0.5,43,269.78
1838,B-3,585.0,0.5,49,269.78
1839,F#3,585.0,2.0,54,269.78
1840,B-3,585.0,3.0,54,269.78
1841,C#4,585.5,0.5,42,269.78
1842,E4,586.0,0.5,45,269.78
1843,E5,586.5,0.5,46,269.78
1844,C#5,587.0,0.5,48,269.78
1845,B-4,587.5,0.5,52,269.78
1846,G4,588.0,0.5,54,269.78
1847,B2,588.0,2.0,73,269.78
1848,C#4,588.0,1.0,73,269.78
1849,E-4,588.452,0.5,38,269.78
1850,G#4,589.0,0.5,45,269.78
1851,B3,589.0,1.0,62,269.78
1852,E-4,589.5,0.5,38,269.78
1853,B-4,590.0,0.5,43,269.78
1854,B-3,590.0,1.0,54,269.78
1855,E-4,590.5,0.5,38,269.78
1856,B4,591.0,0.5,50,269.78
1857,C#3,591.0,2.0,66,269.78
1858,G#3,591.0,1.0,66,269.78
1859,F4,591.5,0.5,38,269.78
1860,C#4,592.0,0.5,43,269.78
1861,B-3,592.0,1.0,49,269.78
1862,F4,592.5,0.5,38,269.78
1863,B3,593.0,0.5,45,269.78
1864,G#3,593.0,1.0,41,269.78
1865,F4,593.5,0.5,37,269.78
1866,B-3,594.0,0.5,45,269.78
1867,F#3,594.0,4.5,50,269.78
1868,C#4,594.5,0.5,33,269.78
1869,F#4,595.0,0.5,33,269.78
1870,B-4,595.529,0.5,33,269.78
1871,F#4,596.0,0.5,33,269.78
1872,C#4,596.5,0.5,33,269.78
1873,B-3,597.0,0.5,36,269.78
1874,G#3,597.5,0.5,31,269.78
1875,F#3,598.0,1.0,34,269.78
1876,C#3,598.5,0.5,31,269.78
1877,C#4,599.0,1.0,59,269.78
1878,B-2,599.0,0.5,31,269.78
1879,F#2,599.5,0.5,26,269.78
1880,F#4,600.0,4.0,64,269.78
1881,C#4,600.0,1.0,59,269.78
1882,E-2,600.0,0.5,42,269.78
1883,E-3,600.5,0.5,31,269.78
1884,E-4,601.0,1.0,55,269.78
1885,F#3,601.0,0.5,37,269.78
1886,B-3,601.5,0.5,31,269.78
1887,C#4,602.0,1.0,55,269.78
1888,F#3,602.0,0.5,37,269.78
1889,E-3,602.5,0.5,31,269.78
1890,C4,603.0,3.0,58,269.78
1891,E-2,603.0,0.5,40,269.78
1892,E-3,603.5,0.5,31,269.78
1893,F4,604.0,1.0,62,269.78
1894,F#3,604.0,0.5,49,269.78
1895,G#3,604.5,0.5,39,269.78
1896,F#4,605.0,1.0,70,269.78
1897,F#3,605.0,0.5,50,269.78
1898,E-3,605.5,0.5,47,269.78
1899,C#2,606.0,0.5,61,269.78
1900,B3,606.0,3.0,63,269.78
1901,G#4,606.0,3.0,63,269.78
1902,F4,606.0,3.0,63,269.78
1903,E-3,606.5,0.5,45,269.78
1904,C#3,607.0,0.5,44,269.78
1905,B2,607.5,0.5,38,269.78
1906,B-2,608.0,0.5,50,269.78
1907,G#2,608.5,0.5,31,269.78
1908,F#2,609.0,0.5,49,269.78
1909,B-3,609.0,3.0,54,269.78
1910,E4,609.0,3.0,54,269.78
1911,B-4,609.0,3.0,54,269.78
1912,C#3,609.5,0.5,31,269.78
1913,E3,610.0,0.5,39,269.78
1914,F#3,610.5,0.5,31,269.78
1915,E3,611.0,0.5,38,269.78
1916,C#3,611.5,0.5,31,269.78
1917,E-4,612.0,3.0,62,269.78
1918,B2,612.0,0.5,52,269.78
1919,B-4,612.0,1.0,68,269.78
1920,C#5,612.0,1.0,68,269.78
1921,E-3,612.5,0.5,31,269.78
1922,G#3,613.0,0.5,45,269.78
1923,G#4,613.0,1.0,57,269.78
1924,B4,613.0,1.0,57,269.78
1925,E-3,613.5,0.5,31,269.78
1926,B-3,614.0,0.5,46,269.78
1927,F#4,614.0,1.0,50,269.78
1928,B-4,614.0,1.0,50,269.78
1929,E-3,614.5,0.5,33,269.78
1930,F4,615.0,3.0,66,269.78
1931,G#4,615.0,1.0,66,269.78
1932,B3,615.0,0.5,55,269.78
1933,C#3,615.5,0.5,48,269.78
1934,B-4,616.0,1.0,49,269.78
1935,C#4,616.0,0.5,43,269.78
1936,C#3,616.5,0.5,37,269.78
1937,G#4,617.0,1.0,41,269.78
1938,B3,617.0,0.5,45,269.78
1939,C#3,617.5,0.5,40,269.78
1940,F#4,618.0,1.0,50,269.78
1941,F#2,618.0,0.5,46,269.78
1942,F#3,618.5,0.5,39,269.78
1943,B-3,619.0,0.5,43,269.78
1944,F#3,619.5,0.5,37,269.78
1945,B-3,620.0,0.5,48,269.78
1946,F#5,620.0,1.0,54,269.78
1947,F#4,620.0,1.0,54,269.78
1948,F#3,620.5,0.5,40,269.78
1949,B3,621.0,0.5,56,269.78
1950,G#4,621.0,2.0,62,269.78
1951,F5,621.0,2.0,62,269.78
1952,G#5,621.0,2.0,62,269.78
1953,F#3,621.5,0.5,46,269.78
1954,B3,622.0,0.5,58,269.78
1955,F#3,622.5,0.5,48,269.78
1956,C#4,623.0,0.5,67,269.78
1957,B-4,623.0,979/1000,66,269.78
1958,E5,623.0,979/1000,66,269.78
1959,B-5,623.0,979/1000,66,269.78
1960,F#3,623.5,0.5,56,269.78
1961,B2,624.0,3.0,65,269.78
1962,G3,624.0,0.5,72,269.78
1963,C#6,624.0,1.0,80,269.78
1964,B-5,624.0,1.0,80,269.78
1965,C#5,624.0,1.0,80,269.78
1966,E-3,624.5,0.5,51,269.78
1967,G#3,625.0,0.5,58,269.78
1968,B5,625.0,1.0,68,269.78
1969,G#5,625.0,1.0,68,269.78
1970,B4,625.0,1.0,68,269.78
1971,E-3,625.5,0.5,48,269.78
1972,B-3,626.0,0.5,55,269.78
1973,B-5,626.0,1.0,70,269.78
1974,F#5,626.0,1.0,70,269.78
1975,E-3,626.5,0.5,47,269.78
1976,F5,627.0,3.0,82,269.78
1977,G#5,627.0,1.0,82,269.78
1978,B3,627.0,0.5,64,269.78
1979,C#3,627.5,0.5,49,269.78
1980,B-5,628.0,1.0,75,269.78
1981,C#4,628.0,0.5,55,269.78
1982,C#3,628.5,0.5,48,269.78
1983,G#5,629.0,1.0,68,269.78
1984,B3,629.0,0.5,54,269.78
1985,C#3,629.5,0.5,41,269.78
1986,F#5,630.0,1.0,90,269.78
1987,F#3,630.5,0.5,54,269.78
1988,F3,631.0,0.5,54,269.78
1989,F#3,631.5,0.5,54,269.78
1990,B-3,632.0,0.5,54,269.78
1991,F#4,632.0,1.0,77,269.78
1992,F#5,632.0,1.0,77,269.78
1993,B-4,632.0,1.0,77,269.78
1994,F#3,632.5,0.5,51,269.78
1995,F3,633.0,0.5,55,269.78
1996,G#4,633.0,2.0,82,269.78
1997,G#5,633.0,2.0,82,269.78
1998,B4,633.0,2.0,82,269.78
1999,F#3,633.5,0.5,55,269.78
2000,F3,634.0,0.5,57,269.78
2001,F#3,634.5,0.5,60,269.78
2002,E3,635.0,0.5,61,269.78
2003,B-4,635.0,1.0,85,269.78
2004,B-5,635.0,1.0,85,269.78
2005,C#5,635.0,1.0,85,269.78
2006,F#3,635.5,0.5,65,269.78
2007,E-3,636.0,0.5,75,269.78
2008,C#5,636.0,1.0,92,269.78
2009,F#5,636.0,1.0,92,269.78
2010,C#6,636.0,1.0,92,269.78
2011,F#3,636.5,0.5,53,269.78
2012,B3,637.0,0.5,60,269.78
2013,B4,637.0,1.0,82,269.78
2014,B5,637.0,1.0,82,269.78
2015,F#3,637.5,0.5,50,269.78
2016,C#3,638.0,0.5,57,269.78
2017,B-4,638.0,979/1000,76,269.78
2018,B-5,638.0,979/1000,76,269.78
2019,F#3,638.5,0.5,49,269.78
2020,C3,639.0,0.5,63,269.78
2021,B-4,639.0,1.0,85,269.78
2022,E-5,639.0,1.0,85,269.78
2023,B-5,639.0,1.0,85,269.78
2024,F#3,639.5,0.5,47,269.78
2025,G#3,640.0,0.5,52,269.78
2026,G#4,640.0,1.0,75,269.78
2027,G#5,640.0,1.0,75,269.78
2028,F#3,640.5,0.5,45,269.78
2029,C3,641.0,0.5,49,269.78
2030,F#5,641.0,979/1000,66,269.78
2031,F#4,641.0,979/1000,66,269.78
2032,F#3,641.5,0.5,37,269.78
2033,C#3,642.0,0.5,63,269.78
2034,F#4,642.0,1.0,76,269.78
2035,F#5,642.0,1.0,76,269.78
2036,G#3,642.5,0.5,44,269.78
2037,B3,643.0,0.5,49,269.78
2038,F5,643.0,1.0,66,269.78
2039,F4,643.0,1.0,66,269.78
2040,G#3,643.5,0.5,40,269.78
2041,E-4,644.0,979/1000,59,269.78
2042,E-5,644.0,979/1000,59,269.78
2043,E-3,644.0,0.5,45,269.78
2044,B3,644.0,0.5,45,269.78
2045,G#3,644.5,0.5,37,269.78
2046,C#5,645.0,9/10,66,269.78
2047,C#4,645.0,9/10,66,269.78
2048,F3,645.0,0.5,46,269.78
2049,B3,645.0,0.5,46,269.78
2050,G#3,645.5,0.5,38,269.78
2051,C#4,646.0,9/10,61,269.78
2052,C#5,646.0,9/10,61,269.78
2053,E-3,646.0,0.5,42,269.78
2054,B3,646.0,0.5,42,269.78
2055,G#3,646.5,0.5,37,269.78
2056,C#5,647.0,979/1000,56,269.78
2057,C#4,647.0,979/1000,56,269.78
2058,F3,647.0,0.5,42,269.78
2059,B3,647.0,0.5,42,269.78
2060,G#3,647.5,0.5,32,269.78
2061,B-3,648.0,0.5,50,269.78
2062,C#5,648.0,1.0,55,269.78
2063,C#4,648.0,1.0,55,269.78
2064,B-4,648.0,1.0,55,269.78
2065,F#3,648.5,0.5,38,269.78
2066,B3,649.0,0.5,42,269.78
2067,G#4,649.0,1.0,52,269.78
2068,B4,649.0,1.0,52,269.78
2069,F#3,649.5,0.5,37,269.78
2070,C#4,650.0,0.5,42,269.78
2071,F#4,650.0,1.0,42,269.78
2072,B-4,650.0,1.0,42,269.78
2073,F#3,650.5,0.5,32,269.78
2074,C#5,651.0,1.0,56,269.78
2075,E-4,651.0,3.0,47,269.78
2076,B2,651.0,0.5,45,269.78
2077,E-3,651.5,0.5,33,269.78
2078,B4,652.0,1.0,49,269.78
2079,G#3,652.0,0.5,43,269.78
2080,B3,652.5,0.5,32,269.78
2081,G#4,653.0,1.0,41,269.78
2082,G#3,653.0,0.5,41,269.78
2083,E-3,653.5,0.5,32,269.78
2084,F#4,654.0,3.0,51,269.78
2085,C#3,654.0,3.0,50,269.78
2086,B-3,654.0,0.5,50,269.78
2087,C#4,654.5,0.5,43,269.78
2088,C4,655.0,0.5,43,269.78
2089,C#4,655.5,0.5,40,269.78
2090,E-4,656.0,0.5,43,269.78
2091,C#4,656.5,0.5,40,269.78
2092,F4,657.0,3.0,49,269.78
2093,B3,657.0,0.5,41,269.78
2094,G#3,657.5,0.5,35,269.78
2095,F3,658.0,0.5,41,269.78
2096,C#3,658.5,0.5,38,269.78
2097,B2,659.0,0.5,41,269.78
2098,G#2,659.5,0.5,37,269.78
2099,F#2,660.0,0.5,53,269.78
2100,F#4,660.0,1.0,73,269.78
2101,F#5,660.0,1.0,73,269.78
2102,F2,660.5,0.5,40,269.78
2103,F#2,661.0,0.5,42,269.78
2104,C#5,661.0,1.0,68,269.78
2105,F5,661.0,1.0,68,269.78
2106,G#2,661.5,0.5,39,269.78
2107,B-2,662.0,0.5,39,269.78
2108,B4,662.0,1.0,65,269.78
2109,E-5,662.0,1.0,65,269.78
2110,B2,662.5,0.5,38,269.78
2111,C#3,663.0,0.5,38,269.78
2112,B-4,663.0,1.0,61,269.78
2113,C#5,663.0,1.0,61,269.78
2114,C3,663.5,0.5,34,269.78
2115,C#3,664.0,0.5,36,269.78
2116,A4,664.0,1.0,59,269.78
2117,C5,664.0,1.0,59,269.78
2118,E-3,664.5,0.5,34,269.78
2119,E3,665.0,0.5,35,269.78
2120,G#4,665.0,1.0,59,269.78
2121,B4,665.0,1.0,59,269.78
2122,F3,665.5,0.5,31,269.78
2123,F#3,666.0,3.0,35,269.78
2124,B-4,666.0,0.5,58,269.78
2125,F#4,666.0,0.5,58,269.78
2126,E-4,667.0,0.375,38,269.78
2127,B4,667.0,0.375,54,269.78
2128,F#4,667.0,0.375,54,269.78
2129,C#4,668.0,0.375,32,269.78
2130,B-4,668.0,0.375,48,269.78
2131,F#4,668.0,0.375,48,269.78
2132,C#3,669.0,3.0,35,269.78
2133,C4,669.0,0.375,38,269.78
2134,F#4,669.0,0.375,52,269.78
2135,E-4,669.0,0.375,52,269.78
2136,G#4,669.0,0.375,52,269.78
2137,F4,671.0,0.5,66,269.78
2138,B3,671.0,0.5,38,269.78
2139,F#4,672.0,1.0,66,269.78
2140,F#5,672.0,1.0,66,269.78
2141,F#3,672.0,0.5,51,269.78
2142,B-3,672.0,0.5,51,269.78
2143,F3,672.5,0.5,43,269.78
2144,F#3,673.0,0.5,45,269.78
2145,C#5,673.0,1.0,56,269.78
2146,F5,673.0,1.0,56,269.78
2147,G#3,673.5,0.5,41,269.78
2148,B-3,674.0,0.5,42,269.78
2149,B4,674.0,1.0,54,269.78
2150,E-5,674.0,1.0,54,269.78
2151,B3,674.5,0.5,40,269.78
2152,C#4,675.0,0.5,40,269.78
2153,B-4,675.0,1.0,50,269.78
2154,C#5,675.0,1.0,50,269.78
2155,C4,675.5,0.5,36,269.78
2156,C#4,676.0,0.5,38,269.78
2157,A4,676.0,1.0,49,269.78
2158,C5,676.0,1.0,49,269.78
2159,E-4,676.5,0.5,36,269.78
2160,E4,677.0,0.5,37,269.78
2161,G#4,677.0,1.0,49,269.78
2162,B4,677.0,1.0,49,269.78
2163,F4,677.5,0.5,33,269.78
2164,B-4,678.0,0.5,50,269.78
2165,F#4,678.0,1.0,44,269.78
2166,F4,678.5,0.5,47,269.78
2167,F#4,679.0,0.5,47,269.78
2168,C#4,679.0,1.0,47,269.78
2169,F4,679.0,1.0,47,269.78
2170,G#4,679.5,0.5,47,269.78
2171,B-4,680.0,0.5,51,269.78
2172,B3,680.0,1.0,44,269.78
2173,E-4,680.0,1.0,44,269.78
2174,B4,680.5,0.5,47,269.78
2175,C#5,681.0,0.5,50,269.78
2176,B-3,681.0,1.0,42,269.78
2177,C#4,681.0,1.0,42,269.78
2178,C5,681.5,0.5,47,269.78
2179,C#5,682.0,0.5,49,269.78
2180,A3,682.0,1.0,40,269.78
2181,C4,682.0,1.0,40,269.78
2182,E-5,682.5,0.5,47,269.78
2183,E5,683.0,0.5,50,269.78
2184,G#3,683.0,1.0,40,269.78
2185,B3,683.0,1.0,40,269.78
2186,F5,683.5,0.5,47,269.78
2187,F#5,684.0,0.5,50,269.78
2188,F#3,684.0,1.0,40,269.78
2189,B-3,684.0,1.0,40,269.78
2190,F5,684.5,0.5,50,269.78
2191,F#5,685.0,0.5,49,269.78
2192,C#3,685.0,1.0,40,269.78
2193,F3,685.0,1.0,40,269.78
2194,G#5,685.5,0.5,48,269.78
2195,B-5,686.0,0.5,51,269.78
2196,B2,686.0,1.0,36,269.78
2197,E-3,686.0,1.0,36,269.78
2198,B5,686.5,0.5,45,269.78
2199,C#6,687.0,0.5,46,269.78
2200,B-2,687.0,1.0,32,269.78
2201,C#3,687.0,1.0,32,269.78
2202,C6,687.5,0.5,43,269.78
2203,C#6,688.0,0.5,42,269.78
2204,A2,688.0,1.0,30,269.78
2205,C3,688.0,1.0,30,269.78
2206,E-6,688.5,0.5,40,269.78
2207,E6,689.0,0.5,41,269.78
2208,G#2,689.0,1.0,28,269.78
2209,B2,689.0,1.0,28,269.78
2210,F6,689.5,0.5,38,269.78
2211,F#6,690.0,0.5,44,269.78
2212,F#2,690.0,6.0,27,269.78
2213,B-2,690.0,6.0,27,269.78
2214,C#6,690.5,0.5,44,269.78
2215,B-5,691.0,0.5,40,269.78
2216,G#5,691.5,0.5,37,269.78
2217,B-5,692.0,0.5,40,269.78
2218,F#5,692.5,0.5,36,269.78
2219,C#6,693.0,0.5,45,269.78
2220,B-5,693.5,0.5,36,269.78
2221,F#5,694.0,0.5,40,269.78
2222,F5,694.5,0.5,36,269.78
2223,F#5,695.0,0.5,40,269.78
2224,C#5,695.5,0.5,36,269.78
2225,B-5,696.0,0.5,45,269.78
2226,F#5,696.5,0.5,36,269.78
2227,C#5,697.0,0.5,40,269.78
2228,B4,697.5,0.5,36,269.78
2229,C#5,698.0,0.5,40,269.78
2230,B-4,698.5,0.5,36,269.78
2231,F#5,699.0,0.5,45,269.78
2232,C#5,699.5,0.5,36,269.78
2233,B-4,700.0,0.5,40,269.78
2234,G#4,700.5,0.5,36,269.78
2235,B-4,701.0,0.5,40,269.78
2236,F#4,701.5,0.5,36,269.78
2237,C#5,702.0,0.5,45,269.78
2238,B-4,702.5,0.5,37,269.78
2239,F#4,703.0,0.5,37,269.78
2240,C#3,703.0,6.0,26,269.78
2241,F#2,703.0,6.0,27,269.78
2242,B-2,703.0,6.0,27,269.78
2243,C#4,703.5,0.5,37,269.78
2244,B-4,705.5,0.5,39,269.78
2245,C#5,706.0,0.5,42,269.78
2246,F#5,706.5,0.5,40,269.78
2247,B-5,707.0,0.5,43,269.78
2248,C#6,707.5,0.5,39,269.78
2249,F#6,708.0,0.5,45,269.78
2250,C#3,709.0,1.0,26,269.78
2251,F#2,709.0,1.0,27,269.78
2252,B-2,709.0,1.0,27,269.78
2253,B-3,711.0,0.5,33,269.78
2254,B-3,711.0,1.0,28,269.78
2255,F#4,711.0,1.0,28,269.78
2256,B-4,711.0,1.0,28,269.78
2257,F#3,711.5,0.5,29,269.78
2258,C#3,712.0,0.5,33,269.78
2259,F#5,714.0,1.0,35,269.78
2260,B-4,714.0,1.0,35,269.78
2261,F#2,718.0,1.0,23,269.78
2262,C#3,718.0,1.0,23,269.78
2263,F#3,721.0,1.0,23,269.78
2264,C#4,721.0,1.0,23,269.78
