,note_name,start_time,duration,velocity,tempo
0,C5,3.5,0.25,33,140.0
1,D5,3.75,0.25,34,140.0
2,E5,4.0,0.25,41,140.0
3,C5,4.25,0.25,34,140.0
4,A4,4.5,0.375,34,140.0
5,E4,5.0,1.0,24,140.0
6,C4,5.0,1.0,24,140.0
7,A3,5.0,1.0,24,140.0
8,E5,5.25,0.25,35,140.0
9,C5,5.5,0.25,35,140.0
10,A4,5.75,0.25,35,140.0
11,F5,6.0,0.25,41,140.0
12,D5,6.25,0.25,35,140.0
13,A4,6.5,0.375,35,140.0
14,A3,7.0,1.0,24,140.0
15,D4,7.0,1.0,24,140.0
16,F4,7.0,1.0,24,140.0
17,F5,7.25,0.25,35,140.0
18,D5,7.5,0.25,35,140.0
19,A4,7.75,0.25,35,140.0
20,D5,8.0,0.25,41,140.0
21,B4,8.25,0.25,36,140.0
22,G#4,8.5,0.375,36,140.0
23,D4,9.0,1.0,24,140.0
24,B3,9.0,1.0,24,140.0
25,A3,9.0,1.0,24,140.0
26,D5,9.25,0.25,36,140.0
27,B4,9.5,0.25,36,140.0
28,G#4,9.75,0.25,36,140.0
29,E5,10.0,0.25,41,140.0
30,C5,10.25,0.25,35,140.0
31,A4,10.5,0.375,35,140.0
32,E4,11.0,1.0,24,140.0
33,C4,11.0,1.0,24,140.0
34,A3,11.0,1.0,24,140.0
35,B4,11.25,0.25,38,140.0
36,C5,11.5,0.25,38,140.0
37,D5,11.75,0.25,38,140.0
38,E5,12.0,0.25,45,140.0
39,C5,12.25,0.25,37,140.0
40,A4,12.5,0.375,38,140.0
41,E4,13.0,1.0,27,140.0
42,C4,13.0,1.0,27,140.0
43,A3,13.0,1.0,27,140.0
44,E5,13.25,0.25,44,140.0
45,C5,13.5,0.25,42,140.0
46,A4,13.75,0.25,42,140.0
47,F5,14.0,0.25,46,140.0
48,D5,14.25,0.25,43,140.0
49,A4,14.5,0.375,43,140.0
50,A3,15.0,1.0,29,140.0
51,D4,15.0,1.0,29,140.0
52,F4,15.0,1.0,29,140.0
53,F5,15.25,0.25,46,140.0
54,D5,15.5,0.25,46,140.0
55,A4,15.75,0.25,46,140.0
56,D5,16.0,0.25,52,140.0
57,B4,16.25,0.25,47,140.0
58,G#4,16.5,0.375,47,140.0
59,D4,17.0,1.0,31,140.0
60,B3,17.0,1.0,31,140.0
61,A3,17.0,1.0,31,140.0
62,D5,17.25,0.25,48,140.0
63,B4,17.5,0.25,48,140.0
64,G#4,17.75,0.25,48,140.0
65,E5,18.0,0.25,56,140.0
66,C5,18.25,0.25,52,140.0
67,A4,18.5,0.375,52,140.0
68,C4,18.5,0.375,33,140.0
69,A3,18.5,0.375,33,140.0
70,E4,18.5,0.375,33,140.0
71,F4,19.0,1.0,33,140.0
72,D4,19.0,1.0,33,140.0
73,A3,19.0,1.0,33,140.0
74,D5,19.25,0.25,55,140.0
75,B4,19.5,0.25,55,140.0
76,G#4,19.75,0.25,55,140.0
77,E5,20.0,0.25,64,140.0
78,C5,20.25,0.25,55,140.0
79,A4,20.5,0.375,55,140.0
80,A3,20.5,0.375,37,140.0
81,C4,20.5,0.375,37,140.0
82,E4,20.5,0.375,37,140.0
83,F4,21.0,1.0,37,140.0
84,D4,21.0,1.0,37,140.0
85,A3,21.0,1.0,37,140.0
86,D5,21.25,0.25,58,140.0
87,B4,21.5,0.25,58,140.0
88,G#4,21.75,0.25,58,140.0
89,E5,22.0,0.25,69,140.0
90,C5,22.25,0.25,57,140.0
91,A4,22.5,0.375,58,140.0
92,C4,22.5,0.375,40,140.0
93,A3,22.5,0.375,40,140.0
94,E4,22.5,0.375,40,140.0
95,F4,23.0,1.0,40,140.0
96,D4,23.0,1.0,40,140.0
97,A3,23.0,1.0,40,140.0
98,D5,23.25,0.25,64,140.0
99,B4,23.5,0.25,65,140.0
100,G#4,23.75,0.25,65,140.0
101,E5,24.0,0.25,71,140.0
102,C5,24.25,0.25,65,140.0
103,A4,24.5,0.25,64,140.0
104,E4,24.75,0.25,63,140.0
105,C4,25.0,0.25,60,140.0
106,A3,25.25,0.25,58,140.0
107,E3,25.5,0.25,58,140.0
108,C3,25.75,0.25,57,140.0
109,A1,26.0,0.5,57,140.0
110,A2,26.0,0.5,57,140.0
111,E4,27.0,1.0,71,140.0
112,E3,27.0,1.0,56,140.0
113,E4,28.0,1.5,68,140.0
114,A4,28.0,1.5,68,140.0
115,C3,28.0,1.5,56,140.0
116,A3,28.0,1.5,56,140.0
117,E4,29.5,0.5,65,140.0
118,B4,29.5,0.5,65,140.0
119,E3,29.5,0.5,54,140.0
120,B3,29.5,0.5,54,140.0
121,A4,30.0,1.0,68,140.0
122,C5,30.0,1.0,68,140.0
123,A3,30.0,1.0,56,140.0
124,C4,30.0,1.0,56,140.0
125,B4,31.0,1.0,68,140.0
126,D5,31.0,1.0,68,140.0
127,B3,31.0,1.0,56,140.0
128,D4,31.0,1.0,56,140.0
129,C5,32.0,1.0,68,140.0
130,E5,32.0,1.0,68,140.0
131,C4,32.0,1.0,56,140.0
132,E4,32.0,1.0,56,140.0
133,E5,33.0,2.0,72,140.0
134,G5,33.0,2.0,72,140.0
135,E4,33.0,2.0,61,140.0
136,G4,33.0,2.0,61,140.0
137,D5,35.0,0.75,68,140.0
138,F5,35.0,0.75,68,140.0
139,F4,35.0,0.75,60,140.0
140,D4,35.0,0.75,60,140.0
141,C5,35.75,119/500,64,140.0
142,E5,35.75,119/500,64,140.0
143,C4,35.75,119/500,56,140.0
144,E4,35.75,119/500,56,140.0
145,C5,36.0,1.0,68,140.0
146,E5,36.0,1.0,68,140.0
147,C4,36.0,1.0,60,140.0
148,E4,36.0,1.0,60,140.0
149,B4,37.0,0.75,68,140.0
150,D5,37.0,0.75,68,140.0
151,B3,37.0,0.75,56,140.0
152,D4,37.0,0.75,56,140.0
153,A4,37.75,119/500,64,140.0
154,C5,37.75,119/500,64,140.0
155,A3,37.75,119/500,53,140.0
156,C4,37.75,119/500,53,140.0
157,A4,38.0,1.0,68,140.0
158,C5,38.0,1.0,68,140.0
159,A3,38.0,1.0,56,140.0
160,C4,38.0,1.0,56,140.0
161,D3,39.0,1.0,54,140.0
162,F4,39.0,0.75,68,140.0
163,C5,39.0,0.75,68,140.0
164,E5,39.0,0.75,68,140.0
165,C4,39.0,0.75,60,140.0
166,E4,39.0,0.75,60,140.0
167,B4,39.75,0.25,64,140.0
168,D5,39.75,0.25,64,140.0
169,D4,39.75,0.25,53,140.0
170,B3,39.75,0.25,53,140.0
171,E3,40.0,2.5,49,140.0
172,A4,40.0,2.0,62,140.0
173,C5,40.0,2.0,62,140.0
174,C4,40.0,2.0,52,140.0
175,A3,40.0,2.0,52,140.0
176,G#4,42.0,0.5,61,140.0
177,B4,42.0,0.5,61,140.0
178,G#3,42.0,0.5,52,140.0
179,B3,42.0,0.5,52,140.0
180,E3,43.0,1.0,56,140.0
181,D4,43.0,1.0,68,140.0
182,E4,43.0,1.0,68,140.0
183,C4,44.0,1.5,66,140.0
184,E4,44.0,1.5,66,140.0
185,A4,44.0,1.5,66,140.0
186,A2,44.0,1.5,55,140.0
187,C3,44.0,1.5,55,140.0
188,A3,44.0,1.5,55,140.0
189,E4,45.5,0.5,65,140.0
190,B4,45.5,0.5,65,140.0
191,E3,45.5,0.5,54,140.0
192,B3,45.5,0.5,54,140.0
193,A4,46.0,1.0,68,140.0
194,C5,46.0,1.0,68,140.0
195,A3,46.0,1.0,56,140.0
196,C4,46.0,1.0,56,140.0
197,B4,47.0,1.0,68,140.0
198,D5,47.0,1.0,68,140.0
199,B3,47.0,1.0,56,140.0
200,D4,47.0,1.0,56,140.0
201,C5,48.0,19/20,68,140.0
202,E5,48.0,19/20,68,140.0
203,C4,48.0,19/20,56,140.0
204,E4,48.0,19/20,56,140.0
205,E3,49.0,0.25,67,140.0
206,E4,49.0,2.0,67,140.0
207,G4,49.0,2.0,71,140.0
208,E5,49.0,2.0,71,140.0
209,G5,49.0,2.0,71,140.0
210,F3,49.5,0.25,69,140.0
211,G3,50.0,2.0,75,140.0
212,D5,51.0,0.75,68,140.0
213,F5,51.0,0.75,68,140.0
214,F4,51.0,0.75,60,140.0
215,D4,51.0,0.75,60,140.0
216,C5,51.75,119/500,64,140.0
217,E5,51.75,119/500,64,140.0
218,C4,51.75,119/500,56,140.0
219,E4,51.75,119/500,56,140.0
220,G3,52.0,1.0,75,140.0
221,C5,52.0,1.0,68,140.0
222,E5,52.0,1.0,68,140.0
223,C4,52.0,1.0,60,140.0
224,E4,52.0,1.0,60,140.0
225,G3,53.0,1.0,54,140.0
226,B4,53.0,0.75,68,140.0
227,D5,53.0,0.75,68,140.0
228,B3,53.0,0.75,56,140.0
229,D4,53.0,0.75,56,140.0
230,A4,53.75,119/500,64,140.0
231,C5,53.75,119/500,64,140.0
232,A3,53.75,119/500,53,140.0
233,C4,53.75,119/500,53,140.0
234,A4,54.0,1.0,68,140.0
235,C5,54.0,1.0,68,140.0
236,A3,54.0,1.0,56,140.0
237,C4,54.0,1.0,56,140.0
238,G4,55.0,0.75,70,140.0
239,B4,55.0,0.75,70,140.0
240,E3,55.0,1.0,54,140.0
241,G3,55.0,1.0,54,140.0
242,B3,55.0,1.0,54,140.0
243,F4,55.75,119/500,64,140.0
244,A4,55.75,119/500,64,140.0
245,F3,56.0,1.0,42,140.0
246,A3,56.0,0.5,47,140.0
247,F4,56.0,0.25,60,140.0
248,A4,56.0,0.25,60,140.0
249,G#3,56.5,0.25,49,140.0
250,B3,56.5,0.25,60,140.0
251,G#4,56.5,0.25,60,140.0
252,B4,56.5,0.25,60,140.0
253,C4,57.0,0.25,62,140.0
254,A4,57.0,0.25,62,140.0
255,C5,57.0,0.25,62,140.0
256,E3,57.0,0.25,49,140.0
257,A3,57.0,0.25,49,140.0
258,D4,57.5,0.25,64,140.0
259,B4,57.5,0.25,64,140.0
260,D5,57.5,0.25,64,140.0
261,D3,57.5,0.25,50,140.0
262,B3,57.5,0.25,50,140.0
263,E4,58.0,0.25,66,140.0
264,C5,58.0,0.25,66,140.0
265,E5,58.0,0.25,66,140.0
266,C3,58.0,0.25,52,140.0
267,C4,58.0,0.25,52,140.0
268,D4,58.5,0.25,64,140.0
269,B4,58.5,0.25,64,140.0
270,D5,58.5,0.25,64,140.0
271,D3,58.5,0.25,50,140.0
272,B3,58.5,0.25,50,140.0
273,C4,59.0,0.25,62,140.0
274,A4,59.0,0.25,62,140.0
275,C5,59.0,0.25,62,140.0
276,E3,59.0,0.25,48,140.0
277,A3,59.0,0.25,48,140.0
278,E3,59.75,119/500,48,140.0
279,B3,59.75,119/500,60,140.0
280,E4,59.75,119/500,60,140.0
281,B4,59.75,119/500,60,140.0
282,E3,60.0,2.0,52,140.0
283,B3,60.0,2.0,57,140.0
284,E4,60.0,2.0,57,140.0
285,B4,60.0,2.0,57,140.0
286,C4,62.0,0.5,61,140.0
287,A4,62.0,0.5,61,140.0
288,A2,62.0,0.5,52,140.0
289,A3,62.0,0.5,52,140.0
290,G#4,63.5,0.25,35,140.0
291,A4,63.75,0.25,35,140.0
292,B4,64.0,0.25,41,140.0
293,G#4,64.25,0.25,35,140.0
294,E4,64.5,0.375,35,140.0
295,B3,65.0,1.0,24,140.0
296,G#3,65.0,1.0,24,140.0
297,E3,65.0,1.0,24,140.0
298,B4,65.25,0.25,35,140.0
299,G#4,65.5,0.25,35,140.0
300,E4,65.75,0.25,35,140.0
301,C5,66.0,0.25,41,140.0
302,A4,66.25,0.25,35,140.0
303,E4,66.5,0.375,35,140.0
304,E3,67.0,1.0,24,140.0
305,A3,67.0,1.0,24,140.0
306,C4,67.0,1.0,24,140.0
307,C5,67.25,0.25,36,140.0
308,A4,67.5,0.25,36,140.0
309,E4,67.75,0.25,36,140.0
310,A4,68.0,0.25,41,140.0
311,F#4,68.25,0.25,35,140.0
312,E-4,68.5,0.375,35,140.0
313,A3,69.0,1.0,24,140.0
314,F#3,69.0,1.0,24,140.0
315,E3,69.0,1.0,24,140.0
316,A4,69.25,0.25,36,140.0
317,F#4,69.5,0.25,36,140.0
318,E-4,69.75,0.25,36,140.0
319,B4,70.0,0.25,41,140.0
320,G#4,70.25,0.25,35,140.0
321,E4,70.5,0.375,35,140.0
322,B3,71.0,1.0,24,140.0
323,G#3,71.0,1.0,24,140.0
324,E3,71.0,1.0,24,140.0
325,F#4,71.25,0.25,38,140.0
326,G#4,71.5,0.25,38,140.0
327,A4,71.75,0.25,38,140.0
328,B4,72.0,0.25,45,140.0
329,G#4,72.25,0.25,37,140.0
330,E4,72.5,0.375,38,140.0
331,D4,73.0,1.0,27,140.0
332,B3,73.0,1.0,27,140.0
333,E3,73.0,1.0,27,140.0
334,B4,73.25,0.25,45,140.0
335,G#4,73.5,0.25,46,140.0
336,E4,73.75,0.25,46,140.0
337,C5,74.0,0.25,50,140.0
338,A4,74.25,0.25,46,140.0
339,E4,74.5,0.375,46,140.0
340,E3,75.0,1.0,32,140.0
341,A3,75.0,1.0,32,140.0
342,C4,75.0,1.0,32,140.0
343,C5,75.25,0.25,52,140.0
344,A4,75.5,0.25,52,140.0
345,E4,75.75,0.25,52,140.0
346,A4,76.0,0.25,57,140.0
347,F#4,76.25,0.25,53,140.0
348,E-4,76.5,0.375,53,140.0
349,A3,77.0,1.0,37,140.0
350,C4,77.0,1.0,37,140.0
351,F#3,77.0,1.0,37,140.0
352,E3,77.0,1.0,37,140.0
353,A4,77.25,0.25,58,140.0
354,F#4,77.5,0.25,58,140.0
355,E-4,77.75,0.25,60,140.0
356,B4,78.0,0.25,66,140.0
357,G#4,78.25,0.25,58,140.0
358,E4,78.5,0.375,57,140.0
359,E3,79.0,0.5,59,140.0
360,G#3,79.0,0.5,59,140.0
361,B3,79.0,0.5,59,140.0
362,E4,79.5,0.5,71,140.0
363,E3,79.5,0.5,56,140.0
364,E4,80.0,1.5,68,140.0
365,B4,80.0,1.5,68,140.0
366,G#3,80.0,1.5,56,140.0
367,B3,80.0,1.5,56,140.0
368,A4,81.5,0.5,65,140.0
369,C5,81.5,0.5,65,140.0
370,A3,81.5,0.5,54,140.0
371,C4,81.5,0.5,54,140.0
372,G#4,82.0,1.0,68,140.0
373,D5,82.0,1.0,68,140.0
374,B3,82.0,1.0,56,140.0
375,D4,82.0,1.0,56,140.0
376,A4,83.0,1.0,68,140.0
377,C5,83.0,1.0,68,140.0
378,A3,83.0,1.0,56,140.0
379,C4,83.0,1.0,56,140.0
380,G#4,84.0,0.25,68,140.0
381,F5,84.0,0.25,68,140.0
382,D4,84.0,0.25,56,140.0
383,F4,84.0,0.25,56,140.0
384,G#4,84.75,0.188,68,140.0
385,E5,84.75,0.188,68,140.0
386,C4,84.75,0.188,56,140.0
387,E4,84.75,0.188,56,140.0
388,G#4,85.0,2.0,72,140.0
389,D5,85.0,2.0,72,140.0
390,B3,85.0,2.0,61,140.0
391,D4,85.0,2.0,61,140.0
392,G#4,87.0,1.0,68,140.0
393,F5,87.0,1.0,68,140.0
394,F4,87.0,1.0,60,140.0
395,D4,87.0,1.0,60,140.0
396,A4,88.0,1.0,68,140.0
397,E5,88.0,1.0,68,140.0
398,C4,88.0,1.0,60,140.0
399,E4,88.0,1.0,60,140.0
400,E4,89.0,1.0,68,140.0
401,C5,89.0,1.0,68,140.0
402,A3,89.0,1.0,56,140.0
403,C4,89.0,1.0,56,140.0
404,E4,90.0,1.0,66,140.0
405,B4,90.0,1.0,66,140.0
406,G#3,90.0,1.0,58,140.0
407,B3,90.0,1.0,58,140.0
408,A4,91.0,0.75,70,140.0
409,F#3,91.0,1.0,55,140.0
410,A3,91.0,0.75,60,140.0
411,C4,91.0,1.0,61,140.0
412,E-4,91.0,1.0,61,140.0
413,B4,91.75,0.25,67,140.0
414,B3,91.75,0.25,56,140.0
415,E3,92.0,3.0,49,140.0
416,A3,92.0,2.0,56,140.0
417,C4,92.0,2.0,61,140.0
418,E-4,92.0,2.0,61,140.0
419,A4,92.0,2.0,61,140.0
420,G#3,94.0,1.0,55,140.0
421,B3,94.0,1.0,60,140.0
422,E4,94.0,1.0,60,140.0
423,G#4,94.0,1.0,60,140.0
424,E4,95.0,1.0,71,140.0
425,E3,95.0,1.0,56,140.0
426,G#3,96.0,1.5,58,140.0
427,B3,96.0,1.5,66,140.0
428,E4,96.0,1.5,66,140.0
429,B4,96.0,1.5,66,140.0
430,A3,97.5,0.5,57,140.0
431,C4,97.5,0.5,64,140.0
432,A4,97.5,0.5,64,140.0
433,C5,97.5,0.5,64,140.0
434,B3,98.0,1.0,58,140.0
435,D4,98.0,1.0,66,140.0
436,G#4,98.0,1.0,66,140.0
437,D5,98.0,1.0,66,140.0
438,D4,99.0,1.0,58,140.0
439,F4,99.0,1.0,66,140.0
440,G#4,99.0,1.0,66,140.0
441,F5,99.0,1.0,66,140.0
442,C4,100.0,0.25,58,140.0
443,A4,100.0,0.25,67,140.0
444,E4,100.0,0.25,67,140.0
445,E5,100.0,0.25,67,140.0
446,B3,100.75,0.188,58,140.0
447,A4,100.75,0.188,67,140.0
448,D4,100.75,0.188,67,140.0
449,D5,100.75,0.188,67,140.0
450,A3,101.0,2.0,60,140.0
451,C4,101.0,2.0,69,140.0
452,A4,101.0,2.0,69,140.0
453,C5,101.0,2.0,69,140.0
454,C5,103.0,1.0,72,140.0
455,E4,103.0,1.0,72,140.0
456,E5,103.0,1.0,72,140.0
457,F#3,103.0,1.0,64,140.0
458,A2,103.0,1.0,64,140.0
459,B4,104.0,1.0,72,140.0
460,D4,104.0,1.0,72,140.0
461,D5,104.0,1.0,72,140.0
462,B2,104.0,1.0,64,140.0
463,G3,104.0,1.0,64,140.0
464,A4,105.0,1.0,72,140.0
465,E4,105.0,1.0,72,140.0
466,C5,105.0,1.0,72,140.0
467,C3,105.0,1.0,62,140.0
468,C4,105.0,1.0,62,140.0
469,G4,106.0,1.0,72,140.0
470,D4,106.0,1.0,72,140.0
471,B4,106.0,1.0,72,140.0
472,D3,106.0,1.0,62,140.0
473,B3,106.0,1.0,62,140.0
474,A4,107.0,0.75,79,140.0
475,D3,107.0,1.0,61,140.0
476,A3,107.0,0.75,68,140.0
477,F#4,107.0,1.0,71,140.0
478,C4,107.0,1.0,71,140.0
479,D4,107.0,1.0,71,140.0
480,B4,107.75,0.25,74,140.0
481,B3,107.75,0.25,62,140.0
482,F#4,108.0,2.0,67,140.0
483,C4,108.0,2.0,67,140.0
484,D4,108.0,2.0,67,140.0
485,A4,108.0,2.0,67,140.0
486,D3,108.0,2.0,58,140.0
487,A3,108.0,2.0,58,140.0
488,B3,110.0,19/20,66,140.0
489,D4,110.0,19/20,66,140.0
490,G4,110.0,19/20,66,140.0
491,G2,110.0,19/20,56,140.0
492,G3,110.0,19/20,56,140.0
493,G4,111.0,1.0,82,140.0
494,F3,111.0,1.0,64,140.0
495,G3,111.0,1.0,64,140.0
496,E3,112.0,3.0,63,140.0
497,E4,112.0,1.5,66,140.0
498,G4,112.0,1.5,74,140.0
499,E5,112.0,1.5,74,140.0
500,G5,112.0,1.5,74,140.0
501,D4,113.5,0.5,64,140.0
502,F4,113.5,0.5,71,140.0
503,D5,113.5,0.5,71,140.0
504,F5,113.5,0.5,71,140.0
505,C4,114.0,1.0,66,140.0
506,E4,114.0,1.0,74,140.0
507,C5,114.0,1.0,74,140.0
508,E5,114.0,1.0,74,140.0
509,F4,115.0,1.0,74,140.0
510,D5,115.0,1.0,74,140.0
511,F5,115.0,1.0,74,140.0
512,D3,115.0,1.0,62,140.0
513,D4,115.0,1.0,62,140.0
514,G3,116.0,2.5,66,140.0
515,C4,116.0,1.0,66,140.0
516,C5,116.0,1.0,74,140.0
517,E4,116.0,1.0,74,140.0
518,E5,116.0,1.0,74,140.0
519,B3,117.0,0.75,68,140.0
520,D4,117.0,0.75,75,140.0
521,B4,117.0,0.75,75,140.0
522,D5,117.0,0.75,75,140.0
523,A3,117.75,0.25,73,140.0
524,C4,117.75,0.25,71,140.0
525,A4,117.75,0.25,71,140.0
526,C5,117.75,0.25,71,140.0
527,B3,118.0,1.0,66,140.0
528,D4,118.0,1.0,72,140.0
529,B4,118.0,1.0,72,140.0
530,D5,118.0,1.0,72,140.0
531,F3,118.5,0.25,73,140.0
532,E3,119.0,0.25,76,140.0
533,G3,119.0,1.0,71,140.0
534,F4,119.0,1.0,78,140.0
535,G4,119.0,1.0,78,140.0
536,D3,119.5,0.25,73,140.0
537,C3,120.0,3.0,62,140.0
538,C4,120.0,1.5,70,140.0
539,C5,120.0,1.5,74,140.0
540,E4,120.0,1.5,74,140.0
541,E5,120.0,1.5,74,140.0
542,B3,121.5,0.25,63,140.0
543,D4,121.5,0.25,74,140.0
544,B4,121.5,0.25,74,140.0
545,D5,121.5,0.25,74,140.0
546,A3,122.0,0.25,64,140.0
547,C4,122.0,0.25,68,140.0
548,A4,122.0,0.25,68,140.0
549,C5,122.0,0.25,68,140.0
550,B3,122.5,0.25,68,140.0
551,D4,122.5,0.25,69,140.0
552,B4,122.5,0.25,69,140.0
553,D5,122.5,0.25,69,140.0
554,B2,123.0,1.0,68,140.0
555,C4,123.0,0.25,68,140.0
556,E4,123.0,0.25,71,140.0
557,C5,123.0,0.25,71,140.0
558,E5,123.0,0.25,71,140.0
559,B3,123.5,0.25,66,140.0
560,D4,123.5,0.25,69,140.0
561,B4,123.5,0.25,69,140.0
562,D5,123.5,0.25,69,140.0
563,E3,124.0,2.5,66,140.0
564,A3,124.0,1.0,66,140.0
565,A4,124.0,1.0,74,140.0
566,C4,124.0,1.0,74,140.0
567,C5,124.0,1.0,74,140.0
568,G#3,125.0,0.75,68,140.0
569,B3,125.0,0.75,75,140.0
570,G#4,125.0,0.75,75,140.0
571,B4,125.0,0.75,75,140.0
572,F#3,125.75,0.25,68,140.0
573,A3,125.75,0.25,68,140.0
574,F#4,125.75,0.25,68,140.0
575,A4,125.75,0.25,68,140.0
576,G#3,126.0,1.0,62,140.0
577,B3,126.0,1.0,69,140.0
578,G#4,126.0,1.0,69,140.0
579,B4,126.0,1.0,69,140.0
580,D3,126.5,0.25,76,140.0
581,C3,127.0,0.25,79,140.0
582,E3,127.0,1.0,74,140.0
583,D4,127.0,1.0,76,140.0
584,E4,127.0,1.0,76,140.0
585,A2,127.5,0.25,76,140.0
586,C4,128.0,1.5,74,140.0
587,E4,128.0,1.5,74,140.0
588,A4,128.0,1.5,74,140.0
589,A2,128.0,1.5,61,140.0
590,C3,128.0,1.5,61,140.0
591,A3,128.0,1.5,61,140.0
592,E4,129.5,0.5,72,140.0
593,B4,129.5,0.5,72,140.0
594,E3,129.5,0.5,60,140.0
595,B3,129.5,0.5,60,140.0
596,A4,130.0,1.0,75,140.0
597,C5,130.0,1.0,75,140.0
598,A3,130.0,1.0,62,140.0
599,C4,130.0,1.0,62,140.0
600,B4,131.0,1.0,75,140.0
601,D5,131.0,1.0,75,140.0
602,B3,131.0,1.0,62,140.0
603,D4,131.0,1.0,62,140.0
604,C5,132.0,19/20,76,140.0
605,E5,132.0,19/20,76,140.0
606,C4,132.0,19/20,62,140.0
607,E4,132.0,19/20,62,140.0
608,E3,133.0,0.25,76,140.0
609,E4,133.0,2.0,76,140.0
610,G4,133.0,2.0,79,140.0
611,E5,133.0,2.0,79,140.0
612,G5,133.0,2.0,79,140.0
613,F3,133.5,0.25,77,140.0
614,G3,134.0,2.0,84,140.0
615,D5,135.0,0.75,76,140.0
616,F5,135.0,0.75,76,140.0
617,F4,135.0,0.75,66,140.0
618,D4,135.0,0.75,66,140.0
619,C5,135.75,119/500,72,140.0
620,E5,135.75,119/500,72,140.0
621,C4,135.75,119/500,62,140.0
622,E4,135.75,119/500,62,140.0
623,G3,136.0,1.0,84,140.0
624,C5,136.0,1.0,75,140.0
625,E5,136.0,1.0,75,140.0
626,C4,136.0,1.0,66,140.0
627,E4,136.0,1.0,66,140.0
628,G#3,137.0,1.0,59,140.0
629,B4,137.0,0.75,75,140.0
630,D5,137.0,0.75,75,140.0
631,B3,137.0,0.75,62,140.0
632,D4,137.0,0.75,62,140.0
633,A4,137.75,119/500,72,140.0
634,C5,137.75,119/500,72,140.0
635,A3,137.75,119/500,60,140.0
636,C4,137.75,119/500,60,140.0
637,A4,138.0,0.5,75,140.0
638,C5,138.0,0.5,75,140.0
639,A3,138.0,1.0,62,140.0
640,C4,138.0,1.0,62,140.0
641,C5,138.5,0.5,85,140.0
642,D3,139.0,1.0,57,140.0
643,C4,139.0,0.75,64,140.0
644,E4,139.0,0.75,73,140.0
645,F4,139.0,0.75,73,140.0
646,C5,139.0,0.75,73,140.0
647,E5,139.0,0.75,73,140.0
648,B4,139.75,0.25,72,140.0
649,D5,139.75,0.25,72,140.0
650,B3,139.75,0.25,63,140.0
651,D4,139.75,0.25,63,140.0
652,E3,140.0,2.5,56,140.0
653,A4,140.0,2.0,70,140.0
654,C5,140.0,2.0,70,140.0
655,C4,140.0,2.0,60,140.0
656,A3,140.0,2.0,60,140.0
657,E-4,141.0,0.75,76,140.0
658,E4,141.75,0.25,66,140.0
659,G#4,142.0,0.5,65,140.0
660,B4,142.0,0.5,65,140.0
661,G#3,142.0,0.5,54,140.0
662,B3,142.0,0.5,54,140.0
663,E3,143.0,1.0,74,140.0
664,D4,143.0,1.0,76,140.0
665,E4,143.0,1.0,76,140.0
666,C4,144.0,1.5,74,140.0
667,E4,144.0,1.5,74,140.0
668,A4,144.0,1.5,74,140.0
669,A2,144.0,1.5,61,140.0
670,C3,144.0,1.5,61,140.0
671,A3,144.0,1.5,61,140.0
672,E4,145.5,0.5,72,140.0
673,B4,145.5,0.5,72,140.0
674,E3,145.5,0.5,60,140.0
675,B3,145.5,0.5,60,140.0
676,A4,146.0,0.75,75,140.0
677,C5,146.0,0.75,75,140.0
678,C4,146.0,0.75,63,140.0
679,A3,146.0,0.75,63,140.0
680,E4,146.75,0.25,75,140.0
681,B4,146.75,0.25,75,140.0
682,B3,146.75,0.25,58,140.0
683,E3,146.75,0.25,58,140.0
684,A4,147.0,0.75,75,140.0
685,C5,147.0,0.75,75,140.0
686,C4,147.0,0.75,62,140.0
687,A3,147.0,0.75,62,140.0
688,D5,147.75,0.25,75,140.0
689,B4,147.75,0.25,75,140.0
690,D4,147.75,0.25,53,140.0
691,B3,147.75,0.25,53,140.0
692,C5,148.0,19/20,76,140.0
693,E5,148.0,19/20,76,140.0
694,E4,148.0,19/20,62,140.0
695,C4,148.0,19/20,62,140.0
696,E5,149.0,2.0,81,140.0
697,G5,149.0,2.0,81,140.0
698,G4,149.0,2.0,76,140.0
699,E4,149.0,2.0,76,140.0
700,G5,151.0,1.0,82,140.0
701,B-5,151.0,1.0,82,140.0
702,G4,151.0,1.0,75,140.0
703,B-4,151.0,1.0,75,140.0
704,G5,152.0,2.75,82,140.0
705,B-5,152.0,2.75,82,140.0
706,G4,152.0,2.75,75,140.0
707,B-4,152.0,2.75,75,140.0
708,F4,152.5,0.25,75,140.0
709,E4,153.0,0.25,71,140.0
710,D4,153.5,0.25,71,140.0
711,C#4,154.0,1.0,66,140.0
712,G4,154.75,0.188,63,140.0
713,B-4,154.75,0.188,71,140.0
714,G5,154.75,0.188,71,140.0
715,B-5,154.75,0.188,71,140.0
716,F4,155.0,0.25,65,140.0
717,A4,155.0,0.188,76,140.0
718,F5,155.0,0.188,76,140.0
719,A5,155.0,0.188,76,140.0
720,E4,155.75,0.188,59,140.0
721,G4,155.75,0.188,71,140.0
722,E5,155.75,0.188,71,140.0
723,G5,155.75,0.188,71,140.0
724,D4,156.0,2.75,71,140.0
725,F4,156.0,2.75,78,140.0
726,D5,156.0,2.75,78,140.0
727,F5,156.0,2.75,78,140.0
728,C4,156.5,0.25,71,140.0
729,B3,157.0,0.25,71,140.0
730,A3,157.5,0.25,71,140.0
731,G#3,158.0,1.0,66,140.0
732,D4,158.75,0.188,63,140.0
733,F4,158.75,0.188,71,140.0
734,D5,158.75,0.188,71,140.0
735,F5,158.75,0.188,71,140.0
736,C4,159.0,0.25,65,140.0
737,E4,159.0,0.25,76,140.0
738,C5,159.0,0.25,76,140.0
739,E5,159.0,0.25,76,140.0
740,B3,159.75,0.188,59,140.0
741,D4,159.75,0.188,71,140.0
742,B4,159.75,0.188,71,140.0
743,D5,159.75,0.188,71,140.0
744,A3,160.0,2.75,71,140.0
745,C4,160.0,2.5,78,140.0
746,A4,160.0,2.5,78,140.0
747,C5,160.0,2.5,78,140.0
748,G3,160.5,0.25,71,140.0
749,F#3,161.0,0.25,71,140.0
750,E3,161.5,0.25,71,140.0
751,E-3,162.0,1.0,66,140.0
752,G#3,162.5,0.188,63,140.0
753,B3,162.5,0.188,71,140.0
754,G#4,162.5,0.188,71,140.0
755,B4,162.5,0.188,71,140.0
756,F#3,163.0,0.25,65,140.0
757,A3,163.0,0.25,76,140.0
758,F#4,163.0,0.25,76,140.0
759,A4,163.0,0.25,76,140.0
760,G#3,163.5,0.188,59,140.0
761,B3,163.5,0.188,71,140.0
762,G#4,163.5,0.188,71,140.0
763,B4,163.5,0.188,71,140.0
764,E3,164.0,3333/1000,59,140.0
765,A3,164.0,0.25,71,140.0
766,C4,164.0,0.25,68,140.0
767,A4,164.0,0.25,68,140.0
768,C5,164.0,0.25,68,140.0
769,B3,164.5,0.25,73,140.0
770,D4,164.5,0.25,69,140.0
771,B4,164.5,0.25,69,140.0
772,D5,164.5,0.25,69,140.0
773,C4,165.0,0.25,74,140.0
774,E4,165.0,0.25,71,140.0
775,C5,165.0,0.25,71,140.0
776,E5,165.0,0.25,71,140.0
777,D4,165.5,0.25,75,140.0
778,F4,165.5,0.25,73,140.0
779,D5,165.5,0.25,73,140.0
780,F5,165.5,0.25,73,140.0
781,C4,166.0,0.25,76,140.0
782,E4,166.0,0.25,70,140.0
783,C5,166.0,0.25,70,140.0
784,E5,166.0,0.25,70,140.0
785,B3,166.5,0.25,75,140.0
786,D4,166.5,0.25,69,140.0
787,B4,166.5,0.25,69,140.0
788,D5,166.5,0.25,69,140.0
789,A3,167.0,0.25,73,140.0
790,C4,167.0,0.25,68,140.0
791,A4,167.0,0.25,68,140.0
792,C5,167.0,0.25,68,140.0
793,E4,167.75,0.188,70,140.0
794,B4,167.75,0.188,70,140.0
795,E3,167.75,0.188,64,140.0
796,B3,167.75,0.188,64,140.0
797,E4,168.0,2.0,70,140.0
798,B4,168.0,2.0,70,140.0
799,E3,168.0,2.0,64,140.0
800,B3,168.0,2.0,64,140.0
801,C4,170.0,1.0,70,140.0
802,A4,170.0,1.0,70,140.0
803,A2,170.0,1.0,65,140.0
804,A3,170.0,1.0,65,140.0
805,A4,171.25,0.25,34,140.0
806,G#4,171.5,0.25,34,140.0
807,A4,171.75,0.25,34,140.0
808,B4,172.0,0.25,41,140.0
809,G#4,172.25,0.25,35,140.0
810,E4,172.5,0.375,35,140.0
811,B3,173.0,1.0,24,140.0
812,G#3,173.0,1.0,24,140.0
813,E3,173.0,1.0,24,140.0
814,B4,173.25,0.25,34,140.0
815,G#4,173.5,0.25,34,140.0
816,E4,173.75,0.25,34,140.0
817,C5,174.0,0.25,41,140.0
818,A4,174.25,0.25,34,140.0
819,E4,174.5,0.375,34,140.0
820,E3,175.0,1.0,24,140.0
821,A3,175.0,1.0,24,140.0
822,C4,175.0,1.0,24,140.0
823,C5,175.25,0.25,36,140.0
824,A4,175.5,0.25,36,140.0
825,E4,175.75,0.25,36,140.0
826,A4,176.0,0.25,41,140.0
827,F#4,176.25,0.25,36,140.0
828,E-4,176.5,0.375,36,140.0
829,A3,177.0,1.0,24,140.0
830,F#3,177.0,1.0,24,140.0
831,E3,177.0,1.0,24,140.0
832,A4,177.25,0.25,36,140.0
833,F#4,177.5,0.25,36,140.0
834,E-4,177.75,0.25,36,140.0
835,B4,178.0,0.25,41,140.0
836,G#4,178.25,0.25,35,140.0
837,E4,178.5,0.375,35,140.0
838,B3,179.0,1.0,24,140.0
839,G#3,179.0,1.0,24,140.0
840,E3,179.0,1.0,24,140.0
841,F#4,179.25,0.25,39,140.0
842,G#4,179.5,0.25,39,140.0
843,A4,179.75,0.25,39,140.0
844,B4,180.0,0.25,42,140.0
845,E2,180.0,1.0,30,140.0
846,E3,180.0,1.0,30,140.0
847,G#4,180.25,0.25,38,140.0
848,E4,180.5,0.375,38,140.0
849,D4,181.0,1.0,27,140.0
850,B3,181.0,1.0,27,140.0
851,E3,181.0,1.0,27,140.0
852,B4,181.25,0.25,46,140.0
853,G#4,181.5,0.25,47,140.0
854,E4,181.75,0.25,47,140.0
855,C5,182.0,0.25,53,140.0
856,A4,182.25,0.25,48,140.0
857,E4,182.5,0.375,48,140.0
858,E3,183.0,1.0,34,140.0
859,A3,183.0,1.0,34,140.0
860,C4,183.0,1.0,34,140.0
861,C5,183.25,0.25,53,140.0
862,A4,183.5,0.25,54,140.0
863,E4,183.75,0.25,54,140.0
864,A4,184.0,0.25,60,140.0
865,E2,184.0,1.0,36,140.0
866,E3,184.0,1.0,36,140.0
867,F#4,184.25,0.25,56,140.0
868,E-4,184.5,0.375,56,140.0
869,A3,185.0,1.0,39,140.0
870,C4,185.0,1.0,39,140.0
871,F#3,185.0,1.0,39,140.0
872,E3,185.0,1.0,39,140.0
873,A4,185.25,0.25,58,140.0
874,F#4,185.5,0.25,58,140.0
875,E-4,185.75,0.25,58,140.0
876,B4,186.0,0.25,71,140.0
877,G#4,186.25,0.25,59,140.0
878,E4,186.5,0.375,60,140.0
879,E3,187.0,0.5,66,140.0
880,G#3,187.0,0.5,66,140.0
881,B3,187.0,0.5,66,140.0
882,E4,187.5,0.5,79,140.0
883,E2,187.5,0.5,60,140.0
884,E3,187.5,0.5,60,140.0
885,B3,188.0,1.5,74,140.0
886,E4,188.0,1.5,74,140.0
887,B4,188.0,1.5,74,140.0
888,G#2,188.0,1.5,62,140.0
889,E3,188.0,1.5,62,140.0
890,C4,189.5,0.5,71,140.0
891,E4,189.5,0.5,71,140.0
892,C5,189.5,0.5,71,140.0
893,A2,189.5,0.5,60,140.0
894,E3,189.5,0.5,60,140.0
895,D4,190.0,1.0,74,140.0
896,E4,190.0,1.0,74,140.0
897,D5,190.0,1.0,74,140.0
898,B2,190.0,1.0,62,140.0
899,E3,190.0,1.0,62,140.0
900,C4,191.0,1.0,74,140.0
901,E4,191.0,1.0,74,140.0
902,C5,191.0,1.0,74,140.0
903,A2,191.0,1.0,62,140.0
904,E3,191.0,1.0,62,140.0
905,F4,192.0,0.25,74,140.0
906,G#4,192.0,0.25,74,140.0
907,F5,192.0,0.25,74,140.0
908,D3,192.0,0.25,62,140.0
909,E3,192.0,0.25,62,140.0
910,E4,192.75,0.188,74,140.0
911,G#4,192.75,0.188,74,140.0
912,E5,192.75,0.188,74,140.0
913,C3,192.75,0.188,62,140.0
914,E3,192.75,0.188,62,140.0
915,D4,193.0,2.0,79,140.0
916,G#4,193.0,2.0,79,140.0
917,D5,193.0,2.0,79,140.0
918,B2,193.0,2.0,68,140.0
919,E3,193.0,2.0,68,140.0
920,F4,195.0,1.0,74,140.0
921,G#4,195.0,1.0,74,140.0
922,F5,195.0,1.0,74,140.0
923,D3,195.0,1.0,65,140.0
924,D4,195.0,1.0,65,140.0
925,E3,195.0,1.0,65,140.0
926,E4,196.0,1.0,74,140.0
927,A4,196.0,1.0,74,140.0
928,E5,196.0,1.0,74,140.0
929,C3,196.0,1.0,65,140.0
930,E3,196.0,1.0,65,140.0
931,C4,196.0,1.0,65,140.0
932,C4,197.0,1.0,74,140.0
933,E4,197.0,1.0,74,140.0
934,C5,197.0,1.0,74,140.0
935,E3,197.0,1.0,61,140.0
936,A2,197.0,1.0,61,140.0
937,A3,197.0,1.0,61,140.0
938,B3,198.0,1.0,74,140.0
939,E4,198.0,1.0,74,140.0
940,B4,198.0,1.0,74,140.0
941,E3,198.0,1.0,64,140.0
942,G#2,198.0,1.0,64,140.0
943,G#3,198.0,1.0,64,140.0
944,A4,199.0,0.75,76,140.0
945,C4,199.0,1.0,70,140.0
946,E-4,199.0,1.0,70,140.0
947,E3,199.0,1.0,61,140.0
948,F#2,199.0,1.0,61,140.0
949,F#3,199.0,1.0,61,140.0
950,B4,199.75,0.25,76,140.0
951,C4,200.0,2.0,69,140.0
952,E-4,200.0,2.0,69,140.0
953,A4,200.0,2.0,69,140.0
954,E2,200.0,1.0,62,140.0
955,E3,200.0,1.0,62,140.0
956,E1,201.0,2.0,71,140.0
957,E2,201.0,2.0,71,140.0
958,B3,202.0,19/20,68,140.0
959,E4,202.0,19/20,68,140.0
960,G#4,202.0,19/20,68,140.0
961,E4,203.0,1.0,79,140.0
962,E2,203.0,1.0,60,140.0
963,E3,203.0,1.0,60,140.0
964,B3,204.0,1.5,74,140.0
965,E4,204.0,1.5,74,140.0
966,B4,204.0,1.5,74,140.0
967,D3,204.0,1.5,59,140.0
968,E3,204.0,1.5,59,140.0
969,G#3,204.0,1.5,59,140.0
970,C4,205.5,0.5,71,140.0
971,A4,205.5,0.5,71,140.0
972,C5,205.5,0.5,71,140.0
973,C3,205.5,0.5,57,140.0
974,E3,205.5,0.5,57,140.0
975,A3,205.5,0.5,57,140.0
976,D4,206.0,1.0,74,140.0
977,G#4,206.0,1.0,74,140.0
978,D5,206.0,1.0,74,140.0
979,B2,206.0,1.0,59,140.0
980,E3,206.0,1.0,59,140.0
981,B3,206.0,1.0,59,140.0
982,F4,207.0,1.0,74,140.0
983,G#4,207.0,1.0,74,140.0
984,F5,207.0,1.0,74,140.0
985,D3,207.0,1.0,59,140.0
986,E3,207.0,1.0,59,140.0
987,D4,207.0,1.0,59,140.0
988,A4,208.0,0.25,74,140.0
989,E4,208.0,0.25,74,140.0
990,E5,208.0,0.25,74,140.0
991,C3,208.0,0.25,59,140.0
992,E3,208.0,0.25,59,140.0
993,C4,208.0,0.25,59,140.0
994,A4,208.75,0.188,74,140.0
995,D4,208.75,0.188,74,140.0
996,D5,208.75,0.188,74,140.0
997,B2,208.75,0.188,59,140.0
998,E3,208.75,0.188,59,140.0
999,B3,208.75,0.188,59,140.0
1000,C4,209.0,2.0,77,140.0
1001,A4,209.0,2.0,77,140.0
1002,C5,209.0,2.0,77,140.0
1003,A2,209.0,2.0,61,140.0
1004,E3,209.0,2.0,61,140.0
1005,A3,209.0,2.0,61,140.0
1006,F#4,211.0,1.0,77,140.0
1007,C5,211.0,1.0,77,140.0
1008,E4,211.0,1.0,77,140.0
1009,E5,211.0,1.0,77,140.0
1010,A2,211.0,1.0,70,140.0
1011,A1,211.0,1.0,70,140.0
1012,G4,212.0,1.0,77,140.0
1013,B4,212.0,1.0,77,140.0
1014,D4,212.0,1.0,77,140.0
1015,D5,212.0,1.0,77,140.0
1016,B1,212.0,1.0,70,140.0
1017,B2,212.0,1.0,70,140.0
1018,C4,213.0,1.0,77,140.0
1019,A4,213.0,1.0,77,140.0
1020,E4,213.0,1.0,77,140.0
1021,C5,213.0,1.0,77,140.0
1022,C2,213.0,1.0,66,140.0
1023,C3,213.0,1.0,66,140.0
1024,B3,214.0,1.0,76,140.0
1025,G4,214.0,1.0,76,140.0
1026,D4,214.0,1.0,76,140.0
1027,B4,214.0,1.0,76,140.0
1028,D2,214.0,1.0,66,140.0
1029,D3,214.0,1.0,66,140.0
1030,A4,215.0,0.75,85,140.0
1031,F#4,215.0,1.0,76,140.0
1032,A3,215.0,1.0,76,140.0
1033,C4,215.0,1.0,76,140.0
1034,D2,215.0,1.0,70,140.0
1035,D3,215.0,1.0,70,140.0
1036,B3,215.75,0.25,78,140.0
1037,B4,215.75,0.25,78,140.0
1038,F#4,216.0,2.0,71,140.0
1039,A3,216.0,2.0,71,140.0
1040,C4,216.0,2.0,71,140.0
1041,A4,216.0,2.0,71,140.0
1042,G1,216.0,1.0,68,140.0
1043,G2,216.0,1.0,68,140.0
1044,G2,217.0,2.0,84,140.0
1045,G3,217.0,2.0,84,140.0
1046,B3,218.0,19/20,71,140.0
1047,D4,218.0,19/20,71,140.0
1048,G4,218.0,19/20,71,140.0
1049,G4,219.0,1.0,88,140.0
1050,F2,219.0,1.0,74,140.0
1051,F3,219.0,1.0,74,140.0
1052,G4,220.0,1.5,80,140.0
1053,E5,220.0,1.5,80,140.0
1054,G5,220.0,1.5,80,140.0
1055,E2,220.0,1.0,67,140.0
1056,G2,220.0,1.0,67,140.0
1057,C3,220.0,1.0,67,140.0
1058,E3,220.0,1.0,67,140.0
1059,E3,221.0,2.0,66,140.0
1060,G3,221.0,2.0,66,140.0
1061,C4,221.0,2.0,66,140.0
1062,E4,221.0,2.0,66,140.0
1063,F4,221.5,0.5,75,140.0
1064,D5,221.5,0.5,75,140.0
1065,F5,221.5,0.5,75,140.0
1066,E4,222.0,1.0,78,140.0
1067,C5,222.0,1.0,78,140.0
1068,E5,222.0,1.0,78,140.0
1069,F4,223.0,1.0,78,140.0
1070,D5,223.0,1.0,78,140.0
1071,F5,223.0,1.0,78,140.0
1072,D2,223.0,1.0,63,140.0
1073,D3,223.0,1.0,63,140.0
1074,C5,224.0,1.0,78,140.0
1075,E4,224.0,1.0,78,140.0
1076,E5,224.0,1.0,78,140.0
1077,G2,224.0,1.0,52,140.0
1078,G3,224.0,1.0,52,140.0
1079,D4,225.0,0.75,79,140.0
1080,B4,225.0,0.75,79,140.0
1081,D5,225.0,0.75,79,140.0
1082,G1,225.0,1.5,52,140.0
1083,G2,225.0,1.5,52,140.0
1084,C4,225.75,0.25,75,140.0
1085,A4,225.75,0.25,75,140.0
1086,C5,225.75,0.25,75,140.0
1087,D4,226.0,1.0,76,140.0
1088,B4,226.0,1.0,76,140.0
1089,D5,226.0,1.0,76,140.0
1090,F2,226.5,0.5,64,140.0
1091,F3,226.5,0.5,64,140.0
1092,F4,227.0,1.0,82,140.0
1093,G4,227.0,1.0,82,140.0
1094,E2,227.0,0.375,67,140.0
1095,E3,227.0,0.375,67,140.0
1096,D2,227.5,0.375,64,140.0
1097,D3,227.5,0.375,64,140.0
1098,C5,228.0,1.5,79,140.0
1099,E4,228.0,1.5,79,140.0
1100,E5,228.0,1.5,79,140.0
1101,C2,228.0,1.0,68,140.0
1102,C3,228.0,1.0,68,140.0
1103,C3,229.0,2.0,66,140.0
1104,E3,229.0,2.0,66,140.0
1105,A3,229.0,2.0,66,140.0
1106,C4,229.0,2.0,66,140.0
1107,D4,229.5,0.25,78,140.0
1108,B4,229.5,0.25,78,140.0
1109,D5,229.5,0.25,78,140.0
1110,C4,230.0,0.25,71,140.0
1111,A4,230.0,0.25,71,140.0
1112,C5,230.0,0.25,71,140.0
1113,D4,230.5,0.25,72,140.0
1114,B4,230.5,0.25,72,140.0
1115,D5,230.5,0.25,72,140.0
1116,E4,231.0,0.25,74,140.0
1117,C5,231.0,0.25,74,140.0
1118,E5,231.0,0.25,74,140.0
1119,B1,231.0,1.0,69,140.0
1120,B2,231.0,1.0,69,140.0
1121,D4,231.5,0.25,72,140.0
1122,B4,231.5,0.25,72,140.0
1123,D5,231.5,0.25,72,140.0
1124,A4,232.0,1.0,78,140.0
1125,C4,232.0,1.0,78,140.0
1126,C5,232.0,1.0,78,140.0
1127,E2,232.0,1.0,63,140.0
1128,E3,232.0,1.0,63,140.0
1129,B3,233.0,0.75,79,140.0
1130,G#4,233.0,0.75,79,140.0
1131,B4,233.0,0.75,79,140.0
1132,E1,233.0,1.5,63,140.0
1133,E2,233.0,1.5,63,140.0
1134,A3,233.75,0.25,71,140.0
1135,F#4,233.75,0.25,71,140.0
1136,A4,233.75,0.25,71,140.0
1137,B3,234.0,1.0,71,140.0
1138,G#4,234.0,1.0,71,140.0
1139,B4,234.0,1.0,71,140.0
1140,D2,234.5,0.5,70,140.0
1141,D3,234.5,0.5,70,140.0
1142,D4,235.0,1.0,80,140.0
1143,E4,235.0,1.0,80,140.0
1144,C2,235.0,0.375,73,140.0
1145,C3,235.0,0.375,73,140.0
1146,B1,235.5,0.375,70,140.0
1147,B2,235.5,0.375,70,140.0
1148,A3,236.0,1.5,77,140.0
1149,C4,236.0,1.5,77,140.0
1150,E4,236.0,1.5,77,140.0
1151,A4,236.0,1.5,77,140.0
1152,A1,236.0,0.5,70,140.0
1153,A2,236.0,0.5,70,140.0
1154,E2,236.5,0.5,63,140.0
1155,E3,236.5,0.5,63,140.0
1156,C2,237.0,0.5,67,140.0
1157,C3,237.0,0.5,67,140.0
1158,B3,237.5,0.5,75,140.0
1159,E4,237.5,0.5,75,140.0
1160,B4,237.5,0.5,75,140.0
1161,E2,237.5,0.5,63,140.0
1162,E3,237.5,0.5,63,140.0
1163,C4,238.0,1.0,78,140.0
1164,A4,238.0,1.0,78,140.0
1165,C5,238.0,1.0,78,140.0
1166,A2,238.0,0.5,68,140.0
1167,A3,238.0,0.5,68,140.0
1168,E2,238.5,0.5,63,140.0
1169,E3,238.5,0.5,63,140.0
1170,D4,239.0,1.0,78,140.0
1171,B4,239.0,1.0,78,140.0
1172,D5,239.0,1.0,78,140.0
1173,B2,239.0,0.5,68,140.0
1174,B3,239.0,0.5,68,140.0
1175,E2,239.5,0.5,63,140.0
1176,E3,239.5,0.5,63,140.0
1177,E4,240.0,1.0,78,140.0
1178,C5,240.0,1.0,78,140.0
1179,E5,240.0,1.0,78,140.0
1180,C3,240.0,0.5,70,140.0
1181,C4,240.0,0.5,70,140.0
1182,B2,240.5,0.5,63,140.0
1183,B3,240.5,0.5,63,140.0
1184,G4,241.0,2.0,83,140.0
1185,E5,241.0,2.0,83,140.0
1186,G5,241.0,2.0,83,140.0
1187,C3,241.0,0.5,64,140.0
1188,C4,241.0,0.5,64,140.0
1189,D3,241.5,0.5,66,140.0
1190,D4,241.5,0.5,66,140.0
1191,E3,242.0,0.5,67,140.0
1192,E4,242.0,0.5,67,140.0
1193,G2,242.5,0.5,62,140.0
1194,G3,242.5,0.5,62,140.0
1195,F4,243.0,0.75,78,140.0
1196,D5,243.0,0.75,78,140.0
1197,F5,243.0,0.75,78,140.0
1198,A2,243.0,0.5,64,140.0
1199,A3,243.0,0.5,64,140.0
1200,B2,243.5,0.5,67,140.0
1201,B3,243.5,0.5,67,140.0
1202,E4,243.75,119/500,73,140.0
1203,C5,243.75,119/500,73,140.0
1204,E5,243.75,119/500,73,140.0
1205,E4,244.0,1.0,78,140.0
1206,C5,244.0,1.0,78,140.0
1207,E5,244.0,1.0,78,140.0
1208,C3,244.0,0.5,70,140.0
1209,C4,244.0,0.5,70,140.0
1210,E2,244.5,0.5,62,140.0
1211,E3,244.5,0.5,62,140.0
1212,D4,245.0,0.75,78,140.0
1213,B4,245.0,0.75,78,140.0
1214,D5,245.0,0.75,78,140.0
1215,F#2,245.0,0.5,63,140.0
1216,F#3,245.0,0.5,63,140.0
1217,G#2,245.5,0.5,64,140.0
1218,G#3,245.5,0.5,64,140.0
1219,C4,245.75,119/500,73,140.0
1220,A4,245.75,119/500,73,140.0
1221,C5,245.75,119/500,73,140.0
1222,C4,246.0,1.0,78,140.0
1223,A4,246.0,1.0,78,140.0
1224,C5,246.0,1.0,78,140.0
1225,A2,246.0,0.5,66,140.0
1226,A3,246.0,0.5,66,140.0
1227,C2,246.5,0.5,63,140.0
1228,C3,246.5,0.5,63,140.0
1229,E4,247.0,0.75,79,140.0
1230,C5,247.0,0.75,79,140.0
1231,E5,247.0,0.75,79,140.0
1232,F2,247.0,0.5,67,140.0
1233,F3,247.0,0.5,67,140.0
1234,D2,247.5,0.5,63,140.0
1235,D3,247.5,0.5,63,140.0
1236,D4,247.75,0.25,73,140.0
1237,B4,247.75,0.25,73,140.0
1238,D5,247.75,0.25,73,140.0
1239,C4,248.0,2.0,72,140.0
1240,A4,248.0,2.0,72,140.0
1241,C5,248.0,2.0,72,140.0
1242,E2,248.0,0.5,68,140.0
1243,E3,248.0,0.5,68,140.0
1244,E-2,248.5,0.5,63,140.0
1245,E-3,248.5,0.5,63,140.0
1246,E2,249.0,0.5,63,140.0
1247,E3,249.0,0.5,63,140.0
1248,E-2,249.5,0.5,63,140.0
1249,E-3,249.5,0.5,63,140.0
1250,B3,250.0,1.0,71,140.0
1251,G#4,250.0,1.0,71,140.0
1252,B4,250.0,1.0,71,140.0
1253,E2,250.0,0.5,67,140.0
1254,E3,250.0,0.5,67,140.0
1255,D2,250.5,0.5,63,140.0
1256,D3,250.5,0.5,63,140.0
1257,D4,251.0,1.0,80,140.0
1258,E4,251.0,1.0,80,140.0
1259,B1,251.0,0.5,63,140.0
1260,B2,251.0,0.5,63,140.0
1261,C2,251.5,0.5,63,140.0
1262,C3,251.5,0.5,63,140.0
1263,A3,252.0,1.5,77,140.0
1264,C4,252.0,1.5,77,140.0
1265,E4,252.0,1.5,77,140.0
1266,A4,252.0,1.5,77,140.0
1267,A1,252.0,0.5,70,140.0
1268,A2,252.0,0.5,70,140.0
1269,E3,252.5,0.5,63,140.0
1270,E2,252.5,0.5,63,140.0
1271,C2,253.0,0.5,67,140.0
1272,C3,253.0,0.5,67,140.0
1273,B3,253.5,0.5,75,140.0
1274,E4,253.5,0.5,75,140.0
1275,B4,253.5,0.5,75,140.0
1276,E2,253.5,0.5,63,140.0
1277,E3,253.5,0.5,63,140.0
1278,C4,254.0,0.75,78,140.0
1279,A4,254.0,0.75,78,140.0
1280,C5,254.0,0.75,78,140.0
1281,A2,254.0,0.5,68,140.0
1282,A3,254.0,0.5,68,140.0
1283,E2,254.5,0.5,63,140.0
1284,E3,254.5,0.5,63,140.0
1285,B3,254.75,0.25,78,140.0
1286,G#4,254.75,0.25,78,140.0
1287,B4,254.75,0.25,78,140.0
1288,C4,255.0,0.75,78,140.0
1289,A4,255.0,0.75,78,140.0
1290,C5,255.0,0.75,78,140.0
1291,A2,255.0,0.5,68,140.0
1292,A3,255.0,0.5,68,140.0
1293,B3,255.5,0.5,63,140.0
1294,B2,255.5,0.5,63,140.0
1295,D4,255.75,0.25,78,140.0
1296,D5,255.75,0.25,78,140.0
1297,B4,255.75,0.25,78,140.0
1298,E4,256.0,1.0,78,140.0
1299,C5,256.0,1.0,78,140.0
1300,E5,256.0,1.0,78,140.0
1301,C4,256.0,0.5,70,140.0
1302,C3,256.0,0.5,70,140.0
1303,B3,256.5,0.5,63,140.0
1304,B2,256.5,0.5,63,140.0
1305,G4,257.0,2.0,83,140.0
1306,E5,257.0,2.0,83,140.0
1307,G5,257.0,2.0,83,140.0
1308,C3,257.0,0.5,64,140.0
1309,C4,257.0,0.5,64,140.0
1310,D3,257.5,0.5,66,140.0
1311,D4,257.5,0.5,66,140.0
1312,E4,258.0,0.5,67,140.0
1313,E3,258.0,0.5,67,140.0
1314,F3,258.5,0.5,62,140.0
1315,F4,258.5,0.5,62,140.0
1316,B-4,259.0,1.0,84,140.0
1317,G5,259.0,1.0,84,140.0
1318,B-5,259.0,1.0,84,140.0
1319,G4,259.0,0.5,64,140.0
1320,G3,259.0,0.5,64,140.0
1321,A4,259.5,0.5,67,140.0
1322,A3,259.5,0.5,67,140.0
1323,B-3,260.0,0.5,69,140.0
1324,B-4,260.0,0.5,69,140.0
1325,G3,260.5,0.5,72,140.0
1326,G4,260.5,0.5,72,140.0
1327,E3,261.0,0.5,68,140.0
1328,E4,261.0,0.5,68,140.0
1329,D3,261.5,0.5,68,140.0
1330,D4,261.5,0.5,68,140.0
1331,C#3,262.0,1.0,67,140.0
1332,C#4,262.0,1.0,67,140.0
1333,G4,262.75,0.25,66,140.0
1334,B-4,262.75,2.75,84,140.0
1335,G5,262.75,2.75,84,140.0
1336,B-5,262.75,2.75,84,140.0
1337,F4,263.0,0.75,68,140.0
1338,E4,263.75,0.25,62,140.0
1339,D3,264.0,0.5,71,140.0
1340,D4,264.0,0.5,71,140.0
1341,C3,264.5,0.25,70,140.0
1342,C4,264.5,0.25,70,140.0
1343,B2,265.0,0.25,70,140.0
1344,B3,265.0,0.25,70,140.0
1345,B-4,265.5,0.25,78,140.0
1346,G5,265.5,0.25,78,140.0
1347,B-5,265.5,0.25,78,140.0
1348,A2,265.5,0.25,70,140.0
1349,A3,265.5,0.25,70,140.0
1350,A4,265.75,0.75,79,140.0
1351,F5,265.75,0.75,79,140.0
1352,A5,265.75,0.75,79,140.0
1353,G#2,266.0,1.0,66,140.0
1354,G#3,266.0,1.0,66,140.0
1355,G4,266.5,0.25,73,140.0
1356,E5,266.5,0.25,73,140.0
1357,G5,266.5,0.25,73,140.0
1358,D4,266.75,0.25,66,140.0
1359,F4,266.75,2.75,81,140.0
1360,D5,266.75,2.75,81,140.0
1361,F5,266.75,2.75,81,140.0
1362,C4,267.0,0.75,68,140.0
1363,B3,267.75,0.25,62,140.0
1364,A2,268.0,0.5,69,140.0
1365,A3,268.0,0.5,69,140.0
1366,G2,268.5,0.25,68,140.0
1367,G3,268.5,0.25,68,140.0
1368,F#2,269.0,0.25,70,140.0
1369,F#3,269.0,0.25,70,140.0
1370,F4,269.5,0.25,74,140.0
1371,D5,269.5,0.25,74,140.0
1372,F5,269.5,0.25,74,140.0
1373,E2,269.5,0.25,70,140.0
1374,E3,269.5,0.25,70,140.0
1375,E4,269.75,0.75,79,140.0
1376,C5,269.75,0.75,79,140.0
1377,E5,269.75,0.75,79,140.0
1378,E-2,270.0,0.5,66,140.0
1379,E-3,270.0,0.5,66,140.0
1380,G#3,270.5,0.25,49,140.0
1381,D4,270.5,0.25,73,140.0
1382,B4,270.5,0.25,73,140.0
1383,D5,270.5,0.25,73,140.0
1384,C4,270.75,2.75,78,140.0
1385,A4,270.75,2.75,78,140.0
1386,C5,270.75,2.75,78,140.0
1387,F#3,271.0,0.25,53,140.0
1388,G#3,271.5,0.25,48,140.0
1389,E2,272.0,0.25,50,140.0
1390,E3,272.0,0.25,50,140.0
1391,B3,272.5,0.25,54,140.0
1392,C4,273.0,0.25,55,140.0
1393,B3,273.25,0.25,48,140.0
1394,G#4,273.25,0.25,48,140.0
1395,B4,273.25,0.25,48,140.0
1396,D4,273.5,0.25,57,140.0
1397,A3,273.75,0.25,57,140.0
1398,F#4,273.75,0.25,57,140.0
1399,A4,273.75,0.25,57,140.0
1400,C4,274.0,0.25,58,140.0
1401,B3,274.25,0.25,55,140.0
1402,G#4,274.25,0.25,55,140.0
1403,B4,274.25,0.25,55,140.0
1404,B3,274.5,0.25,58,140.0
1405,A4,274.75,0.25,56,140.0
1406,C5,274.75,0.25,56,140.0
1407,C4,274.75,0.25,56,140.0
1408,A3,275.0,0.25,57,140.0
1409,D4,275.25,0.25,58,140.0
1410,D5,275.25,0.25,58,140.0
1411,B4,275.25,0.25,58,140.0
1412,E3,275.5,0.25,56,140.0
1413,E4,275.75,0.25,60,140.0
1414,E5,275.75,0.25,60,140.0
1415,C5,275.75,0.25,60,140.0
1416,A3,276.0,0.25,57,140.0
1417,F4,276.25,0.25,61,140.0
1418,D5,276.25,0.25,61,140.0
1419,F5,276.25,0.25,61,140.0
1420,B3,276.5,0.25,58,140.0
1421,E4,276.75,0.25,61,140.0
1422,C5,276.75,0.25,61,140.0
1423,E5,276.75,0.25,61,140.0
1424,C4,277.0,0.25,62,140.0
1425,B4,277.25,0.25,61,140.0
1426,D5,277.25,0.25,61,140.0
1427,D4,277.25,0.25,61,140.0
1428,D4,277.5,0.25,64,140.0
1429,A4,277.75,0.25,61,140.0
1430,C5,277.75,0.25,61,140.0
1431,C4,277.75,0.25,61,140.0
1432,C4,278.0,0.25,65,140.0
1433,G#4,278.25,0.25,61,140.0
1434,B4,278.25,0.25,61,140.0
1435,B3,278.25,0.25,61,140.0
1436,B3,278.5,0.25,66,140.0
1437,C5,278.75,0.25,63,140.0
1438,C4,278.75,0.25,63,140.0
1439,A4,278.75,0.25,63,140.0
1440,A3,279.0,0.25,65,140.0
1441,D4,279.25,0.25,63,140.0
1442,B4,279.25,0.25,63,140.0
1443,D5,279.25,0.25,63,140.0
1444,G#2,279.5,0.25,56,140.0
1445,B2,279.5,0.25,56,140.0
1446,G#3,279.5,0.25,56,140.0
1447,C5,279.75,0.25,67,140.0
1448,E5,279.75,0.25,67,140.0
1449,E4,279.75,0.25,67,140.0
1450,A2,280.0,0.25,59,140.0
1451,A3,280.0,0.25,59,140.0
1452,C3,280.0,0.25,59,140.0
1453,F4,280.25,0.25,69,140.0
1454,F5,280.25,0.25,69,140.0
1455,D5,280.25,0.25,69,140.0
1456,B2,280.5,0.25,61,140.0
1457,D3,280.5,0.25,61,140.0
1458,B3,280.5,0.25,61,140.0
1459,E4,280.75,0.25,67,140.0
1460,E5,280.75,0.25,67,140.0
1461,C5,280.75,0.25,67,140.0
1462,C3,281.0,0.25,62,140.0
1463,E3,281.0,0.25,62,140.0
1464,C4,281.0,0.25,62,140.0
1465,D4,281.25,0.25,68,140.0
1466,B4,281.25,0.25,68,140.0
1467,D5,281.25,0.25,68,140.0
1468,D3,281.5,0.25,62,140.0
1469,F3,281.5,0.25,62,140.0
1470,D4,281.5,0.25,62,140.0
1471,C4,281.75,0.25,68,140.0
1472,A4,281.75,0.25,68,140.0
1473,C5,281.75,0.25,68,140.0
1474,C3,282.0,0.25,63,140.0
1475,E3,282.0,0.25,63,140.0
1476,C4,282.0,0.25,63,140.0
1477,G#4,282.25,0.25,68,140.0
1478,B4,282.25,0.25,68,140.0
1479,B3,282.25,0.25,68,140.0
1480,B2,282.5,0.25,62,140.0
1481,D3,282.5,0.25,62,140.0
1482,B3,282.5,0.25,62,140.0
1483,A4,282.75,0.25,70,140.0
1484,C5,282.75,0.25,70,140.0
1485,C4,282.75,0.25,70,140.0
1486,A2,283.0,0.25,61,140.0
1487,C3,283.0,0.25,61,140.0
1488,A3,283.0,0.25,61,140.0
1489,D5,283.25,0.25,72,140.0
1490,B4,283.25,0.25,72,140.0
1491,D4,283.25,0.25,72,140.0
1492,G#2,283.5,0.25,60,140.0
1493,B2,283.5,0.25,60,140.0
1494,G#3,283.5,0.25,60,140.0
1495,E5,283.75,0.25,75,140.0
1496,C5,283.75,0.25,75,140.0
1497,E4,283.75,0.25,75,140.0
1498,A2,284.0,0.25,59,140.0
1499,C3,284.0,0.25,59,140.0
1500,A3,284.0,0.25,59,140.0
1501,F4,284.25,0.25,77,140.0
1502,D5,284.25,0.25,77,140.0
1503,F5,284.25,0.25,77,140.0
1504,B2,284.5,0.25,60,140.0
1505,D3,284.5,0.25,60,140.0
1506,B3,284.5,0.25,60,140.0
1507,E5,284.75,0.25,74,140.0
1508,E4,284.75,0.25,74,140.0
1509,C5,284.75,0.25,74,140.0
1510,C3,285.0,0.25,61,140.0
1511,E3,285.0,0.25,61,140.0
1512,C4,285.0,0.25,61,140.0
1513,D4,285.25,0.25,72,140.0
1514,B4,285.25,0.25,72,140.0
1515,D5,285.25,0.25,72,140.0
1516,D3,285.5,0.25,62,140.0
1517,F3,285.5,0.25,62,140.0
1518,D4,285.5,0.25,62,140.0
1519,C4,285.75,0.25,71,140.0
1520,A4,285.75,0.25,71,140.0
1521,C5,285.75,0.25,71,140.0
1522,C3,286.0,0.25,63,140.0
1523,E3,286.0,0.25,63,140.0
1524,C4,286.0,0.25,63,140.0
1525,G#4,286.25,0.25,72,140.0
1526,B3,286.25,0.25,72,140.0
1527,B4,286.25,0.25,72,140.0
1528,B2,286.5,0.25,63,140.0
1529,D3,286.5,0.25,63,140.0
1530,B3,286.5,0.25,63,140.0
1531,C4,286.75,0.25,75,140.0
1532,A4,286.75,0.25,75,140.0
1533,C5,286.75,0.25,75,140.0
1534,A2,287.0,0.25,61,140.0
1535,C3,287.0,0.25,61,140.0
1536,A3,287.0,0.25,61,140.0
1537,D5,287.25,0.25,76,140.0
1538,D4,287.25,0.25,76,140.0
1539,B4,287.25,0.25,76,140.0
1540,G#2,287.5,0.25,60,140.0
1541,B2,287.5,0.25,60,140.0
1542,G#3,287.5,0.25,60,140.0
1543,E4,287.75,0.25,79,140.0
1544,C5,287.75,0.25,79,140.0
1545,E5,287.75,0.25,79,140.0
1546,A2,288.0,0.375,60,140.0
1547,C3,288.0,0.375,60,140.0
1548,A3,288.0,0.375,60,140.0
1549,F5,288.25,0.25,81,140.0
1550,F4,288.25,0.25,81,140.0
1551,D5,288.25,0.25,81,140.0
1552,B2,288.5,0.375,56,140.0
1553,G#3,288.5,0.375,56,140.0
1554,G#2,288.5,0.375,56,140.0
1555,E4,288.75,0.25,78,140.0
1556,C5,288.75,0.25,78,140.0
1557,E5,288.75,0.25,78,140.0
1558,C3,289.0,0.375,60,140.0
1559,A3,289.0,0.375,60,140.0
1560,A2,289.0,0.375,60,140.0
1561,D4,289.25,0.25,78,140.0
1562,D5,289.25,0.25,78,140.0
1563,B4,289.25,0.25,78,140.0
1564,B2,289.5,0.375,55,140.0
1565,G#3,289.5,0.375,55,140.0
1566,G#2,289.5,0.375,55,140.0
1567,A4,289.75,0.25,77,140.0
1568,C4,289.75,0.25,77,140.0
1569,C5,289.75,0.25,77,140.0
1570,C3,290.0,0.375,60,140.0
1571,A3,290.0,0.375,60,140.0
1572,A2,290.0,0.375,60,140.0
1573,G#4,290.25,0.25,77,140.0
1574,B3,290.25,0.25,77,140.0
1575,B4,290.25,0.25,77,140.0
1576,B2,290.5,0.375,55,140.0
1577,G#3,290.5,0.375,55,140.0
1578,G#2,290.5,0.375,55,140.0
1579,A4,290.75,0.375,79,140.0
1580,C5,290.75,0.375,79,140.0
1581,C4,290.75,0.375,79,140.0
1582,C3,291.0,0.375,60,140.0
1583,A3,291.0,0.375,60,140.0
1584,A2,291.0,0.375,60,140.0
1585,B4,291.25,0.375,76,140.0
1586,B3,291.25,0.375,76,140.0
1587,G#4,291.25,0.375,76,140.0
1588,B2,291.5,0.375,54,140.0
1589,G#3,291.5,0.375,54,140.0
1590,G#2,291.5,0.375,54,140.0
1591,C5,291.75,0.375,79,140.0
1592,C4,291.75,0.375,79,140.0
1593,A4,291.75,0.375,79,140.0
1594,C3,292.0,1.0,60,140.0
1595,A3,292.0,1.0,60,140.0
1596,A2,292.0,1.0,60,140.0
1597,B3,292.25,0.375,73,140.0
1598,G#4,292.25,0.375,73,140.0
1599,B4,292.25,0.375,73,140.0
1600,C4,292.75,0.375,79,140.0
1601,C5,292.75,0.375,79,140.0
1602,A4,292.75,0.375,79,140.0
1603,A2,293.0,1.0,57,140.0
1604,F3,293.0,1.0,57,140.0
1605,F2,293.0,1.0,57,140.0
1606,B4,293.25,0.375,72,140.0
1607,G#4,293.25,0.375,72,140.0
1608,B3,293.25,0.375,72,140.0
1609,C4,293.75,0.375,79,140.0
1610,A4,293.75,0.375,79,140.0
1611,C5,293.75,0.375,79,140.0
1612,G#2,294.0,1.0,57,140.0
1613,E3,294.0,1.0,57,140.0
1614,E2,294.0,1.0,57,140.0
1615,B4,294.25,0.375,72,140.0
1616,B3,294.25,0.375,72,140.0
1617,G#4,294.25,0.375,72,140.0
1618,C4,294.75,0.375,79,140.0
1619,A4,294.75,0.375,79,140.0
1620,C5,294.75,0.375,79,140.0
1621,B2,295.0,0.75,67,140.0
1622,E2,295.0,1.0,60,140.0
1623,E3,295.0,1.0,60,140.0
1624,B3,295.25,0.375,73,140.0
1625,G#4,295.25,0.375,73,140.0
1626,B4,295.25,0.375,73,140.0
1627,C3,295.75,0.25,58,140.0
1628,A4,295.75,0.375,79,140.0
1629,C4,295.75,0.375,79,140.0
1630,C5,295.75,0.375,79,140.0
1631,E2,296.0,2.0,57,140.0
1632,B2,296.0,2.0,57,140.0
1633,E3,296.0,2.0,57,140.0
1634,D4,296.25,0.375,72,140.0
1635,B4,296.25,0.375,72,140.0
1636,D5,296.25,0.375,72,140.0
1637,E5,296.75,1.0,79,140.0
1638,E4,296.75,1.0,79,140.0
1639,C5,296.75,1.0,79,140.0
1640,B3,297.75,0.75,75,140.0
1641,E4,297.75,0.75,75,140.0
1642,B4,297.75,0.75,75,140.0
1643,A1,298.0,1.0,56,140.0
1644,A2,298.0,1.0,56,140.0
1645,C4,298.5,0.25,72,140.0
1646,C5,298.5,0.25,72,140.0
1647,E4,298.75,2.0,75,140.0
1648,B3,298.75,2.0,75,140.0
1649,B4,298.75,2.0,75,140.0
1650,A3,300.75,1.0,72,140.0
1651,A4,300.75,1.0,72,140.0
1652,E4,301.0,1.0,41,140.0
1653,C4,301.0,1.0,41,140.0
1654,A3,301.0,1.0,41,140.0
1655,B4,302.0,0.25,68,140.0
1656,C5,302.25,0.25,69,140.0
1657,D5,302.5,0.25,66,140.0
1658,E5,302.75,0.25,76,140.0
1659,C5,303.0,0.25,64,140.0
1660,A3,303.0,1.0,41,140.0
1661,D4,303.0,1.0,41,140.0
1662,F4,303.0,1.0,41,140.0
1663,A4,303.25,0.375,64,140.0
1664,E5,304.0,0.25,70,140.0
1665,C5,304.25,0.25,69,140.0
1666,A4,304.5,0.25,69,140.0
1667,F5,304.75,0.25,76,140.0
1668,D5,305.0,0.25,64,140.0
1669,D4,305.0,1.0,42,140.0
1670,B3,305.0,1.0,42,140.0
1671,A3,305.0,1.0,42,140.0
1672,A4,305.25,0.375,64,140.0
1673,F5,306.0,0.25,68,140.0
1674,D5,306.25,0.25,68,140.0
1675,A4,306.5,0.25,68,140.0
1676,D5,306.75,0.25,76,140.0
1677,B4,307.0,0.25,64,140.0
1678,E4,307.0,1.0,35,140.0
1679,C4,307.0,1.0,35,140.0
1680,A3,307.0,1.0,35,140.0
1681,G#4,307.25,0.375,64,140.0
1682,D5,308.0,0.25,64,140.0
1683,B4,308.25,0.25,64,140.0
1684,G#4,308.5,0.25,64,140.0
1685,E5,308.75,0.25,75,140.0
1686,C5,309.0,0.25,62,140.0
1687,G4,309.0,1.0,34,140.0
1688,E4,309.0,1.0,34,140.0
1689,A3,309.0,1.0,34,140.0
1690,A4,309.25,0.375,63,140.0
1691,B4,310.0,0.25,47,140.0
1692,C5,310.25,0.25,47,140.0
1693,D5,310.5,0.25,48,140.0
1694,E5,310.75,0.25,57,140.0
1695,C#5,311.0,0.25,46,140.0
1696,A3,311.0,1.0,31,140.0
1697,D4,311.0,1.0,31,140.0
1698,F4,311.0,1.0,31,140.0
1699,A4,311.25,0.375,46,140.0
1700,E5,312.0,0.25,44,140.0
1701,C#5,312.25,0.25,44,140.0
1702,A4,312.5,0.25,44,140.0
1703,F5,312.75,0.25,52,140.0
1704,D5,313.0,0.25,42,140.0
1705,D4,313.0,1.0,28,140.0
1706,F4,313.0,1.0,28,140.0
1707,B3,313.0,1.0,28,140.0
1708,A3,313.0,1.0,28,140.0
1709,A4,313.25,0.375,42,140.0
1710,F5,314.0,0.25,44,140.0
1711,D5,314.25,0.25,44,140.0
1712,A4,314.5,0.25,44,140.0
1713,C4,314.5,0.375,29,140.0
1714,A3,314.5,0.375,29,140.0
1715,E4,314.5,0.375,29,140.0
1716,D5,314.75,0.25,50,140.0
1717,B4,315.0,0.25,42,140.0
1718,F4,315.0,1.0,29,140.0
1719,D4,315.0,1.0,29,140.0
1720,A3,315.0,1.0,29,140.0
1721,G#4,315.25,0.375,42,140.0
1722,D5,316.0,0.25,43,140.0
1723,B4,316.25,0.25,43,140.0
1724,G#4,316.5,0.25,43,140.0
1725,A3,316.5,0.375,31,140.0
1726,C4,316.5,0.375,31,140.0
1727,E4,316.5,0.375,31,140.0
1728,E5,316.75,0.25,49,140.0
1729,C5,317.0,0.25,41,140.0
1730,F4,317.0,1.0,29,140.0
1731,D4,317.0,1.0,29,140.0
1732,A3,317.0,1.0,29,140.0
1733,A4,317.25,0.375,41,140.0
1734,D5,318.0,0.25,43,140.0
1735,A3,318.0,2.0,27,140.0
1736,E4,318.0,1.0,30,140.0
1737,C4,318.0,1.0,30,140.0
1738,B4,318.25,0.25,43,140.0
1739,G#4,318.5,0.25,43,140.0
1740,E5,318.75,0.25,52,140.0
1741,C5,319.0,0.25,43,140.0
1742,D4,319.0,1.0,28,140.0
1743,F4,319.0,1.0,28,140.0
1744,A4,319.25,0.375,43,140.0
1745,D5,320.0,0.25,39,140.0
1746,A3,320.0,1.0,27,140.0
1747,E4,320.0,0.5,28,140.0
1748,C4,320.0,0.5,28,140.0
1749,B4,320.25,0.25,39,140.0
1750,G#4,320.5,0.25,39,140.0
1751,D4,320.5,0.5,28,140.0
1752,F4,320.5,0.5,28,140.0
1753,E5,320.75,0.25,47,140.0
1754,C5,321.0,0.25,39,140.0
1755,A3,321.0,3.0,33,140.0
1756,E4,321.0,1.0,30,140.0
1757,C4,321.0,1.0,30,140.0
1758,A4,321.25,0.25,38,140.0
1759,D5,321.5,0.25,38,140.0
1760,B4,321.75,0.25,38,140.0
1761,G#4,322.0,0.25,38,140.0
1762,D4,322.0,1.0,26,140.0
1763,F4,322.0,1.0,26,140.0
1764,E5,322.25,0.25,46,140.0
1765,C5,322.5,0.25,41,140.0
1766,A4,322.75,0.25,38,140.0
1767,D5,323.0,0.25,38,140.0
1768,C4,323.0,0.5,26,140.0
1769,E4,323.0,0.5,26,140.0
1770,B4,323.25,0.25,38,140.0
1771,G#4,323.5,0.25,38,140.0
1772,D4,323.5,0.5,26,140.0
1773,F4,323.5,0.5,26,140.0
1774,E5,323.75,0.25,45,140.0
1775,C5,324.0,0.25,38,140.0
1776,E4,324.0,4.0,27,140.0
1777,C4,324.0,4.0,27,140.0
1778,A3,324.0,4.0,27,140.0
1779,A4,324.25,0.25,38,140.0
1780,D5,324.5,0.25,38,140.0
1781,B4,324.75,0.25,38,140.0
1782,G#4,325.0,0.25,37,140.0
1783,E5,325.25,0.25,44,140.0
1784,C5,325.5,0.25,37,140.0
1785,A4,325.75,0.25,37,140.0
1786,D5,326.0,0.25,37,140.0
1787,B4,326.25,0.25,37,140.0
1788,G#4,326.5,0.25,37,140.0
1789,E5,326.75,0.25,41,140.0
1790,C5,327.0,0.25,35,140.0
1791,A4,327.25,0.25,35,140.0
1792,E5,327.5,0.25,35,140.0
1793,C5,327.75,0.25,35,140.0
1794,A4,328.0,0.25,34,140.0
1795,E5,328.25,0.25,42,140.0
1796,C5,328.5,0.25,35,140.0
1797,A4,328.75,0.25,35,140.0
1798,E5,329.0,0.25,35,140.0
1799,C5,329.25,0.25,36,140.0
1800,A4,329.5,0.25,36,140.0
1801,E5,329.75,0.25,41,140.0
1802,C5,330.0,0.25,36,140.0
1803,A4,330.25,0.25,36,140.0
1804,E5,330.5,0.25,36,140.0
1805,C5,330.75,0.25,36,140.0
1806,A4,331.0,0.25,34,140.0
1807,E5,331.25,0.25,39,140.0
1808,C5,331.5,0.25,33,140.0
1809,A4,331.75,0.25,33,140.0
1810,E5,332.0,0.25,33,140.0
1811,C5,332.25,0.25,33,140.0
1812,A4,332.5,0.25,33,140.0
1813,E5,332.75,2.0,38,140.0
1814,C5,334.75,1.0,35,140.0
1815,A4,335.75,3.0,35,140.0
1816,E4,336.0,4.0,27,140.0
1817,C4,336.0,4.0,27,140.0
1818,A3,336.0,4.0,27,140.0
1819,A1,338.0,2.0,28,140.0
1820,A2,338.0,2.0,28,140.0
1821,E4,344.0,4.0,27,140.0
1822,C4,344.0,4.0,27,140.0
1823,A3,344.0,4.0,27,140.0
1824,A1,344.0,4.0,28,140.0
1825,A2,344.0,4.0,28,140.0
