,note_name,start_time,duration,velocity,tempo
0,A1,0.0,1.0,64,158.91
1,A2,0.0,1.0,64,158.91
2,C#3,0.5,0.25,61,158.91
3,E3,0.75,0.25,63,158.91
4,A3,1.0,0.25,67,158.91
5,C#4,1.25,0.25,70,158.91
6,E4,1.5,1.5,70,158.91
7,B3,2.0,0.125,58,158.91
8,E3,2.0,0.125,58,158.91
9,B3,2.5,0.125,58,158.91
10,E3,2.5,0.125,58,158.91
11,E4,3.0,0.5,70,158.91
12,C#4,3.0,1.0,70,158.91
13,A3,3.0,1.0,70,158.91
14,C#4,3.5,0.25,69,158.91
15,E4,3.75,0.25,72,158.91
16,A4,4.0,0.25,75,158.91
17,C#5,4.25,0.25,77,158.91
18,E5,4.5,1.5,85,158.91
19,B4,5.0,0.125,61,158.91
20,E4,5.0,0.125,61,158.91
21,B4,5.5,0.125,57,158.91
22,E4,5.5,0.125,57,158.91
23,E5,6.0,0.5,85,158.91
24,A4,6.0,1.0,64,158.91
25,C#5,6.0,1.0,64,158.91
26,C#5,6.5,0.25,73,158.91
27,E5,6.75,0.25,77,158.91
28,A5,7.0,0.25,80,158.91
29,C#6,7.25,0.25,81,158.91
30,E6,7.5,1.5,87,158.91
31,B5,8.0,0.125,73,158.91
32,E5,8.0,0.125,73,158.91
33,B4,8.0,0.125,61,158.91
34,E4,8.0,0.125,61,158.91
35,B5,8.5,0.125,64,158.91
36,E5,8.5,0.125,64,158.91
37,B4,8.5,0.125,61,158.91
38,E4,8.5,0.125,61,158.91
39,E6,9.0,1.5,81,158.91
40,C#6,9.0,0.5,74,158.91
41,A5,9.0,0.5,74,158.91
42,A4,9.0,0.5,64,158.91
43,C#5,9.0,0.5,64,158.91
44,E5,9.5,0.125,64,158.91
45,B5,9.5,0.125,64,158.91
46,B4,9.5,0.125,59,158.91
47,E4,9.5,0.125,59,158.91
48,E5,10.0,0.125,64,158.91
49,B5,10.0,0.125,64,158.91
50,B4,10.0,0.125,59,158.91
51,E4,10.0,0.125,59,158.91
52,E6,10.5,1.5,76,158.91
53,C#6,10.5,0.5,70,158.91
54,A5,10.5,0.5,70,158.91
55,A4,10.5,0.5,64,158.91
56,C#5,10.5,0.5,64,158.91
57,E5,11.0,0.125,64,158.91
58,B5,11.0,0.125,64,158.91
59,B4,11.0,0.125,59,158.91
60,E4,11.0,0.125,59,158.91
61,E5,11.5,0.125,64,158.91
62,B5,11.5,0.125,64,158.91
63,B4,11.5,0.125,59,158.91
64,E4,11.5,0.125,59,158.91
65,E6,12.0,1.0,77,158.91
66,A5,12.0,1.0,77,158.91
67,A4,12.0,1.0,64,158.91
68,C#5,12.0,1.0,64,158.91
69,A2,13.5,0.75,73,158.91
70,A1,13.5,0.75,73,158.91
71,E4,14.25,9/40,64,158.91
72,A4,14.25,9/40,64,158.91
73,C#3,14.25,9/40,54,158.91
74,A3,14.25,9/40,54,158.91
75,A4,14.5,0.375,62,158.91
76,E4,14.5,0.375,62,158.91
77,A3,14.5,0.375,50,158.91
78,C#3,14.5,0.375,50,158.91
79,E4,15.0,0.5,64,158.91
80,A4,15.0,0.5,64,158.91
81,C#3,15.0,0.5,54,158.91
82,A3,15.0,0.5,54,158.91
83,B4,15.5,0.5,64,158.91
84,G#4,15.5,0.5,64,158.91
85,B3,15.5,0.5,50,158.91
86,E3,15.5,0.5,50,158.91
87,C#5,16.0,0.25,65,158.91
88,A4,16.0,0.25,65,158.91
89,E4,16.0,0.25,65,158.91
90,A3,16.0,0.25,50,158.91
91,C#4,16.0,0.25,50,158.91
92,C#5,16.5,1.0,69,158.91
93,A4,16.5,1.0,69,158.91
94,E4,16.5,1.0,69,158.91
95,A3,16.5,1.0,56,158.91
96,C#4,16.5,1.0,56,158.91
97,C#5,17.5,0.375,60,158.91
98,A4,17.5,0.375,60,158.91
99,A3,17.5,0.375,54,158.91
100,C#4,17.5,0.375,54,158.91
101,A4,18.0,0.5,64,158.91
102,C#5,18.0,0.5,64,158.91
103,A3,18.0,0.5,58,158.91
104,C#4,18.0,0.5,58,158.91
105,D5,18.5,0.5,61,158.91
106,B4,18.5,0.5,61,158.91
107,D4,18.5,0.5,54,158.91
108,B3,18.5,0.5,54,158.91
109,E5,19.0,0.25,57,158.91
110,C#5,19.0,0.25,57,158.91
111,A4,19.0,0.25,57,158.91
112,C#4,19.0,0.25,54,158.91
113,E4,19.0,0.25,54,158.91
114,E5,19.5,0.75,70,158.91
115,C#5,19.5,0.75,70,158.91
116,A4,19.5,0.75,70,158.91
117,E4,19.5,0.75,61,158.91
118,C#4,19.5,0.75,61,158.91
119,D5,20.25,9/40,64,158.91
120,F#5,20.25,9/40,64,158.91
121,D4,20.25,9/40,54,158.91
122,F#4,20.25,9/40,54,158.91
123,D5,20.5,0.375,68,158.91
124,F#5,20.5,0.375,68,158.91
125,F#4,20.5,0.375,57,158.91
126,D4,20.5,0.375,57,158.91
127,A5,21.0,0.75,72,158.91
128,F#5,21.0,0.75,72,158.91
129,A4,21.0,0.75,72,158.91
130,F#4,21.0,0.75,63,158.91
131,D4,21.0,0.75,63,158.91
132,A3,21.0,0.75,63,158.91
133,F#5,21.75,9/40,66,158.91
134,A5,21.75,9/40,66,158.91
135,D4,21.75,9/40,54,158.91
136,F#4,21.75,9/40,54,158.91
137,A5,22.0,0.375,66,158.91
138,F#5,22.0,0.375,66,158.91
139,D4,22.0,0.375,54,158.91
140,F#4,22.0,0.375,54,158.91
141,A4,22.5,0.5,70,158.91
142,F#5,22.5,0.5,70,158.91
143,A5,22.5,0.5,70,158.91
144,F#4,22.5,0.5,62,158.91
145,D4,22.5,0.5,62,158.91
146,G#5,23.0,0.5,61,158.91
147,E5,23.0,0.5,61,158.91
148,E4,23.0,0.5,54,158.91
149,G#4,23.0,0.5,54,158.91
150,F#5,23.5,0.25,61,158.91
151,D5,23.5,0.25,61,158.91
152,D4,23.5,0.25,54,158.91
153,F#4,23.5,0.25,54,158.91
154,F#5,24.0,1.5,68,158.91
155,D5,24.0,1.5,68,158.91
156,A4,24.0,1.5,68,158.91
157,F#4,24.0,1.5,60,158.91
158,D4,24.0,1.5,60,158.91
159,A3,24.0,1.5,60,158.91
160,E5,25.5,0.5,61,158.91
161,C#5,25.5,0.5,61,158.91
162,E4,25.5,0.5,54,158.91
163,C#4,25.5,0.5,54,158.91
164,E4,26.25,9/40,64,158.91
165,A4,26.25,9/40,64,158.91
166,C#3,26.25,9/40,54,158.91
167,A3,26.25,9/40,54,158.91
168,A4,26.5,0.375,62,158.91
169,E4,26.5,0.375,62,158.91
170,A3,26.5,0.375,50,158.91
171,C#3,26.5,0.375,50,158.91
172,E4,27.0,0.5,64,158.91
173,A4,27.0,0.5,64,158.91
174,C#3,27.0,0.5,54,158.91
175,A3,27.0,0.5,54,158.91
176,B4,27.5,0.5,64,158.91
177,G#4,27.5,0.5,64,158.91
178,B3,27.5,0.5,50,158.91
179,E3,27.5,0.5,50,158.91
180,C#5,28.0,0.25,65,158.91
181,A4,28.0,0.25,65,158.91
182,E4,28.0,0.25,65,158.91
183,A3,28.0,0.25,50,158.91
184,C#4,28.0,0.25,50,158.91
185,C#5,28.5,1.0,69,158.91
186,A4,28.5,1.0,69,158.91
187,E4,28.5,1.0,69,158.91
188,A3,28.5,1.0,56,158.91
189,C#4,28.5,1.0,56,158.91
190,C#5,29.5,0.375,60,158.91
191,A4,29.5,0.375,60,158.91
192,A3,29.5,0.375,54,158.91
193,C#4,29.5,0.375,54,158.91
194,A4,30.0,0.5,64,158.91
195,C#5,30.0,0.5,64,158.91
196,A3,30.0,0.5,58,158.91
197,C#4,30.0,0.5,58,158.91
198,D5,30.5,0.5,61,158.91
199,B4,30.5,0.5,61,158.91
200,D4,30.5,0.5,54,158.91
201,B3,30.5,0.5,54,158.91
202,E5,31.0,0.25,57,158.91
203,C#5,31.0,0.25,57,158.91
204,A4,31.0,0.25,57,158.91
205,C#4,31.0,0.25,54,158.91
206,E4,31.0,0.25,54,158.91
207,E5,31.5,0.75,70,158.91
208,C#5,31.5,0.75,70,158.91
209,A4,31.5,0.75,70,158.91
210,E4,31.5,1.0,61,158.91
211,C#4,31.5,1.0,61,158.91
212,C#5,32.25,9/40,48,158.91
213,F#5,32.25,9/40,48,158.91
214,C#5,32.5,0.375,50,158.91
215,F#5,32.5,0.375,50,158.91
216,A5,33.0,0.75,56,158.91
217,C#5,33.0,0.75,56,158.91
218,A2,33.0,0.5,48,158.91
219,A1,33.0,0.5,48,158.91
220,F#3,33.5,479/1000,39,158.91
221,C#4,33.5,479/1000,39,158.91
222,E4,33.5,479/1000,39,158.91
223,C#5,33.75,9/40,50,158.91
224,A5,33.75,9/40,50,158.91
225,A5,34.0,0.375,50,158.91
226,C#5,34.0,0.375,50,158.91
227,F#3,34.0,0.375,39,158.91
228,C#4,34.0,0.375,39,158.91
229,E4,34.0,0.375,39,158.91
230,C#5,34.5,1.5,51,158.91
231,A5,34.5,0.5,60,158.91
232,F#3,34.5,0.5,31,158.91
233,C#4,34.5,0.5,31,158.91
234,E4,34.5,0.5,31,158.91
235,G#5,35.0,0.5,60,158.91
236,F#3,35.0,0.5,31,158.91
237,C#4,35.0,0.5,31,158.91
238,E4,35.0,0.5,31,158.91
239,F#5,35.5,0.5,60,158.91
240,F#3,35.5,0.5,31,158.91
241,C#4,35.5,0.5,31,158.91
242,E4,35.5,0.5,31,158.91
243,C#6,36.0,0.5,60,158.91
244,C#5,36.0,2.25,51,158.91
245,F#3,36.0,3.0,37,158.91
246,C#4,36.0,3.0,37,158.91
247,E4,36.0,3.0,37,158.91
248,A5,36.5,0.5,60,158.91
249,G#5,37.0,0.5,55,158.91
250,F#5,37.5,0.75,55,158.91
251,C#5,38.25,9/40,50,158.91
252,F#5,38.25,9/40,50,158.91
253,F#5,38.5,0.375,50,158.91
254,C#5,38.5,0.375,50,158.91
255,C#5,39.0,3.0,51,158.91
256,A5,39.0,0.75,60,158.91
257,A2,39.0,0.5,48,158.91
258,A1,39.0,0.5,48,158.91
259,F#3,39.5,479/1000,39,158.91
260,C#4,39.5,479/1000,39,158.91
261,E4,39.5,479/1000,39,158.91
262,A5,39.75,9/40,54,158.91
263,A5,40.0,0.375,54,158.91
264,F#3,40.0,0.375,39,158.91
265,C#4,40.0,0.375,39,158.91
266,E4,40.0,0.375,39,158.91
267,A5,40.5,0.5,60,158.91
268,F#3,40.5,0.5,31,158.91
269,C#4,40.5,0.5,31,158.91
270,E4,40.5,0.5,31,158.91
271,G#5,41.0,0.5,60,158.91
272,F#3,41.0,0.5,31,158.91
273,C#4,41.0,0.5,31,158.91
274,E4,41.0,0.5,31,158.91
275,F#5,41.5,0.5,60,158.91
276,F#3,41.5,0.5,31,158.91
277,C#4,41.5,0.5,31,158.91
278,E4,41.5,0.5,31,158.91
279,C#6,42.0,0.5,60,158.91
280,C#5,42.0,2.0,51,158.91
281,F#3,42.0,2.0,37,158.91
282,C#4,42.0,2.0,37,158.91
283,E4,42.0,2.0,37,158.91
284,A5,42.5,0.5,60,158.91
285,G#5,43.0,0.5,55,158.91
286,F#5,43.5,0.5,55,158.91
287,B5,44.0,0.25,76,158.91
288,B4,44.0,0.25,76,158.91
289,F#4,44.0,0.25,72,158.91
290,B3,44.0,0.25,72,158.91
291,B4,44.5,0.25,72,158.91
292,B5,44.5,0.25,72,158.91
293,B3,44.5,0.25,64,158.91
294,F#4,44.5,0.25,64,158.91
295,B4,45.0,1.5,81,158.91
296,B5,45.0,1.5,81,158.91
297,F#4,45.0,0.5,72,158.91
298,B3,45.0,0.5,72,158.91
299,G#3,45.5,0.5,69,158.91
300,E4,45.5,0.5,69,158.91
301,B3,46.0,0.25,66,158.91
302,F#4,46.0,0.25,66,158.91
303,B4,46.5,1.5,78,158.91
304,B5,46.5,1.5,78,158.91
305,G#4,46.5,0.5,72,158.91
306,E4,46.5,0.5,72,158.91
307,B4,47.0,0.5,68,158.91
308,G#4,47.0,0.5,68,158.91
309,B3,47.5,0.25,68,158.91
310,F#4,47.5,0.25,68,158.91
311,B4,48.0,0.75,86,158.91
312,B5,48.0,2.0,86,158.91
313,F#4,48.0,2.0,78,158.91
314,B3,48.0,2.0,78,158.91
315,B4,48.75,9/40,71,158.91
316,B4,49.0,0.25,71,158.91
317,B4,49.5,0.5,85,158.91
318,E5,50.0,0.25,54,158.91
319,B4,50.0,0.25,54,158.91
320,B4,50.5,0.25,49,158.91
321,E5,50.5,0.25,49,158.91
322,E5,51.0,0.5,57,158.91
323,B4,51.0,0.5,57,158.91
324,G#1,51.0,0.5,45,158.91
325,G#2,51.0,0.5,45,158.91
326,E-5,51.5,0.5,49,158.91
327,F#5,51.5,0.5,49,158.91
328,E3,51.5,0.25,32,158.91
329,G#3,51.5,0.25,32,158.91
330,E4,51.5,0.25,32,158.91
331,B3,51.5,0.25,32,158.91
332,G#5,52.0,0.25,45,158.91
333,E5,52.0,0.25,45,158.91
334,E3,52.0,0.25,32,158.91
335,G#3,52.0,0.25,32,158.91
336,B3,52.0,0.25,32,158.91
337,E4,52.0,0.25,32,158.91
338,G#5,52.5,1.0,49,158.91
339,E5,52.5,1.0,49,158.91
340,E3,52.5,1.0,32,158.91
341,G#3,52.5,1.0,32,158.91
342,B3,52.5,1.0,32,158.91
343,E4,52.5,1.0,32,158.91
344,G#5,53.5,0.25,50,158.91
345,E5,53.5,0.25,50,158.91
346,G#5,54.0,0.5,72,158.91
347,E5,54.0,0.5,72,158.91
348,A1,54.0,0.5,45,158.91
349,A2,54.0,0.5,45,158.91
350,C#6,54.5,0.5,68,158.91
351,E3,54.5,0.25,39,158.91
352,G#3,54.5,0.25,39,158.91
353,E4,54.5,0.25,39,158.91
354,C#4,54.5,0.25,39,158.91
355,E6,55.0,0.25,71,158.91
356,E3,55.0,0.25,39,158.91
357,G#3,55.0,0.25,39,158.91
358,C#4,55.0,0.25,39,158.91
359,E4,55.0,0.25,39,158.91
360,E6,55.5,0.75,79,158.91
361,E3,55.5,1.0,39,158.91
362,G#3,55.5,1.0,39,158.91
363,C#4,55.5,1.0,39,158.91
364,E4,55.5,1.0,39,158.91
365,E5,56.25,9/40,66,158.91
366,C#5,56.25,9/40,66,158.91
367,E5,56.5,0.25,69,158.91
368,C#5,56.5,0.25,69,158.91
369,E5,57.0,0.5,75,158.91
370,B4,57.0,0.5,75,158.91
371,B1,57.0,0.5,58,158.91
372,B2,57.0,0.5,58,158.91
373,E-5,57.5,0.5,64,158.91
374,F#5,57.5,0.5,64,158.91
375,E3,57.5,0.25,41,158.91
376,G#3,57.5,0.25,41,158.91
377,E4,57.5,0.25,41,158.91
378,B3,57.5,0.25,41,158.91
379,G#5,58.0,0.25,60,158.91
380,E5,58.0,0.25,60,158.91
381,E3,58.0,0.25,42,158.91
382,G#3,58.0,0.25,42,158.91
383,B3,58.0,0.25,42,158.91
384,E4,58.0,0.25,42,158.91
385,G#5,58.5,1.0,66,158.91
386,E5,58.5,1.0,66,158.91
387,E3,58.5,1.0,42,158.91
388,G#3,58.5,1.0,42,158.91
389,B3,58.5,1.0,42,158.91
390,E4,58.5,1.0,42,158.91
391,G#5,59.5,0.25,70,158.91
392,E5,59.5,0.25,70,158.91
393,G#5,60.0,0.5,89,158.91
394,E5,60.0,0.5,89,158.91
395,C#2,60.0,0.5,56,158.91
396,C#3,60.0,0.5,56,158.91
397,C#6,60.5,0.5,85,158.91
398,E3,60.5,0.25,48,158.91
399,G#3,60.5,0.25,48,158.91
400,E4,60.5,0.25,48,158.91
401,C#4,60.5,0.25,48,158.91
402,E6,61.0,0.25,91,158.91
403,E3,61.0,0.25,50,158.91
404,G#3,61.0,0.25,50,158.91
405,C#4,61.0,0.25,50,158.91
406,E4,61.0,0.25,50,158.91
407,E6,61.5,0.75,102,158.91
408,E3,61.5,1.0,50,158.91
409,G#3,61.5,1.0,50,158.91
410,C#4,61.5,1.0,50,158.91
411,E4,61.5,1.0,50,158.91
412,E5,62.25,9/40,76,158.91
413,C#5,62.25,9/40,76,158.91
414,E5,62.5,0.25,80,158.91
415,C#5,62.5,0.25,80,158.91
416,E5,63.0,0.75,76,158.91
417,B4,63.0,0.75,76,158.91
418,D2,63.0,0.5,61,158.91
419,D3,63.0,0.5,61,158.91
420,E3,63.5,0.25,43,158.91
421,G#3,63.5,0.25,43,158.91
422,E4,63.5,0.25,43,158.91
423,B3,63.5,0.25,43,158.91
424,F#5,63.75,0.25,88,158.91
425,G#5,64.0,0.25,81,158.91
426,E3,64.0,0.25,43,158.91
427,G#3,64.0,0.25,43,158.91
428,B3,64.0,0.25,43,158.91
429,E4,64.0,0.25,43,158.91
430,G#5,64.5,0.5,90,158.91
431,E5,64.5,0.5,90,158.91
432,E3,64.5,1.0,44,158.91
433,G#3,64.5,1.0,44,158.91
434,B3,64.5,1.0,44,158.91
435,E4,64.5,1.0,44,158.91
436,B5,65.0,0.5,85,158.91
437,E6,65.5,0.25,90,158.91
438,A5,66.0,2.0,101,158.91
439,E5,66.0,2.0,101,158.91
440,E6,66.0,2.0,101,158.91
441,C#2,66.0,0.5,66,158.91
442,C#3,66.0,0.5,66,158.91
443,E3,66.5,0.25,56,158.91
444,A3,66.5,0.25,56,158.91
445,E4,66.5,0.25,56,158.91
446,C#4,66.5,0.25,56,158.91
447,E3,67.0,0.25,56,158.91
448,A3,67.0,0.25,56,158.91
449,C#4,67.0,0.25,56,158.91
450,E4,67.0,0.25,56,158.91
451,E3,67.5,1.0,56,158.91
452,A3,67.5,1.0,56,158.91
453,C#4,67.5,1.0,56,158.91
454,E4,67.5,1.0,56,158.91
455,E-6,68.0,0.25,78,158.91
456,C#6,68.5,0.25,72,158.91
457,B5,69.0,0.25,80,158.91
458,E-2,69.0,0.25,50,158.91
459,E-3,69.0,0.25,50,158.91
460,A5,69.5,0.25,68,158.91
461,E-3,69.5,0.25,43,158.91
462,F#3,69.5,0.25,43,158.91
463,B3,69.5,0.25,43,158.91
464,A3,69.5,0.25,43,158.91
465,G#5,70.0,0.25,61,158.91
466,E-3,70.0,0.25,43,158.91
467,F#3,70.0,0.25,43,158.91
468,A3,70.0,0.25,43,158.91
469,B3,70.0,0.25,43,158.91
470,A5,70.5,0.25,72,158.91
471,E-3,70.5,0.5,43,158.91
472,F#3,70.5,0.5,43,158.91
473,A3,70.5,0.5,43,158.91
474,B3,70.5,0.5,43,158.91
475,F#5,71.0,0.25,62,158.91
476,E-5,71.5,0.25,62,158.91
477,B6,72.0,2.0,74,158.91
478,B5,72.0,2.0,74,158.91
479,E3,72.0,0.25,48,158.91
480,B2,72.0,0.25,48,158.91
481,G#2,72.0,0.25,48,158.91
482,G#3,72.0,0.25,48,158.91
483,G#2,72.5,0.25,43,158.91
484,B2,72.5,0.25,43,158.91
485,G#3,72.5,0.25,43,158.91
486,E3,72.5,0.25,43,158.91
487,G#2,73.0,0.25,43,158.91
488,B2,73.0,0.25,43,158.91
489,E3,73.0,0.25,43,158.91
490,G#3,73.0,0.25,43,158.91
491,G#2,73.5,0.5,43,158.91
492,B2,73.5,0.5,43,158.91
493,E3,73.5,0.5,43,158.91
494,G#3,73.5,0.5,43,158.91
495,A5,74.0,0.25,64,158.91
496,A6,74.0,0.25,64,158.91
497,G#5,74.5,0.25,64,158.91
498,G#6,74.5,0.25,64,158.91
499,F#6,75.0,0.25,73,158.91
500,F#5,75.0,0.25,73,158.91
501,E3,75.0,0.25,41,158.91
502,B-2,75.0,0.25,41,158.91
503,F#3,75.0,0.25,41,158.91
504,E5,75.5,0.25,64,158.91
505,E6,75.5,0.25,64,158.91
506,B-2,75.5,0.25,37,158.91
507,F#3,75.5,0.25,37,158.91
508,E3,75.5,0.25,37,158.91
509,E-5,76.0,0.25,64,158.91
510,E-6,76.0,0.25,64,158.91
511,B-2,76.0,0.25,37,158.91
512,E3,76.0,0.25,37,158.91
513,F#3,76.0,0.25,37,158.91
514,C#6,76.5,0.25,70,158.91
515,C#5,76.5,0.25,70,158.91
516,E3,76.5,0.25,41,158.91
517,B-2,76.5,0.25,41,158.91
518,F#3,76.5,0.25,41,158.91
519,B4,77.0,0.25,64,158.91
520,B5,77.0,0.25,64,158.91
521,B-2,77.0,0.25,37,158.91
522,F#3,77.0,0.25,37,158.91
523,E3,77.0,0.25,37,158.91
524,B-4,77.5,0.25,64,158.91
525,B-5,77.5,0.25,64,158.91
526,B-2,77.5,0.25,37,158.91
527,E3,77.5,0.25,37,158.91
528,F#3,77.5,0.25,37,158.91
529,G#5,78.0,0.25,72,158.91
530,G#4,78.0,0.25,72,158.91
531,E3,78.0,0.25,41,158.91
532,B-2,78.0,0.25,41,158.91
533,F#3,78.0,0.25,41,158.91
534,F#5,78.5,0.25,59,158.91
535,F#4,78.5,0.25,59,158.91
536,B-2,78.5,0.25,36,158.91
537,F#3,78.5,0.25,36,158.91
538,E3,78.5,0.25,36,158.91
539,E5,79.0,0.25,59,158.91
540,E4,79.0,0.25,59,158.91
541,B-2,79.0,0.25,35,158.91
542,E3,79.0,0.25,35,158.91
543,F#3,79.0,0.25,35,158.91
544,E-5,79.5,0.25,64,158.91
545,E-4,79.5,0.25,64,158.91
546,E3,79.5,0.25,39,158.91
547,B-2,79.5,0.25,39,158.91
548,F#3,79.5,0.25,39,158.91
549,E5,80.0,0.25,56,158.91
550,E4,80.0,0.25,56,158.91
551,B-2,80.0,0.25,34,158.91
552,F#3,80.0,0.25,34,158.91
553,E3,80.0,0.25,34,158.91
554,C#5,80.5,0.25,56,158.91
555,C#4,80.5,0.25,56,158.91
556,B-2,80.5,0.25,33,158.91
557,E3,80.5,0.25,33,158.91
558,F#3,80.5,0.25,33,158.91
559,B4,81.0,0.25,64,158.91
560,B3,81.0,0.25,64,158.91
561,B2,81.0,0.25,37,158.91
562,G#3,81.0,0.25,37,158.91
563,E3,81.0,0.25,37,158.91
564,E5,81.5,0.25,49,158.91
565,E4,81.5,0.25,49,158.91
566,B2,81.5,0.25,31,158.91
567,G#3,81.5,0.25,31,158.91
568,E3,81.5,0.25,31,158.91
569,G#4,82.0,0.25,49,158.91
570,E4,82.0,0.25,49,158.91
571,B2,82.0,0.25,31,158.91
572,G#3,82.0,0.25,31,158.91
573,E3,82.0,0.25,31,158.91
574,B4,82.5,0.25,57,158.91
575,E-4,82.5,0.25,57,158.91
576,B2,82.5,0.25,35,158.91
577,F#3,82.5,0.25,35,158.91
578,A3,82.5,0.25,35,158.91
579,A4,83.0,0.25,42,158.91
580,E-4,83.0,0.25,42,158.91
581,B2,83.0,0.25,30,158.91
582,F#3,83.0,0.25,30,158.91
583,A3,83.0,0.25,30,158.91
584,F#4,83.5,0.25,42,158.91
585,E-4,83.5,0.25,42,158.91
586,B2,83.5,0.25,29,158.91
587,F#3,83.5,0.25,29,158.91
588,A3,83.5,0.25,29,158.91
589,E4,84.0,0.5,57,158.91
590,E3,84.0,0.5,33,158.91
591,G#3,84.0,0.5,33,158.91
592,A2,85.5,0.75,73,158.91
593,A1,85.5,0.75,73,158.91
594,E4,86.25,9/40,64,158.91
595,A4,86.25,9/40,64,158.91
596,C#3,86.25,9/40,54,158.91
597,A3,86.25,9/40,54,158.91
598,A4,86.5,0.375,62,158.91
599,E4,86.5,0.375,62,158.91
600,A3,86.5,0.375,50,158.91
601,C#3,86.5,0.375,50,158.91
602,E4,87.0,0.5,64,158.91
603,A4,87.0,0.5,64,158.91
604,C#3,87.0,0.5,54,158.91
605,A3,87.0,0.5,54,158.91
606,B4,87.5,0.5,64,158.91
607,G#4,87.5,0.5,64,158.91
608,B3,87.5,0.5,50,158.91
609,E3,87.5,0.5,50,158.91
610,C#5,88.0,0.25,65,158.91
611,A4,88.0,0.25,65,158.91
612,E4,88.0,0.25,65,158.91
613,A3,88.0,0.25,50,158.91
614,C#4,88.0,0.25,50,158.91
615,C#5,88.5,1.0,69,158.91
616,A4,88.5,1.0,69,158.91
617,E4,88.5,1.0,69,158.91
618,A3,88.5,1.0,56,158.91
619,C#4,88.5,1.0,56,158.91
620,C#5,89.5,0.375,60,158.91
621,A4,89.5,0.375,60,158.91
622,A3,89.5,0.375,54,158.91
623,C#4,89.5,0.375,54,158.91
624,A4,90.0,0.5,64,158.91
625,C#5,90.0,0.5,64,158.91
626,A3,90.0,0.5,58,158.91
627,C#4,90.0,0.5,58,158.91
628,D5,90.5,0.5,61,158.91
629,B4,90.5,0.5,61,158.91
630,D4,90.5,0.5,54,158.91
631,B3,90.5,0.5,54,158.91
632,E5,91.0,0.25,57,158.91
633,C#5,91.0,0.25,57,158.91
634,A4,91.0,0.25,57,158.91
635,C#4,91.0,0.25,54,158.91
636,E4,91.0,0.25,54,158.91
637,E5,91.5,0.75,70,158.91
638,C#5,91.5,0.75,70,158.91
639,A4,91.5,0.75,70,158.91
640,E4,91.5,0.75,61,158.91
641,C#4,91.5,0.75,61,158.91
642,D5,92.25,9/40,64,158.91
643,F#5,92.25,9/40,64,158.91
644,D4,92.25,9/40,54,158.91
645,F#4,92.25,9/40,54,158.91
646,D5,92.5,0.375,68,158.91
647,F#5,92.5,0.375,68,158.91
648,F#4,92.5,0.375,57,158.91
649,D4,92.5,0.375,57,158.91
650,A5,93.0,0.75,72,158.91
651,F#5,93.0,0.75,72,158.91
652,A4,93.0,0.75,72,158.91
653,F#4,93.0,0.75,63,158.91
654,D4,93.0,0.75,63,158.91
655,A3,93.0,0.75,63,158.91
656,F#5,93.75,9/40,66,158.91
657,A5,93.75,9/40,66,158.91
658,D4,93.75,9/40,54,158.91
659,F#4,93.75,9/40,54,158.91
660,A5,94.0,0.375,66,158.91
661,F#5,94.0,0.375,66,158.91
662,D4,94.0,0.375,54,158.91
663,F#4,94.0,0.375,54,158.91
664,A4,94.5,0.5,70,158.91
665,F#5,94.5,0.5,70,158.91
666,A5,94.5,0.5,70,158.91
667,F#4,94.5,0.5,62,158.91
668,D4,94.5,0.5,62,158.91
669,G#5,95.0,0.5,61,158.91
670,E5,95.0,0.5,61,158.91
671,E4,95.0,0.5,54,158.91
672,G#4,95.0,0.5,54,158.91
673,F#5,95.5,0.25,61,158.91
674,D5,95.5,0.25,61,158.91
675,D4,95.5,0.25,54,158.91
676,F#4,95.5,0.25,54,158.91
677,F#5,96.0,1.5,68,158.91
678,D5,96.0,1.5,68,158.91
679,A4,96.0,1.5,68,158.91
680,F#4,96.0,1.5,60,158.91
681,D4,96.0,1.5,60,158.91
682,A3,96.0,1.5,60,158.91
683,E5,97.5,0.5,61,158.91
684,C#5,97.5,0.5,61,158.91
685,E4,97.5,0.5,54,158.91
686,C#4,97.5,0.5,54,158.91
687,E4,98.25,9/40,64,158.91
688,A4,98.25,9/40,64,158.91
689,C#3,98.25,9/40,54,158.91
690,A3,98.25,9/40,54,158.91
691,A4,98.5,0.375,62,158.91
692,E4,98.5,0.375,62,158.91
693,A3,98.5,0.375,50,158.91
694,C#3,98.5,0.375,50,158.91
695,E4,99.0,0.5,64,158.91
696,A4,99.0,0.5,64,158.91
697,C#3,99.0,0.5,54,158.91
698,A3,99.0,0.5,54,158.91
699,B4,99.5,0.5,64,158.91
700,G#4,99.5,0.5,64,158.91
701,B3,99.5,0.5,50,158.91
702,E3,99.5,0.5,50,158.91
703,C#5,100.0,0.25,65,158.91
704,A4,100.0,0.25,65,158.91
705,E4,100.0,0.25,65,158.91
706,A3,100.0,0.25,50,158.91
707,C#4,100.0,0.25,50,158.91
708,C#5,100.5,1.0,69,158.91
709,A4,100.5,1.0,69,158.91
710,E4,100.5,1.0,69,158.91
711,A3,100.5,1.0,56,158.91
712,C#4,100.5,1.0,56,158.91
713,C#5,101.5,0.375,60,158.91
714,A4,101.5,0.375,60,158.91
715,A3,101.5,0.375,54,158.91
716,C#4,101.5,0.375,54,158.91
717,A4,102.0,0.5,64,158.91
718,C#5,102.0,0.5,64,158.91
719,A3,102.0,0.5,58,158.91
720,C#4,102.0,0.5,58,158.91
721,D5,102.5,0.5,61,158.91
722,B4,102.5,0.5,61,158.91
723,D4,102.5,0.5,54,158.91
724,B3,102.5,0.5,54,158.91
725,E5,103.0,0.25,57,158.91
726,C#5,103.0,0.25,57,158.91
727,A4,103.0,0.25,57,158.91
728,C#4,103.0,0.25,54,158.91
729,E4,103.0,0.25,54,158.91
730,E5,103.5,0.75,70,158.91
731,C#5,103.5,0.75,70,158.91
732,A4,103.5,0.75,70,158.91
733,E4,103.5,1.0,61,158.91
734,C#4,103.5,1.0,61,158.91
735,C#5,104.25,9/40,48,158.91
736,F#5,104.25,9/40,48,158.91
737,C#5,104.5,0.375,50,158.91
738,F#5,104.5,0.375,50,158.91
739,A5,105.0,0.75,56,158.91
740,C#5,105.0,0.75,56,158.91
741,A2,105.0,0.5,48,158.91
742,A1,105.0,0.5,48,158.91
743,F#3,105.5,479/1000,39,158.91
744,C#4,105.5,479/1000,39,158.91
745,E4,105.5,479/1000,39,158.91
746,C#5,105.75,9/40,50,158.91
747,A5,105.75,9/40,50,158.91
748,A5,106.0,0.375,50,158.91
749,C#5,106.0,0.375,50,158.91
750,F#3,106.0,0.375,39,158.91
751,C#4,106.0,0.375,39,158.91
752,E4,106.0,0.375,39,158.91
753,C#5,106.5,1.5,51,158.91
754,A5,106.5,0.5,60,158.91
755,F#3,106.5,0.5,31,158.91
756,C#4,106.5,0.5,31,158.91
757,E4,106.5,0.5,31,158.91
758,G#5,107.0,0.5,60,158.91
759,F#3,107.0,0.5,31,158.91
760,C#4,107.0,0.5,31,158.91
761,E4,107.0,0.5,31,158.91
762,F#5,107.5,0.5,60,158.91
763,F#3,107.5,0.5,31,158.91
764,C#4,107.5,0.5,31,158.91
765,E4,107.5,0.5,31,158.91
766,C#6,108.0,0.5,60,158.91
767,C#5,108.0,2.25,51,158.91
768,F#3,108.0,3.0,37,158.91
769,C#4,108.0,3.0,37,158.91
770,E4,108.0,3.0,37,158.91
771,A5,108.5,0.5,60,158.91
772,G#5,109.0,0.5,55,158.91
773,F#5,109.5,0.75,55,158.91
774,C#5,110.25,9/40,50,158.91
775,F#5,110.25,9/40,50,158.91
776,F#5,110.5,0.375,50,158.91
777,C#5,110.5,0.375,50,158.91
778,C#5,111.0,3.0,51,158.91
779,A5,111.0,0.75,60,158.91
780,A2,111.0,0.5,48,158.91
781,A1,111.0,0.5,48,158.91
782,F#3,111.5,479/1000,39,158.91
783,C#4,111.5,479/1000,39,158.91
784,E4,111.5,479/1000,39,158.91
785,A5,111.75,9/40,54,158.91
786,A5,112.0,0.375,54,158.91
787,F#3,112.0,0.375,39,158.91
788,C#4,112.0,0.375,39,158.91
789,E4,112.0,0.375,39,158.91
790,A5,112.5,0.5,60,158.91
791,F#3,112.5,0.5,31,158.91
792,C#4,112.5,0.5,31,158.91
793,E4,112.5,0.5,31,158.91
794,G#5,113.0,0.5,60,158.91
795,F#3,113.0,0.5,31,158.91
796,C#4,113.0,0.5,31,158.91
797,E4,113.0,0.5,31,158.91
798,F#5,113.5,0.5,60,158.91
799,F#3,113.5,0.5,31,158.91
800,C#4,113.5,0.5,31,158.91
801,E4,113.5,0.5,31,158.91
802,C#6,114.0,0.5,60,158.91
803,C#5,114.0,2.0,51,158.91
804,F#3,114.0,2.0,37,158.91
805,C#4,114.0,2.0,37,158.91
806,E4,114.0,2.0,37,158.91
807,A5,114.5,0.5,60,158.91
808,G#5,115.0,0.5,55,158.91
809,F#5,115.5,0.5,55,158.91
810,B5,116.0,0.25,76,158.91
811,B4,116.0,0.25,76,158.91
812,F#4,116.0,0.25,72,158.91
813,B3,116.0,0.25,72,158.91
814,B4,116.5,0.25,72,158.91
815,B5,116.5,0.25,72,158.91
816,B3,116.5,0.25,64,158.91
817,F#4,116.5,0.25,64,158.91
818,B4,117.0,1.5,81,158.91
819,B5,117.0,1.5,81,158.91
820,F#4,117.0,0.5,72,158.91
821,B3,117.0,0.5,72,158.91
822,G#3,117.5,0.5,69,158.91
823,E4,117.5,0.5,69,158.91
824,B3,118.0,0.25,66,158.91
825,F#4,118.0,0.25,66,158.91
826,B4,118.5,1.5,78,158.91
827,B5,118.5,1.5,78,158.91
828,G#4,118.5,0.5,72,158.91
829,E4,118.5,0.5,72,158.91
830,B4,119.0,0.5,68,158.91
831,G#4,119.0,0.5,68,158.91
832,B3,119.5,0.25,68,158.91
833,F#4,119.5,0.25,68,158.91
834,B4,120.0,0.75,86,158.91
835,B5,120.0,2.0,86,158.91
836,F#4,120.0,2.0,78,158.91
837,B3,120.0,2.0,78,158.91
838,B4,120.75,9/40,71,158.91
839,B4,121.0,0.25,71,158.91
840,B4,121.5,0.5,85,158.91
841,E5,122.0,0.25,54,158.91
842,B4,122.0,0.25,54,158.91
843,B4,122.5,0.25,49,158.91
844,E5,122.5,0.25,49,158.91
845,E5,123.0,0.5,57,158.91
846,B4,123.0,0.5,57,158.91
847,G#1,123.0,0.5,45,158.91
848,G#2,123.0,0.5,45,158.91
849,E-5,123.5,0.5,49,158.91
850,F#5,123.5,0.5,49,158.91
851,E3,123.5,0.25,32,158.91
852,G#3,123.5,0.25,32,158.91
853,E4,123.5,0.25,32,158.91
854,B3,123.5,0.25,32,158.91
855,G#5,124.0,0.25,45,158.91
856,E5,124.0,0.25,45,158.91
857,E3,124.0,0.25,32,158.91
858,G#3,124.0,0.25,32,158.91
859,B3,124.0,0.25,32,158.91
860,E4,124.0,0.25,32,158.91
861,G#5,124.5,1.0,49,158.91
862,E5,124.5,1.0,49,158.91
863,E3,124.5,1.0,32,158.91
864,G#3,124.5,1.0,32,158.91
865,B3,124.5,1.0,32,158.91
866,E4,124.5,1.0,32,158.91
867,G#5,125.5,0.25,50,158.91
868,E5,125.5,0.25,50,158.91
869,G#5,126.0,0.5,72,158.91
870,E5,126.0,0.5,72,158.91
871,A1,126.0,0.5,45,158.91
872,A2,126.0,0.5,45,158.91
873,C#6,126.5,0.5,68,158.91
874,E3,126.5,0.25,39,158.91
875,G#3,126.5,0.25,39,158.91
876,E4,126.5,0.25,39,158.91
877,C#4,126.5,0.25,39,158.91
878,E6,127.0,0.25,71,158.91
879,E3,127.0,0.25,39,158.91
880,G#3,127.0,0.25,39,158.91
881,C#4,127.0,0.25,39,158.91
882,E4,127.0,0.25,39,158.91
883,E6,127.5,0.75,79,158.91
884,E3,127.5,1.0,39,158.91
885,G#3,127.5,1.0,39,158.91
886,C#4,127.5,1.0,39,158.91
887,E4,127.5,1.0,39,158.91
888,E5,128.25,9/40,66,158.91
889,C#5,128.25,9/40,66,158.91
890,E5,128.5,0.25,69,158.91
891,C#5,128.5,0.25,69,158.91
892,E5,129.0,0.5,75,158.91
893,B4,129.0,0.5,75,158.91
894,B1,129.0,0.5,58,158.91
895,B2,129.0,0.5,58,158.91
896,E-5,129.5,0.5,64,158.91
897,F#5,129.5,0.5,64,158.91
898,E3,129.5,0.25,41,158.91
899,G#3,129.5,0.25,41,158.91
900,E4,129.5,0.25,41,158.91
901,B3,129.5,0.25,41,158.91
902,G#5,130.0,0.25,60,158.91
903,E5,130.0,0.25,60,158.91
904,E3,130.0,0.25,42,158.91
905,G#3,130.0,0.25,42,158.91
906,B3,130.0,0.25,42,158.91
907,E4,130.0,0.25,42,158.91
908,G#5,130.5,1.0,66,158.91
909,E5,130.5,1.0,66,158.91
910,E3,130.5,1.0,42,158.91
911,G#3,130.5,1.0,42,158.91
912,B3,130.5,1.0,42,158.91
913,E4,130.5,1.0,42,158.91
914,G#5,131.5,0.25,70,158.91
915,E5,131.5,0.25,70,158.91
916,G#5,132.0,0.5,89,158.91
917,E5,132.0,0.5,89,158.91
918,C#2,132.0,0.5,56,158.91
919,C#3,132.0,0.5,56,158.91
920,C#6,132.5,0.5,85,158.91
921,E3,132.5,0.25,48,158.91
922,G#3,132.5,0.25,48,158.91
923,E4,132.5,0.25,48,158.91
924,C#4,132.5,0.25,48,158.91
925,E6,133.0,0.25,91,158.91
926,E3,133.0,0.25,50,158.91
927,G#3,133.0,0.25,50,158.91
928,C#4,133.0,0.25,50,158.91
929,E4,133.0,0.25,50,158.91
930,E6,133.5,0.75,102,158.91
931,E3,133.5,1.0,50,158.91
932,G#3,133.5,1.0,50,158.91
933,C#4,133.5,1.0,50,158.91
934,E4,133.5,1.0,50,158.91
935,E5,134.25,9/40,76,158.91
936,C#5,134.25,9/40,76,158.91
937,E5,134.5,0.25,80,158.91
938,C#5,134.5,0.25,80,158.91
939,E5,135.0,0.75,76,158.91
940,B4,135.0,0.75,76,158.91
941,D2,135.0,0.5,61,158.91
942,D3,135.0,0.5,61,158.91
943,E3,135.5,0.25,43,158.91
944,G#3,135.5,0.25,43,158.91
945,E4,135.5,0.25,43,158.91
946,B3,135.5,0.25,43,158.91
947,F#5,135.75,0.25,88,158.91
948,G#5,136.0,0.25,81,158.91
949,E3,136.0,0.25,43,158.91
950,G#3,136.0,0.25,43,158.91
951,B3,136.0,0.25,43,158.91
952,E4,136.0,0.25,43,158.91
953,G#5,136.5,0.5,90,158.91
954,E5,136.5,0.5,90,158.91
955,E3,136.5,1.0,44,158.91
956,G#3,136.5,1.0,44,158.91
957,B3,136.5,1.0,44,158.91
958,E4,136.5,1.0,44,158.91
959,B5,137.0,0.5,85,158.91
960,E6,137.5,0.25,90,158.91
961,A5,138.0,2.0,101,158.91
962,E5,138.0,2.0,101,158.91
963,E6,138.0,2.0,101,158.91
964,C#2,138.0,0.5,66,158.91
965,C#3,138.0,0.5,66,158.91
966,E3,138.5,0.25,56,158.91
967,A3,138.5,0.25,56,158.91
968,E4,138.5,0.25,56,158.91
969,C#4,138.5,0.25,56,158.91
970,E3,139.0,0.25,56,158.91
971,A3,139.0,0.25,56,158.91
972,C#4,139.0,0.25,56,158.91
973,E4,139.0,0.25,56,158.91
974,E3,139.5,1.0,56,158.91
975,A3,139.5,1.0,56,158.91
976,C#4,139.5,1.0,56,158.91
977,E4,139.5,1.0,56,158.91
978,E-6,140.0,0.25,78,158.91
979,C#6,140.5,0.25,72,158.91
980,B5,141.0,0.25,80,158.91
981,E-2,141.0,0.25,50,158.91
982,E-3,141.0,0.25,50,158.91
983,A5,141.5,0.25,68,158.91
984,E-3,141.5,0.25,43,158.91
985,F#3,141.5,0.25,43,158.91
986,B3,141.5,0.25,43,158.91
987,A3,141.5,0.25,43,158.91
988,G#5,142.0,0.25,61,158.91
989,E-3,142.0,0.25,43,158.91
990,F#3,142.0,0.25,43,158.91
991,A3,142.0,0.25,43,158.91
992,B3,142.0,0.25,43,158.91
993,A5,142.5,0.25,72,158.91
994,E-3,142.5,0.5,43,158.91
995,F#3,142.5,0.5,43,158.91
996,A3,142.5,0.5,43,158.91
997,B3,142.5,0.5,43,158.91
998,F#5,143.0,0.25,62,158.91
999,E-5,143.5,0.25,62,158.91
1000,B6,144.0,2.0,74,158.91
1001,B5,144.0,2.0,74,158.91
1002,E3,144.0,0.25,48,158.91
1003,B2,144.0,0.25,48,158.91
1004,G#2,144.0,0.25,48,158.91
1005,G#3,144.0,0.25,48,158.91
1006,G#2,144.5,0.25,43,158.91
1007,B2,144.5,0.25,43,158.91
1008,G#3,144.5,0.25,43,158.91
1009,E3,144.5,0.25,43,158.91
1010,G#2,145.0,0.25,43,158.91
1011,B2,145.0,0.25,43,158.91
1012,E3,145.0,0.25,43,158.91
1013,G#3,145.0,0.25,43,158.91
1014,G#2,145.5,0.5,43,158.91
1015,B2,145.5,0.5,43,158.91
1016,E3,145.5,0.5,43,158.91
1017,G#3,145.5,0.5,43,158.91
1018,A5,146.0,0.25,64,158.91
1019,A6,146.0,0.25,64,158.91
1020,G#5,146.5,0.25,64,158.91
1021,G#6,146.5,0.25,64,158.91
1022,F#6,147.0,0.25,73,158.91
1023,F#5,147.0,0.25,73,158.91
1024,E3,147.0,0.25,41,158.91
1025,B-2,147.0,0.25,41,158.91
1026,F#3,147.0,0.25,41,158.91
1027,E5,147.5,0.25,64,158.91
1028,E6,147.5,0.25,64,158.91
1029,B-2,147.5,0.25,37,158.91
1030,F#3,147.5,0.25,37,158.91
1031,E3,147.5,0.25,37,158.91
1032,E-5,148.0,0.25,64,158.91
1033,E-6,148.0,0.25,64,158.91
1034,B-2,148.0,0.25,37,158.91
1035,E3,148.0,0.25,37,158.91
1036,F#3,148.0,0.25,37,158.91
1037,C#6,148.5,0.25,70,158.91
1038,C#5,148.5,0.25,70,158.91
1039,E3,148.5,0.25,41,158.91
1040,B-2,148.5,0.25,41,158.91
1041,F#3,148.5,0.25,41,158.91
1042,B4,149.0,0.25,64,158.91
1043,B5,149.0,0.25,64,158.91
1044,B-2,149.0,0.25,37,158.91
1045,F#3,149.0,0.25,37,158.91
1046,E3,149.0,0.25,37,158.91
1047,B-4,149.5,0.25,64,158.91
1048,B-5,149.5,0.25,64,158.91
1049,B-2,149.5,0.25,37,158.91
1050,E3,149.5,0.25,37,158.91
1051,F#3,149.5,0.25,37,158.91
1052,G#5,150.0,0.25,72,158.91
1053,G#4,150.0,0.25,72,158.91
1054,E3,150.0,0.25,41,158.91
1055,B-2,150.0,0.25,41,158.91
1056,F#3,150.0,0.25,41,158.91
1057,F#5,150.5,0.25,59,158.91
1058,F#4,150.5,0.25,59,158.91
1059,B-2,150.5,0.25,36,158.91
1060,F#3,150.5,0.25,36,158.91
1061,E3,150.5,0.25,36,158.91
1062,E5,151.0,0.25,59,158.91
1063,E4,151.0,0.25,59,158.91
1064,B-2,151.0,0.25,35,158.91
1065,E3,151.0,0.25,35,158.91
1066,F#3,151.0,0.25,35,158.91
1067,E-5,151.5,0.25,64,158.91
1068,E-4,151.5,0.25,64,158.91
1069,E3,151.5,0.25,39,158.91
1070,B-2,151.5,0.25,39,158.91
1071,F#3,151.5,0.25,39,158.91
1072,E5,152.0,0.25,56,158.91
1073,E4,152.0,0.25,56,158.91
1074,B-2,152.0,0.25,34,158.91
1075,F#3,152.0,0.25,34,158.91
1076,E3,152.0,0.25,34,158.91
1077,C#5,152.5,0.25,56,158.91
1078,C#4,152.5,0.25,56,158.91
1079,B-2,152.5,0.25,33,158.91
1080,E3,152.5,0.25,33,158.91
1081,F#3,152.5,0.25,33,158.91
1082,B4,153.0,0.25,64,158.91
1083,B3,153.0,0.25,64,158.91
1084,B2,153.0,0.25,37,158.91
1085,G#3,153.0,0.25,37,158.91
1086,E3,153.0,0.25,37,158.91
1087,E5,153.5,0.25,49,158.91
1088,E4,153.5,0.25,49,158.91
1089,B2,153.5,0.25,31,158.91
1090,G#3,153.5,0.25,31,158.91
1091,E3,153.5,0.25,31,158.91
1092,G#4,154.0,0.25,49,158.91
1093,E4,154.0,0.25,49,158.91
1094,B2,154.0,0.25,31,158.91
1095,G#3,154.0,0.25,31,158.91
1096,E3,154.0,0.25,31,158.91
1097,B4,154.5,0.25,57,158.91
1098,E-4,154.5,0.25,57,158.91
1099,B2,154.5,0.25,35,158.91
1100,F#3,154.5,0.25,35,158.91
1101,A3,154.5,0.25,35,158.91
1102,A4,155.0,0.25,42,158.91
1103,E-4,155.0,0.25,42,158.91
1104,B2,155.0,0.25,30,158.91
1105,F#3,155.0,0.25,30,158.91
1106,A3,155.0,0.25,30,158.91
1107,F#4,155.5,0.25,42,158.91
1108,E-4,155.5,0.25,42,158.91
1109,B2,155.5,0.25,29,158.91
1110,F#3,155.5,0.25,29,158.91
1111,A3,155.5,0.25,29,158.91
1112,E4,156.0,0.5,57,158.91
1113,E3,156.0,0.5,33,158.91
1114,G#3,156.0,0.5,33,158.91
1115,G#4,157.5,297/200,76,158.91
1116,G#5,157.5,297/200,76,158.91
1117,E-4,158.0,0.25,72,158.91
1118,G#3,158.0,0.25,72,158.91
1119,G#3,158.5,0.25,64,158.91
1120,E-4,158.5,0.25,64,158.91
1121,G#4,159.0,297/200,81,158.91
1122,G#5,159.0,297/200,81,158.91
1123,E-4,159.0,0.5,72,158.91
1124,G#3,159.0,0.5,72,158.91
1125,E3,159.5,0.5,69,158.91
1126,C#4,159.5,0.5,69,158.91
1127,G#3,160.0,0.25,66,158.91
1128,E-4,160.0,0.25,66,158.91
1129,G#4,160.5,479/1000,71,158.91
1130,G#5,160.5,297/200,84,158.91
1131,E4,160.5,0.5,72,158.91
1132,C#4,160.5,0.5,72,158.91
1133,G#4,161.0,979/1000,74,158.91
1134,G#3,161.5,0.25,68,158.91
1135,E-4,161.5,0.25,68,158.91
1136,G#5,162.0,0.5,72,158.91
1137,G#4,162.0,0.5,72,158.91
1138,G#3,162.0,1.0,72,158.91
1139,E-4,162.0,1.0,72,158.91
1140,A4,162.5,0.5,69,158.91
1141,A5,162.5,0.5,69,158.91
1142,G#4,163.0,0.25,66,158.91
1143,G#5,163.0,0.25,66,158.91
1144,G#4,163.5,0.25,72,158.91
1145,G#5,163.5,0.25,72,158.91
1146,G#4,164.0,0.25,64,158.91
1147,G#5,164.0,0.25,64,158.91
1148,E-4,164.0,0.25,72,158.91
1149,G#3,164.0,0.25,72,158.91
1150,G#4,164.5,0.25,64,158.91
1151,G#5,164.5,0.25,64,158.91
1152,G#3,164.5,0.25,64,158.91
1153,E-4,164.5,0.25,64,158.91
1154,G#4,165.0,297/200,81,158.91
1155,G#5,165.0,297/200,81,158.91
1156,E-4,165.0,0.5,72,158.91
1157,G#3,165.0,0.5,72,158.91
1158,E3,165.5,0.5,69,158.91
1159,C#4,165.5,0.5,69,158.91
1160,G#3,166.0,0.25,66,158.91
1161,E-4,166.0,0.25,66,158.91
1162,G#4,166.5,479/1000,71,158.91
1163,G#5,166.5,297/200,84,158.91
1164,E4,166.5,0.5,72,158.91
1165,C#4,166.5,0.5,72,158.91
1166,G#4,167.0,979/1000,74,158.91
1167,G#3,167.5,0.25,68,158.91
1168,E-4,167.5,0.25,68,158.91
1169,G#4,168.0,297/200,81,158.91
1170,G#5,168.0,297/200,81,158.91
1171,E-4,168.0,1.5,72,158.91
1172,G#3,168.0,1.5,72,158.91
1173,C#3,169.5,297/200,68,158.91
1174,C#4,169.5,297/200,68,158.91
1175,G#5,170.0,0.25,78,158.91
1176,C#5,170.0,0.25,78,158.91
1177,C#5,170.5,0.25,70,158.91
1178,G#5,170.5,0.25,70,158.91
1179,G#5,171.0,0.5,78,158.91
1180,C#5,171.0,0.5,78,158.91
1181,C#3,171.0,297/200,72,158.91
1182,C#4,171.0,297/200,72,158.91
1183,A4,171.5,0.5,76,158.91
1184,F#5,171.5,0.5,76,158.91
1185,C#5,172.0,0.25,73,158.91
1186,G#5,172.0,0.25,73,158.91
1187,A5,172.5,0.5,78,158.91
1188,F#5,172.5,0.5,78,158.91
1189,C#3,172.5,297/200,69,158.91
1190,C#4,172.5,297/200,69,158.91
1191,C#6,173.0,0.5,81,158.91
1192,C#5,173.5,0.25,74,158.91
1193,G#5,173.5,0.25,74,158.91
1194,C#5,174.0,1.0,78,158.91
1195,G#5,174.0,1.0,78,158.91
1196,C#4,174.0,0.5,64,158.91
1197,C#3,174.0,0.5,64,158.91
1198,D3,174.5,0.5,62,158.91
1199,D4,174.5,0.5,62,158.91
1200,C#3,175.0,0.25,59,158.91
1201,C#4,175.0,0.25,59,158.91
1202,C#3,175.5,0.25,64,158.91
1203,C#4,175.5,0.25,64,158.91
1204,G#5,176.0,0.25,78,158.91
1205,C#5,176.0,0.25,78,158.91
1206,C#3,176.0,0.25,58,158.91
1207,C#4,176.0,0.25,58,158.91
1208,C#5,176.5,0.25,70,158.91
1209,G#5,176.5,0.25,70,158.91
1210,C#3,176.5,0.25,58,158.91
1211,C#4,176.5,0.25,58,158.91
1212,G#5,177.0,0.5,78,158.91
1213,C#5,177.0,0.5,78,158.91
1214,C#3,177.0,297/200,72,158.91
1215,C#4,177.0,297/200,72,158.91
1216,A4,177.5,0.5,76,158.91
1217,F#5,177.5,0.5,76,158.91
1218,C#5,178.0,0.25,73,158.91
1219,G#5,178.0,0.25,73,158.91
1220,A5,178.5,0.5,78,158.91
1221,F#5,178.5,0.5,78,158.91
1222,C#3,178.5,297/200,69,158.91
1223,C#4,178.5,297/200,69,158.91
1224,C#6,179.0,0.5,81,158.91
1225,C#5,179.5,0.25,74,158.91
1226,G#5,179.5,0.25,74,158.91
1227,G#5,180.0,297/200,78,158.91
1228,C#5,180.0,297/200,78,158.91
1229,C#3,180.0,297/200,72,158.91
1230,C#4,180.0,297/200,72,158.91
1231,A4,181.5,297/200,78,158.91
1232,A5,181.5,297/200,78,158.91
1233,F#4,182.0,0.25,66,158.91
1234,F#4,182.5,0.25,66,158.91
1235,F#4,183.0,0.25,70,158.91
1236,A4,183.0,297/200,78,158.91
1237,A5,183.0,297/200,78,158.91
1238,E4,183.5,0.25,66,158.91
1239,E-4,184.0,0.25,66,158.91
1240,E4,184.5,0.25,70,158.91
1241,G#4,184.5,297/200,78,158.91
1242,G#5,184.5,297/200,78,158.91
1243,E-4,185.0,0.25,66,158.91
1244,C#4,185.5,0.25,65,158.91
1245,E-4,186.0,0.25,70,158.91
1246,F#4,186.0,297/200,78,158.91
1247,F#5,186.0,297/200,78,158.91
1248,C4,186.5,0.25,65,158.91
1249,G#3,187.0,0.25,65,158.91
1250,C#4,187.5,0.375,70,158.91
1251,E4,187.5,297/200,78,158.91
1252,E5,187.5,297/200,78,158.91
1253,F#3,188.0,0.25,64,158.91
1254,F#2,188.0,0.25,64,158.91
1255,F#3,188.5,0.25,64,158.91
1256,F#2,188.5,0.25,64,158.91
1257,A3,189.0,297/200,78,158.91
1258,A4,189.0,297/200,78,158.91
1259,F#2,189.0,0.375,70,158.91
1260,F#3,189.0,0.375,70,158.91
1261,E3,189.5,0.375,66,158.91
1262,E2,189.5,0.375,66,158.91
1263,E-3,190.0,0.375,66,158.91
1264,E-2,190.0,0.375,66,158.91
1265,G#3,190.5,297/200,78,158.91
1266,G#4,190.5,297/200,78,158.91
1267,E2,190.5,0.375,70,158.91
1268,E3,190.5,0.375,70,158.91
1269,E-3,191.0,0.375,65,158.91
1270,E-2,191.0,0.375,65,158.91
1271,C#3,191.5,0.375,65,158.91
1272,C#2,191.5,0.375,65,158.91
1273,F#3,192.0,297/200,78,158.91
1274,F#4,192.0,297/200,78,158.91
1275,E-2,192.0,0.375,70,158.91
1276,E-3,192.0,0.375,70,158.91
1277,C3,192.5,0.375,66,158.91
1278,C2,192.5,0.375,66,158.91
1279,G#2,193.0,0.375,66,158.91
1280,G#1,193.0,0.375,66,158.91
1281,E4,193.5,0.5,90,158.91
1282,C#2,193.5,0.5,67,158.91
1283,C#3,193.5,0.5,67,158.91
1284,C#5,194.0,0.25,74,158.91
1285,C#4,194.0,0.25,74,158.91
1286,E-3,194.0,0.25,62,158.91
1287,E-2,194.0,0.25,62,158.91
1288,C#5,194.5,0.25,74,158.91
1289,C#4,194.5,0.25,74,158.91
1290,E3,194.5,0.25,62,158.91
1291,E2,194.5,0.25,62,158.91
1292,E-4,195.0,0.25,78,158.91
1293,E-5,195.0,0.25,78,158.91
1294,F#2,195.0,0.25,66,158.91
1295,F#3,195.0,0.25,66,158.91
1296,E5,195.5,0.25,74,158.91
1297,E4,195.5,0.25,74,158.91
1298,F#3,195.5,0.25,61,158.91
1299,C#4,195.5,0.25,61,158.91
1300,A3,195.5,0.25,61,158.91
1301,F#5,196.0,0.25,74,158.91
1302,F#4,196.0,0.25,74,158.91
1303,F#3,196.0,0.25,61,158.91
1304,C#4,196.0,0.25,61,158.91
1305,A3,196.0,0.25,61,158.91
1306,E-4,196.5,0.25,78,158.91
1307,E-5,196.5,0.25,78,158.91
1308,F#3,196.5,0.25,65,158.91
1309,A3,196.5,0.25,65,158.91
1310,C4,196.5,0.25,65,158.91
1311,E5,197.0,0.25,74,158.91
1312,E4,197.0,0.25,74,158.91
1313,F#3,197.0,0.25,61,158.91
1314,C4,197.0,0.25,61,158.91
1315,A3,197.0,0.25,61,158.91
1316,F#5,197.5,0.25,74,158.91
1317,F#4,197.5,0.25,74,158.91
1318,F#3,197.5,0.25,61,158.91
1319,C4,197.5,0.25,61,158.91
1320,A3,197.5,0.25,61,158.91
1321,G#4,198.0,0.25,78,158.91
1322,G#5,198.0,0.25,78,158.91
1323,E3,198.0,0.25,66,158.91
1324,C#4,198.0,0.25,66,158.91
1325,A5,198.5,0.25,72,158.91
1326,A4,198.5,0.25,72,158.91
1327,C#4,198.5,0.25,60,158.91
1328,F#3,198.5,0.25,60,158.91
1329,B5,199.0,0.25,70,158.91
1330,B4,199.0,0.25,70,158.91
1331,C#4,199.0,0.25,59,158.91
1332,G#3,199.0,0.25,59,158.91
1333,A4,199.5,0.25,72,158.91
1334,A5,199.5,0.25,72,158.91
1335,F#3,199.5,0.25,61,158.91
1336,C#4,199.5,0.25,61,158.91
1337,B5,200.0,0.25,66,158.91
1338,B4,200.0,0.25,66,158.91
1339,C#4,200.0,0.25,56,158.91
1340,G#3,200.0,0.25,56,158.91
1341,C#6,200.5,0.25,64,158.91
1342,C#5,200.5,0.25,64,158.91
1343,C#4,200.5,0.25,54,158.91
1344,A3,200.5,0.25,54,158.91
1345,E5,201.0,0.5,72,158.91
1346,G#5,201.0,1.5,72,158.91
1347,G#3,201.0,747/500,58,158.91
1348,E4,201.0,0.5,61,158.91
1349,E-5,201.5,0.5,67,158.91
1350,E-4,201.5,0.5,57,158.91
1351,C#5,202.0,0.5,67,158.91
1352,C#4,202.0,0.5,57,158.91
1353,E-5,202.5,0.5,72,158.91
1354,G#5,202.5,1.5,72,158.91
1355,G#3,202.5,979/1000,58,158.91
1356,E-4,202.5,0.5,61,158.91
1357,C5,203.0,0.5,68,158.91
1358,C4,203.0,0.5,57,158.91
1359,G#4,203.5,0.5,68,158.91
1360,G#3,203.5,0.5,57,158.91
1361,C#5,204.0,0.25,80,158.91
1362,C#3,204.0,1.0,66,158.91
1363,C#4,204.0,1.0,66,158.91
1364,G#5,204.5,0.25,72,158.91
1365,F5,204.5,0.25,72,158.91
1366,C#5,204.5,0.25,72,158.91
1367,G#5,205.0,0.25,79,158.91
1368,F5,205.0,0.25,79,158.91
1369,C#5,205.0,0.25,79,158.91
1370,A5,205.5,1.5,88,158.91
1371,F#5,205.5,1.5,88,158.91
1372,C#3,206.0,0.25,60,158.91
1373,C#2,206.0,0.25,60,158.91
1374,C#2,206.5,0.25,57,158.91
1375,C#3,206.5,0.25,57,158.91
1376,C#5,207.0,0.25,80,158.91
1377,C#3,207.0,1.0,66,158.91
1378,C#4,207.0,1.0,66,158.91
1379,G#5,207.5,0.25,72,158.91
1380,F5,207.5,0.25,72,158.91
1381,C#5,207.5,0.25,72,158.91
1382,G#5,208.0,0.25,79,158.91
1383,F5,208.0,0.25,79,158.91
1384,C#5,208.0,0.25,79,158.91
1385,A5,208.5,1.5,88,158.91
1386,F#5,208.5,1.5,88,158.91
1387,C#3,209.0,0.25,60,158.91
1388,C#2,209.0,0.25,60,158.91
1389,C#2,209.5,0.25,57,158.91
1390,C#3,209.5,0.25,57,158.91
1391,C#6,210.0,1.0,93,158.91
1392,G#5,210.0,1.0,93,158.91
1393,F5,210.0,1.0,93,158.91
1394,C#5,210.0,1.0,93,158.91
1395,C#4,210.0,1.0,73,158.91
1396,C#3,210.0,1.0,73,158.91
1397,C#5,211.0,0.375,83,158.91
1398,C#6,211.0,0.375,83,158.91
1399,C#4,211.0,0.375,62,158.91
1400,C#3,211.0,0.375,62,158.91
1401,C#5,211.5,0.375,88,158.91
1402,C#6,211.5,0.375,88,158.91
1403,C#3,211.5,0.375,66,158.91
1404,C#4,211.5,0.375,66,158.91
1405,C#6,212.0,0.375,81,158.91
1406,C#5,212.0,0.375,81,158.91
1407,C#4,212.0,0.375,64,158.91
1408,C#3,212.0,0.375,64,158.91
1409,C#6,212.5,0.375,82,158.91
1410,C#5,212.5,0.375,82,158.91
1411,C#4,212.5,0.375,64,158.91
1412,C#3,212.5,0.375,64,158.91
1413,C#6,213.0,1.0,97,158.91
1414,C#5,213.0,1.0,97,158.91
1415,C#4,213.0,1.0,73,158.91
1416,C#3,213.0,1.0,73,158.91
1417,C#5,214.0,0.375,83,158.91
1418,C#6,214.0,0.375,83,158.91
1419,C#4,214.0,0.375,62,158.91
1420,C#3,214.0,0.375,62,158.91
1421,C#5,214.5,0.375,88,158.91
1422,C#6,214.5,0.375,88,158.91
1423,C#3,214.5,0.375,66,158.91
1424,C#4,214.5,0.375,66,158.91
1425,C#6,215.0,0.375,81,158.91
1426,C#5,215.0,0.375,81,158.91
1427,C#4,215.0,0.375,64,158.91
1428,C#3,215.0,0.375,64,158.91
1429,C#6,215.5,0.375,82,158.91
1430,C#5,215.5,0.375,82,158.91
1431,C#4,215.5,0.375,64,158.91
1432,C#3,215.5,0.375,64,158.91
1433,E6,216.0,1.0,93,158.91
1434,C#6,216.0,1.0,93,158.91
1435,G#5,216.0,1.0,93,158.91
1436,E5,216.0,1.0,93,158.91
1437,C#4,216.0,1.0,70,158.91
1438,G#3,216.0,1.0,70,158.91
1439,E4,216.0,1.0,70,158.91
1440,E3,216.0,1.0,70,158.91
1441,E5,217.0,0.375,83,158.91
1442,E6,217.0,0.375,83,158.91
1443,E4,217.0,0.375,62,158.91
1444,E3,217.0,0.375,62,158.91
1445,E5,217.5,0.375,88,158.91
1446,E6,217.5,0.375,88,158.91
1447,E3,217.5,0.375,66,158.91
1448,E4,217.5,0.375,66,158.91
1449,E6,218.0,0.375,81,158.91
1450,E5,218.0,0.375,81,158.91
1451,E4,218.0,0.375,64,158.91
1452,E3,218.0,0.375,64,158.91
1453,E6,218.5,0.375,82,158.91
1454,E5,218.5,0.375,82,158.91
1455,E4,218.5,0.375,64,158.91
1456,E3,218.5,0.375,64,158.91
1457,E6,219.0,1.0,97,158.91
1458,E5,219.0,1.0,97,158.91
1459,E4,219.0,1.0,73,158.91
1460,E3,219.0,1.0,73,158.91
1461,E5,220.0,0.375,78,158.91
1462,E6,220.0,0.375,78,158.91
1463,E5,220.5,0.375,83,158.91
1464,E6,220.5,0.375,83,158.91
1465,A1,220.5,0.375,66,158.91
1466,A2,220.5,0.375,66,158.91
1467,E6,221.0,0.375,64,158.91
1468,E5,221.0,0.375,64,158.91
1469,C#3,221.25,0.188,67,158.91
1470,A3,221.25,0.188,67,158.91
1471,E6,221.5,0.375,66,158.91
1472,E5,221.5,0.375,66,158.91
1473,A3,221.5,0.375,67,158.91
1474,C#3,221.5,0.375,67,158.91
1475,E6,222.0,0.375,70,158.91
1476,E5,222.0,0.375,70,158.91
1477,C#3,222.0,0.5,68,158.91
1478,A3,222.0,0.5,68,158.91
1479,E6,222.5,0.375,64,158.91
1480,E5,222.5,0.375,64,158.91
1481,B3,222.5,0.5,63,158.91
1482,E3,222.5,0.5,63,158.91
1483,E5,223.0,0.375,66,158.91
1484,E6,223.0,0.375,66,158.91
1485,A3,223.0,0.25,63,158.91
1486,C#4,223.0,0.25,63,158.91
1487,E6,223.5,0.375,70,158.91
1488,E5,223.5,0.375,70,158.91
1489,A3,223.5,1.0,70,158.91
1490,C#4,223.5,1.0,70,158.91
1491,E6,224.0,0.375,64,158.91
1492,E5,224.0,0.375,64,158.91
1493,E6,224.5,0.375,66,158.91
1494,E5,224.5,0.375,66,158.91
1495,A3,224.5,0.375,68,158.91
1496,C#4,224.5,0.375,68,158.91
1497,E6,225.0,0.375,70,158.91
1498,E5,225.0,0.375,70,158.91
1499,A3,225.0,0.5,72,158.91
1500,C#4,225.0,0.5,72,158.91
1501,E6,225.5,0.375,64,158.91
1502,E5,225.5,0.375,64,158.91
1503,D4,225.5,0.5,68,158.91
1504,B3,225.5,0.5,68,158.91
1505,E5,226.0,0.375,66,158.91
1506,E6,226.0,0.375,66,158.91
1507,C#4,226.0,0.25,68,158.91
1508,E4,226.0,0.25,68,158.91
1509,E6,226.5,0.375,70,158.91
1510,E5,226.5,0.375,70,158.91
1511,E4,226.5,0.75,76,158.91
1512,C#4,226.5,0.75,76,158.91
1513,F#6,227.0,0.375,61,158.91
1514,F#5,227.0,0.375,61,158.91
1515,D4,227.25,9/40,60,158.91
1516,F#4,227.25,9/40,60,158.91
1517,F#6,227.5,0.375,58,158.91
1518,F#5,227.5,0.375,58,158.91
1519,F#4,227.5,0.375,60,158.91
1520,D4,227.5,0.375,60,158.91
1521,A6,228.0,0.375,62,158.91
1522,A5,228.0,0.375,62,158.91
1523,A3,228.0,0.75,63,158.91
1524,A4,228.0,0.75,63,158.91
1525,F#4,228.0,0.75,63,158.91
1526,A5,228.5,0.375,57,158.91
1527,A6,228.5,0.375,57,158.91
1528,A4,228.75,9/40,55,158.91
1529,F#4,228.75,9/40,55,158.91
1530,A5,229.0,0.375,58,158.91
1531,A6,229.0,0.375,58,158.91
1532,A4,229.0,0.375,55,158.91
1533,F#4,229.0,0.375,55,158.91
1534,A6,229.5,0.375,57,158.91
1535,A5,229.5,0.375,57,158.91
1536,A4,229.5,0.5,57,158.91
1537,F#4,229.5,0.5,57,158.91
1538,A6,230.0,0.375,58,158.91
1539,A5,230.0,0.375,58,158.91
1540,G#4,230.0,0.5,58,158.91
1541,E4,230.0,0.5,58,158.91
1542,A5,230.5,0.375,57,158.91
1543,A6,230.5,0.375,57,158.91
1544,D4,230.5,0.25,46,158.91
1545,F#4,230.5,0.25,46,158.91
1546,A6,231.0,0.5,56,158.91
1547,A5,231.0,0.5,56,158.91
1548,A3,231.0,1.5,49,158.91
1549,D4,231.0,1.5,49,158.91
1550,F#4,231.0,1.5,49,158.91
1551,C#4,232.5,0.5,50,158.91
1552,E4,232.5,0.5,50,158.91
1553,E4,233.25,9/40,64,158.91
1554,A4,233.25,9/40,64,158.91
1555,C#3,233.25,9/40,54,158.91
1556,A3,233.25,9/40,54,158.91
1557,A4,233.5,0.375,62,158.91
1558,E4,233.5,0.375,62,158.91
1559,A3,233.5,0.375,50,158.91
1560,C#3,233.5,0.375,50,158.91
1561,E4,234.0,0.5,64,158.91
1562,A4,234.0,0.5,64,158.91
1563,C#3,234.0,0.5,54,158.91
1564,A3,234.0,0.5,54,158.91
1565,B4,234.5,0.5,64,158.91
1566,G#4,234.5,0.5,64,158.91
1567,B3,234.5,0.5,50,158.91
1568,E3,234.5,0.5,50,158.91
1569,C#5,235.0,0.25,65,158.91
1570,A4,235.0,0.25,65,158.91
1571,E4,235.0,0.25,65,158.91
1572,A3,235.0,0.25,50,158.91
1573,C#4,235.0,0.25,50,158.91
1574,C#5,235.5,1.0,69,158.91
1575,A4,235.5,1.0,69,158.91
1576,E4,235.5,1.0,69,158.91
1577,A3,235.5,1.0,56,158.91
1578,C#4,235.5,1.0,56,158.91
1579,C#5,236.5,0.375,60,158.91
1580,A4,236.5,0.375,60,158.91
1581,A3,236.5,0.375,54,158.91
1582,C#4,236.5,0.375,54,158.91
1583,A4,237.0,0.5,64,158.91
1584,C#5,237.0,0.5,64,158.91
1585,A3,237.0,0.5,58,158.91
1586,C#4,237.0,0.5,58,158.91
1587,D5,237.5,0.5,61,158.91
1588,B4,237.5,0.5,61,158.91
1589,D4,237.5,0.5,54,158.91
1590,B3,237.5,0.5,54,158.91
1591,E5,238.0,0.25,59,158.91
1592,C#5,238.0,0.25,59,158.91
1593,C#4,238.0,0.25,54,158.91
1594,E4,238.0,0.25,54,158.91
1595,E5,238.5,0.5,54,158.91
1596,C#5,238.5,0.5,54,158.91
1597,E4,238.5,0.5,61,158.91
1598,C#4,238.5,0.5,61,158.91
1599,D5,239.0,0.5,50,158.91
1600,C#5,239.5,0.5,43,158.91
1601,A4,240.0,0.75,52,158.91
1602,B4,240.0,0.75,52,158.91
1603,D2,240.0,0.5,45,158.91
1604,D3,240.0,0.5,45,158.91
1605,B3,240.5,19/40,29,158.91
1606,A3,240.5,19/40,29,158.91
1607,F#3,240.5,19/40,29,158.91
1608,D3,240.5,19/40,29,158.91
1609,B4,240.75,9/40,45,158.91
1610,A4,240.75,9/40,45,158.91
1611,B4,241.0,0.375,45,158.91
1612,A4,241.0,0.375,45,158.91
1613,B3,241.0,19/40,29,158.91
1614,A3,241.0,19/40,29,158.91
1615,F#3,241.0,19/40,29,158.91
1616,D3,241.0,19/40,29,158.91
1617,A4,241.5,1.5,49,158.91
1618,D5,241.5,0.5,54,158.91
1619,B3,241.5,19/40,34,158.91
1620,A3,241.5,19/40,34,158.91
1621,F#3,241.5,19/40,34,158.91
1622,D3,241.5,19/40,34,158.91
1623,C#5,242.0,0.5,50,158.91
1624,B3,242.0,19/40,29,158.91
1625,A3,242.0,19/40,29,158.91
1626,F#3,242.0,19/40,29,158.91
1627,D3,242.0,19/40,29,158.91
1628,B4,242.5,0.5,43,158.91
1629,B3,242.5,19/40,29,158.91
1630,A3,242.5,19/40,29,158.91
1631,F#3,242.5,19/40,29,158.91
1632,D3,242.5,19/40,29,158.91
1633,F#5,243.0,0.5,54,158.91
1634,A4,243.0,2.25,49,158.91
1635,B3,243.0,3.0,34,158.91
1636,A3,243.0,3.0,34,158.91
1637,F#3,243.0,3.0,34,158.91
1638,D3,243.0,3.0,34,158.91
1639,D5,243.5,0.5,50,158.91
1640,C#5,244.0,0.5,50,158.91
1641,B4,244.5,0.75,55,158.91
1642,B4,245.25,9/40,45,158.91
1643,A4,245.25,9/40,45,158.91
1644,B4,245.5,0.375,45,158.91
1645,A4,245.5,0.375,45,158.91
1646,A4,246.0,3.0,49,158.91
1647,B4,246.0,0.75,55,158.91
1648,D2,246.0,0.5,45,158.91
1649,D3,246.0,0.5,45,158.91
1650,B3,246.5,19/40,29,158.91
1651,A3,246.5,19/40,29,158.91
1652,F#3,246.5,19/40,29,158.91
1653,D3,246.5,19/40,29,158.91
1654,B4,246.75,9/40,45,158.91
1655,B4,247.0,0.375,45,158.91
1656,B3,247.0,19/40,29,158.91
1657,A3,247.0,19/40,29,158.91
1658,F#3,247.0,19/40,29,158.91
1659,D3,247.0,19/40,29,158.91
1660,D5,247.5,0.5,54,158.91
1661,B3,247.5,19/40,34,158.91
1662,A3,247.5,19/40,34,158.91
1663,F#3,247.5,19/40,34,158.91
1664,D3,247.5,19/40,34,158.91
1665,C#5,248.0,0.5,50,158.91
1666,B3,248.0,19/40,29,158.91
1667,A3,248.0,19/40,29,158.91
1668,F#3,248.0,19/40,29,158.91
1669,D3,248.0,19/40,29,158.91
1670,B4,248.5,0.5,43,158.91
1671,B3,248.5,19/40,29,158.91
1672,A3,248.5,19/40,29,158.91
1673,F#3,248.5,19/40,29,158.91
1674,D3,248.5,19/40,29,158.91
1675,F#5,249.0,0.5,54,158.91
1676,A4,249.0,2.0,49,158.91
1677,B3,249.0,3.0,34,158.91
1678,A3,249.0,3.0,34,158.91
1679,F#3,249.0,3.0,34,158.91
1680,D3,249.0,3.0,34,158.91
1681,D5,249.5,0.5,50,158.91
1682,C#5,250.0,0.5,50,158.91
1683,B4,250.5,97/200,55,158.91
1684,B4,251.0,19/40,45,158.91
1685,A4,251.0,19/40,45,158.91
1686,B4,251.5,0.375,45,158.91
1687,A4,251.5,0.375,45,158.91
1688,F#5,252.0,2.0,90,158.91
1689,E-2,252.0,19/20,66,158.91
1690,E-3,252.0,19/20,66,158.91
1691,A3,253.0,0.375,48,158.91
1692,B3,253.0,0.375,48,158.91
1693,F#3,253.0,0.375,48,158.91
1694,E-3,253.0,0.375,48,158.91
1695,E-3,253.5,19/20,50,158.91
1696,A3,253.5,19/20,50,158.91
1697,F#3,253.5,19/20,50,158.91
1698,B3,253.5,19/20,50,158.91
1699,E-5,254.0,0.25,78,158.91
1700,C#5,254.5,0.25,72,158.91
1701,B3,254.5,0.25,49,158.91
1702,A3,254.5,0.25,49,158.91
1703,F#3,254.5,0.25,49,158.91
1704,E-3,254.5,0.25,49,158.91
1705,B4,255.0,2.0,84,158.91
1706,B5,255.0,2.0,84,158.91
1707,G#3,255.0,19/20,63,158.91
1708,E3,255.0,19/20,63,158.91
1709,D3,255.0,19/20,63,158.91
1710,B3,255.0,19/20,63,158.91
1711,G#3,256.0,0.375,48,158.91
1712,B3,256.0,0.375,48,158.91
1713,E3,256.0,0.375,48,158.91
1714,D3,256.0,0.375,48,158.91
1715,D3,256.5,19/20,50,158.91
1716,G#3,256.5,19/20,50,158.91
1717,E3,256.5,19/20,50,158.91
1718,B3,256.5,19/20,50,158.91
1719,G#5,257.0,0.25,97,158.91
1720,F#5,257.5,0.25,90,158.91
1721,B3,257.5,0.25,61,158.91
1722,G#3,257.5,0.25,61,158.91
1723,E3,257.5,0.25,61,158.91
1724,D3,257.5,0.25,61,158.91
1725,E6,258.0,2.0,93,158.91
1726,E5,258.0,2.0,93,158.91
1727,A3,258.0,19/20,60,158.91
1728,E3,258.0,19/20,60,158.91
1729,C#3,258.0,19/20,60,158.91
1730,C#4,258.0,19/20,60,158.91
1731,C#3,259.0,0.25,54,158.91
1732,E3,259.0,0.25,54,158.91
1733,A3,259.0,0.25,54,158.91
1734,C#4,259.0,0.25,54,158.91
1735,C#3,259.5,1.0,54,158.91
1736,E3,259.5,1.0,54,158.91
1737,A3,259.5,1.0,54,158.91
1738,C#4,259.5,1.0,54,158.91
1739,D5,260.0,0.25,77,158.91
1740,D6,260.0,0.25,77,158.91
1741,C#5,260.5,0.25,76,158.91
1742,C#6,260.5,0.25,76,158.91
1743,B5,261.0,0.25,86,158.91
1744,B4,261.0,0.25,86,158.91
1745,A2,261.0,0.25,49,158.91
1746,D2,261.0,0.25,49,158.91
1747,B2,261.0,0.25,49,158.91
1748,A4,261.5,0.25,76,158.91
1749,A5,261.5,0.25,76,158.91
1750,D2,261.5,0.25,43,158.91
1751,B2,261.5,0.25,43,158.91
1752,A2,261.5,0.25,43,158.91
1753,G#4,262.0,0.25,75,158.91
1754,G#5,262.0,0.25,75,158.91
1755,D2,262.0,0.25,42,158.91
1756,A2,262.0,0.25,42,158.91
1757,B2,262.0,0.25,42,158.91
1758,F#5,262.5,0.25,81,158.91
1759,F#4,262.5,0.25,81,158.91
1760,A2,262.5,0.25,48,158.91
1761,D2,262.5,0.25,48,158.91
1762,B2,262.5,0.25,48,158.91
1763,E4,263.0,0.25,74,158.91
1764,E5,263.0,0.25,74,158.91
1765,D2,263.0,0.25,42,158.91
1766,B2,263.0,0.25,42,158.91
1767,A2,263.0,0.25,42,158.91
1768,D4,263.5,0.25,73,158.91
1769,D5,263.5,0.25,73,158.91
1770,D2,263.5,0.25,41,158.91
1771,A2,263.5,0.25,41,158.91
1772,B2,263.5,0.25,41,158.91
1773,C#5,264.0,0.25,81,158.91
1774,C#4,264.0,0.25,81,158.91
1775,A2,264.0,0.25,46,158.91
1776,D2,264.0,0.25,46,158.91
1777,B2,264.0,0.25,46,158.91
1778,B4,264.5,0.25,66,158.91
1779,B3,264.5,0.25,66,158.91
1780,D2,264.5,0.25,39,158.91
1781,B2,264.5,0.25,39,158.91
1782,A2,264.5,0.25,39,158.91
1783,A4,265.0,0.25,65,158.91
1784,A3,265.0,0.25,65,158.91
1785,D2,265.0,0.25,38,158.91
1786,A2,265.0,0.25,38,158.91
1787,B2,265.0,0.25,38,158.91
1788,G#4,265.5,0.25,71,158.91
1789,G#3,265.5,0.25,71,158.91
1790,A2,265.5,0.25,43,158.91
1791,D2,265.5,0.25,43,158.91
1792,B2,265.5,0.25,43,158.91
1793,A4,266.0,0.25,62,158.91
1794,A3,266.0,0.25,62,158.91
1795,D2,266.0,0.25,37,158.91
1796,B2,266.0,0.25,37,158.91
1797,A2,266.0,0.25,37,158.91
1798,F#4,266.5,0.25,60,158.91
1799,F#3,266.5,0.25,60,158.91
1800,D2,266.5,0.25,36,158.91
1801,A2,266.5,0.25,36,158.91
1802,B2,266.5,0.25,36,158.91
1803,E4,267.0,0.25,68,158.91
1804,E3,267.0,0.25,68,158.91
1805,A2,267.0,0.25,39,158.91
1806,E2,267.0,0.25,39,158.91
1807,C#3,267.0,0.25,39,158.91
1808,A4,267.5,0.25,52,158.91
1809,A3,267.5,0.25,52,158.91
1810,A2,267.5,0.25,33,158.91
1811,E2,267.5,0.25,33,158.91
1812,C#3,267.5,0.25,33,158.91
1813,C#4,268.0,0.25,52,158.91
1814,A3,268.0,0.25,52,158.91
1815,A2,268.0,0.25,33,158.91
1816,E2,268.0,0.25,33,158.91
1817,C#3,268.0,0.25,33,158.91
1818,E4,268.5,0.25,60,158.91
1819,G#3,268.5,0.25,60,158.91
1820,E2,268.5,0.25,37,158.91
1821,B2,268.5,0.25,37,158.91
1822,D4,269.0,0.25,42,158.91
1823,G#3,269.0,0.25,42,158.91
1824,E2,269.0,0.25,32,158.91
1825,B2,269.0,0.25,32,158.91
1826,B3,269.5,0.25,42,158.91
1827,G#3,269.5,0.25,42,158.91
1828,D2,269.5,0.25,32,158.91
1829,E2,269.5,0.25,32,158.91
1830,A3,270.0,0.375,49,158.91
1831,C#2,270.0,1.0,28,158.91
1832,E2,270.0,1.0,28,158.91
1833,A2,270.0,1.0,28,158.91
1834,A3,270.5,0.25,45,158.91
1835,A3,271.0,0.25,43,158.91
1836,A3,271.5,1.5,49,158.91
1837,E3,272.0,0.25,40,158.91
1838,A2,272.0,0.25,28,158.91
1839,A1,272.0,0.25,28,158.91
1840,E3,272.5,0.25,46,158.91
1841,A2,272.5,0.25,24,158.91
1842,A1,272.5,0.25,24,158.91
1843,A3,273.0,479/1000,49,158.91
1844,F#3,273.0,1.0,53,158.91
1845,D3,273.0,1.0,53,158.91
1846,A2,273.0,1.0,31,158.91
1847,D2,273.0,1.0,31,158.91
1848,A3,273.5,0.25,45,158.91
1849,A3,274.0,0.25,43,158.91
1850,A3,274.5,1.5,49,158.91
1851,E3,275.0,0.25,40,158.91
1852,A2,275.0,0.25,31,158.91
1853,A1,275.0,0.25,31,158.91
1854,E3,275.5,0.25,46,158.91
1855,A2,275.5,0.25,30,158.91
1856,A1,275.5,0.25,30,158.91
1857,A3,276.0,479/1000,49,158.91
1858,F#3,276.0,1.0,63,158.91
1859,D3,276.0,1.0,63,158.91
1860,A2,276.0,1.0,42,158.91
1861,D2,276.0,1.0,42,158.91
1862,A3,276.5,0.25,53,158.91
1863,A3,277.0,0.25,61,158.91
1864,C#4,277.5,1.5,67,158.91
1865,G#3,278.0,0.25,42,158.91
1866,C#3,278.0,0.25,42,158.91
1867,C#3,278.5,0.25,43,158.91
1868,G#3,278.5,0.25,43,158.91
1869,C#4,279.0,479/1000,67,158.91
1870,F#3,279.0,1.0,54,158.91
1871,A3,279.0,1.0,54,158.91
1872,C#4,279.5,0.25,59,158.91
1873,C#4,280.0,0.25,68,158.91
1874,E4,280.5,1.5,75,158.91
1875,B3,281.0,0.25,46,158.91
1876,E3,281.0,0.25,46,158.91
1877,E3,281.5,0.25,48,158.91
1878,B3,281.5,0.25,48,158.91
1879,E4,282.0,0.5,75,158.91
1880,A3,282.0,1.0,60,158.91
1881,C#4,282.0,1.0,60,158.91
1882,C#4,282.5,0.25,70,158.91
1883,E4,282.75,0.25,73,158.91
1884,A4,283.0,0.25,76,158.91
1885,C#5,283.25,0.25,84,158.91
1886,E5,283.5,1.5,88,158.91
1887,C#3,284.0,0.25,47,158.91
1888,A3,284.0,0.25,47,158.91
1889,E3,284.0,0.25,47,158.91
1890,C#3,284.5,0.25,49,158.91
1891,E3,284.5,0.25,49,158.91
1892,A3,284.5,0.25,49,158.91
1893,E5,285.0,0.5,88,158.91
1894,C#3,285.0,1.0,62,158.91
1895,E3,285.0,1.0,62,158.91
1896,B-3,285.0,1.0,62,158.91
1897,C#4,285.5,0.25,74,158.91
1898,E4,285.75,0.25,77,158.91
1899,G4,286.0,0.25,81,158.91
1900,C#5,286.25,0.25,88,158.91
1901,E5,286.5,1.5,93,158.91
1902,C#3,287.0,0.25,50,158.91
1903,B-3,287.0,0.25,50,158.91
1904,E3,287.0,0.25,50,158.91
1905,C#3,287.5,0.25,52,158.91
1906,E3,287.5,0.25,52,158.91
1907,B-3,287.5,0.25,52,158.91
1908,E5,288.0,0.5,93,158.91
1909,D3,288.0,1.0,64,158.91
1910,F#3,288.0,1.0,64,158.91
1911,B3,288.0,1.0,64,158.91
1912,F#4,288.5,0.25,78,158.91
1913,A4,288.75,0.25,82,158.91
1914,D5,289.0,0.25,85,158.91
1915,F#5,289.25,0.25,93,158.91
1916,A5,289.5,1.5,98,158.91
1917,A3,290.0,0.25,52,158.91
1918,D3,290.0,0.25,52,158.91
1919,B3,290.0,0.25,52,158.91
1920,F#3,290.0,0.25,52,158.91
1921,A3,290.5,0.25,54,158.91
1922,D3,290.5,0.25,54,158.91
1923,F#3,290.5,0.25,54,158.91
1924,B3,290.5,0.25,54,158.91
1925,A5,291.0,0.5,98,158.91
1926,A3,291.0,1.0,67,158.91
1927,E-3,291.0,1.0,67,158.91
1928,F#3,291.0,1.0,67,158.91
1929,C4,291.0,1.0,67,158.91
1930,F#4,291.5,0.25,82,158.91
1931,A4,291.75,0.25,86,158.91
1932,E-5,292.0,0.25,90,158.91
1933,F#5,292.25,0.25,98,158.91
1934,A5,292.5,1.5,103,158.91
1935,A3,293.0,0.25,54,158.91
1936,E-3,293.0,0.25,54,158.91
1937,C4,293.0,0.25,54,158.91
1938,F#3,293.0,0.25,54,158.91
1939,A3,293.5,0.25,56,158.91
1940,E-3,293.5,0.25,56,158.91
1941,F#3,293.5,0.25,56,158.91
1942,C4,293.5,0.25,56,158.91
1943,A5,294.0,0.5,103,158.91
1944,A3,294.0,1.0,72,158.91
1945,E3,294.0,1.0,72,158.91
1946,C#4,294.0,1.0,72,158.91
1947,C#5,294.5,0.25,86,158.91
1948,E5,294.75,0.25,90,158.91
1949,A5,295.0,0.25,94,158.91
1950,C#6,295.25,0.25,98,158.91
1951,E6,295.5,0.25,101,158.91
1952,C#6,295.75,0.25,94,158.91
1953,A5,296.0,0.25,77,158.91
1954,E5,296.25,0.25,63,158.91
1955,C#3,296.25,0.188,67,158.91
1956,A3,296.25,0.188,67,158.91
1957,A5,296.5,0.25,69,158.91
1958,A3,296.5,0.375,67,158.91
1959,C#3,296.5,0.375,67,158.91
1960,E5,296.75,0.25,67,158.91
1961,E6,297.0,0.25,76,158.91
1962,C#3,297.0,0.5,68,158.91
1963,A3,297.0,0.5,68,158.91
1964,C#6,297.25,0.25,67,158.91
1965,A5,297.5,0.25,70,158.91
1966,B3,297.5,0.5,63,158.91
1967,E3,297.5,0.5,63,158.91
1968,E5,297.75,0.25,63,158.91
1969,A5,298.0,0.25,69,158.91
1970,A3,298.0,0.25,63,158.91
1971,C#4,298.0,0.25,63,158.91
1972,E5,298.25,0.25,67,158.91
1973,E6,298.5,0.25,76,158.91
1974,A3,298.5,1.0,70,158.91
1975,C#4,298.5,1.0,70,158.91
1976,C#6,298.75,0.25,67,158.91
1977,A5,299.0,0.25,70,158.91
1978,E5,299.25,0.25,63,158.91
1979,A5,299.5,0.25,69,158.91
1980,A3,299.5,0.375,68,158.91
1981,C#4,299.5,0.375,68,158.91
1982,E5,299.75,0.25,67,158.91
1983,E6,300.0,0.25,76,158.91
1984,A3,300.0,0.5,72,158.91
1985,C#4,300.0,0.5,72,158.91
1986,C#6,300.25,0.25,67,158.91
1987,A5,300.5,0.25,70,158.91
1988,D4,300.5,0.5,68,158.91
1989,B3,300.5,0.5,68,158.91
1990,E5,300.75,0.25,63,158.91
1991,A5,301.0,0.25,69,158.91
1992,C#4,301.0,0.25,68,158.91
1993,E4,301.0,0.25,68,158.91
1994,E5,301.25,0.25,67,158.91
1995,E6,301.5,0.25,76,158.91
1996,C#4,301.5,0.5,72,158.91
1997,E4,301.5,0.5,72,158.91
1998,C#6,301.75,0.25,67,158.91
1999,A5,302.0,0.25,70,158.91
2000,D4,302.0,0.5,68,158.91
2001,B3,302.0,0.5,68,158.91
2002,E5,302.25,0.25,63,158.91
2003,A5,302.5,0.25,69,158.91
2004,A3,302.5,0.25,68,158.91
2005,C#4,302.5,0.25,68,158.91
2006,E5,302.75,0.25,67,158.91
2007,E6,303.0,0.25,76,158.91
2008,E3,303.0,2.0,70,158.91
2009,G#3,303.0,2.0,70,158.91
2010,B3,303.0,2.0,70,158.91
2011,D6,303.25,0.25,67,158.91
2012,B5,303.5,0.25,70,158.91
2013,E5,303.75,0.25,63,158.91
2014,B5,304.0,0.25,69,158.91
2015,E5,304.25,0.25,67,158.91
2016,E6,304.5,0.25,76,158.91
2017,D6,304.75,0.25,67,158.91
2018,B5,305.0,0.25,70,158.91
2019,E3,305.0,0.25,66,158.91
2020,B3,305.0,0.25,66,158.91
2021,G#3,305.0,0.25,66,158.91
2022,E5,305.25,0.25,63,158.91
2023,B5,305.5,0.25,69,158.91
2024,E3,305.5,0.25,66,158.91
2025,G#3,305.5,0.25,66,158.91
2026,B3,305.5,0.25,66,158.91
2027,E5,305.75,0.25,67,158.91
2028,E6,306.0,0.25,76,158.91
2029,E3,306.0,1.0,70,158.91
2030,G#3,306.0,1.0,70,158.91
2031,B3,306.0,1.0,70,158.91
2032,D6,306.25,0.25,67,158.91
2033,B5,306.5,0.25,70,158.91
2034,E5,306.75,0.25,63,158.91
2035,B5,307.0,0.25,69,158.91
2036,E5,307.25,0.25,67,158.91
2037,E6,307.5,0.25,76,158.91
2038,E1,307.5,0.5,76,158.91
2039,E2,307.5,0.5,76,158.91
2040,C#6,307.75,0.25,67,158.91
2041,A5,308.0,0.25,70,158.91
2042,E5,308.25,0.25,63,158.91
2043,C#3,308.25,0.188,67,158.91
2044,A3,308.25,0.188,67,158.91
2045,A5,308.5,0.25,69,158.91
2046,A3,308.5,0.375,67,158.91
2047,C#3,308.5,0.375,67,158.91
2048,E5,308.75,0.25,67,158.91
2049,E6,309.0,0.25,76,158.91
2050,C#3,309.0,0.5,68,158.91
2051,A3,309.0,0.5,68,158.91
2052,C#6,309.25,0.25,67,158.91
2053,A5,309.5,0.25,70,158.91
2054,B3,309.5,0.5,63,158.91
2055,E3,309.5,0.5,63,158.91
2056,E5,309.75,0.25,63,158.91
2057,A5,310.0,0.25,69,158.91
2058,A3,310.0,0.25,63,158.91
2059,C#4,310.0,0.25,63,158.91
2060,E5,310.25,0.25,67,158.91
2061,E6,310.5,0.25,76,158.91
2062,A3,310.5,1.0,70,158.91
2063,C#4,310.5,1.0,70,158.91
2064,C#6,310.75,0.25,67,158.91
2065,A5,311.0,0.25,70,158.91
2066,E5,311.25,0.25,63,158.91
2067,A5,311.5,0.25,69,158.91
2068,A3,311.5,0.375,68,158.91
2069,C#4,311.5,0.375,68,158.91
2070,E5,311.75,0.25,67,158.91
2071,E6,312.0,0.25,76,158.91
2072,A3,312.0,0.5,72,158.91
2073,C#4,312.0,0.5,72,158.91
2074,C#6,312.25,0.25,67,158.91
2075,A5,312.5,0.25,70,158.91
2076,D4,312.5,0.5,68,158.91
2077,B3,312.5,0.5,68,158.91
2078,E5,312.75,0.25,63,158.91
2079,A5,313.0,0.25,69,158.91
2080,C#4,313.0,0.25,68,158.91
2081,E4,313.0,0.25,68,158.91
2082,E5,313.25,0.25,67,158.91
2083,E6,313.5,0.25,76,158.91
2084,C#4,313.5,0.5,72,158.91
2085,E4,313.5,0.5,72,158.91
2086,C#6,313.75,0.25,67,158.91
2087,A5,314.0,0.25,70,158.91
2088,D4,314.0,0.5,68,158.91
2089,B3,314.0,0.5,68,158.91
2090,E5,314.25,0.25,63,158.91
2091,A5,314.5,0.25,69,158.91
2092,A3,314.5,0.25,68,158.91
2093,C#4,314.5,0.25,68,158.91
2094,E5,314.75,0.25,67,158.91
2095,E6,315.0,0.25,76,158.91
2096,E3,315.0,2.0,70,158.91
2097,G#3,315.0,2.0,70,158.91
2098,B3,315.0,2.0,70,158.91
2099,D6,315.25,0.25,67,158.91
2100,B5,315.5,0.25,70,158.91
2101,E5,315.75,0.25,63,158.91
2102,B5,316.0,0.25,69,158.91
2103,E5,316.25,0.25,67,158.91
2104,E6,316.5,0.25,76,158.91
2105,D6,316.75,0.25,67,158.91
2106,B5,317.0,0.25,70,158.91
2107,E3,317.0,0.25,66,158.91
2108,B3,317.0,0.25,66,158.91
2109,G#3,317.0,0.25,66,158.91
2110,E5,317.25,0.25,63,158.91
2111,B5,317.5,0.25,69,158.91
2112,E3,317.5,0.25,66,158.91
2113,G#3,317.5,0.25,66,158.91
2114,B3,317.5,0.25,66,158.91
2115,E5,317.75,0.25,67,158.91
2116,E6,318.0,0.25,76,158.91
2117,E3,318.0,1.0,70,158.91
2118,G#3,318.0,1.0,70,158.91
2119,B3,318.0,1.0,70,158.91
2120,D6,318.25,0.25,67,158.91
2121,B5,318.5,0.25,70,158.91
2122,E5,318.75,0.25,63,158.91
2123,B5,319.0,0.25,69,158.91
2124,E5,319.25,0.25,67,158.91
2125,E6,319.5,0.25,76,158.91
2126,A1,319.5,0.5,76,158.91
2127,A2,319.5,0.5,76,158.91
2128,C#6,319.75,0.25,67,158.91
2129,B5,320.0,0.25,70,158.91
2130,A5,320.25,0.25,63,158.91
2131,C#3,320.25,0.188,67,158.91
2132,A3,320.25,0.188,67,158.91
2133,B5,320.5,0.25,69,158.91
2134,A3,320.5,0.375,67,158.91
2135,C#3,320.5,0.375,67,158.91
2136,A5,320.75,0.25,67,158.91
2137,E6,321.0,0.25,76,158.91
2138,C#3,321.0,0.5,68,158.91
2139,A3,321.0,0.5,68,158.91
2140,C#6,321.25,0.25,67,158.91
2141,B5,321.5,0.25,70,158.91
2142,B3,321.5,0.5,63,158.91
2143,E3,321.5,0.5,63,158.91
2144,A5,321.75,0.25,63,158.91
2145,B5,322.0,0.25,69,158.91
2146,A3,322.0,0.25,63,158.91
2147,C#4,322.0,0.25,63,158.91
2148,A5,322.25,0.25,67,158.91
2149,E6,322.5,0.25,76,158.91
2150,A3,322.5,1.0,70,158.91
2151,C#4,322.5,1.0,70,158.91
2152,C#6,322.75,0.25,67,158.91
2153,B5,323.0,0.25,70,158.91
2154,A5,323.25,0.25,63,158.91
2155,B5,323.5,0.25,69,158.91
2156,A3,323.5,0.375,68,158.91
2157,C#4,323.5,0.375,68,158.91
2158,A5,323.75,0.25,67,158.91
2159,E6,324.0,0.25,76,158.91
2160,A3,324.0,0.5,72,158.91
2161,C#4,324.0,0.5,72,158.91
2162,C#6,324.25,0.25,67,158.91
2163,B5,324.5,0.25,70,158.91
2164,D4,324.5,0.5,68,158.91
2165,B3,324.5,0.5,68,158.91
2166,A5,324.75,0.25,63,158.91
2167,B5,325.0,0.25,69,158.91
2168,C#4,325.0,0.25,68,158.91
2169,E4,325.0,0.25,68,158.91
2170,A5,325.25,0.25,67,158.91
2171,E6,325.5,0.25,76,158.91
2172,C#4,325.5,0.75,78,158.91
2173,E4,325.5,0.75,78,158.91
2174,C#6,325.75,0.25,67,158.91
2175,B5,326.0,0.25,56,158.91
2176,A5,326.25,0.25,53,158.91
2177,D4,326.25,0.25,68,158.91
2178,F#4,326.25,0.25,68,158.91
2179,B5,326.5,0.25,58,158.91
2180,D4,326.5,0.5,64,158.91
2181,F#4,326.5,0.5,64,158.91
2182,A5,326.75,0.25,56,158.91
2183,A6,327.0,0.25,71,158.91
2184,A4,327.0,3.0,54,158.91
2185,F#4,327.0,3.0,54,158.91
2186,A3,327.0,3.0,54,158.91
2187,F#6,327.25,0.25,56,158.91
2188,B5,327.5,0.25,59,158.91
2189,A5,327.75,0.25,53,158.91
2190,B5,328.0,0.25,58,158.91
2191,A5,328.25,0.25,56,158.91
2192,A6,328.5,0.25,64,158.91
2193,F#6,328.75,0.25,56,158.91
2194,B5,329.0,0.25,59,158.91
2195,A5,329.25,0.25,53,158.91
2196,B5,329.5,0.25,58,158.91
2197,A5,329.75,0.25,56,158.91
2198,A6,330.0,0.25,71,158.91
2199,F#4,330.0,1.0,50,158.91
2200,D4,330.0,1.0,50,158.91
2201,A3,330.0,1.0,50,158.91
2202,F#6,330.25,0.25,56,158.91
2203,B5,330.5,0.25,59,158.91
2204,A5,330.75,0.25,53,158.91
2205,B5,331.0,0.25,58,158.91
2206,A5,331.25,0.25,56,158.91
2207,A6,331.5,0.25,64,158.91
2208,F#6,331.75,0.25,56,158.91
2209,B5,332.0,0.25,59,158.91
2210,F#4,332.0,19/40,45,158.91
2211,D4,332.0,19/40,45,158.91
2212,A5,332.25,0.25,53,158.91
2213,B5,332.5,0.25,58,158.91
2214,F#4,332.5,19/40,45,158.91
2215,D4,332.5,19/40,45,158.91
2216,A5,332.75,0.25,56,158.91
2217,A6,333.0,0.25,71,158.91
2218,A3,333.0,2.5,54,158.91
2219,F#4,333.0,2.5,54,158.91
2220,A4,333.0,2.5,54,158.91
2221,F#6,333.25,0.25,56,158.91
2222,D6,333.5,0.25,58,158.91
2223,A5,333.75,0.25,51,158.91
2224,D6,334.0,0.25,56,158.91
2225,A5,334.25,0.25,53,158.91
2226,A6,334.5,0.25,60,158.91
2227,F#6,334.75,0.25,53,158.91
2228,D6,335.0,0.25,55,158.91
2229,A5,335.25,0.25,49,158.91
2230,D6,335.5,0.25,53,158.91
2231,F#4,335.5,0.5,42,158.91
2232,D4,335.5,0.5,42,158.91
2233,A5,335.75,0.25,50,158.91
2234,A6,336.0,0.25,63,158.91
2235,A3,336.0,1.5,45,158.91
2236,F#4,336.0,2.0,50,158.91
2237,A4,336.0,2.0,50,158.91
2238,F#6,336.25,0.25,50,158.91
2239,D6,336.5,0.25,52,158.91
2240,A5,336.75,0.25,46,158.91
2241,D6,337.0,0.25,50,158.91
2242,A5,337.25,0.25,48,158.91
2243,A6,337.5,0.25,54,158.91
2244,F#6,337.75,0.25,47,158.91
2245,D6,338.0,0.25,49,158.91
2246,E4,338.0,0.5,40,158.91
2247,G#4,338.0,0.5,40,158.91
2248,A5,338.25,0.25,43,158.91
2249,D6,338.5,0.25,47,158.91
2250,F#4,338.5,0.5,38,158.91
2251,D4,338.5,0.5,38,158.91
2252,A5,338.75,0.25,45,158.91
2253,A6,339.0,0.25,56,158.91
2254,A3,339.0,1.0,33,158.91
2255,C#4,339.0,1.0,33,158.91
2256,E4,339.0,1.0,33,158.91
2257,E6,339.25,0.25,44,158.91
2258,C#6,339.5,0.25,47,158.91
2259,A5,339.75,0.25,42,158.91
2260,C#6,340.0,0.25,46,158.91
2261,A5,340.25,0.25,44,158.91
2262,F#6,340.5,0.25,56,158.91
2263,G#4,340.5,1.5,34,158.91
2264,D5,340.5,1.5,34,158.91
2265,E6,340.75,0.25,44,158.91
2266,F#6,341.0,0.25,47,158.91
2267,E6,341.25,0.25,42,158.91
2268,F#6,341.5,0.25,46,158.91
2269,E6,341.75,0.25,44,158.91
2270,A6,342.0,0.25,56,158.91
2271,A4,342.0,1.0,34,158.91
2272,C#5,342.0,1.0,34,158.91
2273,E6,342.25,0.25,44,158.91
2274,C#6,342.5,0.25,47,158.91
2275,A5,342.75,0.25,42,158.91
2276,C#6,343.0,0.25,46,158.91
2277,A5,343.25,0.25,44,158.91
2278,F#6,343.5,0.25,56,158.91
2279,G#4,343.5,1.5,35,158.91
2280,D4,343.5,1.5,35,158.91
2281,B4,343.5,1.5,35,158.91
2282,E6,343.75,0.25,44,158.91
2283,F#6,344.0,0.25,47,158.91
2284,E6,344.25,0.25,42,158.91
2285,F#6,344.5,0.25,46,158.91
2286,E6,344.75,0.25,44,158.91
2287,A6,345.0,0.25,56,158.91
2288,C#4,345.0,1.5,33,158.91
2289,E4,345.0,1.5,33,158.91
2290,A4,345.0,1.5,33,158.91
2291,E6,345.25,0.25,44,158.91
2292,C#6,345.5,0.25,47,158.91
2293,A5,345.75,0.25,42,158.91
2294,C#6,346.0,0.25,45,158.91
2295,A5,346.25,0.25,43,158.91
2296,F#6,346.5,0.25,55,158.91
2297,G#3,346.5,1.5,36,158.91
2298,D4,346.5,1.5,36,158.91
2299,E6,346.75,0.25,43,158.91
2300,F#6,347.0,0.25,46,158.91
2301,E6,347.25,0.25,41,158.91
2302,F#6,347.5,0.25,45,158.91
2303,E6,347.75,0.25,42,158.91
2304,A6,348.0,0.25,54,158.91
2305,A3,348.0,1.5,32,158.91
2306,C#4,348.0,1.5,32,158.91
2307,E6,348.25,0.25,42,158.91
2308,C#6,348.5,0.25,45,158.91
2309,A5,348.75,0.25,40,158.91
2310,C#6,349.0,0.25,44,158.91
2311,A5,349.25,0.25,42,158.91
2312,F#6,349.5,0.25,53,158.91
2313,E3,349.5,0.5,31,158.91
2314,D4,349.5,0.5,31,158.91
2315,G#3,349.5,0.5,31,158.91
2316,E6,349.75,0.25,41,158.91
2317,F#6,350.0,0.25,44,158.91
2318,E6,350.25,0.25,39,158.91
2319,F#6,350.5,0.25,43,158.91
2320,E6,350.75,0.25,41,158.91
2321,A2,350.75,0.25,29,158.91
2322,E3,350.875,0.125,29,158.91
2323,A6,351.0,0.25,52,158.91
2324,C#4,351.0,0.5,34,158.91
2325,A2,351.0,0.5,29,158.91
2326,E3,351.0,0.5,29,158.91
2327,E6,351.25,0.25,41,158.91
2328,C#6,351.5,0.25,43,158.91
2329,A5,351.75,0.25,39,158.91
2330,C#6,352.0,0.25,42,158.91
2331,A5,352.25,0.25,40,158.91
2332,E6,352.5,0.25,51,158.91
2333,C#6,352.75,0.25,40,158.91
2334,B5,353.0,0.25,43,158.91
2335,A4,353.0,0.375,31,158.91
2336,C#5,353.0,0.375,31,158.91
2337,A5,353.25,0.25,38,158.91
2338,B5,353.5,0.25,41,158.91
2339,A4,353.5,0.375,26,158.91
2340,C#5,353.5,0.375,26,158.91
2341,A5,353.75,0.25,40,158.91
2342,E6,354.0,0.25,50,158.91
2343,A4,354.0,1.0,30,158.91
2344,C#5,354.0,1.0,30,158.91
2345,C#6,354.25,0.25,39,158.91
2346,B5,354.5,0.25,42,158.91
2347,A5,354.75,0.25,37,158.91
2348,B5,355.0,0.25,40,158.91
2349,A5,355.25,0.25,39,158.91
2350,E6,355.5,0.25,49,158.91
2351,C#6,355.75,0.25,39,158.91
2352,B5,356.0,0.25,41,158.91
2353,C#4,356.0,0.375,30,158.91
2354,A4,356.0,0.375,30,158.91
2355,A5,356.25,0.25,36,158.91
2356,B5,356.5,0.25,40,158.91
2357,C#4,356.5,0.375,25,158.91
2358,A4,356.5,0.375,25,158.91
2359,A5,356.75,0.25,38,158.91
2360,E6,357.0,0.25,48,158.91
2361,C#4,357.0,1.0,29,158.91
2362,A4,357.0,1.0,29,158.91
2363,C#6,357.25,0.25,38,158.91
2364,B5,357.5,0.25,40,158.91
2365,A5,357.75,0.25,36,158.91
2366,B5,358.0,0.25,39,158.91
2367,A5,358.25,0.25,37,158.91
2368,E6,358.5,0.25,47,158.91
2369,C#6,358.75,0.25,37,158.91
2370,B5,359.0,0.25,39,158.91
2371,A3,359.0,0.375,29,158.91
2372,C#4,359.0,0.375,29,158.91
2373,A5,359.25,0.25,35,158.91
2374,B5,359.5,0.25,39,158.91
2375,A3,359.5,0.375,24,158.91
2376,C#4,359.5,0.375,24,158.91
2377,A5,359.75,0.25,45,158.91
2378,E6,360.0,0.25,49,158.91
2379,A3,360.0,1.0,28,158.91
2380,C#4,360.0,1.0,28,158.91
2381,C#6,360.25,0.25,46,158.91
2382,B5,360.5,0.25,49,158.91
2383,A5,360.75,0.25,53,158.91
2384,B5,361.0,0.25,55,158.91
2385,C#6,361.25,0.25,57,158.91
2386,D6,361.5,0.25,61,158.91
2387,E3,361.5,1.0,44,158.91
2388,B3,361.5,1.0,44,158.91
2389,E6,361.75,0.25,65,158.91
2390,F#6,362.0,0.25,68,158.91
2391,G#6,362.25,0.25,70,158.91
2392,A6,362.5,0.25,73,158.91
2393,B6,362.75,0.25,77,158.91
2394,C#7,363.0,0.5,78,158.91
2395,A3,363.0,0.5,54,158.91
2396,C#3,363.0,0.5,54,158.91
2397,C#4,365.625,0.375,25,158.91
2398,E5,365.75,0.25,41,158.91
2399,E4,365.75,0.25,25,158.91
2400,A4,365.75,0.25,25,158.91
2401,A5,365.875,0.125,41,158.91
2402,E6,366.0,0.5,49,158.91
2403,E5,366.0,0.5,41,158.91
2404,A5,366.0,0.5,41,158.91
2405,C#5,366.0,0.5,39,158.91
2406,C#4,366.0,0.5,25,158.91
2407,E4,366.0,0.5,25,158.91
2408,A4,366.0,0.375,25,158.91
2409,A3,369.0,0.25,34,158.91
2410,A2,369.0,0.25,30,158.91
2411,A1,369.0,0.25,30,158.91
