,note_name,start_time,duration,velocity,tempo
0,C#5,1.25,0.125,43,98.69
1,F5,1.25,0.125,43,98.69
2,B-2,1.375,0.125,35,98.69
3,F4,1.5,0.5,40,98.69
4,C#4,1.5,0.5,40,98.69
5,B-2,1.5,0.5,35,98.69
6,C#5,1.5,0.25,50,98.69
7,F5,1.5,0.25,50,98.69
8,C#5,1.75,0.25,45,98.69
9,B-4,1.75,0.25,45,98.69
10,F5,2.0,0.125,45,98.69
11,C#5,2.0,0.125,45,98.69
12,B-2,2.125,0.625,35,98.69
13,F4,2.25,0.5,40,98.69
14,C#4,2.25,0.5,40,98.69
15,C#5,2.25,0.25,50,98.69
16,F5,2.25,0.25,50,98.69
17,C#5,2.5,0.25,46,98.69
18,B-4,2.5,0.25,46,98.69
19,F5,2.75,0.125,46,98.69
20,C#5,2.75,0.125,46,98.69
21,B-2,2.875,0.125,35,98.69
22,F4,3.0,0.5,40,98.69
23,C#4,3.0,0.5,40,98.69
24,B-2,3.0,0.5,35,98.69
25,C#5,3.0,0.25,50,98.69
26,F5,3.0,0.25,50,98.69
27,C#5,3.25,0.25,45,98.69
28,B-4,3.25,0.25,45,98.69
29,F5,3.5,0.125,45,98.69
30,C#5,3.5,0.125,45,98.69
31,B-2,3.625,0.625,35,98.69
32,F4,3.75,0.5,40,98.69
33,C#4,3.75,0.5,40,98.69
34,C#5,3.75,0.25,50,98.69
35,F5,3.75,0.25,50,98.69
36,C#5,4.0,0.25,46,98.69
37,B-4,4.0,0.25,46,98.69
38,F5,4.25,0.125,46,98.69
39,C#5,4.25,0.125,46,98.69
40,B-2,4.375,0.125,35,98.69
41,F#4,4.5,1.25,71,98.69
42,C#5,4.5,0.25,50,98.69
43,C#4,4.5,0.5,40,98.69
44,B-2,4.5,0.5,35,98.69
45,B-4,4.75,0.25,45,98.69
46,C#5,5.0,0.125,45,98.69
47,B-2,5.125,0.625,35,98.69
48,C#5,5.25,0.25,50,98.69
49,C#4,5.25,0.5,40,98.69
50,B-4,5.5,0.25,46,98.69
51,F4,5.75,0.25,60,98.69
52,C#5,5.75,0.125,46,98.69
53,B-2,5.875,0.125,35,98.69
54,E4,6.0,1.125,72,98.69
55,C#5,6.0,0.25,50,98.69
56,C#4,6.0,0.5,40,98.69
57,B-2,6.0,0.5,35,98.69
58,B-4,6.25,0.25,45,98.69
59,C#5,6.5,0.125,45,98.69
60,B-2,6.625,0.625,35,98.69
61,C#5,6.75,0.25,50,98.69
62,C#4,6.75,0.5,40,98.69
63,B-4,7.0,0.25,46,98.69
64,C#5,7.25,0.125,61,98.69
65,E4,7.25,0.25,60,98.69
66,F4,7.5,1.0,75,98.69
67,A2,7.5,0.25,49,98.69
68,F3,7.75,0.125,40,98.69
69,C4,7.75,0.125,54,98.69
70,E-4,7.75,0.125,54,98.69
71,F3,8.0,0.125,42,98.69
72,C4,8.0,0.125,54,98.69
73,E-4,8.0,0.125,54,98.69
74,F2,8.25,0.25,42,98.69
75,C4,8.25,0.125,54,98.69
76,E-4,8.25,0.125,54,98.69
77,F3,8.5,0.125,47,98.69
78,B-3,8.5,0.125,55,98.69
79,G4,8.5,0.125,55,98.69
80,F3,8.75,0.125,50,98.69
81,C4,8.75,0.125,58,98.69
82,A4,8.75,0.125,58,98.69
83,C5,8.875,0.125,64,98.69
84,B-2,9.0,0.25,54,98.69
85,C#4,9.0,0.125,67,98.69
86,B-4,9.0,0.125,67,98.69
87,F3,9.25,0.125,43,98.69
88,C4,9.25,0.125,58,98.69
89,A4,9.25,0.125,58,98.69
90,F3,9.5,0.125,46,98.69
91,C#4,9.5,0.125,58,98.69
92,B-4,9.5,0.125,58,98.69
93,E-2,9.75,0.25,58,98.69
94,F4,9.75,0.125,66,98.69
95,C#5,9.75,0.125,66,98.69
96,F#3,10.0,0.125,48,98.69
97,E-4,10.0,0.125,58,98.69
98,C5,10.0,0.125,58,98.69
99,F#3,10.25,0.125,48,98.69
100,C#4,10.25,0.125,64,98.69
101,B-4,10.25,0.125,64,98.69
102,F2,10.5,0.25,60,98.69
103,C#4,10.5,1.5,76,98.69
104,B-4,10.5,1.5,76,98.69
105,F3,10.75,0.125,49,98.69
106,F3,11.0,0.125,46,98.69
107,E4,11.25,0.75,66,98.69
108,F3,11.25,0.125,55,98.69
109,F3,11.5,0.125,46,98.69
110,F3,11.75,0.125,46,98.69
111,F3,12.0,0.25,56,98.69
112,C4,12.0,0.75,71,98.69
113,F4,12.0,0.75,71,98.69
114,A4,12.0,0.75,71,98.69
115,F#3,12.25,0.25,46,98.69
116,F3,12.5,0.125,48,98.69
117,F3,12.75,0.125,52,98.69
118,F3,13.0,0.125,46,98.69
119,F3,13.25,0.125,40,98.69
120,C#5,13.25,0.125,43,98.69
121,F5,13.25,0.125,43,98.69
122,B-2,13.375,0.125,35,98.69
123,F4,13.5,0.5,40,98.69
124,C#4,13.5,0.5,40,98.69
125,B-2,13.5,0.5,35,98.69
126,C#5,13.5,0.25,50,98.69
127,F5,13.5,0.25,50,98.69
128,C#5,13.75,0.25,45,98.69
129,B-4,13.75,0.25,45,98.69
130,F5,14.0,0.125,45,98.69
131,C#5,14.0,0.125,45,98.69
132,B-2,14.125,0.625,36,98.69
133,F4,14.25,0.5,41,98.69
134,C#4,14.25,0.5,41,98.69
135,C#5,14.25,0.25,51,98.69
136,F5,14.25,0.25,51,98.69
137,C#5,14.5,0.25,48,98.69
138,B-4,14.5,0.25,48,98.69
139,F5,14.75,0.125,48,98.69
140,C#5,14.75,0.125,48,98.69
141,B-2,14.875,0.125,37,98.69
142,F4,15.0,0.5,42,98.69
143,C#4,15.0,0.5,42,98.69
144,B-2,15.0,0.5,37,98.69
145,C#5,15.0,0.25,53,98.69
146,F5,15.0,0.25,53,98.69
147,C#5,15.25,0.25,50,98.69
148,B-4,15.25,0.25,50,98.69
149,F5,15.5,0.125,55,98.69
150,C#5,15.5,0.125,55,98.69
151,B-2,15.625,0.625,44,98.69
152,F4,15.75,0.5,53,98.69
153,C#4,15.75,0.5,53,98.69
154,C#5,15.75,0.25,66,98.69
155,F5,15.75,0.25,66,98.69
156,C#5,16.0,0.25,63,98.69
157,B-4,16.0,0.25,63,98.69
158,F5,16.25,0.125,68,98.69
159,C#5,16.25,0.125,68,98.69
160,E-3,16.5,0.75,69,98.69
161,G#4,16.5,0.75,69,98.69
162,F5,16.5,0.75,69,98.69
163,G#5,16.5,0.75,69,98.69
164,B-3,16.75,0.125,49,98.69
165,B-3,17.0,0.125,46,98.69
166,F3,17.25,0.5,60,98.69
167,B-3,17.25,0.125,55,98.69
168,F#4,17.25,0.5,59,98.69
169,E-5,17.25,0.5,59,98.69
170,F#5,17.25,0.5,59,98.69
171,B-3,17.5,0.125,46,98.69
172,F#3,17.75,0.25,60,98.69
173,B-3,17.75,0.125,46,98.69
174,F4,17.75,0.125,59,98.69
175,C#5,17.75,0.125,59,98.69
176,F5,17.75,0.125,59,98.69
177,G#3,18.0,0.375,60,98.69
178,F4,18.0,0.75,69,98.69
179,C#5,18.0,0.75,69,98.69
180,F5,18.0,0.75,69,98.69
181,G#3,18.25,229/1000,49,98.69
182,G#3,18.5,0.125,46,98.69
183,F#3,18.75,271/500,60,98.69
184,G#3,18.75,0.125,55,98.69
185,E-4,18.75,0.5,59,98.69
186,C5,18.75,0.5,59,98.69
187,E-5,18.75,0.5,59,98.69
188,G#3,19.0,0.125,46,98.69
189,G#3,19.25,0.125,46,98.69
190,G#4,19.5,1.5,66,98.69
191,F4,19.5,0.75,70,98.69
192,F5,19.5,0.75,70,98.69
193,F3,19.5,1.5,52,98.69
194,G#3,19.5,1.5,52,98.69
195,C#5,20.25,0.5,69,98.69
196,C#4,20.25,0.5,55,98.69
197,C5,20.75,0.188,65,98.69
198,C4,20.75,0.188,52,98.69
199,F#3,21.0,1.5,49,98.69
200,C4,21.0,0.5,55,98.69
201,G#4,21.0,0.5,69,98.69
202,C5,21.0,0.5,69,98.69
203,B-3,21.5,0.188,52,98.69
204,F#4,21.5,0.188,65,98.69
205,B-4,21.5,0.188,65,98.69
206,C#5,21.75,0.5,69,98.69
207,C#4,21.75,0.5,55,98.69
208,B-3,22.25,0.188,52,98.69
209,F#4,22.25,0.188,65,98.69
210,B-4,22.25,0.188,65,98.69
211,C#3,22.5,1.5,49,98.69
212,B-3,22.5,0.5,55,98.69
213,F#4,22.5,0.5,69,98.69
214,B-4,22.5,0.5,69,98.69
215,G#3,23.0,0.188,52,98.69
216,F4,23.0,0.188,65,98.69
217,G#4,23.0,0.188,65,98.69
218,C#5,23.25,0.5,69,98.69
219,C#4,23.25,0.5,55,98.69
220,G#3,23.75,0.188,52,98.69
221,F4,23.75,0.188,65,98.69
222,G#4,23.75,0.188,65,98.69
223,F4,24.0,0.5,69,98.69
224,G#4,24.0,0.5,69,98.69
225,G#2,24.0,1.5,45,98.69
226,G#3,24.0,1.5,45,98.69
227,A4,24.5,0.25,61,98.69
228,C4,24.75,0.5,53,98.69
229,F#4,24.75,0.5,53,98.69
230,B-4,24.75,0.5,53,98.69
231,E-4,25.25,0.188,54,98.69
232,F#4,25.25,0.188,54,98.69
233,C#2,25.5,1.5,41,98.69
234,F#4,25.5,0.75,52,98.69
235,E-4,25.5,0.75,52,98.69
236,C4,25.5,0.75,52,98.69
237,C#4,26.25,0.75,45,98.69
238,F4,26.25,0.75,45,98.69
239,F3,27.0,0.25,43,98.69
240,F#3,27.25,0.25,41,98.69
241,F3,27.5,0.25,38,98.69
242,E-3,27.75,0.25,41,98.69
243,C#3,28.0,0.25,38,98.69
244,C3,28.25,0.125,38,98.69
245,C#5,28.25,0.125,43,98.69
246,F5,28.25,0.125,43,98.69
247,B-2,28.375,0.125,35,98.69
248,F4,28.5,0.5,40,98.69
249,C#4,28.5,0.5,40,98.69
250,B-2,28.5,0.5,35,98.69
251,C#5,28.5,0.25,50,98.69
252,F5,28.5,0.25,50,98.69
253,C#5,28.75,0.25,45,98.69
254,B-4,28.75,0.25,45,98.69
255,F5,29.0,0.125,45,98.69
256,C#5,29.0,0.125,45,98.69
257,B-2,29.125,0.625,35,98.69
258,F4,29.25,0.5,40,98.69
259,C#4,29.25,0.5,40,98.69
260,C#5,29.25,0.25,50,98.69
261,F5,29.25,0.25,50,98.69
262,C#5,29.5,0.25,46,98.69
263,B-4,29.5,0.25,46,98.69
264,F5,29.75,0.125,46,98.69
265,C#5,29.75,0.125,46,98.69
266,B-2,29.875,0.125,35,98.69
267,F4,30.0,0.5,40,98.69
268,C#4,30.0,0.5,40,98.69
269,B-2,30.0,0.5,35,98.69
270,C#5,30.0,0.25,50,98.69
271,F5,30.0,0.25,50,98.69
272,C#5,30.25,0.25,45,98.69
273,B-4,30.25,0.25,45,98.69
274,F5,30.5,0.125,45,98.69
275,C#5,30.5,0.125,45,98.69
276,B-2,30.625,0.625,35,98.69
277,F4,30.75,0.5,40,98.69
278,C#4,30.75,0.5,40,98.69
279,C#5,30.75,0.25,50,98.69
280,F5,30.75,0.25,50,98.69
281,C#5,31.0,0.25,46,98.69
282,B-4,31.0,0.25,46,98.69
283,F5,31.25,0.125,46,98.69
284,C#5,31.25,0.125,46,98.69
285,B-2,31.375,0.125,35,98.69
286,F#4,31.5,1.25,71,98.69
287,C#5,31.5,0.25,50,98.69
288,C#4,31.5,0.5,40,98.69
289,B-2,31.5,0.5,35,98.69
290,B-4,31.75,0.25,45,98.69
291,C#5,32.0,0.125,45,98.69
292,B-2,32.125,0.625,35,98.69
293,C#5,32.25,0.25,50,98.69
294,C#4,32.25,0.5,40,98.69
295,B-4,32.5,0.25,46,98.69
296,F4,32.75,0.25,60,98.69
297,C#5,32.75,0.125,46,98.69
298,B-2,32.875,0.125,35,98.69
299,E4,33.0,1.125,72,98.69
300,C#5,33.0,0.25,50,98.69
301,C#4,33.0,0.5,40,98.69
302,B-2,33.0,0.5,35,98.69
303,B-4,33.25,0.25,45,98.69
304,C#5,33.5,0.125,45,98.69
305,B-2,33.625,0.625,35,98.69
306,C#5,33.75,0.25,50,98.69
307,C#4,33.75,0.5,40,98.69
308,B-4,34.0,0.25,46,98.69
309,C#5,34.25,0.125,61,98.69
310,E4,34.25,0.25,60,98.69
311,F4,34.5,1.0,75,98.69
312,A2,34.5,0.25,49,98.69
313,F3,34.75,0.125,40,98.69
314,C4,34.75,0.125,54,98.69
315,E-4,34.75,0.125,54,98.69
316,F3,35.0,0.125,42,98.69
317,C4,35.0,0.125,54,98.69
318,E-4,35.0,0.125,54,98.69
319,F2,35.25,0.25,42,98.69
320,C4,35.25,0.125,54,98.69
321,E-4,35.25,0.125,54,98.69
322,F3,35.5,0.125,47,98.69
323,B-3,35.5,0.125,55,98.69
324,G4,35.5,0.125,55,98.69
325,F3,35.75,0.125,50,98.69
326,C4,35.75,0.125,58,98.69
327,A4,35.75,0.125,58,98.69
328,C5,35.875,0.125,64,98.69
329,B-2,36.0,0.25,54,98.69
330,C#4,36.0,0.125,67,98.69
331,B-4,36.0,0.125,67,98.69
332,F3,36.25,0.125,43,98.69
333,C4,36.25,0.125,58,98.69
334,A4,36.25,0.125,58,98.69
335,F3,36.5,0.125,46,98.69
336,C#4,36.5,0.125,58,98.69
337,B-4,36.5,0.125,58,98.69
338,E-2,36.75,0.25,58,98.69
339,F4,36.75,0.125,66,98.69
340,C#5,36.75,0.125,66,98.69
341,F#3,37.0,0.125,48,98.69
342,E-4,37.0,0.125,58,98.69
343,C5,37.0,0.125,58,98.69
344,F#3,37.25,0.125,48,98.69
345,C#4,37.25,0.125,64,98.69
346,B-4,37.25,0.125,64,98.69
347,F2,37.5,0.25,60,98.69
348,C#4,37.5,1.5,76,98.69
349,B-4,37.5,1.5,76,98.69
350,F3,37.75,0.125,49,98.69
351,F3,38.0,0.125,46,98.69
352,E4,38.25,0.75,66,98.69
353,F3,38.25,0.125,55,98.69
354,F3,38.5,0.125,46,98.69
355,F3,38.75,0.125,46,98.69
356,F3,39.0,0.25,56,98.69
357,C4,39.0,0.75,71,98.69
358,F4,39.0,0.75,71,98.69
359,A4,39.0,0.75,71,98.69
360,F#3,39.25,0.25,46,98.69
361,F3,39.5,0.125,48,98.69
362,F3,39.75,0.125,52,98.69
363,F3,40.0,0.125,46,98.69
364,F3,40.25,0.125,40,98.69
365,C#5,40.25,0.125,43,98.69
366,F5,40.25,0.125,43,98.69
367,B-2,40.375,0.125,35,98.69
368,F4,40.5,0.5,40,98.69
369,C#4,40.5,0.5,40,98.69
370,B-2,40.5,0.5,35,98.69
371,C#5,40.5,0.25,50,98.69
372,F5,40.5,0.25,50,98.69
373,C#5,40.75,0.25,45,98.69
374,B-4,40.75,0.25,45,98.69
375,F5,41.0,0.125,45,98.69
376,C#5,41.0,0.125,45,98.69
377,B-2,41.125,0.625,36,98.69
378,F4,41.25,0.5,41,98.69
379,C#4,41.25,0.5,41,98.69
380,C#5,41.25,0.25,51,98.69
381,F5,41.25,0.25,51,98.69
382,C#5,41.5,0.25,48,98.69
383,B-4,41.5,0.25,48,98.69
384,F5,41.75,0.125,48,98.69
385,C#5,41.75,0.125,48,98.69
386,B-2,41.875,0.125,37,98.69
387,F4,42.0,0.5,42,98.69
388,C#4,42.0,0.5,42,98.69
389,B-2,42.0,0.5,37,98.69
390,C#5,42.0,0.25,53,98.69
391,F5,42.0,0.25,53,98.69
392,C#5,42.25,0.25,50,98.69
393,B-4,42.25,0.25,50,98.69
394,F5,42.5,0.125,55,98.69
395,C#5,42.5,0.125,55,98.69
396,B-2,42.625,0.625,44,98.69
397,F4,42.75,0.5,53,98.69
398,C#4,42.75,0.5,53,98.69
399,C#5,42.75,0.25,66,98.69
400,F5,42.75,0.25,66,98.69
401,C#5,43.0,0.25,63,98.69
402,B-4,43.0,0.25,63,98.69
403,F5,43.25,0.125,68,98.69
404,C#5,43.25,0.125,68,98.69
405,E-3,43.5,0.75,69,98.69
406,G#4,43.5,0.75,69,98.69
407,F5,43.5,0.75,69,98.69
408,G#5,43.5,0.75,69,98.69
409,B-3,43.75,0.125,49,98.69
410,B-3,44.0,0.125,46,98.69
411,F3,44.25,0.5,60,98.69
412,B-3,44.25,0.125,55,98.69
413,F#4,44.25,0.5,59,98.69
414,E-5,44.25,0.5,59,98.69
415,F#5,44.25,0.5,59,98.69
416,B-3,44.5,0.125,46,98.69
417,F#3,44.75,0.25,60,98.69
418,B-3,44.75,0.125,46,98.69
419,F4,44.75,0.125,59,98.69
420,C#5,44.75,0.125,59,98.69
421,F5,44.75,0.125,59,98.69
422,G#3,45.0,0.375,60,98.69
423,F4,45.0,0.75,69,98.69
424,C#5,45.0,0.75,69,98.69
425,F5,45.0,0.75,69,98.69
426,G#3,45.25,229/1000,49,98.69
427,G#3,45.5,0.125,46,98.69
428,F#3,45.75,271/500,60,98.69
429,G#3,45.75,0.125,55,98.69
430,E-4,45.75,0.5,59,98.69
431,C5,45.75,0.5,59,98.69
432,E-5,45.75,0.5,59,98.69
433,G#3,46.0,0.125,46,98.69
434,G#3,46.25,0.125,46,98.69
435,G#4,46.5,1.5,66,98.69
436,F4,46.5,0.75,70,98.69
437,F5,46.5,0.75,70,98.69
438,F3,46.5,1.5,52,98.69
439,G#3,46.5,1.5,52,98.69
440,C#5,47.25,0.5,69,98.69
441,C#4,47.25,0.5,55,98.69
442,C5,47.75,0.188,65,98.69
443,C4,47.75,0.188,52,98.69
444,F#3,48.0,1.5,49,98.69
445,C4,48.0,0.5,55,98.69
446,G#4,48.0,0.5,69,98.69
447,C5,48.0,0.5,69,98.69
448,B-3,48.5,0.188,52,98.69
449,F#4,48.5,0.188,65,98.69
450,B-4,48.5,0.188,65,98.69
451,C#5,48.75,0.5,69,98.69
452,C#4,48.75,0.5,55,98.69
453,B-3,49.25,0.188,52,98.69
454,F#4,49.25,0.188,65,98.69
455,B-4,49.25,0.188,65,98.69
456,C#3,49.5,1.5,49,98.69
457,B-3,49.5,0.5,55,98.69
458,F#4,49.5,0.5,69,98.69
459,B-4,49.5,0.5,69,98.69
460,G#3,50.0,0.188,52,98.69
461,F4,50.0,0.188,65,98.69
462,G#4,50.0,0.188,65,98.69
463,C#5,50.25,0.5,69,98.69
464,C#4,50.25,0.5,55,98.69
465,G#3,50.75,0.188,52,98.69
466,F4,50.75,0.188,65,98.69
467,G#4,50.75,0.188,65,98.69
468,F4,51.0,0.5,69,98.69
469,G#4,51.0,0.5,69,98.69
470,G#2,51.0,1.5,45,98.69
471,G#3,51.0,1.5,45,98.69
472,A4,51.5,0.25,61,98.69
473,C4,51.75,0.5,53,98.69
474,F#4,51.75,0.5,53,98.69
475,B-4,51.75,0.5,53,98.69
476,E-4,52.25,0.188,54,98.69
477,F#4,52.25,0.188,54,98.69
478,C#2,52.5,1.5,41,98.69
479,F#4,52.5,0.75,52,98.69
480,E-4,52.5,0.75,52,98.69
481,C4,52.5,0.75,52,98.69
482,C#4,53.25,0.75,45,98.69
483,F4,53.25,0.75,45,98.69
484,F3,54.0,0.25,43,98.69
485,F#3,54.25,0.25,41,98.69
486,F3,54.5,0.25,38,98.69
487,E-3,54.75,0.25,41,98.69
488,C#3,55.0,0.25,38,98.69
489,B2,55.25,0.25,38,98.69
490,E-4,55.25,0.125,43,98.69
491,F4,55.25,0.125,43,98.69
492,B-2,55.5,0.5,40,98.69
493,D4,55.5,0.25,50,98.69
494,F4,55.5,0.25,50,98.69
495,B-4,55.75,0.25,45,98.69
496,B-3,55.75,0.25,45,98.69
497,F4,56.0,0.125,45,98.69
498,D4,56.0,0.125,45,98.69
499,B-2,56.25,0.5,40,98.69
500,D4,56.25,0.25,50,98.69
501,F4,56.25,0.25,50,98.69
502,B-4,56.5,0.25,46,98.69
503,B-3,56.5,0.25,46,98.69
504,F4,56.75,0.125,46,98.69
505,D4,56.75,0.125,46,98.69
506,E-2,57.0,0.5,49,98.69
507,B-3,57.0,0.75,46,98.69
508,F4,57.0,0.75,46,98.69
509,G#4,57.0,0.75,46,98.69
510,B-2,57.25,0.125,39,98.69
511,B-2,57.5,0.125,38,98.69
512,F#2,57.75,0.5,45,98.69
513,B-2,57.75,0.125,45,98.69
514,E-4,57.75,0.25,46,98.69
515,F#4,57.75,0.25,46,98.69
516,B-2,58.0,0.125,42,98.69
517,B-2,58.25,0.125,42,98.69
518,E-4,58.25,0.125,43,98.69
519,F#4,58.25,0.125,43,98.69
520,B-2,58.5,0.5,40,98.69
521,D4,58.5,0.25,50,98.69
522,F4,58.5,0.25,50,98.69
523,B-4,58.75,0.25,45,98.69
524,B-3,58.75,0.25,45,98.69
525,F4,59.0,0.125,45,98.69
526,D4,59.0,0.125,45,98.69
527,B-2,59.25,0.5,40,98.69
528,D4,59.25,0.25,50,98.69
529,F4,59.25,0.25,50,98.69
530,B-4,59.5,0.25,46,98.69
531,B-3,59.5,0.25,46,98.69
532,F4,59.75,0.125,46,98.69
533,D4,59.75,0.125,46,98.69
534,E-2,60.0,0.5,49,98.69
535,B-3,60.0,0.75,46,98.69
536,F4,60.0,0.75,46,98.69
537,G#4,60.0,0.75,46,98.69
538,B-2,60.25,0.125,39,98.69
539,B-2,60.5,0.125,38,98.69
540,C3,60.75,0.125,45,98.69
541,E-4,60.75,0.25,46,98.69
542,F#4,60.75,0.25,46,98.69
543,C3,61.0,0.125,42,98.69
544,C3,61.25,0.125,48,98.69
545,F#4,61.25,0.125,49,98.69
546,E-4,61.25,0.125,49,98.69
547,B-4,61.25,0.125,49,98.69
548,F4,61.5,0.25,57,98.69
549,G#4,61.5,0.25,57,98.69
550,F2,61.5,0.5,42,98.69
551,C#3,61.5,0.5,42,98.69
552,C#5,61.75,0.25,51,98.69
553,C#4,61.75,0.25,51,98.69
554,G#4,62.0,0.125,51,98.69
555,F4,62.0,0.125,51,98.69
556,F4,62.25,0.25,58,98.69
557,G#4,62.25,0.25,58,98.69
558,C#2,62.25,0.5,42,98.69
559,C#3,62.25,0.5,42,98.69
560,C#5,62.5,0.25,53,98.69
561,C#4,62.5,0.25,53,98.69
562,G#4,62.75,0.125,53,98.69
563,F4,62.75,0.125,53,98.69
564,F#2,63.0,0.5,58,98.69
565,F4,63.0,0.75,54,98.69
566,C#4,63.0,0.75,54,98.69
567,G#4,63.0,0.75,54,98.69
568,B4,63.0,0.75,54,98.69
569,C#3,63.25,0.125,45,98.69
570,C#3,63.5,0.125,45,98.69
571,B-2,63.75,0.5,58,98.69
572,C#3,63.75,0.125,53,98.69
573,F#4,63.75,0.25,54,98.69
574,B-4,63.75,0.25,54,98.69
575,C#3,64.0,0.125,50,98.69
576,C#3,64.25,0.125,58,98.69
577,F#4,64.25,0.125,59,98.69
578,B-4,64.25,0.125,59,98.69
579,F4,64.5,0.25,69,98.69
580,G#4,64.5,0.25,69,98.69
581,F2,64.5,0.5,51,98.69
582,C#3,64.5,0.5,51,98.69
583,C#5,64.75,0.25,62,98.69
584,C#4,64.75,0.25,62,98.69
585,G#4,65.0,0.125,63,98.69
586,F4,65.0,0.125,63,98.69
587,F4,65.25,0.25,74,98.69
588,G#4,65.25,0.25,74,98.69
589,C#2,65.25,0.5,54,98.69
590,C#3,65.25,0.5,54,98.69
591,C#5,65.5,0.25,68,98.69
592,C#4,65.5,0.25,68,98.69
593,G#4,65.75,0.125,69,98.69
594,F4,65.75,0.125,69,98.69
595,F#2,66.0,0.5,77,98.69
596,F4,66.0,0.75,71,98.69
597,D4,66.0,0.75,71,98.69
598,G#4,66.0,0.75,71,98.69
599,B4,66.0,0.75,71,98.69
600,D3,66.25,0.125,61,98.69
601,D3,66.5,0.125,61,98.69
602,E-3,66.75,0.125,74,98.69
603,E-4,66.75,0.25,75,98.69
604,F#4,66.75,0.25,75,98.69
605,B-4,66.75,0.25,75,98.69
606,E-3,67.0,0.125,71,98.69
607,E-3,67.25,0.125,71,98.69
608,A2,67.5,0.25,89,98.69
609,F4,67.5,93/125,83,98.69
610,C5,67.5,93/125,83,98.69
611,F5,67.5,93/125,83,98.69
612,F3,67.75,0.125,70,98.69
613,F3,68.0,0.125,67,98.69
614,F2,68.25,0.25,80,98.69
615,C5,68.25,0.5,75,98.69
616,A4,68.25,0.5,75,98.69
617,F3,68.5,0.125,70,98.69
618,F3,68.75,0.125,71,98.69
619,C5,68.75,0.125,68,98.69
620,A4,68.75,0.125,68,98.69
621,F4,68.75,0.125,68,98.69
622,B-2,69.0,0.25,88,98.69
623,F#4,69.0,0.5,83,98.69
624,C5,69.0,0.5,83,98.69
625,E-5,69.0,0.5,83,98.69
626,F3,69.25,0.125,73,98.69
627,F3,69.5,0.125,72,98.69
628,C#5,69.5,0.25,71,98.69
629,B-4,69.5,0.25,71,98.69
630,E4,69.5,0.25,71,98.69
631,F2,69.75,0.25,82,98.69
632,C5,69.75,0.75,70,98.69
633,A4,69.75,0.75,70,98.69
634,F4,69.75,0.75,70,98.69
635,F3,70.0,0.125,71,98.69
636,F3,70.25,0.125,71,98.69
637,A2,70.5,0.25,89,98.69
638,F4,70.5,93/125,83,98.69
639,C5,70.5,93/125,83,98.69
640,F5,70.5,93/125,83,98.69
641,F3,70.75,0.125,70,98.69
642,F3,71.0,0.125,67,98.69
643,F2,71.25,0.25,80,98.69
644,C5,71.25,0.5,75,98.69
645,A4,71.25,0.5,75,98.69
646,F3,71.5,0.125,70,98.69
647,F3,71.75,0.125,71,98.69
648,C5,71.75,0.125,68,98.69
649,A4,71.75,0.125,68,98.69
650,F4,71.75,0.125,68,98.69
651,B-2,72.0,0.25,88,98.69
652,F#4,72.0,0.5,83,98.69
653,C5,72.0,0.5,83,98.69
654,E-5,72.0,0.5,83,98.69
655,F3,72.25,0.125,73,98.69
656,F3,72.5,0.125,72,98.69
657,C#5,72.5,0.25,71,98.69
658,B-4,72.5,0.25,71,98.69
659,E4,72.5,0.25,71,98.69
660,F2,72.75,0.25,82,98.69
661,C5,72.75,0.75,70,98.69
662,A4,72.75,0.75,70,98.69
663,F4,72.75,0.75,70,98.69
664,F3,73.0,0.125,71,98.69
665,F3,73.25,0.125,71,98.69
666,A2,73.5,0.25,89,98.69
667,F4,73.5,93/125,83,98.69
668,C5,73.5,93/125,83,98.69
669,F5,73.5,93/125,83,98.69
670,F3,73.75,0.125,68,98.69
671,F3,74.0,0.125,64,98.69
672,F2,74.25,0.25,75,98.69
673,C5,74.25,0.5,70,98.69
674,A4,74.25,0.5,70,98.69
675,F3,74.5,0.125,64,98.69
676,F3,74.75,0.125,63,98.69
677,C5,74.75,0.125,61,98.69
678,A4,74.75,0.125,61,98.69
679,F4,74.75,0.125,61,98.69
680,B-2,75.0,1.5,77,98.69
681,F#4,75.0,0.5,74,98.69
682,E-5,75.0,0.5,74,98.69
683,C#5,75.5,0.25,58,98.69
684,F4,75.5,0.25,58,98.69
685,F#4,75.75,0.5,54,98.69
686,C5,75.75,0.5,54,98.69
687,E-4,75.75,0.5,54,98.69
688,C#4,76.25,0.25,52,98.69
689,F4,76.25,0.25,52,98.69
690,B-4,76.25,0.25,52,98.69
691,B-2,76.5,0.75,77,98.69
692,E-4,76.5,0.5,58,98.69
693,C4,76.5,0.5,58,98.69
694,G#4,76.5,0.5,58,98.69
695,B-3,77.0,0.25,49,98.69
696,F#4,77.0,0.25,49,98.69
697,C#4,77.0,0.25,49,98.69
698,C3,77.25,0.75,58,98.69
699,C4,77.25,0.5,47,98.69
700,F4,77.25,0.5,47,98.69
701,A3,77.25,0.5,47,98.69
702,B-3,77.75,0.188,45,98.69
703,G3,77.75,0.188,45,98.69
704,E4,77.75,0.188,45,98.69
705,F2,78.0,1.5,52,98.69
706,G3,78.0,0.75,40,98.69
707,B-3,78.0,0.75,40,98.69
708,E4,78.0,0.75,40,98.69
709,A3,78.75,0.75,41,98.69
710,F4,78.75,0.75,41,98.69
711,F3,79.5,0.25,43,98.69
712,F#3,79.75,0.25,41,98.69
713,F3,80.0,0.25,38,98.69
714,E-3,80.25,0.25,41,98.69
715,C#3,80.5,0.25,38,98.69
716,C3,80.75,0.25,38,98.69
717,C#5,80.75,0.125,43,98.69
718,F5,80.75,0.125,43,98.69
719,F4,81.0,0.5,40,98.69
720,C#4,81.0,0.5,40,98.69
721,C#5,81.0,0.25,50,98.69
722,F5,81.0,0.25,50,98.69
723,C#5,81.25,0.25,45,98.69
724,B-4,81.25,0.25,45,98.69
725,F5,81.5,0.125,45,98.69
726,C#5,81.5,0.125,45,98.69
727,B-2,81.625,0.625,35,98.69
728,F4,81.75,0.5,40,98.69
729,C#4,81.75,0.5,40,98.69
730,C#5,81.75,0.25,50,98.69
731,F5,81.75,0.25,50,98.69
732,C#5,82.0,0.25,46,98.69
733,B-4,82.0,0.25,46,98.69
734,F5,82.25,0.125,46,98.69
735,C#5,82.25,0.125,46,98.69
736,B-2,82.375,0.125,35,98.69
737,F4,82.5,0.5,40,98.69
738,C#4,82.5,0.5,40,98.69
739,B-2,82.5,0.5,35,98.69
740,C#5,82.5,0.25,50,98.69
741,F5,82.5,0.25,50,98.69
742,C#5,82.75,0.25,45,98.69
743,B-4,82.75,0.25,45,98.69
744,F5,83.0,0.125,45,98.69
745,C#5,83.0,0.125,45,98.69
746,B-2,83.125,0.625,35,98.69
747,F4,83.25,0.5,40,98.69
748,C#4,83.25,0.5,40,98.69
749,C#5,83.25,0.25,50,98.69
750,F5,83.25,0.25,50,98.69
751,C#5,83.5,0.25,46,98.69
752,B-4,83.5,0.25,46,98.69
753,F5,83.75,0.125,46,98.69
754,C#5,83.75,0.125,46,98.69
755,B-2,83.875,0.125,35,98.69
756,F#4,84.0,1.25,71,98.69
757,C#5,84.0,0.25,50,98.69
758,C#4,84.0,0.5,40,98.69
759,B-2,84.0,0.5,35,98.69
760,B-4,84.25,0.25,45,98.69
761,C#5,84.5,0.125,45,98.69
762,B-2,84.625,0.625,35,98.69
763,C#5,84.75,0.25,50,98.69
764,C#4,84.75,0.5,40,98.69
765,B-4,85.0,0.25,46,98.69
766,F4,85.25,0.25,60,98.69
767,C#5,85.25,0.125,46,98.69
768,B-2,85.375,0.125,35,98.69
769,E4,85.5,1.125,72,98.69
770,C#5,85.5,0.25,50,98.69
771,C#4,85.5,0.5,40,98.69
772,B-2,85.5,0.5,35,98.69
773,B-4,85.75,0.25,45,98.69
774,C#5,86.0,0.125,45,98.69
775,B-2,86.125,0.625,35,98.69
776,C#5,86.25,0.25,50,98.69
777,C#4,86.25,0.5,40,98.69
778,B-4,86.5,0.25,46,98.69
779,C#5,86.75,0.125,61,98.69
780,E4,86.75,0.25,60,98.69
781,F4,87.0,1.0,75,98.69
782,A2,87.0,0.25,49,98.69
783,F3,87.25,0.125,40,98.69
784,C4,87.25,0.125,54,98.69
785,E-4,87.25,0.125,54,98.69
786,F3,87.5,0.125,42,98.69
787,C4,87.5,0.125,54,98.69
788,E-4,87.5,0.125,54,98.69
789,F2,87.75,0.25,42,98.69
790,C4,87.75,0.125,54,98.69
791,E-4,87.75,0.125,54,98.69
792,F3,88.0,0.125,47,98.69
793,B-3,88.0,0.125,55,98.69
794,G4,88.0,0.125,55,98.69
795,F3,88.25,0.125,50,98.69
796,C4,88.25,0.125,58,98.69
797,A4,88.25,0.125,58,98.69
798,C5,88.375,0.125,64,98.69
799,B-2,88.5,0.25,54,98.69
800,C#4,88.5,0.125,67,98.69
801,B-4,88.5,0.125,67,98.69
802,F3,88.75,0.125,43,98.69
803,C4,88.75,0.125,58,98.69
804,A4,88.75,0.125,58,98.69
805,F3,89.0,0.125,46,98.69
806,C#4,89.0,0.125,58,98.69
807,B-4,89.0,0.125,58,98.69
808,E-2,89.25,0.25,58,98.69
809,F4,89.25,0.125,66,98.69
810,C#5,89.25,0.125,66,98.69
811,F#3,89.5,0.125,48,98.69
812,E-4,89.5,0.125,58,98.69
813,C5,89.5,0.125,58,98.69
814,F#3,89.75,0.125,48,98.69
815,C#4,89.75,0.125,64,98.69
816,B-4,89.75,0.125,64,98.69
817,F2,90.0,0.25,60,98.69
818,C#4,90.0,1.5,76,98.69
819,B-4,90.0,1.5,76,98.69
820,F3,90.25,0.125,49,98.69
821,F3,90.5,0.125,46,98.69
822,E4,90.75,0.75,66,98.69
823,F3,90.75,0.125,55,98.69
824,F3,91.0,0.125,46,98.69
825,F3,91.25,0.125,46,98.69
826,F3,91.5,0.25,56,98.69
827,C4,91.5,0.75,71,98.69
828,F4,91.5,0.75,71,98.69
829,A4,91.5,0.75,71,98.69
830,F#3,91.75,0.25,46,98.69
831,F3,92.0,0.125,48,98.69
832,F3,92.25,0.125,52,98.69
833,F3,92.5,0.125,46,98.69
834,F3,92.75,0.125,40,98.69
835,C#5,92.75,0.125,43,98.69
836,F5,92.75,0.125,43,98.69
837,B-2,92.875,0.125,35,98.69
838,F4,93.0,0.5,40,98.69
839,C#4,93.0,0.5,40,98.69
840,B-2,93.0,0.5,35,98.69
841,C#5,93.0,0.25,50,98.69
842,F5,93.0,0.25,50,98.69
843,C#5,93.25,0.25,45,98.69
844,B-4,93.25,0.25,45,98.69
845,F5,93.5,0.125,45,98.69
846,C#5,93.5,0.125,45,98.69
847,B-2,93.625,0.625,36,98.69
848,F4,93.75,0.5,41,98.69
849,C#4,93.75,0.5,41,98.69
850,C#5,93.75,0.25,51,98.69
851,F5,93.75,0.25,51,98.69
852,C#5,94.0,0.25,48,98.69
853,B-4,94.0,0.25,48,98.69
854,F5,94.25,0.125,48,98.69
855,C#5,94.25,0.125,48,98.69
856,B-2,94.375,0.125,37,98.69
857,F4,94.5,0.5,42,98.69
858,C#4,94.5,0.5,42,98.69
859,B-2,94.5,0.5,37,98.69
860,C#5,94.5,0.25,53,98.69
861,F5,94.5,0.25,53,98.69
862,C#5,94.75,0.25,50,98.69
863,B-4,94.75,0.25,50,98.69
864,F5,95.0,0.125,55,98.69
865,C#5,95.0,0.125,55,98.69
866,B-2,95.125,0.625,44,98.69
867,F4,95.25,0.5,53,98.69
868,C#4,95.25,0.5,53,98.69
869,C#5,95.25,0.25,66,98.69
870,F5,95.25,0.25,66,98.69
871,C#5,95.5,0.25,63,98.69
872,B-4,95.5,0.25,63,98.69
873,F5,95.75,0.125,68,98.69
874,C#5,95.75,0.125,68,98.69
875,D4,96.0,0.75,69,98.69
876,E-3,96.0,1.5,69,98.69
877,G#4,96.0,0.75,69,98.69
878,F5,96.0,0.75,69,98.69
879,G#5,96.0,0.75,69,98.69
880,B3,96.25,0.125,49,98.69
881,B3,96.5,0.125,46,98.69
882,B3,96.75,0.125,55,98.69
883,F#4,96.75,0.5,59,98.69
884,E-5,96.75,0.5,59,98.69
885,F#5,96.75,0.5,59,98.69
886,B3,97.0,0.125,46,98.69
887,B3,97.25,0.125,46,98.69
888,F4,97.25,0.125,59,98.69
889,C#5,97.25,0.125,59,98.69
890,F5,97.25,0.125,59,98.69
891,D4,97.5,0.75,60,98.69
892,E-3,97.5,1.5,69,98.69
893,F4,97.5,0.75,69,98.69
894,G#4,97.5,0.75,69,98.69
895,F5,97.5,0.75,69,98.69
896,B-3,97.75,0.125,49,98.69
897,B-3,98.0,0.125,46,98.69
898,E-4,98.25,0.75,60,98.69
899,B-3,98.25,0.125,55,98.69
900,E-4,98.25,0.5,61,98.69
901,E-5,98.25,0.5,61,98.69
902,B-3,98.5,0.125,46,98.69
903,B-3,98.75,0.125,46,98.69
904,B-4,99.0,1.5,66,98.69
905,F#3,99.0,1.5,49,98.69
906,B-3,99.0,1.5,56,98.69
907,F#4,99.0,0.75,70,98.69
908,F#5,99.0,0.75,70,98.69
909,E-5,99.75,0.5,69,98.69
910,E-4,99.75,0.5,55,98.69
911,C#5,100.25,0.188,65,98.69
912,C#4,100.25,0.188,52,98.69
913,C#4,100.5,0.5,55,98.69
914,F#3,100.5,1.5,49,98.69
915,B-4,100.5,0.5,69,98.69
916,C#5,100.5,0.5,69,98.69
917,C5,101.0,0.188,65,98.69
918,C4,101.0,0.188,52,98.69
919,E-5,101.25,0.5,69,98.69
920,E-4,101.25,0.5,55,98.69
921,C5,101.75,0.188,65,98.69
922,C4,101.75,0.188,52,98.69
923,F4,102.0,1.5,69,98.69
924,C5,102.0,0.5,69,98.69
925,F3,102.0,1.5,49,98.69
926,C4,102.0,0.5,55,98.69
927,B-4,102.5,0.188,65,98.69
928,B-3,102.5,0.188,52,98.69
929,C#5,102.75,0.5,69,98.69
930,C#4,102.75,0.75,55,98.69
931,B-4,103.25,0.188,65,98.69
932,F2,103.5,1.5,41,98.69
933,C#4,103.5,0.5,55,98.69
934,F4,103.5,0.5,69,98.69
935,B-4,103.5,0.5,69,98.69
936,A4,104.0,229/1000,61,98.69
937,C4,104.0,0.125,52,98.69
938,A4,104.25,0.75,69,98.69
939,F4,104.25,0.5,56,98.69
940,C#5,104.25,0.5,56,98.69
941,E-4,104.75,0.188,54,98.69
942,C5,104.75,0.188,54,98.69
943,B-2,105.0,1.5,41,98.69
944,C5,105.0,0.75,52,98.69
945,A4,105.0,0.75,52,98.69
946,E-4,105.0,0.75,52,98.69
947,C#4,105.75,0.75,45,98.69
948,B-4,105.75,0.75,45,98.69
949,F3,106.5,0.25,43,98.69
950,F#3,106.75,0.25,41,98.69
951,F3,107.0,0.25,38,98.69
952,E-3,107.25,0.25,41,98.69
953,C#3,107.5,0.25,38,98.69
954,C3,107.75,0.25,38,98.69
955,E-4,107.75,0.125,43,98.69
956,F4,107.75,0.125,43,98.69
957,B-2,108.0,0.5,40,98.69
958,D4,108.0,0.25,50,98.69
959,F4,108.0,0.25,50,98.69
960,B-4,108.25,0.25,45,98.69
961,B-3,108.25,0.25,45,98.69
962,F4,108.5,0.125,45,98.69
963,D4,108.5,0.125,45,98.69
964,B-2,108.75,0.5,40,98.69
965,D4,108.75,0.25,50,98.69
966,F4,108.75,0.25,50,98.69
967,B-4,109.0,0.25,46,98.69
968,B-3,109.0,0.25,46,98.69
969,F4,109.25,0.125,46,98.69
970,D4,109.25,0.125,46,98.69
971,E-2,109.5,0.5,49,98.69
972,B-3,109.5,0.75,46,98.69
973,F4,109.5,0.75,46,98.69
974,G#4,109.5,0.75,46,98.69
975,B-2,109.75,0.125,39,98.69
976,B-2,110.0,0.125,38,98.69
977,F#2,110.25,0.5,45,98.69
978,B-2,110.25,0.125,45,98.69
979,E-4,110.25,0.25,46,98.69
980,F#4,110.25,0.25,46,98.69
981,B-2,110.5,0.125,42,98.69
982,B-2,110.75,0.125,42,98.69
983,E-4,110.75,0.125,43,98.69
984,F#4,110.75,0.125,43,98.69
985,B-2,111.0,0.5,40,98.69
986,D4,111.0,0.25,50,98.69
987,F4,111.0,0.25,50,98.69
988,B-4,111.25,0.25,45,98.69
989,B-3,111.25,0.25,45,98.69
990,F4,111.5,0.125,45,98.69
991,D4,111.5,0.125,45,98.69
992,B-2,111.75,0.5,40,98.69
993,D4,111.75,0.25,50,98.69
994,F4,111.75,0.25,50,98.69
995,B-4,112.0,0.25,46,98.69
996,B-3,112.0,0.25,46,98.69
997,F4,112.25,0.125,46,98.69
998,D4,112.25,0.125,46,98.69
999,E-2,112.5,0.5,49,98.69
1000,B-3,112.5,0.75,46,98.69
1001,F4,112.5,0.75,46,98.69
1002,G#4,112.5,0.75,46,98.69
1003,B-2,112.75,0.125,39,98.69
1004,B-2,113.0,0.125,38,98.69
1005,C3,113.25,0.125,45,98.69
1006,E-4,113.25,0.25,46,98.69
1007,F#4,113.25,0.25,46,98.69
1008,C3,113.5,0.125,42,98.69
1009,C3,113.75,0.125,48,98.69
1010,F#4,113.75,0.125,49,98.69
1011,E-4,113.75,0.125,49,98.69
1012,B-4,113.75,0.125,49,98.69
1013,F4,114.0,0.25,57,98.69
1014,G#4,114.0,0.25,57,98.69
1015,F2,114.0,0.5,42,98.69
1016,C#3,114.0,0.5,42,98.69
1017,C#5,114.25,0.25,51,98.69
1018,C#4,114.25,0.25,51,98.69
1019,G#4,114.5,0.125,51,98.69
1020,F4,114.5,0.125,51,98.69
1021,F4,114.75,0.25,58,98.69
1022,G#4,114.75,0.25,58,98.69
1023,C#2,114.75,0.5,42,98.69
1024,C#3,114.75,0.5,42,98.69
1025,C#5,115.0,0.25,53,98.69
1026,C#4,115.0,0.25,53,98.69
1027,G#4,115.25,0.125,53,98.69
1028,F4,115.25,0.125,53,98.69
1029,F#2,115.5,0.5,58,98.69
1030,F4,115.5,0.75,54,98.69
1031,C#4,115.5,0.75,54,98.69
1032,G#4,115.5,0.75,54,98.69
1033,B4,115.5,0.75,54,98.69
1034,C#3,115.75,0.125,45,98.69
1035,C#3,116.0,0.125,45,98.69
1036,B-2,116.25,0.5,59,98.69
1037,C#3,116.25,0.125,54,98.69
1038,F#4,116.25,0.25,55,98.69
1039,B-4,116.25,0.25,55,98.69
1040,C#3,116.5,0.125,50,98.69
1041,C#3,116.75,0.125,58,98.69
1042,F#4,116.75,0.125,59,98.69
1043,B-4,116.75,0.125,59,98.69
1044,F4,117.0,0.25,69,98.69
1045,G#4,117.0,0.25,69,98.69
1046,F2,117.0,0.5,51,98.69
1047,C#3,117.0,0.5,51,98.69
1048,C#5,117.25,0.25,62,98.69
1049,C#4,117.25,0.25,62,98.69
1050,G#4,117.5,0.125,64,98.69
1051,F4,117.5,0.125,64,98.69
1052,F4,117.75,0.25,74,98.69
1053,G#4,117.75,0.25,74,98.69
1054,C#2,117.75,0.5,54,98.69
1055,C#3,117.75,0.5,54,98.69
1056,C#5,118.0,0.25,68,98.69
1057,C#4,118.0,0.25,68,98.69
1058,G#4,118.25,0.125,69,98.69
1059,F4,118.25,0.125,69,98.69
1060,F#2,118.5,0.5,77,98.69
1061,F4,118.5,0.75,71,98.69
1062,D4,118.5,0.75,71,98.69
1063,G#4,118.5,0.75,71,98.69
1064,B4,118.5,0.75,71,98.69
1065,D3,118.75,0.125,61,98.69
1066,D3,119.0,0.125,61,98.69
1067,E-3,119.25,0.125,74,98.69
1068,F#4,119.25,0.25,75,98.69
1069,B-4,119.25,0.25,75,98.69
1070,E-3,119.5,0.125,71,98.69
1071,E-3,119.75,0.125,71,98.69
1072,A2,120.0,0.25,89,98.69
1073,F4,120.0,93/125,83,98.69
1074,C5,120.0,93/125,83,98.69
1075,F5,120.0,93/125,83,98.69
1076,F3,120.25,0.125,70,98.69
1077,F3,120.5,0.125,67,98.69
1078,F2,120.75,0.25,80,98.69
1079,C5,120.75,0.5,75,98.69
1080,A4,120.75,0.5,75,98.69
1081,F3,121.0,0.125,70,98.69
1082,F3,121.25,0.125,71,98.69
1083,C5,121.25,0.125,68,98.69
1084,A4,121.25,0.125,68,98.69
1085,F4,121.25,0.125,68,98.69
1086,B-2,121.5,0.25,88,98.69
1087,F#4,121.5,0.5,83,98.69
1088,C5,121.5,0.5,83,98.69
1089,E-5,121.5,0.5,83,98.69
1090,F3,121.75,0.125,73,98.69
1091,F3,122.0,0.125,72,98.69
1092,C#5,122.0,0.25,71,98.69
1093,B-4,122.0,0.25,71,98.69
1094,E4,122.0,0.25,71,98.69
1095,F2,122.25,0.25,82,98.69
1096,C5,122.25,0.75,70,98.69
1097,A4,122.25,0.75,70,98.69
1098,F4,122.25,0.75,70,98.69
1099,F3,122.5,0.125,71,98.69
1100,F3,122.75,0.125,71,98.69
1101,A2,123.0,0.25,89,98.69
1102,F4,123.0,93/125,83,98.69
1103,C5,123.0,93/125,83,98.69
1104,F5,123.0,93/125,83,98.69
1105,F3,123.25,0.125,70,98.69
1106,F3,123.5,0.125,67,98.69
1107,F2,123.75,0.25,80,98.69
1108,C5,123.75,0.5,75,98.69
1109,A4,123.75,0.5,75,98.69
1110,F3,124.0,0.125,70,98.69
1111,F3,124.25,0.125,71,98.69
1112,C5,124.25,0.125,68,98.69
1113,A4,124.25,0.125,68,98.69
1114,F4,124.25,0.125,68,98.69
1115,B-2,124.5,0.25,88,98.69
1116,F#4,124.5,0.5,83,98.69
1117,C5,124.5,0.5,83,98.69
1118,E-5,124.5,0.5,83,98.69
1119,F3,124.75,0.125,73,98.69
1120,F3,125.0,0.125,72,98.69
1121,C#5,125.0,0.25,71,98.69
1122,B-4,125.0,0.25,71,98.69
1123,E4,125.0,0.25,71,98.69
1124,F2,125.25,0.25,82,98.69
1125,C5,125.25,0.75,70,98.69
1126,A4,125.25,0.75,70,98.69
1127,F4,125.25,0.75,70,98.69
1128,F3,125.5,0.125,71,98.69
1129,F3,125.75,0.125,71,98.69
1130,A2,126.0,0.25,89,98.69
1131,F4,126.0,93/125,83,98.69
1132,C5,126.0,93/125,83,98.69
1133,F5,126.0,93/125,83,98.69
1134,F3,126.25,0.125,68,98.69
1135,F3,126.5,0.125,64,98.69
1136,F2,126.75,0.25,75,98.69
1137,C5,126.75,0.5,70,98.69
1138,A4,126.75,0.5,70,98.69
1139,F3,127.0,0.125,64,98.69
1140,F3,127.25,0.125,63,98.69
1141,C5,127.25,0.125,61,98.69
1142,A4,127.25,0.125,61,98.69
1143,F4,127.25,0.125,61,98.69
1144,B-2,127.5,1.5,77,98.69
1145,F#4,127.5,0.5,74,98.69
1146,E-5,127.5,0.5,74,98.69
1147,C#5,128.0,0.25,58,98.69
1148,F4,128.0,0.25,58,98.69
1149,F#4,128.25,0.5,54,98.69
1150,C5,128.25,0.5,54,98.69
1151,E-4,128.25,0.5,54,98.69
1152,C#4,128.75,0.25,52,98.69
1153,F4,128.75,0.25,52,98.69
1154,B-4,128.75,0.25,52,98.69
1155,B-2,129.0,0.75,77,98.69
1156,E-4,129.0,0.5,58,98.69
1157,C4,129.0,0.5,58,98.69
1158,G#4,129.0,0.5,58,98.69
1159,B-3,129.5,0.25,49,98.69
1160,F#4,129.5,0.25,49,98.69
1161,C#4,129.5,0.25,49,98.69
1162,C3,129.75,0.75,58,98.69
1163,C4,129.75,0.5,47,98.69
1164,F4,129.75,0.5,47,98.69
1165,A3,129.75,0.5,47,98.69
1166,B-3,130.25,0.188,45,98.69
1167,G3,130.25,0.188,45,98.69
1168,E4,130.25,0.188,45,98.69
1169,F2,130.5,1.5,52,98.69
1170,G3,130.5,0.75,40,98.69
1171,B-3,130.5,0.75,40,98.69
1172,E4,130.5,0.75,40,98.69
1173,A3,131.25,0.75,41,98.69
1174,F4,131.25,0.75,41,98.69
1175,F3,132.0,0.25,43,98.69
1176,F#3,132.25,0.25,41,98.69
1177,F3,132.5,0.25,38,98.69
1178,E-3,132.75,0.25,41,98.69
1179,C#3,133.0,0.25,38,98.69
1180,C3,133.25,0.125,38,98.69
1181,C#5,133.25,0.125,43,98.69
1182,F5,133.25,0.125,43,98.69
1183,B-2,133.375,0.125,35,98.69
1184,F4,133.5,0.5,40,98.69
1185,C#4,133.5,0.5,40,98.69
1186,B-2,133.5,0.5,35,98.69
1187,C#5,133.5,0.25,50,98.69
1188,F5,133.5,0.25,50,98.69
1189,C#5,133.75,0.25,45,98.69
1190,B-4,133.75,0.25,45,98.69
1191,F5,134.0,0.125,45,98.69
1192,C#5,134.0,0.125,45,98.69
1193,B-2,134.125,0.625,35,98.69
1194,F4,134.25,0.5,40,98.69
1195,C#4,134.25,0.5,40,98.69
1196,C#5,134.25,0.25,50,98.69
1197,F5,134.25,0.25,50,98.69
1198,C#5,134.5,0.25,46,98.69
1199,B-4,134.5,0.25,46,98.69
1200,F5,134.75,0.125,46,98.69
1201,C#5,134.75,0.125,46,98.69
1202,B-2,134.875,0.125,35,98.69
1203,F4,135.0,0.5,40,98.69
1204,C#4,135.0,0.5,40,98.69
1205,B-2,135.0,0.5,35,98.69
1206,C#5,135.0,0.25,50,98.69
1207,F5,135.0,0.25,50,98.69
1208,C#5,135.25,0.25,45,98.69
1209,B-4,135.25,0.25,45,98.69
1210,F5,135.5,0.125,45,98.69
1211,C#5,135.5,0.125,45,98.69
1212,B-2,135.625,0.625,35,98.69
1213,F4,135.75,0.5,40,98.69
1214,C#4,135.75,0.5,40,98.69
1215,C#5,135.75,0.25,50,98.69
1216,F5,135.75,0.25,50,98.69
1217,C#5,136.0,0.25,46,98.69
1218,B-4,136.0,0.25,46,98.69
1219,F5,136.25,0.125,46,98.69
1220,C#5,136.25,0.125,46,98.69
1221,B-2,136.375,0.125,35,98.69
1222,F#4,136.5,1.25,71,98.69
1223,C#5,136.5,0.25,50,98.69
1224,C#4,136.5,0.5,40,98.69
1225,B-2,136.5,0.5,35,98.69
1226,B-4,136.75,0.25,45,98.69
1227,C#5,137.0,0.125,45,98.69
1228,B-2,137.125,0.625,35,98.69
1229,C#5,137.25,0.25,50,98.69
1230,C#4,137.25,0.5,40,98.69
1231,B-4,137.5,0.25,46,98.69
1232,F4,137.75,0.25,60,98.69
1233,C#5,137.75,0.125,46,98.69
1234,B-2,137.875,0.125,35,98.69
1235,E4,138.0,1.125,72,98.69
1236,C#5,138.0,0.25,50,98.69
1237,C#4,138.0,0.5,40,98.69
1238,B-2,138.0,0.5,35,98.69
1239,B-4,138.25,0.25,45,98.69
1240,C#5,138.5,0.125,45,98.69
1241,B-2,138.625,0.625,35,98.69
1242,C#5,138.75,0.25,50,98.69
1243,C#4,138.75,0.5,40,98.69
1244,B-4,139.0,0.25,46,98.69
1245,C#5,139.25,0.125,61,98.69
1246,E4,139.25,0.25,60,98.69
1247,F4,139.5,1.0,75,98.69
1248,A2,139.5,0.25,49,98.69
1249,F3,139.75,0.125,40,98.69
1250,C4,139.75,0.125,54,98.69
1251,E-4,139.75,0.125,54,98.69
1252,F3,140.0,0.125,42,98.69
1253,C4,140.0,0.125,54,98.69
1254,E-4,140.0,0.125,54,98.69
1255,F2,140.25,0.25,42,98.69
1256,C4,140.25,0.125,54,98.69
1257,E-4,140.25,0.125,54,98.69
1258,F3,140.5,0.125,47,98.69
1259,B-3,140.5,0.125,55,98.69
1260,G4,140.5,0.125,55,98.69
1261,F3,140.75,0.125,50,98.69
1262,C4,140.75,0.125,58,98.69
1263,A4,140.75,0.125,58,98.69
1264,C5,140.875,0.125,64,98.69
1265,B-2,141.0,0.25,54,98.69
1266,C#4,141.0,0.125,67,98.69
1267,B-4,141.0,0.125,67,98.69
1268,F3,141.25,0.125,43,98.69
1269,C4,141.25,0.125,58,98.69
1270,A4,141.25,0.125,58,98.69
1271,F3,141.5,0.125,46,98.69
1272,C#4,141.5,0.125,58,98.69
1273,B-4,141.5,0.125,58,98.69
1274,E-2,141.75,0.25,58,98.69
1275,F4,141.75,0.125,66,98.69
1276,C#5,141.75,0.125,66,98.69
1277,F#3,142.0,0.125,48,98.69
1278,E-4,142.0,0.125,58,98.69
1279,C5,142.0,0.125,58,98.69
1280,F#3,142.25,0.125,48,98.69
1281,C#4,142.25,0.125,64,98.69
1282,B-4,142.25,0.125,64,98.69
1283,F2,142.5,0.25,60,98.69
1284,C#4,142.5,1.5,76,98.69
1285,B-4,142.5,1.5,76,98.69
1286,F3,142.75,0.125,49,98.69
1287,F3,143.0,0.125,46,98.69
1288,E4,143.25,0.75,66,98.69
1289,F3,143.25,0.125,55,98.69
1290,F3,143.5,0.125,46,98.69
1291,F3,143.75,0.125,46,98.69
1292,F3,144.0,0.25,56,98.69
1293,C4,144.0,0.75,71,98.69
1294,F4,144.0,0.75,71,98.69
1295,A4,144.0,0.75,71,98.69
1296,F#3,144.25,0.25,46,98.69
1297,F3,144.5,0.125,48,98.69
1298,F3,144.75,0.125,52,98.69
1299,F3,145.0,0.125,46,98.69
1300,F3,145.25,0.125,40,98.69
1301,B-4,145.5,0.75,62,98.69
1302,F4,145.5,1.5,52,98.69
1303,D3,145.5,0.25,49,98.69
1304,B-3,145.75,0.125,39,98.69
1305,B-3,146.0,0.125,39,98.69
1306,G#4,146.25,479/1000,55,98.69
1307,B-2,146.25,0.125,48,98.69
1308,B-3,146.5,0.125,40,98.69
1309,G#4,146.75,0.25,55,98.69
1310,B-3,146.75,0.125,40,98.69
1311,F#4,147.0,0.75,62,98.69
1312,E-4,147.0,1.5,52,98.69
1313,E-3,147.0,0.25,49,98.69
1314,B-3,147.25,0.125,39,98.69
1315,B-3,147.5,0.125,39,98.69
1316,G4,147.75,0.75,55,98.69
1317,B-2,147.75,0.125,48,98.69
1318,B-3,148.0,0.125,40,98.69
1319,B-3,148.25,0.125,40,98.69
1320,F5,148.5,1.5,68,98.69
1321,D3,148.5,0.25,63,98.69
1322,B-4,148.5,0.75,74,98.69
1323,B-5,148.5,0.75,74,98.69
1324,B-3,148.75,0.125,50,98.69
1325,B-3,149.0,0.125,50,98.69
1326,B-2,149.25,0.125,62,98.69
1327,G#4,149.25,479/1000,66,98.69
1328,G#5,149.25,479/1000,66,98.69
1329,B-3,149.5,0.125,52,98.69
1330,B-3,149.75,0.125,52,98.69
1331,G#4,149.75,0.25,66,98.69
1332,G#5,149.75,0.25,66,98.69
1333,E-5,150.0,1.5,68,98.69
1334,E-3,150.0,0.25,63,98.69
1335,G4,150.0,0.75,74,98.69
1336,G5,150.0,0.75,74,98.69
1337,B-3,150.25,0.125,50,98.69
1338,B-3,150.5,0.125,50,98.69
1339,B-3,150.75,0.125,62,98.69
1340,F#4,150.75,0.5,66,98.69
1341,F#5,150.75,0.5,66,98.69
1342,B-3,151.0,0.125,52,98.69
1343,B-3,151.25,0.125,52,98.69
1344,G4,151.25,0.188,66,98.69
1345,G5,151.25,0.188,66,98.69
1346,G4,151.5,0.125,76,98.69
1347,B-4,151.5,0.125,76,98.69
1348,G5,151.5,0.125,76,98.69
1349,C4,151.5,0.125,58,98.69
1350,B-3,151.5,0.125,58,98.69
1351,E3,151.5,0.125,58,98.69
1352,G4,151.75,0.125,65,98.69
1353,B-4,151.75,0.125,65,98.69
1354,F5,151.75,0.125,65,98.69
1355,E3,151.75,0.125,47,98.69
1356,B-3,151.75,0.125,47,98.69
1357,C4,151.75,0.125,47,98.69
1358,E5,152.0,0.125,62,98.69
1359,B-4,152.0,0.125,62,98.69
1360,G4,152.0,0.125,62,98.69
1361,E3,152.0,0.125,47,98.69
1362,B-3,152.0,0.125,47,98.69
1363,C4,152.0,0.125,47,98.69
1364,E5,152.25,0.125,70,98.69
1365,B-4,152.25,0.125,70,98.69
1366,G4,152.25,0.125,70,98.69
1367,C4,152.25,0.125,53,98.69
1368,B-3,152.25,0.125,53,98.69
1369,E3,152.25,0.125,53,98.69
1370,G4,152.5,0.125,64,98.69
1371,B-4,152.5,0.125,64,98.69
1372,D5,152.5,0.125,64,98.69
1373,E3,152.5,0.125,47,98.69
1374,B-3,152.5,0.125,47,98.69
1375,C4,152.5,0.125,47,98.69
1376,G4,152.75,0.125,64,98.69
1377,B-4,152.75,0.125,64,98.69
1378,C5,152.75,0.125,64,98.69
1379,E3,152.75,0.125,47,98.69
1380,B-3,152.75,0.125,47,98.69
1381,C4,152.75,0.125,47,98.69
1382,E-3,153.0,0.25,65,98.69
1383,C5,153.0,373/500,71,98.69
1384,A4,153.0,373/500,71,98.69
1385,F4,153.0,373/500,71,98.69
1386,F3,153.25,0.125,42,98.69
1387,A3,153.25,0.125,42,98.69
1388,C4,153.25,0.125,42,98.69
1389,F3,153.5,0.125,42,98.69
1390,A3,153.5,0.125,42,98.69
1391,C4,153.5,0.125,42,98.69
1392,D3,153.75,0.25,59,98.69
1393,D5,153.75,62/125,60,98.69
1394,B-4,153.75,62/125,60,98.69
1395,F4,153.75,62/125,60,98.69
1396,F3,154.0,0.125,44,98.69
1397,B-3,154.0,0.125,44,98.69
1398,F4,154.25,0.25,55,98.69
1399,B-4,154.25,0.25,55,98.69
1400,D5,154.25,0.25,55,98.69
1401,F3,154.25,0.125,44,98.69
1402,B-3,154.25,0.125,44,98.69
1403,C3,154.5,0.25,65,98.69
1404,E-5,154.5,0.75,71,98.69
1405,B-4,154.5,0.75,71,98.69
1406,G4,154.5,0.75,71,98.69
1407,G3,154.75,0.125,42,98.69
1408,B-3,154.75,0.125,42,98.69
1409,C4,154.75,0.125,42,98.69
1410,G3,155.0,0.125,42,98.69
1411,B-3,155.0,0.125,42,98.69
1412,C4,155.0,0.125,42,98.69
1413,E-3,155.25,0.25,59,98.69
1414,C5,155.25,62/125,62,98.69
1415,A4,155.25,62/125,62,98.69
1416,A3,155.5,0.125,42,98.69
1417,F3,155.5,0.125,42,98.69
1418,C4,155.5,0.125,42,98.69
1419,F4,155.75,0.25,55,98.69
1420,A4,155.75,0.25,55,98.69
1421,C5,155.75,0.25,55,98.69
1422,A3,155.75,0.125,42,98.69
1423,F3,155.75,0.125,42,98.69
1424,C4,155.75,0.125,42,98.69
1425,F5,156.0,1.5,82,98.69
1426,D3,156.0,0.25,61,98.69
1427,F4,156.25,0.125,55,98.69
1428,B-4,156.25,0.125,55,98.69
1429,B-3,156.25,0.125,53,98.69
1430,D4,156.25,0.125,53,98.69
1431,F4,156.5,0.125,56,98.69
1432,B-4,156.5,0.125,56,98.69
1433,D4,156.5,0.125,52,98.69
1434,B-3,156.5,0.125,52,98.69
1435,B-4,156.75,0.125,64,98.69
1436,F4,156.75,0.125,64,98.69
1437,B-3,156.75,0.125,60,98.69
1438,D4,156.75,0.125,60,98.69
1439,F4,157.0,0.125,57,98.69
1440,B-4,157.0,0.125,57,98.69
1441,D4,157.0,0.125,55,98.69
1442,B-3,157.0,0.125,55,98.69
1443,F4,157.25,0.125,58,98.69
1444,B-4,157.25,0.125,58,98.69
1445,D4,157.25,0.125,56,98.69
1446,B-3,157.25,0.125,56,98.69
1447,F#5,157.5,1.5,90,98.69
1448,G#4,157.5,0.125,60,98.69
1449,B-4,157.5,0.125,60,98.69
1450,D4,157.5,0.25,66,98.69
1451,B-3,157.5,0.25,66,98.69
1452,G#4,157.75,0.125,60,98.69
1453,B-4,157.75,0.125,60,98.69
1454,B-3,157.75,0.125,58,98.69
1455,D4,157.75,0.125,58,98.69
1456,G#4,158.0,0.125,61,98.69
1457,B-4,158.0,0.125,61,98.69
1458,D4,158.0,0.125,57,98.69
1459,B-3,158.0,0.125,57,98.69
1460,B-4,158.25,0.125,70,98.69
1461,G#4,158.25,0.125,70,98.69
1462,B-3,158.25,0.125,66,98.69
1463,D4,158.25,0.125,66,98.69
1464,G#4,158.5,0.125,62,98.69
1465,B-4,158.5,0.125,62,98.69
1466,D4,158.5,0.125,60,98.69
1467,B-3,158.5,0.125,60,98.69
1468,G#4,158.75,0.125,63,98.69
1469,B-4,158.75,0.125,63,98.69
1470,D4,158.75,0.125,61,98.69
1471,B-3,158.75,0.125,61,98.69
1472,G5,159.0,1.5,98,98.69
1473,G4,159.0,0.125,65,98.69
1474,B-4,159.0,0.125,65,98.69
1475,E-3,159.0,0.25,71,98.69
1476,C#4,159.0,0.25,71,98.69
1477,B-3,159.0,0.25,71,98.69
1478,G4,159.25,0.125,65,98.69
1479,B-4,159.25,0.125,65,98.69
1480,E-3,159.25,0.125,62,98.69
1481,B-3,159.25,0.125,62,98.69
1482,C#4,159.25,0.125,62,98.69
1483,G4,159.5,0.125,65,98.69
1484,B-4,159.5,0.125,65,98.69
1485,E-3,159.5,0.125,61,98.69
1486,C#4,159.5,0.125,61,98.69
1487,B-3,159.5,0.125,61,98.69
1488,B-4,159.75,0.125,73,98.69
1489,G4,159.75,0.125,73,98.69
1490,E-3,159.75,0.125,68,98.69
1491,B-3,159.75,0.125,68,98.69
1492,C#4,159.75,0.125,68,98.69
1493,G4,160.0,0.125,65,98.69
1494,B-4,160.0,0.125,65,98.69
1495,E-3,160.0,0.125,62,98.69
1496,C#4,160.0,0.125,62,98.69
1497,B-3,160.0,0.125,62,98.69
1498,G4,160.25,0.125,65,98.69
1499,B-4,160.25,0.125,65,98.69
1500,E-3,160.25,0.125,62,98.69
1501,C#4,160.25,0.125,62,98.69
1502,B-3,160.25,0.125,62,98.69
1503,G4,160.5,0.125,76,98.69
1504,B-4,160.5,0.125,76,98.69
1505,G5,160.5,0.125,76,98.69
1506,C4,160.5,0.125,58,98.69
1507,B-3,160.5,0.125,58,98.69
1508,E3,160.5,0.125,58,98.69
1509,G4,160.75,0.125,65,98.69
1510,B-4,160.75,0.125,65,98.69
1511,F5,160.75,0.125,65,98.69
1512,E3,160.75,0.125,47,98.69
1513,B-3,160.75,0.125,47,98.69
1514,C4,160.75,0.125,47,98.69
1515,E5,161.0,0.125,62,98.69
1516,B-4,161.0,0.125,62,98.69
1517,G4,161.0,0.125,62,98.69
1518,E3,161.0,0.125,47,98.69
1519,B-3,161.0,0.125,47,98.69
1520,C4,161.0,0.125,47,98.69
1521,E5,161.25,0.125,70,98.69
1522,B-4,161.25,0.125,70,98.69
1523,G4,161.25,0.125,70,98.69
1524,C4,161.25,0.125,53,98.69
1525,B-3,161.25,0.125,53,98.69
1526,E3,161.25,0.125,53,98.69
1527,G4,161.5,0.125,64,98.69
1528,B-4,161.5,0.125,64,98.69
1529,D5,161.5,0.125,64,98.69
1530,E3,161.5,0.125,47,98.69
1531,B-3,161.5,0.125,47,98.69
1532,C4,161.5,0.125,47,98.69
1533,G4,161.75,0.125,64,98.69
1534,B-4,161.75,0.125,64,98.69
1535,C5,161.75,0.125,64,98.69
1536,E3,161.75,0.125,47,98.69
1537,B-3,161.75,0.125,47,98.69
1538,C4,161.75,0.125,47,98.69
1539,C5,162.0,0.75,79,98.69
1540,E-3,162.0,0.25,65,98.69
1541,F4,162.25,0.125,56,98.69
1542,A4,162.25,0.125,56,98.69
1543,F3,162.25,0.125,35,98.69
1544,A3,162.25,0.125,35,98.69
1545,C4,162.25,0.125,35,98.69
1546,F4,162.5,0.125,56,98.69
1547,A4,162.5,0.125,56,98.69
1548,F3,162.5,0.125,35,98.69
1549,A3,162.5,0.125,35,98.69
1550,C4,162.5,0.125,35,98.69
1551,D5,162.75,0.5,67,98.69
1552,D3,162.75,0.25,59,98.69
1553,F4,163.0,0.125,47,98.69
1554,B-4,163.0,0.125,47,98.69
1555,F3,163.0,0.125,44,98.69
1556,B-3,163.0,0.125,44,98.69
1557,F4,163.25,0.25,55,98.69
1558,B-4,163.25,0.25,55,98.69
1559,D5,163.25,0.25,55,98.69
1560,F3,163.25,0.125,44,98.69
1561,B-3,163.25,0.125,44,98.69
1562,F5,163.5,0.75,79,98.69
1563,C3,163.5,0.25,65,98.69
1564,G4,163.75,0.125,56,98.69
1565,B-4,163.75,0.125,56,98.69
1566,G3,163.75,0.125,35,98.69
1567,B-3,163.75,0.125,35,98.69
1568,C4,163.75,0.125,35,98.69
1569,G4,164.0,0.125,56,98.69
1570,B-4,164.0,0.125,56,98.69
1571,G3,164.0,0.125,35,98.69
1572,B-3,164.0,0.125,35,98.69
1573,C4,164.0,0.125,35,98.69
1574,E-5,164.25,0.5,67,98.69
1575,F3,164.25,0.25,59,98.69
1576,F4,164.5,0.125,47,98.69
1577,A4,164.5,0.125,47,98.69
1578,C4,164.5,0.125,35,98.69
1579,A3,164.5,0.125,35,98.69
1580,E-4,164.5,0.125,35,98.69
1581,C5,164.75,0.25,44,98.69
1582,A4,164.75,0.25,44,98.69
1583,F4,164.75,0.25,44,98.69
1584,E-4,164.75,0.125,37,98.69
1585,A3,164.75,0.125,37,98.69
1586,C4,164.75,0.125,37,98.69
1587,B-4,165.0,0.75,61,98.69
1588,B-3,165.0,0.25,53,98.69
1589,F4,165.25,0.125,49,98.69
1590,D4,165.25,0.125,45,98.69
1591,F4,165.5,0.125,49,98.69
1592,D4,165.5,0.125,45,98.69
1593,D3,165.75,0.25,53,98.69
1594,F3,166.0,0.125,45,98.69
1595,F4,166.25,0.125,47,98.69
1596,F3,166.25,0.125,49,98.69
1597,A2,166.5,0.5,55,98.69
1598,C4,166.5,0.25,55,98.69
1599,F4,166.5,0.25,55,98.69
1600,E-4,166.75,0.25,50,98.69
1601,F3,166.75,0.25,50,98.69
1602,F4,167.0,0.125,50,98.69
1603,C4,167.0,0.125,50,98.69
1604,C4,167.25,0.25,57,98.69
1605,F4,167.25,0.25,57,98.69
1606,F1,167.25,0.5,45,98.69
1607,F2,167.25,0.5,45,98.69
1608,E-4,167.5,0.25,54,98.69
1609,F3,167.5,0.25,54,98.69
1610,F4,167.75,0.125,54,98.69
1611,C4,167.75,0.125,54,98.69
1612,B-3,168.0,0.25,60,98.69
1613,F4,168.0,0.25,60,98.69
1614,B-1,168.0,0.5,59,98.69
1615,B-2,168.0,0.5,59,98.69
1616,D4,168.25,0.25,55,98.69
1617,F3,168.25,0.25,55,98.69
1618,F4,168.5,0.125,56,98.69
1619,B-3,168.5,0.125,56,98.69
1620,B-3,168.75,0.25,64,98.69
1621,F4,168.75,0.25,64,98.69
1622,D2,168.75,0.5,50,98.69
1623,D3,168.75,0.5,50,98.69
1624,D4,169.0,0.25,59,98.69
1625,F3,169.0,0.25,59,98.69
1626,F4,169.25,0.125,60,98.69
1627,B-3,169.25,0.125,60,98.69
1628,C4,169.5,0.25,66,98.69
1629,F4,169.5,0.25,66,98.69
1630,A1,169.5,0.5,66,98.69
1631,A2,169.5,0.5,66,98.69
1632,E-4,169.75,0.25,61,98.69
1633,F3,169.75,0.25,61,98.69
1634,F4,170.0,0.125,61,98.69
1635,C4,170.0,0.125,61,98.69
1636,C4,170.25,0.25,69,98.69
1637,F4,170.25,0.25,69,98.69
1638,F1,170.25,0.5,55,98.69
1639,F2,170.25,0.5,55,98.69
1640,E-4,170.5,0.25,64,98.69
1641,F3,170.5,0.25,64,98.69
1642,F4,170.75,0.125,66,98.69
1643,C4,170.75,0.125,66,98.69
1644,B-3,171.0,0.25,73,98.69
1645,F4,171.0,0.25,73,98.69
1646,B-1,171.0,0.5,73,98.69
1647,B-2,171.0,0.5,73,98.69
1648,D4,171.25,0.25,66,98.69
1649,F3,171.25,0.25,66,98.69
1650,F4,171.5,0.125,67,98.69
1651,B-3,171.5,0.125,67,98.69
1652,B-3,171.75,0.25,76,98.69
1653,F4,171.75,0.25,76,98.69
1654,D2,171.75,0.5,61,98.69
1655,D3,171.75,0.5,61,98.69
1656,D4,172.0,0.25,71,98.69
1657,F3,172.0,0.25,71,98.69
1658,F4,172.25,0.125,71,98.69
1659,B-3,172.25,0.125,71,98.69
1660,A2,172.5,0.25,70,98.69
1661,F4,172.5,0.75,81,98.69
1662,C4,172.5,0.75,81,98.69
1663,E-3,172.75,0.125,60,98.69
1664,F3,172.75,0.125,60,98.69
1665,F3,173.0,0.125,59,98.69
1666,E-3,173.0,0.125,59,98.69
1667,D3,173.25,0.25,75,98.69
1668,B-4,173.25,0.75,84,98.69
1669,B-3,173.25,0.75,84,98.69
1670,F3,173.5,0.125,63,98.69
1671,E-3,173.5,0.125,63,98.69
1672,F3,173.75,0.125,67,98.69
1673,E-3,173.75,0.125,67,98.69
1674,C3,174.0,0.25,75,98.69
1675,A4,174.0,0.75,86,98.69
1676,A3,174.0,0.75,86,98.69
1677,E-3,174.25,0.125,64,98.69
1678,F3,174.25,0.125,64,98.69
1679,F3,174.5,0.125,64,98.69
1680,E-3,174.5,0.125,64,98.69
1681,D3,174.75,0.25,81,98.69
1682,D5,174.75,0.75,90,98.69
1683,D4,174.75,0.75,90,98.69
1684,F3,175.0,0.125,68,98.69
1685,E-3,175.0,0.125,68,98.69
1686,F3,175.25,0.125,72,98.69
1687,E-3,175.25,0.125,72,98.69
1688,A2,175.5,0.25,81,98.69
1689,C5,175.5,0.75,92,98.69
1690,C4,175.5,0.75,92,98.69
1691,E-3,175.75,0.125,69,98.69
1692,F3,175.75,0.125,69,98.69
1693,F3,176.0,0.125,69,98.69
1694,E-3,176.0,0.125,69,98.69
1695,G2,176.25,0.25,86,98.69
1696,E-5,176.25,0.75,95,98.69
1697,E-4,176.25,0.75,95,98.69
1698,G3,176.5,0.125,72,98.69
1699,E-3,176.5,0.125,72,98.69
1700,G3,176.75,0.125,74,98.69
1701,E-3,176.75,0.125,74,98.69
1702,F2,177.0,0.25,79,98.69
1703,E-5,177.25,0.25,95,98.69
1704,E-4,177.25,0.25,95,98.69
1705,A3,177.25,0.188,70,98.69
1706,E-3,177.25,0.188,70,98.69
1707,C3,177.25,0.188,70,98.69
1708,D5,177.5,0.188,80,98.69
1709,E-4,177.5,0.188,80,98.69
1710,A3,177.5,0.188,70,98.69
1711,E-3,177.5,0.188,70,98.69
1712,C3,177.5,0.188,70,98.69
1713,C5,177.75,0.188,80,98.69
1714,E-4,177.75,0.188,80,98.69
1715,C3,177.75,0.188,77,98.69
1716,E-3,177.75,0.188,77,98.69
1717,A3,177.75,0.188,77,98.69
1718,E-4,178.0,0.188,86,98.69
1719,C5,178.0,0.188,86,98.69
1720,A3,178.0,0.188,71,98.69
1721,E-3,178.0,0.188,71,98.69
1722,C3,178.0,0.188,71,98.69
1723,B-4,178.25,0.188,81,98.69
1724,E-4,178.25,0.188,81,98.69
1725,A3,178.25,0.188,71,98.69
1726,E-3,178.25,0.188,71,98.69
1727,C3,178.25,0.188,71,98.69
1728,A4,178.5,0.188,81,98.69
1729,E-4,178.5,0.188,81,98.69
1730,C3,178.5,0.188,77,98.69
1731,E-3,178.5,0.188,77,98.69
1732,A3,178.5,0.188,77,98.69
1733,E-4,178.75,0.188,86,98.69
1734,A4,178.75,0.188,86,98.69
1735,A3,178.75,0.188,72,98.69
1736,E-3,178.75,0.188,72,98.69
1737,C3,178.75,0.188,72,98.69
1738,G4,179.0,0.188,80,98.69
1739,E-4,179.0,0.188,80,98.69
1740,A3,179.0,0.188,72,98.69
1741,E-3,179.0,0.188,72,98.69
1742,C3,179.0,0.188,72,98.69
1743,F4,179.25,0.188,80,98.69
1744,E-4,179.25,0.188,80,98.69
1745,C3,179.25,0.188,77,98.69
1746,E-3,179.25,0.188,77,98.69
1747,A3,179.25,0.188,77,98.69
1748,C4,179.5,0.188,86,98.69
1749,F4,179.5,0.188,86,98.69
1750,A3,179.5,0.188,72,98.69
1751,E-3,179.5,0.188,72,98.69
1752,C3,179.5,0.188,72,98.69
1753,E4,179.75,0.188,80,98.69
1754,C4,179.75,0.188,80,98.69
1755,A3,179.75,0.188,72,98.69
1756,E-3,179.75,0.188,72,98.69
1757,C3,179.75,0.188,72,98.69
1758,E-4,180.0,0.188,80,98.69
1759,C4,180.0,0.188,80,98.69
1760,F2,180.0,0.188,80,98.69
1761,E-3,180.0,0.188,80,98.69
1762,A3,180.25,0.188,86,98.69
1763,E-4,180.25,0.188,86,98.69
1764,E-3,180.25,0.188,74,98.69
1765,F2,180.25,0.188,74,98.69
1766,D4,180.5,0.188,81,98.69
1767,A3,180.5,0.188,81,98.69
1768,E-3,180.5,0.188,76,98.69
1769,F2,180.5,0.188,76,98.69
1770,C4,180.75,0.188,80,98.69
1771,A3,180.75,0.188,80,98.69
1772,F2,180.75,0.188,80,98.69
1773,E-3,180.75,0.188,80,98.69
1774,A3,181.0,0.188,86,98.69
1775,C4,181.0,0.188,86,98.69
1776,E-3,181.0,0.188,74,98.69
1777,F2,181.0,0.188,74,98.69
1778,B-3,181.25,0.188,85,98.69
1779,E-3,181.25,0.188,74,98.69
1780,F2,181.25,0.188,74,98.69
1781,A3,181.5,0.188,85,98.69
1782,B-2,181.5,0.375,80,98.69
1783,D3,181.5,0.375,80,98.69
1784,B-3,181.75,0.375,93,98.69
1785,B-2,182.25,0.375,80,98.69
1786,D3,182.25,0.375,80,98.69
1787,F3,182.5,0.375,84,98.69
1788,B-3,182.5,0.375,84,98.69
1789,D4,182.5,0.375,84,98.69
1790,B-2,183.0,0.375,80,98.69
1791,D3,183.0,0.375,80,98.69
1792,B-3,183.25,0.375,84,98.69
1793,D4,183.25,0.375,84,98.69
1794,F4,183.25,0.375,84,98.69
1795,B-2,183.75,0.375,77,98.69
1796,F3,183.75,0.375,77,98.69
1797,B-3,183.75,0.375,77,98.69
1798,D4,184.0,0.375,84,98.69
1799,F4,184.0,0.375,84,98.69
1800,B-4,184.0,0.375,84,98.69
1801,B-2,184.5,0.5,77,98.69
1802,F3,184.5,0.5,77,98.69
1803,B-3,184.5,0.5,77,98.69
1804,D4,184.75,0.5,82,98.69
1805,F4,184.75,0.5,82,98.69
1806,B-4,184.75,0.5,82,98.69
1807,D5,184.75,0.5,82,98.69
1808,F3,186.0,0.5,77,98.69
1809,B-3,186.0,0.5,77,98.69
1810,D4,186.0,0.5,77,98.69
1811,F4,186.25,0.5,84,98.69
1812,B-4,186.25,0.5,84,98.69
1813,F5,186.25,0.5,84,98.69
1814,B-1,187.5,0.5,107,98.69
1815,D5,187.75,0.5,108,98.69
1816,B-5,187.75,0.5,108,98.69
