,note_name,start_time,duration,velocity,tempo
0,B2,0.0,0.25,28,94.44
1,E2,0.0,2.0,40,94.44
2,E3,0.25,0.25,20,94.44
3,G#3,0.5,0.25,21,94.44
4,B3,0.75,0.25,20,94.44
5,B2,1.0,0.25,26,94.44
6,E3,1.25,0.25,20,94.44
7,G#3,1.5,0.25,21,94.44
8,B3,1.75,0.25,19,94.44
9,B2,2.0,0.25,28,94.44
10,G#2,2.0,2.0,42,94.44
11,E3,2.25,0.25,21,94.44
12,G#3,2.5,0.25,21,94.44
13,B3,2.75,0.25,20,94.44
14,B2,3.0,0.25,27,94.44
15,E3,3.25,0.25,23,94.44
16,G#3,3.5,0.25,22,94.44
17,B3,3.75,0.25,20,94.44
18,B2,4.0,0.25,31,94.44
19,F#2,4.0,2.0,45,94.44
20,E-3,4.25,0.25,23,94.44
21,A3,4.5,0.25,23,94.44
22,B3,4.75,0.25,23,94.44
23,B2,5.0,0.25,30,94.44
24,E-3,5.25,0.25,23,94.44
25,A3,5.5,0.25,23,94.44
26,B3,5.75,0.25,22,94.44
27,B2,6.0,0.25,32,94.44
28,B1,6.0,1.0,41,94.44
29,E-3,6.25,0.25,25,94.44
30,F#3,6.5,0.25,26,94.44
31,B3,6.75,0.25,29,94.44
32,A4,7.0,1.0,51,94.44
33,B2,7.0,0.25,31,94.44
34,E-3,7.25,0.25,26,94.44
35,F#3,7.5,0.25,32,94.44
36,B3,7.75,0.25,34,94.44
37,G#4,8.0,1.0,57,94.44
38,B2,8.0,0.25,40,94.44
39,E2,8.0,1.0,46,94.44
40,E3,8.25,0.25,26,94.44
41,G#3,8.5,0.25,26,94.44
42,B3,8.75,0.25,25,94.44
43,F#4,9.0,1.0,48,94.44
44,B2,9.0,0.25,32,94.44
45,F#2,9.0,1.0,42,94.44
46,E-3,9.25,0.25,25,94.44
47,A3,9.5,0.25,25,94.44
48,B3,9.75,0.25,23,94.44
49,E4,10.0,0.938,48,94.44
50,B2,10.0,0.25,33,94.44
51,G#2,10.0,1.0,42,94.44
52,E3,10.25,0.25,27,94.44
53,G#3,10.5,0.25,34,94.44
54,B3,10.75,0.25,44,94.44
55,E5,11.0,1.0,69,94.44
56,F#3,11.0,0.25,53,94.44
57,B-2,11.0,1.0,42,94.44
58,C#4,11.25,0.25,31,94.44
59,E4,11.5,0.25,39,94.44
60,F#4,11.75,0.25,23,94.44
61,E-5,12.0,1.0,68,94.44
62,F#3,12.0,0.25,35,94.44
63,B2,12.0,1.0,46,94.44
64,B3,12.25,0.25,26,94.44
65,E-4,12.5,0.25,26,94.44
66,F#4,12.75,0.25,25,94.44
67,C#5,13.0,1.0,56,94.44
68,F#3,13.0,0.25,32,94.44
69,C#3,13.0,1.0,42,94.44
70,B-3,13.25,0.25,25,94.44
71,E4,13.5,0.25,25,94.44
72,F#4,13.75,0.25,23,94.44
73,B4,14.0,0.938,52,94.44
74,F#3,14.0,0.25,33,94.44
75,E-3,14.0,1.0,37,94.44
76,B3,14.25,0.25,27,94.44
77,E-4,14.5,0.25,33,94.44
78,F#4,14.75,0.25,40,94.44
79,C#5,15.0,1.0,61,94.44
80,G#3,15.0,0.25,46,94.44
81,F3,15.0,1.0,42,94.44
82,B3,15.25,0.25,26,94.44
83,C#4,15.5,0.25,25,94.44
84,G#4,15.75,0.25,23,94.44
85,A4,16.0,1.0,62,94.44
86,F#3,16.0,1.0,46,94.44
87,A3,16.25,0.25,26,94.44
88,C#4,16.5,0.25,26,94.44
89,E4,16.75,0.25,25,94.44
90,B4,17.0,0.5,52,94.44
91,F#3,17.0,0.25,32,94.44
92,B2,17.0,1.0,42,94.44
93,A3,17.25,0.25,25,94.44
94,F#4,17.5,0.5,47,94.44
95,B3,17.5,0.25,25,94.44
96,E-4,17.75,0.25,23,94.44
97,G#4,18.0,0.5,52,94.44
98,E3,18.0,1.0,42,94.44
99,G#3,18.25,0.25,25,94.44
100,A4,18.5,0.125,50,94.44
101,B3,18.5,0.25,25,94.44
102,G#4,18.625,0.125,39,94.44
103,F#4,18.75,0.125,42,94.44
104,E4,18.75,0.25,24,94.44
105,G#4,18.875,0.125,34,94.44
106,B4,19.0,0.5,52,94.44
107,E3,19.0,0.25,31,94.44
108,A2,19.0,1.0,42,94.44
109,F#3,19.25,0.25,26,94.44
110,A4,19.5,0.5,52,94.44
111,C#4,19.5,0.25,25,94.44
112,E4,19.75,0.25,23,94.44
113,G#4,20.0,2.0,52,94.44
114,E3,20.0,0.25,35,94.44
115,B2,20.0,2.0,46,94.44
116,G#3,20.25,0.25,26,94.44
117,B3,20.5,0.25,26,94.44
118,E4,20.75,0.25,25,94.44
119,E3,21.0,0.25,32,94.44
120,G#3,21.25,0.25,25,94.44
121,B3,21.5,0.25,25,94.44
122,E4,21.75,0.25,23,94.44
123,F#4,22.0,0.5,48,94.44
124,E-3,22.0,0.25,29,94.44
125,B2,22.0,0.5,38,94.44
126,F#3,22.25,0.25,25,94.44
127,B3,22.5,0.25,25,94.44
128,E-4,22.75,0.25,24,94.44
129,A4,23.0,1.0,51,94.44
130,B2,23.0,0.25,31,94.44
131,E-2,23.0,1.0,42,94.44
132,F#3,23.25,0.25,27,94.44
133,A3,23.5,0.25,29,94.44
134,B3,23.75,0.25,32,94.44
135,G#4,24.0,1.0,57,94.44
136,B2,24.0,0.25,40,94.44
137,E2,24.0,1.0,46,94.44
138,E3,24.25,0.25,26,94.44
139,G#3,24.5,0.25,29,94.44
140,B3,24.75,0.25,31,94.44
141,F#4,25.0,1.0,48,94.44
142,B2,25.0,0.25,38,94.44
143,F#2,25.0,1.0,42,94.44
144,E-3,25.25,0.25,25,94.44
145,A3,25.5,0.25,30,94.44
146,B3,25.75,0.25,26,94.44
147,E4,26.0,0.938,48,94.44
148,B2,26.0,0.25,33,94.44
149,G#2,26.0,1.0,42,94.44
150,E3,26.25,0.25,29,94.44
151,G#3,26.5,0.25,31,94.44
152,B3,26.75,0.25,36,94.44
153,E5,27.0,1.0,70,94.44
154,F#3,27.0,0.25,42,94.44
155,B-2,27.0,1.0,42,94.44
156,C#4,27.25,0.25,30,94.44
157,E4,27.5,0.25,32,94.44
158,F#4,27.75,0.25,29,94.44
159,E-5,28.0,1.0,71,94.44
160,F#3,28.0,0.25,35,94.44
161,B2,28.0,1.0,46,94.44
162,B3,28.25,0.25,26,94.44
163,E-4,28.5,0.25,26,94.44
164,F#4,28.75,0.25,25,94.44
165,C#5,29.0,1.0,54,94.44
166,F#3,29.0,0.25,32,94.44
167,C#3,29.0,1.0,42,94.44
168,B-3,29.25,0.25,25,94.44
169,E4,29.5,0.25,25,94.44
170,F#4,29.75,0.25,23,94.44
171,B4,30.0,0.938,64,94.44
172,F#3,30.0,0.25,33,94.44
173,E-3,30.0,1.0,37,94.44
174,B3,30.25,0.25,38,94.44
175,E-4,30.5,0.25,39,94.44
176,F#4,30.75,0.25,48,94.44
177,G#5,31.0,1.0,78,94.44
178,B3,31.0,0.25,54,94.44
179,E3,31.0,1.0,42,94.44
180,C#4,31.25,0.25,35,94.44
181,G#4,31.5,0.25,40,94.44
182,B4,31.75,0.25,33,94.44
183,C#5,32.0,2979/1000,67,94.44
184,B3,32.0,0.25,42,94.44
185,C#3,32.0,1.0,48,94.44
186,C#4,32.25,0.25,29,94.44
187,G#4,32.5,0.25,29,94.44
188,B4,32.75,0.25,29,94.44
189,B3,33.0,0.25,38,94.44
190,G#3,33.0,1.0,54,94.44
191,C#4,33.25,0.25,26,94.44
192,G#4,33.5,0.25,26,94.44
193,B4,33.75,0.25,26,94.44
194,B3,34.0,0.25,35,94.44
195,E3,34.0,2.0,49,94.44
196,C#4,34.25,0.25,27,94.44
197,G#4,34.5,0.25,27,94.44
198,B4,34.75,0.25,27,94.44
199,G#5,35.0,1.0,54,94.44
200,B3,35.0,0.25,35,94.44
201,C#4,35.25,0.25,18,94.44
202,G#4,35.5,0.25,19,94.44
203,B4,35.75,0.25,20,94.44
204,C#5,36.0,2979/1000,47,94.44
205,B3,36.0,0.25,29,94.44
206,E3,36.0,1.0,49,94.44
207,C#4,36.25,0.25,20,94.44
208,G#4,36.5,0.25,20,94.44
209,B4,36.75,0.25,20,94.44
210,B3,37.0,0.25,26,94.44
211,G#3,37.0,1.0,37,94.44
212,C#4,37.25,0.25,18,94.44
213,G#4,37.5,0.25,18,94.44
214,B4,37.75,0.25,18,94.44
215,B3,38.0,0.25,24,94.44
216,F3,38.0,2.0,34,94.44
217,C#4,38.25,0.25,18,94.44
218,G#4,38.5,0.25,18,94.44
219,B4,38.75,0.25,18,94.44
220,C#5,39.0,979/1000,61,94.44
221,B3,39.0,0.25,31,94.44
222,C#4,39.25,0.25,26,94.44
223,G#4,39.5,0.25,25,94.44
224,B4,39.75,0.25,23,94.44
225,C#5,40.0,1.0,62,94.44
226,B-3,40.0,0.25,29,94.44
227,F#3,40.0,1.0,46,94.44
228,C#4,40.25,0.25,25,94.44
229,F#4,40.5,0.25,29,94.44
230,B-4,40.75,0.25,25,94.44
231,E5,41.0,1.0,57,94.44
232,F#3,41.0,0.25,32,94.44
233,B-2,41.0,1.0,42,94.44
234,C#4,41.25,0.25,25,94.44
235,E4,41.5,0.25,25,94.44
236,F#4,41.75,0.25,23,94.44
237,E-5,42.0,1.0,50,94.44
238,F#3,42.0,0.25,29,94.44
239,B2,42.0,1.0,42,94.44
240,B3,42.25,0.25,25,94.44
241,E-4,42.5,0.25,25,94.44
242,F#4,42.75,0.25,24,94.44
243,C#5,43.0,0.5,50,94.44
244,E3,43.0,1.0,42,94.44
245,G#3,43.25,0.25,26,94.44
246,G#4,43.5,0.5,43,94.44
247,C#4,43.5,0.25,25,94.44
248,E4,43.75,0.25,23,94.44
249,B4,44.0,2.0,49,94.44
250,F#3,44.0,1.0,46,94.44
251,B3,44.25,0.25,26,94.44
252,E-4,44.5,0.25,26,94.44
253,F#4,44.75,0.25,25,94.44
254,F#3,45.0,0.25,32,94.44
255,B3,45.25,0.25,25,94.44
256,E-4,45.5,0.25,25,94.44
257,F#4,45.75,0.25,23,94.44
258,B-4,46.0,2.0,44,94.44
259,F#3,46.0,0.25,29,94.44
260,C#4,46.25,0.25,31,94.44
261,E4,46.5,0.25,38,94.44
262,F#4,46.75,0.25,44,94.44
263,F#3,47.0,0.25,49,94.44
264,F#2,47.0,1.0,38,94.44
265,C#4,47.25,0.25,33,94.44
266,E4,47.5,0.25,41,94.44
267,F#4,47.75,0.25,31,94.44
268,A4,48.0,2.0,43,94.44
269,F#3,48.0,0.25,32,94.44
270,F#2,48.0,1.0,38,94.44
271,C4,48.25,0.25,26,94.44
272,E-4,48.5,0.25,30,94.44
273,F#4,48.75,0.25,38,94.44
274,F#3,49.0,0.25,41,94.44
275,F#2,49.0,1.0,40,94.44
276,C4,49.25,0.25,25,94.44
277,E-4,49.5,0.25,25,94.44
278,F#4,49.75,0.25,23,94.44
279,G#4,50.0,0.5,36,94.44
280,E3,50.0,0.25,29,94.44
281,E2,50.0,1.0,34,94.44
282,G#3,50.25,0.25,25,94.44
283,C#4,50.5,0.25,25,94.44
284,E4,50.75,229/1000,24,94.44
285,G#4,51.0,1.0,63,94.44
286,E3,51.0,0.25,31,94.44
287,E-2,51.0,1.0,39,94.44
288,G#3,51.25,0.25,30,94.44
289,C#4,51.5,0.25,33,94.44
290,E4,51.75,0.25,38,94.44
291,B-4,52.0,1.0,70,94.44
292,E3,52.0,0.25,45,94.44
293,C#2,52.0,1.0,48,94.44
294,B-3,52.25,0.25,30,94.44
295,E4,52.5,0.25,32,94.44
296,F#4,52.75,0.25,41,94.44
297,B4,53.0,1.0,81,94.44
298,E3,53.0,0.25,46,94.44
299,B2,53.0,1.0,53,94.44
300,B3,53.25,0.25,33,94.44
301,E4,53.5,0.25,43,94.44
302,F#4,53.75,0.25,53,94.44
303,E-5,54.0,1.0,89,94.44
304,F#3,54.0,0.25,58,94.44
305,B-2,54.0,1.0,57,94.44
306,C#4,54.25,0.25,40,94.44
307,E4,54.5,0.25,46,94.44
308,F#4,54.75,0.25,38,94.44
309,C#5,55.0,0.75,75,94.44
310,F#3,55.0,0.25,40,94.44
311,F#2,55.0,1.0,62,94.44
312,B-3,55.25,0.25,32,94.44
313,E4,55.5,0.25,31,94.44
314,B4,55.75,229/1000,67,94.44
315,F#4,55.75,0.25,28,94.44
316,B4,56.0,2.0,80,94.44
317,F#3,56.0,0.25,36,94.44
318,B2,56.0,3.0,55,94.44
319,B3,56.25,0.25,32,94.44
320,E-4,56.5,0.25,32,94.44
321,F#4,56.75,0.25,31,94.44
322,F#3,57.0,0.25,40,94.44
323,B3,57.25,0.25,31,94.44
324,E-4,57.5,0.25,31,94.44
325,F#4,57.75,0.25,28,94.44
326,E-3,58.0,0.25,36,94.44
327,F#3,58.25,0.25,31,94.44
328,B3,58.5,0.25,31,94.44
329,E-4,58.75,0.25,30,94.44
330,A4,59.0,1.0,51,94.44
331,B2,59.0,0.25,31,94.44
332,E-3,59.25,0.25,26,94.44
333,F#3,59.5,0.25,32,94.44
334,B3,59.75,0.25,34,94.44
335,G#4,60.0,1.0,57,94.44
336,B2,60.0,0.25,40,94.44
337,E2,60.0,1.0,46,94.44
338,E3,60.25,0.25,26,94.44
339,G#3,60.5,0.25,26,94.44
340,B3,60.75,0.25,25,94.44
341,F#4,61.0,1.0,48,94.44
342,B2,61.0,0.25,32,94.44
343,F#2,61.0,1.0,42,94.44
344,E-3,61.25,0.25,25,94.44
345,A3,61.5,0.25,25,94.44
346,B3,61.75,0.25,23,94.44
347,E4,62.0,0.938,48,94.44
348,B2,62.0,0.25,33,94.44
349,G#2,62.0,1.0,42,94.44
350,E3,62.25,0.25,27,94.44
351,G#3,62.5,0.25,34,94.44
352,B3,62.75,0.25,44,94.44
353,E5,63.0,1.0,66,94.44
354,F#3,63.0,0.25,53,94.44
355,B-2,63.0,1.0,42,94.44
356,C#4,63.25,0.25,31,94.44
357,E4,63.5,0.25,39,94.44
358,F#4,63.75,0.25,23,94.44
359,E-5,64.0,1.0,62,94.44
360,F#3,64.0,0.25,35,94.44
361,B2,64.0,1.0,46,94.44
362,B3,64.25,0.25,26,94.44
363,E-4,64.5,0.25,26,94.44
364,F#4,64.75,0.25,25,94.44
365,C#5,65.0,1.0,52,94.44
366,F#3,65.0,0.25,32,94.44
367,C#3,65.0,1.0,42,94.44
368,B-3,65.25,0.25,25,94.44
369,E4,65.5,0.25,25,94.44
370,F#4,65.75,0.25,23,94.44
371,B4,66.0,0.938,52,94.44
372,F#3,66.0,0.25,33,94.44
373,E-3,66.0,1.0,37,94.44
374,B3,66.25,0.25,27,94.44
375,E-4,66.5,0.25,33,94.44
376,F#4,66.75,0.25,40,94.44
377,C#5,67.0,1.0,61,94.44
378,G#3,67.0,0.25,46,94.44
379,F3,67.0,1.0,42,94.44
380,B3,67.25,0.25,26,94.44
381,C#4,67.5,0.25,25,94.44
382,G#4,67.75,0.25,23,94.44
383,A4,68.0,1.0,62,94.44
384,F#3,68.0,1.0,46,94.44
385,A3,68.25,0.25,26,94.44
386,C#4,68.5,0.25,26,94.44
387,E4,68.75,0.25,25,94.44
388,B4,69.0,0.5,52,94.44
389,F#3,69.0,0.25,32,94.44
390,B2,69.0,1.0,42,94.44
391,A3,69.25,0.25,25,94.44
392,F#4,69.5,0.5,47,94.44
393,B3,69.5,0.25,25,94.44
394,E-4,69.75,0.25,23,94.44
395,G#4,70.0,0.5,52,94.44
396,E3,70.0,1.0,42,94.44
397,G#3,70.25,0.25,25,94.44
398,A4,70.5,0.125,50,94.44
399,B3,70.5,0.25,25,94.44
400,G#4,70.625,0.125,39,94.44
401,F#4,70.75,0.125,42,94.44
402,E4,70.75,0.25,24,94.44
403,G#4,70.875,0.125,34,94.44
404,B4,71.0,0.5,52,94.44
405,E3,71.0,0.25,31,94.44
406,A2,71.0,1.0,42,94.44
407,F#3,71.25,0.25,26,94.44
408,A4,71.5,0.5,52,94.44
409,C#4,71.5,0.25,25,94.44
410,E4,71.75,0.25,23,94.44
411,G#4,72.0,2.0,52,94.44
412,E3,72.0,0.25,35,94.44
413,B2,72.0,2.0,46,94.44
414,G#3,72.25,0.25,26,94.44
415,B3,72.5,0.25,26,94.44
416,E4,72.75,0.25,25,94.44
417,E3,73.0,0.25,32,94.44
418,G#3,73.25,0.25,25,94.44
419,B3,73.5,0.25,25,94.44
420,E4,73.75,0.25,23,94.44
421,F#4,74.0,0.5,48,94.44
422,E-3,74.0,0.25,29,94.44
423,B2,74.0,0.5,38,94.44
424,F#3,74.25,0.25,25,94.44
425,B3,74.5,0.25,25,94.44
426,E-4,74.75,0.25,24,94.44
427,A4,75.0,1.0,51,94.44
428,B2,75.0,0.25,31,94.44
429,E-2,75.0,1.0,42,94.44
430,F#3,75.25,0.25,27,94.44
431,A3,75.5,0.25,29,94.44
432,B3,75.75,0.25,32,94.44
433,G#4,76.0,1.0,57,94.44
434,B2,76.0,0.25,40,94.44
435,E2,76.0,1.0,46,94.44
436,E3,76.25,0.25,26,94.44
437,G#3,76.5,0.25,29,94.44
438,B3,76.75,0.25,31,94.44
439,F#4,77.0,1.0,48,94.44
440,B2,77.0,0.25,38,94.44
441,F#2,77.0,1.0,42,94.44
442,E-3,77.25,0.25,25,94.44
443,A3,77.5,0.25,30,94.44
444,B3,77.75,0.25,26,94.44
445,E4,78.0,0.938,48,94.44
446,B2,78.0,0.25,33,94.44
447,G#2,78.0,1.0,42,94.44
448,E3,78.25,0.25,29,94.44
449,G#3,78.5,0.25,31,94.44
450,B3,78.75,0.25,36,94.44
451,E5,79.0,1.0,70,94.44
452,F#3,79.0,0.25,42,94.44
453,B-2,79.0,1.0,42,94.44
454,C#4,79.25,0.25,30,94.44
455,E4,79.5,0.25,32,94.44
456,F#4,79.75,0.25,29,94.44
457,E-5,80.0,1.0,71,94.44
458,F#3,80.0,0.25,35,94.44
459,B2,80.0,1.0,46,94.44
460,B3,80.25,0.25,26,94.44
461,E-4,80.5,0.25,26,94.44
462,F#4,80.75,0.25,25,94.44
463,C#5,81.0,1.0,54,94.44
464,F#3,81.0,0.25,32,94.44
465,C#3,81.0,1.0,42,94.44
466,B-3,81.25,0.25,25,94.44
467,E4,81.5,0.25,25,94.44
468,F#4,81.75,0.25,23,94.44
469,B4,82.0,0.938,64,94.44
470,F#3,82.0,0.25,33,94.44
471,E-3,82.0,1.0,37,94.44
472,B3,82.25,0.25,38,94.44
473,E-4,82.5,0.25,39,94.44
474,F#4,82.75,0.25,48,94.44
475,G#5,83.0,1.0,78,94.44
476,B3,83.0,0.25,54,94.44
477,E3,83.0,1.0,42,94.44
478,C#4,83.25,0.25,35,94.44
479,G#4,83.5,0.25,40,94.44
480,B4,83.75,0.25,33,94.44
481,C#5,84.0,2.938,67,94.44
482,B3,84.0,0.25,42,94.44
483,C#3,84.0,1.0,48,94.44
484,C#4,84.25,0.25,29,94.44
485,G#4,84.5,0.25,29,94.44
486,B4,84.75,0.25,29,94.44
487,B3,85.0,0.25,38,94.44
488,G#3,85.0,1.0,54,94.44
489,C#4,85.25,0.25,26,94.44
490,G#4,85.5,0.25,26,94.44
491,B4,85.75,0.25,26,94.44
492,B3,86.0,0.25,35,94.44
493,E3,86.0,2.0,49,94.44
494,C#4,86.25,0.25,27,94.44
495,G#4,86.5,0.25,27,94.44
496,B4,86.75,0.25,27,94.44
497,G#5,87.0,1.0,54,94.44
498,B3,87.0,0.25,35,94.44
499,C#4,87.25,0.25,18,94.44
500,G#4,87.5,0.25,19,94.44
501,B4,87.75,0.25,20,94.44
502,C#5,88.0,2.938,47,94.44
503,B3,88.0,0.25,29,94.44
504,E3,88.0,1.0,49,94.44
505,C#4,88.25,0.25,20,94.44
506,G#4,88.5,0.25,20,94.44
507,B4,88.75,0.25,20,94.44
508,B3,89.0,0.25,26,94.44
509,G#3,89.0,1.0,37,94.44
510,C#4,89.25,0.25,18,94.44
511,G#4,89.5,0.25,18,94.44
512,B4,89.75,0.25,18,94.44
513,B3,90.0,0.25,24,94.44
514,F3,90.0,2.0,34,94.44
515,C#4,90.25,0.25,18,94.44
516,G#4,90.5,0.25,18,94.44
517,B4,90.75,0.25,18,94.44
518,C#5,91.0,979/1000,56,94.44
519,B3,91.0,0.25,31,94.44
520,C#4,91.25,0.25,26,94.44
521,G#4,91.5,0.25,25,94.44
522,B4,91.75,0.25,23,94.44
523,C#5,92.0,1.0,62,94.44
524,B-3,92.0,0.25,29,94.44
525,F#3,92.0,1.0,46,94.44
526,C#4,92.25,0.25,25,94.44
527,F#4,92.5,0.25,29,94.44
528,B-4,92.75,0.25,25,94.44
529,E5,93.0,1.0,57,94.44
530,F#3,93.0,0.25,32,94.44
531,B-2,93.0,1.0,42,94.44
532,C#4,93.25,0.25,25,94.44
533,E4,93.5,0.25,25,94.44
534,F#4,93.75,0.25,23,94.44
535,E-5,94.0,1.0,51,94.44
536,F#3,94.0,0.25,29,94.44
537,B2,94.0,1.0,42,94.44
538,B3,94.25,0.25,25,94.44
539,E-4,94.5,0.25,25,94.44
540,F#4,94.75,0.25,24,94.44
541,C#5,95.0,0.5,50,94.44
542,E3,95.0,1.0,42,94.44
543,G#3,95.25,0.25,26,94.44
544,G#4,95.5,0.5,44,94.44
545,C#4,95.5,0.25,25,94.44
546,E4,95.75,0.25,23,94.44
547,B4,96.0,2.0,50,94.44
548,F#3,96.0,1.0,46,94.44
549,B3,96.25,0.25,26,94.44
550,E-4,96.5,0.25,26,94.44
551,F#4,96.75,0.25,25,94.44
552,F#3,97.0,0.25,32,94.44
553,B3,97.25,0.25,25,94.44
554,E-4,97.5,0.25,25,94.44
555,F#4,97.75,0.25,23,94.44
556,B-4,98.0,2.0,44,94.44
557,F#3,98.0,0.25,29,94.44
558,C#4,98.25,0.25,31,94.44
559,E4,98.5,0.25,38,94.44
560,F#4,98.75,0.25,44,94.44
561,F#3,99.0,0.25,49,94.44
562,F#2,99.0,1.0,38,94.44
563,C#4,99.25,0.25,33,94.44
564,E4,99.5,0.25,41,94.44
565,F#4,99.75,0.25,31,94.44
566,A4,100.0,2.0,43,94.44
567,F#3,100.0,0.25,32,94.44
568,F#2,100.0,1.0,38,94.44
569,C4,100.25,0.25,26,94.44
570,E-4,100.5,0.25,30,94.44
571,F#4,100.75,0.25,38,94.44
572,F#3,101.0,0.25,41,94.44
573,F#2,101.0,1.0,40,94.44
574,C4,101.25,0.25,25,94.44
575,E-4,101.5,0.25,25,94.44
576,F#4,101.75,0.25,23,94.44
577,G#4,102.0,0.5,36,94.44
578,E3,102.0,0.25,29,94.44
579,E2,102.0,1.0,34,94.44
580,G#3,102.25,0.25,25,94.44
581,C#4,102.5,0.25,25,94.44
582,E4,102.75,229/1000,24,94.44
583,G#4,103.0,1.0,63,94.44
584,E3,103.0,0.25,31,94.44
585,E-2,103.0,1.0,39,94.44
586,G#3,103.25,0.25,30,94.44
587,C#4,103.5,0.25,33,94.44
588,E4,103.75,0.25,38,94.44
589,B-4,104.0,1.0,70,94.44
590,E3,104.0,0.25,45,94.44
591,C#2,104.0,1.0,48,94.44
592,B-3,104.25,0.25,30,94.44
593,E4,104.5,0.25,32,94.44
594,F#4,104.75,0.25,41,94.44
595,B4,105.0,1.0,81,94.44
596,E3,105.0,0.25,46,94.44
597,B2,105.0,1.0,53,94.44
598,B3,105.25,0.25,33,94.44
599,E4,105.5,0.25,43,94.44
600,F#4,105.75,0.25,53,94.44
601,E-5,106.0,1.0,89,94.44
602,F#3,106.0,0.25,58,94.44
603,B-2,106.0,1.0,57,94.44
604,C#4,106.25,0.25,40,94.44
605,E4,106.5,0.25,46,94.44
606,F#4,106.75,0.25,38,94.44
607,C#5,107.0,0.75,75,94.44
608,F#3,107.0,0.25,40,94.44
609,F#2,107.0,1.0,62,94.44
610,B-3,107.25,0.25,32,94.44
611,E4,107.5,0.25,31,94.44
612,B4,107.75,229/1000,67,94.44
613,F#4,107.75,0.25,28,94.44
614,B4,108.0,2.0,80,94.44
615,F#3,108.0,0.25,36,94.44
616,B2,108.0,3.0,55,94.44
617,B3,108.25,0.25,32,94.44
618,E-4,108.5,0.25,32,94.44
619,F#4,108.75,0.25,31,94.44
620,F#3,109.0,0.25,40,94.44
621,B3,109.25,0.25,31,94.44
622,E-4,109.5,0.25,31,94.44
623,F#4,109.75,0.25,28,94.44
624,E-3,110.0,0.25,36,94.44
625,F#3,110.25,0.25,31,94.44
626,B3,110.5,0.25,31,94.44
627,E-4,110.75,0.25,30,94.44
628,F#4,111.0,0.375,51,94.44
629,E-3,111.0,0.25,31,94.44
630,F#3,111.25,0.25,26,94.44
631,F#4,111.5,0.375,51,94.44
632,B3,111.5,0.25,32,94.44
633,E-4,111.75,0.25,34,94.44
634,G4,112.0,1.0,57,94.44
635,B2,112.0,0.25,40,94.44
636,E2,112.0,2.0,46,94.44
637,E3,112.25,0.25,26,94.44
638,G3,112.5,0.25,26,94.44
639,B3,112.75,0.25,26,94.44
640,F#4,113.0,0.5,50,94.44
641,B2,113.0,0.25,33,94.44
642,E3,113.25,0.25,26,94.44
643,E4,113.5,0.5,51,94.44
644,G3,113.5,0.25,27,94.44
645,B3,113.75,0.25,25,94.44
646,A4,114.0,0.938,53,94.44
647,C3,114.0,0.25,36,94.44
648,F#2,114.0,1.0,46,94.44
649,D3,114.25,0.25,30,94.44
650,A3,114.5,0.25,38,94.44
651,C4,114.75,0.25,51,94.44
652,A4,115.0,0.375,65,94.44
653,D3,115.0,1.0,49,94.44
654,F#3,115.25,0.25,36,94.44
655,A4,115.5,0.375,64,94.44
656,C4,115.5,0.25,46,94.44
657,D4,115.75,0.25,27,94.44
658,B4,116.0,1.0,75,94.44
659,D3,116.0,0.25,49,94.44
660,G2,116.0,2.0,56,94.44
661,G3,116.25,0.25,32,94.44
662,B3,116.5,0.25,32,94.44
663,D4,116.75,0.25,31,94.44
664,A4,117.0,0.5,61,94.44
665,E3,117.0,0.25,41,94.44
666,G3,117.25,0.25,32,94.44
667,G4,117.5,0.5,63,94.44
668,B3,117.5,0.25,33,94.44
669,E4,117.75,0.25,30,94.44
670,C5,118.0,0.938,69,94.44
671,E3,118.0,0.25,44,94.44
672,A2,118.0,2.0,56,94.44
673,A3,118.25,0.25,36,94.44
674,C4,118.5,0.25,46,94.44
675,E4,118.75,0.25,42,94.44
676,C5,119.0,0.375,78,94.44
677,E-3,119.0,0.25,46,94.44
678,A3,119.25,0.25,44,94.44
679,C5,119.5,0.375,72,94.44
680,C4,119.5,0.25,55,94.44
681,F#4,119.75,0.25,33,94.44
682,D5,120.0,1.0,86,94.44
683,D3,120.0,0.25,58,94.44
684,B2,120.0,2.0,67,94.44
685,G3,120.25,0.25,38,94.44
686,D4,120.5,0.25,38,94.44
687,G4,120.75,0.25,37,94.44
688,C5,121.0,0.5,72,94.44
689,G3,121.0,0.25,48,94.44
690,B3,121.25,0.25,38,94.44
691,B4,121.5,0.5,74,94.44
692,D4,121.5,0.25,38,94.44
693,G4,121.75,0.25,35,94.44
694,G5,122.0,0.938,86,94.44
695,G3,122.0,0.25,52,94.44
696,C3,122.0,2.0,66,94.44
697,E4,122.25,0.25,45,94.44
698,G4,122.5,0.25,54,94.44
699,C5,122.75,0.25,63,94.44
700,F#5,123.0,0.5,85,94.44
701,G3,123.0,0.25,56,94.44
702,E4,123.25,0.25,52,94.44
703,E5,123.5,0.5,70,94.44
704,G4,123.5,0.25,56,94.44
705,C5,123.75,0.25,39,94.44
706,D5,124.0,0.938,81,94.44
707,F#3,124.0,0.25,52,94.44
708,D3,124.0,1.0,66,94.44
709,C4,124.25,0.25,45,94.44
710,D4,124.5,0.25,54,94.44
711,A4,124.75,0.25,50,94.44
712,D5,125.0,1.0,74,94.44
713,G3,125.0,0.25,56,94.44
714,E3,125.0,1.0,62,94.44
715,C4,125.25,0.25,52,94.44
716,D4,125.5,0.25,56,94.44
717,G4,125.75,0.25,39,94.44
718,D5,126.0,0.25,68,94.44
719,D4,126.0,1.0,54,94.44
720,C4,126.0,1.0,54,94.44
721,A3,126.0,1.0,54,94.44
722,F#3,126.0,1.0,54,94.44
723,F#5,126.25,0.25,64,94.44
724,A5,126.5,0.25,69,94.44
725,C6,126.75,0.25,69,94.44
726,B5,127.0,0.25,74,94.44
727,A5,127.25,0.25,66,94.44
728,G5,127.5,0.25,70,94.44
729,F#5,127.75,0.25,65,94.44
730,E5,128.0,0.25,70,94.44
731,E-5,128.25,0.25,64,94.44
732,F#5,128.5,0.75,70,94.44
733,E5,129.25,0.25,66,94.44
734,D5,129.5,0.25,64,94.44
735,C5,129.75,0.25,58,94.44
736,B4,130.0,0.25,64,94.44
737,A4,130.25,0.25,57,94.44
738,G#4,130.5,0.25,61,94.44
739,A4,130.75,0.25,50,94.44
740,G#4,131.0,0.25,46,94.44
741,A4,131.25,0.125,46,94.44
742,B4,131.5,0.125,46,94.44
743,C5,131.75,0.125,41,94.44
744,D5,132.0,1.0,50,94.44
745,B3,132.25,0.25,26,94.44
746,D4,132.5,0.25,26,94.44
747,G4,132.75,0.25,25,94.44
748,B4,133.0,1.0,46,94.44
749,G3,133.0,0.25,32,94.44
750,B2,133.0,1.0,42,94.44
751,B3,133.25,0.25,25,94.44
752,D4,133.5,0.25,25,94.44
753,G4,133.75,0.25,23,94.44
754,A4,134.0,0.938,46,94.44
755,G3,134.0,0.25,33,94.44
756,C3,134.0,2.0,42,94.44
757,A3,134.25,0.25,27,94.44
758,E4,134.5,0.25,34,94.44
759,G4,134.75,0.25,44,94.44
760,E5,135.0,1.0,56,94.44
761,G3,135.0,0.25,53,94.44
762,A3,135.25,0.25,31,94.44
763,E4,135.5,0.25,39,94.44
764,G4,135.75,0.25,23,94.44
765,D5,136.0,1.0,57,94.44
766,G3,136.0,0.25,35,94.44
767,D3,136.0,2.0,46,94.44
768,B3,136.25,0.25,26,94.44
769,D4,136.5,0.25,26,94.44
770,G4,136.75,0.25,25,94.44
771,B4,137.0,1.0,48,94.44
772,G3,137.0,0.25,32,94.44
773,B3,137.25,0.25,25,94.44
774,D4,137.5,0.25,25,94.44
775,G4,137.75,0.25,23,94.44
776,A4,138.0,0.938,48,94.44
777,G3,138.0,0.25,33,94.44
778,E3,138.0,1.0,37,94.44
779,A3,138.25,0.25,27,94.44
780,C#4,138.5,0.25,33,94.44
781,G4,138.75,0.25,40,94.44
782,B4,139.0,0.5,56,94.44
783,A3,139.0,0.25,46,94.44
784,F#3,139.0,1.0,42,94.44
785,C4,139.25,0.25,26,94.44
786,C5,139.5,0.5,49,94.44
787,D4,139.5,0.25,25,94.44
788,A4,139.75,0.25,23,94.44
789,B4,140.0,0.25,57,94.44
790,G3,140.0,1.0,46,94.44
791,B3,140.25,0.25,26,94.44
792,B4,140.5,0.5,47,94.44
793,D4,140.5,0.25,26,94.44
794,G4,140.75,0.25,25,94.44
795,D5,141.0,0.5,54,94.44
796,G3,141.0,0.25,32,94.44
797,B3,141.25,0.25,25,94.44
798,B4,141.5,0.438,48,94.44
799,D4,141.5,0.25,25,94.44
800,G4,141.75,0.25,23,94.44
801,B4,142.0,0.5,53,94.44
802,E3,142.0,0.25,33,94.44
803,C3,142.0,2.0,37,94.44
804,A3,142.25,0.25,27,94.44
805,A4,142.5,0.5,48,94.44
806,C4,142.5,0.25,33,94.44
807,E4,142.75,0.25,31,94.44
808,G4,143.0,0.5,40,94.44
809,E3,143.0,0.25,37,94.44
810,A3,143.25,0.25,26,94.44
811,A4,143.5,0.5,40,94.44
812,C4,143.5,0.25,25,94.44
813,E4,143.75,0.25,23,94.44
814,B4,144.0,4.0,47,94.44
815,E-3,144.0,0.25,32,94.44
816,B2,144.0,4.0,40,94.44
817,F#3,144.25,0.25,26,94.44
818,B3,144.5,0.25,26,94.44
819,E-4,144.75,0.25,25,94.44
820,E-3,145.0,0.25,32,94.44
821,F#3,145.25,0.25,25,94.44
822,B3,145.5,0.25,25,94.44
823,E-4,145.75,0.25,23,94.44
824,E-3,146.0,0.25,33,94.44
825,F#3,146.25,0.25,27,94.44
826,B3,146.5,0.25,26,94.44
827,E-4,146.75,0.25,26,94.44
828,E-3,147.0,0.25,30,94.44
829,F#3,147.25,0.25,26,94.44
830,B3,147.5,0.25,25,94.44
831,E-4,147.75,0.25,22,94.44
832,B4,148.0,0.5,47,94.44
833,D3,148.0,0.25,32,94.44
834,G2,148.0,2.0,34,94.44
835,G3,148.25,0.25,19,94.44
836,B4,148.5,0.5,35,94.44
837,B3,148.5,0.25,19,94.44
838,G4,148.75,0.25,18,94.44
839,D5,149.0,0.5,40,94.44
840,D3,149.0,0.25,24,94.44
841,G3,149.25,0.25,18,94.44
842,B4,149.5,0.438,36,94.44
843,B3,149.5,0.25,18,94.44
844,G4,149.75,0.25,17,94.44
845,B4,150.0,0.5,39,94.44
846,E3,150.0,0.25,24,94.44
847,C3,150.0,2.0,27,94.44
848,A3,150.25,0.25,20,94.44
849,A4,150.5,0.5,36,94.44
850,C4,150.5,0.25,24,94.44
851,E4,150.75,0.25,23,94.44
852,G4,151.0,0.5,30,94.44
853,E3,151.0,0.25,27,94.44
854,A3,151.25,0.25,19,94.44
855,A4,151.5,0.5,30,94.44
856,C4,151.5,0.25,18,94.44
857,E4,151.75,0.25,17,94.44
858,B4,152.0,3.0,35,94.44
859,E-3,152.0,0.25,24,94.44
860,B2,152.0,4.0,30,94.44
861,F#3,152.25,0.25,19,94.44
862,B3,152.5,0.25,19,94.44
863,E-4,152.75,0.25,18,94.44
864,F#3,153.0,0.25,25,94.44
865,A3,153.25,0.25,19,94.44
866,B3,153.5,0.25,19,94.44
867,E-4,153.75,0.25,27,94.44
868,E3,154.0,0.25,31,94.44
869,G3,154.25,0.25,27,94.44
870,B3,154.5,0.25,30,94.44
871,E4,154.75,0.25,32,94.44
872,B-4,155.0,1.0,49,94.44
873,E3,155.0,0.25,34,94.44
874,G3,155.25,0.25,30,94.44
875,B3,155.5,0.25,32,94.44
876,E4,155.75,0.25,34,94.44
877,B4,156.0,2.0,57,94.44
878,E-3,156.0,0.25,35,94.44
879,B2,156.0,4.0,46,94.44
880,F#3,156.25,0.25,26,94.44
881,B3,156.5,0.25,26,94.44
882,E-4,156.75,0.25,25,94.44
883,F#3,157.0,0.25,32,94.44
884,A3,157.25,0.25,25,94.44
885,B3,157.5,0.25,25,94.44
886,E-4,157.75,0.25,23,94.44
887,E3,158.0,0.25,33,94.44
888,G3,158.25,0.25,27,94.44
889,B3,158.5,0.25,33,94.44
890,E4,158.75,0.25,40,94.44
891,C5,159.0,1.0,54,94.44
892,E3,159.0,0.25,34,94.44
893,G3,159.25,0.25,30,94.44
894,B3,159.5,0.25,32,94.44
895,E4,159.75,0.25,34,94.44
896,B4,160.0,2.0,57,94.44
897,E-3,160.0,0.25,35,94.44
898,B2,160.0,3.0,46,94.44
899,F#3,160.25,0.25,26,94.44
900,B3,160.5,0.25,26,94.44
901,E-4,160.75,0.25,25,94.44
902,E-3,161.0,0.25,32,94.44
903,F#3,161.25,0.25,25,94.44
904,B3,161.5,0.25,25,94.44
905,E-4,161.75,0.25,23,94.44
906,F#3,162.0,0.25,33,94.44
907,A3,162.25,0.25,27,94.44
908,B3,162.5,0.25,33,94.44
909,E-4,162.75,0.25,40,94.44
910,A4,163.0,1.0,71,94.44
911,E-3,163.0,0.25,43,94.44
912,F#3,163.25,0.25,36,94.44
913,B3,163.5,0.25,44,94.44
914,E-4,163.75,0.25,47,94.44
915,G#4,164.0,1.0,79,94.44
916,B2,164.0,0.25,56,94.44
917,E2,164.0,1.0,64,94.44
918,E3,164.25,0.25,37,94.44
919,G#3,164.5,0.25,38,94.44
920,B3,164.75,0.25,38,94.44
921,F#4,165.0,1.0,67,94.44
922,B2,165.0,0.25,50,94.44
923,F#2,165.0,1.0,58,94.44
924,E-3,165.25,0.25,43,94.44
925,A3,165.5,0.25,46,94.44
926,B3,165.75,0.25,48,94.44
927,E4,166.0,0.938,67,94.44
928,B2,166.0,0.25,59,94.44
929,G#2,166.0,1.0,58,94.44
930,E3,166.25,0.25,48,94.44
931,G#3,166.5,0.25,63,94.44
932,B3,166.75,0.25,61,94.44
933,E5,167.0,1.0,78,94.44
934,F#3,167.0,0.25,74,94.44
935,B-2,167.0,1.0,58,94.44
936,C#4,167.25,0.25,43,94.44
937,E4,167.5,0.25,54,94.44
938,F#4,167.75,0.25,32,94.44
939,E-5,168.0,1.0,79,94.44
940,F#3,168.0,0.25,49,94.44
941,B2,168.0,1.0,64,94.44
942,B3,168.25,0.25,36,94.44
943,E-4,168.5,0.25,36,94.44
944,F#4,168.75,0.25,35,94.44
945,C#5,169.0,1.0,67,94.44
946,F#3,169.0,0.25,44,94.44
947,C#3,169.0,1.0,58,94.44
948,B-3,169.25,0.25,35,94.44
949,E4,169.5,0.25,35,94.44
950,F#4,169.75,0.25,32,94.44
951,B4,170.0,0.938,67,94.44
952,F#3,170.0,0.25,46,94.44
953,E-3,170.0,1.0,51,94.44
954,B3,170.25,0.25,37,94.44
955,E-4,170.5,0.25,46,94.44
956,F#4,170.75,0.25,56,94.44
957,C#5,171.0,1.0,78,94.44
958,G#3,171.0,0.25,64,94.44
959,F3,171.0,1.0,58,94.44
960,B3,171.25,0.25,48,94.44
961,C#4,171.5,0.25,51,94.44
962,G#4,171.75,0.25,38,94.44
963,A4,172.0,0.5,79,94.44
964,A3,172.0,0.25,49,94.44
965,F#3,172.0,1.0,64,94.44
966,C#4,172.25,0.25,46,94.44
967,C#5,172.5,0.5,75,94.44
968,E4,172.5,0.25,49,94.44
969,F#4,172.75,0.25,45,94.44
970,B4,173.0,0.5,67,94.44
971,F#3,173.0,0.25,57,94.44
972,B2,173.0,1.0,58,94.44
973,A3,173.25,0.25,45,94.44
974,F#4,173.5,0.5,60,94.44
975,B3,173.5,0.25,45,94.44
976,E-4,173.75,0.25,41,94.44
977,G#4,174.0,0.438,67,94.44
978,E3,174.0,1.0,58,94.44
979,G#3,174.25,0.25,45,94.44
980,G#4,174.5,0.5,57,94.44
981,B3,174.5,0.25,45,94.44
982,E4,174.75,0.25,42,94.44
983,B4,175.0,0.5,67,94.44
984,C#3,175.0,1.0,58,94.44
985,E3,175.25,0.25,46,94.44
986,A4,175.5,0.5,57,94.44
987,A3,175.5,0.25,45,94.44
988,E4,175.75,0.25,41,94.44
989,G#4,176.0,2.0,67,94.44
990,E3,176.0,0.25,63,94.44
991,B2,176.0,3.0,64,94.44
992,G#3,176.25,0.25,46,94.44
993,B3,176.5,0.25,46,94.44
994,E4,176.75,0.25,45,94.44
995,E3,177.0,0.25,57,94.44
996,G#3,177.25,0.25,45,94.44
997,B3,177.5,0.25,45,94.44
998,E4,177.75,0.25,41,94.44
999,F#4,178.0,0.5,61,94.44
1000,E-3,178.0,0.25,52,94.44
1001,F#3,178.25,0.25,46,94.44
1002,B3,178.5,0.25,40,94.44
1003,E-4,178.75,0.25,35,94.44
1004,G#4,179.0,0.5,51,94.44
1005,E-3,179.0,0.25,30,94.44
1006,A2,179.0,1.0,37,94.44
1007,F#3,179.25,0.25,26,94.44
1008,A4,179.5,0.5,45,94.44
1009,B3,179.5,0.25,32,94.44
1010,E-4,179.75,0.25,34,94.44
1011,B4,180.0,1.0,57,94.44
1012,E3,180.0,0.25,40,94.44
1013,G#2,180.0,2.0,46,94.44
1014,G#3,180.25,0.25,26,94.44
1015,B3,180.5,0.25,26,94.44
1016,E4,180.75,0.25,25,94.44
1017,G#4,181.0,1.0,48,94.44
1018,E3,181.0,0.25,32,94.44
1019,G#3,181.25,0.25,25,94.44
1020,B3,181.5,0.25,25,94.44
1021,E4,181.75,0.25,23,94.44
1022,F#4,182.0,0.938,48,94.44
1023,E3,182.0,0.25,33,94.44
1024,A2,182.0,2.0,42,94.44
1025,F#3,182.25,0.25,27,94.44
1026,C#4,182.5,0.25,34,94.44
1027,E4,182.75,0.25,44,94.44
1028,C#5,183.0,1.0,56,94.44
1029,E3,183.0,0.25,53,94.44
1030,F#3,183.25,0.25,31,94.44
1031,C#4,183.5,0.25,39,94.44
1032,E4,183.75,0.25,23,94.44
1033,B4,184.0,1.0,57,94.44
1034,E3,184.0,0.25,35,94.44
1035,B2,184.0,2.0,46,94.44
1036,G#3,184.25,0.25,26,94.44
1037,B3,184.5,0.25,26,94.44
1038,E4,184.75,0.25,25,94.44
1039,G#4,185.0,1.0,48,94.44
1040,E3,185.0,0.25,32,94.44
1041,G#3,185.25,0.25,25,94.44
1042,B3,185.5,0.25,25,94.44
1043,E4,185.75,0.25,23,94.44
1044,F#4,186.0,0.938,49,94.44
1045,E3,186.0,0.25,33,94.44
1046,C#3,186.0,2.0,38,94.44
1047,F#3,186.25,0.25,28,94.44
1048,B-3,186.5,0.25,34,94.44
1049,E4,186.75,0.25,42,94.44
1050,E5,187.0,1.0,64,94.44
1051,F#3,187.0,0.25,55,94.44
1052,B-3,187.25,0.25,32,94.44
1053,E4,187.5,0.25,41,94.44
1054,F#4,187.75,0.25,24,94.44
1055,E5,188.0,1.0,60,94.44
1056,G#3,188.0,0.25,37,94.44
1057,B2,188.0,2.0,49,94.44
1058,B3,188.25,0.25,27,94.44
1059,E4,188.5,0.25,28,94.44
1060,G#4,188.75,0.25,27,94.44
1061,B4,189.0,1479/1000,52,94.44
1062,G#3,189.0,0.25,34,94.44
1063,B3,189.25,0.25,27,94.44
1064,E4,189.5,0.25,27,94.44
1065,G#4,189.75,0.25,25,94.44
1066,A3,190.0,0.25,36,94.44
1067,B2,190.0,2.0,40,94.44
1068,B3,190.25,0.25,29,94.44
1069,B4,190.5,0.5,56,94.44
1070,E4,190.5,0.25,36,94.44
1071,F#4,190.75,0.25,44,94.44
1072,C#5,191.0,0.5,62,94.44
1073,A3,191.0,0.25,36,94.44
1074,B3,191.25,0.25,37,94.44
1075,B4,191.5,0.5,61,94.44
1076,E-4,191.5,0.25,42,94.44
1077,F#4,191.75,0.25,37,94.44
1078,A4,192.0,2.0,55,94.44
1079,F#3,192.0,0.25,49,94.44
1080,E3,192.0,1.0,55,94.44
1081,A3,192.25,0.25,37,94.44
1082,B3,192.5,0.25,43,94.44
1083,E-4,192.75,0.25,36,94.44
1084,F#3,193.0,0.25,35,94.44
1085,B2,193.0,1.0,46,94.44
1086,A3,193.25,0.25,44,94.44
1087,B3,193.5,0.25,44,94.44
1088,E-4,193.75,0.25,39,94.44
1089,G#4,194.0,0.5,53,94.44
1090,E3,194.0,1.0,53,94.44
1091,G#3,194.25,0.25,46,94.44
1092,F#4,194.5,0.5,60,94.44
1093,B3,194.5,0.25,40,94.44
1094,E4,194.75,0.25,34,94.44
1095,G#4,195.0,0.5,61,94.44
1096,E3,195.0,0.25,36,94.44
1097,G#3,195.25,0.25,31,94.44
1098,A4,195.5,0.5,61,94.44
1099,B3,195.5,0.25,38,94.44
1100,E4,195.75,0.25,41,94.44
1101,B4,196.0,1.0,68,94.44
1102,E3,196.0,0.25,48,94.44
1103,G#3,196.25,0.25,31,94.44
1104,B3,196.5,0.25,31,94.44
1105,E4,196.75,0.25,30,94.44
1106,G#4,197.0,1.0,59,94.44
1107,E3,197.0,0.25,39,94.44
1108,B2,197.0,1.0,47,94.44
1109,G#3,197.25,0.25,31,94.44
1110,B3,197.5,0.25,31,94.44
1111,E4,197.75,0.25,28,94.44
1112,F#4,198.0,0.938,60,94.44
1113,E3,198.0,0.25,41,94.44
1114,B-2,198.0,1.0,52,94.44
1115,F#3,198.25,0.25,34,94.44
1116,C#4,198.5,0.25,42,94.44
1117,E4,198.75,0.25,55,94.44
1118,C#5,199.0,1.0,71,94.44
1119,E-3,199.0,0.25,67,94.44
1120,A2,199.0,1.0,47,94.44
1121,F#3,199.25,0.25,39,94.44
1122,E-4,199.5,0.25,49,94.44
1123,F#4,199.75,0.25,29,94.44
1124,B4,200.0,1.0,73,94.44
1125,E3,200.0,0.25,45,94.44
1126,G#2,200.0,1.0,59,94.44
1127,G#3,200.25,0.25,33,94.44
1128,B3,200.5,0.25,33,94.44
1129,E4,200.75,0.25,32,94.44
1130,G#4,201.0,1.0,62,94.44
1131,E3,201.0,0.25,41,94.44
1132,B2,201.0,1.0,53,94.44
1133,G#3,201.25,0.25,32,94.44
1134,B3,201.5,0.25,32,94.44
1135,E4,201.75,0.25,30,94.44
1136,F#4,202.0,0.938,63,94.44
1137,E3,202.0,0.25,43,94.44
1138,B-2,202.0,1.0,60,94.44
1139,F#3,202.25,0.25,35,94.44
1140,C#4,202.5,0.25,43,94.44
1141,E4,202.75,0.25,53,94.44
1142,E5,203.0,1.0,75,94.44
1143,F#3,203.0,0.25,71,94.44
1144,C#3,203.0,1.0,61,94.44
1145,B-3,203.25,0.25,41,94.44
1146,E4,203.5,0.25,52,94.44
1147,F#4,203.75,0.25,31,94.44
1148,E-5,204.0,1.0,77,94.44
1149,F#3,204.0,0.25,47,94.44
1150,B2,204.0,1.0,62,94.44
1151,B3,204.25,0.25,35,94.44
1152,E-4,204.5,0.25,35,94.44
1153,F#4,204.75,0.25,34,94.44
1154,C#5,205.0,1.0,66,94.44
1155,B-3,205.0,0.25,44,94.44
1156,E3,205.0,1.0,58,94.44
1157,C#4,205.25,0.25,34,94.44
1158,E4,205.5,0.25,34,94.44
1159,G4,205.75,0.25,31,94.44
1160,B4,206.0,0.5,69,94.44
1161,B3,206.0,0.25,46,94.44
1162,E-3,206.0,1.0,64,94.44
1163,E-4,206.25,0.25,37,94.44
1164,E-5,206.5,0.5,70,94.44
1165,F#4,206.5,0.25,46,94.44
1166,A4,206.75,0.25,56,94.44
1167,F#5,207.0,0.5,75,94.44
1168,E-4,207.0,0.25,46,94.44
1169,B3,207.0,1.0,61,94.44
1170,F#4,207.25,0.25,46,94.44
1171,A5,207.5,0.5,77,94.44
1172,A4,207.5,0.25,53,94.44
1173,B4,207.75,0.25,46,94.44
1174,G#5,208.0,0.5,75,94.44
1175,B3,208.0,0.25,60,94.44
1176,E3,208.0,1.0,68,94.44
1177,E4,208.25,0.25,46,94.44
1178,E-5,208.5,0.5,63,94.44
1179,G#4,208.5,0.25,53,94.44
1180,B4,208.75,0.25,44,94.44
1181,F#5,209.0,0.5,71,94.44
1182,C4,209.0,0.25,43,94.44
1183,G#3,209.0,1.0,58,94.44
1184,E4,209.25,0.25,46,94.44
1185,E5,209.5,0.5,64,94.44
1186,G#4,209.5,0.25,53,94.44
1187,C5,209.75,0.25,47,94.44
1188,E-5,210.0,0.5,63,94.44
1189,A3,210.0,1.0,63,94.44
1190,C#4,210.25,0.25,54,94.44
1191,C#5,210.5,0.5,54,94.44
1192,E4,210.5,0.25,47,94.44
1193,F#4,210.75,0.25,40,94.44
1194,A4,211.0,0.5,59,94.44
1195,E3,211.0,0.25,43,94.44
1196,A2,211.0,1.0,57,94.44
1197,F#3,211.25,0.25,53,94.44
1198,F#4,211.5,0.5,51,94.44
1199,A3,211.5,0.25,53,94.44
1200,C4,211.75,0.25,47,94.44
1201,E4,212.0,2.0,63,94.44
1202,B2,212.0,1.0,63,94.44
1203,E3,212.25,0.25,43,94.44
1204,G#3,212.5,0.25,40,94.44
1205,B3,212.75,0.25,34,94.44
1206,B2,213.0,0.25,42,94.44
1207,E3,213.25,0.25,34,94.44
1208,G#3,213.5,0.25,40,94.44
1209,B3,213.75,0.25,36,94.44
1210,E-4,214.0,2.0,44,94.44
1211,B2,214.0,0.25,29,94.44
1212,F#3,214.25,0.25,31,94.44
1213,A3,214.5,0.25,38,94.44
1214,B3,214.75,0.25,44,94.44
1215,B2,215.0,0.25,49,94.44
1216,B1,215.0,1.0,38,94.44
1217,F#3,215.25,0.25,33,94.44
1218,A3,215.5,0.25,41,94.44
1219,B3,215.75,0.25,31,94.44
1220,D4,216.0,2.0,43,94.44
1221,B2,216.0,0.25,32,94.44
1222,B1,216.0,1.0,38,94.44
1223,F3,216.25,0.25,26,94.44
1224,G#3,216.5,0.25,30,94.44
1225,B3,216.75,0.25,38,94.44
1226,B2,217.0,0.25,41,94.44
1227,B1,217.0,1.0,40,94.44
1228,F3,217.25,0.25,25,94.44
1229,G#3,217.5,0.25,25,94.44
1230,B3,217.75,0.25,23,94.44
1231,C#4,218.0,0.5,36,94.44
1232,A2,218.0,0.25,29,94.44
1233,A1,218.0,1.0,34,94.44
1234,C#3,218.25,0.25,25,94.44
1235,F#3,218.5,0.25,25,94.44
1236,A3,218.75,229/1000,24,94.44
1237,C#4,219.0,1.0,56,94.44
1238,A2,219.0,0.25,31,94.44
1239,G#1,219.0,1.0,39,94.44
1240,C#3,219.25,0.25,30,94.44
1241,F#3,219.5,0.25,33,94.44
1242,A3,219.75,0.25,38,94.44
1243,E-4,220.0,1.0,58,94.44
1244,A2,220.0,0.25,45,94.44
1245,F#1,220.0,1.0,48,94.44
1246,E-3,220.25,0.25,30,94.44
1247,A3,220.5,0.25,32,94.44
1248,B3,220.75,0.25,37,94.44
1249,E4,221.0,1.0,65,94.44
1250,A2,221.0,0.25,41,94.44
1251,E2,221.0,1.0,53,94.44
1252,E3,221.25,0.25,33,94.44
1253,A3,221.5,0.25,37,94.44
1254,B3,221.75,0.25,41,94.44
1255,G#4,222.0,1.0,70,94.44
1256,B2,222.0,0.25,45,94.44
1257,E-2,222.0,1.0,57,94.44
1258,F#3,222.25,0.25,35,94.44
1259,A3,222.5,0.25,46,94.44
1260,B3,222.75,0.25,38,94.44
1261,F#4,223.0,0.75,63,94.44
1262,B2,223.0,0.25,40,94.44
1263,B1,223.0,1.0,49,94.44
1264,E-3,223.25,0.25,32,94.44
1265,A3,223.5,0.25,31,94.44
1266,E4,223.75,229/1000,53,94.44
1267,B3,223.75,0.25,28,94.44
1268,E4,224.0,2.0,66,94.44
1269,B2,224.0,0.25,36,94.44
1270,E2,224.0,1979/1000,55,94.44
1271,E3,224.25,0.25,32,94.44
1272,G#3,224.5,0.25,32,94.44
1273,B3,224.75,0.25,31,94.44
1274,B2,225.0,0.25,40,94.44
1275,E3,225.25,0.25,31,94.44
1276,G#3,225.5,0.25,31,94.44
1277,B3,225.75,0.25,28,94.44
1278,B2,226.0,0.25,36,94.44
1279,E2,226.0,2.0,47,94.44
1280,E3,226.25,0.25,31,94.44
1281,G#3,226.5,0.25,31,94.44
1282,B3,226.75,0.25,30,94.44
1283,D4,227.0,1.0,49,94.44
1284,B2,227.0,0.25,34,94.44
1285,E3,227.25,0.25,30,94.44
1286,G#3,227.5,0.25,31,94.44
1287,B3,227.75,0.25,33,94.44
1288,C#4,228.0,2.0,55,94.44
1289,A2,228.0,0.25,33,94.44
1290,E2,228.0,1979/1000,47,94.44
1291,C#3,228.25,0.25,24,94.44
1292,E3,228.5,0.25,24,94.44
1293,A3,228.75,0.25,23,94.44
1294,A2,229.0,0.25,30,94.44
1295,C#3,229.25,0.25,23,94.44
1296,E3,229.5,0.25,23,94.44
1297,A3,229.75,0.25,20,94.44
1298,A2,230.0,0.25,29,94.44
1299,E2,230.0,2.0,42,94.44
1300,C#3,230.25,0.25,24,94.44
1301,E3,230.5,0.25,29,94.44
1302,A3,230.75,0.25,35,94.44
1303,C4,231.0,1.0,42,94.44
1304,A2,231.0,0.25,29,94.44
1305,C3,231.25,0.25,25,94.44
1306,E3,231.5,0.25,27,94.44
1307,A3,231.75,0.25,28,94.44
1308,B3,232.0,2.0,47,94.44
1309,F#2,232.0,0.25,29,94.44
1310,E2,232.0,1979/1000,42,94.44
1311,B2,232.25,0.25,21,94.44
1312,E-3,232.5,0.25,21,94.44
1313,A3,232.75,0.25,20,94.44
1314,F#2,233.0,0.25,25,94.44
1315,B2,233.25,0.25,20,94.44
1316,E-3,233.5,0.25,19,94.44
1317,A3,233.75,0.25,17,94.44
1318,F#2,234.0,0.25,25,94.44
1319,E2,234.0,2.0,36,94.44
1320,B2,234.25,0.25,20,94.44
1321,E-3,234.5,0.25,24,94.44
1322,A3,234.75,0.25,30,94.44
1323,G#4,235.0,0.5,36,94.44
1324,B2,235.0,0.25,25,94.44
1325,E-3,235.25,0.25,21,94.44
1326,F#4,235.5,0.5,35,94.44
1327,A3,235.5,0.25,23,94.44
1328,B3,235.75,0.25,24,94.44
1329,E4,236.0,2.0,39,94.44
1330,B2,236.0,0.25,24,94.44
1331,E2,236.0,1979/1000,36,94.44
1332,E3,236.25,0.25,18,94.44
1333,G#3,236.5,0.25,18,94.44
1334,B3,236.75,0.25,17,94.44
1335,B2,237.0,0.25,22,94.44
1336,E3,237.25,0.25,17,94.44
1337,G#3,237.5,0.25,17,94.44
1338,B3,237.75,0.25,16,94.44
1339,B2,238.0,0.25,23,94.44
1340,E2,238.0,2.0,32,94.44
1341,E3,238.25,0.25,15,94.44
1342,G#3,238.5,0.25,19,94.44
1343,B3,238.75,0.25,22,94.44
1344,G#4,239.0,1.0,34,94.44
1345,B2,239.0,0.25,24,94.44
1346,E3,239.25,0.25,18,94.44
1347,G#3,239.5,0.25,20,94.44
1348,B3,239.75,0.25,20,94.44
1349,E4,240.0,1979/1000,38,94.44
1350,B2,240.0,0.25,24,94.44
1351,E2,240.0,979/1000,32,94.44
1352,E3,240.25,0.25,17,94.44
1353,G#3,240.5,0.25,17,94.44
1354,B3,240.75,0.25,17,94.44
1355,B2,241.0,0.25,21,94.44
1356,E2,241.0,979/1000,24,94.44
1357,E3,241.25,0.25,17,94.44
1358,G#3,241.5,0.25,16,94.44
1359,B3,241.75,0.25,14,94.44
1360,E4,242.0,1979/1000,38,94.44
1361,B2,242.0,0.25,24,94.44
1362,E2,242.0,979/1000,24,94.44
1363,E3,242.25,0.25,17,94.44
1364,G#3,242.5,0.25,17,94.44
1365,B3,242.75,0.25,17,94.44
1366,B2,243.0,0.25,21,94.44
1367,E2,243.0,979/1000,23,94.44
1368,E3,243.25,0.25,17,94.44
1369,G#3,243.5,0.25,16,94.44
1370,B3,243.75,0.25,14,94.44
1371,G#3,244.0,4.0,22,94.44
1372,E4,244.0,4.0,22,94.44
1373,E2,244.0,4.0,15,94.44
1374,B2,244.0,4.0,15,94.44
