,note_name,start_time,duration,velocity,tempo
0,D3,0.125,0.156,25,61.75
1,C#3,0.25,0.156,32,61.75
2,D3,0.375,0.156,28,61.75
3,C#3,0.5,0.156,32,61.75
4,D3,0.625,0.156,28,61.75
5,C#3,0.75,0.156,35,61.75
6,D3,0.875,0.125,28,61.75
7,F#4,1.0,0.5,46,61.75
8,F#3,1.0,0.125,36,61.75
9,D3,1.125,0.125,29,61.75
10,C#3,1.25,0.156,35,61.75
11,D3,1.375,0.125,28,61.75
12,E2,1.5,0.125,34,61.75
13,G3,1.5,0.5,38,61.75
14,G4,1.5,0.5,38,61.75
15,D3,1.625,0.125,28,61.75
16,C#3,1.75,0.156,36,61.75
17,D3,1.875,0.125,33,61.75
18,F#2,2.0,0.125,40,61.75
19,A4,2.0,0.5,47,61.75
20,A3,2.0,0.5,47,61.75
21,D3,2.125,0.125,29,61.75
22,C#3,2.25,0.156,34,61.75
23,D3,2.375,0.125,43,61.75
24,G2,2.5,0.125,50,61.75
25,B3,2.5,0.5,50,61.75
26,B4,2.5,0.5,50,61.75
27,D3,2.625,0.125,39,61.75
28,C#3,2.75,0.156,40,61.75
29,D3,2.875,0.125,39,61.75
30,F#2,3.0,0.125,43,61.75
31,A4,3.0,0.5,44,61.75
32,A3,3.0,0.5,44,61.75
33,D3,3.125,0.125,34,61.75
34,C#3,3.25,0.156,39,61.75
35,D3,3.375,0.125,34,61.75
36,E2,3.5,0.125,45,61.75
37,G3,3.5,0.5,38,61.75
38,G4,3.5,0.5,38,61.75
39,D3,3.625,0.125,34,61.75
40,C#3,3.75,0.156,38,61.75
41,D3,3.875,0.125,34,61.75
42,D2,4.0,0.125,47,61.75
43,F#4,4.0,1.0,43,61.75
44,F#3,4.0,1.0,43,61.75
45,D3,4.125,0.125,31,61.75
46,C#3,4.25,0.156,34,61.75
47,D3,4.375,0.156,30,61.75
48,C#3,4.5,0.156,39,61.75
49,D3,4.625,0.156,29,61.75
50,C#3,4.75,0.156,34,61.75
51,D3,4.875,0.125,31,61.75
52,F#3,5.0,0.156,48,61.75
53,A4,5.0,0.5,49,61.75
54,A3,5.0,0.5,49,61.75
55,E3,5.125,0.156,37,61.75
56,F#3,5.25,0.156,40,61.75
57,E3,5.375,0.156,40,61.75
58,G#3,5.5,0.156,50,61.75
59,B4,5.5,0.5,50,61.75
60,B3,5.5,0.5,50,61.75
61,F#3,5.625,0.156,36,61.75
62,G#3,5.75,0.156,46,61.75
63,E3,5.875,0.125,49,61.75
64,A3,6.0,0.156,55,61.75
65,C#5,6.0,0.5,57,61.75
66,C#4,6.0,0.5,57,61.75
67,G#3,6.125,0.156,46,61.75
68,A3,6.25,0.156,47,61.75
69,E3,6.375,0.125,53,61.75
70,B3,6.5,0.156,62,61.75
71,D4,6.5,0.5,60,61.75
72,D5,6.5,0.5,60,61.75
73,A3,6.625,0.156,40,61.75
74,B3,6.75,0.156,48,61.75
75,E3,6.875,0.125,40,61.75
76,A3,7.0,0.156,53,61.75
77,C#5,7.0,0.5,54,61.75
78,C#4,7.0,0.5,54,61.75
79,G#3,7.125,0.156,40,61.75
80,A3,7.25,0.156,46,61.75
81,E3,7.375,0.125,40,61.75
82,G#3,7.5,0.156,47,61.75
83,B4,7.5,0.5,52,61.75
84,B3,7.5,0.5,52,61.75
85,F#3,7.625,0.156,37,61.75
86,G#3,7.75,0.156,40,61.75
87,E3,7.875,0.125,38,61.75
88,C#3,8.0,0.125,54,61.75
89,E5,8.0,0.5,58,61.75
90,E4,8.0,0.5,58,61.75
91,E3,8.125,0.125,46,61.75
92,B-3,8.25,0.125,46,61.75
93,C#4,8.375,0.125,49,61.75
94,B3,8.5,0.156,54,61.75
95,F#5,8.5,0.5,61,61.75
96,F#4,8.5,0.5,61,61.75
97,B-3,8.625,0.156,40,61.75
98,G#3,8.75,0.156,49,61.75
99,F#3,8.875,0.125,40,61.75
100,B3,9.0,0.125,56,61.75
101,E4,9.0,0.25,60,61.75
102,E5,9.0,0.25,60,61.75
103,C#4,9.125,0.125,40,61.75
104,B3,9.25,0.156,48,61.75
105,E-5,9.25,0.25,49,61.75
106,E-4,9.25,0.25,49,61.75
107,B-3,9.375,0.156,40,61.75
108,B3,9.5,0.156,50,61.75
109,C#5,9.5,0.125,50,61.75
110,C#4,9.5,0.125,50,61.75
111,A3,9.625,0.156,37,61.75
112,G#3,9.75,0.156,40,61.75
113,B3,9.75,0.125,46,61.75
114,B4,9.75,0.125,46,61.75
115,F#3,9.875,0.125,37,61.75
116,G#3,10.0,0.156,49,61.75
117,D5,10.0,0.5,52,61.75
118,D4,10.0,0.5,52,61.75
119,A3,10.125,0.156,40,61.75
120,B3,10.25,0.156,42,61.75
121,A3,10.375,0.125,47,61.75
122,G#3,10.5,0.125,51,61.75
123,E5,10.5,0.5,54,61.75
124,E4,10.5,0.5,54,61.75
125,E3,10.625,0.125,40,61.75
126,F#3,10.75,0.156,46,61.75
127,G#3,10.875,0.156,40,61.75
128,A3,11.0,0.156,53,61.75
129,D4,11.0,0.25,57,61.75
130,D5,11.0,0.25,57,61.75
131,B3,11.125,0.156,40,61.75
132,A3,11.25,0.156,46,61.75
133,C#5,11.25,0.25,52,61.75
134,C#4,11.25,0.25,52,61.75
135,G#3,11.375,0.156,40,61.75
136,A3,11.5,0.156,48,61.75
137,B3,11.5,0.125,46,61.75
138,B4,11.5,0.125,46,61.75
139,G#3,11.625,0.156,40,61.75
140,F#3,11.75,0.156,40,61.75
141,C#4,11.75,0.125,46,61.75
142,C#5,11.75,0.125,46,61.75
143,F3,11.875,0.125,38,61.75
144,F#3,12.0,0.125,47,61.75
145,D4,12.0,0.5,46,61.75
146,D5,12.0,0.5,46,61.75
147,A3,12.125,0.125,35,61.75
148,G#3,12.25,0.156,40,61.75
149,A3,12.375,0.125,36,61.75
150,E3,12.5,0.125,47,61.75
151,C#5,12.5,0.5,43,61.75
152,C#4,12.5,0.5,43,61.75
153,A3,12.625,0.125,35,61.75
154,G#3,12.75,0.156,40,61.75
155,A3,12.875,0.125,40,61.75
156,D3,13.0,0.125,48,61.75
157,B3,13.0,0.5,46,61.75
158,B4,13.0,0.5,46,61.75
159,A3,13.125,0.125,37,61.75
160,G#3,13.25,0.156,40,61.75
161,A3,13.375,0.125,37,61.75
162,C#3,13.5,0.125,47,61.75
163,E5,13.5,0.5,42,61.75
164,E4,13.5,0.5,42,61.75
165,A3,13.625,0.125,38,61.75
166,G#3,13.75,0.156,40,61.75
167,G3,13.875,0.125,37,61.75
168,F#3,14.0,0.125,46,61.75
169,D5,14.0,0.5,50,61.75
170,D4,14.0,0.5,50,61.75
171,A3,14.125,0.125,37,61.75
172,G#3,14.25,0.156,40,61.75
173,A3,14.375,0.125,37,61.75
174,E3,14.5,0.125,47,61.75
175,C#4,14.5,0.5,46,61.75
176,C#5,14.5,0.5,46,61.75
177,A3,14.625,0.125,39,61.75
178,G#3,14.75,0.156,40,61.75
179,A3,14.875,0.125,39,61.75
180,E-3,15.0,0.125,49,61.75
181,B4,15.0,0.75,50,61.75
182,B3,15.0,0.75,50,61.75
183,A3,15.125,0.125,38,61.75
184,G#3,15.25,0.156,40,61.75
185,A3,15.375,0.156,38,61.75
186,F#3,15.5,0.125,47,61.75
187,E-4,15.625,0.125,37,61.75
188,B4,15.75,0.25,50,61.75
189,A3,15.75,0.125,40,61.75
190,F#3,15.875,0.125,35,61.75
191,B-4,16.0,0.25,58,61.75
192,G#3,16.0,0.125,48,61.75
193,E3,16.125,0.125,40,61.75
194,D3,16.25,0.125,41,61.75
195,G#4,16.25,0.25,57,61.75
196,B4,16.25,0.25,57,61.75
197,E3,16.375,0.125,45,61.75
198,C#3,16.5,0.125,54,61.75
199,A4,16.5,0.25,59,61.75
200,C#5,16.5,0.25,59,61.75
201,E3,16.625,0.125,45,61.75
202,B2,16.75,0.125,52,61.75
203,B4,16.75,0.25,64,61.75
204,D5,16.75,0.25,64,61.75
205,E3,16.875,0.125,55,61.75
206,G#2,17.0,0.125,59,61.75
207,F#5,17.0,0.25,66,61.75
208,D5,17.0,0.25,66,61.75
209,E3,17.125,0.125,45,61.75
210,A2,17.25,0.125,52,61.75
211,C#5,17.25,0.25,66,61.75
212,E5,17.25,0.25,66,61.75
213,F#3,17.375,0.125,46,61.75
214,B2,17.5,0.125,53,61.75
215,D5,17.5,0.25,61,61.75
216,B4,17.5,0.25,61,61.75
217,G#3,17.625,0.125,40,61.75
218,C#3,17.75,0.125,46,61.75
219,C#5,17.75,0.25,59,61.75
220,A4,17.75,0.25,59,61.75
221,A3,17.875,0.125,40,61.75
222,D3,18.0,0.125,47,61.75
223,E5,18.0,0.25,59,61.75
224,C#5,18.0,0.25,59,61.75
225,F#3,18.125,0.125,40,61.75
226,D5,18.25,0.25,52,61.75
227,B-3,18.25,0.156,40,61.75
228,B3,18.375,0.156,46,61.75
229,F#4,18.5,0.25,57,61.75
230,E3,18.5,0.156,51,61.75
231,B3,18.625,0.125,40,61.75
232,G#4,18.75,0.75,60,61.75
233,D4,18.75,0.125,43,61.75
234,E4,18.875,0.125,40,61.75
235,B4,19.0,0.5,70,61.75
236,A3,19.0,0.125,57,61.75
237,D4,19.125,0.125,40,61.75
238,E4,19.25,0.125,45,61.75
239,D4,19.375,0.125,40,61.75
240,A4,19.5,0.5,58,61.75
241,C#4,19.5,0.125,52,61.75
242,B3,19.625,0.156,34,61.75
243,A3,19.75,0.156,40,61.75
244,B3,19.875,0.125,34,61.75
245,A4,20.0,1.0,58,61.75
246,C#4,20.0,0.156,46,61.75
247,B3,20.0,0.031,34,61.75
248,D4,20.125,0.156,34,61.75
249,E4,20.25,0.156,36,61.75
250,F#4,20.375,0.156,34,61.75
251,G4,20.5,0.156,40,61.75
252,F#4,20.625,0.156,30,61.75
253,G4,20.75,0.156,33,61.75
254,F4,20.875,0.156,30,61.75
255,F#4,21.0,0.156,40,61.75
256,F4,21.125,0.156,31,61.75
257,F#4,21.25,0.156,35,61.75
258,D4,21.375,0.156,30,61.75
259,F4,21.5,0.156,40,61.75
260,E4,21.625,0.156,31,61.75
261,F4,21.75,0.156,34,61.75
262,D4,21.875,0.125,31,61.75
263,C#4,22.0,0.156,40,61.75
264,C4,22.125,0.156,32,61.75
265,C#4,22.25,0.156,35,61.75
266,A3,22.375,0.156,30,61.75
267,G3,22.5,0.156,40,61.75
268,F#3,22.625,0.156,30,61.75
269,G3,22.75,0.156,34,61.75
270,E3,22.875,0.125,30,61.75
271,F#4,23.0,0.5,46,61.75
272,F#3,23.0,0.125,36,61.75
273,D3,23.125,0.125,29,61.75
274,C#3,23.25,0.156,35,61.75
275,D3,23.375,0.125,28,61.75
276,E2,23.5,0.125,34,61.75
277,G3,23.5,0.5,38,61.75
278,G4,23.5,0.5,38,61.75
279,D3,23.625,0.125,28,61.75
280,C#3,23.75,0.156,36,61.75
281,D3,23.875,0.125,33,61.75
282,F#2,24.0,0.125,40,61.75
283,A4,24.0,0.5,47,61.75
284,A3,24.0,0.5,47,61.75
285,D3,24.125,0.125,29,61.75
286,C#3,24.25,0.156,34,61.75
287,D3,24.375,0.125,43,61.75
288,G2,24.5,0.125,50,61.75
289,B3,24.5,0.5,50,61.75
290,B4,24.5,0.5,50,61.75
291,D3,24.625,0.125,39,61.75
292,C#3,24.75,0.156,40,61.75
293,D3,24.875,0.125,39,61.75
294,F#2,25.0,0.125,43,61.75
295,A4,25.0,0.5,44,61.75
296,A3,25.0,0.5,44,61.75
297,D3,25.125,0.125,34,61.75
298,C#3,25.25,0.156,39,61.75
299,D3,25.375,0.125,34,61.75
300,E2,25.5,0.125,45,61.75
301,G3,25.5,0.5,38,61.75
302,G4,25.5,0.5,38,61.75
303,D3,25.625,0.125,34,61.75
304,C#3,25.75,0.156,38,61.75
305,D3,25.875,0.125,34,61.75
306,D2,26.0,0.125,47,61.75
307,F#4,26.0,1.0,43,61.75
308,F#3,26.0,1.0,43,61.75
309,D3,26.125,0.125,31,61.75
310,C#3,26.25,0.156,34,61.75
311,D3,26.375,0.156,30,61.75
312,C#3,26.5,0.156,39,61.75
313,D3,26.625,0.156,29,61.75
314,C#3,26.75,0.156,34,61.75
315,D3,26.875,0.125,31,61.75
316,F#3,27.0,0.156,48,61.75
317,A4,27.0,0.5,49,61.75
318,A3,27.0,0.5,49,61.75
319,E3,27.125,0.156,37,61.75
320,F#3,27.25,0.156,40,61.75
321,E3,27.375,0.156,40,61.75
322,G#3,27.5,0.156,50,61.75
323,B4,27.5,0.5,50,61.75
324,B3,27.5,0.5,50,61.75
325,F#3,27.625,0.156,36,61.75
326,G#3,27.75,0.156,46,61.75
327,E3,27.875,0.125,49,61.75
328,A3,28.0,0.156,55,61.75
329,C#5,28.0,0.5,57,61.75
330,C#4,28.0,0.5,57,61.75
331,G#3,28.125,0.156,46,61.75
332,A3,28.25,0.156,47,61.75
333,E3,28.375,0.125,53,61.75
334,B3,28.5,0.156,62,61.75
335,D4,28.5,0.5,60,61.75
336,D5,28.5,0.5,60,61.75
337,A3,28.625,0.156,40,61.75
338,B3,28.75,0.156,48,61.75
339,E3,28.875,0.125,40,61.75
340,A3,29.0,0.156,53,61.75
341,C#5,29.0,0.5,54,61.75
342,C#4,29.0,0.5,54,61.75
343,G#3,29.125,0.156,40,61.75
344,A3,29.25,0.156,46,61.75
345,E3,29.375,0.125,40,61.75
346,G#3,29.5,0.156,47,61.75
347,B4,29.5,0.5,52,61.75
348,B3,29.5,0.5,52,61.75
349,F#3,29.625,0.156,37,61.75
350,G#3,29.75,0.156,40,61.75
351,E3,29.875,0.125,38,61.75
352,C#3,30.0,0.125,54,61.75
353,E5,30.0,0.5,58,61.75
354,E4,30.0,0.5,58,61.75
355,E3,30.125,0.125,46,61.75
356,B-3,30.25,0.125,46,61.75
357,C#4,30.375,0.125,49,61.75
358,B3,30.5,0.156,54,61.75
359,F#5,30.5,0.5,61,61.75
360,F#4,30.5,0.5,61,61.75
361,B-3,30.625,0.156,40,61.75
362,G#3,30.75,0.156,49,61.75
363,F#3,30.875,0.125,40,61.75
364,B3,31.0,0.125,56,61.75
365,E4,31.0,0.25,60,61.75
366,E5,31.0,0.25,60,61.75
367,C#4,31.125,0.125,40,61.75
368,B3,31.25,0.156,48,61.75
369,E-5,31.25,0.25,49,61.75
370,E-4,31.25,0.25,49,61.75
371,B-3,31.375,0.156,40,61.75
372,B3,31.5,0.156,50,61.75
373,C#5,31.5,0.125,50,61.75
374,C#4,31.5,0.125,50,61.75
375,A3,31.625,0.156,37,61.75
376,G#3,31.75,0.156,40,61.75
377,B3,31.75,0.125,46,61.75
378,B4,31.75,0.125,46,61.75
379,F#3,31.875,0.125,37,61.75
380,G#3,32.0,0.156,49,61.75
381,D5,32.0,0.5,52,61.75
382,D4,32.0,0.5,52,61.75
383,A3,32.125,0.156,40,61.75
384,B3,32.25,0.156,42,61.75
385,A3,32.375,0.125,47,61.75
386,G#3,32.5,0.125,51,61.75
387,E5,32.5,0.5,54,61.75
388,E4,32.5,0.5,54,61.75
389,E3,32.625,0.125,40,61.75
390,F#3,32.75,0.156,46,61.75
391,G#3,32.875,0.156,40,61.75
392,A3,33.0,0.156,53,61.75
393,D4,33.0,0.25,57,61.75
394,D5,33.0,0.25,57,61.75
395,B3,33.125,0.156,40,61.75
396,A3,33.25,0.156,46,61.75
397,C#5,33.25,0.25,52,61.75
398,C#4,33.25,0.25,52,61.75
399,G#3,33.375,0.156,40,61.75
400,A3,33.5,0.156,48,61.75
401,B3,33.5,0.125,46,61.75
402,B4,33.5,0.125,46,61.75
403,G#3,33.625,0.156,40,61.75
404,F#3,33.75,0.156,40,61.75
405,C#4,33.75,0.125,46,61.75
406,C#5,33.75,0.125,46,61.75
407,F3,33.875,0.125,38,61.75
408,F#3,34.0,0.125,47,61.75
409,D4,34.0,0.5,46,61.75
410,D5,34.0,0.5,46,61.75
411,A3,34.125,0.125,35,61.75
412,G#3,34.25,0.156,40,61.75
413,A3,34.375,0.125,36,61.75
414,E3,34.5,0.125,47,61.75
415,C#5,34.5,0.5,43,61.75
416,C#4,34.5,0.5,43,61.75
417,A3,34.625,0.125,35,61.75
418,G#3,34.75,0.156,40,61.75
419,A3,34.875,0.125,40,61.75
420,D3,35.0,0.125,48,61.75
421,B3,35.0,0.5,46,61.75
422,B4,35.0,0.5,46,61.75
423,A3,35.125,0.125,37,61.75
424,G#3,35.25,0.156,40,61.75
425,A3,35.375,0.125,37,61.75
426,C#3,35.5,0.125,47,61.75
427,E5,35.5,0.5,42,61.75
428,E4,35.5,0.5,42,61.75
429,A3,35.625,0.125,38,61.75
430,G#3,35.75,0.156,40,61.75
431,G3,35.875,0.125,37,61.75
432,F#3,36.0,0.125,46,61.75
433,D5,36.0,0.5,50,61.75
434,D4,36.0,0.5,50,61.75
435,A3,36.125,0.125,37,61.75
436,G#3,36.25,0.156,40,61.75
437,A3,36.375,0.125,37,61.75
438,E3,36.5,0.125,47,61.75
439,C#4,36.5,0.5,46,61.75
440,C#5,36.5,0.5,46,61.75
441,A3,36.625,0.125,39,61.75
442,G#3,36.75,0.156,40,61.75
443,A3,36.875,0.125,39,61.75
444,E-3,37.0,0.125,49,61.75
445,B4,37.0,0.75,50,61.75
446,B3,37.0,0.75,50,61.75
447,A3,37.125,0.125,38,61.75
448,G#3,37.25,0.156,40,61.75
449,A3,37.375,0.156,38,61.75
450,F#3,37.5,0.125,47,61.75
451,E-4,37.625,0.125,37,61.75
452,B4,37.75,0.25,50,61.75
453,A3,37.75,0.125,40,61.75
454,F#3,37.875,0.125,35,61.75
455,B-4,38.0,0.25,58,61.75
456,G#3,38.0,0.125,48,61.75
457,E3,38.125,0.125,40,61.75
458,D3,38.25,0.125,41,61.75
459,G#4,38.25,0.25,57,61.75
460,B4,38.25,0.25,57,61.75
461,E3,38.375,0.125,45,61.75
462,C#3,38.5,0.125,54,61.75
463,A4,38.5,0.25,59,61.75
464,C#5,38.5,0.25,59,61.75
465,E3,38.625,0.125,45,61.75
466,B2,38.75,0.125,52,61.75
467,B4,38.75,0.25,64,61.75
468,D5,38.75,0.25,64,61.75
469,E3,38.875,0.125,55,61.75
470,G#2,39.0,0.125,59,61.75
471,F#5,39.0,0.25,66,61.75
472,D5,39.0,0.25,66,61.75
473,E3,39.125,0.125,45,61.75
474,A2,39.25,0.125,52,61.75
475,C#5,39.25,0.25,66,61.75
476,E5,39.25,0.25,66,61.75
477,F#3,39.375,0.125,46,61.75
478,B2,39.5,0.125,53,61.75
479,D5,39.5,0.25,61,61.75
480,B4,39.5,0.25,61,61.75
481,G#3,39.625,0.125,40,61.75
482,C#3,39.75,0.125,46,61.75
483,C#5,39.75,0.25,59,61.75
484,A4,39.75,0.25,59,61.75
485,A3,39.875,0.125,40,61.75
486,D3,40.0,0.125,47,61.75
487,E5,40.0,0.25,59,61.75
488,C#5,40.0,0.25,59,61.75
489,F#3,40.125,0.125,40,61.75
490,D5,40.25,0.25,52,61.75
491,B-3,40.25,0.156,40,61.75
492,B3,40.375,0.156,46,61.75
493,F#4,40.5,0.25,57,61.75
494,E3,40.5,0.156,51,61.75
495,B3,40.625,0.125,40,61.75
496,G#4,40.75,0.75,60,61.75
497,D4,40.75,0.125,43,61.75
498,E4,40.875,0.125,40,61.75
499,B4,41.0,0.5,70,61.75
500,A3,41.0,0.125,57,61.75
501,D4,41.125,0.125,40,61.75
502,E4,41.25,0.125,45,61.75
503,D4,41.375,0.125,40,61.75
504,A4,41.5,0.5,58,61.75
505,C#4,41.5,0.125,52,61.75
506,B3,41.625,0.156,34,61.75
507,A3,41.75,0.156,40,61.75
508,B3,41.875,0.125,34,61.75
509,A4,42.0,1.0,58,61.75
510,C#4,42.0,0.156,46,61.75
511,B3,42.0,0.031,34,61.75
512,D4,42.125,0.156,34,61.75
513,E4,42.25,0.156,36,61.75
514,F#4,42.375,0.156,34,61.75
515,G4,42.5,0.156,40,61.75
516,F#4,42.625,0.156,30,61.75
517,G4,42.75,0.156,33,61.75
518,F4,42.875,0.156,30,61.75
519,F#4,43.0,0.156,40,61.75
520,F4,43.125,0.156,31,61.75
521,F#4,43.25,0.156,35,61.75
522,D4,43.375,0.156,30,61.75
523,F4,43.5,0.156,40,61.75
524,E4,43.625,0.156,31,61.75
525,F4,43.75,0.156,34,61.75
526,D4,43.875,0.125,31,61.75
527,C#4,44.0,0.156,40,61.75
528,C4,44.125,0.156,32,61.75
529,C#4,44.25,0.156,35,61.75
530,A3,44.375,0.156,30,61.75
531,G3,44.5,0.156,40,61.75
532,F#3,44.625,0.156,30,61.75
533,G3,44.75,0.156,34,61.75
534,E3,44.875,0.125,30,61.75
535,D3,45.0,0.156,42,61.75
536,C5,45.0,19/40,58,61.75
537,A4,45.0,19/40,58,61.75
538,F#4,45.0,19/40,58,61.75
539,C4,45.0,19/40,58,61.75
540,F#3,45.125,0.156,37,61.75
541,A3,45.25,0.156,43,61.75
542,G3,45.375,0.156,40,61.75
543,F#3,45.5,0.156,46,61.75
544,C5,45.5,0.5,56,61.75
545,A4,45.5,0.5,56,61.75
546,F#4,45.5,0.5,56,61.75
547,C4,45.5,0.5,56,61.75
548,G3,45.625,0.156,41,61.75
549,F#3,45.75,0.156,46,61.75
550,E3,45.875,0.125,41,61.75
551,E-3,46.0,0.156,50,61.75
552,B3,46.0,1.0,62,61.75
553,F#4,46.0,1.0,62,61.75
554,A4,46.0,1.0,62,61.75
555,B4,46.0,1.0,62,61.75
556,F#3,46.125,0.156,39,61.75
557,A3,46.25,0.156,46,61.75
558,G3,46.375,0.156,42,61.75
559,F#3,46.5,0.156,46,61.75
560,G3,46.625,0.156,42,61.75
561,F#3,46.75,0.156,46,61.75
562,E3,46.875,0.125,43,61.75
563,E-3,47.0,0.156,46,61.75
564,C5,47.0,19/40,63,61.75
565,A4,47.0,19/40,63,61.75
566,F#4,47.0,19/40,63,61.75
567,C4,47.0,19/40,63,61.75
568,F#3,47.125,0.156,40,61.75
569,A3,47.25,0.156,47,61.75
570,G3,47.375,0.156,44,61.75
571,F#3,47.5,0.156,50,61.75
572,C5,47.5,0.5,61,61.75
573,A4,47.5,0.5,61,61.75
574,F#4,47.5,0.5,61,61.75
575,C4,47.5,0.5,61,61.75
576,G3,47.625,0.156,45,61.75
577,F#3,47.75,0.156,50,61.75
578,E3,47.875,0.125,45,61.75
579,E-3,48.0,0.156,55,61.75
580,B3,48.0,1.0,67,61.75
581,F#4,48.0,1.0,67,61.75
582,A4,48.0,1.0,67,61.75
583,B4,48.0,1.0,67,61.75
584,F#3,48.125,0.156,42,61.75
585,A3,48.25,0.156,50,61.75
586,G3,48.375,0.156,46,61.75
587,F#3,48.5,0.156,50,61.75
588,G3,48.625,0.156,46,61.75
589,F#3,48.75,0.156,50,61.75
590,F3,48.875,0.125,47,61.75
591,E3,49.0,0.156,50,61.75
592,D5,49.0,19/40,69,61.75
593,B4,49.0,19/40,69,61.75
594,G#4,49.0,19/40,69,61.75
595,D4,49.0,19/40,69,61.75
596,G#3,49.125,0.156,44,61.75
597,B3,49.25,0.156,51,61.75
598,A3,49.375,0.156,48,61.75
599,G#3,49.5,0.156,55,61.75
600,D5,49.5,0.5,66,61.75
601,B4,49.5,0.5,66,61.75
602,G#4,49.5,0.5,66,61.75
603,D4,49.5,0.5,66,61.75
604,A3,49.625,0.156,49,61.75
605,G#3,49.75,0.156,55,61.75
606,F#3,49.875,0.125,49,61.75
607,F3,50.0,0.156,60,61.75
608,C#4,50.0,1.0,74,61.75
609,G#4,50.0,1.0,74,61.75
610,B4,50.0,1.0,74,61.75
611,C#5,50.0,1.0,74,61.75
612,G#3,50.125,0.156,46,61.75
613,B3,50.25,0.156,55,61.75
614,A3,50.375,0.156,50,61.75
615,G#3,50.5,0.156,55,61.75
616,A3,50.625,0.156,50,61.75
617,G#3,50.75,0.156,55,61.75
618,F#3,50.875,0.125,51,61.75
619,F3,51.0,0.156,55,61.75
620,D5,51.0,19/40,75,61.75
621,B4,51.0,19/40,75,61.75
622,G#4,51.0,19/40,75,61.75
623,D4,51.0,19/40,75,61.75
624,G#3,51.125,0.156,48,61.75
625,B3,51.25,0.156,56,61.75
626,A3,51.375,0.156,52,61.75
627,G#3,51.5,0.156,60,61.75
628,D5,51.5,0.5,72,61.75
629,B4,51.5,0.5,72,61.75
630,G#4,51.5,0.5,72,61.75
631,D4,51.5,0.5,72,61.75
632,A3,51.625,0.156,53,61.75
633,G#3,51.75,0.156,60,61.75
634,F#3,51.875,0.125,53,61.75
635,F3,52.0,0.156,66,61.75
636,C#4,52.0,1.0,81,61.75
637,G#4,52.0,1.0,81,61.75
638,B4,52.0,1.0,81,61.75
639,C#5,52.0,1.0,81,61.75
640,G#3,52.125,0.156,50,61.75
641,F4,52.25,0.156,60,61.75
642,D4,52.375,0.156,55,61.75
643,C#4,52.5,0.156,60,61.75
644,D4,52.625,0.156,55,61.75
645,C#4,52.75,0.156,60,61.75
646,B3,52.875,0.125,56,61.75
647,F#5,53.0,19/40,89,61.75
648,B-3,53.0,0.156,66,61.75
649,C#4,53.125,0.156,50,61.75
650,F#4,53.25,0.156,60,61.75
651,E4,53.375,0.156,55,61.75
652,D4,53.5,0.156,60,61.75
653,F#5,53.5,0.5,74,61.75
654,F#4,53.5,0.5,74,61.75
655,E4,53.625,0.156,55,61.75
656,D4,53.75,0.156,60,61.75
657,C#4,53.875,0.125,56,61.75
658,B3,54.0,0.156,60,61.75
659,G4,54.0,0.5,86,61.75
660,F#5,54.0,0.5,86,61.75
661,C#4,54.125,0.156,55,61.75
662,B3,54.25,0.156,60,61.75
663,C#4,54.375,0.156,55,61.75
664,D4,54.5,0.156,60,61.75
665,E5,54.5,19/40,68,61.75
666,G#4,54.5,19/40,68,61.75
667,B3,54.625,0.125,52,61.75
668,E4,54.75,0.156,63,61.75
669,D4,54.875,0.156,56,61.75
670,C#4,55.0,0.156,58,61.75
671,E5,55.0,0.5,78,61.75
672,A4,55.0,0.5,78,61.75
673,B3,55.125,0.156,57,61.75
674,A3,55.25,0.156,54,61.75
675,G3,55.375,0.156,49,61.75
676,D5,55.5,0.25,77,61.75
677,B-4,55.5,0.5,65,61.75
678,F#3,55.5,0.156,62,61.75
679,E3,55.625,0.156,51,61.75
680,C#5,55.75,0.25,71,61.75
681,F#3,55.75,0.156,61,61.75
682,E3,55.875,0.125,54,61.75
683,B4,56.0,0.25,78,61.75
684,D3,56.0,0.156,60,61.75
685,C#3,56.125,0.156,50,61.75
686,D3,56.25,0.156,60,61.75
687,C#5,56.25,0.25,72,61.75
688,A4,56.25,0.25,72,61.75
689,C#3,56.375,0.156,51,61.75
690,G#4,56.5,0.25,69,61.75
691,D5,56.5,0.5,82,61.75
692,B2,56.5,0.156,60,61.75
693,A2,56.625,0.156,55,61.75
694,F#4,56.75,0.25,62,61.75
695,B2,56.75,0.156,60,61.75
696,G#2,56.875,0.125,51,61.75
697,C#3,57.0,0.156,66,61.75
698,F4,57.0,19/40,78,61.75
699,C#5,57.0,19/40,78,61.75
700,G#3,57.125,0.156,50,61.75
701,C#4,57.25,49/250,60,61.75
702,B3,57.375,49/250,55,61.75
703,A3,57.5,49/250,60,61.75
704,C#5,57.5,0.5,74,61.75
705,C#4,57.5,0.5,74,61.75
706,G#3,57.625,49/250,55,61.75
707,A3,57.75,49/250,60,61.75
708,G#3,57.875,0.125,56,61.75
709,F#3,58.0,0.156,60,61.75
710,D4,58.0,0.5,86,61.75
711,C#5,58.0,0.5,86,61.75
712,G#3,58.125,0.156,55,61.75
713,F#3,58.25,0.156,60,61.75
714,G#3,58.375,0.156,55,61.75
715,A3,58.5,0.156,60,61.75
716,B4,58.5,19/40,68,61.75
717,E-4,58.5,19/40,68,61.75
718,F#3,58.625,0.125,52,61.75
719,B3,58.75,0.156,63,61.75
720,A3,58.875,0.156,56,61.75
721,G#3,59.0,0.156,58,61.75
722,B4,59.0,0.5,78,61.75
723,E4,59.0,0.5,78,61.75
724,F#3,59.125,0.156,57,61.75
725,E3,59.25,0.156,54,61.75
726,D3,59.375,0.156,49,61.75
727,A4,59.5,0.25,77,61.75
728,F4,59.5,0.5,65,61.75
729,C#3,59.5,0.156,62,61.75
730,B2,59.625,0.156,51,61.75
731,G#4,59.75,0.25,71,61.75
732,C#3,59.75,0.156,61,61.75
733,B2,59.875,0.125,54,61.75
734,F#4,60.0,0.25,78,61.75
735,A2,60.0,0.125,60,61.75
736,C#3,60.125,0.125,50,61.75
737,A3,60.25,0.156,60,61.75
738,G#4,60.25,0.25,72,61.75
739,E4,60.25,0.25,72,61.75
740,G#3,60.375,0.156,51,61.75
741,D4,60.5,0.25,69,61.75
742,A4,60.5,0.5,82,61.75
743,F#3,60.5,0.156,60,61.75
744,E3,60.625,0.156,55,61.75
745,C#4,60.75,0.25,62,61.75
746,F#3,60.75,0.156,60,61.75
747,E3,60.875,0.125,51,61.75
748,D3,61.0,0.125,55,61.75
749,A4,61.0,19/40,76,61.75
750,F#4,61.0,19/40,76,61.75
751,D4,61.0,19/40,76,61.75
752,F#3,61.125,0.125,48,61.75
753,A3,61.25,0.125,56,61.75
754,G#3,61.375,0.125,52,61.75
755,F#3,61.5,0.125,60,61.75
756,B4,61.5,0.5,72,61.75
757,F#4,61.5,0.5,72,61.75
758,D4,61.5,0.5,72,61.75
759,B3,61.5,0.5,72,61.75
760,F3,61.625,0.125,53,61.75
761,F#3,61.75,0.125,60,61.75
762,D3,61.875,0.125,53,61.75
763,C#3,62.0,0.125,66,61.75
764,C#4,62.0,1.0,81,61.75
765,F#4,62.0,1.0,81,61.75
766,A4,62.0,1.0,81,61.75
767,C#5,62.0,1.0,81,61.75
768,F#3,62.125,0.125,50,61.75
769,A3,62.25,0.125,60,61.75
770,G#3,62.375,0.125,55,61.75
771,F#3,62.5,0.156,60,61.75
772,F3,62.625,0.156,55,61.75
773,F#3,62.75,0.156,60,61.75
774,C#3,62.875,0.125,56,61.75
775,D3,63.0,0.125,56,61.75
776,A4,63.0,19/40,77,61.75
777,F#4,63.0,19/40,77,61.75
778,D4,63.0,19/40,77,61.75
779,F#3,63.125,0.125,48,61.75
780,A3,63.25,0.125,57,61.75
781,G#3,63.375,0.125,53,61.75
782,F#3,63.5,0.125,61,61.75
783,B4,63.5,0.5,73,61.75
784,F#4,63.5,0.5,73,61.75
785,D4,63.5,0.5,73,61.75
786,B3,63.5,0.5,73,61.75
787,F3,63.625,0.125,54,61.75
788,F#3,63.75,0.125,61,61.75
789,D3,63.875,0.125,54,61.75
790,C#3,64.0,0.125,67,61.75
791,C#4,64.0,1.0,82,61.75
792,F#4,64.0,1.0,82,61.75
793,A4,64.0,1.0,82,61.75
794,C#5,64.0,1.0,82,61.75
795,F#3,64.125,0.125,51,61.75
796,A3,64.25,0.125,61,61.75
797,G#3,64.375,0.125,56,61.75
798,F#3,64.5,0.156,61,61.75
799,F3,64.625,0.156,56,61.75
800,F#3,64.75,0.156,61,61.75
801,C#3,64.875,0.125,57,61.75
802,D3,65.0,0.125,56,61.75
803,A4,65.0,19/40,77,61.75
804,F#4,65.0,19/40,77,61.75
805,D4,65.0,19/40,77,61.75
806,F#3,65.125,0.125,48,61.75
807,A3,65.25,0.125,58,61.75
808,G#3,65.375,0.125,55,61.75
809,F#3,65.5,0.125,65,61.75
810,B4,65.5,0.5,78,61.75
811,F#4,65.5,0.5,78,61.75
812,D4,65.5,0.5,78,61.75
813,B3,65.5,0.5,78,61.75
814,F3,65.625,0.125,58,61.75
815,F#3,65.75,0.125,67,61.75
816,D3,65.875,0.125,61,61.75
817,C#3,66.0,0.125,77,61.75
818,C#4,66.0,2.0,93,61.75
819,F#4,66.0,2.0,93,61.75
820,A4,66.0,2.0,93,61.75
821,C#5,66.0,2.0,93,61.75
822,F#3,66.125,0.125,58,61.75
823,A3,66.25,0.125,68,61.75
824,G#3,66.375,0.125,61,61.75
825,F#3,66.5,0.156,65,61.75
826,F3,66.625,0.156,59,61.75
827,F#3,66.75,0.156,63,61.75
828,D3,66.875,0.125,58,61.75
829,C#3,67.0,0.125,56,61.75
830,F#3,67.125,0.125,47,61.75
831,A3,67.25,0.125,55,61.75
832,G#3,67.375,0.125,50,61.75
833,F#3,67.5,0.125,56,61.75
834,F3,67.625,0.125,49,61.75
835,F#3,67.75,0.125,54,61.75
836,D3,67.875,0.125,46,61.75
837,C#3,68.0,0.125,53,61.75
838,F#3,68.125,0.125,37,61.75
839,A3,68.25,0.125,45,61.75
840,G#3,68.375,0.125,34,61.75
841,F#3,68.5,0.156,40,61.75
842,F3,68.625,0.156,34,61.75
843,F#3,68.75,0.156,37,61.75
844,D3,68.875,0.125,35,61.75
845,F#3,69.0,0.125,36,61.75
846,C#4,69.0,1.0,93,61.75
847,F#4,69.0,1.0,93,61.75
848,A4,69.0,1.0,93,61.75
849,C#5,69.0,1.0,93,61.75
850,D3,69.125,0.125,29,61.75
851,C#3,69.25,0.156,35,61.75
852,D3,69.375,0.125,28,61.75
853,E3,69.5,0.125,34,61.75
854,D3,69.625,0.125,28,61.75
855,C#3,69.75,0.156,36,61.75
856,D3,69.875,0.125,33,61.75
857,F#4,70.0,0.5,46,61.75
858,F#3,70.0,0.125,40,61.75
859,D3,70.125,0.125,29,61.75
860,C#3,70.25,0.156,34,61.75
861,D3,70.375,0.125,43,61.75
862,G2,70.5,0.125,50,61.75
863,G3,70.5,0.5,38,61.75
864,G4,70.5,0.5,38,61.75
865,D3,70.625,0.125,39,61.75
866,C#3,70.75,0.156,40,61.75
867,D3,70.875,0.125,39,61.75
868,F#2,71.0,0.125,43,61.75
869,A4,71.0,0.5,47,61.75
870,A3,71.0,0.5,47,61.75
871,D3,71.125,0.125,34,61.75
872,C#3,71.25,0.156,39,61.75
873,D3,71.375,0.125,34,61.75
874,E2,71.5,0.125,45,61.75
875,B3,71.5,0.5,50,61.75
876,B4,71.5,0.5,50,61.75
877,D3,71.625,0.125,34,61.75
878,C#3,71.75,0.156,38,61.75
879,D3,71.875,0.125,34,61.75
880,D2,72.0,0.125,47,61.75
881,A4,72.0,0.5,44,61.75
882,A3,72.0,0.5,44,61.75
883,D3,72.125,0.125,31,61.75
884,C#3,72.25,0.156,34,61.75
885,D3,72.375,0.156,30,61.75
886,C#3,72.5,0.156,39,61.75
887,G3,72.5,0.5,38,61.75
888,G4,72.5,0.5,38,61.75
889,D3,72.625,0.156,29,61.75
890,C#3,72.75,0.156,34,61.75
891,D3,72.875,0.125,31,61.75
892,D2,73.0,0.156,48,61.75
893,F#4,73.0,1.0,43,61.75
894,F#3,73.0,1.0,43,61.75
895,C3,73.125,0.156,37,61.75
896,B2,73.25,0.156,40,61.75
897,C3,73.375,0.156,40,61.75
898,E2,73.5,0.156,50,61.75
899,C3,73.625,0.156,36,61.75
900,B2,73.75,0.156,46,61.75
901,C3,73.875,0.125,49,61.75
902,F#2,74.0,0.156,55,61.75
903,F#4,74.0,0.5,49,61.75
904,F#3,74.0,0.5,49,61.75
905,C3,74.125,0.156,46,61.75
906,B2,74.25,0.156,47,61.75
907,C3,74.375,0.125,53,61.75
908,G2,74.5,0.156,62,61.75
909,G4,74.5,0.5,50,61.75
910,G3,74.5,0.5,50,61.75
911,B2,74.625,0.156,50,61.75
912,A2,74.75,0.156,55,61.75
913,B2,74.875,0.125,50,61.75
914,G2,75.0,0.156,60,61.75
915,A4,75.0,0.5,57,61.75
916,A3,75.0,0.5,57,61.75
917,A2,75.125,0.156,51,61.75
918,G2,75.25,0.156,57,61.75
919,A2,75.375,0.125,53,61.75
920,F#2,75.5,0.156,62,61.75
921,B3,75.5,0.5,60,61.75
922,B4,75.5,0.5,60,61.75
923,G2,75.625,0.156,51,61.75
924,E2,75.75,0.156,54,61.75
925,F#2,75.875,0.125,50,61.75
926,E-2,76.0,0.125,64,61.75
927,C5,76.0,0.5,71,61.75
928,C4,76.0,0.5,71,61.75
929,F#2,76.125,0.125,53,61.75
930,B2,76.25,0.125,55,61.75
931,C#3,76.375,0.125,54,61.75
932,E-3,76.5,3/20,61,61.75
933,D5,76.5,0.5,68,61.75
934,D4,76.5,0.5,68,61.75
935,E3,76.625,3/20,47,61.75
936,F#3,76.75,3/20,57,61.75
937,E3,76.875,3/20,47,61.75
938,B4,77.0,1.0,82,61.75
939,B3,77.0,2.0,65,61.75
940,E-3,77.0,3/20,61,61.75
941,E3,77.125,3/20,50,61.75
942,E-3,77.25,3/20,54,61.75
943,C#3,77.375,3/20,51,61.75
944,E-3,77.5,3/20,61,61.75
945,B2,77.625,3/20,52,61.75
946,C#3,77.75,3/20,54,61.75
947,E-3,77.875,0.125,53,61.75
948,A4,78.0,0.5,72,61.75
949,E3,78.0,3/20,62,61.75
950,F#3,78.125,3/20,48,61.75
951,E3,78.25,3/20,54,61.75
952,E-3,78.375,0.125,49,61.75
953,B4,78.5,0.5,75,61.75
954,E3,78.5,3/20,54,61.75
955,D3,78.625,3/20,50,61.75
956,C#3,78.75,3/20,54,61.75
957,B2,78.875,0.125,52,61.75
958,A4,79.0,0.25,74,61.75
959,B3,79.0,1.0,65,61.75
960,C#3,79.0,3/20,61,61.75
961,D3,79.125,3/20,50,61.75
962,G#4,79.25,0.25,60,61.75
963,E3,79.25,3/20,54,61.75
964,D3,79.375,3/20,51,61.75
965,F#4,79.5,0.125,63,61.75
966,C#3,79.5,3/20,61,61.75
967,A2,79.625,3/20,52,61.75
968,E4,79.75,0.125,57,61.75
969,B2,79.75,3/20,54,61.75
970,C#3,79.875,0.125,53,61.75
971,A3,80.0,1.0,63,61.75
972,G4,80.0,0.5,72,61.75
973,E3,80.0,3/20,62,61.75
974,D3,80.125,3/20,48,61.75
975,C#3,80.25,3/20,54,61.75
976,D3,80.375,0.125,49,61.75
977,A4,80.5,0.5,75,61.75
978,C#3,80.5,3/20,54,61.75
979,D3,80.625,3/20,50,61.75
980,C3,80.75,3/20,54,61.75
981,D3,80.875,0.125,52,61.75
982,G4,81.0,0.25,74,61.75
983,A3,81.0,1.0,63,61.75
984,B2,81.0,0.125,47,61.75
985,D3,81.125,0.125,35,61.75
986,F#4,81.25,0.25,60,61.75
987,B-2,81.25,0.156,40,61.75
988,D3,81.375,0.125,36,61.75
989,E4,81.5,0.125,63,61.75
990,A2,81.5,0.125,47,61.75
991,D3,81.625,0.125,35,61.75
992,F#4,81.75,0.125,57,61.75
993,D2,81.75,0.156,40,61.75
994,D3,81.875,0.125,40,61.75
995,G#2,82.0,0.125,48,61.75
996,D4,82.0,0.5,46,61.75
997,G4,82.0,0.5,46,61.75
998,D3,82.125,0.125,37,61.75
999,G2,82.25,0.156,40,61.75
1000,D3,82.375,0.125,37,61.75
1001,F#2,82.5,0.125,47,61.75
1002,F#4,82.5,0.5,43,61.75
1003,A3,82.5,0.5,43,61.75
1004,D3,82.625,0.125,38,61.75
1005,D2,82.75,0.156,40,61.75
1006,D3,82.875,0.125,37,61.75
1007,B3,83.0,0.25,42,61.75
1008,E4,83.0,0.5,50,61.75
1009,B2,83.0,0.125,46,61.75
1010,D3,83.125,0.125,37,61.75
1011,C#4,83.25,0.25,42,61.75
1012,B-2,83.25,0.156,40,61.75
1013,D3,83.375,0.125,37,61.75
1014,A2,83.5,0.125,47,61.75
1015,A4,83.5,0.5,42,61.75
1016,D4,83.5,0.5,42,61.75
1017,D3,83.625,0.125,39,61.75
1018,D2,83.75,0.156,40,61.75
1019,D3,83.875,0.125,39,61.75
1020,G#2,84.0,0.125,49,61.75
1021,G4,84.0,0.5,50,61.75
1022,D4,84.0,0.5,50,61.75
1023,B2,84.125,0.125,38,61.75
1024,D3,84.25,0.156,40,61.75
1025,C#3,84.375,0.156,38,61.75
1026,B2,84.5,0.125,47,61.75
1027,A3,84.5,0.5,46,61.75
1028,F#4,84.5,0.5,46,61.75
1029,G#3,84.625,0.125,37,61.75
1030,D3,84.75,0.125,40,61.75
1031,B2,84.875,0.125,35,61.75
1032,C#3,85.0,0.125,48,61.75
1033,E4,85.0,0.75,50,61.75
1034,B3,85.0,0.75,50,61.75
1035,E3,85.125,0.125,40,61.75
1036,G3,85.25,0.125,41,61.75
1037,A3,85.375,0.125,45,61.75
1038,F#3,85.5,0.125,54,61.75
1039,A3,85.625,0.125,45,61.75
1040,E4,85.75,0.25,50,61.75
1041,E3,85.75,0.125,52,61.75
1042,A3,85.875,0.125,55,61.75
1043,E-4,86.0,0.25,58,61.75
1044,C#3,86.0,0.125,59,61.75
1045,A3,86.125,0.125,45,61.75
1046,D3,86.25,0.125,52,61.75
1047,C#4,86.25,0.25,57,61.75
1048,E4,86.25,0.25,57,61.75
1049,B3,86.375,0.125,46,61.75
1050,E3,86.5,0.125,53,61.75
1051,D4,86.5,0.25,59,61.75
1052,F#4,86.5,0.25,59,61.75
1053,C#4,86.625,0.125,40,61.75
1054,F#3,86.75,0.125,46,61.75
1055,E4,86.75,0.25,64,61.75
1056,G4,86.75,0.25,64,61.75
1057,D4,86.875,0.125,40,61.75
1058,G3,87.0,0.125,47,61.75
1059,B4,87.0,0.25,66,61.75
1060,G4,87.0,0.25,66,61.75
1061,B3,87.125,0.125,40,61.75
1062,E4,87.25,0.125,40,61.75
1063,F#4,87.25,0.25,66,61.75
1064,A4,87.25,0.25,66,61.75
1065,B3,87.375,0.156,46,61.75
1066,G3,87.5,0.125,51,61.75
1067,G4,87.5,0.25,61,61.75
1068,E4,87.5,0.25,61,61.75
1069,A3,87.625,0.125,40,61.75
1070,F#4,87.75,0.25,64,61.75
1071,G3,87.75,0.125,43,61.75
1072,A3,87.875,0.125,40,61.75
1073,F#3,88.0,0.125,53,61.75
1074,A4,88.0,0.25,59,61.75
1075,F#4,88.0,0.25,59,61.75
1076,A3,88.125,0.125,41,61.75
1077,G4,88.25,0.25,52,61.75
1078,C#4,88.25,0.156,44,61.75
1079,D4,88.375,0.156,41,61.75
1080,E4,88.5,0.25,57,61.75
1081,F#4,88.5,0.125,51,61.75
1082,D4,88.625,0.125,40,61.75
1083,C#4,88.75,0.25,60,61.75
1084,B3,88.75,0.125,44,61.75
1085,A3,88.875,0.125,38,61.75
1086,A4,89.0,0.75,63,61.75
1087,G3,89.0,0.125,52,61.75
1088,A3,89.125,0.125,44,61.75
1089,G3,89.25,0.125,45,61.75
1090,A3,89.375,0.125,49,61.75
1091,F#3,89.5,0.125,59,61.75
1092,A3,89.625,0.125,49,61.75
1093,F#5,89.75,0.25,55,61.75
1094,E3,89.75,0.125,57,61.75
1095,A3,89.875,0.125,60,61.75
1096,E-5,90.0,0.25,63,61.75
1097,C#3,90.0,0.125,64,61.75
1098,A3,90.125,0.125,49,61.75
1099,D3,90.25,0.125,57,61.75
1100,C#5,90.25,0.25,62,61.75
1101,E5,90.25,0.25,62,61.75
1102,B3,90.375,0.125,50,61.75
1103,E3,90.5,0.125,58,61.75
1104,D5,90.5,0.25,64,61.75
1105,F#5,90.5,0.25,64,61.75
1106,C#4,90.625,0.125,44,61.75
1107,F#3,90.75,0.125,50,61.75
1108,E5,90.75,0.25,69,61.75
1109,G5,90.75,0.25,69,61.75
1110,D4,90.875,0.125,44,61.75
1111,G3,91.0,0.125,51,61.75
1112,B5,91.0,0.25,72,61.75
1113,G5,91.0,0.25,72,61.75
1114,B3,91.125,0.125,44,61.75
1115,A3,91.25,0.125,44,61.75
1116,F#5,91.25,0.25,72,61.75
1117,A5,91.25,0.25,72,61.75
1118,C#4,91.375,0.156,50,61.75
1119,B3,91.5,0.125,56,61.75
1120,G5,91.5,0.25,66,61.75
1121,E5,91.5,0.25,66,61.75
1122,D4,91.625,0.125,44,61.75
1123,C#4,91.75,0.125,47,61.75
1124,D5,91.75,0.25,68,61.75
1125,F#5,91.75,0.25,68,61.75
1126,E4,91.875,0.125,44,61.75
1127,F#4,92.0,0.125,56,61.75
1128,E5,92.0,0.25,64,61.75
1129,C#5,92.0,0.25,64,61.75
1130,D4,92.125,0.125,42,61.75
1131,C#4,92.25,0.125,47,61.75
1132,B4,92.25,0.25,52,61.75
1133,D5,92.25,0.25,52,61.75
1134,D4,92.375,0.125,42,61.75
1135,B3,92.5,0.125,62,61.75
1136,A4,92.5,0.25,57,61.75
1137,C#5,92.5,0.25,57,61.75
1138,D4,92.625,0.125,42,61.75
1139,C#4,92.75,0.125,49,61.75
1140,G4,92.75,0.25,61,61.75
1141,B4,92.75,0.25,61,61.75
1142,D4,92.875,0.125,42,61.75
1143,A4,93.0,483/1000,59,61.75
1144,C#4,93.0,0.125,56,61.75
1145,A3,93.0,0.125,56,61.75
1146,D4,93.125,0.125,45,61.75
1147,C#4,93.25,0.125,49,61.75
1148,D4,93.375,0.125,49,61.75
1149,D5,93.5,0.5,69,61.75
1150,F#4,93.5,0.5,69,61.75
1151,G3,93.5,0.125,56,61.75
1152,B3,93.5,0.125,56,61.75
1153,D4,93.625,0.125,46,61.75
1154,C#4,93.75,0.125,49,61.75
1155,D4,93.875,0.125,43,61.75
1156,F#4,94.0,0.5,63,61.75
1157,F#3,94.0,0.125,56,61.75
1158,A3,94.0,0.125,56,61.75
1159,D4,94.125,0.125,43,61.75
1160,C#4,94.25,0.125,47,61.75
1161,D4,94.375,0.125,42,61.75
1162,G4,94.5,0.5,70,61.75
1163,G3,94.5,0.125,56,61.75
1164,D4,94.625,0.125,41,61.75
1165,C#4,94.75,0.125,48,61.75
1166,D4,94.875,0.125,43,61.75
1167,A4,95.0,0.5,74,61.75
1168,A3,95.0,0.125,56,61.75
1169,D4,95.125,0.125,42,61.75
1170,C#4,95.25,0.125,47,61.75
1171,D4,95.375,0.125,42,61.75
1172,B4,95.5,0.5,70,61.75
1173,A2,95.5,0.25,56,61.75
1174,G3,95.5,0.125,56,61.75
1175,D4,95.625,0.125,41,61.75
1176,C#4,95.75,0.125,47,61.75
1177,D4,95.875,0.125,47,61.75
1178,E4,96.0,0.75,66,61.75
1179,D2,96.0,0.25,39,61.75
1180,F#3,96.0,0.125,39,61.75
1181,G3,96.125,0.125,45,61.75
1182,A3,96.25,0.125,53,61.75
1183,B3,96.375,0.125,46,61.75
1184,C4,96.5,0.125,38,61.75
1185,B3,96.625,0.125,36,61.75
1186,F#4,96.75,0.25,54,61.75
1187,C4,96.75,0.125,40,61.75
1188,A3,96.875,0.125,37,61.75
1189,D4,97.0,0.5,59,61.75
1190,B3,97.0,0.125,43,61.75
1191,D4,97.125,0.125,33,61.75
1192,C#4,97.25,0.156,38,61.75
1193,D4,97.375,0.125,34,61.75
1194,G3,97.5,0.125,46,61.75
1195,D4,97.625,0.125,35,61.75
1196,C#4,97.75,0.156,38,61.75
1197,D4,97.875,0.125,34,61.75
1198,D5,98.0,0.5,64,61.75
1199,F#3,98.0,0.125,47,61.75
1200,D3,98.0,0.25,47,61.75
1201,A3,98.125,0.125,34,61.75
1202,D4,98.25,0.125,38,61.75
1203,C#4,98.375,0.125,34,61.75
1204,B4,98.5,0.5,54,61.75
1205,D2,98.5,0.25,58,61.75
1206,C4,98.5,0.125,43,61.75
1207,B3,98.625,0.125,34,61.75
1208,C4,98.75,0.125,38,61.75
1209,A3,98.875,0.125,34,61.75
1210,A4,99.0,0.5,59,61.75
1211,D3,99.0,0.25,39,61.75
1212,B3,99.0,0.125,43,61.75
1213,D4,99.125,0.125,33,61.75
1214,C#4,99.25,0.156,38,61.75
1215,D4,99.375,0.125,34,61.75
1216,G3,99.5,0.125,46,61.75
1217,D4,99.625,0.125,35,61.75
1218,C#4,99.75,0.156,38,61.75
1219,D4,99.875,0.125,34,61.75
1220,D5,100.0,0.5,64,61.75
1221,F#3,100.0,0.125,47,61.75
1222,D3,100.0,0.25,47,61.75
1223,A3,100.125,0.125,34,61.75
1224,D4,100.25,0.125,38,61.75
1225,C#4,100.375,0.125,34,61.75
1226,B4,100.5,0.5,54,61.75
1227,D2,100.5,0.25,57,61.75
1228,C4,100.5,0.125,43,61.75
1229,B3,100.625,0.125,34,61.75
1230,C4,100.75,0.125,38,61.75
1231,A3,100.875,0.125,34,61.75
1232,A4,101.0,0.5,59,61.75
1233,D3,101.0,0.25,39,61.75
1234,B3,101.0,0.125,43,61.75
1235,D4,101.125,0.125,33,61.75
1236,C#4,101.25,0.156,38,61.75
1237,D4,101.375,0.125,34,61.75
1238,G3,101.5,0.125,46,61.75
1239,D4,101.625,0.125,35,61.75
1240,C#4,101.75,0.156,38,61.75
1241,D4,101.875,0.125,34,61.75
1242,D5,102.0,0.5,64,61.75
1243,F#3,102.0,0.125,47,61.75
1244,A3,102.125,0.125,34,61.75
1245,F#3,102.25,0.125,38,61.75
1246,G3,102.375,0.125,34,61.75
1247,B4,102.5,0.5,54,61.75
1248,D3,102.5,0.25,47,61.75
1249,A3,102.5,0.125,43,61.75
1250,C4,102.625,0.125,34,61.75
1251,D4,102.75,0.125,38,61.75
1252,C4,102.875,0.125,34,61.75
1253,A4,103.0,0.5,59,61.75
1254,G2,103.0,0.25,47,61.75
1255,B-3,103.0,0.125,43,61.75
1256,D4,103.125,0.125,43,61.75
1257,B-3,103.25,0.125,43,61.75
1258,D4,103.375,0.125,43,61.75
1259,F#4,103.5,0.25,59,61.75
1260,A2,103.5,0.25,47,61.75
1261,C#4,103.5,0.156,43,61.75
1262,B-3,103.625,0.156,43,61.75
1263,A3,103.75,0.156,43,61.75
1264,G3,103.875,0.125,43,61.75
1265,G4,104.0,0.25,59,61.75
1266,D2,104.0,0.25,39,61.75
1267,F#3,104.0,0.156,39,61.75
1268,G3,104.125,0.156,45,61.75
1269,A3,104.25,0.156,53,61.75
1270,B3,104.375,0.125,46,61.75
1271,E4,104.5,0.25,59,61.75
1272,C4,104.5,0.125,38,61.75
1273,B3,104.625,0.125,36,61.75
1274,C4,104.75,0.125,40,61.75
1275,A3,104.875,0.125,37,61.75
1276,D4,105.0,0.5,59,61.75
1277,D3,105.0,0.25,39,61.75
1278,B3,105.0,0.125,43,61.75
1279,D4,105.125,0.125,33,61.75
1280,C#4,105.25,0.156,38,61.75
1281,D4,105.375,0.125,34,61.75
1282,G3,105.5,0.125,46,61.75
1283,D4,105.625,0.125,35,61.75
1284,C#4,105.75,0.156,38,61.75
1285,D4,105.875,0.125,34,61.75
1286,F#3,106.0,0.125,47,61.75
1287,D6,106.0,0.5,59,61.75
1288,D5,106.0,0.5,59,61.75
1289,A3,106.125,0.125,34,61.75
1290,F#3,106.25,0.125,38,61.75
1291,G3,106.375,0.125,34,61.75
1292,D3,106.5,0.25,47,61.75
1293,A3,106.5,0.125,43,61.75
1294,B5,106.5,0.5,50,61.75
1295,B4,106.5,0.5,50,61.75
1296,C4,106.625,0.125,34,61.75
1297,D4,106.75,0.125,38,61.75
1298,C4,106.875,0.125,34,61.75
1299,G3,107.0,0.25,47,61.75
1300,B-3,107.0,0.125,43,61.75
1301,A5,107.0,0.5,54,61.75
1302,A4,107.0,0.5,54,61.75
1303,D4,107.125,0.125,43,61.75
1304,B-3,107.25,0.125,43,61.75
1305,D4,107.375,0.125,43,61.75
1306,A3,107.5,0.25,47,61.75
1307,C#4,107.5,0.156,43,61.75
1308,F#5,107.5,0.25,54,61.75
1309,F#4,107.5,0.25,54,61.75
1310,B-3,107.625,0.156,43,61.75
1311,A3,107.75,0.156,43,61.75
1312,G3,107.875,0.125,43,61.75
1313,D3,108.0,1.5,30,61.75
1314,F#3,108.0,0.156,39,61.75
1315,G5,108.0,0.25,54,61.75
1316,G4,108.0,0.25,54,61.75
1317,A3,108.125,0.156,45,61.75
1318,F#3,108.25,0.156,53,61.75
1319,G3,108.375,0.125,46,61.75
1320,A3,108.5,0.125,38,61.75
1321,E5,108.5,0.25,54,61.75
1322,E4,108.5,0.25,54,61.75
1323,D4,108.625,0.125,36,61.75
1324,F#4,108.75,0.125,40,61.75
1325,E4,108.875,0.125,37,61.75
1326,D5,109.0,0.375,54,61.75
1327,D4,109.0,0.375,54,61.75
1328,D4,110.0,0.125,42,61.75
1329,F#4,110.125,0.125,38,61.75
1330,A4,110.25,0.125,37,61.75
1331,G4,110.375,0.125,30,61.75
1332,F#4,110.5,0.125,45,61.75
1333,A4,110.625,0.125,33,61.75
1334,F#4,110.75,0.125,38,61.75
1335,G4,110.875,0.125,34,61.75
1336,A4,111.0,0.125,43,61.75
1337,D5,111.125,0.125,34,61.75
1338,F#5,111.25,0.125,38,61.75
1339,E5,111.375,0.125,34,61.75
1340,D5,111.5,0.125,46,61.75
1341,F#5,111.625,0.125,34,61.75
1342,A5,111.75,0.125,38,61.75
1343,G5,111.875,0.125,33,61.75
1344,F#5,112.0,0.125,45,61.75
1345,D5,112.0,0.25,38,61.75
1346,F#5,112.0,0.25,38,61.75
1347,A5,112.125,0.125,32,61.75
1348,F#5,112.25,0.125,38,61.75
1349,G5,112.375,0.125,34,61.75
1350,A5,112.5,0.125,45,61.75
1351,D6,112.625,0.125,33,61.75
1352,F#6,112.75,0.125,38,61.75
1353,E6,112.875,0.125,34,61.75
1354,D6,113.0,0.25,43,61.75
1355,A5,113.0,0.25,43,61.75
