,note_name,start_time,duration,velocity,tempo
0,F4,2.0,1.0,52,210.0
1,G#4,2.0,1.0,62,210.0
2,C#5,2.0,1.0,62,210.0
3,E-4,3.002,2.0,55,210.0
4,C5,3.002,2.0,65,210.0
5,G#4,3.002,2.0,65,210.0
6,C#4,5.0,1.0,49,210.0
7,G4,5.0,1.0,58,210.0
8,B-4,5.0,1.0,58,210.0
9,C4,6.0,0.188,46,210.0
10,G#4,6.0,0.188,54,210.0
11,E-5,6.0,0.188,54,210.0
12,F4,8.0,0.188,53,210.0
13,C#5,8.0,0.188,53,210.0
14,C#3,8.0,0.188,44,210.0
15,B-3,8.0,0.188,44,210.0
16,G#4,9.0,0.188,53,210.0
17,C5,9.0,0.188,53,210.0
18,E-4,9.0,0.188,45,210.0
19,E-3,9.0,0.188,45,210.0
20,G4,11.0,0.188,52,210.0
21,B-4,11.0,0.188,52,210.0
22,E-3,11.0,0.188,42,210.0
23,C#4,11.0,0.188,42,210.0
24,G#4,12.0,0.188,51,210.0
25,G#3,12.0,0.188,41,210.0
26,C4,12.0,0.188,41,210.0
27,B-4,14.0,1.0,55,210.0
28,C#5,14.0,1.0,65,210.0
29,F#5,14.0,1.0,65,210.0
30,G#4,15.0,2.0,55,210.0
31,C#5,15.0,2.0,65,210.0
32,F5,15.0,2.0,65,210.0
33,F#4,17.0,1.0,52,210.0
34,C5,17.0,1.0,61,210.0
35,E-5,17.0,1.0,61,210.0
36,F4,18.0,0.188,47,210.0
37,C#5,18.0,0.188,56,210.0
38,G#5,18.0,0.188,56,210.0
39,B-4,20.0,0.188,55,210.0
40,F#5,20.0,0.188,55,210.0
41,F#3,20.0,0.188,47,210.0
42,E-4,20.0,0.188,47,210.0
43,C#5,21.0,0.188,55,210.0
44,F5,21.0,0.188,55,210.0
45,G#3,21.0,0.188,47,210.0
46,G#4,21.0,0.188,47,210.0
47,C5,23.0,0.188,53,210.0
48,E-5,23.0,0.188,53,210.0
49,G#3,23.0,0.188,45,210.0
50,F#4,23.0,0.188,45,210.0
51,C#5,24.0,0.188,50,210.0
52,C#4,24.0,0.188,44,210.0
53,F4,24.0,0.188,44,210.0
54,C#4,26.0,1.0,65,210.0
55,C#5,26.0,1.0,65,210.0
56,F3,26.0,1.0,47,210.0
57,G#3,26.0,1.0,47,210.0
58,C#4,27.0,1.0,65,210.0
59,C#5,27.0,1.0,65,210.0
60,E-3,27.0,2.0,55,210.0
61,G#3,27.0,2.0,55,210.0
62,C4,28.0,1.0,65,210.0
63,C5,28.0,1.0,65,210.0
64,B-3,29.0,1.0,65,210.0
65,B-4,29.0,1.0,65,210.0
66,G3,29.0,1.0,49,210.0
67,C#3,29.0,1.0,49,210.0
68,E-4,30.0,1.0,65,210.0
69,B-4,30.0,1.0,65,210.0
70,C3,30.0,1.0,55,210.0
71,C4,30.0,1.0,55,210.0
72,E-5,31.0,0.25,65,210.0
73,C#5,32.0,1.0,62,210.0
74,F4,32.0,1.0,62,210.0
75,C#3,32.0,0.5,48,210.0
76,B-3,32.0,0.5,48,210.0
77,G#4,33.0,1.0,62,210.0
78,C#5,33.0,1.0,62,210.0
79,E-3,33.0,0.5,52,210.0
80,E-4,33.0,0.5,52,210.0
81,C5,34.0,1.0,62,210.0
82,G4,35.0,1.0,58,210.0
83,B-4,35.0,1.0,58,210.0
84,E-3,35.0,0.5,45,210.0
85,C#4,35.0,0.5,45,210.0
86,B-4,36.0,1.0,58,210.0
87,G#3,36.0,0.5,48,210.0
88,C4,36.0,0.5,48,210.0
89,G#4,37.0,0.5,56,210.0
90,F#4,38.0,1.0,66,210.0
91,F#5,38.0,1.0,66,210.0
92,B-3,38.0,1.0,49,210.0
93,C#4,38.0,1.0,49,210.0
94,F#4,39.0,1.0,66,210.0
95,F#5,39.0,1.0,66,210.0
96,G#3,39.0,2.0,56,210.0
97,C#4,39.0,2.0,56,210.0
98,F4,40.0,1.0,65,210.0
99,F5,40.0,1.0,65,210.0
100,E-4,41.0,1.0,65,210.0
101,E-5,41.0,1.0,65,210.0
102,F#3,41.0,1.0,55,210.0
103,C4,41.0,1.0,55,210.0
104,G#4,42.0,1.0,73,210.0
105,E-5,42.0,1.0,65,210.0
106,F3,42.0,1.0,60,210.0
107,F4,42.0,1.0,60,210.0
108,G#5,43.0,0.25,73,210.0
109,B-4,44.0,1.0,62,210.0
110,F#5,44.0,1.0,62,210.0
111,F#3,44.0,0.5,46,210.0
112,E-4,44.0,0.5,46,210.0
113,C#5,45.0,1.0,62,210.0
114,F#5,45.0,1.0,62,210.0
115,G#3,45.0,0.5,52,210.0
116,G#4,45.0,0.5,52,210.0
117,F5,46.0,1.0,62,210.0
118,E-5,47.0,1.0,62,210.0
119,C5,47.0,1.0,62,210.0
120,G#3,47.0,0.5,45,210.0
121,F#4,47.0,0.5,45,210.0
122,E-5,48.0,1.0,62,210.0
123,C#4,48.0,0.5,47,210.0
124,F4,48.0,0.5,47,210.0
125,C#5,49.0,0.5,59,210.0
126,C#4,50.0,1.0,46,210.0
127,C#5,50.0,1.0,53,210.0
128,F4,50.0,1.0,53,210.0
129,B-3,51.0,2.0,50,210.0
130,C#5,51.0,2.0,58,210.0
131,F4,51.0,2.0,58,210.0
132,G#3,53.0,1.0,50,210.0
133,F4,53.0,1.0,57,210.0
134,C#5,53.0,1.0,57,210.0
135,E-4,54.0,2.0,57,210.0
136,C#5,54.0,1.0,57,210.0
137,G3,54.0,1.0,50,210.0
138,C5,55.0,0.5,58,210.0
139,G#3,55.0,0.5,47,210.0
140,G#3,56.0,1.0,47,210.0
141,E-4,56.0,1.0,58,210.0
142,B4,56.0,1.0,58,210.0
143,G#3,57.0,2.0,47,210.0
144,E-4,57.0,2.0,58,210.0
145,B4,57.0,2.0,58,210.0
146,F#3,59.0,1.0,47,210.0
147,E-4,59.0,1.0,56,210.0
148,B4,59.0,1.0,56,210.0
149,E-4,60.0,2.0,56,210.0
150,B4,60.0,1.0,56,210.0
151,F3,60.0,1.0,48,210.0
152,B-4,61.0,0.5,56,210.0
153,F#3,61.0,0.5,48,210.0
154,F#3,62.0,1.0,55,210.0
155,C#4,62.0,1.0,65,210.0
156,B-4,62.0,1.0,65,210.0
157,F#4,63.0,2.0,75,210.0
158,C5,63.0,2.0,75,210.0
159,E-3,63.0,2.0,58,210.0
160,G#3,63.0,2.0,58,210.0
161,F4,65.0,1.0,78,210.0
162,C#5,65.0,1.0,78,210.0
163,C#3,65.0,1.0,65,210.0
164,G#3,65.0,1.0,65,210.0
165,F#4,66.0,2.0,90,210.0
166,E-5,66.0,2.0,90,210.0
167,C3,66.0,3.0,73,210.0
168,G#3,66.0,3.0,73,210.0
169,E-4,68.0,1.0,77,210.0
170,F#4,68.0,1.0,77,210.0
171,C#3,69.0,2.0,56,210.0
172,G#3,69.0,2.0,56,210.0
173,E-4,70.0,1.0,77,210.0
174,F#4,70.0,1.0,77,210.0
175,F#3,71.0,0.5,55,210.0
176,F#2,71.0,1.0,55,210.0
177,C#4,71.0,1.0,65,210.0
178,F4,71.0,1.0,65,210.0
179,E-3,71.5,0.5,55,210.0
180,B-4,72.0,0.5,65,210.0
181,B-3,72.0,1.0,65,210.0
182,F#2,72.0,1.5,55,210.0
183,G#3,72.0,1.5,55,210.0
184,F#4,72.5,0.5,65,210.0
185,C#4,73.0,1.0,71,210.0
186,F4,73.0,1.0,71,210.0
187,C4,74.0,0.5,65,210.0
188,E-4,74.0,0.5,65,210.0
189,F3,74.0,1.0,51,210.0
190,G#3,74.0,1.0,51,210.0
191,C#4,75.0,1.0,65,210.0
192,C#5,75.0,1.0,65,210.0
193,E-3,75.0,2.0,56,210.0
194,G#3,75.0,2.0,56,210.0
195,C4,76.0,2.0,66,210.0
196,C5,76.0,2.0,66,210.0
197,C#3,77.0,1.0,47,210.0
198,G3,77.0,1.0,47,210.0
199,B-4,78.0,1.0,61,210.0
200,B-3,78.0,1.0,61,210.0
201,C3,78.0,0.188,49,210.0
202,C4,78.0,0.188,49,210.0
203,E-4,79.0,0.188,59,210.0
204,E-5,79.0,0.188,59,210.0
205,C#3,80.0,0.5,48,210.0
206,B-3,80.0,0.5,48,210.0
207,F4,81.0,1.0,64,210.0
208,C#5,81.0,1.0,64,210.0
209,E-3,81.0,0.5,54,210.0
210,E-4,81.0,0.5,54,210.0
211,G#4,82.0,1.0,64,210.0
212,C#5,82.0,1.0,64,210.0
213,C5,83.0,1.0,64,210.0
214,E-3,83.0,0.5,47,210.0
215,C#4,83.0,0.5,47,210.0
216,G4,84.0,1.0,60,210.0
217,B-4,84.0,1.0,60,210.0
218,G#3,84.0,0.5,51,210.0
219,C4,84.0,0.5,51,210.0
220,B-4,85.0,1.0,60,210.0
221,G#4,86.0,0.5,60,210.0
222,B-3,86.0,1.0,49,210.0
223,C#4,86.0,1.0,49,210.0
224,F#4,87.0,1.0,64,210.0
225,F#5,87.0,1.0,64,210.0
226,G#3,87.0,2.0,56,210.0
227,C#4,87.0,2.0,56,210.0
228,F4,88.0,2.0,65,210.0
229,F5,88.0,2.0,65,210.0
230,F#3,89.0,1.0,49,210.0
231,C4,89.0,1.0,49,210.0
232,E-4,90.0,1.0,64,210.0
233,E-5,90.0,1.0,64,210.0
234,F3,90.0,0.188,53,210.0
235,C#4,90.0,0.188,53,210.0
236,G#4,91.0,0.188,62,210.0
237,G#5,91.0,0.188,62,210.0
238,B-3,92.0,1.0,47,210.0
239,C#4,92.0,1.0,47,210.0
240,F#4,93.0,1.0,64,210.0
241,F#5,93.0,1.0,64,210.0
242,G#3,93.0,2.0,55,210.0
243,C#4,93.0,2.0,55,210.0
244,F#4,94.0,1.0,64,210.0
245,F#5,94.0,1.0,64,210.0
246,F4,95.0,1.0,64,210.0
247,F5,95.0,1.0,64,210.0
248,F#3,95.0,1.0,47,210.0
249,C4,95.0,1.0,47,210.0
250,E-4,96.0,0.5,64,210.0
251,E-5,96.0,0.5,64,210.0
252,F3,96.0,0.188,56,210.0
253,C#4,96.0,0.188,56,210.0
254,G#4,97.0,0.188,65,210.0
255,G#5,97.0,0.188,65,210.0
256,B-3,98.0,1.0,54,210.0
257,C#4,98.0,1.0,54,210.0
258,F#4,99.0,1.0,74,210.0
259,F#5,99.0,1.0,74,210.0
260,G#3,99.0,2.0,61,210.0
261,C#4,99.0,2.0,61,210.0
262,F#4,100.0,1.0,74,210.0
263,F#5,100.0,1.0,74,210.0
264,F4,101.0,1.0,80,210.0
265,F5,101.0,1.0,80,210.0
266,G3,101.0,1.0,71,210.0
267,E4,101.0,1.0,71,210.0
268,C#4,101.0,1.0,71,210.0
269,B-4,102.0,1.0,97,210.0
270,B-5,102.0,1.0,97,210.0
271,G#3,102.0,1.0,74,210.0
272,C#4,102.0,1.0,74,210.0
273,F4,102.0,1.0,74,210.0
274,B-4,104.0,1.0,97,210.0
275,B-5,104.0,1.0,97,210.0
276,G#4,105.0,1.0,77,210.0
277,G#5,105.0,1.0,77,210.0
278,G#1,105.0,3.0,54,210.0
279,G#2,105.0,3.0,54,210.0
280,F#3,107.0,3.0,64,210.0
281,C4,107.0,2.0,64,210.0
282,C#2,108.0,1.0,51,210.0
283,G#2,108.0,1.0,51,210.0
284,E-4,109.0,0.5,61,210.0
285,C#4,109.5,0.5,61,210.0
286,C#4,110.0,1.0,54,210.0
287,F3,110.0,1.0,56,210.0
288,C#4,110.0,1.0,56,210.0
289,B-3,111.0,2.0,54,210.0
290,C#5,112.0,1.0,64,210.0
291,F4,112.0,1.0,64,210.0
292,G#3,113.0,1.0,54,210.0
293,C#5,113.0,2.0,64,210.0
294,F4,113.0,2.0,64,210.0
295,G3,114.0,1.0,54,210.0
296,G#3,115.0,0.5,54,210.0
297,F4,115.0,1.0,64,210.0
298,C#5,115.0,1.0,64,210.0
299,E-4,116.0,2.0,64,210.0
300,C#5,116.0,1.0,64,210.0
301,G#3,116.0,1.0,51,210.0
302,C5,117.0,0.5,64,210.0
303,G#3,117.0,2.0,51,210.0
304,E-4,118.0,1.0,61,210.0
305,B4,118.0,1.0,61,210.0
306,F#3,119.0,1.0,51,210.0
307,E-4,119.0,2.0,61,210.0
308,B4,119.0,2.0,61,210.0
309,F3,120.0,1.0,51,210.0
310,F#3,121.0,0.5,51,210.0
311,E-4,121.0,1.0,58,210.0
312,B4,121.0,1.0,58,210.0
313,E-4,122.0,2.0,58,210.0
314,B4,122.0,1.0,58,210.0
315,F#3,122.0,1.0,54,210.0
316,B-4,123.0,0.5,58,210.0
317,E-3,123.0,2.0,58,210.0
318,G#3,123.0,2.0,58,210.0
319,C#4,124.0,1.0,64,210.0
320,B-4,124.0,1.0,64,210.0
321,F#4,125.0,2.0,74,210.0
322,C5,125.0,2.0,74,210.0
323,C#3,125.0,1.0,64,210.0
324,G#3,125.0,1.0,64,210.0
325,C3,126.0,3.0,72,210.0
326,G#3,126.0,3.0,72,210.0
327,F4,127.0,1.0,77,210.0
328,C#5,127.0,1.0,77,210.0
329,F#4,128.0,2.0,89,210.0
330,E-5,128.0,2.0,89,210.0
331,C#3,129.0,2.0,56,210.0
332,G#3,129.0,2.0,56,210.0
333,E-4,130.0,1.0,76,210.0
334,F#4,130.0,1.0,76,210.0
335,F#3,131.0,0.5,54,210.0
336,F#2,131.0,1.0,54,210.0
337,E-3,131.5,0.5,54,210.0
338,E-4,132.0,1.0,76,210.0
339,F#4,132.0,1.0,76,210.0
340,F#2,132.0,1.5,54,210.0
341,G#3,132.0,1.5,54,210.0
342,C#4,133.0,1.0,64,210.0
343,F4,133.0,1.0,64,210.0
344,B-4,134.0,0.5,64,210.0
345,B-3,134.0,1.0,64,210.0
346,F3,134.0,1.0,50,210.0
347,G#3,134.0,1.0,50,210.0
348,F#4,134.5,0.5,64,210.0
349,C#4,135.0,1.0,71,210.0
350,F4,135.0,1.0,71,210.0
351,E-3,135.0,2.0,56,210.0
352,G#3,135.0,2.0,56,210.0
353,C4,136.0,0.5,64,210.0
354,E-4,136.0,0.5,64,210.0
355,C#4,137.0,1.0,64,210.0
356,C#5,137.0,1.0,64,210.0
357,C#3,137.0,1.0,48,210.0
358,G3,137.0,1.0,48,210.0
359,C4,138.0,2.0,65,210.0
360,C5,138.0,2.0,65,210.0
361,C3,138.0,0.188,50,210.0
362,C4,138.0,0.188,50,210.0
363,B-4,140.0,1.0,62,210.0
364,B-3,140.0,1.0,62,210.0
365,C#3,140.0,0.5,46,210.0
366,B-3,140.0,0.5,46,210.0
367,E-4,141.0,0.188,60,210.0
368,E-5,141.0,0.188,60,210.0
369,E-3,141.0,0.5,51,210.0
370,E-4,141.0,0.5,51,210.0
371,F4,143.0,1.0,61,210.0
372,C#5,143.0,1.0,61,210.0
373,E-3,143.0,0.5,47,210.0
374,C#4,143.0,0.5,47,210.0
375,G#4,144.0,1.0,61,210.0
376,C#5,144.0,1.0,61,210.0
377,G#3,144.0,0.5,51,210.0
378,C4,144.0,0.5,51,210.0
379,C5,145.0,1.0,61,210.0
380,G4,146.0,1.0,61,210.0
381,B-4,146.0,1.0,61,210.0
382,B-3,146.0,1.0,54,210.0
383,C#4,146.0,1.0,54,210.0
384,B-4,147.0,1.0,61,210.0
385,G#3,147.0,2.0,56,210.0
386,C#4,147.0,2.0,56,210.0
387,G#4,148.0,0.5,59,210.0
388,F#4,149.0,1.0,64,210.0
389,F#5,149.0,1.0,64,210.0
390,F#3,149.0,1.0,47,210.0
391,C4,149.0,1.0,47,210.0
392,F4,150.0,2.0,65,210.0
393,F5,150.0,2.0,65,210.0
394,F3,150.0,0.188,49,210.0
395,C#4,150.0,0.188,49,210.0
396,E-4,152.0,1.0,63,210.0
397,E-5,152.0,1.0,63,210.0
398,B-3,152.0,1.0,49,210.0
399,C#4,152.0,1.0,49,210.0
400,G#4,153.0,0.188,59,210.0
401,G#5,153.0,0.188,59,210.0
402,G#3,153.0,2.0,55,210.0
403,C#4,153.0,2.0,55,210.0
404,F#4,155.0,1.0,64,210.0
405,F#5,155.0,1.0,64,210.0
406,F#3,155.0,1.0,54,210.0
407,C4,155.0,1.0,54,210.0
408,F#4,156.0,1.0,64,210.0
409,F#5,156.0,1.0,64,210.0
410,F3,156.0,0.188,58,210.0
411,C#4,156.0,0.188,58,210.0
412,F4,157.0,1.0,64,210.0
413,F5,157.0,1.0,64,210.0
414,E-4,158.0,0.5,64,210.0
415,E-5,158.0,0.5,64,210.0
416,B-3,158.0,1.0,54,210.0
417,C#4,158.0,1.0,54,210.0
418,G#4,159.0,0.188,69,210.0
419,G#5,159.0,0.188,69,210.0
420,G#3,159.0,2.0,61,210.0
421,C#4,159.0,2.0,61,210.0
422,F#4,161.0,1.0,74,210.0
423,F#5,161.0,1.0,74,210.0
424,G3,161.0,1.0,67,210.0
425,E4,161.0,1.0,67,210.0
426,C#4,161.0,1.0,67,210.0
427,F#4,162.0,1.0,74,210.0
428,F#5,162.0,1.0,74,210.0
429,G#3,162.0,1.0,74,210.0
430,C#4,162.0,1.0,74,210.0
431,F4,162.0,1.0,74,210.0
432,F4,163.0,1.0,84,210.0
433,F5,163.0,1.0,84,210.0
434,B-4,164.0,1.0,99,210.0
435,B-5,164.0,1.0,99,210.0
436,G#1,165.0,3.0,54,210.0
437,G#2,165.0,3.0,54,210.0
438,B-4,166.0,1.0,99,210.0
439,B-5,166.0,1.0,99,210.0
440,G#4,167.0,1.0,77,210.0
441,G#5,167.0,1.0,77,210.0
442,C#2,168.0,1.0,51,210.0
443,G#2,168.0,1.0,51,210.0
444,F#3,169.0,3.0,64,210.0
445,C4,169.0,2.0,64,210.0
446,E-4,171.0,0.5,61,210.0
447,C#2,171.0,3.0,65,210.0
448,G#2,171.0,3.0,77,210.0
449,C#4,171.5,0.5,61,210.0
450,F3,172.0,1.0,56,210.0
451,C#4,172.0,1.0,56,210.0
452,E-2,174.0,3.0,62,210.0
453,G#2,174.0,3.0,77,210.0
454,F3,174.0,1.0,92,210.0
455,F4,174.0,1.0,92,210.0
456,F3,175.0,2.0,92,210.0
457,F4,175.0,2.0,92,210.0
458,F#2,177.0,3.0,73,210.0
459,G#2,177.0,3.0,77,210.0
460,F#3,177.0,1.0,90,210.0
461,F#4,177.0,1.0,90,210.0
462,F2,180.0,3.0,73,210.0
463,G#2,180.0,3.0,77,210.0
464,F#3,180.0,2.0,90,210.0
465,F#4,180.0,2.0,90,210.0
466,E-4,182.0,1.0,94,210.0
467,E-5,182.0,1.0,94,210.0
468,C#2,183.0,3.0,67,210.0
469,G#2,183.0,3.0,79,210.0
470,E-4,184.0,1.0,94,210.0
471,E-5,184.0,1.0,94,210.0
472,C4,185.0,1.0,80,210.0
473,C5,185.0,1.0,80,210.0
474,E-2,186.0,3.0,74,210.0
475,G#2,186.0,3.0,79,210.0
476,G#3,186.0,0.25,81,210.0
477,G#4,186.0,0.25,81,210.0
478,C#4,187.0,1.0,82,210.0
479,C#5,187.0,1.0,82,210.0
480,F4,188.0,0.5,76,210.0
481,F5,188.0,0.5,76,210.0
482,G#1,189.0,3.0,73,210.0
483,G#2,189.0,2.0,79,210.0
484,F3,189.0,1.0,92,210.0
485,F4,189.0,1.0,92,210.0
486,F3,190.0,2.0,92,210.0
487,F4,190.0,2.0,92,210.0
488,G#2,191.0,1.0,72,210.0
489,C#2,192.0,2.0,73,210.0
490,G#2,192.0,2.0,72,210.0
491,F#3,192.0,1.0,92,210.0
492,F#4,192.0,1.0,92,210.0
493,C#2,195.0,3.0,67,210.0
494,G#2,195.0,3.0,79,210.0
495,F#3,195.0,2.0,92,210.0
496,F#4,195.0,2.0,92,210.0
497,F#4,197.0,1.0,80,210.0
498,F#5,197.0,1.0,80,210.0
499,E-2,198.0,3.0,73,210.0
500,G#2,198.0,3.0,79,210.0
501,F#4,199.0,1.0,80,210.0
502,F#5,199.0,1.0,80,210.0
503,B-4,200.0,0.5,76,210.0
504,B-5,200.0,0.5,76,210.0
505,F#2,201.0,3.0,73,210.0
506,G#2,201.0,3.0,79,210.0
507,C4,201.0,0.25,73,210.0
508,C5,201.0,0.25,73,210.0
509,E-4,202.0,1.0,78,210.0
510,E-5,202.0,1.0,78,210.0
511,C#4,203.0,1.0,72,210.0
512,C#5,203.0,1.0,72,210.0
513,F2,204.0,3.0,73,210.0
514,G#2,204.0,3.0,79,210.0
515,F3,204.0,1.0,92,210.0
516,F4,204.0,1.0,92,210.0
517,C#2,207.0,3.0,67,210.0
518,G#2,207.0,3.0,79,210.0
519,F3,207.0,2.0,92,210.0
520,F4,207.0,2.0,92,210.0
521,F#3,209.0,1.0,92,210.0
522,F#4,209.0,1.0,92,210.0
523,E-2,210.0,3.0,74,210.0
524,G#2,210.0,3.0,79,210.0
525,F#3,212.0,2.0,92,210.0
526,F#4,212.0,2.0,92,210.0
527,G#1,213.0,3.0,73,210.0
528,G#2,213.0,2.0,79,210.0
529,E-4,214.0,1.0,92,210.0
530,E-5,214.0,1.0,92,210.0
531,G#2,215.0,1.0,72,210.0
532,C#2,216.0,2.0,66,210.0
533,G#2,216.0,2.0,72,210.0
534,E-4,216.0,1.0,92,210.0
535,E-5,216.0,1.0,92,210.0
536,C4,217.0,1.0,80,210.0
537,C5,217.0,1.0,80,210.0
538,G#3,218.0,0.25,81,210.0
539,G#4,218.0,0.25,81,210.0
540,C#4,219.0,1.0,82,210.0
541,C#5,219.0,1.0,82,210.0
542,D3,219.0,3.0,38,210.0
543,G#3,219.0,3.0,38,210.0
544,F4,220.0,0.5,76,210.0
545,F5,220.0,0.5,76,210.0
546,F3,221.0,1.0,92,210.0
547,F4,221.0,1.0,92,210.0
548,F3,222.0,2.0,92,210.0
549,F4,222.0,2.0,92,210.0
550,C#3,222.0,3.0,36,210.0
551,G3,222.0,3.0,36,210.0
552,F#3,224.0,1.0,94,210.0
553,F#4,224.0,1.0,94,210.0
554,C3,225.0,3.0,33,210.0
555,F#3,225.0,3.0,33,210.0
556,F#3,227.0,2.0,94,210.0
557,F#4,227.0,2.0,94,210.0
558,B2,228.0,3.0,32,210.0
559,F3,228.0,3.0,32,210.0
560,F#4,229.0,1.0,80,210.0
561,F#5,229.0,1.0,80,210.0
562,B-2,231.0,3.0,42,210.0
563,C#3,231.0,3.0,50,210.0
564,F#4,231.0,1.0,80,210.0
565,F#5,231.0,1.0,80,210.0
566,B-4,232.0,0.5,80,210.0
567,B-5,232.0,0.5,80,210.0
568,C4,233.0,0.25,78,210.0
569,C5,233.0,0.25,78,210.0
570,G#2,234.0,3.0,37,210.0
571,C#3,234.0,3.0,50,210.0
572,E-4,234.0,1.0,73,210.0
573,E-5,234.0,1.0,73,210.0
574,C#4,235.0,1.0,68,210.0
575,C#5,235.0,1.0,68,210.0
576,F4,236.0,1.0,50,210.0
577,F5,236.0,1.0,50,210.0
578,C#2,237.0,1.0,36,210.0
579,C#3,237.0,3.0,50,210.0
580,F2,238.0,1.0,36,210.0
581,G#2,239.0,1.0,41,210.0
582,F4,239.0,2.0,50,210.0
583,F5,239.0,2.0,50,210.0
584,F#2,240.0,3.0,36,210.0
585,C#3,240.0,3.0,50,210.0
586,B-3,241.0,1.0,50,210.0
587,B-4,241.0,1.0,50,210.0
588,B-2,243.0,3.0,41,210.0
589,C#3,243.0,3.0,49,210.0
590,B-3,244.0,2.0,50,210.0
591,B-4,244.0,2.0,50,210.0
592,G#2,246.0,3.0,37,210.0
593,C#3,246.0,3.0,49,210.0
594,E-4,246.0,1.0,44,210.0
595,E-5,246.0,1.0,44,210.0
596,G2,249.0,3.0,37,210.0
597,C#3,249.0,3.0,49,210.0
598,E-4,249.0,2.0,44,210.0
599,E-5,249.0,2.0,44,210.0
600,G#3,251.0,1.0,45,210.0
601,G#4,251.0,1.0,45,210.0
602,G#2,252.0,3.0,37,210.0
603,C#3,252.0,3.0,49,210.0
604,G#3,254.0,2.0,45,210.0
605,G#4,254.0,2.0,45,210.0
606,B-2,255.0,3.0,45,210.0
607,C#3,255.0,3.0,38,210.0
608,C#4,256.0,1.0,45,210.0
609,C#5,256.0,1.0,45,210.0
610,G#2,258.0,3.0,54,210.0
611,C#3,258.0,3.0,38,210.0
612,C#4,259.0,2.0,45,210.0
613,C#5,259.0,2.0,45,210.0
614,G#1,261.0,2.0,54,210.0
615,G#2,261.0,2.0,54,210.0
616,F#3,261.0,1.0,40,210.0
617,F#4,261.0,1.0,40,210.0
618,G#2,263.0,0.25,48,210.0
619,C#2,264.0,0.25,48,210.0
620,F#3,264.0,2.0,40,210.0
621,F#4,264.0,2.0,40,210.0
622,F3,266.0,1.0,40,210.0
623,F4,266.0,1.0,40,210.0
624,D3,267.0,3.0,36,210.0
625,G#3,267.0,3.0,36,210.0
626,F3,268.0,1.0,40,210.0
627,F4,268.0,1.0,40,210.0
628,G#3,269.0,1.0,40,210.0
629,G#4,269.0,1.0,40,210.0
630,B3,270.0,1.0,40,210.0
631,B4,270.0,1.0,40,210.0
632,C#3,270.0,3.0,32,210.0
633,G3,270.0,3.0,32,210.0
634,B3,272.0,1.0,40,210.0
635,B4,272.0,1.0,40,210.0
636,B-3,273.0,0.5,40,210.0
637,B-4,273.0,0.5,40,210.0
638,C3,273.0,3.0,34,210.0
639,F#3,273.0,3.0,34,210.0
640,C#4,274.0,1.0,44,210.0
641,C#5,274.0,1.0,44,210.0
642,C#4,275.0,2.0,44,210.0
643,C#5,275.0,2.0,44,210.0
644,B2,276.0,3.0,31,210.0
645,F3,276.0,3.0,31,210.0
646,F#3,277.0,1.0,44,210.0
647,F#4,277.0,1.0,44,210.0
648,B-2,279.0,3.0,42,210.0
649,C#3,279.0,3.0,50,210.0
650,F#3,280.0,2.0,44,210.0
651,F#4,280.0,2.0,44,210.0
652,G#2,282.0,3.0,36,210.0
653,C#3,282.0,3.0,50,210.0
654,F3,282.0,1.0,43,210.0
655,F4,282.0,1.0,43,210.0
656,C#2,285.0,1.0,35,210.0
657,C#3,285.0,3.0,50,210.0
658,F3,285.0,2.0,43,210.0
659,F4,285.0,2.0,43,210.0
660,F2,286.0,1.0,35,210.0
661,G#2,287.0,1.0,39,210.0
662,E3,287.0,1.0,46,210.0
663,E4,287.0,1.0,46,210.0
664,F#2,288.0,3.0,41,210.0
665,C#3,288.0,3.0,50,210.0
666,E3,290.0,2.0,46,210.0
667,E4,290.0,2.0,46,210.0
668,B-2,291.0,3.0,39,210.0
669,C#3,291.0,3.0,47,210.0
670,F3,292.0,1.0,59,210.0
671,F4,292.0,1.0,59,210.0
672,G#2,294.0,3.0,39,210.0
673,C#3,294.0,3.0,47,210.0
674,F3,295.0,2.0,59,210.0
675,F4,295.0,2.0,59,210.0
676,G2,297.0,3.0,39,210.0
677,C#3,297.0,3.0,47,210.0
678,F#3,297.0,1.0,80,210.0
679,F#4,297.0,1.0,80,210.0
680,G#2,300.0,3.0,39,210.0
681,C#3,300.0,3.0,47,210.0
682,F#3,300.0,2.0,80,210.0
683,F#4,300.0,2.0,80,210.0
684,F3,302.0,1.0,61,210.0
685,F4,302.0,1.0,61,210.0
686,B-2,303.0,3.0,38,210.0
687,C#3,303.0,3.0,45,210.0
688,F3,304.0,1.0,61,210.0
689,F4,304.0,1.0,61,210.0
690,F#3,305.0,0.5,59,210.0
691,F#4,305.0,0.5,59,210.0
692,G#2,306.0,3.0,54,210.0
693,C#3,306.0,3.0,45,210.0
694,C3,306.0,0.25,52,210.0
695,C4,306.0,0.25,52,210.0
696,C#3,307.0,0.25,52,210.0
697,C#4,307.0,0.25,52,210.0
698,G#1,309.0,2.0,54,210.0
699,G#2,309.0,2.0,54,210.0
700,F4,309.0,1.0,48,210.0
701,F5,309.0,1.0,48,210.0
702,F4,310.0,2.0,48,210.0
703,F5,310.0,2.0,48,210.0
704,G#2,311.0,0.25,52,210.0
705,C#2,312.0,0.25,52,210.0
706,B-3,312.0,1.0,45,210.0
707,B-4,312.0,1.0,45,210.0
708,F4,314.0,1.0,54,210.0
709,B-3,315.0,2.0,45,210.0
710,B-4,315.0,2.0,45,210.0
711,E-4,315.002,2.0,54,210.0
712,C#4,317.0,1.0,50,210.0
713,E-4,317.0,1.0,45,210.0
714,E-5,317.0,1.0,45,210.0
715,C4,318.0,0.188,46,210.0
716,E-4,320.0,2.0,45,210.0
717,E-5,320.0,2.0,45,210.0
718,C#3,320.0,0.188,45,210.0
719,B-3,320.0,0.188,45,210.0
720,E-4,321.0,0.188,47,210.0
721,E-3,321.0,0.188,47,210.0
722,G#3,322.0,1.0,43,210.0
723,G#4,322.0,1.0,43,210.0
724,E-3,323.0,0.188,40,210.0
725,C#4,323.0,0.188,40,210.0
726,G#3,324.0,0.188,42,210.0
727,C4,324.0,0.188,42,210.0
728,G#3,325.0,2.0,43,210.0
729,G#4,325.0,2.0,43,210.0
730,B-4,326.0,1.0,49,210.0
731,G#4,327.0,2.0,54,210.0
732,C#4,327.0,1.0,45,210.0
733,C#5,327.0,1.0,45,210.0
734,F#4,329.0,1.0,46,210.0
735,F4,330.0,0.188,48,210.0
736,C#4,330.0,2.0,45,210.0
737,C#5,330.0,2.0,45,210.0
738,F#3,332.0,1.0,38,210.0
739,F#4,332.0,1.0,38,210.0
740,F#3,332.0,0.188,45,210.0
741,E-4,332.0,0.188,45,210.0
742,G#3,333.0,0.188,47,210.0
743,G#4,333.0,0.188,47,210.0
744,F#3,335.0,2.0,38,210.0
745,F#4,335.0,2.0,38,210.0
746,G#3,335.0,0.188,40,210.0
747,F#4,335.0,0.188,40,210.0
748,C#4,336.0,0.188,42,210.0
749,F4,336.0,0.188,42,210.0
750,F3,337.0,1.0,40,210.0
751,F4,337.0,1.0,40,210.0
752,F3,338.0,1.0,49,210.0
753,G#3,338.0,1.0,49,210.0
754,F3,339.0,1.0,40,210.0
755,F4,339.0,1.0,40,210.0
756,E-3,339.0,2.0,54,210.0
757,G#3,339.0,2.0,54,210.0
758,G#3,340.0,1.0,40,210.0
759,G#4,340.0,1.0,40,210.0
760,B3,341.0,1.0,46,210.0
761,B4,341.0,1.0,46,210.0
762,G3,341.0,1.0,49,210.0
763,C#3,341.0,1.0,49,210.0
764,C3,342.0,1.0,54,210.0
765,C4,342.0,1.0,54,210.0
766,B3,343.0,1.0,46,210.0
767,B4,343.0,1.0,46,210.0
768,B-3,344.0,0.5,40,210.0
769,B-4,344.0,0.5,40,210.0
770,C#3,344.0,0.5,46,210.0
771,B-3,344.0,0.5,46,210.0
772,C#4,345.0,1.0,47,210.0
773,C#5,345.0,1.0,47,210.0
774,E-3,345.0,0.5,49,210.0
775,E-4,345.0,0.5,49,210.0
776,C#4,346.0,2.0,47,210.0
777,C#5,346.0,2.0,47,210.0
778,E-3,347.0,0.5,45,210.0
779,C#4,347.0,0.5,45,210.0
780,F#3,348.0,1.0,45,210.0
781,F#4,348.0,1.0,45,210.0
782,G#3,348.0,0.5,46,210.0
783,C4,348.0,0.5,46,210.0
784,B-3,350.0,1.0,49,210.0
785,C#4,350.0,1.0,49,210.0
786,F#3,351.0,2.0,45,210.0
787,F#4,351.0,2.0,45,210.0
788,G#3,351.0,2.0,54,210.0
789,C#4,351.0,2.0,54,210.0
790,F3,353.0,1.0,42,210.0
791,F4,353.0,1.0,42,210.0
792,F#3,353.0,1.0,54,210.0
793,C4,353.0,1.0,54,210.0
794,F3,354.0,1.0,57,210.0
795,F4,354.0,1.0,57,210.0
796,F3,356.0,2.0,42,210.0
797,F4,356.0,2.0,42,210.0
798,F#3,356.0,0.5,50,210.0
799,E-4,356.0,0.5,50,210.0
800,G#3,357.0,0.5,54,210.0
801,G#4,357.0,0.5,54,210.0
802,E3,358.0,1.0,43,210.0
803,E4,358.0,1.0,43,210.0
804,G#3,359.0,0.5,45,210.0
805,F#4,359.0,0.5,45,210.0
806,C#4,360.0,0.5,48,210.0
807,F4,360.0,0.5,48,210.0
808,E3,361.0,2.0,43,210.0
809,E4,361.0,2.0,43,210.0
810,C#4,362.0,1.0,54,210.0
811,B-3,363.0,2.0,54,210.0
812,F3,363.0,1.0,59,210.0
813,F4,363.0,1.0,59,210.0
814,G#3,365.0,1.0,54,210.0
815,G3,366.0,1.0,54,210.0
816,F3,366.0,2.0,59,210.0
817,F4,366.0,2.0,59,210.0
818,G#3,367.0,0.5,54,210.0
819,G#3,368.0,1.0,50,210.0
820,F#3,368.0,1.0,78,210.0
821,F#4,368.0,1.0,78,210.0
822,G#3,369.0,2.0,50,210.0
823,F#3,371.0,1.0,48,210.0
824,F#3,371.0,2.0,78,210.0
825,F#4,371.0,2.0,78,210.0
826,F3,372.0,1.0,48,210.0
827,F#3,373.0,0.5,48,210.0
828,F3,373.0,1.0,61,210.0
829,F4,373.0,1.0,61,210.0
830,F#3,374.0,1.0,54,210.0
831,F3,375.0,1.0,61,210.0
832,F4,375.0,1.0,61,210.0
833,E-3,375.0,2.0,54,210.0
834,G#3,375.0,2.0,54,210.0
835,F#3,376.0,0.5,59,210.0
836,F#4,376.0,0.5,59,210.0
837,C3,377.0,0.25,54,210.0
838,C4,377.0,0.25,54,210.0
839,C#3,377.0,1.0,54,210.0
840,G#3,377.0,1.0,54,210.0
841,C#3,378.0,0.25,54,210.0
842,C#4,378.0,0.25,54,210.0
843,C3,378.0,3.0,54,210.0
844,G#3,378.0,3.0,54,210.0
845,G#4,380.0,1.0,64,210.0
846,C#5,380.0,1.0,64,210.0
847,C#3,381.0,2.0,54,210.0
848,G#3,381.0,2.0,54,210.0
849,C5,381.002,2.0,64,210.0
850,G#4,381.002,2.0,64,210.0
851,F#3,383.0,0.5,54,210.0
852,F#2,383.0,1.0,54,210.0
853,G4,383.0,1.0,59,210.0
854,B-4,383.0,1.0,59,210.0
855,E-3,383.5,0.5,54,210.0
856,G#4,384.0,0.188,55,210.0
857,E-5,384.0,0.188,55,210.0
858,F#2,384.0,2.0,54,210.0
859,G#3,384.0,2.0,54,210.0
860,F4,386.0,0.188,55,210.0
861,C#5,386.0,0.188,55,210.0
862,F3,386.0,1.0,49,210.0
863,G#3,386.0,1.0,49,210.0
864,G#4,387.0,0.188,55,210.0
865,C5,387.0,0.188,55,210.0
866,E-3,387.0,2.0,54,210.0
867,G#3,387.0,2.0,54,210.0
868,G4,389.0,0.188,50,210.0
869,B-4,389.0,0.188,50,210.0
870,C#3,389.0,1.0,47,210.0
871,G3,389.0,1.0,47,210.0
872,G#4,390.0,0.188,48,210.0
873,C3,390.0,0.188,54,210.0
874,C4,390.0,0.188,54,210.0
875,C#5,392.0,1.0,64,210.0
876,F#5,392.0,1.0,64,210.0
877,C#3,392.0,0.5,49,210.0
878,B-3,392.0,0.5,49,210.0
879,C#5,393.0,2.0,64,210.0
880,F5,393.0,2.0,64,210.0
881,E-3,393.0,0.5,54,210.0
882,E-4,393.0,0.5,54,210.0
883,C5,395.0,1.0,60,210.0
884,E-5,395.0,1.0,60,210.0
885,E-3,395.0,0.5,45,210.0
886,C#4,395.0,0.5,45,210.0
887,C#5,396.0,0.188,56,210.0
888,G#5,396.0,0.188,56,210.0
889,G#3,396.0,0.5,51,210.0
890,C4,396.0,0.5,51,210.0
891,B-4,398.0,0.188,55,210.0
892,F#5,398.0,0.188,55,210.0
893,B-3,398.0,1.0,49,210.0
894,C#4,398.0,1.0,49,210.0
895,C#5,399.0,0.188,56,210.0
896,F5,399.0,0.188,56,210.0
897,G#3,399.0,2.0,54,210.0
898,C#4,399.0,2.0,54,210.0
899,C5,401.0,0.188,54,210.0
900,E-5,401.0,0.188,54,210.0
901,F#3,401.0,1.0,49,210.0
902,C4,401.0,1.0,49,210.0
903,C#5,402.0,0.188,51,210.0
904,F3,402.0,0.188,55,210.0
905,C#4,402.0,0.188,55,210.0
906,C#4,404.0,1.0,64,210.0
907,C#5,404.0,1.0,64,210.0
908,B-3,404.0,1.0,48,210.0
909,C#4,404.0,1.0,48,210.0
910,C#4,405.0,1.0,64,210.0
911,C#5,405.0,1.0,64,210.0
912,G#3,405.0,2.0,54,210.0
913,C#4,405.0,2.0,54,210.0
914,C4,406.0,1.0,64,210.0
915,C5,406.0,1.0,64,210.0
916,B-3,407.0,1.0,64,210.0
917,B-4,407.0,1.0,64,210.0
918,F#3,407.0,1.0,48,210.0
919,C4,407.0,1.0,48,210.0
920,E-4,408.0,1.0,64,210.0
921,B-4,408.0,1.0,64,210.0
922,F3,408.0,0.188,54,210.0
923,C#4,408.0,0.188,54,210.0
924,E-5,409.0,0.25,64,210.0
925,C#5,410.0,1.0,59,210.0
926,F4,410.0,1.0,59,210.0
927,B-3,410.0,1.0,49,210.0
928,C#4,410.0,1.0,49,210.0
929,G#4,411.0,1.0,59,210.0
930,C#5,411.0,1.0,59,210.0
931,G#3,411.0,2.0,54,210.0
932,C#4,411.0,2.0,54,210.0
933,C5,412.0,1.0,59,210.0
934,G4,413.0,1.0,59,210.0
935,B-4,413.0,1.0,59,210.0
936,G3,413.0,1.0,62,210.0
937,E4,413.0,1.0,62,210.0
938,C#4,413.0,1.0,62,210.0
939,B-4,414.0,1.0,59,210.0
940,G#3,414.0,1.0,65,210.0
941,C#4,414.0,1.0,65,210.0
942,F4,414.0,1.0,65,210.0
943,G#4,415.0,0.5,64,210.0
944,F#4,416.0,1.0,64,210.0
945,F#5,416.0,1.0,64,210.0
946,F#4,417.0,1.0,64,210.0
947,F#5,417.0,1.0,64,210.0
948,G#1,417.0,3.0,54,210.0
949,G#2,417.0,3.0,54,210.0
950,F4,418.0,1.0,64,210.0
951,F5,418.0,1.0,64,210.0
952,E-4,419.0,1.0,64,210.0
953,E-5,419.0,1.0,64,210.0
954,G#4,420.0,1.0,69,210.0
955,E-5,420.0,1.0,64,210.0
956,C#2,420.0,1.0,54,210.0
957,G#2,420.0,1.0,54,210.0
958,G#5,421.0,0.25,69,210.0
959,B-4,422.0,1.0,64,210.0
960,F#5,422.0,1.0,64,210.0
961,C#5,423.0,1.0,64,210.0
962,F#5,423.0,1.0,64,210.0
963,F5,424.0,0.5,59,210.0
964,E-5,425.0,1.0,59,210.0
965,C5,425.0,1.0,59,210.0
966,E-5,426.0,1.0,59,210.0
967,C#5,427.0,0.5,56,210.0
968,C#5,428.0,1.0,64,210.0
969,F4,428.0,1.0,64,210.0
970,C#5,429.0,2.0,64,210.0
971,F4,429.0,2.0,64,210.0
972,F4,431.0,1.0,64,210.0
973,C#5,431.0,1.0,64,210.0
974,E-4,432.0,2.0,64,210.0
975,C#5,432.0,1.0,64,210.0
976,C5,433.0,0.5,64,210.0
977,E-4,434.0,1.0,57,210.0
978,B4,434.0,1.0,57,210.0
979,E-4,435.0,2.0,58,210.0
980,B4,435.0,2.0,58,210.0
981,E-4,437.0,1.0,58,210.0
982,B4,437.0,1.0,58,210.0
983,E-4,438.0,2.0,58,210.0
984,B4,438.0,1.0,58,210.0
985,B-4,439.0,0.5,58,210.0
986,C#4,440.0,1.0,64,210.0
987,B-4,440.0,1.0,64,210.0
988,F#4,441.0,2.0,73,210.0
989,C5,441.0,2.0,73,210.0
990,F4,443.0,1.0,77,210.0
991,C#5,443.0,1.0,77,210.0
992,F#4,444.0,2.0,88,210.0
993,E-5,444.0,2.0,88,210.0
994,E-4,446.0,1.0,75,210.0
995,F#4,446.0,1.0,75,210.0
996,E-4,448.0,1.0,75,210.0
997,F#4,448.0,1.0,75,210.0
998,C#4,449.0,1.0,64,210.0
999,F4,449.0,1.0,64,210.0
1000,B-4,450.0,0.5,64,210.0
1001,B-3,450.0,1.0,64,210.0
1002,F#4,450.5,0.5,64,210.0
1003,C#4,451.0,1.0,70,210.0
1004,F4,451.0,1.0,70,210.0
1005,C4,452.0,1.0,64,210.0
1006,E-4,452.0,1.0,64,210.0
1007,C#4,453.0,1.0,64,210.0
1008,C#5,453.0,1.0,64,210.0
1009,C4,454.0,2.0,65,210.0
1010,C5,454.0,2.0,65,210.0
1011,B-4,456.0,1.0,68,210.0
1012,B-3,456.0,1.0,68,210.0
1013,E-4,457.0,0.188,65,210.0
1014,E-5,457.0,0.188,65,210.0
1015,F4,459.0,1.0,64,210.0
1016,C#5,459.0,1.0,64,210.0
1017,G#4,460.0,1.0,64,210.0
1018,C#5,460.0,1.0,64,210.0
1019,C5,461.0,1.0,64,210.0
1020,G4,462.0,1.0,59,210.0
1021,B-4,462.0,1.0,59,210.0
1022,B-4,463.0,1.0,59,210.0
1023,G#4,464.0,0.5,58,210.0
1024,F#4,465.0,1.0,64,210.0
1025,F#5,465.0,1.0,64,210.0
1026,F4,466.0,2.0,65,210.0
1027,F5,466.0,2.0,65,210.0
1028,E-4,468.0,1.0,68,210.0
1029,E-5,468.0,1.0,68,210.0
1030,G#4,469.0,0.188,65,210.0
1031,G#5,469.0,0.188,65,210.0
1032,F#4,471.0,1.0,64,210.0
1033,F#5,471.0,1.0,64,210.0
1034,F#4,472.0,1.0,64,210.0
1035,F#5,472.0,1.0,64,210.0
1036,F4,473.0,1.0,64,210.0
1037,F5,473.0,1.0,64,210.0
1038,E-4,474.0,0.5,64,210.0
1039,E-5,474.0,0.5,64,210.0
1040,G#4,475.0,0.188,64,210.0
1041,G#5,475.0,0.188,64,210.0
1042,F#4,477.0,1.0,73,210.0
1043,F#5,477.0,1.0,73,210.0
1044,F#4,478.0,1.0,73,210.0
1045,F#5,478.0,1.0,73,210.0
1046,F4,479.0,1.0,85,210.0
1047,F5,479.0,1.0,85,210.0
1048,B-4,480.0,1.0,103,210.0
1049,B-5,480.0,1.0,103,210.0
1050,B-4,482.0,1.0,103,210.0
1051,B-5,482.0,1.0,103,210.0
1052,G#4,483.0,1.0,77,210.0
1053,G#5,483.0,1.0,77,210.0
1054,F#3,485.0,3.0,64,210.0
1055,C4,485.0,2.0,64,210.0
1056,E-4,487.0,0.5,60,210.0
1057,C#4,487.5,0.5,60,210.0
1058,F3,488.0,1.0,56,210.0
1059,C#4,488.0,1.0,56,210.0
