,note_name,start_time,duration,velocity,tempo
0,C#2,0.002,0.25,42,166.74
1,G#2,0.25,6/25,46,166.74
2,C#3,0.5,73/250,48,166.74
3,G#2,0.5,0.25,39,166.74
4,E3,0.75,73/250,50,166.74
5,G#3,1.0,73/250,51,166.74
6,C#2,1.0,0.25,43,166.74
7,C#3,1.25,73/250,46,166.74
8,E3,1.5,73/250,47,166.74
9,G#2,1.5,0.25,39,166.74
10,G#3,1.75,73/250,49,166.74
11,C#4,2.0,73/250,51,166.74
12,C#2,2.0,0.25,41,166.74
13,E3,2.25,73/250,46,166.74
14,G#3,2.5,73/250,47,166.74
15,G#2,2.5,0.25,39,166.74
16,C#4,2.75,73/250,49,166.74
17,E4,3.0,73/250,51,166.74
18,C#2,3.0,0.25,42,166.74
19,G#3,3.25,73/250,47,166.74
20,C#4,3.5,73/250,48,166.74
21,G#2,3.5,0.25,39,166.74
22,E4,3.75,0.25,49,166.74
23,G#4,4.0,73/250,50,166.74
24,E4,4.0,21/500,49,166.74
25,C#2,4.0,0.25,43,166.74
26,C#4,4.25,73/250,47,166.74
27,E4,4.5,73/250,47,166.74
28,G#2,4.5,0.25,41,166.74
29,G#4,4.75,73/250,49,166.74
30,C#5,5.0,73/250,50,166.74
31,C#2,5.0,0.25,43,166.74
32,E4,5.25,73/250,51,166.74
33,G#4,5.5,73/250,47,166.74
34,G#2,5.5,0.25,40,166.74
35,C#5,5.75,73/250,51,166.74
36,E5,6.0,73/250,52,166.74
37,C#2,6.0,0.25,41,166.74
38,G#4,6.25,73/250,50,166.74
39,C#5,6.5,73/250,51,166.74
40,G#2,6.5,0.25,39,166.74
41,E5,6.75,0.25,54,166.74
42,G#4,7.0,0.25,86,166.74
43,E5,7.0,0.25,86,166.74
44,G#5,7.0,0.25,86,166.74
45,C#5,7.0,0.25,86,166.74
46,C#3,7.0,0.25,72,166.74
47,C#2,7.0,0.25,72,166.74
48,G#2,7.5,0.25,67,166.74
49,G#4,7.5,0.25,73,166.74
50,C#5,7.5,0.25,73,166.74
51,G#5,7.5,0.25,73,166.74
52,E5,7.5,0.25,73,166.74
53,C2,8.0,0.25,41,166.74
54,G#2,8.25,6/25,47,166.74
55,C3,8.5,73/250,48,166.74
56,G#2,8.5,0.25,37,166.74
57,E-3,8.75,73/250,50,166.74
58,G#3,9.0,73/250,51,166.74
59,C2,9.0,0.25,41,166.74
60,C3,9.25,73/250,47,166.74
61,E-3,9.5,73/250,48,166.74
62,G#2,9.5,0.25,37,166.74
63,G#3,9.75,73/250,51,166.74
64,C4,10.0,73/250,52,166.74
65,C2,10.0,0.25,40,166.74
66,E-3,10.25,73/250,47,166.74
67,G#3,10.5,73/250,48,166.74
68,G#2,10.5,0.25,37,166.74
69,C4,10.75,73/250,50,166.74
70,E-4,11.0,73/250,51,166.74
71,C2,11.0,0.25,40,166.74
72,G#3,11.25,73/250,46,166.74
73,C4,11.5,73/250,47,166.74
74,G#2,11.5,0.25,38,166.74
75,E-4,11.75,0.25,49,166.74
76,G#4,12.0,73/250,51,166.74
77,E-4,12.0,21/500,49,166.74
78,C2,12.0,0.25,40,166.74
79,C4,12.25,73/250,47,166.74
80,E-4,12.5,73/250,48,166.74
81,G#2,12.5,0.25,36,166.74
82,G#4,12.75,73/250,50,166.74
83,C5,13.0,73/250,51,166.74
84,C2,13.0,0.25,40,166.74
85,E-4,13.25,73/250,47,166.74
86,G#4,13.5,73/250,48,166.74
87,G#2,13.5,0.25,37,166.74
88,C5,13.75,73/250,51,166.74
89,E-5,14.0,73/250,52,166.74
90,C2,14.0,0.25,40,166.74
91,G#4,14.25,73/250,51,166.74
92,C5,14.5,73/250,51,166.74
93,G#2,14.5,0.25,37,166.74
94,E-5,14.75,0.25,52,166.74
95,G#4,15.0,0.25,86,166.74
96,C5,15.0,0.25,86,166.74
97,E-5,15.0,0.25,86,166.74
98,G#5,15.0,0.25,86,166.74
99,C3,15.0,0.25,72,166.74
100,C2,15.0,0.25,72,166.74
101,G#2,15.5,0.25,65,166.74
102,C5,15.5,0.25,72,166.74
103,G#5,15.5,0.25,72,166.74
104,G#4,15.5,0.25,72,166.74
105,E-5,15.5,0.25,72,166.74
106,B1,16.0,0.25,55,166.74
107,C#3,16.25,73/250,66,166.74
108,F3,16.5,73/250,62,166.74
109,G#2,16.5,0.25,50,166.74
110,G#3,16.75,73/250,66,166.74
111,C#4,17.0,73/250,68,166.74
112,B1,17.0,0.25,56,166.74
113,F3,17.25,73/250,62,166.74
114,G#3,17.5,73/250,62,166.74
115,G#2,17.5,0.25,51,166.74
116,C#4,17.75,73/250,65,166.74
117,F4,18.0,73/250,68,166.74
118,B1,18.0,0.25,56,166.74
119,G#3,18.25,73/250,62,166.74
120,C#4,18.5,73/250,65,166.74
121,G#2,18.5,0.25,52,166.74
122,F4,18.75,73/250,67,166.74
123,G#4,19.0,73/250,68,166.74
124,B1,19.0,0.25,56,166.74
125,C#4,19.25,73/250,62,166.74
126,F4,19.5,73/250,63,166.74
127,G#2,19.5,0.25,52,166.74
128,G#4,19.75,0.25,66,166.74
129,C#5,20.0,73/250,67,166.74
130,G#4,20.0,21/500,66,166.74
131,B1,20.0,0.25,56,166.74
132,F4,20.25,73/250,62,166.74
133,G#4,20.5,73/250,62,166.74
134,G#2,20.5,0.25,52,166.74
135,C#5,20.75,73/250,66,166.74
136,F5,21.0,73/250,68,166.74
137,B1,21.0,0.25,56,166.74
138,G#4,21.25,73/250,62,166.74
139,C#5,21.5,73/250,66,166.74
140,G#2,21.5,0.25,51,166.74
141,F5,21.75,73/250,68,166.74
142,G#5,22.0,73/250,66,166.74
143,B1,22.0,0.25,56,166.74
144,C#5,22.25,73/250,68,166.74
145,F5,22.5,73/250,69,166.74
146,G#2,22.5,0.25,51,166.74
147,G#5,22.75,0.25,71,166.74
148,F5,23.0,0.25,95,166.74
149,C#6,23.0,0.25,95,166.74
150,G#5,23.0,0.25,95,166.74
151,C#5,23.0,0.25,95,166.74
152,B1,23.0,0.25,82,166.74
153,B2,23.0,0.25,82,166.74
154,G#2,23.5,0.25,73,166.74
155,G#5,23.5,0.25,84,166.74
156,C#6,23.5,0.25,84,166.74
157,C#5,23.5,0.25,84,166.74
158,F5,23.5,0.25,84,166.74
159,A1,24.0,0.25,50,166.74
160,C#3,24.25,73/250,61,166.74
161,F#3,24.5,73/250,63,166.74
162,A2,24.5,0.25,51,166.74
163,A3,24.75,73/250,62,166.74
164,C#4,25.0,0.125,69,166.74
165,A1,25.0,0.25,57,166.74
166,C#4,25.25,73/250,72,166.74
167,F#4,25.5,73/250,76,166.74
168,A2,25.5,0.25,60,166.74
169,A4,25.75,73/250,73,166.74
170,C#5,26.0,0.125,79,166.74
171,A1,26.0,0.25,57,166.74
172,C#5,26.25,73/250,77,166.74
173,F#5,26.5,73/250,81,166.74
174,A2,26.5,0.25,57,166.74
175,A5,26.75,0.25,76,166.74
176,A1,27.0,0.25,77,166.74
177,C#5,27.0,0.25,96,166.74
178,C#6,27.0,0.25,96,166.74
179,F#5,27.0,0.25,96,166.74
180,A2,27.5,0.25,77,166.74
181,C#5,27.5,0.25,93,166.74
182,F#5,27.5,0.25,93,166.74
183,C#6,27.5,0.25,93,166.74
184,A1,28.0,0.25,67,166.74
185,C#3,28.25,73/250,75,166.74
186,E3,28.5,73/250,77,166.74
187,A2,28.5,0.25,63,166.74
188,G3,28.75,73/250,79,166.74
189,C#4,29.0,0.125,76,166.74
190,A1,29.0,0.25,67,166.74
191,C#4,29.25,73/250,77,166.74
192,E4,29.5,73/250,79,166.74
193,A2,29.5,0.25,63,166.74
194,G4,29.75,73/250,79,166.74
195,C#5,30.0,0.125,80,166.74
196,A1,30.0,0.25,67,166.74
197,C#5,30.25,73/250,77,166.74
198,E5,30.5,73/250,79,166.74
199,A2,30.5,0.25,63,166.74
200,G5,30.75,0.25,80,166.74
201,A1,31.0,0.25,83,166.74
202,C#6,31.0,0.25,100,166.74
203,C#5,31.0,0.25,100,166.74
204,G5,31.0,0.25,100,166.74
205,A2,31.5,0.25,83,166.74
206,C#5,31.5,0.25,100,166.74
207,G5,31.5,0.25,100,166.74
208,C#6,31.5,0.25,100,166.74
209,C5,32.0,0.5,99,166.74
210,C6,32.0,0.5,99,166.74
211,G#5,32.0,0.5,99,166.74
212,G#2,32.0,0.5,70,166.74
213,G#1,32.0,0.5,70,166.74
214,G#4,32.5,0.25,74,166.74
215,C4,32.5,0.5,62,166.74
216,G#3,32.5,3.5,62,166.74
217,G#5,32.75,0.25,58,166.74
218,G#4,33.0,0.25,75,166.74
219,C4,33.0,0.5,62,166.74
220,G#5,33.25,0.25,60,166.74
221,B-4,33.5,0.25,76,166.74
222,C#4,33.5,0.5,62,166.74
223,G#5,33.75,0.25,60,166.74
224,C5,34.0,0.25,76,166.74
225,E-4,34.0,0.5,64,166.74
226,G#5,34.25,0.25,61,166.74
227,C#5,34.5,0.25,78,166.74
228,E4,34.5,0.5,66,166.74
229,G#5,34.75,0.25,62,166.74
230,E-5,35.0,0.25,79,166.74
231,F#4,35.0,0.5,67,166.74
232,G#5,35.25,0.25,62,166.74
233,C5,35.5,0.25,79,166.74
234,E-4,35.5,0.5,68,166.74
235,G#5,35.75,0.25,62,166.74
236,E-5,36.0,0.25,80,166.74
237,F#4,36.0,0.5,69,166.74
238,G#3,36.0,4.0,62,166.74
239,G#5,36.25,0.25,62,166.74
240,C#5,36.5,0.25,80,166.74
241,E4,36.5,0.5,71,166.74
242,G#5,36.75,0.25,62,166.74
243,F#5,37.0,0.25,84,166.74
244,A4,37.0,0.5,72,166.74
245,G#5,37.25,0.25,62,166.74
246,E5,37.5,0.25,80,166.74
247,G#4,37.5,0.5,71,166.74
248,G#5,37.75,0.25,62,166.74
249,E-5,38.0,0.25,80,166.74
250,F#4,38.0,0.5,69,166.74
251,G#5,38.25,0.25,62,166.74
252,C#5,38.5,0.25,79,166.74
253,E4,38.5,0.5,68,166.74
254,G#5,38.75,0.25,62,166.74
255,C5,39.0,0.25,79,166.74
256,E-4,39.0,0.5,67,166.74
257,G#5,39.25,0.25,62,166.74
258,A4,39.5,0.25,77,166.74
259,C#4,39.5,0.5,66,166.74
260,G5,39.75,0.25,61,166.74
261,G#4,40.0,0.25,76,166.74
262,C4,40.0,0.5,64,166.74
263,G#3,40.0,4.0,64,166.74
264,G#5,40.25,0.25,60,166.74
265,G#4,40.5,0.25,75,166.74
266,C4,40.5,0.5,63,166.74
267,G#5,40.75,0.25,59,166.74
268,G#4,41.0,0.25,74,166.74
269,C4,41.0,0.5,62,166.74
270,G#5,41.25,0.25,59,166.74
271,B-4,41.5,0.25,74,166.74
272,C#4,41.5,0.5,60,166.74
273,G#5,41.75,0.25,61,166.74
274,C5,42.0,0.25,76,166.74
275,E-4,42.0,0.5,62,166.74
276,G#5,42.25,0.25,59,166.74
277,C#5,42.5,0.25,76,166.74
278,E4,42.5,0.5,62,166.74
279,G#5,42.75,0.25,62,166.74
280,E-5,43.0,0.25,77,166.74
281,F#4,43.0,0.5,65,166.74
282,G#5,43.25,0.25,61,166.74
283,C5,43.5,0.25,79,166.74
284,E-4,43.5,0.5,67,166.74
285,G#5,43.75,0.25,62,166.74
286,E-5,44.0,0.25,79,166.74
287,F#4,44.0,0.5,68,166.74
288,G#3,44.0,4.0,64,166.74
289,G#5,44.25,0.25,62,166.74
290,C#5,44.5,0.25,80,166.74
291,E4,44.5,0.5,68,166.74
292,G#5,44.75,0.25,65,166.74
293,F#5,45.0,0.25,84,166.74
294,A4,45.0,0.5,68,166.74
295,G#5,45.25,0.25,68,166.74
296,E5,45.5,0.25,84,166.74
297,G#4,45.5,0.5,67,166.74
298,G#5,45.75,0.25,67,166.74
299,E-5,46.0,0.25,84,166.74
300,F#4,46.0,0.5,67,166.74
301,G#5,46.25,0.25,67,166.74
302,C#5,46.5,0.25,84,166.74
303,E4,46.5,0.5,67,166.74
304,G#5,46.75,0.25,66,166.74
305,C5,47.0,0.25,84,166.74
306,E-4,47.0,0.5,67,166.74
307,G#5,47.25,0.25,67,166.74
308,A4,47.5,0.25,84,166.74
309,C#4,47.5,0.5,67,166.74
310,G5,47.75,0.25,66,166.74
311,G#4,48.0,0.25,84,166.74
312,G#3,48.0,0.25,66,166.74
313,C4,48.0,0.25,66,166.74
314,G#5,48.25,0.25,66,166.74
315,A4,48.5,0.25,79,166.74
316,C#4,48.5,0.25,57,166.74
317,G#3,48.5,0.25,57,166.74
318,G5,48.75,0.25,67,166.74
319,G#4,49.0,0.25,84,166.74
320,G#3,49.0,0.25,62,166.74
321,C4,49.0,0.25,62,166.74
322,G#5,49.25,0.25,66,166.74
323,A4,49.5,0.25,79,166.74
324,C#4,49.5,0.25,57,166.74
325,G#3,49.5,0.25,57,166.74
326,G5,49.75,0.25,67,166.74
327,G#4,50.0,0.25,84,166.74
328,G#3,50.0,0.25,66,166.74
329,C4,50.0,0.25,66,166.74
330,G#5,50.25,0.25,66,166.74
331,A4,50.5,0.25,79,166.74
332,G#3,50.5,0.25,57,166.74
333,C#4,50.5,0.25,57,166.74
334,G5,50.75,0.25,65,166.74
335,G#4,51.0,0.25,84,166.74
336,G#3,51.0,0.25,62,166.74
337,C4,51.0,0.25,62,166.74
338,G#5,51.25,0.25,66,166.74
339,A4,51.5,0.25,79,166.74
340,C#4,51.5,0.25,56,166.74
341,G#3,51.5,0.25,56,166.74
342,G5,51.75,0.25,65,166.74
343,G#4,52.0,0.5,84,166.74
344,G#5,52.0,0.5,84,166.74
345,G#3,52.0,0.5,66,166.74
346,C4,52.0,0.5,66,166.74
347,G#3,53.0,3.0,113,166.74
348,G#1,53.0,3.0,84,166.74
349,G#2,53.0,3.0,84,166.74
350,C#2,56.0,0.25,43,166.74
351,G#2,56.25,6/25,45,166.74
352,C#3,56.5,73/250,47,166.74
353,G#2,56.5,0.25,39,166.74
354,E3,56.75,73/250,49,166.74
355,G#3,57.0,73/250,51,166.74
356,C#2,57.0,0.25,43,166.74
357,C#3,57.25,73/250,47,166.74
358,E3,57.5,73/250,49,166.74
359,G#2,57.5,0.25,39,166.74
360,G#3,57.75,73/250,51,166.74
361,C#4,58.0,73/250,51,166.74
362,C#2,58.0,0.25,43,166.74
363,E3,58.25,73/250,47,166.74
364,G#3,58.5,73/250,48,166.74
365,G#2,58.5,0.25,39,166.74
366,C#4,58.75,73/250,50,166.74
367,E4,59.0,73/250,51,166.74
368,C#2,59.0,0.25,43,166.74
369,G#3,59.25,73/250,47,166.74
370,C#4,59.5,73/250,48,166.74
371,G#2,59.5,0.25,39,166.74
372,E4,59.75,0.25,50,166.74
373,G#4,60.0,73/250,51,166.74
374,E4,60.0,21/500,50,166.74
375,C#2,60.0,0.25,43,166.74
376,C#4,60.25,73/250,47,166.74
377,E4,60.5,73/250,48,166.74
378,G#2,60.5,0.25,39,166.74
379,G#4,60.75,73/250,50,166.74
380,C#5,61.0,73/250,51,166.74
381,C#2,61.0,0.25,43,166.74
382,E4,61.25,73/250,47,166.74
383,G#4,61.5,73/250,49,166.74
384,G#2,61.5,0.25,39,166.74
385,C#5,61.75,73/250,51,166.74
386,E5,62.0,229/1000,51,166.74
387,C#2,62.0,0.25,43,166.74
388,E5,62.25,73/250,51,166.74
389,G#5,62.5,73/250,51,166.74
390,G#2,62.5,0.25,39,166.74
391,C#6,62.75,73/250,53,166.74
392,E5,63.0,0.25,104,166.74
393,E6,63.0,0.25,104,166.74
394,C#2,63.0,0.25,80,166.74
395,C#3,63.0,0.25,80,166.74
396,G#2,63.5,0.25,74,166.74
397,E5,63.5,0.25,81,166.74
398,E6,63.5,0.25,81,166.74
399,B-1,64.0,0.25,40,166.74
400,E3,64.25,73/250,47,166.74
401,G3,64.5,73/250,49,166.74
402,C#3,64.5,0.25,36,166.74
403,C#4,64.75,73/250,51,166.74
404,E4,65.0,73/250,51,166.74
405,B-2,65.0,0.25,40,166.74
406,G3,65.25,73/250,47,166.74
407,C#4,65.5,73/250,48,166.74
408,C#3,65.5,0.25,37,166.74
409,E4,65.75,73/250,50,166.74
410,G4,66.0,73/250,51,166.74
411,B-2,66.0,0.25,40,166.74
412,C#4,66.25,73/250,47,166.74
413,E4,66.5,73/250,48,166.74
414,C#3,66.5,0.25,37,166.74
415,G4,66.75,73/250,51,166.74
416,C#5,67.0,73/250,52,166.74
417,B-2,67.0,0.25,40,166.74
418,E4,67.25,73/250,47,166.74
419,G4,67.5,73/250,49,166.74
420,C#3,67.5,0.25,37,166.74
421,C#5,67.75,0.25,51,166.74
422,E5,68.0,73/250,53,166.74
423,C#5,68.0,21/500,51,166.74
424,B-2,68.0,0.25,40,166.74
425,G4,68.25,73/250,47,166.74
426,C#5,68.5,73/250,50,166.74
427,C#3,68.5,0.25,37,166.74
428,E5,68.75,73/250,51,166.74
429,G5,69.0,73/250,53,166.74
430,B-2,69.0,0.25,40,166.74
431,C#5,69.25,73/250,47,166.74
432,E5,69.5,73/250,49,166.74
433,C#3,69.5,0.25,36,166.74
434,G5,69.75,73/250,51,166.74
435,C#6,70.0,73/250,52,166.74
436,B-2,70.0,0.25,40,166.74
437,E5,70.25,73/250,49,166.74
438,G5,70.5,73/250,51,166.74
439,C#3,70.5,0.25,37,166.74
440,C#6,70.75,73/250,54,166.74
441,E5,71.0,0.25,102,166.74
442,E6,71.0,0.25,102,166.74
443,B-2,71.0,0.25,80,166.74
444,B-1,71.0,0.25,80,166.74
445,C#3,71.5,0.25,72,166.74
446,E5,71.5,0.25,80,166.74
447,E6,71.5,0.25,80,166.74
448,G1,72.0,0.25,39,166.74
449,E-3,72.25,6/25,50,166.74
450,B-3,72.5,73/250,51,166.74
451,E-3,72.5,0.25,36,166.74
452,C#4,72.75,73/250,49,166.74
453,E-4,73.0,73/250,51,166.74
454,G2,73.0,0.25,40,166.74
455,B-3,73.25,73/250,52,166.74
456,C#4,73.5,73/250,53,166.74
457,E-3,73.5,0.25,39,166.74
458,E-4,73.75,73/250,51,166.74
459,B-4,74.0,73/250,56,166.74
460,G2,74.0,0.25,43,166.74
461,C#4,74.25,73/250,56,166.74
462,E-4,74.5,73/250,57,166.74
463,E-3,74.5,0.25,40,166.74
464,B-4,74.75,73/250,52,166.74
465,C#5,75.0,73/250,58,166.74
466,G2,75.0,0.25,45,166.74
467,E-4,75.25,73/250,59,166.74
468,B-4,75.5,73/250,60,166.74
469,E-3,75.5,0.25,43,166.74
470,C#5,75.75,0.25,56,166.74
471,E-5,76.0,73/250,62,166.74
472,C#5,76.0,21/500,56,166.74
473,G2,76.0,0.25,47,166.74
474,B-4,76.25,73/250,62,166.74
475,C#5,76.5,73/250,62,166.74
476,E-3,76.5,0.25,44,166.74
477,E-5,76.75,73/250,59,166.74
478,B-5,77.0,73/250,63,166.74
479,G2,77.0,0.25,49,166.74
480,C#5,77.25,73/250,65,166.74
481,E-5,77.5,73/250,66,166.74
482,E-3,77.5,0.25,45,166.74
483,B-5,77.75,73/250,62,166.74
484,C#6,78.0,73/250,67,166.74
485,G2,78.0,0.25,51,166.74
486,B-5,78.25,73/250,65,166.74
487,E-5,78.5,73/250,62,166.74
488,E-3,78.5,0.25,48,166.74
489,C#5,78.75,73/250,61,166.74
490,B-5,79.0,73/250,59,166.74
491,G2,79.0,0.25,47,166.74
492,E-5,79.25,73/250,57,166.74
493,C#5,79.5,73/250,56,166.74
494,E-3,79.5,0.25,45,166.74
495,B-4,79.75,0.25,52,166.74
496,B4,80.0,0.5,49,166.74
497,B-4,80.0,21/500,52,166.74
498,G#2,80.0,73/250,33,166.74
499,E-3,80.25,73/250,26,166.74
500,B2,80.5,73/250,28,166.74
501,E-3,80.75,73/250,25,166.74
502,E-5,81.0,1021/500,61,166.74
503,G#2,81.0,31/125,33,166.74
504,E-3,81.25,31/125,25,166.74
505,B2,81.5,31/125,28,166.74
506,E-3,81.75,31/125,24,166.74
507,G#2,82.0,31/125,33,166.74
508,E-3,82.25,31/125,26,166.74
509,B2,82.5,31/125,29,166.74
510,E-3,82.75,31/125,25,166.74
511,B4,83.0,99/125,50,166.74
512,G#2,83.0,31/125,33,166.74
513,E-3,83.25,31/125,26,166.74
514,B2,83.5,31/125,29,166.74
515,G#4,83.75,0.125,50,166.74
516,E-3,83.75,31/125,25,166.74
517,G4,83.875,21/500,40,166.74
518,G#4,83.875,21/500,40,166.74
519,B-4,83.958,21/500,40,166.74
520,G#4,84.0,521/500,58,166.74
521,B-2,84.0,73/250,33,166.74
522,E-3,84.25,73/250,26,166.74
523,C#3,84.5,73/250,29,166.74
524,E-3,84.75,73/250,26,166.74
525,G4,85.0,1.5,50,166.74
526,B-2,85.0,31/125,41,166.74
527,E-3,85.25,31/125,35,166.74
528,C#3,85.5,31/125,40,166.74
529,E-3,85.75,31/125,37,166.74
530,B-2,86.0,31/125,49,166.74
531,E-3,86.25,31/125,40,166.74
532,G4,86.5,271/500,50,166.74
533,C#3,86.5,31/125,46,166.74
534,E-3,86.75,31/125,42,166.74
535,E-5,87.0,0.75,61,166.74
536,B-2,87.0,31/125,56,166.74
537,E-3,87.25,31/125,41,166.74
538,C#3,87.5,31/125,43,166.74
539,G4,87.75,0.25,52,166.74
540,E-3,87.75,31/125,36,166.74
541,B-4,88.0,521/500,47,166.74
542,B2,88.0,31/125,33,166.74
543,E-3,88.25,31/125,28,166.74
544,B2,88.5,31/125,30,166.74
545,E-3,88.75,31/125,26,166.74
546,G#4,89.0,1.5,51,166.74
547,B2,89.0,31/125,41,166.74
548,E-3,89.25,31/125,37,166.74
549,B2,89.5,31/125,39,166.74
550,E-3,89.75,31/125,36,166.74
551,B2,90.0,31/125,49,166.74
552,E-3,90.25,31/125,43,166.74
553,G#4,90.5,271/500,49,166.74
554,B2,90.5,31/125,48,166.74
555,E-3,90.75,31/125,42,166.74
556,E-5,91.0,0.75,61,166.74
557,B2,91.0,31/125,54,166.74
558,E-3,91.25,31/125,41,166.74
559,B2,91.5,31/125,43,166.74
560,G#4,91.75,0.25,50,166.74
561,E-3,91.75,31/125,36,166.74
562,B4,92.0,521/500,52,166.74
563,G#4,92.0,21/500,50,166.74
564,G2,92.0,31/125,32,166.74
565,E-3,92.25,31/125,25,166.74
566,G2,92.5,31/125,29,166.74
567,E-3,92.75,31/125,26,166.74
568,B-4,93.0,1.5,50,166.74
569,G2,93.0,31/125,41,166.74
570,E-3,93.25,31/125,37,166.74
571,G2,93.5,31/125,42,166.74
572,E-3,93.75,31/125,43,166.74
573,G2,94.0,31/125,48,166.74
574,E-3,94.25,31/125,43,166.74
575,B-4,94.5,271/500,52,166.74
576,G2,94.5,31/125,49,166.74
577,E-3,94.75,31/125,46,166.74
578,E-5,95.0,0.75,49,166.74
579,G2,95.0,31/125,54,166.74
580,E-3,95.25,31/125,38,166.74
581,G2,95.5,31/125,42,166.74
582,B-4,95.75,0.25,52,166.74
583,E-3,95.75,31/125,36,166.74
584,B4,96.0,0.25,56,166.74
585,G#2,96.0,73/250,39,166.74
586,E-3,96.25,73/250,32,166.74
587,B2,96.5,31/125,35,166.74
588,E-6,96.5,1.0,52,166.74
589,E-5,96.5,1.0,52,166.74
590,E-3,96.75,31/125,31,166.74
591,G#2,97.0,31/125,40,166.74
592,E-3,97.25,31/125,31,166.74
593,B2,97.5,31/125,34,166.74
594,E-6,97.5,1.0,54,166.74
595,E-5,97.5,1.0,54,166.74
596,E-3,97.75,31/125,31,166.74
597,G#2,98.0,31/125,41,166.74
598,E-3,98.25,31/125,32,166.74
599,B2,98.5,31/125,35,166.74
600,E-5,98.5,0.25,52,166.74
601,E-6,98.5,0.25,52,166.74
602,E-3,98.75,31/125,32,166.74
603,G#2,99.0,73/250,43,166.74
604,B4,99.0,0.25,54,166.74
605,B5,99.0,0.25,54,166.74
606,E-3,99.25,73/250,37,166.74
607,B2,99.5,73/250,37,166.74
608,G#5,99.5,0.25,54,166.74
609,G#4,99.5,0.25,54,166.74
610,E-3,99.75,0.25,34,166.74
611,B-2,100.0,73/250,46,166.74
612,E-3,100.0,21/500,34,166.74
613,G#5,100.0,0.25,56,166.74
614,G#4,100.0,0.25,56,166.74
615,E-3,100.25,73/250,34,166.74
616,C#3,100.5,31/125,39,166.74
617,G5,100.5,1.0,57,166.74
618,G4,100.5,1.0,57,166.74
619,E-3,100.75,31/125,34,166.74
620,B-2,101.0,31/125,47,166.74
621,E-3,101.25,31/125,35,166.74
622,C#3,101.5,31/125,40,166.74
623,G5,101.5,1.0,62,166.74
624,G4,101.5,1.0,62,166.74
625,E-3,101.75,31/125,35,166.74
626,B-2,102.0,31/125,49,166.74
627,E-3,102.25,31/125,35,166.74
628,C#3,102.5,31/125,41,166.74
629,G4,102.5,0.25,64,166.74
630,G5,102.5,0.25,64,166.74
631,E-3,102.75,31/125,37,166.74
632,B-2,103.0,73/250,50,166.74
633,E-6,103.0,0.25,66,166.74
634,E-5,103.0,0.25,66,166.74
635,E-3,103.25,73/250,40,166.74
636,C#3,103.5,73/250,45,166.74
637,G4,103.5,0.25,67,166.74
638,G5,103.5,0.25,67,166.74
639,E-3,103.75,0.25,41,166.74
640,B2,104.0,73/250,51,166.74
641,E-3,104.0,21/500,41,166.74
642,B-4,104.0,0.25,68,166.74
643,B-5,104.0,0.25,68,166.74
644,E-3,104.25,73/250,44,166.74
645,B2,104.5,31/125,47,166.74
646,G#4,104.5,1.0,69,166.74
647,G#5,104.5,1.0,69,166.74
648,E-3,104.75,31/125,43,166.74
649,B2,105.0,31/125,52,166.74
650,E-3,105.25,31/125,44,166.74
651,B2,105.5,31/125,48,166.74
652,G#4,105.5,1.0,74,166.74
653,G#5,105.5,1.0,74,166.74
654,E-3,105.75,31/125,48,166.74
655,B2,106.0,31/125,56,166.74
656,E-3,106.25,31/125,47,166.74
657,B2,106.5,31/125,50,166.74
658,G#4,106.5,0.25,76,166.74
659,G#5,106.5,0.25,76,166.74
660,E-3,106.75,73/250,45,166.74
661,B2,107.0,73/250,57,166.74
662,E-5,107.0,0.25,78,166.74
663,E-6,107.0,0.25,78,166.74
664,E-3,107.25,73/250,49,166.74
665,B2,107.5,73/250,51,166.74
666,G#5,107.5,0.25,80,166.74
667,G#4,107.5,0.25,80,166.74
668,E-3,107.75,0.25,47,166.74
669,G2,108.0,73/250,59,166.74
670,E-3,108.0,21/500,47,166.74
671,B4,108.0,0.25,80,166.74
672,B5,108.0,0.25,80,166.74
673,E-3,108.25,73/250,53,166.74
674,G2,108.5,31/125,56,166.74
675,B-5,108.5,1.0,82,166.74
676,B-4,108.5,1.0,82,166.74
677,E-3,108.75,31/125,56,166.74
678,G2,109.0,31/125,60,166.74
679,E-3,109.25,31/125,52,166.74
680,G2,109.5,31/125,57,166.74
681,B-4,109.5,1.0,86,166.74
682,B-5,109.5,1.0,86,166.74
683,E-3,109.75,31/125,52,166.74
684,G2,110.0,31/125,62,166.74
685,E-3,110.25,31/125,53,166.74
686,G2,110.5,73/250,59,166.74
687,B-5,110.5,0.25,86,166.74
688,B-4,110.5,0.25,86,166.74
689,E-3,110.75,73/250,53,166.74
690,G2,111.0,73/250,62,166.74
691,E-6,111.0,0.25,86,166.74
692,E-5,111.0,0.25,86,166.74
693,E-3,111.25,73/250,54,166.74
694,G2,111.5,73/250,60,166.74
695,B-5,111.5,0.25,86,166.74
696,B-4,111.5,0.25,86,166.74
697,E-3,111.75,0.25,54,166.74
698,F#2,112.0,57/200,66,166.74
699,E-3,112.0,21/500,54,166.74
700,C5,112.0,2.0,88,166.74
701,C6,112.0,2.0,88,166.74
702,E-3,112.25,57/200,54,166.74
703,G#2,112.5,57/200,61,166.74
704,E-3,112.75,57/200,54,166.74
705,F#2,113.0,57/200,66,166.74
706,E-3,113.25,57/200,56,166.74
707,G#2,113.5,57/200,61,166.74
708,E-3,113.75,57/200,56,166.74
709,E2,114.0,57/200,66,166.74
710,C#6,114.0,2.0,88,166.74
711,C#5,114.0,2.0,88,166.74
712,C#3,114.25,57/200,56,166.74
713,G#2,114.5,57/200,62,166.74
714,C#3,114.75,57/200,56,166.74
715,E2,115.0,57/200,66,166.74
716,C#3,115.25,57/200,56,166.74
717,G#2,115.5,57/200,61,166.74
718,C#3,115.75,0.25,56,166.74
719,B-5,116.0,27/200,80,166.74
720,B-4,116.0,1.0,68,166.74
721,E2,116.0,31/125,66,166.74
722,C#3,116.0,7/200,56,166.74
723,B5,116.135,133/1000,75,166.74
724,C#3,116.25,31/125,56,166.74
725,B-5,116.269,27/200,80,166.74
726,B5,116.404,133/1000,80,166.74
727,F#2,116.5,31/125,61,166.74
728,B-5,116.573,81/500,80,166.74
729,G#5,116.723,4/25,75,166.74
730,C#3,116.75,31/125,56,166.74
731,B-5,116.86,7/50,75,166.74
732,E-2,117.0,57/200,66,166.74
733,B5,117.0,3.0,88,166.74
734,B4,117.0,3.0,88,166.74
735,B2,117.25,57/200,57,166.74
736,F#2,117.5,57/200,62,166.74
737,B2,117.75,57/200,57,166.74
738,E-2,118.0,57/200,66,166.74
739,B2,118.25,57/200,56,166.74
740,F#2,118.5,57/200,61,166.74
741,B2,118.75,57/200,56,166.74
742,E-2,119.0,57/200,66,166.74
743,B2,119.25,57/200,56,166.74
744,F#2,119.5,57/200,60,166.74
745,B2,119.75,0.25,56,166.74
746,D2,120.0,73/250,66,166.74
747,B2,120.0,7/200,56,166.74
748,G#5,120.0,2.0,88,166.74
749,G#4,120.0,2.0,88,166.74
750,B2,120.25,73/250,58,166.74
751,E2,120.5,73/250,62,166.74
752,B2,120.75,73/250,58,166.74
753,D2,121.0,73/250,66,166.74
754,B2,121.25,73/250,58,166.74
755,E2,121.5,73/250,62,166.74
756,B2,121.75,73/250,57,166.74
757,C#2,122.0,31/125,66,166.74
758,A4,122.0,2.0,87,166.74
759,A5,122.0,2.0,87,166.74
760,A2,122.25,31/125,57,166.74
761,E2,122.5,31/125,62,166.74
762,A2,122.75,31/125,56,166.74
763,C#2,123.0,31/125,66,166.74
764,A2,123.25,31/125,57,166.74
765,E2,123.5,31/125,62,166.74
766,A2,123.75,31/125,57,166.74
767,G4,124.0,1.0,68,166.74
768,G5,124.0,27/200,80,166.74
769,C#2,124.0,31/125,66,166.74
770,G#5,124.135,27/200,75,166.74
771,B-2,124.25,31/125,56,166.74
772,G5,124.269,27/200,80,166.74
773,G#5,124.404,27/200,80,166.74
774,E-2,124.5,31/125,60,166.74
775,G5,124.573,81/500,80,166.74
776,F5,124.723,81/500,75,166.74
777,B-2,124.75,31/125,56,166.74
778,G5,124.86,7/50,75,166.74
779,B1,125.0,57/200,66,166.74
780,G#4,125.0,3.0,88,166.74
781,G#5,125.0,3.0,88,166.74
782,G#2,125.25,57/200,57,166.74
783,E-2,125.5,57/200,61,166.74
784,G#2,125.75,57/200,57,166.74
785,B1,126.0,57/200,66,166.74
786,G#2,126.25,57/200,56,166.74
787,E-2,126.5,57/200,61,166.74
788,G#2,126.75,57/200,57,166.74
789,B1,127.0,57/200,66,166.74
790,G#2,127.25,57/200,56,166.74
791,E-2,127.5,57/200,61,166.74
792,G#2,127.75,0.25,58,166.74
793,G#2,128.0,7/200,58,166.74
794,E5,128.0,2.25,92,166.74
795,A4,128.0,2.25,92,166.74
796,C#5,128.0,2.25,92,166.74
797,A5,128.0,2.25,92,166.74
798,A2,128.0,3.0,70,166.74
799,E2,128.0,3.0,70,166.74
800,C#3,128.0,3.0,70,166.74
801,C#2,128.0,3.0,70,166.74
802,E5,130.25,0.25,47,166.74
803,F#5,130.5,0.25,47,166.74
804,G#5,130.75,0.25,48,166.74
805,A5,131.0,0.25,49,166.74
806,B5,131.25,0.25,50,166.74
807,C#6,131.5,0.25,51,166.74
808,B5,131.75,0.25,51,166.74
809,A5,132.0,0.25,49,166.74
810,E4,132.0,124/125,45,166.74
811,C#4,132.0,124/125,45,166.74
812,A4,132.0,124/125,45,166.74
813,E5,132.25,0.25,47,166.74
814,F#5,132.5,0.25,47,166.74
815,G#5,132.75,0.25,47,166.74
816,A5,133.0,0.25,48,166.74
817,B5,133.25,0.25,49,166.74
818,C#6,133.5,0.25,50,166.74
819,B5,133.75,0.25,48,166.74
820,A5,134.0,0.25,48,166.74
821,E4,134.0,1.0,44,166.74
822,C#4,134.0,1.0,44,166.74
823,A4,134.0,1.0,44,166.74
824,E5,134.25,0.25,47,166.74
825,F#5,134.5,0.25,48,166.74
826,G#5,134.75,0.25,49,166.74
827,A5,135.0,0.25,50,166.74
828,B5,135.25,0.25,51,166.74
829,C#6,135.5,0.25,51,166.74
830,B5,135.75,0.25,49,166.74
831,A5,136.0,0.25,47,166.74
832,E4,136.0,1.0,44,166.74
833,C#4,136.0,1.0,44,166.74
834,A4,136.0,1.0,44,166.74
835,E5,136.25,0.25,48,166.74
836,F#5,136.5,0.25,51,166.74
837,G#5,136.75,0.25,51,166.74
838,A5,137.0,0.25,54,166.74
839,E4,137.0,1.0,47,166.74
840,C#4,137.0,1.0,47,166.74
841,A4,137.0,1.0,47,166.74
842,B5,137.25,0.25,56,166.74
843,C#6,137.5,0.25,57,166.74
844,D6,137.75,0.25,60,166.74
845,E6,138.0,0.25,61,166.74
846,A4,138.0,1.0,54,166.74
847,E4,138.0,1.0,54,166.74
848,C#4,138.0,1.0,54,166.74
849,E-6,138.25,0.25,59,166.74
850,E6,138.5,0.25,57,166.74
851,E-6,138.75,0.25,56,166.74
852,E6,139.0,0.25,54,166.74
853,A4,139.0,1.0,50,166.74
854,E4,139.0,1.0,50,166.74
855,C#4,139.0,1.0,50,166.74
856,C#6,139.25,0.25,52,166.74
857,B5,139.5,0.25,51,166.74
858,A5,139.75,0.25,50,166.74
859,G#5,140.0,2.0,48,166.74
860,E-4,140.0,31/125,49,166.74
861,B4,140.25,31/125,44,166.74
862,G#4,140.5,31/125,47,166.74
863,B4,140.75,31/125,44,166.74
864,E-4,141.0,31/125,51,166.74
865,B4,141.25,31/125,43,166.74
866,G#4,141.5,31/125,47,166.74
867,B4,141.75,31/125,43,166.74
868,B-5,142.0,167/1000,50,166.74
869,E-4,142.0,31/125,51,166.74
870,B5,142.167,167/1000,50,166.74
871,C#5,142.25,31/125,45,166.74
872,B-5,142.333,0.156,50,166.74
873,B5,142.49,0.156,50,166.74
874,G4,142.5,31/125,47,166.74
875,B-5,142.646,0.156,50,166.74
876,C#5,142.75,31/125,43,166.74
877,B5,142.802,0.156,50,166.74
878,B-5,142.958,73/500,48,166.74
879,E-4,143.0,31/125,51,166.74
880,B5,143.104,73/500,48,166.74
881,B-5,143.25,0.125,49,166.74
882,C#5,143.25,31/125,43,166.74
883,B5,143.375,0.125,50,166.74
884,B-5,143.5,0.125,51,166.74
885,G4,143.5,31/125,47,166.74
886,B5,143.625,0.125,51,166.74
887,B-5,143.75,0.125,51,166.74
888,C#5,143.75,31/125,43,166.74
889,B5,143.875,0.125,52,166.74
890,G#5,144.0,0.5,56,166.74
891,G#4,144.0,0.5,56,166.74
892,E4,144.0,0.5,56,166.74
893,B4,144.0,0.5,56,166.74
894,E4,145.0,1.25,84,166.74
895,A3,145.0,1.25,84,166.74
896,C#4,145.0,1.25,84,166.74
897,A4,145.0,1.25,84,166.74
898,E2,145.0,2.0,68,166.74
899,A2,145.0,2.0,68,166.74
900,C#3,145.0,2.0,68,166.74
901,C#2,145.0,2.0,68,166.74
902,E4,146.25,0.25,50,166.74
903,F#4,146.5,0.25,50,166.74
904,G#4,146.75,0.25,50,166.74
905,A4,147.0,0.25,48,166.74
906,B4,147.25,0.25,47,166.74
907,C#5,147.5,0.25,49,166.74
908,B4,147.75,0.25,48,166.74
909,A4,148.0,0.25,47,166.74
910,E4,148.25,0.25,47,166.74
911,F#4,148.5,0.25,48,166.74
912,G#4,148.75,0.25,49,166.74
913,A4,149.0,0.25,51,166.74
914,E3,149.0,1.0,44,166.74
915,C#3,149.0,1.0,44,166.74
916,A3,149.0,1.0,44,166.74
917,B4,149.25,0.25,51,166.74
918,C#5,149.5,0.25,49,166.74
919,B4,149.75,0.25,48,166.74
920,A4,150.0,0.25,48,166.74
921,E4,150.25,0.25,48,166.74
922,F#4,150.5,0.25,48,166.74
923,G#4,150.75,0.25,50,166.74
924,A4,151.0,0.25,50,166.74
925,E3,151.0,1.0,44,166.74
926,C#3,151.0,1.0,44,166.74
927,A3,151.0,1.0,44,166.74
928,B4,151.25,0.25,50,166.74
929,C#5,151.5,0.25,50,166.74
930,B4,151.75,0.25,50,166.74
931,A4,152.0,0.25,49,166.74
932,E4,152.25,0.25,50,166.74
933,F#4,152.5,0.25,51,166.74
934,A3,152.5,0.5,46,166.74
935,C#3,152.5,0.5,46,166.74
936,E3,152.5,0.5,46,166.74
937,G#4,152.75,0.25,51,166.74
938,A4,153.0,0.25,52,166.74
939,B4,153.25,0.25,53,166.74
940,C#5,153.5,0.25,56,166.74
941,A3,153.5,0.5,54,166.74
942,C#3,153.5,0.5,54,166.74
943,E3,153.5,0.5,54,166.74
944,B4,153.75,0.25,56,166.74
945,A4,154.0,0.25,57,166.74
946,E4,154.25,0.25,58,166.74
947,F#4,154.5,0.25,59,166.74
948,A3,154.5,0.5,61,166.74
949,E3,154.5,0.5,61,166.74
950,C#3,154.5,0.5,61,166.74
951,G#4,154.75,0.25,60,166.74
952,A4,155.0,0.25,62,166.74
953,B4,155.25,0.25,62,166.74
954,C#5,155.5,0.25,62,166.74
955,A3,155.5,0.5,61,166.74
956,E3,155.5,0.5,61,166.74
957,C#3,155.5,0.5,61,166.74
958,B4,155.75,0.25,63,166.74
959,A4,156.0,0.25,66,166.74
960,E3,156.0,1.0,60,166.74
961,A3,156.0,1.0,60,166.74
962,C#3,156.0,1.0,60,166.74
963,E4,156.25,0.25,67,166.74
964,F#4,156.5,0.25,68,166.74
965,G#4,156.75,0.25,68,166.74
966,A4,157.0,0.25,70,166.74
967,B4,157.25,0.25,71,166.74
968,C#5,157.5,0.25,72,166.74
969,D5,157.75,0.25,73,166.74
970,E5,158.0,0.25,74,166.74
971,F#5,158.25,0.25,75,166.74
972,G#5,158.5,0.25,76,166.74
973,A5,158.75,0.25,77,166.74
974,B5,159.0,0.25,79,166.74
975,C#6,159.25,0.25,79,166.74
976,D6,159.5,0.25,79,166.74
977,E-6,159.75,0.25,80,166.74
978,C#3,160.0,31/125,70,166.74
979,E5,160.0,2.0,84,166.74
980,E6,160.0,2.0,84,166.74
981,A3,160.25,31/125,61,166.74
982,E3,160.5,31/125,66,166.74
983,A3,160.75,31/125,62,166.74
984,C#3,161.0,31/125,70,166.74
985,A3,161.25,31/125,61,166.74
986,E3,161.5,31/125,65,166.74
987,A3,161.75,31/125,61,166.74
988,D3,162.0,31/125,70,166.74
989,G#4,162.0,2.0,84,166.74
990,G#5,162.0,2.0,84,166.74
991,B3,162.25,31/125,61,166.74
992,F3,162.5,31/125,66,166.74
993,B3,162.75,31/125,62,166.74
994,D3,163.0,31/125,70,166.74
995,B3,163.25,31/125,61,166.74
996,F3,163.5,31/125,63,166.74
997,B3,163.75,31/125,61,166.74
998,E-3,164.0,31/125,70,166.74
999,B4,164.0,2.0,84,166.74
1000,B5,164.0,2.0,84,166.74
1001,B3,164.25,31/125,61,166.74
1002,G#3,164.5,31/125,66,166.74
1003,B3,164.75,31/125,66,166.74
1004,E-3,165.0,31/125,70,166.74
1005,B3,165.25,31/125,62,166.74
1006,G#3,165.5,31/125,66,166.74
1007,B3,165.75,31/125,62,166.74
1008,E-2,166.0,31/125,70,166.74
1009,G3,166.0,2.0,75,166.74
1010,C#4,166.0,2.0,75,166.74
1011,G4,166.0,2.0,75,166.74
1012,E-3,166.25,31/125,62,166.74
1013,D3,166.5,31/125,67,166.74
1014,E-3,166.75,31/125,62,166.74
1015,D3,167.0,31/125,70,166.74
1016,E-3,167.25,31/125,62,166.74
1017,D3,167.5,31/125,67,166.74
1018,E-3,167.75,53/250,61,166.74
1019,G#2,168.0,0.5,71,166.74
1020,E-4,168.0,0.5,84,166.74
1021,G#4,168.0,0.5,84,166.74
1022,B3,168.0,0.5,84,166.74
1023,E-4,168.5,0.25,51,166.74
1024,B4,168.5,0.25,51,166.74
1025,G#3,169.0,0.25,43,166.74
1026,E-4,169.0,0.25,51,166.74
1027,B4,169.0,0.25,51,166.74
1028,G#3,169.5,0.25,43,166.74
1029,E-4,169.5,0.25,51,166.74
1030,B4,169.5,0.25,51,166.74
1031,G#3,170.0,0.25,43,166.74
1032,E-4,170.0,0.25,51,166.74
1033,B4,170.0,0.25,51,166.74
1034,G#3,170.5,0.25,43,166.74
1035,E-4,170.5,0.25,51,166.74
1036,B4,170.5,0.25,51,166.74
1037,B-3,171.0,0.25,42,166.74
1038,B-4,171.0,0.25,49,166.74
1039,E-4,171.0,0.25,49,166.74
1040,B3,171.5,0.25,42,166.74
1041,E-4,171.5,0.25,48,166.74
1042,G#4,171.5,0.25,48,166.74
1043,E-4,172.0,0.5,59,166.74
1044,G4,172.0,0.5,59,166.74
1045,E-3,172.0,0.5,47,166.74
1046,C#4,172.0,0.5,47,166.74
1047,E-5,172.5,0.25,49,166.74
1048,G4,172.5,0.25,49,166.74
1049,E-4,172.5,0.25,42,166.74
1050,C#4,172.5,0.25,42,166.74
1051,G4,173.0,0.25,49,166.74
1052,E-5,173.0,0.25,49,166.74
1053,C#4,173.0,0.25,41,166.74
1054,E-4,173.0,0.25,41,166.74
1055,G4,173.5,0.25,50,166.74
1056,E-5,173.5,0.25,50,166.74
1057,C#4,173.5,0.25,41,166.74
1058,E-4,173.5,0.25,41,166.74
1059,G4,174.0,0.25,51,166.74
1060,E-5,174.0,0.25,51,166.74
1061,E-4,174.0,0.25,41,166.74
1062,C#4,174.0,0.25,41,166.74
1063,E-5,174.5,0.25,51,166.74
1064,G4,174.5,0.25,51,166.74
1065,C#4,174.5,0.25,41,166.74
1066,E-4,174.5,0.25,41,166.74
1067,E-5,175.0,0.25,51,166.74
1068,G#4,175.0,0.25,51,166.74
1069,E-4,175.0,0.25,41,166.74
1070,B3,175.0,0.25,41,166.74
1071,B-4,175.5,0.25,50,166.74
1072,E-5,175.5,0.25,50,166.74
1073,B-3,175.5,0.25,40,166.74
1074,E-4,175.5,0.25,40,166.74
1075,B4,176.0,0.5,58,166.74
1076,E-5,176.0,0.5,58,166.74
1077,G#3,176.0,0.5,47,166.74
1078,G#2,176.0,0.5,47,166.74
1079,G#3,176.5,0.25,42,166.74
1080,B4,176.5,0.25,50,166.74
1081,E-4,176.5,0.25,50,166.74
1082,G#3,177.0,0.25,42,166.74
1083,B4,177.0,0.25,50,166.74
1084,E-4,177.0,0.25,50,166.74
1085,G#3,177.5,0.25,42,166.74
1086,E-4,177.5,0.25,50,166.74
1087,B4,177.5,0.25,50,166.74
1088,G#3,178.0,0.25,43,166.74
1089,B4,178.0,0.25,50,166.74
1090,E-4,178.0,0.25,50,166.74
1091,G#3,178.5,0.25,42,166.74
1092,B4,178.5,0.25,50,166.74
1093,E-4,178.5,0.25,50,166.74
1094,B-3,179.0,0.25,43,166.74
1095,B-4,179.0,0.25,50,166.74
1096,E-4,179.0,0.25,50,166.74
1097,B3,179.5,0.25,43,166.74
1098,E-4,179.5,0.25,48,166.74
1099,G#4,179.5,0.25,48,166.74
1100,E-4,180.0,0.5,58,166.74
1101,G4,180.0,0.5,58,166.74
1102,C#4,180.0,0.5,47,166.74
1103,E-3,180.0,0.5,47,166.74
1104,E-5,180.5,0.25,49,166.74
1105,G4,180.5,0.25,49,166.74
1106,C#4,180.5,0.25,41,166.74
1107,E-4,180.5,0.25,41,166.74
1108,G4,181.0,0.25,49,166.74
1109,E-5,181.0,0.25,49,166.74
1110,C#4,181.0,0.25,43,166.74
1111,E-4,181.0,0.25,43,166.74
1112,G4,181.5,0.25,51,166.74
1113,E-5,181.5,0.25,51,166.74
1114,E-4,181.5,0.25,42,166.74
1115,C#4,181.5,0.25,42,166.74
1116,G4,182.0,0.25,49,166.74
1117,E-5,182.0,0.25,49,166.74
1118,C#4,182.0,0.25,42,166.74
1119,E-4,182.0,0.25,42,166.74
1120,E-5,182.5,0.25,49,166.74
1121,G4,182.5,0.25,49,166.74
1122,E-4,182.5,0.25,42,166.74
1123,C#4,182.5,0.25,42,166.74
1124,G#4,183.0,0.25,50,166.74
1125,E-5,183.0,0.25,50,166.74
1126,B3,183.0,0.25,42,166.74
1127,E-4,183.0,0.25,42,166.74
1128,B-4,183.5,0.25,51,166.74
1129,E-5,183.5,0.25,51,166.74
1130,E-4,183.5,0.25,42,166.74
1131,B-3,183.5,0.25,42,166.74
1132,G#2,184.0,0.25,48,166.74
1133,B4,184.0,0.25,56,166.74
1134,E-5,184.0,0.25,56,166.74
1135,E-5,184.5,0.25,50,166.74
1136,B4,184.5,0.25,50,166.74
1137,B3,184.5,0.25,39,166.74
1138,G#3,184.5,0.25,39,166.74
1139,E-5,185.0,0.5,50,166.74
1140,B4,185.0,0.5,50,166.74
1141,G#3,185.0,0.5,39,166.74
1142,B3,185.0,0.5,39,166.74
1143,G#4,185.5,0.5,47,166.74
1144,B4,185.5,0.5,47,166.74
1145,E-4,185.5,0.5,39,166.74
1146,B3,185.5,0.5,39,166.74
1147,C#3,186.0,0.25,47,166.74
1148,E5,186.5,0.25,50,166.74
1149,C#5,186.5,0.25,50,166.74
1150,C#4,186.5,0.25,43,166.74
1151,G#3,186.5,0.25,43,166.74
1152,C#5,187.0,0.5,50,166.74
1153,E5,187.0,0.5,50,166.74
1154,C#4,187.0,0.5,43,166.74
1155,G#3,187.0,0.5,43,166.74
1156,C#5,187.5,0.5,48,166.74
1157,G#4,187.5,0.5,48,166.74
1158,E4,187.5,0.5,40,166.74
1159,C#4,187.5,0.5,40,166.74
1160,E-3,188.0,0.25,47,166.74
1161,E-5,188.5,0.25,47,166.74
1162,B4,188.5,0.25,47,166.74
1163,G#3,188.5,0.25,41,166.74
1164,B3,188.5,0.25,41,166.74
1165,B4,189.0,0.5,47,166.74
1166,E-5,189.0,0.5,47,166.74
1167,B3,189.0,0.5,42,166.74
1168,G#3,189.0,0.5,42,166.74
1169,B4,189.5,0.5,44,166.74
1170,G#4,189.5,0.5,44,166.74
1171,E-4,189.5,0.5,39,166.74
1172,B3,189.5,0.5,39,166.74
1173,E-3,190.0,0.25,47,166.74
1174,B-4,190.5,0.25,49,166.74
1175,E-5,190.5,0.25,49,166.74
1176,B-3,190.5,0.25,39,166.74
1177,G3,190.5,0.25,39,166.74
1178,B-4,191.0,0.5,47,166.74
1179,E-5,191.0,0.5,47,166.74
1180,B-3,191.0,0.5,39,166.74
1181,G3,191.0,0.5,39,166.74
1182,B-4,191.5,0.5,45,166.74
1183,G4,191.5,0.5,45,166.74
1184,B-3,191.5,0.5,39,166.74
1185,E-4,191.5,0.5,39,166.74
1186,B4,192.0,0.5,49,166.74
1187,G#4,192.0,0.5,49,166.74
1188,G#1,192.0,0.5,42,166.74
1189,G#2,192.0,0.5,42,166.74
1190,B4,192.5,0.25,48,166.74
1191,E-5,192.5,0.25,48,166.74
1192,B5,192.5,0.25,48,166.74
1193,E-3,192.5,0.25,41,166.74
1194,G#2,192.5,0.25,41,166.74
1195,E-5,193.0,0.25,53,166.74
1196,B4,193.0,0.25,53,166.74
1197,B5,193.0,0.25,53,166.74
1198,G#2,193.0,0.25,43,166.74
1199,E-3,193.0,0.25,43,166.74
1200,B5,193.5,0.25,55,166.74
1201,E-5,193.5,0.25,55,166.74
1202,B4,193.5,0.25,55,166.74
1203,E-3,193.5,0.25,47,166.74
1204,G#2,193.5,0.25,47,166.74
1205,B4,194.0,0.25,59,166.74
1206,E-5,194.0,0.25,59,166.74
1207,B5,194.0,0.25,59,166.74
1208,G#2,194.0,0.25,50,166.74
1209,E-3,194.0,0.25,50,166.74
1210,B4,194.5,0.25,63,166.74
1211,E-5,194.5,0.25,63,166.74
1212,B5,194.5,0.25,63,166.74
1213,E-3,194.5,0.25,52,166.74
1214,G#2,194.5,0.25,52,166.74
1215,B-5,195.0,0.25,64,166.74
1216,B-4,195.0,0.25,64,166.74
1217,C#5,195.0,0.25,64,166.74
1218,E-3,195.0,0.25,57,166.74
1219,B-2,195.0,0.25,57,166.74
1220,G#4,195.5,0.25,68,166.74
1221,B4,195.5,0.25,68,166.74
1222,G#5,195.5,0.25,68,166.74
1223,E-3,195.5,0.25,59,166.74
1224,B2,195.5,0.25,59,166.74
1225,G4,196.0,0.5,71,166.74
1226,B-4,196.0,0.5,71,166.74
1227,G5,196.0,0.5,71,166.74
1228,E-3,196.0,0.5,59,166.74
1229,C#3,196.0,0.5,59,166.74
1230,E-2,196.0,0.5,59,166.74
1231,G5,196.5,0.25,72,166.74
1232,E5,196.5,0.25,72,166.74
1233,E6,196.5,0.25,72,166.74
1234,E-3,196.5,0.25,62,166.74
1235,C#4,196.5,0.25,62,166.74
1236,G5,197.0,0.25,78,166.74
1237,E6,197.0,0.25,78,166.74
1238,E5,197.0,0.25,78,166.74
1239,E-3,197.0,0.25,67,166.74
1240,C#4,197.0,0.25,67,166.74
1241,E5,197.5,0.25,75,166.74
1242,E6,197.5,0.25,75,166.74
1243,G5,197.5,0.25,75,166.74
1244,C#4,197.5,0.25,63,166.74
1245,E-3,197.5,0.25,63,166.74
1246,E6,198.0,0.25,78,166.74
1247,G5,198.0,0.25,78,166.74
1248,E5,198.0,0.25,78,166.74
1249,E-3,198.0,0.25,66,166.74
1250,C#4,198.0,0.25,66,166.74
1251,E6,198.5,0.25,74,166.74
1252,G5,198.5,0.25,74,166.74
1253,E5,198.5,0.25,74,166.74
1254,C#4,198.5,0.25,62,166.74
1255,E-3,198.5,0.25,62,166.74
1256,G5,199.0,0.25,76,166.74
1257,E-5,199.0,0.25,76,166.74
1258,E-6,199.0,0.25,76,166.74
1259,B3,199.0,0.25,67,166.74
1260,E-3,199.0,0.25,67,166.74
1261,G5,199.5,0.25,74,166.74
1262,C#5,199.5,0.25,74,166.74
1263,C#6,199.5,0.25,74,166.74
1264,B-3,199.5,0.25,63,166.74
1265,E-3,199.5,0.25,63,166.74
1266,B4,200.0,0.5,78,166.74
1267,G#5,200.0,0.5,78,166.74
1268,B5,200.0,0.5,78,166.74
1269,G#1,200.0,0.5,69,166.74
1270,G#2,200.0,0.5,69,166.74
1271,B4,200.5,0.25,46,166.74
1272,E-5,200.5,0.25,46,166.74
1273,B5,200.5,0.25,46,166.74
1274,E-3,200.5,0.25,41,166.74
1275,G#2,200.5,0.25,41,166.74
1276,E-5,201.0,0.25,49,166.74
1277,B5,201.0,0.25,49,166.74
1278,B4,201.0,0.25,49,166.74
1279,E-3,201.0,0.25,44,166.74
1280,G#2,201.0,0.25,44,166.74
1281,B4,201.5,0.25,54,166.74
1282,E-5,201.5,0.25,54,166.74
1283,B5,201.5,0.25,54,166.74
1284,G#2,201.5,0.25,48,166.74
1285,E-3,201.5,0.25,48,166.74
1286,E-5,202.0,0.25,58,166.74
1287,B5,202.0,0.25,58,166.74
1288,B4,202.0,0.25,58,166.74
1289,E-3,202.0,0.25,51,166.74
1290,G#2,202.0,0.25,51,166.74
1291,B5,202.5,0.25,63,166.74
1292,B4,202.5,0.25,63,166.74
1293,E-5,202.5,0.25,63,166.74
1294,E-3,202.5,0.25,56,166.74
1295,G#2,202.5,0.25,56,166.74
1296,B-4,203.0,0.25,65,166.74
1297,B-5,203.0,0.25,65,166.74
1298,C#5,203.0,0.25,65,166.74
1299,B-2,203.0,0.25,58,166.74
1300,E-3,203.0,0.25,58,166.74
1301,G#4,203.5,0.25,69,166.74
1302,B4,203.5,0.25,69,166.74
1303,G#5,203.5,0.25,69,166.74
1304,E-3,203.5,0.25,62,166.74
1305,B2,203.5,0.25,62,166.74
1306,G4,204.0,0.5,74,166.74
1307,B-4,204.0,0.5,74,166.74
1308,G5,204.0,0.5,74,166.74
1309,E-2,204.0,0.5,66,166.74
1310,C#3,204.0,0.5,66,166.74
1311,E-3,204.0,0.5,66,166.74
1312,G5,204.5,0.25,75,166.74
1313,E6,204.5,0.25,75,166.74
1314,E5,204.5,0.25,75,166.74
1315,E-3,204.5,0.25,63,166.74
1316,C#4,204.5,0.25,63,166.74
1317,G5,205.0,0.25,77,166.74
1318,E5,205.0,0.25,77,166.74
1319,E6,205.0,0.25,77,166.74
1320,E-3,205.0,0.25,67,166.74
1321,C#4,205.0,0.25,67,166.74
1322,E5,205.5,0.25,74,166.74
1323,E6,205.5,0.25,74,166.74
1324,G5,205.5,0.25,74,166.74
1325,C#4,205.5,0.25,62,166.74
1326,E-3,205.5,0.25,62,166.74
1327,G5,206.0,0.25,78,166.74
1328,E5,206.0,0.25,78,166.74
1329,E6,206.0,0.25,78,166.74
1330,E-3,206.0,0.25,67,166.74
1331,C#4,206.0,0.25,67,166.74
1332,E5,206.5,0.25,74,166.74
1333,E6,206.5,0.25,74,166.74
1334,G5,206.5,0.25,74,166.74
1335,C#4,206.5,0.25,63,166.74
1336,E-3,206.5,0.25,63,166.74
1337,E-6,207.0,0.25,75,166.74
1338,G5,207.0,0.25,75,166.74
1339,E-5,207.0,0.25,75,166.74
1340,B3,207.0,0.25,67,166.74
1341,E-3,207.0,0.25,67,166.74
1342,C#6,207.5,0.25,75,166.74
1343,C#5,207.5,0.25,75,166.74
1344,G5,207.5,0.25,75,166.74
1345,B-3,207.5,0.25,67,166.74
1346,E-3,207.5,0.25,67,166.74
1347,G#5,208.0,0.5,78,166.74
1348,B5,208.0,0.5,78,166.74
1349,B4,208.0,0.5,78,166.74
1350,G#2,208.0,0.5,69,166.74
1351,G#3,208.0,0.5,69,166.74
1352,B5,208.5,0.25,50,166.74
1353,G#5,208.5,0.25,50,166.74
1354,B3,208.5,0.25,43,166.74
1355,E-4,208.5,0.25,43,166.74
1356,B5,209.0,0.5,50,166.74
1357,G#5,209.0,0.5,50,166.74
1358,B3,209.0,0.5,41,166.74
1359,E-4,209.0,0.5,41,166.74
1360,E-6,209.5,0.5,48,166.74
1361,B5,209.5,0.5,48,166.74
1362,G#3,209.5,0.5,39,166.74
1363,B3,209.5,0.5,39,166.74
1364,C#3,210.0,0.25,48,166.74
1365,C#6,210.5,0.25,49,166.74
1366,G#5,210.5,0.25,49,166.74
1367,E4,210.5,0.25,42,166.74
1368,C#4,210.5,0.25,42,166.74
1369,C#6,211.0,0.5,49,166.74
1370,G#5,211.0,0.5,49,166.74
1371,E4,211.0,0.5,42,166.74
1372,C#4,211.0,0.5,42,166.74
1373,E6,211.5,0.5,48,166.74
1374,C#6,211.5,0.5,48,166.74
1375,C#4,211.5,0.5,39,166.74
1376,G#3,211.5,0.5,39,166.74
1377,E-3,212.0,0.25,48,166.74
1378,G#5,212.5,0.25,49,166.74
1379,B5,212.5,0.25,49,166.74
1380,B3,212.5,0.25,42,166.74
1381,E-4,212.5,0.25,42,166.74
1382,B5,213.0,0.5,49,166.74
1383,G#5,213.0,0.5,49,166.74
1384,B3,213.0,0.5,42,166.74
1385,E-4,213.0,0.5,42,166.74
1386,E-6,213.5,0.5,48,166.74
1387,B5,213.5,0.5,48,166.74
1388,G#3,213.5,0.5,39,166.74
1389,B3,213.5,0.5,39,166.74
1390,C#3,214.0,0.25,49,166.74
1391,B-5,214.5,0.25,51,166.74
1392,G5,214.5,0.25,51,166.74
1393,E-4,214.5,0.25,42,166.74
1394,B-3,214.5,0.25,42,166.74
1395,B-5,215.0,0.5,51,166.74
1396,G5,215.0,0.5,51,166.74
1397,E-4,215.0,0.5,42,166.74
1398,B-3,215.0,0.5,42,166.74
1399,E-6,215.5,0.5,48,166.74
1400,B-5,215.5,0.5,48,166.74
1401,B-3,215.5,0.5,40,166.74
1402,G3,215.5,0.5,40,166.74
1403,B2,216.0,0.5,45,166.74
1404,E-5,216.5,0.25,56,166.74
1405,B5,216.5,0.25,56,166.74
1406,G#4,216.5,0.25,39,166.74
1407,E-4,216.5,0.25,39,166.74
1408,B5,217.0,0.5,51,166.74
1409,E-5,217.0,0.5,51,166.74
1410,E-4,217.0,0.5,41,166.74
1411,G#4,217.0,0.5,41,166.74
1412,G#5,217.5,0.5,51,166.74
1413,E-6,217.5,0.5,51,166.74
1414,E-4,217.5,0.5,41,166.74
1415,B3,217.5,0.5,41,166.74
1416,C#3,218.0,0.5,50,166.74
1417,A5,218.5,0.25,62,166.74
1418,C#5,218.5,0.25,62,166.74
1419,E4,218.5,0.25,47,166.74
1420,A4,218.5,0.25,47,166.74
1421,A5,219.0,0.5,56,166.74
1422,C#5,219.0,0.5,56,166.74
1423,A4,219.0,0.5,45,166.74
1424,E4,219.0,0.5,45,166.74
1425,E5,219.5,0.5,56,166.74
1426,C#6,219.5,0.5,56,166.74
1427,E4,219.5,0.5,45,166.74
1428,C#4,219.5,0.5,45,166.74
1429,E-3,220.0,0.5,52,166.74
1430,G#5,220.5,0.25,57,166.74
1431,B4,220.5,0.25,57,166.74
1432,G#4,220.5,0.25,48,166.74
1433,E-4,220.5,0.25,48,166.74
1434,G#5,221.0,0.5,57,166.74
1435,B4,221.0,0.5,57,166.74
1436,E-4,221.0,0.5,48,166.74
1437,G#4,221.0,0.5,48,166.74
1438,E-5,221.5,0.5,51,166.74
1439,B5,221.5,0.5,51,166.74
1440,E-4,221.5,0.5,45,166.74
1441,B3,221.5,0.5,45,166.74
1442,E-3,222.0,0.5,51,166.74
1443,G5,222.5,0.25,52,166.74
1444,B-4,222.5,0.25,52,166.74
1445,G4,222.5,0.25,43,166.74
1446,C#4,222.5,0.25,43,166.74
1447,B-4,223.0,0.5,51,166.74
1448,G5,223.0,0.5,51,166.74
1449,C#4,223.0,0.5,43,166.74
1450,G4,223.0,0.5,43,166.74
1451,C#5,223.5,0.5,42,166.74
1452,B-5,223.5,0.5,42,166.74
1453,C#4,223.5,0.5,35,166.74
1454,B-3,223.5,0.5,35,166.74
1455,G#2,224.0,31/125,41,166.74
1456,G#5,224.0,1.0,50,166.74
1457,B4,224.0,1.0,50,166.74
1458,G#3,224.25,31/125,33,166.74
1459,E-3,224.5,31/125,36,166.74
1460,G#3,224.75,31/125,32,166.74
1461,G#2,225.0,31/125,41,166.74
1462,G#3,225.25,31/125,33,166.74
1463,E-3,225.5,31/125,36,166.74
1464,G#3,225.75,31/125,33,166.74
1465,G#2,226.0,31/125,41,166.74
1466,G#3,226.25,31/125,33,166.74
1467,E-3,226.5,31/125,37,166.74
1468,G#3,226.75,31/125,33,166.74
1469,B4,227.0,0.75,50,166.74
1470,G#2,227.0,31/125,41,166.74
1471,G#3,227.25,31/125,33,166.74
1472,E-3,227.5,31/125,37,166.74
1473,G#4,227.75,0.25,50,166.74
1474,G#3,227.75,31/125,33,166.74
1475,G4,228.0,1.0,57,166.74
1476,G#2,228.0,31/125,41,166.74
1477,B-3,228.25,31/125,33,166.74
1478,E-3,228.5,31/125,38,166.74
1479,B-3,228.75,31/125,33,166.74
1480,G#2,229.0,31/125,41,166.74
1481,E-5,229.0,0.75,44,166.74
1482,C#4,229.0,0.75,44,166.74
1483,G4,229.0,0.75,44,166.74
1484,B-3,229.25,31/125,33,166.74
1485,E-3,229.5,31/125,37,166.74
1486,B-3,229.75,31/125,33,166.74
1487,G#2,230.0,31/125,41,166.74
1488,G4,230.0,0.75,44,166.74
1489,E-5,230.0,0.75,44,166.74
1490,C#4,230.0,0.75,44,166.74
1491,B-3,230.25,31/125,34,166.74
1492,E-3,230.5,31/125,38,166.74
1493,B-3,230.75,31/125,34,166.74
1494,G#2,231.0,31/125,41,166.74
1495,G4,231.0,0.75,47,166.74
1496,E-5,231.0,0.75,47,166.74
1497,C#4,231.0,0.75,47,166.74
1498,B-3,231.25,31/125,34,166.74
1499,E-3,231.5,31/125,36,166.74
1500,B3,231.75,167/1000,50,166.74
1501,B-3,231.75,31/125,33,166.74
1502,G#4,231.875,0.125,50,166.74
1503,E-5,232.0,3.0,57,166.74
1504,G#4,232.0,21/500,50,166.74
1505,G#2,232.0,31/125,41,166.74
1506,G#3,232.25,31/125,33,166.74
1507,E-3,232.5,31/125,37,166.74
1508,G#3,232.75,31/125,33,166.74
1509,G#2,233.0,31/125,41,166.74
1510,G#3,233.25,31/125,34,166.74
1511,E-3,233.5,31/125,38,166.74
1512,G#3,233.75,31/125,34,166.74
1513,G#2,234.0,31/125,41,166.74
1514,G#3,234.25,31/125,34,166.74
1515,E-3,234.5,31/125,38,166.74
1516,G#3,234.75,31/125,34,166.74
1517,B5,235.0,0.75,58,166.74
1518,G#2,235.0,31/125,41,166.74
1519,G#3,235.25,31/125,33,166.74
1520,E-3,235.5,31/125,36,166.74
1521,G#5,235.75,0.25,58,166.74
1522,G#3,235.75,31/125,33,166.74
1523,G5,236.0,1.0,67,166.74
1524,G#2,236.0,31/125,41,166.74
1525,B-3,236.25,31/125,36,166.74
1526,E-3,236.5,31/125,36,166.74
1527,B-3,236.75,31/125,34,166.74
1528,G#2,237.0,31/125,41,166.74
1529,E-6,237.0,0.75,54,166.74
1530,C#5,237.0,0.75,54,166.74
1531,G5,237.0,0.75,54,166.74
1532,B-3,237.25,31/125,34,166.74
1533,E-3,237.5,31/125,36,166.74
1534,B-3,237.75,31/125,33,166.74
1535,G#2,238.0,31/125,41,166.74
1536,C#5,238.0,0.75,54,166.74
1537,E-6,238.0,0.75,54,166.74
1538,G5,238.0,0.75,54,166.74
1539,B-3,238.25,31/125,34,166.74
1540,E-3,238.5,31/125,36,166.74
1541,B-3,238.75,31/125,33,166.74
1542,G#2,239.0,31/125,41,166.74
1543,G5,239.0,0.75,54,166.74
1544,C#5,239.0,0.75,54,166.74
1545,E-6,239.0,0.75,54,166.74
1546,B-3,239.25,31/125,34,166.74
1547,E-3,239.5,31/125,39,166.74
1548,B4,239.75,167/1000,47,166.74
1549,B-3,239.75,31/125,34,166.74
1550,G#5,239.875,0.125,53,166.74
1551,E-6,240.0,1.75,73,166.74
1552,G#5,240.0,21/500,53,166.74
1553,G#2,240.0,31/125,41,166.74
1554,G#3,240.25,31/125,33,166.74
1555,E-3,240.5,31/125,36,166.74
1556,G#3,240.75,31/125,33,166.74
1557,G#2,241.0,31/125,42,166.74
1558,G#3,241.25,31/125,33,166.74
1559,E-3,241.5,31/125,35,166.74
1560,C#5,241.75,167/1000,43,166.74
1561,G#3,241.75,31/125,33,166.74
1562,G5,241.875,167/1000,53,166.74
1563,E-6,242.0,1.75,72,166.74
1564,G#2,242.0,31/125,41,166.74
1565,B-3,242.25,31/125,34,166.74
1566,E-3,242.5,31/125,37,166.74
1567,B-3,242.75,31/125,37,166.74
1568,G#2,243.0,31/125,41,166.74
1569,B-3,243.25,31/125,34,166.74
1570,E-3,243.5,31/125,38,166.74
1571,B4,243.75,167/1000,40,166.74
1572,B-3,243.75,31/125,34,166.74
1573,G#5,243.875,0.125,53,166.74
1574,E-6,244.0,1.75,72,166.74
1575,G#5,244.0,21/500,53,166.74
1576,G#2,244.0,31/125,41,166.74
1577,G#3,244.25,31/125,33,166.74
1578,E-3,244.5,31/125,36,166.74
1579,G#3,244.75,31/125,33,166.74
1580,G#2,245.0,31/125,41,166.74
1581,G#3,245.25,31/125,33,166.74
1582,E-3,245.5,31/125,36,166.74
1583,C#5,245.75,167/1000,45,166.74
1584,G#3,245.75,31/125,33,166.74
1585,G5,245.875,167/1000,52,166.74
1586,E-6,246.0,2.0,71,166.74
1587,G#2,246.0,31/125,41,166.74
1588,B-3,246.25,31/125,34,166.74
1589,E-3,246.5,31/125,37,166.74
1590,B-3,246.75,31/125,33,166.74
1591,G#2,247.0,31/125,41,166.74
1592,B-3,247.25,31/125,34,166.74
1593,E-3,247.5,31/125,37,166.74
1594,B-3,247.75,31/125,34,166.74
1595,B3,248.0,31/125,49,166.74
1596,G#2,248.0,31/125,42,166.74
1597,G#4,248.25,31/125,50,166.74
1598,G#3,248.25,31/125,41,166.74
1599,E-4,248.5,31/125,51,166.74
1600,E-3,248.5,31/125,42,166.74
1601,G#4,248.75,31/125,48,166.74
1602,G#3,248.75,31/125,40,166.74
1603,B3,249.0,31/125,52,166.74
1604,G#2,249.0,31/125,43,166.74
1605,G#4,249.25,31/125,53,166.74
1606,G#3,249.25,31/125,44,166.74
1607,E-4,249.5,31/125,54,166.74
1608,E-3,249.5,31/125,45,166.74
1609,G#4,249.75,31/125,51,166.74
1610,G#3,249.75,31/125,43,166.74
1611,B3,250.0,31/125,57,166.74
1612,G#2,250.0,31/125,47,166.74
1613,G#4,250.25,31/125,57,166.74
1614,G#3,250.25,31/125,48,166.74
1615,E-4,250.5,31/125,58,166.74
1616,E-3,250.5,31/125,48,166.74
1617,G#4,250.75,31/125,52,166.74
1618,G#3,250.75,31/125,49,166.74
1619,B3,251.0,31/125,61,166.74
1620,G#2,251.0,31/125,51,166.74
1621,G#4,251.25,31/125,62,166.74
1622,G#3,251.25,31/125,51,166.74
1623,E-4,251.5,31/125,62,166.74
1624,E-3,251.5,31/125,52,166.74
1625,G#4,251.75,31/125,57,166.74
1626,G#3,251.75,31/125,47,166.74
1627,C4,252.0,31/125,66,166.74
1628,G#2,252.0,31/125,53,166.74
1629,F#4,252.25,31/125,67,166.74
1630,F#3,252.25,31/125,56,166.74
1631,E-4,252.5,31/125,68,166.74
1632,E-3,252.5,31/125,56,166.74
1633,F#4,252.75,31/125,62,166.74
1634,F#3,252.75,31/125,51,166.74
1635,C4,253.0,31/125,69,166.74
1636,G#2,253.0,31/125,57,166.74
1637,F#4,253.25,31/125,70,166.74
1638,F#3,253.25,31/125,58,166.74
1639,E-4,253.5,31/125,71,166.74
1640,E-3,253.5,31/125,60,166.74
1641,F#4,253.75,31/125,68,166.74
1642,F#3,253.75,31/125,56,166.74
1643,C4,254.0,31/125,73,166.74
1644,G#2,254.0,31/125,62,166.74
1645,F#4,254.25,31/125,74,166.74
1646,F#3,254.25,31/125,62,166.74
1647,E-4,254.5,31/125,75,166.74
1648,E-3,254.5,31/125,63,166.74
1649,F#4,254.75,31/125,76,166.74
1650,F#3,254.75,31/125,57,166.74
1651,C4,255.0,31/125,78,166.74
1652,G#2,255.0,31/125,65,166.74
1653,F#4,255.25,31/125,79,166.74
1654,F#3,255.25,31/125,67,166.74
1655,E-4,255.5,31/125,79,166.74
1656,E-3,255.5,31/125,67,166.74
1657,F#4,255.75,31/125,73,166.74
1658,F#3,255.75,31/125,62,166.74
1659,C#2,256.0,0.25,69,166.74
1660,E3,256.0,0.25,76,166.74
1661,G#3,256.0,0.25,76,166.74
1662,C#4,256.0,0.25,76,166.74
1663,E4,256.0,0.25,76,166.74
1664,G#2,256.25,6/25,54,166.74
1665,C#3,256.5,73/250,56,166.74
1666,G#2,256.5,0.25,39,166.74
1667,E3,256.75,73/250,57,166.74
1668,G#3,257.0,73/250,59,166.74
1669,C#2,257.0,0.25,43,166.74
1670,C#3,257.25,73/250,54,166.74
1671,E3,257.5,73/250,56,166.74
1672,G#2,257.5,0.25,40,166.74
1673,G#3,257.75,73/250,56,166.74
1674,C#4,258.0,73/250,57,166.74
1675,C#2,258.0,0.25,42,166.74
1676,E3,258.25,73/250,51,166.74
1677,G#3,258.5,73/250,53,166.74
1678,G#2,258.5,0.25,39,166.74
1679,C#4,258.75,73/250,54,166.74
1680,E4,259.0,73/250,56,166.74
1681,C#2,259.0,0.25,39,166.74
1682,G#3,259.25,73/250,52,166.74
1683,C#4,259.5,73/250,53,166.74
1684,G#2,259.5,0.25,39,166.74
1685,E4,259.75,0.25,56,166.74
1686,G#4,260.0,73/250,57,166.74
1687,E4,260.0,21/500,56,166.74
1688,C#2,260.0,0.25,43,166.74
1689,C#4,260.25,73/250,52,166.74
1690,E4,260.5,73/250,53,166.74
1691,G#2,260.5,0.25,40,166.74
1692,G#4,260.75,73/250,56,166.74
1693,C#5,261.0,73/250,57,166.74
1694,C#2,261.0,0.25,43,166.74
1695,E4,261.25,73/250,52,166.74
1696,G#4,261.5,73/250,53,166.74
1697,G#2,261.5,0.25,40,166.74
1698,C#5,261.75,73/250,56,166.74
1699,E5,262.0,73/250,56,166.74
1700,C#2,262.0,0.25,41,166.74
1701,G#4,262.25,73/250,52,166.74
1702,C#5,262.5,73/250,56,166.74
1703,G#2,262.5,0.25,38,166.74
1704,E5,262.75,0.25,57,166.74
1705,E5,263.0,0.25,86,166.74
1706,G#5,263.0,0.25,86,166.74
1707,C#5,263.0,0.25,86,166.74
1708,G#4,263.0,0.25,86,166.74
1709,C#3,263.0,0.25,70,166.74
1710,C#2,263.0,0.25,70,166.74
1711,G#2,263.5,0.25,67,166.74
1712,G#4,263.5,0.25,73,166.74
1713,G#5,263.5,0.25,73,166.74
1714,C#5,263.5,0.25,73,166.74
1715,E5,263.5,0.25,73,166.74
1716,C2,264.0,0.25,41,166.74
1717,G#2,264.25,6/25,48,166.74
1718,C3,264.5,73/250,50,166.74
1719,G#2,264.5,0.25,39,166.74
1720,E-3,264.75,73/250,51,166.74
1721,G#3,265.0,73/250,52,166.74
1722,C2,265.0,0.25,41,166.74
1723,C3,265.25,73/250,48,166.74
1724,E-3,265.5,73/250,49,166.74
1725,G#2,265.5,0.25,38,166.74
1726,G#3,265.75,73/250,51,166.74
1727,C4,266.0,73/250,53,166.74
1728,C2,266.0,0.25,40,166.74
1729,E-3,266.25,73/250,47,166.74
1730,G#3,266.5,73/250,49,166.74
1731,G#2,266.5,0.25,37,166.74
1732,C4,266.75,73/250,51,166.74
1733,E-4,267.0,73/250,51,166.74
1734,C2,267.0,0.25,40,166.74
1735,G#3,267.25,73/250,48,166.74
1736,C4,267.5,73/250,51,166.74
1737,G#2,267.5,0.25,38,166.74
1738,E-4,267.75,0.25,52,166.74
1739,G#4,268.0,73/250,53,166.74
1740,E-4,268.0,21/500,52,166.74
1741,C2,268.0,0.25,40,166.74
1742,C4,268.25,73/250,48,166.74
1743,E-4,268.5,73/250,49,166.74
1744,G#2,268.5,0.25,38,166.74
1745,G#4,268.75,73/250,51,166.74
1746,C5,269.0,73/250,51,166.74
1747,C2,269.0,0.25,40,166.74
1748,E-4,269.25,73/250,48,166.74
1749,G#4,269.5,73/250,50,166.74
1750,G#2,269.5,0.25,37,166.74
1751,C5,269.75,73/250,51,166.74
1752,E-5,270.0,73/250,52,166.74
1753,C2,270.0,0.25,40,166.74
1754,G#4,270.25,73/250,51,166.74
1755,C5,270.5,73/250,52,166.74
1756,G#2,270.5,0.25,37,166.74
1757,E-5,270.75,0.25,56,166.74
1758,G#4,271.0,0.25,86,166.74
1759,C5,271.0,0.25,86,166.74
1760,E-5,271.0,0.25,86,166.74
1761,G#5,271.0,0.25,86,166.74
1762,C3,271.0,0.25,70,166.74
1763,C2,271.0,0.25,70,166.74
1764,G#2,271.5,0.25,58,166.74
1765,G#4,271.5,0.25,72,166.74
1766,C5,271.5,0.25,72,166.74
1767,E-5,271.5,0.25,72,166.74
1768,G#5,271.5,0.25,72,166.74
1769,B1,272.0,0.25,55,166.74
1770,C#3,272.25,73/250,63,166.74
1771,F3,272.5,73/250,66,166.74
1772,G#2,272.5,0.25,51,166.74
1773,G#3,272.75,73/250,63,166.74
1774,C#4,273.0,73/250,68,166.74
1775,B1,273.0,0.25,56,166.74
1776,F3,273.25,73/250,62,166.74
1777,G#3,273.5,73/250,63,166.74
1778,G#2,273.5,0.25,52,166.74
1779,C#4,273.75,73/250,62,166.74
1780,F4,274.0,73/250,68,166.74
1781,B1,274.0,0.25,56,166.74
1782,G#3,274.25,73/250,62,166.74
1783,C#4,274.5,73/250,63,166.74
1784,G#2,274.5,0.25,52,166.74
1785,F4,274.75,73/250,65,166.74
1786,G#4,275.0,73/250,68,166.74
1787,B1,275.0,0.25,56,166.74
1788,C#4,275.25,73/250,62,166.74
1789,F4,275.5,73/250,65,166.74
1790,G#2,275.5,0.25,52,166.74
1791,G#4,275.75,0.25,62,166.74
1792,C#5,276.0,73/250,68,166.74
1793,G#4,276.0,21/500,62,166.74
1794,B1,276.0,0.25,56,166.74
1795,F4,276.25,73/250,61,166.74
1796,G#4,276.5,73/250,62,166.74
1797,G#2,276.5,0.25,52,166.74
1798,C#5,276.75,73/250,62,166.74
1799,F5,277.0,73/250,68,166.74
1800,B1,277.0,0.25,56,166.74
1801,G#4,277.25,73/250,63,166.74
1802,C#5,277.5,73/250,66,166.74
1803,G#2,277.5,0.25,52,166.74
1804,F5,277.75,73/250,65,166.74
1805,G#5,278.0,73/250,69,166.74
1806,B1,278.0,0.25,56,166.74
1807,C#5,278.25,73/250,63,166.74
1808,F5,278.5,73/250,68,166.74
1809,G#2,278.5,0.25,52,166.74
1810,G#5,278.75,0.25,68,166.74
1811,F5,279.0,0.25,95,166.74
1812,G#5,279.0,0.25,95,166.74
1813,C#5,279.0,0.25,95,166.74
1814,C#6,279.0,0.25,95,166.74
1815,B2,279.0,0.25,74,166.74
1816,B1,279.0,0.25,74,166.74
1817,G#2,279.5,0.25,73,166.74
1818,F5,279.5,0.25,84,166.74
1819,C#5,279.5,0.25,84,166.74
1820,G#5,279.5,0.25,84,166.74
1821,C#6,279.5,0.25,84,166.74
1822,A1,280.0,0.25,50,166.74
1823,C#3,280.25,73/250,61,166.74
1824,F#3,280.5,73/250,63,166.74
1825,A2,280.5,0.25,51,166.74
1826,A3,280.75,73/250,62,166.74
1827,C#4,281.0,0.125,69,166.74
1828,A1,281.0,0.25,57,166.74
1829,C#4,281.25,73/250,72,166.74
1830,F#4,281.5,73/250,76,166.74
1831,A2,281.5,0.25,62,166.74
1832,A4,281.75,73/250,76,166.74
1833,C#5,282.0,0.125,79,166.74
1834,A1,282.0,0.25,67,166.74
1835,C#5,282.25,73/250,83,166.74
1836,F#5,282.5,73/250,84,166.74
1837,A2,282.5,0.25,68,166.74
1838,A5,282.75,73/250,80,166.74
1839,A1,283.0,0.25,86,166.74
1840,F#5,283.0,0.25,97,166.74
1841,C#5,283.0,0.25,97,166.74
1842,C#6,283.0,0.25,97,166.74
1843,A2,283.5,0.25,85,166.74
1844,C#5,283.5,0.25,96,166.74
1845,F#5,283.5,0.25,96,166.74
1846,C#6,283.5,0.25,96,166.74
1847,A1,284.0,0.25,67,166.74
1848,C#3,284.25,73/250,75,166.74
1849,E3,284.5,73/250,77,166.74
1850,A2,284.5,0.25,63,166.74
1851,G3,284.75,73/250,75,166.74
1852,C#4,285.0,0.125,80,166.74
1853,A1,285.0,0.25,67,166.74
1854,C#4,285.25,73/250,76,166.74
1855,E4,285.5,73/250,79,166.74
1856,A2,285.5,0.25,63,166.74
1857,G4,285.75,73/250,77,166.74
1858,C#5,286.0,0.125,81,166.74
1859,A1,286.0,0.25,67,166.74
1860,C#5,286.25,73/250,79,166.74
1861,E5,286.5,73/250,80,166.74
1862,A2,286.5,0.25,63,166.74
1863,G5,286.75,0.25,80,166.74
1864,A1,287.0,0.25,90,166.74
1865,G5,287.0,0.25,102,166.74
1866,C#5,287.0,0.25,102,166.74
1867,C#6,287.0,0.25,102,166.74
1868,A2,287.5,0.25,90,166.74
1869,C#6,287.5,0.25,102,166.74
1870,C#5,287.5,0.25,102,166.74
1871,G5,287.5,0.25,102,166.74
1872,C6,288.0,0.5,102,166.74
1873,G#5,288.0,0.5,102,166.74
1874,C5,288.0,0.5,102,166.74
1875,G#2,288.0,0.5,77,166.74
1876,G#1,288.0,0.5,77,166.74
1877,G#4,288.5,0.25,74,166.74
1878,C4,288.5,0.5,62,166.74
1879,G#3,288.5,3.5,62,166.74
1880,G#5,288.75,0.25,58,166.74
1881,G#4,289.0,0.25,75,166.74
1882,C4,289.0,0.5,62,166.74
1883,G#5,289.25,0.25,60,166.74
1884,B-4,289.5,0.25,76,166.74
1885,C#4,289.5,0.5,62,166.74
1886,G#5,289.75,0.25,60,166.74
1887,C5,290.0,0.25,76,166.74
1888,E-4,290.0,0.5,64,166.74
1889,G#5,290.25,0.25,61,166.74
1890,C#5,290.5,0.25,78,166.74
1891,E4,290.5,0.5,66,166.74
1892,G#5,290.75,0.25,62,166.74
1893,E-5,291.0,0.25,79,166.74
1894,F#4,291.0,0.5,67,166.74
1895,G#5,291.25,0.25,62,166.74
1896,C5,291.5,0.25,79,166.74
1897,E-4,291.5,0.5,68,166.74
1898,G#5,291.75,0.25,62,166.74
1899,E-5,292.0,0.25,80,166.74
1900,F#4,292.0,0.5,69,166.74
1901,G#3,292.0,4.0,62,166.74
1902,G#5,292.25,0.25,62,166.74
1903,C#5,292.5,0.25,80,166.74
1904,E4,292.5,0.5,71,166.74
1905,G#5,292.75,0.25,62,166.74
1906,F#5,293.0,0.25,84,166.74
1907,A4,293.0,0.5,72,166.74
1908,G#5,293.25,0.25,62,166.74
1909,E5,293.5,0.25,80,166.74
1910,G#4,293.5,0.5,71,166.74
1911,G#5,293.75,0.25,62,166.74
1912,E-5,294.0,0.25,80,166.74
1913,F#4,294.0,0.5,69,166.74
1914,G#5,294.25,0.25,62,166.74
1915,C#5,294.5,0.25,79,166.74
1916,E4,294.5,0.5,68,166.74
1917,G#5,294.75,0.25,62,166.74
1918,C5,295.0,0.25,79,166.74
1919,E-4,295.0,0.5,67,166.74
1920,G#5,295.25,0.25,62,166.74
1921,A4,295.5,0.25,77,166.74
1922,C#4,295.5,0.5,66,166.74
1923,G5,295.75,0.25,61,166.74
1924,G#4,296.0,0.25,76,166.74
1925,C4,296.0,0.5,64,166.74
1926,G#3,296.0,4.0,64,166.74
1927,G#5,296.25,0.25,60,166.74
1928,G#4,296.5,0.25,75,166.74
1929,C4,296.5,0.5,63,166.74
1930,G#5,296.75,0.25,59,166.74
1931,G#4,297.0,0.25,74,166.74
1932,C4,297.0,0.5,62,166.74
1933,G#5,297.25,0.25,59,166.74
1934,B-4,297.5,0.25,74,166.74
1935,C#4,297.5,0.5,60,166.74
1936,G#5,297.75,0.25,61,166.74
1937,C5,298.0,0.25,76,166.74
1938,E-4,298.0,0.5,62,166.74
1939,G#5,298.25,0.25,59,166.74
1940,C#5,298.5,0.25,76,166.74
1941,E4,298.5,0.5,62,166.74
1942,G#5,298.75,0.25,62,166.74
1943,E-5,299.0,0.25,77,166.74
1944,F#4,299.0,0.5,65,166.74
1945,G#5,299.25,0.25,61,166.74
1946,C5,299.5,0.25,79,166.74
1947,E-4,299.5,0.5,67,166.74
1948,G#5,299.75,0.25,62,166.74
1949,E-5,300.0,0.25,79,166.74
1950,F#4,300.0,0.5,68,166.74
1951,G#3,300.0,4.0,64,166.74
1952,G#5,300.25,0.25,62,166.74
1953,C#5,300.5,0.25,80,166.74
1954,E4,300.5,0.5,68,166.74
1955,G#5,300.75,0.25,65,166.74
1956,F#5,301.0,0.25,84,166.74
1957,A4,301.0,0.5,68,166.74
1958,G#5,301.25,0.25,68,166.74
1959,E5,301.5,0.25,84,166.74
1960,G#4,301.5,0.5,67,166.74
1961,G#5,301.75,0.25,67,166.74
1962,E-5,302.0,0.25,84,166.74
1963,F#4,302.0,0.5,67,166.74
1964,G#5,302.25,0.25,67,166.74
1965,C#5,302.5,0.25,84,166.74
1966,E4,302.5,0.5,67,166.74
1967,G#5,302.75,0.25,66,166.74
1968,C5,303.0,0.25,84,166.74
1969,E-4,303.0,0.5,67,166.74
1970,G#5,303.25,0.25,67,166.74
1971,A4,303.5,0.25,84,166.74
1972,C#4,303.5,0.5,67,166.74
1973,G5,303.75,0.25,66,166.74
1974,G#4,304.0,0.25,84,166.74
1975,G#3,304.0,0.25,71,166.74
1976,C4,304.0,0.25,71,166.74
1977,G#5,304.25,0.25,66,166.74
1978,A4,304.5,0.25,79,166.74
1979,C#4,304.5,0.25,62,166.74
1980,G#3,304.5,0.25,62,166.74
1981,G5,304.75,0.25,67,166.74
1982,G#4,305.0,0.25,84,166.74
1983,C4,305.0,0.25,67,166.74
1984,G#3,305.0,0.25,67,166.74
1985,G#5,305.25,0.25,66,166.74
1986,A4,305.5,0.25,79,166.74
1987,C#4,305.5,0.25,62,166.74
1988,G#3,305.5,0.25,62,166.74
1989,G5,305.75,0.25,67,166.74
1990,G#4,306.0,0.25,84,166.74
1991,C4,306.0,0.25,71,166.74
1992,G#3,306.0,0.25,71,166.74
1993,G#5,306.25,0.25,66,166.74
1994,A4,306.5,0.25,79,166.74
1995,C#4,306.5,0.25,62,166.74
1996,G#3,306.5,0.25,62,166.74
1997,G5,306.75,0.25,65,166.74
1998,G#4,307.0,0.25,84,166.74
1999,C4,307.0,0.25,67,166.74
2000,G#3,307.0,0.25,67,166.74
2001,G#5,307.25,0.25,66,166.74
2002,A4,307.5,0.25,79,166.74
2003,C#4,307.5,0.25,61,166.74
2004,G#3,307.5,0.25,61,166.74
2005,G5,307.75,0.25,65,166.74
2006,G#4,308.0,0.5,84,166.74
2007,G#5,308.0,0.5,84,166.74
2008,G#3,308.0,0.5,71,166.74
2009,C4,308.0,0.5,71,166.74
2010,G#3,309.0,3.0,113,166.74
2011,G#1,309.0,3.0,96,166.74
2012,G#2,309.0,3.0,96,166.74
2013,C#2,312.0,0.25,43,166.74
2014,G#2,312.25,6/25,47,166.74
2015,C#3,312.5,73/250,49,166.74
2016,G#2,312.5,0.25,39,166.74
2017,E3,312.75,73/250,51,166.74
2018,G#3,313.0,73/250,52,166.74
2019,C#2,313.0,0.25,43,166.74
2020,C#3,313.25,73/250,47,166.74
2021,E3,313.5,73/250,49,166.74
2022,G#2,313.5,0.25,39,166.74
2023,G#3,313.75,73/250,51,166.74
2024,C#4,314.0,73/250,52,166.74
2025,C#2,314.0,0.25,43,166.74
2026,E3,314.25,73/250,47,166.74
2027,G#3,314.5,73/250,49,166.74
2028,G#2,314.5,0.25,39,166.74
2029,C#4,314.75,73/250,51,166.74
2030,E4,315.0,73/250,52,166.74
2031,C#2,315.0,0.25,43,166.74
2032,G#3,315.25,73/250,48,166.74
2033,C#4,315.5,73/250,50,166.74
2034,G#2,315.5,0.25,39,166.74
2035,E4,315.75,0.25,51,166.74
2036,G#4,316.0,73/250,52,166.74
2037,E4,316.0,21/500,51,166.74
2038,C#2,316.0,0.25,43,166.74
2039,C#4,316.25,73/250,47,166.74
2040,E4,316.5,73/250,47,166.74
2041,G#2,316.5,0.25,39,166.74
2042,G#4,316.75,73/250,50,166.74
2043,C#5,317.0,73/250,52,166.74
2044,C#2,317.0,0.25,43,166.74
2045,E4,317.25,73/250,47,166.74
2046,G#4,317.5,73/250,50,166.74
2047,G#2,317.5,0.25,39,166.74
2048,C#5,317.75,73/250,51,166.74
2049,E5,318.0,6/25,54,166.74
2050,C#2,318.0,0.25,43,166.74
2051,E5,318.25,73/250,51,166.74
2052,G#5,318.5,73/250,51,166.74
2053,G#2,318.5,0.25,43,166.74
2054,C#6,318.75,0.25,53,166.74
2055,E5,319.0,0.25,104,166.74
2056,E6,319.0,0.25,104,166.74
2057,C#3,319.0,0.25,82,166.74
2058,C#2,319.0,0.25,82,166.74
2059,G#2,319.5,0.25,74,166.74
2060,E5,319.5,0.25,81,166.74
2061,E6,319.5,0.25,81,166.74
2062,B-1,320.0,0.25,40,166.74
2063,E3,320.25,73/250,46,166.74
2064,G3,320.5,73/250,48,166.74
2065,C#3,320.5,0.25,37,166.74
2066,C#4,320.75,73/250,50,166.74
2067,E4,321.0,73/250,51,166.74
2068,B-2,321.0,0.25,40,166.74
2069,G3,321.25,73/250,47,166.74
2070,C#4,321.5,73/250,49,166.74
2071,C#3,321.5,0.25,40,166.74
2072,E4,321.75,73/250,51,166.74
2073,G4,322.0,73/250,51,166.74
2074,B-2,322.0,0.25,40,166.74
2075,C#4,322.25,73/250,50,166.74
2076,E4,322.5,73/250,49,166.74
2077,C#3,322.5,0.25,37,166.74
2078,G4,322.75,73/250,51,166.74
2079,C#5,323.0,73/250,52,166.74
2080,B-2,323.0,0.25,40,166.74
2081,E4,323.25,73/250,47,166.74
2082,G4,323.5,73/250,49,166.74
2083,C#3,323.5,0.25,40,166.74
2084,C#5,323.75,0.25,51,166.74
2085,E5,324.0,73/250,52,166.74
2086,C#5,324.0,21/500,51,166.74
2087,B-2,324.0,0.25,40,166.74
2088,G4,324.25,73/250,48,166.74
2089,C#5,324.5,73/250,48,166.74
2090,C#3,324.5,0.25,37,166.74
2091,E5,324.75,73/250,50,166.74
2092,G5,325.0,73/250,52,166.74
2093,B-2,325.0,0.25,40,166.74
2094,C#5,325.25,73/250,47,166.74
2095,E5,325.5,73/250,50,166.74
2096,C#3,325.5,0.25,37,166.74
2097,G5,325.75,73/250,51,166.74
2098,C#6,326.0,73/250,54,166.74
2099,B-2,326.0,0.25,40,166.74
2100,E5,326.25,73/250,51,166.74
2101,G5,326.5,73/250,54,166.74
2102,C#3,326.5,0.25,38,166.74
2103,C#6,326.75,0.25,57,166.74
2104,E6,327.0,0.25,102,166.74
2105,E5,327.0,0.25,102,166.74
2106,B-2,327.0,0.25,77,166.74
2107,B-1,327.0,0.25,77,166.74
2108,C#3,327.5,0.25,72,166.74
2109,E5,327.5,0.25,80,166.74
2110,E6,327.5,0.25,80,166.74
2111,G1,328.0,0.25,39,166.74
2112,E-3,328.25,6/25,50,166.74
2113,B-3,328.5,73/250,51,166.74
2114,E-3,328.5,0.25,39,166.74
2115,C#4,328.75,73/250,51,166.74
2116,E-4,329.0,73/250,51,166.74
2117,G2,329.0,0.25,40,166.74
2118,B-3,329.25,73/250,52,166.74
2119,C#4,329.5,73/250,53,166.74
2120,E-3,329.5,0.25,42,166.74
2121,E-4,329.75,73/250,54,166.74
2122,B-4,330.0,73/250,56,166.74
2123,G2,330.0,0.25,43,166.74
2124,C#4,330.25,73/250,56,166.74
2125,E-4,330.5,73/250,57,166.74
2126,E-3,330.5,0.25,43,166.74
2127,B-4,330.75,73/250,57,166.74
2128,C#5,331.0,73/250,58,166.74
2129,G2,331.0,0.25,45,166.74
2130,E-4,331.25,73/250,59,166.74
2131,B-4,331.5,73/250,60,166.74
2132,E-3,331.5,0.25,45,166.74
2133,C#5,331.75,0.25,61,166.74
2134,E-5,332.0,73/250,62,166.74
2135,C#5,332.0,21/500,61,166.74
2136,G2,332.0,0.25,47,166.74
2137,B-4,332.25,73/250,62,166.74
2138,C#5,332.5,73/250,62,166.74
2139,E-3,332.5,0.25,48,166.74
2140,E-5,332.75,73/250,62,166.74
2141,B-5,333.0,73/250,63,166.74
2142,G2,333.0,0.25,49,166.74
2143,C#5,333.25,73/250,65,166.74
2144,E-5,333.5,73/250,66,166.74
2145,E-3,333.5,0.25,51,166.74
2146,B-5,333.75,73/250,67,166.74
2147,C#6,334.0,73/250,67,166.74
2148,G2,334.0,0.25,51,166.74
2149,B-5,334.25,73/250,65,166.74
2150,E-5,334.5,73/250,62,166.74
2151,E-3,334.5,0.25,48,166.74
2152,C#5,334.75,73/250,61,166.74
2153,B-5,335.0,73/250,59,166.74
2154,G2,335.0,0.25,47,166.74
2155,E-5,335.25,73/250,57,166.74
2156,C#5,335.5,73/250,56,166.74
2157,E-3,335.5,0.25,45,166.74
2158,B-4,335.75,0.25,52,166.74
2159,B4,336.0,0.5,49,166.74
2160,B-4,336.0,21/500,52,166.74
2161,G#2,336.0,73/250,33,166.74
2162,E-3,336.25,73/250,25,166.74
2163,B2,336.5,73/250,28,166.74
2164,E-3,336.75,73/250,25,166.74
2165,E-5,337.0,1021/500,61,166.74
2166,G#2,337.0,31/125,35,166.74
2167,E-3,337.25,31/125,27,166.74
2168,B2,337.5,31/125,35,166.74
2169,E-3,337.75,31/125,30,166.74
2170,G#2,338.0,31/125,37,166.74
2171,E-3,338.25,31/125,27,166.74
2172,B2,338.5,31/125,39,166.74
2173,E-3,338.75,31/125,30,166.74
2174,B4,339.0,0.75,56,166.74
2175,G#2,339.0,31/125,39,166.74
2176,E-3,339.25,31/125,31,166.74
2177,B2,339.5,31/125,40,166.74
2178,G#4,339.75,0.125,56,166.74
2179,E-3,339.75,31/125,33,166.74
2180,G4,339.875,21/500,44,166.74
2181,G#4,339.875,21/500,44,166.74
2182,B-4,339.958,21/500,44,166.74
2183,G#4,340.0,521/500,63,166.74
2184,B-2,340.0,73/250,33,166.74
2185,E-3,340.25,73/250,26,166.74
2186,C#3,340.5,73/250,29,166.74
2187,E-3,340.75,73/250,26,166.74
2188,G4,341.0,1.5,56,166.74
2189,B-2,341.0,31/125,42,166.74
2190,E-3,341.25,31/125,32,166.74
2191,C#3,341.5,31/125,40,166.74
2192,E-3,341.75,31/125,40,166.74
2193,B-2,342.0,31/125,49,166.74
2194,E-3,342.25,31/125,40,166.74
2195,G4,342.5,271/500,56,166.74
2196,C#3,342.5,31/125,46,166.74
2197,E-3,342.75,31/125,41,166.74
2198,E-5,343.0,0.75,68,166.74
2199,B-2,343.0,31/125,56,166.74
2200,E-3,343.25,31/125,41,166.74
2201,C#3,343.5,31/125,43,166.74
2202,G4,343.75,0.25,57,166.74
2203,E-3,343.75,31/125,36,166.74
2204,B-4,344.0,521/500,51,166.74
2205,B2,344.0,31/125,33,166.74
2206,E-3,344.25,31/125,29,166.74
2207,B2,344.5,31/125,30,166.74
2208,E-3,344.75,31/125,26,166.74
2209,G#4,345.0,1.5,56,166.74
2210,B2,345.0,31/125,41,166.74
2211,E-3,345.25,31/125,32,166.74
2212,B2,345.5,31/125,39,166.74
2213,E-3,345.75,31/125,36,166.74
2214,B2,346.0,31/125,49,166.74
2215,E-3,346.25,31/125,38,166.74
2216,G#4,346.5,271/500,53,166.74
2217,B2,346.5,31/125,48,166.74
2218,E-3,346.75,31/125,42,166.74
2219,E-5,347.0,0.75,68,166.74
2220,B2,347.0,31/125,54,166.74
2221,E-3,347.25,31/125,41,166.74
2222,B2,347.5,31/125,43,166.74
2223,G#4,347.75,0.25,56,166.74
2224,E-3,347.75,31/125,35,166.74
2225,B4,348.0,521/500,57,166.74
2226,G2,348.0,31/125,32,166.74
2227,E-3,348.25,31/125,29,166.74
2228,G2,348.5,31/125,29,166.74
2229,E-3,348.75,31/125,26,166.74
2230,B-4,349.0,1.5,56,166.74
2231,G2,349.0,31/125,41,166.74
2232,E-3,349.25,31/125,40,166.74
2233,G2,349.5,31/125,42,166.74
2234,E-3,349.75,31/125,40,166.74
2235,G2,350.0,31/125,48,166.74
2236,E-3,350.25,31/125,43,166.74
2237,B-4,350.5,271/500,57,166.74
2238,G2,350.5,31/125,49,166.74
2239,E-3,350.75,31/125,42,166.74
2240,E-5,351.0,0.75,53,166.74
2241,G2,351.0,31/125,54,166.74
2242,E-3,351.25,31/125,38,166.74
2243,G2,351.5,31/125,42,166.74
2244,B-4,351.75,0.25,57,166.74
2245,E-3,351.75,31/125,35,166.74
2246,B4,352.0,0.5,59,166.74
2247,G#2,352.0,73/250,39,166.74
2248,E-3,352.25,73/250,33,166.74
2249,B2,352.5,31/125,35,166.74
2250,E-6,352.5,1.0,54,166.74
2251,E-5,352.5,1.0,54,166.74
2252,E-3,352.75,31/125,31,166.74
2253,G#2,353.0,31/125,40,166.74
2254,E-3,353.25,31/125,31,166.74
2255,B2,353.5,31/125,34,166.74
2256,E-5,353.5,1.0,54,166.74
2257,E-6,353.5,1.0,54,166.74
2258,E-3,353.75,31/125,31,166.74
2259,G#2,354.0,31/125,41,166.74
2260,E-3,354.25,31/125,32,166.74
2261,B2,354.5,31/125,35,166.74
2262,E-5,354.5,0.25,52,166.74
2263,E-6,354.5,0.25,52,166.74
2264,E-3,354.75,31/125,32,166.74
2265,G#2,355.0,73/250,43,166.74
2266,B4,355.0,0.25,54,166.74
2267,B5,355.0,0.25,54,166.74
2268,E-3,355.25,73/250,33,166.74
2269,B2,355.5,73/250,37,166.74
2270,G#5,355.5,0.25,54,166.74
2271,G#4,355.5,0.25,54,166.74
2272,E-3,355.75,0.25,33,166.74
2273,B-2,356.0,73/250,46,166.74
2274,E-3,356.0,21/500,33,166.74
2275,G#4,356.0,0.25,56,166.74
2276,G#5,356.0,0.25,56,166.74
2277,E-3,356.25,73/250,34,166.74
2278,C#3,356.5,31/125,39,166.74
2279,G4,356.5,1.0,57,166.74
2280,G5,356.5,1.0,57,166.74
2281,E-3,356.75,31/125,34,166.74
2282,B-2,357.0,31/125,47,166.74
2283,E-3,357.25,31/125,35,166.74
2284,C#3,357.5,31/125,40,166.74
2285,G5,357.5,1.0,62,166.74
2286,G4,357.5,1.0,62,166.74
2287,E-3,357.75,31/125,40,166.74
2288,B-2,358.0,31/125,49,166.74
2289,E-3,358.25,31/125,35,166.74
2290,C#3,358.5,31/125,41,166.74
2291,G5,358.5,0.25,64,166.74
2292,G4,358.5,0.25,64,166.74
2293,E-3,358.75,31/125,35,166.74
2294,B-2,359.0,73/250,50,166.74
2295,E-5,359.0,0.25,66,166.74
2296,E-6,359.0,0.25,66,166.74
2297,E-3,359.25,73/250,42,166.74
2298,C#3,359.5,73/250,45,166.74
2299,G4,359.5,0.25,67,166.74
2300,G5,359.5,0.25,67,166.74
2301,E-3,359.75,0.25,42,166.74
2302,B2,360.0,73/250,51,166.74
2303,E-3,360.0,21/500,42,166.74
2304,B-5,360.0,0.25,68,166.74
2305,B-4,360.0,0.25,68,166.74
2306,E-3,360.25,73/250,43,166.74
2307,B2,360.5,31/125,47,166.74
2308,G#4,360.5,1.0,69,166.74
2309,G#5,360.5,1.0,69,166.74
2310,E-3,360.75,31/125,43,166.74
2311,B2,361.0,31/125,52,166.74
2312,E-3,361.25,31/125,44,166.74
2313,B2,361.5,31/125,48,166.74
2314,G#4,361.5,1.0,74,166.74
2315,G#5,361.5,1.0,74,166.74
2316,E-3,361.75,31/125,44,166.74
2317,B2,362.0,31/125,56,166.74
2318,E-3,362.25,31/125,46,166.74
2319,B2,362.5,73/250,50,166.74
2320,G#5,362.5,0.25,76,166.74
2321,G#4,362.5,0.25,76,166.74
2322,E-3,362.75,73/250,45,166.74
2323,B2,363.0,73/250,57,166.74
2324,E-6,363.0,0.25,78,166.74
2325,E-5,363.0,0.25,78,166.74
2326,E-3,363.25,73/250,47,166.74
2327,B2,363.5,73/250,51,166.74
2328,G#4,363.5,0.25,80,166.74
2329,G#5,363.5,0.25,80,166.74
2330,E-3,363.75,0.25,47,166.74
2331,G2,364.0,73/250,59,166.74
2332,E-3,364.0,21/500,47,166.74
2333,B4,364.0,0.25,80,166.74
2334,B5,364.0,0.25,80,166.74
2335,E-3,364.25,73/250,52,166.74
2336,G2,364.5,31/125,56,166.74
2337,B-4,364.5,1.0,82,166.74
2338,B-5,364.5,1.0,82,166.74
2339,E-3,364.75,31/125,51,166.74
2340,G2,365.0,31/125,60,166.74
2341,E-3,365.25,31/125,53,166.74
2342,G2,365.5,31/125,57,166.74
2343,B-4,365.5,1.0,86,166.74
2344,B-5,365.5,1.0,86,166.74
2345,E-3,365.75,31/125,52,166.74
2346,G2,366.0,31/125,62,166.74
2347,E-3,366.25,31/125,54,166.74
2348,G2,366.5,73/250,59,166.74
2349,B-4,366.5,0.25,86,166.74
2350,B-5,366.5,0.25,86,166.74
2351,E-3,366.75,73/250,53,166.74
2352,G2,367.0,73/250,62,166.74
2353,E-6,367.0,0.25,93,166.74
2354,E-5,367.0,0.25,93,166.74
2355,E-3,367.25,73/250,54,166.74
2356,G2,367.5,73/250,60,166.74
2357,B-5,367.5,0.25,86,166.74
2358,B-4,367.5,0.25,86,166.74
2359,E-3,367.75,0.25,53,166.74
2360,F#2,368.0,73/250,66,166.74
2361,E-3,368.0,21/500,53,166.74
2362,C5,368.0,2.0,88,166.74
2363,C6,368.0,2.0,88,166.74
2364,E-3,368.25,73/250,57,166.74
2365,G#2,368.5,73/250,61,166.74
2366,E-3,368.75,73/250,56,166.74
2367,F#2,369.0,73/250,66,166.74
2368,E-3,369.25,73/250,56,166.74
2369,G#2,369.5,73/250,61,166.74
2370,E-3,369.75,73/250,56,166.74
2371,E2,370.0,73/250,66,166.74
2372,C#5,370.0,2.0,88,166.74
2373,C#6,370.0,2.0,88,166.74
2374,C#3,370.25,73/250,58,166.74
2375,G#2,370.5,73/250,62,166.74
2376,C#3,370.75,73/250,56,166.74
2377,E2,371.0,73/250,66,166.74
2378,C#3,371.25,73/250,56,166.74
2379,G#2,371.5,73/250,61,166.74
2380,C#3,371.75,0.25,61,166.74
2381,B-4,372.0,1.0,68,166.74
2382,B-5,372.0,27/200,80,166.74
2383,E2,372.0,31/125,66,166.74
2384,C#3,372.0,21/500,61,166.74
2385,B5,372.135,133/1000,75,166.74
2386,C#3,372.25,31/125,56,166.74
2387,B-5,372.269,27/200,80,166.74
2388,B5,372.404,133/1000,80,166.74
2389,F#2,372.5,31/125,61,166.74
2390,B-5,372.573,81/500,80,166.74
2391,G#5,372.723,4/25,75,166.74
2392,C#3,372.75,31/125,54,166.74
2393,B-5,372.86,7/50,75,166.74
2394,E-2,373.0,73/250,66,166.74
2395,B4,373.0,3.0,88,166.74
2396,B5,373.0,3.0,88,166.74
2397,B2,373.25,73/250,56,166.74
2398,F#2,373.5,73/250,62,166.74
2399,B2,373.75,73/250,56,166.74
2400,E-2,374.0,73/250,66,166.74
2401,B2,374.25,73/250,56,166.74
2402,F#2,374.5,73/250,61,166.74
2403,B2,374.75,73/250,56,166.74
2404,E-2,375.0,73/250,66,166.74
2405,B2,375.25,73/250,54,166.74
2406,F#2,375.5,73/250,60,166.74
2407,B2,375.75,0.25,60,166.74
2408,D2,376.0,73/250,66,166.74
2409,B2,376.0,21/500,60,166.74
2410,G#5,376.0,2.0,88,166.74
2411,G#4,376.0,2.0,88,166.74
2412,B2,376.25,73/250,56,166.74
2413,E2,376.5,73/250,62,166.74
2414,B2,376.75,73/250,54,166.74
2415,D2,377.0,73/250,66,166.74
2416,B2,377.25,73/250,56,166.74
2417,E2,377.5,73/250,62,166.74
2418,B2,377.75,73/250,56,166.74
2419,C#2,378.0,73/250,66,166.74
2420,A4,378.0,2.0,87,166.74
2421,A5,378.0,2.0,87,166.74
2422,A2,378.25,73/250,56,166.74
2423,E2,378.5,73/250,62,166.74
2424,A2,378.75,73/250,56,166.74
2425,C#2,379.0,73/250,66,166.74
2426,A2,379.25,73/250,56,166.74
2427,E2,379.5,73/250,62,166.74
2428,A2,379.75,0.25,56,166.74
2429,G4,380.0,1.0,68,166.74
2430,G5,380.0,27/200,80,166.74
2431,C#2,380.0,31/125,66,166.74
2432,A2,380.0,21/500,56,166.74
2433,G#5,380.135,27/200,75,166.74
2434,B-2,380.25,31/125,56,166.74
2435,G5,380.269,27/200,80,166.74
2436,G#5,380.404,27/200,80,166.74
2437,E-2,380.5,31/125,60,166.74
2438,G5,380.573,81/500,80,166.74
2439,F5,380.723,81/500,75,166.74
2440,B-2,380.75,31/125,56,166.74
2441,G5,380.86,7/50,75,166.74
2442,B1,381.0,73/250,66,166.74
2443,G#5,381.0,3.0,88,166.74
2444,G#4,381.0,3.0,88,166.74
2445,G#2,381.25,73/250,56,166.74
2446,E-2,381.5,73/250,61,166.74
2447,G#2,381.75,73/250,56,166.74
2448,B1,382.0,73/250,66,166.74
2449,G#2,382.25,73/250,56,166.74
2450,E-2,382.5,73/250,61,166.74
2451,G#2,382.75,73/250,54,166.74
2452,B1,383.0,73/250,66,166.74
2453,G#2,383.25,73/250,56,166.74
2454,E-2,383.5,73/250,61,166.74
2455,G#2,383.75,0.25,54,166.74
2456,E5,384.0,2.25,96,166.74
2457,A4,384.0,2.25,96,166.74
2458,C#5,384.0,2.25,96,166.74
2459,A5,384.0,2.25,96,166.74
2460,A2,384.0,3.0,70,166.74
2461,C#3,384.0,3.0,70,166.74
2462,E2,384.0,3.0,70,166.74
2463,C#2,384.0,3.0,70,166.74
2464,E5,386.25,0.25,48,166.74
2465,F#5,386.5,0.25,49,166.74
2466,G#5,386.75,0.25,51,166.74
2467,A5,387.0,0.25,51,166.74
2468,B5,387.25,0.25,52,166.74
2469,C#6,387.5,0.25,53,166.74
2470,B5,387.75,0.25,51,166.74
2471,A5,388.0,0.25,49,166.74
2472,E4,388.0,124/125,45,166.74
2473,C#4,388.0,124/125,45,166.74
2474,A4,388.0,124/125,45,166.74
2475,E5,388.25,0.25,47,166.74
2476,F#5,388.5,0.25,48,166.74
2477,G#5,388.75,0.25,48,166.74
2478,A5,389.0,0.25,49,166.74
2479,B5,389.25,0.25,50,166.74
2480,C#6,389.5,0.25,51,166.74
2481,B5,389.75,0.25,50,166.74
2482,A5,390.0,0.25,48,166.74
2483,A4,390.0,1.0,44,166.74
2484,E4,390.0,1.0,44,166.74
2485,C#4,390.0,1.0,44,166.74
2486,E5,390.25,0.25,49,166.74
2487,F#5,390.5,0.25,50,166.74
2488,G#5,390.75,0.25,50,166.74
2489,A5,391.0,0.25,51,166.74
2490,B5,391.25,0.25,51,166.74
2491,C#6,391.5,0.25,51,166.74
2492,B5,391.75,0.25,49,166.74
2493,A5,392.0,0.25,47,166.74
2494,A4,392.0,1.0,44,166.74
2495,E4,392.0,1.0,44,166.74
2496,C#4,392.0,1.0,44,166.74
2497,E5,392.25,0.25,48,166.74
2498,F#5,392.5,0.25,51,166.74
2499,G#5,392.75,0.25,51,166.74
2500,A5,393.0,0.25,54,166.74
2501,A4,393.0,1.0,47,166.74
2502,E4,393.0,1.0,47,166.74
2503,C#4,393.0,1.0,47,166.74
2504,B5,393.25,0.25,56,166.74
2505,C#6,393.5,0.25,57,166.74
2506,D6,393.75,0.25,60,166.74
2507,E6,394.0,0.25,61,166.74
2508,A4,394.0,1.0,54,166.74
2509,E4,394.0,1.0,54,166.74
2510,C#4,394.0,1.0,54,166.74
2511,E-6,394.25,0.25,59,166.74
2512,E6,394.5,0.25,57,166.74
2513,E-6,394.75,0.25,56,166.74
2514,E6,395.0,0.25,54,166.74
2515,C#4,395.0,1.0,50,166.74
2516,A4,395.0,1.0,50,166.74
2517,E4,395.0,1.0,50,166.74
2518,C#6,395.25,0.25,52,166.74
2519,B5,395.5,0.25,51,166.74
2520,A5,395.75,0.25,50,166.74
2521,G#5,396.0,2.0,48,166.74
2522,E-4,396.0,0.25,49,166.74
2523,B4,396.25,0.25,43,166.74
2524,G#4,396.5,0.25,49,166.74
2525,B4,396.75,0.25,49,166.74
2526,E-4,397.0,0.25,51,166.74
2527,B4,397.25,0.25,44,166.74
2528,G#4,397.5,0.25,47,166.74
2529,B4,397.75,0.25,43,166.74
2530,B-5,398.0,167/1000,50,166.74
2531,E-4,398.0,0.25,51,166.74
2532,B5,398.167,167/1000,50,166.74
2533,C#5,398.25,0.25,44,166.74
2534,B-5,398.333,0.156,50,166.74
2535,B5,398.49,0.156,50,166.74
2536,G4,398.5,0.25,48,166.74
2537,B-5,398.646,0.156,50,166.74
2538,C#5,398.75,0.25,44,166.74
2539,B5,398.802,0.156,50,166.74
2540,B-5,398.958,73/500,50,166.74
2541,E-4,399.0,0.25,51,166.74
2542,B5,399.104,73/500,48,166.74
2543,B-5,399.25,0.125,49,166.74
2544,C#5,399.25,0.25,45,166.74
2545,B5,399.375,0.125,50,166.74
2546,B-5,399.5,0.125,51,166.74
2547,G4,399.5,0.25,48,166.74
2548,B5,399.625,0.125,51,166.74
2549,B-5,399.75,0.125,51,166.74
2550,C#5,399.75,0.25,45,166.74
2551,B5,399.875,0.125,52,166.74
2552,G#5,400.0,0.5,56,166.74
2553,B4,400.0,0.5,53,166.74
2554,E4,400.0,0.5,53,166.74
2555,G#4,400.0,0.5,53,166.74
2556,A3,401.0,1.25,80,166.74
2557,C#4,401.0,1.25,80,166.74
2558,A4,401.0,1.25,80,166.74
2559,E4,401.0,1.25,80,166.74
2560,C#3,401.0,2.0,68,166.74
2561,A2,401.0,2.0,68,166.74
2562,E2,401.0,2.0,68,166.74
2563,C#2,401.0,2.0,68,166.74
2564,E4,402.25,0.25,48,166.74
2565,F#4,402.5,0.25,49,166.74
2566,G#4,402.75,0.25,50,166.74
2567,A4,403.0,0.25,51,166.74
2568,B4,403.25,0.25,51,166.74
2569,C#5,403.5,0.25,52,166.74
2570,B4,403.75,0.25,51,166.74
2571,A4,404.0,0.25,48,166.74
2572,E4,404.25,0.25,48,166.74
2573,F#4,404.5,0.25,48,166.74
2574,G#4,404.75,0.25,49,166.74
2575,A4,405.0,0.25,50,166.74
2576,E3,405.0,1.0,44,166.74
2577,C#3,405.0,1.0,44,166.74
2578,A3,405.0,1.0,44,166.74
2579,B4,405.25,0.25,50,166.74
2580,C#5,405.5,0.25,51,166.74
2581,B4,405.75,0.25,51,166.74
2582,A4,406.0,0.25,48,166.74
2583,E4,406.25,0.25,48,166.74
2584,F#4,406.5,0.25,48,166.74
2585,G#4,406.75,0.25,50,166.74
2586,A4,407.0,0.25,51,166.74
2587,E3,407.0,1.0,44,166.74
2588,A3,407.0,1.0,44,166.74
2589,C#3,407.0,1.0,44,166.74
2590,B4,407.25,0.25,51,166.74
2591,C#5,407.5,0.25,51,166.74
2592,B4,407.75,0.25,50,166.74
2593,A4,408.0,0.25,49,166.74
2594,E4,408.25,0.25,50,166.74
2595,F#4,408.5,0.25,51,166.74
2596,C#3,408.5,0.5,46,166.74
2597,A3,408.5,0.5,46,166.74
2598,E3,408.5,0.5,46,166.74
2599,G#4,408.75,0.25,51,166.74
2600,A4,409.0,0.25,52,166.74
2601,B4,409.25,0.25,53,166.74
2602,C#5,409.5,0.25,56,166.74
2603,C#3,409.5,0.5,54,166.74
2604,A3,409.5,0.5,54,166.74
2605,E3,409.5,0.5,54,166.74
2606,B4,409.75,0.25,56,166.74
2607,A4,410.0,0.25,57,166.74
2608,E4,410.25,0.25,58,166.74
2609,F#4,410.5,0.25,59,166.74
2610,C#3,410.5,0.5,61,166.74
2611,A3,410.5,0.5,61,166.74
2612,E3,410.5,0.5,61,166.74
2613,G#4,410.75,0.25,60,166.74
2614,A4,411.0,0.25,62,166.74
2615,B4,411.25,0.25,62,166.74
2616,C#5,411.5,0.25,62,166.74
2617,A3,411.5,0.5,61,166.74
2618,E3,411.5,0.5,61,166.74
2619,C#3,411.5,0.5,61,166.74
2620,B4,411.75,0.25,63,166.74
2621,A4,412.0,0.25,66,166.74
2622,E3,412.0,1.0,60,166.74
2623,C#3,412.0,1.0,60,166.74
2624,A3,412.0,1.0,60,166.74
2625,E4,412.25,0.25,67,166.74
2626,F#4,412.5,0.25,68,166.74
2627,G#4,412.75,0.25,68,166.74
2628,A4,413.0,0.25,70,166.74
2629,B4,413.25,0.25,71,166.74
2630,C#5,413.5,0.25,72,166.74
2631,D5,413.75,0.25,73,166.74
2632,E5,414.0,0.25,74,166.74
2633,F#5,414.25,0.25,75,166.74
2634,G#5,414.5,0.25,76,166.74
2635,A5,414.75,0.25,77,166.74
2636,B5,415.0,0.25,79,166.74
2637,C#6,415.25,0.25,79,166.74
2638,D6,415.5,0.25,79,166.74
2639,E-6,415.75,0.25,80,166.74
2640,C#3,416.0,31/125,70,166.74
2641,E6,416.0,2.0,78,166.74
2642,E5,416.0,2.0,78,166.74
2643,A3,416.25,31/125,61,166.74
2644,E3,416.5,31/125,66,166.74
2645,A3,416.75,31/125,62,166.74
2646,C#3,417.0,31/125,70,166.74
2647,A3,417.25,31/125,61,166.74
2648,E3,417.5,31/125,65,166.74
2649,A3,417.75,31/125,62,166.74
2650,D3,418.0,31/125,70,166.74
2651,G#4,418.0,2.0,78,166.74
2652,G#5,418.0,2.0,78,166.74
2653,B3,418.25,31/125,61,166.74
2654,F3,418.5,31/125,66,166.74
2655,B3,418.75,31/125,62,166.74
2656,D3,419.0,31/125,70,166.74
2657,B3,419.25,31/125,59,166.74
2658,F3,419.5,31/125,63,166.74
2659,B3,419.75,31/125,61,166.74
2660,E-3,420.0,31/125,70,166.74
2661,B4,420.0,2.0,78,166.74
2662,B5,420.0,2.0,78,166.74
2663,B3,420.25,31/125,61,166.74
2664,G#3,420.5,31/125,66,166.74
2665,B3,420.75,31/125,62,166.74
2666,E-3,421.0,31/125,70,166.74
2667,B3,421.25,31/125,62,166.74
2668,G#3,421.5,31/125,66,166.74
2669,B3,421.75,31/125,61,166.74
2670,E-2,422.0,31/125,70,166.74
2671,C#4,422.0,2.0,72,166.74
2672,G3,422.0,2.0,72,166.74
2673,G4,422.0,2.0,72,166.74
2674,E-3,422.25,31/125,62,166.74
2675,D3,422.5,31/125,67,166.74
2676,E-3,422.75,31/125,62,166.74
2677,D3,423.0,31/125,70,166.74
2678,E-3,423.25,31/125,62,166.74
2679,D3,423.5,31/125,67,166.74
2680,E-3,423.75,53/250,62,166.74
2681,G#2,424.0,0.5,71,166.74
2682,E-4,424.0,0.5,75,166.74
2683,B3,424.0,0.5,75,166.74
2684,G#4,424.0,0.5,75,166.74
2685,B4,424.5,0.25,51,166.74
2686,E-4,424.5,0.25,51,166.74
2687,G#3,425.0,0.25,43,166.74
2688,B4,425.0,0.25,51,166.74
2689,E-4,425.0,0.25,51,166.74
2690,G#3,425.5,0.25,43,166.74
2691,E-4,425.5,0.25,51,166.74
2692,B4,425.5,0.25,51,166.74
2693,G#3,426.0,0.25,43,166.74
2694,B4,426.0,0.25,51,166.74
2695,E-4,426.0,0.25,51,166.74
2696,G#3,426.5,0.25,43,166.74
2697,B4,426.5,0.25,51,166.74
2698,E-4,426.5,0.25,51,166.74
2699,B-3,427.0,0.25,40,166.74
2700,E-4,427.0,0.25,49,166.74
2701,B-4,427.0,0.25,49,166.74
2702,B3,427.5,0.25,39,166.74
2703,G#4,427.5,0.25,47,166.74
2704,E-4,427.5,0.25,47,166.74
2705,E-4,428.0,0.5,59,166.74
2706,G4,428.0,0.5,59,166.74
2707,E-3,428.0,0.5,47,166.74
2708,C#4,428.0,0.5,47,166.74
2709,G4,428.5,0.25,49,166.74
2710,E-5,428.5,0.25,49,166.74
2711,C#4,428.5,0.25,42,166.74
2712,E-4,428.5,0.25,42,166.74
2713,G4,429.0,0.25,49,166.74
2714,E-5,429.0,0.25,49,166.74
2715,C#4,429.0,0.25,41,166.74
2716,E-4,429.0,0.25,41,166.74
2717,E-5,429.5,0.25,50,166.74
2718,G4,429.5,0.25,50,166.74
2719,C#4,429.5,0.25,41,166.74
2720,E-4,429.5,0.25,41,166.74
2721,G4,430.0,0.25,51,166.74
2722,E-5,430.0,0.25,51,166.74
2723,E-4,430.0,0.25,41,166.74
2724,C#4,430.0,0.25,41,166.74
2725,G4,430.5,0.25,51,166.74
2726,E-5,430.5,0.25,51,166.74
2727,E-4,430.5,0.25,41,166.74
2728,C#4,430.5,0.25,41,166.74
2729,E-5,431.0,0.25,51,166.74
2730,G#4,431.0,0.25,51,166.74
2731,E-4,431.0,0.25,41,166.74
2732,B3,431.0,0.25,41,166.74
2733,B-4,431.5,0.25,53,166.74
2734,E-5,431.5,0.25,53,166.74
2735,B-3,431.5,0.25,43,166.74
2736,E-4,431.5,0.25,43,166.74
2737,B4,432.0,0.5,58,166.74
2738,E-5,432.0,0.5,58,166.74
2739,G#3,432.0,0.5,47,166.74
2740,G#2,432.0,0.5,47,166.74
2741,G#3,432.5,0.25,42,166.74
2742,B4,432.5,0.25,50,166.74
2743,E-4,432.5,0.25,50,166.74
2744,G#3,433.0,0.25,42,166.74
2745,E-4,433.0,0.25,50,166.74
2746,B4,433.0,0.25,50,166.74
2747,G#3,433.5,0.25,42,166.74
2748,B4,433.5,0.25,50,166.74
2749,E-4,433.5,0.25,50,166.74
2750,G#3,434.0,0.25,43,166.74
2751,B4,434.0,0.25,50,166.74
2752,E-4,434.0,0.25,50,166.74
2753,G#3,434.5,0.25,42,166.74
2754,E-4,434.5,0.25,50,166.74
2755,B4,434.5,0.25,50,166.74
2756,B-3,435.0,0.25,41,166.74
2757,E-4,435.0,0.25,48,166.74
2758,B-4,435.0,0.25,48,166.74
2759,B3,435.5,0.25,39,166.74
2760,G#4,435.5,0.25,47,166.74
2761,E-4,435.5,0.25,47,166.74
2762,E-4,436.0,0.5,58,166.74
2763,G4,436.0,0.5,58,166.74
2764,E-3,436.0,0.5,47,166.74
2765,C#4,436.0,0.5,47,166.74
2766,E-5,436.5,0.25,49,166.74
2767,G4,436.5,0.25,49,166.74
2768,C#4,436.5,0.25,41,166.74
2769,E-4,436.5,0.25,41,166.74
2770,E-5,437.0,0.25,49,166.74
2771,G4,437.0,0.25,49,166.74
2772,E-4,437.0,0.25,43,166.74
2773,C#4,437.0,0.25,43,166.74
2774,G4,437.5,0.25,51,166.74
2775,E-5,437.5,0.25,51,166.74
2776,C#4,437.5,0.25,42,166.74
2777,E-4,437.5,0.25,42,166.74
2778,G4,438.0,0.25,49,166.74
2779,E-5,438.0,0.25,49,166.74
2780,C#4,438.0,0.25,42,166.74
2781,E-4,438.0,0.25,42,166.74
2782,G4,438.5,0.25,49,166.74
2783,E-5,438.5,0.25,49,166.74
2784,E-4,438.5,0.25,42,166.74
2785,C#4,438.5,0.25,42,166.74
2786,G#4,439.0,0.25,51,166.74
2787,E-5,439.0,0.25,51,166.74
2788,E-4,439.0,0.25,43,166.74
2789,B3,439.0,0.25,43,166.74
2790,E-5,439.5,0.25,51,166.74
2791,B-4,439.5,0.25,51,166.74
2792,E-4,439.5,0.25,45,166.74
2793,B-3,439.5,0.25,45,166.74
2794,G#2,440.0,0.25,48,166.74
2795,E-5,440.0,0.25,56,166.74
2796,B4,440.0,0.25,56,166.74
2797,B4,440.5,0.25,50,166.74
2798,E-5,440.5,0.25,50,166.74
2799,B3,440.5,0.25,39,166.74
2800,G#3,440.5,0.25,39,166.74
2801,B4,441.0,0.5,50,166.74
2802,E-5,441.0,0.5,50,166.74
2803,G#3,441.0,0.5,39,166.74
2804,B3,441.0,0.5,39,166.74
2805,B4,441.5,0.5,49,166.74
2806,G#4,441.5,0.5,49,166.74
2807,B3,441.5,0.5,39,166.74
2808,E-4,441.5,0.5,39,166.74
2809,C#3,442.0,0.25,47,166.74
2810,C#5,442.5,0.25,50,166.74
2811,E5,442.5,0.25,50,166.74
2812,G#3,442.5,0.25,43,166.74
2813,C#4,442.5,0.25,43,166.74
2814,E5,443.0,0.5,50,166.74
2815,C#5,443.0,0.5,50,166.74
2816,C#4,443.0,0.5,43,166.74
2817,G#3,443.0,0.5,43,166.74
2818,C#5,443.5,0.5,49,166.74
2819,G#4,443.5,0.5,49,166.74
2820,C#4,443.5,0.5,41,166.74
2821,E4,443.5,0.5,41,166.74
2822,E-3,444.0,0.25,47,166.74
2823,E-5,444.5,0.25,47,166.74
2824,B4,444.5,0.25,47,166.74
2825,B3,444.5,0.25,41,166.74
2826,G#3,444.5,0.25,41,166.74
2827,E-5,445.0,0.5,47,166.74
2828,B4,445.0,0.5,47,166.74
2829,G#3,445.0,0.5,42,166.74
2830,B3,445.0,0.5,42,166.74
2831,G#4,445.5,0.5,49,166.74
2832,B4,445.5,0.5,49,166.74
2833,E-4,445.5,0.5,42,166.74
2834,B3,445.5,0.5,42,166.74
2835,E-3,446.0,0.25,47,166.74
2836,E-5,446.5,0.25,49,166.74
2837,B-4,446.5,0.25,49,166.74
2838,G3,446.5,0.25,39,166.74
2839,B-3,446.5,0.25,39,166.74
2840,E-5,447.0,0.5,47,166.74
2841,B-4,447.0,0.5,47,166.74
2842,B-3,447.0,0.5,39,166.74
2843,G3,447.0,0.5,39,166.74
2844,G4,447.5,0.5,47,166.74
2845,B-4,447.5,0.5,47,166.74
2846,B-3,447.5,0.5,39,166.74
2847,E-4,447.5,0.5,39,166.74
2848,G#4,448.0,0.5,49,166.74
2849,B4,448.0,0.5,49,166.74
2850,G#1,448.0,0.5,42,166.74
2851,G#2,448.0,0.5,42,166.74
2852,E-5,448.5,0.25,48,166.74
2853,B5,448.5,0.25,48,166.74
2854,B4,448.5,0.25,48,166.74
2855,G#2,448.5,0.25,41,166.74
2856,E-3,448.5,0.25,41,166.74
2857,B5,449.0,0.25,53,166.74
2858,E-5,449.0,0.25,53,166.74
2859,B4,449.0,0.25,53,166.74
2860,G#2,449.0,0.25,43,166.74
2861,E-3,449.0,0.25,43,166.74
2862,B5,449.5,0.25,55,166.74
2863,B4,449.5,0.25,55,166.74
2864,E-5,449.5,0.25,55,166.74
2865,E-3,449.5,0.25,47,166.74
2866,G#2,449.5,0.25,47,166.74
2867,B4,450.0,0.25,59,166.74
2868,E-5,450.0,0.25,59,166.74
2869,B5,450.0,0.25,59,166.74
2870,E-3,450.0,0.25,50,166.74
2871,G#2,450.0,0.25,50,166.74
2872,B5,450.5,0.25,63,166.74
2873,E-5,450.5,0.25,63,166.74
2874,B4,450.5,0.25,63,166.74
2875,E-3,450.5,0.25,52,166.74
2876,G#2,450.5,0.25,52,166.74
2877,C#5,451.0,0.25,64,166.74
2878,B-4,451.0,0.25,64,166.74
2879,B-5,451.0,0.25,64,166.74
2880,E-3,451.0,0.25,57,166.74
2881,B-2,451.0,0.25,57,166.74
2882,G#5,451.5,0.25,68,166.74
2883,G#4,451.5,0.25,68,166.74
2884,B4,451.5,0.25,68,166.74
2885,E-3,451.5,0.25,59,166.74
2886,B2,451.5,0.25,59,166.74
2887,G5,452.0,0.5,71,166.74
2888,G4,452.0,0.5,71,166.74
2889,B-4,452.0,0.5,71,166.74
2890,E-3,452.0,0.5,62,166.74
2891,C#3,452.0,0.5,62,166.74
2892,E-2,452.0,0.5,62,166.74
2893,E5,452.5,0.25,72,166.74
2894,E6,452.5,0.25,72,166.74
2895,G5,452.5,0.25,72,166.74
2896,C#4,452.5,0.25,62,166.74
2897,E-3,452.5,0.25,62,166.74
2898,G5,453.0,0.25,78,166.74
2899,E5,453.0,0.25,78,166.74
2900,E6,453.0,0.25,78,166.74
2901,E-3,453.0,0.25,66,166.74
2902,C#4,453.0,0.25,66,166.74
2903,G5,453.5,0.25,75,166.74
2904,E6,453.5,0.25,75,166.74
2905,E5,453.5,0.25,75,166.74
2906,C#4,453.5,0.25,62,166.74
2907,E-3,453.5,0.25,62,166.74
2908,E6,454.0,0.25,78,166.74
2909,E5,454.0,0.25,78,166.74
2910,G5,454.0,0.25,78,166.74
2911,C#4,454.0,0.25,66,166.74
2912,E-3,454.0,0.25,66,166.74
2913,G5,454.5,0.25,75,166.74
2914,E5,454.5,0.25,75,166.74
2915,E6,454.5,0.25,75,166.74
2916,C#4,454.5,0.25,62,166.74
2917,E-3,454.5,0.25,62,166.74
2918,G5,455.0,0.25,77,166.74
2919,E-5,455.0,0.25,77,166.74
2920,E-6,455.0,0.25,77,166.74
2921,E-3,455.0,0.25,66,166.74
2922,B3,455.0,0.25,66,166.74
2923,G5,455.5,0.25,75,166.74
2924,C#6,455.5,0.25,75,166.74
2925,C#5,455.5,0.25,75,166.74
2926,E-3,455.5,0.25,62,166.74
2927,B-3,455.5,0.25,62,166.74
2928,B5,456.0,0.5,78,166.74
2929,G#5,456.0,0.5,78,166.74
2930,B4,456.0,0.5,78,166.74
2931,G#2,456.0,0.5,67,166.74
2932,G#1,456.0,0.5,67,166.74
2933,B4,456.5,0.25,46,166.74
2934,B5,456.5,0.25,46,166.74
2935,E-5,456.5,0.25,46,166.74
2936,E-3,456.5,0.25,41,166.74
2937,G#2,456.5,0.25,41,166.74
2938,B5,457.0,0.25,49,166.74
2939,B4,457.0,0.25,49,166.74
2940,E-5,457.0,0.25,49,166.74
2941,E-3,457.0,0.25,44,166.74
2942,G#2,457.0,0.25,44,166.74
2943,B4,457.5,0.25,54,166.74
2944,B5,457.5,0.25,54,166.74
2945,E-5,457.5,0.25,54,166.74
2946,G#2,457.5,0.25,48,166.74
2947,E-3,457.5,0.25,48,166.74
2948,B4,458.0,0.25,58,166.74
2949,E-5,458.0,0.25,58,166.74
2950,B5,458.0,0.25,58,166.74
2951,G#2,458.0,0.25,51,166.74
2952,E-3,458.0,0.25,51,166.74
2953,E-5,458.5,0.25,63,166.74
2954,B5,458.5,0.25,63,166.74
2955,B4,458.5,0.25,63,166.74
2956,G#2,458.5,0.25,56,166.74
2957,E-3,458.5,0.25,56,166.74
2958,B-5,459.0,0.25,65,166.74
2959,B-4,459.0,0.25,65,166.74
2960,C#5,459.0,0.25,65,166.74
2961,E-3,459.0,0.25,58,166.74
2962,B-2,459.0,0.25,58,166.74
2963,G#5,459.5,0.25,69,166.74
2964,G#4,459.5,0.25,69,166.74
2965,B4,459.5,0.25,69,166.74
2966,B2,459.5,0.25,62,166.74
2967,E-3,459.5,0.25,62,166.74
2968,B-4,460.0,0.5,74,166.74
2969,G4,460.0,0.5,74,166.74
2970,G5,460.0,0.5,74,166.74
2971,C#3,460.0,0.5,66,166.74
2972,E-2,460.0,0.5,66,166.74
2973,E-3,460.0,0.5,66,166.74
2974,E6,460.5,0.25,74,166.74
2975,G5,460.5,0.25,74,166.74
2976,E5,460.5,0.25,74,166.74
2977,E-3,460.5,0.25,62,166.74
2978,C#4,460.5,0.25,62,166.74
2979,E6,461.0,0.25,78,166.74
2980,E5,461.0,0.25,78,166.74
2981,G5,461.0,0.25,78,166.74
2982,E-3,461.0,0.25,67,166.74
2983,C#4,461.0,0.25,67,166.74
2984,E5,461.5,0.25,74,166.74
2985,E6,461.5,0.25,74,166.74
2986,G5,461.5,0.25,74,166.74
2987,E-3,461.5,0.25,62,166.74
2988,C#4,461.5,0.25,62,166.74
2989,G5,462.0,0.25,78,166.74
2990,E5,462.0,0.25,78,166.74
2991,E6,462.0,0.25,78,166.74
2992,C#4,462.0,0.25,67,166.74
2993,E-3,462.0,0.25,67,166.74
2994,G5,462.5,0.25,75,166.74
2995,E5,462.5,0.25,75,166.74
2996,E6,462.5,0.25,75,166.74
2997,E-3,462.5,0.25,62,166.74
2998,C#4,462.5,0.25,62,166.74
2999,E-5,463.0,0.25,76,166.74
3000,G5,463.0,0.25,76,166.74
3001,E-6,463.0,0.25,76,166.74
3002,B3,463.0,0.25,67,166.74
3003,E-3,463.0,0.25,67,166.74
3004,G5,463.5,0.25,75,166.74
3005,C#5,463.5,0.25,75,166.74
3006,C#6,463.5,0.25,75,166.74
3007,E-3,463.5,0.25,62,166.74
3008,B-3,463.5,0.25,62,166.74
3009,B5,464.0,0.5,78,166.74
3010,G#5,464.0,0.5,78,166.74
3011,B4,464.0,0.5,78,166.74
3012,G#2,464.0,0.5,68,166.74
3013,G#3,464.0,0.5,68,166.74
3014,B5,464.5,0.25,50,166.74
3015,G#5,464.5,0.25,50,166.74
3016,B3,464.5,0.25,43,166.74
3017,E-4,464.5,0.25,43,166.74
3018,B5,465.0,0.5,50,166.74
3019,G#5,465.0,0.5,50,166.74
3020,E-4,465.0,0.5,41,166.74
3021,B3,465.0,0.5,41,166.74
3022,B5,465.5,0.5,48,166.74
3023,E-6,465.5,0.5,48,166.74
3024,G#3,465.5,0.5,39,166.74
3025,B3,465.5,0.5,39,166.74
3026,C#3,466.0,0.25,48,166.74
3027,C#6,466.5,0.25,49,166.74
3028,G#5,466.5,0.25,49,166.74
3029,E4,466.5,0.25,42,166.74
3030,C#4,466.5,0.25,42,166.74
3031,C#6,467.0,0.5,49,166.74
3032,G#5,467.0,0.5,49,166.74
3033,C#4,467.0,0.5,42,166.74
3034,E4,467.0,0.5,42,166.74
3035,E6,467.5,0.5,47,166.74
3036,C#6,467.5,0.5,47,166.74
3037,G#3,467.5,0.5,39,166.74
3038,C#4,467.5,0.5,39,166.74
3039,E-3,468.0,0.25,48,166.74
3040,B5,468.5,0.25,49,166.74
3041,G#5,468.5,0.25,49,166.74
3042,E-4,468.5,0.25,42,166.74
3043,B3,468.5,0.25,42,166.74
3044,G#5,469.0,0.5,49,166.74
3045,B5,469.0,0.5,49,166.74
3046,E-4,469.0,0.5,42,166.74
3047,B3,469.0,0.5,42,166.74
3048,E-6,469.5,0.5,47,166.74
3049,B5,469.5,0.5,47,166.74
3050,B3,469.5,0.5,39,166.74
3051,G#3,469.5,0.5,39,166.74
3052,C#3,470.0,0.25,49,166.74
3053,B-5,470.5,0.25,51,166.74
3054,G5,470.5,0.25,51,166.74
3055,E-4,470.5,0.25,42,166.74
3056,B-3,470.5,0.25,42,166.74
3057,B-5,471.0,0.5,51,166.74
3058,G5,471.0,0.5,51,166.74
3059,B-3,471.0,0.5,42,166.74
3060,E-4,471.0,0.5,42,166.74
3061,E-6,471.5,0.5,47,166.74
3062,B-5,471.5,0.5,47,166.74
3063,B-3,471.5,0.5,39,166.74
3064,G3,471.5,0.5,39,166.74
3065,B2,472.0,0.5,45,166.74
3066,B5,472.5,0.25,56,166.74
3067,E-5,472.5,0.25,56,166.74
3068,E-4,472.5,0.25,39,166.74
3069,G#4,472.5,0.25,39,166.74
3070,E-5,473.0,0.5,51,166.74
3071,B5,473.0,0.5,51,166.74
3072,G#4,473.0,0.5,41,166.74
3073,E-4,473.0,0.5,41,166.74
3074,E-6,473.5,0.5,51,166.74
3075,G#5,473.5,0.5,51,166.74
3076,E-4,473.5,0.5,41,166.74
3077,B3,473.5,0.5,41,166.74
3078,C#3,474.0,0.5,50,166.74
3079,A5,474.5,0.25,62,166.74
3080,C#5,474.5,0.25,62,166.74
3081,E4,474.5,0.25,47,166.74
3082,A4,474.5,0.25,47,166.74
3083,A5,475.0,0.5,56,166.74
3084,C#5,475.0,0.5,56,166.74
3085,A4,475.0,0.5,45,166.74
3086,E4,475.0,0.5,45,166.74
3087,E5,475.5,0.5,56,166.74
3088,C#6,475.5,0.5,56,166.74
3089,E4,475.5,0.5,45,166.74
3090,C#4,475.5,0.5,45,166.74
3091,E-3,476.0,0.5,52,166.74
3092,G#5,476.5,0.25,57,166.74
3093,B4,476.5,0.25,57,166.74
3094,G#4,476.5,0.25,48,166.74
3095,E-4,476.5,0.25,48,166.74
3096,B4,477.0,0.5,57,166.74
3097,G#5,477.0,0.5,57,166.74
3098,G#4,477.0,0.5,48,166.74
3099,E-4,477.0,0.5,48,166.74
3100,E-5,477.5,0.5,51,166.74
3101,B5,477.5,0.5,51,166.74
3102,E-4,477.5,0.5,45,166.74
3103,B3,477.5,0.5,45,166.74
3104,E-3,478.0,0.5,51,166.74
3105,B-4,478.5,0.25,52,166.74
3106,G5,478.5,0.25,52,166.74
3107,G4,478.5,0.25,43,166.74
3108,C#4,478.5,0.25,43,166.74
3109,B-4,479.0,0.5,51,166.74
3110,G5,479.0,0.5,51,166.74
3111,G4,479.0,0.5,43,166.74
3112,C#4,479.0,0.5,43,166.74
3113,C#5,479.5,0.5,42,166.74
3114,B-5,479.5,0.5,42,166.74
3115,B-3,479.5,0.5,35,166.74
3116,C#4,479.5,0.5,35,166.74
3117,G#2,480.0,31/125,41,166.74
3118,G#5,480.0,1.0,50,166.74
3119,B4,480.0,1.0,50,166.74
3120,G#3,480.25,31/125,32,166.74
3121,E-3,480.5,31/125,36,166.74
3122,G#3,480.75,31/125,33,166.74
3123,G#2,481.0,31/125,41,166.74
3124,G#3,481.25,31/125,33,166.74
3125,E-3,481.5,31/125,36,166.74
3126,G#3,481.75,31/125,33,166.74
3127,G#2,482.0,31/125,41,166.74
3128,G#3,482.25,31/125,33,166.74
3129,E-3,482.5,31/125,37,166.74
3130,G#3,482.75,31/125,33,166.74
3131,B4,483.0,0.75,50,166.74
3132,G#2,483.0,31/125,41,166.74
3133,G#3,483.25,31/125,33,166.74
3134,E-3,483.5,31/125,37,166.74
3135,G#4,483.75,0.25,50,166.74
3136,G#3,483.75,31/125,33,166.74
3137,G4,484.0,1.0,57,166.74
3138,G#2,484.0,31/125,41,166.74
3139,B-3,484.25,31/125,33,166.74
3140,E-3,484.5,31/125,38,166.74
3141,B-3,484.75,31/125,33,166.74
3142,G#2,485.0,31/125,41,166.74
3143,C#4,485.0,0.75,44,166.74
3144,G4,485.0,0.75,44,166.74
3145,E-5,485.0,0.75,44,166.74
3146,B-3,485.25,31/125,33,166.74
3147,E-3,485.5,31/125,37,166.74
3148,B-3,485.75,31/125,34,166.74
3149,G#2,486.0,31/125,41,166.74
3150,E-5,486.0,0.75,44,166.74
3151,C#4,486.0,0.75,44,166.74
3152,G4,486.0,0.75,44,166.74
3153,B-3,486.25,31/125,34,166.74
3154,E-3,486.5,31/125,38,166.74
3155,B-3,486.75,31/125,33,166.74
3156,G#2,487.0,31/125,41,166.74
3157,G4,487.0,0.75,47,166.74
3158,E-5,487.0,0.75,47,166.74
3159,C#4,487.0,0.75,47,166.74
3160,B-3,487.25,31/125,33,166.74
3161,E-3,487.5,31/125,36,166.74
3162,B3,487.75,167/1000,50,166.74
3163,B-3,487.75,31/125,33,166.74
3164,G#4,487.875,0.125,50,166.74
3165,E-5,488.0,3.0,57,166.74
3166,G#4,488.0,21/500,50,166.74
3167,G#2,488.0,31/125,41,166.74
3168,G#3,488.25,31/125,32,166.74
3169,E-3,488.5,31/125,37,166.74
3170,G#3,488.75,31/125,32,166.74
3171,G#2,489.0,31/125,41,166.74
3172,G#3,489.25,31/125,33,166.74
3173,E-3,489.5,31/125,38,166.74
3174,G#3,489.75,31/125,34,166.74
3175,G#2,490.0,31/125,41,166.74
3176,G#3,490.25,31/125,34,166.74
3177,E-3,490.5,31/125,38,166.74
3178,G#3,490.75,31/125,33,166.74
3179,B5,491.0,0.75,58,166.74
3180,G#2,491.0,31/125,41,166.74
3181,G#3,491.25,31/125,33,166.74
3182,E-3,491.5,31/125,36,166.74
3183,G#5,491.75,0.25,58,166.74
3184,G#3,491.75,31/125,34,166.74
3185,G5,492.0,1.0,67,166.74
3186,G#2,492.0,31/125,41,166.74
3187,B-3,492.25,31/125,33,166.74
3188,E-3,492.5,31/125,36,166.74
3189,B-3,492.75,31/125,33,166.74
3190,G#2,493.0,31/125,41,166.74
3191,G5,493.0,0.75,54,166.74
3192,E-6,493.0,0.75,54,166.74
3193,C#5,493.0,0.75,54,166.74
3194,B-3,493.25,31/125,33,166.74
3195,E-3,493.5,31/125,36,166.74
3196,B-3,493.75,31/125,33,166.74
3197,G#2,494.0,31/125,41,166.74
3198,C#5,494.0,0.75,54,166.74
3199,E-6,494.0,0.75,54,166.74
3200,G5,494.0,0.75,54,166.74
3201,B-3,494.25,31/125,33,166.74
3202,E-3,494.5,31/125,36,166.74
3203,B-3,494.75,31/125,33,166.74
3204,G#2,495.0,31/125,41,166.74
3205,E-6,495.0,0.75,54,166.74
3206,G5,495.0,0.75,54,166.74
3207,C#5,495.0,0.75,54,166.74
3208,B-3,495.25,31/125,34,166.74
3209,E-3,495.5,31/125,39,166.74
3210,B4,495.75,167/1000,47,166.74
3211,B-3,495.75,31/125,34,166.74
3212,G#5,495.875,0.125,52,166.74
3213,E-6,496.0,1.75,73,166.74
3214,G#5,496.0,21/500,52,166.74
3215,G#2,496.0,31/125,41,166.74
3216,G#3,496.25,31/125,33,166.74
3217,E-3,496.5,31/125,36,166.74
3218,G#3,496.75,31/125,33,166.74
3219,G#2,497.0,31/125,42,166.74
3220,G#3,497.25,31/125,33,166.74
3221,E-3,497.5,31/125,35,166.74
3222,C#5,497.75,167/1000,43,166.74
3223,G#3,497.75,31/125,33,166.74
3224,G5,497.875,167/1000,51,166.74
3225,E-6,498.0,1.75,72,166.74
3226,G#2,498.0,31/125,41,166.74
3227,B-3,498.25,31/125,34,166.74
3228,E-3,498.5,31/125,37,166.74
3229,B-3,498.75,31/125,34,166.74
3230,G#2,499.0,31/125,41,166.74
3231,B-3,499.25,31/125,33,166.74
3232,E-3,499.5,31/125,38,166.74
3233,B4,499.75,167/1000,40,166.74
3234,B-3,499.75,31/125,33,166.74
3235,G#5,499.875,0.125,50,166.74
3236,E-6,500.0,1.75,72,166.74
3237,G#5,500.0,21/500,50,166.74
3238,G#2,500.0,31/125,41,166.74
3239,G#3,500.25,31/125,33,166.74
3240,E-3,500.5,31/125,36,166.74
3241,G#3,500.75,31/125,33,166.74
3242,G#2,501.0,31/125,41,166.74
3243,G#3,501.25,31/125,34,166.74
3244,E-3,501.5,31/125,36,166.74
3245,C#5,501.75,167/1000,45,166.74
3246,G#3,501.75,31/125,33,166.74
3247,G5,501.875,167/1000,52,166.74
3248,E-6,502.0,2.0,71,166.74
3249,G#2,502.0,31/125,41,166.74
3250,B-3,502.25,31/125,34,166.74
3251,E-3,502.5,31/125,37,166.74
3252,B-3,502.75,31/125,34,166.74
3253,G#2,503.0,31/125,41,166.74
3254,B-3,503.25,31/125,34,166.74
3255,E-3,503.5,31/125,37,166.74
3256,B-3,503.75,31/125,34,166.74
3257,B3,504.0,31/125,49,166.74
3258,G#2,504.0,31/125,42,166.74
3259,G#4,504.25,31/125,50,166.74
3260,G#3,504.25,31/125,41,166.74
3261,E-4,504.5,31/125,51,166.74
3262,E-3,504.5,31/125,42,166.74
3263,G#4,504.75,31/125,47,166.74
3264,G#3,504.75,31/125,39,166.74
3265,B3,505.0,31/125,52,166.74
3266,G#2,505.0,31/125,43,166.74
3267,G#4,505.25,31/125,53,166.74
3268,G#3,505.25,31/125,44,166.74
3269,E-4,505.5,31/125,54,166.74
3270,E-3,505.5,31/125,45,166.74
3271,G#4,505.75,31/125,52,166.74
3272,G#3,505.75,31/125,42,166.74
3273,B3,506.0,31/125,57,166.74
3274,G#2,506.0,31/125,47,166.74
3275,G#4,506.25,31/125,57,166.74
3276,G#3,506.25,31/125,48,166.74
3277,E-4,506.5,31/125,58,166.74
3278,E-3,506.5,31/125,48,166.74
3279,G#4,506.75,31/125,54,166.74
3280,G#3,506.75,31/125,44,166.74
3281,B3,507.0,31/125,61,166.74
3282,G#2,507.0,31/125,51,166.74
3283,G#4,507.25,31/125,62,166.74
3284,G#3,507.25,31/125,51,166.74
3285,E-4,507.5,31/125,62,166.74
3286,E-3,507.5,31/125,52,166.74
3287,G#4,507.75,31/125,57,166.74
3288,G#3,507.75,31/125,47,166.74
3289,C4,508.0,31/125,66,166.74
3290,G#2,508.0,31/125,53,166.74
3291,F#4,508.25,31/125,67,166.74
3292,F#3,508.25,31/125,56,166.74
3293,E-4,508.5,31/125,68,166.74
3294,E-3,508.5,31/125,56,166.74
3295,F#4,508.75,31/125,63,166.74
3296,F#3,508.75,31/125,52,166.74
3297,C4,509.0,31/125,69,166.74
3298,G#2,509.0,31/125,57,166.74
3299,F#4,509.25,31/125,70,166.74
3300,F#3,509.25,31/125,58,166.74
3301,E-4,509.5,31/125,71,166.74
3302,E-3,509.5,31/125,60,166.74
3303,F#4,509.75,31/125,68,166.74
3304,F#3,509.75,31/125,57,166.74
3305,C4,510.0,31/125,73,166.74
3306,G#2,510.0,31/125,62,166.74
3307,F#4,510.25,31/125,74,166.74
3308,F#3,510.25,31/125,62,166.74
3309,E-4,510.5,31/125,75,166.74
3310,E-3,510.5,31/125,63,166.74
3311,F#4,510.75,31/125,70,166.74
3312,F#3,510.75,31/125,59,166.74
3313,C4,511.0,31/125,78,166.74
3314,G#2,511.0,31/125,65,166.74
3315,F#4,511.25,31/125,79,166.74
3316,F#3,511.25,31/125,67,166.74
3317,E-4,511.5,31/125,79,166.74
3318,E-3,511.5,31/125,67,166.74
3319,F#4,511.75,31/125,73,166.74
3320,F#3,511.75,31/125,60,166.74
3321,C#4,512.0,0.25,80,166.74
3322,F4,512.0,0.25,80,166.74
3323,C#2,512.0,0.25,54,166.74
3324,F3,512.0,0.25,54,166.74
3325,G#3,512.0,0.25,54,166.74
3326,C#3,512.25,73/250,51,166.74
3327,F3,512.5,73/250,51,166.74
3328,G#2,512.5,0.25,34,166.74
3329,G#3,512.75,73/250,52,166.74
3330,C#4,513.0,73/250,54,166.74
3331,C#2,513.0,0.25,36,166.74
3332,F3,513.25,73/250,49,166.74
3333,G#3,513.5,73/250,50,166.74
3334,G#2,513.5,0.25,34,166.74
3335,C#4,513.75,73/250,51,166.74
3336,F4,514.0,73/250,51,166.74
3337,C#2,514.0,0.25,36,166.74
3338,G#3,514.25,73/250,48,166.74
3339,C#4,514.5,73/250,50,166.74
3340,G#2,514.5,0.25,34,166.74
3341,F4,514.75,73/250,51,166.74
3342,G#4,515.0,73/250,52,166.74
3343,C#2,515.0,0.25,35,166.74
3344,C#4,515.25,73/250,49,166.74
3345,F4,515.5,73/250,50,166.74
3346,G#2,515.5,0.25,33,166.74
3347,G#4,515.75,0.25,51,166.74
3348,C#5,516.0,73/250,51,166.74
3349,G#4,516.0,21/500,51,166.74
3350,C#2,516.0,0.25,42,166.74
3351,F4,516.25,73/250,49,166.74
3352,G#4,516.5,73/250,51,166.74
3353,G#2,516.5,0.25,39,166.74
3354,C#5,516.75,73/250,51,166.74
3355,F5,517.0,73/250,54,166.74
3356,C#2,517.0,0.25,43,166.74
3357,G#4,517.25,73/250,49,166.74
3358,C#5,517.5,73/250,51,166.74
3359,G#2,517.5,0.25,39,166.74
3360,F5,517.75,73/250,51,166.74
3361,G#5,518.0,73/250,53,166.74
3362,C#2,518.0,0.25,43,166.74
3363,C#5,518.25,73/250,50,166.74
3364,F5,518.5,73/250,51,166.74
3365,G#2,518.5,0.25,39,166.74
3366,G#5,518.75,0.25,52,166.74
3367,C#5,519.0,0.25,86,166.74
3368,F5,519.0,0.25,86,166.74
3369,G#5,519.0,0.25,86,166.74
3370,C#6,519.0,0.25,86,166.74
3371,C#3,519.0,0.25,70,166.74
3372,C#2,519.0,0.25,70,166.74
3373,G#2,519.5,0.25,64,166.74
3374,G#5,519.5,0.25,72,166.74
3375,C#5,519.5,0.25,72,166.74
3376,C#6,519.5,0.25,72,166.74
3377,F5,519.5,0.25,72,166.74
3378,B1,520.0,0.25,68,166.74
3379,C#3,520.25,73/250,51,166.74
3380,F3,520.5,73/250,52,166.74
3381,G#2,520.5,0.25,43,166.74
3382,G#3,520.75,73/250,54,166.74
3383,C#4,521.0,73/250,56,166.74
3384,B1,521.0,0.25,47,166.74
3385,F3,521.25,73/250,51,166.74
3386,G#3,521.5,73/250,53,166.74
3387,G#2,521.5,0.25,44,166.74
3388,C#4,521.75,73/250,54,166.74
3389,F4,522.0,73/250,56,166.74
3390,B1,522.0,0.25,48,166.74
3391,G#3,522.25,73/250,51,166.74
3392,C#4,522.5,73/250,53,166.74
3393,G#2,522.5,0.25,43,166.74
3394,F4,522.75,73/250,56,166.74
3395,G#4,523.0,73/250,57,166.74
3396,B1,523.0,0.25,48,166.74
3397,C#4,523.25,73/250,51,166.74
3398,F4,523.5,73/250,53,166.74
3399,G#2,523.5,0.25,44,166.74
3400,G#4,523.75,0.25,56,166.74
3401,C#5,524.0,73/250,57,166.74
3402,G#4,524.0,21/500,56,166.74
3403,B1,524.0,0.25,48,166.74
3404,F4,524.25,73/250,53,166.74
3405,G#4,524.5,73/250,56,166.74
3406,G#2,524.5,0.25,44,166.74
3407,C#5,524.75,73/250,57,166.74
3408,F5,525.0,73/250,57,166.74
3409,B1,525.0,0.25,48,166.74
3410,G#4,525.25,73/250,52,166.74
3411,C#5,525.5,73/250,54,166.74
3412,G#2,525.5,0.25,44,166.74
3413,F5,525.75,73/250,56,166.74
3414,G#5,526.0,73/250,58,166.74
3415,B1,526.0,0.25,48,166.74
3416,C#5,526.25,73/250,52,166.74
3417,F5,526.5,73/250,56,166.74
3418,G#2,526.5,0.25,44,166.74
3419,G#5,526.75,0.25,59,166.74
3420,C#5,527.0,0.25,86,166.74
3421,F5,527.0,0.25,86,166.74
3422,C#6,527.0,0.25,86,166.74
3423,G#5,527.0,0.25,86,166.74
3424,B1,527.0,0.25,70,166.74
3425,B2,527.0,0.25,70,166.74
3426,G#2,527.5,0.25,64,166.74
3427,F5,527.5,0.25,74,166.74
3428,G#5,527.5,0.25,74,166.74
3429,C#5,527.5,0.25,74,166.74
3430,C#6,527.5,0.25,74,166.74
3431,A1,528.0,0.25,68,166.74
3432,C#3,528.25,73/250,62,166.74
3433,F#3,528.5,73/250,62,166.74
3434,A2,528.5,0.25,51,166.74
3435,A3,528.75,73/250,65,166.74
3436,C#4,529.0,0.125,67,166.74
3437,A1,529.0,0.25,55,166.74
3438,C#4,529.25,73/250,62,166.74
3439,F#4,529.5,73/250,65,166.74
3440,A2,529.5,0.25,51,166.74
3441,A4,529.75,73/250,67,166.74
3442,C#5,530.0,0.125,68,166.74
3443,A1,530.0,0.25,55,166.74
3444,C#5,530.25,73/250,62,166.74
3445,F#5,530.5,73/250,65,166.74
3446,A2,530.5,0.25,51,166.74
3447,A5,530.75,0.25,68,166.74
3448,A1,531.0,0.25,83,166.74
3449,F#5,531.0,0.25,93,166.74
3450,C#5,531.0,0.25,93,166.74
3451,A5,531.0,0.25,93,166.74
3452,C#6,531.0,0.25,93,166.74
3453,A2,531.5,0.25,71,166.74
3454,F#5,531.5,0.25,79,166.74
3455,C#6,531.5,0.25,79,166.74
3456,A5,531.5,0.25,79,166.74
3457,C#5,531.5,0.25,79,166.74
3458,F1,532.0,0.25,56,166.74
3459,C#3,532.25,73/250,62,166.74
3460,G#3,532.5,73/250,62,166.74
3461,F2,532.5,0.25,52,166.74
3462,B3,532.75,73/250,66,166.74
3463,C#4,533.0,0.125,68,166.74
3464,F1,533.0,0.25,53,166.74
3465,C#4,533.25,73/250,62,166.74
3466,G#4,533.5,73/250,63,166.74
3467,F2,533.5,0.25,51,166.74
3468,B4,533.75,73/250,67,166.74
3469,C#5,534.0,0.125,68,166.74
3470,F1,534.0,0.25,53,166.74
3471,C#5,534.25,73/250,62,166.74
3472,G#5,534.5,73/250,63,166.74
3473,F2,534.5,0.25,50,166.74
3474,B5,534.75,0.25,67,166.74
3475,F1,535.0,0.25,83,166.74
3476,C#5,535.0,0.25,96,166.74
3477,G#5,535.0,0.25,96,166.74
3478,C#6,535.0,0.25,96,166.74
3479,B5,535.0,0.25,96,166.74
3480,F2,535.5,0.25,77,166.74
3481,C#6,535.5,0.25,84,166.74
3482,B5,535.5,0.25,84,166.74
3483,G#5,535.5,0.25,84,166.74
3484,C#5,535.5,0.25,84,166.74
3485,C#5,536.0,0.5,88,166.74
3486,C#6,536.0,0.5,88,166.74
3487,A5,536.0,0.5,88,166.74
3488,F#5,536.0,0.5,88,166.74
3489,F#1,536.0,0.25,78,166.74
3490,F#2,536.0,0.25,78,166.74
3491,C#4,536.25,73/250,29,166.74
3492,A3,536.5,73/250,34,166.74
3493,C#4,536.75,73/250,29,166.74
3494,C#5,537.0,1021/500,68,166.74
3495,F#3,537.0,31/125,41,166.74
3496,C#4,537.25,31/125,28,166.74
3497,A3,537.5,31/125,31,166.74
3498,C#4,537.75,31/125,28,166.74
3499,F#3,538.0,31/125,38,166.74
3500,C#4,538.25,31/125,28,166.74
3501,A3,538.5,31/125,32,166.74
3502,C#4,538.75,31/125,29,166.74
3503,A4,539.0,99/125,51,166.74
3504,F#3,539.0,31/125,38,166.74
3505,C#4,539.25,31/125,29,166.74
3506,A3,539.5,31/125,32,166.74
3507,F#4,539.75,0.125,51,166.74
3508,C#4,539.75,31/125,28,166.74
3509,F4,539.875,21/500,41,166.74
3510,F#4,539.875,21/500,41,166.74
3511,G#4,539.958,21/500,41,166.74
3512,F#4,540.0,521/500,62,166.74
3513,G#3,540.0,73/250,37,166.74
3514,C#4,540.25,73/250,28,166.74
3515,B3,540.5,73/250,31,166.74
3516,C#4,540.75,73/250,26,166.74
3517,F4,541.0,1.5,51,166.74
3518,G#3,541.0,31/125,43,166.74
3519,C#4,541.25,31/125,39,166.74
3520,B3,541.5,31/125,47,166.74
3521,C#4,541.75,31/125,43,166.74
3522,G#3,542.0,31/125,55,166.74
3523,C#4,542.25,31/125,44,166.74
3524,F4,542.5,271/500,51,166.74
3525,B3,542.5,31/125,51,166.74
3526,C#4,542.75,31/125,47,166.74
3527,C#5,543.0,0.75,56,166.74
3528,G#3,543.0,31/125,62,166.74
3529,C#4,543.25,31/125,49,166.74
3530,B3,543.5,31/125,51,166.74
3531,F4,543.75,0.25,51,166.74
3532,C#4,543.75,31/125,43,166.74
3533,G#4,544.0,521/500,51,166.74
3534,A3,544.0,31/125,37,166.74
3535,C#4,544.25,31/125,30,166.74
3536,A3,544.5,31/125,34,166.74
3537,C#4,544.75,31/125,29,166.74
3538,F#4,545.0,1.5,51,166.74
3539,A3,545.0,31/125,43,166.74
3540,C#4,545.25,31/125,37,166.74
3541,A3,545.5,31/125,47,166.74
3542,C#4,545.75,31/125,43,166.74
3543,A3,546.0,31/125,55,166.74
3544,C#4,546.25,31/125,44,166.74
3545,F#4,546.5,271/500,52,166.74
3546,A3,546.5,31/125,52,166.74
3547,C#4,546.75,31/125,47,166.74
3548,C#5,547.0,99/125,56,166.74
3549,A3,547.0,31/125,64,166.74
3550,C#4,547.25,31/125,48,166.74
3551,A3,547.5,31/125,49,166.74
3552,F#4,547.75,0.25,51,166.74
3553,C#4,547.75,31/125,40,166.74
3554,A4,548.0,521/500,49,166.74
3555,F3,548.0,31/125,39,166.74
3556,C#4,548.25,31/125,29,166.74
3557,F3,548.5,31/125,32,166.74
3558,C#4,548.75,31/125,29,166.74
3559,G#4,549.0,1.5,52,166.74
3560,F3,549.0,31/125,39,166.74
3561,C#4,549.25,31/125,34,166.74
3562,F3,549.5,31/125,46,166.74
3563,C#4,549.75,31/125,42,166.74
3564,F3,550.0,31/125,55,166.74
3565,C#4,550.25,31/125,44,166.74
3566,G#4,550.5,271/500,52,166.74
3567,F3,550.5,31/125,54,166.74
3568,C#4,550.75,31/125,51,166.74
3569,C#5,551.0,0.75,58,166.74
3570,F3,551.0,31/125,62,166.74
3571,C#4,551.25,31/125,46,166.74
3572,F3,551.5,31/125,48,166.74
3573,G#4,551.75,0.25,51,166.74
3574,C#4,551.75,31/125,39,166.74
3575,A4,552.0,73/250,39,166.74
3576,F#3,552.0,0.5,41,166.74
3577,C#5,552.25,73/250,31,166.74
3578,A4,552.5,73/250,34,166.74
3579,C#5,552.75,73/250,30,166.74
3580,F#4,553.0,73/250,39,166.74
3581,C#4,553.0,2.0,56,166.74
3582,C#5,553.25,73/250,31,166.74
3583,A4,553.5,73/250,34,166.74
3584,C#5,553.75,73/250,31,166.74
3585,F#4,554.0,73/250,39,166.74
3586,C#5,554.25,73/250,32,166.74
3587,A4,554.5,73/250,34,166.74
3588,C#5,554.75,73/250,30,166.74
3589,F#4,555.0,73/250,39,166.74
3590,A3,555.0,0.75,48,166.74
3591,C#5,555.25,73/250,32,166.74
3592,A4,555.5,73/250,34,166.74
3593,C#5,555.75,0.25,31,166.74
3594,F#3,555.75,6/25,48,166.74
3595,G#4,556.0,73/250,39,166.74
3596,C#5,556.0,21/500,31,166.74
3597,F#3,556.0,1.0,54,166.74
3598,C#5,556.25,73/250,32,166.74
3599,B4,556.5,73/250,34,166.74
3600,C#5,556.75,73/250,32,166.74
3601,G#4,557.0,73/250,47,166.74
3602,F3,557.0,1.5,47,166.74
3603,C#5,557.25,73/250,41,166.74
3604,B4,557.5,73/250,47,166.74
3605,C#5,557.75,73/250,44,166.74
3606,G#4,558.0,73/250,58,166.74
3607,C#5,558.25,73/250,47,166.74
3608,B4,558.5,73/250,54,166.74
3609,F3,558.5,0.5,47,166.74
3610,C#5,558.75,73/250,50,166.74
3611,G#4,559.0,73/250,64,166.74
3612,C#4,559.0,0.75,56,166.74
3613,C#5,559.25,73/250,49,166.74
3614,B4,559.5,73/250,51,166.74
3615,C#5,559.75,0.25,44,166.74
3616,F3,559.75,6/25,47,166.74
3617,F#4,560.0,73/250,39,166.74
3618,C#5,560.0,21/500,44,166.74
3619,G#3,560.0,1.0,43,166.74
3620,C#5,560.25,73/250,31,166.74
3621,A4,560.5,73/250,34,166.74
3622,C#5,560.75,73/250,39,166.74
3623,F#4,561.0,73/250,48,166.74
3624,F#3,561.0,1.5,47,166.74
3625,C#5,561.25,73/250,42,166.74
3626,A4,561.5,73/250,48,166.74
3627,C#5,561.75,73/250,45,166.74
3628,F#4,562.0,73/250,58,166.74
3629,C#5,562.25,73/250,48,166.74
3630,A4,562.5,73/250,54,166.74
3631,F#3,562.5,0.5,48,166.74
3632,C#5,562.75,73/250,50,166.74
3633,F#4,563.0,73/250,64,166.74
3634,C#4,563.0,0.75,53,166.74
3635,C#5,563.25,73/250,51,166.74
3636,A4,563.5,73/250,51,166.74
3637,C#5,563.75,0.25,45,166.74
3638,F#3,563.75,6/25,47,166.74
3639,F#4,564.0,73/250,39,166.74
3640,C#5,564.0,21/500,45,166.74
3641,F#3,564.0,0.25,54,166.74
3642,D5,564.25,73/250,31,166.74
3643,A4,564.5,73/250,34,166.74
3644,F#3,564.5,0.5,49,166.74
3645,D5,564.75,73/250,32,166.74
3646,F#4,565.0,73/250,45,166.74
3647,D4,565.0,0.75,53,166.74
3648,D5,565.25,73/250,31,166.74
3649,A4,565.5,73/250,34,166.74
3650,D5,565.75,73/250,34,166.74
3651,F#3,565.75,0.25,58,166.74
3652,A4,566.0,73/250,48,166.74
3653,F#3,566.0,0.25,58,166.74
3654,D5,566.25,73/250,34,166.74
3655,C5,566.5,73/250,38,166.74
3656,F#3,566.5,0.5,61,166.74
3657,D5,566.75,73/250,34,166.74
3658,A4,567.0,73/250,53,166.74
3659,D4,567.0,0.75,62,166.74
3660,D5,567.25,73/250,34,166.74
3661,C5,567.5,73/250,39,166.74
3662,D5,567.75,0.25,34,166.74
3663,F#3,567.75,0.25,62,166.74
3664,G4,568.0,73/250,53,166.74
3665,D5,568.0,21/500,34,166.74
3666,G3,568.0,0.5,66,166.74
3667,D5,568.25,73/250,32,166.74
3668,B4,568.5,73/250,34,166.74
3669,D5,568.75,73/250,32,166.74
3670,G4,569.0,73/250,39,166.74
3671,D3,569.0,2.0,48,166.74
3672,D5,569.25,73/250,33,166.74
3673,B4,569.5,73/250,35,166.74
3674,D5,569.75,73/250,31,166.74
3675,G4,570.0,73/250,39,166.74
3676,D5,570.25,73/250,32,166.74
3677,B4,570.5,73/250,34,166.74
3678,D5,570.75,73/250,31,166.74
3679,G4,571.0,73/250,39,166.74
3680,B2,571.0,0.75,48,166.74
3681,D5,571.25,73/250,32,166.74
3682,B4,571.5,73/250,34,166.74
3683,D5,571.75,0.25,32,166.74
3684,G2,571.75,0.25,48,166.74
3685,A4,572.0,73/250,39,166.74
3686,D5,572.0,21/500,32,166.74
3687,G2,572.0,1.0,57,166.74
3688,D5,572.25,73/250,32,166.74
3689,C5,572.5,73/250,35,166.74
3690,D5,572.75,73/250,32,166.74
3691,A4,573.0,73/250,50,166.74
3692,F#2,573.0,1.5,48,166.74
3693,D5,573.25,73/250,41,166.74
3694,C5,573.5,73/250,47,166.74
3695,D5,573.75,73/250,44,166.74
3696,A4,574.0,73/250,58,166.74
3697,D5,574.25,73/250,46,166.74
3698,C5,574.5,73/250,54,166.74
3699,F#2,574.5,0.5,48,166.74
3700,D5,574.75,73/250,49,166.74
3701,A4,575.0,73/250,63,166.74
3702,D3,575.0,0.75,60,166.74
3703,D5,575.25,73/250,49,166.74
3704,C5,575.5,73/250,51,166.74
3705,D5,575.75,0.25,44,166.74
3706,F#2,575.75,0.25,47,166.74
3707,G4,576.0,73/250,39,166.74
3708,D5,576.0,21/500,44,166.74
3709,A2,576.0,1.0,66,166.74
3710,D5,576.25,73/250,32,166.74
3711,B4,576.5,73/250,34,166.74
3712,D5,576.75,73/250,31,166.74
3713,G4,577.0,73/250,50,166.74
3714,G2,577.0,1.5,57,166.74
3715,D5,577.25,73/250,42,166.74
3716,B4,577.5,73/250,48,166.74
3717,D5,577.75,73/250,46,166.74
3718,G4,578.0,73/250,61,166.74
3719,D5,578.25,73/250,49,166.74
3720,B4,578.5,73/250,55,166.74
3721,G2,578.5,0.5,59,166.74
3722,D5,578.75,73/250,52,166.74
3723,G4,579.0,73/250,69,166.74
3724,D3,579.0,0.75,66,166.74
3725,D5,579.25,73/250,54,166.74
3726,B4,579.5,73/250,55,166.74
3727,D5,579.75,0.25,45,166.74
3728,F#2,579.75,6/25,57,166.74
3729,G#4,580.0,73/250,43,166.74
3730,D5,580.0,21/500,45,166.74
3731,F#2,580.0,1.0,73,166.74
3732,D5,580.25,73/250,34,166.74
3733,B4,580.5,73/250,38,166.74
3734,D5,580.75,73/250,34,166.74
3735,G#4,581.0,73/250,56,166.74
3736,F2,581.0,1.5,62,166.74
3737,C#5,581.25,73/250,45,166.74
3738,B4,581.5,73/250,54,166.74
3739,C#5,581.75,73/250,48,166.74
3740,G#4,582.0,73/250,67,166.74
3741,C#5,582.25,73/250,52,166.74
3742,B4,582.5,73/250,65,166.74
3743,F2,582.5,0.5,62,166.74
3744,C#5,582.75,73/250,55,166.74
3745,G#4,583.0,73/250,78,166.74
3746,C#3,583.0,0.75,71,166.74
3747,C#5,583.25,73/250,59,166.74
3748,B4,583.5,73/250,61,166.74
3749,C#5,583.75,0.25,49,166.74
3750,F2,583.75,0.25,62,166.74
3751,F#4,584.0,73/250,57,166.74
3752,C#5,584.0,21/500,49,166.74
3753,F#2,584.0,0.25,75,166.74
3754,C#5,584.25,73/250,44,166.74
3755,A4,584.5,73/250,47,166.74
3756,F#2,584.5,0.5,67,166.74
3757,C#5,584.75,73/250,43,166.74
3758,F#4,585.0,73/250,56,166.74
3759,A2,585.0,0.5,67,166.74
3760,C#5,585.25,73/250,44,166.74
3761,A4,585.5,73/250,47,166.74
3762,F#2,585.5,0.5,61,166.74
3763,C#5,585.75,73/250,44,166.74
3764,F#4,586.0,73/250,56,166.74
3765,D2,586.0,0.25,75,166.74
3766,F#5,586.25,73/250,43,166.74
3767,A4,586.5,73/250,46,166.74
3768,D2,586.5,0.5,68,166.74
3769,F#5,586.75,73/250,42,166.74
3770,F#4,587.0,73/250,54,166.74
3771,F#2,587.0,0.5,67,166.74
3772,F#5,587.25,73/250,45,166.74
3773,A4,587.5,73/250,47,166.74
3774,D2,587.5,0.5,62,166.74
3775,F#5,587.75,0.25,43,166.74
3776,F#4,588.0,73/250,62,166.74
3777,F#5,588.0,21/500,43,166.74
3778,C2,588.0,2.25,76,166.74
3779,F#5,588.25,73/250,41,166.74
3780,E-5,588.5,73/250,47,166.74
3781,G#4,588.5,73/250,47,166.74
3782,F#5,588.75,73/250,42,166.74
3783,F#4,589.0,73/250,59,166.74
3784,F#5,589.25,73/250,43,166.74
3785,E-5,589.5,73/250,47,166.74
3786,G#4,589.5,73/250,47,166.74
3787,F#5,589.75,73/250,44,166.74
3788,F#4,590.0,73/250,58,166.74
3789,F#5,590.25,73/250,45,166.74
3790,C2,590.5,0.5,68,166.74
3791,G#4,590.5,73/250,47,166.74
3792,E-5,590.5,73/250,47,166.74
3793,F#5,590.75,73/250,42,166.74
3794,F#4,591.0,73/250,58,166.74
3795,E-2,591.0,0.5,68,166.74
3796,F#5,591.25,73/250,43,166.74
3797,C2,591.5,0.5,65,166.74
3798,E-5,591.5,73/250,47,166.74
3799,G#4,591.5,73/250,47,166.74
3800,F#5,591.75,0.25,42,166.74
3801,E4,592.0,73/250,65,166.74
3802,F#5,592.0,21/500,42,166.74
3803,C#2,592.0,0.25,73,166.74
3804,E5,592.25,73/250,52,166.74
3805,C#5,592.5,73/250,56,166.74
3806,C#2,592.5,0.5,68,166.74
3807,E5,592.75,73/250,52,166.74
3808,E4,593.0,73/250,65,166.74
3809,E2,593.0,0.5,68,166.74
3810,E5,593.25,73/250,52,166.74
3811,C#5,593.5,73/250,56,166.74
3812,C#2,593.5,0.5,65,166.74
3813,E5,593.75,73/250,51,166.74
3814,E4,594.0,73/250,65,166.74
3815,A1,594.0,0.25,76,166.74
3816,E5,594.25,73/250,53,166.74
3817,C#5,594.5,73/250,57,166.74
3818,A1,594.5,0.5,68,166.74
3819,E5,594.75,73/250,51,166.74
3820,E4,595.0,73/250,65,166.74
3821,C#2,595.0,0.5,68,166.74
3822,E5,595.25,73/250,53,166.74
3823,C#5,595.5,73/250,57,166.74
3824,A1,595.5,0.5,67,166.74
3825,E5,595.75,0.25,52,166.74
3826,E-4,596.0,73/250,65,166.74
3827,E5,596.0,21/500,52,166.74
3828,F#1,596.0,0.25,75,166.74
3829,E-5,596.25,73/250,53,166.74
3830,C#5,596.5,73/250,58,166.74
3831,F#1,596.5,0.5,68,166.74
3832,E-5,596.75,73/250,52,166.74
3833,E-4,597.0,73/250,65,166.74
3834,A1,597.0,0.5,68,166.74
3835,E-5,597.25,73/250,51,166.74
3836,C#5,597.5,73/250,57,166.74
3837,F#1,597.5,0.5,67,166.74
3838,E-5,597.75,73/250,52,166.74
3839,E-4,598.0,73/250,65,166.74
3840,G1,598.0,0.25,77,166.74
3841,E-5,598.25,73/250,51,166.74
3842,C#5,598.5,73/250,56,166.74
3843,G1,598.5,0.5,67,166.74
3844,E-5,598.75,73/250,51,166.74
3845,E-4,599.0,73/250,65,166.74
3846,B-1,599.0,0.5,67,166.74
3847,E-5,599.25,73/250,51,166.74
3848,C#5,599.5,73/250,56,166.74
3849,G1,599.5,0.5,67,166.74
3850,E-5,599.75,0.25,51,166.74
3851,G#1,600.0,73/250,39,166.74
3852,E-4,600.0,0.5,75,166.74
3853,C5,600.0,0.5,75,166.74
3854,E-5,600.0,0.5,75,166.74
3855,G#2,600.25,73/250,33,166.74
3856,G#1,600.5,73/250,39,166.74
3857,G#2,600.75,73/250,31,166.74
3858,G#4,601.0,2.0,54,166.74
3859,G#1,601.0,31/125,39,166.74
3860,G#2,601.25,31/125,32,166.74
3861,G#1,601.5,31/125,39,166.74
3862,G#2,601.75,31/125,32,166.74
3863,G#1,602.0,31/125,39,166.74
3864,G#2,602.25,31/125,34,166.74
3865,G#1,602.5,31/125,39,166.74
3866,G#2,602.75,31/125,34,166.74
3867,A4,603.0,0.5,51,166.74
3868,G#1,603.0,31/125,39,166.74
3869,G#2,603.25,31/125,32,166.74
3870,G#4,603.5,0.5,51,166.74
3871,G#1,603.5,31/125,39,166.74
3872,G#2,603.75,31/125,34,166.74
3873,F#4,604.0,1.0,59,166.74
3874,G#1,604.0,31/125,39,166.74
3875,A3,604.0,2.0,50,166.74
3876,C#4,604.0,2.0,50,166.74
3877,G#2,604.25,31/125,33,166.74
3878,G#1,604.5,31/125,39,166.74
3879,G#2,604.75,31/125,32,166.74
3880,G#4,605.0,0.5,49,166.74
3881,G#1,605.0,31/125,39,166.74
3882,G#2,605.25,31/125,33,166.74
3883,F#4,605.5,0.5,49,166.74
3884,G#1,605.5,31/125,39,166.74
3885,G#2,605.75,31/125,33,166.74
3886,E4,606.0,1.0,59,166.74
3887,G#1,606.0,31/125,39,166.74
3888,B3,606.0,2.0,50,166.74
3889,G#3,606.0,2.0,50,166.74
3890,G#2,606.25,31/125,33,166.74
3891,G#1,606.5,31/125,39,166.74
3892,G#2,606.75,31/125,34,166.74
3893,F#4,607.0,0.5,48,166.74
3894,G#1,607.0,31/125,39,166.74
3895,G#2,607.25,31/125,33,166.74
3896,E4,607.5,0.5,48,166.74
3897,G#1,607.5,31/125,39,166.74
3898,G#2,607.75,31/125,32,166.74
3899,E-4,608.0,1.0,58,166.74
3900,G#1,608.0,31/125,39,166.74
3901,F#3,608.0,2.0,49,166.74
3902,A3,608.0,2.0,49,166.74
3903,G#2,608.25,31/125,33,166.74
3904,G#1,608.5,31/125,39,166.74
3905,G#2,608.75,31/125,33,166.74
3906,E4,609.0,0.5,47,166.74
3907,G#1,609.0,31/125,39,166.74
3908,G#2,609.25,31/125,33,166.74
3909,E-4,609.5,0.5,47,166.74
3910,G#1,609.5,31/125,39,166.74
3911,G#2,609.75,31/125,33,166.74
3912,C#4,610.0,1.0,58,166.74
3913,G#1,610.0,31/125,39,166.74
3914,E3,610.0,2.0,49,166.74
3915,G#3,610.0,2.0,49,166.74
3916,G#2,610.25,31/125,33,166.74
3917,G#1,610.5,31/125,39,166.74
3918,G#2,610.75,31/125,33,166.74
3919,E-4,611.0,0.5,51,166.74
3920,G#1,611.0,31/125,39,166.74
3921,G#2,611.25,31/125,33,166.74
3922,C#4,611.5,0.5,51,166.74
3923,G#1,611.5,31/125,39,166.74
3924,G#2,611.75,31/125,34,166.74
3925,G#1,612.0,31/125,39,166.74
3926,C4,612.0,2.0,52,166.74
3927,F#3,612.0,2.0,52,166.74
3928,E-3,612.0,2.0,52,166.74
3929,G#2,612.25,31/125,34,166.74
3930,G#1,612.5,31/125,39,166.74
3931,G#2,612.75,31/125,33,166.74
3932,G#1,613.0,31/125,39,166.74
3933,G#2,613.25,31/125,34,166.74
3934,G#1,613.5,31/125,39,166.74
3935,G#2,613.75,31/125,34,166.74
3936,G#1,614.0,73/250,39,166.74
3937,C#3,614.0,1.75,51,166.74
3938,C#4,614.0,1.75,51,166.74
3939,E3,614.0,1.75,51,166.74
3940,G#2,614.25,73/250,34,166.74
3941,G#1,614.5,73/250,39,166.74
3942,G#2,614.75,73/250,32,166.74
3943,G#1,615.0,73/250,37,166.74
3944,G#2,615.25,73/250,33,166.74
3945,G#1,615.5,73/250,37,166.74
3946,C3,615.75,0.125,48,166.74
3947,G#2,615.75,0.25,31,166.74
3948,G#3,615.875,0.125,48,166.74
3949,E-4,616.0,0.75,58,166.74
3950,G#1,616.0,31/125,37,166.74
3951,G#2,616.0,21/500,31,166.74
3952,G#2,616.25,31/125,33,166.74
3953,G#1,616.5,31/125,37,166.74
3954,G#2,616.75,31/125,32,166.74
3955,G#5,617.0,1.5,63,166.74
3956,G#1,617.0,31/125,37,166.74
3957,G#2,617.25,31/125,32,166.74
3958,G#1,617.5,31/125,37,166.74
3959,G#2,617.75,31/125,33,166.74
3960,G#1,618.0,31/125,39,166.74
3961,G#2,618.25,31/125,34,166.74
3962,G#5,618.5,0.25,67,166.74
3963,G#1,618.5,31/125,40,166.74
3964,G#2,618.75,31/125,34,166.74
3965,A5,619.0,0.25,68,166.74
3966,G#1,619.0,73/250,41,166.74
3967,G#2,619.25,73/250,37,166.74
3968,G#5,619.5,0.25,66,166.74
3969,G#1,619.5,73/250,41,166.74
3970,G#2,619.75,0.25,38,166.74
3971,F#5,620.0,0.25,68,166.74
3972,G#1,620.0,73/250,43,166.74
3973,G#2,620.0,21/500,38,166.74
3974,G#2,620.25,73/250,38,166.74
3975,G#1,620.5,73/250,44,166.74
3976,C#5,620.5,0.25,53,166.74
3977,A4,620.5,0.25,53,166.74
3978,F#5,620.5,0.25,53,166.74
3979,G#2,620.75,73/250,39,166.74
3980,G#1,621.0,73/250,45,166.74
3981,B4,621.0,0.25,54,166.74
3982,G#5,621.0,0.25,54,166.74
3983,E-5,621.0,0.25,54,166.74
3984,G#2,621.25,73/250,40,166.74
3985,G#1,621.5,73/250,46,166.74
3986,A4,621.5,0.25,54,166.74
3987,C#5,621.5,0.25,54,166.74
3988,F#5,621.5,0.25,54,166.74
3989,G#2,621.75,73/250,41,166.74
3990,G#1,622.0,73/250,47,166.74
3991,B4,622.0,0.25,56,166.74
3992,E5,622.0,0.25,56,166.74
3993,G#4,622.0,0.25,56,166.74
3994,G#2,622.25,73/250,41,166.74
3995,G#1,622.5,73/250,48,166.74
3996,G#4,622.5,0.25,57,166.74
3997,B4,622.5,0.25,57,166.74
3998,E5,622.5,0.25,57,166.74
3999,G#2,622.75,73/250,43,166.74
4000,G#1,623.0,73/250,49,166.74
4001,A4,623.0,0.25,58,166.74
4002,C#5,623.0,0.25,58,166.74
4003,F#5,623.0,0.25,58,166.74
4004,G#2,623.25,73/250,44,166.74
4005,G#1,623.5,73/250,50,166.74
4006,E5,623.5,0.25,59,166.74
4007,G#4,623.5,0.25,59,166.74
4008,B4,623.5,0.25,59,166.74
4009,G#2,623.75,0.25,45,166.74
4010,G#1,624.0,73/250,51,166.74
4011,G#2,624.0,21/500,45,166.74
4012,A4,624.0,0.25,59,166.74
4013,E-5,624.0,0.25,59,166.74
4014,F#4,624.0,0.25,59,166.74
4015,G#2,624.25,73/250,46,166.74
4016,G#1,624.5,73/250,51,166.74
4017,A4,624.5,0.25,60,166.74
4018,E-5,624.5,0.25,60,166.74
4019,F#4,624.5,0.25,60,166.74
4020,G#2,624.75,73/250,47,166.74
4021,G#1,625.0,73/250,53,166.74
4022,G#4,625.0,0.25,63,166.74
4023,B4,625.0,0.25,63,166.74
4024,E5,625.0,0.25,63,166.74
4025,G#2,625.25,73/250,50,166.74
4026,G#1,625.5,73/250,54,166.74
4027,F#4,625.5,0.25,63,166.74
4028,A4,625.5,0.25,63,166.74
4029,E-5,625.5,0.25,63,166.74
4030,G#2,625.75,73/250,51,166.74
4031,G#1,626.0,73/250,54,166.74
4032,C#5,626.0,0.25,64,166.74
4033,G#4,626.0,0.25,64,166.74
4034,E4,626.0,0.25,64,166.74
4035,G#2,626.25,73/250,51,166.74
4036,G#1,626.5,73/250,49,166.74
4037,E4,626.5,0.25,64,166.74
4038,C#5,626.5,0.25,64,166.74
4039,G#4,626.5,0.25,64,166.74
4040,G#2,626.75,73/250,47,166.74
4041,G#1,627.0,73/250,44,166.74
4042,F#4,627.0,0.25,57,166.74
4043,E-5,627.0,0.25,57,166.74
4044,A4,627.0,0.25,57,166.74
4045,G#2,627.25,73/250,35,166.74
4046,G#1,627.5,73/250,39,166.74
4047,G#4,627.5,0.25,51,166.74
4048,E4,627.5,0.25,51,166.74
4049,C#5,627.5,0.25,51,166.74
4050,G#2,627.75,0.25,34,166.74
4051,G#1,628.0,31/125,39,166.74
4052,G#2,628.0,21/500,34,166.74
4053,C5,628.0,2.0,45,166.74
4054,E-4,628.0,2.0,45,166.74
4055,F#4,628.0,2.0,45,166.74
4056,G#2,628.25,31/125,33,166.74
4057,G#1,628.5,31/125,37,166.74
4058,G#2,628.75,31/125,35,166.74
4059,G#1,629.0,31/125,37,166.74
4060,G#2,629.25,31/125,32,166.74
4061,G#1,629.5,31/125,37,166.74
4062,G#2,629.75,31/125,33,166.74
4063,G#1,630.0,31/125,39,166.74
4064,E4,630.0,1.75,53,166.74
4065,C#5,630.0,1.75,53,166.74
4066,C#4,630.0,1.75,53,166.74
4067,G#2,630.25,31/125,34,166.74
4068,G#1,630.5,31/125,39,166.74
4069,G#2,630.75,31/125,35,166.74
4070,G#1,631.0,31/125,41,166.74
4071,G#2,631.25,31/125,39,166.74
4072,G#1,631.5,31/125,45,166.74
4073,C4,631.75,0.125,49,166.74
4074,G#2,631.75,31/125,41,166.74
4075,F#4,631.875,0.125,59,166.74
4076,E-5,632.0,3.0,80,166.74
4077,F#4,632.0,3.0,59,166.74
4078,G#1,632.0,31/125,46,166.74
4079,G#2,632.25,31/125,42,166.74
4080,G#1,632.5,31/125,49,166.74
4081,G#2,632.75,31/125,44,166.74
4082,G#1,633.0,31/125,51,166.74
4083,G#2,633.25,31/125,45,166.74
4084,G#1,633.5,31/125,51,166.74
4085,G#2,633.75,31/125,44,166.74
4086,G#1,634.0,31/125,45,166.74
4087,G#2,634.25,31/125,41,166.74
4088,G#1,634.5,31/125,41,166.74
4089,G#2,634.75,31/125,37,166.74
4090,G#1,635.0,73/250,41,166.74
4091,C#5,635.0,1.0,55,166.74
4092,E4,635.0,1.0,55,166.74
4093,C#4,635.0,1.0,55,166.74
4094,G#2,635.25,73/250,35,166.74
4095,G#1,635.5,73/250,39,166.74
4096,G#2,635.75,0.25,33,166.74
4097,G#1,636.0,73/250,37,166.74
4098,G#2,636.0,21/500,33,166.74
4099,E-4,636.0,0.5,44,166.74
4100,C5,636.0,0.5,44,166.74
4101,F#4,636.0,0.5,44,166.74
4102,G#2,636.25,73/250,34,166.74
4103,G#1,636.5,73/250,37,166.74
4104,G#2,636.75,73/250,32,166.74
4105,G#1,637.0,73/250,37,166.74
4106,F#4,637.0,0.5,50,166.74
4107,C5,637.0,0.5,50,166.74
4108,E-4,637.0,0.5,50,166.74
4109,G#2,637.25,73/250,33,166.74
4110,G#1,637.5,73/250,37,166.74
4111,G#2,637.75,73/250,35,166.74
4112,G#1,638.0,73/250,35,166.74
4113,C#5,638.0,0.5,59,166.74
4114,E4,638.0,0.5,59,166.74
4115,C#4,638.0,0.5,59,166.74
4116,G#2,638.25,73/250,34,166.74
4117,G#1,638.5,73/250,41,166.74
4118,G#2,638.75,73/250,37,166.74
4119,G#1,639.0,73/250,43,166.74
4120,E4,639.0,0.5,64,166.74
4121,C#4,639.0,0.5,64,166.74
4122,C#5,639.0,0.5,64,166.74
4123,G#2,639.25,73/250,39,166.74
4124,G#1,639.5,73/250,47,166.74
4125,C4,639.75,0.125,51,166.74
4126,G#2,639.75,0.25,42,166.74
4127,F#4,639.875,0.125,59,166.74
4128,E-5,640.0,3.0,80,166.74
4129,F#4,640.0,3.0,59,166.74
4130,G#1,640.0,31/125,47,166.74
4131,G#2,640.0,21/500,42,166.74
4132,G#2,640.25,31/125,43,166.74
4133,G#1,640.5,31/125,51,166.74
4134,G#2,640.75,31/125,47,166.74
4135,G#1,641.0,31/125,56,166.74
4136,G#2,641.25,31/125,48,166.74
4137,G#1,641.5,31/125,54,166.74
4138,G#2,641.75,31/125,47,166.74
4139,G#1,642.0,31/125,49,166.74
4140,G#2,642.25,31/125,45,166.74
4141,G#1,642.5,31/125,49,166.74
4142,G#2,642.75,31/125,41,166.74
4143,G#1,643.0,31/125,45,166.74
4144,E4,643.0,0.5,44,166.74
4145,C#4,643.0,0.5,44,166.74
4146,G#2,643.25,31/125,39,166.74
4147,C#5,643.5,0.5,43,166.74
4148,G#1,643.5,31/125,41,166.74
4149,G#2,643.75,31/125,35,166.74
4150,G#1,644.0,31/125,40,166.74
4151,F#4,644.0,0.5,47,166.74
4152,E-4,644.0,0.5,47,166.74
4153,G#2,644.25,31/125,34,166.74
4154,C5,644.5,0.5,47,166.74
4155,G#1,644.5,31/125,39,166.74
4156,G#2,644.75,31/125,34,166.74
4157,G#1,645.0,31/125,39,166.74
4158,E-4,645.0,0.5,52,166.74
4159,F#4,645.0,0.5,52,166.74
4160,G#2,645.25,31/125,34,166.74
4161,C5,645.5,0.5,53,166.74
4162,G#1,645.5,31/125,41,166.74
4163,G#2,645.75,31/125,39,166.74
4164,G#1,646.0,31/125,45,166.74
4165,C#4,646.0,0.5,62,166.74
4166,E4,646.0,0.5,62,166.74
4167,G#2,646.25,31/125,39,166.74
4168,C#5,646.5,0.5,57,166.74
4169,G#1,646.5,31/125,45,166.74
4170,G#2,646.75,31/125,40,166.74
4171,G#1,647.0,31/125,47,166.74
4172,C#4,647.0,0.5,66,166.74
4173,E4,647.0,0.5,66,166.74
4174,G#2,647.25,31/125,43,166.74
4175,C#5,647.5,0.5,65,166.74
4176,G#1,647.5,31/125,51,166.74
4177,G#2,647.75,31/125,45,166.74
4178,G#1,648.0,31/125,56,166.74
4179,C4,648.0,0.5,74,166.74
4180,F#4,648.0,0.5,74,166.74
4181,G#2,648.25,31/125,51,166.74
4182,E-5,648.5,0.5,69,166.74
4183,G#1,648.5,31/125,56,166.74
4184,G#2,648.75,31/125,49,166.74
4185,G#1,649.0,31/125,51,166.74
4186,C4,649.0,0.5,68,166.74
4187,F#4,649.0,0.5,68,166.74
4188,G#2,649.25,31/125,43,166.74
4189,E-5,649.5,0.5,58,166.74
4190,G#1,649.5,31/125,47,166.74
4191,G#2,649.75,31/125,40,166.74
4192,A1,650.0,31/125,44,166.74
4193,E4,650.0,0.5,58,166.74
4194,C#4,650.0,0.5,58,166.74
4195,A2,650.25,31/125,38,166.74
4196,C#5,650.5,0.5,51,166.74
4197,A1,650.5,31/125,41,166.74
4198,A2,650.75,31/125,35,166.74
4199,A1,651.0,31/125,39,166.74
4200,E4,651.0,0.5,52,166.74
4201,C#4,651.0,0.5,52,166.74
4202,A2,651.25,31/125,34,166.74
4203,C#5,651.5,0.5,53,166.74
4204,A1,651.5,31/125,39,166.74
4205,A2,651.75,31/125,34,166.74
4206,E-4,652.0,4.0,43,166.74
4207,A3,652.0,4.0,43,166.74
4208,C#4,652.0,4.0,43,166.74
4209,A4,652.0,4.0,43,166.74
4210,F#1,652.0,4.0,36,166.74
4211,F#2,652.0,4.0,36,166.74
4212,E-4,656.0,4.0,28,166.74
4213,G#4,656.0,4.0,28,166.74
4214,G#3,656.0,4.0,28,166.74
4215,C4,656.0,4.0,28,166.74
4216,G#1,656.0,4.0,30,166.74
4217,G#2,656.0,4.0,30,166.74
4218,C#2,660.0,0.25,62,166.74
4219,G#2,660.25,6/25,47,166.74
4220,C#3,660.5,73/250,48,166.74
4221,G#2,660.5,0.25,40,166.74
4222,E3,660.75,73/250,50,166.74
4223,G#3,661.0,73/250,51,166.74
4224,C#2,661.0,0.25,43,166.74
4225,C#3,661.25,73/250,51,166.74
4226,E3,661.5,73/250,49,166.74
4227,G#2,661.5,0.25,39,166.74
4228,G#3,661.75,73/250,51,166.74
4229,C#4,662.0,73/250,51,166.74
4230,C#2,662.0,0.25,41,166.74
4231,E3,662.25,73/250,47,166.74
4232,G#3,662.5,73/250,48,166.74
4233,G#2,662.5,0.25,39,166.74
4234,C#4,662.75,73/250,50,166.74
4235,E4,663.0,73/250,51,166.74
4236,C#2,663.0,0.25,42,166.74
4237,G#3,663.25,73/250,48,166.74
4238,C#4,663.5,73/250,49,166.74
4239,G#2,663.5,0.25,39,166.74
4240,E4,663.75,0.25,51,166.74
4241,G#4,664.0,73/250,53,166.74
4242,E4,664.0,21/500,51,166.74
4243,C#2,664.0,0.25,43,166.74
4244,C#4,664.25,73/250,47,166.74
4245,E4,664.5,73/250,49,166.74
4246,G#2,664.5,0.25,40,166.74
4247,G#4,664.75,73/250,51,166.74
4248,C#5,665.0,73/250,52,166.74
4249,C#2,665.0,0.25,43,166.74
4250,E4,665.25,73/250,51,166.74
4251,G#4,665.5,73/250,50,166.74
4252,G#2,665.5,0.25,40,166.74
4253,C#5,665.75,73/250,51,166.74
4254,E5,666.0,73/250,53,166.74
4255,C#2,666.0,0.25,41,166.74
4256,G#4,666.25,73/250,51,166.74
4257,C#5,666.5,73/250,51,166.74
4258,G#2,666.5,0.25,38,166.74
4259,E5,666.75,0.25,56,166.74
4260,C#5,667.0,0.25,86,166.74
4261,G#5,667.0,0.25,86,166.74
4262,G#4,667.0,0.25,86,166.74
4263,E5,667.0,0.25,86,166.74
4264,C#2,667.0,0.25,72,166.74
4265,C#3,667.0,0.25,72,166.74
4266,G#2,667.5,0.25,67,166.74
4267,G#5,667.5,0.25,73,166.74
4268,E5,667.5,0.25,73,166.74
4269,C#5,667.5,0.25,73,166.74
4270,G#4,667.5,0.25,73,166.74
4271,C2,668.0,0.25,41,166.74
4272,G#2,668.25,6/25,47,166.74
4273,C3,668.5,73/250,49,166.74
4274,G#2,668.5,0.25,38,166.74
4275,E-3,668.75,73/250,51,166.74
4276,G#3,669.0,73/250,51,166.74
4277,C2,669.0,0.25,41,166.74
4278,C3,669.25,73/250,48,166.74
4279,E-3,669.5,73/250,50,166.74
4280,G#2,669.5,0.25,38,166.74
4281,G#3,669.75,73/250,51,166.74
4282,C4,670.0,73/250,52,166.74
4283,C2,670.0,0.25,40,166.74
4284,E-3,670.25,73/250,51,166.74
4285,G#3,670.5,73/250,51,166.74
4286,G#2,670.5,0.25,37,166.74
4287,C4,670.75,73/250,51,166.74
4288,E-4,671.0,73/250,52,166.74
4289,C2,671.0,0.25,40,166.74
4290,G#3,671.25,73/250,47,166.74
4291,C4,671.5,73/250,50,166.74
4292,G#2,671.5,0.25,36,166.74
4293,E-4,671.75,0.25,51,166.74
4294,G#4,672.0,73/250,53,166.74
4295,E-4,672.0,21/500,51,166.74
4296,C2,672.0,0.25,40,166.74
4297,C4,672.25,73/250,49,166.74
4298,E-4,672.5,73/250,50,166.74
4299,G#2,672.5,0.25,36,166.74
4300,G#4,672.75,73/250,51,166.74
4301,C5,673.0,73/250,52,166.74
4302,C2,673.0,0.25,40,166.74
4303,E-4,673.25,73/250,51,166.74
4304,G#4,673.5,73/250,50,166.74
4305,G#2,673.5,0.25,36,166.74
4306,C5,673.75,73/250,51,166.74
4307,E-5,674.0,73/250,52,166.74
4308,C2,674.0,0.25,40,166.74
4309,G#4,674.25,73/250,49,166.74
4310,C5,674.5,73/250,51,166.74
4311,G#2,674.5,0.25,36,166.74
4312,E-5,674.75,0.25,53,166.74
4313,C5,675.0,0.25,86,166.74
4314,E-5,675.0,0.25,86,166.74
4315,G#5,675.0,0.25,86,166.74
4316,G#4,675.0,0.25,86,166.74
4317,C3,675.0,0.25,72,166.74
4318,C2,675.0,0.25,72,166.74
4319,G#2,675.5,0.25,65,166.74
4320,E-5,675.5,0.25,72,166.74
4321,G#4,675.5,0.25,72,166.74
4322,G#5,675.5,0.25,72,166.74
4323,C5,675.5,0.25,72,166.74
4324,B1,676.0,0.25,55,166.74
4325,C#3,676.25,73/250,62,166.74
4326,F3,676.5,73/250,65,166.74
4327,G#2,676.5,0.25,51,166.74
4328,G#3,676.75,73/250,67,166.74
4329,C#4,677.0,73/250,68,166.74
4330,B1,677.0,0.25,56,166.74
4331,F3,677.25,73/250,65,166.74
4332,G#3,677.5,73/250,67,166.74
4333,G#2,677.5,0.25,52,166.74
4334,C#4,677.75,73/250,68,166.74
4335,F4,678.0,73/250,69,166.74
4336,B1,678.0,0.25,56,166.74
4337,G#3,678.25,73/250,66,166.74
4338,C#4,678.5,73/250,68,166.74
4339,G#2,678.5,0.25,52,166.74
4340,F4,678.75,73/250,69,166.74
4341,G#4,679.0,73/250,71,166.74
4342,B1,679.0,0.25,56,166.74
4343,C#4,679.25,73/250,66,166.74
4344,F4,679.5,73/250,68,166.74
4345,G#2,679.5,0.25,51,166.74
4346,G#4,679.75,0.25,68,166.74
4347,C#5,680.0,73/250,69,166.74
4348,G#4,680.0,21/500,68,166.74
4349,B1,680.0,0.25,56,166.74
4350,F4,680.25,73/250,66,166.74
4351,G#4,680.5,73/250,68,166.74
4352,G#2,680.5,0.25,51,166.74
4353,C#5,680.75,73/250,68,166.74
4354,F5,681.0,73/250,70,166.74
4355,B1,681.0,0.25,56,166.74
4356,G#4,681.25,73/250,63,166.74
4357,C#5,681.5,73/250,66,166.74
4358,G#2,681.5,0.25,52,166.74
4359,F5,681.75,73/250,68,166.74
4360,G#5,682.0,73/250,68,166.74
4361,B1,682.0,0.25,56,166.74
4362,C#5,682.25,73/250,66,166.74
4363,F5,682.5,73/250,68,166.74
4364,G#2,682.5,0.25,52,166.74
4365,G#5,682.75,0.25,70,166.74
4366,C#5,683.0,0.25,95,166.74
4367,F5,683.0,0.25,95,166.74
4368,G#5,683.0,0.25,95,166.74
4369,C#6,683.0,0.25,95,166.74
4370,B2,683.0,0.25,78,166.74
4371,B1,683.0,0.25,78,166.74
4372,G#2,683.5,0.25,73,166.74
4373,F5,683.5,0.25,84,166.74
4374,G#5,683.5,0.25,84,166.74
4375,C#6,683.5,0.25,84,166.74
4376,C#5,683.5,0.25,84,166.74
4377,A1,684.0,0.25,50,166.74
4378,C#3,684.25,73/250,61,166.74
4379,F#3,684.5,73/250,63,166.74
4380,A2,684.5,0.25,51,166.74
4381,A3,684.75,73/250,62,166.74
4382,C#4,685.0,0.125,69,166.74
4383,A1,685.0,0.25,57,166.74
4384,C#4,685.25,73/250,72,166.74
4385,F#4,685.5,73/250,76,166.74
4386,A2,685.5,0.25,62,166.74
4387,A4,685.75,73/250,76,166.74
4388,C#5,686.0,0.125,82,166.74
4389,A1,686.0,0.25,67,166.74
4390,C#5,686.25,73/250,85,166.74
4391,F#5,686.5,73/250,87,166.74
4392,A2,686.5,0.25,67,166.74
4393,A5,686.75,73/250,84,166.74
4394,A1,687.0,0.25,86,166.74
4395,F#5,687.0,0.25,97,166.74
4396,C#6,687.0,0.25,97,166.74
4397,C#5,687.0,0.25,97,166.74
4398,A2,687.5,0.25,85,166.74
4399,C#5,687.5,0.25,96,166.74
4400,F#5,687.5,0.25,96,166.74
4401,C#6,687.5,0.25,96,166.74
4402,A1,688.0,0.25,67,166.74
4403,C#3,688.25,73/250,75,166.74
4404,E3,688.5,73/250,77,166.74
4405,A2,688.5,0.25,62,166.74
4406,G3,688.75,73/250,75,166.74
4407,C#4,689.0,0.125,80,166.74
4408,A1,689.0,0.25,67,166.74
4409,C#4,689.25,73/250,77,166.74
4410,E4,689.5,73/250,79,166.74
4411,A2,689.5,0.25,63,166.74
4412,G4,689.75,73/250,77,166.74
4413,C#5,690.0,0.125,81,166.74
4414,A1,690.0,0.25,67,166.74
4415,C#5,690.25,73/250,80,166.74
4416,E5,690.5,73/250,81,166.74
4417,A2,690.5,0.25,64,166.74
4418,G5,690.75,0.25,79,166.74
4419,A1,691.0,0.25,90,166.74
4420,G5,691.0,0.25,102,166.74
4421,C#6,691.0,0.25,102,166.74
4422,C#5,691.0,0.25,102,166.74
4423,A2,691.5,0.25,90,166.74
4424,C#6,691.5,0.25,102,166.74
4425,G5,691.5,0.25,102,166.74
4426,C#5,691.5,0.25,102,166.74
4427,G#5,692.0,0.5,102,166.74
4428,C5,692.0,0.5,102,166.74
4429,C6,692.0,0.5,102,166.74
4430,G#2,692.0,0.5,77,166.74
4431,G#1,692.0,0.5,77,166.74
4432,G#4,692.5,0.25,74,166.74
4433,C4,692.5,0.5,62,166.74
4434,G#3,692.5,3.5,62,166.74
4435,G#5,692.75,0.25,58,166.74
4436,G#4,693.0,0.25,75,166.74
4437,C4,693.0,0.5,62,166.74
4438,G#5,693.25,0.25,60,166.74
4439,B-4,693.5,0.25,76,166.74
4440,C#4,693.5,0.5,62,166.74
4441,G#5,693.75,0.25,60,166.74
4442,C5,694.0,0.25,76,166.74
4443,E-4,694.0,0.5,64,166.74
4444,G#5,694.25,0.25,61,166.74
4445,C#5,694.5,0.25,78,166.74
4446,E4,694.5,0.5,66,166.74
4447,G#5,694.75,0.25,62,166.74
4448,E-5,695.0,0.25,79,166.74
4449,F#4,695.0,0.5,67,166.74
4450,G#5,695.25,0.25,62,166.74
4451,C5,695.5,0.25,79,166.74
4452,E-4,695.5,0.5,68,166.74
4453,G#5,695.75,0.25,62,166.74
4454,E-5,696.0,0.25,80,166.74
4455,F#4,696.0,0.5,69,166.74
4456,G#3,696.0,4.0,62,166.74
4457,G#5,696.25,0.25,62,166.74
4458,C#5,696.5,0.25,80,166.74
4459,E4,696.5,0.5,71,166.74
4460,G#5,696.75,0.25,62,166.74
4461,F#5,697.0,0.25,84,166.74
4462,A4,697.0,0.5,72,166.74
4463,G#5,697.25,0.25,62,166.74
4464,E5,697.5,0.25,80,166.74
4465,G#4,697.5,0.5,71,166.74
4466,G#5,697.75,0.25,62,166.74
4467,E-5,698.0,0.25,80,166.74
4468,F#4,698.0,0.5,69,166.74
4469,G#5,698.25,0.25,62,166.74
4470,C#5,698.5,0.25,79,166.74
4471,E4,698.5,0.5,68,166.74
4472,G#5,698.75,0.25,62,166.74
4473,C5,699.0,0.25,79,166.74
4474,E-4,699.0,0.5,67,166.74
4475,G#5,699.25,0.25,62,166.74
4476,A4,699.5,0.25,77,166.74
4477,C#4,699.5,0.5,66,166.74
4478,G5,699.75,0.25,61,166.74
4479,G#4,700.0,0.25,76,166.74
4480,G#3,700.0,4.0,64,166.74
4481,C4,700.0,0.5,64,166.74
4482,G#5,700.25,0.25,60,166.74
4483,G#4,700.5,0.25,75,166.74
4484,C4,700.5,0.5,63,166.74
4485,G#5,700.75,0.25,59,166.74
4486,G#4,701.0,0.25,74,166.74
4487,C4,701.0,0.5,62,166.74
4488,G#5,701.25,0.25,59,166.74
4489,B-4,701.5,0.25,74,166.74
4490,C#4,701.5,0.5,60,166.74
4491,G#5,701.75,0.25,61,166.74
4492,C5,702.0,0.25,76,166.74
4493,E-4,702.0,0.5,62,166.74
4494,G#5,702.25,0.25,59,166.74
4495,C#5,702.5,0.25,76,166.74
4496,E4,702.5,0.5,62,166.74
4497,G#5,702.75,0.25,62,166.74
4498,E-5,703.0,0.25,77,166.74
4499,F#4,703.0,0.5,65,166.74
4500,G#5,703.25,0.25,61,166.74
4501,C5,703.5,0.25,79,166.74
4502,E-4,703.5,0.5,67,166.74
4503,G#5,703.75,0.25,62,166.74
4504,E-5,704.0,0.25,79,166.74
4505,F#4,704.0,0.5,68,166.74
4506,G#3,704.0,4.0,64,166.74
4507,G#5,704.25,0.25,62,166.74
4508,C#5,704.5,0.25,80,166.74
4509,E4,704.5,0.5,68,166.74
4510,G#5,704.75,0.25,65,166.74
4511,F#5,705.0,0.25,84,166.74
4512,A4,705.0,0.5,68,166.74
4513,G#5,705.25,0.25,68,166.74
4514,E5,705.5,0.25,84,166.74
4515,G#4,705.5,0.5,67,166.74
4516,G#5,705.75,0.25,67,166.74
4517,E-5,706.0,0.25,84,166.74
4518,F#4,706.0,0.5,67,166.74
4519,G#5,706.25,0.25,67,166.74
4520,C#5,706.5,0.25,84,166.74
4521,E4,706.5,0.5,67,166.74
4522,G#5,706.75,0.25,66,166.74
4523,C5,707.0,0.25,84,166.74
4524,E-4,707.0,0.5,67,166.74
4525,G#5,707.25,0.25,67,166.74
4526,A4,707.5,0.25,84,166.74
4527,C#4,707.5,0.5,67,166.74
4528,G5,707.75,0.25,66,166.74
4529,G#4,708.0,0.25,84,166.74
4530,C4,708.0,0.25,71,166.74
4531,G#3,708.0,0.25,71,166.74
4532,G#5,708.25,0.25,66,166.74
4533,A4,708.5,0.25,79,166.74
4534,C#4,708.5,0.25,62,166.74
4535,G#3,708.5,0.25,62,166.74
4536,G5,708.75,0.25,67,166.74
4537,G#4,709.0,0.25,84,166.74
4538,G#3,709.0,0.25,68,166.74
4539,C4,709.0,0.25,68,166.74
4540,G#5,709.25,0.25,66,166.74
4541,A4,709.5,0.25,79,166.74
4542,C#4,709.5,0.25,62,166.74
4543,G#3,709.5,0.25,62,166.74
4544,G5,709.75,0.25,67,166.74
4545,G#4,710.0,0.25,84,166.74
4546,C4,710.0,0.25,71,166.74
4547,G#3,710.0,0.25,71,166.74
4548,G#5,710.25,0.25,66,166.74
4549,A4,710.5,0.25,79,166.74
4550,G#3,710.5,0.25,62,166.74
4551,C#4,710.5,0.25,62,166.74
4552,G5,710.75,0.25,65,166.74
4553,G#4,711.0,0.25,84,166.74
4554,C4,711.0,0.25,67,166.74
4555,G#3,711.0,0.25,67,166.74
4556,G#5,711.25,0.25,66,166.74
4557,A4,711.5,0.25,79,166.74
4558,C#4,711.5,0.25,61,166.74
4559,G#3,711.5,0.25,61,166.74
4560,G5,711.75,0.25,65,166.74
4561,G#5,712.0,0.5,84,166.74
4562,G#4,712.0,0.5,84,166.74
4563,C4,712.0,0.5,71,166.74
4564,G#3,712.0,0.5,71,166.74
4565,G#3,713.0,3.0,113,166.74
4566,G#1,713.0,3.0,84,166.74
4567,G#2,713.0,3.0,84,166.74
4568,C#3,716.0,73/250,39,166.74
4569,G#3,716.25,73/250,29,166.74
4570,E3,716.5,73/250,34,166.74
4571,G#3,716.75,73/250,29,166.74
4572,G#4,717.0,1021/500,56,166.74
4573,C#3,717.0,31/125,39,166.74
4574,G#3,717.25,31/125,29,166.74
4575,E3,717.5,31/125,34,166.74
4576,G#3,717.75,31/125,30,166.74
4577,C#3,718.0,31/125,39,166.74
4578,G#3,718.25,31/125,30,166.74
4579,E3,718.5,31/125,34,166.74
4580,G#3,718.75,31/125,30,166.74
4581,E4,719.0,99/125,47,166.74
4582,C#3,719.0,31/125,39,166.74
4583,G#3,719.25,31/125,30,166.74
4584,E3,719.5,31/125,34,166.74
4585,C#4,719.75,0.125,47,166.74
4586,G#3,719.75,31/125,30,166.74
4587,C4,719.875,21/500,37,166.74
4588,C#4,719.875,21/500,37,166.74
4589,E-4,719.958,21/500,37,166.74
4590,C#4,720.0,521/500,53,166.74
4591,E-3,720.0,73/250,39,166.74
4592,G#3,720.25,73/250,30,166.74
4593,F#3,720.5,73/250,34,166.74
4594,G#3,720.75,73/250,30,166.74
4595,C4,721.0,1.5,47,166.74
4596,E-3,721.0,31/125,48,166.74
4597,G#3,721.25,31/125,43,166.74
4598,F#3,721.5,31/125,47,166.74
4599,G#3,721.75,31/125,49,166.74
4600,E-3,722.0,31/125,58,166.74
4601,G#3,722.25,31/125,46,166.74
4602,C4,722.5,271/500,47,166.74
4603,F#3,722.5,31/125,54,166.74
4604,G#3,722.75,31/125,47,166.74
4605,G#4,723.0,0.75,56,166.74
4606,E-3,723.0,31/125,66,166.74
4607,G#3,723.25,31/125,46,166.74
4608,F#3,723.5,31/125,51,166.74
4609,C4,723.75,0.25,48,166.74
4610,G#3,723.75,31/125,40,166.74
4611,E-4,724.0,521/500,43,166.74
4612,E3,724.0,31/125,39,166.74
4613,G#3,724.25,31/125,32,166.74
4614,E3,724.5,31/125,35,166.74
4615,G#3,724.75,31/125,31,166.74
4616,C#4,725.0,1.5,47,166.74
4617,E3,725.0,31/125,50,166.74
4618,G#3,725.25,31/125,41,166.74
4619,E3,725.5,31/125,47,166.74
4620,G#3,725.75,31/125,42,166.74
4621,E3,726.0,31/125,58,166.74
4622,G#3,726.25,31/125,48,166.74
4623,C#4,726.5,271/500,45,166.74
4624,E3,726.5,31/125,56,166.74
4625,G#3,726.75,31/125,51,166.74
4626,G#4,727.0,0.75,57,166.74
4627,E3,727.0,31/125,66,166.74
4628,G#3,727.25,31/125,49,166.74
4629,E3,727.5,31/125,51,166.74
4630,C#4,727.75,0.25,47,166.74
4631,G#3,727.75,31/125,47,166.74
4632,E4,728.0,521/500,48,166.74
4633,C3,728.0,31/125,39,166.74
4634,G#3,728.25,31/125,31,166.74
4635,C3,728.5,31/125,34,166.74
4636,G#3,728.75,31/125,32,166.74
4637,E-4,729.0,1.5,47,166.74
4638,C3,729.0,31/125,50,166.74
4639,G#3,729.25,31/125,43,166.74
4640,C3,729.5,31/125,49,166.74
4641,G#3,729.75,31/125,44,166.74
4642,C3,730.0,31/125,58,166.74
4643,G#3,730.25,31/125,51,166.74
4644,E-4,730.5,271/500,48,166.74
4645,C3,730.5,31/125,59,166.74
4646,G#3,730.75,31/125,54,166.74
4647,G#4,731.0,99/125,54,166.74
4648,C3,731.0,31/125,66,166.74
4649,G#3,731.25,31/125,48,166.74
4650,C3,731.5,31/125,51,166.74
4651,E-4,731.75,0.25,48,166.74
4652,G#3,731.75,31/125,39,166.74
4653,E4,732.0,0.25,51,166.74
4654,C#3,732.0,73/250,39,166.74
4655,G#3,732.25,73/250,32,166.74
4656,E3,732.5,31/125,35,166.74
4657,G#5,732.5,1.0,53,166.74
4658,G#4,732.5,1.0,53,166.74
4659,G#3,732.75,31/125,31,166.74
4660,C#3,733.0,31/125,40,166.74
4661,G#3,733.25,31/125,31,166.74
4662,E3,733.5,31/125,34,166.74
4663,G#4,733.5,1.0,49,166.74
4664,G#5,733.5,1.0,49,166.74
4665,G#3,733.75,31/125,31,166.74
4666,C#3,734.0,31/125,41,166.74
4667,G#3,734.25,31/125,31,166.74
4668,E3,734.5,31/125,35,166.74
4669,G#5,734.5,0.25,52,166.74
4670,G#4,734.5,0.25,52,166.74
4671,G#3,734.75,31/125,31,166.74
4672,C#3,735.0,73/250,43,166.74
4673,E4,735.0,0.25,54,166.74
4674,E5,735.0,0.25,54,166.74
4675,G#3,735.25,73/250,34,166.74
4676,E3,735.5,73/250,37,166.74
4677,C#5,735.5,0.25,52,166.74
4678,C#4,735.5,0.25,52,166.74
4679,G#3,735.75,0.25,33,166.74
4680,E-3,736.0,73/250,46,166.74
4681,G#3,736.0,21/500,33,166.74
4682,C#4,736.0,0.25,56,166.74
4683,C#5,736.0,0.25,56,166.74
4684,G#3,736.25,73/250,33,166.74
4685,F#3,736.5,31/125,39,166.74
4686,C4,736.5,1.0,57,166.74
4687,C5,736.5,1.0,57,166.74
4688,G#3,736.75,31/125,33,166.74
4689,E-3,737.0,31/125,47,166.74
4690,G#3,737.25,31/125,35,166.74
4691,F#3,737.5,31/125,40,166.74
4692,C5,737.5,1.0,62,166.74
4693,C4,737.5,1.0,62,166.74
4694,G#3,737.75,31/125,34,166.74
4695,E-3,738.0,31/125,49,166.74
4696,G#3,738.25,31/125,35,166.74
4697,F#3,738.5,31/125,41,166.74
4698,C4,738.5,0.25,64,166.74
4699,C5,738.5,0.25,64,166.74
4700,G#3,738.75,31/125,35,166.74
4701,E-3,739.0,73/250,50,166.74
4702,G#5,739.0,0.25,66,166.74
4703,G#4,739.0,0.25,66,166.74
4704,G#3,739.25,73/250,40,166.74
4705,F#3,739.5,73/250,45,166.74
4706,C5,739.5,0.25,64,166.74
4707,C4,739.5,0.25,64,166.74
4708,G#3,739.75,0.25,42,166.74
4709,E3,740.0,73/250,51,166.74
4710,G#3,740.0,21/500,42,166.74
4711,E-5,740.0,0.25,68,166.74
4712,E-4,740.0,0.25,68,166.74
4713,G#3,740.25,73/250,43,166.74
4714,E3,740.5,31/125,47,166.74
4715,C#4,740.5,1.0,69,166.74
4716,C#5,740.5,1.0,69,166.74
4717,G#3,740.75,31/125,43,166.74
4718,E3,741.0,31/125,52,166.74
4719,G#3,741.25,31/125,43,166.74
4720,E3,741.5,31/125,48,166.74
4721,C#4,741.5,1.0,74,166.74
4722,C#5,741.5,1.0,74,166.74
4723,G#3,741.75,31/125,44,166.74
4724,E3,742.0,31/125,56,166.74
4725,G#3,742.25,31/125,46,166.74
4726,E3,742.5,31/125,50,166.74
4727,C#5,742.5,0.25,69,166.74
4728,C#4,742.5,0.25,69,166.74
4729,G#3,742.75,31/125,47,166.74
4730,E3,743.0,73/250,57,166.74
4731,G#5,743.0,0.25,78,166.74
4732,G#4,743.0,0.25,78,166.74
4733,G#3,743.25,73/250,49,166.74
4734,E3,743.5,73/250,51,166.74
4735,C#5,743.5,0.25,80,166.74
4736,C#4,743.5,0.25,80,166.74
4737,G#3,743.75,0.25,48,166.74
4738,C3,744.0,73/250,59,166.74
4739,G#3,744.0,21/500,48,166.74
4740,E4,744.0,0.25,80,166.74
4741,E5,744.0,0.25,80,166.74
4742,G#3,744.25,73/250,53,166.74
4743,C3,744.5,31/125,56,166.74
4744,E-4,744.5,1.0,78,166.74
4745,E-5,744.5,1.0,78,166.74
4746,G#3,744.75,31/125,52,166.74
4747,C3,745.0,31/125,60,166.74
4748,G#3,745.25,31/125,52,166.74
4749,C3,745.5,31/125,57,166.74
4750,E-5,745.5,1.0,86,166.74
4751,E-4,745.5,1.0,86,166.74
4752,G#3,745.75,31/125,52,166.74
4753,C3,746.0,31/125,62,166.74
4754,G#3,746.25,31/125,52,166.74
4755,C3,746.5,31/125,59,166.74
4756,E-4,746.5,0.25,82,166.74
4757,E-5,746.5,0.25,82,166.74
4758,G#3,746.75,31/125,53,166.74
4759,C3,747.0,73/250,62,166.74
4760,G#4,747.0,0.25,86,166.74
4761,G#5,747.0,0.25,86,166.74
4762,G#3,747.25,73/250,53,166.74
4763,C3,747.5,73/250,60,166.74
4764,E-5,747.5,0.25,82,166.74
4765,E-4,747.5,0.25,82,166.74
4766,G#3,747.75,0.25,54,166.74
4767,B2,748.0,73/250,66,166.74
4768,G#3,748.0,21/500,54,166.74
4769,F4,748.0,2.0,88,166.74
4770,F5,748.0,2.0,88,166.74
4771,G#3,748.25,73/250,56,166.74
4772,C#3,748.5,73/250,61,166.74
4773,G#3,748.75,73/250,56,166.74
4774,B2,749.0,73/250,66,166.74
4775,G#3,749.25,73/250,56,166.74
4776,C#3,749.5,73/250,61,166.74
4777,G#3,749.75,73/250,56,166.74
4778,A2,750.0,73/250,66,166.74
4779,F#4,750.0,2.0,88,166.74
4780,F#5,750.0,2.0,88,166.74
4781,F#3,750.25,73/250,56,166.74
4782,C#3,750.5,73/250,62,166.74
4783,F#3,750.75,73/250,57,166.74
4784,A2,751.0,73/250,66,166.74
4785,F#3,751.25,73/250,56,166.74
4786,C#3,751.5,73/250,61,166.74
4787,F#3,751.75,0.25,56,166.74
4788,E-4,752.0,1.0,67,166.74
4789,E-5,752.0,27/200,80,166.74
4790,A2,752.0,31/125,66,166.74
4791,F#3,752.0,21/500,56,166.74
4792,E5,752.135,27/200,75,166.74
4793,F#3,752.25,31/125,56,166.74
4794,E-5,752.269,27/200,80,166.74
4795,E5,752.404,27/200,80,166.74
4796,B2,752.5,31/125,61,166.74
4797,E-5,752.573,81/500,80,166.74
4798,C#5,752.723,81/500,75,166.74
4799,F#3,752.75,31/125,56,166.74
4800,E-5,752.86,7/50,75,166.74
4801,G#2,753.0,73/250,66,166.74
4802,E5,753.0,3.0,88,166.74
4803,E4,753.0,3.0,88,166.74
4804,E3,753.25,73/250,56,166.74
4805,B2,753.5,73/250,62,166.74
4806,E3,753.75,73/250,56,166.74
4807,G#2,754.0,73/250,66,166.74
4808,E3,754.25,73/250,56,166.74
4809,B2,754.5,73/250,61,166.74
4810,E3,754.75,73/250,56,166.74
4811,G#2,755.0,73/250,66,166.74
4812,E3,755.25,73/250,54,166.74
4813,B2,755.5,73/250,60,166.74
4814,E3,755.75,0.25,56,166.74
4815,G2,756.0,73/250,66,166.74
4816,E3,756.0,21/500,56,166.74
4817,C#5,756.0,2.0,88,166.74
4818,C#4,756.0,2.0,88,166.74
4819,E3,756.25,73/250,58,166.74
4820,A2,756.5,73/250,62,166.74
4821,E3,756.75,73/250,58,166.74
4822,G2,757.0,73/250,66,166.74
4823,E3,757.25,73/250,57,166.74
4824,A2,757.5,73/250,62,166.74
4825,E3,757.75,73/250,58,166.74
4826,F#2,758.0,73/250,66,166.74
4827,D4,758.0,2.0,87,166.74
4828,D5,758.0,2.0,87,166.74
4829,D3,758.25,73/250,54,166.74
4830,A2,758.5,73/250,62,166.74
4831,D3,758.75,73/250,56,166.74
4832,F#2,759.0,73/250,66,166.74
4833,D3,759.25,73/250,54,166.74
4834,A2,759.5,73/250,62,166.74
4835,D3,759.75,0.25,54,166.74
4836,C4,760.0,1.0,67,166.74
4837,C5,760.0,27/200,80,166.74
4838,F#2,760.0,31/125,66,166.74
4839,D3,760.0,21/500,54,166.74
4840,C#5,760.135,27/200,75,166.74
4841,E-3,760.25,31/125,56,166.74
4842,C5,760.269,27/200,80,166.74
4843,C#5,760.404,27/200,80,166.74
4844,G#2,760.5,31/125,60,166.74
4845,C5,760.573,81/500,80,166.74
4846,B-4,760.723,81/500,75,166.74
4847,E-3,760.75,31/125,60,166.74
4848,C5,760.86,7/50,75,166.74
4849,E2,761.0,73/250,66,166.74
4850,C#4,761.0,3.0,88,166.74
4851,C#5,761.0,3.0,88,166.74
4852,C#3,761.25,73/250,56,166.74
4853,G#2,761.5,73/250,61,166.74
4854,C#3,761.75,73/250,57,166.74
4855,E2,762.0,73/250,66,166.74
4856,C#3,762.25,73/250,56,166.74
4857,G#2,762.5,73/250,61,166.74
4858,C#3,762.75,73/250,56,166.74
4859,E2,763.0,73/250,66,166.74
4860,C#3,763.25,73/250,56,166.74
4861,G#2,763.5,73/250,61,166.74
4862,C#3,763.75,0.25,61,166.74
4863,C#3,764.0,21/500,61,166.74
4864,F#4,764.0,2.25,92,166.74
4865,A4,764.0,2.25,92,166.74
4866,D5,764.0,2.25,92,166.74
4867,D4,764.0,2.25,92,166.74
4868,A2,764.0,3.0,70,166.74
4869,F#3,764.0,3.0,70,166.74
4870,D3,764.0,3.0,70,166.74
4871,F#2,764.0,3.0,70,166.74
4872,A4,766.25,0.25,48,166.74
4873,B4,766.5,0.25,48,166.74
4874,C#5,766.75,0.25,49,166.74
4875,D5,767.0,0.25,50,166.74
4876,E5,767.25,0.25,51,166.74
4877,F#5,767.5,0.25,51,166.74
4878,E5,767.75,0.25,49,166.74
4879,D5,768.0,0.25,49,166.74
4880,F#3,768.0,1.0,45,166.74
4881,D4,768.0,1.0,45,166.74
4882,A3,768.0,1.0,45,166.74
4883,A4,768.25,0.25,47,166.74
4884,B4,768.5,0.25,48,166.74
4885,C#5,768.75,0.25,49,166.74
4886,D5,769.0,0.25,50,166.74
4887,E5,769.25,0.25,51,166.74
4888,F#5,769.5,0.25,51,166.74
4889,E5,769.75,0.25,50,166.74
4890,D5,770.0,0.25,48,166.74
4891,A3,770.0,1.0,44,166.74
4892,D4,770.0,1.0,44,166.74
4893,F#3,770.0,1.0,44,166.74
4894,A4,770.25,0.25,48,166.74
4895,B4,770.5,0.25,50,166.74
4896,C#5,770.75,0.25,51,166.74
4897,D5,771.0,0.25,51,166.74
4898,E5,771.25,0.25,52,166.74
4899,F#5,771.5,0.25,52,166.74
4900,E5,771.75,0.25,51,166.74
4901,D5,772.0,0.25,47,166.74
4902,F#3,772.0,1.0,44,166.74
4903,A3,772.0,1.0,44,166.74
4904,D4,772.0,1.0,44,166.74
4905,A4,772.25,0.25,48,166.74
4906,B4,772.5,0.25,51,166.74
4907,C#5,772.75,0.25,51,166.74
4908,D5,773.0,0.25,54,166.74
4909,D4,773.0,1.0,47,166.74
4910,A3,773.0,1.0,47,166.74
4911,F#3,773.0,1.0,47,166.74
4912,E5,773.25,0.25,56,166.74
4913,F#5,773.5,0.25,57,166.74
4914,G5,773.75,0.25,60,166.74
4915,A5,774.0,0.25,61,166.74
4916,F#3,774.0,1.0,54,166.74
4917,D4,774.0,1.0,54,166.74
4918,A3,774.0,1.0,54,166.74
4919,G#5,774.25,0.25,59,166.74
4920,B5,774.5,0.25,57,166.74
4921,A5,774.75,0.25,56,166.74
4922,G5,775.0,0.25,54,166.74
4923,F#3,775.0,1.0,50,166.74
4924,D4,775.0,1.0,50,166.74
4925,A3,775.0,1.0,50,166.74
4926,F#5,775.25,0.25,52,166.74
4927,E5,775.5,0.25,51,166.74
4928,D5,775.75,0.25,50,166.74
4929,C#5,776.0,2.0,48,166.74
4930,G#3,776.0,73/250,49,166.74
4931,E4,776.25,73/250,44,166.74
4932,C#4,776.5,73/250,47,166.74
4933,E4,776.75,73/250,43,166.74
4934,G#3,777.0,73/250,51,166.74
4935,E4,777.25,73/250,43,166.74
4936,C#4,777.5,73/250,47,166.74
4937,E4,777.75,73/250,42,166.74
4938,E-5,778.0,167/1000,50,166.74
4939,G#3,778.0,31/125,51,166.74
4940,E5,778.167,167/1000,50,166.74
4941,F#4,778.25,31/125,43,166.74
4942,E-5,778.333,0.156,50,166.74
4943,E5,778.49,0.156,50,166.74
4944,C4,778.5,31/125,47,166.74
4945,E-5,778.646,0.156,50,166.74
4946,F#4,778.75,31/125,43,166.74
4947,E5,778.802,0.156,50,166.74
4948,E-5,778.958,73/500,49,166.74
4949,G#3,779.0,31/125,51,166.74
4950,E5,779.104,73/500,49,166.74
4951,E-5,779.25,0.125,50,166.74
4952,F#4,779.25,31/125,44,166.74
4953,E5,779.375,0.125,51,166.74
4954,E-5,779.5,167/1000,51,166.74
4955,C4,779.5,31/125,47,166.74
4956,C#5,779.667,167/1000,51,166.74
4957,F#4,779.75,31/125,42,166.74
4958,E-5,779.833,167/1000,52,166.74
4959,C#5,780.0,0.5,56,166.74
4960,E4,780.0,0.5,56,166.74
4961,C#4,780.0,0.5,56,166.74
4962,A3,780.0,0.5,56,166.74
4963,D4,781.0,1.25,80,166.74
4964,F#3,781.0,1.25,80,166.74
4965,A3,781.0,1.25,80,166.74
4966,D3,781.0,1.25,80,166.74
4967,F#1,781.0,2.0,74,166.74
4968,A1,781.0,2.0,74,166.74
4969,D2,781.0,2.0,74,166.74
4970,F#2,781.0,2.0,74,166.74
4971,A3,782.25,0.25,48,166.74
4972,B3,782.5,0.25,48,166.74
4973,C#4,782.75,0.25,49,166.74
4974,D4,783.0,0.25,50,166.74
4975,E4,783.25,0.25,51,166.74
4976,F#4,783.5,0.25,51,166.74
4977,E4,783.75,0.25,51,166.74
4978,D4,784.0,0.25,48,166.74
4979,A3,784.25,0.25,47,166.74
4980,B3,784.5,0.25,48,166.74
4981,C#4,784.75,0.25,48,166.74
4982,D4,785.0,0.25,49,166.74
4983,D3,785.0,1.0,44,166.74
4984,A2,785.0,1.0,44,166.74
4985,F#2,785.0,1.0,44,166.74
4986,E4,785.25,0.25,50,166.74
4987,F#4,785.5,0.25,51,166.74
4988,E4,785.75,0.25,48,166.74
4989,D4,786.0,0.25,48,166.74
4990,A3,786.25,0.25,48,166.74
4991,B3,786.5,0.25,48,166.74
4992,C#4,786.75,0.25,50,166.74
4993,D4,787.0,0.25,50,166.74
4994,D3,787.0,1.0,44,166.74
4995,F#2,787.0,1.0,44,166.74
4996,A2,787.0,1.0,44,166.74
4997,E4,787.25,0.25,50,166.74
4998,F#4,787.5,0.25,50,166.74
4999,E4,787.75,0.25,50,166.74
5000,D4,788.0,0.25,49,166.74
5001,A3,788.25,0.25,51,166.74
5002,B3,788.5,0.25,51,166.74
5003,D3,788.5,0.5,46,166.74
5004,A2,788.5,0.5,46,166.74
5005,F#2,788.5,0.5,46,166.74
5006,C#4,788.75,0.25,53,166.74
5007,D4,789.0,0.25,56,166.74
5008,E4,789.25,0.25,56,166.74
5009,F#4,789.5,0.25,57,166.74
5010,D3,789.5,0.5,54,166.74
5011,A2,789.5,0.5,54,166.74
5012,F#2,789.5,0.5,54,166.74
5013,G4,789.75,0.25,59,166.74
5014,A4,790.0,0.25,61,166.74
5015,B4,790.25,0.25,62,166.74
5016,C#5,790.5,0.25,63,166.74
5017,A2,790.5,0.5,61,166.74
5018,D3,790.5,0.5,61,166.74
5019,F#2,790.5,0.5,61,166.74
5020,D5,790.75,0.25,66,166.74
5021,E5,791.0,0.25,68,166.74
5022,F#5,791.25,0.25,68,166.74
5023,G5,791.5,0.25,70,166.74
5024,F#2,791.5,0.5,61,166.74
5025,D3,791.5,0.5,61,166.74
5026,A2,791.5,0.5,61,166.74
5027,G#5,791.75,0.25,72,166.74
5028,F#2,792.0,31/125,66,166.74
5029,A5,792.0,2.0,73,166.74
5030,A4,792.0,2.0,73,166.74
5031,D3,792.25,31/125,56,166.74
5032,A2,792.5,31/125,62,166.74
5033,D3,792.75,31/125,56,166.74
5034,F#2,793.0,31/125,66,166.74
5035,D3,793.25,31/125,56,166.74
5036,A2,793.5,31/125,61,166.74
5037,D3,793.75,31/125,54,166.74
5038,G2,794.0,31/125,66,166.74
5039,C#5,794.0,2.0,71,166.74
5040,C#4,794.0,2.0,71,166.74
5041,E3,794.25,31/125,56,166.74
5042,B-2,794.5,31/125,62,166.74
5043,E3,794.75,31/125,56,166.74
5044,G2,795.0,31/125,66,166.74
5045,E3,795.25,31/125,54,166.74
5046,B-2,795.5,31/125,60,166.74
5047,E3,795.75,31/125,54,166.74
5048,G#2,796.0,31/125,66,166.74
5049,E4,796.0,2.0,71,166.74
5050,E5,796.0,2.0,71,166.74
5051,E3,796.25,31/125,58,166.74
5052,C#3,796.5,31/125,62,166.74
5053,E3,796.75,31/125,56,166.74
5054,G#2,797.0,31/125,66,166.74
5055,E3,797.25,31/125,56,166.74
5056,C#3,797.5,31/125,62,166.74
5057,E3,797.75,31/125,57,166.74
5058,G#1,798.0,31/125,66,166.74
5059,C3,798.0,2.0,69,166.74
5060,F#3,798.0,2.0,69,166.74
5061,C4,798.0,2.0,69,166.74
5062,G#2,798.25,31/125,57,166.74
5063,G2,798.5,31/125,62,166.74
5064,G#2,798.75,31/125,57,166.74
5065,G2,799.0,31/125,66,166.74
5066,G#2,799.25,31/125,57,166.74
5067,G2,799.5,31/125,62,166.74
5068,G#2,799.75,31/125,58,166.74
5069,C#2,800.0,0.5,59,166.74
5070,C#3,800.0,0.5,59,166.74
5071,E3,800.0,0.5,59,166.74
5072,C#4,800.0,0.5,59,166.74
5073,C#3,800.5,0.25,40,166.74
5074,E4,800.5,0.25,48,166.74
5075,G#3,800.5,0.25,48,166.74
5076,C#3,801.0,0.25,40,166.74
5077,E4,801.0,0.25,48,166.74
5078,G#3,801.0,0.25,48,166.74
5079,C#3,801.5,0.25,40,166.74
5080,E4,801.5,0.25,48,166.74
5081,G#3,801.5,0.25,48,166.74
5082,C#3,802.0,0.25,40,166.74
5083,E4,802.0,0.25,48,166.74
5084,G#3,802.0,0.25,48,166.74
5085,C#3,802.5,0.25,40,166.74
5086,E4,802.5,0.25,48,166.74
5087,G#3,802.5,0.25,48,166.74
5088,E-3,803.0,0.25,39,166.74
5089,E-4,803.0,0.25,46,166.74
5090,G#3,803.0,0.25,46,166.74
5091,E3,803.5,0.25,39,166.74
5092,G#3,803.5,0.25,45,166.74
5093,C#4,803.5,0.25,45,166.74
5094,C4,804.0,0.5,53,166.74
5095,G#3,804.0,0.5,53,166.74
5096,G#2,804.0,0.5,45,166.74
5097,F#3,804.0,0.5,45,166.74
5098,C4,804.5,0.25,48,166.74
5099,G#4,804.5,0.25,48,166.74
5100,G#3,804.5,0.25,39,166.74
5101,F#3,804.5,0.25,39,166.74
5102,G#4,805.0,0.25,48,166.74
5103,C4,805.0,0.25,48,166.74
5104,G#3,805.0,0.25,39,166.74
5105,F#3,805.0,0.25,39,166.74
5106,C4,805.5,0.25,48,166.74
5107,G#4,805.5,0.25,48,166.74
5108,G#3,805.5,0.25,39,166.74
5109,F#3,805.5,0.25,39,166.74
5110,C4,806.0,0.25,48,166.74
5111,G#4,806.0,0.25,48,166.74
5112,F#3,806.0,0.25,39,166.74
5113,G#3,806.0,0.25,39,166.74
5114,G#4,806.5,0.25,48,166.74
5115,C4,806.5,0.25,48,166.74
5116,F#3,806.5,0.25,39,166.74
5117,G#3,806.5,0.25,39,166.74
5118,G#4,807.0,0.25,48,166.74
5119,C#4,807.0,0.25,48,166.74
5120,G#3,807.0,0.25,39,166.74
5121,E3,807.0,0.25,39,166.74
5122,G#4,807.5,0.25,51,166.74
5123,E-4,807.5,0.25,51,166.74
5124,E-3,807.5,0.25,42,166.74
5125,G#3,807.5,0.25,42,166.74
5126,E4,808.0,0.5,59,166.74
5127,G#4,808.0,0.5,59,166.74
5128,C#3,808.0,0.5,45,166.74
5129,C#2,808.0,0.5,45,166.74
5130,C#3,808.5,0.25,39,166.74
5131,G#3,808.5,0.25,48,166.74
5132,E4,808.5,0.25,48,166.74
5133,C#3,809.0,0.25,39,166.74
5134,E4,809.0,0.25,48,166.74
5135,G#3,809.0,0.25,48,166.74
5136,C#3,809.5,0.25,39,166.74
5137,G#3,809.5,0.25,49,166.74
5138,E4,809.5,0.25,49,166.74
5139,C#3,810.0,0.25,39,166.74
5140,G#3,810.0,0.25,49,166.74
5141,E4,810.0,0.25,49,166.74
5142,C#3,810.5,0.25,40,166.74
5143,E4,810.5,0.25,49,166.74
5144,G#3,810.5,0.25,49,166.74
5145,E-3,811.0,0.25,39,166.74
5146,G#3,811.0,0.25,47,166.74
5147,E-4,811.0,0.25,47,166.74
5148,E3,811.5,0.25,39,166.74
5149,C#4,811.5,0.25,48,166.74
5150,G#3,811.5,0.25,48,166.74
5151,G#3,812.0,0.5,59,166.74
5152,C4,812.0,0.5,59,166.74
5153,F#3,812.0,0.5,47,166.74
5154,G#2,812.0,0.5,47,166.74
5155,G#4,812.5,0.25,47,166.74
5156,C4,812.5,0.25,47,166.74
5157,G#3,812.5,0.25,39,166.74
5158,F#3,812.5,0.25,39,166.74
5159,G#4,813.0,0.25,47,166.74
5160,C4,813.0,0.25,47,166.74
5161,F#3,813.0,0.25,39,166.74
5162,G#3,813.0,0.25,39,166.74
5163,C4,813.5,0.25,47,166.74
5164,G#4,813.5,0.25,47,166.74
5165,F#3,813.5,0.25,39,166.74
5166,G#3,813.5,0.25,39,166.74
5167,C4,814.0,0.25,47,166.74
5168,G#4,814.0,0.25,47,166.74
5169,F#3,814.0,0.25,39,166.74
5170,G#3,814.0,0.25,39,166.74
5171,C4,814.5,0.25,47,166.74
5172,G#4,814.5,0.25,47,166.74
5173,F#3,814.5,0.25,39,166.74
5174,G#3,814.5,0.25,39,166.74
5175,C#4,815.0,0.25,47,166.74
5176,G#4,815.0,0.25,47,166.74
5177,E3,815.0,0.25,41,166.74
5178,G#3,815.0,0.25,41,166.74
5179,G#4,815.5,0.25,51,166.74
5180,E-4,815.5,0.25,51,166.74
5181,E-3,815.5,0.25,43,166.74
5182,G#3,815.5,0.25,43,166.74
5183,G#4,816.0,0.25,61,166.74
5184,E4,816.0,0.25,61,166.74
5185,C#3,816.0,0.25,44,166.74
5186,C#2,816.0,0.25,44,166.74
5187,G#4,816.5,0.25,47,166.74
5188,E4,816.5,0.25,47,166.74
5189,C#3,816.5,0.25,40,166.74
5190,E3,816.5,0.25,40,166.74
5191,E4,817.0,0.5,48,166.74
5192,G#4,817.0,0.5,48,166.74
5193,E3,817.0,0.5,40,166.74
5194,C#3,817.0,0.5,40,166.74
5195,C#4,817.5,0.5,45,166.74
5196,E4,817.5,0.5,45,166.74
5197,G#3,817.5,0.5,39,166.74
5198,E3,817.5,0.5,39,166.74
5199,F#2,818.0,0.25,48,166.74
5200,F#4,818.5,0.25,48,166.74
5201,A4,818.5,0.25,48,166.74
5202,C#3,818.5,0.25,40,166.74
5203,F#3,818.5,0.25,40,166.74
5204,A4,819.0,0.5,48,166.74
5205,F#4,819.0,0.5,48,166.74
5206,F#3,819.0,0.5,40,166.74
5207,C#3,819.0,0.5,40,166.74
5208,C#4,819.5,0.5,46,166.74
5209,F#4,819.5,0.5,46,166.74
5210,A3,819.5,0.5,39,166.74
5211,F#3,819.5,0.5,39,166.74
5212,G#2,820.0,0.25,48,166.74
5213,G#4,820.5,0.25,47,166.74
5214,E4,820.5,0.25,47,166.74
5215,E3,820.5,0.25,39,166.74
5216,C#3,820.5,0.25,39,166.74
5217,G#4,821.0,0.5,47,166.74
5218,E4,821.0,0.5,47,166.74
5219,C#3,821.0,0.5,39,166.74
5220,E3,821.0,0.5,39,166.74
5221,E4,821.5,0.5,46,166.74
5222,C#4,821.5,0.5,46,166.74
5223,E3,821.5,0.5,39,166.74
5224,G#3,821.5,0.5,39,166.74
5225,G#2,822.0,0.25,48,166.74
5226,E-4,822.5,0.25,47,166.74
5227,G#4,822.5,0.25,47,166.74
5228,E-3,822.5,0.25,39,166.74
5229,C3,822.5,0.25,39,166.74
5230,E-4,823.0,0.5,47,166.74
5231,G#4,823.0,0.5,47,166.74
5232,C3,823.0,0.5,39,166.74
5233,E-3,823.0,0.5,39,166.74
5234,C4,823.5,0.5,45,166.74
5235,E-4,823.5,0.5,45,166.74
5236,G#3,823.5,0.5,38,166.74
5237,E-3,823.5,0.5,38,166.74
5238,C#4,824.0,0.5,59,166.74
5239,E4,824.0,0.5,59,166.74
5240,C#3,824.0,0.5,49,166.74
5241,C#2,824.0,0.5,49,166.74
5242,E4,824.5,0.25,44,166.74
5243,E5,824.5,0.25,44,166.74
5244,G#4,824.5,0.25,44,166.74
5245,C#3,824.5,0.25,39,166.74
5246,G#3,824.5,0.25,39,166.74
5247,E5,825.0,0.25,44,166.74
5248,E4,825.0,0.25,44,166.74
5249,G#4,825.0,0.25,44,166.74
5250,G#3,825.0,0.25,42,166.74
5251,C#3,825.0,0.25,42,166.74
5252,E4,825.5,0.25,44,166.74
5253,G#4,825.5,0.25,44,166.74
5254,E5,825.5,0.25,44,166.74
5255,G#3,825.5,0.25,41,166.74
5256,C#3,825.5,0.25,41,166.74
5257,G#4,826.0,0.25,44,166.74
5258,E4,826.0,0.25,44,166.74
5259,E5,826.0,0.25,44,166.74
5260,C#3,826.0,0.25,39,166.74
5261,G#3,826.0,0.25,39,166.74
5262,G#4,826.5,0.25,44,166.74
5263,E4,826.5,0.25,44,166.74
5264,E5,826.5,0.25,44,166.74
5265,C#3,826.5,0.25,39,166.74
5266,G#3,826.5,0.25,39,166.74
5267,F#4,827.0,0.25,47,166.74
5268,E-4,827.0,0.25,47,166.74
5269,E-5,827.0,0.25,47,166.74
5270,G#3,827.0,0.25,41,166.74
5271,E-3,827.0,0.25,41,166.74
5272,C#4,827.5,0.25,49,166.74
5273,C#5,827.5,0.25,49,166.74
5274,E4,827.5,0.25,49,166.74
5275,G#3,827.5,0.25,44,166.74
5276,E3,827.5,0.25,44,166.74
5277,E-4,828.0,0.5,55,166.74
5278,C5,828.0,0.5,55,166.74
5279,C4,828.0,0.5,55,166.74
5280,G#2,828.0,0.5,47,166.74
5281,G#3,828.0,0.5,47,166.74
5282,F#3,828.0,0.5,47,166.74
5283,C5,828.5,0.25,77,166.74
5284,E-5,828.5,0.25,77,166.74
5285,C6,828.5,0.25,77,166.74
5286,F#4,828.5,0.25,58,166.74
5287,G#3,828.5,0.25,58,166.74
5288,E-5,829.0,0.25,82,166.74
5289,C5,829.0,0.25,82,166.74
5290,C6,829.0,0.25,82,166.74
5291,F#4,829.0,0.25,68,166.74
5292,G#3,829.0,0.25,68,166.74
5293,C5,829.5,0.25,76,166.74
5294,C6,829.5,0.25,76,166.74
5295,E-5,829.5,0.25,76,166.74
5296,G#3,829.5,0.25,62,166.74
5297,F#4,829.5,0.25,62,166.74
5298,C5,830.0,0.25,82,166.74
5299,E-5,830.0,0.25,82,166.74
5300,C6,830.0,0.25,82,166.74
5301,G#3,830.0,0.25,68,166.74
5302,F#4,830.0,0.25,68,166.74
5303,C5,830.5,0.25,77,166.74
5304,C6,830.5,0.25,77,166.74
5305,E-5,830.5,0.25,77,166.74
5306,F#4,830.5,0.25,62,166.74
5307,G#3,830.5,0.25,62,166.74
5308,E5,831.0,0.25,84,166.74
5309,C#5,831.0,0.25,84,166.74
5310,C#6,831.0,0.25,84,166.74
5311,G#3,831.0,0.25,68,166.74
5312,E4,831.0,0.25,68,166.74
5313,E-6,831.5,0.25,80,166.74
5314,E-5,831.5,0.25,80,166.74
5315,F#5,831.5,0.25,80,166.74
5316,E-4,831.5,0.25,62,166.74
5317,G#3,831.5,0.25,62,166.74
5318,E6,832.0,0.5,91,166.74
5319,G#5,832.0,0.5,91,166.74
5320,E5,832.0,0.5,91,166.74
5321,C#2,832.0,0.5,68,166.74
5322,C#3,832.0,0.5,68,166.74
5323,G#4,832.5,0.25,44,166.74
5324,E4,832.5,0.25,44,166.74
5325,E5,832.5,0.25,44,166.74
5326,G#3,832.5,0.25,39,166.74
5327,C#3,832.5,0.25,39,166.74
5328,E4,833.0,0.25,44,166.74
5329,G#4,833.0,0.25,44,166.74
5330,E5,833.0,0.25,44,166.74
5331,G#3,833.0,0.25,39,166.74
5332,C#3,833.0,0.25,39,166.74
5333,G#4,833.5,0.25,44,166.74
5334,E4,833.5,0.25,44,166.74
5335,E5,833.5,0.25,44,166.74
5336,G#3,833.5,0.25,39,166.74
5337,C#3,833.5,0.25,39,166.74
5338,E5,834.0,0.25,45,166.74
5339,E4,834.0,0.25,45,166.74
5340,G#4,834.0,0.25,45,166.74
5341,C#3,834.0,0.25,39,166.74
5342,G#3,834.0,0.25,39,166.74
5343,G#4,834.5,0.25,45,166.74
5344,E4,834.5,0.25,45,166.74
5345,E5,834.5,0.25,45,166.74
5346,C#3,834.5,0.25,39,166.74
5347,G#3,834.5,0.25,39,166.74
5348,E-4,835.0,0.25,45,166.74
5349,F#4,835.0,0.25,45,166.74
5350,E-5,835.0,0.25,45,166.74
5351,E-3,835.0,0.25,39,166.74
5352,G#3,835.0,0.25,39,166.74
5353,E4,835.5,0.25,47,166.74
5354,C#5,835.5,0.25,47,166.74
5355,C#4,835.5,0.25,47,166.74
5356,G#3,835.5,0.25,41,166.74
5357,E3,835.5,0.25,41,166.74
5358,C5,836.0,0.5,53,166.74
5359,E-4,836.0,0.5,53,166.74
5360,C4,836.0,0.5,53,166.74
5361,G#2,836.0,0.5,45,166.74
5362,G#3,836.0,0.5,45,166.74
5363,F#3,836.0,0.5,45,166.74
5364,E-5,836.5,0.25,74,166.74
5365,C6,836.5,0.25,74,166.74
5366,C5,836.5,0.25,74,166.74
5367,F#4,836.5,0.25,57,166.74
5368,G#3,836.5,0.25,57,166.74
5369,E-5,837.0,0.25,82,166.74
5370,C5,837.0,0.25,82,166.74
5371,C6,837.0,0.25,82,166.74
5372,G#3,837.0,0.25,68,166.74
5373,F#4,837.0,0.25,68,166.74
5374,E-5,837.5,0.25,76,166.74
5375,C5,837.5,0.25,76,166.74
5376,C6,837.5,0.25,76,166.74
5377,F#4,837.5,0.25,60,166.74
5378,G#3,837.5,0.25,60,166.74
5379,C6,838.0,0.25,82,166.74
5380,C5,838.0,0.25,82,166.74
5381,E-5,838.0,0.25,82,166.74
5382,G#3,838.0,0.25,68,166.74
5383,F#4,838.0,0.25,68,166.74
5384,E-5,838.5,0.25,82,166.74
5385,C6,838.5,0.25,82,166.74
5386,C5,838.5,0.25,82,166.74
5387,F#4,838.5,0.25,60,166.74
5388,G#3,838.5,0.25,60,166.74
5389,C#5,839.0,0.25,82,166.74
5390,C#6,839.0,0.25,82,166.74
5391,E5,839.0,0.25,82,166.74
5392,E4,839.0,0.25,68,166.74
5393,G#3,839.0,0.25,68,166.74
5394,E-6,839.5,0.25,76,166.74
5395,E-5,839.5,0.25,76,166.74
5396,F#5,839.5,0.25,76,166.74
5397,G#3,839.5,0.25,59,166.74
5398,E-4,839.5,0.25,59,166.74
5399,E5,840.0,0.5,92,166.74
5400,G#5,840.0,0.5,92,166.74
5401,E6,840.0,0.5,92,166.74
5402,C#4,840.0,0.5,69,166.74
5403,C#3,840.0,0.5,69,166.74
5404,G#5,840.5,0.25,50,166.74
5405,C#6,840.5,0.25,50,166.74
5406,C#4,840.5,0.25,42,166.74
5407,E4,840.5,0.25,42,166.74
5408,C#6,841.0,0.5,50,166.74
5409,G#5,841.0,0.5,50,166.74
5410,E4,841.0,0.5,43,166.74
5411,C#4,841.0,0.5,43,166.74
5412,G#5,841.5,0.5,48,166.74
5413,E5,841.5,0.5,48,166.74
5414,G#4,841.5,0.5,39,166.74
5415,E4,841.5,0.5,39,166.74
5416,F#3,842.0,0.25,48,166.74
5417,A5,842.5,0.25,49,166.74
5418,C#6,842.5,0.25,49,166.74
5419,F#4,842.5,0.25,40,166.74
5420,C#4,842.5,0.25,40,166.74
5421,C#6,843.0,0.5,49,166.74
5422,A5,843.0,0.5,49,166.74
5423,F#4,843.0,0.5,42,166.74
5424,C#4,843.0,0.5,42,166.74
5425,F#5,843.5,0.5,48,166.74
5426,A5,843.5,0.5,48,166.74
5427,F#4,843.5,0.5,39,166.74
5428,A4,843.5,0.5,39,166.74
5429,G#3,844.0,0.25,47,166.74
5430,G#5,844.5,0.25,49,166.74
5431,E5,844.5,0.25,49,166.74
5432,C#4,844.5,0.25,42,166.74
5433,E4,844.5,0.25,42,166.74
5434,E5,845.0,0.5,49,166.74
5435,G#5,845.0,0.5,49,166.74
5436,E4,845.0,0.5,42,166.74
5437,C#4,845.0,0.5,42,166.74
5438,C#5,845.5,0.5,47,166.74
5439,E5,845.5,0.5,47,166.74
5440,G#4,845.5,0.5,39,166.74
5441,E4,845.5,0.5,39,166.74
5442,F#3,846.0,0.25,47,166.74
5443,G#5,846.5,0.25,51,166.74
5444,E-5,846.5,0.25,51,166.74
5445,E-4,846.5,0.25,42,166.74
5446,C4,846.5,0.25,42,166.74
5447,E-5,847.0,0.5,51,166.74
5448,G#5,847.0,0.5,51,166.74
5449,E-4,847.0,0.5,42,166.74
5450,C4,847.0,0.5,42,166.74
5451,C5,847.5,0.5,49,166.74
5452,E-5,847.5,0.5,49,166.74
5453,E-4,847.5,0.5,40,166.74
5454,G#4,847.5,0.5,40,166.74
5455,E3,848.0,0.5,47,166.74
5456,E5,848.5,0.25,56,166.74
5457,G#5,848.5,0.25,56,166.74
5458,C#4,848.5,0.25,42,166.74
5459,G#3,848.5,0.25,42,166.74
5460,E5,849.0,0.5,56,166.74
5461,G#5,849.0,0.5,56,166.74
5462,C#4,849.0,0.5,42,166.74
5463,G#3,849.0,0.5,42,166.74
5464,G#4,849.5,0.5,54,166.74
5465,E5,849.5,0.5,54,166.74
5466,E4,849.5,0.5,39,166.74
5467,C#4,849.5,0.5,39,166.74
5468,F#2,850.0,0.5,47,166.74
5469,F#5,850.5,0.25,65,166.74
5470,A4,850.5,0.25,65,166.74
5471,A3,850.5,0.25,43,166.74
5472,F#3,850.5,0.25,43,166.74
5473,F#5,851.0,0.5,63,166.74
5474,A4,851.0,0.5,63,166.74
5475,F#3,851.0,0.5,43,166.74
5476,A3,851.0,0.5,43,166.74
5477,F#4,851.5,0.5,62,166.74
5478,D5,851.5,0.5,62,166.74
5479,D4,851.5,0.5,41,166.74
5480,A3,851.5,0.5,41,166.74
5481,G#2,852.0,0.5,45,166.74
5482,E5,852.5,0.25,57,166.74
5483,G#4,852.5,0.25,57,166.74
5484,G#3,852.5,0.25,39,166.74
5485,E3,852.5,0.25,39,166.74
5486,G#4,853.0,0.5,57,166.74
5487,E5,853.0,0.5,57,166.74
5488,E3,853.0,0.5,40,166.74
5489,G#3,853.0,0.5,40,166.74
5490,E4,853.5,0.5,57,166.74
5491,C#5,853.5,0.5,57,166.74
5492,G#3,853.5,0.5,42,166.74
5493,C#4,853.5,0.5,42,166.74
5494,G#2,854.0,0.5,48,166.74
5495,E-5,854.5,0.25,49,166.74
5496,F#4,854.5,0.25,49,166.74
5497,E-3,854.5,0.25,39,166.74
5498,F#3,854.5,0.25,39,166.74
5499,E-5,855.0,0.5,49,166.74
5500,F#4,855.0,0.5,49,166.74
5501,F#3,855.0,0.5,39,166.74
5502,E-3,855.0,0.5,39,166.74
5503,C5,855.5,0.5,47,166.74
5504,E-4,855.5,0.5,47,166.74
5505,F#3,855.5,0.5,39,166.74
5506,C4,855.5,0.5,39,166.74
5507,C#2,856.0,31/125,49,166.74
5508,C#5,856.0,1.0,50,166.74
5509,E4,856.0,1.0,50,166.74
5510,C#3,856.25,31/125,31,166.74
5511,G#2,856.5,31/125,36,166.74
5512,C#3,856.75,31/125,32,166.74
5513,C#2,857.0,31/125,41,166.74
5514,C#3,857.25,31/125,32,166.74
5515,G#2,857.5,31/125,36,166.74
5516,C#3,857.75,31/125,32,166.74
5517,C#2,858.0,31/125,41,166.74
5518,C#3,858.25,31/125,32,166.74
5519,G#2,858.5,31/125,37,166.74
5520,C#3,858.75,31/125,37,166.74
5521,E4,859.0,0.75,50,166.74
5522,C#2,859.0,31/125,41,166.74
5523,C#3,859.25,31/125,32,166.74
5524,G#2,859.5,31/125,37,166.74
5525,C#4,859.75,0.25,50,166.74
5526,C#3,859.75,31/125,33,166.74
5527,C4,860.0,1.0,57,166.74
5528,C#2,860.0,31/125,41,166.74
5529,E-3,860.25,31/125,33,166.74
5530,G#2,860.5,31/125,38,166.74
5531,E-3,860.75,31/125,33,166.74
5532,C#2,861.0,31/125,41,166.74
5533,C4,861.0,0.75,44,166.74
5534,F#3,861.0,0.75,44,166.74
5535,G#4,861.0,0.75,44,166.74
5536,E-3,861.25,31/125,32,166.74
5537,G#2,861.5,31/125,37,166.74
5538,E-3,861.75,31/125,32,166.74
5539,C#2,862.0,31/125,41,166.74
5540,C4,862.0,0.75,44,166.74
5541,G#4,862.0,0.75,44,166.74
5542,F#3,862.0,0.75,44,166.74
5543,E-3,862.25,31/125,33,166.74
5544,G#2,862.5,31/125,38,166.74
5545,E-3,862.75,31/125,33,166.74
5546,C#2,863.0,31/125,41,166.74
5547,F#3,863.0,0.75,47,166.74
5548,C4,863.0,0.75,47,166.74
5549,G#4,863.0,0.75,47,166.74
5550,E-3,863.25,31/125,32,166.74
5551,G#2,863.5,31/125,36,166.74
5552,E3,863.75,0.125,50,166.74
5553,E-3,863.75,31/125,33,166.74
5554,C#4,863.875,0.125,50,166.74
5555,G#4,864.0,3.0,57,166.74
5556,C#2,864.0,31/125,41,166.74
5557,C#3,864.25,31/125,33,166.74
5558,G#2,864.5,31/125,37,166.74
5559,C#3,864.75,31/125,33,166.74
5560,C#2,865.0,31/125,41,166.74
5561,C#3,865.25,31/125,34,166.74
5562,G#2,865.5,31/125,38,166.74
5563,C#3,865.75,31/125,34,166.74
5564,C#2,866.0,31/125,41,166.74
5565,C#3,866.25,31/125,34,166.74
5566,G#2,866.5,31/125,38,166.74
5567,C#3,866.75,31/125,33,166.74
5568,E5,867.0,0.75,58,166.74
5569,C#2,867.0,31/125,41,166.74
5570,C#3,867.25,31/125,33,166.74
5571,G#2,867.5,31/125,36,166.74
5572,C#5,867.75,0.25,58,166.74
5573,C#3,867.75,31/125,32,166.74
5574,C5,868.0,1.0,67,166.74
5575,C#2,868.0,31/125,41,166.74
5576,E-3,868.25,31/125,33,166.74
5577,G#2,868.5,31/125,36,166.74
5578,E-3,868.75,31/125,33,166.74
5579,C#2,869.0,31/125,41,166.74
5580,G#5,869.0,0.75,54,166.74
5581,F#4,869.0,0.75,54,166.74
5582,C5,869.0,0.75,54,166.74
5583,E-3,869.25,31/125,33,166.74
5584,G#2,869.5,31/125,36,166.74
5585,E-3,869.75,31/125,33,166.74
5586,C#2,870.0,31/125,41,166.74
5587,C5,870.0,0.75,54,166.74
5588,F#4,870.0,0.75,54,166.74
5589,G#5,870.0,0.75,54,166.74
5590,E-3,870.25,31/125,32,166.74
5591,G#2,870.5,31/125,36,166.74
5592,E-3,870.75,31/125,33,166.74
5593,C#2,871.0,31/125,41,166.74
5594,C5,871.0,0.75,54,166.74
5595,G#5,871.0,0.75,54,166.74
5596,F#4,871.0,0.75,54,166.74
5597,E-3,871.25,31/125,35,166.74
5598,G#2,871.5,31/125,39,166.74
5599,E4,871.75,0.125,47,166.74
5600,E-3,871.75,31/125,34,166.74
5601,C#5,871.875,0.125,53,166.74
5602,G#5,872.0,1.75,73,166.74
5603,C#2,872.0,31/125,41,166.74
5604,C#3,872.25,31/125,33,166.74
5605,G#2,872.5,31/125,36,166.74
5606,C#3,872.75,31/125,33,166.74
5607,C#2,873.0,31/125,42,166.74
5608,C#3,873.25,31/125,31,166.74
5609,G#2,873.5,31/125,35,166.74
5610,F#4,873.75,0.125,45,166.74
5611,C#3,873.75,31/125,32,166.74
5612,C5,873.875,0.125,52,166.74
5613,G#5,874.0,1.75,72,166.74
5614,C#2,874.0,31/125,41,166.74
5615,E-3,874.25,31/125,33,166.74
5616,G#2,874.5,31/125,37,166.74
5617,E-3,874.75,31/125,33,166.74
5618,C#2,875.0,31/125,41,166.74
5619,E-3,875.25,31/125,33,166.74
5620,G#2,875.5,31/125,38,166.74
5621,E4,875.75,0.125,43,166.74
5622,E-3,875.75,31/125,34,166.74
5623,C#5,875.875,0.125,53,166.74
5624,G#5,876.0,1.75,72,166.74
5625,C#2,876.0,31/125,41,166.74
5626,C#3,876.25,31/125,33,166.74
5627,G#2,876.5,31/125,36,166.74
5628,C#3,876.75,31/125,32,166.74
5629,C#2,877.0,31/125,41,166.74
5630,C#3,877.25,31/125,33,166.74
5631,G#2,877.5,31/125,36,166.74
5632,F#4,877.75,0.125,45,166.74
5633,C#3,877.75,31/125,33,166.74
5634,C5,877.875,0.125,53,166.74
5635,G#5,878.0,2.0,71,166.74
5636,C#2,878.0,31/125,41,166.74
5637,E-3,878.25,31/125,33,166.74
5638,G#2,878.5,31/125,37,166.74
5639,E-3,878.75,31/125,33,166.74
5640,C#2,879.0,31/125,41,166.74
5641,E-3,879.25,31/125,33,166.74
5642,G#2,879.5,31/125,37,166.74
5643,E-3,879.75,31/125,34,166.74
5644,E3,880.0,31/125,51,166.74
5645,C#2,880.0,31/125,41,166.74
5646,C#4,880.25,31/125,48,166.74
5647,C#3,880.25,31/125,39,166.74
5648,G#3,880.5,31/125,51,166.74
5649,G#2,880.5,31/125,43,166.74
5650,C#4,880.75,31/125,49,166.74
5651,C#3,880.75,31/125,42,166.74
5652,E3,881.0,31/125,53,166.74
5653,C#2,881.0,31/125,45,166.74
5654,C#4,881.25,31/125,51,166.74
5655,C#3,881.25,31/125,43,166.74
5656,G#3,881.5,31/125,56,166.74
5657,G#2,881.5,31/125,47,166.74
5658,C#4,881.75,31/125,52,166.74
5659,C#3,881.75,31/125,43,166.74
5660,E3,882.0,31/125,57,166.74
5661,C#2,882.0,31/125,48,166.74
5662,C#4,882.25,31/125,53,166.74
5663,C#3,882.25,31/125,45,166.74
5664,G#3,882.5,31/125,59,166.74
5665,G#2,882.5,31/125,50,166.74
5666,C#4,882.75,31/125,56,166.74
5667,C#3,882.75,31/125,45,166.74
5668,E3,883.0,31/125,61,166.74
5669,C#2,883.0,31/125,51,166.74
5670,C#4,883.25,31/125,57,166.74
5671,C#3,883.25,31/125,47,166.74
5672,G#3,883.5,31/125,62,166.74
5673,G#2,883.5,31/125,52,166.74
5674,C#4,883.75,31/125,57,166.74
5675,C#3,883.75,31/125,49,166.74
5676,B1,884.0,31/125,55,166.74
5677,F3,884.0,31/125,65,166.74
5678,C#3,884.0,31/125,65,166.74
5679,C#4,884.25,31/125,58,166.74
5680,B2,884.25,31/125,50,166.74
5681,G#3,884.5,31/125,67,166.74
5682,C#2,884.5,31/125,56,166.74
5683,C#4,884.75,31/125,60,166.74
5684,B2,884.75,31/125,51,166.74
5685,B1,885.0,31/125,57,166.74
5686,F3,885.0,31/125,68,166.74
5687,C#3,885.0,31/125,68,166.74
5688,C#4,885.25,31/125,61,166.74
5689,B2,885.25,31/125,52,166.74
5690,G#3,885.5,31/125,69,166.74
5691,C#2,885.5,31/125,58,166.74
5692,C#4,885.75,31/125,65,166.74
5693,B2,885.75,31/125,53,166.74
5694,B1,886.0,31/125,61,166.74
5695,F3,886.0,31/125,72,166.74
5696,C#3,886.0,31/125,72,166.74
5697,C#4,886.25,31/125,67,166.74
5698,B2,886.25,31/125,57,166.74
5699,G#3,886.5,31/125,73,166.74
5700,C#2,886.5,31/125,62,166.74
5701,C#4,886.75,31/125,68,166.74
5702,B2,886.75,31/125,57,166.74
5703,B1,887.0,31/125,62,166.74
5704,C#3,887.0,31/125,74,166.74
5705,F3,887.0,31/125,74,166.74
5706,C#4,887.25,31/125,70,166.74
5707,B2,887.25,31/125,58,166.74
5708,G#3,887.5,31/125,76,166.74
5709,C#2,887.5,31/125,64,166.74
5710,C#4,887.75,53/250,71,166.74
5711,B2,887.75,53/250,60,166.74
5712,F#3,888.0,0.25,70,166.74
5713,C#4,888.0,0.25,70,166.74
5714,C#3,888.0,0.25,70,166.74
5715,A3,888.0,0.25,70,166.74
5716,A1,888.0,0.25,62,166.74
5717,A2,888.0,0.25,62,166.74
5718,C#3,888.25,73/250,53,166.74
5719,F#3,888.5,73/250,56,166.74
5720,F#2,888.5,0.25,39,166.74
5721,A3,888.75,73/250,57,166.74
5722,C#4,889.0,73/250,59,166.74
5723,A1,889.0,0.25,39,166.74
5724,F#3,889.25,73/250,54,166.74
5725,A3,889.5,73/250,54,166.74
5726,F#2,889.5,0.25,36,166.74
5727,C#4,889.75,73/250,56,166.74
5728,F#4,890.0,73/250,57,166.74
5729,A1,890.0,0.25,39,166.74
5730,A3,890.25,73/250,53,166.74
5731,C#4,890.5,73/250,56,166.74
5732,F#2,890.5,0.25,35,166.74
5733,F#4,890.75,73/250,57,166.74
5734,A4,891.0,73/250,58,166.74
5735,A1,891.0,0.25,39,166.74
5736,C#4,891.25,73/250,53,166.74
5737,F#4,891.5,73/250,53,166.74
5738,F#2,891.5,0.25,35,166.74
5739,A4,891.75,0.25,54,166.74
5740,C#5,892.0,73/250,57,166.74
5741,A4,892.0,21/500,54,166.74
5742,A1,892.0,0.25,39,166.74
5743,F#4,892.25,73/250,58,166.74
5744,A4,892.5,73/250,51,166.74
5745,F#2,892.5,0.25,40,166.74
5746,C#5,892.75,73/250,52,166.74
5747,F#5,893.0,73/250,56,166.74
5748,A1,893.0,0.25,40,166.74
5749,A4,893.25,73/250,51,166.74
5750,C#5,893.5,73/250,51,166.74
5751,F#2,893.5,0.25,40,166.74
5752,F#5,893.75,73/250,53,166.74
5753,A5,894.0,73/250,56,166.74
5754,A1,894.0,0.25,40,166.74
5755,C#5,894.25,73/250,51,166.74
5756,F#5,894.5,73/250,54,166.74
5757,F#2,894.5,0.25,36,166.74
5758,A5,894.75,0.25,57,166.74
5759,C#6,895.0,0.25,90,166.74
5760,C#5,895.0,0.25,90,166.74
5761,A5,895.0,0.25,90,166.74
5762,F#5,895.0,0.25,90,166.74
5763,A2,895.0,0.25,75,166.74
5764,A1,895.0,0.25,75,166.74
5765,F#2,895.5,0.25,69,166.74
5766,A5,895.5,0.25,75,166.74
5767,F#5,895.5,0.25,75,166.74
5768,C#6,895.5,0.25,75,166.74
5769,C#5,895.5,0.25,75,166.74
5770,G#1,896.0,0.25,52,166.74
5771,C#3,896.25,73/250,58,166.74
5772,E3,896.5,73/250,60,166.74
5773,E2,896.5,0.25,47,166.74
5774,G#3,896.75,73/250,62,166.74
5775,C#4,897.0,73/250,65,166.74
5776,G#1,897.0,0.25,52,166.74
5777,E3,897.25,73/250,60,166.74
5778,G#3,897.5,73/250,62,166.74
5779,E2,897.5,0.25,48,166.74
5780,C#4,897.75,73/250,63,166.74
5781,E4,898.0,73/250,66,166.74
5782,G#1,898.0,0.25,52,166.74
5783,G#3,898.25,73/250,61,166.74
5784,C#4,898.5,73/250,62,166.74
5785,E2,898.5,0.25,48,166.74
5786,E4,898.75,73/250,63,166.74
5787,G#4,899.0,73/250,67,166.74
5788,G#1,899.0,0.25,52,166.74
5789,C#4,899.25,73/250,61,166.74
5790,E4,899.5,73/250,62,166.74
5791,E2,899.5,0.25,52,166.74
5792,G#4,899.75,0.25,63,166.74
5793,C#5,900.0,73/250,66,166.74
5794,G#4,900.0,21/500,63,166.74
5795,G#1,900.0,0.25,52,166.74
5796,E4,900.25,73/250,63,166.74
5797,G#4,900.5,73/250,63,166.74
5798,E2,900.5,0.25,52,166.74
5799,C#5,900.75,73/250,62,166.74
5800,E5,901.0,73/250,66,166.74
5801,G#1,901.0,0.25,52,166.74
5802,G#4,901.25,73/250,62,166.74
5803,C#5,901.5,73/250,62,166.74
5804,E2,901.5,0.25,48,166.74
5805,E5,901.75,73/250,67,166.74
5806,G#5,902.0,73/250,68,166.74
5807,G#1,902.0,0.25,52,166.74
5808,C#5,902.25,73/250,62,166.74
5809,E5,902.5,73/250,66,166.74
5810,E2,902.5,0.25,48,166.74
5811,G#5,902.75,0.25,68,166.74
5812,C#6,903.0,0.25,100,166.74
5813,E5,903.0,0.25,100,166.74
5814,C#5,903.0,0.25,100,166.74
5815,G#5,903.0,0.25,100,166.74
5816,G#1,903.0,0.25,79,166.74
5817,G#2,903.0,0.25,79,166.74
5818,E2,903.5,0.25,77,166.74
5819,C#5,903.5,0.25,88,166.74
5820,E5,903.5,0.25,88,166.74
5821,G#5,903.5,0.25,88,166.74
5822,C#6,903.5,0.25,88,166.74
5823,G1,904.0,1.5,39,166.74
5824,C#3,904.5,2.0,31,166.74
5825,E3,904.625,1.875,33,166.74
5826,G3,904.75,1.75,35,166.74
5827,B-3,904.875,1.625,39,166.74
5828,C#4,905.0,1.5,45,166.74
5829,G1,905.5,2.0,45,166.74
5830,B-1,905.625,1.875,47,166.74
5831,C#2,905.75,1.75,50,166.74
5832,E2,905.875,1.625,51,166.74
5833,G2,906.0,1.5,53,166.74
5834,C#4,906.5,1.5,53,166.74
5835,E4,906.625,1.375,56,166.74
5836,G4,906.75,1.25,58,166.74
5837,B-4,906.875,1.125,61,166.74
5838,C#5,907.0,1.0,62,166.74
5839,G2,907.5,0.5,51,166.74
5840,B-2,907.625,0.375,56,166.74
5841,C#3,907.75,0.25,58,166.74
5842,E3,907.875,0.125,61,166.74
5843,C#4,908.0,0.5,53,166.74
5844,E4,908.0,0.5,56,166.74
5845,G4,908.0,0.5,58,166.74
5846,B-4,908.0,0.5,61,166.74
5847,G3,908.0,0.5,63,166.74
5848,G2,908.0,1.0,51,166.74
5849,B-2,908.0,1.0,56,166.74
5850,C#3,908.0,1.0,58,166.74
5851,E3,908.0,1.0,61,166.74
5852,C#5,908.5,3.5,66,166.74
5853,E5,908.625,3.375,68,166.74
5854,G5,908.75,3.25,73,166.74
5855,B-5,908.875,3.125,76,166.74
5856,C#6,909.0,3.0,79,166.74
5857,E4,909.0,3.0,73,166.74
5858,C#4,909.0,3.0,73,166.74
5859,G3,909.0,3.0,73,166.74
5860,B-3,909.0,3.0,73,166.74
5861,F#1,912.0,1.5,47,166.74
5862,A2,912.5,2.0,29,166.74
5863,C3,912.625,1.875,32,166.74
5864,E-3,912.75,1.75,35,166.74
5865,F#3,912.875,1.625,38,166.74
5866,A3,913.0,1.5,41,166.74
5867,F#1,913.5,2.0,41,166.74
5868,A1,913.625,1.875,43,166.74
5869,C2,913.75,1.75,47,166.74
5870,E-2,913.875,1.625,49,166.74
5871,F#2,914.0,1.5,52,166.74
5872,A3,914.5,1.5,56,166.74
5873,C4,914.625,1.375,57,166.74
5874,E-4,914.75,1.25,58,166.74
5875,F#4,914.875,1.125,59,166.74
5876,A4,915.0,1.0,62,166.74
5877,F#2,915.5,0.5,54,166.74
5878,A2,915.625,0.375,56,166.74
5879,C3,915.75,0.25,58,166.74
5880,E-3,915.875,0.125,61,166.74
5881,A3,916.0,0.5,56,166.74
5882,C4,916.0,0.5,57,166.74
5883,E-4,916.0,0.5,58,166.74
5884,F#4,916.0,0.5,59,166.74
5885,F#3,916.0,0.5,62,166.74
5886,F#2,916.0,1.0,54,166.74
5887,A2,916.0,1.0,56,166.74
5888,C3,916.0,1.0,58,166.74
5889,E-3,916.0,1.0,61,166.74
5890,A4,916.25,3.75,73,166.74
5891,C5,916.5,3.5,77,166.74
5892,E-5,916.75,3.25,79,166.74
5893,A5,917.0,3.0,91,166.74
5894,E-4,917.0,3.0,73,166.74
5895,A3,917.0,3.0,73,166.74
5896,F#3,917.0,3.0,73,166.74
5897,C4,917.0,3.0,73,166.74
5898,C#3,920.0,0.5,41,166.74
5899,G#4,920.25,73/250,31,166.74
5900,E4,920.5,73/250,34,166.74
5901,G#4,920.75,73/250,30,166.74
5902,C#4,921.0,31/125,39,166.74
5903,G#3,921.0,2.0,56,166.74
5904,G#4,921.25,31/125,30,166.74
5905,E4,921.5,31/125,34,166.74
5906,G#4,921.75,31/125,30,166.74
5907,C#4,922.0,31/125,39,166.74
5908,G#4,922.25,31/125,31,166.74
5909,E4,922.5,31/125,34,166.74
5910,G#4,922.75,31/125,30,166.74
5911,C#4,923.0,31/125,39,166.74
5912,E3,923.0,0.75,48,166.74
5913,G#4,923.25,31/125,31,166.74
5914,E4,923.5,31/125,34,166.74
5915,G#4,923.75,31/125,31,166.74
5916,C#3,923.75,6/25,48,166.74
5917,E-4,924.0,73/250,39,166.74
5918,C#3,924.0,1.0,54,166.74
5919,G#4,924.25,73/250,31,166.74
5920,F#4,924.5,73/250,34,166.74
5921,G#4,924.75,73/250,30,166.74
5922,E-4,925.0,31/125,50,166.74
5923,C3,925.0,1.5,47,166.74
5924,G#4,925.25,31/125,43,166.74
5925,F#4,925.5,31/125,47,166.74
5926,G#4,925.75,31/125,44,166.74
5927,E-4,926.0,31/125,58,166.74
5928,G#4,926.25,31/125,46,166.74
5929,F#4,926.5,31/125,54,166.74
5930,C3,926.5,0.5,47,166.74
5931,G#4,926.75,31/125,51,166.74
5932,E-4,927.0,31/125,66,166.74
5933,G#3,927.0,0.75,56,166.74
5934,G#4,927.25,31/125,49,166.74
5935,F#4,927.5,31/125,51,166.74
5936,G#4,927.75,31/125,43,166.74
5937,C3,927.75,0.25,47,166.74
5938,C#4,928.0,73/250,39,166.74
5939,E-3,928.0,1.0,43,166.74
5940,G#4,928.25,73/250,30,166.74
5941,E4,928.5,73/250,34,166.74
5942,G#4,928.75,73/250,31,166.74
5943,C#4,929.0,31/125,50,166.74
5944,C#3,929.0,1.5,47,166.74
5945,G#4,929.25,31/125,40,166.74
5946,E4,929.5,31/125,47,166.74
5947,G#4,929.75,31/125,43,166.74
5948,C#4,930.0,31/125,58,166.74
5949,G#4,930.25,31/125,48,166.74
5950,E4,930.5,31/125,54,166.74
5951,C#3,930.5,0.5,48,166.74
5952,G#4,930.75,31/125,49,166.74
5953,C#4,931.0,31/125,66,166.74
5954,G#3,931.0,0.75,53,166.74
5955,G#4,931.25,31/125,49,166.74
5956,E4,931.5,31/125,51,166.74
5957,G#4,931.75,31/125,42,166.74
5958,C#3,931.75,0.25,47,166.74
5959,C4,932.0,73/250,39,166.74
5960,E3,932.0,1.0,43,166.74
5961,G#4,932.25,73/250,29,166.74
5962,F#4,932.5,73/250,34,166.74
5963,G#4,932.75,73/250,30,166.74
5964,C4,933.0,31/125,50,166.74
5965,E-3,933.0,1.5,47,166.74
5966,G#4,933.25,31/125,40,166.74
5967,F#4,933.5,31/125,47,166.74
5968,G#4,933.75,31/125,43,166.74
5969,C4,934.0,31/125,58,166.74
5970,G#4,934.25,31/125,49,166.74
5971,F#4,934.5,31/125,54,166.74
5972,E-3,934.5,0.5,48,166.74
5973,G#4,934.75,31/125,49,166.74
5974,C4,935.0,31/125,66,166.74
5975,G#3,935.0,0.75,53,166.74
5976,G#4,935.25,31/125,48,166.74
5977,F#4,935.5,31/125,51,166.74
5978,G#4,935.75,53/250,43,166.74
5979,E-3,935.75,0.25,47,166.74
5980,E3,936.0,73/250,40,166.74
5981,E4,936.0,0.5,41,166.74
5982,G#4,936.0,0.5,41,166.74
5983,C#4,936.0,0.5,41,166.74
5984,G#3,936.25,73/250,35,166.74
5985,E3,936.5,73/250,40,166.74
5986,G#3,936.75,73/250,34,166.74
5987,E3,937.0,31/125,47,166.74
5988,G#5,937.0,2.0,57,166.74
5989,G#4,937.0,2.0,57,166.74
5990,G#3,937.25,31/125,34,166.74
5991,E3,937.5,31/125,40,166.74
5992,G#3,937.75,31/125,34,166.74
5993,E3,938.0,31/125,47,166.74
5994,G#3,938.25,31/125,34,166.74
5995,E3,938.5,31/125,39,166.74
5996,G#3,938.75,31/125,34,166.74
5997,E3,939.0,31/125,47,166.74
5998,E4,939.0,0.75,47,166.74
5999,E5,939.0,0.75,47,166.74
6000,G#3,939.25,31/125,35,166.74
6001,E3,939.5,31/125,40,166.74
6002,G#3,939.75,31/125,34,166.74
6003,C#4,939.75,6/25,47,166.74
6004,C#5,939.75,6/25,47,166.74
6005,F#3,940.0,31/125,47,166.74
6006,C#5,940.0,1.0,54,166.74
6007,C#4,940.0,1.0,54,166.74
6008,G#3,940.25,31/125,33,166.74
6009,F#3,940.5,31/125,39,166.74
6010,G#3,940.75,31/125,34,166.74
6011,F#3,941.0,31/125,55,166.74
6012,C5,941.0,1.5,46,166.74
6013,C4,941.0,1.5,46,166.74
6014,G#3,941.25,31/125,45,166.74
6015,F#3,941.5,31/125,57,166.74
6016,G#3,941.75,31/125,53,166.74
6017,F#3,942.0,31/125,67,166.74
6018,G#3,942.25,31/125,52,166.74
6019,F#3,942.5,31/125,62,166.74
6020,C5,942.5,0.5,47,166.74
6021,C4,942.5,0.5,47,166.74
6022,G#3,942.75,31/125,56,166.74
6023,F#3,943.0,31/125,71,166.74
6024,G#5,943.0,0.75,56,166.74
6025,G#4,943.0,0.75,56,166.74
6026,G#3,943.25,31/125,56,166.74
6027,F#3,943.5,31/125,58,166.74
6028,G#3,943.75,31/125,49,166.74
6029,C4,943.75,0.25,47,166.74
6030,C5,943.75,0.25,47,166.74
6031,E3,944.0,31/125,47,166.74
6032,E-4,944.0,1.0,46,166.74
6033,E-5,944.0,1.0,46,166.74
6034,G#3,944.25,31/125,34,166.74
6035,E3,944.5,31/125,40,166.74
6036,G#3,944.75,31/125,34,166.74
6037,E3,945.0,31/125,56,166.74
6038,C#4,945.0,1.5,47,166.74
6039,C#5,945.0,1.5,47,166.74
6040,G#3,945.25,31/125,47,166.74
6041,E3,945.5,31/125,57,166.74
6042,G#3,945.75,31/125,50,166.74
6043,E3,946.0,31/125,68,166.74
6044,G#3,946.25,31/125,52,166.74
6045,E3,946.5,31/125,64,166.74
6046,C#5,946.5,0.5,46,166.74
6047,C#4,946.5,0.5,46,166.74
6048,G#3,946.75,31/125,57,166.74
6049,E3,947.0,31/125,75,166.74
6050,G#5,947.0,0.75,56,166.74
6051,G#4,947.0,0.75,56,166.74
6052,G#3,947.25,31/125,56,166.74
6053,E3,947.5,31/125,61,166.74
6054,G#3,947.75,31/125,49,166.74
6055,C#4,947.75,0.25,46,166.74
6056,C#5,947.75,0.25,46,166.74
6057,C3,948.0,31/125,47,166.74
6058,E5,948.0,1.0,49,166.74
6059,E4,948.0,1.0,49,166.74
6060,G#3,948.25,31/125,37,166.74
6061,C3,948.5,31/125,41,166.74
6062,G#3,948.75,31/125,35,166.74
6063,C3,949.0,31/125,59,166.74
6064,E-5,949.0,1.5,48,166.74
6065,E-4,949.0,1.5,48,166.74
6066,G#3,949.25,31/125,47,166.74
6067,C3,949.5,31/125,56,166.74
6068,G#3,949.75,31/125,49,166.74
6069,C3,950.0,31/125,69,166.74
6070,G#3,950.25,31/125,52,166.74
6071,C3,950.5,31/125,62,166.74
6072,E-4,950.5,0.5,47,166.74
6073,E-5,950.5,0.5,47,166.74
6074,G#3,950.75,31/125,56,166.74
6075,C3,951.0,31/125,77,166.74
6076,G#5,951.0,0.75,54,166.74
6077,G#4,951.0,0.75,54,166.74
6078,G#3,951.25,31/125,54,166.74
6079,C3,951.5,31/125,58,166.74
6080,G#3,951.75,31/125,47,166.74
6081,E-5,951.75,0.25,47,166.74
6082,E-4,951.75,0.25,47,166.74
6083,C#3,952.0,73/250,47,166.74
6084,F#4,952.0,0.5,50,166.74
6085,F#5,952.0,0.5,50,166.74
6086,G#3,952.25,73/250,43,166.74
6087,C#3,952.5,73/250,47,166.74
6088,E4,952.5,0.5,48,166.74
6089,E5,952.5,0.5,48,166.74
6090,G#3,952.75,73/250,43,166.74
6091,C#3,953.0,73/250,49,166.74
6092,C#6,953.0,0.25,54,166.74
6093,C#5,953.0,0.25,54,166.74
6094,G#3,953.25,73/250,46,166.74
6095,C#3,953.5,73/250,51,166.74
6096,E4,953.5,0.25,51,166.74
6097,E5,953.5,0.25,51,166.74
6098,G#3,953.75,73/250,48,166.74
6099,B2,954.0,73/250,53,166.74
6100,F#4,954.0,0.5,57,166.74
6101,F#5,954.0,0.5,57,166.74
6102,C#3,954.25,73/250,51,166.74
6103,B2,954.5,73/250,56,166.74
6104,F5,954.5,0.5,56,166.74
6105,F4,954.5,0.5,56,166.74
6106,C#3,954.75,73/250,51,166.74
6107,B2,955.0,73/250,57,166.74
6108,C#5,955.0,0.25,60,166.74
6109,C#6,955.0,0.25,60,166.74
6110,C#3,955.25,73/250,53,166.74
6111,B2,955.5,73/250,59,166.74
6112,F4,955.5,0.25,60,166.74
6113,F5,955.5,0.25,60,166.74
6114,C#3,955.75,0.25,53,166.74
6115,A2,956.0,73/250,62,166.74
6116,C#3,956.0,21/500,53,166.74
6117,G#5,956.0,0.5,66,166.74
6118,G#4,956.0,0.5,66,166.74
6119,C#3,956.25,73/250,56,166.74
6120,A2,956.5,73/250,62,166.74
6121,F#4,956.5,0.5,63,166.74
6122,F#5,956.5,0.5,63,166.74
6123,C#3,956.75,73/250,58,166.74
6124,A2,957.0,73/250,66,166.74
6125,C#5,957.0,0.25,68,166.74
6126,C#6,957.0,0.25,68,166.74
6127,C#3,957.25,73/250,61,166.74
6128,A2,957.5,73/250,68,166.74
6129,F#4,957.5,0.25,68,166.74
6130,F#5,957.5,0.25,68,166.74
6131,C#3,957.75,73/250,62,166.74
6132,F2,958.0,73/250,69,166.74
6133,A5,958.0,0.5,73,166.74
6134,A4,958.0,0.5,73,166.74
6135,C#3,958.25,73/250,66,166.74
6136,F2,958.5,73/250,72,166.74
6137,G#5,958.5,0.5,72,166.74
6138,G#4,958.5,0.5,72,166.74
6139,C#3,958.75,73/250,68,166.74
6140,F2,959.0,73/250,73,166.74
6141,C#5,959.0,0.25,78,166.74
6142,C#6,959.0,0.25,78,166.74
6143,C#3,959.25,73/250,68,166.74
6144,F2,959.5,73/250,76,166.74
6145,G#4,959.5,0.25,76,166.74
6146,G#5,959.5,0.25,76,166.74
6147,C#3,959.75,0.25,70,166.74
6148,A5,960.0,333/1000,84,166.74
6149,C#3,960.0,21/500,70,166.74
6150,C#2,960.0,4.0,71,166.74
6151,F#2,960.0,4.0,71,166.74
6152,F#1,960.0,4.0,71,166.74
6153,F#5,960.333,333/1000,67,166.74
6154,C#5,960.667,333/1000,66,166.74
6155,A4,961.0,333/1000,73,166.74
6156,F#4,961.333,333/1000,62,166.74
6157,C#4,961.667,333/1000,63,166.74
6158,A4,962.0,333/1000,71,166.74
6159,F#4,962.333,333/1000,63,166.74
6160,C#4,962.667,333/1000,63,166.74
6161,A3,963.0,333/1000,71,166.74
6162,F#3,963.333,333/1000,61,166.74
6163,C#3,963.667,333/1000,62,166.74
6164,A3,964.0,0.25,78,166.74
6165,C#2,964.0,4.0,71,166.74
6166,F#2,964.0,4.0,71,166.74
6167,F#1,964.0,4.0,71,166.74
6168,F#3,964.25,0.25,61,166.74
6169,C#3,964.5,0.25,67,166.74
6170,A2,964.75,0.25,62,166.74
6171,C#3,965.0,0.25,71,166.74
6172,E3,965.25,0.25,62,166.74
6173,G#3,965.5,0.25,67,166.74
6174,C#4,965.75,0.25,62,166.74
6175,F#4,966.0,0.25,71,166.74
6176,A4,966.25,0.25,61,166.74
6177,C#5,966.5,0.25,67,166.74
6178,F#5,966.75,0.25,60,166.74
6179,A5,967.0,0.25,72,166.74
6180,F#5,967.25,0.25,63,166.74
6181,C#5,967.5,0.25,68,166.74
6182,A4,967.75,0.25,65,166.74
6183,A5,968.0,333/1000,84,166.74
6184,D2,968.0,4.0,56,166.74
6185,F#2,968.0,4.0,56,166.74
6186,F#1,968.0,4.0,56,166.74
6187,F#5,968.333,333/1000,65,166.74
6188,D5,968.667,333/1000,66,166.74
6189,A4,969.0,333/1000,71,166.74
6190,F#4,969.333,333/1000,62,166.74
6191,D4,969.667,333/1000,65,166.74
6192,A4,970.0,333/1000,70,166.74
6193,F#4,970.333,333/1000,62,166.74
6194,D4,970.667,333/1000,63,166.74
6195,A3,971.0,333/1000,72,166.74
6196,F#3,971.333,333/1000,62,166.74
6197,D3,971.667,333/1000,62,166.74
6198,A3,972.0,0.25,77,166.74
6199,F#3,972.25,0.25,65,166.74
6200,D3,972.5,0.25,70,166.74
6201,A2,972.75,0.25,66,166.74
6202,D3,973.0,0.25,73,166.74
6203,F#3,973.25,0.25,62,166.74
6204,A3,973.5,0.25,68,166.74
6205,D4,973.75,0.25,63,166.74
6206,F#4,974.0,0.25,72,166.74
6207,A4,974.25,0.25,62,166.74
6208,D5,974.5,0.25,68,166.74
6209,F#5,974.75,0.25,65,166.74
6210,A5,975.0,0.25,78,166.74
6211,F#5,975.25,0.25,66,166.74
6212,D5,975.5,0.25,70,166.74
6213,A4,975.75,0.25,67,166.74
6214,C#6,976.0,333/1000,85,166.74
6215,D2,976.0,4.0,56,166.74
6216,F#2,976.0,4.0,56,166.74
6217,F#1,976.0,4.0,56,166.74
6218,B-5,976.333,333/1000,68,166.74
6219,G5,976.667,333/1000,67,166.74
6220,E5,977.0,333/1000,78,166.74
6221,C#5,977.333,333/1000,65,166.74
6222,B-4,977.667,333/1000,67,166.74
6223,E5,978.0,333/1000,78,166.74
6224,C#5,978.333,333/1000,68,166.74
6225,B-4,978.667,333/1000,68,166.74
6226,G4,979.0,0.25,74,166.74
6227,E4,979.25,0.25,62,166.74
6228,C#4,979.5,0.25,67,166.74
6229,B-3,979.75,0.25,62,166.74
6230,E4,980.0,0.25,72,166.74
6231,C#2,980.0,4.0,56,166.74
6232,G1,980.0,4.0,56,166.74
6233,G2,980.0,4.0,56,166.74
6234,C#4,980.25,0.25,63,166.74
6235,B-3,980.5,0.25,68,166.74
6236,G3,980.75,0.25,63,166.74
6237,E3,981.0,0.25,73,166.74
6238,C#3,981.25,0.25,65,166.74
6239,E3,981.5,0.25,68,166.74
6240,G3,981.75,0.25,63,166.74
6241,B-3,982.0,167/1000,79,166.74
6242,C#4,982.167,167/1000,64,166.74
6243,E4,982.333,167/1000,69,166.74
6244,G4,982.5,167/1000,66,166.74
6245,B-4,982.667,167/1000,70,166.74
6246,C#5,982.833,167/1000,65,166.74
6247,E5,983.0,167/1000,71,166.74
6248,G5,983.167,167/1000,67,166.74
6249,B-5,983.333,167/1000,72,166.74
6250,C#6,983.5,167/1000,67,166.74
6251,B-5,983.667,167/1000,73,166.74
6252,E5,983.833,167/1000,68,166.74
6253,E6,984.0,333/1000,87,166.74
6254,C#6,984.333,333/1000,67,166.74
6255,G#5,984.667,333/1000,67,166.74
6256,E5,985.0,333/1000,78,166.74
6257,C#5,985.333,333/1000,66,166.74
6258,G#4,985.667,333/1000,67,166.74
6259,E5,986.0,333/1000,78,166.74
6260,C#5,986.333,333/1000,66,166.74
6261,G#4,986.667,333/1000,66,166.74
6262,E4,987.0,0.25,78,166.74
6263,C#5,987.25,0.25,67,166.74
6264,G#4,987.5,0.25,70,166.74
6265,E4,987.75,0.25,68,166.74
6266,C#4,988.0,0.25,79,166.74
6267,C#2,988.0,4.0,56,166.74
6268,G1,988.0,4.0,56,166.74
6269,G2,988.0,4.0,56,166.74
6270,G#4,988.25,0.25,65,166.74
6271,E4,988.5,0.25,68,166.74
6272,C#4,988.75,0.25,65,166.74
6273,G#3,989.0,0.25,78,166.74
6274,E4,989.25,0.25,63,166.74
6275,C#4,989.5,0.25,67,166.74
6276,G#3,989.75,0.25,62,166.74
6277,E3,990.0,0.25,79,166.74
6278,C#4,990.25,0.25,65,166.74
6279,G#3,990.5,0.25,68,166.74
6280,E3,990.75,0.25,65,166.74
6281,C#3,991.0,0.25,78,166.74
6282,G#3,991.25,0.25,63,166.74
6283,E3,991.5,0.25,68,166.74
6284,C#3,991.75,0.25,62,166.74
6285,G#2,992.0,0.25,47,166.74
6286,C#2,992.0,4.0,55,166.74
6287,G#2,992.0,4.0,55,166.74
6288,G#1,992.0,4.0,55,166.74
6289,A2,992.25,0.25,47,166.74
6290,B-2,992.5,0.25,48,166.74
6291,B2,992.75,0.25,49,166.74
6292,C3,993.0,0.25,51,166.74
6293,C#3,993.25,0.25,51,166.74
6294,D3,993.5,0.25,51,166.74
6295,E-3,993.75,0.25,52,166.74
6296,E3,994.0,0.25,54,166.74
6297,F3,994.25,0.25,56,166.74
6298,F#3,994.5,0.25,56,166.74
6299,G3,994.75,0.25,57,166.74
6300,G#3,995.0,0.25,58,166.74
6301,A3,995.25,0.25,59,166.74
6302,B-3,995.5,0.25,60,166.74
6303,B3,995.75,0.25,61,166.74
6304,C4,996.0,0.25,62,166.74
6305,C#4,996.25,0.25,62,166.74
6306,D4,996.5,0.25,63,166.74
6307,E-4,996.75,0.25,65,166.74
6308,E4,997.0,1/5,67,166.74
6309,F4,997.2,1/5,68,166.74
6310,F#4,997.4,1/5,68,166.74
6311,G4,997.6,1/5,68,166.74
6312,G#4,997.8,1/5,69,166.74
6313,A4,998.0,1/5,70,166.74
6314,B-4,998.2,1/5,71,166.74
6315,B4,998.4,1/5,72,166.74
6316,C5,998.6,1/5,73,166.74
6317,C#5,998.8,1/5,73,166.74
6318,D5,999.0,167/1000,74,166.74
6319,E-5,999.167,167/1000,74,166.74
6320,E5,999.333,167/1000,75,166.74
6321,F5,999.5,0.125,76,166.74
6322,F#5,999.625,0.125,77,166.74
6323,G5,999.75,0.125,77,166.74
6324,G#5,999.875,0.125,77,166.74
6325,A5,1000.0,0.188,81,166.74
6326,C#2,1000.0,4.0,55,166.74
6327,G#2,1000.0,4.0,55,166.74
6328,G#1,1000.0,4.0,55,166.74
6329,B5,1000.188,0.188,72,166.74
6330,A5,1000.375,167/1000,77,166.74
6331,B5,1000.542,167/1000,71,166.74
6332,A5,1000.708,167/1000,79,166.74
6333,B5,1000.875,167/1000,71,166.74
6334,A5,1001.042,167/1000,81,166.74
6335,B5,1001.208,167/1000,74,166.74
6336,A5,1001.375,167/1000,81,166.74
6337,B5,1001.542,167/1000,73,166.74
6338,A5,1001.708,167/1000,81,166.74
6339,B5,1001.875,167/1000,79,166.74
6340,A5,1002.042,0.156,79,166.74
6341,B5,1002.198,0.156,76,166.74
6342,A5,1002.354,0.156,79,166.74
6343,B5,1002.51,0.156,76,166.74
6344,A5,1002.667,73/500,78,166.74
6345,B5,1002.812,0.156,74,166.74
6346,A5,1002.969,0.156,77,166.74
6347,B5,1003.125,167/1000,70,166.74
6348,A5,1003.292,167/1000,74,166.74
6349,B5,1003.458,167/1000,68,166.74
6350,A5,1003.625,0.188,74,166.74
6351,B5,1003.812,0.188,68,166.74
6352,G#5,1004.0,333/1000,75,166.74
6353,F#5,1004.333,333/1000,62,166.74
6354,E5,1004.667,333/1000,62,166.74
6355,E-5,1005.0,333/1000,62,166.74
6356,F#5,1005.333,333/1000,65,166.74
6357,C#5,1005.667,333/1000,62,166.74
6358,C5,1006.0,333/1000,62,166.74
6359,E-5,1006.333,333/1000,65,166.74
6360,A4,1006.667,333/1000,62,166.74
6361,G#4,1007.0,333/1000,62,166.74
6362,F#4,1007.333,333/1000,62,166.74
6363,A4,1007.667,333/1000,65,166.74
6364,E4,1008.0,333/1000,62,166.74
6365,E-4,1008.333,333/1000,62,166.74
6366,F#4,1008.667,333/1000,66,166.74
6367,C#4,1009.0,333/1000,62,166.74
6368,C4,1009.333,333/1000,62,166.74
6369,E-4,1009.667,333/1000,62,166.74
6370,A3,1010.0,333/1000,62,166.74
6371,G#3,1010.333,333/1000,62,166.74
6372,F#3,1010.667,333/1000,62,166.74
6373,A3,1011.0,333/1000,63,166.74
6374,E3,1011.333,333/1000,62,166.74
6375,E-3,1011.667,333/1000,62,166.74
6376,F#3,1012.0,333/1000,65,166.74
6377,C4,1012.0,4.0,62,166.74
6378,F#4,1012.0,4.0,62,166.74
6379,G#3,1012.0,4.0,62,166.74
6380,C#3,1012.333,333/1000,62,166.74
6381,C3,1012.667,333/1000,62,166.74
6382,E-3,1013.0,0.25,61,166.74
6383,A2,1013.333,0.25,58,166.74
6384,G#2,1013.667,0.25,52,166.74
6385,E4,1025.0,0.75,41,166.74
6386,C#4,1025.75,0.25,41,166.74
6387,C4,1026.0,1.0,49,166.74
6388,G1,1026.0,4.0,36,166.74
6389,G2,1026.0,4.0,36,166.74
6390,C4,1027.0,1.0,40,166.74
6391,G#4,1027.0,1.0,40,166.74
6392,F#3,1027.0,1.0,40,166.74
6393,C4,1028.0,1.0,39,166.74
6394,F#3,1028.0,1.0,39,166.74
6395,G#4,1028.0,1.0,39,166.74
6396,F#3,1029.0,0.75,39,166.74
6397,G#4,1029.0,0.75,39,166.74
6398,C4,1029.0,0.75,39,166.74
6399,E3,1029.75,0.125,33,166.74
6400,C#4,1029.875,0.125,39,166.74
6401,G#4,1030.0,3.0,49,166.74
6402,G#1,1030.0,4.0,31,166.74
6403,G#2,1030.0,4.0,31,166.74
6404,E5,1033.0,0.75,47,166.74
6405,C#5,1033.75,0.25,47,166.74
6406,C5,1034.0,1.0,56,166.74
6407,C#2,1034.0,6/25,37,166.74
6408,C#3,1034.0,6/25,37,166.74
6409,C#3,1034.25,0.25,31,166.74
6410,G#2,1034.5,0.25,35,166.74
6411,C#3,1034.75,0.25,31,166.74
6412,C#2,1035.0,0.25,37,166.74
6413,F#4,1035.0,1.0,44,166.74
6414,C5,1035.0,1.0,44,166.74
6415,G#5,1035.0,1.0,44,166.74
6416,C#3,1035.25,31/125,31,166.74
6417,G#2,1035.5,31/125,35,166.74
6418,C#3,1035.75,31/125,30,166.74
6419,C#2,1036.0,31/125,37,166.74
6420,G#5,1036.0,1.0,44,166.74
6421,C5,1036.0,1.0,44,166.74
6422,F#4,1036.0,1.0,44,166.74
6423,C#3,1036.25,31/125,32,166.74
6424,G#2,1036.5,31/125,35,166.74
6425,C#3,1036.75,31/125,32,166.74
6426,C#2,1037.0,31/125,37,166.74
6427,C5,1037.0,0.75,44,166.74
6428,F#4,1037.0,0.75,44,166.74
6429,G#5,1037.0,0.75,44,166.74
6430,C#3,1037.25,31/125,32,166.74
6431,G#2,1037.5,31/125,35,166.74
6432,E4,1037.75,0.125,41,166.74
6433,C#3,1037.75,31/125,30,166.74
6434,C#5,1037.875,0.125,46,166.74
6435,G#5,1038.0,1.75,58,166.74
6436,C#2,1038.0,31/125,37,166.74
6437,E-3,1038.25,31/125,31,166.74
6438,G#2,1038.5,31/125,35,166.74
6439,E-3,1038.75,31/125,31,166.74
6440,C#2,1039.0,31/125,37,166.74
6441,E-3,1039.25,31/125,30,166.74
6442,G#2,1039.5,31/125,35,166.74
6443,F#4,1039.75,0.125,49,166.74
6444,E-3,1039.75,31/125,31,166.74
6445,C5,1039.875,0.125,53,166.74
6446,G#5,1040.0,1.75,63,166.74
6447,C#2,1040.0,31/125,37,166.74
6448,E-3,1040.25,31/125,32,166.74
6449,G#2,1040.5,31/125,35,166.74
6450,E-3,1040.75,31/125,35,166.74
6451,C#2,1041.0,31/125,37,166.74
6452,E-3,1041.25,31/125,30,166.74
6453,G#2,1041.5,31/125,35,166.74
6454,E4,1041.75,0.125,56,166.74
6455,E-3,1041.75,31/125,31,166.74
6456,C#5,1041.875,0.125,62,166.74
6457,G#5,1042.0,1.75,70,166.74
6458,C#2,1042.0,31/125,37,166.74
6459,C#3,1042.25,31/125,30,166.74
6460,G#2,1042.5,31/125,35,166.74
6461,C#3,1042.75,31/125,31,166.74
6462,C#2,1043.0,31/125,37,166.74
6463,C#3,1043.25,31/125,32,166.74
6464,G#2,1043.5,31/125,35,166.74
6465,F#4,1043.75,0.125,60,166.74
6466,C#3,1043.75,31/125,30,166.74
6467,C5,1043.875,0.125,68,166.74
6468,G#5,1044.0,1.75,80,166.74
6469,C#2,1044.0,31/125,37,166.74
6470,C#3,1044.25,31/125,31,166.74
6471,G#2,1044.5,31/125,35,166.74
6472,C#3,1044.75,31/125,31,166.74
6473,C#2,1045.0,31/125,37,166.74
6474,C#3,1045.25,31/125,31,166.74
6475,G#2,1045.5,31/125,35,166.74
6476,E4,1045.75,0.125,68,166.74
6477,C#3,1045.75,31/125,30,166.74
6478,C#5,1045.875,0.125,68,166.74
6479,G#5,1046.0,73/250,74,166.74
6480,C#2,1046.0,31/125,37,166.74
6481,E4,1046.25,73/250,68,166.74
6482,E-3,1046.25,31/125,31,166.74
6483,G#4,1046.5,73/250,71,166.74
6484,G#2,1046.5,31/125,35,166.74
6485,C#5,1046.75,73/250,68,166.74
6486,E-3,1046.75,31/125,31,166.74
6487,E5,1047.0,73/250,74,166.74
6488,C#2,1047.0,31/125,37,166.74
6489,G#4,1047.25,73/250,69,166.74
6490,E-3,1047.25,31/125,33,166.74
6491,C#5,1047.5,73/250,72,166.74
6492,G#2,1047.5,31/125,35,166.74
6493,E5,1047.75,73/250,68,166.74
6494,E-3,1047.75,31/125,30,166.74
6495,G#5,1048.0,73/250,74,166.74
6496,C#2,1048.0,31/125,37,166.74
6497,C#5,1048.25,73/250,68,166.74
6498,E-3,1048.25,31/125,31,166.74
6499,E5,1048.5,73/250,71,166.74
6500,G#2,1048.5,31/125,35,166.74
6501,G#5,1048.75,73/250,69,166.74
6502,E-3,1048.75,31/125,31,166.74
6503,C#6,1049.0,73/250,75,166.74
6504,C#2,1049.0,31/125,37,166.74
6505,E5,1049.25,73/250,72,166.74
6506,E-3,1049.25,31/125,32,166.74
6507,G#5,1049.5,73/250,74,166.74
6508,G#2,1049.5,31/125,35,166.74
6509,C#6,1049.75,0.25,72,166.74
6510,E-3,1049.75,31/125,32,166.74
6511,E6,1050.0,73/250,80,166.74
6512,C#6,1050.0,21/500,72,166.74
6513,C#2,1050.0,31/125,37,166.74
6514,C#6,1050.25,73/250,80,166.74
6515,C#3,1050.25,31/125,33,166.74
6516,G#5,1050.5,73/250,79,166.74
6517,G#2,1050.5,31/125,38,166.74
6518,E5,1050.75,73/250,74,166.74
6519,C#3,1050.75,31/125,34,166.74
6520,C#6,1051.0,73/250,81,166.74
6521,C#2,1051.0,31/125,39,166.74
6522,G#5,1051.25,73/250,80,166.74
6523,C#3,1051.25,31/125,34,166.74
6524,E5,1051.5,73/250,79,166.74
6525,G#2,1051.5,31/125,40,166.74
6526,C#5,1051.75,73/250,73,166.74
6527,C#3,1051.75,31/125,35,166.74
6528,G#5,1052.0,73/250,80,166.74
6529,C#2,1052.0,31/125,41,166.74
6530,E5,1052.25,73/250,79,166.74
6531,E-3,1052.25,31/125,39,166.74
6532,C#5,1052.5,73/250,78,166.74
6533,G#2,1052.5,31/125,43,166.74
6534,G#4,1052.75,73/250,74,166.74
6535,E-3,1052.75,31/125,39,166.74
6536,E5,1053.0,73/250,80,166.74
6537,C#2,1053.0,31/125,45,166.74
6538,C#5,1053.25,73/250,80,166.74
6539,E-3,1053.25,31/125,40,166.74
6540,G#4,1053.5,73/250,78,166.74
6541,G#2,1053.5,31/125,47,166.74
6542,E4,1053.75,0.25,73,166.74
6543,E-3,1053.75,31/125,41,166.74
6544,C#5,1054.0,73/250,78,166.74
6545,E4,1054.0,21/500,73,166.74
6546,C#2,1054.0,31/125,47,166.74
6547,G#4,1054.25,73/250,75,166.74
6548,C#3,1054.25,31/125,42,166.74
6549,E4,1054.5,73/250,74,166.74
6550,G#2,1054.5,31/125,50,166.74
6551,C#4,1054.75,73/250,69,166.74
6552,C#3,1054.75,31/125,44,166.74
6553,G#4,1055.0,73/250,78,166.74
6554,C#2,1055.0,31/125,51,166.74
6555,E4,1055.25,73/250,75,166.74
6556,C#3,1055.25,31/125,47,166.74
6557,C#4,1055.5,73/250,74,166.74
6558,G#2,1055.5,31/125,51,166.74
6559,G#3,1055.75,73/250,71,166.74
6560,C#3,1055.75,31/125,46,166.74
6561,E4,1056.0,73/250,78,166.74
6562,C#2,1056.0,31/125,52,166.74
6563,C#4,1056.25,73/250,75,166.74
6564,E-3,1056.25,31/125,50,166.74
6565,G#3,1056.5,73/250,74,166.74
6566,G#2,1056.5,31/125,54,166.74
6567,E3,1056.75,73/250,71,166.74
6568,E-3,1056.75,31/125,50,166.74
6569,C#4,1057.0,73/250,78,166.74
6570,C#2,1057.0,31/125,56,166.74
6571,G#3,1057.25,73/250,75,166.74
6572,E-3,1057.25,31/125,51,166.74
6573,E3,1057.5,73/250,74,166.74
6574,G#2,1057.5,31/125,57,166.74
6575,G#3,1057.75,0.25,71,166.74
6576,E-3,1057.75,31/125,51,166.74
6577,C#3,1058.0,1.0,74,166.74
6578,G#3,1058.0,21/500,71,166.74
6579,G#2,1058.0,73/250,64,166.74
6580,C#3,1058.0,73/250,64,166.74
6581,C#2,1058.0,73/250,64,166.74
6582,E3,1058.25,73/250,57,166.74
6583,G#3,1058.5,73/250,60,166.74
6584,C#4,1058.75,73/250,56,166.74
6585,E4,1059.0,73/250,62,166.74
6586,G#3,1059.25,73/250,57,166.74
6587,C#4,1059.5,73/250,58,166.74
6588,E4,1059.75,73/250,57,166.74
6589,G#4,1060.0,73/250,62,166.74
6590,C#5,1060.0,0.75,90,166.74
6591,G#5,1060.0,0.75,90,166.74
6592,E5,1060.0,0.75,90,166.74
6593,C#6,1060.0,0.75,90,166.74
6594,C#4,1060.25,73/250,58,166.74
6595,E4,1060.5,73/250,58,166.74
6596,G#4,1060.75,73/250,57,166.74
6597,C#5,1061.0,73/250,63,166.74
6598,E4,1061.25,73/250,60,166.74
6599,G#4,1061.5,73/250,62,166.74
6600,C#5,1061.75,0.25,60,166.74
6601,E5,1062.0,73/250,68,166.74
6602,C#5,1062.0,21/500,60,166.74
6603,C#4,1062.0,0.75,90,166.74
6604,E4,1062.0,0.75,90,166.74
6605,G#4,1062.0,0.75,90,166.74
6606,C#5,1062.0,0.75,90,166.74
6607,C#5,1062.25,73/250,64,166.74
6608,G#4,1062.5,73/250,63,166.74
6609,E4,1062.75,73/250,61,166.74
6610,C#5,1063.0,73/250,67,166.74
6611,G#4,1063.25,73/250,64,166.74
6612,E4,1063.5,73/250,62,166.74
6613,C#4,1063.75,73/250,62,166.74
6614,G#4,1064.0,73/250,67,166.74
6615,E4,1064.25,73/250,64,166.74
6616,C#4,1064.5,73/250,62,166.74
6617,G#3,1064.75,73/250,62,166.74
6618,E4,1065.0,73/250,67,166.74
6619,C#4,1065.25,73/250,64,166.74
6620,G#3,1065.5,73/250,62,166.74
6621,E3,1065.75,0.25,62,166.74
6622,C#4,1066.0,73/250,63,166.74
6623,E3,1066.0,21/500,62,166.74
6624,G#3,1066.25,73/250,62,166.74
6625,E3,1066.5,73/250,62,166.74
6626,C#3,1066.75,73/250,60,166.74
6627,G#3,1067.0,73/250,64,166.74
6628,E3,1067.25,73/250,63,166.74
6629,C#3,1067.5,73/250,62,166.74
6630,G#2,1067.75,73/250,60,166.74
6631,E3,1068.0,73/250,66,166.74
6632,C#3,1068.25,73/250,66,166.74
6633,G#2,1068.5,73/250,63,166.74
6634,E2,1068.75,73/250,61,166.74
6635,C#3,1069.0,73/250,66,166.74
6636,G#2,1069.25,73/250,64,166.74
6637,E2,1069.5,73/250,63,166.74
6638,G#2,1069.75,0.25,62,166.74
6639,C#2,1070.0,1.0,62,166.74
6640,G#2,1070.0,21/500,62,166.74
6641,C#2,1072.0,0.75,73,166.74
6642,E2,1072.0,0.75,73,166.74
6643,G#2,1072.0,0.75,73,166.74
6644,C#3,1072.0,0.75,73,166.74
6645,G#2,1074.0,0.75,73,166.74
6646,C#2,1074.0,0.75,73,166.74
6647,E2,1074.0,0.75,73,166.74
6648,C#3,1074.0,0.75,73,166.74
