,note_name,start_time,duration,velocity,tempo
0,F#2,0.002,249/500,74,167.5
1,F#3,0.002,249/500,83,167.5
2,F#4,0.002,249/500,83,167.5
3,G3,1.0,1.0,96,167.5
4,G2,1.0,1.0,71,167.5
5,G1,1.0,1.0,71,167.5
6,F#2,4.0,0.25,69,167.5
7,F#4,4.0,0.25,80,167.5
8,F#3,4.0,0.25,80,167.5
9,F#2,4.5,0.25,66,167.5
10,F#3,4.5,0.25,76,167.5
11,F#4,4.5,0.25,76,167.5
12,G3,5.0,1.0,91,167.5
13,G1,5.0,1.0,68,167.5
14,G2,5.0,1.0,68,167.5
15,F2,8.0,0.5,72,167.5
16,F3,8.0,0.5,83,167.5
17,F4,8.0,0.5,83,167.5
18,G#3,9.0,0.5,93,167.5
19,G#1,9.0,0.5,69,167.5
20,G#2,9.0,0.5,69,167.5
21,G3,9.5,0.5,87,167.5
22,G2,9.5,0.5,64,167.5
23,G1,9.5,0.5,64,167.5
24,F2,12.0,0.25,68,167.5
25,F4,12.0,0.25,80,167.5
26,F3,12.0,0.25,80,167.5
27,F2,12.5,0.25,65,167.5
28,F3,12.5,0.25,76,167.5
29,F4,12.5,0.25,76,167.5
30,G#3,13.0,0.5,90,167.5
31,G#1,13.0,0.5,66,167.5
32,G#2,13.0,0.5,66,167.5
33,G3,13.5,0.375,85,167.5
34,G2,13.5,0.375,62,167.5
35,G1,13.5,0.375,62,167.5
36,G#3,14.0,0.5,90,167.5
37,G#2,14.0,0.5,66,167.5
38,G#1,14.0,0.5,66,167.5
39,G3,14.5,0.375,87,167.5
40,G1,14.5,0.375,62,167.5
41,G2,14.5,0.375,62,167.5
42,G3,16.0,1.0,86,167.5
43,G1,16.0,1.0,68,167.5
44,G2,16.0,1.0,68,167.5
45,G3,17.0,1.0,82,167.5
46,G2,17.0,1.0,65,167.5
47,G1,17.0,1.0,65,167.5
48,G3,18.0,1.0,95,167.5
49,G1,18.0,0.25,75,167.5
50,G2,18.0,0.25,75,167.5
51,G#3,18.5,0.25,85,167.5
52,G#2,18.5,0.25,68,167.5
53,G3,19.0,1.0,83,167.5
54,G2,19.0,1.0,66,167.5
55,F4,19.5,0.25,77,167.5
56,F3,19.5,0.25,61,167.5
57,G3,20.0,1.0,85,167.5
58,G2,20.0,1.0,62,167.5
59,G1,20.0,1.0,62,167.5
60,G3,21.0,1.0,83,167.5
61,G2,21.0,1.0,60,167.5
62,G1,21.0,1.0,60,167.5
63,G3,22.0,1.0,94,167.5
64,G1,22.0,0.5,69,167.5
65,G2,22.0,0.5,69,167.5
66,G#3,22.5,0.5,84,167.5
67,G#2,22.5,0.5,66,167.5
68,G3,23.0,1.0,83,167.5
69,G2,23.0,1.0,66,167.5
70,C#4,23.5,0.25,77,167.5
71,C#3,23.5,0.25,61,167.5
72,G3,24.0,1.0,88,167.5
73,G2,24.0,0.5,66,167.5
74,G1,24.0,0.5,66,167.5
75,G#3,24.5,0.5,82,167.5
76,G#2,24.5,0.5,64,167.5
77,G3,25.0,1.0,84,167.5
78,G2,25.0,1.0,67,167.5
79,F4,25.5,0.25,75,167.5
80,F3,25.5,0.25,60,167.5
81,G3,26.0,1.0,83,167.5
82,G1,26.0,0.5,60,167.5
83,G2,26.0,0.5,60,167.5
84,G#3,26.5,0.5,76,167.5
85,G#2,26.5,0.5,61,167.5
86,G3,27.0,1.0,82,167.5
87,G2,27.0,1.0,66,167.5
88,C#4,27.5,0.5,77,167.5
89,C#3,27.5,0.5,61,167.5
90,G3,28.0,1.0,84,167.5
91,G1,28.0,1.0,62,167.5
92,G2,28.0,1.0,62,167.5
93,G3,29.0,1.0,82,167.5
94,G2,29.0,1.0,60,167.5
95,G1,29.0,1.0,60,167.5
96,G3,30.0,1.0,85,167.5
97,G1,30.0,1.0,62,167.5
98,G2,30.0,1.0,62,167.5
99,G3,31.0,1.0,84,167.5
100,G2,31.0,1.0,58,167.5
101,G1,31.0,1.0,58,167.5
102,G3,32.0,0.25,71,167.5
103,G1,32.0,0.25,52,167.5
104,G2,32.0,0.25,52,167.5
105,C4,32.5,0.25,65,167.5
106,C2,32.5,0.25,48,167.5
107,C3,32.5,0.25,48,167.5
108,G#3,33.0,0.25,84,167.5
109,G#2,33.0,0.25,62,167.5
110,G#1,33.0,0.25,62,167.5
111,C#4,33.5,0.25,73,167.5
112,C#3,33.5,0.25,54,167.5
113,C#2,33.5,0.25,54,167.5
114,A3,34.0,0.25,72,167.5
115,A1,34.0,0.25,52,167.5
116,A2,34.0,0.25,52,167.5
117,D4,34.5,0.25,71,167.5
118,D3,34.5,0.25,52,167.5
119,D2,34.5,0.25,52,167.5
120,B-3,35.0,0.25,81,167.5
121,B-1,35.0,0.25,58,167.5
122,B-2,35.0,0.25,58,167.5
123,E-4,35.5,0.25,70,167.5
124,E-3,35.5,0.25,50,167.5
125,E-2,35.5,0.25,50,167.5
126,G3,36.0,0.25,73,167.5
127,G1,36.0,0.25,54,167.5
128,G2,36.0,0.25,54,167.5
129,C4,36.5,0.25,68,167.5
130,C2,36.5,0.25,50,167.5
131,C3,36.5,0.25,50,167.5
132,G#3,37.0,0.25,88,167.5
133,G#2,37.0,0.25,64,167.5
134,G#1,37.0,0.25,64,167.5
135,C#4,37.5,0.25,77,167.5
136,C#3,37.5,0.25,56,167.5
137,C#2,37.5,0.25,56,167.5
138,A3,38.0,0.25,75,167.5
139,A1,38.0,0.25,55,167.5
140,A2,38.0,0.25,55,167.5
141,D4,38.5,0.25,74,167.5
142,D2,38.5,0.25,54,167.5
143,D3,38.5,0.25,54,167.5
144,B-3,39.0,0.25,87,167.5
145,B-2,39.0,0.25,63,167.5
146,B-1,39.0,0.25,63,167.5
147,E-4,39.5,0.25,74,167.5
148,E-2,39.5,0.25,59,167.5
149,E-3,39.5,0.25,59,167.5
150,G3,40.0,0.25,76,167.5
151,G2,40.0,0.25,56,167.5
152,G1,40.0,0.25,56,167.5
153,C4,40.5,0.25,70,167.5
154,C2,40.5,0.25,50,167.5
155,C3,40.5,0.25,50,167.5
156,G#3,41.0,0.25,90,167.5
157,G#2,41.0,0.25,66,167.5
158,G#1,41.0,0.25,66,167.5
159,C#4,41.5,0.25,80,167.5
160,C#3,41.5,0.25,58,167.5
161,C#2,41.5,0.25,58,167.5
162,A3,42.0,0.25,78,167.5
163,A1,42.0,0.25,57,167.5
164,A2,42.0,0.25,57,167.5
165,D4,42.5,0.25,77,167.5
166,D2,42.5,0.25,57,167.5
167,D3,42.5,0.25,57,167.5
168,B-3,43.0,0.25,89,167.5
169,B-2,43.0,0.25,64,167.5
170,B-1,43.0,0.25,64,167.5
171,E-4,43.5,0.25,76,167.5
172,E-2,43.5,0.25,61,167.5
173,E-3,43.5,0.25,61,167.5
174,G3,44.0,0.25,81,167.5
175,G2,44.0,0.25,60,167.5
176,G1,44.0,0.25,60,167.5
177,C4,44.5,0.25,75,167.5
178,C2,44.5,0.25,54,167.5
179,C3,44.5,0.25,54,167.5
180,G#3,45.0,0.25,99,167.5
181,G#2,45.0,0.25,72,167.5
182,G#1,45.0,0.25,72,167.5
183,C#4,45.5,0.25,86,167.5
184,C#2,45.5,0.25,62,167.5
185,C#3,45.5,0.25,62,167.5
186,A3,46.0,0.25,88,167.5
187,A2,46.0,0.25,64,167.5
188,A1,46.0,0.25,64,167.5
189,D4,46.5,0.25,83,167.5
190,D2,46.5,0.25,60,167.5
191,D3,46.5,0.25,60,167.5
192,B-3,47.0,0.25,99,167.5
193,B-2,47.0,0.25,70,167.5
194,B-1,47.0,0.25,70,167.5
195,E-4,47.5,0.25,84,167.5
196,E-2,47.5,0.25,62,167.5
197,E-3,47.5,0.25,62,167.5
198,F6,47.875,0.125,62,167.5
199,E5,48.0,0.25,72,167.5
200,C6,48.0,0.25,72,167.5
201,E6,48.0,0.25,72,167.5
202,G1,48.0,0.25,66,167.5
203,G2,48.0,0.25,66,167.5
204,C3,48.5,0.25,60,167.5
205,C2,48.5,0.25,60,167.5
206,E-6,48.875,0.125,60,167.5
207,G#5,49.0,0.25,68,167.5
208,C#6,49.0,0.25,68,167.5
209,F5,49.0,0.25,68,167.5
210,G#2,49.0,0.25,64,167.5
211,G#1,49.0,0.25,64,167.5
212,C#3,49.5,0.25,58,167.5
213,C#2,49.5,0.25,58,167.5
214,D6,49.875,0.125,58,167.5
215,D5,50.0,0.25,68,167.5
216,F#5,50.0,0.25,68,167.5
217,C6,50.0,0.25,68,167.5
218,A1,50.0,0.25,66,167.5
219,A2,50.0,0.25,66,167.5
220,D2,50.5,0.25,60,167.5
221,D3,50.5,0.25,60,167.5
222,C6,50.875,0.125,55,167.5
223,B-4,51.0,0.25,65,167.5
224,B-5,51.0,0.25,65,167.5
225,G5,51.0,0.25,65,167.5
226,B-2,51.0,0.25,64,167.5
227,B-1,51.0,0.25,64,167.5
228,E-2,51.5,0.25,58,167.5
229,E-3,51.5,0.25,58,167.5
230,F5,51.875,0.125,58,167.5
231,E5,52.0,0.25,68,167.5
232,C5,52.0,0.25,68,167.5
233,E4,52.0,0.25,68,167.5
234,G2,52.0,0.25,61,167.5
235,G1,52.0,0.25,61,167.5
236,C2,52.5,0.25,60,167.5
237,C3,52.5,0.25,60,167.5
238,E-5,52.875,0.125,56,167.5
239,C#5,53.0,0.25,64,167.5
240,F4,53.0,0.25,64,167.5
241,G#4,53.0,0.25,64,167.5
242,G#2,53.0,0.25,64,167.5
243,G#1,53.0,0.25,64,167.5
244,C#2,53.5,0.25,58,167.5
245,C#3,53.5,0.25,58,167.5
246,D5,53.875,0.125,54,167.5
247,F#4,54.0,0.25,64,167.5
248,D4,54.0,0.25,64,167.5
249,C5,54.0,0.25,64,167.5
250,A2,54.0,0.25,66,167.5
251,A1,54.0,0.25,66,167.5
252,D2,54.5,0.25,60,167.5
253,D3,54.5,0.25,60,167.5
254,C5,54.875,0.125,52,167.5
255,B-4,55.0,0.25,62,167.5
256,G4,55.0,0.25,62,167.5
257,B-3,55.0,0.25,62,167.5
258,B-2,55.0,0.25,64,167.5
259,B-1,55.0,0.25,64,167.5
260,E-2,55.5,0.25,58,167.5
261,E-3,55.5,0.25,58,167.5
262,F4,55.875,0.125,55,167.5
263,G3,56.0,0.25,64,167.5
264,C4,56.0,0.25,64,167.5
265,E4,56.0,0.25,64,167.5
266,G1,56.0,0.25,66,167.5
267,G2,56.0,0.25,66,167.5
268,C3,56.5,0.25,60,167.5
269,C2,56.5,0.25,60,167.5
270,E-4,56.875,0.125,54,167.5
271,G#3,57.0,0.25,61,167.5
272,C#4,57.0,0.25,61,167.5
273,F3,57.0,0.25,61,167.5
274,G#2,57.0,0.25,64,167.5
275,G#1,57.0,0.25,64,167.5
276,C#2,57.5,0.25,58,167.5
277,C#3,57.5,0.25,58,167.5
278,D4,57.875,0.125,52,167.5
279,D3,58.0,0.25,61,167.5
280,F#3,58.0,0.25,61,167.5
281,C4,58.0,0.25,61,167.5
282,A2,58.0,0.25,66,167.5
283,A1,58.0,0.25,66,167.5
284,D2,58.5,0.25,60,167.5
285,D3,58.5,0.25,60,167.5
286,C4,58.875,0.125,49,167.5
287,E-3,59.0,0.25,59,167.5
288,B-3,59.0,0.25,59,167.5
289,G3,59.0,0.25,59,167.5
290,B-2,59.0,0.25,64,167.5
291,B-1,59.0,0.25,64,167.5
292,E-2,59.5,0.25,58,167.5
293,E-3,59.5,0.25,58,167.5
294,G3,60.0,0.25,88,167.5
295,G1,60.0,0.25,70,167.5
296,G2,60.0,0.25,70,167.5
297,C4,60.5,0.25,73,167.5
298,C3,60.5,0.25,60,167.5
299,C2,60.5,0.25,60,167.5
300,G#3,61.0,0.25,85,167.5
301,G#2,61.0,0.25,66,167.5
302,G#1,61.0,0.25,66,167.5
303,C#4,61.5,0.25,71,167.5
304,C#2,61.5,0.25,58,167.5
305,C#3,61.5,0.25,58,167.5
306,A3,62.0,0.25,87,167.5
307,A1,62.0,0.25,69,167.5
308,A2,62.0,0.25,69,167.5
309,D4,62.5,0.25,72,167.5
310,D3,62.5,0.25,60,167.5
311,D2,62.5,0.25,60,167.5
312,B-3,63.0,0.25,87,167.5
313,B-1,63.0,0.25,67,167.5
314,B-2,63.0,0.25,67,167.5
315,E-4,63.5,0.25,72,167.5
316,E-3,63.5,0.25,58,167.5
317,E-2,63.5,0.25,58,167.5
318,E4,64.0,0.5,70,167.5
319,C5,64.0,0.5,70,167.5
320,G4,64.0,0.5,70,167.5
321,C4,64.0,0.5,70,167.5
322,G1,64.0,0.5,64,167.5
323,G2,64.0,0.5,64,167.5
324,F#2,64.5,0.5,65,167.5
325,G4,65.0,1.0,64,167.5
326,G5,65.0,1.0,64,167.5
327,C5,65.0,1.0,64,167.5
328,E5,65.0,1.0,64,167.5
329,G1,65.0,0.5,64,167.5
330,G2,65.0,0.5,64,167.5
331,F#2,65.5,0.5,65,167.5
332,E5,66.0,1.0,66,167.5
333,G4,66.0,1.0,66,167.5
334,C5,66.0,1.0,66,167.5
335,G5,66.0,1.0,66,167.5
336,G2,66.0,0.5,64,167.5
337,G1,66.0,0.5,64,167.5
338,F#2,66.5,0.5,65,167.5
339,C5,67.0,0.875,64,167.5
340,G5,67.0,0.875,64,167.5
341,E5,67.0,0.875,64,167.5
342,G4,67.0,0.875,64,167.5
343,G1,67.0,0.5,64,167.5
344,G2,67.0,0.5,64,167.5
345,F#2,67.5,0.5,65,167.5
346,G#4,67.875,0.125,59,167.5
347,G#5,67.875,0.125,59,167.5
348,G5,68.0,0.5,66,167.5
349,G4,68.0,0.5,66,167.5
350,G1,68.0,0.5,64,167.5
351,G2,68.0,0.5,64,167.5
352,F#2,68.5,0.5,67,167.5
353,C4,69.0,1.0,61,167.5
354,C5,69.0,1.0,61,167.5
355,E4,69.0,1.0,61,167.5
356,G4,69.0,1.0,61,167.5
357,G2,69.0,0.5,64,167.5
358,G1,69.0,0.5,64,167.5
359,F#2,69.5,0.5,67,167.5
360,G#4,70.0,1.5,65,167.5
361,D5,70.0,1.5,65,167.5
362,F4,70.0,1.5,65,167.5
363,D4,70.0,1.5,65,167.5
364,C2,70.0,0.5,66,167.5
365,C3,70.0,0.5,66,167.5
366,B-2,70.5,0.5,66,167.5
367,B-1,70.5,0.5,66,167.5
368,A1,71.0,0.5,64,167.5
369,A2,71.0,0.5,64,167.5
370,G#1,71.5,0.5,64,167.5
371,G#2,71.5,0.5,64,167.5
372,E4,72.0,0.5,70,167.5
373,C4,72.0,0.5,70,167.5
374,G4,72.0,0.5,70,167.5
375,C5,72.0,0.5,70,167.5
376,G2,72.0,0.5,64,167.5
377,G1,72.0,0.5,64,167.5
378,F#2,72.5,0.5,65,167.5
379,G4,73.0,1.0,64,167.5
380,G5,73.0,1.0,64,167.5
381,C5,73.0,1.0,64,167.5
382,E5,73.0,1.0,64,167.5
383,G1,73.0,0.5,64,167.5
384,G2,73.0,0.5,64,167.5
385,F#2,73.5,0.5,65,167.5
386,E5,74.0,1.0,66,167.5
387,G5,74.0,1.0,66,167.5
388,C5,74.0,1.0,66,167.5
389,G4,74.0,1.0,66,167.5
390,G1,74.0,0.5,64,167.5
391,G2,74.0,0.5,64,167.5
392,F#2,74.5,0.5,65,167.5
393,C5,75.0,0.875,64,167.5
394,G4,75.0,0.875,64,167.5
395,G5,75.0,0.875,64,167.5
396,E5,75.0,0.875,64,167.5
397,G2,75.0,0.5,64,167.5
398,G1,75.0,0.5,64,167.5
399,F#2,75.5,0.5,65,167.5
400,A5,75.875,0.125,59,167.5
401,A4,75.875,0.125,59,167.5
402,G4,76.0,0.5,66,167.5
403,G5,76.0,0.5,66,167.5
404,G2,76.0,0.5,64,167.5
405,G1,76.0,0.5,64,167.5
406,F#2,76.5,0.5,67,167.5
407,C4,77.0,1.0,61,167.5
408,C5,77.0,1.0,61,167.5
409,E4,77.0,1.0,61,167.5
410,G4,77.0,1.0,61,167.5
411,G2,77.0,0.5,64,167.5
412,G1,77.0,0.5,64,167.5
413,F#2,77.5,0.5,67,167.5
414,A4,78.0,1.5,65,167.5
415,D4,78.0,1.5,65,167.5
416,F#4,78.0,1.5,65,167.5
417,D5,78.0,1.5,65,167.5
418,C2,78.0,0.5,66,167.5
419,C3,78.0,0.5,66,167.5
420,B2,78.5,0.5,66,167.5
421,B1,78.5,0.5,66,167.5
422,B-2,79.0,0.5,64,167.5
423,B-1,79.0,0.5,64,167.5
424,A2,79.5,0.5,64,167.5
425,A1,79.5,0.5,64,167.5
426,F#4,80.0,2.0,70,167.5
427,E-5,80.0,0.5,79,167.5
428,A4,80.0,0.5,79,167.5
429,F#5,80.0,0.5,79,167.5
430,E-5,81.0,1.0,66,167.5
431,A4,81.0,1.0,66,167.5
432,F#5,81.0,1.0,66,167.5
433,A5,81.0,1.0,66,167.5
434,C3,81.0,1.0,54,167.5
435,C4,81.0,1.0,54,167.5
436,F#4,82.0,2.0,70,167.5
437,A4,82.0,1.0,69,167.5
438,A5,82.0,1.0,69,167.5
439,E-5,82.0,1.0,69,167.5
440,F#5,82.0,1.0,69,167.5
441,C3,82.0,1.0,58,167.5
442,C2,82.0,1.0,58,167.5
443,F#5,83.0,1.0,66,167.5
444,A5,83.0,1.0,66,167.5
445,E-5,83.0,1.0,66,167.5
446,A4,83.0,1.0,66,167.5
447,C4,83.0,1.0,55,167.5
448,C3,83.0,1.0,55,167.5
449,B-4,84.0,2.0,70,167.5
450,E-6,84.0,0.5,76,167.5
451,G5,84.0,0.5,76,167.5
452,B-5,84.0,0.5,76,167.5
453,G6,84.0,0.5,76,167.5
454,D5,84.5,0.5,66,167.5
455,D6,84.5,0.5,66,167.5
456,E-5,85.0,0.5,71,167.5
457,E-6,85.0,0.5,71,167.5
458,G3,85.0,1.0,54,167.5
459,G2,85.0,1.0,54,167.5
460,B-4,85.5,0.5,66,167.5
461,B-5,85.5,0.5,66,167.5
462,B-4,86.0,2.0,70,167.5
463,G6,86.0,0.5,74,167.5
464,G5,86.0,0.5,74,167.5
465,E-6,86.0,0.5,74,167.5
466,B-5,86.0,0.5,74,167.5
467,G2,86.0,1.0,54,167.5
468,G1,86.0,1.0,54,167.5
469,D5,86.5,0.5,66,167.5
470,D6,86.5,0.5,66,167.5
471,E-6,87.0,0.5,71,167.5
472,E-5,87.0,0.5,71,167.5
473,G3,87.0,1.0,55,167.5
474,G2,87.0,1.0,55,167.5
475,B-5,87.5,0.5,66,167.5
476,B-4,87.5,0.5,66,167.5
477,F#4,88.0,2.0,70,167.5
478,F#5,88.0,0.5,79,167.5
479,A4,88.0,0.5,79,167.5
480,E-5,88.0,0.5,79,167.5
481,F#5,89.0,1.0,66,167.5
482,A5,89.0,1.0,66,167.5
483,A4,89.0,1.0,66,167.5
484,E-5,89.0,1.0,66,167.5
485,C4,89.0,1.0,54,167.5
486,C3,89.0,1.0,54,167.5
487,F#4,90.0,2.0,70,167.5
488,F#5,90.0,1.0,69,167.5
489,A4,90.0,1.0,69,167.5
490,E-5,90.0,1.0,69,167.5
491,A5,90.0,1.0,69,167.5
492,C2,90.0,1.0,58,167.5
493,C3,90.0,1.0,58,167.5
494,E-5,91.0,1.0,66,167.5
495,A5,91.0,1.0,66,167.5
496,F#5,91.0,1.0,66,167.5
497,A4,91.0,1.0,66,167.5
498,C4,91.0,1.0,55,167.5
499,C3,91.0,1.0,55,167.5
500,B-4,92.0,2.0,70,167.5
501,G6,92.0,0.5,76,167.5
502,B-6,92.0,0.5,76,167.5
503,E-6,92.0,0.5,76,167.5
504,B-5,92.0,0.5,76,167.5
505,B-6,93.0,0.5,74,167.5
506,B-5,93.0,0.5,74,167.5
507,G3,93.0,1.0,54,167.5
508,G2,93.0,1.0,54,167.5
509,F5,93.5,0.5,66,167.5
510,F6,93.5,0.5,66,167.5
511,B-4,94.0,2.0,70,167.5
512,E-6,94.0,0.5,68,167.5
513,G5,94.0,0.5,68,167.5
514,B-5,94.0,0.5,68,167.5
515,G6,94.0,0.5,68,167.5
516,G2,94.0,1.0,58,167.5
517,G1,94.0,1.0,58,167.5
518,E-5,94.5,0.5,64,167.5
519,E-6,94.5,0.5,64,167.5
520,D5,95.0,0.5,71,167.5
521,D6,95.0,0.5,71,167.5
522,G2,95.0,1.0,55,167.5
523,G3,95.0,1.0,55,167.5
524,B-4,95.5,0.5,66,167.5
525,B-5,95.5,0.5,66,167.5
526,F#4,96.0,2.0,70,167.5
527,E-5,96.0,0.5,76,167.5
528,B4,96.0,0.5,76,167.5
529,A5,96.0,0.5,76,167.5
530,B5,96.0,0.5,76,167.5
531,E-5,97.0,1.0,69,167.5
532,E-6,97.0,1.0,69,167.5
533,F#5,97.0,1.0,69,167.5
534,B5,97.0,1.0,69,167.5
535,A2,97.0,1.0,54,167.5
536,A3,97.0,1.0,54,167.5
537,F#4,98.0,2.0,70,167.5
538,B5,98.0,1.0,72,167.5
539,E-6,98.0,1.0,72,167.5
540,F#5,98.0,1.0,72,167.5
541,E-5,98.0,1.0,72,167.5
542,A1,98.0,1.0,58,167.5
543,A2,98.0,1.0,58,167.5
544,F#5,99.0,1.0,69,167.5
545,E-5,99.0,1.0,69,167.5
546,B5,99.0,1.0,69,167.5
547,E-6,99.0,1.0,69,167.5
548,A2,99.0,1.0,55,167.5
549,A3,99.0,1.0,55,167.5
550,B-4,100.0,2.0,70,167.5
551,G6,100.0,0.5,72,167.5
552,G5,100.0,0.5,72,167.5
553,E6,100.0,0.5,72,167.5
554,C6,100.0,0.5,72,167.5
555,D6,100.5,0.5,66,167.5
556,D5,100.5,0.5,66,167.5
557,E5,101.0,0.5,70,167.5
558,E6,101.0,0.5,70,167.5
559,E2,101.0,1.0,54,167.5
560,E3,101.0,1.0,54,167.5
561,C5,101.5,0.5,62,167.5
562,C6,101.5,0.5,62,167.5
563,B-4,102.0,2.0,70,167.5
564,G6,102.0,0.5,72,167.5
565,G5,102.0,0.5,72,167.5
566,E6,102.0,0.5,72,167.5
567,C6,102.0,0.5,72,167.5
568,E1,102.0,1.0,58,167.5
569,E2,102.0,1.0,58,167.5
570,D5,102.5,0.5,62,167.5
571,D6,102.5,0.5,62,167.5
572,E6,103.0,0.5,68,167.5
573,E5,103.0,0.5,68,167.5
574,E3,103.0,1.0,55,167.5
575,E2,103.0,1.0,55,167.5
576,C6,103.5,0.5,61,167.5
577,C5,103.5,0.5,61,167.5
578,F#4,104.0,2.0,70,167.5
579,A5,104.0,0.5,76,167.5
580,B4,104.0,0.5,76,167.5
581,E-5,104.0,0.5,76,167.5
582,B5,104.0,0.5,76,167.5
583,F#5,105.0,1.0,66,167.5
584,E-6,105.0,1.0,66,167.5
585,B5,105.0,1.0,66,167.5
586,E-5,105.0,1.0,66,167.5
587,A2,105.0,1.0,54,167.5
588,A3,105.0,1.0,54,167.5
589,F#4,106.0,2.0,70,167.5
590,E-5,106.0,1.0,69,167.5
591,E-6,106.0,1.0,69,167.5
592,B5,106.0,1.0,69,167.5
593,F#5,106.0,1.0,69,167.5
594,A2,106.0,1.0,58,167.5
595,A1,106.0,1.0,58,167.5
596,F#5,107.0,1.0,66,167.5
597,E-6,107.0,1.0,66,167.5
598,B5,107.0,1.0,66,167.5
599,E-5,107.0,1.0,66,167.5
600,A3,107.0,1.0,55,167.5
601,A2,107.0,1.0,55,167.5
602,C5,108.0,2.0,70,167.5
603,G6,108.0,0.5,72,167.5
604,C7,108.0,0.5,72,167.5
605,E6,108.0,0.5,72,167.5
606,C6,108.0,0.5,72,167.5
607,C7,109.0,0.5,70,167.5
608,C6,109.0,0.5,70,167.5
609,E3,109.0,1.0,54,167.5
610,E2,109.0,1.0,54,167.5
611,G5,109.5,0.5,62,167.5
612,G6,109.5,0.5,62,167.5
613,C5,110.0,2.0,70,167.5
614,E6,110.0,0.5,62,167.5
615,A5,110.0,0.5,62,167.5
616,C6,110.0,0.5,62,167.5
617,A6,110.0,0.5,62,167.5
618,E1,110.0,1.0,58,167.5
619,E2,110.0,1.0,58,167.5
620,F5,110.5,0.5,59,167.5
621,F6,110.5,0.5,59,167.5
622,E5,111.0,0.5,68,167.5
623,E6,111.0,0.5,68,167.5
624,E2,111.0,1.0,55,167.5
625,E3,111.0,1.0,55,167.5
626,C5,111.5,0.5,61,167.5
627,C6,111.5,0.5,61,167.5
628,G3,112.0,0.5,72,167.5
629,G4,112.0,0.5,72,167.5
630,G1,112.0,0.5,62,167.5
631,G2,112.0,0.5,62,167.5
632,G5,113.0,0.5,66,167.5
633,G6,113.0,0.5,68,167.5
634,G7,113.0,0.5,68,167.5
635,D5,113.5,0.5,60,167.5
636,D7,113.5,0.5,62,167.5
637,D6,113.5,0.5,62,167.5
638,E-5,114.0,0.5,65,167.5
639,E-6,114.0,0.5,64,167.5
640,E-7,114.0,0.5,64,167.5
641,D5,114.5,0.5,60,167.5
642,D7,114.5,0.5,60,167.5
643,D6,114.5,0.5,60,167.5
644,B-4,115.0,0.5,65,167.5
645,B-5,115.0,0.5,64,167.5
646,B-6,115.0,0.5,64,167.5
647,G4,115.5,0.5,60,167.5
648,G6,115.5,0.5,62,167.5
649,G5,115.5,0.5,62,167.5
650,G#4,116.0,0.5,64,167.5
651,G#5,116.0,0.5,64,167.5
652,G#6,116.0,0.5,64,167.5
653,E-5,116.5,0.5,58,167.5
654,E-7,116.5,0.5,59,167.5
655,E-6,116.5,0.5,59,167.5
656,B4,117.0,0.5,62,167.5
657,B5,117.0,0.5,62,167.5
658,B6,117.0,0.5,62,167.5
659,E-5,117.5,0.5,58,167.5
660,E-7,117.5,0.5,54,167.5
661,E-6,117.5,0.5,54,167.5
662,D5,118.0,0.5,63,167.5
663,D6,118.0,0.5,68,167.5
664,D7,118.0,0.5,68,167.5
665,G4,119.0,0.5,61,167.5
666,G6,119.0,0.5,62,167.5
667,G5,119.0,0.5,62,167.5
668,G6,120.0,1.0,72,167.5
669,G5,120.0,1.0,72,167.5
670,G4,120.0,1.0,62,167.5
671,G3,120.0,1.0,62,167.5
672,G5,121.0,0.5,68,167.5
673,G6,121.0,0.5,68,167.5
674,G3,121.0,0.5,60,167.5
675,G4,121.0,0.5,60,167.5
676,D6,121.5,0.5,62,167.5
677,D5,121.5,0.5,62,167.5
678,D3,121.5,0.5,55,167.5
679,D4,121.5,0.5,55,167.5
680,E-6,122.0,0.5,64,167.5
681,E-5,122.0,0.5,64,167.5
682,E-4,122.0,0.5,60,167.5
683,E-3,122.0,0.5,60,167.5
684,D5,122.5,0.5,60,167.5
685,D6,122.5,0.5,60,167.5
686,D3,122.5,0.5,55,167.5
687,D4,122.5,0.5,55,167.5
688,B-4,123.0,0.5,64,167.5
689,B-5,123.0,0.5,64,167.5
690,B-2,123.0,0.5,60,167.5
691,B-3,123.0,0.5,60,167.5
692,G4,123.5,0.5,62,167.5
693,G5,123.5,0.5,62,167.5
694,G3,123.5,0.5,55,167.5
695,G2,123.5,0.5,55,167.5
696,G#5,124.0,0.5,64,167.5
697,G#4,124.0,0.5,64,167.5
698,G#3,124.0,0.5,59,167.5
699,G#2,124.0,0.5,59,167.5
700,E-6,124.5,0.5,59,167.5
701,E-5,124.5,0.5,59,167.5
702,E-4,124.5,0.5,54,167.5
703,E-3,124.5,0.5,54,167.5
704,B5,125.0,0.5,62,167.5
705,B4,125.0,0.5,62,167.5
706,B2,125.0,0.5,57,167.5
707,B3,125.0,0.5,57,167.5
708,E-5,125.5,0.5,54,167.5
709,E-6,125.5,0.5,54,167.5
710,E-3,125.5,0.5,54,167.5
711,E-4,125.5,0.5,54,167.5
712,D5,126.0,0.5,73,167.5
713,D6,126.0,0.5,73,167.5
714,D4,126.0,0.5,58,167.5
715,D3,126.0,0.5,58,167.5
716,G4,127.0,0.5,62,167.5
717,G5,127.0,0.5,62,167.5
718,G2,127.0,0.5,56,167.5
719,G3,127.0,0.5,56,167.5
720,G5,128.0,1.0,72,167.5
721,G4,128.0,1.0,72,167.5
722,G3,128.0,1.0,62,167.5
723,G2,128.0,1.0,62,167.5
724,G5,129.0,0.5,68,167.5
725,G4,129.0,0.5,68,167.5
726,G3,129.0,0.5,60,167.5
727,G2,129.0,0.5,60,167.5
728,D4,129.5,0.5,62,167.5
729,D5,129.5,0.5,62,167.5
730,D2,129.5,0.5,55,167.5
731,D3,129.5,0.5,55,167.5
732,E-5,130.0,0.5,64,167.5
733,E-4,130.0,0.5,64,167.5
734,E-2,130.0,0.5,60,167.5
735,E-3,130.0,0.5,60,167.5
736,D5,130.5,0.5,60,167.5
737,D4,130.5,0.5,60,167.5
738,D2,130.5,0.5,55,167.5
739,D3,130.5,0.5,55,167.5
740,B-4,131.0,0.5,64,167.5
741,B-3,131.0,0.5,64,167.5
742,B-1,131.0,0.5,60,167.5
743,B-2,131.0,0.5,60,167.5
744,G3,131.5,0.5,62,167.5
745,G4,131.5,0.5,62,167.5
746,G2,131.5,0.5,55,167.5
747,G1,131.5,0.5,55,167.5
748,F#3,132.0,1.5,87,167.5
749,F#1,132.0,1.5,64,167.5
750,F#2,132.0,1.5,64,167.5
751,G5,133.0,0.5,68,167.5
752,G4,133.0,0.5,68,167.5
753,G3,133.0,0.5,60,167.5
754,G2,133.0,0.5,60,167.5
755,D5,133.5,0.5,62,167.5
756,D4,133.5,0.5,62,167.5
757,D2,133.5,0.5,55,167.5
758,D3,133.5,0.5,55,167.5
759,E-4,134.0,0.5,64,167.5
760,E-5,134.0,0.5,64,167.5
761,E-2,134.0,0.5,60,167.5
762,E-3,134.0,0.5,60,167.5
763,D5,134.5,0.5,60,167.5
764,D4,134.5,0.5,60,167.5
765,D3,134.5,0.5,55,167.5
766,D2,134.5,0.5,55,167.5
767,B-3,135.0,0.5,64,167.5
768,B-4,135.0,0.5,64,167.5
769,B-1,135.0,0.5,60,167.5
770,B-2,135.0,0.5,60,167.5
771,G3,135.5,0.5,62,167.5
772,G4,135.5,0.5,62,167.5
773,G1,135.5,0.5,55,167.5
774,G2,135.5,0.5,55,167.5
775,F3,136.0,1.5,87,167.5
776,F1,136.0,1.5,64,167.5
777,F2,136.0,1.5,64,167.5
778,G4,137.0,0.5,68,167.5
779,G5,137.0,0.5,68,167.5
780,G2,137.0,0.5,60,167.5
781,G3,137.0,0.5,60,167.5
782,D5,137.5,0.5,62,167.5
783,D4,137.5,0.5,62,167.5
784,D3,137.5,0.5,55,167.5
785,D2,137.5,0.5,55,167.5
786,E-5,138.0,0.5,64,167.5
787,E-4,138.0,0.5,64,167.5
788,E-3,138.0,0.5,60,167.5
789,E-2,138.0,0.5,60,167.5
790,D4,138.5,0.5,60,167.5
791,D5,138.5,0.5,60,167.5
792,D3,138.5,0.5,55,167.5
793,D2,138.5,0.5,55,167.5
794,B-3,139.0,0.5,64,167.5
795,B-4,139.0,0.5,64,167.5
796,B-1,139.0,0.5,60,167.5
797,B-2,139.0,0.5,60,167.5
798,G3,139.5,0.5,62,167.5
799,G4,139.5,0.5,62,167.5
800,G1,139.5,0.5,55,167.5
801,G2,139.5,0.5,55,167.5
802,E3,140.0,1.5,87,167.5
803,E2,140.0,1.5,64,167.5
804,E1,140.0,1.5,64,167.5
805,G5,141.0,0.5,68,167.5
806,G4,141.0,0.5,68,167.5
807,G2,141.0,0.5,60,167.5
808,G3,141.0,0.5,60,167.5
809,D4,141.5,0.5,62,167.5
810,D5,141.5,0.5,62,167.5
811,D2,141.5,0.5,55,167.5
812,D3,141.5,0.5,55,167.5
813,E-5,142.0,0.5,64,167.5
814,E-4,142.0,0.5,64,167.5
815,E-3,142.0,0.5,60,167.5
816,E-2,142.0,0.5,60,167.5
817,D5,142.5,0.5,60,167.5
818,D4,142.5,0.5,60,167.5
819,D3,142.5,0.5,55,167.5
820,D2,142.5,0.5,55,167.5
821,B-4,143.0,0.5,64,167.5
822,B-3,143.0,0.5,64,167.5
823,B-2,143.0,0.5,60,167.5
824,B-1,143.0,0.5,60,167.5
825,G4,143.5,0.5,62,167.5
826,G3,143.5,0.5,62,167.5
827,G1,143.5,0.5,55,167.5
828,G2,143.5,0.5,55,167.5
829,E-3,144.0,1.0,87,167.5
830,E-1,144.0,1.0,64,167.5
831,E-2,144.0,1.0,64,167.5
832,D3,145.0,0.5,87,167.5
833,D1,145.0,1.0,64,167.5
834,D2,145.0,1.0,64,167.5
835,B3,146.0,1.5,80,167.5
836,B4,146.0,1.5,80,167.5
837,B2,146.0,1.5,64,167.5
838,B1,146.0,1.5,64,167.5
839,G#6,147.0,0.5,76,167.5
840,G#5,147.0,0.5,76,167.5
841,G#4,147.0,0.5,72,167.5
842,G#3,147.0,0.5,72,167.5
843,G6,148.0,0.25,76,167.5
844,G7,148.25,0.25,72,167.5
845,D6,148.5,0.25,69,167.5
846,D7,148.75,0.25,65,167.5
847,E-6,149.0,0.25,73,167.5
848,E-7,149.25,0.25,69,167.5
849,B5,149.5,0.25,70,167.5
850,B6,149.75,0.25,66,167.5
851,C6,150.0,0.25,73,167.5
852,C7,150.25,0.25,69,167.5
853,G5,150.5,0.25,69,167.5
854,G6,150.75,0.25,65,167.5
855,G#5,151.0,0.25,72,167.5
856,G#6,151.25,0.25,69,167.5
857,D5,151.5,0.25,70,167.5
858,D6,151.75,0.25,65,167.5
859,E-5,152.0,0.25,76,167.5
860,E-6,152.25,0.25,72,167.5
861,B4,152.5,0.25,66,167.5
862,B5,152.75,0.25,65,167.5
863,C5,153.0,0.25,72,167.5
864,C6,153.25,0.25,69,167.5
865,G4,153.5,0.25,66,167.5
866,G5,153.75,0.25,65,167.5
867,G#4,154.0,0.25,72,167.5
868,G#5,154.25,0.25,68,167.5
869,D4,154.5,0.25,67,167.5
870,D5,154.75,0.25,63,167.5
871,E-4,155.0,0.25,72,167.5
872,E-5,155.25,0.25,69,167.5
873,B3,155.5,0.25,67,167.5
874,B4,155.75,0.25,66,167.5
875,C4,156.0,0.25,76,167.5
876,C5,156.25,0.25,72,167.5
877,G3,156.5,0.25,67,167.5
878,G4,156.75,0.25,63,167.5
879,G#3,157.0,0.25,73,167.5
880,G#4,157.25,0.25,69,167.5
881,D3,157.5,0.25,67,167.5
882,D4,157.75,0.25,66,167.5
883,E-3,158.0,0.25,73,167.5
884,E-4,158.25,0.25,69,167.5
885,B2,158.5,0.25,70,167.5
886,B3,158.75,0.25,66,167.5
887,C3,159.0,0.25,74,167.5
888,C4,159.25,0.25,75,167.5
889,G2,159.5,0.25,72,167.5
890,G3,159.75,0.25,69,167.5
891,G#2,160.0,0.25,76,167.5
892,G#3,160.25,0.25,78,167.5
893,D2,160.5,0.25,71,167.5
894,D3,160.75,0.25,71,167.5
895,E-2,161.0,0.25,76,167.5
896,E-3,161.25,0.25,81,167.5
897,B1,161.5,0.25,72,167.5
898,B2,161.75,0.25,74,167.5
899,C2,162.0,0.25,76,167.5
900,C3,162.25,0.25,82,167.5
901,G1,162.5,0.25,71,167.5
902,G2,162.75,0.25,77,167.5
903,G#1,163.0,0.25,77,167.5
904,G#2,163.25,0.25,82,167.5
905,G1,163.5,0.25,72,167.5
906,G2,163.75,0.25,77,167.5
907,G#1,164.0,0.25,76,167.5
908,G#2,164.25,0.25,82,167.5
909,G1,164.5,0.25,71,167.5
910,G2,164.75,0.25,76,167.5
911,B1,165.0,0.25,76,167.5
912,B2,165.25,0.25,82,167.5
913,G1,165.5,0.25,69,167.5
914,G2,165.75,0.25,79,167.5
915,G#2,166.0,0.25,68,167.5
916,G#1,166.0,0.25,68,167.5
917,G#3,166.25,0.25,82,167.5
918,G1,166.5,0.25,66,167.5
919,G2,166.5,0.25,66,167.5
920,G3,166.75,0.25,76,167.5
921,B2,167.0,0.25,68,167.5
922,B1,167.0,0.25,68,167.5
923,B3,167.25,0.25,82,167.5
924,G1,167.5,0.25,66,167.5
925,G2,167.5,0.25,66,167.5
926,G3,167.75,0.25,79,167.5
927,G#3,168.0,0.5,85,167.5
928,G#2,168.0,0.5,70,167.5
929,G#1,168.0,0.5,70,167.5
930,G#3,169.0,0.5,84,167.5
931,G#1,169.0,0.5,66,167.5
932,G#2,169.0,0.5,66,167.5
933,G4,170.0,0.5,80,167.5
934,G5,170.0,0.5,80,167.5
935,G3,170.0,0.5,70,167.5
936,G2,170.0,0.5,70,167.5
937,G5,171.0,0.5,76,167.5
938,G4,171.0,0.5,76,167.5
939,G2,171.0,0.5,66,167.5
940,G3,171.0,0.5,66,167.5
941,G#3,172.0,0.5,85,167.5
942,G#2,172.0,0.5,70,167.5
943,G#1,172.0,0.5,70,167.5
944,G#3,173.0,0.5,84,167.5
945,G#1,173.0,0.5,66,167.5
946,G#2,173.0,0.5,66,167.5
947,G5,174.0,0.5,80,167.5
948,G4,174.0,0.5,80,167.5
949,G2,174.0,0.5,70,167.5
950,G3,174.0,0.5,70,167.5
951,G5,175.0,0.5,76,167.5
952,G4,175.0,0.5,76,167.5
953,G3,175.0,0.5,66,167.5
954,G2,175.0,0.5,66,167.5
955,G#3,176.0,2.0,85,167.5
956,G#2,176.0,2.0,76,167.5
957,G3,178.0,2.0,70,167.5
958,G5,178.0,2.0,78,167.5
959,G4,178.0,2.0,78,167.5
960,G#3,180.0,2.0,85,167.5
961,G#2,180.0,2.0,76,167.5
962,G3,182.0,2.0,71,167.5
963,G5,182.0,2.0,76,167.5
964,G4,182.0,2.0,76,167.5
965,G4,184.0,1.0,61,167.5
966,G4,185.0,1.0,54,167.5
967,G4,186.0,1.0,51,167.5
968,G4,187.0,1.0,47,167.5
969,G4,188.0,0.188,36,167.5
970,E4,188.167,0.188,31,167.5
971,G4,188.333,0.188,36,167.5
972,E4,188.5,0.188,31,167.5
973,G4,188.667,0.188,36,167.5
974,E4,188.833,0.188,31,167.5
975,G4,189.0,0.188,36,167.5
976,E4,189.167,0.188,31,167.5
977,G4,189.333,0.188,36,167.5
978,E4,189.5,0.188,32,167.5
979,G4,189.667,0.188,36,167.5
980,E4,189.833,0.188,31,167.5
981,G4,190.0,0.188,36,167.5
982,E4,190.167,0.188,31,167.5
983,G4,190.333,0.188,36,167.5
984,E4,190.5,0.188,31,167.5
985,G4,190.667,0.188,36,167.5
986,E4,190.833,0.188,30,167.5
987,G4,191.0,0.188,36,167.5
988,E4,191.167,0.188,30,167.5
989,G4,191.333,0.188,36,167.5
990,E4,191.5,0.188,32,167.5
991,G4,191.667,0.188,36,167.5
992,E4,191.833,167/1000,31,167.5
993,G4,192.0,61/250,37,167.5
994,B-3,192.0,0.5,44,167.5
995,B-2,192.0,0.5,44,167.5
996,E4,192.167,61/250,32,167.5
997,G4,192.333,61/250,36,167.5
998,E4,192.5,61/250,32,167.5
999,G4,192.667,61/250,37,167.5
1000,E4,192.833,0.188,31,167.5
1001,G4,193.0,0.188,36,167.5
1002,E2,193.0,2.0,38,167.5
1003,E3,193.0,2.0,38,167.5
1004,E4,193.167,0.188,31,167.5
1005,G4,193.333,0.188,36,167.5
1006,E4,193.5,0.188,32,167.5
1007,G4,193.667,0.188,36,167.5
1008,E4,193.833,0.188,31,167.5
1009,G4,194.0,0.188,36,167.5
1010,E4,194.167,0.188,31,167.5
1011,G4,194.333,0.188,36,167.5
1012,E4,194.5,0.188,31,167.5
1013,G4,194.667,0.188,36,167.5
1014,E4,194.833,0.188,30,167.5
1015,G4,195.0,0.188,36,167.5
1016,E4,195.167,0.188,30,167.5
1017,G4,195.333,0.188,36,167.5
1018,E4,195.5,0.188,32,167.5
1019,G4,195.667,0.188,36,167.5
1020,E4,195.833,167/1000,31,167.5
1021,G4,196.0,0.188,39,167.5
1022,B-3,196.0,0.25,44,167.5
1023,B-2,196.0,0.25,44,167.5
1024,E4,196.167,0.188,33,167.5
1025,G4,196.333,0.188,38,167.5
1026,E4,196.5,0.188,33,167.5
1027,B-2,196.5,0.25,42,167.5
1028,B-3,196.5,0.25,42,167.5
1029,G4,196.667,0.188,38,167.5
1030,E4,196.833,0.188,34,167.5
1031,G4,197.0,0.188,36,167.5
1032,E3,197.0,2.0,37,167.5
1033,E2,197.0,2.0,37,167.5
1034,E4,197.167,0.188,31,167.5
1035,G4,197.333,0.188,36,167.5
1036,E4,197.5,0.188,32,167.5
1037,G4,197.667,0.188,36,167.5
1038,E4,197.833,0.188,31,167.5
1039,G4,198.0,0.188,36,167.5
1040,E4,198.167,0.188,31,167.5
1041,G4,198.333,0.188,36,167.5
1042,E4,198.5,0.188,31,167.5
1043,G4,198.667,0.188,36,167.5
1044,E4,198.833,0.188,30,167.5
1045,G4,199.0,0.188,36,167.5
1046,E4,199.167,0.188,30,167.5
1047,G4,199.333,0.188,36,167.5
1048,E4,199.5,0.188,32,167.5
1049,G4,199.667,0.188,36,167.5
1050,E4,199.833,167/1000,31,167.5
1051,G4,200.0,0.188,36,167.5
1052,B-2,200.0,0.25,45,167.5
1053,B-3,200.0,0.25,45,167.5
1054,E4,200.167,0.188,31,167.5
1055,G4,200.333,0.188,36,167.5
1056,E4,200.5,0.188,31,167.5
1057,D3,200.5,0.25,45,167.5
1058,D4,200.5,0.25,45,167.5
1059,G4,200.667,0.188,36,167.5
1060,E4,200.833,0.188,31,167.5
1061,G4,201.0,0.188,36,167.5
1062,C4,201.0,0.25,42,167.5
1063,C3,201.0,0.25,42,167.5
1064,E4,201.167,0.188,31,167.5
1065,G4,201.333,0.188,36,167.5
1066,E4,201.5,0.188,32,167.5
1067,D4,201.5,0.25,45,167.5
1068,D3,201.5,0.25,45,167.5
1069,G4,201.667,0.188,36,167.5
1070,E4,201.833,0.188,31,167.5
1071,G4,202.0,0.188,36,167.5
1072,B-2,202.0,1.0,42,167.5
1073,B-3,202.0,1.0,42,167.5
1074,E4,202.167,0.188,31,167.5
1075,G4,202.333,0.188,36,167.5
1076,E4,202.5,0.188,31,167.5
1077,G4,202.667,0.188,36,167.5
1078,E4,202.833,167/1000,30,167.5
1079,G4,203.0,61/250,38,167.5
1080,C3,203.0,0.25,42,167.5
1081,C4,203.0,0.25,42,167.5
1082,E4,203.167,61/250,35,167.5
1083,G4,203.333,61/250,38,167.5
1084,E4,203.5,61/250,32,167.5
1085,B-3,203.5,0.25,40,167.5
1086,B-2,203.5,0.25,40,167.5
1087,G4,203.667,61/250,36,167.5
1088,E4,203.833,167/1000,31,167.5
1089,G4,204.0,0.188,40,167.5
1090,E4,204.0,83/1000,31,167.5
1091,D3,204.0,1.0,45,167.5
1092,D4,204.0,1.0,45,167.5
1093,E4,204.167,0.188,36,167.5
1094,G4,204.333,0.188,39,167.5
1095,E4,204.5,0.188,34,167.5
1096,G4,204.667,0.188,39,167.5
1097,E4,204.833,0.188,33,167.5
1098,G4,205.0,61/250,38,167.5
1099,C4,205.0,0.25,41,167.5
1100,C3,205.0,0.25,41,167.5
1101,E4,205.167,61/250,32,167.5
1102,G4,205.333,61/250,36,167.5
1103,E4,205.5,61/250,32,167.5
1104,B-3,205.5,0.25,40,167.5
1105,B-2,205.5,0.25,40,167.5
1106,G4,205.667,61/250,36,167.5
1107,E4,205.833,167/1000,31,167.5
1108,F#4,206.0,61/250,37,167.5
1109,E4,206.0,1/20,31,167.5
1110,B2,206.0,0.5,41,167.5
1111,B3,206.0,0.5,41,167.5
1112,E-4,206.167,61/250,32,167.5
1113,F#4,206.333,61/250,36,167.5
1114,E-4,206.5,61/250,32,167.5
1115,F#4,206.667,61/250,37,167.5
1116,E-4,206.833,0.188,31,167.5
1117,F#4,207.0,0.188,34,167.5
1118,E2,207.0,2.0,38,167.5
1119,E3,207.0,2.0,38,167.5
1120,E-4,207.167,0.188,29,167.5
1121,F#4,207.333,0.188,34,167.5
1122,E-4,207.5,0.188,30,167.5
1123,F#4,207.667,0.188,33,167.5
1124,E-4,207.833,0.188,28,167.5
1125,F#4,208.0,0.188,33,167.5
1126,E-4,208.167,0.188,28,167.5
1127,F#4,208.333,0.188,33,167.5
1128,E-4,208.5,0.188,28,167.5
1129,F#4,208.667,0.188,33,167.5
1130,E-4,208.833,0.188,27,167.5
1131,F#4,209.0,0.188,32,167.5
1132,E-4,209.167,0.188,27,167.5
1133,F#4,209.333,0.188,32,167.5
1134,E-4,209.5,0.188,28,167.5
1135,F#4,209.667,0.188,32,167.5
1136,E-4,209.833,167/1000,27,167.5
1137,F#4,210.0,61/250,39,167.5
1138,B3,210.0,0.25,41,167.5
1139,B2,210.0,0.25,41,167.5
1140,E-4,210.167,61/250,33,167.5
1141,F#4,210.333,61/250,38,167.5
1142,E-4,210.5,61/250,33,167.5
1143,B2,210.5,0.25,40,167.5
1144,B3,210.5,0.25,40,167.5
1145,F#4,210.667,61/250,38,167.5
1146,E-4,210.833,0.188,34,167.5
1147,F#4,211.0,0.188,34,167.5
1148,E3,211.0,2.0,37,167.5
1149,E2,211.0,2.0,37,167.5
1150,E-4,211.167,0.188,29,167.5
1151,F#4,211.333,0.188,34,167.5
1152,E-4,211.5,0.188,30,167.5
1153,F#4,211.667,0.188,33,167.5
1154,E-4,211.833,0.188,28,167.5
1155,F#4,212.0,0.188,33,167.5
1156,E-4,212.167,0.188,28,167.5
1157,F#4,212.333,0.188,33,167.5
1158,E-4,212.5,0.188,28,167.5
1159,F#4,212.667,0.188,33,167.5
1160,E-4,212.833,0.188,27,167.5
1161,F#4,213.0,0.188,32,167.5
1162,E-4,213.167,0.188,27,167.5
1163,F#4,213.333,0.188,32,167.5
1164,E-4,213.5,0.188,28,167.5
1165,F#4,213.667,0.188,32,167.5
1166,E-4,213.833,167/1000,27,167.5
1167,F4,214.0,61/250,36,167.5
1168,G#2,214.0,0.25,41,167.5
1169,G#3,214.0,0.25,41,167.5
1170,D4,214.167,61/250,31,167.5
1171,F4,214.333,61/250,36,167.5
1172,D4,214.5,61/250,31,167.5
1173,C3,214.5,0.25,38,167.5
1174,C4,214.5,0.25,38,167.5
1175,F4,214.667,61/250,36,167.5
1176,D4,214.833,61/250,31,167.5
1177,F4,215.0,61/250,36,167.5
1178,B3,215.0,0.25,42,167.5
1179,B2,215.0,0.25,42,167.5
1180,D4,215.167,61/250,31,167.5
1181,F4,215.333,61/250,36,167.5
1182,D4,215.5,61/250,32,167.5
1183,C3,215.5,0.25,41,167.5
1184,C4,215.5,0.25,41,167.5
1185,F4,215.667,61/250,36,167.5
1186,D4,215.833,0.188,31,167.5
1187,F4,216.0,0.188,36,167.5
1188,G#3,216.0,1.0,42,167.5
1189,G#2,216.0,1.0,42,167.5
1190,D4,216.167,0.188,31,167.5
1191,F4,216.333,0.188,36,167.5
1192,D4,216.5,0.188,31,167.5
1193,F4,216.667,0.188,36,167.5
1194,D4,216.833,167/1000,30,167.5
1195,F4,217.0,61/250,38,167.5
1196,A3,217.0,0.25,42,167.5
1197,A2,217.0,0.25,42,167.5
1198,D4,217.167,61/250,35,167.5
1199,F4,217.333,61/250,38,167.5
1200,D4,217.5,61/250,32,167.5
1201,G#2,217.5,0.25,40,167.5
1202,G#3,217.5,0.25,40,167.5
1203,F4,217.667,61/250,36,167.5
1204,D4,217.833,167/1000,31,167.5
1205,F4,218.0,0.188,40,167.5
1206,D4,218.0,21/1000,31,167.5
1207,C4,218.0,1.0,44,167.5
1208,C3,218.0,1.0,44,167.5
1209,D4,218.167,0.188,36,167.5
1210,F4,218.333,0.188,39,167.5
1211,D4,218.5,0.188,34,167.5
1212,F4,218.667,0.188,39,167.5
1213,D4,218.833,167/1000,33,167.5
1214,F4,219.0,61/250,38,167.5
1215,B2,219.0,0.25,41,167.5
1216,B3,219.0,0.25,41,167.5
1217,D4,219.167,61/250,32,167.5
1218,F4,219.333,61/250,36,167.5
1219,D4,219.5,61/250,32,167.5
1220,G#3,219.5,0.25,40,167.5
1221,G#2,219.5,0.25,40,167.5
1222,F4,219.667,61/250,36,167.5
1223,D4,219.833,167/1000,31,167.5
1224,E4,220.0,0.188,37,167.5
1225,D4,220.0,21/1000,31,167.5
1226,A2,220.0,0.5,41,167.5
1227,A3,220.0,0.5,41,167.5
1228,C#4,220.167,0.188,32,167.5
1229,E4,220.333,0.188,36,167.5
1230,C#4,220.5,0.188,32,167.5
1231,E4,220.667,0.188,37,167.5
1232,C#4,220.833,167/1000,31,167.5
1233,E-4,221.0,0.188,36,167.5
1234,E3,221.0,0.5,38,167.5
1235,E2,221.0,0.5,38,167.5
1236,B3,221.167,0.188,31,167.5
1237,E-4,221.333,0.188,36,167.5
1238,B3,221.5,0.188,32,167.5
1239,E-4,221.667,0.188,36,167.5
1240,B3,221.833,167/1000,31,167.5
1241,D4,222.0,0.188,40,167.5
1242,A5,222.0,1.0,52,167.5
1243,A4,222.0,1.0,52,167.5
1244,B-3,222.167,0.188,32,167.5
1245,D4,222.333,0.188,38,167.5
1246,B-3,222.5,0.188,31,167.5
1247,D4,222.667,0.188,37,167.5
1248,B-3,222.833,167/1000,32,167.5
1249,C4,223.0,0.188,36,167.5
1250,E5,223.0,0.5,55,167.5
1251,E6,223.0,0.5,55,167.5
1252,A3,223.167,0.188,30,167.5
1253,C4,223.333,0.188,36,167.5
1254,A3,223.5,0.188,31,167.5
1255,C4,223.667,0.188,36,167.5
1256,A3,223.833,167/1000,31,167.5
1257,B3,224.0,0.188,37,167.5
1258,A2,224.0,0.5,49,167.5
1259,A3,224.0,21/1000,31,167.5
1260,G#3,224.167,0.188,32,167.5
1261,B3,224.333,0.188,36,167.5
1262,G#3,224.5,0.188,32,167.5
1263,B3,224.667,0.188,37,167.5
1264,G#3,224.833,167/1000,31,167.5
1265,B-3,225.0,0.188,36,167.5
1266,E2,225.0,0.5,45,167.5
1267,G3,225.167,0.188,31,167.5
1268,B-3,225.333,0.188,36,167.5
1269,G3,225.5,0.188,32,167.5
1270,B-3,225.667,0.188,36,167.5
1271,G3,225.833,167/1000,31,167.5
1272,A3,226.0,0.188,40,167.5
1273,A4,226.0,1.0,52,167.5
1274,A5,226.0,1.0,52,167.5
1275,F3,226.167,0.188,32,167.5
1276,A3,226.333,0.188,38,167.5
1277,F3,226.5,0.188,31,167.5
1278,A3,226.667,0.188,37,167.5
1279,F3,226.833,167/1000,32,167.5
1280,G#3,227.0,0.188,36,167.5
1281,E6,227.0,0.5,55,167.5
1282,E5,227.0,0.5,55,167.5
1283,E3,227.167,0.188,30,167.5
1284,G#3,227.333,0.188,36,167.5
1285,E3,227.5,0.188,31,167.5
1286,G#3,227.667,0.188,36,167.5
1287,E3,227.833,167/1000,31,167.5
1288,G3,228.0,0.188,37,167.5
1289,A2,228.0,0.5,49,167.5
1290,E3,228.0,21/1000,31,167.5
1291,E-3,228.167,0.188,32,167.5
1292,G3,228.333,0.188,36,167.5
1293,E-3,228.5,0.188,32,167.5
1294,G3,228.667,0.188,37,167.5
1295,E-3,228.833,167/1000,31,167.5
1296,F#3,229.0,0.188,36,167.5
1297,E2,229.0,0.5,42,167.5
1298,D3,229.167,0.188,31,167.5
1299,F#3,229.333,0.188,36,167.5
1300,D3,229.5,0.188,32,167.5
1301,F#3,229.667,0.188,36,167.5
1302,D3,229.833,167/1000,31,167.5
1303,F3,230.0,0.188,33,167.5
1304,A4,230.0,1.0,52,167.5
1305,A5,230.0,1.0,52,167.5
1306,C#3,230.167,0.188,26,167.5
1307,F3,230.333,0.188,32,167.5
1308,C#3,230.5,0.188,27,167.5
1309,F3,230.667,0.188,32,167.5
1310,C#3,230.833,167/1000,26,167.5
1311,E3,231.0,0.188,32,167.5
1312,E6,231.0,0.5,55,167.5
1313,E5,231.0,0.5,55,167.5
1314,C3,231.167,0.188,27,167.5
1315,E3,231.333,0.188,32,167.5
1316,C3,231.5,0.188,27,167.5
1317,E3,231.667,0.188,33,167.5
1318,C3,231.833,167/1000,27,167.5
1319,E-3,232.0,0.188,32,167.5
1320,B2,232.167,0.188,26,167.5
1321,E-3,232.333,0.188,31,167.5
1322,B2,232.5,0.188,27,167.5
1323,E-3,232.667,0.188,30,167.5
1324,B2,232.833,167/1000,26,167.5
1325,G4,233.0,0.188,32,167.5
1326,E-4,233.167,0.188,27,167.5
1327,G4,233.333,0.188,32,167.5
1328,E-4,233.5,0.188,27,167.5
1329,G4,233.667,0.188,33,167.5
1330,E-4,233.833,167/1000,27,167.5
1331,G4,234.0,167/1000,36,167.5
1332,B-2,234.0,0.5,44,167.5
1333,B-3,234.0,0.5,44,167.5
1334,E4,234.125,167/1000,31,167.5
1335,G4,234.25,167/1000,36,167.5
1336,E4,234.375,167/1000,32,167.5
1337,G4,234.5,167/1000,36,167.5
1338,E4,234.625,167/1000,31,167.5
1339,G4,234.75,167/1000,36,167.5
1340,E4,234.875,0.125,31,167.5
1341,G4,235.0,167/1000,34,167.5
1342,E3,235.0,2.0,38,167.5
1343,E2,235.0,2.0,38,167.5
1344,E4,235.125,167/1000,29,167.5
1345,G4,235.25,167/1000,34,167.5
1346,E4,235.375,167/1000,29,167.5
1347,G4,235.5,167/1000,33,167.5
1348,E4,235.625,167/1000,29,167.5
1349,G4,235.75,167/1000,34,167.5
1350,E4,235.875,0.125,29,167.5
1351,G4,236.0,167/1000,33,167.5
1352,E4,236.125,167/1000,28,167.5
1353,G4,236.25,167/1000,33,167.5
1354,E4,236.375,167/1000,29,167.5
1355,G4,236.5,167/1000,33,167.5
1356,G5,236.5,0.5,57,167.5
1357,E5,236.5,0.5,57,167.5
1358,B-4,236.5,0.5,57,167.5
1359,E4,236.625,167/1000,31,167.5
1360,G4,236.75,167/1000,34,167.5
1361,E4,236.875,0.125,30,167.5
1362,G4,237.0,167/1000,65,167.5
1363,E6,237.0,0.5,62,167.5
1364,B-5,237.0,0.5,62,167.5
1365,G6,237.0,0.5,62,167.5
1366,E4,237.125,167/1000,31,167.5
1367,G4,237.25,167/1000,34,167.5
1368,E4,237.375,167/1000,32,167.5
1369,G4,237.5,167/1000,35,167.5
1370,E4,237.625,167/1000,31,167.5
1371,G4,237.75,167/1000,34,167.5
1372,E4,237.875,0.125,30,167.5
1373,G4,238.0,167/1000,36,167.5
1374,B-2,238.0,0.25,44,167.5
1375,B-3,238.0,0.25,44,167.5
1376,E4,238.125,167/1000,31,167.5
1377,G4,238.25,167/1000,36,167.5
1378,E4,238.375,167/1000,32,167.5
1379,G4,238.5,167/1000,36,167.5
1380,B-3,238.5,0.25,42,167.5
1381,B-2,238.5,0.25,42,167.5
1382,E4,238.625,167/1000,31,167.5
1383,G4,238.75,167/1000,36,167.5
1384,E4,238.875,167/1000,31,167.5
1385,G4,239.0,167/1000,34,167.5
1386,E3,239.0,2.0,37,167.5
1387,E2,239.0,2.0,37,167.5
1388,E4,239.125,167/1000,29,167.5
1389,G4,239.25,167/1000,34,167.5
1390,E4,239.375,167/1000,29,167.5
1391,G4,239.5,167/1000,33,167.5
1392,E4,239.625,167/1000,29,167.5
1393,G4,239.75,167/1000,34,167.5
1394,E4,239.875,0.125,29,167.5
1395,G4,240.0,167/1000,33,167.5
1396,E4,240.125,167/1000,28,167.5
1397,G4,240.25,167/1000,33,167.5
1398,E4,240.375,167/1000,29,167.5
1399,G4,240.5,167/1000,33,167.5
1400,E5,240.5,0.5,59,167.5
1401,G5,240.5,0.5,59,167.5
1402,B-4,240.5,0.5,59,167.5
1403,E4,240.625,167/1000,31,167.5
1404,G4,240.75,167/1000,34,167.5
1405,E4,240.875,0.125,30,167.5
1406,G4,241.0,167/1000,66,167.5
1407,G6,241.0,0.5,62,167.5
1408,E6,241.0,0.5,62,167.5
1409,B-5,241.0,0.5,62,167.5
1410,E4,241.125,167/1000,31,167.5
1411,G4,241.25,167/1000,36,167.5
1412,E4,241.375,167/1000,32,167.5
1413,G4,241.5,167/1000,38,167.5
1414,E4,241.625,167/1000,31,167.5
1415,G4,241.75,167/1000,38,167.5
1416,E4,241.875,0.125,33,167.5
1417,G4,242.0,167/1000,40,167.5
1418,B-2,242.0,0.25,44,167.5
1419,B-3,242.0,0.25,44,167.5
1420,E4,242.125,167/1000,31,167.5
1421,G4,242.25,167/1000,36,167.5
1422,E4,242.375,167/1000,32,167.5
1423,G4,242.5,167/1000,38,167.5
1424,D3,242.5,0.25,40,167.5
1425,D4,242.5,0.25,40,167.5
1426,E4,242.625,167/1000,31,167.5
1427,G4,242.75,167/1000,36,167.5
1428,E4,242.875,167/1000,30,167.5
1429,G4,243.0,167/1000,34,167.5
1430,C3,243.0,0.25,42,167.5
1431,C4,243.0,0.25,42,167.5
1432,E4,243.125,167/1000,29,167.5
1433,G4,243.25,167/1000,34,167.5
1434,E4,243.375,167/1000,29,167.5
1435,G4,243.5,167/1000,33,167.5
1436,D3,243.5,0.25,41,167.5
1437,D4,243.5,0.25,41,167.5
1438,E4,243.625,167/1000,29,167.5
1439,G4,243.75,167/1000,34,167.5
1440,E4,243.875,167/1000,29,167.5
1441,G4,244.0,167/1000,36,167.5
1442,B-2,244.0,1.0,42,167.5
1443,B-3,244.0,1.0,42,167.5
1444,E4,244.125,167/1000,31,167.5
1445,G4,244.25,167/1000,36,167.5
1446,E4,244.375,167/1000,32,167.5
1447,G4,244.5,167/1000,36,167.5
1448,E4,244.625,167/1000,31,167.5
1449,G4,244.75,167/1000,36,167.5
1450,E4,244.875,0.125,31,167.5
1451,G4,245.0,167/1000,34,167.5
1452,C4,245.0,0.25,42,167.5
1453,C3,245.0,0.25,42,167.5
1454,E4,245.125,167/1000,29,167.5
1455,G4,245.25,167/1000,34,167.5
1456,E4,245.375,167/1000,29,167.5
1457,G4,245.5,167/1000,33,167.5
1458,B-3,245.5,0.25,40,167.5
1459,B-2,245.5,0.25,40,167.5
1460,E4,245.625,167/1000,29,167.5
1461,G4,245.75,167/1000,34,167.5
1462,E4,245.875,0.125,29,167.5
1463,G4,246.0,167/1000,37,167.5
1464,E4,246.0,21/500,29,167.5
1465,D3,246.0,1.0,44,167.5
1466,D4,246.0,1.0,44,167.5
1467,E4,246.125,167/1000,32,167.5
1468,G4,246.25,167/1000,37,167.5
1469,E4,246.375,167/1000,32,167.5
1470,G4,246.5,167/1000,37,167.5
1471,E4,246.625,167/1000,31,167.5
1472,G4,246.75,167/1000,38,167.5
1473,E4,246.875,0.125,31,167.5
1474,G4,247.0,167/1000,39,167.5
1475,C3,247.0,0.25,41,167.5
1476,C4,247.0,0.25,41,167.5
1477,E4,247.125,167/1000,31,167.5
1478,G4,247.25,167/1000,37,167.5
1479,E4,247.375,167/1000,32,167.5
1480,G4,247.5,167/1000,36,167.5
1481,B-2,247.5,0.25,40,167.5
1482,B-3,247.5,0.25,40,167.5
1483,E4,247.625,167/1000,31,167.5
1484,G4,247.75,167/1000,34,167.5
1485,E4,247.875,0.125,29,167.5
1486,F#4,248.0,167/1000,38,167.5
1487,E4,248.0,21/500,29,167.5
1488,B3,248.0,0.5,41,167.5
1489,B2,248.0,0.5,41,167.5
1490,E-4,248.125,167/1000,31,167.5
1491,F#4,248.25,167/1000,38,167.5
1492,E-4,248.375,167/1000,32,167.5
1493,F#4,248.5,167/1000,38,167.5
1494,E-4,248.625,167/1000,31,167.5
1495,F#4,248.75,167/1000,38,167.5
1496,E-4,248.875,0.125,31,167.5
1497,F#4,249.0,167/1000,34,167.5
1498,E2,249.0,2.0,38,167.5
1499,E3,249.0,2.0,38,167.5
1500,E-4,249.125,167/1000,29,167.5
1501,F#4,249.25,167/1000,34,167.5
1502,E-4,249.375,167/1000,29,167.5
1503,F#4,249.5,167/1000,33,167.5
1504,E-4,249.625,167/1000,29,167.5
1505,F#4,249.75,167/1000,34,167.5
1506,E-4,249.875,167/1000,29,167.5
1507,F#4,250.0,167/1000,33,167.5
1508,E-4,250.125,167/1000,28,167.5
1509,F#4,250.25,167/1000,33,167.5
1510,E-4,250.375,0.125,29,167.5
1511,G4,250.5,167/1000,33,167.5
1512,G5,250.5,0.5,60,167.5
1513,B-4,250.5,0.5,60,167.5
1514,E5,250.5,0.5,60,167.5
1515,E4,250.625,167/1000,31,167.5
1516,G4,250.75,167/1000,34,167.5
1517,E4,250.875,0.125,30,167.5
1518,G4,251.0,167/1000,66,167.5
1519,E6,251.0,0.5,62,167.5
1520,G6,251.0,0.5,62,167.5
1521,B-5,251.0,0.5,62,167.5
1522,E4,251.125,167/1000,31,167.5
1523,G4,251.25,167/1000,34,167.5
1524,E4,251.375,167/1000,32,167.5
1525,G4,251.5,167/1000,35,167.5
1526,E4,251.625,167/1000,31,167.5
1527,G4,251.75,167/1000,34,167.5
1528,E4,251.875,0.125,30,167.5
1529,F#4,252.0,167/1000,36,167.5
1530,E4,252.0,21/500,30,167.5
1531,B2,252.0,0.25,41,167.5
1532,B3,252.0,0.25,41,167.5
1533,E-4,252.125,167/1000,31,167.5
1534,F#4,252.25,167/1000,36,167.5
1535,E-4,252.375,167/1000,32,167.5
1536,F#4,252.5,167/1000,36,167.5
1537,B2,252.5,0.25,40,167.5
1538,B3,252.5,0.25,40,167.5
1539,E-4,252.625,167/1000,31,167.5
1540,F#4,252.75,167/1000,36,167.5
1541,E-4,252.875,167/1000,31,167.5
1542,F#4,253.0,167/1000,34,167.5
1543,E3,253.0,2.0,37,167.5
1544,E2,253.0,2.0,37,167.5
1545,E-4,253.125,167/1000,29,167.5
1546,F#4,253.25,167/1000,34,167.5
1547,E-4,253.375,167/1000,29,167.5
1548,F#4,253.5,167/1000,33,167.5
1549,E-4,253.625,167/1000,29,167.5
1550,F#4,253.75,167/1000,34,167.5
1551,E-4,253.875,167/1000,29,167.5
1552,F#4,254.0,167/1000,33,167.5
1553,E-4,254.125,167/1000,28,167.5
1554,F#4,254.25,167/1000,33,167.5
1555,E-4,254.375,0.125,29,167.5
1556,G4,254.5,167/1000,33,167.5
1557,G5,254.5,0.5,61,167.5
1558,B-4,254.5,0.5,61,167.5
1559,E5,254.5,0.5,61,167.5
1560,E4,254.625,167/1000,31,167.5
1561,G4,254.75,167/1000,34,167.5
1562,E4,254.875,0.125,30,167.5
1563,G4,255.0,167/1000,67,167.5
1564,E6,255.0,0.5,63,167.5
1565,G6,255.0,0.5,63,167.5
1566,B-5,255.0,0.5,63,167.5
1567,E4,255.125,167/1000,31,167.5
1568,G4,255.25,167/1000,34,167.5
1569,E4,255.375,167/1000,32,167.5
1570,G4,255.5,167/1000,35,167.5
1571,E4,255.625,167/1000,31,167.5
1572,G4,255.75,167/1000,34,167.5
1573,E4,255.875,0.125,30,167.5
1574,F4,256.0,167/1000,40,167.5
1575,G#3,256.0,0.25,41,167.5
1576,G#2,256.0,0.25,41,167.5
1577,D4,256.125,167/1000,31,167.5
1578,F4,256.25,167/1000,36,167.5
1579,D4,256.375,167/1000,32,167.5
1580,F4,256.5,167/1000,38,167.5
1581,C4,256.5,0.25,38,167.5
1582,C3,256.5,0.25,38,167.5
1583,D4,256.625,167/1000,31,167.5
1584,F4,256.75,167/1000,36,167.5
1585,D4,256.875,167/1000,30,167.5
1586,F4,257.0,167/1000,34,167.5
1587,B2,257.0,0.25,42,167.5
1588,B3,257.0,0.25,42,167.5
1589,D4,257.125,167/1000,29,167.5
1590,F4,257.25,167/1000,34,167.5
1591,D4,257.375,167/1000,29,167.5
1592,F4,257.5,167/1000,33,167.5
1593,C3,257.5,0.25,41,167.5
1594,C4,257.5,0.25,41,167.5
1595,D4,257.625,167/1000,29,167.5
1596,F4,257.75,167/1000,34,167.5
1597,D4,257.875,167/1000,29,167.5
1598,F4,258.0,167/1000,36,167.5
1599,G#2,258.0,1.0,42,167.5
1600,G#3,258.0,1.0,42,167.5
1601,D4,258.125,167/1000,31,167.5
1602,F4,258.25,167/1000,36,167.5
1603,D4,258.375,167/1000,32,167.5
1604,F4,258.5,167/1000,36,167.5
1605,D4,258.625,167/1000,31,167.5
1606,F4,258.75,167/1000,36,167.5
1607,D4,258.875,0.125,31,167.5
1608,F4,259.0,167/1000,34,167.5
1609,A2,259.0,0.25,42,167.5
1610,A3,259.0,0.25,42,167.5
1611,D4,259.125,167/1000,29,167.5
1612,F4,259.25,167/1000,34,167.5
1613,D4,259.375,167/1000,29,167.5
1614,F4,259.5,167/1000,33,167.5
1615,G#2,259.5,0.25,40,167.5
1616,G#3,259.5,0.25,40,167.5
1617,D4,259.625,167/1000,29,167.5
1618,F4,259.75,167/1000,34,167.5
1619,D4,259.875,0.125,29,167.5
1620,F4,260.0,167/1000,36,167.5
1621,D4,260.0,21/500,29,167.5
1622,C3,260.0,1.0,44,167.5
1623,C4,260.0,1.0,44,167.5
1624,D4,260.125,167/1000,31,167.5
1625,F4,260.25,167/1000,36,167.5
1626,D4,260.375,167/1000,32,167.5
1627,F4,260.5,167/1000,36,167.5
1628,D4,260.625,167/1000,31,167.5
1629,F4,260.75,167/1000,36,167.5
1630,D4,260.875,0.125,31,167.5
1631,F4,261.0,167/1000,34,167.5
1632,B3,261.0,0.25,41,167.5
1633,B2,261.0,0.25,41,167.5
1634,D4,261.125,167/1000,29,167.5
1635,F4,261.25,167/1000,34,167.5
1636,D4,261.375,167/1000,29,167.5
1637,F4,261.5,167/1000,33,167.5
1638,G#2,261.5,0.25,40,167.5
1639,G#3,261.5,0.25,40,167.5
1640,D4,261.625,167/1000,29,167.5
1641,F4,261.75,167/1000,34,167.5
1642,D4,261.875,0.125,29,167.5
1643,E4,262.0,167/1000,36,167.5
1644,D4,262.0,21/500,29,167.5
1645,A2,262.0,2.0,52,167.5
1646,C#4,262.125,167/1000,32,167.5
1647,E4,262.25,167/1000,37,167.5
1648,C#4,262.375,167/1000,32,167.5
1649,E4,262.5,167/1000,36,167.5
1650,C#4,262.625,167/1000,33,167.5
1651,E4,262.75,167/1000,38,167.5
1652,C#4,262.875,0.125,33,167.5
1653,E-4,263.0,167/1000,39,167.5
1654,B3,263.125,167/1000,34,167.5
1655,E-4,263.25,167/1000,39,167.5
1656,B3,263.375,167/1000,34,167.5
1657,E-4,263.5,167/1000,39,167.5
1658,B3,263.625,167/1000,35,167.5
1659,E-4,263.75,167/1000,40,167.5
1660,B3,263.875,0.125,35,167.5
1661,D4,264.0,167/1000,41,167.5
1662,E2,264.0,2.0,61,167.5
1663,B-3,264.125,167/1000,36,167.5
1664,D4,264.25,167/1000,41,167.5
1665,B-3,264.375,167/1000,36,167.5
1666,D4,264.5,167/1000,41,167.5
1667,B-3,264.625,167/1000,36,167.5
1668,D4,264.75,167/1000,42,167.5
1669,B-3,264.875,0.125,36,167.5
1670,C4,265.0,167/1000,43,167.5
1671,A3,265.125,167/1000,37,167.5
1672,C4,265.25,167/1000,44,167.5
1673,A3,265.375,167/1000,37,167.5
1674,C4,265.5,167/1000,43,167.5
1675,A3,265.625,167/1000,38,167.5
1676,C4,265.75,167/1000,45,167.5
1677,A3,265.875,0.125,38,167.5
1678,B3,266.0,167/1000,45,167.5
1679,A1,266.0,4.0,69,167.5
1680,G#3,266.125,167/1000,39,167.5
1681,B3,266.25,167/1000,45,167.5
1682,G#3,266.375,167/1000,39,167.5
1683,B3,266.5,167/1000,45,167.5
1684,G#3,266.625,167/1000,40,167.5
1685,B3,266.75,167/1000,46,167.5
1686,G#3,266.875,0.125,41,167.5
1687,B-3,267.0,167/1000,47,167.5
1688,G3,267.125,167/1000,41,167.5
1689,B-3,267.25,167/1000,47,167.5
1690,G3,267.375,167/1000,42,167.5
1691,B-3,267.5,167/1000,46,167.5
1692,G3,267.625,167/1000,42,167.5
1693,B-3,267.75,167/1000,49,167.5
1694,G3,267.875,0.125,43,167.5
1695,A3,268.0,167/1000,49,167.5
1696,F3,268.125,167/1000,43,167.5
1697,A3,268.25,167/1000,50,167.5
1698,F3,268.375,167/1000,44,167.5
1699,A3,268.5,167/1000,49,167.5
1700,F3,268.625,167/1000,44,167.5
1701,A3,268.75,167/1000,51,167.5
1702,F3,268.875,0.125,45,167.5
1703,G#3,269.0,167/1000,52,167.5
1704,E3,269.125,167/1000,45,167.5
1705,G#3,269.25,167/1000,52,167.5
1706,E3,269.375,167/1000,45,167.5
1707,G#3,269.5,167/1000,51,167.5
1708,E3,269.625,167/1000,45,167.5
1709,G#3,269.75,167/1000,53,167.5
1710,E3,269.875,0.125,46,167.5
1711,G3,270.0,167/1000,51,167.5
1712,G1,270.0,4.0,71,167.5
1713,E-3,270.125,167/1000,45,167.5
1714,G3,270.25,167/1000,49,167.5
1715,E-3,270.375,167/1000,44,167.5
1716,G3,270.5,167/1000,47,167.5
1717,E-3,270.625,167/1000,43,167.5
1718,G3,270.75,167/1000,46,167.5
1719,E-3,270.875,0.125,42,167.5
1720,F#3,271.0,167/1000,47,167.5
1721,D3,271.125,167/1000,41,167.5
1722,F#3,271.25,167/1000,45,167.5
1723,D3,271.375,167/1000,40,167.5
1724,F#3,271.5,167/1000,43,167.5
1725,D3,271.625,167/1000,39,167.5
1726,F#3,271.75,167/1000,42,167.5
1727,D3,271.875,0.125,38,167.5
1728,F3,272.0,167/1000,43,167.5
1729,C#3,272.125,167/1000,37,167.5
1730,F3,272.25,167/1000,41,167.5
1731,C#3,272.375,167/1000,36,167.5
1732,F3,272.5,167/1000,39,167.5
1733,C#3,272.625,167/1000,36,167.5
1734,F3,272.75,167/1000,38,167.5
1735,C#3,272.875,0.125,35,167.5
1736,E3,273.0,167/1000,38,167.5
1737,C3,273.125,167/1000,34,167.5
1738,E3,273.25,167/1000,37,167.5
1739,C3,273.375,167/1000,33,167.5
1740,E3,273.5,167/1000,36,167.5
1741,C3,273.625,167/1000,32,167.5
1742,E3,273.75,167/1000,35,167.5
1743,C3,273.875,0.125,31,167.5
1744,G#3,274.0,167/1000,30,167.5
1745,E3,274.0,167/1000,30,167.5
1746,C4,274.125,167/1000,28,167.5
1747,E3,274.25,167/1000,30,167.5
1748,G#3,274.25,167/1000,30,167.5
1749,C4,274.375,167/1000,28,167.5
1750,G#3,274.5,167/1000,30,167.5
1751,E3,274.5,167/1000,30,167.5
1752,C4,274.625,167/1000,28,167.5
1753,G#3,274.75,167/1000,31,167.5
1754,E3,274.75,167/1000,31,167.5
1755,C4,274.875,0.125,29,167.5
1756,G3,275.0,167/1000,33,167.5
1757,E-3,275.0,167/1000,33,167.5
1758,B3,275.125,167/1000,32,167.5
1759,E-3,275.25,167/1000,33,167.5
1760,G3,275.25,167/1000,33,167.5
1761,B3,275.375,167/1000,32,167.5
1762,E-3,275.5,167/1000,36,167.5
1763,G3,275.5,167/1000,36,167.5
1764,B3,275.625,167/1000,34,167.5
1765,G3,275.75,167/1000,37,167.5
1766,E-3,275.75,167/1000,37,167.5
1767,B3,275.875,0.125,34,167.5
1768,D3,276.0,167/1000,37,167.5
1769,F3,276.0,167/1000,37,167.5
1770,B-3,276.125,167/1000,36,167.5
1771,F3,276.25,167/1000,36,167.5
1772,D3,276.25,167/1000,36,167.5
1773,B-3,276.375,167/1000,34,167.5
1774,D3,276.5,167/1000,36,167.5
1775,F3,276.5,167/1000,36,167.5
1776,B-3,276.625,167/1000,33,167.5
1777,D3,276.75,167/1000,33,167.5
1778,F3,276.75,167/1000,33,167.5
1779,B-3,276.875,0.125,32,167.5
1780,E3,277.0,167/1000,33,167.5
1781,C3,277.0,167/1000,33,167.5
1782,A3,277.125,167/1000,31,167.5
1783,E3,277.25,167/1000,33,167.5
1784,C3,277.25,167/1000,33,167.5
1785,A3,277.375,167/1000,31,167.5
1786,C3,277.5,167/1000,31,167.5
1787,E3,277.5,167/1000,31,167.5
1788,A3,277.625,167/1000,30,167.5
1789,E5,277.75,0.25,65,167.5
1790,E4,277.75,0.25,65,167.5
1791,C3,277.75,167/1000,30,167.5
1792,E3,277.75,167/1000,30,167.5
1793,A3,277.875,0.125,28,167.5
1794,E6,278.0,1.5,72,167.5
1795,E5,278.0,1.5,72,167.5
1796,E3,278.0,167/1000,30,167.5
1797,G#3,278.0,167/1000,30,167.5
1798,C4,278.125,167/1000,28,167.5
1799,E3,278.25,167/1000,30,167.5
1800,G#3,278.25,167/1000,30,167.5
1801,C4,278.375,167/1000,28,167.5
1802,G#3,278.5,167/1000,30,167.5
1803,E3,278.5,167/1000,30,167.5
1804,C4,278.625,167/1000,28,167.5
1805,E3,278.75,167/1000,31,167.5
1806,G#3,278.75,167/1000,31,167.5
1807,C4,278.875,0.125,29,167.5
1808,E-3,279.0,167/1000,33,167.5
1809,G3,279.0,167/1000,33,167.5
1810,B3,279.125,167/1000,32,167.5
1811,E-3,279.25,167/1000,33,167.5
1812,G3,279.25,167/1000,33,167.5
1813,B3,279.375,167/1000,32,167.5
1814,G3,279.5,167/1000,36,167.5
1815,E-3,279.5,167/1000,36,167.5
1816,B3,279.625,167/1000,34,167.5
1817,E-3,279.75,167/1000,37,167.5
1818,G3,279.75,167/1000,37,167.5
1819,B3,279.875,0.125,34,167.5
1820,D3,280.0,167/1000,37,167.5
1821,F3,280.0,167/1000,37,167.5
1822,B-3,280.125,167/1000,36,167.5
1823,F3,280.25,167/1000,36,167.5
1824,D3,280.25,167/1000,36,167.5
1825,B-3,280.375,167/1000,34,167.5
1826,D3,280.5,167/1000,36,167.5
1827,F3,280.5,167/1000,36,167.5
1828,B-3,280.625,167/1000,33,167.5
1829,F3,280.75,167/1000,33,167.5
1830,D3,280.75,167/1000,33,167.5
1831,B-3,280.875,0.125,32,167.5
1832,C3,281.0,167/1000,33,167.5
1833,E3,281.0,167/1000,33,167.5
1834,A3,281.125,167/1000,31,167.5
1835,C3,281.25,167/1000,33,167.5
1836,E3,281.25,167/1000,33,167.5
1837,A3,281.375,167/1000,31,167.5
1838,C3,281.5,167/1000,34,167.5
1839,E3,281.5,167/1000,34,167.5
1840,A3,281.625,167/1000,30,167.5
1841,E5,281.75,0.25,65,167.5
1842,E4,281.75,0.25,65,167.5
1843,E3,281.75,167/1000,30,167.5
1844,C3,281.75,167/1000,30,167.5
1845,A3,281.875,0.125,28,167.5
1846,E6,282.0,1.5,72,167.5
1847,E5,282.0,1.5,72,167.5
1848,E2,282.0,167/1000,33,167.5
1849,G#2,282.0,167/1000,33,167.5
1850,C3,282.125,167/1000,29,167.5
1851,E2,282.25,167/1000,33,167.5
1852,G#2,282.25,167/1000,33,167.5
1853,C3,282.375,167/1000,30,167.5
1854,G#2,282.5,167/1000,33,167.5
1855,E2,282.5,167/1000,33,167.5
1856,C3,282.625,167/1000,30,167.5
1857,E2,282.75,167/1000,33,167.5
1858,G#2,282.75,167/1000,33,167.5
1859,C3,282.875,0.125,30,167.5
1860,G2,283.0,167/1000,31,167.5
1861,E-2,283.0,167/1000,31,167.5
1862,B2,283.125,167/1000,28,167.5
1863,E-2,283.25,167/1000,31,167.5
1864,G2,283.25,167/1000,31,167.5
1865,B2,283.375,167/1000,28,167.5
1866,E-2,283.5,167/1000,31,167.5
1867,G2,283.5,167/1000,31,167.5
1868,B2,283.625,167/1000,27,167.5
1869,E-2,283.75,167/1000,31,167.5
1870,G2,283.75,167/1000,31,167.5
1871,B2,283.875,0.125,27,167.5
1872,F2,284.0,167/1000,28,167.5
1873,D2,284.0,167/1000,28,167.5
1874,B-2,284.125,167/1000,21,167.5
1875,F2,284.25,167/1000,28,167.5
1876,D2,284.25,167/1000,28,167.5
1877,B-2,284.375,167/1000,19,167.5
1878,D2,284.5,167/1000,27,167.5
1879,F2,284.5,167/1000,27,167.5
1880,B-2,284.625,167/1000,18,167.5
1881,F2,284.75,167/1000,27,167.5
1882,D2,284.75,167/1000,27,167.5
1883,B-2,284.875,0.125,17,167.5
1884,C2,285.0,167/1000,26,167.5
1885,E2,285.0,167/1000,26,167.5
1886,A2,285.125,167/1000,16,167.5
1887,E2,285.25,167/1000,25,167.5
1888,C2,285.25,167/1000,25,167.5
1889,A2,285.375,167/1000,16,167.5
1890,E2,285.5,167/1000,25,167.5
1891,C2,285.5,167/1000,25,167.5
1892,A2,285.625,167/1000,16,167.5
1893,C2,285.75,167/1000,24,167.5
1894,E2,285.75,167/1000,24,167.5
1895,A2,285.875,0.125,16,167.5
1896,B1,286.0,167/1000,25,167.5
1897,E-2,286.0,167/1000,25,167.5
1898,G2,286.125,167/1000,15,167.5
1899,B1,286.25,167/1000,24,167.5
1900,E-2,286.25,167/1000,24,167.5
1901,G2,286.375,0.125,15,167.5
1902,B1,286.5,167/1000,24,167.5
1903,E-2,286.5,167/1000,24,167.5
1904,G2,286.625,167/1000,15,167.5
1905,E-2,286.75,167/1000,24,167.5
1906,B1,286.75,167/1000,24,167.5
1907,G2,286.875,0.125,14,167.5
1908,E-2,287.0,167/1000,24,167.5
1909,B1,287.0,167/1000,24,167.5
1910,G2,287.125,167/1000,15,167.5
1911,B1,287.25,167/1000,24,167.5
1912,E-2,287.25,167/1000,24,167.5
1913,G2,287.375,167/1000,15,167.5
1914,E-2,287.5,167/1000,24,167.5
1915,B1,287.5,167/1000,24,167.5
1916,G2,287.625,167/1000,15,167.5
1917,E-2,287.75,167/1000,24,167.5
1918,B1,287.75,167/1000,24,167.5
1919,G2,287.875,0.125,14,167.5
1920,E-2,288.0,167/1000,24,167.5
1921,B1,288.0,167/1000,24,167.5
1922,G2,288.125,167/1000,15,167.5
1923,B1,288.25,167/1000,22,167.5
1924,E-2,288.25,167/1000,22,167.5
1925,G2,288.375,167/1000,15,167.5
1926,B1,288.5,167/1000,22,167.5
1927,E-2,288.5,167/1000,22,167.5
1928,G2,288.625,167/1000,15,167.5
1929,B1,288.75,167/1000,22,167.5
1930,E-2,288.75,167/1000,22,167.5
1931,G2,288.875,0.125,14,167.5
1932,B1,289.0,1.0,24,167.5
1933,E-2,289.0,1.0,24,167.5
1934,G3,290.0,1.0,86,167.5
1935,G2,290.0,1.0,62,167.5
1936,G1,290.0,1.0,62,167.5
1937,G3,294.0,1.0,86,167.5
1938,G1,294.0,1.0,62,167.5
1939,G2,294.0,1.0,62,167.5
1940,G3,295.0,1.0,82,167.5
1941,G2,295.0,1.0,60,167.5
1942,G1,295.0,1.0,60,167.5
1943,G3,298.0,1.0,86,167.5
1944,G2,298.0,1.0,62,167.5
1945,G1,298.0,1.0,62,167.5
1946,G3,299.0,1.0,82,167.5
1947,G1,299.0,1.0,60,167.5
1948,G2,299.0,1.0,60,167.5
1949,G3,300.0,1.0,95,167.5
1950,G1,300.0,1.0,63,167.5
1951,G2,300.0,0.25,75,167.5
1952,G#3,300.5,0.25,85,167.5
1953,G#2,300.5,0.25,68,167.5
1954,G3,301.0,1.0,83,167.5
1955,G2,301.0,1.0,66,167.5
1956,F4,301.5,0.25,77,167.5
1957,F3,301.5,0.25,61,167.5
1958,G3,302.0,1.0,85,167.5
1959,G1,302.0,1.0,62,167.5
1960,G2,302.0,1.0,62,167.5
1961,G3,303.0,1.0,83,167.5
1962,G1,303.0,1.0,60,167.5
1963,G2,303.0,1.0,60,167.5
1964,G3,304.0,1.0,94,167.5
1965,G1,304.0,1.0,63,167.5
1966,G2,304.0,0.5,75,167.5
1967,G#3,304.5,0.5,84,167.5
1968,G#2,304.5,0.5,66,167.5
1969,G3,305.0,1.0,83,167.5
1970,G2,305.0,1.0,66,167.5
1971,C#4,305.5,0.25,77,167.5
1972,C#3,305.5,0.25,61,167.5
1973,G3,306.0,1.0,80,167.5
1974,G2,306.0,1.0,52,167.5
1975,G1,306.0,1.0,52,167.5
1976,G3,307.0,1.0,78,167.5
1977,G2,307.0,1.0,50,167.5
1978,G1,307.0,1.0,50,167.5
1979,G3,308.0,1.0,81,167.5
1980,G2,308.0,1.0,54,167.5
1981,G1,308.0,1.0,54,167.5
1982,G3,309.0,1.0,85,167.5
1983,G2,309.0,1.0,59,167.5
1984,G1,309.0,1.0,59,167.5
1985,G3,310.0,0.25,71,167.5
1986,G2,310.0,0.25,52,167.5
1987,G1,310.0,0.25,52,167.5
1988,C4,310.5,0.25,65,167.5
1989,C2,310.5,0.25,48,167.5
1990,C3,310.5,0.25,48,167.5
1991,G#3,311.0,0.25,84,167.5
1992,G#1,311.0,0.25,62,167.5
1993,G#2,311.0,0.25,62,167.5
1994,C#4,311.5,0.25,73,167.5
1995,C#2,311.5,0.25,54,167.5
1996,C#3,311.5,0.25,54,167.5
1997,A3,312.0,0.25,72,167.5
1998,A2,312.0,0.25,52,167.5
1999,A1,312.0,0.25,52,167.5
2000,D4,312.5,0.25,71,167.5
2001,D3,312.5,0.25,52,167.5
2002,D2,312.5,0.25,52,167.5
2003,B-3,313.0,0.25,81,167.5
2004,B-2,313.0,0.25,59,167.5
2005,B-1,313.0,0.25,59,167.5
2006,E-4,313.5,0.25,70,167.5
2007,E-2,313.5,0.25,50,167.5
2008,E-3,313.5,0.25,50,167.5
2009,G3,314.0,0.25,73,167.5
2010,G1,314.0,0.25,54,167.5
2011,G2,314.0,0.25,54,167.5
2012,C4,314.5,0.25,68,167.5
2013,C2,314.5,0.25,50,167.5
2014,C3,314.5,0.25,50,167.5
2015,G#3,315.0,0.25,88,167.5
2016,G#2,315.0,0.25,64,167.5
2017,G#1,315.0,0.25,64,167.5
2018,C#4,315.5,0.25,77,167.5
2019,C#2,315.5,0.25,56,167.5
2020,C#3,315.5,0.25,56,167.5
2021,A3,316.0,0.25,79,167.5
2022,A1,316.0,0.25,58,167.5
2023,A2,316.0,0.25,58,167.5
2024,D4,316.5,0.25,74,167.5
2025,D2,316.5,0.25,54,167.5
2026,D3,316.5,0.25,54,167.5
2027,B-3,317.0,0.25,87,167.5
2028,B-2,317.0,0.25,63,167.5
2029,B-1,317.0,0.25,63,167.5
2030,E-4,317.5,0.25,74,167.5
2031,E-3,317.5,0.25,54,167.5
2032,E-2,317.5,0.25,54,167.5
2033,F6,317.875,0.125,62,167.5
2034,E5,318.0,0.25,72,167.5
2035,C6,318.0,0.25,72,167.5
2036,E6,318.0,0.25,72,167.5
2037,G1,318.0,0.25,66,167.5
2038,G2,318.0,0.25,66,167.5
2039,C3,318.5,0.25,60,167.5
2040,C2,318.5,0.25,60,167.5
2041,E-6,318.875,0.125,60,167.5
2042,G#5,319.0,0.25,68,167.5
2043,C#6,319.0,0.25,68,167.5
2044,F5,319.0,0.25,68,167.5
2045,G#2,319.0,0.25,64,167.5
2046,G#1,319.0,0.25,64,167.5
2047,C#3,319.5,0.25,58,167.5
2048,C#2,319.5,0.25,58,167.5
2049,D6,319.875,0.125,58,167.5
2050,F#5,320.0,0.25,68,167.5
2051,D5,320.0,0.25,68,167.5
2052,C6,320.0,0.25,68,167.5
2053,A1,320.0,0.25,66,167.5
2054,A2,320.0,0.25,66,167.5
2055,D3,320.5,0.25,60,167.5
2056,D2,320.5,0.25,60,167.5
2057,C6,320.875,0.125,55,167.5
2058,B-5,321.0,0.25,65,167.5
2059,G5,321.0,0.25,65,167.5
2060,B-4,321.0,0.25,65,167.5
2061,B-2,321.0,0.25,64,167.5
2062,B-1,321.0,0.25,64,167.5
2063,E-3,321.5,0.25,58,167.5
2064,E-2,321.5,0.25,58,167.5
2065,F5,321.875,0.125,58,167.5
2066,E4,322.0,0.25,68,167.5
2067,C5,322.0,0.25,68,167.5
2068,E5,322.0,0.25,68,167.5
2069,G2,322.0,0.25,66,167.5
2070,G1,322.0,0.25,66,167.5
2071,C2,322.5,0.25,60,167.5
2072,C3,322.5,0.25,60,167.5
2073,E-5,322.875,0.125,56,167.5
2074,G#4,323.0,0.25,64,167.5
2075,C#5,323.0,0.25,64,167.5
2076,F4,323.0,0.25,64,167.5
2077,G#2,323.0,0.25,64,167.5
2078,G#1,323.0,0.25,64,167.5
2079,C#2,323.5,0.25,58,167.5
2080,C#3,323.5,0.25,58,167.5
2081,D5,323.875,0.125,54,167.5
2082,D4,324.0,0.25,64,167.5
2083,F#4,324.0,0.25,64,167.5
2084,C5,324.0,0.25,64,167.5
2085,A2,324.0,0.25,66,167.5
2086,A1,324.0,0.25,66,167.5
2087,D3,324.5,0.25,60,167.5
2088,D2,324.5,0.25,60,167.5
2089,C5,324.875,0.125,52,167.5
2090,B-3,325.0,0.25,62,167.5
2091,B-4,325.0,0.25,62,167.5
2092,G4,325.0,0.25,62,167.5
2093,B-2,325.0,0.25,64,167.5
2094,B-1,325.0,0.25,64,167.5
2095,E-3,325.5,0.25,58,167.5
2096,E-2,325.5,0.25,58,167.5
2097,G3,326.0,0.25,76,167.5
2098,G1,326.0,0.25,56,167.5
2099,G2,326.0,0.25,56,167.5
2100,C4,326.5,0.25,70,167.5
2101,C2,326.5,0.25,50,167.5
2102,C3,326.5,0.25,50,167.5
2103,G#3,327.0,0.25,90,167.5
2104,G#2,327.0,0.25,66,167.5
2105,G#1,327.0,0.25,66,167.5
2106,C#4,327.5,0.25,80,167.5
2107,C#2,327.5,0.25,58,167.5
2108,C#3,327.5,0.25,58,167.5
2109,A3,328.0,0.25,78,167.5
2110,A2,328.0,0.25,57,167.5
2111,A1,328.0,0.25,57,167.5
2112,D4,328.5,0.25,77,167.5
2113,D3,328.5,0.25,57,167.5
2114,D2,328.5,0.25,57,167.5
2115,B-3,329.0,0.25,89,167.5
2116,B-2,329.0,0.25,64,167.5
2117,B-1,329.0,0.25,64,167.5
2118,E-4,329.5,0.25,76,167.5
2119,E-2,329.5,0.25,56,167.5
2120,E-3,329.5,0.25,56,167.5
2121,G3,330.0,0.25,81,167.5
2122,G1,330.0,0.25,60,167.5
2123,G2,330.0,0.25,60,167.5
2124,C4,330.5,0.25,75,167.5
2125,C3,330.5,0.25,54,167.5
2126,C2,330.5,0.25,54,167.5
2127,G#3,331.0,0.25,99,167.5
2128,G#2,331.0,0.25,72,167.5
2129,G#1,331.0,0.25,72,167.5
2130,C#4,331.5,0.25,86,167.5
2131,C#2,331.5,0.25,62,167.5
2132,C#3,331.5,0.25,62,167.5
2133,A3,332.0,0.25,88,167.5
2134,A2,332.0,0.25,64,167.5
2135,A1,332.0,0.25,64,167.5
2136,D4,332.5,0.25,83,167.5
2137,D3,332.5,0.25,60,167.5
2138,D2,332.5,0.25,60,167.5
2139,B-3,333.0,0.25,99,167.5
2140,B-2,333.0,0.25,70,167.5
2141,B-1,333.0,0.25,70,167.5
2142,E-4,333.5,0.25,84,167.5
2143,E-3,333.5,0.25,62,167.5
2144,E-2,333.5,0.25,62,167.5
2145,G4,334.0,0.5,73,167.5
2146,C4,334.0,0.5,73,167.5
2147,E4,334.0,0.5,73,167.5
2148,C5,334.0,0.5,73,167.5
2149,G2,334.0,0.5,64,167.5
2150,G1,334.0,0.5,64,167.5
2151,F#2,334.5,0.5,65,167.5
2152,C5,335.0,1.0,66,167.5
2153,G5,335.0,1.0,66,167.5
2154,E5,335.0,1.0,66,167.5
2155,G4,335.0,1.0,66,167.5
2156,G1,335.0,0.5,64,167.5
2157,G2,335.0,0.5,64,167.5
2158,F#2,335.5,0.5,65,167.5
2159,G4,336.0,1.0,69,167.5
2160,G5,336.0,1.0,69,167.5
2161,C5,336.0,1.0,69,167.5
2162,E5,336.0,1.0,69,167.5
2163,G2,336.0,0.5,64,167.5
2164,G1,336.0,0.5,64,167.5
2165,F#2,336.5,0.5,65,167.5
2166,G4,337.0,0.875,66,167.5
2167,G5,337.0,0.875,66,167.5
2168,C5,337.0,0.875,66,167.5
2169,E5,337.0,0.875,66,167.5
2170,G1,337.0,0.5,64,167.5
2171,G2,337.0,0.5,64,167.5
2172,F#2,337.5,0.5,65,167.5
2173,G#4,337.875,0.125,59,167.5
2174,G#5,337.875,0.125,59,167.5
2175,G4,338.0,0.5,66,167.5
2176,G5,338.0,0.5,66,167.5
2177,G1,338.0,0.5,64,167.5
2178,G2,338.0,0.5,64,167.5
2179,F#2,338.5,0.5,67,167.5
2180,E4,339.0,1.0,64,167.5
2181,C4,339.0,1.0,64,167.5
2182,G4,339.0,1.0,64,167.5
2183,C5,339.0,1.0,64,167.5
2184,G2,339.0,0.5,64,167.5
2185,G1,339.0,0.5,64,167.5
2186,F#2,339.5,0.5,67,167.5
2187,D4,340.0,1.5,68,167.5
2188,D5,340.0,1.5,68,167.5
2189,F4,340.0,1.5,68,167.5
2190,G#4,340.0,1.5,68,167.5
2191,C2,340.0,0.5,66,167.5
2192,C3,340.0,0.5,66,167.5
2193,B-2,340.5,0.5,66,167.5
2194,B-1,340.5,0.5,66,167.5
2195,A1,341.0,0.5,64,167.5
2196,A2,341.0,0.5,64,167.5
2197,G#2,341.5,0.5,64,167.5
2198,G#1,341.5,0.5,64,167.5
2199,G4,342.0,0.5,73,167.5
2200,C5,342.0,0.5,73,167.5
2201,E4,342.0,0.5,73,167.5
2202,C4,342.0,0.5,73,167.5
2203,G2,342.0,0.5,64,167.5
2204,G1,342.0,0.5,64,167.5
2205,F#2,342.5,0.5,65,167.5
2206,C5,343.0,1.0,66,167.5
2207,G4,343.0,1.0,66,167.5
2208,G5,343.0,1.0,66,167.5
2209,E5,343.0,1.0,66,167.5
2210,G1,343.0,0.5,64,167.5
2211,G2,343.0,0.5,64,167.5
2212,F#2,343.5,0.5,65,167.5
2213,E5,344.0,1.0,69,167.5
2214,G5,344.0,1.0,69,167.5
2215,C5,344.0,1.0,69,167.5
2216,G4,344.0,1.0,69,167.5
2217,G1,344.0,0.5,64,167.5
2218,G2,344.0,0.5,64,167.5
2219,F#2,344.5,0.5,65,167.5
2220,E5,345.0,0.875,66,167.5
2221,G4,345.0,0.875,66,167.5
2222,C5,345.0,0.875,66,167.5
2223,G5,345.0,0.875,66,167.5
2224,G2,345.0,0.5,64,167.5
2225,G1,345.0,0.5,64,167.5
2226,F#2,345.5,0.5,65,167.5
2227,A5,345.875,0.125,59,167.5
2228,A4,345.875,0.125,59,167.5
2229,G4,346.0,0.5,66,167.5
2230,G5,346.0,0.5,66,167.5
2231,G2,346.0,0.5,64,167.5
2232,G1,346.0,0.5,64,167.5
2233,F#2,346.5,0.5,67,167.5
2234,C4,347.0,1.0,64,167.5
2235,C5,347.0,1.0,64,167.5
2236,E4,347.0,1.0,64,167.5
2237,G4,347.0,1.0,64,167.5
2238,G2,347.0,0.5,64,167.5
2239,G1,347.0,0.5,64,167.5
2240,F#2,347.5,0.5,67,167.5
2241,A4,348.0,1.5,68,167.5
2242,D4,348.0,1.5,68,167.5
2243,F#4,348.0,1.5,68,167.5
2244,D5,348.0,1.5,68,167.5
2245,C2,348.0,0.5,66,167.5
2246,C3,348.0,0.5,66,167.5
2247,B2,348.5,0.5,66,167.5
2248,B1,348.5,0.5,66,167.5
2249,B-2,349.0,0.5,64,167.5
2250,B-1,349.0,0.5,64,167.5
2251,A2,349.5,0.5,64,167.5
2252,A1,349.5,0.5,64,167.5
2253,F#4,350.0,2.0,70,167.5
2254,E-5,350.0,0.5,79,167.5
2255,A4,350.0,0.5,79,167.5
2256,F#5,350.0,0.5,79,167.5
2257,E-5,351.0,1.0,66,167.5
2258,A4,351.0,1.0,66,167.5
2259,A5,351.0,1.0,66,167.5
2260,F#5,351.0,1.0,66,167.5
2261,C3,351.0,1.0,54,167.5
2262,C4,351.0,1.0,54,167.5
2263,F#4,352.0,2.0,70,167.5
2264,E-5,352.0,1.0,69,167.5
2265,A5,352.0,1.0,69,167.5
2266,F#5,352.0,1.0,69,167.5
2267,A4,352.0,1.0,69,167.5
2268,C3,352.0,1.0,58,167.5
2269,C2,352.0,1.0,58,167.5
2270,A4,353.0,1.0,66,167.5
2271,A5,353.0,1.0,66,167.5
2272,E-5,353.0,1.0,66,167.5
2273,F#5,353.0,1.0,66,167.5
2274,C4,353.0,1.0,55,167.5
2275,C3,353.0,1.0,55,167.5
2276,B-4,354.0,2.0,70,167.5
2277,B-5,354.0,0.5,76,167.5
2278,G6,354.0,0.5,76,167.5
2279,E-6,354.0,0.5,76,167.5
2280,G5,354.0,0.5,76,167.5
2281,D6,354.5,0.5,66,167.5
2282,D5,354.5,0.5,66,167.5
2283,E-6,355.0,0.5,71,167.5
2284,E-5,355.0,0.5,71,167.5
2285,G3,355.0,1.0,54,167.5
2286,G2,355.0,1.0,54,167.5
2287,B-4,355.5,0.5,66,167.5
2288,B-5,355.5,0.5,66,167.5
2289,B-4,356.0,2.0,70,167.5
2290,E-6,356.0,0.5,74,167.5
2291,G5,356.0,0.5,74,167.5
2292,B-5,356.0,0.5,74,167.5
2293,G6,356.0,0.5,74,167.5
2294,G2,356.0,1.0,58,167.5
2295,G1,356.0,1.0,58,167.5
2296,D5,356.5,0.5,66,167.5
2297,D6,356.5,0.5,66,167.5
2298,E-5,357.0,0.5,71,167.5
2299,E-6,357.0,0.5,71,167.5
2300,G3,357.0,1.0,55,167.5
2301,G2,357.0,1.0,55,167.5
2302,B-4,357.5,0.5,66,167.5
2303,B-5,357.5,0.5,66,167.5
2304,F#4,358.0,2.0,70,167.5
2305,E-5,358.0,0.5,79,167.5
2306,A4,358.0,0.5,79,167.5
2307,F#5,358.0,0.5,79,167.5
2308,E-5,359.0,1.0,66,167.5
2309,A5,359.0,1.0,66,167.5
2310,F#5,359.0,1.0,66,167.5
2311,A4,359.0,1.0,66,167.5
2312,C4,359.0,1.0,54,167.5
2313,C3,359.0,1.0,54,167.5
2314,F#4,360.0,2.0,70,167.5
2315,A4,360.0,1.0,69,167.5
2316,A5,360.0,1.0,69,167.5
2317,E-5,360.0,1.0,69,167.5
2318,F#5,360.0,1.0,69,167.5
2319,C2,360.0,1.0,58,167.5
2320,C3,360.0,1.0,58,167.5
2321,F#5,361.0,1.0,66,167.5
2322,A4,361.0,1.0,66,167.5
2323,E-5,361.0,1.0,66,167.5
2324,A5,361.0,1.0,66,167.5
2325,C4,361.0,1.0,55,167.5
2326,C3,361.0,1.0,55,167.5
2327,B-4,362.0,2.0,70,167.5
2328,E-6,362.0,0.5,76,167.5
2329,B-6,362.0,0.5,76,167.5
2330,B-5,362.0,0.5,76,167.5
2331,G6,362.0,0.5,76,167.5
2332,B-6,363.0,0.5,74,167.5
2333,B-5,363.0,0.5,74,167.5
2334,G2,363.0,1.0,54,167.5
2335,G3,363.0,1.0,54,167.5
2336,F6,363.5,0.5,66,167.5
2337,F5,363.5,0.5,66,167.5
2338,B-4,364.0,2.0,70,167.5
2339,G6,364.0,0.5,68,167.5
2340,G5,364.0,0.5,68,167.5
2341,E-6,364.0,0.5,68,167.5
2342,B-5,364.0,0.5,68,167.5
2343,G2,364.0,1.0,58,167.5
2344,G1,364.0,1.0,58,167.5
2345,E-5,364.5,0.5,64,167.5
2346,E-6,364.5,0.5,64,167.5
2347,D6,365.0,0.5,71,167.5
2348,D5,365.0,0.5,71,167.5
2349,G2,365.0,1.0,55,167.5
2350,G3,365.0,1.0,55,167.5
2351,B-5,365.5,0.5,66,167.5
2352,B-4,365.5,0.5,66,167.5
2353,F#4,366.0,2.0,70,167.5
2354,A5,366.0,0.5,76,167.5
2355,B5,366.0,0.5,76,167.5
2356,E-5,366.0,0.5,76,167.5
2357,B4,366.0,0.5,76,167.5
2358,F#5,367.0,1.0,69,167.5
2359,E-5,367.0,1.0,69,167.5
2360,B5,367.0,1.0,69,167.5
2361,E-6,367.0,1.0,69,167.5
2362,A3,367.0,1.0,54,167.5
2363,A2,367.0,1.0,54,167.5
2364,F#4,368.0,2.0,70,167.5
2365,E-5,368.0,1.0,72,167.5
2366,E-6,368.0,1.0,72,167.5
2367,F#5,368.0,1.0,72,167.5
2368,B5,368.0,1.0,72,167.5
2369,A1,368.0,1.0,58,167.5
2370,A2,368.0,1.0,58,167.5
2371,B5,369.0,1.0,69,167.5
2372,E-6,369.0,1.0,69,167.5
2373,E-5,369.0,1.0,69,167.5
2374,F#5,369.0,1.0,69,167.5
2375,A2,369.0,1.0,55,167.5
2376,A3,369.0,1.0,55,167.5
2377,B-4,370.0,2.0,70,167.5
2378,G6,370.0,0.5,72,167.5
2379,G5,370.0,0.5,72,167.5
2380,E6,370.0,0.5,72,167.5
2381,C6,370.0,0.5,72,167.5
2382,D5,370.5,0.5,66,167.5
2383,D6,370.5,0.5,66,167.5
2384,E6,371.0,0.5,70,167.5
2385,E5,371.0,0.5,70,167.5
2386,E3,371.0,1.0,54,167.5
2387,E2,371.0,1.0,54,167.5
2388,C6,371.5,0.5,62,167.5
2389,C5,371.5,0.5,62,167.5
2390,B-4,372.0,2.0,70,167.5
2391,C6,372.0,0.5,75,167.5
2392,G5,372.0,0.5,75,167.5
2393,E6,372.0,0.5,75,167.5
2394,G6,372.0,0.5,75,167.5
2395,E1,372.0,1.0,58,167.5
2396,E2,372.0,1.0,58,167.5
2397,D6,372.5,0.5,62,167.5
2398,D5,372.5,0.5,62,167.5
2399,E6,373.0,0.5,68,167.5
2400,E5,373.0,0.5,68,167.5
2401,E2,373.0,1.0,55,167.5
2402,E3,373.0,1.0,55,167.5
2403,C5,373.5,0.5,61,167.5
2404,C6,373.5,0.5,61,167.5
2405,F#4,374.0,2.0,70,167.5
2406,E-5,374.0,0.5,76,167.5
2407,B4,374.0,0.5,76,167.5
2408,B5,374.0,0.5,76,167.5
2409,A5,374.0,0.5,76,167.5
2410,F#5,375.0,1.0,66,167.5
2411,E-6,375.0,1.0,66,167.5
2412,B5,375.0,1.0,66,167.5
2413,E-5,375.0,1.0,66,167.5
2414,A2,375.0,1.0,54,167.5
2415,A3,375.0,1.0,54,167.5
2416,F#4,376.0,2.0,70,167.5
2417,E-5,376.0,1.0,69,167.5
2418,E-6,376.0,1.0,69,167.5
2419,F#5,376.0,1.0,69,167.5
2420,B5,376.0,1.0,69,167.5
2421,A2,376.0,1.0,58,167.5
2422,A1,376.0,1.0,58,167.5
2423,B5,377.0,1.0,66,167.5
2424,E-5,377.0,1.0,66,167.5
2425,F#5,377.0,1.0,66,167.5
2426,E-6,377.0,1.0,66,167.5
2427,A2,377.0,1.0,55,167.5
2428,A3,377.0,1.0,55,167.5
2429,C5,378.0,2.0,70,167.5
2430,E6,378.0,0.5,72,167.5
2431,C7,378.0,0.5,72,167.5
2432,C6,378.0,0.5,72,167.5
2433,G6,378.0,0.5,72,167.5
2434,C7,379.0,0.5,70,167.5
2435,C6,379.0,0.5,70,167.5
2436,E2,379.0,1.0,54,167.5
2437,E3,379.0,1.0,54,167.5
2438,G6,379.5,0.5,62,167.5
2439,G5,379.5,0.5,62,167.5
2440,C5,380.0,2.0,70,167.5
2441,C6,380.0,0.5,62,167.5
2442,A6,380.0,0.5,62,167.5
2443,E6,380.0,0.5,62,167.5
2444,A5,380.0,0.5,62,167.5
2445,E1,380.0,1.0,58,167.5
2446,E2,380.0,1.0,58,167.5
2447,F6,380.5,0.5,59,167.5
2448,F5,380.5,0.5,59,167.5
2449,E6,381.0,0.5,68,167.5
2450,E5,381.0,0.5,68,167.5
2451,E2,381.0,1.0,55,167.5
2452,E3,381.0,1.0,55,167.5
2453,C6,381.5,0.5,61,167.5
2454,C5,381.5,0.5,61,167.5
2455,G3,382.0,0.5,72,167.5
2456,G4,382.0,0.5,72,167.5
2457,G1,382.0,0.5,62,167.5
2458,G2,382.0,0.5,62,167.5
2459,G5,383.0,0.5,66,167.5
2460,G7,383.0,0.5,73,167.5
2461,G6,383.0,0.5,73,167.5
2462,D5,383.5,0.5,60,167.5
2463,D6,383.5,0.5,62,167.5
2464,D7,383.5,0.5,62,167.5
2465,E-5,384.0,0.5,65,167.5
2466,E-7,384.0,0.5,64,167.5
2467,E-6,384.0,0.5,64,167.5
2468,D5,384.5,0.5,60,167.5
2469,D7,384.5,0.5,60,167.5
2470,D6,384.5,0.5,60,167.5
2471,B-4,385.0,0.5,65,167.5
2472,B-6,385.0,0.5,64,167.5
2473,B-5,385.0,0.5,64,167.5
2474,G4,385.5,0.5,60,167.5
2475,G5,385.5,0.5,62,167.5
2476,G6,385.5,0.5,62,167.5
2477,G#4,386.0,0.5,64,167.5
2478,G#5,386.0,0.5,64,167.5
2479,G#6,386.0,0.5,64,167.5
2480,E-5,386.5,0.5,58,167.5
2481,E-6,386.5,0.5,59,167.5
2482,E-7,386.5,0.5,59,167.5
2483,B4,387.0,0.5,62,167.5
2484,B5,387.0,0.5,62,167.5
2485,B6,387.0,0.5,62,167.5
2486,E-5,387.5,0.5,58,167.5
2487,E-6,387.5,0.5,54,167.5
2488,E-7,387.5,0.5,54,167.5
2489,D5,388.0,0.5,63,167.5
2490,D6,388.0,0.5,74,167.5
2491,D7,388.0,0.5,74,167.5
2492,G4,389.0,0.5,61,167.5
2493,G5,389.0,0.5,62,167.5
2494,G6,389.0,0.5,62,167.5
2495,G6,390.0,1.0,72,167.5
2496,G5,390.0,1.0,72,167.5
2497,G4,390.0,1.0,62,167.5
2498,G3,390.0,1.0,62,167.5
2499,G6,391.0,0.5,68,167.5
2500,G5,391.0,0.5,68,167.5
2501,G4,391.0,0.5,60,167.5
2502,G3,391.0,0.5,60,167.5
2503,D6,391.5,0.5,62,167.5
2504,D5,391.5,0.5,62,167.5
2505,D3,391.5,0.5,55,167.5
2506,D4,391.5,0.5,55,167.5
2507,E-5,392.0,0.5,64,167.5
2508,E-6,392.0,0.5,64,167.5
2509,E-3,392.0,0.5,60,167.5
2510,E-4,392.0,0.5,60,167.5
2511,D6,392.5,0.5,60,167.5
2512,D5,392.5,0.5,60,167.5
2513,D3,392.5,0.5,55,167.5
2514,D4,392.5,0.5,55,167.5
2515,B-4,393.0,0.5,64,167.5
2516,B-5,393.0,0.5,64,167.5
2517,B-3,393.0,0.5,60,167.5
2518,B-2,393.0,0.5,60,167.5
2519,G5,393.5,0.5,62,167.5
2520,G4,393.5,0.5,62,167.5
2521,G3,393.5,0.5,55,167.5
2522,G2,393.5,0.5,55,167.5
2523,G#4,394.0,0.5,64,167.5
2524,G#5,394.0,0.5,64,167.5
2525,G#3,394.0,0.5,59,167.5
2526,G#2,394.0,0.5,59,167.5
2527,E-6,394.5,0.5,59,167.5
2528,E-5,394.5,0.5,59,167.5
2529,E-3,394.5,0.5,54,167.5
2530,E-4,394.5,0.5,54,167.5
2531,B5,395.0,0.5,62,167.5
2532,B4,395.0,0.5,62,167.5
2533,B2,395.0,0.5,57,167.5
2534,B3,395.0,0.5,57,167.5
2535,E-5,395.5,0.5,54,167.5
2536,E-6,395.5,0.5,54,167.5
2537,E-4,395.5,0.5,58,167.5
2538,E-3,395.5,0.5,58,167.5
2539,D5,396.0,0.5,73,167.5
2540,D6,396.0,0.5,73,167.5
2541,D4,396.0,0.5,58,167.5
2542,D3,396.0,0.5,58,167.5
2543,G5,397.0,0.5,62,167.5
2544,G4,397.0,0.5,62,167.5
2545,G2,397.0,0.5,56,167.5
2546,G3,397.0,0.5,56,167.5
2547,G4,398.0,1.0,72,167.5
2548,G5,398.0,1.0,72,167.5
2549,G3,398.0,1.0,62,167.5
2550,G2,398.0,1.0,62,167.5
2551,G5,399.0,0.5,68,167.5
2552,G4,399.0,0.5,68,167.5
2553,G3,399.0,0.5,60,167.5
2554,G2,399.0,0.5,60,167.5
2555,D4,399.5,0.5,62,167.5
2556,D5,399.5,0.5,62,167.5
2557,D2,399.5,0.5,55,167.5
2558,D3,399.5,0.5,55,167.5
2559,E-5,400.0,0.5,64,167.5
2560,E-4,400.0,0.5,64,167.5
2561,E-2,400.0,0.5,60,167.5
2562,E-3,400.0,0.5,60,167.5
2563,D5,400.5,0.5,60,167.5
2564,D4,400.5,0.5,60,167.5
2565,D3,400.5,0.5,55,167.5
2566,D2,400.5,0.5,55,167.5
2567,B-4,401.0,0.5,64,167.5
2568,B-3,401.0,0.5,64,167.5
2569,B-2,401.0,0.5,60,167.5
2570,B-1,401.0,0.5,60,167.5
2571,G3,401.5,0.5,62,167.5
2572,G4,401.5,0.5,62,167.5
2573,G2,401.5,0.5,55,167.5
2574,G1,401.5,0.5,55,167.5
2575,F#3,402.0,1.5,87,167.5
2576,F#1,402.0,1.5,64,167.5
2577,F#2,402.0,1.5,64,167.5
2578,G5,403.0,0.5,68,167.5
2579,G4,403.0,0.5,68,167.5
2580,G3,403.0,0.5,60,167.5
2581,G2,403.0,0.5,60,167.5
2582,D5,403.5,0.5,62,167.5
2583,D4,403.5,0.5,62,167.5
2584,D2,403.5,0.5,55,167.5
2585,D3,403.5,0.5,55,167.5
2586,E-4,404.0,0.5,64,167.5
2587,E-5,404.0,0.5,64,167.5
2588,E-3,404.0,0.5,60,167.5
2589,E-2,404.0,0.5,60,167.5
2590,D5,404.5,0.5,60,167.5
2591,D4,404.5,0.5,60,167.5
2592,D3,404.5,0.5,55,167.5
2593,D2,404.5,0.5,55,167.5
2594,B-4,405.0,0.5,64,167.5
2595,B-3,405.0,0.5,64,167.5
2596,B-1,405.0,0.5,60,167.5
2597,B-2,405.0,0.5,60,167.5
2598,G3,405.5,0.5,62,167.5
2599,G4,405.5,0.5,62,167.5
2600,G1,405.5,0.5,55,167.5
2601,G2,405.5,0.5,55,167.5
2602,F3,406.0,1.5,87,167.5
2603,F2,406.0,1.5,64,167.5
2604,F1,406.0,1.5,64,167.5
2605,G5,407.0,0.5,68,167.5
2606,G4,407.0,0.5,68,167.5
2607,G3,407.0,0.5,60,167.5
2608,G2,407.0,0.5,60,167.5
2609,D5,407.5,0.5,62,167.5
2610,D4,407.5,0.5,62,167.5
2611,D3,407.5,0.5,55,167.5
2612,D2,407.5,0.5,55,167.5
2613,E-4,408.0,0.5,64,167.5
2614,E-5,408.0,0.5,64,167.5
2615,E-2,408.0,0.5,60,167.5
2616,E-3,408.0,0.5,60,167.5
2617,D5,408.5,0.5,60,167.5
2618,D4,408.5,0.5,60,167.5
2619,D3,408.5,0.5,55,167.5
2620,D2,408.5,0.5,55,167.5
2621,B-3,409.0,0.5,64,167.5
2622,B-4,409.0,0.5,64,167.5
2623,B-1,409.0,0.5,60,167.5
2624,B-2,409.0,0.5,60,167.5
2625,G4,409.5,0.5,62,167.5
2626,G3,409.5,0.5,62,167.5
2627,G1,409.5,0.5,55,167.5
2628,G2,409.5,0.5,55,167.5
2629,E3,410.0,1.5,87,167.5
2630,E1,410.0,1.5,64,167.5
2631,E2,410.0,1.5,64,167.5
2632,G4,411.0,0.5,68,167.5
2633,G5,411.0,0.5,68,167.5
2634,G3,411.0,0.5,60,167.5
2635,G2,411.0,0.5,60,167.5
2636,D4,411.5,0.5,62,167.5
2637,D5,411.5,0.5,62,167.5
2638,D2,411.5,0.5,55,167.5
2639,D3,411.5,0.5,55,167.5
2640,E-4,412.0,0.5,64,167.5
2641,E-5,412.0,0.5,64,167.5
2642,E-2,412.0,0.5,60,167.5
2643,E-3,412.0,0.5,60,167.5
2644,D5,412.5,0.5,60,167.5
2645,D4,412.5,0.5,60,167.5
2646,D2,412.5,0.5,55,167.5
2647,D3,412.5,0.5,55,167.5
2648,B-3,413.0,0.5,64,167.5
2649,B-4,413.0,0.5,64,167.5
2650,B-2,413.0,0.5,60,167.5
2651,B-1,413.0,0.5,60,167.5
2652,G4,413.5,0.5,62,167.5
2653,G3,413.5,0.5,62,167.5
2654,G2,413.5,0.5,55,167.5
2655,G1,413.5,0.5,55,167.5
2656,E-3,414.0,1.0,87,167.5
2657,E-1,414.0,1.0,64,167.5
2658,E-2,414.0,1.0,64,167.5
2659,D3,415.0,0.5,87,167.5
2660,D2,415.0,0.5,64,167.5
2661,D1,415.0,0.5,64,167.5
2662,B3,416.0,1.5,80,167.5
2663,B4,416.0,1.5,80,167.5
2664,B1,416.0,1.5,64,167.5
2665,B2,416.0,1.5,64,167.5
2666,G#5,417.0,0.5,76,167.5
2667,G#6,417.0,0.5,76,167.5
2668,G#4,417.0,0.5,66,167.5
2669,G#3,417.0,0.5,66,167.5
2670,G6,418.0,0.25,76,167.5
2671,G7,418.25,0.25,72,167.5
2672,D6,418.5,0.25,69,167.5
2673,D7,418.75,0.25,65,167.5
2674,E-6,419.0,0.25,73,167.5
2675,E-7,419.25,0.25,69,167.5
2676,B5,419.5,0.25,70,167.5
2677,B6,419.75,0.25,66,167.5
2678,C6,420.0,0.25,73,167.5
2679,C7,420.25,0.25,69,167.5
2680,G5,420.5,0.25,69,167.5
2681,G6,420.75,0.25,65,167.5
2682,G#5,421.0,0.25,72,167.5
2683,G#6,421.25,0.25,69,167.5
2684,D5,421.5,0.25,70,167.5
2685,D6,421.75,0.25,65,167.5
2686,E-5,422.0,0.25,76,167.5
2687,E-6,422.25,0.25,72,167.5
2688,B4,422.5,0.25,66,167.5
2689,B5,422.75,0.25,65,167.5
2690,C5,423.0,0.25,72,167.5
2691,C6,423.25,0.25,69,167.5
2692,G4,423.5,0.25,66,167.5
2693,G5,423.75,0.25,65,167.5
2694,G#4,424.0,0.25,72,167.5
2695,G#5,424.25,0.25,68,167.5
2696,D4,424.5,0.25,67,167.5
2697,D5,424.75,0.25,63,167.5
2698,E-4,425.0,0.25,72,167.5
2699,E-5,425.25,0.25,69,167.5
2700,B3,425.5,0.25,67,167.5
2701,B4,425.75,0.25,66,167.5
2702,C4,426.0,0.25,76,167.5
2703,C5,426.25,0.25,72,167.5
2704,G3,426.5,0.25,67,167.5
2705,G4,426.75,0.25,63,167.5
2706,G#3,427.0,0.25,73,167.5
2707,G#4,427.25,0.25,69,167.5
2708,D3,427.5,0.25,67,167.5
2709,D4,427.75,0.25,66,167.5
2710,E-3,428.0,0.25,73,167.5
2711,E-4,428.25,0.25,69,167.5
2712,B2,428.5,0.25,70,167.5
2713,B3,428.75,0.25,66,167.5
2714,C3,429.0,0.25,74,167.5
2715,C4,429.25,0.25,75,167.5
2716,G2,429.5,0.25,68,167.5
2717,G3,429.75,0.25,69,167.5
2718,G#2,430.0,0.25,72,167.5
2719,G#3,430.25,0.25,77,167.5
2720,D2,430.5,0.25,66,167.5
2721,D3,430.75,0.25,71,167.5
2722,E-2,431.0,0.25,71,167.5
2723,E-3,431.25,0.25,76,167.5
2724,B1,431.5,0.25,64,167.5
2725,B2,431.75,0.25,68,167.5
2726,C2,432.0,0.25,66,167.5
2727,C3,432.25,0.25,72,167.5
2728,G1,432.5,0.25,60,167.5
2729,G2,432.75,0.25,63,167.5
2730,G#1,433.0,0.25,67,167.5
2731,G#2,433.25,0.25,72,167.5
2732,G1,433.5,0.25,61,167.5
2733,G2,433.75,0.25,63,167.5
2734,G#1,434.0,0.25,66,167.5
2735,G#2,434.25,0.25,70,167.5
2736,G1,434.5,0.25,63,167.5
2737,G2,434.75,0.25,63,167.5
2738,B1,435.0,0.25,71,167.5
2739,B2,435.25,0.25,75,167.5
2740,G1,435.5,0.25,60,167.5
2741,G2,435.75,0.25,63,167.5
2742,G#1,436.0,0.25,67,167.5
2743,G#2,436.25,0.25,69,167.5
2744,G1,436.5,0.25,61,167.5
2745,G2,436.75,0.25,63,167.5
2746,B1,437.0,0.25,73,167.5
2747,B2,437.25,0.25,73,167.5
2748,G1,437.5,0.25,63,167.5
2749,G2,437.75,0.25,61,167.5
2750,G#1,438.0,0.25,72,167.5
2751,G#2,438.25,0.25,68,167.5
2752,G1,438.5,0.25,67,167.5
2753,G2,438.75,0.25,62,167.5
2754,G#1,439.0,0.25,70,167.5
2755,G#2,439.25,0.25,67,167.5
2756,B-1,439.5,0.25,66,167.5
2757,B-2,439.75,0.25,63,167.5
2758,B1,440.0,0.25,72,167.5
2759,B2,440.25,0.25,64,167.5
2760,D2,440.5,0.25,66,167.5
2761,D3,440.75,0.25,62,167.5
2762,E-2,441.0,0.25,69,167.5
2763,E-3,441.25,0.25,64,167.5
2764,F2,441.5,0.25,73,167.5
2765,F3,441.75,0.25,68,167.5
2766,G1,442.0,0.25,66,167.5
2767,G2,442.0,0.25,66,167.5
2768,G3,442.25,0.25,68,167.5
2769,G#2,442.5,0.25,62,167.5
2770,G#1,442.5,0.25,62,167.5
2771,G#3,442.75,0.25,64,167.5
2772,B-2,443.0,0.25,64,167.5
2773,B-1,443.0,0.25,64,167.5
2774,B-3,443.25,0.25,65,167.5
2775,B2,443.5,0.25,64,167.5
2776,B1,443.5,0.25,64,167.5
2777,B3,443.75,0.25,65,167.5
2778,D2,444.0,0.25,70,167.5
2779,D3,444.0,0.25,70,167.5
2780,D4,444.25,0.25,76,167.5
2781,E-2,444.5,0.25,64,167.5
2782,E-3,444.5,0.25,64,167.5
2783,E-4,444.75,0.25,69,167.5
2784,F2,445.0,0.25,64,167.5
2785,F3,445.0,0.25,64,167.5
2786,F4,445.25,0.25,69,167.5
2787,G3,445.5,0.25,64,167.5
2788,G2,445.5,0.25,64,167.5
2789,G4,445.75,0.25,69,167.5
2790,G#2,446.0,0.25,70,167.5
2791,G#3,446.0,0.25,70,167.5
2792,G#4,446.25,0.25,76,167.5
2793,B-3,446.5,0.25,64,167.5
2794,B-2,446.5,0.25,64,167.5
2795,B-4,446.75,0.25,70,167.5
2796,B2,447.0,0.25,64,167.5
2797,B3,447.0,0.25,64,167.5
2798,B4,447.25,0.25,70,167.5
2799,D4,447.5,0.25,64,167.5
2800,D3,447.5,0.25,64,167.5
2801,D5,447.75,0.25,72,167.5
2802,E-3,448.0,0.25,72,167.5
2803,E-4,448.0,0.25,72,167.5
2804,E-5,448.25,0.25,78,167.5
2805,F3,448.5,0.25,66,167.5
2806,F4,448.5,0.25,66,167.5
2807,F5,448.75,0.25,72,167.5
2808,G3,449.0,0.25,66,167.5
2809,G4,449.0,0.25,66,167.5
2810,G5,449.25,0.25,72,167.5
2811,G#4,449.5,0.25,66,167.5
2812,G#3,449.5,0.25,66,167.5
2813,G#5,449.75,0.25,72,167.5
2814,B4,450.0,0.25,74,167.5
2815,B3,450.0,0.25,74,167.5
2816,B5,450.25,0.25,80,167.5
2817,D4,450.5,0.25,72,167.5
2818,D5,450.75,0.25,67,167.5
2819,D6,450.75,0.25,67,167.5
2820,E-4,451.0,0.25,72,167.5
2821,E-6,451.25,0.25,67,167.5
2822,E-5,451.25,0.25,67,167.5
2823,F4,451.5,0.25,72,167.5
2824,F6,451.75,0.25,68,167.5
2825,F5,451.75,0.25,68,167.5
2826,G4,452.0,0.25,81,167.5
2827,G5,452.25,0.25,68,167.5
2828,G6,452.25,0.25,68,167.5
2829,G#4,452.5,0.25,74,167.5
2830,G#6,452.75,0.25,66,167.5
2831,G#5,452.75,0.25,66,167.5
2832,B-4,453.0,0.25,74,167.5
2833,B-6,453.25,0.25,66,167.5
2834,B-5,453.25,0.25,66,167.5
2835,B4,453.5,0.25,74,167.5
2836,B5,453.75,0.25,67,167.5
2837,B6,453.75,0.25,67,167.5
2838,D5,454.0,0.25,81,167.5
2839,D7,454.25,0.25,73,167.5
2840,D6,454.25,0.25,73,167.5
2841,E-5,454.5,0.25,75,167.5
2842,E-7,454.75,0.25,67,167.5
2843,E-6,454.75,0.25,67,167.5
2844,F5,455.0,0.25,76,167.5
2845,F6,455.25,0.25,68,167.5
2846,F7,455.25,0.25,68,167.5
2847,G5,455.5,0.25,77,167.5
2848,G6,455.75,0.25,68,167.5
2849,G7,455.75,0.25,68,167.5
2850,E-5,456.0,0.25,85,167.5
2851,E-7,456.25,0.25,70,167.5
2852,E-6,456.25,0.25,70,167.5
2853,F5,456.5,0.25,75,167.5
2854,F7,456.75,0.25,64,167.5
2855,F6,456.75,0.25,64,167.5
2856,B4,457.0,0.25,81,167.5
2857,B6,457.25,0.25,68,167.5
2858,B5,457.25,0.25,68,167.5
2859,D5,457.5,0.25,74,167.5
2860,D6,457.75,0.25,64,167.5
2861,D7,457.75,0.25,64,167.5
2862,E-5,458.0,0.25,83,167.5
2863,E-6,458.25,0.25,71,167.5
2864,E-7,458.25,0.25,71,167.5
2865,F5,458.5,0.25,74,167.5
2866,F7,458.75,0.25,64,167.5
2867,F6,458.75,0.25,64,167.5
2868,B4,459.0,0.25,79,167.5
2869,B5,459.25,0.25,68,167.5
2870,B6,459.25,0.25,68,167.5
2871,D5,459.5,0.25,75,167.5
2872,D7,459.75,0.25,64,167.5
2873,D6,459.75,0.25,64,167.5
2874,E-4,460.0,0.25,76,167.5
2875,E-5,460.0,0.25,76,167.5
2876,E-7,460.25,0.25,68,167.5
2877,E-6,460.25,0.25,68,167.5
2878,F5,460.5,0.25,71,167.5
2879,F4,460.5,0.25,71,167.5
2880,F6,460.75,0.25,66,167.5
2881,F7,460.75,0.25,66,167.5
2882,F4,461.0,0.25,60,167.5
2883,F3,461.0,0.25,60,167.5
2884,F6,461.25,0.25,60,167.5
2885,F5,461.25,0.25,60,167.5
2886,F#3,461.5,0.25,58,167.5
2887,F#4,461.5,0.25,58,167.5
2888,F#6,461.75,0.25,58,167.5
2889,F#5,461.75,0.25,58,167.5
2890,G3,462.0,0.25,62,167.5
2891,G4,462.0,0.25,62,167.5
2892,G5,462.25,0.25,60,167.5
2893,G6,462.25,0.25,60,167.5
2894,G#3,462.5,0.25,65,167.5
2895,G#4,462.5,0.25,65,167.5
2896,G#6,462.75,0.25,60,167.5
2897,G#5,462.75,0.25,60,167.5
2898,A3,463.0,0.25,66,167.5
2899,A4,463.0,0.25,66,167.5
2900,A5,463.25,0.25,62,167.5
2901,A6,463.25,0.25,62,167.5
2902,B-4,463.5,0.25,67,167.5
2903,B-3,463.5,0.25,67,167.5
2904,B-6,463.75,0.25,62,167.5
2905,B-5,463.75,0.25,62,167.5
2906,B3,464.0,0.25,67,167.5
2907,B4,464.0,0.25,67,167.5
2908,B6,464.25,0.25,64,167.5
2909,B5,464.25,0.25,64,167.5
2910,C4,464.5,0.25,68,167.5
2911,C5,464.5,0.25,68,167.5
2912,C6,464.75,0.25,64,167.5
2913,C7,464.75,0.25,64,167.5
2914,C#5,465.0,0.25,69,167.5
2915,C#4,465.0,0.25,69,167.5
2916,C#7,465.25,0.25,64,167.5
2917,C#6,465.25,0.25,64,167.5
2918,D5,465.5,0.25,69,167.5
2919,D4,465.5,0.25,69,167.5
2920,D7,465.75,0.25,66,167.5
2921,D6,465.75,0.25,66,167.5
2922,E-4,466.0,0.25,70,167.5
2923,E-5,466.0,0.25,70,167.5
2924,E-6,466.25,0.25,66,167.5
2925,E-7,466.25,0.25,66,167.5
2926,F5,466.5,0.25,70,167.5
2927,F4,466.5,0.25,70,167.5
2928,F7,466.75,0.25,67,167.5
2929,F6,466.75,0.25,67,167.5
2930,F#4,467.0,0.25,71,167.5
2931,F#5,467.0,0.25,71,167.5
2932,F#7,467.25,0.25,68,167.5
2933,F#6,467.25,0.25,68,167.5
2934,G4,467.5,0.25,71,167.5
2935,G5,467.5,0.25,71,167.5
2936,G6,467.75,0.25,69,167.5
2937,G7,467.75,0.25,69,167.5
2938,G2,468.0,3.75,96,167.5
2939,E-4,468.25,3.5,82,167.5
2940,G4,468.25,3.5,82,167.5
2941,B-4,468.25,3.5,82,167.5
2942,E-5,468.25,3.5,82,167.5
2943,B-2,468.25,3.5,65,167.5
2944,E-3,468.25,3.5,65,167.5
2945,G3,468.25,3.5,65,167.5
2946,F2,471.75,0.25,87,167.5
2947,F2,472.0,3.75,87,167.5
2948,F4,472.0,3.75,78,167.5
2949,B-4,472.0,3.75,78,167.5
2950,D5,472.0,3.75,78,167.5
2951,F5,472.0,3.75,78,167.5
2952,B-2,472.0,3.75,61,167.5
2953,D3,472.0,3.75,61,167.5
2954,F3,472.0,3.75,61,167.5
2955,E-2,475.75,0.25,87,167.5
2956,E-2,476.0,2.0,87,167.5
2957,G4,476.0,1.75,82,167.5
2958,B-4,476.0,1.75,82,167.5
2959,E-5,476.0,1.75,82,167.5
2960,G5,476.0,1.75,82,167.5
2961,G2,476.0,2.0,65,167.5
2962,B-2,476.0,2.0,65,167.5
2963,E-3,476.0,2.0,65,167.5
2964,C2,477.75,2.0,81,167.5
2965,E-4,478.0,1.0,79,167.5
2966,G4,478.0,1.0,79,167.5
2967,C5,478.0,1.0,79,167.5
2968,E-5,478.0,1.0,79,167.5
2969,E-2,478.0,1.75,61,167.5
2970,G2,478.0,1.75,61,167.5
2971,C3,478.0,1.75,61,167.5
2972,G4,479.0,0.75,79,167.5
2973,G5,479.0,0.75,79,167.5
2974,D2,479.75,0.25,82,167.5
2975,D2,480.0,2.0,82,167.5
2976,F4,480.0,2.0,76,167.5
2977,B-4,480.0,2.0,76,167.5
2978,D5,480.0,2.0,76,167.5
2979,F5,480.0,2.0,76,167.5
2980,F2,480.0,2.0,58,167.5
2981,B-2,480.0,2.0,58,167.5
2982,D3,480.0,2.0,58,167.5
2983,B-2,482.0,1.75,66,167.5
2984,B-3,482.0,1.75,71,167.5
2985,B-4,482.0,1.75,71,167.5
2986,E-2,483.75,0.25,87,167.5
2987,E-2,484.0,2.0,87,167.5
2988,G4,484.0,1.0,79,167.5
2989,B-4,484.0,1.0,79,167.5
2990,G5,484.0,1.0,79,167.5
2991,E-5,484.0,1.0,79,167.5
2992,B-2,484.0,2.0,62,167.5
2993,E-3,484.0,2.0,62,167.5
2994,B-4,485.0,1.0,80,167.5
2995,B-5,485.0,1.0,80,167.5
2996,B-4,486.0,2.0,85,167.5
2997,B-2,486.0,2.0,72,167.5
2998,F4,486.0,1.0,78,167.5
2999,F5,486.0,1.0,78,167.5
3000,D2,486.0,1.0,67,167.5
3001,D3,486.0,1.0,67,167.5
3002,E-4,487.0,1.0,76,167.5
3003,E-5,487.0,1.0,76,167.5
3004,C2,487.0,1.0,67,167.5
3005,C3,487.0,1.0,67,167.5
3006,D4,488.0,2.0,78,167.5
3007,B-4,488.0,2.0,78,167.5
3008,D5,488.0,2.0,78,167.5
3009,B-1,488.0,2.0,58,167.5
3010,F2,488.0,2.0,58,167.5
3011,B-2,488.0,2.0,58,167.5
3012,B-3,490.0,1.75,64,167.5
3013,G4,490.0,1.75,64,167.5
3014,B-4,490.0,1.75,64,167.5
3015,G1,490.0,1.75,46,167.5
3016,E-2,490.0,1.75,46,167.5
3017,G2,490.0,1.75,46,167.5
3018,E-2,491.75,0.25,87,167.5
3019,E-2,492.0,2.0,87,167.5
3020,G4,492.0,1.0,79,167.5
3021,B-4,492.0,1.0,79,167.5
3022,G5,492.0,1.0,79,167.5
3023,E-5,492.0,1.0,79,167.5
3024,B-2,492.0,2.0,62,167.5
3025,E-3,492.0,2.0,62,167.5
3026,B-4,493.0,1.0,74,167.5
3027,B-5,493.0,1.0,74,167.5
3028,B-4,494.0,2.0,69,167.5
3029,B-2,494.0,2.0,72,167.5
3030,F4,494.0,1.0,83,167.5
3031,F5,494.0,1.0,83,167.5
3032,D2,494.0,1.0,67,167.5
3033,D3,494.0,1.0,67,167.5
3034,E-4,495.0,1.0,81,167.5
3035,E-5,495.0,1.0,81,167.5
3036,C2,495.0,1.0,67,167.5
3037,C3,495.0,1.0,67,167.5
3038,D4,496.0,2.0,72,167.5
3039,B-4,496.0,2.0,72,167.5
3040,D5,496.0,2.0,72,167.5
3041,B-1,496.0,2.0,58,167.5
3042,F2,496.0,2.0,58,167.5
3043,B-2,496.0,2.0,58,167.5
3044,B-3,498.0,2.0,65,167.5
3045,G4,498.0,2.0,65,167.5
3046,B-4,498.0,2.0,65,167.5
3047,G1,498.0,2.0,46,167.5
3048,E-2,498.0,2.0,46,167.5
3049,G2,498.0,2.0,46,167.5
3050,G2,500.0,3.75,86,167.5
3051,E-4,500.25,3.5,82,167.5
3052,G4,500.25,3.5,82,167.5
3053,B-4,500.25,3.5,82,167.5
3054,E-5,500.25,3.5,82,167.5
3055,B-2,500.25,3.5,65,167.5
3056,E-3,500.25,3.5,65,167.5
3057,G3,500.25,3.5,65,167.5
3058,F2,503.75,0.25,87,167.5
3059,F2,504.0,3.75,87,167.5
3060,F4,504.0,3.75,82,167.5
3061,B-4,504.0,3.75,82,167.5
3062,D5,504.0,3.75,82,167.5
3063,F5,504.0,3.75,82,167.5
3064,B-2,504.0,3.75,61,167.5
3065,D3,504.0,3.75,61,167.5
3066,F3,504.0,3.75,61,167.5
3067,E-2,507.75,0.25,87,167.5
3068,E-2,508.0,2.0,87,167.5
3069,G4,508.0,1.75,82,167.5
3070,B-4,508.0,1.75,82,167.5
3071,E-5,508.0,1.75,82,167.5
3072,G5,508.0,1.75,82,167.5
3073,G2,508.0,2.0,65,167.5
3074,B-2,508.0,2.0,65,167.5
3075,E-3,508.0,2.0,65,167.5
3076,C2,509.75,2.0,81,167.5
3077,E-4,510.0,1.0,79,167.5
3078,G4,510.0,1.0,79,167.5
3079,C5,510.0,1.0,79,167.5
3080,E-5,510.0,1.0,79,167.5
3081,E-2,510.0,1.75,61,167.5
3082,G2,510.0,1.75,61,167.5
3083,C3,510.0,1.75,61,167.5
3084,G4,511.0,0.75,72,167.5
3085,G5,511.0,0.75,72,167.5
3086,D2,511.75,0.25,82,167.5
3087,D2,512.0,2.0,82,167.5
3088,F4,512.0,2.0,76,167.5
3089,B-4,512.0,2.0,76,167.5
3090,D5,512.0,2.0,76,167.5
3091,F5,512.0,2.0,76,167.5
3092,F2,512.0,2.0,54,167.5
3093,B-2,512.0,2.0,54,167.5
3094,D3,512.0,2.0,54,167.5
3095,B-2,514.0,2.0,70,167.5
3096,B-3,514.0,2.0,69,167.5
3097,B-4,514.0,2.0,69,167.5
3098,G#5,516.0,2.0,73,167.5
3099,G#3,516.0,2.0,63,167.5
3100,E-6,516.0,1.0,68,167.5
3101,E-5,516.0,1.0,68,167.5
3102,C4,516.0,1.0,57,167.5
3103,C3,516.0,1.0,57,167.5
3104,E-6,517.0,1.0,64,167.5
3105,E-5,517.0,1.0,64,167.5
3106,C4,517.0,1.0,54,167.5
3107,C3,517.0,1.0,54,167.5
3108,G#5,518.0,2.0,73,167.5
3109,E-3,518.0,2.0,63,167.5
3110,D6,518.0,1.0,60,167.5
3111,D5,518.0,1.0,60,167.5
3112,B-3,518.0,1.0,50,167.5
3113,B-2,518.0,1.0,50,167.5
3114,B-5,519.0,1.0,58,167.5
3115,B-4,519.0,1.0,58,167.5
3116,G3,519.0,1.0,48,167.5
3117,G2,519.0,1.0,48,167.5
3118,E-5,520.0,4.0,68,167.5
3119,E-3,520.0,4.0,51,167.5
3120,C5,520.0,1.0,62,167.5
3121,C6,520.0,1.0,62,167.5
3122,G#2,520.0,1.0,56,167.5
3123,G#3,520.0,1.0,56,167.5
3124,C6,521.0,1.0,56,167.5
3125,C5,521.0,1.0,56,167.5
3126,G#3,521.0,1.0,45,167.5
3127,G#2,521.0,1.0,45,167.5
3128,G#5,522.0,1.0,59,167.5
3129,G#4,522.0,1.0,59,167.5
3130,F3,522.0,1.0,47,167.5
3131,F2,522.0,1.0,47,167.5
3132,C5,523.0,1.0,58,167.5
3133,C6,523.0,1.0,58,167.5
3134,G#2,523.0,1.0,45,167.5
3135,G#3,523.0,1.0,45,167.5
3136,E-5,524.0,3.0,66,167.5
3137,E-3,524.0,3.0,56,167.5
3138,B-4,524.0,2.0,70,167.5
3139,B-5,524.0,2.0,70,167.5
3140,G2,524.0,2.0,60,167.5
3141,G3,524.0,2.0,60,167.5
3142,G#4,526.0,1.0,68,167.5
3143,G#5,526.0,1.0,68,167.5
3144,F2,526.0,1.0,55,167.5
3145,F3,526.0,1.0,55,167.5
3146,G4,527.0,1.0,74,167.5
3147,G5,527.0,1.0,74,167.5
3148,E-2,527.0,1.0,56,167.5
3149,E-3,527.0,1.0,56,167.5
3150,F4,528.0,4.0,76,167.5
3151,G#4,528.0,4.0,76,167.5
3152,C5,528.0,4.0,76,167.5
3153,F5,528.0,4.0,76,167.5
3154,F3,528.0,4.0,55,167.5
3155,G#3,528.0,4.0,55,167.5
3156,C4,528.0,4.0,55,167.5
3157,B-4,532.0,2.0,76,167.5
3158,D5,532.0,2.0,76,167.5
3159,F5,532.0,2.0,76,167.5
3160,B-5,532.0,2.0,76,167.5
3161,D3,532.0,2.0,58,167.5
3162,F3,532.0,2.0,58,167.5
3163,D4,532.0,2.0,58,167.5
3164,B-3,532.0,2.0,58,167.5
3165,C6,534.0,2.0,74,167.5
3166,G5,534.0,2.0,74,167.5
3167,E-5,534.0,2.0,74,167.5
3168,C5,534.0,2.0,74,167.5
3169,E-4,534.0,1.75,52,167.5
3170,G3,534.0,1.75,52,167.5
3171,C3,534.0,1.75,52,167.5
3172,G#1,535.75,0.25,72,167.5
3173,E-5,536.0,1.0,76,167.5
3174,E-4,536.0,1.0,76,167.5
3175,C4,536.0,1.0,62,167.5
3176,C3,536.0,1.0,62,167.5
3177,E-5,537.0,1.0,70,167.5
3178,E-4,537.0,1.0,70,167.5
3179,C4,537.0,1.0,57,167.5
3180,C3,537.0,1.0,57,167.5
3181,G#4,538.0,2.0,66,167.5
3182,E-3,538.0,2.0,45,167.5
3183,D5,538.0,1.0,70,167.5
3184,D4,538.0,1.0,70,167.5
3185,B-3,538.0,1.0,55,167.5
3186,B-2,538.0,1.0,55,167.5
3187,C5,539.0,1.0,69,167.5
3188,C4,539.0,1.0,69,167.5
3189,G#3,539.0,1.0,52,167.5
3190,G#2,539.0,1.0,52,167.5
3191,E-4,540.0,3.0,69,167.5
3192,E-3,540.0,3.0,54,167.5
3193,B-3,540.0,2.0,76,167.5
3194,B-4,540.0,2.0,76,167.5
3195,G2,540.0,2.0,58,167.5
3196,G3,540.0,2.0,58,167.5
3197,G#3,542.0,1.0,76,167.5
3198,G#4,542.0,1.0,76,167.5
3199,F2,542.0,1.0,58,167.5
3200,F3,542.0,1.0,58,167.5
3201,G3,543.0,1.0,74,167.5
3202,G4,543.0,1.0,74,167.5
3203,E-2,543.0,1.0,60,167.5
3204,E-3,543.0,1.0,60,167.5
3205,F3,544.0,4.0,77,167.5
3206,C4,544.0,4.0,77,167.5
3207,F4,544.0,4.0,77,167.5
3208,E-4,544.0,4.0,77,167.5
3209,G#2,544.0,4.0,62,167.5
3210,G#3,544.0,4.0,62,167.5
3211,B-3,548.0,4.0,80,167.5
3212,D4,548.0,4.0,80,167.5
3213,G4,548.0,4.0,80,167.5
3214,B-4,548.0,4.0,80,167.5
3215,G2,548.0,4.0,66,167.5
3216,G3,548.0,4.0,66,167.5
3217,E-3,552.0,3.75,100,167.5
3218,E-1,552.0,3.75,88,167.5
3219,E-2,552.0,3.75,88,167.5
3220,E-4,552.25,3.5,87,167.5
3221,G4,552.25,3.5,87,167.5
3222,B-4,552.25,3.5,87,167.5
3223,E-5,552.25,3.5,87,167.5
3224,G2,552.25,3.5,70,167.5
3225,B-2,552.25,3.5,70,167.5
3226,E-3,552.25,3.5,70,167.5
3227,G3,552.25,3.5,70,167.5
3228,E-3,555.75,0.25,90,167.5
3229,E-1,555.75,0.25,83,167.5
3230,E-2,555.75,0.25,83,167.5
3231,E-3,556.0,3.75,90,167.5
3232,F4,556.0,3.75,81,167.5
3233,B-4,556.0,3.75,81,167.5
3234,D5,556.0,3.75,81,167.5
3235,F5,556.0,3.75,81,167.5
3236,E-3,559.75,0.25,90,167.5
3237,F2,559.75,3.75,64,167.5
3238,B-2,559.75,3.75,64,167.5
3239,D3,559.75,3.75,64,167.5
3240,F3,559.75,3.75,64,167.5
3241,E-1,559.75,3.75,83,167.5
3242,E-2,559.75,3.75,83,167.5
3243,E-3,560.0,4.0,90,167.5
3244,G4,560.0,2.0,87,167.5
3245,B-4,560.0,2.0,87,167.5
3246,E-5,560.0,2.0,87,167.5
3247,G5,560.0,2.0,87,167.5
3248,E-4,562.0,1.0,82,167.5
3249,G4,562.0,1.0,82,167.5
3250,C5,562.0,1.0,82,167.5
3251,E-5,562.0,1.0,82,167.5
3252,G4,563.0,1.0,76,167.5
3253,G5,563.0,1.0,76,167.5
3254,F1,563.5,0.25,84,167.5
3255,F1,563.75,2.0,84,167.5
3256,E-2,563.75,2.0,70,167.5
3257,G2,563.75,2.0,70,167.5
3258,B-2,563.75,2.0,70,167.5
3259,E-3,563.75,2.0,70,167.5
3260,F4,564.0,2.0,78,167.5
3261,B-4,564.0,2.0,78,167.5
3262,D5,564.0,2.0,78,167.5
3263,F5,564.0,2.0,78,167.5
3264,C2,565.75,2.0,66,167.5
3265,E-2,565.75,2.0,66,167.5
3266,G2,565.75,2.0,66,167.5
3267,C3,565.75,2.0,66,167.5
3268,B-3,566.0,1.75,74,167.5
3269,B-4,566.0,1.75,74,167.5
3270,E-3,567.75,0.25,90,167.5
3271,D2,567.75,2.0,62,167.5
3272,F2,567.75,2.0,62,167.5
3273,B-2,567.75,2.0,62,167.5
3274,D3,567.75,2.0,62,167.5
3275,E-3,568.0,4.0,90,167.5
3276,G4,568.0,1.0,82,167.5
3277,B-4,568.0,1.0,82,167.5
3278,G5,568.0,1.0,82,167.5
3279,E-5,568.0,1.0,82,167.5
3280,B-4,569.0,1.0,76,167.5
3281,B-5,569.0,1.0,76,167.5
3282,B-1,569.75,1.75,68,167.5
3283,B-2,569.75,1.75,68,167.5
3284,B-4,570.0,2.0,89,167.5
3285,F4,570.0,1.0,81,167.5
3286,F5,570.0,1.0,81,167.5
3287,E-4,571.0,1.0,80,167.5
3288,E-5,571.0,1.0,80,167.5
3289,E-1,571.5,0.25,83,167.5
3290,E-2,571.5,0.25,83,167.5
3291,E-3,572.0,3.75,90,167.5
3292,D4,572.0,2.0,80,167.5
3293,B-4,572.0,2.0,80,167.5
3294,D5,572.0,2.0,80,167.5
3295,B-3,574.0,1.75,71,167.5
3296,G4,574.0,1.75,71,167.5
3297,B-4,574.0,1.75,71,167.5
3298,E-3,575.75,0.25,90,167.5
3299,E-3,576.0,8.0,90,167.5
3300,G4,576.0,1.0,86,167.5
3301,B-4,576.0,1.0,86,167.5
3302,G5,576.0,1.0,86,167.5
3303,E-5,576.0,1.0,86,167.5
3304,B-4,577.0,1.0,76,167.5
3305,B-5,577.0,1.0,76,167.5
3306,B-4,578.0,2.0,87,167.5
3307,F4,578.0,1.0,80,167.5
3308,F5,578.0,1.0,80,167.5
3309,E-4,579.0,1.0,77,167.5
3310,E-5,579.0,1.0,77,167.5
3311,G2,579.5,2.0,71,167.5
3312,G3,579.5,2.0,71,167.5
3313,B-2,579.5,2.0,71,167.5
3314,E-1,579.5,4.0,83,167.5
3315,E-2,579.5,4.0,83,167.5
3316,B-2,581.5,2.0,75,167.5
3317,D2,581.5,1.0,69,167.5
3318,D3,581.5,1.0,69,167.5
3319,C2,582.5,1.0,69,167.5
3320,C3,582.5,1.0,69,167.5
3321,B-1,583.5,2.0,58,167.5
3322,G2,583.5,2.0,58,167.5
3323,B-2,583.5,2.0,58,167.5
3324,E-1,583.5,3.75,83,167.5
3325,E-2,583.5,3.75,83,167.5
3326,D4,584.0,2.0,81,167.5
3327,B-4,584.0,2.0,81,167.5
3328,D5,584.0,2.0,81,167.5
3329,D2,585.5,1.75,51,167.5
3330,B-2,585.5,1.75,51,167.5
3331,D3,585.5,1.75,51,167.5
3332,B-3,586.0,2.0,70,167.5
3333,G4,586.0,2.0,70,167.5
3334,B-4,586.0,2.0,70,167.5
3335,E-1,587.25,0.25,78,167.5
3336,E-2,587.25,0.25,78,167.5
3337,B-2,587.5,2.0,71,167.5
3338,E-3,587.5,2.0,71,167.5
3339,E-1,587.5,8.0,78,167.5
3340,E-2,587.5,8.0,78,167.5
3341,B3,588.0,4.0,50,167.5
3342,E-4,588.0,4.0,50,167.5
3343,G#4,588.0,4.0,50,167.5
3344,B-2,589.5,2.0,75,167.5
3345,D2,589.5,1.0,69,167.5
3346,D3,589.5,1.0,69,167.5
3347,C2,590.5,1.0,69,167.5
3348,C3,590.5,1.0,69,167.5
3349,B3,592.0,2.0,49,167.5
3350,E-4,592.0,2.0,49,167.5
3351,B3,594.0,2.0,47,167.5
3352,E-4,594.0,2.0,47,167.5
3353,B-1,595.5,2.0,64,167.5
3354,G2,595.5,2.0,64,167.5
3355,B-2,595.5,2.0,64,167.5
3356,C#4,596.0,2.0,50,167.5
3357,E4,596.0,2.0,50,167.5
3358,D2,597.5,2.0,50,167.5
3359,B-2,597.5,2.0,50,167.5
3360,D3,597.5,2.0,50,167.5
3361,E-4,598.0,2.0,50,167.5
3362,F#4,598.0,2.0,50,167.5
3363,E-3,599.5,4.0,50,167.5
3364,G#2,599.5,4.0,50,167.5
3365,E4,600.0,4.0,53,167.5
3366,G#4,600.0,4.0,53,167.5
3367,G#2,603.5,2.0,42,167.5
3368,E-3,603.5,2.0,42,167.5
3369,E-4,604.0,4.0,50,167.5
3370,F#4,604.0,4.0,50,167.5
3371,B2,605.5,2.0,41,167.5
3372,G#3,605.5,2.0,41,167.5
3373,C#3,607.5,2.0,43,167.5
3374,G#3,607.5,2.0,43,167.5
3375,E4,608.0,2.0,51,167.5
3376,G#4,608.0,2.0,51,167.5
3377,B2,609.5,2.0,43,167.5
3378,B3,609.5,2.0,43,167.5
3379,F#4,610.0,2.0,52,167.5
3380,A4,610.0,2.0,52,167.5
3381,E3,611.5,4.0,45,167.5
3382,B3,611.5,4.0,45,167.5
3383,G#4,612.0,2.0,53,167.5
3384,B4,612.0,2.0,53,167.5
3385,G#4,614.0,2.0,50,167.5
3386,B4,614.0,2.0,50,167.5
3387,B3,615.5,4.0,43,167.5
3388,F#4,616.0,2.0,53,167.5
3389,A4,616.0,2.0,53,167.5
3390,G#4,618.0,2.0,54,167.5
3391,B4,618.0,2.0,54,167.5
3392,B3,619.5,2.0,43,167.5
3393,G#3,619.5,2.0,43,167.5
3394,A4,620.0,4.0,56,167.5
3395,C#5,620.0,4.0,56,167.5
3396,C#4,621.5,2.0,44,167.5
3397,F#3,621.5,2.0,44,167.5
3398,E3,623.5,2.0,46,167.5
3399,E4,623.5,2.0,46,167.5
3400,F#4,624.0,2.0,63,167.5
3401,D5,624.0,2.0,63,167.5
3402,E3,625.5,2.0,43,167.5
3403,E4,625.5,2.0,43,167.5
3404,A4,626.0,2.0,56,167.5
3405,C#5,626.0,2.0,56,167.5
3406,A3,627.5,2.0,45,167.5
3407,E4,627.5,2.0,45,167.5
3408,G#4,628.0,4.0,53,167.5
3409,B4,628.0,4.0,53,167.5
3410,E3,629.5,2.0,46,167.5
3411,E4,629.5,2.0,46,167.5
3412,E4,631.5,4.0,47,167.5
3413,A3,631.5,4.0,47,167.5
3414,E4,632.0,2.0,54,167.5
3415,C#5,632.0,2.0,54,167.5
3416,B4,634.0,2.0,52,167.5
3417,G#4,634.0,2.0,52,167.5
3418,D4,635.5,2.0,52,167.5
3419,B3,635.5,2.0,52,167.5
3420,C#4,636.0,2.0,51,167.5
3421,A4,636.0,2.0,51,167.5
3422,E4,637.5,2.0,49,167.5
3423,A3,637.5,2.0,49,167.5
3424,E4,638.0,2.0,49,167.5
3425,G#4,638.0,2.0,49,167.5
3426,E3,639.5,4.0,47,167.5
3427,E4,639.5,4.0,47,167.5
3428,E-4,640.0,4.0,52,167.5
3429,F#4,640.0,4.0,52,167.5
3430,A3,643.5,2.0,48,167.5
3431,C#4,643.5,2.0,48,167.5
3432,C#4,644.0,4.0,50,167.5
3433,E4,644.0,4.0,50,167.5
3434,E3,645.5,2.0,47,167.5
3435,B3,645.5,2.0,47,167.5
3436,A3,647.5,2.0,45,167.5
3437,F#3,647.5,2.0,45,167.5
3438,G#3,648.0,4.0,46,167.5
3439,E-4,648.0,4.0,46,167.5
3440,C#3,649.5,2.0,41,167.5
3441,G#3,649.5,2.0,41,167.5
3442,E-3,651.5,4.0,47,167.5
3443,F#3,651.5,4.0,47,167.5
3444,G#3,652.0,2.0,37,167.5
3445,E-4,652.0,2.0,37,167.5
3446,G#3,654.0,1.75,35,167.5
3447,E-4,654.0,1.75,35,167.5
3448,E3,655.5,4.0,43,167.5
3449,G#3,655.5,4.0,43,167.5
3450,G6,655.996,1/250,80,167.5
3451,G7,655.996,1/250,80,167.5
3452,G6,656.0,62/125,80,167.5
3453,G7,656.0,62/125,80,167.5
3454,F7,656.5,0.5,74,167.5
3455,F6,656.5,0.5,74,167.5
3456,E-6,656.998,0.5,80,167.5
3457,E-7,656.998,0.5,80,167.5
3458,D7,657.5,0.5,73,167.5
3459,D6,657.5,0.5,73,167.5
3460,C7,658.0,0.5,79,167.5
3461,C6,658.0,0.5,79,167.5
3462,B-5,658.5,0.5,73,167.5
3463,B-6,658.5,0.5,73,167.5
3464,G#6,659.0,0.5,79,167.5
3465,G#5,659.0,0.5,79,167.5
3466,G6,659.5,0.5,73,167.5
3467,G5,659.5,0.5,73,167.5
3468,E-3,659.5,4.0,39,167.5
3469,G#2,659.5,4.0,39,167.5
3470,F6,660.0,0.5,78,167.5
3471,F5,660.0,0.5,78,167.5
3472,E-6,660.5,0.5,72,167.5
3473,E-5,660.5,0.5,72,167.5
3474,D5,660.998,0.5,77,167.5
3475,D6,660.998,0.5,77,167.5
3476,C6,661.5,0.5,72,167.5
3477,C5,661.5,0.5,72,167.5
3478,B-5,662.0,0.5,77,167.5
3479,B-4,662.0,0.5,77,167.5
3480,G#5,662.5,0.5,72,167.5
3481,G#4,662.5,0.5,72,167.5
3482,G4,662.998,0.5,77,167.5
3483,G5,662.998,0.5,77,167.5
3484,F4,663.496,0.5,72,167.5
3485,F5,663.496,0.5,72,167.5
3486,G#2,663.5,2.0,36,167.5
3487,E-3,663.5,2.0,36,167.5
3488,E-4,663.996,1/250,75,167.5
3489,E-5,663.996,1/250,75,167.5
3490,E-4,664.0,62/125,75,167.5
3491,E-5,664.0,62/125,75,167.5
3492,D4,664.5,0.5,71,167.5
3493,D5,664.5,0.5,71,167.5
3494,C4,664.996,0.5,75,167.5
3495,C5,664.996,0.5,75,167.5
3496,B-3,665.496,0.5,69,167.5
3497,B-4,665.496,0.5,69,167.5
3498,G#2,665.5,1.75,34,167.5
3499,E-3,665.5,1.75,34,167.5
3500,G#4,666.0,0.5,74,167.5
3501,G#3,666.0,0.5,74,167.5
3502,G3,666.5,0.5,67,167.5
3503,G4,666.5,0.5,67,167.5
3504,F3,666.996,0.5,73,167.5
3505,F4,666.996,0.5,73,167.5
3506,E-2,667.25,0.25,81,167.5
3507,E-3,667.496,0.5,67,167.5
3508,E-4,667.496,0.5,67,167.5
3509,E-2,667.5,3.75,81,167.5
3510,G2,667.5,3.75,77,167.5
3511,B-2,667.5,3.75,77,167.5
3512,E-3,667.5,3.75,77,167.5
3513,D3,667.996,1/250,72,167.5
3514,D4,667.996,1/250,72,167.5
3515,D3,668.0,62/125,72,167.5
3516,D4,668.0,62/125,72,167.5
3517,C3,668.5,0.5,66,167.5
3518,C4,668.5,0.5,66,167.5
3519,B-3,669.0,0.5,72,167.5
3520,B-2,669.0,0.5,72,167.5
3521,G#3,669.5,0.5,64,167.5
3522,G#2,669.5,0.5,64,167.5
3523,G3,670.0,0.5,70,167.5
3524,G2,670.0,0.5,70,167.5
3525,F3,670.5,0.5,62,167.5
3526,F2,670.5,0.5,62,167.5
3527,E-2,670.996,0.5,70,167.5
3528,E-3,670.996,0.5,70,167.5
3529,F2,671.25,0.25,75,167.5
3530,F2,671.5,3.75,75,167.5
3531,D3,671.5,0.5,61,167.5
3532,D2,671.5,0.5,61,167.5
3533,B-2,671.5,3.75,75,167.5
3534,D3,671.5,3.75,75,167.5
3535,F3,671.5,3.75,75,167.5
3536,E-3,672.0,0.5,76,167.5
3537,F3,672.5,0.5,67,167.5
3538,G3,673.0,0.5,76,167.5
3539,G#3,673.5,0.5,68,167.5
3540,B-3,674.0,0.5,79,167.5
3541,C4,674.5,0.5,68,167.5
3542,D4,675.0,0.5,80,167.5
3543,G2,675.25,0.25,80,167.5
3544,E-4,675.5,0.5,69,167.5
3545,G2,675.5,1.75,80,167.5
3546,B-2,675.5,1.75,76,167.5
3547,E-3,675.5,1.75,76,167.5
3548,G3,675.5,1.75,76,167.5
3549,F3,676.0,0.5,68,167.5
3550,F4,676.0,0.5,68,167.5
3551,G3,676.5,0.5,64,167.5
3552,G4,676.5,0.5,64,167.5
3553,G#3,676.996,0.5,74,167.5
3554,G#4,676.996,0.5,74,167.5
3555,E-2,677.25,1.0,66,167.5
3556,B-4,677.5,0.5,66,167.5
3557,B-3,677.5,0.5,66,167.5
3558,B-2,677.5,0.75,74,167.5
3559,E-3,677.5,0.75,74,167.5
3560,C5,678.0,0.5,78,167.5
3561,C4,678.0,0.5,78,167.5
3562,G2,678.25,1.0,63,167.5
3563,D5,678.5,0.5,70,167.5
3564,D4,678.5,0.5,70,167.5
3565,B-2,678.5,0.75,72,167.5
3566,G3,678.5,0.75,72,167.5
3567,E-5,679.0,0.5,80,167.5
3568,E-4,679.0,0.5,80,167.5
3569,F2,679.25,0.25,63,167.5
3570,F4,679.498,0.5,72,167.5
3571,F5,679.498,0.5,72,167.5
3572,F2,679.5,1.75,63,167.5
3573,B-2,679.5,1.75,71,167.5
3574,F3,679.5,1.75,71,167.5
3575,G5,680.0,0.5,84,167.5
3576,G4,680.0,0.5,84,167.5
3577,G#5,680.5,0.5,75,167.5
3578,G#4,680.5,0.5,75,167.5
3579,B-5,681.0,0.5,86,167.5
3580,B-4,681.0,0.5,86,167.5
3581,B-1,681.25,2.25,54,167.5
3582,C6,681.5,0.5,76,167.5
3583,C5,681.5,0.5,76,167.5
3584,D2,681.5,2.0,65,167.5
3585,B-2,681.5,2.0,65,167.5
3586,D6,682.0,0.5,86,167.5
3587,D5,682.0,0.5,86,167.5
3588,E-5,682.496,0.5,75,167.5
3589,E-6,682.496,0.5,75,167.5
3590,F6,683.0,0.5,88,167.5
3591,F5,683.0,0.5,88,167.5
3592,G5,683.498,0.5,78,167.5
3593,G6,683.498,0.5,78,167.5
3594,G2,683.5,1.0,72,167.5
3595,B-2,683.5,1.0,72,167.5
3596,G3,683.5,1.0,72,167.5
3597,F6,684.0,0.5,88,167.5
3598,F5,684.0,0.5,88,167.5
3599,E-5,684.498,0.5,84,167.5
3600,E-6,684.498,0.5,84,167.5
3601,E-3,684.5,1.0,67,167.5
3602,B-2,684.5,1.0,67,167.5
3603,B-3,684.5,1.0,67,167.5
3604,D6,685.0,0.5,88,167.5
3605,D5,685.0,0.5,88,167.5
3606,B-2,685.5,1.75,65,167.5
3607,C6,685.5,0.5,83,167.5
3608,C5,685.5,0.5,83,167.5
3609,F2,685.5,1.0,73,167.5
3610,F3,685.5,1.0,73,167.5
3611,B-5,686.0,0.5,86,167.5
3612,B-4,686.0,0.5,86,167.5
3613,G#5,686.5,0.5,78,167.5
3614,G#4,686.5,0.5,78,167.5
3615,E-2,686.5,0.75,71,167.5
3616,E-3,686.5,0.75,71,167.5
3617,G5,687.0,0.5,86,167.5
3618,G4,687.0,0.5,86,167.5
3619,D2,687.25,0.25,63,167.5
3620,D2,687.5,1.75,63,167.5
3621,F5,687.5,0.5,78,167.5
3622,F4,687.5,0.5,78,167.5
3623,B-2,687.5,1.75,71,167.5
3624,D3,687.5,1.75,71,167.5
3625,E-4,688.0,4.0,88,167.5
3626,G4,688.0,4.0,88,167.5
3627,B-4,688.0,4.0,88,167.5
3628,E-5,688.0,4.0,88,167.5
3629,B-1,689.25,2.25,54,167.5
3630,G2,689.5,2.0,61,167.5
3631,B-2,689.5,2.0,61,167.5
3632,E-3,691.5,2.0,67,167.5
3633,G2,691.5,1.0,74,167.5
3634,G3,691.5,1.0,74,167.5
3635,F4,692.0,4.0,88,167.5
3636,B-4,692.0,4.0,88,167.5
3637,D5,692.0,4.0,88,167.5
3638,F5,692.0,4.0,88,167.5
3639,B-2,692.5,1.0,70,167.5
3640,B-3,692.5,1.0,70,167.5
3641,B-2,693.5,1.75,65,167.5
3642,F2,693.5,1.0,73,167.5
3643,F3,693.5,1.0,73,167.5
3644,E-2,694.5,0.75,71,167.5
3645,E-3,694.5,0.75,71,167.5
3646,D2,695.25,0.25,64,167.5
3647,D2,695.5,1.75,64,167.5
3648,B-2,695.5,1.75,71,167.5
3649,D3,695.5,1.75,71,167.5
3650,G4,696.0,2.0,88,167.5
3651,B-4,696.0,2.0,88,167.5
3652,E-5,696.0,2.0,88,167.5
3653,G5,696.0,2.0,88,167.5
3654,B-1,697.25,2.25,54,167.5
3655,G2,697.5,2.0,61,167.5
3656,B-2,697.5,2.0,61,167.5
3657,E-4,698.0,1.0,84,167.5
3658,G4,698.0,1.0,84,167.5
3659,C5,698.0,1.0,84,167.5
3660,E-5,698.0,1.0,84,167.5
3661,B-4,699.0,1.0,76,167.5
3662,E-5,699.0,1.0,76,167.5
3663,G4,699.0,1.0,76,167.5
3664,G5,699.0,1.0,76,167.5
3665,E-4,699.498,1/500,77,167.5
3666,E-5,699.498,1/500,77,167.5
3667,E-4,699.5,249/500,77,167.5
3668,E-5,699.5,249/500,77,167.5
3669,D4,699.998,0.5,72,167.5
3670,D5,699.998,0.5,72,167.5
3671,F4,700.0,2.0,81,167.5
3672,B-4,700.0,2.0,81,167.5
3673,D5,700.0,2.0,81,167.5
3674,F5,700.0,2.0,81,167.5
3675,C5,700.5,0.5,77,167.5
3676,C4,700.5,0.5,77,167.5
3677,B-3,700.996,0.5,70,167.5
3678,B-4,700.996,0.5,70,167.5
3679,G#3,701.5,0.5,77,167.5
3680,G#4,701.5,0.5,77,167.5
3681,G3,701.996,0.5,70,167.5
3682,G4,701.996,0.5,70,167.5
3683,B-3,702.0,2.0,76,167.5
3684,B-4,702.0,2.0,76,167.5
3685,F4,702.5,0.5,82,167.5
3686,F3,702.5,0.5,82,167.5
3687,E-3,702.996,0.5,69,167.5
3688,E-4,702.996,0.5,69,167.5
3689,D3,703.496,1/250,77,167.5
3690,D4,703.496,1/250,77,167.5
3691,D3,703.5,62/125,77,167.5
3692,D4,703.5,62/125,77,167.5
3693,C6,704.0,2.0,72,167.5
3694,G#5,704.0,2.0,72,167.5
3695,E-6,704.0,1.0,76,167.5
3696,E-5,704.0,1.0,76,167.5
3697,C4,704.0,0.5,68,167.5
3698,C3,704.0,0.5,68,167.5
3699,B-2,704.498,0.5,77,167.5
3700,B-3,704.498,0.5,77,167.5
3701,G#2,704.998,0.5,72,167.5
3702,G#3,704.998,0.5,72,167.5
3703,E-6,705.0,1.0,76,167.5
3704,E-5,705.0,1.0,76,167.5
3705,G3,705.5,0.5,77,167.5
3706,G2,705.5,0.5,77,167.5
3707,G5,706.0,2.0,72,167.5
3708,B-5,706.0,2.0,72,167.5
3709,D6,706.0,1.0,76,167.5
3710,D5,706.0,1.0,76,167.5
3711,F3,706.0,0.5,70,167.5
3712,F2,706.0,0.5,70,167.5
3713,E-3,706.5,0.5,77,167.5
3714,E-2,706.5,0.5,77,167.5
3715,B-5,707.0,1.0,72,167.5
3716,B-4,707.0,1.0,72,167.5
3717,D3,707.0,0.5,69,167.5
3718,D2,707.0,0.5,69,167.5
3719,C2,707.5,0.5,82,167.5
3720,C3,707.5,0.5,82,167.5
3721,B-1,707.998,0.5,68,167.5
3722,B-2,707.998,0.5,68,167.5
3723,G#5,708.0,3.0,79,167.5
3724,F5,708.0,4.0,70,167.5
3725,C5,708.0,1.0,74,167.5
3726,C6,708.0,1.0,74,167.5
3727,G#2,708.5,0.5,72,167.5
3728,G#1,708.5,0.5,72,167.5
3729,C6,709.0,1.0,72,167.5
3730,C5,709.0,1.0,72,167.5
3731,G1,709.0,0.5,64,167.5
3732,G2,709.0,0.5,64,167.5
3733,F1,709.5,0.5,70,167.5
3734,F2,709.5,0.5,70,167.5
3735,G#5,710.0,2.0,73,167.5
3736,G#4,710.0,1.0,67,167.5
3737,E-2,710.0,0.5,61,167.5
3738,E-1,710.0,0.5,61,167.5
3739,D2,710.5,0.5,69,167.5
3740,D1,710.5,0.5,69,167.5
3741,C1,710.996,0.5,60,167.5
3742,C2,710.996,0.5,60,167.5
3743,C5,711.0,1.0,67,167.5
3744,C6,711.0,1.0,67,167.5
3745,D2,711.5,0.5,62,167.5
3746,D1,711.5,0.5,62,167.5
3747,D5,712.0,2.0,80,167.5
3748,G5,712.0,2.0,80,167.5
3749,B-4,712.0,2.0,80,167.5
3750,B-5,712.0,2.0,80,167.5
3751,E-1,712.0,0.5,55,167.5
3752,E-2,712.0,0.5,55,167.5
3753,F2,712.5,0.5,63,167.5
3754,F1,712.5,0.5,63,167.5
3755,G2,713.0,0.5,58,167.5
3756,G1,713.0,0.5,58,167.5
3757,A2,713.5,0.5,64,167.5
3758,A1,713.5,0.5,64,167.5
3759,C5,714.0,2.0,70,167.5
3760,G#4,714.0,1.0,74,167.5
3761,G#5,714.0,1.0,74,167.5
3762,B-1,714.0,0.5,60,167.5
3763,B-2,714.0,0.5,60,167.5
3764,C2,714.496,0.5,66,167.5
3765,C3,714.496,0.5,66,167.5
3766,D2,714.998,0.5,62,167.5
3767,D3,714.998,0.5,62,167.5
3768,G4,715.0,1.0,80,167.5
3769,G5,715.0,1.0,80,167.5
3770,E-2,715.5,0.5,66,167.5
3771,E-3,715.5,0.5,66,167.5
3772,F4,716.0,4.0,82,167.5
3773,E-5,716.0,4.0,82,167.5
3774,C5,716.0,4.0,82,167.5
3775,F5,716.0,4.0,82,167.5
3776,F3,716.0,0.5,63,167.5
3777,F2,716.0,0.5,63,167.5
3778,G3,716.5,0.5,69,167.5
3779,G2,716.5,0.5,69,167.5
3780,G#3,717.0,0.5,63,167.5
3781,G#2,717.0,0.5,63,167.5
3782,B-3,717.5,0.5,72,167.5
3783,B-2,717.5,0.5,72,167.5
3784,C3,718.0,0.5,70,167.5
3785,C4,718.0,0.5,70,167.5
3786,D3,718.498,0.5,76,167.5
3787,D4,718.498,0.5,76,167.5
3788,B-3,719.0,0.5,72,167.5
3789,B-2,719.0,0.5,72,167.5
3790,G#2,719.5,0.5,76,167.5
3791,G#3,719.5,0.5,76,167.5
3792,G2,719.996,0.5,72,167.5
3793,G3,719.996,0.5,72,167.5
3794,B-4,720.0,1.5,87,167.5
3795,D5,720.0,1.5,87,167.5
3796,F5,720.0,1.5,87,167.5
3797,B-5,720.0,1.5,87,167.5
3798,F3,720.5,0.5,72,167.5
3799,F2,720.5,0.5,72,167.5
3800,E-3,721.0,0.5,68,167.5
3801,E-2,721.0,0.5,68,167.5
3802,D2,721.496,0.5,70,167.5
3803,D3,721.496,0.5,70,167.5
3804,C3,722.0,0.5,64,167.5
3805,C2,722.0,0.5,64,167.5
3806,B-1,722.496,0.5,69,167.5
3807,B-2,722.496,0.5,69,167.5
3808,G#2,723.0,0.5,59,167.5
3809,G#1,723.0,0.5,59,167.5
3810,G2,723.5,0.5,68,167.5
3811,G1,723.5,0.5,68,167.5
3812,F1,723.998,0.5,61,167.5
3813,F2,723.998,0.5,61,167.5
3814,F#4,724.0,4.0,67,167.5
3815,B-4,724.0,4.0,67,167.5
3816,E-1,724.5,0.5,68,167.5
3817,E-2,724.5,0.5,68,167.5
3818,D1,724.996,0.5,62,167.5
3819,D2,724.996,0.5,62,167.5
3820,E-2,725.5,0.5,68,167.5
3821,E-1,725.5,0.5,68,167.5
3822,E2,726.0,0.5,62,167.5
3823,E1,726.0,0.5,62,167.5
3824,F1,726.496,0.5,66,167.5
3825,F2,726.496,0.5,66,167.5
3826,G2,727.0,0.5,61,167.5
3827,G1,727.0,0.5,61,167.5
3828,G#2,727.5,0.5,63,167.5
3829,G#1,727.5,0.5,63,167.5
3830,F#4,728.0,2.0,65,167.5
3831,B-4,728.0,2.0,65,167.5
3832,B-2,728.0,0.5,60,167.5
3833,B-1,728.0,0.5,60,167.5
3834,C2,728.498,0.5,70,167.5
3835,C3,728.498,0.5,70,167.5
3836,D2,728.998,0.5,65,167.5
3837,D3,728.998,0.5,65,167.5
3838,E-3,729.5,0.5,68,167.5
3839,E-2,729.5,0.5,68,167.5
3840,F#4,730.0,2.0,63,167.5
3841,B-4,730.0,2.0,63,167.5
3842,F2,730.0,0.5,62,167.5
3843,F3,730.0,0.5,62,167.5
3844,G2,730.496,0.5,72,167.5
3845,G3,730.496,0.5,72,167.5
3846,G#3,731.0,0.5,64,167.5
3847,G#2,731.0,0.5,64,167.5
3848,B-3,731.5,0.5,74,167.5
3849,B-2,731.5,0.5,74,167.5
3850,G#4,732.0,2.0,66,167.5
3851,B4,732.0,2.0,66,167.5
3852,C3,732.0,0.5,68,167.5
3853,C4,732.0,0.5,68,167.5
3854,D3,732.498,0.5,76,167.5
3855,D4,732.498,0.5,76,167.5
3856,E-4,733.0,0.5,69,167.5
3857,E-3,733.0,0.5,69,167.5
3858,F4,733.5,0.5,78,167.5
3859,F3,733.5,0.5,78,167.5
3860,B-4,734.0,2.0,66,167.5
3861,C#5,734.0,2.0,66,167.5
3862,G4,734.0,0.5,72,167.5
3863,G3,734.0,0.5,72,167.5
3864,G#4,734.5,0.5,84,167.5
3865,G#3,734.5,0.5,84,167.5
3866,B-3,735.0,0.5,76,167.5
3867,B-4,735.0,0.5,76,167.5
3868,B-3,735.5,4.0,59,167.5
3869,E-3,735.5,4.0,59,167.5
3870,B4,736.0,4.0,66,167.5
3871,E-5,736.0,4.0,66,167.5
3872,E-3,739.5,2.0,54,167.5
3873,B-3,739.5,2.0,54,167.5
3874,B-4,740.0,4.0,66,167.5
3875,C#5,740.0,4.0,66,167.5
3876,F#3,741.5,2.0,52,167.5
3877,E-4,741.5,2.0,52,167.5
3878,G#3,743.5,2.0,54,167.5
3879,E-4,743.5,2.0,54,167.5
3880,B4,744.0,2.0,65,167.5
3881,E-5,744.0,2.0,65,167.5
3882,F#3,745.5,2.0,54,167.5
3883,F#4,745.5,2.0,54,167.5
3884,C#5,746.0,2.0,66,167.5
3885,E5,746.0,2.0,66,167.5
3886,B3,747.5,4.0,54,167.5
3887,F#4,747.5,4.0,54,167.5
3888,E-5,748.0,2.0,67,167.5
3889,F#5,748.0,2.0,67,167.5
3890,E-5,750.0,2.0,64,167.5
3891,F#5,750.0,2.0,64,167.5
3892,F#4,751.5,4.0,54,167.5
3893,C#5,752.0,2.0,67,167.5
3894,E5,752.0,2.0,67,167.5
3895,E-5,754.0,2.0,68,167.5
3896,F#5,754.0,2.0,68,167.5
3897,F#4,755.5,2.0,52,167.5
3898,E-4,755.5,2.0,52,167.5
3899,E5,756.0,4.0,71,167.5
3900,G#5,756.0,4.0,71,167.5
3901,G#4,757.5,2.0,54,167.5
3902,C#4,757.5,2.0,54,167.5
3903,B3,759.5,2.0,57,167.5
3904,B4,759.5,2.0,57,167.5
3905,C#5,760.0,2.0,75,167.5
3906,A5,760.0,2.0,75,167.5
3907,B3,761.5,2.0,52,167.5
3908,B4,761.5,2.0,52,167.5
3909,E5,762.0,2.0,67,167.5
3910,G#5,762.0,2.0,67,167.5
3911,E4,763.5,2.0,54,167.5
3912,B4,763.5,2.0,54,167.5
3913,E-5,764.0,4.0,64,167.5
3914,F#5,764.0,4.0,64,167.5
3915,B3,765.5,2.0,57,167.5
3916,B4,765.5,2.0,57,167.5
3917,B4,767.5,4.0,59,167.5
3918,E4,767.5,4.0,59,167.5
3919,B4,768.0,2.0,64,167.5
3920,G#5,768.0,2.0,64,167.5
3921,F#5,770.0,2.0,60,167.5
3922,E-5,770.0,2.0,60,167.5
3923,A4,771.5,2.0,63,167.5
3924,F#4,771.5,2.0,63,167.5
3925,G#4,772.0,2.0,57,167.5
3926,E5,772.0,2.0,57,167.5
3927,B4,773.5,2.0,59,167.5
3928,E4,773.5,2.0,59,167.5
3929,B4,774.0,2.0,54,167.5
3930,E-5,774.0,2.0,54,167.5
3931,B3,775.5,4.0,56,167.5
3932,B4,775.5,4.0,56,167.5
3933,B-4,776.0,4.0,57,167.5
3934,C#5,776.0,4.0,57,167.5
3935,E4,779.5,2.0,54,167.5
3936,G#4,779.5,2.0,54,167.5
3937,G#4,780.0,4.0,54,167.5
3938,B4,780.0,4.0,54,167.5
3939,B3,781.5,2.0,53,167.5
3940,F#4,781.5,2.0,53,167.5
3941,E4,783.5,2.0,50,167.5
3942,C#4,783.5,2.0,50,167.5
3943,E-4,784.0,4.0,48,167.5
3944,B-4,784.0,4.0,48,167.5
3945,G#3,785.5,2.0,45,167.5
3946,E-4,785.5,2.0,45,167.5
3947,B-3,787.5,4.0,51,167.5
3948,C#4,787.5,4.0,51,167.5
3949,E-4,788.0,2.0,39,167.5
3950,B-4,788.0,2.0,39,167.5
3951,E-4,790.0,2.0,35,167.5
3952,B-4,790.0,2.0,35,167.5
3953,B3,791.5,4.0,45,167.5
3954,E-4,791.5,4.0,45,167.5
3955,F3,792.0,4.0,85,167.5
3956,E-4,792.0,4.0,85,167.5
3957,B-3,795.5,4.0,41,167.5
3958,E-3,795.5,4.0,41,167.5
3959,E3,796.0,4.0,84,167.5
3960,E-4,796.0,4.0,84,167.5
3961,E-3,799.5,2.0,37,167.5
3962,B-3,799.5,2.0,37,167.5
3963,F3,800.0,4.0,85,167.5
3964,E-4,800.0,4.0,85,167.5
3965,E-3,801.5,2.0,34,167.5
3966,B-3,801.5,2.0,34,167.5
3967,B3,803.5,4.0,71,167.5
3968,E3,804.0,4.0,84,167.5
3969,E-4,804.0,4.0,84,167.5
3970,G#2,805.5,2.0,79,167.5
3971,G#3,807.5,4.0,71,167.5
3972,G#4,808.0,667/1000,84,167.5
3973,E-5,808.0,667/1000,84,167.5
3974,F5,808.0,667/1000,84,167.5
3975,F4,808.667,667/1000,60,167.5
3976,G#4,809.333,667/1000,50,167.5
3977,E-5,809.333,667/1000,50,167.5
3978,F5,809.333,667/1000,50,167.5
3979,B1,809.5,2.0,79,167.5
3980,F4,810.0,667/1000,62,167.5
3981,G#4,810.667,667/1000,48,167.5
3982,E-5,810.667,667/1000,48,167.5
3983,F5,810.667,667/1000,48,167.5
3984,F4,811.333,667/1000,54,167.5
3985,B3,811.5,4.0,71,167.5
3986,G#4,812.0,667/1000,77,167.5
3987,E-5,812.0,667/1000,77,167.5
3988,B4,812.0,667/1000,77,167.5
3989,E4,812.667,667/1000,60,167.5
3990,G#4,813.333,667/1000,48,167.5
3991,E-5,813.333,667/1000,48,167.5
3992,B4,813.333,667/1000,48,167.5
3993,G#2,813.5,2.0,77,167.5
3994,E4,814.0,667/1000,62,167.5
3995,G#4,814.667,667/1000,45,167.5
3996,E-5,814.667,667/1000,45,167.5
3997,B4,814.667,667/1000,45,167.5
3998,E4,815.333,667/1000,50,167.5
3999,G#3,815.5,4.0,71,167.5
4000,G#4,816.0,667/1000,79,167.5
4001,E-5,816.0,667/1000,79,167.5
4002,F5,816.0,667/1000,79,167.5
4003,F4,816.667,667/1000,60,167.5
4004,G#4,817.333,667/1000,48,167.5
4005,E-5,817.333,667/1000,48,167.5
4006,F5,817.333,667/1000,48,167.5
4007,B1,817.5,2.0,79,167.5
4008,F4,818.0,667/1000,63,167.5
4009,G#4,818.667,667/1000,47,167.5
4010,E-5,818.667,667/1000,47,167.5
4011,F5,818.667,667/1000,47,167.5
4012,F4,819.333,667/1000,54,167.5
4013,E-4,819.5,4.0,71,167.5
4014,B3,819.5,4.0,71,167.5
4015,F3,819.5,4.0,71,167.5
4016,G#4,820.0,667/1000,77,167.5
4017,E-5,820.0,667/1000,77,167.5
4018,B4,820.0,667/1000,77,167.5
4019,E4,820.667,667/1000,60,167.5
4020,G#4,821.333,667/1000,47,167.5
4021,E-5,821.333,667/1000,47,167.5
4022,B4,821.333,667/1000,47,167.5
4023,G#2,821.5,2.0,80,167.5
4024,E4,822.0,667/1000,62,167.5
4025,G#4,822.667,667/1000,45,167.5
4026,E-5,822.667,667/1000,45,167.5
4027,B4,822.667,667/1000,45,167.5
4028,E4,823.333,667/1000,51,167.5
4029,E3,823.5,4.0,71,167.5
4030,E-4,823.5,4.0,71,167.5
4031,G#3,823.5,4.0,71,167.5
4032,F7,824.0,0.5,77,167.5
4033,E-7,824.0,0.5,77,167.5
4034,F6,824.5,0.5,59,167.5
4035,E-6,825.0,0.5,63,167.5
4036,F6,825.0,0.5,63,167.5
4037,F5,825.5,0.5,57,167.5
4038,B1,825.5,2.0,71,167.5
4039,F6,826.0,0.5,64,167.5
4040,E-6,826.0,0.5,64,167.5
4041,F6,826.5,0.5,54,167.5
4042,E-7,827.0,0.5,69,167.5
4043,F7,827.0,0.5,69,167.5
4044,F6,827.5,0.5,64,167.5
4045,F3,827.5,4.0,71,167.5
4046,B3,827.5,4.0,71,167.5
4047,E-4,827.5,4.0,71,167.5
4048,B6,828.0,0.5,77,167.5
4049,E-7,828.0,0.5,77,167.5
4050,E6,828.5,0.5,57,167.5
4051,E-6,829.0,0.5,63,167.5
4052,B5,829.0,0.5,63,167.5
4053,E5,829.5,0.5,57,167.5
4054,G#2,829.5,2.0,84,167.5
4055,B5,830.0,0.5,65,167.5
4056,E-6,830.0,0.5,65,167.5
4057,E6,830.5,0.5,59,167.5
4058,E-7,831.0,0.5,71,167.5
4059,B6,831.0,0.5,71,167.5
4060,E6,831.5,0.5,63,167.5
4061,E3,831.5,4.0,71,167.5
4062,E-4,831.5,4.0,71,167.5
4063,G#3,831.5,4.0,71,167.5
4064,F7,832.0,0.5,80,167.5
4065,E-7,832.0,0.5,80,167.5
4066,F6,832.5,0.5,59,167.5
4067,E-6,833.0,0.5,66,167.5
4068,F6,833.0,0.5,66,167.5
4069,F5,833.5,0.5,59,167.5
4070,B1,833.5,2.0,73,167.5
4071,F6,834.0,0.5,65,167.5
4072,E-6,834.0,0.5,65,167.5
4073,F6,834.5,0.5,57,167.5
4074,E-7,835.0,0.5,70,167.5
4075,F7,835.0,0.5,70,167.5
4076,F6,835.5,0.5,63,167.5
4077,F3,835.5,4.0,71,167.5
4078,B3,835.5,4.0,71,167.5
4079,E-4,835.5,4.0,71,167.5
4080,B6,836.0,0.5,81,167.5
4081,E-7,836.0,0.5,81,167.5
4082,E6,836.5,0.5,60,167.5
4083,E-6,837.0,0.5,65,167.5
4084,B5,837.0,0.5,65,167.5
4085,E5,837.5,0.5,59,167.5
4086,G#2,837.5,2.0,82,167.5
4087,B5,838.0,0.5,65,167.5
4088,E-6,838.0,0.5,65,167.5
4089,E6,838.5,0.5,59,167.5
4090,E-7,839.0,0.5,72,167.5
4091,B6,839.0,0.5,72,167.5
4092,E6,839.5,0.5,64,167.5
4093,E3,839.5,4.0,71,167.5
4094,E-4,839.5,4.0,71,167.5
4095,G#3,839.5,4.0,71,167.5
4096,G#6,840.0,0.5,83,167.5
4097,C7,840.0,0.5,83,167.5
4098,E-7,840.0,0.5,83,167.5
4099,F6,840.5,0.5,63,167.5
4100,G#5,841.0,0.5,60,167.5
4101,E-6,841.0,0.5,60,167.5
4102,C6,841.0,0.5,60,167.5
4103,F5,841.5,0.5,62,167.5
4104,B1,841.5,2.0,75,167.5
4105,G#5,842.0,0.5,57,167.5
4106,C6,842.0,0.5,57,167.5
4107,E-6,842.0,0.5,57,167.5
4108,F6,842.5,0.5,60,167.5
4109,G#6,843.0,0.5,67,167.5
4110,E-7,843.0,0.5,67,167.5
4111,C7,843.0,0.5,67,167.5
4112,F6,843.5,0.5,64,167.5
4113,F3,843.5,4.0,72,167.5
4114,B3,843.5,4.0,72,167.5
4115,E-4,843.5,4.0,72,167.5
4116,G6,844.0,0.5,84,167.5
4117,B-6,844.0,0.5,84,167.5
4118,D7,844.0,0.5,84,167.5
4119,E-6,844.5,0.5,63,167.5
4120,G5,845.0,0.5,54,167.5
4121,D6,845.0,0.5,54,167.5
4122,B-5,845.0,0.5,54,167.5
4123,E-5,845.5,0.5,62,167.5
4124,G#2,845.5,2.0,82,167.5
4125,G5,846.0,0.5,56,167.5
4126,B-5,846.0,0.5,56,167.5
4127,D6,846.0,0.5,56,167.5
4128,E-6,846.5,0.5,62,167.5
4129,G6,847.0,0.5,71,167.5
4130,D7,847.0,0.5,71,167.5
4131,B-6,847.0,0.5,71,167.5
4132,E-6,847.5,0.5,65,167.5
4133,E3,847.5,4.0,73,167.5
4134,E-4,847.5,4.0,73,167.5
4135,G#3,847.5,4.0,73,167.5
4136,E-6,848.0,0.5,81,167.5
4137,B-6,848.0,0.5,81,167.5
4138,G#6,848.0,0.5,81,167.5
4139,B5,848.5,0.5,64,167.5
4140,E-5,849.0,0.5,68,167.5
4141,G#5,849.0,0.5,68,167.5
4142,B-5,849.0,0.5,68,167.5
4143,B4,849.5,0.5,63,167.5
4144,B1,849.5,2.0,75,167.5
4145,E-5,850.0,0.5,68,167.5
4146,B-5,850.0,0.5,68,167.5
4147,G#5,850.0,0.5,68,167.5
4148,B5,850.5,0.5,61,167.5
4149,E-6,851.0,0.5,73,167.5
4150,G#6,851.0,0.5,73,167.5
4151,B-6,851.0,0.5,73,167.5
4152,B5,851.5,0.5,64,167.5
4153,E-4,851.5,4.0,80,167.5
4154,D6,852.0,0.5,84,167.5
4155,G6,852.0,0.5,84,167.5
4156,B-5,852.5,0.5,65,167.5
4157,D5,853.0,0.5,69,167.5
4158,G5,853.0,0.5,69,167.5
4159,B-4,853.5,0.5,63,167.5
4160,B-1,853.5,2.0,77,167.5
4161,D5,854.0,0.5,72,167.5
4162,G5,854.0,0.5,72,167.5
4163,B-5,854.5,0.5,65,167.5
4164,D6,855.0,0.5,80,167.5
4165,G6,855.0,0.5,80,167.5
4166,B-5,855.5,0.5,69,167.5
4167,E-4,855.5,4.0,77,167.5
4168,G5,856.0,0.5,88,167.5
4169,C6,856.0,0.5,88,167.5
4170,E-5,856.5,0.5,66,167.5
4171,G4,857.0,0.5,68,167.5
4172,C5,857.0,0.5,68,167.5
4173,E-4,857.5,0.5,64,167.5
4174,B-1,857.5,2.0,76,167.5
4175,F5,858.0,0.5,73,167.5
4176,B-5,858.0,0.5,73,167.5
4177,D5,858.5,0.5,66,167.5
4178,F4,859.0,0.5,67,167.5
4179,B-4,859.0,0.5,67,167.5
4180,D4,859.5,0.5,70,167.5
4181,E-4,859.5,4.0,79,167.5
4182,G5,860.0,0.5,88,167.5
4183,C6,860.0,0.5,88,167.5
4184,E-5,860.5,0.5,66,167.5
4185,G4,861.0,0.5,71,167.5
4186,C5,861.0,0.5,71,167.5
4187,E-4,861.5,0.5,64,167.5
4188,B-1,861.5,2.0,77,167.5
4189,F6,862.0,0.5,69,167.5
4190,B-5,862.0,0.5,69,167.5
4191,D6,862.0,0.5,69,167.5
4192,F5,862.5,0.5,66,167.5
4193,D6,863.0,0.5,71,167.5
4194,F6,863.0,0.5,71,167.5
4195,B-6,863.0,0.5,71,167.5
4196,B-5,863.5,0.5,70,167.5
4197,E-4,863.5,4.0,81,167.5
4198,G6,864.0,0.5,76,167.5
4199,E-6,864.0,0.5,76,167.5
4200,C6,864.0,0.5,76,167.5
4201,B-5,864.5,0.5,66,167.5
4202,C5,865.0,0.5,65,167.5
4203,E-5,865.0,0.5,65,167.5
4204,G5,865.0,0.5,65,167.5
4205,B-4,865.5,0.5,64,167.5
4206,B-1,865.5,2.0,77,167.5
4207,F6,866.0,0.5,67,167.5
4208,B-5,866.0,0.5,67,167.5
4209,D6,866.0,0.5,67,167.5
4210,F5,866.5,0.5,66,167.5
4211,D6,867.0,0.5,72,167.5
4212,F6,867.0,0.5,72,167.5
4213,B-6,867.0,0.5,72,167.5
4214,B-5,867.5,0.5,70,167.5
4215,E-4,867.5,4.0,82,167.5
4216,G6,868.0,0.5,62,167.5
4217,E-6,868.0,0.5,62,167.5
4218,D6,868.0,0.5,62,167.5
4219,C6,868.5,0.5,66,167.5
4220,D5,869.0,0.5,64,167.5
4221,E-5,869.0,0.5,64,167.5
4222,G5,869.0,0.5,64,167.5
4223,C5,869.5,0.5,64,167.5
4224,B-1,869.5,2.0,80,167.5
4225,E-6,870.0,0.5,60,167.5
4226,C6,870.0,0.5,60,167.5
4227,B-5,870.0,0.5,60,167.5
4228,G5,870.5,0.5,62,167.5
4229,B-4,871.0,0.5,60,167.5
4230,C5,871.0,0.5,60,167.5
4231,E-5,871.0,0.5,60,167.5
4232,G4,871.5,0.5,64,167.5
4233,E-4,871.5,4.0,82,167.5
4234,F6,872.0,0.5,73,167.5
4235,E-6,872.0,0.5,73,167.5
4236,C6,872.0,0.5,73,167.5
4237,G#5,872.5,0.5,66,167.5
4238,C5,873.0,0.5,64,167.5
4239,E-5,873.0,0.5,64,167.5
4240,F5,873.0,0.5,64,167.5
4241,G#4,873.5,0.5,64,167.5
4242,B-1,873.5,2.0,79,167.5
4243,C6,874.0,0.5,73,167.5
4244,G#5,874.0,0.5,73,167.5
4245,F5,874.0,0.5,73,167.5
4246,E-5,874.5,0.5,66,167.5
4247,F4,875.0,0.5,64,167.5
4248,G#4,875.0,0.5,64,167.5
4249,C5,875.0,0.5,64,167.5
4250,E-4,875.5,0.5,64,167.5
4251,E-4,875.5,4.0,82,167.5
4252,B-4,876.0,0.5,62,167.5
4253,G#4,876.0,0.5,62,167.5
4254,F4,876.0,0.5,62,167.5
4255,D4,876.5,0.5,66,167.5
4256,G#4,877.0,0.5,56,167.5
4257,B-4,877.0,0.5,56,167.5
4258,D5,877.0,0.5,56,167.5
4259,F4,877.5,0.5,64,167.5
4260,B-1,877.5,2.0,80,167.5
4261,F5,878.0,0.5,61,167.5
4262,D5,878.0,0.5,61,167.5
4263,B-4,878.0,0.5,61,167.5
4264,G#4,878.5,0.5,66,167.5
4265,D5,879.0,0.5,64,167.5
4266,F5,879.0,0.5,64,167.5
4267,B-5,879.0,0.5,64,167.5
4268,B-4,879.5,0.5,72,167.5
4269,E-4,879.5,4.0,82,167.5
4270,G5,880.0,0.5,74,167.5
4271,C6,880.0,0.5,74,167.5
4272,E-5,880.5,0.5,66,167.5
4273,G4,881.0,0.5,66,167.5
4274,C5,881.0,0.5,66,167.5
4275,E-4,881.5,0.5,64,167.5
4276,B-1,881.5,2.0,80,167.5
4277,F6,882.0,0.5,58,167.5
4278,B-5,882.0,0.5,58,167.5
4279,D6,882.0,0.5,58,167.5
4280,F5,882.5,0.5,66,167.5
4281,D6,883.0,0.5,63,167.5
4282,F6,883.0,0.5,63,167.5
4283,B-6,883.0,0.5,63,167.5
4284,B-5,883.5,0.5,70,167.5
4285,E-4,883.5,4.0,82,167.5
4286,G6,884.0,0.5,68,167.5
4287,E-6,884.0,0.5,68,167.5
4288,C6,884.0,0.5,68,167.5
4289,B-5,884.5,0.5,66,167.5
4290,C5,885.0,0.5,65,167.5
4291,E-5,885.0,0.5,65,167.5
4292,G5,885.0,0.5,65,167.5
4293,B-4,885.5,0.5,64,167.5
4294,F6,886.0,0.5,58,167.5
4295,B-5,886.0,0.5,58,167.5
4296,D6,886.0,0.5,58,167.5
4297,F5,886.5,0.5,66,167.5
4298,D6,887.0,0.5,63,167.5
4299,F6,887.0,0.5,63,167.5
4300,B-6,887.0,0.5,63,167.5
4301,B-5,887.5,0.5,70,167.5
4302,B-1,887.5,4.0,85,167.5
4303,G#4,888.0,0.5,68,167.5
4304,C5,888.0,0.5,68,167.5
4305,G4,888.0,0.5,68,167.5
4306,F4,888.5,0.5,65,167.5
4307,B-4,889.0,0.5,65,167.5
4308,D5,889.0,0.5,65,167.5
4309,E-5,889.0,0.5,65,167.5
4310,G4,889.5,0.5,64,167.5
4311,F5,890.0,0.5,68,167.5
4312,E-5,890.0,0.5,68,167.5
4313,C5,890.0,0.5,68,167.5
4314,G#4,890.5,0.5,66,167.5
4315,D5,891.0,0.5,71,167.5
4316,F5,891.0,0.5,71,167.5
4317,G#5,891.0,0.5,71,167.5
4318,C5,891.5,0.5,71,167.5
4319,E-4,891.5,4.0,89,167.5
4320,E-5,892.0,0.5,78,167.5
4321,G5,892.0,0.5,78,167.5
4322,D5,892.0,0.5,78,167.5
4323,B4,892.5,0.5,66,167.5
4324,E-5,893.0,0.5,68,167.5
4325,G5,893.0,0.5,68,167.5
4326,G#5,893.0,0.5,68,167.5
4327,C5,893.5,0.5,64,167.5
4328,B-1,893.5,2.0,83,167.5
4329,C6,894.0,0.5,71,167.5
4330,G#5,894.0,0.5,71,167.5
4331,G5,894.0,0.5,71,167.5
4332,F5,894.5,0.5,66,167.5
4333,C6,895.0,0.5,71,167.5
4334,D6,895.0,0.5,71,167.5
4335,F6,895.0,0.5,71,167.5
4336,G#5,895.5,0.5,72,167.5
4337,E-4,895.5,4.0,89,167.5
4338,G#6,896.0,0.5,74,167.5
4339,E-6,896.0,0.5,74,167.5
4340,G#5,896.5,0.5,50,167.5
4341,B-6,896.5,0.5,50,167.5
4342,E-6,897.0,0.5,73,167.5
4343,G#6,897.0,0.5,73,167.5
4344,B-1,897.5,2.0,83,167.5
4345,G#5,897.5,0.5,50,167.5
4346,B-6,897.5,0.5,50,167.5
4347,G#6,898.0,0.5,74,167.5
4348,E-6,898.0,0.5,74,167.5
4349,G#5,898.5,0.5,50,167.5
4350,B-6,898.5,0.5,50,167.5
4351,E-6,899.0,0.5,72,167.5
4352,G#6,899.0,0.5,72,167.5
4353,E-4,899.5,2.0,87,167.5
4354,G#5,899.5,0.5,50,167.5
4355,B-6,899.5,0.5,50,167.5
4356,G#6,900.0,0.5,76,167.5
4357,E-6,900.0,0.5,76,167.5
4358,G#5,900.5,0.5,54,167.5
4359,B-6,900.5,0.5,54,167.5
4360,E-6,901.0,0.5,76,167.5
4361,G#6,901.0,0.5,76,167.5
4362,B-1,901.5,2.0,83,167.5
4363,G#5,901.5,0.5,52,167.5
4364,B-6,901.5,0.5,52,167.5
4365,G#6,902.0,0.5,79,167.5
4366,E-6,902.0,0.5,79,167.5
4367,G#5,902.5,0.5,54,167.5
4368,B-6,902.5,0.5,54,167.5
4369,E-6,903.0,0.5,74,167.5
4370,G#6,903.0,0.5,74,167.5
4371,E-4,903.5,2.0,90,167.5
4372,G#5,903.5,0.5,52,167.5
4373,B-6,903.5,0.5,52,167.5
4374,F6,904.0,0.5,80,167.5
4375,E-6,904.0,0.5,80,167.5
4376,G#5,904.5,0.5,54,167.5
4377,B-6,904.5,0.5,54,167.5
4378,E-6,905.0,0.5,79,167.5
4379,F6,905.0,0.5,79,167.5
4380,B-1,905.5,2.0,83,167.5
4381,G#5,905.5,0.5,54,167.5
4382,B-6,905.5,0.5,54,167.5
4383,F6,906.0,0.5,82,167.5
4384,E-6,906.0,0.5,82,167.5
4385,G#5,906.5,0.5,54,167.5
4386,B-6,906.5,0.5,54,167.5
4387,E-6,907.0,0.5,89,167.5
4388,F6,907.0,0.5,89,167.5
4389,G#5,907.5,0.5,54,167.5
4390,B-6,907.5,0.5,54,167.5
4391,B-3,907.5,3.5,65,167.5
4392,F4,907.5,3.5,65,167.5
4393,E-4,907.5,3.5,65,167.5
4394,B-4,907.5,3.5,65,167.5
4395,F6,908.0,0.5,83,167.5
4396,E-6,908.0,0.5,83,167.5
4397,G#5,908.5,0.5,58,167.5
4398,B-6,908.5,0.5,58,167.5
4399,E-6,909.0,0.5,82,167.5
4400,F6,909.0,0.5,82,167.5
4401,G#5,909.5,0.5,56,167.5
4402,B-6,909.5,0.5,56,167.5
4403,E-1,909.5,2.0,74,167.5
4404,E-2,909.5,2.0,74,167.5
4405,F6,910.0,0.5,85,167.5
4406,E-6,910.0,0.5,85,167.5
4407,G#5,910.5,0.5,58,167.5
4408,B-6,910.5,0.5,58,167.5
4409,E-6,911.0,0.5,81,167.5
4410,F6,911.0,0.5,81,167.5
4411,G#5,911.5,0.5,56,167.5
4412,B-6,911.5,0.5,56,167.5
4413,B-3,911.5,3.5,66,167.5
4414,E-4,911.5,3.5,66,167.5
4415,F4,911.5,3.5,66,167.5
4416,B-4,911.5,3.5,66,167.5
4417,G#7,912.0,0.25,85,167.5
4418,G7,912.25,0.25,80,167.5
4419,F7,912.5,0.25,85,167.5
4420,E-7,912.75,0.25,78,167.5
4421,D7,913.0,0.25,83,167.5
4422,C7,913.25,0.25,77,167.5
4423,B-6,913.5,0.25,83,167.5
4424,E-1,913.5,2.0,77,167.5
4425,E-2,913.5,2.0,77,167.5
4426,G#6,913.75,0.25,76,167.5
4427,G6,914.0,0.25,82,167.5
4428,F6,914.25,0.25,79,167.5
4429,E-6,914.5,0.25,81,167.5
4430,D6,914.75,0.25,76,167.5
4431,C6,915.0,0.25,81,167.5
4432,B-5,915.25,0.25,76,167.5
4433,G#5,915.5,0.25,80,167.5
4434,B-3,915.5,3.5,68,167.5
4435,E-4,915.5,3.5,68,167.5
4436,F4,915.5,3.5,68,167.5
4437,B-4,915.5,3.5,68,167.5
4438,G5,915.75,0.25,75,167.5
4439,F5,916.0,0.25,79,167.5
4440,E-5,916.25,0.25,73,167.5
4441,D5,916.5,0.25,79,167.5
4442,C5,916.75,0.25,75,167.5
4443,B-4,917.0,0.25,79,167.5
4444,G#4,917.25,0.25,73,167.5
4445,G4,917.5,0.25,79,167.5
4446,E-1,917.5,2.0,80,167.5
4447,E-2,917.5,2.0,80,167.5
4448,F4,917.75,0.25,72,167.5
4449,E-4,918.0,0.25,79,167.5
4450,D4,918.25,0.25,73,167.5
4451,C4,918.5,0.25,78,167.5
4452,B-3,918.75,0.25,73,167.5
4453,G#3,919.0,0.25,77,167.5
4454,G3,919.25,0.25,72,167.5
4455,F3,919.5,0.25,79,167.5
4456,B-3,919.5,3.5,70,167.5
4457,E-4,919.5,3.5,70,167.5
4458,F4,919.5,3.5,70,167.5
4459,B-4,919.5,3.5,70,167.5
4460,E-3,919.75,0.25,73,167.5
4461,D3,920.0,0.25,78,167.5
4462,C3,920.25,0.25,73,167.5
4463,B-2,920.5,0.25,79,167.5
4464,G#2,920.75,0.25,75,167.5
4465,G2,921.0,0.25,80,167.5
4466,F2,921.25,0.25,76,167.5
4467,E-2,921.5,0.25,82,167.5
4468,E-1,921.5,2.0,82,167.5
4469,E-2,921.5,2.0,82,167.5
4470,D2,921.75,0.25,76,167.5
4471,C2,922.0,0.25,83,167.5
4472,B-1,922.25,0.25,78,167.5
4473,G#1,922.5,0.25,85,167.5
4474,G1,922.75,0.25,78,167.5
4475,F1,923.0,0.25,86,167.5
4476,E-1,923.25,0.25,81,167.5
4477,G#6,923.496,1/250,68,167.5
4478,D1,923.5,0.25,87,167.5
4479,G#6,923.5,123/500,68,167.5
4480,C1,923.75,0.75,83,167.5
4481,G6,923.75,0.25,60,167.5
4482,F6,924.006,0.25,64,167.5
4483,E-6,924.246,0.25,59,167.5
4484,D6,924.502,0.25,63,167.5
4485,C6,924.752,0.25,57,167.5
4486,B-5,925.0,0.25,63,167.5
4487,E-6,925.0,33/50,93,167.5
4488,B-5,925.0,33/50,93,167.5
4489,G5,925.0,33/50,93,167.5
4490,E-5,925.0,33/50,93,167.5
4491,G#5,925.246,0.25,57,167.5
4492,G5,925.506,0.25,63,167.5
4493,E-4,925.667,33/50,72,167.5
4494,B-3,925.667,33/50,72,167.5
4495,F5,925.756,0.25,57,167.5
4496,E-5,926.002,0.25,63,167.5
4497,D5,926.25,0.25,56,167.5
4498,E-6,926.333,33/50,81,167.5
4499,B-5,926.333,33/50,81,167.5
4500,G5,926.333,33/50,81,167.5
4501,E-5,926.333,33/50,81,167.5
4502,C5,926.5,0.25,62,167.5
4503,B-4,926.75,0.25,54,167.5
4504,E-4,927.0,33/50,65,167.5
4505,B-3,927.0,33/50,65,167.5
4506,G#4,927.006,0.25,62,167.5
4507,G4,927.248,0.25,54,167.5
4508,F4,927.5,0.25,61,167.5
4509,E-6,927.667,33/50,82,167.5
4510,B-5,927.667,33/50,82,167.5
4511,G5,927.667,33/50,82,167.5
4512,E-5,927.667,33/50,82,167.5
4513,E-4,927.748,0.25,54,167.5
4514,D4,928.006,0.25,61,167.5
4515,C4,928.248,0.25,54,167.5
4516,E-4,928.333,33/50,64,167.5
4517,B-3,928.333,33/50,64,167.5
4518,B-3,928.504,0.25,61,167.5
4519,G#3,928.752,0.25,54,167.5
4520,G3,928.998,0.25,61,167.5
4521,F6,929.0,33/50,91,167.5
4522,D6,929.0,33/50,91,167.5
4523,B-5,929.0,33/50,91,167.5
4524,F5,929.0,33/50,91,167.5
4525,F3,929.254,0.25,54,167.5
4526,E-3,929.506,0.25,61,167.5
4527,F4,929.667,33/50,67,167.5
4528,D4,929.667,33/50,67,167.5
4529,D3,929.75,0.25,54,167.5
4530,C3,930.002,0.25,61,167.5
4531,B-2,930.256,0.25,54,167.5
4532,F6,930.333,33/50,80,167.5
4533,D6,930.333,33/50,80,167.5
4534,B-5,930.333,33/50,80,167.5
4535,F5,930.333,33/50,80,167.5
4536,G#2,930.496,0.25,57,167.5
4537,G2,930.756,0.25,53,167.5
4538,F4,931.0,33/50,65,167.5
4539,D4,931.0,33/50,65,167.5
4540,F2,931.002,0.25,59,167.5
4541,E-2,931.246,0.25,59,167.5
4542,D2,931.502,0.25,61,167.5
4543,F6,931.667,33/50,80,167.5
4544,D6,931.667,33/50,80,167.5
4545,B-5,931.667,33/50,80,167.5
4546,F5,931.667,33/50,80,167.5
4547,C2,931.752,0.25,54,167.5
4548,B-1,932.002,0.25,62,167.5
4549,G#1,932.248,0.25,57,167.5
4550,F4,932.333,33/50,64,167.5
4551,D4,932.333,33/50,64,167.5
4552,G1,932.506,0.25,63,167.5
4553,F1,932.746,0.25,54,167.5
4554,E-1,932.996,0.25,63,167.5
4555,G6,933.0,33/50,92,167.5
4556,E-6,933.0,33/50,92,167.5
4557,B-5,933.0,33/50,92,167.5
4558,G5,933.0,33/50,92,167.5
4559,D1,933.254,0.25,63,167.5
4560,C1,933.498,0.25,57,167.5
4561,G4,933.667,33/50,76,167.5
4562,E-5,933.667,33/50,76,167.5
4563,B-4,933.667,33/50,76,167.5
4564,G6,934.333,33/50,84,167.5
4565,E-6,934.333,33/50,84,167.5
4566,B-5,934.333,33/50,84,167.5
4567,G5,934.333,33/50,84,167.5
4568,E-6,935.0,33/50,84,167.5
4569,C6,935.0,33/50,84,167.5
4570,G5,935.0,33/50,84,167.5
4571,E-5,935.0,33/50,84,167.5
4572,C5,935.667,33/50,72,167.5
4573,G4,935.667,33/50,72,167.5
4574,E-4,935.667,33/50,72,167.5
4575,E-6,936.333,33/50,80,167.5
4576,C6,936.333,33/50,80,167.5
4577,G6,936.333,33/50,80,167.5
4578,G5,936.333,33/50,80,167.5
4579,G1,936.5,33/50,72,167.5
4580,B-1,936.5,33/50,72,167.5
4581,E-2,936.5,33/50,72,167.5
4582,G2,936.5,33/50,72,167.5
4583,F6,937.0,33/50,80,167.5
4584,D6,937.0,33/50,80,167.5
4585,B-5,937.0,33/50,80,167.5
4586,F5,937.0,33/50,80,167.5
4587,E-3,937.167,33/50,68,167.5
4588,G3,937.167,33/50,68,167.5
4589,B-3,937.667,327/500,79,167.5
4590,D4,937.667,327/500,79,167.5
4591,G1,937.833,33/50,76,167.5
4592,G2,937.833,33/50,76,167.5
4593,F4,938.333,327/500,81,167.5
4594,D4,938.333,327/500,81,167.5
4595,E-3,938.5,33/50,59,167.5
4596,G3,938.5,33/50,59,167.5
4597,F4,939.0,327/500,83,167.5
4598,B-4,939.0,327/500,83,167.5
4599,G1,939.167,33/50,72,167.5
4600,B-1,939.167,33/50,72,167.5
4601,E-2,939.167,33/50,72,167.5
4602,G2,939.167,33/50,72,167.5
4603,D5,939.667,327/500,87,167.5
4604,B-4,939.667,327/500,87,167.5
4605,E-3,939.833,33/50,60,167.5
4606,G3,939.833,33/50,60,167.5
4607,D5,940.333,327/500,90,167.5
4608,F5,940.333,327/500,90,167.5
4609,F1,940.5,33/50,67,167.5
4610,B-1,940.5,33/50,67,167.5
4611,D2,940.5,33/50,67,167.5
4612,F2,940.5,33/50,67,167.5
4613,G4,941.0,99/100,90,167.5
4614,E-5,941.0,99/100,90,167.5
4615,G5,941.0,99/100,90,167.5
4616,B-3,941.167,33/50,54,167.5
4617,D3,941.167,33/50,54,167.5
4618,F3,941.167,33/50,54,167.5
4619,F1,941.833,33/50,66,167.5
4620,F2,941.833,33/50,66,167.5
4621,B-4,942.0,99/100,85,167.5
4622,E-5,942.0,99/100,85,167.5
4623,B-5,942.0,99/100,85,167.5
4624,B-3,942.5,33/50,61,167.5
4625,D3,942.5,33/50,61,167.5
4626,F3,942.5,33/50,61,167.5
4627,F4,943.0,99/100,84,167.5
4628,B-4,943.0,99/100,84,167.5
4629,F5,943.0,99/100,84,167.5
4630,F1,943.167,33/50,64,167.5
4631,B-1,943.167,33/50,64,167.5
4632,D2,943.167,33/50,64,167.5
4633,F2,943.167,33/50,64,167.5
4634,B-3,943.833,33/50,58,167.5
4635,D3,943.833,33/50,58,167.5
4636,F3,943.833,33/50,58,167.5
4637,E-4,944.0,99/100,81,167.5
4638,B-4,944.0,99/100,81,167.5
4639,E-5,944.0,99/100,81,167.5
4640,E-1,944.5,33/50,70,167.5
4641,G1,944.5,33/50,70,167.5
4642,B-1,944.5,33/50,70,167.5
4643,E-2,944.5,33/50,70,167.5
4644,D5,945.0,33/50,82,167.5
4645,B-4,945.0,33/50,82,167.5
4646,D4,945.0,33/50,82,167.5
4647,E-4,945.167,33/50,60,167.5
4648,G3,945.167,33/50,60,167.5
4649,B-3,945.167,33/50,60,167.5
4650,B-3,945.667,33/50,79,167.5
4651,D4,945.667,33/50,79,167.5
4652,E-1,945.833,33/50,79,167.5
4653,E-2,945.833,33/50,79,167.5
4654,F4,946.333,327/500,81,167.5
4655,D4,946.333,327/500,81,167.5
4656,C3,946.5,33/50,75,167.5
4657,G2,946.5,33/50,75,167.5
4658,C2,946.5,33/50,75,167.5
4659,E-2,946.5,33/50,75,167.5
4660,F4,947.0,327/500,83,167.5
4661,B-4,947.0,327/500,83,167.5
4662,C4,947.167,33/50,60,167.5
4663,E-3,947.167,33/50,60,167.5
4664,G3,947.167,33/50,60,167.5
4665,D5,947.667,327/500,87,167.5
4666,B-4,947.667,327/500,87,167.5
4667,E-2,947.833,33/50,64,167.5
4668,E-3,947.833,33/50,64,167.5
4669,D5,948.333,327/500,90,167.5
4670,F5,948.333,327/500,90,167.5
4671,D3,948.5,33/50,70,167.5
4672,B-2,948.5,33/50,70,167.5
4673,D2,948.5,33/50,70,167.5
4674,F2,948.5,33/50,70,167.5
4675,G4,949.0,99/100,90,167.5
4676,E-5,949.0,99/100,90,167.5
4677,G5,949.0,99/100,90,167.5
4678,D3,949.167,327/500,63,167.5
4679,F3,949.167,327/500,63,167.5
4680,F3,949.833,327/500,64,167.5
4681,B-3,949.833,327/500,64,167.5
4682,B-4,950.0,99/100,85,167.5
4683,E-5,950.0,99/100,85,167.5
4684,B-5,950.0,99/100,85,167.5
4685,B-3,950.5,327/500,67,167.5
4686,D4,950.5,327/500,67,167.5
4687,F4,951.0,99/100,84,167.5
4688,B-4,951.0,99/100,84,167.5
4689,F5,951.0,99/100,84,167.5
4690,F4,951.167,327/500,68,167.5
4691,D4,951.167,327/500,68,167.5
4692,F4,951.833,327/500,70,167.5
4693,B-4,951.833,327/500,70,167.5
4694,E-4,952.0,99/100,77,167.5
4695,B-4,952.0,99/100,77,167.5
4696,E-5,952.0,99/100,77,167.5
4697,E-2,952.5,99/100,73,167.5
4698,B-2,952.5,99/100,73,167.5
4699,E-3,952.5,99/100,73,167.5
4700,D5,953.0,33/50,82,167.5
4701,B-4,953.0,33/50,82,167.5
4702,D4,953.0,33/50,82,167.5
4703,G2,953.5,99/100,66,167.5
4704,E-3,953.5,99/100,66,167.5
4705,G3,953.5,99/100,66,167.5
4706,B-3,953.667,327/500,79,167.5
4707,D4,953.667,327/500,79,167.5
4708,G4,954.333,327/500,81,167.5
4709,D4,954.333,327/500,81,167.5
4710,D2,954.5,99/100,62,167.5
4711,D3,954.5,99/100,62,167.5
4712,G2,954.5,99/100,62,167.5
4713,G#4,955.0,327/500,79,167.5
4714,F4,955.0,327/500,79,167.5
4715,B-4,955.0,327/500,79,167.5
4716,C2,955.5,99/100,65,167.5
4717,G2,955.5,99/100,65,167.5
4718,C3,955.5,99/100,65,167.5
4719,G#4,955.667,327/500,86,167.5
4720,D5,955.667,327/500,86,167.5
4721,B-4,955.667,327/500,86,167.5
4722,B-4,956.333,327/500,88,167.5
4723,D5,956.333,327/500,88,167.5
4724,F5,956.333,327/500,88,167.5
4725,B-2,956.5,33/50,72,167.5
4726,B-1,956.5,33/50,72,167.5
4727,G2,956.5,33/50,72,167.5
4728,E-6,957.0,33/50,86,167.5
4729,G#5,957.0,33/50,86,167.5
4730,E-5,957.0,33/50,86,167.5
4731,D3,957.167,33/50,63,167.5
4732,F3,957.167,33/50,63,167.5
4733,E-4,957.667,33/50,69,167.5
4734,G#3,957.667,33/50,69,167.5
4735,E-3,957.667,33/50,69,167.5
4736,F3,957.833,327/500,64,167.5
4737,B-3,957.833,327/500,64,167.5
4738,E-6,958.333,33/50,81,167.5
4739,G#5,958.333,33/50,81,167.5
4740,E-5,958.333,33/50,81,167.5
4741,B-3,958.5,327/500,67,167.5
4742,D4,958.5,327/500,67,167.5
4743,D6,959.0,99/100,86,167.5
4744,G#5,959.0,99/100,86,167.5
4745,D5,959.0,99/100,86,167.5
4746,F4,959.167,327/500,68,167.5
4747,D4,959.167,327/500,68,167.5
4748,F4,959.833,327/500,70,167.5
4749,B-4,959.833,327/500,70,167.5
4750,B-4,960.0,99/100,81,167.5
4751,E-5,960.0,99/100,81,167.5
4752,B-5,960.0,99/100,81,167.5
4753,E-2,960.5,99/100,73,167.5
4754,B-2,960.5,99/100,73,167.5
4755,E-3,960.5,99/100,73,167.5
4756,C6,961.0,33/50,85,167.5
4757,E-5,961.0,33/50,85,167.5
4758,C5,961.0,33/50,85,167.5
4759,G2,961.5,99/100,66,167.5
4760,E-3,961.5,99/100,66,167.5
4761,G3,961.5,99/100,66,167.5
4762,E-4,961.667,33/50,69,167.5
4763,G#3,961.667,33/50,69,167.5
4764,E-3,961.667,33/50,69,167.5
4765,C6,962.333,33/50,81,167.5
4766,E-5,962.333,33/50,81,167.5
4767,C5,962.333,33/50,81,167.5
4768,D2,962.5,99/100,62,167.5
4769,D3,962.5,99/100,62,167.5
4770,G2,962.5,99/100,62,167.5
4771,G#5,963.0,99/100,85,167.5
4772,E-5,963.0,99/100,85,167.5
4773,G#4,963.0,99/100,85,167.5
4774,C2,963.5,99/100,65,167.5
4775,G2,963.5,99/100,65,167.5
4776,C3,963.5,99/100,65,167.5
4777,C5,964.0,99/100,78,167.5
4778,E-5,964.0,99/100,78,167.5
4779,C6,964.0,99/100,78,167.5
4780,B-2,964.5,33/50,72,167.5
4781,B-1,964.5,33/50,72,167.5
4782,G2,964.5,33/50,72,167.5
4783,B-4,965.0,99/100,85,167.5
4784,E-5,965.0,99/100,85,167.5
4785,B-5,965.0,99/100,85,167.5
4786,D3,965.167,327/500,63,167.5
4787,G3,965.167,327/500,63,167.5
4788,G3,965.833,327/500,64,167.5
4789,B-3,965.833,327/500,64,167.5
4790,B-3,966.0,99/100,72,167.5
4791,E-4,966.0,99/100,72,167.5
4792,B-4,966.0,99/100,72,167.5
4793,G#3,966.5,327/500,63,167.5
4794,B-3,966.5,327/500,63,167.5
4795,D4,966.5,327/500,63,167.5
4796,G#4,967.0,99/100,83,167.5
4797,B-4,967.0,99/100,83,167.5
4798,G#5,967.0,99/100,83,167.5
4799,B-3,967.167,327/500,63,167.5
4800,F4,967.167,327/500,63,167.5
4801,D4,967.167,327/500,63,167.5
4802,D4,967.833,327/500,65,167.5
4803,F4,967.833,327/500,65,167.5
4804,G#4,967.833,327/500,65,167.5
4805,G4,968.0,99/100,74,167.5
4806,B-4,968.0,99/100,74,167.5
4807,G5,968.0,99/100,74,167.5
4808,C5,968.5,33/50,77,167.5
4809,G#4,968.5,33/50,77,167.5
4810,C4,968.5,33/50,77,167.5
4811,F4,969.0,33/50,50,167.5
4812,C5,969.0,33/50,50,167.5
4813,E-5,969.0,33/50,50,167.5
4814,F5,969.0,33/50,50,167.5
4815,C3,969.167,33/50,54,167.5
4816,C2,969.167,33/50,54,167.5
4817,G#2,969.167,33/50,54,167.5
4818,F4,969.667,33/50,46,167.5
4819,C5,969.667,33/50,46,167.5
4820,E-5,969.667,33/50,46,167.5
4821,F5,969.667,33/50,46,167.5
4822,G#3,969.833,33/50,66,167.5
4823,C3,969.833,33/50,66,167.5
4824,C4,969.833,33/50,66,167.5
4825,F4,970.333,33/50,46,167.5
4826,C5,970.333,33/50,46,167.5
4827,E-5,970.333,33/50,46,167.5
4828,F5,970.333,33/50,46,167.5
4829,B-2,970.5,99/100,73,167.5
4830,E-3,970.5,99/100,73,167.5
4831,B-3,970.5,99/100,73,167.5
4832,F4,971.0,33/50,46,167.5
4833,C5,971.0,33/50,46,167.5
4834,E-5,971.0,33/50,46,167.5
4835,F5,971.0,33/50,46,167.5
4836,G2,971.5,99/100,66,167.5
4837,E-3,971.5,99/100,66,167.5
4838,G3,971.5,99/100,66,167.5
4839,F4,971.667,33/50,46,167.5
4840,C5,971.667,33/50,46,167.5
4841,E-5,971.667,33/50,46,167.5
4842,F5,971.667,33/50,46,167.5
4843,F4,972.333,33/50,46,167.5
4844,C5,972.333,33/50,46,167.5
4845,E-5,972.333,33/50,46,167.5
4846,F5,972.333,33/50,46,167.5
4847,G#3,972.5,33/50,69,167.5
4848,E-3,972.5,33/50,69,167.5
4849,G#2,972.5,33/50,69,167.5
4850,G4,973.0,33/50,55,167.5
4851,B-4,973.0,33/50,55,167.5
4852,D5,973.0,33/50,55,167.5
4853,G5,973.0,33/50,55,167.5
4854,C3,973.167,33/50,54,167.5
4855,C2,973.167,33/50,54,167.5
4856,G#2,973.167,33/50,54,167.5
4857,G4,973.667,33/50,50,167.5
4858,B-4,973.667,33/50,50,167.5
4859,D5,973.667,33/50,50,167.5
4860,G5,973.667,33/50,50,167.5
4861,E-3,973.833,33/50,66,167.5
4862,G#2,973.833,33/50,66,167.5
4863,G#3,973.833,33/50,66,167.5
4864,G4,974.333,33/50,50,167.5
4865,B-4,974.333,33/50,50,167.5
4866,D5,974.333,33/50,50,167.5
4867,G5,974.333,33/50,50,167.5
4868,F2,974.5,99/100,66,167.5
4869,C3,974.5,99/100,66,167.5
4870,F3,974.5,99/100,66,167.5
4871,G4,975.0,33/50,52,167.5
4872,B-4,975.0,33/50,52,167.5
4873,E-5,975.0,33/50,52,167.5
4874,G5,975.0,33/50,52,167.5
4875,G#2,975.5,99/100,63,167.5
4876,C3,975.5,99/100,63,167.5
4877,G#3,975.5,99/100,63,167.5
4878,G4,975.667,33/50,52,167.5
4879,B-4,975.667,33/50,52,167.5
4880,E-5,975.667,33/50,52,167.5
4881,G5,975.667,33/50,52,167.5
4882,G4,976.333,33/50,52,167.5
4883,B-4,976.333,33/50,52,167.5
4884,E-5,976.333,33/50,52,167.5
4885,G5,976.333,33/50,52,167.5
4886,G2,976.5,99/100,66,167.5
4887,E-3,976.5,99/100,66,167.5
4888,G3,976.5,99/100,66,167.5
4889,B-5,977.0,33/50,58,167.5
4890,B-4,977.0,33/50,58,167.5
4891,C#5,977.0,33/50,58,167.5
4892,G5,977.0,33/50,58,167.5
4893,G1,977.5,99/100,51,167.5
4894,E-2,977.5,99/100,51,167.5
4895,G2,977.5,99/100,51,167.5
4896,B-5,977.667,33/50,54,167.5
4897,B-4,977.667,33/50,54,167.5
4898,C#5,977.667,33/50,54,167.5
4899,G5,977.667,33/50,54,167.5
4900,B-5,978.333,33/50,54,167.5
4901,B-4,978.333,33/50,54,167.5
4902,C#5,978.333,33/50,54,167.5
4903,G5,978.333,33/50,54,167.5
4904,F2,978.5,99/100,63,167.5
4905,B-2,978.5,99/100,63,167.5
4906,F3,978.5,99/100,63,167.5
4907,G#4,979.0,33/50,58,167.5
4908,B4,979.0,33/50,58,167.5
4909,E-5,979.0,33/50,58,167.5
4910,G#5,979.0,33/50,58,167.5
4911,E-2,979.5,99/100,60,167.5
4912,B-2,979.5,99/100,60,167.5
4913,E-3,979.5,99/100,60,167.5
4914,G#4,979.667,33/50,54,167.5
4915,B4,979.667,33/50,54,167.5
4916,E-5,979.667,33/50,54,167.5
4917,G#5,979.667,33/50,54,167.5
4918,G#4,980.333,33/50,54,167.5
4919,B4,980.333,33/50,54,167.5
4920,E-5,980.333,33/50,54,167.5
4921,G#5,980.333,33/50,54,167.5
4922,G#1,980.5,33/50,37,167.5
4923,G#2,980.5,33/50,37,167.5
4924,G#4,981.0,33/50,61,167.5
4925,E-5,981.0,33/50,61,167.5
4926,G#5,981.0,33/50,61,167.5
4927,G#3,981.167,33/50,34,167.5
4928,G#2,981.167,33/50,34,167.5
4929,G#4,981.667,33/50,61,167.5
4930,E-5,981.667,33/50,61,167.5
4931,G#5,981.667,33/50,61,167.5
4932,G#1,981.833,33/50,34,167.5
4933,G#2,981.833,33/50,34,167.5
4934,G#4,982.333,33/50,62,167.5
4935,E-5,982.333,33/50,62,167.5
4936,G#5,982.333,33/50,62,167.5
4937,G#2,982.5,33/50,32,167.5
4938,G#3,982.5,33/50,32,167.5
4939,G#4,983.0,33/50,60,167.5
4940,D5,983.0,33/50,60,167.5
4941,G#5,983.0,33/50,60,167.5
4942,G#2,983.167,33/50,32,167.5
4943,G#1,983.167,33/50,32,167.5
4944,G#4,983.667,33/50,60,167.5
4945,D5,983.667,33/50,60,167.5
4946,G#5,983.667,33/50,60,167.5
4947,G#2,983.833,33/50,30,167.5
4948,G#3,983.833,33/50,30,167.5
4949,G#4,984.333,33/50,61,167.5
4950,D5,984.333,33/50,61,167.5
4951,G#5,984.333,33/50,61,167.5
4952,B-1,984.5,33/50,43,167.5
4953,B-2,984.5,33/50,43,167.5
4954,G#4,985.0,33/50,64,167.5
4955,C#5,985.0,33/50,64,167.5
4956,G#5,985.0,33/50,64,167.5
4957,B-3,985.167,33/50,34,167.5
4958,B-2,985.167,33/50,34,167.5
4959,G#4,985.667,33/50,64,167.5
4960,C#5,985.667,33/50,64,167.5
4961,G#5,985.667,33/50,64,167.5
4962,B-1,985.833,33/50,36,167.5
4963,B-2,985.833,33/50,36,167.5
4964,G#4,986.333,33/50,61,167.5
4965,C#5,986.333,33/50,61,167.5
4966,G#5,986.333,33/50,61,167.5
4967,B-2,986.5,33/50,36,167.5
4968,B-3,986.5,33/50,36,167.5
4969,G4,987.0,33/50,69,167.5
4970,C#5,987.0,33/50,69,167.5
4971,G5,987.0,33/50,69,167.5
4972,B-2,987.167,33/50,37,167.5
4973,B-1,987.167,33/50,37,167.5
4974,G4,987.667,33/50,65,167.5
4975,C#5,987.667,33/50,65,167.5
4976,G5,987.667,33/50,65,167.5
4977,B-2,987.833,33/50,37,167.5
4978,B-3,987.833,33/50,37,167.5
4979,G4,988.333,33/50,64,167.5
4980,C#5,988.333,33/50,64,167.5
4981,G5,988.333,33/50,64,167.5
4982,B-1,988.5,33/50,44,167.5
4983,B-2,988.5,33/50,44,167.5
4984,F#4,989.0,33/50,71,167.5
4985,C#5,989.0,33/50,71,167.5
4986,F#5,989.0,33/50,71,167.5
4987,B-3,989.167,33/50,40,167.5
4988,B-2,989.167,33/50,40,167.5
4989,F#4,989.667,33/50,63,167.5
4990,C#5,989.667,33/50,63,167.5
4991,F#5,989.667,33/50,63,167.5
4992,B-1,989.833,33/50,40,167.5
4993,B-2,989.833,33/50,40,167.5
4994,F#4,990.333,33/50,64,167.5
4995,C#5,990.333,33/50,64,167.5
4996,F#5,990.333,33/50,64,167.5
4997,B2,990.5,33/50,44,167.5
4998,B3,990.5,33/50,44,167.5
4999,F4,991.0,33/50,77,167.5
5000,C5,991.0,33/50,77,167.5
5001,F5,991.0,33/50,77,167.5
5002,B2,991.167,33/50,36,167.5
5003,B1,991.167,33/50,36,167.5
5004,F4,991.667,33/50,70,167.5
5005,C5,991.667,33/50,70,167.5
5006,F5,991.667,33/50,70,167.5
5007,B2,991.833,33/50,36,167.5
5008,B3,991.833,33/50,36,167.5
5009,F4,992.333,33/50,71,167.5
5010,E-5,992.333,33/50,71,167.5
5011,F5,992.333,33/50,71,167.5
5012,B1,992.5,33/50,38,167.5
5013,B2,992.5,33/50,38,167.5
5014,F6,993.0,33/50,78,167.5
5015,E-6,993.0,33/50,78,167.5
5016,B-5,993.0,33/50,78,167.5
5017,F5,993.0,33/50,78,167.5
5018,B3,993.167,33/50,38,167.5
5019,B2,993.167,33/50,38,167.5
5020,F5,993.667,33/50,68,167.5
5021,E-5,993.667,33/50,68,167.5
5022,B-4,993.667,33/50,68,167.5
5023,F4,993.667,33/50,68,167.5
5024,B1,993.833,33/50,38,167.5
5025,B2,993.833,33/50,38,167.5
5026,F6,994.333,33/50,73,167.5
5027,E-6,994.333,33/50,73,167.5
5028,B-5,994.333,33/50,73,167.5
5029,F5,994.333,33/50,73,167.5
5030,B-2,994.5,33/50,40,167.5
5031,B-3,994.5,33/50,40,167.5
5032,F4,995.0,33/50,68,167.5
5033,G#4,995.0,33/50,68,167.5
5034,E-5,995.0,33/50,68,167.5
5035,F5,995.0,33/50,68,167.5
5036,B-2,995.167,33/50,40,167.5
5037,B-1,995.167,33/50,40,167.5
5038,F5,995.667,33/50,73,167.5
5039,G#5,995.667,33/50,73,167.5
5040,E-6,995.667,33/50,73,167.5
5041,F6,995.667,33/50,73,167.5
5042,B-2,995.833,33/50,40,167.5
5043,B-3,995.833,33/50,40,167.5
5044,F4,996.333,33/50,68,167.5
5045,G#4,996.333,33/50,68,167.5
5046,E-5,996.333,33/50,68,167.5
5047,F5,996.333,33/50,68,167.5
5048,A1,996.5,33/50,40,167.5
5049,A2,996.5,33/50,40,167.5
5050,F6,997.0,33/50,78,167.5
5051,E-6,997.0,33/50,78,167.5
5052,B-5,997.0,33/50,78,167.5
5053,F5,997.0,33/50,78,167.5
5054,A3,997.167,33/50,41,167.5
5055,A2,997.167,33/50,41,167.5
5056,F5,997.667,33/50,68,167.5
5057,E-5,997.667,33/50,68,167.5
5058,B-4,997.667,33/50,68,167.5
5059,F4,997.667,33/50,68,167.5
5060,A1,997.833,33/50,42,167.5
5061,A2,997.833,33/50,42,167.5
5062,F6,998.333,33/50,73,167.5
5063,E-6,998.333,33/50,73,167.5
5064,B-5,998.333,33/50,73,167.5
5065,F5,998.333,33/50,73,167.5
5066,A2,998.5,33/50,48,167.5
5067,A3,998.5,33/50,48,167.5
5068,F4,999.0,33/50,68,167.5
5069,B4,999.0,33/50,68,167.5
5070,E-5,999.0,33/50,68,167.5
5071,F5,999.0,33/50,68,167.5
5072,A2,999.167,33/50,43,167.5
5073,A1,999.167,33/50,43,167.5
5074,F5,999.667,33/50,73,167.5
5075,B5,999.667,33/50,73,167.5
5076,E-6,999.667,33/50,73,167.5
5077,F6,999.667,33/50,73,167.5
5078,A2,999.833,33/50,42,167.5
5079,A3,999.833,33/50,42,167.5
5080,F4,1000.333,33/50,68,167.5
5081,B4,1000.333,33/50,68,167.5
5082,E-5,1000.333,33/50,68,167.5
5083,F5,1000.333,33/50,68,167.5
5084,A1,1000.5,33/50,52,167.5
5085,A2,1000.5,33/50,52,167.5
5086,F6,1001.0,33/50,78,167.5
5087,E-6,1001.0,33/50,78,167.5
5088,B-5,1001.0,33/50,78,167.5
5089,F5,1001.0,33/50,78,167.5
5090,A3,1001.167,33/50,44,167.5
5091,A2,1001.167,33/50,44,167.5
5092,F5,1001.667,33/50,68,167.5
5093,E-5,1001.667,33/50,68,167.5
5094,B-4,1001.667,33/50,68,167.5
5095,F4,1001.667,33/50,68,167.5
5096,A1,1001.833,33/50,46,167.5
5097,A2,1001.833,33/50,46,167.5
5098,F6,1002.333,33/50,73,167.5
5099,E-6,1002.333,33/50,73,167.5
5100,B-5,1002.333,33/50,73,167.5
5101,F5,1002.333,33/50,73,167.5
5102,A2,1002.5,33/50,56,167.5
5103,A3,1002.5,33/50,56,167.5
5104,F4,1003.0,33/50,70,167.5
5105,A4,1003.0,33/50,70,167.5
5106,E-5,1003.0,33/50,70,167.5
5107,F5,1003.0,33/50,70,167.5
5108,A2,1003.167,33/50,48,167.5
5109,A1,1003.167,33/50,48,167.5
5110,F5,1003.667,33/50,77,167.5
5111,A5,1003.667,33/50,77,167.5
5112,E-6,1003.667,33/50,77,167.5
5113,F6,1003.667,33/50,77,167.5
5114,A3,1003.833,33/50,48,167.5
5115,A2,1003.833,33/50,48,167.5
5116,F4,1004.333,33/50,72,167.5
5117,A4,1004.333,33/50,72,167.5
5118,E-5,1004.333,33/50,72,167.5
5119,F5,1004.333,33/50,72,167.5
5120,B-1,1004.5,33/50,64,167.5
5121,B-2,1004.5,33/50,64,167.5
5122,F6,1005.0,33/50,85,167.5
5123,E-6,1005.0,33/50,85,167.5
5124,B-5,1005.0,33/50,85,167.5
5125,F5,1005.0,33/50,85,167.5
5126,B-3,1005.167,33/50,50,167.5
5127,B-2,1005.167,33/50,50,167.5
5128,F5,1005.667,33/50,75,167.5
5129,E-5,1005.667,33/50,75,167.5
5130,B-4,1005.667,33/50,75,167.5
5131,F4,1005.667,33/50,75,167.5
5132,B-1,1005.833,33/50,54,167.5
5133,B-2,1005.833,33/50,54,167.5
5134,F6,1006.333,33/50,82,167.5
5135,E-6,1006.333,33/50,82,167.5
5136,B-5,1006.333,33/50,82,167.5
5137,F5,1006.333,33/50,82,167.5
5138,B2,1006.5,33/50,68,167.5
5139,B3,1006.5,33/50,68,167.5
5140,F4,1007.0,33/50,77,167.5
5141,C5,1007.0,33/50,77,167.5
5142,E-5,1007.0,33/50,77,167.5
5143,F5,1007.0,33/50,77,167.5
5144,B2,1007.167,33/50,51,167.5
5145,B1,1007.167,33/50,51,167.5
5146,F5,1007.667,33/50,84,167.5
5147,C6,1007.667,33/50,84,167.5
5148,E-6,1007.667,33/50,84,167.5
5149,F6,1007.667,33/50,84,167.5
5150,B2,1007.833,33/50,48,167.5
5151,B3,1007.833,33/50,48,167.5
5152,F4,1008.333,33/50,80,167.5
5153,C5,1008.333,33/50,80,167.5
5154,E-5,1008.333,33/50,80,167.5
5155,F5,1008.333,33/50,80,167.5
5156,B-1,1008.5,33/50,58,167.5
5157,B-2,1008.5,33/50,58,167.5
5158,G6,1009.0,1333/1000,102,167.5
5159,E-6,1009.0,1333/1000,102,167.5
5160,G5,1009.0,1333/1000,102,167.5
5161,B-3,1009.167,33/50,50,167.5
5162,B-2,1009.167,33/50,50,167.5
5163,B-1,1009.833,33/50,54,167.5
5164,B-2,1009.833,33/50,54,167.5
5165,G5,1010.333,667/1000,94,167.5
5166,E-5,1010.333,667/1000,94,167.5
5167,G4,1010.333,667/1000,94,167.5
5168,G#2,1010.5,33/50,68,167.5
5169,G#3,1010.5,33/50,68,167.5
5170,G#2,1011.167,33/50,51,167.5
5171,G#1,1011.167,33/50,51,167.5
5172,G5,1011.667,667/1000,94,167.5
5173,E-5,1011.667,667/1000,94,167.5
5174,G4,1011.667,667/1000,94,167.5
5175,G#2,1011.833,33/50,48,167.5
5176,G#3,1011.833,33/50,48,167.5
5177,G3,1012.333,1333/1000,87,167.5
5178,E-4,1012.333,1333/1000,87,167.5
5179,G4,1012.333,1333/1000,87,167.5
5180,B-1,1012.5,33/50,58,167.5
5181,B-2,1012.5,33/50,58,167.5
5182,B-3,1013.167,33/50,50,167.5
5183,B-2,1013.167,33/50,50,167.5
5184,B3,1013.667,1.0,84,167.5
5185,E-4,1013.667,1.0,84,167.5
5186,F#4,1013.667,1.0,84,167.5
5187,B4,1013.667,1.0,84,167.5
5188,B-1,1013.833,33/50,54,167.5
5189,B-2,1013.833,33/50,54,167.5
5190,C3,1014.5,33/50,68,167.5
5191,C4,1014.5,33/50,68,167.5
5192,C#4,1014.667,1.0,80,167.5
5193,F#4,1014.667,1.0,80,167.5
5194,B-4,1014.667,1.0,80,167.5
5195,C#5,1014.667,1.0,80,167.5
5196,C3,1015.167,33/50,53,167.5
5197,C2,1015.167,33/50,53,167.5
5198,G6,1015.667,1333/1000,102,167.5
5199,E-6,1015.667,1333/1000,102,167.5
5200,G5,1015.667,1333/1000,102,167.5
5201,C3,1015.833,33/50,50,167.5
5202,C4,1015.833,33/50,50,167.5
5203,B-1,1016.5,33/50,63,167.5
5204,B-2,1016.5,33/50,63,167.5
5205,G5,1017.0,667/1000,94,167.5
5206,E-5,1017.0,667/1000,94,167.5
5207,G4,1017.0,667/1000,94,167.5
5208,B-3,1017.167,33/50,54,167.5
5209,B-2,1017.167,33/50,54,167.5
5210,B-1,1017.833,33/50,60,167.5
5211,B-2,1017.833,33/50,60,167.5
5212,G5,1018.333,667/1000,94,167.5
5213,E-5,1018.333,667/1000,94,167.5
5214,G4,1018.333,667/1000,94,167.5
5215,A2,1018.5,33/50,77,167.5
5216,A3,1018.5,33/50,77,167.5
5217,G3,1019.0,1333/1000,87,167.5
5218,E-4,1019.0,1333/1000,87,167.5
5219,G4,1019.0,1333/1000,87,167.5
5220,A2,1019.167,33/50,60,167.5
5221,A1,1019.167,33/50,60,167.5
5222,A2,1019.833,33/50,56,167.5
5223,A3,1019.833,33/50,56,167.5
5224,C4,1020.333,1.0,84,167.5
5225,E-4,1020.333,1.0,84,167.5
5226,G4,1020.333,1.0,84,167.5
5227,C5,1020.333,1.0,84,167.5
5228,B-1,1020.5,667/1000,81,167.5
5229,B-2,1020.5,667/1000,81,167.5
5230,D3,1021.167,667/1000,68,167.5
5231,D4,1021.167,667/1000,68,167.5
5232,D4,1021.333,1.0,80,167.5
5233,F4,1021.333,1.0,80,167.5
5234,B-4,1021.333,1.0,80,167.5
5235,D5,1021.333,1.0,80,167.5
5236,E-3,1021.833,667/1000,76,167.5
5237,E-4,1021.833,667/1000,76,167.5
5238,E-3,1022.333,3.75,105,167.5
5239,D2,1022.5,667/1000,70,167.5
5240,D3,1022.5,667/1000,70,167.5
5241,E-4,1022.583,3.5,91,167.5
5242,G4,1022.583,3.5,91,167.5
5243,B-4,1022.583,3.5,91,167.5
5244,E-5,1022.583,3.5,91,167.5
5245,E-2,1023.167,667/1000,74,167.5
5246,E-3,1023.167,667/1000,74,167.5
5247,B-1,1023.833,667/1000,68,167.5
5248,B-2,1023.833,667/1000,68,167.5
5249,B2,1024.5,1.0,65,167.5
5250,E-3,1024.5,1.0,65,167.5
5251,F#3,1024.5,1.0,65,167.5
5252,F#2,1025.5,1.0,57,167.5
5253,C#3,1025.5,1.0,57,167.5
5254,F#3,1025.5,1.0,57,167.5
5255,E-3,1026.083,0.25,95,167.5
5256,E-3,1026.333,3.75,95,167.5
5257,F4,1026.333,3.75,84,167.5
5258,B-4,1026.333,3.75,84,167.5
5259,D5,1026.333,3.75,84,167.5
5260,F5,1026.333,3.75,84,167.5
5261,B-1,1026.5,667/1000,81,167.5
5262,B-2,1026.5,667/1000,81,167.5
5263,D3,1027.167,667/1000,68,167.5
5264,D4,1027.167,667/1000,68,167.5
5265,E-3,1027.833,667/1000,76,167.5
5266,E-4,1027.833,667/1000,76,167.5
5267,D2,1028.5,667/1000,70,167.5
5268,D3,1028.5,667/1000,70,167.5
5269,E-2,1029.167,667/1000,74,167.5
5270,E-3,1029.167,667/1000,74,167.5
5271,B-1,1029.833,667/1000,68,167.5
5272,B-2,1029.833,667/1000,68,167.5
5273,E-3,1030.083,0.25,95,167.5
5274,E-3,1030.333,4.0,95,167.5
5275,G4,1030.333,4.0,91,167.5
5276,B-4,1030.333,4.0,91,167.5
5277,E-5,1030.333,4.0,91,167.5
5278,G5,1030.333,4.0,91,167.5
5279,C3,1030.5,1.0,65,167.5
5280,E-3,1030.5,1.0,65,167.5
5281,G3,1030.5,1.0,65,167.5
5282,B-2,1031.5,1.0,60,167.5
5283,F3,1031.5,1.0,60,167.5
5284,B-3,1031.5,1.0,60,167.5
5285,E-1,1032.5,3.75,90,167.5
5286,E-2,1032.5,3.75,90,167.5
5287,G2,1032.75,3.5,73,167.5
5288,B-2,1032.75,3.5,73,167.5
5289,E-3,1032.75,3.5,73,167.5
5290,G3,1032.75,3.5,73,167.5
5291,E-4,1034.333,2.0,86,167.5
5292,G4,1034.333,2.0,86,167.5
5293,C5,1034.333,2.0,86,167.5
5294,E-5,1034.333,2.0,86,167.5
5295,E-1,1036.25,0.25,86,167.5
5296,E-2,1036.25,0.25,86,167.5
5297,C5,1036.333,2.0,79,167.5
5298,E-5,1036.333,2.0,79,167.5
5299,G4,1036.333,2.0,79,167.5
5300,G5,1036.333,2.0,79,167.5
5301,F4,1038.333,4.0,81,167.5
5302,B-4,1038.333,4.0,81,167.5
5303,D5,1038.333,4.0,81,167.5
5304,F5,1038.333,4.0,81,167.5
5305,F2,1040.25,3.75,66,167.5
5306,B-2,1040.25,3.75,66,167.5
5307,D3,1040.25,3.75,66,167.5
5308,F3,1040.25,3.75,66,167.5
5309,E-1,1040.25,3.75,86,167.5
5310,E-2,1040.25,3.75,86,167.5
5311,B-3,1042.333,3.75,88,167.5
5312,B-4,1042.333,3.75,88,167.5
5313,E-2,1044.0,0.25,90,167.5
5314,E-1,1044.0,0.25,90,167.5
5315,G2,1044.25,4.0,75,167.5
5316,B-2,1044.25,4.0,75,167.5
5317,E-3,1044.25,4.0,75,167.5
5318,E-2,1044.25,4.0,90,167.5
5319,E-1,1044.25,4.0,90,167.5
5320,E-4,1046.083,0.25,99,167.5
5321,C4,1046.083,0.25,99,167.5
5322,G#4,1046.333,3.75,89,167.5
5323,C5,1046.333,3.75,89,167.5
5324,E-5,1046.333,3.75,89,167.5
5325,G#5,1046.333,3.75,89,167.5
5326,C2,1048.25,2.0,69,167.5
5327,E-2,1048.25,2.0,69,167.5
5328,G2,1048.25,2.0,69,167.5
5329,C3,1048.25,2.0,69,167.5
5330,G4,1050.083,0.25,92,167.5
5331,D4,1050.083,0.25,92,167.5
5332,E-2,1050.25,2.0,66,167.5
5333,G2,1050.25,2.0,66,167.5
5334,C3,1050.25,2.0,66,167.5
5335,E-3,1050.25,2.0,66,167.5
5336,B-4,1050.333,3.75,89,167.5
5337,D5,1050.333,3.75,89,167.5
5338,G5,1050.333,3.75,89,167.5
5339,B-5,1050.333,3.75,89,167.5
5340,D2,1052.25,4.0,66,167.5
5341,F2,1052.25,4.0,66,167.5
5342,B-2,1052.25,4.0,66,167.5
5343,D3,1052.25,4.0,66,167.5
5344,E-4,1054.083,0.25,92,167.5
5345,G4,1054.083,0.25,92,167.5
5346,G5,1054.333,2.0,98,167.5
5347,B-5,1054.333,2.0,98,167.5
5348,E-6,1054.333,2.0,98,167.5
5349,G6,1054.333,2.0,98,167.5
5350,B-1,1056.25,3.75,80,167.5
5351,B-2,1056.25,3.75,80,167.5
5352,E-4,1056.333,2.0,89,167.5
5353,G4,1056.333,2.0,89,167.5
5354,B-4,1056.333,2.0,89,167.5
5355,G5,1058.333,2.0,98,167.5
5356,B-5,1058.333,2.0,98,167.5
5357,E-6,1058.333,2.0,98,167.5
5358,G6,1058.333,2.0,98,167.5
5359,F3,1060.0,0.25,82,167.5
5360,G#3,1060.0,0.25,82,167.5
5361,F1,1060.25,3.75,77,167.5
5362,F2,1060.25,3.75,77,167.5
5363,E-4,1060.333,2.0,89,167.5
5364,G4,1060.333,2.0,89,167.5
5365,B-4,1060.333,2.0,89,167.5
5366,E-3,1062.333,4.0,102,167.5
5367,E-4,1062.333,4.0,102,167.5
5368,G3,1064.0,0.25,73,167.5
5369,B-3,1064.0,0.25,73,167.5
5370,G1,1064.25,3.75,77,167.5
5371,G2,1064.25,3.75,77,167.5
5372,E-3,1068.0,0.25,73,167.5
5373,B-3,1068.0,0.25,73,167.5
5374,E-1,1068.25,2.0,82,167.5
5375,E-2,1068.25,2.0,82,167.5
5376,G3,1070.25,2.0,67,167.5
5377,B-3,1070.25,2.0,67,167.5
5378,E-3,1070.333,4.0,102,167.5
5379,E-4,1070.333,4.0,102,167.5
5380,E-1,1072.25,2.0,82,167.5
5381,E-2,1072.25,2.0,82,167.5
5382,G3,1074.25,2.0,67,167.5
5383,B-3,1074.25,2.0,67,167.5
5384,E-3,1074.333,3.0,110,167.5
5385,E-1,1076.25,0.25,70,167.5
5386,E-2,1076.5,0.25,62,167.5
5387,E-1,1076.75,0.25,70,167.5
5388,E-2,1077.0,0.25,59,167.5
5389,E-1,1077.25,0.25,70,167.5
5390,E-2,1077.5,0.25,63,167.5
5391,E-1,1077.75,0.25,71,167.5
5392,E-2,1078.0,0.25,62,167.5
5393,E-1,1078.25,0.25,70,167.5
5394,E-2,1078.5,0.25,62,167.5
5395,E-1,1078.75,0.25,71,167.5
5396,E-2,1079.0,0.25,64,167.5
5397,E-1,1079.25,0.25,73,167.5
5398,E-2,1079.5,0.25,65,167.5
5399,E-1,1079.75,0.25,76,167.5
5400,E-2,1080.0,0.25,66,167.5
5401,E-1,1080.25,0.25,79,167.5
5402,E-2,1080.5,0.25,70,167.5
5403,E-1,1080.75,0.25,81,167.5
5404,E-2,1081.0,0.25,72,167.5
5405,E-1,1081.25,0.25,83,167.5
5406,E-2,1081.5,0.25,77,167.5
5407,E-1,1081.75,0.25,86,167.5
5408,E-2,1082.0,0.25,80,167.5
5409,E-1,1082.25,0.25,88,167.5
5410,E-2,1082.5,0.25,80,167.5
5411,E-1,1082.75,0.25,91,167.5
5412,E-2,1083.0,0.25,84,167.5
5413,E-1,1083.25,0.25,99,167.5
5414,E-2,1083.5,0.25,89,167.5
5415,E-1,1083.75,0.25,103,167.5
5416,E-2,1084.0,0.25,92,167.5
5417,E-1,1084.25,3.0,100,167.5
5418,E-2,1084.25,3.0,100,167.5
