,note_name,start_time,duration,velocity,tempo
0,F3,0.002,1.0,52,91.21
1,E-3,1.0,1.0,51,91.21
2,G#3,2.0,1.0,49,91.21
3,B-3,3.0,0.5,45,91.21
4,E-4,3.5,0.5,45,91.21
5,C4,4.0,1.0,48,91.21
6,B-3,5.0,0.5,44,91.21
7,E-4,5.5,0.5,46,91.21
8,C4,6.0,1.0,42,91.21
9,G#3,7.0,1.0,48,91.21
10,B-3,8.0,1.0,46,91.21
11,F3,9.0,1.0,48,91.21
12,E-3,10.0,0.938,48,91.21
13,F3,11.0,1.0,51,91.21
14,G#4,11.0,1.0,36,91.21
15,F4,11.0,1.0,36,91.21
16,C#4,11.0,1.0,36,91.21
17,E-3,12.0,1.0,51,91.21
18,B-4,12.0,1.0,32,91.21
19,G4,12.0,1.0,32,91.21
20,B-3,12.0,1.0,32,91.21
21,G#3,13.0,1.0,51,91.21
22,E-4,13.0,1.0,37,91.21
23,C5,13.0,1.0,37,91.21
24,G#4,13.0,1.0,37,91.21
25,B-3,14.0,0.5,56,91.21
26,E-5,14.0,1.0,42,91.21
27,B-4,14.0,1.0,42,91.21
28,G4,14.0,1.0,42,91.21
29,E-4,14.5,0.5,56,91.21
30,C4,15.0,1.0,55,91.21
31,G#5,15.0,1.0,41,91.21
32,E-5,15.0,1.0,41,91.21
33,C5,15.0,1.0,41,91.21
34,B-3,16.0,0.5,59,91.21
35,B-4,16.0,1.0,42,91.21
36,G5,16.0,1.0,42,91.21
37,E-5,16.0,1.0,42,91.21
38,E-4,16.5,0.5,56,91.21
39,C4,17.0,1.0,58,91.21
40,E-5,17.0,1.0,40,91.21
41,C5,17.0,1.0,40,91.21
42,G4,17.0,1.0,40,91.21
43,G#3,18.0,1.0,44,91.21
44,F5,18.0,1.0,35,91.21
45,C5,18.0,1.0,35,91.21
46,G#4,18.0,1.0,35,91.21
47,B-3,19.0,1.0,45,91.21
48,C#5,19.0,1.0,34,91.21
49,B-5,19.0,1.0,34,91.21
50,F5,19.0,1.0,34,91.21
51,F3,20.0,1.0,41,91.21
52,C6,20.0,1.0,30,91.21
53,G#5,20.0,1.0,30,91.21
54,F5,20.0,1.0,30,91.21
55,E-3,21.0,0.5,38,91.21
56,G5,21.0,0.5,30,91.21
57,B-5,21.0,0.5,30,91.21
58,E-6,21.0,0.5,30,91.21
59,E-3,22.0,1.0,52,91.21
60,F3,23.0,1.0,51,91.21
61,C3,24.0,1.0,49,91.21
62,E-3,25.0,11/20,48,91.21
63,F3,25.5,0.5,42,91.21
64,B-2,26.0,1.0,47,91.21
65,F3,27.0,11/20,44,91.21
66,G3,27.5,0.5,41,91.21
67,E-3,28.0,0.938,42,91.21
68,E-4,29.0,1.0,57,91.21
69,C4,30.0,1.0,52,91.21
70,B-3,31.0,11/20,53,91.21
71,G#3,31.5,0.5,48,91.21
72,E-3,32.0,0.938,48,91.21
73,E-3,33.0,1.0,56,91.21
74,G5,33.0,1.0,36,91.21
75,G4,33.0,1.0,36,91.21
76,E-5,33.0,1.0,36,91.21
77,B-4,33.0,1.0,36,91.21
78,F3,34.0,1.0,53,91.21
79,F4,34.0,1.0,36,91.21
80,G#4,34.0,1.0,36,91.21
81,C#5,34.0,1.0,36,91.21
82,F5,34.0,1.0,36,91.21
83,C3,35.0,1.0,51,91.21
84,G#5,35.0,1.0,36,91.21
85,E-5,35.0,1.0,36,91.21
86,G#4,35.0,1.0,36,91.21
87,C5,35.0,1.0,36,91.21
88,E-3,36.0,11/20,51,91.21
89,E-5,36.0,1.0,36,91.21
90,G5,36.0,1.0,36,91.21
91,B-5,36.0,1.0,36,91.21
92,B-4,36.0,1.0,36,91.21
93,F3,36.5,0.5,47,91.21
94,B-2,37.0,1.0,53,91.21
95,F5,37.0,1.0,37,91.21
96,B-5,37.0,1.0,37,91.21
97,C#6,37.0,1.0,37,91.21
98,C#5,37.0,1.0,37,91.21
99,F3,38.0,11/20,51,91.21
100,C#6,38.0,1.0,41,91.21
101,F5,38.0,1.0,41,91.21
102,B-5,38.0,1.0,41,91.21
103,F6,38.0,1.0,41,91.21
104,G3,38.5,0.5,47,91.21
105,E-3,39.0,0.938,51,91.21
106,B-5,39.0,0.938,39,91.21
107,G5,39.0,0.938,39,91.21
108,G6,39.0,0.938,39,91.21
109,E-6,39.0,0.938,39,91.21
110,E-4,40.0,1.0,56,91.21
111,G5,40.0,1.0,42,91.21
112,C6,40.0,1.0,42,91.21
113,E-5,40.0,1.0,42,91.21
114,C5,40.0,1.0,42,91.21
115,C4,41.0,1.0,50,91.21
116,G#5,41.0,1.0,41,91.21
117,G#4,41.0,1.0,41,91.21
118,C5,41.0,1.0,41,91.21
119,E-5,41.0,1.0,41,91.21
120,B-3,42.0,11/20,49,91.21
121,B-4,42.0,1.0,40,91.21
122,B-5,42.0,1.0,40,91.21
123,F5,42.0,1.0,40,91.21
124,C#5,42.0,1.0,40,91.21
125,G#3,42.5,0.5,42,91.21
126,E-3,43.0,0.5,48,91.21
127,E-5,43.0,0.5,36,91.21
128,B-4,43.0,0.5,36,91.21
129,G4,43.0,0.5,36,91.21
130,G5,43.0,0.5,36,91.21
131,E-3,44.0,3.0,53,91.21
132,C#4,44.0,1.0,42,91.21
133,G#3,44.0,1.0,42,91.21
134,F4,44.0,1.0,42,91.21
135,E-4,45.0,1.0,40,91.21
136,B-3,45.0,1.0,40,91.21
137,G3,45.0,1.0,40,91.21
138,C4,46.0,1.0,40,91.21
139,E-4,46.0,1.0,40,91.21
140,G#4,46.0,1.0,40,91.21
141,E-4,47.0,1.5,33,91.21
142,G4,47.0,1.0,33,91.21
143,B-4,47.0,0.5,39,91.21
144,G#2,47.0,2.0,56,91.21
145,E-5,47.5,0.5,33,91.21
146,C5,48.0,0.5,38,91.21
147,G#4,48.0,0.5,38,91.21
148,B-4,49.0,0.5,39,91.21
149,E-2,49.0,3.0,56,91.21
150,C#4,49.0,1.0,33,91.21
151,F4,49.0,1.0,33,91.21
152,E-5,49.5,0.5,34,91.21
153,G4,50.0,1.0,34,91.21
154,E-4,50.0,1.0,34,91.21
155,C5,50.0,1.0,34,91.21
156,G#4,51.0,1.0,35,91.21
157,E-4,51.0,1.0,35,91.21
158,C4,51.0,1.0,35,91.21
159,G#1,52.0,2.0,51,91.21
160,B-4,52.0,1.0,37,91.21
161,F4,52.0,1.0,37,91.21
162,D4,52.0,1.0,37,91.21
163,B-3,53.0,1.0,36,91.21
164,D4,53.0,1.0,36,91.21
165,F4,53.0,1.0,36,91.21
166,G3,54.0,0.938,33,91.21
167,B-3,54.0,0.938,33,91.21
168,E-4,54.0,0.938,33,91.21
169,B-5,55.0,2.0,43,91.21
170,B-4,55.0,2.0,43,91.21
171,G#3,55.0,1.0,37,91.21
172,C#4,55.0,1.0,37,91.21
173,F4,55.0,1.0,37,91.21
174,B-3,56.0,1.0,40,91.21
175,E-4,56.0,1.0,40,91.21
176,G3,56.0,1.0,40,91.21
177,E-5,57.0,3.0,48,91.21
178,E-6,57.0,3.0,48,91.21
179,E-4,57.0,1.0,36,91.21
180,G#4,57.0,1.0,36,91.21
181,C4,57.0,1.0,36,91.21
182,E-4,58.0,1.5,34,91.21
183,B-4,58.0,0.5,40,91.21
184,G4,58.0,1.0,34,91.21
185,E-5,58.5,0.5,34,91.21
186,G#4,59.0,0.5,38,91.21
187,C5,59.0,0.5,38,91.21
188,B-4,60.0,0.5,39,91.21
189,G6,60.0,2.0,36,91.21
190,G5,60.0,2.0,36,91.21
191,F4,60.0,1.0,33,91.21
192,C#4,60.0,1.0,33,91.21
193,E-5,60.5,0.5,34,91.21
194,G4,61.0,1.0,34,91.21
195,C5,61.0,1.0,34,91.21
196,E-4,61.0,1.0,34,91.21
197,G#6,62.0,1.0,35,91.21
198,G#5,62.0,1.0,35,91.21
199,C4,62.0,1.0,30,91.21
200,E-4,62.0,1.0,30,91.21
201,G#4,62.0,1.0,30,91.21
202,B-6,63.0,2.5,34,91.21
203,B-5,63.0,2.5,34,91.21
204,F4,63.0,1.0,31,91.21
205,B-4,63.0,1.0,31,91.21
206,D4,63.0,1.0,31,91.21
207,B-3,64.0,1.0,29,91.21
208,F4,64.0,1.0,29,91.21
209,D4,64.0,1.0,29,91.21
210,G3,65.0,0.5,28,91.21
211,B-3,65.0,0.5,28,91.21
212,E-4,65.0,0.5,28,91.21
213,E-3,66.0,3.0,45,91.21
214,G#2,66.0,3.0,33,91.21
215,E-3,69.0,1.0,45,91.21
216,G#2,69.0,1.5,33,91.21
217,E-3,70.0,0.5,41,91.21
218,E-3,70.5,19/40,45,91.21
219,G#2,70.5,1479/1000,31,91.21
220,E-3,71.0,19/40,41,91.21
221,E-3,71.5,19/40,38,91.21
222,E-3,72.0,0.75,45,91.21
223,G#2,72.0,1479/1000,34,91.21
224,E3,72.75,0.25,41,91.21
225,E-3,73.0,0.375,45,91.21
226,F#3,73.5,19/40,47,91.21
227,G#2,73.5,1479/1000,33,91.21
228,E3,74.0,19/40,45,91.21
229,E-3,74.5,19/40,40,91.21
230,C#3,75.0,89/125,45,91.21
231,G#2,75.0,1479/1000,34,91.21
232,E-3,75.75,0.25,40,91.21
233,C#3,76.0,0.375,42,91.21
234,E3,76.5,19/40,48,91.21
235,G#2,76.5,1479/1000,34,91.21
236,E-3,77.0,19/40,42,91.21
237,C#3,77.5,19/40,41,91.21
238,B2,78.0,1.0,45,91.21
239,G#2,78.0,2.5,34,91.21
240,C#3,79.0,0.5,48,91.21
241,E-3,79.5,0.5,52,91.21
242,C#3,80.0,0.5,51,91.21
243,B2,80.5,0.5,41,91.21
244,B-2,81.0,0.75,45,91.21
245,G#2,81.0,2.5,34,91.21
246,B2,81.75,0.25,41,91.21
247,B-2,82.0,0.375,45,91.21
248,C#3,82.5,19/40,48,91.21
249,B2,83.0,19/40,41,91.21
250,B-2,83.5,19/40,40,91.21
251,B2,84.0,1.5,45,91.21
252,G#2,84.0,979/1000,34,91.21
253,G#2,85.0,97/200,28,91.21
254,G#2,85.5,1.0,39,91.21
255,E-4,86.5,0.5,53,91.21
256,G#2,86.5,479/1000,31,91.21
257,G#4,87.0,3.0,58,91.21
258,E-4,87.0,21/500,53,91.21
259,E-3,87.0,3.0,41,91.21
260,G#2,87.0,979/1000,36,91.21
261,G#2,88.0,479/1000,29,91.21
262,G#2,88.5,979/1000,33,91.21
263,G#2,89.5,479/1000,29,91.21
264,G#4,90.0,271/500,58,91.21
265,E-3,90.0,1.5,41,91.21
266,G#2,90.0,979/1000,32,91.21
267,B4,90.5,271/500,57,91.21
268,B-4,91.0,0.375,53,91.21
269,G#2,91.0,479/1000,33,91.21
270,G#4,91.333,0.125,47,91.21
271,B-4,91.417,0.125,45,91.21
272,G#4,91.5,271/500,61,91.21
273,E3,91.5,1.5,41,91.21
274,G#2,91.5,979/1000,36,91.21
275,E4,92.0,271/500,51,91.21
276,G#4,92.5,0.5,47,91.21
277,G#2,92.5,479/1000,34,91.21
278,G#4,93.0,521/500,53,91.21
279,E-3,93.0,3.0,41,91.21
280,G#2,93.0,979/1000,36,91.21
281,E-4,94.0,271/500,51,91.21
282,G#2,94.0,479/1000,33,91.21
283,F#4,94.5,1.5,56,91.21
284,G#2,94.5,979/1000,36,91.21
285,G#2,95.5,479/1000,33,91.21
286,F#4,96.0,271/500,56,91.21
287,E-3,96.0,1.5,41,91.21
288,G#2,96.0,979/1000,36,91.21
289,E4,96.5,271/500,51,91.21
290,E-4,97.0,417/1000,47,91.21
291,G#2,97.0,479/1000,33,91.21
292,E-4,97.417,0.125,43,91.21
293,E4,97.5,271/500,56,91.21
294,E3,97.5,1.5,41,91.21
295,G#2,97.5,979/1000,36,91.21
296,E-4,98.0,271/500,46,91.21
297,C#4,98.5,0.5,43,91.21
298,G#2,98.5,479/1000,33,91.21
299,E-4,99.0,0.5,53,91.21
300,C#4,99.0,21/500,43,91.21
301,E-3,99.0,3.0,41,91.21
302,G#2,99.0,979/1000,36,91.21
303,G#3,99.5,2.5,48,91.21
304,G#2,100.0,479/1000,30,91.21
305,G#2,100.5,979/1000,33,91.21
306,G#2,101.5,479/1000,30,91.21
307,G#3,102.0,271/500,48,91.21
308,E3,102.0,3.0,41,91.21
309,G#2,102.0,979/1000,34,91.21
310,B-3,102.5,271/500,51,91.21
311,B3,103.0,0.375,51,91.21
312,G#2,103.0,479/1000,33,91.21
313,C#4,103.333,0.125,46,91.21
314,E-4,103.417,0.125,41,91.21
315,C#4,103.5,271/500,56,91.21
316,G#2,103.5,979/1000,36,91.21
317,B3,104.0,271/500,46,91.21
318,B-3,104.5,0.5,43,91.21
319,G#2,104.5,479/1000,33,91.21
320,B3,105.0,1.5,56,91.21
321,B-3,105.0,21/500,43,91.21
322,E-3,105.0,99/125,45,91.21
323,G#2,105.0,1479/1000,36,91.21
324,E3,105.75,73/250,38,91.21
325,E-3,106.0,0.5,43,91.21
326,G#3,106.5,1.5,47,91.21
327,F#3,106.5,271/500,45,91.21
328,G#2,106.5,1479/1000,34,91.21
329,E3,107.0,271/500,43,91.21
330,E-3,107.5,0.5,45,91.21
331,G#3,108.0,1.0,47,91.21
332,C#3,108.0,99/125,45,91.21
333,G#2,108.0,3.0,36,91.21
334,E-3,108.75,73/250,43,91.21
335,C#3,109.0,0.5,43,91.21
336,E3,109.5,271/500,47,91.21
337,E-3,110.0,271/500,43,91.21
338,G#4,110.5,0.5,51,91.21
339,C#3,110.5,0.5,39,91.21
340,E-5,111.0,3.0,63,91.21
341,B2,111.0,521/500,45,91.21
342,G#2,111.0,3.0,37,91.21
343,C#3,112.0,271/500,42,91.21
344,E-3,112.5,271/500,47,91.21
345,C#3,113.0,271/500,42,91.21
346,B2,113.5,0.5,40,91.21
347,E-5,114.0,3.0,63,91.21
348,B-2,114.0,99/125,43,91.21
349,G#2,114.0,3.0,38,91.21
350,B2,114.75,73/250,38,91.21
351,B-2,115.0,0.5,45,91.21
352,C#3,115.5,271/500,46,91.21
353,B2,116.0,271/500,42,91.21
354,B-2,116.5,0.5,40,91.21
355,G#5,117.0,0.5,56,91.21
356,B2,117.0,1.5,42,91.21
357,G#2,117.0,979/1000,38,91.21
358,G#2,118.0,479/1000,36,91.21
359,G#2,118.5,979/1000,36,91.21
360,E-4,119.5,0.5,53,91.21
361,G#2,119.5,479/1000,31,91.21
362,G#4,120.0,3.0,57,91.21
363,E-4,120.0,21/500,53,91.21
364,E-3,120.0,3.0,41,91.21
365,G#2,120.0,979/1000,36,91.21
366,G#2,121.0,479/1000,30,91.21
367,G#2,121.5,979/1000,32,91.21
368,G#2,122.5,479/1000,29,91.21
369,G#4,123.0,271/500,57,91.21
370,E-3,123.0,1.5,41,91.21
371,G#2,123.0,979/1000,34,91.21
372,B4,123.5,271/500,57,91.21
373,B-4,124.0,0.375,53,91.21
374,G#2,124.0,479/1000,33,91.21
375,G#4,124.333,0.125,47,91.21
376,B-4,124.417,0.125,45,91.21
377,G#4,124.5,271/500,61,91.21
378,E3,124.5,1.5,41,91.21
379,G#2,124.5,979/1000,36,91.21
380,E4,125.0,271/500,51,91.21
381,G#4,125.5,0.5,47,91.21
382,G#2,125.5,479/1000,34,91.21
383,G#4,126.0,521/500,53,91.21
384,E-3,126.0,1.5,41,91.21
385,G#2,126.0,979/1000,36,91.21
386,E-4,127.0,271/500,51,91.21
387,G#2,127.0,479/1000,33,91.21
388,B3,127.5,1.5,42,91.21
389,E4,127.5,1.5,56,91.21
390,G#3,127.5,1.5,41,91.21
391,G#2,127.5,979/1000,36,91.21
392,G#2,128.5,479/1000,29,91.21
393,B3,129.0,1.5,42,91.21
394,E4,129.0,271/500,56,91.21
395,G#3,129.0,1.5,41,91.21
396,G#2,129.0,979/1000,33,91.21
397,F#4,129.5,271/500,57,91.21
398,G#4,130.0,271/500,59,91.21
399,G#2,130.0,479/1000,33,91.21
400,A4,130.5,271/500,62,91.21
401,E3,130.5,1.5,41,91.21
402,G#2,130.5,979/1000,36,91.21
403,C#4,130.5,1.5,42,91.21
404,E4,130.5,1.5,42,91.21
405,B4,131.0,271/500,58,91.21
406,C#5,131.5,0.5,58,91.21
407,G#2,131.5,479/1000,33,91.21
408,F#4,132.0,2.0,62,91.21
409,E-3,132.0,3.0,41,91.21
410,G#2,132.0,979/1000,36,91.21
411,A3,132.0,3.0,37,91.21
412,C#4,132.0,3.0,37,91.21
413,G#2,133.0,479/1000,33,91.21
414,G#2,133.5,979/1000,36,91.21
415,G#4,134.0,271/500,60,91.21
416,A4,134.5,0.5,58,91.21
417,G#2,134.5,479/1000,33,91.21
418,G#3,135.0,3.0,42,91.21
419,E-4,135.0,1.5,42,91.21
420,G#4,135.0,1.0,62,91.21
421,C3,135.0,3.0,41,91.21
422,G#2,135.0,979/1000,35,91.21
423,E-4,136.0,2.0,56,91.21
424,G#2,136.0,479/1000,33,91.21
425,G#4,136.5,1.0,61,91.21
426,G#2,136.5,979/1000,36,91.21
427,F#4,137.5,0.5,56,91.21
428,G#2,137.5,479/1000,33,91.21
429,G#3,138.0,3.0,42,91.21
430,E4,138.0,1.5,58,91.21
431,C#3,138.0,1.5,38,91.21
432,G#2,138.0,979/1000,34,91.21
433,G#2,139.0,479/1000,33,91.21
434,E-4,139.5,0.5,56,91.21
435,E-3,139.5,1.5,40,91.21
436,G#2,139.5,979/1000,35,91.21
437,C#4,140.0,0.5,53,91.21
438,B3,140.5,0.5,48,91.21
439,G#2,140.5,479/1000,30,91.21
440,G#3,141.0,1.5,42,91.21
441,B-3,141.0,0.75,51,91.21
442,E3,141.0,1.5,40,91.21
443,G#2,141.0,979/1000,35,91.21
444,B3,141.75,0.25,46,91.21
445,B-3,142.0,0.5,51,91.21
446,G#2,142.0,479/1000,33,91.21
447,G3,142.5,1.5,42,91.21
448,C#4,142.5,0.5,48,91.21
449,E-3,142.5,1.5,38,91.21
450,G#2,142.5,979/1000,34,91.21
451,B3,143.0,0.5,46,91.21
452,B-3,143.5,0.5,45,91.21
453,G#2,143.5,479/1000,28,91.21
454,E-3,144.0,3.0,38,91.21
455,G#2,144.0,979/1000,35,91.21
456,G#3,144.0,1.5,44,91.21
457,B3,144.0,1.5,44,91.21
458,G#2,145.0,479/1000,28,91.21
459,G#3,145.5,1.5,43,91.21
460,G#2,145.5,979/1000,31,91.21
461,G#2,146.5,479/1000,28,91.21
462,G#3,147.0,1.0,43,91.21
463,E-3,147.0,2.5,38,91.21
464,G#2,147.0,979/1000,31,91.21
465,G#2,148.0,479/1000,28,91.21
466,G#2,148.5,979/1000,30,91.21
467,G#2,149.5,479/1000,27,91.21
468,G#2,150.0,979/1000,31,91.21
469,A4,150.0,1.5,40,91.21
470,C#5,150.0,1.5,40,91.21
471,E4,150.0,1.0,45,91.21
472,E5,150.0,1.0,45,91.21
473,C#3,150.0,1.5,35,91.21
474,E3,150.0,1.5,35,91.21
475,G#2,151.0,479/1000,28,91.21
476,E4,151.0,0.5,43,91.21
477,E5,151.0,0.5,43,91.21
478,G#2,151.5,979/1000,30,91.21
479,A4,151.5,1.5,43,91.21
480,C#5,151.5,1.5,43,91.21
481,F#4,151.5,0.75,48,91.21
482,F#5,151.5,0.75,48,91.21
483,E-3,151.5,1.5,33,91.21
484,F#3,151.5,1.5,33,91.21
485,E4,152.25,0.25,46,91.21
486,E5,152.25,0.25,46,91.21
487,G#2,152.5,479/1000,28,91.21
488,E-4,152.5,0.5,42,91.21
489,E-5,152.5,0.5,42,91.21
490,G#2,153.0,979/1000,30,91.21
491,A4,153.0,1.5,43,91.21
492,C#5,153.0,1.5,43,91.21
493,E4,153.0,1.0,48,91.21
494,E5,153.0,1.0,48,91.21
495,C#3,153.0,1.5,35,91.21
496,E3,153.0,1.5,35,91.21
497,G#2,154.0,479/1000,28,91.21
498,E4,154.0,0.5,45,91.21
499,E5,154.0,0.5,45,91.21
500,G#2,154.5,979/1000,30,91.21
501,A4,154.5,1.5,41,91.21
502,C#5,154.5,1.5,41,91.21
503,F#4,154.5,0.75,46,91.21
504,F#5,154.5,0.75,46,91.21
505,E-3,154.5,1.5,32,91.21
506,F#3,154.5,1.5,32,91.21
507,E4,155.25,0.25,40,91.21
508,E5,155.25,0.25,40,91.21
509,G#2,155.5,479/1000,27,91.21
510,E-4,155.5,0.5,40,91.21
511,E-5,155.5,0.5,40,91.21
512,G#2,156.0,979/1000,33,91.21
513,E4,156.0,1.5,45,91.21
514,A4,156.0,1.5,45,91.21
515,C#5,156.0,1.5,45,91.21
516,E5,156.0,1.5,45,91.21
517,C#3,156.0,1.5,35,91.21
518,E3,156.0,1.5,35,91.21
519,G#2,157.0,479/1000,31,91.21
520,G#2,157.5,979/1000,35,91.21
521,D4,157.5,1.5,46,91.21
522,F#4,157.5,1.5,46,91.21
523,A4,157.5,1.5,46,91.21
524,D5,157.5,1.5,46,91.21
525,D3,157.5,1.5,35,91.21
526,F#3,157.5,1.5,35,91.21
527,G#2,158.5,0.5,31,91.21
528,G#2,159.0,979/1000,31,91.21
529,D5,159.0,3.0,51,91.21
530,F#5,159.0,3.0,51,91.21
531,A4,159.0,2.0,51,91.21
532,A5,159.0,2.0,51,91.21
533,G#2,160.0,479/1000,28,91.21
534,G#2,160.5,979/1000,34,91.21
535,G#4,161.0,0.5,51,91.21
536,G#5,161.0,0.5,51,91.21
537,G#2,161.5,479/1000,28,91.21
538,F#4,161.5,0.5,47,91.21
539,F#5,161.5,0.5,47,91.21
540,G#2,162.0,979/1000,31,91.21
541,E4,162.0,1.5,51,91.21
542,G#4,162.0,1.5,51,91.21
543,C#5,162.0,1.5,51,91.21
544,E5,162.0,1.5,51,91.21
545,D3,162.0,3.0,35,91.21
546,F#3,162.0,3.0,35,91.21
547,G#2,163.0,479/1000,28,91.21
548,G#2,163.5,979/1000,31,91.21
549,G#4,163.5,1.5,54,91.21
550,C#5,163.5,1.5,54,91.21
551,E5,163.5,1.5,54,91.21
552,G#5,163.5,1.5,54,91.21
553,G#2,164.5,479/1000,28,91.21
554,G#2,165.0,979/1000,31,91.21
555,F#4,165.0,1.5,53,91.21
556,G#4,165.0,1.5,53,91.21
557,E-5,165.0,1.5,53,91.21
558,F#5,165.0,1.5,53,91.21
559,E3,165.0,1.5,37,91.21
560,G#3,165.0,1.5,37,91.21
561,G#2,166.0,479/1000,28,91.21
562,G#2,166.5,979/1000,30,91.21
563,E4,166.5,1.5,47,91.21
564,G#4,166.5,1.5,47,91.21
565,C#5,166.5,1.5,47,91.21
566,E5,166.5,1.5,47,91.21
567,C#3,166.5,1.5,39,91.21
568,E3,166.5,1.5,39,91.21
569,G#2,167.5,479/1000,28,91.21
570,G#2,168.0,979/1000,32,91.21
571,G4,168.0,3.0,45,91.21
572,B-4,168.0,3.0,45,91.21
573,E-4,168.0,1.5,51,91.21
574,E-5,168.0,1.5,51,91.21
575,E-3,168.0,1.5,36,91.21
576,F#3,168.0,1.5,36,91.21
577,G#2,169.0,479/1000,23,91.21
578,G#2,169.5,979/1000,30,91.21
579,C#4,169.5,1.0,48,91.21
580,C#5,169.5,1.0,48,91.21
581,E3,169.5,1.5,33,91.21
582,G#3,169.5,1.5,33,91.21
583,G#2,170.5,479/1000,28,91.21
584,B3,170.5,0.5,46,91.21
585,B4,170.5,0.5,46,91.21
586,E-3,171.0,3.0,40,91.21
587,G#2,171.0,979/1000,30,91.21
588,E-4,171.0,3.0,45,91.21
589,G4,171.0,3.0,45,91.21
590,B-3,171.0,0.75,51,91.21
591,B-4,171.0,0.75,51,91.21
592,B3,171.75,0.25,41,91.21
593,B4,171.75,0.25,41,91.21
594,G#2,172.0,479/1000,27,91.21
595,B-3,172.0,0.5,35,91.21
596,B-4,172.0,0.5,35,91.21
597,G#2,172.5,979/1000,28,91.21
598,C#4,172.5,0.5,43,91.21
599,C#5,172.5,0.5,43,91.21
600,B3,173.0,0.5,38,91.21
601,B4,173.0,0.5,38,91.21
602,G#2,173.5,479/1000,23,91.21
603,B-3,173.5,0.5,35,91.21
604,B-4,173.5,0.5,35,91.21
605,G3,174.0,3.0,33,91.21
606,G#2,174.0,979/1000,28,91.21
607,B3,174.0,2.5,45,91.21
608,E-4,174.0,2.5,45,91.21
609,G#4,174.0,1.5,45,91.21
610,B4,174.0,1.5,45,91.21
611,G#2,175.0,479/1000,28,91.21
612,G#4,175.5,1.0,41,91.21
613,G#2,175.5,979/1000,32,91.21
614,G#2,176.5,479/1000,29,91.21
615,G#3,177.0,2.5,33,91.21
616,G#2,177.0,979/1000,32,91.21
617,A4,177.0,1.5,40,91.21
618,C#5,177.0,1.5,40,91.21
619,E4,177.0,1.0,45,91.21
620,E5,177.0,1.0,45,91.21
621,G#2,178.0,479/1000,26,91.21
622,E4,178.0,0.5,43,91.21
623,E5,178.0,0.5,43,91.21
624,G#2,178.5,979/1000,30,91.21
625,A4,178.5,1.5,43,91.21
626,C#5,178.5,1.5,43,91.21
627,F#4,178.5,0.75,48,91.21
628,F#5,178.5,0.75,48,91.21
629,E4,179.25,0.25,46,91.21
630,E5,179.25,0.25,46,91.21
631,G#2,179.5,479/1000,28,91.21
632,E-4,179.5,0.375,42,91.21
633,E-5,179.5,0.375,42,91.21
634,G#2,180.0,979/1000,31,91.21
635,A4,180.0,1.5,43,91.21
636,C#5,180.0,1.5,43,91.21
637,E4,180.0,1.0,48,91.21
638,E5,180.0,1.0,48,91.21
639,C#3,180.0,1.5,35,91.21
640,E3,180.0,1.5,35,91.21
641,G#2,181.0,479/1000,28,91.21
642,E4,181.0,0.5,45,91.21
643,E5,181.0,0.5,45,91.21
644,G#2,181.5,979/1000,30,91.21
645,A4,181.5,1.5,41,91.21
646,C#5,181.5,1.5,41,91.21
647,F#4,181.5,0.75,46,91.21
648,F#5,181.5,0.75,46,91.21
649,E-3,181.5,1.5,33,91.21
650,F#3,181.5,1.5,33,91.21
651,E4,182.25,0.25,40,91.21
652,E5,182.25,0.25,40,91.21
653,G#2,182.5,479/1000,28,91.21
654,E-4,182.5,0.375,40,91.21
655,E-5,182.5,0.375,40,91.21
656,G#2,183.0,979/1000,34,91.21
657,E4,183.0,1.5,45,91.21
658,A4,183.0,1.5,45,91.21
659,C#5,183.0,1.5,45,91.21
660,E5,183.0,1.5,45,91.21
661,C#3,183.0,1.5,35,91.21
662,E3,183.0,1.5,35,91.21
663,G#2,184.0,479/1000,28,91.21
664,G#2,184.5,979/1000,32,91.21
665,D4,184.5,1.5,46,91.21
666,F#4,184.5,1.5,46,91.21
667,A4,184.5,1.5,46,91.21
668,D5,184.5,1.5,46,91.21
669,E-3,184.5,1.5,32,91.21
670,F#3,184.5,1.5,32,91.21
671,G#2,185.5,0.5,33,91.21
672,G#2,186.0,979/1000,33,91.21
673,D5,186.0,3.0,51,91.21
674,F#5,186.0,3.0,51,91.21
675,A4,186.0,1.5,51,91.21
676,A5,186.0,1.5,51,91.21
677,C#3,186.0,1.5,35,91.21
678,E3,186.0,1.5,35,91.21
679,G#2,187.0,479/1000,31,91.21
680,G#2,187.5,979/1000,34,91.21
681,G#4,187.5,0.5,51,91.21
682,G#5,187.5,0.5,51,91.21
683,D3,187.5,1.5,35,91.21
684,F#3,187.5,1.5,35,91.21
685,A5,188.0,0.5,45,91.21
686,A4,188.0,0.5,45,91.21
687,G#2,188.5,479/1000,28,91.21
688,F#4,188.5,0.5,46,91.21
689,F#5,188.5,0.5,46,91.21
690,G#2,189.0,979/1000,35,91.21
691,E4,189.0,1.5,51,91.21
692,G#4,189.0,1.5,51,91.21
693,C#5,189.0,1.5,51,91.21
694,E5,189.0,1.5,51,91.21
695,G#2,190.0,479/1000,28,91.21
696,G#2,190.5,979/1000,36,91.21
697,G#4,190.5,1.5,47,91.21
698,C#5,190.5,1.5,47,91.21
699,E5,190.5,1.5,47,91.21
700,G#5,190.5,1.5,47,91.21
701,G#2,191.5,479/1000,28,91.21
702,E-5,192.0,1.5,48,91.21
703,G#2,192.0,979/1000,32,91.21
704,F#4,192.0,0.5,48,91.21
705,G#4,192.0,0.5,48,91.21
706,F#5,192.0,0.5,48,91.21
707,D3,192.0,3.0,35,91.21
708,F#3,192.0,3.0,35,91.21
709,G#4,192.5,1.0,45,91.21
710,G#5,192.5,0.5,45,91.21
711,G#2,193.0,479/1000,28,91.21
712,E-4,193.0,0.5,45,91.21
713,E-5,193.0,0.5,45,91.21
714,G#2,193.5,979/1000,30,91.21
715,E4,193.5,0.5,47,91.21
716,E5,193.5,0.5,47,91.21
717,G#4,193.5,1.5,47,91.21
718,C#5,193.5,1.5,47,91.21
719,E-4,194.0,0.5,43,91.21
720,E-5,194.0,0.5,43,91.21
721,G#2,194.5,479/1000,28,91.21
722,E4,194.5,0.5,42,91.21
723,E5,194.5,0.5,42,91.21
724,G#2,195.0,979/1000,32,91.21
725,G4,195.0,3.0,45,91.21
726,B-4,195.0,3.0,45,91.21
727,E-4,195.0,1.5,51,91.21
728,E-5,195.0,1.5,51,91.21
729,E3,195.0,1.5,37,91.21
730,G#3,195.0,1.5,37,91.21
731,G#2,196.0,479/1000,27,91.21
732,G#2,196.5,979/1000,30,91.21
733,C#4,196.5,1.0,48,91.21
734,C#5,196.5,1.0,48,91.21
735,C#3,196.5,1.5,35,91.21
736,E3,196.5,1.5,35,91.21
737,G#2,197.5,479/1000,27,91.21
738,B3,197.5,0.5,46,91.21
739,B4,197.5,0.5,46,91.21
740,G#2,198.0,979/1000,31,91.21
741,E-4,198.0,3.0,45,91.21
742,G4,198.0,3.0,45,91.21
743,B-3,198.0,0.75,51,91.21
744,B-4,198.0,0.75,51,91.21
745,E-3,198.0,1.5,35,91.21
746,F#3,198.0,1.5,35,91.21
747,B3,198.75,0.25,41,91.21
748,B4,198.75,0.25,41,91.21
749,G#2,199.0,479/1000,28,91.21
750,B-3,199.0,0.375,35,91.21
751,B-4,199.0,0.375,35,91.21
752,G#2,199.5,979/1000,31,91.21
753,C#4,199.5,0.5,43,91.21
754,C#5,199.5,0.5,43,91.21
755,E3,199.5,1.5,33,91.21
756,G#3,199.5,1.5,33,91.21
757,B3,200.0,0.5,38,91.21
758,B4,200.0,0.5,38,91.21
759,G#2,200.5,479/1000,23,91.21
760,B-3,200.5,0.375,35,91.21
761,B-4,200.5,0.375,35,91.21
762,G3,201.0,3.0,40,91.21
763,G#2,201.0,3.0,32,91.21
764,B3,201.0,2.5,40,91.21
765,E-4,201.0,2.5,40,91.21
766,G#4,201.0,1.5,45,91.21
767,B4,201.0,1.5,45,91.21
768,G#4,202.5,1.0,41,91.21
769,E-3,204.0,3.0,33,91.21
770,G#2,204.0,3.0,32,91.21
771,G#4,205.5,1.5,51,91.21
772,E-5,207.0,3.0,63,91.21
773,E-3,207.0,99/125,45,91.21
774,G#2,207.0,3.0,33,91.21
775,E3,207.75,73/250,38,91.21
776,E-3,208.0,0.5,43,91.21
777,F#3,208.5,271/500,45,91.21
778,E3,209.0,271/500,43,91.21
779,E-3,209.5,0.5,45,91.21
780,E-5,210.0,3.0,63,91.21
781,C#3,210.0,99/125,45,91.21
782,G#2,210.0,3.0,35,91.21
783,E-3,210.75,73/250,43,91.21
784,C#3,211.0,0.5,43,91.21
785,E3,211.5,271/500,47,91.21
786,E-3,212.0,271/500,43,91.21
787,C#3,212.5,0.5,39,91.21
788,G#5,213.0,1.0,56,91.21
789,B2,213.0,521/500,45,91.21
790,G#2,213.0,979/1000,34,91.21
791,C#3,214.0,271/500,42,91.21
792,G#2,214.0,479/1000,27,91.21
793,E-3,214.5,271/500,47,91.21
794,G#2,214.5,979/1000,32,91.21
795,C#3,215.0,271/500,42,91.21
796,E-4,215.5,0.5,51,91.21
797,B2,215.5,0.5,40,91.21
798,G#2,215.5,479/1000,29,91.21
799,G#4,216.0,3.0,56,91.21
800,E-4,216.0,21/500,51,91.21
801,B-2,216.0,99/125,43,91.21
802,G#2,216.0,979/1000,28,91.21
803,B2,216.75,73/250,38,91.21
804,B-2,217.0,0.5,45,91.21
805,G#2,217.0,479/1000,22,91.21
806,C#3,217.5,271/500,46,91.21
807,G#2,217.5,979/1000,26,91.21
808,B2,218.0,271/500,42,91.21
809,B-2,218.5,0.5,40,91.21
810,G#2,218.5,479/1000,20,91.21
811,G#4,219.0,271/500,56,91.21
812,B2,219.0,1.5,42,91.21
813,G#2,219.0,979/1000,26,91.21
814,B4,219.5,271/500,53,91.21
815,B-4,220.0,0.375,51,91.21
816,G#2,220.0,479/1000,20,91.21
817,G#4,220.333,0.125,45,91.21
818,B-4,220.417,0.125,42,91.21
819,G#4,220.5,271/500,56,91.21
820,G#2,220.5,979/1000,26,91.21
821,E4,221.0,271/500,47,91.21
822,G#4,221.5,0.5,45,91.21
823,G#2,221.5,479/1000,20,91.21
824,G#4,222.0,521/500,53,91.21
825,E-3,222.0,3.0,41,91.21
826,G#2,222.0,979/1000,25,91.21
827,E-5,223.0,271/500,48,91.21
828,G#2,223.0,479/1000,22,91.21
829,G#4,223.5,1.5,50,91.21
830,G#2,223.5,979/1000,26,91.21
831,G#2,224.5,479/1000,22,91.21
832,G#4,225.0,1.5,50,91.21
833,E-3,225.0,1.5,41,91.21
834,G#2,225.0,979/1000,26,91.21
835,G#2,226.0,479/1000,22,91.21
836,E3,226.5,1.5,41,91.21
837,G#2,226.5,979/1000,28,91.21
838,G#2,227.5,479/1000,22,91.21
839,A4,228.0,2.0,51,91.21
840,E-3,228.0,1.5,41,91.21
841,G#2,228.0,979/1000,27,91.21
842,E-4,228.0,2.5,36,91.21
843,F#4,228.0,2.5,36,91.21
844,G#2,229.0,479/1000,28,91.21
845,G#3,229.5,1.5,40,91.21
846,G#2,229.5,979/1000,30,91.21
847,G#4,230.0,0.5,47,91.21
848,A4,230.5,0.5,44,91.21
849,G#2,230.5,479/1000,28,91.21
850,B-4,231.0,521/500,57,91.21
851,G#3,231.0,1.5,40,91.21
852,G#2,231.0,979/1000,32,91.21
853,D4,231.0,2.5,36,91.21
854,F4,231.0,2.5,36,91.21
855,F5,232.0,271/500,48,91.21
856,G#2,232.0,479/1000,31,91.21
857,B-4,232.5,1.0,50,91.21
858,G#2,232.5,979/1000,35,91.21
859,G#2,233.5,479/1000,23,91.21
860,C5,234.0,2.0,51,91.21
861,C4,234.0,3.0,41,91.21
862,G#2,234.0,979/1000,26,91.21
863,E-4,234.0,2.5,36,91.21
864,F#4,234.0,2.5,36,91.21
865,G#2,235.0,479/1000,27,91.21
866,G#2,235.5,979/1000,29,91.21
867,B4,236.0,0.5,47,91.21
868,C5,236.5,0.5,45,91.21
869,G#2,236.5,479/1000,30,91.21
870,C#5,237.0,521/500,57,91.21
871,B-3,237.0,3.0,41,91.21
872,G#2,237.0,979/1000,32,91.21
873,G#4,237.0,2.5,36,91.21
874,F4,237.0,2.5,36,91.21
875,G#5,238.0,271/500,50,91.21
876,G#2,238.0,479/1000,31,91.21
877,C#5,238.5,1.0,50,91.21
878,G#2,238.5,979/1000,34,91.21
879,G#2,239.5,479/1000,22,91.21
880,A3,240.0,3.0,41,91.21
881,G#2,240.0,979/1000,32,91.21
882,E-4,240.0,3.0,51,91.21
883,B-4,240.0,3.0,51,91.21
884,D5,240.0,3.0,51,91.21
885,G#2,241.0,479/1000,27,91.21
886,G#2,241.5,979/1000,28,91.21
887,G#2,242.5,479/1000,25,91.21
888,G#3,243.0,3.0,41,91.21
889,G#2,243.0,979/1000,28,91.21
890,G#2,244.0,479/1000,25,91.21
891,G#2,244.5,979/1000,28,91.21
892,G#2,245.5,479/1000,25,91.21
893,F#3,246.0,3.0,41,91.21
894,G#2,246.0,979/1000,32,91.21
895,E-4,246.0,3.0,51,91.21
896,B-4,246.0,3.0,51,91.21
897,D5,246.0,3.0,51,91.21
898,G#2,247.0,479/1000,26,91.21
899,G#2,247.5,979/1000,31,91.21
900,G#2,248.5,479/1000,23,91.21
901,F#3,249.0,3.0,41,91.21
902,G#2,249.0,979/1000,30,91.21
903,G#4,249.0,1.5,49,91.21
904,E-4,249.0,1.5,49,91.21
905,E-5,249.0,1.5,49,91.21
906,G#2,250.0,479/1000,26,91.21
907,G#4,250.5,1.5,36,91.21
908,G#2,250.5,979/1000,28,91.21
909,D4,250.5,0.5,48,91.21
910,D5,250.5,0.5,48,91.21
911,C#4,251.0,0.5,46,91.21
912,C#5,251.0,0.5,46,91.21
913,G#2,251.5,479/1000,26,91.21
914,D4,251.5,0.5,45,91.21
915,D5,251.5,0.5,45,91.21
916,F3,252.0,1.5,36,91.21
917,G#2,252.0,979/1000,29,91.21
918,G#4,252.0,1.5,47,91.21
919,E-4,252.0,1.5,47,91.21
920,E-5,252.0,1.5,47,91.21
921,G#2,253.0,479/1000,23,91.21
922,G#4,253.5,1.5,36,91.21
923,E3,253.5,1.5,36,91.21
924,G#2,253.5,979/1000,27,91.21
925,D4,253.5,0.5,47,91.21
926,D5,253.5,0.5,47,91.21
927,C#4,254.0,0.5,46,91.21
928,C#5,254.0,0.5,46,91.21
929,G#2,254.5,479/1000,25,91.21
930,D4,254.5,0.5,45,91.21
931,D5,254.5,0.5,45,91.21
932,G#4,255.0,3.0,36,91.21
933,F3,255.0,1.5,36,91.21
934,G#2,255.0,979/1000,27,91.21
935,E-4,255.0,1.5,52,91.21
936,E-5,255.0,1.5,52,91.21
937,G#2,256.0,479/1000,23,91.21
938,E3,256.5,1.5,36,91.21
939,G#2,256.5,979/1000,33,91.21
940,D4,256.5,1.5,47,91.21
941,D5,256.5,1.5,47,91.21
942,G#2,257.5,479/1000,28,91.21
943,F3,258.0,3.0,36,91.21
944,G#2,258.0,979/1000,35,91.21
945,C#4,258.0,1.5,46,91.21
946,G#4,258.0,1.5,46,91.21
947,C#5,258.0,1.5,46,91.21
948,G#2,259.0,479/1000,31,91.21
949,G#2,259.5,979/1000,35,91.21
950,G#4,259.5,1.5,57,91.21
951,E5,259.5,1.5,57,91.21
952,G#5,259.5,1.5,57,91.21
953,G#2,260.5,479/1000,31,91.21
954,E3,261.0,1.5,36,91.21
955,G#2,261.0,979/1000,31,91.21
956,F#4,261.0,1.5,56,91.21
957,E-5,261.0,1.5,56,91.21
958,F#5,261.0,1.5,56,91.21
959,G#2,262.0,479/1000,23,91.21
960,C#3,262.5,1.5,43,91.21
961,G#2,262.5,979/1000,27,91.21
962,E4,262.5,1.5,55,91.21
963,C#5,262.5,1.5,55,91.21
964,E5,262.5,1.5,55,91.21
965,G#2,263.5,479/1000,23,91.21
966,E-3,264.0,1.5,42,91.21
967,G#2,264.0,979/1000,28,91.21
968,G4,264.0,3.0,45,91.21
969,B-4,264.0,3.0,45,91.21
970,E-4,264.0,1.5,51,91.21
971,E-5,264.0,1.5,51,91.21
972,G#2,265.0,479/1000,23,91.21
973,G#3,265.5,1.5,40,91.21
974,G#2,265.5,979/1000,27,91.21
975,C#4,265.5,1.0,48,91.21
976,C#5,265.5,1.0,48,91.21
977,G#2,266.5,479/1000,23,91.21
978,B3,266.5,0.5,46,91.21
979,B4,266.5,0.5,46,91.21
980,E-3,267.0,1.5,40,91.21
981,G#2,267.0,979/1000,28,91.21
982,E-4,267.0,3.0,38,91.21
983,G4,267.0,3.0,38,91.21
984,B-3,267.0,0.75,51,91.21
985,B-4,267.0,0.75,51,91.21
986,B3,267.75,0.25,41,91.21
987,B4,267.75,0.25,41,91.21
988,G#2,268.0,479/1000,23,91.21
989,B-3,268.0,0.375,35,91.21
990,B-4,268.0,0.375,35,91.21
991,G3,268.5,1.5,40,91.21
992,G#2,268.5,979/1000,27,91.21
993,C#4,268.5,0.5,43,91.21
994,C#5,268.5,0.5,43,91.21
995,B3,269.0,0.5,38,91.21
996,B4,269.0,0.5,38,91.21
997,G#2,269.5,479/1000,22,91.21
998,B-3,269.5,0.5,35,91.21
999,B-4,269.5,0.5,35,91.21
1000,E-3,270.0,1.5,33,91.21
1001,G#2,270.0,979/1000,28,91.21
1002,B3,270.0,2.5,36,91.21
1003,E-4,270.0,2.5,36,91.21
1004,G#4,270.0,1.5,41,91.21
1005,B4,270.0,1.5,41,91.21
1006,G#2,271.0,479/1000,26,91.21
1007,G#4,271.5,1.0,41,91.21
1008,G3,271.5,1.5,33,91.21
1009,G#2,271.5,979/1000,29,91.21
1010,G#2,272.5,479/1000,22,91.21
1011,E-3,273.0,1.5,33,91.21
1012,G#2,273.0,979/1000,26,91.21
1013,G#2,274.0,479/1000,27,91.21
1014,G#3,274.5,1.5,33,91.21
1015,G#2,274.5,979/1000,30,91.21
1016,E-4,275.5,0.5,51,91.21
1017,G#2,275.5,479/1000,23,91.21
1018,G#4,276.0,3.0,56,91.21
1019,E-4,276.0,21/500,51,91.21
1020,G#3,276.0,2.5,33,91.21
1021,G#2,276.0,979/1000,27,91.21
1022,G#2,277.0,479/1000,22,91.21
1023,G#2,277.5,979/1000,27,91.21
1024,G#2,278.5,479/1000,20,91.21
1025,G#4,279.0,271/500,56,91.21
1026,E-3,279.0,3.0,38,91.21
1027,G#2,279.0,979/1000,26,91.21
1028,B4,279.5,271/500,53,91.21
1029,B-4,280.0,0.375,51,91.21
1030,G#2,280.0,479/1000,27,91.21
1031,G#4,280.333,0.125,45,91.21
1032,B-4,280.417,0.125,42,91.21
1033,G#4,280.5,271/500,56,91.21
1034,G#2,280.5,979/1000,29,91.21
1035,E4,281.0,271/500,47,91.21
1036,G#4,281.5,0.5,45,91.21
1037,G#2,281.5,479/1000,27,91.21
1038,G#4,282.0,0.75,53,91.21
1039,E-3,282.0,1.5,38,91.21
1040,G#2,282.0,979/1000,29,91.21
1041,E5,282.75,0.25,48,91.21
1042,G#4,283.0,0.5,45,91.21
1043,G#2,283.0,479/1000,27,91.21
1044,G#4,283.5,1.5,49,91.21
1045,E3,283.5,1.5,41,91.21
1046,G#2,283.5,979/1000,29,91.21
1047,G#2,284.5,479/1000,22,91.21
1048,G#4,285.0,1.0,49,91.21
1049,B3,285.0,3.0,38,91.21
1050,G#2,285.0,979/1000,28,91.21
1051,G#2,286.0,479/1000,22,91.21
1052,G#2,286.5,979/1000,25,91.21
1053,G#2,287.5,479/1000,22,91.21
1054,A4,288.0,2.0,51,91.21
1055,B3,288.0,1.0,38,91.21
1056,G#2,288.0,979/1000,28,91.21
1057,E-4,288.0,2.5,36,91.21
1058,F#4,288.0,2.5,36,91.21
1059,G#2,289.0,479/1000,27,91.21
1060,G#2,289.5,979/1000,29,91.21
1061,G#4,290.0,0.5,47,91.21
1062,A4,290.5,0.5,48,91.21
1063,G#2,290.5,479/1000,28,91.21
1064,B-4,291.0,0.75,57,91.21
1065,C4,291.0,3.0,41,91.21
1066,G#2,291.0,979/1000,31,91.21
1067,D4,291.0,2.5,36,91.21
1068,F4,291.0,2.5,36,91.21
1069,F5,291.75,0.25,51,91.21
1070,B-4,292.0,0.5,51,91.21
1071,G#2,292.0,479/1000,22,91.21
1072,B-4,292.5,1.0,47,91.21
1073,G#2,292.5,979/1000,27,91.21
1074,G#2,293.5,479/1000,22,91.21
1075,C5,294.0,2.0,51,91.21
1076,B-3,294.0,3.0,41,91.21
1077,G#2,294.0,979/1000,28,91.21
1078,E-4,294.0,2.5,36,91.21
1079,F#4,294.0,2.5,36,91.21
1080,G#2,295.0,479/1000,27,91.21
1081,G#2,295.5,979/1000,29,91.21
1082,B4,296.0,0.5,47,91.21
1083,C5,296.5,0.5,46,91.21
1084,G#2,296.5,479/1000,22,91.21
1085,C#5,297.0,0.75,57,91.21
1086,A3,297.0,3.0,41,91.21
1087,G#2,297.0,979/1000,28,91.21
1088,G#4,297.0,2.5,36,91.21
1089,F4,297.0,2.5,36,91.21
1090,G#5,297.75,0.25,51,91.21
1091,C#5,298.0,0.5,51,91.21
1092,G#2,298.0,479/1000,27,91.21
1093,C#5,298.5,1.0,48,91.21
1094,G#2,298.5,979/1000,29,91.21
1095,G#2,299.5,479/1000,25,91.21
1096,G#3,300.0,3.0,41,91.21
1097,G#2,300.0,979/1000,29,91.21
1098,E-4,300.0,3.0,51,91.21
1099,B-4,300.0,3.0,51,91.21
1100,D5,300.0,3.0,51,91.21
1101,G#2,301.0,479/1000,25,91.21
1102,G#2,301.5,979/1000,27,91.21
1103,G#2,302.5,479/1000,25,91.21
1104,F#3,303.0,3.0,41,91.21
1105,G#2,303.0,979/1000,28,91.21
1106,G#2,304.0,479/1000,25,91.21
1107,G#2,304.5,979/1000,23,91.21
1108,G#2,305.5,479/1000,22,91.21
1109,F#3,306.0,3.0,41,91.21
1110,G#2,306.0,979/1000,26,91.21
1111,E-4,306.0,3.0,51,91.21
1112,B-4,306.0,3.0,51,91.21
1113,D5,306.0,3.0,51,91.21
1114,G#2,307.0,479/1000,22,91.21
1115,G#2,307.5,979/1000,28,91.21
1116,G#2,308.5,479/1000,22,91.21
1117,F3,309.0,1.5,36,91.21
1118,G#2,309.0,979/1000,27,91.21
1119,G#4,309.0,1.5,49,91.21
1120,E-4,309.0,1.5,49,91.21
1121,E-5,309.0,1.5,49,91.21
1122,G#2,310.0,479/1000,27,91.21
1123,G#4,310.5,1.5,36,91.21
1124,E3,310.5,1.5,36,91.21
1125,G#2,310.5,979/1000,30,91.21
1126,D4,310.5,0.5,48,91.21
1127,D5,310.5,0.5,48,91.21
1128,C#4,311.0,0.5,46,91.21
1129,C#5,311.0,0.5,46,91.21
1130,G#2,311.5,479/1000,25,91.21
1131,D4,311.5,0.5,44,91.21
1132,D5,311.5,0.5,44,91.21
1133,F3,312.0,1.5,36,91.21
1134,G#2,312.0,979/1000,29,91.21
1135,G#4,312.0,1.5,47,91.21
1136,E-4,312.0,1.5,47,91.21
1137,E-5,312.0,1.5,47,91.21
1138,G#2,313.0,479/1000,23,91.21
1139,G#4,313.5,1.5,36,91.21
1140,E3,313.5,1.5,36,91.21
1141,G#2,313.5,979/1000,31,91.21
1142,D4,313.5,0.5,47,91.21
1143,D5,313.5,0.5,47,91.21
1144,C#4,314.0,0.5,46,91.21
1145,C#5,314.0,0.5,46,91.21
1146,G#2,314.5,479/1000,28,91.21
1147,D4,314.5,0.5,45,91.21
1148,D5,314.5,0.5,45,91.21
1149,G#4,315.0,3.0,36,91.21
1150,F3,315.0,3.0,36,91.21
1151,G#2,315.0,979/1000,33,91.21
1152,E-4,315.0,1.5,52,91.21
1153,E-5,315.0,1.5,52,91.21
1154,G#2,316.0,479/1000,28,91.21
1155,G#2,316.5,979/1000,31,91.21
1156,D4,316.5,1.5,47,91.21
1157,D5,316.5,1.5,47,91.21
1158,G#2,317.5,479/1000,28,91.21
1159,E3,318.0,1.5,36,91.21
1160,G#2,318.0,979/1000,33,91.21
1161,C#4,318.0,1.5,46,91.21
1162,G#4,318.0,1.5,46,91.21
1163,C#5,318.0,1.5,46,91.21
1164,G#2,319.0,479/1000,23,91.21
1165,C#3,319.5,1.5,35,91.21
1166,G#2,319.5,979/1000,27,91.21
1167,G#4,319.5,1.5,57,91.21
1168,E5,319.5,1.5,57,91.21
1169,G#5,319.5,1.5,57,91.21
1170,G#2,320.5,479/1000,23,91.21
1171,E-3,321.0,1.5,35,91.21
1172,G#2,321.0,979/1000,28,91.21
1173,F#4,321.0,1.5,56,91.21
1174,E-5,321.0,1.5,56,91.21
1175,F#5,321.0,1.5,56,91.21
1176,G#2,322.0,479/1000,22,91.21
1177,C#5,322.5,1.5,52,91.21
1178,G#3,322.5,1.5,33,91.21
1179,G#2,322.5,979/1000,25,91.21
1180,E4,322.5,0.5,52,91.21
1181,E5,322.5,0.5,52,91.21
1182,G#4,323.0,0.5,43,91.21
1183,G#5,323.0,0.5,43,91.21
1184,G#2,323.5,479/1000,23,91.21
1185,E4,323.5,0.5,47,91.21
1186,E5,323.5,0.5,47,91.21
1187,E-3,324.0,1.5,40,91.21
1188,G#2,324.0,979/1000,28,91.21
1189,G4,324.0,3.0,47,91.21
1190,B-4,324.0,3.0,47,91.21
1191,E-4,324.0,1.5,47,91.21
1192,E-5,324.0,1.5,47,91.21
1193,G#2,325.0,479/1000,24,91.21
1194,G3,325.5,1.5,40,91.21
1195,G#2,325.5,979/1000,28,91.21
1196,C#4,325.5,0.5,48,91.21
1197,C#5,325.5,0.5,48,91.21
1198,E-4,326.0,0.5,45,91.21
1199,E-5,326.0,0.5,45,91.21
1200,G#2,326.5,479/1000,25,91.21
1201,B3,326.5,0.5,42,91.21
1202,B4,326.5,0.5,42,91.21
1203,E-3,327.0,1.5,33,91.21
1204,G#2,327.0,979/1000,28,91.21
1205,E-4,327.0,3.0,31,91.21
1206,G4,327.0,3.0,31,91.21
1207,B-3,327.0,0.75,47,91.21
1208,B-4,327.0,0.75,47,91.21
1209,B3,327.75,0.25,37,91.21
1210,B4,327.75,0.25,37,91.21
1211,G#2,328.0,479/1000,23,91.21
1212,B-3,328.0,0.5,32,91.21
1213,B-4,328.0,0.5,32,91.21
1214,G3,328.5,1.25,31,91.21
1215,G#2,328.5,979/1000,22,91.21
1216,C#4,328.5,0.5,40,91.21
1217,C#5,328.5,0.5,40,91.21
1218,B3,329.0,0.5,33,91.21
1219,B4,329.0,0.5,33,91.21
1220,G#2,329.5,479/1000,26,91.21
1221,B-3,329.5,0.25,30,91.21
1222,B-4,329.5,0.25,30,91.21
1223,G#2,330.0,979/1000,22,91.21
1224,G#2,331.0,479/1000,23,91.21
1225,G#2,331.5,979/1000,22,91.21
1226,G#2,332.5,479/1000,25,91.21
1227,G#2,333.0,979/1000,28,91.21
1228,A4,333.0,1.5,33,91.21
1229,C#5,333.0,1.5,33,91.21
1230,E4,333.0,1.0,37,91.21
1231,E5,333.0,1.0,37,91.21
1232,C#3,333.0,1.5,28,91.21
1233,E3,333.0,1.5,28,91.21
1234,G#2,334.0,479/1000,25,91.21
1235,E4,334.0,0.5,36,91.21
1236,E5,334.0,0.5,36,91.21
1237,G#2,334.5,979/1000,28,91.21
1238,A4,334.5,1.5,36,91.21
1239,C#5,334.5,1.5,36,91.21
1240,F#4,334.5,0.75,41,91.21
1241,F#5,334.5,0.75,41,91.21
1242,E-3,334.5,1.5,27,91.21
1243,F#3,334.5,1.5,27,91.21
1244,E4,335.25,0.25,38,91.21
1245,E5,335.25,0.25,38,91.21
1246,G#2,335.5,479/1000,25,91.21
1247,E-4,335.5,0.25,35,91.21
1248,E-5,335.5,0.25,35,91.21
1249,G#2,336.0,979/1000,31,91.21
1250,A4,336.0,1.5,36,91.21
1251,C#5,336.0,1.5,36,91.21
1252,E4,336.0,1.0,41,91.21
1253,E5,336.0,1.0,41,91.21
1254,C#3,336.0,1.5,28,91.21
1255,E3,336.0,1.5,28,91.21
1256,G#2,337.0,479/1000,28,91.21
1257,E4,337.0,0.5,37,91.21
1258,E5,337.0,0.5,37,91.21
1259,G#2,337.5,979/1000,33,91.21
1260,A4,337.5,1.5,35,91.21
1261,C#5,337.5,1.5,35,91.21
1262,F#4,337.5,0.75,38,91.21
1263,F#5,337.5,0.75,38,91.21
1264,E-3,337.5,1.25,27,91.21
1265,F#3,337.5,1.25,27,91.21
1266,E4,338.25,0.25,33,91.21
1267,E5,338.25,0.25,33,91.21
1268,G#2,338.5,479/1000,28,91.21
1269,E-4,338.5,0.25,33,91.21
1270,E-5,338.5,0.25,33,91.21
1271,G#2,339.0,979/1000,33,91.21
1272,G#2,340.0,479/1000,26,91.21
1273,G#2,340.5,979/1000,25,91.21
1274,G#2,341.5,479/1000,23,91.21
1275,G#2,342.0,979/1000,28,91.21
1276,E4,342.0,1.5,47,91.21
1277,G#4,342.0,1.5,47,91.21
1278,C#5,342.0,1.5,47,91.21
1279,C#4,342.0,1.5,47,91.21
1280,E3,342.0,1.5,35,91.21
1281,G#3,342.0,1.5,35,91.21
1282,G#2,343.0,479/1000,24,91.21
1283,G#2,343.5,979/1000,27,91.21
1284,G#4,343.5,1.5,56,91.21
1285,C#5,343.5,1.5,56,91.21
1286,E5,343.5,1.5,56,91.21
1287,G#5,343.5,1.5,56,91.21
1288,C#3,343.5,1.5,42,91.21
1289,E3,343.5,1.5,42,91.21
1290,G#2,344.5,479/1000,24,91.21
1291,G#2,345.0,979/1000,26,91.21
1292,F#4,345.0,1.5,52,91.21
1293,G#4,345.0,1.5,52,91.21
1294,E-5,345.0,1.5,52,91.21
1295,F#5,345.0,1.5,52,91.21
1296,E-3,345.0,1.5,38,91.21
1297,F#3,345.0,1.5,38,91.21
1298,G#2,346.0,479/1000,18,91.21
1299,G#2,346.5,979/1000,22,91.21
1300,E4,346.5,1.5,47,91.21
1301,G#4,346.5,1.5,47,91.21
1302,C#5,346.5,1.5,47,91.21
1303,E5,346.5,1.5,47,91.21
1304,E3,346.5,1.5,36,91.21
1305,G#3,346.5,1.5,36,91.21
1306,G#2,347.5,479/1000,18,91.21
1307,G#2,348.0,979/1000,25,91.21
1308,G#2,349.0,479/1000,20,91.21
1309,G#2,349.5,979/1000,22,91.21
1310,G#2,350.5,479/1000,25,91.21
1311,E-3,351.0,1.5,27,91.21
1312,G#2,351.0,979/1000,30,91.21
1313,E-4,351.0,1.5,37,91.21
1314,G4,351.0,1.5,37,91.21
1315,B-3,351.0,0.75,42,91.21
1316,B-4,351.0,0.75,42,91.21
1317,B3,351.75,0.25,35,91.21
1318,B4,351.75,0.25,35,91.21
1319,G#2,352.0,479/1000,25,91.21
1320,B-3,352.0,0.5,28,91.21
1321,B-4,352.0,0.5,28,91.21
1322,G3,352.5,1.5,27,91.21
1323,G#2,352.5,979/1000,28,91.21
1324,E-4,352.5,1.5,37,91.21
1325,G4,352.5,1.5,37,91.21
1326,C#4,352.5,0.5,36,91.21
1327,C#5,352.5,0.5,36,91.21
1328,B3,353.0,0.5,32,91.21
1329,B4,353.0,0.5,32,91.21
1330,G#2,353.5,479/1000,25,91.21
1331,B-3,353.5,0.5,28,91.21
1332,B-4,353.5,0.5,28,91.21
1333,G#2,354.0,979/1000,28,91.21
1334,G#2,355.0,479/1000,25,91.21
1335,G#2,355.5,979/1000,28,91.21
1336,E-4,356.5,0.5,51,91.21
1337,G#2,356.5,479/1000,22,91.21
1338,G#4,357.0,3.0,55,91.21
1339,E-4,357.0,21/500,51,91.21
1340,E-3,357.0,3.0,40,91.21
1341,G#2,357.0,979/1000,28,91.21
1342,G#2,358.0,479/1000,25,91.21
1343,G#2,358.5,1.5,28,91.21
1344,G#4,360.0,271/500,55,91.21
1345,E-3,360.0,1.5,40,91.21
1346,G#2,360.0,3.0,28,91.21
1347,B4,360.5,271/500,56,91.21
1348,B-4,361.0,0.375,51,91.21
1349,G#4,361.333,0.125,45,91.21
1350,B-4,361.417,0.125,42,91.21
1351,G#4,361.5,271/500,57,91.21
1352,E3,361.5,1.5,40,91.21
1353,E4,362.0,271/500,48,91.21
1354,G#4,362.5,0.5,45,91.21
1355,G#4,363.0,521/500,51,91.21
1356,B3,363.0,1.0,42,91.21
1357,G#2,363.0,979/1000,28,91.21
1358,E-4,364.0,271/500,48,91.21
1359,G#2,364.0,479/1000,23,91.21
1360,F#4,364.5,1.5,52,91.21
1361,B-3,364.5,1.0,40,91.21
1362,G#2,364.5,979/1000,28,91.21
1363,A3,365.5,0.5,38,91.21
1364,G#2,365.5,479/1000,23,91.21
1365,F#4,366.0,271/500,52,91.21
1366,G#3,366.0,0.5,46,91.21
1367,G#2,366.0,979/1000,28,91.21
1368,E4,366.5,271/500,48,91.21
1369,G3,366.5,1.0,43,91.21
1370,E-4,367.0,417/1000,45,91.21
1371,G#2,367.0,479/1000,23,91.21
1372,E-4,367.417,0.125,41,91.21
1373,E4,367.5,271/500,52,91.21
1374,C3,367.5,1.0,48,91.21
1375,G#2,367.5,979/1000,28,91.21
1376,E-4,368.0,271/500,43,91.21
1377,C#4,368.5,0.5,41,91.21
1378,C#3,368.5,0.5,41,91.21
1379,G#2,368.5,479/1000,23,91.21
1380,E-4,369.0,0.5,51,91.21
1381,C#4,369.0,21/500,41,91.21
1382,G#2,369.0,979/1000,28,91.21
1383,G#3,369.5,2.0,46,91.21
1384,G#2,370.0,479/1000,23,91.21
1385,G#2,370.5,979/1000,28,91.21
1386,G#2,371.5,479/1000,23,91.21
1387,G#2,372.0,979/1000,28,91.21
1388,G#2,373.0,479/1000,23,91.21
1389,G#2,373.5,979/1000,28,91.21
1390,G#2,374.5,479/1000,23,91.21
1391,C#3,375.0,1.0,38,91.21
1392,G#2,375.0,979/1000,28,91.21
1393,G#3,375.0,1.0,35,91.21
1394,B-3,375.0,1.0,35,91.21
1395,C#4,375.0,1.0,35,91.21
1396,E4,375.0,1.0,35,91.21
1397,G#2,376.0,479/1000,23,91.21
1398,E-3,376.5,1.0,38,91.21
1399,G#2,376.5,979/1000,28,91.21
1400,G3,376.5,1.0,35,91.21
1401,B-3,376.5,1.0,35,91.21
1402,C#4,376.5,1.0,35,91.21
1403,E-4,376.5,1.0,35,91.21
1404,G#2,377.5,479/1000,23,91.21
1405,G#2,378.0,3.0,28,91.21
1406,C3,381.0,1.0,38,91.21
1407,F#3,381.0,1.0,35,91.21
1408,A3,381.0,1.0,35,91.21
1409,D4,381.0,1.0,35,91.21
1410,G#2,382.0,1479/1000,28,91.21
1411,C#3,382.5,1.0,38,91.21
1412,E3,382.5,1.0,35,91.21
1413,G#3,382.5,1.0,35,91.21
1414,C#4,382.5,1.0,35,91.21
1415,G#2,383.5,0.5,28,91.21
1416,G#2,384.0,979/1000,28,91.21
1417,G3,384.0,0.5,38,91.21
1418,B-3,384.0,0.5,38,91.21
1419,E-4,386.5,0.5,68,91.21
1420,E-5,386.5,0.5,68,91.21
1421,G#2,386.75,0.25,51,91.21
1422,E-3,386.875,0.125,51,91.21
1423,B3,387.0,1.0,51,91.21
1424,G#2,387.0,1.0,51,91.21
1425,E-3,387.0,1.0,51,91.21
1426,G#4,387.0,3.0,73,91.21
1427,G#5,387.0,3.0,73,91.21
