,note_name,start_time,duration,velocity,tempo
0,D5,2.0,1.0,43,86.31
1,F5,2.0,1.0,48,86.31
2,A5,2.0,1.0,48,86.31
3,D6,2.0,1.0,48,86.31
4,E6,3.0,0.5,54,86.31
5,A5,3.0,1.0,45,86.31
6,C6,3.0,1.0,45,86.31
7,C5,3.0,1.0,43,86.31
8,E5,3.0,1.0,43,86.31
9,A6,3.5,0.5,48,86.31
10,A5,4.0,1.0,48,86.31
11,D6,4.0,1.0,48,86.31
12,F6,4.0,1.0,48,86.31
13,D5,4.0,1.0,45,86.31
14,F5,4.0,1.0,45,86.31
15,E6,5.0,0.5,52,86.31
16,A5,5.0,1.0,44,86.31
17,C6,5.0,1.0,44,86.31
18,C5,5.0,1.0,41,86.31
19,E5,5.0,1.0,41,86.31
20,A6,5.5,0.5,46,86.31
21,B-5,6.0,1.0,45,86.31
22,D6,6.0,1.0,45,86.31
23,F6,6.0,1.0,45,86.31
24,B-4,6.0,1.0,40,86.31
25,D5,6.0,1.0,40,86.31
26,G5,7.0,1.0,50,86.31
27,B-5,7.0,1.0,50,86.31
28,D6,7.0,1.0,50,86.31
29,G4,7.0,1.0,39,86.31
30,B-4,7.0,1.0,39,86.31
31,E7,8.0,1.0,50,86.31
32,G6,8.0,1.0,50,86.31
33,E6,8.0,1.0,50,86.31
34,E4,8.0,1.0,34,86.31
35,B-4,8.0,1.0,34,86.31
36,D5,8.0,1.0,34,86.31
37,B-6,9.0,1.0,44,86.31
38,G6,9.0,1.0,44,86.31
39,E6,9.0,1.0,44,86.31
40,G4,9.0,1.0,28,86.31
41,B-4,9.0,1.0,28,86.31
42,D5,9.0,1.0,28,86.31
43,A6,10.0,1.0,39,86.31
44,G6,10.0,1.0,39,86.31
45,E6,10.0,1.0,39,86.31
46,A4,10.0,1.0,25,86.31
47,C#5,10.0,1.0,25,86.31
48,G4,13.0,1.0,50,86.31
49,B-4,13.0,1.0,50,86.31
50,G3,13.0,1.0,40,86.31
51,D4,13.0,1.0,40,86.31
52,E4,14.0,1.0,50,86.31
53,A4,14.0,1.0,50,86.31
54,A3,14.0,1.0,40,86.31
55,C#4,14.0,1.0,40,86.31
56,F4,15.0,1.0,48,86.31
57,A4,15.0,1.0,48,86.31
58,D5,15.0,1.0,48,86.31
59,F3,15.0,1.0,40,86.31
60,D4,15.0,1.0,40,86.31
61,E5,16.0,0.5,58,86.31
62,A4,16.0,1.0,49,86.31
63,C#5,16.0,1.0,49,86.31
64,C#4,16.0,1.0,40,86.31
65,E3,16.0,1.0,40,86.31
66,A5,16.5,0.5,53,86.31
67,A4,17.0,1.0,51,86.31
68,D5,17.0,1.0,51,86.31
69,F5,17.0,1.0,51,86.31
70,D4,17.0,1.0,42,86.31
71,D3,17.0,1.0,42,86.31
72,E5,18.0,0.5,59,86.31
73,A4,18.0,1.0,54,86.31
74,C5,18.0,1.0,54,86.31
75,C4,18.0,1.0,38,86.31
76,C3,18.0,1.0,38,86.31
77,A5,18.5,0.5,55,86.31
78,F4,19.0,0.938,54,86.31
79,D5,19.0,0.938,54,86.31
80,F5,19.0,0.938,54,86.31
81,B-3,19.0,0.938,37,86.31
82,B-2,19.0,0.938,37,86.31
83,D4,20.0,1.0,56,86.31
84,B-4,20.0,1.0,56,86.31
85,D5,20.0,1.0,56,86.31
86,G3,20.0,1.0,43,86.31
87,G2,20.0,1.0,43,86.31
88,E4,21.0,1.0,53,86.31
89,G4,21.0,1.0,53,86.31
90,E5,21.0,1.0,53,86.31
91,C3,21.0,1.0,40,86.31
92,C2,21.0,1.0,40,86.31
93,F4,22.0,1.0,51,86.31
94,B-4,22.0,1.0,51,86.31
95,B-3,22.0,1.0,51,86.31
96,D2,22.0,1.0,35,86.31
97,D3,22.0,1.0,35,86.31
98,A3,23.0,0.938,47,86.31
99,A4,23.0,0.938,47,86.31
100,E4,23.0,0.938,47,86.31
101,C#2,23.0,0.938,32,86.31
102,C#3,23.0,0.938,32,86.31
103,A1,24.0,1.0,61,86.31
104,A2,24.0,1.0,61,86.31
105,B-1,25.0,1.0,66,86.31
106,B-2,25.0,1.0,66,86.31
107,C#4,26.0,2.0,61,86.31
108,C#3,26.0,2.0,61,86.31
109,E1,26.0,1.0,61,86.31
110,E2,26.0,1.0,61,86.31
111,A1,27.0,0.5,61,86.31
112,A2,27.0,0.5,61,86.31
113,B-1,27.5,0.5,56,86.31
114,B-2,27.5,0.5,56,86.31
115,G4,28.0,1.0,66,86.31
116,G3,28.0,1.0,66,86.31
117,E1,28.0,1.0,58,86.31
118,E2,28.0,1.0,58,86.31
119,E4,29.0,1.0,62,86.31
120,E3,29.0,1.0,62,86.31
121,B-1,29.0,0.5,61,86.31
122,B-2,29.0,0.5,61,86.31
123,C2,29.5,0.5,56,86.31
124,C3,29.5,0.5,56,86.31
125,A4,30.0,1.5,68,86.31
126,A3,30.0,1.5,68,86.31
127,A1,30.0,1.0,57,86.31
128,A2,30.0,1.0,57,86.31
129,A2,31.0,0.938,68,86.31
130,A3,31.0,0.938,68,86.31
131,A5,32.0,1.0,69,86.31
132,A4,32.0,1.0,69,86.31
133,F2,32.0,1.0,71,86.31
134,F3,32.0,1.0,71,86.31
135,B-4,33.0,1.0,72,86.31
136,B-5,33.0,1.0,72,86.31
137,E2,33.0,0.5,71,86.31
138,E3,33.0,0.5,71,86.31
139,D3,33.5,0.5,62,86.31
140,D2,33.5,0.5,62,86.31
141,A5,34.0,1.0,68,86.31
142,A4,34.0,1.0,68,86.31
143,A1,34.0,1.0,66,86.31
144,A2,34.0,1.0,66,86.31
145,G4,35.0,0.5,69,86.31
146,G5,35.0,0.5,69,86.31
147,B-1,35.0,1.0,61,86.31
148,B-2,35.0,1.0,61,86.31
149,F4,35.5,0.5,66,86.31
150,F5,35.5,0.5,66,86.31
151,A4,36.0,1.0,66,86.31
152,A5,36.0,1.0,66,86.31
153,F1,36.0,1.0,61,86.31
154,F2,36.0,1.0,61,86.31
155,B-4,37.0,1.0,72,86.31
156,B-5,37.0,1.0,72,86.31
157,G1,37.0,3.0,56,86.31
158,G2,37.0,3.0,56,86.31
159,E4,38.0,1.0,66,86.31
160,E5,38.0,1.0,66,86.31
161,A4,39.0,0.5,66,86.31
162,A5,39.0,0.5,66,86.31
163,B-4,39.5,0.5,62,86.31
164,B-5,39.5,0.5,62,86.31
165,E4,40.0,1.0,64,86.31
166,E5,40.0,1.0,64,86.31
167,B-1,40.0,1.0,56,86.31
168,B-2,40.0,1.0,56,86.31
169,B-4,41.0,0.5,72,86.31
170,B-5,41.0,0.5,72,86.31
171,E2,41.0,1.938,64,86.31
172,E3,41.0,1.938,64,86.31
173,C5,41.5,0.5,66,86.31
174,C6,41.5,0.5,66,86.31
175,A4,42.0,0.938,68,86.31
176,A5,42.0,0.938,68,86.31
177,A5,43.0,1.0,81,86.31
178,A6,43.0,1.0,81,86.31
179,A1,43.0,1.0,66,86.31
180,A2,43.0,1.0,66,86.31
181,F5,44.0,1.0,84,86.31
182,F6,44.0,1.0,84,86.31
183,B-1,44.0,1.0,64,86.31
184,B-2,44.0,1.0,64,86.31
185,E5,45.0,0.5,76,86.31
186,E6,45.0,0.5,76,86.31
187,G1,45.0,1.0,57,86.31
188,G2,45.0,1.0,57,86.31
189,D6,45.5,0.5,71,86.31
190,D5,45.5,0.5,71,86.31
191,A4,46.0,1.0,63,86.31
192,A5,46.0,1.0,63,86.31
193,A1,46.0,1.0,54,86.31
194,A2,46.0,1.0,54,86.31
195,A3,48.0,1.0,50,86.31
196,A2,48.0,1.0,45,86.31
197,A4,49.0,0.875,50,86.31
198,A3,49.0,1.0,45,86.31
199,D6,49.875,0.125,47,86.31
200,C6,50.0,0.125,61,86.31
201,A5,50.0,0.125,61,86.31
202,F5,50.0,0.125,61,86.31
203,F4,50.25,0.125,43,86.31
204,A4,50.25,0.125,43,86.31
205,C5,50.25,0.125,43,86.31
206,C#5,50.5,0.125,53,86.31
207,G#5,50.5,0.125,53,86.31
208,F5,50.5,0.125,53,86.31
209,B4,50.75,0.125,37,86.31
210,G#4,50.75,0.125,37,86.31
211,F4,50.75,0.125,37,86.31
212,A4,52.0,1.0,45,86.31
213,A3,52.0,1.0,39,86.31
214,A5,54.0,0.5,36,86.31
215,A4,54.0,0.5,34,86.31
216,D6,54.875,0.125,45,86.31
217,C6,55.0,0.25,40,86.31
218,A5,55.0,0.25,40,86.31
219,F5,55.0,0.25,40,86.31
220,F4,55.5,0.25,30,86.31
221,A4,55.5,0.25,30,86.31
222,C5,55.5,0.25,30,86.31
223,C6,55.875,0.125,33,86.31
224,B5,56.0,0.25,36,86.31
225,G#5,56.0,0.25,36,86.31
226,F5,56.0,0.25,36,86.31
227,C#5,56.5,0.25,28,86.31
228,G#4,56.5,0.25,28,86.31
229,F4,56.5,0.25,28,86.31
230,D6,56.875,0.125,40,86.31
231,C6,57.0,0.25,40,86.31
232,A5,57.0,0.25,40,86.31
233,F5,57.0,0.25,40,86.31
234,F4,57.5,0.25,30,86.31
235,A4,57.5,0.25,30,86.31
236,C5,57.5,0.25,30,86.31
237,G#5,58.0,0.25,40,86.31
238,F5,58.0,0.25,40,86.31
239,C#5,58.0,0.25,40,86.31
240,B4,58.0,0.25,33,86.31
241,G#4,58.0,0.25,33,86.31
242,D6,58.375,0.125,31,86.31
243,C6,58.5,0.25,33,86.31
244,A5,58.5,0.25,33,86.31
245,F5,58.5,0.25,33,86.31
246,D6,58.875,0.125,45,86.31
247,C6,59.0,0.25,40,86.31
248,A5,59.0,0.25,40,86.31
249,F5,59.0,0.25,40,86.31
250,F4,59.5,0.25,30,86.31
251,A4,59.5,0.25,30,86.31
252,C5,59.5,0.25,30,86.31
253,C6,59.875,0.125,33,86.31
254,B5,60.0,0.25,36,86.31
255,G#5,60.0,0.25,36,86.31
256,F5,60.0,0.25,36,86.31
257,C#5,60.5,0.25,28,86.31
258,G#4,60.5,0.25,28,86.31
259,F4,60.5,0.25,28,86.31
260,D6,60.875,0.125,40,86.31
261,C6,61.0,0.25,40,86.31
262,A5,61.0,0.25,40,86.31
263,F5,61.0,0.25,40,86.31
264,F4,61.5,0.25,30,86.31
265,A4,61.5,0.25,30,86.31
266,C5,61.5,0.25,30,86.31
267,G#5,62.0,0.25,40,86.31
268,F5,62.0,0.25,40,86.31
269,C#5,62.0,0.25,40,86.31
270,G#4,62.5,0.25,33,86.31
271,B4,62.5,0.25,33,86.31
272,B3,63.0,0.25,34,86.31
273,F#4,63.375,0.125,32,86.31
274,C4,63.5,0.25,33,86.31
275,G4,63.5,0.25,30,86.31
276,E4,63.5,0.25,30,86.31
277,D4,64.0,0.25,34,86.31
278,A4,64.375,0.125,32,86.31
279,E-4,64.5,0.25,35,86.31
280,B-4,64.5,0.25,30,86.31
281,G4,64.5,0.25,30,86.31
282,E4,65.0,0.25,36,86.31
283,B4,65.375,0.125,32,86.31
284,F4,65.5,0.25,38,86.31
285,G#4,65.5,0.25,32,86.31
286,C5,65.5,0.25,32,86.31
287,G4,66.0,0.25,39,86.31
288,D5,66.375,0.125,32,86.31
289,G#4,66.5,0.25,40,86.31
290,E-5,66.5,0.25,34,86.31
291,C5,66.5,0.25,34,86.31
292,B-4,67.0,0.25,41,86.31
293,F5,67.375,0.125,32,86.31
294,B4,67.5,0.25,43,86.31
295,F#5,67.5,0.25,36,86.31
296,E-5,67.5,0.25,36,86.31
297,C5,68.0,0.25,44,86.31
298,A5,68.375,0.125,32,86.31
299,C#5,68.5,0.25,45,86.31
300,B-5,68.5,0.25,37,86.31
301,F#5,68.5,0.25,37,86.31
302,D5,69.0,0.25,46,86.31
303,D6,69.375,0.125,32,86.31
304,E-5,69.5,0.25,47,86.31
305,E-6,69.5,0.25,35,86.31
306,B-5,69.5,0.25,35,86.31
307,G5,69.5,0.25,35,86.31
308,E5,70.0,0.25,46,86.31
309,A6,70.375,0.125,32,86.31
310,C5,70.5,0.25,45,86.31
311,G6,70.5,0.25,35,86.31
312,E6,70.5,0.25,35,86.31
313,C6,70.5,0.25,35,86.31
314,D6,70.875,0.125,45,86.31
315,C6,71.0,0.25,40,86.31
316,A5,71.0,0.25,40,86.31
317,F5,71.0,0.25,40,86.31
318,F4,71.5,0.25,30,86.31
319,A4,71.5,0.25,30,86.31
320,C5,71.5,0.25,30,86.31
321,C6,71.875,0.125,33,86.31
322,B5,72.0,0.25,36,86.31
323,G#5,72.0,0.25,36,86.31
324,F5,72.0,0.25,36,86.31
325,C#5,72.5,0.25,28,86.31
326,G#4,72.5,0.25,28,86.31
327,F4,72.5,0.25,28,86.31
328,D6,72.875,0.125,40,86.31
329,C6,73.0,0.25,40,86.31
330,A5,73.0,0.25,40,86.31
331,F5,73.0,0.25,40,86.31
332,F4,73.5,0.25,30,86.31
333,A4,73.5,0.25,30,86.31
334,C5,73.5,0.25,30,86.31
335,C6,73.875,0.125,33,86.31
336,G#5,74.0,0.25,40,86.31
337,F5,74.0,0.25,40,86.31
338,B5,74.0,0.25,40,86.31
339,C#5,74.0,0.25,33,86.31
340,G#4,74.0,0.25,33,86.31
341,D6,74.375,0.125,31,86.31
342,C6,74.5,0.25,33,86.31
343,A5,74.5,0.25,33,86.31
344,F5,74.5,0.25,33,86.31
345,D6,74.875,0.125,45,86.31
346,C6,75.0,0.25,40,86.31
347,A5,75.0,0.25,40,86.31
348,F5,75.0,0.25,40,86.31
349,F4,75.5,0.25,30,86.31
350,A4,75.5,0.25,30,86.31
351,C5,75.5,0.25,30,86.31
352,C6,75.875,0.125,33,86.31
353,B5,76.0,0.25,36,86.31
354,G#5,76.0,0.25,36,86.31
355,F5,76.0,0.25,36,86.31
356,C#5,76.5,0.25,28,86.31
357,G#4,76.5,0.25,28,86.31
358,F4,76.5,0.25,28,86.31
359,D6,76.875,0.125,40,86.31
360,C6,77.0,0.25,40,86.31
361,A5,77.0,0.25,40,86.31
362,F5,77.0,0.25,40,86.31
363,F4,77.5,0.25,30,86.31
364,A4,77.5,0.25,30,86.31
365,C5,77.5,0.25,30,86.31
366,G#5,78.0,0.25,40,86.31
367,F5,78.0,0.25,40,86.31
368,C#5,78.0,0.25,40,86.31
369,G#4,78.5,0.25,33,86.31
370,B4,78.5,0.25,33,86.31
371,C#4,79.0,0.25,34,86.31
372,B-4,79.375,0.125,32,86.31
373,E-4,79.5,0.25,33,86.31
374,B4,79.5,0.25,30,86.31
375,G#4,79.5,0.25,30,86.31
376,E4,80.0,0.25,34,86.31
377,C5,80.375,0.125,32,86.31
378,F4,80.5,0.25,35,86.31
379,C#5,80.5,0.25,30,86.31
380,A4,80.5,0.25,30,86.31
381,F#4,81.0,0.25,36,86.31
382,E-5,81.375,0.125,32,86.31
383,G#4,81.5,0.25,38,86.31
384,C#5,81.5,0.25,32,86.31
385,E5,81.5,0.25,32,86.31
386,A4,82.0,0.25,39,86.31
387,F5,82.375,0.125,32,86.31
388,B-4,82.5,0.25,40,86.31
389,F#5,82.5,0.25,34,86.31
390,D5,82.5,0.25,34,86.31
391,E-4,83.0,0.25,34,86.31
392,C5,83.375,0.125,32,86.31
393,F4,83.5,0.25,33,86.31
394,C#5,83.5,0.25,30,86.31
395,B-4,83.5,0.25,30,86.31
396,F#4,84.0,0.25,34,86.31
397,D5,84.375,0.125,32,86.31
398,G4,84.5,0.25,35,86.31
399,E-5,84.5,0.25,32,86.31
400,B4,84.5,0.25,32,86.31
401,G#4,85.0,0.25,36,86.31
402,E5,85.375,0.125,32,86.31
403,B-4,85.5,0.25,38,86.31
404,C#5,85.5,0.25,32,86.31
405,F5,85.5,0.25,32,86.31
406,B4,86.0,0.25,39,86.31
407,G5,86.375,0.125,32,86.31
408,C5,86.5,0.25,40,86.31
409,G#5,86.5,0.25,34,86.31
410,E5,86.5,0.25,34,86.31
411,A6,86.875,0.125,55,86.31
412,C4,87.0,0.25,51,86.31
413,B-6,87.0,0.25,58,86.31
414,F#6,87.0,0.25,58,86.31
415,E4,87.5,0.25,47,86.31
416,G#6,87.875,0.125,51,86.31
417,C#4,88.0,0.25,52,86.31
418,A6,88.0,0.25,52,86.31
419,F6,88.0,0.25,52,86.31
420,F4,88.5,0.25,47,86.31
421,B-5,88.875,0.125,50,86.31
422,E-4,89.0,0.25,53,86.31
423,B5,89.0,0.25,50,86.31
424,A5,89.0,0.25,50,86.31
425,F#4,89.5,0.25,50,86.31
426,B-5,89.875,0.125,47,86.31
427,E4,90.0,0.25,54,86.31
428,C6,90.0,0.25,48,86.31
429,G5,90.0,0.25,48,86.31
430,G4,90.5,0.25,52,86.31
431,E6,90.875,0.125,53,86.31
432,F4,91.0,0.25,56,86.31
433,F6,91.0,0.25,52,86.31
434,C#6,91.0,0.25,52,86.31
435,A4,91.5,0.25,51,86.31
436,C#6,91.875,0.125,51,86.31
437,F#4,92.0,0.25,57,86.31
438,B-5,92.0,0.25,50,86.31
439,D6,92.0,0.25,50,86.31
440,B-4,92.5,0.25,53,86.31
441,E5,92.875,0.125,55,86.31
442,G#4,93.0,0.25,58,86.31
443,C#5,93.0,0.25,56,86.31
444,F5,93.0,0.25,56,86.31
445,B4,93.5,0.25,56,86.31
446,F#5,93.875,0.125,53,86.31
447,B-4,94.0,0.5,59,86.31
448,G5,94.0,0.25,52,86.31
449,E5,94.0,0.25,52,86.31
450,C5,94.5,0.5,55,86.31
451,C#6,95.0,2.0,79,86.31
452,C#6,97.0,0.5,79,86.31
453,C6,97.875,0.125,59,86.31
454,C5,98.0,0.25,75,86.31
455,D6,98.875,0.125,45,86.31
456,C6,99.0,0.25,40,86.31
457,A5,99.0,0.25,40,86.31
458,F5,99.0,0.25,40,86.31
459,F4,99.5,0.25,30,86.31
460,A4,99.5,0.25,30,86.31
461,C5,99.5,0.25,30,86.31
462,C6,99.875,0.125,33,86.31
463,B5,100.0,0.25,36,86.31
464,G#5,100.0,0.25,36,86.31
465,F5,100.0,0.25,36,86.31
466,C#5,100.5,0.25,28,86.31
467,G#4,100.5,0.25,28,86.31
468,F4,100.5,0.25,28,86.31
469,D6,100.875,0.125,40,86.31
470,C6,101.0,0.25,40,86.31
471,A5,101.0,0.25,40,86.31
472,F5,101.0,0.25,40,86.31
473,F4,101.5,0.25,30,86.31
474,A4,101.5,0.25,30,86.31
475,C5,101.5,0.25,30,86.31
476,G#5,102.0,0.25,40,86.31
477,F5,102.0,0.25,40,86.31
478,C#5,102.0,0.25,40,86.31
479,B4,102.0,0.25,33,86.31
480,G#4,102.0,0.25,33,86.31
481,D6,102.375,0.125,31,86.31
482,C6,102.5,0.25,33,86.31
483,A5,102.5,0.25,33,86.31
484,F5,102.5,0.25,33,86.31
485,D6,102.875,0.125,45,86.31
486,C6,103.0,0.25,40,86.31
487,A5,103.0,0.25,40,86.31
488,F5,103.0,0.25,40,86.31
489,F4,103.5,0.25,30,86.31
490,A4,103.5,0.25,30,86.31
491,C5,103.5,0.25,30,86.31
492,C6,103.875,0.125,33,86.31
493,B5,104.0,0.25,36,86.31
494,G#5,104.0,0.25,36,86.31
495,F5,104.0,0.25,36,86.31
496,C#5,104.5,0.25,28,86.31
497,G#4,104.5,0.25,28,86.31
498,F4,104.5,0.25,28,86.31
499,D6,104.875,0.125,40,86.31
500,C6,105.0,0.25,40,86.31
501,A5,105.0,0.25,40,86.31
502,F5,105.0,0.25,40,86.31
503,F4,105.5,0.25,30,86.31
504,A4,105.5,0.25,30,86.31
505,C5,105.5,0.25,30,86.31
506,G#5,106.0,0.25,40,86.31
507,F5,106.0,0.25,40,86.31
508,C#5,106.0,0.25,40,86.31
509,G#4,106.5,0.25,33,86.31
510,B4,106.5,0.25,33,86.31
511,B3,107.0,0.25,34,86.31
512,F#4,107.375,0.125,32,86.31
513,C4,107.5,0.25,33,86.31
514,G4,107.5,0.25,30,86.31
515,E4,107.5,0.25,30,86.31
516,D4,108.0,0.25,34,86.31
517,A4,108.375,0.125,32,86.31
518,E-4,108.5,0.25,35,86.31
519,B-4,108.5,0.25,30,86.31
520,G4,108.5,0.25,30,86.31
521,E4,109.0,0.25,35,86.31
522,B4,109.375,0.125,32,86.31
523,F4,109.5,0.25,37,86.31
524,G#4,109.5,0.25,32,86.31
525,C5,109.5,0.25,32,86.31
526,G4,110.0,0.25,39,86.31
527,D5,110.375,0.125,32,86.31
528,G#4,110.5,0.25,42,86.31
529,E-5,110.5,0.25,34,86.31
530,C5,110.5,0.25,34,86.31
531,B-4,111.0,0.25,44,86.31
532,F5,111.375,0.125,32,86.31
533,B4,111.5,0.25,43,86.31
534,F#5,111.5,0.25,36,86.31
535,E-5,111.5,0.25,36,86.31
536,C5,112.0,0.25,45,86.31
537,A5,112.375,0.125,32,86.31
538,C#5,112.5,0.25,46,86.31
539,B-5,112.5,0.25,37,86.31
540,F#5,112.5,0.25,37,86.31
541,D5,113.0,0.25,48,86.31
542,D6,113.375,0.125,32,86.31
543,E-5,113.5,0.25,50,86.31
544,E-6,113.5,0.25,35,86.31
545,B-5,113.5,0.25,35,86.31
546,G5,113.5,0.25,35,86.31
547,E5,114.0,0.25,50,86.31
548,A6,114.375,0.125,32,86.31
549,C5,114.5,0.25,45,86.31
550,G6,114.5,0.25,35,86.31
551,E6,114.5,0.25,35,86.31
552,C6,114.5,0.25,35,86.31
553,D6,114.875,0.125,45,86.31
554,C6,115.0,0.25,40,86.31
555,A5,115.0,0.25,40,86.31
556,F5,115.0,0.25,40,86.31
557,F4,115.5,0.25,30,86.31
558,A4,115.5,0.25,30,86.31
559,C5,115.5,0.25,30,86.31
560,C6,115.875,0.125,33,86.31
561,B5,116.0,0.25,36,86.31
562,G#5,116.0,0.25,36,86.31
563,F5,116.0,0.25,36,86.31
564,C#5,116.5,0.25,28,86.31
565,G#4,116.5,0.25,28,86.31
566,F4,116.5,0.25,28,86.31
567,D6,116.875,0.125,40,86.31
568,C6,117.0,0.25,40,86.31
569,A5,117.0,0.25,40,86.31
570,F5,117.0,0.25,40,86.31
571,F4,117.5,0.25,30,86.31
572,A4,117.5,0.25,30,86.31
573,C5,117.5,0.25,30,86.31
574,C6,117.875,0.125,33,86.31
575,G#5,118.0,0.25,40,86.31
576,F5,118.0,0.25,40,86.31
577,B5,118.0,0.25,40,86.31
578,C#5,118.0,0.25,33,86.31
579,G#4,118.0,0.25,33,86.31
580,D6,118.375,0.125,31,86.31
581,C6,118.5,0.25,33,86.31
582,A5,118.5,0.25,33,86.31
583,F5,118.5,0.25,33,86.31
584,D6,118.875,0.125,45,86.31
585,C6,119.0,0.25,40,86.31
586,A5,119.0,0.25,40,86.31
587,F5,119.0,0.25,40,86.31
588,F4,119.5,0.25,30,86.31
589,A4,119.5,0.25,30,86.31
590,C5,119.5,0.25,30,86.31
591,C6,119.875,0.125,33,86.31
592,B5,120.0,0.25,36,86.31
593,G#5,120.0,0.25,36,86.31
594,F5,120.0,0.25,36,86.31
595,C#5,120.5,0.25,28,86.31
596,G#4,120.5,0.25,28,86.31
597,F4,120.5,0.25,28,86.31
598,D6,120.875,0.125,40,86.31
599,C6,121.0,0.25,40,86.31
600,A5,121.0,0.25,40,86.31
601,F5,121.0,0.25,40,86.31
602,F4,121.5,0.25,30,86.31
603,A4,121.5,0.25,30,86.31
604,C5,121.5,0.25,30,86.31
605,G#5,122.0,0.25,40,86.31
606,F5,122.0,0.25,40,86.31
607,C#5,122.0,0.25,40,86.31
608,G#4,122.5,0.25,33,86.31
609,B4,122.5,0.25,33,86.31
610,C#4,123.0,0.25,34,86.31
611,B-4,123.375,0.125,32,86.31
612,E-4,123.5,0.25,33,86.31
613,B4,123.5,0.25,30,86.31
614,G#4,123.5,0.25,30,86.31
615,E4,124.0,0.25,34,86.31
616,C5,124.375,0.125,32,86.31
617,F4,124.5,0.25,35,86.31
618,C#5,124.5,0.25,30,86.31
619,A4,124.5,0.25,30,86.31
620,F#4,125.0,0.25,36,86.31
621,E-5,125.375,0.125,32,86.31
622,G#4,125.5,0.25,38,86.31
623,C#5,125.5,0.25,32,86.31
624,E5,125.5,0.25,32,86.31
625,A4,126.0,0.25,39,86.31
626,F5,126.375,0.125,32,86.31
627,B-4,126.5,0.25,40,86.31
628,F#5,126.5,0.25,34,86.31
629,D5,126.5,0.25,34,86.31
630,E-4,127.0,0.25,34,86.31
631,C5,127.375,0.125,32,86.31
632,F4,127.5,0.25,33,86.31
633,C#5,127.5,0.25,30,86.31
634,B-4,127.5,0.25,30,86.31
635,F#4,128.0,0.25,34,86.31
636,D5,128.375,0.125,32,86.31
637,G4,128.5,0.25,35,86.31
638,E-5,128.5,0.25,30,86.31
639,B4,128.5,0.25,30,86.31
640,G#4,129.0,0.25,36,86.31
641,E5,129.375,0.125,32,86.31
642,B-4,129.5,0.25,38,86.31
643,C#5,129.5,0.25,32,86.31
644,F5,129.5,0.25,32,86.31
645,B4,130.0,0.25,39,86.31
646,G5,130.375,0.125,32,86.31
647,C5,130.5,0.25,40,86.31
648,G#5,130.5,0.25,34,86.31
649,E5,130.5,0.25,34,86.31
650,A6,130.875,0.125,55,86.31
651,C4,131.0,0.25,51,86.31
652,B-6,131.0,0.25,60,86.31
653,F#6,131.0,0.25,60,86.31
654,E4,131.5,0.25,47,86.31
655,G#6,131.875,0.125,51,86.31
656,C#4,132.0,0.25,52,86.31
657,A6,132.0,0.25,54,86.31
658,F6,132.0,0.25,54,86.31
659,F4,132.5,0.25,47,86.31
660,B-5,132.875,0.125,50,86.31
661,E-4,133.0,0.25,53,86.31
662,B5,133.0,0.25,52,86.31
663,A5,133.0,0.25,52,86.31
664,F#4,133.5,0.25,50,86.31
665,B-5,133.875,0.125,47,86.31
666,E4,134.0,0.25,54,86.31
667,C6,134.0,0.25,50,86.31
668,G5,134.0,0.25,50,86.31
669,G4,134.5,0.25,52,86.31
670,E6,134.875,0.125,53,86.31
671,F4,135.0,0.25,56,86.31
672,F6,135.0,0.25,54,86.31
673,C#6,135.0,0.25,54,86.31
674,A4,135.5,0.25,51,86.31
675,C#6,135.875,0.125,51,86.31
676,F#4,136.0,0.25,57,86.31
677,B-5,136.0,0.25,52,86.31
678,D6,136.0,0.25,52,86.31
679,B-4,136.5,0.25,53,86.31
680,E5,136.875,0.125,55,86.31
681,G#4,137.0,0.25,58,86.31
682,C#5,137.0,0.25,56,86.31
683,F5,137.0,0.25,56,86.31
684,B4,137.5,0.25,56,86.31
685,F#5,137.875,0.125,53,86.31
686,B-4,138.0,0.5,59,86.31
687,G5,138.0,0.25,52,86.31
688,E5,138.0,0.25,52,86.31
689,C5,138.5,0.5,55,86.31
690,C#6,139.0,2.0,79,86.31
691,C#6,141.0,0.5,79,86.31
692,C6,141.875,0.125,59,86.31
693,C5,142.0,0.25,75,86.31
694,G6,142.833,167/1000,38,86.31
695,D6,143.0,2.0,41,86.31
696,F6,143.0,167/1000,41,86.31
697,F3,143.0,2.0,45,86.31
698,G6,143.167,167/1000,33,86.31
699,F6,143.333,167/1000,41,86.31
700,G6,143.5,167/1000,33,86.31
701,F4,143.5,0.5,36,86.31
702,F6,143.667,167/1000,41,86.31
703,G6,143.833,167/1000,33,86.31
704,F6,144.0,167/1000,41,86.31
705,A3,144.0,1.0,43,86.31
706,G6,144.167,167/1000,33,86.31
707,F6,144.333,167/1000,41,86.31
708,G6,144.5,167/1000,33,86.31
709,F4,144.5,0.5,36,86.31
710,F6,144.667,167/1000,41,86.31
711,E6,144.833,0.125,35,86.31
712,B5,145.0,2.0,37,86.31
713,D6,145.0,167/1000,37,86.31
714,G#3,145.0,1.0,45,86.31
715,F3,145.0,2.0,45,86.31
716,E6,145.167,167/1000,30,86.31
717,D6,145.333,167/1000,37,86.31
718,E6,145.5,167/1000,31,86.31
719,F4,145.5,0.5,36,86.31
720,D6,145.667,167/1000,37,86.31
721,E6,145.833,167/1000,36,86.31
722,D6,146.0,167/1000,37,86.31
723,B3,146.0,1.0,43,86.31
724,E6,146.167,167/1000,32,86.31
725,D6,146.333,167/1000,37,86.31
726,E6,146.5,167/1000,31,86.31
727,F4,146.5,0.5,36,86.31
728,D6,146.667,167/1000,37,86.31
729,D6,146.833,167/1000,38,86.31
730,A5,147.0,1.0,41,86.31
731,C6,147.0,167/1000,41,86.31
732,F3,147.0,2.0,45,86.31
733,D6,147.167,167/1000,32,86.31
734,C6,147.333,167/1000,37,86.31
735,D6,147.5,167/1000,31,86.31
736,F4,147.5,0.5,36,86.31
737,C6,147.667,167/1000,37,86.31
738,E6,147.833,167/1000,38,86.31
739,B5,148.0,1.0,37,86.31
740,D6,148.0,167/1000,37,86.31
741,B3,148.0,1.0,43,86.31
742,E6,148.167,167/1000,32,86.31
743,D6,148.333,167/1000,37,86.31
744,E6,148.5,167/1000,33,86.31
745,F4,148.5,0.5,35,86.31
746,D6,148.667,167/1000,36,86.31
747,D6,148.833,167/1000,38,86.31
748,A5,149.0,1.0,39,86.31
749,C6,149.0,167/1000,39,86.31
750,A3,149.0,1.0,42,86.31
751,F3,149.0,2.0,45,86.31
752,D6,149.167,167/1000,34,86.31
753,C6,149.333,167/1000,39,86.31
754,D6,149.5,167/1000,33,86.31
755,F4,149.5,0.5,33,86.31
756,C6,149.667,167/1000,39,86.31
757,C#6,149.833,167/1000,38,86.31
758,F5,150.0,1.0,36,86.31
759,B5,150.0,167/1000,36,86.31
760,G#3,150.0,1.0,41,86.31
761,C#6,150.167,167/1000,31,86.31
762,B5,150.333,167/1000,36,86.31
763,C#6,150.5,167/1000,31,86.31
764,F4,150.5,0.5,36,86.31
765,B5,150.667,167/1000,37,86.31
766,D6,150.833,167/1000,36,86.31
767,A5,151.0,2.0,37,86.31
768,C6,151.0,167/1000,37,86.31
769,F3,151.0,2.0,45,86.31
770,D6,151.167,167/1000,30,86.31
771,C6,151.333,167/1000,37,86.31
772,D6,151.5,167/1000,31,86.31
773,F4,151.5,0.5,36,86.31
774,C6,151.667,167/1000,36,86.31
775,D6,151.833,167/1000,31,86.31
776,C6,152.0,167/1000,36,86.31
777,A3,152.0,1.0,42,86.31
778,D6,152.167,167/1000,31,86.31
779,C6,152.333,167/1000,36,86.31
780,D6,152.5,167/1000,30,86.31
781,F4,152.5,0.5,35,86.31
782,C6,152.667,167/1000,35,86.31
783,C#6,152.833,167/1000,35,86.31
784,F5,153.0,2.0,35,86.31
785,B5,153.0,167/1000,35,86.31
786,G#3,153.0,1.0,39,86.31
787,F3,153.0,2.0,45,86.31
788,C#6,153.167,167/1000,28,86.31
789,B5,153.333,167/1000,35,86.31
790,C#6,153.5,167/1000,29,86.31
791,F4,153.5,0.5,32,86.31
792,B5,153.667,167/1000,35,86.31
793,C#6,153.833,167/1000,30,86.31
794,B5,154.0,167/1000,35,86.31
795,B3,154.0,1.0,39,86.31
796,C#6,154.167,167/1000,30,86.31
797,B5,154.333,167/1000,34,86.31
798,C#6,154.5,167/1000,29,86.31
799,F4,154.5,0.5,33,86.31
800,B5,154.667,167/1000,34,86.31
801,B5,154.833,167/1000,33,86.31
802,D5,155.0,2.0,34,86.31
803,A5,155.0,167/1000,34,86.31
804,F3,155.0,2.0,38,86.31
805,B5,155.167,167/1000,27,86.31
806,A5,155.333,167/1000,32,86.31
807,B5,155.5,167/1000,28,86.31
808,F4,155.5,0.5,30,86.31
809,A5,155.667,167/1000,32,86.31
810,B5,155.833,167/1000,29,86.31
811,A5,156.0,167/1000,31,86.31
812,B3,156.0,1.0,36,86.31
813,B5,156.167,167/1000,29,86.31
814,A5,156.333,167/1000,30,86.31
815,B5,156.5,167/1000,27,86.31
816,F4,156.5,0.5,29,86.31
817,A5,156.667,167/1000,30,86.31
818,G5,156.833,167/1000,30,86.31
819,C#5,157.0,2.0,28,86.31
820,F5,157.0,167/1000,28,86.31
821,A3,157.0,1.0,34,86.31
822,F3,157.0,2.0,34,86.31
823,G5,157.167,167/1000,24,86.31
824,F5,157.333,167/1000,28,86.31
825,G5,157.5,167/1000,23,86.31
826,F4,157.5,0.5,25,86.31
827,F5,157.667,167/1000,27,86.31
828,G5,157.833,167/1000,26,86.31
829,F5,158.0,167/1000,28,86.31
830,G#3,158.0,1.0,32,86.31
831,G5,158.167,167/1000,23,86.31
832,F5,158.333,167/1000,28,86.31
833,G5,158.5,167/1000,24,86.31
834,F4,158.5,0.5,25,86.31
835,F5,158.667,167/1000,26,86.31
836,G6,158.833,167/1000,33,86.31
837,D6,159.0,2.0,36,86.31
838,F6,159.0,167/1000,36,86.31
839,F3,159.0,2.0,45,86.31
840,G6,159.167,167/1000,29,86.31
841,F6,159.333,167/1000,36,86.31
842,G6,159.5,167/1000,29,86.31
843,F4,159.5,0.5,41,86.31
844,F6,159.667,167/1000,36,86.31
845,G6,159.833,167/1000,29,86.31
846,F6,160.0,167/1000,36,86.31
847,A3,160.0,1.0,43,86.31
848,G6,160.167,167/1000,29,86.31
849,F6,160.333,167/1000,36,86.31
850,G6,160.5,167/1000,29,86.31
851,F4,160.5,0.5,38,86.31
852,F6,160.667,167/1000,36,86.31
853,E6,160.833,0.125,31,86.31
854,B5,161.0,2.0,37,86.31
855,D6,161.0,167/1000,37,86.31
856,G#3,161.0,1.0,45,86.31
857,F3,161.0,2.0,45,86.31
858,E6,161.167,167/1000,30,86.31
859,D6,161.333,167/1000,37,86.31
860,E6,161.5,167/1000,31,86.31
861,F4,161.5,0.5,36,86.31
862,D6,161.667,167/1000,37,86.31
863,E6,161.833,167/1000,36,86.31
864,D6,162.0,167/1000,37,86.31
865,B3,162.0,1.0,43,86.31
866,E6,162.167,167/1000,32,86.31
867,D6,162.333,167/1000,37,86.31
868,E6,162.5,167/1000,31,86.31
869,F4,162.5,0.5,37,86.31
870,D6,162.667,167/1000,37,86.31
871,D6,162.833,167/1000,38,86.31
872,A5,163.0,1.0,41,86.31
873,C6,163.0,167/1000,41,86.31
874,F3,163.0,2.0,45,86.31
875,D6,163.167,167/1000,32,86.31
876,C6,163.333,167/1000,37,86.31
877,D6,163.5,167/1000,31,86.31
878,F4,163.5,0.5,36,86.31
879,C6,163.667,167/1000,37,86.31
880,E6,163.833,167/1000,38,86.31
881,B5,164.0,1.0,37,86.31
882,D6,164.0,167/1000,37,86.31
883,B3,164.0,1.0,43,86.31
884,E6,164.167,167/1000,32,86.31
885,D6,164.333,167/1000,37,86.31
886,E6,164.5,167/1000,33,86.31
887,F4,164.5,0.5,35,86.31
888,D6,164.667,167/1000,36,86.31
889,D6,164.833,167/1000,38,86.31
890,A5,165.0,1.0,39,86.31
891,C6,165.0,167/1000,39,86.31
892,A3,165.0,1.0,42,86.31
893,F3,165.0,2.0,45,86.31
894,D6,165.167,167/1000,34,86.31
895,C6,165.333,167/1000,39,86.31
896,D6,165.5,167/1000,33,86.31
897,F4,165.5,0.5,33,86.31
898,C6,165.667,167/1000,39,86.31
899,C#6,165.833,167/1000,38,86.31
900,F5,166.0,1.0,36,86.31
901,B5,166.0,167/1000,36,86.31
902,G#3,166.0,1.0,41,86.31
903,C#6,166.167,167/1000,31,86.31
904,B5,166.333,167/1000,36,86.31
905,C#6,166.5,167/1000,31,86.31
906,F4,166.5,0.5,36,86.31
907,B5,166.667,167/1000,37,86.31
908,D6,166.833,167/1000,36,86.31
909,A5,167.0,2.0,37,86.31
910,C6,167.0,167/1000,37,86.31
911,F3,167.0,2.0,45,86.31
912,D6,167.167,167/1000,30,86.31
913,C6,167.333,167/1000,37,86.31
914,D6,167.5,167/1000,31,86.31
915,F4,167.5,0.5,36,86.31
916,C6,167.667,167/1000,36,86.31
917,D6,167.833,167/1000,31,86.31
918,C6,168.0,167/1000,36,86.31
919,A3,168.0,1.0,42,86.31
920,D6,168.167,167/1000,31,86.31
921,C6,168.333,167/1000,36,86.31
922,D6,168.5,167/1000,30,86.31
923,F4,168.5,0.5,35,86.31
924,C6,168.667,167/1000,35,86.31
925,C#6,168.833,167/1000,35,86.31
926,F5,169.0,2.0,35,86.31
927,B5,169.0,167/1000,35,86.31
928,G#3,169.0,1.0,39,86.31
929,F3,169.0,2.0,45,86.31
930,C#6,169.167,167/1000,28,86.31
931,B5,169.333,167/1000,35,86.31
932,C#6,169.5,167/1000,29,86.31
933,F4,169.5,0.5,32,86.31
934,B5,169.667,167/1000,35,86.31
935,C#6,169.833,167/1000,30,86.31
936,B5,170.0,167/1000,35,86.31
937,B3,170.0,1.0,39,86.31
938,C#6,170.167,167/1000,30,86.31
939,B5,170.333,167/1000,34,86.31
940,C#6,170.5,167/1000,29,86.31
941,F4,170.5,0.5,33,86.31
942,B5,170.667,167/1000,34,86.31
943,B5,170.833,167/1000,33,86.31
944,D5,171.0,2.0,34,86.31
945,A5,171.0,167/1000,34,86.31
946,F3,171.0,2.0,38,86.31
947,B5,171.167,167/1000,27,86.31
948,A5,171.333,167/1000,32,86.31
949,B5,171.5,167/1000,28,86.31
950,F4,171.5,0.5,30,86.31
951,A5,171.667,167/1000,32,86.31
952,B5,171.833,167/1000,29,86.31
953,A5,172.0,167/1000,31,86.31
954,B3,172.0,1.0,36,86.31
955,B5,172.167,167/1000,29,86.31
956,A5,172.333,167/1000,30,86.31
957,B5,172.5,167/1000,27,86.31
958,F4,172.5,0.5,29,86.31
959,A5,172.667,167/1000,30,86.31
960,G5,172.833,167/1000,30,86.31
961,C#5,173.0,2.0,28,86.31
962,F5,173.0,167/1000,28,86.31
963,A3,173.0,1.0,34,86.31
964,F3,173.0,2.0,34,86.31
965,G5,173.167,167/1000,24,86.31
966,F5,173.333,167/1000,28,86.31
967,G5,173.5,167/1000,23,86.31
968,F4,173.5,0.5,25,86.31
969,F5,173.667,167/1000,27,86.31
970,G5,173.833,167/1000,26,86.31
971,F5,174.0,167/1000,28,86.31
972,G#3,174.0,1.0,32,86.31
973,G5,174.167,167/1000,23,86.31
974,F5,174.333,167/1000,28,86.31
975,G5,174.5,167/1000,24,86.31
976,F4,174.5,0.5,25,86.31
977,F5,174.667,167/1000,26,86.31
978,F6,174.833,167/1000,42,86.31
979,C#6,175.0,0.5,55,86.31
980,F3,175.0,1.0,38,86.31
981,C6,175.5,0.5,50,86.31
982,F4,175.5,1.0,30,86.31
983,G#3,176.0,1.0,38,86.31
984,C6,176.5,0.375,50,86.31
985,F4,176.5,0.5,30,86.31
986,C6,176.875,0.125,48,86.31
987,B5,177.0,0.5,54,86.31
988,C#4,177.0,1.0,38,86.31
989,F4,177.0,0.5,30,86.31
990,G#5,177.5,0.5,47,86.31
991,F4,177.5,1.0,29,86.31
992,B3,178.0,1.0,38,86.31
993,G#5,178.5,0.375,50,86.31
994,F4,178.5,0.5,30,86.31
995,F6,178.875,0.125,50,86.31
996,A5,179.0,0.5,56,86.31
997,F3,179.0,1.0,38,86.31
998,F4,179.0,0.5,30,86.31
999,C6,179.5,0.5,50,86.31
1000,F4,179.5,1.0,30,86.31
1001,E-4,180.0,1.0,36,86.31
1002,C6,180.5,0.375,50,86.31
1003,F4,180.5,0.5,30,86.31
1004,C6,180.875,0.125,50,86.31
1005,F6,181.0,0.5,56,86.31
1006,C#4,181.0,1.0,36,86.31
1007,F4,181.0,0.5,30,86.31
1008,G#5,181.5,0.5,50,86.31
1009,F4,181.5,1.0,31,86.31
1010,B3,182.0,1.0,36,86.31
1011,C#6,182.5,0.375,47,86.31
1012,F4,182.5,0.5,31,86.31
1013,F6,182.875,0.125,50,86.31
1014,A5,183.0,0.5,53,86.31
1015,F3,183.0,1.0,36,86.31
1016,B-5,183.5,0.5,49,86.31
1017,F4,183.5,1.0,31,86.31
1018,B-3,184.0,1.0,36,86.31
1019,B-5,184.5,0.375,50,86.31
1020,F4,184.5,0.5,30,86.31
1021,F6,184.875,0.125,50,86.31
1022,A5,185.0,0.5,54,86.31
1023,C#4,185.0,1.0,36,86.31
1024,F4,185.0,0.5,30,86.31
1025,B-5,185.5,0.5,50,86.31
1026,F4,185.5,1.0,30,86.31
1027,C4,186.0,1.0,37,86.31
1028,C6,186.5,0.375,50,86.31
1029,F4,186.5,0.5,31,86.31
1030,F6,186.875,0.125,50,86.31
1031,A5,187.0,0.5,54,86.31
1032,F3,187.0,1.0,36,86.31
1033,B-5,187.5,0.5,50,86.31
1034,F4,187.5,1.0,29,86.31
1035,C#4,188.0,1.0,37,86.31
1036,B-5,188.5,0.375,50,86.31
1037,F4,188.5,0.5,31,86.31
1038,F6,188.875,0.125,50,86.31
1039,A5,189.0,0.5,54,86.31
1040,C4,189.0,1.0,38,86.31
1041,F4,189.0,0.5,31,86.31
1042,C6,189.5,0.5,50,86.31
1043,F4,189.5,1.0,31,86.31
1044,A3,190.0,1.0,37,86.31
1045,C6,190.5,0.5,50,86.31
1046,F4,190.5,0.5,31,86.31
1047,F6,190.833,167/1000,42,86.31
1048,C#6,191.0,0.5,55,86.31
1049,F3,191.0,1.0,38,86.31
1050,C6,191.5,0.5,50,86.31
1051,F4,191.5,1.0,46,86.31
1052,G#3,192.0,1.0,38,86.31
1053,C6,192.5,0.375,50,86.31
1054,F4,192.5,0.5,46,86.31
1055,C6,192.875,0.125,48,86.31
1056,B5,193.0,0.5,54,86.31
1057,C#4,193.0,1.0,38,86.31
1058,F4,193.0,0.5,46,86.31
1059,G#5,193.5,0.5,47,86.31
1060,F4,193.5,1.0,45,86.31
1061,B3,194.0,1.0,38,86.31
1062,G#5,194.5,0.375,50,86.31
1063,F4,194.5,0.5,44,86.31
1064,F6,194.875,0.125,50,86.31
1065,A5,195.0,0.5,56,86.31
1066,F3,195.0,1.0,38,86.31
1067,F4,195.0,0.5,44,86.31
1068,C6,195.5,0.5,50,86.31
1069,F4,195.5,1.0,36,86.31
1070,E-4,196.0,1.0,36,86.31
1071,C6,196.5,0.375,50,86.31
1072,F4,196.5,0.5,41,86.31
1073,C6,196.875,0.125,50,86.31
1074,F6,197.0,0.5,56,86.31
1075,C#4,197.0,1.0,36,86.31
1076,F4,197.0,0.5,41,86.31
1077,G#5,197.5,0.5,50,86.31
1078,F4,197.5,1.0,31,86.31
1079,B3,198.0,1.0,36,86.31
1080,C#6,198.5,0.375,47,86.31
1081,F4,198.5,0.5,31,86.31
1082,F6,198.875,0.125,50,86.31
1083,A5,199.0,0.5,53,86.31
1084,F3,199.0,1.0,36,86.31
1085,B-5,199.5,0.5,49,86.31
1086,F4,199.5,1.0,31,86.31
1087,B-3,200.0,1.0,36,86.31
1088,B-5,200.5,0.375,50,86.31
1089,F4,200.5,0.5,30,86.31
1090,F6,200.875,0.125,50,86.31
1091,A5,201.0,0.5,54,86.31
1092,C#4,201.0,1.0,36,86.31
1093,F4,201.0,0.5,30,86.31
1094,B-5,201.5,0.5,50,86.31
1095,F4,201.5,1.0,30,86.31
1096,C4,202.0,1.0,37,86.31
1097,C6,202.5,0.375,50,86.31
1098,F4,202.5,0.5,31,86.31
1099,F6,202.875,0.125,50,86.31
1100,A5,203.0,0.5,54,86.31
1101,F3,203.0,1.0,36,86.31
1102,B-5,203.5,0.5,50,86.31
1103,F4,203.5,1.0,29,86.31
1104,C#4,204.0,1.0,37,86.31
1105,B-5,204.5,0.375,50,86.31
1106,F4,204.5,0.5,31,86.31
1107,F6,204.875,0.125,50,86.31
1108,A5,205.0,0.5,54,86.31
1109,C4,205.0,1.0,38,86.31
1110,F4,205.0,0.5,31,86.31
1111,C6,205.5,0.5,50,86.31
1112,F4,205.5,1.0,31,86.31
1113,A3,206.0,1.0,37,86.31
1114,C6,206.5,0.375,50,86.31
1115,F4,206.5,0.5,31,86.31
1116,D6,206.875,0.125,45,86.31
1117,C6,207.0,0.25,40,86.31
1118,A5,207.0,0.25,40,86.31
1119,F5,207.0,0.25,40,86.31
1120,F4,207.5,0.25,30,86.31
1121,A4,207.5,0.25,30,86.31
1122,C5,207.5,0.25,30,86.31
1123,C6,207.875,0.125,33,86.31
1124,B5,208.0,0.25,36,86.31
1125,G#5,208.0,0.25,36,86.31
1126,F5,208.0,0.25,36,86.31
1127,C#5,208.5,0.25,28,86.31
1128,G#4,208.5,0.25,28,86.31
1129,F4,208.5,0.25,28,86.31
1130,D6,208.875,0.125,40,86.31
1131,C6,209.0,0.25,40,86.31
1132,A5,209.0,0.25,40,86.31
1133,F5,209.0,0.25,40,86.31
1134,F4,209.5,0.25,30,86.31
1135,A4,209.5,0.25,30,86.31
1136,C5,209.5,0.25,30,86.31
1137,G#5,210.0,0.25,40,86.31
1138,F5,210.0,0.25,40,86.31
1139,C#5,210.0,0.25,40,86.31
1140,B4,210.0,0.25,33,86.31
1141,G#4,210.0,0.25,33,86.31
1142,D6,210.375,0.125,31,86.31
1143,C6,210.5,0.25,33,86.31
1144,A5,210.5,0.25,33,86.31
1145,F5,210.5,0.25,33,86.31
1146,D6,210.875,0.125,45,86.31
1147,C6,211.0,0.25,40,86.31
1148,A5,211.0,0.25,40,86.31
1149,F5,211.0,0.25,40,86.31
1150,F4,211.5,0.25,30,86.31
1151,A4,211.5,0.25,30,86.31
1152,C5,211.5,0.25,30,86.31
1153,C6,211.875,0.125,33,86.31
1154,B5,212.0,0.25,36,86.31
1155,G#5,212.0,0.25,36,86.31
1156,F5,212.0,0.25,36,86.31
1157,C#5,212.5,0.25,28,86.31
1158,G#4,212.5,0.25,28,86.31
1159,F4,212.5,0.25,28,86.31
1160,D6,212.875,0.125,40,86.31
1161,C6,213.0,0.25,40,86.31
1162,A5,213.0,0.25,40,86.31
1163,F5,213.0,0.25,40,86.31
1164,F4,213.5,0.25,30,86.31
1165,A4,213.5,0.25,30,86.31
1166,C5,213.5,0.25,30,86.31
1167,G#5,214.0,0.25,40,86.31
1168,F5,214.0,0.25,40,86.31
1169,C#5,214.0,0.25,40,86.31
1170,G#4,214.5,0.25,33,86.31
1171,B4,214.5,0.25,33,86.31
1172,B3,215.0,0.25,34,86.31
1173,F#4,215.375,0.125,32,86.31
1174,C4,215.5,0.25,33,86.31
1175,G4,215.5,0.25,30,86.31
1176,E4,215.5,0.25,30,86.31
1177,D4,216.0,0.25,34,86.31
1178,A4,216.375,0.125,32,86.31
1179,E-4,216.5,0.25,35,86.31
1180,B-4,216.5,0.25,30,86.31
1181,G4,216.5,0.25,30,86.31
1182,E4,217.0,0.25,36,86.31
1183,B4,217.375,0.125,32,86.31
1184,F4,217.5,0.25,38,86.31
1185,G#4,217.5,0.25,32,86.31
1186,C5,217.5,0.25,32,86.31
1187,G4,218.0,0.25,39,86.31
1188,D5,218.375,0.125,32,86.31
1189,G#4,218.5,0.25,40,86.31
1190,E-5,218.5,0.25,34,86.31
1191,C5,218.5,0.25,34,86.31
1192,B-4,219.0,0.25,41,86.31
1193,F5,219.375,0.125,32,86.31
1194,B4,219.5,0.25,43,86.31
1195,F#5,219.5,0.25,36,86.31
1196,E-5,219.5,0.25,36,86.31
1197,C5,220.0,0.25,44,86.31
1198,A5,220.375,0.125,32,86.31
1199,C#5,220.5,0.25,46,86.31
1200,B-5,220.5,0.25,37,86.31
1201,F#5,220.5,0.25,37,86.31
1202,D5,221.0,0.25,48,86.31
1203,D6,221.375,0.125,32,86.31
1204,E-5,221.5,0.25,50,86.31
1205,E-6,221.5,0.25,35,86.31
1206,B-5,221.5,0.25,35,86.31
1207,G5,221.5,0.25,35,86.31
1208,E5,222.0,0.25,50,86.31
1209,A6,222.375,0.125,32,86.31
1210,C5,222.5,0.25,45,86.31
1211,G6,222.5,0.25,35,86.31
1212,E6,222.5,0.25,35,86.31
1213,C6,222.5,0.25,35,86.31
1214,D6,222.875,0.125,45,86.31
1215,C6,223.0,0.25,40,86.31
1216,A5,223.0,0.25,40,86.31
1217,F5,223.0,0.25,40,86.31
1218,F4,223.5,0.25,30,86.31
1219,A4,223.5,0.25,30,86.31
1220,C5,223.5,0.25,30,86.31
1221,C6,223.875,0.125,33,86.31
1222,B5,224.0,0.25,36,86.31
1223,G#5,224.0,0.25,36,86.31
1224,F5,224.0,0.25,36,86.31
1225,C#5,224.5,0.25,28,86.31
1226,G#4,224.5,0.25,28,86.31
1227,F4,224.5,0.25,28,86.31
1228,D6,224.875,0.125,40,86.31
1229,C6,225.0,0.25,40,86.31
1230,A5,225.0,0.25,40,86.31
1231,F5,225.0,0.25,40,86.31
1232,F4,225.5,0.25,30,86.31
1233,A4,225.5,0.25,30,86.31
1234,C5,225.5,0.25,30,86.31
1235,C6,225.875,0.125,33,86.31
1236,G#5,226.0,0.25,40,86.31
1237,F5,226.0,0.25,40,86.31
1238,B5,226.0,0.25,40,86.31
1239,C#5,226.0,0.25,33,86.31
1240,G#4,226.0,0.25,33,86.31
1241,D6,226.375,0.125,31,86.31
1242,C6,226.5,0.25,33,86.31
1243,A5,226.5,0.25,33,86.31
1244,F5,226.5,0.25,33,86.31
1245,D6,226.875,0.125,45,86.31
1246,C6,227.0,0.25,40,86.31
1247,A5,227.0,0.25,40,86.31
1248,F5,227.0,0.25,40,86.31
1249,F4,227.5,0.25,30,86.31
1250,A4,227.5,0.25,30,86.31
1251,C5,227.5,0.25,30,86.31
1252,C6,227.875,0.125,33,86.31
1253,B5,228.0,0.25,36,86.31
1254,G#5,228.0,0.25,36,86.31
1255,F5,228.0,0.25,36,86.31
1256,C#5,228.5,0.25,28,86.31
1257,G#4,228.5,0.25,28,86.31
1258,F4,228.5,0.25,28,86.31
1259,D6,228.875,0.125,40,86.31
1260,C6,229.0,0.25,40,86.31
1261,A5,229.0,0.25,40,86.31
1262,F5,229.0,0.25,40,86.31
1263,F4,229.5,0.25,30,86.31
1264,A4,229.5,0.25,30,86.31
1265,C5,229.5,0.25,30,86.31
1266,G#5,230.0,0.25,40,86.31
1267,F5,230.0,0.25,40,86.31
1268,C#5,230.0,0.25,40,86.31
1269,G#4,230.5,0.25,33,86.31
1270,B4,230.5,0.25,33,86.31
1271,C#4,231.0,0.25,34,86.31
1272,B-4,231.375,0.125,32,86.31
1273,E-4,231.5,0.25,33,86.31
1274,B4,231.5,0.25,30,86.31
1275,G#4,231.5,0.25,30,86.31
1276,E4,232.0,0.25,34,86.31
1277,C5,232.375,0.125,32,86.31
1278,F4,232.5,0.25,35,86.31
1279,C#5,232.5,0.25,30,86.31
1280,A4,232.5,0.25,30,86.31
1281,F#4,233.0,0.25,36,86.31
1282,E-5,233.375,0.125,32,86.31
1283,G#4,233.5,0.25,38,86.31
1284,C#5,233.5,0.25,32,86.31
1285,E5,233.5,0.25,32,86.31
1286,A4,234.0,0.25,39,86.31
1287,F5,234.375,0.125,32,86.31
1288,B-4,234.5,0.25,40,86.31
1289,F#5,234.5,0.25,34,86.31
1290,D5,234.5,0.25,34,86.31
1291,E-4,235.0,0.25,34,86.31
1292,C5,235.375,0.125,32,86.31
1293,F4,235.5,0.25,33,86.31
1294,C#5,235.5,0.25,30,86.31
1295,B-4,235.5,0.25,30,86.31
1296,F#4,236.0,0.25,34,86.31
1297,D5,236.375,0.125,32,86.31
1298,G4,236.5,0.25,35,86.31
1299,E-5,236.5,0.25,30,86.31
1300,B4,236.5,0.25,30,86.31
1301,G#4,237.0,0.25,36,86.31
1302,E5,237.375,0.125,32,86.31
1303,B-4,237.5,0.25,38,86.31
1304,C#5,237.5,0.25,32,86.31
1305,F5,237.5,0.25,32,86.31
1306,B4,238.0,0.25,39,86.31
1307,G5,238.375,0.125,32,86.31
1308,C5,238.5,0.25,40,86.31
1309,G#5,238.5,0.25,34,86.31
1310,E5,238.5,0.25,34,86.31
1311,A6,238.875,0.125,55,86.31
1312,C4,239.0,0.25,55,86.31
1313,B-6,239.0,0.25,58,86.31
1314,F#6,239.0,0.25,58,86.31
1315,E4,239.5,0.25,47,86.31
1316,G#6,239.875,0.125,51,86.31
1317,C#4,240.0,0.25,55,86.31
1318,A6,240.0,0.25,52,86.31
1319,F6,240.0,0.25,52,86.31
1320,F4,240.5,0.25,47,86.31
1321,B-5,240.875,0.125,50,86.31
1322,E-4,241.0,0.25,55,86.31
1323,B5,241.0,0.25,50,86.31
1324,A5,241.0,0.25,50,86.31
1325,F#4,241.5,0.25,50,86.31
1326,B-5,241.875,0.125,47,86.31
1327,E4,242.0,0.25,54,86.31
1328,C6,242.0,0.25,48,86.31
1329,G5,242.0,0.25,48,86.31
1330,G4,242.5,0.25,52,86.31
1331,E6,242.875,0.125,53,86.31
1332,F4,243.0,0.25,56,86.31
1333,F6,243.0,0.25,52,86.31
1334,C#6,243.0,0.25,52,86.31
1335,A4,243.5,0.25,51,86.31
1336,C#6,243.875,0.125,51,86.31
1337,F#4,244.0,0.25,57,86.31
1338,B-5,244.0,0.25,50,86.31
1339,D6,244.0,0.25,50,86.31
1340,B-4,244.5,0.25,53,86.31
1341,E5,244.875,0.125,55,86.31
1342,G#4,245.0,0.25,58,86.31
1343,C#5,245.0,0.25,56,86.31
1344,F5,245.0,0.25,56,86.31
1345,B4,245.5,0.25,56,86.31
1346,F#5,245.875,0.125,53,86.31
1347,B-4,246.0,0.5,59,86.31
1348,G5,246.0,0.25,52,86.31
1349,E5,246.0,0.25,52,86.31
1350,C5,246.5,0.375,55,86.31
1351,C6,246.875,0.125,70,86.31
1352,C5,246.875,0.125,62,86.31
1353,C#6,247.0,2.0,79,86.31
1354,C#5,247.0,2.0,71,86.31
1355,C#6,249.0,1.5,79,86.31
1356,C#5,249.0,1.5,71,86.31
1357,C6,250.875,0.125,53,86.31
1358,C5,250.875,0.125,46,86.31
1359,C#6,251.0,0.5,59,86.31
1360,C#5,251.0,0.5,52,86.31
1361,C6,251.875,0.125,48,86.31
1362,C5,251.875,0.125,37,86.31
1363,G#5,252.0,0.5,54,86.31
1364,G#4,252.0,0.5,46,86.31
1365,A5,252.5,0.375,46,86.31
1366,A4,252.5,0.375,46,86.31
1367,G#6,252.875,0.125,33,86.31
1368,A6,253.0,1.0,38,86.31
1369,F6,253.0,1.0,38,86.31
1370,C6,253.0,1.0,38,86.31
1371,A5,253.0,1.0,36,86.31
1372,F5,253.0,1.0,36,86.31
