,note_name,start_time,duration,velocity,tempo
0,G4,0.002,521/500,90,100.0
1,G3,0.002,521/500,68,100.0
2,F4,1.0,521/500,85,100.0
3,F3,1.0,521/500,64,100.0
4,B-4,2.0,521/500,89,100.0
5,B-3,2.0,521/500,67,100.0
6,C5,3.0,271/500,87,100.0
7,C4,3.0,271/500,65,100.0
8,F5,3.5,271/500,73,100.0
9,F4,3.5,271/500,55,100.0
10,D5,4.0,1.0,86,100.0
11,D4,4.0,1.0,65,100.0
12,C5,5.0,271/500,85,100.0
13,D5,5.0,21/500,86,100.0
14,C4,5.0,271/500,64,100.0
15,D4,5.0,21/500,65,100.0
16,F5,5.5,271/500,74,100.0
17,F4,5.5,271/500,55,100.0
18,D5,6.0,0.938,85,100.0
19,D4,6.0,521/500,64,100.0
20,B-4,7.0,521/500,86,100.0
21,B-3,7.0,0.938,65,100.0
22,C5,8.0,521/500,86,100.0
23,C4,8.0,521/500,65,100.0
24,G4,9.0,521/500,82,100.0
25,G3,9.0,521/500,62,100.0
26,F4,10.0,0.938,81,100.0
27,F3,10.0,0.938,61,100.0
28,B-3,11.0,1.0,73,100.0
29,G4,11.0,1.0,73,100.0
30,D4,11.0,1.0,73,100.0
31,G3,11.0,1.0,68,100.0
32,G2,11.0,1.0,68,100.0
33,C4,12.0,1.0,72,100.0
34,A3,12.0,1.0,72,100.0
35,F4,12.0,1.0,72,100.0
36,F3,12.0,1.0,64,100.0
37,A2,12.0,1.0,64,100.0
38,D4,13.0,1.0,72,100.0
39,B-3,13.0,1.0,72,100.0
40,B-4,13.0,1.0,72,100.0
41,G3,13.0,1.0,64,100.0
42,G2,13.0,1.0,64,100.0
43,C5,14.0,0.5,82,100.0
44,C4,14.0,1.0,69,100.0
45,A4,14.0,1.0,69,100.0
46,F3,14.0,1.0,61,100.0
47,F2,14.0,1.0,61,100.0
48,F5,14.5,0.5,78,100.0
49,A4,15.0,1.0,72,100.0
50,D5,15.0,1.0,72,100.0
51,F4,15.0,1.0,72,100.0
52,D3,15.0,1.0,56,100.0
53,D2,15.0,1.0,56,100.0
54,C5,16.0,0.5,81,100.0
55,C4,16.0,1.0,68,100.0
56,A4,16.0,1.0,68,100.0
57,F2,16.0,1.0,64,100.0
58,F3,16.0,1.0,64,100.0
59,F5,16.5,0.5,77,100.0
60,B-4,17.0,0.938,75,100.0
61,F4,17.0,0.938,75,100.0
62,D5,17.0,0.938,75,100.0
63,B-2,17.0,0.938,62,100.0
64,B-3,17.0,0.938,62,100.0
65,G4,18.0,1.0,70,100.0
66,D4,18.0,1.0,70,100.0
67,B-4,18.0,1.0,70,100.0
68,G2,18.0,1.0,58,100.0
69,G3,18.0,1.0,58,100.0
70,G4,19.0,1.0,69,100.0
71,E4,19.0,1.0,69,100.0
72,C5,19.0,1.0,69,100.0
73,C2,19.0,1.0,62,100.0
74,C3,19.0,1.0,62,100.0
75,C4,20.0,1.0,63,100.0
76,G4,20.0,1.0,63,100.0
77,G3,20.0,1.0,63,100.0
78,E3,20.0,1.0,54,100.0
79,E2,20.0,1.0,54,100.0
80,F4,21.0,0.938,59,100.0
81,A3,21.0,0.938,59,100.0
82,C4,21.0,0.938,59,100.0
83,F3,21.0,0.938,52,100.0
84,F2,21.0,0.938,52,100.0
85,F4,22.0,521/500,92,100.0
86,F3,22.0,521/500,70,100.0
87,G4,23.0,521/500,88,100.0
88,G3,23.0,521/500,66,100.0
89,D4,24.0,521/500,83,100.0
90,D3,24.0,521/500,63,100.0
91,F4,25.0,271/500,86,100.0
92,F3,25.0,271/500,65,100.0
93,G4,25.5,271/500,74,100.0
94,G3,25.5,271/500,55,100.0
95,C4,26.0,1.0,80,100.0
96,C3,26.0,1.0,61,100.0
97,G4,27.0,271/500,80,100.0
98,C4,27.0,21/500,80,100.0
99,G3,27.0,271/500,61,100.0
100,C3,27.0,21/500,61,100.0
101,A4,27.5,271/500,72,100.0
102,A3,27.5,271/500,54,100.0
103,F4,28.0,0.938,79,100.0
104,F3,28.0,0.938,60,100.0
105,C5,29.0,1.0,74,100.0
106,F4,29.0,1.0,74,100.0
107,A4,29.0,1.0,74,100.0
108,F5,29.0,1.0,74,100.0
109,F1,29.0,1.0,68,100.0
110,F2,29.0,1.0,68,100.0
111,F4,30.0,1.0,73,100.0
112,D4,30.0,1.0,73,100.0
113,D5,30.0,1.0,73,100.0
114,B-1,30.0,1.0,64,100.0
115,B-2,30.0,1.0,64,100.0
116,F4,31.0,1.0,68,100.0
117,C5,31.0,0.5,74,100.0
118,C4,31.0,0.5,74,100.0
119,A2,31.0,0.5,62,100.0
120,A1,31.0,0.5,62,100.0
121,B-4,31.5,0.5,68,100.0
122,B-3,31.5,0.5,68,100.0
123,G1,31.5,0.5,59,100.0
124,G2,31.5,0.5,59,100.0
125,F4,32.0,0.938,79,100.0
126,F1,32.0,0.938,56,100.0
127,F2,32.0,0.938,56,100.0
128,F4,33.0,521/500,92,100.0
129,F3,33.0,521/500,70,100.0
130,G4,34.0,521/500,88,100.0
131,G3,34.0,521/500,66,100.0
132,D4,35.0,521/500,85,100.0
133,D3,35.0,521/500,64,100.0
134,F4,36.0,271/500,86,100.0
135,F3,36.0,271/500,65,100.0
136,G4,36.5,271/500,77,100.0
137,G3,36.5,271/500,58,100.0
138,E-4,37.0,1.0,85,100.0
139,E-3,37.0,1.0,64,100.0
140,B-4,38.0,271/500,94,100.0
141,E-4,38.0,21/500,85,100.0
142,B-3,38.0,271/500,71,100.0
143,E-3,38.0,21/500,64,100.0
144,C5,38.5,271/500,78,100.0
145,C4,38.5,271/500,60,100.0
146,G#4,39.0,0.938,81,100.0
147,G#3,39.0,0.938,60,100.0
148,G#4,40.0,1.0,74,100.0
149,C5,40.0,1.0,74,100.0
150,E-5,40.0,1.0,74,100.0
151,G#5,40.0,1.0,74,100.0
152,G#2,40.0,1.0,68,100.0
153,G#1,40.0,1.0,68,100.0
154,F5,41.0,1.0,72,100.0
155,G#4,41.0,1.0,72,100.0
156,F4,41.0,1.0,72,100.0
157,C#2,41.0,1.0,62,100.0
158,C#3,41.0,1.0,62,100.0
159,E-4,42.0,0.5,70,100.0
160,E-5,42.0,0.5,70,100.0
161,G#4,42.0,0.5,70,100.0
162,C2,42.0,0.5,62,100.0
163,C3,42.0,0.5,62,100.0
164,C#4,42.5,0.5,72,100.0
165,C#5,42.5,0.5,72,100.0
166,B-2,42.5,0.5,57,100.0
167,B-1,42.5,0.5,57,100.0
168,G#4,43.0,0.938,74,100.0
169,G#1,43.0,0.938,59,100.0
170,G#2,43.0,0.938,59,100.0
171,E-4,44.0,3.0,48,100.0
172,G#3,44.0,1.0,52,100.0
173,G#4,44.0,1.0,52,100.0
174,F#1,44.0,1.0,40,100.0
175,F#2,44.0,1.0,40,100.0
176,B-3,45.0,1.0,54,100.0
177,B-4,45.0,1.0,54,100.0
178,F#2,45.0,1.0,36,100.0
179,F#1,45.0,1.0,36,100.0
180,G#4,46.0,1.0,54,100.0
181,G#3,46.0,1.0,54,100.0
182,F1,46.0,1.0,37,100.0
183,F2,46.0,1.0,37,100.0
184,E-4,47.0,1.5,49,100.0
185,B-3,47.0,0.5,54,100.0
186,B-4,47.0,0.5,54,100.0
187,F#1,47.0,1.0,40,100.0
188,F#2,47.0,1.0,40,100.0
189,C4,47.5,0.5,54,100.0
190,C5,47.5,0.5,54,100.0
191,E-5,48.0,0.5,63,100.0
192,E-4,48.0,2.0,53,100.0
193,F#2,48.0,1.0,38,100.0
194,F#1,48.0,1.0,38,100.0
195,B-3,48.5,0.5,54,100.0
196,B-4,48.5,0.5,54,100.0
197,G#3,49.0,1.0,50,100.0
198,G#4,49.0,1.0,50,100.0
199,F#3,49.0,0.5,45,100.0
200,F#2,49.0,0.5,45,100.0
201,E-2,49.5,0.5,42,100.0
202,E-3,49.5,0.5,42,100.0
203,C#5,50.0,0.5,65,100.0
204,G#4,50.0,0.5,65,100.0
205,C#4,50.0,0.5,65,100.0
206,F4,50.0,0.5,65,100.0
207,F2,50.0,0.5,50,100.0
208,F3,50.0,0.5,50,100.0
209,C5,50.5,0.5,61,100.0
210,E-5,50.5,0.5,61,100.0
211,G#4,50.5,0.5,61,100.0
212,E-4,50.5,0.5,61,100.0
213,E-3,50.5,0.5,46,100.0
214,E-2,50.5,0.5,46,100.0
215,F4,51.0,0.5,65,100.0
216,F5,51.0,0.5,65,100.0
217,G#4,51.0,0.5,65,100.0
218,C#5,51.0,0.5,65,100.0
219,C#2,51.0,0.5,50,100.0
220,C#3,51.0,0.5,50,100.0
221,G#4,51.5,0.5,69,100.0
222,G#5,51.5,0.5,69,100.0
223,C#2,51.5,0.5,50,100.0
224,C#1,51.5,0.5,50,100.0
225,F#4,52.0,0.5,64,100.0
226,F#5,52.0,0.5,64,100.0
227,B-4,52.0,0.5,64,100.0
228,E-5,52.0,0.5,64,100.0
229,E-3,52.0,0.5,52,100.0
230,E-2,52.0,0.5,52,100.0
231,F4,52.5,0.5,60,100.0
232,F5,52.5,0.5,60,100.0
233,G#4,52.5,0.5,60,100.0
234,C#5,52.5,0.5,60,100.0
235,F3,52.5,0.5,47,100.0
236,F2,52.5,0.5,47,100.0
237,C5,53.0,0.5,66,100.0
238,E-5,53.0,0.5,66,100.0
239,G#4,53.0,0.5,66,100.0
240,E-4,53.0,0.5,66,100.0
241,G#3,53.0,0.5,52,100.0
242,G#2,53.0,0.5,52,100.0
243,F#5,53.5,0.5,64,100.0
244,F#4,53.5,0.5,64,100.0
245,G#2,53.5,0.5,52,100.0
246,G#1,53.5,0.5,52,100.0
247,C#5,54.0,0.5,61,100.0
248,F5,54.0,0.5,61,100.0
249,F4,54.0,0.5,61,100.0
250,B-4,54.0,0.5,61,100.0
251,B-1,54.0,0.5,42,100.0
252,B-2,54.0,0.5,42,100.0
253,C#4,54.5,0.5,62,100.0
254,C#5,54.5,0.5,62,100.0
255,C#2,54.5,0.5,42,100.0
256,C#3,54.5,0.5,42,100.0
257,G#4,55.0,1.0,56,100.0
258,E-4,55.0,1.0,56,100.0
259,C5,55.0,1.0,56,100.0
260,E-5,55.0,1.0,56,100.0
261,C2,55.0,0.5,47,100.0
262,C3,55.0,0.5,47,100.0
263,G#1,55.5,0.5,44,100.0
264,G#2,55.5,0.5,44,100.0
265,E-4,56.0,1.0,54,100.0
266,G#3,56.0,1.0,54,100.0
267,G#4,56.0,1.0,54,100.0
268,F#1,56.0,1.0,38,100.0
269,F#2,56.0,1.0,38,100.0
270,E-4,57.0,1.0,54,100.0
271,B-4,57.0,1.0,54,100.0
272,B-3,57.0,1.0,54,100.0
273,F#1,57.0,1.0,34,100.0
274,F#2,57.0,1.0,34,100.0
275,G#3,58.0,1.0,54,100.0
276,E-4,58.0,1.0,54,100.0
277,G#4,58.0,1.0,54,100.0
278,F#2,58.0,1.0,40,100.0
279,F#1,58.0,1.0,40,100.0
280,E-4,59.0,1.5,49,100.0
281,B-3,59.0,0.5,54,100.0
282,B-4,59.0,0.5,54,100.0
283,F#1,59.0,1.0,38,100.0
284,F#2,59.0,1.0,38,100.0
285,C5,59.5,0.5,54,100.0
286,C4,59.5,0.5,54,100.0
287,E-4,60.0,0.5,58,100.0
288,E-5,60.0,0.5,58,100.0
289,F#3,60.0,0.5,42,100.0
290,F#2,60.0,0.5,42,100.0
291,B-3,60.5,0.438,54,100.0
292,B-4,60.5,0.438,54,100.0
293,G4,61.0,3.0,52,100.0
294,C5,61.0,1.0,57,100.0
295,C4,61.0,1.0,57,100.0
296,B-2,61.0,1.0,38,100.0
297,B-1,61.0,1.0,38,100.0
298,D5,62.0,1.0,59,100.0
299,D4,62.0,1.0,59,100.0
300,B-2,62.0,1.0,35,100.0
301,B-1,62.0,1.0,35,100.0
302,C4,63.0,1.0,58,100.0
303,C5,63.0,1.0,58,100.0
304,A1,63.0,1.0,37,100.0
305,A2,63.0,1.0,37,100.0
306,G4,64.0,1.5,52,100.0
307,D4,64.0,0.5,57,100.0
308,D5,64.0,0.5,57,100.0
309,B-1,64.0,1.0,38,100.0
310,B-2,64.0,1.0,38,100.0
311,F4,64.5,0.5,57,100.0
312,F5,64.5,0.5,57,100.0
313,G5,65.0,0.5,64,100.0
314,G4,65.0,2.0,54,100.0
315,B-1,65.0,1.0,38,100.0
316,B-2,65.0,1.0,38,100.0
317,D5,65.5,0.5,58,100.0
318,D4,65.5,0.5,58,100.0
319,C5,66.0,0.938,56,100.0
320,C4,66.0,0.938,56,100.0
321,B-3,66.0,0.938,38,100.0
322,B-2,66.0,0.938,38,100.0
323,C5,67.0,0.5,70,100.0
324,F4,67.0,0.5,70,100.0
325,A4,67.0,0.5,70,100.0
326,F5,67.0,0.5,70,100.0
327,A3,67.0,0.5,57,100.0
328,A2,67.0,0.5,57,100.0
329,C5,67.5,0.5,64,100.0
330,G5,67.5,0.5,64,100.0
331,E5,67.5,0.5,64,100.0
332,G4,67.5,0.5,64,100.0
333,G2,67.5,0.5,52,100.0
334,G3,67.5,0.5,52,100.0
335,A4,68.0,0.5,72,100.0
336,A5,68.0,0.5,72,100.0
337,F5,68.0,0.5,72,100.0
338,C5,68.0,0.5,72,100.0
339,F2,68.0,0.5,56,100.0
340,F3,68.0,0.5,56,100.0
341,C6,68.5,0.5,66,100.0
342,C5,68.5,0.5,66,100.0
343,F1,68.5,0.5,52,100.0
344,F2,68.5,0.5,52,100.0
345,G5,69.0,0.5,71,100.0
346,B-4,69.0,0.5,71,100.0
347,D5,69.0,0.5,71,100.0
348,B-5,69.0,0.5,71,100.0
349,G2,69.0,0.5,56,100.0
350,G3,69.0,0.5,56,100.0
351,C5,69.5,0.5,66,100.0
352,A5,69.5,0.5,66,100.0
353,F5,69.5,0.5,66,100.0
354,A4,69.5,0.5,66,100.0
355,A3,69.5,0.5,52,100.0
356,A2,69.5,0.5,52,100.0
357,G4,70.0,0.5,71,100.0
358,G5,70.0,0.5,71,100.0
359,C5,70.0,0.5,71,100.0
360,E5,70.0,0.5,71,100.0
361,C3,70.0,0.5,57,100.0
362,C4,70.0,0.5,57,100.0
363,B-4,70.5,0.5,69,100.0
364,B-5,70.5,0.5,69,100.0
365,C2,70.5,0.5,54,100.0
366,C3,70.5,0.5,54,100.0
367,D5,71.0,0.5,70,100.0
368,A4,71.0,0.5,70,100.0
369,F5,71.0,0.5,70,100.0
370,A5,71.0,0.5,70,100.0
371,D2,71.0,0.5,56,100.0
372,D3,71.0,0.5,56,100.0
373,F4,71.5,0.5,68,100.0
374,F5,71.5,0.5,68,100.0
375,F2,71.5,0.5,56,100.0
376,F3,71.5,0.5,56,100.0
377,C5,72.0,1.0,61,100.0
378,G4,72.0,1.0,61,100.0
379,G5,72.0,1.0,61,100.0
380,E5,72.0,1.0,61,100.0
381,E2,72.0,0.5,54,100.0
382,E3,72.0,0.5,54,100.0
383,C3,72.5,0.5,54,100.0
384,C2,72.5,0.5,54,100.0
385,C5,73.0,1.0,54,100.0
386,G4,73.0,1.0,54,100.0
387,C4,73.0,1.0,54,100.0
388,B-1,73.0,1.0,38,100.0
389,B-2,73.0,1.0,38,100.0
390,D5,74.0,1.0,54,100.0
391,D4,74.0,1.0,54,100.0
392,G4,74.0,1.0,54,100.0
393,B-2,74.0,1.0,38,100.0
394,B-1,74.0,1.0,38,100.0
395,C5,75.0,1.0,54,100.0
396,G4,75.0,1.0,54,100.0
397,C4,75.0,1.0,54,100.0
398,B-1,75.0,1.0,40,100.0
399,B-2,75.0,1.0,40,100.0
400,D5,76.0,0.5,52,100.0
401,G4,76.0,0.5,52,100.0
402,D4,76.0,0.5,52,100.0
403,B-1,76.0,1.0,38,100.0
404,B-2,76.0,1.0,38,100.0
405,F5,76.5,0.5,54,100.0
406,F4,76.5,0.5,54,100.0
407,G4,77.0,0.5,58,100.0
408,G5,77.0,0.5,58,100.0
409,B-3,77.0,0.5,42,100.0
410,B-2,77.0,0.5,42,100.0
411,D4,77.5,0.438,54,100.0
412,D5,77.5,0.438,54,100.0
413,A4,78.0,1.0,60,100.0
414,A5,78.0,1.0,60,100.0
415,C#5,78.0,1.0,60,100.0
416,A3,78.0,1.0,47,100.0
417,A2,78.0,1.0,47,100.0
418,D5,79.0,1.0,57,100.0
419,A4,79.0,1.0,57,100.0
420,F5,79.0,1.0,57,100.0
421,D4,79.0,1.0,46,100.0
422,D3,79.0,1.0,46,100.0
423,C#5,80.0,1.0,58,100.0
424,A4,80.0,1.0,58,100.0
425,A5,80.0,1.0,58,100.0
426,A3,80.0,1.0,47,100.0
427,A2,80.0,1.0,47,100.0
428,D5,81.0,1.0,54,100.0
429,B-4,81.0,1.0,54,100.0
430,E4,81.0,1.0,54,100.0
431,G2,81.0,1.0,40,100.0
432,G3,81.0,1.0,40,100.0
433,C5,82.0,1.0,54,100.0
434,A4,82.0,1.0,54,100.0
435,A5,82.0,1.0,54,100.0
436,F2,82.0,1.0,46,100.0
437,F3,82.0,1.0,46,100.0
438,E4,83.0,1.0,50,100.0
439,D5,83.0,1.0,50,100.0
440,B-4,83.0,1.0,50,100.0
441,G3,83.0,1.0,40,100.0
442,G2,83.0,1.0,40,100.0
443,F5,84.0,0.5,66,100.0
444,A4,84.0,1.0,56,100.0
445,F4,84.0,1.0,56,100.0
446,D3,84.0,1.0,48,100.0
447,D2,84.0,1.0,48,100.0
448,C5,84.5,0.5,60,100.0
449,F4,85.0,0.938,57,100.0
450,D5,85.0,0.938,57,100.0
451,B-4,85.0,0.938,57,100.0
452,G2,85.0,0.938,45,100.0
453,G3,85.0,0.938,45,100.0
454,A4,86.0,1.0,55,100.0
455,F5,86.0,1.0,55,100.0
456,F4,86.0,1.0,55,100.0
457,D2,86.0,1.0,48,100.0
458,D3,86.0,1.0,48,100.0
459,B-4,87.0,1.0,50,100.0
460,F4,87.0,1.0,50,100.0
461,D5,87.0,1.0,50,100.0
462,G3,87.0,1.0,38,100.0
463,G2,87.0,1.0,38,100.0
464,F5,88.0,0.5,64,100.0
465,A4,88.0,1.0,54,100.0
466,F4,88.0,1.0,54,100.0
467,D2,88.0,1.0,48,100.0
468,D3,88.0,1.0,48,100.0
469,C5,88.5,0.5,60,100.0
470,D5,89.0,0.938,55,100.0
471,F4,89.0,0.938,55,100.0
472,B-4,89.0,0.938,55,100.0
473,G2,89.0,0.938,44,100.0
474,G3,89.0,0.938,44,100.0
475,E-4,90.0,0.5,53,100.0
476,C5,90.0,1.0,58,100.0
477,G4,90.0,1.0,58,100.0
478,C2,90.0,1.0,47,100.0
479,C3,90.0,1.0,47,100.0
480,E4,90.5,0.5,46,100.0
481,C4,91.0,1.0,52,100.0
482,A4,91.0,1.0,52,100.0
483,F4,91.0,1.0,52,100.0
484,F3,91.0,1.0,45,100.0
485,F2,91.0,1.0,45,100.0
486,F4,92.0,1.0,49,100.0
487,B-4,92.0,1.0,49,100.0
488,D4,92.0,1.0,49,100.0
489,G3,92.0,1.0,38,100.0
490,G2,92.0,1.0,38,100.0
491,E-4,93.0,0.5,64,100.0
492,C5,93.0,1.0,59,100.0
493,G4,93.0,1.0,59,100.0
494,C2,93.0,1.0,46,100.0
495,C3,93.0,1.0,46,100.0
496,E4,93.5,0.5,56,100.0
497,C4,94.0,0.938,52,100.0
498,F4,94.0,0.938,52,100.0
499,A4,94.0,0.938,52,100.0
500,F3,94.0,0.938,44,100.0
501,F2,94.0,0.938,44,100.0
502,B-4,95.0,0.5,75,100.0
503,F4,95.0,1.0,63,100.0
504,D4,95.0,1.0,63,100.0
505,G2,95.0,1.0,52,100.0
506,G3,95.0,1.0,52,100.0
507,D5,95.5,0.5,82,100.0
508,F5,96.0,1.0,81,100.0
509,F4,96.0,1.0,81,100.0
510,F2,96.0,1.0,56,100.0
511,F1,96.0,1.0,56,100.0
512,E-4,97.0,0.5,72,100.0
513,G4,97.0,0.5,72,100.0
514,E-5,97.0,0.5,72,100.0
515,B-4,97.0,0.5,72,100.0
516,G1,97.0,1.0,62,100.0
517,G2,97.0,1.0,62,100.0
518,D4,97.5,0.5,72,100.0
519,D5,97.5,0.5,72,100.0
520,C4,98.0,0.5,66,100.0
521,F4,98.0,0.5,66,100.0
522,A4,98.0,0.5,66,100.0
523,C5,98.0,0.5,66,100.0
524,A1,98.0,0.5,57,100.0
525,A2,98.0,0.5,57,100.0
526,B-4,98.5,0.5,66,100.0
527,B-3,98.5,0.5,66,100.0
528,B-2,98.5,0.5,52,100.0
529,B-1,98.5,0.5,52,100.0
530,F4,99.0,1.0,73,100.0
531,C5,99.0,1.0,73,100.0
532,C4,99.0,1.0,73,100.0
533,A2,99.0,1.0,59,100.0
534,A1,99.0,1.0,59,100.0
535,D4,100.0,1.0,75,100.0
536,F4,100.0,1.0,75,100.0
537,D5,100.0,1.0,75,100.0
538,B-1,100.0,1.0,61,100.0
539,B-2,100.0,1.0,61,100.0
540,F5,101.0,1.0,80,100.0
541,A4,101.0,1.0,80,100.0
542,F4,101.0,1.0,80,100.0
543,C5,101.0,1.0,80,100.0
544,A2,101.0,1.0,61,100.0
545,A1,101.0,1.0,61,100.0
546,G5,102.0,0.5,80,100.0
547,B-4,102.0,0.5,80,100.0
548,E-5,102.0,0.5,80,100.0
549,G4,102.0,0.5,80,100.0
550,G1,102.0,1.0,58,100.0
551,G2,102.0,1.0,58,100.0
552,B-4,102.5,0.5,76,100.0
553,B-5,102.5,0.5,76,100.0
554,F5,103.0,0.938,82,100.0
555,F4,103.0,0.938,82,100.0
556,F2,103.0,0.938,62,100.0
557,F1,103.0,0.938,62,100.0
558,B-4,104.0,0.5,71,100.0
559,E-5,104.0,0.5,71,100.0
560,G4,104.0,0.5,71,100.0
561,E-4,104.0,0.5,71,100.0
562,G1,104.0,1.0,58,100.0
563,G2,104.0,1.0,58,100.0
564,D5,104.5,0.5,68,100.0
565,D4,104.5,0.5,68,100.0
566,C5,105.0,0.5,65,100.0
567,A4,105.0,0.5,65,100.0
568,F4,105.0,0.5,65,100.0
569,C4,105.0,0.5,65,100.0
570,A2,105.0,0.5,57,100.0
571,A1,105.0,0.5,57,100.0
572,B-3,105.5,0.5,66,100.0
573,B-4,105.5,0.5,66,100.0
574,B-2,105.5,0.5,50,100.0
575,B-1,105.5,0.5,50,100.0
576,F4,106.0,1.0,67,100.0
577,C4,106.0,1.0,67,100.0
578,C5,106.0,1.0,67,100.0
579,A1,106.0,1.0,57,100.0
580,A2,106.0,1.0,57,100.0
581,F4,107.0,1.0,81,100.0
582,D4,107.0,1.0,81,100.0
583,D5,107.0,1.0,81,100.0
584,B-1,107.0,1.0,62,100.0
585,B-2,107.0,1.0,62,100.0
586,A4,108.0,1.0,78,100.0
587,C5,108.0,1.0,78,100.0
588,F4,108.0,1.0,78,100.0
589,F5,108.0,1.0,78,100.0
590,A2,108.0,1.0,62,100.0
591,A1,108.0,1.0,62,100.0
592,G5,109.0,0.5,84,100.0
593,G4,109.0,0.5,84,100.0
594,E5,109.0,0.5,84,100.0
595,C5,109.0,0.5,84,100.0
596,G2,109.0,1.0,64,100.0
597,G1,109.0,1.0,64,100.0
598,B-5,109.5,0.5,76,100.0
599,B-4,109.5,0.5,76,100.0
600,F5,110.0,0.938,81,100.0
601,F4,110.0,0.938,81,100.0
602,F2,110.0,0.938,61,100.0
603,F1,110.0,0.938,61,100.0
604,G4,111.0,1.0,84,100.0
605,G5,111.0,1.0,84,100.0
606,G2,111.0,1.0,64,100.0
607,G1,111.0,1.0,64,100.0
608,F4,112.0,0.938,81,100.0
609,F5,112.0,0.938,81,100.0
610,F1,112.0,0.938,61,100.0
611,F2,112.0,0.938,61,100.0
612,G4,113.0,1.0,93,100.0
613,G3,113.0,1.0,69,100.0
614,F4,114.0,0.938,90,100.0
615,F3,114.0,0.938,68,100.0
616,D4,115.0,1.0,78,100.0
617,B-4,115.0,1.0,78,100.0
618,B-3,115.0,1.0,78,100.0
619,G2,115.0,1.0,61,100.0
620,G3,115.0,1.0,61,100.0
621,C5,116.0,0.5,85,100.0
622,C4,116.0,1.0,72,100.0
623,A4,116.0,1.0,72,100.0
624,F3,116.0,1.0,62,100.0
625,F2,116.0,1.0,62,100.0
626,F4,116.5,0.5,74,100.0
627,F5,116.5,0.5,74,100.0
628,D5,117.0,1.0,77,100.0
629,D4,117.0,1.0,77,100.0
630,B-4,117.0,1.0,77,100.0
631,G2,117.0,1.0,57,100.0
632,G3,117.0,1.0,57,100.0
633,C5,118.0,0.5,85,100.0
634,C4,118.0,1.0,72,100.0
635,A4,118.0,1.0,72,100.0
636,A3,118.0,1.0,62,100.0
637,A2,118.0,1.0,62,100.0
638,F4,118.5,0.5,72,100.0
639,F5,118.5,0.5,72,100.0
640,D5,119.0,0.938,76,100.0
641,D4,119.0,0.938,76,100.0
642,B-4,119.0,0.938,76,100.0
643,B-3,119.0,0.938,57,100.0
644,B-2,119.0,0.938,57,100.0
645,D4,120.0,1.0,76,100.0
646,B-3,120.0,1.0,76,100.0
647,B-4,120.0,1.0,76,100.0
648,G3,120.0,1.0,57,100.0
649,G2,120.0,1.0,57,100.0
650,G4,121.0,1.0,75,100.0
651,C4,121.0,1.0,75,100.0
652,C5,121.0,1.0,75,100.0
653,E-3,121.0,1.0,59,100.0
654,E-2,121.0,1.0,59,100.0
655,G3,122.0,1.0,70,100.0
656,C4,122.0,1.0,70,100.0
657,G4,122.0,1.0,70,100.0
658,E2,122.0,1.0,54,100.0
659,E3,122.0,1.0,54,100.0
660,F4,123.0,0.938,66,100.0
661,A3,123.0,0.938,66,100.0
662,C4,123.0,0.938,66,100.0
663,F3,123.0,0.938,52,100.0
664,F2,123.0,0.938,52,100.0
665,B-3,124.0,1.0,83,100.0
666,D4,124.0,1.0,83,100.0
667,G4,124.0,1.0,83,100.0
668,B-1,124.0,1.0,64,100.0
669,B-2,124.0,1.0,64,100.0
670,A3,125.0,1.0,82,100.0
671,C4,125.0,1.0,82,100.0
672,F4,125.0,1.0,82,100.0
673,A1,125.0,1.0,61,100.0
674,A2,125.0,1.0,61,100.0
675,F4,126.0,1.0,80,100.0
676,B-4,126.0,1.0,80,100.0
677,D4,126.0,1.0,80,100.0
678,B-3,126.0,1.0,80,100.0
679,G2,126.0,1.0,62,100.0
680,G1,126.0,1.0,62,100.0
681,A4,127.0,1.0,72,100.0
682,C4,127.0,1.0,72,100.0
683,F4,127.0,0.5,78,100.0
684,C5,127.0,0.5,78,100.0
685,F2,127.0,1.0,62,100.0
686,F1,127.0,1.0,62,100.0
687,F5,127.5,0.5,72,100.0
688,F4,127.5,0.5,72,100.0
689,B-4,128.0,0.938,75,100.0
690,D4,128.0,0.938,75,100.0
691,F4,128.0,0.938,75,100.0
692,D5,128.0,0.938,75,100.0
693,B-1,128.0,0.938,59,100.0
694,B-2,128.0,0.938,59,100.0
695,F4,129.0,0.5,78,100.0
696,C5,129.0,0.5,78,100.0
697,A4,129.0,1.0,72,100.0
698,C4,129.0,1.0,72,100.0
699,A2,129.0,1.0,62,100.0
700,A1,129.0,1.0,62,100.0
701,F5,129.5,0.5,72,100.0
702,F4,129.5,0.5,72,100.0
703,D5,130.0,0.938,75,100.0
704,F4,130.0,0.938,75,100.0
705,B-4,130.0,0.938,75,100.0
706,D4,130.0,0.938,75,100.0
707,B-1,130.0,0.938,59,100.0
708,B-2,130.0,0.938,59,100.0
709,B-4,131.0,1.0,78,100.0
710,D4,131.0,1.0,78,100.0
711,G4,131.0,1.0,78,100.0
712,B-3,131.0,1.0,78,100.0
713,G3,131.0,1.0,56,100.0
714,G2,131.0,1.0,56,100.0
715,G4,132.0,2.0,82,100.0
716,E-5,132.0,2.0,82,100.0
717,C5,132.0,2.0,82,100.0
718,E-4,132.0,2.0,82,100.0
719,C3,132.0,2.0,62,100.0
720,C2,132.0,2.0,62,100.0
721,C4,134.0,2.0,78,100.0
722,C5,134.0,2.0,78,100.0
723,F4,134.0,2.0,78,100.0
724,A4,134.0,2.0,78,100.0
725,F3,134.0,2.0,56,100.0
726,F2,134.0,2.0,56,100.0
727,B-4,136.0,1.0,90,100.0
728,F4,136.0,0.5,76,100.0
729,D4,136.0,0.5,76,100.0
730,B-3,136.0,0.5,64,100.0
731,B-2,136.0,0.5,64,100.0
732,B-4,137.0,4.0,90,100.0
733,B-4,142.0,0.25,89,100.0
734,E-4,142.0,0.25,69,100.0
735,G4,142.0,0.25,69,100.0
736,A4,142.25,0.25,77,100.0
737,B-3,142.25,0.25,56,100.0
738,B-4,142.5,0.125,80,100.0
739,E-4,142.5,0.125,61,100.0
740,G4,142.5,0.125,61,100.0
741,B-4,142.75,0.125,80,100.0
742,E-4,142.75,0.125,61,100.0
743,G4,142.75,0.125,61,100.0
744,B-4,143.0,0.25,85,100.0
745,E-4,143.0,0.25,67,100.0
746,G4,143.0,0.25,67,100.0
747,A4,143.25,0.25,77,100.0
748,B-3,143.25,0.25,55,100.0
749,B-4,143.5,0.125,80,100.0
750,E-4,143.5,0.125,61,100.0
751,G4,143.5,0.125,61,100.0
752,B-4,143.75,0.125,80,100.0
753,E-4,143.75,0.125,61,100.0
754,G4,143.75,0.125,61,100.0
755,B-4,144.0,0.25,89,100.0
756,E-4,144.0,0.25,69,100.0
757,G4,144.0,0.25,69,100.0
758,A4,144.25,0.25,75,100.0
759,B-3,144.25,0.25,55,100.0
760,B-4,144.5,0.125,78,100.0
761,E-4,144.5,0.125,59,100.0
762,G4,144.5,0.125,59,100.0
763,B-4,144.75,0.125,78,100.0
764,E-4,144.75,0.125,58,100.0
765,G4,144.75,0.125,58,100.0
766,B-4,145.0,0.25,81,100.0
767,E-4,145.0,0.25,61,100.0
768,G4,145.0,0.25,61,100.0
769,A4,145.25,0.25,69,100.0
770,B-3,145.25,0.25,49,100.0
771,B-4,145.5,0.125,70,100.0
772,E-4,145.5,0.125,55,100.0
773,G4,145.5,0.125,55,100.0
774,B-4,145.75,0.125,72,100.0
775,E-4,145.75,0.125,55,100.0
776,G4,145.75,0.125,55,100.0
777,B-4,146.0,0.125,85,100.0
778,E-4,146.0,0.125,56,100.0
779,G4,146.0,0.125,56,100.0
780,A4,146.25,0.125,74,100.0
781,E-4,146.25,0.125,52,100.0
782,G4,146.25,0.125,52,100.0
783,C5,146.5,0.125,76,100.0
784,E-4,146.5,0.125,56,100.0
785,G4,146.5,0.125,56,100.0
786,B-4,146.75,0.125,70,100.0
787,E-4,146.75,0.125,50,100.0
788,G4,146.75,0.125,50,100.0
789,E-5,147.0,0.125,80,100.0
790,E-4,147.0,0.125,56,100.0
791,G4,147.0,0.125,56,100.0
792,D5,147.25,0.125,74,100.0
793,E-4,147.25,0.125,52,100.0
794,G4,147.25,0.125,52,100.0
795,F5,147.5,0.125,76,100.0
796,E-4,147.5,0.125,56,100.0
797,G4,147.5,0.125,56,100.0
798,E-5,147.75,0.125,72,100.0
799,E-4,147.75,0.125,50,100.0
800,G4,147.75,0.125,50,100.0
801,F#5,148.0,0.125,78,100.0
802,B-4,148.0,0.125,56,100.0
803,G4,148.0,0.125,56,100.0
804,G5,148.25,0.125,75,100.0
805,B-4,148.25,0.125,50,100.0
806,G4,148.25,0.125,50,100.0
807,C6,148.5,0.25,86,100.0
808,B-4,148.5,0.125,59,100.0
809,G4,148.5,0.125,59,100.0
810,B-5,148.75,0.25,77,100.0
811,B-4,148.75,0.125,51,100.0
812,G4,148.75,0.125,51,100.0
813,G#5,149.0,0.25,81,100.0
814,B-4,149.0,0.125,58,100.0
815,G4,149.0,0.125,58,100.0
816,G5,149.25,0.25,74,100.0
817,G4,149.25,0.125,53,100.0
818,B-4,149.25,0.125,53,100.0
819,F5,149.5,0.25,78,100.0
820,B-4,149.5,0.125,56,100.0
821,G4,149.5,0.125,56,100.0
822,E-5,149.75,0.25,73,100.0
823,B-4,149.75,0.125,51,100.0
824,G4,149.75,0.125,51,100.0
825,B5,150.0,0.125,73,100.0
826,G#4,150.0,0.188,54,100.0
827,B4,150.0,0.188,54,100.0
828,F5,150.25,0.125,69,100.0
829,G#4,150.25,0.188,48,100.0
830,B4,150.25,0.188,48,100.0
831,B-5,150.5,0.25,100,100.0
832,B4,150.5,0.188,54,100.0
833,E-5,150.5,0.188,54,100.0
834,G#5,150.75,0.25,78,100.0
835,B4,150.75,0.188,49,100.0
836,E-5,150.75,0.188,49,100.0
837,B5,151.0,0.125,74,100.0
838,G#4,151.0,0.188,55,100.0
839,B4,151.0,0.188,55,100.0
840,F5,151.25,0.125,69,100.0
841,G#4,151.25,0.188,51,100.0
842,B4,151.25,0.188,51,100.0
843,B-5,151.5,0.25,100,100.0
844,B4,151.5,0.188,54,100.0
845,E-5,151.5,0.188,54,100.0
846,G#5,151.75,0.25,76,100.0
847,B4,151.75,0.188,51,100.0
848,E-5,151.75,0.188,51,100.0
849,B5,152.0,0.125,96,100.0
850,G#4,152.0,0.188,54,100.0
851,D5,152.0,0.188,54,100.0
852,F5,152.25,0.125,73,100.0
853,G#4,152.25,0.188,39,100.0
854,D5,152.25,0.188,39,100.0
855,B-5,152.5,0.125,93,100.0
856,G#4,152.5,0.188,51,100.0
857,D5,152.5,0.188,51,100.0
858,F5,152.75,0.125,71,100.0
859,G#4,152.75,0.188,39,100.0
860,D5,152.75,0.188,39,100.0
861,A5,153.0,0.125,87,100.0
862,F4,153.0,0.188,49,100.0
863,B-4,153.0,0.188,49,100.0
864,D5,153.25,0.125,69,100.0
865,F4,153.25,0.188,37,100.0
866,B-4,153.25,0.188,37,100.0
867,G#5,153.5,0.125,84,100.0
868,F4,153.5,0.188,46,100.0
869,B-4,153.5,0.188,46,100.0
870,D5,153.75,0.125,68,100.0
871,F4,153.75,0.188,35,100.0
872,B-4,153.75,0.188,35,100.0
873,B-4,154.0,0.125,81,100.0
874,E-4,154.0,0.125,56,100.0
875,G4,154.0,0.125,56,100.0
876,A4,154.25,0.125,74,100.0
877,E-4,154.25,0.125,52,100.0
878,G4,154.25,0.125,52,100.0
879,C5,154.5,0.125,76,100.0
880,E-4,154.5,0.125,56,100.0
881,G4,154.5,0.125,56,100.0
882,B-4,154.75,0.125,70,100.0
883,E-4,154.75,0.125,50,100.0
884,G4,154.75,0.125,50,100.0
885,E-5,155.0,0.125,80,100.0
886,E-4,155.0,0.125,56,100.0
887,G4,155.0,0.125,56,100.0
888,D5,155.25,0.125,74,100.0
889,E-4,155.25,0.125,52,100.0
890,G4,155.25,0.125,52,100.0
891,F5,155.5,0.125,76,100.0
892,E-4,155.5,0.125,56,100.0
893,G4,155.5,0.125,56,100.0
894,E-5,155.75,0.125,72,100.0
895,E-4,155.75,0.125,50,100.0
896,G4,155.75,0.125,50,100.0
897,F#5,156.0,0.125,78,100.0
898,B-4,156.0,0.125,56,100.0
899,G4,156.0,0.125,56,100.0
900,G5,156.25,0.125,75,100.0
901,B-4,156.25,0.125,50,100.0
902,G4,156.25,0.125,50,100.0
903,C6,156.5,0.25,92,100.0
904,B-4,156.5,0.125,59,100.0
905,G4,156.5,0.125,59,100.0
906,B-5,156.75,0.25,77,100.0
907,B-4,156.75,0.125,51,100.0
908,G4,156.75,0.125,51,100.0
909,G#5,157.0,0.25,81,100.0
910,B-4,157.0,0.125,58,100.0
911,G4,157.0,0.125,58,100.0
912,G5,157.25,0.25,74,100.0
913,B-4,157.25,0.125,53,100.0
914,G4,157.25,0.125,53,100.0
915,F5,157.5,0.25,78,100.0
916,B-4,157.5,0.125,56,100.0
917,G4,157.5,0.125,56,100.0
918,E-5,157.75,0.25,73,100.0
919,B-4,157.75,0.125,51,100.0
920,G4,157.75,0.125,51,100.0
921,F#6,158.0,0.125,87,100.0
922,F#5,158.0,1.0,57,100.0
923,B4,158.0,0.188,57,100.0
924,E-5,158.0,0.188,57,100.0
925,E-6,158.25,0.125,69,100.0
926,B4,158.25,0.188,51,100.0
927,E-5,158.25,0.188,51,100.0
928,C#6,158.5,0.125,73,100.0
929,B4,158.5,0.188,53,100.0
930,E-5,158.5,0.188,53,100.0
931,B5,158.75,0.125,69,100.0
932,B4,158.75,0.188,47,100.0
933,E-5,158.75,0.188,47,100.0
934,B-5,159.0,0.25,88,100.0
935,E5,159.0,1.0,53,100.0
936,G#4,159.0,0.188,53,100.0
937,B4,159.0,0.188,53,100.0
938,C#6,159.25,0.25,70,100.0
939,G#4,159.25,0.188,47,100.0
940,B4,159.25,0.188,47,100.0
941,B5,159.5,0.25,80,100.0
942,G#4,159.5,0.188,55,100.0
943,B4,159.5,0.188,55,100.0
944,G#5,159.75,0.25,74,100.0
945,G#4,159.75,0.188,48,100.0
946,B4,159.75,0.188,48,100.0
947,F#5,160.0,0.125,77,100.0
948,B4,160.0,1.0,52,100.0
949,E-4,160.0,0.188,52,100.0
950,F#4,160.0,0.188,52,100.0
951,E-5,160.25,0.125,71,100.0
952,E-4,160.25,0.188,46,100.0
953,F#4,160.25,0.188,46,100.0
954,C#5,160.5,0.125,95,100.0
955,E-4,160.5,0.188,54,100.0
956,F#4,160.5,0.188,54,100.0
957,B4,160.75,0.125,76,100.0
958,E-4,160.75,0.188,47,100.0
959,F#4,160.75,0.188,47,100.0
960,B-4,161.0,0.25,90,100.0
961,G#4,161.0,1.0,55,100.0
962,B3,161.0,0.188,55,100.0
963,E4,161.0,0.188,55,100.0
964,C#5,161.25,0.25,71,100.0
965,B3,161.25,0.188,47,100.0
966,E4,161.25,0.188,47,100.0
967,B4,161.5,0.25,74,100.0
968,B3,161.5,0.188,51,100.0
969,E4,161.5,0.188,51,100.0
970,G#4,161.75,0.25,68,100.0
971,B3,161.75,0.188,48,100.0
972,E4,161.75,0.188,48,100.0
973,B-4,162.0,1.0,62,100.0
974,B-3,162.0,0.25,42,100.0
975,F4,162.0,0.188,62,100.0
976,G#4,162.0,0.188,62,100.0
977,C4,162.25,0.25,44,100.0
978,F4,162.25,0.188,66,100.0
979,G#4,162.25,0.188,66,100.0
980,C#4,162.5,0.25,46,100.0
981,F4,162.5,0.188,69,100.0
982,G#4,162.5,0.188,69,100.0
983,D4,162.75,0.25,48,100.0
984,F4,162.75,0.188,73,100.0
985,G#4,162.75,0.188,73,100.0
986,A4,163.0,1.0,89,100.0
987,E-4,163.0,0.188,55,100.0
988,F#4,163.0,0.188,55,100.0
989,F#5,163.25,0.25,68,100.0
990,E-4,163.25,0.188,50,100.0
991,F#4,163.25,0.188,50,100.0
992,F5,163.5,0.25,68,100.0
993,E-4,163.5,0.188,50,100.0
994,F#4,163.5,0.188,50,100.0
995,E-5,163.75,0.25,68,100.0
996,E-4,163.75,0.188,50,100.0
997,F#4,163.75,0.188,50,100.0
998,B-4,164.0,1.0,62,100.0
999,B-3,164.0,0.25,40,100.0
1000,F4,164.0,0.188,62,100.0
1001,G#4,164.0,0.188,62,100.0
1002,C4,164.25,0.25,42,100.0
1003,F4,164.25,0.188,65,100.0
1004,G#4,164.25,0.188,65,100.0
1005,C#4,164.5,0.25,44,100.0
1006,F4,164.5,0.188,68,100.0
1007,G#4,164.5,0.188,68,100.0
1008,D4,164.75,0.25,46,100.0
1009,F4,164.75,0.188,63,100.0
1010,G#4,164.75,0.188,63,100.0
1011,A4,165.0,1.0,91,100.0
1012,E-4,165.0,0.188,55,100.0
1013,F#4,165.0,0.188,55,100.0
1014,F#5,165.25,0.25,70,100.0
1015,E-4,165.25,0.188,48,100.0
1016,F#4,165.25,0.188,48,100.0
1017,F5,165.5,0.25,68,100.0
1018,E-4,165.5,0.188,48,100.0
1019,F#4,165.5,0.188,48,100.0
1020,E-5,165.75,0.25,68,100.0
1021,E-4,165.75,0.188,49,100.0
1022,F#4,165.75,0.188,49,100.0
1023,C#5,166.0,1.0,65,100.0
1024,C#4,166.0,0.25,42,100.0
1025,G#4,166.0,0.188,65,100.0
1026,B4,166.0,0.188,65,100.0
1027,E-4,166.25,0.25,44,100.0
1028,G#4,166.25,0.188,68,100.0
1029,B4,166.25,0.188,68,100.0
1030,E4,166.5,0.25,46,100.0
1031,G#4,166.5,0.188,70,100.0
1032,B4,166.5,0.188,70,100.0
1033,F4,166.75,0.25,48,100.0
1034,G#4,166.75,0.188,73,100.0
1035,B4,166.75,0.188,73,100.0
1036,C5,167.0,1.0,87,100.0
1037,F#4,167.0,0.188,58,100.0
1038,A4,167.0,0.188,58,100.0
1039,A5,167.25,0.25,71,100.0
1040,F#4,167.25,0.188,50,100.0
1041,A4,167.25,0.188,50,100.0
1042,G#5,167.5,0.25,75,100.0
1043,F#4,167.5,0.188,54,100.0
1044,A4,167.5,0.188,54,100.0
1045,F#5,167.75,0.25,71,100.0
1046,F#4,167.75,0.188,50,100.0
1047,A4,167.75,0.188,50,100.0
1048,E-5,168.0,1.0,66,100.0
1049,E-4,168.0,0.25,42,100.0
1050,B-4,168.0,0.188,66,100.0
1051,D5,168.0,0.188,66,100.0
1052,F4,168.25,0.25,44,100.0
1053,B-4,168.25,0.188,68,100.0
1054,D5,168.25,0.188,68,100.0
1055,F#4,168.5,0.25,46,100.0
1056,B-4,168.5,0.188,70,100.0
1057,D5,168.5,0.188,70,100.0
1058,F#4,168.75,0.25,48,100.0
1059,B-4,168.75,0.188,72,100.0
1060,D5,168.75,0.188,72,100.0
1061,D5,169.0,1.0,87,100.0
1062,G#4,169.0,0.188,57,100.0
1063,B4,169.0,0.188,57,100.0
1064,B5,169.25,0.25,72,100.0
1065,G#4,169.25,0.188,48,100.0
1066,B4,169.25,0.188,48,100.0
1067,B-5,169.5,0.25,91,100.0
1068,G#4,169.5,0.188,52,100.0
1069,B4,169.5,0.188,52,100.0
1070,G#5,169.75,0.25,72,100.0
1071,G#4,169.75,0.188,49,100.0
1072,B4,169.75,0.188,49,100.0
1073,B-3,170.0,0.25,54,100.0
1074,B3,170.25,0.25,54,100.0
1075,G#4,170.5,0.5,77,100.0
1076,B4,170.5,0.5,77,100.0
1077,E-4,170.5,0.5,44,100.0
1078,F4,170.5,0.5,44,100.0
1079,F5,170.75,0.25,77,100.0
1080,B-3,171.0,0.25,54,100.0
1081,B3,171.25,0.25,54,100.0
1082,G#4,171.5,0.5,77,100.0
1083,B4,171.5,0.5,77,100.0
1084,E-4,171.5,0.5,45,100.0
1085,F4,171.5,0.5,45,100.0
1086,F5,171.75,0.25,77,100.0
1087,B4,172.0,0.25,77,100.0
1088,B-4,172.25,0.25,70,100.0
1089,F4,172.25,0.5,56,100.0
1090,G#4,172.25,0.5,56,100.0
1091,B4,172.5,0.25,74,100.0
1092,B-4,172.75,0.25,67,100.0
1093,E4,172.75,0.5,52,100.0
1094,G4,172.75,0.5,52,100.0
1095,B4,173.0,0.25,73,100.0
1096,B-4,173.25,0.25,67,100.0
1097,E-4,173.25,0.5,49,100.0
1098,F#4,173.25,0.5,49,100.0
1099,B4,173.5,0.25,73,100.0
1100,F5,173.75,0.25,67,100.0
1101,D4,173.75,0.25,48,100.0
1102,F4,173.75,0.25,48,100.0
1103,B-4,174.0,0.125,85,100.0
1104,E-4,174.0,0.125,56,100.0
1105,G4,174.0,0.125,56,100.0
1106,A4,174.25,0.125,74,100.0
1107,E-4,174.25,0.125,52,100.0
1108,G4,174.25,0.125,52,100.0
1109,C5,174.5,0.125,76,100.0
1110,E-4,174.5,0.125,56,100.0
1111,G4,174.5,0.125,56,100.0
1112,B-4,174.75,0.125,70,100.0
1113,E-4,174.75,0.125,50,100.0
1114,G4,174.75,0.125,50,100.0
1115,E-5,175.0,0.125,80,100.0
1116,E-4,175.0,0.125,56,100.0
1117,G4,175.0,0.125,56,100.0
1118,D5,175.25,0.125,74,100.0
1119,E-4,175.25,0.125,52,100.0
1120,G4,175.25,0.125,52,100.0
1121,F5,175.5,0.125,76,100.0
1122,E-4,175.5,0.125,56,100.0
1123,G4,175.5,0.125,56,100.0
1124,E-5,175.75,0.125,72,100.0
1125,E-4,175.75,0.125,50,100.0
1126,G4,175.75,0.125,50,100.0
1127,F#5,176.0,0.125,78,100.0
1128,B-4,176.0,0.125,56,100.0
1129,G4,176.0,0.125,56,100.0
1130,G5,176.25,0.125,75,100.0
1131,B-4,176.25,0.125,50,100.0
1132,G4,176.25,0.125,50,100.0
1133,C6,176.5,0.25,94,100.0
1134,B-4,176.5,0.125,59,100.0
1135,G4,176.5,0.125,59,100.0
1136,B-5,176.75,0.25,77,100.0
1137,B-4,176.75,0.125,51,100.0
1138,G4,176.75,0.125,51,100.0
1139,G#5,177.0,0.25,81,100.0
1140,B-4,177.0,0.125,58,100.0
1141,G4,177.0,0.125,58,100.0
1142,G5,177.25,0.25,74,100.0
1143,B-4,177.25,0.125,53,100.0
1144,G4,177.25,0.125,53,100.0
1145,F5,177.5,0.25,78,100.0
1146,B-4,177.5,0.125,56,100.0
1147,G4,177.5,0.125,56,100.0
1148,E-5,177.75,0.25,73,100.0
1149,B-4,177.75,0.125,51,100.0
1150,G4,177.75,0.125,51,100.0
1151,B5,178.0,0.125,73,100.0
1152,G#4,178.0,0.188,54,100.0
1153,B4,178.0,0.188,54,100.0
1154,F5,178.25,0.125,69,100.0
1155,G#4,178.25,0.188,48,100.0
1156,B4,178.25,0.188,48,100.0
1157,B-5,178.5,0.25,96,100.0
1158,B4,178.5,0.188,54,100.0
1159,E-5,178.5,0.188,54,100.0
1160,G#5,178.75,0.25,78,100.0
1161,B4,178.75,0.188,49,100.0
1162,E-5,178.75,0.188,49,100.0
1163,B5,179.0,0.125,74,100.0
1164,G#4,179.0,0.188,55,100.0
1165,B4,179.0,0.188,55,100.0
1166,F5,179.25,0.125,69,100.0
1167,G#4,179.25,0.188,51,100.0
1168,B4,179.25,0.188,51,100.0
1169,B-5,179.5,0.25,94,100.0
1170,B4,179.5,0.188,54,100.0
1171,E-5,179.5,0.188,54,100.0
1172,G#5,179.75,0.25,76,100.0
1173,B4,179.75,0.188,51,100.0
1174,E-5,179.75,0.188,51,100.0
1175,E-6,180.0,0.125,96,100.0
1176,G#4,180.0,1.0,43,100.0
1177,C5,180.0,0.188,54,100.0
1178,E-5,180.0,0.188,54,100.0
1179,D6,180.25,0.125,73,100.0
1180,C5,180.25,0.188,46,100.0
1181,E-5,180.25,0.188,46,100.0
1182,F6,180.5,0.125,84,100.0
1183,C5,180.5,0.188,54,100.0
1184,E-5,180.5,0.188,54,100.0
1185,E-6,180.75,0.125,71,100.0
1186,C5,180.75,0.188,44,100.0
1187,E-5,180.75,0.188,44,100.0
1188,B5,181.0,0.25,88,100.0
1189,E-4,181.0,1.0,43,100.0
1190,G#4,181.0,0.188,53,100.0
1191,C5,181.0,0.188,53,100.0
1192,D6,181.25,0.25,69,100.0
1193,G#4,181.25,0.188,43,100.0
1194,C5,181.25,0.188,43,100.0
1195,C6,181.5,0.25,76,100.0
1196,G#4,181.5,0.188,50,100.0
1197,C5,181.5,0.188,50,100.0
1198,G#5,181.75,0.25,68,100.0
1199,G#4,181.75,0.188,43,100.0
1200,C5,181.75,0.188,43,100.0
1201,G5,182.0,0.25,89,100.0
1202,C4,182.0,1.0,52,100.0
1203,E-4,182.0,0.188,52,100.0
1204,G#4,182.0,0.188,52,100.0
1205,B-5,182.25,0.25,72,100.0
1206,E-4,182.25,0.188,43,100.0
1207,G#4,182.25,0.188,43,100.0
1208,G#5,182.5,0.25,79,100.0
1209,E-4,182.5,0.188,49,100.0
1210,G#4,182.5,0.188,49,100.0
1211,F5,182.75,0.25,74,100.0
1212,E-4,182.75,0.188,43,100.0
1213,G#4,182.75,0.188,43,100.0
1214,E-5,183.0,0.125,85,100.0
1215,G#3,183.0,1.0,49,100.0
1216,C4,183.0,0.188,49,100.0
1217,E-4,183.0,0.188,49,100.0
1218,D5,183.25,0.125,73,100.0
1219,C4,183.25,0.188,43,100.0
1220,E-4,183.25,0.188,43,100.0
1221,F5,183.5,0.125,91,100.0
1222,C4,183.5,0.188,52,100.0
1223,E-4,183.5,0.188,52,100.0
1224,E-5,183.75,0.125,74,100.0
1225,C4,183.75,0.188,43,100.0
1226,E-4,183.75,0.188,43,100.0
1227,B-5,184.0,0.125,71,100.0
1228,G5,184.0,0.125,71,100.0
1229,G3,184.0,0.5,60,100.0
1230,B-3,184.0,0.5,60,100.0
1231,G4,184.0,0.5,60,100.0
1232,E-4,184.0,0.5,60,100.0
1233,B-3,184.25,0.25,63,100.0
1234,B-5,184.25,0.125,73,100.0
1235,G5,184.25,0.125,73,100.0
1236,D4,184.5,0.25,66,100.0
1237,B-5,184.5,0.125,75,100.0
1238,G5,184.5,0.125,75,100.0
1239,E-4,184.75,0.25,69,100.0
1240,B-5,184.75,0.125,78,100.0
1241,G5,184.75,0.125,78,100.0
1242,G4,185.0,0.25,72,100.0
1243,B-5,185.0,0.125,80,100.0
1244,G5,185.0,0.125,80,100.0
1245,B-4,185.25,0.25,75,100.0
1246,B-5,185.25,0.125,82,100.0
1247,G5,185.25,0.125,82,100.0
1248,D5,185.5,0.25,78,100.0
1249,B-5,185.5,0.125,84,100.0
1250,G5,185.5,0.125,84,100.0
1251,E-5,185.75,0.25,81,100.0
1252,B-5,185.75,0.125,85,100.0
1253,G5,185.75,0.125,85,100.0
1254,D6,186.0,0.5,94,100.0
1255,F#5,186.0,0.5,94,100.0
1256,D5,186.0,0.5,94,100.0
1257,F#4,186.0,0.5,84,100.0
1258,A4,186.0,0.5,84,100.0
1259,A3,186.5,0.25,71,100.0
1260,F#5,186.5,0.188,74,100.0
1261,D5,186.5,0.188,74,100.0
1262,C#4,186.75,0.25,66,100.0
1263,F#5,186.75,0.188,70,100.0
1264,D5,186.75,0.188,70,100.0
1265,D4,187.0,0.25,70,100.0
1266,F#5,187.0,0.188,76,100.0
1267,D5,187.0,0.188,76,100.0
1268,E4,187.25,0.25,66,100.0
1269,F#5,187.25,0.188,70,100.0
1270,D5,187.25,0.188,70,100.0
1271,F#4,187.5,0.25,70,100.0
1272,F#5,187.5,0.188,75,100.0
1273,D5,187.5,0.188,75,100.0
1274,A4,187.75,0.25,65,100.0
1275,F#5,187.75,0.188,71,100.0
1276,D5,187.75,0.188,71,100.0
1277,B-4,188.0,0.25,78,100.0
1278,E5,188.0,0.5,89,100.0
1279,D5,188.0,0.5,89,100.0
1280,G#4,188.25,0.25,74,100.0
1281,B-5,188.5,0.125,70,100.0
1282,G#5,188.5,0.125,70,100.0
1283,D4,188.5,0.25,64,100.0
1284,E4,188.5,0.25,64,100.0
1285,B-5,188.75,0.125,67,100.0
1286,G#5,188.75,0.125,67,100.0
1287,B-4,189.0,0.25,77,100.0
1288,E5,189.0,0.5,89,100.0
1289,D5,189.0,0.5,89,100.0
1290,G#4,189.25,0.25,72,100.0
1291,B-5,189.5,0.125,68,100.0
1292,G#5,189.5,0.125,68,100.0
1293,D4,189.5,0.25,67,100.0
1294,E4,189.5,0.25,67,100.0
1295,B-5,189.75,0.125,68,100.0
1296,G#5,189.75,0.125,68,100.0
1297,B-3,190.0,1.0,71,100.0
1298,D5,190.0,0.188,71,100.0
1299,E5,190.0,0.188,71,100.0
1300,D5,190.25,0.188,71,100.0
1301,E5,190.25,0.188,71,100.0
1302,D5,190.5,0.188,71,100.0
1303,E5,190.5,0.188,71,100.0
1304,D5,190.75,0.188,71,100.0
1305,E5,190.75,0.188,71,100.0
1306,A3,191.0,0.25,62,100.0
1307,E5,191.0,0.188,74,100.0
1308,D5,191.0,0.188,74,100.0
1309,G#3,191.25,0.25,62,100.0
1310,D5,191.25,0.188,77,100.0
1311,E5,191.25,0.188,77,100.0
1312,B3,191.5,0.25,62,100.0
1313,D5,191.5,0.188,80,100.0
1314,E5,191.5,0.188,80,100.0
1315,B-3,191.75,0.25,62,100.0
1316,D5,191.75,0.188,84,100.0
1317,E5,191.75,0.188,84,100.0
1318,A3,192.0,0.125,63,100.0
1319,C#5,192.0,0.125,91,100.0
1320,E5,192.0,0.125,91,100.0
1321,B3,192.25,0.125,66,100.0
1322,C#5,192.25,0.125,82,100.0
1323,E5,192.25,0.125,82,100.0
1324,C4,192.5,0.125,69,100.0
1325,C#5,192.5,0.125,87,100.0
1326,E5,192.5,0.125,87,100.0
1327,C#4,192.75,0.125,71,100.0
1328,C#5,192.75,0.125,79,100.0
1329,E5,192.75,0.125,79,100.0
1330,F#4,193.0,0.25,78,100.0
1331,A5,193.0,0.5,96,100.0
1332,C#5,193.0,0.5,96,100.0
1333,E4,193.25,0.25,70,100.0
1334,C#4,193.5,0.25,74,100.0
1335,A3,193.75,0.25,69,100.0
1336,D6,194.0,0.5,94,100.0
1337,F#5,194.0,0.5,94,100.0
1338,D5,194.0,0.5,94,100.0
1339,F#4,194.0,0.5,83,100.0
1340,A4,194.0,0.5,83,100.0
1341,A3,194.5,0.25,70,100.0
1342,F#5,194.5,0.188,75,100.0
1343,D5,194.5,0.188,75,100.0
1344,C#4,194.75,0.25,65,100.0
1345,F#5,194.75,0.188,70,100.0
1346,D5,194.75,0.188,70,100.0
1347,D4,195.0,0.25,70,100.0
1348,F#5,195.0,0.188,75,100.0
1349,D5,195.0,0.188,75,100.0
1350,E4,195.25,0.25,65,100.0
1351,F#5,195.25,0.188,69,100.0
1352,D5,195.25,0.188,69,100.0
1353,F#4,195.5,0.25,70,100.0
1354,F#5,195.5,0.188,75,100.0
1355,D5,195.5,0.188,75,100.0
1356,A4,195.75,0.25,66,100.0
1357,F#5,195.75,0.188,70,100.0
1358,D5,195.75,0.188,70,100.0
1359,C5,196.0,0.25,78,100.0
1360,E5,196.0,0.5,89,100.0
1361,F#5,196.0,0.5,89,100.0
1362,B-4,196.25,0.25,73,100.0
1363,C6,196.5,0.125,68,100.0
1364,B-5,196.5,0.125,68,100.0
1365,F#4,196.5,0.25,67,100.0
1366,E4,196.5,0.25,67,100.0
1367,C6,196.75,0.125,68,100.0
1368,B-5,196.75,0.125,68,100.0
1369,C5,197.0,0.25,77,100.0
1370,E5,197.0,0.5,89,100.0
1371,F#5,197.0,0.5,89,100.0
1372,B-4,197.25,0.25,72,100.0
1373,C6,197.5,0.125,69,100.0
1374,B-5,197.5,0.125,69,100.0
1375,F#4,197.5,0.25,66,100.0
1376,E4,197.5,0.25,66,100.0
1377,C6,197.75,0.125,69,100.0
1378,B-5,197.75,0.125,69,100.0
1379,C4,198.0,1.0,71,100.0
1380,F#5,198.0,0.188,71,100.0
1381,E5,198.0,0.188,71,100.0
1382,F#5,198.25,0.188,71,100.0
1383,E5,198.25,0.188,71,100.0
1384,F#5,198.5,0.188,71,100.0
1385,E5,198.5,0.188,71,100.0
1386,F#5,198.75,0.188,71,100.0
1387,E5,198.75,0.188,71,100.0
1388,B3,199.0,0.25,62,100.0
1389,E5,199.0,0.188,70,100.0
1390,F#5,199.0,0.188,70,100.0
1391,B-3,199.25,0.25,62,100.0
1392,F#5,199.25,0.188,71,100.0
1393,E5,199.25,0.188,71,100.0
1394,C#4,199.5,0.25,62,100.0
1395,F#5,199.5,0.188,73,100.0
1396,E5,199.5,0.188,73,100.0
1397,C4,199.75,0.25,62,100.0
1398,F#5,199.75,0.188,75,100.0
1399,E5,199.75,0.188,75,100.0
1400,B3,200.0,0.125,61,100.0
1401,F#5,200.0,0.125,81,100.0
1402,E-5,200.0,0.125,81,100.0
1403,C#4,200.25,0.125,63,100.0
1404,F#5,200.25,0.125,74,100.0
1405,E-5,200.25,0.125,74,100.0
1406,D4,200.5,0.125,65,100.0
1407,F#5,200.5,0.125,79,100.0
1408,E-5,200.5,0.125,79,100.0
1409,E-4,200.75,0.125,67,100.0
1410,F#5,200.75,0.125,71,100.0
1411,E-5,200.75,0.125,71,100.0
1412,G4,201.0,0.25,73,100.0
1413,B5,201.0,0.5,85,100.0
1414,E-5,201.0,0.5,85,100.0
1415,F4,201.25,0.25,66,100.0
1416,E-4,201.5,0.25,71,100.0
1417,B3,201.75,0.25,66,100.0
1418,E6,202.0,0.5,94,100.0
1419,E5,202.0,0.5,94,100.0
1420,B4,202.0,0.5,83,100.0
1421,E4,202.0,0.5,83,100.0
1422,G4,202.0,0.5,83,100.0
1423,E-5,202.5,0.25,70,100.0
1424,G4,202.5,0.188,66,100.0
1425,E4,202.5,0.188,66,100.0
1426,E5,202.75,0.25,67,100.0
1427,E4,202.75,0.188,58,100.0
1428,G4,202.75,0.188,58,100.0
1429,F#5,203.0,0.25,72,100.0
1430,E4,203.0,0.188,66,100.0
1431,G4,203.0,0.188,66,100.0
1432,G5,203.25,0.25,70,100.0
1433,E4,203.25,0.188,58,100.0
1434,G4,203.25,0.188,58,100.0
1435,B-5,203.5,0.25,74,100.0
1436,E4,203.5,0.188,66,100.0
1437,G4,203.5,0.188,66,100.0
1438,B5,203.75,0.25,72,100.0
1439,E4,203.75,0.188,59,100.0
1440,G4,203.75,0.188,59,100.0
1441,D4,204.0,0.5,70,100.0
1442,A4,204.0,0.25,70,100.0
1443,F5,204.0,0.5,89,100.0
1444,D6,204.0,0.5,89,100.0
1445,D5,204.0,0.5,89,100.0
1446,A4,204.25,0.25,65,100.0
1447,G#5,204.5,0.25,74,100.0
1448,B4,204.5,0.25,66,100.0
1449,D5,204.5,0.5,74,100.0
1450,F5,204.5,0.5,74,100.0
1451,G5,204.75,0.25,76,100.0
1452,B4,204.75,0.25,59,100.0
1453,C6,205.0,0.5,86,100.0
1454,E-5,205.0,0.5,86,100.0
1455,C5,205.0,0.5,66,100.0
1456,E-4,205.0,0.5,66,100.0
1457,G4,205.0,0.5,66,100.0
1458,B4,205.5,0.25,70,100.0
1459,C4,205.5,0.188,66,100.0
1460,E-4,205.5,0.188,66,100.0
1461,C5,205.75,0.25,67,100.0
1462,E-4,205.75,0.188,58,100.0
1463,C4,205.75,0.188,58,100.0
1464,D5,206.0,0.25,72,100.0
1465,E-4,206.0,0.188,66,100.0
1466,C4,206.0,0.188,66,100.0
1467,E-5,206.25,0.25,70,100.0
1468,E-4,206.25,0.188,58,100.0
1469,C4,206.25,0.188,58,100.0
1470,F#5,206.5,0.25,74,100.0
1471,E-4,206.5,0.188,66,100.0
1472,C4,206.5,0.188,66,100.0
1473,G5,206.75,0.25,72,100.0
1474,E-4,206.75,0.188,59,100.0
1475,C4,206.75,0.188,59,100.0
1476,B-3,207.0,0.5,70,100.0
1477,F4,207.0,0.25,70,100.0
1478,C#5,207.0,0.5,89,100.0
1479,B-5,207.0,0.5,89,100.0
1480,B-4,207.0,0.5,89,100.0
1481,F4,207.25,0.25,65,100.0
1482,E5,207.5,0.25,74,100.0
1483,G4,207.5,0.25,66,100.0
1484,C#5,207.5,0.5,74,100.0
1485,B-4,207.5,0.5,74,100.0
1486,E-5,207.75,0.25,70,100.0
1487,G4,207.75,0.25,59,100.0
1488,G#5,208.0,0.5,84,100.0
1489,C5,208.0,0.5,84,100.0
1490,E-5,208.0,0.5,84,100.0
1491,G#4,208.0,0.5,67,100.0
1492,E-4,208.0,0.5,67,100.0
1493,C4,208.0,0.5,67,100.0
1494,B4,208.5,0.25,70,100.0
1495,G#4,208.5,0.188,66,100.0
1496,E-4,208.5,0.188,66,100.0
1497,C5,208.75,0.25,67,100.0
1498,E-4,208.75,0.188,58,100.0
1499,G#4,208.75,0.188,58,100.0
1500,G4,209.0,0.25,71,100.0
1501,E-4,209.0,0.188,66,100.0
1502,C4,209.0,0.188,66,100.0
1503,G#4,209.25,0.25,67,100.0
1504,E-4,209.25,0.188,58,100.0
1505,C4,209.25,0.188,58,100.0
1506,B4,209.5,0.25,72,100.0
1507,E-4,209.5,0.188,66,100.0
1508,G#3,209.5,0.188,66,100.0
1509,C5,209.75,0.25,68,100.0
1510,E-4,209.75,0.188,59,100.0
1511,G#3,209.75,0.188,59,100.0
1512,B-3,210.0,0.25,70,100.0
1513,B3,210.25,0.25,65,100.0
1514,B4,210.5,0.25,88,100.0
1515,G#4,210.5,0.5,79,100.0
1516,E-4,210.5,0.5,66,100.0
1517,F4,210.5,0.5,66,100.0
1518,F5,210.75,0.25,80,100.0
1519,G#5,211.0,0.5,84,100.0
1520,C5,211.0,0.5,84,100.0
1521,E-5,211.0,0.5,84,100.0
1522,G#4,211.0,0.5,66,100.0
1523,E-4,211.0,0.5,66,100.0
1524,C4,211.0,0.5,66,100.0
1525,B4,211.5,0.25,70,100.0
1526,G#4,211.5,0.188,66,100.0
1527,E-4,211.5,0.188,66,100.0
1528,C5,211.75,0.25,65,100.0
1529,E-4,211.75,0.188,58,100.0
1530,G#4,211.75,0.188,58,100.0
1531,G4,212.0,0.25,71,100.0
1532,E-4,212.0,0.188,66,100.0
1533,C4,212.0,0.188,66,100.0
1534,G#4,212.25,0.25,67,100.0
1535,E-4,212.25,0.188,58,100.0
1536,C4,212.25,0.188,58,100.0
1537,B4,212.5,0.25,74,100.0
1538,E-4,212.5,0.188,66,100.0
1539,G#3,212.5,0.188,66,100.0
1540,C5,212.75,0.25,67,100.0
1541,E-4,212.75,0.188,59,100.0
1542,G#3,212.75,0.188,59,100.0
1543,B-3,213.0,0.25,70,100.0
1544,B3,213.25,0.25,65,100.0
1545,B4,213.5,0.25,85,100.0
1546,G#4,213.5,0.5,77,100.0
1547,E-4,213.5,0.5,66,100.0
1548,F4,213.5,0.5,66,100.0
1549,F5,213.75,0.25,80,100.0
1550,B-4,214.0,0.25,77,100.0
1551,E5,214.0,0.5,89,100.0
1552,D5,214.0,0.5,89,100.0
1553,G#4,214.25,0.25,72,100.0
1554,B-5,214.5,0.125,68,100.0
1555,G#5,214.5,0.125,68,100.0
1556,D4,214.5,0.5,67,100.0
1557,E4,214.5,0.5,67,100.0
1558,B-5,214.75,0.125,68,100.0
1559,G#5,214.75,0.125,68,100.0
1560,C#6,215.0,0.5,84,100.0
1561,C#5,215.0,0.5,84,100.0
1562,F5,215.0,0.5,84,100.0
1563,C#4,215.0,0.5,74,100.0
1564,G#4,215.0,0.5,74,100.0
1565,B4,215.0,0.5,74,100.0
1566,E5,215.5,0.25,70,100.0
1567,G#4,215.5,0.188,66,100.0
1568,B4,215.5,0.188,66,100.0
1569,F5,215.75,0.25,65,100.0
1570,B4,215.75,0.188,58,100.0
1571,G#4,215.75,0.188,58,100.0
1572,C5,216.0,0.25,70,100.0
1573,F4,216.0,0.188,66,100.0
1574,G#4,216.0,0.188,66,100.0
1575,C#5,216.25,0.25,66,100.0
1576,F4,216.25,0.188,58,100.0
1577,G#4,216.25,0.188,58,100.0
1578,E5,216.5,0.25,71,100.0
1579,G#4,216.5,0.188,66,100.0
1580,C#4,216.5,0.188,66,100.0
1581,F5,216.75,0.25,67,100.0
1582,G#4,216.75,0.188,59,100.0
1583,C#4,216.75,0.188,59,100.0
1584,E-4,217.0,0.25,70,100.0
1585,E4,217.25,0.25,65,100.0
1586,E5,217.5,0.25,85,100.0
1587,C#5,217.5,0.5,85,100.0
1588,G#4,217.5,0.5,66,100.0
1589,B-4,217.5,0.5,66,100.0
1590,B-5,217.75,0.25,80,100.0
1591,B-4,218.0,0.25,77,100.0
1592,E5,218.0,0.5,89,100.0
1593,D5,218.0,0.5,89,100.0
1594,G#4,218.25,0.25,72,100.0
1595,B-5,218.5,0.125,68,100.0
1596,A5,218.5,0.125,68,100.0
1597,D4,218.5,0.25,67,100.0
1598,E4,218.5,0.25,67,100.0
1599,B-5,218.75,0.125,68,100.0
1600,A5,218.75,0.125,68,100.0
1601,E-4,219.0,0.25,70,100.0
1602,E4,219.25,0.25,65,100.0
1603,E5,219.5,0.25,85,100.0
1604,C#5,219.5,0.5,85,100.0
1605,G#4,219.5,0.5,66,100.0
1606,B-4,219.5,0.5,66,100.0
1607,B-5,219.75,0.25,80,100.0
1608,E-4,220.0,0.25,70,100.0
1609,E4,220.25,0.25,65,100.0
1610,E5,220.5,0.25,85,100.0
1611,D5,220.5,0.5,85,100.0
1612,G#4,220.5,0.5,66,100.0
1613,B4,220.5,0.5,66,100.0
1614,B5,220.75,0.25,80,100.0
1615,B-4,221.0,0.25,77,100.0
1616,E5,221.0,0.5,89,100.0
1617,D5,221.0,0.5,89,100.0
1618,G#4,221.25,0.25,72,100.0
1619,B-5,221.5,0.125,72,100.0
1620,G#5,221.5,0.125,72,100.0
1621,D4,221.5,0.5,67,100.0
1622,E4,221.5,0.5,67,100.0
1623,B-5,221.75,0.125,72,100.0
1624,G#5,221.75,0.125,72,100.0
1625,E-4,222.0,0.25,70,100.0
1626,E4,222.25,0.25,65,100.0
1627,E5,222.5,0.25,85,100.0
1628,D5,222.5,0.5,85,100.0
1629,G#4,222.5,0.5,66,100.0
1630,B4,222.5,0.5,66,100.0
1631,B5,222.75,0.25,80,100.0
1632,E-4,223.0,0.25,70,100.0
1633,E4,223.25,0.25,65,100.0
1634,G5,223.5,0.25,85,100.0
1635,E5,223.5,0.5,85,100.0
1636,A4,223.5,0.5,66,100.0
1637,C#5,223.5,0.5,66,100.0
1638,C#6,223.75,0.25,80,100.0
1639,B-4,224.0,0.25,77,100.0
1640,E5,224.0,0.5,89,100.0
1641,D5,224.0,0.5,89,100.0
1642,G#4,224.25,0.25,72,100.0
1643,B-5,224.5,0.125,73,100.0
1644,G#5,224.5,0.125,73,100.0
1645,D4,224.5,0.25,67,100.0
1646,E4,224.5,0.25,67,100.0
1647,B-5,224.75,0.125,73,100.0
1648,G#5,224.75,0.125,73,100.0
1649,E-4,225.0,0.25,70,100.0
1650,E4,225.25,0.25,65,100.0
1651,G5,225.5,0.25,85,100.0
1652,E5,225.5,0.5,85,100.0
1653,A4,225.5,0.5,66,100.0
1654,C#5,225.5,0.5,66,100.0
1655,C#6,225.75,0.25,80,100.0
1656,E-4,226.0,0.25,70,100.0
1657,E4,226.25,0.25,65,100.0
1658,G5,226.5,0.25,85,100.0
1659,E5,226.5,0.5,85,100.0
1660,A4,226.5,0.5,66,100.0
1661,C#5,226.5,0.5,66,100.0
1662,C#6,226.75,0.25,80,100.0
1663,E-4,227.0,0.25,70,100.0
1664,E4,227.25,0.25,65,100.0
1665,G5,227.5,0.25,85,100.0
1666,E5,227.5,0.5,85,100.0
1667,A4,227.5,0.5,66,100.0
1668,C#5,227.5,0.5,66,100.0
1669,C#6,227.75,0.25,80,100.0
1670,G#4,228.0,0.25,70,100.0
1671,A4,228.25,0.25,65,100.0
1672,A5,228.5,0.25,85,100.0
1673,G5,228.5,0.5,85,100.0
1674,E5,228.5,0.5,66,100.0
1675,C#5,228.5,0.5,66,100.0
1676,E6,228.75,0.25,76,100.0
1677,A5,229.0,0.25,89,100.0
1678,G5,229.0,0.5,89,100.0
1679,E5,229.0,0.5,66,100.0
1680,C#5,229.0,0.5,66,100.0
1681,E6,229.25,0.25,81,100.0
1682,A5,229.5,0.25,93,100.0
1683,G5,229.5,0.5,93,100.0
1684,E5,229.5,0.5,66,100.0
1685,C#5,229.5,0.5,66,100.0
1686,E6,229.75,0.25,80,100.0
1687,D5,230.0,0.125,94,100.0
1688,D4,230.0,0.125,79,100.0
1689,D5,230.25,0.125,86,100.0
1690,D4,230.25,0.125,71,100.0
1691,D5,230.5,0.125,94,100.0
1692,D4,230.5,0.125,79,100.0
1693,D5,230.75,0.125,85,100.0
1694,D4,230.75,0.125,71,100.0
1695,D5,231.0,0.125,94,100.0
1696,D4,231.0,0.125,80,100.0
1697,E-5,231.25,0.125,88,100.0
1698,E-4,231.25,0.125,73,100.0
1699,D5,231.5,0.125,94,100.0
1700,D4,231.5,0.125,81,100.0
1701,F5,231.75,0.125,88,100.0
1702,F4,231.75,0.125,71,100.0
1703,D5,232.0,0.125,94,100.0
1704,D4,232.0,0.125,81,100.0
1705,D5,232.25,0.125,86,100.0
1706,D4,232.25,0.125,72,100.0
1707,D5,232.5,0.125,94,100.0
1708,D4,232.5,0.125,81,100.0
1709,D5,232.75,0.125,86,100.0
1710,D4,232.75,0.125,73,100.0
1711,D5,233.0,0.125,94,100.0
1712,D4,233.0,0.125,81,100.0
1713,E5,233.25,0.125,86,100.0
1714,E4,233.25,0.125,73,100.0
1715,D5,233.5,0.125,94,100.0
1716,D4,233.5,0.125,81,100.0
1717,A5,233.75,0.125,85,100.0
1718,A4,233.75,0.125,72,100.0
1719,D5,234.0,0.125,92,100.0
1720,D5,234.25,0.125,87,100.0
1721,D5,234.5,0.125,86,100.0
1722,D5,234.75,0.125,86,100.0
1723,D5,235.0,0.188,92,100.0
1724,D5,235.25,0.188,92,100.0
1725,C#5,235.25,0.25,75,100.0
1726,D5,235.5,0.188,91,100.0
1727,C5,235.5,0.25,74,100.0
1728,D5,235.75,0.188,91,100.0
1729,B4,235.75,0.25,73,100.0
1730,D5,236.0,0.188,90,100.0
1731,B-4,236.0,0.25,72,100.0
1732,D5,236.25,0.188,90,100.0
1733,A4,236.25,0.25,72,100.0
1734,D5,236.5,0.188,89,100.0
1735,G#4,236.5,0.25,71,100.0
1736,D5,236.75,0.188,88,100.0
1737,G4,236.75,0.25,70,100.0
1738,D5,237.0,0.188,88,100.0
1739,F#4,237.0,0.25,69,100.0
1740,D5,237.25,0.188,87,100.0
1741,F4,237.25,0.25,68,100.0
1742,D5,237.5,0.188,87,100.0
1743,E4,237.5,0.25,67,100.0
1744,D5,237.75,0.188,86,100.0
1745,E-4,237.75,0.25,66,100.0
1746,B-4,238.0,0.125,85,100.0
1747,E-4,238.0,0.188,56,100.0
1748,G4,238.0,0.188,56,100.0
1749,A4,238.25,0.125,74,100.0
1750,E-4,238.25,0.188,52,100.0
1751,G4,238.25,0.188,52,100.0
1752,C5,238.5,0.125,76,100.0
1753,E-4,238.5,0.188,56,100.0
1754,G4,238.5,0.188,56,100.0
1755,B-4,238.75,0.125,70,100.0
1756,E-4,238.75,0.188,50,100.0
1757,G4,238.75,0.188,50,100.0
1758,E-5,239.0,0.125,80,100.0
1759,E-4,239.0,0.188,56,100.0
1760,G4,239.0,0.188,56,100.0
1761,D5,239.25,0.125,74,100.0
1762,E-4,239.25,0.188,52,100.0
1763,G4,239.25,0.188,52,100.0
1764,F5,239.5,0.125,76,100.0
1765,E-4,239.5,0.188,56,100.0
1766,G4,239.5,0.188,56,100.0
1767,E-5,239.75,0.125,72,100.0
1768,E-4,239.75,0.188,50,100.0
1769,G4,239.75,0.188,50,100.0
1770,F#5,240.0,0.125,78,100.0
1771,B-4,240.0,0.188,56,100.0
1772,G4,240.0,0.188,56,100.0
1773,G5,240.25,0.125,75,100.0
1774,B-4,240.25,0.188,50,100.0
1775,G4,240.25,0.188,50,100.0
1776,C6,240.5,0.25,93,100.0
1777,B-4,240.5,0.188,59,100.0
1778,G4,240.5,0.188,59,100.0
1779,B-5,240.75,0.25,77,100.0
1780,B-4,240.75,0.188,51,100.0
1781,G4,240.75,0.188,51,100.0
1782,G#5,241.0,0.25,81,100.0
1783,B-4,241.0,0.188,58,100.0
1784,G4,241.0,0.188,58,100.0
1785,G5,241.25,0.25,74,100.0
1786,B-4,241.25,0.188,53,100.0
1787,G4,241.25,0.188,53,100.0
1788,F5,241.5,0.25,78,100.0
1789,B-4,241.5,0.188,56,100.0
1790,G4,241.5,0.188,56,100.0
1791,E-5,241.75,0.25,73,100.0
1792,B-4,241.75,0.188,51,100.0
1793,G4,241.75,0.188,51,100.0
1794,B5,242.0,0.125,73,100.0
1795,G#4,242.0,0.188,54,100.0
1796,B4,242.0,0.188,54,100.0
1797,F5,242.25,0.125,69,100.0
1798,G#4,242.25,0.188,48,100.0
1799,B4,242.25,0.188,48,100.0
1800,B-5,242.5,0.25,99,100.0
1801,B4,242.5,0.188,54,100.0
1802,E-5,242.5,0.188,54,100.0
1803,G#5,242.75,0.25,78,100.0
1804,B4,242.75,0.188,49,100.0
1805,E-5,242.75,0.188,49,100.0
1806,B5,243.0,0.125,74,100.0
1807,G#4,243.0,0.188,55,100.0
1808,B4,243.0,0.188,55,100.0
1809,F5,243.25,0.125,69,100.0
1810,G#4,243.25,0.188,51,100.0
1811,B4,243.25,0.188,51,100.0
1812,B-5,243.5,0.25,99,100.0
1813,B4,243.5,0.188,54,100.0
1814,E-5,243.5,0.188,54,100.0
1815,G#5,243.75,0.25,76,100.0
1816,B4,243.75,0.188,51,100.0
1817,E-5,243.75,0.188,51,100.0
1818,B5,244.0,0.125,98,100.0
1819,G#4,244.0,0.188,51,100.0
1820,D5,244.0,0.188,51,100.0
1821,F5,244.25,0.125,73,100.0
1822,G#4,244.25,0.188,42,100.0
1823,D5,244.25,0.188,42,100.0
1824,B-5,244.5,0.125,89,100.0
1825,G#4,244.5,0.188,49,100.0
1826,D5,244.5,0.188,49,100.0
1827,F5,244.75,0.125,71,100.0
1828,G#4,244.75,0.188,39,100.0
1829,D5,244.75,0.188,39,100.0
1830,A5,245.0,0.125,83,100.0
1831,F4,245.0,0.188,47,100.0
1832,B-4,245.0,0.188,47,100.0
1833,D5,245.25,0.125,69,100.0
1834,F4,245.25,0.188,38,100.0
1835,B-4,245.25,0.188,38,100.0
1836,G#5,245.5,0.125,82,100.0
1837,F4,245.5,0.188,46,100.0
1838,B-4,245.5,0.188,46,100.0
1839,D5,245.75,0.125,68,100.0
1840,F4,245.75,0.188,36,100.0
1841,B-4,245.75,0.188,36,100.0
1842,B-4,246.0,0.125,81,100.0
1843,E-4,246.0,0.188,56,100.0
1844,G4,246.0,0.188,56,100.0
1845,A4,246.25,0.125,74,100.0
1846,E-4,246.25,0.188,52,100.0
1847,G4,246.25,0.188,52,100.0
1848,C5,246.5,0.125,76,100.0
1849,E-4,246.5,0.188,56,100.0
1850,G4,246.5,0.188,56,100.0
1851,B-4,246.75,0.125,70,100.0
1852,E-4,246.75,0.188,50,100.0
1853,G4,246.75,0.188,50,100.0
1854,E-5,247.0,0.125,80,100.0
1855,E-4,247.0,0.188,56,100.0
1856,G4,247.0,0.188,56,100.0
1857,D5,247.25,0.125,74,100.0
1858,E-4,247.25,0.188,52,100.0
1859,G4,247.25,0.188,52,100.0
1860,F5,247.5,0.125,76,100.0
1861,E-4,247.5,0.188,56,100.0
1862,G4,247.5,0.188,56,100.0
1863,E-5,247.75,0.125,72,100.0
1864,E-4,247.75,0.188,50,100.0
1865,G4,247.75,0.188,50,100.0
1866,F#5,248.0,0.125,78,100.0
1867,B-4,248.0,0.188,56,100.0
1868,G4,248.0,0.188,56,100.0
1869,G5,248.25,0.125,75,100.0
1870,B-4,248.25,0.188,50,100.0
1871,G4,248.25,0.188,50,100.0
1872,C6,248.5,0.25,94,100.0
1873,B-4,248.5,0.188,59,100.0
1874,G4,248.5,0.188,59,100.0
1875,B-5,248.75,0.25,77,100.0
1876,B-4,248.75,0.188,51,100.0
1877,G4,248.75,0.188,51,100.0
1878,G#5,249.0,0.25,81,100.0
1879,B-4,249.0,0.188,58,100.0
1880,G4,249.0,0.188,58,100.0
1881,G5,249.25,0.25,74,100.0
1882,B-4,249.25,0.188,53,100.0
1883,G4,249.25,0.188,53,100.0
1884,F5,249.5,0.25,78,100.0
1885,B-4,249.5,0.188,56,100.0
1886,G4,249.5,0.188,56,100.0
1887,E-5,249.75,0.25,73,100.0
1888,B-4,249.75,0.188,51,100.0
1889,G4,249.75,0.188,51,100.0
1890,F#6,250.0,0.125,87,100.0
1891,F#5,250.0,1.0,57,100.0
1892,B4,250.0,0.188,57,100.0
1893,E-5,250.0,0.188,57,100.0
1894,E-6,250.25,0.125,69,100.0
1895,B4,250.25,0.188,51,100.0
1896,E-5,250.25,0.188,51,100.0
1897,C#6,250.5,0.125,73,100.0
1898,B4,250.5,0.188,53,100.0
1899,E-5,250.5,0.188,53,100.0
1900,B5,250.75,0.125,69,100.0
1901,B4,250.75,0.188,47,100.0
1902,E-5,250.75,0.188,47,100.0
1903,B-5,251.0,0.25,96,100.0
1904,E5,251.0,1.0,53,100.0
1905,G#4,251.0,0.188,53,100.0
1906,B4,251.0,0.188,53,100.0
1907,C#6,251.25,0.25,70,100.0
1908,G#4,251.25,0.188,47,100.0
1909,B4,251.25,0.188,47,100.0
1910,B5,251.5,0.25,81,100.0
1911,G#4,251.5,0.188,55,100.0
1912,B4,251.5,0.188,55,100.0
1913,G#5,251.75,0.25,74,100.0
1914,G#4,251.75,0.188,48,100.0
1915,B4,251.75,0.188,48,100.0
1916,F#5,252.0,0.125,77,100.0
1917,B4,252.0,1.0,52,100.0
1918,E-4,252.0,0.188,52,100.0
1919,F#4,252.0,0.188,52,100.0
1920,E-5,252.25,0.125,71,100.0
1921,E-4,252.25,0.188,46,100.0
1922,F#4,252.25,0.188,46,100.0
1923,C#5,252.5,0.125,95,100.0
1924,E-4,252.5,0.188,54,100.0
1925,F#4,252.5,0.188,54,100.0
1926,B4,252.75,0.125,76,100.0
1927,E-4,252.75,0.188,47,100.0
1928,F#4,252.75,0.188,47,100.0
1929,B-4,253.0,0.25,98,100.0
1930,G#4,253.0,1.0,55,100.0
1931,B3,253.0,0.188,55,100.0
1932,E4,253.0,0.188,55,100.0
1933,C#5,253.25,0.25,71,100.0
1934,B3,253.25,0.188,47,100.0
1935,E4,253.25,0.188,47,100.0
1936,B4,253.5,0.25,74,100.0
1937,B3,253.5,0.188,51,100.0
1938,E4,253.5,0.188,51,100.0
1939,G#4,253.75,0.25,68,100.0
1940,B3,253.75,0.188,48,100.0
1941,E4,253.75,0.188,48,100.0
1942,B-4,254.0,1.0,62,100.0
1943,B-3,254.0,0.25,42,100.0
1944,F4,254.0,0.188,62,100.0
1945,G#4,254.0,0.188,62,100.0
1946,C4,254.25,0.25,44,100.0
1947,F4,254.25,0.188,66,100.0
1948,G#4,254.25,0.188,66,100.0
1949,C#4,254.5,0.25,46,100.0
1950,F4,254.5,0.188,69,100.0
1951,G#4,254.5,0.188,69,100.0
1952,D4,254.75,0.25,48,100.0
1953,F4,254.75,0.188,73,100.0
1954,G#4,254.75,0.188,73,100.0
1955,A4,255.0,1.0,88,100.0
1956,E-4,255.0,0.188,55,100.0
1957,F#4,255.0,0.188,55,100.0
1958,F#5,255.25,0.25,68,100.0
1959,E-4,255.25,0.188,50,100.0
1960,F#4,255.25,0.188,50,100.0
1961,F5,255.5,0.25,68,100.0
1962,E-4,255.5,0.188,50,100.0
1963,F#4,255.5,0.188,50,100.0
1964,E-5,255.75,0.25,68,100.0
1965,E-4,255.75,0.188,50,100.0
1966,F#4,255.75,0.188,50,100.0
1967,B-4,256.0,1.0,62,100.0
1968,B-3,256.0,0.25,40,100.0
1969,F4,256.0,0.188,62,100.0
1970,G#4,256.0,0.188,62,100.0
1971,C4,256.25,0.25,42,100.0
1972,F4,256.25,0.188,65,100.0
1973,G#4,256.25,0.188,65,100.0
1974,C#4,256.5,0.25,44,100.0
1975,F4,256.5,0.188,68,100.0
1976,G#4,256.5,0.188,68,100.0
1977,D4,256.75,0.25,46,100.0
1978,F4,256.75,0.188,63,100.0
1979,G#4,256.75,0.188,63,100.0
1980,A4,257.0,1.0,88,100.0
1981,E-4,257.0,0.188,55,100.0
1982,F#4,257.0,0.188,55,100.0
1983,F#5,257.25,0.25,70,100.0
1984,E-4,257.25,0.188,48,100.0
1985,F#4,257.25,0.188,48,100.0
1986,F5,257.5,0.25,68,100.0
1987,E-4,257.5,0.188,48,100.0
1988,F#4,257.5,0.188,48,100.0
1989,E-5,257.75,0.25,68,100.0
1990,E-4,257.75,0.188,49,100.0
1991,F#4,257.75,0.188,49,100.0
1992,C#5,258.0,1.0,65,100.0
1993,C#4,258.0,0.25,42,100.0
1994,G#4,258.0,0.188,65,100.0
1995,B4,258.0,0.188,65,100.0
1996,E-4,258.25,0.25,44,100.0
1997,G#4,258.25,0.188,68,100.0
1998,B4,258.25,0.188,68,100.0
1999,E4,258.5,0.25,46,100.0
2000,G#4,258.5,0.188,70,100.0
2001,B4,258.5,0.188,70,100.0
2002,F4,258.75,0.25,48,100.0
2003,G#4,258.75,0.188,73,100.0
2004,B4,258.75,0.188,73,100.0
2005,C5,259.0,1.0,85,100.0
2006,F#4,259.0,0.188,58,100.0
2007,A4,259.0,0.188,58,100.0
2008,A5,259.25,0.25,71,100.0
2009,F#4,259.25,0.188,50,100.0
2010,A4,259.25,0.188,50,100.0
2011,G#5,259.5,0.25,79,100.0
2012,F#4,259.5,0.188,55,100.0
2013,A4,259.5,0.188,55,100.0
2014,F#5,259.75,0.25,71,100.0
2015,F#4,259.75,0.188,50,100.0
2016,A4,259.75,0.188,50,100.0
2017,E-5,260.0,1.0,66,100.0
2018,E-4,260.0,0.25,42,100.0
2019,B-4,260.0,0.188,66,100.0
2020,D5,260.0,0.188,66,100.0
2021,F4,260.25,0.25,44,100.0
2022,B-4,260.25,0.188,68,100.0
2023,D5,260.25,0.188,68,100.0
2024,F#4,260.5,0.25,46,100.0
2025,B-4,260.5,0.188,70,100.0
2026,D5,260.5,0.188,70,100.0
2027,F#4,260.75,0.25,48,100.0
2028,B-4,260.75,0.188,72,100.0
2029,D5,260.75,0.188,72,100.0
2030,D5,261.0,1.0,88,100.0
2031,G#4,261.0,0.188,57,100.0
2032,B4,261.0,0.188,57,100.0
2033,B5,261.25,0.25,72,100.0
2034,G#4,261.25,0.188,48,100.0
2035,B4,261.25,0.188,48,100.0
2036,B-5,261.5,0.25,85,100.0
2037,G#4,261.5,0.188,53,100.0
2038,B4,261.5,0.188,53,100.0
2039,G#5,261.75,0.25,72,100.0
2040,G#4,261.75,0.188,49,100.0
2041,B4,261.75,0.188,49,100.0
2042,B-3,262.0,0.25,54,100.0
2043,B3,262.25,0.25,54,100.0
2044,G#4,262.5,0.5,80,100.0
2045,B4,262.5,0.5,80,100.0
2046,E-4,262.5,0.5,54,100.0
2047,F4,262.5,0.5,54,100.0
2048,F5,262.75,0.25,77,100.0
2049,B-3,263.0,0.25,54,100.0
2050,B3,263.25,0.25,54,100.0
2051,G#4,263.5,0.5,80,100.0
2052,B4,263.5,0.5,80,100.0
2053,E-4,263.5,0.5,54,100.0
2054,F4,263.5,0.5,54,100.0
2055,F5,263.75,0.25,77,100.0
2056,B-4,264.0,0.25,78,100.0
2057,E5,264.0,0.5,89,100.0
2058,D5,264.0,0.5,89,100.0
2059,G#4,264.25,0.25,74,100.0
2060,B-5,264.5,0.125,70,100.0
2061,G#5,264.5,0.125,70,100.0
2062,D4,264.5,0.25,64,100.0
2063,E4,264.5,0.25,64,100.0
2064,B-5,264.75,0.125,70,100.0
2065,G#5,264.75,0.125,70,100.0
2066,B-4,265.0,0.25,77,100.0
2067,E5,265.0,0.5,89,100.0
2068,D5,265.0,0.5,89,100.0
2069,G#4,265.25,0.25,72,100.0
2070,B-5,265.5,0.125,68,100.0
2071,G#5,265.5,0.125,68,100.0
2072,D4,265.5,0.25,63,100.0
2073,E4,265.5,0.25,63,100.0
2074,B-5,265.75,0.125,68,100.0
2075,G#5,265.75,0.125,68,100.0
2076,B-4,266.0,0.25,85,100.0
2077,E-4,266.0,0.188,56,100.0
2078,G4,266.0,0.188,56,100.0
2079,A4,266.25,0.25,74,100.0
2080,E-4,266.25,0.188,52,100.0
2081,G4,266.25,0.188,52,100.0
2082,C5,266.5,0.25,76,100.0
2083,E-4,266.5,0.188,56,100.0
2084,G4,266.5,0.188,56,100.0
2085,B-4,266.75,0.25,70,100.0
2086,E-4,266.75,0.188,50,100.0
2087,G4,266.75,0.188,50,100.0
2088,E-5,267.0,0.25,80,100.0
2089,E-4,267.0,0.188,56,100.0
2090,G4,267.0,0.188,56,100.0
2091,D5,267.25,0.25,74,100.0
2092,E-4,267.25,0.188,52,100.0
2093,G4,267.25,0.188,52,100.0
2094,F5,267.5,0.25,76,100.0
2095,E-4,267.5,0.188,56,100.0
2096,G4,267.5,0.188,56,100.0
2097,E-5,267.75,0.25,72,100.0
2098,E-4,267.75,0.188,50,100.0
2099,G4,267.75,0.188,50,100.0
2100,B-4,268.0,0.25,77,100.0
2101,E5,268.0,0.5,89,100.0
2102,D5,268.0,0.5,89,100.0
2103,G#4,268.25,0.25,72,100.0
2104,B-5,268.5,0.125,68,100.0
2105,G#5,268.5,0.125,68,100.0
2106,D4,268.5,0.5,67,100.0
2107,E4,268.5,0.5,67,100.0
2108,B-5,268.75,0.125,68,100.0
2109,G#5,268.75,0.125,68,100.0
2110,B-3,269.0,0.25,70,100.0
2111,B3,269.25,0.25,59,100.0
2112,B4,269.5,0.25,74,100.0
2113,G#4,269.5,0.5,74,100.0
2114,E-4,269.5,0.5,50,100.0
2115,F4,269.5,0.5,50,100.0
2116,F5,269.75,0.25,77,100.0
2117,F#5,270.0,0.125,78,100.0
2118,E-4,270.0,0.188,56,100.0
2119,G4,270.0,0.188,56,100.0
2120,G5,270.25,0.125,75,100.0
2121,E-4,270.25,0.188,50,100.0
2122,G4,270.25,0.188,50,100.0
2123,C6,270.5,0.25,86,100.0
2124,E-4,270.5,0.188,59,100.0
2125,G4,270.5,0.188,59,100.0
2126,B-5,270.75,0.25,77,100.0
2127,E-4,270.75,0.188,51,100.0
2128,G4,270.75,0.188,51,100.0
2129,G#5,271.0,0.25,81,100.0
2130,B-4,271.0,0.188,58,100.0
2131,G4,271.0,0.188,58,100.0
2132,G5,271.25,0.25,74,100.0
2133,B-4,271.25,0.188,53,100.0
2134,G4,271.25,0.188,53,100.0
2135,F5,271.5,0.25,78,100.0
2136,B-4,271.5,0.188,56,100.0
2137,G4,271.5,0.188,56,100.0
2138,E-5,271.75,0.25,73,100.0
2139,B-4,271.75,0.188,51,100.0
2140,G4,271.75,0.188,51,100.0
2141,B-4,272.0,0.25,77,100.0
2142,E5,272.0,0.5,89,100.0
2143,D5,272.0,0.5,89,100.0
2144,G#4,272.25,0.25,72,100.0
2145,B-5,272.5,0.125,68,100.0
2146,G#5,272.5,0.125,68,100.0
2147,D4,272.5,0.5,67,100.0
2148,E4,272.5,0.5,67,100.0
2149,B-5,272.75,0.125,68,100.0
2150,G#5,272.75,0.125,68,100.0
2151,B-3,273.0,0.25,70,100.0
2152,B3,273.25,0.25,65,100.0
2153,B4,273.5,0.25,76,100.0
2154,G#4,273.5,0.5,76,100.0
2155,E-4,273.5,0.5,59,100.0
2156,F4,273.5,0.5,59,100.0
2157,F5,273.75,0.25,80,100.0
2158,B4,274.0,0.25,73,100.0
2159,F4,274.0,0.5,73,100.0
2160,B-4,274.25,0.25,74,100.0
2161,F5,274.5,0.5,89,100.0
2162,F6,274.5,0.25,89,100.0
2163,D4,274.5,0.5,69,100.0
2164,D5,274.5,0.5,69,100.0
2165,B-5,274.75,0.25,74,100.0
2166,B4,275.0,0.25,73,100.0
2167,F4,275.0,0.5,73,100.0
2168,B-4,275.25,0.25,75,100.0
2169,F5,275.5,0.5,89,100.0
2170,F6,275.5,0.25,89,100.0
2171,D4,275.5,0.5,70,100.0
2172,D5,275.5,0.5,70,100.0
2173,B-5,275.75,0.25,74,100.0
2174,B4,276.0,0.25,74,100.0
2175,F4,276.0,0.5,74,100.0
2176,B-4,276.25,0.25,75,100.0
2177,F5,276.5,0.5,91,100.0
2178,F6,276.5,0.25,91,100.0
2179,D4,276.5,0.5,72,100.0
2180,D5,276.5,0.5,72,100.0
2181,B-5,276.75,0.25,73,100.0
2182,B-3,278.0,0.25,88,100.0
2183,G4,278.125,0.125,58,100.0
2184,B-4,278.125,0.125,58,100.0
2185,E-4,278.125,0.125,58,100.0
2186,C4,278.25,0.25,78,100.0
2187,B-4,278.375,0.125,61,100.0
2188,G4,278.375,0.125,61,100.0
2189,E-4,278.375,0.125,61,100.0
2190,D4,278.5,0.25,81,100.0
2191,G4,278.625,0.125,58,100.0
2192,B-4,278.625,0.125,58,100.0
2193,E-4,278.75,0.25,83,100.0
2194,C5,278.875,0.125,65,100.0
2195,B-4,278.875,0.125,65,100.0
2196,G4,278.875,0.125,65,100.0
2197,D4,279.0,0.25,90,100.0
2198,G4,279.125,0.125,58,100.0
2199,B-4,279.125,0.125,58,100.0
2200,E-5,279.125,0.125,58,100.0
2201,E-4,279.25,0.25,79,100.0
2202,E-5,279.375,0.125,56,100.0
2203,B-4,279.375,0.125,56,100.0
2204,G4,279.375,0.125,56,100.0
2205,F4,279.5,0.25,82,100.0
2206,E-5,279.625,0.125,62,100.0
2207,B-4,279.625,0.125,62,100.0
2208,D5,279.625,0.125,62,100.0
2209,G4,279.75,0.25,78,100.0
2210,E-5,279.875,0.125,66,100.0
2211,B-4,279.875,0.125,66,100.0
2212,D5,279.875,0.125,66,100.0
2213,F4,280.0,0.25,88,100.0
2214,E-5,280.125,0.125,65,100.0
2215,C6,280.125,0.125,65,100.0
2216,G#5,280.125,0.125,65,100.0
2217,C5,280.25,0.25,83,100.0
2218,G#5,280.375,0.125,59,100.0
2219,F5,280.375,0.125,59,100.0
2220,E-5,280.375,0.125,59,100.0
2221,G#4,280.5,0.25,84,100.0
2222,F5,280.625,0.125,59,100.0
2223,E-5,280.625,0.125,59,100.0
2224,C5,280.625,0.125,59,100.0
2225,F4,280.75,0.25,82,100.0
2226,G#4,280.875,0.125,63,100.0
2227,C5,280.875,0.125,63,100.0
2228,E-5,280.875,0.125,63,100.0
2229,E-4,281.0,0.25,91,100.0
2230,C5,281.125,0.125,65,100.0
2231,B-4,281.125,0.125,65,100.0
2232,G4,281.125,0.125,65,100.0
2233,D4,281.25,0.25,83,100.0
2234,D5,281.375,0.125,59,100.0
2235,B-4,281.375,0.125,59,100.0
2236,G4,281.375,0.125,59,100.0
2237,C4,281.5,0.25,89,100.0
2238,E-5,281.625,0.125,63,100.0
2239,B-4,281.625,0.125,63,100.0
2240,G4,281.625,0.125,63,100.0
2241,B-3,281.75,0.25,80,100.0
2242,G5,281.875,0.125,64,100.0
2243,B-4,281.875,0.125,64,100.0
2244,G4,281.875,0.125,64,100.0
2245,B-3,282.0,0.25,88,100.0
2246,B-4,282.125,0.125,58,100.0
2247,G4,282.125,0.125,58,100.0
2248,E-4,282.125,0.125,58,100.0
2249,C4,282.25,0.25,82,100.0
2250,G4,282.375,0.125,57,100.0
2251,B-4,282.375,0.125,57,100.0
2252,E-4,282.375,0.125,57,100.0
2253,D4,282.5,0.25,84,100.0
2254,G4,282.625,0.125,64,100.0
2255,B-4,282.625,0.125,64,100.0
2256,E-4,282.75,0.25,79,100.0
2257,C5,282.875,0.125,61,100.0
2258,B-4,282.875,0.125,61,100.0
2259,G4,282.875,0.125,61,100.0
2260,D4,283.0,0.25,90,100.0
2261,G4,283.125,0.125,58,100.0
2262,B-4,283.125,0.125,58,100.0
2263,E-5,283.125,0.125,58,100.0
2264,E-4,283.25,0.25,78,100.0
2265,E-5,283.375,0.125,57,100.0
2266,B-4,283.375,0.125,57,100.0
2267,G4,283.375,0.125,57,100.0
2268,F4,283.5,0.25,83,100.0
2269,B-4,283.625,0.125,62,100.0
2270,D5,283.625,0.125,62,100.0
2271,E-5,283.625,0.125,62,100.0
2272,G4,283.75,0.25,79,100.0
2273,E-5,283.875,0.125,59,100.0
2274,B-4,283.875,0.125,59,100.0
2275,D5,283.875,0.125,59,100.0
2276,F4,284.0,0.25,88,100.0
2277,E-5,284.125,0.125,59,100.0
2278,C6,284.125,0.125,59,100.0
2279,G#5,284.125,0.125,59,100.0
2280,C5,284.25,0.25,81,100.0
2281,E-5,284.375,0.125,66,100.0
2282,G#5,284.375,0.125,66,100.0
2283,F5,284.375,0.125,66,100.0
2284,G#4,284.5,0.25,85,100.0
2285,F5,284.625,0.125,65,100.0
2286,E-5,284.625,0.125,65,100.0
2287,C5,284.625,0.125,65,100.0
2288,F4,284.75,0.25,80,100.0
2289,G#4,284.875,0.125,64,100.0
2290,C5,284.875,0.125,64,100.0
2291,E-5,284.875,0.125,64,100.0
2292,E-4,285.0,0.25,89,100.0
2293,C5,285.125,0.125,63,100.0
2294,B-4,285.125,0.125,63,100.0
2295,G4,285.125,0.125,63,100.0
2296,D4,285.25,0.25,78,100.0
2297,D5,285.375,0.125,62,100.0
2298,B-4,285.375,0.125,62,100.0
2299,G4,285.375,0.125,62,100.0
2300,C4,285.5,0.25,84,100.0
2301,E-5,285.625,0.125,61,100.0
2302,B-4,285.625,0.125,61,100.0
2303,G4,285.625,0.125,61,100.0
2304,B-3,285.75,0.25,78,100.0
2305,G5,285.875,0.125,64,100.0
2306,B-4,285.875,0.125,64,100.0
2307,G4,285.875,0.125,64,100.0
2308,G4,286.0,0.25,88,100.0
2309,B-4,286.125,0.125,61,100.0
2310,G5,286.125,0.125,61,100.0
2311,E-5,286.125,0.125,61,100.0
2312,D4,286.25,0.25,81,100.0
2313,F#4,286.375,0.125,57,100.0
2314,B-4,286.375,0.125,57,100.0
2315,D5,286.375,0.125,57,100.0
2316,E-4,286.5,0.25,88,100.0
2317,B-4,286.625,0.125,58,100.0
2318,G4,286.625,0.125,58,100.0
2319,E-5,286.625,0.125,58,100.0
2320,B3,286.75,0.25,79,100.0
2321,E-4,286.875,0.125,56,100.0
2322,G4,286.875,0.125,56,100.0
2323,B4,286.875,0.125,56,100.0
2324,C4,287.0,0.25,83,100.0
2325,E-4,287.125,0.125,58,100.0
2326,G4,287.125,0.125,58,100.0
2327,C5,287.125,0.125,58,100.0
2328,C#4,287.25,0.25,75,100.0
2329,C#5,287.375,0.125,56,100.0
2330,G4,287.375,0.125,56,100.0
2331,E-4,287.375,0.125,56,100.0
2332,D4,287.5,0.25,81,100.0
2333,D5,287.625,0.125,58,100.0
2334,B-4,287.625,0.125,58,100.0
2335,G4,287.625,0.125,58,100.0
2336,B-3,287.75,0.25,78,100.0
2337,F5,287.875,0.125,58,100.0
2338,D5,287.875,0.125,58,100.0
2339,G#4,287.875,0.125,58,100.0
2340,G4,288.0,0.25,88,100.0
2341,E-5,288.125,0.125,58,100.0
2342,G5,288.125,0.125,58,100.0
2343,B-4,288.125,0.125,58,100.0
2344,D4,288.25,0.25,79,100.0
2345,B-4,288.375,0.125,55,100.0
2346,F#4,288.375,0.125,55,100.0
2347,D5,288.375,0.125,55,100.0
2348,E-4,288.5,0.25,84,100.0
2349,E-5,288.625,0.125,58,100.0
2350,G4,288.625,0.125,58,100.0
2351,B-4,288.625,0.125,58,100.0
2352,B3,288.75,0.25,78,100.0
2353,E-4,288.875,0.125,54,100.0
2354,G4,288.875,0.125,54,100.0
2355,B4,288.875,0.125,54,100.0
2356,C4,289.0,0.25,84,100.0
2357,E-4,289.125,0.125,58,100.0
2358,G4,289.125,0.125,58,100.0
2359,C5,289.125,0.125,58,100.0
2360,C#4,289.25,0.25,75,100.0
2361,E-4,289.375,0.125,56,100.0
2362,G4,289.375,0.125,56,100.0
2363,C#5,289.375,0.125,56,100.0
2364,D4,289.5,0.25,83,100.0
2365,G4,289.625,0.125,58,100.0
2366,B-4,289.625,0.125,58,100.0
2367,D5,289.625,0.125,58,100.0
2368,B-3,289.75,0.25,77,100.0
2369,G#4,289.875,0.125,54,100.0
2370,D5,289.875,0.125,54,100.0
2371,F5,289.875,0.125,54,100.0
2372,E-4,290.0,0.25,82,100.0
2373,G4,290.125,0.125,62,100.0
2374,E4,290.25,0.25,83,100.0
2375,G4,290.375,0.125,60,100.0
2376,C5,290.375,0.125,60,100.0
2377,F4,290.5,0.25,84,100.0
2378,A4,290.625,0.125,64,100.0
2379,F#4,290.75,0.25,85,100.0
2380,A4,290.875,0.125,62,100.0
2381,D5,290.875,0.125,62,100.0
2382,G4,291.0,0.25,86,100.0
2383,B-4,291.125,0.125,68,100.0
2384,G#4,291.25,0.25,88,100.0
2385,C5,291.375,0.125,66,100.0
2386,F5,291.375,0.125,66,100.0
2387,A4,291.5,0.25,88,100.0
2388,C#5,291.625,0.125,70,100.0
2389,B-4,291.75,0.25,89,100.0
2390,G5,291.875,0.125,67,100.0
2391,D5,291.875,0.125,67,100.0
2392,C5,292.0,0.25,90,100.0
2393,E-5,292.125,0.125,72,100.0
2394,C#5,292.25,0.25,91,100.0
2395,G#5,292.375,0.125,70,100.0
2396,E5,292.375,0.125,70,100.0
2397,D5,292.5,0.25,92,100.0
2398,F#5,292.625,0.125,75,100.0
2399,E-5,292.75,0.25,93,100.0
2400,C6,292.875,0.125,73,100.0
2401,G5,292.875,0.125,73,100.0
2402,E5,293.0,0.25,94,100.0
2403,G#5,293.125,0.125,78,100.0
2404,F5,293.25,0.25,95,100.0
2405,D6,293.375,0.125,75,100.0
2406,G#5,293.375,0.125,75,100.0
2407,F#5,293.5,0.25,96,100.0
2408,D6,293.625,0.125,76,100.0
2409,B-5,293.625,0.125,76,100.0
2410,G5,293.75,0.25,97,100.0
2411,G6,293.875,0.125,78,100.0
2412,B-5,293.875,0.125,78,100.0
2413,B3,294.0,3.0,105,100.0
2414,B1,294.0,3.0,84,100.0
2415,B2,294.0,3.0,84,100.0
2416,G3,297.0,3.0,42,100.0
2417,G1,297.0,3.0,34,100.0
2418,G2,297.0,3.0,34,100.0
2419,G4,300.0,3.0,91,100.0
2420,G2,300.0,3.0,72,100.0
2421,G3,300.0,3.0,72,100.0
2422,F#4,303.0,3.0,93,100.0
2423,B3,303.0,3.0,93,100.0
2424,G3,303.0,3.0,93,100.0
2425,D2,303.0,3.0,64,100.0
2426,D3,303.0,3.0,64,100.0
2427,C#2,306.0,3.0,43,100.0
2428,C#3,306.0,3.0,43,100.0
2429,F#4,309.0,3.0,93,100.0
2430,B3,309.0,3.0,93,100.0
2431,G3,309.0,3.0,93,100.0
2432,C2,309.0,3.0,58,100.0
2433,C3,309.0,3.0,58,100.0
2434,B-3,312.0,3.0,83,100.0
2435,F#4,312.0,3.0,94,100.0
2436,G3,312.0,3.0,94,100.0
2437,B1,312.0,3.0,38,100.0
2438,B2,312.0,3.0,38,100.0
2439,B-1,315.0,3.0,69,100.0
2440,B-2,315.0,3.0,69,100.0
2441,B3,318.0,3.0,50,100.0
2442,F#4,318.0,3.0,94,100.0
2443,G3,318.0,3.0,94,100.0
2444,A1,318.0,3.0,52,100.0
2445,A2,318.0,3.0,52,100.0
2446,C#4,321.0,3.0,93,100.0
2447,F#4,321.0,3.0,93,100.0
2448,G3,321.0,3.0,93,100.0
2449,G1,321.0,3.0,38,100.0
2450,G2,321.0,3.0,38,100.0
2451,D4,324.0,3.0,64,100.0
2452,F#4,324.0,3.0,68,100.0
2453,F#3,324.0,3.0,68,100.0
2454,F#1,324.0,2.0,25,100.0
2455,F#2,324.0,2.0,25,100.0
2456,G1,327.0,3.0,67,100.0
2457,B1,327.0,3.0,67,100.0
2458,G2,327.0,3.0,67,100.0
2459,B3,330.0,3.0,45,100.0
2460,F#4,330.0,3.0,68,100.0
2461,F#3,330.0,3.0,68,100.0
2462,B-1,330.0,3.0,63,100.0
2463,G1,330.0,3.0,63,100.0
2464,G2,330.0,3.0,63,100.0
2465,F#4,333.0,2.0,37,100.0
2466,C#4,333.0,2.0,37,100.0
2467,F#3,333.0,2.0,37,100.0
2468,B-2,333.0,3.0,61,100.0
2469,G2,333.0,3.0,61,100.0
2470,G3,333.0,3.0,61,100.0
2471,B2,336.0,3.0,95,100.0
2472,G3,336.0,3.0,95,100.0
2473,B3,336.0,3.0,95,100.0
2474,A1,336.0,3.0,36,100.0
2475,E2,336.0,3.0,36,100.0
2476,A2,336.0,3.0,36,100.0
2477,B-2,339.0,3.0,89,100.0
2478,B-3,339.0,3.0,89,100.0
2479,G3,339.0,3.0,89,100.0
2480,B-3,342.0,3.0,92,100.0
2481,B-4,342.0,3.0,92,100.0
2482,G4,342.0,3.0,92,100.0
2483,A1,342.0,3.0,36,100.0
2484,E2,342.0,3.0,36,100.0
2485,A2,342.0,3.0,36,100.0
2486,D4,345.0,3.0,60,100.0
2487,E4,345.0,3.0,56,100.0
2488,A3,345.0,3.0,56,100.0
2489,E3,345.0,3.0,56,100.0
2490,A1,345.0,3.0,39,100.0
2491,F2,345.0,3.0,39,100.0
2492,A2,345.0,3.0,39,100.0
2493,C#4,351.0,3.0,50,100.0
2494,E4,351.0,3.0,56,100.0
2495,A3,351.0,3.0,56,100.0
2496,E3,351.0,3.0,56,100.0
2497,A1,351.0,3.0,39,100.0
2498,F2,351.0,3.0,39,100.0
2499,A2,351.0,3.0,39,100.0
2500,C#4,354.0,3.0,63,100.0
2501,A4,354.0,3.0,63,100.0
2502,A1,354.0,3.0,36,100.0
2503,F4,354.0,3.0,60,100.0
2504,A3,354.0,3.0,60,100.0
2505,F#2,354.0,3.0,41,100.0
2506,A2,354.0,3.0,41,100.0
2507,D4,360.0,2.0,58,100.0
2508,A4,360.0,2.0,63,100.0
2509,A1,360.0,3.0,36,100.0
2510,F4,360.0,3.0,60,100.0
2511,A3,360.0,3.0,60,100.0
2512,F#2,360.0,3.0,41,100.0
2513,A2,360.0,3.0,41,100.0
2514,A4,362.0,1.0,54,100.0
2515,D5,363.0,3.0,71,100.0
2516,A1,363.0,3.0,36,100.0
2517,A4,363.0,3.0,56,100.0
2518,C4,363.0,3.0,56,100.0
2519,D4,363.0,3.0,56,100.0
2520,D3,363.0,3.0,41,100.0
2521,G2,363.0,3.0,41,100.0
2522,A1,366.0,1.5,36,100.0
2523,D3,366.0,1.5,41,100.0
2524,G2,366.0,1.5,41,100.0
2525,G1,368.0,1.0,66,100.0
2526,G2,368.0,1.0,66,100.0
2527,C#5,369.0,2.0,66,100.0
2528,A4,369.0,3.0,56,100.0
2529,C4,369.0,3.0,56,100.0
2530,D4,369.0,3.0,56,100.0
2531,E-4,369.0,3.0,72,100.0
2532,B-3,369.0,3.0,72,100.0
2533,G3,369.0,3.0,72,100.0
2534,D5,371.0,1.0,62,100.0
2535,D4,372.0,3.0,61,100.0
2536,G4,372.0,3.0,61,100.0
2537,C5,372.0,3.0,61,100.0
2538,E3,372.0,3.0,43,100.0
2539,G2,372.0,3.0,43,100.0
2540,C3,375.0,1.0,52,100.0
2541,F#2,375.0,3.0,47,100.0
2542,D4,375.0,1.5,48,100.0
2543,G4,375.0,1.5,48,100.0
2544,B-4,375.0,1.5,48,100.0
2545,C#3,376.0,2.0,52,100.0
2546,G3,377.0,1.0,111,100.0
2547,D3,378.0,3.0,55,100.0
2548,F#2,378.0,3.0,47,100.0
2549,G5,378.0,3.0,92,100.0
2550,E-5,378.0,3.0,92,100.0
2551,B-4,378.0,3.0,92,100.0
2552,G4,378.0,3.0,92,100.0
2553,E3,381.0,3.0,44,100.0
2554,F#2,381.0,3.0,47,100.0
2555,G3,381.0,3.0,58,100.0
2556,C4,381.0,3.0,58,100.0
2557,E4,381.0,3.0,58,100.0
2558,G4,381.0,3.0,58,100.0
2559,B-3,384.0,3.0,80,100.0
2560,E4,384.0,3.0,80,100.0
2561,G4,384.0,3.0,80,100.0
2562,F3,384.0,3.0,39,100.0
2563,F#2,384.0,3.0,39,100.0
2564,B3,387.0,3.0,72,100.0
2565,D4,387.0,3.0,72,100.0
2566,F#4,387.0,3.0,72,100.0
2567,F#2,387.0,3.0,71,100.0
2568,B2,387.0,3.0,71,100.0
2569,D3,387.0,3.0,71,100.0
2570,G3,390.0,3.0,58,100.0
2571,C#4,390.0,3.0,58,100.0
2572,E4,390.0,3.0,58,100.0
2573,F#2,392.0,2.0,71,100.0
2574,B2,392.0,2.0,71,100.0
2575,D3,392.0,2.0,71,100.0
2576,G#3,393.0,3.0,54,100.0
2577,B3,393.0,3.0,54,100.0
2578,D4,393.0,3.0,54,100.0
2579,F3,396.0,3.0,89,100.0
2580,G#3,396.0,3.0,89,100.0
2581,D4,396.0,3.0,89,100.0
2582,B3,396.0,3.0,89,100.0
2583,F3,401.0,2.0,89,100.0
2584,G#3,401.0,2.0,89,100.0
2585,D4,401.0,2.0,89,100.0
2586,B3,401.0,2.0,89,100.0
2587,B3,402.0,1.0,46,100.0
2588,E4,402.0,1.0,46,100.0
2589,G4,402.0,1.0,46,100.0
2590,B-3,403.0,1.0,38,100.0
2591,C#4,403.0,1.0,38,100.0
2592,F#4,403.0,1.0,38,100.0
2593,F#6,404.0,0.125,31,100.0
2594,D4,404.0,1.0,47,100.0
2595,F#4,404.0,1.0,47,100.0
2596,B4,404.0,1.0,47,100.0
2597,F#5,404.125,0.125,19,100.0
2598,F#6,404.25,0.125,31,100.0
2599,F#5,404.375,0.125,18,100.0
2600,F#6,404.5,0.125,31,100.0
2601,F#5,404.625,0.125,19,100.0
2602,F#6,404.75,0.125,31,100.0
2603,F#5,404.875,0.125,19,100.0
2604,F#6,405.0,0.125,31,100.0
2605,B-4,405.0,1.5,41,100.0
2606,F#4,405.0,1.0,46,100.0
2607,C#5,405.0,1.0,46,100.0
2608,F#5,405.125,0.125,19,100.0
2609,F#6,405.25,0.125,32,100.0
2610,F#5,405.375,0.125,19,100.0
2611,F#6,405.5,0.125,32,100.0
2612,F#5,405.625,0.125,20,100.0
2613,F#6,405.75,0.125,32,100.0
2614,F#5,405.875,0.125,20,100.0
2615,F#6,406.0,0.125,32,100.0
2616,F#5,406.0,13/125,52,100.0
2617,F#5,406.125,0.125,20,100.0
2618,F#6,406.25,0.125,33,100.0
2619,F#5,406.375,0.125,20,100.0
2620,F#6,406.5,0.125,33,100.0
2621,F#5,406.625,0.125,20,100.0
2622,F#6,406.75,0.125,33,100.0
2623,F#5,406.875,0.125,20,100.0
2624,F#6,407.0,0.125,34,100.0
2625,G4,407.0,1.0,48,100.0
2626,B4,407.0,1.0,48,100.0
2627,D5,407.0,1.0,48,100.0
2628,F#5,407.125,0.125,21,100.0
2629,F#6,407.25,0.125,34,100.0
2630,F#5,407.375,0.125,20,100.0
2631,F#6,407.5,0.125,34,100.0
2632,F#5,407.625,0.125,21,100.0
2633,F#6,407.75,0.125,34,100.0
2634,F#5,407.875,0.125,21,100.0
2635,F#6,408.0,0.125,34,100.0
2636,F4,408.0,1.0,44,100.0
2637,B4,408.0,1.0,44,100.0
2638,C#5,408.0,1.0,44,100.0
2639,F#5,408.125,0.125,21,100.0
2640,F#6,408.25,0.125,34,100.0
2641,F#5,408.375,0.125,21,100.0
2642,F#6,408.5,0.125,34,100.0
2643,F#5,408.625,0.125,21,100.0
2644,F#6,408.75,0.125,34,100.0
2645,F#5,408.875,0.125,21,100.0
2646,F#6,409.0,0.125,34,100.0
2647,F#5,409.0,13/125,57,100.0
2648,F#4,409.0,0.5,46,100.0
2649,B-4,409.0,0.5,46,100.0
2650,F#5,409.125,0.125,21,100.0
2651,F#6,409.25,0.125,34,100.0
2652,F#5,409.375,0.125,21,100.0
2653,F#6,409.5,0.125,34,100.0
2654,F#5,409.625,0.125,21,100.0
2655,F#6,409.75,0.125,34,100.0
2656,F#5,409.875,0.125,21,100.0
2657,F#6,410.0,0.125,34,100.0
2658,B4,410.0,1.0,49,100.0
2659,D5,410.0,1.0,49,100.0
2660,F#5,410.125,0.125,21,100.0
2661,F#6,410.25,0.125,34,100.0
2662,F#5,410.375,0.125,20,100.0
2663,F#6,410.5,0.125,34,100.0
2664,F#5,410.625,0.125,21,100.0
2665,F#6,410.75,0.125,34,100.0
2666,F#5,410.875,0.125,21,100.0
2667,F#6,411.0,0.125,34,100.0
2668,F#4,411.0,1.0,46,100.0
2669,C#5,411.0,1.0,46,100.0
2670,F#5,411.125,0.125,21,100.0
2671,F#6,411.25,0.125,34,100.0
2672,F#5,411.375,0.125,21,100.0
2673,F#6,411.5,0.125,34,100.0
2674,F#5,411.625,0.125,21,100.0
2675,F#6,411.75,0.125,34,100.0
2676,F#5,411.875,0.125,21,100.0
2677,F#6,412.0,0.125,34,100.0
2678,G4,412.0,1.0,45,100.0
2679,B4,412.0,1.0,45,100.0
2680,F#5,412.125,0.125,21,100.0
2681,F#6,412.25,0.125,34,100.0
2682,F#5,412.375,0.125,21,100.0
2683,F#6,412.5,0.125,34,100.0
2684,F#5,412.625,0.125,21,100.0
2685,F#6,412.75,0.125,34,100.0
2686,F#5,412.875,0.125,21,100.0
2687,F#6,413.0,0.125,34,100.0
2688,F#4,413.0,1.0,50,100.0
2689,F#5,413.125,0.125,21,100.0
2690,F#6,413.25,0.125,34,100.0
2691,F#5,413.375,0.125,20,100.0
2692,F#6,413.5,0.125,34,100.0
2693,F#5,413.625,0.125,21,100.0
2694,F#6,413.75,0.125,34,100.0
2695,F#5,413.875,0.125,21,100.0
2696,F#6,414.0,0.125,34,100.0
2697,G1,414.0,1.0,49,100.0
2698,G2,414.0,1.0,49,100.0
2699,F#5,414.125,0.125,21,100.0
2700,F#6,414.25,0.125,34,100.0
2701,F#5,414.375,0.125,21,100.0
2702,F#6,414.5,0.125,34,100.0
2703,F#5,414.625,0.125,21,100.0
2704,F#6,414.75,0.125,34,100.0
2705,F#5,414.875,0.125,21,100.0
2706,F#6,415.0,0.125,34,100.0
2707,F#1,415.0,1.0,46,100.0
2708,F#2,415.0,1.0,46,100.0
2709,F#5,415.125,0.125,19,100.0
2710,F#6,415.25,0.125,34,100.0
2711,F#5,415.375,0.125,20,100.0
2712,F#6,415.5,0.125,33,100.0
2713,F#5,415.625,0.125,20,100.0
2714,F#6,415.75,0.125,32,100.0
2715,F#5,415.875,0.125,20,100.0
2716,F#6,416.0,0.125,34,100.0
2717,B1,416.0,1.0,49,100.0
2718,B2,416.0,1.0,49,100.0
2719,F#5,416.125,0.125,21,100.0
2720,F#6,416.25,0.125,34,100.0
2721,F#5,416.375,0.125,20,100.0
2722,F#6,416.5,0.125,34,100.0
2723,F#5,416.625,0.125,21,100.0
2724,F#6,416.75,0.125,34,100.0
2725,F#5,416.875,0.125,21,100.0
2726,F#6,417.0,0.125,34,100.0
2727,C#2,417.0,1.0,45,100.0
2728,C#3,417.0,1.0,45,100.0
2729,F#5,417.125,0.125,21,100.0
2730,F#6,417.25,0.125,34,100.0
2731,F#5,417.375,0.125,21,100.0
2732,F#6,417.5,0.125,34,100.0
2733,F#5,417.625,0.125,21,100.0
2734,F#6,417.75,0.125,34,100.0
2735,F#5,417.875,0.125,21,100.0
2736,F#6,418.0,0.125,32,100.0
2737,F#2,418.0,1.0,48,100.0
2738,F#3,418.0,1.0,48,100.0
2739,F#5,418.125,0.125,21,100.0
2740,F#6,418.25,0.125,33,100.0
2741,F#5,418.375,0.125,20,100.0
2742,F#6,418.5,0.125,33,100.0
2743,F#5,418.625,0.125,20,100.0
2744,F#6,418.75,0.125,32,100.0
2745,F#5,418.875,0.125,20,100.0
2746,F#6,419.0,0.125,34,100.0
2747,D2,419.0,1.0,49,100.0
2748,D3,419.0,1.0,49,100.0
2749,F#5,419.125,0.125,21,100.0
2750,F#6,419.25,0.125,34,100.0
2751,F#5,419.375,0.125,20,100.0
2752,F#6,419.5,0.125,34,100.0
2753,F#5,419.625,0.125,21,100.0
2754,F#6,419.75,0.125,34,100.0
2755,F#5,419.875,0.125,21,100.0
2756,F#6,420.0,0.125,34,100.0
2757,C#2,420.0,1.0,45,100.0
2758,C#3,420.0,1.0,45,100.0
2759,F#5,420.125,0.125,21,100.0
2760,F#6,420.25,0.125,34,100.0
2761,F#5,420.375,0.125,21,100.0
2762,F#6,420.5,0.125,34,100.0
2763,F#5,420.625,0.125,21,100.0
2764,F#6,420.75,0.125,34,100.0
2765,F#5,420.875,0.125,21,100.0
2766,F#6,421.0,0.125,33,100.0
2767,F#2,421.0,1.0,46,100.0
2768,F#3,421.0,1.0,46,100.0
2769,F#5,421.125,0.125,21,100.0
2770,F#6,421.25,0.125,31,100.0
2771,F#5,421.375,0.125,21,100.0
2772,F#6,421.5,0.125,32,100.0
2773,F#5,421.625,0.125,21,100.0
2774,F#6,421.75,0.125,34,100.0
2775,F#5,421.875,0.125,21,100.0
2776,F#6,422.0,0.125,33,100.0
2777,D2,422.0,2.0,49,100.0
2778,D3,422.0,2.0,49,100.0
2779,F#5,422.125,0.125,21,100.0
2780,F#6,422.25,0.125,33,100.0
2781,F#5,422.375,0.125,20,100.0
2782,F#6,422.5,0.125,32,100.0
2783,F#5,422.625,0.125,21,100.0
2784,F#6,422.75,0.125,32,100.0
2785,F#5,422.875,0.125,21,100.0
2786,F#6,423.0,0.125,36,100.0
2787,F#5,423.125,0.125,26,100.0
2788,F#6,423.25,0.125,37,100.0
2789,F#5,423.375,0.125,28,100.0
2790,F#6,423.5,0.125,40,100.0
2791,F#5,423.625,0.125,29,100.0
2792,F#6,423.75,0.125,40,100.0
2793,F#5,423.875,0.125,31,100.0
2794,F#6,424.0,0.125,40,100.0
2795,B1,424.0,1.0,46,100.0
2796,B2,424.0,1.0,46,100.0
2797,F#5,424.125,0.125,31,100.0
2798,F#6,424.25,0.125,40,100.0
2799,F#5,424.375,0.125,31,100.0
2800,F#6,424.5,0.125,41,100.0
2801,F#5,424.625,0.125,32,100.0
2802,F#6,424.75,0.125,42,100.0
2803,F#5,424.875,0.125,34,100.0
2804,F6,425.0,0.125,48,100.0
2805,C#2,425.0,1.0,50,100.0
2806,C#3,425.0,1.0,50,100.0
2807,F5,425.125,0.125,39,100.0
2808,F6,425.25,0.125,47,100.0
2809,F5,425.375,0.125,35,100.0
2810,F6,425.5,0.125,48,100.0
2811,F5,425.625,0.125,39,100.0
2812,F6,425.75,0.125,48,100.0
2813,F5,425.875,0.125,39,100.0
2814,E6,426.0,0.125,50,100.0
2815,B1,426.0,1.0,46,100.0
2816,B2,426.0,1.0,46,100.0
2817,E5,426.125,0.125,40,100.0
2818,E6,426.25,0.125,50,100.0
2819,E5,426.375,0.125,39,100.0
2820,E6,426.5,0.125,49,100.0
2821,E5,426.625,0.125,39,100.0
2822,E6,426.75,0.125,49,100.0
2823,E5,426.875,0.125,39,100.0
2824,D6,427.0,0.125,56,100.0
2825,F#1,427.0,1.0,41,100.0
2826,F#2,427.0,1.0,41,100.0
2827,D5,427.125,0.125,42,100.0
2828,D6,427.25,0.125,56,100.0
2829,D5,427.375,0.125,43,100.0
2830,D6,427.5,0.125,56,100.0
2831,D5,427.625,0.125,43,100.0
2832,D6,427.75,0.125,56,100.0
2833,D5,427.875,0.125,42,100.0
2834,B5,428.0,0.125,52,100.0
2835,B4,428.125,0.125,43,100.0
2836,B5,428.25,0.125,52,100.0
2837,B4,428.375,0.125,41,100.0
2838,B5,428.5,0.125,52,100.0
2839,B4,428.625,0.125,42,100.0
2840,B5,428.75,0.125,52,100.0
2841,B4,428.875,0.125,42,100.0
2842,B-5,429.0,0.125,51,100.0
2843,B-3,429.0,1.0,48,100.0
2844,C#4,429.0,1.0,48,100.0
2845,F#4,429.0,1.0,48,100.0
2846,B-4,429.125,0.125,42,100.0
2847,B-5,429.25,0.125,51,100.0
2848,B-4,429.375,0.125,42,100.0
2849,B-5,429.5,0.125,51,100.0
2850,B-4,429.625,0.125,42,100.0
2851,B-5,429.75,0.125,51,100.0
2852,B-4,429.875,0.125,41,100.0
2853,A5,430.0,0.125,50,100.0
2854,B3,430.0,1.0,46,100.0
2855,D4,430.0,1.0,46,100.0
2856,G4,430.0,1.0,46,100.0
2857,A4,430.125,0.125,40,100.0
2858,A5,430.25,0.125,49,100.0
2859,A4,430.375,0.125,39,100.0
2860,A5,430.5,0.125,48,100.0
2861,A4,430.625,0.125,39,100.0
2862,A5,430.75,0.125,48,100.0
2863,A4,430.875,0.125,39,100.0
2864,G#5,431.0,0.125,48,100.0
2865,G3,431.0,1.0,44,100.0
2866,C4,431.0,1.0,44,100.0
2867,E4,431.0,1.0,44,100.0
2868,G#4,431.125,0.125,39,100.0
2869,G#5,431.25,0.125,48,100.0
2870,G#4,431.375,0.125,39,100.0
2871,G#5,431.5,0.125,48,100.0
2872,G#4,431.625,0.125,39,100.0
2873,G#5,431.75,0.125,48,100.0
2874,G#4,431.875,0.125,39,100.0
2875,G5,432.0,0.125,43,100.0
2876,F#3,432.0,1.0,50,100.0
2877,B-3,432.0,1.0,50,100.0
2878,F#4,432.0,1.0,50,100.0
2879,G4,432.125,0.125,34,100.0
2880,G5,432.25,0.125,44,100.0
2881,G4,432.375,0.125,35,100.0
2882,G5,432.5,0.125,43,100.0
2883,G4,432.625,0.125,35,100.0
2884,G5,432.75,0.125,47,100.0
2885,G4,432.875,0.125,34,100.0
2886,G5,433.0,0.125,42,100.0
2887,B3,433.0,1.0,48,100.0
2888,G3,433.0,1.0,48,100.0
2889,G4,433.0,1.0,48,100.0
2890,G4,433.125,0.125,35,100.0
2891,G5,433.25,0.125,42,100.0
2892,G4,433.375,0.125,35,100.0
2893,G5,433.5,0.125,42,100.0
2894,G4,433.625,0.125,35,100.0
2895,G5,433.75,0.125,42,100.0
2896,G4,433.875,0.125,35,100.0
2897,F5,434.0,0.125,44,100.0
2898,A3,434.0,1.0,46,100.0
2899,C4,434.0,1.0,46,100.0
2900,E4,434.0,1.0,46,100.0
2901,F4,434.125,0.125,36,100.0
2902,F5,434.25,0.125,44,100.0
2903,F4,434.375,0.125,34,100.0
2904,F5,434.5,0.125,44,100.0
2905,F4,434.625,0.125,34,100.0
2906,F5,434.75,0.125,44,100.0
2907,F4,434.875,0.125,33,100.0
2908,F5,435.0,0.125,44,100.0
2909,D4,435.0,2.0,46,100.0
2910,F#4,435.0,1.0,52,100.0
2911,A4,435.0,1.0,52,100.0
2912,F4,435.125,0.125,32,100.0
2913,F5,435.25,0.125,42,100.0
2914,F4,435.375,0.125,32,100.0
2915,F5,435.5,0.125,41,100.0
2916,F4,435.625,0.125,32,100.0
2917,F5,435.75,0.125,41,100.0
2918,F4,435.875,0.125,33,100.0
2919,F#5,436.0,0.125,39,100.0
2920,G4,436.0,1.0,52,100.0
2921,B4,436.0,1.0,52,100.0
2922,F#4,436.125,0.125,32,100.0
2923,F#5,436.25,0.125,39,100.0
2924,F#4,436.375,0.125,31,100.0
2925,F#5,436.5,0.125,37,100.0
2926,F#4,436.625,0.125,31,100.0
2927,F#5,436.75,0.125,37,100.0
2928,F#4,436.875,0.125,29,100.0
2929,F#6,437.0,0.125,36,100.0
2930,F#4,437.0,4.0,55,100.0
2931,B-3,437.0,1.0,49,100.0
2932,C#4,437.0,2.0,43,100.0
2933,F#5,437.125,0.125,28,100.0
2934,F#6,437.25,0.125,36,100.0
2935,F#5,437.375,0.125,28,100.0
2936,F#6,437.5,0.125,35,100.0
2937,F#5,437.625,0.125,27,100.0
2938,F#6,437.75,0.125,35,100.0
2939,F#5,437.875,0.125,26,100.0
2940,F#6,438.0,0.125,36,100.0
2941,F#3,438.0,1.0,42,100.0
2942,F#5,438.125,0.125,28,100.0
2943,F#6,438.25,0.125,39,100.0
2944,F#5,438.375,0.125,28,100.0
2945,F#6,438.5,0.125,37,100.0
2946,F#5,438.625,0.125,29,100.0
2947,F#6,438.75,0.125,37,100.0
2948,F#5,438.875,0.125,34,100.0
2949,F6,439.0,0.125,42,100.0
2950,F#5,439.0,13/125,54,100.0
2951,A4,439.0,1.0,42,100.0
2952,D5,439.0,1.0,42,100.0
2953,F5,439.125,0.125,35,100.0
2954,F6,439.25,0.125,42,100.0
2955,F5,439.375,0.125,35,100.0
2956,F6,439.5,0.125,42,100.0
2957,F5,439.625,0.125,35,100.0
2958,F6,439.75,0.125,42,100.0
2959,F5,439.875,0.125,35,100.0
2960,E6,440.0,0.125,46,100.0
2961,B4,440.0,1.0,54,100.0
2962,D5,440.0,1.0,54,100.0
2963,E5,440.125,0.125,37,100.0
2964,E6,440.25,0.125,46,100.0
2965,E5,440.375,0.125,39,100.0
2966,E6,440.5,0.125,46,100.0
2967,E5,440.625,0.125,40,100.0
2968,E6,440.75,0.125,46,100.0
2969,E5,440.875,0.125,40,100.0
2970,C#6,441.0,0.125,51,100.0
2971,F#4,441.0,1.0,52,100.0
2972,C#5,441.0,1.0,52,100.0
2973,C#5,441.125,0.125,40,100.0
2974,C#6,441.25,0.125,50,100.0
2975,C#5,441.375,0.125,39,100.0
2976,C#6,441.5,0.125,50,100.0
2977,C#5,441.625,0.125,40,100.0
2978,C#6,441.75,0.125,48,100.0
2979,C#5,441.875,0.125,40,100.0
2980,B5,442.0,0.125,46,100.0
2981,G4,442.0,1.0,46,100.0
2982,B4,442.0,1.0,46,100.0
2983,B4,442.125,0.125,37,100.0
2984,B5,442.25,0.125,46,100.0
2985,B4,442.375,0.125,39,100.0
2986,B5,442.5,0.125,46,100.0
2987,B4,442.625,0.125,40,100.0
2988,B5,442.75,0.125,46,100.0
2989,B4,442.875,0.125,40,100.0
2990,A5,443.0,0.125,43,100.0
2991,F#4,443.0,1.0,49,100.0
2992,A4,443.125,0.125,35,100.0
2993,A5,443.25,0.125,42,100.0
2994,A4,443.375,0.125,35,100.0
2995,A5,443.5,0.125,42,100.0
2996,A4,443.625,0.125,34,100.0
2997,A5,443.75,0.125,42,100.0
2998,A4,443.875,0.125,34,100.0
2999,D6,444.0,0.125,54,100.0
3000,F#1,444.0,1.0,52,100.0
3001,F#2,444.0,1.0,52,100.0
3002,D5,444.125,0.125,44,100.0
3003,D6,444.25,0.125,54,100.0
3004,D5,444.375,0.125,46,100.0
3005,D6,444.5,0.125,54,100.0
3006,D5,444.625,0.125,46,100.0
3007,D6,444.75,0.125,54,100.0
3008,D5,444.875,0.125,46,100.0
3009,D6,445.0,0.125,56,100.0
3010,G1,445.0,1.0,52,100.0
3011,G2,445.0,1.0,52,100.0
3012,D5,445.125,0.125,49,100.0
3013,D6,445.25,0.125,55,100.0
3014,D5,445.375,0.125,51,100.0
3015,D6,445.5,0.125,56,100.0
3016,D5,445.625,0.125,49,100.0
3017,D6,445.75,0.125,56,100.0
3018,D5,445.875,0.125,44,100.0
3019,C#6,446.0,0.125,50,100.0
3020,E1,446.0,1.0,49,100.0
3021,E2,446.0,1.0,49,100.0
3022,C#5,446.125,0.125,39,100.0
3023,C#6,446.25,0.125,50,100.0
3024,C#5,446.375,0.125,37,100.0
3025,C#6,446.5,0.125,49,100.0
3026,C#5,446.625,0.125,37,100.0
3027,C#6,446.75,0.125,49,100.0
3028,C#5,446.875,0.125,39,100.0
3029,F#6,447.0,0.125,42,100.0
3030,F#1,447.0,1.0,52,100.0
3031,F#2,447.0,1.0,52,100.0
3032,F#5,447.125,0.125,34,100.0
3033,F#6,447.25,0.125,42,100.0
3034,F#5,447.375,0.125,34,100.0
3035,F#6,447.5,0.125,42,100.0
3036,F#5,447.625,0.125,34,100.0
3037,F#6,447.75,0.125,42,100.0
3038,F#5,447.875,0.125,34,100.0
3039,A6,448.0,0.125,49,100.0
3040,G1,448.0,1.0,49,100.0
3041,G2,448.0,1.0,49,100.0
3042,A5,448.125,0.125,37,100.0
3043,A6,448.25,0.125,49,100.0
3044,A5,448.375,0.125,39,100.0
3045,A6,448.5,0.125,49,100.0
3046,A5,448.625,0.125,39,100.0
3047,A6,448.75,0.125,49,100.0
3048,A5,448.875,0.125,39,100.0
3049,F#6,449.0,0.125,49,100.0
3050,E1,449.0,1.0,49,100.0
3051,E2,449.0,1.0,49,100.0
3052,F#5,449.125,0.125,37,100.0
3053,F#6,449.25,0.125,42,100.0
3054,F#5,449.375,0.125,35,100.0
3055,F#6,449.5,0.125,41,100.0
3056,F#5,449.625,0.125,34,100.0
3057,F#6,449.75,0.125,41,100.0
3058,F#5,449.875,0.125,34,100.0
3059,F#6,450.0,0.125,40,100.0
3060,A1,450.0,1.0,52,100.0
3061,A2,450.0,1.0,52,100.0
3062,F#5,450.125,0.125,33,100.0
3063,F#6,450.25,0.125,40,100.0
3064,F#5,450.375,0.125,33,100.0
3065,F#6,450.5,0.125,39,100.0
3066,F#5,450.625,0.125,32,100.0
3067,F#6,450.75,0.125,37,100.0
3068,F#5,450.875,0.125,31,100.0
3069,F#6,451.0,0.125,37,100.0
3070,B1,451.0,1.0,49,100.0
3071,B2,451.0,1.0,49,100.0
3072,F#5,451.125,0.125,29,100.0
3073,F#6,451.25,0.125,36,100.0
3074,F#5,451.375,0.125,29,100.0
3075,F#6,451.5,0.125,36,100.0
3076,F#5,451.625,0.125,31,100.0
3077,F#6,451.75,0.125,35,100.0
3078,F#5,451.875,0.125,28,100.0
3079,F#6,452.0,0.125,34,100.0
3080,F#1,452.0,2.0,48,100.0
3081,F#2,452.0,2.0,48,100.0
3082,F#5,452.125,0.125,27,100.0
3083,F#6,452.25,0.125,34,100.0
3084,F#5,452.375,0.125,26,100.0
3085,F#6,452.5,0.125,34,100.0
3086,F#5,452.625,0.125,27,100.0
3087,F#6,452.75,0.125,34,100.0
3088,F#5,452.875,0.125,26,100.0
3089,E6,453.0,0.125,52,100.0
3090,E5,453.125,0.125,42,100.0
3091,E6,453.25,0.125,52,100.0
3092,E5,453.375,0.125,42,100.0
3093,E6,453.5,0.125,52,100.0
3094,E5,453.625,0.125,44,100.0
3095,E6,453.75,0.125,52,100.0
3096,E5,453.875,0.125,44,100.0
3097,E6,454.0,0.125,52,100.0
3098,F#2,454.0,1.0,52,100.0
3099,F#3,454.0,1.0,52,100.0
3100,E5,454.125,0.125,44,100.0
3101,E6,454.25,0.125,52,100.0
3102,E5,454.375,0.125,42,100.0
3103,E6,454.5,0.125,52,100.0
3104,E5,454.625,0.125,43,100.0
3105,E6,454.75,0.125,52,100.0
3106,E5,454.875,0.125,43,100.0
3107,C#6,455.0,0.125,50,100.0
3108,D2,455.0,1.0,53,100.0
3109,D3,455.0,1.0,53,100.0
3110,C#5,455.125,0.125,41,100.0
3111,C#6,455.25,0.125,50,100.0
3112,C#5,455.375,0.125,42,100.0
3113,C#6,455.5,0.125,50,100.0
3114,C#5,455.625,0.125,42,100.0
3115,C#6,455.75,0.125,50,100.0
3116,C#5,455.875,0.125,42,100.0
3117,E6,456.0,0.125,52,100.0
3118,C#2,456.0,1.0,49,100.0
3119,C#3,456.0,1.0,49,100.0
3120,E5,456.125,0.125,44,100.0
3121,E6,456.25,0.125,52,100.0
3122,E5,456.375,0.125,44,100.0
3123,E6,456.5,0.125,52,100.0
3124,E5,456.625,0.125,44,100.0
3125,E6,456.75,0.125,52,100.0
3126,E5,456.875,0.125,43,100.0
3127,E6,457.0,0.125,58,100.0
3128,B1,457.0,1.0,49,100.0
3129,B2,457.0,1.0,49,100.0
3130,E5,457.125,0.125,50,100.0
3131,E6,457.25,0.125,58,100.0
3132,E5,457.375,0.125,50,100.0
3133,E6,457.5,0.125,58,100.0
3134,E5,457.625,0.125,50,100.0
3135,E6,457.75,0.125,58,100.0
3136,E5,457.875,0.125,51,100.0
3137,C#6,458.0,0.125,55,100.0
3138,F#1,458.0,1.0,46,100.0
3139,F#2,458.0,1.0,46,100.0
3140,C#5,458.125,0.125,46,100.0
3141,C#6,458.25,0.125,55,100.0
3142,C#5,458.375,0.125,48,100.0
3143,C#6,458.5,0.125,55,100.0
3144,C#5,458.625,0.125,47,100.0
3145,C#6,458.75,0.125,55,100.0
3146,C#5,458.875,0.125,48,100.0
3147,C6,459.0,0.125,56,100.0
3148,C5,459.125,0.125,48,100.0
3149,C6,459.25,0.125,56,100.0
3150,C5,459.375,0.125,47,100.0
3151,C6,459.5,0.125,56,100.0
3152,C5,459.625,0.125,46,100.0
3153,C6,459.75,0.125,56,100.0
3154,C5,459.875,0.125,48,100.0
3155,B5,460.0,0.125,55,100.0
3156,B4,460.125,0.125,48,100.0
3157,B5,460.25,0.125,55,100.0
3158,B4,460.375,0.125,48,100.0
3159,B5,460.5,0.125,55,100.0
3160,B4,460.625,0.125,48,100.0
3161,B5,460.75,0.125,55,100.0
3162,B4,460.875,0.125,47,100.0
3163,B-5,461.0,0.125,50,100.0
3164,E4,461.0,3.0,43,100.0
3165,D3,461.0,6.0,34,100.0
3166,A3,461.0,6.0,34,100.0
3167,C4,461.0,6.0,34,100.0
3168,B-4,461.125,0.125,43,100.0
3169,B-5,461.25,0.125,50,100.0
3170,B-4,461.375,0.125,41,100.0
3171,B-5,461.5,0.125,50,100.0
3172,B-4,461.625,0.125,41,100.0
3173,B-5,461.75,0.125,50,100.0
3174,B-4,461.875,0.125,42,100.0
3175,A5,462.0,0.125,47,100.0
3176,A4,462.125,0.125,40,100.0
3177,A5,462.25,0.125,47,100.0
3178,A4,462.375,0.125,40,100.0
3179,A5,462.5,0.125,47,100.0
3180,A4,462.625,0.125,40,100.0
3181,A5,462.75,0.125,47,100.0
3182,A4,462.875,0.125,41,100.0
3183,G#5,463.0,0.125,54,100.0
3184,G#4,463.125,0.125,46,100.0
3185,G#5,463.25,0.125,54,100.0
3186,G#4,463.375,0.125,44,100.0
3187,G#5,463.5,0.125,54,100.0
3188,G#4,463.625,0.125,44,100.0
3189,G#5,463.75,0.125,54,100.0
3190,G#4,463.875,0.125,46,100.0
3191,G5,464.0,0.125,54,100.0
3192,D4,464.0,2.0,41,100.0
3193,G4,464.125,0.125,43,100.0
3194,G5,464.25,0.125,50,100.0
3195,G4,464.375,0.125,42,100.0
3196,G5,464.5,0.125,50,100.0
3197,G4,464.625,0.125,44,100.0
3198,G5,464.75,0.125,50,100.0
3199,G4,464.875,0.125,42,100.0
3200,F5,465.0,0.125,48,100.0
3201,F4,465.125,0.125,41,100.0
3202,F5,465.25,0.125,48,100.0
3203,F4,465.375,0.125,41,100.0
3204,F5,465.5,0.125,48,100.0
3205,F4,465.625,0.125,41,100.0
3206,F5,465.75,0.125,46,100.0
3207,F4,465.875,0.125,39,100.0
3208,F5,466.0,0.125,48,100.0
3209,C4,466.0,1.0,39,100.0
3210,F4,466.125,0.125,39,100.0
3211,F5,466.25,0.125,44,100.0
3212,F4,466.375,0.125,39,100.0
3213,F5,466.5,0.125,44,100.0
3214,F4,466.625,0.125,37,100.0
3215,F5,466.75,0.125,44,100.0
3216,F4,466.875,0.125,39,100.0
3217,F#5,467.0,0.125,41,100.0
3218,F#3,467.0,1.0,36,100.0
3219,B-3,467.0,1.0,36,100.0
3220,C#4,467.0,1.0,36,100.0
3221,F#4,467.125,0.125,37,100.0
3222,F#5,467.25,0.125,41,100.0
3223,F#4,467.375,0.125,36,100.0
3224,F#5,467.5,0.125,41,100.0
3225,F#4,467.625,0.125,34,100.0
3226,F#5,467.75,0.125,40,100.0
3227,F#4,467.875,0.125,34,100.0
3228,F#5,468.0,0.125,40,100.0
3229,F#2,468.0,1.0,37,100.0
3230,F#4,468.125,0.125,32,100.0
3231,F#5,468.25,0.125,40,100.0
3232,F#4,468.375,0.125,32,100.0
3233,F#5,468.5,0.125,39,100.0
3234,F#4,468.625,0.125,31,100.0
3235,F#5,468.75,0.125,39,100.0
3236,F#4,468.875,0.125,31,100.0
3237,F#5,469.0,0.125,39,100.0
3238,C#3,469.0,1.0,39,100.0
3239,F#4,469.125,0.125,28,100.0
3240,F#5,469.25,0.125,37,100.0
3241,F#4,469.375,0.125,28,100.0
3242,F#5,469.5,0.125,37,100.0
3243,F#4,469.625,0.125,28,100.0
3244,F#5,469.75,0.125,34,100.0
3245,F#4,469.875,0.125,25,100.0
3246,F#4,470.0,0.25,43,100.0
3247,C5,470.0,5.0,52,100.0
3248,E5,470.0,3.0,52,100.0
3249,F#5,470.0,0.125,37,100.0
3250,F#3,470.0,1.0,42,100.0
3251,F#4,470.125,0.375,25,100.0
3252,F#5,470.25,0.125,37,100.0
3253,F#4,470.375,0.375,25,100.0
3254,F#5,470.5,0.125,37,100.0
3255,F#4,470.625,0.375,25,100.0
3256,F#5,470.75,0.125,37,100.0
3257,F#4,470.875,0.375,25,100.0
3258,F#5,471.0,0.125,37,100.0
3259,B-3,471.0,1.0,44,100.0
3260,F#4,471.125,0.375,25,100.0
3261,F#5,471.25,0.125,37,100.0
3262,F#4,471.375,0.375,25,100.0
3263,F#5,471.5,0.125,37,100.0
3264,F#4,471.625,0.375,25,100.0
3265,F#5,471.75,0.125,37,100.0
3266,F#4,471.875,0.375,25,100.0
3267,F#5,472.0,0.125,37,100.0
3268,C#4,472.0,1.0,49,100.0
3269,F#4,472.125,0.375,25,100.0
3270,F#5,472.25,0.125,37,100.0
3271,F#4,472.375,0.375,25,100.0
3272,F#5,472.5,0.125,37,100.0
3273,F#4,472.625,0.375,25,100.0
3274,F#5,472.75,0.125,37,100.0
3275,F#4,472.875,0.375,25,100.0
3276,D5,473.0,2.0,50,100.0
3277,F#5,473.0,0.125,50,100.0
3278,E4,473.0,3.0,43,100.0
3279,D3,473.0,6.0,37,100.0
3280,A3,473.0,6.0,37,100.0
3281,C4,473.0,6.0,37,100.0
3282,F#4,473.125,0.375,25,100.0
3283,F#5,473.25,0.125,37,100.0
3284,F#4,473.375,0.375,25,100.0
3285,F#5,473.5,0.125,37,100.0
3286,F#4,473.625,0.375,25,100.0
3287,F#5,473.75,0.125,37,100.0
3288,F#4,473.875,0.375,25,100.0
3289,F#5,474.0,0.125,37,100.0
3290,F#4,474.125,0.375,25,100.0
3291,F#5,474.25,0.125,37,100.0
3292,F#4,474.375,0.375,25,100.0
3293,F#5,474.5,0.125,37,100.0
3294,F#4,474.625,0.375,25,100.0
3295,F#5,474.75,0.125,37,100.0
3296,F#4,474.875,0.375,25,100.0
3297,C5,475.0,1.0,48,100.0
3298,F#5,475.0,0.125,48,100.0
3299,F#4,475.125,0.375,25,100.0
3300,F#5,475.25,0.125,37,100.0
3301,F#4,475.375,0.375,25,100.0
3302,F#5,475.5,0.125,37,100.0
3303,F#4,475.625,0.375,25,100.0
3304,F#5,475.75,0.125,37,100.0
3305,F#4,475.875,0.125,25,100.0
3306,F#5,476.0,0.375,48,100.0
3307,F#4,476.0,0.25,37,100.0
3308,D4,476.0,2.0,41,100.0
3309,B-4,476.0,1.0,37,100.0
3310,C#5,476.0,1.0,37,100.0
3311,F#4,476.125,0.375,25,100.0
3312,F#5,476.25,0.375,37,100.0
3313,F#4,476.375,0.375,25,100.0
3314,F#5,476.5,0.375,37,100.0
3315,F#4,476.625,0.375,25,100.0
3316,F#5,476.75,0.25,37,100.0
3317,F#4,476.875,0.125,25,100.0
3318,F#5,477.0,0.125,32,100.0
3319,F#4,477.125,0.125,20,100.0
3320,F#5,477.25,0.125,32,100.0
3321,F#4,477.375,0.125,20,100.0
3322,F#5,477.5,0.125,32,100.0
3323,F#4,477.625,0.125,20,100.0
3324,F#5,477.75,0.125,32,100.0
3325,F#4,477.875,0.125,21,100.0
3326,F#5,478.0,0.125,33,100.0
3327,C4,478.0,1.0,39,100.0
3328,F#4,478.125,0.125,21,100.0
3329,F#5,478.25,0.125,33,100.0
3330,F#4,478.375,0.125,21,100.0
3331,F#5,478.5,0.125,33,100.0
3332,F#4,478.625,0.125,21,100.0
3333,F#5,478.75,0.125,33,100.0
3334,F#4,478.875,0.125,21,100.0
3335,F#5,479.0,0.125,34,100.0
3336,F#3,479.0,1.0,36,100.0
3337,B-3,479.0,1.0,36,100.0
3338,C#4,479.0,1.0,36,100.0
3339,F#4,479.125,0.125,23,100.0
3340,F#5,479.25,0.125,34,100.0
3341,F#4,479.375,0.125,23,100.0
3342,F#5,479.5,0.125,34,100.0
3343,F#4,479.625,0.125,23,100.0
3344,F#5,479.75,0.125,34,100.0
3345,F#4,479.875,0.125,23,100.0
3346,F#5,480.0,0.125,35,100.0
3347,F#2,480.0,1.0,37,100.0
3348,F#4,480.125,0.125,23,100.0
3349,F#5,480.25,0.125,35,100.0
3350,F#4,480.375,0.125,23,100.0
3351,F#5,480.5,0.125,35,100.0
3352,F#4,480.625,0.125,23,100.0
3353,F#5,480.75,0.125,35,100.0
3354,F#4,480.875,0.125,24,100.0
3355,F#5,481.0,0.125,36,100.0
3356,C#3,481.0,1.0,39,100.0
3357,F#4,481.125,0.125,24,100.0
3358,F#5,481.25,0.125,36,100.0
3359,F#4,481.375,0.125,24,100.0
3360,F#5,481.5,0.125,36,100.0
3361,F#4,481.625,0.125,24,100.0
3362,F#5,481.75,0.125,36,100.0
3363,F#4,481.875,0.125,24,100.0
3364,F#4,482.0,0.25,43,100.0
3365,C5,482.0,5.0,52,100.0
3366,E5,482.0,3.0,52,100.0
3367,F#5,482.0,0.125,37,100.0
3368,F#3,482.0,1.0,41,100.0
3369,F#4,482.125,0.375,21,100.0
3370,F#5,482.25,0.125,32,100.0
3371,F#4,482.375,0.375,20,100.0
3372,F#5,482.5,0.125,32,100.0
3373,F#4,482.625,0.375,21,100.0
3374,F#5,482.75,0.125,32,100.0
3375,F#4,482.875,0.375,21,100.0
3376,F#5,483.0,0.125,33,100.0
3377,B-3,483.0,1.0,44,100.0
3378,F#4,483.125,0.375,21,100.0
3379,F#5,483.25,0.125,34,100.0
3380,F#4,483.375,0.375,21,100.0
3381,F#5,483.5,0.125,34,100.0
3382,F#4,483.625,0.375,21,100.0
3383,F#5,483.75,0.125,35,100.0
3384,F#4,483.875,0.375,23,100.0
3385,F#5,484.0,0.125,35,100.0
3386,C#4,484.0,1.0,49,100.0
3387,F#4,484.125,0.375,23,100.0
3388,F#5,484.25,0.125,35,100.0
3389,F#4,484.375,0.375,23,100.0
3390,F#5,484.5,0.125,35,100.0
3391,F#4,484.625,0.375,25,100.0
3392,F#5,484.75,0.125,36,100.0
3393,F#4,484.875,0.375,25,100.0
3394,D5,485.0,2.0,50,100.0
3395,F#5,485.0,0.125,50,100.0
3396,E-4,485.0,3.0,34,100.0
3397,B2,485.0,6.0,34,100.0
3398,F#3,485.0,6.0,34,100.0
3399,F#4,485.125,0.375,25,100.0
3400,F#5,485.25,0.125,37,100.0
3401,F#4,485.375,0.375,25,100.0
3402,F#5,485.5,0.125,37,100.0
3403,F#4,485.625,0.375,25,100.0
3404,F#5,485.75,0.125,37,100.0
3405,F#4,485.875,0.375,25,100.0
3406,F#5,486.0,0.125,36,100.0
3407,F#4,486.125,0.375,25,100.0
3408,F#5,486.25,0.125,36,100.0
3409,F#4,486.375,0.375,25,100.0
3410,F#5,486.5,0.125,37,100.0
3411,F#4,486.625,0.375,25,100.0
3412,F#5,486.75,0.125,37,100.0
3413,F#4,486.875,0.375,25,100.0
3414,C5,487.0,1.0,48,100.0
3415,F#5,487.0,0.125,48,100.0
3416,F#4,487.125,0.375,21,100.0
3417,F#5,487.25,0.125,36,100.0
3418,F#4,487.375,0.375,21,100.0
3419,F#5,487.5,0.125,37,100.0
3420,F#4,487.625,0.375,21,100.0
3421,F#5,487.75,0.125,34,100.0
3422,F#4,487.875,0.125,25,100.0
3423,F#5,488.0,0.375,48,100.0
3424,F#4,488.0,0.25,37,100.0
3425,A3,488.0,2.0,40,100.0
3426,B-4,488.0,1.0,37,100.0
3427,C#5,488.0,1.0,37,100.0
3428,F#4,488.125,0.375,25,100.0
3429,F#5,488.25,0.375,37,100.0
3430,F#4,488.375,0.375,25,100.0
3431,F#5,488.5,0.375,36,100.0
3432,F#4,488.625,0.375,25,100.0
3433,F#5,488.75,0.25,34,100.0
3434,F#4,488.875,0.125,25,100.0
3435,F#5,489.0,0.125,32,100.0
3436,F#4,489.125,0.125,20,100.0
3437,F#5,489.25,0.125,32,100.0
3438,F#4,489.375,0.125,20,100.0
3439,F#5,489.5,0.125,32,100.0
3440,F#4,489.625,0.125,20,100.0
3441,F#5,489.75,0.125,32,100.0
3442,F#4,489.875,0.125,21,100.0
3443,F#5,490.0,0.125,33,100.0
3444,B-3,490.0,1.0,39,100.0
3445,F#4,490.125,0.125,21,100.0
3446,F#5,490.25,0.125,33,100.0
3447,F#4,490.375,0.125,21,100.0
3448,F#5,490.5,0.125,33,100.0
3449,F#4,490.625,0.125,21,100.0
3450,F#5,490.75,0.125,33,100.0
3451,F#4,490.875,0.125,21,100.0
3452,F#5,491.0,0.125,34,100.0
3453,F#3,491.0,5.0,31,100.0
3454,B-3,491.0,5.0,31,100.0
3455,C#4,491.0,5.0,31,100.0
3456,F#4,491.125,0.125,23,100.0
3457,F#5,491.25,0.125,34,100.0
3458,F#4,491.375,0.125,23,100.0
3459,F#5,491.5,0.125,34,100.0
3460,F#4,491.625,0.125,23,100.0
3461,F#5,491.75,0.125,34,100.0
3462,F#4,491.875,0.125,23,100.0
3463,F#5,492.0,0.125,35,100.0
3464,F#4,492.125,0.125,23,100.0
3465,F#5,492.25,0.125,35,100.0
3466,F#4,492.375,0.125,23,100.0
3467,F#5,492.5,0.125,35,100.0
3468,F#4,492.625,0.125,23,100.0
3469,F#5,492.75,0.125,35,100.0
3470,F#4,492.875,0.125,24,100.0
3471,F#5,493.0,0.125,36,100.0
3472,F#4,493.125,0.125,24,100.0
3473,F#5,493.25,0.125,36,100.0
3474,F#4,493.375,0.125,24,100.0
3475,F#5,493.5,0.125,36,100.0
3476,F#4,493.625,0.125,24,100.0
3477,F#5,493.75,0.125,36,100.0
3478,F#4,493.875,0.125,24,100.0
3479,F#4,494.0,0.25,43,100.0
3480,C#5,494.0,6.0,52,100.0
3481,E-5,494.0,3.0,52,100.0
3482,F#5,494.0,0.125,37,100.0
3483,B1,494.0,2.5,28,100.0
3484,F#2,494.0,2.5,28,100.0
3485,F#4,494.125,0.375,25,100.0
3486,F#5,494.25,0.125,37,100.0
3487,F#4,494.375,0.375,25,100.0
3488,F#5,494.5,0.125,37,100.0
3489,F#4,494.625,0.375,25,100.0
3490,F#5,494.75,0.125,37,100.0
3491,F#4,494.875,0.375,25,100.0
3492,F#5,495.0,0.125,37,100.0
3493,F#4,495.125,0.375,25,100.0
3494,F#5,495.25,0.125,37,100.0
3495,F#4,495.375,0.375,25,100.0
3496,F#5,495.5,0.125,37,100.0
3497,F#4,495.625,0.375,25,100.0
3498,F#5,495.75,0.125,37,100.0
3499,F#4,495.875,0.375,25,100.0
3500,F#5,496.0,0.125,37,100.0
3501,F#4,496.125,0.375,25,100.0
3502,F#5,496.25,0.125,37,100.0
3503,F#4,496.375,0.375,25,100.0
3504,F#5,496.5,0.125,39,100.0
3505,F#4,496.625,0.375,25,100.0
3506,F#5,496.75,0.125,39,100.0
3507,F#4,496.875,0.375,25,100.0
3508,A4,497.0,2.0,47,100.0
3509,F#5,497.0,0.125,47,100.0
3510,B2,497.0,6.0,34,100.0
3511,E-4,497.0,3.0,34,100.0
3512,F#3,497.0,3.0,34,100.0
3513,F#4,497.125,0.375,25,100.0
3514,F#5,497.25,0.125,36,100.0
3515,F#4,497.375,0.375,25,100.0
3516,F#5,497.5,0.125,36,100.0
3517,F#4,497.625,0.375,23,100.0
3518,F#5,497.75,0.125,34,100.0
3519,F#4,497.875,0.375,25,100.0
3520,F#5,498.0,0.125,35,100.0
3521,F#4,498.125,0.375,23,100.0
3522,F#5,498.25,0.125,34,100.0
3523,F#4,498.375,0.375,21,100.0
3524,F#5,498.5,0.125,34,100.0
3525,F#4,498.625,0.375,23,100.0
3526,F#5,498.75,0.125,33,100.0
3527,F#4,498.875,0.375,23,100.0
3528,B-4,499.0,1.0,40,100.0
3529,F#5,499.0,0.125,40,100.0
3530,F#4,499.125,0.375,25,100.0
3531,F#5,499.25,0.125,32,100.0
3532,F#4,499.375,0.375,21,100.0
3533,F#5,499.5,0.125,32,100.0
3534,F#4,499.625,0.375,20,100.0
3535,F#5,499.75,0.125,34,100.0
3536,F#4,499.875,0.125,23,100.0
3537,F#5,500.0,0.375,42,100.0
3538,F#4,500.0,0.25,33,100.0
3539,A3,500.0,2.0,40,100.0
3540,B-4,500.0,2.0,33,100.0
3541,C#5,500.0,2.0,33,100.0
3542,F#4,500.125,0.375,25,100.0
3543,F#5,500.25,0.375,36,100.0
3544,F#4,500.375,0.375,24,100.0
3545,F#5,500.5,0.375,35,100.0
3546,F#4,500.625,0.375,24,100.0
3547,F#5,500.75,0.375,35,100.0
3548,F#4,500.875,0.375,24,100.0
3549,F#5,501.0,0.375,37,100.0
3550,F#4,501.125,0.375,23,100.0
3551,F#5,501.25,0.375,35,100.0
3552,F#4,501.375,0.375,23,100.0
3553,F#5,501.5,0.375,34,100.0
3554,F#4,501.625,0.375,23,100.0
3555,F#5,501.75,0.25,34,100.0
3556,F#4,501.875,0.125,23,100.0
3557,F#5,502.0,0.125,33,100.0
3558,B-3,502.0,1.0,39,100.0
3559,F#4,502.125,0.125,21,100.0
3560,F#5,502.25,0.125,33,100.0
3561,F#4,502.375,0.125,21,100.0
3562,F#5,502.5,0.125,33,100.0
3563,F#4,502.625,0.125,21,100.0
3564,F#5,502.75,0.125,32,100.0
3565,F#4,502.875,0.125,20,100.0
3566,F#5,503.0,0.125,32,100.0
3567,F#3,503.0,5.0,31,100.0
3568,B-3,503.0,5.0,31,100.0
3569,C#4,503.0,5.0,31,100.0
3570,F#4,503.125,0.125,20,100.0
3571,F#5,503.25,0.125,32,100.0
3572,F#4,503.375,0.125,20,100.0
3573,F#5,503.5,0.125,32,100.0
3574,F#4,503.625,0.125,20,100.0
3575,F#5,503.75,0.125,32,100.0
3576,F#4,503.875,0.125,20,100.0
3577,F#5,504.0,0.125,32,100.0
3578,F#4,504.125,0.125,20,100.0
3579,F#5,504.25,0.125,32,100.0
3580,F#4,504.375,0.125,20,100.0
3581,F#5,504.5,0.125,32,100.0
3582,F#4,504.625,0.125,20,100.0
3583,F#5,504.75,0.125,32,100.0
3584,F#4,504.875,0.125,20,100.0
3585,F#5,505.0,0.125,32,100.0
3586,F#4,505.125,0.125,20,100.0
3587,F#5,505.25,0.125,32,100.0
3588,F#4,505.375,0.125,20,100.0
3589,F#5,505.5,0.125,32,100.0
3590,F#4,505.625,0.125,20,100.0
3591,F#5,505.75,0.125,32,100.0
3592,F#4,505.875,0.125,20,100.0
3593,F#4,506.0,0.25,43,100.0
3594,C#5,506.0,6.0,52,100.0
3595,E-5,506.0,3.0,52,100.0
3596,F#5,506.0,0.125,37,100.0
3597,B1,506.0,2.5,28,100.0
3598,F#2,506.0,2.5,28,100.0
3599,F#4,506.125,0.375,25,100.0
3600,F#5,506.25,0.125,37,100.0
3601,F#4,506.375,0.375,25,100.0
3602,F#5,506.5,0.125,37,100.0
3603,F#4,506.625,0.375,25,100.0
3604,F#5,506.75,0.125,37,100.0
3605,F#4,506.875,0.375,25,100.0
3606,F#5,507.0,0.125,37,100.0
3607,F#4,507.125,0.375,25,100.0
3608,F#5,507.25,0.125,37,100.0
3609,F#4,507.375,0.375,25,100.0
3610,F#5,507.5,0.125,37,100.0
3611,F#4,507.625,0.375,25,100.0
3612,F#5,507.75,0.125,37,100.0
3613,F#4,507.875,0.375,25,100.0
3614,F#5,508.0,0.125,37,100.0
3615,F#4,508.125,0.375,25,100.0
3616,F#5,508.25,0.125,37,100.0
3617,F#4,508.375,0.375,25,100.0
3618,F#5,508.5,0.125,39,100.0
3619,F#4,508.625,0.375,25,100.0
3620,F#5,508.75,0.125,39,100.0
3621,F#4,508.875,0.375,25,100.0
3622,A4,509.0,2.0,47,100.0
3623,F#5,509.0,0.125,47,100.0
3624,F#3,509.0,5.0,28,100.0
3625,B3,509.0,5.0,28,100.0
3626,E-4,509.0,5.0,28,100.0
3627,F#4,509.125,0.375,25,100.0
3628,F#5,509.25,0.125,37,100.0
3629,F#4,509.375,0.375,25,100.0
3630,F#5,509.5,0.125,37,100.0
3631,F#4,509.625,0.375,25,100.0
3632,F#5,509.75,0.125,37,100.0
3633,F#4,509.875,0.375,25,100.0
3634,F#5,510.0,0.125,37,100.0
3635,B1,510.0,1.0,36,100.0
3636,F#4,510.125,0.375,25,100.0
3637,F#5,510.25,0.125,37,100.0
3638,F#4,510.375,0.375,25,100.0
3639,F#5,510.5,0.125,37,100.0
3640,F#4,510.625,0.375,25,100.0
3641,F#5,510.75,0.125,37,100.0
3642,F#4,510.875,0.375,25,100.0
3643,B-4,511.0,1.0,40,100.0
3644,F#5,511.0,0.125,40,100.0
3645,F#2,511.0,1.0,36,100.0
3646,F#4,511.125,0.375,25,100.0
3647,F#5,511.25,0.125,35,100.0
3648,F#4,511.375,0.375,25,100.0
3649,F#5,511.5,0.125,34,100.0
3650,F#4,511.625,0.375,25,100.0
3651,F#5,511.75,0.125,34,100.0
3652,F#4,511.875,0.125,25,100.0
3653,F#5,512.0,0.375,42,100.0
3654,F#4,512.0,0.25,33,100.0
3655,E-3,512.0,1.0,36,100.0
3656,B-4,512.0,2.0,33,100.0
3657,C#5,512.0,2.0,33,100.0
3658,F#4,512.125,0.375,25,100.0
3659,F#5,512.25,0.375,36,100.0
3660,F#4,512.375,0.375,24,100.0
3661,F#5,512.5,0.375,35,100.0
3662,F#4,512.625,0.375,24,100.0
3663,F#5,512.75,0.375,35,100.0
3664,F#4,512.875,0.375,24,100.0
3665,F#5,513.0,0.375,37,100.0
3666,B3,513.0,1.0,34,100.0
3667,F#4,513.125,0.375,23,100.0
3668,F#5,513.25,0.375,35,100.0
3669,F#4,513.375,0.375,23,100.0
3670,F#5,513.5,0.375,34,100.0
3671,F#4,513.625,0.375,23,100.0
3672,F#5,513.75,0.25,34,100.0
3673,F#4,513.875,0.125,23,100.0
3674,F#5,514.0,0.125,33,100.0
3675,E-4,514.0,1.0,34,100.0
3676,F#4,514.125,0.125,21,100.0
3677,F#5,514.25,0.125,33,100.0
3678,F#4,514.375,0.125,21,100.0
3679,F#5,514.5,0.125,33,100.0
3680,F#4,514.625,0.125,21,100.0
3681,F#5,514.75,0.125,32,100.0
3682,F#4,514.875,0.125,20,100.0
3683,F#5,515.0,0.125,32,100.0
3684,F#6,515.0,6.0,38,100.0
3685,E-6,515.0,6.0,38,100.0
3686,B5,515.0,6.0,38,100.0
3687,F#4,515.125,0.125,20,100.0
3688,F#5,515.25,0.125,32,100.0
3689,F#4,515.375,0.125,20,100.0
3690,F#5,515.5,0.125,32,100.0
3691,F#4,515.625,0.125,20,100.0
3692,F#5,515.75,0.125,32,100.0
3693,F#4,515.875,0.125,20,100.0
3694,F#5,516.0,0.125,32,100.0
3695,F#4,516.125,0.125,20,100.0
3696,F#5,516.25,0.125,32,100.0
3697,F#4,516.375,0.125,20,100.0
3698,F#5,516.5,0.125,32,100.0
3699,F#4,516.625,0.125,20,100.0
3700,F#5,516.75,0.125,32,100.0
3701,F#4,516.875,0.125,20,100.0
3702,F#5,517.0,0.125,32,100.0
3703,F#4,517.125,0.125,20,100.0
3704,F#5,517.25,0.125,32,100.0
3705,F#4,517.375,0.125,20,100.0
3706,F#5,517.5,0.125,32,100.0
3707,F#4,517.625,0.125,20,100.0
3708,F#5,517.75,0.125,32,100.0
3709,F#4,517.875,0.125,20,100.0
3710,F#5,518.0,0.375,42,100.0
3711,F#4,518.0,0.25,33,100.0
3712,B4,518.0,5.0,38,100.0
3713,E-5,518.0,5.0,38,100.0
3714,F#4,518.125,0.375,25,100.0
3715,F#5,518.25,0.375,37,100.0
3716,F#4,518.375,0.375,25,100.0
3717,F#5,518.5,0.375,36,100.0
3718,F#4,518.625,0.375,25,100.0
3719,F#5,518.75,0.375,36,100.0
3720,F#4,518.875,0.375,25,100.0
3721,F#5,519.0,0.375,32,100.0
3722,F#4,519.125,0.375,19,100.0
3723,F#5,519.25,0.375,29,100.0
3724,F#4,519.375,0.375,19,100.0
3725,F#5,519.5,0.375,29,100.0
3726,F#4,519.625,0.375,19,100.0
3727,F#5,519.75,0.375,29,100.0
3728,F#4,519.875,0.375,19,100.0
3729,F#5,520.0,0.375,31,100.0
3730,F#4,520.125,0.375,20,100.0
3731,F#5,520.25,0.375,31,100.0
3732,F#4,520.375,0.375,20,100.0
3733,F#5,520.5,0.375,31,100.0
3734,F#4,520.625,0.375,20,100.0
3735,F#5,520.75,0.375,31,100.0
3736,F#4,520.875,0.375,20,100.0
3737,F#5,521.0,0.375,31,100.0
3738,F#4,521.125,0.375,20,100.0
3739,F#5,521.25,0.375,31,100.0
3740,F#4,521.375,0.375,20,100.0
3741,F#5,521.5,0.375,32,100.0
3742,F#4,521.625,0.375,20,100.0
3743,F#5,521.75,0.375,32,100.0
3744,F#4,521.875,0.375,20,100.0
3745,F#5,522.0,0.375,32,100.0
3746,F#4,522.125,0.375,20,100.0
3747,F#5,522.25,0.375,32,100.0
3748,F#4,522.375,0.375,20,100.0
3749,F#5,522.5,0.375,32,100.0
3750,F#4,522.625,0.375,21,100.0
3751,F#5,522.75,0.25,32,100.0
3752,F#4,522.875,0.125,21,100.0
3753,F#5,523.0,0.125,33,100.0
3754,F#4,523.125,0.125,21,100.0
3755,F#5,523.25,0.125,33,100.0
3756,F#4,523.375,0.125,21,100.0
3757,F#5,523.5,0.125,33,100.0
3758,F#4,523.625,0.125,21,100.0
3759,F#5,523.75,0.125,33,100.0
3760,F#4,523.875,0.125,21,100.0
3761,F#5,524.0,0.125,32,100.0
3762,F#6,524.0,3.0,38,100.0
3763,E-6,524.0,3.0,38,100.0
3764,B5,524.0,3.0,38,100.0
3765,F#4,524.125,0.125,19,100.0
3766,F#5,524.25,0.125,33,100.0
3767,F#4,524.375,0.125,19,100.0
3768,F#5,524.5,0.125,32,100.0
3769,F#4,524.625,0.125,19,100.0
3770,F#5,524.75,0.125,32,100.0
3771,F#4,524.875,0.125,20,100.0
3772,F#5,525.0,0.125,34,100.0
3773,F#4,525.125,0.125,20,100.0
3774,F#5,525.25,0.125,32,100.0
3775,F#4,525.375,0.125,20,100.0
3776,F#5,525.5,0.125,31,100.0
3777,F#4,525.625,0.125,20,100.0
3778,F#5,525.75,0.125,31,100.0
3779,F#4,525.875,0.125,20,100.0
3780,F#5,526.0,0.125,29,100.0
3781,F#4,526.125,0.125,19,100.0
3782,F#5,526.25,0.125,29,100.0
3783,F#4,526.375,0.125,18,100.0
3784,F#5,526.5,0.125,29,100.0
3785,F#4,526.625,0.125,18,100.0
3786,F#5,526.75,0.125,28,100.0
3787,F#4,526.875,0.125,18,100.0
3788,F#5,527.0,0.125,27,100.0
3789,F#4,527.125,0.125,18,100.0
3790,F#5,527.25,0.125,27,100.0
3791,F#4,527.375,0.125,17,100.0
3792,F#5,527.5,0.125,26,100.0
3793,F#4,527.625,0.125,17,100.0
3794,F#5,527.75,0.125,26,100.0
3795,F#4,527.875,0.125,17,100.0
3796,F#5,528.0,0.125,24,100.0
3797,F#4,528.125,0.125,16,100.0
3798,F#5,528.25,0.125,24,100.0
3799,F#4,528.375,0.125,15,100.0
3800,F#5,528.5,0.125,24,100.0
3801,F#4,528.625,0.125,15,100.0
3802,F#5,528.75,0.125,23,100.0
3803,F#4,528.875,0.125,15,100.0
3804,F#5,529.0,0.125,22,100.0
3805,F#4,529.125,0.125,15,100.0
3806,F#5,529.25,0.125,22,100.0
3807,F#4,529.375,0.125,14,100.0
3808,F#5,529.5,0.125,22,100.0
3809,F#4,529.625,0.125,14,100.0
3810,F#5,529.75,0.125,22,100.0
3811,F#4,529.875,0.125,14,100.0
3812,F#5,530.0,0.125,22,100.0
3813,F#4,530.125,0.125,15,100.0
3814,F#5,530.25,0.125,22,100.0
3815,F#4,530.375,0.125,14,100.0
3816,F#5,530.5,0.125,22,100.0
3817,F#4,530.625,0.125,14,100.0
3818,F#5,530.75,0.125,22,100.0
3819,F#4,530.875,0.125,14,100.0
3820,F#5,531.0,0.125,20,100.0
3821,F#4,531.125,0.125,13,100.0
3822,F#5,531.25,0.125,20,100.0
3823,F#4,531.375,0.125,12,100.0
3824,F#5,531.5,0.125,20,100.0
3825,F#4,531.625,0.125,12,100.0
3826,F#5,531.75,0.125,19,100.0
3827,F#4,531.875,0.125,12,100.0
3828,F#5,532.0,0.125,18,100.0
3829,F#4,532.125,0.125,12,100.0
3830,F#5,532.25,0.125,18,100.0
3831,F#4,532.375,0.125,11,100.0
3832,F#5,532.5,0.125,18,100.0
3833,F#4,532.625,0.125,11,100.0
3834,F#5,532.75,0.125,18,100.0
3835,F#4,532.875,0.125,11,100.0
