,note_name,start_time,duration,velocity,tempo
0,G4,0.002,521/500,90,100.0
1,F4,1.0,521/500,85,100.0
2,B-4,2.0,521/500,89,100.0
3,C5,3.0,271/500,91,100.0
4,F5,3.5,271/500,81,100.0
5,D5,4.0,1.0,86,100.0
6,C5,5.0,271/500,85,100.0
7,D5,5.0,21/500,86,100.0
8,F5,5.5,271/500,81,100.0
9,D5,6.0,521/500,85,100.0
10,B-4,7.0,521/500,86,100.0
11,C5,8.0,521/500,86,100.0
12,G4,9.0,521/500,82,100.0
13,F4,10.0,0.938,81,100.0
14,B-3,11.0,1.0,73,100.0
15,G4,11.0,1.0,73,100.0
16,D4,11.0,1.0,73,100.0
17,G2,11.0,1.0,68,100.0
18,G3,11.0,1.0,68,100.0
19,C4,12.0,1.0,72,100.0
20,A3,12.0,1.0,72,100.0
21,F4,12.0,1.0,72,100.0
22,A2,12.0,1.0,64,100.0
23,F3,12.0,1.0,64,100.0
24,D4,13.0,1.0,72,100.0
25,B-3,13.0,1.0,72,100.0
26,B-4,13.0,1.0,72,100.0
27,G2,13.0,1.0,64,100.0
28,G3,13.0,1.0,64,100.0
29,C5,14.0,0.5,82,100.0
30,C4,14.0,1.0,69,100.0
31,A4,14.0,1.0,69,100.0
32,F2,14.0,1.0,61,100.0
33,F3,14.0,1.0,61,100.0
34,F5,14.5,0.5,78,100.0
35,A4,15.0,1.0,72,100.0
36,D5,15.0,1.0,72,100.0
37,F4,15.0,1.0,72,100.0
38,D2,15.0,1.0,56,100.0
39,D3,15.0,1.0,56,100.0
40,C5,16.0,0.5,81,100.0
41,C4,16.0,1.0,68,100.0
42,A4,16.0,1.0,68,100.0
43,F2,16.0,1.0,64,100.0
44,F3,16.0,1.0,64,100.0
45,F5,16.5,0.5,77,100.0
46,B-4,17.0,0.938,75,100.0
47,F4,17.0,0.938,75,100.0
48,D5,17.0,0.938,75,100.0
49,B-2,17.0,1.0,62,100.0
50,B-3,17.0,1.0,62,100.0
51,G4,18.0,1.0,70,100.0
52,D4,18.0,1.0,70,100.0
53,B-4,18.0,1.0,70,100.0
54,G2,18.0,1.0,58,100.0
55,G3,18.0,1.0,58,100.0
56,G4,19.0,1.0,69,100.0
57,E4,19.0,1.0,69,100.0
58,C5,19.0,1.0,69,100.0
59,C2,19.0,1.0,56,100.0
60,C3,19.0,1.0,56,100.0
61,C4,20.0,1.0,63,100.0
62,G4,20.0,1.0,63,100.0
63,G3,20.0,1.0,63,100.0
64,E2,20.0,1.0,54,100.0
65,E3,20.0,1.0,54,100.0
66,F4,21.0,0.938,59,100.0
67,A3,21.0,0.938,59,100.0
68,C4,21.0,0.938,59,100.0
69,F2,21.0,0.938,52,100.0
70,F3,21.0,0.938,52,100.0
71,F4,22.0,521/500,92,100.0
72,G4,23.0,521/500,88,100.0
73,D4,24.0,521/500,83,100.0
74,F4,25.0,271/500,86,100.0
75,G4,25.5,271/500,74,100.0
76,C4,26.0,1.0,80,100.0
77,G4,27.0,271/500,85,100.0
78,C4,27.0,21/500,80,100.0
79,A4,27.5,271/500,77,100.0
80,F4,28.0,0.938,83,100.0
81,F5,29.0,1.0,78,100.0
82,F4,29.0,1.0,78,100.0
83,F3,29.0,1.0,68,100.0
84,F2,29.0,1.0,68,100.0
85,F4,30.0,1.0,76,100.0
86,D5,30.0,1.0,76,100.0
87,B-3,30.0,1.0,64,100.0
88,B-2,30.0,1.0,64,100.0
89,F4,31.0,1.0,68,100.0
90,C5,31.0,0.5,80,100.0
91,G3,31.0,1.0,62,100.0
92,G2,31.0,1.0,62,100.0
93,B-4,31.5,0.5,74,100.0
94,F4,32.0,0.938,79,100.0
95,F3,32.0,0.938,56,100.0
96,F2,32.0,0.938,56,100.0
97,F4,33.0,521/500,92,100.0
98,G4,34.0,521/500,88,100.0
99,D4,35.0,521/500,85,100.0
100,F4,36.0,271/500,86,100.0
101,G4,36.5,271/500,77,100.0
102,E-4,37.0,1.0,85,100.0
103,B-4,38.0,271/500,92,100.0
104,E-4,38.0,21/500,85,100.0
105,C5,38.5,271/500,74,100.0
106,G#4,39.0,0.938,78,100.0
107,G#5,40.0,1.0,78,100.0
108,G#4,40.0,1.0,78,100.0
109,G#3,40.0,1.0,68,100.0
110,G#2,40.0,1.0,68,100.0
111,G#4,41.0,1.0,74,100.0
112,F5,41.0,1.0,74,100.0
113,C#4,41.0,1.0,62,100.0
114,C#3,41.0,1.0,62,100.0
115,E-5,42.0,0.5,78,100.0
116,G#4,42.0,1.0,66,100.0
117,B-3,42.0,1.0,62,100.0
118,B-2,42.0,1.0,62,100.0
119,C#5,42.5,0.5,78,100.0
120,G#4,43.0,0.938,74,100.0
121,G#3,43.0,0.938,59,100.0
122,G#2,43.0,0.938,59,100.0
123,E-4,44.0,3.0,40,100.0
124,G#4,44.0,1.0,44,100.0
125,G#3,44.0,1.0,44,100.0
126,F#2,44.0,2.0,34,100.0
127,F#1,44.0,2.0,34,100.0
128,B-4,45.0,1.0,45,100.0
129,B-3,45.0,1.0,45,100.0
130,G#3,46.0,1.0,45,100.0
131,G#4,46.0,1.0,45,100.0
132,F1,46.0,1.0,31,100.0
133,F2,46.0,1.0,31,100.0
134,E-4,47.0,1.5,49,100.0
135,B-3,47.0,0.5,45,100.0
136,B-4,47.0,0.5,45,100.0
137,F#1,47.0,1.0,34,100.0
138,F#2,47.0,1.0,34,100.0
139,C4,47.5,0.5,45,100.0
140,C5,47.5,0.5,45,100.0
141,E-5,48.0,0.5,53,100.0
142,E-4,48.0,2.0,45,100.0
143,F#1,48.0,1.0,31,100.0
144,F#2,48.0,1.0,31,100.0
145,B-4,48.5,0.5,45,100.0
146,B-3,48.5,0.5,45,100.0
147,G#4,49.0,0.938,42,100.0
148,G#3,49.0,0.938,42,100.0
149,F#2,49.0,0.938,30,100.0
150,F#3,49.0,0.938,30,100.0
151,C#5,50.0,0.5,65,100.0
152,C#4,50.0,0.5,65,100.0
153,F4,50.0,0.5,65,100.0
154,G#4,50.0,0.5,65,100.0
155,F2,50.0,0.5,50,100.0
156,F3,50.0,0.5,50,100.0
157,C5,50.5,0.5,61,100.0
158,E-5,50.5,0.5,61,100.0
159,G#4,50.5,0.5,61,100.0
160,E-4,50.5,0.5,61,100.0
161,E-3,50.5,0.5,46,100.0
162,E-2,50.5,0.5,46,100.0
163,F4,51.0,0.5,65,100.0
164,F5,51.0,0.5,65,100.0
165,C#5,51.0,0.5,65,100.0
166,G#4,51.0,0.5,65,100.0
167,C#2,51.0,1.0,50,100.0
168,C#3,51.0,1.0,50,100.0
169,G#5,51.5,0.5,75,100.0
170,B-4,52.0,0.5,64,100.0
171,E-5,52.0,0.5,64,100.0
172,F#4,52.0,0.5,64,100.0
173,F#5,52.0,0.5,64,100.0
174,E-2,52.0,0.5,52,100.0
175,E-3,52.0,0.5,52,100.0
176,G#4,52.5,0.5,60,100.0
177,F4,52.5,0.5,60,100.0
178,C#5,52.5,0.5,60,100.0
179,F5,52.5,0.5,60,100.0
180,F2,52.5,0.5,47,100.0
181,F3,52.5,0.5,47,100.0
182,E-4,53.0,0.5,66,100.0
183,E-5,53.0,0.5,66,100.0
184,G#4,53.0,0.5,66,100.0
185,C5,53.0,0.5,66,100.0
186,G#3,53.0,1.0,52,100.0
187,G#2,53.0,1.0,52,100.0
188,F#5,53.5,0.5,64,100.0
189,F#4,53.5,0.5,64,100.0
190,B-4,54.0,0.5,61,100.0
191,F5,54.0,0.5,61,100.0
192,C#5,54.0,0.5,61,100.0
193,F4,54.0,0.5,61,100.0
194,B-3,54.0,1.0,42,100.0
195,B-2,54.0,1.0,42,100.0
196,C#4,54.5,0.5,62,100.0
197,C#5,54.5,0.5,62,100.0
198,G#4,55.0,0.938,56,100.0
199,E-5,55.0,0.938,56,100.0
200,C5,55.0,0.938,56,100.0
201,E-4,55.0,0.938,56,100.0
202,G#2,55.0,0.938,40,100.0
203,G#3,55.0,0.938,40,100.0
204,E-4,56.0,3.0,43,100.0
205,G#4,56.0,1.0,47,100.0
206,G#3,56.0,1.0,47,100.0
207,F#1,56.0,2.0,32,100.0
208,F#2,56.0,2.0,32,100.0
209,B-4,57.0,1.0,47,100.0
210,B-3,57.0,1.0,47,100.0
211,G#3,58.0,1.0,47,100.0
212,G#4,58.0,1.0,47,100.0
213,F1,58.0,1.0,34,100.0
214,F2,58.0,1.0,34,100.0
215,E-4,59.0,1.0,45,100.0
216,B-3,59.0,0.5,49,100.0
217,B-4,59.0,0.5,49,100.0
218,F#1,59.0,1.0,34,100.0
219,F#2,59.0,1.0,34,100.0
220,C5,59.5,0.5,50,100.0
221,C4,59.5,0.5,50,100.0
222,E-4,60.0,0.5,57,100.0
223,E-5,60.0,0.5,57,100.0
224,F#2,60.0,0.5,40,100.0
225,F#3,60.0,0.5,40,100.0
226,B-3,60.5,0.5,54,100.0
227,B-4,60.5,0.5,54,100.0
228,G4,61.0,3.0,52,100.0
229,C4,61.0,1.0,57,100.0
230,C5,61.0,1.0,57,100.0
231,B-2,61.0,2.0,38,100.0
232,B-1,61.0,2.0,38,100.0
233,D4,62.0,1.0,59,100.0
234,D5,62.0,1.0,59,100.0
235,C4,63.0,1.0,58,100.0
236,C5,63.0,1.0,58,100.0
237,A2,63.0,1.0,37,100.0
238,A1,63.0,1.0,37,100.0
239,G4,64.0,1.0,52,100.0
240,D4,64.0,0.5,57,100.0
241,D5,64.0,0.5,57,100.0
242,B-2,64.0,1.0,38,100.0
243,B-1,64.0,1.0,38,100.0
244,F5,64.5,0.5,57,100.0
245,F4,64.5,0.5,57,100.0
246,G5,65.0,0.5,64,100.0
247,G4,65.0,2.0,54,100.0
248,B-2,65.0,1.0,38,100.0
249,B-1,65.0,1.0,38,100.0
250,D4,65.5,0.5,58,100.0
251,D5,65.5,0.5,58,100.0
252,C5,66.0,0.938,56,100.0
253,C4,66.0,0.938,56,100.0
254,B-3,66.0,0.938,38,100.0
255,B-2,66.0,0.938,38,100.0
256,C5,67.0,0.5,70,100.0
257,F4,67.0,0.5,70,100.0
258,A4,67.0,0.5,70,100.0
259,F5,67.0,0.5,70,100.0
260,A3,67.0,0.5,57,100.0
261,A2,67.0,0.5,57,100.0
262,C5,67.5,0.5,64,100.0
263,G5,67.5,0.5,64,100.0
264,E5,67.5,0.5,64,100.0
265,G4,67.5,0.5,64,100.0
266,G3,67.5,0.5,52,100.0
267,G2,67.5,0.5,52,100.0
268,A4,68.0,0.5,72,100.0
269,A5,68.0,0.5,72,100.0
270,C5,68.0,0.5,72,100.0
271,F5,68.0,0.5,72,100.0
272,F2,68.0,1.0,56,100.0
273,F3,68.0,1.0,56,100.0
274,C5,68.5,0.5,66,100.0
275,C6,68.5,0.5,66,100.0
276,D5,69.0,0.5,71,100.0
277,B-4,69.0,0.5,71,100.0
278,G5,69.0,0.5,71,100.0
279,B-5,69.0,0.5,71,100.0
280,G3,69.0,0.5,56,100.0
281,G2,69.0,0.5,56,100.0
282,A4,69.5,0.5,66,100.0
283,A5,69.5,0.5,66,100.0
284,C5,69.5,0.5,66,100.0
285,F5,69.5,0.5,66,100.0
286,A2,69.5,0.5,52,100.0
287,A3,69.5,0.5,52,100.0
288,E5,70.0,0.5,74,100.0
289,G5,70.0,0.5,74,100.0
290,G4,70.0,0.5,74,100.0
291,C5,70.0,0.5,74,100.0
292,C4,70.0,1.0,57,100.0
293,C3,70.0,1.0,57,100.0
294,B-4,70.5,0.5,69,100.0
295,B-5,70.5,0.5,69,100.0
296,D5,71.0,0.5,70,100.0
297,A4,71.0,0.5,70,100.0
298,F5,71.0,0.5,70,100.0
299,A5,71.0,0.5,70,100.0
300,D3,71.0,1.0,56,100.0
301,D4,71.0,1.0,56,100.0
302,F4,71.5,0.5,68,100.0
303,F5,71.5,0.5,68,100.0
304,C5,72.0,0.938,61,100.0
305,G4,72.0,0.938,61,100.0
306,G5,72.0,0.938,61,100.0
307,E5,72.0,0.938,61,100.0
308,C3,72.0,0.938,54,100.0
309,C4,72.0,0.938,54,100.0
310,A5,73.0,0.5,56,100.0
311,A4,73.0,1.0,47,100.0
312,C5,73.0,1.0,47,100.0
313,A3,73.0,1.0,40,100.0
314,A2,73.0,1.0,40,100.0
315,E5,73.5,0.5,51,100.0
316,F4,74.0,1.0,48,100.0
317,D5,74.0,1.0,48,100.0
318,F5,74.0,1.0,48,100.0
319,B-2,74.0,1.0,36,100.0
320,B-3,74.0,1.0,36,100.0
321,A4,75.0,1.0,46,100.0
322,C5,75.0,1.0,46,100.0
323,A5,75.0,1.0,46,100.0
324,F3,75.0,1.0,40,100.0
325,F2,75.0,1.0,40,100.0
326,E4,76.0,1.0,42,100.0
327,D5,76.0,1.0,42,100.0
328,B-4,76.0,1.0,42,100.0
329,G3,76.0,1.0,34,100.0
330,G2,76.0,1.0,34,100.0
331,A5,77.0,1.0,46,100.0
332,A4,77.0,1.0,46,100.0
333,C5,77.0,1.0,46,100.0
334,F3,77.0,1.0,38,100.0
335,F2,77.0,1.0,38,100.0
336,B-4,78.0,1.0,42,100.0
337,D5,78.0,1.0,42,100.0
338,E4,78.0,1.0,42,100.0
339,G3,78.0,1.0,34,100.0
340,G2,78.0,1.0,34,100.0
341,F5,79.0,0.5,56,100.0
342,A4,79.0,1.0,47,100.0
343,F4,79.0,1.0,47,100.0
344,D3,79.0,1.0,40,100.0
345,D2,79.0,1.0,40,100.0
346,C5,79.5,0.5,51,100.0
347,B-4,80.0,1.0,48,100.0
348,F4,80.0,1.0,48,100.0
349,D5,80.0,1.0,48,100.0
350,G3,80.0,1.0,38,100.0
351,G2,80.0,1.0,38,100.0
352,A4,81.0,1.0,47,100.0
353,F4,81.0,1.0,47,100.0
354,F5,81.0,1.0,47,100.0
355,D3,81.0,1.0,40,100.0
356,D2,81.0,1.0,40,100.0
357,B-4,82.0,1.0,42,100.0
358,D5,82.0,1.0,42,100.0
359,F4,82.0,1.0,42,100.0
360,G3,82.0,1.0,32,100.0
361,G2,82.0,1.0,32,100.0
362,F5,83.0,0.5,54,100.0
363,A4,83.0,1.0,45,100.0
364,F4,83.0,1.0,45,100.0
365,D3,83.0,1.0,40,100.0
366,D2,83.0,1.0,40,100.0
367,C5,83.5,0.5,51,100.0
368,B-4,84.0,0.938,47,100.0
369,F4,84.0,0.938,47,100.0
370,D5,84.0,0.938,47,100.0
371,G3,84.0,0.938,37,100.0
372,G2,84.0,0.938,37,100.0
373,E-4,85.0,0.5,45,100.0
374,G4,85.0,1.0,49,100.0
375,C5,85.0,1.0,49,100.0
376,C3,85.0,1.0,40,100.0
377,C2,85.0,1.0,40,100.0
378,E4,85.5,0.5,46,100.0
379,F4,86.0,1.0,44,100.0
380,A4,86.0,1.0,44,100.0
381,C4,86.0,1.0,44,100.0
382,F2,86.0,1.0,38,100.0
383,F3,86.0,1.0,38,100.0
384,B-4,87.0,1.0,41,100.0
385,D4,87.0,1.0,41,100.0
386,F4,87.0,1.0,41,100.0
387,G2,87.0,1.0,32,100.0
388,G3,87.0,1.0,32,100.0
389,E-4,88.0,0.5,45,100.0
390,C5,88.0,1.0,50,100.0
391,G4,88.0,1.0,50,100.0
392,C3,88.0,1.0,38,100.0
393,C2,88.0,1.0,38,100.0
394,E4,88.5,0.5,47,100.0
395,F4,89.0,1.0,44,100.0
396,C4,89.0,1.0,44,100.0
397,A4,89.0,1.0,44,100.0
398,F2,89.0,1.0,37,100.0
399,F3,89.0,1.0,37,100.0
400,B-4,90.0,0.5,56,100.0
401,D4,90.0,1.0,47,100.0
402,F4,90.0,1.0,47,100.0
403,G3,90.0,1.0,38,100.0
404,G2,90.0,1.0,38,100.0
405,D5,90.5,0.5,52,100.0
406,G4,91.0,1.0,50,100.0
407,E4,91.0,1.0,50,100.0
408,C5,91.0,1.0,50,100.0
409,C3,91.0,1.0,38,100.0
410,C2,91.0,1.0,38,100.0
411,F2,92.0,1.0,35,100.0
412,D4,92.0,1.0,41,100.0
413,A4,92.0,1.0,41,100.0
414,F4,92.0,1.0,41,100.0
415,C4,92.0,1.0,41,100.0
416,E4,93.0,0.938,46,100.0
417,C5,93.0,0.938,46,100.0
418,G4,93.0,0.938,46,100.0
419,C3,93.0,0.938,36,100.0
420,C2,93.0,0.938,36,100.0
421,F4,94.0,1.0,81,100.0
422,F5,94.0,1.0,81,100.0
423,F2,94.0,1.0,62,100.0
424,F1,94.0,1.0,62,100.0
425,G4,95.0,0.5,72,100.0
426,E-5,95.0,0.5,72,100.0
427,B-4,95.0,0.5,72,100.0
428,E-4,95.0,0.5,72,100.0
429,G2,95.0,1.0,62,100.0
430,G1,95.0,1.0,62,100.0
431,D4,95.5,0.5,72,100.0
432,D5,95.5,0.5,72,100.0
433,F4,96.0,0.5,66,100.0
434,C5,96.0,0.5,66,100.0
435,A4,96.0,0.5,66,100.0
436,C4,96.0,0.5,66,100.0
437,A2,96.0,0.5,57,100.0
438,A1,96.0,0.5,57,100.0
439,D4,96.5,0.5,64,100.0
440,B-4,96.5,0.5,64,100.0
441,F4,96.5,0.5,64,100.0
442,B-2,96.5,0.5,52,100.0
443,B-1,96.5,0.5,52,100.0
444,F4,97.0,1.0,73,100.0
445,C4,97.0,1.0,73,100.0
446,C5,97.0,1.0,73,100.0
447,A2,97.0,1.0,59,100.0
448,A1,97.0,1.0,59,100.0
449,F4,98.0,1.0,75,100.0
450,D4,98.0,1.0,75,100.0
451,D5,98.0,1.0,75,100.0
452,B-1,98.0,1.0,61,100.0
453,B-2,98.0,1.0,61,100.0
454,A4,99.0,1.0,76,100.0
455,F5,99.0,1.0,76,100.0
456,C5,99.0,1.0,76,100.0
457,F4,99.0,1.0,76,100.0
458,A2,99.0,1.0,61,100.0
459,A1,99.0,1.0,61,100.0
460,G4,100.0,0.5,80,100.0
461,G5,100.0,0.5,80,100.0
462,E-5,100.0,0.5,80,100.0
463,B-4,100.0,0.5,80,100.0
464,G2,100.0,1.0,58,100.0
465,G1,100.0,1.0,58,100.0
466,B-5,100.5,0.5,76,100.0
467,B-4,100.5,0.5,76,100.0
468,F4,101.0,0.938,81,100.0
469,F5,101.0,0.938,81,100.0
470,F1,101.0,0.938,61,100.0
471,F2,101.0,0.938,61,100.0
472,G4,102.0,1.0,85,100.0
473,G5,102.0,1.0,85,100.0
474,G2,102.0,1.0,62,100.0
475,G1,102.0,1.0,62,100.0
476,F5,103.0,1.0,82,100.0
477,F4,103.0,1.0,82,100.0
478,F2,103.0,1.0,62,100.0
479,F1,103.0,1.0,62,100.0
480,B-4,104.0,0.5,71,100.0
481,E-4,104.0,0.5,71,100.0
482,G4,104.0,0.5,71,100.0
483,E-5,104.0,0.5,71,100.0
484,G1,104.0,1.0,58,100.0
485,G2,104.0,1.0,58,100.0
486,D5,104.5,0.5,66,100.0
487,D4,104.5,0.5,66,100.0
488,C4,105.0,0.5,65,100.0
489,C5,105.0,0.5,65,100.0
490,F4,105.0,0.5,65,100.0
491,A4,105.0,0.5,65,100.0
492,A2,105.0,0.5,57,100.0
493,A1,105.0,0.5,57,100.0
494,B-4,105.5,0.5,64,100.0
495,D4,105.5,0.5,64,100.0
496,F4,105.5,0.5,64,100.0
497,B-2,105.5,0.5,50,100.0
498,B-1,105.5,0.5,50,100.0
499,C5,106.0,1.0,67,100.0
500,C4,106.0,1.0,67,100.0
501,F4,106.0,1.0,67,100.0
502,A2,106.0,1.0,57,100.0
503,A1,106.0,1.0,57,100.0
504,D5,107.0,1.0,81,100.0
505,F4,107.0,1.0,81,100.0
506,D4,107.0,1.0,81,100.0
507,B-1,107.0,1.0,62,100.0
508,B-2,107.0,1.0,62,100.0
509,C5,108.0,1.0,78,100.0
510,F5,108.0,1.0,78,100.0
511,A4,108.0,1.0,78,100.0
512,F4,108.0,1.0,78,100.0
513,A1,108.0,1.0,62,100.0
514,A2,108.0,1.0,62,100.0
515,E-5,109.0,0.5,80,100.0
516,G4,109.0,0.5,80,100.0
517,B-4,109.0,0.5,80,100.0
518,G5,109.0,0.5,80,100.0
519,G1,109.0,1.0,64,100.0
520,G2,109.0,1.0,64,100.0
521,B-5,109.5,0.5,76,100.0
522,B-4,109.5,0.5,76,100.0
523,F4,110.0,0.938,81,100.0
524,F5,110.0,0.938,81,100.0
525,F1,110.0,0.938,61,100.0
526,F2,110.0,0.938,61,100.0
527,G4,111.0,1.0,84,100.0
528,G5,111.0,1.0,84,100.0
529,G2,111.0,1.0,64,100.0
530,G1,111.0,1.0,64,100.0
531,F5,112.0,979/1000,81,100.0
532,F4,112.0,979/1000,81,100.0
533,F1,112.0,979/1000,61,100.0
534,F2,112.0,979/1000,61,100.0
535,G4,113.0,1.0,93,100.0
536,G3,113.0,1.0,69,100.0
537,F4,114.0,1.0,90,100.0
538,F3,114.0,1.0,68,100.0
539,C5,115.0,0.5,80,100.0
540,G4,115.0,0.5,80,100.0
541,E5,115.0,0.5,80,100.0
542,G5,115.0,0.5,80,100.0
543,C2,115.0,1.0,62,100.0
544,C3,115.0,1.0,62,100.0
545,B-4,115.5,0.5,71,100.0
546,B-5,115.5,0.5,71,100.0
547,F5,116.0,0.938,78,100.0
548,F4,116.0,0.938,78,100.0
549,F1,116.0,0.938,56,100.0
550,F2,116.0,0.938,56,100.0
551,G5,117.0,1.0,85,100.0
552,G4,117.0,1.0,85,100.0
553,G1,117.0,1.0,57,100.0
554,G2,117.0,1.0,57,100.0
555,F5,118.0,0.938,83,100.0
556,F4,118.0,0.938,83,100.0
557,F1,118.0,0.938,62,100.0
558,F2,118.0,0.938,62,100.0
559,B-3,119.0,1.0,79,100.0
560,E-4,119.0,1.0,79,100.0
561,G4,119.0,1.0,79,100.0
562,E-2,119.0,1.0,62,100.0
563,E-3,119.0,1.0,62,100.0
564,A3,120.0,1.0,79,100.0
565,C4,120.0,1.0,79,100.0
566,F4,120.0,1.0,79,100.0
567,F2,120.0,1.0,62,100.0
568,F3,120.0,1.0,62,100.0
569,B-3,121.0,1.0,83,100.0
570,F4,121.0,1.0,83,100.0
571,B-4,121.0,1.0,83,100.0
572,D2,121.0,1.0,61,100.0
573,D3,121.0,1.0,61,100.0
574,C4,122.0,0.5,75,100.0
575,C5,122.0,0.5,75,100.0
576,F4,122.0,0.5,75,100.0
577,A4,122.0,0.5,75,100.0
578,C2,122.0,1.0,62,100.0
579,C3,122.0,1.0,62,100.0
580,F4,122.5,0.5,74,100.0
581,F5,122.5,0.5,74,100.0
582,F4,123.0,1.0,76,100.0
583,D4,123.0,1.0,76,100.0
584,B-4,123.0,1.0,76,100.0
585,D5,123.0,1.0,76,100.0
586,B-2,123.0,1.0,57,100.0
587,B-1,123.0,1.0,57,100.0
588,C4,124.0,0.5,75,100.0
589,C5,124.0,0.5,75,100.0
590,F4,124.0,0.5,75,100.0
591,A4,124.0,0.5,75,100.0
592,A2,124.0,1.0,62,100.0
593,A1,124.0,1.0,62,100.0
594,F5,124.5,0.5,72,100.0
595,F4,124.5,0.5,72,100.0
596,B-4,125.0,1.0,75,100.0
597,D5,125.0,1.0,75,100.0
598,F4,125.0,1.0,75,100.0
599,D4,125.0,1.0,75,100.0
600,G2,125.0,1.0,57,100.0
601,G1,125.0,1.0,57,100.0
602,F4,126.0,1.0,75,100.0
603,B-3,126.0,1.0,75,100.0
604,D4,126.0,1.0,75,100.0
605,B-4,126.0,1.0,75,100.0
606,G3,126.0,1.0,57,100.0
607,G2,126.0,1.0,57,100.0
608,E-4,127.0,1.0,74,100.0
609,C5,127.0,1.0,74,100.0
610,G4,127.0,1.0,74,100.0
611,C4,127.0,1.0,74,100.0
612,C3,127.0,1.0,59,100.0
613,C2,127.0,1.0,59,100.0
614,G3,128.0,1.0,69,100.0
615,G4,128.0,1.0,69,100.0
616,C4,128.0,1.0,69,100.0
617,E4,128.0,1.0,69,100.0
618,E2,128.0,1.0,54,100.0
619,E3,128.0,1.0,54,100.0
620,A3,129.0,0.938,70,100.0
621,C4,129.0,0.938,70,100.0
622,F4,129.0,0.938,70,100.0
623,F3,129.0,0.938,52,100.0
624,F2,129.0,0.938,52,100.0
625,G3,130.0,1.0,83,100.0
626,D4,130.0,1.0,83,100.0
627,G4,130.0,1.0,83,100.0
628,B-2,130.0,1.0,64,100.0
629,B-1,130.0,1.0,64,100.0
630,A3,131.0,1.0,82,100.0
631,C4,131.0,1.0,82,100.0
632,F4,131.0,1.0,82,100.0
633,A2,131.0,1.0,61,100.0
634,A1,131.0,1.0,61,100.0
635,B-3,132.0,1.0,82,100.0
636,B-4,132.0,1.0,82,100.0
637,F4,132.0,1.0,82,100.0
638,G2,132.0,1.0,62,100.0
639,G1,132.0,1.0,62,100.0
640,F4,133.0,0.5,75,100.0
641,A4,133.0,0.5,75,100.0
642,C4,133.0,0.5,75,100.0
643,C5,133.0,0.5,75,100.0
644,F2,133.0,1.0,62,100.0
645,F1,133.0,1.0,62,100.0
646,F5,133.5,0.5,72,100.0
647,F4,133.5,0.5,72,100.0
648,B-4,134.0,1.0,75,100.0
649,D5,134.0,1.0,75,100.0
650,F4,134.0,1.0,75,100.0
651,D4,134.0,1.0,75,100.0
652,B-2,134.0,1.0,59,100.0
653,B-1,134.0,1.0,59,100.0
654,D4,135.0,1.0,80,100.0
655,B-3,135.0,1.0,80,100.0
656,B-4,135.0,1.0,80,100.0
657,G4,135.0,1.0,80,100.0
658,G3,135.0,1.0,62,100.0
659,G2,135.0,1.0,62,100.0
660,G4,136.0,1.0,82,100.0
661,E-5,136.0,1.0,82,100.0
662,C5,136.0,1.0,82,100.0
663,E-4,136.0,1.0,82,100.0
664,C3,136.0,1.0,59,100.0
665,C2,136.0,1.0,59,100.0
666,C4,137.0,1.0,75,100.0
667,C5,137.0,1.0,75,100.0
668,F4,137.0,1.0,75,100.0
669,A4,137.0,1.0,75,100.0
670,F3,137.0,1.0,56,100.0
671,F2,137.0,1.0,56,100.0
672,B-4,138.0,1.0,77,100.0
673,D4,138.0,1.0,77,100.0
674,F4,138.0,1.0,77,100.0
675,B-3,138.0,1.0,57,100.0
676,B-2,138.0,1.0,57,100.0
677,B3,139.0,73/250,92,100.0
678,B2,139.0,73/250,80,100.0
679,E-3,139.25,73/250,83,100.0
680,E-2,139.25,73/250,75,100.0
681,D3,139.5,73/250,74,100.0
682,D2,139.5,73/250,70,100.0
683,B3,139.75,73/250,87,100.0
684,B2,139.75,73/250,76,100.0
685,B-3,140.0,73/250,85,100.0
686,B-2,140.0,73/250,74,100.0
687,D3,140.25,0.25,81,100.0
688,D2,140.25,0.25,70,100.0
689,F#3,140.5,1.5,91,100.0
690,D3,140.5,21/500,81,100.0
691,F#2,140.5,1.5,80,100.0
692,D2,140.5,21/500,70,100.0
693,F#3,142.0,1.25,91,100.0
694,F#2,142.0,1.25,80,100.0
695,B3,143.5,73/250,55,100.0
696,B2,143.5,73/250,48,100.0
697,E-3,143.75,73/250,49,100.0
698,E-2,143.75,73/250,45,100.0
699,D3,144.0,73/250,44,100.0
700,D2,144.0,73/250,37,100.0
701,B3,144.25,73/250,52,100.0
702,B2,144.25,73/250,45,100.0
703,B-3,144.5,73/250,50,100.0
704,B-2,144.5,73/250,44,100.0
705,D3,144.75,0.25,44,100.0
706,D2,144.75,0.25,37,100.0
707,F#3,145.0,1.5,50,100.0
708,D3,145.0,21/500,44,100.0
709,F#2,145.0,1.5,43,100.0
710,D2,145.0,21/500,37,100.0
711,F#3,146.5,1.25,50,100.0
712,F#2,146.5,1.25,43,100.0
713,B3,148.0,73/250,92,100.0
714,B2,148.0,73/250,80,100.0
715,E-3,148.25,73/250,83,100.0
716,E-2,148.25,73/250,75,100.0
717,D3,148.5,73/250,73,100.0
718,D2,148.5,73/250,65,100.0
719,B3,148.75,73/250,87,100.0
720,B2,148.75,73/250,76,100.0
721,B-3,149.0,73/250,80,100.0
722,B-2,149.0,73/250,72,100.0
723,C#3,149.25,0.25,74,100.0
724,C#2,149.25,0.25,63,100.0
725,E3,149.5,0.25,88,100.0
726,C#3,149.5,21/500,74,100.0
727,E2,149.5,0.25,80,100.0
728,C#2,149.5,21/500,63,100.0
729,B-3,150.0,0.25,77,100.0
730,B-2,150.0,0.25,69,100.0
731,B2,150.25,0.25,74,100.0
732,B1,150.25,0.25,63,100.0
733,E-3,150.5,0.25,80,100.0
734,E-2,150.5,0.25,69,100.0
735,B-3,151.0,0.25,78,100.0
736,B-2,151.0,0.25,70,100.0
737,B-2,151.25,0.25,75,100.0
738,B-1,151.25,0.25,67,100.0
739,D3,151.5,0.375,89,100.0
740,D2,151.5,0.375,72,100.0
741,B-2,152.0,0.25,85,100.0
742,B-1,152.0,0.25,73,100.0
743,B-2,152.5,0.375,91,100.0
744,B-3,152.5,0.375,95,100.0
745,B-4,152.5,0.375,95,100.0
746,B-4,153.0,0.5,94,100.0
747,B-6,153.0,0.5,102,100.0
748,B-5,153.0,0.5,102,100.0
749,B3,154.0,73/250,92,100.0
750,B2,154.0,73/250,80,100.0
751,E-3,154.25,73/250,83,100.0
752,E-2,154.25,73/250,75,100.0
753,D3,154.5,73/250,76,100.0
754,D2,154.5,73/250,66,100.0
755,B3,154.75,73/250,87,100.0
756,B2,154.75,73/250,76,100.0
757,B-3,155.0,73/250,81,100.0
758,B-2,155.0,73/250,73,100.0
759,D3,155.25,0.25,78,100.0
760,D2,155.25,0.25,70,100.0
761,F#3,155.5,1.5,91,100.0
762,D3,155.5,21/500,78,100.0
763,F#2,155.5,1.5,80,100.0
764,D2,155.5,21/500,70,100.0
765,F#3,157.0,1.25,91,100.0
766,F#2,157.0,1.25,80,100.0
767,B3,158.5,73/250,92,100.0
768,B2,158.5,73/250,80,100.0
769,E-3,158.75,73/250,83,100.0
770,E-2,158.75,73/250,75,100.0
771,D3,159.0,73/250,75,100.0
772,D2,159.0,73/250,67,100.0
773,B3,159.25,73/250,85,100.0
774,B2,159.25,73/250,76,100.0
775,B-3,159.5,73/250,83,100.0
776,B-2,159.5,73/250,74,100.0
777,C#3,159.75,0.25,75,100.0
778,C#2,159.75,0.25,66,100.0
779,E3,160.0,0.25,88,100.0
780,C#3,160.0,21/500,75,100.0
781,E2,160.0,0.25,80,100.0
782,C#2,160.0,21/500,66,100.0
783,B-3,160.5,0.25,77,100.0
784,B-2,160.5,0.25,69,100.0
785,B2,160.75,0.25,74,100.0
786,B1,160.75,0.25,63,100.0
787,E-3,161.0,0.25,80,100.0
788,E-2,161.0,0.25,69,100.0
789,B-3,161.5,0.25,78,100.0
790,B-2,161.5,0.25,70,100.0
791,B-2,161.75,0.25,75,100.0
792,B-1,161.75,0.25,67,100.0
793,D3,162.0,0.375,87,100.0
794,D2,162.0,0.375,76,100.0
795,B-2,162.5,0.25,85,100.0
796,B-1,162.5,0.25,73,100.0
797,B-2,163.0,0.375,86,100.0
798,B-3,163.0,0.375,99,100.0
799,B-4,163.0,0.375,99,100.0
800,B-3,163.5,0.375,81,100.0
801,B-5,163.5,0.375,94,100.0
802,B-4,163.5,0.375,94,100.0
803,B-4,164.0,0.5,89,100.0
804,B-6,164.0,0.5,102,100.0
805,B-5,164.0,0.5,102,100.0
806,E-1,165.75,0.25,60,100.0
807,E-2,166.0,0.375,60,100.0
808,F6,166.0,0.375,71,100.0
809,B-5,166.0,0.375,71,100.0
810,F#5,166.0,0.375,71,100.0
811,E-2,166.5,1.0,57,100.0
812,E-6,166.5,1.0,65,100.0
813,B-5,166.5,1.0,65,100.0
814,F#5,166.5,1.0,65,100.0
815,E-2,167.5,1.5,57,100.0
816,E-6,167.5,0.75,65,100.0
817,B-5,167.5,0.75,65,100.0
818,F#5,167.5,0.75,65,100.0
819,A2,169.0,1.5,61,100.0
820,C#6,169.0,0.375,67,100.0
821,F#5,169.0,0.375,67,100.0
822,E-5,169.0,0.375,67,100.0
823,E-5,169.5,0.75,64,100.0
824,F#5,169.5,0.75,64,100.0
825,C6,169.5,0.75,64,100.0
826,F#3,170.5,1.25,55,100.0
827,B4,170.5,0.375,66,100.0
828,E-5,170.5,0.375,66,100.0
829,G#5,170.5,0.375,66,100.0
830,B4,171.0,0.75,63,100.0
831,E-5,171.0,0.75,63,100.0
832,F#5,171.0,0.75,63,100.0
833,E-1,171.75,0.25,49,100.0
834,E-2,172.0,0.375,55,100.0
835,F#4,172.0,0.375,62,100.0
836,B-4,172.0,0.375,62,100.0
837,F5,172.0,0.375,62,100.0
838,E-2,172.5,1.0,53,100.0
839,F#4,172.5,1.0,60,100.0
840,B-4,172.5,1.0,60,100.0
841,E-5,172.5,1.0,60,100.0
842,E-2,173.5,0.75,53,100.0
843,F#4,173.5,0.75,60,100.0
844,B-4,173.5,0.75,60,100.0
845,E-5,173.5,0.75,60,100.0
846,A2,175.0,1.5,56,100.0
847,E-4,175.0,0.375,59,100.0
848,F#4,175.0,0.375,59,100.0
849,C#5,175.0,0.375,59,100.0
850,E-4,175.5,0.75,54,100.0
851,F#4,175.5,0.75,54,100.0
852,C5,175.5,0.75,54,100.0
853,F#3,176.5,1.5,53,100.0
854,B3,176.5,0.375,54,100.0
855,E-4,176.5,0.375,54,100.0
856,G#4,176.5,0.375,54,100.0
857,B3,177.0,0.75,49,100.0
858,E-4,177.0,0.75,49,100.0
859,F#4,177.0,0.75,49,100.0
860,B3,178.375,0.125,72,100.0
861,B2,178.375,0.125,59,100.0
862,B-3,178.5,0.25,100,100.0
863,B-2,178.5,0.25,88,100.0
864,B2,178.875,0.125,69,100.0
865,B1,178.875,0.125,53,100.0
866,B-2,179.0,0.25,94,100.0
867,B-1,179.0,0.25,84,100.0
868,E-1,180.75,0.25,49,100.0
869,E-2,181.0,0.375,49,100.0
870,F6,181.0,0.375,57,100.0
871,B-5,181.0,0.375,57,100.0
872,F#5,181.0,0.375,57,100.0
873,E-2,181.5,1.0,46,100.0
874,E-6,181.5,1.0,53,100.0
875,B-5,181.5,1.0,53,100.0
876,F#5,181.5,1.0,53,100.0
877,E-2,182.5,1.5,46,100.0
878,E-6,182.5,0.75,53,100.0
879,B-5,182.5,0.75,53,100.0
880,F#5,182.5,0.75,53,100.0
881,A2,184.0,1.5,50,100.0
882,C#6,184.0,0.375,55,100.0
883,F#5,184.0,0.375,55,100.0
884,E-5,184.0,0.375,55,100.0
885,E-5,184.5,0.75,52,100.0
886,F#5,184.5,0.75,52,100.0
887,C6,184.5,0.75,52,100.0
888,F#3,185.5,1.25,45,100.0
889,B4,185.5,0.375,54,100.0
890,E-5,185.5,0.375,54,100.0
891,G#5,185.5,0.375,54,100.0
892,B4,186.0,0.75,51,100.0
893,E-5,186.0,0.75,51,100.0
894,F#5,186.0,0.75,51,100.0
895,E-1,186.75,0.25,40,100.0
896,E-2,187.0,0.375,45,100.0
897,F#4,187.0,0.375,50,100.0
898,B-4,187.0,0.375,50,100.0
899,F5,187.0,0.375,50,100.0
900,E-2,187.5,1.0,44,100.0
901,F#4,187.5,1.0,48,100.0
902,B-4,187.5,1.0,48,100.0
903,E-5,187.5,1.0,48,100.0
904,E-2,188.5,0.75,44,100.0
905,F#4,188.5,0.75,48,100.0
906,B-4,188.5,0.75,48,100.0
907,E-5,188.5,0.75,48,100.0
908,A2,190.0,1.5,45,100.0
909,E-4,190.0,0.375,48,100.0
910,F#4,190.0,0.375,48,100.0
911,C#5,190.0,0.375,48,100.0
912,E-4,190.5,0.75,44,100.0
913,F#4,190.5,0.75,44,100.0
914,C5,190.5,0.75,44,100.0
915,F#3,191.5,1.5,44,100.0
916,B3,191.5,0.375,45,100.0
917,E-4,191.5,0.375,45,100.0
918,G#4,191.5,0.375,45,100.0
919,B3,192.0,0.75,40,100.0
920,E-4,192.0,0.75,40,100.0
921,F#4,192.0,0.75,40,100.0
922,B3,193.375,0.125,66,100.0
923,B2,193.375,0.125,54,100.0
924,B-3,193.5,0.25,90,100.0
925,B-2,193.5,0.25,76,100.0
926,B2,193.875,0.125,63,100.0
927,B1,193.875,0.125,49,100.0
928,B-2,194.0,0.25,84,100.0
929,B-1,194.0,0.25,68,100.0
930,B3,196.0,73/250,92,100.0
931,B2,196.0,73/250,80,100.0
932,E-3,196.25,73/250,83,100.0
933,E-2,196.25,73/250,75,100.0
934,D3,196.5,73/250,75,100.0
935,D2,196.5,73/250,67,100.0
936,B3,196.75,73/250,86,100.0
937,B2,196.75,73/250,75,100.0
938,B-3,197.0,73/250,82,100.0
939,B-2,197.0,73/250,72,100.0
940,D3,197.25,0.25,76,100.0
941,D2,197.25,0.25,69,100.0
942,F#3,197.5,0.875,91,100.0
943,D3,197.5,21/500,76,100.0
944,F#2,197.5,0.875,80,100.0
945,D2,197.5,21/500,69,100.0
946,B2,198.375,0.125,80,100.0
947,B1,198.375,0.125,69,100.0
948,B-2,198.5,0.375,105,100.0
949,B-1,198.5,0.375,91,100.0
950,B3,200.5,73/250,92,100.0
951,B2,200.5,73/250,80,100.0
952,E-3,200.75,73/250,83,100.0
953,E-2,200.75,73/250,75,100.0
954,D3,201.0,73/250,76,100.0
955,D2,201.0,73/250,69,100.0
956,B3,201.25,73/250,84,100.0
957,B2,201.25,73/250,74,100.0
958,B-3,201.5,73/250,82,100.0
959,B-2,201.5,73/250,70,100.0
960,C#3,201.75,0.25,73,100.0
961,C#2,201.75,0.25,67,100.0
962,E3,202.0,0.25,88,100.0
963,C#3,202.0,21/500,73,100.0
964,E2,202.0,0.25,80,100.0
965,C#2,202.0,21/500,67,100.0
966,B-3,202.5,0.25,77,100.0
967,B-2,202.5,0.25,69,100.0
968,B2,202.75,0.25,74,100.0
969,B1,202.75,0.25,63,100.0
970,E-3,203.0,0.25,80,100.0
971,E-2,203.0,0.25,69,100.0
972,B-3,203.5,0.25,78,100.0
973,B-2,203.5,0.25,70,100.0
974,B-2,203.75,0.25,75,100.0
975,B-1,203.75,0.25,67,100.0
976,D3,204.0,0.5,81,100.0
977,D2,204.0,0.5,72,100.0
978,B-2,204.5,0.25,85,100.0
979,B-1,204.5,0.25,73,100.0
980,B3,205.375,0.125,78,100.0
981,B2,205.375,0.125,58,100.0
982,B-3,205.5,0.25,102,100.0
983,B-2,205.5,0.25,83,100.0
984,B2,205.875,0.125,84,100.0
985,B1,205.875,0.125,59,100.0
986,B-2,206.0,0.25,104,100.0
987,B-1,206.0,0.25,82,100.0
988,B2,206.5,1.5,109,100.0
989,B1,206.5,1.5,92,100.0
990,B-2,208.0,0.5,94,100.0
991,B-1,208.0,0.5,72,100.0
992,E-3,209.5,2.0,58,100.0
993,E-1,209.5,2.0,54,100.0
994,E-2,209.5,2.0,54,100.0
995,A3,211.5,2.0,52,100.0
996,A4,211.5,2.0,52,100.0
997,A1,211.5,2.0,48,100.0
998,A2,211.5,2.0,48,100.0
999,E-3,213.5,2.0,58,100.0
1000,E-1,213.5,2.0,48,100.0
1001,E-2,213.5,2.0,48,100.0
1002,B-3,215.5,2.0,52,100.0
1003,B-4,215.5,2.0,52,100.0
1004,B-1,215.5,2.0,50,100.0
1005,B-2,215.5,2.0,50,100.0
1006,E-3,217.5,2.0,58,100.0
1007,E-1,217.5,2.0,47,100.0
1008,E-2,217.5,2.0,47,100.0
1009,E-4,219.5,1.0,56,100.0
1010,E-5,219.5,1.0,56,100.0
1011,C2,219.5,1.0,48,100.0
1012,C3,219.5,1.0,48,100.0
1013,D4,220.5,1.0,54,100.0
1014,D5,220.5,1.0,54,100.0
1015,B1,220.5,1.0,45,100.0
1016,B2,220.5,1.0,45,100.0
1017,E4,221.5,2.0,56,100.0
1018,E5,221.5,2.0,56,100.0
1019,C#2,221.5,2.0,49,100.0
1020,C#3,221.5,2.0,49,100.0
1021,E-4,223.5,2.0,52,100.0
1022,E-5,223.5,2.0,52,100.0
1023,C2,223.5,2.0,43,100.0
1024,C3,223.5,2.0,43,100.0
1025,E-3,225.5,1.0,58,100.0
1026,E-1,225.5,1.0,47,100.0
1027,E-2,225.5,1.0,47,100.0
1028,E-4,226.5,1.0,56,100.0
1029,E-5,226.5,1.0,56,100.0
1030,C2,226.5,1.0,48,100.0
1031,C3,226.5,1.0,48,100.0
1032,D4,227.5,1.0,52,100.0
1033,D5,227.5,1.0,52,100.0
1034,B1,227.5,1.0,37,100.0
1035,B2,227.5,1.0,37,100.0
1036,F#4,228.5,1.0,56,100.0
1037,F#5,228.5,1.0,56,100.0
1038,E-2,228.5,1.0,44,100.0
1039,E-3,228.5,1.0,44,100.0
1040,F4,229.5,1.0,52,100.0
1041,F5,229.5,1.0,52,100.0
1042,D2,229.5,1.0,40,100.0
1043,D3,229.5,1.0,40,100.0
1044,B-3,230.5,1.0,48,100.0
1045,B-4,230.5,1.0,48,100.0
1046,F#1,230.5,1.0,38,100.0
1047,F#2,230.5,1.0,38,100.0
1048,F4,231.5,2.0,52,100.0
1049,F5,231.5,2.0,52,100.0
1050,D2,231.5,2.0,42,100.0
1051,D3,231.5,2.0,42,100.0
1052,F#4,233.5,1.0,54,100.0
1053,F#5,233.5,1.0,54,100.0
1054,E-2,233.5,1.0,42,100.0
1055,E-3,233.5,1.0,42,100.0
1056,F4,234.5,1.0,46,100.0
1057,F5,234.5,1.0,46,100.0
1058,D2,234.5,1.0,31,100.0
1059,D3,234.5,1.0,31,100.0
1060,B-3,235.5,1.0,50,100.0
1061,B-4,235.5,1.0,50,100.0
1062,F#1,235.5,1.0,35,100.0
1063,F#2,235.5,1.0,35,100.0
1064,F#4,236.5,1.0,42,100.0
1065,F#5,236.5,1.0,42,100.0
1066,D2,236.5,1.0,28,100.0
1067,D3,236.5,1.0,28,100.0
1068,B3,237.5,73/250,92,100.0
1069,B2,237.5,73/250,80,100.0
1070,E-3,237.75,73/250,83,100.0
1071,E-2,237.75,73/250,75,100.0
1072,D3,238.0,73/250,76,100.0
1073,D2,238.0,73/250,69,100.0
1074,B3,238.25,73/250,87,100.0
1075,B2,238.25,73/250,76,100.0
1076,B-3,238.5,73/250,85,100.0
1077,B-2,238.5,73/250,74,100.0
1078,D3,238.75,0.25,81,100.0
1079,D2,238.75,0.25,70,100.0
1080,F#3,239.0,0.5,91,100.0
1081,D3,239.0,21/500,81,100.0
1082,F#2,239.0,0.5,80,100.0
1083,D2,239.0,21/500,70,100.0
1084,E-3,240.5,2.0,58,100.0
1085,E-1,240.5,2.0,54,100.0
1086,E-2,240.5,2.0,54,100.0
1087,A3,242.5,2.0,52,100.0
1088,A4,242.5,2.0,52,100.0
1089,A1,242.5,2.0,48,100.0
1090,A2,242.5,2.0,48,100.0
1091,E-3,244.5,2.0,58,100.0
1092,E-1,244.5,2.0,48,100.0
1093,E-2,244.5,2.0,48,100.0
1094,B-3,246.5,2.0,52,100.0
1095,B-4,246.5,2.0,52,100.0
1096,B-1,246.5,2.0,50,100.0
1097,B-2,246.5,2.0,50,100.0
1098,E-3,248.5,2.0,58,100.0
1099,E-1,248.5,2.0,47,100.0
1100,E-2,248.5,2.0,47,100.0
1101,F4,250.5,1.0,56,100.0
1102,F5,250.5,1.0,56,100.0
1103,C#2,250.5,1.0,48,100.0
1104,C#3,250.5,1.0,48,100.0
1105,E4,251.5,1.0,54,100.0
1106,E5,251.5,1.0,54,100.0
1107,C2,251.5,1.0,45,100.0
1108,C3,251.5,1.0,45,100.0
1109,G#4,252.5,2.0,56,100.0
1110,G#5,252.5,2.0,56,100.0
1111,E2,252.5,2.0,49,100.0
1112,E3,252.5,2.0,49,100.0
1113,G4,254.5,2.0,50,100.0
1114,G5,254.5,2.0,50,100.0
1115,E-2,254.5,2.0,42,100.0
1116,E-3,254.5,2.0,42,100.0
1117,E-3,256.5,1.0,58,100.0
1118,E-1,256.5,1.0,47,100.0
1119,E-2,256.5,1.0,47,100.0
1120,F4,257.5,1.0,56,100.0
1121,F5,257.5,1.0,56,100.0
1122,C#2,257.5,1.0,48,100.0
1123,C#3,257.5,1.0,48,100.0
1124,E4,258.5,1.0,58,100.0
1125,E5,258.5,1.0,58,100.0
1126,C2,258.5,1.0,37,100.0
1127,C3,258.5,1.0,37,100.0
1128,G#4,259.5,1.0,56,100.0
1129,G#5,259.5,1.0,56,100.0
1130,E2,259.5,1.0,44,100.0
1131,E3,259.5,1.0,44,100.0
1132,G4,260.5,1.0,52,100.0
1133,G5,260.5,1.0,52,100.0
1134,E-2,260.5,1.0,40,100.0
1135,E-3,260.5,1.0,40,100.0
1136,C#4,261.5,1.0,48,100.0
1137,C#5,261.5,1.0,48,100.0
1138,A1,261.5,1.0,35,100.0
1139,A2,261.5,1.0,35,100.0
1140,G4,262.5,2.0,52,100.0
1141,G5,262.5,2.0,52,100.0
1142,E-2,262.5,2.0,42,100.0
1143,E-3,262.5,2.0,42,100.0
1144,G#4,264.5,1.0,54,100.0
1145,G#5,264.5,1.0,54,100.0
1146,E2,264.5,1.0,42,100.0
1147,E3,264.5,1.0,42,100.0
1148,G4,265.5,1.0,46,100.0
1149,G5,265.5,1.0,46,100.0
1150,E-2,265.5,1.0,31,100.0
1151,E-3,265.5,1.0,31,100.0
1152,C#4,266.5,1.0,50,100.0
1153,C#5,266.5,1.0,50,100.0
1154,A1,266.5,1.0,35,100.0
1155,A2,266.5,1.0,35,100.0
1156,G4,267.5,1.0,42,100.0
1157,G5,267.5,1.0,42,100.0
1158,E-2,267.5,1.0,28,100.0
1159,E-3,267.5,1.0,28,100.0
1160,E4,268.5,73/250,92,100.0
1161,E3,268.5,73/250,80,100.0
1162,G#3,268.75,73/250,83,100.0
1163,G#2,268.75,73/250,75,100.0
1164,G3,269.0,73/250,79,100.0
1165,G2,269.0,73/250,71,100.0
1166,E4,269.25,73/250,87,100.0
1167,E3,269.25,73/250,76,100.0
1168,E-4,269.5,73/250,85,100.0
1169,E-3,269.5,73/250,74,100.0
1170,G3,269.75,0.25,81,100.0
1171,G2,269.75,0.25,70,100.0
1172,B3,270.0,0.5,91,100.0
1173,G3,270.0,21/500,81,100.0
1174,B2,270.0,0.5,80,100.0
1175,G2,270.0,21/500,70,100.0
1176,G#3,271.5,2.0,58,100.0
1177,G#1,271.5,2.0,54,100.0
1178,G#2,271.5,2.0,54,100.0
1179,D4,273.5,2.0,52,100.0
1180,D5,273.5,2.0,52,100.0
1181,D2,273.5,2.0,48,100.0
1182,D3,273.5,2.0,48,100.0
1183,G#3,275.5,2.0,58,100.0
1184,G#1,275.5,2.0,48,100.0
1185,G#2,275.5,2.0,48,100.0
1186,E-4,277.5,2.0,52,100.0
1187,E-5,277.5,2.0,52,100.0
1188,E-2,277.5,2.0,50,100.0
1189,E-3,277.5,2.0,50,100.0
1190,B4,279.5,73/250,87,100.0
1191,B3,279.5,73/250,76,100.0
1192,E-4,279.75,73/250,78,100.0
1193,E-3,279.75,73/250,71,100.0
1194,D4,280.0,73/250,75,100.0
1195,D3,280.0,73/250,67,100.0
1196,B4,280.25,73/250,82,100.0
1197,B3,280.25,73/250,72,100.0
1198,B-4,280.5,73/250,80,100.0
1199,B-3,280.5,73/250,70,100.0
1200,E-4,280.75,0.25,76,100.0
1201,E-3,280.75,0.25,66,100.0
1202,F#4,281.0,0.5,86,100.0
1203,E-4,281.0,21/500,76,100.0
1204,F#3,281.0,0.5,76,100.0
1205,E-3,281.0,21/500,66,100.0
1206,E-4,282.375,0.125,78,100.0
1207,E-5,282.375,0.125,78,100.0
1208,E-2,282.375,0.125,66,100.0
1209,E-3,282.375,0.125,66,100.0
1210,E-5,282.5,2.0,92,100.0
1211,E-6,282.5,2.0,92,100.0
1212,E-1,282.5,1.0,76,100.0
1213,E-2,282.5,1.0,76,100.0
1214,D5,284.5,1.0,82,100.0
1215,D6,284.5,1.0,82,100.0
1216,E-4,284.5,2.0,76,100.0
1217,E-3,284.5,2.0,76,100.0
1218,F#5,285.5,1.0,74,100.0
1219,F#6,285.5,1.0,74,100.0
1220,F5,286.5,1.0,86,100.0
1221,F6,286.5,1.0,86,100.0
1222,D3,286.5,2.0,71,100.0
1223,D4,286.5,2.0,71,100.0
1224,B-4,287.5,1.0,73,100.0
1225,B-5,287.5,1.0,73,100.0
1226,E5,288.5,2.0,81,100.0
1227,E6,288.5,2.0,81,100.0
1228,C#3,288.5,2.0,69,100.0
1229,C#4,288.5,2.0,69,100.0
1230,E-5,290.5,2.0,86,100.0
1231,E-6,290.5,2.0,86,100.0
1232,C3,290.5,2.0,71,100.0
1233,C4,290.5,2.0,71,100.0
1234,D5,292.5,1.0,85,100.0
1235,D6,292.5,1.0,85,100.0
1236,B3,292.5,2.0,69,100.0
1237,B2,292.5,2.0,69,100.0
1238,G#4,293.5,1.0,72,100.0
1239,G#5,293.5,1.0,72,100.0
1240,C#5,294.5,1.0,85,100.0
1241,C#6,294.5,1.0,85,100.0
1242,B-2,294.5,2.0,69,100.0
1243,B-3,294.5,2.0,69,100.0
1244,F#4,295.5,1.0,71,100.0
1245,F#5,295.5,1.0,71,100.0
1246,C5,296.5,2.0,78,100.0
1247,C6,296.5,2.0,78,100.0
1248,A2,296.5,2.0,68,100.0
1249,A3,296.5,2.0,68,100.0
1250,B4,298.5,2.0,83,100.0
1251,B5,298.5,2.0,83,100.0
1252,G#2,298.5,2.0,68,100.0
1253,G#3,298.5,2.0,68,100.0
1254,B-4,300.5,1.0,78,100.0
1255,B-5,300.5,1.0,78,100.0
1256,G3,300.5,2.0,57,100.0
1257,G2,300.5,2.0,57,100.0
1258,E-4,301.5,1.0,66,100.0
1259,E-5,301.5,1.0,66,100.0
1260,A4,302.5,2.0,73,100.0
1261,A5,302.5,2.0,73,100.0
1262,F#2,302.5,2.0,62,100.0
1263,F#3,302.5,2.0,62,100.0
1264,G#4,304.5,1.0,72,100.0
1265,G#5,304.5,1.0,72,100.0
1266,F3,304.5,1.875,56,100.0
1267,F2,304.5,1.875,56,100.0
1268,D4,305.5,0.875,64,100.0
1269,D5,305.5,0.875,64,100.0
1270,E-4,306.375,0.125,72,100.0
1271,E-5,306.375,0.125,72,100.0
1272,E-2,306.375,0.125,71,100.0
1273,E-3,306.375,0.125,71,100.0
1274,E-5,306.5,2.0,83,100.0
1275,E-6,306.5,2.0,83,100.0
1276,E-1,306.5,2.0,82,100.0
1277,E-2,306.5,2.0,82,100.0
1278,D5,308.5,2.0,78,100.0
1279,D6,308.5,2.0,78,100.0
1280,E2,308.5,1.0,76,100.0
1281,E3,308.5,1.0,76,100.0
1282,B2,309.5,1.0,66,100.0
1283,B3,309.5,1.0,66,100.0
1284,C#5,310.5,2.0,78,100.0
1285,C#6,310.5,2.0,78,100.0
1286,B-2,310.5,1.0,72,100.0
1287,B-3,310.5,1.0,72,100.0
1288,E-3,311.5,1.0,63,100.0
1289,E-2,311.5,1.0,63,100.0
1290,B-3,311.5,1.0,63,100.0
1291,C5,312.5,2.0,74,100.0
1292,C6,312.5,2.0,74,100.0
1293,A2,312.5,2.0,70,100.0
1294,A3,312.5,2.0,70,100.0
1295,B4,314.5,2.0,74,100.0
1296,B5,314.5,2.0,74,100.0
1297,G#2,314.5,2.0,78,100.0
1298,G#3,314.5,2.0,78,100.0
1299,B-4,316.5,2.0,68,100.0
1300,B-5,316.5,2.0,68,100.0
1301,G2,316.5,1.0,71,100.0
1302,G3,316.5,1.0,71,100.0
1303,C#2,317.5,1.0,66,100.0
1304,C#3,317.5,1.0,66,100.0
1305,A4,318.5,2.0,69,100.0
1306,A5,318.5,2.0,69,100.0
1307,C2,318.5,1.0,66,100.0
1308,C3,318.5,1.0,66,100.0
1309,F#2,319.5,1.0,61,100.0
1310,F#3,319.5,1.0,61,100.0
1311,G#4,320.5,2.0,64,100.0
1312,G#5,320.5,2.0,64,100.0
1313,F2,320.5,2.0,66,100.0
1314,F3,320.5,2.0,66,100.0
1315,G4,322.5,2.0,64,100.0
1316,G5,322.5,2.0,64,100.0
1317,E2,322.5,1.0,62,100.0
1318,E3,322.5,1.0,62,100.0
1319,B1,323.5,1.0,52,100.0
1320,B2,323.5,1.0,52,100.0
1321,F#4,324.5,2.0,62,100.0
1322,F#5,324.5,2.0,62,100.0
1323,E-2,324.5,2.0,57,100.0
1324,E-3,324.5,2.0,57,100.0
1325,F4,326.5,2.0,59,100.0
1326,F5,326.5,2.0,59,100.0
1327,D2,326.5,1.0,56,100.0
1328,D3,326.5,1.0,56,100.0
1329,B-1,327.5,1.0,48,100.0
1330,B-2,327.5,1.0,48,100.0
1331,E4,328.5,1.0,56,100.0
1332,E5,328.5,1.0,56,100.0
1333,C#2,328.5,1.0,50,100.0
1334,C#3,328.5,1.0,50,100.0
1335,E-2,330.5,167/1000,36,100.0
1336,F2,330.625,167/1000,35,100.0
1337,E-2,330.75,167/1000,39,100.0
1338,F2,330.875,167/1000,35,100.0
1339,E-2,331.0,26/125,36,100.0
1340,F2,331.125,26/125,33,100.0
1341,E-2,331.25,26/125,36,100.0
1342,F2,331.375,26/125,33,100.0
1343,E-2,331.5,0.25,35,100.0
1344,F2,331.625,0.25,31,100.0
1345,E-2,331.75,0.25,35,100.0
1346,F2,331.875,0.125,31,100.0
1347,E-2,332.0,0.25,36,100.0
1348,F2,332.0,0.125,31,100.0
1349,F2,332.125,0.25,31,100.0
1350,E-2,332.25,0.25,38,100.0
1351,F2,332.375,0.25,35,100.0
1352,E-2,332.5,0.25,41,100.0
1353,F2,332.625,0.25,36,100.0
1354,E-2,332.75,0.25,42,100.0
1355,F2,332.875,0.25,37,100.0
1356,E-2,333.0,0.125,37,100.0
1357,E2,333.083,0.125,39,100.0
1358,F2,333.167,0.125,41,100.0
1359,F#2,333.25,0.125,43,100.0
1360,G2,333.333,0.125,45,100.0
1361,G#2,333.417,83/1000,47,100.0
1362,A2,333.5,0.25,55,100.0
1363,G#2,333.5,21/500,47,100.0
1364,B-2,333.625,0.25,49,100.0
1365,A2,333.75,0.25,55,100.0
1366,B-2,333.875,0.25,51,100.0
1367,A2,334.0,0.25,55,100.0
1368,B-2,334.125,0.25,51,100.0
1369,A2,334.25,0.25,55,100.0
1370,B-2,334.375,0.25,50,100.0
1371,A2,334.5,0.25,53,100.0
1372,B-2,334.625,0.25,47,100.0
1373,A2,334.75,0.25,51,100.0
1374,B-2,334.875,0.125,47,100.0
1375,A2,335.0,0.25,52,100.0
1376,B-2,335.0,0.125,47,100.0
1377,B-2,335.125,0.25,45,100.0
1378,A2,335.25,0.25,50,100.0
1379,B-2,335.375,0.25,44,100.0
1380,A2,335.5,0.25,47,100.0
1381,B-2,335.625,0.25,42,100.0
1382,A2,335.75,0.25,46,100.0
1383,B-2,335.875,0.25,44,100.0
1384,A2,336.0,0.125,43,100.0
1385,G#2,336.083,0.125,43,100.0
1386,G2,336.167,0.125,43,100.0
1387,F#2,336.25,0.125,42,100.0
1388,F2,336.333,0.125,42,100.0
1389,E2,336.417,83/1000,42,100.0
1390,E-2,336.5,167/1000,42,100.0
1391,E2,336.5,21/500,42,100.0
1392,F6,336.5,0.5,54,100.0
1393,B-5,336.5,0.5,54,100.0
1394,F#5,336.5,0.5,54,100.0
1395,F2,336.625,167/1000,38,100.0
1396,E-2,336.75,167/1000,41,100.0
1397,F2,336.875,167/1000,35,100.0
1398,E-2,337.0,0.188,39,100.0
1399,E-6,337.0,1.0,54,100.0
1400,F#5,337.0,1.0,54,100.0
1401,B-5,337.0,1.0,54,100.0
1402,F2,337.125,0.188,35,100.0
1403,E-2,337.25,0.188,39,100.0
1404,F2,337.375,0.188,35,100.0
1405,E-2,337.5,26/125,37,100.0
1406,F2,337.625,26/125,31,100.0
1407,E-2,337.75,26/125,36,100.0
1408,F2,337.875,0.125,31,100.0
1409,E-2,338.0,0.25,36,100.0
1410,F2,338.0,83/1000,31,100.0
1411,F2,338.125,0.25,31,100.0
1412,E-2,338.25,0.25,36,100.0
1413,F2,338.375,0.25,31,100.0
1414,E-2,338.5,0.25,37,100.0
1415,F2,338.625,0.25,36,100.0
1416,E-2,338.75,0.25,39,100.0
1417,F2,338.875,0.25,37,100.0
1418,E-2,339.0,0.125,36,100.0
1419,E2,339.083,0.125,38,100.0
1420,F2,339.167,0.125,39,100.0
1421,F#2,339.25,0.125,40,100.0
1422,G2,339.333,0.125,41,100.0
1423,G#2,339.417,83/1000,42,100.0
1424,A2,339.5,0.25,45,100.0
1425,G#2,339.5,21/500,42,100.0
1426,C#6,339.5,0.5,60,100.0
1427,E-5,339.5,0.5,60,100.0
1428,F#5,339.5,0.5,60,100.0
1429,B-2,339.625,0.25,38,100.0
1430,A2,339.75,0.25,45,100.0
1431,B-2,339.875,0.25,42,100.0
1432,A2,340.0,0.25,45,100.0
1433,C6,340.0,0.75,60,100.0
1434,F#5,340.0,0.75,60,100.0
1435,E-5,340.0,0.75,60,100.0
1436,B-2,340.125,0.25,37,100.0
1437,A2,340.25,0.25,44,100.0
1438,B-2,340.375,0.25,37,100.0
1439,A2,340.5,0.25,45,100.0
1440,B-2,340.625,0.25,41,100.0
1441,A2,340.75,0.25,45,100.0
1442,B-2,340.875,0.125,42,100.0
1443,A2,341.0,0.25,48,100.0
1444,B-2,341.0,0.125,42,100.0
1445,B4,341.0,0.5,54,100.0
1446,E-5,341.0,0.5,54,100.0
1447,G#5,341.0,0.5,54,100.0
1448,B-2,341.125,0.25,40,100.0
1449,A2,341.25,0.25,47,100.0
1450,B-2,341.375,0.25,39,100.0
1451,A2,341.5,0.25,46,100.0
1452,B4,341.5,0.75,54,100.0
1453,E-5,341.5,0.75,54,100.0
1454,F#5,341.5,0.75,54,100.0
1455,B-2,341.625,0.25,37,100.0
1456,A2,341.75,0.25,46,100.0
1457,B-2,341.875,0.25,43,100.0
1458,A2,342.0,0.125,46,100.0
1459,G#2,342.083,0.125,45,100.0
1460,G2,342.167,0.125,44,100.0
1461,F#2,342.25,0.125,43,100.0
1462,F2,342.333,0.125,43,100.0
1463,E2,342.417,83/1000,42,100.0
1464,E-2,342.5,167/1000,41,100.0
1465,E2,342.5,21/500,42,100.0
1466,F#4,342.5,0.5,54,100.0
1467,B-4,342.5,0.5,54,100.0
1468,F5,342.5,0.5,54,100.0
1469,F2,342.625,167/1000,38,100.0
1470,E-2,342.75,167/1000,41,100.0
1471,F2,342.875,167/1000,35,100.0
1472,E-2,343.0,0.188,39,100.0
1473,F#4,343.0,1.0,54,100.0
1474,B-4,343.0,1.0,54,100.0
1475,E-5,343.0,1.0,54,100.0
1476,F2,343.125,0.188,35,100.0
1477,E-2,343.25,0.188,39,100.0
1478,F2,343.375,0.188,35,100.0
1479,E-2,343.5,26/125,37,100.0
1480,F2,343.625,26/125,31,100.0
1481,E-2,343.75,26/125,36,100.0
1482,F2,343.875,0.125,31,100.0
1483,E-2,344.0,0.25,36,100.0
1484,F2,344.0,83/1000,31,100.0
1485,F2,344.125,0.25,31,100.0
1486,E-2,344.25,0.25,36,100.0
1487,F2,344.375,0.25,31,100.0
1488,E-2,344.5,0.25,37,100.0
1489,F2,344.625,0.25,36,100.0
1490,E-2,344.75,0.25,39,100.0
1491,F2,344.875,0.25,37,100.0
1492,E-2,345.0,0.125,36,100.0
1493,E2,345.083,0.125,36,100.0
1494,F2,345.167,0.125,37,100.0
1495,F#2,345.25,0.125,38,100.0
1496,G2,345.333,0.125,39,100.0
1497,G#2,345.417,83/1000,39,100.0
1498,A2,345.5,0.25,43,100.0
1499,G#2,345.5,21/500,39,100.0
1500,F#4,345.5,0.5,54,100.0
1501,E-4,345.5,0.5,54,100.0
1502,C#5,345.5,0.5,54,100.0
1503,B-2,345.625,0.25,36,100.0
1504,A2,345.75,0.25,43,100.0
1505,B-2,345.875,0.25,36,100.0
1506,A2,346.0,0.25,42,100.0
1507,E-4,346.0,0.75,54,100.0
1508,F#4,346.0,0.75,54,100.0
1509,C5,346.0,0.75,54,100.0
1510,B-2,346.125,0.25,37,100.0
1511,A2,346.25,0.25,42,100.0
1512,B-2,346.375,0.25,37,100.0
1513,A2,346.5,0.25,42,100.0
1514,B-2,346.625,0.25,38,100.0
1515,A2,346.75,0.25,41,100.0
1516,B-2,346.875,0.125,36,100.0
1517,A2,347.0,0.25,38,100.0
1518,B-2,347.0,0.125,36,100.0
1519,B3,347.0,0.5,54,100.0
1520,E-4,347.0,0.5,54,100.0
1521,G#4,347.0,0.5,54,100.0
1522,B-2,347.125,0.25,33,100.0
1523,A2,347.25,0.25,40,100.0
1524,B-2,347.375,0.25,35,100.0
1525,A2,347.5,0.25,42,100.0
1526,B3,347.5,0.75,54,100.0
1527,E-4,347.5,0.75,54,100.0
1528,F#4,347.5,0.75,54,100.0
1529,B-2,347.625,0.25,35,100.0
1530,A2,347.75,0.25,44,100.0
1531,B-2,347.875,0.25,38,100.0
1532,A2,348.0,0.125,44,100.0
1533,G#2,348.083,0.125,44,100.0
1534,G2,348.167,0.125,43,100.0
1535,F#2,348.25,0.125,42,100.0
1536,F2,348.333,0.125,41,100.0
1537,E2,348.417,83/1000,41,100.0
1538,E-2,348.5,167/1000,40,100.0
1539,E2,348.5,21/500,41,100.0
1540,F#3,348.5,0.5,54,100.0
1541,B-3,348.5,0.5,54,100.0
1542,F4,348.5,0.5,54,100.0
1543,F2,348.625,167/1000,38,100.0
1544,E-2,348.75,167/1000,41,100.0
1545,F2,348.875,167/1000,35,100.0
1546,E-2,349.0,0.188,39,100.0
1547,F#3,349.0,0.75,54,100.0
1548,B-3,349.0,0.75,54,100.0
1549,E-4,349.0,0.75,54,100.0
1550,F2,349.125,0.188,35,100.0
1551,E-2,349.25,0.188,39,100.0
1552,F2,349.375,0.188,35,100.0
1553,E-2,349.5,26/125,37,100.0
1554,F2,349.625,26/125,31,100.0
1555,E-2,349.75,26/125,36,100.0
1556,F2,349.875,0.125,31,100.0
1557,E-2,350.0,0.25,36,100.0
1558,F2,350.0,83/1000,31,100.0
1559,F2,350.125,0.25,31,100.0
1560,E-2,350.25,0.25,36,100.0
1561,F2,350.375,0.25,31,100.0
1562,E-2,350.5,0.25,37,100.0
1563,F2,350.625,0.25,36,100.0
1564,E-2,350.75,0.25,39,100.0
1565,F2,350.875,0.25,37,100.0
1566,E-2,351.0,0.125,55,100.0
1567,E2,351.083,0.125,56,100.0
1568,F2,351.167,0.125,57,100.0
1569,F#2,351.25,0.125,58,100.0
1570,G2,351.333,0.125,59,100.0
1571,G#2,351.417,83/1000,60,100.0
1572,A2,351.5,167/1000,63,100.0
1573,G#2,351.5,21/500,60,100.0
1574,E-3,351.5,0.5,66,100.0
1575,F#3,351.5,0.5,66,100.0
1576,C#4,351.5,0.5,66,100.0
1577,B-2,351.625,167/1000,55,100.0
1578,A2,351.75,167/1000,63,100.0
1579,B-2,351.875,167/1000,54,100.0
1580,A2,352.0,167/1000,62,100.0
1581,E-3,352.0,0.75,66,100.0
1582,F#3,352.0,0.75,66,100.0
1583,C4,352.0,0.75,66,100.0
1584,B-2,352.125,167/1000,56,100.0
1585,A2,352.25,167/1000,65,100.0
1586,B-2,352.375,167/1000,57,100.0
1587,A2,352.5,167/1000,67,100.0
1588,B-2,352.625,167/1000,60,100.0
1589,A2,352.75,167/1000,67,100.0
1590,B-2,352.875,0.125,58,100.0
1591,A2,353.0,167/1000,61,100.0
1592,B-2,353.0,21/500,58,100.0
1593,B-2,353.125,167/1000,62,100.0
1594,B2,353.25,167/1000,64,100.0
1595,C3,353.375,167/1000,66,100.0
1596,C#3,353.5,167/1000,67,100.0
1597,D3,353.625,167/1000,69,100.0
1598,E-3,353.75,167/1000,71,100.0
1599,F3,353.875,167/1000,73,100.0
1600,F#3,354.0,167/1000,74,100.0
1601,G3,354.125,167/1000,76,100.0
1602,G#3,354.25,0.125,78,100.0
1603,A3,354.375,167/1000,75,100.0
1604,G#3,354.375,21/500,78,100.0
1605,E-4,354.375,0.5,79,100.0
1606,F#4,354.375,0.5,79,100.0
1607,C#5,354.375,0.5,79,100.0
1608,B-3,354.5,167/1000,71,100.0
1609,A3,354.625,167/1000,73,100.0
1610,B-3,354.75,167/1000,70,100.0
1611,A3,354.875,167/1000,75,100.0
1612,E-4,354.875,0.75,76,100.0
1613,F#4,354.875,0.75,76,100.0
1614,C5,354.875,0.75,76,100.0
1615,B-3,355.0,167/1000,71,100.0
1616,A3,355.125,167/1000,76,100.0
1617,B-3,355.25,167/1000,71,100.0
1618,A3,355.375,167/1000,77,100.0
1619,B-3,355.5,167/1000,72,100.0
1620,A3,355.625,167/1000,79,100.0
1621,B-3,355.75,0.125,75,100.0
1622,A3,355.875,167/1000,76,100.0
1623,B-3,355.875,21/500,75,100.0
1624,B-3,356.0,167/1000,69,100.0
1625,A3,356.125,167/1000,81,100.0
1626,B-3,356.25,167/1000,74,100.0
1627,A3,356.375,167/1000,82,100.0
1628,B-3,356.5,167/1000,75,100.0
1629,A3,356.625,167/1000,83,100.0
1630,B-3,356.75,167/1000,75,100.0
1631,A3,356.875,167/1000,85,100.0
1632,B-3,357.0,167/1000,77,100.0
1633,A3,357.125,167/1000,86,100.0
1634,B-3,357.25,0.125,78,100.0
1635,B-3,357.375,21/500,78,100.0
1636,G#4,357.375,0.5,95,100.0
1637,B4,357.375,0.5,95,100.0
1638,E-5,357.375,0.5,95,100.0
1639,B3,357.375,0.5,85,100.0
1640,E-4,357.375,0.5,85,100.0
1641,G#3,357.375,0.5,85,100.0
1642,G#4,357.875,0.75,91,100.0
1643,B4,357.875,0.75,91,100.0
1644,E5,357.875,0.75,91,100.0
1645,E-5,357.875,0.75,91,100.0
1646,B3,357.875,0.75,84,100.0
1647,E-4,357.875,0.75,84,100.0
1648,G#3,357.875,0.75,84,100.0
1649,E4,357.875,0.75,84,100.0
1650,G#4,360.375,1.0,101,100.0
1651,B4,360.375,1.0,101,100.0
1652,E-5,360.375,1.0,101,100.0
1653,G#3,360.375,1.0,89,100.0
1654,B3,360.375,1.0,89,100.0
1655,E-4,360.375,1.0,89,100.0
1656,G#4,361.375,0.5,95,100.0
1657,B4,361.375,0.5,95,100.0
1658,E5,361.375,0.5,95,100.0
1659,E-5,361.375,0.5,95,100.0
1660,G#3,361.375,0.5,86,100.0
1661,E-4,361.375,0.5,86,100.0
1662,B3,361.375,0.5,86,100.0
1663,E4,361.375,0.5,86,100.0
1664,G#4,362.875,1.0,95,100.0
1665,B4,362.875,1.0,95,100.0
1666,E5,362.875,1.0,95,100.0
1667,E-5,362.875,1.0,95,100.0
1668,G#3,362.875,1.0,86,100.0
1669,E-4,362.875,1.0,86,100.0
1670,B3,362.875,1.0,86,100.0
1671,E4,362.875,1.0,86,100.0
1672,B4,365.375,0.5,95,100.0
1673,B-4,365.875,0.25,97,100.0
1674,F#4,365.875,0.25,81,100.0
1675,F4,366.125,0.25,83,100.0
1676,D4,366.125,0.25,63,100.0
1677,F#4,366.375,0.25,85,100.0
1678,E-4,366.375,0.25,66,100.0
1679,A4,366.625,0.25,87,100.0
1680,B3,366.625,0.25,69,100.0
1681,B-4,366.875,0.25,90,100.0
1682,B-3,366.875,0.25,73,100.0
1683,B4,367.125,0.25,87,100.0
1684,D4,367.125,0.25,71,100.0
1685,A4,367.375,0.25,92,100.0
1686,E-4,367.375,0.25,74,100.0
1687,B-4,367.625,0.25,87,100.0
1688,D4,367.625,0.25,70,100.0
1689,D5,367.875,0.25,89,100.0
1690,B3,367.875,0.25,73,100.0
1691,E-5,368.125,0.25,91,100.0
1692,B-3,368.125,0.25,76,100.0
1693,F5,368.375,0.25,93,100.0
1694,A3,368.375,0.25,80,100.0
1695,F#5,368.625,0.25,95,100.0
1696,B-3,368.625,0.25,83,100.0
1697,F5,368.875,0.25,104,100.0
1698,A3,368.875,0.25,86,100.0
1699,D5,369.125,0.25,89,100.0
1700,F3,369.125,0.25,67,100.0
1701,E-5,369.375,0.25,92,100.0
1702,F#3,369.375,0.25,69,100.0
1703,F5,369.625,0.25,95,100.0
1704,D3,369.625,0.25,72,100.0
1705,F#5,369.875,0.25,97,100.0
1706,E-3,369.875,0.25,75,100.0
1707,A5,370.125,0.25,99,100.0
1708,B2,370.125,0.25,78,100.0
1709,B-5,370.375,0.25,105,100.0
1710,B-2,370.375,0.25,84,100.0
1711,B5,370.625,0.25,99,100.0
1712,A2,370.625,0.25,85,100.0
1713,A5,370.875,0.25,91,100.0
1714,B2,370.875,0.25,73,100.0
1715,B-5,371.125,0.25,94,100.0
1716,B-2,371.125,0.25,75,100.0
1717,D6,371.375,0.25,97,100.0
1718,F2,371.375,0.25,78,100.0
1719,E-6,371.625,0.25,100,100.0
1720,F#2,371.625,0.25,72,100.0
1721,E-2,371.875,0.812,70,100.0
1722,B-2,371.938,0.75,83,100.0
1723,F#3,372.0,0.688,89,100.0
1724,E-5,372.062,0.625,88,100.0
1725,B-5,372.125,0.562,100,100.0
1726,F#6,372.25,0.5,113,100.0
