,note_name,start_time,duration,velocity,tempo
0,E5,0.002,187/250,60,87.6
1,C3,0.5,0.5,40,87.6
2,F5,0.75,0.125,54,87.6
3,G5,0.875,0.125,54,87.6
4,C5,1.0,0.5,60,87.6
5,E3,1.0,0.5,40,87.6
6,G3,1.5,0.5,40,87.6
7,B4,1.5,0.5,49,87.6
8,D5,1.5,0.5,49,87.6
9,B4,2.0,0.5,53,87.6
10,D5,2.0,0.375,53,87.6
11,C4,2.0,0.5,43,87.6
12,F5,2.375,0.125,48,87.6
13,C3,2.5,0.5,40,87.6
14,E5,2.5,0.5,53,87.6
15,C5,2.5,0.5,53,87.6
16,G3,3.0,0.5,43,87.6
17,B4,3.0,1.0,50,87.6
18,D5,3.0,1.0,50,87.6
19,G2,3.5,0.5,40,87.6
20,E5,4.0,0.75,60,87.6
21,C3,4.5,0.5,40,87.6
22,F5,4.75,0.125,56,87.6
23,G5,4.875,0.125,56,87.6
24,C5,5.0,0.5,61,87.6
25,E3,5.0,0.5,40,87.6
26,G3,5.5,0.5,43,87.6
27,D5,5.5,0.25,49,87.6
28,B4,5.5,0.25,49,87.6
29,C4,6.0,0.5,44,87.6
30,D5,6.0,0.5,54,87.6
31,F5,6.0,0.5,54,87.6
32,E5,6.5,1/10,49,87.6
33,C5,6.5,0.5,49,87.6
34,C3,6.5,0.5,41,87.6
35,F5,6.6,1/10,49,87.6
36,E5,6.7,1/10,49,87.6
37,F5,6.8,1/10,49,87.6
38,E5,6.9,1/10,49,87.6
39,G3,7.0,0.5,43,87.6
40,B4,7.0,1.0,52,87.6
41,D5,7.0,1.0,52,87.6
42,G2,7.5,0.5,41,87.6
43,F5,8.0,0.75,64,87.6
44,A3,8.0,0.5,47,87.6
45,C4,8.5,0.5,46,87.6
46,G5,8.75,0.125,60,87.6
47,F5,8.875,0.125,60,87.6
48,E5,9.0,0.5,64,87.6
49,G3,9.0,0.5,49,87.6
50,E5,9.5,0.25,62,87.6
51,C4,9.5,0.5,45,87.6
52,A5,10.0,0.75,69,87.6
53,F3,10.0,0.5,49,87.6
54,C4,10.5,0.5,47,87.6
55,B5,10.75,0.125,63,87.6
56,C6,10.875,0.125,63,87.6
57,G5,11.0,0.5,69,87.6
58,E3,11.0,0.5,50,87.6
59,G5,11.5,0.25,69,87.6
60,C4,11.5,0.5,46,87.6
61,G5,12.0,0.25,68,87.6
62,F5,12.25,0.188,63,87.6
63,F5,12.5,0.25,64,87.6
64,G4,12.5,0.5,43,87.6
65,B3,12.5,0.5,43,87.6
66,D5,12.75,0.188,63,87.6
67,F5,13.0,0.25,69,87.6
68,E5,13.25,0.188,64,87.6
69,E5,13.5,0.25,66,87.6
70,G4,13.5,0.5,43,87.6
71,C4,13.5,0.5,43,87.6
72,C5,13.75,0.188,64,87.6
73,C#5,14.0,0.25,64,87.6
74,B3,14.0,1.0,44,87.6
75,G3,14.0,1.0,44,87.6
76,D5,14.25,0.25,60,87.6
77,E5,14.5,0.25,64,87.6
78,D5,14.75,0.25,62,87.6
79,C5,15.0,0.25,63,87.6
80,B4,15.25,0.25,61,87.6
81,A4,15.5,0.25,61,87.6
82,G4,15.75,0.25,60,87.6
83,E5,16.0,0.75,70,87.6
84,C2,16.0,0.25,64,87.6
85,E2,16.25,0.25,56,87.6
86,G2,16.5,0.25,57,87.6
87,F5,16.75,0.125,64,87.6
88,C3,16.75,0.25,56,87.6
89,G5,16.875,0.125,64,87.6
90,C5,17.0,0.5,70,87.6
91,E2,17.0,0.25,60,87.6
92,E3,17.25,0.25,57,87.6
93,G2,17.5,0.25,60,87.6
94,D5,17.5,0.5,60,87.6
95,B4,17.5,0.5,60,87.6
96,G3,17.75,0.25,57,87.6
97,D5,18.0,0.375,63,87.6
98,B4,18.0,0.5,63,87.6
99,C3,18.0,0.25,60,87.6
100,E3,18.25,0.25,55,87.6
101,F5,18.375,0.125,57,87.6
102,G3,18.5,0.25,57,87.6
103,C5,18.5,0.5,63,87.6
104,E5,18.5,0.5,63,87.6
105,C4,18.75,0.25,56,87.6
106,G2,19.0,0.25,60,87.6
107,B4,19.0,1.0,61,87.6
108,D5,19.0,1.0,61,87.6
109,B2,19.25,0.25,57,87.6
110,D3,19.5,0.25,59,87.6
111,G3,19.75,0.25,57,87.6
112,E5,20.0,0.75,70,87.6
113,C2,20.0,0.25,60,87.6
114,E2,20.25,0.25,56,87.6
115,G2,20.5,0.25,57,87.6
116,F5,20.75,0.125,67,87.6
117,C3,20.75,0.25,55,87.6
118,G5,20.875,0.125,67,87.6
119,C5,21.0,0.5,71,87.6
120,E2,21.0,0.25,60,87.6
121,E3,21.25,0.25,57,87.6
122,G2,21.5,0.25,58,87.6
123,D5,21.5,0.25,60,87.6
124,B4,21.5,0.25,60,87.6
125,G3,21.75,0.25,57,87.6
126,C3,22.0,0.25,60,87.6
127,F5,22.0,0.5,64,87.6
128,D5,22.0,0.5,64,87.6
129,E3,22.25,0.25,55,87.6
130,C5,22.5,0.5,60,87.6
131,E5,22.5,1/10,60,87.6
132,G3,22.5,0.25,57,87.6
133,F5,22.6,1/10,60,87.6
134,E5,22.7,1/10,60,87.6
135,C4,22.75,0.25,56,87.6
136,F5,22.8,1/10,60,87.6
137,E5,22.9,1/10,60,87.6
138,G2,23.0,0.25,62,87.6
139,B4,23.0,1.0,62,87.6
140,D5,23.0,1.0,62,87.6
141,B2,23.25,0.25,56,87.6
142,D3,23.5,0.25,57,87.6
143,G3,23.75,0.25,56,87.6
144,F5,24.0,0.75,77,87.6
145,A3,24.0,0.25,53,87.6
146,C4,24.25,0.25,49,87.6
147,A3,24.5,0.25,53,87.6
148,G5,24.75,0.125,70,87.6
149,C4,24.75,0.25,49,87.6
150,F5,24.875,0.125,70,87.6
151,E5,25.0,0.5,77,87.6
152,G3,25.0,0.25,53,87.6
153,C4,25.25,0.25,50,87.6
154,E5,25.5,0.25,74,87.6
155,G3,25.5,0.25,53,87.6
156,C4,25.75,0.25,50,87.6
157,A5,26.0,0.75,78,87.6
158,F3,26.0,0.25,57,87.6
159,C4,26.25,0.25,53,87.6
160,F3,26.5,0.25,57,87.6
161,B5,26.75,0.125,71,87.6
162,C4,26.75,0.25,53,87.6
163,C6,26.875,0.125,69,87.6
164,G5,27.0,0.5,79,87.6
165,E3,27.0,0.25,57,87.6
166,C4,27.25,0.25,53,87.6
167,G5,27.5,0.25,77,87.6
168,E3,27.5,0.25,57,87.6
169,C4,27.75,0.25,52,87.6
170,G#5,28.0,0.25,77,87.6
171,A5,28.25,0.25,74,87.6
172,F5,28.5,0.25,75,87.6
173,D4,28.5,0.25,49,87.6
174,F3,28.5,0.25,49,87.6
175,D5,28.75,0.25,72,87.6
176,C5,29.0,0.5,75,87.6
177,E4,29.0,0.5,49,87.6
178,G3,29.0,1.0,49,87.6
179,B4,29.5,0.5,71,87.6
180,D4,29.5,0.5,49,87.6
181,C5,30.0,167/1000,75,87.6
182,E4,30.0,1.0,49,87.6
183,C4,30.0,1.0,49,87.6
184,G4,30.167,167/1000,69,87.6
185,E5,30.333,167/1000,66,87.6
186,C5,30.5,167/1000,75,87.6
187,G5,30.667,167/1000,69,87.6
188,E5,30.833,167/1000,66,87.6
189,C6,31.0,167/1000,73,87.6
190,B5,31.167,167/1000,66,87.6
191,A5,31.333,167/1000,65,87.6
192,G5,31.5,167/1000,70,87.6
193,F5,31.667,167/1000,67,87.6
194,E5,31.833,167/1000,65,87.6
195,C#5,32.0,167/1000,63,87.6
196,D5,32.167,167/1000,60,87.6
197,F5,32.333,167/1000,60,87.6
198,A5,32.5,167/1000,62,87.6
199,D4,32.5,0.5,38,87.6
200,F3,32.5,0.5,38,87.6
201,A3,32.5,0.5,38,87.6
202,F5,32.667,167/1000,57,87.6
203,D5,32.833,167/1000,57,87.6
204,G5,33.0,167/1000,61,87.6
205,G3,33.0,1.0,38,87.6
206,C4,33.0,0.5,38,87.6
207,E4,33.0,0.5,38,87.6
208,E5,33.167,167/1000,57,87.6
209,C5,33.333,167/1000,57,87.6
210,F5,33.5,167/1000,61,87.6
211,F4,33.5,0.5,44,87.6
212,D4,33.5,0.5,44,87.6
213,D5,33.667,167/1000,55,87.6
214,B4,33.833,167/1000,55,87.6
215,C5,34.0,167/1000,75,87.6
216,C4,34.0,1.0,49,87.6
217,E4,34.0,1.0,49,87.6
218,G4,34.167,167/1000,69,87.6
219,E5,34.333,167/1000,67,87.6
220,C5,34.5,167/1000,75,87.6
221,G5,34.667,167/1000,69,87.6
222,E5,34.833,167/1000,67,87.6
223,C6,35.0,167/1000,73,87.6
224,B5,35.167,167/1000,66,87.6
225,A5,35.333,167/1000,64,87.6
226,G5,35.5,167/1000,70,87.6
227,F5,35.667,167/1000,67,87.6
228,E5,35.833,167/1000,65,87.6
229,C#5,36.0,167/1000,63,87.6
230,D5,36.167,167/1000,60,87.6
231,F5,36.333,167/1000,59,87.6
232,A5,36.5,167/1000,62,87.6
233,A3,36.5,0.5,38,87.6
234,D4,36.5,0.5,38,87.6
235,F3,36.5,0.5,38,87.6
236,F5,36.667,167/1000,57,87.6
237,D5,36.833,167/1000,55,87.6
238,G5,37.0,167/1000,61,87.6
239,G3,37.0,1.0,38,87.6
240,C4,37.0,0.5,38,87.6
241,E4,37.0,0.5,38,87.6
242,E5,37.167,167/1000,57,87.6
243,C5,37.333,167/1000,54,87.6
244,F5,37.5,167/1000,61,87.6
245,F4,37.5,0.5,40,87.6
246,D4,37.5,0.5,40,87.6
247,D5,37.667,167/1000,55,87.6
248,B4,37.833,167/1000,55,87.6
249,C5,38.0,0.125,52,87.6
250,C4,38.0,0.125,38,87.6
251,E4,38.0,0.125,38,87.6
252,G4,38.5,0.125,50,87.6
253,G3,38.5,0.125,38,87.6
254,C4,39.0,1.0,50,87.6
255,C2,39.0,1.0,38,87.6
256,C3,39.0,1.0,38,87.6
257,E5,40.0,1.0,50,87.6
258,C4,40.0,0.25,37,87.6
259,G4,40.25,0.25,30,87.6
260,F#4,40.5,0.25,33,87.6
261,G4,40.75,0.25,30,87.6
262,F5,41.0,0.125,46,87.6
263,C4,41.0,0.25,37,87.6
264,E5,41.125,0.125,46,87.6
265,D5,41.25,0.125,46,87.6
266,G4,41.25,0.25,30,87.6
267,E5,41.375,0.125,46,87.6
268,G5,41.5,0.25,50,87.6
269,D4,41.5,0.25,33,87.6
270,F5,41.75,0.25,46,87.6
271,G4,41.75,0.25,30,87.6
272,E5,42.0,0.25,51,87.6
273,E4,42.0,0.25,37,87.6
274,D5,42.25,0.25,49,87.6
275,G4,42.25,0.25,30,87.6
276,C5,42.5,0.25,49,87.6
277,F4,42.5,0.25,33,87.6
278,B4,42.75,0.25,49,87.6
279,G4,42.75,0.25,30,87.6
280,C5,43.0,0.125,52,87.6
281,E4,43.0,0.25,37,87.6
282,G4,43.25,0.25,30,87.6
283,C#5,43.5,0.125,55,87.6
284,B-3,43.5,0.25,33,87.6
285,G4,43.75,0.25,31,87.6
286,D5,44.0,0.125,56,87.6
287,B3,44.0,0.25,38,87.6
288,G4,44.25,0.25,31,87.6
289,E-5,44.5,0.125,60,87.6
290,B3,44.5,0.25,35,87.6
291,G4,44.75,0.25,32,87.6
292,E5,45.0,0.125,63,87.6
293,C4,45.0,0.25,41,87.6
294,G4,45.25,0.25,33,87.6
295,G5,45.5,0.25,62,87.6
296,D4,45.5,0.25,37,87.6
297,F5,45.75,0.25,57,87.6
298,G4,45.75,0.25,33,87.6
299,E5,46.0,0.75,62,87.6
300,C4,46.0,0.25,40,87.6
301,G4,46.25,0.25,30,87.6
302,F#4,46.5,0.25,33,87.6
303,F5,46.75,0.125,55,87.6
304,G4,46.75,0.25,30,87.6
305,E5,46.875,0.125,55,87.6
306,D5,47.0,0.5,56,87.6
307,B3,47.0,0.25,37,87.6
308,G4,47.25,0.25,31,87.6
309,F#4,47.5,0.25,33,87.6
310,G4,47.75,0.25,32,87.6
311,F5,48.0,1.0,58,87.6
312,B3,48.0,0.25,37,87.6
313,G4,48.25,0.25,31,87.6
314,F#4,48.5,0.25,33,87.6
315,G4,48.75,0.25,31,87.6
316,G5,49.0,0.125,48,87.6
317,B3,49.0,0.25,37,87.6
318,F5,49.125,0.125,49,87.6
319,E5,49.25,0.125,49,87.6
320,G4,49.25,0.25,31,87.6
321,F5,49.375,0.125,49,87.6
322,A5,49.5,0.25,55,87.6
323,C4,49.5,0.25,33,87.6
324,G5,49.75,0.25,52,87.6
325,G4,49.75,0.25,31,87.6
326,F5,50.0,0.25,52,87.6
327,D4,50.0,0.25,37,87.6
328,E5,50.25,0.25,50,87.6
329,G4,50.25,0.25,31,87.6
330,D5,50.5,0.25,50,87.6
331,E4,50.5,0.25,33,87.6
332,C5,50.75,0.25,50,87.6
333,G4,50.75,0.25,31,87.6
334,B4,51.0,0.25,49,87.6
335,F4,51.0,0.25,37,87.6
336,C5,51.25,0.125,50,87.6
337,G4,51.25,0.25,32,87.6
338,D5,51.5,0.125,51,87.6
339,D4,51.5,0.25,34,87.6
340,E5,51.75,0.125,53,87.6
341,G4,51.75,0.25,31,87.6
342,F5,52.0,0.125,54,87.6
343,B3,52.0,0.25,40,87.6
344,G5,52.25,0.125,55,87.6
345,G4,52.25,0.25,31,87.6
346,A5,52.5,0.125,56,87.6
347,D4,52.5,0.25,34,87.6
348,B5,52.75,0.125,58,87.6
349,G4,52.75,0.25,31,87.6
350,C6,53.0,0.125,60,87.6
351,B3,53.0,0.25,46,87.6
352,D6,53.25,0.125,61,87.6
353,G4,53.25,0.25,35,87.6
354,E6,53.5,0.125,62,87.6
355,G3,53.5,0.25,37,87.6
356,F6,53.75,0.125,63,87.6
357,G4,53.75,0.25,35,87.6
358,E-6,54.0,1.0,79,87.6
359,C4,54.0,0.25,44,87.6
360,G4,54.25,0.25,37,87.6
361,F4,54.5,0.25,40,87.6
362,G4,54.75,0.25,37,87.6
363,E6,55.0,0.5,75,87.6
364,C4,55.0,0.25,44,87.6
365,G4,55.25,0.25,37,87.6
366,E4,55.5,0.25,40,87.6
367,G4,55.75,0.25,37,87.6
368,E5,56.0,667/1000,64,87.6
369,C4,56.0,167/1000,48,87.6
370,E4,56.167,167/1000,43,87.6
371,G4,56.333,167/1000,43,87.6
372,C5,56.5,0.5,46,87.6
373,A5,56.667,167/1000,60,87.6
374,C6,56.833,167/1000,60,87.6
375,E6,57.0,167/1000,60,87.6
376,C6,57.167,167/1000,58,87.6
377,A5,57.333,167/1000,58,87.6
378,C6,57.5,167/1000,60,87.6
379,A5,57.667,167/1000,58,87.6
380,E5,57.833,167/1000,58,87.6
381,D5,58.0,667/1000,64,87.6
382,B3,58.0,167/1000,48,87.6
383,D4,58.167,167/1000,43,87.6
384,G4,58.333,167/1000,43,87.6
385,B4,58.5,0.5,48,87.6
386,G5,58.667,167/1000,60,87.6
387,B5,58.833,167/1000,60,87.6
388,D6,59.0,167/1000,60,87.6
389,B5,59.167,167/1000,59,87.6
390,G5,59.333,167/1000,59,87.6
391,B5,59.5,167/1000,60,87.6
392,G5,59.667,167/1000,58,87.6
393,D5,59.833,167/1000,58,87.6
394,A3,60.0,0.5,50,87.6
395,D4,60.0,0.5,50,87.6
396,F#3,60.0,0.5,50,87.6
397,D5,60.167,167/1000,60,87.6
398,A5,60.333,167/1000,60,87.6
399,C6,60.5,167/1000,60,87.6
400,A5,60.667,167/1000,58,87.6
401,D5,60.833,167/1000,60,87.6
402,B3,61.0,0.5,52,87.6
403,G3,61.0,0.5,52,87.6
404,D4,61.0,0.5,52,87.6
405,D5,61.167,167/1000,60,87.6
406,G5,61.333,167/1000,60,87.6
407,B5,61.5,167/1000,60,87.6
408,G5,61.667,167/1000,59,87.6
409,D5,61.833,167/1000,60,87.6
410,A5,62.0,0.375,68,87.6
411,D3,62.0,0.25,57,87.6
412,D4,62.25,0.25,39,87.6
413,F#5,62.375,0.125,63,87.6
414,D5,62.5,0.5,60,87.6
415,C#4,62.5,0.25,40,87.6
416,D4,62.75,0.25,41,87.6
417,C#4,63.0,0.25,44,87.6
418,D4,63.25,0.25,45,87.6
419,C4,63.5,0.25,47,87.6
420,D4,63.75,0.25,49,87.6
421,G4,63.875,0.125,43,87.6
422,G5,64.0,1.25,64,87.6
423,B3,64.0,0.25,49,87.6
424,D4,64.25,0.25,44,87.6
425,G3,64.5,0.25,35,87.6
426,D4,64.75,0.25,30,87.6
427,B3,65.0,0.25,37,87.6
428,F#5,65.25,0.25,50,87.6
429,D4,65.25,0.25,32,87.6
430,E5,65.5,0.25,50,87.6
431,G3,65.5,0.25,35,87.6
432,D5,65.75,121/500,50,87.6
433,D4,65.75,0.25,34,87.6
434,D5,66.0,0.25,53,87.6
435,A3,66.0,0.25,37,87.6
436,C5,66.25,0.25,49,87.6
437,D4,66.25,0.25,34,87.6
438,B4,66.5,0.25,50,87.6
439,G3,66.5,0.25,37,87.6
440,A4,66.75,0.25,47,87.6
441,D4,66.75,0.25,34,87.6
442,D5,67.0,0.125,54,87.6
443,F#3,67.0,0.25,37,87.6
444,D4,67.25,0.25,34,87.6
445,C5,67.5,0.125,51,87.6
446,D3,67.5,0.25,37,87.6
447,D4,67.75,0.25,34,87.6
448,B-4,68.0,0.5,53,87.6
449,G3,68.0,0.25,38,87.6
450,D4,68.25,0.25,34,87.6
451,B4,68.5,0.5,51,87.6
452,C#4,68.5,0.25,34,87.6
453,D4,68.75,0.25,34,87.6
454,C#4,69.0,0.25,39,87.6
455,D4,69.25,0.25,41,87.6
456,E4,69.5,0.25,44,87.6
457,D4,69.75,0.25,41,87.6
458,C4,70.0,0.25,49,87.6
459,D4,70.25,0.25,47,87.6
460,B3,70.5,0.25,49,87.6
461,D4,70.75,0.25,47,87.6
462,C4,71.0,0.25,49,87.6
463,D4,71.25,0.25,47,87.6
464,A3,71.5,0.25,49,87.6
465,D4,71.75,0.25,47,87.6
466,G4,71.875,0.125,43,87.6
467,G5,72.0,1.25,64,87.6
468,B3,72.0,0.25,49,87.6
469,D4,72.25,0.25,42,87.6
470,G3,72.5,0.25,35,87.6
471,D4,72.75,0.25,30,87.6
472,B3,73.0,0.25,37,87.6
473,F#5,73.25,0.25,50,87.6
474,D4,73.25,0.25,30,87.6
475,E5,73.5,0.25,50,87.6
476,G3,73.5,0.25,35,87.6
477,D5,73.75,6/25,48,87.6
478,D4,73.75,0.25,30,87.6
479,D5,74.0,0.25,53,87.6
480,A3,74.0,0.25,37,87.6
481,C5,74.25,0.25,47,87.6
482,D4,74.25,0.25,34,87.6
483,B4,74.5,0.25,50,87.6
484,G3,74.5,0.25,37,87.6
485,A4,74.75,0.25,50,87.6
486,D4,74.75,0.25,34,87.6
487,D5,75.0,0.125,54,87.6
488,F#3,75.0,0.25,37,87.6
489,D4,75.25,0.25,34,87.6
490,C5,75.5,0.125,51,87.6
491,D3,75.5,0.25,37,87.6
492,D4,75.75,0.25,34,87.6
493,B4,76.0,0.5,54,87.6
494,G3,76.0,0.25,37,87.6
495,D4,76.25,0.25,34,87.6
496,B3,76.5,0.25,37,87.6
497,D4,76.75,0.25,34,87.6
498,E5,77.0,0.125,52,87.6
499,G3,77.0,0.25,37,87.6
500,F#5,77.125,0.125,55,87.6
501,E5,77.25,0.125,53,87.6
502,E4,77.25,0.25,29,87.6
503,F#5,77.375,0.125,62,87.6
504,G5,77.5,0.25,62,87.6
505,C4,77.5,0.25,32,87.6
506,G5,77.75,0.125,60,87.6
507,E4,77.75,0.25,29,87.6
508,G5,78.0,0.5,60,87.6
509,G3,78.0,0.25,32,87.6
510,D4,78.25,0.25,30,87.6
511,B3,78.5,0.25,32,87.6
512,D4,78.75,0.25,31,87.6
513,A5,79.0,0.125,52,87.6
514,F3,79.0,0.25,32,87.6
515,B5,79.125,0.125,55,87.6
516,A5,79.25,0.125,52,87.6
517,C4,79.25,0.25,30,87.6
518,B5,79.375,0.125,62,87.6
519,C6,79.5,0.25,62,87.6
520,A3,79.5,0.25,32,87.6
521,C6,79.75,0.125,60,87.6
522,C4,79.75,0.25,30,87.6
523,C6,80.0,0.5,60,87.6
524,E3,80.0,0.25,32,87.6
525,C4,80.25,0.25,30,87.6
526,G3,80.5,0.25,32,87.6
527,C4,80.75,0.25,30,87.6
528,C6,81.0,0.125,51,87.6
529,C3,81.0,0.25,40,87.6
530,D6,81.125,0.125,54,87.6
531,C6,81.25,0.125,51,87.6
532,G3,81.25,0.25,34,87.6
533,D6,81.375,0.125,63,87.6
534,E6,81.5,0.25,63,87.6
535,E3,81.5,0.25,40,87.6
536,E6,81.75,0.125,60,87.6
537,G3,81.75,0.25,33,87.6
538,E6,82.0,0.25,60,87.6
539,D3,82.0,0.25,39,87.6
540,D6,82.25,0.25,61,87.6
541,B3,82.25,0.25,34,87.6
542,C6,82.5,0.125,56,87.6
543,G3,82.5,0.25,39,87.6
544,B5,82.75,0.125,56,87.6
545,B3,82.75,0.25,34,87.6
546,A5,83.0,0.125,56,87.6
547,D3,83.0,0.25,39,87.6
548,C4,83.25,0.25,34,87.6
549,D6,83.5,0.125,56,87.6
550,F#3,83.5,0.25,38,87.6
551,C4,83.75,0.25,33,87.6
552,C6,84.0,0.5,62,87.6
553,G3,84.0,0.25,40,87.6
554,D4,84.25,0.25,35,87.6
555,B5,84.5,0.5,58,87.6
556,B3,84.5,0.25,40,87.6
557,D4,84.75,0.25,34,87.6
558,E5,85.0,0.125,51,87.6
559,G3,85.0,0.25,32,87.6
560,F#5,85.125,0.125,54,87.6
561,E5,85.25,0.125,51,87.6
562,E4,85.25,0.25,30,87.6
563,F#5,85.375,0.125,64,87.6
564,G5,85.5,0.25,64,87.6
565,C4,85.5,0.25,32,87.6
566,G5,85.75,0.125,60,87.6
567,E4,85.75,0.25,30,87.6
568,G5,86.0,0.5,60,87.6
569,G3,86.0,0.25,32,87.6
570,D4,86.25,0.25,30,87.6
571,B3,86.5,0.25,32,87.6
572,D4,86.75,0.25,30,87.6
573,A5,87.0,0.125,50,87.6
574,F3,87.0,0.25,32,87.6
575,B5,87.125,0.125,54,87.6
576,A5,87.25,0.125,51,87.6
577,C4,87.25,0.25,29,87.6
578,B5,87.375,0.125,66,87.6
579,C6,87.5,0.25,66,87.6
580,A3,87.5,0.25,32,87.6
581,C6,87.75,0.125,60,87.6
582,C4,87.75,0.25,29,87.6
583,C6,88.0,0.5,60,87.6
584,E3,88.0,0.25,34,87.6
585,C4,88.25,0.25,30,87.6
586,G3,88.5,0.25,33,87.6
587,C4,88.75,0.25,29,87.6
588,C6,89.0,0.125,50,87.6
589,C3,89.0,0.25,41,87.6
590,D6,89.125,0.125,54,87.6
591,C6,89.25,0.125,51,87.6
592,G3,89.25,0.25,38,87.6
593,D6,89.375,0.125,64,87.6
594,E6,89.5,0.25,64,87.6
595,E3,89.5,0.25,40,87.6
596,E6,89.75,0.125,61,87.6
597,G3,89.75,0.25,37,87.6
598,E6,90.0,0.25,62,87.6
599,D3,90.0,0.25,40,87.6
600,D6,90.25,0.25,61,87.6
601,B3,90.25,0.25,37,87.6
602,C6,90.5,0.125,61,87.6
603,G3,90.5,0.25,39,87.6
604,B5,90.75,0.125,61,87.6
605,B3,90.75,0.25,32,87.6
606,B5,91.0,0.25,62,87.6
607,D3,91.0,0.25,38,87.6
608,A5,91.25,0.25,61,87.6
609,C4,91.25,0.25,33,87.6
610,G5,91.5,0.125,61,87.6
611,A3,91.5,0.25,38,87.6
612,F#5,91.75,0.125,61,87.6
613,C4,91.75,0.25,32,87.6
614,D6,92.0,667/1000,84,87.6
615,B3,92.5,0.5,38,87.6
616,G3,92.5,0.5,38,87.6
617,B5,92.667,167/1000,61,87.6
618,G5,92.833,167/1000,61,87.6
619,F#5,93.0,167/1000,63,87.6
620,A3,93.0,0.5,44,87.6
621,C4,93.0,0.5,44,87.6
622,A5,93.167,167/1000,63,87.6
623,D5,93.333,167/1000,61,87.6
624,G5,93.5,167/1000,63,87.6
625,B3,93.5,0.5,49,87.6
626,D4,93.5,0.5,49,87.6
627,B5,93.667,167/1000,61,87.6
628,D5,93.833,167/1000,61,87.6
629,A5,94.0,667/1000,70,87.6
630,F#3,94.5,0.5,37,87.6
631,D3,94.5,0.5,37,87.6
632,F#5,94.667,167/1000,58,87.6
633,D5,94.833,167/1000,59,87.6
634,C#5,95.0,167/1000,61,87.6
635,G3,95.0,0.5,40,87.6
636,E3,95.0,0.5,40,87.6
637,D5,95.167,167/1000,57,87.6
638,A4,95.333,167/1000,57,87.6
639,C5,95.5,167/1000,60,87.6
640,A3,95.5,0.5,44,87.6
641,F#3,95.5,0.5,44,87.6
642,D5,95.667,167/1000,57,87.6
643,A4,95.833,167/1000,57,87.6
644,D6,96.0,667/1000,77,87.6
645,G3,96.5,0.5,38,87.6
646,B3,96.5,0.5,38,87.6
647,B5,96.667,167/1000,61,87.6
648,G5,96.833,167/1000,61,87.6
649,F#5,97.0,167/1000,63,87.6
650,A3,97.0,0.5,44,87.6
651,C4,97.0,0.5,44,87.6
652,A5,97.167,167/1000,63,87.6
653,D5,97.333,167/1000,61,87.6
654,G5,97.5,167/1000,63,87.6
655,D4,97.5,0.5,49,87.6
656,B3,97.5,0.5,49,87.6
657,B5,97.667,167/1000,61,87.6
658,D5,97.833,167/1000,61,87.6
659,A5,98.0,667/1000,71,87.6
660,D3,98.5,0.5,37,87.6
661,F#3,98.5,0.5,37,87.6
662,F#5,98.667,167/1000,55,87.6
663,D5,98.833,167/1000,55,87.6
664,C#5,99.0,167/1000,57,87.6
665,G3,99.0,0.5,40,87.6
666,E3,99.0,0.5,40,87.6
667,D5,99.167,167/1000,54,87.6
668,A4,99.333,167/1000,54,87.6
669,C5,99.5,167/1000,55,87.6
670,A3,99.5,0.5,44,87.6
671,F#3,99.5,0.5,44,87.6
672,D5,99.667,167/1000,53,87.6
673,A4,99.833,167/1000,53,87.6
674,B4,100.0,167/1000,53,87.6
675,G3,100.0,1.0,44,87.6
676,G4,100.167,167/1000,54,87.6
677,B4,100.333,167/1000,56,87.6
678,D5,100.5,167/1000,57,87.6
679,B4,100.667,167/1000,58,87.6
680,D5,100.833,167/1000,61,87.6
681,G5,101.0,167/1000,61,87.6
682,D5,101.167,167/1000,63,87.6
683,G5,101.333,167/1000,64,87.6
684,B5,101.5,167/1000,64,87.6
685,G5,101.667,167/1000,67,87.6
686,B5,101.833,167/1000,68,87.6
687,D6,102.0,167/1000,69,87.6
688,G3,102.0,2.0,44,87.6
689,G2,102.0,2.0,44,87.6
690,D3,102.0,2.0,44,87.6
691,B2,102.0,2.0,44,87.6
692,B5,102.167,167/1000,70,87.6
693,D6,102.333,167/1000,73,87.6
694,F6,102.5,167/1000,73,87.6
695,D6,102.667,167/1000,70,87.6
696,B5,102.833,167/1000,68,87.6
697,G5,103.0,167/1000,66,87.6
698,F5,103.167,167/1000,64,87.6
699,D5,103.333,167/1000,61,87.6
700,B4,103.5,167/1000,60,87.6
701,G4,103.667,167/1000,56,87.6
702,F4,103.833,167/1000,54,87.6
703,E4,104.0,0.125,51,87.6
704,C3,104.0,1.0,38,87.6
705,G3,104.0,1.0,44,87.6
706,E5,104.25,0.25,48,87.6
707,E-5,104.5,0.25,48,87.6
708,E5,104.75,0.25,48,87.6
709,E-5,105.0,0.25,49,87.6
710,E5,105.25,0.25,49,87.6
711,E-5,105.5,0.25,49,87.6
712,E5,105.75,0.25,49,87.6
713,G4,106.0,1.5,53,87.6
714,C#3,106.5,0.5,37,87.6
715,B-3,106.5,0.5,37,87.6
716,D3,107.0,0.5,40,87.6
717,B3,107.0,0.5,40,87.6
718,B4,107.5,0.25,49,87.6
719,F#4,107.5,0.5,49,87.6
720,C4,107.5,0.5,44,87.6
721,A4,107.75,0.25,49,87.6
722,G3,108.0,1.0,44,87.6
723,B3,108.0,1.0,44,87.6
724,G4,108.167,167/1000,54,87.6
725,B4,108.333,167/1000,56,87.6
726,D5,108.5,167/1000,57,87.6
727,B4,108.667,167/1000,58,87.6
728,D5,108.833,167/1000,61,87.6
729,G5,109.0,167/1000,61,87.6
730,D5,109.167,167/1000,63,87.6
731,G5,109.333,167/1000,64,87.6
732,B5,109.5,167/1000,64,87.6
733,G5,109.667,167/1000,67,87.6
734,B5,109.833,167/1000,68,87.6
735,D6,110.0,167/1000,69,87.6
736,G3,110.0,2.0,44,87.6
737,G2,110.0,2.0,44,87.6
738,D3,110.0,2.0,44,87.6
739,B2,110.0,2.0,44,87.6
740,B5,110.167,167/1000,70,87.6
741,D6,110.333,167/1000,73,87.6
742,F6,110.5,167/1000,73,87.6
743,D6,110.667,167/1000,70,87.6
744,B5,110.833,167/1000,68,87.6
745,G5,111.0,167/1000,66,87.6
746,F5,111.167,167/1000,64,87.6
747,D5,111.333,167/1000,61,87.6
748,B4,111.5,167/1000,60,87.6
749,G4,111.667,167/1000,56,87.6
750,F4,111.833,167/1000,54,87.6
751,E4,112.0,0.125,51,87.6
752,C3,112.0,1.0,38,87.6
753,G3,112.0,1.0,44,87.6
754,E5,112.25,0.25,48,87.6
755,E-5,112.5,0.25,48,87.6
756,E5,112.75,0.25,46,87.6
757,E-5,113.0,0.25,49,87.6
758,E5,113.25,0.25,47,87.6
759,E-5,113.5,0.25,49,87.6
760,E5,113.75,0.25,47,87.6
761,B-3,114.0,1.0,41,87.6
762,C#3,114.0,1.0,41,87.6
763,G5,114.25,0.25,54,87.6
764,F#5,114.5,0.25,58,87.6
765,G5,114.75,0.25,55,87.6
766,F#5,115.0,0.25,61,87.6
767,G5,115.25,0.25,59,87.6
768,F#5,115.5,0.25,61,87.6
769,G5,115.75,6/25,64,87.6
770,G5,116.0,0.25,62,87.6
771,D3,116.0,0.25,48,87.6
772,D5,116.25,229/1000,51,87.6
773,B3,116.25,0.25,40,87.6
774,D5,116.5,0.125,54,87.6
775,G3,116.5,0.25,41,87.6
776,D5,116.75,0.125,51,87.6
777,B3,116.75,0.25,39,87.6
778,E5,117.0,0.25,57,87.6
779,D3,117.0,0.25,48,87.6
780,D5,117.25,229/1000,53,87.6
781,B3,117.25,0.25,40,87.6
782,C5,117.5,0.125,52,87.6
783,G3,117.5,0.25,41,87.6
784,B4,117.75,0.125,51,87.6
785,B3,117.75,0.25,40,87.6
786,B4,118.0,0.5,49,87.6
787,D3,118.0,0.25,43,87.6
788,D4,118.25,0.25,37,87.6
789,G3,118.5,0.25,38,87.6
790,D4,118.75,0.25,36,87.6
791,A4,119.0,0.125,48,87.6
792,D3,119.0,0.25,39,87.6
793,B4,119.125,0.125,45,87.6
794,A4,119.25,0.125,48,87.6
795,C4,119.25,0.25,30,87.6
796,B4,119.375,0.125,45,87.6
797,A4,119.5,83/1000,48,87.6
798,F#3,119.5,0.25,32,87.6
799,B4,119.583,83/1000,46,87.6
800,A4,119.669,83/1000,46,87.6
801,G4,119.75,0.125,51,87.6
802,C4,119.75,0.25,30,87.6
803,A4,119.875,0.125,48,87.6
804,G4,120.0,0.5,50,87.6
805,G3,120.0,0.25,35,87.6
806,B3,120.25,0.25,30,87.6
807,G4,120.5,0.25,32,87.6
808,B3,120.75,0.25,30,87.6
809,D5,121.0,0.688,50,87.6
810,G3,121.0,0.25,35,87.6
811,B3,121.25,0.25,30,87.6
812,G4,121.5,0.25,32,87.6
813,F#5,121.688,0.062,48,87.6
814,E5,121.75,0.125,48,87.6
815,B3,121.75,0.25,30,87.6
816,D5,121.875,0.125,48,87.6
817,D6,122.0,0.125,57,87.6
818,G3,122.0,0.25,35,87.6
819,A3,122.25,0.25,30,87.6
820,C6,122.5,0.125,56,87.6
821,F#4,122.5,0.25,32,87.6
822,A3,122.75,0.25,30,87.6
823,B5,123.0,0.125,54,87.6
824,G3,123.0,0.25,35,87.6
825,C4,123.25,0.25,30,87.6
826,A5,123.5,0.125,51,87.6
827,F#4,123.5,0.25,32,87.6
828,C4,123.75,0.25,30,87.6
829,G5,124.0,1.0,55,87.6
830,G3,124.0,0.25,35,87.6
831,B3,124.25,0.25,30,87.6
832,G4,124.5,0.25,32,87.6
833,B3,124.75,0.25,31,87.6
834,D5,125.0,0.688,50,87.6
835,G3,125.0,0.25,35,87.6
836,B3,125.25,0.25,30,87.6
837,G4,125.5,0.25,32,87.6
838,F#5,125.688,0.062,48,87.6
839,E5,125.75,0.125,48,87.6
840,B3,125.75,0.25,30,87.6
841,D5,125.875,0.125,48,87.6
842,D6,126.0,0.125,56,87.6
843,G3,126.0,0.25,35,87.6
844,A3,126.25,0.25,30,87.6
845,C6,126.5,0.125,53,87.6
846,F#4,126.5,0.25,32,87.6
847,A3,126.75,0.25,30,87.6
848,B5,127.0,0.125,52,87.6
849,G3,127.0,0.25,35,87.6
850,C4,127.25,0.25,30,87.6
851,A5,127.5,0.125,49,87.6
852,F#4,127.5,0.25,32,87.6
853,C4,127.75,0.25,30,87.6
854,G5,128.0,0.5,53,87.6
855,G3,128.0,0.25,35,87.6
856,B3,128.25,0.25,30,87.6
857,G4,128.5,0.25,32,87.6
858,B3,128.75,0.25,30,87.6
859,D5,128.917,83/1000,56,87.6
860,D6,129.0,0.75,70,87.6
861,G3,129.0,0.25,35,87.6
862,C4,129.25,0.25,30,87.6
863,F#4,129.5,0.25,32,87.6
864,C6,129.75,83/1000,52,87.6
865,C4,129.75,0.25,30,87.6
866,B5,129.833,83/1000,51,87.6
867,A5,129.917,83/1000,48,87.6
868,G5,130.0,0.5,53,87.6
869,G3,130.0,0.25,35,87.6
870,B3,130.25,0.25,30,87.6
871,G4,130.5,0.25,32,87.6
872,B3,130.75,0.25,30,87.6
873,D5,130.917,83/1000,56,87.6
874,D6,131.0,0.75,71,87.6
875,G3,131.0,0.25,35,87.6
876,C4,131.25,0.25,30,87.6
877,F#4,131.5,0.25,32,87.6
878,C6,131.75,83/1000,53,87.6
879,C4,131.75,0.25,30,87.6
880,B5,131.833,83/1000,51,87.6
881,A5,131.917,83/1000,49,87.6
882,G5,132.0,0.5,53,87.6
883,G4,132.0,0.5,31,87.6
884,B3,132.0,0.5,31,87.6
885,G3,132.0,0.5,31,87.6
886,D4,132.5,0.375,42,87.6
887,G4,132.875,0.125,41,87.6
888,B4,133.0,0.25,43,87.6
889,D3,133.5,0.5,30,87.6
890,A4,133.5,0.5,36,87.6
891,C4,133.5,0.5,36,87.6
892,G3,134.0,0.5,33,87.6
893,C4,134.0,1.0,36,87.6
894,A4,134.0,1.0,36,87.6
895,D3,134.5,0.5,32,87.6
896,G2,135.0,0.5,33,87.6
897,G4,135.0,0.5,37,87.6
898,B3,135.0,0.5,37,87.6
899,E5,136.002,187/250,60,87.6
900,C3,136.5,0.5,40,87.6
901,F5,136.75,0.125,54,87.6
902,G5,136.875,0.125,54,87.6
903,C5,137.0,0.5,60,87.6
904,E3,137.0,0.5,40,87.6
905,G3,137.5,0.5,40,87.6
906,B4,137.5,0.5,49,87.6
907,D5,137.5,0.5,49,87.6
908,B4,138.0,0.5,53,87.6
909,D5,138.0,0.375,53,87.6
910,C4,138.0,0.5,43,87.6
911,F5,138.375,0.125,48,87.6
912,C3,138.5,0.5,40,87.6
913,E5,138.5,0.5,53,87.6
914,C5,138.5,0.5,53,87.6
915,G3,139.0,0.5,43,87.6
916,B4,139.0,1.0,50,87.6
917,D5,139.0,1.0,50,87.6
918,G2,139.5,0.5,40,87.6
919,E5,140.0,0.75,60,87.6
920,C3,140.5,0.5,40,87.6
921,F5,140.75,0.125,56,87.6
922,G5,140.875,0.125,56,87.6
923,C5,141.0,0.5,61,87.6
924,E3,141.0,0.5,40,87.6
925,G3,141.5,0.5,43,87.6
926,D5,141.5,0.25,49,87.6
927,B4,141.5,0.25,49,87.6
928,C4,142.0,0.5,44,87.6
929,D5,142.0,0.5,54,87.6
930,F5,142.0,0.5,54,87.6
931,E5,142.5,1/10,49,87.6
932,C5,142.5,0.5,49,87.6
933,C3,142.5,0.5,41,87.6
934,F5,142.6,1/10,49,87.6
935,E5,142.7,1/10,49,87.6
936,F5,142.8,1/10,49,87.6
937,E5,142.9,1/10,49,87.6
938,G3,143.0,0.5,43,87.6
939,B4,143.0,1.0,52,87.6
940,D5,143.0,1.0,52,87.6
941,G2,143.5,0.5,41,87.6
942,F5,144.0,0.75,64,87.6
943,A3,144.0,0.5,47,87.6
944,C4,144.5,0.5,46,87.6
945,G5,144.75,0.125,60,87.6
946,F5,144.875,0.125,60,87.6
947,E5,145.0,0.5,64,87.6
948,G3,145.0,0.5,49,87.6
949,E5,145.5,0.25,62,87.6
950,C4,145.5,0.5,45,87.6
951,A5,146.0,0.75,69,87.6
952,F3,146.0,0.5,49,87.6
953,C4,146.5,0.5,47,87.6
954,B5,146.75,0.125,63,87.6
955,C6,146.875,0.125,63,87.6
956,G5,147.0,0.5,69,87.6
957,E3,147.0,0.5,50,87.6
958,G5,147.5,0.25,69,87.6
959,C4,147.5,0.5,46,87.6
960,G5,148.0,0.25,68,87.6
961,F5,148.25,0.188,63,87.6
962,F5,148.5,0.25,64,87.6
963,G4,148.5,0.5,43,87.6
964,B3,148.5,0.5,43,87.6
965,D5,148.75,0.188,63,87.6
966,F5,149.0,0.25,69,87.6
967,E5,149.25,0.188,64,87.6
968,E5,149.5,0.25,66,87.6
969,G4,149.5,0.5,43,87.6
970,C4,149.5,0.5,43,87.6
971,C5,149.75,0.188,64,87.6
972,C#5,150.0,0.25,64,87.6
973,B3,150.0,1.0,44,87.6
974,G3,150.0,1.0,44,87.6
975,D5,150.25,0.25,60,87.6
976,E5,150.5,0.25,64,87.6
977,D5,150.75,0.25,62,87.6
978,C5,151.0,0.25,63,87.6
979,B4,151.25,0.25,61,87.6
980,A4,151.5,0.25,61,87.6
981,G4,151.75,0.25,60,87.6
982,E5,152.0,0.75,70,87.6
983,C2,152.0,0.25,64,87.6
984,E2,152.25,0.25,56,87.6
985,G2,152.5,0.25,57,87.6
986,F5,152.75,0.125,64,87.6
987,C3,152.75,0.25,56,87.6
988,G5,152.875,0.125,64,87.6
989,C5,153.0,0.5,70,87.6
990,E2,153.0,0.25,60,87.6
991,E3,153.25,0.25,57,87.6
992,G2,153.5,0.25,60,87.6
993,D5,153.5,0.5,60,87.6
994,B4,153.5,0.5,60,87.6
995,G3,153.75,0.25,57,87.6
996,D5,154.0,0.375,63,87.6
997,B4,154.0,0.5,63,87.6
998,C3,154.0,0.25,60,87.6
999,E3,154.25,0.25,55,87.6
1000,F5,154.375,0.125,57,87.6
1001,G3,154.5,0.25,57,87.6
1002,C5,154.5,0.5,63,87.6
1003,E5,154.5,0.5,63,87.6
1004,C4,154.75,0.25,56,87.6
1005,G2,155.0,0.25,60,87.6
1006,B4,155.0,1.0,61,87.6
1007,D5,155.0,1.0,61,87.6
1008,B2,155.25,0.25,57,87.6
1009,D3,155.5,0.25,59,87.6
1010,G3,155.75,0.25,57,87.6
1011,E5,156.0,0.75,70,87.6
1012,C2,156.0,0.25,60,87.6
1013,E2,156.25,0.25,56,87.6
1014,G2,156.5,0.25,57,87.6
1015,F5,156.75,0.125,67,87.6
1016,C3,156.75,0.25,55,87.6
1017,G5,156.875,0.125,67,87.6
1018,C5,157.0,0.5,71,87.6
1019,E2,157.0,0.25,60,87.6
1020,E3,157.25,0.25,57,87.6
1021,G2,157.5,0.25,58,87.6
1022,D5,157.5,0.25,60,87.6
1023,B4,157.5,0.25,60,87.6
1024,G3,157.75,0.25,57,87.6
1025,C3,158.0,0.25,60,87.6
1026,F5,158.0,0.5,64,87.6
1027,D5,158.0,0.5,64,87.6
1028,E3,158.25,0.25,55,87.6
1029,C5,158.5,0.5,60,87.6
1030,E5,158.5,1/10,60,87.6
1031,G3,158.5,0.25,57,87.6
1032,F5,158.6,1/10,60,87.6
1033,E5,158.7,1/10,60,87.6
1034,C4,158.75,0.25,56,87.6
1035,F5,158.8,1/10,60,87.6
1036,E5,158.9,1/10,60,87.6
1037,G2,159.0,0.25,62,87.6
1038,B4,159.0,1.0,62,87.6
1039,D5,159.0,1.0,62,87.6
1040,B2,159.25,0.25,56,87.6
1041,D3,159.5,0.25,57,87.6
1042,G3,159.75,0.25,56,87.6
1043,F5,160.0,0.75,77,87.6
1044,A3,160.0,0.25,53,87.6
1045,C4,160.25,0.25,49,87.6
1046,A3,160.5,0.25,53,87.6
1047,G5,160.75,0.125,70,87.6
1048,C4,160.75,0.25,49,87.6
1049,F5,160.875,0.125,70,87.6
1050,E5,161.0,0.5,77,87.6
1051,G3,161.0,0.25,53,87.6
1052,C4,161.25,0.25,50,87.6
1053,E5,161.5,0.25,74,87.6
1054,G3,161.5,0.25,53,87.6
1055,C4,161.75,0.25,50,87.6
1056,A5,162.0,0.75,78,87.6
1057,F3,162.0,0.25,57,87.6
1058,C4,162.25,0.25,53,87.6
1059,F3,162.5,0.25,57,87.6
1060,B5,162.75,0.125,71,87.6
1061,C4,162.75,0.25,53,87.6
1062,C6,162.875,0.125,69,87.6
1063,G5,163.0,0.5,79,87.6
1064,E3,163.0,0.25,57,87.6
1065,C4,163.25,0.25,53,87.6
1066,G5,163.5,0.25,77,87.6
1067,E3,163.5,0.25,57,87.6
1068,C4,163.75,0.25,52,87.6
1069,G#5,164.0,0.25,77,87.6
1070,A5,164.25,0.25,74,87.6
1071,F5,164.5,0.25,75,87.6
1072,D4,164.5,0.25,49,87.6
1073,F3,164.5,0.25,49,87.6
1074,D5,164.75,0.25,72,87.6
1075,C5,165.0,0.5,75,87.6
1076,E4,165.0,0.5,49,87.6
1077,G3,165.0,1.0,49,87.6
1078,B4,165.5,0.5,71,87.6
1079,D4,165.5,0.5,49,87.6
1080,C5,166.0,167/1000,75,87.6
1081,E4,166.0,1.0,49,87.6
1082,C4,166.0,1.0,49,87.6
1083,G4,166.167,167/1000,69,87.6
1084,E5,166.333,167/1000,66,87.6
1085,C5,166.5,167/1000,75,87.6
1086,G5,166.667,167/1000,69,87.6
1087,E5,166.833,167/1000,66,87.6
1088,C6,167.0,167/1000,73,87.6
1089,B5,167.167,167/1000,66,87.6
1090,A5,167.333,167/1000,65,87.6
1091,G5,167.5,167/1000,70,87.6
1092,F5,167.667,167/1000,67,87.6
1093,E5,167.833,167/1000,65,87.6
1094,C#5,168.0,167/1000,63,87.6
1095,D5,168.167,167/1000,60,87.6
1096,F5,168.333,167/1000,60,87.6
1097,A5,168.5,167/1000,62,87.6
1098,D4,168.5,0.5,38,87.6
1099,F3,168.5,0.5,38,87.6
1100,A3,168.5,0.5,38,87.6
1101,F5,168.667,167/1000,57,87.6
1102,D5,168.833,167/1000,57,87.6
1103,G5,169.0,167/1000,61,87.6
1104,G3,169.0,1.0,38,87.6
1105,C4,169.0,0.5,38,87.6
1106,E4,169.0,0.5,38,87.6
1107,E5,169.167,167/1000,57,87.6
1108,C5,169.333,167/1000,57,87.6
1109,F5,169.5,167/1000,61,87.6
1110,F4,169.5,0.5,44,87.6
1111,D4,169.5,0.5,44,87.6
1112,D5,169.667,167/1000,55,87.6
1113,B4,169.833,167/1000,55,87.6
1114,C5,170.0,167/1000,75,87.6
1115,C4,170.0,1.0,49,87.6
1116,E4,170.0,1.0,49,87.6
1117,G4,170.167,167/1000,69,87.6
1118,E5,170.333,167/1000,67,87.6
1119,C5,170.5,167/1000,75,87.6
1120,G5,170.667,167/1000,69,87.6
1121,E5,170.833,167/1000,67,87.6
1122,C6,171.0,167/1000,73,87.6
1123,B5,171.167,167/1000,66,87.6
1124,A5,171.333,167/1000,64,87.6
1125,G5,171.5,167/1000,70,87.6
1126,F5,171.667,167/1000,67,87.6
1127,E5,171.833,167/1000,65,87.6
1128,C#5,172.0,167/1000,63,87.6
1129,D5,172.167,167/1000,60,87.6
1130,F5,172.333,167/1000,59,87.6
1131,A5,172.5,167/1000,62,87.6
1132,A3,172.5,0.5,38,87.6
1133,D4,172.5,0.5,38,87.6
1134,F3,172.5,0.5,38,87.6
1135,F5,172.667,167/1000,57,87.6
1136,D5,172.833,167/1000,55,87.6
1137,G5,173.0,167/1000,61,87.6
1138,G3,173.0,1.0,38,87.6
1139,C4,173.0,0.5,38,87.6
1140,E4,173.0,0.5,38,87.6
1141,E5,173.167,167/1000,57,87.6
1142,C5,173.333,167/1000,54,87.6
1143,F5,173.5,167/1000,61,87.6
1144,F4,173.5,0.5,40,87.6
1145,D4,173.5,0.5,40,87.6
1146,D5,173.667,167/1000,55,87.6
1147,B4,173.833,167/1000,55,87.6
1148,C5,174.0,0.125,52,87.6
1149,C4,174.0,0.125,38,87.6
1150,E4,174.0,0.125,38,87.6
1151,G4,174.5,0.125,50,87.6
1152,G3,174.5,0.125,38,87.6
1153,C4,175.0,1.0,50,87.6
1154,C2,175.0,1.0,38,87.6
1155,C3,175.0,1.0,38,87.6
1156,E5,176.0,1.0,50,87.6
1157,C4,176.0,0.25,37,87.6
1158,G4,176.25,0.25,30,87.6
1159,F#4,176.5,0.25,33,87.6
1160,G4,176.75,0.25,30,87.6
1161,F5,177.0,0.125,46,87.6
1162,C4,177.0,0.25,37,87.6
1163,E5,177.125,0.125,46,87.6
1164,D5,177.25,0.125,46,87.6
1165,G4,177.25,0.25,30,87.6
1166,E5,177.375,0.125,46,87.6
1167,G5,177.5,0.25,50,87.6
1168,D4,177.5,0.25,33,87.6
1169,F5,177.75,0.25,46,87.6
1170,G4,177.75,0.25,30,87.6
1171,E5,178.0,0.25,51,87.6
1172,E4,178.0,0.25,37,87.6
1173,D5,178.25,0.25,49,87.6
1174,G4,178.25,0.25,30,87.6
1175,C5,178.5,0.25,49,87.6
1176,F4,178.5,0.25,33,87.6
1177,B4,178.75,0.25,49,87.6
1178,G4,178.75,0.25,30,87.6
1179,C5,179.0,0.125,52,87.6
1180,E4,179.0,0.25,37,87.6
1181,G4,179.25,0.25,30,87.6
1182,C#5,179.5,0.125,55,87.6
1183,B-3,179.5,0.25,33,87.6
1184,G4,179.75,0.25,31,87.6
1185,D5,180.0,0.125,56,87.6
1186,B3,180.0,0.25,38,87.6
1187,G4,180.25,0.25,31,87.6
1188,E-5,180.5,0.125,60,87.6
1189,B3,180.5,0.25,35,87.6
1190,G4,180.75,0.25,32,87.6
1191,E5,181.0,0.125,63,87.6
1192,C4,181.0,0.25,41,87.6
1193,G4,181.25,0.25,33,87.6
1194,G5,181.5,0.25,62,87.6
1195,D4,181.5,0.25,37,87.6
1196,F5,181.75,0.25,57,87.6
1197,G4,181.75,0.25,33,87.6
1198,E5,182.0,0.75,62,87.6
1199,C4,182.0,0.25,40,87.6
1200,G4,182.25,0.25,30,87.6
1201,F#4,182.5,0.25,33,87.6
1202,F5,182.75,0.125,55,87.6
1203,G4,182.75,0.25,30,87.6
1204,E5,182.875,0.125,55,87.6
1205,D5,183.0,0.5,56,87.6
1206,B3,183.0,0.25,37,87.6
1207,G4,183.25,0.25,31,87.6
1208,F#4,183.5,0.25,33,87.6
1209,G4,183.75,0.25,32,87.6
1210,F5,184.0,1.0,58,87.6
1211,B3,184.0,0.25,37,87.6
1212,G4,184.25,0.25,31,87.6
1213,F#4,184.5,0.25,33,87.6
1214,G4,184.75,0.25,31,87.6
1215,G5,185.0,0.125,48,87.6
1216,B3,185.0,0.25,37,87.6
1217,F5,185.125,0.125,49,87.6
1218,E5,185.25,0.125,49,87.6
1219,G4,185.25,0.25,31,87.6
1220,F5,185.375,0.125,49,87.6
1221,A5,185.5,0.25,55,87.6
1222,C4,185.5,0.25,33,87.6
1223,G5,185.75,0.25,52,87.6
1224,G4,185.75,0.25,31,87.6
1225,F5,186.0,0.25,52,87.6
1226,D4,186.0,0.25,37,87.6
1227,E5,186.25,0.25,50,87.6
1228,G4,186.25,0.25,31,87.6
1229,D5,186.5,0.25,50,87.6
1230,E4,186.5,0.25,33,87.6
1231,C5,186.75,0.25,50,87.6
1232,G4,186.75,0.25,31,87.6
1233,B4,187.0,0.25,49,87.6
1234,F4,187.0,0.25,37,87.6
1235,C5,187.25,0.125,50,87.6
1236,G4,187.25,0.25,32,87.6
1237,D5,187.5,0.125,51,87.6
1238,D4,187.5,0.25,34,87.6
1239,E5,187.75,0.125,53,87.6
1240,G4,187.75,0.25,31,87.6
1241,F5,188.0,0.125,54,87.6
1242,B3,188.0,0.25,40,87.6
1243,G5,188.25,0.125,55,87.6
1244,G4,188.25,0.25,31,87.6
1245,A5,188.5,0.125,56,87.6
1246,D4,188.5,0.25,34,87.6
1247,B5,188.75,0.125,58,87.6
1248,G4,188.75,0.25,31,87.6
1249,C6,189.0,0.125,60,87.6
1250,B3,189.0,0.25,46,87.6
1251,D6,189.25,0.125,61,87.6
1252,G4,189.25,0.25,35,87.6
1253,E6,189.5,0.125,62,87.6
1254,G3,189.5,0.25,37,87.6
1255,F6,189.75,0.125,63,87.6
1256,G4,189.75,0.25,35,87.6
1257,E-6,190.0,1.0,79,87.6
1258,C4,190.0,0.25,44,87.6
1259,G4,190.25,0.25,37,87.6
1260,F4,190.5,0.25,40,87.6
1261,G4,190.75,0.25,37,87.6
1262,E6,191.0,0.5,75,87.6
1263,C4,191.0,0.25,44,87.6
1264,G4,191.25,0.25,37,87.6
1265,E4,191.5,0.25,40,87.6
1266,G4,191.75,0.25,37,87.6
1267,E5,192.0,667/1000,64,87.6
1268,C4,192.0,167/1000,48,87.6
1269,E4,192.167,167/1000,43,87.6
1270,G4,192.333,167/1000,43,87.6
1271,C5,192.5,0.5,46,87.6
1272,A5,192.667,167/1000,60,87.6
1273,C6,192.833,167/1000,60,87.6
1274,E6,193.0,167/1000,60,87.6
1275,C6,193.167,167/1000,58,87.6
1276,A5,193.333,167/1000,58,87.6
1277,C6,193.5,167/1000,60,87.6
1278,A5,193.667,167/1000,58,87.6
1279,E5,193.833,167/1000,58,87.6
1280,D5,194.0,667/1000,64,87.6
1281,B3,194.0,167/1000,48,87.6
1282,D4,194.167,167/1000,43,87.6
1283,G4,194.333,167/1000,43,87.6
1284,B4,194.5,0.5,48,87.6
1285,G5,194.667,167/1000,60,87.6
1286,B5,194.833,167/1000,60,87.6
1287,D6,195.0,167/1000,60,87.6
1288,B5,195.167,167/1000,59,87.6
1289,G5,195.333,167/1000,59,87.6
1290,B5,195.5,167/1000,60,87.6
1291,G5,195.667,167/1000,58,87.6
1292,D5,195.833,167/1000,58,87.6
1293,A3,196.0,0.5,50,87.6
1294,D4,196.0,0.5,50,87.6
1295,F#3,196.0,0.5,50,87.6
1296,D5,196.167,167/1000,60,87.6
1297,A5,196.333,167/1000,60,87.6
1298,C6,196.5,167/1000,60,87.6
1299,A5,196.667,167/1000,58,87.6
1300,D5,196.833,167/1000,60,87.6
1301,B3,197.0,0.5,52,87.6
1302,G3,197.0,0.5,52,87.6
1303,D4,197.0,0.5,52,87.6
1304,D5,197.167,167/1000,60,87.6
1305,G5,197.333,167/1000,60,87.6
1306,B5,197.5,167/1000,60,87.6
1307,G5,197.667,167/1000,59,87.6
1308,D5,197.833,167/1000,60,87.6
1309,A5,198.0,0.375,68,87.6
1310,D3,198.0,0.25,57,87.6
1311,D4,198.25,0.25,39,87.6
1312,F#5,198.375,0.125,63,87.6
1313,D5,198.5,0.5,60,87.6
1314,C#4,198.5,0.25,40,87.6
1315,D4,198.75,0.25,41,87.6
1316,C#4,199.0,0.25,44,87.6
1317,D4,199.25,0.25,45,87.6
1318,C4,199.5,0.25,47,87.6
1319,D4,199.75,0.25,49,87.6
1320,G4,199.875,0.125,43,87.6
1321,G5,200.0,1.25,64,87.6
1322,B3,200.0,0.25,49,87.6
1323,D4,200.25,0.25,44,87.6
1324,G3,200.5,0.25,35,87.6
1325,D4,200.75,0.25,30,87.6
1326,B3,201.0,0.25,37,87.6
1327,F#5,201.25,0.25,50,87.6
1328,D4,201.25,0.25,32,87.6
1329,E5,201.5,0.25,50,87.6
1330,G3,201.5,0.25,35,87.6
1331,D5,201.75,121/500,50,87.6
1332,D4,201.75,0.25,34,87.6
1333,D5,202.0,0.25,53,87.6
1334,A3,202.0,0.25,37,87.6
1335,C5,202.25,0.25,49,87.6
1336,D4,202.25,0.25,34,87.6
1337,B4,202.5,0.25,50,87.6
1338,G3,202.5,0.25,37,87.6
1339,A4,202.75,0.25,47,87.6
1340,D4,202.75,0.25,34,87.6
1341,D5,203.0,0.125,54,87.6
1342,F#3,203.0,0.25,37,87.6
1343,D4,203.25,0.25,34,87.6
1344,C5,203.5,0.125,51,87.6
1345,D3,203.5,0.25,37,87.6
1346,D4,203.75,0.25,34,87.6
1347,B-4,204.0,0.5,53,87.6
1348,G3,204.0,0.25,38,87.6
1349,D4,204.25,0.25,34,87.6
1350,B4,204.5,0.5,51,87.6
1351,C#4,204.5,0.25,34,87.6
1352,D4,204.75,0.25,34,87.6
1353,C#4,205.0,0.25,39,87.6
1354,D4,205.25,0.25,41,87.6
1355,E4,205.5,0.25,44,87.6
1356,D4,205.75,0.25,41,87.6
1357,C4,206.0,0.25,49,87.6
1358,D4,206.25,0.25,47,87.6
1359,B3,206.5,0.25,49,87.6
1360,D4,206.75,0.25,47,87.6
1361,C4,207.0,0.25,49,87.6
1362,D4,207.25,0.25,47,87.6
1363,A3,207.5,0.25,49,87.6
1364,D4,207.75,0.25,47,87.6
1365,G4,207.875,0.125,43,87.6
1366,G5,208.0,1.25,64,87.6
1367,B3,208.0,0.25,49,87.6
1368,D4,208.25,0.25,42,87.6
1369,G3,208.5,0.25,35,87.6
1370,D4,208.75,0.25,30,87.6
1371,B3,209.0,0.25,37,87.6
1372,F#5,209.25,0.25,50,87.6
1373,D4,209.25,0.25,30,87.6
1374,E5,209.5,0.25,50,87.6
1375,G3,209.5,0.25,35,87.6
1376,D5,209.75,6/25,48,87.6
1377,D4,209.75,0.25,30,87.6
1378,D5,210.0,0.25,53,87.6
1379,A3,210.0,0.25,37,87.6
1380,C5,210.25,0.25,47,87.6
1381,D4,210.25,0.25,34,87.6
1382,B4,210.5,0.25,50,87.6
1383,G3,210.5,0.25,37,87.6
1384,A4,210.75,0.25,50,87.6
1385,D4,210.75,0.25,34,87.6
1386,D5,211.0,0.125,54,87.6
1387,F#3,211.0,0.25,37,87.6
1388,D4,211.25,0.25,34,87.6
1389,C5,211.5,0.125,51,87.6
1390,D3,211.5,0.25,37,87.6
1391,D4,211.75,0.25,34,87.6
1392,B4,212.0,0.5,54,87.6
1393,G3,212.0,0.25,37,87.6
1394,D4,212.25,0.25,34,87.6
1395,B3,212.5,0.25,37,87.6
1396,D4,212.75,0.25,34,87.6
1397,E5,213.0,0.125,52,87.6
1398,G3,213.0,0.25,37,87.6
1399,F#5,213.125,0.125,55,87.6
1400,E5,213.25,0.125,53,87.6
1401,E4,213.25,0.25,29,87.6
1402,F#5,213.375,0.125,62,87.6
1403,G5,213.5,0.25,62,87.6
1404,C4,213.5,0.25,32,87.6
1405,G5,213.75,0.125,60,87.6
1406,E4,213.75,0.25,29,87.6
1407,G5,214.0,0.5,60,87.6
1408,G3,214.0,0.25,32,87.6
1409,D4,214.25,0.25,30,87.6
1410,B3,214.5,0.25,32,87.6
1411,D4,214.75,0.25,31,87.6
1412,A5,215.0,0.125,52,87.6
1413,F3,215.0,0.25,32,87.6
1414,B5,215.125,0.125,55,87.6
1415,A5,215.25,0.125,52,87.6
1416,C4,215.25,0.25,30,87.6
1417,B5,215.375,0.125,62,87.6
1418,C6,215.5,0.25,62,87.6
1419,A3,215.5,0.25,32,87.6
1420,C6,215.75,0.125,60,87.6
1421,C4,215.75,0.25,30,87.6
1422,C6,216.0,0.5,60,87.6
1423,E3,216.0,0.25,32,87.6
1424,C4,216.25,0.25,30,87.6
1425,G3,216.5,0.25,32,87.6
1426,C4,216.75,0.25,30,87.6
1427,C6,217.0,0.125,51,87.6
1428,C3,217.0,0.25,40,87.6
1429,D6,217.125,0.125,54,87.6
1430,C6,217.25,0.125,51,87.6
1431,G3,217.25,0.25,34,87.6
1432,D6,217.375,0.125,63,87.6
1433,E6,217.5,0.25,63,87.6
1434,E3,217.5,0.25,40,87.6
1435,E6,217.75,0.125,60,87.6
1436,G3,217.75,0.25,33,87.6
1437,E6,218.0,0.25,60,87.6
1438,D3,218.0,0.25,39,87.6
1439,D6,218.25,0.25,61,87.6
1440,B3,218.25,0.25,34,87.6
1441,C6,218.5,0.125,56,87.6
1442,G3,218.5,0.25,39,87.6
1443,B5,218.75,0.125,56,87.6
1444,B3,218.75,0.25,34,87.6
1445,A5,219.0,0.125,56,87.6
1446,D3,219.0,0.25,39,87.6
1447,C4,219.25,0.25,34,87.6
1448,D6,219.5,0.125,56,87.6
1449,F#3,219.5,0.25,38,87.6
1450,C4,219.75,0.25,33,87.6
1451,C6,220.0,0.5,62,87.6
1452,G3,220.0,0.25,40,87.6
1453,D4,220.25,0.25,35,87.6
1454,B5,220.5,0.5,58,87.6
1455,B3,220.5,0.25,40,87.6
1456,D4,220.75,0.25,34,87.6
1457,E5,221.0,0.125,51,87.6
1458,G3,221.0,0.25,32,87.6
1459,F#5,221.125,0.125,54,87.6
1460,E5,221.25,0.125,51,87.6
1461,E4,221.25,0.25,30,87.6
1462,F#5,221.375,0.125,64,87.6
1463,G5,221.5,0.25,64,87.6
1464,C4,221.5,0.25,32,87.6
1465,G5,221.75,0.125,60,87.6
1466,E4,221.75,0.25,30,87.6
1467,G5,222.0,0.5,60,87.6
1468,G3,222.0,0.25,32,87.6
1469,D4,222.25,0.25,30,87.6
1470,B3,222.5,0.25,32,87.6
1471,D4,222.75,0.25,30,87.6
1472,A5,223.0,0.125,50,87.6
1473,F3,223.0,0.25,32,87.6
1474,B5,223.125,0.125,54,87.6
1475,A5,223.25,0.125,51,87.6
1476,C4,223.25,0.25,29,87.6
1477,B5,223.375,0.125,66,87.6
1478,C6,223.5,0.25,66,87.6
1479,A3,223.5,0.25,32,87.6
1480,C6,223.75,0.125,60,87.6
1481,C4,223.75,0.25,29,87.6
1482,C6,224.0,0.5,60,87.6
1483,E3,224.0,0.25,34,87.6
1484,C4,224.25,0.25,30,87.6
1485,G3,224.5,0.25,33,87.6
1486,C4,224.75,0.25,29,87.6
1487,C6,225.0,0.125,50,87.6
1488,C3,225.0,0.25,41,87.6
1489,D6,225.125,0.125,54,87.6
1490,C6,225.25,0.125,51,87.6
1491,G3,225.25,0.25,38,87.6
1492,D6,225.375,0.125,64,87.6
1493,E6,225.5,0.25,64,87.6
1494,E3,225.5,0.25,40,87.6
1495,E6,225.75,0.125,61,87.6
1496,G3,225.75,0.25,37,87.6
1497,E6,226.0,0.25,62,87.6
1498,D3,226.0,0.25,40,87.6
1499,D6,226.25,0.25,61,87.6
1500,B3,226.25,0.25,37,87.6
1501,C6,226.5,0.125,61,87.6
1502,G3,226.5,0.25,39,87.6
1503,B5,226.75,0.125,61,87.6
1504,B3,226.75,0.25,32,87.6
1505,B5,227.0,0.25,62,87.6
1506,D3,227.0,0.25,38,87.6
1507,A5,227.25,0.25,61,87.6
1508,C4,227.25,0.25,33,87.6
1509,G5,227.5,0.125,61,87.6
1510,A3,227.5,0.25,38,87.6
1511,F#5,227.75,0.125,61,87.6
1512,C4,227.75,0.25,32,87.6
1513,D6,228.0,667/1000,84,87.6
1514,B3,228.5,0.5,38,87.6
1515,G3,228.5,0.5,38,87.6
1516,B5,228.667,167/1000,61,87.6
1517,G5,228.833,167/1000,61,87.6
1518,F#5,229.0,167/1000,63,87.6
1519,A3,229.0,0.5,44,87.6
1520,C4,229.0,0.5,44,87.6
1521,A5,229.167,167/1000,63,87.6
1522,D5,229.333,167/1000,61,87.6
1523,G5,229.5,167/1000,63,87.6
1524,B3,229.5,0.5,49,87.6
1525,D4,229.5,0.5,49,87.6
1526,B5,229.667,167/1000,61,87.6
1527,D5,229.833,167/1000,61,87.6
1528,A5,230.0,667/1000,70,87.6
1529,F#3,230.5,0.5,37,87.6
1530,D3,230.5,0.5,37,87.6
1531,F#5,230.667,167/1000,58,87.6
1532,D5,230.833,167/1000,59,87.6
1533,C#5,231.0,167/1000,61,87.6
1534,G3,231.0,0.5,40,87.6
1535,E3,231.0,0.5,40,87.6
1536,D5,231.167,167/1000,57,87.6
1537,A4,231.333,167/1000,57,87.6
1538,C5,231.5,167/1000,60,87.6
1539,A3,231.5,0.5,44,87.6
1540,F#3,231.5,0.5,44,87.6
1541,D5,231.667,167/1000,57,87.6
1542,A4,231.833,167/1000,57,87.6
1543,D6,232.0,667/1000,77,87.6
1544,G3,232.5,0.5,38,87.6
1545,B3,232.5,0.5,38,87.6
1546,B5,232.667,167/1000,61,87.6
1547,G5,232.833,167/1000,61,87.6
1548,F#5,233.0,167/1000,63,87.6
1549,A3,233.0,0.5,44,87.6
1550,C4,233.0,0.5,44,87.6
1551,A5,233.167,167/1000,63,87.6
1552,D5,233.333,167/1000,61,87.6
1553,G5,233.5,167/1000,63,87.6
1554,D4,233.5,0.5,49,87.6
1555,B3,233.5,0.5,49,87.6
1556,B5,233.667,167/1000,61,87.6
1557,D5,233.833,167/1000,61,87.6
1558,A5,234.0,667/1000,71,87.6
1559,D3,234.5,0.5,37,87.6
1560,F#3,234.5,0.5,37,87.6
1561,F#5,234.667,167/1000,55,87.6
1562,D5,234.833,167/1000,55,87.6
1563,C#5,235.0,167/1000,57,87.6
1564,G3,235.0,0.5,40,87.6
1565,E3,235.0,0.5,40,87.6
1566,D5,235.167,167/1000,54,87.6
1567,A4,235.333,167/1000,54,87.6
1568,C5,235.5,167/1000,55,87.6
1569,A3,235.5,0.5,44,87.6
1570,F#3,235.5,0.5,44,87.6
1571,D5,235.667,167/1000,53,87.6
1572,A4,235.833,167/1000,53,87.6
1573,B4,236.0,167/1000,53,87.6
1574,G3,236.0,1.0,44,87.6
1575,G4,236.167,167/1000,54,87.6
1576,B4,236.333,167/1000,56,87.6
1577,D5,236.5,167/1000,57,87.6
1578,B4,236.667,167/1000,58,87.6
1579,D5,236.833,167/1000,61,87.6
1580,G5,237.0,167/1000,61,87.6
1581,D5,237.167,167/1000,63,87.6
1582,G5,237.333,167/1000,64,87.6
1583,B5,237.5,167/1000,64,87.6
1584,G5,237.667,167/1000,67,87.6
1585,B5,237.833,167/1000,68,87.6
1586,D6,238.0,167/1000,69,87.6
1587,G3,238.0,2.0,44,87.6
1588,G2,238.0,2.0,44,87.6
1589,D3,238.0,2.0,44,87.6
1590,B2,238.0,2.0,44,87.6
1591,B5,238.167,167/1000,70,87.6
1592,D6,238.333,167/1000,73,87.6
1593,F6,238.5,167/1000,73,87.6
1594,D6,238.667,167/1000,70,87.6
1595,B5,238.833,167/1000,68,87.6
1596,G5,239.0,167/1000,66,87.6
1597,F5,239.167,167/1000,64,87.6
1598,D5,239.333,167/1000,61,87.6
1599,B4,239.5,167/1000,60,87.6
1600,G4,239.667,167/1000,56,87.6
1601,F4,239.833,167/1000,54,87.6
1602,E4,240.0,0.125,51,87.6
1603,C3,240.0,1.0,38,87.6
1604,G3,240.0,1.0,44,87.6
1605,E5,240.25,0.25,48,87.6
1606,E-5,240.5,0.25,48,87.6
1607,E5,240.75,0.25,48,87.6
1608,E-5,241.0,0.25,49,87.6
1609,E5,241.25,0.25,49,87.6
1610,E-5,241.5,0.25,49,87.6
1611,E5,241.75,0.25,49,87.6
1612,G4,242.0,1.5,53,87.6
1613,C#3,242.5,0.5,37,87.6
1614,B-3,242.5,0.5,37,87.6
1615,D3,243.0,0.5,40,87.6
1616,B3,243.0,0.5,40,87.6
1617,B4,243.5,0.25,49,87.6
1618,F#4,243.5,0.5,49,87.6
1619,C4,243.5,0.5,44,87.6
1620,A4,243.75,0.25,49,87.6
1621,G3,244.0,1.0,44,87.6
1622,B3,244.0,1.0,44,87.6
1623,G4,244.167,167/1000,54,87.6
1624,B4,244.333,167/1000,56,87.6
1625,D5,244.5,167/1000,57,87.6
1626,B4,244.667,167/1000,58,87.6
1627,D5,244.833,167/1000,61,87.6
1628,G5,245.0,167/1000,61,87.6
1629,D5,245.167,167/1000,63,87.6
1630,G5,245.333,167/1000,64,87.6
1631,B5,245.5,167/1000,64,87.6
1632,G5,245.667,167/1000,67,87.6
1633,B5,245.833,167/1000,68,87.6
1634,D6,246.0,167/1000,69,87.6
1635,G3,246.0,2.0,44,87.6
1636,G2,246.0,2.0,44,87.6
1637,D3,246.0,2.0,44,87.6
1638,B2,246.0,2.0,44,87.6
1639,B5,246.167,167/1000,70,87.6
1640,D6,246.333,167/1000,73,87.6
1641,F6,246.5,167/1000,73,87.6
1642,D6,246.667,167/1000,70,87.6
1643,B5,246.833,167/1000,68,87.6
1644,G5,247.0,167/1000,66,87.6
1645,F5,247.167,167/1000,64,87.6
1646,D5,247.333,167/1000,61,87.6
1647,B4,247.5,167/1000,60,87.6
1648,G4,247.667,167/1000,56,87.6
1649,F4,247.833,167/1000,54,87.6
1650,E4,248.0,0.125,51,87.6
1651,C3,248.0,1.0,38,87.6
1652,G3,248.0,1.0,44,87.6
1653,E5,248.25,0.25,48,87.6
1654,E-5,248.5,0.25,48,87.6
1655,E5,248.75,0.25,46,87.6
1656,E-5,249.0,0.25,49,87.6
1657,E5,249.25,0.25,47,87.6
1658,E-5,249.5,0.25,49,87.6
1659,E5,249.75,0.25,47,87.6
1660,B-3,250.0,1.0,41,87.6
1661,C#3,250.0,1.0,41,87.6
1662,G5,250.25,0.25,54,87.6
1663,F#5,250.5,0.25,58,87.6
1664,G5,250.75,0.25,55,87.6
1665,F#5,251.0,0.25,61,87.6
1666,G5,251.25,0.25,59,87.6
1667,F#5,251.5,0.25,61,87.6
1668,G5,251.75,6/25,64,87.6
1669,G5,252.0,0.25,62,87.6
1670,D3,252.0,0.25,48,87.6
1671,D5,252.25,229/1000,51,87.6
1672,B3,252.25,0.25,40,87.6
1673,D5,252.5,0.125,54,87.6
1674,G3,252.5,0.25,41,87.6
1675,D5,252.75,0.125,51,87.6
1676,B3,252.75,0.25,39,87.6
1677,E5,253.0,0.25,57,87.6
1678,D3,253.0,0.25,48,87.6
1679,D5,253.25,229/1000,53,87.6
1680,B3,253.25,0.25,40,87.6
1681,C5,253.5,0.125,52,87.6
1682,G3,253.5,0.25,41,87.6
1683,B4,253.75,0.125,51,87.6
1684,B3,253.75,0.25,40,87.6
1685,B4,254.0,0.5,49,87.6
1686,D3,254.0,0.25,43,87.6
1687,D4,254.25,0.25,37,87.6
1688,G3,254.5,0.25,38,87.6
1689,D4,254.75,0.25,36,87.6
1690,A4,255.0,0.125,48,87.6
1691,D3,255.0,0.25,39,87.6
1692,B4,255.125,0.125,45,87.6
1693,A4,255.25,0.125,48,87.6
1694,C4,255.25,0.25,30,87.6
1695,B4,255.375,0.125,45,87.6
1696,A4,255.5,83/1000,48,87.6
1697,F#3,255.5,0.25,32,87.6
1698,B4,255.583,83/1000,46,87.6
1699,A4,255.669,83/1000,46,87.6
1700,G4,255.75,0.125,51,87.6
1701,C4,255.75,0.25,30,87.6
1702,A4,255.875,0.125,48,87.6
1703,G4,256.0,0.5,50,87.6
1704,G3,256.0,0.25,35,87.6
1705,B3,256.25,0.25,30,87.6
1706,G4,256.5,0.25,32,87.6
1707,B3,256.75,0.25,30,87.6
1708,D5,257.0,0.688,50,87.6
1709,G3,257.0,0.25,35,87.6
1710,B3,257.25,0.25,30,87.6
1711,G4,257.5,0.25,32,87.6
1712,F#5,257.688,0.062,48,87.6
1713,E5,257.75,0.125,48,87.6
1714,B3,257.75,0.25,30,87.6
1715,D5,257.875,0.125,48,87.6
1716,D6,258.0,0.125,57,87.6
1717,G3,258.0,0.25,35,87.6
1718,A3,258.25,0.25,30,87.6
1719,C6,258.5,0.125,56,87.6
1720,F#4,258.5,0.25,32,87.6
1721,A3,258.75,0.25,30,87.6
1722,B5,259.0,0.125,54,87.6
1723,G3,259.0,0.25,35,87.6
1724,C4,259.25,0.25,30,87.6
1725,A5,259.5,0.125,51,87.6
1726,F#4,259.5,0.25,32,87.6
1727,C4,259.75,0.25,30,87.6
1728,G5,260.0,1.0,55,87.6
1729,G3,260.0,0.25,35,87.6
1730,B3,260.25,0.25,30,87.6
1731,G4,260.5,0.25,32,87.6
1732,B3,260.75,0.25,31,87.6
1733,D5,261.0,0.688,50,87.6
1734,G3,261.0,0.25,35,87.6
1735,B3,261.25,0.25,30,87.6
1736,G4,261.5,0.25,32,87.6
1737,F#5,261.688,0.062,48,87.6
1738,E5,261.75,0.125,48,87.6
1739,B3,261.75,0.25,30,87.6
1740,D5,261.875,0.125,48,87.6
1741,D6,262.0,0.125,56,87.6
1742,G3,262.0,0.25,35,87.6
1743,A3,262.25,0.25,30,87.6
1744,C6,262.5,0.125,53,87.6
1745,F#4,262.5,0.25,32,87.6
1746,A3,262.75,0.25,30,87.6
1747,B5,263.0,0.125,52,87.6
1748,G3,263.0,0.25,35,87.6
1749,C4,263.25,0.25,30,87.6
1750,A5,263.5,0.125,49,87.6
1751,F#4,263.5,0.25,32,87.6
1752,C4,263.75,0.25,30,87.6
1753,G5,264.0,0.5,53,87.6
1754,G3,264.0,0.25,35,87.6
1755,B3,264.25,0.25,30,87.6
1756,G4,264.5,0.25,32,87.6
1757,B3,264.75,0.25,30,87.6
1758,D5,264.917,83/1000,56,87.6
1759,D6,265.0,0.75,70,87.6
1760,G3,265.0,0.25,35,87.6
1761,C4,265.25,0.25,30,87.6
1762,F#4,265.5,0.25,32,87.6
1763,C6,265.75,83/1000,52,87.6
1764,C4,265.75,0.25,30,87.6
1765,B5,265.833,83/1000,51,87.6
1766,A5,265.917,83/1000,48,87.6
1767,G5,266.0,0.5,53,87.6
1768,G3,266.0,0.25,35,87.6
1769,B3,266.25,0.25,30,87.6
1770,G4,266.5,0.25,32,87.6
1771,B3,266.75,0.25,30,87.6
1772,D5,266.917,83/1000,56,87.6
1773,D6,267.0,0.75,71,87.6
1774,G3,267.0,0.25,35,87.6
1775,C4,267.25,0.25,30,87.6
1776,F#4,267.5,0.25,32,87.6
1777,C6,267.75,83/1000,53,87.6
1778,C4,267.75,0.25,30,87.6
1779,B5,267.833,83/1000,51,87.6
1780,A5,267.917,83/1000,49,87.6
1781,G5,268.0,0.5,53,87.6
1782,G4,268.0,0.5,31,87.6
1783,B3,268.0,0.5,31,87.6
1784,G3,268.0,0.5,31,87.6
1785,D4,268.5,0.375,42,87.6
1786,G4,268.875,0.125,41,87.6
1787,B4,269.0,0.25,43,87.6
1788,D3,269.5,0.5,30,87.6
1789,A4,269.5,0.5,36,87.6
1790,C4,269.5,0.5,36,87.6
1791,G3,270.0,0.5,33,87.6
1792,C4,270.0,1.0,36,87.6
1793,A4,270.0,1.0,36,87.6
1794,D3,270.5,0.5,32,87.6
1795,G2,271.0,0.5,33,87.6
1796,G4,271.0,0.5,37,87.6
1797,B3,271.0,0.5,37,87.6
1798,D5,272.0,0.5,47,87.6
1799,D4,272.0,1.0,39,87.6
1800,B3,272.0,0.5,39,87.6
1801,B4,272.5,0.25,43,87.6
1802,G3,272.5,0.25,38,87.6
1803,B4,273.0,0.25,43,87.6
1804,D4,273.0,0.25,40,87.6
1805,G3,273.0,0.25,40,87.6
1806,B4,273.5,1/20,36,87.6
1807,C5,273.5,1/20,36,87.6
1808,D4,273.5,0.5,38,87.6
1809,G3,273.5,0.5,38,87.6
1810,B4,273.6,1/20,36,87.6
1811,C5,273.6,1/20,36,87.6
1812,B4,273.7,1/20,36,87.6
1813,A4,273.75,0.125,41,87.6
1814,B4,273.875,0.125,41,87.6
1815,D5,274.0,0.5,49,87.6
1816,B3,274.0,0.5,40,87.6
1817,D4,274.0,1.0,40,87.6
1818,C5,274.5,0.125,43,87.6
1819,A3,274.5,0.125,38,87.6
1820,A4,275.0,1.0,43,87.6
1821,F#3,275.0,1.0,38,87.6
1822,D4,275.0,1.0,38,87.6
1823,C5,276.0,0.5,51,87.6
1824,D4,276.0,1.0,41,87.6
1825,A3,276.0,0.5,41,87.6
1826,B4,276.5,0.125,44,87.6
1827,G3,276.5,0.125,38,87.6
1828,D5,277.0,0.5,53,87.6
1829,D4,277.0,1.0,40,87.6
1830,B3,277.0,0.5,40,87.6
1831,C5,277.5,0.125,43,87.6
1832,A3,277.5,0.125,38,87.6
1833,E5,278.0,1.0,60,87.6
1834,D4,278.0,1.5,50,87.6
1835,C4,278.0,1.0,50,87.6
1836,D5,279.0,0.5,49,87.6
1837,B3,279.0,0.5,40,87.6
1838,D5,280.0,0.5,60,87.6
1839,G4,280.5,0.25,50,87.6
1840,G4,281.0,0.5,50,87.6
1841,B2,281.0,1.0,38,87.6
1842,D3,281.0,1.0,38,87.6
1843,G#4,281.5,1/20,42,87.6
1844,A4,281.5,1/20,42,87.6
1845,G#4,281.6,1/20,42,87.6
1846,A4,281.6,1/20,42,87.6
1847,G#4,281.7,1/20,42,87.6
1848,F#4,281.75,0.125,43,87.6
1849,G#4,281.875,0.125,43,87.6
1850,A4,282.0,0.5,50,87.6
1851,C3,282.0,1.0,38,87.6
1852,E3,282.0,1.0,38,87.6
1853,C5,282.5,0.125,50,87.6
1854,E5,283.0,1.0,60,87.6
1855,C#3,283.0,1.0,40,87.6
1856,G3,283.0,1.0,40,87.6
1857,D5,284.0,0.5,48,87.6
1858,D3,284.0,2.0,34,87.6
1859,B3,284.0,1.0,34,87.6
1860,G4,284.5,0.125,43,87.6
1861,C5,285.0,0.5,47,87.6
1862,A3,285.0,1.0,34,87.6
1863,F#4,285.5,0.125,43,87.6
1864,A4,286.0,1.0,43,87.6
1865,C4,286.0,1.0,39,87.6
1866,G3,286.0,1.5,39,87.6
1867,G4,287.0,0.5,41,87.6
1868,B3,287.0,0.5,35,87.6
1869,D5,288.0,0.5,47,87.6
1870,B3,288.0,0.25,38,87.6
1871,D4,288.25,0.25,30,87.6
1872,B4,288.5,0.25,43,87.6
1873,G3,288.5,0.25,35,87.6
1874,D4,288.75,0.25,30,87.6
1875,B4,289.0,0.25,43,87.6
1876,G3,289.0,0.25,38,87.6
1877,D4,289.25,0.25,32,87.6
1878,G#3,289.5,0.25,37,87.6
1879,B4,289.5,1/20,36,87.6
1880,C5,289.5,1/20,36,87.6
1881,B4,289.6,1/20,36,87.6
1882,C5,289.6,1/20,36,87.6
1883,B4,289.7,1/20,36,87.6
1884,A4,289.75,0.125,41,87.6
1885,D4,289.75,0.25,32,87.6
1886,B4,289.875,0.125,41,87.6
1887,D5,290.0,0.5,49,87.6
1888,A3,290.0,0.25,40,87.6
1889,D4,290.25,0.25,31,87.6
1890,C5,290.5,0.125,43,87.6
1891,G3,290.5,0.25,35,87.6
1892,D4,290.75,0.25,30,87.6
1893,A4,291.0,1.0,43,87.6
1894,F#3,291.0,0.25,38,87.6
1895,D4,291.25,0.25,35,87.6
1896,D3,291.5,0.25,38,87.6
1897,D4,291.75,0.25,34,87.6
1898,C5,292.0,0.5,51,87.6
1899,G3,292.0,0.25,38,87.6
1900,G4,292.25,0.25,34,87.6
1901,B4,292.5,0.125,44,87.6
1902,B3,292.5,0.25,38,87.6
1903,G4,292.75,0.25,33,87.6
1904,D5,293.0,0.5,53,87.6
1905,A3,293.0,0.25,40,87.6
1906,G4,293.25,0.25,38,87.6
1907,C5,293.5,0.125,43,87.6
1908,C4,293.5,0.25,40,87.6
1909,G4,293.75,0.25,38,87.6
1910,E5,294.0,1.0,60,87.6
1911,C4,294.0,0.25,47,87.6
1912,G4,294.25,0.25,38,87.6
1913,E4,294.5,0.25,40,87.6
1914,G4,294.75,0.25,38,87.6
1915,D5,295.0,0.5,49,87.6
1916,B3,295.0,0.25,40,87.6
1917,G4,295.25,0.25,33,87.6
1918,D4,295.5,0.25,38,87.6
1919,G4,295.75,0.25,34,87.6
1920,D5,296.0,0.5,54,87.6
1921,A3,296.0,0.25,39,87.6
1922,G4,296.25,0.25,35,87.6
1923,C5,296.5,0.125,47,87.6
1924,C4,296.5,0.25,39,87.6
1925,G4,296.75,0.25,34,87.6
1926,E5,297.0,0.5,55,87.6
1927,B3,297.0,0.25,41,87.6
1928,G4,297.25,0.25,37,87.6
1929,D5,297.5,0.125,43,87.6
1930,D4,297.5,0.25,40,87.6
1931,G4,297.75,0.25,37,87.6
1932,F5,298.0,1.0,61,87.6
1933,D4,298.0,0.25,50,87.6
1934,G4,298.25,0.25,38,87.6
1935,F4,298.5,0.25,41,87.6
1936,G4,298.75,0.25,38,87.6
1937,E5,299.0,0.5,51,87.6
1938,C4,299.0,0.25,41,87.6
1939,G4,299.25,0.25,37,87.6
1940,E4,299.5,0.25,39,87.6
1941,G4,299.75,0.25,37,87.6
1942,E5,300.0,0.5,56,87.6
1943,B3,300.0,0.25,40,87.6
1944,G4,300.25,0.25,38,87.6
1945,D5,300.5,0.125,49,87.6
1946,D4,300.5,0.25,40,87.6
1947,G4,300.75,0.25,37,87.6
1948,F5,301.0,0.5,57,87.6
1949,C4,301.0,0.25,45,87.6
1950,G4,301.25,0.25,40,87.6
1951,E5,301.5,0.125,47,87.6
1952,E4,301.5,0.25,45,87.6
1953,G4,301.75,0.25,40,87.6
1954,G5,302.0,1.0,64,87.6
1955,E4,302.0,0.25,52,87.6
1956,G4,302.25,0.25,41,87.6
1957,F#4,302.5,0.25,45,87.6
1958,G4,302.75,0.25,40,87.6
1959,F5,303.0,0.5,54,87.6
1960,D4,303.0,0.25,45,87.6
1961,G4,303.25,0.25,38,87.6
1962,F#4,303.5,0.25,40,87.6
1963,G4,303.75,0.25,38,87.6
1964,E5,304.0,0.75,56,87.6
1965,C4,304.0,0.25,40,87.6
1966,G4,304.25,0.25,35,87.6
1967,F#4,304.5,0.25,37,87.6
1968,F5,304.75,0.125,53,87.6
1969,G4,304.75,0.25,35,87.6
1970,G5,304.875,0.125,53,87.6
1971,F5,305.0,0.5,56,87.6
1972,B3,305.0,0.25,40,87.6
1973,G4,305.25,0.25,35,87.6
1974,E5,305.5,0.25,56,87.6
1975,C4,305.5,0.25,37,87.6
1976,G4,305.75,0.25,34,87.6
1977,D5,306.0,1.0,55,87.6
1978,G3,306.0,0.25,37,87.6
1979,G4,306.25,0.25,30,87.6
1980,B3,306.5,0.25,33,87.6
1981,G4,306.75,0.25,30,87.6
1982,G3,307.0,0.25,38,87.6
1983,G4,307.25,0.25,33,87.6
1984,G5,307.5,0.25,64,87.6
1985,B3,307.5,0.25,31,87.6
1986,G4,307.75,0.25,31,87.6
1987,F5,308.0,0.5,63,87.6
1988,G3,308.0,0.25,34,87.6
1989,G4,308.25,0.25,29,87.6
1990,E-5,308.5,0.5,44,87.6
1991,C4,308.5,0.25,31,87.6
1992,G4,308.75,0.25,30,87.6
1993,G3,309.0,0.25,33,87.6
1994,G4,309.25,0.25,30,87.6
1995,C5,309.5,0.25,43,87.6
1996,E-4,309.5,0.25,31,87.6
1997,G4,309.75,0.25,29,87.6
1998,B4,310.0,0.5,50,87.6
1999,G3,310.0,0.25,32,87.6
2000,G4,310.25,0.25,30,87.6
2001,D5,310.5,0.5,47,87.6
2002,D4,310.5,0.25,32,87.6
2003,G4,310.75,0.25,30,87.6
2004,G3,311.0,0.25,37,87.6
2005,G4,311.25,0.25,30,87.6
2006,G5,311.5,0.25,64,87.6
2007,B3,311.5,0.25,32,87.6
2008,G4,311.75,0.25,30,87.6
2009,G3,312.0,0.25,35,87.6
2010,G4,312.25,0.25,30,87.6
2011,F5,312.5,0.25,47,87.6
2012,C4,312.5,0.25,32,87.6
2013,E-5,312.75,0.25,47,87.6
2014,G4,312.75,0.25,30,87.6
2015,G3,313.0,0.25,37,87.6
2016,G4,313.25,0.25,30,87.6
2017,D5,313.5,0.25,43,87.6
2018,E-4,313.5,0.25,33,87.6
2019,C5,313.75,0.25,43,87.6
2020,G4,313.75,0.25,30,87.6
2021,B4,314.0,0.5,51,87.6
2022,G3,314.0,0.25,35,87.6
2023,G4,314.25,0.25,30,87.6
2024,D5,314.5,0.5,43,87.6
2025,D4,314.5,0.25,32,87.6
2026,G4,314.75,0.25,30,87.6
2027,G3,315.0,0.25,45,87.6
2028,G5,315.25,0.25,61,87.6
2029,G4,315.25,0.25,35,87.6
2030,F#5,315.5,0.25,62,87.6
2031,B3,315.5,0.25,38,87.6
2032,G5,315.75,0.25,61,87.6
2033,G4,315.75,0.25,36,87.6
2034,G#3,316.0,0.25,45,87.6
2035,E-5,316.25,0.25,57,87.6
2036,G4,316.25,0.25,30,87.6
2037,D5,316.5,0.25,60,87.6
2038,C4,316.5,0.25,33,87.6
2039,E-5,316.75,0.25,58,87.6
2040,G4,316.75,0.25,30,87.6
2041,G#3,317.0,0.25,45,87.6
2042,C5,317.25,0.25,55,87.6
2043,F#4,317.25,0.25,33,87.6
2044,B4,317.5,0.25,57,87.6
2045,C4,317.5,0.25,33,87.6
2046,C5,317.75,0.25,56,87.6
2047,F#4,317.75,0.25,33,87.6
2048,B4,318.0,0.5,64,87.6
2049,G3,318.0,0.5,45,87.6
2050,G4,318.0,0.5,45,87.6
2051,D5,318.5,0.125,56,87.6
2052,B4,319.0,0.5,62,87.6
2053,G3,319.0,0.5,43,87.6
2054,G4,319.0,0.5,43,87.6
2055,D5,319.5,0.125,56,87.6
2056,B4,320.0,0.5,62,87.6
2057,G3,320.0,0.5,44,87.6
2058,G4,320.0,0.5,44,87.6
2059,D5,320.5,0.125,54,87.6
2060,D5,322.0,0.5,37,87.6
2061,G3,322.0,0.5,24,87.6
2062,B3,322.0,0.5,24,87.6
2063,D4,322.0,0.5,24,87.6
2064,F4,322.0,0.5,24,87.6
2065,F5,322.5,0.125,34,87.6
2066,D5,323.0,0.5,37,87.6
2067,G3,323.0,0.5,24,87.6
2068,B3,323.0,0.5,24,87.6
2069,D4,323.0,0.5,24,87.6
2070,F4,323.0,0.5,24,87.6
2071,F5,323.5,0.125,34,87.6
2072,D5,324.0,0.5,37,87.6
2073,G3,324.0,0.5,24,87.6
2074,B3,324.0,0.5,24,87.6
2075,D4,324.0,0.5,24,87.6
2076,F4,324.0,0.5,24,87.6
2077,F5,324.5,0.125,35,87.6
2078,E5,326.002,187/250,60,87.6
2079,C3,326.5,0.5,40,87.6
2080,F5,326.75,0.125,54,87.6
2081,G5,326.875,0.125,54,87.6
2082,C5,327.0,0.5,60,87.6
2083,E3,327.0,0.5,40,87.6
2084,G3,327.5,0.5,40,87.6
2085,B4,327.5,0.5,49,87.6
2086,D5,327.5,0.5,49,87.6
2087,B4,328.0,0.5,53,87.6
2088,D5,328.0,0.375,53,87.6
2089,C4,328.0,0.5,43,87.6
2090,F5,328.375,0.125,48,87.6
2091,C3,328.5,0.5,40,87.6
2092,E5,328.5,0.5,53,87.6
2093,C5,328.5,0.5,53,87.6
2094,G3,329.0,0.5,43,87.6
2095,B4,329.0,1.0,50,87.6
2096,D5,329.0,1.0,50,87.6
2097,G2,329.5,0.5,40,87.6
2098,E5,330.0,0.75,60,87.6
2099,C3,330.5,0.5,40,87.6
2100,F5,330.75,0.125,56,87.6
2101,G5,330.875,0.125,56,87.6
2102,C5,331.0,0.5,61,87.6
2103,E3,331.0,0.5,40,87.6
2104,G3,331.5,0.5,43,87.6
2105,D5,331.5,0.25,49,87.6
2106,B4,331.5,0.25,49,87.6
2107,C4,332.0,0.5,44,87.6
2108,D5,332.0,0.5,54,87.6
2109,F5,332.0,0.5,54,87.6
2110,E5,332.5,1/10,49,87.6
2111,C5,332.5,0.5,49,87.6
2112,C3,332.5,0.5,41,87.6
2113,F5,332.6,1/10,49,87.6
2114,E5,332.7,1/10,49,87.6
2115,F5,332.8,1/10,49,87.6
2116,E5,332.9,1/10,49,87.6
2117,G3,333.0,0.5,43,87.6
2118,B4,333.0,1.0,52,87.6
2119,D5,333.0,1.0,52,87.6
2120,G2,333.5,0.5,41,87.6
2121,F5,334.0,0.75,64,87.6
2122,A3,334.0,0.5,47,87.6
2123,C4,334.5,0.5,46,87.6
2124,G5,334.75,0.125,60,87.6
2125,F5,334.875,0.125,60,87.6
2126,E5,335.0,0.5,64,87.6
2127,G3,335.0,0.5,49,87.6
2128,E5,335.5,0.25,62,87.6
2129,C4,335.5,0.5,45,87.6
2130,A5,336.0,0.75,69,87.6
2131,F3,336.0,0.5,49,87.6
2132,C4,336.5,0.5,47,87.6
2133,B5,336.75,0.125,63,87.6
2134,C6,336.875,0.125,63,87.6
2135,G5,337.0,0.5,69,87.6
2136,E3,337.0,0.5,50,87.6
2137,G5,337.5,0.25,69,87.6
2138,C4,337.5,0.5,46,87.6
2139,G5,338.0,0.25,68,87.6
2140,F5,338.25,0.188,63,87.6
2141,F5,338.5,0.25,64,87.6
2142,G4,338.5,0.5,43,87.6
2143,B3,338.5,0.5,43,87.6
2144,D5,338.75,0.188,63,87.6
2145,F5,339.0,0.25,69,87.6
2146,E5,339.25,0.188,64,87.6
2147,E5,339.5,0.25,66,87.6
2148,G4,339.5,0.5,43,87.6
2149,C4,339.5,0.5,43,87.6
2150,C5,339.75,0.188,64,87.6
2151,C#5,340.0,0.25,64,87.6
2152,B3,340.0,1.0,44,87.6
2153,G3,340.0,1.0,44,87.6
2154,D5,340.25,0.25,60,87.6
2155,E5,340.5,0.25,64,87.6
2156,D5,340.75,0.25,62,87.6
2157,C5,341.0,0.25,63,87.6
2158,B4,341.25,0.25,61,87.6
2159,A4,341.5,0.25,61,87.6
2160,G4,341.75,0.25,60,87.6
2161,E5,342.0,0.75,70,87.6
2162,C2,342.0,0.25,64,87.6
2163,E2,342.25,0.25,56,87.6
2164,G2,342.5,0.25,57,87.6
2165,F5,342.75,0.125,64,87.6
2166,C3,342.75,0.25,56,87.6
2167,G5,342.875,0.125,64,87.6
2168,C5,343.0,0.5,70,87.6
2169,E2,343.0,0.25,60,87.6
2170,E3,343.25,0.25,57,87.6
2171,G2,343.5,0.25,60,87.6
2172,D5,343.5,0.5,60,87.6
2173,B4,343.5,0.5,60,87.6
2174,G3,343.75,0.25,57,87.6
2175,D5,344.0,0.375,63,87.6
2176,B4,344.0,0.5,63,87.6
2177,C3,344.0,0.25,60,87.6
2178,E3,344.25,0.25,55,87.6
2179,F5,344.375,0.125,57,87.6
2180,G3,344.5,0.25,57,87.6
2181,C5,344.5,0.5,63,87.6
2182,E5,344.5,0.5,63,87.6
2183,C4,344.75,0.25,56,87.6
2184,G2,345.0,0.25,60,87.6
2185,B4,345.0,1.0,61,87.6
2186,D5,345.0,1.0,61,87.6
2187,B2,345.25,0.25,57,87.6
2188,D3,345.5,0.25,59,87.6
2189,G3,345.75,0.25,57,87.6
2190,E5,346.0,0.75,70,87.6
2191,C2,346.0,0.25,60,87.6
2192,E2,346.25,0.25,56,87.6
2193,G2,346.5,0.25,57,87.6
2194,F5,346.75,0.125,67,87.6
2195,C3,346.75,0.25,55,87.6
2196,G5,346.875,0.125,67,87.6
2197,C5,347.0,0.5,71,87.6
2198,E2,347.0,0.25,60,87.6
2199,E3,347.25,0.25,57,87.6
2200,G2,347.5,0.25,58,87.6
2201,D5,347.5,0.25,60,87.6
2202,B4,347.5,0.25,60,87.6
2203,G3,347.75,0.25,57,87.6
2204,C3,348.0,0.25,60,87.6
2205,F5,348.0,0.5,64,87.6
2206,D5,348.0,0.5,64,87.6
2207,E3,348.25,0.25,55,87.6
2208,C5,348.5,0.5,60,87.6
2209,E5,348.5,1/10,60,87.6
2210,G3,348.5,0.25,57,87.6
2211,F5,348.6,1/10,60,87.6
2212,E5,348.7,1/10,60,87.6
2213,C4,348.75,0.25,56,87.6
2214,F5,348.8,1/10,60,87.6
2215,E5,348.9,1/10,60,87.6
2216,G2,349.0,0.25,62,87.6
2217,B4,349.0,1.0,62,87.6
2218,D5,349.0,1.0,62,87.6
2219,B2,349.25,0.25,56,87.6
2220,D3,349.5,0.25,57,87.6
2221,G3,349.75,0.25,56,87.6
2222,F5,350.0,0.75,77,87.6
2223,A3,350.0,0.25,53,87.6
2224,C4,350.25,0.25,49,87.6
2225,A3,350.5,0.25,53,87.6
2226,G5,350.75,0.125,70,87.6
2227,C4,350.75,0.25,49,87.6
2228,F5,350.875,0.125,70,87.6
2229,E5,351.0,0.5,77,87.6
2230,G3,351.0,0.25,53,87.6
2231,C4,351.25,0.25,50,87.6
2232,E5,351.5,0.25,74,87.6
2233,G3,351.5,0.25,53,87.6
2234,C4,351.75,0.25,50,87.6
2235,A5,352.0,0.75,78,87.6
2236,F3,352.0,0.25,57,87.6
2237,C4,352.25,0.25,53,87.6
2238,F3,352.5,0.25,57,87.6
2239,B5,352.75,0.125,71,87.6
2240,C4,352.75,0.25,53,87.6
2241,C6,352.875,0.125,69,87.6
2242,G5,353.0,0.5,79,87.6
2243,E3,353.0,0.25,57,87.6
2244,C4,353.25,0.25,53,87.6
2245,G5,353.5,0.25,77,87.6
2246,E3,353.5,0.25,57,87.6
2247,C4,353.75,0.25,52,87.6
2248,G#5,354.0,0.25,77,87.6
2249,A5,354.25,0.25,74,87.6
2250,F5,354.5,0.25,75,87.6
2251,D4,354.5,0.25,49,87.6
2252,F3,354.5,0.25,49,87.6
2253,D5,354.75,0.25,72,87.6
2254,C5,355.0,0.5,75,87.6
2255,E4,355.0,0.5,49,87.6
2256,G3,355.0,1.0,49,87.6
2257,B4,355.5,0.5,71,87.6
2258,D4,355.5,0.5,49,87.6
2259,C5,356.0,167/1000,75,87.6
2260,E4,356.0,1.0,49,87.6
2261,C4,356.0,1.0,49,87.6
2262,G4,356.167,167/1000,69,87.6
2263,E5,356.333,167/1000,66,87.6
2264,C5,356.5,167/1000,75,87.6
2265,G5,356.667,167/1000,69,87.6
2266,E5,356.833,167/1000,66,87.6
2267,C6,357.0,167/1000,73,87.6
2268,B5,357.167,167/1000,66,87.6
2269,A5,357.333,167/1000,65,87.6
2270,G5,357.5,167/1000,70,87.6
2271,F5,357.667,167/1000,67,87.6
2272,E5,357.833,167/1000,65,87.6
2273,C#5,358.0,167/1000,63,87.6
2274,D5,358.167,167/1000,60,87.6
2275,F5,358.333,167/1000,60,87.6
2276,A5,358.5,167/1000,62,87.6
2277,D4,358.5,0.5,38,87.6
2278,F3,358.5,0.5,38,87.6
2279,A3,358.5,0.5,38,87.6
2280,F5,358.667,167/1000,57,87.6
2281,D5,358.833,167/1000,57,87.6
2282,G5,359.0,167/1000,61,87.6
2283,G3,359.0,1.0,38,87.6
2284,C4,359.0,0.5,38,87.6
2285,E4,359.0,0.5,38,87.6
2286,E5,359.167,167/1000,57,87.6
2287,C5,359.333,167/1000,57,87.6
2288,F5,359.5,167/1000,61,87.6
2289,F4,359.5,0.5,44,87.6
2290,D4,359.5,0.5,44,87.6
2291,D5,359.667,167/1000,55,87.6
2292,B4,359.833,167/1000,55,87.6
2293,C5,360.0,167/1000,75,87.6
2294,C4,360.0,1.0,49,87.6
2295,E4,360.0,1.0,49,87.6
2296,G4,360.167,167/1000,69,87.6
2297,E5,360.333,167/1000,67,87.6
2298,C5,360.5,167/1000,75,87.6
2299,G5,360.667,167/1000,69,87.6
2300,E5,360.833,167/1000,67,87.6
2301,C6,361.0,167/1000,73,87.6
2302,B5,361.167,167/1000,66,87.6
2303,A5,361.333,167/1000,64,87.6
2304,G5,361.5,167/1000,70,87.6
2305,F5,361.667,167/1000,67,87.6
2306,E5,361.833,167/1000,65,87.6
2307,C#5,362.0,167/1000,63,87.6
2308,D5,362.167,167/1000,60,87.6
2309,F5,362.333,167/1000,59,87.6
2310,A5,362.5,167/1000,62,87.6
2311,A3,362.5,0.5,38,87.6
2312,D4,362.5,0.5,38,87.6
2313,F3,362.5,0.5,38,87.6
2314,F5,362.667,167/1000,57,87.6
2315,D5,362.833,167/1000,55,87.6
2316,G5,363.0,167/1000,61,87.6
2317,G3,363.0,1.0,38,87.6
2318,C4,363.0,0.5,38,87.6
2319,E4,363.0,0.5,38,87.6
2320,E5,363.167,167/1000,57,87.6
2321,C5,363.333,167/1000,54,87.6
2322,F5,363.5,167/1000,61,87.6
2323,F4,363.5,0.5,40,87.6
2324,D4,363.5,0.5,40,87.6
2325,D5,363.667,167/1000,55,87.6
2326,B4,363.833,167/1000,55,87.6
2327,C5,364.0,0.125,52,87.6
2328,C4,364.0,0.125,38,87.6
2329,E4,364.0,0.125,38,87.6
2330,G4,364.5,0.125,50,87.6
2331,G3,364.5,0.125,38,87.6
2332,C4,365.0,1.0,50,87.6
2333,C2,365.0,1.0,38,87.6
2334,C3,365.0,1.0,38,87.6
2335,E5,366.0,1.0,50,87.6
2336,C4,366.0,0.25,37,87.6
2337,G4,366.25,0.25,30,87.6
2338,F#4,366.5,0.25,33,87.6
2339,G4,366.75,0.25,30,87.6
2340,F5,367.0,0.125,46,87.6
2341,C4,367.0,0.25,37,87.6
2342,E5,367.125,0.125,46,87.6
2343,D5,367.25,0.125,46,87.6
2344,G4,367.25,0.25,30,87.6
2345,E5,367.375,0.125,46,87.6
2346,G5,367.5,0.25,50,87.6
2347,D4,367.5,0.25,33,87.6
2348,F5,367.75,0.25,46,87.6
2349,G4,367.75,0.25,30,87.6
2350,E5,368.0,0.25,51,87.6
2351,E4,368.0,0.25,37,87.6
2352,D5,368.25,0.25,49,87.6
2353,G4,368.25,0.25,30,87.6
2354,C5,368.5,0.25,49,87.6
2355,F4,368.5,0.25,33,87.6
2356,B4,368.75,0.25,49,87.6
2357,G4,368.75,0.25,30,87.6
2358,C5,369.0,0.125,52,87.6
2359,E4,369.0,0.25,37,87.6
2360,G4,369.25,0.25,30,87.6
2361,C#5,369.5,0.125,55,87.6
2362,B-3,369.5,0.25,33,87.6
2363,G4,369.75,0.25,31,87.6
2364,D5,370.0,0.125,56,87.6
2365,B3,370.0,0.25,38,87.6
2366,G4,370.25,0.25,31,87.6
2367,E-5,370.5,0.125,60,87.6
2368,B3,370.5,0.25,35,87.6
2369,G4,370.75,0.25,32,87.6
2370,E5,371.0,0.125,63,87.6
2371,C4,371.0,0.25,41,87.6
2372,G4,371.25,0.25,33,87.6
2373,G5,371.5,0.25,62,87.6
2374,D4,371.5,0.25,37,87.6
2375,F5,371.75,0.25,57,87.6
2376,G4,371.75,0.25,33,87.6
2377,E5,372.0,0.75,62,87.6
2378,C4,372.0,0.25,40,87.6
2379,G4,372.25,0.25,30,87.6
2380,F#4,372.5,0.25,33,87.6
2381,F5,372.75,0.125,55,87.6
2382,G4,372.75,0.25,30,87.6
2383,E5,372.875,0.125,55,87.6
2384,D5,373.0,0.5,56,87.6
2385,B3,373.0,0.25,37,87.6
2386,G4,373.25,0.25,31,87.6
2387,F#4,373.5,0.25,33,87.6
2388,G4,373.75,0.25,32,87.6
2389,F5,374.0,1.0,58,87.6
2390,B3,374.0,0.25,37,87.6
2391,G4,374.25,0.25,31,87.6
2392,F#4,374.5,0.25,33,87.6
2393,G4,374.75,0.25,31,87.6
2394,G5,375.0,0.125,48,87.6
2395,B3,375.0,0.25,37,87.6
2396,F5,375.125,0.125,49,87.6
2397,E5,375.25,0.125,49,87.6
2398,G4,375.25,0.25,31,87.6
2399,F5,375.375,0.125,49,87.6
2400,A5,375.5,0.25,55,87.6
2401,C4,375.5,0.25,33,87.6
2402,G5,375.75,0.25,52,87.6
2403,G4,375.75,0.25,31,87.6
2404,F5,376.0,0.25,52,87.6
2405,D4,376.0,0.25,37,87.6
2406,E5,376.25,0.25,50,87.6
2407,G4,376.25,0.25,31,87.6
2408,D5,376.5,0.25,50,87.6
2409,E4,376.5,0.25,33,87.6
2410,C5,376.75,0.25,50,87.6
2411,G4,376.75,0.25,31,87.6
2412,B4,377.0,0.25,49,87.6
2413,F4,377.0,0.25,37,87.6
2414,C5,377.25,0.125,50,87.6
2415,G4,377.25,0.25,32,87.6
2416,D5,377.5,0.125,51,87.6
2417,D4,377.5,0.25,34,87.6
2418,E5,377.75,0.125,53,87.6
2419,G4,377.75,0.25,31,87.6
2420,F5,378.0,0.125,54,87.6
2421,B3,378.0,0.25,40,87.6
2422,G5,378.25,0.125,55,87.6
2423,G4,378.25,0.25,31,87.6
2424,A5,378.5,0.125,56,87.6
2425,D4,378.5,0.25,34,87.6
2426,B5,378.75,0.125,58,87.6
2427,G4,378.75,0.25,31,87.6
2428,C6,379.0,0.125,60,87.6
2429,B3,379.0,0.25,46,87.6
2430,D6,379.25,0.125,61,87.6
2431,G4,379.25,0.25,35,87.6
2432,E6,379.5,0.125,62,87.6
2433,G3,379.5,0.25,37,87.6
2434,F6,379.75,0.125,63,87.6
2435,G4,379.75,0.25,35,87.6
2436,E-6,380.0,1.0,79,87.6
2437,C4,380.0,0.25,44,87.6
2438,G4,380.25,0.25,37,87.6
2439,F4,380.5,0.25,40,87.6
2440,G4,380.75,0.25,37,87.6
2441,E6,381.0,0.5,75,87.6
2442,C4,381.0,0.25,44,87.6
2443,G4,381.25,0.25,37,87.6
2444,E4,381.5,0.25,40,87.6
2445,G4,381.75,0.25,37,87.6
2446,B-4,382.0,667/1000,64,87.6
2447,C3,382.0,167/1000,48,87.6
2448,E3,382.167,167/1000,43,87.6
2449,G3,382.333,167/1000,41,87.6
2450,C4,382.5,0.5,46,87.6
2451,E5,382.667,167/1000,60,87.6
2452,G5,382.833,167/1000,60,87.6
2453,B-5,383.0,167/1000,60,87.6
2454,G5,383.167,167/1000,58,87.6
2455,E5,383.333,167/1000,58,87.6
2456,G5,383.5,167/1000,60,87.6
2457,E5,383.667,167/1000,58,87.6
2458,B-4,383.833,167/1000,58,87.6
2459,A4,384.0,667/1000,64,87.6
2460,F2,384.0,167/1000,48,87.6
2461,A2,384.167,167/1000,43,87.6
2462,C3,384.333,167/1000,41,87.6
2463,F3,384.5,0.5,48,87.6
2464,C5,384.667,167/1000,60,87.6
2465,F5,384.833,167/1000,58,87.6
2466,A5,385.0,167/1000,60,87.6
2467,F5,385.167,167/1000,59,87.6
2468,C5,385.333,167/1000,59,87.6
2469,F5,385.5,167/1000,60,87.6
2470,C5,385.667,167/1000,59,87.6
2471,A4,385.833,167/1000,59,87.6
2472,G4,386.0,667/1000,64,87.6
2473,A2,386.0,167/1000,48,87.6
2474,C#3,386.167,167/1000,43,87.6
2475,E3,386.333,167/1000,40,87.6
2476,A3,386.5,0.5,48,87.6
2477,C#5,386.667,167/1000,60,87.6
2478,E5,386.833,167/1000,58,87.6
2479,G5,387.0,167/1000,60,87.6
2480,E5,387.167,167/1000,58,87.6
2481,C#5,387.333,167/1000,58,87.6
2482,E5,387.5,167/1000,60,87.6
2483,C#5,387.667,167/1000,58,87.6
2484,G4,387.833,167/1000,58,87.6
2485,F#4,388.0,667/1000,64,87.6
2486,D3,388.0,167/1000,48,87.6
2487,F#3,388.167,167/1000,43,87.6
2488,A3,388.333,167/1000,40,87.6
2489,D4,388.5,0.5,48,87.6
2490,A4,388.667,167/1000,60,87.6
2491,D5,388.833,167/1000,57,87.6
2492,F#5,389.0,167/1000,60,87.6
2493,D5,389.167,167/1000,58,87.6
2494,A4,389.333,167/1000,58,87.6
2495,D5,389.5,167/1000,60,87.6
2496,A4,389.667,167/1000,58,87.6
2497,F#4,389.833,167/1000,58,87.6
2498,F4,390.0,667/1000,64,87.6
2499,B2,390.0,167/1000,48,87.6
2500,D3,390.167,167/1000,43,87.6
2501,G3,390.333,167/1000,40,87.6
2502,B3,390.5,0.5,48,87.6
2503,B4,390.667,167/1000,60,87.6
2504,D5,390.833,167/1000,58,87.6
2505,F5,391.0,167/1000,60,87.6
2506,D5,391.167,167/1000,58,87.6
2507,B4,391.333,167/1000,58,87.6
2508,D5,391.5,167/1000,60,87.6
2509,B4,391.667,167/1000,58,87.6
2510,F4,391.833,167/1000,59,87.6
2511,E4,392.0,667/1000,64,87.6
2512,C3,392.0,167/1000,48,87.6
2513,E3,392.167,167/1000,43,87.6
2514,G3,392.333,167/1000,40,87.6
2515,C4,392.5,0.5,48,87.6
2516,G4,392.667,167/1000,60,87.6
2517,C5,392.833,167/1000,60,87.6
2518,E5,393.0,167/1000,60,87.6
2519,C5,393.167,167/1000,58,87.6
2520,G4,393.333,167/1000,58,87.6
2521,C5,393.5,167/1000,60,87.6
2522,G4,393.667,167/1000,57,87.6
2523,E4,393.833,167/1000,57,87.6
2524,F3,394.0,0.5,50,87.6
2525,A3,394.0,0.5,50,87.6
2526,D4,394.167,167/1000,60,87.6
2527,A4,394.333,167/1000,58,87.6
2528,D5,394.5,167/1000,58,87.6
2529,A4,394.667,167/1000,60,87.6
2530,D4,394.833,167/1000,58,87.6
2531,A3,395.0,0.5,52,87.6
2532,F#3,395.0,0.5,52,87.6
2533,D4,395.167,167/1000,60,87.6
2534,A4,395.333,167/1000,57,87.6
2535,C5,395.5,167/1000,60,87.6
2536,A4,395.667,167/1000,58,87.6
2537,D4,395.833,167/1000,58,87.6
2538,B4,396.0,0.5,63,87.6
2539,G3,396.0,0.125,57,87.6
2540,G4,396.25,0.25,40,87.6
2541,F#4,396.5,0.25,44,87.6
2542,G4,396.75,0.25,40,87.6
2543,F#4,397.0,0.25,44,87.6
2544,G5,397.25,0.125,62,87.6
2545,G4,397.25,0.25,41,87.6
2546,A5,397.5,0.125,64,87.6
2547,F4,397.5,0.25,44,87.6
2548,B5,397.75,0.125,68,87.6
2549,G4,397.75,0.25,40,87.6
2550,C6,398.0,1.25,64,87.6
2551,E4,398.0,0.25,49,87.6
2552,G4,398.25,0.25,40,87.6
2553,C4,398.5,0.25,35,87.6
2554,G4,398.75,0.25,30,87.6
2555,E4,399.0,0.25,37,87.6
2556,B5,399.25,0.25,50,87.6
2557,G4,399.25,0.25,31,87.6
2558,A5,399.5,0.25,51,87.6
2559,C4,399.5,0.25,35,87.6
2560,G5,399.75,6/25,50,87.6
2561,G4,399.75,0.25,31,87.6
2562,G5,400.0,0.25,53,87.6
2563,D4,400.0,0.25,37,87.6
2564,F5,400.25,0.25,50,87.6
2565,G4,400.25,0.25,34,87.6
2566,E5,400.5,0.25,51,87.6
2567,C4,400.5,0.25,37,87.6
2568,D5,400.75,0.25,50,87.6
2569,G4,400.75,0.25,34,87.6
2570,G5,401.0,0.125,54,87.6
2571,B3,401.0,0.25,37,87.6
2572,G4,401.25,0.25,34,87.6
2573,F5,401.5,0.125,51,87.6
2574,G3,401.5,0.25,37,87.6
2575,G4,401.75,0.25,34,87.6
2576,E-5,402.0,0.5,53,87.6
2577,C4,402.0,0.25,38,87.6
2578,G4,402.25,0.25,31,87.6
2579,E5,402.5,0.5,51,87.6
2580,F#4,402.5,0.25,34,87.6
2581,G4,402.75,0.25,31,87.6
2582,F#4,403.0,0.25,39,87.6
2583,G4,403.25,0.25,41,87.6
2584,A4,403.5,0.25,44,87.6
2585,G4,403.75,0.25,41,87.6
2586,F4,404.0,0.25,49,87.6
2587,G4,404.25,0.25,47,87.6
2588,E4,404.5,0.25,49,87.6
2589,G5,404.75,0.125,54,87.6
2590,G4,404.75,0.25,45,87.6
2591,G#5,405.0,0.125,57,87.6
2592,F4,405.0,0.25,49,87.6
2593,A5,405.25,0.125,61,87.6
2594,G4,405.25,0.25,46,87.6
2595,B-5,405.5,0.125,64,87.6
2596,D4,405.5,0.25,49,87.6
2597,B5,405.75,0.125,67,87.6
2598,G4,405.75,0.25,46,87.6
2599,C6,406.0,1.25,73,87.6
2600,E4,406.0,0.25,49,87.6
2601,G4,406.25,0.25,41,87.6
2602,C4,406.5,0.25,35,87.6
2603,G4,406.75,0.25,31,87.6
2604,E4,407.0,0.25,37,87.6
2605,B5,407.25,0.25,48,87.6
2606,G4,407.25,0.25,31,87.6
2607,A5,407.5,0.25,50,87.6
2608,C4,407.5,0.25,35,87.6
2609,G5,407.75,121/500,47,87.6
2610,G4,407.75,0.25,31,87.6
2611,G5,408.0,0.25,53,87.6
2612,D4,408.0,0.25,37,87.6
2613,F5,408.25,0.25,47,87.6
2614,G4,408.25,0.25,34,87.6
2615,E5,408.5,0.25,50,87.6
2616,C4,408.5,0.25,37,87.6
2617,D5,408.75,0.25,48,87.6
2618,G4,408.75,0.25,34,87.6
2619,G5,409.0,0.125,54,87.6
2620,B3,409.0,0.25,37,87.6
2621,G4,409.25,0.25,34,87.6
2622,F5,409.5,0.125,51,87.6
2623,G3,409.5,0.25,37,87.6
2624,G4,409.75,0.25,34,87.6
2625,E5,410.0,0.5,51,87.6
2626,C4,410.0,0.25,34,87.6
2627,G4,410.25,0.25,32,87.6
2628,E4,410.5,0.25,32,87.6
2629,G4,410.75,0.25,32,87.6
2630,A5,411.0,0.125,63,87.6
2631,C4,411.0,0.25,37,87.6
2632,B5,411.125,0.125,56,87.6
2633,A5,411.25,0.125,62,87.6
2634,A4,411.25,0.25,29,87.6
2635,B5,411.375,0.125,61,87.6
2636,C6,411.5,0.25,68,87.6
2637,F4,411.5,0.25,32,87.6
2638,C6,411.75,0.125,66,87.6
2639,A4,411.75,0.25,29,87.6
2640,C6,412.0,0.5,64,87.6
2641,C4,412.0,0.25,32,87.6
2642,G4,412.25,0.25,30,87.6
2643,E4,412.5,0.25,32,87.6
2644,G4,412.75,0.25,31,87.6
2645,D6,413.0,0.125,68,87.6
2646,B-3,413.0,0.25,32,87.6
2647,E6,413.125,0.125,59,87.6
2648,D6,413.25,0.125,65,87.6
2649,F4,413.25,0.25,30,87.6
2650,E6,413.375,0.125,68,87.6
2651,F6,413.5,0.25,68,87.6
2652,D4,413.5,0.25,32,87.6
2653,F6,413.75,0.125,64,87.6
2654,F4,413.75,0.25,30,87.6
2655,F6,414.0,0.5,64,87.6
2656,A3,414.0,0.25,32,87.6
2657,F4,414.25,0.25,30,87.6
2658,C4,414.5,0.25,32,87.6
2659,F4,414.75,0.25,30,87.6
2660,F5,415.0,0.125,62,87.6
2661,F3,415.0,0.25,40,87.6
2662,G5,415.125,0.125,54,87.6
2663,F5,415.25,0.125,59,87.6
2664,D4,415.25,0.25,34,87.6
2665,G5,415.375,0.125,56,87.6
2666,A5,415.5,0.25,66,87.6
2667,A3,415.5,0.25,40,87.6
2668,A5,415.75,0.125,60,87.6
2669,D4,415.75,0.25,33,87.6
2670,A5,416.0,0.25,60,87.6
2671,G3,416.0,0.25,39,87.6
2672,G5,416.25,0.25,61,87.6
2673,E4,416.25,0.25,34,87.6
2674,F5,416.5,0.125,56,87.6
2675,C4,416.5,0.25,39,87.6
2676,E5,416.75,0.125,56,87.6
2677,E4,416.75,0.25,34,87.6
2678,D5,417.0,0.25,56,87.6
2679,G3,417.0,0.25,39,87.6
2680,F4,417.25,0.25,34,87.6
2681,G5,417.5,0.25,56,87.6
2682,B3,417.5,0.25,38,87.6
2683,F4,417.75,0.25,33,87.6
2684,F5,418.0,0.5,62,87.6
2685,C3,418.0,0.25,40,87.6
2686,G3,418.25,0.25,35,87.6
2687,E5,418.5,0.5,58,87.6
2688,E3,418.5,0.25,40,87.6
2689,G3,418.75,0.25,34,87.6
2690,A4,419.0,0.125,57,87.6
2691,C3,419.0,0.25,32,87.6
2692,B4,419.125,0.125,60,87.6
2693,A4,419.25,0.125,57,87.6
2694,A3,419.25,0.25,30,87.6
2695,B4,419.375,0.125,61,87.6
2696,C5,419.5,0.25,66,87.6
2697,F3,419.5,0.25,32,87.6
2698,C5,419.75,0.125,60,87.6
2699,A3,419.75,0.25,30,87.6
2700,C5,420.0,0.5,60,87.6
2701,C3,420.0,0.25,32,87.6
2702,G3,420.25,0.25,30,87.6
2703,E3,420.5,0.25,32,87.6
2704,G3,420.75,0.25,30,87.6
2705,D5,421.0,0.125,57,87.6
2706,B-2,421.0,0.25,32,87.6
2707,E5,421.125,0.125,60,87.6
2708,D5,421.25,0.125,57,87.6
2709,F3,421.25,0.25,29,87.6
2710,E5,421.375,0.125,64,87.6
2711,F5,421.5,0.25,66,87.6
2712,D3,421.5,0.25,32,87.6
2713,F5,421.75,0.125,60,87.6
2714,F3,421.75,0.25,29,87.6
2715,F5,422.0,0.5,60,87.6
2716,A2,422.0,0.25,34,87.6
2717,F3,422.25,0.25,30,87.6
2718,C3,422.5,0.25,33,87.6
2719,F3,422.75,0.25,29,87.6
2720,F5,423.0,0.125,57,87.6
2721,F2,423.0,0.25,41,87.6
2722,G5,423.125,0.125,60,87.6
2723,F5,423.25,0.125,57,87.6
2724,D3,423.25,0.25,38,87.6
2725,G5,423.375,0.125,68,87.6
2726,A5,423.5,0.25,64,87.6
2727,A2,423.5,0.25,40,87.6
2728,A5,423.75,0.125,61,87.6
2729,D3,423.75,0.25,37,87.6
2730,A5,424.0,0.25,62,87.6
2731,G2,424.0,0.25,40,87.6
2732,G5,424.25,0.25,61,87.6
2733,E3,424.25,0.25,37,87.6
2734,F5,424.5,0.125,61,87.6
2735,C3,424.5,0.25,39,87.6
2736,E5,424.75,0.125,61,87.6
2737,E3,424.75,0.25,32,87.6
2738,E5,425.0,0.25,62,87.6
2739,G2,425.0,0.25,38,87.6
2740,D5,425.25,0.25,60,87.6
2741,F3,425.25,0.25,33,87.6
2742,C5,425.5,0.125,61,87.6
2743,D3,425.5,0.25,38,87.6
2744,B4,425.75,0.125,59,87.6
2745,F3,425.75,0.25,32,87.6
2746,G5,426.0,667/1000,78,87.6
2747,C3,426.5,0.5,38,87.6
2748,E3,426.5,0.5,38,87.6
2749,E5,426.667,167/1000,61,87.6
2750,C5,426.833,167/1000,61,87.6
2751,B4,427.0,167/1000,63,87.6
2752,D3,427.0,0.5,44,87.6
2753,F3,427.0,0.5,44,87.6
2754,D5,427.167,167/1000,63,87.6
2755,G4,427.333,167/1000,61,87.6
2756,C5,427.5,167/1000,63,87.6
2757,G3,427.5,0.5,49,87.6
2758,E3,427.5,0.5,49,87.6
2759,E5,427.667,167/1000,61,87.6
2760,G4,427.833,167/1000,59,87.6
2761,D5,428.0,667/1000,77,87.6
2762,G2,428.5,0.5,37,87.6
2763,B2,428.5,0.5,37,87.6
2764,B4,428.667,167/1000,55,87.6
2765,G4,428.833,167/1000,52,87.6
2766,F#4,429.0,167/1000,57,87.6
2767,A2,429.0,0.5,40,87.6
2768,C3,429.0,0.5,40,87.6
2769,G4,429.167,167/1000,54,87.6
2770,D4,429.333,167/1000,54,87.6
2771,F4,429.5,167/1000,55,87.6
2772,B2,429.5,0.5,44,87.6
2773,D3,429.5,0.5,44,87.6
2774,G4,429.667,167/1000,53,87.6
2775,D4,429.833,167/1000,53,87.6
2776,G5,430.0,667/1000,75,87.6
2777,C3,430.5,0.5,38,87.6
2778,E3,430.5,0.5,38,87.6
2779,E5,430.667,167/1000,61,87.6
2780,C5,430.833,167/1000,60,87.6
2781,B4,431.0,167/1000,63,87.6
2782,D3,431.0,0.5,44,87.6
2783,F3,431.0,0.5,44,87.6
2784,D5,431.167,167/1000,63,87.6
2785,G4,431.333,167/1000,61,87.6
2786,C5,431.5,167/1000,63,87.6
2787,G3,431.5,0.5,49,87.6
2788,E3,431.5,0.5,49,87.6
2789,E5,431.667,167/1000,61,87.6
2790,G4,431.833,167/1000,61,87.6
2791,D5,432.0,667/1000,77,87.6
2792,G2,432.5,0.5,37,87.6
2793,B2,432.5,0.5,37,87.6
2794,B4,432.667,167/1000,55,87.6
2795,G4,432.833,167/1000,55,87.6
2796,F#4,433.0,167/1000,57,87.6
2797,A2,433.0,0.5,40,87.6
2798,C3,433.0,0.5,40,87.6
2799,G4,433.167,167/1000,54,87.6
2800,D4,433.333,167/1000,54,87.6
2801,F4,433.5,167/1000,55,87.6
2802,B2,433.5,0.5,44,87.6
2803,D3,433.5,0.5,44,87.6
2804,G4,433.667,167/1000,53,87.6
2805,D4,433.833,167/1000,53,87.6
2806,E4,434.0,167/1000,53,87.6
2807,C3,434.0,1.0,44,87.6
2808,C4,434.167,167/1000,54,87.6
2809,E4,434.333,167/1000,56,87.6
2810,G4,434.5,167/1000,57,87.6
2811,E4,434.667,167/1000,58,87.6
2812,G4,434.833,167/1000,61,87.6
2813,C5,435.0,167/1000,61,87.6
2814,G4,435.167,167/1000,63,87.6
2815,C5,435.333,167/1000,64,87.6
2816,E5,435.5,167/1000,64,87.6
2817,C5,435.667,167/1000,67,87.6
2818,E5,435.833,167/1000,68,87.6
2819,G5,436.0,167/1000,69,87.6
2820,G3,436.0,1.5,44,87.6
2821,C4,436.0,2.0,44,87.6
2822,E3,436.0,2.0,44,87.6
2823,E5,436.167,167/1000,70,87.6
2824,G5,436.333,167/1000,73,87.6
2825,B-5,436.5,167/1000,73,87.6
2826,G5,436.667,167/1000,70,87.6
2827,E5,436.833,167/1000,68,87.6
2828,C5,437.0,167/1000,66,87.6
2829,B-4,437.167,167/1000,64,87.6
2830,G4,437.333,167/1000,61,87.6
2831,C5,437.5,167/1000,60,87.6
2832,B-3,437.5,0.5,44,87.6
2833,B-4,437.667,167/1000,56,87.6
2834,G#4,437.833,167/1000,54,87.6
2835,A4,438.0,0.125,51,87.6
2836,F3,438.0,1.0,38,87.6
2837,C4,438.0,1.0,44,87.6
2838,A5,438.25,0.25,52,87.6
2839,G#5,438.5,0.25,51,87.6
2840,A5,438.75,0.25,48,87.6
2841,G#5,439.0,0.25,52,87.6
2842,A5,439.25,0.25,49,87.6
2843,G#5,439.5,0.25,52,87.6
2844,A5,439.75,0.25,49,87.6
2845,C5,440.0,1.0,53,87.6
2846,F#3,440.5,0.5,37,87.6
2847,E-4,440.5,0.5,37,87.6
2848,D5,441.0,0.125,46,87.6
2849,G3,441.0,0.5,40,87.6
2850,E4,441.0,0.5,40,87.6
2851,C5,441.125,0.125,45,87.6
2852,B4,441.25,0.125,46,87.6
2853,C5,441.375,0.125,49,87.6
2854,E5,441.5,0.25,44,87.6
2855,B4,441.5,0.5,44,87.6
2856,F4,441.5,0.5,44,87.6
2857,D5,441.75,0.25,49,87.6
2858,C5,442.0,167/1000,54,87.6
2859,E4,442.0,1.0,44,87.6
2860,C4,442.0,1.0,44,87.6
2861,G4,442.167,167/1000,54,87.6
2862,C5,442.333,167/1000,56,87.6
2863,E5,442.5,167/1000,57,87.6
2864,C5,442.667,167/1000,58,87.6
2865,E5,442.833,167/1000,61,87.6
2866,G5,443.0,167/1000,61,87.6
2867,E5,443.167,167/1000,63,87.6
2868,G5,443.333,167/1000,64,87.6
2869,C6,443.5,167/1000,64,87.6
2870,D6,443.667,167/1000,67,87.6
2871,C6,443.833,167/1000,68,87.6
2872,B-5,444.0,167/1000,69,87.6
2873,G3,444.0,1.5,44,87.6
2874,C4,444.0,2.0,44,87.6
2875,E3,444.0,2.0,44,87.6
2876,A5,444.167,167/1000,70,87.6
2877,G5,444.333,167/1000,73,87.6
2878,F5,444.5,167/1000,73,87.6
2879,E5,444.667,167/1000,70,87.6
2880,D5,444.833,167/1000,68,87.6
2881,C5,445.0,167/1000,66,87.6
2882,D5,445.167,167/1000,64,87.6
2883,C5,445.333,167/1000,61,87.6
2884,B-4,445.5,167/1000,60,87.6
2885,B-3,445.5,0.5,44,87.6
2886,A4,445.667,167/1000,56,87.6
2887,G#4,445.833,167/1000,54,87.6
2888,A4,446.0,0.125,51,87.6
2889,C4,446.0,1.0,44,87.6
2890,A3,446.0,1.0,38,87.6
2891,F3,446.0,1.0,38,87.6
2892,A5,446.25,0.25,48,87.6
2893,G#5,446.5,0.25,51,87.6
2894,A5,446.75,0.25,48,87.6
2895,G#5,447.0,0.25,52,87.6
2896,A5,447.25,0.25,49,87.6
2897,G#5,447.5,0.25,51,87.6
2898,A5,447.75,0.25,49,87.6
2899,F#3,448.0,1.0,41,87.6
2900,E-4,448.0,1.0,41,87.6
2901,C6,448.25,0.25,60,87.6
2902,B5,448.5,0.25,60,87.6
2903,C6,448.75,0.25,57,87.6
2904,B5,449.0,0.25,60,87.6
2905,C6,449.25,0.25,61,87.6
2906,B5,449.5,0.25,63,87.6
2907,C6,449.75,229/1000,66,87.6
2908,C6,450.0,0.25,68,87.6
2909,G3,450.0,0.25,48,87.6
2910,G5,450.25,229/1000,60,87.6
2911,E4,450.25,0.25,39,87.6
2912,G5,450.5,0.125,60,87.6
2913,C4,450.5,0.25,41,87.6
2914,G5,450.75,0.125,60,87.6
2915,E4,450.75,0.25,39,87.6
2916,A5,451.0,0.25,62,87.6
2917,G3,451.0,0.25,48,87.6
2918,G5,451.25,0.25,58,87.6
2919,E4,451.25,0.25,38,87.6
2920,F5,451.5,0.125,57,87.6
2921,C4,451.5,0.25,41,87.6
2922,E5,451.75,0.125,56,87.6
2923,E4,451.75,0.25,39,87.6
2924,E5,452.0,0.5,54,87.6
2925,G3,452.0,0.25,43,87.6
2926,G4,452.25,0.25,36,87.6
2927,C4,452.5,0.25,38,87.6
2928,G4,452.75,0.25,35,87.6
2929,D5,453.0,0.125,48,87.6
2930,G3,453.0,0.25,39,87.6
2931,E5,453.125,0.125,45,87.6
2932,D5,453.25,0.125,48,87.6
2933,F4,453.25,0.25,30,87.6
2934,E5,453.375,0.125,45,87.6
2935,D5,453.5,83/1000,48,87.6
2936,B3,453.5,0.25,32,87.6
2937,E5,453.583,83/1000,46,87.6
2938,D5,453.669,83/1000,46,87.6
2939,C5,453.75,0.125,51,87.6
2940,F4,453.75,0.25,30,87.6
2941,D5,453.875,0.125,48,87.6
2942,C5,454.0,0.5,55,87.6
2943,C3,454.0,0.25,35,87.6
2944,E3,454.25,0.25,30,87.6
2945,C4,454.5,0.25,32,87.6
2946,E3,454.75,0.25,30,87.6
2947,G4,455.0,0.688,50,87.6
2948,C3,455.0,0.25,35,87.6
2949,E3,455.25,0.25,30,87.6
2950,C4,455.5,0.25,32,87.6
2951,B4,455.688,0.062,48,87.6
2952,A4,455.75,0.125,48,87.6
2953,E3,455.75,0.25,30,87.6
2954,G4,455.875,0.125,48,87.6
2955,G5,456.0,0.125,57,87.6
2956,C3,456.0,0.25,35,87.6
2957,D3,456.25,0.25,30,87.6
2958,F5,456.5,0.125,56,87.6
2959,B3,456.5,0.25,32,87.6
2960,D3,456.75,0.25,30,87.6
2961,E5,457.0,0.125,54,87.6
2962,C3,457.0,0.25,35,87.6
2963,F3,457.25,0.25,30,87.6
2964,D5,457.5,0.125,51,87.6
2965,B3,457.5,0.25,32,87.6
2966,F3,457.75,0.25,30,87.6
2967,C5,458.0,1.0,55,87.6
2968,C3,458.0,0.25,35,87.6
2969,E3,458.25,0.25,30,87.6
2970,C4,458.5,0.25,32,87.6
2971,E3,458.75,0.25,30,87.6
2972,G4,459.0,0.688,50,87.6
2973,C3,459.0,0.25,35,87.6
2974,E3,459.25,0.25,30,87.6
2975,C4,459.5,0.25,32,87.6
2976,B4,459.688,0.062,48,87.6
2977,A4,459.75,0.125,48,87.6
2978,E3,459.75,0.25,30,87.6
2979,G4,459.875,0.125,48,87.6
2980,G5,460.0,0.125,56,87.6
2981,C3,460.0,0.25,35,87.6
2982,D3,460.25,0.25,30,87.6
2983,F5,460.5,0.125,53,87.6
2984,B3,460.5,0.25,32,87.6
2985,D3,460.75,0.25,30,87.6
2986,E5,461.0,0.125,52,87.6
2987,C3,461.0,0.25,35,87.6
2988,F3,461.25,0.25,30,87.6
2989,D5,461.5,0.125,49,87.6
2990,B3,461.5,0.25,32,87.6
2991,F3,461.75,0.25,30,87.6
2992,C5,462.0,0.5,53,87.6
2993,C3,462.0,0.25,35,87.6
2994,E3,462.25,0.25,30,87.6
2995,C4,462.5,0.25,32,87.6
2996,E3,462.75,0.25,30,87.6
2997,G4,462.917,83/1000,56,87.6
2998,G5,463.0,0.75,66,87.6
2999,C3,463.0,0.25,35,87.6
3000,F3,463.25,0.25,30,87.6
3001,B3,463.5,0.25,32,87.6
3002,F5,463.75,83/1000,56,87.6
3003,F3,463.75,0.25,30,87.6
3004,E5,463.833,83/1000,56,87.6
3005,D5,463.917,83/1000,52,87.6
3006,C5,464.0,0.5,53,87.6
3007,C3,464.0,0.25,35,87.6
3008,E3,464.25,0.25,30,87.6
3009,C4,464.5,0.25,32,87.6
3010,E3,464.75,0.25,30,87.6
3011,G4,464.917,83/1000,56,87.6
3012,G5,465.0,0.75,66,87.6
3013,C3,465.0,0.25,35,87.6
3014,F3,465.25,0.25,30,87.6
3015,B3,465.5,0.25,32,87.6
3016,A5,465.75,0.125,60,87.6
3017,F3,465.75,0.25,30,87.6
3018,B5,465.875,0.125,55,87.6
3019,C6,466.0,0.5,67,87.6
3020,C3,466.0,0.25,35,87.6
3021,E3,466.25,0.25,30,87.6
3022,C4,466.5,0.25,32,87.6
3023,E3,466.75,0.25,31,87.6
3024,G5,467.0,167/1000,69,87.6
3025,C3,467.0,0.25,41,87.6
3026,A5,467.167,167/1000,63,87.6
3027,F3,467.25,0.25,35,87.6
3028,G5,467.333,167/1000,63,87.6
3029,F5,467.5,167/1000,65,87.6
3030,B3,467.5,0.25,35,87.6
3031,E5,467.667,167/1000,63,87.6
3032,F3,467.75,0.25,32,87.6
3033,D5,467.833,167/1000,59,87.6
3034,C5,468.0,0.5,60,87.6
3035,C3,468.0,0.25,35,87.6
3036,E3,468.25,0.25,30,87.6
3037,C4,468.5,0.25,32,87.6
3038,E3,468.75,0.25,30,87.6
3039,F#5,469.0,167/1000,72,87.6
3040,C3,469.0,0.25,41,87.6
3041,G5,469.167,167/1000,65,87.6
3042,F3,469.25,0.25,35,87.6
3043,G#5,469.333,167/1000,66,87.6
3044,A5,469.5,167/1000,69,87.6
3045,B3,469.5,0.25,32,87.6
3046,B-5,469.667,167/1000,67,87.6
3047,F3,469.75,0.25,30,87.6
3048,B5,469.833,167/1000,65,87.6
3049,C6,470.0,0.5,60,87.6
3050,C3,470.0,1.0,35,87.6
3051,E3,470.0,1.0,35,87.6
3052,G4,470.5,0.375,42,87.6
3053,C5,470.875,0.125,42,87.6
3054,E5,471.0,0.125,44,87.6
3055,G#3,471.5,0.125,33,87.6
3056,F4,471.5,0.125,41,87.6
3057,D5,471.5,0.125,41,87.6
3058,A3,472.0,1.5,33,87.6
3059,F4,472.0,1.0,42,87.6
3060,D5,472.0,1.0,42,87.6
3061,E4,473.0,0.5,36,87.6
3062,C5,473.0,0.5,36,87.6
3063,A5,474.0,0.25,69,87.6
3064,F5,474.0,0.25,69,87.6
3065,D5,474.0,0.25,69,87.6
3066,A4,474.0,0.25,69,87.6
3067,F2,474.0,0.25,54,87.6
3068,F3,474.0,0.25,54,87.6
3069,D4,475.0,0.25,69,87.6
3070,F4,475.0,0.25,69,87.6
3071,G4,475.0,0.25,69,87.6
3072,B4,475.0,0.25,69,87.6
3073,G2,475.0,0.25,54,87.6
3074,G3,475.0,0.25,54,87.6
3075,G4,476.0,0.25,69,87.6
3076,C4,476.0,0.25,69,87.6
3077,E4,476.0,0.25,69,87.6
3078,C5,476.0,0.25,69,87.6
3079,C2,476.0,0.25,50,87.6
3080,E2,476.0,0.25,50,87.6
3081,G2,476.0,0.25,50,87.6
3082,C3,476.0,0.25,50,87.6
3083,D5,478.0,0.5,47,87.6
3084,D4,478.0,1.0,39,87.6
3085,B3,478.0,0.5,39,87.6
3086,B4,478.5,0.25,43,87.6
3087,G3,478.5,0.25,38,87.6
3088,B4,479.0,0.25,43,87.6
3089,D4,479.0,0.25,40,87.6
3090,G3,479.0,0.25,40,87.6
3091,B4,479.5,1/20,36,87.6
3092,C5,479.5,1/20,36,87.6
3093,D4,479.5,0.5,38,87.6
3094,G3,479.5,0.5,38,87.6
3095,B4,479.6,1/20,36,87.6
3096,C5,479.6,1/20,36,87.6
3097,B4,479.7,1/20,36,87.6
3098,A4,479.75,0.125,41,87.6
3099,B4,479.875,0.125,41,87.6
3100,D5,480.0,0.5,49,87.6
3101,D4,480.0,1.0,40,87.6
3102,B3,480.0,0.5,40,87.6
3103,C5,480.5,0.125,43,87.6
3104,A3,480.5,0.125,38,87.6
3105,A4,481.0,1.0,43,87.6
3106,F#3,481.0,1.0,38,87.6
3107,D4,481.0,1.0,38,87.6
3108,C5,482.0,0.5,51,87.6
3109,A3,482.0,0.5,41,87.6
3110,D4,482.0,1.0,41,87.6
3111,B4,482.5,0.125,44,87.6
3112,G3,482.5,0.125,38,87.6
3113,D5,483.0,0.5,53,87.6
3114,D4,483.0,1.0,40,87.6
3115,B3,483.0,0.5,40,87.6
3116,C5,483.5,0.125,43,87.6
3117,A3,483.5,0.125,38,87.6
3118,E5,484.0,1.0,60,87.6
3119,C4,484.0,1.0,50,87.6
3120,D4,484.0,1.5,50,87.6
3121,D5,485.0,0.5,49,87.6
3122,B3,485.0,0.5,40,87.6
3123,D5,486.0,0.5,60,87.6
3124,G4,486.5,0.25,50,87.6
3125,G4,487.0,0.5,50,87.6
3126,B2,487.0,1.0,38,87.6
3127,D3,487.0,1.0,38,87.6
3128,G#4,487.5,1/20,42,87.6
3129,A4,487.5,1/20,42,87.6
3130,G#4,487.6,1/20,42,87.6
3131,A4,487.6,1/20,42,87.6
3132,G#4,487.7,1/20,42,87.6
3133,F#4,487.75,0.125,43,87.6
3134,G#4,487.875,0.125,43,87.6
3135,A4,488.0,0.5,50,87.6
3136,E3,488.0,1.0,38,87.6
3137,C3,488.0,1.0,38,87.6
3138,C5,488.5,0.125,50,87.6
3139,E5,489.0,1.0,60,87.6
3140,C#3,489.0,1.0,40,87.6
3141,G3,489.0,1.0,40,87.6
3142,D5,490.0,0.5,48,87.6
3143,B3,490.0,1.0,34,87.6
3144,D3,490.0,2.0,34,87.6
3145,G4,490.5,0.125,43,87.6
3146,C5,491.0,0.5,47,87.6
3147,A3,491.0,1.0,34,87.6
3148,F#4,491.5,0.125,43,87.6
3149,A4,492.0,1.0,43,87.6
3150,C4,492.0,1.0,39,87.6
3151,G3,492.0,1.5,39,87.6
3152,G4,493.0,0.5,41,87.6
3153,B3,493.0,0.5,35,87.6
3154,D5,494.0,0.5,47,87.6
3155,B3,494.0,0.25,38,87.6
3156,D4,494.25,0.25,30,87.6
3157,B4,494.5,0.25,43,87.6
3158,G3,494.5,0.25,35,87.6
3159,D4,494.75,0.25,30,87.6
3160,B4,495.0,0.25,43,87.6
3161,G3,495.0,0.25,38,87.6
3162,D4,495.25,0.25,32,87.6
3163,G#3,495.5,0.25,37,87.6
3164,B4,495.5,1/20,36,87.6
3165,C5,495.5,1/20,36,87.6
3166,B4,495.6,1/20,36,87.6
3167,C5,495.6,1/20,36,87.6
3168,B4,495.7,1/20,36,87.6
3169,A4,495.75,0.125,41,87.6
3170,D4,495.75,0.25,32,87.6
3171,B4,495.875,0.125,41,87.6
3172,D5,496.0,0.5,49,87.6
3173,A3,496.0,0.25,40,87.6
3174,D4,496.25,0.25,31,87.6
3175,C5,496.5,0.125,43,87.6
3176,G3,496.5,0.25,35,87.6
3177,D4,496.75,0.25,30,87.6
3178,A4,497.0,1.0,43,87.6
3179,F#3,497.0,0.25,38,87.6
3180,D4,497.25,0.25,35,87.6
3181,D3,497.5,0.25,38,87.6
3182,D4,497.75,0.25,34,87.6
3183,C5,498.0,0.5,51,87.6
3184,G3,498.0,0.25,38,87.6
3185,G4,498.25,0.25,34,87.6
3186,B4,498.5,0.125,44,87.6
3187,B3,498.5,0.25,38,87.6
3188,G4,498.75,0.25,33,87.6
3189,D5,499.0,0.5,53,87.6
3190,A3,499.0,0.25,40,87.6
3191,G4,499.25,0.25,38,87.6
3192,C5,499.5,0.125,43,87.6
3193,C4,499.5,0.25,40,87.6
3194,G4,499.75,0.25,38,87.6
3195,E5,500.0,1.0,60,87.6
3196,C4,500.0,0.25,47,87.6
3197,G4,500.25,0.25,38,87.6
3198,E4,500.5,0.25,40,87.6
3199,G4,500.75,0.25,38,87.6
3200,D5,501.0,0.5,49,87.6
3201,B3,501.0,0.25,40,87.6
3202,G4,501.25,0.25,33,87.6
3203,D4,501.5,0.25,38,87.6
3204,G4,501.75,0.25,34,87.6
3205,D5,502.0,0.5,54,87.6
3206,A3,502.0,0.25,39,87.6
3207,G4,502.25,0.25,35,87.6
3208,C5,502.5,0.125,47,87.6
3209,C4,502.5,0.25,39,87.6
3210,G4,502.75,0.25,34,87.6
3211,E5,503.0,0.5,55,87.6
3212,B3,503.0,0.25,41,87.6
3213,G4,503.25,0.25,37,87.6
3214,D5,503.5,0.125,43,87.6
3215,D4,503.5,0.25,40,87.6
3216,G4,503.75,0.25,37,87.6
3217,F5,504.0,1.0,61,87.6
3218,D4,504.0,0.25,50,87.6
3219,G4,504.25,0.25,38,87.6
3220,F4,504.5,0.25,41,87.6
3221,G4,504.75,0.25,38,87.6
3222,E5,505.0,0.5,51,87.6
3223,C4,505.0,0.25,41,87.6
3224,G4,505.25,0.25,37,87.6
3225,E4,505.5,0.25,39,87.6
3226,G4,505.75,0.25,37,87.6
3227,E5,506.0,0.5,56,87.6
3228,B3,506.0,0.25,40,87.6
3229,G4,506.25,0.25,38,87.6
3230,D5,506.5,0.125,49,87.6
3231,D4,506.5,0.25,40,87.6
3232,G4,506.75,0.25,37,87.6
3233,F5,507.0,0.5,57,87.6
3234,C4,507.0,0.25,45,87.6
3235,G4,507.25,0.25,40,87.6
3236,E5,507.5,0.125,47,87.6
3237,E4,507.5,0.25,45,87.6
3238,G4,507.75,0.25,40,87.6
3239,G5,508.0,1.0,64,87.6
3240,E4,508.0,0.25,52,87.6
3241,G4,508.25,0.25,41,87.6
3242,F#4,508.5,0.25,45,87.6
3243,G4,508.75,0.25,40,87.6
3244,F5,509.0,0.5,54,87.6
3245,D4,509.0,0.25,45,87.6
3246,G4,509.25,0.25,38,87.6
3247,F#4,509.5,0.25,40,87.6
3248,G4,509.75,0.25,38,87.6
3249,E5,510.0,0.75,56,87.6
3250,C4,510.0,0.25,40,87.6
3251,G4,510.25,0.25,35,87.6
3252,F#4,510.5,0.25,37,87.6
3253,F5,510.75,0.125,53,87.6
3254,G4,510.75,0.25,35,87.6
3255,G5,510.875,0.125,53,87.6
3256,F5,511.0,0.5,56,87.6
3257,B3,511.0,0.25,40,87.6
3258,G4,511.25,0.25,35,87.6
3259,E5,511.5,0.25,56,87.6
3260,C4,511.5,0.25,37,87.6
3261,G4,511.75,0.25,34,87.6
3262,D5,512.0,1.0,55,87.6
3263,G3,512.0,0.25,37,87.6
3264,G4,512.25,0.25,30,87.6
3265,B3,512.5,0.25,33,87.6
3266,G4,512.75,0.25,30,87.6
3267,G3,513.0,0.25,38,87.6
3268,G4,513.25,0.25,33,87.6
3269,G5,513.5,0.25,64,87.6
3270,B3,513.5,0.25,31,87.6
3271,G4,513.75,0.25,31,87.6
3272,F5,514.0,0.5,63,87.6
3273,G3,514.0,0.25,34,87.6
3274,G4,514.25,0.25,29,87.6
3275,E-5,514.5,0.5,44,87.6
3276,C4,514.5,0.25,31,87.6
3277,G4,514.75,0.25,30,87.6
3278,G3,515.0,0.25,33,87.6
3279,G4,515.25,0.25,30,87.6
3280,C5,515.5,0.25,43,87.6
3281,E-4,515.5,0.25,31,87.6
3282,G4,515.75,0.25,29,87.6
3283,B4,516.0,0.5,50,87.6
3284,G3,516.0,0.25,32,87.6
3285,G4,516.25,0.25,30,87.6
3286,D5,516.5,0.5,47,87.6
3287,D4,516.5,0.25,32,87.6
3288,G4,516.75,0.25,30,87.6
3289,G3,517.0,0.25,37,87.6
3290,G4,517.25,0.25,30,87.6
3291,G5,517.5,0.25,64,87.6
3292,B3,517.5,0.25,32,87.6
3293,G4,517.75,0.25,30,87.6
3294,G3,518.0,0.25,35,87.6
3295,G4,518.25,0.25,30,87.6
3296,F5,518.5,0.25,47,87.6
3297,C4,518.5,0.25,32,87.6
3298,E-5,518.75,0.25,47,87.6
3299,G4,518.75,0.25,30,87.6
3300,G3,519.0,0.25,37,87.6
3301,G4,519.25,0.25,30,87.6
3302,D5,519.5,0.25,43,87.6
3303,E-4,519.5,0.25,33,87.6
3304,C5,519.75,0.25,43,87.6
3305,G4,519.75,0.25,30,87.6
3306,B4,520.0,0.5,51,87.6
3307,G3,520.0,0.25,35,87.6
3308,G4,520.25,0.25,30,87.6
3309,D5,520.5,0.5,43,87.6
3310,D4,520.5,0.25,32,87.6
3311,G4,520.75,0.25,30,87.6
3312,G3,521.0,0.25,45,87.6
3313,G5,521.25,0.25,61,87.6
3314,G4,521.25,0.25,35,87.6
3315,F#5,521.5,0.25,62,87.6
3316,B3,521.5,0.25,38,87.6
3317,G5,521.75,0.25,61,87.6
3318,G4,521.75,0.25,36,87.6
3319,G#3,522.0,0.25,45,87.6
3320,E-5,522.25,0.25,57,87.6
3321,G4,522.25,0.25,30,87.6
3322,D5,522.5,0.25,60,87.6
3323,C4,522.5,0.25,33,87.6
3324,E-5,522.75,0.25,58,87.6
3325,G4,522.75,0.25,30,87.6
3326,G#3,523.0,0.25,45,87.6
3327,C5,523.25,0.25,55,87.6
3328,F#4,523.25,0.25,33,87.6
3329,B4,523.5,0.25,57,87.6
3330,C4,523.5,0.25,33,87.6
3331,C5,523.75,0.25,56,87.6
3332,F#4,523.75,0.25,33,87.6
3333,B4,524.0,0.5,64,87.6
3334,G4,524.0,0.5,45,87.6
3335,G3,524.0,0.5,45,87.6
3336,D5,524.5,0.125,56,87.6
3337,B4,525.0,0.5,62,87.6
3338,G3,525.0,0.5,43,87.6
3339,G4,525.0,0.5,43,87.6
3340,D5,525.5,0.125,56,87.6
3341,B4,526.0,0.5,62,87.6
3342,G3,526.0,0.5,44,87.6
3343,G4,526.0,0.5,44,87.6
3344,D5,526.5,0.125,54,87.6
3345,D5,528.0,0.5,37,87.6
3346,B3,528.0,0.5,24,87.6
3347,G3,528.0,0.5,24,87.6
3348,D4,528.0,0.5,24,87.6
3349,F4,528.0,0.5,24,87.6
3350,F5,528.5,0.125,34,87.6
3351,D5,529.0,0.5,37,87.6
3352,F4,529.0,0.5,24,87.6
3353,D4,529.0,0.5,24,87.6
3354,G3,529.0,0.5,24,87.6
3355,B3,529.0,0.5,24,87.6
3356,F5,529.5,0.125,34,87.6
3357,D5,530.0,0.5,37,87.6
3358,G3,530.0,0.5,24,87.6
3359,B3,530.0,0.5,24,87.6
3360,D4,530.0,0.5,24,87.6
3361,F4,530.0,0.5,24,87.6
3362,F5,530.5,0.125,35,87.6
3363,E5,532.002,187/250,60,87.6
3364,C3,532.5,0.5,40,87.6
3365,F5,532.75,0.125,54,87.6
3366,G5,532.875,0.125,54,87.6
3367,C5,533.0,0.5,60,87.6
3368,E3,533.0,0.5,40,87.6
3369,G3,533.5,0.5,40,87.6
3370,D5,533.5,0.5,49,87.6
3371,B4,533.5,0.5,49,87.6
3372,B4,534.0,0.5,53,87.6
3373,D5,534.0,0.375,53,87.6
3374,C4,534.0,0.5,43,87.6
3375,F5,534.375,0.125,48,87.6
3376,C3,534.5,0.5,40,87.6
3377,E5,534.5,0.5,53,87.6
3378,C5,534.5,0.5,53,87.6
3379,G3,535.0,0.5,43,87.6
3380,B4,535.0,1.0,50,87.6
3381,D5,535.0,1.0,50,87.6
3382,G2,535.5,0.5,40,87.6
3383,E5,536.0,0.75,60,87.6
3384,C3,536.5,0.5,40,87.6
3385,F5,536.75,0.125,56,87.6
3386,G5,536.875,0.125,56,87.6
3387,C5,537.0,0.5,61,87.6
3388,E3,537.0,0.5,40,87.6
3389,G3,537.5,0.5,43,87.6
3390,D5,537.5,0.25,49,87.6
3391,B4,537.5,0.25,49,87.6
3392,C4,538.0,0.5,44,87.6
3393,F5,538.0,0.5,54,87.6
3394,D5,538.0,0.5,54,87.6
3395,E5,538.5,1/10,49,87.6
3396,C5,538.5,0.5,49,87.6
3397,C3,538.5,0.5,41,87.6
3398,F5,538.6,1/10,49,87.6
3399,E5,538.7,1/10,49,87.6
3400,F5,538.8,1/10,49,87.6
3401,E5,538.9,1/10,49,87.6
3402,G3,539.0,0.5,43,87.6
3403,B4,539.0,1.0,52,87.6
3404,D5,539.0,1.0,52,87.6
3405,G2,539.5,0.5,41,87.6
3406,F5,540.0,0.75,64,87.6
3407,A3,540.0,0.5,47,87.6
3408,C4,540.5,0.5,46,87.6
3409,G5,540.75,0.125,60,87.6
3410,F5,540.875,0.125,60,87.6
3411,E5,541.0,0.5,64,87.6
3412,G3,541.0,0.5,49,87.6
3413,E5,541.5,0.25,62,87.6
3414,C4,541.5,0.5,45,87.6
3415,A5,542.0,0.75,69,87.6
3416,F3,542.0,0.5,49,87.6
3417,C4,542.5,0.5,47,87.6
3418,B5,542.75,0.125,63,87.6
3419,C6,542.875,0.125,63,87.6
3420,G5,543.0,0.5,69,87.6
3421,E3,543.0,0.5,50,87.6
3422,G5,543.5,0.25,69,87.6
3423,C4,543.5,0.5,46,87.6
3424,G5,544.0,0.25,68,87.6
3425,F5,544.25,0.188,63,87.6
3426,F5,544.5,0.25,64,87.6
3427,G4,544.5,0.5,43,87.6
3428,B3,544.5,0.5,43,87.6
3429,D5,544.75,0.188,63,87.6
3430,F5,545.0,0.25,69,87.6
3431,E5,545.25,0.188,64,87.6
3432,E5,545.5,0.25,66,87.6
3433,C4,545.5,0.5,43,87.6
3434,G4,545.5,0.5,43,87.6
3435,C5,545.75,0.188,64,87.6
3436,C#5,546.0,0.25,64,87.6
3437,G3,546.0,1.0,44,87.6
3438,B3,546.0,1.0,44,87.6
3439,D5,546.25,0.25,60,87.6
3440,E5,546.5,0.25,64,87.6
3441,D5,546.75,0.25,62,87.6
3442,C5,547.0,0.25,63,87.6
3443,B4,547.25,0.25,61,87.6
3444,A4,547.5,0.25,61,87.6
3445,G4,547.75,0.25,60,87.6
3446,E5,548.0,0.75,70,87.6
3447,C2,548.0,0.25,64,87.6
3448,E2,548.25,0.25,56,87.6
3449,G2,548.5,0.25,57,87.6
3450,F5,548.75,0.125,64,87.6
3451,C3,548.75,0.25,56,87.6
3452,G5,548.875,0.125,64,87.6
3453,C5,549.0,0.5,70,87.6
3454,E2,549.0,0.25,60,87.6
3455,E3,549.25,0.25,57,87.6
3456,G2,549.5,0.25,60,87.6
3457,B4,549.5,0.5,60,87.6
3458,D5,549.5,0.5,60,87.6
3459,G3,549.75,0.25,57,87.6
3460,D5,550.0,0.375,63,87.6
3461,B4,550.0,0.5,63,87.6
3462,C3,550.0,0.25,60,87.6
3463,E3,550.25,0.25,55,87.6
3464,F5,550.375,0.125,57,87.6
3465,G3,550.5,0.25,57,87.6
3466,C5,550.5,0.5,63,87.6
3467,E5,550.5,0.5,63,87.6
3468,C4,550.75,0.25,56,87.6
3469,G2,551.0,0.25,60,87.6
3470,B4,551.0,1.0,61,87.6
3471,D5,551.0,1.0,61,87.6
3472,B2,551.25,0.25,57,87.6
3473,D3,551.5,0.25,59,87.6
3474,G3,551.75,0.25,57,87.6
3475,E5,552.0,0.75,70,87.6
3476,C2,552.0,0.25,60,87.6
3477,E2,552.25,0.25,56,87.6
3478,G2,552.5,0.25,57,87.6
3479,F5,552.75,0.125,67,87.6
3480,C3,552.75,0.25,55,87.6
3481,G5,552.875,0.125,67,87.6
3482,C5,553.0,0.5,71,87.6
3483,E2,553.0,0.25,60,87.6
3484,E3,553.25,0.25,57,87.6
3485,G2,553.5,0.25,58,87.6
3486,D5,553.5,0.25,60,87.6
3487,B4,553.5,0.25,60,87.6
3488,G3,553.75,0.25,57,87.6
3489,C3,554.0,0.25,60,87.6
3490,D5,554.0,0.5,64,87.6
3491,F5,554.0,0.5,64,87.6
3492,E3,554.25,0.25,55,87.6
3493,C5,554.5,0.5,60,87.6
3494,E5,554.5,1/10,60,87.6
3495,G3,554.5,0.25,57,87.6
3496,F5,554.6,1/10,60,87.6
3497,E5,554.7,1/10,60,87.6
3498,C4,554.75,0.25,56,87.6
3499,F5,554.8,1/10,60,87.6
3500,E5,554.9,1/10,60,87.6
3501,G2,555.0,0.25,62,87.6
3502,B4,555.0,1.0,62,87.6
3503,D5,555.0,1.0,62,87.6
3504,B2,555.25,0.25,56,87.6
3505,D3,555.5,0.25,57,87.6
3506,G3,555.75,0.25,56,87.6
3507,F5,556.0,0.75,77,87.6
3508,A3,556.0,0.25,53,87.6
3509,C4,556.25,0.25,49,87.6
3510,A3,556.5,0.25,53,87.6
3511,G5,556.75,0.125,70,87.6
3512,C4,556.75,0.25,49,87.6
3513,F5,556.875,0.125,70,87.6
3514,E5,557.0,0.5,77,87.6
3515,G3,557.0,0.25,53,87.6
3516,C4,557.25,0.25,50,87.6
3517,E5,557.5,0.25,74,87.6
3518,G3,557.5,0.25,53,87.6
3519,C4,557.75,0.25,50,87.6
3520,A5,558.0,0.75,78,87.6
3521,F3,558.0,0.25,57,87.6
3522,C4,558.25,0.25,53,87.6
3523,F3,558.5,0.25,57,87.6
3524,B5,558.75,0.125,71,87.6
3525,C4,558.75,0.25,53,87.6
3526,C6,558.875,0.125,69,87.6
3527,G5,559.0,0.5,79,87.6
3528,E3,559.0,0.25,57,87.6
3529,C4,559.25,0.25,53,87.6
3530,G5,559.5,0.25,77,87.6
3531,E3,559.5,0.25,57,87.6
3532,C4,559.75,0.25,52,87.6
3533,G#5,560.0,0.25,77,87.6
3534,A5,560.25,0.25,74,87.6
3535,F5,560.5,0.25,75,87.6
3536,D4,560.5,0.25,49,87.6
3537,F3,560.5,0.25,49,87.6
3538,D5,560.75,0.25,72,87.6
3539,C5,561.0,0.5,75,87.6
3540,G3,561.0,1.0,49,87.6
3541,E4,561.0,0.5,49,87.6
3542,B4,561.5,0.5,71,87.6
3543,D4,561.5,0.5,49,87.6
3544,C5,562.0,167/1000,75,87.6
3545,E4,562.0,1.0,49,87.6
3546,C4,562.0,1.0,49,87.6
3547,G4,562.167,167/1000,69,87.6
3548,E5,562.333,167/1000,66,87.6
3549,C5,562.5,167/1000,75,87.6
3550,G5,562.667,167/1000,69,87.6
3551,E5,562.833,167/1000,66,87.6
3552,C6,563.0,167/1000,73,87.6
3553,B5,563.167,167/1000,66,87.6
3554,A5,563.333,167/1000,65,87.6
3555,G5,563.5,167/1000,70,87.6
3556,F5,563.667,167/1000,67,87.6
3557,E5,563.833,167/1000,65,87.6
3558,C#5,564.0,167/1000,63,87.6
3559,D5,564.167,167/1000,60,87.6
3560,F5,564.333,167/1000,60,87.6
3561,A5,564.5,167/1000,62,87.6
3562,F3,564.5,0.5,38,87.6
3563,A3,564.5,0.5,38,87.6
3564,D4,564.5,0.5,38,87.6
3565,F5,564.667,167/1000,57,87.6
3566,D5,564.833,167/1000,57,87.6
3567,G5,565.0,167/1000,61,87.6
3568,G3,565.0,1.0,38,87.6
3569,C4,565.0,0.5,38,87.6
3570,E4,565.0,0.5,38,87.6
3571,E5,565.167,167/1000,57,87.6
3572,C5,565.333,167/1000,57,87.6
3573,F5,565.5,167/1000,61,87.6
3574,D4,565.5,0.5,44,87.6
3575,F4,565.5,0.5,44,87.6
3576,D5,565.667,167/1000,55,87.6
3577,B4,565.833,167/1000,55,87.6
3578,C5,566.0,167/1000,75,87.6
3579,C4,566.0,1.0,49,87.6
3580,E4,566.0,1.0,49,87.6
3581,G4,566.167,167/1000,69,87.6
3582,E5,566.333,167/1000,67,87.6
3583,C5,566.5,167/1000,75,87.6
3584,G5,566.667,167/1000,69,87.6
3585,E5,566.833,167/1000,67,87.6
3586,C6,567.0,167/1000,73,87.6
3587,B5,567.167,167/1000,66,87.6
3588,A5,567.333,167/1000,64,87.6
3589,G5,567.5,167/1000,70,87.6
3590,F5,567.667,167/1000,67,87.6
3591,E5,567.833,167/1000,65,87.6
3592,C#5,568.0,167/1000,63,87.6
3593,D5,568.167,167/1000,60,87.6
3594,F5,568.333,167/1000,59,87.6
3595,A5,568.5,167/1000,62,87.6
3596,A3,568.5,0.5,38,87.6
3597,F3,568.5,0.5,38,87.6
3598,D4,568.5,0.5,38,87.6
3599,F5,568.667,167/1000,57,87.6
3600,D5,568.833,167/1000,55,87.6
3601,G5,569.0,167/1000,61,87.6
3602,G3,569.0,1.0,38,87.6
3603,C4,569.0,0.5,38,87.6
3604,E4,569.0,0.5,38,87.6
3605,E5,569.167,167/1000,57,87.6
3606,C5,569.333,167/1000,54,87.6
3607,F5,569.5,167/1000,61,87.6
3608,D4,569.5,0.5,40,87.6
3609,F4,569.5,0.5,40,87.6
3610,D5,569.667,167/1000,55,87.6
3611,B4,569.833,167/1000,55,87.6
3612,C5,570.0,0.125,52,87.6
3613,C4,570.0,0.125,38,87.6
3614,E4,570.0,0.125,38,87.6
3615,G4,570.5,0.125,50,87.6
3616,G3,570.5,0.125,38,87.6
3617,C4,571.0,1.0,50,87.6
3618,C3,571.0,1.0,38,87.6
3619,C2,571.0,1.0,38,87.6
3620,E5,572.0,1.0,50,87.6
3621,C4,572.0,0.25,37,87.6
3622,G4,572.25,0.25,30,87.6
3623,F#4,572.5,0.25,33,87.6
3624,G4,572.75,0.25,30,87.6
3625,F5,573.0,0.125,46,87.6
3626,C4,573.0,0.25,37,87.6
3627,E5,573.125,0.125,46,87.6
3628,D5,573.25,0.125,46,87.6
3629,G4,573.25,0.25,30,87.6
3630,E5,573.375,0.125,46,87.6
3631,G5,573.5,0.25,50,87.6
3632,D4,573.5,0.25,33,87.6
3633,F5,573.75,0.25,46,87.6
3634,G4,573.75,0.25,30,87.6
3635,E5,574.0,0.25,51,87.6
3636,E4,574.0,0.25,37,87.6
3637,D5,574.25,0.25,49,87.6
3638,G4,574.25,0.25,30,87.6
3639,C5,574.5,0.25,49,87.6
3640,F4,574.5,0.25,33,87.6
3641,B4,574.75,0.25,49,87.6
3642,G4,574.75,0.25,30,87.6
3643,C5,575.0,0.125,52,87.6
3644,E4,575.0,0.25,37,87.6
3645,G4,575.25,0.25,30,87.6
3646,C#5,575.5,0.125,55,87.6
3647,B-3,575.5,0.25,33,87.6
3648,G4,575.75,0.25,31,87.6
3649,D5,576.0,0.125,56,87.6
3650,B3,576.0,0.25,38,87.6
3651,G4,576.25,0.25,31,87.6
3652,E-5,576.5,0.125,60,87.6
3653,B3,576.5,0.25,35,87.6
3654,G4,576.75,0.25,32,87.6
3655,E5,577.0,0.125,63,87.6
3656,C4,577.0,0.25,41,87.6
3657,G4,577.25,0.25,33,87.6
3658,G5,577.5,0.25,62,87.6
3659,D4,577.5,0.25,37,87.6
3660,F5,577.75,0.25,57,87.6
3661,G4,577.75,0.25,33,87.6
3662,E5,578.0,0.75,62,87.6
3663,C4,578.0,0.25,40,87.6
3664,G4,578.25,0.25,30,87.6
3665,F#4,578.5,0.25,33,87.6
3666,F5,578.75,0.125,55,87.6
3667,G4,578.75,0.25,30,87.6
3668,E5,578.875,0.125,55,87.6
3669,D5,579.0,0.5,56,87.6
3670,B3,579.0,0.25,37,87.6
3671,G4,579.25,0.25,31,87.6
3672,F#4,579.5,0.25,33,87.6
3673,G4,579.75,0.25,32,87.6
3674,F5,580.0,1.0,58,87.6
3675,B3,580.0,0.25,37,87.6
3676,G4,580.25,0.25,31,87.6
3677,F#4,580.5,0.25,33,87.6
3678,G4,580.75,0.25,31,87.6
3679,G5,581.0,0.125,48,87.6
3680,B3,581.0,0.25,37,87.6
3681,F5,581.125,0.125,49,87.6
3682,E5,581.25,0.125,49,87.6
3683,G4,581.25,0.25,31,87.6
3684,F5,581.375,0.125,49,87.6
3685,A5,581.5,0.25,55,87.6
3686,C4,581.5,0.25,33,87.6
3687,G5,581.75,0.25,52,87.6
3688,G4,581.75,0.25,31,87.6
3689,F5,582.0,0.25,52,87.6
3690,D4,582.0,0.25,37,87.6
3691,E5,582.25,0.25,50,87.6
3692,G4,582.25,0.25,31,87.6
3693,D5,582.5,0.25,50,87.6
3694,E4,582.5,0.25,33,87.6
3695,C5,582.75,0.25,50,87.6
3696,G4,582.75,0.25,31,87.6
3697,B4,583.0,0.25,49,87.6
3698,F4,583.0,0.25,37,87.6
3699,C5,583.25,0.125,50,87.6
3700,G4,583.25,0.25,32,87.6
3701,D5,583.5,0.125,51,87.6
3702,D4,583.5,0.25,34,87.6
3703,E5,583.75,0.125,53,87.6
3704,G4,583.75,0.25,31,87.6
3705,F5,584.0,0.125,54,87.6
3706,B3,584.0,0.25,40,87.6
3707,G5,584.25,0.125,55,87.6
3708,G4,584.25,0.25,31,87.6
3709,A5,584.5,0.125,56,87.6
3710,D4,584.5,0.25,34,87.6
3711,B5,584.75,0.125,58,87.6
3712,G4,584.75,0.25,31,87.6
3713,C6,585.0,0.125,60,87.6
3714,B3,585.0,0.25,46,87.6
3715,D6,585.25,0.125,61,87.6
3716,G4,585.25,0.25,35,87.6
3717,E6,585.5,0.125,62,87.6
3718,G3,585.5,0.25,37,87.6
3719,F6,585.75,0.125,63,87.6
3720,G4,585.75,0.25,35,87.6
3721,E-6,586.0,1.0,79,87.6
3722,C4,586.0,0.25,44,87.6
3723,G4,586.25,0.25,37,87.6
3724,F4,586.5,0.25,40,87.6
3725,G4,586.75,0.25,37,87.6
3726,E6,587.0,0.5,75,87.6
3727,C4,587.0,0.25,44,87.6
3728,G4,587.25,0.25,37,87.6
3729,E4,587.5,0.25,40,87.6
3730,G4,587.75,0.25,37,87.6
3731,B-4,588.0,667/1000,64,87.6
3732,C3,588.0,167/1000,48,87.6
3733,E3,588.167,167/1000,43,87.6
3734,G3,588.333,167/1000,41,87.6
3735,C4,588.5,0.5,46,87.6
3736,E5,588.667,167/1000,60,87.6
3737,G5,588.833,167/1000,60,87.6
3738,B-5,589.0,167/1000,60,87.6
3739,G5,589.167,167/1000,58,87.6
3740,E5,589.333,167/1000,58,87.6
3741,G5,589.5,167/1000,60,87.6
3742,E5,589.667,167/1000,58,87.6
3743,B-4,589.833,167/1000,58,87.6
3744,A4,590.0,667/1000,64,87.6
3745,F2,590.0,167/1000,48,87.6
3746,A2,590.167,167/1000,43,87.6
3747,C3,590.333,167/1000,41,87.6
3748,F3,590.5,0.5,48,87.6
3749,C5,590.667,167/1000,60,87.6
3750,F5,590.833,167/1000,58,87.6
3751,A5,591.0,167/1000,60,87.6
3752,F5,591.167,167/1000,59,87.6
3753,C5,591.333,167/1000,59,87.6
3754,F5,591.5,167/1000,60,87.6
3755,C5,591.667,167/1000,59,87.6
3756,A4,591.833,167/1000,59,87.6
3757,G4,592.0,667/1000,64,87.6
3758,A2,592.0,167/1000,48,87.6
3759,C#3,592.167,167/1000,43,87.6
3760,E3,592.333,167/1000,40,87.6
3761,A3,592.5,0.5,48,87.6
3762,C#5,592.667,167/1000,60,87.6
3763,E5,592.833,167/1000,58,87.6
3764,G5,593.0,167/1000,60,87.6
3765,E5,593.167,167/1000,58,87.6
3766,C#5,593.333,167/1000,58,87.6
3767,E5,593.5,167/1000,60,87.6
3768,C#5,593.667,167/1000,58,87.6
3769,G4,593.833,167/1000,58,87.6
3770,F#4,594.0,667/1000,64,87.6
3771,D3,594.0,167/1000,48,87.6
3772,F#3,594.167,167/1000,43,87.6
3773,A3,594.333,167/1000,40,87.6
3774,D4,594.5,0.5,48,87.6
3775,A4,594.667,167/1000,60,87.6
3776,D5,594.833,167/1000,57,87.6
3777,F#5,595.0,167/1000,60,87.6
3778,D5,595.167,167/1000,58,87.6
3779,A4,595.333,167/1000,58,87.6
3780,D5,595.5,167/1000,60,87.6
3781,A4,595.667,167/1000,58,87.6
3782,F#4,595.833,167/1000,58,87.6
3783,F4,596.0,667/1000,64,87.6
3784,B2,596.0,167/1000,48,87.6
3785,D3,596.167,167/1000,43,87.6
3786,G3,596.333,167/1000,40,87.6
3787,B3,596.5,0.5,48,87.6
3788,B4,596.667,167/1000,60,87.6
3789,D5,596.833,167/1000,58,87.6
3790,F5,597.0,167/1000,60,87.6
3791,D5,597.167,167/1000,58,87.6
3792,B4,597.333,167/1000,58,87.6
3793,D5,597.5,167/1000,60,87.6
3794,B4,597.667,167/1000,58,87.6
3795,F4,597.833,167/1000,59,87.6
3796,E4,598.0,667/1000,64,87.6
3797,C3,598.0,167/1000,48,87.6
3798,E3,598.167,167/1000,43,87.6
3799,G3,598.333,167/1000,40,87.6
3800,C4,598.5,0.5,48,87.6
3801,G4,598.667,167/1000,60,87.6
3802,C5,598.833,167/1000,60,87.6
3803,E5,599.0,167/1000,60,87.6
3804,C5,599.167,167/1000,58,87.6
3805,G4,599.333,167/1000,58,87.6
3806,C5,599.5,167/1000,60,87.6
3807,G4,599.667,167/1000,57,87.6
3808,E4,599.833,167/1000,57,87.6
3809,F3,600.0,0.5,50,87.6
3810,A3,600.0,0.5,50,87.6
3811,D4,600.167,167/1000,60,87.6
3812,A4,600.333,167/1000,58,87.6
3813,D5,600.5,167/1000,58,87.6
3814,A4,600.667,167/1000,60,87.6
3815,D4,600.833,167/1000,58,87.6
3816,A3,601.0,0.5,52,87.6
3817,F#3,601.0,0.5,52,87.6
3818,D4,601.167,167/1000,60,87.6
3819,A4,601.333,167/1000,57,87.6
3820,C5,601.5,167/1000,60,87.6
3821,A4,601.667,167/1000,58,87.6
3822,D4,601.833,167/1000,58,87.6
3823,B4,602.0,0.5,63,87.6
3824,G3,602.0,0.125,57,87.6
3825,G4,602.25,0.25,40,87.6
3826,F#4,602.5,0.25,44,87.6
3827,G4,602.75,0.25,40,87.6
3828,F#4,603.0,0.25,44,87.6
3829,G5,603.25,0.125,62,87.6
3830,G4,603.25,0.25,41,87.6
3831,A5,603.5,0.125,64,87.6
3832,F4,603.5,0.25,44,87.6
3833,B5,603.75,0.125,68,87.6
3834,G4,603.75,0.25,40,87.6
3835,C6,604.0,1.25,64,87.6
3836,E4,604.0,0.25,49,87.6
3837,G4,604.25,0.25,40,87.6
3838,C4,604.5,0.25,35,87.6
3839,G4,604.75,0.25,30,87.6
3840,E4,605.0,0.25,37,87.6
3841,B5,605.25,0.25,50,87.6
3842,G4,605.25,0.25,31,87.6
3843,A5,605.5,0.25,51,87.6
3844,C4,605.5,0.25,35,87.6
3845,G5,605.75,6/25,50,87.6
3846,G4,605.75,0.25,31,87.6
3847,G5,606.0,0.25,53,87.6
3848,D4,606.0,0.25,37,87.6
3849,F5,606.25,0.25,50,87.6
3850,G4,606.25,0.25,34,87.6
3851,E5,606.5,0.25,51,87.6
3852,C4,606.5,0.25,37,87.6
3853,D5,606.75,0.25,50,87.6
3854,G4,606.75,0.25,34,87.6
3855,G5,607.0,0.125,54,87.6
3856,B3,607.0,0.25,37,87.6
3857,G4,607.25,0.25,34,87.6
3858,F5,607.5,0.125,51,87.6
3859,G3,607.5,0.25,37,87.6
3860,G4,607.75,0.25,34,87.6
3861,E-5,608.0,0.5,53,87.6
3862,C4,608.0,0.25,38,87.6
3863,G4,608.25,0.25,31,87.6
3864,E5,608.5,0.5,51,87.6
3865,F#4,608.5,0.25,34,87.6
3866,G4,608.75,0.25,31,87.6
3867,F#4,609.0,0.25,39,87.6
3868,G4,609.25,0.25,41,87.6
3869,A4,609.5,0.25,44,87.6
3870,G4,609.75,0.25,41,87.6
3871,F4,610.0,0.25,49,87.6
3872,G4,610.25,0.25,47,87.6
3873,E4,610.5,0.25,49,87.6
3874,G5,610.75,0.125,54,87.6
3875,G4,610.75,0.25,45,87.6
3876,G#5,611.0,0.125,57,87.6
3877,F4,611.0,0.25,49,87.6
3878,A5,611.25,0.125,61,87.6
3879,G4,611.25,0.25,46,87.6
3880,B-5,611.5,0.125,64,87.6
3881,D4,611.5,0.25,49,87.6
3882,B5,611.75,0.125,67,87.6
3883,G4,611.75,0.25,46,87.6
3884,C6,612.0,1.25,73,87.6
3885,E4,612.0,0.25,49,87.6
3886,G4,612.25,0.25,41,87.6
3887,C4,612.5,0.25,35,87.6
3888,G4,612.75,0.25,31,87.6
3889,E4,613.0,0.25,37,87.6
3890,B5,613.25,0.25,48,87.6
3891,G4,613.25,0.25,31,87.6
3892,A5,613.5,0.25,50,87.6
3893,C4,613.5,0.25,35,87.6
3894,G5,613.75,121/500,47,87.6
3895,G4,613.75,0.25,31,87.6
3896,G5,614.0,0.25,53,87.6
3897,D4,614.0,0.25,37,87.6
3898,F5,614.25,0.25,47,87.6
3899,G4,614.25,0.25,34,87.6
3900,E5,614.5,0.25,50,87.6
3901,C4,614.5,0.25,37,87.6
3902,D5,614.75,0.25,48,87.6
3903,G4,614.75,0.25,34,87.6
3904,G5,615.0,0.125,54,87.6
3905,B3,615.0,0.25,37,87.6
3906,G4,615.25,0.25,34,87.6
3907,F5,615.5,0.125,51,87.6
3908,G3,615.5,0.25,37,87.6
3909,G4,615.75,0.25,34,87.6
3910,E5,616.0,0.5,51,87.6
3911,C4,616.0,0.25,34,87.6
3912,G4,616.25,0.25,32,87.6
3913,E4,616.5,0.25,32,87.6
3914,G4,616.75,0.25,32,87.6
3915,A5,617.0,0.125,63,87.6
3916,C4,617.0,0.25,37,87.6
3917,B5,617.125,0.125,56,87.6
3918,A5,617.25,0.125,62,87.6
3919,A4,617.25,0.25,29,87.6
3920,B5,617.375,0.125,61,87.6
3921,C6,617.5,0.25,68,87.6
3922,F4,617.5,0.25,32,87.6
3923,C6,617.75,0.125,66,87.6
3924,A4,617.75,0.25,29,87.6
3925,C6,618.0,0.5,64,87.6
3926,C4,618.0,0.25,32,87.6
3927,G4,618.25,0.25,30,87.6
3928,E4,618.5,0.25,32,87.6
3929,G4,618.75,0.25,31,87.6
3930,D6,619.0,0.125,68,87.6
3931,B-3,619.0,0.25,32,87.6
3932,E6,619.125,0.125,59,87.6
3933,D6,619.25,0.125,65,87.6
3934,F4,619.25,0.25,30,87.6
3935,E6,619.375,0.125,68,87.6
3936,F6,619.5,0.25,68,87.6
3937,D4,619.5,0.25,32,87.6
3938,F6,619.75,0.125,64,87.6
3939,F4,619.75,0.25,30,87.6
3940,F6,620.0,0.5,64,87.6
3941,A3,620.0,0.25,32,87.6
3942,F4,620.25,0.25,30,87.6
3943,C4,620.5,0.25,32,87.6
3944,F4,620.75,0.25,30,87.6
3945,F5,621.0,0.125,62,87.6
3946,F3,621.0,0.25,40,87.6
3947,G5,621.125,0.125,54,87.6
3948,F5,621.25,0.125,59,87.6
3949,D4,621.25,0.25,34,87.6
3950,G5,621.375,0.125,56,87.6
3951,A5,621.5,0.25,66,87.6
3952,A3,621.5,0.25,40,87.6
3953,A5,621.75,0.125,60,87.6
3954,D4,621.75,0.25,33,87.6
3955,A5,622.0,0.25,60,87.6
3956,G3,622.0,0.25,39,87.6
3957,G5,622.25,0.25,61,87.6
3958,E4,622.25,0.25,34,87.6
3959,F5,622.5,0.125,56,87.6
3960,C4,622.5,0.25,39,87.6
3961,E5,622.75,0.125,56,87.6
3962,E4,622.75,0.25,34,87.6
3963,D5,623.0,0.25,56,87.6
3964,G3,623.0,0.25,39,87.6
3965,F4,623.25,0.25,34,87.6
3966,G5,623.5,0.25,56,87.6
3967,B3,623.5,0.25,38,87.6
3968,F4,623.75,0.25,33,87.6
3969,F5,624.0,0.5,62,87.6
3970,C3,624.0,0.25,40,87.6
3971,G3,624.25,0.25,35,87.6
3972,E5,624.5,0.5,58,87.6
3973,E3,624.5,0.25,40,87.6
3974,G3,624.75,0.25,34,87.6
3975,A4,625.0,0.125,57,87.6
3976,C3,625.0,0.25,32,87.6
3977,B4,625.125,0.125,60,87.6
3978,A4,625.25,0.125,57,87.6
3979,A3,625.25,0.25,30,87.6
3980,B4,625.375,0.125,61,87.6
3981,C5,625.5,0.25,66,87.6
3982,F3,625.5,0.25,32,87.6
3983,C5,625.75,0.125,60,87.6
3984,A3,625.75,0.25,30,87.6
3985,C5,626.0,0.5,60,87.6
3986,C3,626.0,0.25,32,87.6
3987,G3,626.25,0.25,30,87.6
3988,E3,626.5,0.25,32,87.6
3989,G3,626.75,0.25,30,87.6
3990,D5,627.0,0.125,57,87.6
3991,B-2,627.0,0.25,32,87.6
3992,E5,627.125,0.125,60,87.6
3993,D5,627.25,0.125,57,87.6
3994,F3,627.25,0.25,29,87.6
3995,E5,627.375,0.125,64,87.6
3996,F5,627.5,0.25,66,87.6
3997,D3,627.5,0.25,32,87.6
3998,F5,627.75,0.125,60,87.6
3999,F3,627.75,0.25,29,87.6
4000,F5,628.0,0.5,60,87.6
4001,A2,628.0,0.25,34,87.6
4002,F3,628.25,0.25,30,87.6
4003,C3,628.5,0.25,33,87.6
4004,F3,628.75,0.25,29,87.6
4005,F5,629.0,0.125,57,87.6
4006,F2,629.0,0.25,41,87.6
4007,G5,629.125,0.125,60,87.6
4008,F5,629.25,0.125,57,87.6
4009,D3,629.25,0.25,38,87.6
4010,G5,629.375,0.125,68,87.6
4011,A5,629.5,0.25,64,87.6
4012,A2,629.5,0.25,40,87.6
4013,A5,629.75,0.125,61,87.6
4014,D3,629.75,0.25,37,87.6
4015,A5,630.0,0.25,62,87.6
4016,G2,630.0,0.25,40,87.6
4017,G5,630.25,0.25,61,87.6
4018,E3,630.25,0.25,37,87.6
4019,F5,630.5,0.125,61,87.6
4020,C3,630.5,0.25,39,87.6
4021,E5,630.75,0.125,61,87.6
4022,E3,630.75,0.25,32,87.6
4023,E5,631.0,0.25,62,87.6
4024,G2,631.0,0.25,38,87.6
4025,D5,631.25,0.25,60,87.6
4026,F3,631.25,0.25,33,87.6
4027,C5,631.5,0.125,61,87.6
4028,D3,631.5,0.25,38,87.6
4029,B4,631.75,0.125,59,87.6
4030,F3,631.75,0.25,32,87.6
4031,G5,632.0,667/1000,78,87.6
4032,C3,632.5,0.5,38,87.6
4033,E3,632.5,0.5,38,87.6
4034,E5,632.667,167/1000,61,87.6
4035,C5,632.833,167/1000,61,87.6
4036,B4,633.0,167/1000,63,87.6
4037,D3,633.0,0.5,44,87.6
4038,F3,633.0,0.5,44,87.6
4039,D5,633.167,167/1000,63,87.6
4040,G4,633.333,167/1000,61,87.6
4041,C5,633.5,167/1000,63,87.6
4042,G3,633.5,0.5,49,87.6
4043,E3,633.5,0.5,49,87.6
4044,E5,633.667,167/1000,61,87.6
4045,G4,633.833,167/1000,59,87.6
4046,D5,634.0,667/1000,77,87.6
4047,G2,634.5,0.5,37,87.6
4048,B2,634.5,0.5,37,87.6
4049,B4,634.667,167/1000,55,87.6
4050,G4,634.833,167/1000,52,87.6
4051,F#4,635.0,167/1000,57,87.6
4052,A2,635.0,0.5,40,87.6
4053,C3,635.0,0.5,40,87.6
4054,G4,635.167,167/1000,54,87.6
4055,D4,635.333,167/1000,54,87.6
4056,F4,635.5,167/1000,55,87.6
4057,B2,635.5,0.5,44,87.6
4058,D3,635.5,0.5,44,87.6
4059,G4,635.667,167/1000,53,87.6
4060,D4,635.833,167/1000,53,87.6
4061,G5,636.0,667/1000,75,87.6
4062,C3,636.5,0.5,38,87.6
4063,E3,636.5,0.5,38,87.6
4064,E5,636.667,167/1000,61,87.6
4065,C5,636.833,167/1000,60,87.6
4066,B4,637.0,167/1000,63,87.6
4067,D3,637.0,0.5,44,87.6
4068,F3,637.0,0.5,44,87.6
4069,D5,637.167,167/1000,63,87.6
4070,G4,637.333,167/1000,61,87.6
4071,C5,637.5,167/1000,63,87.6
4072,G3,637.5,0.5,49,87.6
4073,E3,637.5,0.5,49,87.6
4074,E5,637.667,167/1000,61,87.6
4075,G4,637.833,167/1000,61,87.6
4076,D5,638.0,667/1000,77,87.6
4077,G2,638.5,0.5,37,87.6
4078,B2,638.5,0.5,37,87.6
4079,B4,638.667,167/1000,55,87.6
4080,G4,638.833,167/1000,55,87.6
4081,F#4,639.0,167/1000,57,87.6
4082,A2,639.0,0.5,40,87.6
4083,C3,639.0,0.5,40,87.6
4084,G4,639.167,167/1000,54,87.6
4085,D4,639.333,167/1000,54,87.6
4086,F4,639.5,167/1000,55,87.6
4087,B2,639.5,0.5,44,87.6
4088,D3,639.5,0.5,44,87.6
4089,G4,639.667,167/1000,53,87.6
4090,D4,639.833,167/1000,53,87.6
4091,E4,640.0,167/1000,53,87.6
4092,C3,640.0,1.0,44,87.6
4093,C4,640.167,167/1000,54,87.6
4094,E4,640.333,167/1000,56,87.6
4095,G4,640.5,167/1000,57,87.6
4096,E4,640.667,167/1000,58,87.6
4097,G4,640.833,167/1000,61,87.6
4098,C5,641.0,167/1000,61,87.6
4099,G4,641.167,167/1000,63,87.6
4100,C5,641.333,167/1000,64,87.6
4101,E5,641.5,167/1000,64,87.6
4102,C5,641.667,167/1000,67,87.6
4103,E5,641.833,167/1000,68,87.6
4104,G5,642.0,167/1000,69,87.6
4105,G3,642.0,1.5,44,87.6
4106,C4,642.0,2.0,44,87.6
4107,E3,642.0,2.0,44,87.6
4108,E5,642.167,167/1000,70,87.6
4109,G5,642.333,167/1000,73,87.6
4110,B-5,642.5,167/1000,73,87.6
4111,G5,642.667,167/1000,70,87.6
4112,E5,642.833,167/1000,68,87.6
4113,C5,643.0,167/1000,66,87.6
4114,B-4,643.167,167/1000,64,87.6
4115,G4,643.333,167/1000,61,87.6
4116,C5,643.5,167/1000,60,87.6
4117,B-3,643.5,0.5,44,87.6
4118,B-4,643.667,167/1000,56,87.6
4119,G#4,643.833,167/1000,54,87.6
4120,A4,644.0,0.125,51,87.6
4121,F3,644.0,1.0,38,87.6
4122,C4,644.0,1.0,44,87.6
4123,A5,644.25,0.25,52,87.6
4124,G#5,644.5,0.25,51,87.6
4125,A5,644.75,0.25,48,87.6
4126,G#5,645.0,0.25,52,87.6
4127,A5,645.25,0.25,49,87.6
4128,G#5,645.5,0.25,52,87.6
4129,A5,645.75,0.25,49,87.6
4130,C5,646.0,1.0,53,87.6
4131,F#3,646.5,0.5,37,87.6
4132,E-4,646.5,0.5,37,87.6
4133,D5,647.0,0.125,46,87.6
4134,G3,647.0,0.5,40,87.6
4135,E4,647.0,0.5,40,87.6
4136,C5,647.125,0.125,45,87.6
4137,B4,647.25,0.125,46,87.6
4138,C5,647.375,0.125,49,87.6
4139,B4,647.5,0.5,44,87.6
4140,E5,647.5,0.25,44,87.6
4141,F4,647.5,0.5,44,87.6
4142,D5,647.75,0.25,49,87.6
4143,C5,648.0,167/1000,54,87.6
4144,E4,648.0,1.0,44,87.6
4145,C4,648.0,1.0,44,87.6
4146,G4,648.167,167/1000,54,87.6
4147,C5,648.333,167/1000,56,87.6
4148,E5,648.5,167/1000,57,87.6
4149,C5,648.667,167/1000,58,87.6
4150,E5,648.833,167/1000,61,87.6
4151,G5,649.0,167/1000,61,87.6
4152,E5,649.167,167/1000,63,87.6
4153,G5,649.333,167/1000,64,87.6
4154,C6,649.5,167/1000,64,87.6
4155,D6,649.667,167/1000,67,87.6
4156,C6,649.833,167/1000,68,87.6
4157,B-5,650.0,167/1000,69,87.6
4158,G3,650.0,1.5,44,87.6
4159,C4,650.0,2.0,44,87.6
4160,E3,650.0,2.0,44,87.6
4161,A5,650.167,167/1000,70,87.6
4162,G5,650.333,167/1000,73,87.6
4163,F5,650.5,167/1000,73,87.6
4164,E5,650.667,167/1000,70,87.6
4165,D5,650.833,167/1000,68,87.6
4166,C5,651.0,167/1000,66,87.6
4167,D5,651.167,167/1000,64,87.6
4168,C5,651.333,167/1000,61,87.6
4169,B-4,651.5,167/1000,60,87.6
4170,B-3,651.5,0.5,44,87.6
4171,A4,651.667,167/1000,56,87.6
4172,G#4,651.833,167/1000,54,87.6
4173,A4,652.0,0.125,51,87.6
4174,C4,652.0,1.0,44,87.6
4175,A3,652.0,1.0,38,87.6
4176,F3,652.0,1.0,38,87.6
4177,A5,652.25,0.25,48,87.6
4178,G#5,652.5,0.25,51,87.6
4179,A5,652.75,0.25,48,87.6
4180,G#5,653.0,0.25,52,87.6
4181,A5,653.25,0.25,49,87.6
4182,G#5,653.5,0.25,51,87.6
4183,A5,653.75,0.25,49,87.6
4184,F#3,654.0,1.0,41,87.6
4185,E-4,654.0,1.0,41,87.6
4186,C6,654.25,0.25,60,87.6
4187,B5,654.5,0.25,60,87.6
4188,C6,654.75,0.25,57,87.6
4189,B5,655.0,0.25,60,87.6
4190,C6,655.25,0.25,61,87.6
4191,B5,655.5,0.25,63,87.6
4192,C6,655.75,229/1000,66,87.6
4193,C6,656.0,0.25,68,87.6
4194,G3,656.0,0.25,48,87.6
4195,G5,656.25,229/1000,60,87.6
4196,E4,656.25,0.25,39,87.6
4197,G5,656.5,0.125,60,87.6
4198,C4,656.5,0.25,41,87.6
4199,G5,656.75,0.125,60,87.6
4200,E4,656.75,0.25,39,87.6
4201,A5,657.0,0.25,62,87.6
4202,G3,657.0,0.25,48,87.6
4203,G5,657.25,0.25,58,87.6
4204,E4,657.25,0.25,38,87.6
4205,F5,657.5,0.125,57,87.6
4206,C4,657.5,0.25,41,87.6
4207,E5,657.75,0.125,56,87.6
4208,E4,657.75,0.25,39,87.6
4209,E5,658.0,0.5,54,87.6
4210,G3,658.0,0.25,43,87.6
4211,G4,658.25,0.25,36,87.6
4212,C4,658.5,0.25,38,87.6
4213,G4,658.75,0.25,35,87.6
4214,D5,659.0,0.125,48,87.6
4215,G3,659.0,0.25,39,87.6
4216,E5,659.125,0.125,45,87.6
4217,D5,659.25,0.125,48,87.6
4218,F4,659.25,0.25,30,87.6
4219,E5,659.375,0.125,45,87.6
4220,D5,659.5,83/1000,48,87.6
4221,B3,659.5,0.25,32,87.6
4222,E5,659.583,83/1000,46,87.6
4223,D5,659.669,83/1000,46,87.6
4224,C5,659.75,0.125,51,87.6
4225,F4,659.75,0.25,30,87.6
4226,D5,659.875,0.125,48,87.6
4227,C5,660.0,0.5,55,87.6
4228,C3,660.0,0.25,35,87.6
4229,E3,660.25,0.25,30,87.6
4230,C4,660.5,0.25,32,87.6
4231,E3,660.75,0.25,30,87.6
4232,G4,661.0,0.688,50,87.6
4233,C3,661.0,0.25,35,87.6
4234,E3,661.25,0.25,30,87.6
4235,C4,661.5,0.25,32,87.6
4236,B4,661.688,0.062,48,87.6
4237,A4,661.75,0.125,48,87.6
4238,E3,661.75,0.25,30,87.6
4239,G4,661.875,0.125,48,87.6
4240,G5,662.0,0.125,57,87.6
4241,C3,662.0,0.25,35,87.6
4242,D3,662.25,0.25,30,87.6
4243,F5,662.5,0.125,56,87.6
4244,B3,662.5,0.25,32,87.6
4245,D3,662.75,0.25,30,87.6
4246,E5,663.0,0.125,54,87.6
4247,C3,663.0,0.25,35,87.6
4248,F3,663.25,0.25,30,87.6
4249,D5,663.5,0.125,51,87.6
4250,B3,663.5,0.25,32,87.6
4251,F3,663.75,0.25,30,87.6
4252,C5,664.0,1.0,55,87.6
4253,C3,664.0,0.25,35,87.6
4254,E3,664.25,0.25,30,87.6
4255,C4,664.5,0.25,32,87.6
4256,E3,664.75,0.25,30,87.6
4257,G4,665.0,0.688,50,87.6
4258,C3,665.0,0.25,35,87.6
4259,E3,665.25,0.25,30,87.6
4260,C4,665.5,0.25,32,87.6
4261,B4,665.688,0.062,48,87.6
4262,A4,665.75,0.125,48,87.6
4263,E3,665.75,0.25,30,87.6
4264,G4,665.875,0.125,48,87.6
4265,G5,666.0,0.125,56,87.6
4266,C3,666.0,0.25,35,87.6
4267,D3,666.25,0.25,30,87.6
4268,F5,666.5,0.125,53,87.6
4269,B3,666.5,0.25,32,87.6
4270,D3,666.75,0.25,30,87.6
4271,E5,667.0,0.125,52,87.6
4272,C3,667.0,0.25,35,87.6
4273,F3,667.25,0.25,30,87.6
4274,D5,667.5,0.125,49,87.6
4275,B3,667.5,0.25,32,87.6
4276,F3,667.75,0.25,30,87.6
4277,C5,668.0,0.5,53,87.6
4278,C3,668.0,0.25,35,87.6
4279,E3,668.25,0.25,30,87.6
4280,C4,668.5,0.25,32,87.6
4281,E3,668.75,0.25,30,87.6
4282,G4,668.917,83/1000,56,87.6
4283,G5,669.0,0.75,66,87.6
4284,C3,669.0,0.25,35,87.6
4285,F3,669.25,0.25,30,87.6
4286,B3,669.5,0.25,32,87.6
4287,F5,669.75,83/1000,56,87.6
4288,F3,669.75,0.25,30,87.6
4289,E5,669.833,83/1000,56,87.6
4290,D5,669.917,83/1000,52,87.6
4291,C5,670.0,0.5,53,87.6
4292,C3,670.0,0.25,35,87.6
4293,E3,670.25,0.25,30,87.6
4294,C4,670.5,0.25,32,87.6
4295,E3,670.75,0.25,30,87.6
4296,G4,670.917,83/1000,56,87.6
4297,G5,671.0,0.75,66,87.6
4298,C3,671.0,0.25,35,87.6
4299,F3,671.25,0.25,30,87.6
4300,B3,671.5,0.25,32,87.6
4301,A5,671.75,0.125,60,87.6
4302,F3,671.75,0.25,30,87.6
4303,B5,671.875,0.125,55,87.6
4304,C6,672.0,0.5,67,87.6
4305,C3,672.0,0.25,35,87.6
4306,E3,672.25,0.25,30,87.6
4307,C4,672.5,0.25,32,87.6
4308,E3,672.75,0.25,31,87.6
4309,G5,673.0,167/1000,69,87.6
4310,C3,673.0,0.25,41,87.6
4311,A5,673.167,167/1000,63,87.6
4312,F3,673.25,0.25,35,87.6
4313,G5,673.333,167/1000,63,87.6
4314,F5,673.5,167/1000,65,87.6
4315,B3,673.5,0.25,35,87.6
4316,E5,673.667,167/1000,63,87.6
4317,F3,673.75,0.25,32,87.6
4318,D5,673.833,167/1000,59,87.6
4319,C5,674.0,0.5,60,87.6
4320,C3,674.0,0.25,35,87.6
4321,E3,674.25,0.25,30,87.6
4322,C4,674.5,0.25,32,87.6
4323,E3,674.75,0.25,30,87.6
4324,F#5,675.0,167/1000,72,87.6
4325,C3,675.0,0.25,41,87.6
4326,G5,675.167,167/1000,65,87.6
4327,F3,675.25,0.25,35,87.6
4328,G#5,675.333,167/1000,66,87.6
4329,A5,675.5,167/1000,69,87.6
4330,B3,675.5,0.25,32,87.6
4331,B-5,675.667,167/1000,67,87.6
4332,F3,675.75,0.25,30,87.6
4333,B5,675.833,167/1000,65,87.6
4334,C6,676.0,0.5,60,87.6
4335,C3,676.0,1.0,35,87.6
4336,E3,676.0,1.0,35,87.6
4337,G4,676.5,0.375,42,87.6
4338,C5,676.875,0.125,42,87.6
4339,E5,677.0,0.125,44,87.6
4340,G#3,677.5,0.125,33,87.6
4341,F4,677.5,0.125,41,87.6
4342,D5,677.5,0.125,41,87.6
4343,A3,678.0,1.5,33,87.6
4344,F4,678.0,1.0,42,87.6
4345,D5,678.0,1.0,42,87.6
4346,E4,679.0,0.5,36,87.6
4347,C5,679.0,0.5,36,87.6
4348,A5,680.0,0.25,72,87.6
4349,F5,680.0,0.25,72,87.6
4350,D5,680.0,0.25,72,87.6
4351,A4,680.0,0.25,72,87.6
4352,F2,680.0,0.25,56,87.6
4353,F3,680.0,0.25,56,87.6
4354,D4,681.0,0.25,72,87.6
4355,F4,681.0,0.25,72,87.6
4356,G4,681.0,0.25,72,87.6
4357,B4,681.0,0.25,72,87.6
4358,G2,681.0,0.25,56,87.6
4359,G3,681.0,0.25,56,87.6
4360,G4,682.0,0.25,72,87.6
4361,C4,682.0,0.25,72,87.6
4362,E4,682.0,0.25,72,87.6
4363,C5,682.0,0.25,72,87.6
4364,C2,682.0,0.25,52,87.6
4365,E2,682.0,0.25,52,87.6
4366,G2,682.0,0.25,52,87.6
4367,C3,682.0,0.25,52,87.6
