,note_name,start_time,duration,velocity,tempo
0,B-4,0.0,2.0,50,74.66
1,B-3,0.0,0.5,36,74.66
2,F4,0.5,0.5,27,74.66
3,D4,1.0,0.5,27,74.66
4,F4,1.5,0.5,27,74.66
5,D5,2.0,0.5,50,74.66
6,B-3,2.0,0.5,36,74.66
7,E-5,2.5,167/1000,46,74.66
8,F4,2.5,0.5,28,74.66
9,D5,2.667,167/1000,41,74.66
10,C5,2.833,167/1000,42,74.66
11,D5,3.0,0.5,50,74.66
12,D4,3.0,0.5,28,74.66
13,E-5,3.5,0.5,50,74.66
14,F4,3.5,0.5,28,74.66
15,E5,4.0,1.5,55,74.66
16,A3,4.0,0.5,36,74.66
17,F4,4.5,0.5,25,74.66
18,C4,5.0,0.5,27,74.66
19,F5,5.5,0.5,49,74.66
20,F4,5.5,0.5,24,74.66
21,C5,6.0,0.5,42,74.66
22,A3,6.0,0.5,30,74.66
23,F4,6.5,0.5,22,74.66
24,C4,7.0,0.5,27,74.66
25,F4,7.5,0.5,23,74.66
26,E-5,8.0,0.5,50,74.66
27,G3,8.0,0.5,36,74.66
28,F5,8.5,167/1000,46,74.66
29,E-4,8.5,0.5,32,74.66
30,E-5,8.667,167/1000,42,74.66
31,D5,8.833,167/1000,44,74.66
32,E-5,9.0,0.5,50,74.66
33,B-3,9.0,0.5,32,74.66
34,F5,9.5,0.5,50,74.66
35,E-4,9.5,0.5,32,74.66
36,G5,10.0,0.5,52,74.66
37,E-3,10.0,0.5,36,74.66
38,A5,10.5,167/1000,49,74.66
39,B-3,10.5,0.5,33,74.66
40,G5,10.667,167/1000,49,74.66
41,F5,10.833,167/1000,49,74.66
42,G5,11.0,0.5,57,74.66
43,G3,11.0,0.5,35,74.66
44,A5,11.5,61/125,59,74.66
45,B-3,11.5,0.5,36,74.66
46,A5,12.0,1.5,68,74.66
47,D3,12.0,0.5,41,74.66
48,B-3,12.5,0.5,30,74.66
49,F3,13.0,0.5,35,74.66
50,B-5,13.5,0.5,54,74.66
51,B-3,13.5,0.5,28,74.66
52,F5,14.0,0.5,54,74.66
53,D3,14.0,0.5,36,74.66
54,B-3,14.5,0.5,26,74.66
55,F3,15.0,0.5,31,74.66
56,B-3,15.5,0.5,27,74.66
57,G5,16.0,1.5,59,74.66
58,E-3,16.0,0.5,36,74.66
59,G3,16.5,0.5,27,74.66
60,E-3,17.0,0.5,31,74.66
61,G#5,17.5,0.25,50,74.66
62,B3,17.5,0.5,27,74.66
63,G5,17.75,0.25,50,74.66
64,F5,18.0,0.5,55,74.66
65,E-3,18.0,0.5,34,74.66
66,E-5,18.5,0.5,52,74.66
67,C4,18.5,0.5,27,74.66
68,D5,19.0,0.5,48,74.66
69,E-3,19.0,0.5,27,74.66
70,C5,19.5,0.5,48,74.66
71,E-4,19.5,0.5,27,74.66
72,E5,20.0,0.5,58,74.66
73,D3,20.0,0.5,36,74.66
74,F5,20.5,1.0,51,74.66
75,F3,20.5,0.5,29,74.66
76,D3,21.0,0.5,33,74.66
77,G5,21.5,0.25,55,74.66
78,A3,21.5,0.5,33,74.66
79,F5,21.75,0.25,52,74.66
80,E-5,22.0,0.5,54,74.66
81,D3,22.0,0.5,36,74.66
82,D5,22.5,2/5,55,74.66
83,B-3,22.5,0.5,30,74.66
84,C5,23.0,2/5,56,74.66
85,D3,23.0,0.5,31,74.66
86,B-4,23.5,2/5,59,74.66
87,D4,23.5,0.5,33,74.66
88,F5,24.0,0.5,66,74.66
89,F3,24.0,0.5,36,74.66
90,E-5,24.5,1.0,54,74.66
91,F4,24.5,0.5,30,74.66
92,C4,25.0,0.5,30,74.66
93,C5,25.5,0.5,51,74.66
94,F4,25.5,0.5,25,74.66
95,E-5,26.0,0.5,65,74.66
96,B-3,26.0,0.5,36,74.66
97,D5,26.5,1.0,54,74.66
98,F4,26.5,0.5,28,74.66
99,D4,27.0,0.5,31,74.66
100,B-4,27.5,0.5,54,74.66
101,F4,27.5,0.5,30,74.66
102,D5,28.0,1.5,59,74.66
103,F3,28.0,0.5,36,74.66
104,D4,28.5,0.5,25,74.66
105,B-3,29.0,0.5,25,74.66
106,E-5,29.5,0.25,43,74.66
107,D4,29.5,0.5,25,74.66
108,D5,29.75,0.25,43,74.66
109,C5,30.0,0.5,50,74.66
110,F3,30.0,1.0,36,74.66
111,C4,30.0,1.0,36,74.66
112,A3,30.0,1.0,36,74.66
113,F5,30.5,0.5,53,74.66
114,E-5,31.0,0.5,49,74.66
115,C5,31.5,0.5,47,74.66
116,B-4,32.0,0.5,50,74.66
117,B-3,32.0,0.5,36,74.66
118,C5,32.5,167/1000,43,74.66
119,F4,32.5,0.5,31,74.66
120,B-4,32.667,167/1000,38,74.66
121,A4,32.833,167/1000,38,74.66
122,B-4,33.0,0.5,45,74.66
123,C#4,33.0,0.5,31,74.66
124,C5,33.5,0.5,50,74.66
125,F4,33.5,0.5,31,74.66
126,C#5,34.0,0.5,50,74.66
127,B-3,34.0,0.5,36,74.66
128,E-5,34.5,167/1000,44,74.66
129,F4,34.5,0.5,31,74.66
130,C#5,34.667,167/1000,40,74.66
131,C5,34.833,167/1000,41,74.66
132,C#5,35.0,0.5,50,74.66
133,C#4,35.0,0.5,31,74.66
134,E-5,35.5,0.5,50,74.66
135,F4,35.5,0.5,31,74.66
136,E5,36.0,1.5,55,74.66
137,G#3,36.0,0.5,36,74.66
138,F4,36.5,0.5,27,74.66
139,C4,37.0,0.5,29,74.66
140,F5,37.5,0.5,49,74.66
141,F4,37.5,0.5,27,74.66
142,C5,38.0,0.5,49,74.66
143,G#3,38.0,0.5,36,74.66
144,F4,38.5,0.5,27,74.66
145,C4,39.0,0.5,30,74.66
146,F4,39.5,0.5,26,74.66
147,E-5,40.0,0.5,55,74.66
148,F#3,40.0,0.5,36,74.66
149,F5,40.5,167/1000,49,74.66
150,E-4,40.5,0.5,32,74.66
151,E-5,40.667,167/1000,44,74.66
152,D5,40.833,167/1000,44,74.66
153,E-5,41.0,0.5,59,74.66
154,B-3,41.0,0.5,32,74.66
155,F5,41.5,0.5,53,74.66
156,E-4,41.5,0.5,32,74.66
157,F#5,42.0,0.5,56,74.66
158,E-3,42.0,0.5,39,74.66
159,G#5,42.5,167/1000,55,74.66
160,B-3,42.5,0.5,33,74.66
161,F#5,42.667,167/1000,56,74.66
162,F5,42.833,167/1000,56,74.66
163,F#5,43.0,0.5,63,74.66
164,F#3,43.0,0.5,36,74.66
165,G#5,43.5,0.5,61,74.66
166,B-3,43.5,0.5,36,74.66
167,A5,44.0,1.5,68,74.66
168,D3,44.0,0.5,44,74.66
169,B-3,44.5,0.5,35,74.66
170,F3,45.0,0.5,42,74.66
171,B-5,45.5,0.5,64,74.66
172,B-3,45.5,0.5,40,74.66
173,F5,46.0,0.5,59,74.66
174,C#3,46.0,0.5,46,74.66
175,B-3,46.5,0.5,45,74.66
176,F3,47.0,0.5,50,74.66
177,B-3,47.5,0.5,45,74.66
178,E5,47.75,0.25,69,74.66
179,C#6,48.0,2.5,94,74.66
180,C3,48.0,0.5,54,74.66
181,B-3,48.5,0.5,36,74.66
182,G3,49.0,0.5,36,74.66
183,B-3,49.5,0.5,36,74.66
184,C3,50.0,0.5,37,74.66
185,C6,50.5,0.25,60,74.66
186,B-3,50.5,0.5,24,74.66
187,B-5,50.75,0.25,55,74.66
188,G#5,51.0,0.25,57,74.66
189,G3,51.0,0.5,27,74.66
190,G5,51.25,0.25,51,74.66
191,F5,51.5,0.25,54,74.66
192,B-3,51.5,0.5,23,74.66
193,E5,51.75,0.25,50,74.66
194,G5,52.0,1.0,57,74.66
195,C#3,52.0,0.5,34,74.66
196,G#3,52.5,0.5,22,74.66
197,F5,53.0,1.5,62,74.66
198,F3,53.0,0.5,27,74.66
199,G#3,53.5,0.5,23,74.66
200,B-2,54.0,0.5,29,74.66
201,E-5,54.5,1.0,55,74.66
202,G3,54.5,0.5,22,74.66
203,C#3,55.0,0.5,23,74.66
204,C#5,55.5,0.5,56,74.66
205,G3,55.5,0.5,22,74.66
206,C5,56.0,0.5,50,74.66
207,C3,56.0,0.5,30,74.66
208,C#5,56.5,167/1000,43,74.66
209,G#3,56.5,0.5,26,74.66
210,C5,56.667,167/1000,44,74.66
211,B-4,56.833,167/1000,44,74.66
212,C5,57.0,0.5,45,74.66
213,F3,57.0,0.5,26,74.66
214,C#5,57.5,0.5,50,74.66
215,G#3,57.5,0.5,26,74.66
216,F4,58.0,1.0,50,74.66
217,C3,58.0,0.5,30,74.66
218,B-3,58.5,0.5,26,74.66
219,G#4,59.0,0.5,50,74.66
220,E4,59.0,1.0,38,74.66
221,G3,59.0,0.5,26,74.66
222,G4,59.5,0.5,46,74.66
223,B-3,59.5,0.5,26,74.66
224,F4,60.0,2.0,53,74.66
225,F3,60.0,1.0,27,74.66
226,A3,60.0,0.5,38,74.66
227,C4,60.5,0.25,30,74.66
228,C4,61.0,0.25,30,74.66
229,C4,61.5,0.25,30,74.66
230,F3,62.0,1.0,32,74.66
231,A3,62.0,0.5,38,74.66
232,C4,62.5,0.5,28,74.66
233,B-3,63.0,0.5,28,74.66
234,G3,63.0,1.0,23,74.66
235,C4,63.5,0.5,28,74.66
236,B-4,64.0,1.0,45,74.66
237,E3,64.0,1.0,29,74.66
238,G3,64.0,0.5,35,74.66
239,C4,64.5,0.25,30,74.66
240,C4,65.0,0.25,30,74.66
241,C4,65.5,0.25,30,74.66
242,G4,66.0,0.5,45,74.66
243,C3,66.0,1.0,28,74.66
244,E3,66.0,0.5,34,74.66
245,C4,66.5,0.5,31,74.66
246,E4,67.0,0.5,42,74.66
247,B-3,67.0,0.5,31,74.66
248,G3,67.0,1.0,26,74.66
249,C4,67.5,0.5,31,74.66
250,C5,68.0,0.75,53,74.66
251,F3,68.0,1.0,32,74.66
252,A3,68.0,0.5,38,74.66
253,C4,68.5,0.25,30,74.66
254,A4,68.75,0.25,49,74.66
255,C5,69.0,0.5,53,74.66
256,C4,69.0,0.25,30,74.66
257,C4,69.5,0.25,30,74.66
258,A3,70.0,0.5,38,74.66
259,F3,70.0,1.0,32,74.66
260,C4,70.5,0.5,28,74.66
261,G3,71.0,1.0,23,74.66
262,B-3,71.0,0.5,28,74.66
263,C4,71.5,0.5,28,74.66
264,B-4,72.0,1.0,45,74.66
265,G3,72.0,0.5,35,74.66
266,E3,72.0,1.0,29,74.66
267,C4,72.5,0.25,30,74.66
268,C4,73.0,0.25,30,74.66
269,C4,73.5,0.25,30,74.66
270,G4,74.0,0.5,45,74.66
271,C3,74.0,1.0,28,74.66
272,E3,74.0,0.5,34,74.66
273,C4,74.5,0.5,31,74.66
274,E4,75.0,0.5,42,74.66
275,G3,75.0,1.0,26,74.66
276,B-3,75.0,0.5,31,74.66
277,C4,75.5,0.5,31,74.66
278,C5,76.0,0.75,53,74.66
279,A3,76.0,1.0,35,74.66
280,F3,76.0,1.0,35,74.66
281,A4,76.75,0.25,50,74.66
282,C5,77.0,0.5,53,74.66
283,F5,78.0,0.5,64,74.66
284,A5,78.0,0.5,64,74.66
285,G5,78.5,0.5,59,74.66
286,E5,78.5,0.5,59,74.66
287,D5,79.0,9/20,52,74.66
288,F5,79.0,9/20,52,74.66
289,C#5,79.5,9/20,52,74.66
290,E5,79.5,9/20,52,74.66
291,F5,80.0,0.5,64,74.66
292,D5,80.0,0.5,64,74.66
293,C5,80.5,0.5,59,74.66
294,E5,80.5,0.5,59,74.66
295,B-4,81.0,9/20,54,74.66
296,D5,81.0,9/20,54,74.66
297,C#5,81.5,9/20,54,74.66
298,A4,81.5,9/20,54,74.66
299,B-4,82.0,0.5,64,74.66
300,D5,82.0,0.5,64,74.66
301,A4,82.5,0.5,58,74.66
302,C5,82.5,0.5,58,74.66
303,G4,83.0,9/20,54,74.66
304,B-4,83.0,9/20,54,74.66
305,A4,83.5,9/20,54,74.66
306,F#4,83.5,9/20,54,74.66
307,D4,84.0,2.5,49,74.66
308,F#4,84.0,2.0,58,74.66
309,A4,84.0,2.0,58,74.66
310,F#3,84.0,2.0,28,74.66
311,D3,84.0,2.0,28,74.66
312,C4,84.0,2.0,28,74.66
313,A3,84.0,2.0,28,74.66
314,B-4,86.0,0.75,49,74.66
315,G4,86.0,0.5,41,74.66
316,G3,86.0,2.0,35,74.66
317,B-3,86.0,1.0,42,74.66
318,C5,86.75,0.062,45,74.66
319,B-4,86.812,0.062,45,74.66
320,A4,86.875,0.062,45,74.66
321,B-4,86.938,0.062,45,74.66
322,C5,87.0,0.5,50,74.66
323,E4,87.0,1.0,44,74.66
324,D5,87.5,0.5,48,74.66
325,C5,88.0,333/1000,49,74.66
326,A3,88.0,1.0,44,74.66
327,F4,88.0,1.0,44,74.66
328,B-4,88.333,333/1000,45,74.66
329,A4,88.667,333/1000,45,74.66
330,G4,89.0,333/1000,48,74.66
331,B-3,89.0,1.0,42,74.66
332,D4,89.0,1.0,42,74.66
333,B-4,89.333,333/1000,45,74.66
334,D5,89.667,333/1000,45,74.66
335,F4,90.0,1.0,50,74.66
336,A3,90.0,1.0,44,74.66
337,C3,90.0,2.0,37,74.66
338,B-3,91.0,1.0,40,74.66
339,E4,91.0,1.0,42,74.66
340,G4,91.0,1.0,42,74.66
341,G4,92.0,0.75,48,74.66
342,E4,92.0,1.0,40,74.66
343,A3,92.0,0.5,38,74.66
344,F3,92.0,1.0,32,74.66
345,C4,92.5,0.25,30,74.66
346,G#4,92.75,0.25,35,74.66
347,C4,93.0,0.25,30,74.66
348,A4,93.0,1.0,41,74.66
349,F4,93.0,1.0,41,74.66
350,C4,93.5,0.25,30,74.66
351,F3,94.0,1.0,28,74.66
352,A3,94.0,0.5,33,74.66
353,C4,94.5,0.5,27,74.66
354,B-3,95.0,0.5,27,74.66
355,G3,95.0,1.0,22,74.66
356,C4,95.5,0.5,27,74.66
357,B-4,96.0,1.0,45,74.66
358,E3,96.0,1.0,29,74.66
359,G3,96.0,0.5,35,74.66
360,C4,96.5,0.25,30,74.66
361,C4,97.0,0.25,30,74.66
362,C4,97.5,0.25,30,74.66
363,G4,98.0,0.5,45,74.66
364,C3,98.0,1.0,28,74.66
365,E3,98.0,0.5,34,74.66
366,C4,98.5,0.5,31,74.66
367,E4,99.0,0.5,42,74.66
368,B-3,99.0,0.5,31,74.66
369,G3,99.0,1.0,26,74.66
370,C4,99.5,0.5,31,74.66
371,C5,100.0,0.75,53,74.66
372,F3,100.0,1.0,32,74.66
373,A3,100.0,0.5,38,74.66
374,C4,100.5,0.25,30,74.66
375,A4,100.75,0.25,49,74.66
376,C5,101.0,0.5,53,74.66
377,C4,101.0,0.25,30,74.66
378,C4,101.5,0.25,30,74.66
379,F3,102.0,1.0,32,74.66
380,A3,102.0,0.5,38,74.66
381,C4,102.5,0.5,28,74.66
382,B-3,103.0,0.5,28,74.66
383,G3,103.0,1.0,23,74.66
384,C4,103.5,0.5,28,74.66
385,B-4,104.0,1.0,45,74.66
386,E3,104.0,1.0,29,74.66
387,G3,104.0,0.5,35,74.66
388,C4,104.5,0.25,30,74.66
389,C4,105.0,0.25,30,74.66
390,C4,105.5,0.25,30,74.66
391,G4,106.0,0.5,45,74.66
392,C3,106.0,1.0,28,74.66
393,E3,106.0,0.5,34,74.66
394,C4,106.5,0.5,31,74.66
395,E4,107.0,0.5,42,74.66
396,G3,107.0,1.0,26,74.66
397,B-3,107.0,0.5,31,74.66
398,C4,107.5,0.5,31,74.66
399,C5,108.0,0.75,53,74.66
400,F3,108.0,1.0,35,74.66
401,A3,108.0,1.0,35,74.66
402,F5,108.75,0.25,50,74.66
403,C5,109.0,0.5,53,74.66
404,A5,110.0,0.5,64,74.66
405,F5,110.0,0.5,64,74.66
406,E5,110.5,0.5,59,74.66
407,G5,110.5,0.5,59,74.66
408,D5,111.0,9/20,52,74.66
409,F5,111.0,9/20,52,74.66
410,C#5,111.5,9/20,52,74.66
411,E5,111.5,9/20,52,74.66
412,D5,112.0,0.5,64,74.66
413,F5,112.0,0.5,64,74.66
414,C5,112.5,0.5,59,74.66
415,E5,112.5,0.5,59,74.66
416,B-4,113.0,9/20,54,74.66
417,D5,113.0,9/20,54,74.66
418,C#5,113.5,9/20,54,74.66
419,A4,113.5,9/20,54,74.66
420,B-4,114.0,0.5,64,74.66
421,D5,114.0,0.5,64,74.66
422,C5,114.5,0.5,58,74.66
423,A4,114.5,0.5,58,74.66
424,B-4,115.0,9/20,54,74.66
425,G4,115.0,9/20,54,74.66
426,F#4,115.5,9/20,54,74.66
427,A4,115.5,9/20,54,74.66
428,D4,116.0,2.5,49,74.66
429,A4,116.0,2.0,58,74.66
430,F#4,116.0,2.0,58,74.66
431,C4,116.0,2.0,30,74.66
432,F#3,116.0,2.0,30,74.66
433,A3,116.0,2.0,30,74.66
434,D3,116.0,2.0,30,74.66
435,G4,118.0,0.5,41,74.66
436,B-4,118.0,0.75,49,74.66
437,G3,118.0,2.0,35,74.66
438,B-3,118.0,1.0,42,74.66
439,C5,118.75,0.062,45,74.66
440,B-4,118.812,0.062,45,74.66
441,A4,118.875,0.062,45,74.66
442,B-4,118.938,0.062,45,74.66
443,C5,119.0,0.5,50,74.66
444,E4,119.0,1.0,44,74.66
445,D5,119.5,0.5,48,74.66
446,C5,120.0,333/1000,49,74.66
447,F4,120.0,1.0,44,74.66
448,A3,120.0,1.0,44,74.66
449,F5,120.333,333/1000,45,74.66
450,A4,120.667,333/1000,42,74.66
451,G4,121.0,333/1000,48,74.66
452,D4,121.0,1.0,42,74.66
453,B-3,121.0,1.0,42,74.66
454,B-4,121.333,333/1000,45,74.66
455,D5,121.667,333/1000,43,74.66
456,F4,122.0,1.0,50,74.66
457,A3,122.0,1.0,42,74.66
458,C3,122.0,2.0,33,74.66
459,E4,123.0,0.938,45,74.66
460,G3,123.0,1.0,40,74.66
461,A4,123.938,0.062,56,74.66
462,A5,124.0,1.375,73,74.66
463,F3,124.5,0.5,50,74.66
464,A3,125.0,0.5,54,74.66
465,F5,125.375,0.125,49,74.66
466,F5,125.5,1/10,53,74.66
467,D4,125.5,0.5,50,74.66
468,G5,125.6,1/10,50,74.66
469,F5,125.7,1/10,54,74.66
470,E5,125.8,1/10,52,74.66
471,F5,125.9,1/10,54,74.66
472,B-4,126.0,0.125,60,74.66
473,B-5,126.062,1.312,74,74.66
474,G3,126.5,0.5,50,74.66
475,B-3,127.0,0.5,54,74.66
476,G5,127.375,0.125,56,74.66
477,G5,127.5,1/10,56,74.66
478,E4,127.5,0.5,50,74.66
479,A5,127.6,1/10,52,74.66
480,G5,127.7,1/10,56,74.66
481,F#5,127.8,1/10,54,74.66
482,G5,127.9,1/10,56,74.66
483,C6,128.0,0.75,74,74.66
484,A3,128.5,0.5,50,74.66
485,A5,128.75,0.25,61,74.66
486,F5,129.0,1.5,69,74.66
487,C4,129.0,0.5,54,74.66
488,F4,129.5,1.5,45,74.66
489,A3,130.0,2.0,49,74.66
490,E-5,130.5,0.5,62,74.66
491,D5,131.0,0.5,67,74.66
492,E-4,131.0,1.0,47,74.66
493,C#5,131.5,0.5,62,74.66
494,D5,132.0,0.5,69,74.66
495,F4,132.0,1.0,43,74.66
496,D4,132.0,1.0,43,74.66
497,B-3,132.0,1.0,43,74.66
498,E5,132.5,0.125,62,74.66
499,F#5,132.75,0.125,63,74.66
500,G5,133.0,0.125,64,74.66
501,A5,133.25,0.125,65,74.66
502,B-5,133.5,0.125,66,74.66
503,C#6,133.75,271/1000,67,74.66
504,D6,134.0,0.125,68,74.66
505,D4,134.0,1.0,43,74.66
506,G4,134.0,1.0,43,74.66
507,B-3,134.0,1.0,43,74.66
508,C6,134.25,271/1000,66,74.66
509,B-5,134.5,0.125,65,74.66
510,A5,134.75,271/1000,64,74.66
511,G5,135.0,0.125,63,74.66
512,F5,135.25,271/1000,62,74.66
513,E5,135.5,0.125,61,74.66
514,D5,135.75,0.25,60,74.66
515,C5,136.0,1.0,60,74.66
516,C3,136.0,0.5,50,74.66
517,A3,136.5,0.5,43,74.66
518,C6,137.0,1333/1000,64,74.66
519,F3,137.0,0.5,50,74.66
520,A3,137.5,0.5,38,74.66
521,C3,138.0,0.5,43,74.66
522,A5,138.333,333/1000,55,74.66
523,A3,138.5,0.5,31,74.66
524,F5,138.667,333/1000,51,74.66
525,C5,139.0,0.25,58,74.66
526,F3,139.0,0.5,35,74.66
527,A4,139.25,0.25,51,74.66
528,F5,139.5,0.25,56,74.66
529,A3,139.5,0.5,33,74.66
530,F4,139.875,0.125,44,74.66
531,G4,140.0,53/500,44,74.66
532,C3,140.0,0.5,38,74.66
533,A4,140.106,13/125,41,74.66
534,G4,140.21,53/500,44,74.66
535,A4,140.315,53/500,39,74.66
536,G4,140.421,13/125,44,74.66
537,B-3,140.5,0.5,31,74.66
538,A4,140.525,53/500,39,74.66
539,G4,140.631,13/125,44,74.66
540,A4,140.735,53/500,39,74.66
541,G4,140.84,53/500,44,74.66
542,A4,140.946,13/125,39,74.66
543,E3,141.0,0.5,33,74.66
544,G4,141.05,53/500,44,74.66
545,A4,141.156,13/125,38,74.66
546,G4,141.26,53/500,44,74.66
547,A4,141.365,53/500,38,74.66
548,G4,141.471,13/125,44,74.66
549,B-3,141.5,0.5,31,74.66
550,A4,141.575,53/500,38,74.66
551,G4,141.681,13/125,43,74.66
552,A4,141.785,53/500,38,74.66
553,G4,141.89,53/500,43,74.66
554,A4,141.996,13/125,36,74.66
555,C3,142.0,0.5,37,74.66
556,G4,142.1,53/500,42,74.66
557,A4,142.206,13/125,36,74.66
558,G4,142.31,53/500,42,74.66
559,A4,142.415,53/500,36,74.66
560,G4,142.5,0.125,42,74.66
561,B-3,142.5,0.5,32,74.66
562,A4,142.625,0.125,36,74.66
563,G4,142.75,0.125,42,74.66
564,A4,142.875,0.125,37,74.66
565,G4,143.0,0.125,42,74.66
566,E3,143.0,0.5,32,74.66
567,A4,143.125,0.125,36,74.66
568,G4,143.25,0.125,42,74.66
569,A4,143.375,0.125,37,74.66
570,G4,143.5,167/1000,38,74.66
571,B-3,143.5,0.5,32,74.66
572,F4,143.667,167/1000,48,74.66
573,G4,143.833,167/1000,42,74.66
574,F4,144.0,1.0,53,74.66
575,F3,144.0,4.0,37,74.66
576,C4,144.5,0.5,35,74.66
577,F4,145.0,0.5,39,74.66
578,F5,145.375,0.125,49,74.66
579,F5,145.5,1/10,50,74.66
580,E-4,145.5,0.5,35,74.66
581,G5,145.6,1/10,48,74.66
582,F5,145.7,1/10,51,74.66
583,E5,145.8,1/10,50,74.66
584,F5,145.9,1/10,54,74.66
585,C6,146.0,0.5,63,74.66
586,D4,146.0,1.0,37,74.66
587,B-5,146.5,0.5,58,74.66
588,A5,147.0,0.5,53,74.66
589,C4,147.0,1.0,34,74.66
590,G5,147.5,0.5,53,74.66
591,G5,148.0,0.5,62,74.66
592,A3,148.0,0.5,35,74.66
593,F3,148.0,4.0,37,74.66
594,F5,148.5,0.5,51,74.66
595,C4,148.5,0.5,35,74.66
596,F4,149.0,0.5,39,74.66
597,F5,149.375,0.125,49,74.66
598,F5,149.5,1/10,50,74.66
599,E-4,149.5,0.5,35,74.66
600,G5,149.6,1/10,48,74.66
601,F5,149.7,1/10,51,74.66
602,E5,149.8,1/10,51,74.66
603,F5,149.9,1/10,54,74.66
604,C6,150.0,0.5,63,74.66
605,D4,150.0,1.0,37,74.66
606,B-5,150.5,0.5,58,74.66
607,A5,151.0,0.5,53,74.66
608,B-3,151.0,1.0,34,74.66
609,G5,151.5,0.5,53,74.66
610,G5,152.0,0.5,56,74.66
611,F3,152.0,4.0,41,74.66
612,A3,152.0,0.5,41,74.66
613,F5,152.5,0.5,50,74.66
614,G3,152.5,0.5,37,74.66
615,B-3,152.5,0.5,37,74.66
616,F5,153.0,0.5,53,74.66
617,C4,153.0,0.5,40,74.66
618,A3,153.0,0.5,40,74.66
619,D4,153.5,0.5,37,74.66
620,B-3,153.5,0.5,37,74.66
621,F5,154.0,0.5,53,74.66
622,E-4,154.0,0.5,38,74.66
623,C4,154.0,0.5,38,74.66
624,D4,154.5,0.5,41,74.66
625,B3,154.5,0.5,41,74.66
626,F5,155.0,0.5,62,74.66
627,C4,155.0,0.5,44,74.66
628,E-4,155.0,0.5,44,74.66
629,B3,155.5,0.5,47,74.66
630,D4,155.5,0.5,47,74.66
631,F5,156.0,2.0,65,74.66
632,F3,156.0,2.0,41,74.66
633,C4,156.0,2.0,53,74.66
634,E-4,156.0,2.0,53,74.66
635,E5,158.0,271/1000,55,74.66
636,F5,158.25,271/1000,53,74.66
637,G5,158.5,271/1000,56,74.66
638,F5,158.75,6/25,51,74.66
639,F5,159.0,271/1000,55,74.66
640,E-5,159.25,271/1000,49,74.66
641,D5,159.5,271/1000,50,74.66
642,C5,159.75,0.25,47,74.66
643,B-4,160.0,0.5,50,74.66
644,B-3,160.0,0.5,36,74.66
645,C5,160.5,167/1000,46,74.66
646,F4,160.5,0.5,27,74.66
647,B-4,160.667,167/1000,46,74.66
648,A4,160.833,167/1000,46,74.66
649,B-4,161.0,0.5,50,74.66
650,D4,161.0,0.5,27,74.66
651,C5,161.5,0.5,50,74.66
652,F4,161.5,0.5,27,74.66
653,D5,162.0,0.5,50,74.66
654,B-3,162.0,0.5,36,74.66
655,E-5,162.5,167/1000,46,74.66
656,F4,162.5,0.5,28,74.66
657,D5,162.667,167/1000,46,74.66
658,C5,162.833,167/1000,46,74.66
659,D5,163.0,0.5,50,74.66
660,D4,163.0,0.5,28,74.66
661,E-5,163.5,0.5,50,74.66
662,F4,163.5,0.5,28,74.66
663,E5,164.0,1.5,55,74.66
664,A3,164.0,0.5,36,74.66
665,F4,164.5,0.5,25,74.66
666,C4,165.0,0.5,27,74.66
667,F5,165.5,0.5,49,74.66
668,F4,165.5,0.5,24,74.66
669,C5,166.0,0.5,49,74.66
670,A3,166.0,0.5,36,74.66
671,F4,166.5,0.5,23,74.66
672,C4,167.0,0.5,29,74.66
673,F4,167.5,0.5,23,74.66
674,E-5,168.0,0.5,50,74.66
675,G3,168.0,0.5,36,74.66
676,F5,168.5,167/1000,46,74.66
677,E-4,168.5,0.5,32,74.66
678,E-5,168.667,167/1000,44,74.66
679,D5,168.833,167/1000,43,74.66
680,E-5,169.0,0.5,50,74.66
681,B-3,169.0,0.5,32,74.66
682,F5,169.5,0.5,50,74.66
683,E-4,169.5,0.5,32,74.66
684,G5,170.0,0.5,52,74.66
685,E-3,170.0,0.5,36,74.66
686,A5,170.5,167/1000,49,74.66
687,B-3,170.5,0.5,33,74.66
688,G5,170.667,167/1000,46,74.66
689,F5,170.833,167/1000,44,74.66
690,G5,171.0,0.5,57,74.66
691,G3,171.0,0.5,35,74.66
692,A5,171.5,479/1000,59,74.66
693,B-3,171.5,0.5,36,74.66
694,A5,172.0,1.5,68,74.66
695,D3,172.0,0.5,41,74.66
696,B-3,172.5,0.5,30,74.66
697,F3,173.0,0.5,35,74.66
698,B-5,173.5,0.5,54,74.66
699,B-3,173.5,0.5,28,74.66
700,F5,174.0,0.5,52,74.66
701,D3,174.0,0.5,36,74.66
702,B-3,174.5,0.5,25,74.66
703,F3,175.0,0.5,29,74.66
704,B-3,175.5,0.5,26,74.66
705,F#5,176.0,0.5,56,74.66
706,E-3,176.0,0.5,36,74.66
707,G5,176.5,1.0,59,74.66
708,G3,176.5,0.5,27,74.66
709,E-3,177.0,0.5,31,74.66
710,G#5,177.5,0.25,50,74.66
711,B3,177.5,0.5,27,74.66
712,G5,177.75,0.25,50,74.66
713,F5,178.0,0.5,55,74.66
714,E-3,178.0,0.5,34,74.66
715,E-5,178.5,2/5,52,74.66
716,C4,178.5,0.5,27,74.66
717,D5,179.0,2/5,53,74.66
718,E-3,179.0,0.5,27,74.66
719,C5,179.5,2/5,53,74.66
720,E-4,179.5,0.5,27,74.66
721,G5,180.0,0.5,59,74.66
722,D3,180.0,0.5,36,74.66
723,F5,180.5,1.0,54,74.66
724,F3,180.5,0.5,31,74.66
725,D3,181.0,0.5,33,74.66
726,G5,181.5,0.25,55,74.66
727,A3,181.5,0.5,33,74.66
728,F5,181.75,229/1000,52,74.66
729,F5,182.0,0.25,54,74.66
730,D3,182.0,0.5,36,74.66
731,E-5,182.25,229/1000,51,74.66
732,E-5,182.5,0.25,55,74.66
733,B-3,182.5,0.5,30,74.66
734,D5,182.75,229/1000,50,74.66
735,D5,183.0,0.25,56,74.66
736,D3,183.0,0.5,31,74.66
737,C5,183.25,229/1000,53,74.66
738,C5,183.5,0.25,59,74.66
739,D4,183.5,0.5,33,74.66
740,B-4,183.75,229/1000,59,74.66
741,F5,184.0,0.125,58,74.66
742,F3,184.0,0.5,36,74.66
743,E5,184.25,0.125,56,74.66
744,E-5,184.5,1.0,59,74.66
745,F4,184.5,0.5,30,74.66
746,C4,185.0,0.5,30,74.66
747,C5,185.5,0.5,51,74.66
748,F4,185.5,0.5,30,74.66
749,E-5,186.0,0.125,58,74.66
750,B-3,186.0,0.5,36,74.66
751,C#5,186.25,0.125,55,74.66
752,D5,186.5,1.0,58,74.66
753,F4,186.5,0.5,30,74.66
754,D4,187.0,0.5,31,74.66
755,B-4,187.5,0.5,54,74.66
756,F4,187.5,0.5,30,74.66
757,D5,188.0,1.5,59,74.66
758,F3,188.0,0.5,36,74.66
759,D4,188.5,0.5,25,74.66
760,B-3,189.0,0.5,25,74.66
761,E-5,189.5,0.25,43,74.66
762,D4,189.5,0.5,25,74.66
763,D5,189.75,0.25,43,74.66
764,C5,190.0,0.25,50,74.66
765,C4,190.0,1.0,36,74.66
766,A3,190.0,1.0,36,74.66
767,F3,190.0,1.0,36,74.66
768,F5,190.333,0.25,45,74.66
769,E-5,190.667,0.25,42,74.66
770,E-5,191.0,0.25,50,74.66
771,D5,191.25,0.25,43,74.66
772,E-5,191.5,0.25,40,74.66
773,C5,191.75,0.25,41,74.66
774,B-4,192.0,0.5,50,74.66
775,B-3,192.0,0.5,36,74.66
776,C5,192.5,167/1000,43,74.66
777,F4,192.5,0.5,31,74.66
778,B-4,192.667,167/1000,44,74.66
779,A4,192.833,167/1000,41,74.66
780,B-4,193.0,0.5,45,74.66
781,C#4,193.0,0.5,35,74.66
782,C5,193.5,0.5,50,74.66
783,F4,193.5,0.5,31,74.66
784,C#5,194.0,0.5,53,74.66
785,B-3,194.0,0.5,40,74.66
786,E-5,194.5,167/1000,44,74.66
787,F4,194.5,0.5,36,74.66
788,C#5,194.667,167/1000,44,74.66
789,C5,194.833,167/1000,41,74.66
790,C#5,195.0,0.5,51,74.66
791,C#4,195.0,0.5,38,74.66
792,E-5,195.5,0.5,52,74.66
793,F4,195.5,0.5,31,74.66
794,E5,196.0,1.5,61,74.66
795,G#3,196.0,0.5,46,74.66
796,F4,196.5,0.5,36,74.66
797,C4,197.0,0.5,41,74.66
798,F5,197.5,0.5,56,74.66
799,F4,197.5,0.5,31,74.66
800,C5,198.0,0.5,56,74.66
801,G#3,198.0,0.5,41,74.66
802,F4,198.5,0.5,31,74.66
803,C4,199.0,0.5,40,74.66
804,F4,199.5,0.5,32,74.66
805,E-4,200.0,571/500,73,74.66
806,F#3,200.0,0.5,36,74.66
807,B-3,200.5,0.5,32,74.66
808,F#3,201.0,0.5,39,74.66
809,F4,201.144,71/500,45,74.66
810,E-4,201.285,18/125,46,74.66
811,D4,201.427,18/125,47,74.66
812,B-3,201.5,0.5,38,74.66
813,E-4,201.571,71/500,47,74.66
814,E4,201.713,18/125,48,74.66
815,F4,201.854,73/500,49,74.66
816,F#4,202.0,0.125,49,74.66
817,E-3,202.0,0.5,53,74.66
818,G4,202.125,0.125,51,74.66
819,G#4,202.25,0.125,52,74.66
820,A4,202.375,0.125,53,74.66
821,B-4,202.5,0.125,55,74.66
822,B-3,202.5,0.5,45,74.66
823,B4,202.625,0.125,56,74.66
824,C5,202.75,0.125,57,74.66
825,C#5,202.875,0.125,58,74.66
826,D5,203.0,0.125,60,74.66
827,F#3,203.0,0.5,57,74.66
828,E-5,203.125,0.125,61,74.66
829,E5,203.25,0.125,62,74.66
830,F5,203.375,0.125,64,74.66
831,F#5,203.5,0.125,65,74.66
832,B-3,203.5,0.5,52,74.66
833,G5,203.625,0.125,66,74.66
834,G#5,203.75,0.125,67,74.66
835,A5,203.875,0.125,69,74.66
836,A5,204.0,0.5,73,74.66
837,D3,204.0,0.5,63,74.66
838,B-5,204.5,167/1000,63,74.66
839,B-3,204.5,0.5,54,74.66
840,A5,204.667,167/1000,61,74.66
841,G5,204.833,167/1000,61,74.66
842,A5,205.0,0.5,60,74.66
843,F3,205.0,0.5,60,74.66
844,B-5,205.5,0.5,64,74.66
845,B-3,205.5,0.5,51,74.66
846,F5,206.0,0.5,59,74.66
847,C#3,206.0,0.5,63,74.66
848,B-3,206.5,0.5,55,74.66
849,F3,207.0,0.5,62,74.66
850,B-3,207.5,0.5,57,74.66
851,E5,207.75,0.25,69,74.66
852,C#6,208.0,2.5,93,74.66
853,C3,208.0,0.5,69,74.66
854,B-3,208.5,0.5,53,74.66
855,G3,209.0,0.5,62,74.66
856,B-3,209.5,0.5,48,74.66
857,C3,210.0,0.5,44,74.66
858,C6,210.5,0.25,60,74.66
859,B-3,210.5,0.5,29,74.66
860,B-5,210.75,0.25,58,74.66
861,G#5,211.0,0.25,57,74.66
862,G3,211.0,0.5,32,74.66
863,G5,211.25,0.25,56,74.66
864,F5,211.5,0.25,54,74.66
865,B-3,211.5,0.5,28,74.66
866,E5,211.75,0.25,50,74.66
867,G5,212.0,1.0,57,74.66
868,C#3,212.0,0.5,41,74.66
869,G#3,212.5,0.5,27,74.66
870,F5,213.0,1.5,62,74.66
871,F3,213.0,0.5,32,74.66
872,G#3,213.5,0.5,28,74.66
873,B-2,214.0,0.5,36,74.66
874,E5,214.5,0.5,53,74.66
875,G3,214.5,0.5,27,74.66
876,E-5,215.0,333/1000,55,74.66
877,C#3,215.0,0.5,28,74.66
878,D5,215.333,333/1000,52,74.66
879,G3,215.5,0.5,27,74.66
880,C#5,215.667,333/1000,52,74.66
881,C5,216.0,0.5,50,74.66
882,C3,216.0,0.5,36,74.66
883,C#5,216.5,167/1000,43,74.66
884,G#3,216.5,0.5,31,74.66
885,C5,216.667,167/1000,44,74.66
886,B-4,216.833,167/1000,44,74.66
887,C5,217.0,0.5,45,74.66
888,F3,217.0,0.5,31,74.66
889,C#5,217.5,0.5,50,74.66
890,G#3,217.5,0.5,31,74.66
891,F4,218.0,1.0,50,74.66
892,C3,218.0,0.5,36,74.66
893,B-3,218.5,0.5,31,74.66
894,G#4,219.0,0.5,50,74.66
895,E4,219.0,1.0,44,74.66
896,G3,219.0,0.5,31,74.66
897,G4,219.5,0.5,50,74.66
898,B-3,219.5,0.5,31,74.66
899,F4,220.0,62/125,53,74.66
900,A3,220.0,0.5,38,74.66
901,F3,220.0,1.0,32,74.66
902,F4,220.5,0.25,30,74.66
903,F4,221.0,0.25,30,74.66
904,F4,221.5,0.25,30,74.66
905,D4,222.0,0.5,38,74.66
906,B-3,222.0,1.0,32,74.66
907,F4,222.5,0.5,28,74.66
908,E-4,223.0,0.5,28,74.66
909,C4,223.0,1.0,23,74.66
910,F4,223.5,0.5,28,74.66
911,E-5,224.0,1.0,45,74.66
912,A3,224.0,1.0,29,74.66
913,C4,224.0,0.5,35,74.66
914,F4,224.5,0.25,30,74.66
915,F4,225.0,0.25,28,74.66
916,F4,225.5,0.25,28,74.66
917,C5,226.0,0.5,45,74.66
918,A3,226.0,0.5,34,74.66
919,F3,226.0,1.0,28,74.66
920,F4,226.5,0.5,31,74.66
921,A4,227.0,0.5,42,74.66
922,C4,227.0,1.0,27,74.66
923,E-4,227.0,0.5,27,74.66
924,F4,227.5,0.5,27,74.66
925,F5,228.0,0.75,53,74.66
926,B-3,228.0,1.0,32,74.66
927,D4,228.0,0.5,38,74.66
928,F4,228.5,0.25,30,74.66
929,D5,228.75,0.25,49,74.66
930,F5,229.0,0.5,53,74.66
931,F4,229.0,0.25,29,74.66
932,F4,229.5,0.25,30,74.66
933,D4,230.0,0.5,38,74.66
934,B-3,230.0,1.0,32,74.66
935,F4,230.5,0.5,28,74.66
936,E-4,231.0,0.5,28,74.66
937,C4,231.0,1.0,23,74.66
938,F4,231.5,0.5,28,74.66
939,F5,232.0,0.5,49,74.66
940,C4,232.0,0.5,35,74.66
941,A3,232.0,1.0,29,74.66
942,E-5,232.5,0.5,45,74.66
943,F4,232.5,0.25,30,74.66
944,F4,233.0,0.25,27,74.66
945,F4,233.5,0.25,27,74.66
946,D5,234.0,0.5,45,74.66
947,F3,234.0,1.0,28,74.66
948,A3,234.0,0.5,34,74.66
949,C5,234.5,0.25,41,74.66
950,F4,234.5,0.5,31,74.66
951,B-4,235.0,0.5,42,74.66
952,C4,235.0,1.0,29,74.66
953,E-4,235.0,0.5,29,74.66
954,A4,235.5,0.25,39,74.66
955,F4,235.5,0.5,29,74.66
956,F5,236.0,0.75,53,74.66
957,D4,236.0,1.0,35,74.66
958,B-3,236.0,1.0,35,74.66
959,D5,236.75,0.25,50,74.66
960,F5,237.0,0.5,53,74.66
961,D6,238.0,0.5,64,74.66
962,B-5,238.0,0.5,64,74.66
963,B-4,238.0,0.5,52,74.66
964,D5,238.0,0.5,52,74.66
965,A5,238.5,0.5,59,74.66
966,C6,238.5,0.5,59,74.66
967,A4,238.5,0.5,47,74.66
968,C5,238.5,0.5,47,74.66
969,B-5,239.0,9/20,52,74.66
970,G5,239.0,9/20,52,74.66
971,B-4,239.0,9/20,42,74.66
972,G4,239.0,9/20,42,74.66
973,F#5,239.5,9/20,52,74.66
974,A5,239.5,9/20,52,74.66
975,F#4,239.5,9/20,42,74.66
976,A4,239.5,9/20,42,74.66
977,B-5,240.0,0.5,64,74.66
978,G5,240.0,0.5,64,74.66
979,G4,240.0,0.5,52,74.66
980,B-4,240.0,0.5,52,74.66
981,A5,240.5,0.5,59,74.66
982,F5,240.5,0.5,59,74.66
983,F4,240.5,0.5,47,74.66
984,A4,240.5,0.5,47,74.66
985,G5,241.0,9/20,54,74.66
986,E-5,241.0,9/20,54,74.66
987,E-4,241.0,9/20,44,74.66
988,G4,241.0,9/20,44,74.66
989,D5,241.5,9/20,54,74.66
990,F#5,241.5,9/20,54,74.66
991,F#4,241.5,9/20,44,74.66
992,D4,241.5,9/20,44,74.66
993,E-5,242.0,0.5,64,74.66
994,G5,242.0,0.5,64,74.66
995,E-4,242.0,0.5,52,74.66
996,G4,242.0,0.5,52,74.66
997,D5,242.5,0.5,58,74.66
998,F5,242.5,0.5,58,74.66
999,D4,242.5,0.5,46,74.66
1000,F4,242.5,0.5,46,74.66
1001,E-5,243.0,9/20,54,74.66
1002,C5,243.0,9/20,54,74.66
1003,C4,243.0,9/20,44,74.66
1004,E-4,243.0,9/20,44,74.66
1005,B4,243.5,9/20,54,74.66
1006,D5,243.5,9/20,54,74.66
1007,D4,243.5,9/20,42,74.66
1008,B3,243.5,9/20,42,74.66
1009,G4,244.0,2.5,49,74.66
1010,D5,244.0,2.0,58,74.66
1011,B4,244.0,2.0,58,74.66
1012,D4,244.0,2.0,34,74.66
1013,F4,244.0,2.0,34,74.66
1014,G3,244.0,2.0,34,74.66
1015,B3,244.0,2.0,34,74.66
1016,C5,246.0,0.5,41,74.66
1017,E-5,246.0,0.75,49,74.66
1018,C4,246.0,2.0,35,74.66
1019,E-4,246.0,1.0,42,74.66
1020,G5,246.75,83/1000,45,74.66
1021,F5,246.833,83/1000,45,74.66
1022,E-5,246.917,83/1000,45,74.66
1023,F5,247.0,0.5,50,74.66
1024,A4,247.0,1.0,44,74.66
1025,G5,247.5,0.5,48,74.66
1026,G5,248.0,0.25,49,74.66
1027,B-4,248.0,1.0,38,74.66
1028,D4,248.0,1.0,38,74.66
1029,F5,248.25,0.25,45,74.66
1030,E-5,248.5,0.25,45,74.66
1031,D5,248.75,0.25,45,74.66
1032,B4,249.0,0.25,49,74.66
1033,E-4,249.0,1.0,39,74.66
1034,G4,249.0,1.0,39,74.66
1035,C5,249.25,0.25,42,74.66
1036,E-5,249.5,0.25,42,74.66
1037,G5,249.75,0.25,42,74.66
1038,B-4,250.0,1.0,50,74.66
1039,D4,250.0,1.0,44,74.66
1040,F3,250.0,2.0,37,74.66
1041,E-4,251.0,1.0,36,74.66
1042,C5,251.0,1.0,42,74.66
1043,A4,251.0,1.0,42,74.66
1044,A4,252.0,1.0,38,74.66
1045,C5,252.0,0.75,48,74.66
1046,D4,252.0,0.5,38,74.66
1047,B-3,252.0,1.0,30,74.66
1048,F4,252.5,0.25,30,74.66
1049,C#5,252.75,0.25,35,74.66
1050,F4,253.0,0.25,30,74.66
1051,D5,253.0,1.0,41,74.66
1052,B-4,253.0,1.0,41,74.66
1053,F4,253.5,0.25,30,74.66
1054,B-3,254.0,1.0,28,74.66
1055,D4,254.0,0.5,33,74.66
1056,F4,254.5,0.5,27,74.66
1057,E-4,255.0,0.5,27,74.66
1058,C4,255.0,1.0,22,74.66
1059,F4,255.5,0.5,27,74.66
1060,F5,256.0,0.5,45,74.66
1061,C4,256.0,0.5,33,74.66
1062,A3,256.0,1.0,33,74.66
1063,E-5,256.5,0.5,45,74.66
1064,F4,256.5,0.25,26,74.66
1065,F4,257.0,0.25,30,74.66
1066,F4,257.5,0.25,26,74.66
1067,D5,258.0,0.5,45,74.66
1068,F3,258.0,1.0,28,74.66
1069,A3,258.0,0.5,34,74.66
1070,C5,258.5,0.5,43,74.66
1071,F4,258.5,0.5,31,74.66
1072,B-4,259.0,0.5,42,74.66
1073,E-4,259.0,0.5,31,74.66
1074,C4,259.0,1.0,26,74.66
1075,A4,259.5,0.5,40,74.66
1076,F4,259.5,0.5,31,74.66
1077,F5,260.0,0.75,53,74.66
1078,D4,260.0,0.5,38,74.66
1079,B-3,260.0,1.0,32,74.66
1080,F4,260.5,0.25,30,74.66
1081,D5,260.75,0.25,49,74.66
1082,F5,261.0,0.5,53,74.66
1083,F4,261.0,0.25,30,74.66
1084,F4,261.5,0.25,30,74.66
1085,D4,262.0,0.5,38,74.66
1086,B-3,262.0,1.0,32,74.66
1087,F4,262.5,0.5,28,74.66
1088,E-4,263.0,0.5,28,74.66
1089,C4,263.0,1.0,23,74.66
1090,F4,263.5,0.5,28,74.66
1091,F5,264.0,0.125,50,74.66
1092,C4,264.0,0.5,35,74.66
1093,A3,264.0,1.0,29,74.66
1094,E5,264.25,0.125,48,74.66
1095,E-5,264.5,0.5,45,74.66
1096,F4,264.5,0.25,28,74.66
1097,F4,265.0,0.25,30,74.66
1098,F4,265.5,0.25,26,74.66
1099,D5,266.0,0.125,49,74.66
1100,A3,266.0,0.5,34,74.66
1101,F3,266.0,1.0,28,74.66
1102,D5,266.25,0.25,43,74.66
1103,E-5,266.5,0.25,45,74.66
1104,F4,266.5,0.5,25,74.66
1105,C5,266.75,0.25,40,74.66
1106,B-4,267.0,0.125,47,74.66
1107,E-4,267.0,0.5,31,74.66
1108,C4,267.0,1.0,26,74.66
1109,B-4,267.25,0.25,41,74.66
1110,C5,267.5,0.25,46,74.66
1111,F4,267.5,0.5,26,74.66
1112,A4,267.75,0.25,40,74.66
1113,F5,268.0,0.25,53,74.66
1114,D4,268.0,1.0,35,74.66
1115,B-3,268.0,1.0,35,74.66
1116,G5,268.25,83/1000,47,74.66
1117,F5,268.333,83/1000,47,74.66
1118,E5,268.417,83/1000,46,74.66
1119,F5,268.5,0.25,53,74.66
1120,B-5,268.75,0.25,50,74.66
1121,F5,269.0,0.5,53,74.66
1122,D5,270.0,0.5,52,74.66
1123,B-4,270.0,0.5,52,74.66
1124,B-5,270.25,0.5,54,74.66
1125,D6,270.25,0.5,54,74.66
1126,C5,270.5,0.5,47,74.66
1127,A4,270.5,0.5,47,74.66
1128,C6,270.75,0.5,50,74.66
1129,A5,270.75,0.5,50,74.66
1130,G4,271.0,0.5,42,74.66
1131,B-4,271.0,0.5,42,74.66
1132,G5,271.25,0.5,44,74.66
1133,B-5,271.25,0.5,44,74.66
1134,A4,271.5,0.5,42,74.66
1135,F#4,271.5,0.5,42,74.66
1136,A5,271.75,0.25,44,74.66
1137,F#5,271.75,0.25,44,74.66
1138,A5,272.0,0.25,44,74.66
1139,F#5,272.0,0.25,44,74.66
1140,G4,272.0,0.5,52,74.66
1141,B-4,272.0,0.5,52,74.66
1142,B-5,272.25,0.5,54,74.66
1143,G5,272.25,0.5,54,74.66
1144,F4,272.5,0.5,47,74.66
1145,A4,272.5,0.5,47,74.66
1146,F5,272.75,0.5,50,74.66
1147,A5,272.75,0.5,50,74.66
1148,E-4,273.0,0.5,44,74.66
1149,G4,273.0,0.5,44,74.66
1150,G5,273.25,0.5,46,74.66
1151,E-5,273.25,0.5,46,74.66
1152,F#4,273.5,0.5,44,74.66
1153,D4,273.5,0.5,44,74.66
1154,F#5,273.75,0.5,46,74.66
1155,D5,273.75,0.5,46,74.66
1156,E-4,274.0,0.5,52,74.66
1157,G4,274.0,0.5,52,74.66
1158,E-5,274.25,0.5,54,74.66
1159,G5,274.25,0.5,54,74.66
1160,F4,274.5,0.5,46,74.66
1161,D4,274.5,0.5,46,74.66
1162,D5,274.75,0.5,49,74.66
1163,F5,274.75,0.5,49,74.66
1164,C4,275.0,0.5,44,74.66
1165,E-4,275.0,0.5,44,74.66
1166,E-5,275.25,0.5,46,74.66
1167,C5,275.25,0.5,46,74.66
1168,D4,275.5,479/1000,42,74.66
1169,B3,275.5,479/1000,42,74.66
1170,B4,275.75,229/1000,45,74.66
1171,D5,275.75,229/1000,45,74.66
1172,G4,276.0,2.5,49,74.66
1173,D5,276.0,2.0,54,74.66
1174,B4,276.0,2.0,54,74.66
1175,F4,276.0,2.0,38,74.66
1176,B3,276.0,2.0,38,74.66
1177,D4,276.0,2.0,38,74.66
1178,G3,276.0,2.0,38,74.66
1179,E-5,278.0,0.75,49,74.66
1180,C5,278.0,0.5,41,74.66
1181,C4,278.0,2.0,35,74.66
1182,E-4,278.0,1.0,42,74.66
1183,G5,278.75,83/1000,45,74.66
1184,F5,278.833,83/1000,41,74.66
1185,E-5,278.917,83/1000,41,74.66
1186,F5,279.0,0.5,50,74.66
1187,A4,279.0,1.0,44,74.66
1188,G5,279.5,0.5,48,74.66
1189,F5,280.0,333/1000,49,74.66
1190,B-4,280.0,1.0,44,74.66
1191,D4,280.0,1.0,44,74.66
1192,B-5,280.333,333/1000,45,74.66
1193,D5,280.667,333/1000,45,74.66
1194,C5,281.0,333/1000,48,74.66
1195,E-4,281.0,1.0,42,74.66
1196,G4,281.0,1.0,42,74.66
1197,E-5,281.333,333/1000,45,74.66
1198,G5,281.667,333/1000,45,74.66
1199,B-4,282.0,1.0,50,74.66
1200,F3,282.0,2.0,37,74.66
1201,D4,282.0,1.0,44,74.66
1202,A4,283.0,0.938,45,74.66
1203,C4,283.0,1.0,40,74.66
1204,D4,283.938,0.062,56,74.66
1205,D5,284.0,1.375,73,74.66
1206,B-2,284.5,0.5,50,74.66
1207,D3,285.0,0.5,54,74.66
1208,B-4,285.375,0.125,49,74.66
1209,B-4,285.5,1/10,53,74.66
1210,G3,285.5,0.5,50,74.66
1211,C5,285.6,1/10,50,74.66
1212,B-4,285.7,1/10,54,74.66
1213,A4,285.8,1/10,51,74.66
1214,B-4,285.9,1/10,54,74.66
1215,E-4,286.0,0.125,60,74.66
1216,E-5,286.062,1.312,74,74.66
1217,C3,286.5,0.5,50,74.66
1218,E-3,287.0,0.5,54,74.66
1219,C5,287.375,0.125,53,74.66
1220,C5,287.5,1/10,56,74.66
1221,A3,287.5,0.5,50,74.66
1222,D5,287.6,1/10,54,74.66
1223,C5,287.7,1/10,56,74.66
1224,B4,287.8,1/10,53,74.66
1225,C5,287.9,1/10,56,74.66
1226,F5,288.0,0.75,74,74.66
1227,D3,288.5,0.5,50,74.66
1228,D5,288.75,0.25,61,74.66
1229,B-5,289.0,1.5,69,74.66
1230,F3,289.0,0.5,54,74.66
1231,B-3,289.5,1.5,45,74.66
1232,D3,290.0,2.0,49,74.66
1233,G#5,290.5,0.5,62,74.66
1234,G5,291.0,0.5,67,74.66
1235,G#3,291.0,1.0,47,74.66
1236,F#5,291.5,0.5,62,74.66
1237,F#5,292.0,0.25,62,74.66
1238,G3,292.0,1.0,43,74.66
1239,E-3,292.0,1.0,43,74.66
1240,B-3,292.0,1.0,43,74.66
1241,G5,292.25,0.25,69,74.66
1242,B-5,292.5,0.25,62,74.66
1243,G5,292.75,0.25,63,74.66
1244,D5,293.0,0.25,64,74.66
1245,E-5,293.25,0.25,60,74.66
1246,G5,293.5,0.25,60,74.66
1247,E-5,293.75,271/1000,60,74.66
1248,B4,294.0,0.25,68,74.66
1249,E-3,294.0,1.0,43,74.66
1250,G3,294.0,1.0,43,74.66
1251,C4,294.0,1.0,43,74.66
1252,C5,294.25,271/1000,60,74.66
1253,E-5,294.5,0.25,60,74.66
1254,D5,294.75,271/1000,60,74.66
1255,F5,295.0,0.25,63,74.66
1256,E-5,295.25,271/1000,62,74.66
1257,D5,295.5,0.25,60,74.66
1258,C5,295.75,0.125,58,74.66
1259,F4,295.875,0.125,46,74.66
1260,F5,296.0,0.5,60,74.66
1261,F3,296.0,0.5,50,74.66
1262,F5,296.5,1.0,60,74.66
1263,D4,296.5,0.5,43,74.66
1264,B-3,297.0,0.5,50,74.66
1265,F5,297.5,0.75,64,74.66
1266,D4,297.5,0.5,38,74.66
1267,F3,298.0,0.5,43,74.66
1268,E-5,298.25,0.25,60,74.66
1269,D5,298.5,0.25,60,74.66
1270,D4,298.5,0.5,35,74.66
1271,E-5,298.75,0.25,60,74.66
1272,F5,299.0,0.25,60,74.66
1273,B-3,299.0,0.5,35,74.66
1274,G5,299.25,0.25,61,74.66
1275,A5,299.5,0.25,62,74.66
1276,D4,299.5,0.5,35,74.66
1277,B-5,299.75,0.125,63,74.66
1278,B-4,299.875,21/500,44,74.66
1279,C5,299.875,21/500,44,74.66
1280,D5,299.958,21/500,44,74.66
1281,C5,300.0,53/500,44,74.66
1282,F3,300.0,0.5,38,74.66
1283,D5,300.106,13/125,41,74.66
1284,C5,300.21,53/500,44,74.66
1285,D5,300.315,53/500,39,74.66
1286,C5,300.421,13/125,44,74.66
1287,E-4,300.5,0.5,33,74.66
1288,D5,300.525,53/500,39,74.66
1289,C5,300.631,13/125,44,74.66
1290,D5,300.735,53/500,39,74.66
1291,C5,300.84,53/500,44,74.66
1292,D5,300.946,13/125,39,74.66
1293,A3,301.0,0.5,33,74.66
1294,C5,301.05,53/500,44,74.66
1295,D5,301.156,13/125,38,74.66
1296,C5,301.26,53/500,44,74.66
1297,D5,301.365,53/500,38,74.66
1298,C5,301.471,13/125,44,74.66
1299,E-4,301.5,0.5,33,74.66
1300,D5,301.575,53/500,38,74.66
1301,C5,301.681,13/125,43,74.66
1302,D5,301.785,53/500,38,74.66
1303,C5,301.89,53/500,43,74.66
1304,D5,301.996,13/125,36,74.66
1305,F3,302.0,0.5,37,74.66
1306,C5,302.1,53/500,42,74.66
1307,D5,302.206,13/125,36,74.66
1308,C5,302.31,53/500,42,74.66
1309,D5,302.415,53/500,36,74.66
1310,C5,302.5,0.125,42,74.66
1311,E-4,302.5,0.5,32,74.66
1312,D5,302.625,0.125,40,74.66
1313,C5,302.75,0.125,42,74.66
1314,D5,302.875,0.125,39,74.66
1315,C5,303.0,0.125,42,74.66
1316,A3,303.0,0.5,32,74.66
1317,D5,303.125,0.125,36,74.66
1318,C5,303.25,0.125,42,74.66
1319,D5,303.375,0.125,37,74.66
1320,C5,303.5,167/1000,38,74.66
1321,E-4,303.5,0.5,32,74.66
1322,B-4,303.667,167/1000,48,74.66
1323,C5,303.833,167/1000,42,74.66
1324,B-4,304.0,1.0,53,74.66
1325,B-3,304.0,4.0,37,74.66
1326,D4,304.5,0.5,35,74.66
1327,F4,305.0,0.5,39,74.66
1328,B-4,305.375,0.125,49,74.66
1329,B-4,305.5,1/10,50,74.66
1330,G#4,305.5,0.5,35,74.66
1331,C5,305.6,1/10,51,74.66
1332,B-4,305.7,1/10,51,74.66
1333,A4,305.8,1/10,54,74.66
1334,B-4,305.9,1/10,54,74.66
1335,F5,306.0,0.5,63,74.66
1336,G4,306.0,1.0,37,74.66
1337,E-5,306.5,0.5,58,74.66
1338,D5,307.0,0.5,53,74.66
1339,E-4,307.0,1.0,34,74.66
1340,C5,307.5,479/1000,53,74.66
1341,C5,308.0,0.5,62,74.66
1342,D4,308.0,0.5,35,74.66
1343,B-3,308.0,4.0,37,74.66
1344,B-4,308.5,0.5,51,74.66
1345,F4,308.5,0.5,35,74.66
1346,G#4,309.0,0.5,39,74.66
1347,B-4,309.375,0.125,49,74.66
1348,B-4,309.5,1/10,50,74.66
1349,F#4,309.5,0.5,35,74.66
1350,C5,309.6,1/10,51,74.66
1351,B-4,309.7,1/10,51,74.66
1352,A4,309.8,1/10,54,74.66
1353,B-4,309.9,1/10,54,74.66
1354,F5,310.0,0.5,63,74.66
1355,G4,310.0,1.0,37,74.66
1356,E-5,310.5,0.5,58,74.66
1357,D5,311.0,0.5,53,74.66
1358,E-4,311.0,1.0,34,74.66
1359,C5,311.5,0.5,53,74.66
1360,B-4,312.0,0.5,59,74.66
1361,B-3,312.0,1.0,32,74.66
1362,D4,312.5,0.5,30,74.66
1363,F4,312.5,0.5,30,74.66
1364,E-5,313.0,0.75,48,74.66
1365,G4,313.0,0.5,36,74.66
1366,E-4,313.0,0.5,36,74.66
1367,E-4,313.5,0.5,33,74.66
1368,C4,313.5,0.5,33,74.66
1369,A4,313.75,0.25,50,74.66
1370,B-4,314.0,0.5,56,74.66
1371,B-3,314.0,1.0,32,74.66
1372,D4,314.0,0.5,38,74.66
1373,F4,314.5,0.5,32,74.66
1374,D4,314.5,0.5,32,74.66
1375,G5,315.0,0.75,64,74.66
1376,G4,315.0,0.5,36,74.66
1377,E-4,315.0,0.5,36,74.66
1378,E-4,315.5,49/100,27,74.66
1379,C4,315.5,49/100,27,74.66
1380,A4,315.75,0.25,45,74.66
1381,F4,316.0,3.0,36,74.66
1382,C4,316.0,2.0,39,74.66
1383,A4,316.0,2.0,39,74.66
1384,E-4,316.0,2.0,39,74.66
1385,B-3,316.0,3.0,24,74.66
1386,B-2,316.0,3.0,24,74.66
1387,D4,318.0,1.0,28,74.66
1388,B-4,318.0,1.0,28,74.66
1389,D3,318.0,1.0,19,74.66
1390,F3,318.0,1.0,19,74.66
