,note_name,start_time,duration,velocity,tempo
0,A4,1.25,0.25,42,150.49
1,A5,1.5,1.0,47,150.49
2,F#5,2.5,0.375,44,150.49
3,E5,2.875,0.125,44,150.49
4,D5,3.0,0.188,49,150.49
5,D4,3.0,1.5,30,150.49
6,F#4,3.0,1.5,30,150.49
7,C#5,3.5,0.188,44,150.49
8,D5,4.0,0.188,44,150.49
9,E5,4.375,0.125,43,150.49
10,D5,4.5,0.188,47,150.49
11,B3,4.5,1.5,30,150.49
12,G#4,4.5,1.5,30,150.49
13,C#5,5.0,0.188,43,150.49
14,D5,5.5,0.188,42,150.49
15,F#5,6.0,1.0,45,150.49
16,D5,6.0,1.0,45,150.49
17,A3,6.0,1.5,30,150.49
18,A4,6.0,1.5,30,150.49
19,E5,7.0,0.25,38,150.49
20,C#5,7.0,0.25,38,150.49
21,G4,7.25,0.25,42,150.49
22,G5,7.5,1.0,47,150.49
23,E5,8.5,0.375,44,150.49
24,D5,8.875,0.125,44,150.49
25,C#5,9.0,0.188,49,150.49
26,E4,9.0,1.5,30,150.49
27,A3,9.0,1.5,30,150.49
28,B4,9.5,0.188,44,150.49
29,C#5,10.0,0.188,44,150.49
30,A4,10.5,0.188,47,150.49
31,C#4,10.5,1.5,30,150.49
32,E4,10.5,1.5,30,150.49
33,E5,11.0,0.188,43,150.49
34,A5,11.5,0.188,42,150.49
35,G5,12.0,1.0,45,150.49
36,E5,12.0,1.0,45,150.49
37,D4,12.0,1.5,30,150.49
38,A4,12.0,1.5,30,150.49
39,F#5,13.0,0.375,38,150.49
40,D5,13.0,0.375,38,150.49
41,D5,13.375,0.125,48,150.49
42,F#5,13.5,1.0,52,150.49
43,D3,13.5,0.5,51,150.49
44,D4,14.0,0.25,45,150.49
45,G5,14.5,0.5,48,150.49
46,E4,14.5,0.25,48,150.49
47,B5,15.0,0.25,59,150.49
48,F#4,15.0,0.5,52,150.49
49,A5,15.25,0.25,57,150.49
50,G5,15.5,0.25,55,150.49
51,F#5,15.75,0.25,53,150.49
52,E5,16.0,0.25,51,150.49
53,D5,16.25,121/1000,47,150.49
54,D5,16.375,0.125,46,150.49
55,F#5,16.5,1.0,58,150.49
56,D3,16.5,0.5,50,150.49
57,D4,17.0,0.25,44,150.49
58,G5,17.5,0.5,49,150.49
59,E4,17.5,0.25,48,150.49
60,B5,18.0,0.25,59,150.49
61,F#4,18.0,0.5,53,150.49
62,A5,18.25,0.25,57,150.49
63,G5,18.5,0.25,55,150.49
64,F#5,18.75,0.25,53,150.49
65,E5,19.0,0.25,51,150.49
66,D5,19.25,13/125,51,150.49
67,D5,19.375,0.125,46,150.49
68,B5,19.5,1.0,58,150.49
69,G3,19.5,0.5,50,150.49
70,G4,20.0,0.25,44,150.49
71,C#6,20.5,0.5,49,150.49
72,E4,20.5,0.25,48,150.49
73,D6,21.0,0.25,59,150.49
74,F#3,21.0,0.5,49,150.49
75,F#4,21.0,0.5,49,150.49
76,C#6,21.25,0.25,57,150.49
77,B5,21.5,0.25,55,150.49
78,A5,21.75,0.25,53,150.49
79,G5,22.0,0.25,51,150.49
80,F#5,22.25,0.25,51,150.49
81,B5,22.5,0.25,59,150.49
82,G4,22.5,0.5,49,150.49
83,G3,22.5,0.5,49,150.49
84,A5,22.75,0.25,58,150.49
85,G5,23.0,0.25,56,150.49
86,F#5,23.25,0.25,55,150.49
87,E5,23.5,0.25,58,150.49
88,D5,23.75,0.25,62,150.49
89,C#5,24.0,0.5,53,150.49
90,E5,24.0,0.5,53,150.49
91,A5,24.0,0.5,53,150.49
92,A4,24.0,0.5,49,150.49
93,A3,24.0,0.5,49,150.49
94,A4,25.25,0.25,45,150.49
95,A5,25.5,1.0,47,150.49
96,F#5,26.5,0.375,44,150.49
97,E5,26.875,0.125,44,150.49
98,D5,27.0,0.188,49,150.49
99,F#4,27.0,1.5,30,150.49
100,D4,27.0,1.5,30,150.49
101,C#5,27.5,0.188,44,150.49
102,D5,28.0,0.188,44,150.49
103,E5,28.375,0.125,43,150.49
104,D5,28.5,0.188,47,150.49
105,B3,28.5,1.5,30,150.49
106,G#4,28.5,1.5,30,150.49
107,C#5,29.0,0.188,43,150.49
108,D5,29.5,0.188,42,150.49
109,F#5,30.0,1.0,45,150.49
110,D5,30.0,1.0,45,150.49
111,A4,30.0,1.5,30,150.49
112,A3,30.0,1.5,30,150.49
113,E5,31.0,0.25,38,150.49
114,C#5,31.0,0.25,38,150.49
115,G4,31.25,0.25,42,150.49
116,G5,31.5,1.0,47,150.49
117,E5,32.5,0.375,44,150.49
118,D5,32.875,0.125,44,150.49
119,C#5,33.0,0.188,49,150.49
120,E4,33.0,1.5,30,150.49
121,A3,33.0,1.5,30,150.49
122,B4,33.5,0.188,44,150.49
123,C#5,34.0,0.188,44,150.49
124,A4,34.5,0.188,47,150.49
125,E4,34.5,1.5,30,150.49
126,C#4,34.5,1.5,30,150.49
127,E5,35.0,0.188,43,150.49
128,A5,35.5,0.188,42,150.49
129,E5,36.0,1.0,45,150.49
130,G5,36.0,1.0,45,150.49
131,D4,36.0,1.5,30,150.49
132,A4,36.0,1.5,30,150.49
133,D5,37.0,0.375,38,150.49
134,F#5,37.0,0.375,38,150.49
135,D5,37.375,0.125,48,150.49
136,F#5,37.5,1.0,52,150.49
137,D3,37.5,0.5,51,150.49
138,D4,38.0,0.25,45,150.49
139,G5,38.5,0.5,48,150.49
140,E4,38.5,0.25,48,150.49
141,B5,39.0,0.25,59,150.49
142,F#4,39.0,0.5,52,150.49
143,A5,39.25,0.25,57,150.49
144,G5,39.5,0.25,55,150.49
145,F#5,39.75,0.25,53,150.49
146,E5,40.0,0.25,51,150.49
147,D5,40.25,117/1000,47,150.49
148,D5,40.375,0.125,46,150.49
149,B5,40.5,1.0,58,150.49
150,G2,40.5,0.5,50,150.49
151,G3,41.0,0.25,44,150.49
152,C#6,41.5,0.5,49,150.49
153,B3,41.5,0.25,48,150.49
154,E6,42.0,0.25,59,150.49
155,B3,42.0,0.5,53,150.49
156,D6,42.25,0.25,57,150.49
157,C#6,42.5,0.25,55,150.49
158,B5,42.75,0.25,53,150.49
159,A5,43.0,0.25,51,150.49
160,G5,43.25,0.25,51,150.49
161,C#6,43.5,0.25,59,150.49
162,E4,43.5,0.25,48,150.49
163,B3,43.5,0.25,48,150.49
164,G3,43.5,0.25,48,150.49
165,B5,43.75,0.25,58,150.49
166,A5,44.0,0.25,56,150.49
167,G5,44.25,0.25,55,150.49
168,F#5,44.5,0.25,54,150.49
169,E5,44.75,0.25,52,150.49
170,B5,45.0,0.25,63,150.49
171,D4,45.0,0.25,48,150.49
172,A3,45.0,0.25,48,150.49
173,F#4,45.0,0.25,48,150.49
174,A5,45.25,0.25,61,150.49
175,G5,45.5,0.25,59,150.49
176,F#5,45.75,0.25,57,150.49
177,E5,46.0,0.25,56,150.49
178,D5,46.25,0.25,54,150.49
179,A5,46.5,0.25,59,150.49
180,E4,46.5,0.25,48,150.49
181,A3,46.5,0.25,48,150.49
182,G4,46.5,0.25,48,150.49
183,G5,46.75,0.25,61,150.49
184,F#5,47.0,0.25,60,150.49
185,E5,47.25,0.25,59,150.49
186,D5,47.5,0.25,58,150.49
187,C#5,47.75,0.25,61,150.49
188,D5,48.0,0.25,63,150.49
189,F#4,48.0,0.25,49,150.49
190,D4,48.0,0.25,49,150.49
191,D4,49.0,0.25,66,150.49
192,D2,49.0,0.25,45,150.49
193,F#4,49.25,0.25,66,150.49
194,F#2,49.25,0.25,45,150.49
195,A4,49.5,0.25,73,150.49
196,A2,49.5,0.25,52,150.49
197,F#4,50.5,0.25,70,150.49
198,F#2,50.5,0.25,48,150.49
199,A4,50.75,0.25,70,150.49
200,A2,50.75,0.25,48,150.49
201,D5,51.0,0.25,75,150.49
202,D3,51.0,0.25,57,150.49
203,A4,52.0,0.25,69,150.49
204,A2,52.0,0.25,51,150.49
205,D5,52.25,0.25,69,150.49
206,D3,52.25,0.25,51,150.49
207,F#5,52.5,0.25,81,150.49
208,F#3,52.5,0.25,57,150.49
209,D5,53.5,0.25,70,150.49
210,D3,53.5,0.25,48,150.49
211,F#5,53.75,0.25,70,150.49
212,F#3,53.75,0.25,48,150.49
213,A5,54.0,0.25,82,150.49
214,A3,54.0,0.25,57,150.49
215,A5,57.0,1.25,45,150.49
216,A3,57.0,3.0,29,150.49
217,F#4,57.0,1.5,32,150.49
218,D4,57.0,1.5,32,150.49
219,B5,58.25,0.25,42,150.49
220,D5,58.5,1.0,47,150.49
221,E4,58.5,1.5,30,150.49
222,G4,58.5,1.5,30,150.49
223,C#5,59.558,221/500,47,150.49
224,D5,60.0,0.375,55,150.49
225,C#5,60.0,29/500,47,150.49
226,A3,60.0,0.5,29,150.49
227,D4,60.0,0.5,32,150.49
228,F#4,60.0,0.5,32,150.49
229,D6,60.5,0.25,54,150.49
230,C#6,61.0,0.25,52,150.49
231,B5,61.5,0.25,50,150.49
232,A5,62.0,0.25,49,150.49
233,G#5,62.5,0.25,47,150.49
234,A5,63.0,0.625,45,150.49
235,A3,63.0,3.0,29,150.49
236,D4,63.0,1.5,32,150.49
237,F#4,63.0,1.5,32,150.49
238,B5,63.625,0.125,35,150.49
239,A5,63.75,0.125,35,150.49
240,G#5,63.875,0.125,35,150.49
241,A5,64.0,0.25,45,150.49
242,B5,64.25,0.25,42,150.49
243,D5,64.5,1.0,47,150.49
244,G4,64.5,1.5,30,150.49
245,E4,64.5,1.5,30,150.49
246,C#5,65.558,221/500,47,150.49
247,D5,66.0,0.375,55,150.49
248,C#5,66.0,29/500,47,150.49
249,A3,66.0,0.5,29,150.49
250,D4,66.0,0.5,32,150.49
251,F#4,66.0,0.5,32,150.49
252,D6,66.5,0.25,54,150.49
253,C#6,67.0,0.25,52,150.49
254,B5,67.5,0.25,50,150.49
255,A5,68.0,0.25,49,150.49
256,G#5,68.5,0.25,47,150.49
257,A5,69.0,0.625,45,150.49
258,A3,69.0,3.0,29,150.49
259,D4,69.0,1.5,32,150.49
260,F#4,69.0,1.5,32,150.49
261,B5,69.625,0.125,35,150.49
262,A5,69.75,0.125,35,150.49
263,G#5,69.875,0.125,35,150.49
264,A5,70.0,0.25,45,150.49
265,B5,70.25,0.25,42,150.49
266,D5,70.5,1.0,47,150.49
267,G4,70.5,1.5,30,150.49
268,E4,70.5,1.5,30,150.49
269,C#5,71.558,221/500,47,150.49
270,D5,72.0,0.5,52,150.49
271,C#5,72.0,29/500,47,150.49
272,D4,72.0,0.5,28,150.49
273,F#4,72.0,0.5,28,150.49
274,B2,73.5,1.5,35,150.49
275,D4,73.5,1.5,31,150.49
276,F#3,73.5,1.5,31,150.49
277,B3,73.5,1.5,31,150.49
278,G2,75.0,1.5,37,150.49
279,B3,75.0,1.5,34,150.49
280,E4,75.0,1.5,34,150.49
281,D4,75.0,1.5,34,150.49
282,A2,76.5,1.5,39,150.49
283,E4,76.5,1.5,35,150.49
284,A4,76.5,1.5,35,150.49
285,C#4,76.5,1.5,35,150.49
286,D2,78.0,0.5,35,150.49
287,A3,78.0,0.5,31,150.49
288,D4,78.0,0.5,31,150.49
289,F#4,78.0,0.5,31,150.49
290,D4,80.0,0.188,61,150.49
291,D2,80.0,0.188,44,150.49
292,D3,80.0,0.188,44,150.49
293,D4,80.5,0.188,62,150.49
294,D2,80.5,0.188,44,150.49
295,D3,80.5,0.188,44,150.49
296,E4,80.75,83/1000,40,150.49
297,D4,80.833,83/1000,40,150.49
298,C#4,80.919,81/1000,40,150.49
299,D4,81.0,1.0,69,150.49
300,C#4,81.0,1/500,40,150.49
301,D3,81.0,1.0,52,150.49
302,D2,81.0,1.0,52,150.49
303,D4,82.0,0.188,60,150.49
304,D3,82.0,0.188,44,150.49
305,D2,82.0,0.188,44,150.49
306,E4,82.25,83/1000,40,150.49
307,D4,82.333,83/1000,40,150.49
308,C#4,82.419,83/1000,40,150.49
309,D4,82.5,1.0,64,150.49
310,D3,82.5,1.0,44,150.49
311,D2,82.5,1.0,44,150.49
312,D4,83.5,0.188,59,150.49
313,D2,83.5,0.188,44,150.49
314,D3,83.5,0.188,44,150.49
315,C#4,84.0,1.0,66,150.49
316,C#3,84.0,1.0,52,150.49
317,C#2,84.0,1.0,52,150.49
318,E5,85.25,0.25,54,150.49
319,A5,85.5,1.5,63,150.49
320,A5,87.0,0.5,63,150.49
321,C#4,87.0,0.188,28,150.49
322,A4,87.0,0.188,28,150.49
323,C#6,87.5,0.188,45,150.49
324,A4,87.5,0.188,28,150.49
325,C#4,87.5,0.188,28,150.49
326,B5,88.0,0.188,43,150.49
327,C#4,88.0,0.188,28,150.49
328,A4,88.0,0.188,28,150.49
329,A5,88.5,0.188,41,150.49
330,C#4,88.5,0.188,28,150.49
331,A4,88.5,0.188,28,150.49
332,G#5,89.0,0.188,39,150.49
333,A4,89.0,0.188,28,150.49
334,C#4,89.0,0.188,28,150.49
335,F#5,89.5,0.188,37,150.49
336,A4,89.5,0.188,28,150.49
337,C#4,89.5,0.188,28,150.49
338,E5,90.0,1.5,35,150.49
339,A4,90.0,2.0,32,150.49
340,B3,90.0,2.0,32,150.49
341,D5,91.5,0.5,35,150.49
342,B3,92.0,0.188,61,150.49
343,B2,92.0,0.188,44,150.49
344,B1,92.0,0.188,44,150.49
345,B3,92.5,0.188,62,150.49
346,B2,92.5,0.188,44,150.49
347,B1,92.5,0.188,44,150.49
348,C#4,92.75,83/1000,40,150.49
349,B3,92.833,83/1000,40,150.49
350,B-3,92.919,81/1000,40,150.49
351,B3,93.0,1.0,69,150.49
352,B-3,93.0,1/500,40,150.49
353,B1,93.0,1.0,52,150.49
354,B2,93.0,1.0,52,150.49
355,B3,94.0,0.188,60,150.49
356,B1,94.0,0.188,44,150.49
357,B2,94.0,0.188,44,150.49
358,B3,94.25,83/1000,40,150.49
359,A3,94.333,83/1000,40,150.49
360,G#3,94.419,83/1000,40,150.49
361,A3,94.5,1.0,64,150.49
362,A1,94.5,1.0,44,150.49
363,A2,94.5,1.0,44,150.49
364,A3,95.5,0.188,59,150.49
365,A1,95.5,0.188,44,150.49
366,A2,95.5,0.188,44,150.49
367,G#3,96.0,0.5,66,150.49
368,G#2,96.0,0.5,52,150.49
369,G#1,96.0,0.5,52,150.49
370,E5,97.25,0.25,54,150.49
371,D6,97.5,1.5,63,150.49
372,D6,99.0,0.25,63,150.49
373,G#3,99.0,1.5,40,150.49
374,C#6,99.25,0.25,53,150.49
375,B5,99.5,0.25,53,150.49
376,B3,99.5,0.5,30,150.49
377,A5,99.75,0.25,52,150.49
378,G#5,100.0,0.25,51,150.49
379,E4,100.0,0.5,26,150.49
380,F#5,100.25,0.25,51,150.49
381,E5,100.5,0.25,54,150.49
382,G#3,100.5,1.5,40,150.49
383,F#5,100.75,0.25,49,150.49
384,E5,101.0,0.25,50,150.49
385,B3,101.0,0.5,30,150.49
386,D5,101.25,0.25,49,150.49
387,C#5,101.5,0.25,48,150.49
388,E4,101.5,0.5,27,150.49
389,B4,101.75,0.25,47,150.49
390,C#5,102.0,0.25,47,150.49
391,A3,102.0,1.5,40,150.49
392,E5,102.25,0.25,47,150.49
393,F#5,102.5,0.25,48,150.49
394,C#4,102.5,0.5,33,150.49
395,G#5,102.75,0.25,50,150.49
396,A5,103.0,0.25,52,150.49
397,E4,103.0,0.5,36,150.49
398,B5,103.25,0.25,53,150.49
399,C#6,103.5,0.25,55,150.49
400,A3,103.5,1.5,40,150.49
401,D6,103.75,0.25,57,150.49
402,E6,104.0,0.25,61,150.49
403,C#4,104.0,0.5,33,150.49
404,C#6,104.25,0.25,57,150.49
405,B5,104.5,0.25,57,150.49
406,E4,104.5,0.5,33,150.49
407,A5,104.75,0.25,53,150.49
408,D6,105.0,0.25,62,150.49
409,G#3,105.0,1.5,40,150.49
410,C#6,105.25,0.25,60,150.49
411,B5,105.5,0.25,58,150.49
412,B3,105.5,0.5,34,150.49
413,A5,105.75,0.25,57,150.49
414,G#5,106.0,0.25,55,150.49
415,E4,106.0,0.5,31,150.49
416,F#5,106.25,0.25,53,150.49
417,E5,106.5,0.25,59,150.49
418,G#3,106.5,1.5,40,150.49
419,F#5,106.75,0.25,58,150.49
420,E5,107.0,0.25,56,150.49
421,B3,107.0,0.5,33,150.49
422,D5,107.25,0.25,55,150.49
423,C#5,107.5,0.25,53,150.49
424,E4,107.5,0.5,28,150.49
425,B4,107.75,0.25,52,150.49
426,C#5,108.0,0.25,48,150.49
427,A3,108.0,1.5,40,150.49
428,E5,108.25,0.25,50,150.49
429,F#5,108.5,0.25,51,150.49
430,C#4,108.5,0.5,34,150.49
431,G#5,108.75,0.25,52,150.49
432,A5,109.0,0.25,54,150.49
433,E4,109.0,0.5,37,150.49
434,B5,109.25,0.25,55,150.49
435,C#6,109.5,0.25,56,150.49
436,A3,109.5,1.5,40,150.49
437,D6,109.75,0.25,58,150.49
438,E6,110.0,0.25,60,150.49
439,C#4,110.0,0.5,34,150.49
440,C#6,110.25,0.25,52,150.49
441,B5,110.5,0.25,51,150.49
442,E4,110.5,0.5,34,150.49
443,A5,110.75,0.25,51,150.49
444,D6,111.0,0.25,63,150.49
445,G#3,111.0,1.5,40,150.49
446,C#6,111.25,0.25,59,150.49
447,B5,111.5,0.25,59,150.49
448,B3,111.5,0.5,33,150.49
449,A5,111.75,0.25,58,150.49
450,G#5,112.0,0.25,56,150.49
451,E4,112.0,0.5,30,150.49
452,F#5,112.25,0.25,54,150.49
453,E5,112.5,0.25,60,150.49
454,G#3,112.5,1.5,40,150.49
455,F#5,112.75,0.25,58,150.49
456,E5,113.0,0.25,56,150.49
457,B3,113.0,0.5,34,150.49
458,D5,113.25,0.25,55,150.49
459,C#5,113.5,0.25,54,150.49
460,E4,113.5,0.5,32,150.49
461,B4,113.75,0.25,52,150.49
462,C#5,114.0,0.25,56,150.49
463,A3,114.0,1.0,46,150.49
464,E5,114.25,0.25,50,150.49
465,F#5,114.5,0.25,52,150.49
466,G#5,114.75,0.25,53,150.49
467,A5,115.0,0.25,55,150.49
468,B5,115.25,0.25,57,150.49
469,C#6,115.5,0.25,62,150.49
470,C#3,115.5,1.0,42,150.49
471,A3,115.5,1.0,42,150.49
472,B5,115.75,0.25,57,150.49
473,A5,116.0,0.25,56,150.49
474,G#5,116.25,0.25,54,150.49
475,F#5,116.5,0.25,53,150.49
476,E5,116.75,0.25,52,150.49
477,F#5,117.0,0.25,60,150.49
478,A3,117.0,1.0,46,150.49
479,D3,117.0,1.0,46,150.49
480,E5,117.25,0.25,59,150.49
481,D5,117.5,0.25,57,150.49
482,C#5,117.75,0.25,56,150.49
483,B4,118.0,0.25,55,150.49
484,A4,118.25,0.25,53,150.49
485,D5,118.5,0.25,52,150.49
486,D4,118.5,0.25,45,150.49
487,C#5,118.75,0.25,54,150.49
488,C#4,118.75,0.25,42,150.49
489,B4,119.0,0.25,57,150.49
490,B3,119.0,0.25,43,150.49
491,A4,119.25,0.25,60,150.49
492,A3,119.25,0.25,46,150.49
493,G#4,119.5,0.25,64,150.49
494,G#3,119.5,0.25,48,150.49
495,F#4,119.75,0.25,67,150.49
496,F#3,119.75,0.25,51,150.49
497,E4,120.0,0.188,70,150.49
498,E3,120.0,0.188,54,150.49
499,E3,120.5,0.188,50,150.49
500,G#4,120.5,0.188,55,150.49
501,E5,120.5,0.188,55,150.49
502,B4,120.5,0.188,55,150.49
503,E3,121.0,0.188,50,150.49
504,B4,121.0,0.188,55,150.49
505,G#4,121.0,0.188,55,150.49
506,E5,121.0,0.188,55,150.49
507,E3,121.5,0.188,54,150.49
508,B4,121.5,0.188,60,150.49
509,E5,121.5,0.188,60,150.49
510,G#4,121.5,0.188,60,150.49
511,C#5,123.0,1.5,46,150.49
512,E4,123.0,1.5,46,150.49
513,D4,124.5,1.5,39,150.49
514,B4,124.5,0.5,47,150.49
515,C#5,125.0,0.5,44,150.49
516,B4,125.5,0.5,44,150.49
517,A3,126.0,1.5,41,150.49
518,C#4,126.0,3.0,46,150.49
519,A4,126.0,3.0,46,150.49
520,G#3,127.5,0.5,46,150.49
521,A3,128.0,0.5,44,150.49
522,G#3,128.5,0.5,44,150.49
523,F#3,129.0,2.5,51,150.49
524,C#4,130.0,1.0,46,150.49
525,A4,130.0,1.0,46,150.49
526,C#5,131.0,0.5,50,150.49
527,A4,131.5,1.5,42,150.49
528,D5,131.5,1.0,50,150.49
529,D3,131.5,0.5,36,150.49
530,E3,132.0,0.5,41,150.49
531,F#5,132.5,0.5,54,150.49
532,F#3,132.5,0.5,37,150.49
533,G#4,133.0,0.5,45,150.49
534,E5,133.0,1.0,53,150.49
535,G#3,133.0,0.5,37,150.49
536,A4,133.5,0.5,50,150.49
537,A3,133.5,0.5,42,150.49
538,B3,134.0,0.5,38,150.49
539,B4,134.0,0.5,46,150.49
540,D5,134.0,0.5,46,150.49
541,C#4,134.5,0.5,38,150.49
542,A4,134.5,1.0,50,150.49
543,C#5,134.5,1.0,50,150.49
544,D4,135.0,1.5,42,150.49
545,F#4,135.0,3.0,35,150.49
546,A4,135.0,3.0,35,150.49
547,B4,136.0,2.0,50,150.49
548,E-4,136.5,1.5,42,150.49
549,C#5,138.0,0.5,44,150.49
550,E4,138.0,1.5,38,150.49
551,G#4,138.0,1.5,38,150.49
552,B4,138.5,0.5,44,150.49
553,B4,139.0,2.0,50,150.49
554,E4,139.5,1.5,37,150.49
555,D4,139.5,1.5,37,150.49
556,G#4,139.5,1.5,37,150.49
557,C#5,141.0,0.5,45,150.49
558,E4,141.0,0.5,31,150.49
559,A4,141.0,0.5,31,150.49
560,C#4,141.0,0.5,31,150.49
561,D5,141.5,0.5,46,150.49
562,E5,142.0,0.5,52,150.49
563,A5,142.5,0.375,49,150.49
564,D4,142.5,1.0,35,150.49
565,G#5,143.0,0.375,48,150.49
566,F#5,143.5,0.375,49,150.49
567,A3,143.5,0.5,28,150.49
568,F#3,143.5,0.5,28,150.49
569,E5,144.0,0.375,48,150.49
570,A3,144.0,1.5,36,150.49
571,E3,144.0,2.0,30,150.49
572,D5,144.5,0.375,46,150.49
573,C#5,145.0,1.0,45,150.49
574,G#3,145.5,0.5,32,150.49
575,D5,146.0,0.25,42,150.49
576,C#5,146.25,0.25,43,150.49
577,B4,146.5,0.5,37,150.49
578,E4,148.0,1.5,46,150.49
579,C#5,148.0,1.5,46,150.49
580,B4,149.5,0.5,47,150.49
581,D4,149.5,1.5,39,150.49
582,C#5,150.0,0.5,44,150.49
583,F#3,150.0,1.5,41,150.49
584,B4,150.5,0.5,44,150.49
585,A4,151.0,3.0,50,150.49
586,C#4,151.0,1.5,42,150.49
587,E3,151.5,0.5,46,150.49
588,F#3,152.0,0.5,44,150.49
589,E3,152.5,0.5,44,150.49
590,G4,152.5,1.5,42,150.49
591,C#4,152.5,1.5,42,150.49
592,D3,153.0,1.0,51,150.49
593,A4,154.0,1.0,50,150.49
594,C#3,154.0,0.5,36,150.49
595,F#4,154.0,1.0,42,150.49
596,D4,154.0,1.0,42,150.49
597,B2,154.5,1.0,51,150.49
598,E4,155.0,0.5,50,150.49
599,B-4,155.0,0.5,50,150.49
600,A2,155.5,0.5,36,150.49
601,D4,155.5,1.0,45,150.49
602,F#4,155.5,1.0,45,150.49
603,B4,155.5,1.0,45,150.49
604,G#2,156.0,1.0,41,150.49
605,F#5,156.5,0.5,54,150.49
606,C#5,156.5,0.5,54,150.49
607,E2,157.0,0.5,37,150.49
608,E5,157.0,1.0,49,150.49
609,B4,157.0,1.0,49,150.49
610,A2,157.5,0.5,42,150.49
611,B2,158.0,0.5,38,150.49
612,D5,158.0,0.5,46,150.49
613,G#4,158.0,0.5,46,150.49
614,C#3,158.5,0.5,38,150.49
615,C#5,158.5,1.0,50,150.49
616,A4,158.5,1.0,50,150.49
617,D3,159.0,1.5,42,150.49
618,A3,159.0,3.0,35,150.49
619,F#3,159.0,3.0,35,150.49
620,B4,160.0,0.5,50,150.49
621,B5,160.5,0.25,55,150.49
622,E-3,160.5,1.5,42,150.49
623,B5,161.0,0.25,55,150.49
624,B5,161.5,0.25,59,150.49
625,B5,162.0,0.25,53,150.49
626,G#3,162.0,1.5,40,150.49
627,E3,162.0,1.5,40,150.49
628,D3,162.0,1.5,40,150.49
629,B5,162.5,0.25,53,150.49
630,B5,163.0,0.5,60,150.49
631,E5,163.5,0.25,53,150.49
632,G3,163.5,1.5,37,150.49
633,C#3,163.5,1.5,37,150.49
634,E3,163.5,1.5,37,150.49
635,E6,164.0,0.25,53,150.49
636,E6,164.5,0.25,62,150.49
637,A5,165.0,0.25,56,150.49
638,D3,165.0,0.25,38,150.49
639,F#3,165.0,0.25,38,150.49
640,A5,165.5,0.25,56,150.49
641,A5,166.0,0.25,57,150.49
642,E3,166.5,0.25,47,150.49
643,D5,166.5,0.25,49,150.49
644,F#5,166.5,0.25,49,150.49
645,E5,167.0,0.25,50,150.49
646,C#5,167.0,0.25,50,150.49
647,B4,167.5,0.25,52,150.49
648,D5,167.5,0.25,52,150.49
649,A3,168.0,0.25,60,150.49
650,A4,168.0,0.25,54,150.49
651,C#5,168.0,0.25,54,150.49
652,E4,168.25,0.25,44,150.49
653,C#4,168.5,0.25,44,150.49
654,B4,168.5,0.25,54,150.49
655,G#4,168.5,0.25,54,150.49
656,E4,168.75,0.25,44,150.49
657,A4,169.0,1.5,65,150.49
658,C#4,169.0,0.25,44,150.49
659,E4,169.25,0.25,44,150.49
660,A3,169.5,0.25,55,150.49
661,E4,169.75,0.25,48,150.49
662,C#4,170.0,0.25,45,150.49
663,E4,170.25,0.25,43,150.49
664,C#6,170.5,1.5,65,150.49
665,C#4,170.5,0.25,43,150.49
666,E4,170.75,0.25,43,150.49
667,B3,171.0,0.25,60,150.49
668,E4,171.25,0.25,44,150.49
669,D4,171.5,0.25,44,150.49
670,E4,171.75,0.25,44,150.49
671,D6,172.0,0.25,67,150.49
672,D4,172.0,0.25,44,150.49
673,C#6,172.25,0.25,65,150.49
674,E4,172.25,0.25,44,150.49
675,B5,172.5,0.25,64,150.49
676,G#3,172.5,0.25,55,150.49
677,A5,172.75,0.25,63,150.49
678,E4,172.75,0.25,42,150.49
679,G#5,173.0,0.25,61,150.49
680,B3,173.0,0.25,42,150.49
681,E4,173.25,0.25,42,150.49
682,B5,173.5,0.25,65,150.49
683,B3,173.5,0.25,42,150.49
684,A5,173.75,0.25,64,150.49
685,E4,173.75,0.25,42,150.49
686,G#5,174.0,0.25,62,150.49
687,A3,174.0,0.25,51,150.49
688,F#5,174.25,0.25,61,150.49
689,E4,174.25,0.25,39,150.49
690,E5,174.5,0.25,60,150.49
691,C#4,174.5,0.25,39,150.49
692,D5,174.75,0.25,58,150.49
693,E4,174.75,0.25,39,150.49
694,C#5,175.0,0.25,61,150.49
695,C#4,175.0,0.25,39,150.49
696,E4,175.25,0.25,39,150.49
697,E5,175.5,0.25,49,150.49
698,A3,175.5,0.25,50,150.49
699,E4,175.75,0.25,40,150.49
700,A5,176.0,0.25,52,150.49
701,C#4,176.0,0.25,40,150.49
702,E4,176.25,0.25,40,150.49
703,C#6,176.5,0.25,55,150.49
704,C#4,176.5,0.25,40,150.49
705,E4,176.75,0.25,40,150.49
706,E6,177.0,0.25,58,150.49
707,B3,177.0,0.25,60,150.49
708,E4,177.25,0.25,44,150.49
709,D4,177.5,0.25,44,150.49
710,E4,177.75,0.25,44,150.49
711,D6,178.0,0.25,67,150.49
712,D4,178.0,0.25,44,150.49
713,C#6,178.25,0.25,65,150.49
714,E4,178.25,0.25,44,150.49
715,B5,178.5,0.25,64,150.49
716,G#3,178.5,0.25,55,150.49
717,A5,178.75,0.25,63,150.49
718,E4,178.75,0.25,42,150.49
719,G#5,179.0,0.25,61,150.49
720,B3,179.0,0.25,42,150.49
721,E4,179.25,0.25,42,150.49
722,B5,179.5,0.25,65,150.49
723,B3,179.5,0.25,42,150.49
724,A5,179.75,0.25,64,150.49
725,E4,179.75,0.25,42,150.49
726,G#5,180.0,0.25,62,150.49
727,A3,180.0,0.25,51,150.49
728,F#5,180.25,0.25,61,150.49
729,E4,180.25,0.25,39,150.49
730,E5,180.5,0.25,60,150.49
731,C#4,180.5,0.25,39,150.49
732,D5,180.75,0.25,58,150.49
733,E4,180.75,0.25,39,150.49
734,C#5,181.0,0.25,61,150.49
735,C#4,181.0,0.25,39,150.49
736,E4,181.25,0.25,39,150.49
737,E5,181.5,0.25,49,150.49
738,A3,181.5,0.25,50,150.49
739,E4,181.75,0.25,40,150.49
740,A5,182.0,0.25,52,150.49
741,C#4,182.0,0.25,40,150.49
742,E4,182.25,0.25,40,150.49
743,C#6,182.5,0.25,55,150.49
744,C#4,182.5,0.25,40,150.49
745,E4,182.75,0.25,40,150.49
746,E6,183.0,0.25,58,150.49
747,D4,183.0,0.25,45,150.49
748,F5,184.5,0.5,45,150.49
749,D4,184.5,0.25,37,150.49
750,A4,184.5,0.25,37,150.49
751,F#5,185.0,0.5,45,150.49
752,A5,186.0,0.5,45,150.49
753,A4,186.0,0.25,37,150.49
754,C#4,186.0,0.25,37,150.49
755,F#5,186.5,0.5,45,150.49
756,E-5,187.5,0.5,45,150.49
757,A4,187.5,0.25,37,150.49
758,D4,187.5,0.25,37,150.49
759,E5,188.0,0.5,45,150.49
760,F#5,189.0,0.5,45,150.49
761,A4,189.0,0.25,37,150.49
762,E4,189.0,0.25,37,150.49
763,D5,189.5,0.5,45,150.49
764,C5,190.5,0.5,45,150.49
765,G#4,190.5,0.25,37,150.49
766,E4,190.5,0.25,37,150.49
767,C#5,191.0,0.5,45,150.49
768,D5,192.0,0.5,45,150.49
769,A3,192.0,0.25,60,150.49
770,E4,192.25,0.25,44,150.49
771,B4,192.5,0.5,45,150.49
772,C#4,192.5,0.25,44,150.49
773,E4,192.75,0.25,44,150.49
774,A4,193.0,1.5,65,150.49
775,C#4,193.0,0.25,44,150.49
776,E4,193.25,0.25,44,150.49
777,A3,193.5,0.25,55,150.49
778,E4,193.75,0.25,48,150.49
779,C#4,194.0,0.25,45,150.49
780,E4,194.25,0.25,43,150.49
781,C#6,194.5,1.5,65,150.49
782,C#4,194.5,0.25,43,150.49
783,E4,194.75,0.25,43,150.49
784,B3,195.0,0.25,60,150.49
785,E4,195.25,0.25,44,150.49
786,D4,195.5,0.25,44,150.49
787,E4,195.75,0.25,44,150.49
788,D6,196.0,0.25,67,150.49
789,D4,196.0,0.25,44,150.49
790,C#6,196.25,0.25,65,150.49
791,E4,196.25,0.25,44,150.49
792,B5,196.5,0.25,64,150.49
793,G#3,196.5,0.25,55,150.49
794,A5,196.75,0.25,63,150.49
795,E4,196.75,0.25,42,150.49
796,G#5,197.0,0.25,61,150.49
797,B3,197.0,0.25,42,150.49
798,E4,197.25,0.25,42,150.49
799,B5,197.5,0.25,65,150.49
800,B3,197.5,0.25,42,150.49
801,A5,197.75,0.25,64,150.49
802,E4,197.75,0.25,42,150.49
803,G#5,198.0,0.25,62,150.49
804,A3,198.0,0.25,51,150.49
805,F#5,198.25,0.25,61,150.49
806,E4,198.25,0.25,39,150.49
807,E5,198.5,0.25,60,150.49
808,C#4,198.5,0.25,39,150.49
809,D5,198.75,0.25,58,150.49
810,E4,198.75,0.25,39,150.49
811,C#5,199.0,0.25,61,150.49
812,C#4,199.0,0.25,39,150.49
813,E4,199.25,0.25,39,150.49
814,E5,199.5,0.25,49,150.49
815,A3,199.5,0.25,50,150.49
816,E4,199.75,0.25,40,150.49
817,A5,200.0,0.25,52,150.49
818,C#4,200.0,0.25,40,150.49
819,E4,200.25,0.25,40,150.49
820,C#6,200.5,0.25,55,150.49
821,C#4,200.5,0.25,40,150.49
822,E4,200.75,0.25,40,150.49
823,E6,201.0,0.25,58,150.49
824,B3,201.0,0.25,60,150.49
825,E4,201.25,0.25,44,150.49
826,D4,201.5,0.25,44,150.49
827,E4,201.75,0.25,44,150.49
828,D6,202.0,0.25,67,150.49
829,D4,202.0,0.25,44,150.49
830,C#6,202.25,0.25,65,150.49
831,E4,202.25,0.25,44,150.49
832,B5,202.5,0.25,64,150.49
833,G#3,202.5,0.25,55,150.49
834,A5,202.75,0.25,63,150.49
835,E4,202.75,0.25,42,150.49
836,G#5,203.0,0.25,61,150.49
837,B3,203.0,0.25,42,150.49
838,E4,203.25,0.25,42,150.49
839,B5,203.5,0.25,65,150.49
840,B3,203.5,0.25,42,150.49
841,A5,203.75,0.25,64,150.49
842,E4,203.75,0.25,42,150.49
843,G#5,204.0,0.25,62,150.49
844,A3,204.0,0.25,51,150.49
845,F#5,204.25,0.25,61,150.49
846,E4,204.25,0.25,39,150.49
847,E5,204.5,0.25,60,150.49
848,C#4,204.5,0.25,39,150.49
849,D5,204.75,0.25,58,150.49
850,E4,204.75,0.25,39,150.49
851,C#5,205.0,0.25,61,150.49
852,C#4,205.0,0.25,39,150.49
853,E4,205.25,0.25,39,150.49
854,E5,205.5,0.25,49,150.49
855,A3,205.5,0.25,50,150.49
856,E4,205.75,0.25,40,150.49
857,A5,206.0,0.25,52,150.49
858,C#4,206.0,0.25,40,150.49
859,E4,206.25,0.25,40,150.49
860,C#6,206.5,0.25,55,150.49
861,C#4,206.5,0.25,40,150.49
862,E4,206.75,0.25,40,150.49
863,E6,207.0,0.25,58,150.49
864,D4,207.0,0.25,45,150.49
865,F5,208.5,0.5,45,150.49
866,D4,208.5,0.25,37,150.49
867,A4,208.5,0.25,37,150.49
868,F#5,209.0,0.5,43,150.49
869,A5,210.0,0.5,45,150.49
870,C#4,210.0,0.25,37,150.49
871,A4,210.0,0.25,37,150.49
872,F#5,210.5,0.5,41,150.49
873,E-5,211.5,0.5,45,150.49
874,A4,211.5,0.25,37,150.49
875,D4,211.5,0.25,37,150.49
876,E5,212.0,0.5,44,150.49
877,F#5,213.0,0.5,45,150.49
878,A4,213.0,0.25,37,150.49
879,E4,213.0,0.25,37,150.49
880,D5,213.5,0.5,43,150.49
881,C5,214.5,0.5,45,150.49
882,G#4,214.5,0.25,37,150.49
883,E4,214.5,0.25,37,150.49
884,C#5,215.0,0.5,43,150.49
885,D5,216.0,0.5,45,150.49
886,D3,216.0,0.25,59,150.49
887,A3,216.0,0.25,59,150.49
888,B4,216.5,0.5,43,150.49
889,F5,217.5,0.25,64,150.49
890,F4,217.5,0.25,64,150.49
891,A3,217.5,0.25,52,150.49
892,D3,217.5,0.25,52,150.49
893,F#4,218.0,0.25,62,150.49
894,F#5,218.0,0.25,62,150.49
895,A5,219.0,0.25,64,150.49
896,A4,219.0,0.25,64,150.49
897,C#3,219.0,0.25,52,150.49
898,A3,219.0,0.25,52,150.49
899,F#4,219.5,0.25,62,150.49
900,F#5,219.5,0.25,62,150.49
901,E-5,220.5,0.25,64,150.49
902,E-4,220.5,0.25,64,150.49
903,D3,220.5,0.25,52,150.49
904,A3,220.5,0.25,52,150.49
905,E4,221.0,0.25,62,150.49
906,E5,221.0,0.25,62,150.49
907,F#4,222.0,0.25,64,150.49
908,F#5,222.0,0.25,64,150.49
909,A3,222.0,0.25,52,150.49
910,E3,222.0,0.25,52,150.49
911,D4,222.5,0.25,62,150.49
912,D5,222.5,0.25,62,150.49
913,C5,223.5,0.25,64,150.49
914,C4,223.5,0.25,64,150.49
915,E3,223.5,0.25,52,150.49
916,G#3,223.5,0.25,52,150.49
917,C#5,224.0,0.25,62,150.49
918,C#4,224.0,0.25,62,150.49
919,A2,225.0,0.25,67,150.49
920,D4,225.0,0.25,64,150.49
921,D5,225.0,0.25,64,150.49
922,A3,225.25,0.25,44,150.49
923,G#3,225.5,0.25,48,150.49
924,B4,225.5,0.25,62,150.49
925,B3,225.5,0.25,62,150.49
926,A3,225.75,0.25,44,150.49
927,G#3,226.0,0.25,48,150.49
928,A4,226.0,0.5,72,150.49
929,C#4,226.0,0.5,72,150.49
930,A3,226.25,0.25,44,150.49
931,F#2,226.5,0.25,62,150.49
932,F#3,226.75,0.25,43,150.49
933,F3,227.0,0.25,47,150.49
934,F#3,227.25,0.25,43,150.49
935,F3,227.5,0.25,47,150.49
936,C#5,227.5,1.5,68,150.49
937,A5,227.5,1.5,68,150.49
938,F#3,227.75,0.25,43,150.49
939,D2,228.0,0.25,67,150.49
940,D3,228.25,0.25,46,150.49
941,C#3,228.5,0.25,50,150.49
942,D3,228.75,0.25,46,150.49
943,C#3,229.0,0.25,51,150.49
944,D5,229.0,1.0,69,150.49
945,B5,229.0,1.0,69,150.49
946,D3,229.25,0.25,46,150.49
947,E2,229.5,0.25,55,150.49
948,E3,229.75,0.25,46,150.49
949,E-3,230.0,0.25,49,150.49
950,F#5,230.0,0.375,66,150.49
951,D6,230.0,0.375,66,150.49
952,E3,230.25,0.25,46,150.49
953,B4,230.375,0.125,65,150.49
954,A5,230.5,1.0,76,150.49
955,E-3,230.5,0.25,50,150.49
956,E3,230.75,0.25,46,150.49
957,A2,231.0,0.25,67,150.49
958,A3,231.25,0.25,44,150.49
959,G#5,231.5,83/1000,69,150.49
960,G#3,231.5,0.25,48,150.49
961,A5,231.583,83/1000,62,150.49
962,G#5,231.667,83/1000,63,150.49
963,F#5,231.75,0.125,70,150.49
964,A3,231.75,0.25,44,150.49
965,G#5,231.875,0.125,64,150.49
966,A5,232.0,0.5,72,150.49
967,G#3,232.0,0.25,48,150.49
968,A3,232.25,0.25,44,150.49
969,F#2,232.5,0.25,62,150.49
970,F#3,232.75,0.25,43,150.49
971,F3,233.0,0.25,47,150.49
972,F#3,233.25,0.25,43,150.49
973,F3,233.5,0.25,47,150.49
974,C#5,233.5,0.25,68,150.49
975,A5,233.5,0.25,68,150.49
976,F#3,233.75,0.25,43,150.49
977,D2,234.0,0.25,67,150.49
978,C#5,234.0,0.25,68,150.49
979,A5,234.0,0.25,68,150.49
980,D3,234.25,0.25,46,150.49
981,C#3,234.5,0.25,50,150.49
982,C#5,234.5,0.25,68,150.49
983,A5,234.5,0.25,68,150.49
984,D3,234.75,0.25,46,150.49
985,C#3,235.0,0.25,51,150.49
986,D5,235.0,1.0,69,150.49
987,B5,235.0,1.0,69,150.49
988,D3,235.25,0.25,46,150.49
989,E2,235.5,0.25,55,150.49
990,E3,235.75,0.25,46,150.49
991,E-3,236.0,0.25,49,150.49
992,F#5,236.0,0.375,66,150.49
993,D6,236.0,0.375,66,150.49
994,E3,236.25,0.25,46,150.49
995,B4,236.375,0.125,65,150.49
996,A5,236.5,1.0,76,150.49
997,E-3,236.5,0.25,50,150.49
998,E3,236.75,0.25,46,150.49
999,A2,237.0,0.25,67,150.49
1000,G#5,237.5,83/1000,69,150.49
1001,A5,237.583,83/1000,62,150.49
1002,G#5,237.667,83/1000,63,150.49
1003,F#5,237.75,0.125,70,150.49
1004,G#5,237.875,0.125,64,150.49
1005,A5,238.0,0.25,72,150.49
1006,C#5,238.5,0.5,45,150.49
1007,D5,239.0,0.5,39,150.49
1008,E5,239.5,0.5,45,150.49
1009,D4,239.5,0.5,34,150.49
1010,B3,239.5,0.5,34,150.49
1011,E3,239.5,0.5,34,150.49
1012,F#5,240.0,0.5,41,150.49
1013,A3,240.0,0.25,35,150.49
1014,C#4,240.0,0.25,35,150.49
1015,G#5,240.5,0.5,42,150.49
1016,A5,241.0,0.5,47,150.49
1017,C#5,241.5,0.5,40,150.49
1018,D5,242.0,0.5,37,150.49
1019,E5,242.5,0.5,45,150.49
1020,D4,242.5,0.5,34,150.49
1021,E3,242.5,0.5,34,150.49
1022,B3,242.5,0.5,34,150.49
1023,F#5,243.0,0.5,42,150.49
1024,A3,243.0,0.25,35,150.49
1025,C#4,243.0,0.25,35,150.49
1026,G#5,243.5,0.5,44,150.49
1027,C#3,243.5,0.5,39,150.49
1028,A5,244.0,0.5,45,150.49
1029,D3,244.0,0.5,40,150.49
1030,E3,244.5,0.5,42,150.49
1031,F#3,245.0,0.5,39,150.49
1032,G#3,245.5,0.5,43,150.49
1033,A3,246.0,0.5,46,150.49
1034,C#3,246.5,0.5,41,150.49
1035,B4,246.5,0.5,40,150.49
1036,E4,246.5,0.5,40,150.49
1037,D5,246.5,0.5,40,150.49
1038,D3,247.0,0.5,41,150.49
1039,C#5,247.0,0.25,40,150.49
1040,E4,247.0,0.25,40,150.49
1041,A4,247.0,0.25,40,150.49
1042,E3,247.5,0.5,45,150.49
1043,F#3,248.0,0.5,41,150.49
1044,G#3,248.5,0.5,45,150.49
1045,A3,249.0,0.25,40,150.49
1046,D5,249.5,0.25,40,150.49
1047,B4,249.5,0.25,40,150.49
1048,E4,249.5,0.25,40,150.49
1049,C5,250.5,0.5,43,150.49
1050,A3,250.5,0.25,38,150.49
1051,B3,250.5,0.25,38,150.49
1052,C#5,251.0,0.5,40,150.49
1053,C#5,252.0,0.5,46,150.49
1054,A3,252.0,0.25,45,150.49
1055,C#4,252.0,0.25,45,150.49
1056,D5,252.5,0.5,45,150.49
1057,E-5,253.5,0.5,65,150.49
1058,D4,253.5,0.25,48,150.49
1059,A3,253.5,0.25,48,150.49
1060,E5,254.0,0.5,61,150.49
1061,F5,255.0,0.5,74,150.49
1062,A3,255.0,0.25,55,150.49
1063,E4,255.0,0.25,55,150.49
1064,F#5,255.5,0.5,70,150.49
1065,F#5,256.5,0.5,77,150.49
1066,G5,257.0,0.5,75,150.49
1067,A4,260.25,0.25,42,150.49
1068,A5,260.5,1.0,47,150.49
1069,F#4,261.0,1.5,30,150.49
1070,D4,261.0,1.5,30,150.49
1071,F#5,261.5,0.375,44,150.49
1072,E5,261.875,0.125,44,150.49
1073,D5,262.0,0.188,49,150.49
1074,C#5,262.5,0.188,44,150.49
1075,B3,262.5,1.5,30,150.49
1076,G#4,262.5,1.5,30,150.49
1077,D5,263.0,0.188,44,150.49
1078,E5,263.375,0.125,43,150.49
1079,D5,263.5,0.188,47,150.49
1080,C#5,264.0,0.188,43,150.49
1081,A4,264.0,1.5,30,150.49
1082,A3,264.0,1.5,30,150.49
1083,D5,264.5,0.188,42,150.49
1084,D5,265.0,1.0,45,150.49
1085,F#5,265.0,1.0,45,150.49
1086,C#5,266.0,0.25,38,150.49
1087,E5,266.0,0.25,38,150.49
1088,G4,266.25,0.25,42,150.49
1089,G5,266.5,1.0,47,150.49
1090,E4,267.0,1.5,30,150.49
1091,A3,267.0,1.5,30,150.49
1092,E5,267.5,0.375,44,150.49
1093,D5,267.875,0.125,44,150.49
1094,C#5,268.0,0.188,49,150.49
1095,B4,268.5,0.188,44,150.49
1096,E4,268.5,1.5,30,150.49
1097,C#4,268.5,1.5,30,150.49
1098,C#5,269.0,0.188,44,150.49
1099,A4,269.5,0.188,47,150.49
1100,E5,270.0,0.188,43,150.49
1101,A4,270.0,1.5,30,150.49
1102,D4,270.0,1.5,30,150.49
1103,A5,270.5,0.188,42,150.49
1104,E5,271.0,1.0,45,150.49
1105,G5,271.0,1.0,45,150.49
1106,D3,271.5,0.5,51,150.49
1107,D4,272.0,0.25,45,150.49
1108,D5,272.0,0.375,38,150.49
1109,F#5,272.0,0.375,38,150.49
1110,D5,272.375,0.125,48,150.49
1111,F#5,272.5,1.0,52,150.49
1112,E4,272.5,0.25,48,150.49
1113,F#4,273.0,0.5,52,150.49
1114,G5,273.5,0.5,48,150.49
1115,B5,274.0,0.25,59,150.49
1116,A5,274.25,0.25,57,150.49
1117,G5,274.5,0.25,55,150.49
1118,D3,274.5,0.5,50,150.49
1119,F#5,274.75,0.25,53,150.49
1120,E5,275.0,0.25,51,150.49
1121,D4,275.0,0.25,44,150.49
1122,D5,275.25,119/1000,47,150.49
1123,D5,275.375,0.125,46,150.49
1124,F#5,275.5,1.0,58,150.49
1125,E4,275.5,0.25,48,150.49
1126,F#4,276.0,0.5,53,150.49
1127,G5,276.5,0.5,49,150.49
1128,B5,277.0,0.25,59,150.49
1129,A5,277.25,0.25,57,150.49
1130,G5,277.5,0.25,55,150.49
1131,G3,277.5,0.5,50,150.49
1132,F#5,277.75,0.25,53,150.49
1133,E5,278.0,0.25,51,150.49
1134,G4,278.0,0.25,44,150.49
1135,D5,278.25,13/125,51,150.49
1136,D5,278.375,0.125,46,150.49
1137,B5,278.5,1.0,58,150.49
1138,E4,278.5,0.25,48,150.49
1139,F#4,279.0,0.5,49,150.49
1140,F#3,279.0,0.5,49,150.49
1141,C#6,279.5,0.5,49,150.49
1142,D6,280.0,0.25,59,150.49
1143,C#6,280.25,0.25,57,150.49
1144,B5,280.5,0.25,55,150.49
1145,G4,280.5,0.5,49,150.49
1146,G3,280.5,0.5,49,150.49
1147,A5,280.75,0.25,53,150.49
1148,G5,281.0,0.25,51,150.49
1149,F#5,281.25,0.25,51,150.49
1150,B5,281.5,0.25,59,150.49
1151,A5,281.75,0.25,58,150.49
1152,G5,282.0,0.25,56,150.49
1153,A4,282.0,0.5,49,150.49
1154,A3,282.0,0.5,49,150.49
1155,F#5,282.25,0.25,55,150.49
1156,E5,282.5,0.25,58,150.49
1157,D5,282.75,0.25,62,150.49
1158,E5,283.0,0.5,53,150.49
1159,A5,283.0,0.5,53,150.49
1160,C#5,283.0,0.5,53,150.49
1161,A4,284.25,0.25,42,150.49
1162,A5,284.5,1.0,47,150.49
1163,F#4,285.0,1.5,30,150.49
1164,D4,285.0,1.5,30,150.49
1165,F#5,285.5,0.375,44,150.49
1166,E5,285.875,0.125,44,150.49
1167,D5,286.0,0.188,49,150.49
1168,C#5,286.5,0.188,44,150.49
1169,B3,286.5,1.5,30,150.49
1170,G#4,286.5,1.5,30,150.49
1171,D5,287.0,0.188,44,150.49
1172,E5,287.375,0.125,43,150.49
1173,D5,287.5,0.188,47,150.49
1174,C#5,288.0,0.188,43,150.49
1175,A4,288.0,1.5,30,150.49
1176,A3,288.0,1.5,30,150.49
1177,D5,288.5,0.188,42,150.49
1178,F#5,289.0,1.0,45,150.49
1179,D5,289.0,1.0,45,150.49
1180,C#5,290.0,0.25,38,150.49
1181,E5,290.0,0.25,38,150.49
1182,G4,290.25,0.25,42,150.49
1183,G5,290.5,1.0,47,150.49
1184,E4,291.0,1.5,30,150.49
1185,A3,291.0,1.5,30,150.49
1186,E5,291.5,0.375,44,150.49
1187,D5,291.875,0.125,44,150.49
1188,C#5,292.0,0.188,49,150.49
1189,B4,292.5,0.188,44,150.49
1190,C#4,292.5,1.5,30,150.49
1191,E4,292.5,1.5,30,150.49
1192,C#5,293.0,0.188,44,150.49
1193,A4,293.5,0.188,47,150.49
1194,E5,294.0,0.188,43,150.49
1195,D4,294.0,1.5,30,150.49
1196,A4,294.0,1.5,30,150.49
1197,A5,294.5,0.188,42,150.49
1198,E5,295.0,1.0,45,150.49
1199,G5,295.0,1.0,45,150.49
1200,D3,295.5,0.5,51,150.49
1201,D4,296.0,0.25,45,150.49
1202,D5,296.0,0.375,38,150.49
1203,F#5,296.0,0.375,38,150.49
1204,D5,296.375,0.125,48,150.49
1205,F#5,296.5,1.0,52,150.49
1206,E4,296.5,0.25,48,150.49
1207,F#4,297.0,0.5,52,150.49
1208,G5,297.5,0.5,48,150.49
1209,B5,298.0,0.25,59,150.49
1210,A5,298.25,0.25,57,150.49
1211,G5,298.5,0.25,55,150.49
1212,G2,298.5,0.5,50,150.49
1213,F#5,298.75,0.25,53,150.49
1214,E5,299.0,0.25,51,150.49
1215,G3,299.0,0.25,44,150.49
1216,D5,299.25,117/1000,47,150.49
1217,D5,299.396,0.125,46,150.49
1218,B5,299.5,1.0,58,150.49
1219,B3,299.5,0.25,48,150.49
1220,B3,300.0,0.5,53,150.49
1221,C#6,300.5,0.5,49,150.49
1222,E6,301.0,0.25,59,150.49
1223,D6,301.25,0.25,57,150.49
1224,C#6,301.5,0.25,55,150.49
1225,B3,301.5,0.25,48,150.49
1226,E4,301.5,0.25,48,150.49
1227,G3,301.5,0.25,48,150.49
1228,B5,301.75,0.25,53,150.49
1229,A5,302.0,0.25,51,150.49
1230,G5,302.25,0.25,51,150.49
1231,C#6,302.5,0.25,59,150.49
1232,B5,302.75,0.25,58,150.49
1233,A5,303.0,0.25,56,150.49
1234,A3,303.0,0.25,48,150.49
1235,D4,303.0,0.25,48,150.49
1236,F#4,303.0,0.25,48,150.49
1237,G5,303.25,0.25,55,150.49
1238,F#5,303.5,0.25,54,150.49
1239,E5,303.75,0.25,52,150.49
1240,B5,304.0,0.25,63,150.49
1241,A5,304.25,0.25,61,150.49
1242,G5,304.5,0.25,59,150.49
1243,E4,304.5,0.25,48,150.49
1244,A3,304.5,0.25,48,150.49
1245,G4,304.5,0.25,48,150.49
1246,F#5,304.75,0.25,57,150.49
1247,E5,305.0,0.25,56,150.49
1248,D5,305.25,0.25,54,150.49
1249,A5,305.5,0.25,59,150.49
1250,G5,305.75,0.25,61,150.49
1251,F#5,306.0,0.25,60,150.49
1252,F#4,306.0,0.25,49,150.49
1253,D4,306.0,0.25,49,150.49
1254,E5,306.25,0.25,59,150.49
1255,D5,306.5,0.25,58,150.49
1256,C#5,306.75,0.25,61,150.49
1257,D5,307.0,0.25,63,150.49
1258,F#2,307.0,0.25,45,150.49
1259,A2,307.25,0.25,45,150.49
1260,D3,307.5,0.25,52,150.49
1261,F#4,308.0,0.25,66,150.49
1262,A4,308.25,0.25,66,150.49
1263,D5,308.5,0.25,73,150.49
1264,A2,308.5,0.25,48,150.49
1265,D3,308.75,0.25,48,150.49
1266,F#3,309.0,0.25,57,150.49
1267,A4,309.5,0.25,70,150.49
1268,D5,309.75,0.25,70,150.49
1269,F#5,310.0,0.25,75,150.49
1270,D3,310.0,0.25,51,150.49
1271,F#3,310.25,0.25,51,150.49
1272,A3,310.5,0.25,57,150.49
1273,D5,311.0,0.25,69,150.49
1274,F#5,311.25,0.25,69,150.49
1275,A5,311.5,0.25,81,150.49
1276,F#3,311.5,0.25,44,150.49
1277,A3,311.75,0.25,44,150.49
1278,C4,312.0,0.25,53,150.49
1279,F#5,312.5,0.25,56,150.49
1280,A5,312.75,0.25,56,150.49
1281,C6,313.0,0.25,65,150.49
1282,D3,315.0,3.0,29,150.49
1283,B3,315.0,1.5,32,150.49
1284,G3,315.0,1.5,32,150.49
1285,D5,316.0,1.25,45,150.49
1286,A3,316.5,1.5,30,150.49
1287,C4,316.5,1.5,30,150.49
1288,E5,317.25,0.25,42,150.49
1289,G4,317.5,1.0,47,150.49
1290,D3,318.0,0.5,29,150.49
1291,G3,318.0,0.5,32,150.49
1292,B3,318.0,0.5,32,150.49
1293,F#4,318.558,221/500,47,150.49
1294,G4,319.0,0.375,55,150.49
1295,F#4,319.0,29/500,47,150.49
1296,G5,319.5,0.25,54,150.49
1297,F#5,320.0,0.25,52,150.49
1298,E5,320.5,0.25,50,150.49
1299,D5,321.0,0.25,49,150.49
1300,D3,321.0,3.0,29,150.49
1301,B3,321.0,1.5,32,150.49
1302,G3,321.0,1.5,32,150.49
1303,C#5,321.5,0.25,47,150.49
1304,D5,322.0,0.625,45,150.49
1305,A3,322.5,1.5,30,150.49
1306,C4,322.5,1.5,30,150.49
1307,E5,322.625,0.125,35,150.49
1308,D5,322.75,0.125,35,150.49
1309,C#5,322.875,0.125,35,150.49
1310,D5,323.0,0.25,45,150.49
1311,E5,323.25,0.25,42,150.49
1312,G4,323.5,1.0,47,150.49
1313,D3,324.0,0.5,29,150.49
1314,G3,324.0,0.5,32,150.49
1315,B3,324.0,0.5,32,150.49
1316,F#4,324.558,221/500,47,150.49
1317,G4,325.0,0.375,55,150.49
1318,F#4,325.0,29/500,47,150.49
1319,G5,325.5,0.25,54,150.49
1320,F#5,326.0,0.25,52,150.49
1321,E5,326.5,0.25,50,150.49
1322,D5,327.0,0.25,49,150.49
1323,D3,327.0,3.0,29,150.49
1324,B3,327.0,1.5,32,150.49
1325,G3,327.0,1.5,32,150.49
1326,C#5,327.5,0.25,47,150.49
1327,D5,328.0,0.625,45,150.49
1328,C4,328.5,1.5,30,150.49
1329,A3,328.5,1.5,30,150.49
1330,E5,328.625,0.125,35,150.49
1331,D5,328.75,0.125,35,150.49
1332,C#5,328.875,0.125,35,150.49
1333,D5,329.0,0.25,45,150.49
1334,E5,329.25,0.25,42,150.49
1335,G4,329.5,1.0,47,150.49
1336,G3,330.0,0.5,28,150.49
1337,B3,330.0,0.5,28,150.49
1338,F#4,330.5,0.5,47,150.49
1339,G4,331.0,0.5,52,150.49
1340,E3,331.5,1.5,35,150.49
1341,E4,332.5,1.5,31,150.49
1342,B3,332.5,1.5,31,150.49
1343,G4,332.5,1.5,31,150.49
1344,C3,333.0,1.5,37,150.49
1345,E4,334.0,1.5,34,150.49
1346,A4,334.0,1.5,34,150.49
1347,G4,334.0,1.5,34,150.49
1348,D3,334.5,1.5,39,150.49
1349,F#4,335.5,1.5,35,150.49
1350,A4,335.5,1.5,35,150.49
1351,D5,335.5,1.5,35,150.49
1352,G2,336.0,0.5,35,150.49
1353,D4,337.0,0.5,31,150.49
1354,B4,337.0,0.5,31,150.49
1355,G4,337.0,0.5,31,150.49
1356,C2,337.5,1.5,48,150.49
1357,C3,337.5,1.5,48,150.49
1358,E4,338.5,1.5,46,150.49
1359,G3,338.5,1.5,46,150.49
1360,C4,338.5,1.5,46,150.49
1361,A1,339.0,1.5,50,150.49
1362,A2,339.0,1.5,50,150.49
1363,F#4,340.0,1.5,51,150.49
1364,C4,340.0,1.5,51,150.49
1365,E4,340.0,1.5,51,150.49
1366,B2,340.5,1.5,54,150.49
1367,B1,340.5,1.5,54,150.49
1368,F#4,341.5,1.5,52,150.49
1369,E-4,341.5,1.5,52,150.49
1370,B4,341.5,1.5,52,150.49
1371,E2,342.0,0.5,52,150.49
1372,E4,343.0,0.5,46,150.49
1373,G4,343.0,0.5,46,150.49
1374,B3,343.0,0.5,46,150.49
1375,B2,343.5,1.5,35,150.49
1376,B3,344.5,1.5,31,150.49
1377,F#3,344.5,1.5,31,150.49
1378,D4,344.5,1.5,31,150.49
1379,G2,345.0,1.5,37,150.49
1380,E4,346.0,1.5,34,150.49
1381,B3,346.0,1.5,34,150.49
1382,D4,346.0,1.5,34,150.49
1383,A2,346.5,1.5,39,150.49
1384,C#4,347.5,1.5,35,150.49
1385,E4,347.5,1.5,35,150.49
1386,A4,347.5,1.5,35,150.49
1387,D2,348.0,0.5,35,150.49
1388,F#4,349.0,0.5,31,150.49
1389,A3,349.0,0.5,31,150.49
1390,D4,349.0,0.5,31,150.49
1391,B-3,349.5,1.5,48,150.49
1392,B-2,349.5,1.5,48,150.49
1393,C#5,350.5,1.5,46,150.49
1394,E4,350.5,1.5,46,150.49
1395,G4,350.5,1.5,46,150.49
1396,B2,351.0,1.5,50,150.49
1397,B3,351.0,1.5,50,150.49
1398,D4,352.0,1.5,51,150.49
1399,D5,352.0,1.5,51,150.49
1400,F#4,352.0,1.5,51,150.49
1401,G3,352.5,1.5,54,150.49
1402,G2,352.5,1.5,54,150.49
1403,F5,353.5,1.5,56,150.49
1404,B4,353.5,1.5,56,150.49
1405,F#3,354.0,0.25,50,150.49
1406,F#2,354.0,0.25,50,150.49
1407,G3,354.5,0.25,52,150.49
1408,F#3,355.0,0.25,52,150.49
1409,B-4,355.0,0.5,48,150.49
1410,F#5,355.0,0.5,48,150.49
1411,C#5,355.0,0.5,48,150.49
1412,E3,355.5,0.25,52,150.49
1413,D3,356.0,0.25,52,150.49
1414,C#3,356.5,0.25,52,150.49
1415,B2,357.0,0.5,52,150.49
1416,F#5,358.5,0.25,52,150.49
1417,B4,358.5,0.25,40,150.49
1418,D5,358.75,0.25,30,150.49
1419,F#5,359.0,0.25,48,150.49
1420,B4,359.0,0.25,33,150.49
1421,D5,359.25,0.25,30,150.49
1422,G5,359.5,0.125,44,150.49
1423,B4,359.5,0.25,33,150.49
1424,A5,359.625,0.125,44,150.49
1425,G5,359.75,0.25,53,150.49
1426,D5,359.75,0.25,30,150.49
1427,F#5,360.0,0.25,49,150.49
1428,B-4,360.0,0.25,40,150.49
1429,C#5,360.25,0.25,30,150.49
1430,F#5,360.5,0.25,46,150.49
1431,B-4,360.5,0.25,33,150.49
1432,C#5,360.75,0.25,30,150.49
1433,G5,361.0,0.125,48,150.49
1434,B-4,361.0,0.25,33,150.49
1435,A5,361.125,0.125,48,150.49
1436,G5,361.25,0.25,52,150.49
1437,C#5,361.25,0.25,31,150.49
1438,F#5,361.5,0.25,52,150.49
1439,A4,361.5,0.25,40,150.49
1440,C#5,361.75,0.25,29,150.49
1441,F#5,362.0,0.25,48,150.49
1442,A4,362.0,0.25,32,150.49
1443,C#5,362.25,0.25,30,150.49
1444,F#5,362.5,1.0,52,150.49
1445,A4,362.5,0.25,32,150.49
1446,C#5,362.75,0.25,30,150.49
1447,G#4,363.0,0.25,40,150.49
1448,B4,363.25,0.25,31,150.49
1449,G5,363.5,0.25,46,150.49
1450,G#4,363.5,0.25,33,150.49
1451,A5,363.75,0.25,49,150.49
1452,B4,363.75,0.25,29,150.49
1453,B5,364.0,0.5,52,150.49
1454,G#4,364.0,0.25,33,150.49
1455,B4,364.25,0.25,31,150.49
1456,E5,364.5,0.25,48,150.49
1457,G4,364.5,0.25,40,150.49
1458,B4,364.75,0.25,31,150.49
1459,E5,365.0,0.25,48,150.49
1460,G4,365.0,0.25,34,150.49
1461,B4,365.25,0.25,31,150.49
1462,F#5,365.5,0.125,48,150.49
1463,G4,365.5,0.25,34,150.49
1464,G5,365.625,0.125,48,150.49
1465,F#5,365.75,0.25,52,150.49
1466,B4,365.75,0.25,30,150.49
1467,E5,366.0,0.25,52,150.49
1468,F#4,366.0,0.25,45,150.49
1469,B4,366.25,0.25,32,150.49
1470,E5,366.5,0.25,48,150.49
1471,F#4,366.5,0.25,35,150.49
1472,B4,366.75,0.25,32,150.49
1473,E5,367.0,0.125,48,150.49
1474,F#4,367.0,0.25,35,150.49
1475,F#5,367.125,0.125,48,150.49
1476,E5,367.25,0.25,56,150.49
1477,B4,367.25,0.25,33,150.49
1478,D5,367.5,0.25,48,150.49
1479,F#4,367.5,0.25,46,150.49
1480,A4,367.75,0.25,33,150.49
1481,D5,368.0,0.25,52,150.49
1482,F#4,368.0,0.25,35,150.49
1483,A4,368.25,0.25,33,150.49
1484,D5,368.5,1.0,52,150.49
1485,F#4,368.5,0.25,35,150.49
1486,A4,368.75,0.25,32,150.49
1487,E4,369.0,0.25,40,150.49
1488,G4,369.25,0.25,33,150.49
1489,E5,369.5,0.25,47,150.49
1490,E4,369.5,0.25,35,150.49
1491,F#5,369.75,0.25,50,150.49
1492,G4,369.75,0.25,33,150.49
1493,G5,370.0,0.5,53,150.49
1494,E4,370.0,0.25,35,150.49
1495,G4,370.25,0.25,33,150.49
1496,C5,370.5,0.25,50,150.49
1497,E4,370.5,0.25,40,150.49
1498,G4,370.75,0.25,32,150.49
1499,C5,371.0,0.25,50,150.49
1500,E4,371.0,0.25,35,150.49
1501,G4,371.25,0.25,32,150.49
1502,D5,371.5,83/1000,53,150.49
1503,E4,371.5,0.25,35,150.49
1504,C5,371.583,83/1000,43,150.49
1505,B4,371.667,83/1000,43,150.49
1506,C5,371.75,0.75,49,150.49
1507,G4,371.75,0.25,33,150.49
1508,D4,372.0,0.25,40,150.49
1509,F#4,372.25,0.25,33,150.49
1510,G5,372.5,0.5,53,150.49
1511,D4,372.5,0.25,35,150.49
1512,F#4,372.75,0.25,33,150.49
1513,F#5,373.0,0.5,53,150.49
1514,D4,373.0,0.25,35,150.49
1515,F#4,373.25,0.25,33,150.49
1516,B4,373.5,0.25,50,150.49
1517,D4,373.5,0.25,35,150.49
1518,F#4,373.75,0.25,29,150.49
1519,B4,374.0,0.25,50,150.49
1520,D4,374.0,0.25,29,150.49
1521,F#4,374.25,0.25,27,150.49
1522,C#5,374.5,83/1000,49,150.49
1523,D4,374.5,0.25,29,150.49
1524,B4,374.583,83/1000,34,150.49
1525,B-4,374.667,83/1000,34,150.49
1526,B4,374.75,0.75,40,150.49
1527,F#4,374.75,0.25,28,150.49
1528,B-3,375.0,0.25,39,150.49
1529,F#4,375.25,0.25,30,150.49
1530,F#5,375.5,0.5,46,150.49
1531,B-3,375.5,0.25,35,150.49
1532,F#4,375.75,0.25,29,150.49
1533,F#5,376.0,0.5,50,150.49
1534,B-3,376.0,0.25,36,150.49
1535,F#4,376.25,0.25,33,150.49
1536,E5,376.5,0.5,46,150.49
1537,B3,376.5,0.25,40,150.49
1538,F#4,376.75,0.25,33,150.49
1539,C#5,377.0,0.25,46,150.49
1540,B3,377.0,0.25,35,150.49
1541,F#4,377.25,0.25,33,150.49
1542,E5,377.5,0.5,53,150.49
1543,B3,377.5,0.25,35,150.49
1544,F#4,377.75,0.25,33,150.49
1545,D5,378.0,0.5,47,150.49
1546,F#3,378.0,0.5,33,150.49
1547,B4,378.5,0.25,46,150.49
1548,B-4,379.0,11/40,53,150.49
1549,B4,379.25,11/40,48,150.49
1550,C#5,379.5,11/40,54,150.49
1551,F#3,379.5,11/40,44,150.49
1552,D5,379.75,11/40,50,150.49
1553,G3,379.75,11/40,46,150.49
1554,C#5,380.0,11/40,54,150.49
1555,F#3,380.0,11/40,47,150.49
1556,D5,380.25,11/40,47,150.49
1557,E3,380.25,11/40,49,150.49
1558,C#5,380.5,0.5,52,150.49
1559,D3,380.5,11/40,51,150.49
1560,C#3,380.75,0.25,52,150.49
1561,B2,381.0,0.5,58,150.49
1562,C#3,381.0,1/40,52,150.49
1563,F#4,381.5,0.25,52,150.49
1564,D5,382.0,0.25,56,150.49
1565,F#4,382.0,0.25,48,150.49
1566,B5,382.25,0.25,48,150.49
1567,D5,382.5,0.25,48,150.49
1568,G4,382.5,0.125,44,150.49
1569,A4,382.625,0.125,44,150.49
1570,B5,382.75,0.25,48,150.49
1571,G4,382.75,0.25,53,150.49
1572,D5,383.0,0.25,56,150.49
1573,F#4,383.0,0.25,49,150.49
1574,B5,383.25,0.25,47,150.49
1575,D5,383.5,0.25,47,150.49
1576,F#4,383.5,0.25,46,150.49
1577,B5,383.75,0.25,46,150.49
1578,D5,384.0,0.25,56,150.49
1579,G4,384.0,0.125,48,150.49
1580,A4,384.125,0.125,48,150.49
1581,B5,384.25,0.25,47,150.49
1582,G4,384.25,0.25,52,150.49
1583,D5,384.5,0.25,47,150.49
1584,F#4,384.5,0.25,52,150.49
1585,B5,384.75,0.25,47,150.49
1586,C#5,385.0,0.25,56,150.49
1587,F#4,385.0,0.25,48,150.49
1588,B5,385.25,0.25,48,150.49
1589,C#5,385.5,0.25,48,150.49
1590,F#4,385.5,1.0,52,150.49
1591,B5,385.75,0.25,48,150.49
1592,C#5,386.0,0.25,56,150.49
1593,B5,386.25,0.25,47,150.49
1594,C#5,386.5,0.25,47,150.49
1595,G4,386.5,0.25,46,150.49
1596,A5,386.75,0.25,46,150.49
1597,A4,386.75,0.25,49,150.49
1598,C#5,387.0,0.25,56,150.49
1599,B4,387.0,0.5,52,150.49
1600,A5,387.25,0.25,47,150.49
1601,C#5,387.5,0.25,47,150.49
1602,E4,387.5,0.25,48,150.49
1603,A5,387.75,0.25,47,150.49
1604,E-5,388.0,0.25,56,150.49
1605,E4,388.0,0.25,48,150.49
1606,A5,388.25,0.25,48,150.49
1607,E5,388.5,0.25,48,150.49
1608,F#4,388.5,0.125,48,150.49
1609,G4,388.625,0.125,48,150.49
1610,G5,388.75,0.25,48,150.49
1611,F#4,388.75,0.25,52,150.49
1612,E5,389.0,0.25,56,150.49
1613,E4,389.0,0.25,52,150.49
1614,G5,389.25,0.25,47,150.49
1615,B4,389.5,0.25,47,150.49
1616,E4,389.5,0.25,48,150.49
1617,G5,389.75,0.25,46,150.49
1618,B4,390.0,0.25,56,150.49
1619,E4,390.0,0.125,48,150.49
1620,F#4,390.125,0.125,48,150.49
1621,G5,390.25,0.25,47,150.49
1622,E4,390.25,0.25,56,150.49
1623,C#5,390.5,0.25,47,150.49
1624,D4,390.5,0.25,48,150.49
1625,G5,390.75,0.25,47,150.49
1626,A4,391.0,0.25,56,150.49
1627,D4,391.0,0.25,52,150.49
1628,G5,391.25,0.25,48,150.49
1629,A4,391.5,0.25,48,150.49
1630,D4,391.5,1.0,52,150.49
1631,G5,391.75,0.25,48,150.49
1632,A4,392.0,0.25,56,150.49
1633,G5,392.25,0.25,47,150.49
1634,A4,392.5,0.25,47,150.49
1635,E4,392.5,0.25,47,150.49
1636,F#5,392.75,0.25,46,150.49
1637,F#4,392.75,0.25,50,150.49
1638,A4,393.0,0.25,56,150.49
1639,G4,393.0,0.5,53,150.49
1640,F#5,393.25,0.25,47,150.49
1641,A4,393.5,0.25,47,150.49
1642,G3,393.5,0.25,50,150.49
1643,F#5,393.75,0.25,47,150.49
1644,B4,394.0,0.25,56,150.49
1645,G3,394.0,0.25,50,150.49
1646,F#5,394.25,0.25,48,150.49
1647,B4,394.5,0.25,48,150.49
1648,G3,394.5,1.0,49,150.49
1649,E5,394.75,0.25,48,150.49
1650,B4,395.0,0.25,56,150.49
1651,E-5,395.25,0.25,47,150.49
1652,E5,395.5,0.25,47,150.49
1653,A3,395.5,0.25,47,150.49
1654,B5,395.75,0.25,46,150.49
1655,B3,395.75,0.25,50,150.49
1656,E5,396.0,0.25,56,150.49
1657,C#4,396.0,0.5,53,150.49
1658,A5,396.25,0.25,47,150.49
1659,E5,396.5,0.25,47,150.49
1660,F#3,396.5,0.25,47,150.49
1661,G#5,396.75,0.25,47,150.49
1662,E5,397.0,0.25,56,150.49
1663,F#3,397.0,0.25,47,150.49
1664,A5,397.25,0.25,48,150.49
1665,D5,397.5,0.25,48,150.49
1666,F#3,397.5,1.0,49,150.49
1667,A5,397.75,0.25,48,150.49
1668,C#5,398.0,0.25,56,150.49
1669,A5,398.25,0.25,47,150.49
1670,G5,398.5,0.25,47,150.49
1671,G#3,398.5,0.25,47,150.49
1672,B-5,398.75,0.25,46,150.49
1673,B-3,398.75,0.25,50,150.49
1674,F#5,399.0,0.25,56,150.49
1675,B3,399.0,0.5,58,150.49
1676,B5,399.25,0.25,47,150.49
1677,E5,399.5,0.25,47,150.49
1678,F#3,399.5,0.5,49,150.49
1679,C#6,399.75,0.25,47,150.49
1680,D5,400.0,0.25,56,150.49
1681,G3,400.0,0.25,49,150.49
1682,C#6,400.25,0.25,48,150.49
1683,D5,400.5,0.25,48,150.49
1684,E3,400.5,0.25,53,150.49
1685,C#6,400.75,0.25,48,150.49
1686,D5,401.0,0.25,56,150.49
1687,C#3,401.0,0.25,49,150.49
1688,B5,401.25,0.25,47,150.49
1689,C#5,401.5,0.25,47,150.49
1690,F#4,401.5,0.25,49,150.49
1691,B5,401.75,0.25,46,150.49
1692,C#5,402.0,0.25,56,150.49
1693,E-4,402.0,0.5,53,150.49
1694,B5,402.25,0.25,47,150.49
1695,C#5,402.5,0.25,47,150.49
1696,B3,402.5,0.5,49,150.49
1697,A5,402.75,0.25,47,150.49
1698,B4,403.0,0.25,56,150.49
1699,E4,403.0,0.25,49,150.49
1700,A5,403.25,0.25,48,150.49
1701,B4,403.5,0.25,48,150.49
1702,C#4,403.5,0.25,53,150.49
1703,A5,403.75,0.25,48,150.49
1704,B4,404.0,0.25,56,150.49
1705,A3,404.0,0.25,49,150.49
1706,G5,404.25,0.25,47,150.49
1707,A4,404.5,0.25,47,150.49
1708,D3,404.5,0.25,49,150.49
1709,G5,404.75,0.25,46,150.49
1710,A4,405.0,0.25,56,150.49
1711,B2,405.0,0.5,54,150.49
1712,G5,405.25,0.25,47,150.49
1713,A4,405.5,0.25,47,150.49
1714,G2,405.5,0.25,50,150.49
1715,F#5,405.75,0.25,47,150.49
1716,G4,406.0,0.25,56,150.49
1717,C#3,406.0,0.25,50,150.49
1718,F#5,406.25,0.25,48,150.49
1719,G4,406.5,0.25,48,150.49
1720,B-2,406.5,0.25,53,150.49
1721,F#5,406.75,0.25,48,150.49
1722,G4,407.0,0.25,56,150.49
1723,F#2,407.0,0.25,49,150.49
1724,E5,407.25,0.25,47,150.49
1725,F#4,407.5,0.25,47,150.49
1726,B3,407.5,0.25,49,150.49
1727,E5,407.75,0.25,46,150.49
1728,F#4,408.0,0.25,56,150.49
1729,G#3,408.0,0.5,53,150.49
1730,E5,408.25,0.25,47,150.49
1731,F#4,408.5,0.25,47,150.49
1732,E3,408.5,0.25,49,150.49
1733,D5,408.75,0.25,47,150.49
1734,E4,409.0,0.25,56,150.49
1735,A3,409.0,0.25,49,150.49
1736,D5,409.25,0.25,48,150.49
1737,E4,409.5,0.25,48,150.49
1738,F#3,409.5,0.5,53,150.49
1739,D5,409.75,0.25,48,150.49
1740,E4,410.0,0.25,56,150.49
1741,D3,410.0,0.25,50,150.49
1742,C5,410.25,0.25,47,150.49
1743,D4,410.5,0.25,47,150.49
1744,G3,410.5,0.25,50,150.49
1745,C5,410.75,0.25,46,150.49
1746,D4,411.0,0.25,56,150.49
1747,C2,411.0,3.0,59,150.49
1748,C3,411.0,3.0,59,150.49
1749,C5,411.25,0.25,47,150.49
1750,D4,411.5,0.25,47,150.49
1751,B4,411.75,0.25,47,150.49
1752,E4,412.0,0.25,53,150.49
1753,B4,412.25,0.25,44,150.49
1754,A4,412.5,0.25,45,150.49
1755,G#4,412.75,0.25,45,150.49
1756,A4,413.0,0.25,46,150.49
1757,B4,413.25,0.25,47,150.49
1758,C5,413.5,0.25,49,150.49
1759,D5,413.75,0.25,51,150.49
1760,E5,414.0,0.25,51,150.49
1761,C5,414.25,0.25,50,150.49
1762,B4,414.5,0.25,49,150.49
1763,D3,414.5,0.25,47,150.49
1764,A4,414.75,0.25,48,150.49
1765,D3,415.0,0.25,47,150.49
1766,B3,415.0,1.5,55,150.49
1767,G4,415.0,1.5,55,150.49
1768,D3,415.5,0.25,53,150.49
1769,E3,415.75,0.25,47,150.49
1770,D3,416.0,0.25,53,150.49
1771,C3,416.25,0.25,51,150.49
1772,B2,416.5,0.25,50,150.49
1773,F#4,416.5,0.5,47,150.49
1774,A3,416.5,0.5,47,150.49
1775,A2,416.75,0.25,48,150.49
1776,G2,417.0,0.5,47,150.49
1777,D5,418.5,0.25,48,150.49
1778,D5,419.0,0.25,49,150.49
1779,D5,419.5,0.25,51,150.49
1780,D5,420.0,0.25,52,150.49
1781,D5,420.5,0.25,54,150.49
1782,C4,420.5,0.25,27,150.49
1783,A3,420.5,0.25,27,150.49
1784,D4,420.5,0.25,27,150.49
1785,D5,421.0,1.5,56,150.49
1786,A3,421.0,0.25,27,150.49
1787,D4,421.0,0.25,27,150.49
1788,C4,421.0,0.25,27,150.49
1789,A3,421.5,0.25,30,150.49
1790,C4,421.5,0.25,30,150.49
1791,D4,421.5,0.25,30,150.49
1792,A3,422.0,0.25,27,150.49
1793,C4,422.0,0.25,27,150.49
1794,D4,422.0,0.25,27,150.49
1795,F#4,422.5,0.5,52,150.49
1796,D4,422.5,0.25,26,150.49
1797,A3,422.5,0.25,26,150.49
1798,C4,422.5,0.25,26,150.49
1799,B3,423.0,0.5,38,150.49
1800,D4,423.0,0.5,38,150.49
1801,G4,424.5,0.25,50,150.49
1802,B4,425.0,0.25,51,150.49
1803,D5,425.5,0.25,53,150.49
1804,G5,426.0,0.25,54,150.49
1805,B5,426.5,0.25,56,150.49
1806,D4,426.5,0.25,30,150.49
1807,F#3,426.5,0.25,30,150.49
1808,A3,426.5,0.25,30,150.49
1809,D6,427.0,1.5,57,150.49
1810,F#3,427.0,0.25,29,150.49
1811,A3,427.0,0.25,29,150.49
1812,D4,427.0,0.25,29,150.49
1813,A3,427.5,0.25,32,150.49
1814,D4,427.5,0.25,32,150.49
1815,F#3,427.5,0.25,32,150.49
1816,A3,428.0,0.25,28,150.49
1817,D4,428.0,0.25,28,150.49
1818,F#3,428.0,0.25,28,150.49
1819,C6,428.5,0.5,55,150.49
1820,D4,428.5,0.25,27,150.49
1821,A3,428.5,0.25,27,150.49
1822,F#3,428.5,0.25,27,150.49
1823,D4,429.0,0.25,38,150.49
1824,G3,429.0,0.25,38,150.49
1825,B5,430.5,0.25,52,150.49
1826,B3,430.5,0.25,38,150.49
1827,D4,430.5,0.25,38,150.49
1828,C6,430.75,0.25,54,150.49
1829,D6,431.0,0.25,55,150.49
1830,B5,431.25,0.25,51,150.49
1831,G5,431.5,0.25,55,150.49
1832,G5,432.0,0.25,53,150.49
1833,G4,432.0,0.25,38,150.49
1834,C4,432.0,0.25,38,150.49
1835,A5,432.25,0.25,55,150.49
1836,B5,432.5,0.25,58,150.49
1837,G5,432.75,0.25,52,150.49
1838,E5,433.0,0.25,55,150.49
1839,E5,433.5,0.25,51,150.49
1840,G4,433.5,0.25,38,150.49
1841,E4,433.5,0.25,38,150.49
1842,F#5,433.75,0.25,54,150.49
1843,G5,434.0,0.25,56,150.49
1844,E5,434.25,0.25,51,150.49
1845,C#5,434.5,0.25,55,150.49
1846,C#5,435.0,0.25,51,150.49
1847,D4,435.0,0.5,38,150.49
1848,D5,435.25,0.25,53,150.49
1849,E5,435.5,0.25,56,150.49
1850,C#4,435.5,0.5,40,150.49
1851,C#5,435.75,0.25,52,150.49
1852,D5,436.0,0.5,54,150.49
1853,C4,436.0,0.5,42,150.49
1854,E5,436.5,0.5,56,150.49
1855,B3,436.5,0.5,44,150.49
1856,F#5,437.0,0.5,58,150.49
1857,C4,437.0,0.5,43,150.49
1858,G5,437.5,0.5,61,150.49
1859,E4,437.5,0.5,39,150.49
1860,E5,438.0,0.25,58,150.49
1861,C5,438.5,0.25,54,150.49
1862,D4,438.5,0.25,41,150.49
1863,D4,439.0,0.25,41,150.49
1864,G4,439.0,1.5,55,150.49
1865,B4,439.0,1.5,55,150.49
1866,D4,439.5,0.25,38,150.49
1867,E4,439.75,0.25,40,150.49
1868,D4,440.0,0.25,42,150.49
1869,C4,440.25,0.25,44,150.49
1870,B3,440.5,0.25,42,150.49
1871,F#4,440.5,0.5,50,150.49
1872,A4,440.5,0.5,50,150.49
1873,A3,440.75,0.25,40,150.49
1874,G3,441.0,0.5,47,150.49
1875,D5,442.5,0.25,48,150.49
1876,D5,443.0,0.25,49,150.49
1877,E5,443.5,0.125,51,150.49
1878,F#5,443.625,0.125,51,150.49
1879,E5,443.75,0.25,51,150.49
1880,D5,444.0,0.25,52,150.49
1881,D5,444.5,0.25,54,150.49
1882,C4,444.5,0.25,27,150.49
1883,A3,444.5,0.25,27,150.49
1884,D4,444.5,0.25,27,150.49
1885,D5,445.0,1.5,56,150.49
1886,D4,445.0,0.25,27,150.49
1887,C4,445.0,0.25,27,150.49
1888,A3,445.0,0.25,27,150.49
1889,C4,445.5,0.25,30,150.49
1890,A3,445.5,0.25,30,150.49
1891,D4,445.5,0.25,30,150.49
1892,D4,446.0,0.25,27,150.49
1893,C4,446.0,0.25,27,150.49
1894,A3,446.0,0.25,27,150.49
1895,F#4,446.5,0.5,52,150.49
1896,D4,446.5,0.25,26,150.49
1897,C4,446.5,0.25,26,150.49
1898,A3,446.5,0.25,26,150.49
1899,B3,447.0,0.5,38,150.49
1900,D4,447.0,0.5,38,150.49
1901,G4,448.25,0.25,50,150.49
1902,B4,448.5,0.25,52,150.49
1903,G4,448.75,0.25,52,150.49
1904,D5,449.0,0.25,53,150.49
1905,B4,449.25,0.25,54,150.49
1906,G5,449.5,0.25,55,150.49
1907,D5,449.75,0.25,56,150.49
1908,B5,450.0,0.25,57,150.49
1909,G5,450.25,0.25,58,150.49
1910,D6,450.5,0.25,59,150.49
1911,F#3,450.5,0.25,30,150.49
1912,A3,450.5,0.25,30,150.49
1913,D4,450.5,0.25,30,150.49
1914,B5,450.75,0.25,60,150.49
1915,D6,451.0,1.25,66,150.49
1916,F#3,451.0,0.25,29,150.49
1917,A3,451.0,0.25,29,150.49
1918,D4,451.0,0.25,29,150.49
1919,D4,451.5,0.25,32,150.49
1920,A3,451.5,0.25,32,150.49
1921,F#3,451.5,0.25,32,150.49
1922,D4,452.0,0.25,28,150.49
1923,A3,452.0,0.25,28,150.49
1924,F#3,452.0,0.25,28,150.49
1925,C#6,452.25,0.25,57,150.49
1926,C6,452.5,0.5,64,150.49
1927,D4,452.5,0.25,27,150.49
1928,F#3,452.5,0.25,27,150.49
1929,A3,452.5,0.25,27,150.49
1930,G3,453.0,0.25,38,150.49
1931,D4,453.0,0.25,38,150.49
1932,B5,454.5,0.25,52,150.49
1933,B3,454.5,0.25,38,150.49
1934,D4,454.5,0.25,38,150.49
1935,C6,454.75,0.25,54,150.49
1936,D6,455.0,0.25,55,150.49
1937,B5,455.25,0.25,51,150.49
1938,G5,455.5,0.25,55,150.49
1939,G5,456.0,0.25,53,150.49
1940,C4,456.0,0.25,38,150.49
1941,G4,456.0,0.25,38,150.49
1942,A5,456.25,0.25,55,150.49
1943,B5,456.5,0.25,58,150.49
1944,G5,456.75,0.25,52,150.49
1945,E5,457.0,0.25,55,150.49
1946,E5,457.5,0.25,51,150.49
1947,E4,457.5,0.25,38,150.49
1948,G4,457.5,0.25,38,150.49
1949,F#5,457.75,0.25,54,150.49
1950,G5,458.0,0.25,56,150.49
1951,E5,458.25,0.25,51,150.49
1952,C#5,458.5,0.25,55,150.49
1953,C#5,459.0,0.25,51,150.49
1954,D3,459.0,3.0,38,150.49
1955,D4,459.0,3.0,38,150.49
1956,D5,459.25,0.25,53,150.49
1957,E5,459.5,0.25,56,150.49
1958,C#5,459.75,0.25,52,150.49
1959,D5,460.0,0.5,54,150.49
1960,C#5,460.5,0.5,56,150.49
1961,C5,461.0,0.5,58,150.49
1962,B4,461.5,0.5,61,150.49
1963,C5,462.0,0.5,58,150.49
1964,G3,462.0,0.25,46,150.49
1965,A4,462.5,83/1000,55,150.49
1966,B4,462.583,83/1000,50,150.49
1967,A4,462.667,83/1000,51,150.49
1968,G4,462.75,0.125,54,150.49
1969,A4,462.875,0.125,49,150.49
1970,G4,463.0,0.25,55,150.49
1971,B2,463.0,0.25,45,150.49
1972,D3,463.25,0.25,45,150.49
1973,G3,463.5,0.25,52,150.49
1974,B3,464.0,0.25,66,150.49
1975,D4,464.25,0.25,66,150.49
1976,G4,464.5,0.25,73,150.49
1977,D3,464.5,0.25,48,150.49
1978,G3,464.75,0.25,48,150.49
1979,B3,465.0,0.25,57,150.49
1980,D4,465.5,0.25,70,150.49
1981,G4,465.75,0.25,70,150.49
1982,B4,466.0,0.25,75,150.49
1983,G3,466.0,0.25,51,150.49
1984,B3,466.25,0.25,51,150.49
1985,D4,466.5,0.25,57,150.49
1986,G4,467.0,0.25,69,150.49
1987,B4,467.25,0.25,69,150.49
1988,D5,467.5,0.25,81,150.49
1989,B3,467.5,0.25,48,150.49
1990,D4,467.75,0.25,48,150.49
1991,G4,468.0,0.25,57,150.49
1992,B4,468.5,0.25,70,150.49
1993,D5,468.75,0.25,70,150.49
1994,G5,469.0,0.25,82,150.49
1995,B5,472.0,1.25,45,150.49
1996,F#4,472.5,1.5,29,150.49
1997,A4,472.5,1.5,29,150.49
1998,B3,472.5,1.5,29,150.49
1999,C6,473.25,0.25,42,150.49
2000,E5,473.5,1.0,47,150.49
2001,G4,474.0,0.5,32,150.49
2002,E4,474.0,0.5,32,150.49
2003,E-5,474.5,0.5,47,150.49
2004,E5,475.0,0.375,55,150.49
2005,E6,475.5,0.25,54,150.49
2006,D6,476.0,0.25,52,150.49
2007,C6,476.5,0.25,50,150.49
2008,B5,477.0,0.25,49,150.49
2009,B-5,477.5,0.25,47,150.49
2010,B5,478.0,0.625,45,150.49
2011,A4,478.5,1.5,29,150.49
2012,F#4,478.5,1.5,29,150.49
2013,B3,478.5,1.5,29,150.49
2014,C6,478.625,0.125,35,150.49
2015,B5,478.75,0.125,35,150.49
2016,B-5,478.875,0.125,35,150.49
2017,B5,479.0,0.25,45,150.49
2018,C6,479.25,0.25,42,150.49
2019,E5,479.5,1.0,47,150.49
2020,E4,480.0,0.5,32,150.49
2021,G4,480.0,0.5,32,150.49
2022,E-5,480.558,221/500,47,150.49
2023,E5,481.0,0.375,55,150.49
2024,E-5,481.0,29/500,47,150.49
2025,E6,481.5,0.25,54,150.49
2026,D6,482.0,0.25,52,150.49
2027,C6,482.5,0.25,50,150.49
2028,B5,483.0,0.25,49,150.49
2029,B-5,483.5,0.25,47,150.49
2030,A5,484.0,0.625,45,150.49
2031,A3,484.5,1.5,29,150.49
2032,E4,484.5,1.5,29,150.49
2033,G4,484.5,1.5,29,150.49
2034,B5,484.625,0.125,35,150.49
2035,A5,484.75,0.125,35,150.49
2036,G#5,484.875,0.125,35,150.49
2037,A5,485.0,0.25,45,150.49
2038,B5,485.25,0.25,42,150.49
2039,D5,485.5,1.0,47,150.49
2040,F#4,486.0,0.5,32,150.49
2041,D4,486.0,0.5,32,150.49
2042,C#5,486.558,221/500,47,150.49
2043,D5,487.0,0.375,55,150.49
2044,C#5,487.0,29/500,47,150.49
2045,D6,487.5,0.25,54,150.49
2046,C#6,488.0,0.25,52,150.49
2047,B5,488.5,0.25,50,150.49
2048,A5,489.0,0.25,49,150.49
2049,G#5,489.5,0.25,47,150.49
2050,A5,490.0,0.625,45,150.49
2051,E4,490.5,1.5,29,150.49
2052,A3,490.5,1.5,29,150.49
2053,G4,490.5,1.5,29,150.49
2054,B5,490.625,0.125,35,150.49
2055,A5,490.75,0.125,35,150.49
2056,G#5,490.875,0.125,35,150.49
2057,A5,491.0,0.25,45,150.49
2058,B5,491.25,0.25,42,150.49
2059,D5,491.5,1.0,47,150.49
2060,D4,492.0,0.5,32,150.49
2061,F#4,492.0,0.5,32,150.49
2062,C#5,492.558,221/500,47,150.49
2063,D5,493.0,0.375,55,150.49
2064,C#5,493.0,29/500,47,150.49
2065,F#5,493.5,0.25,54,150.49
2066,E5,494.0,0.25,52,150.49
2067,D5,494.5,0.25,50,150.49
2068,C#5,495.0,0.25,49,150.49
2069,B4,495.5,0.25,47,150.49
2070,E5,496.0,0.625,45,150.49
2071,B3,496.5,1.5,29,150.49
2072,E3,496.5,1.5,29,150.49
2073,D4,496.5,1.5,29,150.49
2074,F#5,496.625,0.125,35,150.49
2075,E5,496.75,0.125,35,150.49
2076,E-5,496.875,0.125,35,150.49
2077,E5,497.0,0.25,45,150.49
2078,F#5,497.25,0.25,42,150.49
2079,A4,497.5,1.0,47,150.49
2080,A3,498.0,0.5,32,150.49
2081,C#4,498.0,0.5,32,150.49
2082,G#4,498.5,0.5,47,150.49
2083,A4,499.0,0.375,55,150.49
2084,A5,499.5,0.25,54,150.49
2085,G#5,500.0,0.25,52,150.49
2086,F#5,500.5,0.25,50,150.49
2087,E5,501.0,0.25,49,150.49
2088,E-5,501.5,0.25,47,150.49
2089,E5,502.0,0.625,45,150.49
2090,D4,502.5,1.5,29,150.49
2091,E3,502.5,1.5,29,150.49
2092,B3,502.5,1.5,29,150.49
2093,F#5,502.625,0.125,35,150.49
2094,E5,502.75,0.125,35,150.49
2095,E-5,502.875,0.125,35,150.49
2096,E5,503.0,0.25,45,150.49
2097,F#5,503.25,0.25,42,150.49
2098,A4,503.5,1.0,47,150.49
2099,A3,504.0,19/40,28,150.49
2100,A2,504.0,19/40,28,150.49
2101,G#4,504.5,0.5,47,150.49
2102,A2,504.5,19/40,22,150.49
2103,A3,504.5,19/40,22,150.49
2104,A4,505.0,0.25,36,150.49
2105,A2,505.0,19/40,22,150.49
2106,A3,505.0,19/40,22,150.49
2107,E4,505.25,0.25,28,150.49
2108,C#4,505.5,0.25,28,150.49
2109,A2,505.5,19/40,28,150.49
2110,A3,505.5,19/40,28,150.49
2111,E4,505.75,0.25,28,150.49
2112,A4,506.0,0.25,28,150.49
2113,A3,506.0,19/40,21,150.49
2114,A2,506.0,19/40,21,150.49
2115,E4,506.25,0.25,28,150.49
2116,A4,506.5,0.25,36,150.49
2117,A3,506.5,19/40,21,150.49
2118,A2,506.5,19/40,21,150.49
2119,E4,506.75,0.25,27,150.49
2120,C#4,507.0,0.25,27,150.49
2121,G#3,507.0,19/40,30,150.49
2122,A2,507.0,19/40,30,150.49
2123,E4,507.25,0.25,27,150.49
2124,A4,507.5,0.25,28,150.49
2125,G#3,507.5,19/40,25,150.49
2126,A2,507.5,19/40,25,150.49
2127,E4,507.75,0.25,28,150.49
2128,B4,508.0,0.25,38,150.49
2129,A2,508.0,19/40,26,150.49
2130,G#3,508.0,19/40,26,150.49
2131,E4,508.25,0.25,30,150.49
2132,D4,508.5,0.25,31,150.49
2133,G#3,508.5,19/40,35,150.49
2134,A2,508.5,19/40,35,150.49
2135,E4,508.75,0.25,32,150.49
2136,B4,509.0,0.25,33,150.49
2137,A2,509.0,19/40,27,150.49
2138,G#3,509.0,19/40,27,150.49
2139,E4,509.25,0.25,35,150.49
2140,B4,509.5,0.25,46,150.49
2141,G#3,509.5,19/40,30,150.49
2142,A2,509.5,19/40,30,150.49
2143,E4,509.75,0.25,35,150.49
2144,D4,510.0,0.25,36,150.49
2145,G3,510.0,19/40,40,150.49
2146,A2,510.0,19/40,40,150.49
2147,E4,510.25,0.25,36,150.49
2148,B4,510.5,0.25,38,150.49
2149,A2,510.5,19/40,33,150.49
2150,G3,510.5,19/40,33,150.49
2151,E4,510.75,0.25,39,150.49
2152,C#5,511.0,0.25,52,150.49
2153,A2,511.0,19/40,35,150.49
2154,G3,511.0,19/40,35,150.49
2155,G4,511.25,0.25,41,150.49
2156,E4,511.5,0.25,42,150.49
2157,A2,511.5,19/40,46,150.49
2158,F#3,511.5,19/40,46,150.49
2159,G4,511.75,0.25,44,150.49
2160,C#5,512.0,0.25,45,150.49
2161,A2,512.0,19/40,36,150.49
2162,F#3,512.0,19/40,36,150.49
2163,E4,512.25,0.25,45,150.49
2164,D5,512.5,0.25,60,150.49
2165,F#3,512.5,19/40,38,150.49
2166,A2,512.5,19/40,38,150.49
2167,A4,512.75,0.25,49,150.49
2168,F#4,513.0,0.25,50,150.49
2169,E3,513.0,19/40,52,150.49
2170,A2,513.0,19/40,52,150.49
2171,A4,513.25,0.25,51,150.49
2172,D5,513.5,0.25,53,150.49
2173,A2,513.5,19/40,46,150.49
2174,E3,513.5,19/40,46,150.49
2175,A4,513.75,0.25,54,150.49
2176,E5,514.0,0.25,69,150.49
2177,A2,514.0,19/40,50,150.49
2178,E3,514.0,19/40,50,150.49
2179,C#5,514.25,0.25,58,150.49
2180,A4,514.5,0.25,59,150.49
2181,D3,514.5,19/40,58,150.49
2182,A2,514.5,19/40,58,150.49
2183,C#5,514.75,0.25,61,150.49
2184,E5,515.0,0.25,63,150.49
2185,D3,515.0,19/40,52,150.49
2186,A2,515.0,19/40,52,150.49
2187,C#5,515.25,0.25,65,150.49
2188,F#5,515.5,0.25,77,150.49
2189,D3,515.5,19/40,54,150.49
2190,A2,515.5,19/40,54,150.49
2191,D5,515.75,0.25,66,150.49
2192,A4,516.0,0.25,68,150.49
2193,A3,516.0,3.0,51,150.49
2194,E3,516.0,3.0,51,150.49
2195,C#3,516.0,3.0,51,150.49
2196,A2,516.0,3.0,51,150.49
2197,D5,516.25,0.25,70,150.49
2198,F#5,516.5,0.25,72,150.49
2199,D5,516.75,0.25,73,150.49
2200,G5,517.0,3.0,66,150.49
2201,E5,517.0,3.0,66,150.49
2202,A4,517.0,3.0,66,150.49
2203,C#5,517.0,3.0,66,150.49
2204,G5,520.0,0.75,74,150.49
2205,E5,520.75,0.25,69,150.49
2206,C#6,521.0,0.75,76,150.49
2207,G5,521.75,0.25,69,150.49
2208,E6,522.0,1.5,77,150.49
2209,D6,523.5,0.5,64,150.49
2210,C#6,524.0,21/40,66,150.49
2211,B5,524.5,21/40,63,150.49
2212,A5,525.0,21/40,63,150.49
2213,G#5,525.5,21/40,60,150.49
2214,A5,526.0,11/40,57,150.49
2215,B-5,526.25,11/40,53,150.49
2216,B5,526.5,11/40,53,150.49
2217,A5,526.75,11/40,54,150.49
2218,G5,527.0,11/40,54,150.49
2219,F#5,527.25,11/40,57,150.49
2220,A5,527.5,11/40,60,150.49
2221,G5,527.75,0.25,57,150.49
2222,B5,528.0,11/40,60,150.49
2223,G5,528.0,1/40,57,150.49
2224,A5,528.25,11/40,57,150.49
2225,G5,528.5,11/40,58,150.49
2226,F#5,528.75,11/40,58,150.49
2227,E5,529.0,11/40,62,150.49
2228,F#5,529.25,11/40,58,150.49
2229,G5,529.5,11/40,58,150.49
2230,F#5,529.75,11/40,59,150.49
2231,A5,530.0,11/40,64,150.49
2232,G5,530.25,11/40,61,150.49
2233,F#5,530.5,11/40,63,150.49
2234,E5,530.75,11/40,60,150.49
2235,D5,531.0,11/40,63,150.49
2236,C#5,531.25,11/40,62,150.49
2237,B4,531.5,11/40,62,150.49
2238,A4,531.75,11/40,63,150.49
2239,G4,532.0,0.125,62,150.49
2240,A4,532.125,0.125,53,150.49
2241,G4,532.25,0.125,62,150.49
2242,A4,532.375,0.125,53,150.49
2243,G4,532.5,0.125,63,150.49
2244,A4,532.625,0.125,53,150.49
2245,G4,532.75,0.125,61,150.49
2246,A4,532.875,0.125,53,150.49
2247,G4,533.0,0.125,62,150.49
2248,A4,533.125,0.125,53,150.49
2249,G4,533.25,0.125,65,150.49
2250,A4,533.375,0.125,57,150.49
2251,G4,533.5,0.125,68,150.49
2252,A4,533.625,0.125,60,150.49
2253,G4,533.75,0.125,66,150.49
2254,A4,533.875,0.125,57,150.49
2255,G4,534.0,167/1000,66,150.49
2256,A4,534.167,167/1000,60,150.49
2257,G4,534.333,167/1000,68,150.49
2258,F#4,534.5,0.25,59,150.49
2259,G4,534.75,0.25,63,150.49
2260,G#4,535.0,0.125,64,150.49
2261,A4,535.125,0.125,64,150.49
2262,B-4,535.25,0.125,63,150.49
2263,B4,535.375,0.125,62,150.49
2264,C5,535.5,0.125,61,150.49
2265,C#5,535.625,0.125,60,150.49
2266,D5,535.75,0.125,59,150.49
2267,E-5,535.875,0.125,58,150.49
2268,E5,536.0,0.125,57,150.49
2269,F5,536.125,0.125,56,150.49
2270,F#5,536.25,0.125,55,150.49
2271,G5,536.375,0.125,54,150.49
2272,G#5,536.5,167/1000,53,150.49
2273,A5,536.667,167/1000,53,150.49
2274,B-5,536.833,167/1000,52,150.49
2275,B5,537.0,0.5,50,150.49
2276,A5,538.0,0.125,56,150.49
2277,G5,538.125,0.375,51,150.49
2278,F#5,539.0,0.125,53,150.49
2279,E5,539.125,0.375,47,150.49
2280,F#5,540.0,0.25,53,150.49
2281,G5,540.25,0.062,43,150.49
2282,F#5,540.312,0.062,43,150.49
2283,E5,540.375,0.062,43,150.49
2284,F#5,540.438,0.062,43,150.49
2285,A5,540.5,0.375,55,150.49
2286,G5,540.875,119/1000,50,150.49
2287,G5,541.0,0.25,54,150.49
2288,A5,541.25,0.062,41,150.49
2289,G5,541.312,0.062,41,150.49
2290,F#5,541.375,0.062,41,150.49
2291,G5,541.438,0.062,41,150.49
2292,G#5,541.5,0.5,53,150.49
2293,B5,542.0,0.5,50,150.49
2294,A5,542.5,0.25,41,150.49
2295,A4,542.75,0.25,40,150.49
2296,A5,543.0,1.0,45,150.49
2297,D4,543.5,1.5,28,150.49
2298,F#4,543.5,1.5,28,150.49
2299,F#5,544.0,0.375,42,150.49
2300,E5,544.375,0.125,42,150.49
2301,D5,544.5,0.188,46,150.49
2302,C#5,545.0,0.188,42,150.49
2303,G#4,545.0,1.5,28,150.49
2304,B3,545.0,1.5,28,150.49
2305,D5,545.5,0.188,42,150.49
2306,E5,545.875,0.125,41,150.49
2307,D5,546.0,0.188,45,150.49
2308,C#5,546.5,0.188,41,150.49
2309,A4,546.5,1.5,28,150.49
2310,A3,546.5,1.5,28,150.49
2311,D5,547.0,0.188,40,150.49
2312,D5,547.5,1.0,42,150.49
2313,F#5,547.5,1.0,42,150.49
2314,C#5,548.5,0.25,36,150.49
2315,E5,548.5,0.25,36,150.49
2316,G4,548.75,0.25,40,150.49
2317,G5,549.0,1.0,45,150.49
2318,E4,549.5,1.5,28,150.49
2319,A3,549.5,1.5,28,150.49
2320,E5,550.0,0.375,42,150.49
2321,D5,550.375,0.125,42,150.49
2322,C#5,550.5,0.188,46,150.49
2323,B4,551.0,0.188,42,150.49
2324,C#4,551.0,1.5,28,150.49
2325,E4,551.0,1.5,28,150.49
2326,C#5,551.5,0.188,42,150.49
2327,A4,552.0,0.188,45,150.49
2328,E5,552.5,0.188,41,150.49
2329,D4,552.5,1.5,28,150.49
2330,A4,552.5,1.5,28,150.49
2331,A5,553.0,0.188,40,150.49
2332,G5,553.5,1.0,42,150.49
2333,E5,553.5,1.0,42,150.49
2334,D3,554.0,0.5,51,150.49
2335,D4,554.5,0.25,45,150.49
2336,D5,554.5,0.375,36,150.49
2337,F#5,554.5,0.375,36,150.49
2338,D5,554.875,0.125,48,150.49
2339,F#5,555.0,1.0,52,150.49
2340,E4,555.0,0.25,48,150.49
2341,F#4,555.5,0.5,52,150.49
2342,G5,556.0,0.5,48,150.49
2343,B5,556.5,0.25,59,150.49
2344,A5,556.75,0.25,57,150.49
2345,G5,557.0,0.25,55,150.49
2346,D3,557.0,0.5,50,150.49
2347,F#5,557.25,0.25,53,150.49
2348,E5,557.5,0.25,51,150.49
2349,D4,557.5,0.25,44,150.49
2350,D5,557.75,119/1000,47,150.49
2351,D5,557.875,0.125,46,150.49
2352,F#5,558.0,1.0,58,150.49
2353,E4,558.0,0.25,48,150.49
2354,F#4,558.5,0.5,53,150.49
2355,G5,559.0,0.5,49,150.49
2356,B5,559.5,0.25,59,150.49
2357,A5,559.75,0.25,57,150.49
2358,G5,560.0,0.25,55,150.49
2359,G3,560.0,0.5,50,150.49
2360,F#5,560.25,0.25,53,150.49
2361,E5,560.5,0.25,51,150.49
2362,G4,560.5,0.25,44,150.49
2363,D5,560.75,13/125,51,150.49
2364,D5,560.875,0.125,46,150.49
2365,B5,561.0,1.0,58,150.49
2366,E4,561.0,0.25,48,150.49
2367,F#3,561.5,0.5,49,150.49
2368,F#4,561.5,0.5,49,150.49
2369,C#6,562.0,0.5,49,150.49
2370,D6,562.5,0.25,59,150.49
2371,C#6,562.75,0.25,57,150.49
2372,B5,563.0,0.25,55,150.49
2373,G4,563.0,0.5,49,150.49
2374,G3,563.0,0.5,49,150.49
2375,A5,563.25,0.25,53,150.49
2376,G5,563.5,0.25,51,150.49
2377,F#5,563.75,0.25,51,150.49
2378,B5,564.0,0.25,59,150.49
2379,A5,564.25,0.25,58,150.49
2380,G5,564.5,0.25,56,150.49
2381,A3,564.5,0.5,49,150.49
2382,A4,564.5,0.5,49,150.49
2383,F#5,564.75,0.25,55,150.49
2384,E5,565.0,0.25,58,150.49
2385,D5,565.25,0.25,62,150.49
2386,A5,565.5,0.5,53,150.49
2387,E5,565.5,0.5,53,150.49
2388,C#5,565.5,0.5,53,150.49
2389,A3,566.75,0.25,40,150.49
2390,A4,567.0,1.0,45,150.49
2391,D3,567.5,1.5,28,150.49
2392,F#3,567.5,1.5,28,150.49
2393,F#4,568.0,0.375,42,150.49
2394,E4,568.375,0.125,42,150.49
2395,D4,568.5,0.188,46,150.49
2396,C#4,569.0,0.188,42,150.49
2397,G#3,569.0,1.5,28,150.49
2398,B2,569.0,1.5,28,150.49
2399,D4,569.5,0.188,42,150.49
2400,E4,569.875,0.125,41,150.49
2401,D4,570.0,0.188,45,150.49
2402,C#4,570.5,0.188,41,150.49
2403,A2,570.5,1.5,28,150.49
2404,A3,570.5,1.5,28,150.49
2405,D4,571.0,0.188,40,150.49
2406,D4,571.5,1.0,42,150.49
2407,F#4,571.5,1.0,42,150.49
2408,C#4,572.5,0.25,36,150.49
2409,E4,572.5,0.25,36,150.49
2410,G3,572.75,0.25,40,150.49
2411,G4,573.0,1.0,45,150.49
2412,E3,573.5,1.5,28,150.49
2413,A2,573.5,1.5,28,150.49
2414,E4,574.0,0.375,42,150.49
2415,D4,574.375,0.125,42,150.49
2416,C#4,574.5,0.188,46,150.49
2417,B3,575.0,0.188,42,150.49
2418,E3,575.0,1.5,28,150.49
2419,C#3,575.0,1.5,28,150.49
2420,C#4,575.5,0.188,42,150.49
2421,A3,576.0,0.188,45,150.49
2422,E4,576.5,0.188,41,150.49
2423,A3,576.5,1.5,28,150.49
2424,D3,576.5,1.5,28,150.49
2425,A4,577.0,0.188,40,150.49
2426,G4,577.5,1.0,42,150.49
2427,E4,577.5,1.0,42,150.49
2428,D3,578.0,0.5,51,150.49
2429,D4,578.5,0.25,45,150.49
2430,D4,578.5,0.375,36,150.49
2431,F#4,578.5,0.375,36,150.49
2432,D5,578.875,0.125,48,150.49
2433,F#5,579.0,1.0,52,150.49
2434,E4,579.0,0.25,48,150.49
2435,F#4,579.5,0.5,52,150.49
2436,G5,580.0,0.5,48,150.49
2437,B5,580.5,0.25,59,150.49
2438,A5,580.75,0.25,57,150.49
2439,G5,581.0,0.25,55,150.49
2440,G2,581.0,0.5,50,150.49
2441,F#5,581.25,0.25,53,150.49
2442,E5,581.5,0.25,51,150.49
2443,G3,581.5,0.25,44,150.49
2444,D5,581.75,0.125,47,150.49
2445,G5,581.875,0.125,46,150.49
2446,B5,582.0,1.0,58,150.49
2447,A3,582.0,0.25,48,150.49
2448,B3,582.5,0.5,53,150.49
2449,C#6,583.0,0.5,49,150.49
2450,E6,583.5,0.25,59,150.49
2451,D6,583.75,0.25,57,150.49
2452,C#6,584.0,0.25,55,150.49
2453,E4,584.0,0.25,48,150.49
2454,B3,584.0,0.25,48,150.49
2455,G3,584.0,0.25,48,150.49
2456,B5,584.25,0.25,53,150.49
2457,A5,584.5,0.25,51,150.49
2458,G5,584.75,0.25,51,150.49
2459,C#6,585.0,0.25,59,150.49
2460,B5,585.25,0.25,58,150.49
2461,A5,585.5,0.25,56,150.49
2462,F#4,585.5,0.25,48,150.49
2463,D4,585.5,0.25,48,150.49
2464,A3,585.5,0.25,48,150.49
2465,G5,585.75,0.25,55,150.49
2466,F#5,586.0,0.25,54,150.49
2467,E5,586.25,0.25,52,150.49
2468,B5,586.5,0.25,63,150.49
2469,A5,586.75,0.25,61,150.49
2470,G5,587.0,0.25,59,150.49
2471,G4,587.0,0.25,48,150.49
2472,E4,587.0,0.25,48,150.49
2473,A3,587.0,0.25,48,150.49
2474,F#5,587.25,0.25,57,150.49
2475,E5,587.5,0.25,56,150.49
2476,D5,587.75,0.25,54,150.49
2477,A5,588.0,0.25,59,150.49
2478,G5,588.25,0.25,61,150.49
2479,F#5,588.5,0.25,60,150.49
2480,F#4,588.5,0.25,49,150.49
2481,D4,588.5,0.25,49,150.49
2482,E5,588.75,0.25,59,150.49
2483,D5,589.0,0.25,58,150.49
2484,C#5,589.25,0.25,61,150.49
2485,D5,589.5,0.25,63,150.49
2486,D2,590.5,0.188,44,150.49
2487,D3,590.5,0.188,44,150.49
2488,D3,591.0,0.188,44,150.49
2489,D2,591.0,0.188,44,150.49
2490,D4,591.5,0.188,61,150.49
2491,D3,591.5,1.0,52,150.49
2492,D2,591.5,1.0,52,150.49
2493,D4,592.0,0.188,62,150.49
2494,E4,592.25,83/1000,40,150.49
2495,D4,592.333,83/1000,40,150.49
2496,C#4,592.419,81/1000,40,150.49
2497,D4,592.5,1.0,69,150.49
2498,C#4,592.5,1/500,40,150.49
2499,D2,592.5,0.188,44,150.49
2500,D3,592.5,0.188,44,150.49
2501,D2,593.0,1.0,44,150.49
2502,D3,593.0,1.0,44,150.49
2503,D4,593.5,0.188,60,150.49
2504,E4,593.75,83/1000,40,150.49
2505,D4,593.833,83/1000,40,150.49
2506,C#4,593.919,83/1000,40,150.49
2507,D4,594.0,1.0,64,150.49
2508,D3,594.0,0.188,44,150.49
2509,D2,594.0,0.188,44,150.49
2510,C2,594.5,1.0,52,150.49
2511,C3,594.5,1.0,52,150.49
2512,D4,595.0,0.188,59,150.49
2513,C4,595.5,1.0,66,150.49
2514,A4,596.75,0.25,54,150.49
2515,A5,597.0,1.5,63,150.49
2516,D5,597.5,0.188,28,150.49
2517,C5,597.5,0.188,28,150.49
2518,D5,598.0,0.188,28,150.49
2519,C5,598.0,0.188,28,150.49
2520,A5,598.5,0.5,63,150.49
2521,C5,598.5,0.188,28,150.49
2522,D5,598.5,0.188,28,150.49
2523,C6,599.0,0.188,45,150.49
2524,C5,599.0,0.188,28,150.49
2525,D5,599.0,0.188,28,150.49
2526,B5,599.5,0.188,43,150.49
2527,C5,599.5,0.188,28,150.49
2528,D5,599.5,0.188,28,150.49
2529,A5,600.0,0.188,41,150.49
2530,D5,600.0,0.188,28,150.49
2531,C5,600.0,0.188,28,150.49
2532,G5,600.5,0.188,39,150.49
2533,D5,600.5,2.0,32,150.49
2534,B4,600.5,2.0,32,150.49
2535,F#5,601.0,0.188,37,150.49
2536,A5,601.5,1.5,35,150.49
2537,B1,602.5,0.188,44,150.49
2538,B2,602.5,0.188,44,150.49
2539,G5,603.0,0.5,35,150.49
2540,B1,603.0,0.188,44,150.49
2541,B2,603.0,0.188,44,150.49
2542,B3,603.5,0.188,61,150.49
2543,A1,603.5,1.0,52,150.49
2544,A2,603.5,1.0,52,150.49
2545,B3,604.0,0.188,62,150.49
2546,B3,604.25,83/1000,40,150.49
2547,A3,604.333,83/1000,40,150.49
2548,G#3,604.417,83/1000,40,150.49
2549,A3,604.5,1.0,69,150.49
2550,A2,604.5,0.188,44,150.49
2551,A1,604.5,0.188,44,150.49
2552,G1,605.0,1.0,44,150.49
2553,G2,605.0,1.0,44,150.49
2554,A3,605.5,0.188,60,150.49
2555,A3,605.75,83/1000,40,150.49
2556,G3,605.833,83/1000,40,150.49
2557,F#3,605.917,83/1000,40,150.49
2558,G3,606.0,1.0,64,150.49
2559,G1,606.0,0.188,44,150.49
2560,G2,606.0,0.188,44,150.49
2561,F#2,606.5,1.0,52,150.49
2562,F#1,606.5,1.0,52,150.49
2563,G3,607.0,0.188,59,150.49
2564,F#3,607.5,1.0,66,150.49
2565,D5,608.75,0.25,54,150.49
2566,C6,609.0,1.5,63,150.49
2567,F#3,609.5,1.5,40,150.49
2568,A3,610.0,0.5,30,150.49
2569,C6,610.5,0.25,63,150.49
2570,D4,610.5,0.5,26,150.49
2571,B5,610.75,0.25,53,150.49
2572,A5,611.0,0.25,53,150.49
2573,F#3,611.0,1.5,40,150.49
2574,G5,611.25,0.25,52,150.49
2575,F#5,611.5,0.25,51,150.49
2576,A3,611.5,0.5,30,150.49
2577,E5,611.75,0.25,51,150.49
2578,D5,612.0,0.25,54,150.49
2579,D4,612.0,0.5,27,150.49
2580,E5,612.25,0.25,49,150.49
2581,D5,612.5,0.25,50,150.49
2582,G3,612.5,1.5,40,150.49
2583,C5,612.75,0.25,49,150.49
2584,B4,613.0,0.25,48,150.49
2585,B3,613.0,0.5,33,150.49
2586,A4,613.25,0.25,47,150.49
2587,B4,613.5,0.25,47,150.49
2588,D4,613.5,0.5,36,150.49
2589,D5,613.75,0.25,47,150.49
2590,E5,614.0,0.25,48,150.49
2591,G3,614.0,1.5,40,150.49
2592,F#5,614.25,0.25,50,150.49
2593,G5,614.5,0.25,52,150.49
2594,B3,614.5,0.5,33,150.49
2595,A5,614.75,0.25,53,150.49
2596,B5,615.0,0.25,55,150.49
2597,D4,615.0,0.5,33,150.49
2598,C6,615.25,0.25,57,150.49
2599,D6,615.5,0.25,61,150.49
2600,F#3,615.5,1.5,40,150.49
2601,B5,615.75,0.25,57,150.49
2602,A5,616.0,0.25,57,150.49
2603,A3,616.0,0.5,34,150.49
2604,G5,616.25,0.25,53,150.49
2605,C6,616.5,0.25,62,150.49
2606,D4,616.5,0.5,31,150.49
2607,B5,616.75,0.25,60,150.49
2608,A5,617.0,0.25,58,150.49
2609,F#3,617.0,1.5,40,150.49
2610,G5,617.25,0.25,57,150.49
2611,F#5,617.5,0.25,55,150.49
2612,A3,617.5,0.5,33,150.49
2613,E5,617.75,0.25,53,150.49
2614,D5,618.0,0.25,59,150.49
2615,D4,618.0,0.5,28,150.49
2616,E5,618.25,0.25,58,150.49
2617,D5,618.5,0.25,56,150.49
2618,G3,618.5,1.5,40,150.49
2619,C5,618.75,0.25,55,150.49
2620,B4,619.0,0.25,53,150.49
2621,B3,619.0,0.5,34,150.49
2622,A4,619.25,0.25,52,150.49
2623,B4,619.5,0.25,48,150.49
2624,D4,619.5,0.5,37,150.49
2625,D5,619.75,0.25,50,150.49
2626,E5,620.0,0.25,51,150.49
2627,G3,620.0,1.5,40,150.49
2628,F#5,620.25,0.25,52,150.49
2629,G5,620.5,0.25,54,150.49
2630,B3,620.5,0.5,34,150.49
2631,A5,620.75,0.25,55,150.49
2632,B5,621.0,0.25,56,150.49
2633,D4,621.0,0.5,34,150.49
2634,C6,621.25,0.25,58,150.49
2635,D6,621.5,0.25,60,150.49
2636,E-3,621.5,1.5,40,150.49
2637,B5,621.75,0.25,52,150.49
2638,A5,622.0,0.25,51,150.49
2639,F#3,622.0,0.5,33,150.49
2640,G5,622.25,0.25,47,150.49
2641,A5,622.5,0.25,53,150.49
2642,B3,622.5,0.5,30,150.49
2643,G5,622.75,0.25,51,150.49
2644,F#5,623.0,0.25,51,150.49
2645,E-3,623.0,1.5,40,150.49
2646,E5,623.25,0.25,50,150.49
2647,E-5,623.5,0.25,49,150.49
2648,F#3,623.5,0.5,34,150.49
2649,C5,623.75,0.25,48,150.49
2650,B4,624.0,0.25,52,150.49
2651,B3,624.0,0.5,32,150.49
2652,C5,624.25,0.25,52,150.49
2653,B4,624.5,0.25,51,150.49
2654,E3,624.5,1.5,40,150.49
2655,A4,624.75,0.25,51,150.49
2656,G4,625.0,0.25,50,150.49
2657,G3,625.0,0.5,33,150.49
2658,F#4,625.25,0.25,50,150.49
2659,G4,625.5,0.25,56,150.49
2660,B3,625.5,0.5,30,150.49
2661,B4,625.75,0.25,50,150.49
2662,C#5,626.0,0.25,52,150.49
2663,E3,626.0,1.5,40,150.49
2664,E-5,626.25,0.25,53,150.49
2665,E5,626.5,0.25,55,150.49
2666,G3,626.5,0.5,34,150.49
2667,F#5,626.75,0.25,57,150.49
2668,G5,627.0,0.25,62,150.49
2669,B3,627.0,0.5,32,150.49
2670,A5,627.25,0.25,57,150.49
2671,B5,627.5,0.25,56,150.49
2672,C#3,627.5,1.5,40,150.49
2673,G5,627.75,0.25,54,150.49
2674,F#5,628.0,0.25,53,150.49
2675,E3,628.0,0.5,33,150.49
2676,E5,628.25,0.25,52,150.49
2677,G5,628.5,0.25,63,150.49
2678,A3,628.5,0.5,30,150.49
2679,F#5,628.75,0.25,61,150.49
2680,E5,629.0,0.25,59,150.49
2681,C#3,629.0,1.5,40,150.49
2682,D5,629.25,0.25,58,150.49
2683,C#5,629.5,0.25,56,150.49
2684,E3,629.5,0.5,34,150.49
2685,B4,629.75,0.25,54,150.49
2686,A4,630.0,0.25,60,150.49
2687,A3,630.0,0.5,32,150.49
2688,B4,630.25,0.25,58,150.49
2689,A4,630.5,0.25,56,150.49
2690,D3,630.5,1.5,40,150.49
2691,G4,630.75,0.25,55,150.49
2692,F#4,631.0,0.25,54,150.49
2693,F#3,631.0,0.5,33,150.49
2694,E4,631.25,0.25,52,150.49
2695,F#4,631.5,0.25,56,150.49
2696,A3,631.5,0.5,30,150.49
2697,A4,631.75,0.25,50,150.49
2698,B4,632.0,0.25,52,150.49
2699,D3,632.0,1.5,40,150.49
2700,C#5,632.25,0.25,53,150.49
2701,D5,632.5,0.25,55,150.49
2702,F#3,632.5,0.5,34,150.49
2703,E5,632.75,0.25,57,150.49
2704,F#5,633.0,0.25,62,150.49
2705,A3,633.0,0.5,32,150.49
2706,G5,633.25,0.25,57,150.49
2707,A5,633.5,0.25,56,150.49
2708,G3,633.5,1.0,46,150.49
2709,B5,633.75,0.25,54,150.49
2710,C#6,634.0,0.25,53,150.49
2711,D6,634.25,0.25,52,150.49
2712,B5,634.5,0.25,60,150.49
2713,A5,634.75,0.25,59,150.49
2714,G5,635.0,0.25,57,150.49
2715,G4,635.0,0.25,45,150.49
2716,F#5,635.25,0.25,56,150.49
2717,F#4,635.25,0.25,42,150.49
2718,E5,635.5,0.25,55,150.49
2719,E4,635.5,0.25,43,150.49
2720,D5,635.75,0.25,53,150.49
2721,D4,635.75,0.25,46,150.49
2722,G5,636.0,0.25,52,150.49
2723,C#4,636.0,0.25,48,150.49
2724,F#5,636.25,0.25,54,150.49
2725,B3,636.25,0.25,51,150.49
2726,E5,636.5,0.25,57,150.49
2727,A3,636.5,0.188,54,150.49
2728,D5,636.75,0.25,60,150.49
2729,C#5,637.0,0.25,64,150.49
2730,A2,637.0,0.188,46,150.49
2731,A3,637.0,0.188,46,150.49
2732,B4,637.25,0.25,67,150.49
2733,A4,637.5,0.188,70,150.49
2734,A2,637.5,0.188,46,150.49
2735,A3,637.5,0.188,46,150.49
2736,E5,638.0,0.188,55,150.49
2737,C#5,638.0,0.188,55,150.49
2738,A5,638.0,0.188,55,150.49
2739,A2,638.0,0.188,50,150.49
2740,A3,638.0,0.188,50,150.49
2741,C#5,638.5,0.188,55,150.49
2742,E5,638.5,0.188,55,150.49
2743,A5,638.5,0.188,55,150.49
2744,E5,639.0,0.188,60,150.49
2745,A5,639.0,0.188,60,150.49
2746,C#5,639.0,0.188,60,150.49
2747,A4,640.5,1.5,46,150.49
2748,F#5,640.5,1.5,46,150.49
2749,G4,642.0,1.5,39,150.49
2750,E5,642.0,0.5,47,150.49
2751,F#5,642.5,0.5,44,150.49
2752,D4,642.5,1.5,41,150.49
2753,E5,643.0,0.5,44,150.49
2754,F#4,643.5,3.0,46,150.49
2755,D5,643.5,3.0,46,150.49
2756,C#4,644.0,0.5,46,150.49
2757,D4,644.5,0.5,44,150.49
2758,C#4,645.0,0.5,44,150.49
2759,B3,645.5,2.5,51,150.49
2760,F#4,647.5,1.0,46,150.49
2761,D5,647.5,1.0,46,150.49
2762,G3,648.0,0.5,36,150.49
2763,F#5,648.5,0.5,50,150.49
2764,A3,648.5,0.5,41,150.49
2765,G5,649.0,1.0,50,150.49
2766,D5,649.0,1.5,42,150.49
2767,B3,649.0,0.5,37,150.49
2768,C#4,649.5,0.5,37,150.49
2769,B5,650.0,0.5,54,150.49
2770,D4,650.0,0.5,42,150.49
2771,C#5,650.5,0.5,45,150.49
2772,A5,650.5,1.0,53,150.49
2773,E4,650.5,0.5,38,150.49
2774,D5,651.0,0.5,50,150.49
2775,F#4,651.0,0.5,38,150.49
2776,G4,651.5,1.5,42,150.49
2777,G5,651.5,0.5,46,150.49
2778,E5,651.5,0.5,46,150.49
2779,B4,651.5,3.0,35,150.49
2780,D5,651.5,3.0,35,150.49
2781,F#5,652.0,1.0,50,150.49
2782,D5,652.0,1.0,50,150.49
2783,G#4,653.0,1.5,42,150.49
2784,E5,653.5,2.0,50,150.49
2785,C#5,654.5,1.5,38,150.49
2786,A4,654.5,1.5,38,150.49
2787,F#5,655.5,0.5,44,150.49
2788,E5,656.0,0.5,44,150.49
2789,A4,656.0,1.5,37,150.49
2790,C#5,656.0,1.5,37,150.49
2791,G4,656.0,1.5,37,150.49
2792,E5,656.5,2.0,50,150.49
2793,D5,657.5,0.5,31,150.49
2794,A4,657.5,0.5,31,150.49
2795,F#4,657.5,0.5,31,150.49
2796,F#5,658.5,0.5,45,150.49
2797,G5,659.0,0.5,46,150.49
2798,G4,659.0,1.0,35,150.49
2799,A5,659.5,0.5,52,150.49
2800,D6,660.0,0.375,49,150.49
2801,D4,660.0,0.5,28,150.49
2802,B3,660.0,0.5,28,150.49
2803,C#6,660.5,0.375,48,150.49
2804,D4,660.5,1.5,36,150.49
2805,A3,660.5,2.0,30,150.49
2806,B5,661.0,0.375,49,150.49
2807,A5,661.5,0.375,48,150.49
2808,G5,662.0,0.375,46,150.49
2809,C#4,662.0,0.5,32,150.49
2810,F#5,662.5,1.0,45,150.49
2811,G5,663.5,0.25,42,150.49
2812,F#5,663.75,0.25,43,150.49
2813,E5,664.0,0.5,37,150.49
2814,A4,665.5,1.5,46,150.49
2815,F#5,665.5,1.5,46,150.49
2816,B3,666.5,1.5,41,150.49
2817,E5,667.0,0.5,47,150.49
2818,G4,667.0,1.5,39,150.49
2819,F#5,667.5,0.5,44,150.49
2820,E5,668.0,0.5,44,150.49
2821,A3,668.0,0.5,46,150.49
2822,F#4,668.5,1.5,42,150.49
2823,D5,668.5,3.0,50,150.49
2824,B3,668.5,0.5,44,150.49
2825,A3,669.0,0.5,44,150.49
2826,G3,669.5,1.0,51,150.49
2827,F#4,670.0,1.5,42,150.49
2828,C5,670.0,1.5,42,150.49
2829,F#3,670.5,0.5,36,150.49
2830,E3,671.0,1.0,51,150.49
2831,D5,671.5,1.0,50,150.49
2832,B4,671.5,1.0,42,150.49
2833,G4,671.5,1.0,42,150.49
2834,D3,672.0,0.5,36,150.49
2835,C#3,672.5,1.0,41,150.49
2836,E-5,672.5,0.5,50,150.49
2837,A4,672.5,0.5,50,150.49
2838,B4,672.5,0.5,50,150.49
2839,E5,673.0,1.0,45,150.49
2840,G4,673.0,1.0,45,150.49
2841,B4,673.0,1.0,45,150.49
2842,A2,673.5,0.5,37,150.49
2843,D3,674.0,0.5,42,150.49
2844,F#5,674.0,0.5,54,150.49
2845,B5,674.0,0.5,54,150.49
2846,E3,674.5,0.5,38,150.49
2847,E5,674.5,1.0,49,150.49
2848,A5,674.5,1.0,49,150.49
2849,F#3,675.0,0.5,38,150.49
2850,G3,675.5,1.5,42,150.49
2851,C#5,675.5,0.5,46,150.49
2852,G5,675.5,0.5,46,150.49
2853,B3,675.5,3.0,35,150.49
2854,D4,675.5,3.0,35,150.49
2855,F#5,676.0,1.0,50,150.49
2856,D5,676.0,1.0,50,150.49
2857,G#3,677.0,1.5,42,150.49
2858,E5,677.5,0.5,50,150.49
2859,E6,678.0,0.25,55,150.49
2860,E6,678.5,0.25,55,150.49
2861,C#4,678.5,1.5,40,150.49
2862,G3,678.5,1.5,40,150.49
2863,A3,678.5,1.5,40,150.49
2864,E6,679.0,0.25,59,150.49
2865,E6,679.5,0.25,53,150.49
2866,E6,680.0,0.25,53,150.49
2867,C4,680.0,1.5,37,150.49
2868,A3,680.0,1.5,37,150.49
2869,F#3,680.0,1.5,37,150.49
2870,E6,680.5,0.5,60,150.49
2871,A5,681.0,0.25,53,150.49
2872,A5,681.5,0.25,53,150.49
2873,B3,681.5,0.25,38,150.49
2874,G3,681.5,0.25,38,150.49
2875,A5,682.0,0.25,62,150.49
2876,D6,682.5,0.25,56,150.49
2877,D6,683.0,0.25,56,150.49
2878,A3,683.0,0.25,47,150.49
2879,D6,683.5,0.25,57,150.49
2880,B5,684.0,0.25,49,150.49
2881,G5,684.0,0.25,49,150.49
2882,D3,684.5,0.25,60,150.49
2883,F#5,684.5,0.25,50,150.49
2884,A5,684.5,0.25,50,150.49
2885,A3,684.75,0.25,44,150.49
2886,F#3,685.0,0.25,44,150.49
2887,E5,685.0,0.25,52,150.49
2888,G5,685.0,0.25,52,150.49
2889,A3,685.25,0.25,44,150.49
2890,F#3,685.5,0.25,44,150.49
2891,D5,685.5,0.25,54,150.49
2892,F#5,685.5,0.25,54,150.49
2893,A3,685.75,0.25,44,150.49
2894,D3,686.0,0.25,55,150.49
2895,C#5,686.0,0.25,54,150.49
2896,E5,686.0,0.25,54,150.49
2897,A3,686.25,0.25,48,150.49
2898,D5,686.5,1.5,65,150.49
2899,F#3,686.5,0.25,45,150.49
2900,A3,686.75,0.25,43,150.49
2901,F#3,687.0,0.25,43,150.49
2902,A3,687.25,0.25,43,150.49
2903,E3,687.5,0.25,60,150.49
2904,A3,687.75,0.25,44,150.49
2905,F#5,688.0,1.5,65,150.49
2906,G3,688.0,0.25,44,150.49
2907,A3,688.25,0.25,44,150.49
2908,G3,688.5,0.25,44,150.49
2909,A3,688.75,0.25,44,150.49
2910,C#3,689.0,0.25,55,150.49
2911,A3,689.25,0.25,42,150.49
2912,G5,689.5,0.25,67,150.49
2913,E3,689.5,0.25,42,150.49
2914,F#5,689.75,0.25,65,150.49
2915,A3,689.75,0.25,42,150.49
2916,E5,690.0,0.25,64,150.49
2917,E3,690.0,0.25,42,150.49
2918,D5,690.25,0.25,63,150.49
2919,A3,690.25,0.25,42,150.49
2920,C#5,690.5,0.25,61,150.49
2921,D3,690.5,0.25,51,150.49
2922,A3,690.75,0.25,39,150.49
2923,E5,691.0,0.25,65,150.49
2924,F#3,691.0,0.25,39,150.49
2925,D5,691.25,0.25,64,150.49
2926,A3,691.25,0.25,39,150.49
2927,C#5,691.5,0.25,62,150.49
2928,F#3,691.5,0.25,39,150.49
2929,B4,691.75,0.25,61,150.49
2930,A3,691.75,0.25,39,150.49
2931,A4,692.0,0.25,60,150.49
2932,D3,692.0,0.25,50,150.49
2933,G4,692.25,0.25,58,150.49
2934,A3,692.25,0.25,40,150.49
2935,F#4,692.5,0.25,61,150.49
2936,F#3,692.5,0.25,40,150.49
2937,A3,692.75,0.25,40,150.49
2938,A4,693.0,0.25,49,150.49
2939,F#3,693.0,0.25,40,150.49
2940,A3,693.25,0.25,40,150.49
2941,D5,693.5,0.25,52,150.49
2942,E3,693.5,0.25,60,150.49
2943,A3,693.75,0.25,44,150.49
2944,F#5,694.0,0.25,55,150.49
2945,G3,694.0,0.25,44,150.49
2946,A3,694.25,0.25,44,150.49
2947,A5,694.5,0.25,58,150.49
2948,G3,694.5,0.25,44,150.49
2949,A3,694.75,0.25,44,150.49
2950,C#3,695.0,0.25,55,150.49
2951,A3,695.25,0.25,42,150.49
2952,G5,695.5,0.25,67,150.49
2953,E3,695.5,0.25,42,150.49
2954,F#5,695.75,0.25,65,150.49
2955,A3,695.75,0.25,42,150.49
2956,E5,696.0,0.25,64,150.49
2957,E3,696.0,0.25,42,150.49
2958,D5,696.25,0.25,63,150.49
2959,A3,696.25,0.25,42,150.49
2960,C#5,696.5,0.25,61,150.49
2961,D3,696.5,0.25,51,150.49
2962,A3,696.75,0.25,39,150.49
2963,E5,697.0,0.25,65,150.49
2964,F#3,697.0,0.25,39,150.49
2965,D5,697.25,0.25,64,150.49
2966,A3,697.25,0.25,39,150.49
2967,C#5,697.5,0.25,62,150.49
2968,F#3,697.5,0.25,39,150.49
2969,B4,697.75,0.25,61,150.49
2970,A3,697.75,0.25,39,150.49
2971,A4,698.0,0.25,60,150.49
2972,D3,698.0,0.25,50,150.49
2973,G4,698.25,0.25,58,150.49
2974,A3,698.25,0.25,40,150.49
2975,F#4,698.5,0.25,61,150.49
2976,F#3,698.5,0.25,40,150.49
2977,A3,698.75,0.25,40,150.49
2978,A4,699.0,0.25,49,150.49
2979,F#3,699.0,0.25,40,150.49
2980,A3,699.25,0.25,40,150.49
2981,D5,699.5,0.25,52,150.49
2982,G3,699.5,0.25,45,150.49
2983,F#5,700.0,0.25,55,150.49
2984,A5,700.5,0.25,58,150.49
2985,G4,701.0,0.25,37,150.49
2986,D5,701.0,0.25,37,150.49
2987,B-5,702.0,0.5,45,150.49
2988,B5,702.5,0.5,45,150.49
2989,F#4,702.5,0.25,37,150.49
2990,D5,702.5,0.25,37,150.49
2991,D6,703.5,0.5,45,150.49
2992,B5,704.0,0.5,45,150.49
2993,D5,704.0,0.25,37,150.49
2994,G4,704.0,0.25,37,150.49
2995,G#5,705.0,0.5,45,150.49
2996,A5,705.5,0.5,45,150.49
2997,A4,705.5,0.25,37,150.49
2998,D5,705.5,0.25,37,150.49
2999,B5,706.5,0.5,45,150.49
3000,G5,707.0,0.5,45,150.49
3001,A4,707.0,0.25,37,150.49
3002,C#5,707.0,0.25,37,150.49
3003,F5,708.0,0.5,45,150.49
3004,F#5,708.5,0.5,45,150.49
3005,D3,708.5,0.25,60,150.49
3006,A3,708.75,0.25,44,150.49
3007,F#3,709.0,0.25,44,150.49
3008,A3,709.25,0.25,44,150.49
3009,G5,709.5,0.5,45,150.49
3010,F#3,709.5,0.25,44,150.49
3011,A3,709.75,0.25,44,150.49
3012,E5,710.0,0.5,45,150.49
3013,D3,710.0,0.25,55,150.49
3014,A3,710.25,0.25,48,150.49
3015,D5,710.5,1.5,65,150.49
3016,F#3,710.5,0.25,45,150.49
3017,A3,710.75,0.25,43,150.49
3018,F#3,711.0,0.25,43,150.49
3019,A3,711.25,0.25,43,150.49
3020,E3,711.5,0.25,60,150.49
3021,A3,711.75,0.25,44,150.49
3022,F#5,712.0,1.5,65,150.49
3023,G3,712.0,0.25,44,150.49
3024,A3,712.25,0.25,44,150.49
3025,G3,712.5,0.25,44,150.49
3026,A3,712.75,0.25,44,150.49
3027,C#3,713.0,0.25,55,150.49
3028,A3,713.25,0.25,42,150.49
3029,G5,713.5,0.25,67,150.49
3030,E3,713.5,0.25,42,150.49
3031,F#5,713.75,0.25,65,150.49
3032,A3,713.75,0.25,42,150.49
3033,E5,714.0,0.25,64,150.49
3034,E3,714.0,0.25,42,150.49
3035,D5,714.25,0.25,63,150.49
3036,A3,714.25,0.25,42,150.49
3037,C#5,714.5,0.25,61,150.49
3038,D3,714.5,0.25,51,150.49
3039,A3,714.75,0.25,39,150.49
3040,E5,715.0,0.25,65,150.49
3041,F#3,715.0,0.25,39,150.49
3042,D5,715.25,0.25,64,150.49
3043,A3,715.25,0.25,39,150.49
3044,C#5,715.5,0.25,62,150.49
3045,F#3,715.5,0.25,39,150.49
3046,B4,715.75,0.25,61,150.49
3047,A3,715.75,0.25,39,150.49
3048,A4,716.0,0.25,60,150.49
3049,D3,716.0,0.25,50,150.49
3050,G4,716.25,0.25,58,150.49
3051,A3,716.25,0.25,40,150.49
3052,F#4,716.5,0.25,61,150.49
3053,F#3,716.5,0.25,40,150.49
3054,A3,716.75,0.25,40,150.49
3055,A4,717.0,0.25,49,150.49
3056,F#3,717.0,0.25,40,150.49
3057,A3,717.25,0.25,40,150.49
3058,D5,717.5,0.25,52,150.49
3059,E3,717.5,0.25,60,150.49
3060,A3,717.75,0.25,44,150.49
3061,F#5,718.0,0.25,55,150.49
3062,G3,718.0,0.25,44,150.49
3063,A3,718.25,0.25,44,150.49
3064,A5,718.5,0.25,58,150.49
3065,G3,718.5,0.25,44,150.49
3066,A3,718.75,0.25,44,150.49
3067,C#3,719.0,0.25,55,150.49
3068,A3,719.25,0.25,42,150.49
3069,G5,719.5,0.25,67,150.49
3070,E3,719.5,0.25,42,150.49
3071,F#5,719.75,0.25,65,150.49
3072,A3,719.75,0.25,42,150.49
3073,E5,720.0,0.25,64,150.49
3074,E3,720.0,0.25,42,150.49
3075,D5,720.25,0.25,63,150.49
3076,A3,720.25,0.25,42,150.49
3077,C#5,720.5,0.25,61,150.49
3078,D3,720.5,0.25,51,150.49
3079,A3,720.75,0.25,39,150.49
3080,E5,721.0,0.25,65,150.49
3081,F#3,721.0,0.25,39,150.49
3082,D5,721.25,0.25,64,150.49
3083,A3,721.25,0.25,39,150.49
3084,C#5,721.5,0.25,62,150.49
3085,F#3,721.5,0.25,39,150.49
3086,B4,721.75,0.25,61,150.49
3087,A3,721.75,0.25,39,150.49
3088,A4,722.0,0.25,60,150.49
3089,D3,722.0,0.25,50,150.49
3090,G4,722.25,0.25,58,150.49
3091,A3,722.25,0.25,40,150.49
3092,F#4,722.5,0.25,61,150.49
3093,F#3,722.5,0.25,40,150.49
3094,A3,722.75,0.25,40,150.49
3095,A4,723.0,0.25,49,150.49
3096,F#3,723.0,0.25,40,150.49
3097,A3,723.25,0.25,40,150.49
3098,D5,723.5,0.25,52,150.49
3099,G3,723.5,0.25,45,150.49
3100,F#5,724.0,0.25,55,150.49
3101,A5,724.5,0.25,58,150.49
3102,D5,725.0,0.25,37,150.49
3103,G4,725.0,0.25,37,150.49
3104,B-5,726.0,0.5,45,150.49
3105,B5,726.5,0.5,43,150.49
3106,D5,726.5,0.25,37,150.49
3107,F#4,726.5,0.25,37,150.49
3108,D6,727.5,0.5,45,150.49
3109,B5,728.0,0.5,41,150.49
3110,D5,728.0,0.25,37,150.49
3111,G4,728.0,0.25,37,150.49
3112,G#5,729.0,0.5,45,150.49
3113,A5,729.5,0.5,44,150.49
3114,D5,729.5,0.25,37,150.49
3115,A4,729.5,0.25,37,150.49
3116,B5,730.5,0.5,45,150.49
3117,G5,731.0,0.5,43,150.49
3118,C#5,731.0,0.25,37,150.49
3119,A4,731.0,0.25,37,150.49
3120,F5,732.0,0.5,45,150.49
3121,F#5,732.5,0.5,43,150.49
3122,G3,732.5,0.25,59,150.49
3123,D4,732.5,0.25,59,150.49
3124,G5,733.5,0.5,45,150.49
3125,E5,734.0,0.5,43,150.49
3126,D4,734.0,0.25,52,150.49
3127,G3,734.0,0.25,52,150.49
3128,B-4,735.0,0.25,64,150.49
3129,B-5,735.0,0.25,64,150.49
3130,B5,735.5,0.25,62,150.49
3131,B4,735.5,0.25,62,150.49
3132,D4,735.5,0.25,52,150.49
3133,F#3,735.5,0.25,52,150.49
3134,D5,736.5,0.25,64,150.49
3135,D6,736.5,0.25,64,150.49
3136,B4,737.0,0.25,62,150.49
3137,B5,737.0,0.25,62,150.49
3138,G3,737.0,0.25,52,150.49
3139,D4,737.0,0.25,52,150.49
3140,G#4,738.0,0.25,64,150.49
3141,G#5,738.0,0.25,64,150.49
3142,A4,738.5,0.25,62,150.49
3143,A5,738.5,0.25,62,150.49
3144,D4,738.5,0.25,52,150.49
3145,A3,738.5,0.25,52,150.49
3146,B4,739.5,0.25,64,150.49
3147,B5,739.5,0.25,64,150.49
3148,G5,740.0,0.25,62,150.49
3149,G4,740.0,0.25,62,150.49
3150,A3,740.0,0.25,52,150.49
3151,C#4,740.0,0.25,52,150.49
3152,F5,741.0,0.25,64,150.49
3153,F4,741.0,0.25,64,150.49
3154,D3,741.5,0.25,67,150.49
3155,F#5,741.5,0.25,62,150.49
3156,F#4,741.5,0.25,62,150.49
3157,D4,741.75,0.25,44,150.49
3158,C#4,742.0,0.25,48,150.49
3159,D4,742.25,0.25,44,150.49
3160,C#4,742.5,0.25,48,150.49
3161,G4,742.5,0.25,64,150.49
3162,G5,742.5,0.25,64,150.49
3163,D4,742.75,0.25,44,150.49
3164,B2,743.0,0.25,62,150.49
3165,E4,743.0,0.25,62,150.49
3166,E5,743.0,0.25,62,150.49
3167,B3,743.25,0.25,43,150.49
3168,B-3,743.5,0.25,47,150.49
3169,D5,743.5,0.5,72,150.49
3170,F#4,743.5,0.5,72,150.49
3171,B3,743.75,0.25,43,150.49
3172,B-3,744.0,0.25,47,150.49
3173,B3,744.25,0.25,43,150.49
3174,G2,744.5,0.25,67,150.49
3175,G3,744.75,0.25,46,150.49
3176,F#3,745.0,0.25,50,150.49
3177,D5,745.0,1.5,68,150.49
3178,F#4,745.0,1.5,68,150.49
3179,G3,745.25,0.25,46,150.49
3180,F#3,745.5,0.25,51,150.49
3181,G3,745.75,0.25,46,150.49
3182,A2,746.0,0.25,55,150.49
3183,A3,746.25,0.25,46,150.49
3184,G#3,746.5,0.25,49,150.49
3185,G4,746.5,1.0,69,150.49
3186,E5,746.5,1.0,69,150.49
3187,A3,746.75,0.25,46,150.49
3188,G#3,747.0,0.25,50,150.49
3189,A3,747.25,0.25,46,150.49
3190,D3,747.5,0.25,67,150.49
3191,B4,747.5,0.375,66,150.49
3192,G5,747.5,0.375,66,150.49
3193,D4,747.75,0.25,44,150.49
3194,E4,747.875,0.125,65,150.49
3195,D5,748.0,1.0,76,150.49
3196,C#4,748.0,0.25,48,150.49
3197,D4,748.25,0.25,44,150.49
3198,C#4,748.5,0.25,48,150.49
3199,D4,748.75,0.25,44,150.49
3200,C#5,749.0,83/1000,69,150.49
3201,B2,749.0,0.25,62,150.49
3202,D5,749.083,83/1000,62,150.49
3203,C#5,749.167,83/1000,63,150.49
3204,B4,749.25,0.125,70,150.49
3205,B3,749.25,0.25,43,150.49
3206,C#5,749.375,0.125,64,150.49
3207,D5,749.5,0.5,72,150.49
3208,B-3,749.5,0.25,47,150.49
3209,B3,749.75,0.25,43,150.49
3210,B-3,750.0,0.25,47,150.49
3211,B3,750.25,0.25,43,150.49
3212,G2,750.5,0.25,67,150.49
3213,G3,750.75,0.25,46,150.49
3214,F#3,751.0,0.25,50,150.49
3215,D5,751.0,0.25,68,150.49
3216,F#4,751.0,0.25,68,150.49
3217,G3,751.25,0.25,46,150.49
3218,F#3,751.5,0.25,51,150.49
3219,D5,751.5,0.25,68,150.49
3220,F#4,751.5,0.25,68,150.49
3221,G3,751.75,0.25,46,150.49
3222,A2,752.0,0.25,55,150.49
3223,F#4,752.0,0.25,68,150.49
3224,D5,752.0,0.25,68,150.49
3225,A3,752.25,0.25,46,150.49
3226,G#3,752.5,0.25,49,150.49
3227,E5,752.5,1.0,69,150.49
3228,G4,752.5,1.0,69,150.49
3229,A3,752.75,0.25,46,150.49
3230,G#3,753.0,0.25,50,150.49
3231,A3,753.25,0.25,46,150.49
3232,G5,753.5,0.375,66,150.49
3233,B4,753.5,0.375,66,150.49
3234,E4,753.875,0.125,65,150.49
3235,D5,754.0,1.0,76,150.49
3236,C#5,755.0,83/1000,69,150.49
3237,D5,755.083,83/1000,62,150.49
3238,C#5,755.167,83/1000,63,150.49
3239,B4,755.25,0.125,70,150.49
3240,C#5,755.375,0.125,64,150.49
3241,D5,755.5,0.5,72,150.49
3242,F#4,756.0,0.5,45,150.49
3243,A4,756.5,0.5,39,150.49
3244,C#4,756.5,0.5,35,150.49
3245,A3,756.5,0.5,35,150.49
3246,B4,757.0,0.5,45,150.49
3247,C#5,757.5,0.5,41,150.49
3248,D5,758.0,0.5,42,150.49
3249,E5,758.5,0.5,47,150.49
3250,A4,759.0,0.5,40,150.49
3251,B4,759.5,0.5,37,150.49
3252,D4,759.5,0.5,38,150.49
3253,D3,759.5,0.5,38,150.49
3254,C#5,760.0,0.5,46,150.49
3255,D5,760.5,0.5,44,150.49
3256,E5,761.0,0.5,47,150.49
3257,F#5,761.5,0.5,49,150.49
3258,F#4,762.0,0.5,40,150.49
3259,A4,762.0,0.5,40,150.49
3260,C#5,762.5,0.5,38,150.49
3261,A4,762.5,0.5,38,150.49
3262,A3,762.5,0.5,43,150.49
3263,E4,762.5,0.5,43,150.49
3264,C#4,762.5,0.5,43,150.49
3265,D5,763.0,0.5,48,150.49
3266,B4,763.0,0.5,48,150.49
3267,E5,763.5,0.5,46,150.49
3268,C#5,763.5,0.5,46,150.49
3269,F#5,764.0,0.5,50,150.49
3270,D5,764.0,0.5,50,150.49
3271,E5,764.5,0.5,52,150.49
3272,G5,764.5,0.5,52,150.49
3273,A4,765.0,0.5,48,150.49
3274,C#5,765.0,0.5,48,150.49
3275,D5,765.5,0.5,46,150.49
3276,B4,765.5,0.5,46,150.49
3277,F#4,765.5,0.5,53,150.49
3278,D4,765.5,0.5,53,150.49
3279,E5,766.0,0.5,58,150.49
3280,C#5,766.0,0.5,58,150.49
3281,F#5,766.5,0.5,54,150.49
3282,D5,766.5,0.5,54,150.49
3283,G5,767.0,0.5,60,150.49
3284,E5,767.0,0.5,60,150.49
3285,F#5,767.5,0.5,64,150.49
3286,A5,767.5,0.5,64,150.49
3287,D4,768.5,1.5,32,150.49
3288,F#4,768.5,1.5,32,150.49
3289,A4,768.75,0.25,45,150.49
3290,A5,769.0,1.0,50,150.49
3291,F#5,770.0,0.375,47,150.49
3292,G#4,770.0,1.5,32,150.49
3293,B3,770.0,1.5,32,150.49
3294,E5,770.375,0.125,47,150.49
3295,D5,770.5,0.188,52,150.49
3296,C#5,771.0,0.188,47,150.49
3297,D5,771.5,0.188,47,150.49
3298,A4,771.5,1.5,32,150.49
3299,A3,771.5,1.5,32,150.49
3300,E5,771.875,0.125,46,150.49
3301,D5,772.0,0.188,50,150.49
3302,C#5,772.5,0.188,46,150.49
3303,D5,773.0,0.188,45,150.49
3304,F#5,773.5,1.0,48,150.49
3305,D5,773.5,1.0,48,150.49
3306,C#5,774.5,0.25,40,150.49
3307,E5,774.5,0.25,40,150.49
3308,E4,774.5,1.5,32,150.49
3309,A3,774.5,1.5,32,150.49
3310,G4,774.75,0.25,45,150.49
3311,G5,775.0,1.0,50,150.49
3312,E5,776.0,0.375,47,150.49
3313,C#4,776.0,1.5,32,150.49
3314,E4,776.0,1.5,32,150.49
3315,D5,776.375,0.125,47,150.49
3316,C#5,776.5,0.188,52,150.49
3317,B4,777.0,0.188,47,150.49
3318,C#5,777.5,0.188,47,150.49
3319,D4,777.5,1.5,32,150.49
3320,A4,777.5,1.5,32,150.49
3321,A4,778.0,0.188,50,150.49
3322,E5,778.5,0.188,46,150.49
3323,A5,779.0,0.188,45,150.49
3324,D3,779.0,0.5,51,150.49
3325,D4,779.5,0.25,45,150.49
3326,G5,779.5,1.0,48,150.49
3327,E5,779.5,1.0,48,150.49
3328,E4,780.0,0.25,48,150.49
3329,F#4,780.5,0.5,52,150.49
3330,D5,780.5,0.375,40,150.49
3331,F#5,780.5,0.375,40,150.49
3332,D5,780.875,0.125,48,150.49
3333,F#5,781.0,1.0,52,150.49
3334,G5,782.0,0.5,48,150.49
3335,G3,782.0,0.5,50,150.49
3336,B5,782.5,0.25,59,150.49
3337,G4,782.5,0.25,44,150.49
3338,A5,782.75,0.25,57,150.49
3339,G5,783.0,0.25,55,150.49
3340,A4,783.0,0.25,48,150.49
3341,F#5,783.25,0.25,53,150.49
3342,E5,783.5,0.25,51,150.49
3343,B4,783.5,0.5,53,150.49
3344,D5,783.75,0.125,47,150.49
3345,G5,783.875,0.125,46,150.49
3346,B5,784.0,1.0,58,150.49
3347,C#6,785.0,0.5,49,150.49
3348,B3,785.0,0.5,48,150.49
3349,E4,785.0,0.5,48,150.49
3350,G3,785.0,0.5,48,150.49
3351,E6,785.5,0.25,59,150.49
3352,D6,785.75,0.25,57,150.49
3353,C#6,786.0,0.25,55,150.49
3354,B5,786.25,0.25,53,150.49
3355,A5,786.5,0.25,51,150.49
3356,D4,786.5,0.25,48,150.49
3357,A3,786.5,0.25,48,150.49
3358,F#4,786.5,0.25,48,150.49
3359,G5,786.75,0.25,51,150.49
3360,C#6,787.0,0.25,59,150.49
3361,B5,787.25,0.25,58,150.49
3362,A5,787.5,0.25,56,150.49
3363,G5,787.75,0.25,55,150.49
3364,F#5,788.0,0.25,58,150.49
3365,E4,788.0,0.25,48,150.49
3366,A3,788.0,0.25,48,150.49
3367,G4,788.0,0.25,48,150.49
3368,E5,788.25,0.25,62,150.49
3369,B5,788.5,0.25,63,150.49
3370,A5,788.75,0.25,61,150.49
3371,G5,789.0,0.25,59,150.49
3372,F#5,789.25,0.25,57,150.49
3373,E5,789.5,0.25,56,150.49
3374,F#4,789.5,0.25,49,150.49
3375,D4,789.5,0.25,49,150.49
3376,D5,789.75,0.25,54,150.49
3377,A5,790.0,0.25,59,150.49
3378,G5,790.25,0.25,61,150.49
3379,F#5,790.5,0.25,60,150.49
3380,D2,790.5,0.25,45,150.49
3381,E5,790.75,0.25,59,150.49
3382,F#2,790.75,0.25,45,150.49
3383,D5,791.0,0.25,58,150.49
3384,A2,791.0,0.25,52,150.49
3385,C#5,791.25,0.25,61,150.49
3386,D5,791.5,0.25,63,150.49
3387,F#2,792.0,0.25,48,150.49
3388,A2,792.25,0.25,48,150.49
3389,D4,792.5,0.25,66,150.49
3390,D3,792.5,0.25,57,150.49
3391,F#4,792.75,0.25,66,150.49
3392,A4,793.0,0.25,73,150.49
3393,A2,793.5,0.25,51,150.49
3394,D3,793.75,0.25,51,150.49
3395,F#4,794.0,0.25,70,150.49
3396,F#3,794.0,0.25,57,150.49
3397,A4,794.25,0.25,70,150.49
3398,D5,794.5,0.25,75,150.49
3399,D3,795.0,0.25,48,150.49
3400,F#3,795.25,0.25,48,150.49
3401,A4,795.5,0.25,69,150.49
3402,A3,795.5,0.25,57,150.49
3403,D5,795.75,0.25,69,150.49
3404,F#5,796.0,0.25,81,150.49
3405,D5,797.0,0.25,70,150.49
3406,F#5,797.25,0.25,70,150.49
3407,A5,797.5,0.25,82,150.49
3408,A3,798.5,3.0,29,150.49
3409,F#4,798.5,1.5,32,150.49
3410,D4,798.5,1.5,32,150.49
3411,E4,800.0,1.5,30,150.49
3412,G4,800.0,1.5,30,150.49
3413,A5,800.5,1.25,45,150.49
3414,A3,801.5,0.5,29,150.49
3415,D4,801.5,0.5,32,150.49
3416,F#4,801.5,0.5,32,150.49
3417,B5,801.75,0.25,42,150.49
3418,D5,802.0,1.0,47,150.49
3419,C#5,803.058,221/500,47,150.49
3420,D5,803.5,0.375,55,150.49
3421,C#5,803.5,29/500,47,150.49
3422,D6,804.0,0.25,54,150.49
3423,C#6,804.5,0.25,52,150.49
3424,A3,804.5,3.0,29,150.49
3425,D4,804.5,1.5,32,150.49
3426,F#4,804.5,1.5,32,150.49
3427,B5,805.0,0.25,50,150.49
3428,A5,805.5,0.25,49,150.49
3429,G#5,806.0,0.25,47,150.49
3430,G4,806.0,1.5,30,150.49
3431,E4,806.0,1.5,30,150.49
3432,A5,806.5,0.625,45,150.49
3433,B5,807.125,0.125,35,150.49
3434,A5,807.25,0.125,35,150.49
3435,G#5,807.375,0.125,35,150.49
3436,A5,807.5,0.25,45,150.49
3437,A3,807.5,0.5,29,150.49
3438,D4,807.5,0.5,32,150.49
3439,F#4,807.5,0.5,32,150.49
3440,B5,807.75,0.25,42,150.49
3441,D5,808.0,1.0,47,150.49
3442,C#5,809.058,221/500,47,150.49
3443,D5,809.5,0.375,55,150.49
3444,C#5,809.5,29/500,47,150.49
3445,D6,810.0,0.25,54,150.49
3446,C#6,810.5,0.25,52,150.49
3447,A3,810.5,3.0,29,150.49
3448,D4,810.5,1.5,32,150.49
3449,F#4,810.5,1.5,32,150.49
3450,B5,811.0,0.25,50,150.49
3451,A5,811.5,0.25,49,150.49
3452,G#5,812.0,0.25,47,150.49
3453,G4,812.0,1.5,30,150.49
3454,E4,812.0,1.5,30,150.49
3455,A5,812.5,0.625,45,150.49
3456,B5,813.125,0.125,35,150.49
3457,A5,813.25,0.125,35,150.49
3458,G#5,813.375,0.125,35,150.49
3459,A5,813.5,0.25,45,150.49
3460,D4,813.5,0.5,28,150.49
3461,F#4,813.5,0.5,28,150.49
3462,B5,813.75,0.25,42,150.49
3463,D5,814.0,1.0,47,150.49
3464,B2,815.0,1.5,35,150.49
3465,C#5,815.058,221/500,47,150.49
3466,D5,815.5,0.5,52,150.49
3467,C#5,815.5,29/500,47,150.49
3468,G2,816.5,1.5,37,150.49
3469,B3,817.0,1.5,31,150.49
3470,D4,817.0,1.5,31,150.49
3471,F#3,817.0,1.5,31,150.49
3472,A2,818.0,1.5,39,150.49
3473,B3,818.5,1.5,34,150.49
3474,E4,818.5,1.5,34,150.49
3475,D4,818.5,1.5,34,150.49
3476,D2,819.5,0.5,35,150.49
3477,A4,820.0,1.5,35,150.49
3478,E4,820.0,1.5,35,150.49
3479,C#4,820.0,1.5,35,150.49
3480,B2,821.0,0.25,55,150.49
3481,B3,821.0,0.25,55,150.49
3482,F#4,821.5,0.5,31,150.49
3483,A3,821.5,0.5,31,150.49
3484,D4,821.5,0.5,31,150.49
3485,B2,821.5,0.25,49,150.49
3486,B3,821.5,0.25,49,150.49
3487,B2,822.0,0.25,50,150.49
3488,B3,822.0,0.25,50,150.49
3489,G2,822.5,0.25,65,150.49
3490,G3,822.5,0.25,65,150.49
3491,B5,823.0,0.25,48,150.49
3492,F#5,823.0,0.25,48,150.49
3493,G2,823.0,0.25,58,150.49
3494,G3,823.0,0.25,58,150.49
3495,D6,823.25,0.25,47,150.49
3496,B5,823.5,0.25,48,150.49
3497,F#5,823.5,0.25,48,150.49
3498,G2,823.5,0.25,60,150.49
3499,G3,823.5,0.25,60,150.49
3500,D6,823.75,0.25,47,150.49
3501,F#5,824.0,0.25,49,150.49
3502,B5,824.0,0.25,49,150.49
3503,A2,824.0,0.25,74,150.49
3504,A3,824.0,0.25,74,150.49
3505,D6,824.25,0.25,49,150.49
3506,B5,824.5,0.25,54,150.49
3507,E5,824.5,0.25,54,150.49
3508,A2,824.5,0.25,66,150.49
3509,A3,824.5,0.25,66,150.49
3510,D6,824.75,0.25,53,150.49
3511,E5,825.0,0.25,56,150.49
3512,B5,825.0,0.25,56,150.49
3513,A2,825.0,0.25,68,150.49
3514,A3,825.0,0.25,68,150.49
3515,D6,825.25,0.25,57,150.49
3516,B5,825.5,0.25,58,150.49
3517,E5,825.5,0.25,58,150.49
3518,D2,825.5,0.25,86,150.49
3519,D3,825.5,0.25,86,150.49
3520,D6,825.75,0.25,59,150.49
3521,G5,826.0,0.25,62,150.49
3522,E5,826.0,0.25,62,150.49
3523,C#6,826.25,0.25,62,150.49
3524,E5,826.5,0.25,66,150.49
3525,G5,826.5,0.25,66,150.49
3526,C#6,826.75,0.25,64,150.49
3527,E5,827.0,0.25,68,150.49
3528,G5,827.0,0.25,68,150.49
3529,D2,827.0,0.25,75,150.49
3530,A2,827.0,0.25,75,150.49
3531,F#2,827.0,0.25,75,150.49
3532,D3,827.0,0.25,75,150.49
3533,C#6,827.25,0.25,68,150.49
3534,D6,827.5,0.25,77,150.49
3535,A5,827.5,0.25,77,150.49
3536,F#5,827.5,0.25,77,150.49
3537,D5,827.5,0.25,77,150.49
3538,D2,828.5,0.25,75,150.49
3539,F#2,828.5,0.25,75,150.49
3540,A2,828.5,0.25,75,150.49
3541,D3,828.5,0.25,75,150.49
3542,F#5,829.0,0.25,75,150.49
3543,D5,829.0,0.25,75,150.49
3544,A4,829.0,0.25,75,150.49
3545,A5,829.0,0.25,75,150.49
3546,F#5,830.5,0.25,76,150.49
3547,D5,830.5,0.25,76,150.49
3548,A4,830.5,0.25,76,150.49
