,note_name,start_time,duration,velocity,tempo
0,E-3,0.002,2.0,51,56.88
1,B-4,0.002,1.0,59,56.88
2,G4,0.002,1.0,59,56.88
3,G#4,1.0,271/500,55,56.88
4,F4,1.0,271/500,55,56.88
5,E-4,1.5,271/500,53,56.88
6,G4,1.5,271/500,53,56.88
7,G#4,2.0,271/500,54,56.88
8,C5,2.0,271/500,54,56.88
9,G4,2.5,229/500,52,56.88
10,B-4,2.5,229/500,52,56.88
11,E-3,3.0,1.0,50,56.88
12,B-4,3.0,1.0,59,56.88
13,G4,3.0,1.0,59,56.88
14,F3,4.0,1.0,46,56.88
15,F4,4.0,1.0,53,56.88
16,G#4,4.0,1.0,53,56.88
17,G3,5.0,1.0,45,56.88
18,E-4,5.0,1.0,51,56.88
19,G4,5.0,1.0,51,56.88
20,E4,6.0,1.0,65,56.88
21,B-3,6.0,1.0,55,56.88
22,C#4,6.0,1.0,55,56.88
23,F4,7.0,0.5,55,56.88
24,C4,7.0,1.0,51,56.88
25,G#3,7.0,1.0,51,56.88
26,C5,7.5,0.5,55,56.88
27,B-4,8.0,0.25,53,56.88
28,G#4,8.25,0.25,51,56.88
29,G4,8.5,0.25,53,56.88
30,F4,8.75,0.25,52,56.88
31,A2,9.0,0.25,47,56.88
32,G3,9.0,1.0,59,56.88
33,E-4,9.0,1.0,59,56.88
34,B-2,9.25,0.25,50,56.88
35,C3,9.5,0.25,53,56.88
36,B-2,9.75,229/1000,51,56.88
37,B-2,10.0,1.0,49,56.88
38,F3,10.0,0.25,53,56.88
39,D4,10.0,0.25,53,56.88
40,B-3,10.375,0.125,47,56.88
41,D4,10.5,0.125,51,56.88
42,C4,10.625,0.125,49,56.88
43,E-4,10.75,0.125,52,56.88
44,D4,10.875,0.125,51,56.88
45,F4,11.0,0.125,53,56.88
46,E-4,11.125,0.125,51,56.88
47,G4,11.25,0.125,54,56.88
48,F4,11.375,0.125,54,56.88
49,G#4,11.5,0.125,57,56.88
50,G4,11.625,0.125,54,56.88
51,B-4,11.75,0.125,59,56.88
52,G#4,11.875,0.125,56,56.88
53,C5,12.0,0.125,60,56.88
54,E-2,12.0,1.0,53,56.88
55,E-3,12.0,1.0,53,56.88
56,G4,12.125,0.875,61,56.88
57,B-4,12.125,0.625,61,56.88
58,C5,12.75,0.125,53,56.88
59,B-4,12.875,0.125,50,56.88
60,G#4,13.0,0.25,53,56.88
61,G4,13.25,0.25,51,56.88
62,F4,13.5,0.25,53,56.88
63,E-4,13.75,0.25,52,56.88
64,G5,14.0,0.25,62,56.88
65,E-3,14.0,1.0,49,56.88
66,C4,14.0,1.0,49,56.88
67,D5,14.25,0.25,54,56.88
68,E-5,14.5,0.25,58,56.88
69,C5,14.75,0.25,52,56.88
70,B-4,15.0,1.0,56,56.88
71,C4,15.0,1.0,53,56.88
72,F3,15.0,1.0,53,56.88
73,G#4,16.0,27/250,50,56.88
74,B-3,16.0,1.0,50,56.88
75,D4,16.0,1.0,50,56.88
76,B-4,16.108,53/500,48,56.88
77,G#4,16.215,27/250,50,56.88
78,B-4,16.323,27/250,48,56.88
79,G#4,16.431,53/500,50,56.88
80,B-4,16.538,27/250,49,56.88
81,G#4,16.646,53/500,49,56.88
82,G4,16.75,0.125,57,56.88
83,G#4,16.875,0.125,55,56.88
84,G4,17.0,0.125,60,56.88
85,C4,17.0,0.5,49,56.88
86,E-4,17.0,0.5,49,56.88
87,E-5,17.25,0.25,65,56.88
88,D5,17.5,0.25,62,56.88
89,C#5,17.75,0.25,59,56.88
90,B4,18.0,0.25,57,56.88
91,G#2,18.0,1.0,54,56.88
92,G#3,18.0,1.0,54,56.88
93,D5,18.188,0.062,53,56.88
94,C5,18.25,0.25,61,56.88
95,B-4,18.438,0.062,53,56.88
96,G#4,18.5,0.25,57,56.88
97,G4,18.688,0.062,47,56.88
98,F4,18.75,0.25,55,56.88
99,E-4,19.0,1.5,51,56.88
100,B-2,19.0,2.0,50,56.88
101,G3,19.0,1.0,50,56.88
102,G#3,20.0,1.0,40,56.88
103,G4,20.5,0.25,50,56.88
104,D4,20.5,0.5,50,56.88
105,F4,20.75,0.25,47,56.88
106,E-4,21.0,1.0,46,56.88
107,E-3,21.0,0.25,32,56.88
108,G3,21.25,0.25,32,56.88
109,B-3,21.5,0.25,30,56.88
110,G3,21.75,0.25,27,56.88
111,E-3,22.0,0.25,33,56.88
112,G3,22.25,0.25,29,56.88
113,B-3,22.5,0.25,31,56.88
114,G4,22.5,0.5,49,56.88
115,B-4,22.5,0.5,49,56.88
116,G3,22.75,0.25,29,56.88
117,E-3,23.0,0.25,33,56.88
118,G4,23.0,0.5,52,56.88
119,B-4,23.0,0.5,52,56.88
120,G3,23.25,0.25,29,56.88
121,B-3,23.5,0.25,31,56.88
122,G4,23.5,0.5,46,56.88
123,B-4,23.5,0.5,46,56.88
124,G3,23.75,0.25,29,56.88
125,G#4,24.0,1.5,57,56.88
126,E-5,24.0,0.5,57,56.88
127,E-3,24.0,0.25,36,56.88
128,F3,24.25,0.25,27,56.88
129,D5,24.5,1.0,50,56.88
130,G#3,24.5,0.25,30,56.88
131,F3,24.75,0.25,27,56.88
132,E-3,25.0,0.25,32,56.88
133,F3,25.25,0.25,27,56.88
134,B-5,25.5,3/10,54,56.88
135,G#3,25.5,0.25,30,56.88
136,G#5,25.75,0.25,51,56.88
137,F3,25.75,0.25,27,56.88
138,G5,26.0,3/10,54,56.88
139,E-3,26.0,0.25,32,56.88
140,F5,26.25,3/10,52,56.88
141,F3,26.25,0.25,27,56.88
142,E-5,26.5,3/10,52,56.88
143,G#3,26.5,0.25,30,56.88
144,D5,26.75,0.25,49,56.88
145,F3,26.75,0.25,27,56.88
146,F5,27.0,83/1000,54,56.88
147,E-3,27.0,0.25,33,56.88
148,E-5,27.083,667/1000,52,56.88
149,G3,27.25,0.25,27,56.88
150,B-3,27.5,0.25,30,56.88
151,D5,27.75,0.125,45,56.88
152,G3,27.75,0.25,27,56.88
153,C5,27.875,0.125,44,56.88
154,B-4,28.0,0.5,45,56.88
155,E-3,28.0,0.25,29,56.88
156,G3,28.25,0.25,27,56.88
157,B-3,28.5,0.25,30,56.88
158,G4,28.5,0.5,45,56.88
159,B-4,28.5,0.5,45,56.88
160,G3,28.75,0.25,27,56.88
161,E-3,29.0,0.25,29,56.88
162,G4,29.0,0.5,50,56.88
163,B-4,29.0,0.5,50,56.88
164,G3,29.25,0.25,27,56.88
165,B-3,29.5,0.25,30,56.88
166,B-4,29.5,0.5,45,56.88
167,G4,29.5,0.5,45,56.88
168,G3,29.75,0.25,27,56.88
169,G#4,30.0,1.5,56,56.88
170,E-5,30.0,0.5,56,56.88
171,E-3,30.0,0.25,35,56.88
172,F3,30.25,0.25,29,56.88
173,D5,30.5,1.0,46,56.88
174,G#3,30.5,0.25,30,56.88
175,F3,30.75,0.25,29,56.88
176,E-3,31.0,0.25,32,56.88
177,F3,31.25,0.25,27,56.88
178,B-5,31.5,3/10,53,56.88
179,G#3,31.5,0.25,27,56.88
180,G#5,31.75,0.25,50,56.88
181,F3,31.75,0.25,27,56.88
182,G5,32.0,3/10,53,56.88
183,E-3,32.0,0.25,32,56.88
184,F5,32.25,3/10,50,56.88
185,F3,32.25,0.25,27,56.88
186,E-5,32.5,3/10,52,56.88
187,G#3,32.5,0.25,27,56.88
188,D5,32.75,0.25,50,56.88
189,F3,32.75,0.25,27,56.88
190,E-5,33.0,0.25,53,56.88
191,G3,33.0,1.0,27,56.88
192,E-3,33.0,1.0,27,56.88
193,F5,33.25,83/1000,43,56.88
194,E-5,33.333,83/1000,43,56.88
195,D5,33.417,83/1000,43,56.88
196,E-5,33.5,0.125,43,56.88
197,F5,33.625,0.125,44,56.88
198,G5,33.75,0.125,45,56.88
199,E-5,33.875,0.125,44,56.88
200,B-4,34.0,0.25,43,56.88
201,B-4,34.5,0.5,48,56.88
202,G4,34.5,0.5,48,56.88
203,B-3,34.5,0.5,32,56.88
204,G3,34.5,0.5,32,56.88
205,F4,35.0,0.5,45,56.88
206,G#4,35.0,0.5,45,56.88
207,G#3,35.0,0.5,34,56.88
208,C4,35.0,0.5,34,56.88
209,E-4,35.5,0.5,49,56.88
210,G4,35.5,0.5,49,56.88
211,A3,35.5,0.5,35,56.88
212,C4,35.5,0.5,35,56.88
213,E-4,36.0,1.0,53,56.88
214,B-4,36.0,0.75,53,56.88
215,B-3,36.0,1.0,37,56.88
216,G4,36.75,0.25,39,56.88
217,D4,37.0,1.0,35,56.88
218,F4,37.0,1.0,35,56.88
219,B-3,37.5,0.5,46,56.88
220,F3,38.0,0.5,46,56.88
221,D3,38.5,0.5,46,56.88
222,F4,38.875,0.125,67,56.88
223,F5,39.0,1.5,72,56.88
224,B-2,39.0,0.5,53,56.88
225,D3,39.5,0.5,45,56.88
226,F3,40.0,0.5,47,56.88
227,E-5,40.5,0.125,70,56.88
228,B-3,40.5,0.5,45,56.88
229,D5,40.625,0.125,62,56.88
230,C5,40.75,0.125,65,56.88
231,B-4,40.875,0.125,63,56.88
232,A4,41.0,0.5,71,56.88
233,F4,41.0,1.0,51,56.88
234,E-4,41.0,0.5,51,56.88
235,B-4,41.5,0.5,70,56.88
236,D4,41.5,0.5,47,56.88
237,C5,42.0,0.5,67,56.88
238,A4,42.0,0.5,67,56.88
239,E-4,42.0,0.5,51,56.88
240,C4,42.0,0.5,51,56.88
241,E-5,42.5,0.125,65,56.88
242,B-4,42.5,0.5,65,56.88
243,D4,42.5,0.5,47,56.88
244,B-3,42.5,0.5,47,56.88
245,D5,42.625,0.125,62,56.88
246,C5,42.75,0.125,65,56.88
247,D5,42.875,0.125,61,56.88
248,C5,43.0,0.5,65,56.88
249,E-5,43.0,0.5,65,56.88
250,C4,43.0,0.5,47,56.88
251,A3,43.0,0.5,47,56.88
252,F4,43.5,0.5,49,56.88
253,F4,44.0,0.5,53,56.88
254,F4,44.5,0.5,50,56.88
255,E-5,45.0,1.5,72,56.88
256,F3,45.5,0.5,45,56.88
257,A3,46.0,0.5,45,56.88
258,F5,46.5,0.125,69,56.88
259,C4,46.5,0.5,45,56.88
260,E-5,46.625,0.125,63,56.88
261,D5,46.75,0.125,69,56.88
262,C5,46.875,0.125,63,56.88
263,B-4,47.0,0.5,73,56.88
264,D4,47.0,0.5,50,56.88
265,E-4,47.5,0.5,45,56.88
266,F4,47.5,0.5,45,56.88
267,A4,47.5,0.5,70,56.88
268,C5,47.5,0.5,70,56.88
269,D4,48.0,0.5,51,56.88
270,F4,48.0,0.5,45,56.88
271,D5,48.0,0.5,71,56.88
272,B-4,48.0,0.5,71,56.88
273,F5,48.5,0.125,67,56.88
274,C5,48.5,0.5,67,56.88
275,C4,48.5,0.5,45,56.88
276,E-4,48.5,0.5,45,56.88
277,E-5,48.625,0.125,67,56.88
278,D5,48.75,0.125,67,56.88
279,E-5,48.875,0.125,64,56.88
280,D5,49.0,0.25,72,56.88
281,F5,49.0,0.25,72,56.88
282,D4,49.0,0.5,50,56.88
283,B-3,49.0,0.5,50,56.88
284,B-2,49.5,9/20,54,56.88
285,B-2,50.0,9/20,57,56.88
286,B-2,50.5,9/20,54,56.88
287,G#5,51.0,1.5,76,56.88
288,D3,51.5,0.5,54,56.88
289,F3,52.0,0.5,56,56.88
290,G5,52.5,0.125,67,56.88
291,G#3,52.5,0.5,52,56.88
292,F5,52.625,0.125,63,56.88
293,E-5,52.75,0.125,67,56.88
294,D5,52.875,0.125,64,56.88
295,E-5,53.0,0.5,72,56.88
296,G3,53.0,0.5,56,56.88
297,F5,53.5,0.25,74,56.88
298,D3,53.5,0.25,53,56.88
299,F#5,54.0,1.5,80,56.88
300,B-3,54.5,0.5,53,56.88
301,E-3,54.5,0.5,53,56.88
302,B-3,55.0,0.5,53,56.88
303,E-3,55.0,0.5,53,56.88
304,G#5,55.5,0.25,72,56.88
305,B3,55.5,0.5,55,56.88
306,E-3,55.5,0.5,55,56.88
307,G5,55.75,0.25,69,56.88
308,F5,56.0,0.25,70,56.88
309,E-3,56.0,0.5,55,56.88
310,C4,56.0,0.5,55,56.88
311,E-5,56.25,0.25,67,56.88
312,D5,56.5,0.25,67,56.88
313,A3,56.5,0.5,53,56.88
314,E-3,56.5,0.5,53,56.88
315,C5,56.75,0.25,64,56.88
316,F5,57.0,167/1000,75,56.88
317,B-3,57.0,0.5,54,56.88
318,D3,57.0,0.5,54,56.88
319,E5,57.167,167/1000,71,56.88
320,F5,57.333,167/1000,73,56.88
321,G5,57.5,167/1000,75,56.88
322,E-3,57.5,0.5,50,56.88
323,B-3,57.5,0.5,50,56.88
324,G4,57.667,167/1000,67,56.88
325,E-5,57.833,167/1000,69,56.88
326,B-4,58.0,1.0,75,56.88
327,F3,58.0,0.5,50,56.88
328,D4,58.0,0.5,50,56.88
329,D4,58.5,0.5,46,56.88
330,F3,58.5,0.5,46,56.88
331,A4,59.0,1.0,62,56.88
332,D5,59.0,0.25,68,56.88
333,E-4,59.0,0.5,42,56.88
334,F3,59.0,0.5,42,56.88
335,C5,59.25,0.25,60,56.88
336,B-4,59.5,0.25,66,56.88
337,E-4,59.5,0.5,42,56.88
338,F3,59.5,0.5,42,56.88
339,C5,59.75,0.25,59,56.88
340,B-4,60.0,1.0,60,56.88
341,D4,60.0,0.25,45,56.88
342,B-3,60.0,0.25,45,56.88
343,B-3,60.25,0.25,50,56.88
344,D4,60.5,0.25,54,56.88
345,F4,60.75,0.25,57,56.88
346,E-4,61.0,0.25,63,56.88
347,F4,61.25,0.25,54,56.88
348,D4,61.5,0.25,63,56.88
349,B-4,61.5,0.5,75,56.88
350,F5,61.5,0.5,75,56.88
351,F4,61.75,0.25,54,56.88
352,C4,62.0,0.25,63,56.88
353,F5,62.0,0.5,70,56.88
354,C5,62.0,0.5,70,56.88
355,F4,62.25,0.25,56,56.88
356,B-3,62.5,0.25,63,56.88
357,D5,62.5,0.5,76,56.88
358,F5,62.5,0.5,76,56.88
359,F4,62.75,0.25,55,56.88
360,F5,63.0,0.625,80,56.88
361,E-5,63.0,1.5,63,56.88
362,A3,63.0,0.25,63,56.88
363,C4,63.25,0.25,53,56.88
364,E-4,63.5,0.25,56,56.88
365,G5,63.625,0.125,69,56.88
366,F5,63.75,0.125,67,56.88
367,D4,63.75,0.25,53,56.88
368,E5,63.875,0.125,70,56.88
369,F5,64.0,0.25,76,56.88
370,C4,64.0,0.25,61,56.88
371,B-3,64.25,0.25,54,56.88
372,A3,64.5,0.25,56,56.88
373,A4,64.5,0.5,75,56.88
374,F5,64.5,0.5,75,56.88
375,G3,64.75,0.25,54,56.88
376,F3,65.0,0.25,56,56.88
377,B-4,65.0,0.5,76,56.88
378,G5,65.0,0.5,76,56.88
379,G3,65.25,0.25,54,56.88
380,E-3,65.5,0.25,56,56.88
381,C5,65.5,0.5,75,56.88
382,A5,65.5,0.5,75,56.88
383,F3,65.75,0.25,54,56.88
384,B-5,66.0,0.625,86,56.88
385,B-4,66.0,1.5,86,56.88
386,D3,66.0,0.25,61,56.88
387,F3,66.25,0.25,52,56.88
388,B-3,66.5,0.25,54,56.88
389,C6,66.625,0.125,75,56.88
390,D6,66.75,0.125,76,56.88
391,F3,66.75,0.25,51,56.88
392,B-5,66.875,0.125,72,56.88
393,F5,67.0,0.25,78,56.88
394,D4,67.0,0.25,57,56.88
395,D5,67.5,0.5,54,56.88
396,F5,67.5,0.5,54,56.88
397,B-3,67.5,0.5,41,56.88
398,D4,67.5,0.5,41,56.88
399,C5,68.0,0.5,54,56.88
400,E-5,68.0,0.5,54,56.88
401,C4,68.0,0.5,43,56.88
402,E-4,68.0,0.5,43,56.88
403,B-4,68.5,0.5,54,56.88
404,D5,68.5,0.5,54,56.88
405,F4,68.5,0.5,39,56.88
406,D4,68.5,0.5,39,56.88
407,C5,69.0,0.625,57,56.88
408,G4,69.0,1.0,46,56.88
409,E-4,69.0,1.0,46,56.88
410,D5,69.625,0.125,52,56.88
411,E-5,69.75,0.125,54,56.88
412,C5,69.875,0.125,52,56.88
413,G5,70.0,0.25,59,56.88
414,G4,70.5,0.5,49,56.88
415,E-5,70.5,0.5,49,56.88
416,C4,70.5,0.5,41,56.88
417,E-3,70.5,0.5,41,56.88
418,D4,71.0,0.5,43,56.88
419,F3,71.0,1.0,43,56.88
420,F4,71.0,0.5,52,56.88
421,B-4,71.0,0.5,52,56.88
422,E-4,71.5,0.5,42,56.88
423,A4,71.5,0.5,49,56.88
424,C5,71.5,0.5,49,56.88
425,C5,72.0,0.75,54,56.88
426,A4,72.0,1.0,54,56.88
427,E-4,72.0,1.0,45,56.88
428,B-3,72.0,1.25,45,56.88
429,C#5,72.75,0.25,50,56.88
430,D4,73.0,0.25,35,56.88
431,B-4,73.0,0.5,45,56.88
432,D5,73.0,0.5,45,56.88
433,B-3,73.25,0.25,51,56.88
434,D4,73.5,0.25,54,56.88
435,B-4,73.5,0.5,74,56.88
436,F5,73.5,0.5,74,56.88
437,F4,73.75,0.25,51,56.88
438,E-4,74.0,0.25,57,56.88
439,C5,74.0,0.5,70,56.88
440,F5,74.0,0.5,70,56.88
441,D4,74.25,0.25,54,56.88
442,C4,74.5,0.25,55,56.88
443,F5,74.5,0.5,75,56.88
444,D5,74.5,0.5,75,56.88
445,B-3,74.75,0.25,53,56.88
446,E-5,75.0,1.5,83,56.88
447,F5,75.0,0.625,83,56.88
448,A3,75.0,0.25,63,56.88
449,C4,75.25,0.25,54,56.88
450,E-4,75.5,0.25,56,56.88
451,G5,75.625,0.125,69,56.88
452,F5,75.75,0.125,71,56.88
453,D4,75.75,0.25,54,56.88
454,E5,75.875,0.125,67,56.88
455,F5,76.0,0.25,77,56.88
456,C4,76.0,0.25,61,56.88
457,B-3,76.25,0.25,54,56.88
458,A3,76.5,0.25,56,56.88
459,A4,76.5,0.5,76,56.88
460,F5,76.5,0.5,76,56.88
461,G3,76.75,0.25,54,56.88
462,F3,77.0,0.25,56,56.88
463,G5,77.0,0.5,81,56.88
464,B-4,77.0,0.5,81,56.88
465,G3,77.25,0.25,54,56.88
466,E-3,77.5,0.25,56,56.88
467,C5,77.5,0.5,76,56.88
468,A5,77.5,0.5,76,56.88
469,F3,77.75,0.25,54,56.88
470,B-5,78.0,0.625,86,56.88
471,B-4,78.0,1.5,86,56.88
472,D3,78.0,0.25,61,56.88
473,F3,78.25,0.25,46,56.88
474,B-3,78.5,0.25,51,56.88
475,C6,78.625,0.125,67,56.88
476,D6,78.75,0.125,70,56.88
477,F3,78.75,0.25,45,56.88
478,B-5,78.875,0.125,66,56.88
479,F5,79.0,0.25,63,56.88
480,D4,79.0,0.25,50,56.88
481,D5,79.5,0.5,54,56.88
482,F5,79.5,0.5,54,56.88
483,B-3,79.5,0.5,41,56.88
484,D4,79.5,0.5,41,56.88
485,C5,80.0,0.5,54,56.88
486,E-5,80.0,0.5,54,56.88
487,C4,80.0,0.5,43,56.88
488,E-4,80.0,0.5,43,56.88
489,B-4,80.5,0.5,54,56.88
490,D5,80.5,0.5,54,56.88
491,F4,80.5,0.5,42,56.88
492,D4,80.5,0.5,42,56.88
493,B4,81.0,0.125,45,56.88
494,E-4,81.0,1.0,43,56.88
495,G4,81.0,1.0,43,56.88
496,C5,81.125,0.125,45,56.88
497,D5,81.25,0.125,46,56.88
498,C5,81.375,0.125,45,56.88
499,E-5,81.5,0.125,50,56.88
500,D5,81.625,0.125,47,56.88
501,F5,81.75,0.125,52,56.88
502,E-5,81.875,0.125,50,56.88
503,G5,82.0,1.0,60,56.88
504,F5,83.0,0.5,54,56.88
505,A3,83.0,0.5,43,56.88
506,E-4,83.0,1.0,43,56.88
507,F3,83.0,1.0,43,56.88
508,C4,83.5,0.5,43,56.88
509,A4,83.875,0.125,50,56.88
510,B-4,84.0,1.0,51,56.88
511,B-3,84.0,0.25,43,56.88
512,D4,84.25,0.25,39,56.88
513,F4,84.5,0.25,40,56.88
514,D4,84.75,0.25,42,56.88
515,B-3,85.0,0.25,46,56.88
516,D4,85.25,0.25,44,56.88
517,G#5,85.5,0.5,66,56.88
518,F4,85.5,0.25,45,56.88
519,D4,85.75,0.25,46,56.88
520,G5,86.0,0.5,70,56.88
521,E-4,86.0,0.25,53,56.88
522,C4,86.25,0.25,50,56.88
523,A5,86.5,0.5,73,56.88
524,F4,86.5,0.25,51,56.88
525,E-4,86.75,0.25,53,56.88
526,C6,87.0,0.5,76,56.88
527,D4,87.0,0.25,56,56.88
528,F4,87.25,0.25,51,56.88
529,B-5,87.5,0.5,71,56.88
530,D4,87.5,0.25,53,56.88
531,C4,87.75,0.25,50,56.88
532,B-3,88.0,0.25,64,56.88
533,G#3,88.25,0.25,56,56.88
534,G#4,88.5,0.5,69,56.88
535,F3,88.5,0.25,59,56.88
536,D3,88.75,0.25,56,56.88
537,G4,89.0,0.5,69,56.88
538,E-3,89.0,0.25,64,56.88
539,C3,89.25,0.25,59,56.88
540,F3,89.5,0.25,64,56.88
541,E-4,89.5,0.5,63,56.88
542,A4,89.5,0.5,63,56.88
543,F2,89.75,0.25,54,56.88
544,B-2,90.0,1.5,46,56.88
545,C5,90.0,1.0,54,56.88
546,E-4,90.0,1.0,54,56.88
547,B-4,91.0,0.5,42,56.88
548,D4,91.0,0.5,42,56.88
549,G#3,91.5,0.5,42,56.88
550,D4,91.5,0.5,47,56.88
551,F4,91.5,0.5,47,56.88
552,G3,92.0,0.5,45,56.88
553,E-4,92.0,0.5,52,56.88
554,G4,92.0,0.5,52,56.88
555,F3,92.5,0.5,49,56.88
556,F4,92.5,0.5,55,56.88
557,G#4,92.5,0.5,55,56.88
558,E-3,93.002,2.0,51,56.88
559,B-4,93.002,1.0,59,56.88
560,G4,93.002,1.0,59,56.88
561,G#4,94.0,271/500,55,56.88
562,F4,94.0,271/500,55,56.88
563,E-4,94.5,271/500,53,56.88
564,G4,94.5,271/500,53,56.88
565,G#4,95.0,271/500,54,56.88
566,C5,95.0,271/500,54,56.88
567,G4,95.5,229/500,52,56.88
568,B-4,95.5,229/500,52,56.88
569,E-3,96.0,1.0,50,56.88
570,B-4,96.0,1.0,59,56.88
571,G4,96.0,1.0,59,56.88
572,F3,97.0,1.0,46,56.88
573,F4,97.0,1.0,53,56.88
574,G#4,97.0,1.0,53,56.88
575,G3,98.0,1.0,45,56.88
576,E-4,98.0,1.0,51,56.88
577,G4,98.0,1.0,51,56.88
578,E4,99.0,1.0,65,56.88
579,B-3,99.0,1.0,55,56.88
580,C#4,99.0,1.0,55,56.88
581,F4,100.0,0.5,55,56.88
582,C4,100.0,1.0,51,56.88
583,G#3,100.0,1.0,51,56.88
584,C5,100.5,0.5,55,56.88
585,B-4,101.0,0.25,53,56.88
586,G#4,101.25,0.25,51,56.88
587,G4,101.5,0.25,53,56.88
588,F4,101.75,0.25,52,56.88
589,A2,102.0,0.25,47,56.88
590,G3,102.0,1.0,59,56.88
591,E-4,102.0,1.0,59,56.88
592,B-2,102.25,0.25,50,56.88
593,C3,102.5,0.25,53,56.88
594,B-2,102.75,229/1000,51,56.88
595,B-2,103.0,1.0,49,56.88
596,F3,103.0,0.25,53,56.88
597,D4,103.0,0.25,53,56.88
598,B-3,103.375,0.125,47,56.88
599,D4,103.5,0.125,51,56.88
600,C4,103.625,0.125,49,56.88
601,E-4,103.75,0.125,52,56.88
602,D4,103.875,0.125,51,56.88
603,F4,104.0,0.125,53,56.88
604,E-4,104.125,0.125,51,56.88
605,G4,104.25,0.125,54,56.88
606,F4,104.375,0.125,54,56.88
607,G#4,104.5,0.125,57,56.88
608,G4,104.625,0.125,54,56.88
609,B-4,104.75,0.125,59,56.88
610,G#4,104.875,0.125,56,56.88
611,C5,105.0,0.125,60,56.88
612,E-2,105.0,1.0,53,56.88
613,E-3,105.0,1.0,53,56.88
614,G4,105.125,0.875,61,56.88
615,B-4,105.125,0.625,61,56.88
616,C5,105.75,0.125,53,56.88
617,B-4,105.875,0.125,50,56.88
618,G#4,106.0,0.25,53,56.88
619,G4,106.25,0.25,51,56.88
620,F4,106.5,0.25,53,56.88
621,E-4,106.75,0.25,52,56.88
622,G5,107.0,0.25,62,56.88
623,E-3,107.0,1.0,49,56.88
624,C4,107.0,1.0,49,56.88
625,D5,107.25,0.25,54,56.88
626,E-5,107.5,0.25,58,56.88
627,C5,107.75,0.25,52,56.88
628,B-4,108.0,1.0,56,56.88
629,C4,108.0,1.0,53,56.88
630,F3,108.0,1.0,53,56.88
631,G#4,109.0,27/250,50,56.88
632,B-3,109.0,1.0,50,56.88
633,D4,109.0,1.0,50,56.88
634,B-4,109.108,53/500,48,56.88
635,G#4,109.215,27/250,50,56.88
636,B-4,109.323,27/250,48,56.88
637,G#4,109.431,53/500,50,56.88
638,B-4,109.537,27/250,49,56.88
639,G#4,109.646,53/500,49,56.88
640,G4,109.75,0.125,57,56.88
641,G#4,109.875,0.125,55,56.88
642,G4,110.0,0.125,60,56.88
643,C4,110.0,0.5,49,56.88
644,E-4,110.0,0.5,49,56.88
645,E-5,110.25,0.25,65,56.88
646,D5,110.5,0.25,62,56.88
647,C#5,110.75,0.25,59,56.88
648,B4,111.0,0.25,57,56.88
649,G#2,111.0,1.0,54,56.88
650,G#3,111.0,1.0,54,56.88
651,D5,111.188,0.062,53,56.88
652,C5,111.25,0.25,61,56.88
653,B-4,111.438,0.062,53,56.88
654,G#4,111.5,0.25,57,56.88
655,G4,111.688,0.062,47,56.88
656,F4,111.75,0.25,55,56.88
657,E-4,112.0,1.5,51,56.88
658,B-2,112.0,2.0,50,56.88
659,G3,112.0,1.0,50,56.88
660,G#3,113.0,1.0,40,56.88
661,G4,113.5,0.25,50,56.88
662,D4,113.5,0.5,50,56.88
663,F4,113.75,0.25,47,56.88
664,E-4,114.0,1.0,46,56.88
665,E-3,114.0,0.25,32,56.88
666,G3,114.25,0.25,32,56.88
667,B-3,114.5,0.25,30,56.88
668,G3,114.75,0.25,27,56.88
669,E-3,115.0,0.25,33,56.88
670,G3,115.25,0.25,29,56.88
671,B-3,115.5,0.25,31,56.88
672,G4,115.5,0.5,49,56.88
673,B-4,115.5,0.5,49,56.88
674,G3,115.75,0.25,29,56.88
675,E-3,116.0,0.25,33,56.88
676,G4,116.0,0.5,52,56.88
677,B-4,116.0,0.5,52,56.88
678,G3,116.25,0.25,29,56.88
679,B-3,116.5,0.25,31,56.88
680,G4,116.5,0.5,46,56.88
681,B-4,116.5,0.5,46,56.88
682,G3,116.75,0.25,29,56.88
683,G#4,117.0,1.5,57,56.88
684,E-5,117.0,0.5,57,56.88
685,E-3,117.0,0.25,36,56.88
686,F3,117.25,0.25,27,56.88
687,D5,117.5,1.0,50,56.88
688,G#3,117.5,0.25,30,56.88
689,F3,117.75,0.25,27,56.88
690,E-3,118.0,0.25,32,56.88
691,F3,118.25,0.25,27,56.88
692,B-5,118.5,3/10,54,56.88
693,G#3,118.5,0.25,30,56.88
694,G#5,118.75,0.25,51,56.88
695,F3,118.75,0.25,27,56.88
696,G5,119.0,3/10,54,56.88
697,E-3,119.0,0.25,32,56.88
698,F5,119.25,3/10,52,56.88
699,F3,119.25,0.25,27,56.88
700,E-5,119.5,3/10,52,56.88
701,G#3,119.5,0.25,30,56.88
702,D5,119.75,0.25,49,56.88
703,F3,119.75,0.25,27,56.88
704,F5,120.0,83/1000,54,56.88
705,E-3,120.0,0.25,33,56.88
706,E-5,120.083,667/1000,52,56.88
707,G3,120.25,0.25,27,56.88
708,B-3,120.5,0.25,30,56.88
709,D5,120.75,0.125,45,56.88
710,G3,120.75,0.25,27,56.88
711,C5,120.875,0.125,44,56.88
712,B-4,121.0,0.5,45,56.88
713,E-3,121.0,0.25,29,56.88
714,G3,121.25,0.25,27,56.88
715,B-3,121.5,0.25,30,56.88
716,G4,121.5,0.5,45,56.88
717,B-4,121.5,0.5,45,56.88
718,G3,121.75,0.25,27,56.88
719,E-3,122.0,0.25,29,56.88
720,G4,122.0,0.5,50,56.88
721,B-4,122.0,0.5,50,56.88
722,G3,122.25,0.25,27,56.88
723,B-3,122.5,0.25,30,56.88
724,B-4,122.5,0.5,45,56.88
725,G4,122.5,0.5,45,56.88
726,G3,122.75,0.25,27,56.88
727,G#4,123.0,1.5,56,56.88
728,E-5,123.0,0.5,56,56.88
729,E-3,123.0,0.25,35,56.88
730,F3,123.25,0.25,29,56.88
731,D5,123.5,1.0,46,56.88
732,G#3,123.5,0.25,30,56.88
733,F3,123.75,0.25,29,56.88
734,E-3,124.0,0.25,32,56.88
735,F3,124.25,0.25,27,56.88
736,B-5,124.5,3/10,53,56.88
737,G#3,124.5,0.25,27,56.88
738,G#5,124.75,0.25,50,56.88
739,F3,124.75,0.25,27,56.88
740,G5,125.0,3/10,53,56.88
741,E-3,125.0,0.25,32,56.88
742,F5,125.25,3/10,50,56.88
743,F3,125.25,0.25,27,56.88
744,E-5,125.5,3/10,52,56.88
745,G#3,125.5,0.25,27,56.88
746,D5,125.75,0.25,50,56.88
747,F3,125.75,0.25,27,56.88
748,E-5,126.0,0.25,53,56.88
749,G3,126.0,1.0,27,56.88
750,E-3,126.0,1.0,27,56.88
751,F5,126.25,83/1000,43,56.88
752,E-5,126.333,83/1000,43,56.88
753,D5,126.417,83/1000,43,56.88
754,E-5,126.5,0.125,43,56.88
755,F5,126.625,0.125,44,56.88
756,G5,126.75,0.125,45,56.88
757,E-5,126.875,0.125,44,56.88
758,B-4,127.0,0.25,43,56.88
759,B-4,127.5,0.5,48,56.88
760,G4,127.5,0.5,48,56.88
761,B-3,127.5,0.5,32,56.88
762,G3,127.5,0.5,32,56.88
763,F4,128.0,0.5,45,56.88
764,G#4,128.0,0.5,45,56.88
765,G#3,128.0,0.5,34,56.88
766,C4,128.0,0.5,34,56.88
767,E-4,128.5,0.5,49,56.88
768,G4,128.5,0.5,49,56.88
769,A3,128.5,0.5,35,56.88
770,C4,128.5,0.5,35,56.88
771,E-4,129.0,1.0,53,56.88
772,B-4,129.0,0.75,53,56.88
773,B-3,129.0,1.0,37,56.88
774,G4,129.75,0.25,39,56.88
775,D4,130.0,1.0,35,56.88
776,F4,130.0,1.0,35,56.88
777,B-3,130.5,0.5,46,56.88
778,F3,131.0,0.5,46,56.88
779,D3,131.5,0.5,46,56.88
780,F4,131.875,0.125,67,56.88
781,F5,132.0,1.5,72,56.88
782,B-2,132.0,0.5,53,56.88
783,D3,132.5,0.5,45,56.88
784,F3,133.0,0.5,47,56.88
785,E-5,133.5,0.125,70,56.88
786,B-3,133.5,0.5,45,56.88
787,D5,133.625,0.125,62,56.88
788,C5,133.75,0.125,65,56.88
789,B-4,133.875,0.125,63,56.88
790,A4,134.0,0.5,71,56.88
791,F4,134.0,1.0,51,56.88
792,E-4,134.0,0.5,51,56.88
793,B-4,134.5,0.5,70,56.88
794,D4,134.5,0.5,47,56.88
795,C5,135.0,0.5,67,56.88
796,A4,135.0,0.5,67,56.88
797,E-4,135.0,0.5,51,56.88
798,C4,135.0,0.5,51,56.88
799,E-5,135.5,0.125,65,56.88
800,B-4,135.5,0.5,65,56.88
801,D4,135.5,0.5,47,56.88
802,B-3,135.5,0.5,47,56.88
803,D5,135.625,0.125,62,56.88
804,C5,135.75,0.125,65,56.88
805,D5,135.875,0.125,61,56.88
806,C5,136.0,0.5,65,56.88
807,E-5,136.0,0.5,65,56.88
808,C4,136.0,0.5,47,56.88
809,A3,136.0,0.5,47,56.88
810,F4,136.5,0.5,49,56.88
811,F4,137.0,0.5,53,56.88
812,F4,137.5,0.5,50,56.88
813,E-5,138.0,1.5,72,56.88
814,F3,138.5,0.5,45,56.88
815,A3,139.0,0.5,45,56.88
816,F5,139.5,0.125,69,56.88
817,C4,139.5,0.5,45,56.88
818,E-5,139.625,0.125,63,56.88
819,D5,139.75,0.125,69,56.88
820,C5,139.875,0.125,63,56.88
821,B-4,140.0,0.5,73,56.88
822,D4,140.0,0.5,50,56.88
823,E-4,140.5,0.5,45,56.88
824,F4,140.5,0.5,45,56.88
825,A4,140.5,0.5,70,56.88
826,C5,140.5,0.5,70,56.88
827,D4,141.0,0.5,51,56.88
828,F4,141.0,0.5,45,56.88
829,D5,141.0,0.5,71,56.88
830,B-4,141.0,0.5,71,56.88
831,F5,141.5,0.125,67,56.88
832,C5,141.5,0.5,67,56.88
833,C4,141.5,0.5,45,56.88
834,E-4,141.5,0.5,45,56.88
835,E-5,141.625,0.125,67,56.88
836,D5,141.75,0.125,67,56.88
837,E-5,141.875,0.125,64,56.88
838,D5,142.0,0.25,72,56.88
839,F5,142.0,0.25,72,56.88
840,D4,142.0,0.5,50,56.88
841,B-3,142.0,0.5,50,56.88
842,B-2,142.5,9/20,54,56.88
843,B-2,143.0,9/20,57,56.88
844,B-2,143.5,9/20,54,56.88
845,G#5,144.0,1.5,76,56.88
846,D3,144.5,0.5,54,56.88
847,F3,145.0,0.5,56,56.88
848,G5,145.5,0.125,67,56.88
849,G#3,145.5,0.5,52,56.88
850,F5,145.625,0.125,63,56.88
851,E-5,145.75,0.125,67,56.88
852,D5,145.875,0.125,64,56.88
853,E-5,146.0,0.5,72,56.88
854,G3,146.0,0.5,56,56.88
855,F5,146.5,0.25,74,56.88
856,D3,146.5,0.25,53,56.88
857,F#5,147.0,1.5,80,56.88
858,B-3,147.5,0.5,53,56.88
859,E-3,147.5,0.5,53,56.88
860,B-3,148.0,0.5,53,56.88
861,E-3,148.0,0.5,53,56.88
862,G#5,148.5,0.25,72,56.88
863,B3,148.5,0.5,55,56.88
864,E-3,148.5,0.5,55,56.88
865,G5,148.75,0.25,69,56.88
866,F5,149.0,0.25,70,56.88
867,E-3,149.0,0.5,55,56.88
868,C4,149.0,0.5,55,56.88
869,E-5,149.25,0.25,67,56.88
870,D5,149.5,0.25,67,56.88
871,A3,149.5,0.5,53,56.88
872,E-3,149.5,0.5,53,56.88
873,C5,149.75,0.25,64,56.88
874,F5,150.0,167/1000,75,56.88
875,B-3,150.0,0.5,54,56.88
876,D3,150.0,0.5,54,56.88
877,E5,150.167,167/1000,71,56.88
878,F5,150.333,167/1000,73,56.88
879,G5,150.5,167/1000,75,56.88
880,E-3,150.5,0.5,50,56.88
881,B-3,150.5,0.5,50,56.88
882,G4,150.667,167/1000,67,56.88
883,E-5,150.833,167/1000,69,56.88
884,B-4,151.0,1.0,75,56.88
885,F3,151.0,0.5,50,56.88
886,D4,151.0,0.5,50,56.88
887,D4,151.5,0.5,46,56.88
888,F3,151.5,0.5,46,56.88
889,A4,152.0,1.0,62,56.88
890,D5,152.0,0.25,68,56.88
891,E-4,152.0,0.5,42,56.88
892,F3,152.0,0.5,42,56.88
893,C5,152.25,0.25,60,56.88
894,B-4,152.5,0.25,66,56.88
895,E-4,152.5,0.5,42,56.88
896,F3,152.5,0.5,42,56.88
897,C5,152.75,0.25,59,56.88
898,B-4,153.0,1.0,60,56.88
899,D4,153.0,0.25,45,56.88
900,B-3,153.0,0.25,45,56.88
901,B-3,153.25,0.25,50,56.88
902,D4,153.5,0.25,54,56.88
903,F4,153.75,0.25,57,56.88
904,E-4,154.0,0.25,63,56.88
905,F4,154.25,0.25,54,56.88
906,D4,154.5,0.25,63,56.88
907,B-4,154.5,0.5,75,56.88
908,F5,154.5,0.5,75,56.88
909,F4,154.75,0.25,54,56.88
910,C4,155.0,0.25,63,56.88
911,F5,155.0,0.5,70,56.88
912,C5,155.0,0.5,70,56.88
913,F4,155.25,0.25,56,56.88
914,B-3,155.5,0.25,63,56.88
915,D5,155.5,0.5,76,56.88
916,F5,155.5,0.5,76,56.88
917,F4,155.75,0.25,55,56.88
918,F5,156.0,0.625,80,56.88
919,E-5,156.0,1.5,63,56.88
920,A3,156.0,0.25,63,56.88
921,C4,156.25,0.25,53,56.88
922,E-4,156.5,0.25,56,56.88
923,G5,156.625,0.125,69,56.88
924,F5,156.75,0.125,67,56.88
925,D4,156.75,0.25,53,56.88
926,E5,156.875,0.125,70,56.88
927,F5,157.0,0.25,76,56.88
928,C4,157.0,0.25,61,56.88
929,B-3,157.25,0.25,54,56.88
930,A3,157.5,0.25,56,56.88
931,A4,157.5,0.5,75,56.88
932,F5,157.5,0.5,75,56.88
933,G3,157.75,0.25,54,56.88
934,F3,158.0,0.25,56,56.88
935,B-4,158.0,0.5,76,56.88
936,G5,158.0,0.5,76,56.88
937,G3,158.25,0.25,54,56.88
938,E-3,158.5,0.25,56,56.88
939,C5,158.5,0.5,75,56.88
940,A5,158.5,0.5,75,56.88
941,F3,158.75,0.25,54,56.88
942,B-5,159.0,0.625,86,56.88
943,B-4,159.0,1.5,86,56.88
944,D3,159.0,0.25,61,56.88
945,F3,159.25,0.25,52,56.88
946,B-3,159.5,0.25,54,56.88
947,C6,159.625,0.125,75,56.88
948,D6,159.75,0.125,76,56.88
949,F3,159.75,0.25,51,56.88
950,B-5,159.875,0.125,72,56.88
951,F5,160.0,0.25,78,56.88
952,D4,160.0,0.25,57,56.88
953,D5,160.5,0.5,54,56.88
954,F5,160.5,0.5,54,56.88
955,B-3,160.5,0.5,41,56.88
956,D4,160.5,0.5,41,56.88
957,C5,161.0,0.5,54,56.88
958,E-5,161.0,0.5,54,56.88
959,C4,161.0,0.5,43,56.88
960,E-4,161.0,0.5,43,56.88
961,B-4,161.5,0.5,54,56.88
962,D5,161.5,0.5,54,56.88
963,F4,161.5,0.5,39,56.88
964,D4,161.5,0.5,39,56.88
965,C5,162.0,0.625,57,56.88
966,G4,162.0,1.0,46,56.88
967,E-4,162.0,1.0,46,56.88
968,D5,162.625,0.125,52,56.88
969,E-5,162.75,0.125,54,56.88
970,C5,162.875,0.125,52,56.88
971,G5,163.0,0.25,59,56.88
972,G4,163.5,0.5,49,56.88
973,E-5,163.5,0.5,49,56.88
974,C4,163.5,0.5,41,56.88
975,E-3,163.5,0.5,41,56.88
976,D4,164.0,0.5,43,56.88
977,F3,164.0,1.0,43,56.88
978,F4,164.0,0.5,52,56.88
979,B-4,164.0,0.5,52,56.88
980,E-4,164.5,0.5,42,56.88
981,A4,164.5,0.5,49,56.88
982,C5,164.5,0.5,49,56.88
983,C5,165.0,0.75,54,56.88
984,A4,165.0,1.0,54,56.88
985,E-4,165.0,1.0,45,56.88
986,B-3,165.0,1.25,45,56.88
987,C#5,165.75,0.25,50,56.88
988,D4,166.0,0.25,35,56.88
989,B-4,166.0,0.5,45,56.88
990,D5,166.0,0.5,45,56.88
991,B-3,166.25,0.25,51,56.88
992,D4,166.5,0.25,54,56.88
993,B-4,166.5,0.5,74,56.88
994,F5,166.5,0.5,74,56.88
995,F4,166.75,0.25,51,56.88
996,E-4,167.0,0.25,57,56.88
997,C5,167.0,0.5,70,56.88
998,F5,167.0,0.5,70,56.88
999,D4,167.25,0.25,54,56.88
1000,C4,167.5,0.25,55,56.88
1001,F5,167.5,0.5,75,56.88
1002,D5,167.5,0.5,75,56.88
1003,B-3,167.75,0.25,53,56.88
1004,E-5,168.0,1.5,83,56.88
1005,F5,168.0,0.625,83,56.88
1006,A3,168.0,0.25,63,56.88
1007,C4,168.25,0.25,54,56.88
1008,E-4,168.5,0.25,56,56.88
1009,G5,168.625,0.125,69,56.88
1010,F5,168.75,0.125,71,56.88
1011,D4,168.75,0.25,54,56.88
1012,E5,168.875,0.125,67,56.88
1013,F5,169.0,0.25,77,56.88
1014,C4,169.0,0.25,61,56.88
1015,B-3,169.25,0.25,54,56.88
1016,A3,169.5,0.25,56,56.88
1017,A4,169.5,0.5,76,56.88
1018,F5,169.5,0.5,76,56.88
1019,G3,169.75,0.25,54,56.88
1020,F3,170.0,0.25,56,56.88
1021,G5,170.0,0.5,81,56.88
1022,B-4,170.0,0.5,81,56.88
1023,G3,170.25,0.25,54,56.88
1024,E-3,170.5,0.25,56,56.88
1025,C5,170.5,0.5,76,56.88
1026,A5,170.5,0.5,76,56.88
1027,F3,170.75,0.25,54,56.88
1028,B-5,171.0,0.625,86,56.88
1029,B-4,171.0,1.5,86,56.88
1030,D3,171.0,0.25,61,56.88
1031,F3,171.25,0.25,46,56.88
1032,B-3,171.5,0.25,51,56.88
1033,C6,171.625,0.125,67,56.88
1034,D6,171.75,0.125,70,56.88
1035,F3,171.75,0.25,45,56.88
1036,B-5,171.875,0.125,66,56.88
1037,F5,172.0,0.25,63,56.88
1038,D4,172.0,0.25,50,56.88
1039,D5,172.5,0.5,54,56.88
1040,F5,172.5,0.5,54,56.88
1041,B-3,172.5,0.5,41,56.88
1042,D4,172.5,0.5,41,56.88
1043,C5,173.0,0.5,54,56.88
1044,E-5,173.0,0.5,54,56.88
1045,C4,173.0,0.5,43,56.88
1046,E-4,173.0,0.5,43,56.88
1047,B-4,173.5,0.5,54,56.88
1048,D5,173.5,0.5,54,56.88
1049,F4,173.5,0.5,42,56.88
1050,D4,173.5,0.5,42,56.88
1051,B4,174.0,0.125,45,56.88
1052,E-4,174.0,1.0,43,56.88
1053,G4,174.0,1.0,43,56.88
1054,C5,174.125,0.125,45,56.88
1055,D5,174.25,0.125,46,56.88
1056,C5,174.375,0.125,45,56.88
1057,E-5,174.5,0.125,50,56.88
1058,D5,174.625,0.125,47,56.88
1059,F5,174.75,0.125,52,56.88
1060,E-5,174.875,0.125,50,56.88
1061,G5,175.0,1.0,60,56.88
1062,F5,176.0,0.5,54,56.88
1063,A3,176.0,0.5,43,56.88
1064,E-4,176.0,1.0,43,56.88
1065,F3,176.0,1.0,43,56.88
1066,C4,176.5,0.5,43,56.88
1067,A4,176.875,0.125,50,56.88
1068,B-4,177.0,1.0,51,56.88
1069,B-3,177.0,0.25,43,56.88
1070,D4,177.25,0.25,39,56.88
1071,F4,177.5,0.25,40,56.88
1072,D4,177.75,0.25,42,56.88
1073,B-3,178.0,0.25,46,56.88
1074,D4,178.25,0.25,44,56.88
1075,G#5,178.5,0.5,66,56.88
1076,F4,178.5,0.25,45,56.88
1077,D4,178.75,0.25,46,56.88
1078,G5,179.0,0.5,70,56.88
1079,E-4,179.0,0.25,53,56.88
1080,C4,179.25,0.25,50,56.88
1081,A5,179.5,0.5,73,56.88
1082,F4,179.5,0.25,51,56.88
1083,E-4,179.75,0.25,53,56.88
1084,C6,180.0,0.5,76,56.88
1085,D4,180.0,0.25,56,56.88
1086,F4,180.25,0.25,51,56.88
1087,B-5,180.5,0.5,71,56.88
1088,D4,180.5,0.25,53,56.88
1089,C4,180.75,0.25,50,56.88
1090,B-3,181.0,0.25,64,56.88
1091,G#3,181.25,0.25,56,56.88
1092,G#4,181.5,0.5,69,56.88
1093,F3,181.5,0.25,59,56.88
1094,D3,181.75,0.25,56,56.88
1095,G4,182.0,0.5,69,56.88
1096,E-3,182.0,0.25,64,56.88
1097,C3,182.25,0.25,59,56.88
1098,F3,182.5,0.25,64,56.88
1099,E-4,182.5,0.5,63,56.88
1100,A4,182.5,0.5,63,56.88
1101,F2,182.75,0.25,54,56.88
1102,B-2,183.0,1.5,46,56.88
1103,C5,183.0,1.0,54,56.88
1104,E-4,183.0,1.0,54,56.88
1105,B-4,184.0,0.5,42,56.88
1106,D4,184.0,0.5,42,56.88
1107,G#3,184.5,0.5,42,56.88
1108,D4,184.5,0.5,47,56.88
1109,F4,184.5,0.5,47,56.88
1110,G3,185.0,0.5,45,56.88
1111,E-4,185.0,0.5,52,56.88
1112,G4,185.0,0.5,52,56.88
1113,F3,185.5,0.5,49,56.88
1114,F4,185.5,0.5,55,56.88
1115,G#4,185.5,0.5,55,56.88
1116,E3,186.0,2.0,56,56.88
1117,F#4,186.0,1.0,67,56.88
1118,A4,186.0,1.0,67,56.88
1119,G4,187.0,0.5,62,56.88
1120,B-4,187.0,0.5,62,56.88
1121,B-4,187.5,0.5,54,56.88
1122,C#5,187.5,0.5,54,56.88
1123,C3,188.0,1.0,46,56.88
1124,E4,188.0,0.5,56,56.88
1125,G4,188.0,0.5,56,56.88
1126,G#4,188.5,0.5,51,56.88
1127,C5,188.5,0.5,51,56.88
1128,C#3,189.0,2.0,53,56.88
1129,G4,189.0,1.0,55,56.88
1130,B-4,189.0,1.0,55,56.88
1131,F4,190.0,0.5,52,56.88
1132,G#4,190.0,0.5,52,56.88
1133,F5,190.5,9/20,54,56.88
1134,F5,191.0,9/20,54,56.88
1135,C4,191.0,1.0,43,56.88
1136,G#3,191.0,1.0,43,56.88
1137,F5,191.5,9/20,54,56.88
1138,F#5,192.0,1.0,62,56.88
1139,B-3,192.0,1.0,43,56.88
1140,C#4,192.0,1.0,43,56.88
1141,G5,193.0,0.5,56,56.88
1142,B-5,193.5,1.0,63,56.88
1143,C4,194.0,1.0,43,56.88
1144,B-4,194.0,1.0,43,56.88
1145,E5,194.5,0.5,57,56.88
1146,G5,195.0,1.0,64,56.88
1147,F4,195.0,1.5,43,56.88
1148,B-4,195.0,1.0,43,56.88
1149,F5,196.0,0.5,60,56.88
1150,G#4,196.0,0.5,36,56.88
1151,F2,196.5,9/20,45,56.88
1152,F2,197.0,9/20,46,56.88
1153,F2,197.5,9/20,44,56.88
1154,F2,198.0,3.0,52,56.88
1155,G#5,198.5,0.5,59,56.88
1156,G5,199.0,0.25,61,56.88
1157,F5,199.25,0.25,59,56.88
1158,E-5,199.5,0.25,57,56.88
1159,C#5,199.75,0.25,57,56.88
1160,C5,200.0,0.25,59,56.88
1161,C#5,200.25,0.25,62,56.88
1162,F5,200.5,0.25,66,56.88
1163,C#5,200.75,0.25,60,56.88
1164,C5,201.0,1.0,57,56.88
1165,F2,201.0,1.5,42,56.88
1166,D4,201.0,3.0,57,56.88
1167,G#4,201.0,3.0,57,56.88
1168,B4,202.0,2.0,47,56.88
1169,F2,202.5,9/20,45,56.88
1170,F2,203.0,9/20,46,56.88
1171,F2,203.5,9/20,45,56.88
1172,F#2,204.0,3.0,54,56.88
1173,E-4,204.5,1.0,53,56.88
1174,C5,204.5,0.5,53,56.88
1175,B4,205.0,0.25,56,56.88
1176,C5,205.25,0.25,58,56.88
1177,E-4,205.5,1.0,50,56.88
1178,D5,205.5,0.25,59,56.88
1179,C5,205.75,0.25,56,56.88
1180,B4,206.0,0.25,56,56.88
1181,C5,206.25,0.25,59,56.88
1182,E-4,206.5,0.5,61,56.88
1183,E-5,206.5,0.25,61,56.88
1184,D5,206.75,0.25,60,56.88
1185,B4,207.0,1.0,66,56.88
1186,E-4,207.0,1.0,61,56.88
1187,G2,207.0,1.5,49,56.88
1188,E-4,208.0,2.0,60,56.88
1189,C5,208.0,2.0,60,56.88
1190,G2,208.5,9/20,48,56.88
1191,G2,209.0,9/20,50,56.88
1192,G2,209.5,9/20,47,56.88
1193,G#2,210.0,2.0,55,56.88
1194,E-4,210.5,9/20,62,56.88
1195,C5,210.5,9/20,62,56.88
1196,E-4,211.0,9/20,64,56.88
1197,C5,211.0,9/20,64,56.88
1198,E-4,211.5,9/20,67,56.88
1199,C5,211.5,9/20,67,56.88
1200,A2,212.0,1.0,62,56.88
1201,E-4,212.0,9/20,70,56.88
1202,C5,212.0,9/20,70,56.88
1203,E-4,212.5,9/20,72,56.88
1204,C5,212.5,9/20,72,56.88
1205,C#5,213.0,0.625,74,56.88
1206,E-4,213.0,1.5,74,56.88
1207,B-2,213.0,1.0,62,56.88
1208,C5,213.625,0.125,62,56.88
1209,B-4,213.75,0.125,57,56.88
1210,G#4,213.875,0.125,54,56.88
1211,G4,214.0,0.5,66,56.88
1212,C#3,214.0,1.0,48,56.88
1213,G5,214.5,0.5,67,56.88
1214,G#5,215.0,0.5,67,56.88
1215,C3,215.0,1.0,54,56.88
1216,C5,215.5,0.5,65,56.88
1217,C5,216.0,0.25,65,56.88
1218,C#3,216.0,1.0,44,56.88
1219,B-4,216.25,0.25,56,56.88
1220,C#5,216.5,0.25,60,56.88
1221,F5,216.75,0.25,55,56.88
1222,G#4,217.0,1.5,63,56.88
1223,E-3,217.0,1.0,43,56.88
1224,C4,217.0,1.0,43,56.88
1225,E-3,218.0,1.0,36,56.88
1226,C#4,218.0,1.0,36,56.88
1227,G4,218.5,0.5,55,56.88
1228,C5,218.5,0.25,55,56.88
1229,B-4,218.75,0.25,55,56.88
1230,G#4,219.0,1.0,46,56.88
1231,G#3,219.0,0.25,33,56.88
1232,C4,219.25,0.25,26,56.88
1233,E-4,219.5,0.25,27,56.88
1234,C4,219.75,0.25,25,56.88
1235,G#3,220.0,0.25,30,56.88
1236,C4,220.25,0.25,26,56.88
1237,E-4,220.5,0.25,29,56.88
1238,G#4,220.5,0.5,46,56.88
1239,C5,220.5,0.5,46,56.88
1240,C4,220.75,0.25,26,56.88
1241,G#3,221.0,0.25,33,56.88
1242,G#4,221.0,0.5,49,56.88
1243,C5,221.0,0.5,49,56.88
1244,C4,221.25,0.25,27,56.88
1245,E-4,221.5,0.25,29,56.88
1246,G#4,221.5,0.5,46,56.88
1247,C5,221.5,0.5,46,56.88
1248,C4,221.75,0.25,27,56.88
1249,F5,222.0,0.5,58,56.88
1250,G3,222.0,0.25,36,56.88
1251,B-4,222.0,1.5,58,56.88
1252,C5,222.0,1.5,58,56.88
1253,B-3,222.25,0.25,26,56.88
1254,E5,222.5,1.0,46,56.88
1255,C4,222.5,0.25,27,56.88
1256,B-3,222.75,0.25,26,56.88
1257,G3,223.0,0.25,32,56.88
1258,B-3,223.25,0.25,26,56.88
1259,C4,223.5,0.25,27,56.88
1260,B-4,223.5,0.5,47,56.88
1261,C5,223.5,0.5,47,56.88
1262,B-3,223.75,0.25,25,56.88
1263,G3,224.0,0.25,32,56.88
1264,B-4,224.0,0.5,51,56.88
1265,C5,224.0,0.5,51,56.88
1266,B-3,224.25,0.25,27,56.88
1267,C4,224.5,0.25,27,56.88
1268,B-4,224.5,0.5,47,56.88
1269,C5,224.5,0.5,47,56.88
1270,B-3,224.75,0.25,25,56.88
1271,G5,225.0,0.5,59,56.88
1272,F3,225.0,0.25,36,56.88
1273,G#4,225.0,1.5,59,56.88
1274,C5,225.0,1.5,59,56.88
1275,G#3,225.25,0.25,27,56.88
1276,F5,225.5,1.0,51,56.88
1277,C4,225.5,0.25,30,56.88
1278,G#3,225.75,0.25,27,56.88
1279,F3,226.0,0.25,32,56.88
1280,G#3,226.25,0.25,26,56.88
1281,C4,226.5,0.25,27,56.88
1282,G#4,226.5,0.5,51,56.88
1283,C5,226.5,0.5,51,56.88
1284,G#3,226.75,0.25,26,56.88
1285,F3,227.0,0.25,32,56.88
1286,G#4,227.0,0.5,54,56.88
1287,C5,227.0,0.5,54,56.88
1288,G#3,227.25,0.25,27,56.88
1289,C4,227.5,0.25,29,56.88
1290,G#4,227.5,0.5,49,56.88
1291,C5,227.5,0.5,49,56.88
1292,G#3,227.75,0.25,27,56.88
1293,G#5,228.0,0.5,64,56.88
1294,E-3,228.0,0.25,36,56.88
1295,G#4,228.0,1.5,64,56.88
1296,C5,228.0,1.5,64,56.88
1297,F#3,228.25,0.25,30,56.88
1298,F#5,228.5,1.0,60,56.88
1299,G#3,228.5,0.25,32,56.88
1300,F#3,228.75,0.25,29,56.88
1301,E-3,229.0,0.25,36,56.88
1302,F#3,229.25,0.25,29,56.88
1303,G#3,229.5,0.25,32,56.88
1304,G#4,229.5,9/20,50,56.88
1305,C5,229.5,9/20,50,56.88
1306,F#3,229.75,0.25,29,56.88
1307,E-3,230.0,0.25,35,56.88
1308,G#4,230.0,9/20,55,56.88
1309,C5,230.0,9/20,55,56.88
1310,F#3,230.25,0.25,29,56.88
1311,G#3,230.5,0.25,31,56.88
1312,G#4,230.5,9/20,51,56.88
1313,C5,230.5,9/20,51,56.88
1314,F#3,230.75,0.25,27,56.88
1315,F#5,231.0,0.5,61,56.88
1316,C#3,231.0,0.25,40,56.88
1317,G#4,231.0,1.5,61,56.88
1318,C#5,231.0,1.5,61,56.88
1319,E3,231.25,0.25,34,56.88
1320,E5,231.5,1.0,56,56.88
1321,G#3,231.5,0.25,36,56.88
1322,E3,231.75,0.25,33,56.88
1323,C#3,232.0,0.25,40,56.88
1324,E3,232.25,0.25,33,56.88
1325,G#3,232.5,0.25,36,56.88
1326,G#4,232.5,0.5,59,56.88
1327,E5,232.5,0.5,59,56.88
1328,E3,232.75,0.25,33,56.88
1329,B2,233.0,0.25,39,56.88
1330,G#4,233.0,0.5,64,56.88
1331,E5,233.0,0.5,64,56.88
1332,E-3,233.25,0.25,34,56.88
1333,G#3,233.5,0.25,36,56.88
1334,G#4,233.5,0.5,59,56.88
1335,E-5,233.5,0.5,59,56.88
1336,E-3,233.75,0.25,33,56.88
1337,G#4,234.0,1.5,65,56.88
1338,E-5,234.0,0.75,65,56.88
1339,B-2,234.0,1.5,36,56.88
1340,F3,234.0,1.5,36,56.88
1341,F5,234.75,0.125,52,56.88
1342,E-5,234.875,0.125,49,56.88
1343,D5,235.0,0.5,52,56.88
1344,D4,235.5,0.5,45,56.88
1345,G#4,235.5,0.5,45,56.88
1346,B-2,235.5,0.5,29,56.88
1347,F3,235.5,0.5,29,56.88
1348,D4,236.0,0.5,47,56.88
1349,G#4,236.0,0.5,47,56.88
1350,B-2,236.0,0.5,32,56.88
1351,F3,236.0,0.5,32,56.88
1352,D4,236.5,0.5,45,56.88
1353,G#4,236.5,0.5,45,56.88
1354,B-2,236.5,0.5,29,56.88
1355,F3,236.5,0.5,29,56.88
1356,D4,237.0,1.0,47,56.88
1357,G#4,237.0,1.0,47,56.88
1358,B-2,237.0,1.0,32,56.88
1359,F3,237.0,1.0,32,56.88
1360,D5,238.5,9/20,39,56.88
1361,G#5,238.5,9/20,39,56.88
1362,F4,238.5,9/20,27,56.88
1363,B-3,238.5,9/20,27,56.88
1364,D5,239.0,9/20,39,56.88
1365,G#5,239.0,9/20,39,56.88
1366,F4,239.0,9/20,27,56.88
1367,B-3,239.0,9/20,27,56.88
1368,D5,239.5,9/20,39,56.88
1369,G#5,239.5,9/20,39,56.88
1370,F4,239.5,9/20,27,56.88
1371,B-3,239.5,9/20,27,56.88
1372,D5,240.0,1.0,43,56.88
1373,G#5,240.0,0.5,43,56.88
1374,B-3,240.0,1.0,31,56.88
1375,F4,240.0,1.0,31,56.88
1376,B-5,240.5,0.062,34,56.88
1377,G#5,240.562,0.062,36,56.88
1378,G5,240.625,0.062,39,56.88
1379,G#5,240.688,0.062,41,56.88
1380,B-5,240.75,0.125,40,56.88
1381,C6,240.875,0.125,37,56.88
1382,B-5,241.0,0.25,43,56.88
1383,G#5,241.25,0.25,40,56.88
1384,G5,241.5,0.25,44,56.88
1385,F5,241.75,0.25,44,56.88
1386,E-5,242.0,0.25,46,56.88
1387,D5,242.25,0.25,44,56.88
1388,C5,242.5,0.25,44,56.88
1389,B-4,242.75,229/1000,44,56.88
1390,B-4,243.002,0.75,46,56.88
1391,G4,243.002,1.0,46,56.88
1392,E-3,243.002,2.0,39,56.88
1393,C5,243.75,0.125,46,56.88
1394,B-4,243.875,0.125,46,56.88
1395,F4,244.0,0.5,44,56.88
1396,G#4,244.0,0.5,44,56.88
1397,E-4,244.5,0.5,42,56.88
1398,G4,244.5,0.5,42,56.88
1399,G#4,245.0,0.5,43,56.88
1400,C5,245.0,0.5,43,56.88
1401,G4,245.5,479/1000,41,56.88
1402,B-4,245.5,479/1000,41,56.88
1403,B-4,246.0,0.75,45,56.88
1404,G4,246.0,1.0,45,56.88
1405,E-3,246.0,0.25,37,56.88
1406,G3,246.25,0.25,33,56.88
1407,B-3,246.5,0.25,36,56.88
1408,C5,246.75,0.125,42,56.88
1409,E-3,246.75,0.25,33,56.88
1410,B-4,246.875,0.125,42,56.88
1411,G#4,247.0,1.0,47,56.88
1412,F3,247.0,0.25,40,56.88
1413,G#3,247.25,0.25,32,56.88
1414,D4,247.5,0.25,35,56.88
1415,F3,247.75,0.25,33,56.88
1416,G4,248.0,1.0,47,56.88
1417,G3,248.0,0.25,40,56.88
1418,B-3,248.25,0.25,32,56.88
1419,E-4,248.5,0.25,36,56.88
1420,G3,248.75,0.25,33,56.88
1421,G4,249.0,0.25,47,56.88
1422,G#3,249.0,3.0,41,56.88
1423,C4,249.0,3.0,41,56.88
1424,E4,249.25,0.25,44,56.88
1425,F4,249.5,0.25,45,56.88
1426,G4,249.75,0.25,46,56.88
1427,G#4,250.0,0.25,49,56.88
1428,A4,250.25,0.25,51,56.88
1429,B-4,250.5,0.25,52,56.88
1430,B4,250.75,0.25,54,56.88
1431,D5,251.0,0.125,56,56.88
1432,C5,251.125,0.125,54,56.88
1433,B4,251.25,0.125,52,56.88
1434,C5,251.375,0.125,54,56.88
1435,B-4,251.5,0.125,52,56.88
1436,G#4,251.625,0.125,49,56.88
1437,G4,251.75,0.125,51,56.88
1438,F4,251.875,0.125,50,56.88
1439,A2,252.0,0.25,44,56.88
1440,G3,252.0,1.0,54,56.88
1441,E-4,252.0,1.0,54,56.88
1442,B-2,252.25,0.25,46,56.88
1443,C3,252.5,0.25,49,56.88
1444,B-2,252.75,229/1000,45,56.88
1445,B-2,253.0,1.0,45,56.88
1446,F3,253.0,0.125,47,56.88
1447,D4,253.0,0.125,47,56.88
1448,B-3,253.125,0.125,49,56.88
1449,A3,253.25,0.125,50,56.88
1450,B-3,253.375,0.125,51,56.88
1451,B3,253.5,0.125,52,56.88
1452,C4,253.625,0.125,53,56.88
1453,C#4,253.75,0.125,54,56.88
1454,D4,253.875,0.125,54,56.88
1455,E-4,254.0,0.125,55,56.88
1456,E4,254.125,0.125,56,56.88
1457,F4,254.25,0.125,57,56.88
1458,F#4,254.375,0.125,59,56.88
1459,G4,254.5,0.125,60,56.88
1460,G#4,254.625,0.125,61,56.88
1461,A4,254.75,0.125,62,56.88
1462,B-4,254.875,13/125,63,56.88
1463,G4,255.0,1.0,63,56.88
1464,B-4,255.0,0.75,63,56.88
1465,E-2,255.0,1.0,45,56.88
1466,E-3,255.0,1.0,45,56.88
1467,C5,255.75,0.125,57,56.88
1468,B-4,255.875,0.125,53,56.88
1469,G#4,256.0,0.125,55,56.88
1470,G4,256.125,0.125,54,56.88
1471,C5,256.25,0.125,56,56.88
1472,B-4,256.375,0.125,53,56.88
1473,E-5,256.5,0.125,57,56.88
1474,D5,256.625,0.125,55,56.88
1475,F5,256.75,0.125,61,56.88
1476,E-5,256.875,0.125,55,56.88
1477,G#5,257.0,0.125,63,56.88
1478,E-3,257.0,1.0,53,56.88
1479,C4,257.0,1.0,53,56.88
1480,G5,257.125,0.125,59,56.88
1481,F#5,257.25,0.125,61,56.88
1482,G5,257.375,0.125,61,56.88
1483,F5,257.5,0.125,61,56.88
1484,E-5,257.625,0.125,59,56.88
1485,D5,257.75,0.125,57,56.88
1486,C5,257.875,0.125,55,56.88
1487,B-4,258.0,0.5,60,56.88
1488,F3,258.0,1.0,51,56.88
1489,C4,258.0,1.0,51,56.88
1490,A4,258.5,1.0,63,56.88
1491,B-3,259.0,0.5,46,56.88
1492,D4,259.0,1.0,46,56.88
1493,G#4,259.5,0.75,63,56.88
1494,B3,259.5,0.5,40,56.88
1495,E-4,260.0,1.0,47,56.88
1496,C4,260.0,0.5,47,56.88
1497,G4,260.25,0.25,66,56.88
1498,E-5,260.5,0.25,68,56.88
1499,G3,260.5,0.5,45,56.88
1500,C#5,260.75,0.25,64,56.88
1501,B4,261.0,0.25,67,56.88
1502,G#3,261.0,0.5,50,56.88
1503,E-4,261.0,0.5,47,56.88
1504,C5,261.25,0.25,64,56.88
1505,D5,261.5,0.25,69,56.88
1506,E-5,261.75,229/1000,64,56.88
1507,E-5,262.0,0.5,70,56.88
1508,B-2,262.0,2.0,51,56.88
1509,G3,262.0,1.0,51,56.88
1510,B-4,262.5,0.75,66,56.88
1511,G#3,263.0,1.0,37,56.88
1512,C5,263.25,0.125,54,56.88
1513,B-4,263.375,13/125,50,56.88
1514,B-4,263.5,0.125,53,56.88
1515,G#4,263.625,0.125,45,56.88
1516,G4,263.75,0.125,51,56.88
1517,F4,263.875,0.125,45,56.88
1518,E-4,264.0,1.0,46,56.88
1519,E-3,264.0,0.25,30,56.88
1520,G3,264.25,0.25,26,56.88
1521,B-3,264.5,0.25,27,56.88
1522,G3,264.75,0.25,27,56.88
1523,E-3,265.0,0.25,30,56.88
1524,G3,265.25,0.25,27,56.88
1525,B-3,265.5,0.25,29,56.88
1526,G4,265.5,0.5,46,56.88
1527,B-4,265.5,0.5,46,56.88
1528,G3,265.75,0.25,27,56.88
1529,E-3,266.0,0.25,33,56.88
1530,G4,266.0,0.5,50,56.88
1531,B-4,266.0,0.5,50,56.88
1532,G3,266.25,0.25,27,56.88
1533,B-3,266.5,0.25,29,56.88
1534,G4,266.5,0.5,46,56.88
1535,B-4,266.5,0.5,46,56.88
1536,G3,266.75,0.25,27,56.88
1537,G#4,267.0,1.5,54,56.88
1538,E-5,267.0,0.5,54,56.88
1539,E-3,267.0,0.25,36,56.88
1540,F3,267.25,0.25,27,56.88
1541,D5,267.5,1.0,46,56.88
1542,G#3,267.5,0.25,30,56.88
1543,F3,267.75,0.25,27,56.88
1544,E-3,268.0,0.25,32,56.88
1545,F3,268.25,0.25,27,56.88
1546,B-5,268.5,0.25,50,56.88
1547,G#3,268.5,0.25,27,56.88
1548,G#5,268.75,0.25,47,56.88
1549,F3,268.75,0.25,26,56.88
1550,G5,269.0,0.25,52,56.88
1551,E-3,269.0,0.25,32,56.88
1552,F5,269.25,0.25,47,56.88
1553,F3,269.25,0.25,27,56.88
1554,E-5,269.5,0.25,49,56.88
1555,G#3,269.5,0.25,27,56.88
1556,D5,269.75,0.25,45,56.88
1557,F3,269.75,0.25,27,56.88
1558,F5,270.0,83/1000,54,56.88
1559,E-3,270.0,0.25,33,56.88
1560,E-5,270.083,0.625,52,56.88
1561,G3,270.25,0.25,26,56.88
1562,B-3,270.5,0.25,27,56.88
1563,D5,270.75,0.125,49,56.88
1564,G3,270.75,0.25,26,56.88
1565,C5,270.875,0.125,45,56.88
1566,B-4,271.0,479/1000,50,56.88
1567,E-3,271.0,0.25,31,56.88
1568,G3,271.25,0.25,26,56.88
1569,B-3,271.5,0.25,27,56.88
1570,G4,271.5,9/20,49,56.88
1571,B-4,271.5,9/20,49,56.88
1572,G3,271.75,0.25,26,56.88
1573,E-3,272.0,0.25,33,56.88
1574,G4,272.0,9/20,53,56.88
1575,B-4,272.0,9/20,53,56.88
1576,G3,272.25,0.25,27,56.88
1577,B-3,272.5,0.25,30,56.88
1578,G4,272.5,9/20,49,56.88
1579,B-4,272.5,9/20,49,56.88
1580,G3,272.75,0.25,27,56.88
1581,G#4,273.0,0.5,62,56.88
1582,E-5,273.0,0.25,62,56.88
1583,E-3,273.0,0.25,36,56.88
1584,D5,273.25,0.25,55,56.88
1585,F3,273.25,0.25,25,56.88
1586,C6,273.5,1.0,60,56.88
1587,G#3,273.5,0.25,27,56.88
1588,F3,273.75,0.25,24,56.88
1589,E-3,274.0,0.25,29,56.88
1590,F3,274.25,0.25,23,56.88
1591,B-5,274.5,0.125,50,56.88
1592,G#3,274.5,0.25,27,56.88
1593,G#5,274.625,0.125,49,56.88
1594,C6,274.75,0.125,52,56.88
1595,F3,274.75,0.25,23,56.88
1596,G#5,274.875,0.125,49,56.88
1597,G5,275.0,0.125,51,56.88
1598,E-3,275.0,0.25,30,56.88
1599,F5,275.125,0.125,49,56.88
1600,G#5,275.25,0.125,51,56.88
1601,F3,275.25,0.25,26,56.88
1602,F5,275.375,0.125,49,56.88
1603,E-5,275.5,0.125,51,56.88
1604,G#3,275.5,0.25,26,56.88
1605,D5,275.625,0.125,49,56.88
1606,F5,275.75,0.125,52,56.88
1607,F3,275.75,0.25,25,56.88
1608,D5,275.875,0.125,49,56.88
1609,E-5,276.0,0.125,54,56.88
1610,E-3,276.0,1.0,27,56.88
1611,G3,276.0,1.0,27,56.88
1612,F5,276.125,0.125,52,56.88
1613,E-5,276.25,0.125,52,56.88
1614,D5,276.375,0.125,52,56.88
1615,E-5,276.5,83/1000,50,56.88
1616,E5,276.583,83/1000,47,56.88
1617,F5,276.667,83/1000,50,56.88
1618,F#5,276.75,0.125,53,56.88
1619,G5,276.875,0.125,54,56.88
1620,B-4,277.0,0.5,50,56.88
1621,G3,277.5,0.5,32,56.88
1622,G4,277.5,0.5,45,56.88
1623,B-4,277.5,0.5,45,56.88
1624,G#3,278.0,0.5,34,56.88
1625,F4,278.0,0.5,47,56.88
1626,G#4,278.0,0.5,47,56.88
1627,A3,278.5,0.5,35,56.88
1628,E-4,278.5,479/1000,51,56.88
1629,G4,278.5,479/1000,51,56.88
1630,E-4,279.0,1.0,58,56.88
1631,B-4,279.0,0.25,58,56.88
1632,B-3,279.0,1.25,37,56.88
1633,A4,279.25,0.25,49,56.88
1634,B-4,279.5,0.25,53,56.88
1635,G4,279.75,0.25,42,56.88
1636,D4,280.0,1.0,38,56.88
1637,F4,280.0,1.0,38,56.88
1638,B3,280.25,0.25,41,56.88
1639,C4,280.5,0.25,45,56.88
1640,B-3,280.75,229/1000,43,56.88
1641,B-3,281.0,0.25,45,56.88
1642,G#3,281.25,0.25,44,56.88
1643,G3,281.5,0.25,45,56.88
1644,F3,281.75,0.25,45,56.88
1645,B-4,281.875,0.125,67,56.88
1646,B-5,282.0,1.5,73,56.88
1647,E-3,282.0,0.5,53,56.88
1648,G3,282.5,0.5,45,56.88
1649,B-3,283.0,0.5,47,56.88
1650,G#5,283.5,0.125,70,56.88
1651,E-4,283.5,0.5,45,56.88
1652,G5,283.625,0.125,66,56.88
1653,F5,283.75,0.125,70,56.88
1654,E-5,283.875,0.125,64,56.88
1655,D5,284.0,0.5,74,56.88
1656,G#4,284.0,0.5,51,56.88
1657,E-5,284.5,0.5,72,56.88
1658,G4,284.5,0.5,47,56.88
1659,D5,285.0,0.5,67,56.88
1660,F5,285.0,0.5,67,56.88
1661,G#4,285.0,0.5,51,56.88
1662,F4,285.0,0.5,51,56.88
1663,G#5,285.5,0.125,69,56.88
1664,E-5,285.5,0.5,69,56.88
1665,G4,285.5,0.5,47,56.88
1666,E-4,285.5,0.5,47,56.88
1667,G5,285.625,0.125,65,56.88
1668,F5,285.75,0.125,66,56.88
1669,G5,285.875,0.125,65,56.88
1670,F5,286.0,0.5,70,56.88
1671,G#5,286.0,0.5,70,56.88
1672,D4,286.0,0.5,47,56.88
1673,F4,286.0,0.5,47,56.88
1674,B-4,286.5,9/20,57,56.88
1675,B-4,287.0,9/20,59,56.88
1676,B-4,287.5,9/20,59,56.88
1677,G#5,288.0,1.5,72,56.88
1678,B-3,288.5,0.5,45,56.88
1679,D4,289.0,0.5,45,56.88
1680,B-5,289.5,0.125,69,56.88
1681,F4,289.5,0.5,45,56.88
1682,G#5,289.625,0.125,65,56.88
1683,G5,289.75,0.125,69,56.88
1684,F5,289.875,0.125,64,56.88
1685,E-5,290.0,0.5,73,56.88
1686,G4,290.0,0.5,50,56.88
1687,B-4,290.5,0.5,45,56.88
1688,G#4,290.5,0.5,45,56.88
1689,D5,290.5,0.5,70,56.88
1690,F5,290.5,0.5,70,56.88
1691,G4,291.0,0.5,51,56.88
1692,B-4,291.0,0.5,45,56.88
1693,E-5,291.0,0.5,71,56.88
1694,G5,291.0,0.5,71,56.88
1695,B-5,291.5,0.125,67,56.88
1696,F5,291.5,0.5,67,56.88
1697,F4,291.5,0.5,45,56.88
1698,G#4,291.5,0.5,45,56.88
1699,G#5,291.625,0.125,63,56.88
1700,G5,291.75,0.125,67,56.88
1701,G#5,291.875,0.125,64,56.88
1702,G5,292.0,0.25,72,56.88
1703,B-5,292.0,0.25,72,56.88
1704,E-4,292.0,0.5,50,56.88
1705,G4,292.0,0.5,50,56.88
1706,E-2,292.5,9/20,54,56.88
1707,E-3,292.5,9/20,54,56.88
1708,E-2,293.0,9/20,56,56.88
1709,E-3,293.0,9/20,56,56.88
1710,E-2,293.5,9/20,54,56.88
1711,E-3,293.5,9/20,54,56.88
1712,C#5,294.0,1.25,83,56.88
1713,E-4,294.5,9/20,47,56.88
1714,G3,294.5,9/20,47,56.88
1715,G3,295.0,9/20,49,56.88
1716,E-4,295.0,9/20,49,56.88
1717,E-5,295.25,0.062,62,56.88
1718,C#5,295.312,0.062,58,56.88
1719,C5,295.375,0.062,62,56.88
1720,C#5,295.438,0.062,59,56.88
1721,E-5,295.5,0.25,67,56.88
1722,G3,295.5,9/20,48,56.88
1723,E-4,295.5,9/20,48,56.88
1724,F5,295.75,0.25,67,56.88
1725,E-5,296.0,0.25,67,56.88
1726,G3,296.0,9/20,51,56.88
1727,E-4,296.0,9/20,51,56.88
1728,C#5,296.25,0.25,60,56.88
1729,C5,296.5,0.25,67,56.88
1730,G3,296.5,9/20,45,56.88
1731,E-4,296.5,9/20,45,56.88
1732,B4,296.75,229/1000,61,56.88
1733,B4,297.0,1.25,70,56.88
1734,G3,297.5,0.5,47,56.88
1735,E-4,297.5,1.0,47,56.88
1736,G#3,298.0,0.5,50,56.88
1737,C5,298.25,0.25,67,56.88
1738,E-5,298.5,0.25,69,56.88
1739,E-4,298.5,9/20,55,56.88
1740,G#3,298.5,9/20,55,56.88
1741,D5,298.75,0.25,69,56.88
1742,F5,299.0,0.25,69,56.88
1743,G#3,299.0,9/20,55,56.88
1744,E-4,299.0,9/20,55,56.88
1745,E-5,299.25,0.25,64,56.88
1746,D5,299.5,0.25,68,56.88
1747,G#3,299.5,9/20,50,56.88
1748,E-4,299.5,9/20,50,56.88
1749,C5,299.75,0.25,61,56.88
1750,B-4,300.0,26/125,59,56.88
1751,G3,300.0,0.5,53,56.88
1752,E-4,300.0,0.5,53,56.88
1753,B4,300.167,26/125,60,56.88
1754,C5,300.333,26/125,62,56.88
1755,C#5,300.5,26/125,66,56.88
1756,G#3,300.5,0.5,48,56.88
1757,E-4,300.5,0.5,48,56.88
1758,D5,300.667,26/125,68,56.88
1759,E-5,300.833,167/1000,69,56.88
1760,E-5,301.0,0.125,60,56.88
1761,B-2,301.0,9/20,50,56.88
1762,G3,301.0,9/20,50,56.88
1763,E-4,301.125,0.875,73,56.88
1764,B-2,301.5,9/20,46,56.88
1765,G3,301.5,9/20,46,56.88
1766,G4,302.0,0.25,59,56.88
1767,D4,302.0,1.0,59,56.88
1768,B-2,302.0,9/20,39,56.88
1769,G#3,302.0,9/20,39,56.88
1770,F4,302.25,0.25,64,56.88
1771,E-4,302.5,0.25,64,56.88
1772,B-2,302.5,9/20,39,56.88
1773,G#3,302.5,9/20,39,56.88
1774,F4,302.75,0.25,59,56.88
1775,E-4,303.0,1.0,55,56.88
1776,E-3,303.0,0.25,45,56.88
1777,G3,303.0,0.25,45,56.88
1778,E-3,303.25,0.25,50,56.88
1779,G3,303.5,0.25,54,56.88
1780,B-3,303.75,0.25,57,56.88
1781,G#3,304.0,0.25,63,56.88
1782,B-3,304.25,0.25,56,56.88
1783,G3,304.5,0.25,63,56.88
1784,E-4,304.5,9/20,75,56.88
1785,B-4,304.5,9/20,75,56.88
1786,B-3,304.75,0.25,56,56.88
1787,F3,305.0,0.25,63,56.88
1788,F4,305.0,9/20,70,56.88
1789,B-4,305.0,9/20,70,56.88
1790,B-3,305.25,0.25,56,56.88
1791,E-3,305.5,0.25,63,56.88
1792,G4,305.5,9/20,75,56.88
1793,B-4,305.5,9/20,75,56.88
1794,B-3,305.75,0.25,56,56.88
1795,B-4,306.0,0.625,80,56.88
1796,G#4,306.0,1.5,63,56.88
1797,D3,306.0,0.25,63,56.88
1798,F3,306.25,0.25,54,56.88
1799,G#3,306.5,0.25,56,56.88
1800,C5,306.625,0.125,76,56.88
1801,B-4,306.75,0.125,70,56.88
1802,G3,306.75,0.25,53,56.88
1803,A4,306.875,0.125,69,56.88
1804,B-4,307.0,0.25,79,56.88
1805,F3,307.0,0.25,61,56.88
1806,E-3,307.25,0.25,54,56.88
1807,D3,307.5,0.25,56,56.88
1808,D4,307.5,0.5,74,56.88
1809,B-4,307.5,0.5,74,56.88
1810,C3,307.75,0.25,54,56.88
1811,B-2,308.0,0.25,56,56.88
1812,E-4,308.0,0.5,76,56.88
1813,C5,308.0,0.5,76,56.88
1814,C3,308.25,0.25,54,56.88
1815,G#2,308.5,0.25,56,56.88
1816,F4,308.5,0.5,72,56.88
1817,D5,308.5,0.5,72,56.88
1818,B-2,308.75,0.25,52,56.88
1819,E-5,309.0,0.625,81,56.88
1820,E-4,309.0,1.5,81,56.88
1821,G2,309.0,0.25,61,56.88
1822,B-2,309.25,0.25,47,56.88
1823,E-3,309.5,0.25,52,56.88
1824,F5,309.625,0.125,70,56.88
1825,G5,309.75,0.125,72,56.88
1826,B-2,309.75,0.25,47,56.88
1827,E-5,309.875,0.125,66,56.88
1828,B-4,310.0,0.25,69,56.88
1829,G3,310.0,0.25,52,56.88
1830,G4,310.5,0.5,52,56.88
1831,B-4,310.5,0.5,52,56.88
1832,E-3,310.5,0.5,43,56.88
1833,G3,310.5,0.5,43,56.88
1834,F4,311.0,0.5,54,56.88
1835,G#4,311.0,0.5,54,56.88
1836,F3,311.0,0.5,43,56.88
1837,G#3,311.0,0.5,43,56.88
1838,E-4,311.5,0.5,52,56.88
1839,G4,311.5,0.5,52,56.88
1840,G3,311.5,0.5,43,56.88
1841,B-3,311.5,0.5,43,56.88
1842,F4,312.0,0.625,57,56.88
1843,G#3,312.0,1.0,46,56.88
1844,C4,312.0,1.0,46,56.88
1845,G4,312.625,0.125,50,56.88
1846,G#4,312.75,0.125,52,56.88
1847,F4,312.875,0.125,50,56.88
1848,C5,313.0,0.25,56,56.88
1849,C4,313.5,0.5,46,56.88
1850,F4,313.5,0.5,46,56.88
1851,G#2,313.5,0.5,36,56.88
1852,F3,313.5,0.5,36,56.88
1853,B-2,314.0,1.0,43,56.88
1854,G3,314.0,0.5,43,56.88
1855,B-3,314.0,0.5,49,56.88
1856,E-4,314.0,0.5,49,56.88
1857,G#3,314.5,479/1000,36,56.88
1858,D4,314.5,479/1000,46,56.88
1859,F4,314.5,479/1000,46,56.88
1860,D4,315.0,1.0,54,56.88
1861,F4,315.0,0.75,54,56.88
1862,E-3,315.0,1.25,45,56.88
1863,G#3,315.0,1.0,45,56.88
1864,F#4,315.75,0.25,50,56.88
1865,G3,316.0,0.25,35,56.88
1866,E-4,316.0,0.5,45,56.88
1867,G4,316.0,0.5,45,56.88
1868,E-4,316.25,0.25,52,56.88
1869,G4,316.5,0.25,54,56.88
1870,E-5,316.5,9/20,76,56.88
1871,B-5,316.5,9/20,76,56.88
1872,B-4,316.75,0.25,51,56.88
1873,G#4,317.0,0.25,57,56.88
1874,F5,317.0,9/20,77,56.88
1875,B-5,317.0,9/20,77,56.88
1876,G4,317.25,0.25,52,56.88
1877,F4,317.5,0.25,54,56.88
1878,G5,317.5,9/20,76,56.88
1879,B-5,317.5,9/20,76,56.88
1880,E-4,317.75,0.25,53,56.88
1881,B-5,318.0,0.625,81,56.88
1882,G#5,318.0,1.5,81,56.88
1883,D4,318.0,0.25,63,56.88
1884,F4,318.25,0.25,54,56.88
1885,G#4,318.5,0.25,56,56.88
1886,C6,318.625,0.125,73,56.88
1887,B-5,318.75,0.125,69,56.88
1888,G4,318.75,0.25,54,56.88
1889,A5,318.875,0.125,70,56.88
1890,B-5,319.0,0.25,78,56.88
1891,F4,319.0,0.25,61,56.88
1892,E-4,319.25,0.25,54,56.88
1893,D4,319.5,0.25,56,56.88
1894,D5,319.5,0.5,76,56.88
1895,B-5,319.5,0.5,76,56.88
1896,C4,319.75,0.25,54,56.88
1897,B-3,320.0,0.25,56,56.88
1898,E-5,320.0,0.5,80,56.88
1899,C6,320.0,0.5,80,56.88
1900,C4,320.25,0.25,54,56.88
1901,G#3,320.5,0.25,56,56.88
1902,F5,320.5,0.5,75,56.88
1903,D6,320.5,0.5,75,56.88
1904,B-3,320.75,0.25,53,56.88
1905,E-6,321.0,0.625,86,56.88
1906,E-5,321.0,1.5,86,56.88
1907,G3,321.0,0.25,61,56.88
1908,B-3,321.25,0.25,45,56.88
1909,C4,321.5,0.25,49,56.88
1910,D6,321.625,0.125,68,56.88
1911,E-6,321.75,0.125,70,56.88
1912,D4,321.75,0.25,45,56.88
1913,B-5,321.875,0.125,66,56.88
1914,G5,322.0,0.25,61,56.88
1915,E-4,322.0,0.25,46,56.88
1916,G5,322.5,0.5,54,56.88
1917,B-5,322.5,0.5,54,56.88
1918,E-4,322.5,0.5,43,56.88
1919,G4,322.5,0.5,43,56.88
1920,F5,323.0,0.5,54,56.88
1921,G#5,323.0,0.5,54,56.88
1922,F4,323.0,0.5,43,56.88
1923,G#4,323.0,0.5,43,56.88
1924,E-5,323.5,0.5,54,56.88
1925,G5,323.5,0.5,54,56.88
1926,G4,323.5,0.5,36,56.88
1927,B-4,323.5,0.5,36,56.88
1928,E5,324.0,0.125,51,56.88
1929,G#4,324.0,0.5,43,56.88
1930,C5,324.0,0.5,43,56.88
1931,F5,324.125,0.125,50,56.88
1932,G5,324.25,0.125,56,56.88
1933,F5,324.375,0.125,55,56.88
1934,G#5,324.5,0.125,59,56.88
1935,G5,324.625,0.125,58,56.88
1936,B-5,324.75,0.125,62,56.88
1937,G#5,324.875,0.125,60,56.88
1938,C6,325.0,1.0,66,56.88
1939,B-5,326.0,0.5,59,56.88
1940,D4,326.0,0.5,43,56.88
1941,B-3,326.0,1.0,43,56.88
1942,G#4,326.0,1.0,43,56.88
1943,F4,326.5,0.5,43,56.88
1944,D5,326.875,0.125,53,56.88
1945,E-5,327.0,1.0,56,56.88
1946,E-4,327.0,0.25,43,56.88
1947,G4,327.25,0.25,39,56.88
1948,B-4,327.5,0.25,40,56.88
1949,G4,327.75,0.25,42,56.88
1950,E-4,328.0,0.25,46,56.88
1951,G4,328.25,0.25,44,56.88
1952,C#6,328.5,0.5,69,56.88
1953,B-4,328.5,0.25,49,56.88
1954,G4,328.75,0.25,50,56.88
1955,C6,329.0,0.5,72,56.88
1956,G#4,329.0,0.25,58,56.88
1957,F4,329.25,0.25,55,56.88
1958,D6,329.5,0.5,75,56.88
1959,B-4,329.5,0.25,56,56.88
1960,G#4,329.75,0.25,58,56.88
1961,F6,330.0,0.5,81,56.88
1962,G4,330.0,0.25,62,56.88
1963,B-4,330.25,0.25,56,56.88
1964,E-6,330.5,0.5,78,56.88
1965,G4,330.5,0.25,53,56.88
1966,F4,330.75,0.25,55,56.88
1967,E-4,331.0,0.25,70,56.88
1968,C#4,331.25,0.25,61,56.88
1969,C#5,331.5,0.5,72,56.88
1970,B-3,331.5,0.25,64,56.88
1971,G3,331.75,0.25,61,56.88
1972,C5,332.0,0.5,74,56.88
1973,G#3,332.0,0.25,70,56.88
1974,F3,332.25,0.25,64,56.88
1975,B-3,332.5,0.25,70,56.88
1976,G#4,332.5,0.5,69,56.88
1977,D5,332.5,0.5,69,56.88
1978,B-2,332.75,0.25,59,56.88
1979,E-3,333.0,1.5,50,56.88
1980,F5,333.0,1.0,59,56.88
1981,G#4,333.0,1.0,59,56.88
1982,G4,334.0,0.5,52,56.88
1983,E-5,334.0,0.5,52,56.88
1984,G#3,334.5,0.5,42,56.88
1985,D4,334.5,0.5,47,56.88
1986,F4,334.5,0.5,47,56.88
1987,G3,335.0,0.5,45,56.88
1988,E-4,335.0,0.5,52,56.88
1989,G4,335.0,0.5,52,56.88
1990,F3,335.5,0.5,47,56.88
1991,F4,335.5,0.5,54,56.88
1992,G#4,335.5,0.5,54,56.88
1993,E3,336.0,2.0,56,56.88
1994,F#4,336.0,1.0,67,56.88
1995,A4,336.0,1.0,67,56.88
1996,G4,337.0,0.5,62,56.88
1997,B-4,337.0,0.5,62,56.88
1998,B-4,337.5,0.5,54,56.88
1999,C#5,337.5,0.5,54,56.88
2000,C3,338.0,1.0,46,56.88
2001,E4,338.0,0.5,56,56.88
2002,G4,338.0,0.5,56,56.88
2003,G#4,338.5,0.5,51,56.88
2004,C5,338.5,0.5,51,56.88
2005,C#3,339.0,2.0,53,56.88
2006,G4,339.0,1.0,55,56.88
2007,B-4,339.0,1.0,55,56.88
2008,F4,340.0,0.5,52,56.88
2009,G#4,340.0,0.5,52,56.88
2010,F5,340.5,9/20,54,56.88
2011,F5,341.0,9/20,54,56.88
2012,C4,341.0,1.0,43,56.88
2013,G#3,341.0,1.0,43,56.88
2014,F5,341.5,9/20,54,56.88
2015,F#5,342.0,1.0,62,56.88
2016,B-3,342.0,1.0,43,56.88
2017,C#4,342.0,1.0,43,56.88
2018,G5,343.0,0.5,56,56.88
2019,B-5,343.5,1.0,63,56.88
2020,C4,344.0,1.0,43,56.88
2021,B-4,344.0,1.0,43,56.88
2022,E5,344.5,0.5,57,56.88
2023,G5,345.0,1.0,64,56.88
2024,F4,345.0,1.5,43,56.88
2025,B-4,345.0,1.0,43,56.88
2026,F5,346.0,0.5,60,56.88
2027,G#4,346.0,0.5,36,56.88
2028,F2,346.5,9/20,45,56.88
2029,F2,347.0,9/20,46,56.88
2030,F2,347.5,9/20,44,56.88
2031,F2,348.0,3.0,52,56.88
2032,G#5,348.5,0.5,59,56.88
2033,G5,349.0,0.25,61,56.88
2034,F5,349.25,0.25,59,56.88
2035,E-5,349.5,0.25,57,56.88
2036,C#5,349.75,0.25,57,56.88
2037,C5,350.0,0.25,59,56.88
2038,C#5,350.25,0.25,62,56.88
2039,F5,350.5,0.25,66,56.88
2040,C#5,350.75,0.25,60,56.88
2041,C5,351.0,1.0,57,56.88
2042,F2,351.0,1.5,42,56.88
2043,D4,351.0,3.0,57,56.88
2044,G#4,351.0,3.0,57,56.88
2045,B4,352.0,2.0,47,56.88
2046,F2,352.5,9/20,45,56.88
2047,F2,353.0,9/20,46,56.88
2048,F2,353.5,9/20,45,56.88
2049,F#2,354.0,3.0,54,56.88
2050,E-4,354.5,1.0,53,56.88
2051,C5,354.5,0.5,53,56.88
2052,B4,355.0,0.25,56,56.88
2053,C5,355.25,0.25,58,56.88
2054,E-4,355.5,1.0,50,56.88
2055,D5,355.5,0.25,59,56.88
2056,C5,355.75,0.25,56,56.88
2057,B4,356.0,0.25,56,56.88
2058,C5,356.25,0.25,59,56.88
2059,E-4,356.5,0.5,61,56.88
2060,E-5,356.5,0.25,61,56.88
2061,D5,356.75,0.25,60,56.88
2062,B4,357.0,1.0,66,56.88
2063,E-4,357.0,1.0,61,56.88
2064,G2,357.0,1.5,49,56.88
2065,E-4,358.0,2.0,60,56.88
2066,C5,358.0,2.0,60,56.88
2067,G2,358.5,9/20,48,56.88
2068,G2,359.0,9/20,50,56.88
2069,G2,359.5,9/20,47,56.88
2070,G#2,360.0,2.0,55,56.88
2071,E-4,360.5,9/20,62,56.88
2072,C5,360.5,9/20,62,56.88
2073,E-4,361.0,9/20,64,56.88
2074,C5,361.0,9/20,64,56.88
2075,E-4,361.5,9/20,67,56.88
2076,C5,361.5,9/20,67,56.88
2077,A2,362.0,1.0,62,56.88
2078,E-4,362.0,9/20,70,56.88
2079,C5,362.0,9/20,70,56.88
2080,E-4,362.5,9/20,72,56.88
2081,C5,362.5,9/20,72,56.88
2082,C#5,363.0,0.625,74,56.88
2083,E-4,363.0,1.5,74,56.88
2084,B-2,363.0,1.0,62,56.88
2085,C5,363.625,0.125,62,56.88
2086,B-4,363.75,0.125,57,56.88
2087,G#4,363.875,0.125,54,56.88
2088,G4,364.0,0.5,66,56.88
2089,C#3,364.0,1.0,48,56.88
2090,G5,364.5,0.5,67,56.88
2091,G#5,365.0,0.5,67,56.88
2092,C3,365.0,1.0,54,56.88
2093,C5,365.5,0.5,65,56.88
2094,C5,366.0,0.25,65,56.88
2095,C#3,366.0,1.0,44,56.88
2096,B-4,366.25,0.25,56,56.88
2097,C#5,366.5,0.25,60,56.88
2098,F5,366.75,0.25,55,56.88
2099,G#4,367.0,1.5,63,56.88
2100,E-3,367.0,1.0,43,56.88
2101,C4,367.0,1.0,43,56.88
2102,E-3,368.0,1.0,36,56.88
2103,C#4,368.0,1.0,36,56.88
2104,G4,368.5,0.5,55,56.88
2105,C5,368.5,0.25,55,56.88
2106,B-4,368.75,0.25,55,56.88
2107,G#4,369.0,1.0,46,56.88
2108,G#3,369.0,0.25,33,56.88
2109,C4,369.25,0.25,26,56.88
2110,E-4,369.5,0.25,27,56.88
2111,C4,369.75,0.25,25,56.88
2112,G#3,370.0,0.25,30,56.88
2113,C4,370.25,0.25,26,56.88
2114,E-4,370.5,0.25,29,56.88
2115,G#4,370.5,0.5,46,56.88
2116,C5,370.5,0.5,46,56.88
2117,C4,370.75,0.25,26,56.88
2118,G#3,371.0,0.25,33,56.88
2119,G#4,371.0,0.5,49,56.88
2120,C5,371.0,0.5,49,56.88
2121,C4,371.25,0.25,27,56.88
2122,E-4,371.5,0.25,29,56.88
2123,G#4,371.5,0.5,46,56.88
2124,C5,371.5,0.5,46,56.88
2125,C4,371.75,0.25,27,56.88
2126,F5,372.0,0.5,58,56.88
2127,G3,372.0,0.25,36,56.88
2128,B-4,372.0,1.5,58,56.88
2129,C5,372.0,1.5,58,56.88
2130,B-3,372.25,0.25,26,56.88
2131,E5,372.5,1.0,46,56.88
2132,C4,372.5,0.25,27,56.88
2133,B-3,372.75,0.25,26,56.88
2134,G3,373.0,0.25,32,56.88
2135,B-3,373.25,0.25,26,56.88
2136,C4,373.5,0.25,27,56.88
2137,B-4,373.5,0.5,47,56.88
2138,C5,373.5,0.5,47,56.88
2139,B-3,373.75,0.25,25,56.88
2140,G3,374.0,0.25,32,56.88
2141,B-4,374.0,0.5,51,56.88
2142,C5,374.0,0.5,51,56.88
2143,B-3,374.25,0.25,27,56.88
2144,C4,374.5,0.25,27,56.88
2145,B-4,374.5,0.5,47,56.88
2146,C5,374.5,0.5,47,56.88
2147,B-3,374.75,0.25,25,56.88
2148,G5,375.0,0.5,59,56.88
2149,F3,375.0,0.25,36,56.88
2150,G#4,375.0,1.5,59,56.88
2151,C5,375.0,1.5,59,56.88
2152,G#3,375.25,0.25,27,56.88
2153,F5,375.5,1.0,51,56.88
2154,C4,375.5,0.25,30,56.88
2155,G#3,375.75,0.25,27,56.88
2156,F3,376.0,0.25,32,56.88
2157,G#3,376.25,0.25,26,56.88
2158,C4,376.5,0.25,27,56.88
2159,G#4,376.5,0.5,51,56.88
2160,C5,376.5,0.5,51,56.88
2161,G#3,376.75,0.25,26,56.88
2162,F3,377.0,0.25,32,56.88
2163,G#4,377.0,0.5,54,56.88
2164,C5,377.0,0.5,54,56.88
2165,G#3,377.25,0.25,27,56.88
2166,C4,377.5,0.25,29,56.88
2167,G#4,377.5,0.5,49,56.88
2168,C5,377.5,0.5,49,56.88
2169,G#3,377.75,0.25,27,56.88
2170,G#5,378.0,0.5,64,56.88
2171,E-3,378.0,0.25,36,56.88
2172,G#4,378.0,1.5,64,56.88
2173,C5,378.0,1.5,64,56.88
2174,F#3,378.25,0.25,30,56.88
2175,F#5,378.5,1.0,60,56.88
2176,G#3,378.5,0.25,32,56.88
2177,F#3,378.75,0.25,29,56.88
2178,E-3,379.0,0.25,36,56.88
2179,F#3,379.25,0.25,29,56.88
2180,G#3,379.5,0.25,32,56.88
2181,G#4,379.5,9/20,50,56.88
2182,C5,379.5,9/20,50,56.88
2183,F#3,379.75,0.25,29,56.88
2184,E-3,380.0,0.25,35,56.88
2185,G#4,380.0,9/20,55,56.88
2186,C5,380.0,9/20,55,56.88
2187,F#3,380.25,0.25,29,56.88
2188,G#3,380.5,0.25,31,56.88
2189,G#4,380.5,9/20,51,56.88
2190,C5,380.5,9/20,51,56.88
2191,F#3,380.75,0.25,27,56.88
2192,F#5,381.0,0.5,61,56.88
2193,C#3,381.0,0.25,40,56.88
2194,G#4,381.0,1.5,61,56.88
2195,C#5,381.0,1.5,61,56.88
2196,E3,381.25,0.25,34,56.88
2197,E5,381.5,1.0,56,56.88
2198,G#3,381.5,0.25,36,56.88
2199,E3,381.75,0.25,33,56.88
2200,C#3,382.0,0.25,40,56.88
2201,E3,382.25,0.25,33,56.88
2202,G#3,382.5,0.25,36,56.88
2203,G#4,382.5,0.5,59,56.88
2204,E5,382.5,0.5,59,56.88
2205,E3,382.75,0.25,33,56.88
2206,B2,383.0,0.25,39,56.88
2207,G#4,383.0,0.5,64,56.88
2208,E5,383.0,0.5,64,56.88
2209,E-3,383.25,0.25,34,56.88
2210,G#3,383.5,0.25,36,56.88
2211,G#4,383.5,0.5,59,56.88
2212,E-5,383.5,0.5,59,56.88
2213,E-3,383.75,0.25,33,56.88
2214,G#4,384.0,1.5,65,56.88
2215,E-5,384.0,0.75,65,56.88
2216,B-2,384.0,1.5,36,56.88
2217,F3,384.0,1.5,36,56.88
2218,F5,384.75,0.125,52,56.88
2219,E-5,384.875,0.125,49,56.88
2220,D5,385.0,0.5,52,56.88
2221,D4,385.5,0.5,45,56.88
2222,G#4,385.5,0.5,45,56.88
2223,B-2,385.5,0.5,29,56.88
2224,F3,385.5,0.5,29,56.88
2225,D4,386.0,0.5,47,56.88
2226,G#4,386.0,0.5,47,56.88
2227,B-2,386.0,0.5,32,56.88
2228,F3,386.0,0.5,32,56.88
2229,D4,386.5,0.5,45,56.88
2230,G#4,386.5,0.5,45,56.88
2231,B-2,386.5,0.5,29,56.88
2232,F3,386.5,0.5,29,56.88
2233,D4,387.0,1.0,47,56.88
2234,G#4,387.0,1.0,47,56.88
2235,B-2,387.0,1.0,32,56.88
2236,F3,387.0,1.0,32,56.88
2237,D5,388.5,9/20,39,56.88
2238,G#5,388.5,9/20,39,56.88
2239,F4,388.5,9/20,27,56.88
2240,B-3,388.5,9/20,27,56.88
2241,D5,389.0,9/20,39,56.88
2242,G#5,389.0,9/20,39,56.88
2243,F4,389.0,9/20,27,56.88
2244,B-3,389.0,9/20,27,56.88
2245,D5,389.5,9/20,39,56.88
2246,G#5,389.5,9/20,39,56.88
2247,F4,389.5,9/20,27,56.88
2248,B-3,389.5,9/20,27,56.88
2249,D5,390.0,1.0,43,56.88
2250,G#5,390.0,0.5,43,56.88
2251,B-3,390.0,1.0,31,56.88
2252,F4,390.0,1.0,31,56.88
2253,B-5,390.5,0.062,34,56.88
2254,G#5,390.562,0.062,36,56.88
2255,G5,390.625,0.062,39,56.88
2256,G#5,390.688,0.062,41,56.88
2257,B-5,390.75,0.125,40,56.88
2258,C6,390.875,0.125,37,56.88
2259,B-5,391.0,0.25,43,56.88
2260,G#5,391.25,0.25,40,56.88
2261,G5,391.5,0.25,44,56.88
2262,F5,391.75,0.25,44,56.88
2263,E-5,392.0,0.25,46,56.88
2264,D5,392.25,0.25,44,56.88
2265,C5,392.5,0.25,44,56.88
2266,B-4,392.75,229/1000,44,56.88
2267,B-4,393.002,0.75,46,56.88
2268,G4,393.002,1.0,46,56.88
2269,E-3,393.002,2.0,39,56.88
2270,C5,393.75,0.125,46,56.88
2271,B-4,393.875,0.125,46,56.88
2272,F4,394.0,0.5,44,56.88
2273,G#4,394.0,0.5,44,56.88
2274,E-4,394.5,0.5,42,56.88
2275,G4,394.5,0.5,42,56.88
2276,G#4,395.0,0.5,43,56.88
2277,C5,395.0,0.5,43,56.88
2278,G4,395.5,479/1000,41,56.88
2279,B-4,395.5,479/1000,41,56.88
2280,B-4,396.0,0.75,45,56.88
2281,G4,396.0,1.0,45,56.88
2282,E-3,396.0,0.25,37,56.88
2283,G3,396.25,0.25,33,56.88
2284,B-3,396.5,0.25,36,56.88
2285,C5,396.75,0.125,42,56.88
2286,E-3,396.75,0.25,33,56.88
2287,B-4,396.875,0.125,42,56.88
2288,G#4,397.0,1.0,47,56.88
2289,F3,397.0,0.25,40,56.88
2290,G#3,397.25,0.25,32,56.88
2291,D4,397.5,0.25,35,56.88
2292,F3,397.75,0.25,33,56.88
2293,G4,398.0,1.0,47,56.88
2294,G3,398.0,0.25,40,56.88
2295,B-3,398.25,0.25,32,56.88
2296,E-4,398.5,0.25,36,56.88
2297,G3,398.75,0.25,33,56.88
2298,G4,399.0,0.25,47,56.88
2299,G#3,399.0,3.0,41,56.88
2300,C4,399.0,3.0,41,56.88
2301,E4,399.25,0.25,44,56.88
2302,F4,399.5,0.25,45,56.88
2303,G4,399.75,0.25,46,56.88
2304,G#4,400.0,0.25,49,56.88
2305,A4,400.25,0.25,51,56.88
2306,B-4,400.5,0.25,52,56.88
2307,B4,400.75,0.25,54,56.88
2308,D5,401.0,0.125,56,56.88
2309,C5,401.125,0.125,54,56.88
2310,B4,401.25,0.125,52,56.88
2311,C5,401.375,0.125,54,56.88
2312,B-4,401.5,0.125,52,56.88
2313,G#4,401.625,0.125,49,56.88
2314,G4,401.75,0.125,51,56.88
2315,F4,401.875,0.125,50,56.88
2316,A2,402.0,0.25,44,56.88
2317,G3,402.0,1.0,54,56.88
2318,E-4,402.0,1.0,54,56.88
2319,B-2,402.25,0.25,46,56.88
2320,C3,402.5,0.25,49,56.88
2321,B-2,402.75,229/1000,45,56.88
2322,B-2,403.0,1.0,45,56.88
2323,F3,403.0,0.125,47,56.88
2324,D4,403.0,0.125,47,56.88
2325,B-3,403.125,0.125,49,56.88
2326,A3,403.25,0.125,50,56.88
2327,B-3,403.375,0.125,51,56.88
2328,B3,403.5,0.125,52,56.88
2329,C4,403.625,0.125,53,56.88
2330,C#4,403.75,0.125,54,56.88
2331,D4,403.875,0.125,54,56.88
2332,E-4,404.0,0.125,55,56.88
2333,E4,404.125,0.125,56,56.88
2334,F4,404.25,0.125,57,56.88
2335,F#4,404.375,0.125,59,56.88
2336,G4,404.5,0.125,60,56.88
2337,G#4,404.625,0.125,61,56.88
2338,A4,404.75,0.125,62,56.88
2339,B-4,404.875,13/125,63,56.88
2340,G4,405.0,1.0,63,56.88
2341,B-4,405.0,0.75,63,56.88
2342,E-2,405.0,1.0,45,56.88
2343,E-3,405.0,1.0,45,56.88
2344,C5,405.75,0.125,57,56.88
2345,B-4,405.875,0.125,53,56.88
2346,G#4,406.0,0.125,55,56.88
2347,G4,406.125,0.125,54,56.88
2348,C5,406.25,0.125,56,56.88
2349,B-4,406.375,0.125,53,56.88
2350,E-5,406.5,0.125,57,56.88
2351,D5,406.625,0.125,55,56.88
2352,F5,406.75,0.125,61,56.88
2353,E-5,406.875,0.125,55,56.88
2354,G#5,407.0,0.125,63,56.88
2355,E-3,407.0,1.0,53,56.88
2356,C4,407.0,1.0,53,56.88
2357,G5,407.125,0.125,59,56.88
2358,F#5,407.25,0.125,61,56.88
2359,G5,407.375,0.125,61,56.88
2360,F5,407.5,0.125,61,56.88
2361,E-5,407.625,0.125,59,56.88
2362,D5,407.75,0.125,57,56.88
2363,C5,407.875,0.125,55,56.88
2364,B-4,408.0,0.5,60,56.88
2365,F3,408.0,1.0,51,56.88
2366,C4,408.0,1.0,51,56.88
2367,A4,408.5,1.0,63,56.88
2368,B-3,409.0,0.5,46,56.88
2369,D4,409.0,1.0,46,56.88
2370,G#4,409.5,0.75,63,56.88
2371,B3,409.5,0.5,40,56.88
2372,E-4,410.0,1.0,47,56.88
2373,C4,410.0,0.5,47,56.88
2374,G4,410.25,0.25,66,56.88
2375,E-5,410.5,0.25,68,56.88
2376,G3,410.5,0.5,45,56.88
2377,C#5,410.75,0.25,64,56.88
2378,B4,411.0,0.25,67,56.88
2379,G#3,411.0,0.5,50,56.88
2380,E-4,411.0,0.5,47,56.88
2381,C5,411.25,0.25,64,56.88
2382,D5,411.5,0.25,69,56.88
2383,E-5,411.75,229/1000,64,56.88
2384,E-5,412.0,0.5,70,56.88
2385,B-2,412.0,2.0,51,56.88
2386,G3,412.0,1.0,51,56.88
2387,B-4,412.5,0.75,66,56.88
2388,G#3,413.0,1.0,37,56.88
2389,C5,413.25,0.125,54,56.88
2390,B-4,413.375,13/125,50,56.88
2391,B-4,413.5,0.125,53,56.88
2392,G#4,413.625,0.125,45,56.88
2393,G4,413.75,0.125,51,56.88
2394,F4,413.875,0.125,45,56.88
2395,E-4,414.0,1.0,46,56.88
2396,E-3,414.0,0.25,30,56.88
2397,G3,414.25,0.25,26,56.88
2398,B-3,414.5,0.25,27,56.88
2399,G3,414.75,0.25,27,56.88
2400,E-3,415.0,0.25,30,56.88
2401,G3,415.25,0.25,27,56.88
2402,B-3,415.5,0.25,29,56.88
2403,G4,415.5,0.5,46,56.88
2404,B-4,415.5,0.5,46,56.88
2405,G3,415.75,0.25,27,56.88
2406,E-3,416.0,0.25,33,56.88
2407,G4,416.0,0.5,50,56.88
2408,B-4,416.0,0.5,50,56.88
2409,G3,416.25,0.25,27,56.88
2410,B-3,416.5,0.25,29,56.88
2411,G4,416.5,0.5,46,56.88
2412,B-4,416.5,0.5,46,56.88
2413,G3,416.75,0.25,27,56.88
2414,G#4,417.0,1.5,54,56.88
2415,E-5,417.0,0.5,54,56.88
2416,E-3,417.0,0.25,36,56.88
2417,F3,417.25,0.25,27,56.88
2418,D5,417.5,1.0,46,56.88
2419,G#3,417.5,0.25,30,56.88
2420,F3,417.75,0.25,27,56.88
2421,E-3,418.0,0.25,32,56.88
2422,F3,418.25,0.25,27,56.88
2423,B-5,418.5,0.25,50,56.88
2424,G#3,418.5,0.25,27,56.88
2425,G#5,418.75,0.25,47,56.88
2426,F3,418.75,0.25,26,56.88
2427,G5,419.0,0.25,52,56.88
2428,E-3,419.0,0.25,32,56.88
2429,F5,419.25,0.25,47,56.88
2430,F3,419.25,0.25,27,56.88
2431,E-5,419.5,0.25,49,56.88
2432,G#3,419.5,0.25,27,56.88
2433,D5,419.75,0.25,45,56.88
2434,F3,419.75,0.25,27,56.88
2435,F5,420.0,83/1000,54,56.88
2436,E-3,420.0,0.25,33,56.88
2437,E-5,420.083,0.625,52,56.88
2438,G3,420.25,0.25,26,56.88
2439,B-3,420.5,0.25,27,56.88
2440,D5,420.75,0.125,49,56.88
2441,G3,420.75,0.25,26,56.88
2442,C5,420.875,0.125,45,56.88
2443,B-4,421.0,479/1000,50,56.88
2444,E-3,421.0,0.25,31,56.88
2445,G3,421.25,0.25,26,56.88
2446,B-3,421.5,0.25,27,56.88
2447,G4,421.5,9/20,49,56.88
2448,B-4,421.5,9/20,49,56.88
2449,G3,421.75,0.25,26,56.88
2450,E-3,422.0,0.25,33,56.88
2451,G4,422.0,9/20,53,56.88
2452,B-4,422.0,9/20,53,56.88
2453,G3,422.25,0.25,27,56.88
2454,B-3,422.5,0.25,30,56.88
2455,G4,422.5,9/20,49,56.88
2456,B-4,422.5,9/20,49,56.88
2457,G3,422.75,0.25,27,56.88
2458,G#4,423.0,0.5,62,56.88
2459,E-5,423.0,0.25,62,56.88
2460,E-3,423.0,0.25,36,56.88
2461,D5,423.25,0.25,55,56.88
2462,F3,423.25,0.25,25,56.88
2463,C6,423.5,1.0,60,56.88
2464,G#3,423.5,0.25,27,56.88
2465,F3,423.75,0.25,24,56.88
2466,E-3,424.0,0.25,29,56.88
2467,F3,424.25,0.25,23,56.88
2468,B-5,424.5,0.125,50,56.88
2469,G#3,424.5,0.25,27,56.88
2470,G#5,424.625,0.125,49,56.88
2471,C6,424.75,0.125,52,56.88
2472,F3,424.75,0.25,23,56.88
2473,G#5,424.875,0.125,49,56.88
2474,G5,425.0,0.125,51,56.88
2475,E-3,425.0,0.25,30,56.88
2476,F5,425.125,0.125,49,56.88
2477,G#5,425.25,0.125,51,56.88
2478,F3,425.25,0.25,26,56.88
2479,F5,425.375,0.125,49,56.88
2480,E-5,425.5,0.125,51,56.88
2481,G#3,425.5,0.25,26,56.88
2482,D5,425.625,0.125,49,56.88
2483,F5,425.75,0.125,52,56.88
2484,F3,425.75,0.25,25,56.88
2485,D5,425.875,0.125,49,56.88
2486,E-5,426.0,0.125,54,56.88
2487,E-3,426.0,1.0,27,56.88
2488,G3,426.0,1.0,27,56.88
2489,F5,426.125,0.125,52,56.88
2490,E-5,426.25,0.125,52,56.88
2491,D5,426.375,0.125,52,56.88
2492,E-5,426.5,83/1000,50,56.88
2493,E5,426.583,83/1000,47,56.88
2494,F5,426.667,83/1000,50,56.88
2495,F#5,426.75,0.125,53,56.88
2496,G5,426.875,0.125,54,56.88
2497,B-4,427.0,0.5,50,56.88
2498,G3,427.5,0.5,32,56.88
2499,G4,427.5,0.5,45,56.88
2500,B-4,427.5,0.5,45,56.88
2501,G#3,428.0,0.5,34,56.88
2502,F4,428.0,0.5,47,56.88
2503,G#4,428.0,0.5,47,56.88
2504,A3,428.5,0.5,35,56.88
2505,E-4,428.5,479/1000,51,56.88
2506,G4,428.5,479/1000,51,56.88
2507,E-4,429.0,1.0,58,56.88
2508,B-4,429.0,0.25,58,56.88
2509,B-3,429.0,1.25,37,56.88
2510,A4,429.25,0.25,49,56.88
2511,B-4,429.5,0.25,53,56.88
2512,G4,429.75,0.25,42,56.88
2513,D4,430.0,1.0,38,56.88
2514,F4,430.0,1.0,38,56.88
2515,B3,430.25,0.25,41,56.88
2516,C4,430.5,0.25,45,56.88
2517,B-3,430.75,229/1000,43,56.88
2518,B-3,431.0,0.25,45,56.88
2519,G#3,431.25,0.25,44,56.88
2520,G3,431.5,0.25,45,56.88
2521,F3,431.75,0.25,45,56.88
2522,B-4,431.875,0.125,67,56.88
2523,B-5,432.0,1.5,73,56.88
2524,E-3,432.0,0.5,53,56.88
2525,G3,432.5,0.5,45,56.88
2526,B-3,433.0,0.5,47,56.88
2527,G#5,433.5,0.125,70,56.88
2528,E-4,433.5,0.5,45,56.88
2529,G5,433.625,0.125,66,56.88
2530,F5,433.75,0.125,70,56.88
2531,E-5,433.875,0.125,64,56.88
2532,D5,434.0,0.5,74,56.88
2533,G#4,434.0,0.5,51,56.88
2534,E-5,434.5,0.5,72,56.88
2535,G4,434.5,0.5,47,56.88
2536,D5,435.0,0.5,67,56.88
2537,F5,435.0,0.5,67,56.88
2538,G#4,435.0,0.5,51,56.88
2539,F4,435.0,0.5,51,56.88
2540,G#5,435.5,0.125,69,56.88
2541,E-5,435.5,0.5,69,56.88
2542,G4,435.5,0.5,47,56.88
2543,E-4,435.5,0.5,47,56.88
2544,G5,435.625,0.125,65,56.88
2545,F5,435.75,0.125,66,56.88
2546,G5,435.875,0.125,65,56.88
2547,F5,436.0,0.5,70,56.88
2548,G#5,436.0,0.5,70,56.88
2549,D4,436.0,0.5,47,56.88
2550,F4,436.0,0.5,47,56.88
2551,B-4,436.5,9/20,57,56.88
2552,B-4,437.0,9/20,59,56.88
2553,B-4,437.5,9/20,59,56.88
2554,G#5,438.0,1.5,72,56.88
2555,B-3,438.5,0.5,45,56.88
2556,D4,439.0,0.5,45,56.88
2557,B-5,439.5,0.125,69,56.88
2558,F4,439.5,0.5,45,56.88
2559,G#5,439.625,0.125,65,56.88
2560,G5,439.75,0.125,69,56.88
2561,F5,439.875,0.125,64,56.88
2562,E-5,440.0,0.5,73,56.88
2563,G4,440.0,0.5,50,56.88
2564,B-4,440.5,0.5,45,56.88
2565,G#4,440.5,0.5,45,56.88
2566,D5,440.5,0.5,70,56.88
2567,F5,440.5,0.5,70,56.88
2568,G4,441.0,0.5,51,56.88
2569,B-4,441.0,0.5,45,56.88
2570,E-5,441.0,0.5,71,56.88
2571,G5,441.0,0.5,71,56.88
2572,B-5,441.5,0.125,67,56.88
2573,F5,441.5,0.5,67,56.88
2574,F4,441.5,0.5,45,56.88
2575,G#4,441.5,0.5,45,56.88
2576,G#5,441.625,0.125,63,56.88
2577,G5,441.75,0.125,67,56.88
2578,G#5,441.875,0.125,64,56.88
2579,G5,442.0,0.25,72,56.88
2580,B-5,442.0,0.25,72,56.88
2581,E-4,442.0,0.5,50,56.88
2582,G4,442.0,0.5,50,56.88
2583,E-2,442.5,9/20,54,56.88
2584,E-3,442.5,9/20,54,56.88
2585,E-2,443.0,9/20,56,56.88
2586,E-3,443.0,9/20,56,56.88
2587,E-2,443.5,9/20,54,56.88
2588,E-3,443.5,9/20,54,56.88
2589,C#5,444.0,1.25,83,56.88
2590,E-4,444.5,9/20,47,56.88
2591,G3,444.5,9/20,47,56.88
2592,G3,445.0,9/20,49,56.88
2593,E-4,445.0,9/20,49,56.88
2594,E-5,445.25,0.062,62,56.88
2595,C#5,445.312,0.062,58,56.88
2596,C5,445.375,0.062,62,56.88
2597,C#5,445.438,0.062,59,56.88
2598,E-5,445.5,0.25,67,56.88
2599,G3,445.5,9/20,48,56.88
2600,E-4,445.5,9/20,48,56.88
2601,F5,445.75,0.25,67,56.88
2602,E-5,446.0,0.25,67,56.88
2603,G3,446.0,9/20,51,56.88
2604,E-4,446.0,9/20,51,56.88
2605,C#5,446.25,0.25,60,56.88
2606,C5,446.5,0.25,67,56.88
2607,G3,446.5,9/20,45,56.88
2608,E-4,446.5,9/20,45,56.88
2609,B4,446.75,229/1000,61,56.88
2610,B4,447.0,1.25,70,56.88
2611,G3,447.5,0.5,47,56.88
2612,E-4,447.5,1.0,47,56.88
2613,G#3,448.0,0.5,50,56.88
2614,C5,448.25,0.25,67,56.88
2615,E-5,448.5,0.25,69,56.88
2616,E-4,448.5,9/20,55,56.88
2617,G#3,448.5,9/20,55,56.88
2618,D5,448.75,0.25,69,56.88
2619,F5,449.0,0.25,69,56.88
2620,G#3,449.0,9/20,55,56.88
2621,E-4,449.0,9/20,55,56.88
2622,E-5,449.25,0.25,64,56.88
2623,D5,449.5,0.25,68,56.88
2624,G#3,449.5,9/20,50,56.88
2625,E-4,449.5,9/20,50,56.88
2626,C5,449.75,0.25,61,56.88
2627,B-4,450.0,26/125,59,56.88
2628,G3,450.0,0.5,53,56.88
2629,E-4,450.0,0.5,53,56.88
2630,B4,450.167,26/125,60,56.88
2631,C5,450.333,26/125,62,56.88
2632,C#5,450.5,26/125,66,56.88
2633,G#3,450.5,0.5,48,56.88
2634,E-4,450.5,0.5,48,56.88
2635,D5,450.667,26/125,68,56.88
2636,E-5,450.833,167/1000,69,56.88
2637,E-5,451.0,0.125,60,56.88
2638,B-2,451.0,9/20,50,56.88
2639,G3,451.0,9/20,50,56.88
2640,E-4,451.125,0.875,73,56.88
2641,B-2,451.5,9/20,46,56.88
2642,G3,451.5,9/20,46,56.88
2643,G4,452.0,0.25,59,56.88
2644,D4,452.0,1.0,59,56.88
2645,B-2,452.0,9/20,39,56.88
2646,G#3,452.0,9/20,39,56.88
2647,F4,452.25,0.25,64,56.88
2648,E-4,452.5,0.25,64,56.88
2649,B-2,452.5,9/20,39,56.88
2650,G#3,452.5,9/20,39,56.88
2651,F4,452.75,0.25,59,56.88
2652,E-4,453.0,1.0,55,56.88
2653,E-3,453.0,0.25,45,56.88
2654,G3,453.0,0.25,45,56.88
2655,E-3,453.25,0.25,50,56.88
2656,G3,453.5,0.25,54,56.88
2657,B-3,453.75,0.25,57,56.88
2658,G#3,454.0,0.25,63,56.88
2659,B-3,454.25,0.25,56,56.88
2660,G3,454.5,0.25,63,56.88
2661,E-4,454.5,9/20,75,56.88
2662,B-4,454.5,9/20,75,56.88
2663,B-3,454.75,0.25,56,56.88
2664,F3,455.0,0.25,63,56.88
2665,F4,455.0,9/20,70,56.88
2666,B-4,455.0,9/20,70,56.88
2667,B-3,455.25,0.25,56,56.88
2668,E-3,455.5,0.25,63,56.88
2669,G4,455.5,9/20,75,56.88
2670,B-4,455.5,9/20,75,56.88
2671,B-3,455.75,0.25,56,56.88
2672,B-4,456.0,0.625,80,56.88
2673,G#4,456.0,1.5,63,56.88
2674,D3,456.0,0.25,63,56.88
2675,F3,456.25,0.25,54,56.88
2676,G#3,456.5,0.25,56,56.88
2677,C5,456.625,0.125,76,56.88
2678,B-4,456.75,0.125,70,56.88
2679,G3,456.75,0.25,53,56.88
2680,A4,456.875,0.125,69,56.88
2681,B-4,457.0,0.25,79,56.88
2682,F3,457.0,0.25,61,56.88
2683,E-3,457.25,0.25,54,56.88
2684,D3,457.5,0.25,56,56.88
2685,D4,457.5,0.5,74,56.88
2686,B-4,457.5,0.5,74,56.88
2687,C3,457.75,0.25,54,56.88
2688,B-2,458.0,0.25,56,56.88
2689,E-4,458.0,0.5,76,56.88
2690,C5,458.0,0.5,76,56.88
2691,C3,458.25,0.25,54,56.88
2692,G#2,458.5,0.25,56,56.88
2693,F4,458.5,0.5,72,56.88
2694,D5,458.5,0.5,72,56.88
2695,B-2,458.75,0.25,52,56.88
2696,E-5,459.0,0.625,81,56.88
2697,E-4,459.0,1.5,81,56.88
2698,G2,459.0,0.25,61,56.88
2699,B-2,459.25,0.25,47,56.88
2700,E-3,459.5,0.25,52,56.88
2701,F5,459.625,0.125,70,56.88
2702,G5,459.75,0.125,72,56.88
2703,B-2,459.75,0.25,47,56.88
2704,E-5,459.875,0.125,66,56.88
2705,B-4,460.0,0.25,69,56.88
2706,G3,460.0,0.25,52,56.88
2707,G4,460.5,0.5,52,56.88
2708,B-4,460.5,0.5,52,56.88
2709,E-3,460.5,0.5,43,56.88
2710,G3,460.5,0.5,43,56.88
2711,F4,461.0,0.5,54,56.88
2712,G#4,461.0,0.5,54,56.88
2713,F3,461.0,0.5,43,56.88
2714,G#3,461.0,0.5,43,56.88
2715,E-4,461.5,0.5,52,56.88
2716,G4,461.5,0.5,52,56.88
2717,G3,461.5,0.5,43,56.88
2718,B-3,461.5,0.5,43,56.88
2719,F4,462.0,0.625,57,56.88
2720,G#3,462.0,1.0,46,56.88
2721,C4,462.0,1.0,46,56.88
2722,G4,462.625,0.125,50,56.88
2723,G#4,462.75,0.125,52,56.88
2724,F4,462.875,0.125,50,56.88
2725,C5,463.0,0.25,56,56.88
2726,C4,463.5,0.5,46,56.88
2727,F4,463.5,0.5,46,56.88
2728,G#2,463.5,0.5,36,56.88
2729,F3,463.5,0.5,36,56.88
2730,B-2,464.0,1.0,43,56.88
2731,G3,464.0,0.5,43,56.88
2732,B-3,464.0,0.5,49,56.88
2733,E-4,464.0,0.5,49,56.88
2734,G#3,464.5,479/1000,36,56.88
2735,D4,464.5,479/1000,46,56.88
2736,F4,464.5,479/1000,46,56.88
2737,D4,465.0,1.0,54,56.88
2738,F4,465.0,0.75,54,56.88
2739,E-3,465.0,1.25,45,56.88
2740,G#3,465.0,1.0,45,56.88
2741,F#4,465.75,0.25,50,56.88
2742,G3,466.0,0.25,35,56.88
2743,E-4,466.0,0.5,45,56.88
2744,G4,466.0,0.5,45,56.88
2745,E-4,466.25,0.25,52,56.88
2746,G4,466.5,0.25,54,56.88
2747,E-5,466.5,9/20,76,56.88
2748,B-5,466.5,9/20,76,56.88
2749,B-4,466.75,0.25,51,56.88
2750,G#4,467.0,0.25,57,56.88
2751,F5,467.0,9/20,77,56.88
2752,B-5,467.0,9/20,77,56.88
2753,G4,467.25,0.25,52,56.88
2754,F4,467.5,0.25,54,56.88
2755,G5,467.5,9/20,76,56.88
2756,B-5,467.5,9/20,76,56.88
2757,E-4,467.75,0.25,53,56.88
2758,B-5,468.0,0.625,81,56.88
2759,G#5,468.0,1.5,81,56.88
2760,D4,468.0,0.25,63,56.88
2761,F4,468.25,0.25,54,56.88
2762,G#4,468.5,0.25,56,56.88
2763,C6,468.625,0.125,73,56.88
2764,B-5,468.75,0.125,69,56.88
2765,G4,468.75,0.25,54,56.88
2766,A5,468.875,0.125,70,56.88
2767,B-5,469.0,0.25,78,56.88
2768,F4,469.0,0.25,61,56.88
2769,E-4,469.25,0.25,54,56.88
2770,D4,469.5,0.25,56,56.88
2771,D5,469.5,0.5,76,56.88
2772,B-5,469.5,0.5,76,56.88
2773,C4,469.75,0.25,54,56.88
2774,B-3,470.0,0.25,56,56.88
2775,E-5,470.0,0.5,80,56.88
2776,C6,470.0,0.5,80,56.88
2777,C4,470.25,0.25,54,56.88
2778,G#3,470.5,0.25,56,56.88
2779,F5,470.5,0.5,75,56.88
2780,D6,470.5,0.5,75,56.88
2781,B-3,470.75,0.25,53,56.88
2782,E-6,471.0,0.625,86,56.88
2783,E-5,471.0,1.5,86,56.88
2784,G3,471.0,0.25,61,56.88
2785,B-3,471.25,0.25,45,56.88
2786,C4,471.5,0.25,49,56.88
2787,D6,471.625,0.125,68,56.88
2788,E-6,471.75,0.125,70,56.88
2789,D4,471.75,0.25,45,56.88
2790,B-5,471.875,0.125,66,56.88
2791,G5,472.0,0.25,61,56.88
2792,E-4,472.0,0.25,46,56.88
2793,G5,472.5,0.5,54,56.88
2794,B-5,472.5,0.5,54,56.88
2795,E-4,472.5,0.5,43,56.88
2796,G4,472.5,0.5,43,56.88
2797,F5,473.0,0.5,54,56.88
2798,G#5,473.0,0.5,54,56.88
2799,F4,473.0,0.5,43,56.88
2800,G#4,473.0,0.5,43,56.88
2801,E-5,473.5,0.5,54,56.88
2802,G5,473.5,0.5,54,56.88
2803,G4,473.5,0.5,36,56.88
2804,B-4,473.5,0.5,36,56.88
2805,E5,474.0,0.125,51,56.88
2806,G#4,474.0,0.5,43,56.88
2807,C5,474.0,0.5,43,56.88
2808,F5,474.125,0.125,50,56.88
2809,G5,474.25,0.125,56,56.88
2810,F5,474.375,0.125,55,56.88
2811,G#5,474.5,0.125,59,56.88
2812,G5,474.625,0.125,58,56.88
2813,B-5,474.75,0.125,62,56.88
2814,G#5,474.875,0.125,60,56.88
2815,C6,475.0,1.0,66,56.88
2816,B-5,476.0,0.5,59,56.88
2817,D4,476.0,0.5,43,56.88
2818,B-3,476.0,1.0,43,56.88
2819,G#4,476.0,1.0,43,56.88
2820,F4,476.5,0.5,43,56.88
2821,D5,476.875,0.125,53,56.88
2822,E-5,477.0,1.0,56,56.88
2823,E-4,477.0,0.25,43,56.88
2824,G4,477.25,0.25,39,56.88
2825,B-4,477.5,0.25,40,56.88
2826,G4,477.75,0.25,42,56.88
2827,E-4,478.0,0.25,46,56.88
2828,G4,478.25,0.25,44,56.88
2829,C#6,478.5,0.5,69,56.88
2830,B-4,478.5,0.25,49,56.88
2831,G4,478.75,0.25,50,56.88
2832,C6,479.0,0.5,72,56.88
2833,G#4,479.0,0.25,58,56.88
2834,F4,479.25,0.25,55,56.88
2835,D6,479.5,0.5,75,56.88
2836,B-4,479.5,0.25,56,56.88
2837,G#4,479.75,0.25,58,56.88
2838,F6,480.0,0.5,81,56.88
2839,G4,480.0,0.25,62,56.88
2840,B-4,480.25,0.25,56,56.88
2841,E-6,480.5,0.5,78,56.88
2842,G4,480.5,0.25,53,56.88
2843,F4,480.75,0.25,55,56.88
2844,E-4,481.0,0.25,70,56.88
2845,C#4,481.25,0.25,61,56.88
2846,C#5,481.5,0.5,72,56.88
2847,B-3,481.5,0.25,64,56.88
2848,G3,481.75,0.25,61,56.88
2849,C5,482.0,0.5,74,56.88
2850,G#3,482.0,0.25,70,56.88
2851,F3,482.25,0.25,64,56.88
2852,B-3,482.5,0.25,70,56.88
2853,G#4,482.5,0.5,69,56.88
2854,D5,482.5,0.5,69,56.88
2855,B-2,482.75,0.25,59,56.88
2856,E-3,483.0,1.5,46,56.88
2857,F5,483.0,1.0,54,56.88
2858,G#4,483.0,1.0,54,56.88
2859,G4,484.0,0.5,42,56.88
2860,E-5,484.0,0.5,42,56.88
2861,D4,484.5,0.5,41,56.88
2862,F4,484.5,0.5,41,56.88
2863,E-4,485.0,0.5,46,56.88
2864,G4,485.0,0.5,46,56.88
2865,B-2,485.5,0.5,36,56.88
2866,F4,485.5,0.5,45,56.88
2867,G#4,485.5,0.5,45,56.88
2868,D4,486.0,2.0,36,56.88
2869,F4,486.0,2.0,36,56.88
2870,G#4,486.0,2.0,36,56.88
2871,E-2,486.0,2.5,29,56.88
2872,E-3,486.0,2.5,29,56.88
2873,E-4,488.0,0.5,36,56.88
2874,G4,488.0,0.5,36,56.88
