,note_name,start_time,duration,velocity,tempo
0,F3,0.0,1.0,62,155.73
1,A2,0.0,1.0,62,155.73
2,C3,0.0,1.0,62,155.73
3,F2,0.0,1.0,62,155.73
4,C6,0.25,11/40,66,155.73
5,B5,0.5,11/40,68,155.73
6,C6,0.75,11/40,69,155.73
7,F6,1.0,11/40,70,155.73
8,C6,1.25,11/40,63,155.73
9,B-5,1.5,11/40,70,155.73
10,A5,1.75,11/40,66,155.73
11,G#5,2.0,11/40,64,155.73
12,A5,2.25,11/40,64,155.73
13,C6,2.5,11/40,70,155.73
14,A5,2.75,0.25,64,155.73
15,G5,3.0,11/40,70,155.73
16,A5,3.0,1/40,64,155.73
17,F5,3.25,11/40,64,155.73
18,E5,3.5,11/40,64,155.73
19,F5,3.75,11/40,64,155.73
20,A5,4.0,11/40,70,155.73
21,F5,4.25,11/40,65,155.73
22,D5,4.5,11/40,70,155.73
23,C5,4.75,11/40,65,155.73
24,B4,5.0,11/40,65,155.73
25,C5,5.25,11/40,65,155.73
26,F5,5.5,11/40,70,155.73
27,C5,5.75,0.25,65,155.73
28,B-4,6.0,11/40,70,155.73
29,C5,6.0,1/40,65,155.73
30,A4,6.25,11/40,66,155.73
31,G#4,6.5,11/40,66,155.73
32,A4,6.75,11/40,66,155.73
33,C5,7.0,11/40,70,155.73
34,A4,7.25,11/40,64,155.73
35,F4,7.5,0.25,70,155.73
36,A3,7.5,0.25,70,155.73
37,F5,7.75,0.25,64,155.73
38,E4,8.0,0.25,70,155.73
39,G3,8.0,0.25,66,155.73
40,F5,8.25,0.25,64,155.73
41,F4,8.5,0.25,70,155.73
42,A3,8.5,0.25,66,155.73
43,F5,8.75,0.25,64,155.73
44,G4,9.0,0.25,70,155.73
45,B-3,9.0,0.25,70,155.73
46,F5,9.25,0.25,64,155.73
47,F4,9.5,0.25,65,155.73
48,A3,9.5,0.25,67,155.73
49,F5,9.75,0.25,58,155.73
50,G4,10.0,0.25,67,155.73
51,B-3,10.0,0.25,67,155.73
52,F5,10.25,0.25,61,155.73
53,A4,10.5,0.25,70,155.73
54,C4,10.5,0.25,70,155.73
55,F5,10.75,0.25,60,155.73
56,G4,11.0,0.25,66,155.73
57,B-3,11.0,0.25,67,155.73
58,F5,11.25,0.25,62,155.73
59,A4,11.5,0.25,67,155.73
60,C4,11.5,0.25,67,155.73
61,F5,11.75,0.25,62,155.73
62,B-4,12.0,0.25,74,155.73
63,C#4,12.0,1.0,74,155.73
64,F5,12.25,0.25,61,155.73
65,B-4,12.5,0.25,65,155.73
66,F5,12.75,0.25,61,155.73
67,A4,13.0,0.25,65,155.73
68,C4,13.0,0.25,67,155.73
69,F5,13.25,0.25,60,155.73
70,B-4,13.5,0.25,70,155.73
71,C#4,13.5,1.0,74,155.73
72,F5,13.75,0.25,60,155.73
73,B-4,14.0,0.25,65,155.73
74,F5,14.25,0.25,60,155.73
75,A4,14.5,0.25,65,155.73
76,C4,14.5,0.25,66,155.73
77,F5,14.75,0.25,54,155.73
78,G#4,15.0,0.25,49,155.73
79,B3,15.0,0.25,47,155.73
80,F5,15.25,0.25,41,155.73
81,G#4,15.5,0.25,49,155.73
82,B3,15.5,0.25,47,155.73
83,F5,15.75,0.25,42,155.73
84,G#4,16.0,0.25,49,155.73
85,B3,16.0,0.25,47,155.73
86,F5,16.25,0.25,40,155.73
87,C4,16.5,0.5,50,155.73
88,G4,16.5,0.5,48,155.73
89,E5,16.5,0.5,48,155.73
90,A2,18.0,1.0,62,155.73
91,C3,18.0,1.0,62,155.73
92,F3,18.0,1.0,62,155.73
93,F2,18.0,1.0,62,155.73
94,C6,18.25,11/40,66,155.73
95,B5,18.5,11/40,68,155.73
96,C6,18.75,11/40,69,155.73
97,F6,19.0,11/40,70,155.73
98,C6,19.25,11/40,63,155.73
99,B-5,19.5,11/40,70,155.73
100,A5,19.75,11/40,66,155.73
101,G#5,20.0,11/40,64,155.73
102,A5,20.25,11/40,64,155.73
103,C6,20.5,11/40,70,155.73
104,A5,20.75,0.25,64,155.73
105,G5,21.0,11/40,70,155.73
106,A5,21.0,1/40,64,155.73
107,F5,21.25,11/40,64,155.73
108,E5,21.5,11/40,64,155.73
109,F5,21.75,11/40,64,155.73
110,A5,22.0,11/40,70,155.73
111,F5,22.25,11/40,65,155.73
112,D5,22.5,11/40,70,155.73
113,C5,22.75,11/40,65,155.73
114,B4,23.0,11/40,65,155.73
115,C5,23.25,11/40,65,155.73
116,F5,23.5,11/40,70,155.73
117,C5,23.75,0.25,65,155.73
118,B-4,24.0,11/40,70,155.73
119,C5,24.0,1/40,65,155.73
120,A4,24.25,11/40,66,155.73
121,G#4,24.5,11/40,66,155.73
122,A4,24.75,11/40,66,155.73
123,C5,25.0,11/40,70,155.73
124,A4,25.25,11/40,64,155.73
125,F4,25.5,0.25,70,155.73
126,A3,25.5,0.25,70,155.73
127,F5,25.75,0.25,64,155.73
128,E4,26.0,0.25,70,155.73
129,G3,26.0,0.25,66,155.73
130,F5,26.25,0.25,64,155.73
131,F4,26.5,0.25,70,155.73
132,A3,26.5,0.25,66,155.73
133,F5,26.75,0.25,64,155.73
134,G4,27.0,0.25,70,155.73
135,B-3,27.0,0.25,70,155.73
136,F5,27.25,0.25,64,155.73
137,F4,27.5,0.25,65,155.73
138,A3,27.5,0.25,67,155.73
139,F5,27.75,0.25,58,155.73
140,G4,28.0,0.25,67,155.73
141,B-3,28.0,0.25,67,155.73
142,F5,28.25,0.25,61,155.73
143,A4,28.5,0.25,70,155.73
144,C4,28.5,0.25,70,155.73
145,F5,28.75,0.25,60,155.73
146,G4,29.0,0.25,66,155.73
147,B-3,29.0,0.25,67,155.73
148,F5,29.25,0.25,62,155.73
149,A4,29.5,0.25,67,155.73
150,C4,29.5,0.25,67,155.73
151,F5,29.75,0.25,62,155.73
152,B-4,30.0,0.25,74,155.73
153,C#4,30.0,1.0,74,155.73
154,F5,30.25,0.25,61,155.73
155,B-4,30.5,0.25,65,155.73
156,F5,30.75,0.25,61,155.73
157,A4,31.0,0.25,65,155.73
158,C4,31.0,0.25,67,155.73
159,F5,31.25,0.25,60,155.73
160,B-4,31.5,0.25,70,155.73
161,C#4,31.5,1.0,74,155.73
162,F5,31.75,0.25,60,155.73
163,B-4,32.0,0.25,65,155.73
164,F5,32.25,0.25,60,155.73
165,A4,32.5,0.25,65,155.73
166,C4,32.5,0.25,66,155.73
167,F5,32.75,0.25,46,155.73
168,G#4,33.0,0.25,42,155.73
169,B3,33.0,0.25,35,155.73
170,F5,33.25,0.25,37,155.73
171,G4,34.5,0.25,42,155.73
172,B-3,34.5,0.25,34,155.73
173,E5,34.75,0.25,36,155.73
174,F#4,36.0,0.25,42,155.73
175,A3,36.0,0.25,34,155.73
176,E-5,36.25,0.25,35,155.73
177,B-2,37.5,0.25,58,155.73
178,B-3,37.75,0.25,61,155.73
179,D4,38.0,0.25,58,155.73
180,G4,38.25,0.25,59,155.73
181,B-4,38.5,0.25,60,155.73
182,D5,38.75,0.25,61,155.73
183,C5,39.0,11/40,62,155.73
184,E3,39.0,1.5,43,155.73
185,B-3,39.0,1.5,43,155.73
186,C3,39.0,1.5,43,155.73
187,B-4,39.25,11/40,62,155.73
188,A4,39.5,11/40,60,155.73
189,G4,39.75,11/40,59,155.73
190,F4,40.0,11/40,57,155.73
191,E4,40.25,11/40,55,155.73
192,F4,40.5,0.25,58,155.73
193,F3,40.5,0.5,42,155.73
194,A3,40.5,0.5,42,155.73
195,C4,41.0,0.5,49,155.73
196,C4,41.5,0.375,49,155.73
197,E4,41.875,0.125,41,155.73
198,B-4,42.0,2.0,49,155.73
199,C3,42.0,0.5,41,155.73
200,C4,42.5,0.25,28,155.73
201,B-3,42.5,0.25,28,155.73
202,C4,43.0,0.25,28,155.73
203,B-3,43.0,0.25,28,155.73
204,B-3,43.5,0.25,28,155.73
205,C4,43.5,0.25,28,155.73
206,A4,44.0,0.25,43,155.73
207,B-3,44.0,0.25,28,155.73
208,C4,44.0,0.25,28,155.73
209,G4,44.5,0.25,43,155.73
210,B-3,44.5,0.25,28,155.73
211,C4,44.5,0.25,28,155.73
212,G4,45.0,0.5,49,155.73
213,F3,45.0,0.5,41,155.73
214,F4,45.5,1.0,45,155.73
215,A3,45.5,0.25,28,155.73
216,C4,45.5,0.25,28,155.73
217,A3,46.0,0.25,28,155.73
218,C4,46.0,0.25,28,155.73
219,F4,46.5,1.375,45,155.73
220,C4,46.5,0.25,28,155.73
221,A3,46.5,0.25,28,155.73
222,C4,47.0,0.25,28,155.73
223,A3,47.0,0.25,28,155.73
224,C4,47.5,0.25,28,155.73
225,A3,47.5,0.25,28,155.73
226,E4,47.875,0.125,41,155.73
227,B-4,48.0,2.0,49,155.73
228,C3,48.0,0.5,41,155.73
229,G3,48.5,0.25,28,155.73
230,C4,48.5,0.25,28,155.73
231,G3,49.0,0.25,28,155.73
232,C4,49.0,0.25,28,155.73
233,C4,49.5,0.25,28,155.73
234,G3,49.5,0.25,28,155.73
235,A4,50.0,0.25,43,155.73
236,G3,50.0,0.25,28,155.73
237,C4,50.0,0.25,28,155.73
238,G4,50.5,0.25,43,155.73
239,G3,50.5,0.25,28,155.73
240,C4,50.5,0.25,28,155.73
241,B4,51.0,1.5,51,155.73
242,F3,51.0,0.5,41,155.73
243,A3,51.5,0.25,28,155.73
244,C4,51.5,0.25,28,155.73
245,C4,52.0,0.25,28,155.73
246,A3,52.0,0.25,28,155.73
247,C5,52.5,0.5,45,155.73
248,A3,52.5,0.25,28,155.73
249,C4,52.5,0.25,28,155.73
250,A3,53.0,0.25,28,155.73
251,C4,53.0,0.25,28,155.73
252,C4,53.5,0.25,28,155.73
253,A3,53.5,0.25,28,155.73
254,E4,53.875,0.125,41,155.73
255,B-4,54.0,2.0,49,155.73
256,C3,54.0,0.5,41,155.73
257,B-3,54.5,0.25,28,155.73
258,C4,54.5,0.25,28,155.73
259,C4,55.0,0.25,28,155.73
260,B-3,55.0,0.25,28,155.73
261,C4,55.5,0.25,28,155.73
262,B-3,55.5,0.25,28,155.73
263,A4,56.0,0.25,43,155.73
264,C4,56.0,0.25,28,155.73
265,B-3,56.0,0.25,28,155.73
266,G4,56.5,0.25,43,155.73
267,C4,56.5,0.25,28,155.73
268,B-3,56.5,0.25,28,155.73
269,F4,57.0,1.0,54,155.73
270,F3,57.0,0.5,41,155.73
271,C4,57.5,0.25,28,155.73
272,A3,57.5,0.25,28,155.73
273,A4,58.0,1.5,60,155.73
274,A3,58.0,0.25,28,155.73
275,C4,58.0,0.25,28,155.73
276,C4,58.5,0.25,28,155.73
277,A3,58.5,0.25,28,155.73
278,A3,59.0,0.25,28,155.73
279,C4,59.0,0.25,28,155.73
280,C5,59.5,0.5,60,155.73
281,C4,59.5,0.25,28,155.73
282,A3,59.5,0.25,28,155.73
283,C5,60.0,1.0,60,155.73
284,C3,60.0,0.5,41,155.73
285,G3,60.5,0.25,28,155.73
286,C4,60.5,0.25,28,155.73
287,B-4,61.0,1.5,58,155.73
288,G3,61.0,0.25,28,155.73
289,C4,61.0,0.25,28,155.73
290,C4,61.5,0.25,28,155.73
291,B-3,61.5,0.25,28,155.73
292,B-3,62.0,0.25,28,155.73
293,C4,62.0,0.25,28,155.73
294,G4,62.5,0.5,50,155.73
295,B-3,62.5,0.25,28,155.73
296,C4,62.5,0.25,28,155.73
297,F4,63.0,0.5,56,155.73
298,F3,63.0,0.5,35,155.73
299,A3,63.0,0.5,35,155.73
300,C4,63.0,0.5,35,155.73
301,A3,64.0,0.5,71,155.73
302,A2,64.0,0.5,60,155.73
303,B-3,64.5,0.25,78,155.73
304,B-2,64.5,0.25,66,155.73
305,G4,65.0,0.25,73,155.73
306,G3,65.0,0.25,61,155.73
307,B3,65.5,0.25,72,155.73
308,B2,65.5,0.25,61,155.73
309,C4,66.0,0.25,78,155.73
310,C3,66.0,0.25,66,155.73
311,A4,66.5,0.25,73,155.73
312,A3,66.5,0.25,61,155.73
313,C#4,67.0,0.25,73,155.73
314,C#3,67.0,0.25,61,155.73
315,D4,67.5,0.25,78,155.73
316,D3,67.5,0.25,66,155.73
317,B-4,68.0,0.25,72,155.73
318,B-3,68.0,0.25,61,155.73
319,E4,68.5,0.25,72,155.73
320,E3,68.5,0.25,61,155.73
321,B-5,69.0,2.0,68,155.73
322,B-3,70.5,1.5,30,155.73
323,C4,70.5,1.5,30,155.73
324,G4,70.5,1.5,30,155.73
325,E4,70.5,1.5,30,155.73
326,A5,71.0,0.25,62,155.73
327,G5,71.25,0.25,61,155.73
328,F5,71.5,0.25,59,155.73
329,E5,71.75,0.25,57,155.73
330,F5,72.0,0.25,56,155.73
331,C4,72.0,0.5,44,155.73
332,A3,72.0,0.5,44,155.73
333,F4,72.0,0.5,44,155.73
334,G5,72.5,0.25,49,155.73
335,A5,73.0,0.25,54,155.73
336,C4,73.5,1.0,42,155.73
337,A4,73.5,1.0,46,155.73
338,C5,73.5,1.0,46,155.73
339,C#4,74.5,0.5,42,155.73
340,B-4,74.5,0.5,40,155.73
341,G4,74.5,0.5,40,155.73
342,D4,75.0,2.0,47,155.73
343,B-4,75.0,1.5,46,155.73
344,G4,75.0,1.5,46,155.73
345,F4,76.5,0.5,41,155.73
346,A4,76.5,0.5,41,155.73
347,A3,79.0,0.5,71,155.73
348,A2,79.0,0.5,60,155.73
349,B-3,79.5,0.25,78,155.73
350,B-2,79.5,0.25,66,155.73
351,G4,80.0,0.25,73,155.73
352,G3,80.0,0.25,61,155.73
353,B3,80.5,0.25,72,155.73
354,B2,80.5,0.25,61,155.73
355,C4,81.0,0.25,78,155.73
356,C3,81.0,0.25,66,155.73
357,A4,81.5,0.25,73,155.73
358,A3,81.5,0.25,61,155.73
359,C#4,82.0,0.25,73,155.73
360,C#3,82.0,0.25,61,155.73
361,D4,82.5,0.25,78,155.73
362,D3,82.5,0.25,66,155.73
363,B-4,83.0,0.25,72,155.73
364,B-3,83.0,0.25,61,155.73
365,E4,83.5,0.25,72,155.73
366,E3,83.5,0.25,61,155.73
367,B-5,84.0,2.0,68,155.73
368,B-3,85.5,1.5,30,155.73
369,C4,85.5,1.5,30,155.73
370,G4,85.5,1.5,30,155.73
371,E4,85.5,1.5,30,155.73
372,A5,86.0,0.25,62,155.73
373,G5,86.25,0.25,61,155.73
374,F5,86.5,0.25,59,155.73
375,E5,86.75,0.25,57,155.73
376,F5,87.0,0.125,56,155.73
377,A3,87.0,0.5,44,155.73
378,C4,87.0,0.5,44,155.73
379,F4,87.0,0.5,44,155.73
380,G5,87.125,0.125,49,155.73
381,A5,87.25,0.125,49,155.73
382,D5,88.5,0.125,47,155.73
383,D4,88.5,0.5,36,155.73
384,F4,88.5,0.5,36,155.73
385,B-3,88.5,0.5,36,155.73
386,E5,88.625,0.125,41,155.73
387,F5,88.75,0.125,41,155.73
388,F4,90.0,1.25,44,155.73
389,C3,90.0,3.0,27,155.73
390,A3,90.0,1.5,32,155.73
391,A4,91.25,0.25,39,155.73
392,B-3,91.5,1.5,28,155.73
393,G4,91.5,1.0,40,155.73
394,E4,91.5,1.0,40,155.73
395,F4,92.5,0.5,41,155.73
396,F4,93.0,1.5,41,155.73
397,F3,93.0,1.5,28,155.73
398,A3,93.5,0.5,24,155.73
399,A4,94.0,0.5,39,155.73
400,C4,94.0,0.5,24,155.73
401,C5,94.5,0.5,44,155.73
402,E4,94.5,1.5,37,155.73
403,F3,94.5,1.5,28,155.73
404,B-4,95.0,0.5,39,155.73
405,G3,95.0,0.5,26,155.73
406,G4,95.5,0.5,39,155.73
407,B-3,95.5,0.5,26,155.73
408,F4,96.0,1.5,44,155.73
409,F3,96.0,1.5,28,155.73
410,C4,96.5,247/500,40,155.73
411,A3,96.5,0.5,24,155.73
412,A4,97.0,0.5,40,155.73
413,C4,97.0,0.5,24,155.73
414,C5,97.5,0.5,44,155.73
415,E4,97.5,1.5,37,155.73
416,F3,97.5,1.5,28,155.73
417,B-4,98.0,0.5,40,155.73
418,G3,98.0,0.5,24,155.73
419,G4,98.5,0.5,40,155.73
420,B-3,98.5,0.5,24,155.73
421,F4,99.0,0.5,44,155.73
422,F3,99.0,1.5,28,155.73
423,C4,99.5,247/500,41,155.73
424,A3,99.5,0.5,24,155.73
425,A4,100.0,0.5,41,155.73
426,C4,100.0,0.5,24,155.73
427,F4,100.5,0.5,44,155.73
428,F3,100.5,1.5,28,155.73
429,C4,101.0,123/250,40,155.73
430,A3,101.0,0.5,24,155.73
431,A4,101.5,0.5,40,155.73
432,C4,101.5,0.5,24,155.73
433,B-3,102.0,1.5,39,155.73
434,G4,102.0,1.5,39,155.73
435,F3,102.0,2.0,26,155.73
436,F2,102.0,2.0,26,155.73
437,F4,103.5,0.5,34,155.73
438,A3,103.5,0.5,34,155.73
439,A4,105.0,1.5,74,155.73
440,A5,105.0,1.5,74,155.73
441,G5,106.5,1.5,71,155.73
442,A4,106.5,1.5,71,155.73
443,F5,108.0,1.5,72,155.73
444,A4,108.0,1.5,72,155.73
445,A2,108.0,1.5,68,155.73
446,A3,108.0,1.5,68,155.73
447,A4,109.5,1.5,70,155.73
448,E5,109.5,1.5,70,155.73
449,G3,109.5,1.5,68,155.73
450,G2,109.5,1.5,68,155.73
451,A4,111.0,1.5,73,155.73
452,D5,111.0,1.5,73,155.73
453,F3,111.0,1.5,68,155.73
454,F2,111.0,1.5,68,155.73
455,G4,112.5,1.5,69,155.73
456,C#5,112.5,1.5,69,155.73
457,A4,112.5,1.5,69,155.73
458,E2,112.5,1.5,68,155.73
459,E3,112.5,1.5,68,155.73
460,D5,114.0,0.25,65,155.73
461,D3,114.0,0.5,59,155.73
462,A4,114.25,0.25,54,155.73
463,F4,114.5,0.25,54,155.73
464,F3,114.5,0.5,54,155.73
465,A4,114.75,0.25,54,155.73
466,D5,115.0,0.25,65,155.73
467,A3,115.0,0.5,54,155.73
468,A4,115.25,0.25,54,155.73
469,E5,115.5,0.25,65,155.73
470,C#3,115.5,0.5,59,155.73
471,A4,115.75,0.25,54,155.73
472,G4,116.0,0.25,54,155.73
473,E3,116.0,0.5,54,155.73
474,A4,116.25,0.25,54,155.73
475,E5,116.5,0.25,65,155.73
476,A3,116.5,0.5,54,155.73
477,A4,116.75,0.25,55,155.73
478,F5,117.0,0.25,65,155.73
479,D3,117.0,0.5,59,155.73
480,D5,117.25,0.25,55,155.73
481,A4,117.5,0.25,55,155.73
482,F3,117.5,0.5,54,155.73
483,D5,117.75,0.25,55,155.73
484,F5,118.0,0.25,65,155.73
485,A3,118.0,0.5,54,155.73
486,D5,118.25,0.25,55,155.73
487,F#5,118.5,0.25,65,155.73
488,C3,118.5,0.5,59,155.73
489,D5,118.75,0.25,55,155.73
490,A4,119.0,0.25,55,155.73
491,F#3,119.0,0.5,53,155.73
492,D5,119.25,0.25,55,155.73
493,F#5,119.5,0.25,65,155.73
494,A3,119.5,0.5,53,155.73
495,D5,119.75,0.25,56,155.73
496,G5,120.0,1.0,65,155.73
497,B2,120.0,1.0,58,155.73
498,A5,121.0,0.25,59,155.73
499,G5,121.25,0.25,59,155.73
500,F5,121.5,1.0,65,155.73
501,G5,122.5,0.25,57,155.73
502,F5,122.75,0.25,57,155.73
503,E5,123.0,1.0,65,155.73
504,G4,123.0,1.5,54,155.73
505,F5,124.0,0.25,57,155.73
506,E5,124.25,0.25,57,155.73
507,D5,124.5,1.0,65,155.73
508,F4,124.5,1.5,48,155.73
509,G4,124.5,1.5,48,155.73
510,E5,125.5,0.25,59,155.73
511,D5,125.75,0.25,59,155.73
512,C5,126.0,1.0,65,155.73
513,E4,126.0,1.5,44,155.73
514,G4,126.0,1.5,44,155.73
515,D5,127.0,0.25,59,155.73
516,C5,127.25,0.25,59,155.73
517,B4,127.5,1.0,65,155.73
518,G4,127.5,1.5,41,155.73
519,F4,127.5,1.5,41,155.73
520,D4,127.5,1.5,41,155.73
521,C5,128.5,0.25,56,155.73
522,B4,128.75,0.25,56,155.73
523,D5,129.0,11/40,62,155.73
524,C4,129.0,0.25,44,155.73
525,C5,129.25,11/40,54,155.73
526,B4,129.5,11/40,54,155.73
527,E4,129.5,0.25,37,155.73
528,C5,129.75,11/40,54,155.73
529,B4,130.0,11/40,53,155.73
530,G4,130.0,0.25,37,155.73
531,C5,130.25,11/40,55,155.73
532,E5,130.5,11/40,59,155.73
533,B3,130.5,0.25,43,155.73
534,D5,130.75,11/40,55,155.73
535,C#5,131.0,11/40,55,155.73
536,F4,131.0,0.25,37,155.73
537,D5,131.25,11/40,55,155.73
538,C#5,131.5,11/40,55,155.73
539,G4,131.5,0.25,37,155.73
540,D5,131.75,0.25,55,155.73
541,E5,132.0,11/40,59,155.73
542,D5,132.0,1/40,55,155.73
543,C4,132.0,0.5,46,155.73
544,E4,132.0,0.5,46,155.73
545,G4,132.0,0.5,46,155.73
546,D5,132.25,11/40,54,155.73
547,C5,132.5,11/40,54,155.73
548,D5,132.75,11/40,54,155.73
549,E5,133.0,11/40,54,155.73
550,F5,133.25,11/40,54,155.73
551,G5,133.5,11/40,59,155.73
552,F5,133.75,11/40,55,155.73
553,E5,134.0,11/40,55,155.73
554,F5,134.25,11/40,55,155.73
555,G5,134.5,11/40,55,155.73
556,G#5,134.75,0.25,55,155.73
557,A5,135.0,0.25,59,155.73
558,G#5,135.0,1/40,55,155.73
559,F3,135.0,0.25,41,155.73
560,B-5,135.25,11/40,55,155.73
561,A5,135.5,11/40,55,155.73
562,F4,135.5,0.25,35,155.73
563,G5,135.75,11/40,55,155.73
564,F5,136.0,11/40,55,155.73
565,E5,136.25,11/40,54,155.73
566,D5,136.5,0.25,59,155.73
567,B2,136.5,0.25,43,155.73
568,C#6,136.75,11/40,54,155.73
569,D6,137.0,11/40,63,155.73
570,B3,137.0,0.25,38,155.73
571,C6,137.25,11/40,62,155.73
572,B5,137.5,11/40,60,155.73
573,A5,137.75,0.25,59,155.73
574,G5,138.0,0.25,59,155.73
575,A5,138.0,1/40,59,155.73
576,E3,138.0,0.25,44,155.73
577,A5,138.25,0.25,60,155.73
578,G5,138.5,0.25,60,155.73
579,E4,138.5,0.25,40,155.73
580,F5,138.75,0.25,60,155.73
581,E5,139.0,0.25,60,155.73
582,D5,139.25,0.25,59,155.73
583,C5,139.5,0.25,59,155.73
584,A2,139.5,0.25,43,155.73
585,B5,139.75,11/40,56,155.73
586,C6,140.0,11/40,63,155.73
587,A3,140.0,0.25,40,155.73
588,B5,140.25,11/40,62,155.73
589,A5,140.5,11/40,60,155.73
590,G5,140.75,0.25,59,155.73
591,F5,141.0,0.25,56,155.73
592,G5,141.0,1/40,59,155.73
593,D3,141.0,0.25,48,155.73
594,C#6,141.25,0.25,61,155.73
595,D6,141.5,0.25,68,155.73
596,B5,141.75,0.25,63,155.73
597,G5,142.0,0.25,63,155.73
598,B3,142.0,0.25,43,155.73
599,F5,142.25,0.25,63,155.73
600,E5,142.5,0.25,60,155.73
601,C4,142.5,0.25,49,155.73
602,B5,142.75,11/40,53,155.73
603,C6,143.0,11/40,59,155.73
604,G5,143.25,11/40,54,155.73
605,F5,143.5,11/40,54,155.73
606,C3,143.5,0.25,40,155.73
607,E5,143.75,0.25,54,155.73
608,D5,144.0,0.25,59,155.73
609,E5,144.0,1/40,54,155.73
610,G3,144.0,0.25,47,155.73
611,E5,144.25,11/40,58,155.73
612,D5,144.5,11/40,62,155.73
613,C5,144.75,11/40,61,155.73
614,B4,145.0,11/40,60,155.73
615,A4,145.25,11/40,59,155.73
616,G4,145.5,11/40,57,155.73
617,A4,145.75,11/40,57,155.73
618,G4,146.0,11/40,56,155.73
619,F4,146.25,11/40,55,155.73
620,E4,146.5,11/40,52,155.73
621,D4,146.75,0.25,51,155.73
622,E-5,147.0,2.0,49,155.73
623,C4,147.0,0.5,41,155.73
624,E-4,147.5,0.5,31,155.73
625,G4,148.0,0.5,31,155.73
626,C4,148.5,0.5,37,155.73
627,D5,149.0,0.25,43,155.73
628,E-4,149.0,0.5,31,155.73
629,C5,149.5,0.25,43,155.73
630,G4,149.5,0.5,31,155.73
631,F#5,150.0,1.0,49,155.73
632,B3,150.0,0.5,41,155.73
633,D4,150.5,0.5,31,155.73
634,G5,151.0,0.5,43,155.73
635,G4,151.0,0.5,31,155.73
636,D5,151.5,1.0,43,155.73
637,B3,151.5,0.5,36,155.73
638,D4,152.0,0.5,31,155.73
639,G4,152.5,0.5,31,155.73
640,G#5,153.0,2.0,58,155.73
641,B3,153.0,0.5,41,155.73
642,D4,153.5,0.5,31,155.73
643,F4,154.0,0.5,31,155.73
644,B3,154.5,0.5,37,155.73
645,G5,155.0,0.25,49,155.73
646,D4,155.0,0.5,31,155.73
647,F5,155.5,0.25,49,155.73
648,G4,155.5,0.5,31,155.73
649,E-5,156.0,0.5,60,155.73
650,C4,156.0,0.5,41,155.73
651,F5,156.5,167/1000,42,155.73
652,E-4,156.5,0.5,31,155.73
653,E-5,156.667,167/1000,42,155.73
654,D5,156.833,167/1000,42,155.73
655,E-5,157.0,0.25,51,155.73
656,G4,157.0,0.5,31,155.73
657,F5,157.25,0.25,44,155.73
658,G5,157.5,1.0,51,155.73
659,C4,157.5,0.5,36,155.73
660,E-4,158.0,0.5,31,155.73
661,G4,158.5,0.5,31,155.73
662,C6,159.0,1.5,66,155.73
663,E-4,159.0,0.5,47,155.73
664,G4,159.5,0.5,36,155.73
665,C5,160.0,0.5,36,155.73
666,B-5,160.5,1.0,54,155.73
667,D4,160.5,0.5,44,155.73
668,F4,161.0,0.5,32,155.73
669,C6,161.5,0.5,50,155.73
670,B-4,161.5,0.5,33,155.73
671,B-5,162.0,1.0,57,155.73
672,C4,162.0,0.5,48,155.73
673,E-4,162.5,0.5,36,155.73
674,G#5,163.0,0.5,52,155.73
675,G#4,163.0,0.5,36,155.73
676,G5,163.5,1.5,55,155.73
677,B-3,163.5,0.5,45,155.73
678,D4,164.0,0.5,31,155.73
679,G4,164.5,0.5,31,155.73
680,F5,165.0,1.0,59,155.73
681,G#3,165.0,0.5,46,155.73
682,C4,165.5,0.5,35,155.73
683,E-5,166.0,0.5,53,155.73
684,F4,166.0,0.5,35,155.73
685,D5,166.5,1.0,57,155.73
686,G#3,166.5,0.5,43,155.73
687,C4,167.0,0.5,36,155.73
688,C5,167.5,0.5,47,155.73
689,F#4,167.5,0.5,34,155.73
690,E-5,168.0,1.5,53,155.73
691,G3,168.0,0.5,43,155.73
692,C4,168.5,0.5,29,155.73
693,G4,169.0,0.5,30,155.73
694,D5,169.5,0.5,45,155.73
695,G3,169.5,0.5,39,155.73
696,B3,170.0,0.5,27,155.73
697,G4,170.5,0.5,27,155.73
698,E-5,171.0,2.0,49,155.73
699,C4,171.0,0.5,41,155.73
700,E-4,171.5,0.5,31,155.73
701,G4,172.0,0.5,31,155.73
702,C4,172.5,0.5,37,155.73
703,D5,173.0,0.25,43,155.73
704,E-4,173.0,0.5,31,155.73
705,C5,173.5,0.25,43,155.73
706,G4,173.5,0.5,31,155.73
707,F#5,174.0,1.0,49,155.73
708,B3,174.0,0.5,41,155.73
709,D4,174.5,0.5,31,155.73
710,G5,175.0,0.5,43,155.73
711,G4,175.0,0.5,31,155.73
712,D5,175.5,1.0,43,155.73
713,B3,175.5,0.5,36,155.73
714,D4,176.0,0.5,31,155.73
715,G4,176.5,0.5,31,155.73
716,G#5,177.0,2.0,58,155.73
717,B3,177.0,0.5,41,155.73
718,D4,177.5,0.5,31,155.73
719,F4,178.0,0.5,31,155.73
720,B3,178.5,0.5,37,155.73
721,G5,179.0,0.25,49,155.73
722,D4,179.0,0.5,31,155.73
723,F5,179.5,0.25,49,155.73
724,G4,179.5,0.5,31,155.73
725,E5,180.0,0.5,60,155.73
726,B-3,180.0,0.5,41,155.73
727,C#4,180.5,0.5,31,155.73
728,F5,181.0,0.25,51,155.73
729,G4,181.0,0.5,31,155.73
730,G5,181.25,0.25,44,155.73
731,F5,181.5,1.0,51,155.73
732,A3,181.5,0.5,36,155.73
733,C4,182.0,0.5,31,155.73
734,F4,182.5,0.5,31,155.73
735,E-6,183.0,1.5,71,155.73
736,G#3,183.0,0.5,52,155.73
737,C4,183.5,0.5,41,155.73
738,F#4,184.0,0.5,41,155.73
739,G3,184.5,0.5,51,155.73
740,D6,185.0,0.25,58,155.73
741,C4,185.0,0.5,36,155.73
742,C6,185.5,0.25,58,155.73
743,G4,185.5,0.5,36,155.73
744,B5,186.0,1.5,66,155.73
745,F3,186.0,0.5,56,155.73
746,G#3,186.5,0.5,36,155.73
747,D4,187.0,0.5,36,155.73
748,C6,187.5,1.0,68,155.73
749,E-3,187.5,0.5,45,155.73
750,C4,188.0,0.5,31,155.73
751,G#5,188.5,0.5,46,155.73
752,F3,188.5,0.5,31,155.73
753,C5,189.0,1.375,55,155.73
754,G3,189.0,0.5,45,155.73
755,C4,189.5,0.5,30,155.73
756,E-4,190.0,0.5,30,155.73
757,E-5,190.375,0.125,40,155.73
758,G3,190.5,0.5,38,155.73
759,D5,190.5,1.5,51,155.73
760,B4,190.5,1.5,51,155.73
761,D4,191.0,0.5,31,155.73
762,F4,191.5,0.5,31,155.73
763,C5,192.0,0.25,74,155.73
764,C4,192.0,1.0,67,155.73
765,E4,192.0,1.0,67,155.73
766,G5,192.25,0.25,62,155.73
767,F#5,192.5,0.25,62,155.73
768,G5,192.75,0.25,62,155.73
769,A5,193.0,0.25,69,155.73
770,G5,193.25,0.25,62,155.73
771,F5,193.5,0.25,65,155.73
772,D4,193.5,0.25,67,155.73
773,G5,193.75,0.25,60,155.73
774,F5,194.0,0.25,65,155.73
775,B3,194.0,0.25,62,155.73
776,G5,194.25,0.25,59,155.73
777,F5,194.5,0.25,65,155.73
778,G3,194.5,0.25,62,155.73
779,G5,194.75,0.25,59,155.73
780,E5,195.0,0.25,74,155.73
781,C4,195.0,1.0,67,155.73
782,G5,195.25,0.25,62,155.73
783,F#5,195.5,0.25,62,155.73
784,G5,195.75,0.25,62,155.73
785,C6,196.0,0.25,74,155.73
786,G5,196.25,0.25,62,155.73
787,F5,196.5,0.25,65,155.73
788,D4,196.5,0.25,67,155.73
789,G5,196.75,0.25,60,155.73
790,F5,197.0,0.25,65,155.73
791,B3,197.0,0.25,62,155.73
792,G5,197.25,0.25,59,155.73
793,F5,197.5,0.25,65,155.73
794,G3,197.5,0.25,62,155.73
795,G5,197.75,0.25,59,155.73
796,E5,198.0,0.25,74,155.73
797,C4,198.0,1.0,67,155.73
798,G5,198.25,0.25,62,155.73
799,F#5,198.5,0.25,62,155.73
800,G5,198.75,0.25,62,155.73
801,C6,199.0,0.25,72,155.73
802,G5,199.25,0.25,62,155.73
803,F5,199.5,0.25,65,155.73
804,D4,199.5,0.25,67,155.73
805,G5,199.75,0.25,60,155.73
806,F5,200.0,0.25,65,155.73
807,B3,200.0,0.25,62,155.73
808,G5,200.25,0.25,59,155.73
809,F5,200.5,0.25,65,155.73
810,G3,200.5,0.25,62,155.73
811,G5,200.75,0.25,59,155.73
812,E5,201.0,0.25,74,155.73
813,C4,201.0,1.0,67,155.73
814,G5,201.25,0.25,62,155.73
815,C6,201.5,0.25,71,155.73
816,E5,201.75,0.25,60,155.73
817,D5,202.0,0.25,70,155.73
818,B5,202.25,0.25,62,155.73
819,C5,202.5,0.25,70,155.73
820,A5,202.75,0.25,62,155.73
821,B4,203.0,0.25,69,155.73
822,G5,203.25,0.25,60,155.73
823,A4,203.5,0.25,67,155.73
824,F5,203.75,0.25,58,155.73
825,G4,204.0,0.25,69,155.73
826,E5,204.25,0.25,62,155.73
827,F4,204.5,0.25,67,155.73
828,D5,204.75,0.25,59,155.73
829,E4,205.0,0.25,66,155.73
830,C5,205.25,0.25,56,155.73
831,D4,205.5,0.25,62,155.73
832,B4,205.75,0.25,54,155.73
833,C4,206.0,0.25,63,155.73
834,A4,206.25,0.25,55,155.73
835,B3,206.5,0.25,62,155.73
836,G4,206.75,0.25,51,155.73
837,A3,207.0,1.5,50,155.73
838,F#4,207.0,1.5,50,155.73
839,A2,207.5,11/20,46,155.73
840,C3,208.0,11/20,49,155.73
841,E-3,208.5,11/20,51,155.73
842,G#3,208.5,1.5,50,155.73
843,F4,208.5,1.5,50,155.73
844,D3,209.0,11/20,46,155.73
845,C3,209.5,0.5,46,155.73
846,C3,210.0,0.5,46,155.73
847,G#4,210.0,1.5,50,155.73
848,F5,210.0,1.5,50,155.73
849,B2,210.5,11/20,45,155.73
850,D3,211.0,11/20,46,155.73
851,G#3,211.5,11/20,51,155.73
852,D4,211.5,1.5,50,155.73
853,B4,211.5,1.5,50,155.73
854,G3,212.0,11/20,46,155.73
855,F3,212.5,0.5,46,155.73
856,E3,213.0,0.5,36,155.73
857,F3,213.0,1/20,46,155.73
858,G5,213.5,0.25,49,155.73
859,G5,214.0,0.25,49,155.73
860,F3,214.5,0.5,40,155.73
861,A5,215.0,0.25,49,155.73
862,A5,215.5,0.25,49,155.73
863,G3,216.0,3.0,34,155.73
864,E4,216.0,1.5,40,155.73
865,G4,216.0,1.375,43,155.73
866,C5,216.0,1.375,43,155.73
867,E5,217.375,0.125,40,155.73
868,F4,217.5,1.5,40,155.73
869,B4,217.5,1.5,40,155.73
870,D5,217.5,1.5,40,155.73
871,C5,219.0,0.25,74,155.73
872,E4,219.0,1.0,67,155.73
873,C4,219.0,1.0,67,155.73
874,G5,219.25,0.25,62,155.73
875,F#5,219.5,0.25,62,155.73
876,G5,219.75,0.25,62,155.73
877,A5,220.0,0.25,68,155.73
878,G5,220.25,0.25,62,155.73
879,F5,220.5,0.25,65,155.73
880,D4,220.5,0.25,67,155.73
881,G5,220.75,0.25,60,155.73
882,F5,221.0,0.25,65,155.73
883,B3,221.0,0.25,62,155.73
884,G5,221.25,0.25,59,155.73
885,F5,221.5,0.25,65,155.73
886,G3,221.5,0.25,62,155.73
887,G5,221.75,0.25,59,155.73
888,E5,222.0,0.25,74,155.73
889,C4,222.0,1.0,67,155.73
890,G5,222.25,0.25,62,155.73
891,F#5,222.5,0.25,62,155.73
892,G5,222.75,0.25,62,155.73
893,C6,223.0,0.25,74,155.73
894,G5,223.25,0.25,62,155.73
895,F5,223.5,0.25,65,155.73
896,D4,223.5,0.25,67,155.73
897,G5,223.75,0.25,60,155.73
898,F5,224.0,0.25,65,155.73
899,B3,224.0,0.25,62,155.73
900,G5,224.25,0.25,59,155.73
901,F5,224.5,0.25,65,155.73
902,G3,224.5,0.25,62,155.73
903,G5,224.75,0.25,59,155.73
904,E5,225.0,0.25,74,155.73
905,C4,225.0,1.0,67,155.73
906,G5,225.25,0.25,62,155.73
907,F#5,225.5,0.25,62,155.73
908,G5,225.75,0.25,62,155.73
909,C6,226.0,0.25,72,155.73
910,G5,226.25,0.25,62,155.73
911,F5,226.5,0.25,65,155.73
912,D4,226.5,0.25,67,155.73
913,G5,226.75,0.25,60,155.73
914,F5,227.0,0.25,65,155.73
915,B3,227.0,0.25,62,155.73
916,G5,227.25,0.25,59,155.73
917,F5,227.5,0.25,65,155.73
918,G3,227.5,0.25,62,155.73
919,G5,227.75,0.25,59,155.73
920,E5,228.0,0.25,74,155.73
921,C4,228.0,1.0,67,155.73
922,G5,228.25,0.25,62,155.73
923,C6,228.5,0.25,71,155.73
924,E5,228.75,0.25,60,155.73
925,D5,229.0,0.25,70,155.73
926,B5,229.25,0.25,62,155.73
927,C5,229.5,0.25,70,155.73
928,A5,229.75,0.25,62,155.73
929,B4,230.0,0.25,69,155.73
930,G5,230.25,0.25,60,155.73
931,A4,230.5,0.25,67,155.73
932,F5,230.75,0.25,58,155.73
933,G4,231.0,0.25,69,155.73
934,E5,231.25,0.25,62,155.73
935,F4,231.5,0.25,67,155.73
936,D5,231.75,0.25,59,155.73
937,E4,232.0,0.25,66,155.73
938,C5,232.25,0.25,56,155.73
939,D4,232.5,0.25,64,155.73
940,B4,232.75,0.25,55,155.73
941,C4,233.0,0.25,63,155.73
942,A4,233.25,0.25,55,155.73
943,B3,233.5,0.25,62,155.73
944,G4,233.75,0.25,51,155.73
945,F#4,234.0,1.5,50,155.73
946,A3,234.0,1.5,50,155.73
947,A2,234.5,11/20,46,155.73
948,C3,235.0,11/20,49,155.73
949,E-3,235.5,11/20,51,155.73
950,G#3,235.5,1.5,50,155.73
951,F4,235.5,1.5,50,155.73
952,D3,236.0,11/20,46,155.73
953,C3,236.5,0.5,46,155.73
954,C3,237.0,0.5,46,155.73
955,F5,237.0,1.5,50,155.73
956,G#4,237.0,1.5,50,155.73
957,B2,237.5,11/20,45,155.73
958,D3,238.0,11/20,46,155.73
959,G#3,238.5,11/20,51,155.73
960,D4,238.5,1.5,50,155.73
961,B4,238.5,1.5,50,155.73
962,G3,239.0,11/20,46,155.73
963,F3,239.5,0.5,46,155.73
964,E3,240.0,0.5,36,155.73
965,F3,240.0,1/20,46,155.73
966,G5,240.5,0.25,49,155.73
967,G5,241.0,0.25,49,155.73
968,F3,241.5,0.5,40,155.73
969,A5,242.0,0.25,49,155.73
970,A5,242.5,0.25,49,155.73
971,G4,243.0,3.0,39,155.73
972,C5,243.0,1.5,47,155.73
973,G3,243.0,1.5,37,155.73
974,E4,243.0,1.5,37,155.73
975,B4,244.5,1.5,37,155.73
976,D4,244.5,1.5,36,155.73
977,F3,244.5,1.5,36,155.73
978,F#5,246.0,0.25,71,155.73
979,E3,246.0,0.5,64,155.73
980,G5,246.25,11/40,55,155.73
981,F#5,246.5,11/40,55,155.73
982,G3,246.5,0.5,53,155.73
983,G5,246.75,11/40,55,155.73
984,F#5,247.0,11/40,55,155.73
985,C4,247.0,0.5,53,155.73
986,G5,247.25,0.25,55,155.73
987,G#5,247.5,11/40,62,155.73
988,F3,247.5,0.5,61,155.73
989,A5,247.75,11/40,55,155.73
990,G#5,248.0,11/40,55,155.73
991,A3,248.0,0.5,53,155.73
992,A5,248.25,11/40,55,155.73
993,B5,248.5,11/40,59,155.73
994,D4,248.5,0.5,50,155.73
995,C6,248.75,0.25,55,155.73
996,C5,249.0,1.375,47,155.73
997,G3,249.0,0.5,38,155.73
998,C4,249.5,0.5,34,155.73
999,E4,250.0,0.5,34,155.73
1000,E5,250.375,0.125,37,155.73
1001,D5,250.5,1.25,43,155.73
1002,B4,250.5,1.0,43,155.73
1003,G3,250.5,0.5,39,155.73
1004,D4,251.0,0.5,33,155.73
1005,F4,251.5,0.5,33,155.73
1006,C5,251.75,6/25,37,155.73
1007,C5,252.0,11/40,71,155.73
1008,E4,252.0,1.0,61,155.73
1009,C4,252.0,1.0,61,155.73
1010,E5,252.25,11/40,64,155.73
1011,G5,252.5,11/40,67,155.73
1012,C6,252.75,11/40,68,155.73
1013,B5,253.0,11/40,69,155.73
1014,A5,253.25,11/40,69,155.73
1015,G5,253.5,11/40,71,155.73
1016,B3,253.5,1.0,63,155.73
1017,F4,253.5,1.0,63,155.73
1018,G3,253.5,1.0,63,155.73
1019,A5,253.75,11/40,67,155.73
1020,G5,254.0,11/40,67,155.73
1021,F5,254.25,11/40,67,155.73
1022,E5,254.5,11/40,67,155.73
1023,D5,254.75,0.25,67,155.73
1024,C5,255.0,11/40,71,155.73
1025,C4,255.0,1.0,61,155.73
1026,E4,255.0,1.0,61,155.73
1027,E5,255.25,11/40,64,155.73
1028,D5,255.5,11/40,64,155.73
1029,C5,255.75,11/40,68,155.73
1030,B4,256.0,11/40,64,155.73
1031,A4,256.25,11/40,64,155.73
1032,G4,256.5,11/40,69,155.73
1033,B3,256.5,1.0,59,155.73
1034,G3,256.5,1.0,59,155.73
1035,F4,256.5,1.0,59,155.73
1036,A4,256.75,11/40,63,155.73
1037,G4,257.0,11/40,63,155.73
1038,F4,257.25,11/40,63,155.73
1039,E4,257.5,11/40,63,155.73
1040,D4,257.75,0.25,63,155.73
1041,C4,258.0,11/40,71,155.73
1042,E3,258.0,1.0,61,155.73
1043,C3,258.0,1.0,61,155.73
1044,E4,258.25,11/40,63,155.73
1045,D4,258.5,11/40,63,155.73
1046,C4,258.75,11/40,63,155.73
1047,B3,259.0,11/40,63,155.73
1048,A3,259.25,11/40,64,155.73
1049,G3,259.5,11/40,71,155.73
1050,G2,259.5,1.0,59,155.73
1051,F3,259.5,1.0,59,155.73
1052,B2,259.5,1.0,59,155.73
1053,A3,259.75,11/40,64,155.73
1054,G3,260.0,11/40,64,155.73
1055,F3,260.25,11/40,64,155.73
1056,E3,260.5,11/40,64,155.73
1057,D3,260.75,0.25,64,155.73
1058,C3,261.0,0.25,81,155.73
1059,C2,261.0,0.25,70,155.73
1060,E3,261.5,0.25,70,155.73
1061,E2,261.5,0.25,63,155.73
1062,G3,262.0,0.25,70,155.73
1063,G2,262.0,0.25,63,155.73
1064,C4,262.5,0.25,78,155.73
1065,C3,262.5,0.25,70,155.73
1066,E4,263.0,0.25,70,155.73
1067,E3,263.0,0.25,64,155.73
1068,G4,263.5,0.25,70,155.73
1069,G3,263.5,0.25,64,155.73
1070,C5,264.0,0.5,88,155.73
1071,C4,264.0,0.5,74,155.73
1072,E5,265.5,1.0,72,155.73
1073,G5,265.5,1.0,72,155.73
1074,C5,265.5,1.0,72,155.73
1075,G4,265.5,1.0,72,155.73
1076,E3,265.5,1.0,65,155.73
1077,C3,265.5,1.0,65,155.73
1078,G3,265.5,1.0,65,155.73
1079,C4,265.5,1.0,65,155.73
1080,G5,267.0,1.0,76,155.73
1081,E5,267.0,1.0,76,155.73
1082,C6,267.0,1.0,76,155.73
1083,C5,267.0,1.0,76,155.73
1084,C3,267.0,1.0,65,155.73
1085,C4,267.0,1.0,65,155.73
1086,G3,267.0,1.0,65,155.73
1087,E3,267.0,1.0,65,155.73
1088,F3,270.0,1.0,62,155.73
1089,C3,270.0,1.0,62,155.73
1090,F2,270.0,1.0,62,155.73
1091,A2,270.0,1.0,62,155.73
1092,C6,270.25,11/40,66,155.73
1093,B5,270.5,11/40,68,155.73
1094,C6,270.75,11/40,69,155.73
1095,F6,271.0,11/40,70,155.73
1096,C6,271.25,11/40,63,155.73
1097,B-5,271.5,11/40,70,155.73
1098,A5,271.75,11/40,66,155.73
1099,G#5,272.0,11/40,64,155.73
1100,A5,272.25,11/40,64,155.73
1101,C6,272.5,11/40,70,155.73
1102,A5,272.75,0.25,64,155.73
1103,G5,273.0,11/40,70,155.73
1104,A5,273.0,1/40,64,155.73
1105,F5,273.25,11/40,64,155.73
1106,E5,273.5,11/40,64,155.73
1107,F5,273.75,11/40,64,155.73
1108,A5,274.0,11/40,70,155.73
1109,F5,274.25,11/40,65,155.73
1110,D5,274.5,11/40,70,155.73
1111,C5,274.75,11/40,65,155.73
1112,B4,275.0,11/40,65,155.73
1113,C5,275.25,11/40,65,155.73
1114,F5,275.5,11/40,70,155.73
1115,C5,275.75,0.25,65,155.73
1116,B-4,276.0,11/40,70,155.73
1117,C5,276.0,1/40,65,155.73
1118,A4,276.25,11/40,66,155.73
1119,G#4,276.5,11/40,66,155.73
1120,A4,276.75,11/40,66,155.73
1121,C5,277.0,11/40,70,155.73
1122,A4,277.25,11/40,64,155.73
1123,F4,277.5,0.25,70,155.73
1124,A3,277.5,0.25,70,155.73
1125,F5,277.75,0.25,64,155.73
1126,E4,278.0,0.25,70,155.73
1127,G3,278.0,0.25,66,155.73
1128,F5,278.25,0.25,64,155.73
1129,F4,278.5,0.25,70,155.73
1130,A3,278.5,0.25,66,155.73
1131,F5,278.75,0.25,64,155.73
1132,G4,279.0,0.25,70,155.73
1133,B-3,279.0,0.25,70,155.73
1134,F5,279.25,0.25,64,155.73
1135,F4,279.5,0.25,65,155.73
1136,A3,279.5,0.25,67,155.73
1137,F5,279.75,0.25,58,155.73
1138,G4,280.0,0.25,67,155.73
1139,B-3,280.0,0.25,67,155.73
1140,F5,280.25,0.25,61,155.73
1141,A4,280.5,0.25,70,155.73
1142,C4,280.5,0.25,70,155.73
1143,F5,280.75,0.25,60,155.73
1144,G4,281.0,0.25,66,155.73
1145,B-3,281.0,0.25,67,155.73
1146,F5,281.25,0.25,62,155.73
1147,A4,281.5,0.25,67,155.73
1148,C4,281.5,0.25,67,155.73
1149,F5,281.75,0.25,62,155.73
1150,B-4,282.0,0.25,74,155.73
1151,C#4,282.0,1.0,74,155.73
1152,F5,282.25,0.25,61,155.73
1153,B-4,282.5,0.25,65,155.73
1154,F5,282.75,0.25,61,155.73
1155,A4,283.0,0.25,65,155.73
1156,C4,283.0,0.25,67,155.73
1157,F5,283.25,0.25,60,155.73
1158,B-4,283.5,0.25,70,155.73
1159,C#4,283.5,1.0,74,155.73
1160,F5,283.75,0.25,60,155.73
1161,B-4,284.0,0.25,65,155.73
1162,F5,284.25,0.25,60,155.73
1163,A4,284.5,0.25,65,155.73
1164,C4,284.5,0.25,66,155.73
1165,F5,284.75,0.25,54,155.73
1166,G#4,285.0,0.25,49,155.73
1167,B3,285.0,0.25,47,155.73
1168,F5,285.25,0.25,41,155.73
1169,G#4,285.5,0.25,49,155.73
1170,B3,285.5,0.25,47,155.73
1171,F5,285.75,0.25,42,155.73
1172,G#4,286.0,0.25,49,155.73
1173,B3,286.0,0.25,47,155.73
1174,F5,286.25,0.25,40,155.73
1175,C4,286.5,0.5,50,155.73
1176,G4,286.5,0.5,48,155.73
1177,E5,286.5,0.5,48,155.73
1178,A2,288.0,1.0,62,155.73
1179,F3,288.0,1.0,62,155.73
1180,F2,288.0,1.0,62,155.73
1181,C3,288.0,1.0,62,155.73
1182,C6,288.25,11/40,66,155.73
1183,B5,288.5,11/40,68,155.73
1184,C6,288.75,11/40,69,155.73
1185,F6,289.0,11/40,70,155.73
1186,C6,289.25,11/40,63,155.73
1187,B-5,289.5,11/40,70,155.73
1188,A5,289.75,11/40,66,155.73
1189,G#5,290.0,11/40,64,155.73
1190,A5,290.25,11/40,64,155.73
1191,C6,290.5,11/40,70,155.73
1192,A5,290.75,0.25,64,155.73
1193,G5,291.0,11/40,70,155.73
1194,A5,291.0,1/40,64,155.73
1195,F5,291.25,11/40,64,155.73
1196,E5,291.5,11/40,64,155.73
1197,F5,291.75,11/40,64,155.73
1198,A5,292.0,11/40,70,155.73
1199,F5,292.25,11/40,65,155.73
1200,D5,292.5,11/40,70,155.73
1201,C5,292.75,11/40,65,155.73
1202,B4,293.0,11/40,65,155.73
1203,C5,293.25,11/40,65,155.73
1204,F5,293.5,11/40,70,155.73
1205,C5,293.75,0.25,65,155.73
1206,B-4,294.0,11/40,70,155.73
1207,C5,294.0,1/40,65,155.73
1208,A4,294.25,11/40,66,155.73
1209,G#4,294.5,11/40,66,155.73
1210,A4,294.75,11/40,66,155.73
1211,C5,295.0,11/40,70,155.73
1212,A4,295.25,11/40,64,155.73
1213,F4,295.5,0.25,70,155.73
1214,A3,295.5,0.25,70,155.73
1215,F5,295.75,0.25,64,155.73
1216,E4,296.0,0.25,70,155.73
1217,G3,296.0,0.25,66,155.73
1218,F5,296.25,0.25,64,155.73
1219,F4,296.5,0.25,70,155.73
1220,A3,296.5,0.25,66,155.73
1221,F5,296.75,0.25,64,155.73
1222,G4,297.0,0.25,70,155.73
1223,B-3,297.0,0.25,70,155.73
1224,F5,297.25,0.25,64,155.73
1225,F4,297.5,0.25,65,155.73
1226,A3,297.5,0.25,67,155.73
1227,F5,297.75,0.25,58,155.73
1228,G4,298.0,0.25,67,155.73
1229,B-3,298.0,0.25,67,155.73
1230,F5,298.25,0.25,61,155.73
1231,A4,298.5,0.25,70,155.73
1232,C4,298.5,0.25,70,155.73
1233,F5,298.75,0.25,60,155.73
1234,G4,299.0,0.25,66,155.73
1235,B-3,299.0,0.25,67,155.73
1236,F5,299.25,0.25,62,155.73
1237,A4,299.5,0.25,67,155.73
1238,C4,299.5,0.25,67,155.73
1239,F5,299.75,0.25,62,155.73
1240,B-4,300.0,0.25,74,155.73
1241,C#4,300.0,1.0,74,155.73
1242,F5,300.25,0.25,61,155.73
1243,B-4,300.5,0.25,65,155.73
1244,F5,300.75,0.25,61,155.73
1245,A4,301.0,0.25,65,155.73
1246,C4,301.0,0.25,67,155.73
1247,F5,301.25,0.25,60,155.73
1248,B-4,301.5,0.25,70,155.73
1249,C#4,301.5,1.0,74,155.73
1250,F5,301.75,0.25,60,155.73
1251,B-4,302.0,0.25,65,155.73
1252,F5,302.25,0.25,60,155.73
1253,A4,302.5,0.25,65,155.73
1254,C4,302.5,0.25,66,155.73
1255,F5,302.75,0.25,46,155.73
1256,G#4,303.0,0.25,45,155.73
1257,B3,303.0,0.25,37,155.73
1258,F5,303.25,0.25,36,155.73
1259,G4,304.5,0.25,42,155.73
1260,B-3,304.5,0.25,37,155.73
1261,E5,304.75,0.25,34,155.73
1262,F#4,306.0,0.25,44,155.73
1263,A3,306.0,0.25,37,155.73
1264,E-5,306.25,0.25,35,155.73
1265,B-2,307.5,0.25,58,155.73
1266,B-3,307.75,0.25,61,155.73
1267,D4,308.0,0.25,58,155.73
1268,G4,308.25,0.25,59,155.73
1269,B-4,308.5,0.25,60,155.73
1270,D5,308.75,0.25,61,155.73
1271,C5,309.0,11/40,62,155.73
1272,E3,309.0,1.5,49,155.73
1273,C3,309.0,1.5,49,155.73
1274,B-3,309.0,1.5,49,155.73
1275,B-4,309.25,11/40,62,155.73
1276,A4,309.5,11/40,60,155.73
1277,G4,309.75,11/40,59,155.73
1278,F4,310.0,11/40,57,155.73
1279,E4,310.25,11/40,55,155.73
1280,F4,310.5,0.25,58,155.73
1281,A3,310.5,0.5,46,155.73
1282,F3,310.5,0.5,46,155.73
1283,C4,311.0,0.5,49,155.73
1284,C4,311.5,0.375,49,155.73
1285,E4,311.875,0.125,41,155.73
1286,B-4,312.0,2.0,49,155.73
1287,C3,312.0,0.5,41,155.73
1288,C4,312.5,0.25,28,155.73
1289,B-3,312.5,0.25,28,155.73
1290,C4,313.0,0.25,28,155.73
1291,B-3,313.0,0.25,28,155.73
1292,C4,313.5,0.25,28,155.73
1293,B-3,313.5,0.25,28,155.73
1294,A4,314.0,0.25,43,155.73
1295,C4,314.0,0.25,28,155.73
1296,B-3,314.0,0.25,28,155.73
1297,G4,314.5,0.25,43,155.73
1298,C4,314.5,0.25,28,155.73
1299,B-3,314.5,0.25,28,155.73
1300,G4,315.0,0.5,49,155.73
1301,F3,315.0,0.5,41,155.73
1302,F4,315.5,1.0,45,155.73
1303,C4,315.5,0.25,28,155.73
1304,A3,315.5,0.25,28,155.73
1305,C4,316.0,0.25,28,155.73
1306,A3,316.0,0.25,28,155.73
1307,F4,316.5,1.375,45,155.73
1308,A3,316.5,0.25,28,155.73
1309,C4,316.5,0.25,28,155.73
1310,A3,317.0,0.25,28,155.73
1311,C4,317.0,0.25,28,155.73
1312,A3,317.5,0.25,28,155.73
1313,C4,317.5,0.25,28,155.73
1314,E4,317.875,0.125,41,155.73
1315,B-4,318.0,2.0,49,155.73
1316,C3,318.0,0.5,41,155.73
1317,G3,318.5,0.25,28,155.73
1318,C4,318.5,0.25,28,155.73
1319,G3,319.0,0.25,28,155.73
1320,C4,319.0,0.25,28,155.73
1321,G3,319.5,0.25,28,155.73
1322,C4,319.5,0.25,28,155.73
1323,A4,320.0,0.25,43,155.73
1324,C4,320.0,0.25,28,155.73
1325,G3,320.0,0.25,28,155.73
1326,G4,320.5,0.25,43,155.73
1327,G3,320.5,0.25,28,155.73
1328,C4,320.5,0.25,28,155.73
1329,B4,321.0,1.5,51,155.73
1330,F3,321.0,0.5,41,155.73
1331,C4,321.5,0.25,28,155.73
1332,A3,321.5,0.25,28,155.73
1333,A3,322.0,0.25,28,155.73
1334,C4,322.0,0.25,28,155.73
1335,C5,322.5,0.5,45,155.73
1336,C4,322.5,0.25,28,155.73
1337,A3,322.5,0.25,28,155.73
1338,A3,323.0,0.25,28,155.73
1339,C4,323.0,0.25,28,155.73
1340,C4,323.5,0.25,28,155.73
1341,A3,323.5,0.25,28,155.73
1342,E4,323.875,0.125,41,155.73
1343,B-4,324.0,2.0,49,155.73
1344,C3,324.0,0.5,41,155.73
1345,B-3,324.5,0.25,28,155.73
1346,C4,324.5,0.25,28,155.73
1347,C4,325.0,0.25,28,155.73
1348,B-3,325.0,0.25,28,155.73
1349,C4,325.5,0.25,28,155.73
1350,B-3,325.5,0.25,28,155.73
1351,A4,326.0,0.25,43,155.73
1352,C4,326.0,0.25,28,155.73
1353,B-3,326.0,0.25,28,155.73
1354,G4,326.5,0.25,43,155.73
1355,C4,326.5,0.25,28,155.73
1356,B-3,326.5,0.25,28,155.73
1357,F4,327.0,1.0,54,155.73
1358,F3,327.0,0.5,41,155.73
1359,C4,327.5,0.25,28,155.73
1360,A3,327.5,0.25,28,155.73
1361,A4,328.0,1.5,60,155.73
1362,A3,328.0,0.25,28,155.73
1363,C4,328.0,0.25,28,155.73
1364,C4,328.5,0.25,28,155.73
1365,A3,328.5,0.25,28,155.73
1366,A3,329.0,0.25,28,155.73
1367,C4,329.0,0.25,28,155.73
1368,C5,329.5,0.5,60,155.73
1369,C4,329.5,0.25,28,155.73
1370,A3,329.5,0.25,28,155.73
1371,C5,330.0,1.0,60,155.73
1372,C3,330.0,0.5,41,155.73
1373,G3,330.5,0.25,28,155.73
1374,C4,330.5,0.25,28,155.73
1375,B-4,331.0,1.5,58,155.73
1376,C4,331.0,0.25,28,155.73
1377,G3,331.0,0.25,28,155.73
1378,C4,331.5,0.25,28,155.73
1379,B-3,331.5,0.25,28,155.73
1380,C4,332.0,0.25,28,155.73
1381,B-3,332.0,0.25,28,155.73
1382,G4,332.5,0.5,50,155.73
1383,B-3,332.5,0.25,28,155.73
1384,C4,332.5,0.25,28,155.73
1385,F4,333.0,0.5,56,155.73
1386,A3,333.0,0.5,35,155.73
1387,C4,333.0,0.5,35,155.73
1388,F3,333.0,0.5,35,155.73
1389,A3,334.0,0.5,71,155.73
1390,A2,334.0,0.5,60,155.73
1391,B-3,334.5,0.25,78,155.73
1392,B-2,334.5,0.25,66,155.73
1393,G4,335.0,0.25,73,155.73
1394,G3,335.0,0.25,61,155.73
1395,B3,335.5,0.25,72,155.73
1396,B2,335.5,0.25,61,155.73
1397,C4,336.0,0.25,78,155.73
1398,C3,336.0,0.25,66,155.73
1399,A4,336.5,0.25,73,155.73
1400,A3,336.5,0.25,61,155.73
1401,C#4,337.0,0.25,73,155.73
1402,C#3,337.0,0.25,61,155.73
1403,D4,337.5,0.25,78,155.73
1404,D3,337.5,0.25,66,155.73
1405,B-4,338.0,0.25,72,155.73
1406,B-3,338.0,0.25,61,155.73
1407,E4,338.5,0.25,72,155.73
1408,E3,338.5,0.25,61,155.73
1409,B-5,339.0,2.0,68,155.73
1410,C4,340.5,1.5,30,155.73
1411,B-3,340.5,1.5,30,155.73
1412,G4,340.5,1.5,30,155.73
1413,E4,340.5,1.5,30,155.73
1414,A5,341.0,0.25,62,155.73
1415,G5,341.25,0.25,61,155.73
1416,F5,341.5,0.25,59,155.73
1417,E5,341.75,0.25,57,155.73
1418,F5,342.0,0.25,56,155.73
1419,A3,342.0,0.5,44,155.73
1420,F4,342.0,0.5,44,155.73
1421,C4,342.0,0.5,44,155.73
1422,G5,342.5,0.25,49,155.73
1423,A5,343.0,0.25,54,155.73
1424,C4,343.5,1.0,42,155.73
1425,C5,343.5,1.0,46,155.73
1426,A4,343.5,1.0,46,155.73
1427,C#4,344.5,0.5,42,155.73
1428,B-4,344.5,0.5,40,155.73
1429,G4,344.5,0.5,40,155.73
1430,D4,345.0,2.0,47,155.73
1431,B-4,345.0,1.5,46,155.73
1432,G4,345.0,1.5,46,155.73
1433,A4,346.5,0.5,41,155.73
1434,F4,346.5,0.5,41,155.73
1435,A3,349.0,0.5,71,155.73
1436,A2,349.0,0.5,60,155.73
1437,B-3,349.5,0.25,78,155.73
1438,B-2,349.5,0.25,66,155.73
1439,G4,350.0,0.25,73,155.73
1440,G3,350.0,0.25,61,155.73
1441,B3,350.5,0.25,72,155.73
1442,B2,350.5,0.25,61,155.73
1443,C4,351.0,0.25,78,155.73
1444,C3,351.0,0.25,66,155.73
1445,A4,351.5,0.25,73,155.73
1446,A3,351.5,0.25,61,155.73
1447,C#4,352.0,0.25,73,155.73
1448,C#3,352.0,0.25,61,155.73
1449,D4,352.5,0.25,78,155.73
1450,D3,352.5,0.25,66,155.73
1451,B-4,353.0,0.25,72,155.73
1452,B-3,353.0,0.25,61,155.73
1453,E4,353.5,0.25,72,155.73
1454,E3,353.5,0.25,61,155.73
1455,B-5,354.0,2.0,68,155.73
1456,C4,355.5,1.5,30,155.73
1457,B-3,355.5,1.5,30,155.73
1458,E4,355.5,1.5,30,155.73
1459,G4,355.5,1.5,30,155.73
1460,A5,356.0,0.25,62,155.73
1461,G5,356.25,0.25,61,155.73
1462,F5,356.5,0.25,59,155.73
1463,E5,356.75,0.25,57,155.73
1464,F5,357.0,0.125,56,155.73
1465,C4,357.0,0.5,44,155.73
1466,A3,357.0,0.5,44,155.73
1467,F4,357.0,0.5,44,155.73
1468,G5,357.125,0.125,49,155.73
1469,A5,357.25,0.125,49,155.73
1470,D5,358.5,0.125,46,155.73
1471,D4,358.5,0.5,35,155.73
1472,B-3,358.5,0.5,35,155.73
1473,F4,358.5,0.5,35,155.73
1474,E5,358.625,0.125,38,155.73
1475,F5,358.75,0.125,38,155.73
1476,F4,360.0,1.25,44,155.73
1477,A3,360.0,1.5,32,155.73
1478,C3,360.0,3.0,27,155.73
1479,A4,361.25,0.25,39,155.73
1480,B-3,361.5,1.5,28,155.73
1481,E4,361.5,1.0,40,155.73
1482,G4,361.5,1.0,40,155.73
1483,F4,362.5,0.5,41,155.73
1484,F4,363.0,1.5,41,155.73
1485,F3,363.0,1.5,28,155.73
1486,A3,363.5,0.5,24,155.73
1487,A4,364.0,0.5,39,155.73
1488,C4,364.0,0.5,24,155.73
1489,E4,364.5,1.5,37,155.73
1490,C5,364.5,0.5,44,155.73
1491,F3,364.5,1.5,28,155.73
1492,B-4,365.0,0.5,39,155.73
1493,G3,365.0,0.5,26,155.73
1494,G4,365.5,0.5,39,155.73
1495,B-3,365.5,0.5,26,155.73
1496,F4,366.0,1.5,44,155.73
1497,F3,366.0,1.5,28,155.73
1498,C4,366.5,247/500,40,155.73
1499,A3,366.5,0.5,24,155.73
1500,A4,367.0,0.5,40,155.73
1501,C4,367.0,0.5,24,155.73
1502,C5,367.5,0.5,44,155.73
1503,E4,367.5,1.5,37,155.73
1504,F3,367.5,1.5,28,155.73
1505,B-4,368.0,0.5,40,155.73
1506,G3,368.0,0.5,24,155.73
1507,G4,368.5,0.5,40,155.73
1508,B-3,368.5,0.5,24,155.73
1509,F4,369.0,0.5,44,155.73
1510,F3,369.0,1.5,28,155.73
1511,C4,369.5,123/250,41,155.73
1512,A3,369.5,0.5,24,155.73
1513,A4,370.0,0.5,41,155.73
1514,C4,370.0,0.5,24,155.73
1515,F4,370.5,0.5,44,155.73
1516,F3,370.5,1.5,28,155.73
1517,C4,371.0,123/250,40,155.73
1518,A3,371.0,0.5,24,155.73
1519,A4,371.5,0.5,40,155.73
1520,C4,371.5,0.5,24,155.73
1521,B-3,372.0,1.5,39,155.73
1522,G4,372.0,1.5,39,155.73
1523,F3,372.0,2.0,26,155.73
1524,F2,372.0,2.0,26,155.73
1525,A3,373.5,0.5,34,155.73
1526,F4,373.5,0.5,34,155.73
1527,A5,375.0,1.5,74,155.73
1528,A4,375.0,1.5,74,155.73
1529,G5,376.5,1.5,71,155.73
1530,A4,376.5,1.5,71,155.73
1531,A4,378.0,1.5,72,155.73
1532,F5,378.0,1.5,72,155.73
1533,A2,378.0,1.5,68,155.73
1534,A3,378.0,1.5,68,155.73
1535,E5,379.5,1.5,70,155.73
1536,A4,379.5,1.5,70,155.73
1537,G3,379.5,1.5,68,155.73
1538,G2,379.5,1.5,68,155.73
1539,D5,381.0,1.5,73,155.73
1540,A4,381.0,1.5,73,155.73
1541,F3,381.0,1.5,68,155.73
1542,F2,381.0,1.5,68,155.73
1543,A4,382.5,1.5,69,155.73
1544,C#5,382.5,1.5,69,155.73
1545,G4,382.5,1.5,69,155.73
1546,E3,382.5,1.5,68,155.73
1547,E2,382.5,1.5,68,155.73
1548,D5,384.0,0.25,65,155.73
1549,D3,384.0,0.5,59,155.73
1550,A4,384.25,0.25,54,155.73
1551,F4,384.5,0.25,54,155.73
1552,F3,384.5,0.5,54,155.73
1553,A4,384.75,0.25,54,155.73
1554,D5,385.0,0.25,65,155.73
1555,A3,385.0,0.5,54,155.73
1556,A4,385.25,0.25,54,155.73
1557,E5,385.5,0.25,65,155.73
1558,C#3,385.5,0.5,59,155.73
1559,A4,385.75,0.25,54,155.73
1560,G4,386.0,0.25,54,155.73
1561,E3,386.0,0.5,54,155.73
1562,A4,386.25,0.25,54,155.73
1563,E5,386.5,0.25,65,155.73
1564,A3,386.5,0.5,54,155.73
1565,A4,386.75,0.25,55,155.73
1566,F5,387.0,0.25,65,155.73
1567,D3,387.0,0.5,59,155.73
1568,D5,387.25,0.25,55,155.73
1569,A4,387.5,0.25,55,155.73
1570,F3,387.5,0.5,54,155.73
1571,D5,387.75,0.25,55,155.73
1572,F5,388.0,0.25,65,155.73
1573,A3,388.0,0.5,54,155.73
1574,D5,388.25,0.25,55,155.73
1575,F#5,388.5,0.25,65,155.73
1576,C3,388.5,0.5,59,155.73
1577,D5,388.75,0.25,55,155.73
1578,A4,389.0,0.25,55,155.73
1579,F#3,389.0,0.5,53,155.73
1580,D5,389.25,0.25,55,155.73
1581,F#5,389.5,0.25,65,155.73
1582,A3,389.5,0.5,53,155.73
1583,D5,389.75,0.25,56,155.73
1584,G5,390.0,1.0,65,155.73
1585,B2,390.0,1.0,58,155.73
1586,A5,391.0,0.25,59,155.73
1587,G5,391.25,0.25,59,155.73
1588,F5,391.5,1.0,65,155.73
1589,G5,392.5,0.25,57,155.73
1590,F5,392.75,0.25,57,155.73
1591,E5,393.0,1.0,65,155.73
1592,G4,393.0,1.5,54,155.73
1593,F5,394.0,0.25,57,155.73
1594,E5,394.25,0.25,57,155.73
1595,D5,394.5,1.0,65,155.73
1596,G4,394.5,1.5,48,155.73
1597,F4,394.5,1.5,48,155.73
1598,E5,395.5,0.25,59,155.73
1599,D5,395.75,0.25,59,155.73
1600,C5,396.0,1.0,65,155.73
1601,G4,396.0,1.5,44,155.73
1602,E4,396.0,1.5,44,155.73
1603,D5,397.0,0.25,59,155.73
1604,C5,397.25,0.25,59,155.73
1605,B4,397.5,1.0,65,155.73
1606,F4,397.5,1.5,41,155.73
1607,D4,397.5,1.5,41,155.73
1608,G4,397.5,1.5,41,155.73
1609,C5,398.5,0.25,56,155.73
1610,B4,398.75,0.25,56,155.73
1611,D5,399.0,11/40,62,155.73
1612,C4,399.0,0.25,44,155.73
1613,C5,399.25,11/40,54,155.73
1614,B4,399.5,11/40,54,155.73
1615,E4,399.5,0.25,37,155.73
1616,C5,399.75,11/40,54,155.73
1617,B4,400.0,11/40,53,155.73
1618,G4,400.0,0.25,37,155.73
1619,C5,400.25,11/40,55,155.73
1620,E5,400.5,11/40,59,155.73
1621,B3,400.5,0.25,43,155.73
1622,D5,400.75,11/40,55,155.73
1623,C#5,401.0,11/40,55,155.73
1624,F4,401.0,0.25,37,155.73
1625,D5,401.25,11/40,55,155.73
1626,C#5,401.5,11/40,55,155.73
1627,G4,401.5,0.25,37,155.73
1628,D5,401.75,0.25,55,155.73
1629,E5,402.0,11/40,59,155.73
1630,D5,402.0,1/40,55,155.73
1631,G4,402.0,0.5,46,155.73
1632,C4,402.0,0.5,46,155.73
1633,E4,402.0,0.5,46,155.73
1634,D5,402.25,11/40,54,155.73
1635,C5,402.5,11/40,54,155.73
1636,D5,402.75,11/40,54,155.73
1637,E5,403.0,11/40,54,155.73
1638,F5,403.25,11/40,54,155.73
1639,G5,403.5,11/40,59,155.73
1640,F5,403.75,11/40,55,155.73
1641,E5,404.0,11/40,55,155.73
1642,F5,404.25,11/40,55,155.73
1643,G5,404.5,11/40,55,155.73
1644,G#5,404.75,0.25,55,155.73
1645,A5,405.0,0.25,59,155.73
1646,G#5,405.0,1/40,55,155.73
1647,F3,405.0,0.25,41,155.73
1648,B-5,405.25,11/40,55,155.73
1649,A5,405.5,11/40,55,155.73
1650,F4,405.5,0.25,35,155.73
1651,G5,405.75,11/40,55,155.73
1652,F5,406.0,11/40,55,155.73
1653,E5,406.25,11/40,54,155.73
1654,D5,406.5,0.25,59,155.73
1655,B2,406.5,0.25,43,155.73
1656,C#6,406.75,11/40,54,155.73
1657,D6,407.0,11/40,63,155.73
1658,B3,407.0,0.25,38,155.73
1659,C6,407.25,11/40,62,155.73
1660,B5,407.5,11/40,60,155.73
1661,A5,407.75,0.25,59,155.73
1662,G5,408.0,0.25,59,155.73
1663,A5,408.0,1/40,59,155.73
1664,E3,408.0,0.25,44,155.73
1665,A5,408.25,0.25,60,155.73
1666,G5,408.5,0.25,60,155.73
1667,E4,408.5,0.25,40,155.73
1668,F5,408.75,0.25,60,155.73
1669,E5,409.0,0.25,60,155.73
1670,D5,409.25,0.25,59,155.73
1671,C5,409.5,0.25,59,155.73
1672,A2,409.5,0.25,43,155.73
1673,B5,409.75,11/40,56,155.73
1674,C6,410.0,11/40,63,155.73
1675,A3,410.0,0.25,40,155.73
1676,B5,410.25,11/40,62,155.73
1677,A5,410.5,11/40,60,155.73
1678,G5,410.75,0.25,59,155.73
1679,F5,411.0,0.25,56,155.73
1680,G5,411.0,1/40,59,155.73
1681,D3,411.0,0.25,48,155.73
1682,C#6,411.25,0.25,61,155.73
1683,D6,411.5,0.25,68,155.73
1684,B5,411.75,0.25,63,155.73
1685,G5,412.0,0.25,63,155.73
1686,B3,412.0,0.25,43,155.73
1687,F5,412.25,0.25,63,155.73
1688,E5,412.5,0.25,60,155.73
1689,C4,412.5,0.25,49,155.73
1690,B5,412.75,11/40,53,155.73
1691,C6,413.0,11/40,59,155.73
1692,G5,413.25,11/40,54,155.73
1693,F5,413.5,11/40,54,155.73
1694,C3,413.5,0.25,40,155.73
1695,E5,413.75,0.25,54,155.73
1696,D5,414.0,0.25,59,155.73
1697,E5,414.0,1/40,54,155.73
1698,G3,414.0,0.25,47,155.73
1699,E5,414.25,11/40,58,155.73
1700,D5,414.5,11/40,62,155.73
1701,C5,414.75,11/40,61,155.73
1702,B4,415.0,11/40,60,155.73
1703,A4,415.25,11/40,59,155.73
1704,G4,415.5,11/40,57,155.73
1705,A4,415.75,11/40,57,155.73
1706,G4,416.0,11/40,56,155.73
1707,F4,416.25,11/40,55,155.73
1708,E4,416.5,11/40,52,155.73
1709,D4,416.75,0.25,51,155.73
1710,E-5,417.0,2.0,49,155.73
1711,C4,417.0,0.5,41,155.73
1712,E-4,417.5,0.5,31,155.73
1713,G4,418.0,0.5,31,155.73
1714,C4,418.5,0.5,37,155.73
1715,D5,419.0,0.25,43,155.73
1716,E-4,419.0,0.5,31,155.73
1717,C5,419.5,0.25,43,155.73
1718,G4,419.5,0.5,31,155.73
1719,F#5,420.0,1.0,49,155.73
1720,B3,420.0,0.5,41,155.73
1721,D4,420.5,0.5,31,155.73
1722,G5,421.0,0.5,43,155.73
1723,G4,421.0,0.5,31,155.73
1724,D5,421.5,1.0,43,155.73
1725,B3,421.5,0.5,36,155.73
1726,D4,422.0,0.5,31,155.73
1727,G4,422.5,0.5,31,155.73
1728,G#5,423.0,2.0,58,155.73
1729,B3,423.0,0.5,41,155.73
1730,D4,423.5,0.5,31,155.73
1731,F4,424.0,0.5,31,155.73
1732,B3,424.5,0.5,37,155.73
1733,G5,425.0,0.25,49,155.73
1734,D4,425.0,0.5,31,155.73
1735,F5,425.5,0.25,49,155.73
1736,G4,425.5,0.5,31,155.73
1737,E-5,426.0,0.5,60,155.73
1738,C4,426.0,0.5,41,155.73
1739,F5,426.5,167/1000,42,155.73
1740,E-4,426.5,0.5,31,155.73
1741,E-5,426.667,167/1000,42,155.73
1742,D5,426.833,167/1000,42,155.73
1743,E-5,427.0,0.25,51,155.73
1744,G4,427.0,0.5,31,155.73
1745,F5,427.25,0.25,44,155.73
1746,G5,427.5,1.0,51,155.73
1747,C4,427.5,0.5,36,155.73
1748,E-4,428.0,0.5,31,155.73
1749,G4,428.5,0.5,31,155.73
1750,C6,429.0,1.5,66,155.73
1751,E-4,429.0,0.5,47,155.73
1752,G4,429.5,0.5,36,155.73
1753,C5,430.0,0.5,36,155.73
1754,B-5,430.5,1.0,54,155.73
1755,D4,430.5,0.5,44,155.73
1756,F4,431.0,0.5,32,155.73
1757,C6,431.5,0.5,50,155.73
1758,B-4,431.5,0.5,33,155.73
1759,B-5,432.0,1.0,57,155.73
1760,C4,432.0,0.5,48,155.73
1761,E-4,432.5,0.5,36,155.73
1762,G#5,433.0,0.5,52,155.73
1763,G#4,433.0,0.5,36,155.73
1764,G5,433.5,1.5,55,155.73
1765,B-3,433.5,0.5,45,155.73
1766,D4,434.0,0.5,31,155.73
1767,G4,434.5,0.5,31,155.73
1768,F5,435.0,1.0,59,155.73
1769,G#3,435.0,0.5,46,155.73
1770,C4,435.5,0.5,35,155.73
1771,E-5,436.0,0.5,53,155.73
1772,F4,436.0,0.5,35,155.73
1773,D5,436.5,1.0,57,155.73
1774,G#3,436.5,0.5,43,155.73
1775,C4,437.0,0.5,36,155.73
1776,C5,437.5,0.5,47,155.73
1777,F#4,437.5,0.5,34,155.73
1778,E-5,438.0,1.5,53,155.73
1779,G3,438.0,0.5,43,155.73
1780,C4,438.5,0.5,29,155.73
1781,G4,439.0,0.5,30,155.73
1782,D5,439.5,0.5,45,155.73
1783,G3,439.5,0.5,39,155.73
1784,B3,440.0,0.5,27,155.73
1785,G4,440.5,0.5,27,155.73
1786,E-5,441.0,2.0,49,155.73
1787,C4,441.0,0.5,41,155.73
1788,E-4,441.5,0.5,31,155.73
1789,G4,442.0,0.5,31,155.73
1790,C4,442.5,0.5,37,155.73
1791,D5,443.0,0.25,43,155.73
1792,E-4,443.0,0.5,31,155.73
1793,C5,443.5,0.25,43,155.73
1794,G4,443.5,0.5,31,155.73
1795,F#5,444.0,1.0,49,155.73
1796,B3,444.0,0.5,41,155.73
1797,D4,444.5,0.5,31,155.73
1798,G5,445.0,0.5,43,155.73
1799,G4,445.0,0.5,31,155.73
1800,D5,445.5,1.0,43,155.73
1801,B3,445.5,0.5,36,155.73
1802,D4,446.0,0.5,31,155.73
1803,G4,446.5,0.5,31,155.73
1804,G#5,447.0,2.0,58,155.73
1805,B3,447.0,0.5,41,155.73
1806,D4,447.5,0.5,31,155.73
1807,F4,448.0,0.5,31,155.73
1808,B3,448.5,0.5,37,155.73
1809,G5,449.0,0.25,49,155.73
1810,D4,449.0,0.5,31,155.73
1811,F5,449.5,0.25,49,155.73
1812,G4,449.5,0.5,31,155.73
1813,E5,450.0,0.5,60,155.73
1814,B-3,450.0,0.5,41,155.73
1815,C#4,450.5,0.5,31,155.73
1816,F5,451.0,0.25,51,155.73
1817,G4,451.0,0.5,31,155.73
1818,G5,451.25,0.25,44,155.73
1819,F5,451.5,1.0,51,155.73
1820,A3,451.5,0.5,36,155.73
1821,C4,452.0,0.5,31,155.73
1822,F4,452.5,0.5,31,155.73
1823,E-6,453.0,1.5,71,155.73
1824,G#3,453.0,0.5,52,155.73
1825,C4,453.5,0.5,41,155.73
1826,F#4,454.0,0.5,41,155.73
1827,G3,454.5,0.5,51,155.73
1828,D6,455.0,0.25,58,155.73
1829,C4,455.0,0.5,36,155.73
1830,C6,455.5,0.25,58,155.73
1831,G4,455.5,0.5,36,155.73
1832,B5,456.0,1.5,66,155.73
1833,F3,456.0,0.5,56,155.73
1834,G#3,456.5,0.5,36,155.73
1835,D4,457.0,0.5,36,155.73
1836,C6,457.5,1.0,68,155.73
1837,E-3,457.5,0.5,45,155.73
1838,C4,458.0,0.5,31,155.73
1839,G#5,458.5,0.5,46,155.73
1840,F3,458.5,0.5,31,155.73
1841,C5,459.0,1.375,55,155.73
1842,G3,459.0,0.5,45,155.73
1843,C4,459.5,0.5,30,155.73
1844,E-4,460.0,0.5,30,155.73
1845,E-5,460.375,0.125,40,155.73
1846,G3,460.5,0.5,38,155.73
1847,D5,460.5,1.5,51,155.73
1848,B4,460.5,1.5,51,155.73
1849,D4,461.0,0.5,31,155.73
1850,F4,461.5,0.5,31,155.73
1851,C5,462.0,0.25,74,155.73
1852,E4,462.0,1.0,67,155.73
1853,C4,462.0,1.0,67,155.73
1854,G5,462.25,0.25,62,155.73
1855,F#5,462.5,0.25,62,155.73
1856,G5,462.75,0.25,62,155.73
1857,A5,463.0,0.25,69,155.73
1858,G5,463.25,0.25,62,155.73
1859,F5,463.5,0.25,65,155.73
1860,D4,463.5,0.25,67,155.73
1861,G5,463.75,0.25,60,155.73
1862,F5,464.0,0.25,65,155.73
1863,B3,464.0,0.25,62,155.73
1864,G5,464.25,0.25,59,155.73
1865,F5,464.5,0.25,65,155.73
1866,G3,464.5,0.25,62,155.73
1867,G5,464.75,0.25,59,155.73
1868,E5,465.0,0.25,74,155.73
1869,C4,465.0,1.0,67,155.73
1870,G5,465.25,0.25,62,155.73
1871,F#5,465.5,0.25,62,155.73
1872,G5,465.75,0.25,62,155.73
1873,C6,466.0,0.25,74,155.73
1874,G5,466.25,0.25,62,155.73
1875,F5,466.5,0.25,65,155.73
1876,D4,466.5,0.25,67,155.73
1877,G5,466.75,0.25,60,155.73
1878,F5,467.0,0.25,65,155.73
1879,B3,467.0,0.25,62,155.73
1880,G5,467.25,0.25,59,155.73
1881,F5,467.5,0.25,65,155.73
1882,G3,467.5,0.25,62,155.73
1883,G5,467.75,0.25,59,155.73
1884,E5,468.0,0.25,74,155.73
1885,C4,468.0,1.0,67,155.73
1886,G5,468.25,0.25,62,155.73
1887,F#5,468.5,0.25,62,155.73
1888,G5,468.75,0.25,62,155.73
1889,C6,469.0,0.25,72,155.73
1890,G5,469.25,0.25,62,155.73
1891,F5,469.5,0.25,65,155.73
1892,D4,469.5,0.25,67,155.73
1893,G5,469.75,0.25,60,155.73
1894,F5,470.0,0.25,65,155.73
1895,B3,470.0,0.25,62,155.73
1896,G5,470.25,0.25,59,155.73
1897,F5,470.5,0.25,65,155.73
1898,G3,470.5,0.25,62,155.73
1899,G5,470.75,0.25,59,155.73
1900,E5,471.0,0.25,74,155.73
1901,C4,471.0,1.0,67,155.73
1902,G5,471.25,0.25,62,155.73
1903,C6,471.5,0.25,71,155.73
1904,E5,471.75,0.25,60,155.73
1905,D5,472.0,0.25,70,155.73
1906,B5,472.25,0.25,62,155.73
1907,C5,472.5,0.25,70,155.73
1908,A5,472.75,0.25,62,155.73
1909,B4,473.0,0.25,69,155.73
1910,G5,473.25,0.25,60,155.73
1911,A4,473.5,0.25,67,155.73
1912,F5,473.75,0.25,58,155.73
1913,G4,474.0,0.25,69,155.73
1914,E5,474.25,0.25,62,155.73
1915,F4,474.5,0.25,67,155.73
1916,D5,474.75,0.25,59,155.73
1917,E4,475.0,0.25,66,155.73
1918,C5,475.25,0.25,56,155.73
1919,D4,475.5,0.25,62,155.73
1920,B4,475.75,0.25,54,155.73
1921,C4,476.0,0.25,63,155.73
1922,A4,476.25,0.25,55,155.73
1923,B3,476.5,0.25,62,155.73
1924,G4,476.75,0.25,51,155.73
1925,A3,477.0,1.5,50,155.73
1926,F#4,477.0,1.5,50,155.73
1927,A2,477.5,11/20,46,155.73
1928,C3,478.0,11/20,49,155.73
1929,E-3,478.5,11/20,51,155.73
1930,G#3,478.5,1.5,50,155.73
1931,F4,478.5,1.5,50,155.73
1932,D3,479.0,11/20,46,155.73
1933,C3,479.5,0.5,46,155.73
1934,C3,480.0,0.5,46,155.73
1935,G#4,480.0,1.5,50,155.73
1936,F5,480.0,1.5,50,155.73
1937,B2,480.5,11/20,45,155.73
1938,D3,481.0,11/20,46,155.73
1939,G#3,481.5,11/20,51,155.73
1940,D4,481.5,1.5,50,155.73
1941,B4,481.5,1.5,50,155.73
1942,G3,482.0,11/20,46,155.73
1943,F3,482.5,0.5,46,155.73
1944,E3,483.0,0.5,36,155.73
1945,F3,483.0,1/20,46,155.73
1946,G5,483.5,0.25,49,155.73
1947,G5,484.0,0.25,49,155.73
1948,F3,484.5,0.5,40,155.73
1949,A5,485.0,0.25,49,155.73
1950,A5,485.5,0.25,49,155.73
1951,G3,486.0,3.0,34,155.73
1952,E4,486.0,1.5,40,155.73
1953,G4,486.0,1.375,43,155.73
1954,C5,486.0,1.375,43,155.73
1955,E5,487.375,0.125,40,155.73
1956,F4,487.5,1.5,40,155.73
1957,D5,487.5,1.5,40,155.73
1958,B4,487.5,1.5,40,155.73
1959,C5,489.0,0.25,74,155.73
1960,E4,489.0,1.0,67,155.73
1961,C4,489.0,1.0,67,155.73
1962,G5,489.25,0.25,62,155.73
1963,F#5,489.5,0.25,62,155.73
1964,G5,489.75,0.25,62,155.73
1965,A5,490.0,0.25,68,155.73
1966,G5,490.25,0.25,62,155.73
1967,F5,490.5,0.25,65,155.73
1968,D4,490.5,0.25,67,155.73
1969,G5,490.75,0.25,60,155.73
1970,F5,491.0,0.25,65,155.73
1971,B3,491.0,0.25,62,155.73
1972,G5,491.25,0.25,59,155.73
1973,F5,491.5,0.25,65,155.73
1974,G3,491.5,0.25,62,155.73
1975,G5,491.75,0.25,59,155.73
1976,E5,492.0,0.25,74,155.73
1977,C4,492.0,1.0,67,155.73
1978,G5,492.25,0.25,62,155.73
1979,F#5,492.5,0.25,62,155.73
1980,G5,492.75,0.25,62,155.73
1981,C6,493.0,0.25,74,155.73
1982,G5,493.25,0.25,62,155.73
1983,F5,493.5,0.25,65,155.73
1984,D4,493.5,0.25,67,155.73
1985,G5,493.75,0.25,60,155.73
1986,F5,494.0,0.25,65,155.73
1987,B3,494.0,0.25,62,155.73
1988,G5,494.25,0.25,59,155.73
1989,F5,494.5,0.25,65,155.73
1990,G3,494.5,0.25,62,155.73
1991,G5,494.75,0.25,59,155.73
1992,E5,495.0,0.25,74,155.73
1993,C4,495.0,1.0,67,155.73
1994,G5,495.25,0.25,62,155.73
1995,F#5,495.5,0.25,62,155.73
1996,G5,495.75,0.25,62,155.73
1997,C6,496.0,0.25,72,155.73
1998,G5,496.25,0.25,62,155.73
1999,F5,496.5,0.25,65,155.73
2000,D4,496.5,0.25,67,155.73
2001,G5,496.75,0.25,60,155.73
2002,F5,497.0,0.25,65,155.73
2003,B3,497.0,0.25,62,155.73
2004,G5,497.25,0.25,59,155.73
2005,F5,497.5,0.25,65,155.73
2006,G3,497.5,0.25,62,155.73
2007,G5,497.75,0.25,59,155.73
2008,E5,498.0,0.25,74,155.73
2009,C4,498.0,1.0,67,155.73
2010,G5,498.25,0.25,62,155.73
2011,C6,498.5,0.25,71,155.73
2012,E5,498.75,0.25,60,155.73
2013,D5,499.0,0.25,70,155.73
2014,B5,499.25,0.25,62,155.73
2015,C5,499.5,0.25,70,155.73
2016,A5,499.75,0.25,62,155.73
2017,B4,500.0,0.25,69,155.73
2018,G5,500.25,0.25,60,155.73
2019,A4,500.5,0.25,67,155.73
2020,F5,500.75,0.25,58,155.73
2021,G4,501.0,0.25,69,155.73
2022,E5,501.25,0.25,62,155.73
2023,F4,501.5,0.25,67,155.73
2024,D5,501.75,0.25,59,155.73
2025,E4,502.0,0.25,66,155.73
2026,C5,502.25,0.25,56,155.73
2027,D4,502.5,0.25,64,155.73
2028,B4,502.75,0.25,55,155.73
2029,C4,503.0,0.25,63,155.73
2030,A4,503.25,0.25,55,155.73
2031,B3,503.5,0.25,62,155.73
2032,G4,503.75,0.25,51,155.73
2033,A3,504.0,1.5,50,155.73
2034,F#4,504.0,1.5,50,155.73
2035,A2,504.5,11/20,46,155.73
2036,C3,505.0,11/20,49,155.73
2037,E-3,505.5,11/20,51,155.73
2038,F4,505.5,1.5,50,155.73
2039,G#3,505.5,1.5,50,155.73
2040,D3,506.0,11/20,46,155.73
2041,C3,506.5,0.5,46,155.73
2042,C3,507.0,0.5,46,155.73
2043,G#4,507.0,1.5,50,155.73
2044,F5,507.0,1.5,50,155.73
2045,B2,507.5,11/20,45,155.73
2046,D3,508.0,11/20,46,155.73
2047,G#3,508.5,11/20,51,155.73
2048,D4,508.5,1.5,50,155.73
2049,B4,508.5,1.5,50,155.73
2050,G3,509.0,11/20,46,155.73
2051,F3,509.5,0.5,46,155.73
2052,E3,510.0,0.5,36,155.73
2053,F3,510.0,1/20,46,155.73
2054,G5,510.5,0.25,49,155.73
2055,G5,511.0,0.25,49,155.73
2056,F3,511.5,0.5,40,155.73
2057,A5,512.0,0.25,49,155.73
2058,A5,512.5,0.25,49,155.73
2059,G4,513.0,3.0,39,155.73
2060,C5,513.0,1.5,47,155.73
2061,G3,513.0,1.5,37,155.73
2062,E4,513.0,1.5,37,155.73
2063,B4,514.5,1.5,37,155.73
2064,D4,514.5,1.5,36,155.73
2065,F3,514.5,1.5,36,155.73
2066,F#5,516.0,0.25,71,155.73
2067,E3,516.0,0.5,64,155.73
2068,G5,516.25,11/40,55,155.73
2069,F#5,516.5,11/40,55,155.73
2070,G3,516.5,0.5,53,155.73
2071,G5,516.75,11/40,55,155.73
2072,F#5,517.0,11/40,55,155.73
2073,C4,517.0,0.5,53,155.73
2074,G5,517.25,0.25,55,155.73
2075,G#5,517.5,11/40,62,155.73
2076,F3,517.5,0.5,61,155.73
2077,A5,517.75,11/40,55,155.73
2078,G#5,518.0,11/40,55,155.73
2079,A3,518.0,0.5,53,155.73
2080,A5,518.25,11/40,55,155.73
2081,B5,518.5,11/40,59,155.73
2082,D4,518.5,0.5,50,155.73
2083,C6,518.75,0.25,55,155.73
2084,C5,519.0,1.375,47,155.73
2085,G3,519.0,0.5,38,155.73
2086,C4,519.5,0.5,34,155.73
2087,E4,520.0,0.5,34,155.73
2088,E5,520.375,0.125,37,155.73
2089,D5,520.5,1.25,43,155.73
2090,B4,520.5,1.0,43,155.73
2091,G3,520.5,0.5,39,155.73
2092,D4,521.0,0.5,33,155.73
2093,F4,521.5,0.5,33,155.73
2094,C5,521.75,0.25,37,155.73
2095,C5,522.0,11/40,71,155.73
2096,C4,522.0,1.0,61,155.73
2097,E4,522.0,1.0,61,155.73
2098,E5,522.25,11/40,64,155.73
2099,G5,522.5,11/40,67,155.73
2100,C6,522.75,11/40,68,155.73
2101,B5,523.0,11/40,69,155.73
2102,A5,523.25,11/40,69,155.73
2103,G5,523.5,11/40,71,155.73
2104,G3,523.5,1.0,63,155.73
2105,B3,523.5,1.0,63,155.73
2106,F4,523.5,1.0,63,155.73
2107,A5,523.75,11/40,67,155.73
2108,G5,524.0,11/40,67,155.73
2109,F5,524.25,11/40,67,155.73
2110,E5,524.5,11/40,67,155.73
2111,D5,524.75,0.25,67,155.73
2112,C5,525.0,11/40,71,155.73
2113,E4,525.0,1.0,61,155.73
2114,C4,525.0,1.0,61,155.73
2115,E5,525.25,11/40,64,155.73
2116,D5,525.5,11/40,64,155.73
2117,C5,525.75,11/40,68,155.73
2118,B4,526.0,11/40,64,155.73
2119,A4,526.25,11/40,64,155.73
2120,G4,526.5,11/40,69,155.73
2121,F4,526.5,1.0,59,155.73
2122,B3,526.5,1.0,59,155.73
2123,G3,526.5,1.0,59,155.73
2124,A4,526.75,11/40,63,155.73
2125,G4,527.0,11/40,63,155.73
2126,F4,527.25,11/40,63,155.73
2127,E4,527.5,11/40,63,155.73
2128,D4,527.75,0.25,63,155.73
2129,C4,528.0,11/40,71,155.73
2130,E3,528.0,1.0,61,155.73
2131,C3,528.0,1.0,61,155.73
2132,E4,528.25,11/40,63,155.73
2133,D4,528.5,11/40,63,155.73
2134,C4,528.75,11/40,63,155.73
2135,B3,529.0,11/40,63,155.73
2136,A3,529.25,11/40,64,155.73
2137,G3,529.5,11/40,71,155.73
2138,G2,529.5,1.0,59,155.73
2139,B2,529.5,1.0,59,155.73
2140,F3,529.5,1.0,59,155.73
2141,A3,529.75,11/40,64,155.73
2142,G3,530.0,11/40,64,155.73
2143,F3,530.25,11/40,64,155.73
2144,E3,530.5,11/40,64,155.73
2145,D3,530.75,0.25,64,155.73
2146,C3,531.0,0.25,81,155.73
2147,C2,531.0,0.25,70,155.73
2148,E3,531.5,0.25,70,155.73
2149,E2,531.5,0.25,63,155.73
2150,G3,532.0,0.25,70,155.73
2151,G2,532.0,0.25,63,155.73
2152,C4,532.5,0.25,78,155.73
2153,C3,532.5,0.25,70,155.73
2154,E4,533.0,0.25,70,155.73
2155,E3,533.0,0.25,64,155.73
2156,G4,533.5,0.25,70,155.73
2157,G3,533.5,0.25,64,155.73
2158,C5,534.0,0.5,88,155.73
2159,C4,534.0,0.5,74,155.73
2160,G4,535.5,1.0,72,155.73
2161,C5,535.5,1.0,72,155.73
2162,G5,535.5,1.0,72,155.73
2163,E5,535.5,1.0,72,155.73
2164,E3,535.5,1.0,65,155.73
2165,C4,535.5,1.0,65,155.73
2166,C3,535.5,1.0,65,155.73
2167,G3,535.5,1.0,65,155.73
2168,G5,537.0,1.0,76,155.73
2169,E5,537.0,1.0,76,155.73
2170,C6,537.0,1.0,76,155.73
2171,C5,537.0,1.0,76,155.73
2172,C3,537.0,1.0,65,155.73
2173,E3,537.0,1.0,65,155.73
2174,C4,537.0,1.0,65,155.73
2175,G3,537.0,1.0,65,155.73
2176,C3,540.0,1.0,62,155.73
2177,E-2,540.0,1.0,62,155.73
2178,G2,540.0,1.0,62,155.73
2179,C2,540.0,1.0,62,155.73
2180,G5,540.25,11/40,66,155.73
2181,F#5,540.5,11/40,68,155.73
2182,G5,540.75,11/40,69,155.73
2183,C6,541.0,11/40,70,155.73
2184,G5,541.25,11/40,63,155.73
2185,F5,541.5,11/40,70,155.73
2186,E-5,541.75,11/40,66,155.73
2187,D5,542.0,11/40,64,155.73
2188,E-5,542.25,11/40,64,155.73
2189,G5,542.5,11/40,70,155.73
2190,E-5,542.75,0.25,64,155.73
2191,D5,543.0,11/40,70,155.73
2192,E-5,543.0,1/40,64,155.73
2193,C5,543.25,11/40,64,155.73
2194,B4,543.5,11/40,64,155.73
2195,C5,543.75,11/40,64,155.73
2196,E-5,544.0,11/40,70,155.73
2197,C5,544.25,11/40,65,155.73
2198,G#4,544.5,11/40,70,155.73
2199,G4,544.75,11/40,65,155.73
2200,F#4,545.0,11/40,65,155.73
2201,G4,545.25,11/40,65,155.73
2202,C5,545.5,11/40,70,155.73
2203,G4,545.75,0.25,65,155.73
2204,F4,546.0,11/40,70,155.73
2205,G4,546.0,1/40,65,155.73
2206,E-4,546.25,11/40,66,155.73
2207,D4,546.5,11/40,66,155.73
2208,E-4,546.75,11/40,66,155.73
2209,G4,547.0,11/40,70,155.73
2210,E-4,547.25,11/40,64,155.73
2211,C4,547.5,0.25,70,155.73
2212,E-3,547.5,0.25,70,155.73
2213,C5,547.75,0.25,64,155.73
2214,B3,548.0,0.25,70,155.73
2215,D3,548.0,0.25,66,155.73
2216,C5,548.25,0.25,64,155.73
2217,C4,548.5,0.25,70,155.73
2218,E-3,548.5,0.25,66,155.73
2219,C5,548.75,0.25,64,155.73
2220,D4,549.0,0.25,70,155.73
2221,F3,549.0,0.25,70,155.73
2222,C5,549.25,0.25,64,155.73
2223,C4,549.5,0.25,65,155.73
2224,E-3,549.5,0.25,67,155.73
2225,C5,549.75,0.25,58,155.73
2226,D4,550.0,0.25,67,155.73
2227,F3,550.0,0.25,67,155.73
2228,C5,550.25,0.25,61,155.73
2229,E4,550.5,0.25,70,155.73
2230,G3,550.5,0.25,70,155.73
2231,C5,550.75,0.25,60,155.73
2232,D4,551.0,0.25,66,155.73
2233,F3,551.0,0.25,67,155.73
2234,C5,551.25,0.25,62,155.73
2235,E4,551.5,0.25,67,155.73
2236,G3,551.5,0.25,67,155.73
2237,C5,551.75,0.25,62,155.73
2238,F4,552.0,0.25,74,155.73
2239,G#3,552.0,1.0,74,155.73
2240,C5,552.25,0.25,61,155.73
2241,F4,552.5,0.25,65,155.73
2242,C5,552.75,0.25,61,155.73
2243,E-4,553.0,0.25,65,155.73
2244,G3,553.0,0.25,67,155.73
2245,C5,553.25,0.25,60,155.73
2246,F4,553.5,0.25,70,155.73
2247,G#3,553.5,1.0,74,155.73
2248,C5,553.75,0.25,60,155.73
2249,F4,554.0,0.25,65,155.73
2250,C5,554.25,0.25,60,155.73
2251,E-4,554.5,0.25,65,155.73
2252,G3,554.5,0.25,66,155.73
2253,C5,554.75,0.25,54,155.73
2254,D4,555.0,521/1000,49,155.73
2255,F#3,555.0,521/1000,44,155.73
2256,C5,555.25,0.25,43,155.73
2257,E-4,555.5,0.5,52,155.73
2258,G3,555.5,0.5,38,155.73
2259,C5,555.75,0.25,45,155.73
2260,D4,556.0,521/1000,55,155.73
2261,F#3,556.0,521/1000,55,155.73
2262,C5,556.25,0.25,52,155.73
2263,E-4,556.5,0.5,59,155.73
2264,G3,556.5,0.5,60,155.73
2265,C5,556.75,0.25,59,155.73
2266,F4,557.0,521/1000,66,155.73
2267,G#3,557.0,521/1000,63,155.73
2268,C5,557.25,0.25,55,155.73
2269,E-4,557.5,0.5,52,155.73
2270,G3,557.5,0.5,47,155.73
2271,C5,557.75,0.25,43,155.73
2272,D4,558.0,521/1000,50,155.73
2273,F#3,558.0,521/1000,47,155.73
2274,C5,558.25,0.25,44,155.73
2275,E-4,558.5,0.5,54,155.73
2276,G3,558.5,0.5,42,155.73
2277,C5,558.75,0.25,49,155.73
2278,D4,559.0,521/1000,57,155.73
2279,F#3,559.0,521/1000,59,155.73
2280,C5,559.25,0.25,53,155.73
2281,E-4,559.5,0.5,59,155.73
2282,G3,559.5,0.5,53,155.73
2283,C5,559.75,0.25,55,155.73
2284,F4,560.0,521/1000,64,155.73
2285,G#3,560.0,521/1000,64,155.73
2286,C5,560.25,0.25,54,155.73
2287,E-4,560.5,0.5,56,155.73
2288,G3,560.5,0.5,41,155.73
2289,C5,560.75,0.25,43,155.73
2290,D4,561.0,0.188,60,155.73
2291,F#3,561.25,0.25,42,155.73
2292,A3,561.5,0.25,44,155.73
2293,C4,561.75,0.25,46,155.73
2294,D4,562.0,0.25,48,155.73
2295,F#4,562.25,0.25,51,155.73
2296,C5,562.5,0.188,55,155.73
2297,D4,562.75,0.25,48,155.73
2298,F#4,563.0,0.25,51,155.73
2299,A4,563.25,0.25,53,155.73
2300,C5,563.5,0.188,56,155.73
2301,F#5,563.75,0.25,53,155.73
2302,C6,564.0,0.25,62,155.73
2303,B-5,564.25,0.25,61,155.73
2304,A5,564.5,0.25,60,155.73
2305,G5,564.75,0.25,59,155.73
2306,F#5,565.0,0.25,58,155.73
2307,G5,565.25,0.25,55,155.73
2308,F#5,565.5,0.25,59,155.73
2309,G5,565.75,0.25,55,155.73
2310,F#5,566.0,0.25,58,155.73
2311,E-5,566.25,0.25,57,155.73
2312,D5,566.5,0.25,56,155.73
2313,C5,566.75,0.25,55,155.73
2314,B4,567.0,521/1000,49,155.73
2315,G3,567.0,521/1000,44,155.73
2316,F5,567.25,0.25,43,155.73
2317,C5,567.5,0.5,52,155.73
2318,G#3,567.5,0.5,38,155.73
2319,F5,567.75,0.25,45,155.73
2320,B4,568.0,521/1000,55,155.73
2321,G3,568.0,521/1000,55,155.73
2322,F5,568.25,0.25,52,155.73
2323,C5,568.5,0.5,62,155.73
2324,G#3,568.5,0.5,55,155.73
2325,F5,568.75,0.25,60,155.73
2326,C#5,569.0,521/1000,67,155.73
2327,B-3,569.0,521/1000,63,155.73
2328,F5,569.25,0.25,55,155.73
2329,C5,569.5,0.5,52,155.73
2330,G#3,569.5,0.5,47,155.73
2331,F5,569.75,0.25,43,155.73
2332,B4,570.0,521/1000,50,155.73
2333,G3,570.0,521/1000,47,155.73
2334,F5,570.25,0.25,44,155.73
2335,C5,570.5,0.5,54,155.73
2336,G#3,570.5,0.5,42,155.73
2337,F5,570.75,0.25,49,155.73
2338,B4,571.0,521/1000,57,155.73
2339,G3,571.0,521/1000,59,155.73
2340,F5,571.25,0.25,53,155.73
2341,C5,571.5,0.5,63,155.73
2342,G#3,571.5,0.5,53,155.73
2343,F5,571.75,0.25,55,155.73
2344,C#5,572.0,521/1000,68,155.73
2345,B-3,572.0,521/1000,64,155.73
2346,F5,572.25,0.25,54,155.73
2347,C5,572.5,0.5,56,155.73
2348,G#3,572.5,0.5,41,155.73
2349,F5,572.75,0.25,43,155.73
2350,B4,573.0,0.188,60,155.73
2351,G3,573.25,0.25,42,155.73
2352,B3,573.5,0.25,44,155.73
2353,D4,573.75,0.25,46,155.73
2354,F4,574.0,0.25,48,155.73
2355,B4,574.25,0.25,51,155.73
2356,F5,574.5,0.188,55,155.73
2357,G4,574.75,0.25,48,155.73
2358,B4,575.0,0.25,51,155.73
2359,D5,575.25,0.25,53,155.73
2360,F5,575.5,0.188,56,155.73
2361,B5,575.75,0.25,53,155.73
2362,F6,576.0,0.25,62,155.73
2363,E-6,576.25,0.25,61,155.73
2364,D6,576.5,0.25,60,155.73
2365,C6,576.75,0.25,59,155.73
2366,B5,577.0,0.25,58,155.73
2367,G#5,577.25,0.25,55,155.73
2368,G5,577.5,0.25,59,155.73
2369,F#5,577.75,0.25,55,155.73
2370,G5,578.0,0.25,58,155.73
2371,G#5,578.25,0.25,57,155.73
2372,G5,578.5,0.25,56,155.73
2373,F5,578.75,0.25,55,155.73
2374,E5,579.0,521/1000,49,155.73
2375,C4,579.0,521/1000,44,155.73
2376,G4,579.25,0.25,43,155.73
2377,F5,579.5,0.5,52,155.73
2378,B3,579.5,0.5,38,155.73
2379,G4,579.75,0.25,45,155.73
2380,E5,580.0,521/1000,55,155.73
2381,C4,580.0,521/1000,45,155.73
2382,G4,580.25,0.25,52,155.73
2383,F5,580.5,0.5,59,155.73
2384,C#4,580.5,0.5,54,155.73
2385,G4,580.75,0.25,53,155.73
2386,E5,581.0,521/1000,59,155.73
2387,C4,581.0,521/1000,49,155.73
2388,G4,581.25,0.25,55,155.73
2389,F5,581.5,0.5,52,155.73
2390,B3,581.5,0.5,44,155.73
2391,G4,581.75,0.25,43,155.73
2392,E5,582.0,521/1000,50,155.73
2393,C4,582.0,521/1000,47,155.73
2394,G4,582.25,0.25,44,155.73
2395,F5,582.5,0.5,54,155.73
2396,B3,582.5,0.5,42,155.73
2397,G4,582.75,0.25,49,155.73
2398,E5,583.0,521/1000,57,155.73
2399,C4,583.0,521/1000,48,155.73
2400,G4,583.25,0.25,53,155.73
2401,F5,583.5,0.5,61,155.73
2402,C#4,583.5,0.5,51,155.73
2403,G4,583.75,0.25,55,155.73
2404,E5,584.0,521/1000,60,155.73
2405,C4,584.0,521/1000,46,155.73
2406,G4,584.25,0.25,50,155.73
2407,F5,584.5,0.5,56,155.73
2408,B3,584.5,0.5,41,155.73
2409,G4,584.75,0.25,43,155.73
2410,E5,585.0,0.188,60,155.73
2411,C3,585.25,0.25,42,155.73
2412,E3,585.5,0.25,44,155.73
2413,G3,585.75,0.25,46,155.73
2414,B-3,586.0,0.25,48,155.73
2415,E4,586.25,0.25,51,155.73
2416,B-4,586.5,0.188,55,155.73
2417,C4,586.75,0.25,48,155.73
2418,E4,587.0,0.25,51,155.73
2419,G4,587.25,0.25,53,155.73
2420,B-4,587.5,0.188,56,155.73
2421,E5,587.75,0.25,53,155.73
2422,B-5,588.0,0.25,62,155.73
2423,A5,588.25,0.25,61,155.73
2424,G5,588.5,0.25,60,155.73
2425,F5,588.75,0.25,59,155.73
2426,E5,589.0,0.25,58,155.73
2427,D5,589.25,0.25,55,155.73
2428,C5,589.5,0.25,59,155.73
2429,D5,589.75,0.25,55,155.73
2430,C5,590.0,0.25,58,155.73
2431,B-4,590.25,0.25,57,155.73
2432,A4,590.5,0.25,56,155.73
2433,G4,590.75,0.25,55,155.73
2434,F4,591.0,521/1000,49,155.73
2435,A3,591.0,521/1000,44,155.73
2436,E-5,591.25,0.25,43,155.73
2437,F#4,591.5,0.5,52,155.73
2438,B-3,591.5,0.5,38,155.73
2439,E-5,591.75,0.25,45,155.73
2440,F4,592.0,521/1000,55,155.73
2441,A3,592.0,521/1000,55,155.73
2442,E-5,592.25,0.25,52,155.73
2443,F#4,592.5,0.5,62,155.73
2444,B-3,592.5,0.5,55,155.73
2445,E-5,592.75,0.25,56,155.73
2446,G#4,593.0,521/1000,65,155.73
2447,B3,593.0,521/1000,63,155.73
2448,E-5,593.25,0.25,55,155.73
2449,F#4,593.5,0.5,52,155.73
2450,B-3,593.5,0.5,47,155.73
2451,E-5,593.75,0.25,43,155.73
2452,F4,594.0,521/1000,50,155.73
2453,A3,594.0,521/1000,47,155.73
2454,E-5,594.25,0.25,44,155.73
2455,F#4,594.5,0.5,54,155.73
2456,B-3,594.5,0.5,42,155.73
2457,E-5,594.75,0.25,49,155.73
2458,F4,595.0,521/1000,57,155.73
2459,A3,595.0,521/1000,59,155.73
2460,E-5,595.25,0.25,53,155.73
2461,F#4,595.5,0.5,63,155.73
2462,B-3,595.5,0.5,53,155.73
2463,E-5,595.75,0.25,55,155.73
2464,G#4,596.0,521/1000,66,155.73
2465,B3,596.0,521/1000,64,155.73
2466,E-5,596.25,0.25,54,155.73
2467,F#4,596.5,0.5,56,155.73
2468,B-3,596.5,0.5,41,155.73
2469,E-5,596.75,0.25,43,155.73
2470,F4,597.0,0.188,60,155.73
2471,A3,597.25,0.25,42,155.73
2472,C4,597.5,0.25,44,155.73
2473,E-4,597.75,0.25,46,155.73
2474,F4,598.0,0.25,48,155.73
2475,A4,598.25,0.25,51,155.73
2476,E-5,598.5,0.188,55,155.73
2477,F4,598.75,0.25,48,155.73
2478,A4,599.0,0.25,51,155.73
2479,C5,599.25,0.25,53,155.73
2480,E-5,599.5,0.188,56,155.73
2481,A5,599.75,0.25,53,155.73
2482,E-6,600.0,0.25,62,155.73
2483,D6,600.25,0.25,61,155.73
2484,C6,600.5,0.25,60,155.73
2485,B-5,600.75,0.25,59,155.73
2486,A5,601.0,0.25,58,155.73
2487,G5,601.25,0.25,55,155.73
2488,F5,601.5,0.25,59,155.73
2489,G5,601.75,0.25,55,155.73
2490,F5,602.0,0.25,56,155.73
2491,E-5,602.25,0.25,54,155.73
2492,D5,602.5,0.25,52,155.73
2493,C5,602.75,0.25,50,155.73
2494,D5,603.0,0.5,54,155.73
2495,B-3,603.0,0.5,29,155.73
2496,D4,603.5,0.5,25,155.73
2497,D5,604.0,0.5,42,155.73
2498,F4,604.0,0.5,25,155.73
2499,C5,604.5,0.5,46,155.73
2500,A3,604.5,0.5,30,155.73
2501,C4,605.0,0.5,26,155.73
2502,C5,605.5,0.5,45,155.73
2503,F4,605.5,0.5,26,155.73
2504,E-5,606.0,2.5,52,155.73
2505,G3,606.0,0.5,30,155.73
2506,B-3,606.5,0.5,27,155.73
2507,E-4,607.0,0.5,27,155.73
2508,F#3,607.5,0.5,29,155.73
2509,A3,608.0,0.5,25,155.73
2510,D5,608.5,0.5,42,155.73
2511,D4,608.5,0.5,25,155.73
2512,E-5,609.0,0.5,46,155.73
2513,G3,609.0,0.5,32,155.73
2514,B-3,609.5,0.5,25,155.73
2515,E-5,610.0,0.5,42,155.73
2516,E-4,610.0,0.5,25,155.73
2517,D5,610.5,0.5,43,155.73
2518,F3,610.5,0.5,31,155.73
2519,A3,611.0,0.5,27,155.73
2520,D5,611.5,0.5,43,155.73
2521,D4,611.5,0.5,27,155.73
2522,G5,612.0,2.5,52,155.73
2523,E-3,612.0,0.5,37,155.73
2524,G3,612.5,0.5,32,155.73
2525,C4,613.0,0.5,32,155.73
2526,D3,613.5,0.5,34,155.73
2527,F3,614.0,0.5,28,155.73
2528,F5,614.5,0.5,44,155.73
2529,B-3,614.5,0.5,24,155.73
2530,F5,615.0,0.5,47,155.73
2531,C3,615.0,0.5,32,155.73
2532,E5,615.5,0.5,44,155.73
2533,G3,615.5,0.5,27,155.73
2534,C5,616.0,1.0,48,155.73
2535,B-3,616.0,0.5,27,155.73
2536,F3,616.5,0.5,33,155.73
2537,D5,617.0,0.5,45,155.73
2538,A3,617.0,0.5,29,155.73
2539,E-5,617.5,123/250,45,155.73
2540,C4,617.5,0.5,29,155.73
2541,E-5,618.0,0.5,45,155.73
2542,B-2,618.0,0.5,36,155.73
2543,D5,618.5,0.5,42,155.73
2544,F3,618.5,0.5,31,155.73
2545,B-4,619.0,1.0,46,155.73
2546,B-3,619.0,0.5,29,155.73
2547,F#3,619.5,0.5,33,155.73
2548,C5,620.0,0.5,46,155.73
2549,B-3,620.0,0.5,33,155.73
2550,C#5,620.5,0.5,51,155.73
2551,C#4,620.5,0.5,33,155.73
2552,C#5,621.0,0.5,51,155.73
2553,E-3,621.0,0.5,39,155.73
2554,C5,621.5,0.5,51,155.73
2555,F#3,621.5,0.5,35,155.73
2556,C#5,622.0,1.0,55,155.73
2557,B-3,622.0,0.5,36,155.73
2558,E3,622.5,0.5,45,155.73
2559,C5,623.0,0.5,50,155.73
2560,G3,623.0,0.5,38,155.73
2561,B-4,623.5,0.5,51,155.73
2562,C#4,623.5,0.5,39,155.73
2563,A4,624.0,1.5,57,155.73
2564,F3,624.0,0.5,47,155.73
2565,A3,624.5,0.5,40,155.73
2566,C4,625.0,0.5,40,155.73
2567,C5,625.5,0.5,55,155.73
2568,F3,625.5,0.5,48,155.73
2569,E-3,626.0,0.5,42,155.73
2570,C3,626.5,0.5,43,155.73
2571,D5,627.0,0.25,75,155.73
2572,B-3,627.0,1.0,54,155.73
2573,B-2,627.0,1.0,54,155.73
2574,B-4,627.25,0.25,57,155.73
2575,F4,627.5,0.25,57,155.73
2576,B-4,627.75,0.25,57,155.73
2577,D5,628.0,0.25,57,155.73
2578,B-4,628.25,0.25,57,155.73
2579,C5,628.5,0.25,73,155.73
2580,A2,628.5,1.0,54,155.73
2581,A3,628.5,1.0,54,155.73
2582,A4,628.75,0.25,56,155.73
2583,F4,629.0,0.25,56,155.73
2584,A4,629.25,0.25,56,155.73
2585,C5,629.5,0.25,56,155.73
2586,A4,629.75,0.25,56,155.73
2587,E-5,630.0,0.25,76,155.73
2588,G2,630.0,2.5,54,155.73
2589,G3,630.0,2.5,54,155.73
2590,B-4,630.25,0.25,55,155.73
2591,G4,630.5,0.25,55,155.73
2592,B-4,630.75,0.25,55,155.73
2593,E-5,631.0,0.25,60,155.73
2594,B-4,631.25,0.25,53,155.73
2595,E-5,631.5,0.25,59,155.73
2596,B-4,631.75,0.25,52,155.73
2597,E-5,632.0,0.25,60,155.73
2598,B-4,632.25,0.25,48,155.73
2599,D5,632.5,0.25,74,155.73
2600,F#3,632.5,0.5,52,155.73
2601,F#2,632.5,0.5,52,155.73
2602,A4,632.75,0.25,51,155.73
2603,E-5,633.0,0.25,78,155.73
2604,G3,633.0,1.0,52,155.73
2605,G2,633.0,1.0,52,155.73
2606,B-4,633.25,0.25,53,155.73
2607,G4,633.5,0.25,54,155.73
2608,B-4,633.75,0.25,54,155.73
2609,E-5,634.0,0.25,60,155.73
2610,B-4,634.25,0.25,54,155.73
2611,D5,634.5,0.25,64,155.73
2612,F2,634.5,1.0,52,155.73
2613,F3,634.5,1.0,52,155.73
2614,A4,634.75,0.25,52,155.73
2615,F4,635.0,0.25,53,155.73
2616,A4,635.25,0.25,53,155.73
2617,D5,635.5,0.25,73,155.73
2618,A4,635.75,0.25,57,155.73
2619,G5,636.0,0.25,75,155.73
2620,E-3,636.0,2.5,43,155.73
2621,E-2,636.0,2.5,43,155.73
2622,B-4,636.25,0.25,52,155.73
2623,G4,636.5,0.25,52,155.73
2624,B-4,636.75,0.25,52,155.73
2625,G5,637.0,0.25,61,155.73
2626,B-4,637.25,0.25,51,155.73
2627,G5,637.5,0.25,63,155.73
2628,B-4,637.75,0.25,52,155.73
2629,G5,638.0,0.25,65,155.73
2630,B-4,638.25,0.25,53,155.73
2631,F5,638.5,0.25,51,155.73
2632,D2,638.5,0.5,38,155.73
2633,D3,638.5,0.5,38,155.73
2634,B-4,638.75,0.25,45,155.73
2635,C3,639.0,0.25,51,155.73
2636,G3,639.25,0.25,44,155.73
2637,B-3,639.5,0.25,44,155.73
2638,G4,639.75,0.25,51,155.73
2639,B-4,640.0,0.25,44,155.73
2640,E5,640.25,0.25,44,155.73
2641,F#3,640.5,0.25,51,155.73
2642,A3,640.75,0.25,42,155.73
2643,C4,641.0,0.25,44,155.73
2644,A4,641.25,0.25,51,155.73
2645,C5,641.5,0.25,46,155.73
2646,E-5,641.75,0.25,46,155.73
2647,G3,642.0,0.25,51,155.73
2648,B-3,642.25,0.25,42,155.73
2649,D4,642.5,0.25,42,155.73
2650,G4,642.75,0.25,51,155.73
2651,B-4,643.0,0.25,44,155.73
2652,D5,643.25,0.25,44,155.73
2653,E-3,643.5,0.25,57,155.73
2654,G3,643.75,0.25,49,155.73
2655,C4,644.0,0.25,49,155.73
2656,E-4,644.25,0.25,57,155.73
2657,G4,644.5,0.25,48,155.73
2658,C5,644.75,0.25,49,155.73
2659,F2,645.0,0.25,63,155.73
2660,D3,645.25,0.25,56,155.73
2661,F3,645.5,0.25,56,155.73
2662,D4,645.75,0.25,56,155.73
2663,F4,646.0,0.25,48,155.73
2664,B-4,646.25,0.25,48,155.73
2665,F2,646.5,0.25,70,155.73
2666,C3,646.75,0.25,61,155.73
2667,F3,647.0,0.25,61,155.73
2668,E-4,647.25,0.25,59,155.73
2669,F4,647.5,0.25,52,155.73
2670,A4,647.75,0.25,52,155.73
2671,B-1,648.0,2.0,72,155.73
2672,D2,650.0,0.5,42,155.73
2673,F2,650.5,0.5,44,155.73
2674,B-2,651.0,3.0,46,155.73
2675,D3,651.5,0.5,48,155.73
2676,F3,652.0,0.5,50,155.73
2677,B-3,652.5,0.5,52,155.73
2678,D4,653.0,0.5,51,155.73
2679,F4,653.5,0.5,56,155.73
2680,F#4,654.0,0.5,57,155.73
2681,E-3,654.0,3.0,45,155.73
2682,A2,654.0,3.0,45,155.73
2683,C3,654.0,3.0,45,155.73
2684,A4,654.5,0.5,58,155.73
2685,C5,655.0,0.5,60,155.73
2686,E-5,655.5,0.5,61,155.73
2687,F#5,656.0,0.5,63,155.73
2688,A5,656.5,0.5,64,155.73
2689,C6,657.0,0.5,66,155.73
2690,A5,657.5,0.5,64,155.73
2691,F#5,658.0,0.5,62,155.73
2692,E-5,658.5,0.5,60,155.73
2693,D5,659.0,0.5,58,155.73
2694,F#4,659.5,0.5,57,155.73
2695,A4,660.0,0.5,55,155.73
2696,F#3,660.0,3.0,45,155.73
2697,A2,660.0,3.0,45,155.73
2698,C3,660.0,3.0,45,155.73
2699,G4,660.5,0.5,45,155.73
2700,C#5,661.0,0.5,45,155.73
2701,D5,661.5,0.5,50,155.73
2702,F#5,662.0,0.5,47,155.73
2703,G5,662.5,0.5,47,155.73
2704,C#6,663.0,0.5,52,155.73
2705,G3,663.0,3.0,45,155.73
2706,D3,663.0,3.0,45,155.73
2707,B-2,663.0,3.0,45,155.73
2708,D6,663.5,0.5,45,155.73
2709,A5,664.0,0.5,41,155.73
2710,B-5,664.5,0.5,49,155.73
2711,F#5,665.0,0.5,43,155.73
2712,G5,665.5,0.5,43,155.73
2713,F5,666.5,0.5,39,155.73
2714,E5,667.0,0.5,35,155.73
2715,E5,668.0,0.5,35,155.73
2716,C#6,668.5,0.5,41,155.73
2717,G3,669.0,3.0,45,155.73
2718,D3,669.0,3.0,45,155.73
2719,B-2,669.0,3.0,45,155.73
2720,C#6,669.5,0.5,41,155.73
2721,C6,670.0,0.5,43,155.73
2722,C6,671.0,0.5,43,155.73
2723,E5,671.5,0.5,41,155.73
2724,C#4,672.0,1.0,30,155.73
2725,B-3,672.0,1.0,30,155.73
2726,E5,672.5,0.5,56,155.73
2727,F5,673.0,0.5,53,155.73
2728,C6,673.5,0.5,63,155.73
2729,C#4,673.5,1.0,30,155.73
2730,B-3,673.5,1.0,30,155.73
2731,G5,674.0,0.5,56,155.73
2732,B-5,674.5,0.5,56,155.73
2733,G#5,675.0,0.5,63,155.73
2734,B-3,675.0,1.0,30,155.73
2735,C4,675.0,1.0,30,155.73
2736,E5,675.5,0.5,56,155.73
2737,G5,676.0,0.5,56,155.73
2738,F5,676.5,0.5,60,155.73
2739,C4,676.5,1.0,30,155.73
2740,B-3,676.5,1.0,30,155.73
2741,E-5,677.0,0.5,52,155.73
2742,C#5,677.5,0.5,52,155.73
2743,C5,678.0,1.5,51,155.73
2744,G#2,678.0,3.0,55,155.73
2745,G#3,678.0,3.0,55,155.73
2746,B4,679.5,1.5,45,155.73
2747,F5,681.0,1.5,50,155.73
2748,B4,682.5,1.5,45,155.73
2749,G#2,684.0,3.0,55,155.73
2750,G#3,684.0,3.0,55,155.73
2751,E4,684.5,0.5,59,155.73
2752,C5,684.5,0.5,59,155.73
2753,G4,684.5,0.5,59,155.73
2754,B4,685.0,0.25,64,155.73
2755,F4,685.0,0.25,64,155.73
2756,D5,685.0,0.25,64,155.73
2757,D5,686.0,0.5,59,155.73
2758,F4,686.0,0.5,59,155.73
2759,B4,686.0,0.5,59,155.73
2760,B-4,686.5,0.25,65,155.73
2761,G4,686.5,0.25,65,155.73
2762,E5,686.5,0.25,65,155.73
2763,D4,687.0,3.0,45,155.73
2764,E4,687.5,0.5,41,155.73
2765,G4,687.5,0.5,59,155.73
2766,E5,687.5,0.5,59,155.73
2767,B-4,687.5,0.5,59,155.73
2768,F4,688.0,0.5,41,155.73
2769,C5,688.0,0.25,64,155.73
2770,A4,688.0,0.25,64,155.73
2771,F5,688.0,0.25,64,155.73
2772,G#4,688.5,0.5,45,155.73
2773,E4,689.0,0.5,41,155.73
2774,F#5,689.0,0.5,59,155.73
2775,C5,689.0,0.5,59,155.73
2776,A4,689.0,0.5,59,155.73
2777,F4,689.5,0.5,41,155.73
2778,G5,689.5,0.25,63,155.73
2779,E5,689.5,0.25,63,155.73
2780,B-4,689.5,0.25,63,155.73
2781,C#4,690.0,3.0,45,155.73
2782,G#4,690.0,0.5,54,155.73
2783,E4,690.5,0.5,42,155.73
2784,E5,690.5,0.5,59,155.73
2785,B-4,690.5,0.5,59,155.73
2786,G5,690.5,0.5,59,155.73
2787,F4,691.0,0.5,42,155.73
2788,A5,691.0,0.25,64,155.73
2789,C5,691.0,0.25,64,155.73
2790,F5,691.0,0.25,64,155.73
2791,G#4,691.5,0.5,52,155.73
2792,G4,692.0,0.5,47,155.73
2793,F#5,692.0,0.5,59,155.73
2794,C5,692.0,0.5,59,155.73
2795,A5,692.0,0.5,59,155.73
2796,F4,692.5,0.5,52,155.73
2797,E5,692.5,0.25,62,155.73
2798,B-5,692.5,0.25,62,155.73
2799,G5,692.5,0.25,62,155.73
2800,B-5,693.0,3.0,86,155.73
2801,G5,693.0,3.0,71,155.73
2802,E5,693.0,3.0,71,155.73
2803,C3,693.0,1.0,54,155.73
2804,C4,693.0,1.0,54,155.73
2805,C4,694.5,1.0,54,155.73
2806,C3,694.5,1.0,54,155.73
2807,B-5,696.0,0.25,86,155.73
2808,C3,696.0,1.0,53,155.73
2809,C4,696.0,1.0,53,155.73
2810,C6,696.25,11/40,63,155.73
2811,D6,696.5,11/40,66,155.73
2812,C6,696.75,11/40,65,155.73
2813,B-5,697.0,11/40,63,155.73
2814,A5,697.25,11/40,62,155.73
2815,G5,697.5,11/40,62,155.73
2816,C4,697.5,1.0,53,155.73
2817,C3,697.5,1.0,53,155.73
2818,A5,697.75,11/40,64,155.73
2819,B-5,698.0,11/40,67,155.73
2820,A5,698.25,11/40,66,155.73
2821,G5,698.5,11/40,64,155.73
2822,F5,698.75,0.25,62,155.73
2823,E5,699.0,11/40,63,155.73
2824,F5,699.0,1/40,62,155.73
2825,C3,699.0,1.0,53,155.73
2826,C4,699.0,1.0,53,155.73
2827,F5,699.25,11/40,63,155.73
2828,G5,699.5,11/40,64,155.73
2829,F5,699.75,11/40,64,155.73
2830,E5,700.0,11/40,62,155.73
2831,D5,700.25,11/40,60,155.73
2832,C5,700.5,11/40,62,155.73
2833,C4,700.5,1.0,52,155.73
2834,C3,700.5,1.0,52,155.73
2835,C#5,700.75,11/40,62,155.73
2836,D5,701.0,11/40,64,155.73
2837,C5,701.25,11/40,63,155.73
2838,B-4,701.5,11/40,61,155.73
2839,A4,701.75,0.25,60,155.73
2840,G4,702.0,11/40,59,155.73
2841,A4,702.0,1/40,60,155.73
2842,C2,702.0,0.25,72,155.73
2843,A4,702.25,11/40,61,155.73
2844,B-4,702.5,11/40,64,155.73
2845,E2,702.5,0.25,60,155.73
2846,A4,702.75,11/40,63,155.73
2847,G4,703.0,11/40,61,155.73
2848,G2,703.0,0.25,60,155.73
2849,F4,703.25,11/40,60,155.73
2850,E4,703.5,11/40,60,155.73
2851,C3,703.5,0.25,69,155.73
2852,F4,703.75,11/40,62,155.73
2853,G4,704.0,11/40,63,155.73
2854,E3,704.0,0.25,60,155.73
2855,F4,704.25,11/40,62,155.73
2856,E4,704.5,11/40,60,155.73
2857,G3,704.5,0.25,60,155.73
2858,D4,704.75,0.25,59,155.73
2859,C4,705.0,0.5,69,155.73
2860,C6,711.25,11/40,66,155.73
2861,B5,711.5,11/40,68,155.73
2862,C6,711.75,11/40,69,155.73
2863,F6,712.0,11/40,70,155.73
2864,C6,712.25,11/40,63,155.73
2865,B-5,712.5,11/40,70,155.73
2866,A5,712.75,11/40,66,155.73
2867,G#5,713.0,11/40,64,155.73
2868,A5,713.25,11/40,64,155.73
2869,C6,713.5,11/40,70,155.73
2870,A5,713.75,0.25,64,155.73
2871,G5,714.0,11/40,70,155.73
2872,A5,714.0,1/40,64,155.73
2873,C4,714.0,11/40,59,155.73
2874,F5,714.25,11/40,64,155.73
2875,C#4,714.25,11/40,60,155.73
2876,E5,714.5,11/40,64,155.73
2877,D4,714.5,11/40,62,155.73
2878,F5,714.75,11/40,64,155.73
2879,C4,714.75,11/40,63,155.73
2880,A5,715.0,11/40,70,155.73
2881,B-3,715.0,11/40,62,155.73
2882,F5,715.25,11/40,65,155.73
2883,A3,715.25,11/40,60,155.73
2884,D5,715.5,11/40,70,155.73
2885,G3,715.5,11/40,59,155.73
2886,C5,715.75,11/40,65,155.73
2887,A3,715.75,11/40,61,155.73
2888,B4,716.0,11/40,65,155.73
2889,B-3,716.0,11/40,62,155.73
2890,C5,716.25,11/40,65,155.73
2891,A3,716.25,11/40,61,155.73
2892,F5,716.5,11/40,70,155.73
2893,G3,716.5,11/40,59,155.73
2894,C5,716.75,0.25,65,155.73
2895,F3,716.75,0.25,57,155.73
2896,B-4,717.0,11/40,70,155.73
2897,C5,717.0,1/40,65,155.73
2898,E3,717.0,11/40,58,155.73
2899,F3,717.0,1/40,57,155.73
2900,A4,717.25,11/40,66,155.73
2901,F3,717.25,11/40,60,155.73
2902,G#4,717.5,11/40,66,155.73
2903,G3,717.5,11/40,62,155.73
2904,A4,717.75,11/40,66,155.73
2905,F3,717.75,11/40,61,155.73
2906,C5,718.0,11/40,70,155.73
2907,E3,718.0,11/40,61,155.73
2908,A4,718.25,11/40,64,155.73
2909,D3,718.25,11/40,60,155.73
2910,F4,718.5,0.25,70,155.73
2911,C3,718.5,11/40,59,155.73
2912,F5,718.75,0.25,64,155.73
2913,D3,718.75,11/40,60,155.73
2914,E4,719.0,0.25,70,155.73
2915,C3,719.0,11/40,61,155.73
2916,F5,719.25,0.25,64,155.73
2917,B-2,719.25,11/40,61,155.73
2918,F4,719.5,0.25,70,155.73
2919,A2,719.5,11/40,60,155.73
2920,F5,719.75,0.25,64,155.73
2921,G2,719.75,0.25,58,155.73
2922,G4,720.0,0.25,70,155.73
2923,F3,720.0,1.0,62,155.73
2924,A2,720.0,1.0,62,155.73
2925,C3,720.0,1.0,62,155.73
2926,F2,720.0,1.0,62,155.73
2927,F5,720.25,0.25,64,155.73
2928,F4,720.5,0.25,65,155.73
2929,F5,720.75,0.25,58,155.73
2930,G4,721.0,0.25,67,155.73
2931,F5,721.25,0.25,61,155.73
2932,A4,721.5,0.25,70,155.73
2933,F5,721.75,0.25,60,155.73
2934,G4,722.0,0.25,66,155.73
2935,F5,722.25,0.25,62,155.73
2936,A4,722.5,0.25,67,155.73
2937,F5,722.75,0.25,62,155.73
2938,B-4,723.0,0.25,74,155.73
2939,F5,723.25,0.25,61,155.73
2940,B-4,723.5,0.25,65,155.73
2941,F5,723.75,0.25,61,155.73
2942,A4,724.0,0.25,65,155.73
2943,F5,724.25,0.25,60,155.73
2944,B-4,724.5,0.25,70,155.73
2945,F5,724.75,0.25,60,155.73
2946,B-4,725.0,0.25,65,155.73
2947,F5,725.25,0.25,60,155.73
2948,A4,725.5,0.25,65,155.73
2949,F5,725.75,0.25,54,155.73
2950,G#4,726.0,0.25,49,155.73
2951,F5,726.25,0.25,41,155.73
2952,G#4,726.5,0.25,49,155.73
2953,F5,726.75,0.25,42,155.73
2954,G#4,727.0,0.25,49,155.73
2955,F5,727.25,0.25,40,155.73
2956,A3,727.5,0.25,70,155.73
2957,G4,727.5,0.5,48,155.73
2958,E5,727.5,0.5,48,155.73
2959,G3,728.0,0.25,66,155.73
2960,A3,728.5,0.25,66,155.73
2961,B-3,729.0,0.25,70,155.73
2962,C6,729.25,11/40,66,155.73
2963,B5,729.5,11/40,68,155.73
2964,A3,729.5,0.25,67,155.73
2965,C6,729.75,11/40,69,155.73
2966,F6,730.0,11/40,70,155.73
2967,B-3,730.0,0.25,67,155.73
2968,C6,730.25,11/40,63,155.73
2969,B-5,730.5,11/40,70,155.73
2970,C4,730.5,0.25,70,155.73
2971,A5,730.75,11/40,66,155.73
2972,G#5,731.0,11/40,64,155.73
2973,B-3,731.0,0.25,67,155.73
2974,A5,731.25,11/40,64,155.73
2975,C6,731.5,11/40,70,155.73
2976,C4,731.5,0.25,67,155.73
2977,A5,731.75,0.25,64,155.73
2978,G5,732.0,11/40,70,155.73
2979,A5,732.0,1/40,64,155.73
2980,C#4,732.0,1.0,74,155.73
2981,F5,732.25,11/40,64,155.73
2982,E5,732.5,11/40,64,155.73
2983,F5,732.75,11/40,64,155.73
2984,A5,733.0,11/40,70,155.73
2985,C4,733.0,0.25,67,155.73
2986,F5,733.25,11/40,65,155.73
2987,D5,733.5,11/40,70,155.73
2988,C#4,733.5,1.0,74,155.73
2989,C5,733.75,11/40,65,155.73
2990,B4,734.0,11/40,65,155.73
2991,C5,734.25,11/40,65,155.73
2992,F5,734.5,11/40,70,155.73
2993,C4,734.5,0.25,66,155.73
2994,C5,734.75,0.25,65,155.73
2995,B-4,735.0,11/40,70,155.73
2996,C5,735.0,1/40,65,155.73
2997,B3,735.0,0.25,47,155.73
2998,A4,735.25,11/40,66,155.73
2999,G#4,735.5,11/40,66,155.73
3000,B3,735.5,0.25,47,155.73
3001,A4,735.75,11/40,66,155.73
3002,C5,736.0,11/40,70,155.73
3003,B3,736.0,0.25,47,155.73
3004,A4,736.25,11/40,64,155.73
3005,F4,736.5,0.25,70,155.73
3006,C4,736.5,0.5,50,155.73
3007,F5,736.75,0.25,64,155.73
3008,E4,737.0,0.25,70,155.73
3009,F5,737.25,0.25,64,155.73
3010,F4,737.5,0.25,70,155.73
3011,F5,737.75,0.25,64,155.73
3012,G4,738.0,0.25,70,155.73
3013,A2,738.0,1.0,62,155.73
3014,C3,738.0,1.0,62,155.73
3015,F3,738.0,1.0,62,155.73
3016,F2,738.0,1.0,62,155.73
3017,F5,738.25,0.25,64,155.73
3018,F4,738.5,0.25,65,155.73
3019,F5,738.75,0.25,58,155.73
3020,G4,739.0,0.25,67,155.73
3021,F5,739.25,0.25,61,155.73
3022,A4,739.5,0.25,70,155.73
3023,F5,739.75,0.25,60,155.73
3024,G4,740.0,0.25,66,155.73
3025,F5,740.25,0.25,62,155.73
3026,A4,740.5,0.25,67,155.73
3027,F5,740.75,0.25,62,155.73
3028,B-4,741.0,0.25,74,155.73
3029,F5,741.25,0.25,61,155.73
3030,B-4,741.5,0.25,65,155.73
3031,F5,741.75,0.25,61,155.73
3032,A4,742.0,0.25,65,155.73
3033,F5,742.25,0.25,60,155.73
3034,B-4,742.5,0.25,70,155.73
3035,F5,742.75,0.25,60,155.73
3036,B-4,743.0,0.25,65,155.73
3037,F5,743.25,0.25,60,155.73
3038,A4,743.5,0.25,65,155.73
3039,F5,743.75,0.25,46,155.73
3040,G#4,744.0,0.25,44,155.73
3041,F5,744.25,0.25,36,155.73
3042,G4,745.5,0.25,42,155.73
3043,A3,745.5,0.25,70,155.73
3044,E5,745.75,0.25,34,155.73
3045,G3,746.0,0.25,66,155.73
3046,A3,746.5,0.25,66,155.73
3047,F#4,747.0,0.25,43,155.73
3048,B-3,747.0,0.25,70,155.73
3049,E-5,747.25,0.25,36,155.73
3050,A3,747.5,0.25,67,155.73
3051,B-3,748.0,0.25,67,155.73
3052,C4,748.5,0.25,70,155.73
3053,D4,749.0,0.25,58,155.73
3054,B-3,749.0,0.25,67,155.73
3055,G4,749.25,0.25,59,155.73
3056,B-4,749.5,0.25,60,155.73
3057,C4,749.5,0.25,67,155.73
3058,D5,749.75,0.25,61,155.73
3059,C5,750.0,11/40,62,155.73
3060,C#4,750.0,1.0,74,155.73
3061,B-4,750.25,11/40,62,155.73
3062,A4,750.5,11/40,60,155.73
3063,G4,750.75,11/40,59,155.73
3064,F4,751.0,11/40,57,155.73
3065,C4,751.0,0.25,67,155.73
3066,E4,751.25,11/40,55,155.73
3067,F4,751.5,0.25,58,155.73
3068,C#4,751.5,1.0,74,155.73
3069,C4,752.0,0.5,49,155.73
3070,C4,752.5,0.375,49,155.73
3071,C4,752.5,0.25,66,155.73
3072,E4,752.875,0.125,41,155.73
3073,B-4,753.0,2.0,49,155.73
3074,B3,753.0,0.25,36,155.73
3075,B-3,754.5,0.25,36,155.73
3076,A4,755.0,0.25,43,155.73
3077,G4,755.5,0.25,43,155.73
3078,G4,756.0,0.5,49,155.73
3079,A3,756.0,0.25,35,155.73
3080,F4,756.5,1.0,45,155.73
3081,F4,757.5,1.375,45,155.73
3082,B-2,757.5,0.25,58,155.73
3083,B-3,757.75,0.25,61,155.73
3084,E4,758.875,0.125,41,155.73
3085,B-4,759.0,2.0,49,155.73
3086,E3,759.0,1.5,49,155.73
3087,B-3,759.0,1.5,49,155.73
3088,C3,759.0,1.5,49,155.73
3089,F3,760.5,0.5,46,155.73
3090,A3,760.5,0.5,46,155.73
3091,A4,761.0,0.25,43,155.73
3092,G4,761.5,0.25,43,155.73
3093,B4,762.0,1.5,51,155.73
3094,C3,762.0,0.5,41,155.73
3095,C4,762.5,0.25,28,155.73
3096,B-3,762.5,0.25,28,155.73
3097,C4,763.0,0.25,28,155.73
3098,B-3,763.0,0.25,28,155.73
3099,C5,763.5,0.5,45,155.73
3100,C4,763.5,0.25,28,155.73
3101,B-3,763.5,0.25,28,155.73
3102,C4,764.0,0.25,28,155.73
3103,B-3,764.0,0.25,28,155.73
3104,C4,764.5,0.25,28,155.73
3105,B-3,764.5,0.25,28,155.73
3106,E4,764.875,0.125,41,155.73
3107,B-4,765.0,2.0,49,155.73
3108,F3,765.0,0.5,41,155.73
3109,A3,765.5,0.25,28,155.73
3110,C4,765.5,0.25,28,155.73
3111,A3,766.0,0.25,28,155.73
3112,C4,766.0,0.25,28,155.73
3113,C4,766.5,0.25,28,155.73
3114,A3,766.5,0.25,28,155.73
3115,A4,767.0,0.25,43,155.73
3116,C4,767.0,0.25,28,155.73
3117,A3,767.0,0.25,28,155.73
3118,G4,767.5,0.25,43,155.73
3119,C4,767.5,0.25,28,155.73
3120,A3,767.5,0.25,28,155.73
3121,F4,768.0,1.0,54,155.73
3122,C3,768.0,0.5,41,155.73
3123,G3,768.5,0.25,28,155.73
3124,C4,768.5,0.25,28,155.73
3125,A4,769.0,1.5,60,155.73
3126,G3,769.0,0.25,28,155.73
3127,C4,769.0,0.25,28,155.73
3128,G3,769.5,0.25,28,155.73
3129,C4,769.5,0.25,28,155.73
3130,G3,770.0,0.25,28,155.73
3131,C4,770.0,0.25,28,155.73
3132,C5,770.5,0.5,60,155.73
3133,G3,770.5,0.25,28,155.73
3134,C4,770.5,0.25,28,155.73
3135,C5,771.0,1.0,60,155.73
3136,F3,771.0,0.5,41,155.73
3137,A3,771.5,0.25,28,155.73
3138,C4,771.5,0.25,28,155.73
3139,B-4,772.0,1.5,58,155.73
3140,A3,772.0,0.25,28,155.73
3141,C4,772.0,0.25,28,155.73
3142,A3,772.5,0.25,28,155.73
3143,C4,772.5,0.25,28,155.73
3144,A3,773.0,0.25,28,155.73
3145,C4,773.0,0.25,28,155.73
3146,G4,773.5,0.5,50,155.73
3147,A3,773.5,0.25,28,155.73
3148,C4,773.5,0.25,28,155.73
3149,F4,774.0,0.5,56,155.73
3150,C3,774.0,0.5,41,155.73
3151,C4,774.5,0.25,28,155.73
3152,B-3,774.5,0.25,28,155.73
3153,C4,775.0,0.25,28,155.73
3154,B-3,775.0,0.25,28,155.73
3155,C#5,775.5,1.5,76,155.73
3156,C#6,775.5,1.5,76,155.73
3157,C4,775.5,0.25,28,155.73
3158,B-3,775.5,0.25,28,155.73
3159,C4,776.0,0.25,28,155.73
3160,B-3,776.0,0.25,28,155.73
3161,B-3,776.5,0.25,28,155.73
3162,C4,776.5,0.25,28,155.73
3163,F3,777.0,0.5,41,155.73
3164,D5,777.0,1.5,81,155.73
3165,D6,777.0,1.5,81,155.73
3166,A3,777.5,0.25,28,155.73
3167,C4,777.5,0.25,28,155.73
3168,A3,778.0,0.25,28,155.73
3169,C4,778.0,0.25,28,155.73
3170,C6,778.5,1.5,78,155.73
3171,D5,778.5,1.5,78,155.73
3172,C4,778.5,0.25,28,155.73
3173,A3,778.5,0.25,28,155.73
3174,C4,779.0,0.25,28,155.73
3175,A3,779.0,0.25,28,155.73
3176,C4,779.5,0.25,28,155.73
3177,A3,779.5,0.25,28,155.73
3178,C3,780.0,0.5,41,155.73
3179,D5,780.0,1.5,78,155.73
3180,B-5,780.0,1.5,78,155.73
3181,G3,780.5,0.25,28,155.73
3182,C4,780.5,0.25,28,155.73
3183,C4,781.0,0.25,28,155.73
3184,G3,781.0,0.25,28,155.73
3185,D5,781.5,1.5,70,155.73
3186,A5,781.5,1.5,70,155.73
3187,B-3,781.5,0.25,28,155.73
3188,C4,781.5,0.25,28,155.73
3189,C4,782.0,0.25,28,155.73
3190,B-3,782.0,0.25,28,155.73
3191,B-3,782.5,0.25,28,155.73
3192,C4,782.5,0.25,28,155.73
3193,G5,783.0,1.5,73,155.73
3194,D5,783.0,1.5,73,155.73
3195,C4,783.0,0.5,35,155.73
3196,F3,783.0,0.5,35,155.73
3197,A3,783.0,0.5,35,155.73
3198,C5,784.5,1.5,69,155.73
3199,F#5,784.5,1.5,69,155.73
3200,D5,784.5,1.5,69,155.73
3201,E-3,784.5,1.5,55,155.73
3202,G3,784.5,1.5,55,155.73
3203,C#4,784.5,1.5,55,155.73
3204,G5,786.0,0.25,65,155.73
3205,D4,786.0,1.5,61,155.73
3206,F#3,786.0,1.5,61,155.73
3207,D3,786.0,1.5,61,155.73
3208,D5,786.25,0.25,54,155.73
3209,B-4,786.5,0.25,54,155.73
3210,D5,786.75,0.25,54,155.73
3211,G5,787.0,0.25,65,155.73
3212,D5,787.25,0.25,54,155.73
3213,A5,787.5,0.25,65,155.73
3214,D5,787.75,0.25,54,155.73
3215,C5,788.0,0.25,54,155.73
3216,D5,788.25,0.25,54,155.73
3217,A5,788.5,0.25,65,155.73
3218,D5,788.75,0.25,55,155.73
3219,B-5,789.0,0.25,65,155.73
3220,D3,789.0,1.5,68,155.73
3221,D4,789.0,1.5,68,155.73
3222,G5,789.25,0.25,55,155.73
3223,D5,789.5,0.25,55,155.73
3224,G5,789.75,0.25,55,155.73
3225,B-5,790.0,0.25,65,155.73
3226,G5,790.25,0.25,55,155.73
3227,B5,790.5,0.25,65,155.73
3228,C3,790.5,1.5,68,155.73
3229,C4,790.5,1.5,68,155.73
3230,G5,790.75,0.25,55,155.73
3231,D5,791.0,0.25,55,155.73
3232,G5,791.25,0.25,55,155.73
3233,B5,791.5,0.25,65,155.73
3234,G5,791.75,0.25,56,155.73
3235,C6,792.0,1.0,65,155.73
3236,B-2,792.0,1.5,68,155.73
3237,B-3,792.0,1.5,68,155.73
3238,D6,793.0,0.25,59,155.73
3239,C6,793.25,0.25,59,155.73
3240,B-5,793.5,1.0,65,155.73
3241,A2,793.5,1.5,68,155.73
3242,A3,793.5,1.5,68,155.73
3243,C6,794.5,0.25,57,155.73
3244,B-5,794.75,0.25,57,155.73
3245,A5,795.0,1.0,65,155.73
3246,G3,795.0,0.5,59,155.73
3247,B-3,795.5,0.5,54,155.73
3248,B-5,796.0,0.25,57,155.73
3249,D4,796.0,0.5,54,155.73
3250,A5,796.25,0.25,57,155.73
3251,G5,796.5,1.0,65,155.73
3252,F#3,796.5,0.5,59,155.73
3253,A3,797.0,0.5,54,155.73
3254,A5,797.5,0.25,59,155.73
3255,D4,797.5,0.5,54,155.73
3256,G5,797.75,0.25,59,155.73
3257,F5,798.0,1.0,65,155.73
3258,G3,798.0,0.5,59,155.73
3259,B-3,798.5,0.5,54,155.73
3260,G5,799.0,0.25,59,155.73
3261,D4,799.0,0.5,54,155.73
3262,F5,799.25,0.25,59,155.73
3263,E5,799.5,1.0,65,155.73
3264,F3,799.5,0.5,59,155.73
3265,B3,800.0,0.5,53,155.73
3266,F5,800.5,0.25,56,155.73
3267,D4,800.5,0.5,53,155.73
3268,E5,800.75,0.25,56,155.73
3269,G5,801.0,11/40,62,155.73
3270,E3,801.0,1.0,58,155.73
3271,F5,801.25,11/40,54,155.73
3272,E5,801.5,11/40,54,155.73
3273,F5,801.75,11/40,54,155.73
3274,E5,802.0,11/40,53,155.73
3275,F5,802.25,11/40,55,155.73
3276,A5,802.5,11/40,59,155.73
3277,G5,802.75,11/40,55,155.73
3278,F#5,803.0,11/40,55,155.73
3279,G5,803.25,11/40,55,155.73
3280,F#5,803.5,11/40,55,155.73
3281,G5,803.75,0.25,55,155.73
3282,A5,804.0,11/40,59,155.73
3283,G5,804.0,1/40,55,155.73
3284,C5,804.0,1.5,54,155.73
3285,G5,804.25,11/40,54,155.73
3286,F5,804.5,11/40,54,155.73
3287,G5,804.75,11/40,54,155.73
3288,A5,805.0,11/40,54,155.73
3289,B-5,805.25,11/40,54,155.73
3290,C6,805.5,11/40,59,155.73
3291,B-4,805.5,1.5,48,155.73
3292,C5,805.5,1.5,48,155.73
3293,B-5,805.75,11/40,55,155.73
3294,A5,806.0,11/40,55,155.73
3295,B-5,806.25,11/40,55,155.73
3296,C6,806.5,11/40,55,155.73
3297,C#6,806.75,0.25,55,155.73
3298,D6,807.0,0.25,59,155.73
3299,C#6,807.0,1/40,55,155.73
3300,C5,807.0,1.5,44,155.73
3301,A4,807.0,1.5,44,155.73
3302,D5,807.25,11/40,55,155.73
3303,D6,807.5,11/40,55,155.73
3304,C6,807.75,11/40,55,155.73
3305,B-5,808.0,11/40,55,155.73
3306,A5,808.25,11/40,54,155.73
3307,G5,808.5,0.25,59,155.73
3308,B-4,808.5,1.5,41,155.73
3309,C5,808.5,1.5,41,155.73
3310,G4,808.5,1.5,41,155.73
3311,F#5,808.75,11/40,54,155.73
3312,G5,809.0,11/40,63,155.73
3313,A5,809.25,11/40,62,155.73
3314,B-5,809.5,11/40,60,155.73
3315,B5,809.75,0.25,59,155.73
3316,C6,810.0,0.25,59,155.73
3317,B5,810.0,1/40,59,155.73
3318,F4,810.0,0.25,44,155.73
3319,C5,810.25,0.25,60,155.73
3320,C6,810.5,0.25,60,155.73
3321,A4,810.5,0.25,37,155.73
3322,B-5,810.75,0.25,60,155.73
3323,A5,811.0,0.25,60,155.73
3324,C5,811.0,0.25,37,155.73
3325,G5,811.25,0.25,59,155.73
3326,F5,811.5,0.25,59,155.73
3327,E4,811.5,0.25,43,155.73
3328,E5,811.75,11/40,56,155.73
3329,F5,812.0,11/40,63,155.73
3330,G4,812.0,0.25,37,155.73
3331,G5,812.25,11/40,62,155.73
3332,G#5,812.5,11/40,60,155.73
3333,C5,812.5,0.25,37,155.73
3334,A5,812.75,0.25,59,155.73
3335,B-5,813.0,0.25,59,155.73
3336,A4,813.0,0.5,46,155.73
3337,C5,813.0,0.5,46,155.73
3338,F4,813.0,0.5,46,155.73
3339,C6,813.25,0.25,60,155.73
3340,B-5,813.5,0.25,60,155.73
3341,A5,813.75,0.25,60,155.73
3342,G5,814.0,0.25,60,155.73
3343,F5,814.25,0.25,59,155.73
3344,E5,814.5,0.25,59,155.73
3345,F5,814.75,11/40,56,155.73
3346,E5,815.0,11/40,63,155.73
3347,D5,815.25,11/40,62,155.73
3348,C5,815.5,11/40,60,155.73
3349,B-4,815.75,0.25,59,155.73
3350,A4,816.0,0.25,56,155.73
3351,B-4,816.0,1/40,59,155.73
3352,B-2,816.0,0.25,49,155.73
3353,C5,816.25,0.25,61,155.73
3354,F5,816.5,0.25,68,155.73
3355,B-3,816.5,0.25,40,155.73
3356,G5,816.75,0.25,62,155.73
3357,F5,817.0,0.25,63,155.73
3358,E5,817.25,0.25,63,155.73
3359,D5,817.5,0.25,60,155.73
3360,E3,817.5,0.25,48,155.73
3361,C5,817.75,11/40,53,155.73
3362,B-4,818.0,11/40,59,155.73
3363,E4,818.0,0.25,43,155.73
3364,A4,818.25,11/40,54,155.73
3365,G4,818.5,11/40,54,155.73
3366,F4,818.75,0.25,54,155.73
3367,E4,819.0,0.25,59,155.73
3368,F4,819.0,1/40,54,155.73
3369,A2,819.0,0.25,50,155.73
3370,F4,819.25,11/40,58,155.73
3371,G4,819.5,11/40,62,155.73
3372,A3,819.5,0.25,43,155.73
3373,F4,819.75,11/40,61,155.73
3374,E4,820.0,11/40,60,155.73
3375,D4,820.25,11/40,59,155.73
3376,C4,820.5,11/40,57,155.73
3377,D3,820.5,0.25,47,155.73
3378,D4,821.0,0.25,40,155.73
3379,G#4,822.0,2.0,49,155.73
3380,G2,822.0,0.25,45,155.73
3381,A2,822.5,0.25,47,155.73
3382,B-2,823.0,0.25,49,155.73
3383,C3,823.5,0.25,51,155.73
3384,G4,824.0,0.25,43,155.73
3385,D3,824.0,0.25,53,155.73
3386,F4,824.5,0.25,43,155.73
3387,E3,824.5,0.25,55,155.73
3388,B4,825.0,1.0,49,155.73
3389,F3,825.0,0.25,57,155.73
3390,C5,826.0,0.5,43,155.73
3391,A2,826.0,0.25,49,155.73
3392,G4,826.5,1.0,43,155.73
3393,B-2,826.5,0.25,59,155.73
3394,B2,827.5,0.25,50,155.73
3395,C#5,828.0,2.0,58,155.73
3396,C3,828.0,0.25,56,155.73
3397,D4,829.75,11/40,57,155.73
3398,C5,830.0,0.25,49,155.73
3399,C4,830.0,11/40,56,155.73
3400,B-3,830.25,11/40,55,155.73
3401,B-4,830.5,0.25,49,155.73
3402,A3,830.5,11/40,52,155.73
3403,G3,830.75,0.25,51,155.73
3404,G#4,831.0,0.5,60,155.73
3405,F3,831.0,0.5,41,155.73
3406,B-4,831.5,167/1000,42,155.73
3407,G#3,831.5,0.5,31,155.73
3408,G#4,831.667,167/1000,42,155.73
3409,G4,831.833,167/1000,42,155.73
3410,G#4,832.0,0.25,51,155.73
3411,C4,832.0,0.5,31,155.73
3412,B-4,832.25,0.25,44,155.73
3413,C5,832.5,1.0,51,155.73
3414,F3,832.5,0.5,37,155.73
3415,G#3,833.0,0.5,31,155.73
3416,C4,833.5,0.5,31,155.73
3417,F5,834.0,1.5,66,155.73
3418,E3,834.0,0.5,41,155.73
3419,G3,834.5,0.5,31,155.73
3420,C4,835.0,0.5,31,155.73
3421,E-5,835.5,1.0,54,155.73
3422,E3,835.5,0.5,36,155.73
3423,G3,836.0,0.5,31,155.73
3424,F5,836.5,0.5,50,155.73
3425,C4,836.5,0.5,31,155.73
3426,E-5,837.0,1.0,57,155.73
3427,E3,837.0,0.5,41,155.73
3428,G3,837.5,0.5,31,155.73
3429,C#5,838.0,0.5,52,155.73
3430,B-3,838.0,0.5,31,155.73
3431,C5,838.5,1.5,55,155.73
3432,E3,838.5,0.5,37,155.73
3433,G3,839.0,0.5,31,155.73
3434,C4,839.5,0.5,31,155.73
3435,B-4,840.0,1.0,59,155.73
3436,F3,840.0,0.5,41,155.73
3437,G#3,840.5,0.5,31,155.73
3438,G#4,841.0,0.5,53,155.73
3439,C4,841.0,0.5,31,155.73
3440,G4,841.5,1.0,57,155.73
3441,F3,841.5,0.5,36,155.73
3442,G#3,842.0,0.5,31,155.73
3443,F4,842.5,0.5,47,155.73
3444,C4,842.5,0.5,31,155.73
3445,G#4,843.0,1.5,53,155.73
3446,G#3,843.0,0.5,47,155.73
3447,C4,843.5,0.5,36,155.73
3448,F4,844.0,0.5,36,155.73
3449,G4,844.5,0.5,45,155.73
3450,G3,844.5,0.5,44,155.73
3451,B-3,845.0,0.5,32,155.73
3452,E-4,845.5,0.5,33,155.73
3453,F3,846.0,0.5,48,155.73
3454,G#5,846.0,2.0,45,155.73
3455,G#4,846.0,2.0,45,155.73
3456,G#3,846.5,0.5,36,155.73
3457,C#4,847.0,0.5,36,155.73
3458,E-3,847.5,0.5,45,155.73
3459,G3,848.0,0.5,31,155.73
3460,G4,848.0,0.25,40,155.73
3461,G5,848.0,0.25,40,155.73
3462,C4,848.5,0.5,31,155.73
3463,F5,848.5,0.25,40,155.73
3464,F4,848.5,0.25,40,155.73
3465,C#3,849.0,0.5,46,155.73
3466,B4,849.0,1.0,45,155.73
3467,B5,849.0,1.0,45,155.73
3468,F3,849.5,0.5,35,155.73
3469,B-3,850.0,0.5,35,155.73
3470,C6,850.0,0.5,40,155.73
3471,C5,850.0,0.5,40,155.73
3472,C#3,850.5,0.5,43,155.73
3473,G4,850.5,1.0,40,155.73
3474,G5,850.5,1.0,40,155.73
3475,F3,851.0,0.5,36,155.73
3476,B3,851.5,0.5,34,155.73
3477,C3,852.0,0.5,43,155.73
3478,C#5,852.0,2.0,54,155.73
3479,C#6,852.0,2.0,54,155.73
3480,F3,852.5,0.5,29,155.73
3481,C4,853.0,0.5,30,155.73
3482,C3,853.5,0.5,39,155.73
3483,E3,854.0,0.5,27,155.73
3484,C5,854.0,0.25,45,155.73
3485,C6,854.0,0.25,45,155.73
3486,C4,854.5,0.5,27,155.73
3487,B-5,854.5,0.25,45,155.73
3488,B-4,854.5,0.25,45,155.73
3489,F3,855.0,0.5,41,155.73
3490,A5,855.0,1.0,56,155.73
3491,A4,855.0,1.0,56,155.73
3492,G#3,855.5,0.5,31,155.73
3493,C4,856.0,0.5,31,155.73
3494,C6,856.0,0.5,47,155.73
3495,C5,856.0,0.5,47,155.73
3496,F3,856.5,0.5,37,155.73
3497,B-5,856.5,1.0,47,155.73
3498,B-4,856.5,1.0,47,155.73
3499,G#3,857.0,0.5,31,155.73
3500,C4,857.5,0.5,31,155.73
3501,E3,858.0,0.5,41,155.73
3502,B5,858.0,1.5,64,155.73
3503,B4,858.0,1.5,64,155.73
3504,G3,858.5,0.5,31,155.73
3505,C4,859.0,0.5,31,155.73
3506,E3,859.5,0.5,36,155.73
3507,C5,859.5,1.5,64,155.73
3508,C6,859.5,1.5,64,155.73
3509,G3,860.0,0.5,31,155.73
3510,C4,860.5,0.5,31,155.73
3511,E3,861.0,0.5,41,155.73
3512,C#6,861.0,1.5,62,155.73
3513,C#5,861.0,1.5,62,155.73
3514,G3,861.5,0.5,31,155.73
3515,B-3,862.0,0.5,31,155.73
3516,E3,862.5,0.5,37,155.73
3517,C5,862.5,0.5,64,155.73
3518,C6,862.5,0.5,64,155.73
3519,G3,863.0,0.5,31,155.73
3520,C4,863.5,0.5,31,155.73
3521,F6,863.75,0.25,53,155.73
3522,C5,864.0,1.5,51,155.73
3523,F5,864.0,1.375,64,155.73
3524,E-3,864.008,0.5,41,155.73
3525,F#3,864.5,0.5,31,155.73
3526,A3,865.0,0.5,31,155.73
3527,G#5,865.375,0.125,40,155.73
3528,D3,865.5,0.5,36,155.73
3529,E5,865.5,1.5,51,155.73
3530,G5,865.5,1.5,51,155.73
3531,F3,866.0,0.5,31,155.73
3532,B-3,866.5,0.5,31,155.73
3533,F5,867.0,0.25,74,155.73
3534,C#3,867.0,0.5,57,155.73
3535,C5,867.25,0.25,62,155.73
3536,B4,867.5,0.25,62,155.73
3537,F3,867.5,0.5,46,155.73
3538,C5,867.75,0.25,62,155.73
3539,D5,868.0,0.25,69,155.73
3540,G#3,868.0,0.5,47,155.73
3541,C5,868.25,0.25,62,155.73
3542,B-4,868.5,0.25,65,155.73
3543,C3,868.5,0.5,55,155.73
3544,C5,868.75,0.25,60,155.73
3545,B-4,869.0,0.25,65,155.73
3546,F3,869.0,0.5,46,155.73
3547,C5,869.25,0.25,59,155.73
3548,B-4,869.5,0.25,65,155.73
3549,G#3,869.5,0.5,46,155.73
3550,C5,869.75,0.25,59,155.73
3551,A4,870.0,0.25,74,155.73
3552,B-2,870.0,0.5,59,155.73
3553,C5,870.25,0.25,62,155.73
3554,B4,870.5,0.25,62,155.73
3555,E3,870.5,0.5,39,155.73
3556,C5,870.75,0.25,62,155.73
3557,F5,871.0,0.25,74,155.73
3558,G3,871.0,0.5,39,155.73
3559,C5,871.25,0.25,62,155.73
3560,B-4,871.5,0.25,65,155.73
3561,G#2,871.5,0.5,45,155.73
3562,C5,871.75,0.25,60,155.73
3563,B-4,872.0,0.25,65,155.73
3564,C3,872.0,0.5,31,155.73
3565,C5,872.25,0.25,59,155.73
3566,B-4,872.5,0.25,65,155.73
3567,F3,872.5,0.5,31,155.73
3568,C5,872.75,0.25,59,155.73
3569,A4,873.0,0.25,74,155.73
3570,C3,873.0,0.5,45,155.73
3571,C6,873.25,0.25,62,155.73
3572,B5,873.5,0.25,62,155.73
3573,F3,873.5,0.5,30,155.73
3574,C6,873.75,0.25,62,155.73
3575,D6,874.0,0.25,72,155.73
3576,G#3,874.0,0.5,30,155.73
3577,C6,874.25,0.25,62,155.73
3578,B-5,874.5,0.25,65,155.73
3579,C3,874.5,0.5,38,155.73
3580,C6,874.75,0.25,60,155.73
3581,B-5,875.0,0.25,65,155.73
3582,G3,875.0,0.5,31,155.73
3583,C6,875.25,0.25,59,155.73
3584,B-5,875.5,0.25,65,155.73
3585,B-3,875.5,0.5,31,155.73
3586,C6,875.75,0.25,59,155.73
3587,A5,876.0,0.25,74,155.73
3588,F3,876.0,1.0,67,155.73
3589,A3,876.0,1.0,67,155.73
3590,C6,876.25,0.25,62,155.73
3591,B5,876.5,0.25,62,155.73
3592,C6,876.75,0.25,62,155.73
3593,F6,877.0,0.25,69,155.73
3594,C6,877.25,0.25,62,155.73
3595,B-5,877.5,0.25,65,155.73
3596,G3,877.5,0.25,67,155.73
3597,C6,877.75,0.25,60,155.73
3598,B-5,878.0,0.25,65,155.73
3599,E3,878.0,0.25,62,155.73
3600,C6,878.25,0.25,59,155.73
3601,B-5,878.5,0.25,65,155.73
3602,C3,878.5,0.25,62,155.73
3603,C6,878.75,0.25,59,155.73
3604,A5,879.0,0.25,74,155.73
3605,F3,879.0,1.0,67,155.73
3606,C6,879.25,0.25,62,155.73
3607,F6,879.5,0.25,71,155.73
3608,A5,879.75,0.25,60,155.73
3609,G5,880.0,0.25,70,155.73
3610,E6,880.25,0.25,62,155.73
3611,F5,880.5,0.25,70,155.73
3612,G3,880.5,0.25,67,155.73
3613,D6,880.75,0.25,62,155.73
3614,E5,881.0,0.25,69,155.73
3615,E3,881.0,0.25,62,155.73
3616,C6,881.25,0.25,60,155.73
3617,D5,881.5,0.25,67,155.73
3618,C3,881.5,0.25,62,155.73
3619,B-5,881.75,0.25,58,155.73
3620,C5,882.0,0.25,69,155.73
3621,F3,882.0,1.0,67,155.73
3622,A5,882.25,0.25,62,155.73
3623,B-4,882.5,0.25,67,155.73
3624,G5,882.75,0.25,59,155.73
3625,A4,883.0,0.25,66,155.73
3626,F5,883.25,0.25,56,155.73
3627,G4,883.5,0.25,62,155.73
3628,G4,883.5,0.25,67,155.73
3629,E5,883.75,0.25,54,155.73
3630,F4,884.0,0.25,63,155.73
3631,E4,884.0,0.25,62,155.73
3632,D5,884.25,0.25,55,155.73
3633,E4,884.5,0.25,62,155.73
3634,C4,884.5,0.25,62,155.73
3635,C5,884.75,0.25,51,155.73
3636,F4,885.0,1.0,67,155.73
3637,B4,885.0,1.5,50,155.73
3638,D4,885.0,1.5,50,155.73
3639,G4,886.5,0.25,67,155.73
3640,B-4,886.5,1.5,50,155.73
3641,C#4,886.5,1.5,50,155.73
3642,E4,887.0,0.25,62,155.73
3643,C4,887.5,0.25,62,155.73
3644,F4,888.0,1.0,67,155.73
3645,B-5,888.0,1.5,50,155.73
3646,C#5,888.0,1.5,50,155.73
3647,E5,889.5,1.5,50,155.73
3648,G4,889.5,1.5,50,155.73
3649,C6,891.5,0.25,49,155.73
3650,C6,892.0,0.25,49,155.73
3651,D6,893.0,0.25,49,155.73
3652,D6,893.5,0.25,49,155.73
3653,C5,894.0,1.375,43,155.73
3654,F5,894.0,1.375,43,155.73
3655,D3,894.5,11/20,49,155.73
3656,F3,895.0,11/20,52,155.73
3657,A5,895.375,0.125,40,155.73
3658,G#3,895.5,11/20,54,155.73
3659,G5,895.5,1.5,40,155.73
3660,E5,895.5,1.5,40,155.73
3661,G3,896.0,11/20,49,155.73
3662,F3,896.5,0.5,49,155.73
3663,F5,897.0,0.25,74,155.73
3664,F3,897.0,0.5,49,155.73
3665,C5,897.25,0.25,62,155.73
3666,B4,897.5,0.25,62,155.73
3667,E3,897.5,11/20,47,155.73
3668,C5,897.75,0.25,62,155.73
3669,D5,898.0,0.25,68,155.73
3670,G3,898.0,11/20,49,155.73
3671,C5,898.25,0.25,62,155.73
3672,B-4,898.5,0.25,65,155.73
3673,C#4,898.5,11/20,54,155.73
3674,C5,898.75,0.25,60,155.73
3675,B-4,899.0,0.25,65,155.73
3676,C4,899.0,11/20,49,155.73
3677,C5,899.25,0.25,59,155.73
3678,B-4,899.5,0.25,65,155.73
3679,B-3,899.5,0.5,49,155.73
3680,C5,899.75,0.25,59,155.73
3681,A4,900.0,0.25,74,155.73
3682,A3,900.0,0.5,38,155.73
3683,B-3,900.0,1/20,49,155.73
3684,C5,900.25,0.25,62,155.73
3685,B4,900.5,0.25,62,155.73
3686,C5,900.75,0.25,62,155.73
3687,F5,901.0,0.25,74,155.73
3688,C5,901.25,0.25,62,155.73
3689,B-4,901.5,0.25,65,155.73
3690,B-3,901.5,0.5,40,155.73
3691,C5,901.75,0.25,60,155.73
3692,B-4,902.0,0.25,65,155.73
3693,C5,902.25,0.25,59,155.73
3694,B-4,902.5,0.25,65,155.73
3695,C5,902.75,0.25,59,155.73
3696,A4,903.0,0.25,74,155.73
3697,A4,903.0,1.5,40,155.73
3698,C4,903.0,3.0,34,155.73
3699,C6,903.25,0.25,62,155.73
3700,B5,903.5,0.25,62,155.73
3701,C6,903.75,0.25,62,155.73
3702,D6,904.0,0.25,72,155.73
3703,C6,904.25,0.25,62,155.73
3704,B-5,904.5,0.25,65,155.73
3705,B-4,904.5,1.5,40,155.73
3706,C6,904.75,0.25,60,155.73
3707,B-5,905.0,0.25,65,155.73
3708,C6,905.25,0.25,59,155.73
3709,B-5,905.5,0.25,65,155.73
3710,C6,905.75,0.25,59,155.73
3711,A5,906.0,0.25,74,155.73
3712,A4,906.0,1.0,67,155.73
3713,F4,906.0,1.0,67,155.73
3714,C6,906.25,0.25,62,155.73
3715,B5,906.5,0.25,62,155.73
3716,C6,906.75,0.25,62,155.73
3717,F6,907.0,0.25,72,155.73
3718,C6,907.25,0.25,62,155.73
3719,B-5,907.5,0.25,65,155.73
3720,G3,907.5,0.25,67,155.73
3721,C6,907.75,0.25,60,155.73
3722,B-5,908.0,0.25,65,155.73
3723,E3,908.0,0.25,62,155.73
3724,C6,908.25,0.25,59,155.73
3725,B-5,908.5,0.25,65,155.73
3726,C3,908.5,0.25,62,155.73
3727,C6,908.75,0.25,59,155.73
3728,A5,909.0,0.25,74,155.73
3729,F3,909.0,1.0,67,155.73
3730,C6,909.25,0.25,62,155.73
3731,F6,909.5,0.25,71,155.73
3732,A5,909.75,0.25,60,155.73
3733,G5,910.0,0.25,70,155.73
3734,E6,910.25,0.25,62,155.73
3735,F5,910.5,0.25,70,155.73
3736,G3,910.5,0.25,67,155.73
3737,D6,910.75,0.25,62,155.73
3738,E5,911.0,0.25,69,155.73
3739,E3,911.0,0.25,62,155.73
3740,C6,911.25,0.25,60,155.73
3741,D5,911.5,0.25,67,155.73
3742,C3,911.5,0.25,62,155.73
3743,B-5,911.75,0.25,58,155.73
3744,C5,912.0,0.25,69,155.73
3745,F3,912.0,1.0,67,155.73
3746,A5,912.25,0.25,62,155.73
3747,B-4,912.5,0.25,67,155.73
3748,G5,912.75,0.25,59,155.73
3749,A4,913.0,0.25,66,155.73
3750,F5,913.25,0.25,56,155.73
3751,G4,913.5,0.25,64,155.73
3752,G4,913.5,0.25,67,155.73
3753,E5,913.75,0.25,55,155.73
3754,F4,914.0,0.25,63,155.73
3755,E4,914.0,0.25,62,155.73
3756,D5,914.25,0.25,55,155.73
3757,E4,914.5,0.25,62,155.73
3758,C4,914.5,0.25,62,155.73
3759,C5,914.75,0.25,51,155.73
3760,F4,915.0,1.0,67,155.73
3761,B4,915.0,1.5,50,155.73
3762,D4,915.0,1.5,50,155.73
3763,G4,916.5,0.25,67,155.73
3764,B-4,916.5,1.5,50,155.73
3765,C#4,916.5,1.5,50,155.73
3766,E4,917.0,0.25,62,155.73
3767,C4,917.5,0.25,62,155.73
3768,F4,918.0,1.0,67,155.73
3769,B-5,918.0,1.5,50,155.73
3770,C#5,918.0,1.5,50,155.73
3771,E5,919.5,1.5,50,155.73
3772,G4,919.5,1.5,50,155.73
3773,C6,921.5,0.25,49,155.73
3774,C6,922.0,0.25,49,155.73
3775,D6,923.0,0.25,49,155.73
3776,D6,923.5,0.25,49,155.73
3777,C5,924.0,3.0,39,155.73
3778,F5,924.0,1.5,47,155.73
3779,D3,924.5,11/20,49,155.73
3780,F3,925.0,11/20,52,155.73
3781,E5,925.5,1.5,37,155.73
3782,G#3,925.5,11/20,54,155.73
3783,G3,926.0,11/20,49,155.73
3784,F3,926.5,0.5,49,155.73
3785,B5,927.0,0.25,71,155.73
3786,F3,927.0,0.5,49,155.73
3787,C6,927.25,11/40,55,155.73
3788,B5,927.5,11/40,55,155.73
3789,E3,927.5,11/20,47,155.73
3790,C6,927.75,11/40,55,155.73
3791,B5,928.0,11/40,55,155.73
3792,G3,928.0,11/20,49,155.73
3793,C6,928.25,0.25,55,155.73
3794,C#6,928.5,11/40,62,155.73
3795,C#4,928.5,11/20,54,155.73
3796,D6,928.75,11/40,55,155.73
3797,C#6,929.0,11/40,55,155.73
3798,C4,929.0,11/20,49,155.73
3799,D6,929.25,11/40,55,155.73
3800,E6,929.5,11/40,59,155.73
3801,B-3,929.5,0.5,49,155.73
3802,F6,929.75,0.25,54,155.73
3803,C5,930.0,1.5,39,155.73
3804,F5,930.0,1.375,47,155.73
3805,A3,930.0,0.5,38,155.73
3806,B-3,930.0,1/20,49,155.73
3807,A5,931.375,0.125,37,155.73
3808,G5,931.5,1.25,43,155.73
3809,E5,931.5,1.0,43,155.73
3810,B-3,931.5,0.5,40,155.73
3811,F5,932.75,0.25,37,155.73
3812,F5,933.0,11/40,71,155.73
3813,C4,933.0,1.5,37,155.73
3814,A4,933.0,1.5,37,155.73
3815,A5,933.25,11/40,64,155.73
3816,C6,933.5,11/40,67,155.73
3817,F6,933.75,11/40,68,155.73
3818,E6,934.0,11/40,69,155.73
3819,D6,934.25,11/40,69,155.73
3820,C6,934.5,11/40,71,155.73
3821,B-3,934.5,1.5,36,155.73
3822,G4,934.5,1.5,36,155.73
3823,D6,934.75,11/40,67,155.73
3824,C6,935.0,11/40,67,155.73
3825,B-5,935.25,11/40,67,155.73
3826,A5,935.5,11/40,67,155.73
3827,G5,935.75,0.25,67,155.73
3828,F5,936.0,11/40,71,155.73
3829,A3,936.0,0.5,64,155.73
3830,A5,936.25,11/40,64,155.73
3831,G5,936.5,11/40,64,155.73
3832,C4,936.5,0.5,53,155.73
3833,F5,936.75,11/40,68,155.73
3834,E5,937.0,11/40,64,155.73
3835,F4,937.0,0.5,53,155.73
3836,D5,937.25,11/40,64,155.73
3837,C5,937.5,11/40,69,155.73
3838,B-3,937.5,0.5,61,155.73
3839,D5,937.75,11/40,63,155.73
3840,C5,938.0,11/40,63,155.73
3841,D4,938.0,0.5,53,155.73
3842,B-4,938.25,11/40,63,155.73
3843,A4,938.5,11/40,63,155.73
3844,G4,938.5,0.5,50,155.73
3845,G4,938.75,0.25,63,155.73
3846,F4,939.0,11/40,71,155.73
3847,C4,939.0,0.5,38,155.73
3848,A4,939.25,11/40,63,155.73
3849,G4,939.5,11/40,63,155.73
3850,F4,939.5,0.5,34,155.73
3851,F4,939.75,11/40,63,155.73
3852,E4,940.0,11/40,63,155.73
3853,A4,940.0,0.5,34,155.73
3854,D4,940.25,11/40,64,155.73
3855,C4,940.5,11/40,71,155.73
3856,C4,940.5,0.5,39,155.73
3857,D4,940.75,11/40,64,155.73
3858,C4,941.0,11/40,64,155.73
3859,G4,941.0,0.5,33,155.73
3860,B-3,941.25,11/40,64,155.73
3861,A3,941.5,11/40,64,155.73
3862,B-4,941.5,0.5,33,155.73
3863,G3,941.75,0.25,64,155.73
3864,F3,942.0,0.25,81,155.73
3865,A4,942.0,1.0,61,155.73
3866,F4,942.0,1.0,61,155.73
3867,A3,942.5,0.25,70,155.73
3868,C4,943.0,0.25,70,155.73
3869,F4,943.5,0.25,78,155.73
3870,B-4,943.5,1.0,63,155.73
3871,C4,943.5,1.0,63,155.73
3872,E4,943.5,1.0,63,155.73
3873,A4,944.0,0.25,70,155.73
3874,C5,944.5,0.25,70,155.73
3875,F5,945.0,0.5,88,155.73
3876,F4,945.0,1.0,61,155.73
3877,A4,945.0,1.0,61,155.73
3878,A5,946.5,1.0,80,155.73
3879,C6,946.5,1.0,80,155.73
3880,C5,946.5,1.0,80,155.73
3881,B-4,946.5,1.0,59,155.73
3882,C4,946.5,1.0,59,155.73
3883,E4,946.5,1.0,59,155.73
3884,E-6,948.0,1.0,85,155.73
3885,F5,948.0,1.0,85,155.73
3886,C6,948.0,1.0,85,155.73
3887,A3,948.0,1.0,61,155.73
3888,F3,948.0,1.0,61,155.73
3889,C3,949.5,1.0,59,155.73
3890,E3,949.5,1.0,59,155.73
3891,B-3,949.5,1.0,59,155.73
3892,F2,951.0,0.25,70,155.73
3893,D6,951.0,1.0,78,155.73
3894,F5,951.0,1.0,78,155.73
3895,B-5,951.0,1.0,78,155.73
3896,A2,951.5,0.25,63,155.73
3897,C3,952.0,0.25,63,155.73
3898,F3,952.5,0.25,70,155.73
3899,A3,953.0,0.25,64,155.73
3900,C4,953.5,0.25,64,155.73
3901,F4,954.0,0.5,74,155.73
3902,G#5,954.0,1.0,77,155.73
3903,D6,954.0,1.0,77,155.73
3904,F6,954.0,1.0,77,155.73
3905,F5,954.0,1.0,77,155.73
3906,F4,955.5,1.0,68,155.73
3907,F3,955.5,1.0,68,155.73
3908,C4,957.0,3.0,39,155.73
3909,F4,957.0,2.75,47,155.73
3910,A2,957.0,1.0,68,155.73
3911,A3,957.0,1.0,68,155.73
3912,A4,959.75,0.25,47,155.73
3913,C4,960.0,3.0,42,155.73
3914,G4,960.0,2.5,50,155.73
3915,E4,960.0,3.0,42,155.73
3916,B-2,960.0,1.0,68,155.73
3917,B-3,960.0,1.0,68,155.73
3918,F4,962.5,0.5,41,155.73
3919,F4,963.0,0.5,46,155.73
3920,C4,963.0,0.5,42,155.73
3921,B2,963.0,1.0,68,155.73
3922,B3,963.0,1.0,68,155.73
3923,A3,964.0,0.5,71,155.73
3924,B-3,964.5,0.25,78,155.73
3925,G4,965.0,0.25,73,155.73
3926,B3,965.5,0.25,72,155.73
3927,C4,966.0,0.25,78,155.73
3928,A3,966.0,3.0,38,155.73
3929,C3,966.0,3.0,38,155.73
3930,A4,966.5,0.25,73,155.73
3931,C#4,967.0,0.25,73,155.73
3932,D4,967.5,0.25,78,155.73
3933,B-4,968.0,0.25,72,155.73
3934,E4,968.5,0.25,72,155.73
3935,B-5,969.0,2.0,68,155.73
3936,B-3,969.0,3.0,38,155.73
3937,C3,969.0,3.0,38,155.73
3938,A5,971.0,0.25,62,155.73
3939,G5,971.25,0.25,61,155.73
3940,F5,971.5,0.25,59,155.73
3941,E5,971.75,0.25,57,155.73
3942,F5,972.0,0.25,56,155.73
3943,A3,972.0,0.5,38,155.73
3944,F3,972.0,0.5,38,155.73
3945,G5,972.5,0.25,49,155.73
3946,A5,973.0,0.25,54,155.73
3947,A2,973.0,0.5,60,155.73
3948,B-2,973.5,0.25,66,155.73
3949,A4,973.5,1.0,46,155.73
3950,C5,973.5,1.0,46,155.73
3951,G3,974.0,0.25,61,155.73
3952,B2,974.5,0.25,61,155.73
3953,B-4,974.5,0.5,40,155.73
3954,G4,974.5,0.5,40,155.73
3955,C3,975.0,0.25,66,155.73
3956,B-4,975.0,1.5,46,155.73
3957,G4,975.0,1.5,46,155.73
3958,A3,975.5,0.25,61,155.73
3959,C#3,976.0,0.25,61,155.73
3960,D3,976.5,0.25,66,155.73
3961,F4,976.5,0.5,41,155.73
3962,A4,976.5,0.5,41,155.73
3963,B-3,977.0,0.25,61,155.73
3964,E3,977.5,0.25,61,155.73
3965,A3,979.0,0.5,71,155.73
3966,B-3,979.5,0.25,78,155.73
3967,B-3,979.5,1.5,30,155.73
3968,C4,979.5,1.5,30,155.73
3969,G4,979.5,1.5,30,155.73
3970,E4,979.5,1.5,30,155.73
3971,G4,980.0,0.25,73,155.73
3972,B3,980.5,0.25,72,155.73
3973,C4,981.0,0.25,78,155.73
3974,C4,981.0,0.5,44,155.73
3975,A3,981.0,0.5,44,155.73
3976,F4,981.0,0.5,44,155.73
3977,A4,981.5,0.25,73,155.73
3978,C#4,982.0,0.25,73,155.73
3979,D4,982.5,0.25,78,155.73
3980,C4,982.5,1.0,42,155.73
3981,B-4,983.0,0.25,72,155.73
3982,E4,983.5,0.25,72,155.73
3983,C#4,983.5,0.5,42,155.73
3984,B-5,984.0,2.0,68,155.73
3985,D4,984.0,2.0,47,155.73
3986,A5,986.0,0.25,62,155.73
3987,G5,986.25,0.25,61,155.73
3988,F5,986.5,0.25,59,155.73
3989,E5,986.75,0.25,57,155.73
3990,F5,987.0,0.125,56,155.73
3991,G5,987.125,0.125,49,155.73
3992,A5,987.25,0.125,49,155.73
3993,A2,988.0,0.5,60,155.73
3994,D5,988.5,0.125,46,155.73
3995,B-2,988.5,0.25,66,155.73
3996,E5,988.625,0.125,39,155.73
3997,F5,988.75,0.125,39,155.73
3998,G3,989.0,0.25,61,155.73
3999,B2,989.5,0.25,61,155.73
4000,C4,990.0,3.0,37,155.73
4001,F4,990.0,1.25,44,155.73
4002,C3,990.0,0.25,66,155.73
4003,A3,990.5,0.25,61,155.73
4004,C#3,991.0,0.25,61,155.73
4005,A4,991.25,0.25,39,155.73
4006,D3,991.5,0.25,66,155.73
4007,G4,991.5,1.0,40,155.73
4008,E4,991.5,1.0,40,155.73
4009,B-3,992.0,0.25,61,155.73
4010,F4,992.5,0.5,41,155.73
4011,E3,992.5,0.25,61,155.73
4012,F4,993.0,1.5,41,155.73
4013,A4,994.0,0.5,39,155.73
4014,E4,994.5,1.5,37,155.73
4015,C5,994.5,0.5,44,155.73
4016,B-3,994.5,1.5,30,155.73
4017,C4,994.5,1.5,30,155.73
4018,E4,994.5,1.5,30,155.73
4019,G4,994.5,1.5,30,155.73
4020,B-4,995.0,0.5,39,155.73
4021,G4,995.5,0.5,39,155.73
4022,F4,996.0,1.5,44,155.73
4023,A3,996.0,0.5,44,155.73
4024,F4,996.0,0.5,44,155.73
4025,C4,996.0,0.5,44,155.73
4026,C4,996.5,123/250,40,155.73
4027,A4,997.0,0.5,40,155.73
4028,E4,997.5,1.5,37,155.73
4029,C5,997.5,0.5,44,155.73
4030,B-3,997.5,0.5,35,155.73
4031,D4,997.5,0.5,35,155.73
4032,F4,997.5,0.5,35,155.73
4033,B-4,998.0,0.5,40,155.73
4034,G4,998.5,0.5,40,155.73
4035,F4,999.0,0.5,44,155.73
4036,A3,999.0,1.5,32,155.73
4037,C3,999.0,3.0,27,155.73
4038,C4,999.5,123/250,41,155.73
4039,A4,1000.0,0.5,41,155.73
4040,F4,1000.5,0.5,44,155.73
4041,B-3,1000.5,1.5,28,155.73
4042,C4,1001.0,247/500,40,155.73
4043,A4,1001.5,0.5,40,155.73
4044,F3,1002.0,1.5,28,155.73
4045,G4,1002.0,1.5,39,155.73
4046,B-3,1002.0,1.5,39,155.73
4047,A3,1002.5,0.5,24,155.73
4048,C4,1003.0,0.5,24,155.73
4049,F3,1003.5,1.5,28,155.73
4050,F4,1003.5,0.5,34,155.73
4051,A3,1003.5,0.5,34,155.73
4052,G3,1004.0,0.5,26,155.73
4053,B-3,1004.5,0.5,26,155.73
4054,F3,1005.0,1.5,28,155.73
4055,G5,1005.25,11/40,66,155.73
4056,F#5,1005.5,11/40,68,155.73
4057,A3,1005.5,0.5,24,155.73
4058,G5,1005.75,11/40,69,155.73
4059,C6,1006.0,11/40,70,155.73
4060,C4,1006.0,0.5,24,155.73
4061,G5,1006.25,11/40,63,155.73
4062,F5,1006.5,11/40,70,155.73
4063,F3,1006.5,1.5,28,155.73
4064,E-5,1006.75,11/40,66,155.73
4065,D5,1007.0,11/40,64,155.73
4066,G3,1007.0,0.5,24,155.73
4067,E-5,1007.25,11/40,64,155.73
4068,G5,1007.5,11/40,70,155.73
4069,B-3,1007.5,0.5,24,155.73
4070,E-5,1007.75,0.25,64,155.73
4071,D5,1008.0,11/40,70,155.73
4072,E-5,1008.0,1/40,64,155.73
4073,F3,1008.0,1.5,28,155.73
4074,C5,1008.25,11/40,64,155.73
4075,B4,1008.5,11/40,64,155.73
4076,A3,1008.5,0.5,24,155.73
4077,C5,1008.75,11/40,64,155.73
4078,E-5,1009.0,11/40,70,155.73
4079,C4,1009.0,0.5,24,155.73
4080,C5,1009.25,11/40,65,155.73
4081,G#4,1009.5,11/40,70,155.73
4082,F3,1009.5,1.5,28,155.73
4083,G4,1009.75,11/40,65,155.73
4084,F#4,1010.0,11/40,65,155.73
4085,A3,1010.0,0.5,24,155.73
4086,G4,1010.25,11/40,65,155.73
4087,C5,1010.5,11/40,70,155.73
4088,C4,1010.5,0.5,24,155.73
4089,G4,1010.75,0.25,65,155.73
4090,F4,1011.0,11/40,70,155.73
4091,G4,1011.0,1/40,65,155.73
4092,F3,1011.0,2.0,26,155.73
4093,F2,1011.0,2.0,26,155.73
4094,E-4,1011.25,11/40,66,155.73
4095,D4,1011.5,11/40,66,155.73
4096,E-4,1011.75,11/40,66,155.73
4097,G4,1012.0,11/40,70,155.73
4098,E-4,1012.25,11/40,64,155.73
4099,C4,1012.5,0.25,70,155.73
4100,C5,1012.75,0.25,64,155.73
4101,B3,1013.0,0.25,70,155.73
4102,C5,1013.25,0.25,64,155.73
4103,C4,1013.5,0.25,70,155.73
4104,C5,1013.75,0.25,64,155.73
4105,D4,1014.0,0.25,70,155.73
4106,C3,1014.0,1.0,62,155.73
4107,E-2,1014.0,1.0,62,155.73
4108,G2,1014.0,1.0,62,155.73
4109,C2,1014.0,1.0,62,155.73
4110,C5,1014.25,0.25,64,155.73
4111,C4,1014.5,0.25,65,155.73
4112,C5,1014.75,0.25,58,155.73
4113,D4,1015.0,0.25,67,155.73
4114,C5,1015.25,0.25,61,155.73
4115,E4,1015.5,0.25,70,155.73
4116,C5,1015.75,0.25,60,155.73
4117,D4,1016.0,0.25,66,155.73
4118,C5,1016.25,0.25,62,155.73
4119,E4,1016.5,0.25,67,155.73
4120,C5,1016.75,0.25,62,155.73
4121,F4,1017.0,0.25,74,155.73
4122,C5,1017.25,0.25,61,155.73
4123,F4,1017.5,0.25,65,155.73
4124,C5,1017.75,0.25,61,155.73
4125,E-4,1018.0,0.25,65,155.73
4126,C5,1018.25,0.25,60,155.73
4127,F4,1018.5,0.25,70,155.73
4128,C5,1018.75,0.25,60,155.73
4129,F4,1019.0,0.25,65,155.73
4130,C5,1019.25,0.25,60,155.73
4131,E-4,1019.5,0.25,65,155.73
4132,C5,1019.75,0.25,54,155.73
4133,D4,1020.0,521/1000,49,155.73
4134,C5,1020.25,0.25,43,155.73
4135,E-4,1020.5,0.5,52,155.73
4136,C5,1020.75,0.25,45,155.73
4137,D4,1021.0,521/1000,55,155.73
4138,C5,1021.25,0.25,52,155.73
4139,E-4,1021.5,0.5,59,155.73
4140,E-3,1021.5,0.25,70,155.73
4141,C5,1021.75,0.25,59,155.73
4142,F4,1022.0,521/1000,66,155.73
4143,D3,1022.0,0.25,66,155.73
4144,C5,1022.25,0.25,55,155.73
4145,E-4,1022.5,0.5,52,155.73
4146,E-3,1022.5,0.25,66,155.73
4147,C5,1022.75,0.25,43,155.73
4148,D4,1023.0,521/1000,50,155.73
4149,F3,1023.0,0.25,70,155.73
4150,C5,1023.25,0.25,44,155.73
4151,E-4,1023.5,0.5,54,155.73
4152,E-3,1023.5,0.25,67,155.73
4153,C5,1023.75,0.25,49,155.73
4154,D4,1024.0,521/1000,57,155.73
4155,F3,1024.0,0.25,67,155.73
4156,C5,1024.25,0.25,53,155.73
4157,E-4,1024.5,0.5,59,155.73
4158,G3,1024.5,0.25,70,155.73
4159,C5,1024.75,0.25,55,155.73
4160,F4,1025.0,521/1000,64,155.73
4161,F3,1025.0,0.25,67,155.73
4162,C5,1025.25,0.25,54,155.73
4163,E-4,1025.5,0.5,56,155.73
4164,G3,1025.5,0.25,67,155.73
4165,C5,1025.75,0.25,43,155.73
4166,D4,1026.0,0.188,60,155.73
4167,G#3,1026.0,1.0,74,155.73
4168,G3,1027.0,0.25,67,155.73
4169,F#4,1027.25,0.25,51,155.73
4170,C5,1027.5,0.188,55,155.73
4171,G#3,1027.5,1.0,74,155.73
4172,D4,1027.75,0.25,48,155.73
4173,F#4,1028.0,0.25,51,155.73
4174,A4,1028.25,0.25,53,155.73
4175,C5,1028.5,0.188,56,155.73
4176,G3,1028.5,0.25,66,155.73
4177,F#5,1028.75,0.25,53,155.73
4178,C6,1029.0,0.25,62,155.73
4179,F#3,1029.0,521/1000,44,155.73
4180,B-5,1029.25,0.25,61,155.73
4181,A5,1029.5,0.25,60,155.73
4182,G3,1029.5,0.5,38,155.73
4183,G5,1029.75,0.25,59,155.73
4184,F#5,1030.0,0.25,58,155.73
4185,F#3,1030.0,521/1000,55,155.73
4186,G5,1030.25,0.25,55,155.73
4187,F#5,1030.5,0.25,59,155.73
4188,G3,1030.5,0.5,60,155.73
4189,G5,1030.75,0.25,55,155.73
4190,F#5,1031.0,0.25,58,155.73
4191,G#3,1031.0,521/1000,63,155.73
4192,E-5,1031.25,0.25,57,155.73
4193,D5,1031.5,0.25,56,155.73
4194,G3,1031.5,0.5,47,155.73
4195,C5,1031.75,0.25,55,155.73
4196,B4,1032.0,521/1000,49,155.73
4197,F#3,1032.0,521/1000,47,155.73
4198,F5,1032.25,0.25,43,155.73
4199,C5,1032.5,0.5,52,155.73
4200,G3,1032.5,0.5,42,155.73
4201,F5,1032.75,0.25,45,155.73
4202,B4,1033.0,521/1000,55,155.73
4203,F#3,1033.0,521/1000,59,155.73
4204,F5,1033.25,0.25,52,155.73
4205,C5,1033.5,0.5,62,155.73
4206,G3,1033.5,0.5,53,155.73
4207,F5,1033.75,0.25,60,155.73
4208,C#5,1034.0,521/1000,67,155.73
4209,G#3,1034.0,521/1000,64,155.73
4210,F5,1034.25,0.25,55,155.73
4211,C5,1034.5,0.5,52,155.73
4212,G3,1034.5,0.5,41,155.73
4213,F5,1034.75,0.25,43,155.73
4214,B4,1035.0,521/1000,50,155.73
4215,F5,1035.25,0.25,44,155.73
4216,F#3,1035.25,0.25,42,155.73
4217,C5,1035.5,0.5,54,155.73
4218,A3,1035.5,0.25,44,155.73
4219,F5,1035.75,0.25,49,155.73
4220,C4,1035.75,0.25,46,155.73
4221,B4,1036.0,521/1000,57,155.73
4222,D4,1036.0,0.25,48,155.73
4223,F5,1036.25,0.25,53,155.73
4224,C5,1036.5,0.5,63,155.73
4225,F5,1036.75,0.25,55,155.73
4226,C#5,1037.0,521/1000,68,155.73
4227,F5,1037.25,0.25,54,155.73
4228,C5,1037.5,0.5,56,155.73
4229,F5,1037.75,0.25,43,155.73
4230,B4,1038.0,0.188,60,155.73
4231,B4,1039.25,0.25,51,155.73
4232,F5,1039.5,0.188,55,155.73
4233,G4,1039.75,0.25,48,155.73
4234,B4,1040.0,0.25,51,155.73
4235,D5,1040.25,0.25,53,155.73
4236,F5,1040.5,0.188,56,155.73
4237,B5,1040.75,0.25,53,155.73
4238,F6,1041.0,0.25,62,155.73
4239,G3,1041.0,521/1000,44,155.73
4240,E-6,1041.25,0.25,61,155.73
4241,D6,1041.5,0.25,60,155.73
4242,G#3,1041.5,0.5,38,155.73
4243,C6,1041.75,0.25,59,155.73
4244,B5,1042.0,0.25,58,155.73
4245,G3,1042.0,521/1000,55,155.73
4246,G#5,1042.25,0.25,55,155.73
4247,G5,1042.5,0.25,59,155.73
4248,G#3,1042.5,0.5,55,155.73
4249,F#5,1042.75,0.25,55,155.73
4250,G5,1043.0,0.25,58,155.73
4251,B-3,1043.0,521/1000,63,155.73
4252,G#5,1043.25,0.25,57,155.73
4253,G5,1043.5,0.25,56,155.73
4254,G#3,1043.5,0.5,47,155.73
4255,F5,1043.75,0.25,55,155.73
4256,E5,1044.0,521/1000,49,155.73
4257,G3,1044.0,521/1000,47,155.73
4258,G4,1044.25,0.25,43,155.73
4259,F5,1044.5,0.5,52,155.73
4260,G#3,1044.5,0.5,42,155.73
4261,G4,1044.75,0.25,45,155.73
4262,E5,1045.0,521/1000,55,155.73
4263,G3,1045.0,521/1000,59,155.73
4264,G4,1045.25,0.25,52,155.73
4265,F5,1045.5,0.5,59,155.73
4266,G#3,1045.5,0.5,53,155.73
4267,G4,1045.75,0.25,53,155.73
4268,E5,1046.0,521/1000,59,155.73
4269,B-3,1046.0,521/1000,64,155.73
4270,G4,1046.25,0.25,55,155.73
4271,F5,1046.5,0.5,52,155.73
4272,G#3,1046.5,0.5,41,155.73
4273,G4,1046.75,0.25,43,155.73
4274,E5,1047.0,521/1000,50,155.73
4275,G4,1047.25,0.25,44,155.73
4276,G3,1047.25,0.25,42,155.73
4277,F5,1047.5,0.5,54,155.73
4278,B3,1047.5,0.25,44,155.73
4279,G4,1047.75,0.25,49,155.73
4280,D4,1047.75,0.25,46,155.73
4281,E5,1048.0,521/1000,57,155.73
4282,F4,1048.0,0.25,48,155.73
4283,G4,1048.25,0.25,53,155.73
4284,F5,1048.5,0.5,61,155.73
4285,G4,1048.75,0.25,55,155.73
4286,E5,1049.0,521/1000,60,155.73
4287,G4,1049.25,0.25,50,155.73
4288,F5,1049.5,0.5,56,155.73
4289,G4,1049.75,0.25,43,155.73
4290,E5,1050.0,0.188,60,155.73
4291,E4,1051.25,0.25,51,155.73
4292,B-4,1051.5,0.188,55,155.73
4293,C4,1051.75,0.25,48,155.73
4294,E4,1052.0,0.25,51,155.73
4295,G4,1052.25,0.25,53,155.73
4296,B-4,1052.5,0.188,56,155.73
4297,E5,1052.75,0.25,53,155.73
4298,B-5,1053.0,0.25,62,155.73
4299,C4,1053.0,521/1000,44,155.73
4300,A5,1053.25,0.25,61,155.73
4301,G5,1053.5,0.25,60,155.73
4302,B3,1053.5,0.5,38,155.73
4303,F5,1053.75,0.25,59,155.73
4304,E5,1054.0,0.25,58,155.73
4305,C4,1054.0,521/1000,45,155.73
4306,D5,1054.25,0.25,55,155.73
4307,C5,1054.5,0.25,59,155.73
4308,C#4,1054.5,0.5,54,155.73
4309,D5,1054.75,0.25,55,155.73
4310,C5,1055.0,0.25,58,155.73
4311,C4,1055.0,521/1000,49,155.73
4312,B-4,1055.25,0.25,57,155.73
4313,A4,1055.5,0.25,56,155.73
4314,B3,1055.5,0.5,44,155.73
4315,G4,1055.75,0.25,55,155.73
4316,F4,1056.0,521/1000,49,155.73
4317,C4,1056.0,521/1000,47,155.73
4318,E-5,1056.25,0.25,43,155.73
4319,F#4,1056.5,0.5,52,155.73
4320,B3,1056.5,0.5,42,155.73
4321,E-5,1056.75,0.25,45,155.73
4322,F4,1057.0,521/1000,55,155.73
4323,C4,1057.0,521/1000,48,155.73
4324,E-5,1057.25,0.25,52,155.73
4325,F#4,1057.5,0.5,62,155.73
4326,C#4,1057.5,0.5,51,155.73
4327,E-5,1057.75,0.25,56,155.73
4328,G#4,1058.0,521/1000,65,155.73
4329,C4,1058.0,521/1000,46,155.73
4330,E-5,1058.25,0.25,55,155.73
4331,F#4,1058.5,0.5,52,155.73
4332,B3,1058.5,0.5,41,155.73
4333,E-5,1058.75,0.25,43,155.73
4334,F4,1059.0,521/1000,50,155.73
4335,E-5,1059.25,0.25,44,155.73
4336,C3,1059.25,0.25,42,155.73
4337,F#4,1059.5,0.5,54,155.73
4338,E3,1059.5,0.25,44,155.73
4339,E-5,1059.75,0.25,49,155.73
4340,G3,1059.75,0.25,46,155.73
4341,F4,1060.0,521/1000,57,155.73
4342,B-3,1060.0,0.25,48,155.73
4343,E-5,1060.25,0.25,53,155.73
4344,F#4,1060.5,0.5,63,155.73
4345,E-5,1060.75,0.25,55,155.73
4346,G#4,1061.0,521/1000,66,155.73
4347,E-5,1061.25,0.25,54,155.73
4348,F#4,1061.5,0.5,56,155.73
4349,E-5,1061.75,0.25,43,155.73
4350,F4,1062.0,0.188,60,155.73
4351,A4,1063.25,0.25,51,155.73
4352,E-5,1063.5,0.188,55,155.73
4353,F4,1063.75,0.25,48,155.73
4354,A4,1064.0,0.25,51,155.73
4355,C5,1064.25,0.25,53,155.73
4356,E-5,1064.5,0.188,56,155.73
4357,A5,1064.75,0.25,53,155.73
4358,E-6,1065.0,0.25,62,155.73
4359,A3,1065.0,521/1000,44,155.73
4360,D6,1065.25,0.25,61,155.73
4361,C6,1065.5,0.25,60,155.73
4362,B-3,1065.5,0.5,38,155.73
4363,B-5,1065.75,0.25,59,155.73
4364,A5,1066.0,0.25,58,155.73
4365,A3,1066.0,521/1000,55,155.73
4366,G5,1066.25,0.25,55,155.73
4367,F5,1066.5,0.25,59,155.73
4368,B-3,1066.5,0.5,55,155.73
4369,G5,1066.75,0.25,55,155.73
4370,F5,1067.0,0.25,56,155.73
4371,B3,1067.0,521/1000,63,155.73
4372,E-5,1067.25,0.25,54,155.73
4373,D5,1067.5,0.25,52,155.73
4374,B-3,1067.5,0.5,47,155.73
4375,C5,1067.75,0.25,50,155.73
4376,D5,1068.0,0.5,54,155.73
4377,A3,1068.0,521/1000,47,155.73
4378,B-3,1068.5,0.5,42,155.73
4379,D5,1069.0,0.5,42,155.73
4380,A3,1069.0,521/1000,59,155.73
4381,C5,1069.5,0.5,46,155.73
4382,B-3,1069.5,0.5,53,155.73
4383,B3,1070.0,521/1000,64,155.73
4384,C5,1070.5,0.5,45,155.73
4385,B-3,1070.5,0.5,41,155.73
4386,E-5,1071.0,2.5,52,155.73
4387,A3,1071.25,0.25,42,155.73
4388,C4,1071.5,0.25,44,155.73
4389,E-4,1071.75,0.25,46,155.73
4390,F4,1072.0,0.25,48,155.73
4391,D5,1073.5,0.5,42,155.73
4392,E-5,1074.0,0.5,46,155.73
4393,E-5,1075.0,0.5,42,155.73
4394,D5,1075.5,0.5,43,155.73
4395,D5,1076.5,0.5,43,155.73
4396,G5,1077.0,2.5,52,155.73
4397,B-3,1077.0,0.5,29,155.73
4398,D4,1077.5,0.5,25,155.73
4399,F4,1078.0,0.5,25,155.73
4400,A3,1078.5,0.5,30,155.73
4401,C4,1079.0,0.5,26,155.73
4402,F5,1079.5,0.5,44,155.73
4403,F4,1079.5,0.5,26,155.73
4404,F5,1080.0,0.5,47,155.73
4405,G3,1080.0,0.5,30,155.73
4406,E5,1080.5,0.5,44,155.73
4407,B-3,1080.5,0.5,27,155.73
4408,C5,1081.0,1.0,48,155.73
4409,E-4,1081.0,0.5,27,155.73
4410,F#3,1081.5,0.5,29,155.73
4411,D5,1082.0,0.5,45,155.73
4412,A3,1082.0,0.5,25,155.73
4413,E-5,1082.5,123/250,45,155.73
4414,D4,1082.5,0.5,25,155.73
4415,E-5,1083.0,0.5,45,155.73
4416,G3,1083.0,0.5,32,155.73
4417,D5,1083.5,0.5,42,155.73
4418,B-3,1083.5,0.5,25,155.73
4419,B-4,1084.0,1.0,46,155.73
4420,E-4,1084.0,0.5,25,155.73
4421,F3,1084.5,0.5,31,155.73
4422,C5,1085.0,0.5,46,155.73
4423,A3,1085.0,0.5,27,155.73
4424,C#5,1085.5,0.5,51,155.73
4425,D4,1085.5,0.5,27,155.73
4426,C#5,1086.0,0.5,51,155.73
4427,E-3,1086.0,0.5,37,155.73
4428,C5,1086.5,0.5,51,155.73
4429,G3,1086.5,0.5,32,155.73
4430,C#5,1087.0,1.0,55,155.73
4431,C4,1087.0,0.5,32,155.73
4432,D3,1087.5,0.5,34,155.73
4433,C5,1088.0,0.5,50,155.73
4434,F3,1088.0,0.5,28,155.73
4435,B-4,1088.5,0.5,51,155.73
4436,B-3,1088.5,0.5,24,155.73
4437,A4,1089.0,1.5,57,155.73
4438,C3,1089.0,0.5,32,155.73
4439,G3,1089.5,0.5,27,155.73
4440,B-3,1090.0,0.5,27,155.73
4441,C5,1090.5,0.5,55,155.73
4442,F3,1090.5,0.5,33,155.73
4443,A3,1091.0,0.5,29,155.73
4444,C4,1091.5,0.5,29,155.73
4445,D5,1092.0,0.25,75,155.73
4446,B-2,1092.0,0.5,36,155.73
4447,B-4,1092.25,0.25,57,155.73
4448,F4,1092.5,0.25,57,155.73
4449,F3,1092.5,0.5,31,155.73
4450,B-4,1092.75,0.25,57,155.73
4451,D5,1093.0,0.25,57,155.73
4452,B-3,1093.0,0.5,29,155.73
4453,B-4,1093.25,0.25,57,155.73
4454,C5,1093.5,0.25,73,155.73
4455,F#3,1093.5,0.5,33,155.73
4456,A4,1093.75,0.25,56,155.73
4457,F4,1094.0,0.25,56,155.73
4458,B-3,1094.0,0.5,33,155.73
4459,A4,1094.25,0.25,56,155.73
4460,C5,1094.5,0.25,56,155.73
4461,C#4,1094.5,0.5,33,155.73
4462,A4,1094.75,0.25,56,155.73
4463,E-5,1095.0,0.25,76,155.73
4464,E-3,1095.0,0.5,39,155.73
4465,B-4,1095.25,0.25,55,155.73
4466,G4,1095.5,0.25,55,155.73
4467,F#3,1095.5,0.5,35,155.73
4468,B-4,1095.75,0.25,55,155.73
4469,E-5,1096.0,0.25,60,155.73
4470,B-3,1096.0,0.5,36,155.73
4471,B-4,1096.25,0.25,53,155.73
4472,E-5,1096.5,0.25,59,155.73
4473,E3,1096.5,0.5,45,155.73
4474,B-4,1096.75,0.25,52,155.73
4475,E-5,1097.0,0.25,60,155.73
4476,G3,1097.0,0.5,38,155.73
4477,B-4,1097.25,0.25,48,155.73
4478,D5,1097.5,0.25,74,155.73
4479,C#4,1097.5,0.5,39,155.73
4480,A4,1097.75,0.25,51,155.73
4481,E-5,1098.0,0.25,78,155.73
4482,F3,1098.0,0.5,47,155.73
4483,B-4,1098.25,0.25,53,155.73
4484,G4,1098.5,0.25,54,155.73
4485,A3,1098.5,0.5,40,155.73
4486,B-4,1098.75,0.25,54,155.73
4487,E-5,1099.0,0.25,60,155.73
4488,C4,1099.0,0.5,40,155.73
4489,B-4,1099.25,0.25,54,155.73
4490,D5,1099.5,0.25,64,155.73
4491,F3,1099.5,0.5,48,155.73
4492,A4,1099.75,0.25,52,155.73
4493,F4,1100.0,0.25,53,155.73
4494,E-3,1100.0,0.5,42,155.73
4495,A4,1100.25,0.25,53,155.73
4496,D5,1100.5,0.25,73,155.73
4497,C3,1100.5,0.5,43,155.73
4498,A4,1100.75,0.25,57,155.73
4499,G5,1101.0,0.25,75,155.73
4500,B-3,1101.0,1.0,54,155.73
4501,B-2,1101.0,1.0,54,155.73
4502,B-4,1101.25,0.25,52,155.73
4503,G4,1101.5,0.25,52,155.73
4504,B-4,1101.75,0.25,52,155.73
4505,G5,1102.0,0.25,61,155.73
4506,B-4,1102.25,0.25,51,155.73
4507,G5,1102.5,0.25,63,155.73
4508,A2,1102.5,1.0,54,155.73
4509,A3,1102.5,1.0,54,155.73
4510,B-4,1102.75,0.25,52,155.73
4511,G5,1103.0,0.25,65,155.73
4512,B-4,1103.25,0.25,53,155.73
4513,F5,1103.5,0.25,51,155.73
4514,B-4,1103.75,0.25,45,155.73
4515,G2,1104.0,2.5,54,155.73
4516,G3,1104.0,2.5,54,155.73
4517,G4,1104.75,0.25,51,155.73
4518,B-4,1105.0,0.25,44,155.73
4519,E5,1105.25,0.25,44,155.73
4520,A4,1106.25,0.25,51,155.73
4521,C5,1106.5,0.25,46,155.73
4522,F#3,1106.5,0.5,52,155.73
4523,F#2,1106.5,0.5,52,155.73
4524,E-5,1106.75,0.25,46,155.73
4525,G3,1107.0,1.0,52,155.73
4526,G2,1107.0,1.0,52,155.73
4527,G4,1107.75,0.25,51,155.73
4528,B-4,1108.0,0.25,44,155.73
4529,D5,1108.25,0.25,44,155.73
4530,F2,1108.5,1.0,52,155.73
4531,F3,1108.5,1.0,52,155.73
4532,E-4,1109.25,0.25,57,155.73
4533,G4,1109.5,0.25,48,155.73
4534,C5,1109.75,0.25,49,155.73
4535,E-3,1110.0,2.5,43,155.73
4536,E-2,1110.0,2.5,43,155.73
4537,D4,1110.75,0.25,56,155.73
4538,F4,1111.0,0.25,48,155.73
4539,B-4,1111.25,0.25,48,155.73
4540,E-4,1112.25,0.25,59,155.73
4541,F4,1112.5,0.25,52,155.73
4542,D2,1112.5,0.5,38,155.73
4543,D3,1112.5,0.5,38,155.73
4544,A4,1112.75,0.25,52,155.73
4545,C3,1113.0,0.25,51,155.73
4546,G3,1113.25,0.25,44,155.73
4547,B-3,1113.5,0.25,44,155.73
4548,F#3,1114.5,0.25,51,155.73
4549,A3,1114.75,0.25,42,155.73
4550,C4,1115.0,0.25,44,155.73
4551,G3,1116.0,0.25,51,155.73
4552,B-3,1116.25,0.25,42,155.73
4553,D4,1116.5,0.25,42,155.73
4554,E-3,1117.5,0.25,57,155.73
4555,G3,1117.75,0.25,49,155.73
4556,D4,1118.0,0.5,51,155.73
4557,C4,1118.0,0.25,49,155.73
4558,F4,1118.5,0.5,56,155.73
4559,F#4,1119.0,0.5,57,155.73
4560,F2,1119.0,0.25,63,155.73
4561,D3,1119.25,0.25,56,155.73
4562,A4,1119.5,0.5,58,155.73
4563,F3,1119.5,0.25,56,155.73
4564,C5,1120.0,0.5,60,155.73
4565,E-5,1120.5,0.5,61,155.73
4566,F2,1120.5,0.25,70,155.73
4567,C3,1120.75,0.25,61,155.73
4568,F#5,1121.0,0.5,63,155.73
4569,F3,1121.0,0.25,61,155.73
4570,A5,1121.5,0.5,64,155.73
4571,C6,1122.0,0.5,66,155.73
4572,B-1,1122.0,2.0,72,155.73
4573,A5,1122.5,0.5,64,155.73
4574,F#5,1123.0,0.5,62,155.73
4575,E-5,1123.5,0.5,60,155.73
4576,D5,1124.0,0.5,58,155.73
4577,D2,1124.0,0.5,42,155.73
4578,F#4,1124.5,0.5,57,155.73
4579,F2,1124.5,0.5,44,155.73
4580,A4,1125.0,0.5,55,155.73
4581,B-2,1125.0,3.0,46,155.73
4582,G4,1125.5,0.5,45,155.73
4583,D3,1125.5,0.5,48,155.73
4584,C#5,1126.0,0.5,45,155.73
4585,F3,1126.0,0.5,50,155.73
4586,D5,1126.5,0.5,50,155.73
4587,B-3,1126.5,0.5,52,155.73
4588,F#5,1127.0,0.5,47,155.73
4589,G5,1127.5,0.5,47,155.73
4590,C#6,1128.0,0.5,52,155.73
4591,E-3,1128.0,3.0,45,155.73
4592,A2,1128.0,3.0,45,155.73
4593,C3,1128.0,3.0,45,155.73
4594,D6,1128.5,0.5,45,155.73
4595,A5,1129.0,0.5,41,155.73
4596,B-5,1129.5,0.5,49,155.73
4597,F#5,1130.0,0.5,43,155.73
4598,G5,1130.5,0.5,43,155.73
4599,F5,1131.5,0.5,39,155.73
4600,E5,1132.0,0.5,35,155.73
4601,E5,1133.0,0.5,35,155.73
4602,C#6,1133.5,0.5,41,155.73
4603,F#3,1134.0,3.0,45,155.73
4604,A2,1134.0,3.0,45,155.73
4605,C3,1134.0,3.0,45,155.73
4606,C#6,1134.5,0.5,41,155.73
4607,C6,1135.0,0.5,43,155.73
4608,C6,1136.0,0.5,43,155.73
4609,E5,1136.5,0.5,41,155.73
4610,G3,1137.0,3.0,45,155.73
4611,D3,1137.0,3.0,45,155.73
4612,B-2,1137.0,3.0,45,155.73
4613,E5,1137.5,0.5,56,155.73
4614,F5,1138.0,0.5,53,155.73
4615,C6,1138.5,0.5,63,155.73
4616,G5,1139.0,0.5,56,155.73
4617,B-5,1139.5,0.5,56,155.73
4618,G#5,1140.0,0.5,63,155.73
4619,E5,1140.5,0.5,56,155.73
4620,G5,1141.0,0.5,56,155.73
4621,F5,1141.5,0.5,60,155.73
4622,E-5,1142.0,0.5,52,155.73
4623,C#5,1142.5,0.5,52,155.73
4624,C5,1143.0,1.5,51,155.73
4625,G3,1143.0,3.0,45,155.73
4626,D3,1143.0,3.0,45,155.73
4627,B-2,1143.0,3.0,45,155.73
4628,B4,1144.5,1.5,45,155.73
4629,F5,1146.0,1.5,50,155.73
4630,C#4,1146.0,1.0,30,155.73
4631,B-3,1146.0,1.0,30,155.73
4632,B4,1147.5,1.5,45,155.73
4633,C#4,1147.5,1.0,30,155.73
4634,B-3,1147.5,1.0,30,155.73
4635,B-3,1149.0,1.0,30,155.73
4636,C4,1149.0,1.0,30,155.73
4637,E4,1149.5,0.5,59,155.73
4638,C5,1149.5,0.5,59,155.73
4639,G4,1149.5,0.5,59,155.73
4640,B4,1150.0,0.25,64,155.73
4641,F4,1150.0,0.25,64,155.73
4642,D5,1150.0,0.25,64,155.73
4643,C4,1150.5,1.0,30,155.73
4644,B-3,1150.5,1.0,30,155.73
4645,D5,1151.0,0.5,59,155.73
4646,F4,1151.0,0.5,59,155.73
4647,B4,1151.0,0.5,59,155.73
4648,B-4,1151.5,0.25,65,155.73
4649,G4,1151.5,0.25,65,155.73
4650,E5,1151.5,0.25,65,155.73
4651,G#2,1152.0,3.0,55,155.73
4652,G#3,1152.0,3.0,55,155.73
4653,G4,1152.5,0.5,59,155.73
4654,E5,1152.5,0.5,59,155.73
4655,B-4,1152.5,0.5,59,155.73
4656,C5,1153.0,0.25,64,155.73
4657,A4,1153.0,0.25,64,155.73
4658,F5,1153.0,0.25,64,155.73
4659,F#5,1154.0,0.5,59,155.73
4660,C5,1154.0,0.5,59,155.73
4661,A4,1154.0,0.5,59,155.73
4662,G5,1154.5,0.25,63,155.73
4663,E5,1154.5,0.25,63,155.73
4664,B-4,1154.5,0.25,63,155.73
4665,E5,1155.5,0.5,59,155.73
4666,B-4,1155.5,0.5,59,155.73
4667,G5,1155.5,0.5,59,155.73
4668,A5,1156.0,0.25,64,155.73
4669,C5,1156.0,0.25,64,155.73
4670,F5,1156.0,0.25,64,155.73
4671,F#5,1157.0,0.5,59,155.73
4672,C5,1157.0,0.5,59,155.73
4673,A5,1157.0,0.5,59,155.73
4674,E5,1157.5,0.25,62,155.73
4675,B-5,1157.5,0.25,62,155.73
4676,G5,1157.5,0.25,62,155.73
4677,B-5,1158.0,3.0,86,155.73
4678,G5,1158.0,3.0,71,155.73
4679,E5,1158.0,3.0,71,155.73
4680,G#2,1158.0,3.0,55,155.73
4681,G#3,1158.0,3.0,55,155.73
4682,B-5,1161.0,0.25,86,155.73
4683,D4,1161.0,3.0,45,155.73
4684,C6,1161.25,11/40,63,155.73
4685,D6,1161.5,11/40,66,155.73
4686,E4,1161.5,0.5,41,155.73
4687,C6,1161.75,11/40,65,155.73
4688,B-5,1162.0,11/40,63,155.73
4689,F4,1162.0,0.5,41,155.73
4690,A5,1162.25,11/40,62,155.73
4691,G5,1162.5,11/40,62,155.73
4692,G#4,1162.5,0.5,45,155.73
4693,A5,1162.75,11/40,64,155.73
4694,B-5,1163.0,11/40,67,155.73
4695,E4,1163.0,0.5,41,155.73
4696,A5,1163.25,11/40,66,155.73
4697,G5,1163.5,11/40,64,155.73
4698,F4,1163.5,0.5,41,155.73
4699,F5,1163.75,0.25,62,155.73
4700,E5,1164.0,11/40,63,155.73
4701,F5,1164.0,1/40,62,155.73
4702,C#4,1164.0,3.0,45,155.73
4703,G#4,1164.0,0.5,54,155.73
4704,F5,1164.25,11/40,63,155.73
4705,G5,1164.5,11/40,64,155.73
4706,E4,1164.5,0.5,42,155.73
4707,F5,1164.75,11/40,64,155.73
4708,E5,1165.0,11/40,62,155.73
4709,F4,1165.0,0.5,42,155.73
4710,D5,1165.25,11/40,60,155.73
4711,C5,1165.5,11/40,62,155.73
4712,G#4,1165.5,0.5,52,155.73
4713,C#5,1165.75,11/40,62,155.73
4714,D5,1166.0,11/40,64,155.73
4715,G4,1166.0,0.5,47,155.73
4716,C5,1166.25,11/40,63,155.73
4717,B-4,1166.5,11/40,61,155.73
4718,F4,1166.5,0.5,52,155.73
4719,A4,1166.75,0.25,60,155.73
4720,G4,1167.0,11/40,59,155.73
4721,A4,1167.0,1/40,60,155.73
4722,C3,1167.0,1.0,54,155.73
4723,C4,1167.0,1.0,54,155.73
4724,A4,1167.25,11/40,61,155.73
4725,B-4,1167.5,11/40,64,155.73
4726,A4,1167.75,11/40,63,155.73
4727,G4,1168.0,11/40,61,155.73
4728,F4,1168.25,11/40,60,155.73
4729,E4,1168.5,11/40,60,155.73
4730,C4,1168.5,1.0,54,155.73
4731,C3,1168.5,1.0,54,155.73
4732,F4,1168.75,11/40,62,155.73
4733,G4,1169.0,11/40,63,155.73
4734,F4,1169.25,11/40,62,155.73
4735,E4,1169.5,11/40,60,155.73
4736,D4,1169.75,0.25,59,155.73
4737,C3,1170.0,1.0,53,155.73
4738,C4,1170.0,1.0,53,155.73
4739,C4,1171.5,1.0,53,155.73
4740,C3,1171.5,1.0,53,155.73
4741,C3,1173.0,1.0,53,155.73
4742,C4,1173.0,1.0,53,155.73
4743,C4,1174.5,1.0,52,155.73
4744,C3,1174.5,1.0,52,155.73
4745,C2,1176.0,0.25,72,155.73
4746,C6,1176.25,11/40,66,155.73
4747,B5,1176.5,11/40,68,155.73
4748,E2,1176.5,0.25,60,155.73
4749,C6,1176.75,11/40,69,155.73
4750,F6,1177.0,11/40,70,155.73
4751,G2,1177.0,0.25,60,155.73
4752,C6,1177.25,11/40,63,155.73
4753,B-5,1177.5,11/40,70,155.73
4754,C3,1177.5,0.25,69,155.73
4755,A5,1177.75,11/40,66,155.73
4756,G#5,1178.0,11/40,64,155.73
4757,E3,1178.0,0.25,60,155.73
4758,A5,1178.25,11/40,64,155.73
4759,C6,1178.5,11/40,70,155.73
4760,G3,1178.5,0.25,60,155.73
4761,A5,1178.75,0.25,64,155.73
4762,G5,1179.0,11/40,70,155.73
4763,A5,1179.0,1/40,64,155.73
4764,C4,1179.0,0.5,69,155.73
4765,F5,1179.25,11/40,64,155.73
4766,E5,1179.5,11/40,64,155.73
4767,F5,1179.75,11/40,64,155.73
4768,A5,1180.0,11/40,70,155.73
4769,F5,1180.25,11/40,65,155.73
4770,D5,1180.5,11/40,70,155.73
4771,C5,1180.75,11/40,65,155.73
4772,B4,1181.0,11/40,65,155.73
4773,C5,1181.25,11/40,65,155.73
4774,F5,1181.5,11/40,70,155.73
4775,C5,1181.75,0.25,65,155.73
4776,B-4,1182.0,11/40,70,155.73
4777,C5,1182.0,1/40,65,155.73
4778,A4,1182.25,11/40,66,155.73
4779,G#4,1182.5,11/40,66,155.73
4780,A4,1182.75,11/40,66,155.73
4781,C5,1183.0,11/40,70,155.73
4782,A4,1183.25,11/40,64,155.73
4783,F4,1183.5,0.25,70,155.73
4784,F5,1183.75,0.25,64,155.73
4785,E4,1184.0,0.25,70,155.73
4786,F5,1184.25,0.25,64,155.73
4787,F4,1184.5,0.25,70,155.73
4788,F5,1184.75,0.25,64,155.73
4789,G4,1185.0,0.25,70,155.73
4790,F5,1185.25,0.25,64,155.73
4791,F4,1185.5,0.25,65,155.73
4792,F5,1185.75,0.25,58,155.73
4793,G4,1186.0,0.25,67,155.73
4794,F5,1186.25,0.25,61,155.73
4795,A4,1186.5,0.25,70,155.73
4796,F5,1186.75,0.25,60,155.73
4797,G4,1187.0,0.25,66,155.73
4798,F5,1187.25,0.25,62,155.73
4799,A4,1187.5,0.25,67,155.73
4800,F5,1187.75,0.25,62,155.73
4801,B-4,1188.0,0.25,74,155.73
4802,C4,1188.0,11/40,59,155.73
4803,F5,1188.25,0.25,61,155.73
4804,C#4,1188.25,11/40,60,155.73
4805,B-4,1188.5,0.25,65,155.73
4806,D4,1188.5,11/40,62,155.73
4807,F5,1188.75,0.25,61,155.73
4808,C4,1188.75,11/40,63,155.73
4809,A4,1189.0,0.25,65,155.73
4810,B-3,1189.0,11/40,62,155.73
4811,F5,1189.25,0.25,60,155.73
4812,A3,1189.25,11/40,60,155.73
4813,B-4,1189.5,0.25,70,155.73
4814,G3,1189.5,11/40,59,155.73
4815,F5,1189.75,0.25,60,155.73
4816,A3,1189.75,11/40,61,155.73
4817,B-4,1190.0,0.25,65,155.73
4818,B-3,1190.0,11/40,62,155.73
4819,F5,1190.25,0.25,60,155.73
4820,A3,1190.25,11/40,61,155.73
4821,A4,1190.5,0.25,65,155.73
4822,G3,1190.5,11/40,59,155.73
4823,F5,1190.75,0.25,54,155.73
4824,F3,1190.75,0.25,57,155.73
4825,G#4,1191.0,0.25,49,155.73
4826,E3,1191.0,11/40,58,155.73
4827,F3,1191.0,1/40,57,155.73
4828,F5,1191.25,0.25,41,155.73
4829,F3,1191.25,11/40,60,155.73
4830,G#4,1191.5,0.25,49,155.73
4831,G3,1191.5,11/40,62,155.73
4832,F5,1191.75,0.25,42,155.73
4833,F3,1191.75,11/40,61,155.73
4834,G#4,1192.0,0.25,49,155.73
4835,E3,1192.0,11/40,61,155.73
4836,F5,1192.25,0.25,40,155.73
4837,D3,1192.25,11/40,60,155.73
4838,C3,1192.5,11/40,59,155.73
4839,G4,1192.5,0.5,48,155.73
4840,E5,1192.5,0.5,48,155.73
4841,D3,1192.75,11/40,60,155.73
4842,C3,1193.0,11/40,61,155.73
4843,B-2,1193.25,11/40,61,155.73
4844,A2,1193.5,11/40,60,155.73
4845,G2,1193.75,0.25,58,155.73
4846,F3,1194.0,1.0,62,155.73
4847,A2,1194.0,1.0,62,155.73
4848,C3,1194.0,1.0,62,155.73
4849,F2,1194.0,1.0,62,155.73
4850,C6,1194.25,11/40,66,155.73
4851,B5,1194.5,11/40,68,155.73
4852,C6,1194.75,11/40,69,155.73
4853,F6,1195.0,11/40,70,155.73
4854,C6,1195.25,11/40,63,155.73
4855,B-5,1195.5,11/40,70,155.73
4856,A5,1195.75,11/40,66,155.73
4857,G#5,1196.0,11/40,64,155.73
4858,A5,1196.25,11/40,64,155.73
4859,C6,1196.5,11/40,70,155.73
4860,A5,1196.75,0.25,64,155.73
4861,G5,1197.0,11/40,70,155.73
4862,A5,1197.0,1/40,64,155.73
4863,F5,1197.25,11/40,64,155.73
4864,E5,1197.5,11/40,64,155.73
4865,F5,1197.75,11/40,64,155.73
4866,A5,1198.0,11/40,70,155.73
4867,F5,1198.25,11/40,65,155.73
4868,D5,1198.5,11/40,70,155.73
4869,C5,1198.75,11/40,65,155.73
4870,B4,1199.0,11/40,65,155.73
4871,C5,1199.25,11/40,65,155.73
4872,F5,1199.5,11/40,70,155.73
4873,C5,1199.75,0.25,65,155.73
4874,B-4,1200.0,11/40,70,155.73
4875,C5,1200.0,1/40,65,155.73
4876,A4,1200.25,11/40,66,155.73
4877,G#4,1200.5,11/40,66,155.73
4878,A4,1200.75,11/40,66,155.73
4879,C5,1201.0,11/40,70,155.73
4880,A4,1201.25,11/40,64,155.73
4881,F4,1201.5,0.25,70,155.73
4882,A3,1201.5,0.25,70,155.73
4883,F5,1201.75,0.25,64,155.73
4884,E4,1202.0,0.25,70,155.73
4885,G3,1202.0,0.25,66,155.73
4886,F5,1202.25,0.25,64,155.73
4887,F4,1202.5,0.25,70,155.73
4888,A3,1202.5,0.25,66,155.73
4889,F5,1202.75,0.25,64,155.73
4890,G4,1203.0,0.25,70,155.73
4891,B-3,1203.0,0.25,70,155.73
4892,F5,1203.25,0.25,64,155.73
4893,F4,1203.5,0.25,65,155.73
4894,A3,1203.5,0.25,67,155.73
4895,F5,1203.75,0.25,58,155.73
4896,G4,1204.0,0.25,67,155.73
4897,B-3,1204.0,0.25,67,155.73
4898,F5,1204.25,0.25,61,155.73
4899,A4,1204.5,0.25,70,155.73
4900,C4,1204.5,0.25,70,155.73
4901,F5,1204.75,0.25,60,155.73
4902,G4,1205.0,0.25,66,155.73
4903,B-3,1205.0,0.25,67,155.73
4904,F5,1205.25,0.25,62,155.73
4905,A4,1205.5,0.25,67,155.73
4906,C4,1205.5,0.25,67,155.73
4907,F5,1205.75,0.25,62,155.73
4908,B-4,1206.0,0.25,74,155.73
4909,C#4,1206.0,1.0,74,155.73
4910,F5,1206.25,0.25,61,155.73
4911,B-4,1206.5,0.25,65,155.73
4912,F5,1206.75,0.25,61,155.73
4913,A4,1207.0,0.25,65,155.73
4914,C4,1207.0,0.25,67,155.73
4915,F5,1207.25,0.25,60,155.73
4916,B-4,1207.5,0.25,70,155.73
4917,C#4,1207.5,1.0,74,155.73
4918,F5,1207.75,0.25,60,155.73
4919,B-4,1208.0,0.25,65,155.73
4920,F5,1208.25,0.25,60,155.73
4921,A4,1208.5,0.25,65,155.73
4922,C4,1208.5,0.25,66,155.73
4923,F5,1208.75,0.25,46,155.73
4924,G#4,1209.0,0.25,44,155.73
4925,B3,1209.0,0.25,47,155.73
4926,F5,1209.25,0.25,36,155.73
4927,B3,1209.5,0.25,47,155.73
4928,B3,1210.0,0.25,47,155.73
4929,G4,1210.5,0.25,42,155.73
4930,C4,1210.5,0.5,50,155.73
4931,E5,1210.75,0.25,34,155.73
4932,F#4,1212.0,0.25,43,155.73
4933,A2,1212.0,1.0,62,155.73
4934,C3,1212.0,1.0,62,155.73
4935,F3,1212.0,1.0,62,155.73
4936,F2,1212.0,1.0,62,155.73
4937,E-5,1212.25,0.25,36,155.73
4938,D4,1214.0,0.25,58,155.73
4939,G4,1214.25,0.25,59,155.73
4940,B-4,1214.5,0.25,60,155.73
4941,D5,1214.75,0.25,61,155.73
4942,C5,1215.0,11/40,62,155.73
4943,B-4,1215.25,11/40,62,155.73
4944,A4,1215.5,11/40,60,155.73
4945,G4,1215.75,11/40,59,155.73
4946,F4,1216.0,11/40,57,155.73
4947,E4,1216.25,11/40,55,155.73
4948,F4,1216.5,0.25,58,155.73
4949,C4,1217.0,0.5,49,155.73
4950,C4,1217.5,0.375,49,155.73
4951,E4,1217.875,0.125,41,155.73
4952,B-4,1218.0,2.0,49,155.73
4953,A3,1219.5,0.25,70,155.73
4954,A4,1220.0,0.25,43,155.73
4955,G3,1220.0,0.25,66,155.73
4956,G4,1220.5,0.25,43,155.73
4957,A3,1220.5,0.25,66,155.73
4958,G4,1221.0,0.5,49,155.73
4959,B-3,1221.0,0.25,70,155.73
4960,F4,1221.5,1.0,45,155.73
4961,A3,1221.5,0.25,67,155.73
4962,B-3,1222.0,0.25,67,155.73
4963,F4,1222.5,1.375,45,155.73
4964,C4,1222.5,0.25,70,155.73
4965,B-3,1223.0,0.25,67,155.73
4966,C4,1223.5,0.25,67,155.73
4967,E4,1223.875,0.125,41,155.73
4968,B-4,1224.0,2.0,49,155.73
4969,C#4,1224.0,1.0,74,155.73
4970,C4,1225.0,0.25,67,155.73
4971,C#4,1225.5,1.0,74,155.73
4972,A4,1226.0,0.25,43,155.73
4973,G4,1226.5,0.25,43,155.73
4974,C4,1226.5,0.25,66,155.73
4975,B4,1227.0,1.5,51,155.73
4976,B3,1227.0,0.25,36,155.73
4977,C5,1228.5,0.5,45,155.73
4978,B-3,1228.5,0.25,36,155.73
4979,E4,1229.875,0.125,41,155.73
4980,B-4,1230.0,2.0,49,155.73
4981,A3,1230.0,0.25,35,155.73
4982,B-2,1231.5,0.25,58,155.73
4983,B-3,1231.75,0.25,61,155.73
4984,A4,1232.0,0.25,43,155.73
4985,G4,1232.5,0.25,43,155.73
4986,F4,1233.0,1.0,54,155.73
4987,E3,1233.0,1.5,49,155.73
4988,B-3,1233.0,1.5,49,155.73
4989,C3,1233.0,1.5,49,155.73
4990,A4,1234.0,1.5,60,155.73
4991,F3,1234.5,0.5,46,155.73
4992,A3,1234.5,0.5,46,155.73
4993,C5,1235.5,0.5,60,155.73
4994,C5,1236.0,1.0,60,155.73
4995,C3,1236.0,0.5,41,155.73
4996,C4,1236.5,0.25,28,155.73
4997,B-3,1236.5,0.25,28,155.73
4998,B-4,1237.0,1.5,58,155.73
4999,C4,1237.0,0.25,28,155.73
5000,B-3,1237.0,0.25,28,155.73
5001,C4,1237.5,0.25,28,155.73
5002,B-3,1237.5,0.25,28,155.73
5003,C4,1238.0,0.25,28,155.73
5004,B-3,1238.0,0.25,28,155.73
5005,G4,1238.5,0.5,50,155.73
5006,C4,1238.5,0.25,28,155.73
5007,B-3,1238.5,0.25,28,155.73
5008,F4,1239.0,0.5,56,155.73
5009,F3,1239.0,0.5,41,155.73
5010,A3,1239.5,0.25,28,155.73
5011,C4,1239.5,0.25,28,155.73
5012,A3,1240.0,0.25,28,155.73
5013,C4,1240.0,0.25,28,155.73
5014,C#5,1240.5,1.5,76,155.73
5015,C#6,1240.5,1.5,76,155.73
5016,C4,1240.5,0.25,28,155.73
5017,A3,1240.5,0.25,28,155.73
5018,C4,1241.0,0.25,28,155.73
5019,A3,1241.0,0.25,28,155.73
5020,C4,1241.5,0.25,28,155.73
5021,A3,1241.5,0.25,28,155.73
5022,C3,1242.0,0.5,41,155.73
5023,D5,1242.0,1.5,81,155.73
5024,D6,1242.0,1.5,81,155.73
5025,G3,1242.5,0.25,28,155.73
5026,C4,1242.5,0.25,28,155.73
5027,G3,1243.0,0.25,28,155.73
5028,C4,1243.0,0.25,28,155.73
5029,C6,1243.5,1.5,78,155.73
5030,D5,1243.5,1.5,78,155.73
5031,G3,1243.5,0.25,28,155.73
5032,C4,1243.5,0.25,28,155.73
5033,G3,1244.0,0.25,28,155.73
5034,C4,1244.0,0.25,28,155.73
5035,G3,1244.5,0.25,28,155.73
5036,C4,1244.5,0.25,28,155.73
5037,F3,1245.0,0.5,41,155.73
5038,D5,1245.0,1.5,78,155.73
5039,B-5,1245.0,1.5,78,155.73
5040,A3,1245.5,0.25,28,155.73
5041,C4,1245.5,0.25,28,155.73
5042,A3,1246.0,0.25,28,155.73
5043,C4,1246.0,0.25,28,155.73
5044,D5,1246.5,1.5,70,155.73
5045,A5,1246.5,1.5,70,155.73
5046,A3,1246.5,0.25,28,155.73
5047,C4,1246.5,0.25,28,155.73
5048,A3,1247.0,0.25,28,155.73
5049,C4,1247.0,0.25,28,155.73
5050,A3,1247.5,0.25,28,155.73
5051,C4,1247.5,0.25,28,155.73
5052,C3,1248.0,0.5,41,155.73
5053,G5,1248.0,1.5,73,155.73
5054,D5,1248.0,1.5,73,155.73
5055,C4,1248.5,0.25,28,155.73
5056,B-3,1248.5,0.25,28,155.73
5057,C4,1249.0,0.25,28,155.73
5058,B-3,1249.0,0.25,28,155.73
5059,C5,1249.5,1.5,69,155.73
5060,F#5,1249.5,1.5,69,155.73
5061,D5,1249.5,1.5,69,155.73
5062,C4,1249.5,0.25,28,155.73
5063,B-3,1249.5,0.25,28,155.73
5064,C4,1250.0,0.25,28,155.73
5065,B-3,1250.0,0.25,28,155.73
5066,B-3,1250.5,0.25,28,155.73
5067,C4,1250.5,0.25,28,155.73
5068,G5,1251.0,0.25,65,155.73
5069,F3,1251.0,0.5,41,155.73
5070,D5,1251.25,0.25,54,155.73
5071,B-4,1251.5,0.25,54,155.73
5072,A3,1251.5,0.25,28,155.73
5073,C4,1251.5,0.25,28,155.73
5074,D5,1251.75,0.25,54,155.73
5075,G5,1252.0,0.25,65,155.73
5076,A3,1252.0,0.25,28,155.73
5077,C4,1252.0,0.25,28,155.73
5078,D5,1252.25,0.25,54,155.73
5079,A5,1252.5,0.25,65,155.73
5080,C4,1252.5,0.25,28,155.73
5081,A3,1252.5,0.25,28,155.73
5082,D5,1252.75,0.25,54,155.73
5083,C5,1253.0,0.25,54,155.73
5084,C4,1253.0,0.25,28,155.73
5085,A3,1253.0,0.25,28,155.73
5086,D5,1253.25,0.25,54,155.73
5087,A5,1253.5,0.25,65,155.73
5088,C4,1253.5,0.25,28,155.73
5089,A3,1253.5,0.25,28,155.73
5090,D5,1253.75,0.25,55,155.73
5091,B-5,1254.0,0.25,65,155.73
5092,C3,1254.0,0.5,41,155.73
5093,G5,1254.25,0.25,55,155.73
5094,D5,1254.5,0.25,55,155.73
5095,G3,1254.5,0.25,28,155.73
5096,C4,1254.5,0.25,28,155.73
5097,G5,1254.75,0.25,55,155.73
5098,B-5,1255.0,0.25,65,155.73
5099,C4,1255.0,0.25,28,155.73
5100,G3,1255.0,0.25,28,155.73
5101,G5,1255.25,0.25,55,155.73
5102,B5,1255.5,0.25,65,155.73
5103,B-3,1255.5,0.25,28,155.73
5104,C4,1255.5,0.25,28,155.73
5105,G5,1255.75,0.25,55,155.73
5106,D5,1256.0,0.25,55,155.73
5107,C4,1256.0,0.25,28,155.73
5108,B-3,1256.0,0.25,28,155.73
5109,G5,1256.25,0.25,55,155.73
5110,B5,1256.5,0.25,65,155.73
5111,B-3,1256.5,0.25,28,155.73
5112,C4,1256.5,0.25,28,155.73
5113,G5,1256.75,0.25,56,155.73
5114,C6,1257.0,1.0,65,155.73
5115,C4,1257.0,0.5,35,155.73
5116,F3,1257.0,0.5,35,155.73
5117,A3,1257.0,0.5,35,155.73
5118,D6,1258.0,0.25,59,155.73
5119,C6,1258.25,0.25,59,155.73
5120,B-5,1258.5,1.0,65,155.73
5121,E-3,1258.5,1.5,55,155.73
5122,G3,1258.5,1.5,55,155.73
5123,C#4,1258.5,1.5,55,155.73
5124,C6,1259.5,0.25,57,155.73
5125,B-5,1259.75,0.25,57,155.73
5126,A5,1260.0,1.0,65,155.73
5127,D4,1260.0,1.5,61,155.73
5128,F#3,1260.0,1.5,61,155.73
5129,D3,1260.0,1.5,61,155.73
5130,B-5,1261.0,0.25,57,155.73
5131,A5,1261.25,0.25,57,155.73
5132,G5,1261.5,1.0,65,155.73
5133,A5,1262.5,0.25,59,155.73
5134,G5,1262.75,0.25,59,155.73
5135,F5,1263.0,1.0,65,155.73
5136,D3,1263.0,1.5,68,155.73
5137,D4,1263.0,1.5,68,155.73
5138,G5,1264.0,0.25,59,155.73
5139,F5,1264.25,0.25,59,155.73
5140,E5,1264.5,1.0,65,155.73
5141,C3,1264.5,1.5,68,155.73
5142,C4,1264.5,1.5,68,155.73
5143,F5,1265.5,0.25,56,155.73
5144,E5,1265.75,0.25,56,155.73
5145,G5,1266.0,11/40,62,155.73
5146,B-2,1266.0,1.5,68,155.73
5147,B-3,1266.0,1.5,68,155.73
5148,F5,1266.25,11/40,54,155.73
5149,E5,1266.5,11/40,54,155.73
5150,F5,1266.75,11/40,54,155.73
5151,E5,1267.0,11/40,53,155.73
5152,F5,1267.25,11/40,55,155.73
5153,A5,1267.5,11/40,59,155.73
5154,A2,1267.5,1.5,68,155.73
5155,A3,1267.5,1.5,68,155.73
5156,G5,1267.75,11/40,55,155.73
5157,F#5,1268.0,11/40,55,155.73
5158,G5,1268.25,11/40,55,155.73
5159,F#5,1268.5,11/40,55,155.73
5160,G5,1268.75,0.25,55,155.73
5161,A5,1269.0,11/40,59,155.73
5162,G5,1269.0,1/40,55,155.73
5163,G3,1269.0,0.5,59,155.73
5164,G5,1269.25,11/40,54,155.73
5165,F5,1269.5,11/40,54,155.73
5166,B-3,1269.5,0.5,54,155.73
5167,G5,1269.75,11/40,54,155.73
5168,A5,1270.0,11/40,54,155.73
5169,D4,1270.0,0.5,54,155.73
5170,B-5,1270.25,11/40,54,155.73
5171,C6,1270.5,11/40,59,155.73
5172,F#3,1270.5,0.5,59,155.73
5173,B-5,1270.75,11/40,55,155.73
5174,A5,1271.0,11/40,55,155.73
5175,A3,1271.0,0.5,54,155.73
5176,B-5,1271.25,11/40,55,155.73
5177,C6,1271.5,11/40,55,155.73
5178,D4,1271.5,0.5,54,155.73
5179,C#6,1271.75,0.25,55,155.73
5180,D6,1272.0,0.25,59,155.73
5181,C#6,1272.0,1/40,55,155.73
5182,G3,1272.0,0.5,59,155.73
5183,D5,1272.25,11/40,55,155.73
5184,D6,1272.5,11/40,55,155.73
5185,B-3,1272.5,0.5,54,155.73
5186,C6,1272.75,11/40,55,155.73
5187,B-5,1273.0,11/40,55,155.73
5188,D4,1273.0,0.5,54,155.73
5189,A5,1273.25,11/40,54,155.73
5190,G5,1273.5,0.25,59,155.73
5191,F3,1273.5,0.5,59,155.73
5192,F#5,1273.75,11/40,54,155.73
5193,G5,1274.0,11/40,63,155.73
5194,B3,1274.0,0.5,53,155.73
5195,A5,1274.25,11/40,62,155.73
5196,B-5,1274.5,11/40,60,155.73
5197,D4,1274.5,0.5,53,155.73
5198,B5,1274.75,0.25,59,155.73
5199,C6,1275.0,0.25,59,155.73
5200,B5,1275.0,1/40,59,155.73
5201,E3,1275.0,1.0,58,155.73
5202,C5,1275.25,0.25,60,155.73
5203,C6,1275.5,0.25,60,155.73
5204,B-5,1275.75,0.25,60,155.73
5205,A5,1276.0,0.25,60,155.73
5206,G5,1276.25,0.25,59,155.73
5207,F5,1276.5,0.25,59,155.73
5208,E5,1276.75,11/40,56,155.73
5209,F5,1277.0,11/40,63,155.73
5210,G5,1277.25,11/40,62,155.73
5211,G#5,1277.5,11/40,60,155.73
5212,A5,1277.75,0.25,59,155.73
5213,B-5,1278.0,0.25,59,155.73
5214,C5,1278.0,1.5,54,155.73
5215,C6,1278.25,0.25,60,155.73
5216,B-5,1278.5,0.25,60,155.73
5217,A5,1278.75,0.25,60,155.73
5218,G5,1279.0,0.25,60,155.73
5219,F5,1279.25,0.25,59,155.73
5220,E5,1279.5,0.25,59,155.73
5221,B-4,1279.5,1.5,48,155.73
5222,C5,1279.5,1.5,48,155.73
5223,F5,1279.75,11/40,56,155.73
5224,E5,1280.0,11/40,63,155.73
5225,D5,1280.25,11/40,62,155.73
5226,C5,1280.5,11/40,60,155.73
5227,B-4,1280.75,0.25,59,155.73
5228,A4,1281.0,0.25,56,155.73
5229,B-4,1281.0,1/40,59,155.73
5230,C5,1281.0,1.5,44,155.73
5231,A4,1281.0,1.5,44,155.73
5232,C5,1281.25,0.25,61,155.73
5233,F5,1281.5,0.25,68,155.73
5234,G5,1281.75,0.25,62,155.73
5235,F5,1282.0,0.25,63,155.73
5236,E5,1282.25,0.25,63,155.73
5237,D5,1282.5,0.25,60,155.73
5238,B-4,1282.5,1.5,41,155.73
5239,C5,1282.5,1.5,41,155.73
5240,G4,1282.5,1.5,41,155.73
5241,C5,1282.75,11/40,53,155.73
5242,B-4,1283.0,11/40,59,155.73
5243,A4,1283.25,11/40,54,155.73
5244,G4,1283.5,11/40,54,155.73
5245,F4,1283.75,0.25,54,155.73
5246,E4,1284.0,0.25,59,155.73
5247,F4,1284.0,1/40,54,155.73
5248,F4,1284.0,0.25,44,155.73
5249,F4,1284.25,11/40,58,155.73
5250,G4,1284.5,11/40,62,155.73
5251,A4,1284.5,0.25,37,155.73
5252,F4,1284.75,11/40,61,155.73
5253,E4,1285.0,11/40,60,155.73
5254,C5,1285.0,0.25,37,155.73
5255,D4,1285.25,11/40,59,155.73
5256,C4,1285.5,11/40,57,155.73
5257,E4,1285.5,0.25,43,155.73
5258,G4,1286.0,0.25,37,155.73
5259,C5,1286.5,0.25,37,155.73
5260,G#4,1287.0,2.0,49,155.73
5261,A4,1287.0,0.5,46,155.73
5262,C5,1287.0,0.5,46,155.73
5263,F4,1287.0,0.5,46,155.73
5264,G4,1289.0,0.25,43,155.73
5265,F4,1289.5,0.25,43,155.73
5266,B4,1290.0,1.0,49,155.73
5267,B-2,1290.0,0.25,49,155.73
5268,B-3,1290.5,0.25,40,155.73
5269,C5,1291.0,0.5,43,155.73
5270,G4,1291.5,1.0,43,155.73
5271,E3,1291.5,0.25,48,155.73
5272,E4,1292.0,0.25,43,155.73
5273,C#5,1293.0,2.0,58,155.73
5274,A2,1293.0,0.25,50,155.73
5275,A3,1293.5,0.25,43,155.73
5276,D3,1294.5,0.25,47,155.73
5277,C5,1295.0,0.25,49,155.73
5278,D4,1295.0,0.25,40,155.73
5279,B-4,1295.5,0.25,49,155.73
5280,G#4,1296.0,0.5,60,155.73
5281,G2,1296.0,0.25,45,155.73
5282,B-4,1296.5,167/1000,42,155.73
5283,A2,1296.5,0.25,47,155.73
5284,G#4,1296.667,167/1000,42,155.73
5285,G4,1296.833,167/1000,42,155.73
5286,G#4,1297.0,0.25,51,155.73
5287,B-2,1297.0,0.25,49,155.73
5288,B-4,1297.25,0.25,44,155.73
5289,C5,1297.5,1.0,51,155.73
5290,C3,1297.5,0.25,51,155.73
5291,D3,1298.0,0.25,53,155.73
5292,E3,1298.5,0.25,55,155.73
5293,F5,1299.0,1.5,66,155.73
5294,F3,1299.0,0.25,57,155.73
5295,A2,1300.0,0.25,49,155.73
5296,E-5,1300.5,1.0,54,155.73
5297,B-2,1300.5,0.25,59,155.73
5298,F5,1301.5,0.5,50,155.73
5299,B2,1301.5,0.25,50,155.73
5300,E-5,1302.0,1.0,57,155.73
5301,C3,1302.0,0.25,56,155.73
5302,C#5,1303.0,0.5,52,155.73
5303,C5,1303.5,1.5,55,155.73
5304,D4,1303.75,11/40,57,155.73
5305,C4,1304.0,11/40,56,155.73
5306,B-3,1304.25,11/40,55,155.73
5307,A3,1304.5,11/40,52,155.73
5308,G3,1304.75,0.25,51,155.73
5309,B-4,1305.0,1.0,59,155.73
5310,F3,1305.0,0.5,41,155.73
5311,G#3,1305.5,0.5,31,155.73
5312,G#4,1306.0,0.5,53,155.73
5313,C4,1306.0,0.5,31,155.73
5314,G4,1306.5,1.0,57,155.73
5315,F3,1306.5,0.5,37,155.73
5316,G#3,1307.0,0.5,31,155.73
5317,F4,1307.5,0.5,47,155.73
5318,C4,1307.5,0.5,31,155.73
5319,G#4,1308.0,1.5,53,155.73
5320,E3,1308.0,0.5,41,155.73
5321,G3,1308.5,0.5,31,155.73
5322,C4,1309.0,0.5,31,155.73
5323,G4,1309.5,0.5,45,155.73
5324,E3,1309.5,0.5,36,155.73
5325,G3,1310.0,0.5,31,155.73
5326,C4,1310.5,0.5,31,155.73
5327,E3,1311.0,0.5,41,155.73
5328,G#5,1311.0,2.0,45,155.73
5329,G#4,1311.0,2.0,45,155.73
5330,G3,1311.5,0.5,31,155.73
5331,B-3,1312.0,0.5,31,155.73
5332,E3,1312.5,0.5,37,155.73
5333,G3,1313.0,0.5,31,155.73
5334,G4,1313.0,0.25,40,155.73
5335,G5,1313.0,0.25,40,155.73
5336,C4,1313.5,0.5,31,155.73
5337,F5,1313.5,0.25,40,155.73
5338,F4,1313.5,0.25,40,155.73
5339,F3,1314.0,0.5,41,155.73
5340,B4,1314.0,1.0,45,155.73
5341,B5,1314.0,1.0,45,155.73
5342,G#3,1314.5,0.5,31,155.73
5343,C4,1315.0,0.5,31,155.73
5344,C6,1315.0,0.5,40,155.73
5345,C5,1315.0,0.5,40,155.73
5346,F3,1315.5,0.5,36,155.73
5347,G4,1315.5,1.0,40,155.73
5348,G5,1315.5,1.0,40,155.73
5349,G#3,1316.0,0.5,31,155.73
5350,C4,1316.5,0.5,31,155.73
5351,G#3,1317.0,0.5,47,155.73
5352,C#5,1317.0,2.0,54,155.73
5353,C#6,1317.0,2.0,54,155.73
5354,C4,1317.5,0.5,36,155.73
5355,F4,1318.0,0.5,36,155.73
5356,G3,1318.5,0.5,44,155.73
5357,B-3,1319.0,0.5,32,155.73
5358,C5,1319.0,0.25,45,155.73
5359,C6,1319.0,0.25,45,155.73
5360,E-4,1319.5,0.5,33,155.73
5361,B-5,1319.5,0.25,45,155.73
5362,B-4,1319.5,0.25,45,155.73
5363,F3,1320.0,0.5,48,155.73
5364,A5,1320.0,1.0,56,155.73
5365,A4,1320.0,1.0,56,155.73
5366,G#3,1320.5,0.5,36,155.73
5367,C#4,1321.0,0.5,36,155.73
5368,C6,1321.0,0.5,47,155.73
5369,C5,1321.0,0.5,47,155.73
5370,E-3,1321.5,0.5,45,155.73
5371,B-5,1321.5,1.0,47,155.73
5372,B-4,1321.5,1.0,47,155.73
5373,G3,1322.0,0.5,31,155.73
5374,C4,1322.5,0.5,31,155.73
5375,C#3,1323.0,0.5,46,155.73
5376,B5,1323.0,1.5,64,155.73
5377,B4,1323.0,1.5,64,155.73
5378,F3,1323.5,0.5,35,155.73
5379,B-3,1324.0,0.5,35,155.73
5380,C#3,1324.5,0.5,43,155.73
5381,C5,1324.5,1.5,64,155.73
5382,C6,1324.5,1.5,64,155.73
5383,F3,1325.0,0.5,36,155.73
5384,B3,1325.5,0.5,34,155.73
5385,C3,1326.0,0.5,43,155.73
5386,C#6,1326.0,1.5,62,155.73
5387,C#5,1326.0,1.5,62,155.73
5388,F3,1326.5,0.5,29,155.73
5389,C4,1327.0,0.5,30,155.73
5390,C3,1327.5,0.5,39,155.73
5391,C5,1327.5,0.5,64,155.73
5392,C6,1327.5,0.5,64,155.73
5393,E3,1328.0,0.5,27,155.73
5394,C4,1328.5,0.5,27,155.73
5395,F6,1328.75,0.25,53,155.73
5396,C5,1329.0,1.5,51,155.73
5397,F5,1329.0,1.375,64,155.73
5398,F3,1329.0,0.5,41,155.73
5399,G#3,1329.5,0.5,31,155.73
5400,C4,1330.0,0.5,31,155.73
5401,G#5,1330.375,0.125,40,155.73
5402,F3,1330.5,0.5,37,155.73
5403,E5,1330.5,1.5,51,155.73
5404,G5,1330.5,1.5,51,155.73
5405,G#3,1331.0,0.5,31,155.73
5406,C4,1331.5,0.5,31,155.73
5407,F5,1332.0,0.25,74,155.73
5408,E3,1332.0,0.5,41,155.73
5409,C5,1332.25,0.25,62,155.73
5410,B4,1332.5,0.25,62,155.73
5411,G3,1332.5,0.5,31,155.73
5412,C5,1332.75,0.25,62,155.73
5413,D5,1333.0,0.25,69,155.73
5414,C4,1333.0,0.5,31,155.73
5415,C5,1333.25,0.25,62,155.73
5416,B-4,1333.5,0.25,65,155.73
5417,E3,1333.5,0.5,36,155.73
5418,C5,1333.75,0.25,60,155.73
5419,B-4,1334.0,0.25,65,155.73
5420,G3,1334.0,0.5,31,155.73
5421,C5,1334.25,0.25,59,155.73
5422,B-4,1334.5,0.25,65,155.73
5423,C4,1334.5,0.5,31,155.73
5424,C5,1334.75,0.25,59,155.73
5425,A4,1335.0,0.25,74,155.73
5426,E3,1335.0,0.5,41,155.73
5427,C5,1335.25,0.25,62,155.73
5428,B4,1335.5,0.25,62,155.73
5429,G3,1335.5,0.5,31,155.73
5430,C5,1335.75,0.25,62,155.73
5431,F5,1336.0,0.25,74,155.73
5432,B-3,1336.0,0.5,31,155.73
5433,C5,1336.25,0.25,62,155.73
5434,B-4,1336.5,0.25,65,155.73
5435,E3,1336.5,0.5,37,155.73
5436,C5,1336.75,0.25,60,155.73
5437,B-4,1337.0,0.25,65,155.73
5438,G3,1337.0,0.5,31,155.73
5439,C5,1337.25,0.25,59,155.73
5440,B-4,1337.5,0.25,65,155.73
5441,C4,1337.5,0.5,31,155.73
5442,C5,1337.75,0.25,59,155.73
5443,A4,1338.0,0.25,74,155.73
5444,E-3,1338.008,0.5,41,155.73
5445,C6,1338.25,0.25,62,155.73
5446,B5,1338.5,0.25,62,155.73
5447,F#3,1338.5,0.5,31,155.73
5448,C6,1338.75,0.25,62,155.73
5449,D6,1339.0,0.25,72,155.73
5450,A3,1339.0,0.5,31,155.73
5451,C6,1339.25,0.25,62,155.73
5452,B-5,1339.5,0.25,65,155.73
5453,D3,1339.5,0.5,36,155.73
5454,C6,1339.75,0.25,60,155.73
5455,B-5,1340.0,0.25,65,155.73
5456,F3,1340.0,0.5,31,155.73
5457,C6,1340.25,0.25,59,155.73
5458,B-5,1340.5,0.25,65,155.73
5459,B-3,1340.5,0.5,31,155.73
5460,C6,1340.75,0.25,59,155.73
5461,A5,1341.0,0.25,74,155.73
5462,C#3,1341.0,0.5,57,155.73
5463,C6,1341.25,0.25,62,155.73
5464,B5,1341.5,0.25,62,155.73
5465,F3,1341.5,0.5,46,155.73
5466,C6,1341.75,0.25,62,155.73
5467,F6,1342.0,0.25,69,155.73
5468,G#3,1342.0,0.5,47,155.73
5469,C6,1342.25,0.25,62,155.73
5470,B-5,1342.5,0.25,65,155.73
5471,C3,1342.5,0.5,55,155.73
5472,C6,1342.75,0.25,60,155.73
5473,B-5,1343.0,0.25,65,155.73
5474,F3,1343.0,0.5,46,155.73
5475,C6,1343.25,0.25,59,155.73
5476,B-5,1343.5,0.25,65,155.73
5477,G#3,1343.5,0.5,46,155.73
5478,C6,1343.75,0.25,59,155.73
5479,A5,1344.0,0.25,74,155.73
5480,B-2,1344.0,0.5,59,155.73
5481,C6,1344.25,0.25,62,155.73
5482,F6,1344.5,0.25,71,155.73
5483,E3,1344.5,0.5,39,155.73
5484,A5,1344.75,0.25,60,155.73
5485,G5,1345.0,0.25,70,155.73
5486,G3,1345.0,0.5,39,155.73
5487,E6,1345.25,0.25,62,155.73
5488,F5,1345.5,0.25,70,155.73
5489,G#2,1345.5,0.5,45,155.73
5490,D6,1345.75,0.25,62,155.73
5491,E5,1346.0,0.25,69,155.73
5492,C3,1346.0,0.5,31,155.73
5493,C6,1346.25,0.25,60,155.73
5494,D5,1346.5,0.25,67,155.73
5495,F3,1346.5,0.5,31,155.73
5496,B-5,1346.75,0.25,58,155.73
5497,C5,1347.0,0.25,69,155.73
5498,C3,1347.0,0.5,45,155.73
5499,A5,1347.25,0.25,62,155.73
5500,B-4,1347.5,0.25,67,155.73
5501,F3,1347.5,0.5,30,155.73
5502,G5,1347.75,0.25,59,155.73
5503,A4,1348.0,0.25,66,155.73
5504,G#3,1348.0,0.5,30,155.73
5505,F5,1348.25,0.25,56,155.73
5506,G4,1348.5,0.25,62,155.73
5507,C3,1348.5,0.5,38,155.73
5508,E5,1348.75,0.25,54,155.73
5509,F4,1349.0,0.25,63,155.73
5510,G3,1349.0,0.5,31,155.73
5511,D5,1349.25,0.25,55,155.73
5512,E4,1349.5,0.25,62,155.73
5513,B-3,1349.5,0.5,31,155.73
5514,C5,1349.75,0.25,51,155.73
5515,B4,1350.0,1.5,50,155.73
5516,D4,1350.0,1.5,50,155.73
5517,F3,1350.0,1.0,67,155.73
5518,A3,1350.0,1.0,67,155.73
5519,G3,1351.5,0.25,67,155.73
5520,B-4,1351.5,1.5,50,155.73
5521,C#4,1351.5,1.5,50,155.73
5522,E3,1352.0,0.25,62,155.73
5523,C3,1352.5,0.25,62,155.73
5524,F3,1353.0,1.0,67,155.73
5525,B-5,1353.0,1.5,50,155.73
5526,C#5,1353.0,1.5,50,155.73
5527,G3,1354.5,0.25,67,155.73
5528,E5,1354.5,1.5,50,155.73
5529,G4,1354.5,1.5,50,155.73
5530,E3,1355.0,0.25,62,155.73
5531,C3,1355.5,0.25,62,155.73
5532,F3,1356.0,1.0,67,155.73
5533,C6,1356.5,0.25,49,155.73
5534,C6,1357.0,0.25,49,155.73
5535,G4,1357.5,0.25,67,155.73
5536,D6,1358.0,0.25,49,155.73
5537,E4,1358.0,0.25,62,155.73
5538,D6,1358.5,0.25,49,155.73
5539,C4,1358.5,0.25,62,155.73
5540,F4,1359.0,1.0,67,155.73
5541,C5,1359.0,1.375,43,155.73
5542,F5,1359.0,1.375,43,155.73
5543,A5,1360.375,0.125,40,155.73
5544,G4,1360.5,0.25,67,155.73
5545,G5,1360.5,1.5,40,155.73
5546,E5,1360.5,1.5,40,155.73
5547,E4,1361.0,0.25,62,155.73
5548,C4,1361.5,0.25,62,155.73
5549,F5,1362.0,0.25,74,155.73
5550,F4,1362.0,1.0,67,155.73
5551,C5,1362.25,0.25,62,155.73
5552,B4,1362.5,0.25,62,155.73
5553,C5,1362.75,0.25,62,155.73
5554,D5,1363.0,0.25,68,155.73
5555,C5,1363.25,0.25,62,155.73
5556,B-4,1363.5,0.25,65,155.73
5557,C5,1363.75,0.25,60,155.73
5558,B-4,1364.0,0.25,65,155.73
5559,C5,1364.25,0.25,59,155.73
5560,B-4,1364.5,0.25,65,155.73
5561,C5,1364.75,0.25,59,155.73
5562,A4,1365.0,0.25,74,155.73
5563,C5,1365.25,0.25,62,155.73
5564,B4,1365.5,0.25,62,155.73
5565,C5,1365.75,0.25,62,155.73
5566,F5,1366.0,0.25,74,155.73
5567,C5,1366.25,0.25,62,155.73
5568,B-4,1366.5,0.25,65,155.73
5569,C5,1366.75,0.25,60,155.73
5570,B-4,1367.0,0.25,65,155.73
5571,C5,1367.25,0.25,59,155.73
5572,B-4,1367.5,0.25,65,155.73
5573,C5,1367.75,0.25,59,155.73
5574,A4,1368.0,0.25,74,155.73
5575,C6,1368.25,0.25,62,155.73
5576,B5,1368.5,0.25,62,155.73
5577,D3,1368.5,11/20,49,155.73
5578,C6,1368.75,0.25,62,155.73
5579,D6,1369.0,0.25,72,155.73
5580,F3,1369.0,11/20,52,155.73
5581,C6,1369.25,0.25,62,155.73
5582,B-5,1369.5,0.25,65,155.73
5583,G#3,1369.5,11/20,54,155.73
5584,C6,1369.75,0.25,60,155.73
5585,B-5,1370.0,0.25,65,155.73
5586,G3,1370.0,11/20,49,155.73
5587,C6,1370.25,0.25,59,155.73
5588,B-5,1370.5,0.25,65,155.73
5589,F3,1370.5,0.5,49,155.73
5590,C6,1370.75,0.25,59,155.73
5591,A5,1371.0,0.25,74,155.73
5592,F3,1371.0,0.5,49,155.73
5593,C6,1371.25,0.25,62,155.73
5594,B5,1371.5,0.25,62,155.73
5595,E3,1371.5,11/20,47,155.73
5596,C6,1371.75,0.25,62,155.73
5597,F6,1372.0,0.25,72,155.73
5598,G3,1372.0,11/20,49,155.73
5599,C6,1372.25,0.25,62,155.73
5600,B-5,1372.5,0.25,65,155.73
5601,C#4,1372.5,11/20,54,155.73
5602,C6,1372.75,0.25,60,155.73
5603,B-5,1373.0,0.25,65,155.73
5604,C4,1373.0,11/20,49,155.73
5605,C6,1373.25,0.25,59,155.73
5606,B-5,1373.5,0.25,65,155.73
5607,B-3,1373.5,0.5,49,155.73
5608,C6,1373.75,0.25,59,155.73
5609,A5,1374.0,0.25,74,155.73
5610,A3,1374.0,0.5,38,155.73
5611,B-3,1374.0,1/20,49,155.73
5612,C6,1374.25,0.25,62,155.73
5613,F6,1374.5,0.25,71,155.73
5614,A5,1374.75,0.25,60,155.73
5615,G5,1375.0,0.25,70,155.73
5616,E6,1375.25,0.25,62,155.73
5617,F5,1375.5,0.25,70,155.73
5618,B-3,1375.5,0.5,40,155.73
5619,D6,1375.75,0.25,62,155.73
5620,E5,1376.0,0.25,69,155.73
5621,C6,1376.25,0.25,60,155.73
5622,D5,1376.5,0.25,67,155.73
5623,B-5,1376.75,0.25,58,155.73
5624,C5,1377.0,0.25,69,155.73
5625,A4,1377.0,1.5,40,155.73
5626,C4,1377.0,3.0,34,155.73
5627,A5,1377.25,0.25,62,155.73
5628,B-4,1377.5,0.25,67,155.73
5629,G5,1377.75,0.25,59,155.73
5630,A4,1378.0,0.25,66,155.73
5631,F5,1378.25,0.25,56,155.73
5632,G4,1378.5,0.25,64,155.73
5633,B-4,1378.5,1.5,40,155.73
5634,E5,1378.75,0.25,55,155.73
5635,F4,1379.0,0.25,63,155.73
5636,D5,1379.25,0.25,55,155.73
5637,E4,1379.5,0.25,62,155.73
5638,C5,1379.75,0.25,51,155.73
5639,B4,1380.0,1.5,50,155.73
5640,D4,1380.0,1.5,50,155.73
5641,A4,1380.0,1.0,67,155.73
5642,F4,1380.0,1.0,67,155.73
5643,G3,1381.5,0.25,67,155.73
5644,B-4,1381.5,1.5,50,155.73
5645,C#4,1381.5,1.5,50,155.73
5646,E3,1382.0,0.25,62,155.73
5647,C3,1382.5,0.25,62,155.73
5648,F3,1383.0,1.0,67,155.73
5649,B-5,1383.0,1.5,50,155.73
5650,C#5,1383.0,1.5,50,155.73
5651,G3,1384.5,0.25,67,155.73
5652,E5,1384.5,1.5,50,155.73
5653,G4,1384.5,1.5,50,155.73
5654,E3,1385.0,0.25,62,155.73
5655,C3,1385.5,0.25,62,155.73
5656,F3,1386.0,1.0,67,155.73
5657,C6,1386.5,0.25,49,155.73
5658,C6,1387.0,0.25,49,155.73
5659,G4,1387.5,0.25,67,155.73
5660,D6,1388.0,0.25,49,155.73
5661,E4,1388.0,0.25,62,155.73
5662,D6,1388.5,0.25,49,155.73
5663,C4,1388.5,0.25,62,155.73
5664,C5,1389.0,3.0,39,155.73
5665,F5,1389.0,1.5,47,155.73
5666,F4,1389.0,1.0,67,155.73
5667,E5,1390.5,1.5,37,155.73
5668,G4,1390.5,0.25,67,155.73
5669,E4,1391.0,0.25,62,155.73
5670,C4,1391.5,0.25,62,155.73
5671,B5,1392.0,0.25,71,155.73
5672,F4,1392.0,1.0,67,155.73
5673,C6,1392.25,11/40,55,155.73
5674,B5,1392.5,11/40,55,155.73
5675,C6,1392.75,11/40,55,155.73
5676,B5,1393.0,11/40,55,155.73
5677,C6,1393.25,0.25,55,155.73
5678,C#6,1393.5,11/40,62,155.73
5679,D6,1393.75,11/40,55,155.73
5680,C#6,1394.0,11/40,55,155.73
5681,D6,1394.25,11/40,55,155.73
5682,E6,1394.5,11/40,59,155.73
5683,F6,1394.75,0.25,54,155.73
5684,C5,1395.0,1.5,39,155.73
5685,F5,1395.0,1.375,47,155.73
5686,A5,1396.375,0.125,37,155.73
5687,G5,1396.5,1.25,43,155.73
5688,E5,1396.5,1.0,43,155.73
5689,F5,1397.75,0.25,37,155.73
5690,F5,1398.0,11/40,71,155.73
5691,A5,1398.25,11/40,64,155.73
5692,C6,1398.5,11/40,67,155.73
5693,D3,1398.5,11/20,49,155.73
5694,F6,1398.75,11/40,68,155.73
5695,E6,1399.0,11/40,69,155.73
5696,F3,1399.0,11/20,52,155.73
5697,D6,1399.25,11/40,69,155.73
5698,C6,1399.5,11/40,71,155.73
5699,G#3,1399.5,11/20,54,155.73
5700,D6,1399.75,11/40,67,155.73
5701,C6,1400.0,11/40,67,155.73
5702,G3,1400.0,11/20,49,155.73
5703,B-5,1400.25,11/40,67,155.73
5704,A5,1400.5,11/40,67,155.73
5705,F3,1400.5,0.5,49,155.73
5706,G5,1400.75,0.25,67,155.73
5707,F5,1401.0,11/40,71,155.73
5708,F3,1401.0,0.5,49,155.73
5709,A5,1401.25,11/40,64,155.73
5710,G5,1401.5,11/40,64,155.73
5711,E3,1401.5,11/20,47,155.73
5712,F5,1401.75,11/40,68,155.73
5713,E5,1402.0,11/40,64,155.73
5714,G3,1402.0,11/20,49,155.73
5715,D5,1402.25,11/40,64,155.73
5716,C5,1402.5,11/40,69,155.73
5717,C#4,1402.5,11/20,54,155.73
5718,D5,1402.75,11/40,63,155.73
5719,C5,1403.0,11/40,63,155.73
5720,C4,1403.0,11/20,49,155.73
5721,B-4,1403.25,11/40,63,155.73
5722,A4,1403.5,11/40,63,155.73
5723,B-3,1403.5,0.5,49,155.73
5724,G4,1403.75,0.25,63,155.73
5725,F4,1404.0,11/40,71,155.73
5726,A3,1404.0,0.5,38,155.73
5727,B-3,1404.0,1/20,49,155.73
5728,A4,1404.25,11/40,63,155.73
5729,G4,1404.5,11/40,63,155.73
5730,F4,1404.75,11/40,63,155.73
5731,E4,1405.0,11/40,63,155.73
5732,D4,1405.25,11/40,64,155.73
5733,C4,1405.5,11/40,71,155.73
5734,B-3,1405.5,0.5,40,155.73
5735,D4,1405.75,11/40,64,155.73
5736,C4,1406.0,11/40,64,155.73
5737,B-3,1406.25,11/40,64,155.73
5738,A3,1406.5,11/40,64,155.73
5739,G3,1406.75,0.25,64,155.73
5740,F3,1407.0,0.25,81,155.73
5741,C4,1407.0,1.5,37,155.73
5742,A4,1407.0,1.5,37,155.73
5743,A3,1407.5,0.25,70,155.73
5744,C4,1408.0,0.25,70,155.73
5745,F4,1408.5,0.25,78,155.73
5746,B-3,1408.5,1.5,36,155.73
5747,G4,1408.5,1.5,36,155.73
5748,A4,1409.0,0.25,70,155.73
5749,C5,1409.5,0.25,70,155.73
5750,F5,1410.0,0.5,88,155.73
5751,A3,1410.0,0.5,64,155.73
5752,C4,1410.5,0.5,53,155.73
5753,F4,1411.0,0.5,53,155.73
5754,B-3,1411.5,0.5,61,155.73
5755,A5,1411.5,1.0,80,155.73
5756,C6,1411.5,1.0,80,155.73
5757,C5,1411.5,1.0,80,155.73
5758,D4,1412.0,0.5,53,155.73
5759,G4,1412.5,0.5,50,155.73
5760,C4,1413.0,0.5,38,155.73
5761,E-6,1413.0,1.0,85,155.73
5762,F5,1413.0,1.0,85,155.73
5763,C6,1413.0,1.0,85,155.73
5764,F4,1413.5,0.5,34,155.73
5765,A4,1414.0,0.5,34,155.73
5766,C4,1414.5,0.5,39,155.73
5767,G4,1415.0,0.5,33,155.73
5768,B-4,1415.5,0.5,33,155.73
5769,D6,1416.0,1.0,78,155.73
5770,F5,1416.0,1.0,78,155.73
5771,B-5,1416.0,1.0,78,155.73
5772,A4,1416.0,1.0,61,155.73
5773,F4,1416.0,1.0,61,155.73
5774,B-4,1417.5,1.0,63,155.73
5775,C4,1417.5,1.0,63,155.73
5776,E4,1417.5,1.0,63,155.73
5777,G#5,1419.0,1.0,77,155.73
5778,D6,1419.0,1.0,77,155.73
5779,F6,1419.0,1.0,77,155.73
5780,F5,1419.0,1.0,77,155.73
5781,F4,1419.0,1.0,61,155.73
5782,A4,1419.0,1.0,61,155.73
5783,B-4,1420.5,1.0,59,155.73
5784,C4,1420.5,1.0,59,155.73
5785,E4,1420.5,1.0,59,155.73
5786,C4,1422.0,3.0,39,155.73
5787,F4,1422.0,2.75,47,155.73
5788,A3,1422.0,1.0,61,155.73
5789,F3,1422.0,1.0,61,155.73
5790,C3,1423.5,1.0,59,155.73
5791,E3,1423.5,1.0,59,155.73
5792,B-3,1423.5,1.0,59,155.73
5793,A4,1424.75,0.25,47,155.73
5794,C4,1425.0,3.0,42,155.73
5795,G4,1425.0,2.5,50,155.73
5796,E4,1425.0,3.0,42,155.73
5797,F2,1425.0,0.25,70,155.73
5798,A2,1425.5,0.25,63,155.73
5799,C3,1426.0,0.25,63,155.73
5800,F3,1426.5,0.25,70,155.73
5801,A3,1427.0,0.25,64,155.73
5802,F4,1427.5,0.5,41,155.73
5803,C4,1427.5,0.25,64,155.73
5804,F4,1428.0,0.5,46,155.73
5805,C4,1428.0,0.5,42,155.73
5806,F4,1428.0,0.5,74,155.73
5807,A3,1429.0,0.5,71,155.73
5808,B-3,1429.5,0.25,78,155.73
5809,F4,1429.5,1.0,68,155.73
5810,F3,1429.5,1.0,68,155.73
5811,G4,1430.0,0.25,73,155.73
5812,B3,1430.5,0.25,72,155.73
5813,C4,1431.0,0.25,78,155.73
5814,A2,1431.0,1.0,68,155.73
5815,A3,1431.0,1.0,68,155.73
5816,A4,1431.5,0.25,73,155.73
5817,C#4,1432.0,0.25,73,155.73
5818,D4,1432.5,0.25,78,155.73
5819,B-4,1433.0,0.25,72,155.73
5820,E4,1433.5,0.25,72,155.73
5821,B-5,1434.0,2.0,68,155.73
5822,B-2,1434.0,1.0,68,155.73
5823,B-3,1434.0,1.0,68,155.73
5824,A5,1436.0,0.25,62,155.73
5825,G5,1436.25,0.25,61,155.73
5826,F5,1436.5,0.25,59,155.73
5827,E5,1436.75,0.25,57,155.73
5828,F5,1437.0,0.25,56,155.73
5829,B2,1437.0,1.0,68,155.73
5830,B3,1437.0,1.0,68,155.73
5831,G5,1437.5,0.25,49,155.73
5832,A5,1438.0,0.25,54,155.73
5833,A4,1438.5,1.0,46,155.73
5834,C5,1438.5,1.0,46,155.73
5835,B-4,1439.5,0.5,40,155.73
5836,G4,1439.5,0.5,40,155.73
5837,B-4,1440.0,1.5,46,155.73
5838,G4,1440.0,1.5,46,155.73
5839,A3,1440.0,3.0,38,155.73
5840,C3,1440.0,3.0,38,155.73
5841,F4,1441.5,0.5,41,155.73
5842,A4,1441.5,0.5,41,155.73
5843,B-3,1443.0,3.0,38,155.73
5844,C3,1443.0,3.0,38,155.73
5845,A3,1444.0,0.5,71,155.73
5846,B-3,1444.5,0.25,78,155.73
5847,G4,1445.0,0.25,73,155.73
5848,B3,1445.5,0.25,72,155.73
5849,C4,1446.0,0.25,78,155.73
5850,A3,1446.0,0.5,38,155.73
5851,F3,1446.0,0.5,38,155.73
5852,A4,1446.5,0.25,73,155.73
5853,C#4,1447.0,0.25,73,155.73
5854,A2,1447.0,0.5,60,155.73
5855,D4,1447.5,0.25,78,155.73
5856,B-2,1447.5,0.25,66,155.73
5857,B-4,1448.0,0.25,72,155.73
5858,G3,1448.0,0.25,61,155.73
5859,E4,1448.5,0.25,72,155.73
5860,B2,1448.5,0.25,61,155.73
5861,B-5,1449.0,2.0,68,155.73
5862,C3,1449.0,0.25,66,155.73
5863,A3,1449.5,0.25,61,155.73
5864,C#3,1450.0,0.25,61,155.73
5865,D3,1450.5,0.25,66,155.73
5866,A5,1451.0,0.25,62,155.73
5867,B-3,1451.0,0.25,61,155.73
5868,G5,1451.25,0.25,61,155.73
5869,F5,1451.5,0.25,59,155.73
5870,E3,1451.5,0.25,61,155.73
5871,E5,1451.75,0.25,57,155.73
5872,F5,1452.0,0.125,56,155.73
5873,G5,1452.125,0.125,49,155.73
5874,A5,1452.25,0.125,49,155.73
5875,D5,1453.5,0.125,46,155.73
5876,B-3,1453.5,1.5,30,155.73
5877,C4,1453.5,1.5,30,155.73
5878,G4,1453.5,1.5,30,155.73
5879,E4,1453.5,1.5,30,155.73
5880,E5,1453.625,0.125,39,155.73
5881,F5,1453.75,0.125,39,155.73
5882,C4,1455.0,3.0,37,155.73
5883,F4,1455.0,1.25,44,155.73
5884,C4,1455.0,0.5,44,155.73
5885,A3,1455.0,0.5,44,155.73
5886,F4,1455.0,0.5,44,155.73
5887,A4,1456.25,0.25,39,155.73
5888,C4,1456.5,1.0,42,155.73
5889,G4,1456.5,1.0,40,155.73
5890,E4,1456.5,1.0,40,155.73
5891,F4,1457.5,0.5,41,155.73
5892,C#4,1457.5,0.5,42,155.73
5893,F4,1458.0,1.5,41,155.73
5894,D4,1458.0,2.0,47,155.73
5895,A4,1459.0,0.5,39,155.73
5896,E4,1459.5,1.5,37,155.73
5897,C5,1459.5,0.5,44,155.73
5898,B-4,1460.0,0.5,39,155.73
5899,G4,1460.5,0.5,39,155.73
5900,F4,1461.0,1.5,44,155.73
5901,C4,1461.5,123/250,40,155.73
5902,A4,1462.0,0.5,40,155.73
5903,A2,1462.0,0.5,60,155.73
5904,E4,1462.5,1.5,37,155.73
5905,C5,1462.5,0.5,44,155.73
5906,B-2,1462.5,0.25,66,155.73
5907,B-4,1463.0,0.5,40,155.73
5908,G3,1463.0,0.25,61,155.73
5909,G4,1463.5,0.5,40,155.73
5910,B2,1463.5,0.25,61,155.73
5911,F4,1464.0,0.5,44,155.73
5912,C3,1464.0,0.25,66,155.73
5913,C4,1464.5,123/250,41,155.73
5914,A3,1464.5,0.25,61,155.73
5915,A4,1465.0,0.5,41,155.73
5916,C#3,1465.0,0.25,61,155.73
5917,F4,1465.5,0.5,44,155.73
5918,D3,1465.5,0.25,66,155.73
5919,C4,1466.0,247/500,40,155.73
5920,B-3,1466.0,0.25,61,155.73
5921,A4,1466.5,0.5,40,155.73
5922,E3,1466.5,0.25,61,155.73
5923,G4,1467.0,1.5,39,155.73
5924,B-3,1467.0,1.5,39,155.73
5925,F4,1468.5,0.5,34,155.73
5926,A3,1468.5,0.5,34,155.73
5927,B-3,1468.5,1.5,30,155.73
5928,C4,1468.5,1.5,30,155.73
5929,E4,1468.5,1.5,30,155.73
5930,G4,1468.5,1.5,30,155.73
5931,A3,1470.0,0.5,44,155.73
5932,F4,1470.0,0.5,44,155.73
5933,C4,1470.0,0.5,44,155.73
5934,B-3,1471.5,0.5,35,155.73
5935,D4,1471.5,0.5,35,155.73
5936,F4,1471.5,0.5,35,155.73
5937,A3,1473.0,1.5,32,155.73
5938,C3,1473.0,3.0,27,155.73
5939,B-3,1474.5,1.5,28,155.73
5940,F3,1476.0,1.5,28,155.73
5941,A3,1476.5,0.5,24,155.73
5942,C4,1477.0,0.5,24,155.73
5943,F3,1477.5,1.5,28,155.73
5944,G3,1478.0,0.5,26,155.73
5945,B-3,1478.5,0.5,26,155.73
5946,F3,1479.0,1.5,28,155.73
5947,A3,1479.5,0.5,24,155.73
5948,C4,1480.0,0.5,24,155.73
5949,F3,1480.5,1.5,28,155.73
5950,G3,1481.0,0.5,24,155.73
5951,B-3,1481.5,0.5,24,155.73
5952,F3,1482.0,1.5,28,155.73
5953,A3,1482.5,0.5,24,155.73
5954,C4,1483.0,0.5,24,155.73
5955,F3,1483.5,1.5,28,155.73
5956,A3,1484.0,0.5,24,155.73
5957,C4,1484.5,0.5,24,155.73
5958,F3,1485.0,2.0,26,155.73
5959,F2,1485.0,2.0,26,155.73
