,note_name,start_time,duration,velocity,tempo
0,F5,0.002,1.5,60,165.0
1,B-3,1.0,1.0,42,165.0
2,D5,1.5,0.5,53,165.0
3,B-4,2.0,0.25,55,165.0
4,D4,2.0,0.25,48,165.0
5,B-4,3.0,0.25,55,165.0
6,G4,3.0,0.25,47,165.0
7,E-5,4.0,1.0,60,165.0
8,C4,4.0,1.0,52,165.0
9,G5,5.0,0.25,55,165.0
10,E-4,5.0,0.25,47,165.0
11,A4,6.0,1.0,52,165.0
12,F4,6.0,1.0,48,165.0
13,E-4,7.0,1.0,46,165.0
14,C5,8.0,0.5,55,165.0
15,D4,8.0,1.0,53,165.0
16,B-4,8.5,0.25,53,165.0
17,D5,9.0,0.5,57,165.0
18,A3,9.0,1.0,47,165.0
19,C5,9.5,0.25,54,165.0
20,E-5,10.0,0.5,58,165.0
21,B-3,10.0,1.0,51,165.0
22,D5,10.5,0.25,56,165.0
23,F5,11.0,0.5,60,165.0
24,E-3,11.0,1.0,51,165.0
25,C4,11.0,1.0,51,165.0
26,E-5,11.5,0.25,57,165.0
27,D5,12.0,1.5,60,165.0
28,B-3,12.0,2.0,52,165.0
29,F3,12.0,3.0,52,165.0
30,E-5,13.5,0.25,57,165.0
31,D5,13.75,0.25,53,165.0
32,C5,14.0,0.5,52,165.0
33,A3,14.0,1.0,47,165.0
34,D5,14.5,0.5,54,165.0
35,E-5,15.0,0.5,55,165.0
36,E5,15.5,0.5,57,165.0
37,F5,16.0,1.5,59,165.0
38,B-3,17.0,1.0,39,165.0
39,E-5,17.5,167/1000,53,165.0
40,D5,17.667,167/1000,53,165.0
41,C5,17.833,167/1000,53,165.0
42,B-4,18.0,0.25,56,165.0
43,D4,18.0,0.25,47,165.0
44,B-4,19.0,0.25,56,165.0
45,G4,19.0,0.25,46,165.0
46,E-5,20.0,1.0,60,165.0
47,C4,20.0,1.0,51,165.0
48,G5,21.0,0.25,55,165.0
49,E-4,21.0,0.25,45,165.0
50,A4,22.0,1.0,58,165.0
51,F4,22.0,1.0,48,165.0
52,E-4,23.0,1.0,43,165.0
53,A4,23.5,0.5,52,165.0
54,B-4,24.0,0.5,58,165.0
55,D4,24.0,1.0,51,165.0
56,D5,24.5,0.25,55,165.0
57,G4,25.0,0.5,58,165.0
58,E-3,25.0,1.0,47,165.0
59,E-4,25.0,1.0,47,165.0
60,C5,25.5,0.25,55,165.0
61,B-4,26.0,1.0,58,165.0
62,D4,26.0,1.0,50,165.0
63,F3,26.0,2.0,50,165.0
64,A4,27.0,1.0,55,165.0
65,C4,27.0,1.0,48,165.0
66,B-4,28.0,0.5,58,165.0
67,B-3,28.0,1.0,51,165.0
68,F4,28.5,0.25,56,165.0
69,G4,29.0,0.25,60,165.0
70,A4,29.5,0.25,63,165.0
71,B-4,30.0,0.25,67,165.0
72,C5,30.5,0.25,70,165.0
73,D5,31.0,0.25,74,165.0
74,E-5,31.5,0.25,77,165.0
75,B-3,32.0,0.5,64,165.0
76,F5,32.002,1.5,85,165.0
77,F4,32.5,0.5,54,165.0
78,D4,33.0,0.5,59,165.0
79,D5,33.5,0.5,74,165.0
80,F4,33.5,0.5,54,165.0
81,B-4,34.0,0.5,78,165.0
82,G3,34.0,0.5,63,165.0
83,D4,34.5,0.5,56,165.0
84,B-4,35.0,0.5,78,165.0
85,B-3,35.0,0.5,59,165.0
86,D4,35.5,0.5,55,165.0
87,E-5,36.0,1/5,85,165.0
88,E-3,36.0,0.5,64,165.0
89,F5,36.2,1/5,72,165.0
90,E-5,36.4,1/5,61,165.0
91,C4,36.5,0.5,54,165.0
92,D5,36.6,1/5,70,165.0
93,E-5,36.8,1/5,72,165.0
94,G5,37.0,1.0,78,165.0
95,G3,37.0,0.5,59,165.0
96,C4,37.5,0.5,55,165.0
97,A4,38.0,1.0,81,165.0
98,F3,38.0,0.5,64,165.0
99,E-4,38.5,0.5,54,165.0
100,C4,39.0,0.5,60,165.0
101,E-4,39.5,0.5,56,165.0
102,C5,40.0,0.5,78,165.0
103,D4,40.0,1.0,66,165.0
104,B-4,40.5,0.25,74,165.0
105,D5,41.0,0.5,81,165.0
106,D4,41.0,2.0,60,165.0
107,A3,41.0,1.0,60,165.0
108,C5,41.5,0.25,77,165.0
109,E-5,42.0,0.5,82,165.0
110,B-3,42.0,1.0,64,165.0
111,D5,42.5,0.25,79,165.0
112,F5,43.0,0.5,85,165.0
113,E-3,43.0,1.0,64,165.0
114,C4,43.0,1.0,64,165.0
115,E-5,43.5,0.25,81,165.0
116,D5,44.0,1.5,85,165.0
117,B-3,44.0,2.0,65,165.0
118,F3,44.0,3.0,65,165.0
119,E-5,45.5,0.25,81,165.0
120,D5,45.75,0.25,81,165.0
121,C5,46.0,0.5,73,165.0
122,A3,46.0,1.0,60,165.0
123,D5,46.5,0.5,77,165.0
124,E-5,47.0,0.5,78,165.0
125,E5,47.5,0.5,81,165.0
126,F5,48.0,1.5,83,165.0
127,B-3,48.0,0.5,65,165.0
128,F4,48.5,0.5,55,165.0
129,D4,49.0,0.5,60,165.0
130,E-5,49.5,167/1000,74,165.0
131,F4,49.5,0.5,55,165.0
132,D5,49.667,167/1000,74,165.0
133,C5,49.833,167/1000,74,165.0
134,B-4,50.0,0.25,79,165.0
135,G3,50.0,0.25,64,165.0
136,B-4,50.5,0.25,76,165.0
137,D4,50.5,0.25,57,165.0
138,B-4,51.0,0.25,79,165.0
139,B-3,51.0,0.25,60,165.0
140,B-4,51.5,0.25,76,165.0
141,D4,51.5,0.25,57,165.0
142,E-5,52.0,1/5,85,165.0
143,E-3,52.0,0.5,64,165.0
144,F5,52.2,1/5,72,165.0
145,E-5,52.4,1/5,61,165.0
146,C4,52.5,0.5,55,165.0
147,D5,52.6,1/5,70,165.0
148,E-5,52.8,1/5,72,165.0
149,G5,53.0,1.0,78,165.0
150,G3,53.0,0.5,59,165.0
151,C4,53.5,0.5,55,165.0
152,A4,54.0,1.0,82,165.0
153,F3,54.0,0.5,64,165.0
154,E-4,54.5,0.5,55,165.0
155,C4,55.0,0.5,59,165.0
156,A5,55.5,0.5,77,165.0
157,E-4,55.5,0.5,55,165.0
158,B-5,56.0,333/1000,85,165.0
159,B-3,56.0,2.0,59,165.0
160,D3,56.0,1.0,59,165.0
161,F5,56.333,333/1000,74,165.0
162,D5,56.667,333/1000,72,165.0
163,G5,57.0,333/1000,84,165.0
164,E-3,57.0,1.0,55,165.0
165,E-5,57.333,333/1000,73,165.0
166,C5,57.667,333/1000,74,165.0
167,F5,58.0,333/1000,84,165.0
168,D4,58.0,1.0,59,165.0
169,F3,58.0,2.0,59,165.0
170,D5,58.333,333/1000,75,165.0
171,B-4,58.667,333/1000,74,165.0
172,E-5,59.0,333/1000,84,165.0
173,E-4,59.0,1.0,56,165.0
174,C5,59.333,333/1000,74,165.0
175,A4,59.667,333/1000,74,165.0
176,B-4,60.0,1.0,83,165.0
177,B-3,60.0,1.0,59,165.0
178,D4,60.0,1.0,59,165.0
179,B-2,61.0,1.0,64,165.0
180,F4,61.5,0.5,53,165.0
181,B-4,62.0,0.25,58,165.0
182,A4,62.5,0.25,53,165.0
183,B-4,63.0,0.25,55,165.0
184,C5,63.5,0.25,53,165.0
185,D5,64.0,0.25,55,165.0
186,B-3,65.0,0.375,48,165.0
187,D5,65.0,0.375,56,165.0
188,B-4,65.0,0.375,56,165.0
189,G3,66.0,1.0,48,165.0
190,B-4,66.0,1.0,59,165.0
191,D5,66.0,1.0,59,165.0
192,E-3,67.0,1.0,45,165.0
193,E-5,67.0,1.0,55,165.0
194,C5,67.0,1.0,55,165.0
195,F3,68.0,1.0,47,165.0
196,C5,68.0,1.0,54,165.0
197,A4,68.0,1.0,54,165.0
198,F2,69.0,1.0,55,165.0
199,F4,69.5,0.5,55,165.0
200,C5,70.0,0.25,57,165.0
201,B-4,70.5,0.25,55,165.0
202,C5,71.0,0.25,56,165.0
203,D5,71.5,0.25,53,165.0
204,E-5,72.0,0.25,56,165.0
205,C4,73.0,0.375,45,165.0
206,G4,73.0,0.375,56,165.0
207,E-5,73.0,0.375,56,165.0
208,A3,74.0,1.0,45,165.0
209,C5,74.0,1.0,58,165.0
210,E-5,74.0,1.0,58,165.0
211,F3,75.0,1.0,42,165.0
212,F5,75.0,1.0,56,165.0
213,A4,75.0,1.0,56,165.0
214,B-3,76.0,1.0,46,165.0
215,B-4,76.0,1.0,54,165.0
216,D5,76.0,1.0,54,165.0
217,B-2,77.0,1.0,65,165.0
218,B-4,77.5,0.5,73,165.0
219,D5,78.0,0.25,79,165.0
220,C5,78.5,0.25,72,165.0
221,D5,79.0,0.25,75,165.0
222,E5,79.5,0.25,72,165.0
223,F5,80.0,1.0,79,165.0
224,A3,80.5,0.5,53,165.0
225,C4,81.0,0.5,57,165.0
226,F5,81.333,333/1000,77,165.0
227,A3,81.5,0.5,53,165.0
228,G5,81.667,333/1000,79,165.0
229,A5,82.0,333/1000,82,165.0
230,F4,82.0,1.0,67,165.0
231,G5,82.333,333/1000,76,165.0
232,F5,82.667,333/1000,76,165.0
233,E5,83.0,333/1000,79,165.0
234,D5,83.333,333/1000,77,165.0
235,C5,83.667,333/1000,76,165.0
236,B-4,84.0,1.0,75,165.0
237,G3,84.5,0.5,53,165.0
238,B-3,85.0,0.5,58,165.0
239,E5,85.333,333/1000,73,165.0
240,G3,85.5,0.5,54,165.0
241,F5,85.667,333/1000,76,165.0
242,G5,86.0,333/1000,80,165.0
243,E4,86.0,1.0,66,165.0
244,F5,86.333,333/1000,79,165.0
245,E5,86.667,333/1000,78,165.0
246,D5,87.0,333/1000,77,165.0
247,C5,87.333,333/1000,76,165.0
248,B-4,87.667,333/1000,75,165.0
249,A4,88.0,0.25,73,165.0
250,F4,88.0,1.0,69,165.0
251,C5,88.25,0.25,69,165.0
252,B-4,88.5,0.25,71,165.0
253,A4,88.75,0.25,72,165.0
254,B-4,89.0,0.25,74,165.0
255,C5,89.25,0.25,76,165.0
256,D5,89.5,0.25,77,165.0
257,E5,89.75,0.25,79,165.0
258,F5,90.0,0.25,81,165.0
259,G5,90.25,0.25,82,165.0
260,A5,90.5,0.25,84,165.0
261,B-5,90.75,0.25,86,165.0
262,C6,91.0,0.25,87,165.0
263,F3,91.0,1.0,53,165.0
264,A4,91.5,9/40,59,165.0
265,F4,91.5,9/40,59,165.0
266,C3,92.0,0.5,53,165.0
267,A4,92.0,1.0,56,165.0
268,F4,92.0,1.0,56,165.0
269,C4,92.5,0.5,47,165.0
270,B3,93.0,0.5,49,165.0
271,G4,93.0,0.5,52,165.0
272,E4,93.0,0.5,52,165.0
273,C4,93.5,0.5,47,165.0
274,G5,94.0,1.5,76,165.0
275,B-3,94.0,0.5,54,165.0
276,C4,94.5,0.5,50,165.0
277,B-3,95.0,0.5,45,165.0
278,E5,95.5,0.25,60,165.0
279,C4,95.5,0.5,41,165.0
280,C5,95.75,0.25,60,165.0
281,F5,96.0,1.0,67,165.0
282,A3,96.0,0.5,48,165.0
283,C4,96.5,0.5,45,165.0
284,F#5,97.0,1.0,70,165.0
285,A3,97.0,0.5,51,165.0
286,C4,97.5,0.5,47,165.0
287,G5,98.0,1.5,74,165.0
288,B-3,98.0,0.5,53,165.0
289,C4,98.5,0.5,50,165.0
290,B-3,99.0,0.5,47,165.0
291,E5,99.5,0.25,61,165.0
292,C4,99.5,0.5,43,165.0
293,C5,99.75,0.25,61,165.0
294,F5,100.0,1.0,65,165.0
295,A3,100.0,0.5,46,165.0
296,C4,100.5,0.5,36,165.0
297,A3,101.0,0.5,43,165.0
298,C4,101.5,0.5,36,165.0
299,G5,102.0,0.25,75,165.0
300,B-3,102.0,0.5,56,165.0
301,G5,102.5,1.0,75,165.0
302,C4,102.5,0.5,55,165.0
303,B-3,103.0,0.5,49,165.0
304,E5,103.5,0.25,61,165.0
305,C4,103.5,0.5,46,165.0
306,C5,103.75,0.25,61,165.0
307,F5,104.0,0.25,64,165.0
308,A3,104.0,0.5,48,165.0
309,F5,104.5,0.25,68,165.0
310,C4,104.5,0.5,45,165.0
311,F#5,105.0,0.25,71,165.0
312,A3,105.0,0.5,50,165.0
313,F#5,105.5,0.25,71,165.0
314,C4,105.5,0.5,47,165.0
315,G5,106.0,0.25,77,165.0
316,B-3,106.0,0.5,53,165.0
317,G5,106.5,1.0,77,165.0
318,C4,106.5,0.5,50,165.0
319,B-3,107.0,0.5,48,165.0
320,E5,107.5,0.25,60,165.0
321,C4,107.5,0.5,45,165.0
322,C5,107.75,0.25,62,165.0
323,F5,108.0,1.0,66,165.0
324,A3,108.0,0.5,53,165.0
325,C4,108.5,0.5,49,165.0
326,A3,109.0,0.5,53,165.0
327,C4,109.5,0.5,49,165.0
328,F#5,110.0,3/10,69,165.0
329,B-3,110.0,0.5,54,165.0
330,G5,110.25,3/10,70,165.0
331,A5,110.5,3/10,71,165.0
332,C4,110.5,0.5,48,165.0
333,G5,110.75,3/10,71,165.0
334,F5,111.0,3/10,72,165.0
335,B-3,111.0,0.5,57,165.0
336,E5,111.25,3/10,73,165.0
337,D5,111.5,3/10,74,165.0
338,C4,111.5,0.5,52,165.0
339,C5,111.75,0.25,75,165.0
340,F5,112.0,0.25,80,165.0
341,C5,112.0,1/20,75,165.0
342,A3,112.0,1.0,64,165.0
343,C5,112.25,0.25,76,165.0
344,A5,112.5,0.25,80,165.0
345,F5,112.75,0.25,76,165.0
346,C6,113.0,0.25,80,165.0
347,A5,113.25,0.25,76,165.0
348,C6,113.5,0.25,80,165.0
349,A5,113.75,0.25,75,165.0
350,C6,114.0,3/10,78,165.0
351,B-5,114.25,3/10,78,165.0
352,A5,114.5,3/10,77,165.0
353,G5,114.75,3/10,76,165.0
354,F5,115.0,3/10,76,165.0
355,F4,115.0,1.0,71,165.0
356,A3,115.0,1.0,71,165.0
357,E-5,115.25,3/10,76,165.0
358,D5,115.5,3/10,75,165.0
359,C5,115.75,0.25,75,165.0
360,D5,116.0,0.25,79,165.0
361,C5,116.0,1/20,75,165.0
362,B-3,116.0,1.0,81,165.0
363,F4,116.0,1.0,81,165.0
364,B-4,116.25,0.25,74,165.0
365,F5,116.5,0.25,81,165.0
366,D5,116.75,0.25,75,165.0
367,B-5,117.0,0.25,84,165.0
368,F5,117.25,0.25,79,165.0
369,D6,117.5,0.25,82,165.0
370,B-5,117.75,0.25,80,165.0
371,D6,118.0,3/10,78,165.0
372,C6,118.25,3/10,76,165.0
373,B-5,118.5,3/10,75,165.0
374,A5,118.75,3/10,73,165.0
375,G5,119.0,3/10,72,165.0
376,F4,119.0,1.0,51,165.0
377,G4,119.0,1.0,51,165.0
378,B-3,119.0,1.0,51,165.0
379,F5,119.25,3/10,69,165.0
380,E5,119.5,3/10,67,165.0
381,D5,119.75,0.25,65,165.0
382,C5,120.0,2.0,63,165.0
383,D5,120.0,1/20,65,165.0
384,C4,120.0,0.5,55,165.0
385,A4,120.5,0.5,51,165.0
386,F4,121.0,0.5,56,165.0
387,A4,121.5,0.5,51,165.0
388,G5,122.0,167/1000,67,165.0
389,C4,122.0,0.5,55,165.0
390,A5,122.167,167/1000,61,165.0
391,G5,122.333,167/1000,59,165.0
392,A5,122.5,167/1000,67,165.0
393,B-4,122.5,0.5,49,165.0
394,G5,122.667,167/1000,59,165.0
395,A5,122.833,167/1000,59,165.0
396,G5,123.0,167/1000,61,165.0
397,E4,123.0,0.5,55,165.0
398,A5,123.167,167/1000,67,165.0
399,G5,123.333,167/1000,67,165.0
400,F5,123.5,0.25,69,165.0
401,B-4,123.5,0.5,49,165.0
402,G5,123.75,0.25,70,165.0
403,A5,124.0,0.25,72,165.0
404,F4,124.0,1.0,55,165.0
405,B-5,124.25,0.25,74,165.0
406,C6,124.5,0.25,74,165.0
407,B-5,124.75,0.25,72,165.0
408,A5,125.0,0.25,71,165.0
409,G5,125.25,0.25,70,165.0
410,F5,125.5,0.25,68,165.0
411,G4,125.5,0.5,61,165.0
412,E5,125.75,0.25,67,165.0
413,F5,126.0,0.25,69,165.0
414,A4,126.0,1.0,66,165.0
415,G5,126.25,0.25,71,165.0
416,A5,126.5,0.25,72,165.0
417,G5,126.75,0.25,70,165.0
418,F5,127.0,0.25,69,165.0
419,E-5,127.25,0.25,69,165.0
420,D5,127.5,0.25,68,165.0
421,A3,127.5,0.5,60,165.0
422,C#5,127.75,0.25,67,165.0
423,D5,128.0,0.25,67,165.0
424,B-3,128.0,1.0,66,165.0
425,E5,128.25,0.25,70,165.0
426,F5,128.5,0.25,72,165.0
427,E5,128.75,0.25,71,165.0
428,D5,129.0,0.25,70,165.0
429,C5,129.25,0.25,69,165.0
430,B-4,129.5,0.25,68,165.0
431,A4,129.75,0.25,68,165.0
432,G4,130.0,0.25,67,165.0
433,B-1,130.0,1.0,67,165.0
434,B-2,130.0,1.0,67,165.0
435,A4,130.25,0.25,68,165.0
436,B-4,130.5,0.25,69,165.0
437,A4,130.75,0.25,68,165.0
438,G4,131.0,0.25,66,165.0
439,F4,131.25,0.25,65,165.0
440,E4,131.5,0.25,63,165.0
441,D4,131.75,0.25,61,165.0
442,C4,132.0,0.5,60,165.0
443,C3,132.0,0.5,57,165.0
444,D4,132.5,0.25,60,165.0
445,A3,132.5,0.5,54,165.0
446,E4,132.75,0.25,61,165.0
447,F4,133.0,0.25,62,165.0
448,F3,133.0,0.5,57,165.0
449,G4,133.25,0.25,64,165.0
450,A4,133.5,0.25,65,165.0
451,A3,133.5,0.5,54,165.0
452,B-4,133.75,0.25,66,165.0
453,C5,134.0,0.25,67,165.0
454,C3,134.0,0.5,63,165.0
455,D5,134.25,0.25,69,165.0
456,E5,134.5,0.25,70,165.0
457,A3,134.5,0.5,57,165.0
458,F5,134.75,0.25,71,165.0
459,G5,135.0,0.25,73,165.0
460,F3,135.0,0.5,67,165.0
461,A5,135.25,0.25,74,165.0
462,B-5,135.5,0.25,75,165.0
463,A3,135.5,0.5,61,165.0
464,C6,135.75,0.25,77,165.0
465,F5,136.0,167/1000,71,165.0
466,C3,136.0,0.5,57,165.0
467,G5,136.167,167/1000,64,165.0
468,A5,136.333,167/1000,58,165.0
469,G5,136.5,167/1000,64,165.0
470,B-3,136.5,0.5,53,165.0
471,A5,136.667,167/1000,58,165.0
472,G5,136.833,167/1000,65,165.0
473,A5,137.0,167/1000,62,165.0
474,E3,137.0,0.5,57,165.0
475,G5,137.167,167/1000,67,165.0
476,A5,137.333,167/1000,61,165.0
477,G5,137.5,167/1000,68,165.0
478,B-3,137.5,0.5,53,165.0
479,A5,137.667,167/1000,61,165.0
480,G5,137.833,167/1000,69,165.0
481,A5,138.0,167/1000,64,165.0
482,C3,138.0,0.5,57,165.0
483,G5,138.167,167/1000,70,165.0
484,A5,138.333,167/1000,64,165.0
485,G5,138.5,167/1000,70,165.0
486,B-3,138.5,0.5,53,165.0
487,A5,138.667,167/1000,66,165.0
488,G5,138.833,167/1000,69,165.0
489,A5,139.0,0.25,72,165.0
490,E3,139.0,0.5,57,165.0
491,G5,139.25,0.25,72,165.0
492,F5,139.5,0.25,73,165.0
493,B-3,139.5,0.5,52,165.0
494,G5,139.75,0.25,70,165.0
495,F5,140.0,0.25,76,165.0
496,F3,140.0,0.25,57,165.0
497,A3,140.0,0.25,57,165.0
498,F5,140.5,0.25,72,165.0
499,A3,141.0,1.0,47,165.0
500,F3,141.0,1.0,47,165.0
501,F5,141.5,0.25,55,165.0
502,F5,142.0,0.25,57,165.0
503,F5,142.5,0.25,54,165.0
504,A3,143.0,1.0,47,165.0
505,F3,143.0,1.0,47,165.0
506,F5,143.5,0.25,55,165.0
507,F5,144.0,0.25,57,165.0
508,G3,144.0,0.25,50,165.0
509,B-3,144.0,0.25,50,165.0
510,F3,144.0,0.25,50,165.0
511,F5,144.5,0.25,53,165.0
512,F3,145.0,1.0,50,165.0
513,G3,145.0,1.0,50,165.0
514,B-3,145.0,1.0,50,165.0
515,F5,145.5,0.25,60,165.0
516,F5,146.0,0.25,64,165.0
517,F5,146.5,0.25,60,165.0
518,F3,147.0,1.0,54,165.0
519,G#3,147.0,1.0,54,165.0
520,B3,147.0,1.0,54,165.0
521,F5,147.5,0.25,69,165.0
522,F5,148.0,0.25,72,165.0
523,F3,148.0,2.0,55,165.0
524,C4,148.0,1.0,55,165.0
525,A3,148.0,1.0,55,165.0
526,F5,148.5,0.25,69,165.0
527,A3,149.0,1.0,61,165.0
528,C#4,149.0,1.0,61,165.0
529,F5,149.5,0.25,79,165.0
530,F5,150.0,0.25,82,165.0
531,F3,150.0,2.0,66,165.0
532,B-3,150.0,1.0,66,165.0
533,D4,150.0,1.0,66,165.0
534,F5,150.5,0.25,78,165.0
535,B3,151.0,1.0,71,165.0
536,D4,151.0,1.0,71,165.0
537,F5,151.5,0.25,80,165.0
538,F5,152.0,0.5,86,165.0
539,C4,152.0,4.0,77,165.0
540,F3,152.0,4.0,77,165.0
541,E-4,152.0,4.0,77,165.0
542,A5,152.5,0.25,81,165.0
543,A5,153.0,0.5,86,165.0
544,C6,153.5,0.25,81,165.0
545,C6,154.0,0.5,86,165.0
546,E-6,154.5,0.25,81,165.0
547,E-6,155.0,0.5,86,165.0
548,C6,155.5,0.25,75,165.0
549,C6,156.0,0.5,81,165.0
550,A5,156.5,0.25,73,165.0
551,A5,157.0,0.5,79,165.0
552,F5,157.5,0.25,71,165.0
553,F5,158.0,0.5,68,165.0
554,E5,158.5,0.25,57,165.0
555,E5,159.0,0.5,57,165.0
556,F5,159.5,0.25,57,165.0
557,F5,160.002,1.5,67,165.0
558,B-3,161.0,1.0,45,165.0
559,D5,161.5,0.5,53,165.0
560,B-4,162.0,0.25,55,165.0
561,D4,162.0,0.25,48,165.0
562,B-4,163.0,0.25,53,165.0
563,G4,163.0,0.25,46,165.0
564,E-5,164.0,1.0,60,165.0
565,C4,164.0,1.0,52,165.0
566,G5,165.0,0.25,55,165.0
567,E-4,165.0,0.25,46,165.0
568,A4,166.0,1.0,57,165.0
569,F4,166.0,1.0,48,165.0
570,E-4,167.0,1.0,46,165.0
571,C5,168.0,0.5,55,165.0
572,D4,168.0,1.0,53,165.0
573,B-4,168.5,0.25,53,165.0
574,D5,169.0,0.5,57,165.0
575,A3,169.0,1.0,47,165.0
576,C5,169.5,0.25,54,165.0
577,E-5,170.0,0.5,58,165.0
578,B-3,170.0,1.0,51,165.0
579,D5,170.5,0.25,56,165.0
580,F5,171.0,0.5,60,165.0
581,C4,171.0,1.0,49,165.0
582,E-3,171.0,1.0,49,165.0
583,E-5,171.5,0.25,57,165.0
584,D5,172.0,1.5,60,165.0
585,F3,172.0,3.0,52,165.0
586,B-3,172.0,2.0,52,165.0
587,E-5,173.5,0.25,57,165.0
588,D5,173.75,0.25,57,165.0
589,C5,174.0,0.5,52,165.0
590,A3,174.0,1.0,47,165.0
591,D5,174.5,0.5,54,165.0
592,E-5,175.0,0.5,55,165.0
593,E5,175.5,0.5,57,165.0
594,F5,176.0,1.5,59,165.0
595,B-3,177.0,1.0,41,165.0
596,E-5,177.5,167/1000,53,165.0
597,D5,177.667,167/1000,53,165.0
598,C5,177.833,167/1000,53,165.0
599,B-4,178.0,0.25,56,165.0
600,D4,178.0,0.25,47,165.0
601,B-4,179.0,0.25,56,165.0
602,G4,179.0,0.25,45,165.0
603,E-5,180.0,1.0,60,165.0
604,C4,180.0,1.0,51,165.0
605,G5,181.0,0.25,55,165.0
606,E-4,181.0,0.25,47,165.0
607,A4,182.0,1.0,58,165.0
608,F4,182.0,1.0,48,165.0
609,E-4,183.0,1.0,45,165.0
610,A4,183.5,0.5,54,165.0
611,B-4,184.0,0.5,58,165.0
612,D4,184.0,1.0,51,165.0
613,D5,184.5,0.25,55,165.0
614,G4,185.0,0.5,58,165.0
615,E-4,185.0,1.0,47,165.0
616,E-3,185.0,1.0,47,165.0
617,C5,185.5,0.25,55,165.0
618,B-4,186.0,1.0,58,165.0
619,F3,186.0,2.0,50,165.0
620,D4,186.0,1.0,50,165.0
621,A4,187.0,1.0,55,165.0
622,C4,187.0,1.0,48,165.0
623,B-4,188.0,0.5,58,165.0
624,B-3,188.0,1.0,51,165.0
625,F4,188.5,0.25,56,165.0
626,G4,189.0,0.25,60,165.0
627,A4,189.5,0.25,63,165.0
628,B-4,190.0,0.25,67,165.0
629,C5,190.5,0.25,70,165.0
630,D5,191.0,0.25,74,165.0
631,E-5,191.5,0.25,77,165.0
632,B-3,192.0,0.5,64,165.0
633,F5,192.002,1.5,85,165.0
634,F4,192.5,0.5,54,165.0
635,D4,193.0,0.5,59,165.0
636,D5,193.5,0.5,74,165.0
637,F4,193.5,0.5,54,165.0
638,B-4,194.0,0.5,78,165.0
639,G3,194.0,0.5,63,165.0
640,D4,194.5,0.5,55,165.0
641,B-4,195.0,0.5,78,165.0
642,B-3,195.0,0.5,59,165.0
643,D4,195.5,0.5,55,165.0
644,E-5,196.0,1/5,85,165.0
645,E-3,196.0,0.5,64,165.0
646,F5,196.2,1/5,61,165.0
647,E-5,196.4,1/5,61,165.0
648,C4,196.5,0.5,56,165.0
649,D5,196.6,1/5,61,165.0
650,E-5,196.8,1/5,61,165.0
651,G5,197.0,1.0,78,165.0
652,G3,197.0,0.5,59,165.0
653,C4,197.5,0.5,55,165.0
654,A4,198.0,1.0,81,165.0
655,F3,198.0,0.5,64,165.0
656,E-4,198.5,0.5,56,165.0
657,C4,199.0,0.5,60,165.0
658,E-4,199.5,0.5,56,165.0
659,C5,200.0,0.5,78,165.0
660,D4,200.0,1.0,66,165.0
661,B-4,200.5,0.25,71,165.0
662,D5,201.0,0.5,81,165.0
663,D4,201.0,2.0,57,165.0
664,A3,201.0,1.0,57,165.0
665,C5,201.5,0.25,75,165.0
666,E-5,202.0,0.5,82,165.0
667,B-3,202.0,1.0,64,165.0
668,D5,202.5,0.25,77,165.0
669,F5,203.0,0.5,85,165.0
670,E-3,203.0,1.0,64,165.0
671,C4,203.0,1.0,64,165.0
672,E-5,203.5,0.25,81,165.0
673,D5,204.0,1.5,85,165.0
674,B-3,204.0,2.0,65,165.0
675,F3,204.0,3.0,65,165.0
676,E-5,205.5,0.25,78,165.0
677,D5,205.75,0.25,76,165.0
678,C5,206.0,0.5,73,165.0
679,A3,206.0,1.0,60,165.0
680,D5,206.5,0.5,77,165.0
681,E-5,207.0,0.5,78,165.0
682,E5,207.5,0.5,81,165.0
683,F5,208.0,1.5,83,165.0
684,B-3,208.0,0.5,65,165.0
685,F4,208.5,0.5,55,165.0
686,D4,209.0,0.5,60,165.0
687,E-5,209.5,167/1000,74,165.0
688,F4,209.5,0.5,55,165.0
689,D5,209.667,167/1000,74,165.0
690,C5,209.833,167/1000,74,165.0
691,B-4,210.0,0.25,79,165.0
692,G3,210.0,0.25,64,165.0
693,B-4,210.5,0.25,79,165.0
694,D4,210.5,0.25,56,165.0
695,B-4,211.0,0.25,79,165.0
696,B-3,211.0,0.25,60,165.0
697,B-4,211.5,0.25,79,165.0
698,D4,211.5,0.25,55,165.0
699,E-5,212.0,1/5,85,165.0
700,E-3,212.0,0.5,64,165.0
701,F5,212.2,1/5,61,165.0
702,E-5,212.4,1/5,61,165.0
703,C4,212.5,0.5,55,165.0
704,D5,212.6,1/5,61,165.0
705,E-5,212.8,1/5,61,165.0
706,G5,213.0,1.0,78,165.0
707,G3,213.0,0.5,59,165.0
708,C4,213.5,0.5,55,165.0
709,A4,214.0,1.0,82,165.0
710,F3,214.0,0.5,64,165.0
711,E-4,214.5,0.5,55,165.0
712,C4,215.0,0.5,59,165.0
713,A5,215.5,0.5,77,165.0
714,E-4,215.5,0.5,54,165.0
715,B-5,216.0,333/1000,85,165.0
716,D3,216.0,1.0,59,165.0
717,B-3,216.0,2.0,59,165.0
718,F5,216.333,333/1000,75,165.0
719,D5,216.667,333/1000,74,165.0
720,G5,217.0,333/1000,84,165.0
721,E-3,217.0,1.0,56,165.0
722,E-5,217.333,333/1000,75,165.0
723,C5,217.667,333/1000,75,165.0
724,F5,218.0,333/1000,84,165.0
725,F3,218.0,2.0,59,165.0
726,D4,218.0,1.0,59,165.0
727,D5,218.333,333/1000,74,165.0
728,B-4,218.667,333/1000,74,165.0
729,E-5,219.0,333/1000,84,165.0
730,E-4,219.0,1.0,56,165.0
731,C5,219.333,333/1000,74,165.0
732,A4,219.667,333/1000,72,165.0
733,B-4,220.0,1.0,83,165.0
734,D4,220.0,1.0,59,165.0
735,B-3,220.0,1.0,59,165.0
736,B-2,221.0,1.0,63,165.0
737,F4,221.5,0.5,55,165.0
738,B-4,222.0,0.25,58,165.0
739,A4,222.5,0.25,52,165.0
740,B-4,223.0,0.25,55,165.0
741,C5,223.5,0.25,51,165.0
742,D5,224.0,0.25,55,165.0
743,B-3,225.0,0.375,46,165.0
744,B-4,225.0,0.375,56,165.0
745,D5,225.0,0.375,56,165.0
746,G3,226.0,1.0,48,165.0
747,B-4,226.0,1.0,59,165.0
748,D5,226.0,1.0,59,165.0
749,E-3,227.0,1.0,46,165.0
750,C5,227.0,1.0,55,165.0
751,E-5,227.0,1.0,55,165.0
752,F3,228.0,1.0,47,165.0
753,C5,228.0,1.0,54,165.0
754,A4,228.0,1.0,54,165.0
755,F2,229.0,1.0,57,165.0
756,F4,229.5,0.5,55,165.0
757,C5,230.0,0.25,57,165.0
758,B-4,230.5,0.25,54,165.0
759,C5,231.0,0.25,56,165.0
760,D5,231.5,0.25,54,165.0
761,E-5,232.0,0.25,56,165.0
762,C4,233.0,0.375,45,165.0
763,G4,233.0,0.375,56,165.0
764,E-5,233.0,0.375,56,165.0
765,A3,234.0,1.0,45,165.0
766,E-5,234.0,0.938,58,165.0
767,C5,234.0,0.938,58,165.0
768,F3,235.0,1.0,42,165.0
769,F5,235.0,1.0,56,165.0
770,A4,235.0,1.0,56,165.0
771,B-3,236.0,1.0,46,165.0
772,D5,236.0,1.0,54,165.0
773,B-4,236.0,1.0,54,165.0
774,B-2,237.0,1.0,58,165.0
775,B-4,237.5,0.5,58,165.0
776,D5,238.0,0.25,64,165.0
777,C5,238.5,0.25,59,165.0
778,D5,239.0,0.25,64,165.0
779,E-5,239.5,0.25,67,165.0
780,F5,240.0,0.75,71,165.0
781,F5,241.0,0.75,76,165.0
782,D4,241.0,0.75,53,165.0
783,B-3,241.0,0.75,53,165.0
784,F5,242.0,0.75,79,165.0
785,B-3,242.0,0.75,56,165.0
786,D4,242.0,0.75,56,165.0
787,F5,243.0,0.75,82,165.0
788,D4,243.0,0.75,60,165.0
789,B-3,243.0,0.75,60,165.0
790,F#5,244.0,4.0,91,165.0
791,A3,244.0,2.0,68,165.0
792,C4,244.0,2.0,68,165.0
793,C5,244.5,0.5,59,165.0
794,D5,245.0,0.5,59,165.0
795,E-5,245.5,9/25,63,165.0
796,E-5,246.0,0.5,63,165.0
797,A3,246.0,2.0,54,165.0
798,D3,246.0,2.0,54,165.0
799,D5,246.5,0.375,62,165.0
800,D5,247.0,0.5,61,165.0
801,C5,247.5,0.375,57,165.0
802,E-3,248.0,4.0,53,165.0
803,B-4,248.0,2.0,70,165.0
804,G5,248.0,2.0,70,165.0
805,G3,248.5,0.5,52,165.0
806,A3,249.0,0.5,54,165.0
807,B-3,249.5,9/25,57,165.0
808,C#5,250.0,2.0,64,165.0
809,B-3,250.0,0.5,57,165.0
810,A3,250.5,9/25,55,165.0
811,A3,251.0,0.5,55,165.0
812,G3,251.5,0.375,54,165.0
813,D5,252.0,1.0,69,165.0
814,D3,252.0,1.0,47,165.0
815,F#3,252.0,1.0,47,165.0
816,D4,253.75,0.25,63,165.0
817,D5,254.0,0.938,80,165.0
818,D5,255.0,1.0,76,165.0
819,B-5,256.0,1.5,85,165.0
820,G3,256.0,0.5,58,165.0
821,B-3,256.5,0.5,50,165.0
822,D4,257.0,0.5,54,165.0
823,A5,257.5,167/1000,75,165.0
824,B-3,257.5,0.5,50,165.0
825,G5,257.667,167/1000,72,165.0
826,F#5,257.833,167/1000,72,165.0
827,G5,258.0,1.0,79,165.0
828,G3,258.0,0.5,54,165.0
829,B-3,258.5,0.5,47,165.0
830,D5,259.0,1.0,73,165.0
831,D4,259.0,0.5,50,165.0
832,B-3,259.5,0.5,47,165.0
833,E-5,260.0,1.0,80,165.0
834,G3,260.0,0.5,58,165.0
835,C4,260.5,0.5,51,165.0
836,E-4,261.0,0.5,54,165.0
837,C4,261.5,0.5,51,165.0
838,G4,261.75,0.25,71,165.0
839,G5,262.0,0.938,86,165.0
840,G3,262.0,0.5,53,165.0
841,C4,262.5,0.5,49,165.0
842,G5,263.0,1.0,83,165.0
843,E-4,263.0,0.5,51,165.0
844,C4,263.5,0.5,48,165.0
845,E-6,264.0,1.5,101,165.0
846,F3,264.0,0.5,58,165.0
847,C4,264.5,0.5,51,165.0
848,E-4,265.0,0.5,54,165.0
849,D6,265.5,167/1000,75,165.0
850,C4,265.5,0.5,51,165.0
851,C6,265.667,167/1000,71,165.0
852,B5,265.833,167/1000,71,165.0
853,C6,266.0,1.0,79,165.0
854,G3,266.0,0.5,56,165.0
855,C4,266.5,0.5,50,165.0
856,E-5,267.0,1.0,78,165.0
857,E-4,267.0,0.5,52,165.0
858,C4,267.5,0.5,49,165.0
859,D5,268.0,1.0,74,165.0
860,G3,268.0,0.5,53,165.0
861,B-3,268.5,0.5,50,165.0
862,D4,269.0,0.5,50,165.0
863,C#5,269.5,0.5,69,165.0
864,D5,270.0,0.5,73,165.0
865,B-5,270.5,0.25,72,165.0
866,A5,271.0,0.25,71,165.0
867,G5,271.5,0.25,69,165.0
868,F#5,272.0,0.75,74,165.0
869,C4,272.0,1.0,50,165.0
870,A3,272.0,1.0,50,165.0
871,E-4,272.0,1.0,50,165.0
872,G5,272.75,0.125,64,165.0
873,A5,272.875,0.125,64,165.0
874,G5,273.0,0.25,78,165.0
875,B-3,273.0,0.5,46,165.0
876,D4,273.0,0.5,46,165.0
877,G5,273.5,0.25,74,165.0
878,C#6,274.0,0.5,83,165.0
879,D6,274.5,0.5,78,165.0
880,B-5,275.0,0.25,74,165.0
881,G5,275.5,0.25,74,165.0
882,F#5,276.0,0.75,77,165.0
883,E-4,276.0,1.0,49,165.0
884,A3,276.0,1.0,49,165.0
885,C4,276.0,1.0,49,165.0
886,G5,276.75,0.125,66,165.0
887,A5,276.875,0.125,66,165.0
888,G5,277.0,0.25,77,165.0
889,B-3,277.0,0.5,45,165.0
890,D4,277.0,0.5,45,165.0
891,D5,277.5,0.5,67,165.0
892,G5,278.0,0.25,71,165.0
893,G5,278.5,0.25,71,165.0
894,G5,279.0,0.25,71,165.0
895,G5,279.5,0.25,71,165.0
896,G5,280.0,0.75,78,165.0
897,E-3,280.0,4.0,53,165.0
898,B-3,280.0,2.0,53,165.0
899,A5,280.75,0.125,63,165.0
900,B-5,280.875,0.125,63,165.0
901,A5,281.0,0.25,75,165.0
902,G5,281.5,0.25,72,165.0
903,F5,282.0,0.25,72,165.0
904,G3,282.0,2.0,47,165.0
905,E-5,282.5,0.25,70,165.0
906,D5,283.0,0.25,68,165.0
907,C#5,283.5,0.25,67,165.0
908,C#5,284.0,0.5,71,165.0
909,F#3,284.0,977/1000,40,165.0
910,A3,284.0,977/1000,40,165.0
911,D5,284.5,0.5,68,165.0
912,D5,285.0,0.75,59,165.0
913,D3,285.0,0.75,30,165.0
914,F#3,285.0,0.75,30,165.0
915,A3,285.0,0.75,30,165.0
916,D5,286.0,0.75,58,165.0
917,D3,286.0,0.75,31,165.0
918,F#3,286.0,0.75,31,165.0
919,A3,286.0,0.75,31,165.0
920,D5,287.0,0.75,54,165.0
921,D3,287.0,0.75,30,165.0
922,F#3,287.0,0.75,30,165.0
923,A3,287.0,0.75,30,165.0
924,C#5,288.0,167/1000,40,165.0
925,D5,288.167,167/1000,44,165.0
926,E-5,288.333,167/1000,49,165.0
927,D5,288.5,3.5,62,165.0
928,F3,289.0,0.75,30,165.0
929,A3,289.0,0.75,30,165.0
930,D3,289.0,0.75,30,165.0
931,F3,290.0,0.75,30,165.0
932,A3,290.0,0.75,30,165.0
933,D3,290.0,0.75,30,165.0
934,F3,291.0,0.75,29,165.0
935,A3,291.0,0.75,29,165.0
936,D3,291.0,0.75,29,165.0
937,F5,292.0,4.0,72,165.0
938,D3,293.0,0.75,42,165.0
939,B-3,293.0,0.75,42,165.0
940,F3,293.0,0.75,42,165.0
941,D3,294.0,0.75,46,165.0
942,F3,294.0,0.75,46,165.0
943,B-3,294.0,0.75,46,165.0
944,D3,295.0,0.75,50,165.0
945,F3,295.0,0.75,50,165.0
946,B-3,295.0,0.75,50,165.0
947,D4,296.0,4.0,74,165.0
948,G#3,296.0,4.0,74,165.0
949,F3,297.0,0.75,52,165.0
950,B-2,297.0,0.75,52,165.0
951,B-2,298.0,0.75,56,165.0
952,F3,298.0,0.75,56,165.0
953,F3,299.0,0.75,52,165.0
954,B-2,299.0,0.75,52,165.0
955,G3,300.0,1.0,74,165.0
956,E-4,300.0,2.75,74,165.0
957,E-2,300.0,1.0,56,165.0
958,E-3,300.0,1.0,56,165.0
959,E-3,301.0,1.0,46,165.0
960,G3,302.0,1.0,41,165.0
961,B-3,302.75,0.25,45,165.0
962,D4,303.0,0.75,49,165.0
963,G#3,303.0,1.0,38,165.0
964,B-3,303.75,0.25,46,165.0
965,E-4,304.0,0.75,52,165.0
966,G3,304.0,1.0,44,165.0
967,B-3,304.75,0.25,49,165.0
968,F4,305.0,0.75,51,165.0
969,D3,305.0,1.0,35,165.0
970,B-3,305.75,0.25,51,165.0
971,G4,306.0,0.75,53,165.0
972,E-3,306.0,1.0,41,165.0
973,B-3,306.75,0.25,54,165.0
974,G#4,307.0,0.75,56,165.0
975,F3,307.0,1.0,46,165.0
976,B-3,307.75,0.25,54,165.0
977,F4,308.0,2.75,57,165.0
978,B-2,309.0,1.0,41,165.0
979,D3,310.0,1.0,45,165.0
980,B-3,310.75,0.25,50,165.0
981,E4,311.0,0.75,52,165.0
982,C#3,311.0,1.0,41,165.0
983,B-3,311.75,0.25,53,165.0
984,F4,312.0,0.75,55,165.0
985,D3,312.0,1.0,47,165.0
986,B-3,312.75,0.25,51,165.0
987,G4,313.0,0.75,52,165.0
988,E3,313.0,1.0,38,165.0
989,B-3,313.75,0.25,54,165.0
990,G#4,314.0,0.75,56,165.0
991,F3,314.0,1.0,42,165.0
992,B-3,314.75,0.25,56,165.0
993,B-4,315.0,0.75,57,165.0
994,D3,315.0,1.0,48,165.0
995,B-3,315.75,0.25,55,165.0
996,G4,316.0,1.0,58,165.0
997,E-3,316.0,1.0,50,165.0
998,E-2,317.0,1.0,45,165.0
999,B-4,317.5,0.25,63,165.0
1000,E-5,318.0,0.75,67,165.0
1001,F5,318.75,0.25,69,165.0
1002,G5,319.0,0.75,72,165.0
1003,G3,319.0,1.0,49,165.0
1004,E-4,319.0,1.0,49,165.0
1005,B-4,319.75,0.125,63,165.0
1006,C5,320.0,0.75,66,165.0
1007,D5,320.75,0.25,68,165.0
1008,E-5,321.0,0.75,71,165.0
1009,G#3,321.0,1.0,47,165.0
1010,E-4,321.0,1.0,47,165.0
1011,G4,321.75,0.125,63,165.0
1012,G#4,322.0,0.75,65,165.0
1013,B-4,322.75,0.25,67,165.0
1014,C5,323.0,0.75,70,165.0
1015,C4,323.0,1.0,46,165.0
1016,E-4,323.0,1.0,46,165.0
1017,G#4,323.75,0.125,63,165.0
1018,G4,324.0,1.0,61,165.0
1019,B-3,324.0,0.5,46,165.0
1020,E-4,324.0,0.5,46,165.0
1021,B-2,325.0,0.5,58,165.0
1022,B-4,325.5,0.25,63,165.0
1023,E-5,326.0,0.75,65,165.0
1024,F5,326.75,0.25,67,165.0
1025,G5,327.0,0.75,70,165.0
1026,G3,327.0,1.0,47,165.0
1027,E-4,327.0,1.0,47,165.0
1028,B4,327.75,0.125,63,165.0
1029,C5,328.0,0.75,66,165.0
1030,D5,328.75,0.25,67,165.0
1031,E-5,329.0,0.75,71,165.0
1032,G#3,329.0,1.0,47,165.0
1033,E-4,329.0,1.0,47,165.0
1034,G4,329.75,0.125,61,165.0
1035,G#4,330.0,0.75,63,165.0
1036,B-4,330.75,0.25,64,165.0
1037,C5,331.0,0.75,68,165.0
1038,E-4,331.0,1.0,47,165.0
1039,C4,331.0,1.0,47,165.0
1040,G#4,331.75,0.125,61,165.0
1041,G4,332.0,1.0,57,165.0
1042,E-4,332.0,0.5,52,165.0
1043,B-3,332.0,0.5,52,165.0
1044,B-2,333.0,0.5,62,165.0
1045,G4,333.5,0.5,49,165.0
1046,B-4,334.0,0.5,53,165.0
1047,A4,334.5,0.5,49,165.0
1048,C4,335.0,1.0,47,165.0
1049,E-4,335.0,1.0,47,165.0
1050,A4,335.5,0.5,54,165.0
1051,C5,336.0,0.5,58,165.0
1052,B-4,336.5,0.5,55,165.0
1053,E-4,337.0,1.0,49,165.0
1054,G3,337.0,1.0,49,165.0
1055,B4,337.5,0.5,61,165.0
1056,D5,338.0,0.5,66,165.0
1057,G#3,338.0,1.0,52,165.0
1058,E-4,338.0,1.0,52,165.0
1059,C5,338.5,0.25,60,165.0
1060,E-5,339.0,0.5,71,165.0
1061,G#3,339.0,1.0,55,165.0
1062,F3,339.0,1.0,55,165.0
1063,D5,339.5,0.25,62,165.0
1064,F5,340.0,0.5,74,165.0
1065,B-3,340.0,1.0,56,165.0
1066,G3,340.0,1.0,56,165.0
1067,E-5,340.5,0.25,63,165.0
1068,F5,341.0,0.5,79,165.0
1069,G3,341.0,1.0,57,165.0
1070,B-3,341.0,1.0,57,165.0
1071,E5,341.5,0.25,69,165.0
1072,G5,342.0,0.5,86,165.0
1073,F3,342.0,1.0,57,165.0
1074,G#3,342.0,1.0,57,165.0
1075,B-3,342.0,1.0,57,165.0
1076,F5,342.5,0.25,74,165.0
1077,G#5,343.0,0.5,91,165.0
1078,E-3,343.0,1.0,59,165.0
1079,G3,343.0,1.0,59,165.0
1080,B-3,343.0,1.0,59,165.0
1081,G5,343.5,0.25,83,165.0
1082,B-5,344.0,0.5,99,165.0
1083,D3,344.0,1.0,65,165.0
1084,F3,344.0,1.0,65,165.0
1085,B-3,344.0,1.0,65,165.0
1086,G#5,344.5,0.25,83,165.0
1087,F5,347.5,0.5,49,165.0
1088,G5,348.0,0.75,52,165.0
1089,E-4,348.0,1.0,48,165.0
1090,B-4,348.0,1.0,48,165.0
1091,E-5,348.75,0.25,49,165.0
1092,C5,349.0,0.75,53,165.0
1093,G#4,349.0,1.0,47,165.0
1094,G#3,349.0,1.0,47,165.0
1095,F5,349.75,0.25,49,165.0
1096,E-5,350.0,1.0,53,165.0
1097,B-3,350.0,2.0,48,165.0
1098,G4,350.0,1.0,48,165.0
1099,D5,351.0,1.0,49,165.0
1100,F4,351.0,1.0,45,165.0
1101,B-5,352.0,0.5,97,165.0
1102,D3,352.0,1.0,68,165.0
1103,F3,352.0,1.0,68,165.0
1104,B-3,352.0,1.0,68,165.0
1105,G#5,352.5,0.5,87,165.0
1106,F5,355.5,0.5,48,165.0
1107,G5,356.0,0.75,51,165.0
1108,E-4,356.0,1.0,46,165.0
1109,B-4,356.0,1.0,46,165.0
1110,E-5,356.75,0.25,48,165.0
1111,C5,357.0,0.75,51,165.0
1112,G#4,357.0,1.0,43,165.0
1113,G#3,357.0,1.0,43,165.0
1114,F5,357.75,0.25,48,165.0
1115,E-5,358.0,1.0,51,165.0
1116,B-3,358.0,2.0,46,165.0
1117,G4,358.0,1.0,46,165.0
1118,D5,359.0,1.0,48,165.0
1119,F4,359.0,1.0,43,165.0
1120,G4,360.0,0.25,69,165.0
1121,G5,360.25,1.25,74,165.0
1122,E-5,361.5,0.5,56,165.0
1123,C5,362.0,0.5,51,165.0
1124,G4,362.0,2.0,44,165.0
1125,E-4,362.0,2.0,44,165.0
1126,C5,363.0,0.5,47,165.0
1127,F5,364.0,1.0,55,165.0
1128,B4,364.0,2.0,49,165.0
1129,D4,364.0,2.0,49,165.0
1130,G#5,365.0,1.0,56,165.0
1131,B4,366.0,0.5,46,165.0
1132,F4,366.0,1.0,46,165.0
1133,G#4,366.0,1.0,46,165.0
1134,B4,367.5,0.5,46,165.0
1135,D5,368.0,0.5,52,165.0
1136,G4,368.0,4.0,40,165.0
1137,E-4,368.0,1.0,40,165.0
1138,C5,368.5,0.5,49,165.0
1139,E-5,369.0,0.5,55,165.0
1140,B3,369.0,1.0,42,165.0
1141,D5,369.5,0.5,50,165.0
1142,F5,370.0,0.5,58,165.0
1143,C4,370.0,1.0,45,165.0
1144,E-5,370.5,0.5,53,165.0
1145,D4,371.0,1.0,46,165.0
1146,B4,371.5,0.5,46,165.0
1147,D5,372.0,0.5,50,165.0
1148,G4,372.0,3.0,42,165.0
1149,E-4,372.0,1.0,42,165.0
1150,C5,372.5,0.5,48,165.0
1151,E-5,373.0,0.5,55,165.0
1152,B3,373.0,1.0,46,165.0
1153,D5,373.5,0.5,51,165.0
1154,F5,374.0,0.5,58,165.0
1155,C4,374.0,1.0,49,165.0
1156,E-5,374.5,0.5,51,165.0
1157,F5,375.0,0.5,62,165.0
1158,E5,375.5,0.5,56,165.0
1159,F5,376.0,1.5,75,165.0
1160,D5,377.5,0.5,44,165.0
1161,B-4,378.0,0.5,48,165.0
1162,F4,378.0,2.0,41,165.0
1163,D4,378.0,2.0,41,165.0
1164,B-4,379.0,0.5,48,165.0
1165,E-5,380.0,1.0,52,165.0
1166,A4,380.0,2.0,49,165.0
1167,C4,380.0,2.0,49,165.0
1168,F#5,381.0,1.0,49,165.0
1169,A4,382.0,0.5,52,165.0
1170,F#4,382.0,1.0,40,165.0
1171,E-4,382.0,1.0,40,165.0
1172,A4,383.5,0.5,44,165.0
1173,C5,384.0,0.5,49,165.0
1174,C#4,384.0,1.0,42,165.0
1175,F4,384.0,4.0,42,165.0
1176,B-4,384.5,0.5,47,165.0
1177,C#5,385.0,0.5,51,165.0
1178,A3,385.0,1.0,44,165.0
1179,C5,385.5,0.5,47,165.0
1180,E-5,386.0,0.5,54,165.0
1181,B-3,386.0,1.0,47,165.0
1182,C#5,386.5,0.5,51,165.0
1183,C4,387.0,1.0,42,165.0
1184,A4,387.5,0.5,45,165.0
1185,C5,388.0,0.5,50,165.0
1186,C#4,388.0,1.0,43,165.0
1187,F4,388.0,3.0,43,165.0
1188,B-4,388.5,0.5,45,165.0
1189,C#5,389.0,0.5,52,165.0
1190,A3,389.0,1.0,46,165.0
1191,C5,389.5,0.5,48,165.0
1192,E-5,390.0,0.5,55,165.0
1193,B-3,390.0,1.0,48,165.0
1194,C#5,390.5,0.5,50,165.0
1195,B-3,391.0,1.0,44,165.0
1196,F4,391.0,1.0,44,165.0
1197,C#5,391.5,0.25,51,165.0
1198,C#5,392.0,0.5,55,165.0
1199,B4,392.5,0.5,52,165.0
1200,F4,393.0,1.0,49,165.0
1201,G#3,393.0,1.0,49,165.0
1202,B4,393.5,19/40,48,165.0
1203,B4,394.0,0.5,53,165.0
1204,B-4,394.5,0.5,49,165.0
1205,F#3,395.0,1.0,49,165.0
1206,C#4,395.0,1.0,49,165.0
1207,B-4,395.5,19/40,52,165.0
1208,B-4,396.0,0.5,71,165.0
1209,G#5,396.5,0.5,73,165.0
1210,F3,397.0,1.0,49,165.0
1211,D4,397.0,1.0,49,165.0
1212,G#5,397.5,19/40,74,165.0
1213,G#5,398.0,0.5,78,165.0
1214,F#5,398.5,0.5,75,165.0
1215,E-4,399.0,1.0,58,165.0
1216,E-3,399.0,1.0,58,165.0
1217,F#5,399.5,19/40,76,165.0
1218,F#5,400.0,0.5,81,165.0
1219,F5,400.5,0.5,78,165.0
1220,F3,401.0,1.0,66,165.0
1221,C#4,401.0,1.0,66,165.0
1222,F5,401.5,19/40,84,165.0
1223,F5,402.0,0.5,89,165.0
1224,E5,402.5,0.5,84,165.0
1225,C#4,403.0,1.0,71,165.0
1226,F#3,403.0,1.0,71,165.0
1227,E5,403.5,0.5,91,165.0
1228,B-5,404.0,0.5,93,165.0
1229,E4,404.0,2.0,71,165.0
1230,F#3,404.0,4.0,71,165.0
1231,C6,404.5,167/1000,76,165.0
1232,B-5,404.667,167/1000,78,165.0
1233,A5,404.833,167/1000,80,165.0
1234,B-5,405.0,0.5,79,165.0
1235,C6,405.5,0.5,86,165.0
1236,C#6,406.0,1.0,92,165.0
1237,B-3,406.0,2.0,76,165.0
1238,E5,407.0,1.0,89,165.0
1239,F5,408.0,0.5,91,165.0
1240,A3,408.0,2.0,74,165.0
1241,F3,408.0,4.0,74,165.0
1242,E5,408.5,0.5,79,165.0
1243,F5,409.0,0.5,85,165.0
1244,C5,409.5,0.5,74,165.0
1245,E-5,410.0,0.5,78,165.0
1246,B-3,410.0,2.0,65,165.0
1247,C#5,410.5,0.5,70,165.0
1248,C5,411.0,0.5,68,165.0
1249,B-4,411.5,0.5,64,165.0
1250,F#5,412.0,0.5,76,165.0
1251,A3,412.0,2.0,59,165.0
1252,F3,412.0,4.0,59,165.0
1253,F5,412.5,0.5,71,165.0
1254,E5,413.0,0.5,71,165.0
1255,F5,413.5,0.5,61,165.0
1256,E-5,414.0,0.5,66,165.0
1257,B-3,414.0,2.0,47,165.0
1258,C#5,414.5,0.5,60,165.0
1259,C5,415.0,0.5,56,165.0
1260,B-4,415.5,0.5,53,165.0
1261,F4,416.0,19/40,47,165.0
1262,A4,416.0,1.0,50,165.0
1263,C5,416.0,1.0,50,165.0
1264,F4,416.5,0.5,47,165.0
1265,B-4,417.0,1.0,62,165.0
1266,C#5,417.0,1.0,62,165.0
1267,F4,417.5,19/40,45,165.0
1268,F4,418.0,19/40,47,165.0
1269,C5,418.0,1.0,57,165.0
1270,A4,418.0,1.0,57,165.0
1271,F4,418.5,0.5,47,165.0
1272,B-4,419.0,1.0,62,165.0
1273,E5,419.0,1.0,62,165.0
1274,F4,419.5,19/40,44,165.0
1275,F4,420.0,19/40,47,165.0
1276,F5,420.0,1.0,65,165.0
1277,A4,420.0,1.0,65,165.0
1278,F4,420.5,0.5,47,165.0
1279,C#5,421.0,1.0,62,165.0
1280,B-4,421.0,1.0,62,165.0
1281,F4,421.5,19/40,44,165.0
1282,F4,422.0,19/40,47,165.0
1283,C5,422.0,1.0,57,165.0
1284,A4,422.0,1.0,57,165.0
1285,F4,422.5,0.5,47,165.0
1286,B-4,423.0,1.0,62,165.0
1287,E5,423.0,1.0,62,165.0
1288,F4,423.5,19/40,47,165.0
1289,F5,424.0,19/40,68,165.0
1290,A4,424.0,19/40,68,165.0
1291,F3,424.0,981/1000,53,165.0
1292,F4,424.0,981/1000,53,165.0
1293,F5,424.5,0.5,68,165.0
1294,F3,425.0,1.0,50,165.0
1295,A3,425.0,1.0,50,165.0
1296,F5,425.5,19/40,60,165.0
1297,F5,426.0,19/40,64,165.0
1298,F5,426.5,0.5,60,165.0
1299,F3,427.0,1.0,50,165.0
1300,A3,427.0,1.0,50,165.0
1301,F5,427.5,19/40,60,165.0
1302,F5,428.0,19/40,63,165.0
1303,F3,428.0,981/1000,53,165.0
1304,G3,428.0,981/1000,53,165.0
1305,B-3,428.0,981/1000,53,165.0
1306,F5,428.5,0.5,60,165.0
1307,F3,429.0,1.0,50,165.0
1308,B-3,429.0,1.0,50,165.0
1309,G3,429.0,1.0,50,165.0
1310,F5,429.5,19/40,64,165.0
1311,F5,430.0,19/40,67,165.0
1312,F5,430.5,0.5,64,165.0
1313,F3,431.0,1.0,54,165.0
1314,B3,431.0,1.0,54,165.0
1315,G#3,431.0,1.0,54,165.0
1316,F5,431.5,19/40,69,165.0
1317,F5,432.0,19/40,72,165.0
1318,F3,432.0,2.0,55,165.0
1319,C4,432.0,1.0,55,165.0
1320,A3,432.0,1.0,55,165.0
1321,F5,432.5,0.5,74,165.0
1322,A3,433.0,1.0,61,165.0
1323,C#4,433.0,1.0,61,165.0
1324,F5,433.5,19/40,79,165.0
1325,F5,434.0,19/40,82,165.0
1326,F3,434.0,2.0,66,165.0
1327,D4,434.0,1.0,66,165.0
1328,B-3,434.0,1.0,66,165.0
1329,F5,434.5,0.5,84,165.0
1330,B3,435.0,1.0,71,165.0
1331,D4,435.0,1.0,71,165.0
1332,F5,435.5,19/40,86,165.0
1333,F5,436.0,0.25,86,165.0
1334,E-4,436.0,4.0,77,165.0
1335,C4,436.0,4.0,77,165.0
1336,F3,436.0,4.0,77,165.0
1337,F4,436.5,0.5,67,165.0
1338,E4,437.0,0.5,66,165.0
1339,F4,437.5,0.5,65,165.0
1340,F#4,438.0,0.5,64,165.0
1341,G4,438.5,0.5,63,165.0
1342,G#4,439.0,0.5,62,165.0
1343,A4,439.5,0.5,61,165.0
1344,B-4,440.0,0.5,60,165.0
1345,B4,440.5,0.5,59,165.0
1346,C5,441.0,0.5,58,165.0
1347,C#5,441.5,0.5,57,165.0
1348,D5,442.0,0.5,56,165.0
1349,E-5,442.5,0.5,55,165.0
1350,E5,443.0,0.5,54,165.0
1351,F5,443.5,479/1000,52,165.0
1352,F5,444.002,1.5,66,165.0
1353,B-3,445.0,1.0,42,165.0
1354,D5,445.5,0.5,53,165.0
1355,B-4,446.0,0.25,55,165.0
1356,D4,446.0,0.25,48,165.0
1357,B-4,447.0,0.25,55,165.0
1358,G4,447.0,0.25,46,165.0
1359,E-5,448.0,1.0,60,165.0
1360,C4,448.0,1.0,52,165.0
1361,G5,449.0,0.25,55,165.0
1362,E-4,449.0,0.25,46,165.0
1363,A4,450.0,1.0,57,165.0
1364,F4,450.0,1.0,48,165.0
1365,E-4,451.0,1.0,47,165.0
1366,C5,452.0,0.5,55,165.0
1367,D4,452.0,1.0,53,165.0
1368,B-4,452.5,0.25,53,165.0
1369,D5,453.0,0.5,57,165.0
1370,A3,453.0,1.0,47,165.0
1371,C5,453.5,0.25,54,165.0
1372,E-5,454.0,0.5,58,165.0
1373,B-3,454.0,1.0,51,165.0
1374,D5,454.5,0.25,56,165.0
1375,F5,455.0,0.5,60,165.0
1376,E-3,455.0,1.0,51,165.0
1377,C4,455.0,1.0,51,165.0
1378,E-5,455.5,0.25,57,165.0
1379,D5,456.0,1.5,60,165.0
1380,B-3,456.0,2.0,52,165.0
1381,F3,456.0,3.0,52,165.0
1382,E-5,457.5,0.25,57,165.0
1383,D5,457.75,0.25,55,165.0
1384,C5,458.0,0.5,52,165.0
1385,A3,458.0,1.0,47,165.0
1386,D5,458.5,0.5,54,165.0
1387,E-5,459.0,0.5,55,165.0
1388,E5,459.5,0.5,57,165.0
1389,F5,460.0,1.5,59,165.0
1390,B-3,461.0,1.0,45,165.0
1391,E-5,461.5,167/1000,53,165.0
1392,D5,461.667,167/1000,53,165.0
1393,C5,461.833,167/1000,53,165.0
1394,B-4,462.0,0.25,56,165.0
1395,D4,462.0,0.25,47,165.0
1396,B-4,463.0,0.25,56,165.0
1397,G4,463.0,0.25,47,165.0
1398,E-5,464.0,1.0,60,165.0
1399,C4,464.0,1.0,51,165.0
1400,G5,465.0,0.25,55,165.0
1401,E-4,465.0,0.25,46,165.0
1402,A4,466.0,1.0,58,165.0
1403,F4,466.0,1.0,48,165.0
1404,E-4,467.0,1.0,48,165.0
1405,A4,467.5,0.5,54,165.0
1406,B-4,468.0,0.5,58,165.0
1407,D4,468.0,1.0,51,165.0
1408,D5,468.5,0.25,55,165.0
1409,G4,469.0,0.5,58,165.0
1410,E-3,469.0,1.0,47,165.0
1411,E-4,469.0,1.0,47,165.0
1412,C5,469.5,0.25,55,165.0
1413,B-4,470.0,1.0,58,165.0
1414,D4,470.0,1.0,50,165.0
1415,F3,470.0,2.0,50,165.0
1416,A4,471.0,1.0,55,165.0
1417,C4,471.0,1.0,48,165.0
1418,B-4,472.0,0.5,58,165.0
1419,B-3,472.0,1.0,51,165.0
1420,F4,472.5,0.25,56,165.0
1421,G4,473.0,0.25,60,165.0
1422,A4,473.5,0.25,63,165.0
1423,B-4,474.0,0.25,67,165.0
1424,C5,474.5,0.25,70,165.0
1425,D5,475.0,0.25,74,165.0
1426,E-5,475.5,0.25,77,165.0
1427,B-3,476.0,0.5,64,165.0
1428,F5,476.002,1.5,85,165.0
1429,F4,476.5,0.5,56,165.0
1430,D4,477.0,0.5,59,165.0
1431,D5,477.5,0.5,74,165.0
1432,F4,477.5,0.5,56,165.0
1433,B-4,478.0,0.5,78,165.0
1434,G3,478.0,0.5,63,165.0
1435,D4,478.5,0.5,57,165.0
1436,B-4,479.0,0.5,78,165.0
1437,B-3,479.0,0.5,59,165.0
1438,D4,479.5,0.5,56,165.0
1439,E-5,480.0,1/5,85,165.0
1440,E-3,480.0,0.5,64,165.0
1441,F5,480.2,1/5,61,165.0
1442,E-5,480.4,1/5,61,165.0
1443,C4,480.5,0.5,56,165.0
1444,D5,480.6,1/5,61,165.0
1445,E-5,480.8,1/5,61,165.0
1446,G5,481.0,1.0,78,165.0
1447,G3,481.0,0.5,59,165.0
1448,C4,481.5,0.5,56,165.0
1449,A4,482.0,1.0,81,165.0
1450,F3,482.0,0.5,64,165.0
1451,E-4,482.5,0.5,57,165.0
1452,C4,483.0,0.5,60,165.0
1453,E-4,483.5,0.5,57,165.0
1454,C5,484.0,0.5,78,165.0
1455,D4,484.0,1.0,66,165.0
1456,B-4,484.5,0.25,73,165.0
1457,D5,485.0,0.5,81,165.0
1458,F4,485.0,2.0,60,165.0
1459,A3,485.0,1.0,60,165.0
1460,C5,485.5,0.25,75,165.0
1461,E-5,486.0,0.5,82,165.0
1462,B-3,486.0,1.0,64,165.0
1463,D5,486.5,0.25,77,165.0
1464,F5,487.0,0.5,85,165.0
1465,E-3,487.0,1.0,58,165.0
1466,C4,487.0,1.0,58,165.0
1467,E-5,487.5,0.25,81,165.0
1468,D5,488.0,1.5,85,165.0
1469,B-3,488.0,2.0,65,165.0
1470,F3,488.0,3.0,65,165.0
1471,E-5,489.5,0.25,81,165.0
1472,D5,489.75,0.25,76,165.0
1473,C5,490.0,0.5,73,165.0
1474,A3,490.0,1.0,60,165.0
1475,D5,490.5,0.5,77,165.0
1476,E-5,491.0,0.5,78,165.0
1477,E5,491.5,0.5,81,165.0
1478,F5,492.0,1.5,83,165.0
1479,B-3,492.0,0.5,65,165.0
1480,F4,492.5,0.5,57,165.0
1481,D4,493.0,0.5,60,165.0
1482,E-5,493.5,167/1000,74,165.0
1483,F4,493.5,0.5,56,165.0
1484,D5,493.667,167/1000,74,165.0
1485,C5,493.833,167/1000,74,165.0
1486,B-4,494.0,0.25,79,165.0
1487,G3,494.0,0.25,64,165.0
1488,B-4,494.5,0.25,76,165.0
1489,D4,494.5,0.25,57,165.0
1490,B-4,495.0,0.25,79,165.0
1491,B-3,495.0,0.25,60,165.0
1492,B-4,495.5,0.25,77,165.0
1493,D4,495.5,0.25,57,165.0
1494,E-5,496.0,1/5,85,165.0
1495,E-3,496.0,0.5,64,165.0
1496,F5,496.2,1/5,61,165.0
1497,E-5,496.4,1/5,61,165.0
1498,C4,496.5,0.5,56,165.0
1499,D5,496.6,1/5,61,165.0
1500,E-5,496.8,1/5,61,165.0
1501,G5,497.0,1.0,78,165.0
1502,G3,497.0,0.5,59,165.0
1503,C4,497.5,0.5,56,165.0
1504,A4,498.0,1.0,82,165.0
1505,F3,498.0,0.5,64,165.0
1506,E-4,498.5,0.5,56,165.0
1507,C4,499.0,0.5,59,165.0
1508,A5,499.5,0.5,77,165.0
1509,E-4,499.5,0.5,55,165.0
1510,B-5,500.0,333/1000,85,165.0
1511,B-3,500.0,2.0,59,165.0
1512,D3,500.0,1.0,59,165.0
1513,F5,500.333,333/1000,75,165.0
1514,D5,500.667,333/1000,74,165.0
1515,G5,501.0,333/1000,84,165.0
1516,E-3,501.0,1.0,57,165.0
1517,E-5,501.333,333/1000,76,165.0
1518,C5,501.667,333/1000,75,165.0
1519,F5,502.0,333/1000,84,165.0
1520,D4,502.0,1.0,59,165.0
1521,F3,502.0,2.0,59,165.0
1522,D5,502.333,333/1000,76,165.0
1523,B-4,502.667,333/1000,77,165.0
1524,E-5,503.0,333/1000,84,165.0
1525,E-4,503.0,1.0,57,165.0
1526,C5,503.333,333/1000,76,165.0
1527,A4,503.667,333/1000,75,165.0
1528,B-4,504.0,1.0,83,165.0
1529,B-3,504.0,1.0,59,165.0
1530,D4,504.0,1.0,59,165.0
1531,B-2,505.0,1.0,63,165.0
1532,F4,505.5,0.5,55,165.0
1533,B-4,506.0,0.25,58,165.0
1534,A4,506.5,0.25,53,165.0
1535,B-4,507.0,0.25,55,165.0
1536,C5,507.5,0.25,52,165.0
1537,D5,508.0,0.25,55,165.0
1538,B-3,509.0,0.375,47,165.0
1539,B-4,509.0,0.375,56,165.0
1540,D5,509.0,0.375,56,165.0
1541,G3,510.0,1.0,48,165.0
1542,B-4,510.0,1.0,59,165.0
1543,D5,510.0,1.0,59,165.0
1544,E-3,511.0,1.0,46,165.0
1545,C5,511.0,1.0,55,165.0
1546,E-5,511.0,1.0,55,165.0
1547,F3,512.0,1.0,47,165.0
1548,C5,512.0,1.0,54,165.0
1549,A4,512.0,1.0,54,165.0
1550,F2,513.0,1.0,57,165.0
1551,F4,513.5,0.5,55,165.0
1552,C5,514.0,0.25,57,165.0
1553,B-4,514.5,0.25,53,165.0
1554,C5,515.0,0.25,56,165.0
1555,D5,515.5,0.25,52,165.0
1556,E-5,516.0,0.25,56,165.0
1557,C4,517.0,0.375,45,165.0
1558,G4,517.0,0.375,56,165.0
1559,E-5,517.0,0.375,56,165.0
1560,A3,518.0,1.0,45,165.0
1561,E-5,518.0,1.0,58,165.0
1562,C5,518.0,1.0,58,165.0
1563,F3,519.0,1.0,45,165.0
1564,F5,519.0,1.0,56,165.0
1565,A4,519.0,1.0,56,165.0
1566,B-3,520.0,1.0,46,165.0
1567,B-4,520.0,1.0,54,165.0
1568,D5,520.0,1.0,54,165.0
1569,B-2,521.0,1.0,70,165.0
1570,B-4,521.5,0.5,56,165.0
1571,D5,522.0,0.25,60,165.0
1572,E-5,522.5,0.25,64,165.0
1573,F5,523.0,0.25,68,165.0
1574,G5,523.5,0.25,72,165.0
1575,G#5,524.0,0.5,76,165.0
1576,F4,525.0,0.5,69,165.0
1577,G#4,525.0,0.5,69,165.0
1578,B-3,525.0,0.5,69,165.0
1579,D3,525.0,0.5,56,165.0
1580,D2,525.0,0.5,56,165.0
1581,G#4,526.0,0.5,70,165.0
1582,B-3,526.0,0.5,70,165.0
1583,F4,526.0,0.5,70,165.0
1584,D2,526.0,0.5,60,165.0
1585,D3,526.0,0.5,60,165.0
1586,G#4,527.0,0.5,68,165.0
1587,F4,527.0,0.5,68,165.0
1588,C4,527.0,0.5,68,165.0
1589,C3,527.0,0.5,55,165.0
1590,C2,527.0,0.5,55,165.0
1591,F4,528.0,1.0,69,165.0
1592,D4,528.0,1.0,69,165.0
1593,G4,528.0,1.0,69,165.0
1594,B2,528.0,1.0,54,165.0
1595,B1,528.0,1.0,54,165.0
1596,B3,529.0,1.0,66,165.0
1597,D5,529.5,0.5,53,165.0
1598,G5,530.0,0.25,58,165.0
1599,F#5,530.5,0.25,53,165.0
1600,G5,531.0,0.25,56,165.0
1601,G4,531.0,1.0,47,165.0
1602,B-3,531.0,1.0,47,165.0
1603,D5,531.5,0.25,53,165.0
1604,F5,532.0,0.5,57,165.0
1605,C4,532.0,1.0,48,165.0
1606,G4,532.0,1.0,48,165.0
1607,E-5,532.5,0.5,53,165.0
1608,C3,533.0,1.0,55,165.0
1609,G4,533.5,0.5,53,165.0
1610,C5,534.0,0.25,54,165.0
1611,B4,534.25,0.25,58,165.0
1612,D5,534.5,0.25,61,165.0
1613,C5,534.75,0.25,65,165.0
1614,E-5,535.0,0.25,69,165.0
1615,D5,535.25,0.25,73,165.0
1616,F5,535.5,0.25,76,165.0
1617,E-5,535.75,0.25,80,165.0
1618,G5,536.0,0.5,84,165.0
1619,G4,537.0,0.5,71,165.0
1620,C4,537.0,0.5,71,165.0
1621,E-4,537.0,0.5,71,165.0
1622,C2,537.0,0.5,55,165.0
1623,C3,537.0,0.5,55,165.0
1624,C4,538.0,0.5,71,165.0
1625,E-4,538.0,0.5,71,165.0
1626,G4,538.0,0.5,71,165.0
1627,C3,538.0,0.5,58,165.0
1628,C2,538.0,0.5,58,165.0
1629,C4,539.0,0.5,69,165.0
1630,F#4,539.0,0.5,69,165.0
1631,E-4,539.0,0.5,69,165.0
1632,B-1,539.0,0.5,55,165.0
1633,B-2,539.0,0.5,55,165.0
1634,E-4,540.0,1.0,68,165.0
1635,F4,540.0,1.0,68,165.0
1636,C4,540.0,1.0,68,165.0
1637,A2,540.0,1.0,54,165.0
1638,A1,540.0,1.0,54,165.0
1639,A3,541.0,1.0,60,165.0
1640,C5,541.5,0.5,52,165.0
1641,F5,542.0,0.25,55,165.0
1642,E5,542.5,0.25,52,165.0
1643,F5,543.0,0.25,55,165.0
1644,A3,543.0,1.0,44,165.0
1645,F4,543.0,1.0,44,165.0
1646,C5,543.5,0.25,52,165.0
1647,E-5,544.0,0.5,55,165.0
1648,B-3,544.0,1.0,44,165.0
1649,F4,544.0,1.0,44,165.0
1650,D5,544.5,0.5,52,165.0
1651,B-2,545.0,1.0,51,165.0
1652,B-5,545.333,333/1000,73,165.0
1653,A5,545.667,333/1000,69,165.0
1654,B-5,546.0,333/1000,77,165.0
1655,A5,546.333,333/1000,69,165.0
1656,G5,546.667,333/1000,70,165.0
1657,F5,547.0,333/1000,73,165.0
1658,E-5,547.333,333/1000,72,165.0
1659,D5,547.667,333/1000,71,165.0
1660,C5,548.0,0.5,70,165.0
1661,E-3,548.5,0.5,52,165.0
1662,B-3,549.0,0.5,55,165.0
1663,C5,549.333,333/1000,70,165.0
1664,G3,549.5,0.5,51,165.0
1665,D5,549.667,333/1000,72,165.0
1666,E-5,550.0,333/1000,74,165.0
1667,C4,550.0,1.0,60,165.0
1668,D5,550.333,333/1000,73,165.0
1669,C5,550.667,333/1000,68,165.0
1670,G5,551.0,333/1000,73,165.0
1671,F5,551.333,333/1000,72,165.0
1672,E-5,551.667,333/1000,71,165.0
1673,D5,552.0,1.0,69,165.0
1674,F3,552.5,0.5,57,165.0
1675,B-3,553.0,0.5,60,165.0
1676,B-5,553.333,333/1000,74,165.0
1677,G#3,553.5,0.5,54,165.0
1678,A5,553.667,333/1000,74,165.0
1679,B-5,554.0,333/1000,76,165.0
1680,D4,554.0,1.0,68,165.0
1681,G#5,554.333,333/1000,72,165.0
1682,G5,554.667,333/1000,71,165.0
1683,F5,555.0,333/1000,73,165.0
1684,E-5,555.333,333/1000,71,165.0
1685,D5,555.667,333/1000,70,165.0
1686,E-5,556.0,1.0,74,165.0
1687,G3,556.5,0.5,54,165.0
1688,E-4,557.0,0.5,58,165.0
1689,E-5,557.333,333/1000,71,165.0
1690,B-3,557.5,0.5,54,165.0
1691,F5,557.667,333/1000,72,165.0
1692,G5,558.0,333/1000,74,165.0
1693,G4,558.0,1.0,65,165.0
1694,F5,558.333,333/1000,73,165.0
1695,E-5,558.667,333/1000,72,165.0
1696,B-5,559.0,333/1000,79,165.0
1697,G#5,559.333,333/1000,72,165.0
1698,G5,559.667,333/1000,70,165.0
1699,F5,560.0,1.0,72,165.0
1700,D3,560.5,0.5,55,165.0
1701,B-3,561.0,0.5,58,165.0
1702,B-5,561.333,333/1000,74,165.0
1703,F3,561.5,0.5,55,165.0
1704,A5,561.667,333/1000,71,165.0
1705,B-5,562.0,333/1000,76,165.0
1706,D4,562.0,1.0,64,165.0
1707,G#5,562.333,333/1000,72,165.0
1708,G5,562.667,333/1000,73,165.0
1709,F5,563.0,333/1000,71,165.0
1710,G5,563.333,333/1000,72,165.0
1711,G#5,563.667,333/1000,74,165.0
1712,G5,564.0,333/1000,72,165.0
1713,E-3,564.0,4.0,73,165.0
1714,B-5,564.333,333/1000,78,165.0
1715,A5,564.667,333/1000,75,165.0
1716,G5,565.0,333/1000,71,165.0
1717,A5,565.333,333/1000,73,165.0
1718,B-5,565.667,333/1000,75,165.0
1719,E-5,566.0,333/1000,70,165.0
1720,G3,566.0,2.0,70,165.0
1721,G5,566.333,333/1000,74,165.0
1722,F5,566.667,333/1000,69,165.0
1723,E-5,567.0,333/1000,70,165.0
1724,F5,567.333,333/1000,72,165.0
1725,G5,567.667,333/1000,75,165.0
1726,C5,568.0,333/1000,73,165.0
1727,C4,568.0,2.0,74,165.0
1728,E-3,568.0,2.0,73,165.0
1729,E-5,568.333,333/1000,76,165.0
1730,D5,568.667,333/1000,74,165.0
1731,C5,569.0,333/1000,73,165.0
1732,D5,569.333,333/1000,74,165.0
1733,E-5,569.667,333/1000,69,165.0
1734,G4,570.0,333/1000,72,165.0
1735,C4,570.0,2.0,70,165.0
1736,E3,570.0,2.0,70,165.0
1737,B-4,570.333,333/1000,74,165.0
1738,A4,570.667,333/1000,72,165.0
1739,G4,571.0,333/1000,68,165.0
1740,A4,571.333,333/1000,70,165.0
1741,B-4,571.667,333/1000,71,165.0
1742,A4,572.0,0.25,71,165.0
1743,F3,572.0,0.5,65,165.0
1744,F4,572.25,0.25,69,165.0
1745,G4,572.5,0.25,70,165.0
1746,C4,572.5,0.5,60,165.0
1747,A4,572.75,0.25,71,165.0
1748,B-4,573.0,0.25,72,165.0
1749,A3,573.0,0.5,68,165.0
1750,C5,573.25,0.25,73,165.0
1751,D5,573.5,0.25,74,165.0
1752,C4,573.5,0.5,66,165.0
1753,E5,573.75,0.25,76,165.0
1754,F5,574.0,0.25,77,165.0
1755,F3,574.0,0.5,69,165.0
1756,G5,574.25,0.25,78,165.0
1757,A5,574.5,0.25,79,165.0
1758,C4,574.5,0.5,65,165.0
1759,B-5,574.75,0.25,80,165.0
1760,C6,575.0,0.25,93,165.0
1761,A3,575.0,0.25,71,165.0
1762,E-5,575.5,0.25,76,165.0
1763,C4,575.5,0.25,66,165.0
1764,D5,576.0,0.25,74,165.0
1765,F3,576.0,0.5,65,165.0
1766,B-4,576.25,0.25,69,165.0
1767,C5,576.5,0.25,71,165.0
1768,D4,576.5,0.5,58,165.0
1769,D5,576.75,0.25,72,165.0
1770,E-5,577.0,0.25,74,165.0
1771,B-3,577.0,0.5,66,165.0
1772,F5,577.25,0.25,75,165.0
1773,G5,577.5,0.25,77,165.0
1774,D4,577.5,0.5,62,165.0
1775,A5,577.75,0.25,78,165.0
1776,B-5,578.0,0.25,80,165.0
1777,F3,578.0,0.5,69,165.0
1778,C6,578.25,0.25,81,165.0
1779,D6,578.5,0.25,83,165.0
1780,D4,578.5,0.5,64,165.0
1781,E-6,578.75,0.25,84,165.0
1782,F6,579.0,0.25,99,165.0
1783,B-3,579.0,0.25,71,165.0
1784,B-5,579.5,0.25,82,165.0
1785,D4,579.5,0.25,66,165.0
1786,A5,580.0,0.25,78,165.0
1787,F3,580.0,0.5,71,165.0
1788,B-5,580.25,0.25,81,165.0
1789,C6,580.5,0.25,83,165.0
1790,E-4,580.5,0.5,67,165.0
1791,B-5,580.75,0.25,80,165.0
1792,A5,581.0,0.25,79,165.0
1793,C4,581.0,0.5,71,165.0
1794,B-5,581.25,0.25,82,165.0
1795,C6,581.5,0.25,85,165.0
1796,E-4,581.5,0.5,66,165.0
1797,D6,581.75,0.25,88,165.0
1798,E-6,582.0,0.25,89,165.0
1799,F3,582.0,0.5,75,165.0
1800,D6,582.25,0.25,87,165.0
1801,C6,582.5,0.25,86,165.0
1802,C4,582.5,0.5,71,165.0
1803,B-5,582.75,0.25,84,165.0
1804,A5,583.0,0.25,82,165.0
1805,A3,583.0,0.5,73,165.0
1806,G5,583.25,0.25,80,165.0
1807,F5,583.5,0.25,78,165.0
1808,C4,583.5,0.5,66,165.0
1809,E-5,583.75,0.25,77,165.0
1810,D5,584.0,0.25,75,165.0
1811,F3,584.0,0.5,69,165.0
1812,F5,584.25,0.25,75,165.0
1813,E-5,584.5,0.25,74,165.0
1814,D4,584.5,0.5,65,165.0
1815,D5,584.75,0.25,73,165.0
1816,E-5,585.0,0.25,71,165.0
1817,B-3,585.0,0.5,67,165.0
1818,F5,585.25,0.25,73,165.0
1819,G5,585.5,0.25,76,165.0
1820,D4,585.5,0.5,63,165.0
1821,A5,585.75,0.25,78,165.0
1822,B-5,586.0,0.25,79,165.0
1823,F3,586.0,0.5,68,165.0
1824,A5,586.25,0.25,78,165.0
1825,G5,586.5,0.25,77,165.0
1826,D4,586.5,0.5,63,165.0
1827,F5,586.75,0.25,76,165.0
1828,E-5,587.0,0.25,75,165.0
1829,B-3,587.0,0.5,65,165.0
1830,D5,587.25,0.25,74,165.0
1831,C5,587.5,0.25,72,165.0
1832,D4,587.5,0.5,56,165.0
1833,B-4,587.75,0.25,71,165.0
1834,F5,588.0,0.25,70,165.0
1835,A4,588.0,0.25,70,165.0
1836,C5,588.0,0.25,70,165.0
1837,A3,588.0,0.25,60,165.0
1838,C4,588.0,0.25,60,165.0
1839,F3,588.0,0.25,60,165.0
1840,F4,589.0,0.5,71,165.0
1841,C5,590.0,1.5,76,165.0
1842,E-3,590.0,0.5,54,165.0
1843,F3,590.5,0.5,50,165.0
1844,E-3,591.0,0.5,45,165.0
1845,A4,591.5,0.25,60,165.0
1846,F3,591.5,0.5,41,165.0
1847,F4,591.75,0.25,60,165.0
1848,B-4,592.0,1.0,67,165.0
1849,D3,592.0,0.5,48,165.0
1850,F3,592.5,0.5,45,165.0
1851,B4,593.0,1.0,70,165.0
1852,D3,593.0,0.5,51,165.0
1853,F3,593.5,0.5,47,165.0
1854,C5,594.0,1.5,74,165.0
1855,E-3,594.0,0.5,53,165.0
1856,F3,594.5,0.5,50,165.0
1857,E-3,595.0,0.5,47,165.0
1858,A4,595.5,0.25,61,165.0
1859,F3,595.5,0.5,43,165.0
1860,F4,595.75,0.25,61,165.0
1861,B-4,596.0,1.0,65,165.0
1862,D3,596.0,0.5,46,165.0
1863,F3,596.5,0.5,38,165.0
1864,D3,597.0,0.5,44,165.0
1865,F3,597.5,0.5,42,165.0
1866,C5,598.0,0.25,75,165.0
1867,E-3,598.0,0.5,56,165.0
1868,C5,598.5,1.0,75,165.0
1869,F3,598.5,0.5,55,165.0
1870,E-3,599.0,0.5,49,165.0
1871,A4,599.5,0.25,61,165.0
1872,F3,599.5,0.5,46,165.0
1873,F4,599.75,0.25,61,165.0
1874,B-4,600.0,0.25,64,165.0
1875,D3,600.0,0.5,48,165.0
1876,B-4,600.5,0.25,68,165.0
1877,F3,600.5,0.5,45,165.0
1878,B4,601.0,0.25,71,165.0
1879,D3,601.0,0.5,50,165.0
1880,B4,601.5,0.25,71,165.0
1881,F3,601.5,0.5,47,165.0
1882,C5,602.0,0.25,77,165.0
1883,E-3,602.0,0.5,53,165.0
1884,C5,602.5,1.0,77,165.0
1885,F3,602.5,0.5,50,165.0
1886,E-3,603.0,0.5,48,165.0
1887,A4,603.5,0.25,60,165.0
1888,F3,603.5,0.5,45,165.0
1889,F4,603.75,0.25,62,165.0
1890,B-4,604.0,1.0,66,165.0
1891,D3,604.0,0.5,53,165.0
1892,F4,604.5,0.5,49,165.0
1893,D4,605.0,0.5,53,165.0
1894,F4,605.5,0.5,49,165.0
1895,B5,606.0,3/10,65,165.0
1896,E-4,606.0,0.5,54,165.0
1897,C6,606.25,3/10,68,165.0
1898,D6,606.5,3/10,70,165.0
1899,F4,606.5,0.5,48,165.0
1900,C6,606.75,3/10,73,165.0
1901,B-5,607.0,3/10,76,165.0
1902,E-4,607.0,0.5,57,165.0
1903,A5,607.25,3/10,77,165.0
1904,G5,607.5,3/10,80,165.0
1905,F4,607.5,0.5,52,165.0
1906,F5,607.75,0.25,79,165.0
1907,B-5,608.0,0.25,85,165.0
1908,F5,608.0,1/20,79,165.0
1909,D4,608.0,1.0,64,165.0
1910,F5,608.25,0.25,75,165.0
1911,D6,608.5,0.25,85,165.0
1912,B-5,608.75,0.25,79,165.0
1913,F6,609.0,0.25,85,165.0
1914,D6,609.25,0.25,78,165.0
1915,F6,609.5,0.25,85,165.0
1916,D6,609.75,0.25,77,165.0
1917,F6,610.0,3/10,83,165.0
1918,E-6,610.25,3/10,83,165.0
1919,D6,610.5,3/10,82,165.0
1920,C6,610.75,3/10,81,165.0
1921,B-5,611.0,3/10,81,165.0
1922,B-3,611.0,1.0,75,165.0
1923,D3,611.0,1.0,75,165.0
1924,A5,611.25,3/10,80,165.0
1925,G5,611.5,3/10,79,165.0
1926,F5,611.75,0.25,79,165.0
1927,G5,612.0,0.25,87,165.0
1928,F5,612.0,1/20,79,165.0
1929,E-3,612.0,1.0,85,165.0
1930,B-3,612.0,1.0,85,165.0
1931,E-5,612.25,0.25,78,165.0
1932,B-5,612.5,0.25,86,165.0
1933,G5,612.75,0.25,76,165.0
1934,B-5,613.0,0.25,86,165.0
1935,A5,613.25,0.25,77,165.0
1936,B-5,613.5,0.25,83,165.0
1937,A5,613.75,0.25,77,165.0
1938,B-5,614.0,0.25,79,165.0
1939,A5,614.25,0.25,73,165.0
1940,G5,614.5,0.25,76,165.0
1941,F5,614.75,0.25,68,165.0
1942,E-5,615.0,0.25,72,165.0
1943,B-3,615.0,1.0,57,165.0
1944,C4,615.0,1.0,57,165.0
1945,E-3,615.0,1.0,57,165.0
1946,D5,615.25,0.25,67,165.0
1947,C5,615.5,0.25,68,165.0
1948,B-4,615.75,0.25,63,165.0
1949,F4,616.0,0.125,67,165.0
1950,F3,616.0,0.5,61,165.0
1951,F5,616.25,0.25,67,165.0
1952,G5,616.5,0.25,69,165.0
1953,D4,616.5,0.5,57,165.0
1954,F5,616.75,0.25,67,165.0
1955,E-5,617.0,0.25,67,165.0
1956,B-3,617.0,0.5,62,165.0
1957,D5,617.25,0.25,64,165.0
1958,C5,617.5,0.25,67,165.0
1959,D4,617.5,0.5,57,165.0
1960,B-4,617.75,0.25,64,165.0
1961,C5,618.0,167/1000,67,165.0
1962,F3,618.0,0.5,61,165.0
1963,D5,618.167,167/1000,61,165.0
1964,C5,618.333,167/1000,59,165.0
1965,D5,618.5,167/1000,67,165.0
1966,E-4,618.5,0.5,55,165.0
1967,C5,618.667,167/1000,59,165.0
1968,D5,618.833,167/1000,59,165.0
1969,C5,619.0,167/1000,61,165.0
1970,A3,619.0,0.5,61,165.0
1971,D5,619.167,167/1000,67,165.0
1972,C5,619.333,167/1000,67,165.0
1973,B-4,619.5,0.25,69,165.0
1974,E-4,619.5,0.5,55,165.0
1975,C5,619.75,0.25,70,165.0
1976,D5,620.0,0.25,72,165.0
1977,B-3,620.0,1.0,61,165.0
1978,E-5,620.25,0.25,74,165.0
1979,F5,620.5,0.25,74,165.0
1980,E-5,620.75,0.25,72,165.0
1981,D5,621.0,0.25,71,165.0
1982,C5,621.25,0.25,70,165.0
1983,B-4,621.5,0.25,68,165.0
1984,C4,621.5,0.5,69,165.0
1985,A4,621.75,0.25,67,165.0
1986,B-4,622.0,0.25,69,165.0
1987,D4,622.0,1.0,74,165.0
1988,C5,622.25,0.25,71,165.0
1989,D5,622.5,0.25,72,165.0
1990,C5,622.75,0.25,70,165.0
1991,B-4,623.0,0.25,69,165.0
1992,G#4,623.25,0.25,69,165.0
1993,G4,623.5,0.25,68,165.0
1994,D2,623.5,0.5,64,165.0
1995,D3,623.5,0.5,64,165.0
1996,F#4,623.75,0.25,67,165.0
1997,G4,624.0,0.25,67,165.0
1998,E-2,624.0,1.0,69,165.0
1999,E-3,624.0,1.0,69,165.0
2000,A4,624.25,0.25,70,165.0
2001,B-4,624.5,0.25,72,165.0
2002,A4,624.75,0.25,71,165.0
2003,G4,625.0,0.25,70,165.0
2004,F4,625.25,0.25,69,165.0
2005,E-4,625.5,0.25,68,165.0
2006,D4,625.75,0.25,68,165.0
2007,C4,626.0,0.25,67,165.0
2008,D4,626.25,0.25,68,165.0
2009,E-4,626.5,0.25,69,165.0
2010,D4,626.75,0.25,68,165.0
2011,C4,627.0,0.25,66,165.0
2012,B-3,627.25,0.25,65,165.0
2013,A3,627.5,0.25,63,165.0
2014,G3,627.75,0.25,61,165.0
2015,F3,628.0,0.5,60,165.0
2016,F2,628.0,4.0,88,165.0
2017,F1,628.0,4.0,88,165.0
2018,G3,628.5,0.25,62,165.0
2019,A3,628.75,0.25,64,165.0
2020,B-3,629.0,0.25,66,165.0
2021,C4,629.25,0.25,68,165.0
2022,D4,629.5,0.25,70,165.0
2023,E-4,629.75,0.25,69,165.0
2024,G4,630.0,0.25,72,165.0
2025,F4,630.25,0.25,71,165.0
2026,E-4,630.5,0.25,70,165.0
2027,D4,630.75,0.25,69,165.0
2028,E-4,631.0,0.25,67,165.0
2029,F4,631.25,0.25,67,165.0
2030,G4,631.5,0.25,68,165.0
2031,A4,631.75,0.25,69,165.0
2032,B-4,632.0,0.25,71,165.0
2033,F2,632.0,1.0,70,165.0
2034,D3,632.0,1.0,70,165.0
2035,B-2,632.0,1.0,70,165.0
2036,A4,632.25,0.25,71,165.0
2037,G4,632.5,0.25,70,165.0
2038,F4,632.75,0.25,69,165.0
2039,G4,633.0,0.25,68,165.0
2040,A4,633.25,0.25,69,165.0
2041,B-4,633.5,0.25,70,165.0
2042,C5,633.75,0.25,71,165.0
2043,D5,634.0,0.25,73,165.0
2044,B-2,634.0,1.0,71,165.0
2045,D3,634.0,1.0,71,165.0
2046,F2,634.0,1.0,71,165.0
2047,C5,634.25,0.25,73,165.0
2048,B-4,634.5,0.25,72,165.0
2049,A4,634.75,0.25,71,165.0
2050,B-4,635.0,0.25,70,165.0
2051,C5,635.25,0.25,71,165.0
2052,D5,635.5,0.25,73,165.0
2053,E-5,635.75,0.25,75,165.0
2054,F5,636.0,0.25,76,165.0
2055,B-3,636.0,1.0,81,165.0
2056,F3,636.0,1.0,81,165.0
2057,D4,636.0,1.0,81,165.0
2058,D5,636.25,0.25,71,165.0
2059,F5,636.5,0.25,76,165.0
2060,D5,636.75,0.25,70,165.0
2061,B-5,637.0,0.25,82,165.0
2062,F5,637.25,0.25,76,165.0
2063,B-5,637.5,0.25,82,165.0
2064,F5,637.75,0.25,76,165.0
2065,D6,638.0,0.25,88,165.0
2066,B-5,638.25,0.25,83,165.0
2067,D6,638.5,0.25,88,165.0
2068,B-5,638.75,0.25,83,165.0
2069,F6,639.0,0.25,95,165.0
2070,D6,639.25,0.25,88,165.0
2071,F6,639.5,0.25,95,165.0
2072,D6,639.75,0.25,85,165.0
2073,B-5,640.0,0.25,93,165.0
2074,D6,640.25,0.25,89,165.0
2075,B-5,640.5,0.25,93,165.0
2076,D6,640.75,0.25,87,165.0
2077,F5,641.0,0.25,89,165.0
2078,B-5,641.25,0.25,84,165.0
2079,F5,641.5,0.25,90,165.0
2080,B-5,641.75,0.25,84,165.0
2081,D5,642.0,0.25,87,165.0
2082,F5,642.25,0.25,80,165.0
2083,D5,642.5,0.25,87,165.0
2084,F5,642.75,0.25,80,165.0
2085,B-4,643.0,0.25,81,165.0
2086,D5,643.25,0.25,73,165.0
2087,B-4,643.5,0.25,81,165.0
2088,D5,643.75,0.25,73,165.0
2089,F4,644.0,0.5,83,165.0
2090,F3,644.0,0.5,57,165.0
2091,D4,644.5,0.5,54,165.0
2092,F5,645.0,1.5,91,165.0
2093,B-3,645.0,0.5,57,165.0
2094,D4,645.5,0.5,53,165.0
2095,F3,646.0,0.5,57,165.0
2096,G5,646.5,0.25,77,165.0
2097,D4,646.5,0.5,52,165.0
2098,F5,646.75,0.25,76,165.0
2099,E-5,647.0,0.25,76,165.0
2100,B-3,647.0,0.5,57,165.0
2101,D5,647.25,0.25,75,165.0
2102,C5,647.5,0.25,74,165.0
2103,D4,647.5,0.5,53,165.0
2104,B-4,647.75,0.25,73,165.0
2105,B-4,648.0,167/1000,53,165.0
2106,F3,648.0,0.5,66,165.0
2107,C5,648.167,167/1000,48,165.0
2108,D5,648.333,167/1000,49,165.0
2109,C5,648.5,167/1000,53,165.0
2110,E-4,648.5,0.5,59,165.0
2111,D5,648.667,167/1000,51,165.0
2112,C5,648.833,167/1000,55,165.0
2113,D5,649.0,167/1000,52,165.0
2114,A3,649.0,0.5,65,165.0
2115,C5,649.167,167/1000,56,165.0
2116,D5,649.333,167/1000,52,165.0
2117,C5,649.5,167/1000,56,165.0
2118,E-4,649.5,0.5,61,165.0
2119,D5,649.667,167/1000,54,165.0
2120,C5,649.833,167/1000,58,165.0
2121,D5,650.0,167/1000,55,165.0
2122,F3,650.0,0.5,65,165.0
2123,C5,650.167,167/1000,59,165.0
2124,D5,650.333,167/1000,54,165.0
2125,C5,650.5,167/1000,60,165.0
2126,E-4,650.5,0.5,61,165.0
2127,D5,650.667,167/1000,56,165.0
2128,C5,650.833,167/1000,57,165.0
2129,D5,651.0,0.25,65,165.0
2130,A3,651.0,0.5,65,165.0
2131,C5,651.25,0.25,61,165.0
2132,B-4,651.5,0.25,67,165.0
2133,E-4,651.5,0.5,61,165.0
2134,C5,651.75,0.25,64,165.0
2135,B-4,652.0,0.5,70,165.0
2136,B-3,652.0,1.0,52,165.0
2137,D4,652.0,1.0,52,165.0
2138,B-4,652.5,0.5,59,165.0
2139,D4,653.0,1.0,52,165.0
2140,B-3,653.0,1.0,52,165.0
2141,B-4,653.5,0.5,56,165.0
2142,B-4,654.0,0.5,57,165.0
2143,B-4,654.5,0.5,57,165.0
2144,D4,655.0,1.0,56,165.0
2145,B-3,655.0,1.0,56,165.0
2146,B-4,655.5,0.5,56,165.0
2147,C5,656.0,0.5,60,165.0
2148,B-3,656.0,1.0,58,165.0
2149,A4,656.0,1.0,58,165.0
2150,C5,656.5,0.25,57,165.0
2151,B-3,657.0,1.0,54,165.0
2152,A4,657.0,1.0,54,165.0
2153,C5,657.5,0.5,57,165.0
2154,C5,658.0,0.5,60,165.0
2155,C5,658.5,0.5,57,165.0
2156,B-3,659.0,1.0,61,165.0
2157,A4,659.0,1.0,61,165.0
2158,C5,659.5,0.5,61,165.0
2159,D5,660.0,0.5,65,165.0
2160,B-3,660.0,1.0,67,165.0
2161,G#4,660.0,1.0,67,165.0
2162,D5,660.5,0.25,61,165.0
2163,G#4,661.0,1.0,62,165.0
2164,B-3,661.0,1.0,62,165.0
2165,D5,661.5,0.5,70,165.0
2166,E-5,662.0,0.5,72,165.0
2167,G4,662.0,1.0,71,165.0
2168,B-3,662.0,1.0,71,165.0
2169,E-5,662.5,0.25,70,165.0
2170,G4,663.0,1.0,68,165.0
2171,B-3,663.0,1.0,68,165.0
2172,E5,663.5,0.5,77,165.0
2173,F5,664.0,0.5,81,165.0
2174,D4,664.0,1.0,82,165.0
2175,B-3,664.0,1.0,82,165.0
2176,F5,664.5,0.25,78,165.0
2177,B-3,665.0,1.0,76,165.0
2178,D4,665.0,1.0,76,165.0
2179,F#5,665.5,0.5,85,165.0
2180,G5,666.0,0.5,92,165.0
2181,B-3,666.0,1.0,85,165.0
2182,E-4,666.0,1.0,85,165.0
2183,G5,666.5,0.25,92,165.0
2184,A5,667.0,0.25,96,165.0
2185,B-3,667.0,1.0,91,165.0
2186,C4,667.0,1.0,91,165.0
2187,A5,667.5,0.25,96,165.0
2188,D5,668.0,0.25,109,165.0
2189,B-3,668.0,0.25,83,165.0
2190,B-2,668.0,0.25,83,165.0
2191,B-5,668.25,0.25,93,165.0
2192,D6,668.5,0.25,105,165.0
2193,B-3,668.5,0.25,80,165.0
2194,B-2,668.5,0.25,80,165.0
2195,B-5,668.75,0.25,96,165.0
2196,D6,669.0,0.25,105,165.0
2197,B-5,669.25,0.25,96,165.0
2198,D6,669.5,0.25,103,165.0
2199,B-2,669.5,0.5,78,165.0
2200,B-3,669.5,0.5,78,165.0
2201,B-5,669.75,0.25,94,165.0
2202,D5,670.0,0.25,110,165.0
2203,D4,670.0,0.25,83,165.0
2204,D3,670.0,0.25,83,165.0
2205,B-5,670.25,0.25,94,165.0
2206,D6,670.5,0.25,103,165.0
2207,D3,670.5,0.25,81,165.0
2208,D4,670.5,0.25,81,165.0
2209,B-5,670.75,0.25,100,165.0
2210,D6,671.0,0.25,105,165.0
2211,B-5,671.25,0.25,94,165.0
2212,D6,671.5,0.25,100,165.0
2213,B-2,671.5,0.5,78,165.0
2214,B-3,671.5,0.5,78,165.0
2215,B-5,671.75,0.25,95,165.0
2216,D5,672.0,0.25,109,165.0
2217,G2,672.0,0.25,83,165.0
2218,G3,672.0,0.25,83,165.0
2219,B-5,672.25,0.25,95,165.0
2220,D6,672.5,0.25,100,165.0
2221,G2,672.5,0.25,81,165.0
2222,G3,672.5,0.25,81,165.0
2223,B-5,672.75,0.25,93,165.0
2224,D6,673.0,0.25,105,165.0
2225,B-5,673.25,0.25,95,165.0
2226,D6,673.5,0.25,100,165.0
2227,G2,673.5,0.5,78,165.0
2228,G3,673.5,0.5,78,165.0
2229,B-5,673.75,0.25,93,165.0
2230,D5,674.0,0.25,109,165.0
2231,B-3,674.0,0.25,83,165.0
2232,B-2,674.0,0.25,83,165.0
2233,B-5,674.25,0.25,95,165.0
2234,D6,674.5,0.25,101,165.0
2235,B-3,674.5,0.25,80,165.0
2236,B-2,674.5,0.25,80,165.0
2237,B-5,674.75,0.25,94,165.0
2238,D6,675.0,0.25,105,165.0
2239,B-5,675.25,0.25,96,165.0
2240,D6,675.5,0.25,100,165.0
2241,G2,675.5,0.5,78,165.0
2242,G3,675.5,0.5,78,165.0
2243,B-5,675.75,0.25,93,165.0
2244,D5,676.0,0.25,109,165.0
2245,D2,676.0,0.25,83,165.0
2246,D3,676.0,0.25,83,165.0
2247,B-5,676.25,0.25,95,165.0
2248,D6,676.5,0.25,100,165.0
2249,D3,676.5,0.25,82,165.0
2250,D2,676.5,0.25,82,165.0
2251,B-5,676.75,0.25,95,165.0
2252,D6,677.0,0.25,104,165.0
2253,B-5,677.25,0.25,94,165.0
2254,D6,677.5,0.25,101,165.0
2255,D2,677.5,0.5,81,165.0
2256,D3,677.5,0.5,81,165.0
2257,B-5,677.75,0.25,93,165.0
2258,D5,678.0,0.25,109,165.0
2259,E-3,678.0,0.25,84,165.0
2260,E-2,678.0,0.25,84,165.0
2261,B-5,678.25,0.25,95,165.0
2262,D6,678.5,0.25,100,165.0
2263,E-2,678.5,0.25,84,165.0
2264,E-3,678.5,0.25,84,165.0
2265,B-5,678.75,0.25,95,165.0
2266,D6,679.0,0.25,104,165.0
2267,E3,679.0,0.25,88,165.0
2268,E2,679.0,0.25,88,165.0
2269,B-5,679.25,0.25,95,165.0
2270,D6,679.5,0.25,100,165.0
2271,E2,679.5,0.25,85,165.0
2272,E3,679.5,0.25,85,165.0
2273,B-5,679.75,0.25,95,165.0
2274,D6,680.0,2.0,99,165.0
2275,B-5,680.0,1.0,99,165.0
2276,D5,680.0,1.0,99,165.0
2277,F5,680.0,1.0,99,165.0
2278,F2,680.0,2.0,86,165.0
2279,F3,680.0,2.0,86,165.0
2280,F4,682.5,0.25,57,165.0
2281,A4,682.75,0.25,59,165.0
2282,G4,683.0,0.25,61,165.0
2283,B-4,683.25,0.25,62,165.0
2284,A4,683.5,0.25,64,165.0
2285,C5,683.75,0.25,66,165.0
2286,B-4,684.0,0.25,68,165.0
2287,A4,684.5,0.25,54,165.0
2288,C5,684.75,0.25,56,165.0
2289,B-4,685.0,0.25,58,165.0
2290,D5,685.25,0.25,60,165.0
2291,C5,685.5,0.25,61,165.0
2292,E-5,685.75,0.25,63,165.0
2293,D5,686.0,0.25,65,165.0
2294,C5,686.5,0.25,56,165.0
2295,E-5,686.75,0.25,58,165.0
2296,D5,687.0,0.25,59,165.0
2297,F5,687.25,0.25,60,165.0
2298,E-5,687.5,0.25,62,165.0
2299,G5,687.75,0.25,63,165.0
2300,F3,688.0,0.5,51,165.0
2301,F5,688.002,1.5,69,165.0
2302,D4,688.5,0.5,45,165.0
2303,B-3,689.0,0.5,47,165.0
2304,D5,689.5,0.5,66,165.0
2305,D4,689.5,0.5,44,165.0
2306,B-4,690.0,0.5,70,165.0
2307,F3,690.0,0.5,50,165.0
2308,D4,690.5,0.5,44,165.0
2309,B-4,691.0,0.5,70,165.0
2310,B-3,691.0,0.5,47,165.0
2311,D4,691.5,0.5,44,165.0
2312,E-5,692.0,1/5,76,165.0
2313,F3,692.0,0.5,51,165.0
2314,F5,692.2,1/5,54,165.0
2315,E-5,692.4,1/5,54,165.0
2316,E-4,692.5,0.5,44,165.0
2317,D5,692.6,1/5,54,165.0
2318,E-5,692.8,1/5,54,165.0
2319,G5,693.0,1.0,70,165.0
2320,C4,693.0,0.5,47,165.0
2321,E-4,693.5,0.5,45,165.0
2322,A4,694.0,1.0,72,165.0
2323,F3,694.0,0.5,50,165.0
2324,E-4,694.5,0.5,39,165.0
2325,C4,695.0,0.5,44,165.0
2326,E-4,695.5,0.5,38,165.0
2327,F3,696.0,0.5,51,165.0
2328,F5,696.002,1.5,68,165.0
2329,C#4,696.5,0.5,41,165.0
2330,B-3,697.0,0.5,45,165.0
2331,C#5,697.5,0.5,59,165.0
2332,C#4,697.5,0.5,41,165.0
2333,B-4,698.0,0.5,63,165.0
2334,F3,698.0,0.5,47,165.0
2335,C#4,698.5,0.5,40,165.0
2336,B-4,699.0,0.5,63,165.0
2337,B-3,699.0,0.5,45,165.0
2338,C#4,699.5,0.5,40,165.0
2339,E-5,700.0,1/5,68,165.0
2340,F3,700.0,0.5,48,165.0
2341,F5,700.2,1/5,48,165.0
2342,E-5,700.4,1/5,48,165.0
2343,E-4,700.5,0.5,40,165.0
2344,D5,700.6,1/5,48,165.0
2345,E-5,700.8,1/5,48,165.0
2346,F#5,701.0,1.0,63,165.0
2347,C4,701.0,0.5,45,165.0
2348,E-4,701.5,0.5,40,165.0
2349,A4,702.0,1.0,64,165.0
2350,F3,702.0,0.5,48,165.0
2351,E-4,702.5,0.5,36,165.0
2352,C4,703.0,0.5,41,165.0
2353,E-4,703.5,0.5,35,165.0
2354,B-4,704.0,0.25,76,165.0
2355,F#3,704.0,1.0,75,165.0
2356,C#4,704.0,1.0,75,165.0
2357,B-5,704.5,0.5,79,165.0
2358,C6,705.0,0.5,81,165.0
2359,C#6,705.5,0.5,77,165.0
2360,C6,706.0,0.5,84,165.0
2361,B-5,706.5,0.5,77,165.0
2362,G#5,707.0,0.5,79,165.0
2363,F#5,707.5,0.5,78,165.0
2364,F5,708.0,2.0,76,165.0
2365,F#3,708.0,4.0,66,165.0
2366,B-3,708.5,0.5,63,165.0
2367,C4,709.0,0.5,66,165.0
2368,C#4,709.5,0.219,70,165.0
2369,E5,710.0,2.0,72,165.0
2370,C#4,710.0,0.5,70,165.0
2371,C4,710.5,0.219,65,165.0
2372,C4,711.0,0.5,69,165.0
2373,B-3,711.5,0.25,66,165.0
2374,F5,712.0,0.25,86,165.0
2375,A3,712.0,0.25,57,165.0
2376,F3,712.0,0.25,57,165.0
2377,F5,712.5,0.25,86,165.0
2378,A3,713.0,1.0,42,165.0
2379,F3,713.0,1.0,42,165.0
2380,F5,713.5,0.25,60,165.0
2381,F5,714.0,0.25,65,165.0
2382,F5,714.5,0.25,60,165.0
2383,F3,715.0,1.0,42,165.0
2384,A3,715.0,1.0,42,165.0
2385,F5,715.5,0.25,60,165.0
2386,F5,716.0,0.25,65,165.0
2387,F3,716.0,0.25,43,165.0
2388,B-3,716.0,0.25,43,165.0
2389,G3,716.0,0.25,43,165.0
2390,F5,716.5,0.25,60,165.0
2391,G3,717.0,1.0,40,165.0
2392,B-3,717.0,1.0,40,165.0
2393,F3,717.0,1.0,40,165.0
2394,F5,717.5,0.25,64,165.0
2395,F5,718.0,0.25,66,165.0
2396,F5,718.5,0.25,64,165.0
2397,G#3,719.0,1.0,49,165.0
2398,B3,719.0,1.0,49,165.0
2399,F3,719.0,1.0,49,165.0
2400,F5,719.5,0.25,69,165.0
2401,F5,720.0,0.25,72,165.0
2402,F3,720.0,2.0,39,165.0
2403,A3,720.0,1.0,47,165.0
2404,C4,720.0,1.0,47,165.0
2405,F5,720.5,0.25,72,165.0
2406,A3,721.0,1.0,52,165.0
2407,C#4,721.0,1.0,52,165.0
2408,F5,721.5,0.25,79,165.0
2409,F5,722.0,0.25,82,165.0
2410,F3,722.0,2.0,47,165.0
2411,B-3,722.0,1.0,56,165.0
2412,D4,722.0,1.0,56,165.0
2413,F5,722.5,0.25,84,165.0
2414,B3,723.0,1.0,61,165.0
2415,D4,723.0,1.0,61,165.0
2416,F5,723.5,0.25,86,165.0
2417,F5,724.0,0.5,86,165.0
2418,E-4,724.0,4.0,62,165.0
2419,F3,724.0,4.0,62,165.0
2420,C4,724.0,4.0,62,165.0
2421,A5,724.5,0.25,81,165.0
2422,A5,725.0,0.5,86,165.0
2423,C6,725.5,0.25,81,165.0
2424,C6,726.0,0.5,86,165.0
2425,E-6,726.5,0.25,81,165.0
2426,E-6,727.0,0.5,86,165.0
2427,C6,727.5,0.25,75,165.0
2428,C6,728.0,0.5,81,165.0
2429,A5,728.5,0.25,73,165.0
2430,A5,729.0,0.5,79,165.0
2431,F5,729.5,0.25,71,165.0
2432,F5,730.0,0.5,68,165.0
2433,E5,730.5,0.25,57,165.0
2434,E5,731.0,0.5,60,165.0
2435,F5,731.5,0.25,57,165.0
2436,F5,732.0,0.5,57,165.0
2437,F3,732.0,0.5,36,165.0
2438,E5,732.5,0.5,56,165.0
2439,A3,732.5,9/40,36,165.0
2440,E-5,733.0,2.0,54,165.0
2441,A3,733.0,0.5,42,165.0
2442,C4,733.5,9/40,42,165.0
2443,C4,734.0,0.5,50,165.0
2444,E-4,734.5,9/40,48,165.0
2445,E-5,735.0,1.0,66,165.0
2446,E-4,735.0,0.5,56,165.0
2447,C4,735.5,0.25,51,165.0
2448,E-5,736.0,1.0,66,165.0
2449,C4,736.0,0.5,55,165.0
2450,A3,736.5,9/40,53,165.0
2451,E-5,737.0,0.75,68,165.0
2452,A3,737.0,0.5,55,165.0
2453,F3,737.5,0.5,51,165.0
2454,E-5,738.0,0.75,70,165.0
2455,F#3,738.0,0.5,56,165.0
2456,G3,738.5,0.5,59,165.0
2457,E-5,739.0,0.75,76,165.0
2458,G#3,739.0,0.5,62,165.0
2459,A3,739.5,0.5,65,165.0
2460,D5,740.0,1.0,84,165.0
2461,B-3,740.0,0.25,69,165.0
2462,B-3,740.5,0.25,46,165.0
2463,G#4,741.0,1.0,58,165.0
2464,F5,741.0,1.0,58,165.0
2465,B-3,741.5,0.25,46,165.0
2466,B-3,742.0,0.25,48,165.0
2467,E-5,742.0,1.0,54,165.0
2468,G4,742.0,1.0,54,165.0
2469,B-3,742.5,0.25,46,165.0
2470,F#4,743.0,1.0,48,165.0
2471,D5,743.0,1.0,48,165.0
2472,B-3,743.5,0.25,46,165.0
2473,B-3,744.0,0.25,49,165.0
2474,G4,744.0,1.0,48,165.0
2475,E-5,744.0,1.0,48,165.0
2476,B-3,744.5,0.25,46,165.0
2477,G5,745.0,1.0,56,165.0
2478,B-4,745.0,1.0,56,165.0
2479,B-3,745.5,0.25,46,165.0
2480,B-3,746.0,0.25,49,165.0
2481,F5,746.0,1.0,54,165.0
2482,G#4,746.0,1.0,54,165.0
2483,B-3,746.5,0.25,46,165.0
2484,E5,747.0,1.0,51,165.0
2485,G4,747.0,1.0,51,165.0
2486,B-3,747.5,0.25,45,165.0
2487,B-3,748.0,0.25,48,165.0
2488,G#4,748.0,1.0,56,165.0
2489,F5,748.0,1.0,56,165.0
2490,B-3,748.5,0.25,51,165.0
2491,G#5,749.0,1.0,63,165.0
2492,F5,749.0,1.0,63,165.0
2493,B-3,749.5,0.25,57,165.0
2494,B-3,750.0,0.25,60,165.0
2495,G5,750.0,1.0,69,165.0
2496,E-5,750.0,1.0,69,165.0
2497,B-3,750.5,0.25,64,165.0
2498,F5,751.0,1.0,78,165.0
2499,D5,751.0,1.0,78,165.0
2500,B-3,751.5,0.25,70,165.0
2501,B3,752.0,1.0,66,165.0
2502,G5,752.0,0.25,74,165.0
2503,D5,752.0,0.25,74,165.0
2504,F5,752.0,0.25,74,165.0
2505,G5,752.5,0.25,74,165.0
2506,D5,752.5,0.25,74,165.0
2507,F5,752.5,0.25,74,165.0
2508,B2,753.0,1.0,61,165.0
2509,B3,753.0,1.0,61,165.0
2510,D5,753.5,0.5,74,165.0
2511,F5,753.5,0.5,74,165.0
2512,G5,753.5,0.5,74,165.0
2513,E-5,754.0,0.25,73,165.0
2514,G5,754.0,0.25,73,165.0
2515,E-6,754.0,0.25,73,165.0
2516,C4,754.0,1.0,66,165.0
2517,C3,754.0,1.0,66,165.0
2518,G5,754.5,0.25,70,165.0
2519,E-6,754.5,0.25,70,165.0
2520,E-5,754.5,0.25,70,165.0
2521,B-3,755.0,1.0,61,165.0
2522,B-2,755.0,1.0,61,165.0
2523,G5,755.5,0.5,67,165.0
2524,C5,755.5,0.5,67,165.0
2525,E-5,755.5,0.5,67,165.0
2526,E-5,756.0,0.25,74,165.0
2527,C5,756.0,0.25,74,165.0
2528,F5,756.0,0.25,74,165.0
2529,A2,756.0,1.0,66,165.0
2530,A3,756.0,1.0,66,165.0
2531,C5,756.5,0.25,71,165.0
2532,E-5,756.5,0.25,71,165.0
2533,F5,756.5,0.25,71,165.0
2534,A3,757.0,1.0,61,165.0
2535,A2,757.0,1.0,61,165.0
2536,E-5,757.5,0.5,78,165.0
2537,C5,757.5,0.5,78,165.0
2538,F5,757.5,0.5,78,165.0
2539,D5,758.0,0.25,77,165.0
2540,F5,758.0,0.25,77,165.0
2541,D6,758.0,0.25,77,165.0
2542,B-2,758.0,1.0,64,165.0
2543,B-3,758.0,1.0,64,165.0
2544,D5,758.5,0.25,72,165.0
2545,F5,758.5,0.25,72,165.0
2546,D6,758.5,0.25,72,165.0
2547,A3,759.0,1.0,61,165.0
2548,A2,759.0,1.0,61,165.0
2549,B-4,759.5,0.5,67,165.0
2550,F5,759.5,0.5,67,165.0
2551,D5,759.5,0.5,67,165.0
2552,D5,760.0,0.25,74,165.0
2553,B-4,760.0,0.25,74,165.0
2554,E-5,760.0,0.25,74,165.0
2555,G3,760.0,1.0,64,165.0
2556,G2,760.0,1.0,64,165.0
2557,B-4,760.5,0.25,70,165.0
2558,E-5,760.5,0.25,70,165.0
2559,D5,760.5,0.25,70,165.0
2560,G2,761.0,1.0,61,165.0
2561,G3,761.0,1.0,61,165.0
2562,E-5,761.5,0.5,75,165.0
2563,D5,761.5,0.5,75,165.0
2564,B-4,761.5,0.5,75,165.0
2565,C6,762.0,0.25,75,165.0
2566,C5,762.0,0.25,75,165.0
2567,E-5,762.0,0.25,75,165.0
2568,A3,762.0,1.0,64,165.0
2569,A2,762.0,1.0,64,165.0
2570,C5,762.5,0.25,69,165.0
2571,C6,762.5,0.25,69,165.0
2572,E-5,762.5,0.25,69,165.0
2573,G2,763.0,1.0,61,165.0
2574,G3,763.0,1.0,61,165.0
2575,E-5,763.5,0.5,66,165.0
2576,A4,763.5,0.5,66,165.0
2577,C5,763.5,0.5,66,165.0
2578,A4,764.0,0.25,74,165.0
2579,C5,764.0,0.25,74,165.0
2580,D5,764.0,0.25,74,165.0
2581,F#3,764.0,1.0,62,165.0
2582,F#2,764.0,1.0,62,165.0
2583,D5,764.5,0.25,70,165.0
2584,C5,764.5,0.25,70,165.0
2585,A4,764.5,0.25,70,165.0
2586,F#3,765.0,1.0,61,165.0
2587,F#2,765.0,1.0,61,165.0
2588,A4,765.5,0.5,72,165.0
2589,C5,765.5,0.5,72,165.0
2590,D5,765.5,0.5,72,165.0
2591,B-5,766.0,0.25,74,165.0
2592,D5,766.0,0.25,74,165.0
2593,B-4,766.0,0.25,74,165.0
2594,G2,766.0,1.0,64,165.0
2595,G3,766.0,1.0,64,165.0
2596,B-4,766.5,0.25,69,165.0
2597,B-5,766.5,0.25,69,165.0
2598,D5,766.5,0.25,69,165.0
2599,F3,767.0,1.0,61,165.0
2600,F2,767.0,1.0,61,165.0
2601,D5,767.5,0.5,67,165.0
2602,B-4,767.5,0.5,67,165.0
2603,G4,767.5,0.5,67,165.0
2604,G4,768.0,0.25,74,165.0
2605,C5,768.0,0.25,74,165.0
2606,B-4,768.0,0.25,74,165.0
2607,E-2,768.0,0.5,68,165.0
2608,E-3,768.0,0.5,68,165.0
2609,G3,768.5,0.5,65,165.0
2610,C5,768.5,0.25,71,165.0
2611,G4,768.5,0.25,71,165.0
2612,B-4,768.5,0.25,71,165.0
2613,B-3,769.0,0.5,65,165.0
2614,C5,769.5,0.5,78,165.0
2615,G3,769.5,0.5,65,165.0
2616,B-5,770.0,0.25,86,165.0
2617,E-3,770.0,0.5,71,165.0
2618,B-5,770.5,0.25,82,165.0
2619,G3,770.5,0.5,65,165.0
2620,B-5,771.0,0.5,84,165.0
2621,B-3,771.0,0.5,65,165.0
2622,C5,771.5,0.5,76,165.0
2623,G3,771.5,0.5,60,165.0
2624,D5,772.0,0.25,79,165.0
2625,F3,772.0,0.5,69,165.0
2626,D5,772.5,0.25,79,165.0
2627,G#3,772.5,0.5,60,165.0
2628,B-3,773.0,0.5,65,165.0
2629,D5,773.5,0.5,74,165.0
2630,G#3,773.5,0.5,60,165.0
2631,B-5,774.0,0.25,86,165.0
2632,F3,774.0,0.5,69,165.0
2633,B-5,774.5,0.25,82,165.0
2634,G#3,774.5,0.5,61,165.0
2635,B-5,775.0,0.5,82,165.0
2636,B-3,775.0,0.5,65,165.0
2637,D5,775.5,0.5,76,165.0
2638,G#3,775.5,0.5,61,165.0
2639,E-5,776.0,0.25,80,165.0
2640,G3,776.0,0.5,71,165.0
2641,E-5,776.5,0.25,80,165.0
2642,B-3,776.5,0.5,64,165.0
2643,E-4,777.0,0.5,68,165.0
2644,E5,777.5,0.5,77,165.0
2645,B-3,777.5,0.5,65,165.0
2646,F5,778.0,0.25,82,165.0
2647,D3,778.0,0.5,78,165.0
2648,F5,778.5,0.25,82,165.0
2649,G#3,778.5,0.5,66,165.0
2650,B-3,779.0,0.5,71,165.0
2651,F#5,779.5,0.5,79,165.0
2652,G#3,779.5,0.5,69,165.0
2653,G5,780.0,0.25,80,165.0
2654,E-3,780.0,0.5,79,165.0
2655,G5,780.5,0.25,82,165.0
2656,E-4,780.5,0.5,72,165.0
2657,A5,781.0,0.25,83,165.0
2658,C3,781.0,0.5,82,165.0
2659,A5,781.5,0.25,85,165.0
2660,C4,781.5,0.5,73,165.0
2661,B-5,782.0,0.25,86,165.0
2662,D3,782.0,0.5,83,165.0
2663,B-5,782.5,0.25,88,165.0
2664,D4,782.5,0.5,76,165.0
2665,C6,783.0,0.25,89,165.0
2666,A2,783.0,0.5,84,165.0
2667,C6,783.5,0.25,91,165.0
2668,A3,783.5,0.5,78,165.0
2669,C#6,784.0,1.5,98,165.0
2670,B-2,784.0,2.0,90,165.0
2671,B-3,784.0,2.0,90,165.0
2672,C6,785.5,0.125,84,165.0
2673,B-5,785.625,0.125,87,165.0
2674,A5,785.75,0.125,89,165.0
2675,B-5,785.875,0.125,92,165.0
2676,C#6,786.0,1.5,94,165.0
2677,F#2,786.0,2.0,89,165.0
2678,F#3,786.0,2.0,89,165.0
2679,C6,787.5,0.125,87,165.0
2680,B-5,787.625,0.125,89,165.0
2681,A5,787.75,0.125,91,165.0
2682,B-5,787.875,0.125,94,165.0
2683,C#6,788.0,2.25,95,165.0
2684,E2,788.0,2.0,89,165.0
2685,E3,788.0,2.0,89,165.0
2686,B-5,790.25,0.25,87,165.0
2687,G5,790.5,0.25,86,165.0
2688,E5,790.75,0.25,84,165.0
2689,C#5,791.0,0.25,83,165.0
2690,B-4,791.25,0.25,82,165.0
2691,G4,791.5,0.25,81,165.0
2692,E4,791.75,0.25,79,165.0
2693,C#4,792.0,0.25,69,165.0
2694,B-3,792.25,0.25,71,165.0
2695,G3,792.5,0.25,74,165.0
2696,E3,792.75,0.25,77,165.0
2697,C#3,793.0,0.25,80,165.0
2698,B-2,793.25,0.25,82,165.0
2699,G2,793.5,0.25,85,165.0
2700,E2,793.75,0.25,88,165.0
2701,F2,794.0,51/25,108,165.0
2702,F3,794.0,51/25,108,165.0
2703,A3,796.04,3/50,66,165.0
2704,G3,796.04,3/50,66,165.0
2705,F3,796.119,3/50,70,165.0
2706,G3,796.119,3/50,70,165.0
2707,A3,796.198,3/50,72,165.0
2708,B-3,796.198,3/50,72,165.0
2709,C4,796.277,3/50,74,165.0
2710,D4,796.317,3/50,75,165.0
2711,E-4,796.317,3/50,75,165.0
2712,F4,796.396,3/50,78,165.0
2713,G4,796.396,3/50,78,165.0
2714,A4,796.475,3/50,82,165.0
2715,B-4,796.475,3/50,82,165.0
2716,C5,796.554,3/50,85,165.0
2717,D5,796.554,3/50,85,165.0
2718,E-5,796.633,3/50,88,165.0
2719,F5,796.633,3/50,88,165.0
2720,G5,796.712,3/50,92,165.0
2721,A5,796.712,3/50,92,165.0
2722,B-5,796.792,3/50,94,165.0
2723,C6,796.792,3/50,94,165.0
2724,D6,796.871,3/50,97,165.0
2725,E-6,796.871,3/50,97,165.0
2726,F6,796.95,21/500,99,165.0
2727,B-4,798.0,0.188,63,165.0
2728,B-4,798.25,0.125,64,165.0
2729,C5,798.375,0.125,60,165.0
2730,D5,798.5,0.125,65,165.0
2731,C5,798.625,0.125,60,165.0
2732,D5,798.75,0.125,66,165.0
2733,C5,798.875,0.125,61,165.0
2734,D5,799.0,0.125,67,165.0
2735,C5,799.125,0.125,63,165.0
2736,D5,799.25,0.125,68,165.0
2737,C5,799.375,0.125,63,165.0
2738,D5,799.5,0.125,69,165.0
2739,C5,799.625,0.125,65,165.0
2740,D5,799.75,0.125,70,165.0
2741,C5,799.875,0.125,65,165.0
2742,D5,800.0,0.125,69,165.0
2743,C4,800.0,2.0,54,165.0
2744,E-4,800.0,2.0,54,165.0
2745,F3,800.0,2.0,54,165.0
2746,A3,800.0,2.0,54,165.0
2747,C5,800.125,0.125,64,165.0
2748,D5,800.25,0.125,68,165.0
2749,C5,800.375,0.125,67,165.0
2750,D5,800.5,0.125,66,165.0
2751,C5,800.625,0.125,62,165.0
2752,D5,800.75,0.125,65,165.0
2753,C5,800.875,0.125,64,165.0
2754,B4,801.0,0.125,63,165.0
2755,C5,801.083,0.125,65,165.0
2756,D5,801.167,0.125,66,165.0
2757,E-5,801.25,0.125,68,165.0
2758,F5,801.333,0.125,69,165.0
2759,G5,801.417,0.125,71,165.0
2760,A5,801.5,0.125,72,165.0
2761,B-5,801.583,0.125,74,165.0
2762,C6,801.667,0.125,75,165.0
2763,D6,801.75,0.125,76,165.0
2764,E-6,801.833,0.125,78,165.0
2765,D6,801.917,83/1000,79,165.0
2766,F6,802.0,0.188,96,165.0
2767,D6,802.0,21/500,79,165.0
2768,C4,802.0,1.0,54,165.0
2769,E-4,802.0,1.0,54,165.0
2770,F3,802.0,1.0,54,165.0
2771,A3,802.0,1.0,54,165.0
2772,E-6,802.125,0.188,94,165.0
2773,D6,802.25,0.094,91,165.0
2774,C6,802.375,0.062,89,165.0
2775,E-6,802.5,0.188,92,165.0
2776,D6,802.625,0.188,91,165.0
2777,C6,802.75,0.094,89,165.0
2778,B-5,802.875,0.062,87,165.0
2779,D6,803.0,0.188,91,165.0
2780,C6,803.125,0.188,89,165.0
2781,B-5,803.25,0.094,87,165.0
2782,A5,803.375,0.062,85,165.0
2783,C6,803.5,0.188,89,165.0
2784,B-5,803.625,0.188,88,165.0
2785,A5,803.75,0.094,86,165.0
2786,G5,803.875,0.062,88,165.0
2787,B-5,804.0,0.375,90,165.0
2788,A5,804.25,0.375,82,165.0
2789,G5,804.5,0.125,80,165.0
2790,F5,804.75,0.125,75,165.0
2791,A5,805.0,0.375,81,165.0
2792,G5,805.25,0.375,74,165.0
2793,F5,805.5,0.125,71,165.0
2794,E-5,805.75,0.125,67,165.0
2795,G5,806.0,0.375,72,165.0
2796,F5,806.25,0.375,68,165.0
2797,E-5,806.5,0.125,65,165.0
2798,D5,806.75,0.125,62,165.0
2799,F5,807.0,3/5,64,165.0
2800,E-5,807.5,0.5,60,165.0
2801,D5,808.0,0.25,56,165.0
2802,C5,808.5,0.25,52,165.0
2803,B-4,809.0,0.125,51,165.0
2804,C5,809.25,0.125,49,165.0
2805,C#5,809.5,0.125,48,165.0
2806,D5,809.75,0.125,46,165.0
2807,E-5,810.0,0.5,47,165.0
2808,E5,810.5,0.5,40,165.0
2809,F5,811.002,1.5,60,165.0
2810,B-3,812.0,1.0,42,165.0
2811,D5,812.5,0.5,53,165.0
2812,B-4,813.0,0.25,55,165.0
2813,D4,813.0,0.25,48,165.0
2814,B-4,814.0,0.25,55,165.0
2815,G4,814.0,0.25,46,165.0
2816,E-5,815.0,1/5,60,165.0
2817,C4,815.0,1.0,52,165.0
2818,F5,815.2,1/5,47,165.0
2819,E-5,815.4,1/5,47,165.0
2820,D5,815.6,1/5,47,165.0
2821,E-5,815.8,1/5,49,165.0
2822,G5,816.0,1.0,55,165.0
2823,E-4,816.0,1.0,47,165.0
2824,A4,817.0,1.0,57,165.0
2825,F4,817.0,1.0,48,165.0
2826,E-4,818.0,1.0,45,165.0
2827,A4,818.5,0.5,52,165.0
2828,C5,819.0,0.5,55,165.0
2829,D4,819.0,1.0,53,165.0
2830,B-4,819.5,0.25,53,165.0
2831,D5,820.0,0.5,57,165.0
2832,F4,820.0,2.0,47,165.0
2833,A3,820.0,1.0,47,165.0
2834,C5,820.5,0.25,54,165.0
2835,E-5,821.0,0.5,58,165.0
2836,B-3,821.0,1.0,51,165.0
2837,D5,821.5,0.25,56,165.0
2838,F5,822.0,0.5,60,165.0
2839,E-3,822.0,1.0,48,165.0
2840,C4,822.0,1.0,48,165.0
2841,E-5,822.5,0.25,57,165.0
2842,D5,823.0,1.5,60,165.0
2843,B-3,823.0,2.0,52,165.0
2844,F3,823.0,3.0,52,165.0
2845,E-5,824.5,0.25,57,165.0
2846,D5,824.75,0.25,54,165.0
2847,C5,825.0,0.5,52,165.0
2848,A3,825.0,1.0,47,165.0
2849,D5,825.5,0.5,58,165.0
2850,E-5,826.0,0.5,64,165.0
2851,E5,826.5,0.5,69,165.0
2852,F5,827.0,1.5,76,165.0
2853,B-2,827.0,0.25,62,165.0
2854,B-3,827.5,0.5,50,165.0
2855,D4,828.0,0.5,53,165.0
2856,E-5,828.5,167/1000,68,165.0
2857,B-3,828.5,0.5,50,165.0
2858,D5,828.667,167/1000,68,165.0
2859,C5,828.833,167/1000,68,165.0
2860,B-4,829.0,0.5,72,165.0
2861,G2,829.0,0.25,62,165.0
2862,B-4,829.5,0.25,65,165.0
2863,G3,829.5,0.25,52,165.0
2864,B-4,830.0,0.25,65,165.0
2865,B-3,830.0,0.25,54,165.0
2866,B-4,830.5,0.25,65,165.0
2867,G3,830.5,0.25,52,165.0
2868,E-5,831.0,1/5,78,165.0
2869,C2,831.0,0.25,64,165.0
2870,F5,831.2,1/5,60,165.0
2871,E-5,831.4,1/5,60,165.0
2872,C3,831.5,0.5,51,165.0
2873,D5,831.6,1/5,60,165.0
2874,E-5,831.8,1/5,60,165.0
2875,G5,832.0,1.0,71,165.0
2876,E-3,832.0,0.5,54,165.0
2877,C3,832.5,0.5,52,165.0
2878,A4,833.0,1.0,75,165.0
2879,F2,833.0,0.25,64,165.0
2880,F3,833.5,0.5,53,165.0
2881,A3,834.0,0.5,54,165.0
2882,F5,834.5,0.5,77,165.0
2883,F3,834.5,0.5,54,165.0
2884,D5,835.0,333/1000,84,165.0
2885,B-3,835.0,1.0,63,165.0
2886,F5,835.333,333/1000,74,165.0
2887,B-5,835.667,333/1000,78,165.0
2888,G5,836.0,333/1000,89,165.0
2889,E-3,836.0,1.0,54,165.0
2890,E-5,836.333,333/1000,76,165.0
2891,C5,836.667,333/1000,76,165.0
2892,F5,837.0,333/1000,88,165.0
2893,F3,837.0,1.0,57,165.0
2894,D5,837.333,333/1000,76,165.0
2895,B-4,837.667,333/1000,76,165.0
2896,E-5,838.0,333/1000,85,165.0
2897,F2,838.0,1.0,54,165.0
2898,C5,838.333,333/1000,76,165.0
2899,A4,838.667,333/1000,76,165.0
2900,B-4,839.0,333/1000,90,165.0
2901,D3,839.0,1.0,69,165.0
2902,B-3,839.0,1.0,69,165.0
2903,B-5,839.333,0.25,86,165.0
2904,B-5,839.667,0.25,82,165.0
2905,B-5,840.0,0.25,87,165.0
2906,B-5,840.333,0.25,79,165.0
2907,B-5,840.667,0.25,80,165.0
2908,B-5,841.0,333/1000,86,165.0
2909,A5,841.333,333/1000,77,165.0
2910,G5,841.667,333/1000,77,165.0
2911,F5,842.0,333/1000,81,165.0
2912,D3,842.0,1.0,63,165.0
2913,B-3,842.0,1.0,63,165.0
2914,E-5,842.333,333/1000,78,165.0
2915,D5,842.667,333/1000,77,165.0
2916,C5,843.0,333/1000,88,165.0
2917,B-3,843.0,1.0,68,165.0
2918,E-3,843.0,1.0,68,165.0
2919,G5,843.333,0.25,77,165.0
2920,G5,843.667,0.25,77,165.0
2921,G5,844.0,0.25,83,165.0
2922,G5,844.333,0.25,76,165.0
2923,G5,844.667,333/1000,76,165.0
2924,G5,845.0,333/1000,80,165.0
2925,F5,845.333,333/1000,76,165.0
2926,E-5,845.667,333/1000,75,165.0
2927,D5,846.0,333/1000,78,165.0
2928,E-3,846.0,1.0,64,165.0
2929,A3,846.0,1.0,64,165.0
2930,E-5,846.333,333/1000,73,165.0
2931,C5,846.667,333/1000,73,165.0
2932,E5,847.0,3/10,81,165.0
2933,D3,847.0,1.0,69,165.0
2934,B-3,847.0,3.0,69,165.0
2935,F5,847.25,3/10,83,165.0
2936,G5,847.5,3/10,85,165.0
2937,F5,847.75,3/10,83,165.0
2938,E-5,848.0,3/10,80,165.0
2939,G3,848.0,1.0,59,165.0
2940,D5,848.25,3/10,79,165.0
2941,C5,848.5,3/10,77,165.0
2942,B-4,848.75,0.25,76,165.0
2943,C5,849.0,167/1000,74,165.0
2944,E-3,849.0,1.0,66,165.0
2945,D5,849.167,167/1000,68,165.0
2946,C5,849.333,167/1000,68,165.0
2947,D5,849.5,167/1000,66,165.0
2948,C5,849.667,167/1000,63,165.0
2949,D5,849.833,167/1000,66,165.0
2950,C5,850.0,167/1000,66,165.0
2951,A3,850.0,1.0,59,165.0
2952,F3,850.0,1.0,59,165.0
2953,D5,850.167,167/1000,66,165.0
2954,C5,850.333,167/1000,66,165.0
2955,B-4,850.5,0.25,69,165.0
2956,C5,850.75,0.25,69,165.0
2957,B-4,851.0,0.25,74,165.0
2958,D3,851.0,1.0,64,165.0
2959,B-3,851.0,1.0,64,165.0
2960,B-5,851.5,0.25,74,165.0
2961,A5,851.75,0.25,72,165.0
2962,B-5,852.0,0.25,74,165.0
2963,A5,852.25,0.25,70,165.0
2964,B-5,852.5,0.25,74,165.0
2965,A5,852.75,0.25,71,165.0
2966,B-5,853.0,0.25,74,165.0
2967,A5,853.25,0.25,74,165.0
2968,G5,853.5,0.25,73,165.0
2969,F5,853.75,0.25,72,165.0
2970,E-5,854.0,0.25,71,165.0
2971,B-3,854.0,1.0,54,165.0
2972,D3,854.0,1.0,54,165.0
2973,D5,854.25,0.25,70,165.0
2974,C5,854.5,0.25,70,165.0
2975,B-4,854.75,0.25,69,165.0
2976,G4,855.0,0.25,77,165.0
2977,B-3,855.0,1.0,58,165.0
2978,E-3,855.0,1.0,58,165.0
2979,G5,855.5,0.25,75,165.0
2980,F#5,855.75,0.25,72,165.0
2981,G5,856.0,0.25,75,165.0
2982,F#5,856.25,0.25,71,165.0
2983,G5,856.5,0.25,75,165.0
2984,F#5,856.75,0.25,72,165.0
2985,G5,857.0,0.25,74,165.0
2986,F5,857.25,0.25,74,165.0
2987,E-5,857.5,0.25,73,165.0
2988,D5,857.75,0.25,72,165.0
2989,C5,858.0,0.25,71,165.0
2990,E-3,858.0,1.0,55,165.0
2991,C4,858.0,1.0,55,165.0
2992,B-4,858.25,0.25,70,165.0
2993,A4,858.5,0.25,70,165.0
2994,G4,858.75,0.25,69,165.0
2995,F4,859.0,0.5,77,165.0
2996,F3,859.0,0.5,64,165.0
2997,G4,859.5,3/10,70,165.0
2998,D4,859.5,0.5,57,165.0
2999,A4,859.75,3/10,72,165.0
3000,B-4,860.0,3/10,73,165.0
3001,B-3,860.0,0.5,64,165.0
3002,C5,860.25,3/10,74,165.0
3003,D5,860.5,3/10,76,165.0
3004,D4,860.5,0.5,58,165.0
3005,E-5,860.75,3/10,77,165.0
3006,F5,861.0,3/10,79,165.0
3007,F3,861.0,0.5,64,165.0
3008,G5,861.25,3/10,80,165.0
3009,A5,861.5,3/10,82,165.0
3010,D4,861.5,0.5,58,165.0
3011,B-5,861.75,3/10,83,165.0
3012,C6,862.0,3/10,84,165.0
3013,B-3,862.0,0.5,64,165.0
3014,D6,862.25,3/10,86,165.0
3015,E-6,862.5,3/10,87,165.0
3016,D4,862.5,0.5,58,165.0
3017,F6,862.75,0.25,89,165.0
3018,B-5,863.0,167/1000,71,165.0
3019,F6,863.0,1/20,89,165.0
3020,F3,863.0,0.5,64,165.0
3021,C6,863.167,167/1000,66,165.0
3022,D6,863.333,167/1000,67,165.0
3023,C6,863.5,167/1000,72,165.0
3024,E-4,863.5,0.5,64,165.0
3025,D6,863.667,167/1000,69,165.0
3026,C6,863.833,167/1000,73,165.0
3027,D6,864.0,167/1000,69,165.0
3028,A3,864.0,0.5,67,165.0
3029,C6,864.167,167/1000,74,165.0
3030,D6,864.333,167/1000,71,165.0
3031,C6,864.5,167/1000,75,165.0
3032,E-4,864.5,0.5,64,165.0
3033,D6,864.667,167/1000,71,165.0
3034,C6,864.833,167/1000,75,165.0
3035,D6,865.0,167/1000,71,165.0
3036,F3,865.0,0.5,70,165.0
3037,C6,865.167,167/1000,77,165.0
3038,D6,865.333,167/1000,73,165.0
3039,C6,865.5,167/1000,79,165.0
3040,E-4,865.5,0.5,64,165.0
3041,D6,865.667,167/1000,74,165.0
3042,C6,865.833,167/1000,79,165.0
3043,D6,866.0,0.25,82,165.0
3044,A3,866.0,0.5,71,165.0
3045,C6,866.25,0.25,79,165.0
3046,B-5,866.5,0.25,87,165.0
3047,E-4,866.5,0.5,66,165.0
3048,C6,866.75,0.25,85,165.0
3049,B-5,867.0,1.0,93,165.0
3050,D4,867.0,0.5,66,165.0
3051,B-3,867.5,0.5,49,165.0
3052,D4,868.0,0.5,41,165.0
3053,B-3,868.5,0.5,34,165.0
3054,D4,869.0,0.5,40,165.0
3055,B-3,869.5,0.5,35,165.0
3056,D4,870.0,0.5,40,165.0
3057,B-4,870.5,0.5,51,165.0
3058,B-3,870.5,0.5,35,165.0
3059,G#5,871.0,1.5,54,165.0
3060,F4,871.0,0.5,43,165.0
3061,B-3,871.5,0.5,39,165.0
3062,F4,872.0,0.5,44,165.0
3063,F5,872.5,0.5,52,165.0
3064,B-3,872.5,0.5,38,165.0
3065,D5,873.0,0.5,50,165.0
3066,G#4,873.0,0.5,44,165.0
3067,B-3,873.5,0.5,38,165.0
3068,D5,874.0,0.5,51,165.0
3069,G#4,874.0,0.5,44,165.0
3070,B-3,874.5,0.5,38,165.0
3071,E-5,875.0,0.5,56,165.0
3072,G4,875.0,0.5,44,165.0
3073,B-3,875.5,0.5,42,165.0
3074,F5,876.0,0.5,57,165.0
3075,D4,876.0,0.5,47,165.0
3076,B-3,876.5,0.5,44,165.0
3077,G5,877.0,0.5,61,165.0
3078,E-4,877.0,0.5,50,165.0
3079,B-3,877.5,0.5,46,165.0
3080,E-4,878.0,0.5,44,165.0
3081,G5,878.5,0.5,53,165.0
3082,B-3,878.5,0.5,44,165.0
3083,F5,879.0,11/20,57,165.0
3084,C4,879.0,0.5,43,165.0
3085,E-5,879.5,11/20,57,165.0
3086,B-3,879.5,0.5,38,165.0
3087,D5,880.0,11/20,56,165.0
3088,C4,880.0,0.5,41,165.0
3089,C5,880.5,11/20,56,165.0
3090,B-3,880.5,0.5,40,165.0
3091,B-4,881.0,11/20,55,165.0
3092,C4,881.0,0.5,48,165.0
3093,A4,881.5,11/20,55,165.0
3094,B-3,881.5,0.5,43,165.0
3095,E-5,882.0,11/20,62,165.0
3096,C4,882.0,0.5,43,165.0
3097,A4,882.5,0.5,58,165.0
3098,B-3,882.5,0.5,39,165.0
3099,B-4,883.0,0.25,58,165.0
3100,B-3,883.0,1.0,45,165.0
3101,D4,883.0,1.0,45,165.0
3102,C5,883.5,0.25,60,165.0
3103,D5,884.0,0.25,61,165.0
3104,E-5,884.5,0.25,63,165.0
3105,E5,885.0,0.25,65,165.0
3106,F5,885.5,0.25,67,165.0
3107,F#5,886.0,0.25,69,165.0
3108,G5,886.5,0.25,71,165.0
3109,G#5,887.0,1.5,73,165.0
3110,F4,887.0,0.5,42,165.0
3111,B-3,887.5,0.5,38,165.0
3112,F4,888.0,0.5,42,165.0
3113,G5,888.5,167/1000,58,165.0
3114,B-3,888.5,0.5,39,165.0
3115,F5,888.667,167/1000,58,165.0
3116,E-5,888.833,167/1000,58,165.0
3117,D5,889.0,0.25,63,165.0
3118,G#4,889.0,0.25,42,165.0
3119,D5,889.5,0.25,60,165.0
3120,B-3,889.5,0.25,39,165.0
3121,D5,890.0,0.25,64,165.0
3122,G#4,890.0,0.25,42,165.0
3123,D5,890.5,0.25,60,165.0
3124,B-3,890.5,0.25,38,165.0
3125,E-5,891.0,1.0,66,165.0
3126,G4,891.0,0.5,42,165.0
3127,B-3,891.5,0.5,42,165.0
3128,F5,892.0,167/1000,59,165.0
3129,D4,892.0,0.5,46,165.0
3130,G5,892.167,167/1000,59,165.0
3131,F5,892.333,167/1000,60,165.0
3132,G5,892.5,0.125,60,165.0
3133,B-3,892.5,0.5,42,165.0
3134,F5,892.667,0.125,60,165.0
3135,E-5,892.75,0.125,59,165.0
3136,F5,892.875,0.125,63,165.0
3137,G5,893.0,1.0,66,165.0
3138,E-4,893.0,0.5,45,165.0
3139,B-3,893.5,0.5,34,165.0
3140,E-4,894.0,0.5,39,165.0
3141,G5,894.5,0.5,55,165.0
3142,B-3,894.5,0.5,35,165.0
3143,F5,895.0,11/20,59,165.0
3144,C4,895.0,0.5,45,165.0
3145,E-5,895.5,11/20,58,165.0
3146,B-3,895.5,0.5,42,165.0
3147,D5,896.0,11/20,57,165.0
3148,C4,896.0,0.5,45,165.0
3149,C5,896.5,11/20,57,165.0
3150,B-3,896.5,0.5,42,165.0
3151,B-4,897.0,11/20,56,165.0
3152,C4,897.0,0.5,46,165.0
3153,A4,897.5,11/20,56,165.0
3154,B-3,897.5,0.5,42,165.0
3155,E-5,898.0,11/20,60,165.0
3156,C4,898.0,0.5,46,165.0
3157,A4,898.5,0.5,57,165.0
3158,B-3,898.5,0.5,44,165.0
3159,B-4,899.0,1.0,61,165.0
3160,A4,899.0,1/20,57,165.0
3161,D4,899.0,1.0,49,165.0
3162,B-3,899.0,1.0,49,165.0
3163,D5,900.5,0.5,53,165.0
3164,F5,901.0,0.5,56,165.0
3165,C4,901.0,1.0,39,165.0
3166,F3,901.0,2.0,39,165.0
3167,E-5,901.5,0.5,54,165.0
3168,C5,902.0,0.5,54,165.0
3169,E-4,902.0,1.0,39,165.0
3170,A4,902.5,0.5,54,165.0
3171,B-4,903.0,1.0,57,165.0
3172,D4,903.0,1.0,46,165.0
3173,B-3,903.0,1.0,46,165.0
3174,D5,904.5,0.25,50,165.0
3175,B-4,904.75,0.25,48,165.0
3176,F5,905.0,0.5,54,165.0
3177,C4,905.0,1.0,37,165.0
3178,F3,905.0,2.0,37,165.0
3179,E-5,905.5,0.5,51,165.0
3180,C5,906.0,0.5,51,165.0
3181,E-4,906.0,1.0,37,165.0
3182,A4,906.5,0.5,49,165.0
3183,B-4,907.0,1.0,55,165.0
3184,B-3,907.0,1.0,43,165.0
3185,D4,907.0,1.0,43,165.0
3186,F5,908.5,0.5,91,165.0
3187,A5,909.0,0.5,88,165.0
3188,C5,909.0,0.5,88,165.0
3189,E-5,909.0,0.5,88,165.0
3190,F5,909.0,0.5,88,165.0
3191,F3,909.0,0.5,78,165.0
3192,F2,909.0,0.5,78,165.0
3193,C5,910.0,0.5,88,165.0
3194,E-5,910.0,0.5,88,165.0
3195,F5,910.0,0.5,88,165.0
3196,A5,910.0,0.5,88,165.0
3197,F2,910.0,0.5,78,165.0
3198,F3,910.0,0.5,78,165.0
3199,D5,911.0,0.5,92,165.0
3200,F5,911.0,0.5,92,165.0
3201,B-4,911.0,0.5,92,165.0
3202,B-5,911.0,0.5,92,165.0
3203,B-1,911.0,0.5,82,165.0
3204,B-2,911.0,0.5,82,165.0
