,note_name,start_time,duration,velocity,tempo
0,C#5,0.0,0.75,50,63.51
1,A3,0.0,0.75,45,63.51
2,E4,0.0,1.0,38,63.51
3,D5,0.75,0.25,43,63.51
4,B3,0.75,0.25,35,63.51
5,C#5,1.0,0.5,43,63.51
6,A3,1.0,0.5,32,63.51
7,E4,1.0,0.5,32,63.51
8,E5,1.5,1.0,48,63.51
9,E4,1.5,1.0,34,63.51
10,C#4,1.5,1.0,34,63.51
11,E5,2.5,9/20,42,63.51
12,C#4,2.5,9/20,28,63.51
13,E4,2.5,9/20,28,63.51
14,B4,3.0,0.75,50,63.51
15,G#3,3.0,0.75,45,63.51
16,E4,3.0,1.0,38,63.51
17,C#5,3.75,0.25,45,63.51
18,A3,3.75,0.25,38,63.51
19,B4,4.0,0.5,45,63.51
20,G#3,4.0,0.5,35,63.51
21,E4,4.0,0.5,35,63.51
22,D5,4.5,1.0,49,63.51
23,E4,4.5,1.0,37,63.51
24,B3,4.5,1.0,37,63.51
25,D5,5.5,9/20,45,63.51
26,E4,5.5,9/20,30,63.51
27,B3,5.5,9/20,30,63.51
28,A4,6.0,1.0,53,63.51
29,F#3,6.0,1.0,40,63.51
30,E4,6.0,1.0,40,63.51
31,A4,7.0,0.5,46,63.51
32,E4,7.0,0.5,35,63.51
33,F#3,7.0,0.5,35,63.51
34,B4,7.5,1.0,50,63.51
35,G#3,7.5,1.0,42,63.51
36,E4,7.5,1.0,42,63.51
37,B4,8.5,0.5,46,63.51
38,G#3,8.5,0.5,38,63.51
39,E4,8.5,0.5,38,63.51
40,C#5,9.0,1.0,53,63.51
41,E4,9.0,1.0,42,63.51
42,A3,9.0,1.0,42,63.51
43,B4,10.0,0.5,35,63.51
44,E5,10.0,0.25,49,63.51
45,D3,10.0,0.5,38,63.51
46,D5,10.25,0.25,47,63.51
47,E3,10.5,1.5,45,63.51
48,C#5,10.5,1.0,49,63.51
49,A4,10.5,1.0,49,63.51
50,B4,11.5,9/20,45,63.51
51,G#4,11.5,9/20,45,63.51
52,C#5,12.0,0.75,50,63.51
53,E4,12.0,1.0,38,63.51
54,A3,12.0,0.75,45,63.51
55,D5,12.75,0.25,43,63.51
56,B3,12.75,0.25,35,63.51
57,C#5,13.0,0.5,43,63.51
58,E4,13.0,0.5,32,63.51
59,A3,13.0,0.5,32,63.51
60,E5,13.5,1.0,48,63.51
61,C#4,13.5,1.0,34,63.51
62,E4,13.5,1.0,34,63.51
63,E5,14.5,9/20,42,63.51
64,E4,14.5,9/20,28,63.51
65,C#4,14.5,9/20,28,63.51
66,B4,15.0,0.75,50,63.51
67,G#3,15.0,0.75,45,63.51
68,E4,15.0,1.0,38,63.51
69,C#5,15.75,0.25,45,63.51
70,A3,15.75,0.25,38,63.51
71,B4,16.0,0.5,45,63.51
72,E4,16.0,0.5,35,63.51
73,G#3,16.0,0.5,35,63.51
74,D5,16.5,1.0,49,63.51
75,B3,16.5,1.0,38,63.51
76,E4,16.5,1.0,38,63.51
77,D5,17.5,9/20,45,63.51
78,E4,17.5,9/20,30,63.51
79,B3,17.5,9/20,30,63.51
80,A4,18.0,1.0,55,63.51
81,E4,18.0,1.0,41,63.51
82,F#3,18.0,1.0,41,63.51
83,B4,19.0,0.5,63,63.51
84,G#3,19.0,0.5,49,63.51
85,E4,19.0,0.5,49,63.51
86,C#5,19.5,1.0,68,63.51
87,A3,19.5,1.0,55,63.51
88,E4,19.5,1.0,55,63.51
89,D3,20.5,0.5,55,63.51
90,B4,20.5,0.5,60,63.51
91,D5,20.5,0.5,60,63.51
92,F#4,20.5,0.5,60,63.51
93,E3,21.0,1.0,46,63.51
94,E4,21.0,1.0,50,63.51
95,C#5,21.0,1.0,50,63.51
96,A4,21.0,1.0,50,63.51
97,E2,22.0,0.5,36,63.51
98,G#4,22.0,0.5,36,63.51
99,D4,22.0,0.5,36,63.51
100,B4,22.0,0.5,36,63.51
101,E4,22.0,0.5,36,63.51
102,A2,22.5,1.0,34,63.51
103,A4,22.5,1.0,34,63.51
104,E4,22.5,1.0,34,63.51
105,C#4,22.5,1.0,34,63.51
106,C#5,24.0,0.75,42,63.51
107,A3,24.0,0.75,38,63.51
108,E4,24.0,1.0,32,63.51
109,D5,24.75,0.25,36,63.51
110,B3,24.75,0.25,29,63.51
111,C#5,25.0,0.5,36,63.51
112,A3,25.0,0.5,26,63.51
113,E4,25.0,0.5,26,63.51
114,E5,25.5,1.0,40,63.51
115,E4,25.5,1.0,31,63.51
116,C#4,25.5,1.0,31,63.51
117,E5,26.5,9/20,35,63.51
118,E4,26.5,9/20,24,63.51
119,C#4,26.5,9/20,24,63.51
120,B4,27.0,0.75,42,63.51
121,E4,27.0,1.0,32,63.51
122,G#3,27.0,0.75,38,63.51
123,C#5,27.75,0.25,38,63.51
124,A3,27.75,0.25,32,63.51
125,B4,28.0,0.5,38,63.51
126,E4,28.0,0.5,30,63.51
127,G#3,28.0,0.5,30,63.51
128,D5,28.5,1.0,41,63.51
129,B3,28.5,1.0,31,63.51
130,E4,28.5,1.0,31,63.51
131,D5,29.5,9/20,38,63.51
132,E4,29.5,9/20,24,63.51
133,B3,29.5,9/20,24,63.51
134,A4,30.0,1.0,45,63.51
135,E4,30.0,1.0,33,63.51
136,F#3,30.0,1.0,33,63.51
137,A4,31.0,0.5,39,63.51
138,F#3,31.0,0.5,30,63.51
139,E4,31.0,0.5,30,63.51
140,B4,31.5,1.0,42,63.51
141,E4,31.5,1.0,36,63.51
142,G#3,31.5,1.0,36,63.51
143,B4,32.5,0.5,39,63.51
144,E4,32.5,0.5,31,63.51
145,G#3,32.5,0.5,31,63.51
146,C#5,33.0,1.0,45,63.51
147,A3,33.0,1.0,35,63.51
148,E4,33.0,1.0,35,63.51
149,B4,34.0,0.5,29,63.51
150,E5,34.0,0.25,41,63.51
151,D3,34.0,0.5,32,63.51
152,D5,34.25,0.25,39,63.51
153,E3,34.5,1.5,38,63.51
154,C#5,34.5,1.0,42,63.51
155,A4,34.5,1.0,42,63.51
156,B4,35.5,9/20,38,63.51
157,G#4,35.5,9/20,38,63.51
158,C#5,36.0,0.75,50,63.51
159,A3,36.0,0.75,45,63.51
160,E4,36.0,1.0,38,63.51
161,D5,36.75,0.25,43,63.51
162,B3,36.75,0.25,35,63.51
163,C#5,37.0,0.5,43,63.51
164,E4,37.0,0.5,32,63.51
165,A3,37.0,0.5,32,63.51
166,E5,37.5,1.0,48,63.51
167,C#4,37.5,1.0,37,63.51
168,E4,37.5,1.0,37,63.51
169,E5,38.5,9/20,42,63.51
170,C#4,38.5,9/20,30,63.51
171,E4,38.5,9/20,30,63.51
172,B4,39.0,0.75,50,63.51
173,E4,39.0,1.0,38,63.51
174,G#3,39.0,0.75,45,63.51
175,C#5,39.75,0.25,45,63.51
176,A3,39.75,0.25,38,63.51
177,B4,40.0,0.5,45,63.51
178,E4,40.0,0.5,35,63.51
179,G#3,40.0,0.5,35,63.51
180,D5,40.5,1.0,49,63.51
181,B3,40.5,1.0,38,63.51
182,E4,40.5,1.0,38,63.51
183,D5,41.5,9/20,45,63.51
184,B3,41.5,9/20,30,63.51
185,E4,41.5,9/20,30,63.51
186,A4,42.0,1.0,55,63.51
187,E4,42.0,1.0,41,63.51
188,F#3,42.0,1.0,41,63.51
189,B4,43.0,0.5,63,63.51
190,E4,43.0,0.5,49,63.51
191,G#3,43.0,0.5,49,63.51
192,C#5,43.5,1.0,68,63.51
193,A3,43.5,1.0,55,63.51
194,E4,43.5,1.0,55,63.51
195,D3,44.5,0.5,55,63.51
196,F#4,44.5,0.5,60,63.51
197,D5,44.5,0.5,60,63.51
198,B4,44.5,0.5,60,63.51
199,E3,45.0,1.0,46,63.51
200,C#5,45.0,1.0,50,63.51
201,E4,45.0,1.0,50,63.51
202,A4,45.0,1.0,50,63.51
203,E2,46.0,0.5,36,63.51
204,E4,46.0,0.5,36,63.51
205,G#4,46.0,0.5,36,63.51
206,D4,46.0,0.5,36,63.51
207,B4,46.0,0.5,36,63.51
208,A2,46.5,1.0,34,63.51
209,A4,46.5,1.0,34,63.51
210,E4,46.5,1.0,34,63.51
211,C#4,46.5,1.0,34,63.51
212,E5,48.0,0.75,50,63.51
213,A3,48.0,0.5,39,63.51
214,C#4,48.5,0.5,33,63.51
215,F#5,48.75,0.25,45,63.51
216,E5,49.0,0.5,46,63.51
217,E4,49.0,0.5,34,63.51
218,F#5,49.5,1.0,53,63.51
219,A3,49.5,0.5,37,63.51
220,D4,50.0,0.5,32,63.51
221,F#5,50.5,0.312,42,63.51
222,F#4,50.5,0.5,32,63.51
223,F#5,50.875,0.062,49,63.51
224,G#5,50.938,0.062,53,63.51
225,A5,51.0,0.75,57,63.51
226,A3,51.0,0.5,39,63.51
227,D4,51.5,0.5,33,63.51
228,G#5,51.75,0.25,47,63.51
229,F#5,52.0,0.5,50,63.51
230,F#4,52.0,0.5,34,63.51
231,F#5,52.5,0.5,53,63.51
232,A3,52.5,0.5,37,63.51
233,E5,53.0,0.5,45,63.51
234,C#4,53.0,0.5,32,63.51
235,E5,53.5,0.25,42,63.51
236,E4,53.5,0.25,32,63.51
237,E5,54.0,0.5,59,63.51
238,C#4,54.0,1.0,51,63.51
239,A3,54.0,1.0,51,63.51
240,C#5,54.5,0.5,50,63.51
241,A4,55.0,0.125,49,63.51
242,E5,55.5,0.5,61,63.51
243,G#3,55.5,1.0,43,63.51
244,D4,55.5,1.0,43,63.51
245,D5,56.0,0.5,53,63.51
246,B4,56.5,0.125,48,63.51
247,E5,57.0,0.5,62,63.51
248,C#4,57.0,1.0,50,63.51
249,A3,57.0,1.0,50,63.51
250,C#5,57.5,0.5,51,63.51
251,A4,58.0,229/500,45,63.51
252,F#3,58.0,229/500,48,63.51
253,E-4,58.0,229/500,48,63.51
254,A4,58.5,1.0,44,63.51
255,C#5,58.5,1.0,44,63.51
256,E4,58.5,29/20,40,63.51
257,E3,58.5,29/20,40,63.51
258,G#4,59.5,9/20,37,63.51
259,B4,59.5,9/20,37,63.51
260,C#5,60.0,0.75,50,63.51
261,A3,60.0,0.75,45,63.51
262,E4,60.0,1.0,38,63.51
263,D5,60.75,0.25,43,63.51
264,B3,60.75,0.25,35,63.51
265,C#5,61.0,0.5,43,63.51
266,A3,61.0,0.5,32,63.51
267,E4,61.0,0.5,32,63.51
268,E5,61.5,1.0,48,63.51
269,E4,61.5,1.0,37,63.51
270,C#4,61.5,1.0,37,63.51
271,E5,62.5,9/20,42,63.51
272,E4,62.5,9/20,30,63.51
273,C#4,62.5,9/20,30,63.51
274,B4,63.0,0.75,50,63.51
275,E4,63.0,1.0,38,63.51
276,G#3,63.0,0.75,45,63.51
277,C#5,63.75,0.25,45,63.51
278,A3,63.75,0.25,38,63.51
279,B4,64.0,0.5,45,63.51
280,G#3,64.0,0.5,35,63.51
281,E4,64.0,0.5,35,63.51
282,D5,64.5,1.0,49,63.51
283,B3,64.5,1.0,38,63.51
284,E4,64.5,1.0,38,63.51
285,D5,65.5,9/20,45,63.51
286,E4,65.5,9/20,30,63.51
287,B3,65.5,9/20,30,63.51
288,A4,66.0,1.0,55,63.51
289,E4,66.0,1.0,41,63.51
290,F#3,66.0,1.0,41,63.51
291,B4,67.0,0.5,63,63.51
292,G#3,67.0,0.5,49,63.51
293,E4,67.0,0.5,49,63.51
294,C#5,67.5,1.0,68,63.51
295,A3,67.5,1.0,55,63.51
296,E4,67.5,1.0,55,63.51
297,D3,68.5,0.5,55,63.51
298,B4,68.5,0.5,60,63.51
299,F#4,68.5,0.5,60,63.51
300,D5,68.5,0.5,60,63.51
301,E3,69.0,1.0,46,63.51
302,E4,69.0,1.0,50,63.51
303,C#5,69.0,1.0,50,63.51
304,A4,69.0,1.0,50,63.51
305,E2,70.0,0.5,45,63.51
306,G#4,70.0,0.5,45,63.51
307,B4,70.0,0.5,45,63.51
308,E4,70.0,0.5,45,63.51
309,E4,70.5,1.5,40,63.51
310,A2,70.5,1.5,42,63.51
311,B4,70.5,1.0,44,63.51
312,G#4,70.5,1.0,44,63.51
313,C#5,71.5,0.5,47,63.51
314,A4,71.5,0.5,47,63.51
315,C#5,72.0,1.0,67,63.51
316,A4,72.0,1.0,67,63.51
317,E4,72.0,1.0,67,63.51
318,A3,72.0,1.0,52,63.51
319,A2,72.0,1.0,52,63.51
320,D5,73.0,0.5,67,63.51
321,G#4,73.0,0.5,67,63.51
322,E4,73.0,0.5,67,63.51
323,B2,73.0,0.5,58,63.51
324,B3,73.0,0.5,58,63.51
325,E4,73.5,1.0,72,63.51
326,E5,73.5,1.0,72,63.51
327,A4,73.5,1.0,72,63.51
328,C#3,73.5,1.0,63,63.51
329,C#4,73.5,1.0,63,63.51
330,F#5,74.5,0.25,56,63.51
331,D4,74.5,0.5,35,63.51
332,D3,74.5,0.5,35,63.51
333,G#5,74.75,0.125,44,63.51
334,A5,74.875,0.125,46,63.51
335,A4,75.0,1.0,53,63.51
336,E3,75.0,1.0,38,63.51
337,C#4,75.0,1.0,38,63.51
338,G#4,76.0,0.5,34,63.51
339,C#5,76.0,0.25,41,63.51
340,D4,76.0,0.5,37,63.51
341,E3,76.0,0.5,37,63.51
342,B4,76.25,0.25,39,63.51
343,A4,76.5,1.0,39,63.51
344,C#4,76.5,1.0,37,63.51
345,A3,76.5,1.0,37,63.51
346,E5,78.0,0.75,50,63.51
347,A3,78.0,0.5,39,63.51
348,C#4,78.5,0.5,33,63.51
349,F#5,78.75,0.25,45,63.51
350,E5,79.0,0.5,46,63.51
351,E4,79.0,0.5,34,63.51
352,F#5,79.5,1.0,53,63.51
353,A3,79.5,0.5,37,63.51
354,D4,80.0,0.5,32,63.51
355,F#5,80.5,0.312,42,63.51
356,F#4,80.5,0.5,32,63.51
357,F#5,80.875,0.062,49,63.51
358,G#5,80.938,0.062,53,63.51
359,A5,81.0,0.75,57,63.51
360,A3,81.0,0.5,39,63.51
361,D4,81.5,0.5,33,63.51
362,G#5,81.75,0.25,47,63.51
363,F#5,82.0,0.5,50,63.51
364,F#4,82.0,0.5,34,63.51
365,F#5,82.5,0.5,53,63.51
366,A3,82.5,0.5,37,63.51
367,E5,83.0,0.5,45,63.51
368,C#4,83.0,0.5,32,63.51
369,E5,83.5,0.25,42,63.51
370,E4,83.5,0.25,32,63.51
371,E5,84.0,0.5,59,63.51
372,A3,84.0,1.0,51,63.51
373,C#4,84.0,1.0,51,63.51
374,C#5,84.5,0.5,50,63.51
375,A4,85.0,0.125,49,63.51
376,E5,85.5,0.5,61,63.51
377,D4,85.5,1.0,43,63.51
378,G#3,85.5,1.0,43,63.51
379,D5,86.0,0.5,53,63.51
380,B4,86.5,0.125,48,63.51
381,E5,87.0,0.5,62,63.51
382,A3,87.0,1.0,50,63.51
383,C#4,87.0,1.0,50,63.51
384,C#5,87.5,0.5,51,63.51
385,A4,88.0,229/500,45,63.51
386,E-4,88.0,229/500,48,63.51
387,F#3,88.0,229/500,48,63.51
388,A4,88.5,1.0,44,63.51
389,C#5,88.5,1.0,44,63.51
390,E3,88.5,29/20,40,63.51
391,E4,88.5,29/20,40,63.51
392,B4,89.5,9/20,37,63.51
393,G#4,89.5,9/20,37,63.51
394,C#5,90.0,0.75,42,63.51
395,E4,90.0,1.0,32,63.51
396,A3,90.0,0.75,38,63.51
397,D5,90.75,0.25,36,63.51
398,B3,90.75,0.25,29,63.51
399,C#5,91.0,0.5,36,63.51
400,E4,91.0,0.5,26,63.51
401,A3,91.0,0.5,26,63.51
402,E5,91.5,1.0,40,63.51
403,C#4,91.5,1.0,31,63.51
404,E4,91.5,1.0,31,63.51
405,E5,92.5,9/20,35,63.51
406,C#4,92.5,9/20,24,63.51
407,E4,92.5,9/20,24,63.51
408,B4,93.0,0.75,42,63.51
409,G#3,93.0,0.75,38,63.51
410,E4,93.0,1.0,32,63.51
411,C#5,93.75,0.25,38,63.51
412,A3,93.75,0.25,32,63.51
413,B4,94.0,0.5,38,63.51
414,G#3,94.0,0.5,30,63.51
415,E4,94.0,0.5,30,63.51
416,D5,94.5,1.0,41,63.51
417,B3,94.5,1.0,32,63.51
418,E4,94.5,1.0,32,63.51
419,D5,95.5,9/20,38,63.51
420,B3,95.5,9/20,24,63.51
421,E4,95.5,9/20,24,63.51
422,A4,96.0,1.0,55,63.51
423,E4,96.0,1.0,41,63.51
424,F#3,96.0,1.0,41,63.51
425,B4,97.0,0.5,63,63.51
426,E4,97.0,0.5,49,63.51
427,G#3,97.0,0.5,49,63.51
428,C#5,97.5,1.0,68,63.51
429,E4,97.5,1.0,55,63.51
430,A3,97.5,1.0,55,63.51
431,D3,98.5,0.5,55,63.51
432,D5,98.5,0.5,60,63.51
433,B4,98.5,0.5,60,63.51
434,F#4,98.5,0.5,60,63.51
435,E3,99.0,1.0,52,63.51
436,A4,99.0,1.0,57,63.51
437,C#5,99.0,1.0,57,63.51
438,E4,99.0,1.0,57,63.51
439,E2,100.0,0.5,51,63.51
440,G#4,100.0,0.5,51,63.51
441,E4,100.0,0.5,51,63.51
442,B4,100.0,0.5,51,63.51
443,E4,100.5,1.5,46,63.51
444,A2,100.5,1.5,48,63.51
445,B4,100.5,1.0,56,63.51
446,G#4,100.5,1.0,56,63.51
447,C#5,101.5,0.5,54,63.51
448,A4,101.5,0.5,54,63.51
449,E4,102.0,1.0,67,63.51
450,C#5,102.0,1.0,67,63.51
451,A4,102.0,1.0,67,63.51
452,A3,102.0,1.0,52,63.51
453,A2,102.0,1.0,52,63.51
454,D5,103.0,0.5,67,63.51
455,E4,103.0,0.5,67,63.51
456,G#4,103.0,0.5,67,63.51
457,B2,103.0,0.5,58,63.51
458,B3,103.0,0.5,58,63.51
459,E4,103.5,1.0,72,63.51
460,A4,103.5,1.0,72,63.51
461,E5,103.5,1.0,72,63.51
462,C#3,103.5,1.0,63,63.51
463,C#4,103.5,1.0,63,63.51
464,F#5,104.5,0.25,56,63.51
465,D4,104.5,0.5,35,63.51
466,D3,104.5,0.5,35,63.51
467,G#5,104.75,0.125,44,63.51
468,A5,104.875,0.125,46,63.51
469,A4,105.0,1.0,51,63.51
470,E3,105.0,1.0,36,63.51
471,C#4,105.0,1.0,36,63.51
472,G#4,106.0,0.5,30,63.51
473,C#5,106.0,0.25,36,63.51
474,E3,106.0,0.5,33,63.51
475,D4,106.0,0.5,33,63.51
476,B4,106.25,0.25,35,63.51
477,A4,106.5,1.0,35,63.51
478,C#4,106.5,1.0,33,63.51
479,A3,106.5,1.0,33,63.51
480,C5,111.0,0.25,50,63.51
481,C#5,111.25,1/5,46,63.51
482,E4,111.5,0.188,34,63.51
483,A3,111.5,0.188,34,63.51
484,C#5,111.75,0.25,45,63.51
485,C5,112.0,0.25,45,63.51
486,C#5,112.25,0.25,46,63.51
487,E-5,112.5,0.25,50,63.51
488,E5,112.75,1/5,46,63.51
489,C#4,113.0,0.188,34,63.51
490,E4,113.0,0.188,34,63.51
491,E5,113.25,0.25,47,63.51
492,F#5,113.5,0.25,50,63.51
493,E5,113.75,0.25,48,63.51
494,E5,114.0,0.25,50,63.51
495,B4,114.25,1/5,47,63.51
496,G#3,114.5,0.188,34,63.51
497,E4,114.5,0.188,34,63.51
498,B4,114.75,0.25,48,63.51
499,B-4,115.0,0.25,49,63.51
500,B4,115.25,0.25,50,63.51
501,C#5,115.5,0.25,51,63.51
502,D5,115.75,1/5,48,63.51
503,B3,116.0,0.188,34,63.51
504,E4,116.0,0.188,34,63.51
505,D5,116.25,0.25,49,63.51
506,E5,116.5,0.25,52,63.51
507,D5,116.75,0.188,50,63.51
508,D5,117.0,0.25,53,63.51
509,A4,117.25,1/5,47,63.51
510,F#3,117.5,0.188,40,63.51
511,E4,117.5,0.188,40,63.51
512,A4,117.75,0.25,51,63.51
513,G#4,118.0,0.25,52,63.51
514,A4,118.25,0.25,52,63.51
515,B-4,118.5,0.25,57,63.51
516,B4,118.75,1/5,50,63.51
517,E4,119.0,0.188,40,63.51
518,G#3,119.0,0.188,40,63.51
519,B4,119.25,0.25,52,63.51
520,B-4,119.5,0.25,52,63.51
521,B4,119.75,0.25,52,63.51
522,C5,120.0,0.25,61,63.51
523,E4,120.0,1.0,38,63.51
524,A3,120.0,1.0,38,63.51
525,C#5,120.25,0.25,56,63.51
526,C5,120.5,0.25,62,63.51
527,C#5,120.75,0.25,54,63.51
528,E5,121.0,0.25,62,63.51
529,F#3,121.0,0.5,36,63.51
530,D3,121.0,0.5,36,63.51
531,D5,121.25,0.25,53,63.51
532,C#5,121.5,0.25,56,63.51
533,E3,121.5,1.0,38,63.51
534,G#3,121.5,1.0,38,63.51
535,B4,121.75,0.25,58,63.51
536,A4,122.0,0.25,61,63.51
537,G#4,122.25,0.25,64,63.51
538,F#4,122.5,0.25,66,63.51
539,E4,122.75,0.25,69,63.51
540,A2,123.0,0.25,65,63.51
541,C#5,123.0,1.0,68,63.51
542,A4,123.0,1.0,68,63.51
543,E4,123.0,1.0,68,63.51
544,A3,123.25,0.188,59,63.51
545,A3,123.5,0.188,59,63.51
546,A3,123.75,0.188,59,63.51
547,A3,124.0,0.188,59,63.51
548,D5,124.0,0.5,70,63.51
549,B4,124.0,0.5,70,63.51
550,A3,124.25,0.188,59,63.51
551,A2,124.5,0.25,65,63.51
552,E-5,124.5,0.5,76,63.51
553,C5,124.5,0.5,76,63.51
554,A3,124.75,0.188,59,63.51
555,A3,125.0,0.188,59,63.51
556,C#5,125.0,0.5,72,63.51
557,E5,125.0,0.5,72,63.51
558,A3,125.25,0.188,58,63.51
559,A3,125.5,0.188,58,63.51
560,A3,125.75,0.188,58,63.51
561,C#5,125.75,0.25,70,63.51
562,A4,125.75,0.25,70,63.51
563,E2,126.0,0.25,65,63.51
564,E4,126.0,0.5,73,63.51
565,B4,126.0,0.5,73,63.51
566,G#4,126.0,0.5,73,63.51
567,E3,126.25,0.188,57,63.51
568,E3,126.5,0.188,57,63.51
569,B4,126.5,0.5,68,63.51
570,E4,126.5,0.5,68,63.51
571,G#4,126.5,0.5,68,63.51
572,E3,126.75,0.188,57,63.51
573,E3,127.0,0.188,57,63.51
574,A4,127.0,0.5,72,63.51
575,C#5,127.0,0.5,72,63.51
576,E4,127.0,0.5,72,63.51
577,E3,127.25,0.188,57,63.51
578,E4,127.5,1.0,69,63.51
579,E2,127.5,0.25,65,63.51
580,B-4,127.5,0.5,76,63.51
581,C#5,127.5,0.5,76,63.51
582,E3,127.75,0.188,58,63.51
583,E3,128.0,0.188,58,63.51
584,B4,128.0,0.5,74,63.51
585,D5,128.0,0.5,74,63.51
586,E3,128.25,0.188,58,63.51
587,E3,128.5,0.188,58,63.51
588,E3,128.75,0.188,58,63.51
589,G#4,128.75,0.25,64,63.51
590,B4,128.75,0.25,64,63.51
591,A4,129.0,0.25,76,63.51
592,F#2,129.0,0.25,65,63.51
593,F#3,129.25,0.188,57,63.51
594,A4,129.5,0.25,70,63.51
595,F#3,129.5,0.188,57,63.51
596,F#3,129.75,0.188,57,63.51
597,B4,130.0,83/1000,70,63.51
598,G#2,130.0,0.25,65,63.51
599,C#5,130.083,83/1000,68,63.51
600,B4,130.167,83/1000,68,63.51
601,A4,130.25,0.125,70,63.51
602,G#3,130.25,0.25,57,63.51
603,B4,130.375,0.125,70,63.51
604,C#5,130.5,0.25,77,63.51
605,A2,130.5,0.25,65,63.51
606,A3,130.75,0.188,58,63.51
607,C#5,131.0,0.25,70,63.51
608,A3,131.0,0.188,58,63.51
609,A3,131.25,0.188,59,63.51
610,D2,131.5,0.25,65,63.51
611,B4,131.5,0.5,66,63.51
612,F#4,131.5,0.5,66,63.51
613,D5,131.5,0.5,66,63.51
614,D3,131.75,0.25,59,63.51
615,E2,132.0,0.25,65,63.51
616,A4,132.0,0.5,68,63.51
617,E4,132.0,0.5,68,63.51
618,C#5,132.0,0.5,68,63.51
619,E3,132.25,0.188,58,63.51
620,E3,132.5,0.188,58,63.51
621,A4,132.5,0.5,66,63.51
622,C#5,132.5,0.5,66,63.51
623,E4,132.5,0.5,66,63.51
624,E3,132.75,0.188,58,63.51
625,E2,133.0,0.25,65,63.51
626,B4,133.0,0.5,64,63.51
627,D4,133.0,0.5,64,63.51
628,G#4,133.0,0.5,64,63.51
629,E4,133.0,0.5,64,63.51
630,E3,133.25,0.25,56,63.51
631,A1,133.5,0.5,75,63.51
632,A4,133.5,0.5,68,63.51
633,C#4,133.5,0.5,68,63.51
634,E4,133.5,0.5,68,63.51
635,A2,134.0,0.5,67,63.51
636,C5,135.0,0.25,50,63.51
637,C#5,135.25,1/5,46,63.51
638,A3,135.5,0.188,34,63.51
639,E4,135.5,0.188,34,63.51
640,C#5,135.75,0.25,45,63.51
641,C5,136.0,0.25,45,63.51
642,C#5,136.25,0.25,46,63.51
643,E-5,136.5,0.25,50,63.51
644,E5,136.75,1/5,46,63.51
645,C#4,137.0,0.188,34,63.51
646,E4,137.0,0.188,34,63.51
647,E5,137.25,0.25,47,63.51
648,F#5,137.5,0.25,50,63.51
649,E5,137.75,0.25,48,63.51
650,E5,138.0,0.25,50,63.51
651,B4,138.25,1/5,47,63.51
652,G#3,138.5,0.188,34,63.51
653,E4,138.5,0.188,34,63.51
654,B4,138.75,0.25,48,63.51
655,B-4,139.0,0.25,49,63.51
656,B4,139.25,0.25,50,63.51
657,C#5,139.5,0.25,51,63.51
658,D5,139.75,1/5,48,63.51
659,B3,140.0,0.188,34,63.51
660,E4,140.0,0.188,34,63.51
661,D5,140.25,0.25,49,63.51
662,E5,140.5,0.25,52,63.51
663,D5,140.75,0.188,50,63.51
664,D5,141.0,0.25,53,63.51
665,A4,141.25,1/5,47,63.51
666,F#3,141.5,0.188,40,63.51
667,E4,141.5,0.188,40,63.51
668,A4,141.75,0.25,51,63.51
669,G#4,142.0,0.25,52,63.51
670,A4,142.25,0.25,52,63.51
671,B-4,142.5,0.25,57,63.51
672,B4,142.75,1/5,50,63.51
673,E4,143.0,0.188,40,63.51
674,G#3,143.0,0.188,40,63.51
675,B4,143.25,0.25,52,63.51
676,B-4,143.5,0.25,52,63.51
677,B4,143.75,0.25,52,63.51
678,C5,144.0,0.25,61,63.51
679,E4,144.0,1.0,38,63.51
680,A3,144.0,1.0,38,63.51
681,C#5,144.25,0.25,56,63.51
682,C5,144.5,0.25,62,63.51
683,C#5,144.75,0.25,54,63.51
684,E5,145.0,0.25,62,63.51
685,F#3,145.0,0.5,36,63.51
686,D3,145.0,0.5,36,63.51
687,D5,145.25,0.25,53,63.51
688,C#5,145.5,0.25,56,63.51
689,G#3,145.5,1.0,38,63.51
690,E3,145.5,1.0,38,63.51
691,B4,145.75,0.25,58,63.51
692,A4,146.0,0.25,61,63.51
693,G#4,146.25,0.25,64,63.51
694,F#4,146.5,0.25,66,63.51
695,E4,146.75,0.25,69,63.51
696,A2,147.0,0.25,65,63.51
697,E4,147.0,1.0,68,63.51
698,C#5,147.0,1.0,68,63.51
699,A4,147.0,1.0,68,63.51
700,A3,147.25,0.188,59,63.51
701,A3,147.5,0.188,59,63.51
702,A3,147.75,0.188,59,63.51
703,A3,148.0,0.188,59,63.51
704,B4,148.0,0.5,70,63.51
705,D5,148.0,0.5,70,63.51
706,A3,148.25,0.188,59,63.51
707,A2,148.5,0.25,65,63.51
708,E-5,148.5,0.5,76,63.51
709,C5,148.5,0.5,76,63.51
710,A3,148.75,0.188,59,63.51
711,A3,149.0,0.188,59,63.51
712,C#5,149.0,0.5,72,63.51
713,E5,149.0,0.5,72,63.51
714,A3,149.25,0.188,58,63.51
715,A3,149.5,0.188,58,63.51
716,A3,149.75,0.188,58,63.51
717,A4,149.75,0.25,70,63.51
718,C#5,149.75,0.25,70,63.51
719,E2,150.0,0.25,65,63.51
720,G#4,150.0,0.5,73,63.51
721,B4,150.0,0.5,73,63.51
722,E4,150.0,0.5,73,63.51
723,E3,150.25,0.188,57,63.51
724,E3,150.5,0.188,57,63.51
725,B4,150.5,0.5,68,63.51
726,E4,150.5,0.5,68,63.51
727,G#4,150.5,0.5,68,63.51
728,E3,150.75,0.188,57,63.51
729,E3,151.0,0.188,57,63.51
730,E4,151.0,0.5,72,63.51
731,A4,151.0,0.5,72,63.51
732,C#5,151.0,0.5,72,63.51
733,E3,151.25,0.188,57,63.51
734,E4,151.5,1.0,69,63.51
735,E2,151.5,0.25,65,63.51
736,C#5,151.5,0.5,76,63.51
737,B-4,151.5,0.5,76,63.51
738,E3,151.75,0.188,58,63.51
739,E3,152.0,0.188,58,63.51
740,D5,152.0,0.5,74,63.51
741,B4,152.0,0.5,74,63.51
742,E3,152.25,0.188,58,63.51
743,E3,152.5,0.188,58,63.51
744,E3,152.75,0.188,58,63.51
745,G#4,152.75,0.25,64,63.51
746,B4,152.75,0.25,64,63.51
747,A4,153.0,0.25,76,63.51
748,F#2,153.0,0.25,65,63.51
749,F#3,153.25,0.188,57,63.51
750,A4,153.5,0.25,70,63.51
751,F#3,153.5,0.188,57,63.51
752,F#3,153.75,0.188,57,63.51
753,B4,154.0,83/1000,70,63.51
754,G#2,154.0,0.25,65,63.51
755,C#5,154.083,83/1000,68,63.51
756,B4,154.167,83/1000,68,63.51
757,A4,154.25,0.125,70,63.51
758,G#3,154.25,0.25,57,63.51
759,B4,154.375,0.125,70,63.51
760,C#5,154.5,0.25,77,63.51
761,A2,154.5,0.25,65,63.51
762,A3,154.75,0.188,58,63.51
763,C#5,155.0,0.25,70,63.51
764,A3,155.0,0.188,58,63.51
765,A3,155.25,0.188,59,63.51
766,D2,155.5,0.25,65,63.51
767,D5,155.5,0.5,66,63.51
768,B4,155.5,0.5,66,63.51
769,F#4,155.5,0.5,66,63.51
770,D3,155.75,0.25,59,63.51
771,E2,156.0,0.25,65,63.51
772,C#5,156.0,0.5,68,63.51
773,A4,156.0,0.5,68,63.51
774,E4,156.0,0.5,68,63.51
775,E3,156.25,0.188,58,63.51
776,E3,156.5,0.188,58,63.51
777,E4,156.5,0.5,66,63.51
778,C#5,156.5,0.5,66,63.51
779,A4,156.5,0.5,66,63.51
780,E3,156.75,0.188,58,63.51
781,E2,157.0,0.25,65,63.51
782,D4,157.0,0.5,64,63.51
783,E4,157.0,0.5,64,63.51
784,G#4,157.0,0.5,64,63.51
785,B4,157.0,0.5,64,63.51
786,E3,157.25,0.25,56,63.51
787,A1,157.5,0.5,75,63.51
788,C#4,157.5,0.5,68,63.51
789,E4,157.5,0.5,68,63.51
790,A4,157.5,0.5,68,63.51
791,A2,158.0,0.5,67,63.51
792,E-5,159.0,0.25,50,63.51
793,E5,159.25,1/5,46,63.51
794,C#4,159.5,0.188,34,63.51
795,A3,159.5,0.188,34,63.51
796,E5,159.75,0.25,45,63.51
797,E-5,160.0,0.25,45,63.51
798,E5,160.25,0.25,46,63.51
799,F5,160.5,0.25,50,63.51
800,F#5,160.75,1/5,46,63.51
801,A3,161.0,0.188,34,63.51
802,D4,161.0,0.188,34,63.51
803,F#5,161.25,0.25,47,63.51
804,F5,161.5,0.25,50,63.51
805,F#5,161.75,0.25,48,63.51
806,G#5,162.0,0.25,55,63.51
807,F#4,162.0,0.188,28,63.51
808,A3,162.0,0.188,28,63.51
809,A5,162.25,1/5,47,63.51
810,G5,162.5,0.25,55,63.51
811,A3,162.5,0.188,26,63.51
812,E4,162.5,0.188,26,63.51
813,G#5,162.75,1/5,48,63.51
814,F5,163.0,0.25,55,63.51
815,A3,163.0,0.188,26,63.51
816,D4,163.0,0.188,26,63.51
817,F#5,163.25,1/5,47,63.51
818,E-5,163.5,0.25,55,63.51
819,E5,163.75,1/5,46,63.51
820,C#4,164.0,0.188,34,63.51
821,A3,164.0,0.188,34,63.51
822,E5,164.25,9/40,55,63.51
823,E5,164.5,9/40,57,63.51
824,E5,164.75,9/40,58,63.51
825,E5,165.0,0.25,72,63.51
826,A3,165.0,1.5,49,63.51
827,E4,165.0,1.5,49,63.51
828,C#4,165.0,1.5,49,63.51
829,C#5,165.25,0.25,64,63.51
830,A4,165.5,0.25,59,63.51
831,E5,165.75,9/40,57,63.51
832,E5,166.0,9/40,59,63.51
833,E5,166.25,9/40,61,63.51
834,E5,166.5,0.25,70,63.51
835,E4,166.5,1.5,46,63.51
836,B3,166.5,1.5,46,63.51
837,D4,166.5,1.5,46,63.51
838,D5,166.75,0.25,62,63.51
839,G#4,167.0,0.25,58,63.51
840,E5,167.25,9/40,59,63.51
841,E5,167.5,9/40,62,63.51
842,E5,167.75,9/40,64,63.51
843,E5,168.0,0.25,69,63.51
844,E4,168.0,1.0,54,63.51
845,C#4,168.0,1.0,54,63.51
846,C#5,168.25,0.25,63,63.51
847,A4,168.5,0.25,48,63.51
848,E5,168.75,0.25,52,63.51
849,C#5,169.0,0.25,51,63.51
850,A3,169.0,0.5,28,63.51
851,F#3,169.0,0.5,28,63.51
852,E-4,169.0,0.5,28,63.51
853,A4,169.25,0.25,49,63.51
854,C#5,169.5,1.0,47,63.51
855,A4,169.5,1.0,47,63.51
856,E4,169.5,1.5,37,63.51
857,E3,169.5,1.5,37,63.51
858,B4,170.5,0.5,43,63.51
859,G#4,170.5,0.5,43,63.51
860,C5,171.0,0.25,50,63.51
861,C#5,171.25,1/5,46,63.51
862,A3,171.5,0.188,34,63.51
863,E4,171.5,0.188,34,63.51
864,C#5,171.75,0.25,45,63.51
865,C5,172.0,0.25,45,63.51
866,C#5,172.25,0.25,46,63.51
867,E-5,172.5,0.25,50,63.51
868,E5,172.75,1/5,46,63.51
869,E4,173.0,0.188,34,63.51
870,C#4,173.0,0.188,34,63.51
871,E5,173.25,0.25,47,63.51
872,F#5,173.5,0.25,50,63.51
873,E5,173.75,0.188,48,63.51
874,E5,174.0,0.25,50,63.51
875,B4,174.25,1/5,47,63.51
876,E4,174.5,0.188,39,63.51
877,G#3,174.5,0.188,39,63.51
878,B4,174.75,0.25,48,63.51
879,B-4,175.0,0.25,49,63.51
880,B4,175.25,0.25,50,63.51
881,C#5,175.5,0.25,51,63.51
882,D5,175.75,1/5,48,63.51
883,E4,176.0,0.188,39,63.51
884,B3,176.0,0.188,39,63.51
885,D5,176.25,0.25,49,63.51
886,E5,176.5,0.25,52,63.51
887,D5,176.75,0.188,50,63.51
888,D5,177.0,0.25,53,63.51
889,A4,177.25,1/5,47,63.51
890,F#3,177.5,0.5,49,63.51
891,E4,177.5,0.5,49,63.51
892,A4,177.75,0.25,51,63.51
893,C#5,178.0,0.25,52,63.51
894,G#3,178.0,0.5,47,63.51
895,E4,178.0,0.5,47,63.51
896,B4,178.25,0.25,52,63.51
897,D5,178.5,0.25,57,63.51
898,C#5,178.75,1/5,50,63.51
899,G#3,179.0,0.5,49,63.51
900,E4,179.0,0.5,49,63.51
901,C#5,179.25,0.25,52,63.51
902,E5,179.5,0.25,57,63.51
903,B3,179.5,0.5,48,63.51
904,D3,179.5,0.5,48,63.51
905,D5,179.75,0.25,54,63.51
906,C5,180.0,0.25,60,63.51
907,C#5,180.25,1/5,54,63.51
908,A3,180.5,0.5,52,63.51
909,E3,180.5,0.5,52,63.51
910,C#5,180.75,0.25,55,63.51
911,D5,181.0,0.25,59,63.51
912,G#3,181.0,0.5,47,63.51
913,E3,181.0,0.5,47,63.51
914,B4,181.25,0.25,54,63.51
915,B4,181.5,0.75,60,63.51
916,G#4,181.5,1.0,48,63.51
917,A3,181.5,0.5,61,63.51
918,E3,182.0,0.5,55,63.51
919,C5,182.25,0.25,59,63.51
920,A2,182.5,0.5,55,63.51
921,A4,182.5,0.5,58,63.51
922,C#5,182.5,0.5,58,63.51
923,A1,183.0,0.25,71,63.51
924,C#5,183.0,0.375,68,63.51
925,A4,183.0,0.375,68,63.51
926,E4,183.0,0.375,68,63.51
927,A2,183.25,0.188,60,63.51
928,A2,183.5,0.188,60,63.51
929,C#5,183.5,0.375,68,63.51
930,A4,183.5,0.375,68,63.51
931,E4,183.5,0.375,68,63.51
932,A2,183.75,0.188,60,63.51
933,B1,184.0,0.25,67,63.51
934,E4,184.0,0.375,64,63.51
935,D5,184.0,0.375,64,63.51
936,G#4,184.0,0.375,64,63.51
937,B2,184.25,0.25,59,63.51
938,C#2,184.5,0.25,66,63.51
939,E4,184.5,0.375,67,63.51
940,A4,184.5,0.375,67,63.51
941,E5,184.5,0.375,67,63.51
942,C#3,184.75,0.188,59,63.51
943,C#3,185.0,0.188,57,63.51
944,E5,185.0,0.375,62,63.51
945,A4,185.0,0.375,62,63.51
946,C#3,185.25,0.188,57,63.51
947,D2,185.5,0.25,68,63.51
948,F#5,185.5,0.25,66,63.51
949,A4,185.5,0.25,66,63.51
950,G#5,185.75,0.125,68,63.51
951,D3,185.75,0.25,62,63.51
952,A5,185.875,0.125,68,63.51
953,E2,186.0,0.25,69,63.51
954,A4,186.0,0.5,68,63.51
955,C#4,186.0,0.5,68,63.51
956,E4,186.0,0.5,68,63.51
957,E3,186.25,0.188,55,63.51
958,E3,186.5,0.188,55,63.51
959,E4,186.5,0.5,66,63.51
960,C#4,186.5,0.5,66,63.51
961,A4,186.5,0.5,66,63.51
962,E3,186.75,0.188,55,63.51
963,E2,187.0,0.25,64,63.51
964,E4,187.0,0.5,64,63.51
965,G#4,187.0,0.5,64,63.51
966,B4,187.0,0.5,64,63.51
967,D4,187.0,0.5,64,63.51
968,E3,187.25,0.25,55,63.51
969,A1,187.5,0.5,73,63.51
970,E4,187.5,0.5,68,63.51
971,A4,187.5,0.5,68,63.51
972,C#4,187.5,0.5,68,63.51
973,A2,188.0,0.5,67,63.51
974,E-5,189.0,0.25,50,63.51
975,E5,189.25,1/5,46,63.51
976,A3,189.5,0.188,34,63.51
977,C#4,189.5,0.188,34,63.51
978,E5,189.75,0.25,45,63.51
979,E-5,190.0,0.25,45,63.51
980,E5,190.25,0.25,46,63.51
981,F5,190.5,0.25,50,63.51
982,F#5,190.75,1/5,46,63.51
983,D4,191.0,0.188,34,63.51
984,A3,191.0,0.188,34,63.51
985,F#5,191.25,0.25,47,63.51
986,F5,191.5,0.25,50,63.51
987,F#5,191.75,0.25,48,63.51
988,G#5,192.0,0.25,55,63.51
989,A3,192.0,0.188,28,63.51
990,F#4,192.0,0.188,28,63.51
991,A5,192.25,1/5,47,63.51
992,G5,192.5,0.25,55,63.51
993,A3,192.5,0.188,26,63.51
994,E4,192.5,0.188,26,63.51
995,G#5,192.75,1/5,48,63.51
996,F5,193.0,0.25,55,63.51
997,D4,193.0,0.188,26,63.51
998,A3,193.0,0.188,26,63.51
999,F#5,193.25,1/5,47,63.51
1000,E-5,193.5,0.25,55,63.51
1001,E5,193.75,1/5,46,63.51
1002,C#4,194.0,0.188,34,63.51
1003,A3,194.0,0.188,34,63.51
1004,E5,194.25,9/40,55,63.51
1005,E5,194.5,9/40,57,63.51
1006,E5,194.75,9/40,58,63.51
1007,E5,195.0,0.25,72,63.51
1008,E4,195.0,1.5,49,63.51
1009,C#4,195.0,1.5,49,63.51
1010,A3,195.0,1.5,49,63.51
1011,C#5,195.25,0.25,64,63.51
1012,A4,195.5,0.25,59,63.51
1013,E5,195.75,9/40,57,63.51
1014,E5,196.0,9/40,59,63.51
1015,E5,196.25,9/40,61,63.51
1016,E5,196.5,0.25,70,63.51
1017,B3,196.5,1.5,46,63.51
1018,E4,196.5,1.5,46,63.51
1019,D4,196.5,1.5,46,63.51
1020,D5,196.75,0.25,62,63.51
1021,G#4,197.0,0.25,58,63.51
1022,E5,197.25,9/40,59,63.51
1023,E5,197.5,9/40,62,63.51
1024,E5,197.75,9/40,64,63.51
1025,E5,198.0,0.25,69,63.51
1026,C#4,198.0,1.0,54,63.51
1027,E4,198.0,1.0,54,63.51
1028,C#5,198.25,0.25,63,63.51
1029,A4,198.5,0.25,48,63.51
1030,E5,198.75,0.25,52,63.51
1031,C#5,199.0,0.25,51,63.51
1032,F#3,199.0,0.5,28,63.51
1033,E-4,199.0,0.5,28,63.51
1034,A3,199.0,0.5,28,63.51
1035,A4,199.25,0.25,49,63.51
1036,C#5,199.5,1.0,47,63.51
1037,A4,199.5,1.0,47,63.51
1038,E3,199.5,1.5,37,63.51
1039,E4,199.5,1.5,37,63.51
1040,B4,200.5,0.5,43,63.51
1041,G#4,200.5,0.5,43,63.51
1042,C5,201.0,0.25,50,63.51
1043,C#5,201.25,1/5,46,63.51
1044,A3,201.5,0.188,34,63.51
1045,E4,201.5,0.188,34,63.51
1046,C#5,201.75,0.25,45,63.51
1047,C5,202.0,0.25,45,63.51
1048,C#5,202.25,0.25,46,63.51
1049,E-5,202.5,0.25,50,63.51
1050,E5,202.75,1/5,46,63.51
1051,E4,203.0,0.188,34,63.51
1052,C#4,203.0,0.188,34,63.51
1053,E5,203.25,0.25,47,63.51
1054,F#5,203.5,0.25,50,63.51
1055,E5,203.75,0.188,48,63.51
1056,E5,204.0,0.25,50,63.51
1057,B4,204.25,1/5,47,63.51
1058,E4,204.5,0.188,39,63.51
1059,G#3,204.5,0.188,39,63.51
1060,B4,204.75,0.25,48,63.51
1061,B-4,205.0,0.25,49,63.51
1062,B4,205.25,0.25,50,63.51
1063,C#5,205.5,0.25,51,63.51
1064,D5,205.75,1/5,48,63.51
1065,B3,206.0,0.188,39,63.51
1066,E4,206.0,0.188,39,63.51
1067,D5,206.25,0.25,49,63.51
1068,E5,206.5,0.25,52,63.51
1069,D5,206.75,0.188,50,63.51
1070,D5,207.0,0.25,53,63.51
1071,A4,207.25,1/5,47,63.51
1072,E4,207.5,0.5,49,63.51
1073,F#3,207.5,0.5,49,63.51
1074,A4,207.75,0.25,51,63.51
1075,C#5,208.0,0.25,52,63.51
1076,G#3,208.0,0.5,47,63.51
1077,E4,208.0,0.5,47,63.51
1078,B4,208.25,0.25,52,63.51
1079,D5,208.5,0.25,57,63.51
1080,C#5,208.75,1/5,50,63.51
1081,G#3,209.0,0.5,49,63.51
1082,E4,209.0,0.5,49,63.51
1083,C#5,209.25,0.25,52,63.51
1084,E5,209.5,0.25,57,63.51
1085,D3,209.5,0.5,48,63.51
1086,B3,209.5,0.5,48,63.51
1087,D5,209.75,0.25,54,63.51
1088,C5,210.0,0.25,60,63.51
1089,C#5,210.25,1/5,54,63.51
1090,A3,210.5,0.5,52,63.51
1091,E3,210.5,0.5,52,63.51
1092,C#5,210.75,0.25,55,63.51
1093,D5,211.0,0.25,59,63.51
1094,G#3,211.0,0.5,47,63.51
1095,E3,211.0,0.5,47,63.51
1096,B4,211.25,0.25,54,63.51
1097,B4,211.5,0.75,60,63.51
1098,G#4,211.5,1.0,48,63.51
1099,A3,211.5,0.5,61,63.51
1100,E3,212.0,0.5,55,63.51
1101,C5,212.25,0.25,59,63.51
1102,A2,212.5,0.5,55,63.51
1103,A4,212.5,0.5,58,63.51
1104,C#5,212.5,0.5,58,63.51
1105,A1,213.0,0.25,71,63.51
1106,C#5,213.0,0.375,68,63.51
1107,E4,213.0,0.375,68,63.51
1108,A4,213.0,0.375,68,63.51
1109,A2,213.25,0.188,60,63.51
1110,A2,213.5,0.188,60,63.51
1111,A4,213.5,0.375,68,63.51
1112,E4,213.5,0.375,68,63.51
1113,C#5,213.5,0.375,68,63.51
1114,A2,213.75,0.188,60,63.51
1115,B1,214.0,0.25,67,63.51
1116,D5,214.0,0.375,64,63.51
1117,E4,214.0,0.375,64,63.51
1118,G#4,214.0,0.375,64,63.51
1119,B2,214.25,0.25,59,63.51
1120,C#2,214.5,0.25,66,63.51
1121,A4,214.5,0.375,67,63.51
1122,E5,214.5,0.375,67,63.51
1123,E4,214.5,0.375,67,63.51
1124,C#3,214.75,0.188,59,63.51
1125,C#3,215.0,0.188,57,63.51
1126,E5,215.0,0.375,62,63.51
1127,A4,215.0,0.375,62,63.51
1128,C#3,215.25,0.188,57,63.51
1129,D2,215.5,0.25,68,63.51
1130,F#5,215.5,0.25,66,63.51
1131,A4,215.5,0.25,66,63.51
1132,G#5,215.75,0.125,68,63.51
1133,D3,215.75,0.25,62,63.51
1134,A5,215.875,0.125,68,63.51
1135,E2,216.0,0.25,69,63.51
1136,A4,216.0,0.5,68,63.51
1137,E4,216.0,0.5,68,63.51
1138,C#4,216.0,0.5,68,63.51
1139,E3,216.25,0.188,55,63.51
1140,E3,216.5,0.188,55,63.51
1141,E4,216.5,0.5,66,63.51
1142,A4,216.5,0.5,66,63.51
1143,C#4,216.5,0.5,66,63.51
1144,E3,216.75,0.188,55,63.51
1145,E2,217.0,0.25,64,63.51
1146,E4,217.0,0.5,64,63.51
1147,B4,217.0,0.5,64,63.51
1148,G#4,217.0,0.5,64,63.51
1149,D4,217.0,0.5,64,63.51
1150,E3,217.25,0.25,55,63.51
1151,A1,217.5,0.5,73,63.51
1152,A4,217.5,0.5,68,63.51
1153,E4,217.5,0.5,68,63.51
1154,C#4,217.5,0.5,68,63.51
1155,A2,218.0,0.5,67,63.51
1156,C#5,222.0,0.125,53,63.51
1157,A3,222.0,1/5,44,63.51
1158,E-4,222.167,1/5,31,63.51
1159,E4,222.333,167/1000,31,63.51
1160,C#5,222.5,0.125,49,63.51
1161,A3,222.5,1/5,40,63.51
1162,E-4,222.667,1/5,30,63.51
1163,E4,222.833,167/1000,30,63.51
1164,D5,223.0,83/1000,49,63.51
1165,B3,223.0,1/5,40,63.51
1166,E5,223.083,83/1000,47,63.51
1167,D5,223.167,83/1000,47,63.51
1168,E-4,223.167,1/5,30,63.51
1169,C#5,223.25,0.125,49,63.51
1170,E4,223.333,167/1000,30,63.51
1171,D5,223.375,0.125,49,63.51
1172,E5,223.5,0.5,53,63.51
1173,C#4,223.5,1/5,41,63.51
1174,E-4,223.667,1/5,29,63.51
1175,E4,223.833,167/1000,29,63.51
1176,C#4,224.0,1/5,40,63.51
1177,E-4,224.167,1/5,31,63.51
1178,E4,224.333,167/1000,31,63.51
1179,F#5,224.5,69/500,53,63.51
1180,A3,224.5,1/5,40,63.51
1181,E5,224.625,69/500,52,63.51
1182,E-4,224.667,1/5,36,63.51
1183,D5,224.75,69/500,51,63.51
1184,E4,224.833,167/1000,36,63.51
1185,C#5,224.875,0.125,49,63.51
1186,B4,225.0,0.125,53,63.51
1187,C#5,225.0,3/250,49,63.51
1188,G#3,225.0,1/5,44,63.51
1189,E-4,225.167,1/5,31,63.51
1190,E4,225.333,167/1000,31,63.51
1191,B4,225.5,0.125,49,63.51
1192,G#3,225.5,1/5,40,63.51
1193,E-4,225.667,1/5,33,63.51
1194,E4,225.833,167/1000,33,63.51
1195,C#5,226.0,83/1000,49,63.51
1196,A3,226.0,1/5,40,63.51
1197,D5,226.083,83/1000,47,63.51
1198,C#5,226.167,83/1000,47,63.51
1199,E-4,226.167,1/5,34,63.51
1200,B4,226.25,0.125,49,63.51
1201,E4,226.333,167/1000,34,63.51
1202,C#5,226.375,0.125,49,63.51
1203,D5,226.5,0.5,53,63.51
1204,B3,226.5,1/5,45,63.51
1205,E-4,226.667,1/5,34,63.51
1206,E4,226.833,167/1000,34,63.51
1207,B3,227.0,1/5,38,63.51
1208,E-4,227.167,1/5,31,63.51
1209,E4,227.333,167/1000,31,63.51
1210,E5,227.5,69/500,53,63.51
1211,G#3,227.5,1/5,40,63.51
1212,D5,227.625,69/500,52,63.51
1213,E-4,227.667,1/5,36,63.51
1214,C#5,227.75,69/500,51,63.51
1215,E4,227.833,167/1000,36,63.51
1216,B4,227.875,0.125,49,63.51
1217,A4,228.0,0.125,53,63.51
1218,B4,228.0,3/250,49,63.51
1219,F#3,228.0,1/5,44,63.51
1220,E-4,228.167,1/5,33,63.51
1221,E4,228.333,167/1000,33,63.51
1222,A4,228.5,0.125,49,63.51
1223,F#3,228.5,1/5,40,63.51
1224,E-4,228.667,1/5,35,63.51
1225,E4,228.833,167/1000,35,63.51
1226,A4,229.0,83/1000,49,63.51
1227,F#3,229.0,1/5,40,63.51
1228,B4,229.083,83/1000,47,63.51
1229,A4,229.167,83/1000,47,63.51
1230,E-4,229.167,1/5,35,63.51
1231,G#4,229.25,0.125,49,63.51
1232,E4,229.333,167/1000,36,63.51
1233,A4,229.375,0.125,49,63.51
1234,B4,229.5,0.125,53,63.51
1235,G#3,229.5,1/5,44,63.51
1236,D4,229.667,1/5,35,63.51
1237,E4,229.833,167/1000,35,63.51
1238,B4,230.0,0.125,49,63.51
1239,G#3,230.0,1/5,40,63.51
1240,D4,230.167,1/5,35,63.51
1241,E4,230.333,167/1000,35,63.51
1242,B4,230.5,83/1000,49,63.51
1243,G#3,230.5,1/5,40,63.51
1244,C#5,230.583,83/1000,47,63.51
1245,B4,230.667,83/1000,47,63.51
1246,D4,230.667,1/5,34,63.51
1247,A4,230.75,0.125,49,63.51
1248,E4,230.833,167/1000,34,63.51
1249,B4,230.875,0.125,49,63.51
1250,C#5,231.0,0.125,58,63.51
1251,A3,231.0,1/5,44,63.51
1252,C#4,231.167,1/5,34,63.51
1253,E4,231.333,167/1000,34,63.51
1254,C#5,231.5,0.125,54,63.51
1255,A3,231.5,1/5,40,63.51
1256,C#4,231.667,1/5,33,63.51
1257,E4,231.833,167/1000,33,63.51
1258,B4,232.0,0.5,61,63.51
1259,E5,232.0,0.125,61,63.51
1260,D3,232.0,1/5,42,63.51
1261,D5,232.125,0.375,51,63.51
1262,F#3,232.167,1/5,37,63.51
1263,B3,232.333,167/1000,37,63.51
1264,E3,232.5,1/5,44,63.51
1265,A4,232.5,1.0,55,63.51
1266,C#5,232.5,1.0,55,63.51
1267,A3,232.667,1/5,40,63.51
1268,C#4,232.833,167/1000,40,63.51
1269,E3,233.0,1/5,44,63.51
1270,A3,233.167,1/5,42,63.51
1271,C#4,233.333,167/1000,44,63.51
1272,E3,233.5,1/5,48,63.51
1273,B4,233.5,0.5,53,63.51
1274,G#4,233.5,0.5,53,63.51
1275,G#3,233.667,1/5,41,63.51
1276,B3,233.833,167/1000,42,63.51
1277,C#5,234.0,1/5,74,63.51
1278,A2,234.0,0.25,74,63.51
1279,A4,234.167,1/5,53,63.51
1280,E4,234.333,167/1000,53,63.51
1281,G#3,234.438,0.062,67,63.51
1282,C#5,234.5,1/5,72,63.51
1283,A3,234.5,0.25,74,63.51
1284,A4,234.667,1/5,53,63.51
1285,E4,234.833,167/1000,53,63.51
1286,D5,235.0,1/5,71,63.51
1287,B4,235.167,1/5,53,63.51
1288,E4,235.333,167/1000,53,63.51
1289,E5,235.5,1/5,70,63.51
1290,A2,235.5,0.25,74,63.51
1291,C#5,235.667,1/5,53,63.51
1292,E4,235.833,167/1000,53,63.51
1293,G#3,235.938,0.062,67,63.51
1294,E5,236.0,1/5,71,63.51
1295,A3,236.0,0.25,72,63.51
1296,C#5,236.167,1/5,53,63.51
1297,E4,236.333,167/1000,53,63.51
1298,F#5,236.5,0.125,68,63.51
1299,E5,236.625,0.125,66,63.51
1300,D5,236.75,0.125,64,63.51
1301,C#5,236.875,0.125,62,63.51
1302,B4,237.0,1/5,74,63.51
1303,E2,237.0,0.25,74,63.51
1304,G#4,237.167,1/5,53,63.51
1305,E4,237.333,167/1000,53,63.51
1306,E-3,237.375,0.062,67,63.51
1307,B4,237.5,1/5,72,63.51
1308,E3,237.5,0.25,74,63.51
1309,G#4,237.667,1/5,53,63.51
1310,E4,237.833,167/1000,53,63.51
1311,C#5,238.0,1/5,71,63.51
1312,A4,238.167,1/5,53,63.51
1313,E4,238.333,167/1000,53,63.51
1314,D5,238.5,1/5,70,63.51
1315,E2,238.5,0.25,74,63.51
1316,B4,238.667,1/5,53,63.51
1317,E4,238.833,167/1000,53,63.51
1318,E-3,238.875,0.062,67,63.51
1319,D5,239.0,1/5,71,63.51
1320,E3,239.0,0.25,72,63.51
1321,B4,239.167,1/5,53,63.51
1322,E4,239.333,167/1000,53,63.51
1323,E5,239.5,0.125,68,63.51
1324,D5,239.625,0.125,66,63.51
1325,C#5,239.75,0.125,64,63.51
1326,B4,239.875,0.125,62,63.51
1327,A4,240.0,1/5,74,63.51
1328,E2,240.0,0.25,74,63.51
1329,E4,240.167,1/5,53,63.51
1330,C#4,240.333,167/1000,53,63.51
1331,F3,240.375,0.062,59,63.51
1332,A4,240.5,1/5,72,63.51
1333,F#3,240.5,0.25,68,63.51
1334,E4,240.667,1/5,53,63.51
1335,C#4,240.833,167/1000,53,63.51
1336,G3,240.875,0.125,62,63.51
1337,B4,241.0,1/5,71,63.51
1338,G#3,241.0,0.25,70,63.51
1339,E4,241.167,1/5,53,63.51
1340,D4,241.333,167/1000,53,63.51
1341,C#5,241.5,1/5,74,63.51
1342,A2,241.5,0.25,74,63.51
1343,A4,241.667,1/5,53,63.51
1344,E4,241.833,167/1000,53,63.51
1345,G#3,241.875,0.062,63,63.51
1346,C#5,242.0,1/5,72,63.51
1347,A3,242.0,0.25,67,63.51
1348,A4,242.167,1/5,53,63.51
1349,E4,242.333,167/1000,53,63.51
1350,C#3,242.375,0.125,63,63.51
1351,D5,242.5,1/5,71,63.51
1352,D3,242.5,0.25,69,63.51
1353,B4,242.667,1/5,53,63.51
1354,F#4,242.833,167/1000,53,63.51
1355,C#5,243.0,1/5,74,63.51
1356,E2,243.0,0.25,74,63.51
1357,A4,243.167,1/5,53,63.51
1358,E4,243.333,167/1000,53,63.51
1359,E-3,243.375,0.062,62,63.51
1360,C#5,243.5,1/5,72,63.51
1361,E3,243.5,0.25,67,63.51
1362,A4,243.667,1/5,53,63.51
1363,E4,243.833,167/1000,53,63.51
1364,E-3,243.875,0.125,61,63.51
1365,B4,244.0,1/5,71,63.51
1366,E3,244.0,0.25,68,63.51
1367,G#4,244.167,1/5,53,63.51
1368,D4,244.333,167/1000,53,63.51
1369,A4,244.5,1/5,74,63.51
1370,A1,244.5,0.25,74,63.51
1371,E4,244.667,1/5,53,63.51
1372,C#4,244.833,1/5,53,63.51
1373,G#2,244.875,0.062,61,63.51
1374,A3,245.0,0.25,72,63.51
1375,A2,245.0,0.25,67,63.51
1376,C#5,246.0,0.125,53,63.51
1377,A3,246.0,1/5,44,63.51
1378,E-4,246.167,1/5,33,63.51
1379,E4,246.333,167/1000,33,63.51
1380,C#5,246.5,0.125,49,63.51
1381,A3,246.5,1/5,40,63.51
1382,E-4,246.667,1/5,32,63.51
1383,E4,246.833,167/1000,32,63.51
1384,D5,247.0,83/1000,49,63.51
1385,B3,247.0,1/5,40,63.51
1386,E5,247.083,83/1000,47,63.51
1387,D5,247.167,83/1000,47,63.51
1388,E-4,247.167,1/5,32,63.51
1389,C#5,247.25,0.125,49,63.51
1390,E4,247.333,167/1000,32,63.51
1391,D5,247.375,0.125,49,63.51
1392,E5,247.5,0.5,53,63.51
1393,C#4,247.5,1/5,41,63.51
1394,E-4,247.667,1/5,30,63.51
1395,E4,247.833,167/1000,30,63.51
1396,C#4,248.0,1/5,40,63.51
1397,E-4,248.167,1/5,28,63.51
1398,E4,248.333,167/1000,28,63.51
1399,F#5,248.5,69/500,53,63.51
1400,A3,248.5,1/5,40,63.51
1401,E5,248.625,69/500,52,63.51
1402,E-4,248.667,1/5,34,63.51
1403,D5,248.75,69/500,51,63.51
1404,E4,248.833,167/1000,36,63.51
1405,C#5,248.875,0.125,49,63.51
1406,B4,249.0,0.125,53,63.51
1407,C#5,249.0,3/250,49,63.51
1408,G#3,249.0,1/5,44,63.51
1409,E-4,249.167,1/5,33,63.51
1410,E4,249.333,167/1000,33,63.51
1411,B4,249.5,0.125,49,63.51
1412,G#3,249.5,1/5,40,63.51
1413,E-4,249.667,1/5,33,63.51
1414,E4,249.833,167/1000,33,63.51
1415,C#5,250.0,83/1000,49,63.51
1416,A3,250.0,1/5,40,63.51
1417,D5,250.083,83/1000,47,63.51
1418,C#5,250.167,83/1000,47,63.51
1419,E-4,250.167,1/5,33,63.51
1420,B4,250.25,0.125,49,63.51
1421,E4,250.333,167/1000,33,63.51
1422,C#5,250.375,0.125,49,63.51
1423,D5,250.5,0.5,53,63.51
1424,B3,250.5,1/5,45,63.51
1425,E-4,250.667,1/5,34,63.51
1426,E4,250.833,167/1000,34,63.51
1427,B3,251.0,1/5,38,63.51
1428,E-4,251.167,1/5,30,63.51
1429,E4,251.333,167/1000,31,63.51
1430,E5,251.5,69/500,53,63.51
1431,G#3,251.5,1/5,40,63.51
1432,D5,251.625,69/500,52,63.51
1433,E-4,251.667,1/5,36,63.51
1434,C#5,251.75,69/500,51,63.51
1435,E4,251.833,167/1000,36,63.51
1436,B4,251.875,0.125,49,63.51
1437,A4,252.0,0.125,53,63.51
1438,B4,252.0,3/250,49,63.51
1439,F#3,252.0,1/5,44,63.51
1440,E-4,252.167,1/5,35,63.51
1441,E4,252.333,167/1000,35,63.51
1442,A4,252.5,0.125,49,63.51
1443,F#3,252.5,1/5,40,63.51
1444,E-4,252.667,1/5,32,63.51
1445,E4,252.833,167/1000,32,63.51
1446,A4,253.0,83/1000,49,63.51
1447,F#3,253.0,1/5,40,63.51
1448,B4,253.083,83/1000,47,63.51
1449,A4,253.167,83/1000,47,63.51
1450,E-4,253.167,1/5,32,63.51
1451,G#4,253.25,0.125,49,63.51
1452,E4,253.333,167/1000,32,63.51
1453,A4,253.375,0.125,49,63.51
1454,B4,253.5,0.125,53,63.51
1455,G#3,253.5,1/5,44,63.51
1456,D4,253.667,1/5,34,63.51
1457,E4,253.833,167/1000,34,63.51
1458,B4,254.0,0.125,49,63.51
1459,G#3,254.0,1/5,40,63.51
1460,D4,254.167,1/5,32,63.51
1461,E4,254.333,167/1000,32,63.51
1462,B4,254.5,83/1000,49,63.51
1463,G#3,254.5,1/5,40,63.51
1464,C#5,254.583,83/1000,47,63.51
1465,B4,254.667,83/1000,47,63.51
1466,D4,254.667,1/5,32,63.51
1467,A4,254.75,0.125,49,63.51
1468,E4,254.833,167/1000,32,63.51
1469,B4,254.875,0.125,49,63.51
1470,C#5,255.0,0.125,58,63.51
1471,A3,255.0,1/5,44,63.51
1472,C#4,255.167,1/5,35,63.51
1473,E4,255.333,167/1000,33,63.51
1474,C#5,255.5,0.125,54,63.51
1475,A3,255.5,1/5,40,63.51
1476,C#4,255.667,1/5,35,63.51
1477,E4,255.833,167/1000,35,63.51
1478,B4,256.0,0.5,61,63.51
1479,E5,256.0,0.125,61,63.51
1480,D3,256.0,1/5,42,63.51
1481,D5,256.125,0.375,51,63.51
1482,F#3,256.167,1/5,37,63.51
1483,B3,256.333,167/1000,37,63.51
1484,E3,256.5,1/5,44,63.51
1485,A4,256.5,1.0,55,63.51
1486,C#5,256.5,1.0,55,63.51
1487,A3,256.667,1/5,40,63.51
1488,C#4,256.833,167/1000,40,63.51
1489,E3,257.0,1/5,44,63.51
1490,A3,257.167,1/5,42,63.51
1491,C#4,257.333,167/1000,44,63.51
1492,E3,257.5,1/5,48,63.51
1493,B4,257.5,0.5,53,63.51
1494,G#4,257.5,0.5,53,63.51
1495,G#3,257.667,1/5,41,63.51
1496,B3,257.831,167/1000,42,63.51
1497,C#5,258.0,1/5,74,63.51
1498,A2,258.0,0.25,74,63.51
1499,A4,258.167,1/5,53,63.51
1500,E4,258.333,167/1000,53,63.51
1501,G#3,258.438,0.062,67,63.51
1502,C#5,258.5,1/5,72,63.51
1503,A3,258.5,0.25,74,63.51
1504,A4,258.667,1/5,53,63.51
1505,E4,258.833,167/1000,53,63.51
1506,D5,259.0,1/5,71,63.51
1507,B4,259.167,1/5,53,63.51
1508,E4,259.331,167/1000,53,63.51
1509,E5,259.5,1/5,70,63.51
1510,A2,259.5,0.25,74,63.51
1511,C#5,259.667,1/5,53,63.51
1512,E4,259.833,167/1000,53,63.51
1513,G#3,259.938,0.062,67,63.51
1514,E5,260.0,1/5,71,63.51
1515,A3,260.0,0.25,72,63.51
1516,C#5,260.167,1/5,53,63.51
1517,E4,260.333,167/1000,53,63.51
1518,F#5,260.5,0.125,68,63.51
1519,E5,260.625,0.125,66,63.51
1520,D5,260.75,0.125,64,63.51
1521,C#5,260.875,0.125,62,63.51
1522,B4,261.0,1/5,74,63.51
1523,E2,261.0,0.25,74,63.51
1524,G#4,261.167,1/5,53,63.51
1525,E4,261.333,167/1000,53,63.51
1526,E-3,261.375,0.062,67,63.51
1527,B4,261.5,1/5,72,63.51
1528,E3,261.5,0.25,74,63.51
1529,G#4,261.667,1/5,53,63.51
1530,E4,261.833,167/1000,53,63.51
1531,C#5,262.0,1/5,71,63.51
1532,A4,262.167,1/5,53,63.51
1533,E4,262.333,167/1000,53,63.51
1534,D5,262.5,1/5,70,63.51
1535,E2,262.5,0.25,74,63.51
1536,B4,262.667,1/5,53,63.51
1537,E4,262.833,167/1000,53,63.51
1538,E-3,262.875,0.062,67,63.51
1539,D5,263.0,1/5,71,63.51
1540,E3,263.0,0.25,72,63.51
1541,B4,263.167,1/5,53,63.51
1542,E4,263.333,167/1000,53,63.51
1543,E5,263.5,0.125,68,63.51
1544,D5,263.625,0.125,66,63.51
1545,C#5,263.75,0.125,64,63.51
1546,B4,263.875,0.125,62,63.51
1547,A4,264.0,1/5,74,63.51
1548,E2,264.0,0.25,74,63.51
1549,E4,264.167,1/5,53,63.51
1550,C#4,264.333,167/1000,53,63.51
1551,F3,264.375,0.062,59,63.51
1552,A4,264.5,1/5,72,63.51
1553,F#3,264.5,0.25,68,63.51
1554,E4,264.667,1/5,53,63.51
1555,C#4,264.833,167/1000,53,63.51
1556,G3,264.875,0.125,62,63.51
1557,B4,265.0,1/5,71,63.51
1558,G#3,265.0,0.25,70,63.51
1559,E4,265.167,1/5,53,63.51
1560,D4,265.333,167/1000,53,63.51
1561,C#5,265.5,1/5,74,63.51
1562,A2,265.5,0.25,74,63.51
1563,A4,265.667,1/5,53,63.51
1564,E4,265.833,167/1000,53,63.51
1565,G#3,265.875,0.062,63,63.51
1566,C#5,266.0,1/5,72,63.51
1567,A3,266.0,0.25,67,63.51
1568,A4,266.167,1/5,53,63.51
1569,E4,266.333,167/1000,53,63.51
1570,C#3,266.375,0.125,63,63.51
1571,D5,266.5,1/5,71,63.51
1572,D3,266.5,0.25,69,63.51
1573,B4,266.667,1/5,53,63.51
1574,F#4,266.833,167/1000,53,63.51
1575,C#5,267.0,1/5,74,63.51
1576,E2,267.0,0.25,74,63.51
1577,A4,267.167,1/5,53,63.51
1578,E4,267.333,167/1000,53,63.51
1579,E-3,267.375,0.062,62,63.51
1580,C#5,267.5,1/5,72,63.51
1581,E3,267.5,0.25,67,63.51
1582,A4,267.667,1/5,53,63.51
1583,E4,267.833,167/1000,53,63.51
1584,E-3,267.875,0.125,61,63.51
1585,B4,268.0,1/5,71,63.51
1586,E3,268.0,0.25,68,63.51
1587,G#4,268.167,1/5,53,63.51
1588,D4,268.333,167/1000,53,63.51
1589,A4,268.5,1/5,74,63.51
1590,A1,268.5,0.25,74,63.51
1591,E4,268.667,1/5,53,63.51
1592,C#4,268.833,1/5,53,63.51
1593,G#2,268.875,0.062,61,63.51
1594,A3,269.0,0.25,72,63.51
1595,A2,269.0,0.25,67,63.51
1596,E5,270.0,0.125,50,63.51
1597,A3,270.0,1/5,37,63.51
1598,C#4,270.167,1/5,30,63.51
1599,E4,270.335,167/1000,29,63.51
1600,D5,270.5,0.125,48,63.51
1601,A3,270.5,1/5,38,63.51
1602,B3,270.667,1/5,30,63.51
1603,D4,270.833,167/1000,30,63.51
1604,E5,271.0,0.125,50,63.51
1605,A3,271.0,1/5,38,63.51
1606,C#4,271.167,1/5,30,63.51
1607,E4,271.333,167/1000,30,63.51
1608,F#5,271.5,0.25,50,63.51
1609,A3,271.5,1/5,38,63.51
1610,D4,271.667,1/5,28,63.51
1611,F#4,271.833,167/1000,28,63.51
1612,A3,272.0,1/5,35,63.51
1613,D4,272.167,1/5,28,63.51
1614,F#4,272.333,167/1000,28,63.51
1615,A3,272.5,1/5,38,63.51
1616,F#5,272.5,21/500,47,63.51
1617,G#5,272.5,21/500,47,63.51
1618,F#5,272.583,21/500,44,63.51
1619,E5,272.625,0.125,50,63.51
1620,D4,272.667,1/5,32,63.51
1621,F#5,272.75,0.125,49,63.51
1622,F#4,272.833,167/1000,32,63.51
1623,G#5,272.875,0.125,49,63.51
1624,A5,273.0,0.25,56,63.51
1625,A3,273.0,1/5,37,63.51
1626,F#4,273.167,1/5,33,63.51
1627,A4,273.333,167/1000,33,63.51
1628,G#5,273.5,0.125,52,63.51
1629,A3,273.5,1/5,38,63.51
1630,E4,273.667,1/5,33,63.51
1631,G#4,273.833,167/1000,33,63.51
1632,F#5,274.0,0.125,50,63.51
1633,A3,274.0,1/5,38,63.51
1634,D4,274.167,1/5,34,63.51
1635,F#4,274.333,167/1000,31,63.51
1636,E5,274.5,0.25,50,63.51
1637,A3,274.5,1/5,36,63.51
1638,C#4,274.667,1/5,27,63.51
1639,E4,274.833,167/1000,27,63.51
1640,A3,275.0,1/5,35,63.51
1641,C#4,275.167,1/5,28,63.51
1642,E4,275.333,167/1000,28,63.51
1643,A3,275.5,1/5,38,63.51
1644,C#5,275.5,21/500,47,63.51
1645,D5,275.5,21/500,47,63.51
1646,C#5,275.583,21/500,44,63.51
1647,B4,275.625,0.125,50,63.51
1648,C#4,275.667,1/5,33,63.51
1649,C#5,275.75,0.125,51,63.51
1650,E4,275.833,167/1000,33,63.51
1651,D5,275.875,0.125,55,63.51
1652,E5,276.0,0.5,60,63.51
1653,A3,276.0,1/5,42,63.51
1654,C#4,276.167,1/5,34,63.51
1655,E4,276.333,167/1000,34,63.51
1656,C#5,276.5,0.125,58,63.51
1657,A3,276.5,1/5,38,63.51
1658,C#4,276.667,1/5,33,63.51
1659,E4,276.833,167/1000,33,63.51
1660,A3,277.0,1/5,38,63.51
1661,C#4,277.167,1/5,34,63.51
1662,E4,277.333,167/1000,35,63.51
1663,A4,277.375,0.125,58,63.51
1664,E5,277.5,0.5,65,63.51
1665,B3,277.5,1/5,41,63.51
1666,D4,277.667,1/5,36,63.51
1667,E4,277.833,167/1000,37,63.51
1668,D5,278.0,0.125,59,63.51
1669,B3,278.0,1/5,44,63.51
1670,D4,278.167,1/5,37,63.51
1671,E4,278.333,167/1000,39,63.51
1672,B3,278.5,1/5,46,63.51
1673,D4,278.667,1/5,41,63.51
1674,E4,278.833,167/1000,42,63.51
1675,B4,278.875,0.125,66,63.51
1676,E5,279.0,0.5,73,63.51
1677,A3,279.0,1/5,47,63.51
1678,C#4,279.167,1/5,40,63.51
1679,E4,279.333,167/1000,40,63.51
1680,C#5,279.5,0.5,66,63.51
1681,A3,279.5,1/5,47,63.51
1682,C#4,279.667,1/5,38,63.51
1683,E4,279.833,167/1000,33,63.51
1684,A4,280.0,0.125,50,63.51
1685,F#3,280.0,1/5,38,63.51
1686,A3,280.167,1/5,29,63.51
1687,E-4,280.333,167/1000,29,63.51
1688,C#5,280.5,1.0,50,63.51
1689,A4,280.5,1.0,50,63.51
1690,E3,280.5,1.5,26,63.51
1691,E4,280.5,1.5,26,63.51
1692,B4,281.5,0.5,46,63.51
1693,G#4,281.5,0.5,46,63.51
1694,C#5,282.0,0.125,53,63.51
1695,A3,282.0,1/5,44,63.51
1696,E-4,282.167,1/5,34,63.51
1697,E4,282.333,167/1000,34,63.51
1698,C#5,282.5,0.125,49,63.51
1699,A3,282.5,1/5,40,63.51
1700,E-4,282.667,1/5,31,63.51
1701,E4,282.833,167/1000,31,63.51
1702,D5,283.0,83/1000,49,63.51
1703,B3,283.0,1/5,40,63.51
1704,E5,283.083,83/1000,47,63.51
1705,D5,283.167,83/1000,47,63.51
1706,E-4,283.167,1/5,32,63.51
1707,C#5,283.25,0.125,49,63.51
1708,E4,283.333,167/1000,32,63.51
1709,D5,283.375,0.125,49,63.51
1710,E5,283.5,0.5,53,63.51
1711,C#4,283.5,1/5,41,63.51
1712,E-4,283.667,1/5,31,63.51
1713,E4,283.833,167/1000,31,63.51
1714,C#4,284.0,1/5,40,63.51
1715,E-4,284.167,1/5,30,63.51
1716,E4,284.333,167/1000,30,63.51
1717,F#5,284.5,69/500,53,63.51
1718,A3,284.5,1/5,40,63.51
1719,E5,284.625,69/500,52,63.51
1720,E-4,284.667,1/5,35,63.51
1721,D5,284.75,69/500,51,63.51
1722,E4,284.833,167/1000,35,63.51
1723,C#5,284.875,0.125,49,63.51
1724,B4,285.0,0.125,53,63.51
1725,C#5,285.0,3/250,49,63.51
1726,G#3,285.0,1/5,44,63.51
1727,E-4,285.167,1/5,31,63.51
1728,E4,285.333,167/1000,32,63.51
1729,B4,285.5,0.125,49,63.51
1730,G#3,285.5,1/5,40,63.51
1731,E-4,285.667,1/5,35,63.51
1732,E4,285.833,167/1000,35,63.51
1733,C#5,286.0,83/1000,49,63.51
1734,A3,286.0,1/5,40,63.51
1735,D5,286.083,83/1000,47,63.51
1736,C#5,286.167,83/1000,47,63.51
1737,E-4,286.167,1/5,33,63.51
1738,B4,286.25,0.125,49,63.51
1739,E4,286.333,167/1000,35,63.51
1740,C#5,286.375,0.125,49,63.51
1741,D5,286.5,0.5,53,63.51
1742,B3,286.5,1/5,45,63.51
1743,E-4,286.667,1/5,34,63.51
1744,E4,286.833,167/1000,34,63.51
1745,B3,287.0,1/5,38,63.51
1746,E-4,287.167,1/5,28,63.51
1747,E4,287.333,167/1000,28,63.51
1748,E5,287.5,69/500,53,63.51
1749,G#3,287.5,1/5,40,63.51
1750,D5,287.625,69/500,52,63.51
1751,E-4,287.667,1/5,35,63.51
1752,C#5,287.75,69/500,51,63.51
1753,E4,287.833,167/1000,35,63.51
1754,B4,287.875,0.125,49,63.51
1755,A4,288.0,0.125,53,63.51
1756,B4,288.0,3/250,49,63.51
1757,F#3,288.0,1/5,44,63.51
1758,E-4,288.167,1/5,35,63.51
1759,E4,288.333,167/1000,35,63.51
1760,A4,288.5,0.125,49,63.51
1761,F#3,288.5,1/5,40,63.51
1762,E-4,288.667,1/5,35,63.51
1763,E4,288.833,167/1000,34,63.51
1764,B4,289.0,83/1000,49,63.51
1765,F#3,289.0,1/5,40,63.51
1766,C#5,289.083,83/1000,47,63.51
1767,B4,289.167,83/1000,47,63.51
1768,D4,289.167,1/5,35,63.51
1769,A4,289.25,0.125,49,63.51
1770,E4,289.333,167/1000,35,63.51
1771,B4,289.375,0.125,49,63.51
1772,C#5,289.5,0.125,53,63.51
1773,A3,289.5,1/5,44,63.51
1774,C#4,289.667,1/5,35,63.51
1775,E4,289.833,167/1000,33,63.51
1776,C#5,290.0,0.125,49,63.51
1777,A3,290.0,1/5,40,63.51
1778,C#4,290.167,1/5,33,63.51
1779,E4,290.333,167/1000,33,63.51
1780,D5,290.5,83/1000,49,63.51
1781,D3,290.5,1/5,40,63.51
1782,E5,290.583,83/1000,47,63.51
1783,D5,290.667,83/1000,47,63.51
1784,F#3,290.667,1/5,33,63.51
1785,C#5,290.75,0.125,49,63.51
1786,B3,290.833,167/1000,33,63.51
1787,D5,290.875,0.125,49,63.51
1788,C#5,291.0,0.125,53,63.51
1789,E3,291.0,1/5,44,63.51
1790,A3,291.167,1/5,35,63.51
1791,C#4,291.333,167/1000,33,63.51
1792,C#5,291.5,0.125,49,63.51
1793,E3,291.5,1/5,40,63.51
1794,A3,291.667,1/5,35,63.51
1795,C#4,291.833,167/1000,35,63.51
1796,B4,292.0,83/1000,49,63.51
1797,E3,292.0,1/5,40,63.51
1798,C#5,292.083,83/1000,47,63.51
1799,B4,292.167,83/1000,47,63.51
1800,G#3,292.167,1/5,35,63.51
1801,A4,292.25,0.125,49,63.51
1802,D4,292.333,167/1000,35,63.51
1803,B4,292.375,0.125,49,63.51
1804,B4,292.5,0.5,53,63.51
1805,G#4,292.5,1.0,45,63.51
1806,D4,292.5,1.0,40,63.51
1807,A3,292.5,1.5,34,63.51
1808,E4,292.5,1.5,34,63.51
1809,C5,293.0,0.5,55,63.51
1810,C#4,293.5,0.5,45,63.51
1811,A4,293.5,0.5,52,63.51
1812,C#5,293.5,0.5,52,63.51
1813,C#5,294.0,1/5,74,63.51
1814,A2,294.0,0.25,74,63.51
1815,A4,294.167,1/5,53,63.51
1816,E4,294.333,167/1000,53,63.51
1817,G#3,294.375,0.062,59,63.51
1818,C#5,294.5,1/5,72,63.51
1819,A3,294.5,0.25,68,63.51
1820,A4,294.667,1/5,53,63.51
1821,E4,294.833,167/1000,53,63.51
1822,B-3,294.875,0.125,62,63.51
1823,D5,295.0,1/5,71,63.51
1824,B3,295.0,0.25,70,63.51
1825,G#4,295.167,1/5,53,63.51
1826,E4,295.333,167/1000,53,63.51
1827,E5,295.5,1/5,74,63.51
1828,E3,295.5,0.25,74,63.51
1829,C#5,295.667,1/5,53,63.51
1830,A4,295.833,167/1000,53,63.51
1831,C4,295.875,0.062,63,63.51
1832,E5,296.0,1/5,72,63.51
1833,C#4,296.0,0.25,67,63.51
1834,C#5,296.167,1/5,53,63.51
1835,A4,296.333,167/1000,53,63.51
1836,C#4,296.375,0.125,63,63.51
1837,F#5,296.5,1/5,71,63.51
1838,D4,296.5,0.25,69,63.51
1839,B4,296.667,1/5,53,63.51
1840,A4,296.833,167/1000,53,63.51
1841,C#5,297.0,1/5,74,63.51
1842,E2,297.0,0.25,74,63.51
1843,A4,297.167,1/5,53,63.51
1844,E4,297.333,167/1000,53,63.51
1845,E-3,297.375,0.062,62,63.51
1846,C#5,297.5,1/5,72,63.51
1847,E3,297.5,0.25,67,63.51
1848,A4,297.667,1/5,53,63.51
1849,E4,297.833,167/1000,53,63.51
1850,E-3,297.875,0.125,61,63.51
1851,B4,298.0,1/5,71,63.51
1852,E3,298.0,0.25,68,63.51
1853,G#4,298.167,1/5,53,63.51
1854,D4,298.333,167/1000,53,63.51
1855,A4,298.5,1/5,74,63.51
1856,A1,298.5,0.25,74,63.51
1857,E4,298.667,1/5,53,63.51
1858,C#4,298.833,1/5,53,63.51
1859,G#2,298.875,0.062,61,63.51
1860,A3,299.0,0.25,72,63.51
1861,A2,299.0,0.25,67,63.51
1862,E5,300.0,0.125,50,63.51
1863,A3,300.0,1/5,37,63.51
1864,C#4,300.167,1/5,31,63.51
1865,E4,300.335,167/1000,32,63.51
1866,D5,300.5,0.125,48,63.51
1867,A3,300.5,1/5,38,63.51
1868,B3,300.667,1/5,30,63.51
1869,D4,300.833,167/1000,30,63.51
1870,E5,301.0,0.125,50,63.51
1871,A3,301.0,1/5,38,63.51
1872,C#4,301.167,1/5,30,63.51
1873,E4,301.333,167/1000,30,63.51
1874,F#5,301.5,0.25,50,63.51
1875,A3,301.5,1/5,38,63.51
1876,D4,301.667,1/5,27,63.51
1877,F#4,301.833,167/1000,27,63.51
1878,A3,302.0,1/5,35,63.51
1879,D4,302.167,1/5,28,63.51
1880,F#4,302.333,167/1000,26,63.51
1881,A3,302.5,1/5,38,63.51
1882,F#5,302.5,21/500,47,63.51
1883,G#5,302.5,21/500,47,63.51
1884,F#5,302.583,21/500,44,63.51
1885,E5,302.625,0.125,50,63.51
1886,D4,302.667,1/5,32,63.51
1887,F#5,302.75,0.125,49,63.51
1888,F#4,302.833,167/1000,32,63.51
1889,G#5,302.875,0.125,49,63.51
1890,A5,303.0,0.25,56,63.51
1891,A3,303.0,1/5,37,63.51
1892,F#4,303.167,1/5,31,63.51
1893,A4,303.333,167/1000,32,63.51
1894,G#5,303.5,0.125,52,63.51
1895,A3,303.5,1/5,38,63.51
1896,E4,303.667,1/5,30,63.51
1897,G#4,303.833,167/1000,30,63.51
1898,F#5,304.0,0.125,50,63.51
1899,A3,304.0,1/5,38,63.51
1900,D4,304.167,1/5,34,63.51
1901,F#4,304.333,167/1000,31,63.51
1902,E5,304.5,0.25,50,63.51
1903,A3,304.5,1/5,36,63.51
1904,C#4,304.667,1/5,27,63.51
1905,E4,304.833,167/1000,27,63.51
1906,A3,305.0,1/5,35,63.51
1907,C#4,305.167,1/5,28,63.51
1908,E4,305.333,167/1000,28,63.51
1909,A3,305.5,1/5,38,63.51
1910,C#5,305.5,21/500,47,63.51
1911,D5,305.5,21/500,47,63.51
1912,C#5,305.583,21/500,44,63.51
1913,B4,305.625,0.125,50,63.51
1914,C#4,305.667,1/5,32,63.51
1915,C#5,305.75,0.125,51,63.51
1916,E4,305.833,167/1000,32,63.51
1917,D5,305.875,0.125,55,63.51
1918,E5,306.0,0.5,60,63.51
1919,A3,306.0,1/5,42,63.51
1920,C#4,306.167,1/5,33,63.51
1921,E4,306.333,167/1000,33,63.51
1922,C#5,306.5,0.125,58,63.51
1923,A3,306.5,1/5,38,63.51
1924,C#4,306.667,1/5,33,63.51
1925,E4,306.833,167/1000,31,63.51
1926,A3,307.0,1/5,38,63.51
1927,C#4,307.167,1/5,34,63.51
1928,E4,307.333,167/1000,35,63.51
1929,A4,307.375,0.125,58,63.51
1930,E5,307.5,0.5,65,63.51
1931,B3,307.5,1/5,41,63.51
1932,D4,307.667,1/5,36,63.51
1933,E4,307.833,167/1000,37,63.51
1934,D5,308.0,0.125,59,63.51
1935,B3,308.0,1/5,44,63.51
1936,D4,308.167,1/5,37,63.51
1937,E4,308.333,167/1000,39,63.51
1938,B3,308.5,1/5,46,63.51
1939,D4,308.667,1/5,41,63.51
1940,E4,308.833,167/1000,42,63.51
1941,B4,308.875,0.125,66,63.51
1942,E5,309.0,0.5,73,63.51
1943,A3,309.0,1/5,47,63.51
1944,C#4,309.167,1/5,40,63.51
1945,E4,309.333,167/1000,40,63.51
1946,C#5,309.5,0.5,66,63.51
1947,A3,309.5,1/5,47,63.51
1948,C#4,309.667,1/5,38,63.51
1949,E4,309.833,167/1000,33,63.51
1950,A4,310.0,0.125,50,63.51
1951,F#3,310.0,1/5,38,63.51
1952,A3,310.167,1/5,29,63.51
1953,E-4,310.333,167/1000,29,63.51
1954,A4,310.5,1.0,50,63.51
1955,C#5,310.5,1.0,50,63.51
1956,E3,310.5,1.5,26,63.51
1957,E4,310.5,1.5,26,63.51
1958,B4,311.5,0.5,46,63.51
1959,G#4,311.5,0.5,46,63.51
1960,C#5,312.0,0.125,53,63.51
1961,A3,312.0,1/5,44,63.51
1962,E-4,312.167,1/5,32,63.51
1963,E4,312.333,167/1000,32,63.51
1964,C#5,312.5,0.125,49,63.51
1965,A3,312.5,1/5,40,63.51
1966,E-4,312.667,1/5,32,63.51
1967,E4,312.833,167/1000,32,63.51
1968,D5,313.0,83/1000,49,63.51
1969,B3,313.0,1/5,40,63.51
1970,E5,313.083,83/1000,47,63.51
1971,D5,313.167,83/1000,47,63.51
1972,E-4,313.167,1/5,34,63.51
1973,C#5,313.25,0.125,49,63.51
1974,E4,313.333,167/1000,34,63.51
1975,D5,313.375,0.125,49,63.51
1976,E5,313.5,0.5,53,63.51
1977,C#4,313.5,1/5,41,63.51
1978,E-4,313.667,1/5,31,63.51
1979,E4,313.833,167/1000,31,63.51
1980,C#4,314.0,1/5,40,63.51
1981,E-4,314.167,1/5,30,63.51
1982,E4,314.333,167/1000,30,63.51
1983,F#5,314.5,69/500,53,63.51
1984,A3,314.5,1/5,40,63.51
1985,E5,314.625,69/500,52,63.51
1986,E-4,314.667,1/5,36,63.51
1987,D5,314.75,69/500,51,63.51
1988,E4,314.833,167/1000,36,63.51
1989,C#5,314.875,0.125,49,63.51
1990,B4,315.0,0.125,53,63.51
1991,C#5,315.0,3/250,49,63.51
1992,G#3,315.0,1/5,44,63.51
1993,E-4,315.167,1/5,33,63.51
1994,E4,315.333,167/1000,33,63.51
1995,B4,315.5,0.125,49,63.51
1996,G#3,315.5,1/5,40,63.51
1997,E-4,315.667,1/5,33,63.51
1998,E4,315.833,167/1000,33,63.51
1999,C#5,316.0,83/1000,49,63.51
2000,A3,316.0,1/5,40,63.51
2001,D5,316.083,83/1000,47,63.51
2002,C#5,316.167,83/1000,47,63.51
2003,E-4,316.167,1/5,33,63.51
2004,B4,316.25,0.125,49,63.51
2005,E4,316.333,167/1000,33,63.51
2006,C#5,316.375,0.125,49,63.51
2007,D5,316.5,0.5,53,63.51
2008,B3,316.5,1/5,45,63.51
2009,E-4,316.667,1/5,33,63.51
2010,E4,316.833,167/1000,33,63.51
2011,B3,317.0,1/5,38,63.51
2012,E-4,317.167,1/5,29,63.51
2013,E4,317.333,167/1000,29,63.51
2014,E5,317.5,69/500,53,63.51
2015,G#3,317.5,1/5,40,63.51
2016,D5,317.625,69/500,52,63.51
2017,E-4,317.667,1/5,35,63.51
2018,C#5,317.75,69/500,51,63.51
2019,E4,317.833,167/1000,36,63.51
2020,B4,317.875,0.125,49,63.51
2021,A4,318.0,0.125,53,63.51
2022,B4,318.0,3/250,49,63.51
2023,F#3,318.0,1/5,44,63.51
2024,E-4,318.167,1/5,34,63.51
2025,E4,318.333,167/1000,34,63.51
2026,A4,318.5,0.125,49,63.51
2027,F#3,318.5,1/5,40,63.51
2028,E-4,318.667,1/5,33,63.51
2029,E4,318.833,167/1000,33,63.51
2030,B4,319.0,83/1000,49,63.51
2031,F#3,319.0,1/5,40,63.51
2032,C#5,319.083,83/1000,47,63.51
2033,B4,319.167,83/1000,47,63.51
2034,D4,319.167,1/5,33,63.51
2035,A4,319.25,0.125,49,63.51
2036,E4,319.333,167/1000,33,63.51
2037,B4,319.375,0.125,49,63.51
2038,C#5,319.5,0.125,53,63.51
2039,A3,319.5,1/5,44,63.51
2040,C#4,319.667,1/5,35,63.51
2041,E4,319.833,167/1000,33,63.51
2042,C#5,320.0,0.125,49,63.51
2043,A3,320.0,1/5,40,63.51
2044,C#4,320.167,1/5,33,63.51
2045,E4,320.333,167/1000,33,63.51
2046,D5,320.5,83/1000,49,63.51
2047,D3,320.5,1/5,40,63.51
2048,E5,320.583,83/1000,47,63.51
2049,D5,320.667,83/1000,47,63.51
2050,F#3,320.667,1/5,31,63.51
2051,C#5,320.75,0.125,49,63.51
2052,B3,320.833,167/1000,31,63.51
2053,D5,320.875,0.125,49,63.51
2054,C#5,321.0,0.125,53,63.51
2055,E3,321.0,1/5,44,63.51
2056,A3,321.167,1/5,33,63.51
2057,C#4,321.333,167/1000,33,63.51
2058,C#5,321.5,0.125,49,63.51
2059,E3,321.5,1/5,40,63.51
2060,A3,321.667,1/5,35,63.51
2061,C#4,321.833,167/1000,35,63.51
2062,B4,322.0,83/1000,49,63.51
2063,E3,322.0,1/5,40,63.51
2064,C#5,322.083,83/1000,47,63.51
2065,B4,322.167,83/1000,47,63.51
2066,G#3,322.167,1/5,35,63.51
2067,A4,322.25,0.125,49,63.51
2068,D4,322.333,167/1000,35,63.51
2069,B4,322.375,0.125,49,63.51
2070,B4,322.5,0.5,53,63.51
2071,G#4,322.5,1.0,45,63.51
2072,D4,322.5,1.0,40,63.51
2073,E4,322.5,1.5,34,63.51
2074,A3,322.5,1.5,34,63.51
2075,C5,323.0,0.5,55,63.51
2076,C#4,323.5,0.5,45,63.51
2077,C#5,323.5,0.5,52,63.51
2078,A4,323.5,0.5,52,63.51
2079,C#5,324.0,1/5,74,63.51
2080,A2,324.0,0.25,74,63.51
2081,A4,324.167,1/5,53,63.51
2082,E4,324.333,167/1000,53,63.51
2083,G#3,324.375,0.062,59,63.51
2084,C#5,324.5,1/5,72,63.51
2085,A3,324.5,0.25,68,63.51
2086,A4,324.667,1/5,53,63.51
2087,E4,324.833,167/1000,53,63.51
2088,B-3,324.875,0.125,62,63.51
2089,D5,325.0,1/5,71,63.51
2090,B3,325.0,0.25,70,63.51
2091,G#4,325.167,1/5,53,63.51
2092,E4,325.333,167/1000,53,63.51
2093,E5,325.5,1/5,74,63.51
2094,E3,325.5,0.25,74,63.51
2095,C#5,325.667,1/5,53,63.51
2096,A4,325.833,167/1000,53,63.51
2097,C4,325.875,0.062,63,63.51
2098,E5,326.0,1/5,72,63.51
2099,C#4,326.0,0.25,67,63.51
2100,C#5,326.167,1/5,53,63.51
2101,A4,326.333,167/1000,53,63.51
2102,C#4,326.375,0.125,63,63.51
2103,F#5,326.5,1/5,71,63.51
2104,D4,326.5,0.25,69,63.51
2105,B4,326.667,1/5,53,63.51
2106,A4,326.833,167/1000,53,63.51
2107,C#5,327.0,1/5,74,63.51
2108,E2,327.0,0.25,74,63.51
2109,A4,327.167,1/5,53,63.51
2110,E4,327.333,167/1000,53,63.51
2111,E-3,327.375,0.062,62,63.51
2112,C#5,327.5,1/5,72,63.51
2113,E3,327.5,0.25,67,63.51
2114,A4,327.667,1/5,53,63.51
2115,E4,327.833,167/1000,53,63.51
2116,E-3,327.875,0.125,61,63.51
2117,B4,328.0,1/5,71,63.51
2118,E3,328.0,0.25,68,63.51
2119,G#4,328.167,1/5,53,63.51
2120,D4,328.333,167/1000,53,63.51
2121,A4,328.5,1/5,74,63.51
2122,A1,328.5,0.25,74,63.51
2123,E4,328.667,1/5,53,63.51
2124,C#4,328.833,1/5,53,63.51
2125,G#2,328.875,0.062,61,63.51
2126,A3,329.0,0.25,72,63.51
2127,A2,329.0,0.25,67,63.51
2128,C5,333.0,0.25,50,63.51
2129,A3,333.0,0.25,43,63.51
2130,B4,333.25,0.25,47,63.51
2131,E4,333.25,0.25,34,63.51
2132,A4,333.5,0.25,50,63.51
2133,C4,333.5,0.25,40,63.51
2134,B4,333.75,0.25,46,63.51
2135,E4,333.75,0.25,35,63.51
2136,C5,334.0,0.25,47,63.51
2137,A3,334.0,0.25,41,63.51
2138,D5,334.25,0.25,48,63.51
2139,E4,334.25,0.25,34,63.51
2140,E5,334.5,0.25,50,63.51
2141,A3,334.5,0.25,42,63.51
2142,E-5,334.75,0.25,46,63.51
2143,E4,334.75,0.25,36,63.51
2144,F5,335.0,0.25,55,63.51
2145,C4,335.0,0.25,41,63.51
2146,E5,335.25,0.25,53,63.51
2147,E4,335.25,0.25,36,63.51
2148,D5,335.5,0.25,51,63.51
2149,A3,335.5,0.25,41,63.51
2150,C5,335.75,0.25,48,63.51
2151,E4,335.75,0.25,36,63.51
2152,B4,336.0,0.25,50,63.51
2153,E3,336.0,0.25,43,63.51
2154,A4,336.25,0.25,47,63.51
2155,E4,336.25,0.25,34,63.51
2156,G#4,336.5,0.25,50,63.51
2157,B3,336.5,0.25,40,63.51
2158,A4,336.75,0.25,46,63.51
2159,E4,336.75,0.25,35,63.51
2160,B4,337.0,0.25,47,63.51
2161,E3,337.0,0.25,41,63.51
2162,C5,337.25,0.25,48,63.51
2163,E4,337.25,0.25,34,63.51
2164,D5,337.5,0.25,50,63.51
2165,E3,337.5,0.25,42,63.51
2166,C#5,337.75,0.25,46,63.51
2167,E4,337.75,0.25,36,63.51
2168,E5,338.0,0.25,54,63.51
2169,B3,338.0,0.25,41,63.51
2170,D5,338.25,0.25,52,63.51
2171,E4,338.25,0.25,36,63.51
2172,C5,338.5,0.25,51,63.51
2173,E3,338.5,0.25,41,63.51
2174,B4,338.75,0.25,49,63.51
2175,E4,338.75,0.25,36,63.51
2176,A4,339.0,0.25,50,63.51
2177,A3,339.0,0.25,43,63.51
2178,E5,339.25,0.25,47,63.51
2179,E4,339.25,0.25,34,63.51
2180,E-5,339.5,0.25,50,63.51
2181,C4,339.5,0.25,40,63.51
2182,E5,339.75,0.25,46,63.51
2183,E4,339.75,0.25,35,63.51
2184,C5,340.0,0.25,47,63.51
2185,A3,340.0,0.25,41,63.51
2186,A4,340.25,0.25,48,63.51
2187,E4,340.25,0.25,34,63.51
2188,G#4,340.5,0.25,50,63.51
2189,B3,340.5,0.25,42,63.51
2190,E5,340.75,0.25,46,63.51
2191,E4,340.75,0.25,36,63.51
2192,F5,341.0,0.25,55,63.51
2193,D4,341.0,0.25,41,63.51
2194,E5,341.25,0.25,53,63.51
2195,E4,341.25,0.25,36,63.51
2196,D5,341.5,0.25,51,63.51
2197,B3,341.5,0.25,41,63.51
2198,B4,341.75,6/25,48,63.51
2199,E4,341.75,0.25,36,63.51
2200,B4,342.0,0.25,50,63.51
2201,C4,342.0,0.25,43,63.51
2202,A4,342.25,0.25,47,63.51
2203,E4,342.25,0.25,34,63.51
2204,G#4,342.5,0.25,50,63.51
2205,B3,342.5,0.25,40,63.51
2206,A4,342.75,0.25,46,63.51
2207,E4,342.75,0.25,35,63.51
2208,B4,343.0,0.25,47,63.51
2209,A3,343.0,0.25,41,63.51
2210,C5,343.25,231/1000,48,63.51
2211,E4,343.25,0.25,34,63.51
2212,E3,343.5,0.25,42,63.51
2213,C5,343.5,1.0,41,63.51
2214,A4,343.5,1.0,41,63.51
2215,E4,343.75,0.25,36,63.51
2216,E-4,344.0,0.25,41,63.51
2217,E4,344.25,0.25,36,63.51
2218,E3,344.5,0.25,41,63.51
2219,G#4,344.5,0.5,41,63.51
2220,B4,344.5,0.5,41,63.51
2221,E4,344.75,0.25,36,63.51
2222,A3,345.0,0.25,41,63.51
2223,C6,345.0,0.25,48,63.51
2224,C5,345.0,0.25,48,63.51
2225,E4,345.25,0.25,33,63.51
2226,B4,345.25,0.25,44,63.51
2227,B5,345.25,0.25,44,63.51
2228,C4,345.5,0.25,39,63.51
2229,A4,345.5,0.25,50,63.51
2230,A5,345.5,0.25,50,63.51
2231,E4,345.75,0.25,36,63.51
2232,B4,345.75,0.25,48,63.51
2233,B5,345.75,0.25,48,63.51
2234,A3,346.0,0.25,43,63.51
2235,C5,346.0,0.25,51,63.51
2236,C6,346.0,0.25,51,63.51
2237,E4,346.25,0.25,36,63.51
2238,D6,346.25,0.25,48,63.51
2239,D5,346.25,0.25,48,63.51
2240,A3,346.5,0.25,46,63.51
2241,E5,346.5,0.25,58,63.51
2242,E6,346.5,0.25,58,63.51
2243,E4,346.75,0.25,39,63.51
2244,E-6,346.75,0.25,50,63.51
2245,E-5,346.75,0.25,50,63.51
2246,C4,347.0,0.25,46,63.51
2247,F5,347.0,0.25,58,63.51
2248,F6,347.0,0.25,58,63.51
2249,E4,347.25,0.25,40,63.51
2250,E6,347.25,0.25,55,63.51
2251,E5,347.25,0.25,55,63.51
2252,A3,347.5,0.25,46,63.51
2253,D6,347.5,0.25,59,63.51
2254,D5,347.5,0.25,59,63.51
2255,E4,347.75,0.25,40,63.51
2256,C5,347.75,0.25,52,63.51
2257,C6,347.75,0.25,52,63.51
2258,E3,348.0,0.25,49,63.51
2259,B5,348.0,0.25,61,63.51
2260,B4,348.0,0.25,61,63.51
2261,E4,348.25,0.25,39,63.51
2262,A5,348.25,0.25,54,63.51
2263,A4,348.25,0.25,54,63.51
2264,B3,348.5,0.25,46,63.51
2265,G#4,348.5,0.25,59,63.51
2266,G#5,348.5,0.25,59,63.51
2267,E4,348.75,0.25,40,63.51
2268,A5,348.75,0.25,54,63.51
2269,A4,348.75,0.25,54,63.51
2270,E3,349.0,0.25,47,63.51
2271,B5,349.0,0.25,59,63.51
2272,B4,349.0,0.25,59,63.51
2273,E4,349.25,0.25,39,63.51
2274,C6,349.25,0.25,56,63.51
2275,C5,349.25,0.25,56,63.51
2276,E3,349.5,0.25,48,63.51
2277,D5,349.5,0.25,58,63.51
2278,D6,349.5,0.25,58,63.51
2279,E4,349.75,0.25,41,63.51
2280,C#6,349.75,0.25,52,63.51
2281,C#5,349.75,0.25,52,63.51
2282,B3,350.0,0.25,47,63.51
2283,E5,350.0,0.25,66,63.51
2284,E6,350.0,0.25,66,63.51
2285,E4,350.25,0.25,41,63.51
2286,D6,350.25,0.25,62,63.51
2287,D5,350.25,0.25,62,63.51
2288,E3,350.5,0.25,47,63.51
2289,C6,350.5,0.25,60,63.51
2290,C5,350.5,0.25,60,63.51
2291,E4,350.75,0.25,41,63.51
2292,B5,350.75,0.25,57,63.51
2293,B4,350.75,0.25,57,63.51
2294,A3,351.0,0.25,49,63.51
2295,A4,351.0,0.25,60,63.51
2296,A5,351.0,0.25,60,63.51
2297,E4,351.25,0.25,39,63.51
2298,G#4,351.25,0.25,56,63.51
2299,G#5,351.25,0.25,56,63.51
2300,C4,351.5,0.25,46,63.51
2301,A5,351.5,0.25,61,63.51
2302,A4,351.5,0.25,61,63.51
2303,E4,351.75,0.25,40,63.51
2304,C6,351.75,0.25,56,63.51
2305,C5,351.75,0.25,56,63.51
2306,G#3,352.0,0.25,47,63.51
2307,B4,352.0,0.25,58,63.51
2308,B5,352.0,0.25,58,63.51
2309,E4,352.25,0.25,39,63.51
2310,D6,352.25,0.25,58,63.51
2311,D5,352.25,0.25,58,63.51
2312,A3,352.5,0.25,48,63.51
2313,C5,352.5,0.25,61,63.51
2314,C6,352.5,0.25,61,63.51
2315,E4,352.75,0.25,41,63.51
2316,B5,352.75,0.25,56,63.51
2317,B4,352.75,0.25,56,63.51
2318,C4,353.0,0.25,47,63.51
2319,C5,353.0,0.25,66,63.51
2320,C6,353.0,0.25,66,63.51
2321,E4,353.25,0.25,41,63.51
2322,E6,353.25,0.25,62,63.51
2323,E5,353.25,0.25,62,63.51
2324,F3,353.5,0.25,47,63.51
2325,D5,353.5,0.25,60,63.51
2326,D6,353.5,0.25,60,63.51
2327,D4,353.75,0.25,41,63.51
2328,F6,353.75,0.25,60,63.51
2329,F5,353.75,0.25,60,63.51
2330,E3,354.0,0.25,49,63.51
2331,E6,354.0,0.25,62,63.51
2332,E5,354.0,0.25,62,63.51
2333,C4,354.25,0.25,39,63.51
2334,E-6,354.25,0.25,54,63.51
2335,E-5,354.25,0.25,54,63.51
2336,A3,354.5,0.25,46,63.51
2337,E5,354.5,0.25,61,63.51
2338,E6,354.5,0.25,61,63.51
2339,C4,354.75,0.25,40,63.51
2340,E5,354.75,0.25,56,63.51
2341,E4,354.75,0.25,56,63.51
2342,E3,355.0,0.25,47,63.51
2343,F#4,355.0,0.25,58,63.51
2344,F#5,355.0,0.25,58,63.51
2345,B3,355.25,0.25,39,63.51
2346,G#5,355.25,0.25,58,63.51
2347,G#4,355.25,0.25,58,63.51
2348,A2,355.5,0.062,54,63.51
2349,A4,355.5,1.0,58,63.51
2350,A5,355.5,1.0,58,63.51
2351,C3,355.75,0.062,52,63.51
2352,E3,356.0,0.062,57,63.51
2353,A3,356.25,0.062,54,63.51
2354,A2,356.5,0.125,60,63.51
2355,C5,357.0,0.25,50,63.51
2356,A3,357.0,0.25,43,63.51
2357,B4,357.25,0.25,47,63.51
2358,E4,357.25,0.25,34,63.51
2359,A4,357.5,0.25,50,63.51
2360,C4,357.5,0.25,40,63.51
2361,B4,357.75,0.25,46,63.51
2362,E4,357.75,0.25,35,63.51
2363,C5,358.0,0.25,47,63.51
2364,A3,358.0,0.25,41,63.51
2365,D5,358.25,0.25,48,63.51
2366,E4,358.25,0.25,34,63.51
2367,E5,358.5,0.25,50,63.51
2368,A3,358.5,0.25,42,63.51
2369,E-5,358.75,0.25,46,63.51
2370,E4,358.75,0.25,36,63.51
2371,F5,359.0,0.25,55,63.51
2372,C4,359.0,0.25,41,63.51
2373,E5,359.25,0.25,53,63.51
2374,E4,359.25,0.25,36,63.51
2375,D5,359.5,0.25,51,63.51
2376,A3,359.5,0.25,41,63.51
2377,C5,359.75,0.25,48,63.51
2378,E4,359.75,0.25,36,63.51
2379,B4,360.0,0.25,50,63.51
2380,E3,360.0,0.25,43,63.51
2381,A4,360.25,0.25,47,63.51
2382,E4,360.25,0.25,34,63.51
2383,G#4,360.5,0.25,50,63.51
2384,B3,360.5,0.25,40,63.51
2385,A4,360.75,0.25,46,63.51
2386,E4,360.75,0.25,35,63.51
2387,B4,361.0,0.25,47,63.51
2388,E3,361.0,0.25,41,63.51
2389,C5,361.25,0.25,48,63.51
2390,E4,361.25,0.25,34,63.51
2391,D5,361.5,0.25,50,63.51
2392,E3,361.5,0.25,42,63.51
2393,C#5,361.75,0.25,46,63.51
2394,E4,361.75,0.25,36,63.51
2395,E5,362.0,0.25,54,63.51
2396,B3,362.0,0.25,41,63.51
2397,D5,362.25,0.25,52,63.51
2398,E4,362.25,0.25,36,63.51
2399,C5,362.5,0.25,51,63.51
2400,E3,362.5,0.25,41,63.51
2401,B4,362.75,0.25,49,63.51
2402,E4,362.75,0.25,36,63.51
2403,A4,363.0,0.25,50,63.51
2404,A3,363.0,0.25,43,63.51
2405,E5,363.25,0.25,47,63.51
2406,E4,363.25,0.25,34,63.51
2407,E-5,363.5,0.25,50,63.51
2408,C4,363.5,0.25,40,63.51
2409,E5,363.75,0.25,46,63.51
2410,E4,363.75,0.25,35,63.51
2411,C5,364.0,0.25,47,63.51
2412,A3,364.0,0.25,41,63.51
2413,A4,364.25,0.25,48,63.51
2414,E4,364.25,0.25,34,63.51
2415,G#4,364.5,0.25,50,63.51
2416,B3,364.5,0.25,42,63.51
2417,E5,364.75,0.25,46,63.51
2418,E4,364.75,0.25,36,63.51
2419,F5,365.0,0.25,55,63.51
2420,D4,365.0,0.25,41,63.51
2421,E5,365.25,0.25,53,63.51
2422,E4,365.25,0.25,36,63.51
2423,D5,365.5,0.25,51,63.51
2424,B3,365.5,0.25,41,63.51
2425,B4,365.75,227/1000,48,63.51
2426,E4,365.75,0.25,36,63.51
2427,B4,366.0,0.25,50,63.51
2428,C4,366.0,0.25,43,63.51
2429,A4,366.25,0.25,47,63.51
2430,E4,366.25,0.25,34,63.51
2431,G#4,366.5,0.25,50,63.51
2432,B3,366.5,0.25,40,63.51
2433,A4,366.75,0.25,46,63.51
2434,E4,366.75,0.25,35,63.51
2435,B4,367.0,0.25,47,63.51
2436,A3,367.0,0.25,41,63.51
2437,C5,367.25,229/1000,48,63.51
2438,E4,367.25,0.25,34,63.51
2439,E3,367.5,0.25,42,63.51
2440,C5,367.5,1.0,41,63.51
2441,A4,367.5,1.0,41,63.51
2442,E4,367.75,0.25,36,63.51
2443,E-4,368.0,0.25,41,63.51
2444,E4,368.25,0.25,36,63.51
2445,E3,368.5,0.25,41,63.51
2446,G#4,368.5,0.5,41,63.51
2447,B4,368.5,0.5,41,63.51
2448,E4,368.75,0.25,36,63.51
2449,A3,369.0,0.25,41,63.51
2450,C6,369.0,0.25,48,63.51
2451,C5,369.0,0.25,48,63.51
2452,E4,369.25,0.25,33,63.51
2453,B5,369.25,0.25,44,63.51
2454,B4,369.25,0.25,44,63.51
2455,C4,369.5,0.25,39,63.51
2456,A4,369.5,0.25,50,63.51
2457,A5,369.5,0.25,50,63.51
2458,E4,369.75,0.25,36,63.51
2459,B4,369.75,0.25,48,63.51
2460,B5,369.75,0.25,48,63.51
2461,A3,370.0,0.25,43,63.51
2462,C5,370.0,0.25,51,63.51
2463,C6,370.0,0.25,51,63.51
2464,E4,370.25,0.25,36,63.51
2465,D6,370.25,0.25,48,63.51
2466,D5,370.25,0.25,48,63.51
2467,A3,370.5,0.25,46,63.51
2468,E6,370.5,0.25,58,63.51
2469,E5,370.5,0.25,58,63.51
2470,E4,370.75,0.25,39,63.51
2471,E-5,370.75,0.25,50,63.51
2472,E-6,370.75,0.25,50,63.51
2473,C4,371.0,0.25,46,63.51
2474,F6,371.0,0.25,58,63.51
2475,F5,371.0,0.25,58,63.51
2476,E4,371.25,0.25,40,63.51
2477,E6,371.25,0.25,55,63.51
2478,E5,371.25,0.25,55,63.51
2479,A3,371.5,0.25,46,63.51
2480,D6,371.5,0.25,59,63.51
2481,D5,371.5,0.25,59,63.51
2482,E4,371.75,0.25,40,63.51
2483,C5,371.75,0.25,52,63.51
2484,C6,371.75,0.25,52,63.51
2485,E3,372.0,0.25,49,63.51
2486,B5,372.0,0.25,61,63.51
2487,B4,372.0,0.25,61,63.51
2488,E4,372.25,0.25,39,63.51
2489,A4,372.25,0.25,54,63.51
2490,A5,372.25,0.25,54,63.51
2491,B3,372.5,0.25,46,63.51
2492,G#4,372.5,0.25,59,63.51
2493,G#5,372.5,0.25,59,63.51
2494,E4,372.75,0.25,40,63.51
2495,A4,372.75,0.25,54,63.51
2496,A5,372.75,0.25,54,63.51
2497,E3,373.0,0.25,47,63.51
2498,B4,373.0,0.25,59,63.51
2499,B5,373.0,0.25,59,63.51
2500,E4,373.25,0.25,39,63.51
2501,C6,373.25,0.25,56,63.51
2502,C5,373.25,0.25,56,63.51
2503,E3,373.5,0.25,48,63.51
2504,D5,373.5,0.25,58,63.51
2505,D6,373.5,0.25,58,63.51
2506,E4,373.75,0.25,41,63.51
2507,C#6,373.75,0.25,52,63.51
2508,C#5,373.75,0.25,52,63.51
2509,B3,374.0,0.25,47,63.51
2510,E6,374.0,0.25,66,63.51
2511,E5,374.0,0.25,66,63.51
2512,E4,374.25,0.25,41,63.51
2513,D5,374.25,0.25,62,63.51
2514,D6,374.25,0.25,62,63.51
2515,E3,374.5,0.25,47,63.51
2516,C6,374.5,0.25,60,63.51
2517,C5,374.5,0.25,60,63.51
2518,E4,374.75,0.25,41,63.51
2519,B4,374.75,0.25,57,63.51
2520,B5,374.75,0.25,57,63.51
2521,A3,375.0,0.25,49,63.51
2522,A5,375.0,0.25,60,63.51
2523,A4,375.0,0.25,60,63.51
2524,E4,375.25,0.25,39,63.51
2525,G#4,375.25,0.25,56,63.51
2526,G#5,375.25,0.25,56,63.51
2527,C4,375.5,0.25,46,63.51
2528,A5,375.5,0.25,61,63.51
2529,A4,375.5,0.25,61,63.51
2530,E4,375.75,0.25,40,63.51
2531,C5,375.75,0.25,56,63.51
2532,C6,375.75,0.25,56,63.51
2533,G#3,376.0,0.25,47,63.51
2534,B4,376.0,0.25,58,63.51
2535,B5,376.0,0.25,58,63.51
2536,E4,376.25,0.25,39,63.51
2537,D6,376.25,0.25,58,63.51
2538,D5,376.25,0.25,58,63.51
2539,A3,376.5,0.25,48,63.51
2540,C5,376.5,0.25,61,63.51
2541,C6,376.5,0.25,61,63.51
2542,E4,376.75,0.25,41,63.51
2543,B4,376.75,0.25,56,63.51
2544,B5,376.75,0.25,56,63.51
2545,C4,377.0,0.25,47,63.51
2546,C5,377.0,0.25,66,63.51
2547,C6,377.0,0.25,66,63.51
2548,E4,377.25,0.25,41,63.51
2549,E6,377.25,0.25,62,63.51
2550,E5,377.25,0.25,62,63.51
2551,F3,377.5,0.25,47,63.51
2552,D6,377.5,0.25,60,63.51
2553,D5,377.5,0.25,60,63.51
2554,D4,377.75,0.25,41,63.51
2555,F5,377.75,0.25,60,63.51
2556,F6,377.75,0.25,60,63.51
2557,E3,378.0,0.25,49,63.51
2558,E6,378.0,0.25,62,63.51
2559,E5,378.0,0.25,62,63.51
2560,C4,378.25,0.25,39,63.51
2561,E-6,378.25,0.25,54,63.51
2562,E-5,378.25,0.25,54,63.51
2563,A3,378.5,0.25,46,63.51
2564,E6,378.5,0.25,61,63.51
2565,E5,378.5,0.25,61,63.51
2566,C4,378.75,0.25,40,63.51
2567,E5,378.75,0.25,56,63.51
2568,E4,378.75,0.25,56,63.51
2569,E3,379.0,0.25,47,63.51
2570,F#4,379.0,0.25,58,63.51
2571,F#5,379.0,0.25,58,63.51
2572,B3,379.25,0.25,39,63.51
2573,G#5,379.25,0.25,58,63.51
2574,G#4,379.25,0.25,58,63.51
2575,A2,379.5,0.062,54,63.51
2576,A4,379.5,1.0,58,63.51
2577,A5,379.5,1.0,58,63.51
2578,C3,379.75,0.062,52,63.51
2579,E3,380.0,0.062,57,63.51
2580,A3,380.25,0.062,54,63.51
2581,A2,380.5,0.125,60,63.51
2582,A4,381.0,0.25,50,63.51
2583,A3,381.0,1.5,37,63.51
2584,C4,381.0,1.0,44,63.51
2585,G#4,381.25,0.25,46,63.51
2586,A4,381.5,0.25,50,63.51
2587,A5,381.75,0.25,55,63.51
2588,G#5,382.0,0.25,54,63.51
2589,C#4,382.0,0.5,44,63.51
2590,G5,382.25,9/40,53,63.51
2591,G5,382.5,0.25,50,63.51
2592,A3,382.5,1.5,40,63.51
2593,D4,382.5,1.5,40,63.51
2594,F5,382.75,0.25,48,63.51
2595,E5,383.0,0.25,48,63.51
2596,F5,383.25,0.25,48,63.51
2597,E5,383.5,0.25,50,63.51
2598,F5,383.75,0.25,48,63.51
2599,A5,384.0,0.25,50,63.51
2600,A3,384.0,1.5,34,63.51
2601,F4,384.0,0.25,41,63.51
2602,G#5,384.25,0.25,45,63.51
2603,E4,384.25,0.25,39,63.51
2604,A5,384.5,0.25,50,63.51
2605,F4,384.5,0.25,41,63.51
2606,G#5,384.75,0.25,45,63.51
2607,E4,384.75,0.25,37,63.51
2608,A5,385.0,0.25,50,63.51
2609,F4,385.0,0.25,41,63.51
2610,F5,385.25,9/40,46,63.51
2611,D4,385.25,9/40,38,63.51
2612,F5,385.5,0.25,50,63.51
2613,A3,385.5,1.5,34,63.51
2614,D4,385.5,0.25,41,63.51
2615,E5,385.75,0.25,47,63.51
2616,C4,385.75,0.25,37,63.51
2617,E-5,386.0,0.25,47,63.51
2618,B3,386.0,0.25,41,63.51
2619,E5,386.25,0.25,47,63.51
2620,C4,386.25,0.25,38,63.51
2621,E-5,386.5,0.25,50,63.51
2622,B3,386.5,0.25,41,63.51
2623,E5,386.75,9/40,45,63.51
2624,C4,386.75,9/40,38,63.51
2625,E5,387.0,0.25,50,63.51
2626,C4,387.0,0.25,41,63.51
2627,A3,387.0,1.5,34,63.51
2628,D5,387.25,0.25,46,63.51
2629,D4,387.25,0.25,39,63.51
2630,C5,387.5,0.25,46,63.51
2631,E4,387.5,0.25,39,63.51
2632,B4,387.75,0.25,46,63.51
2633,D4,387.75,0.25,41,63.51
2634,A4,388.0,0.25,44,63.51
2635,C4,388.0,0.5,39,63.51
2636,E5,388.25,0.25,50,63.51
2637,F5,388.5,0.25,47,63.51
2638,B3,388.5,0.25,31,63.51
2639,G#3,388.5,0.25,31,63.51
2640,D5,388.75,0.25,47,63.51
2641,A3,388.75,0.25,33,63.51
2642,C4,388.75,0.25,33,63.51
2643,B4,389.0,0.25,47,63.51
2644,B3,389.0,0.25,34,63.51
2645,D4,389.0,0.25,34,63.51
2646,A4,389.25,0.25,47,63.51
2647,E4,389.25,0.25,35,63.51
2648,C4,389.25,0.25,35,63.51
2649,G#4,389.5,0.25,50,63.51
2650,D4,389.5,0.5,37,63.51
2651,F4,389.5,0.5,37,63.51
2652,B4,389.75,9/40,47,63.51
2653,B4,390.0,0.25,50,63.51
2654,E4,390.0,0.5,35,63.51
2655,C4,390.0,0.5,35,63.51
2656,A4,390.25,0.25,43,63.51
2657,C5,390.5,0.25,55,63.51
2658,G#3,390.5,0.5,38,63.51
2659,E4,390.5,0.5,38,63.51
2660,B4,390.75,0.25,49,63.51
2661,D5,391.0,0.25,58,63.51
2662,A3,391.0,0.5,40,63.51
2663,E4,391.0,0.5,40,63.51
2664,C5,391.25,0.25,51,63.51
2665,B4,391.5,83/1000,54,63.51
2666,C5,391.583,83/1000,56,63.51
2667,D5,391.667,83/1000,58,63.51
2668,E-3,391.75,0.75,49,63.51
2669,A4,391.75,0.75,60,63.51
2670,C5,391.75,0.75,60,63.51
2671,E3,392.5,0.375,33,63.51
2672,G#4,392.5,0.375,44,63.51
2673,B4,392.5,0.375,44,63.51
2674,C5,393.0,0.25,50,63.51
2675,A3,393.0,0.25,43,63.51
2676,B4,393.25,0.25,47,63.51
2677,E4,393.25,0.25,34,63.51
2678,A4,393.5,0.25,50,63.51
2679,C4,393.5,0.25,40,63.51
2680,B4,393.75,0.25,46,63.51
2681,E4,393.75,0.25,35,63.51
2682,C5,394.0,0.25,47,63.51
2683,A3,394.0,0.25,41,63.51
2684,D5,394.25,0.25,48,63.51
2685,E4,394.25,0.25,34,63.51
2686,E5,394.5,0.25,50,63.51
2687,A3,394.5,0.25,42,63.51
2688,E-5,394.75,0.25,46,63.51
2689,E4,394.75,0.25,36,63.51
2690,F5,395.0,0.25,55,63.51
2691,C4,395.0,0.25,41,63.51
2692,E5,395.25,0.25,53,63.51
2693,E4,395.25,0.25,36,63.51
2694,D5,395.5,0.25,51,63.51
2695,A3,395.5,0.25,41,63.51
2696,C5,395.75,0.25,48,63.51
2697,E4,395.75,0.25,36,63.51
2698,B4,396.0,0.25,50,63.51
2699,E3,396.0,0.25,43,63.51
2700,A4,396.25,0.25,47,63.51
2701,E4,396.25,0.25,34,63.51
2702,G#4,396.5,0.25,50,63.51
2703,B3,396.5,0.25,40,63.51
2704,A4,396.75,0.25,46,63.51
2705,E4,396.75,0.25,35,63.51
2706,B4,397.0,0.25,47,63.51
2707,E3,397.0,0.25,41,63.51
2708,C5,397.25,0.25,48,63.51
2709,E4,397.25,0.25,34,63.51
2710,D5,397.5,0.25,50,63.51
2711,E3,397.5,0.25,42,63.51
2712,C#5,397.75,0.25,46,63.51
2713,E4,397.75,0.25,36,63.51
2714,E5,398.0,0.25,54,63.51
2715,B3,398.0,0.25,41,63.51
2716,D5,398.25,0.25,52,63.51
2717,E4,398.25,0.25,36,63.51
2718,C5,398.5,0.25,51,63.51
2719,E3,398.5,0.25,41,63.51
2720,B4,398.75,0.25,49,63.51
2721,E4,398.75,0.25,36,63.51
2722,A4,399.0,0.25,50,63.51
2723,A3,399.0,0.25,43,63.51
2724,G#4,399.25,0.25,47,63.51
2725,E4,399.25,0.25,34,63.51
2726,A4,399.5,0.25,50,63.51
2727,C4,399.5,0.25,40,63.51
2728,C5,399.75,0.25,46,63.51
2729,E4,399.75,0.25,35,63.51
2730,B4,400.0,0.25,52,63.51
2731,G#3,400.0,0.25,41,63.51
2732,D5,400.25,0.25,48,63.51
2733,E4,400.25,0.25,34,63.51
2734,C5,400.5,0.25,56,63.51
2735,A3,400.5,0.25,42,63.51
2736,B4,400.75,0.25,50,63.51
2737,E4,400.75,0.25,36,63.51
2738,C5,401.0,0.25,54,63.51
2739,C4,401.0,0.25,41,63.51
2740,E5,401.25,0.25,50,63.51
2741,E4,401.25,0.25,36,63.51
2742,D5,401.5,0.25,55,63.51
2743,F3,401.5,0.25,41,63.51
2744,F5,401.75,0.25,48,63.51
2745,D4,401.75,0.25,36,63.51
2746,E5,402.0,0.25,60,63.51
2747,E3,402.0,0.25,43,63.51
2748,E-5,402.25,0.25,54,63.51
2749,C4,402.25,0.25,34,63.51
2750,E5,402.5,0.25,56,63.51
2751,A3,402.5,0.25,40,63.51
2752,E4,402.75,0.25,43,63.51
2753,C4,402.75,0.25,35,63.51
2754,F#4,403.0,0.25,43,63.51
2755,E3,403.0,0.25,41,63.51
2756,G#4,403.25,0.25,46,63.51
2757,B3,403.25,0.25,34,63.51
2758,A4,403.5,0.25,51,63.51
2759,A3,403.5,1.0,44,63.51
2760,A2,403.5,1.0,44,63.51
2761,G#4,403.75,0.25,44,63.51
2762,A4,404.0,0.25,50,63.51
2763,E4,404.25,0.25,45,63.51
2764,C4,404.5,0.25,49,63.51
2765,E4,404.75,0.25,46,63.51
2766,A2,405.0,0.25,49,63.51
2767,A4,405.0,0.25,60,63.51
2768,A5,405.0,0.25,60,63.51
2769,E3,405.25,0.25,39,63.51
2770,G#5,405.25,0.25,56,63.51
2771,G#4,405.25,0.25,56,63.51
2772,C3,405.5,0.25,46,63.51
2773,A5,405.5,0.25,61,63.51
2774,A4,405.5,0.25,61,63.51
2775,E3,405.75,0.25,40,63.51
2776,C5,405.75,0.25,56,63.51
2777,C6,405.75,0.25,56,63.51
2778,G#2,406.0,0.25,47,63.51
2779,B5,406.0,0.25,58,63.51
2780,B4,406.0,0.25,58,63.51
2781,E3,406.25,0.25,39,63.51
2782,D6,406.25,0.25,58,63.51
2783,D5,406.25,0.25,58,63.51
2784,A2,406.5,0.25,48,63.51
2785,C5,406.5,0.25,61,63.51
2786,C6,406.5,0.25,61,63.51
2787,E3,406.75,0.25,41,63.51
2788,B4,406.75,0.25,56,63.51
2789,B5,406.75,0.25,56,63.51
2790,C3,407.0,0.25,47,63.51
2791,C6,407.0,0.25,66,63.51
2792,C5,407.0,0.25,66,63.51
2793,E3,407.25,0.25,41,63.51
2794,E6,407.25,0.25,62,63.51
2795,E5,407.25,0.25,62,63.51
2796,F2,407.5,0.25,47,63.51
2797,D5,407.5,0.25,60,63.51
2798,D6,407.5,0.25,60,63.51
2799,D3,407.75,0.25,41,63.51
2800,F5,407.75,0.25,60,63.51
2801,F6,407.75,0.25,60,63.51
2802,E2,408.0,0.25,49,63.51
2803,E5,408.0,0.25,62,63.51
2804,E6,408.0,0.25,62,63.51
2805,C3,408.25,0.25,39,63.51
2806,E-6,408.25,0.25,54,63.51
2807,E-5,408.25,0.25,54,63.51
2808,A2,408.5,0.25,46,63.51
2809,E5,408.5,0.25,61,63.51
2810,E6,408.5,0.25,61,63.51
2811,C3,408.75,0.25,40,63.51
2812,E4,408.75,0.25,56,63.51
2813,E5,408.75,0.25,56,63.51
2814,E2,409.0,0.25,47,63.51
2815,F#5,409.0,0.25,58,63.51
2816,F#4,409.0,0.25,58,63.51
2817,B2,409.25,0.25,39,63.51
2818,G#5,409.25,0.25,58,63.51
2819,G#4,409.25,0.25,58,63.51
2820,A1,409.5,0.062,54,63.51
2821,A5,409.5,1.0,58,63.51
2822,A4,409.5,1.0,58,63.51
2823,C2,409.75,0.062,52,63.51
2824,E2,410.0,0.062,57,63.51
2825,A2,410.25,0.062,54,63.51
2826,A1,410.5,0.125,60,63.51
2827,A4,411.0,0.25,50,63.51
2828,A3,411.0,1.5,37,63.51
2829,C4,411.0,1.0,44,63.51
2830,G#4,411.25,0.25,46,63.51
2831,A4,411.5,0.25,50,63.51
2832,A5,411.75,0.25,55,63.51
2833,G#5,412.0,0.25,54,63.51
2834,C#4,412.0,0.5,44,63.51
2835,G5,412.25,9/40,53,63.51
2836,G5,412.5,0.25,50,63.51
2837,A3,412.5,1.5,40,63.51
2838,D4,412.5,1.5,40,63.51
2839,F5,412.75,0.25,48,63.51
2840,E5,413.0,0.25,48,63.51
2841,F5,413.25,0.25,48,63.51
2842,E5,413.5,0.25,50,63.51
2843,F5,413.75,0.25,48,63.51
2844,A5,414.0,0.25,50,63.51
2845,F4,414.0,0.25,41,63.51
2846,A3,414.0,1.5,34,63.51
2847,G#5,414.25,0.25,45,63.51
2848,E4,414.25,0.25,39,63.51
2849,A5,414.5,0.25,50,63.51
2850,F4,414.5,0.25,41,63.51
2851,G#5,414.75,0.25,45,63.51
2852,E4,414.75,0.25,37,63.51
2853,A5,415.0,0.25,50,63.51
2854,F4,415.0,0.25,41,63.51
2855,F5,415.25,9/40,46,63.51
2856,D4,415.25,9/40,38,63.51
2857,F5,415.5,0.25,50,63.51
2858,D4,415.5,0.25,41,63.51
2859,A3,415.5,1.5,34,63.51
2860,E5,415.75,0.25,47,63.51
2861,C4,415.75,0.25,37,63.51
2862,E-5,416.0,0.25,47,63.51
2863,B3,416.0,0.25,41,63.51
2864,E5,416.25,0.25,47,63.51
2865,C4,416.25,0.25,38,63.51
2866,E-5,416.5,0.25,50,63.51
2867,B3,416.5,0.25,41,63.51
2868,E5,416.75,9/40,45,63.51
2869,C4,416.75,9/40,38,63.51
2870,E5,417.0,0.25,50,63.51
2871,A3,417.0,1.5,34,63.51
2872,C4,417.0,0.25,41,63.51
2873,D5,417.25,0.25,46,63.51
2874,D4,417.25,0.25,39,63.51
2875,C5,417.5,0.25,46,63.51
2876,E4,417.5,0.25,39,63.51
2877,B4,417.75,0.25,46,63.51
2878,D4,417.75,0.25,41,63.51
2879,A4,418.0,0.25,44,63.51
2880,C4,418.0,0.5,39,63.51
2881,E5,418.25,0.25,50,63.51
2882,F5,418.5,0.25,47,63.51
2883,B3,418.5,0.25,31,63.51
2884,G#3,418.5,0.25,31,63.51
2885,D5,418.75,0.25,47,63.51
2886,A3,418.75,0.25,33,63.51
2887,C4,418.75,0.25,33,63.51
2888,B4,419.0,0.25,47,63.51
2889,B3,419.0,0.25,34,63.51
2890,D4,419.0,0.25,34,63.51
2891,A4,419.25,0.25,47,63.51
2892,C4,419.25,0.25,35,63.51
2893,E4,419.25,0.25,35,63.51
2894,G#4,419.5,0.25,50,63.51
2895,D4,419.5,0.5,37,63.51
2896,F4,419.5,0.5,37,63.51
2897,B4,419.75,9/40,47,63.51
2898,B4,420.0,0.25,50,63.51
2899,C4,420.0,0.5,35,63.51
2900,E4,420.0,0.5,35,63.51
2901,A4,420.25,0.25,43,63.51
2902,C5,420.5,0.25,55,63.51
2903,G#3,420.5,0.5,38,63.51
2904,E4,420.5,0.5,38,63.51
2905,B4,420.75,0.25,49,63.51
2906,D5,421.0,0.25,58,63.51
2907,E4,421.0,0.5,40,63.51
2908,A3,421.0,0.5,40,63.51
2909,C5,421.25,0.25,51,63.51
2910,B4,421.5,83/1000,54,63.51
2911,C5,421.583,83/1000,56,63.51
2912,D5,421.667,83/1000,58,63.51
2913,E-3,421.75,0.75,49,63.51
2914,C5,421.75,0.75,60,63.51
2915,A4,421.75,0.75,60,63.51
2916,E3,422.5,0.375,33,63.51
2917,G#4,422.5,0.375,44,63.51
2918,B4,422.5,0.375,44,63.51
2919,C5,423.0,0.25,50,63.51
2920,A3,423.0,0.25,43,63.51
2921,B4,423.25,0.25,47,63.51
2922,E4,423.25,0.25,34,63.51
2923,A4,423.5,0.25,50,63.51
2924,C4,423.5,0.25,40,63.51
2925,B4,423.75,0.25,46,63.51
2926,E4,423.75,0.25,35,63.51
2927,C5,424.0,0.25,47,63.51
2928,A3,424.0,0.25,41,63.51
2929,D5,424.25,0.25,48,63.51
2930,E4,424.25,0.25,34,63.51
2931,E5,424.5,0.25,50,63.51
2932,A3,424.5,0.25,42,63.51
2933,E-5,424.75,0.25,46,63.51
2934,E4,424.75,0.25,36,63.51
2935,F5,425.0,0.25,55,63.51
2936,C4,425.0,0.25,41,63.51
2937,E5,425.25,0.25,53,63.51
2938,E4,425.25,0.25,36,63.51
2939,D5,425.5,0.25,51,63.51
2940,A3,425.5,0.25,41,63.51
2941,C5,425.75,0.25,48,63.51
2942,E4,425.75,0.25,36,63.51
2943,B4,426.0,0.25,50,63.51
2944,E3,426.0,0.25,43,63.51
2945,A4,426.25,0.25,47,63.51
2946,E4,426.25,0.25,34,63.51
2947,G#4,426.5,0.25,50,63.51
2948,B3,426.5,0.25,40,63.51
2949,A4,426.75,0.25,46,63.51
2950,E4,426.75,0.25,35,63.51
2951,B4,427.0,0.25,47,63.51
2952,E3,427.0,0.25,41,63.51
2953,C5,427.25,0.25,48,63.51
2954,E4,427.25,0.25,34,63.51
2955,D5,427.5,0.25,50,63.51
2956,E3,427.5,0.25,42,63.51
2957,C#5,427.75,0.25,46,63.51
2958,E4,427.75,0.25,36,63.51
2959,E5,428.0,0.25,54,63.51
2960,B3,428.0,0.25,41,63.51
2961,D5,428.25,0.25,52,63.51
2962,E4,428.25,0.25,36,63.51
2963,C5,428.5,0.25,51,63.51
2964,E3,428.5,0.25,41,63.51
2965,B4,428.75,0.25,49,63.51
2966,E4,428.75,0.25,36,63.51
2967,A4,429.0,0.25,50,63.51
2968,A3,429.0,0.25,43,63.51
2969,G#4,429.25,0.25,47,63.51
2970,E4,429.25,0.25,34,63.51
2971,A4,429.5,0.25,50,63.51
2972,C4,429.5,0.25,40,63.51
2973,C5,429.75,0.25,46,63.51
2974,E4,429.75,0.25,35,63.51
2975,B4,430.0,0.25,52,63.51
2976,G#3,430.0,0.25,41,63.51
2977,D5,430.25,0.25,48,63.51
2978,E4,430.25,0.25,34,63.51
2979,C5,430.5,0.25,56,63.51
2980,A3,430.5,0.25,42,63.51
2981,B4,430.75,0.25,50,63.51
2982,E4,430.75,0.25,36,63.51
2983,C5,431.0,0.25,54,63.51
2984,C4,431.0,0.25,41,63.51
2985,E5,431.25,0.25,50,63.51
2986,E4,431.25,0.25,36,63.51
2987,D5,431.5,0.25,55,63.51
2988,F3,431.5,0.25,41,63.51
2989,F5,431.75,0.25,48,63.51
2990,D4,431.75,0.25,36,63.51
2991,E5,432.0,0.25,60,63.51
2992,E3,432.0,0.25,43,63.51
2993,E-5,432.25,0.25,54,63.51
2994,C4,432.25,0.25,34,63.51
2995,E5,432.5,0.25,56,63.51
2996,A3,432.5,0.25,40,63.51
2997,E4,432.75,0.25,43,63.51
2998,C4,432.75,0.25,35,63.51
2999,F#4,433.0,0.25,43,63.51
3000,E3,433.0,0.25,41,63.51
3001,G#4,433.25,0.25,46,63.51
3002,B3,433.25,0.25,34,63.51
3003,A4,433.5,0.25,51,63.51
3004,A3,433.5,1.0,44,63.51
3005,A2,433.5,1.0,44,63.51
3006,G#4,433.75,0.25,44,63.51
3007,A4,434.0,0.25,50,63.51
3008,E4,434.25,0.25,45,63.51
3009,C4,434.5,0.25,49,63.51
3010,E4,434.75,0.25,46,63.51
3011,A2,435.0,0.25,49,63.51
3012,A4,435.0,0.25,60,63.51
3013,A5,435.0,0.25,60,63.51
3014,E3,435.25,0.25,39,63.51
3015,G#5,435.25,0.25,56,63.51
3016,G#4,435.25,0.25,56,63.51
3017,C3,435.5,0.25,46,63.51
3018,A5,435.5,0.25,61,63.51
3019,A4,435.5,0.25,61,63.51
3020,E3,435.75,0.25,40,63.51
3021,C6,435.75,0.25,56,63.51
3022,C5,435.75,0.25,56,63.51
3023,G#2,436.0,0.25,47,63.51
3024,B4,436.0,0.25,58,63.51
3025,B5,436.0,0.25,58,63.51
3026,E3,436.25,0.25,39,63.51
3027,D6,436.25,0.25,58,63.51
3028,D5,436.25,0.25,58,63.51
3029,A2,436.5,0.25,48,63.51
3030,C6,436.5,0.25,61,63.51
3031,C5,436.5,0.25,61,63.51
3032,E3,436.75,0.25,41,63.51
3033,B5,436.75,0.25,56,63.51
3034,B4,436.75,0.25,56,63.51
3035,C3,437.0,0.25,47,63.51
3036,C6,437.0,0.25,66,63.51
3037,C5,437.0,0.25,66,63.51
3038,E3,437.25,0.25,41,63.51
3039,E5,437.25,0.25,62,63.51
3040,E6,437.25,0.25,62,63.51
3041,F2,437.5,0.25,47,63.51
3042,D5,437.5,0.25,60,63.51
3043,D6,437.5,0.25,60,63.51
3044,D3,437.75,0.25,41,63.51
3045,F5,437.75,0.25,60,63.51
3046,F6,437.75,0.25,60,63.51
3047,E2,438.0,0.25,49,63.51
3048,E6,438.0,0.25,62,63.51
3049,E5,438.0,0.25,62,63.51
3050,C3,438.25,0.25,39,63.51
3051,E-6,438.25,0.25,54,63.51
3052,E-5,438.25,0.25,54,63.51
3053,A2,438.5,0.25,46,63.51
3054,E6,438.5,0.25,61,63.51
3055,E5,438.5,0.25,61,63.51
3056,C3,438.75,0.25,40,63.51
3057,E4,438.75,0.25,56,63.51
3058,E5,438.75,0.25,56,63.51
3059,E2,439.0,0.25,47,63.51
3060,F#4,439.0,0.25,58,63.51
3061,F#5,439.0,0.25,58,63.51
3062,B2,439.25,0.25,39,63.51
3063,G#5,439.25,0.25,58,63.51
3064,G#4,439.25,0.25,58,63.51
3065,A1,439.5,0.062,52,63.51
3066,A5,439.5,1.0,58,63.51
3067,A4,439.5,1.0,58,63.51
3068,C2,439.75,0.062,49,63.51
3069,E2,440.0,0.062,56,63.51
3070,A2,440.25,0.062,51,63.51
3071,A1,440.5,0.125,58,63.51
3072,C#5,444.0,0.25,50,63.51
3073,A4,444.0,0.25,50,63.51
3074,A2,444.0,0.5,43,63.51
3075,A3,444.0,0.5,43,63.51
3076,E4,444.25,0.25,50,63.51
3077,A4,444.5,0.25,44,63.51
3078,C#5,444.5,0.25,44,63.51
3079,C#6,444.5,0.5,52,63.51
3080,A5,444.5,0.5,52,63.51
3081,E4,444.75,0.25,49,63.51
3082,D5,445.0,0.25,45,63.51
3083,B4,445.0,0.25,45,63.51
3084,D6,445.0,0.5,53,63.51
3085,B5,445.0,0.5,53,63.51
3086,E4,445.25,0.25,50,63.51
3087,E6,445.5,0.5,55,63.51
3088,C#6,445.5,0.5,55,63.51
3089,E5,445.5,0.25,46,63.51
3090,C#5,445.5,0.25,46,63.51
3091,E4,445.75,0.25,50,63.51
3092,D5,446.0,0.25,45,63.51
3093,B4,446.0,0.25,45,63.51
3094,D6,446.0,0.5,53,63.51
3095,B5,446.0,0.5,53,63.51
3096,E4,446.25,0.25,49,63.51
3097,C#5,446.5,0.25,44,63.51
3098,A4,446.5,0.25,44,63.51
3099,A5,446.5,0.5,52,63.51
3100,C#6,446.5,0.5,52,63.51
3101,E4,446.75,0.25,48,63.51
3102,G#4,447.0,0.25,50,63.51
3103,B4,447.0,0.25,50,63.51
3104,E2,447.0,0.5,43,63.51
3105,E3,447.0,0.5,43,63.51
3106,E4,447.25,0.25,50,63.51
3107,B5,447.5,0.5,52,63.51
3108,G#5,447.5,0.5,52,63.51
3109,G#4,447.5,0.25,44,63.51
3110,B4,447.5,0.25,44,63.51
3111,E4,447.75,0.25,49,63.51
3112,A5,448.0,0.5,53,63.51
3113,C#6,448.0,0.5,53,63.51
3114,C#5,448.0,0.25,45,63.51
3115,A4,448.0,0.25,45,63.51
3116,E4,448.25,0.25,50,63.51
3117,D5,448.5,0.25,46,63.51
3118,B4,448.5,0.25,46,63.51
3119,B5,448.5,0.5,55,63.51
3120,D6,448.5,0.5,55,63.51
3121,E4,448.75,0.25,50,63.51
3122,A5,449.0,0.5,53,63.51
3123,C#6,449.0,0.5,53,63.51
3124,A4,449.0,0.25,45,63.51
3125,C#5,449.0,0.25,45,63.51
3126,E4,449.25,0.25,49,63.51
3127,G#4,449.5,0.25,44,63.51
3128,B4,449.5,0.25,44,63.51
3129,B5,449.5,0.5,52,63.51
3130,G#5,449.5,0.5,52,63.51
3131,E4,449.75,0.25,48,63.51
3132,E4,450.0,0.25,54,63.51
3133,A4,450.0,0.25,54,63.51
3134,A2,450.0,0.5,48,63.51
3135,A3,450.0,0.5,48,63.51
3136,C#4,450.25,0.25,50,63.51
3137,A5,450.5,0.5,54,63.51
3138,A4,450.5,0.25,45,63.51
3139,E4,450.5,0.25,45,63.51
3140,C#4,450.75,0.25,50,63.51
3141,A4,451.0,0.25,54,63.51
3142,E4,451.0,0.25,54,63.51
3143,A3,451.0,0.5,43,63.51
3144,A2,451.0,0.5,43,63.51
3145,C#4,451.25,0.25,50,63.51
3146,G#4,451.5,0.25,55,63.51
3147,B4,451.5,0.25,55,63.51
3148,E2,451.5,0.5,47,63.51
3149,E3,451.5,0.5,47,63.51
3150,E4,451.75,0.25,51,63.51
3151,B5,452.0,0.5,56,63.51
3152,B4,452.0,0.25,47,63.51
3153,G#4,452.0,0.25,47,63.51
3154,E4,452.25,0.25,51,63.51
3155,B4,452.5,0.25,50,63.51
3156,G#4,452.5,0.25,50,63.51
3157,E2,452.5,0.5,43,63.51
3158,E3,452.5,0.5,43,63.51
3159,E4,452.75,0.25,48,63.51
3160,A4,453.0,0.25,46,63.51
3161,C#5,453.0,0.25,46,63.51
3162,C#6,453.0,0.5,55,63.51
3163,A5,453.0,0.5,55,63.51
3164,E4,453.25,0.25,50,63.51
3165,D6,453.5,0.5,53,63.51
3166,B5,453.5,0.5,53,63.51
3167,D5,453.5,0.25,45,63.51
3168,B4,453.5,0.25,45,63.51
3169,E4,453.75,0.25,49,63.51
3170,C#6,454.0,0.5,52,63.51
3171,A5,454.0,0.5,52,63.51
3172,C#5,454.0,0.25,44,63.51
3173,A4,454.0,0.25,44,63.51
3174,E4,454.25,0.25,48,63.51
3175,B5,454.5,0.5,52,63.51
3176,G#5,454.5,0.5,52,63.51
3177,G#4,454.5,0.25,44,63.51
3178,B4,454.5,0.25,44,63.51
3179,E4,454.75,0.25,49,63.51
3180,E-5,455.0,0.25,56,63.51
3181,E4,455.0,0.25,48,63.51
3182,E5,455.25,0.25,53,63.51
3183,E-5,455.5,0.25,56,63.51
3184,E3,455.5,0.25,43,63.51
3185,E5,455.75,0.25,53,63.51
3186,A4,456.0,0.25,60,63.51
3187,C#5,456.0,0.25,60,63.51
3188,A2,456.0,0.5,72,63.51
3189,A3,456.0,0.5,72,63.51
3190,E4,456.25,0.25,60,63.51
3191,C#6,456.5,0.5,62,63.51
3192,A5,456.5,0.5,62,63.51
3193,A4,456.5,0.25,52,63.51
3194,C#5,456.5,0.25,52,63.51
3195,E4,456.75,0.25,58,63.51
3196,D6,457.0,0.5,64,63.51
3197,B5,457.0,0.5,64,63.51
3198,D5,457.0,0.25,54,63.51
3199,B4,457.0,0.25,54,63.51
3200,E4,457.25,0.25,60,63.51
3201,C#6,457.5,0.5,66,63.51
3202,E6,457.5,0.5,66,63.51
3203,C#5,457.5,0.25,55,63.51
3204,E5,457.5,0.25,55,63.51
3205,E4,457.75,0.25,60,63.51
3206,B4,458.0,0.25,54,63.51
3207,D5,458.0,0.25,54,63.51
3208,B5,458.0,0.5,64,63.51
3209,D6,458.0,0.5,64,63.51
3210,E4,458.25,0.25,58,63.51
3211,A5,458.5,0.5,62,63.51
3212,C#6,458.5,0.5,62,63.51
3213,C#5,458.5,0.25,52,63.51
3214,A4,458.5,0.25,52,63.51
3215,E4,458.75,0.25,57,63.51
3216,G#4,459.0,0.25,60,63.51
3217,B4,459.0,0.25,60,63.51
3218,E2,459.0,0.5,72,63.51
3219,E3,459.0,0.5,72,63.51
3220,E4,459.25,0.25,60,63.51
3221,B4,459.5,0.25,52,63.51
3222,G#4,459.5,0.25,52,63.51
3223,G#5,459.5,0.5,62,63.51
3224,B5,459.5,0.5,62,63.51
3225,E4,459.75,0.25,58,63.51
3226,C#6,460.0,0.5,64,63.51
3227,A5,460.0,0.5,64,63.51
3228,C#5,460.0,0.25,54,63.51
3229,A4,460.0,0.25,54,63.51
3230,E4,460.25,0.25,60,63.51
3231,D5,460.5,0.25,55,63.51
3232,B4,460.5,0.25,55,63.51
3233,B5,460.5,0.5,66,63.51
3234,D6,460.5,0.5,66,63.51
3235,E4,460.75,0.25,60,63.51
3236,A4,461.0,0.25,54,63.51
3237,C#5,461.0,0.25,54,63.51
3238,C#6,461.0,0.5,64,63.51
3239,A5,461.0,0.5,64,63.51
3240,E4,461.25,0.25,58,63.51
3241,G#4,461.5,0.25,52,63.51
3242,B4,461.5,0.25,52,63.51
3243,B5,461.5,0.5,62,63.51
3244,G#5,461.5,0.5,62,63.51
3245,E4,461.75,0.25,57,63.51
3246,A4,462.0,0.25,64,63.51
3247,E4,462.0,0.25,64,63.51
3248,A2,462.0,0.5,71,63.51
3249,A3,462.0,0.5,71,63.51
3250,C#4,462.25,0.25,60,63.51
3251,A5,462.5,0.5,64,63.51
3252,C#5,462.5,0.5,64,63.51
3253,E4,462.5,0.25,54,63.51
3254,A4,462.5,0.25,54,63.51
3255,C#4,462.75,0.25,60,63.51
3256,B5,463.0,0.5,64,63.51
3257,E5,463.0,0.5,64,63.51
3258,B4,463.0,0.25,64,63.51
3259,G#4,463.0,0.25,64,63.51
3260,E4,463.25,0.25,60,63.51
3261,A5,463.5,0.5,67,63.51
3262,C#6,463.5,0.5,67,63.51
3263,C#5,463.5,0.25,66,63.51
3264,A4,463.5,0.25,66,63.51
3265,E4,463.75,0.25,61,63.51
3266,C#5,464.0,0.25,56,63.51
3267,A4,464.0,0.25,56,63.51
3268,F#2,464.0,0.5,70,63.51
3269,F#3,464.0,0.5,70,63.51
3270,F#4,464.25,0.25,61,63.51
3271,B4,464.5,0.25,60,63.51
3272,D5,464.5,0.25,60,63.51
3273,D3,464.5,0.5,64,63.51
3274,D2,464.5,0.5,64,63.51
3275,F#4,464.75,0.25,57,63.51
3276,C#5,465.0,0.25,60,63.51
3277,A4,465.0,0.25,60,63.51
3278,E3,465.0,0.5,78,63.51
3279,E2,465.0,0.5,78,63.51
3280,E4,465.25,0.25,66,63.51
3281,A4,465.5,0.25,47,63.51
3282,C#5,465.5,0.25,47,63.51
3283,A5,465.5,0.5,55,63.51
3284,C#6,465.5,0.5,55,63.51
3285,E4,465.75,0.25,50,63.51
3286,B5,466.0,0.5,54,63.51
3287,G#5,466.0,0.5,54,63.51
3288,B4,466.0,0.25,45,63.51
3289,G#4,466.0,0.25,45,63.51
3290,E4,466.25,0.25,49,63.51
3291,A5,466.5,0.5,53,63.51
3292,A4,466.5,0.25,53,63.51
3293,E4,466.75,0.25,48,63.51
3294,C#4,467.0,0.25,50,63.51
3295,A3,467.0,0.25,49,63.51
3296,E4,467.25,0.25,41,63.51
3297,A4,467.5,0.25,48,63.51
3298,A2,467.5,0.25,44,63.51
3299,C#5,468.0,0.25,50,63.51
3300,A4,468.0,0.25,50,63.51
3301,A2,468.0,0.5,43,63.51
3302,A3,468.0,0.5,43,63.51
3303,E4,468.25,0.25,50,63.51
3304,C#5,468.5,0.25,44,63.51
3305,A4,468.5,0.25,44,63.51
3306,C#6,468.5,0.5,52,63.51
3307,A5,468.5,0.5,52,63.51
3308,E4,468.75,0.25,49,63.51
3309,B5,469.0,0.5,53,63.51
3310,D6,469.0,0.5,53,63.51
3311,B4,469.0,0.25,45,63.51
3312,D5,469.0,0.25,45,63.51
3313,E4,469.25,0.25,50,63.51
3314,E5,469.5,0.25,46,63.51
3315,C#5,469.5,0.25,46,63.51
3316,E6,469.5,0.5,55,63.51
3317,C#6,469.5,0.5,55,63.51
3318,E4,469.75,0.25,50,63.51
3319,B5,470.0,0.5,53,63.51
3320,D6,470.0,0.5,53,63.51
3321,D5,470.0,0.25,45,63.51
3322,B4,470.0,0.25,45,63.51
3323,E4,470.25,0.25,49,63.51
3324,A4,470.5,0.25,44,63.51
3325,C#5,470.5,0.25,44,63.51
3326,A5,470.5,0.5,52,63.51
3327,C#6,470.5,0.5,52,63.51
3328,E4,470.75,0.25,48,63.51
3329,G#4,471.0,0.25,50,63.51
3330,B4,471.0,0.25,50,63.51
3331,E2,471.0,0.5,43,63.51
3332,E3,471.0,0.5,43,63.51
3333,E4,471.25,0.25,50,63.51
3334,G#5,471.5,0.5,52,63.51
3335,B5,471.5,0.5,52,63.51
3336,B4,471.5,0.25,44,63.51
3337,G#4,471.5,0.25,44,63.51
3338,E4,471.75,0.25,49,63.51
3339,A4,472.0,0.25,45,63.51
3340,C#5,472.0,0.25,45,63.51
3341,A5,472.0,0.5,53,63.51
3342,C#6,472.0,0.5,53,63.51
3343,E4,472.25,0.25,50,63.51
3344,D5,472.5,0.25,46,63.51
3345,B4,472.5,0.25,46,63.51
3346,D6,472.5,0.5,55,63.51
3347,B5,472.5,0.5,55,63.51
3348,E4,472.75,0.25,50,63.51
3349,C#6,473.0,0.5,53,63.51
3350,A5,473.0,0.5,53,63.51
3351,A4,473.0,0.25,45,63.51
3352,C#5,473.0,0.25,45,63.51
3353,E4,473.25,0.25,49,63.51
3354,B5,473.5,0.5,52,63.51
3355,G#5,473.5,0.5,52,63.51
3356,B4,473.5,0.25,44,63.51
3357,G#4,473.5,0.25,44,63.51
3358,E4,473.75,0.25,48,63.51
3359,E4,474.0,0.25,54,63.51
3360,A4,474.0,0.25,54,63.51
3361,A3,474.0,0.5,48,63.51
3362,A2,474.0,0.5,48,63.51
3363,C#4,474.25,0.25,50,63.51
3364,A5,474.5,0.5,54,63.51
3365,E4,474.5,0.25,45,63.51
3366,A4,474.5,0.25,45,63.51
3367,C#4,474.75,0.25,50,63.51
3368,E4,475.0,0.25,54,63.51
3369,A4,475.0,0.25,54,63.51
3370,A3,475.0,0.5,43,63.51
3371,A2,475.0,0.5,43,63.51
3372,C#4,475.25,0.25,50,63.51
3373,B4,475.5,0.25,55,63.51
3374,G#4,475.5,0.25,55,63.51
3375,E3,475.5,0.5,47,63.51
3376,E2,475.5,0.5,47,63.51
3377,E4,475.75,0.25,51,63.51
3378,B5,476.0,0.5,56,63.51
3379,G#4,476.0,0.25,47,63.51
3380,B4,476.0,0.25,47,63.51
3381,E4,476.25,0.25,51,63.51
3382,B4,476.5,0.25,50,63.51
3383,G#4,476.5,0.25,50,63.51
3384,E2,476.5,0.5,43,63.51
3385,E3,476.5,0.5,43,63.51
3386,E4,476.75,0.25,48,63.51
3387,C#5,477.0,0.25,46,63.51
3388,A4,477.0,0.25,46,63.51
3389,C#6,477.0,0.5,55,63.51
3390,A5,477.0,0.5,55,63.51
3391,E4,477.25,0.25,50,63.51
3392,D6,477.5,0.5,53,63.51
3393,B5,477.5,0.5,53,63.51
3394,D5,477.5,0.25,45,63.51
3395,B4,477.5,0.25,45,63.51
3396,E4,477.75,0.25,49,63.51
3397,C#6,478.0,0.5,52,63.51
3398,A5,478.0,0.5,52,63.51
3399,A4,478.0,0.25,44,63.51
3400,C#5,478.0,0.25,44,63.51
3401,E4,478.25,0.25,48,63.51
3402,G#4,478.5,0.25,44,63.51
3403,B4,478.5,0.25,44,63.51
3404,G#5,478.5,0.5,52,63.51
3405,B5,478.5,0.5,52,63.51
3406,E4,478.75,0.25,49,63.51
3407,E-5,479.0,0.25,56,63.51
3408,E4,479.0,0.25,48,63.51
3409,E5,479.25,0.25,53,63.51
3410,E-5,479.5,0.25,56,63.51
3411,E3,479.5,0.25,43,63.51
3412,E5,479.75,0.25,53,63.51
3413,A4,480.0,0.25,60,63.51
3414,C#5,480.0,0.25,60,63.51
3415,A2,480.0,0.5,72,63.51
3416,A3,480.0,0.5,72,63.51
3417,E4,480.25,0.25,60,63.51
3418,A5,480.5,0.5,62,63.51
3419,C#6,480.5,0.5,62,63.51
3420,C#5,480.5,0.25,52,63.51
3421,A4,480.5,0.25,52,63.51
3422,E4,480.75,0.25,58,63.51
3423,D5,481.0,0.25,54,63.51
3424,B4,481.0,0.25,54,63.51
3425,D6,481.0,0.5,64,63.51
3426,B5,481.0,0.5,64,63.51
3427,E4,481.25,0.25,60,63.51
3428,C#5,481.5,0.25,55,63.51
3429,E5,481.5,0.25,55,63.51
3430,C#6,481.5,0.5,66,63.51
3431,E6,481.5,0.5,66,63.51
3432,E4,481.75,0.25,60,63.51
3433,D6,482.0,0.5,64,63.51
3434,B5,482.0,0.5,64,63.51
3435,B4,482.0,0.25,54,63.51
3436,D5,482.0,0.25,54,63.51
3437,E4,482.25,0.25,58,63.51
3438,A5,482.5,0.5,62,63.51
3439,C#6,482.5,0.5,62,63.51
3440,C#5,482.5,0.25,52,63.51
3441,A4,482.5,0.25,52,63.51
3442,E4,482.75,0.25,57,63.51
3443,G#4,483.0,0.25,60,63.51
3444,B4,483.0,0.25,60,63.51
3445,E3,483.0,0.5,72,63.51
3446,E2,483.0,0.5,72,63.51
3447,E4,483.25,0.25,60,63.51
3448,B4,483.5,0.25,52,63.51
3449,G#4,483.5,0.25,52,63.51
3450,G#5,483.5,0.5,62,63.51
3451,B5,483.5,0.5,62,63.51
3452,E4,483.75,0.25,58,63.51
3453,A4,484.0,0.25,54,63.51
3454,C#5,484.0,0.25,54,63.51
3455,A5,484.0,0.5,64,63.51
3456,C#6,484.0,0.5,64,63.51
3457,E4,484.25,0.25,60,63.51
3458,B4,484.5,0.25,55,63.51
3459,D5,484.5,0.25,55,63.51
3460,B5,484.5,0.5,66,63.51
3461,D6,484.5,0.5,66,63.51
3462,E4,484.75,0.25,60,63.51
3463,C#5,485.0,0.25,54,63.51
3464,A4,485.0,0.25,54,63.51
3465,C#6,485.0,0.5,64,63.51
3466,A5,485.0,0.5,64,63.51
3467,E4,485.25,0.25,58,63.51
3468,B4,485.5,0.25,52,63.51
3469,G#4,485.5,0.25,52,63.51
3470,B5,485.5,0.5,62,63.51
3471,G#5,485.5,0.5,62,63.51
3472,E4,485.75,0.25,57,63.51
3473,A4,486.0,0.25,64,63.51
3474,E4,486.0,0.25,64,63.51
3475,A3,486.0,0.5,71,63.51
3476,A2,486.0,0.5,71,63.51
3477,C#4,486.25,0.25,60,63.51
3478,A5,486.5,0.5,64,63.51
3479,C#5,486.5,0.5,64,63.51
3480,E4,486.5,0.25,54,63.51
3481,A4,486.5,0.25,54,63.51
3482,C#4,486.75,0.25,60,63.51
3483,G#4,487.0,0.25,64,63.51
3484,B4,487.0,0.25,64,63.51
3485,E5,487.0,0.5,64,63.51
3486,B5,487.0,0.5,64,63.51
3487,E4,487.25,0.25,60,63.51
3488,A4,487.5,0.25,66,63.51
3489,C#5,487.5,0.25,66,63.51
3490,C#6,487.5,0.5,67,63.51
3491,A5,487.5,0.5,67,63.51
3492,E4,487.75,0.25,61,63.51
3493,C#5,488.0,0.25,56,63.51
3494,A4,488.0,0.25,56,63.51
3495,F#2,488.0,0.5,70,63.51
3496,F#3,488.0,0.5,70,63.51
3497,F#4,488.25,0.25,61,63.51
3498,B4,488.5,0.25,60,63.51
3499,D5,488.5,0.25,60,63.51
3500,D2,488.5,0.5,64,63.51
3501,D3,488.5,0.5,64,63.51
3502,F#4,488.75,0.25,57,63.51
3503,A4,489.0,0.25,60,63.51
3504,C#5,489.0,0.25,60,63.51
3505,E3,489.0,0.5,78,63.51
3506,E2,489.0,0.5,78,63.51
3507,E4,489.25,0.25,66,63.51
3508,C#6,489.5,0.5,55,63.51
3509,A5,489.5,0.5,55,63.51
3510,A4,489.5,0.25,47,63.51
3511,C#5,489.5,0.25,47,63.51
3512,E4,489.75,0.25,50,63.51
3513,G#5,490.0,0.5,54,63.51
3514,B5,490.0,0.5,54,63.51
3515,B4,490.0,0.25,45,63.51
3516,G#4,490.0,0.25,45,63.51
3517,E4,490.25,0.25,49,63.51
3518,A4,490.5,0.25,53,63.51
3519,A5,490.5,0.5,53,63.51
3520,E4,490.75,0.25,48,63.51
3521,C#4,491.0,0.25,50,63.51
3522,A3,491.0,0.25,49,63.51
3523,E4,491.25,0.25,41,63.51
3524,A4,491.5,0.25,48,63.51
3525,A2,491.5,0.25,44,63.51
3526,E5,492.0,0.75,54,63.51
3527,A3,492.0,0.25,42,63.51
3528,C#4,492.25,0.25,31,63.51
3529,E4,492.5,0.25,34,63.51
3530,F#5,492.75,0.125,54,63.51
3531,C#4,492.75,0.25,32,63.51
3532,E5,492.875,0.125,50,63.51
3533,D5,493.0,0.125,55,63.51
3534,E4,493.0,0.25,34,63.51
3535,C#5,493.125,0.125,54,63.51
3536,B4,493.25,0.125,53,63.51
3537,C#4,493.25,0.25,30,63.51
3538,A4,493.375,0.125,52,63.51
3539,F5,493.5,0.25,57,63.51
3540,A3,493.5,0.25,40,63.51
3541,F#5,493.75,119/500,54,63.51
3542,D4,493.75,0.25,30,63.51
3543,F#5,494.0,0.25,54,63.51
3544,F#4,494.0,0.25,33,63.51
3545,D4,494.25,0.25,31,63.51
3546,F#4,494.5,0.25,33,63.51
3547,D4,494.75,0.25,32,63.51
3548,A5,495.0,0.25,58,63.51
3549,A3,495.0,0.25,40,63.51
3550,G#5,495.25,0.25,55,63.51
3551,D4,495.25,0.25,31,63.51
3552,B5,495.5,0.25,58,63.51
3553,F#4,495.5,0.25,34,63.51
3554,A5,495.75,0.25,58,63.51
3555,D4,495.75,0.25,34,63.51
3556,G#5,496.0,0.25,59,63.51
3557,F#4,496.0,0.25,39,63.51
3558,F#5,496.25,0.25,60,63.51
3559,D4,496.25,0.25,33,63.51
3560,E-5,496.5,0.25,62,63.51
3561,A3,496.5,0.25,43,63.51
3562,E5,496.75,233/1000,57,63.51
3563,C#4,496.75,0.25,33,63.51
3564,E5,497.0,0.25,57,63.51
3565,E4,497.0,0.25,33,63.51
3566,C#4,497.25,0.25,31,63.51
3567,E4,497.5,0.25,33,63.51
3568,C#4,497.75,0.25,31,63.51
3569,E5,498.0,0.75,63,63.51
3570,A2,498.0,0.25,52,63.51
3571,C#3,498.0,0.25,52,63.51
3572,C#4,498.5,0.25,45,63.51
3573,A3,498.5,0.25,45,63.51
3574,F#5,498.75,0.125,55,63.51
3575,E5,498.875,0.125,50,63.51
3576,D5,499.0,0.125,58,63.51
3577,C#5,499.125,0.125,56,63.51
3578,B4,499.25,0.125,54,63.51
3579,A4,499.375,0.125,53,63.51
3580,E5,499.5,0.25,63,63.51
3581,B2,499.5,0.25,52,63.51
3582,D3,499.5,0.25,52,63.51
3583,D5,499.75,0.5,63,63.51
3584,B3,500.0,0.25,45,63.51
3585,D4,500.0,0.25,45,63.51
3586,F#5,500.25,0.125,55,63.51
3587,E5,500.375,0.125,50,63.51
3588,D5,500.5,0.125,58,63.51
3589,C#5,500.625,0.125,56,63.51
3590,B4,500.75,0.125,54,63.51
3591,A4,500.875,0.125,53,63.51
3592,A4,501.0,0.5,62,63.51
3593,C#4,501.0,0.5,40,63.51
3594,E4,501.0,0.5,40,63.51
3595,G#4,501.5,0.5,58,63.51
3596,D4,501.5,0.5,38,63.51
3597,B3,501.5,0.5,38,63.51
3598,E-4,502.0,0.5,54,63.51
3599,A4,502.0,0.5,54,63.51
3600,A3,502.0,0.5,40,63.51
3601,C#4,502.0,0.5,40,63.51
3602,E4,502.5,1.5,53,63.51
3603,E3,502.5,1.5,42,63.51
3604,A4,502.5,1.0,58,63.51
3605,C#5,502.5,1.0,58,63.51
3606,A3,502.5,1.0,46,63.51
3607,C#4,502.5,1.0,46,63.51
3608,B4,503.5,0.5,43,63.51
3609,G#4,503.5,0.5,43,63.51
3610,B3,503.5,0.5,35,63.51
3611,G#3,503.5,0.5,35,63.51
3612,C#5,504.0,0.25,49,63.51
3613,A4,504.0,0.25,49,63.51
3614,A3,504.0,0.5,60,63.51
3615,A2,504.0,0.5,60,63.51
3616,E4,504.25,0.25,49,63.51
3617,C#6,504.5,0.5,52,63.51
3618,A5,504.5,0.5,52,63.51
3619,C#5,504.5,0.25,43,63.51
3620,A4,504.5,0.25,43,63.51
3621,E4,504.75,0.25,48,63.51
3622,B5,505.0,0.5,52,63.51
3623,D6,505.0,0.5,52,63.51
3624,B4,505.0,0.25,44,63.51
3625,D5,505.0,0.25,44,63.51
3626,E4,505.25,0.25,49,63.51
3627,E5,505.5,0.25,45,63.51
3628,C#5,505.5,0.25,45,63.51
3629,C#6,505.5,0.5,54,63.51
3630,E6,505.5,0.5,54,63.51
3631,E4,505.75,0.25,49,63.51
3632,B5,506.0,0.5,52,63.51
3633,D6,506.0,0.5,52,63.51
3634,B4,506.0,0.25,44,63.51
3635,D5,506.0,0.25,44,63.51
3636,E4,506.25,0.25,48,63.51
3637,A5,506.5,0.5,52,63.51
3638,C#6,506.5,0.5,52,63.51
3639,A4,506.5,0.25,43,63.51
3640,C#5,506.5,0.25,43,63.51
3641,E4,506.75,0.25,47,63.51
3642,B4,507.0,0.25,49,63.51
3643,G#4,507.0,0.25,49,63.51
3644,E3,507.0,0.5,60,63.51
3645,E2,507.0,0.5,60,63.51
3646,E4,507.25,0.25,49,63.51
3647,B5,507.5,0.5,52,63.51
3648,G#5,507.5,0.5,52,63.51
3649,B4,507.5,0.25,43,63.51
3650,G#4,507.5,0.25,43,63.51
3651,E4,507.75,0.25,48,63.51
3652,A4,508.0,0.25,44,63.51
3653,C#5,508.0,0.25,44,63.51
3654,C#6,508.0,0.5,52,63.51
3655,A5,508.0,0.5,52,63.51
3656,E4,508.25,0.25,49,63.51
3657,D6,508.5,0.5,54,63.51
3658,B5,508.5,0.5,54,63.51
3659,B4,508.5,0.25,45,63.51
3660,D5,508.5,0.25,45,63.51
3661,E4,508.75,0.25,49,63.51
3662,C#5,509.0,0.25,44,63.51
3663,A4,509.0,0.25,44,63.51
3664,A5,509.0,0.5,52,63.51
3665,C#6,509.0,0.5,52,63.51
3666,E4,509.25,0.25,48,63.51
3667,G#4,509.5,0.25,43,63.51
3668,B4,509.5,0.25,43,63.51
3669,G#5,509.5,0.5,52,63.51
3670,B5,509.5,0.5,52,63.51
3671,E4,509.75,0.25,47,63.51
3672,A4,510.0,0.25,53,63.51
3673,E4,510.0,0.25,53,63.51
3674,A2,510.0,0.5,58,63.51
3675,A3,510.0,0.5,58,63.51
3676,C#4,510.25,0.25,49,63.51
3677,A5,510.5,0.5,53,63.51
3678,C#5,510.5,0.5,53,63.51
3679,A4,510.5,0.25,44,63.51
3680,E4,510.5,0.25,44,63.51
3681,C#4,510.75,0.25,49,63.51
3682,E5,511.0,0.5,53,63.51
3683,B5,511.0,0.5,53,63.51
3684,B4,511.0,0.25,53,63.51
3685,G#4,511.0,0.25,53,63.51
3686,E4,511.25,0.25,49,63.51
3687,C#5,511.5,0.25,54,63.51
3688,A4,511.5,0.25,54,63.51
3689,C#6,511.5,0.5,55,63.51
3690,A5,511.5,0.5,55,63.51
3691,E4,511.75,0.25,50,63.51
3692,C#5,512.0,0.25,46,63.51
3693,A4,512.0,0.25,46,63.51
3694,F#3,512.0,0.5,58,63.51
3695,F#2,512.0,0.5,58,63.51
3696,F#4,512.25,0.25,50,63.51
3697,B4,512.5,0.25,49,63.51
3698,D5,512.5,0.25,49,63.51
3699,D3,512.5,0.5,52,63.51
3700,D2,512.5,0.5,52,63.51
3701,F#4,512.75,0.25,47,63.51
3702,C#5,513.0,0.25,49,63.51
3703,A4,513.0,0.25,49,63.51
3704,E2,513.0,0.5,64,63.51
3705,E3,513.0,0.5,64,63.51
3706,E4,513.25,0.25,54,63.51
3707,C#6,513.5,0.5,45,63.51
3708,A5,513.5,0.5,45,63.51
3709,A4,513.5,0.25,39,63.51
3710,C#5,513.5,0.25,39,63.51
3711,E4,513.75,0.25,44,63.51
3712,G#4,514.0,0.25,37,63.51
3713,B4,514.0,0.25,37,63.51
3714,G#5,514.0,0.5,44,63.51
3715,B5,514.0,0.5,44,63.51
3716,E4,514.25,0.25,40,63.51
3717,B5,514.5,0.5,49,63.51
3718,G#5,514.5,1.0,49,63.51
3719,B4,514.5,0.25,44,63.51
3720,G#4,514.5,0.25,44,63.51
3721,E4,514.75,0.25,46,63.51
3722,C6,515.0,0.5,49,63.51
3723,G#4,515.0,0.25,42,63.51
3724,C5,515.0,0.25,42,63.51
3725,E4,515.25,0.25,45,63.51
3726,C#6,515.5,0.5,49,63.51
3727,A5,515.5,0.5,49,63.51
3728,A4,515.5,0.25,42,63.51
3729,C#5,515.5,0.25,42,63.51
3730,E4,515.727,0.25,42,63.51
3731,C#5,516.0,0.25,60,63.51
3732,A4,516.0,0.25,60,63.51
3733,A2,516.0,0.5,66,63.51
3734,A3,516.0,0.5,66,63.51
3735,E4,516.25,0.25,56,63.51
3736,C#5,516.5,0.25,50,63.51
3737,A4,516.5,0.25,50,63.51
3738,C#6,516.5,0.5,60,63.51
3739,A5,516.5,0.5,60,63.51
3740,E4,516.75,0.25,56,63.51
3741,B4,517.0,0.25,60,63.51
3742,D5,517.0,0.25,60,63.51
3743,B5,517.0,0.5,60,63.51
3744,D6,517.0,0.5,60,63.51
3745,E4,517.25,0.25,56,63.51
3746,E6,517.5,0.5,63,63.51
3747,C#6,517.5,0.5,63,63.51
3748,C#5,517.5,0.25,62,63.51
3749,E5,517.5,0.25,62,63.51
3750,A4,517.75,0.25,57,63.51
3751,E5,518.0,0.25,52,63.51
3752,C#5,518.0,0.25,52,63.51
3753,A2,518.0,0.5,66,63.51
3754,A3,518.0,0.5,66,63.51
3755,A4,518.25,0.25,57,63.51
3756,F#5,518.5,0.25,56,63.51
3757,D5,518.5,0.25,56,63.51
3758,D2,518.5,0.5,60,63.51
3759,D3,518.5,0.5,60,63.51
3760,A4,518.75,0.25,54,63.51
3761,C#5,519.0,0.25,56,63.51
3762,A4,519.0,0.25,56,63.51
3763,E3,519.0,0.5,72,63.51
3764,E2,519.0,0.5,72,63.51
3765,E4,519.25,0.25,62,63.51
3766,A4,519.5,0.25,55,63.51
3767,C#5,519.5,0.25,55,63.51
3768,C#6,519.5,0.5,65,63.51
3769,A5,519.5,0.5,65,63.51
3770,E4,519.75,0.25,59,63.51
3771,G#4,520.0,0.25,54,63.51
3772,B4,520.0,0.25,54,63.51
3773,G#5,520.0,0.5,64,63.51
3774,B5,520.0,0.5,64,63.51
3775,E4,520.25,0.25,58,63.51
3776,A4,520.5,0.25,63,63.51
3777,A5,520.5,0.5,63,63.51
3778,E4,520.75,0.25,56,63.51
3779,C#4,521.0,0.25,59,63.51
3780,A3,521.0,0.25,58,63.51
3781,E4,521.25,0.25,49,63.51
3782,A4,521.5,0.25,57,63.51
3783,A2,521.5,0.25,52,63.51
3784,E5,522.0,0.75,54,63.51
3785,A3,522.0,0.25,42,63.51
3786,C#4,522.25,0.25,31,63.51
3787,E4,522.5,0.25,34,63.51
3788,F#5,522.75,0.125,54,63.51
3789,C#4,522.75,0.25,32,63.51
3790,E5,522.875,0.125,50,63.51
3791,D5,523.0,0.125,55,63.51
3792,E4,523.0,0.25,34,63.51
3793,C#5,523.125,0.125,54,63.51
3794,B4,523.25,0.125,53,63.51
3795,C#4,523.25,0.25,30,63.51
3796,A4,523.375,0.125,52,63.51
3797,F5,523.5,0.25,57,63.51
3798,A3,523.5,0.25,40,63.51
3799,F#5,523.75,231/1000,54,63.51
3800,D4,523.75,0.25,30,63.51
3801,F#5,524.0,0.25,54,63.51
3802,F#4,524.0,0.25,33,63.51
3803,D4,524.25,0.25,31,63.51
3804,F#4,524.5,0.25,33,63.51
3805,D4,524.75,0.25,32,63.51
3806,A5,525.0,0.25,58,63.51
3807,A3,525.0,0.25,40,63.51
3808,G#5,525.25,0.25,55,63.51
3809,D4,525.25,0.25,31,63.51
3810,B5,525.5,0.25,58,63.51
3811,F#4,525.5,0.25,34,63.51
3812,A5,525.75,0.25,58,63.51
3813,D4,525.75,0.25,34,63.51
3814,G#5,526.0,0.25,59,63.51
3815,F#4,526.0,0.25,39,63.51
3816,F#5,526.25,0.25,60,63.51
3817,D4,526.25,0.25,33,63.51
3818,E-5,526.5,0.25,62,63.51
3819,A3,526.5,0.25,43,63.51
3820,E5,526.75,233/1000,57,63.51
3821,C#4,526.75,0.25,33,63.51
3822,E5,527.0,0.25,57,63.51
3823,E4,527.0,0.25,33,63.51
3824,C#4,527.25,0.25,31,63.51
3825,E4,527.5,0.25,33,63.51
3826,C#4,527.75,0.25,31,63.51
3827,E5,528.0,0.75,63,63.51
3828,C#3,528.0,0.25,52,63.51
3829,A2,528.0,0.25,52,63.51
3830,C#4,528.5,0.25,45,63.51
3831,A3,528.5,0.25,45,63.51
3832,F#5,528.75,0.125,55,63.51
3833,E5,528.875,0.125,50,63.51
3834,D5,529.0,0.125,58,63.51
3835,C#5,529.125,0.125,56,63.51
3836,B4,529.25,0.125,54,63.51
3837,A4,529.375,0.125,53,63.51
3838,E5,529.5,0.25,63,63.51
3839,D3,529.5,0.25,52,63.51
3840,B2,529.5,0.25,52,63.51
3841,D5,529.75,0.5,63,63.51
3842,D4,530.0,0.25,45,63.51
3843,B3,530.0,0.25,45,63.51
3844,F#5,530.25,0.125,55,63.51
3845,E5,530.375,0.125,50,63.51
3846,D5,530.5,0.125,58,63.51
3847,C#5,530.625,0.125,56,63.51
3848,B4,530.75,0.125,54,63.51
3849,A4,530.875,0.125,53,63.51
3850,A4,531.0,0.5,62,63.51
3851,C#4,531.0,0.5,40,63.51
3852,E4,531.0,0.5,40,63.51
3853,G#4,531.5,0.5,58,63.51
3854,B3,531.5,0.5,38,63.51
3855,D4,531.5,0.5,38,63.51
3856,E-4,532.0,0.5,54,63.51
3857,A4,532.0,0.5,54,63.51
3858,C#4,532.0,0.5,40,63.51
3859,A3,532.0,0.5,40,63.51
3860,E4,532.5,1.5,53,63.51
3861,E3,532.5,1.5,42,63.51
3862,C#5,532.5,1.0,58,63.51
3863,A4,532.5,1.0,58,63.51
3864,C#4,532.5,1.0,46,63.51
3865,A3,532.5,1.0,46,63.51
3866,B4,533.5,0.5,43,63.51
3867,G#4,533.5,0.5,43,63.51
3868,B3,533.5,0.5,35,63.51
3869,G#3,533.5,0.5,35,63.51
3870,C#5,534.0,0.25,49,63.51
3871,A4,534.0,0.25,49,63.51
3872,A3,534.0,0.5,60,63.51
3873,A2,534.0,0.5,60,63.51
3874,E4,534.25,0.25,49,63.51
3875,C#6,534.5,0.5,52,63.51
3876,A5,534.5,0.5,52,63.51
3877,C#5,534.5,0.25,43,63.51
3878,A4,534.5,0.25,43,63.51
3879,E4,534.75,0.25,48,63.51
3880,D6,535.0,0.5,52,63.51
3881,B5,535.0,0.5,52,63.51
3882,D5,535.0,0.25,44,63.51
3883,B4,535.0,0.25,44,63.51
3884,E4,535.25,0.25,49,63.51
3885,E6,535.5,0.5,54,63.51
3886,C#6,535.5,0.5,54,63.51
3887,E5,535.5,0.25,45,63.51
3888,C#5,535.5,0.25,45,63.51
3889,E4,535.75,0.25,49,63.51
3890,D5,536.0,0.25,44,63.51
3891,B4,536.0,0.25,44,63.51
3892,B5,536.0,0.5,52,63.51
3893,D6,536.0,0.5,52,63.51
3894,E4,536.25,0.25,48,63.51
3895,C#5,536.5,0.25,43,63.51
3896,A4,536.5,0.25,43,63.51
3897,C#6,536.5,0.5,52,63.51
3898,A5,536.5,0.5,52,63.51
3899,E4,536.75,0.25,47,63.51
3900,G#4,537.0,0.25,49,63.51
3901,B4,537.0,0.25,49,63.51
3902,E2,537.0,0.5,60,63.51
3903,E3,537.0,0.5,60,63.51
3904,E4,537.25,0.25,49,63.51
3905,B5,537.5,0.5,52,63.51
3906,G#5,537.5,0.5,52,63.51
3907,G#4,537.5,0.25,43,63.51
3908,B4,537.5,0.25,43,63.51
3909,E4,537.75,0.25,48,63.51
3910,A4,538.0,0.25,44,63.51
3911,C#5,538.0,0.25,44,63.51
3912,A5,538.0,0.5,52,63.51
3913,C#6,538.0,0.5,52,63.51
3914,E4,538.25,0.25,49,63.51
3915,B5,538.5,0.5,54,63.51
3916,D6,538.5,0.5,54,63.51
3917,D5,538.5,0.25,45,63.51
3918,B4,538.5,0.25,45,63.51
3919,E4,538.75,0.25,49,63.51
3920,C#6,539.0,0.5,52,63.51
3921,A5,539.0,0.5,52,63.51
3922,A4,539.0,0.25,44,63.51
3923,C#5,539.0,0.25,44,63.51
3924,E4,539.25,0.25,48,63.51
3925,G#5,539.5,0.5,52,63.51
3926,B5,539.5,0.5,52,63.51
3927,B4,539.5,0.25,43,63.51
3928,G#4,539.5,0.25,43,63.51
3929,E4,539.75,0.25,47,63.51
3930,E4,540.0,0.25,53,63.51
3931,A4,540.0,0.25,53,63.51
3932,A3,540.0,0.5,58,63.51
3933,A2,540.0,0.5,58,63.51
3934,C#4,540.25,0.25,49,63.51
3935,A4,540.5,0.25,44,63.51
3936,E4,540.5,0.25,44,63.51
3937,A5,540.5,0.5,53,63.51
3938,C#5,540.5,0.5,53,63.51
3939,C#4,540.75,0.25,49,63.51
3940,G#4,541.0,0.25,53,63.51
3941,B4,541.0,0.25,53,63.51
3942,E5,541.0,0.5,53,63.51
3943,B5,541.0,0.5,53,63.51
3944,E4,541.25,0.25,49,63.51
3945,A4,541.5,0.25,54,63.51
3946,C#5,541.5,0.25,54,63.51
3947,C#6,541.5,0.5,55,63.51
3948,A5,541.5,0.5,55,63.51
3949,E4,541.75,0.25,50,63.51
3950,A4,542.0,0.25,46,63.51
3951,C#5,542.0,0.25,46,63.51
3952,F#2,542.0,0.5,58,63.51
3953,F#3,542.0,0.5,58,63.51
3954,F#4,542.25,0.25,50,63.51
3955,B4,542.5,0.25,49,63.51
3956,D5,542.5,0.25,49,63.51
3957,D2,542.5,0.5,52,63.51
3958,D3,542.5,0.5,52,63.51
3959,F#4,542.75,0.25,47,63.51
3960,C#5,543.0,0.25,49,63.51
3961,A4,543.0,0.25,49,63.51
3962,E3,543.0,0.5,64,63.51
3963,E2,543.0,0.5,64,63.51
3964,E4,543.25,0.25,54,63.51
3965,A5,543.5,0.5,45,63.51
3966,C#6,543.5,0.5,45,63.51
3967,A4,543.5,0.25,39,63.51
3968,C#5,543.5,0.25,39,63.51
3969,E4,543.75,0.25,44,63.51
3970,G#5,544.0,0.5,44,63.51
3971,B5,544.0,0.5,44,63.51
3972,B4,544.0,0.25,37,63.51
3973,G#4,544.0,0.25,37,63.51
3974,E4,544.25,0.25,40,63.51
3975,B5,544.5,0.5,49,63.51
3976,G#5,544.5,1.0,49,63.51
3977,G#4,544.5,0.25,44,63.51
3978,B4,544.5,0.25,44,63.51
3979,E4,544.75,0.25,46,63.51
3980,C6,545.0,0.5,49,63.51
3981,G#4,545.0,0.25,42,63.51
3982,C5,545.0,0.25,42,63.51
3983,E4,545.25,0.25,45,63.51
3984,C#5,545.5,0.25,42,63.51
3985,A4,545.5,0.25,42,63.51
3986,C#6,545.5,0.5,49,63.51
3987,A5,545.5,0.5,49,63.51
3988,E4,545.727,0.25,42,63.51
3989,C#5,546.0,0.25,60,63.51
3990,A4,546.0,0.25,60,63.51
3991,A2,546.0,0.5,66,63.51
3992,A3,546.0,0.5,66,63.51
3993,E4,546.25,0.25,56,63.51
3994,C#6,546.5,0.5,60,63.51
3995,A5,546.5,0.5,60,63.51
3996,C#5,546.5,0.25,50,63.51
3997,A4,546.5,0.25,50,63.51
3998,E4,546.75,0.25,56,63.51
3999,D6,547.0,0.5,60,63.51
4000,B5,547.0,0.5,60,63.51
4001,D5,547.0,0.25,60,63.51
4002,B4,547.0,0.25,60,63.51
4003,E4,547.25,0.25,56,63.51
4004,E6,547.5,0.5,63,63.51
4005,C#6,547.5,0.5,63,63.51
4006,E5,547.5,0.25,62,63.51
4007,C#5,547.5,0.25,62,63.51
4008,A4,547.75,0.25,57,63.51
4009,C#5,548.0,0.25,52,63.51
4010,E5,548.0,0.25,52,63.51
4011,A2,548.0,0.5,66,63.51
4012,A3,548.0,0.5,66,63.51
4013,A4,548.25,0.25,57,63.51
4014,D5,548.5,0.25,56,63.51
4015,F#5,548.5,0.25,56,63.51
4016,D3,548.5,0.5,60,63.51
4017,D2,548.5,0.5,60,63.51
4018,A4,548.75,0.25,54,63.51
4019,C#5,549.0,0.25,56,63.51
4020,A4,549.0,0.25,56,63.51
4021,E3,549.0,0.5,72,63.51
4022,E2,549.0,0.5,72,63.51
4023,E4,549.25,0.25,62,63.51
4024,C#6,549.5,0.5,65,63.51
4025,A5,549.5,0.5,65,63.51
4026,A4,549.5,0.25,55,63.51
4027,C#5,549.5,0.25,55,63.51
4028,E4,549.75,0.25,59,63.51
4029,B4,550.0,0.25,54,63.51
4030,G#4,550.0,0.25,54,63.51
4031,G#5,550.0,0.5,64,63.51
4032,B5,550.0,0.5,64,63.51
4033,E4,550.25,0.25,58,63.51
4034,A4,550.5,0.25,63,63.51
4035,A5,550.5,0.5,63,63.51
4036,E4,550.75,0.25,56,63.51
4037,C#4,551.0,0.25,59,63.51
4038,A3,551.0,0.25,58,63.51
4039,E4,551.25,0.25,49,63.51
4040,A4,551.5,0.25,57,63.51
4041,A2,551.5,0.25,52,63.51
4042,C#5,555.0,1.0,50,63.51
4043,A3,555.0,0.25,43,63.51
4044,E4,555.25,0.25,26,63.51
4045,C#4,555.5,0.25,30,63.51
4046,E4,555.75,0.25,21,63.51
4047,C#5,556.0,1.5,50,63.51
4048,A3,556.0,0.25,36,63.51
4049,E4,556.25,0.25,29,63.51
4050,C#4,556.5,0.25,30,63.51
4051,E4,556.75,0.25,28,63.51
4052,A3,557.0,0.25,38,63.51
4053,E4,557.25,0.25,31,63.51
4054,D5,557.5,0.5,53,63.51
4055,B3,557.5,0.25,33,63.51
4056,E4,557.75,0.25,35,63.51
4057,F#5,558.0,0.5,56,63.51
4058,C#4,558.0,0.25,41,63.51
4059,E4,558.25,0.25,30,63.51
4060,E5,558.5,0.5,50,63.51
4061,A3,558.5,0.25,30,63.51
4062,E4,558.75,0.25,30,63.51
4063,C#4,559.0,0.25,36,63.51
4064,E4,559.25,0.25,25,63.51
4065,E5,559.5,0.5,50,63.51
4066,A3,559.5,0.25,29,63.51
4067,E4,559.75,0.25,27,63.51
4068,F#5,560.0,0.25,54,63.51
4069,C#4,560.0,0.25,36,63.51
4070,E5,560.25,0.25,50,63.51
4071,E4,560.25,0.25,30,63.51
4072,D5,560.5,0.25,50,63.51
4073,A3,560.5,0.25,30,63.51
4074,C#5,560.75,231/1000,50,63.51
4075,E4,560.75,0.25,24,63.51
4076,C#5,561.0,0.5,54,63.51
4077,G#3,561.0,0.25,38,63.51
4078,E4,561.25,0.25,23,63.51
4079,B4,561.5,61/125,50,63.51
4080,E-4,561.5,0.25,25,63.51
4081,E4,561.75,0.25,23,63.51
4082,B4,562.0,1.5,50,63.51
4083,G#3,562.0,0.25,36,63.51
4084,E4,562.25,0.25,25,63.51
4085,E-4,562.5,0.25,28,63.51
4086,E4,562.75,0.25,25,63.51
4087,G#3,563.0,0.25,41,63.51
4088,E4,563.25,0.25,29,63.51
4089,C#5,563.5,0.5,54,63.51
4090,A3,563.5,0.25,32,63.51
4091,E4,563.75,0.25,29,63.51
4092,E5,564.0,0.5,57,63.51
4093,B-3,564.0,0.25,40,63.51
4094,E4,564.25,0.25,28,63.51
4095,D5,564.5,0.5,53,63.51
4096,E-4,564.5,0.25,31,63.51
4097,E4,564.75,0.25,29,63.51
4098,B3,565.0,0.25,36,63.51
4099,E4,565.25,0.25,25,63.51
4100,D5,565.5,0.5,50,63.51
4101,E-4,565.5,0.25,29,63.51
4102,E4,565.75,0.25,26,63.51
4103,E5,566.0,0.25,56,63.51
4104,G#3,566.0,0.25,36,63.51
4105,D5,566.25,0.25,50,63.51
4106,E4,566.25,0.25,28,63.51
4107,C#5,566.5,0.25,50,63.51
4108,E3,566.5,0.25,30,63.51
4109,B4,566.75,233/1000,50,63.51
4110,E4,566.75,0.25,28,63.51
4111,B4,567.0,0.5,57,63.51
4112,F#3,567.0,0.25,38,63.51
4113,E4,567.25,0.25,28,63.51
4114,A4,567.5,0.5,53,63.51
4115,E-4,567.5,0.25,30,63.51
4116,E4,567.75,0.25,26,63.51
4117,F#3,568.0,1.0,40,63.51
4118,A4,568.25,0.25,53,63.51
4119,G#4,568.5,0.25,56,63.51
4120,A4,568.75,0.25,53,63.51
4121,B4,569.0,0.25,58,63.51
4122,A4,569.25,0.25,55,63.51
4123,D5,569.5,0.25,62,63.51
4124,C#5,569.75,0.25,58,63.51
4125,B-4,570.0,0.5,63,63.51
4126,G#3,570.0,0.25,43,63.51
4127,E4,570.25,0.25,34,63.51
4128,B4,570.5,0.5,58,63.51
4129,E-4,570.5,0.25,34,63.51
4130,E4,570.75,0.25,34,63.51
4131,G#3,571.0,1.0,47,63.51
4132,B4,571.25,0.25,49,63.51
4133,B-4,571.5,0.25,53,63.51
4134,B4,571.75,0.25,49,63.51
4135,C#5,572.0,0.25,53,63.51
4136,B4,572.25,0.25,49,63.51
4137,E5,572.5,0.25,53,63.51
4138,D5,572.75,0.25,49,63.51
4139,D5,573.0,0.25,53,63.51
4140,E4,573.0,1.0,43,63.51
4141,A3,573.0,1.0,43,63.51
4142,C#5,573.25,0.25,45,63.51
4143,C5,573.5,0.25,49,63.51
4144,C#5,573.75,0.25,46,63.51
4145,D5,574.0,0.25,55,63.51
4146,F#3,574.0,1.0,44,63.51
4147,A3,574.0,1.0,44,63.51
4148,C#5,574.25,0.25,46,63.51
4149,C5,574.5,0.25,50,63.51
4150,C#5,574.75,0.25,47,63.51
4151,E5,575.0,0.25,59,63.51
4152,D3,575.0,1.0,47,63.51
4153,B3,575.0,1.0,47,63.51
4154,D5,575.25,0.25,51,63.51
4155,C#5,575.5,0.25,53,63.51
4156,D5,575.75,0.25,51,63.51
4157,C#5,576.0,0.25,62,63.51
4158,G#3,576.0,1.0,48,63.51
4159,E3,576.0,1.0,48,63.51
4160,B4,576.25,0.25,52,63.51
4161,B-4,576.5,0.25,53,63.51
4162,B4,576.75,0.25,49,63.51
4163,A4,577.0,0.25,63,63.51
4164,G#4,577.25,0.25,50,63.51
4165,G4,577.5,0.25,54,63.51
4166,G#4,577.75,0.25,51,63.51
4167,F#4,578.0,0.25,64,63.51
4168,E4,578.25,0.25,54,63.51
4169,E-4,578.5,0.25,56,63.51
4170,E4,578.75,0.25,54,63.51
4171,A2,579.0,0.25,64,63.51
4172,C#5,579.0,0.5,71,63.51
4173,A4,579.0,0.5,71,63.51
4174,A3,579.25,0.188,48,63.51
4175,A3,579.5,0.188,51,63.51
4176,A4,579.5,1.0,65,63.51
4177,C#5,579.5,1.0,65,63.51
4178,A3,579.75,0.188,49,63.51
4179,A3,580.0,0.188,50,63.51
4180,A3,580.25,0.188,35,63.51
4181,A3,580.5,0.188,38,63.51
4182,C#5,580.5,0.5,50,63.51
4183,B-4,580.5,0.5,50,63.51
4184,A3,580.75,0.188,37,63.51
4185,A3,581.0,0.188,42,63.51
4186,D5,581.0,0.5,50,63.51
4187,B4,581.0,0.5,50,63.51
4188,A3,581.25,0.188,37,63.51
4189,A3,581.5,0.188,40,63.51
4190,C5,581.5,0.5,50,63.51
4191,E-5,581.5,0.5,50,63.51
4192,A3,581.75,0.188,37,63.51
4193,A3,582.0,1.0,47,63.51
4194,C#5,582.0,0.25,53,63.51
4195,E5,582.0,0.25,53,63.51
4196,A4,582.25,131/1000,49,63.51
4197,B4,582.5,131/1000,50,63.51
4198,C#5,582.75,131/1000,51,63.51
4199,D5,583.0,131/1000,52,63.51
4200,E5,583.25,131/1000,53,63.51
4201,F#5,583.5,131/1000,54,63.51
4202,G#5,583.75,131/1000,55,63.51
4203,A5,584.0,0.25,56,63.51
4204,B5,584.25,0.25,57,63.51
4205,C#6,584.5,0.25,58,63.51
4206,E2,585.0,0.25,64,63.51
4207,A4,585.0,0.25,71,63.51
4208,C#5,585.0,0.25,71,63.51
4209,E3,585.25,0.188,46,63.51
4210,B4,585.25,9/40,62,63.51
4211,G#4,585.25,9/40,62,63.51
4212,E3,585.5,0.188,51,63.51
4213,G#4,585.5,1.0,65,63.51
4214,B4,585.5,1.0,65,63.51
4215,E3,585.75,0.188,47,63.51
4216,E3,586.0,0.188,50,63.51
4217,E3,586.25,0.188,36,63.51
4218,E3,586.5,0.188,40,63.51
4219,B4,586.5,0.5,50,63.51
4220,G#4,586.5,0.5,50,63.51
4221,E3,586.75,0.188,36,63.51
4222,E3,587.0,0.188,42,63.51
4223,A4,587.0,0.5,50,63.51
4224,C5,587.0,0.5,50,63.51
4225,E3,587.25,0.188,35,63.51
4226,E3,587.5,0.188,38,63.51
4227,C#5,587.5,0.5,50,63.51
4228,B-4,587.5,0.5,50,63.51
4229,E3,587.75,0.188,38,63.51
4230,E3,588.0,1.0,47,63.51
4231,B4,588.0,0.25,53,63.51
4232,D5,588.0,0.25,53,63.51
4233,B4,588.25,131/1000,49,63.51
4234,C#5,588.5,131/1000,50,63.51
4235,D5,588.75,131/1000,51,63.51
4236,E5,589.0,131/1000,52,63.51
4237,F#5,589.25,131/1000,53,63.51
4238,G#5,589.5,131/1000,54,63.51
4239,A5,589.75,131/1000,55,63.51
4240,B5,590.0,0.25,56,63.51
4241,C#6,590.25,0.25,57,63.51
4242,D6,590.5,0.25,58,63.51
4243,B4,591.0,0.25,57,63.51
4244,A4,591.25,9/40,53,63.51
4245,A4,591.5,0.75,53,63.51
4246,E4,592.0,1.0,40,63.51
4247,F#3,592.0,1.0,40,63.51
4248,A4,592.25,0.25,53,63.51
4249,D5,592.5,0.25,56,63.51
4250,C#5,592.75,0.25,53,63.51
4251,B-4,593.0,0.25,55,63.51
4252,G#3,593.0,1.0,40,63.51
4253,E4,593.0,1.0,40,63.51
4254,B4,593.25,0.25,52,63.51
4255,E5,593.5,0.25,52,63.51
4256,D5,593.75,0.25,53,63.51
4257,C5,594.0,0.25,58,63.51
4258,A3,594.0,1.0,40,63.51
4259,E4,594.0,1.0,40,63.51
4260,C#5,594.25,0.25,53,63.51
4261,A5,594.5,0.188,54,63.51
4262,A5,594.75,0.188,55,63.51
4263,A5,595.0,0.188,57,63.51
4264,A5,595.25,0.188,55,63.51
4265,A5,595.5,0.188,55,63.51
4266,A5,595.75,0.188,55,63.51
4267,A5,596.0,0.25,58,63.51
4268,B3,596.0,1.0,42,63.51
4269,D3,596.0,1.0,42,63.51
4270,F#3,596.0,1.0,42,63.51
4271,F#5,596.25,0.25,52,63.51
4272,D5,596.5,0.25,54,63.51
4273,B4,596.75,0.25,52,63.51
4274,E5,597.0,0.25,59,63.51
4275,E3,597.0,3.0,39,63.51
4276,A3,597.0,2.0,43,63.51
4277,C#4,597.0,2.0,43,63.51
4278,F#5,597.25,83/1000,54,63.51
4279,E5,597.333,83/1000,54,63.51
4280,E-5,597.417,83/1000,54,63.51
4281,E5,597.5,0.25,59,63.51
4282,F#5,597.75,0.25,56,63.51
4283,A4,598.0,1.5,58,63.51
4284,D4,599.0,1.0,35,63.51
4285,B3,599.0,1.0,35,63.51
4286,G#4,599.5,0.5,53,63.51
4287,C#5,599.5,0.25,53,63.51
4288,B4,599.75,0.25,50,63.51
4289,E4,600.0,2.0,45,63.51
4290,A3,600.0,2.0,28,63.51
4291,D4,600.0,1.0,34,63.51
4292,B4,600.0,1.0,49,63.51
4293,G#4,600.0,1.0,49,63.51
4294,A4,601.0,0.5,44,63.51
4295,C#4,601.0,1.0,30,63.51
4296,E4,601.875,0.125,43,63.51
4297,F#4,602.0,0.125,46,63.51
4298,A4,602.125,0.125,42,63.51
4299,G#4,602.25,0.125,46,63.51
4300,B4,602.375,0.125,44,63.51
4301,A4,602.5,0.125,44,63.51
4302,C#5,602.625,0.125,40,63.51
4303,B4,602.75,0.125,44,63.51
4304,D5,602.875,0.125,41,63.51
4305,C#5,603.0,1.0,50,63.51
4306,A3,603.0,0.25,43,63.51
4307,E4,603.25,0.25,26,63.51
4308,C#4,603.5,0.25,30,63.51
4309,E4,603.75,0.25,25,63.51
4310,C#5,604.0,1.5,50,63.51
4311,A3,604.0,0.25,42,63.51
4312,E4,604.25,0.25,29,63.51
4313,C#4,604.5,0.25,32,63.51
4314,E4,604.75,0.25,29,63.51
4315,A3,605.0,0.25,43,63.51
4316,E4,605.25,0.25,31,63.51
4317,D5,605.5,0.5,53,63.51
4318,B3,605.5,0.25,33,63.51
4319,E4,605.75,0.25,30,63.51
4320,F#5,606.0,0.5,56,63.51
4321,C#4,606.0,0.25,42,63.51
4322,E4,606.25,0.25,29,63.51
4323,E5,606.5,0.5,50,63.51
4324,A3,606.5,0.25,31,63.51
4325,E4,606.75,0.25,28,63.51
4326,C#4,607.0,0.25,36,63.51
4327,E4,607.25,0.25,26,63.51
4328,E5,607.5,0.5,50,63.51
4329,A3,607.5,0.25,29,63.51
4330,E4,607.75,0.25,26,63.51
4331,F#5,608.0,0.25,54,63.51
4332,C#4,608.0,0.25,36,63.51
4333,E5,608.25,0.25,50,63.51
4334,E4,608.25,0.25,28,63.51
4335,D5,608.5,0.25,50,63.51
4336,A3,608.5,0.25,30,63.51
4337,C#5,608.75,9/40,50,63.51
4338,E4,608.75,0.25,26,63.51
4339,C#5,609.0,0.5,54,63.51
4340,G#3,609.0,0.25,38,63.51
4341,E4,609.25,0.25,22,63.51
4342,B4,609.5,483/1000,50,63.51
4343,E-4,609.5,0.25,27,63.51
4344,E4,609.75,0.25,23,63.51
4345,B4,610.0,1.5,50,63.51
4346,G#3,610.0,0.25,36,63.51
4347,E4,610.25,0.25,26,63.51
4348,E-4,610.5,0.25,30,63.51
4349,E4,610.75,0.25,29,63.51
4350,G#3,611.0,0.25,39,63.51
4351,E4,611.25,0.25,31,63.51
4352,C#5,611.5,0.5,54,63.51
4353,A3,611.5,0.25,33,63.51
4354,E4,611.75,0.25,38,63.51
4355,E5,612.0,0.5,57,63.51
4356,B-3,612.0,0.25,42,63.51
4357,E4,612.25,0.25,28,63.51
4358,D5,612.5,0.5,53,63.51
4359,E-4,612.5,0.25,31,63.51
4360,E4,612.75,0.25,28,63.51
4361,B3,613.0,0.25,36,63.51
4362,E4,613.25,0.25,27,63.51
4363,D5,613.5,0.5,50,63.51
4364,E-4,613.5,0.25,29,63.51
4365,E4,613.75,0.25,27,63.51
4366,E5,614.0,0.25,56,63.51
4367,G#3,614.0,0.25,36,63.51
4368,D5,614.25,0.25,50,63.51
4369,E4,614.25,0.25,28,63.51
4370,C#5,614.5,0.25,50,63.51
4371,E3,614.5,0.25,30,63.51
4372,B4,614.75,9/40,50,63.51
4373,E4,614.75,0.25,28,63.51
4374,B4,615.0,0.5,57,63.51
4375,F#3,615.0,0.25,38,63.51
4376,E4,615.25,0.25,29,63.51
4377,A4,615.5,0.5,53,63.51
4378,E-4,615.5,0.25,30,63.51
4379,E4,615.75,0.25,28,63.51
4380,F#3,616.0,1.0,40,63.51
4381,A4,616.25,0.25,53,63.51
4382,G#4,616.5,0.25,56,63.51
4383,A4,616.75,0.25,53,63.51
4384,B4,617.0,0.25,58,63.51
4385,A4,617.25,0.25,55,63.51
4386,D5,617.5,0.25,62,63.51
4387,C#5,617.75,0.25,58,63.51
4388,B-4,618.0,0.5,63,63.51
4389,G#3,618.0,0.25,43,63.51
4390,E4,618.25,0.25,32,63.51
4391,B4,618.5,0.5,58,63.51
4392,E-4,618.5,0.25,34,63.51
4393,E4,618.75,0.25,30,63.51
4394,G#3,619.0,1.0,47,63.51
4395,B4,619.25,0.25,49,63.51
4396,B-4,619.5,0.25,53,63.51
4397,B4,619.75,0.25,49,63.51
4398,C#5,620.0,0.25,53,63.51
4399,B4,620.25,0.25,49,63.51
4400,E5,620.5,0.25,53,63.51
4401,D5,620.75,9/40,49,63.51
4402,D5,621.0,0.25,53,63.51
4403,A3,621.0,1.0,38,63.51
4404,E4,621.0,1.0,38,63.51
4405,C#5,621.25,0.25,49,63.51
4406,C5,621.5,0.25,49,63.51
4407,C#5,621.75,0.25,49,63.51
4408,D5,622.0,0.25,55,63.51
4409,A3,622.0,1.0,40,63.51
4410,F#3,622.0,1.0,40,63.51
4411,C#5,622.25,0.25,50,63.51
4412,C5,622.5,0.25,50,63.51
4413,C#5,622.75,0.25,50,63.51
4414,E5,623.0,0.25,59,63.51
4415,B3,623.0,1.0,42,63.51
4416,D3,623.0,1.0,42,63.51
4417,D5,623.25,0.25,53,63.51
4418,C#5,623.5,0.25,53,63.51
4419,D5,623.75,0.25,53,63.51
4420,C#5,624.0,0.25,62,63.51
4421,E3,624.0,1.0,42,63.51
4422,G#3,624.0,1.0,42,63.51
4423,B4,624.25,0.25,53,63.51
4424,B-4,624.5,0.25,53,63.51
4425,B4,624.75,0.25,53,63.51
4426,A4,625.0,0.25,63,63.51
4427,G#4,625.25,0.25,54,63.51
4428,G4,625.5,0.25,54,63.51
4429,G#4,625.75,0.25,54,63.51
4430,F#4,626.0,0.25,64,63.51
4431,E4,626.25,0.25,56,63.51
4432,E-4,626.5,0.25,56,63.51
4433,E4,626.75,0.25,56,63.51
4434,A2,627.0,0.25,64,63.51
4435,C#5,627.0,0.5,71,63.51
4436,A4,627.0,0.5,71,63.51
4437,A3,627.25,0.188,47,63.51
4438,A3,627.5,0.188,51,63.51
4439,C#5,627.5,1.0,65,63.51
4440,A4,627.5,1.0,65,63.51
4441,A3,627.75,0.188,46,63.51
4442,A3,628.0,0.188,50,63.51
4443,A3,628.25,0.188,32,63.51
4444,A3,628.5,0.188,37,63.51
4445,B-4,628.5,0.5,50,63.51
4446,C#5,628.5,0.5,50,63.51
4447,A3,628.75,0.188,33,63.51
4448,A3,629.0,0.188,42,63.51
4449,B4,629.0,0.5,50,63.51
4450,D5,629.0,0.5,50,63.51
4451,A3,629.25,0.188,35,63.51
4452,A3,629.5,0.188,39,63.51
4453,C5,629.5,0.5,50,63.51
4454,E-5,629.5,0.5,50,63.51
4455,A3,629.75,0.188,34,63.51
4456,A3,630.0,1.0,47,63.51
4457,C#5,630.0,0.25,53,63.51
4458,E5,630.0,0.25,53,63.51
4459,A4,630.25,131/1000,49,63.51
4460,B4,630.5,131/1000,50,63.51
4461,C#5,630.75,131/1000,51,63.51
4462,D5,631.0,131/1000,52,63.51
4463,E5,631.25,131/1000,53,63.51
4464,F#5,631.5,131/1000,54,63.51
4465,G#5,631.75,131/1000,55,63.51
4466,A5,632.0,0.25,56,63.51
4467,B5,632.25,0.25,57,63.51
4468,C#6,632.5,0.25,58,63.51
4469,E2,633.0,0.25,64,63.51
4470,C#5,633.0,0.25,71,63.51
4471,A4,633.0,0.25,71,63.51
4472,E3,633.25,0.188,46,63.51
4473,G#4,633.25,9/40,62,63.51
4474,B4,633.25,9/40,62,63.51
4475,E3,633.5,0.188,51,63.51
4476,B4,633.5,1.0,65,63.51
4477,G#4,633.5,1.0,65,63.51
4478,E3,633.75,0.188,46,63.51
4479,E3,634.0,0.188,50,63.51
4480,E3,634.25,0.188,34,63.51
4481,E3,634.5,0.188,38,63.51
4482,B4,634.5,0.5,50,63.51
4483,G#4,634.5,0.5,50,63.51
4484,E3,634.75,0.188,34,63.51
4485,E3,635.0,0.188,42,63.51
4486,C5,635.0,0.5,50,63.51
4487,A4,635.0,0.5,50,63.51
4488,E3,635.25,0.188,34,63.51
4489,E3,635.5,0.188,38,63.51
4490,B-4,635.5,0.5,50,63.51
4491,C#5,635.5,0.5,50,63.51
4492,E3,635.75,0.188,35,63.51
4493,E3,636.0,1.0,47,63.51
4494,B4,636.0,0.25,53,63.51
4495,D5,636.0,0.25,53,63.51
4496,B4,636.25,131/1000,49,63.51
4497,C#5,636.5,131/1000,50,63.51
4498,D5,636.75,131/1000,51,63.51
4499,E5,637.0,131/1000,52,63.51
4500,F#5,637.25,131/1000,53,63.51
4501,G#5,637.5,131/1000,54,63.51
4502,A5,637.75,131/1000,55,63.51
4503,B5,638.0,0.25,56,63.51
4504,C#6,638.25,0.25,57,63.51
4505,D6,638.5,0.25,58,63.51
4506,B4,639.0,0.25,57,63.51
4507,A4,639.25,0.25,53,63.51
4508,A4,639.5,0.75,53,63.51
4509,E4,640.0,1.0,43,63.51
4510,F#3,640.0,1.0,43,63.51
4511,A4,640.25,0.25,53,63.51
4512,D5,640.5,0.25,56,63.51
4513,C#5,640.75,0.25,53,63.51
4514,B-4,641.0,0.25,55,63.51
4515,E4,641.0,1.0,43,63.51
4516,G#3,641.0,1.0,43,63.51
4517,B4,641.25,0.25,52,63.51
4518,E5,641.5,0.25,52,63.51
4519,D5,641.75,0.25,53,63.51
4520,C5,642.0,0.25,58,63.51
4521,E4,642.0,1.0,43,63.51
4522,A3,642.0,1.0,43,63.51
4523,C#5,642.25,0.25,53,63.51
4524,A5,642.5,0.188,54,63.51
4525,A5,642.75,0.188,55,63.51
4526,A5,643.0,0.188,57,63.51
4527,A5,643.25,0.188,55,63.51
4528,A5,643.5,0.188,55,63.51
4529,A5,643.75,0.188,55,63.51
4530,A5,644.0,0.25,58,63.51
4531,D3,644.0,1.0,42,63.51
4532,B3,644.0,1.0,42,63.51
4533,F#3,644.0,1.0,42,63.51
4534,F#5,644.25,0.25,56,63.51
4535,D5,644.5,0.25,54,63.51
4536,B4,644.75,0.25,49,63.51
4537,E5,645.0,0.25,59,63.51
4538,E3,645.0,3.0,39,63.51
4539,A3,645.0,2.0,43,63.51
4540,C#4,645.0,2.0,43,63.51
4541,F#5,645.25,83/1000,54,63.51
4542,E5,645.333,83/1000,54,63.51
4543,E-5,645.417,83/1000,54,63.51
4544,E5,645.5,0.25,59,63.51
4545,F#5,645.75,0.25,56,63.51
4546,A4,646.0,1.5,58,63.51
4547,D4,647.0,1.0,35,63.51
4548,B3,647.0,1.0,35,63.51
4549,C#5,647.5,0.25,53,63.51
4550,G#4,647.5,0.5,53,63.51
4551,B4,647.75,0.25,50,63.51
4552,E4,648.0,2.0,45,63.51
4553,A3,648.0,2.0,28,63.51
4554,D4,648.0,1.0,34,63.51
4555,G#4,648.0,1.0,49,63.51
4556,B4,648.0,1.0,49,63.51
4557,A4,649.0,0.25,46,63.51
4558,C#4,649.0,1.0,33,63.51
4559,B4,649.25,83/1000,43,63.51
4560,A4,649.333,83/1000,45,63.51
4561,G#4,649.417,83/1000,46,63.51
4562,A4,649.5,0.25,52,63.51
4563,B4,649.75,0.25,54,63.51
4564,C#5,650.0,0.25,55,63.51
4565,D5,650.25,83/1000,40,63.51
4566,C#5,650.333,83/1000,40,63.51
4567,B4,650.417,83/1000,40,63.51
4568,C#5,650.5,0.25,51,63.51
4569,D5,650.75,0.25,52,63.51
4570,E5,651.0,0.75,57,63.51
4571,A3,651.0,0.25,43,63.51
4572,A4,651.25,0.25,32,63.51
4573,C#4,651.5,0.25,37,63.51
4574,F#5,651.75,0.125,47,63.51
4575,A4,651.75,0.25,32,63.51
4576,E5,651.875,0.125,47,63.51
4577,D5,652.0,0.5,58,63.51
4578,A3,652.0,0.25,45,63.51
4579,G#4,652.25,0.25,34,63.51
4580,C#5,652.5,0.5,53,63.51
4581,B3,652.5,0.25,37,63.51
4582,G#4,652.75,0.25,34,63.51
4583,B4,653.0,0.5,57,63.51
4584,A3,653.0,0.25,47,63.51
4585,G4,653.25,0.25,36,63.51
4586,A4,653.5,0.5,52,63.51
4587,C#4,653.5,0.25,42,63.51
4588,G4,653.75,0.25,38,63.51
4589,A4,654.0,0.75,64,63.51
4590,A3,654.0,0.25,50,63.51
4591,F#4,654.25,0.25,43,63.51
4592,D4,654.5,0.25,46,63.51
4593,F#5,654.75,0.25,57,63.51
4594,F#4,654.75,0.25,43,63.51
4595,F#5,655.0,1.0,61,63.51
4596,F#3,655.0,0.25,54,63.51
4597,D4,655.25,0.25,44,63.51
4598,A3,655.5,0.25,47,63.51
4599,D4,655.75,123/500,44,63.51
4600,D4,656.0,1.0,68,63.51
4601,D3,656.0,0.25,51,63.51
4602,A3,656.25,0.25,43,63.51
4603,F#3,656.5,0.25,46,63.51
4604,A3,656.75,0.25,43,63.51
4605,D4,657.0,0.125,68,63.51
4606,A2,657.0,0.25,56,63.51
4607,F#4,657.125,0.125,44,63.51
4608,E4,657.25,0.125,45,63.51
4609,F#3,657.25,0.25,46,63.51
4610,D4,657.375,0.125,46,63.51
4611,E4,657.5,0.125,47,63.51
4612,D3,657.5,0.25,49,63.51
4613,F#4,657.625,0.125,48,63.51
4614,G4,657.75,0.125,49,63.51
4615,F#3,657.75,0.25,47,63.51
4616,A4,657.875,0.125,50,63.51
4617,B4,658.0,0.125,51,63.51
4618,A2,658.0,0.25,60,63.51
4619,C#5,658.125,0.125,52,63.51
4620,D5,658.25,0.125,53,63.51
4621,F#3,658.25,0.25,52,63.51
4622,E5,658.375,0.125,54,63.51
4623,F#5,658.5,167/1000,55,63.51
4624,D3,658.5,0.25,55,63.51
4625,G5,658.667,0.125,56,63.51
4626,F#3,658.75,0.25,58,63.51
4627,A5,658.833,0.125,57,63.51
4628,B5,659.0,0.188,62,63.51
4629,A2,659.0,0.25,70,63.51
4630,C#6,659.25,0.188,68,63.51
4631,F#3,659.25,0.25,57,63.51
4632,D6,659.5,0.375,75,63.51
4633,D3,659.5,0.25,61,63.51
4634,F#3,659.75,0.25,59,63.51
4635,F#5,659.875,0.125,61,63.51
4636,A5,660.0,0.75,68,63.51
4637,A2,660.0,1.0,70,63.51
4638,D3,660.0,1.0,70,63.51
4639,F#5,660.75,0.25,60,63.51
4640,E5,661.0,9/20,65,63.51
4641,A2,661.0,1.0,53,63.51
4642,C#3,661.0,1.0,53,63.51
4643,E5,661.5,9/20,57,63.51
4644,E5,662.0,9/20,57,63.51
4645,E5,662.5,9/20,57,63.51
4646,F#5,663.0,0.25,59,63.51
4647,C#4,663.0,3.0,46,63.51
4648,A3,663.0,3.0,46,63.51
4649,E4,663.0,3.0,46,63.51
4650,E5,663.25,0.25,47,63.51
4651,C#5,663.5,0.25,47,63.51
4652,B4,663.75,0.25,47,63.51
4653,A4,664.0,0.5,53,63.51
4654,E5,664.5,9/20,47,63.51
4655,E5,665.0,9/20,47,63.51
4656,E5,665.5,9/20,47,63.51
4657,F#5,666.0,0.25,58,63.51
4658,B3,666.0,3.0,46,63.51
4659,E4,666.0,3.0,46,63.51
4660,D4,666.0,3.0,46,63.51
4661,E5,666.25,0.25,48,63.51
4662,D5,666.5,0.25,48,63.51
4663,B4,666.75,0.25,48,63.51
4664,G#4,667.0,0.5,52,63.51
4665,E5,667.5,9/20,49,63.51
4666,E5,668.0,9/20,51,63.51
4667,E5,668.5,9/20,53,63.51
4668,F#5,669.0,0.25,65,63.51
4669,E4,669.0,1.0,48,63.51
4670,A3,669.0,1.0,48,63.51
4671,C#4,669.0,1.0,48,63.51
4672,E5,669.25,0.25,55,63.51
4673,C#5,669.5,0.25,58,63.51
4674,A4,669.75,0.25,55,63.51
4675,F#5,670.0,0.25,68,63.51
4676,G#3,670.0,1.0,48,63.51
4677,B3,670.0,1.0,48,63.51
4678,E4,670.0,1.0,48,63.51
4679,E5,670.25,0.25,57,63.51
4680,D5,670.5,0.25,59,63.51
4681,B4,670.75,0.25,57,63.51
4682,F#5,671.0,0.25,70,63.51
4683,A3,671.0,1.0,48,63.51
4684,E4,671.0,1.0,48,63.51
4685,C#4,671.0,1.0,48,63.51
4686,E5,671.25,0.25,57,63.51
4687,C#5,671.5,0.25,60,63.51
4688,A4,671.75,0.25,57,63.51
4689,C#5,672.0,1.0,71,63.51
4690,E3,672.0,2.0,43,63.51
4691,C#4,672.0,1.0,52,63.51
4692,A3,672.0,1.0,52,63.51
4693,B4,673.0,0.25,61,63.51
4694,G#3,673.0,1.0,47,63.51
4695,B3,673.0,1.0,47,63.51
4696,E4,673.25,0.25,43,63.51
4697,E5,673.5,0.25,53,63.51
4698,E4,673.75,0.25,43,63.51
4699,E-5,674.0,0.25,51,63.51
4700,E4,674.25,0.25,43,63.51
4701,D5,674.5,0.25,52,63.51
4702,E4,674.75,0.25,42,63.51
4703,C#5,675.0,1.0,55,63.51
4704,A3,675.0,0.25,37,63.51
4705,E4,675.25,0.25,28,63.51
4706,C#4,675.5,0.25,33,63.51
4707,E4,675.75,0.25,28,63.51
4708,C#5,676.0,1.25,51,63.51
4709,A3,676.0,0.25,42,63.51
4710,E4,676.25,0.25,31,63.51
4711,C#4,676.5,0.25,37,63.51
4712,E4,676.75,0.25,33,63.51
4713,A3,677.0,0.25,42,63.51
4714,D5,677.25,83/1000,48,63.51
4715,E4,677.25,0.25,32,63.51
4716,C#5,677.333,83/1000,47,63.51
4717,B4,677.417,83/1000,47,63.51
4718,C#5,677.5,0.25,47,63.51
4719,B3,677.5,0.25,37,63.51
4720,D5,677.75,0.25,51,63.51
4721,E4,677.75,0.25,32,63.51
4722,F#5,678.0,0.5,54,63.51
4723,C#4,678.0,0.25,44,63.51
4724,E4,678.25,0.25,28,63.51
4725,E5,678.5,0.25,51,63.51
4726,A3,678.5,0.25,31,63.51
4727,E4,678.75,0.25,27,63.51
4728,E-6,679.0,0.5,62,63.51
4729,C#4,679.0,0.25,34,63.51
4730,E4,679.25,0.25,22,63.51
4731,E6,679.5,0.25,57,63.51
4732,A3,679.5,0.25,28,63.51
4733,E4,679.75,0.25,23,63.51
4734,E5,679.875,0.125,51,63.51
4735,F#5,680.0,0.25,57,63.51
4736,C#4,680.0,0.25,37,63.51
4737,E5,680.25,0.25,51,63.51
4738,E4,680.25,0.25,28,63.51
4739,D5,680.5,0.25,51,63.51
4740,A3,680.5,0.25,32,63.51
4741,C#5,680.75,0.25,51,63.51
4742,E4,680.75,0.25,28,63.51
4743,C#5,681.0,0.5,55,63.51
4744,G#3,681.0,0.25,37,63.51
4745,E4,681.25,0.25,29,63.51
4746,B4,681.5,1.0,55,63.51
4747,E-4,681.5,0.25,33,63.51
4748,E4,681.75,0.25,30,63.51
4749,G#3,682.0,0.25,37,63.51
4750,E4,682.25,0.25,31,63.51
4751,B4,682.5,917/1000,51,63.51
4752,E-4,682.5,0.25,33,63.51
4753,E4,682.75,0.25,30,63.51
4754,G#3,683.0,0.25,37,63.51
4755,C#5,683.25,83/1000,47,63.51
4756,E4,683.25,0.25,30,63.51
4757,B4,683.333,167/1000,47,63.51
4758,B-4,683.417,83/1000,47,63.51
4759,B4,683.5,0.25,51,63.51
4760,A3,683.5,0.25,33,63.51
4761,C#5,683.75,0.25,51,63.51
4762,E4,683.75,0.25,30,63.51
4763,E5,684.0,0.5,54,63.51
4764,B3,684.0,0.25,37,63.51
4765,E4,684.25,0.25,29,63.51
4766,D5,684.5,0.25,51,63.51
4767,E-4,684.5,0.25,31,63.51
4768,E4,684.75,0.25,28,63.51
4769,C#6,685.0,0.5,60,63.51
4770,G#3,685.0,0.25,34,63.51
4771,E4,685.25,0.25,25,63.51
4772,D6,685.5,0.25,57,63.51
4773,B3,685.5,0.25,28,63.51
4774,E4,685.75,0.25,26,63.51
4775,D5,685.875,0.125,51,63.51
4776,E5,686.0,0.25,57,63.51
4777,E3,686.0,0.25,40,63.51
4778,D5,686.25,0.25,51,63.51
4779,E4,686.25,0.25,30,63.51
4780,C#5,686.5,0.25,51,63.51
4781,G#3,686.5,0.25,33,63.51
4782,B4,686.75,233/1000,51,63.51
4783,E4,686.75,0.25,30,63.51
4784,B4,687.0,0.5,57,63.51
4785,F#3,687.0,0.25,39,63.51
4786,E4,687.25,0.25,28,63.51
4787,A4,687.5,0.75,54,63.51
4788,E-4,687.5,0.25,31,63.51
4789,E4,687.75,0.25,27,63.51
4790,F#3,688.0,0.25,42,63.51
4791,A4,688.25,0.25,57,63.51
4792,E4,688.25,0.25,32,63.51
4793,D5,688.5,0.25,61,63.51
4794,E-4,688.5,0.25,36,63.51
4795,C#5,688.75,0.25,57,63.51
4796,E4,688.75,0.25,34,63.51
4797,B-4,689.0,0.25,61,63.51
4798,G#3,689.0,0.25,42,63.51
4799,B4,689.25,0.25,57,63.51
4800,E4,689.25,0.25,35,63.51
4801,E5,689.5,0.25,57,63.51
4802,E-4,689.5,0.25,36,63.51
4803,D5,689.75,0.25,57,63.51
4804,E4,689.75,0.25,34,63.51
4805,C5,690.0,0.25,60,63.51
4806,A3,690.0,1.0,42,63.51
4807,C#5,690.25,0.25,57,63.51
4808,A5,690.5,9/40,60,63.51
4809,A5,690.75,9/40,61,63.51
4810,A5,691.0,9/40,62,63.51
4811,A5,691.25,9/40,64,63.51
4812,A5,691.5,9/40,66,63.51
4813,A5,691.75,9/40,68,63.51
4814,A5,692.0,0.25,69,63.51
4815,D3,692.0,1.0,44,63.51
4816,F#3,692.0,1.0,44,63.51
4817,B3,692.0,1.0,44,63.51
4818,F#5,692.25,0.25,59,63.51
4819,D5,692.5,0.25,62,63.51
4820,B4,692.75,0.25,59,63.51
4821,E5,693.0,0.25,64,63.51
4822,E3,693.0,3.0,44,63.51
4823,A3,693.0,2.0,49,63.51
4824,C#4,693.0,2.0,49,63.51
4825,F#5,693.25,83/1000,59,63.51
4826,E5,693.333,83/1000,59,63.51
4827,E-5,693.417,83/1000,59,63.51
4828,E5,693.5,0.25,64,63.51
4829,F#5,693.75,0.25,61,63.51
4830,A4,694.0,1.5,66,63.51
4831,D4,695.0,1.0,40,63.51
4832,B3,695.0,1.0,40,63.51
4833,B4,695.5,19/40,45,63.51
4834,G#4,695.5,19/40,45,63.51
4835,G#4,696.0,2.0,52,63.51
4836,B4,696.0,1.5,52,63.51
4837,D4,696.0,2.0,33,63.51
4838,A3,696.0,3.0,36,63.51
4839,E4,696.0,3.0,36,63.51
4840,C5,697.5,0.5,51,63.51
4841,C#4,698.0,1.0,39,63.51
4842,C#5,698.0,0.875,51,63.51
4843,A4,698.0,0.875,51,63.51
4844,E4,698.875,0.062,61,63.51
4845,A4,698.938,0.062,62,63.51
4846,C#5,699.0,1167/1000,68,63.51
4847,A2,699.0,0.25,61,63.51
4848,C#3,699.25,0.25,50,63.51
4849,E3,699.5,0.25,54,63.51
4850,A3,699.75,0.25,50,63.51
4851,A2,700.0,0.25,61,63.51
4852,E5,700.167,167/1000,63,63.51
4853,C#3,700.25,0.25,50,63.51
4854,D5,700.333,167/1000,63,63.51
4855,C#5,700.5,167/1000,66,63.51
4856,E3,700.5,0.25,54,63.51
4857,D5,700.667,167/1000,62,63.51
4858,A3,700.75,0.25,50,63.51
4859,E5,700.833,167/1000,62,63.51
4860,D5,701.0,167/1000,66,63.51
4861,B2,701.0,0.25,61,63.51
4862,F#5,701.167,167/1000,62,63.51
4863,D3,701.25,0.25,52,63.51
4864,E5,701.333,167/1000,62,63.51
4865,D5,701.5,167/1000,66,63.51
4866,G#3,701.5,0.25,56,63.51
4867,E5,701.667,167/1000,63,63.51
4868,B3,701.75,0.25,52,63.51
4869,F#5,701.833,167/1000,63,63.51
4870,E5,702.0,0.125,62,63.51
4871,C#3,702.0,2.0,56,63.51
4872,A3,702.0,2.0,56,63.51
4873,A4,702.125,0.125,63,63.51
4874,B4,702.25,0.125,64,63.51
4875,C#5,702.375,0.125,65,63.51
4876,D5,702.5,0.125,65,63.51
4877,E5,702.625,0.125,65,63.51
4878,F#5,702.75,0.125,66,63.51
4879,G#5,702.875,0.125,67,63.51
4880,A5,703.0,0.125,68,63.51
4881,B5,703.125,0.125,69,63.51
4882,C#6,703.25,0.125,70,63.51
4883,B5,703.375,0.125,71,63.51
4884,A5,703.5,0.125,71,63.51
4885,G#5,703.625,0.125,70,63.51
4886,F#5,703.75,0.125,70,63.51
4887,F5,703.875,0.125,69,63.51
4888,F#5,704.0,0.125,68,63.51
4889,D3,704.0,1.0,61,63.51
4890,A3,704.0,1.0,61,63.51
4891,G#5,704.125,0.125,67,63.51
4892,A5,704.25,0.125,65,63.51
4893,G#5,704.375,0.125,64,63.51
4894,B5,704.5,0.125,62,63.51
4895,A5,704.625,0.125,61,63.51
4896,G#5,704.75,0.125,59,63.51
4897,F#5,704.875,0.125,58,63.51
4898,E5,705.0,0.125,62,63.51
4899,E3,705.0,1.0,38,63.51
4900,C#4,705.0,1.0,38,63.51
4901,E6,705.25,0.25,52,63.51
4902,C#6,705.5,0.25,52,63.51
4903,A5,705.75,0.25,60,63.51
4904,E5,706.0,0.125,52,63.51
4905,E3,706.0,1.0,38,63.51
4906,C#4,706.0,1.0,38,63.51
4907,A5,706.25,0.25,52,63.51
4908,E5,706.5,0.25,51,63.51
4909,C#5,706.75,0.25,51,63.51
4910,E5,707.0,0.25,57,63.51
4911,E3,707.0,1.0,33,63.51
4912,G#3,707.0,1.0,33,63.51
4913,D4,707.0,1.0,33,63.51
4914,D5,707.25,0.25,51,63.51
4915,C#5,707.5,0.25,51,63.51
4916,B4,707.75,47/200,51,63.51
4917,A3,708.0,2.0,34,63.51
4918,D4,708.0,1.0,41,63.51
4919,G#4,708.0,1.0,54,63.51
4920,B4,708.0,1.0,54,63.51
4921,A4,709.0,167/1000,52,63.51
4922,C#4,709.0,1.0,41,63.51
4923,E4,709.167,0.125,45,63.51
4924,F#4,709.333,0.125,45,63.51
4925,G4,709.5,0.125,50,63.51
4926,G#4,709.667,0.125,47,63.51
4927,A4,709.833,0.125,47,63.51
4928,B-4,710.0,0.125,49,63.51
4929,B4,710.167,0.125,44,63.51
4930,C5,710.333,0.125,44,63.51
4931,C#5,710.5,0.125,48,63.51
4932,D5,710.667,0.125,44,63.51
4933,E-5,710.833,0.125,44,63.51
4934,E5,711.0,0.75,57,63.51
4935,A3,711.0,0.25,39,63.51
4936,A4,711.25,0.25,29,63.51
4937,C#4,711.5,0.25,36,63.51
4938,F#5,711.75,0.125,47,63.51
4939,A4,711.75,0.25,32,63.51
4940,E5,711.875,0.125,47,63.51
4941,D5,712.0,0.5,58,63.51
4942,A3,712.0,0.25,45,63.51
4943,G#4,712.25,0.25,34,63.51
4944,C#5,712.5,0.5,53,63.51
4945,B3,712.5,0.25,37,63.51
4946,G#4,712.75,0.25,34,63.51
4947,B4,713.0,0.5,57,63.51
4948,A3,713.0,0.25,47,63.51
4949,G4,713.25,0.25,36,63.51
4950,A4,713.5,0.5,52,63.51
4951,C#4,713.5,0.25,42,63.51
4952,G4,713.75,0.25,38,63.51
4953,A4,714.0,0.75,61,63.51
4954,A3,714.0,0.25,48,63.51
4955,F#4,714.25,0.25,41,63.51
4956,D4,714.5,0.25,44,63.51
4957,F#5,714.75,227/1000,55,63.51
4958,F#4,714.75,0.25,41,63.51
4959,F#5,715.0,1.0,59,63.51
4960,F#3,715.0,0.25,52,63.51
4961,D4,715.25,0.25,41,63.51
4962,A3,715.5,0.25,45,63.51
4963,D4,715.75,123/500,41,63.51
4964,D4,716.0,1.0,68,63.51
4965,D3,716.0,0.25,51,63.51
4966,A3,716.25,0.25,43,63.51
4967,F#3,716.5,0.25,46,63.51
4968,A3,716.75,0.25,43,63.51
4969,D4,717.0,0.125,68,63.51
4970,A2,717.0,0.25,56,63.51
4971,F#4,717.125,0.125,44,63.51
4972,E4,717.25,0.125,45,63.51
4973,F#3,717.25,0.25,47,63.51
4974,D4,717.375,0.125,46,63.51
4975,E4,717.5,0.125,47,63.51
4976,D3,717.5,0.25,49,63.51
4977,F#4,717.625,0.125,48,63.51
4978,G4,717.75,0.125,49,63.51
4979,F#3,717.75,0.25,47,63.51
4980,A4,717.875,0.125,50,63.51
4981,B4,718.0,0.125,51,63.51
4982,A2,718.0,0.25,60,63.51
4983,C#5,718.125,0.125,52,63.51
4984,D5,718.25,0.125,53,63.51
4985,F#3,718.25,0.25,52,63.51
4986,E5,718.375,0.125,54,63.51
4987,F#5,718.5,167/1000,55,63.51
4988,D3,718.5,0.25,55,63.51
4989,G5,718.667,167/1000,56,63.51
4990,F#3,718.75,0.25,58,63.51
4991,A5,718.833,167/1000,57,63.51
4992,B5,719.0,0.25,62,63.51
4993,A2,719.0,0.25,70,63.51
4994,C#6,719.25,0.25,68,63.51
4995,F#3,719.25,0.25,59,63.51
4996,D6,719.5,0.375,75,63.51
4997,D3,719.5,0.25,61,63.51
4998,F#3,719.75,0.25,57,63.51
4999,F#5,719.875,0.125,61,63.51
5000,A5,720.0,0.75,68,63.51
5001,A2,720.0,1.0,70,63.51
5002,D3,720.0,1.0,70,63.51
5003,F#5,720.75,0.25,60,63.51
5004,E5,721.0,19/40,65,63.51
5005,A2,721.0,1.0,53,63.51
5006,C#3,721.0,1.0,53,63.51
5007,E5,721.5,19/40,57,63.51
5008,E5,722.0,19/40,57,63.51
5009,E5,722.5,19/40,57,63.51
5010,F#5,723.0,0.25,60,63.51
5011,C#4,723.0,3.0,46,63.51
5012,A3,723.0,3.0,46,63.51
5013,E4,723.0,3.0,46,63.51
5014,E5,723.25,0.25,50,63.51
5015,C#5,723.5,0.25,50,63.51
5016,B4,723.75,0.25,50,63.51
5017,A4,724.0,0.5,55,63.51
5018,E5,724.5,19/40,46,63.51
5019,E5,725.0,19/40,46,63.51
5020,E5,725.5,19/40,46,63.51
5021,F#5,726.0,0.25,61,63.51
5022,B3,726.0,3.0,46,63.51
5023,E4,726.0,3.0,46,63.51
5024,D4,726.0,3.0,46,63.51
5025,E5,726.25,0.25,51,63.51
5026,D5,726.5,0.25,51,63.51
5027,B4,726.75,0.25,51,63.51
5028,G#4,727.0,0.5,54,63.51
5029,E5,727.5,19/40,52,63.51
5030,E5,728.0,19/40,53,63.51
5031,E5,728.5,19/40,55,63.51
5032,F#5,729.0,0.25,65,63.51
5033,E4,729.0,1.0,48,63.51
5034,A3,729.0,1.0,48,63.51
5035,C#4,729.0,1.0,48,63.51
5036,E5,729.25,0.25,55,63.51
5037,C#5,729.5,0.25,58,63.51
5038,A4,729.75,0.25,54,63.51
5039,F#5,730.0,0.25,68,63.51
5040,G#3,730.0,1.0,48,63.51
5041,B3,730.0,1.0,48,63.51
5042,E4,730.0,1.0,48,63.51
5043,E5,730.25,0.25,56,63.51
5044,D5,730.5,0.25,59,63.51
5045,B4,730.75,0.25,54,63.51
5046,F#5,731.0,0.25,70,63.51
5047,A3,731.0,1.0,48,63.51
5048,E4,731.0,1.0,48,63.51
5049,C#4,731.0,1.0,48,63.51
5050,E5,731.25,0.25,56,63.51
5051,C#5,731.5,0.25,60,63.51
5052,A4,731.75,0.25,55,63.51
5053,C#5,732.0,1.0,71,63.51
5054,E3,732.0,2.0,43,63.51
5055,C#4,732.0,1.0,52,63.51
5056,A3,732.0,1.0,52,63.51
5057,B4,733.0,0.25,61,63.51
5058,G#3,733.0,1.0,47,63.51
5059,B3,733.0,1.0,47,63.51
5060,E4,733.25,0.25,44,63.51
5061,E5,733.5,0.25,53,63.51
5062,E4,733.75,0.25,40,63.51
5063,E-5,734.0,0.25,51,63.51
5064,E4,734.25,0.25,39,63.51
5065,D5,734.5,0.25,52,63.51
5066,E4,734.75,0.25,40,63.51
5067,C#5,735.0,1.0,55,63.51
5068,A3,735.0,0.25,37,63.51
5069,E4,735.25,0.25,29,63.51
5070,C#4,735.5,0.25,33,63.51
5071,E4,735.75,0.25,28,63.51
5072,C#5,736.0,1.25,51,63.51
5073,A3,736.0,0.25,42,63.51
5074,E4,736.25,0.25,33,63.51
5075,C#4,736.5,0.25,37,63.51
5076,E4,736.75,0.25,28,63.51
5077,A3,737.0,0.25,42,63.51
5078,D5,737.25,83/1000,48,63.51
5079,E4,737.25,0.25,30,63.51
5080,C#5,737.333,83/1000,47,63.51
5081,B4,737.417,83/1000,47,63.51
5082,C#5,737.5,0.25,47,63.51
5083,B3,737.5,0.25,37,63.51
5084,D5,737.75,0.25,51,63.51
5085,E4,737.75,0.25,30,63.51
5086,F#5,738.0,0.5,54,63.51
5087,C#4,738.0,0.25,44,63.51
5088,E4,738.25,0.25,27,63.51
5089,E5,738.5,0.25,51,63.51
5090,A3,738.5,0.25,31,63.51
5091,E4,738.75,0.25,27,63.51
5092,E-6,739.0,0.5,61,63.51
5093,C#4,739.0,0.25,34,63.51
5094,E4,739.25,0.25,26,63.51
5095,E6,739.5,0.25,57,63.51
5096,A3,739.5,0.25,28,63.51
5097,E4,739.75,0.25,26,63.51
5098,E5,739.875,0.125,51,63.51
5099,F#5,740.0,0.25,57,63.51
5100,C#4,740.0,0.25,37,63.51
5101,E5,740.25,0.25,51,63.51
5102,E4,740.25,0.25,29,63.51
5103,D5,740.5,0.25,51,63.51
5104,A3,740.5,0.25,32,63.51
5105,C#5,740.75,233/1000,51,63.51
5106,E4,740.75,0.25,28,63.51
5107,C#5,741.0,0.5,55,63.51
5108,G#3,741.0,0.25,37,63.51
5109,E4,741.25,0.25,30,63.51
5110,B4,741.5,1.0,55,63.51
5111,E-4,741.5,0.25,33,63.51
5112,E4,741.75,0.25,29,63.51
5113,G#3,742.0,0.25,37,63.51
5114,E4,742.25,0.25,30,63.51
5115,B4,742.5,917/1000,51,63.51
5116,E-4,742.5,0.25,33,63.51
5117,E4,742.75,0.25,28,63.51
5118,G#3,743.0,0.25,37,63.51
5119,C#5,743.25,83/1000,47,63.51
5120,E4,743.25,0.25,30,63.51
5121,B4,743.333,167/1000,47,63.51
5122,B-4,743.417,83/1000,47,63.51
5123,B4,743.5,0.25,51,63.51
5124,A3,743.5,0.25,33,63.51
5125,C#5,743.75,0.25,51,63.51
5126,E4,743.75,0.25,28,63.51
5127,E5,744.0,0.5,54,63.51
5128,B3,744.0,0.25,37,63.51
5129,E4,744.25,0.25,28,63.51
5130,D5,744.5,0.25,51,63.51
5131,E-4,744.5,0.25,31,63.51
5132,E4,744.75,0.25,27,63.51
5133,C#6,745.0,0.5,60,63.51
5134,G#3,745.0,0.25,34,63.51
5135,E4,745.25,0.25,25,63.51
5136,D6,745.5,0.25,57,63.51
5137,B3,745.5,0.25,28,63.51
5138,E4,745.75,0.25,25,63.51
5139,D5,745.875,0.125,51,63.51
5140,E5,746.0,0.25,57,63.51
5141,E3,746.0,0.25,40,63.51
5142,D5,746.25,0.25,51,63.51
5143,E4,746.25,0.25,30,63.51
5144,C#5,746.5,0.25,51,63.51
5145,G#3,746.5,0.25,33,63.51
5146,B4,746.75,9/40,51,63.51
5147,E4,746.75,0.25,29,63.51
5148,B4,747.0,0.5,57,63.51
5149,F#3,747.0,0.25,39,63.51
5150,E4,747.25,0.25,28,63.51
5151,A4,747.5,0.75,54,63.51
5152,E-4,747.5,0.25,31,63.51
5153,E4,747.75,0.25,30,63.51
5154,F#3,748.0,0.25,42,63.51
5155,A4,748.25,0.25,57,63.51
5156,E4,748.25,0.25,34,63.51
5157,D5,748.5,0.25,61,63.51
5158,E-4,748.5,0.25,36,63.51
5159,C#5,748.75,0.25,57,63.51
5160,E4,748.75,0.25,33,63.51
5161,B-4,749.0,0.25,61,63.51
5162,G#3,749.0,0.25,42,63.51
5163,B4,749.25,0.25,57,63.51
5164,E4,749.25,0.25,33,63.51
5165,E5,749.5,0.25,57,63.51
5166,E-4,749.5,0.25,36,63.51
5167,D5,749.75,0.25,57,63.51
5168,E4,749.75,0.25,34,63.51
5169,C5,750.0,0.25,60,63.51
5170,A3,750.0,1.0,42,63.51
5171,C#5,750.25,0.25,57,63.51
5172,A5,750.5,9/40,60,63.51
5173,A5,750.75,9/40,61,63.51
5174,A5,751.0,9/40,62,63.51
5175,A5,751.25,9/40,64,63.51
5176,A5,751.5,9/40,66,63.51
5177,A5,751.75,9/40,68,63.51
5178,A5,752.0,0.25,69,63.51
5179,D3,752.0,1.0,44,63.51
5180,F#3,752.0,1.0,44,63.51
5181,B3,752.0,1.0,44,63.51
5182,F#5,752.25,0.25,57,63.51
5183,D5,752.5,0.25,62,63.51
5184,B4,752.75,0.25,55,63.51
5185,E5,753.0,0.25,64,63.51
5186,E3,753.0,3.0,44,63.51
5187,A3,753.0,2.0,49,63.51
5188,C#4,753.0,2.0,49,63.51
5189,F#5,753.25,83/1000,59,63.51
5190,E5,753.333,83/1000,59,63.51
5191,E-5,753.417,83/1000,59,63.51
5192,E5,753.5,0.25,64,63.51
5193,F#5,753.75,0.25,61,63.51
5194,A4,754.0,1.5,66,63.51
5195,D4,755.0,1.0,40,63.51
5196,B3,755.0,1.0,40,63.51
5197,G#4,755.5,19/40,45,63.51
5198,B4,755.5,19/40,45,63.51
5199,B4,756.0,1.5,52,63.51
5200,G#4,756.0,2.0,52,63.51
5201,D4,756.0,2.0,33,63.51
5202,A3,756.0,3.0,36,63.51
5203,E4,756.0,3.0,36,63.51
5204,C5,757.5,0.5,51,63.51
5205,C#4,758.0,1.0,39,63.51
5206,A4,758.0,0.875,51,63.51
5207,C#5,758.0,0.875,51,63.51
5208,E4,758.875,0.062,61,63.51
5209,A4,758.938,0.062,62,63.51
5210,C#5,759.0,1167/1000,68,63.51
5211,A2,759.0,0.25,61,63.51
5212,C#3,759.25,0.25,51,63.51
5213,E3,759.5,0.25,54,63.51
5214,A3,759.75,0.25,51,63.51
5215,A2,760.0,0.25,61,63.51
5216,E5,760.167,167/1000,63,63.51
5217,C#3,760.25,0.25,51,63.51
5218,D5,760.333,167/1000,63,63.51
5219,C#5,760.5,167/1000,66,63.51
5220,E3,760.5,0.25,54,63.51
5221,D5,760.667,167/1000,62,63.51
5222,A3,760.75,0.25,51,63.51
5223,E5,760.833,167/1000,62,63.51
5224,D5,761.0,167/1000,66,63.51
5225,B2,761.0,0.25,61,63.51
5226,F#5,761.167,167/1000,62,63.51
5227,D3,761.25,0.25,52,63.51
5228,E5,761.333,167/1000,62,63.51
5229,D5,761.5,167/1000,66,63.51
5230,G#3,761.5,0.25,56,63.51
5231,E5,761.667,167/1000,63,63.51
5232,B3,761.75,0.25,51,63.51
5233,F#5,761.833,167/1000,63,63.51
5234,E5,762.0,0.125,62,63.51
5235,C#3,762.0,2.0,56,63.51
5236,A3,762.0,2.0,56,63.51
5237,A4,762.125,0.125,63,63.51
5238,B4,762.25,0.125,64,63.51
5239,C#5,762.375,0.125,65,63.51
5240,D5,762.5,0.125,65,63.51
5241,E5,762.625,0.125,65,63.51
5242,F#5,762.75,0.125,66,63.51
5243,G#5,762.875,0.125,67,63.51
5244,A5,763.0,0.125,68,63.51
5245,B5,763.125,0.125,69,63.51
5246,C#6,763.25,0.125,70,63.51
5247,B5,763.375,0.125,71,63.51
5248,A5,763.5,0.125,71,63.51
5249,G#5,763.625,0.125,70,63.51
5250,F#5,763.75,0.125,70,63.51
5251,F5,763.875,0.125,69,63.51
5252,F#5,764.0,0.125,68,63.51
5253,D3,764.0,1.0,61,63.51
5254,A3,764.0,1.0,61,63.51
5255,G#5,764.125,0.125,67,63.51
5256,A5,764.25,0.125,65,63.51
5257,G#5,764.375,0.125,64,63.51
5258,B5,764.5,0.125,62,63.51
5259,A5,764.625,0.125,61,63.51
5260,G#5,764.75,0.125,59,63.51
5261,F#5,764.875,0.125,58,63.51
5262,E5,765.0,0.125,62,63.51
5263,E3,765.0,1.0,38,63.51
5264,C#4,765.0,1.0,38,63.51
5265,E6,765.25,0.25,52,63.51
5266,C#6,765.5,0.25,52,63.51
5267,A5,765.75,0.25,60,63.51
5268,E5,766.0,0.125,52,63.51
5269,E3,766.0,1.0,38,63.51
5270,C#4,766.0,1.0,38,63.51
5271,A5,766.25,0.25,52,63.51
5272,E5,766.5,0.25,51,63.51
5273,C#5,766.75,0.25,51,63.51
5274,E5,767.0,0.25,57,63.51
5275,E3,767.0,1.0,33,63.51
5276,G#3,767.0,1.0,33,63.51
5277,D4,767.0,1.0,33,63.51
5278,D5,767.25,0.25,47,63.51
5279,C#5,767.5,0.25,51,63.51
5280,B4,767.75,119/500,46,63.51
5281,A3,768.0,2.0,24,63.51
5282,D4,768.0,1.0,28,63.51
5283,E4,768.0,1.0,36,63.51
5284,G#4,768.0,1.0,36,63.51
5285,B4,768.0,1.0,36,63.51
5286,A4,769.0,1.0,34,63.51
5287,C#4,769.0,1.0,22,63.51
5288,C#5,777.0,0.125,50,63.51
5289,A3,777.0,0.5,41,63.51
5290,D5,777.438,0.062,47,63.51
5291,C#5,777.5,0.25,47,63.51
5292,E4,777.5,0.5,32,63.51
5293,B4,777.75,0.25,52,63.51
5294,C#5,778.0,0.125,47,63.51
5295,B3,778.0,0.5,37,63.51
5296,D5,778.5,0.125,51,63.51
5297,E4,778.5,0.5,32,63.51
5298,F#5,779.0,0.5,53,63.51
5299,C#4,779.0,0.5,42,63.51
5300,E5,779.5,0.5,46,63.51
5301,E4,779.5,0.5,33,63.51
5302,D5,780.0,0.125,51,63.51
5303,A3,780.0,0.5,36,63.51
5304,C#5,780.5,0.125,49,63.51
5305,E4,780.5,0.5,33,63.51
5306,B4,781.0,0.125,50,63.51
5307,G#3,781.0,0.5,42,63.51
5308,C#5,781.438,0.062,46,63.51
5309,B4,781.5,0.25,46,63.51
5310,E4,781.5,0.5,33,63.51
5311,B-4,781.75,0.25,50,63.51
5312,B4,782.0,0.125,46,63.51
5313,A3,782.0,0.5,36,63.51
5314,C#5,782.5,0.125,47,63.51
5315,E4,782.5,0.5,33,63.51
5316,E5,783.0,0.5,50,63.51
5317,B3,783.0,0.5,42,63.51
5318,D5,783.5,0.5,47,63.51
5319,E4,783.5,0.5,31,63.51
5320,C#5,784.0,0.125,47,63.51
5321,D4,784.0,0.5,35,63.51
5322,B4,784.5,0.125,47,63.51
5323,E4,784.5,0.5,31,63.51
5324,G#4,785.0,0.5,53,63.51
5325,C#4,785.0,0.5,40,63.51
5326,A4,785.5,0.125,50,63.51
5327,E4,785.5,0.5,31,63.51
5328,C#4,786.0,0.5,34,63.51
5329,B-4,786.5,0.125,50,63.51
5330,E4,786.5,0.5,31,63.51
5331,G#3,787.0,0.5,39,63.51
5332,B4,787.5,0.125,50,63.51
5333,E4,787.5,0.5,31,63.51
5334,G#3,788.0,0.5,33,63.51
5335,C5,788.5,0.125,50,63.51
5336,E4,788.5,0.5,31,63.51
5337,D5,788.938,0.062,41,63.51
5338,C#5,789.0,0.125,54,63.51
5339,A3,789.0,0.5,40,63.51
5340,C#5,789.5,0.125,50,63.51
5341,E4,789.5,0.5,31,63.51
5342,E5,789.938,0.062,41,63.51
5343,D5,790.0,0.125,50,63.51
5344,B3,790.0,0.5,34,63.51
5345,D5,790.5,0.125,50,63.51
5346,E4,790.5,0.5,31,63.51
5347,C#5,791.0,1.0,55,63.51
5348,A3,791.0,1.0,38,63.51
5349,E3,791.0,1.5,31,63.51
5350,B4,792.0,0.5,50,63.51
5351,G#3,792.0,0.5,41,63.51
5352,A1,792.812,0.188,64,63.51
5353,C#2,792.875,0.125,70,63.51
5354,E2,792.938,0.062,75,63.51
5355,C#5,793.0,0.25,78,63.51
5356,A2,793.0,0.5,80,63.51
5357,A1,793.0,0.5,64,63.51
5358,C#2,793.0,0.5,70,63.51
5359,E2,793.0,0.5,75,63.51
5360,A4,793.25,0.25,63,63.51
5361,E4,793.5,0.25,63,63.51
5362,A4,793.75,0.25,63,63.51
5363,C#5,794.0,0.25,78,63.51
5364,A4,794.25,0.25,64,63.51
5365,D5,794.5,0.25,78,63.51
5366,B4,794.75,0.25,64,63.51
5367,A3,794.812,0.688,58,63.51
5368,C#4,794.875,0.625,62,63.51
5369,E4,794.938,0.562,68,63.51
5370,E5,795.0,0.25,79,63.51
5371,A4,795.0,0.5,71,63.51
5372,C#5,795.25,0.25,66,63.51
5373,E5,795.5,0.25,81,63.51
5374,C#5,795.75,0.25,68,63.51
5375,F#5,796.0,0.25,84,63.51
5376,E5,796.25,0.25,82,63.51
5377,D5,796.5,0.25,80,63.51
5378,C#5,796.75,0.25,79,63.51
5379,E2,796.812,0.188,70,63.51
5380,G#2,796.875,0.125,72,63.51
5381,B2,796.938,0.062,77,63.51
5382,B4,797.0,0.25,77,63.51
5383,E3,797.0,0.5,80,63.51
5384,E2,797.0,0.5,70,63.51
5385,G#2,797.0,0.5,72,63.51
5386,B2,797.0,0.5,77,63.51
5387,G#4,797.25,0.25,64,63.51
5388,E4,797.5,0.25,64,63.51
5389,G#4,797.75,0.25,64,63.51
5390,B4,798.0,0.25,78,63.51
5391,G#4,798.25,0.25,63,63.51
5392,C#5,798.5,0.25,79,63.51
5393,A4,798.75,0.25,63,63.51
5394,E3,798.812,0.688,58,63.51
5395,G#3,798.875,0.625,68,63.51
5396,B3,798.938,0.562,62,63.51
5397,D5,799.0,0.25,80,63.51
5398,E4,799.0,0.5,71,63.51
5399,B4,799.25,0.25,64,63.51
5400,D5,799.5,0.25,80,63.51
5401,B4,799.75,0.25,69,63.51
5402,E5,800.0,0.25,84,63.51
5403,D5,800.25,0.25,84,63.51
5404,C#5,800.5,0.25,81,63.51
5405,B4,800.75,0.25,79,63.51
5406,A4,801.0,0.25,82,63.51
5407,F#2,801.0,0.125,80,63.51
5408,C#5,801.25,0.25,66,63.51
5409,B4,801.5,0.25,66,63.51
5410,F#3,801.5,0.125,73,63.51
5411,A4,801.75,0.25,66,63.51
5412,B4,802.0,0.25,85,63.51
5413,G#2,802.0,0.125,80,63.51
5414,D5,802.25,0.25,66,63.51
5415,C#5,802.5,0.25,66,63.51
5416,G#3,802.5,0.125,73,63.51
5417,B4,802.75,0.25,66,63.51
5418,C#5,803.0,0.25,82,63.51
5419,A3,803.0,0.125,75,63.51
5420,E5,803.25,0.25,69,63.51
5421,A5,803.5,0.25,74,63.51
5422,C#4,803.5,0.125,77,63.51
5423,E5,803.75,0.25,69,63.51
5424,F#5,804.0,0.25,83,63.51
5425,D4,804.0,0.125,83,63.51
5426,A5,804.25,0.25,71,63.51
5427,D5,804.5,0.25,71,63.51
5428,G#3,804.5,0.125,78,63.51
5429,F#5,804.75,0.25,71,63.51
5430,C#5,805.0,0.25,84,63.51
5431,A3,805.0,0.125,84,63.51
5432,E5,805.25,0.25,69,63.51
5433,A4,805.5,0.25,80,63.51
5434,F#3,805.5,0.125,77,63.51
5435,C#5,805.75,0.25,69,63.51
5436,B4,806.0,0.25,81,63.51
5437,D3,806.0,0.125,80,63.51
5438,D5,806.25,0.25,69,63.51
5439,G#4,806.5,0.25,81,63.51
5440,E3,806.5,0.125,79,63.51
5441,B4,806.75,0.25,69,63.51
5442,A4,807.0,0.25,79,63.51
5443,A2,807.0,1.0,75,63.51
5444,E4,807.25,0.25,69,63.51
5445,C#4,807.5,0.25,69,63.51
5446,E4,807.75,0.25,69,63.51
5447,A4,808.0,0.875,82,63.51
5448,A1,808.0,0.875,67,63.51
5449,C#2,808.0,0.875,67,63.51
5450,E2,808.0,0.875,67,63.51
5451,C#5,809.0,0.125,50,63.51
5452,A3,809.0,0.5,41,63.51
5453,D5,809.438,0.062,47,63.51
5454,C#5,809.5,0.25,47,63.51
5455,E4,809.5,0.5,32,63.51
5456,B4,809.75,0.25,52,63.51
5457,C#5,810.0,0.125,47,63.51
5458,B3,810.0,0.5,37,63.51
5459,D5,810.5,0.125,51,63.51
5460,E4,810.5,0.5,32,63.51
5461,F#5,811.0,0.5,53,63.51
5462,C#4,811.0,0.5,42,63.51
5463,E5,811.5,0.5,46,63.51
5464,E4,811.5,0.5,33,63.51
5465,D5,812.0,0.125,51,63.51
5466,A3,812.0,0.5,36,63.51
5467,C#5,812.5,0.125,49,63.51
5468,E4,812.5,0.5,33,63.51
5469,B4,813.0,0.125,50,63.51
5470,G#3,813.0,0.5,42,63.51
5471,C#5,813.438,0.062,46,63.51
5472,B4,813.5,0.25,46,63.51
5473,E4,813.5,0.5,33,63.51
5474,B-4,813.75,0.25,50,63.51
5475,B4,814.0,0.125,46,63.51
5476,A3,814.0,0.5,36,63.51
5477,C#5,814.5,0.125,47,63.51
5478,E4,814.5,0.5,33,63.51
5479,E5,815.0,0.5,50,63.51
5480,B3,815.0,0.5,42,63.51
5481,D5,815.5,0.5,47,63.51
5482,E4,815.5,0.5,31,63.51
5483,C#5,816.0,0.125,47,63.51
5484,D4,816.0,0.5,35,63.51
5485,B4,816.5,0.125,47,63.51
5486,E4,816.5,0.5,31,63.51
5487,G#4,817.0,0.5,53,63.51
5488,C#4,817.0,0.5,40,63.51
5489,A4,817.5,0.125,50,63.51
5490,E4,817.5,0.5,31,63.51
5491,C#4,818.0,0.5,34,63.51
5492,B-4,818.5,0.125,50,63.51
5493,E4,818.5,0.5,31,63.51
5494,G#3,819.0,0.5,39,63.51
5495,B4,819.5,0.125,50,63.51
5496,E4,819.5,0.5,31,63.51
5497,G#3,820.0,0.5,33,63.51
5498,C5,820.5,0.125,50,63.51
5499,E4,820.5,0.5,31,63.51
5500,D5,820.938,0.062,41,63.51
5501,C#5,821.0,0.125,54,63.51
5502,A3,821.0,0.5,40,63.51
5503,C#5,821.5,0.125,50,63.51
5504,E4,821.5,0.5,31,63.51
5505,E5,821.938,0.062,41,63.51
5506,D5,822.0,0.125,50,63.51
5507,B3,822.0,0.5,34,63.51
5508,D5,822.5,0.125,50,63.51
5509,E4,822.5,0.5,31,63.51
5510,C#5,823.0,1.0,55,63.51
5511,A3,823.0,1.0,38,63.51
5512,E3,823.0,1.5,31,63.51
5513,B4,824.0,0.5,50,63.51
5514,G#3,824.0,0.5,41,63.51
5515,A1,824.812,0.188,59,63.51
5516,C#2,824.875,0.125,70,63.51
5517,E2,824.938,0.062,75,63.51
5518,C#5,825.0,0.25,78,63.51
5519,A2,825.0,0.5,80,63.51
5520,A1,825.0,0.5,59,63.51
5521,C#2,825.0,0.5,70,63.51
5522,E2,825.0,0.5,75,63.51
5523,A4,825.25,0.25,63,63.51
5524,E4,825.5,0.25,63,63.51
5525,A4,825.75,0.25,63,63.51
5526,C#5,826.0,0.25,78,63.51
5527,A4,826.25,0.25,64,63.51
5528,D5,826.5,0.25,78,63.51
5529,B4,826.75,0.25,64,63.51
5530,A3,826.812,0.688,58,63.51
5531,C#4,826.875,0.625,62,63.51
5532,E4,826.938,0.562,68,63.51
5533,E5,827.0,0.25,79,63.51
5534,A4,827.0,0.5,71,63.51
5535,C#5,827.25,0.25,66,63.51
5536,E5,827.5,0.25,81,63.51
5537,C#5,827.75,0.25,68,63.51
5538,F#5,828.0,0.25,84,63.51
5539,E5,828.25,0.25,82,63.51
5540,D5,828.5,0.25,80,63.51
5541,C#5,828.75,0.25,79,63.51
5542,E2,828.812,0.188,70,63.51
5543,G#2,828.875,0.125,72,63.51
5544,B2,828.938,0.062,77,63.51
5545,B4,829.0,0.25,77,63.51
5546,E3,829.0,0.5,80,63.51
5547,E2,829.0,0.5,70,63.51
5548,G#2,829.0,0.5,72,63.51
5549,B2,829.0,0.5,77,63.51
5550,G#4,829.25,0.25,64,63.51
5551,E4,829.5,0.25,64,63.51
5552,G#4,829.75,0.25,64,63.51
5553,B4,830.0,0.25,78,63.51
5554,G#4,830.25,0.25,63,63.51
5555,C#5,830.5,0.25,79,63.51
5556,A4,830.75,0.25,63,63.51
5557,E3,830.812,0.688,58,63.51
5558,G#3,830.875,0.625,68,63.51
5559,B3,830.938,0.562,62,63.51
5560,D5,831.0,0.25,80,63.51
5561,E4,831.0,0.5,71,63.51
5562,B4,831.25,0.25,64,63.51
5563,D5,831.5,0.25,80,63.51
5564,B4,831.75,0.25,69,63.51
5565,E5,832.0,0.25,84,63.51
5566,D5,832.25,0.25,84,63.51
5567,C#5,832.5,0.25,81,63.51
5568,B4,832.75,0.25,79,63.51
5569,A4,833.0,0.25,82,63.51
5570,F#2,833.0,0.125,80,63.51
5571,C#5,833.25,0.25,66,63.51
5572,B4,833.5,0.25,66,63.51
5573,F#3,833.5,0.125,73,63.51
5574,A4,833.75,0.25,66,63.51
5575,B4,834.0,0.25,85,63.51
5576,G#2,834.0,0.125,80,63.51
5577,D5,834.25,0.25,66,63.51
5578,C#5,834.5,0.25,66,63.51
5579,G#3,834.5,0.125,73,63.51
5580,B4,834.75,0.25,66,63.51
5581,C#5,835.0,0.25,82,63.51
5582,A3,835.0,0.125,75,63.51
5583,E5,835.25,0.25,69,63.51
5584,A5,835.5,0.25,74,63.51
5585,C#4,835.5,0.125,77,63.51
5586,E5,835.75,0.25,69,63.51
5587,F#5,836.0,0.25,83,63.51
5588,D4,836.0,0.125,83,63.51
5589,A5,836.25,0.25,71,63.51
5590,D5,836.5,0.25,71,63.51
5591,G#3,836.5,0.125,78,63.51
5592,F#5,836.75,0.25,71,63.51
5593,C#5,837.0,0.25,84,63.51
5594,A3,837.0,0.125,84,63.51
5595,E5,837.25,0.25,69,63.51
5596,A4,837.5,0.25,80,63.51
5597,F#3,837.5,0.125,77,63.51
5598,C#5,837.75,0.25,69,63.51
5599,B4,838.0,0.25,81,63.51
5600,D3,838.0,0.125,80,63.51
5601,D5,838.25,0.25,69,63.51
5602,G#4,838.5,0.25,81,63.51
5603,E3,838.5,0.125,79,63.51
5604,B4,838.75,0.25,69,63.51
5605,A4,839.0,0.25,79,63.51
5606,A2,839.0,1.0,75,63.51
5607,E4,839.25,0.25,69,63.51
5608,C#4,839.5,0.25,69,63.51
5609,E4,839.75,0.25,69,63.51
5610,A4,840.0,1.0,82,63.51
5611,A1,840.0,1.0,67,63.51
5612,C#2,840.0,1.0,67,63.51
5613,E2,840.0,1.0,67,63.51
5614,A4,841.0,0.25,55,63.51
5615,A3,841.0,0.5,40,63.51
5616,B4,841.25,0.25,49,63.51
5617,C#5,841.5,0.25,50,63.51
5618,E4,841.5,0.5,36,63.51
5619,D5,841.75,0.25,50,63.51
5620,E5,842.0,0.25,51,63.51
5621,C#4,842.0,0.5,36,63.51
5622,F#5,842.25,0.25,52,63.51
5623,G#5,842.5,0.25,53,63.51
5624,E4,842.5,0.5,36,63.51
5625,A5,842.75,0.25,54,63.51
5626,G#5,843.0,0.25,56,63.51
5627,A3,843.0,0.5,43,63.51
5628,F#5,843.25,0.25,50,63.51
5629,F5,843.5,0.25,52,63.51
5630,F#4,843.5,0.5,35,63.51
5631,F#5,843.75,0.25,50,63.51
5632,F5,844.0,0.25,52,63.51
5633,D4,844.0,0.5,35,63.51
5634,F#5,844.25,0.25,50,63.51
5635,F5,844.5,0.25,52,63.51
5636,F#4,844.5,0.5,35,63.51
5637,F#5,844.75,0.25,50,63.51
5638,A5,845.0,0.25,55,63.51
5639,A3,845.0,0.5,43,63.51
5640,G#5,845.25,0.25,51,63.51
5641,A5,845.5,0.25,55,63.51
5642,F#4,845.5,0.5,35,63.51
5643,G#5,845.75,0.25,51,63.51
5644,B5,846.0,0.25,54,63.51
5645,D4,846.0,0.5,37,63.51
5646,A5,846.25,0.25,55,63.51
5647,G#5,846.5,0.25,56,63.51
5648,F#4,846.5,0.5,39,63.51
5649,F#5,846.75,0.25,58,63.51
5650,F#5,847.0,0.25,59,63.51
5651,A3,847.0,0.5,44,63.51
5652,E5,847.25,0.25,54,63.51
5653,E-5,847.5,0.25,58,63.51
5654,E4,847.5,0.5,35,63.51
5655,E5,847.75,0.25,52,63.51
5656,E-5,848.0,0.25,54,63.51
5657,C#4,848.0,0.5,35,63.51
5658,E5,848.25,0.25,50,63.51
5659,E-5,848.5,0.25,55,63.51
5660,E4,848.5,0.5,35,63.51
5661,E5,848.75,0.25,51,63.51
5662,A2,848.812,0.188,55,63.51
5663,C#3,848.875,0.125,59,63.51
5664,E3,848.938,0.062,65,63.51
5665,E5,849.0,0.25,74,63.51
5666,A3,849.0,0.5,68,63.51
5667,A2,849.0,0.5,55,63.51
5668,C#3,849.0,0.5,59,63.51
5669,E3,849.0,0.5,65,63.51
5670,A5,849.25,0.25,72,63.51
5671,C#6,849.5,0.25,75,63.51
5672,B5,849.75,0.25,71,63.51
5673,A5,850.0,0.25,74,63.51
5674,G#5,850.25,0.25,74,63.51
5675,F#5,850.5,0.25,73,63.51
5676,E5,850.75,0.25,72,63.51
5677,B2,850.812,0.688,55,63.51
5678,D3,850.875,0.625,59,63.51
5679,G#3,850.938,0.562,65,63.51
5680,D5,851.0,0.25,74,63.51
5681,B3,851.0,0.5,68,63.51
5682,G#5,851.25,0.25,69,63.51
5683,B5,851.5,0.25,77,63.51
5684,A5,851.75,0.25,73,63.51
5685,G#5,852.0,0.25,76,63.51
5686,F#5,852.25,0.25,74,63.51
5687,E5,852.5,0.25,73,63.51
5688,D5,852.75,0.25,71,63.51
5689,C#3,852.812,0.188,59,63.51
5690,E3,852.875,0.125,61,63.51
5691,A3,852.938,0.062,66,63.51
5692,C#5,853.0,11/40,73,63.51
5693,C#4,853.0,0.5,68,63.51
5694,C#3,853.0,0.5,59,63.51
5695,E3,853.0,0.5,61,63.51
5696,A3,853.0,479/1000,66,63.51
5697,E5,853.25,11/40,70,63.51
5698,A5,853.5,11/40,73,63.51
5699,G#5,853.75,11/40,70,63.51
5700,D3,853.812,0.688,59,63.51
5701,F#3,853.875,0.625,61,63.51
5702,B3,853.938,271/500,66,63.51
5703,F#5,854.0,11/40,73,63.51
5704,D4,854.0,0.5,68,63.51
5705,E5,854.25,11/40,71,63.51
5706,D5,854.5,11/40,73,63.51
5707,C#5,854.75,11/40,70,63.51
5708,E3,854.812,0.688,55,63.51
5709,G#3,854.875,0.625,65,63.51
5710,B3,854.938,0.562,59,63.51
5711,B4,855.0,11/40,72,63.51
5712,E4,855.0,0.5,68,63.51
5713,A4,855.25,11/40,68,63.51
5714,G#4,855.5,11/40,66,63.51
5715,F#4,855.75,11/40,64,63.51
5716,E4,856.0,0.25,61,63.51
5717,D4,856.25,0.25,47,63.51
5718,C#4,856.5,0.25,44,63.51
5719,B3,856.75,0.25,41,63.51
5720,C#5,857.0,0.125,50,63.51
5721,A3,857.0,0.5,41,63.51
5722,D5,857.438,0.062,47,63.51
5723,C#5,857.5,0.25,47,63.51
5724,E4,857.5,0.5,32,63.51
5725,B4,857.75,0.25,52,63.51
5726,C#5,858.0,0.125,47,63.51
5727,B3,858.0,0.5,37,63.51
5728,D5,858.5,0.125,51,63.51
5729,E4,858.5,0.5,32,63.51
5730,F#5,859.0,0.5,53,63.51
5731,C#4,859.0,0.5,42,63.51
5732,E5,859.5,0.5,46,63.51
5733,E4,859.5,0.5,33,63.51
5734,D5,860.0,0.125,51,63.51
5735,A3,860.0,0.5,36,63.51
5736,C#5,860.5,0.125,49,63.51
5737,E4,860.5,0.5,33,63.51
5738,B4,861.0,0.125,50,63.51
5739,G#3,861.0,0.5,42,63.51
5740,C#5,861.438,0.062,46,63.51
5741,B4,861.5,0.25,46,63.51
5742,E4,861.5,0.5,33,63.51
5743,B-4,861.75,0.25,50,63.51
5744,B4,862.0,0.125,46,63.51
5745,A3,862.0,0.5,36,63.51
5746,C#5,862.5,0.125,47,63.51
5747,E4,862.5,0.5,33,63.51
5748,E5,863.0,0.5,50,63.51
5749,B3,863.0,0.5,42,63.51
5750,D5,863.5,0.5,47,63.51
5751,E4,863.5,0.5,31,63.51
5752,C#5,864.0,0.125,47,63.51
5753,G#3,864.0,0.5,35,63.51
5754,B4,864.5,0.125,47,63.51
5755,E4,864.5,0.5,31,63.51
5756,G#4,865.0,0.5,53,63.51
5757,F#3,865.0,0.5,40,63.51
5758,A4,865.5,0.125,50,63.51
5759,E4,865.5,0.5,31,63.51
5760,G#3,866.0,0.5,34,63.51
5761,B4,866.5,0.125,50,63.51
5762,E4,866.5,0.5,31,63.51
5763,A3,867.0,0.5,39,63.51
5764,C5,867.438,0.062,40,63.51
5765,C#5,867.5,0.125,50,63.51
5766,E4,867.5,0.5,31,63.51
5767,D3,868.0,0.5,33,63.51
5768,E5,868.438,0.062,40,63.51
5769,D5,868.5,0.125,50,63.51
5770,B3,868.5,0.5,31,63.51
5771,E3,869.0,0.5,40,63.51
5772,D5,869.438,0.062,40,63.51
5773,C#5,869.5,0.125,50,63.51
5774,A3,869.5,0.5,31,63.51
5775,E3,870.0,0.5,34,63.51
5776,C#5,870.438,0.062,40,63.51
5777,B4,870.5,0.125,50,63.51
5778,G#3,870.5,0.5,31,63.51
5779,B4,871.0,0.5,51,63.51
5780,G#4,871.0,1.0,43,63.51
5781,D4,871.0,1.0,38,63.51
5782,E4,871.0,1.5,29,63.51
5783,A3,871.0,1.5,29,63.51
5784,C5,871.5,0.5,51,63.51
5785,C#4,872.0,0.5,31,63.51
5786,A4,872.0,0.5,44,63.51
5787,C#5,872.0,0.5,44,63.51
5788,C#5,873.0,0.25,82,63.51
5789,A2,873.0,0.25,66,63.51
5790,A4,873.25,0.25,66,63.51
5791,C#3,873.25,0.25,56,63.51
5792,E5,873.5,0.25,81,63.51
5793,E3,873.5,0.25,55,63.51
5794,C#5,873.75,0.25,66,63.51
5795,A3,873.75,0.25,55,63.51
5796,D5,874.0,0.25,85,63.51
5797,B2,874.0,0.25,66,63.51
5798,B4,874.25,0.25,66,63.51
5799,D3,874.25,0.25,56,63.51
5800,F#5,874.5,0.25,79,63.51
5801,G#3,874.5,0.25,56,63.51
5802,D5,874.75,0.25,66,63.51
5803,B3,874.75,0.25,56,63.51
5804,E5,875.0,0.25,82,63.51
5805,C#3,875.0,0.25,66,63.51
5806,C#5,875.25,0.25,69,63.51
5807,E3,875.25,0.25,55,63.51
5808,A5,875.5,0.25,74,63.51
5809,A3,875.5,0.25,55,63.51
5810,E5,875.75,0.25,69,63.51
5811,C#4,875.75,0.25,55,63.51
5812,G#5,876.0,0.25,83,63.51
5813,D3,876.0,0.25,66,63.51
5814,F#5,876.25,0.25,71,63.51
5815,F#3,876.25,0.25,53,63.51
5816,E5,876.5,0.25,71,63.51
5817,B3,876.5,0.25,53,63.51
5818,D5,876.75,0.25,71,63.51
5819,D4,876.75,0.25,53,63.51
5820,C#5,877.0,0.25,84,63.51
5821,E3,877.0,0.25,66,63.51
5822,E5,877.25,0.25,69,63.51
5823,A3,877.25,0.25,56,63.51
5824,A4,877.5,0.25,80,63.51
5825,C#4,877.5,0.25,55,63.51
5826,C#5,877.75,0.25,69,63.51
5827,E4,877.75,0.25,55,63.51
5828,B4,878.0,0.25,81,63.51
5829,E2,878.0,0.25,67,63.51
5830,D5,878.25,0.25,69,63.51
5831,G#2,878.25,0.25,56,63.51
5832,G#4,878.5,0.25,81,63.51
5833,B2,878.5,0.25,56,63.51
5834,B4,878.75,0.25,69,63.51
5835,E3,878.75,0.25,56,63.51
5836,A4,879.0,0.25,79,63.51
5837,A2,879.0,0.25,68,63.51
5838,E4,879.25,0.25,69,63.51
5839,C#3,879.25,0.25,57,63.51
5840,C#4,879.5,0.25,69,63.51
5841,E3,879.5,0.25,57,63.51
5842,E4,879.75,0.25,69,63.51
5843,A3,879.75,0.25,57,63.51
5844,A4,880.0,0.875,82,63.51
5845,A2,880.0,0.875,67,63.51
5846,A4,881.0,0.25,55,63.51
5847,A3,881.0,0.5,40,63.51
5848,B4,881.25,0.25,49,63.51
5849,C#5,881.5,0.25,50,63.51
5850,E4,881.5,0.5,36,63.51
5851,D5,881.75,0.25,50,63.51
5852,E5,882.0,0.25,51,63.51
5853,C#4,882.0,0.5,36,63.51
5854,F#5,882.25,0.25,52,63.51
5855,G#5,882.5,0.25,53,63.51
5856,E4,882.5,0.5,36,63.51
5857,A5,882.75,0.25,54,63.51
5858,G#5,883.0,0.25,56,63.51
5859,A3,883.0,0.5,43,63.51
5860,F#5,883.25,0.25,50,63.51
5861,F5,883.5,0.25,52,63.51
5862,F#4,883.5,0.5,35,63.51
5863,F#5,883.75,0.25,50,63.51
5864,F5,884.0,0.25,52,63.51
5865,D4,884.0,0.5,35,63.51
5866,F#5,884.25,0.25,50,63.51
5867,F5,884.5,0.25,52,63.51
5868,F#4,884.5,0.5,35,63.51
5869,F#5,884.75,0.25,50,63.51
5870,A5,885.0,0.25,55,63.51
5871,A3,885.0,0.5,43,63.51
5872,G#5,885.25,0.25,51,63.51
5873,A5,885.5,0.25,55,63.51
5874,F#4,885.5,0.5,35,63.51
5875,G#5,885.75,0.25,51,63.51
5876,B5,886.0,0.25,54,63.51
5877,D4,886.0,0.5,37,63.51
5878,A5,886.25,0.25,55,63.51
5879,G#5,886.5,0.25,56,63.51
5880,F#4,886.5,0.5,39,63.51
5881,F#5,886.75,0.25,58,63.51
5882,F#5,887.0,0.25,59,63.51
5883,A3,887.0,0.5,44,63.51
5884,E5,887.25,0.25,54,63.51
5885,E-5,887.5,0.25,58,63.51
5886,E4,887.5,0.5,35,63.51
5887,E5,887.75,0.25,52,63.51
5888,E-5,888.0,0.25,54,63.51
5889,C#4,888.0,0.5,35,63.51
5890,E5,888.25,0.25,50,63.51
5891,E-5,888.5,0.25,55,63.51
5892,E4,888.5,0.5,35,63.51
5893,E5,888.75,0.25,51,63.51
5894,A2,888.812,0.188,55,63.51
5895,C#3,888.875,0.125,59,63.51
5896,E3,888.938,0.062,65,63.51
5897,E5,889.0,0.25,74,63.51
5898,A3,889.0,0.5,68,63.51
5899,A2,889.0,0.5,55,63.51
5900,C#3,889.0,0.5,59,63.51
5901,E3,889.0,0.5,65,63.51
5902,A5,889.25,0.25,72,63.51
5903,C#6,889.5,0.25,75,63.51
5904,B5,889.75,0.25,71,63.51
5905,A5,890.0,0.25,74,63.51
5906,G#5,890.25,0.25,74,63.51
5907,F#5,890.5,0.25,73,63.51
5908,E5,890.75,0.25,72,63.51
5909,B2,890.812,0.688,55,63.51
5910,D3,890.875,0.625,59,63.51
5911,G#3,890.938,0.562,65,63.51
5912,D5,891.0,0.25,74,63.51
5913,B3,891.0,0.5,68,63.51
5914,G#5,891.25,0.25,69,63.51
5915,B5,891.5,0.25,77,63.51
5916,A5,891.75,0.25,73,63.51
5917,G#5,892.0,0.25,76,63.51
5918,F#5,892.25,0.25,74,63.51
5919,E5,892.5,0.25,73,63.51
5920,D5,892.75,0.25,71,63.51
5921,C#3,892.812,0.188,53,63.51
5922,E3,892.875,0.125,56,63.51
5923,A3,892.938,0.062,59,63.51
5924,C#5,893.0,11/40,73,63.51
5925,C#4,893.0,0.5,63,63.51
5926,C#3,893.0,0.5,53,63.51
5927,E3,893.0,0.5,56,63.51
5928,A3,893.0,479/1000,59,63.51
5929,E5,893.25,11/40,70,63.51
5930,A5,893.5,11/40,73,63.51
5931,G#5,893.75,11/40,70,63.51
5932,D3,893.812,0.688,55,63.51
5933,F#3,893.875,0.625,58,63.51
5934,B3,893.938,271/500,60,63.51
5935,F#5,894.0,11/40,73,63.51
5936,D4,894.0,0.5,64,63.51
5937,E5,894.25,11/40,71,63.51
5938,D5,894.5,11/40,73,63.51
5939,C#5,894.75,11/40,70,63.51
5940,E3,894.812,0.688,56,63.51
5941,G#3,894.875,0.625,59,63.51
5942,B3,894.938,0.562,63,63.51
5943,B4,895.0,11/40,72,63.51
5944,E4,895.0,0.5,66,63.51
5945,A4,895.25,11/40,68,63.51
5946,G#4,895.5,11/40,66,63.51
5947,F#4,895.75,11/40,64,63.51
5948,E4,896.0,0.25,61,63.51
5949,D4,896.25,0.25,47,63.51
5950,C#4,896.5,0.25,44,63.51
5951,B3,896.75,0.25,41,63.51
5952,C#5,897.0,0.125,50,63.51
5953,A3,897.0,0.5,41,63.51
5954,D5,897.438,0.062,47,63.51
5955,C#5,897.5,0.25,47,63.51
5956,E4,897.5,0.5,32,63.51
5957,B4,897.75,0.25,52,63.51
5958,C#5,898.0,0.125,47,63.51
5959,B3,898.0,0.5,37,63.51
5960,D5,898.5,0.125,51,63.51
5961,E4,898.5,0.5,32,63.51
5962,F#5,899.0,0.5,53,63.51
5963,C#4,899.0,0.5,42,63.51
5964,E5,899.5,0.5,46,63.51
5965,E4,899.5,0.5,33,63.51
5966,D5,900.0,0.125,51,63.51
5967,A3,900.0,0.5,36,63.51
5968,C#5,900.5,0.125,49,63.51
5969,E4,900.5,0.5,33,63.51
5970,B4,901.0,0.125,50,63.51
5971,G#3,901.0,0.5,42,63.51
5972,C#5,901.438,0.062,46,63.51
5973,B4,901.5,0.25,46,63.51
5974,E4,901.5,0.5,33,63.51
5975,B-4,901.75,0.25,50,63.51
5976,B4,902.0,0.125,46,63.51
5977,A3,902.0,0.5,36,63.51
5978,C#5,902.5,0.125,47,63.51
5979,E4,902.5,0.5,33,63.51
5980,E5,903.0,0.5,50,63.51
5981,B3,903.0,0.5,42,63.51
5982,D5,903.5,0.5,47,63.51
5983,E4,903.5,0.5,31,63.51
5984,C#5,904.0,0.125,47,63.51
5985,G#3,904.0,0.5,35,63.51
5986,B4,904.5,0.125,47,63.51
5987,E4,904.5,0.5,31,63.51
5988,G#4,905.0,0.5,53,63.51
5989,F#3,905.0,0.5,40,63.51
5990,A4,905.5,0.125,50,63.51
5991,E4,905.5,0.5,31,63.51
5992,G#3,906.0,0.5,34,63.51
5993,B4,906.5,0.125,50,63.51
5994,E4,906.5,0.5,31,63.51
5995,A3,907.0,0.5,39,63.51
5996,C5,907.438,0.062,40,63.51
5997,C#5,907.5,0.125,50,63.51
5998,E4,907.5,0.5,31,63.51
5999,D3,908.0,0.5,33,63.51
6000,E5,908.438,0.062,40,63.51
6001,D5,908.5,0.125,50,63.51
6002,B3,908.5,0.5,31,63.51
6003,E3,909.0,0.5,40,63.51
6004,D5,909.438,0.062,40,63.51
6005,C#5,909.5,0.125,50,63.51
6006,A3,909.5,0.5,31,63.51
6007,E3,910.0,0.5,34,63.51
6008,C#5,910.438,0.062,40,63.51
6009,B4,910.5,0.125,50,63.51
6010,G#3,910.5,0.5,31,63.51
6011,B4,911.0,0.5,51,63.51
6012,G#4,911.0,1.0,43,63.51
6013,D4,911.0,1.0,38,63.51
6014,E4,911.0,1.5,29,63.51
6015,A3,911.0,1.5,29,63.51
6016,C5,911.5,0.5,51,63.51
6017,C#4,912.0,0.5,31,63.51
6018,A4,912.0,0.5,44,63.51
6019,C#5,912.0,0.5,44,63.51
6020,C#5,913.0,0.25,82,63.51
6021,A2,913.0,0.25,66,63.51
6022,A4,913.25,0.25,66,63.51
6023,C#3,913.25,0.25,56,63.51
6024,E5,913.5,0.25,81,63.51
6025,E3,913.5,0.25,55,63.51
6026,C#5,913.75,0.25,66,63.51
6027,A3,913.75,0.25,55,63.51
6028,D5,914.0,0.25,85,63.51
6029,B2,914.0,0.25,66,63.51
6030,B4,914.25,0.25,66,63.51
6031,D3,914.25,0.25,56,63.51
6032,F#5,914.5,0.25,79,63.51
6033,G#3,914.5,0.25,56,63.51
6034,D5,914.75,0.25,66,63.51
6035,B3,914.75,0.25,56,63.51
6036,E5,915.0,0.25,82,63.51
6037,C#3,915.0,0.25,66,63.51
6038,C#5,915.25,0.25,69,63.51
6039,E3,915.25,0.25,55,63.51
6040,A5,915.5,0.25,74,63.51
6041,A3,915.5,0.25,55,63.51
6042,E5,915.75,0.25,69,63.51
6043,C#4,915.75,0.25,55,63.51
6044,G#5,916.0,0.25,83,63.51
6045,D3,916.0,0.25,66,63.51
6046,F#5,916.25,0.25,71,63.51
6047,F#3,916.25,0.25,53,63.51
6048,E5,916.5,0.25,71,63.51
6049,B3,916.5,0.25,53,63.51
6050,D5,916.75,0.25,71,63.51
6051,D4,916.75,0.25,53,63.51
6052,C#5,917.0,0.25,84,63.51
6053,E3,917.0,0.25,66,63.51
6054,E5,917.25,0.25,69,63.51
6055,A3,917.25,0.25,56,63.51
6056,A4,917.5,0.25,80,63.51
6057,C#4,917.5,0.25,55,63.51
6058,C#5,917.75,0.25,69,63.51
6059,E4,917.75,0.25,55,63.51
6060,B4,918.0,0.25,81,63.51
6061,E3,918.0,0.25,67,63.51
6062,D5,918.25,0.25,69,63.51
6063,G#3,918.25,0.25,56,63.51
6064,G#4,918.5,0.25,81,63.51
6065,B3,918.5,0.25,56,63.51
6066,B4,918.75,229/1000,69,63.51
6067,D4,918.75,229/1000,56,63.51
6068,A4,919.0,0.25,51,63.51
6069,A3,919.0,0.5,40,63.51
6070,C#4,919.0,0.5,40,63.51
6071,B4,919.25,0.25,49,63.51
6072,C#5,919.5,0.25,50,63.51
6073,C#4,919.5,19/40,33,63.51
6074,E4,919.5,19/40,33,63.51
6075,D5,919.75,0.25,51,63.51
6076,E5,920.0,0.25,52,63.51
6077,C#4,920.0,19/40,33,63.51
6078,E4,920.0,19/40,33,63.51
6079,F#5,920.25,0.25,53,63.51
6080,G#5,920.5,0.25,54,63.51
6081,C#4,920.5,229/500,31,63.51
6082,E4,920.5,229/500,31,63.51
6083,A5,920.75,26/125,55,63.51
6084,G#5,921.0,0.25,55,63.51
6085,A3,921.0,0.5,41,63.51
6086,F#5,921.25,0.25,51,63.51
6087,F5,921.5,0.25,55,63.51
6088,D4,921.5,19/40,30,63.51
6089,F#4,921.5,19/40,30,63.51
6090,F#5,921.75,0.25,51,63.51
6091,B5,922.0,0.25,48,63.51
6092,D4,922.0,19/40,30,63.51
6093,F#4,922.0,19/40,30,63.51
6094,A5,922.25,0.25,50,63.51
6095,G#5,922.5,0.125,52,63.51
6096,D4,922.5,0.5,30,63.51
6097,F#4,922.5,0.5,30,63.51
6098,F#5,922.75,0.125,54,63.51
6099,F#5,923.0,0.25,56,63.51
6100,A3,923.0,0.5,37,63.51
6101,E5,923.25,0.25,47,63.51
6102,E-5,923.5,0.25,54,63.51
6103,C#4,923.5,19/40,30,63.51
6104,E4,923.5,19/40,30,63.51
6105,E5,923.75,0.25,47,63.51
6106,A4,924.0,0.25,52,63.51
6107,C#4,924.0,19/40,30,63.51
6108,E4,924.0,19/40,30,63.51
6109,C#5,924.25,0.25,46,63.51
6110,E5,924.5,0.25,52,63.51
6111,C#4,924.5,0.5,30,63.51
6112,E4,924.5,0.5,30,63.51
6113,A5,924.75,0.25,46,63.51
6114,G#5,925.0,0.25,55,63.51
6115,A3,925.0,0.5,41,63.51
6116,F#5,925.25,0.25,51,63.51
6117,F5,925.5,0.25,55,63.51
6118,D4,925.5,19/40,30,63.51
6119,F#4,925.5,19/40,30,63.51
6120,F#5,925.75,0.25,51,63.51
6121,B5,926.0,0.25,48,63.51
6122,D4,926.0,19/40,30,63.51
6123,F#4,926.0,19/40,30,63.51
6124,A5,926.25,0.25,50,63.51
6125,G#5,926.5,0.125,52,63.51
6126,D4,926.5,0.5,30,63.51
6127,F#4,926.5,0.5,30,63.51
6128,F#5,926.75,0.125,54,63.51
6129,E5,927.0,371/500,52,63.51
6130,A3,927.0,0.5,41,63.51
6131,C#4,927.0,0.5,41,63.51
6132,E4,927.0,0.5,41,63.51
6133,E5,927.75,0.125,52,63.51
6134,F#5,927.875,21/500,38,63.51
6135,E5,927.875,21/500,38,63.51
6136,E-5,927.958,21/500,37,63.51
6137,E5,928.0,1.0,52,63.51
6138,D3,929.0,0.5,41,63.51
6139,B3,929.0,0.5,41,63.51
6140,D5,929.75,0.125,52,63.51
6141,E5,929.875,21/500,35,63.51
6142,D5,929.875,21/500,35,63.51
6143,C#5,929.958,21/500,35,63.51
6144,D5,930.0,1.0,52,63.51
6145,E3,931.0,0.5,41,63.51
6146,A3,931.0,0.5,41,63.51
6147,C#5,931.75,0.125,52,63.51
6148,D5,931.875,21/500,36,63.51
6149,C#5,931.875,21/500,36,63.51
6150,B4,931.958,21/500,36,63.51
6151,C#5,932.0,1.0,52,63.51
6152,D3,933.0,0.5,41,63.51
6153,G#3,933.0,0.5,41,63.51
6154,B4,933.75,0.125,52,63.51
6155,C#5,933.875,21/500,35,63.51
6156,B4,933.875,21/500,35,63.51
6157,A4,933.958,21/500,35,63.51
6158,B4,934.0,1.0,52,63.51
6159,C#3,935.0,0.5,63,63.51
6160,A3,935.0,0.5,63,63.51
6161,E5,935.25,0.25,60,63.51
6162,E-5,935.5,0.25,71,63.51
6163,E5,935.75,0.25,64,63.51
6164,F#5,936.0,0.25,71,63.51
6165,E5,936.25,0.25,64,63.51
6166,E-5,936.5,0.25,64,63.51
6167,E5,936.75,0.25,64,63.51
6168,D3,937.0,0.5,63,63.51
6169,B3,937.0,0.5,63,63.51
6170,D5,937.25,0.25,60,63.51
6171,C#5,937.5,0.25,71,63.51
6172,D5,937.75,0.25,64,63.51
6173,E5,938.0,0.25,71,63.51
6174,D5,938.25,0.25,64,63.51
6175,C#5,938.5,0.25,64,63.51
6176,D5,938.75,0.25,64,63.51
6177,E3,939.0,0.5,63,63.51
6178,A3,939.0,0.5,63,63.51
6179,C#5,939.25,0.25,60,63.51
6180,C5,939.5,0.25,71,63.51
6181,C#5,939.75,0.25,64,63.51
6182,D5,940.0,0.25,71,63.51
6183,C#5,940.25,0.25,64,63.51
6184,C5,940.5,0.25,64,63.51
6185,C#5,940.75,0.25,64,63.51
6186,E3,941.0,0.5,63,63.51
6187,G#3,941.0,0.5,63,63.51
6188,B4,941.25,0.25,60,63.51
6189,B-4,941.5,0.25,71,63.51
6190,B4,941.75,0.25,64,63.51
6191,C#5,942.0,0.25,71,63.51
6192,B4,942.25,0.25,64,63.51
6193,B-4,942.5,0.25,64,63.51
6194,B4,942.75,0.25,64,63.51
6195,A4,943.0,0.25,73,63.51
6196,A3,943.0,1.0,63,63.51
6197,C#5,943.5,0.25,50,63.51
6198,A4,943.75,0.25,49,63.51
6199,E5,944.0,0.25,55,63.51
6200,D5,944.25,0.25,48,63.51
6201,B4,944.5,0.125,48,63.51
6202,G#4,944.75,0.125,47,63.51
6203,A4,945.0,1.0,60,63.51
6204,G#4,946.0,0.25,71,63.51
6205,B4,946.0,0.25,71,63.51
6206,E5,946.0,0.25,71,63.51
6207,E3,946.0,0.25,64,63.51
6208,G#3,946.0,0.25,64,63.51
6209,B3,946.0,0.25,64,63.51
6210,E4,946.0,0.25,64,63.51
6211,A4,947.0,0.25,76,63.51
6212,C#5,947.0,0.25,76,63.51
6213,E5,947.0,0.25,76,63.51
6214,A5,947.0,0.25,76,63.51
6215,A2,947.0,0.25,70,63.51
6216,C#3,947.0,0.25,70,63.51
6217,E3,947.0,0.25,70,63.51
6218,A3,947.0,0.25,70,63.51
6219,C#5,947.5,271/1000,52,63.51
6220,A4,947.75,0.25,50,63.51
6221,E5,948.0,0.25,57,63.51
6222,D5,948.25,0.25,50,63.51
6223,B4,948.5,0.125,50,63.51
6224,G#4,948.75,0.125,50,63.51
6225,A4,949.0,0.25,62,63.51
6226,G#4,950.0,0.25,74,63.51
6227,B4,950.0,0.25,74,63.51
6228,E5,950.0,0.25,74,63.51
6229,E3,950.0,0.25,66,63.51
6230,G#3,950.0,0.25,66,63.51
6231,B3,950.0,0.25,66,63.51
6232,E4,950.0,0.25,66,63.51
6233,A4,951.0,0.25,78,63.51
6234,C#5,951.0,0.25,78,63.51
6235,E5,951.0,0.25,78,63.51
6236,A5,951.0,0.25,78,63.51
6237,A2,951.0,0.25,73,63.51
6238,C#3,951.0,0.25,73,63.51
6239,E3,951.0,0.25,73,63.51
6240,A3,951.0,0.25,73,63.51
