,note_name,start_time,duration,velocity,tempo
0,C5,1.5,0.5,50,50.24
1,C5,2.0,0.5,50,50.24
2,C5,2.5,0.5,50,50.24
3,C5,3.0,0.25,52,50.24
4,F3,3.0,2.0,31,50.24
5,A3,3.0,2.0,31,50.24
6,C4,3.0,2.0,31,50.24
7,D5,3.25,83/1000,47,50.24
8,C5,3.333,83/1000,46,50.24
9,B4,3.417,83/1000,46,50.24
10,C5,3.5,0.25,52,50.24
11,F5,3.75,0.25,40,50.24
12,C5,4.0,0.25,44,50.24
13,A4,4.5,0.5,43,50.24
14,C5,5.0,0.5,48,50.24
15,G3,5.0,1.0,28,50.24
16,B-3,5.0,1.0,28,50.24
17,C3,5.0,1.0,28,50.24
18,E4,5.5,0.5,44,50.24
19,G4,6.0,1.0,53,50.24
20,D3,6.0,1.5,37,50.24
21,B-3,6.0,1.0,37,50.24
22,F4,7.0,0.5,48,50.24
23,A3,7.0,0.5,37,50.24
24,C4,7.5,0.5,56,50.24
25,F4,7.5,0.5,56,50.24
26,A2,7.5,0.5,57,50.24
27,A3,7.5,0.5,57,50.24
28,E4,8.0,0.5,63,50.24
29,G4,8.0,0.5,63,50.24
30,G2,8.0,0.5,59,50.24
31,G3,8.0,0.5,59,50.24
32,C4,8.5,0.5,56,50.24
33,F4,8.5,0.5,56,50.24
34,A4,8.5,0.5,56,50.24
35,F2,8.5,0.5,57,50.24
36,F3,8.5,0.5,57,50.24
37,F4,9.0,0.75,70,50.24
38,B-4,9.0,0.75,70,50.24
39,D4,9.0,0.5,52,50.24
40,D3,9.0,0.5,52,50.24
41,B-2,9.5,0.5,44,50.24
42,B-3,9.5,0.5,44,50.24
43,C5,9.75,0.125,61,50.24
44,D5,9.875,0.125,57,50.24
45,C5,10.0,0.25,55,50.24
46,A3,10.0,0.25,23,50.24
47,A2,10.0,0.25,23,50.24
48,F4,10.5,0.5,46,50.24
49,B3,11.0,1.0,25,50.24
50,E4,11.0,0.5,52,50.24
51,D3,11.0,1.0,29,50.24
52,F4,11.5,0.5,46,50.24
53,C4,12.0,2.0,32,50.24
54,C3,12.0,2.0,27,50.24
55,F4,12.0,1.0,40,50.24
56,A4,12.0,1.0,40,50.24
57,G4,13.0,0.5,34,50.24
58,E4,13.0,0.5,34,50.24
59,G4,13.5,0.5,54,50.24
60,G4,14.0,0.5,59,50.24
61,C4,14.0,1.0,39,50.24
62,E4,14.0,1.0,39,50.24
63,G4,14.5,0.375,65,50.24
64,G4,14.875,0.125,66,50.24
65,G5,15.0,0.75,74,50.24
66,B3,15.0,2.0,51,50.24
67,F4,15.0,2.0,51,50.24
68,D4,15.0,2.0,51,50.24
69,D5,15.75,0.125,50,50.24
70,B4,15.875,0.125,46,50.24
71,G4,16.0,0.5,48,50.24
72,G4,16.5,0.5,55,50.24
73,G4,17.0,0.5,63,50.24
74,E4,17.0,1.0,43,50.24
75,C4,17.0,1.0,43,50.24
76,G4,17.5,0.375,69,50.24
77,G4,17.875,0.125,68,50.24
78,G5,18.0,1.375,73,50.24
79,F3,18.0,1.0,52,50.24
80,B3,18.0,1.0,52,50.24
81,D3,18.0,1.0,52,50.24
82,G3,19.0,1.0,37,50.24
83,C4,19.0,1.0,37,50.24
84,E3,19.0,1.0,37,50.24
85,A5,19.375,0.062,56,50.24
86,B5,19.438,0.062,49,50.24
87,C6,19.5,0.25,55,50.24
88,B5,19.75,0.25,49,50.24
89,A5,20.0,0.25,55,50.24
90,G5,20.25,0.25,46,50.24
91,F5,20.5,0.25,51,50.24
92,E5,20.75,0.25,47,50.24
93,C#5,21.0,0.25,52,50.24
94,D5,21.25,0.25,48,50.24
95,F5,21.5,0.25,49,50.24
96,A3,21.5,0.5,30,50.24
97,D4,21.5,0.5,30,50.24
98,F3,21.5,0.5,30,50.24
99,A5,21.75,0.25,46,50.24
100,C5,22.0,1.5,54,50.24
101,G3,22.0,2.0,25,50.24
102,C4,22.0,1.0,26,50.24
103,E4,22.0,1.0,26,50.24
104,F4,23.0,1.0,24,50.24
105,D4,23.0,1.0,24,50.24
106,E5,23.5,0.25,48,50.24
107,B4,23.5,0.5,37,50.24
108,D5,23.75,0.25,47,50.24
109,C5,24.0,1.0,47,50.24
110,C4,24.0,1.0,32,50.24
111,E4,24.0,1.0,32,50.24
112,C3,25.0,0.5,26,50.24
113,C5,25.5,0.5,50,50.24
114,C5,26.0,0.5,50,50.24
115,C5,26.5,0.5,50,50.24
116,C5,27.0,0.25,52,50.24
117,F3,27.0,2.0,31,50.24
118,A3,27.0,2.0,31,50.24
119,C4,27.0,2.0,31,50.24
120,D5,27.25,83/1000,47,50.24
121,C5,27.333,83/1000,46,50.24
122,B4,27.417,83/1000,46,50.24
123,C5,27.5,0.25,52,50.24
124,F5,27.75,0.25,43,50.24
125,C5,28.0,0.25,47,50.24
126,A4,28.5,0.5,47,50.24
127,C5,29.0,0.5,48,50.24
128,C3,29.0,1.0,28,50.24
129,G3,29.0,1.0,28,50.24
130,B-3,29.0,1.0,28,50.24
131,E4,29.5,0.5,45,50.24
132,G4,30.0,1.0,54,50.24
133,D3,30.0,1.5,37,50.24
134,B-3,30.0,1.0,37,50.24
135,F4,31.0,0.5,48,50.24
136,A3,31.0,0.5,37,50.24
137,C4,31.5,0.5,56,50.24
138,F4,31.5,0.5,56,50.24
139,A2,31.5,0.5,57,50.24
140,A3,31.5,0.5,57,50.24
141,E4,32.0,0.5,63,50.24
142,G4,32.0,0.5,63,50.24
143,G2,32.0,0.5,59,50.24
144,G3,32.0,0.5,59,50.24
145,F4,32.5,0.5,56,50.24
146,C4,32.5,0.5,56,50.24
147,A4,32.5,0.5,56,50.24
148,F2,32.5,0.5,57,50.24
149,F3,32.5,0.5,57,50.24
150,F4,33.0,0.75,70,50.24
151,B-4,33.0,0.75,70,50.24
152,D3,33.0,0.5,52,50.24
153,D4,33.0,0.5,52,50.24
154,B-2,33.5,0.5,45,50.24
155,B-3,33.5,0.5,45,50.24
156,C5,33.75,0.125,59,50.24
157,D5,33.875,0.125,56,50.24
158,C5,34.0,0.25,56,50.24
159,A3,34.0,0.25,29,50.24
160,F4,34.5,0.5,47,50.24
161,B3,35.0,1.0,31,50.24
162,E4,35.0,0.5,52,50.24
163,D3,35.0,1.0,34,50.24
164,F4,35.5,0.5,45,50.24
165,C4,36.0,2.0,32,50.24
166,C3,36.0,2.0,27,50.24
167,F4,36.0,1.0,40,50.24
168,A4,36.0,1.0,40,50.24
169,E4,37.0,0.5,38,50.24
170,G4,37.0,0.5,38,50.24
171,G4,37.5,0.5,54,50.24
172,G4,38.0,0.5,59,50.24
173,C4,38.0,1.0,39,50.24
174,E4,38.0,1.0,39,50.24
175,G4,38.5,0.375,65,50.24
176,G4,38.875,0.125,66,50.24
177,G5,39.0,0.75,74,50.24
178,B3,39.0,2.0,51,50.24
179,D4,39.0,2.0,51,50.24
180,F4,39.0,2.0,51,50.24
181,D5,39.75,0.125,50,50.24
182,B4,39.875,0.125,46,50.24
183,G4,40.0,0.5,51,50.24
184,G4,40.5,0.5,59,50.24
185,G4,41.0,0.5,63,50.24
186,C4,41.0,1.0,43,50.24
187,E4,41.0,1.0,43,50.24
188,G4,41.5,0.375,69,50.24
189,G4,41.875,0.125,68,50.24
190,G5,42.0,1.375,73,50.24
191,D3,42.0,1.0,52,50.24
192,F3,42.0,1.0,52,50.24
193,B3,42.0,1.0,52,50.24
194,E3,43.0,1.0,37,50.24
195,G3,43.0,1.0,37,50.24
196,C4,43.0,1.0,37,50.24
197,A5,43.375,0.062,56,50.24
198,B5,43.438,0.062,49,50.24
199,C6,43.5,0.25,53,50.24
200,B5,43.75,0.25,49,50.24
201,A5,44.0,0.25,52,50.24
202,G5,44.25,0.25,49,50.24
203,F5,44.5,0.25,51,50.24
204,E5,44.75,0.25,50,50.24
205,C#5,45.0,0.25,52,50.24
206,D5,45.25,0.25,48,50.24
207,F5,45.5,0.25,49,50.24
208,D4,45.5,0.5,30,50.24
209,A3,45.5,0.5,30,50.24
210,F3,45.5,0.5,30,50.24
211,A5,45.75,0.25,48,50.24
212,C5,46.0,1.5,54,50.24
213,G3,46.0,2.0,24,50.24
214,E4,46.0,1.0,26,50.24
215,C4,46.0,1.0,26,50.24
216,F4,47.0,1.0,24,50.24
217,D4,47.0,1.0,24,50.24
218,E5,47.5,0.25,48,50.24
219,B4,47.5,0.5,43,50.24
220,D5,47.75,0.25,47,50.24
221,C5,48.0,1.0,47,50.24
222,E4,48.0,1.0,32,50.24
223,C4,48.0,1.0,32,50.24
224,C3,49.0,0.5,27,50.24
225,C5,49.5,0.5,50,50.24
226,D5,50.0,271/1000,54,50.24
227,C5,50.25,271/1000,50,50.24
228,B-4,50.5,271/1000,55,50.24
229,A4,50.75,0.25,49,50.24
230,G4,51.0,1.0,61,50.24
231,A4,51.0,21/1000,49,50.24
232,C4,51.0,1.5,44,50.24
233,E-4,51.0,1.5,44,50.24
234,F#4,52.0,0.5,51,50.24
235,F#4,52.5,0.5,63,50.24
236,E-4,52.5,0.5,46,50.24
237,C4,52.5,0.5,46,50.24
238,G4,53.0,0.5,65,50.24
239,D4,53.0,0.5,47,50.24
240,B-3,53.0,0.5,47,50.24
241,F#4,53.5,0.375,59,50.24
242,A4,53.5,0.375,59,50.24
243,A3,53.5,0.5,47,50.24
244,D4,53.5,0.5,47,50.24
245,C4,53.5,0.5,47,50.24
246,C4,54.0,1.0,50,50.24
247,F#4,54.0,1.0,58,50.24
248,A4,54.0,1.0,58,50.24
249,G3,54.0,1.5,50,50.24
250,D4,54.0,1.5,50,50.24
251,B-3,55.0,9/20,48,50.24
252,G4,55.0,9/20,50,50.24
253,B-4,55.0,9/20,50,50.24
254,E4,55.5,0.5,51,50.24
255,B-3,55.5,0.5,44,50.24
256,C#4,55.5,0.5,44,50.24
257,F4,56.0,0.5,55,50.24
258,C4,56.0,0.5,48,50.24
259,A3,56.0,0.5,48,50.24
260,E4,56.5,0.375,53,50.24
261,G4,56.5,0.375,53,50.24
262,G3,56.5,0.5,45,50.24
263,C4,56.5,0.5,45,50.24
264,B-3,56.5,0.5,45,50.24
265,F4,57.0,2.5,55,50.24
266,A4,57.0,0.5,61,50.24
267,A3,57.0,0.5,48,50.24
268,C4,57.0,0.5,48,50.24
269,F3,57.0,0.5,48,50.24
270,B-4,57.5,0.5,68,50.24
271,D3,57.5,0.5,50,50.24
272,C5,58.0,0.5,67,50.24
273,A2,58.0,1.0,54,50.24
274,C#5,58.5,0.5,70,50.24
275,E5,59.0,271/1000,72,50.24
276,B-2,59.0,0.5,49,50.24
277,D5,59.25,271/1000,58,50.24
278,C5,59.5,271/1000,65,50.24
279,G2,59.5,0.25,46,50.24
280,G4,59.75,0.25,55,50.24
281,B-4,59.75,0.25,55,50.24
282,C3,60.0,2.0,43,50.24
283,F4,60.0,1.0,52,50.24
284,A4,60.0,1.0,52,50.24
285,G4,60.0,21/1000,55,50.24
286,B-4,60.0,21/1000,55,50.24
287,E4,61.0,0.5,46,50.24
288,G4,61.0,0.5,46,50.24
289,C5,61.5,0.5,65,50.24
290,C5,62.0,0.5,66,50.24
291,C5,62.5,0.5,72,50.24
292,C5,63.0,3.0,81,50.24
293,B-5,63.0,1.5,81,50.24
294,C2,63.0,0.75,58,50.24
295,C3,63.0,0.75,58,50.24
296,D2,63.75,0.25,56,50.24
297,D3,63.75,0.25,56,50.24
298,E3,64.0,0.375,58,50.24
299,E2,64.0,0.375,58,50.24
300,A5,64.5,0.5,69,50.24
301,F2,64.5,0.375,44,50.24
302,F3,64.5,0.375,44,50.24
303,G5,65.0,0.5,64,50.24
304,B-4,65.0,0.5,64,50.24
305,G3,65.0,0.375,49,50.24
306,G2,65.0,0.375,49,50.24
307,A4,65.5,0.5,61,50.24
308,F5,65.5,0.5,61,50.24
309,A2,65.5,0.375,46,50.24
310,A3,65.5,0.375,46,50.24
311,F5,66.0,1.0,66,50.24
312,G4,66.0,2.0,55,50.24
313,C5,66.0,2.0,81,50.24
314,B-2,66.0,2.0,49,50.24
315,B-3,66.0,2.0,49,50.24
316,E5,67.0,0.5,56,50.24
317,E-5,67.5,0.5,51,50.24
318,E-5,68.0,0.5,48,50.24
319,E-5,68.5,0.5,47,50.24
320,E-5,69.0,0.062,39,50.24
321,F4,69.0,1.0,39,50.24
322,A3,69.0,1.0,39,50.24
323,C4,69.0,1.0,39,50.24
324,F5,69.062,0.062,40,50.24
325,E-5,69.125,0.062,42,50.24
326,F5,69.188,0.062,42,50.24
327,E-5,69.25,0.062,42,50.24
328,F5,69.312,0.062,42,50.24
329,E-5,69.375,0.062,39,50.24
330,F5,69.438,0.062,38,50.24
331,E-5,69.5,0.25,46,50.24
332,F5,69.75,0.25,50,50.24
333,G5,70.0,0.5,55,50.24
334,F4,70.0,1.0,39,50.24
335,A3,70.0,1.0,39,50.24
336,C4,70.0,1.0,39,50.24
337,F5,70.5,0.25,54,50.24
338,E-5,70.75,0.25,51,50.24
339,E-5,71.0,0.25,53,50.24
340,F4,71.0,1.0,34,50.24
341,A3,71.0,1.0,34,50.24
342,E-4,71.0,1.0,34,50.24
343,D5,71.25,119/500,49,50.24
344,D5,71.5,0.25,52,50.24
345,C#5,71.75,233/1000,50,50.24
346,C#5,72.0,1.0,55,50.24
347,D4,72.0,2.0,24,50.24
348,B-3,72.0,2.0,24,50.24
349,F4,72.0,2.0,24,50.24
350,D5,73.0,0.5,50,50.24
351,F5,73.5,0.25,54,50.24
352,E5,73.75,0.25,51,50.24
353,G5,74.0,0.25,59,50.24
354,F5,74.25,0.25,53,50.24
355,E5,74.5,0.25,54,50.24
356,D5,74.75,233/1000,49,50.24
357,D5,75.0,1.0,49,50.24
358,F3,75.0,2.0,28,50.24
359,B-3,75.0,1.0,32,50.24
360,D4,75.0,1.0,32,50.24
361,C5,76.0,0.5,48,50.24
362,A3,76.0,1.0,30,50.24
363,C4,76.0,1.0,30,50.24
364,F5,76.5,0.375,57,50.24
365,C5,76.875,0.125,51,50.24
366,A5,77.0,0.375,65,50.24
367,F5,77.375,0.125,58,50.24
368,C5,77.5,0.375,66,50.24
369,A4,77.875,0.125,57,50.24
370,C5,78.0,0.75,69,50.24
371,E3,78.0,1.5,43,50.24
372,C4,78.0,1.5,43,50.24
373,G3,78.0,1.5,43,50.24
374,B4,78.75,0.25,55,50.24
375,B-4,79.0,0.5,55,50.24
376,G4,79.5,0.5,75,50.24
377,E4,79.5,0.375,67,50.24
378,B-3,79.5,0.5,45,50.24
379,B-2,79.5,0.5,45,50.24
380,C4,79.875,0.125,64,50.24
381,F4,80.0,0.375,69,50.24
382,A4,80.0,0.5,76,50.24
383,A3,80.0,0.5,47,50.24
384,A2,80.0,0.5,47,50.24
385,C4,80.375,0.125,65,50.24
386,B-4,80.5,0.5,78,50.24
387,G4,80.5,0.375,70,50.24
388,G3,80.5,0.5,47,50.24
389,G2,80.5,0.5,47,50.24
390,C4,80.875,0.125,69,50.24
391,A4,81.0,0.5,70,50.24
392,C5,81.0,0.25,80,50.24
393,F3,81.0,0.5,52,50.24
394,F2,81.0,0.5,52,50.24
395,D5,81.25,0.25,53,50.24
396,E5,81.5,0.25,54,50.24
397,F5,81.75,0.25,47,50.24
398,C3,82.0,2.0,33,50.24
399,A3,82.0,1.0,38,50.24
400,C4,82.0,1.5,44,50.24
401,F4,82.0,1.5,44,50.24
402,B-3,83.0,1.0,32,50.24
403,E4,83.5,0.5,37,50.24
404,A4,83.5,0.25,47,50.24
405,G4,83.75,0.25,44,50.24
406,F4,84.0,1.0,47,50.24
407,F3,84.0,1.0,31,50.24
408,A3,84.0,1.0,31,50.24
409,F2,85.0,0.5,28,50.24
410,C5,85.5,0.5,50,50.24
411,D5,86.0,271/1000,54,50.24
412,C5,86.25,271/1000,50,50.24
413,B-4,86.5,271/1000,55,50.24
414,A4,86.75,0.25,49,50.24
415,G4,87.0,1.0,61,50.24
416,A4,87.0,21/1000,49,50.24
417,E-4,87.0,1.5,46,50.24
418,C4,87.0,1.5,46,50.24
419,F#4,88.0,49/100,51,50.24
420,F#4,88.5,0.5,63,50.24
421,E-4,88.5,0.5,46,50.24
422,C4,88.5,0.5,46,50.24
423,G4,89.0,0.5,65,50.24
424,D4,89.0,0.5,47,50.24
425,B-3,89.0,0.5,47,50.24
426,F#4,89.5,0.375,59,50.24
427,A4,89.5,0.375,59,50.24
428,A3,89.5,0.5,47,50.24
429,C4,89.5,0.5,47,50.24
430,D4,89.5,0.5,47,50.24
431,C4,90.0,1.0,50,50.24
432,F#4,90.0,1.0,58,50.24
433,A4,90.0,1.0,58,50.24
434,D4,90.0,1.5,50,50.24
435,G3,90.0,1.5,50,50.24
436,B-3,91.0,9/20,48,50.24
437,G4,91.0,9/20,50,50.24
438,B-4,91.0,9/20,50,50.24
439,E4,91.5,0.5,51,50.24
440,C#4,91.5,0.5,44,50.24
441,B-3,91.5,0.5,44,50.24
442,F4,92.0,0.5,55,50.24
443,C4,92.0,0.5,48,50.24
444,A3,92.0,0.5,48,50.24
445,E4,92.5,0.375,53,50.24
446,G4,92.5,0.375,53,50.24
447,G3,92.5,0.5,45,50.24
448,B-3,92.5,0.5,45,50.24
449,C4,92.5,0.5,45,50.24
450,F4,93.0,2.5,55,50.24
451,A4,93.0,0.5,61,50.24
452,F3,93.0,0.5,48,50.24
453,A3,93.0,0.5,48,50.24
454,C4,93.0,0.5,48,50.24
455,B-4,93.5,0.5,68,50.24
456,D3,93.5,0.5,50,50.24
457,C5,94.0,0.5,70,50.24
458,A2,94.0,1.0,54,50.24
459,C#5,94.5,0.5,70,50.24
460,E5,95.0,271/1000,70,50.24
461,B-2,95.0,0.5,53,50.24
462,D5,95.25,271/1000,58,50.24
463,C5,95.5,271/1000,65,50.24
464,G2,95.5,0.25,46,50.24
465,G4,95.75,0.25,55,50.24
466,B-4,95.75,0.25,55,50.24
467,C3,96.0,2.0,43,50.24
468,F4,96.0,1.0,52,50.24
469,A4,96.0,1.0,52,50.24
470,G4,96.0,21/1000,55,50.24
471,B-4,96.0,21/1000,55,50.24
472,E4,97.0,0.5,46,50.24
473,G4,97.0,0.5,46,50.24
474,C5,97.5,0.5,65,50.24
475,C5,98.0,0.5,66,50.24
476,C5,98.5,0.5,72,50.24
477,C5,99.0,3.0,81,50.24
478,B-5,99.0,1.5,81,50.24
479,C2,99.0,0.75,58,50.24
480,C3,99.0,0.75,58,50.24
481,D2,99.75,0.25,56,50.24
482,D3,99.75,0.25,56,50.24
483,E2,100.0,0.375,58,50.24
484,E3,100.0,0.375,58,50.24
485,A5,100.5,0.5,69,50.24
486,F2,100.5,0.375,44,50.24
487,F3,100.5,0.375,44,50.24
488,B-4,101.0,0.5,64,50.24
489,G5,101.0,0.5,64,50.24
490,G2,101.0,0.375,49,50.24
491,G3,101.0,0.375,49,50.24
492,A4,101.5,0.5,61,50.24
493,F5,101.5,0.5,61,50.24
494,A2,101.5,0.375,46,50.24
495,A3,101.5,0.375,46,50.24
496,G4,102.0,2.0,60,50.24
497,F5,102.0,1.0,60,50.24
498,C5,102.0,2.0,81,50.24
499,B-2,102.0,2.0,49,50.24
500,B-3,102.0,2.0,49,50.24
501,E5,103.0,0.5,56,50.24
502,E-5,103.5,0.5,51,50.24
503,E-5,104.0,0.5,50,50.24
504,E-5,104.5,0.5,46,50.24
505,E-5,105.0,0.062,40,50.24
506,F4,105.0,1.0,39,50.24
507,C4,105.0,1.0,39,50.24
508,A3,105.0,1.0,39,50.24
509,F5,105.062,0.062,42,50.24
510,E-5,105.125,0.062,43,50.24
511,F5,105.188,0.062,45,50.24
512,E-5,105.25,0.062,45,50.24
513,F5,105.312,0.062,45,50.24
514,E-5,105.375,0.062,43,50.24
515,F5,105.438,0.062,42,50.24
516,E-5,105.5,0.25,47,50.24
517,F5,105.75,0.25,47,50.24
518,G5,106.0,0.5,54,50.24
519,F4,106.0,1.0,39,50.24
520,A3,106.0,1.0,39,50.24
521,C4,106.0,1.0,39,50.24
522,F5,106.5,0.25,54,50.24
523,E-5,106.75,6/25,51,50.24
524,E-5,107.0,0.25,54,50.24
525,F4,107.0,1.0,34,50.24
526,A3,107.0,1.0,34,50.24
527,E-4,107.0,1.0,34,50.24
528,D5,107.25,121/500,49,50.24
529,D5,107.5,0.25,53,50.24
530,C#5,107.75,6/25,49,50.24
531,C#5,108.0,1.0,55,50.24
532,D4,108.0,2.0,24,50.24
533,B-3,108.0,2.0,24,50.24
534,F4,108.0,2.0,24,50.24
535,D5,109.0,0.5,50,50.24
536,F5,109.5,0.25,56,50.24
537,E5,109.75,0.25,53,50.24
538,G5,110.0,0.25,59,50.24
539,F5,110.25,0.25,53,50.24
540,E5,110.5,0.25,54,50.24
541,D5,110.75,6/25,50,50.24
542,D5,111.0,1.0,49,50.24
543,F3,111.0,2.0,28,50.24
544,B-3,111.0,1.0,32,50.24
545,D4,111.0,1.0,32,50.24
546,C5,112.0,0.5,48,50.24
547,A3,112.0,1.0,30,50.24
548,C4,112.0,1.0,30,50.24
549,F5,112.5,0.375,57,50.24
550,C5,112.875,0.125,51,50.24
551,A5,113.0,0.375,65,50.24
552,F5,113.375,0.125,58,50.24
553,C5,113.5,0.375,66,50.24
554,A4,113.875,0.125,57,50.24
555,C5,114.0,0.75,69,50.24
556,G3,114.0,1.5,43,50.24
557,C4,114.0,1.5,43,50.24
558,E3,114.0,1.5,43,50.24
559,B4,114.75,0.25,65,50.24
560,B-4,115.0,0.5,65,50.24
561,E4,115.5,0.375,67,50.24
562,G4,115.5,0.5,75,50.24
563,B-2,115.5,0.5,45,50.24
564,B-3,115.5,0.5,45,50.24
565,C4,115.875,0.125,64,50.24
566,F4,116.0,0.375,69,50.24
567,A4,116.0,0.5,76,50.24
568,A3,116.0,0.5,47,50.24
569,A2,116.0,0.5,47,50.24
570,C4,116.375,0.125,65,50.24
571,G4,116.5,0.375,71,50.24
572,B-4,116.5,0.5,78,50.24
573,G3,116.5,0.5,47,50.24
574,G2,116.5,0.5,47,50.24
575,C4,116.875,0.125,69,50.24
576,C5,117.0,0.25,80,50.24
577,A4,117.0,0.5,71,50.24
578,F2,117.0,0.5,52,50.24
579,F3,117.0,0.5,52,50.24
580,D5,117.25,0.25,51,50.24
581,E5,117.5,0.25,54,50.24
582,F5,117.75,0.25,47,50.24
583,A3,118.0,1.0,37,50.24
584,C3,118.0,2.0,29,50.24
585,C4,118.0,1.5,44,50.24
586,F4,118.0,1.5,44,50.24
587,B-3,119.0,1.0,28,50.24
588,A4,119.5,0.25,47,50.24
589,E4,119.5,0.5,37,50.24
590,G4,119.75,0.25,44,50.24
591,F4,120.0,1.0,47,50.24
592,F3,120.0,1.0,32,50.24
593,A3,120.0,1.0,32,50.24
594,F2,121.0,0.5,26,50.24
595,G#4,121.5,19/40,37,50.24
596,C4,121.5,19/40,37,50.24
597,G#4,122.0,19/40,37,50.24
598,C4,122.0,19/40,37,50.24
599,C4,122.5,19/40,37,50.24
600,G#4,122.5,19/40,37,50.24
601,F2,123.0,0.25,40,50.24
602,G#4,123.0,1.5,40,50.24
603,C4,123.0,1.5,40,50.24
604,F3,123.25,9/40,26,50.24
605,F3,123.5,9/40,28,50.24
606,F3,123.75,9/40,26,50.24
607,F3,124.0,9/40,24,50.24
608,F3,124.25,9/40,22,50.24
609,F3,124.5,9/40,25,50.24
610,G4,124.5,0.5,37,50.24
611,B-3,124.5,0.5,37,50.24
612,F3,124.75,9/40,22,50.24
613,F3,125.0,9/40,29,50.24
614,B-4,125.0,0.5,37,50.24
615,C#4,125.0,0.5,37,50.24
616,F3,125.25,9/40,25,50.24
617,F3,125.5,9/40,27,50.24
618,G3,125.5,0.5,37,50.24
619,E4,125.5,0.5,37,50.24
620,F3,125.75,9/40,25,50.24
621,F2,126.0,0.25,34,50.24
622,F4,126.0,1.5,42,50.24
623,G#3,126.0,1.5,42,50.24
624,F3,126.25,9/40,24,50.24
625,F3,126.5,9/40,26,50.24
626,F3,126.75,9/40,23,50.24
627,F3,127.0,9/40,25,50.24
628,F3,127.25,9/40,22,50.24
629,F3,127.5,9/40,25,50.24
630,C5,127.5,19/40,42,50.24
631,G#4,127.5,19/40,42,50.24
632,F3,127.75,9/40,22,50.24
633,F3,128.0,9/40,28,50.24
634,C5,128.0,19/40,44,50.24
635,G#4,128.0,19/40,44,50.24
636,F3,128.25,9/40,25,50.24
637,F3,128.5,9/40,28,50.24
638,G#4,128.5,19/40,40,50.24
639,C5,128.5,19/40,40,50.24
640,F3,128.75,9/40,27,50.24
641,C5,129.0,1.5,50,50.24
642,G4,129.0,3.0,50,50.24
643,E2,129.0,0.25,33,50.24
644,E3,129.25,9/40,29,50.24
645,E3,129.5,9/40,27,50.24
646,E3,129.75,9/40,24,50.24
647,E3,130.0,9/40,29,50.24
648,E3,130.25,9/40,23,50.24
649,C#5,130.5,0.5,51,50.24
650,E3,130.5,9/40,25,50.24
651,E3,130.75,9/40,22,50.24
652,C5,131.0,0.5,50,50.24
653,E3,131.0,9/40,29,50.24
654,E3,131.25,9/40,27,50.24
655,B-4,131.5,0.375,48,50.24
656,E3,131.5,9/40,29,50.24
657,E3,131.75,9/40,26,50.24
658,C5,131.875,0.125,46,50.24
659,F2,132.0,0.25,29,50.24
660,B-4,132.0,0.5,53,50.24
661,G4,132.0,0.5,53,50.24
662,F3,132.25,9/40,28,50.24
663,F3,132.5,9/40,29,50.24
664,F4,132.5,0.5,44,50.24
665,G#4,132.5,0.5,44,50.24
666,F3,132.75,9/40,26,50.24
667,F3,133.0,1.0,32,50.24
668,G#4,133.5,0.5,53,50.24
669,B-4,134.0,0.5,58,50.24
670,C5,134.5,0.5,53,50.24
671,E-5,135.0,0.5,61,50.24
672,C#5,135.5,0.5,57,50.24
673,C#4,135.5,19/40,33,50.24
674,F3,135.5,19/40,33,50.24
675,G#3,135.5,19/40,33,50.24
676,C#4,136.0,19/40,36,50.24
677,F3,136.0,19/40,36,50.24
678,G#3,136.0,19/40,36,50.24
679,C5,136.438,0.062,60,50.24
680,C#5,136.5,0.438,74,50.24
681,C#4,136.5,19/40,40,50.24
682,F3,136.5,19/40,40,50.24
683,G#3,136.5,19/40,40,50.24
684,C5,136.938,0.062,64,50.24
685,C#5,137.0,0.438,80,50.24
686,G#3,137.0,19/40,46,50.24
687,F3,137.0,19/40,46,50.24
688,C#4,137.0,19/40,46,50.24
689,C5,137.438,0.062,68,50.24
690,C#5,137.5,0.5,89,50.24
691,C#4,137.5,19/40,49,50.24
692,F3,137.5,19/40,49,50.24
693,G#3,137.5,19/40,49,50.24
694,C#5,138.0,0.25,90,50.24
695,C#4,138.0,2.0,51,50.24
696,E-4,138.0,2.0,51,50.24
697,G3,138.0,2.0,51,50.24
698,B-3,138.0,2.0,51,50.24
699,E-5,138.25,83/1000,64,50.24
700,C#5,138.333,83/1000,57,50.24
701,C5,138.417,83/1000,64,50.24
702,C#5,138.5,0.25,64,50.24
703,E-5,138.75,0.25,56,50.24
704,F5,139.0,1.5,47,50.24
705,E-5,140.5,0.25,47,50.24
706,C#5,140.75,0.25,47,50.24
707,C5,141.0,0.25,51,50.24
708,G#3,141.0,0.5,34,50.24
709,E-5,141.25,0.25,47,50.24
710,C#5,141.5,0.25,47,50.24
711,B-3,141.5,0.5,30,50.24
712,C#3,141.5,0.5,30,50.24
713,B-4,141.75,0.25,47,50.24
714,G#4,142.0,1.5,53,50.24
715,E-3,142.0,2.0,34,50.24
716,C4,142.0,1.0,34,50.24
717,C#4,143.0,1.0,24,50.24
718,G4,143.5,0.5,43,50.24
719,C5,143.5,0.25,43,50.24
720,B-4,143.75,0.25,43,50.24
721,G#4,144.0,1.0,47,50.24
722,G#3,144.0,1.0,32,50.24
723,C4,144.0,1.0,32,50.24
724,G#2,145.0,0.5,27,50.24
725,C4,145.5,19/40,37,50.24
726,G#4,145.5,19/40,37,50.24
727,C4,146.0,19/40,37,50.24
728,G#4,146.0,19/40,37,50.24
729,C4,146.5,19/40,37,50.24
730,G#4,146.5,19/40,37,50.24
731,F2,147.0,0.25,40,50.24
732,C4,147.0,1.5,40,50.24
733,G#4,147.0,1.5,40,50.24
734,F3,147.25,9/40,26,50.24
735,F3,147.5,9/40,29,50.24
736,F3,147.75,9/40,26,50.24
737,F3,148.0,9/40,27,50.24
738,F3,148.25,9/40,23,50.24
739,F3,148.5,9/40,26,50.24
740,B-3,148.5,0.5,37,50.24
741,G4,148.5,0.5,37,50.24
742,F3,148.75,9/40,23,50.24
743,F3,149.0,9/40,29,50.24
744,C#4,149.0,0.5,37,50.24
745,B-4,149.0,0.5,37,50.24
746,F3,149.25,9/40,25,50.24
747,F3,149.5,9/40,27,50.24
748,G3,149.5,0.5,37,50.24
749,E4,149.5,0.5,37,50.24
750,F3,149.75,9/40,26,50.24
751,F2,150.0,0.25,34,50.24
752,G#3,150.0,1.5,42,50.24
753,F4,150.0,1.5,42,50.24
754,F3,150.25,9/40,26,50.24
755,F3,150.5,9/40,27,50.24
756,F3,150.75,9/40,23,50.24
757,F3,151.0,9/40,26,50.24
758,F3,151.25,9/40,23,50.24
759,F3,151.5,9/40,25,50.24
760,G#4,151.5,19/40,42,50.24
761,C5,151.5,19/40,42,50.24
762,F3,151.75,9/40,23,50.24
763,F3,152.0,9/40,28,50.24
764,G#4,152.0,19/40,44,50.24
765,C5,152.0,19/40,44,50.24
766,F3,152.25,9/40,26,50.24
767,F3,152.5,9/40,28,50.24
768,G#4,152.5,19/40,40,50.24
769,C5,152.5,19/40,40,50.24
770,F3,152.75,9/40,26,50.24
771,C5,153.0,1.5,50,50.24
772,G4,153.0,3.0,50,50.24
773,E2,153.0,0.25,33,50.24
774,E3,153.25,9/40,29,50.24
775,E3,153.5,9/40,27,50.24
776,E3,153.75,9/40,27,50.24
777,E3,154.0,9/40,28,50.24
778,E3,154.25,9/40,23,50.24
779,C#5,154.5,0.5,51,50.24
780,E3,154.5,9/40,26,50.24
781,E3,154.75,9/40,24,50.24
782,C5,155.0,0.5,50,50.24
783,E3,155.0,9/40,29,50.24
784,E3,155.25,9/40,27,50.24
785,B-4,155.5,0.375,48,50.24
786,E3,155.5,9/40,29,50.24
787,E3,155.75,9/40,26,50.24
788,C5,155.875,0.125,46,50.24
789,F2,156.0,0.25,29,50.24
790,G4,156.0,0.5,53,50.24
791,B-4,156.0,0.5,53,50.24
792,F3,156.25,9/40,27,50.24
793,F3,156.5,9/40,29,50.24
794,F4,156.5,0.5,44,50.24
795,G#4,156.5,0.5,44,50.24
796,F3,156.75,9/40,28,50.24
797,F3,157.0,1.0,33,50.24
798,G#4,157.5,0.5,53,50.24
799,B-4,158.0,0.5,58,50.24
800,C5,158.5,0.5,53,50.24
801,E-5,159.0,0.5,61,50.24
802,C#5,159.5,0.5,57,50.24
803,C#4,159.5,19/40,33,50.24
804,G#3,159.5,19/40,33,50.24
805,F3,159.5,19/40,33,50.24
806,C#4,160.0,19/40,36,50.24
807,G#3,160.0,19/40,36,50.24
808,F3,160.0,19/40,36,50.24
809,C5,160.438,0.062,57,50.24
810,C#5,160.5,0.438,72,50.24
811,C#4,160.5,19/40,40,50.24
812,G#3,160.5,19/40,40,50.24
813,F3,160.5,19/40,40,50.24
814,C5,160.938,0.062,63,50.24
815,C#5,161.0,0.438,78,50.24
816,C#4,161.0,19/40,46,50.24
817,G#3,161.0,19/40,46,50.24
818,F3,161.0,19/40,46,50.24
819,C5,161.438,0.062,69,50.24
820,C#5,161.5,0.5,86,50.24
821,C#4,161.5,19/40,49,50.24
822,G#3,161.5,19/40,49,50.24
823,F3,161.5,19/40,49,50.24
824,C#5,162.0,0.25,95,50.24
825,E-4,162.0,2.0,50,50.24
826,C#4,162.0,2.0,50,50.24
827,B-3,162.0,2.0,50,50.24
828,G3,162.0,2.0,50,50.24
829,E-5,162.25,83/1000,60,50.24
830,C#5,162.333,83/1000,56,50.24
831,C5,162.417,83/1000,60,50.24
832,C#5,162.5,0.25,61,50.24
833,E-5,162.75,0.25,53,50.24
834,F5,163.0,1.5,47,50.24
835,E-5,164.5,0.25,47,50.24
836,C#5,164.75,0.25,44,50.24
837,C5,165.0,0.25,51,50.24
838,G#3,165.0,0.5,34,50.24
839,E-5,165.25,0.25,44,50.24
840,C#5,165.5,0.25,47,50.24
841,C#3,165.5,0.5,30,50.24
842,B-3,165.5,0.5,30,50.24
843,B-4,165.75,0.25,46,50.24
844,G#4,166.0,1.5,53,50.24
845,E-3,166.0,2.0,34,50.24
846,C4,166.0,1.0,34,50.24
847,C#4,167.0,1.0,23,50.24
848,G4,167.5,0.5,43,50.24
849,C5,167.5,0.25,43,50.24
850,B-4,167.75,0.25,43,50.24
851,G#4,168.0,1.0,47,50.24
852,G#3,168.0,1.0,32,50.24
853,C4,168.0,1.0,32,50.24
854,G#2,169.0,0.5,30,50.24
855,E-4,169.5,0.5,53,50.24
856,G#4,170.0,0.5,53,50.24
857,C5,170.5,0.5,51,50.24
858,E-5,171.0,1.5,58,50.24
859,G#3,171.5,0.5,43,50.24
860,C4,172.0,0.5,45,50.24
861,C#5,172.5,0.25,50,50.24
862,E-4,172.5,0.5,45,50.24
863,C5,172.75,0.25,47,50.24
864,B-4,173.0,0.5,50,50.24
865,F3,173.0,0.5,47,50.24
866,G#4,173.5,0.375,47,50.24
867,D4,173.5,0.5,43,50.24
868,C5,174.0,1.0,53,50.24
869,E-3,174.5,0.5,40,50.24
870,B-4,175.0,0.5,49,50.24
871,G3,175.0,0.5,40,50.24
872,C4,175.5,0.5,67,50.24
873,B-3,175.5,0.5,58,50.24
874,E3,175.5,0.5,58,50.24
875,F4,176.0,0.5,69,50.24
876,G#3,176.0,1.0,58,50.24
877,F3,176.0,1.0,58,50.24
878,G#4,176.5,0.5,67,50.24
879,C5,177.0,1.5,71,50.24
880,C#3,177.5,2.5,54,50.24
881,F3,178.0,0.5,52,50.24
882,B-4,178.5,0.25,53,50.24
883,G#3,178.5,0.5,45,50.24
884,G#4,178.75,0.25,50,50.24
885,G4,179.0,0.5,53,50.24
886,B-3,179.0,0.5,45,50.24
887,F4,179.5,0.375,44,50.24
888,B3,179.5,0.5,42,50.24
889,F4,180.0,1.0,49,50.24
890,G#4,180.0,1.0,49,50.24
891,C3,180.0,1.5,37,50.24
892,C4,180.0,1.5,37,50.24
893,G4,181.0,0.5,46,50.24
894,E4,181.0,0.5,46,50.24
895,C5,181.5,0.5,60,50.24
896,F5,182.0,0.5,60,50.24
897,G#5,182.5,0.5,59,50.24
898,G#2,182.5,0.5,49,50.24
899,G5,183.0,0.5,66,50.24
900,B-2,183.0,0.5,53,50.24
901,F5,183.5,0.5,65,50.24
902,B-3,183.5,0.5,51,50.24
903,B3,184.0,0.5,53,50.24
904,C5,184.5,0.5,66,50.24
905,C4,184.5,0.5,51,50.24
906,F5,185.0,0.5,68,50.24
907,G#5,185.5,0.5,66,50.24
908,C3,185.5,0.5,56,50.24
909,G5,186.0,0.5,72,50.24
910,C#3,186.0,0.5,58,50.24
911,F5,186.5,0.5,69,50.24
912,C#4,186.5,0.5,58,50.24
913,E-4,187.0,0.5,65,50.24
914,A4,187.5,19/40,66,50.24
915,E-5,187.5,19/40,66,50.24
916,F5,187.5,19/40,66,50.24
917,C5,187.5,19/40,66,50.24
918,C4,187.5,19/40,56,50.24
919,C3,187.5,19/40,56,50.24
920,E-5,188.0,19/40,67,50.24
921,A4,188.0,19/40,67,50.24
922,C5,188.0,19/40,67,50.24
923,F5,188.0,19/40,67,50.24
924,A2,188.0,19/40,54,50.24
925,A3,188.0,19/40,54,50.24
926,E-5,188.5,19/40,66,50.24
927,A4,188.5,19/40,66,50.24
928,C5,188.5,19/40,66,50.24
929,F5,188.5,19/40,66,50.24
930,F2,188.5,19/40,54,50.24
931,F3,188.5,19/40,54,50.24
932,F5,189.0,0.25,63,50.24
933,C#5,189.0,0.25,63,50.24
934,B-3,189.0,1.0,46,50.24
935,B-2,189.0,1.0,46,50.24
936,C#5,189.25,9/40,55,50.24
937,B-4,189.25,9/40,55,50.24
938,B-4,189.5,0.25,53,50.24
939,C#5,189.5,0.25,53,50.24
940,B-4,189.75,9/40,48,50.24
941,G4,189.75,9/40,48,50.24
942,F4,190.0,0.875,46,50.24
943,G#4,190.0,0.875,46,50.24
944,C4,190.0,1.0,37,50.24
945,C3,190.0,1.0,37,50.24
946,G#4,190.875,0.125,46,50.24
947,G4,191.0,0.5,49,50.24
948,E4,191.0,0.5,49,50.24
949,C3,191.0,1.0,37,50.24
950,B-3,191.0,1.0,37,50.24
951,F4,191.5,0.25,46,50.24
952,G4,191.75,0.25,43,50.24
953,F4,192.0,1.0,49,50.24
954,G#3,192.0,1.0,37,50.24
955,F3,192.0,1.0,37,50.24
956,F2,193.0,0.5,30,50.24
957,E-4,193.5,0.5,53,50.24
958,G#4,194.0,0.5,53,50.24
959,C5,194.5,0.5,51,50.24
960,E-5,195.0,1.5,58,50.24
961,G#3,195.5,0.5,45,50.24
962,C4,196.0,0.5,48,50.24
963,C#5,196.5,0.25,50,50.24
964,E-4,196.5,0.5,45,50.24
965,C5,196.75,0.25,47,50.24
966,B-4,197.0,0.5,50,50.24
967,F3,197.0,0.5,49,50.24
968,G#4,197.5,0.375,47,50.24
969,D4,197.5,0.5,43,50.24
970,C5,198.0,1.0,53,50.24
971,E-3,198.5,0.5,40,50.24
972,B-4,199.0,0.5,49,50.24
973,G3,199.0,0.5,40,50.24
974,C4,199.5,0.5,67,50.24
975,E3,199.5,0.5,58,50.24
976,B-3,199.5,0.5,58,50.24
977,F4,200.0,0.5,69,50.24
978,F3,200.0,1.0,58,50.24
979,G#3,200.0,1.0,58,50.24
980,G#4,200.5,0.5,67,50.24
981,C5,201.0,1.5,71,50.24
982,C#3,201.5,2.5,54,50.24
983,F3,202.0,0.5,52,50.24
984,B-4,202.5,0.25,53,50.24
985,G#3,202.5,0.5,45,50.24
986,G#4,202.75,0.25,50,50.24
987,G4,203.0,0.5,53,50.24
988,B-3,203.0,0.5,45,50.24
989,F4,203.5,0.375,47,50.24
990,B3,203.5,0.5,39,50.24
991,F4,204.0,1.0,49,50.24
992,G#4,204.0,1.0,49,50.24
993,C3,204.0,1.5,37,50.24
994,C4,204.0,1.5,37,50.24
995,E4,205.0,0.5,46,50.24
996,G4,205.0,0.5,46,50.24
997,C5,205.5,0.5,60,50.24
998,F5,206.0,0.5,60,50.24
999,G#5,206.5,0.5,59,50.24
1000,G#2,206.5,0.5,49,50.24
1001,G5,207.0,0.5,66,50.24
1002,B-2,207.0,0.5,53,50.24
1003,F5,207.5,0.5,65,50.24
1004,B-3,207.5,0.5,51,50.24
1005,B3,208.0,0.5,53,50.24
1006,C5,208.5,0.5,66,50.24
1007,C4,208.5,0.5,51,50.24
1008,F5,209.0,0.5,68,50.24
1009,G#5,209.5,0.5,66,50.24
1010,C3,209.5,0.5,56,50.24
1011,G5,210.0,0.5,72,50.24
1012,C#3,210.0,0.5,58,50.24
1013,F5,210.5,0.5,69,50.24
1014,C#4,210.5,0.5,58,50.24
1015,E-4,211.0,0.5,65,50.24
1016,C5,211.5,19/40,66,50.24
1017,A4,211.5,19/40,66,50.24
1018,E-5,211.5,19/40,66,50.24
1019,F5,211.5,19/40,66,50.24
1020,C3,211.5,19/40,56,50.24
1021,C4,211.5,19/40,56,50.24
1022,A4,212.0,19/40,67,50.24
1023,C5,212.0,19/40,67,50.24
1024,E-5,212.0,19/40,67,50.24
1025,F5,212.0,19/40,67,50.24
1026,A2,212.0,19/40,54,50.24
1027,A3,212.0,19/40,54,50.24
1028,A4,212.5,19/40,66,50.24
1029,C5,212.5,19/40,66,50.24
1030,E-5,212.5,19/40,66,50.24
1031,F5,212.5,19/40,66,50.24
1032,F2,212.5,19/40,54,50.24
1033,F3,212.5,19/40,54,50.24
1034,C#5,213.0,0.25,63,50.24
1035,F5,213.0,0.25,63,50.24
1036,B-2,213.0,1.0,46,50.24
1037,B-3,213.0,1.0,46,50.24
1038,B-4,213.25,9/40,55,50.24
1039,C#5,213.25,9/40,55,50.24
1040,B-4,213.5,0.25,53,50.24
1041,C#5,213.5,0.25,53,50.24
1042,B-4,213.75,9/40,48,50.24
1043,G4,213.75,9/40,48,50.24
1044,F4,214.0,0.875,46,50.24
1045,G#4,214.0,0.875,46,50.24
1046,C3,214.0,1.0,37,50.24
1047,C4,214.0,1.0,37,50.24
1048,G#4,214.875,0.125,46,50.24
1049,E4,215.0,0.5,49,50.24
1050,G4,215.0,0.5,49,50.24
1051,C3,215.0,1.0,37,50.24
1052,B-3,215.0,1.0,37,50.24
1053,F4,215.5,0.25,46,50.24
1054,G4,215.75,0.25,43,50.24
1055,F4,216.0,1.0,49,50.24
1056,F3,216.0,1.0,37,50.24
1057,G#3,216.0,1.0,37,50.24
1058,F2,217.0,0.5,28,50.24
1059,G#4,217.5,19/40,37,50.24
1060,C4,217.5,19/40,37,50.24
1061,C4,218.0,19/40,37,50.24
1062,G#4,218.0,19/40,37,50.24
1063,C4,218.5,19/40,35,50.24
1064,G#4,218.5,19/40,35,50.24
1065,F2,219.0,0.25,40,50.24
1066,C4,219.0,1.5,40,50.24
1067,G#4,219.0,1.5,40,50.24
1068,F3,219.25,9/40,27,50.24
1069,F3,219.5,9/40,29,50.24
1070,F3,219.75,9/40,28,50.24
1071,F3,220.0,9/40,29,50.24
1072,F3,220.25,9/40,25,50.24
1073,F3,220.5,9/40,28,50.24
1074,G4,220.5,0.5,37,50.24
1075,B-3,220.5,0.5,37,50.24
1076,F3,220.75,9/40,26,50.24
1077,F3,221.0,9/40,29,50.24
1078,B-4,221.0,0.5,39,50.24
1079,C#4,221.0,0.5,39,50.24
1080,F3,221.25,9/40,27,50.24
1081,F3,221.5,9/40,29,50.24
1082,G3,221.5,0.5,37,50.24
1083,E4,221.5,0.5,37,50.24
1084,F3,221.75,9/40,27,50.24
1085,F2,222.0,0.25,34,50.24
1086,G#3,222.0,1.5,42,50.24
1087,F4,222.0,1.5,42,50.24
1088,F3,222.25,9/40,26,50.24
1089,F3,222.5,9/40,28,50.24
1090,F3,222.75,9/40,26,50.24
1091,F3,223.0,9/40,25,50.24
1092,F3,223.25,9/40,23,50.24
1093,F3,223.5,9/40,26,50.24
1094,C5,223.5,19/40,34,50.24
1095,G#4,223.5,19/40,34,50.24
1096,F3,223.75,9/40,23,50.24
1097,F3,224.0,9/40,28,50.24
1098,C5,224.0,19/40,35,50.24
1099,G#4,224.0,19/40,35,50.24
1100,F3,224.25,9/40,27,50.24
1101,F3,224.5,9/40,28,50.24
1102,G#4,224.5,19/40,34,50.24
1103,C5,224.5,19/40,34,50.24
1104,F3,224.75,9/40,27,50.24
1105,E4,225.0,2.5,38,50.24
1106,F2,225.0,0.25,33,50.24
1107,C5,225.0,1.5,38,50.24
1108,G#4,225.0,1.5,38,50.24
1109,F3,225.25,9/40,22,50.24
1110,F3,225.5,9/40,26,50.24
1111,F3,225.75,9/40,24,50.24
1112,F3,226.0,9/40,26,50.24
1113,F3,226.25,9/40,23,50.24
1114,F3,226.5,9/40,26,50.24
1115,G4,226.5,0.5,34,50.24
1116,B-4,226.5,0.5,34,50.24
1117,F3,226.75,9/40,23,50.24
1118,F3,227.0,9/40,24,50.24
1119,B-4,227.0,0.5,37,50.24
1120,C#5,227.0,0.5,37,50.24
1121,F3,227.25,9/40,22,50.24
1122,F3,227.5,9/40,24,50.24
1123,C4,227.5,0.5,32,50.24
1124,E4,227.5,0.5,32,50.24
1125,B-3,227.5,0.5,32,50.24
1126,F3,227.75,9/40,23,50.24
1127,F3,228.0,1.0,30,50.24
1128,F4,228.0,1.0,32,50.24
1129,C4,228.0,1.0,32,50.24
1130,G#3,228.0,1.0,32,50.24
1131,C5,229.5,0.5,50,50.24
1132,C5,230.0,0.5,50,50.24
1133,C5,230.5,0.5,50,50.24
1134,C5,231.0,0.25,52,50.24
1135,F3,231.0,2.0,34,50.24
1136,A3,231.0,2.0,34,50.24
1137,C4,231.0,2.0,34,50.24
1138,D5,231.25,83/1000,47,50.24
1139,C5,231.333,83/1000,46,50.24
1140,B4,231.417,83/1000,46,50.24
1141,C5,231.5,0.25,52,50.24
1142,F5,231.75,0.25,49,50.24
1143,C5,232.0,0.25,47,50.24
1144,A4,232.5,0.5,47,50.24
1145,C5,233.0,0.5,48,50.24
1146,C3,233.0,1.0,30,50.24
1147,G3,233.0,1.0,30,50.24
1148,B-3,233.0,1.0,30,50.24
1149,E4,233.5,0.5,47,50.24
1150,G4,234.0,1.0,54,50.24
1151,D3,234.0,1.5,37,50.24
1152,B-3,234.0,1.0,37,50.24
1153,F4,235.0,0.5,48,50.24
1154,A3,235.0,0.5,37,50.24
1155,C4,235.5,0.5,56,50.24
1156,F4,235.5,0.5,56,50.24
1157,A2,235.5,0.5,57,50.24
1158,A3,235.5,0.5,57,50.24
1159,E4,236.0,0.5,63,50.24
1160,G4,236.0,0.5,63,50.24
1161,G2,236.0,0.5,59,50.24
1162,G3,236.0,0.5,59,50.24
1163,F4,236.5,0.5,56,50.24
1164,C4,236.5,0.5,56,50.24
1165,A4,236.5,0.5,56,50.24
1166,F2,236.5,0.5,57,50.24
1167,F3,236.5,0.5,57,50.24
1168,F4,237.0,0.75,70,50.24
1169,B-4,237.0,0.75,70,50.24
1170,D3,237.0,0.5,52,50.24
1171,D4,237.0,0.5,52,50.24
1172,B-2,237.5,0.5,51,50.24
1173,B-3,237.5,0.5,51,50.24
1174,C5,237.75,0.125,63,50.24
1175,D5,237.875,0.125,57,50.24
1176,C5,238.0,0.25,56,50.24
1177,A2,238.0,0.25,26,50.24
1178,A3,238.0,0.25,26,50.24
1179,F4,238.5,0.5,51,50.24
1180,B3,239.0,1.0,36,50.24
1181,E4,239.0,0.5,52,50.24
1182,D3,239.0,1.0,34,50.24
1183,F4,239.5,0.5,45,50.24
1184,C4,240.0,2.0,32,50.24
1185,C3,240.0,2.0,27,50.24
1186,F4,240.0,1.0,40,50.24
1187,A4,240.0,1.0,40,50.24
1188,E4,241.0,0.5,38,50.24
1189,G4,241.0,0.5,38,50.24
1190,G4,241.5,0.5,54,50.24
1191,G4,242.0,0.5,59,50.24
1192,C4,242.0,1.0,39,50.24
1193,E4,242.0,1.0,39,50.24
1194,G4,242.5,0.375,65,50.24
1195,G4,242.875,0.125,65,50.24
1196,G5,243.0,0.75,73,50.24
1197,B3,243.0,2.0,51,50.24
1198,D4,243.0,2.0,51,50.24
1199,F4,243.0,2.0,51,50.24
1200,D5,243.75,0.125,50,50.24
1201,B4,243.875,0.125,46,50.24
1202,G4,244.0,0.5,49,50.24
1203,G4,244.5,0.5,59,50.24
1204,G4,245.0,0.5,63,50.24
1205,C4,245.0,1.0,43,50.24
1206,E4,245.0,1.0,43,50.24
1207,G4,245.5,0.375,69,50.24
1208,G4,245.875,0.125,67,50.24
1209,G5,246.0,1.375,72,50.24
1210,D3,246.0,1.0,51,50.24
1211,F3,246.0,1.0,51,50.24
1212,B3,246.0,1.0,51,50.24
1213,E3,247.0,1.0,37,50.24
1214,G3,247.0,1.0,37,50.24
1215,C4,247.0,1.0,37,50.24
1216,A5,247.375,0.062,56,50.24
1217,B5,247.438,0.062,49,50.24
1218,C6,247.5,0.25,58,50.24
1219,B5,247.75,0.25,51,50.24
1220,A5,248.0,0.25,56,50.24
1221,G5,248.25,0.25,50,50.24
1222,F5,248.5,0.25,54,50.24
1223,E5,248.75,0.25,52,50.24
1224,C#5,249.0,0.25,54,50.24
1225,D5,249.25,0.25,49,50.24
1226,F5,249.5,0.25,49,50.24
1227,D4,249.5,0.5,30,50.24
1228,A3,249.5,0.5,30,50.24
1229,F3,249.5,0.5,30,50.24
1230,A5,249.75,0.25,48,50.24
1231,C5,250.0,1.5,54,50.24
1232,G3,250.0,2.0,21,50.24
1233,E4,250.0,1.0,24,50.24
1234,C4,250.0,1.0,24,50.24
1235,F4,251.0,1.0,26,50.24
1236,D4,251.0,1.0,26,50.24
1237,E5,251.5,0.25,48,50.24
1238,B4,251.5,0.5,48,50.24
1239,D5,251.75,0.25,47,50.24
1240,C5,252.0,1.0,47,50.24
1241,E4,252.0,1.0,30,50.24
1242,C4,252.0,1.0,30,50.24
1243,C3,253.0,0.5,29,50.24
1244,C5,253.5,0.5,50,50.24
1245,D5,254.0,271/1000,54,50.24
1246,C5,254.25,271/1000,50,50.24
1247,B-4,254.5,271/1000,55,50.24
1248,A4,254.75,0.25,49,50.24
1249,G4,255.0,1.0,61,50.24
1250,A4,255.0,21/1000,49,50.24
1251,E-4,255.0,1.5,46,50.24
1252,C4,255.0,1.5,46,50.24
1253,F#4,256.0,49/100,51,50.24
1254,F#4,256.5,0.5,63,50.24
1255,E-4,256.5,0.5,46,50.24
1256,C4,256.5,0.5,46,50.24
1257,G4,257.0,0.5,65,50.24
1258,D4,257.0,0.5,47,50.24
1259,B-3,257.0,0.5,47,50.24
1260,F#4,257.5,0.375,59,50.24
1261,A4,257.5,0.375,59,50.24
1262,A3,257.5,0.5,47,50.24
1263,C4,257.5,0.5,47,50.24
1264,D4,257.5,0.5,47,50.24
1265,C4,258.0,1.0,50,50.24
1266,F#4,258.0,1.0,58,50.24
1267,A4,258.0,1.0,58,50.24
1268,D4,258.0,1.5,50,50.24
1269,G3,258.0,1.5,50,50.24
1270,B-3,259.0,9/20,48,50.24
1271,G4,259.0,9/20,50,50.24
1272,B-4,259.0,9/20,50,50.24
1273,E4,259.5,0.5,51,50.24
1274,C#4,259.5,0.5,44,50.24
1275,B-3,259.5,0.5,44,50.24
1276,F4,260.0,0.5,55,50.24
1277,C4,260.0,0.5,48,50.24
1278,A3,260.0,0.5,48,50.24
1279,E4,260.5,0.375,53,50.24
1280,G4,260.5,0.375,53,50.24
1281,G3,260.5,0.5,45,50.24
1282,B-3,260.5,0.5,45,50.24
1283,C4,260.5,0.5,45,50.24
1284,F4,261.0,2.5,56,50.24
1285,A4,261.0,0.5,61,50.24
1286,F3,261.0,0.5,48,50.24
1287,A3,261.0,0.5,48,50.24
1288,C4,261.0,0.5,48,50.24
1289,B-4,261.5,0.5,68,50.24
1290,D3,261.5,0.5,50,50.24
1291,C5,262.0,0.5,67,50.24
1292,A2,262.0,1.0,56,50.24
1293,C#5,262.5,0.5,70,50.24
1294,E5,263.0,271/1000,72,50.24
1295,B-2,263.0,0.5,53,50.24
1296,D5,263.25,271/1000,65,50.24
1297,C5,263.5,271/1000,64,50.24
1298,G2,263.5,0.25,46,50.24
1299,G4,263.75,0.25,52,50.24
1300,B-4,263.75,0.25,52,50.24
1301,C3,264.0,2.0,43,50.24
1302,F4,264.0,1.0,52,50.24
1303,A4,264.0,1.0,52,50.24
1304,G4,264.0,21/1000,52,50.24
1305,B-4,264.0,21/1000,52,50.24
1306,E4,265.0,0.5,46,50.24
1307,G4,265.0,0.5,46,50.24
1308,C5,265.5,19/40,65,50.24
1309,C5,266.0,19/40,66,50.24
1310,C5,266.5,19/40,72,50.24
1311,C5,267.0,3.0,81,50.24
1312,B-5,267.0,1.5,81,50.24
1313,C2,267.0,0.75,58,50.24
1314,C3,267.0,0.75,58,50.24
1315,D2,267.75,0.25,56,50.24
1316,D3,267.75,0.25,56,50.24
1317,E2,268.0,0.375,58,50.24
1318,E3,268.0,0.375,58,50.24
1319,A5,268.5,0.5,69,50.24
1320,F2,268.5,0.375,44,50.24
1321,F3,268.5,0.375,44,50.24
1322,B-4,269.0,0.5,64,50.24
1323,G5,269.0,0.5,64,50.24
1324,G2,269.0,0.375,49,50.24
1325,G3,269.0,0.375,49,50.24
1326,A4,269.5,0.5,61,50.24
1327,F5,269.5,0.5,61,50.24
1328,A2,269.5,0.375,46,50.24
1329,A3,269.5,0.375,46,50.24
1330,G4,270.0,2.0,55,50.24
1331,F5,270.0,1.0,66,50.24
1332,C5,270.0,2.0,81,50.24
1333,B-2,270.0,2.0,49,50.24
1334,B-3,270.0,2.0,49,50.24
1335,E5,271.0,19/40,56,50.24
1336,E-5,271.5,19/40,51,50.24
1337,E-5,272.0,19/40,50,50.24
1338,E-5,272.5,19/40,47,50.24
1339,E-5,273.0,0.062,39,50.24
1340,F4,273.0,1.0,39,50.24
1341,C4,273.0,1.0,39,50.24
1342,A3,273.0,1.0,39,50.24
1343,F5,273.062,0.062,39,50.24
1344,E-5,273.125,0.062,39,50.24
1345,F5,273.188,0.062,40,50.24
1346,E-5,273.25,0.062,42,50.24
1347,F5,273.312,0.062,40,50.24
1348,E-5,273.375,0.062,40,50.24
1349,F5,273.438,0.062,40,50.24
1350,E-5,273.5,0.25,42,50.24
1351,F5,273.75,0.25,47,50.24
1352,G5,274.0,0.5,58,50.24
1353,C4,274.0,1.0,39,50.24
1354,F4,274.0,1.0,39,50.24
1355,A3,274.0,1.0,39,50.24
1356,F5,274.5,0.25,54,50.24
1357,E-5,274.75,9/40,51,50.24
1358,E-5,275.0,0.25,54,50.24
1359,F4,275.0,1.0,36,50.24
1360,A3,275.0,1.0,36,50.24
1361,E-4,275.0,1.0,36,50.24
1362,D5,275.25,9/40,51,50.24
1363,D5,275.5,0.25,53,50.24
1364,C#5,275.75,9/40,51,50.24
1365,C#5,276.0,1.0,55,50.24
1366,D4,276.0,2.0,31,50.24
1367,B-3,276.0,2.0,31,50.24
1368,F4,276.0,2.0,31,50.24
1369,D5,277.0,0.5,51,50.24
1370,F5,277.5,0.25,56,50.24
1371,E5,277.75,0.25,53,50.24
1372,G5,278.0,0.25,58,50.24
1373,F5,278.25,0.25,53,50.24
1374,E5,278.5,0.25,52,50.24
1375,D5,278.75,121/500,49,50.24
1376,D5,279.0,1.0,49,50.24
1377,F3,279.0,2.0,28,50.24
1378,B-3,279.0,1.0,32,50.24
1379,D4,279.0,1.0,32,50.24
1380,C5,280.0,0.5,48,50.24
1381,A3,280.0,1.0,30,50.24
1382,C4,280.0,1.0,30,50.24
1383,F5,280.5,0.375,57,50.24
1384,C5,280.875,0.125,51,50.24
1385,A5,281.0,0.375,65,50.24
1386,F5,281.375,0.125,58,50.24
1387,C5,281.5,0.375,66,50.24
1388,A4,281.875,0.125,57,50.24
1389,C5,282.0,0.75,69,50.24
1390,G3,282.0,1.5,43,50.24
1391,C4,282.0,1.5,43,50.24
1392,E3,282.0,1.5,43,50.24
1393,B4,282.75,0.25,65,50.24
1394,B-4,283.0,0.5,65,50.24
1395,E4,283.5,0.375,67,50.24
1396,G4,283.5,0.5,75,50.24
1397,B-2,283.5,0.5,45,50.24
1398,B-3,283.5,0.5,45,50.24
1399,C4,283.875,0.125,64,50.24
1400,A4,284.0,0.5,75,50.24
1401,F4,284.0,0.375,67,50.24
1402,A3,284.0,0.5,47,50.24
1403,A2,284.0,0.5,47,50.24
1404,C4,284.375,0.125,63,50.24
1405,G4,284.5,0.375,67,50.24
1406,B-4,284.5,0.5,75,50.24
1407,G2,284.5,0.5,47,50.24
1408,G3,284.5,0.5,47,50.24
1409,C4,284.875,0.125,64,50.24
1410,C5,285.0,0.25,76,50.24
1411,A4,285.0,0.5,61,50.24
1412,F2,285.0,0.5,52,50.24
1413,F3,285.0,0.5,52,50.24
1414,D5,285.25,0.25,53,50.24
1415,E5,285.5,0.25,57,50.24
1416,F5,285.75,0.25,53,50.24
1417,A3,286.0,1.0,37,50.24
1418,C3,286.0,2.0,29,50.24
1419,C4,286.0,1.5,44,50.24
1420,F4,286.0,1.5,44,50.24
1421,B-3,287.0,1.0,29,50.24
1422,E4,287.5,0.5,37,50.24
1423,A4,287.5,0.25,47,50.24
1424,G4,287.75,0.25,44,50.24
1425,F4,288.0,1.0,47,50.24
1426,F3,288.0,1.0,33,50.24
1427,A3,288.0,1.0,33,50.24
1428,F2,289.0,0.5,29,50.24
1429,C4,289.5,19/40,35,50.24
1430,A4,289.5,19/40,35,50.24
1431,C4,290.0,19/40,38,50.24
1432,A4,290.0,19/40,38,50.24
1433,C4,290.5,19/40,35,50.24
1434,A4,290.5,19/40,35,50.24
1435,F2,291.0,0.25,40,50.24
1436,A4,291.0,1.5,38,50.24
1437,C4,291.0,1.5,38,50.24
1438,F3,291.25,9/40,28,50.24
1439,F3,291.5,9/40,29,50.24
1440,F3,291.75,9/40,28,50.24
1441,F3,292.0,9/40,32,50.24
1442,F3,292.25,9/40,29,50.24
1443,F3,292.5,9/40,29,50.24
1444,F4,292.5,0.5,40,50.24
1445,A3,292.5,0.5,40,50.24
1446,F3,292.75,9/40,28,50.24
1447,F3,293.0,9/40,32,50.24
1448,G4,293.0,0.5,42,50.24
1449,B-4,293.0,0.5,42,50.24
1450,F3,293.25,9/40,29,50.24
1451,F3,293.5,9/40,30,50.24
1452,E4,293.5,0.5,40,50.24
1453,G4,293.5,0.5,40,50.24
1454,F3,293.75,9/40,28,50.24
1455,F2,294.0,0.25,40,50.24
1456,C5,294.0,1.5,46,50.24
1457,A4,294.0,1.5,46,50.24
1458,F3,294.25,9/40,28,50.24
1459,F3,294.5,9/40,31,50.24
1460,F3,294.75,9/40,28,50.24
1461,D2,295.0,0.25,48,50.24
1462,D3,295.25,9/40,33,50.24
1463,D3,295.5,9/40,37,50.24
1464,F5,295.5,19/40,51,50.24
1465,A4,295.5,19/40,51,50.24
1466,D3,295.75,9/40,33,50.24
1467,B1,296.0,0.25,50,50.24
1468,A4,296.0,19/40,53,50.24
1469,F5,296.0,19/40,53,50.24
1470,B2,296.25,9/40,38,50.24
1471,B2,296.5,9/40,42,50.24
1472,F5,296.5,19/40,50,50.24
1473,A4,296.5,19/40,50,50.24
1474,B2,296.75,9/40,38,50.24
1475,C2,297.0,0.25,33,50.24
1476,A4,297.0,1.5,44,50.24
1477,F4,297.0,1.5,44,50.24
1478,C3,297.25,9/40,26,50.24
1479,C3,297.5,9/40,28,50.24
1480,C3,297.75,9/40,26,50.24
1481,C3,298.0,9/40,30,50.24
1482,C3,298.25,9/40,22,50.24
1483,C3,298.5,9/40,25,50.24
1484,A4,298.5,0.5,32,50.24
1485,C5,298.5,0.5,32,50.24
1486,C3,298.75,9/40,23,50.24
1487,C3,299.0,9/40,28,50.24
1488,G4,299.0,0.5,31,50.24
1489,B-4,299.0,0.5,31,50.24
1490,C3,299.25,9/40,24,50.24
1491,C3,299.5,9/40,26,50.24
1492,E4,299.5,0.5,29,50.24
1493,B-3,299.5,0.5,29,50.24
1494,G4,299.5,0.5,29,50.24
1495,C3,299.75,9/40,24,50.24
1496,F2,300.0,1.0,28,50.24
1497,F4,300.0,1.0,28,50.24
1498,A3,300.0,1.0,28,50.24
