,note_name,start_time,duration,velocity,tempo
0,B4,1.0,0.25,66,151.0
1,A4,1.25,0.25,64,151.0
2,G#4,1.5,0.25,64,151.0
3,A4,1.75,0.25,64,151.0
4,C5,2.0,0.25,71,151.0
5,A3,2.0,0.25,57,151.0
6,E4,2.5,0.25,48,151.0
7,C4,2.5,0.25,48,151.0
8,D5,3.0,0.25,66,151.0
9,C4,3.0,0.25,48,151.0
10,E4,3.0,0.25,48,151.0
11,C5,3.25,0.25,63,151.0
12,B4,3.5,0.25,63,151.0
13,C4,3.5,0.25,46,151.0
14,E4,3.5,0.25,46,151.0
15,C5,3.75,0.25,63,151.0
16,E5,4.0,0.25,72,151.0
17,A3,4.0,0.25,57,151.0
18,E4,4.5,0.25,48,151.0
19,C4,4.5,0.25,48,151.0
20,F5,5.0,0.25,66,151.0
21,E4,5.0,0.25,48,151.0
22,C4,5.0,0.25,48,151.0
23,E5,5.25,0.25,63,151.0
24,E-5,5.5,0.25,63,151.0
25,E4,5.5,0.25,48,151.0
26,C4,5.5,0.25,48,151.0
27,E5,5.75,0.25,63,151.0
28,B5,6.0,0.25,70,151.0
29,A3,6.0,0.25,57,151.0
30,A5,6.25,0.25,64,151.0
31,G#5,6.5,0.25,64,151.0
32,E4,6.5,0.25,46,151.0
33,C4,6.5,0.25,46,151.0
34,A5,6.75,0.25,64,151.0
35,B5,7.0,0.25,69,151.0
36,A3,7.0,0.25,57,151.0
37,A5,7.25,0.25,64,151.0
38,G#5,7.5,0.25,64,151.0
39,E4,7.5,0.25,48,151.0
40,C4,7.5,0.25,48,151.0
41,A5,7.75,0.25,64,151.0
42,C6,8.0,1.0,72,151.0
43,A3,8.0,0.25,57,151.0
44,E4,8.5,0.25,46,151.0
45,C4,8.5,0.25,46,151.0
46,A5,9.0,0.25,68,151.0
47,E4,9.0,0.25,46,151.0
48,C4,9.0,0.25,46,151.0
49,C6,9.5,0.25,65,151.0
50,E4,9.5,0.25,46,151.0
51,C4,9.5,0.25,46,151.0
52,G5,9.875,0.062,63,151.0
53,A5,9.938,0.062,63,151.0
54,B5,10.0,0.25,80,151.0
55,E3,10.0,0.25,65,151.0
56,F#5,10.5,0.25,59,151.0
57,A5,10.5,0.25,59,151.0
58,E4,10.5,0.25,48,151.0
59,B3,10.5,0.25,48,151.0
60,E5,11.0,0.25,64,151.0
61,G5,11.0,0.25,64,151.0
62,E4,11.0,0.25,48,151.0
63,B3,11.0,0.25,48,151.0
64,F#5,11.5,0.25,59,151.0
65,A5,11.5,0.25,59,151.0
66,E4,11.5,0.25,48,151.0
67,B3,11.5,0.25,48,151.0
68,G5,11.875,0.062,65,151.0
69,A5,11.938,0.062,65,151.0
70,B5,12.0,0.25,82,151.0
71,E3,12.0,0.25,66,151.0
72,F#5,12.5,0.25,61,151.0
73,A5,12.5,0.25,61,151.0
74,E4,12.5,0.25,48,151.0
75,B3,12.5,0.25,48,151.0
76,E5,13.0,0.25,64,151.0
77,G5,13.0,0.25,64,151.0
78,E4,13.0,0.25,48,151.0
79,B3,13.0,0.25,48,151.0
80,F#5,13.5,0.25,60,151.0
81,A5,13.5,0.25,60,151.0
82,E4,13.5,0.25,48,151.0
83,B3,13.5,0.25,48,151.0
84,G5,13.875,0.062,64,151.0
85,A5,13.938,0.062,64,151.0
86,B5,14.0,0.25,79,151.0
87,A5,14.0,0.062,64,151.0
88,E3,14.0,0.25,67,151.0
89,F#5,14.5,0.25,62,151.0
90,A5,14.5,0.25,62,151.0
91,E4,14.5,0.25,48,151.0
92,B3,14.5,0.25,48,151.0
93,B2,15.0,0.25,52,151.0
94,E5,15.0,0.25,64,151.0
95,G5,15.0,0.25,64,151.0
96,B3,15.5,0.25,52,151.0
97,E-5,15.5,0.25,61,151.0
98,F#5,15.5,0.25,61,151.0
99,E5,16.0,0.938,69,151.0
100,E3,16.0,0.938,57,151.0
101,B4,17.0,0.25,66,151.0
102,A4,17.25,0.25,64,151.0
103,G#4,17.5,0.25,64,151.0
104,A4,17.75,0.25,64,151.0
105,C5,18.0,0.25,71,151.0
106,A3,18.0,0.25,57,151.0
107,E4,18.5,0.25,48,151.0
108,C4,18.5,0.25,48,151.0
109,D5,19.0,0.25,66,151.0
110,C4,19.0,0.25,48,151.0
111,E4,19.0,0.25,48,151.0
112,C5,19.25,0.25,63,151.0
113,B4,19.5,0.25,63,151.0
114,C4,19.5,0.25,46,151.0
115,E4,19.5,0.25,46,151.0
116,C5,19.75,0.25,63,151.0
117,E5,20.0,0.25,72,151.0
118,A3,20.0,0.25,57,151.0
119,E4,20.5,0.25,48,151.0
120,C4,20.5,0.25,48,151.0
121,F5,21.0,0.25,66,151.0
122,E4,21.0,0.25,48,151.0
123,C4,21.0,0.25,48,151.0
124,E5,21.25,0.25,63,151.0
125,E-5,21.5,0.25,63,151.0
126,E4,21.5,0.25,48,151.0
127,C4,21.5,0.25,48,151.0
128,E5,21.75,0.25,63,151.0
129,B5,22.0,0.25,70,151.0
130,A3,22.0,0.25,57,151.0
131,A5,22.25,0.25,64,151.0
132,G#5,22.5,0.25,64,151.0
133,E4,22.5,0.25,46,151.0
134,C4,22.5,0.25,46,151.0
135,A5,22.75,0.25,64,151.0
136,B5,23.0,0.25,69,151.0
137,A3,23.0,0.25,57,151.0
138,A5,23.25,0.25,64,151.0
139,G#5,23.5,0.25,64,151.0
140,E4,23.5,0.25,48,151.0
141,C4,23.5,0.25,48,151.0
142,A5,23.75,0.25,64,151.0
143,C6,24.0,1.0,72,151.0
144,A3,24.0,0.25,57,151.0
145,E4,24.5,0.25,46,151.0
146,C4,24.5,0.25,46,151.0
147,A5,25.0,0.25,68,151.0
148,E4,25.0,0.25,46,151.0
149,C4,25.0,0.25,46,151.0
150,C6,25.5,0.25,65,151.0
151,E4,25.5,0.25,46,151.0
152,C4,25.5,0.25,46,151.0
153,G5,25.875,0.062,63,151.0
154,A5,25.938,0.062,63,151.0
155,B5,26.0,0.25,80,151.0
156,E3,26.0,0.25,65,151.0
157,F#5,26.5,0.25,59,151.0
158,A5,26.5,0.25,59,151.0
159,E4,26.5,0.25,48,151.0
160,B3,26.5,0.25,48,151.0
161,E5,27.0,0.25,64,151.0
162,G5,27.0,0.25,64,151.0
163,E4,27.0,0.25,48,151.0
164,B3,27.0,0.25,48,151.0
165,F#5,27.5,0.25,59,151.0
166,A5,27.5,0.25,59,151.0
167,E4,27.5,0.25,48,151.0
168,B3,27.5,0.25,48,151.0
169,G5,27.875,0.062,65,151.0
170,A5,27.938,0.062,65,151.0
171,B5,28.0,0.25,82,151.0
172,E3,28.0,0.25,66,151.0
173,F#5,28.5,0.25,61,151.0
174,A5,28.5,0.25,61,151.0
175,E4,28.5,0.25,48,151.0
176,B3,28.5,0.25,48,151.0
177,E5,29.0,0.25,64,151.0
178,G5,29.0,0.25,64,151.0
179,E4,29.0,0.25,48,151.0
180,B3,29.0,0.25,48,151.0
181,F#5,29.5,0.25,60,151.0
182,A5,29.5,0.25,60,151.0
183,E4,29.5,0.25,48,151.0
184,B3,29.5,0.25,48,151.0
185,G5,29.875,0.062,64,151.0
186,A5,29.938,0.062,64,151.0
187,B5,30.0,0.25,79,151.0
188,A5,30.0,0.062,64,151.0
189,E3,30.0,0.25,67,151.0
190,F#5,30.5,0.25,62,151.0
191,A5,30.5,0.25,62,151.0
192,E4,30.5,0.25,48,151.0
193,B3,30.5,0.25,48,151.0
194,B2,31.0,0.25,52,151.0
195,E5,31.0,0.25,64,151.0
196,G5,31.0,0.25,64,151.0
197,B3,31.5,0.25,52,151.0
198,E-5,31.5,0.25,61,151.0
199,F#5,31.5,0.25,61,151.0
200,E5,32.0,0.938,69,151.0
201,E3,32.0,0.938,57,151.0
202,C5,33.0,0.25,56,151.0
203,E5,33.0,0.25,56,151.0
204,D5,33.5,0.25,56,151.0
205,F5,33.5,0.25,56,151.0
206,C3,34.0,0.25,59,151.0
207,E5,34.0,0.25,66,151.0
208,G5,34.0,0.25,66,151.0
209,C4,34.5,0.25,53,151.0
210,E5,34.5,0.25,57,151.0
211,G5,34.5,0.25,57,151.0
212,A5,35.0,0.25,64,151.0
213,E3,35.0,0.25,59,151.0
214,G5,35.25,0.25,57,151.0
215,F5,35.5,0.25,57,151.0
216,E4,35.5,0.25,57,151.0
217,E5,35.75,0.25,57,151.0
218,D5,36.0,1.0,65,151.0
219,B4,36.0,0.5,65,151.0
220,G3,36.0,1.0,60,151.0
221,G4,36.5,0.5,59,151.0
222,C5,37.0,0.25,56,151.0
223,E5,37.0,0.25,56,151.0
224,D5,37.5,0.25,56,151.0
225,F5,37.5,0.25,56,151.0
226,C3,38.0,0.25,59,151.0
227,E5,38.0,0.25,66,151.0
228,G5,38.0,0.25,66,151.0
229,C4,38.5,0.25,53,151.0
230,E5,38.5,0.25,57,151.0
231,G5,38.5,0.25,57,151.0
232,A5,39.0,0.25,64,151.0
233,E3,39.0,0.25,59,151.0
234,G5,39.25,0.25,57,151.0
235,F5,39.5,0.25,57,151.0
236,E4,39.5,0.25,57,151.0
237,E5,39.75,0.25,57,151.0
238,G3,40.0,1.0,60,151.0
239,D5,40.0,1.0,65,151.0
240,B4,40.0,1.0,65,151.0
241,A4,41.0,0.25,56,151.0
242,C5,41.0,0.25,56,151.0
243,B4,41.5,0.25,56,151.0
244,D5,41.5,0.25,56,151.0
245,A2,42.0,0.25,59,151.0
246,C5,42.0,0.25,66,151.0
247,E5,42.0,0.25,66,151.0
248,A3,42.5,0.25,53,151.0
249,C5,42.5,0.25,57,151.0
250,E5,42.5,0.25,57,151.0
251,F5,43.0,0.25,64,151.0
252,C3,43.0,0.25,59,151.0
253,E5,43.25,0.25,57,151.0
254,D5,43.5,0.25,57,151.0
255,C4,43.5,0.25,57,151.0
256,C5,43.75,0.25,57,151.0
257,B4,44.0,1.0,65,151.0
258,G#4,44.0,0.5,65,151.0
259,E3,44.0,1.0,60,151.0
260,E4,44.5,0.5,59,151.0
261,A4,45.0,0.25,56,151.0
262,C5,45.0,0.25,56,151.0
263,B4,45.5,0.25,56,151.0
264,D5,45.5,0.25,56,151.0
265,A2,46.0,0.25,59,151.0
266,C5,46.0,0.25,66,151.0
267,E5,46.0,0.25,66,151.0
268,A3,46.5,0.25,53,151.0
269,C5,46.5,0.25,57,151.0
270,E5,46.5,0.25,57,151.0
271,F5,47.0,0.25,64,151.0
272,C3,47.0,0.25,59,151.0
273,E5,47.25,0.25,57,151.0
274,D5,47.5,0.25,57,151.0
275,C4,47.5,0.25,57,151.0
276,C5,47.75,0.25,57,151.0
277,E3,48.0,1.0,60,151.0
278,B4,48.0,1.0,65,151.0
279,G#4,48.0,1.0,65,151.0
280,B4,49.0,0.25,56,151.0
281,A4,49.25,0.25,56,151.0
282,G#4,49.5,0.25,56,151.0
283,A4,49.75,0.25,56,151.0
284,C5,50.0,0.25,59,151.0
285,A3,50.0,0.25,53,151.0
286,E4,50.5,0.25,47,151.0
287,C4,50.5,0.25,47,151.0
288,D5,51.0,0.25,62,151.0
289,C4,51.0,0.25,47,151.0
290,E4,51.0,0.25,47,151.0
291,C5,51.25,0.25,57,151.0
292,B4,51.5,0.25,57,151.0
293,C4,51.5,0.25,47,151.0
294,E4,51.5,0.25,47,151.0
295,C5,51.75,0.25,57,151.0
296,E5,52.0,0.25,66,151.0
297,A3,52.0,0.25,54,151.0
298,E4,52.5,0.25,48,151.0
299,C4,52.5,0.25,48,151.0
300,F5,53.0,0.25,63,151.0
301,E4,53.0,0.25,48,151.0
302,C4,53.0,0.25,48,151.0
303,E5,53.25,0.25,58,151.0
304,E-5,53.5,0.25,58,151.0
305,E4,53.5,0.25,48,151.0
306,C4,53.5,0.25,48,151.0
307,E5,53.75,0.25,58,151.0
308,B5,54.0,0.25,70,151.0
309,A3,54.0,0.25,56,151.0
310,A5,54.25,0.25,63,151.0
311,G#5,54.5,0.25,63,151.0
312,E4,54.5,0.25,49,151.0
313,C4,54.5,0.25,49,151.0
314,A5,54.75,0.25,63,151.0
315,B5,55.0,0.25,71,151.0
316,A3,55.0,0.25,57,151.0
317,A5,55.25,0.25,64,151.0
318,G#5,55.5,0.25,64,151.0
319,E4,55.5,0.25,48,151.0
320,C4,55.5,0.25,48,151.0
321,A5,55.75,0.25,64,151.0
322,C6,56.0,1.0,76,151.0
323,F3,56.0,0.25,57,151.0
324,E-4,56.5,0.25,51,151.0
325,A3,56.5,0.25,51,151.0
326,A5,57.0,0.25,62,151.0
327,E-4,57.0,0.25,43,151.0
328,A3,57.0,0.25,43,151.0
329,B5,57.5,0.25,62,151.0
330,E-4,57.5,0.25,39,151.0
331,A3,57.5,0.25,39,151.0
332,C6,58.0,0.25,70,151.0
333,E3,58.0,0.25,46,151.0
334,B5,58.5,0.25,62,151.0
335,E4,58.5,0.25,42,151.0
336,A3,58.5,0.25,42,151.0
337,A5,59.0,0.25,62,151.0
338,D3,59.0,0.25,42,151.0
339,G#5,59.5,0.25,62,151.0
340,B3,59.5,0.25,42,151.0
341,F3,59.5,0.25,42,151.0
342,A5,60.0,0.25,71,151.0
343,C3,60.0,0.25,47,151.0
344,E5,60.5,0.25,64,151.0
345,A3,60.5,0.25,39,151.0
346,E3,60.5,0.25,39,151.0
347,D3,61.0,0.25,41,151.0
348,F5,61.008,0.25,64,151.0
349,D5,61.5,0.25,64,151.0
350,B3,61.5,0.25,41,151.0
351,F3,61.5,0.25,41,151.0
352,C5,62.0,1.0,74,151.0
353,E3,62.0,0.25,48,151.0
354,A3,62.0,0.25,48,151.0
355,A3,62.5,0.25,41,151.0
356,E3,62.5,0.25,41,151.0
357,E3,62.99,0.25,41,151.0
358,G#3,62.99,0.25,41,151.0
359,B4,63.0,0.125,64,151.0
360,C5,63.125,0.125,57,151.0
361,B4,63.25,0.125,57,151.0
362,C5,63.375,0.125,57,151.0
363,B4,63.5,1/125,57,151.0
364,E3,63.5,0.25,41,151.0
365,G#3,63.5,0.25,41,151.0
366,C5,63.583,83/1000,57,151.0
367,B4,63.667,83/1000,57,151.0
368,A4,63.75,0.125,64,151.0
369,B4,63.875,0.125,57,151.0
370,A4,64.0,0.938,65,151.0
371,A2,64.0,0.938,46,151.0
372,A3,64.0,0.938,46,151.0
373,C5,65.0,0.25,56,151.0
374,E5,65.0,0.25,56,151.0
375,D5,65.5,0.25,56,151.0
376,F5,65.5,0.25,56,151.0
377,C3,66.0,0.25,59,151.0
378,E5,66.0,0.25,66,151.0
379,G5,66.0,0.25,66,151.0
380,C4,66.5,0.25,53,151.0
381,E5,66.5,0.25,57,151.0
382,G5,66.5,0.25,57,151.0
383,A5,67.0,0.25,64,151.0
384,E3,67.0,0.25,59,151.0
385,G5,67.25,0.25,57,151.0
386,F5,67.5,0.25,57,151.0
387,E4,67.5,0.25,57,151.0
388,E5,67.75,0.25,57,151.0
389,D5,68.0,1.0,65,151.0
390,B4,68.0,0.5,65,151.0
391,G3,68.0,1.0,60,151.0
392,G4,68.5,0.5,59,151.0
393,C5,69.0,0.25,56,151.0
394,E5,69.0,0.25,56,151.0
395,D5,69.5,0.25,56,151.0
396,F5,69.5,0.25,56,151.0
397,C3,70.0,0.25,59,151.0
398,E5,70.0,0.25,66,151.0
399,G5,70.0,0.25,66,151.0
400,C4,70.5,0.25,53,151.0
401,E5,70.5,0.25,57,151.0
402,G5,70.5,0.25,57,151.0
403,A5,71.0,0.25,64,151.0
404,E3,71.0,0.25,59,151.0
405,G5,71.25,0.25,57,151.0
406,F5,71.5,0.25,57,151.0
407,E4,71.5,0.25,57,151.0
408,E5,71.75,0.25,57,151.0
409,G3,72.0,1.0,60,151.0
410,D5,72.0,1.0,65,151.0
411,B4,72.0,1.0,65,151.0
412,A4,73.0,0.25,56,151.0
413,C5,73.0,0.25,56,151.0
414,B4,73.5,0.25,56,151.0
415,D5,73.5,0.25,56,151.0
416,A2,74.0,0.25,59,151.0
417,C5,74.0,0.25,66,151.0
418,E5,74.0,0.25,66,151.0
419,A3,74.5,0.25,53,151.0
420,C5,74.5,0.25,57,151.0
421,E5,74.5,0.25,57,151.0
422,F5,75.0,0.25,64,151.0
423,C3,75.0,0.25,59,151.0
424,E5,75.25,0.25,57,151.0
425,D5,75.5,0.25,57,151.0
426,C4,75.5,0.25,57,151.0
427,C5,75.75,0.25,57,151.0
428,B4,76.0,1.0,65,151.0
429,G#4,76.0,0.5,65,151.0
430,E3,76.0,1.0,60,151.0
431,E4,76.5,0.5,59,151.0
432,A4,77.0,0.25,56,151.0
433,C5,77.0,0.25,56,151.0
434,B4,77.5,0.25,56,151.0
435,D5,77.5,0.25,56,151.0
436,A2,78.0,0.25,59,151.0
437,C5,78.0,0.25,66,151.0
438,E5,78.0,0.25,66,151.0
439,A3,78.5,0.25,53,151.0
440,C5,78.5,0.25,57,151.0
441,E5,78.5,0.25,57,151.0
442,F5,79.0,0.25,64,151.0
443,C3,79.0,0.25,59,151.0
444,E5,79.25,0.25,57,151.0
445,D5,79.5,0.25,57,151.0
446,C4,79.5,0.25,57,151.0
447,C5,79.75,0.25,57,151.0
448,E3,80.0,1.0,60,151.0
449,B4,80.0,1.0,65,151.0
450,G#4,80.0,1.0,65,151.0
451,B4,81.0,0.25,56,151.0
452,A4,81.25,0.25,56,151.0
453,G#4,81.5,0.25,56,151.0
454,A4,81.75,0.25,56,151.0
455,C5,82.0,0.25,59,151.0
456,A3,82.0,0.25,53,151.0
457,E4,82.5,0.25,47,151.0
458,C4,82.5,0.25,47,151.0
459,D5,83.0,0.25,62,151.0
460,C4,83.0,0.25,47,151.0
461,E4,83.0,0.25,47,151.0
462,C5,83.25,0.25,57,151.0
463,B4,83.5,0.25,57,151.0
464,C4,83.5,0.25,47,151.0
465,E4,83.5,0.25,47,151.0
466,C5,83.75,0.25,57,151.0
467,E5,84.0,0.25,66,151.0
468,A3,84.0,0.25,54,151.0
469,E4,84.5,0.25,48,151.0
470,C4,84.5,0.25,48,151.0
471,F5,85.0,0.25,63,151.0
472,E4,85.0,0.25,48,151.0
473,C4,85.0,0.25,48,151.0
474,E5,85.25,0.25,58,151.0
475,E-5,85.5,0.25,58,151.0
476,E4,85.5,0.25,48,151.0
477,C4,85.5,0.25,48,151.0
478,E5,85.75,0.25,58,151.0
479,B5,86.0,0.25,70,151.0
480,A3,86.0,0.25,56,151.0
481,A5,86.25,0.25,63,151.0
482,G#5,86.5,0.25,63,151.0
483,E4,86.5,0.25,49,151.0
484,C4,86.5,0.25,49,151.0
485,A5,86.75,0.25,63,151.0
486,B5,87.0,0.25,71,151.0
487,A3,87.0,0.25,57,151.0
488,A5,87.25,0.25,64,151.0
489,G#5,87.5,0.25,64,151.0
490,E4,87.5,0.25,48,151.0
491,C4,87.5,0.25,48,151.0
492,A5,87.75,0.25,64,151.0
493,C6,88.0,1.0,76,151.0
494,F3,88.0,0.25,57,151.0
495,E-4,88.5,0.25,51,151.0
496,A3,88.5,0.25,51,151.0
497,A5,89.0,0.25,62,151.0
498,E-4,89.0,0.25,43,151.0
499,A3,89.0,0.25,43,151.0
500,B5,89.5,0.25,62,151.0
501,E-4,89.5,0.25,39,151.0
502,A3,89.5,0.25,39,151.0
503,C6,90.0,0.25,70,151.0
504,E3,90.0,0.25,46,151.0
505,B5,90.5,0.25,62,151.0
506,E4,90.5,0.25,42,151.0
507,A3,90.5,0.25,42,151.0
508,A5,91.0,0.25,62,151.0
509,D3,91.0,0.25,42,151.0
510,G#5,91.5,0.25,62,151.0
511,B3,91.5,0.25,42,151.0
512,F3,91.5,0.25,42,151.0
513,A5,92.0,0.25,71,151.0
514,C3,92.0,0.25,47,151.0
515,E5,92.5,0.25,64,151.0
516,A3,92.5,0.25,39,151.0
517,E3,92.5,0.25,39,151.0
518,D3,93.0,0.25,41,151.0
519,F5,93.008,0.25,64,151.0
520,D5,93.5,0.25,64,151.0
521,B3,93.5,0.25,41,151.0
522,F3,93.5,0.25,41,151.0
523,C5,94.0,1.0,74,151.0
524,E3,94.0,0.25,48,151.0
525,A3,94.0,0.25,48,151.0
526,A3,94.5,0.25,41,151.0
527,E3,94.5,0.25,41,151.0
528,E3,94.99,0.25,41,151.0
529,G#3,94.99,0.25,41,151.0
530,B4,95.0,0.125,64,151.0
531,C5,95.125,0.125,57,151.0
532,B4,95.25,0.125,57,151.0
533,C5,95.375,0.125,57,151.0
534,B4,95.5,1/125,57,151.0
535,E3,95.5,0.25,41,151.0
536,G#3,95.5,0.25,41,151.0
537,C5,95.583,83/1000,57,151.0
538,B4,95.667,83/1000,57,151.0
539,A4,95.75,0.125,64,151.0
540,B4,95.875,0.125,57,151.0
541,A4,96.0,0.938,65,151.0
542,A2,96.0,0.938,46,151.0
543,A3,96.0,0.938,46,151.0
544,A4,97.0,0.25,78,151.0
545,A5,97.0,0.25,78,151.0
546,B4,97.5,0.25,78,151.0
547,B5,97.5,0.25,78,151.0
548,A2,97.75,83/1000,64,151.0
549,C#3,97.833,83/1000,64,151.0
550,E3,97.917,83/1000,64,151.0
551,A3,98.0,0.25,73,151.0
552,C#5,98.0,1.0,84,151.0
553,C#6,98.0,1.0,84,151.0
554,A3,98.5,0.25,69,151.0
555,A3,99.0,0.25,69,151.0
556,A4,99.0,0.25,78,151.0
557,A5,99.0,0.25,78,151.0
558,A3,99.5,0.25,69,151.0
559,B4,99.5,0.25,78,151.0
560,B5,99.5,0.25,78,151.0
561,A2,99.75,83/1000,60,151.0
562,C#3,99.833,83/1000,60,151.0
563,E3,99.917,83/1000,60,151.0
564,A3,100.0,0.25,72,151.0
565,C#5,100.0,0.25,85,151.0
566,C#6,100.0,0.25,85,151.0
567,A3,100.5,0.25,64,151.0
568,B4,100.5,0.25,77,151.0
569,B5,100.5,0.25,77,151.0
570,A3,101.0,0.25,65,151.0
571,A4,101.0,0.25,83,151.0
572,A5,101.0,0.25,83,151.0
573,A3,101.5,0.25,67,151.0
574,G#4,101.5,0.25,78,151.0
575,G#5,101.5,0.25,78,151.0
576,D2,101.75,83/1000,63,151.0
577,F#2,101.833,83/1000,63,151.0
578,A2,101.917,83/1000,63,151.0
579,D3,102.0,0.25,73,151.0
580,F#4,102.0,0.25,86,151.0
581,F#5,102.0,0.25,86,151.0
582,D3,102.5,0.25,69,151.0
583,G#4,102.5,0.25,74,151.0
584,G#5,102.5,0.25,74,151.0
585,E-2,102.75,83/1000,63,151.0
586,F#2,102.833,83/1000,63,151.0
587,A2,102.917,83/1000,63,151.0
588,E-3,103.0,0.25,73,151.0
589,A4,103.0,0.25,80,151.0
590,A5,103.0,0.25,80,151.0
591,E-3,103.5,0.25,71,151.0
592,B4,103.5,0.25,75,151.0
593,B5,103.5,0.25,75,151.0
594,E2,103.75,83/1000,63,151.0
595,G#2,103.833,83/1000,63,151.0
596,B2,103.917,83/1000,63,151.0
597,E3,104.0,0.5,73,151.0
598,G#4,104.0,0.5,84,151.0
599,G#5,104.0,0.5,84,151.0
600,E3,104.5,0.25,73,151.0
601,E4,104.5,0.25,78,151.0
602,E5,104.5,0.25,78,151.0
603,A4,105.0,0.25,78,151.0
604,A5,105.0,0.25,78,151.0
605,B4,105.5,0.25,78,151.0
606,B5,105.5,0.25,78,151.0
607,A2,105.75,83/1000,64,151.0
608,C#3,105.833,83/1000,64,151.0
609,E3,105.917,83/1000,64,151.0
610,A3,106.0,0.25,73,151.0
611,C#5,106.0,1.0,84,151.0
612,C#6,106.0,1.0,84,151.0
613,A3,106.5,0.25,69,151.0
614,A3,107.0,0.25,69,151.0
615,A4,107.0,0.25,78,151.0
616,A5,107.0,0.25,78,151.0
617,A3,107.5,0.25,69,151.0
618,B4,107.5,0.25,78,151.0
619,B5,107.5,0.25,78,151.0
620,A2,107.75,83/1000,60,151.0
621,C#3,107.833,83/1000,60,151.0
622,E3,107.917,83/1000,60,151.0
623,A3,108.0,0.25,72,151.0
624,C#5,108.0,0.25,85,151.0
625,C#6,108.0,0.25,85,151.0
626,A3,108.5,0.25,64,151.0
627,B4,108.5,0.25,77,151.0
628,B5,108.5,0.25,77,151.0
629,A3,109.0,0.25,65,151.0
630,A4,109.0,0.25,83,151.0
631,A5,109.0,0.25,83,151.0
632,A3,109.5,0.25,67,151.0
633,G#4,109.5,0.25,78,151.0
634,G#5,109.5,0.25,78,151.0
635,D2,109.75,83/1000,63,151.0
636,F#2,109.833,83/1000,63,151.0
637,A2,109.917,83/1000,63,151.0
638,D3,110.0,0.25,73,151.0
639,F#4,110.0,0.25,86,151.0
640,F#5,110.0,0.25,86,151.0
641,D3,110.5,0.25,69,151.0
642,B4,110.5,0.25,74,151.0
643,B5,110.5,0.25,74,151.0
644,E2,110.75,83/1000,63,151.0
645,G#2,110.833,83/1000,63,151.0
646,B2,110.917,83/1000,63,151.0
647,E3,111.0,0.25,73,151.0
648,G#4,111.0,0.25,80,151.0
649,G#5,111.0,0.25,80,151.0
650,E3,111.5,0.25,71,151.0
651,E4,111.5,0.25,75,151.0
652,E5,111.5,0.25,75,151.0
653,A2,112.0,0.938,73,151.0
654,A4,112.0,0.938,84,151.0
655,A5,112.0,0.938,84,151.0
656,A4,113.0,0.25,78,151.0
657,A5,113.0,0.25,78,151.0
658,B4,113.5,0.25,78,151.0
659,B5,113.5,0.25,78,151.0
660,A2,113.75,83/1000,64,151.0
661,C#3,113.833,83/1000,64,151.0
662,E3,113.917,83/1000,64,151.0
663,A3,114.0,0.25,73,151.0
664,C#5,114.0,1.0,84,151.0
665,C#6,114.0,1.0,84,151.0
666,A3,114.5,0.25,69,151.0
667,A3,115.0,0.25,69,151.0
668,A4,115.0,0.25,78,151.0
669,A5,115.0,0.25,78,151.0
670,A3,115.5,0.25,69,151.0
671,B4,115.5,0.25,78,151.0
672,B5,115.5,0.25,78,151.0
673,A2,115.75,83/1000,60,151.0
674,C#3,115.833,83/1000,60,151.0
675,E3,115.917,83/1000,60,151.0
676,A3,116.0,0.25,72,151.0
677,C#5,116.0,0.25,85,151.0
678,C#6,116.0,0.25,85,151.0
679,A3,116.5,0.25,64,151.0
680,B4,116.5,0.25,77,151.0
681,B5,116.5,0.25,77,151.0
682,A3,117.0,0.25,65,151.0
683,A4,117.0,0.25,83,151.0
684,A5,117.0,0.25,83,151.0
685,A3,117.5,0.25,67,151.0
686,G#4,117.5,0.25,78,151.0
687,G#5,117.5,0.25,78,151.0
688,D2,117.75,83/1000,63,151.0
689,F#2,117.833,83/1000,63,151.0
690,A2,117.917,83/1000,63,151.0
691,D3,118.0,0.25,73,151.0
692,F#4,118.0,0.25,86,151.0
693,F#5,118.0,0.25,86,151.0
694,D3,118.5,0.25,69,151.0
695,G#4,118.5,0.25,74,151.0
696,G#5,118.5,0.25,74,151.0
697,E-2,118.75,83/1000,63,151.0
698,F#2,118.833,83/1000,63,151.0
699,A2,118.917,83/1000,63,151.0
700,E-3,119.0,0.25,73,151.0
701,A4,119.0,0.25,80,151.0
702,A5,119.0,0.25,80,151.0
703,E-3,119.5,0.25,71,151.0
704,B4,119.5,0.25,75,151.0
705,B5,119.5,0.25,75,151.0
706,E2,119.75,83/1000,63,151.0
707,G#2,119.833,83/1000,63,151.0
708,B2,119.917,83/1000,63,151.0
709,E3,120.0,0.5,73,151.0
710,G#4,120.0,0.5,84,151.0
711,G#5,120.0,0.5,84,151.0
712,E3,120.5,0.25,73,151.0
713,E4,120.5,0.25,78,151.0
714,E5,120.5,0.25,78,151.0
715,A4,121.0,0.25,78,151.0
716,A5,121.0,0.25,78,151.0
717,B4,121.5,0.25,78,151.0
718,B5,121.5,0.25,78,151.0
719,A2,121.75,83/1000,64,151.0
720,C#3,121.833,83/1000,64,151.0
721,E3,121.917,83/1000,64,151.0
722,A3,122.0,0.25,73,151.0
723,C#5,122.0,1.0,84,151.0
724,C#6,122.0,1.0,84,151.0
725,A3,122.5,0.25,69,151.0
726,A3,123.0,0.25,69,151.0
727,A4,123.0,0.25,78,151.0
728,A5,123.0,0.25,78,151.0
729,A3,123.5,0.25,69,151.0
730,B4,123.5,0.25,78,151.0
731,B5,123.5,0.25,78,151.0
732,A2,123.75,83/1000,60,151.0
733,C#3,123.833,83/1000,60,151.0
734,E3,123.917,83/1000,60,151.0
735,A3,124.0,0.25,72,151.0
736,C#5,124.0,0.25,85,151.0
737,C#6,124.0,0.25,85,151.0
738,A3,124.5,0.25,64,151.0
739,B4,124.5,0.25,77,151.0
740,B5,124.5,0.25,77,151.0
741,A3,125.0,0.25,65,151.0
742,A4,125.0,0.25,83,151.0
743,A5,125.0,0.25,83,151.0
744,A3,125.5,0.25,67,151.0
745,G#4,125.5,0.25,78,151.0
746,G#5,125.5,0.25,78,151.0
747,D2,125.75,83/1000,63,151.0
748,F#2,125.833,83/1000,63,151.0
749,A2,125.917,83/1000,63,151.0
750,D3,126.0,0.25,73,151.0
751,F#4,126.0,0.25,86,151.0
752,F#5,126.0,0.25,86,151.0
753,D3,126.5,0.25,69,151.0
754,B4,126.5,0.25,74,151.0
755,B5,126.5,0.25,74,151.0
756,E2,126.75,83/1000,63,151.0
757,G#2,126.833,83/1000,63,151.0
758,B2,126.917,83/1000,63,151.0
759,E3,127.0,0.25,73,151.0
760,G#4,127.0,0.25,80,151.0
761,G#5,127.0,0.25,80,151.0
762,E3,127.5,0.25,71,151.0
763,E4,127.5,0.25,75,151.0
764,E5,127.5,0.25,75,151.0
765,A2,128.0,0.938,73,151.0
766,A4,128.0,0.938,84,151.0
767,A5,128.0,0.938,84,151.0
768,C#6,129.0,11/40,60,151.0
769,D6,129.25,11/40,52,151.0
770,C#6,129.5,11/40,52,151.0
771,B5,129.75,0.25,52,151.0
772,A5,130.0,11/40,58,151.0
773,B5,130.0,1/40,52,151.0
774,F#3,130.0,0.25,50,151.0
775,B5,130.25,11/40,50,151.0
776,A5,130.5,11/40,50,151.0
777,C#4,130.5,0.25,34,151.0
778,A3,130.5,0.25,34,151.0
779,G#5,130.75,11/40,50,151.0
780,F#5,131.0,11/40,56,151.0
781,C#4,131.0,0.25,34,151.0
782,A3,131.0,0.25,34,151.0
783,A5,131.25,11/40,50,151.0
784,G#5,131.5,11/40,46,151.0
785,C#4,131.5,0.25,34,151.0
786,A3,131.5,0.25,34,151.0
787,F#5,131.75,0.25,46,151.0
788,F5,132.0,11/40,58,151.0
789,F#5,132.0,1/40,46,151.0
790,G#3,132.0,0.25,50,151.0
791,F#5,132.25,11/40,47,151.0
792,G#5,132.5,11/40,49,151.0
793,C#4,132.5,0.25,33,151.0
794,B3,132.5,0.25,33,151.0
795,F5,132.75,11/40,46,151.0
796,C#5,133.0,11/40,56,151.0
797,C#4,133.0,0.25,33,151.0
798,B3,133.0,0.25,33,151.0
799,E-5,133.25,11/40,47,151.0
800,F5,133.5,11/40,50,151.0
801,C#4,133.5,0.25,33,151.0
802,B3,133.5,0.25,33,151.0
803,C#5,133.75,0.25,47,151.0
804,F#5,134.0,11/40,56,151.0
805,C#5,134.0,1/40,47,151.0
806,F#3,134.0,0.25,50,151.0
807,F5,134.25,11/40,47,151.0
808,F#5,134.5,11/40,51,151.0
809,C#4,134.5,0.25,33,151.0
810,A3,134.5,0.25,33,151.0
811,G#5,134.75,11/40,48,151.0
812,A5,135.0,11/40,58,151.0
813,C#4,135.0,0.25,34,151.0
814,A3,135.0,0.25,34,151.0
815,G#5,135.25,11/40,54,151.0
816,A5,135.5,11/40,56,151.0
817,C#4,135.5,0.25,35,151.0
818,A3,135.5,0.25,35,151.0
819,B5,135.75,0.25,59,151.0
820,C#6,136.0,11/40,68,151.0
821,B5,136.0,1/40,59,151.0
822,F3,136.0,0.25,55,151.0
823,C6,136.25,11/40,62,151.0
824,C#6,136.5,11/40,66,151.0
825,C#4,136.5,0.25,34,151.0
826,G#3,136.5,0.25,34,151.0
827,C6,136.75,0.25,59,151.0
828,C#6,137.0,11/40,61,151.0
829,C#4,137.0,0.25,34,151.0
830,G#3,137.0,0.25,34,151.0
831,D6,137.25,11/40,55,151.0
832,C#6,137.5,11/40,55,151.0
833,C#4,137.5,0.25,34,151.0
834,G#3,137.5,0.25,34,151.0
835,B5,137.75,0.25,55,151.0
836,A5,138.0,11/40,58,151.0
837,B5,138.0,1/40,55,151.0
838,F#3,138.0,0.25,50,151.0
839,B5,138.25,11/40,47,151.0
840,A5,138.5,11/40,53,151.0
841,C#4,138.5,0.25,33,151.0
842,A3,138.5,0.25,33,151.0
843,G#5,138.75,11/40,47,151.0
844,F#5,139.0,11/40,54,151.0
845,C#4,139.0,0.25,33,151.0
846,A3,139.0,0.25,33,151.0
847,A5,139.25,11/40,47,151.0
848,G#5,139.5,11/40,50,151.0
849,C#4,139.5,0.25,33,151.0
850,A3,139.5,0.25,33,151.0
851,F#5,139.75,0.25,46,151.0
852,E5,140.0,11/40,56,151.0
853,F#5,140.0,1/40,46,151.0
854,G#3,140.0,0.25,50,151.0
855,F#5,140.25,11/40,47,151.0
856,G#5,140.5,11/40,50,151.0
857,E4,140.5,0.25,33,151.0
858,C#4,140.5,0.25,33,151.0
859,E5,140.75,11/40,47,151.0
860,C#5,141.0,11/40,54,151.0
861,E4,141.0,0.25,33,151.0
862,C#4,141.0,0.25,33,151.0
863,E-5,141.25,11/40,47,151.0
864,E5,141.5,11/40,53,151.0
865,E4,141.5,0.25,33,151.0
866,C#4,141.5,0.25,33,151.0
867,C#5,141.75,0.25,47,151.0
868,E-5,142.0,11/40,53,151.0
869,C#5,142.0,1/40,47,151.0
870,G#3,142.0,0.25,50,151.0
871,E5,142.25,11/40,47,151.0
872,F#5,142.5,11/40,51,151.0
873,F#4,142.5,0.25,34,151.0
874,E-4,142.5,0.25,34,151.0
875,E-5,142.75,11/40,47,151.0
876,C5,143.0,11/40,50,151.0
877,E-4,143.0,0.25,34,151.0
878,F#4,143.0,0.25,34,151.0
879,C#5,143.25,11/40,47,151.0
880,E-5,143.5,11/40,50,151.0
881,E-4,143.5,0.25,34,151.0
882,F#4,143.5,0.25,34,151.0
883,C5,143.75,0.25,46,151.0
884,C#5,144.0,0.938,52,151.0
885,C5,144.0,1/40,46,151.0
886,E4,144.0,0.938,46,151.0
887,C#4,144.0,0.938,46,151.0
888,C#6,145.0,11/40,60,151.0
889,D6,145.25,11/40,52,151.0
890,C#6,145.5,11/40,52,151.0
891,B5,145.75,0.25,52,151.0
892,A5,146.0,11/40,58,151.0
893,B5,146.0,1/40,52,151.0
894,F#3,146.0,0.25,50,151.0
895,B5,146.25,11/40,50,151.0
896,A5,146.5,11/40,50,151.0
897,C#4,146.5,0.25,34,151.0
898,A3,146.5,0.25,34,151.0
899,G#5,146.75,11/40,50,151.0
900,F#5,147.0,11/40,56,151.0
901,C#4,147.0,0.25,34,151.0
902,A3,147.0,0.25,34,151.0
903,A5,147.25,11/40,50,151.0
904,G#5,147.5,11/40,46,151.0
905,C#4,147.5,0.25,34,151.0
906,A3,147.5,0.25,34,151.0
907,F#5,147.75,0.25,46,151.0
908,F5,148.0,11/40,58,151.0
909,F#5,148.0,1/40,46,151.0
910,G#3,148.0,0.25,50,151.0
911,F#5,148.25,11/40,47,151.0
912,G#5,148.5,11/40,49,151.0
913,C#4,148.5,0.25,33,151.0
914,B3,148.5,0.25,33,151.0
915,F5,148.75,11/40,46,151.0
916,C#5,149.0,11/40,56,151.0
917,C#4,149.0,0.25,33,151.0
918,B3,149.0,0.25,33,151.0
919,E-5,149.25,11/40,47,151.0
920,F5,149.5,11/40,50,151.0
921,C#4,149.5,0.25,33,151.0
922,B3,149.5,0.25,33,151.0
923,C#5,149.75,0.25,47,151.0
924,F#5,150.0,11/40,56,151.0
925,C#5,150.0,1/40,47,151.0
926,F#3,150.0,0.25,50,151.0
927,F5,150.25,11/40,47,151.0
928,F#5,150.5,11/40,51,151.0
929,C#4,150.5,0.25,33,151.0
930,A3,150.5,0.25,33,151.0
931,G#5,150.75,11/40,48,151.0
932,A5,151.0,11/40,58,151.0
933,C#4,151.0,0.25,34,151.0
934,A3,151.0,0.25,34,151.0
935,G#5,151.25,11/40,54,151.0
936,A5,151.5,11/40,56,151.0
937,C#4,151.5,0.25,35,151.0
938,A3,151.5,0.25,35,151.0
939,B5,151.75,0.25,59,151.0
940,C#6,152.0,11/40,68,151.0
941,B5,152.0,1/40,59,151.0
942,F3,152.0,0.25,55,151.0
943,C6,152.25,11/40,62,151.0
944,C#6,152.5,11/40,66,151.0
945,C#4,152.5,0.25,34,151.0
946,G#3,152.5,0.25,34,151.0
947,C6,152.75,0.25,59,151.0
948,C#6,153.0,11/40,64,151.0
949,C#4,153.0,0.25,34,151.0
950,G#3,153.0,0.25,34,151.0
951,D6,153.25,11/40,57,151.0
952,C#6,153.5,11/40,57,151.0
953,C#4,153.5,0.25,34,151.0
954,G#3,153.5,0.25,34,151.0
955,B5,153.75,0.25,57,151.0
956,A5,154.0,11/40,60,151.0
957,B5,154.0,1/40,57,151.0
958,F#3,154.0,0.25,50,151.0
959,B5,154.25,11/40,51,151.0
960,A5,154.5,11/40,55,151.0
961,C#4,154.5,0.25,33,151.0
962,A3,154.5,0.25,33,151.0
963,G#5,154.75,11/40,47,151.0
964,F#5,155.0,11/40,54,151.0
965,C#4,155.0,0.25,33,151.0
966,A3,155.0,0.25,33,151.0
967,A5,155.25,11/40,47,151.0
968,G#5,155.5,11/40,50,151.0
969,C#4,155.5,0.25,33,151.0
970,A3,155.5,0.25,33,151.0
971,F#5,155.75,0.25,46,151.0
972,E5,156.0,11/40,53,151.0
973,F#5,156.0,1/40,46,151.0
974,G#3,156.0,0.25,50,151.0
975,F#5,156.25,11/40,47,151.0
976,G#5,156.5,11/40,50,151.0
977,E4,156.5,0.25,33,151.0
978,C#4,156.5,0.25,33,151.0
979,E5,156.75,11/40,47,151.0
980,C#5,157.0,11/40,54,151.0
981,E4,157.0,0.25,33,151.0
982,C#4,157.0,0.25,33,151.0
983,E-5,157.25,11/40,47,151.0
984,E5,157.5,11/40,53,151.0
985,E4,157.5,0.25,33,151.0
986,C#4,157.5,0.25,33,151.0
987,C#5,157.75,0.25,47,151.0
988,E-5,158.0,11/40,53,151.0
989,C#5,158.0,1/40,47,151.0
990,G#3,158.0,0.25,50,151.0
991,E5,158.25,11/40,47,151.0
992,F#5,158.5,11/40,51,151.0
993,F#4,158.5,0.25,34,151.0
994,E-4,158.5,0.25,34,151.0
995,E-5,158.75,11/40,47,151.0
996,C5,159.0,11/40,50,151.0
997,E-4,159.0,0.25,34,151.0
998,F#4,159.0,0.25,34,151.0
999,C#5,159.25,11/40,47,151.0
1000,E-5,159.5,11/40,50,151.0
1001,E-4,159.5,0.25,34,151.0
1002,F#4,159.5,0.25,34,151.0
1003,C5,159.75,0.25,46,151.0
1004,C#5,160.0,0.938,52,151.0
1005,C5,160.0,1/40,46,151.0
1006,E4,160.0,0.938,46,151.0
1007,C#4,160.0,0.938,46,151.0
1008,E5,161.0,11/40,69,151.0
1009,D5,161.25,11/40,59,151.0
1010,C#5,161.5,11/40,59,151.0
1011,B4,161.75,0.25,59,151.0
1012,A4,162.0,11/40,66,151.0
1013,B4,162.0,1/40,59,151.0
1014,A3,162.0,0.25,57,151.0
1015,B4,162.25,11/40,57,151.0
1016,C#5,162.5,11/40,57,151.0
1017,E4,162.5,0.25,40,151.0
1018,C#4,162.5,0.25,40,151.0
1019,D5,162.75,11/40,57,151.0
1020,E5,163.0,11/40,64,151.0
1021,E4,163.0,0.25,40,151.0
1022,C#4,163.0,0.25,40,151.0
1023,F#5,163.25,11/40,57,151.0
1024,G#5,163.5,11/40,56,151.0
1025,E4,163.5,0.25,40,151.0
1026,C#4,163.5,0.25,40,151.0
1027,A5,163.75,6/25,56,151.0
1028,A5,164.0,11/40,66,151.0
1029,B3,164.0,0.25,57,151.0
1030,G#5,164.25,11/40,60,151.0
1031,F#5,164.5,11/40,60,151.0
1032,E4,164.5,0.25,38,151.0
1033,D4,164.5,0.25,38,151.0
1034,E5,164.75,6/25,57,151.0
1035,E5,165.0,11/40,64,151.0
1036,G#3,165.0,0.25,57,151.0
1037,D5,165.25,11/40,59,151.0
1038,C#5,165.5,11/40,59,151.0
1039,E4,165.5,0.25,38,151.0
1040,D4,165.5,0.25,38,151.0
1041,B4,165.75,0.25,59,151.0
1042,A4,166.0,11/40,64,151.0
1043,B4,166.0,1/40,59,151.0
1044,A3,166.0,0.25,57,151.0
1045,B4,166.25,11/40,54,151.0
1046,C#5,166.5,11/40,57,151.0
1047,E4,166.5,0.25,38,151.0
1048,C#4,166.5,0.25,38,151.0
1049,D5,166.75,11/40,54,151.0
1050,E5,167.0,11/40,64,151.0
1051,E4,167.0,0.25,38,151.0
1052,C#4,167.0,0.25,38,151.0
1053,F#5,167.25,11/40,58,151.0
1054,G#5,167.5,11/40,60,151.0
1055,E4,167.5,0.25,38,151.0
1056,C#4,167.5,0.25,38,151.0
1057,A5,167.75,0.25,63,151.0
1058,B-5,168.0,0.5,75,151.0
1059,E3,168.0,0.5,57,151.0
1060,B5,168.5,11/40,69,151.0
1061,D4,168.5,0.25,36,151.0
1062,G#3,168.5,0.25,36,151.0
1063,E5,169.0,11/40,69,151.0
1064,G#3,169.0,0.25,36,151.0
1065,D4,169.0,0.25,36,151.0
1066,D5,169.25,11/40,59,151.0
1067,C#5,169.5,11/40,59,151.0
1068,G#3,169.5,0.25,36,151.0
1069,D4,169.5,0.25,36,151.0
1070,B4,169.75,0.25,59,151.0
1071,A4,170.0,11/40,66,151.0
1072,B4,170.0,1/40,59,151.0
1073,A3,170.0,0.25,57,151.0
1074,B4,170.25,11/40,57,151.0
1075,C#5,170.5,11/40,57,151.0
1076,E4,170.5,0.25,40,151.0
1077,C#4,170.5,0.25,40,151.0
1078,D5,170.75,11/40,57,151.0
1079,E5,171.0,11/40,64,151.0
1080,E4,171.0,0.25,40,151.0
1081,C#4,171.0,0.25,40,151.0
1082,F#5,171.25,11/40,57,151.0
1083,G#5,171.5,11/40,56,151.0
1084,E4,171.5,0.25,40,151.0
1085,C#4,171.5,0.25,40,151.0
1086,A5,171.75,6/25,56,151.0
1087,A5,172.0,11/40,66,151.0
1088,B3,172.0,0.25,57,151.0
1089,G#5,172.25,11/40,57,151.0
1090,F#5,172.5,11/40,60,151.0
1091,E4,172.5,0.25,38,151.0
1092,D4,172.5,0.25,38,151.0
1093,E5,172.75,6/25,57,151.0
1094,E5,173.0,11/40,64,151.0
1095,G#3,173.0,0.25,57,151.0
1096,D5,173.25,11/40,59,151.0
1097,C#5,173.5,11/40,59,151.0
1098,E4,173.5,0.25,38,151.0
1099,D4,173.5,0.25,38,151.0
1100,B4,173.75,0.25,59,151.0
1101,C#5,174.0,11/40,64,151.0
1102,B4,174.0,1/40,59,151.0
1103,A3,174.0,0.25,57,151.0
1104,E5,174.25,11/40,54,151.0
1105,A4,174.5,11/40,57,151.0
1106,F#3,174.5,0.25,46,151.0
1107,C#5,174.75,11/40,54,151.0
1108,B4,175.0,11/40,64,151.0
1109,D3,175.0,0.25,46,151.0
1110,D5,175.25,11/40,58,151.0
1111,G#4,175.5,11/40,60,151.0
1112,E3,175.5,0.25,46,151.0
1113,B4,175.75,0.25,55,151.0
1114,A4,176.0,0.75,66,151.0
1115,A2,176.0,0.5,57,151.0
1116,A3,176.5,0.25,44,151.0
1117,C#6,177.0,11/40,60,151.0
1118,D6,177.25,11/40,52,151.0
1119,C#6,177.5,11/40,52,151.0
1120,B5,177.75,0.25,52,151.0
1121,A5,178.0,11/40,58,151.0
1122,B5,178.0,1/40,52,151.0
1123,E3,178.0,0.25,50,151.0
1124,B5,178.25,11/40,50,151.0
1125,A5,178.5,11/40,50,151.0
1126,C#4,178.5,0.25,38,151.0
1127,A3,178.5,0.25,38,151.0
1128,G#5,178.75,11/40,50,151.0
1129,F#5,179.0,11/40,56,151.0
1130,C#4,179.0,0.25,38,151.0
1131,A3,179.0,0.25,38,151.0
1132,A5,179.25,11/40,50,151.0
1133,G#5,179.5,11/40,46,151.0
1134,C#4,179.5,0.25,38,151.0
1135,A3,179.5,0.25,38,151.0
1136,F#5,179.75,0.25,46,151.0
1137,F5,180.0,11/40,58,151.0
1138,F#5,180.0,1/40,46,151.0
1139,G#3,180.0,0.25,50,151.0
1140,F#5,180.25,11/40,47,151.0
1141,G#5,180.5,11/40,49,151.0
1142,C#4,180.5,0.25,38,151.0
1143,B3,180.5,0.25,38,151.0
1144,F5,180.75,11/40,46,151.0
1145,C#5,181.0,11/40,56,151.0
1146,C#4,181.0,0.25,38,151.0
1147,B3,181.0,0.25,38,151.0
1148,E-5,181.25,11/40,47,151.0
1149,F5,181.5,11/40,50,151.0
1150,C#4,181.5,0.25,38,151.0
1151,B3,181.5,0.25,38,151.0
1152,C#5,181.75,0.25,47,151.0
1153,F#5,182.0,11/40,56,151.0
1154,C#5,182.0,1/40,47,151.0
1155,F#3,182.0,0.25,50,151.0
1156,F5,182.25,11/40,47,151.0
1157,F#5,182.5,11/40,50,151.0
1158,C#4,182.5,0.25,37,151.0
1159,A3,182.5,0.25,37,151.0
1160,G#5,182.75,11/40,47,151.0
1161,A5,183.0,11/40,56,151.0
1162,C#4,183.0,0.25,37,151.0
1163,A3,183.0,0.25,37,151.0
1164,G#5,183.25,11/40,51,151.0
1165,A5,183.5,11/40,53,151.0
1166,C#4,183.5,0.25,37,151.0
1167,A3,183.5,0.25,37,151.0
1168,B5,183.75,0.25,55,151.0
1169,C#6,184.0,11/40,62,151.0
1170,B5,184.0,1/40,55,151.0
1171,C#3,184.0,0.25,50,151.0
1172,C6,184.25,11/40,57,151.0
1173,C#6,184.5,11/40,60,151.0
1174,C#4,184.5,0.25,45,151.0
1175,G#3,184.5,0.25,45,151.0
1176,C6,184.75,0.25,54,151.0
1177,C#6,185.0,11/40,62,151.0
1178,C#4,185.0,0.25,44,151.0
1179,G3,185.0,0.25,44,151.0
1180,D6,185.25,11/40,56,151.0
1181,C#6,185.5,11/40,65,151.0
1182,C#4,185.5,0.25,44,151.0
1183,F#3,185.5,0.25,44,151.0
1184,B-5,185.75,0.25,60,151.0
1185,D6,186.0,11/40,69,151.0
1186,B-5,186.0,1/40,60,151.0
1187,B2,186.0,0.25,59,151.0
1188,C#6,186.25,11/40,63,151.0
1189,D6,186.5,11/40,69,151.0
1190,B3,186.5,0.25,49,151.0
1191,F#3,186.5,0.25,49,151.0
1192,C#6,186.75,11/40,64,151.0
1193,D6,187.0,11/40,68,151.0
1194,B3,187.0,0.25,52,151.0
1195,F#3,187.0,0.25,52,151.0
1196,C#6,187.25,11/40,66,151.0
1197,D6,187.5,11/40,72,151.0
1198,B3,187.5,0.25,50,151.0
1199,F#3,187.5,0.25,50,151.0
1200,C#6,187.75,0.25,68,151.0
1201,D6,188.0,11/40,70,151.0
1202,C#6,188.0,1/40,68,151.0
1203,B2,188.0,0.25,65,151.0
1204,C#6,188.25,11/40,69,151.0
1205,B5,188.5,11/40,67,151.0
1206,B3,188.5,0.25,50,151.0
1207,G#3,188.5,0.25,50,151.0
1208,A5,188.75,11/40,66,151.0
1209,G#5,189.0,11/40,64,151.0
1210,B3,189.0,0.25,56,151.0
1211,G#3,189.0,0.25,56,151.0
1212,A5,189.25,11/40,61,151.0
1213,B5,189.5,11/40,64,151.0
1214,B3,189.5,0.25,50,151.0
1215,G#3,189.5,0.25,50,151.0
1216,G#5,189.75,0.25,61,151.0
1217,A5,190.0,11/40,57,151.0
1218,G#5,190.0,1/40,61,151.0
1219,C#3,190.0,0.25,58,151.0
1220,B5,190.25,11/40,49,151.0
1221,C#6,190.5,11/40,55,151.0
1222,A3,190.5,0.25,43,151.0
1223,F#3,190.5,0.25,43,151.0
1224,F#5,190.75,11/40,50,151.0
1225,F5,191.0,11/40,53,151.0
1226,C#3,191.0,0.25,55,151.0
1227,F#5,191.25,11/40,47,151.0
1228,G#5,191.5,11/40,54,151.0
1229,G#3,191.5,0.25,45,151.0
1230,B3,191.5,0.25,45,151.0
1231,F5,191.75,0.25,47,151.0
1232,F#5,192.0,0.938,54,151.0
1233,F5,192.0,1/40,47,151.0
1234,A3,192.0,0.938,42,151.0
1235,F#3,192.0,0.938,42,151.0
1236,E5,193.0,11/40,69,151.0
1237,D5,193.25,11/40,59,151.0
1238,C#5,193.5,11/40,59,151.0
1239,B4,193.75,0.25,59,151.0
1240,A4,194.0,11/40,66,151.0
1241,B4,194.0,1/40,59,151.0
1242,A3,194.0,0.25,57,151.0
1243,B4,194.25,11/40,57,151.0
1244,C#5,194.5,11/40,57,151.0
1245,E4,194.5,0.25,40,151.0
1246,C#4,194.5,0.25,40,151.0
1247,D5,194.75,11/40,57,151.0
1248,E5,195.0,11/40,64,151.0
1249,E4,195.0,0.25,40,151.0
1250,C#4,195.0,0.25,40,151.0
1251,F#5,195.25,11/40,57,151.0
1252,G#5,195.5,11/40,56,151.0
1253,E4,195.5,0.25,40,151.0
1254,C#4,195.5,0.25,40,151.0
1255,A5,195.75,6/25,56,151.0
1256,A5,196.0,11/40,66,151.0
1257,B3,196.0,0.25,57,151.0
1258,G#5,196.25,11/40,60,151.0
1259,F#5,196.5,11/40,60,151.0
1260,E4,196.5,0.25,38,151.0
1261,D4,196.5,0.25,38,151.0
1262,E5,196.75,6/25,57,151.0
1263,E5,197.0,11/40,64,151.0
1264,G#3,197.0,0.25,57,151.0
1265,D5,197.25,11/40,59,151.0
1266,C#5,197.5,11/40,59,151.0
1267,E4,197.5,0.25,38,151.0
1268,D4,197.5,0.25,38,151.0
1269,B4,197.75,0.25,59,151.0
1270,A4,198.0,11/40,64,151.0
1271,B4,198.0,1/40,59,151.0
1272,A3,198.0,0.25,57,151.0
1273,B4,198.25,11/40,54,151.0
1274,C#5,198.5,11/40,57,151.0
1275,E4,198.5,0.25,38,151.0
1276,C#4,198.5,0.25,38,151.0
1277,D5,198.75,11/40,54,151.0
1278,E5,199.0,11/40,64,151.0
1279,E4,199.0,0.25,38,151.0
1280,C#4,199.0,0.25,38,151.0
1281,F#5,199.25,11/40,58,151.0
1282,G#5,199.5,11/40,60,151.0
1283,E4,199.5,0.25,38,151.0
1284,C#4,199.5,0.25,38,151.0
1285,A5,199.75,0.25,63,151.0
1286,B-5,200.0,0.5,75,151.0
1287,E3,200.0,0.5,57,151.0
1288,B5,200.5,11/40,69,151.0
1289,D4,200.5,0.25,36,151.0
1290,G#3,200.5,0.25,36,151.0
1291,E5,201.0,11/40,69,151.0
1292,G#3,201.0,0.25,36,151.0
1293,D4,201.0,0.25,36,151.0
1294,D5,201.25,11/40,59,151.0
1295,C#5,201.5,11/40,59,151.0
1296,G#3,201.5,0.25,36,151.0
1297,D4,201.5,0.25,36,151.0
1298,B4,201.75,0.25,59,151.0
1299,A4,202.0,11/40,66,151.0
1300,B4,202.0,1/40,59,151.0
1301,A3,202.0,0.25,57,151.0
1302,B4,202.25,11/40,57,151.0
1303,C#5,202.5,11/40,57,151.0
1304,E4,202.5,0.25,40,151.0
1305,C#4,202.5,0.25,40,151.0
1306,D5,202.75,11/40,57,151.0
1307,E5,203.0,11/40,64,151.0
1308,E4,203.0,0.25,40,151.0
1309,C#4,203.0,0.25,40,151.0
1310,F#5,203.25,11/40,57,151.0
1311,G#5,203.5,11/40,56,151.0
1312,E4,203.5,0.25,40,151.0
1313,C#4,203.5,0.25,40,151.0
1314,A5,203.75,6/25,56,151.0
1315,A5,204.0,11/40,66,151.0
1316,B3,204.0,0.25,57,151.0
1317,G#5,204.25,11/40,57,151.0
1318,F#5,204.5,11/40,60,151.0
1319,E4,204.5,0.25,38,151.0
1320,D4,204.5,0.25,38,151.0
1321,E5,204.75,6/25,57,151.0
1322,E5,205.0,11/40,64,151.0
1323,G#3,205.0,0.25,57,151.0
1324,D5,205.25,11/40,59,151.0
1325,C#5,205.5,11/40,59,151.0
1326,E4,205.5,0.25,38,151.0
1327,D4,205.5,0.25,38,151.0
1328,B4,205.75,0.25,59,151.0
1329,C#5,206.0,11/40,64,151.0
1330,B4,206.0,1/40,59,151.0
1331,A3,206.0,0.25,57,151.0
1332,E5,206.25,11/40,54,151.0
1333,A4,206.5,11/40,57,151.0
1334,F#3,206.5,0.25,46,151.0
1335,C#5,206.75,11/40,54,151.0
1336,B4,207.0,11/40,64,151.0
1337,D3,207.0,0.25,46,151.0
1338,D5,207.25,11/40,58,151.0
1339,G#4,207.5,11/40,60,151.0
1340,E3,207.5,0.25,46,151.0
1341,B4,207.75,0.25,55,151.0
1342,A4,208.0,0.75,66,151.0
1343,A2,208.0,0.5,57,151.0
1344,A3,208.5,0.25,44,151.0
1345,C#6,209.0,11/40,60,151.0
1346,D6,209.25,11/40,52,151.0
1347,C#6,209.5,11/40,52,151.0
1348,B5,209.75,0.25,52,151.0
1349,A5,210.0,11/40,58,151.0
1350,B5,210.0,1/40,52,151.0
1351,E3,210.0,0.25,50,151.0
1352,B5,210.25,11/40,50,151.0
1353,A5,210.5,11/40,50,151.0
1354,C#4,210.5,0.25,38,151.0
1355,A3,210.5,0.25,38,151.0
1356,G#5,210.75,11/40,50,151.0
1357,F#5,211.0,11/40,56,151.0
1358,C#4,211.0,0.25,38,151.0
1359,A3,211.0,0.25,38,151.0
1360,A5,211.25,11/40,50,151.0
1361,G#5,211.5,11/40,46,151.0
1362,C#4,211.5,0.25,38,151.0
1363,A3,211.5,0.25,38,151.0
1364,F#5,211.75,0.25,46,151.0
1365,F5,212.0,11/40,58,151.0
1366,F#5,212.0,1/40,46,151.0
1367,G#3,212.0,0.25,50,151.0
1368,F#5,212.25,11/40,47,151.0
1369,G#5,212.5,11/40,49,151.0
1370,C#4,212.5,0.25,38,151.0
1371,B3,212.5,0.25,38,151.0
1372,F5,212.75,11/40,46,151.0
1373,C#5,213.0,11/40,56,151.0
1374,C#4,213.0,0.25,38,151.0
1375,B3,213.0,0.25,38,151.0
1376,E-5,213.25,11/40,47,151.0
1377,F5,213.5,11/40,50,151.0
1378,C#4,213.5,0.25,38,151.0
1379,B3,213.5,0.25,38,151.0
1380,C#5,213.75,0.25,47,151.0
1381,F#5,214.0,11/40,56,151.0
1382,C#5,214.0,1/40,47,151.0
1383,F#3,214.0,0.25,50,151.0
1384,F5,214.25,11/40,47,151.0
1385,F#5,214.5,11/40,50,151.0
1386,C#4,214.5,0.25,37,151.0
1387,A3,214.5,0.25,37,151.0
1388,G#5,214.75,11/40,47,151.0
1389,A5,215.0,11/40,56,151.0
1390,C#4,215.0,0.25,37,151.0
1391,A3,215.0,0.25,37,151.0
1392,G#5,215.25,11/40,51,151.0
1393,A5,215.5,11/40,53,151.0
1394,C#4,215.5,0.25,37,151.0
1395,A3,215.5,0.25,37,151.0
1396,B5,215.75,0.25,55,151.0
1397,C#6,216.0,11/40,62,151.0
1398,B5,216.0,1/40,55,151.0
1399,C#3,216.0,0.25,50,151.0
1400,C6,216.25,11/40,57,151.0
1401,C#6,216.5,11/40,60,151.0
1402,C#4,216.5,0.25,45,151.0
1403,G#3,216.5,0.25,45,151.0
1404,C6,216.75,0.25,54,151.0
1405,C#6,217.0,11/40,62,151.0
1406,C#4,217.0,0.25,44,151.0
1407,G3,217.0,0.25,44,151.0
1408,D6,217.25,11/40,56,151.0
1409,C#6,217.5,11/40,65,151.0
1410,C#4,217.5,0.25,44,151.0
1411,F#3,217.5,0.25,44,151.0
1412,B-5,217.75,0.25,60,151.0
1413,D6,218.0,11/40,69,151.0
1414,B-5,218.0,1/40,60,151.0
1415,B2,218.0,0.25,59,151.0
1416,C#6,218.25,11/40,63,151.0
1417,D6,218.5,11/40,69,151.0
1418,B3,218.5,0.25,49,151.0
1419,F#3,218.5,0.25,49,151.0
1420,C#6,218.75,11/40,64,151.0
1421,D6,219.0,11/40,68,151.0
1422,B3,219.0,0.25,52,151.0
1423,F#3,219.0,0.25,52,151.0
1424,C#6,219.25,11/40,66,151.0
1425,D6,219.5,11/40,72,151.0
1426,B3,219.5,0.25,50,151.0
1427,F#3,219.5,0.25,50,151.0
1428,C#6,219.75,0.25,68,151.0
1429,D6,220.0,11/40,70,151.0
1430,C#6,220.0,1/40,68,151.0
1431,B2,220.0,0.25,65,151.0
1432,C#6,220.25,11/40,69,151.0
1433,B5,220.5,11/40,67,151.0
1434,B3,220.5,0.25,50,151.0
1435,G#3,220.5,0.25,50,151.0
1436,A5,220.75,11/40,66,151.0
1437,G#5,221.0,11/40,64,151.0
1438,B3,221.0,0.25,56,151.0
1439,G#3,221.0,0.25,56,151.0
1440,A5,221.25,11/40,61,151.0
1441,B5,221.5,11/40,64,151.0
1442,B3,221.5,0.25,50,151.0
1443,G#3,221.5,0.25,50,151.0
1444,G#5,221.75,0.25,61,151.0
1445,A5,222.0,11/40,57,151.0
1446,G#5,222.0,1/40,61,151.0
1447,C#3,222.0,0.25,58,151.0
1448,B5,222.25,11/40,49,151.0
1449,C#6,222.5,11/40,55,151.0
1450,A3,222.5,0.25,43,151.0
1451,F#3,222.5,0.25,43,151.0
1452,F#5,222.75,11/40,50,151.0
1453,F5,223.0,11/40,53,151.0
1454,C#3,223.0,0.25,55,151.0
1455,F#5,223.25,11/40,47,151.0
1456,G#5,223.5,11/40,54,151.0
1457,G#3,223.5,0.25,45,151.0
1458,B3,223.5,0.25,45,151.0
1459,F5,223.75,0.25,47,151.0
1460,F#5,224.0,0.938,54,151.0
1461,F5,224.0,1/40,47,151.0
1462,A3,224.0,0.938,42,151.0
1463,F#3,224.0,0.938,42,151.0
1464,A4,225.0,0.25,78,151.0
1465,A5,225.0,0.25,78,151.0
1466,B4,225.5,0.25,78,151.0
1467,B5,225.5,0.25,78,151.0
1468,A2,225.75,83/1000,64,151.0
1469,C#3,225.833,83/1000,64,151.0
1470,E3,225.917,83/1000,64,151.0
1471,A3,226.0,0.25,73,151.0
1472,C#5,226.0,1.0,84,151.0
1473,C#6,226.0,1.0,84,151.0
1474,A3,226.5,0.25,69,151.0
1475,A3,227.0,0.25,69,151.0
1476,A4,227.0,0.25,78,151.0
1477,A5,227.0,0.25,78,151.0
1478,A3,227.5,0.25,69,151.0
1479,B4,227.5,0.25,78,151.0
1480,B5,227.5,0.25,78,151.0
1481,A2,227.75,83/1000,60,151.0
1482,C#3,227.833,83/1000,60,151.0
1483,E3,227.917,83/1000,60,151.0
1484,A3,228.0,0.25,72,151.0
1485,C#5,228.0,0.25,85,151.0
1486,C#6,228.0,0.25,85,151.0
1487,A3,228.5,0.25,64,151.0
1488,B4,228.5,0.25,77,151.0
1489,B5,228.5,0.25,77,151.0
1490,A3,229.0,0.25,65,151.0
1491,A4,229.0,0.25,83,151.0
1492,A5,229.0,0.25,83,151.0
1493,A3,229.5,0.25,67,151.0
1494,G#4,229.5,0.25,78,151.0
1495,G#5,229.5,0.25,78,151.0
1496,D2,229.75,83/1000,63,151.0
1497,F#2,229.833,83/1000,63,151.0
1498,A2,229.917,83/1000,63,151.0
1499,D3,230.0,0.25,73,151.0
1500,F#4,230.0,0.25,86,151.0
1501,F#5,230.0,0.25,86,151.0
1502,D3,230.5,0.25,69,151.0
1503,G#4,230.5,0.25,74,151.0
1504,G#5,230.5,0.25,74,151.0
1505,E-2,230.75,83/1000,63,151.0
1506,F#2,230.833,83/1000,63,151.0
1507,A2,230.917,83/1000,63,151.0
1508,E-3,231.0,0.25,73,151.0
1509,A4,231.0,0.25,80,151.0
1510,A5,231.0,0.25,80,151.0
1511,E-3,231.5,0.25,71,151.0
1512,B4,231.5,0.25,75,151.0
1513,B5,231.5,0.25,75,151.0
1514,E2,231.75,83/1000,63,151.0
1515,G#2,231.833,83/1000,63,151.0
1516,B2,231.917,83/1000,63,151.0
1517,E3,232.0,0.5,73,151.0
1518,G#4,232.0,0.5,84,151.0
1519,G#5,232.0,0.5,84,151.0
1520,E3,232.5,0.25,73,151.0
1521,E4,232.5,0.25,78,151.0
1522,E5,232.5,0.25,78,151.0
1523,A4,233.0,0.25,78,151.0
1524,A5,233.0,0.25,78,151.0
1525,B4,233.5,0.25,78,151.0
1526,B5,233.5,0.25,78,151.0
1527,A2,233.75,83/1000,64,151.0
1528,C#3,233.833,83/1000,64,151.0
1529,E3,233.917,83/1000,64,151.0
1530,A3,234.0,0.25,73,151.0
1531,C#5,234.0,1.0,84,151.0
1532,C#6,234.0,1.0,84,151.0
1533,A3,234.5,0.25,69,151.0
1534,A3,235.0,0.25,69,151.0
1535,A4,235.0,0.25,78,151.0
1536,A5,235.0,0.25,78,151.0
1537,A3,235.5,0.25,69,151.0
1538,B4,235.5,0.25,78,151.0
1539,B5,235.5,0.25,78,151.0
1540,A2,235.75,83/1000,60,151.0
1541,C#3,235.833,83/1000,60,151.0
1542,E3,235.917,83/1000,60,151.0
1543,A3,236.0,0.25,72,151.0
1544,C#5,236.0,0.25,85,151.0
1545,C#6,236.0,0.25,85,151.0
1546,A3,236.5,0.25,64,151.0
1547,B4,236.5,0.25,77,151.0
1548,B5,236.5,0.25,77,151.0
1549,A3,237.0,0.25,65,151.0
1550,A4,237.0,0.25,83,151.0
1551,A5,237.0,0.25,83,151.0
1552,A3,237.5,0.25,67,151.0
1553,G#4,237.5,0.25,78,151.0
1554,G#5,237.5,0.25,78,151.0
1555,D2,237.75,83/1000,63,151.0
1556,F#2,237.833,83/1000,63,151.0
1557,A2,237.917,83/1000,63,151.0
1558,D3,238.0,0.25,73,151.0
1559,F#4,238.0,0.25,86,151.0
1560,F#5,238.0,0.25,86,151.0
1561,D3,238.5,0.25,69,151.0
1562,B4,238.5,0.25,74,151.0
1563,B5,238.5,0.25,74,151.0
1564,E2,238.75,83/1000,63,151.0
1565,G#2,238.833,83/1000,63,151.0
1566,B2,238.917,83/1000,63,151.0
1567,E3,239.0,0.25,73,151.0
1568,G#4,239.0,0.25,80,151.0
1569,G#5,239.0,0.25,80,151.0
1570,E3,239.5,0.25,71,151.0
1571,E4,239.5,0.25,75,151.0
1572,E5,239.5,0.25,75,151.0
1573,A2,240.0,0.938,73,151.0
1574,A4,240.0,0.938,84,151.0
1575,A5,240.0,0.938,84,151.0
1576,A4,241.0,0.25,78,151.0
1577,A5,241.0,0.25,78,151.0
1578,B4,241.5,0.25,78,151.0
1579,B5,241.5,0.25,78,151.0
1580,A2,241.75,83/1000,64,151.0
1581,C#3,241.833,83/1000,64,151.0
1582,E3,241.917,83/1000,64,151.0
1583,A3,242.0,0.25,73,151.0
1584,C#5,242.0,1.0,84,151.0
1585,C#6,242.0,1.0,84,151.0
1586,A3,242.5,0.25,69,151.0
1587,A3,243.0,0.25,69,151.0
1588,A4,243.0,0.25,78,151.0
1589,A5,243.0,0.25,78,151.0
1590,A3,243.5,0.25,69,151.0
1591,B4,243.5,0.25,78,151.0
1592,B5,243.5,0.25,78,151.0
1593,A2,243.75,83/1000,60,151.0
1594,C#3,243.833,83/1000,60,151.0
1595,E3,243.917,83/1000,60,151.0
1596,A3,244.0,0.25,72,151.0
1597,C#5,244.0,0.25,85,151.0
1598,C#6,244.0,0.25,85,151.0
1599,A3,244.5,0.25,64,151.0
1600,B4,244.5,0.25,77,151.0
1601,B5,244.5,0.25,77,151.0
1602,A3,245.0,0.25,65,151.0
1603,A4,245.0,0.25,83,151.0
1604,A5,245.0,0.25,83,151.0
1605,A3,245.5,0.25,67,151.0
1606,G#4,245.5,0.25,78,151.0
1607,G#5,245.5,0.25,78,151.0
1608,D2,245.75,83/1000,63,151.0
1609,F#2,245.833,83/1000,63,151.0
1610,A2,245.917,83/1000,63,151.0
1611,D3,246.0,0.25,73,151.0
1612,F#4,246.0,0.25,86,151.0
1613,F#5,246.0,0.25,86,151.0
1614,D3,246.5,0.25,69,151.0
1615,G#4,246.5,0.25,74,151.0
1616,G#5,246.5,0.25,74,151.0
1617,E-2,246.75,83/1000,63,151.0
1618,F#2,246.833,83/1000,63,151.0
1619,A2,246.917,83/1000,63,151.0
1620,E-3,247.0,0.25,73,151.0
1621,A4,247.0,0.25,80,151.0
1622,A5,247.0,0.25,80,151.0
1623,E-3,247.5,0.25,71,151.0
1624,B4,247.5,0.25,75,151.0
1625,B5,247.5,0.25,75,151.0
1626,E2,247.75,83/1000,63,151.0
1627,G#2,247.833,83/1000,63,151.0
1628,B2,247.917,83/1000,63,151.0
1629,E3,248.0,0.5,73,151.0
1630,G#4,248.0,0.5,84,151.0
1631,G#5,248.0,0.5,84,151.0
1632,E3,248.5,0.25,73,151.0
1633,E4,248.5,0.25,78,151.0
1634,E5,248.5,0.25,78,151.0
1635,A4,249.0,0.25,78,151.0
1636,A5,249.0,0.25,78,151.0
1637,B4,249.5,0.25,78,151.0
1638,B5,249.5,0.25,78,151.0
1639,A2,249.75,83/1000,64,151.0
1640,C#3,249.833,83/1000,64,151.0
1641,E3,249.917,83/1000,64,151.0
1642,A3,250.0,0.25,73,151.0
1643,C#5,250.0,1.0,84,151.0
1644,C#6,250.0,1.0,84,151.0
1645,A3,250.5,0.25,69,151.0
1646,A3,251.0,0.25,69,151.0
1647,A4,251.0,0.25,78,151.0
1648,A5,251.0,0.25,78,151.0
1649,A3,251.5,0.25,69,151.0
1650,B4,251.5,0.25,78,151.0
1651,B5,251.5,0.25,78,151.0
1652,A2,251.75,83/1000,60,151.0
1653,C#3,251.833,83/1000,60,151.0
1654,E3,251.917,83/1000,60,151.0
1655,A3,252.0,0.25,72,151.0
1656,C#5,252.0,0.25,85,151.0
1657,C#6,252.0,0.25,85,151.0
1658,A3,252.5,0.25,64,151.0
1659,B4,252.5,0.25,77,151.0
1660,B5,252.5,0.25,77,151.0
1661,A3,253.0,0.25,65,151.0
1662,A4,253.0,0.25,83,151.0
1663,A5,253.0,0.25,83,151.0
1664,A3,253.5,0.25,67,151.0
1665,G#4,253.5,0.25,78,151.0
1666,G#5,253.5,0.25,78,151.0
1667,D2,253.75,83/1000,63,151.0
1668,F#2,253.833,83/1000,63,151.0
1669,A2,253.917,83/1000,63,151.0
1670,D3,254.0,0.25,73,151.0
1671,F#4,254.0,0.25,86,151.0
1672,F#5,254.0,0.25,86,151.0
1673,D3,254.5,0.25,69,151.0
1674,B4,254.5,0.25,74,151.0
1675,B5,254.5,0.25,74,151.0
1676,E2,254.75,83/1000,63,151.0
1677,G#2,254.833,83/1000,63,151.0
1678,B2,254.917,83/1000,63,151.0
1679,E3,255.0,0.25,73,151.0
1680,G#4,255.0,0.25,80,151.0
1681,G#5,255.0,0.25,80,151.0
1682,E3,255.5,0.25,71,151.0
1683,E4,255.5,0.25,75,151.0
1684,E5,255.5,0.25,75,151.0
1685,A2,256.0,0.938,73,151.0
1686,A4,256.0,0.938,84,151.0
1687,A5,256.0,0.938,84,151.0
1688,B4,257.0,0.25,66,151.0
1689,A4,257.25,0.25,64,151.0
1690,G#4,257.5,0.25,64,151.0
1691,A4,257.75,0.25,64,151.0
1692,C5,258.0,0.25,71,151.0
1693,A3,258.0,0.25,57,151.0
1694,E4,258.5,0.25,48,151.0
1695,C4,258.5,0.25,48,151.0
1696,D5,259.0,0.25,66,151.0
1697,C4,259.0,0.25,48,151.0
1698,E4,259.0,0.25,48,151.0
1699,C5,259.25,0.25,63,151.0
1700,B4,259.5,0.25,63,151.0
1701,C4,259.5,0.25,46,151.0
1702,E4,259.5,0.25,46,151.0
1703,C5,259.75,0.25,63,151.0
1704,E5,260.0,0.25,72,151.0
1705,A3,260.0,0.25,57,151.0
1706,E4,260.5,0.25,48,151.0
1707,C4,260.5,0.25,48,151.0
1708,F5,261.0,0.25,66,151.0
1709,E4,261.0,0.25,48,151.0
1710,C4,261.0,0.25,48,151.0
1711,E5,261.25,0.25,63,151.0
1712,E-5,261.5,0.25,63,151.0
1713,E4,261.5,0.25,48,151.0
1714,C4,261.5,0.25,48,151.0
1715,E5,261.75,0.25,63,151.0
1716,B5,262.0,0.25,70,151.0
1717,A3,262.0,0.25,57,151.0
1718,A5,262.25,0.25,64,151.0
1719,G#5,262.5,0.25,64,151.0
1720,E4,262.5,0.25,46,151.0
1721,C4,262.5,0.25,46,151.0
1722,A5,262.75,0.25,64,151.0
1723,B5,263.0,0.25,69,151.0
1724,A3,263.0,0.25,57,151.0
1725,A5,263.25,0.25,64,151.0
1726,G#5,263.5,0.25,64,151.0
1727,E4,263.5,0.25,48,151.0
1728,C4,263.5,0.25,48,151.0
1729,A5,263.75,0.25,64,151.0
1730,C6,264.0,1.0,72,151.0
1731,A3,264.0,0.25,57,151.0
1732,E4,264.5,0.25,46,151.0
1733,C4,264.5,0.25,46,151.0
1734,A5,265.0,0.25,68,151.0
1735,E4,265.0,0.25,46,151.0
1736,C4,265.0,0.25,46,151.0
1737,C6,265.5,0.25,65,151.0
1738,E4,265.5,0.25,46,151.0
1739,C4,265.5,0.25,46,151.0
1740,G5,265.875,0.062,63,151.0
1741,A5,265.938,0.062,63,151.0
1742,B5,266.0,0.25,80,151.0
1743,E3,266.0,0.25,65,151.0
1744,F#5,266.5,0.25,59,151.0
1745,A5,266.5,0.25,59,151.0
1746,E4,266.5,0.25,48,151.0
1747,B3,266.5,0.25,48,151.0
1748,E5,267.0,0.25,64,151.0
1749,G5,267.0,0.25,64,151.0
1750,E4,267.0,0.25,48,151.0
1751,B3,267.0,0.25,48,151.0
1752,F#5,267.5,0.25,59,151.0
1753,A5,267.5,0.25,59,151.0
1754,E4,267.5,0.25,48,151.0
1755,B3,267.5,0.25,48,151.0
1756,G5,267.875,0.062,65,151.0
1757,A5,267.938,0.062,65,151.0
1758,B5,268.0,0.25,82,151.0
1759,E3,268.0,0.25,66,151.0
1760,F#5,268.5,0.25,61,151.0
1761,A5,268.5,0.25,61,151.0
1762,E4,268.5,0.25,48,151.0
1763,B3,268.5,0.25,48,151.0
1764,E5,269.0,0.25,64,151.0
1765,G5,269.0,0.25,64,151.0
1766,E4,269.0,0.25,48,151.0
1767,B3,269.0,0.25,48,151.0
1768,F#5,269.5,0.25,60,151.0
1769,A5,269.5,0.25,60,151.0
1770,E4,269.5,0.25,48,151.0
1771,B3,269.5,0.25,48,151.0
1772,G5,269.875,0.062,64,151.0
1773,A5,269.938,0.062,64,151.0
1774,B5,270.0,0.25,79,151.0
1775,A5,270.0,0.062,64,151.0
1776,E3,270.0,0.25,67,151.0
1777,F#5,270.5,0.25,62,151.0
1778,A5,270.5,0.25,62,151.0
1779,E4,270.5,0.25,48,151.0
1780,B3,270.5,0.25,48,151.0
1781,B2,271.0,0.25,52,151.0
1782,E5,271.0,0.25,64,151.0
1783,G5,271.0,0.25,64,151.0
1784,B3,271.5,0.25,52,151.0
1785,E-5,271.5,0.25,61,151.0
1786,F#5,271.5,0.25,61,151.0
1787,E5,272.0,0.938,69,151.0
1788,E3,272.0,0.938,57,151.0
1789,B4,273.0,0.25,66,151.0
1790,A4,273.25,0.25,64,151.0
1791,G#4,273.5,0.25,64,151.0
1792,A4,273.75,0.25,64,151.0
1793,C5,274.0,0.25,71,151.0
1794,A3,274.0,0.25,57,151.0
1795,E4,274.5,0.25,48,151.0
1796,C4,274.5,0.25,48,151.0
1797,D5,275.0,0.25,66,151.0
1798,C4,275.0,0.25,48,151.0
1799,E4,275.0,0.25,48,151.0
1800,C5,275.25,0.25,63,151.0
1801,B4,275.5,0.25,63,151.0
1802,C4,275.5,0.25,46,151.0
1803,E4,275.5,0.25,46,151.0
1804,C5,275.75,0.25,63,151.0
1805,E5,276.0,0.25,72,151.0
1806,A3,276.0,0.25,57,151.0
1807,E4,276.5,0.25,48,151.0
1808,C4,276.5,0.25,48,151.0
1809,F5,277.0,0.25,66,151.0
1810,E4,277.0,0.25,48,151.0
1811,C4,277.0,0.25,48,151.0
1812,E5,277.25,0.25,63,151.0
1813,E-5,277.5,0.25,63,151.0
1814,E4,277.5,0.25,48,151.0
1815,C4,277.5,0.25,48,151.0
1816,E5,277.75,0.25,63,151.0
1817,B5,278.0,0.25,70,151.0
1818,A3,278.0,0.25,57,151.0
1819,A5,278.25,0.25,64,151.0
1820,G#5,278.5,0.25,64,151.0
1821,E4,278.5,0.25,46,151.0
1822,C4,278.5,0.25,46,151.0
1823,A5,278.75,0.25,64,151.0
1824,B5,279.0,0.25,69,151.0
1825,A3,279.0,0.25,57,151.0
1826,A5,279.25,0.25,64,151.0
1827,G#5,279.5,0.25,64,151.0
1828,E4,279.5,0.25,48,151.0
1829,C4,279.5,0.25,48,151.0
1830,A5,279.75,0.25,64,151.0
1831,C6,280.0,1.0,72,151.0
1832,A3,280.0,0.25,57,151.0
1833,E4,280.5,0.25,46,151.0
1834,C4,280.5,0.25,46,151.0
1835,A5,281.0,0.25,68,151.0
1836,E4,281.0,0.25,46,151.0
1837,C4,281.0,0.25,46,151.0
1838,C6,281.5,0.25,65,151.0
1839,E4,281.5,0.25,46,151.0
1840,C4,281.5,0.25,46,151.0
1841,G5,281.875,0.062,63,151.0
1842,A5,281.938,0.062,63,151.0
1843,B5,282.0,0.25,80,151.0
1844,E3,282.0,0.25,65,151.0
1845,F#5,282.5,0.25,59,151.0
1846,A5,282.5,0.25,59,151.0
1847,E4,282.5,0.25,48,151.0
1848,B3,282.5,0.25,48,151.0
1849,E5,283.0,0.25,64,151.0
1850,G5,283.0,0.25,64,151.0
1851,E4,283.0,0.25,48,151.0
1852,B3,283.0,0.25,48,151.0
1853,F#5,283.5,0.25,59,151.0
1854,A5,283.5,0.25,59,151.0
1855,E4,283.5,0.25,48,151.0
1856,B3,283.5,0.25,48,151.0
1857,G5,283.875,0.062,65,151.0
1858,A5,283.938,0.062,65,151.0
1859,B5,284.0,0.25,82,151.0
1860,E3,284.0,0.25,66,151.0
1861,F#5,284.5,0.25,61,151.0
1862,A5,284.5,0.25,61,151.0
1863,E4,284.5,0.25,48,151.0
1864,B3,284.5,0.25,48,151.0
1865,E5,285.0,0.25,64,151.0
1866,G5,285.0,0.25,64,151.0
1867,E4,285.0,0.25,48,151.0
1868,B3,285.0,0.25,48,151.0
1869,F#5,285.5,0.25,60,151.0
1870,A5,285.5,0.25,60,151.0
1871,E4,285.5,0.25,48,151.0
1872,B3,285.5,0.25,48,151.0
1873,G5,285.875,0.062,64,151.0
1874,A5,285.938,0.062,64,151.0
1875,B5,286.0,0.25,79,151.0
1876,A5,286.0,0.062,64,151.0
1877,E3,286.0,0.25,67,151.0
1878,F#5,286.5,0.25,62,151.0
1879,A5,286.5,0.25,62,151.0
1880,E4,286.5,0.25,48,151.0
1881,B3,286.5,0.25,48,151.0
1882,B2,287.0,0.25,52,151.0
1883,E5,287.0,0.25,64,151.0
1884,G5,287.0,0.25,64,151.0
1885,B3,287.5,0.25,52,151.0
1886,E-5,287.5,0.25,61,151.0
1887,F#5,287.5,0.25,61,151.0
1888,E5,288.0,0.938,69,151.0
1889,E3,288.0,0.938,57,151.0
1890,C5,289.0,0.25,56,151.0
1891,E5,289.0,0.25,56,151.0
1892,D5,289.5,0.25,56,151.0
1893,F5,289.5,0.25,56,151.0
1894,C3,290.0,0.25,59,151.0
1895,E5,290.0,0.25,66,151.0
1896,G5,290.0,0.25,66,151.0
1897,C4,290.5,0.25,53,151.0
1898,E5,290.5,0.25,57,151.0
1899,G5,290.5,0.25,57,151.0
1900,A5,291.0,0.25,64,151.0
1901,E3,291.0,0.25,59,151.0
1902,G5,291.25,0.25,57,151.0
1903,F5,291.5,0.25,57,151.0
1904,E4,291.5,0.25,57,151.0
1905,E5,291.75,0.25,57,151.0
1906,D5,292.0,1.0,65,151.0
1907,B4,292.0,0.5,65,151.0
1908,G3,292.0,1.0,60,151.0
1909,G4,292.5,0.5,59,151.0
1910,C5,293.0,0.25,56,151.0
1911,E5,293.0,0.25,56,151.0
1912,D5,293.5,0.25,56,151.0
1913,F5,293.5,0.25,56,151.0
1914,C3,294.0,0.25,59,151.0
1915,E5,294.0,0.25,66,151.0
1916,G5,294.0,0.25,66,151.0
1917,C4,294.5,0.25,53,151.0
1918,E5,294.5,0.25,57,151.0
1919,G5,294.5,0.25,57,151.0
1920,A5,295.0,0.25,64,151.0
1921,E3,295.0,0.25,59,151.0
1922,G5,295.25,0.25,57,151.0
1923,F5,295.5,0.25,57,151.0
1924,E4,295.5,0.25,57,151.0
1925,E5,295.75,0.25,57,151.0
1926,G3,296.0,1.0,60,151.0
1927,D5,296.0,1.0,65,151.0
1928,B4,296.0,1.0,65,151.0
1929,A4,297.0,0.25,56,151.0
1930,C5,297.0,0.25,56,151.0
1931,B4,297.5,0.25,56,151.0
1932,D5,297.5,0.25,56,151.0
1933,A2,298.0,0.25,59,151.0
1934,C5,298.0,0.25,66,151.0
1935,E5,298.0,0.25,66,151.0
1936,A3,298.5,0.25,53,151.0
1937,C5,298.5,0.25,57,151.0
1938,E5,298.5,0.25,57,151.0
1939,F5,299.0,0.25,64,151.0
1940,C3,299.0,0.25,59,151.0
1941,E5,299.25,0.25,57,151.0
1942,D5,299.5,0.25,57,151.0
1943,C4,299.5,0.25,57,151.0
1944,C5,299.75,0.25,57,151.0
1945,B4,300.0,1.0,65,151.0
1946,G#4,300.0,0.5,65,151.0
1947,E3,300.0,1.0,60,151.0
1948,E4,300.5,0.5,59,151.0
1949,A4,301.0,0.25,56,151.0
1950,C5,301.0,0.25,56,151.0
1951,B4,301.5,0.25,56,151.0
1952,D5,301.5,0.25,56,151.0
1953,A2,302.0,0.25,59,151.0
1954,C5,302.0,0.25,66,151.0
1955,E5,302.0,0.25,66,151.0
1956,A3,302.5,0.25,53,151.0
1957,C5,302.5,0.25,57,151.0
1958,E5,302.5,0.25,57,151.0
1959,F5,303.0,0.25,64,151.0
1960,C3,303.0,0.25,59,151.0
1961,E5,303.25,0.25,57,151.0
1962,D5,303.5,0.25,57,151.0
1963,C4,303.5,0.25,57,151.0
1964,C5,303.75,0.25,57,151.0
1965,E3,304.0,1.0,60,151.0
1966,B4,304.0,1.0,65,151.0
1967,G#4,304.0,1.0,65,151.0
1968,B4,305.0,0.25,56,151.0
1969,A4,305.25,0.25,56,151.0
1970,G#4,305.5,0.25,56,151.0
1971,A4,305.75,0.25,56,151.0
1972,C5,306.0,0.25,59,151.0
1973,A3,306.0,0.25,53,151.0
1974,E4,306.5,0.25,47,151.0
1975,C4,306.5,0.25,47,151.0
1976,D5,307.0,0.25,62,151.0
1977,C4,307.0,0.25,47,151.0
1978,E4,307.0,0.25,47,151.0
1979,C5,307.25,0.25,57,151.0
1980,B4,307.5,0.25,57,151.0
1981,C4,307.5,0.25,47,151.0
1982,E4,307.5,0.25,47,151.0
1983,C5,307.75,0.25,57,151.0
1984,E5,308.0,0.25,66,151.0
1985,A3,308.0,0.25,54,151.0
1986,E4,308.5,0.25,48,151.0
1987,C4,308.5,0.25,48,151.0
1988,F5,309.0,0.25,63,151.0
1989,E4,309.0,0.25,48,151.0
1990,C4,309.0,0.25,48,151.0
1991,E5,309.25,0.25,58,151.0
1992,E-5,309.5,0.25,58,151.0
1993,E4,309.5,0.25,48,151.0
1994,C4,309.5,0.25,48,151.0
1995,E5,309.75,0.25,58,151.0
1996,B5,310.0,0.25,70,151.0
1997,A3,310.0,0.25,56,151.0
1998,A5,310.25,0.25,63,151.0
1999,G#5,310.5,0.25,63,151.0
2000,E4,310.5,0.25,49,151.0
2001,C4,310.5,0.25,49,151.0
2002,A5,310.75,0.25,63,151.0
2003,B5,311.0,0.25,71,151.0
2004,A3,311.0,0.25,57,151.0
2005,A5,311.25,0.25,64,151.0
2006,G#5,311.5,0.25,64,151.0
2007,E4,311.5,0.25,48,151.0
2008,C4,311.5,0.25,48,151.0
2009,A5,311.75,0.25,64,151.0
2010,C6,312.0,1.0,76,151.0
2011,F3,312.0,0.25,57,151.0
2012,E-4,312.5,0.25,51,151.0
2013,A3,312.5,0.25,51,151.0
2014,A5,313.0,0.25,62,151.0
2015,E-4,313.0,0.25,43,151.0
2016,A3,313.0,0.25,43,151.0
2017,B5,313.5,0.25,62,151.0
2018,E-4,313.5,0.25,39,151.0
2019,A3,313.5,0.25,39,151.0
2020,C6,314.0,0.25,70,151.0
2021,E3,314.0,0.25,46,151.0
2022,B5,314.5,0.25,62,151.0
2023,E4,314.5,0.25,42,151.0
2024,A3,314.5,0.25,42,151.0
2025,A5,315.0,0.25,62,151.0
2026,D3,315.0,0.25,42,151.0
2027,G#5,315.5,0.25,62,151.0
2028,B3,315.5,0.25,42,151.0
2029,F3,315.5,0.25,42,151.0
2030,A5,316.0,0.25,71,151.0
2031,C3,316.0,0.25,47,151.0
2032,E5,316.5,0.25,64,151.0
2033,A3,316.5,0.25,39,151.0
2034,E3,316.5,0.25,39,151.0
2035,D3,317.0,0.25,41,151.0
2036,F5,317.008,0.25,64,151.0
2037,D5,317.5,0.25,64,151.0
2038,B3,317.5,0.25,41,151.0
2039,F3,317.5,0.25,41,151.0
2040,C5,318.0,1.0,74,151.0
2041,E3,318.0,0.25,48,151.0
2042,A3,318.0,0.25,48,151.0
2043,A3,318.5,0.25,41,151.0
2044,E3,318.5,0.25,41,151.0
2045,E3,318.99,0.25,41,151.0
2046,G#3,318.99,0.25,41,151.0
2047,B4,319.0,0.125,64,151.0
2048,C5,319.125,0.125,57,151.0
2049,B4,319.25,0.125,57,151.0
2050,C5,319.375,0.125,57,151.0
2051,B4,319.5,1/125,57,151.0
2052,E3,319.5,0.25,41,151.0
2053,G#3,319.5,0.25,41,151.0
2054,C5,319.583,83/1000,57,151.0
2055,B4,319.667,83/1000,57,151.0
2056,A4,319.75,0.125,64,151.0
2057,B4,319.875,0.125,57,151.0
2058,A4,320.0,0.938,65,151.0
2059,A2,320.0,0.938,46,151.0
2060,A3,320.0,0.938,46,151.0
2061,C5,321.0,0.25,56,151.0
2062,E5,321.0,0.25,56,151.0
2063,D5,321.5,0.25,56,151.0
2064,F5,321.5,0.25,56,151.0
2065,C3,322.0,0.25,59,151.0
2066,E5,322.0,0.25,66,151.0
2067,G5,322.0,0.25,66,151.0
2068,C4,322.5,0.25,53,151.0
2069,E5,322.5,0.25,57,151.0
2070,G5,322.5,0.25,57,151.0
2071,A5,323.0,0.25,64,151.0
2072,E3,323.0,0.25,59,151.0
2073,G5,323.25,0.25,57,151.0
2074,F5,323.5,0.25,57,151.0
2075,E4,323.5,0.25,57,151.0
2076,E5,323.75,0.25,57,151.0
2077,D5,324.0,1.0,65,151.0
2078,B4,324.0,0.5,65,151.0
2079,G3,324.0,1.0,60,151.0
2080,G4,324.5,0.5,59,151.0
2081,C5,325.0,0.25,56,151.0
2082,E5,325.0,0.25,56,151.0
2083,D5,325.5,0.25,56,151.0
2084,F5,325.5,0.25,56,151.0
2085,C3,326.0,0.25,59,151.0
2086,E5,326.0,0.25,66,151.0
2087,G5,326.0,0.25,66,151.0
2088,C4,326.5,0.25,53,151.0
2089,E5,326.5,0.25,57,151.0
2090,G5,326.5,0.25,57,151.0
2091,A5,327.0,0.25,64,151.0
2092,E3,327.0,0.25,59,151.0
2093,G5,327.25,0.25,57,151.0
2094,F5,327.5,0.25,57,151.0
2095,E4,327.5,0.25,57,151.0
2096,E5,327.75,0.25,57,151.0
2097,G3,328.0,1.0,60,151.0
2098,D5,328.0,1.0,65,151.0
2099,B4,328.0,1.0,65,151.0
2100,A4,329.0,0.25,56,151.0
2101,C5,329.0,0.25,56,151.0
2102,B4,329.5,0.25,56,151.0
2103,D5,329.5,0.25,56,151.0
2104,A2,330.0,0.25,59,151.0
2105,C5,330.0,0.25,66,151.0
2106,E5,330.0,0.25,66,151.0
2107,A3,330.5,0.25,53,151.0
2108,C5,330.5,0.25,57,151.0
2109,E5,330.5,0.25,57,151.0
2110,F5,331.0,0.25,64,151.0
2111,C3,331.0,0.25,59,151.0
2112,E5,331.25,0.25,57,151.0
2113,D5,331.5,0.25,57,151.0
2114,C4,331.5,0.25,57,151.0
2115,C5,331.75,0.25,57,151.0
2116,B4,332.0,1.0,65,151.0
2117,G#4,332.0,0.5,65,151.0
2118,E3,332.0,1.0,60,151.0
2119,E4,332.5,0.5,59,151.0
2120,A4,333.0,0.25,56,151.0
2121,C5,333.0,0.25,56,151.0
2122,B4,333.5,0.25,56,151.0
2123,D5,333.5,0.25,56,151.0
2124,A2,334.0,0.25,59,151.0
2125,C5,334.0,0.25,66,151.0
2126,E5,334.0,0.25,66,151.0
2127,A3,334.5,0.25,53,151.0
2128,C5,334.5,0.25,57,151.0
2129,E5,334.5,0.25,57,151.0
2130,F5,335.0,0.25,64,151.0
2131,C3,335.0,0.25,59,151.0
2132,E5,335.25,0.25,57,151.0
2133,D5,335.5,0.25,57,151.0
2134,C4,335.5,0.25,57,151.0
2135,C5,335.75,0.25,57,151.0
2136,E3,336.0,1.0,60,151.0
2137,B4,336.0,1.0,65,151.0
2138,G#4,336.0,1.0,65,151.0
2139,B4,337.0,0.25,56,151.0
2140,A4,337.25,0.25,56,151.0
2141,G#4,337.5,0.25,56,151.0
2142,A4,337.75,0.25,56,151.0
2143,C5,338.0,0.25,59,151.0
2144,A3,338.0,0.25,53,151.0
2145,E4,338.5,0.25,47,151.0
2146,C4,338.5,0.25,47,151.0
2147,D5,339.0,0.25,62,151.0
2148,C4,339.0,0.25,47,151.0
2149,E4,339.0,0.25,47,151.0
2150,C5,339.25,0.25,57,151.0
2151,B4,339.5,0.25,57,151.0
2152,C4,339.5,0.25,47,151.0
2153,E4,339.5,0.25,47,151.0
2154,C5,339.75,0.25,57,151.0
2155,E5,340.0,0.25,66,151.0
2156,A3,340.0,0.25,54,151.0
2157,E4,340.5,0.25,48,151.0
2158,C4,340.5,0.25,48,151.0
2159,F5,341.0,0.25,63,151.0
2160,E4,341.0,0.25,48,151.0
2161,C4,341.0,0.25,48,151.0
2162,E5,341.25,0.25,58,151.0
2163,E-5,341.5,0.25,58,151.0
2164,E4,341.5,0.25,48,151.0
2165,C4,341.5,0.25,48,151.0
2166,E5,341.75,0.25,58,151.0
2167,B5,342.0,0.25,70,151.0
2168,A3,342.0,0.25,56,151.0
2169,A5,342.25,0.25,63,151.0
2170,G#5,342.5,0.25,63,151.0
2171,E4,342.5,0.25,49,151.0
2172,C4,342.5,0.25,49,151.0
2173,A5,342.75,0.25,63,151.0
2174,B5,343.0,0.25,71,151.0
2175,A3,343.0,0.25,57,151.0
2176,A5,343.25,0.25,64,151.0
2177,G#5,343.5,0.25,64,151.0
2178,E4,343.5,0.25,48,151.0
2179,C4,343.5,0.25,48,151.0
2180,A5,343.75,0.25,64,151.0
2181,C6,344.0,1.0,76,151.0
2182,A3,344.0,0.25,57,151.0
2183,E-4,344.5,0.25,51,151.0
2184,A3,344.5,0.25,51,151.0
2185,A5,345.0,0.25,62,151.0
2186,E-4,345.0,0.25,43,151.0
2187,A3,345.0,0.25,43,151.0
2188,B5,345.5,0.25,62,151.0
2189,E-4,345.5,0.25,39,151.0
2190,A3,345.5,0.25,39,151.0
2191,C6,346.0,0.25,70,151.0
2192,E3,346.0,0.25,46,151.0
2193,B5,346.5,0.25,62,151.0
2194,E4,346.5,0.25,42,151.0
2195,A3,346.5,0.25,42,151.0
2196,A5,347.0,0.25,62,151.0
2197,D3,347.0,0.25,42,151.0
2198,G#5,347.5,0.25,62,151.0
2199,B3,347.5,0.25,42,151.0
2200,F3,347.5,0.25,42,151.0
2201,A5,348.0,0.25,71,151.0
2202,C3,348.0,0.25,47,151.0
2203,E5,348.5,0.25,64,151.0
2204,A3,348.5,0.25,39,151.0
2205,E3,348.5,0.25,39,151.0
2206,D3,349.0,0.25,41,151.0
2207,F5,349.008,0.25,64,151.0
2208,D5,349.5,0.25,64,151.0
2209,B3,349.5,0.25,41,151.0
2210,F3,349.5,0.25,41,151.0
2211,C5,350.0,1.0,74,151.0
2212,E3,350.0,0.25,48,151.0
2213,A3,350.0,0.25,48,151.0
2214,A3,350.5,0.25,41,151.0
2215,E3,350.5,0.25,41,151.0
2216,E3,350.99,0.25,41,151.0
2217,G#3,350.99,0.25,41,151.0
2218,B4,351.0,0.125,64,151.0
2219,C5,351.125,0.125,57,151.0
2220,B4,351.25,0.125,57,151.0
2221,C5,351.375,0.125,57,151.0
2222,B4,351.5,1/125,57,151.0
2223,E3,351.5,0.25,41,151.0
2224,G#3,351.5,0.25,41,151.0
2225,C5,351.583,83/1000,57,151.0
2226,B4,351.667,83/1000,57,151.0
2227,A4,351.75,0.125,64,151.0
2228,B4,351.875,0.125,57,151.0
2229,A4,352.0,0.938,65,151.0
2230,A2,352.0,0.938,46,151.0
2231,A3,352.0,0.938,46,151.0
2232,A4,353.0,0.25,82,151.0
2233,A5,353.25,0.25,79,151.0
2234,B4,353.5,0.25,83,151.0
2235,B5,353.75,0.25,80,151.0
2236,A2,353.75,83/1000,64,151.0
2237,C#3,353.833,83/1000,70,151.0
2238,E3,353.917,83/1000,76,151.0
2239,C#5,354.0,0.25,89,151.0
2240,A3,354.0,0.25,87,151.0
2241,C#6,354.25,0.25,84,151.0
2242,A3,354.5,0.25,69,151.0
2243,A4,355.0,0.25,85,151.0
2244,A3,355.0,0.25,69,151.0
2245,A5,355.25,0.25,73,151.0
2246,B4,355.5,0.25,84,151.0
2247,A3,355.5,0.25,69,151.0
2248,B5,355.75,0.25,72,151.0
2249,A2,355.75,83/1000,65,151.0
2250,C#3,355.833,83/1000,69,151.0
2251,E3,355.917,83/1000,73,151.0
2252,C#5,356.0,0.25,90,151.0
2253,A3,356.0,0.25,85,151.0
2254,C#6,356.25,0.25,75,151.0
2255,B4,356.5,0.25,84,151.0
2256,A3,356.5,0.25,64,151.0
2257,B5,356.75,0.25,73,151.0
2258,A4,357.0,0.25,87,151.0
2259,A3,357.0,0.25,65,151.0
2260,A5,357.25,0.25,74,151.0
2261,G#4,357.5,0.25,83,151.0
2262,A3,357.5,0.25,67,151.0
2263,G#5,357.75,0.25,76,151.0
2264,D2,357.75,83/1000,66,151.0
2265,F#2,357.833,83/1000,71,151.0
2266,A2,357.917,83/1000,77,151.0
2267,F#4,358.0,0.25,88,151.0
2268,D3,358.0,0.25,85,151.0
2269,F#5,358.25,0.25,75,151.0
2270,G#4,358.5,0.25,83,151.0
2271,D3,358.5,0.25,69,151.0
2272,G#5,358.75,0.25,69,151.0
2273,E-2,358.75,83/1000,68,151.0
2274,F#2,358.833,83/1000,72,151.0
2275,A2,358.917,83/1000,75,151.0
2276,A4,359.0,0.25,79,151.0
2277,E-3,359.0,0.25,85,151.0
2278,A5,359.25,0.25,71,151.0
2279,B4,359.5,0.25,81,151.0
2280,E-3,359.5,0.25,71,151.0
2281,B5,359.75,0.25,73,151.0
2282,E2,359.75,83/1000,64,151.0
2283,G#2,359.833,83/1000,69,151.0
2284,B2,359.917,83/1000,74,151.0
2285,G#4,360.0,0.25,86,151.0
2286,E3,360.0,0.5,85,151.0
2287,G#5,360.25,0.25,73,151.0
2288,E4,360.5,0.25,81,151.0
2289,E3,360.5,0.25,73,151.0
2290,E5,360.75,0.25,72,151.0
2291,A4,361.0,0.25,83,151.0
2292,A5,361.25,0.25,73,151.0
2293,B4,361.5,0.25,82,151.0
2294,B5,361.75,0.25,73,151.0
2295,A2,361.75,83/1000,67,151.0
2296,C#3,361.833,83/1000,71,151.0
2297,E3,361.917,83/1000,76,151.0
2298,C#5,362.0,0.25,89,151.0
2299,A3,362.0,0.25,84,151.0
2300,C#6,362.25,0.25,77,151.0
2301,A3,362.5,0.25,69,151.0
2302,A4,363.0,0.25,85,151.0
2303,A3,363.0,0.25,69,151.0
2304,A5,363.25,0.25,76,151.0
2305,B4,363.5,0.25,84,151.0
2306,A3,363.5,0.25,69,151.0
2307,B5,363.75,0.25,77,151.0
2308,A2,363.75,83/1000,61,151.0
2309,C#3,363.833,83/1000,66,151.0
2310,E3,363.917,83/1000,72,151.0
2311,C#5,364.0,0.25,92,151.0
2312,A3,364.0,0.25,87,151.0
2313,C#6,364.25,0.25,77,151.0
2314,B4,364.5,0.25,84,151.0
2315,A3,364.5,0.25,64,151.0
2316,B5,364.75,0.25,75,151.0
2317,A4,365.0,0.25,88,151.0
2318,A3,365.0,0.25,65,151.0
2319,A5,365.25,0.25,77,151.0
2320,G#4,365.5,0.25,84,151.0
2321,A3,365.5,0.25,67,151.0
2322,G#5,365.75,0.25,75,151.0
2323,D2,365.75,83/1000,68,151.0
2324,F#2,365.833,83/1000,72,151.0
2325,A2,365.917,83/1000,76,151.0
2326,F#4,366.0,0.25,91,151.0
2327,D3,366.0,0.25,83,151.0
2328,F#5,366.25,0.25,79,151.0
2329,B4,366.5,0.25,82,151.0
2330,D3,366.5,0.25,69,151.0
2331,B5,366.75,0.25,72,151.0
2332,E2,366.75,83/1000,67,151.0
2333,G#2,366.833,83/1000,72,151.0
2334,B2,366.917,83/1000,78,151.0
2335,G#4,367.0,0.25,86,151.0
2336,E3,367.0,0.25,82,151.0
2337,G#5,367.25,0.25,75,151.0
2338,E4,367.5,0.25,80,151.0
2339,E3,367.5,0.25,71,151.0
2340,E5,367.75,0.25,74,151.0
2341,A2,368.0,0.938,84,151.0
2342,A4,368.0,0.938,84,151.0
2343,A5,368.0,0.938,84,151.0
2344,A4,369.0,0.25,82,151.0
2345,A5,369.25,0.25,79,151.0
2346,B4,369.5,0.25,83,151.0
2347,B5,369.75,0.25,80,151.0
2348,A2,369.75,83/1000,64,151.0
2349,C#3,369.833,83/1000,70,151.0
2350,E3,369.917,83/1000,76,151.0
2351,C#5,370.0,0.25,89,151.0
2352,A3,370.0,0.25,87,151.0
2353,C#6,370.25,0.25,84,151.0
2354,A3,370.5,0.25,69,151.0
2355,A4,371.0,0.25,85,151.0
2356,A3,371.0,0.25,69,151.0
2357,A5,371.25,0.25,73,151.0
2358,B4,371.5,0.25,84,151.0
2359,A3,371.5,0.25,69,151.0
2360,B5,371.75,0.25,72,151.0
2361,A2,371.75,83/1000,65,151.0
2362,C#3,371.833,83/1000,69,151.0
2363,E3,371.917,83/1000,73,151.0
2364,C#5,372.0,0.25,90,151.0
2365,A3,372.0,0.25,85,151.0
2366,C#6,372.25,0.25,75,151.0
2367,B4,372.5,0.25,84,151.0
2368,A3,372.5,0.25,64,151.0
2369,B5,372.75,0.25,73,151.0
2370,A4,373.0,0.25,87,151.0
2371,A3,373.0,0.25,65,151.0
2372,A5,373.25,0.25,74,151.0
2373,G#4,373.5,0.25,83,151.0
2374,A3,373.5,0.25,67,151.0
2375,G#5,373.75,0.25,76,151.0
2376,D2,373.75,83/1000,66,151.0
2377,F#2,373.833,83/1000,71,151.0
2378,A2,373.917,83/1000,77,151.0
2379,F#4,374.0,0.25,88,151.0
2380,D3,374.0,0.25,85,151.0
2381,F#5,374.25,0.25,75,151.0
2382,G#4,374.5,0.25,83,151.0
2383,D3,374.5,0.25,69,151.0
2384,G#5,374.75,0.25,69,151.0
2385,E-2,374.75,83/1000,68,151.0
2386,F#2,374.833,83/1000,72,151.0
2387,A2,374.917,83/1000,75,151.0
2388,A4,375.0,0.25,79,151.0
2389,E-3,375.0,0.25,85,151.0
2390,A5,375.25,0.25,71,151.0
2391,B4,375.5,0.25,81,151.0
2392,E-3,375.5,0.25,71,151.0
2393,B5,375.75,0.25,73,151.0
2394,E2,375.75,83/1000,64,151.0
2395,G#2,375.833,83/1000,69,151.0
2396,B2,375.917,83/1000,74,151.0
2397,G#4,376.0,0.25,86,151.0
2398,E3,376.0,0.5,85,151.0
2399,G#5,376.25,0.25,73,151.0
2400,E4,376.5,0.25,81,151.0
2401,E3,376.5,0.25,73,151.0
2402,E5,376.75,0.25,72,151.0
2403,A4,377.0,0.25,83,151.0
2404,A5,377.25,0.25,73,151.0
2405,B4,377.5,0.25,82,151.0
2406,B5,377.75,0.25,73,151.0
2407,A2,377.75,83/1000,67,151.0
2408,C#3,377.833,83/1000,71,151.0
2409,E3,377.917,83/1000,76,151.0
2410,C#5,378.0,0.25,89,151.0
2411,A3,378.0,0.25,84,151.0
2412,C#6,378.25,0.25,77,151.0
2413,A3,378.5,0.25,69,151.0
2414,A4,379.0,0.25,85,151.0
2415,A3,379.0,0.25,69,151.0
2416,A5,379.25,0.25,76,151.0
2417,B4,379.5,0.25,84,151.0
2418,A3,379.5,0.25,69,151.0
2419,B5,379.75,0.25,77,151.0
2420,A2,379.75,83/1000,61,151.0
2421,C#3,379.833,83/1000,66,151.0
2422,E3,379.917,83/1000,72,151.0
2423,C#5,380.0,0.25,92,151.0
2424,A3,380.0,0.25,87,151.0
2425,C#6,380.25,0.25,77,151.0
2426,B4,380.5,0.25,84,151.0
2427,A3,380.5,0.25,64,151.0
2428,B5,380.75,0.25,75,151.0
2429,A4,381.0,0.25,88,151.0
2430,A3,381.0,0.25,65,151.0
2431,A5,381.25,0.25,77,151.0
2432,G#4,381.5,0.25,84,151.0
2433,A3,381.5,0.25,67,151.0
2434,G#5,381.75,0.25,75,151.0
2435,D2,381.75,83/1000,68,151.0
2436,F#2,381.833,83/1000,72,151.0
2437,A2,381.917,83/1000,76,151.0
2438,F#4,382.0,0.25,91,151.0
2439,D3,382.0,0.25,83,151.0
2440,F#5,382.25,0.25,79,151.0
2441,B4,382.5,0.25,82,151.0
2442,D3,382.5,0.25,69,151.0
2443,B5,382.75,0.25,72,151.0
2444,E2,382.75,83/1000,67,151.0
2445,G#2,382.833,83/1000,72,151.0
2446,B2,382.917,83/1000,78,151.0
2447,G#4,383.0,0.25,86,151.0
2448,E3,383.0,0.25,82,151.0
2449,G#5,383.25,0.25,75,151.0
2450,E4,383.5,0.25,80,151.0
2451,E3,383.5,0.25,71,151.0
2452,E5,383.75,0.25,74,151.0
2453,A2,383.75,83/1000,61,151.0
2454,C#3,383.833,83/1000,66,151.0
2455,E3,383.917,83/1000,72,151.0
2456,A3,384.0,0.25,87,151.0
2457,A4,384.0,1.0,84,151.0
2458,A5,384.0,1.0,84,151.0
2459,A3,384.5,0.25,64,151.0
2460,C#6,385.0,0.75,90,151.0
2461,C#5,385.0,1.0,78,151.0
2462,A3,385.0,0.25,65,151.0
2463,A3,385.5,0.25,64,151.0
2464,C#6,385.75,0.188,90,151.0
2465,A2,385.75,83/1000,61,151.0
2466,C#3,385.833,83/1000,66,151.0
2467,E3,385.917,83/1000,72,151.0
2468,C#5,385.938,0.062,77,151.0
2469,E5,385.938,0.062,77,151.0
2470,A5,385.938,0.062,77,151.0
2471,A3,386.0,0.25,87,151.0
2472,A3,386.5,0.25,68,151.0
2473,C#6,386.958,2.0,90,151.0
2474,C#5,386.958,479/500,77,151.0
2475,E5,386.958,479/500,77,151.0
2476,A5,386.958,479/500,77,151.0
2477,A3,387.0,0.25,68,151.0
2478,A3,387.5,0.25,68,151.0
2479,A2,387.75,83/1000,61,151.0
2480,C#3,387.833,83/1000,66,151.0
2481,E3,387.917,83/1000,72,151.0
2482,A3,388.0,0.25,87,151.0
2483,A3,388.5,0.25,68,151.0
2484,C#5,388.896,0.062,77,151.0
2485,E5,388.896,0.062,77,151.0
2486,A5,388.896,0.062,77,151.0
2487,C#6,388.958,2.0,90,151.0
2488,C#5,388.958,479/500,77,151.0
2489,E5,388.958,479/500,77,151.0
2490,A5,388.958,479/500,77,151.0
2491,A3,389.0,0.25,68,151.0
2492,A3,389.5,0.25,68,151.0
2493,A2,389.75,83/1000,61,151.0
2494,C#3,389.833,83/1000,66,151.0
2495,E3,389.917,83/1000,72,151.0
2496,A3,390.0,0.25,87,151.0
2497,A3,390.5,0.25,67,151.0
2498,D6,390.958,0.25,90,151.0
2499,A3,391.0,0.25,67,151.0
2500,C#6,391.208,0.25,87,151.0
2501,B5,391.458,0.125,86,151.0
2502,A3,391.5,0.25,67,151.0
2503,C#6,391.708,0.125,86,151.0
2504,D2,391.75,83/1000,61,151.0
2505,F#2,391.833,83/1000,66,151.0
2506,A2,391.917,83/1000,72,151.0
2507,D6,391.958,0.25,90,151.0
2508,D3,392.0,0.25,87,151.0
2509,C#6,392.208,0.25,84,151.0
2510,B5,392.458,0.125,84,151.0
2511,D3,392.5,0.25,67,151.0
2512,C#6,392.708,0.125,85,151.0
2513,F#5,392.958,2.0,83,151.0
2514,A5,392.958,2.0,83,151.0
2515,D6,392.958,2.0,83,151.0
2516,D3,393.0,0.25,67,151.0
2517,D3,393.485,0.25,67,151.0
2518,A2,393.75,83/1000,61,151.0
2519,C#3,393.833,83/1000,66,151.0
2520,E3,393.917,83/1000,72,151.0
2521,A3,394.0,0.125,87,151.0
2522,A3,394.5,0.125,67,151.0
2523,D6,394.896,0.062,76,151.0
2524,E5,394.958,0.125,81,151.0
2525,A5,394.958,0.125,81,151.0
2526,C#6,394.958,0.125,81,151.0
2527,A3,395.0,0.125,67,151.0
2528,D6,395.396,0.062,76,151.0
2529,E5,395.458,0.125,76,151.0
2530,A5,395.458,0.125,76,151.0
2531,C#6,395.458,0.125,76,151.0
2532,A3,395.5,0.125,67,151.0
2533,E2,395.75,83/1000,61,151.0
2534,G#2,395.833,83/1000,66,151.0
2535,D6,395.896,0.062,76,151.0
2536,B2,395.917,83/1000,72,151.0
2537,E5,395.958,0.125,76,151.0
2538,A5,395.958,0.125,76,151.0
2539,C#6,395.958,0.125,76,151.0
2540,E3,396.0,0.25,87,151.0
2541,D6,396.396,0.062,76,151.0
2542,E5,396.458,0.125,76,151.0
2543,A5,396.458,0.125,76,151.0
2544,C#6,396.458,0.125,76,151.0
2545,E3,396.5,0.25,66,151.0
2546,B5,396.958,1.75,90,151.0
2547,E5,396.958,2.0,80,151.0
2548,G#5,396.958,2.0,80,151.0
2549,E3,397.0,0.25,66,151.0
2550,E3,397.5,0.25,66,151.0
2551,A2,397.75,83/1000,61,151.0
2552,C#3,397.833,83/1000,66,151.0
2553,E3,397.917,83/1000,72,151.0
2554,A3,398.0,0.25,87,151.0
2555,A3,398.5,0.25,68,151.0
2556,E6,398.708,0.188,103,151.0
2557,C#5,398.896,0.062,77,151.0
2558,E5,398.896,0.062,77,151.0
2559,A5,398.896,0.062,77,151.0
2560,A3,399.0,0.25,68,151.0
2561,A3,399.5,0.25,68,151.0
2562,A2,399.75,83/1000,61,151.0
2563,C#3,399.833,83/1000,66,151.0
2564,C#6,399.917,2.0,90,151.0
2565,E3,399.917,83/1000,72,151.0
2566,C#5,399.917,479/500,77,151.0
2567,E5,399.917,479/500,77,151.0
2568,A5,399.917,479/500,77,151.0
2569,A3,400.0,0.25,87,151.0
2570,A3,400.5,0.25,66,151.0
2571,A3,401.0,0.25,66,151.0
2572,A3,401.5,0.25,66,151.0
2573,A2,401.75,83/1000,61,151.0
2574,C#3,401.833,83/1000,66,151.0
2575,C#5,401.854,0.062,77,151.0
2576,E5,401.854,0.062,77,151.0
2577,A5,401.854,0.062,77,151.0
2578,C#6,401.917,2.0,90,151.0
2579,E3,401.917,83/1000,72,151.0
2580,C#5,401.917,479/500,77,151.0
2581,E5,401.917,479/500,77,151.0
2582,A5,401.917,479/500,77,151.0
2583,A3,402.0,0.25,87,151.0
2584,A3,402.5,0.25,66,151.0
2585,A3,403.0,0.25,66,151.0
2586,A3,403.5,0.25,66,151.0
2587,D2,403.75,83/1000,61,151.0
2588,F#2,403.833,83/1000,66,151.0
2589,D6,403.917,0.25,90,151.0
2590,A2,403.917,83/1000,72,151.0
2591,D3,404.0,0.25,87,151.0
2592,C#6,404.167,0.25,87,151.0
2593,B5,404.417,0.125,86,151.0
2594,D3,404.5,0.25,66,151.0
2595,C#6,404.667,0.125,86,151.0
2596,D6,404.917,0.25,90,151.0
2597,D3,405.0,0.25,66,151.0
2598,C#6,405.167,0.25,84,151.0
2599,B5,405.417,0.125,84,151.0
2600,D3,405.485,0.25,66,151.0
2601,C#6,405.667,0.125,85,151.0
2602,A2,405.75,83/1000,61,151.0
2603,C#3,405.833,83/1000,66,151.0
2604,E3,405.917,83/1000,72,151.0
2605,F#5,405.917,2.0,83,151.0
2606,A5,405.917,2.0,83,151.0
2607,D6,405.917,2.0,83,151.0
2608,A3,406.0,0.25,87,151.0
2609,A3,406.5,0.25,66,151.0
2610,A3,407.0,0.25,66,151.0
2611,A3,407.5,0.25,66,151.0
2612,E2,407.75,83/1000,61,151.0
2613,G#2,407.833,83/1000,66,151.0
2614,D6,407.854,0.062,76,151.0
2615,B2,407.917,83/1000,72,151.0
2616,E5,407.917,2.0,81,151.0
2617,A5,407.917,2.0,81,151.0
2618,C#6,407.917,2.0,81,151.0
2619,E3,408.0,0.125,87,151.0
2620,E3,408.5,0.125,66,151.0
2621,E3,409.0,0.125,65,151.0
2622,E3,409.5,0.125,65,151.0
2623,C#6,409.854,0.062,76,151.0
2624,E5,409.917,0.125,81,151.0
2625,G#5,409.917,0.125,81,151.0
2626,B5,409.917,0.125,81,151.0
2627,A3,410.0,0.25,64,151.0
2628,E4,410.25,0.25,54,151.0
2629,C#6,410.354,0.062,76,151.0
2630,E5,410.417,0.125,76,151.0
2631,G#5,410.417,0.125,76,151.0
2632,B5,410.417,0.125,76,151.0
2633,C#4,410.5,0.25,54,151.0
2634,E4,410.75,0.25,54,151.0
2635,C#6,410.854,0.062,76,151.0
2636,E5,410.917,0.125,76,151.0
2637,G#5,410.917,0.125,76,151.0
2638,B5,410.917,0.125,76,151.0
2639,A3,411.0,0.25,40,151.0
2640,E4,411.25,0.25,31,151.0
2641,C#6,411.354,0.062,76,151.0
2642,E5,411.417,0.125,76,151.0
2643,G#5,411.417,0.125,76,151.0
2644,B5,411.417,0.125,76,151.0
2645,C#4,411.5,0.25,31,151.0
2646,E4,411.75,0.25,31,151.0
2647,A5,411.917,0.875,90,151.0
2648,A3,412.0,0.25,40,151.0
2649,E4,412.25,0.25,31,151.0
2650,C#4,412.5,0.25,31,151.0
2651,E4,412.75,0.25,31,151.0
2652,E5,412.792,0.062,55,151.0
2653,A5,412.854,0.062,60,151.0
2654,C#6,412.917,0.75,67,151.0
2655,A3,413.0,0.25,40,151.0
2656,E4,413.25,0.25,31,151.0
2657,C#4,413.5,0.25,31,151.0
2658,C#6,413.667,0.125,63,151.0
2659,E4,413.75,0.25,31,151.0
2660,E5,413.792,0.062,55,151.0
2661,A5,413.854,0.062,60,151.0
2662,C#6,413.917,1.875,70,151.0
2663,A3,414.0,0.25,40,151.0
2664,E4,414.25,0.25,31,151.0
2665,C#4,414.5,0.25,31,151.0
2666,E4,414.75,0.25,31,151.0
2667,A3,415.0,0.25,40,151.0
2668,E4,415.25,0.25,31,151.0
2669,C#4,415.5,0.25,31,151.0
2670,E4,415.75,0.25,31,151.0
2671,E5,415.792,0.062,55,151.0
2672,A5,415.854,0.062,60,151.0
2673,C#6,415.917,2.0,69,151.0
2674,A3,416.0,0.25,40,151.0
2675,E4,416.25,0.25,31,151.0
2676,C#4,416.5,0.25,31,151.0
2677,E4,416.75,0.25,31,151.0
2678,A3,417.0,0.25,40,151.0
2679,E4,417.25,0.25,31,151.0
2680,C#4,417.5,0.25,31,151.0
2681,E4,417.75,0.25,31,151.0
2682,D6,417.917,0.25,69,151.0
2683,A3,418.0,0.25,40,151.0
2684,C#6,418.167,0.25,60,151.0
2685,F#4,418.25,0.25,31,151.0
2686,B5,418.417,0.125,60,151.0
2687,D4,418.5,0.25,31,151.0
2688,C#6,418.667,0.125,60,151.0
2689,F#4,418.75,0.25,31,151.0
2690,D6,418.917,0.25,68,151.0
2691,A3,419.0,0.25,40,151.0
2692,C#6,419.167,0.25,61,151.0
2693,F#4,419.25,0.25,31,151.0
2694,B5,419.417,0.125,61,151.0
2695,D4,419.5,0.25,31,151.0
2696,C#6,419.667,0.125,61,151.0
2697,F#4,419.75,0.25,31,151.0
2698,D6,419.917,2.0,67,151.0
2699,A3,420.0,0.25,40,151.0
2700,E4,420.25,0.25,31,151.0
2701,C#4,420.5,0.25,31,151.0
2702,E4,420.75,0.25,31,151.0
2703,A3,421.0,0.25,40,151.0
2704,E4,421.25,0.25,31,151.0
2705,C#4,421.5,0.25,31,151.0
2706,E4,421.75,0.25,31,151.0
2707,D6,421.854,0.062,59,151.0
2708,C#6,421.917,0.125,71,151.0
2709,E3,422.0,0.25,40,151.0
2710,E4,422.25,0.25,31,151.0
2711,D6,422.354,0.062,56,151.0
2712,C#6,422.417,0.125,64,151.0
2713,B3,422.5,0.25,31,151.0
2714,E4,422.75,0.25,31,151.0
2715,D6,422.854,0.062,57,151.0
2716,C#6,422.917,0.125,65,151.0
2717,E3,423.0,0.25,40,151.0
2718,E4,423.25,0.25,31,151.0
2719,D6,423.354,0.062,59,151.0
2720,C#6,423.417,0.125,66,151.0
2721,B3,423.5,0.25,31,151.0
2722,E4,423.75,0.125,31,151.0
2723,A2,423.875,21/500,61,151.0
2724,C#3,423.875,21/500,61,151.0
2725,B5,423.917,1.75,67,151.0
2726,E3,423.958,21/500,61,151.0
2727,A3,424.0,0.25,87,151.0
2728,A3,424.5,0.25,67,151.0
2729,A3,425.0,0.25,67,151.0
2730,A3,425.5,0.25,64,151.0
2731,E6,425.667,0.188,94,151.0
2732,A2,425.75,83/1000,61,151.0
2733,C#3,425.833,83/1000,66,151.0
2734,C#5,425.854,0.062,77,151.0
2735,E5,425.854,0.062,77,151.0
2736,A5,425.854,0.062,77,151.0
2737,E3,425.917,83/1000,72,151.0
2738,A3,426.0,0.25,87,151.0
2739,A3,426.5,0.25,66,151.0
2740,C#6,426.875,2.0,90,151.0
2741,C#5,426.875,479/500,77,151.0
2742,E5,426.875,479/500,77,151.0
2743,A5,426.875,479/500,77,151.0
2744,A3,427.0,0.25,66,151.0
2745,A3,427.5,0.25,66,151.0
2746,A2,427.75,83/1000,61,151.0
2747,C#3,427.833,83/1000,66,151.0
2748,E3,427.917,83/1000,72,151.0
2749,A3,428.0,0.25,87,151.0
2750,A3,428.5,0.25,67,151.0
2751,C#5,428.812,0.062,77,151.0
2752,E5,428.812,0.062,77,151.0
2753,A5,428.812,0.062,77,151.0
2754,C#6,428.875,2.0,90,151.0
2755,C#5,428.875,479/500,77,151.0
2756,E5,428.875,479/500,77,151.0
2757,A5,428.875,479/500,77,151.0
2758,A3,429.0,0.25,67,151.0
2759,A3,429.5,0.25,67,151.0
2760,D2,429.75,83/1000,61,151.0
2761,F#2,429.833,83/1000,66,151.0
2762,A2,429.917,83/1000,72,151.0
2763,D3,430.0,0.25,87,151.0
2764,D3,430.5,0.25,68,151.0
2765,D6,430.875,0.25,90,151.0
2766,D3,431.0,0.25,68,151.0
2767,C#6,431.125,0.25,87,151.0
2768,B5,431.375,0.125,86,151.0
2769,D3,431.485,0.25,68,151.0
2770,C#6,431.625,0.125,86,151.0
2771,A2,431.75,83/1000,61,151.0
2772,C#3,431.833,83/1000,66,151.0
2773,D6,431.875,0.25,90,151.0
2774,E3,431.917,83/1000,72,151.0
2775,A3,432.0,0.25,87,151.0
2776,C#6,432.125,0.25,84,151.0
2777,B5,432.375,0.125,84,151.0
2778,A3,432.5,0.25,67,151.0
2779,C#6,432.625,0.125,85,151.0
2780,F#5,432.875,2.0,83,151.0
2781,A5,432.875,2.0,83,151.0
2782,D6,432.875,2.0,83,151.0
2783,A3,433.0,0.25,67,151.0
2784,A3,433.5,0.25,67,151.0
2785,E2,433.75,83/1000,61,151.0
2786,G#2,433.833,83/1000,66,151.0
2787,B2,433.917,83/1000,72,151.0
2788,E3,434.0,0.125,87,151.0
2789,E3,434.5,0.125,67,151.0
2790,D6,434.812,0.062,76,151.0
2791,E5,434.875,2.0,81,151.0
2792,A5,434.875,2.0,81,151.0
2793,C#6,434.875,2.0,81,151.0
2794,E3,435.0,0.125,67,151.0
2795,E3,435.5,0.125,67,151.0
2796,A2,435.75,83/1000,61,151.0
2797,C#3,435.833,83/1000,66,151.0
2798,E3,435.917,83/1000,72,151.0
2799,A3,436.0,0.25,87,151.0
2800,A3,436.5,0.25,67,151.0
2801,C#6,436.812,0.062,76,151.0
2802,E5,436.875,0.125,81,151.0
2803,G#5,436.875,0.125,81,151.0
2804,B5,436.875,0.125,81,151.0
2805,A3,437.0,0.25,67,151.0
2806,C#6,437.312,0.062,76,151.0
2807,E5,437.375,0.125,76,151.0
2808,G#5,437.375,0.125,76,151.0
2809,B5,437.375,0.125,76,151.0
2810,A3,437.5,0.25,67,151.0
2811,A2,437.75,83/1000,61,151.0
2812,C#6,437.812,0.062,76,151.0
2813,C#3,437.833,83/1000,66,151.0
2814,E5,437.875,0.125,76,151.0
2815,G#5,437.875,0.125,76,151.0
2816,B5,437.875,0.125,76,151.0
2817,E3,437.917,83/1000,72,151.0
2818,A3,438.0,0.25,87,151.0
2819,C#6,438.312,0.062,76,151.0
2820,E5,438.375,0.125,76,151.0
2821,G#5,438.375,0.125,76,151.0
2822,B5,438.375,0.125,76,151.0
2823,A3,438.5,0.25,66,151.0
2824,A4,438.875,1.5,90,151.0
2825,C#5,438.875,1.5,90,151.0
2826,E5,438.875,1.5,90,151.0
2827,A5,438.875,1.5,90,151.0
2828,A3,439.0,0.25,66,151.0
2829,A3,439.5,0.25,66,151.0
2830,A2,439.75,83/1000,61,151.0
2831,C#3,439.833,83/1000,66,151.0
2832,E3,439.917,83/1000,72,151.0
2833,A3,440.0,0.25,87,151.0
2834,C#5,440.375,0.125,80,151.0
2835,C#6,440.375,0.125,80,151.0
2836,A3,440.5,0.25,67,151.0
2837,A4,440.875,1.5,90,151.0
2838,A5,440.875,1.5,90,151.0
2839,A3,441.0,0.25,67,151.0
2840,A3,441.5,0.25,67,151.0
2841,A2,441.75,83/1000,61,151.0
2842,C#3,441.833,83/1000,66,151.0
2843,E3,441.917,83/1000,72,151.0
2844,A3,442.0,0.25,95,151.0
2845,C#5,442.375,0.125,80,151.0
2846,C#6,442.375,0.125,80,151.0
2847,A3,442.5,0.25,70,151.0
2848,A2,442.75,83/1000,67,151.0
2849,C#3,442.833,83/1000,72,151.0
2850,A4,442.875,1.5,90,151.0
2851,A5,442.875,1.5,90,151.0
2852,E3,442.917,83/1000,79,151.0
2853,A3,443.0,0.25,95,151.0
2854,A3,443.5,0.25,70,151.0
2855,A2,444.0,1.0,88,151.0
2856,C#5,444.375,0.125,80,151.0
2857,C#6,444.375,0.125,80,151.0
2858,A4,444.875,0.25,90,151.0
2859,A5,444.875,0.25,90,151.0
2860,A3,445.0,1.0,88,151.0
2861,C#5,445.375,0.25,85,151.0
2862,C#6,445.375,0.25,85,151.0
2863,A4,445.875,0.25,91,151.0
2864,A5,445.875,0.25,91,151.0
2865,A2,446.0,1.0,78,151.0
2866,C#3,446.0,1.0,78,151.0
2867,E3,446.0,1.0,78,151.0
2868,A3,446.0,1.0,78,151.0
2869,C#5,446.375,0.25,86,151.0
2870,C#6,446.375,0.25,86,151.0
2871,A4,446.875,1.0,99,151.0
2872,A5,446.875,1.0,99,151.0
2873,A4,447.875,1.0,86,151.0
2874,C#5,447.875,1.0,86,151.0
2875,E5,447.875,1.0,86,151.0
2876,A5,447.875,1.0,86,151.0
2877,A4,448.875,1.0,90,151.0
2878,C#5,448.875,1.0,90,151.0
2879,E5,448.875,1.0,90,151.0
2880,A5,448.875,1.0,90,151.0
