,note_name,start_time,duration,velocity,tempo
0,F4,0.0,2.0,50,141.83
1,F3,0.0,0.5,40,141.83
2,A3,0.5,0.5,30,141.83
3,C4,1.0,0.5,33,141.83
4,A3,1.5,0.5,30,141.83
5,A4,2.0,1.0,47,141.83
6,C4,2.0,0.5,34,141.83
7,A3,2.5,0.5,30,141.83
8,C5,3.0,2.0,52,141.83
9,F3,3.0,0.5,40,141.83
10,C4,3.5,0.5,29,141.83
11,E-4,4.0,0.5,31,141.83
12,C4,4.5,0.5,27,141.83
13,A4,5.0,1.0,46,141.83
14,E-4,5.0,0.5,31,141.83
15,C4,5.5,0.5,28,141.83
16,B-4,6.0,2.0,50,141.83
17,F3,6.0,0.5,40,141.83
18,B-3,6.5,0.5,30,141.83
19,D4,7.0,0.5,33,141.83
20,B-3,7.5,0.5,30,141.83
21,G5,8.0,1.0,47,141.83
22,D4,8.0,0.5,33,141.83
23,B-3,8.5,0.5,30,141.83
24,F5,9.0,0.5,47,141.83
25,F3,9.0,0.5,40,141.83
26,E5,9.5,0.5,44,141.83
27,G3,9.5,0.5,23,141.83
28,E5,10.0,1.0,44,141.83
29,B-3,10.0,0.5,28,141.83
30,G3,10.5,0.5,24,141.83
31,B-3,11.0,0.5,29,141.83
32,G3,11.5,0.5,24,141.83
33,F5,12.0,1.0,50,141.83
34,F3,12.0,1.0,30,141.83
35,A3,12.0,1.0,30,141.83
36,A4,13.0,1.0,46,141.83
37,D5,14.0,1.0,46,141.83
38,G4,15.0,1.0,50,141.83
39,C5,16.0,1.5,54,141.83
40,A4,17.5,0.5,45,141.83
41,F4,18.0,3.0,50,141.83
42,F3,18.0,1.0,47,141.83
43,A2,19.0,1.0,44,141.83
44,D3,20.0,1.0,48,141.83
45,G4,21.0,3.0,50,141.83
46,F4,21.0,1.0,50,141.83
47,G2,21.0,1.0,48,141.83
48,E4,22.0,0.125,42,141.83
49,C3,22.0,1.5,49,141.83
50,F4,22.125,0.125,37,141.83
51,E4,22.25,0.25,48,141.83
52,D4,22.5,0.5,48,141.83
53,E4,23.0,1.0,50,141.83
54,A2,23.5,0.5,47,141.83
55,A4,24.0,1.0,48,141.83
56,F4,24.0,3.0,48,141.83
57,F2,24.0,1.0,52,141.83
58,B-4,25.0,1.0,52,141.83
59,D3,25.0,1.0,40,141.83
60,D5,26.0,1.0,55,141.83
61,B-2,26.0,1.0,44,141.83
62,D5,27.0,0.5,58,141.83
63,F4,27.0,1.0,48,141.83
64,A2,27.0,1.0,47,141.83
65,C5,27.5,0.5,57,141.83
66,B-4,28.0,0.5,56,141.83
67,A4,28.5,0.5,54,141.83
68,G4,29.0,0.5,53,141.83
69,D3,29.0,1.0,40,141.83
70,F4,29.5,0.5,51,141.83
71,G4,30.0,1.0,54,141.83
72,B-2,30.0,1.0,40,141.83
73,B-4,31.0,0.25,50,141.83
74,C3,32.0,1.0,41,141.83
75,B-3,32.0,1.0,54,141.83
76,E4,32.0,1.0,54,141.83
77,F2,33.0,1.0,43,141.83
78,F4,33.0,1.0,56,141.83
79,A3,33.0,1.0,56,141.83
80,C6,35.0,0.75,50,141.83
81,C5,35.0,0.75,36,141.83
82,A4,35.0,0.75,36,141.83
83,B-5,35.75,0.25,44,141.83
84,G4,35.75,0.25,32,141.83
85,B-4,35.75,0.25,32,141.83
86,A5,36.0,0.25,50,141.83
87,A4,36.0,0.25,36,141.83
88,F4,36.0,0.25,36,141.83
89,A5,37.0,0.25,50,141.83
90,F4,37.0,0.25,36,141.83
91,A4,37.0,0.25,36,141.83
92,A5,38.0,0.75,47,141.83
93,F4,38.0,0.75,33,141.83
94,A4,38.0,0.75,33,141.83
95,G5,38.75,0.25,42,141.83
96,G4,38.75,0.25,30,141.83
97,C4,38.75,0.25,30,141.83
98,F5,39.0,0.25,48,141.83
99,F4,39.0,0.25,34,141.83
100,A3,39.0,0.25,34,141.83
101,F5,40.0,0.25,44,141.83
102,F4,40.0,0.25,32,141.83
103,A3,40.0,0.25,32,141.83
104,F5,41.0,1.0,44,141.83
105,F4,41.0,1.0,32,141.83
106,A3,41.0,1.0,32,141.83
107,E5,42.0,0.25,46,141.83
108,G5,42.0,0.25,46,141.83
109,C4,42.0,0.25,32,141.83
110,G4,42.0,0.25,32,141.83
111,E5,43.0,0.25,44,141.83
112,G5,43.0,0.25,44,141.83
113,G4,43.0,0.25,32,141.83
114,C4,43.0,0.25,32,141.83
115,G5,44.0,0.25,44,141.83
116,E5,44.0,0.25,44,141.83
117,C4,44.0,0.25,32,141.83
118,G4,44.0,0.25,32,141.83
119,E5,45.0,1.0,50,141.83
120,G5,45.0,1.0,50,141.83
121,G4,45.0,1.0,36,141.83
122,C4,45.0,1.0,36,141.83
123,A5,46.0,1.0,44,141.83
124,F5,46.0,1.0,44,141.83
125,A4,46.0,1.0,32,141.83
126,F4,46.0,1.0,32,141.83
127,C6,47.0,0.25,50,141.83
128,C5,47.0,0.75,36,141.83
129,A4,47.0,0.75,36,141.83
130,D6,47.25,0.25,44,141.83
131,C6,47.5,0.25,44,141.83
132,B-5,47.75,0.25,44,141.83
133,B-4,47.75,0.25,32,141.83
134,G4,47.75,0.25,32,141.83
135,A5,48.0,0.25,50,141.83
136,F4,48.0,0.25,36,141.83
137,A4,48.0,0.25,36,141.83
138,A5,49.0,0.25,50,141.83
139,F4,49.0,0.25,36,141.83
140,A4,49.0,0.25,36,141.83
141,A5,50.0,0.25,47,141.83
142,A4,50.0,0.75,33,141.83
143,F4,50.0,0.75,33,141.83
144,B-5,50.25,0.25,42,141.83
145,A5,50.5,0.25,42,141.83
146,G5,50.75,0.25,42,141.83
147,G4,50.75,0.25,30,141.83
148,C4,50.75,0.25,30,141.83
149,F5,51.0,0.25,48,141.83
150,F4,51.0,0.25,34,141.83
151,A3,51.0,0.25,34,141.83
152,F5,52.0,0.25,44,141.83
153,A3,52.0,0.25,32,141.83
154,F4,52.0,0.25,32,141.83
155,F5,53.0,0.25,44,141.83
156,A3,53.0,0.25,32,141.83
157,F4,53.0,0.25,32,141.83
158,G5,54.0,1.0,49,141.83
159,G4,54.0,1.0,33,141.83
160,C4,54.0,1.0,33,141.83
161,B-5,55.0,0.25,44,141.83
162,E5,56.0,1.0,40,141.83
163,B-4,56.0,1.0,40,141.83
164,C4,56.0,1.0,32,141.83
165,G4,56.0,1.0,32,141.83
166,F4,57.0,1.0,39,141.83
167,A4,57.0,1.0,43,141.83
168,F5,57.0,1.0,43,141.83
169,C6,59.0,1.0,44,141.83
170,B-4,59.0,1.0,30,141.83
171,C4,59.0,1.0,30,141.83
172,E4,59.0,1.0,30,141.83
173,F5,60.0,1.0,48,141.83
174,A4,60.0,1.0,35,141.83
175,F4,60.0,1.0,35,141.83
176,C5,62.0,1.0,39,141.83
177,B-3,62.0,1.0,27,141.83
178,E3,62.0,1.0,27,141.83
179,C3,62.0,1.0,27,141.83
180,F4,63.0,1.0,43,141.83
181,F3,63.0,1.0,31,141.83
182,A3,63.0,1.0,31,141.83
183,C#4,65.0,1.0,80,141.83
184,C#2,65.0,1.0,56,141.83
185,C#3,65.0,1.0,56,141.83
186,D4,66.0,1.5,85,141.83
187,D3,66.0,0.5,61,141.83
188,D2,66.0,0.5,61,141.83
189,F3,66.5,0.5,60,141.83
190,A3,67.0,0.5,60,141.83
191,F4,67.5,0.25,78,141.83
192,F3,67.5,0.5,60,141.83
193,A4,67.75,0.25,81,141.83
194,D5,68.0,0.25,84,141.83
195,A3,68.0,0.5,63,141.83
196,A4,68.5,0.25,79,141.83
197,F3,68.5,0.5,60,141.83
198,D5,68.75,0.25,82,141.83
199,F5,69.0,0.25,86,141.83
200,D3,69.0,0.5,65,141.83
201,D5,69.5,0.25,79,141.83
202,F3,69.5,0.5,60,141.83
203,F5,69.75,0.25,82,141.83
204,A5,70.0,0.25,87,141.83
205,A3,70.0,0.5,63,141.83
206,A5,70.5,0.5,80,141.83
207,F3,70.5,0.5,60,141.83
208,F5,71.0,0.5,80,141.83
209,A3,71.0,0.5,60,141.83
210,D5,71.5,0.25,80,141.83
211,F3,71.5,0.5,62,141.83
212,C#5,71.75,83/1000,70,141.83
213,E5,71.833,83/1000,70,141.83
214,G5,71.917,83/1000,70,141.83
215,B-5,72.0,1.5,90,141.83
216,E2,72.0,0.25,66,141.83
217,E3,72.0,0.25,66,141.83
218,G3,73.0,0.25,63,141.83
219,E3,73.0,0.25,63,141.83
220,B-3,73.0,0.25,63,141.83
221,C#4,73.0,0.25,63,141.83
222,A5,73.5,11/40,71,141.83
223,G5,73.75,11/40,68,141.83
224,F5,74.0,11/40,68,141.83
225,E5,74.25,11/40,68,141.83
226,D5,74.5,11/40,69,141.83
227,C#5,74.75,0.25,72,141.83
228,B-5,75.0,1.5,90,141.83
229,C#5,75.0,1/40,72,141.83
230,E3,75.0,0.25,66,141.83
231,E2,75.0,0.25,66,141.83
232,C#4,76.0,0.25,63,141.83
233,E3,76.0,0.25,63,141.83
234,G3,76.0,0.25,63,141.83
235,B-3,76.0,0.25,63,141.83
236,A5,76.5,11/40,71,141.83
237,G5,76.75,11/40,68,141.83
238,F5,77.0,11/40,68,141.83
239,E5,77.25,11/40,68,141.83
240,D5,77.5,11/40,69,141.83
241,C#5,77.75,0.25,72,141.83
242,D5,78.0,1.5,88,141.83
243,C#5,78.0,1/40,72,141.83
244,F3,78.0,0.5,66,141.83
245,A3,78.5,0.5,60,141.83
246,D4,79.0,0.5,60,141.83
247,F4,79.5,0.25,70,141.83
248,A3,79.5,0.5,60,141.83
249,A4,79.75,0.25,72,141.83
250,D5,80.0,0.25,84,141.83
251,D4,80.0,0.5,63,141.83
252,A4,80.5,0.25,71,141.83
253,A3,80.5,0.5,60,141.83
254,D5,80.75,0.25,73,141.83
255,F5,81.0,0.25,86,141.83
256,F3,81.0,0.5,65,141.83
257,D5,81.5,0.25,71,141.83
258,A3,81.5,0.5,60,141.83
259,F5,81.75,0.25,73,141.83
260,A5,82.0,0.25,87,141.83
261,D4,82.0,0.5,63,141.83
262,A5,82.5,0.5,80,141.83
263,A3,82.5,0.5,60,141.83
264,F5,83.0,0.5,80,141.83
265,D4,83.0,0.5,60,141.83
266,D5,83.5,0.5,80,141.83
267,A3,83.5,0.5,62,141.83
268,D5,84.0,1.5,79,141.83
269,G#5,84.0,1.5,79,141.83
270,F5,84.0,1.5,79,141.83
271,B4,84.0,1.5,79,141.83
272,D2,84.0,0.25,66,141.83
273,D3,84.0,0.25,66,141.83
274,G#3,85.0,0.25,63,141.83
275,D3,85.0,0.25,63,141.83
276,B3,85.0,0.25,63,141.83
277,F3,85.0,0.25,63,141.83
278,G5,85.5,11/40,71,141.83
279,F5,85.75,11/40,68,141.83
280,E-5,86.0,11/40,68,141.83
281,D5,86.25,11/40,68,141.83
282,C5,86.5,11/40,69,141.83
283,B4,86.75,0.25,72,141.83
284,G#5,87.0,1.5,90,141.83
285,B4,87.0,1/40,72,141.83
286,D2,87.0,0.25,66,141.83
287,D3,87.0,0.25,66,141.83
288,F3,88.0,0.25,63,141.83
289,B3,88.0,0.25,63,141.83
290,G#3,88.0,0.25,63,141.83
291,D3,88.0,0.25,63,141.83
292,G5,88.5,11/40,71,141.83
293,F5,88.75,11/40,68,141.83
294,E-5,89.0,11/40,68,141.83
295,D5,89.25,11/40,68,141.83
296,C5,89.5,11/40,69,141.83
297,B4,89.75,0.25,72,141.83
298,C5,90.0,1.25,88,141.83
299,B4,90.0,1/40,72,141.83
300,E-3,90.0,0.5,66,141.83
301,G3,90.5,0.5,60,141.83
302,C4,91.0,0.5,60,141.83
303,G4,91.25,0.25,69,141.83
304,C5,91.5,0.25,74,141.83
305,G3,91.5,0.5,60,141.83
306,G4,91.75,0.25,70,141.83
307,E-5,92.0,0.25,74,141.83
308,C4,92.0,0.5,63,141.83
309,C5,92.25,0.25,71,141.83
310,E-5,92.5,0.25,75,141.83
311,G3,92.5,0.5,60,141.83
312,C5,92.75,0.25,70,141.83
313,G5,93.0,0.25,74,141.83
314,E-3,93.0,0.5,66,141.83
315,E-5,93.25,0.25,71,141.83
316,G5,93.5,0.25,74,141.83
317,G3,93.5,0.5,60,141.83
318,E-5,93.75,0.25,71,141.83
319,C6,94.0,0.5,91,141.83
320,C4,94.0,0.5,60,141.83
321,G3,94.5,0.5,60,141.83
322,C4,95.0,0.5,63,141.83
323,G3,95.5,0.5,60,141.83
324,C5,96.0,1.25,88,141.83
325,C3,96.0,0.5,66,141.83
326,E-3,96.5,0.5,60,141.83
327,G#3,97.0,0.5,60,141.83
328,G#4,97.25,0.25,69,141.83
329,C5,97.5,0.25,74,141.83
330,E-3,97.5,0.5,60,141.83
331,G#4,97.75,0.25,70,141.83
332,E-5,98.0,0.25,74,141.83
333,G#3,98.0,0.5,63,141.83
334,C5,98.25,0.25,71,141.83
335,E-5,98.5,0.25,75,141.83
336,E-3,98.5,0.5,60,141.83
337,C5,98.75,0.25,70,141.83
338,G#5,99.0,0.25,74,141.83
339,C3,99.0,0.5,66,141.83
340,E-5,99.25,0.25,71,141.83
341,G#5,99.5,0.25,74,141.83
342,E-3,99.5,0.5,60,141.83
343,E-5,99.75,0.25,71,141.83
344,C6,100.0,0.5,91,141.83
345,G#3,100.0,0.5,60,141.83
346,E-3,100.5,0.5,60,141.83
347,G#3,101.0,0.5,63,141.83
348,E-3,101.5,0.5,60,141.83
349,C5,102.0,1.25,88,141.83
350,G#2,102.0,0.5,66,141.83
351,C3,102.5,0.5,60,141.83
352,E-3,103.0,0.5,60,141.83
353,F#4,103.25,0.25,69,141.83
354,C5,103.5,0.25,74,141.83
355,C3,103.5,0.5,60,141.83
356,F#4,103.75,0.25,70,141.83
357,E-5,104.0,0.25,74,141.83
358,E-3,104.0,0.5,63,141.83
359,C5,104.25,0.25,71,141.83
360,E-5,104.5,0.25,75,141.83
361,C3,104.5,0.5,60,141.83
362,C5,104.75,0.25,70,141.83
363,F#5,105.0,0.25,74,141.83
364,G#2,105.0,0.5,66,141.83
365,E-5,105.25,0.25,71,141.83
366,F#5,105.5,0.25,74,141.83
367,C3,105.5,0.5,60,141.83
368,E-5,105.75,0.25,71,141.83
369,C6,106.0,1.0,91,141.83
370,E-3,106.0,0.5,60,141.83
371,C3,106.5,0.5,60,141.83
372,F#5,107.0,0.75,81,141.83
373,E-3,107.0,0.5,63,141.83
374,C3,107.5,0.25,60,141.83
375,G4,107.75,83/1000,70,141.83
376,B4,107.833,83/1000,70,141.83
377,D5,107.917,83/1000,70,141.83
378,G5,108.0,2.0,90,141.83
379,G2,108.0,0.5,66,141.83
380,B2,108.5,0.5,60,141.83
381,D3,109.0,0.5,60,141.83
382,G3,109.5,0.5,60,141.83
383,F5,110.0,271/1000,72,141.83
384,C3,110.0,0.5,63,141.83
385,E-5,110.25,271/1000,72,141.83
386,D5,110.5,271/1000,73,141.83
387,E-3,110.5,0.5,60,141.83
388,C5,110.75,0.25,76,141.83
389,G5,111.0,2.0,90,141.83
390,G2,111.0,0.5,66,141.83
391,B2,111.5,0.5,60,141.83
392,D3,112.0,0.5,60,141.83
393,G3,112.5,0.5,60,141.83
394,F5,113.0,271/1000,72,141.83
395,C3,113.0,0.5,63,141.83
396,E-5,113.25,271/1000,72,141.83
397,D5,113.5,271/1000,73,141.83
398,E-3,113.5,0.5,60,141.83
399,C5,113.75,0.25,76,141.83
400,G5,114.0,1.5,90,141.83
401,G2,114.0,1.5,72,141.83
402,G3,114.0,1.5,72,141.83
403,G#5,115.5,271/1000,79,141.83
404,G#3,115.5,271/1000,63,141.83
405,G5,115.75,271/1000,78,141.83
406,G3,115.75,271/1000,62,141.83
407,F5,116.0,271/1000,76,141.83
408,F3,116.0,271/1000,60,141.83
409,E-5,116.25,271/1000,75,141.83
410,E-3,116.25,271/1000,60,141.83
411,D5,116.5,271/1000,74,141.83
412,D3,116.5,271/1000,59,141.83
413,C5,116.75,0.25,72,141.83
414,C3,116.75,0.25,57,141.83
415,G5,117.0,0.25,79,141.83
416,C5,117.0,21/1000,72,141.83
417,G3,117.0,0.25,63,141.83
418,C3,117.0,21/1000,57,141.83
419,G4,118.0,0.25,72,141.83
420,G2,118.0,0.25,57,141.83
421,C3,119.625,0.125,35,141.83
422,G3,119.75,0.125,35,141.83
423,G4,119.875,0.125,41,141.83
424,E5,120.0,0.25,45,141.83
425,C4,120.0,1.0,35,141.83
426,E5,121.0,0.25,43,141.83
427,E5,122.0,0.25,43,141.83
428,G3,122.625,0.125,34,141.83
429,D4,122.75,0.125,34,141.83
430,B4,122.875,0.125,42,141.83
431,G5,123.0,1.5,45,141.83
432,F4,123.0,1.0,35,141.83
433,F5,124.5,0.5,41,141.83
434,D5,125.0,1.0,41,141.83
435,E4,126.0,1.0,45,141.83
436,D5,126.0,0.5,45,141.83
437,C3,126.0,1.0,35,141.83
438,C5,126.5,0.5,41,141.83
439,E3,127.0,1.0,31,141.83
440,C5,127.0,1.5,45,141.83
441,G4,127.0,1.5,45,141.83
442,G3,128.0,1.0,31,141.83
443,B4,128.5,0.5,45,141.83
444,D5,128.5,0.5,45,141.83
445,C4,129.0,1.0,35,141.83
446,D5,129.0,2.0,49,141.83
447,B4,129.0,2.0,49,141.83
448,C3,130.0,1.0,31,141.83
449,C5,131.0,1.0,45,141.83
450,E5,131.0,1.0,45,141.83
451,F5,132.0,1.5,45,141.83
452,A3,132.0,2.0,35,141.83
453,C4,133.0,1.0,33,141.83
454,F4,133.0,1.0,33,141.83
455,G5,133.5,0.125,46,141.83
456,F5,133.625,0.125,42,141.83
457,E5,133.75,0.125,42,141.83
458,F5,133.875,83/1000,45,141.83
459,G5,134.0,0.5,49,141.83
460,A5,134.5,123/250,47,141.83
461,A5,135.0,0.5,55,141.83
462,B3,135.0,2.0,38,141.83
463,G5,135.5,0.5,49,141.83
464,F#5,136.0,0.5,52,141.83
465,G4,136.0,1.0,35,141.83
466,D4,136.0,1.0,35,141.83
467,G5,136.5,0.5,45,141.83
468,F5,137.0,0.5,50,141.83
469,D5,137.5,0.5,45,141.83
470,E-5,138.0,0.5,49,141.83
471,C4,138.0,1.0,41,141.83
472,E5,138.5,0.5,45,141.83
473,F5,139.0,0.5,50,141.83
474,A3,139.0,1.0,37,141.83
475,C4,139.0,1.0,37,141.83
476,E5,139.5,0.5,45,141.83
477,G5,140.0,0.5,49,141.83
478,F3,140.0,1.0,35,141.83
479,D4,140.0,1.0,35,141.83
480,F5,140.5,0.5,45,141.83
481,E5,141.0,0.5,52,141.83
482,G3,141.0,1.0,41,141.83
483,B3,141.0,1.0,41,141.83
484,D5,141.5,0.5,45,141.83
485,C5,142.0,0.5,48,141.83
486,B4,142.5,0.5,45,141.83
487,A4,143.0,0.5,46,141.83
488,G4,143.5,0.5,45,141.83
489,E-5,144.0,0.5,49,141.83
490,C4,144.0,333/1000,39,141.83
491,E4,144.333,333/1000,31,141.83
492,E5,144.5,0.5,42,141.83
493,G4,144.667,333/1000,31,141.83
494,E-5,145.0,0.5,49,141.83
495,C4,145.0,333/1000,39,141.83
496,E4,145.333,333/1000,32,141.83
497,E5,145.5,0.5,41,141.83
498,G4,145.667,333/1000,32,141.83
499,E-5,146.0,0.5,52,141.83
500,C4,146.0,333/1000,40,141.83
501,E4,146.333,333/1000,32,141.83
502,E5,146.5,0.5,48,141.83
503,G4,146.667,333/1000,32,141.83
504,F#5,147.0,0.5,58,141.83
505,B3,147.0,333/1000,43,141.83
506,D4,147.333,333/1000,36,141.83
507,G5,147.5,0.5,53,141.83
508,G4,147.667,333/1000,35,141.83
509,F#5,148.0,0.5,58,141.83
510,B3,148.0,333/1000,40,141.83
511,D4,148.333,333/1000,33,141.83
512,G5,148.5,0.5,46,141.83
513,G4,148.667,333/1000,29,141.83
514,F5,149.0,0.5,46,141.83
515,B3,149.0,333/1000,37,141.83
516,F4,149.333,333/1000,29,141.83
517,D5,149.5,0.5,37,141.83
518,G4,149.667,333/1000,29,141.83
519,D5,150.0,0.5,45,141.83
520,C4,150.0,1.0,32,141.83
521,E4,150.0,1.0,32,141.83
522,C5,150.5,0.5,41,141.83
523,D5,151.0,0.5,45,141.83
524,G4,151.0,1.0,41,141.83
525,E3,151.0,1.0,31,141.83
526,C5,151.5,0.5,41,141.83
527,B4,152.0,1.0,41,141.83
528,E5,152.0,0.5,45,141.83
529,G3,152.0,1.0,31,141.83
530,D5,152.5,0.5,45,141.83
531,B4,153.0,2.0,49,141.83
532,D5,153.0,1.5,49,141.83
533,C4,153.0,1.0,35,141.83
534,G3,154.0,1.0,31,141.83
535,E-5,154.5,0.5,49,141.83
536,C3,155.0,1.0,31,141.83
537,E5,155.0,1.0,45,141.83
538,C5,155.0,1.0,45,141.83
539,F5,156.0,1.5,45,141.83
540,A3,156.0,0.5,35,141.83
541,C4,156.5,0.5,31,141.83
542,F4,157.0,0.5,32,141.83
543,G5,157.5,0.125,46,141.83
544,C4,157.5,0.5,33,141.83
545,F5,157.625,0.125,42,141.83
546,E5,157.75,0.125,42,141.83
547,F5,157.875,83/1000,45,141.83
548,G5,158.0,0.5,49,141.83
549,A3,158.0,0.5,35,141.83
550,A5,158.5,0.5,47,141.83
551,C4,158.5,0.5,38,141.83
552,A5,159.0,0.5,55,141.83
553,B3,159.0,0.5,40,141.83
554,G5,159.5,0.5,49,141.83
555,D4,159.5,0.5,35,141.83
556,F#5,160.0,0.5,52,141.83
557,G4,160.0,0.5,42,141.83
558,G5,160.5,0.5,45,141.83
559,D4,160.5,0.5,35,141.83
560,F5,161.0,0.5,50,141.83
561,B3,161.0,0.5,35,141.83
562,D5,161.5,0.5,45,141.83
563,D4,161.5,0.5,34,141.83
564,E-5,162.0,0.5,49,141.83
565,C4,162.0,1.0,41,141.83
566,E5,162.5,0.5,45,141.83
567,G5,163.0,0.5,50,141.83
568,F3,163.0,1.0,37,141.83
569,D4,163.0,1.0,37,141.83
570,F5,163.5,0.5,45,141.83
571,D5,164.0,0.5,49,141.83
572,G3,164.0,1.0,35,141.83
573,F4,164.0,1.0,35,141.83
574,B4,164.5,0.5,45,141.83
575,C5,165.0,0.5,52,141.83
576,E4,165.0,1.0,34,141.83
577,C4,165.0,1.0,34,141.83
578,G4,165.5,0.5,34,141.83
579,E4,166.0,1.0,40,141.83
580,G4,166.5,0.25,34,141.83
581,C4,167.0,1.0,37,141.83
582,G4,167.5,0.25,34,141.83
583,D4,168.0,1.0,40,141.83
584,F4,168.0,0.25,37,141.83
585,G4,168.0,0.25,37,141.83
586,G4,168.5,0.25,30,141.83
587,F4,168.5,0.25,30,141.83
588,B3,169.0,1.0,38,141.83
589,F4,169.5,0.25,30,141.83
590,G4,169.5,0.25,30,141.83
591,G3,170.0,1.0,38,141.83
592,G4,170.5,0.25,30,141.83
593,F4,170.5,0.25,30,141.83
594,C3,171.0,1.0,40,141.83
595,E-4,171.0,0.25,37,141.83
596,G4,171.0,0.25,37,141.83
597,E-4,171.5,0.25,31,141.83
598,G4,171.5,0.25,31,141.83
599,E-3,172.0,1.0,40,141.83
600,E-4,172.5,0.25,31,141.83
601,G4,172.5,0.25,31,141.83
602,C3,173.0,1.0,37,141.83
603,G4,173.5,0.25,31,141.83
604,E-4,173.5,0.25,31,141.83
605,D3,174.0,1.0,40,141.83
606,G4,174.0,0.25,37,141.83
607,F4,174.0,0.25,37,141.83
608,G4,174.5,0.25,30,141.83
609,F4,174.5,0.25,30,141.83
610,B2,175.0,1.0,38,141.83
611,G4,175.5,0.25,30,141.83
612,F4,175.5,0.25,30,141.83
613,G2,176.0,1.0,38,141.83
614,F4,176.5,0.25,30,141.83
615,G4,176.5,0.25,30,141.83
616,G4,177.0,0.25,63,141.83
617,E-4,177.0,0.25,63,141.83
618,C2,177.0,1.0,64,141.83
619,C3,177.0,1.0,64,141.83
620,E-4,177.5,0.25,50,141.83
621,G4,177.5,0.25,50,141.83
622,E-3,178.0,1.0,40,141.83
623,G4,178.5,0.25,33,141.83
624,E-4,178.5,0.25,33,141.83
625,G3,179.0,1.0,40,141.83
626,G4,179.5,0.25,33,141.83
627,E-4,179.5,0.25,33,141.83
628,G#4,180.0,0.25,63,141.83
629,E-4,180.0,0.25,63,141.83
630,F3,180.0,1.0,64,141.83
631,F2,180.0,1.0,64,141.83
632,E-4,180.5,0.25,50,141.83
633,G#4,180.5,0.25,50,141.83
634,G#3,181.0,1.0,40,141.83
635,E-4,181.5,0.25,33,141.83
636,G#4,181.5,0.25,33,141.83
637,C4,182.0,1.0,40,141.83
638,G#4,182.5,0.25,33,141.83
639,E-4,182.5,0.25,33,141.83
640,D4,183.0,0.25,63,141.83
641,G#4,183.0,0.25,63,141.83
642,B-2,183.0,1.0,64,141.83
643,B-1,183.0,1.0,64,141.83
644,G#4,183.5,0.25,50,141.83
645,D4,183.5,0.25,50,141.83
646,D3,184.0,1.0,40,141.83
647,G#4,184.5,0.25,33,141.83
648,D4,184.5,0.25,33,141.83
649,F3,185.0,1.0,40,141.83
650,D4,185.5,0.25,33,141.83
651,G#4,185.5,0.25,33,141.83
652,D4,186.0,0.25,63,141.83
653,G4,186.0,0.25,63,141.83
654,E-2,186.0,1.0,64,141.83
655,E-3,186.0,1.0,64,141.83
656,G4,186.5,0.25,50,141.83
657,D4,186.5,0.25,50,141.83
658,G3,187.0,1.0,40,141.83
659,D4,187.5,0.25,33,141.83
660,G4,187.5,0.25,33,141.83
661,B-3,188.0,1.0,40,141.83
662,G4,188.5,0.25,33,141.83
663,D4,188.5,0.25,33,141.83
664,C4,189.0,0.25,63,141.83
665,G4,189.0,0.25,63,141.83
666,G#1,189.0,1.0,64,141.83
667,G#2,189.0,1.0,64,141.83
668,C4,189.5,0.25,50,141.83
669,G4,189.5,0.25,50,141.83
670,G#3,190.0,1.0,40,141.83
671,C4,190.5,0.25,33,141.83
672,G4,190.5,0.25,33,141.83
673,C4,191.0,0.25,63,141.83
674,F4,191.0,0.25,63,141.83
675,D3,191.0,1.0,64,141.83
676,D2,191.0,1.0,64,141.83
677,F4,191.5,0.25,50,141.83
678,C4,191.5,0.25,50,141.83
679,D4,192.0,1.0,40,141.83
680,C4,192.5,0.25,33,141.83
681,F4,192.5,0.25,33,141.83
682,F4,193.0,0.25,63,141.83
683,B3,193.0,0.25,63,141.83
684,G1,193.0,1.0,64,141.83
685,G2,193.0,1.0,64,141.83
686,B3,193.5,0.25,50,141.83
687,F4,193.5,0.25,50,141.83
688,G3,194.0,1.0,40,141.83
689,B3,194.5,0.25,33,141.83
690,F4,194.5,0.25,33,141.83
691,G#3,195.0,1.0,45,141.83
692,E-4,195.5,0.25,33,141.83
693,C4,195.5,0.25,33,141.83
694,G3,196.0,1.0,39,141.83
695,E-4,196.5,0.25,33,141.83
696,C4,196.5,0.25,33,141.83
697,F#3,197.0,1.0,39,141.83
698,C4,197.5,0.25,33,141.83
699,E-4,197.5,0.25,33,141.83
700,G3,198.0,1.0,44,141.83
701,B3,198.0,0.5,35,141.83
702,D4,198.0,0.5,35,141.83
703,E-4,198.5,521/1000,34,141.83
704,G4,198.5,521/1000,34,141.83
705,F4,199.0,521/1000,30,141.83
706,D4,199.0,521/1000,30,141.83
707,C4,199.5,521/1000,28,141.83
708,E-4,199.5,521/1000,28,141.83
709,B3,200.0,521/1000,30,141.83
710,D4,200.0,521/1000,30,141.83
711,F#3,200.5,0.5,41,141.83
712,E-4,200.5,0.5,28,141.83
713,C4,200.5,0.5,28,141.83
714,G3,201.0,1.0,44,141.83
715,B3,201.0,0.5,35,141.83
716,D4,201.0,0.5,35,141.83
717,E-4,201.0,21/1000,28,141.83
718,C4,201.0,21/1000,28,141.83
719,G4,201.5,521/1000,34,141.83
720,E-4,201.5,521/1000,34,141.83
721,D4,202.0,521/1000,30,141.83
722,F4,202.0,521/1000,30,141.83
723,C4,202.5,521/1000,28,141.83
724,E-4,202.5,521/1000,28,141.83
725,D4,203.0,521/1000,30,141.83
726,B3,203.0,521/1000,30,141.83
727,F#3,203.5,0.5,32,141.83
728,C4,203.5,0.5,28,141.83
729,E-4,203.5,0.5,28,141.83
730,G3,204.0,521/1000,39,141.83
731,F#3,204.0,21/1000,32,141.83
732,D4,204.0,521/1000,34,141.83
733,B3,204.0,521/1000,34,141.83
734,C4,204.0,21/1000,28,141.83
735,E-4,204.0,21/1000,28,141.83
736,F#3,204.5,521/1000,35,141.83
737,E-4,204.5,521/1000,30,141.83
738,C4,204.5,521/1000,30,141.83
739,G3,205.0,521/1000,39,141.83
740,B3,205.0,521/1000,34,141.83
741,D4,205.0,521/1000,34,141.83
742,F#3,205.5,521/1000,31,141.83
743,C4,205.5,521/1000,31,141.83
744,E-4,205.5,521/1000,31,141.83
745,G3,206.0,521/1000,39,141.83
746,D4,206.0,521/1000,34,141.83
747,B3,206.0,521/1000,34,141.83
748,F#3,206.5,0.5,32,141.83
749,E-4,206.5,0.5,31,141.83
750,C4,206.5,0.5,31,141.83
751,G3,207.0,1.0,38,141.83
752,F#3,207.0,21/1000,32,141.83
753,B3,207.0,0.5,34,141.83
754,D4,207.0,0.5,34,141.83
755,E-4,207.0,21/1000,31,141.83
756,C4,207.0,21/1000,31,141.83
757,C#4,207.5,521/1000,33,141.83
758,B-3,207.5,521/1000,33,141.83
759,B3,208.0,521/1000,35,141.83
760,D4,208.0,521/1000,35,141.83
761,E4,208.5,521/1000,36,141.83
762,C#4,208.5,521/1000,36,141.83
763,F4,209.0,521/1000,38,141.83
764,D4,209.0,521/1000,38,141.83
765,G4,209.5,0.5,40,141.83
766,E4,209.5,0.5,40,141.83
767,F3,210.0,1.0,33,141.83
768,A4,210.0,1.0,38,141.83
769,F4,210.0,1.0,38,141.83
770,G4,210.0,21/1000,40,141.83
771,E4,210.0,21/1000,40,141.83
772,F3,211.0,1.0,31,141.83
773,C4,211.0,1.0,36,141.83
774,F4,211.0,1.0,36,141.83
775,A4,211.0,1.0,36,141.83
776,F3,212.0,1.0,31,141.83
777,F4,212.0,1.0,36,141.83
778,A4,212.0,1.0,36,141.83
779,C4,212.0,1.0,36,141.83
780,C4,213.0,3.0,35,141.83
781,F3,213.0,2.0,33,141.83
782,A4,213.0,2.0,38,141.83
783,F4,213.0,2.0,38,141.83
784,C3,215.0,1.0,31,141.83
785,E4,215.0,1.0,31,141.83
786,G4,215.0,1.0,31,141.83
787,G4,216.0,0.5,42,141.83
788,G2,216.0,1.0,33,141.83
789,B3,216.0,1.0,35,141.83
790,D4,216.0,1.0,35,141.83
791,F4,216.5,0.5,38,141.83
792,G2,217.0,1.0,30,141.83
793,F4,217.0,1.0,37,141.83
794,B3,217.0,1.0,37,141.83
795,D4,217.0,1.0,37,141.83
796,G2,218.0,1.0,30,141.83
797,F4,218.0,1.0,34,141.83
798,D4,218.0,1.0,34,141.83
799,B3,218.0,1.0,34,141.83
800,G2,219.0,2.0,33,141.83
801,B3,219.0,2.0,37,141.83
802,D4,219.0,2.0,37,141.83
803,F4,219.0,2.0,37,141.83
804,A2,221.0,1.0,30,141.83
805,E4,221.0,1.0,36,141.83
806,C4,221.0,1.0,36,141.83
807,F2,222.0,1.0,33,141.83
808,G4,222.0,0.5,38,141.83
809,E4,222.0,0.5,38,141.83
810,F4,222.5,0.5,34,141.83
811,D4,222.5,0.5,34,141.83
812,G2,223.0,1.0,32,141.83
813,C4,223.0,1.0,38,141.83
814,E4,223.0,1.0,38,141.83
815,G2,224.0,1.0,32,141.83
816,B3,224.0,1.0,33,141.83
817,D4,224.0,1.0,33,141.83
818,C3,225.0,1.0,33,141.83
819,C4,225.0,0.5,38,141.83
820,E4,225.0,0.5,38,141.83
821,C5,225.5,229/500,35,141.83
822,D5,226.0,229/500,37,141.83
823,E5,226.5,229/500,38,141.83
824,F5,227.0,229/500,40,141.83
825,G5,227.5,229/500,41,141.83
826,A5,228.0,1.0,46,141.83
827,C4,228.0,1.0,30,141.83
828,F4,228.0,1.0,30,141.83
829,A5,229.0,1.0,44,141.83
830,C4,229.0,1.0,28,141.83
831,F4,229.0,1.0,28,141.83
832,A5,230.0,1.0,44,141.83
833,F4,230.0,1.0,28,141.83
834,C4,230.0,1.0,28,141.83
835,A5,231.0,1.5,46,141.83
836,F4,231.0,2.0,33,141.83
837,C4,231.0,3.0,28,141.83
838,B5,232.5,0.25,39,141.83
839,A5,232.75,0.25,39,141.83
840,G5,233.0,1.0,46,141.83
841,E4,233.0,1.0,31,141.83
842,G5,234.0,0.5,46,141.83
843,B4,234.0,1.0,35,141.83
844,G3,234.0,1.0,30,141.83
845,D4,234.0,1.0,30,141.83
846,F5,234.5,0.5,41,141.83
847,B4,235.0,1.0,40,141.83
848,F5,235.0,1.0,40,141.83
849,D4,235.0,1.0,28,141.83
850,G3,235.0,1.0,28,141.83
851,F5,236.0,1.0,36,141.83
852,B4,236.0,1.0,36,141.83
853,D4,236.0,1.0,28,141.83
854,G3,236.0,1.0,28,141.83
855,B4,237.0,2.0,40,141.83
856,F5,237.0,2.0,40,141.83
857,G3,237.0,2.0,30,141.83
858,D4,237.0,2.0,30,141.83
859,E5,239.0,1.0,38,141.83
860,C5,239.0,1.0,38,141.83
861,C4,239.0,1.0,28,141.83
862,A3,239.0,1.0,28,141.83
863,F3,240.0,1.0,33,141.83
864,G5,240.0,0.5,40,141.83
865,E5,240.0,0.5,40,141.83
866,F5,240.5,0.5,36,141.83
867,D5,240.5,0.5,36,141.83
868,G3,241.0,1.0,32,141.83
869,E5,241.0,1.0,40,141.83
870,C5,241.0,1.0,40,141.83
871,F3,242.0,1.0,32,141.83
872,B4,242.0,1.0,34,141.83
873,D5,242.0,1.0,34,141.83
874,G5,243.0,0.25,63,141.83
875,E5,243.0,0.25,63,141.83
876,E2,243.0,0.5,64,141.83
877,E3,243.0,0.5,64,141.83
878,G5,243.5,0.25,50,141.83
879,E5,243.5,0.25,50,141.83
880,G#3,244.0,0.25,40,141.83
881,D5,244.5,0.25,33,141.83
882,F5,244.5,0.25,33,141.83
883,A3,245.0,0.25,40,141.83
884,C5,245.5,0.25,33,141.83
885,E5,245.5,0.25,33,141.83
886,F3,246.0,0.25,40,141.83
887,D5,246.5,0.25,33,141.83
888,F4,246.5,0.25,33,141.83
889,G3,247.0,0.25,40,141.83
890,C5,247.5,0.25,33,141.83
891,E4,247.5,0.25,33,141.83
892,F3,248.0,0.25,40,141.83
893,D4,248.5,0.25,33,141.83
894,B4,248.5,0.25,33,141.83
895,E2,249.0,0.25,75,141.83
896,E3,249.0,0.25,75,141.83
897,E5,249.25,0.25,72,141.83
898,G5,249.5,0.25,75,141.83
899,E5,249.75,0.25,72,141.83
900,G#2,250.0,0.25,73,141.83
901,G#3,250.0,0.25,73,141.83
902,D5,250.25,0.25,70,141.83
903,F5,250.5,0.25,75,141.83
904,D5,250.75,0.25,70,141.83
905,A3,251.0,0.25,73,141.83
906,A2,251.0,0.25,73,141.83
907,C5,251.25,0.25,72,141.83
908,E5,251.5,0.25,75,141.83
909,C5,251.75,0.25,71,141.83
910,F2,252.0,0.25,75,141.83
911,F3,252.0,0.25,75,141.83
912,F4,252.25,0.25,71,141.83
913,D5,252.5,0.25,75,141.83
914,F4,252.75,0.25,71,141.83
915,G3,253.0,0.25,73,141.83
916,G2,253.0,0.25,73,141.83
917,E4,253.25,0.25,71,141.83
918,C5,253.5,0.25,75,141.83
919,E4,253.75,0.25,71,141.83
920,G3,254.0,0.25,73,141.83
921,G2,254.0,0.25,73,141.83
922,D4,254.25,0.25,71,141.83
923,B4,254.5,0.25,75,141.83
924,D4,254.75,0.25,71,141.83
925,C3,255.0,0.25,64,141.83
926,E4,255.0,1.0,75,141.83
927,G4,255.0,1.0,75,141.83
928,C5,255.0,1.0,75,141.83
929,E3,255.25,0.25,59,141.83
930,G3,255.5,0.25,59,141.83
931,C4,255.75,0.25,59,141.83
932,C3,256.0,0.25,63,141.83
933,E3,256.25,0.25,58,141.83
934,G3,256.5,0.25,58,141.83
935,C4,256.75,0.25,58,141.83
936,E5,257.0,0.125,70,141.83
937,C3,257.0,0.25,63,141.83
938,F5,257.125,0.125,65,141.83
939,E5,257.25,0.125,70,141.83
940,E3,257.25,0.25,57,141.83
941,F5,257.375,0.125,66,141.83
942,E5,257.5,83/1000,70,141.83
943,G3,257.5,0.25,58,141.83
944,F5,257.583,83/1000,66,141.83
945,E5,257.667,83/1000,66,141.83
946,D5,257.75,0.125,70,141.83
947,C4,257.75,0.25,58,141.83
948,C5,257.875,0.125,66,141.83
949,G5,258.0,2.0,75,141.83
950,C3,258.0,0.25,63,141.83
951,E3,258.25,0.25,58,141.83
952,G3,258.5,0.25,59,141.83
953,C4,258.75,0.25,59,141.83
954,C3,259.0,0.25,63,141.83
955,E3,259.25,0.25,57,141.83
956,G3,259.5,0.25,57,141.83
957,C4,259.75,0.25,57,141.83
958,B5,260.0,0.125,70,141.83
959,C3,260.0,0.25,63,141.83
960,C6,260.125,0.125,66,141.83
961,B5,260.25,0.125,70,141.83
962,F3,260.25,0.25,57,141.83
963,C6,260.375,0.125,66,141.83
964,B5,260.5,83/1000,70,141.83
965,G3,260.5,0.25,57,141.83
966,C6,260.583,83/1000,65,141.83
967,B5,260.667,83/1000,66,141.83
968,A5,260.75,0.125,70,141.83
969,D4,260.75,0.25,57,141.83
970,G5,260.875,0.125,65,141.83
971,C6,261.0,2.0,75,141.83
972,C3,261.0,0.25,63,141.83
973,E3,261.25,0.25,57,141.83
974,G3,261.5,0.25,57,141.83
975,C4,261.75,0.25,57,141.83
976,C3,262.0,0.25,63,141.83
977,E3,262.25,0.25,57,141.83
978,G3,262.5,0.25,57,141.83
979,C4,262.75,0.25,57,141.83
980,E5,263.0,0.125,70,141.83
981,C3,263.0,0.25,63,141.83
982,F5,263.125,0.125,65,141.83
983,E5,263.25,0.125,70,141.83
984,E3,263.25,0.25,57,141.83
985,F5,263.375,0.125,66,141.83
986,E5,263.5,83/1000,70,141.83
987,G3,263.5,0.25,58,141.83
988,F5,263.583,83/1000,66,141.83
989,E5,263.667,83/1000,66,141.83
990,D5,263.75,0.125,70,141.83
991,C4,263.75,0.25,58,141.83
992,C5,263.875,0.125,66,141.83
993,G5,264.0,0.5,75,141.83
994,C3,264.0,0.25,63,141.83
995,E3,264.25,0.25,58,141.83
996,G3,264.5,0.25,59,141.83
997,C4,264.75,0.25,59,141.83
998,G5,265.0,0.5,75,141.83
999,C3,265.0,0.25,63,141.83
1000,E3,265.25,0.25,57,141.83
1001,G3,265.5,0.25,57,141.83
1002,C4,265.75,0.25,57,141.83
1003,B5,266.0,0.125,70,141.83
1004,C3,266.0,0.25,63,141.83
1005,C6,266.125,0.125,66,141.83
1006,B5,266.25,0.125,70,141.83
1007,F3,266.25,0.25,57,141.83
1008,C6,266.375,0.125,66,141.83
1009,B5,266.5,83/1000,70,141.83
1010,G3,266.5,0.25,57,141.83
1011,C6,266.583,83/1000,65,141.83
1012,B5,266.667,83/1000,66,141.83
1013,A5,266.75,0.125,70,141.83
1014,D4,266.75,0.25,57,141.83
1015,G5,266.875,0.125,65,141.83
1016,C6,267.0,0.25,75,141.83
1017,C4,267.0,0.25,63,141.83
1018,C3,267.0,0.25,63,141.83
1019,E3,267.0,0.25,63,141.83
1020,G3,267.0,0.25,63,141.83
1021,E6,268.0,1.5,88,141.83
1022,E4,268.0,1.5,64,141.83
1023,E3,268.0,1.5,64,141.83
1024,G#5,269.5,0.5,75,141.83
1025,G#3,269.5,0.5,63,141.83
1026,G#2,269.5,0.5,63,141.83
1027,A5,270.0,0.25,75,141.83
1028,A3,270.0,0.25,63,141.83
1029,A2,270.0,0.25,63,141.83
1030,C6,271.0,1.5,89,141.83
1031,C4,271.0,1.5,66,141.83
1032,C3,271.0,1.5,66,141.83
1033,E5,272.5,0.5,75,141.83
1034,E3,272.5,0.5,63,141.83
1035,F5,273.0,0.125,70,141.83
1036,F3,273.0,0.125,56,141.83
1037,G5,273.125,0.125,65,141.83
1038,G3,273.125,0.125,52,141.83
1039,F5,273.25,0.125,70,141.83
1040,F3,273.25,0.125,56,141.83
1041,G5,273.375,0.125,66,141.83
1042,G3,273.375,0.125,52,141.83
1043,F5,273.5,83/1000,70,141.83
1044,F3,273.5,83/1000,56,141.83
1045,G5,273.583,83/1000,66,141.83
1046,G3,273.583,83/1000,52,141.83
1047,F5,273.667,83/1000,66,141.83
1048,F3,273.667,83/1000,52,141.83
1049,E5,273.75,0.125,70,141.83
1050,E3,273.75,0.125,56,141.83
1051,D5,273.875,0.125,66,141.83
1052,D3,273.875,0.125,52,141.83
1053,G5,274.0,0.25,84,141.83
1054,G3,274.0,0.25,63,141.83
1055,G5,275.0,0.25,77,141.83
1056,D5,275.0,0.25,77,141.83
1057,B5,275.0,0.25,77,141.83
1058,G3,275.0,0.25,62,141.83
1059,G2,275.0,0.25,62,141.83
1060,C6,276.0,0.25,77,141.83
1061,E5,276.0,0.25,77,141.83
1062,G5,276.0,0.25,77,141.83
1063,C3,276.0,0.25,66,141.83
1064,C4,276.0,0.25,66,141.83
1065,C4,277.0,0.25,79,141.83
1066,C3,277.0,0.25,64,141.83
1067,C2,277.0,0.25,64,141.83
1068,F4,279.0,2.0,50,141.83
1069,F3,279.0,0.5,40,141.83
1070,A3,279.5,0.5,30,141.83
1071,C4,280.0,0.5,33,141.83
1072,A3,280.5,0.5,30,141.83
1073,A4,281.0,1.0,47,141.83
1074,C4,281.0,0.5,34,141.83
1075,A3,281.5,0.5,30,141.83
1076,C5,282.0,2.0,52,141.83
1077,F3,282.0,0.5,40,141.83
1078,C4,282.5,0.5,29,141.83
1079,E-4,283.0,0.5,31,141.83
1080,C4,283.5,0.5,27,141.83
1081,A4,284.0,1.0,46,141.83
1082,E-4,284.0,0.5,31,141.83
1083,C4,284.5,0.5,28,141.83
1084,B-4,285.0,2.0,50,141.83
1085,F3,285.0,0.5,40,141.83
1086,B-3,285.5,0.5,30,141.83
1087,D4,286.0,0.5,33,141.83
1088,B-3,286.5,0.5,30,141.83
1089,G5,287.0,1.0,47,141.83
1090,D4,287.0,0.5,33,141.83
1091,B-3,287.5,0.5,30,141.83
1092,F5,288.0,0.5,47,141.83
1093,F3,288.0,0.5,40,141.83
1094,E5,288.5,247/500,44,141.83
1095,G3,288.5,0.5,23,141.83
1096,E5,289.0,1.0,44,141.83
1097,B-3,289.0,0.5,28,141.83
1098,G3,289.5,0.5,24,141.83
1099,B-3,290.0,0.5,29,141.83
1100,G3,290.5,0.5,24,141.83
1101,F5,291.0,1.0,50,141.83
1102,A3,291.0,1.0,30,141.83
1103,F3,291.0,1.0,30,141.83
1104,A4,292.0,1.0,46,141.83
1105,D5,293.0,1.0,46,141.83
1106,G4,294.0,1.0,50,141.83
1107,C5,295.0,1.5,54,141.83
1108,A4,296.5,0.5,45,141.83
1109,F4,297.0,3.0,50,141.83
1110,F3,297.0,1.0,47,141.83
1111,A2,298.0,1.0,44,141.83
1112,D3,299.0,1.0,48,141.83
1113,G4,300.0,3.0,50,141.83
1114,F4,300.0,1.0,50,141.83
1115,G2,300.0,1.0,48,141.83
1116,E4,301.0,0.125,42,141.83
1117,C3,301.0,1.5,49,141.83
1118,F4,301.125,0.125,37,141.83
1119,E4,301.25,0.25,48,141.83
1120,D4,301.5,0.5,48,141.83
1121,E4,302.0,1.0,50,141.83
1122,A2,302.5,0.5,47,141.83
1123,A4,303.0,1.0,48,141.83
1124,F4,303.0,3.0,48,141.83
1125,F2,303.0,1.0,52,141.83
1126,B-4,304.0,1.0,52,141.83
1127,D3,304.0,1.0,40,141.83
1128,D5,305.0,497/500,55,141.83
1129,B-2,305.0,1.0,44,141.83
1130,D5,306.0,0.5,58,141.83
1131,F4,306.0,1.0,48,141.83
1132,A2,306.0,1.0,47,141.83
1133,C5,306.5,0.5,57,141.83
1134,B-4,307.0,0.5,56,141.83
1135,A4,307.5,0.5,54,141.83
1136,G4,308.0,0.5,53,141.83
1137,D3,308.0,1.0,40,141.83
1138,F4,308.5,0.5,51,141.83
1139,G4,309.0,1.0,54,141.83
1140,B-2,309.0,1.0,40,141.83
1141,B-4,310.0,0.25,50,141.83
1142,C3,311.0,1.0,41,141.83
1143,E4,311.0,1.0,54,141.83
1144,B-3,311.0,1.0,54,141.83
1145,F2,312.0,1.0,43,141.83
1146,F4,312.0,1.0,56,141.83
1147,A3,312.0,1.0,56,141.83
1148,C6,314.0,0.75,50,141.83
1149,A4,314.0,0.75,36,141.83
1150,C5,314.0,0.75,36,141.83
1151,B-5,314.75,0.25,44,141.83
1152,G4,314.75,0.25,32,141.83
1153,B-4,314.75,0.25,32,141.83
1154,A5,315.0,0.25,50,141.83
1155,A4,315.0,0.25,36,141.83
1156,F4,315.0,0.25,36,141.83
1157,A5,316.0,0.25,50,141.83
1158,A4,316.0,0.25,36,141.83
1159,F4,316.0,0.25,36,141.83
1160,A5,317.0,0.75,47,141.83
1161,F4,317.0,0.75,33,141.83
1162,A4,317.0,0.75,33,141.83
1163,G5,317.75,0.25,42,141.83
1164,C4,317.75,0.25,30,141.83
1165,G4,317.75,0.25,30,141.83
1166,F5,318.0,0.25,48,141.83
1167,F4,318.0,0.25,34,141.83
1168,A3,318.0,0.25,34,141.83
1169,F5,319.0,0.25,44,141.83
1170,A3,319.0,0.25,32,141.83
1171,F4,319.0,0.25,32,141.83
1172,F5,320.0,1.0,44,141.83
1173,A3,320.0,1.0,32,141.83
1174,F4,320.0,1.0,32,141.83
1175,E5,321.0,0.25,46,141.83
1176,G5,321.0,0.25,46,141.83
1177,G4,321.0,0.25,32,141.83
1178,C4,321.0,0.25,32,141.83
1179,G5,322.0,0.25,44,141.83
1180,E5,322.0,0.25,44,141.83
1181,G4,322.0,0.25,32,141.83
1182,C4,322.0,0.25,32,141.83
1183,G5,323.0,0.25,44,141.83
1184,E5,323.0,0.25,44,141.83
1185,C4,323.0,0.25,32,141.83
1186,G4,323.0,0.25,32,141.83
1187,G5,324.0,1.0,50,141.83
1188,E5,324.0,1.0,50,141.83
1189,C4,324.0,1.0,36,141.83
1190,G4,324.0,1.0,36,141.83
1191,A5,325.0,1.0,44,141.83
1192,F5,325.0,1.0,44,141.83
1193,A4,325.0,1.0,32,141.83
1194,F4,325.0,1.0,32,141.83
1195,C6,326.0,0.25,50,141.83
1196,A4,326.0,0.75,36,141.83
1197,C5,326.0,0.75,36,141.83
1198,D6,326.25,0.25,44,141.83
1199,C6,326.5,0.25,44,141.83
1200,B-5,326.75,0.25,44,141.83
1201,G4,326.75,0.25,32,141.83
1202,B-4,326.75,0.25,32,141.83
1203,A5,327.0,0.25,50,141.83
1204,F4,327.0,0.25,36,141.83
1205,A4,327.0,0.25,36,141.83
1206,A5,328.0,0.25,50,141.83
1207,F4,328.0,0.25,36,141.83
1208,A4,328.0,0.25,36,141.83
1209,A5,329.0,0.25,47,141.83
1210,F4,329.0,0.75,33,141.83
1211,A4,329.0,0.75,33,141.83
1212,B-5,329.25,0.25,42,141.83
1213,A5,329.5,0.25,42,141.83
1214,G5,329.75,0.25,42,141.83
1215,C4,329.75,0.25,30,141.83
1216,G4,329.75,0.25,30,141.83
1217,F5,330.0,0.25,48,141.83
1218,A3,330.0,0.25,34,141.83
1219,F4,330.0,0.25,34,141.83
1220,F5,331.0,0.25,44,141.83
1221,F4,331.0,0.25,32,141.83
1222,A3,331.0,0.25,32,141.83
1223,F5,332.0,0.25,44,141.83
1224,A3,332.0,0.25,32,141.83
1225,F4,332.0,0.25,32,141.83
1226,G5,333.0,1.0,49,141.83
1227,G4,333.0,1.0,33,141.83
1228,C4,333.0,1.0,33,141.83
1229,B-5,334.0,0.25,44,141.83
1230,B-4,335.0,1.0,40,141.83
1231,E5,335.0,1.0,40,141.83
1232,C4,335.0,1.0,32,141.83
1233,G4,335.0,1.0,32,141.83
1234,F4,336.0,1.0,39,141.83
1235,F5,336.0,1.0,43,141.83
1236,A4,336.0,1.0,43,141.83
1237,C6,338.0,1.0,44,141.83
1238,E4,338.0,1.0,30,141.83
1239,C4,338.0,1.0,30,141.83
1240,B-4,338.0,1.0,30,141.83
1241,F5,339.0,1.0,48,141.83
1242,A4,339.0,1.0,35,141.83
1243,F4,339.0,1.0,35,141.83
1244,C5,341.0,1.0,39,141.83
1245,B-3,341.0,1.0,27,141.83
1246,E3,341.0,1.0,27,141.83
1247,C3,341.0,1.0,27,141.83
1248,F4,342.0,1.0,43,141.83
1249,F3,342.0,1.0,31,141.83
1250,A3,342.0,1.0,31,141.83
1251,C#4,344.0,1.0,80,141.83
1252,C#2,344.0,1.0,56,141.83
1253,C#3,344.0,1.0,56,141.83
1254,D4,345.0,1.5,85,141.83
1255,D3,345.0,0.5,61,141.83
1256,D2,345.0,0.5,61,141.83
1257,F3,345.5,0.5,60,141.83
1258,A3,346.0,0.5,60,141.83
1259,F4,346.5,0.25,70,141.83
1260,F3,346.5,0.5,60,141.83
1261,A4,346.75,0.25,72,141.83
1262,D5,347.0,0.25,84,141.83
1263,A3,347.0,0.5,63,141.83
1264,A4,347.5,0.25,71,141.83
1265,F3,347.5,0.5,60,141.83
1266,D5,347.75,0.25,73,141.83
1267,F5,348.0,0.25,86,141.83
1268,D3,348.0,0.5,65,141.83
1269,D5,348.5,0.25,71,141.83
1270,F3,348.5,0.5,60,141.83
1271,F5,348.75,0.25,73,141.83
1272,A5,349.0,0.25,87,141.83
1273,A3,349.0,0.5,63,141.83
1274,A5,349.5,0.5,80,141.83
1275,F3,349.5,0.5,60,141.83
1276,F5,350.0,0.5,80,141.83
1277,A3,350.0,0.5,60,141.83
1278,D5,350.5,0.25,80,141.83
1279,F3,350.5,0.5,62,141.83
1280,C#5,350.75,83/1000,70,141.83
1281,E5,350.833,83/1000,70,141.83
1282,G5,350.917,83/1000,70,141.83
1283,B-5,351.0,1.5,90,141.83
1284,E3,351.0,0.25,66,141.83
1285,E2,351.0,0.25,66,141.83
1286,G3,352.0,0.25,63,141.83
1287,E3,352.0,0.25,63,141.83
1288,B-3,352.0,0.25,63,141.83
1289,C#4,352.0,0.25,63,141.83
1290,A5,352.5,11/40,71,141.83
1291,G5,352.75,11/40,68,141.83
1292,F5,353.0,11/40,68,141.83
1293,E5,353.25,11/40,68,141.83
1294,D5,353.5,11/40,69,141.83
1295,C#5,353.75,0.25,72,141.83
1296,B-5,354.0,1.5,90,141.83
1297,C#5,354.0,1/40,72,141.83
1298,E3,354.0,0.25,66,141.83
1299,E2,354.0,0.25,66,141.83
1300,B-3,355.0,0.25,63,141.83
1301,C#4,355.0,0.25,63,141.83
1302,E3,355.0,0.25,63,141.83
1303,G3,355.0,0.25,63,141.83
1304,A5,355.5,11/40,71,141.83
1305,G5,355.75,11/40,68,141.83
1306,F5,356.0,11/40,68,141.83
1307,E5,356.25,11/40,68,141.83
1308,D5,356.5,11/40,69,141.83
1309,C#5,356.75,0.25,72,141.83
1310,D5,357.0,1.5,88,141.83
1311,C#5,357.0,1/40,72,141.83
1312,F3,357.0,0.5,66,141.83
1313,A3,357.5,0.5,60,141.83
1314,D4,358.0,0.5,60,141.83
1315,F4,358.5,0.25,70,141.83
1316,A3,358.5,0.5,60,141.83
1317,A4,358.75,0.25,72,141.83
1318,D5,359.0,0.25,84,141.83
1319,D4,359.0,0.5,63,141.83
1320,A4,359.5,0.25,71,141.83
1321,A3,359.5,0.5,60,141.83
1322,D5,359.75,0.25,73,141.83
1323,F5,360.0,0.25,86,141.83
1324,F3,360.0,0.5,65,141.83
1325,D5,360.5,0.25,71,141.83
1326,A3,360.5,0.5,60,141.83
1327,F5,360.75,0.25,73,141.83
1328,A5,361.0,0.25,87,141.83
1329,D4,361.0,0.5,63,141.83
1330,A5,361.5,0.5,80,141.83
1331,A3,361.5,0.5,60,141.83
1332,F5,362.0,0.5,80,141.83
1333,D4,362.0,0.5,60,141.83
1334,D5,362.5,0.5,80,141.83
1335,A3,362.5,0.5,62,141.83
1336,B4,363.0,1.5,79,141.83
1337,G#5,363.0,1.5,79,141.83
1338,D5,363.0,1.5,79,141.83
1339,F5,363.0,1.5,79,141.83
1340,D2,363.0,0.25,66,141.83
1341,D3,363.0,0.25,66,141.83
1342,B3,364.0,0.25,63,141.83
1343,G#3,364.0,0.25,63,141.83
1344,D3,364.0,0.25,63,141.83
1345,F3,364.0,0.25,63,141.83
1346,G5,364.5,11/40,71,141.83
1347,F5,364.75,11/40,68,141.83
1348,E-5,365.0,11/40,68,141.83
1349,D5,365.25,11/40,68,141.83
1350,C5,365.5,11/40,69,141.83
1351,B4,365.75,0.25,72,141.83
1352,G#5,366.0,1.5,90,141.83
1353,B4,366.0,1/40,72,141.83
1354,D2,366.0,0.25,66,141.83
1355,D3,366.0,0.25,66,141.83
1356,F3,367.0,0.25,63,141.83
1357,D3,367.0,0.25,63,141.83
1358,B3,367.0,0.25,63,141.83
1359,G#3,367.0,0.25,63,141.83
1360,G5,367.5,11/40,71,141.83
1361,F5,367.75,11/40,68,141.83
1362,E-5,368.0,11/40,68,141.83
1363,D5,368.25,11/40,68,141.83
1364,C5,368.5,11/40,69,141.83
1365,B4,368.75,0.25,72,141.83
1366,C5,369.0,1.25,88,141.83
1367,B4,369.0,1/40,72,141.83
1368,E-3,369.0,0.5,66,141.83
1369,G3,369.5,0.5,60,141.83
1370,C4,370.0,0.5,60,141.83
1371,G4,370.25,0.25,69,141.83
1372,C5,370.5,0.25,74,141.83
1373,G3,370.5,0.5,60,141.83
1374,G4,370.75,0.25,70,141.83
1375,E-5,371.0,0.25,74,141.83
1376,C4,371.0,0.5,63,141.83
1377,C5,371.25,0.25,71,141.83
1378,E-5,371.5,0.25,75,141.83
1379,G3,371.5,0.5,60,141.83
1380,C5,371.75,0.25,70,141.83
1381,G5,372.0,0.25,74,141.83
1382,E-3,372.0,0.5,66,141.83
1383,E-5,372.25,0.25,71,141.83
1384,G5,372.5,0.25,74,141.83
1385,G3,372.5,0.5,60,141.83
1386,E-5,372.75,0.25,71,141.83
1387,C6,373.0,0.5,91,141.83
1388,C4,373.0,0.5,60,141.83
1389,G3,373.5,0.5,60,141.83
1390,C4,374.0,0.5,63,141.83
1391,G3,374.5,0.5,60,141.83
1392,C5,375.0,1.25,88,141.83
1393,C3,375.0,0.5,66,141.83
1394,E-3,375.5,0.5,60,141.83
1395,G#3,376.0,0.5,60,141.83
1396,G#4,376.25,0.25,69,141.83
1397,C5,376.5,0.25,74,141.83
1398,E-3,376.5,0.5,60,141.83
1399,G#4,376.75,0.25,70,141.83
1400,E-5,377.0,0.25,74,141.83
1401,G#3,377.0,0.5,63,141.83
1402,C5,377.25,0.25,71,141.83
1403,E-5,377.5,0.25,75,141.83
1404,E-3,377.5,0.5,60,141.83
1405,C5,377.75,0.25,70,141.83
1406,G#5,378.0,0.25,74,141.83
1407,C3,378.0,0.5,66,141.83
1408,E-5,378.25,0.25,71,141.83
1409,G#5,378.5,0.25,74,141.83
1410,E-3,378.5,0.5,60,141.83
1411,E-5,378.75,0.25,71,141.83
1412,C6,379.0,0.5,91,141.83
1413,G#3,379.0,0.5,60,141.83
1414,E-3,379.5,0.5,60,141.83
1415,G#3,380.0,0.5,63,141.83
1416,E-3,380.5,0.5,60,141.83
1417,C5,381.0,1.25,88,141.83
1418,G#2,381.0,0.5,66,141.83
1419,C3,381.5,0.5,60,141.83
1420,E-3,382.0,0.5,60,141.83
1421,F#4,382.25,0.25,69,141.83
1422,C5,382.5,0.25,74,141.83
1423,C3,382.5,0.5,60,141.83
1424,F#4,382.75,0.25,70,141.83
1425,E-5,383.0,0.25,74,141.83
1426,E-3,383.0,0.5,63,141.83
1427,C5,383.25,0.25,71,141.83
1428,E-5,383.5,0.25,75,141.83
1429,C3,383.5,0.5,60,141.83
1430,C5,383.75,0.25,70,141.83
1431,F#5,384.0,0.25,74,141.83
1432,G#2,384.0,0.5,66,141.83
1433,E-5,384.25,0.25,71,141.83
1434,F#5,384.5,0.25,74,141.83
1435,C3,384.5,0.5,60,141.83
1436,E-5,384.75,0.25,71,141.83
1437,C6,385.0,1.0,91,141.83
1438,E-3,385.0,0.5,60,141.83
1439,C3,385.5,0.5,60,141.83
1440,F#5,386.0,0.75,81,141.83
1441,E-3,386.0,0.5,63,141.83
1442,C3,386.5,0.25,60,141.83
1443,G4,386.75,83/1000,70,141.83
1444,B4,386.833,83/1000,70,141.83
1445,D5,386.917,83/1000,70,141.83
1446,G5,387.0,2.0,90,141.83
1447,G2,387.0,0.5,66,141.83
1448,B2,387.5,0.5,60,141.83
1449,D3,388.0,0.5,60,141.83
1450,G3,388.5,0.5,60,141.83
1451,F5,389.0,271/1000,72,141.83
1452,C3,389.0,0.5,63,141.83
1453,E-5,389.25,271/1000,72,141.83
1454,D5,389.5,271/1000,73,141.83
1455,E-3,389.5,0.5,60,141.83
1456,C5,389.75,0.25,76,141.83
1457,G5,390.0,2.0,90,141.83
1458,G2,390.0,0.5,66,141.83
1459,B2,390.5,0.5,60,141.83
1460,D3,391.0,0.5,60,141.83
1461,G3,391.5,0.5,60,141.83
1462,F5,392.0,271/1000,72,141.83
1463,C3,392.0,0.5,63,141.83
1464,E-5,392.25,271/1000,72,141.83
1465,D5,392.5,271/1000,73,141.83
1466,E-3,392.5,0.5,60,141.83
1467,C5,392.75,0.25,76,141.83
1468,G5,393.0,1.5,90,141.83
1469,G2,393.0,1.5,72,141.83
1470,G3,393.0,1.5,72,141.83
1471,G#5,394.5,271/1000,79,141.83
1472,G#3,394.5,271/1000,63,141.83
1473,G5,394.75,271/1000,78,141.83
1474,G3,394.75,271/1000,62,141.83
1475,F5,395.0,271/1000,76,141.83
1476,F3,395.0,271/1000,60,141.83
1477,E-5,395.25,271/1000,75,141.83
1478,E-3,395.25,271/1000,60,141.83
1479,D5,395.5,271/1000,74,141.83
1480,D3,395.5,271/1000,59,141.83
1481,C5,395.75,0.25,72,141.83
1482,C3,395.75,0.25,57,141.83
1483,G5,396.0,0.25,79,141.83
1484,C5,396.0,21/1000,72,141.83
1485,G3,396.0,0.25,63,141.83
1486,C3,396.0,21/1000,57,141.83
1487,G4,397.0,0.25,72,141.83
1488,G2,397.0,0.25,57,141.83
1489,C3,398.625,0.125,35,141.83
1490,G3,398.75,0.125,35,141.83
1491,G4,398.875,0.125,41,141.83
1492,E5,399.0,0.25,45,141.83
1493,C4,399.0,1.0,35,141.83
1494,E5,400.0,0.25,43,141.83
1495,E5,401.0,0.25,43,141.83
1496,G3,401.625,0.125,34,141.83
1497,D4,401.75,0.125,34,141.83
1498,B4,401.875,0.125,42,141.83
1499,G5,402.0,1.5,45,141.83
1500,F4,402.0,1.0,35,141.83
1501,F5,403.5,0.5,41,141.83
1502,D5,404.0,1.0,41,141.83
1503,E4,405.0,1.0,45,141.83
1504,D5,405.0,0.5,45,141.83
1505,C3,405.0,1.0,35,141.83
1506,C5,405.5,62/125,41,141.83
1507,E3,406.0,1.0,31,141.83
1508,C5,406.0,1.5,45,141.83
1509,G4,406.0,1.5,45,141.83
1510,G3,407.0,1.0,31,141.83
1511,B4,407.5,0.5,45,141.83
1512,D5,407.5,0.5,45,141.83
1513,C4,408.0,1.0,35,141.83
1514,B4,408.0,2.0,49,141.83
1515,D5,408.0,2.0,49,141.83
1516,C3,409.0,1.0,31,141.83
1517,C5,410.0,1.0,45,141.83
1518,E5,410.0,1.0,45,141.83
1519,F5,411.0,1.5,45,141.83
1520,A3,411.0,2.0,35,141.83
1521,F4,412.0,1.0,33,141.83
1522,C4,412.0,1.0,33,141.83
1523,G5,412.5,0.125,46,141.83
1524,F5,412.625,0.125,42,141.83
1525,E5,412.75,0.125,42,141.83
1526,F5,412.875,83/1000,45,141.83
1527,G5,413.0,0.5,49,141.83
1528,A5,413.5,0.5,47,141.83
1529,A5,414.0,0.5,55,141.83
1530,B3,414.0,2.0,38,141.83
1531,G5,414.5,0.5,49,141.83
1532,F#5,415.0,0.5,52,141.83
1533,D4,415.0,1.0,35,141.83
1534,G4,415.0,1.0,35,141.83
1535,G5,415.5,0.5,45,141.83
1536,F5,416.0,0.5,50,141.83
1537,D5,416.5,0.5,45,141.83
1538,E-5,417.0,0.5,49,141.83
1539,C4,417.0,1.0,41,141.83
1540,E5,417.5,0.5,45,141.83
1541,F5,418.0,0.5,50,141.83
1542,A3,418.0,1.0,37,141.83
1543,C4,418.0,1.0,37,141.83
1544,E5,418.5,0.5,45,141.83
1545,G5,419.0,0.5,49,141.83
1546,D4,419.0,1.0,35,141.83
1547,F3,419.0,1.0,35,141.83
1548,F5,419.5,0.5,45,141.83
1549,E5,420.0,0.5,52,141.83
1550,G3,420.0,1.0,41,141.83
1551,B3,420.0,1.0,41,141.83
1552,D5,420.5,0.5,45,141.83
1553,C5,421.0,0.5,48,141.83
1554,B4,421.5,0.5,45,141.83
1555,A4,422.0,0.5,46,141.83
1556,G4,422.5,0.5,45,141.83
1557,E-5,423.0,0.5,49,141.83
1558,C4,423.0,333/1000,39,141.83
1559,E4,423.333,333/1000,31,141.83
1560,E5,423.5,0.5,42,141.83
1561,G4,423.667,333/1000,31,141.83
1562,E-5,424.0,0.5,49,141.83
1563,C4,424.0,333/1000,39,141.83
1564,E4,424.333,333/1000,32,141.83
1565,E5,424.5,0.5,41,141.83
1566,G4,424.667,333/1000,32,141.83
1567,E-5,425.0,0.5,52,141.83
1568,C4,425.0,333/1000,40,141.83
1569,E4,425.333,333/1000,32,141.83
1570,E5,425.5,0.5,48,141.83
1571,G4,425.667,333/1000,32,141.83
1572,F#5,426.0,0.5,58,141.83
1573,B3,426.0,333/1000,43,141.83
1574,D4,426.333,333/1000,36,141.83
1575,G5,426.5,0.5,53,141.83
1576,G4,426.667,333/1000,35,141.83
1577,F#5,427.0,0.5,58,141.83
1578,B3,427.0,333/1000,40,141.83
1579,D4,427.333,333/1000,33,141.83
1580,G5,427.5,0.5,46,141.83
1581,G4,427.667,333/1000,29,141.83
1582,F5,428.0,0.5,46,141.83
1583,B3,428.0,333/1000,37,141.83
1584,F4,428.333,333/1000,29,141.83
1585,D5,428.5,0.5,37,141.83
1586,G4,428.667,333/1000,29,141.83
1587,D5,429.0,0.5,45,141.83
1588,E4,429.0,1.0,32,141.83
1589,C4,429.0,1.0,32,141.83
1590,C5,429.5,0.5,41,141.83
1591,G4,430.0,1.0,41,141.83
1592,D5,430.0,0.5,45,141.83
1593,E3,430.0,1.0,31,141.83
1594,C5,430.5,0.5,41,141.83
1595,E5,431.0,0.5,45,141.83
1596,B4,431.0,1.0,41,141.83
1597,G3,431.0,1.0,31,141.83
1598,D5,431.5,0.5,45,141.83
1599,B4,432.0,2.0,49,141.83
1600,D5,432.0,1.5,49,141.83
1601,C4,432.0,1.0,35,141.83
1602,G3,433.0,1.0,31,141.83
1603,E-5,433.5,0.5,49,141.83
1604,C3,434.0,1.0,31,141.83
1605,C5,434.0,1.0,45,141.83
1606,E5,434.0,1.0,45,141.83
1607,F5,435.0,1.5,45,141.83
1608,A3,435.0,0.5,35,141.83
1609,C4,435.5,0.5,31,141.83
1610,F4,436.0,0.5,32,141.83
1611,G5,436.5,0.125,46,141.83
1612,C4,436.5,0.5,33,141.83
1613,F5,436.625,0.125,42,141.83
1614,E5,436.75,0.125,42,141.83
1615,F5,436.875,83/1000,45,141.83
1616,G5,437.0,0.5,49,141.83
1617,A3,437.0,0.5,35,141.83
1618,A5,437.5,0.5,47,141.83
1619,C4,437.5,0.5,38,141.83
1620,A5,438.0,0.5,55,141.83
1621,B3,438.0,0.5,40,141.83
1622,G5,438.5,0.5,49,141.83
1623,D4,438.5,0.5,35,141.83
1624,F#5,439.0,0.5,52,141.83
1625,G4,439.0,0.5,42,141.83
1626,G5,439.5,0.5,45,141.83
1627,D4,439.5,0.5,35,141.83
1628,F5,440.0,0.5,50,141.83
1629,B3,440.0,0.5,35,141.83
1630,D5,440.5,0.5,45,141.83
1631,D4,440.5,0.5,34,141.83
1632,E-5,441.0,0.5,49,141.83
1633,C4,441.0,1.0,41,141.83
1634,E5,441.5,0.5,45,141.83
1635,G5,442.0,0.5,50,141.83
1636,D4,442.0,1.0,37,141.83
1637,F3,442.0,1.0,37,141.83
1638,F5,442.5,0.5,45,141.83
1639,D5,443.0,0.5,49,141.83
1640,G3,443.0,1.0,35,141.83
1641,F4,443.0,1.0,35,141.83
1642,B4,443.5,0.5,45,141.83
1643,C5,444.0,0.5,52,141.83
1644,E4,444.0,1.0,34,141.83
1645,C4,444.0,1.0,34,141.83
1646,G4,444.5,0.5,34,141.83
1647,E4,445.0,1.0,40,141.83
1648,G4,445.5,0.25,34,141.83
1649,C4,446.0,1.0,37,141.83
1650,G4,446.5,0.25,34,141.83
1651,D4,447.0,1.0,40,141.83
1652,G4,447.0,0.25,37,141.83
1653,F4,447.0,0.25,37,141.83
1654,G4,447.5,0.25,30,141.83
1655,F4,447.5,0.25,30,141.83
1656,B3,448.0,1.0,38,141.83
1657,F4,448.5,0.25,30,141.83
1658,G4,448.5,0.25,30,141.83
1659,G3,449.0,1.0,38,141.83
1660,G4,449.5,0.25,30,141.83
1661,F4,449.5,0.25,30,141.83
1662,C3,450.0,1.0,40,141.83
1663,G4,450.0,0.25,37,141.83
1664,E-4,450.0,0.25,37,141.83
1665,G4,450.5,0.25,31,141.83
1666,E-4,450.5,0.25,31,141.83
1667,E-3,451.0,1.0,40,141.83
1668,E-4,451.5,0.25,31,141.83
1669,G4,451.5,0.25,31,141.83
1670,C3,452.0,1.0,37,141.83
1671,E-4,452.5,0.25,31,141.83
1672,G4,452.5,0.25,31,141.83
1673,D3,453.0,1.0,40,141.83
1674,G4,453.0,0.25,37,141.83
1675,F4,453.0,0.25,37,141.83
1676,F4,453.5,0.25,30,141.83
1677,G4,453.5,0.25,30,141.83
1678,B2,454.0,1.0,38,141.83
1679,G4,454.5,0.25,30,141.83
1680,F4,454.5,0.25,30,141.83
1681,G2,455.0,1.0,38,141.83
1682,G4,455.5,0.25,30,141.83
1683,F4,455.5,0.25,30,141.83
1684,G4,456.0,0.25,63,141.83
1685,E-4,456.0,0.25,63,141.83
1686,C3,456.0,1.0,64,141.83
1687,C2,456.0,1.0,64,141.83
1688,G4,456.5,0.25,50,141.83
1689,E-4,456.5,0.25,50,141.83
1690,E-3,457.0,1.0,40,141.83
1691,G4,457.5,0.25,33,141.83
1692,E-4,457.5,0.25,33,141.83
1693,G3,458.0,1.0,40,141.83
1694,E-4,458.5,0.25,33,141.83
1695,G4,458.5,0.25,33,141.83
1696,G#4,459.0,0.25,63,141.83
1697,E-4,459.0,0.25,63,141.83
1698,F2,459.0,1.0,64,141.83
1699,F3,459.0,1.0,64,141.83
1700,E-4,459.5,0.25,50,141.83
1701,G#4,459.5,0.25,50,141.83
1702,G#3,460.0,1.0,40,141.83
1703,G#4,460.5,0.25,33,141.83
1704,E-4,460.5,0.25,33,141.83
1705,C4,461.0,1.0,40,141.83
1706,E-4,461.5,0.25,33,141.83
1707,G#4,461.5,0.25,33,141.83
1708,D4,462.0,0.25,63,141.83
1709,G#4,462.0,0.25,63,141.83
1710,B-1,462.0,1.0,64,141.83
1711,B-2,462.0,1.0,64,141.83
1712,D4,462.5,0.25,50,141.83
1713,G#4,462.5,0.25,50,141.83
1714,D3,463.0,1.0,40,141.83
1715,G#4,463.5,0.25,33,141.83
1716,D4,463.5,0.25,33,141.83
1717,F3,464.0,1.0,40,141.83
1718,G#4,464.5,0.25,33,141.83
1719,D4,464.5,0.25,33,141.83
1720,D4,465.0,0.25,63,141.83
1721,G4,465.0,0.25,63,141.83
1722,E-3,465.0,1.0,64,141.83
1723,E-2,465.0,1.0,64,141.83
1724,D4,465.5,0.25,50,141.83
1725,G4,465.5,0.25,50,141.83
1726,G3,466.0,1.0,40,141.83
1727,G4,466.5,0.25,33,141.83
1728,D4,466.5,0.25,33,141.83
1729,B-3,467.0,1.0,40,141.83
1730,D4,467.5,0.25,33,141.83
1731,G4,467.5,0.25,33,141.83
1732,G4,468.0,0.25,63,141.83
1733,C4,468.0,0.25,63,141.83
1734,G#2,468.0,1.0,64,141.83
1735,G#1,468.0,1.0,64,141.83
1736,G4,468.5,0.25,50,141.83
1737,C4,468.5,0.25,50,141.83
1738,G#3,469.0,1.0,40,141.83
1739,G4,469.5,0.25,33,141.83
1740,C4,469.5,0.25,33,141.83
1741,F4,470.0,0.25,63,141.83
1742,C4,470.0,0.25,63,141.83
1743,D2,470.0,1.0,64,141.83
1744,D3,470.0,1.0,64,141.83
1745,C4,470.5,0.25,50,141.83
1746,F4,470.5,0.25,50,141.83
1747,D4,471.0,1.0,40,141.83
1748,C4,471.5,0.25,33,141.83
1749,F4,471.5,0.25,33,141.83
1750,B3,472.0,0.25,63,141.83
1751,F4,472.0,0.25,63,141.83
1752,G2,472.0,1.0,64,141.83
1753,G1,472.0,1.0,64,141.83
1754,F4,472.5,0.25,50,141.83
1755,B3,472.5,0.25,50,141.83
1756,G3,473.0,1.0,40,141.83
1757,F4,473.5,0.25,33,141.83
1758,B3,473.5,0.25,33,141.83
1759,G#3,474.0,1.0,45,141.83
1760,C4,474.5,0.25,33,141.83
1761,E-4,474.5,0.25,33,141.83
1762,G3,475.0,1.0,39,141.83
1763,C4,475.5,0.25,33,141.83
1764,E-4,475.5,0.25,33,141.83
1765,F#3,476.0,1.0,39,141.83
1766,E-4,476.5,0.25,33,141.83
1767,C4,476.5,0.25,33,141.83
1768,G3,477.0,1.0,44,141.83
1769,B3,477.0,0.5,35,141.83
1770,D4,477.0,0.5,35,141.83
1771,G4,477.5,521/1000,34,141.83
1772,E-4,477.5,521/1000,34,141.83
1773,F4,478.0,521/1000,30,141.83
1774,D4,478.0,521/1000,30,141.83
1775,E-4,478.5,521/1000,28,141.83
1776,C4,478.5,521/1000,28,141.83
1777,D4,479.0,521/1000,30,141.83
1778,B3,479.0,521/1000,30,141.83
1779,F#3,479.5,0.5,41,141.83
1780,C4,479.5,0.5,28,141.83
1781,E-4,479.5,0.5,28,141.83
1782,G3,480.0,1.0,44,141.83
1783,B3,480.0,0.5,35,141.83
1784,D4,480.0,0.5,35,141.83
1785,C4,480.0,21/1000,28,141.83
1786,E-4,480.0,21/1000,28,141.83
1787,G4,480.5,521/1000,34,141.83
1788,E-4,480.5,521/1000,34,141.83
1789,D4,481.0,521/1000,30,141.83
1790,F4,481.0,521/1000,30,141.83
1791,E-4,481.5,521/1000,28,141.83
1792,C4,481.5,521/1000,28,141.83
1793,B3,482.0,521/1000,30,141.83
1794,D4,482.0,521/1000,30,141.83
1795,F#3,482.5,0.5,32,141.83
1796,C4,482.5,0.5,28,141.83
1797,E-4,482.5,0.5,28,141.83
1798,G3,483.0,521/1000,39,141.83
1799,F#3,483.0,21/1000,32,141.83
1800,B3,483.0,521/1000,34,141.83
1801,D4,483.0,521/1000,34,141.83
1802,C4,483.0,21/1000,28,141.83
1803,E-4,483.0,21/1000,28,141.83
1804,F#3,483.5,521/1000,35,141.83
1805,C4,483.5,521/1000,30,141.83
1806,E-4,483.5,521/1000,30,141.83
1807,G3,484.0,521/1000,39,141.83
1808,B3,484.0,521/1000,34,141.83
1809,D4,484.0,521/1000,34,141.83
1810,F#3,484.5,521/1000,31,141.83
1811,C4,484.5,521/1000,31,141.83
1812,E-4,484.5,521/1000,31,141.83
1813,G3,485.0,521/1000,39,141.83
1814,B3,485.0,521/1000,34,141.83
1815,D4,485.0,521/1000,34,141.83
1816,F#3,485.5,0.5,32,141.83
1817,E-4,485.5,0.5,31,141.83
1818,C4,485.5,0.5,31,141.83
1819,G3,486.0,1.0,38,141.83
1820,F#3,486.0,21/1000,32,141.83
1821,D4,486.0,0.5,34,141.83
1822,B3,486.0,0.5,34,141.83
1823,E-4,486.0,21/1000,31,141.83
1824,C4,486.0,21/1000,31,141.83
1825,B-3,486.5,521/1000,33,141.83
1826,C#4,486.5,521/1000,33,141.83
1827,B3,487.0,521/1000,35,141.83
1828,D4,487.0,521/1000,35,141.83
1829,E4,487.5,521/1000,36,141.83
1830,C#4,487.5,521/1000,36,141.83
1831,D4,488.0,521/1000,38,141.83
1832,F4,488.0,521/1000,38,141.83
1833,G4,488.5,0.5,40,141.83
1834,E4,488.5,0.5,40,141.83
1835,F3,489.0,1.0,33,141.83
1836,A4,489.0,1.0,38,141.83
1837,F4,489.0,1.0,38,141.83
1838,G4,489.0,21/1000,40,141.83
1839,E4,489.0,21/1000,40,141.83
1840,F3,490.0,1.0,31,141.83
1841,C4,490.0,1.0,36,141.83
1842,F4,490.0,1.0,36,141.83
1843,A4,490.0,1.0,36,141.83
1844,F3,491.0,1.0,31,141.83
1845,F4,491.0,1.0,36,141.83
1846,A4,491.0,1.0,36,141.83
1847,C4,491.0,1.0,36,141.83
1848,C4,492.0,3.0,35,141.83
1849,F3,492.0,2.0,33,141.83
1850,F4,492.0,2.0,38,141.83
1851,A4,492.0,2.0,38,141.83
1852,C3,494.0,1.0,31,141.83
1853,G4,494.0,1.0,31,141.83
1854,E4,494.0,1.0,31,141.83
1855,G4,495.0,0.5,42,141.83
1856,G2,495.0,1.0,33,141.83
1857,D4,495.0,1.0,35,141.83
1858,B3,495.0,1.0,35,141.83
1859,F4,495.5,0.5,38,141.83
1860,G2,496.0,1.0,30,141.83
1861,D4,496.0,1.0,37,141.83
1862,B3,496.0,1.0,37,141.83
1863,F4,496.0,1.0,37,141.83
1864,G2,497.0,1.0,30,141.83
1865,D4,497.0,1.0,34,141.83
1866,B3,497.0,1.0,34,141.83
1867,F4,497.0,1.0,34,141.83
1868,G2,498.0,2.0,33,141.83
1869,F4,498.0,2.0,37,141.83
1870,D4,498.0,2.0,37,141.83
1871,B3,498.0,2.0,37,141.83
1872,A2,500.0,1.0,30,141.83
1873,E4,500.0,1.0,36,141.83
1874,C4,500.0,1.0,36,141.83
1875,F2,501.0,1.0,33,141.83
1876,E4,501.0,0.5,38,141.83
1877,G4,501.0,0.5,38,141.83
1878,F4,501.5,0.5,34,141.83
1879,D4,501.5,0.5,34,141.83
1880,G2,502.0,1.0,32,141.83
1881,C4,502.0,1.0,38,141.83
1882,E4,502.0,1.0,38,141.83
1883,G2,503.0,1.0,32,141.83
1884,B3,503.0,1.0,33,141.83
1885,D4,503.0,1.0,33,141.83
1886,C3,504.0,1.0,33,141.83
1887,C4,504.0,0.5,38,141.83
1888,E4,504.0,0.5,38,141.83
1889,C5,504.5,229/500,35,141.83
1890,D5,505.0,229/500,37,141.83
1891,E5,505.5,229/500,38,141.83
1892,F5,506.0,229/500,40,141.83
1893,G5,506.5,229/500,41,141.83
1894,A5,507.0,1.0,46,141.83
1895,C4,507.0,1.0,30,141.83
1896,F4,507.0,1.0,30,141.83
1897,A5,508.0,1.0,44,141.83
1898,C4,508.0,1.0,28,141.83
1899,F4,508.0,1.0,28,141.83
1900,A5,509.0,1.0,44,141.83
1901,F4,509.0,1.0,28,141.83
1902,C4,509.0,1.0,28,141.83
1903,A5,510.0,1.5,46,141.83
1904,C4,510.0,3.0,28,141.83
1905,F4,510.0,2.0,33,141.83
1906,B5,511.5,0.25,39,141.83
1907,A5,511.75,0.25,39,141.83
1908,G5,512.0,1.0,46,141.83
1909,E4,512.0,1.0,31,141.83
1910,G5,513.0,0.5,46,141.83
1911,B4,513.0,1.0,35,141.83
1912,G3,513.0,1.0,30,141.83
1913,D4,513.0,1.0,30,141.83
1914,F5,513.5,0.5,41,141.83
1915,F5,514.0,1.0,40,141.83
1916,B4,514.0,1.0,40,141.83
1917,G3,514.0,1.0,28,141.83
1918,D4,514.0,1.0,28,141.83
1919,F5,515.0,1.0,36,141.83
1920,B4,515.0,1.0,36,141.83
1921,G3,515.0,1.0,28,141.83
1922,D4,515.0,1.0,28,141.83
1923,F5,516.0,2.0,40,141.83
1924,B4,516.0,2.0,40,141.83
1925,G3,516.0,2.0,30,141.83
1926,D4,516.0,2.0,30,141.83
1927,C5,518.0,1.0,38,141.83
1928,E5,518.0,1.0,38,141.83
1929,C4,518.0,1.0,28,141.83
1930,A3,518.0,1.0,28,141.83
1931,F3,519.0,1.0,33,141.83
1932,E5,519.0,0.5,40,141.83
1933,G5,519.0,0.5,40,141.83
1934,F5,519.5,0.5,36,141.83
1935,D5,519.5,0.5,36,141.83
1936,G3,520.0,1.0,32,141.83
1937,E5,520.0,1.0,40,141.83
1938,C5,520.0,1.0,40,141.83
1939,F3,521.0,1.0,32,141.83
1940,D5,521.0,1.0,34,141.83
1941,B4,521.0,1.0,34,141.83
1942,E5,522.0,0.25,63,141.83
1943,G5,522.0,0.25,63,141.83
1944,E2,522.0,0.5,64,141.83
1945,E3,522.0,0.5,64,141.83
1946,G5,522.5,0.25,50,141.83
1947,E5,522.5,0.25,50,141.83
1948,G#3,523.0,0.25,40,141.83
1949,F5,523.5,0.25,33,141.83
1950,D5,523.5,0.25,33,141.83
1951,A3,524.0,0.25,40,141.83
1952,C5,524.5,0.25,33,141.83
1953,E5,524.5,0.25,33,141.83
1954,F3,525.0,0.25,40,141.83
1955,F4,525.5,0.25,33,141.83
1956,D5,525.5,0.25,33,141.83
1957,G3,526.0,0.25,40,141.83
1958,C5,526.5,0.25,33,141.83
1959,E4,526.5,0.25,33,141.83
1960,F3,527.0,0.25,40,141.83
1961,B4,527.5,0.25,33,141.83
1962,D4,527.5,0.25,33,141.83
1963,E2,528.0,0.25,75,141.83
1964,E3,528.0,0.25,75,141.83
1965,E5,528.25,0.25,72,141.83
1966,G5,528.5,0.25,75,141.83
1967,E5,528.75,0.25,72,141.83
1968,G#2,529.0,0.25,73,141.83
1969,G#3,529.0,0.25,73,141.83
1970,D5,529.25,0.25,70,141.83
1971,F5,529.5,0.25,75,141.83
1972,D5,529.75,0.25,70,141.83
1973,A3,530.0,0.25,73,141.83
1974,A2,530.0,0.25,73,141.83
1975,C5,530.25,0.25,72,141.83
1976,E5,530.5,0.25,75,141.83
1977,C5,530.75,0.25,71,141.83
1978,F2,531.0,0.25,75,141.83
1979,F3,531.0,0.25,75,141.83
1980,F4,531.25,0.25,71,141.83
1981,D5,531.5,0.25,75,141.83
1982,F4,531.75,0.25,71,141.83
1983,G3,532.0,0.25,73,141.83
1984,G2,532.0,0.25,73,141.83
1985,E4,532.25,0.25,71,141.83
1986,C5,532.5,0.25,75,141.83
1987,E4,532.75,0.25,71,141.83
1988,G3,533.0,0.25,73,141.83
1989,G2,533.0,0.25,73,141.83
1990,D4,533.25,0.25,71,141.83
1991,B4,533.5,0.25,75,141.83
1992,D4,533.75,0.25,71,141.83
1993,C3,534.0,0.25,64,141.83
1994,E4,534.0,1.0,75,141.83
1995,G4,534.0,1.0,75,141.83
1996,C5,534.0,1.0,75,141.83
1997,E3,534.25,0.25,59,141.83
1998,G3,534.5,0.25,59,141.83
1999,C4,534.75,0.25,59,141.83
2000,C3,535.0,0.25,63,141.83
2001,E3,535.25,0.25,58,141.83
2002,G3,535.5,0.25,58,141.83
2003,C4,535.75,0.25,58,141.83
2004,E5,536.0,0.125,70,141.83
2005,C3,536.0,0.25,63,141.83
2006,F5,536.125,0.125,65,141.83
2007,E5,536.25,0.125,70,141.83
2008,E3,536.25,0.25,57,141.83
2009,F5,536.375,0.125,66,141.83
2010,E5,536.5,83/1000,70,141.83
2011,G3,536.5,0.25,58,141.83
2012,F5,536.583,83/1000,66,141.83
2013,E5,536.667,83/1000,66,141.83
2014,D5,536.75,0.125,70,141.83
2015,C4,536.75,0.25,58,141.83
2016,C5,536.875,0.125,66,141.83
2017,G5,537.0,2.0,75,141.83
2018,C3,537.0,0.25,63,141.83
2019,E3,537.25,0.25,58,141.83
2020,G3,537.5,0.25,59,141.83
2021,C4,537.75,0.25,59,141.83
2022,C3,538.0,0.25,63,141.83
2023,E3,538.25,0.25,57,141.83
2024,G3,538.5,0.25,57,141.83
2025,C4,538.75,0.25,57,141.83
2026,B5,539.0,0.125,70,141.83
2027,C3,539.0,0.25,63,141.83
2028,C6,539.125,0.125,66,141.83
2029,B5,539.25,0.125,70,141.83
2030,F3,539.25,0.25,57,141.83
2031,C6,539.375,0.125,66,141.83
2032,B5,539.5,83/1000,70,141.83
2033,G3,539.5,0.25,57,141.83
2034,C6,539.583,83/1000,65,141.83
2035,B5,539.667,83/1000,66,141.83
2036,A5,539.75,0.125,70,141.83
2037,D4,539.75,0.25,57,141.83
2038,G5,539.875,0.125,65,141.83
2039,C6,540.0,2.0,75,141.83
2040,C3,540.0,0.25,63,141.83
2041,E3,540.25,0.25,57,141.83
2042,G3,540.5,0.25,57,141.83
2043,C4,540.75,0.25,57,141.83
2044,C3,541.0,0.25,63,141.83
2045,E3,541.25,0.25,57,141.83
2046,G3,541.5,0.25,57,141.83
2047,C4,541.75,0.25,57,141.83
2048,E5,542.0,0.125,70,141.83
2049,C3,542.0,0.25,63,141.83
2050,F5,542.125,0.125,65,141.83
2051,E5,542.25,0.125,70,141.83
2052,E3,542.25,0.25,57,141.83
2053,F5,542.375,0.125,66,141.83
2054,E5,542.5,83/1000,70,141.83
2055,G3,542.5,0.25,58,141.83
2056,F5,542.583,83/1000,66,141.83
2057,E5,542.667,83/1000,66,141.83
2058,D5,542.75,0.125,70,141.83
2059,C4,542.75,0.25,58,141.83
2060,C5,542.875,0.125,66,141.83
2061,G5,543.0,0.5,75,141.83
2062,C3,543.0,0.25,63,141.83
2063,E3,543.25,0.25,58,141.83
2064,G3,543.5,0.25,59,141.83
2065,C4,543.75,0.25,59,141.83
2066,G5,544.0,0.5,75,141.83
2067,C3,544.0,0.25,63,141.83
2068,E3,544.25,0.25,57,141.83
2069,G3,544.5,0.25,57,141.83
2070,C4,544.75,0.25,57,141.83
2071,B5,545.0,0.125,70,141.83
2072,C3,545.0,0.25,63,141.83
2073,C6,545.125,0.125,66,141.83
2074,B5,545.25,0.125,70,141.83
2075,F3,545.25,0.25,57,141.83
2076,C6,545.375,0.125,66,141.83
2077,B5,545.5,83/1000,70,141.83
2078,G3,545.5,0.25,57,141.83
2079,C6,545.583,83/1000,65,141.83
2080,B5,545.667,83/1000,66,141.83
2081,A5,545.75,0.125,70,141.83
2082,D4,545.75,0.25,57,141.83
2083,G5,545.875,0.125,65,141.83
2084,C6,546.0,0.25,75,141.83
2085,E3,546.0,0.25,63,141.83
2086,C3,546.0,0.25,63,141.83
2087,G3,546.0,0.25,63,141.83
2088,C4,546.0,0.25,63,141.83
2089,E6,547.0,1.5,88,141.83
2090,E3,547.0,1.5,64,141.83
2091,E4,547.0,1.5,64,141.83
2092,G#5,548.5,0.5,75,141.83
2093,G#3,548.5,0.5,63,141.83
2094,G#2,548.5,0.5,63,141.83
2095,A5,549.0,0.25,75,141.83
2096,A2,549.0,0.25,63,141.83
2097,A3,549.0,0.25,63,141.83
2098,C6,550.0,1.5,89,141.83
2099,C4,550.0,1.5,66,141.83
2100,C3,550.0,1.5,66,141.83
2101,E5,551.5,0.5,75,141.83
2102,E3,551.5,0.5,63,141.83
2103,F5,552.0,0.125,70,141.83
2104,F3,552.0,0.125,56,141.83
2105,G5,552.125,0.125,65,141.83
2106,G3,552.125,0.125,52,141.83
2107,F5,552.25,0.125,70,141.83
2108,F3,552.25,0.125,56,141.83
2109,G5,552.375,0.125,66,141.83
2110,G3,552.375,0.125,52,141.83
2111,F5,552.5,83/1000,70,141.83
2112,F3,552.5,83/1000,56,141.83
2113,G5,552.583,83/1000,66,141.83
2114,G3,552.583,83/1000,52,141.83
2115,F5,552.667,83/1000,66,141.83
2116,F3,552.667,83/1000,52,141.83
2117,E5,552.75,0.125,70,141.83
2118,E3,552.75,0.125,56,141.83
2119,D5,552.875,0.125,66,141.83
2120,D3,552.875,0.125,52,141.83
2121,G5,553.0,0.25,84,141.83
2122,G3,553.0,0.25,63,141.83
2123,B5,554.0,0.25,77,141.83
2124,G5,554.0,0.25,77,141.83
2125,D5,554.0,0.25,77,141.83
2126,G2,554.0,0.25,62,141.83
2127,G3,554.0,0.25,62,141.83
2128,G5,555.0,0.25,77,141.83
2129,E5,555.0,0.25,77,141.83
2130,C6,555.0,0.25,77,141.83
2131,C4,555.0,0.25,66,141.83
2132,C3,555.0,0.25,66,141.83
2133,C4,556.0,0.25,79,141.83
2134,C3,556.0,0.25,64,141.83
2135,C2,556.0,0.25,64,141.83
2136,G4,558.0,3.0,50,141.83
2137,C5,559.0,1.0,46,141.83
2138,E3,559.0,1.0,46,141.83
2139,E5,560.0,1.0,46,141.83
2140,C3,560.0,1.0,42,141.83
2141,G4,561.0,3.0,45,141.83
2142,G3,561.0,3.0,46,141.83
2143,E5,561.0,2.0,50,141.83
2144,C5,561.0,2.0,50,141.83
2145,B4,563.0,1.0,43,141.83
2146,D5,563.0,1.0,43,141.83
2147,G5,564.0,1.0,50,141.83
2148,C5,565.0,1.0,46,141.83
2149,G4,565.0,2.0,40,141.83
2150,E3,565.0,1.0,46,141.83
2151,E5,566.0,1.0,46,141.83
2152,C3,566.0,1.0,42,141.83
2153,G4,567.0,3.0,45,141.83
2154,G3,567.0,3.0,46,141.83
2155,C5,567.0,2.0,50,141.83
2156,E5,567.0,2.0,50,141.83
2157,D5,569.0,1.0,43,141.83
2158,B4,569.0,1.0,43,141.83
2159,A4,570.0,1.0,50,141.83
2160,D4,570.0,1.0,31,141.83
2161,F3,570.0,1.0,31,141.83
2162,A3,570.0,1.0,31,141.83
2163,D5,571.0,1.0,50,141.83
2164,F5,572.0,1.0,50,141.83
2165,E5,573.0,1.0,50,141.83
2166,D4,573.0,1.0,31,141.83
2167,F3,573.0,1.0,31,141.83
2168,A3,573.0,1.0,31,141.83
2169,D5,574.0,1.0,50,141.83
2170,A5,575.0,1.0,50,141.83
2171,A5,576.0,1.0,50,141.83
2172,D4,576.0,3.0,29,141.83
2173,G3,576.0,3.0,29,141.83
2174,F4,576.0,3.0,29,141.83
2175,G5,577.0,1.0,50,141.83
2176,B4,578.0,1.0,50,141.83
2177,C5,579.0,0.5,50,141.83
2178,E4,579.0,1.0,38,141.83
2179,C4,579.0,1.0,38,141.83
2180,G4,579.5,0.5,50,141.83
2181,E4,580.0,0.5,50,141.83
2182,G4,580.5,0.5,50,141.83
2183,F4,581.0,0.5,50,141.83
2184,D4,581.5,0.5,50,141.83
2185,C4,582.0,0.75,50,141.83
2186,G3,582.75,0.25,43,141.83
2187,C4,583.0,1.0,46,141.83
2188,E3,583.0,1.0,46,141.83
2189,E4,584.0,1.0,48,141.83
2190,C3,584.0,1.0,44,141.83
2191,C4,585.0,2.0,52,141.83
2192,E4,585.0,2.0,52,141.83
2193,G2,585.0,3.0,48,141.83
2194,G3,585.0,3.0,48,141.83
2195,D4,587.0,1.0,43,141.83
2196,B3,587.0,1.0,43,141.83
2197,G4,588.0,1.0,50,141.83
2198,G3,589.0,2.0,40,141.83
2199,C4,589.0,1.0,46,141.83
2200,E3,589.0,1.0,46,141.83
2201,E4,590.0,1.0,48,141.83
2202,C3,590.0,1.0,44,141.83
2203,C4,591.0,2.0,52,141.83
2204,E4,591.0,2.0,52,141.83
2205,G2,591.0,3.0,48,141.83
2206,G3,591.0,3.0,48,141.83
2207,B3,593.0,1.0,43,141.83
2208,D4,593.0,1.0,43,141.83
2209,A3,594.0,1.0,50,141.83
2210,A2,594.0,1.0,31,141.83
2211,F2,594.0,1.0,31,141.83
2212,D3,594.0,1.0,31,141.83
2213,D4,595.0,1.0,50,141.83
2214,F4,596.0,1.0,50,141.83
2215,E4,597.0,1.0,50,141.83
2216,A2,597.0,1.0,31,141.83
2217,F2,597.0,1.0,31,141.83
2218,D3,597.0,1.0,31,141.83
2219,D4,598.0,1.0,50,141.83
2220,A4,599.0,1.0,50,141.83
2221,A4,600.0,1.0,50,141.83
2222,F3,600.0,1.0,32,141.83
2223,D3,600.0,1.0,32,141.83
2224,G2,600.0,1.0,32,141.83
2225,G4,601.0,1.0,50,141.83
2226,B3,602.0,1.0,50,141.83
2227,C4,603.0,0.5,52,141.83
2228,C3,603.0,1.0,34,141.83
2229,E3,603.0,1.0,34,141.83
2230,G4,603.5,0.5,34,141.83
2231,E4,604.0,1.0,40,141.83
2232,G4,604.5,0.25,34,141.83
2233,C4,605.0,1.0,37,141.83
2234,G4,605.5,0.25,34,141.83
2235,D4,606.0,1.0,40,141.83
2236,F4,606.0,0.25,37,141.83
2237,G4,606.0,0.25,37,141.83
2238,F4,606.5,0.25,30,141.83
2239,G4,606.5,0.25,30,141.83
2240,B3,607.0,1.0,38,141.83
2241,F4,607.5,0.25,30,141.83
2242,G4,607.5,0.25,30,141.83
2243,G3,608.0,1.0,38,141.83
2244,G4,608.5,0.25,30,141.83
2245,F4,608.5,0.25,30,141.83
2246,C3,609.0,1.0,40,141.83
2247,G4,609.0,0.25,37,141.83
2248,E-4,609.0,0.25,37,141.83
2249,G4,609.5,0.25,31,141.83
2250,E-4,609.5,0.25,31,141.83
2251,E-3,610.0,1.0,40,141.83
2252,G4,610.5,0.25,31,141.83
2253,E-4,610.5,0.25,31,141.83
2254,C3,611.0,1.0,37,141.83
2255,G4,611.5,0.25,31,141.83
2256,E-4,611.5,0.25,31,141.83
2257,D3,612.0,1.0,40,141.83
2258,F4,612.0,0.25,37,141.83
2259,G4,612.0,0.25,37,141.83
2260,F4,612.5,0.25,30,141.83
2261,G4,612.5,0.25,30,141.83
2262,B2,613.0,1.0,38,141.83
2263,F4,613.5,0.25,30,141.83
2264,G4,613.5,0.25,30,141.83
2265,G2,614.0,1.0,38,141.83
2266,F4,614.5,0.25,28,141.83
2267,G4,614.5,0.25,28,141.83
2268,E-4,615.0,0.25,58,141.83
2269,G4,615.0,0.25,58,141.83
2270,C3,615.0,1.0,64,141.83
2271,C2,615.0,1.0,64,141.83
2272,G4,615.5,0.25,46,141.83
2273,E-4,615.5,0.25,46,141.83
2274,C4,616.0,1.0,40,141.83
2275,G4,616.5,0.25,30,141.83
2276,E-4,616.5,0.25,30,141.83
2277,C3,617.0,1.0,40,141.83
2278,E-4,617.5,0.25,30,141.83
2279,G4,617.5,0.25,30,141.83
2280,E-4,618.0,0.25,56,141.83
2281,C4,618.0,0.25,56,141.83
2282,F#4,618.0,0.25,56,141.83
2283,A2,618.0,1.0,64,141.83
2284,A1,618.0,1.0,64,141.83
2285,E-4,618.5,0.25,45,141.83
2286,C4,618.5,0.25,45,141.83
2287,F#4,618.5,0.25,45,141.83
2288,A3,619.0,1.0,40,141.83
2289,F#4,619.5,0.25,30,141.83
2290,E-4,619.5,0.25,30,141.83
2291,C4,619.5,0.25,30,141.83
2292,A2,620.0,1.0,40,141.83
2293,C4,620.5,0.25,30,141.83
2294,E-4,620.5,0.25,30,141.83
2295,F#4,620.5,0.25,30,141.83
2296,D4,621.0,0.25,58,141.83
2297,G4,621.0,0.25,58,141.83
2298,B-1,621.0,1.0,64,141.83
2299,B-2,621.0,1.0,64,141.83
2300,G4,621.5,0.25,46,141.83
2301,D4,621.5,0.25,46,141.83
2302,B-3,622.0,1.0,40,141.83
2303,G4,622.5,0.25,30,141.83
2304,D4,622.5,0.25,30,141.83
2305,B-2,623.0,1.0,40,141.83
2306,D4,623.5,0.25,30,141.83
2307,G4,623.5,0.25,30,141.83
2308,A4,624.0,0.25,56,141.83
2309,D4,624.0,0.25,56,141.83
2310,C5,624.0,0.25,56,141.83
2311,F#1,624.0,1.0,64,141.83
2312,F#2,624.0,1.0,64,141.83
2313,D4,624.5,0.25,45,141.83
2314,C5,624.5,0.25,45,141.83
2315,A4,624.5,0.25,45,141.83
2316,F#3,625.0,1.0,40,141.83
2317,A4,625.5,0.25,30,141.83
2318,C5,625.5,0.25,30,141.83
2319,D4,625.5,0.25,30,141.83
2320,F#2,626.0,1.0,40,141.83
2321,C5,626.5,0.25,30,141.83
2322,D4,626.5,0.25,30,141.83
2323,A4,626.5,0.25,30,141.83
2324,B-4,627.0,0.25,56,141.83
2325,G4,627.0,0.25,56,141.83
2326,D4,627.0,0.25,56,141.83
2327,G2,627.0,1.0,64,141.83
2328,G1,627.0,1.0,64,141.83
2329,D4,627.5,0.25,45,141.83
2330,G4,627.5,0.25,45,141.83
2331,B-4,627.5,0.25,45,141.83
2332,G3,628.0,1.0,40,141.83
2333,D4,628.5,0.25,30,141.83
2334,B-4,628.5,0.25,30,141.83
2335,G4,628.5,0.25,30,141.83
2336,G2,629.0,1.0,40,141.83
2337,D4,629.5,0.25,30,141.83
2338,B-4,629.5,0.25,30,141.83
2339,G4,629.5,0.25,30,141.83
2340,B-4,630.0,0.25,56,141.83
2341,G4,630.0,0.25,56,141.83
2342,C#5,630.0,0.25,56,141.83
2343,E2,630.0,1.0,64,141.83
2344,E3,630.0,1.0,64,141.83
2345,B-4,630.5,0.25,45,141.83
2346,C#5,630.5,0.25,45,141.83
2347,G4,630.5,0.25,45,141.83
2348,E4,631.0,1.0,40,141.83
2349,G4,631.5,0.25,30,141.83
2350,B-4,631.5,0.25,30,141.83
2351,C#5,631.5,0.25,30,141.83
2352,E3,632.0,1.0,40,141.83
2353,C#5,632.5,0.25,30,141.83
2354,B-4,632.5,0.25,30,141.83
2355,G4,632.5,0.25,30,141.83
2356,D5,633.0,0.25,58,141.83
2357,A4,633.0,0.25,58,141.83
2358,F2,633.0,1.0,64,141.83
2359,F3,633.0,1.0,64,141.83
2360,A4,633.5,0.25,46,141.83
2361,D5,633.5,0.25,46,141.83
2362,F4,634.0,1.0,40,141.83
2363,A4,634.5,0.25,30,141.83
2364,D5,634.5,0.25,30,141.83
2365,F3,635.0,1.0,40,141.83
2366,A4,635.5,0.25,30,141.83
2367,D5,635.5,0.25,30,141.83
2368,E5,636.0,0.25,56,141.83
2369,A4,636.0,0.25,56,141.83
2370,G5,636.0,0.25,56,141.83
2371,C#2,636.0,1.0,64,141.83
2372,C#3,636.0,1.0,64,141.83
2373,G5,636.5,0.25,45,141.83
2374,A4,636.5,0.25,45,141.83
2375,E5,636.5,0.25,45,141.83
2376,C#4,637.0,1.0,40,141.83
2377,G5,637.5,0.25,30,141.83
2378,E5,637.5,0.25,30,141.83
2379,A4,637.5,0.25,30,141.83
2380,C#3,638.0,1.0,40,141.83
2381,E5,638.5,0.25,30,141.83
2382,G5,638.5,0.25,30,141.83
2383,A4,638.5,0.25,30,141.83
2384,D5,639.0,0.25,56,141.83
2385,F5,639.0,0.25,56,141.83
2386,A4,639.0,0.25,56,141.83
2387,D3,639.0,1.0,64,141.83
2388,D2,639.0,1.0,64,141.83
2389,A4,639.5,0.25,45,141.83
2390,F5,639.5,0.25,45,141.83
2391,D5,639.5,0.25,45,141.83
2392,D4,640.0,1.0,40,141.83
2393,F5,640.5,0.25,30,141.83
2394,D5,640.5,0.25,30,141.83
2395,A4,640.5,0.25,30,141.83
2396,D3,641.0,1.0,40,141.83
2397,D5,641.5,0.25,30,141.83
2398,F5,641.5,0.25,30,141.83
2399,A4,641.5,0.25,30,141.83
2400,G#5,642.0,0.25,59,141.83
2401,D5,642.0,0.25,59,141.83
2402,B-2,642.0,1.0,64,141.83
2403,B-1,642.0,1.0,64,141.83
2404,G#5,642.5,0.25,48,141.83
2405,D5,642.5,0.25,48,141.83
2406,B-3,643.0,1.0,40,141.83
2407,G#5,643.5,0.25,30,141.83
2408,D5,643.5,0.25,30,141.83
2409,B-2,644.0,1.0,40,141.83
2410,D5,644.5,0.25,30,141.83
2411,G#5,644.5,0.25,30,141.83
2412,A2,645.0,1.0,44,141.83
2413,A5,645.0,0.5,35,141.83
2414,C#5,645.0,0.5,35,141.83
2415,A5,645.5,521/1000,34,141.83
2416,F5,645.5,521/1000,34,141.83
2417,E5,646.0,521/1000,30,141.83
2418,G5,646.0,521/1000,30,141.83
2419,F5,646.5,521/1000,28,141.83
2420,D5,646.5,521/1000,28,141.83
2421,C#5,647.0,521/1000,30,141.83
2422,E5,647.0,521/1000,30,141.83
2423,G#4,647.5,0.5,38,141.83
2424,F5,647.5,0.5,28,141.83
2425,D5,647.5,0.5,28,141.83
2426,A4,648.0,1.0,41,141.83
2427,C#5,648.0,0.5,35,141.83
2428,E5,648.0,0.5,35,141.83
2429,F5,648.0,21/1000,28,141.83
2430,D5,648.0,21/1000,28,141.83
2431,A4,648.5,521/1000,34,141.83
2432,F4,648.5,521/1000,34,141.83
2433,G4,649.0,521/1000,30,141.83
2434,E4,649.0,521/1000,30,141.83
2435,D4,649.5,521/1000,28,141.83
2436,F4,649.5,521/1000,28,141.83
2437,E4,650.0,521/1000,30,141.83
2438,C#4,650.0,521/1000,30,141.83
2439,G#3,650.5,0.5,32,141.83
2440,F4,650.5,0.5,28,141.83
2441,D4,650.5,0.5,28,141.83
2442,A3,651.0,521/1000,39,141.83
2443,G#3,651.0,21/1000,32,141.83
2444,C#4,651.0,521/1000,34,141.83
2445,E4,651.0,521/1000,34,141.83
2446,F4,651.0,21/1000,28,141.83
2447,D4,651.0,21/1000,28,141.83
2448,G#3,651.5,521/1000,35,141.83
2449,F4,651.5,521/1000,30,141.83
2450,D4,651.5,521/1000,30,141.83
2451,A3,652.0,521/1000,39,141.83
2452,C#4,652.0,521/1000,34,141.83
2453,E4,652.0,521/1000,34,141.83
2454,G#3,652.5,521/1000,31,141.83
2455,F4,652.5,521/1000,31,141.83
2456,D4,652.5,521/1000,31,141.83
2457,A3,653.0,521/1000,39,141.83
2458,C#4,653.0,521/1000,34,141.83
2459,E4,653.0,521/1000,34,141.83
2460,G#3,653.5,0.5,32,141.83
2461,D4,653.5,0.5,31,141.83
2462,F4,653.5,0.5,31,141.83
2463,A3,654.0,1.0,39,141.83
2464,G#3,654.0,21/1000,32,141.83
2465,E4,654.0,1.0,34,141.83
2466,C#4,654.0,1.0,34,141.83
2467,A3,657.0,521/1000,31,141.83
2468,C4,657.0,521/1000,26,141.83
2469,E4,657.0,521/1000,26,141.83
2470,G#3,657.5,521/1000,28,141.83
2471,F4,657.5,521/1000,23,141.83
2472,D4,657.5,521/1000,23,141.83
2473,A3,658.0,521/1000,31,141.83
2474,E4,658.0,521/1000,26,141.83
2475,C4,658.0,521/1000,26,141.83
2476,G#3,658.5,521/1000,24,141.83
2477,D4,658.5,521/1000,24,141.83
2478,F4,658.5,521/1000,24,141.83
2479,A3,659.0,521/1000,31,141.83
2480,E4,659.0,521/1000,26,141.83
2481,C4,659.0,521/1000,26,141.83
2482,G#3,659.5,0.5,25,141.83
2483,F4,659.5,0.5,24,141.83
2484,D4,659.5,0.5,24,141.83
2485,A3,660.0,1.0,31,141.83
2486,G#3,660.0,21/1000,25,141.83
2487,C4,660.0,1.0,30,141.83
2488,E4,660.0,1.0,30,141.83
2489,F4,660.0,21/1000,24,141.83
2490,D4,660.0,21/1000,24,141.83
2491,E4,663.0,521/1000,59,141.83
2492,G3,663.0,521/1000,63,141.83
2493,B-3,663.0,3.0,49,141.83
2494,C4,663.0,3.0,49,141.83
2495,F4,663.5,521/1000,51,141.83
2496,A3,663.5,521/1000,57,141.83
2497,E4,664.0,521/1000,59,141.83
2498,G3,664.0,521/1000,63,141.83
2499,F4,664.5,521/1000,55,141.83
2500,A3,664.5,521/1000,49,141.83
2501,E4,665.0,521/1000,59,141.83
2502,G3,665.0,521/1000,63,141.83
2503,F4,665.5,0.5,55,141.83
2504,A3,665.5,0.5,51,141.83
2505,G3,666.0,1.0,63,141.83
2506,A3,666.0,21/1000,51,141.83
2507,E4,667.0,1.0,59,141.83
2508,F4,667.0,21/1000,55,141.83
2509,B-3,667.0,1.0,49,141.83
2510,C4,667.0,1.0,49,141.83
2511,C4,669.0,3.0,29,141.83
2512,G4,669.0,521/1000,39,141.83
2513,F#4,669.5,521/1000,35,141.83
2514,E5,670.0,3.0,31,141.83
2515,B-5,670.0,521/1000,37,141.83
2516,G4,670.0,521/1000,39,141.83
2517,A5,670.5,521/1000,32,141.83
2518,F#4,670.5,521/1000,31,141.83
2519,B-5,671.0,521/1000,37,141.83
2520,G4,671.0,521/1000,39,141.83
2521,A5,671.5,521/1000,34,141.83
2522,F#4,671.5,0.5,32,141.83
2523,B-5,672.0,521/1000,37,141.83
2524,G4,672.0,1.0,39,141.83
2525,C4,672.0,1.0,29,141.83
2526,F#4,672.0,21/1000,32,141.83
2527,A5,672.5,0.5,34,141.83
2528,B-5,673.0,1.0,37,141.83
2529,E5,673.0,1.0,31,141.83
2530,F3,675.0,0.5,40,141.83
2531,A3,675.5,0.5,30,141.83
2532,F4,676.0,2.0,50,141.83
2533,C4,676.0,0.5,33,141.83
2534,A3,676.5,0.5,30,141.83
2535,C4,677.0,0.5,34,141.83
2536,A3,677.5,0.5,30,141.83
2537,A4,678.0,1.0,47,141.83
2538,F3,678.0,0.5,40,141.83
2539,C4,678.5,0.5,29,141.83
2540,C5,679.0,2.0,52,141.83
2541,E-4,679.0,0.5,31,141.83
2542,C4,679.5,0.5,27,141.83
2543,E-4,680.0,0.5,31,141.83
2544,C4,680.5,0.5,28,141.83
2545,A4,681.0,1.0,46,141.83
2546,F3,681.0,0.5,40,141.83
2547,B-3,681.5,0.5,30,141.83
2548,B-4,682.0,2.0,50,141.83
2549,D4,682.0,0.5,33,141.83
2550,B-3,682.5,0.5,30,141.83
2551,D4,683.0,0.5,33,141.83
2552,B-3,683.5,0.5,30,141.83
2553,G5,684.0,1.0,47,141.83
2554,F3,684.0,0.5,40,141.83
2555,G3,684.5,0.5,23,141.83
2556,F5,685.0,0.5,47,141.83
2557,B-3,685.0,0.5,28,141.83
2558,E5,685.5,247/500,44,141.83
2559,G3,685.5,0.5,24,141.83
2560,E5,686.0,1.0,44,141.83
2561,B-3,686.0,0.5,29,141.83
2562,G3,686.5,0.5,24,141.83
2563,F3,687.0,1.0,30,141.83
2564,A3,687.0,1.0,30,141.83
2565,F5,688.0,1.0,50,141.83
2566,A4,689.0,1.0,46,141.83
2567,D5,690.0,1.0,46,141.83
2568,G4,691.0,1.0,50,141.83
2569,C5,692.0,1.5,54,141.83
2570,F3,693.0,1.0,47,141.83
2571,A4,693.5,0.5,45,141.83
2572,F4,694.0,3.0,50,141.83
2573,A2,694.0,1.0,44,141.83
2574,D3,695.0,1.0,48,141.83
2575,G2,696.0,1.0,48,141.83
2576,G4,697.0,3.0,50,141.83
2577,F4,697.0,1.0,50,141.83
2578,C3,697.0,1.5,49,141.83
2579,E4,698.0,0.125,42,141.83
2580,F4,698.125,0.125,37,141.83
2581,E4,698.25,0.25,48,141.83
2582,D4,698.5,0.5,48,141.83
2583,A2,698.5,0.5,47,141.83
2584,E4,699.0,1.0,50,141.83
2585,F2,699.0,1.0,52,141.83
2586,A4,700.0,1.0,48,141.83
2587,F4,700.0,3.0,48,141.83
2588,D3,700.0,1.0,40,141.83
2589,B-4,701.0,1.0,52,141.83
2590,B-2,701.0,1.0,44,141.83
2591,D5,702.0,124/125,55,141.83
2592,A2,702.0,1.0,47,141.83
2593,D5,703.0,0.5,58,141.83
2594,F4,703.0,1.0,48,141.83
2595,C5,703.5,0.5,57,141.83
2596,B-4,704.0,0.5,56,141.83
2597,D3,704.0,1.0,40,141.83
2598,A4,704.5,0.5,54,141.83
2599,G4,705.0,0.5,53,141.83
2600,B-2,705.0,1.0,40,141.83
2601,F4,705.5,0.5,51,141.83
2602,G4,706.0,1.0,54,141.83
2603,B-4,707.0,0.25,50,141.83
2604,C3,707.0,1.0,41,141.83
2605,F2,708.0,1.0,43,141.83
2606,B-3,708.0,1.0,54,141.83
2607,E4,708.0,1.0,54,141.83
2608,F4,709.0,1.0,56,141.83
2609,A3,709.0,1.0,56,141.83
2610,C5,710.0,0.75,36,141.83
2611,A4,710.0,0.75,36,141.83
2612,G4,710.75,0.25,32,141.83
2613,B-4,710.75,0.25,32,141.83
2614,C6,711.0,0.75,50,141.83
2615,A4,711.0,0.25,36,141.83
2616,F4,711.0,0.25,36,141.83
2617,B-5,711.75,0.25,44,141.83
2618,A5,712.0,0.25,50,141.83
2619,F4,712.0,0.25,36,141.83
2620,A4,712.0,0.25,36,141.83
2621,A5,713.0,0.25,50,141.83
2622,F4,713.0,0.75,33,141.83
2623,A4,713.0,0.75,33,141.83
2624,G4,713.75,0.25,30,141.83
2625,C4,713.75,0.25,30,141.83
2626,A5,714.0,0.75,47,141.83
2627,F4,714.0,0.25,34,141.83
2628,A3,714.0,0.25,34,141.83
2629,G5,714.75,0.25,42,141.83
2630,F5,715.0,0.25,48,141.83
2631,F4,715.0,0.25,32,141.83
2632,A3,715.0,0.25,32,141.83
2633,F5,716.0,0.25,44,141.83
2634,F4,716.0,1.0,32,141.83
2635,A3,716.0,1.0,32,141.83
2636,F5,717.0,1.0,44,141.83
2637,C4,717.0,0.25,32,141.83
2638,G4,717.0,0.25,32,141.83
2639,E5,718.0,0.25,46,141.83
2640,G5,718.0,0.25,46,141.83
2641,G4,718.0,0.25,32,141.83
2642,C4,718.0,0.25,32,141.83
2643,E5,719.0,0.25,44,141.83
2644,G5,719.0,0.25,44,141.83
2645,C4,719.0,0.25,32,141.83
2646,G4,719.0,0.25,32,141.83
2647,G5,720.0,0.25,44,141.83
2648,E5,720.0,0.25,44,141.83
2649,G4,720.0,1.0,36,141.83
2650,C4,720.0,1.0,36,141.83
2651,E5,721.0,1.0,50,141.83
2652,G5,721.0,1.0,50,141.83
2653,A4,721.0,1.0,32,141.83
2654,F4,721.0,1.0,32,141.83
2655,A5,722.0,1.0,44,141.83
2656,F5,722.0,1.0,44,141.83
2657,C5,722.0,0.75,36,141.83
2658,A4,722.0,0.75,36,141.83
2659,B-4,722.75,0.25,32,141.83
2660,G4,722.75,0.25,32,141.83
2661,C6,723.0,0.25,50,141.83
2662,F4,723.0,0.25,36,141.83
2663,A4,723.0,0.25,36,141.83
2664,D6,723.25,0.25,44,141.83
2665,C6,723.5,0.25,44,141.83
2666,B-5,723.75,0.25,44,141.83
2667,A5,724.0,0.25,50,141.83
2668,F4,724.0,0.25,36,141.83
2669,A4,724.0,0.25,36,141.83
2670,A5,725.0,0.25,50,141.83
2671,A4,725.0,0.75,33,141.83
2672,F4,725.0,0.75,33,141.83
2673,G4,725.75,0.25,30,141.83
2674,C4,725.75,0.25,30,141.83
2675,A5,726.0,0.25,47,141.83
2676,F4,726.0,0.25,34,141.83
2677,A3,726.0,0.25,34,141.83
2678,B-5,726.25,0.25,42,141.83
2679,A5,726.5,0.25,42,141.83
2680,G5,726.75,0.25,42,141.83
2681,F5,727.0,0.25,48,141.83
2682,A3,727.0,0.25,32,141.83
2683,F4,727.0,0.25,32,141.83
2684,F5,728.0,0.25,44,141.83
2685,A3,728.0,0.25,32,141.83
2686,F4,728.0,0.25,32,141.83
2687,F5,729.0,0.25,44,141.83
2688,G4,729.0,1.0,33,141.83
2689,C4,729.0,1.0,33,141.83
2690,G5,730.0,1.0,49,141.83
2691,B-5,731.0,0.25,44,141.83
2692,C4,731.0,1.0,32,141.83
2693,G4,731.0,1.0,32,141.83
2694,F4,732.0,1.0,39,141.83
2695,E5,732.0,1.0,40,141.83
2696,B-4,732.0,1.0,40,141.83
2697,A4,733.0,1.0,43,141.83
2698,F5,733.0,1.0,43,141.83
2699,B-4,734.0,1.0,30,141.83
2700,C4,734.0,1.0,30,141.83
2701,E4,734.0,1.0,30,141.83
2702,C6,735.0,1.0,44,141.83
2703,A4,735.0,1.0,35,141.83
2704,F4,735.0,1.0,35,141.83
2705,F5,736.0,1.0,48,141.83
2706,B-3,737.0,1.0,27,141.83
2707,E3,737.0,1.0,27,141.83
2708,C3,737.0,1.0,27,141.83
2709,C5,738.0,1.0,39,141.83
2710,F3,738.0,1.0,31,141.83
2711,A3,738.0,1.0,31,141.83
2712,F4,739.0,1.0,43,141.83
2713,C#2,740.0,1.0,56,141.83
2714,C#3,740.0,1.0,56,141.83
2715,C#4,741.0,1.0,80,141.83
2716,D3,741.0,0.5,61,141.83
2717,D2,741.0,0.5,61,141.83
2718,F3,741.5,0.5,60,141.83
2719,D4,742.0,1.5,85,141.83
2720,A3,742.0,0.5,60,141.83
2721,F3,742.5,0.5,60,141.83
2722,A3,743.0,0.5,63,141.83
2723,F4,743.5,0.25,70,141.83
2724,F3,743.5,0.5,60,141.83
2725,A4,743.75,0.25,72,141.83
2726,D5,744.0,0.25,84,141.83
2727,D3,744.0,0.5,65,141.83
2728,A4,744.5,0.25,71,141.83
2729,F3,744.5,0.5,60,141.83
2730,D5,744.75,0.25,73,141.83
2731,F5,745.0,0.25,86,141.83
2732,A3,745.0,0.5,63,141.83
2733,D5,745.5,0.25,71,141.83
2734,F3,745.5,0.5,60,141.83
2735,F5,745.75,0.25,73,141.83
2736,A5,746.0,0.25,87,141.83
2737,A3,746.0,0.5,60,141.83
2738,A5,746.5,0.5,80,141.83
2739,F3,746.5,0.5,62,141.83
2740,F5,747.0,0.5,80,141.83
2741,E2,747.0,0.25,66,141.83
2742,E3,747.0,0.25,66,141.83
2743,D5,747.5,0.25,80,141.83
2744,C#5,747.75,83/1000,70,141.83
2745,E5,747.833,83/1000,70,141.83
2746,G5,747.917,83/1000,70,141.83
2747,B-5,748.0,1.5,90,141.83
2748,G3,748.0,0.25,63,141.83
2749,E3,748.0,0.25,63,141.83
2750,B-3,748.0,0.25,63,141.83
2751,C#4,748.0,0.25,63,141.83
2752,A5,749.5,11/40,71,141.83
2753,G5,749.75,11/40,68,141.83
2754,F5,750.0,11/40,68,141.83
2755,E3,750.0,0.25,66,141.83
2756,E2,750.0,0.25,66,141.83
2757,E5,750.25,11/40,68,141.83
2758,D5,750.5,11/40,69,141.83
2759,C#5,750.75,0.25,72,141.83
2760,B-5,751.0,1.5,90,141.83
2761,C#5,751.0,1/40,72,141.83
2762,C#4,751.0,0.25,63,141.83
2763,E3,751.0,0.25,63,141.83
2764,G3,751.0,0.25,63,141.83
2765,B-3,751.0,0.25,63,141.83
2766,A5,752.5,11/40,71,141.83
2767,G5,752.75,11/40,68,141.83
2768,F5,753.0,11/40,68,141.83
2769,F3,753.0,0.5,66,141.83
2770,E5,753.25,11/40,68,141.83
2771,D5,753.5,11/40,69,141.83
2772,A3,753.5,0.5,60,141.83
2773,C#5,753.75,0.25,72,141.83
2774,D5,754.0,1.5,88,141.83
2775,C#5,754.0,1/40,72,141.83
2776,D4,754.0,0.5,60,141.83
2777,A3,754.5,0.5,60,141.83
2778,D4,755.0,0.5,63,141.83
2779,F4,755.5,0.25,70,141.83
2780,A3,755.5,0.5,60,141.83
2781,A4,755.75,0.25,72,141.83
2782,D5,756.0,0.25,84,141.83
2783,F3,756.0,0.5,65,141.83
2784,A4,756.5,0.25,71,141.83
2785,A3,756.5,0.5,60,141.83
2786,D5,756.75,0.25,73,141.83
2787,F5,757.0,0.25,86,141.83
2788,D4,757.0,0.5,63,141.83
2789,D5,757.5,0.25,71,141.83
2790,A3,757.5,0.5,60,141.83
2791,F5,757.75,0.25,73,141.83
2792,A5,758.0,0.25,87,141.83
2793,D4,758.0,0.5,60,141.83
2794,A5,758.5,0.5,80,141.83
2795,A3,758.5,0.5,62,141.83
2796,F5,759.0,0.5,80,141.83
2797,D2,759.0,0.25,66,141.83
2798,D3,759.0,0.25,66,141.83
2799,D5,759.5,0.5,80,141.83
2800,D5,760.0,1.5,79,141.83
2801,G#5,760.0,1.5,79,141.83
2802,F5,760.0,1.5,79,141.83
2803,B4,760.0,1.5,79,141.83
2804,G#3,760.0,0.25,63,141.83
2805,D3,760.0,0.25,63,141.83
2806,B3,760.0,0.25,63,141.83
2807,F3,760.0,0.25,63,141.83
2808,G5,761.5,11/40,71,141.83
2809,F5,761.75,11/40,68,141.83
2810,E-5,762.0,11/40,68,141.83
2811,D2,762.0,0.25,66,141.83
2812,D3,762.0,0.25,66,141.83
2813,D5,762.25,11/40,68,141.83
2814,C5,762.5,11/40,69,141.83
2815,B4,762.75,0.25,72,141.83
2816,G#5,763.0,1.5,90,141.83
2817,B4,763.0,1/40,72,141.83
2818,F3,763.0,0.25,63,141.83
2819,B3,763.0,0.25,63,141.83
2820,G#3,763.0,0.25,63,141.83
2821,D3,763.0,0.25,63,141.83
2822,G5,764.5,11/40,71,141.83
2823,F5,764.75,11/40,68,141.83
2824,E-5,765.0,11/40,68,141.83
2825,E-3,765.0,0.5,66,141.83
2826,D5,765.25,11/40,68,141.83
2827,C5,765.5,11/40,69,141.83
2828,G3,765.5,0.5,60,141.83
2829,B4,765.75,0.25,72,141.83
2830,C5,766.0,1.5,88,141.83
2831,B4,766.0,1/40,72,141.83
2832,C4,766.0,0.5,60,141.83
2833,G3,766.5,0.5,60,141.83
2834,C4,767.0,0.5,63,141.83
2835,E-4,767.5,0.25,70,141.83
2836,G3,767.5,0.5,60,141.83
2837,G4,767.75,0.25,72,141.83
2838,C5,768.0,0.25,84,141.83
2839,E-3,768.0,0.5,65,141.83
2840,G4,768.5,0.25,71,141.83
2841,G3,768.5,0.5,60,141.83
2842,C5,768.75,0.25,73,141.83
2843,E-5,769.0,0.25,86,141.83
2844,C4,769.0,0.5,63,141.83
2845,C5,769.5,0.25,71,141.83
2846,G3,769.5,0.5,60,141.83
2847,E-5,769.75,0.25,73,141.83
2848,G5,770.0,0.25,87,141.83
2849,C4,770.0,0.5,60,141.83
2850,G5,770.5,0.5,80,141.83
2851,G3,770.5,0.5,62,141.83
2852,E-5,771.0,0.5,80,141.83
2853,E-2,771.0,0.25,71,141.83
2854,C5,771.5,0.5,80,141.83
2855,C5,772.0,1.5,79,141.83
2856,F#5,772.0,1.5,79,141.83
2857,E-5,772.0,1.5,79,141.83
2858,A4,772.0,1.5,79,141.83
2859,A3,772.0,0.25,63,141.83
2860,F#3,772.0,0.25,63,141.83
2861,C4,772.0,0.25,63,141.83
2862,E-3,772.0,0.25,63,141.83
2863,F5,773.5,11/40,71,141.83
2864,E-5,773.75,11/40,68,141.83
2865,C#5,774.0,11/40,68,141.83
2866,E-2,774.0,0.25,71,141.83
2867,C5,774.25,11/40,68,141.83
2868,B-4,774.5,11/40,69,141.83
2869,A4,774.75,0.25,72,141.83
2870,F#5,775.0,1.5,90,141.83
2871,A4,775.0,1/40,72,141.83
2872,E-3,775.0,0.25,63,141.83
2873,C4,775.0,0.25,63,141.83
2874,A3,775.0,0.25,63,141.83
2875,F#3,775.0,0.25,63,141.83
2876,F5,776.5,11/40,71,141.83
2877,E-5,776.75,11/40,68,141.83
2878,C#5,777.0,11/40,68,141.83
2879,C#3,777.0,0.5,66,141.83
2880,C5,777.25,11/40,68,141.83
2881,B-4,777.5,11/40,69,141.83
2882,F3,777.5,0.5,60,141.83
2883,A4,777.75,0.25,72,141.83
2884,B-4,778.0,1.25,88,141.83
2885,A4,778.0,1/40,72,141.83
2886,B-3,778.0,0.5,60,141.83
2887,F3,778.5,0.5,60,141.83
2888,B-3,779.0,0.5,63,141.83
2889,F4,779.25,0.25,69,141.83
2890,B-4,779.5,0.25,74,141.83
2891,F3,779.5,0.5,60,141.83
2892,F4,779.75,0.25,70,141.83
2893,C#5,780.0,0.25,74,141.83
2894,C#3,780.0,0.5,66,141.83
2895,B-4,780.25,0.25,71,141.83
2896,C#5,780.5,0.25,75,141.83
2897,F3,780.5,0.5,60,141.83
2898,B-4,780.75,0.25,70,141.83
2899,F5,781.0,0.25,74,141.83
2900,B-3,781.0,0.5,60,141.83
2901,C#5,781.25,0.25,71,141.83
2902,F5,781.5,0.25,74,141.83
2903,F3,781.5,0.5,60,141.83
2904,C#5,781.75,0.25,71,141.83
2905,B-5,782.0,1.0,91,141.83
2906,B-3,782.0,0.5,63,141.83
2907,F3,782.5,0.5,60,141.83
2908,C3,783.0,0.5,66,141.83
2909,F3,783.5,0.5,60,141.83
2910,A4,784.0,1.25,88,141.83
2911,A3,784.0,0.5,60,141.83
2912,F3,784.5,0.5,60,141.83
2913,A3,785.0,0.5,63,141.83
2914,F4,785.25,0.25,69,141.83
2915,A4,785.5,0.25,74,141.83
2916,F3,785.5,0.5,60,141.83
2917,F4,785.75,0.25,70,141.83
2918,C5,786.0,0.25,74,141.83
2919,C3,786.0,0.5,66,141.83
2920,A4,786.25,0.25,71,141.83
2921,C5,786.5,0.25,75,141.83
2922,F3,786.5,0.5,60,141.83
2923,A4,786.75,0.25,70,141.83
2924,F5,787.0,0.25,74,141.83
2925,A3,787.0,0.5,60,141.83
2926,C5,787.25,0.25,71,141.83
2927,F5,787.5,0.25,74,141.83
2928,F3,787.5,0.5,60,141.83
2929,C5,787.75,0.25,71,141.83
2930,A5,788.0,1.0,91,141.83
2931,A3,788.0,0.5,63,141.83
2932,F3,788.5,0.5,60,141.83
2933,B2,789.0,0.5,66,141.83
2934,F3,789.5,0.5,60,141.83
2935,G#4,790.0,1.25,88,141.83
2936,G#3,790.0,0.5,60,141.83
2937,F3,790.5,0.5,60,141.83
2938,G#3,791.0,0.5,63,141.83
2939,F4,791.25,0.25,69,141.83
2940,G#4,791.5,0.25,74,141.83
2941,F3,791.5,0.5,60,141.83
2942,F4,791.75,0.25,70,141.83
2943,D5,792.0,0.25,74,141.83
2944,B2,792.0,0.5,66,141.83
2945,G#4,792.25,0.25,71,141.83
2946,D5,792.5,0.25,75,141.83
2947,F3,792.5,0.5,60,141.83
2948,G#4,792.75,0.25,70,141.83
2949,F5,793.0,0.25,74,141.83
2950,G#3,793.0,0.5,60,141.83
2951,D5,793.25,0.25,71,141.83
2952,F5,793.5,0.25,74,141.83
2953,F3,793.5,0.5,60,141.83
2954,D5,793.75,0.25,71,141.83
2955,G#5,794.0,1.0,91,141.83
2956,G#3,794.0,0.5,63,141.83
2957,F3,794.5,0.5,60,141.83
2958,F5,795.0,0.75,81,141.83
2959,C3,795.0,0.5,66,141.83
2960,E3,795.5,0.5,60,141.83
2961,C5,795.75,83/1000,70,141.83
2962,E5,795.833,83/1000,70,141.83
2963,G5,795.917,83/1000,70,141.83
2964,C6,796.0,2.0,90,141.83
2965,G3,796.0,0.5,60,141.83
2966,C4,796.5,0.5,60,141.83
2967,F3,797.0,0.5,63,141.83
2968,G#3,797.5,0.5,60,141.83
2969,B-5,798.0,271/1000,72,141.83
2970,C3,798.0,0.5,66,141.83
2971,G#5,798.25,271/1000,72,141.83
2972,G5,798.5,271/1000,73,141.83
2973,E3,798.5,0.5,60,141.83
2974,F5,798.75,0.25,76,141.83
2975,C6,799.0,2.0,90,141.83
2976,G3,799.0,0.5,60,141.83
2977,C4,799.5,0.5,60,141.83
2978,F3,800.0,0.5,63,141.83
2979,G#3,800.5,0.5,60,141.83
2980,B-5,801.0,271/1000,72,141.83
2981,C4,801.0,1.5,72,141.83
2982,G#5,801.25,271/1000,72,141.83
2983,G5,801.5,271/1000,73,141.83
2984,F5,801.75,0.25,76,141.83
2985,C5,802.0,1.5,90,141.83
2986,C#4,802.5,271/1000,63,141.83
2987,C4,802.75,271/1000,62,141.83
2988,B-3,803.0,271/1000,60,141.83
2989,G#3,803.25,271/1000,60,141.83
2990,C#5,803.5,271/1000,79,141.83
2991,G3,803.5,271/1000,59,141.83
2992,C5,803.75,271/1000,78,141.83
2993,F3,803.75,0.25,57,141.83
2994,B-4,804.0,271/1000,76,141.83
2995,C4,804.0,0.25,63,141.83
2996,F3,804.0,21/1000,57,141.83
2997,G#4,804.25,271/1000,75,141.83
2998,G4,804.5,271/1000,74,141.83
2999,F4,804.75,0.25,72,141.83
3000,C5,805.0,0.25,79,141.83
3001,F4,805.0,21/1000,72,141.83
3002,C3,805.0,0.25,52,141.83
3003,C2,805.0,0.25,52,141.83
3004,C4,806.0,0.25,72,141.83
3005,F2,806.625,0.125,35,141.83
3006,C3,806.75,0.125,35,141.83
3007,F3,807.0,1.0,35,141.83
3008,C4,807.875,0.125,41,141.83
3009,A4,808.0,0.25,45,141.83
3010,A4,809.0,0.25,43,141.83
3011,C3,809.625,0.125,34,141.83
3012,G3,809.75,0.125,34,141.83
3013,A4,810.0,0.25,43,141.83
3014,B-3,810.0,1.0,35,141.83
3015,E4,810.875,0.125,42,141.83
3016,C5,811.0,1.5,45,141.83
3017,B-4,812.5,0.5,41,141.83
3018,G4,813.0,1.0,41,141.83
3019,F2,813.0,1.0,35,141.83
3020,A3,814.0,1.0,45,141.83
3021,G4,814.0,0.5,45,141.83
3022,A2,814.0,1.0,31,141.83
3023,F4,814.5,0.5,41,141.83
3024,C3,815.0,1.0,31,141.83
3025,F4,815.0,1.5,45,141.83
3026,C4,815.0,1.5,45,141.83
3027,F3,816.0,1.0,35,141.83
3028,E4,816.5,0.5,45,141.83
3029,G4,816.5,0.5,45,141.83
3030,F2,817.0,1.0,31,141.83
3031,G4,817.0,2.0,49,141.83
3032,E4,817.0,2.0,49,141.83
3033,D3,819.0,2.0,35,141.83
3034,F4,819.0,1.0,45,141.83
3035,A4,819.0,1.0,45,141.83
3036,B-4,820.0,1.5,45,141.83
3037,F3,820.0,1.0,33,141.83
3038,B-3,820.0,1.0,33,141.83
3039,C5,821.5,0.125,46,141.83
3040,B-4,821.625,0.125,42,141.83
3041,A4,821.75,0.125,42,141.83
3042,B-4,821.875,83/1000,45,141.83
3043,C5,822.0,0.5,49,141.83
3044,E3,822.0,2.0,38,141.83
3045,D5,822.5,0.5,47,141.83
3046,D5,823.0,0.5,55,141.83
3047,C4,823.0,1.0,35,141.83
3048,G3,823.0,1.0,35,141.83
3049,C5,823.5,0.5,49,141.83
3050,B4,824.0,0.5,52,141.83
3051,C5,824.5,0.5,45,141.83
3052,B-4,825.0,0.5,50,141.83
3053,F3,825.0,1.0,41,141.83
3054,G4,825.5,0.5,45,141.83
3055,G#4,826.0,0.5,49,141.83
3056,D3,826.0,1.0,34,141.83
3057,F3,826.0,1.0,34,141.83
3058,A4,826.5,0.5,45,141.83
3059,B-4,827.0,0.5,50,141.83
3060,B-2,827.0,1.0,32,141.83
3061,G3,827.0,1.0,32,141.83
3062,A4,827.5,0.5,45,141.83
3063,C5,828.0,0.5,49,141.83
3064,C3,828.0,1.0,38,141.83
3065,E3,828.0,1.0,38,141.83
3066,B-4,828.5,0.5,45,141.83
3067,A4,829.0,0.5,52,141.83
3068,G4,829.5,0.5,45,141.83
3069,F4,830.0,0.5,48,141.83
3070,E4,830.5,0.5,45,141.83
3071,D4,831.0,0.5,46,141.83
3072,F3,831.0,333/1000,39,141.83
3073,A3,831.333,333/1000,31,141.83
3074,C4,831.5,0.5,45,141.83
3075,C4,831.667,333/1000,31,141.83
3076,F3,832.0,333/1000,39,141.83
3077,G#4,832.0,0.5,44,141.83
3078,G#5,832.0,0.5,44,141.83
3079,A3,832.333,333/1000,32,141.83
3080,A4,832.5,0.5,38,141.83
3081,A5,832.5,0.5,38,141.83
3082,C4,832.667,333/1000,32,141.83
3083,F3,833.0,333/1000,40,141.83
3084,G#4,833.0,0.5,44,141.83
3085,G#5,833.0,0.5,44,141.83
3086,A3,833.333,333/1000,32,141.83
3087,A4,833.5,0.5,36,141.83
3088,A5,833.5,0.5,36,141.83
3089,C4,833.667,333/1000,32,141.83
3090,E3,834.0,333/1000,43,141.83
3091,G#4,834.0,0.5,46,141.83
3092,G#5,834.0,0.5,46,141.83
3093,G3,834.333,333/1000,36,141.83
3094,A4,834.5,0.5,43,141.83
3095,A5,834.5,0.5,43,141.83
3096,C4,834.667,333/1000,35,141.83
3097,E3,835.0,333/1000,40,141.83
3098,B4,835.0,0.5,52,141.83
3099,B5,835.0,0.5,52,141.83
3100,G3,835.333,333/1000,33,141.83
3101,C5,835.5,0.5,48,141.83
3102,C6,835.5,0.5,48,141.83
3103,C4,835.667,333/1000,29,141.83
3104,E3,836.0,333/1000,37,141.83
3105,B4,836.0,0.5,52,141.83
3106,B5,836.0,0.5,52,141.83
3107,B-3,836.333,333/1000,29,141.83
3108,C5,836.5,0.5,41,141.83
3109,C6,836.5,0.5,41,141.83
3110,C4,836.667,333/1000,29,141.83
3111,B-5,837.0,0.5,49,141.83
3112,F3,837.0,1.0,32,141.83
3113,A3,837.0,1.0,32,141.83
3114,G5,837.5,0.5,39,141.83
3115,G5,838.0,0.5,45,141.83
3116,A3,838.0,1.0,31,141.83
3117,F5,838.5,0.5,41,141.83
3118,G5,839.0,0.5,45,141.83
3119,C5,839.0,1.0,41,141.83
3120,C4,839.0,1.0,31,141.83
3121,F5,839.5,0.5,41,141.83
3122,E5,840.0,1.0,41,141.83
3123,A5,840.0,0.5,45,141.83
3124,F4,840.0,1.0,35,141.83
3125,G5,840.5,0.5,45,141.83
3126,E5,841.0,2.0,49,141.83
3127,G5,841.0,1.5,49,141.83
3128,C4,841.0,1.0,31,141.83
3129,F3,842.0,1.0,31,141.83
3130,G#5,842.5,0.5,49,141.83
3131,D4,843.0,0.5,35,141.83
3132,A5,843.0,1.0,45,141.83
3133,F5,843.0,1.0,45,141.83
3134,F4,843.5,0.5,31,141.83
3135,B-5,844.0,1.5,49,141.83
3136,B-4,844.0,0.5,32,141.83
3137,F4,844.5,0.5,33,141.83
3138,D4,845.0,0.5,35,141.83
3139,C6,845.5,0.125,50,141.83
3140,F4,845.5,0.5,38,141.83
3141,B-5,845.625,0.125,46,141.83
3142,A5,845.75,0.125,46,141.83
3143,B-5,845.875,83/1000,49,141.83
3144,C6,846.0,0.5,53,141.83
3145,E4,846.0,0.5,40,141.83
3146,D6,846.5,0.5,51,141.83
3147,G4,846.5,0.5,35,141.83
3148,D6,847.0,0.5,60,141.83
3149,C5,847.0,0.5,42,141.83
3150,C6,847.5,0.5,53,141.83
3151,G4,847.5,0.5,35,141.83
3152,B5,848.0,0.5,57,141.83
3153,E4,848.0,0.5,35,141.83
3154,C6,848.5,0.5,49,141.83
3155,G4,848.5,0.5,34,141.83
3156,B-5,849.0,0.5,55,141.83
3157,F4,849.0,1.0,41,141.83
3158,G5,849.5,0.5,49,141.83
3159,G#5,850.0,0.5,53,141.83
3160,B-3,850.0,1.0,37,141.83
3161,G4,850.0,1.0,37,141.83
3162,A5,850.5,0.5,49,141.83
3163,C6,851.0,0.5,55,141.83
3164,C4,851.0,1.0,35,141.83
3165,B-4,851.0,1.0,35,141.83
3166,B-5,851.5,0.5,49,141.83
3167,G5,852.0,0.5,53,141.83
3168,A4,852.0,1.0,34,141.83
3169,F4,852.0,1.0,34,141.83
3170,E5,852.5,0.5,49,141.83
3171,F5,853.0,0.5,54,141.83
3172,A4,853.0,1.0,40,141.83
3173,C5,853.5,0.5,35,141.83
3174,F4,854.0,1.0,37,141.83
3175,C5,854.5,0.25,35,141.83
3176,G4,855.0,1.0,40,141.83
3177,C5,855.5,0.25,35,141.83
3178,E4,856.0,1.0,38,141.83
3179,B-4,856.0,0.25,38,141.83
3180,C5,856.0,0.25,38,141.83
3181,C5,856.5,0.25,32,141.83
3182,B-4,856.5,0.25,32,141.83
3183,C4,857.0,1.0,38,141.83
3184,B-4,857.5,0.25,32,141.83
3185,C5,857.5,0.25,32,141.83
3186,F3,858.0,1.0,40,141.83
3187,C5,858.5,0.25,32,141.83
3188,B-4,858.5,0.25,32,141.83
3189,G#3,859.0,1.0,40,141.83
3190,G#4,859.0,0.25,38,141.83
3191,C5,859.0,0.25,38,141.83
3192,G#4,859.5,0.25,32,141.83
3193,C5,859.5,0.25,32,141.83
3194,F3,860.0,1.0,37,141.83
3195,G#4,860.5,0.25,32,141.83
3196,C5,860.5,0.25,32,141.83
3197,G3,861.0,1.0,40,141.83
3198,C5,861.5,0.25,32,141.83
3199,G#4,861.5,0.25,32,141.83
3200,E3,862.0,1.0,38,141.83
3201,C5,862.0,0.25,38,141.83
3202,B-4,862.0,0.25,38,141.83
3203,C5,862.5,0.25,32,141.83
3204,B-4,862.5,0.25,32,141.83
3205,C3,863.0,1.0,38,141.83
3206,C5,863.5,0.25,32,141.83
3207,B-4,863.5,0.25,32,141.83
3208,F2,864.0,1.0,64,141.83
3209,F3,864.0,1.0,64,141.83
3210,B-4,864.5,0.25,32,141.83
3211,C5,864.5,0.25,32,141.83
3212,G#3,865.0,1.0,40,141.83
3213,C5,865.0,0.25,63,141.83
3214,G#4,865.0,0.25,63,141.83
3215,G#4,865.5,0.25,50,141.83
3216,C5,865.5,0.25,50,141.83
3217,C4,866.0,1.0,40,141.83
3218,C5,866.5,0.25,33,141.83
3219,G#4,866.5,0.25,33,141.83
3220,B-3,867.0,1.0,64,141.83
3221,B-2,867.0,1.0,64,141.83
3222,C5,867.5,0.25,33,141.83
3223,G#4,867.5,0.25,33,141.83
3224,C#4,868.0,1.0,40,141.83
3225,C#5,868.0,0.25,63,141.83
3226,G#4,868.0,0.25,63,141.83
3227,G#4,868.5,0.25,50,141.83
3228,C#5,868.5,0.25,50,141.83
3229,F4,869.0,1.0,40,141.83
3230,G#4,869.5,0.25,33,141.83
3231,C#5,869.5,0.25,33,141.83
3232,E-3,870.0,1.0,64,141.83
3233,E-2,870.0,1.0,64,141.83
3234,C#5,870.5,0.25,33,141.83
3235,G#4,870.5,0.25,33,141.83
3236,G3,871.0,1.0,40,141.83
3237,G4,871.0,0.25,63,141.83
3238,C#5,871.0,0.25,63,141.83
3239,C#5,871.5,0.25,50,141.83
3240,G4,871.5,0.25,50,141.83
3241,B-3,872.0,1.0,40,141.83
3242,C#5,872.5,0.25,33,141.83
3243,G4,872.5,0.25,33,141.83
3244,G#2,873.0,1.0,64,141.83
3245,G#3,873.0,1.0,64,141.83
3246,G4,873.5,0.25,33,141.83
3247,C#5,873.5,0.25,33,141.83
3248,C4,874.0,1.0,40,141.83
3249,G4,874.0,0.25,63,141.83
3250,C5,874.0,0.25,63,141.83
3251,C5,874.5,0.25,50,141.83
3252,G4,874.5,0.25,50,141.83
3253,E-4,875.0,1.0,40,141.83
3254,G4,875.5,0.25,33,141.83
3255,C5,875.5,0.25,33,141.83
3256,C#2,876.0,1.0,64,141.83
3257,C#3,876.0,1.0,64,141.83
3258,C5,876.5,0.25,33,141.83
3259,G4,876.5,0.25,33,141.83
3260,C#4,877.0,1.0,40,141.83
3261,F4,877.0,0.25,63,141.83
3262,C5,877.0,0.25,63,141.83
3263,F4,877.5,0.25,50,141.83
3264,C5,877.5,0.25,50,141.83
3265,G3,878.0,1.0,64,141.83
3266,G2,878.0,1.0,64,141.83
3267,F4,878.5,0.25,33,141.83
3268,C5,878.5,0.25,33,141.83
3269,G4,879.0,1.0,40,141.83
3270,F4,879.0,0.25,63,141.83
3271,B-4,879.0,0.25,63,141.83
3272,B-4,879.5,0.25,50,141.83
3273,F4,879.5,0.25,50,141.83
3274,C2,880.0,1.0,64,141.83
3275,C3,880.0,1.0,64,141.83
3276,F4,880.5,0.25,33,141.83
3277,B-4,880.5,0.25,33,141.83
3278,C4,881.0,1.0,40,141.83
3279,B-4,881.0,0.25,63,141.83
3280,E4,881.0,0.25,63,141.83
3281,E4,881.5,0.25,50,141.83
3282,B-4,881.5,0.25,50,141.83
3283,C#4,882.0,1.0,45,141.83
3284,E4,882.5,0.25,33,141.83
3285,B-4,882.5,0.25,33,141.83
3286,C4,883.0,1.0,39,141.83
3287,G#4,883.5,0.25,33,141.83
3288,F4,883.5,0.25,33,141.83
3289,B3,884.0,1.0,39,141.83
3290,G#4,884.5,0.25,33,141.83
3291,F4,884.5,0.25,33,141.83
3292,C4,885.0,1.0,44,141.83
3293,F4,885.5,0.25,33,141.83
3294,G#4,885.5,0.25,33,141.83
3295,E4,886.0,0.5,35,141.83
3296,G4,886.0,0.5,35,141.83
3297,G#4,886.5,521/1000,34,141.83
3298,C5,886.5,521/1000,34,141.83
3299,B-4,887.0,521/1000,30,141.83
3300,G4,887.0,521/1000,30,141.83
3301,B3,887.5,0.5,41,141.83
3302,F4,887.5,521/1000,28,141.83
3303,G#4,887.5,521/1000,28,141.83
3304,C4,888.0,1.0,44,141.83
3305,E4,888.0,521/1000,30,141.83
3306,G4,888.0,521/1000,30,141.83
3307,G#4,888.5,0.5,28,141.83
3308,F4,888.5,0.5,28,141.83
3309,E4,889.0,0.5,35,141.83
3310,G4,889.0,0.5,35,141.83
3311,G#4,889.0,21/1000,28,141.83
3312,F4,889.0,21/1000,28,141.83
3313,C5,889.5,521/1000,34,141.83
3314,G#4,889.5,521/1000,34,141.83
3315,G4,890.0,521/1000,30,141.83
3316,B-4,890.0,521/1000,30,141.83
3317,B3,890.5,0.5,32,141.83
3318,F4,890.5,521/1000,28,141.83
3319,G#4,890.5,521/1000,28,141.83
3320,C4,891.0,521/1000,39,141.83
3321,B3,891.0,21/1000,32,141.83
3322,G4,891.0,521/1000,30,141.83
3323,E4,891.0,521/1000,30,141.83
3324,B3,891.5,521/1000,35,141.83
3325,F4,891.5,0.5,28,141.83
3326,G#4,891.5,0.5,28,141.83
3327,C4,892.0,521/1000,39,141.83
3328,G4,892.0,521/1000,34,141.83
3329,E4,892.0,521/1000,34,141.83
3330,F4,892.0,21/1000,28,141.83
3331,G#4,892.0,21/1000,28,141.83
3332,B3,892.5,521/1000,31,141.83
3333,G#4,892.5,521/1000,30,141.83
3334,F4,892.5,521/1000,30,141.83
3335,C4,893.0,521/1000,39,141.83
3336,E4,893.0,521/1000,34,141.83
3337,G4,893.0,521/1000,34,141.83
3338,B3,893.5,0.5,32,141.83
3339,F4,893.5,521/1000,31,141.83
3340,G#4,893.5,521/1000,31,141.83
3341,C4,894.0,1.0,38,141.83
3342,B3,894.0,21/1000,32,141.83
3343,G4,894.0,521/1000,34,141.83
3344,E4,894.0,521/1000,34,141.83
3345,G#4,894.5,0.5,31,141.83
3346,F4,894.5,0.5,31,141.83
3347,E4,895.0,0.5,34,141.83
3348,G4,895.0,0.5,34,141.83
3349,G#4,895.0,21/1000,31,141.83
3350,F4,895.0,21/1000,31,141.83
3351,F#4,895.5,521/1000,33,141.83
3352,E-4,895.5,521/1000,33,141.83
3353,E4,896.0,521/1000,35,141.83
3354,G4,896.0,521/1000,35,141.83
3355,A4,896.5,521/1000,36,141.83
3356,F#4,896.5,521/1000,36,141.83
3357,B-3,897.0,1.0,33,141.83
3358,B-4,897.0,521/1000,38,141.83
3359,G4,897.0,521/1000,38,141.83
3360,C5,897.5,0.5,40,141.83
3361,A4,897.5,0.5,40,141.83
3362,B-3,898.0,1.0,31,141.83
3363,D5,898.0,1.0,38,141.83
3364,B-4,898.0,1.0,38,141.83
3365,C5,898.0,21/1000,40,141.83
3366,A4,898.0,21/1000,40,141.83
3367,B-3,899.0,1.0,31,141.83
3368,F4,899.0,1.0,36,141.83
3369,B-4,899.0,1.0,36,141.83
3370,D5,899.0,1.0,36,141.83
3371,B-3,900.0,2.0,33,141.83
3372,B-4,900.0,1.0,36,141.83
3373,D5,900.0,1.0,36,141.83
3374,F4,900.0,1.0,36,141.83
3375,F4,901.0,3.0,35,141.83
3376,D5,901.0,2.0,38,141.83
3377,B-4,901.0,2.0,38,141.83
3378,F3,902.0,1.0,31,141.83
3379,C3,903.0,1.0,33,141.83
3380,A4,903.0,1.0,31,141.83
3381,C5,903.0,1.0,31,141.83
3382,C5,904.0,0.5,42,141.83
3383,C3,904.0,1.0,30,141.83
3384,E4,904.0,1.0,35,141.83
3385,G4,904.0,1.0,35,141.83
3386,B-4,904.5,0.5,38,141.83
3387,C3,905.0,1.0,30,141.83
3388,B-4,905.0,1.0,37,141.83
3389,E4,905.0,1.0,37,141.83
3390,G4,905.0,1.0,37,141.83
3391,C3,906.0,2.0,33,141.83
3392,B-4,906.0,1.0,34,141.83
3393,G4,906.0,1.0,34,141.83
3394,E4,906.0,1.0,34,141.83
3395,E4,907.0,2.0,37,141.83
3396,G4,907.0,2.0,37,141.83
3397,B-4,907.0,2.0,37,141.83
3398,D3,908.0,1.0,30,141.83
3399,B-2,909.0,1.0,33,141.83
3400,A4,909.0,1.0,36,141.83
3401,F4,909.0,1.0,36,141.83
3402,C3,910.0,1.0,32,141.83
3403,C5,910.0,0.5,38,141.83
3404,A4,910.0,0.5,38,141.83
3405,B-4,910.5,0.5,34,141.83
3406,G4,910.5,0.5,34,141.83
3407,C3,911.0,1.0,32,141.83
3408,F4,911.0,1.0,38,141.83
3409,A4,911.0,1.0,38,141.83
3410,F3,912.0,1.0,33,141.83
3411,E4,912.0,1.0,33,141.83
3412,G4,912.0,1.0,33,141.83
3413,F4,913.0,0.5,38,141.83
3414,A4,913.0,0.5,38,141.83
3415,F5,913.5,229/500,35,141.83
3416,G5,914.0,229/500,37,141.83
3417,A5,914.5,229/500,38,141.83
3418,B-5,915.0,229/500,40,141.83
3419,F4,915.0,1.0,30,141.83
3420,B-4,915.0,1.0,30,141.83
3421,C6,915.5,229/500,41,141.83
3422,D6,916.0,1.0,46,141.83
3423,F4,916.0,1.0,28,141.83
3424,B-4,916.0,1.0,28,141.83
3425,D6,917.0,1.0,44,141.83
3426,B-4,917.0,1.0,28,141.83
3427,F4,917.0,1.0,28,141.83
3428,D6,918.0,1.0,44,141.83
3429,B-4,918.0,2.0,33,141.83
3430,F4,918.0,3.0,28,141.83
3431,D6,919.0,1.5,46,141.83
3432,A4,920.0,1.0,31,141.83
3433,E6,920.5,0.25,39,141.83
3434,D6,920.75,0.25,39,141.83
3435,C6,921.0,1.0,46,141.83
3436,C4,921.0,1.0,30,141.83
3437,G4,921.0,1.0,30,141.83
3438,C6,922.0,0.5,46,141.83
3439,E5,922.0,1.0,35,141.83
3440,G4,922.0,1.0,28,141.83
3441,C4,922.0,1.0,28,141.83
3442,B-5,922.5,0.5,41,141.83
3443,E5,923.0,1.0,40,141.83
3444,B-5,923.0,1.0,40,141.83
3445,G4,923.0,1.0,28,141.83
3446,C4,923.0,1.0,28,141.83
3447,B-5,924.0,1.0,36,141.83
3448,E5,924.0,1.0,36,141.83
3449,C4,924.0,2.0,30,141.83
3450,G4,924.0,2.0,30,141.83
3451,E5,925.0,2.0,40,141.83
3452,B-5,925.0,2.0,40,141.83
3453,F4,926.0,1.0,28,141.83
3454,D4,926.0,1.0,28,141.83
3455,B-3,927.0,1.0,33,141.83
3456,A5,927.0,1.0,38,141.83
3457,F5,927.0,1.0,38,141.83
3458,C4,928.0,1.0,32,141.83
3459,C6,928.0,0.5,40,141.83
3460,A5,928.0,0.5,40,141.83
3461,B-5,928.5,0.5,36,141.83
3462,G5,928.5,0.5,36,141.83
3463,B-3,929.0,1.0,32,141.83
3464,A5,929.0,1.0,40,141.83
3465,F5,929.0,1.0,40,141.83
3466,E5,930.0,1.0,34,141.83
3467,G5,930.0,1.0,34,141.83
3468,A2,930.0,0.5,64,141.83
3469,A3,930.0,0.5,64,141.83
3470,C#4,931.0,0.25,40,141.83
3471,C6,931.0,0.25,63,141.83
3472,A5,931.0,0.25,63,141.83
3473,C6,931.5,0.25,50,141.83
3474,A5,931.5,0.25,50,141.83
3475,D4,932.0,0.25,40,141.83
3476,G5,932.5,0.25,33,141.83
3477,B-5,932.5,0.25,33,141.83
3478,B-3,933.0,0.25,40,141.83
3479,F5,933.5,0.25,33,141.83
3480,A5,933.5,0.25,33,141.83
3481,C4,934.0,0.25,40,141.83
3482,G5,934.5,0.25,33,141.83
3483,B-4,934.5,0.25,33,141.83
3484,B-3,935.0,0.25,40,141.83
3485,F5,935.5,0.25,33,141.83
3486,A4,935.5,0.25,33,141.83
3487,A2,936.0,0.25,75,141.83
3488,A3,936.0,0.25,75,141.83
3489,G4,936.5,0.25,33,141.83
3490,E5,936.5,0.25,33,141.83
3491,C#3,937.0,0.25,73,141.83
3492,C#4,937.0,0.25,73,141.83
3493,A5,937.25,0.25,72,141.83
3494,C6,937.5,0.25,75,141.83
3495,A5,937.75,0.25,72,141.83
3496,D4,938.0,0.25,73,141.83
3497,D3,938.0,0.25,73,141.83
3498,G5,938.25,0.25,70,141.83
3499,B-5,938.5,0.25,75,141.83
3500,G5,938.75,0.25,70,141.83
3501,B-2,939.0,0.25,75,141.83
3502,B-3,939.0,0.25,75,141.83
3503,F5,939.25,0.25,72,141.83
3504,A5,939.5,0.25,75,141.83
3505,F5,939.75,0.25,71,141.83
3506,C4,940.0,0.25,73,141.83
3507,C3,940.0,0.25,73,141.83
3508,B-4,940.25,0.25,71,141.83
3509,G5,940.5,0.25,75,141.83
3510,B-4,940.75,0.25,71,141.83
3511,C3,941.0,0.25,73,141.83
3512,C2,941.0,0.25,73,141.83
3513,A4,941.25,0.25,71,141.83
3514,F5,941.5,0.25,75,141.83
3515,A4,941.75,0.25,71,141.83
3516,F2,942.0,0.25,64,141.83
3517,G4,942.25,0.25,71,141.83
3518,A2,942.25,0.25,59,141.83
3519,E5,942.5,0.25,75,141.83
3520,C3,942.5,0.25,59,141.83
3521,G4,942.75,0.25,71,141.83
3522,F3,942.75,0.25,59,141.83
3523,F2,943.0,0.25,63,141.83
3524,A4,943.0,1.0,75,141.83
3525,C5,943.0,1.0,75,141.83
3526,F5,943.0,1.0,75,141.83
3527,A2,943.25,0.25,58,141.83
3528,C3,943.5,0.25,58,141.83
3529,F3,943.75,0.25,58,141.83
3530,F2,944.0,0.25,63,141.83
3531,A2,944.25,0.25,57,141.83
3532,C3,944.5,0.25,58,141.83
3533,F3,944.75,0.25,58,141.83
3534,A4,945.0,0.125,70,141.83
3535,F2,945.0,0.25,63,141.83
3536,B-4,945.125,0.125,65,141.83
3537,A4,945.25,0.125,70,141.83
3538,A2,945.25,0.25,58,141.83
3539,B-4,945.375,0.125,66,141.83
3540,A4,945.5,83/1000,70,141.83
3541,C3,945.5,0.25,59,141.83
3542,B-4,945.583,83/1000,66,141.83
3543,A4,945.667,83/1000,66,141.83
3544,G4,945.75,0.125,70,141.83
3545,F3,945.75,0.25,59,141.83
3546,F4,945.875,0.125,66,141.83
3547,C5,946.0,2.0,75,141.83
3548,F2,946.0,0.25,63,141.83
3549,A2,946.25,0.25,57,141.83
3550,C3,946.5,0.25,57,141.83
3551,F3,946.75,0.25,57,141.83
3552,F2,947.0,0.25,63,141.83
3553,B-2,947.25,0.25,57,141.83
3554,C3,947.5,0.25,57,141.83
3555,G3,947.75,0.25,57,141.83
3556,E5,948.0,0.125,70,141.83
3557,F2,948.0,0.25,63,141.83
3558,F5,948.125,0.125,66,141.83
3559,E5,948.25,0.125,70,141.83
3560,A2,948.25,0.25,57,141.83
3561,F5,948.375,0.125,66,141.83
3562,E5,948.5,83/1000,70,141.83
3563,C3,948.5,0.25,57,141.83
3564,F5,948.583,83/1000,65,141.83
3565,E5,948.667,83/1000,66,141.83
3566,D5,948.75,0.125,70,141.83
3567,F3,948.75,0.25,57,141.83
3568,C5,948.875,0.125,65,141.83
3569,F5,949.0,2.0,75,141.83
3570,F2,949.0,0.25,63,141.83
3571,A2,949.25,0.25,57,141.83
3572,C3,949.5,0.25,57,141.83
3573,F3,949.75,0.25,57,141.83
3574,F2,950.0,0.25,63,141.83
3575,A2,950.25,0.25,57,141.83
3576,C3,950.5,0.25,58,141.83
3577,F3,950.75,0.25,58,141.83
3578,A5,951.0,0.125,70,141.83
3579,F2,951.0,0.25,63,141.83
3580,B-5,951.125,0.125,65,141.83
3581,A5,951.25,0.125,70,141.83
3582,A2,951.25,0.25,58,141.83
3583,B-5,951.375,0.125,66,141.83
3584,A5,951.5,83/1000,70,141.83
3585,C3,951.5,0.25,59,141.83
3586,B-5,951.583,83/1000,66,141.83
3587,A5,951.667,83/1000,66,141.83
3588,G5,951.75,0.125,70,141.83
3589,F3,951.75,0.25,59,141.83
3590,F5,951.875,0.125,66,141.83
3591,C6,952.0,0.5,75,141.83
3592,F2,952.0,0.25,63,141.83
3593,A2,952.25,0.25,57,141.83
3594,C3,952.5,0.25,57,141.83
3595,F3,952.75,0.25,57,141.83
3596,C6,953.0,0.5,75,141.83
3597,F2,953.0,0.25,63,141.83
3598,B-2,953.25,0.25,57,141.83
3599,C3,953.5,0.25,57,141.83
3600,G3,953.75,0.25,57,141.83
3601,E6,954.0,0.125,70,141.83
3602,F4,954.0,0.25,63,141.83
3603,F3,954.0,0.25,63,141.83
3604,A3,954.0,0.25,63,141.83
3605,C4,954.0,0.25,63,141.83
3606,F6,954.125,0.125,66,141.83
3607,E6,954.25,0.125,70,141.83
3608,F6,954.375,0.125,66,141.83
3609,E6,954.5,83/1000,70,141.83
3610,F6,954.583,83/1000,65,141.83
3611,E6,954.667,83/1000,66,141.83
3612,D6,954.75,0.125,70,141.83
3613,C6,954.875,0.125,65,141.83
3614,F6,955.0,0.25,75,141.83
3615,A3,955.0,1.5,64,141.83
3616,A2,955.0,1.5,64,141.83
3617,A5,956.0,1.5,88,141.83
3618,C#4,956.5,0.5,63,141.83
3619,C#3,956.5,0.5,63,141.83
3620,D4,957.0,0.25,63,141.83
3621,D3,957.0,0.25,63,141.83
3622,C#5,957.5,0.5,75,141.83
3623,D5,958.0,0.25,75,141.83
3624,F4,958.0,1.5,66,141.83
3625,F3,958.0,1.5,66,141.83
3626,F5,959.0,1.5,89,141.83
3627,A3,959.5,0.5,63,141.83
3628,B-3,960.0,0.125,56,141.83
3629,C4,960.125,0.125,52,141.83
3630,B-3,960.25,0.125,56,141.83
3631,C4,960.375,0.125,52,141.83
3632,A4,960.5,0.5,75,141.83
3633,B-3,960.5,83/1000,56,141.83
3634,C4,960.583,83/1000,52,141.83
3635,B-3,960.667,83/1000,52,141.83
3636,A3,960.75,0.125,56,141.83
3637,G3,960.875,0.125,52,141.83
3638,B-4,961.0,0.125,70,141.83
3639,C4,961.0,0.25,63,141.83
3640,C5,961.125,0.125,65,141.83
3641,B-4,961.25,0.125,70,141.83
3642,C5,961.375,0.125,66,141.83
3643,B-4,961.5,83/1000,70,141.83
3644,C5,961.583,83/1000,66,141.83
3645,B-4,961.667,83/1000,66,141.83
3646,A4,961.75,0.125,70,141.83
3647,G4,961.875,0.125,66,141.83
3648,C5,962.0,0.25,84,141.83
3649,C4,962.0,0.25,62,141.83
3650,C3,962.0,0.25,62,141.83
3651,C5,963.0,0.25,77,141.83
3652,G4,963.0,0.25,77,141.83
3653,E5,963.0,0.25,77,141.83
3654,F3,963.0,0.25,66,141.83
3655,F4,963.0,0.25,66,141.83
3656,F5,964.0,0.25,77,141.83
3657,A4,964.0,0.25,77,141.83
3658,C5,964.0,0.25,77,141.83
3659,F3,964.0,0.25,64,141.83
3660,F2,964.0,0.25,64,141.83
3661,F4,965.0,0.25,79,141.83
3662,G4,967.0,3.0,50,141.83
3663,E3,967.0,1.0,46,141.83
3664,C5,968.0,1.0,46,141.83
3665,C3,968.0,1.0,42,141.83
3666,E5,969.0,1.0,46,141.83
3667,G3,969.0,3.0,46,141.83
3668,G4,970.0,3.0,45,141.83
3669,E5,970.0,2.0,50,141.83
3670,C5,970.0,2.0,50,141.83
3671,B4,972.0,1.0,43,141.83
3672,D5,972.0,1.0,43,141.83
3673,G5,973.0,1.0,50,141.83
3674,E3,973.0,1.0,46,141.83
3675,C5,974.0,1.0,46,141.83
3676,G4,974.0,2.0,40,141.83
3677,C3,974.0,1.0,42,141.83
3678,E5,975.0,1.0,46,141.83
3679,G3,975.0,3.0,46,141.83
3680,G4,976.0,3.0,45,141.83
3681,C5,976.0,2.0,50,141.83
3682,E5,976.0,2.0,50,141.83
3683,D5,978.0,1.0,43,141.83
3684,B4,978.0,1.0,43,141.83
3685,D4,978.0,1.0,31,141.83
3686,F3,978.0,1.0,31,141.83
3687,A3,978.0,1.0,31,141.83
3688,A4,979.0,1.0,50,141.83
3689,D5,980.0,1.0,50,141.83
3690,F5,981.0,1.0,50,141.83
3691,D4,981.0,1.0,31,141.83
3692,F3,981.0,1.0,31,141.83
3693,A3,981.0,1.0,31,141.83
3694,E5,982.0,1.0,50,141.83
3695,D5,983.0,1.0,50,141.83
3696,A5,984.0,1.0,50,141.83
3697,D4,984.0,3.0,29,141.83
3698,G3,984.0,3.0,29,141.83
3699,F4,984.0,3.0,29,141.83
3700,A5,985.0,1.0,50,141.83
3701,G5,986.0,1.0,50,141.83
3702,B4,987.0,1.0,50,141.83
3703,E4,987.0,1.0,38,141.83
3704,C4,987.0,1.0,38,141.83
3705,C5,988.0,0.5,50,141.83
3706,G4,988.5,0.5,50,141.83
3707,E4,989.0,0.5,50,141.83
3708,G4,989.5,0.5,50,141.83
3709,F4,990.0,0.5,50,141.83
3710,D4,990.5,0.5,50,141.83
3711,C4,991.0,0.75,50,141.83
3712,E3,991.0,1.0,46,141.83
3713,G3,991.75,0.25,43,141.83
3714,C4,992.0,1.0,46,141.83
3715,C3,992.0,1.0,44,141.83
3716,E4,993.0,1.0,48,141.83
3717,G2,993.0,3.0,48,141.83
3718,G3,993.0,3.0,48,141.83
3719,C4,994.0,2.0,52,141.83
3720,E4,994.0,2.0,52,141.83
3721,D4,996.0,1.0,43,141.83
3722,B3,996.0,1.0,43,141.83
3723,G4,997.0,1.0,50,141.83
3724,E3,997.0,1.0,46,141.83
3725,G3,998.0,2.0,40,141.83
3726,C4,998.0,1.0,46,141.83
3727,C3,998.0,1.0,44,141.83
3728,E4,999.0,1.0,48,141.83
3729,G2,999.0,3.0,48,141.83
3730,G3,999.0,3.0,48,141.83
3731,C4,1000.0,2.0,52,141.83
3732,E4,1000.0,2.0,52,141.83
3733,B3,1002.0,1.0,43,141.83
3734,D4,1002.0,1.0,43,141.83
3735,A2,1002.0,1.0,31,141.83
3736,F2,1002.0,1.0,31,141.83
3737,D3,1002.0,1.0,31,141.83
3738,A3,1003.0,1.0,50,141.83
3739,D4,1004.0,1.0,50,141.83
3740,F4,1005.0,1.0,50,141.83
3741,A2,1005.0,1.0,31,141.83
3742,F2,1005.0,1.0,31,141.83
3743,D3,1005.0,1.0,31,141.83
3744,E4,1006.0,1.0,50,141.83
3745,D4,1007.0,1.0,50,141.83
3746,A4,1008.0,1.0,50,141.83
3747,F3,1008.0,1.0,32,141.83
3748,D3,1008.0,1.0,32,141.83
3749,G2,1008.0,1.0,32,141.83
3750,A4,1009.0,1.0,50,141.83
3751,G4,1010.0,1.0,50,141.83
3752,B3,1011.0,1.0,50,141.83
3753,C3,1011.0,1.0,34,141.83
3754,E3,1011.0,1.0,34,141.83
3755,C4,1012.0,0.5,52,141.83
3756,E4,1012.0,1.0,40,141.83
3757,G4,1012.5,0.5,34,141.83
3758,C4,1013.0,1.0,37,141.83
3759,G4,1013.5,0.25,34,141.83
3760,D4,1014.0,1.0,40,141.83
3761,G4,1014.5,0.25,34,141.83
3762,B3,1015.0,1.0,38,141.83
3763,F4,1015.0,0.25,37,141.83
3764,G4,1015.0,0.25,37,141.83
3765,F4,1015.5,0.25,30,141.83
3766,G4,1015.5,0.25,30,141.83
3767,G3,1016.0,1.0,38,141.83
3768,F4,1016.5,0.25,30,141.83
3769,G4,1016.5,0.25,30,141.83
3770,C3,1017.0,1.0,40,141.83
3771,G4,1017.5,0.25,30,141.83
3772,F4,1017.5,0.25,30,141.83
3773,E-3,1018.0,1.0,40,141.83
3774,G4,1018.0,0.25,37,141.83
3775,E-4,1018.0,0.25,37,141.83
3776,G4,1018.5,0.25,31,141.83
3777,E-4,1018.5,0.25,31,141.83
3778,C3,1019.0,1.0,37,141.83
3779,G4,1019.5,0.25,31,141.83
3780,E-4,1019.5,0.25,31,141.83
3781,D3,1020.0,1.0,40,141.83
3782,G4,1020.5,0.25,31,141.83
3783,E-4,1020.5,0.25,31,141.83
3784,B2,1021.0,1.0,38,141.83
3785,F4,1021.0,0.25,37,141.83
3786,G4,1021.0,0.25,37,141.83
3787,F4,1021.5,0.25,30,141.83
3788,G4,1021.5,0.25,30,141.83
3789,G2,1022.0,1.0,38,141.83
3790,F4,1022.5,0.25,30,141.83
3791,G4,1022.5,0.25,30,141.83
3792,C3,1023.0,1.0,64,141.83
3793,C2,1023.0,1.0,64,141.83
3794,F4,1023.5,0.25,28,141.83
3795,G4,1023.5,0.25,28,141.83
3796,C4,1024.0,1.0,40,141.83
3797,E-4,1024.0,0.25,58,141.83
3798,G4,1024.0,0.25,58,141.83
3799,G4,1024.5,0.25,46,141.83
3800,E-4,1024.5,0.25,46,141.83
3801,C3,1025.0,1.0,40,141.83
3802,G4,1025.5,0.25,30,141.83
3803,E-4,1025.5,0.25,30,141.83
3804,A2,1026.0,1.0,64,141.83
3805,A1,1026.0,1.0,64,141.83
3806,E-4,1026.5,0.25,30,141.83
3807,G4,1026.5,0.25,30,141.83
3808,A3,1027.0,1.0,40,141.83
3809,E-4,1027.0,0.25,56,141.83
3810,C4,1027.0,0.25,56,141.83
3811,F#4,1027.0,0.25,56,141.83
3812,E-4,1027.5,0.25,45,141.83
3813,C4,1027.5,0.25,45,141.83
3814,F#4,1027.5,0.25,45,141.83
3815,A2,1028.0,1.0,40,141.83
3816,F#4,1028.5,0.25,30,141.83
3817,E-4,1028.5,0.25,30,141.83
3818,C4,1028.5,0.25,30,141.83
3819,B-1,1029.0,1.0,64,141.83
3820,B-2,1029.0,1.0,64,141.83
3821,C4,1029.5,0.25,30,141.83
3822,E-4,1029.5,0.25,30,141.83
3823,F#4,1029.5,0.25,30,141.83
3824,B-3,1030.0,1.0,40,141.83
3825,D4,1030.0,0.25,58,141.83
3826,G4,1030.0,0.25,58,141.83
3827,G4,1030.5,0.25,46,141.83
3828,D4,1030.5,0.25,46,141.83
3829,B-2,1031.0,1.0,40,141.83
3830,G4,1031.5,0.25,30,141.83
3831,D4,1031.5,0.25,30,141.83
3832,F#1,1032.0,1.0,64,141.83
3833,F#2,1032.0,1.0,64,141.83
3834,D4,1032.5,0.25,30,141.83
3835,G4,1032.5,0.25,30,141.83
3836,F#3,1033.0,1.0,40,141.83
3837,A4,1033.0,0.25,56,141.83
3838,D4,1033.0,0.25,56,141.83
3839,C5,1033.0,0.25,56,141.83
3840,D4,1033.5,0.25,45,141.83
3841,C5,1033.5,0.25,45,141.83
3842,A4,1033.5,0.25,45,141.83
3843,F#2,1034.0,1.0,40,141.83
3844,A4,1034.5,0.25,30,141.83
3845,C5,1034.5,0.25,30,141.83
3846,D4,1034.5,0.25,30,141.83
3847,G2,1035.0,1.0,64,141.83
3848,G1,1035.0,1.0,64,141.83
3849,C5,1035.5,0.25,30,141.83
3850,D4,1035.5,0.25,30,141.83
3851,A4,1035.5,0.25,30,141.83
3852,G3,1036.0,1.0,40,141.83
3853,B-4,1036.0,0.25,56,141.83
3854,G4,1036.0,0.25,56,141.83
3855,D4,1036.0,0.25,56,141.83
3856,D4,1036.5,0.25,45,141.83
3857,G4,1036.5,0.25,45,141.83
3858,B-4,1036.5,0.25,45,141.83
3859,G2,1037.0,1.0,40,141.83
3860,D4,1037.5,0.25,30,141.83
3861,B-4,1037.5,0.25,30,141.83
3862,G4,1037.5,0.25,30,141.83
3863,E2,1038.0,1.0,64,141.83
3864,E3,1038.0,1.0,64,141.83
3865,D4,1038.5,0.25,30,141.83
3866,B-4,1038.5,0.25,30,141.83
3867,G4,1038.5,0.25,30,141.83
3868,E4,1039.0,1.0,40,141.83
3869,B-4,1039.0,0.25,56,141.83
3870,G4,1039.0,0.25,56,141.83
3871,C#5,1039.0,0.25,56,141.83
3872,B-4,1039.5,0.25,45,141.83
3873,C#5,1039.5,0.25,45,141.83
3874,G4,1039.5,0.25,45,141.83
3875,E3,1040.0,1.0,40,141.83
3876,G4,1040.5,0.25,30,141.83
3877,B-4,1040.5,0.25,30,141.83
3878,C#5,1040.5,0.25,30,141.83
3879,F2,1041.0,1.0,64,141.83
3880,F3,1041.0,1.0,64,141.83
3881,C#5,1041.5,0.25,30,141.83
3882,B-4,1041.5,0.25,30,141.83
3883,G4,1041.5,0.25,30,141.83
3884,F4,1042.0,1.0,40,141.83
3885,D5,1042.0,0.25,58,141.83
3886,A4,1042.0,0.25,58,141.83
3887,A4,1042.5,0.25,46,141.83
3888,D5,1042.5,0.25,46,141.83
3889,F3,1043.0,1.0,40,141.83
3890,A4,1043.5,0.25,30,141.83
3891,D5,1043.5,0.25,30,141.83
3892,C#2,1044.0,1.0,64,141.83
3893,C#3,1044.0,1.0,64,141.83
3894,A4,1044.5,0.25,30,141.83
3895,D5,1044.5,0.25,30,141.83
3896,C#4,1045.0,1.0,40,141.83
3897,E5,1045.0,0.25,56,141.83
3898,A4,1045.0,0.25,56,141.83
3899,G5,1045.0,0.25,56,141.83
3900,G5,1045.5,0.25,45,141.83
3901,A4,1045.5,0.25,45,141.83
3902,E5,1045.5,0.25,45,141.83
3903,C#3,1046.0,1.0,40,141.83
3904,G5,1046.5,0.25,30,141.83
3905,E5,1046.5,0.25,30,141.83
3906,A4,1046.5,0.25,30,141.83
3907,D3,1047.0,1.0,64,141.83
3908,D2,1047.0,1.0,64,141.83
3909,E5,1047.5,0.25,30,141.83
3910,G5,1047.5,0.25,30,141.83
3911,A4,1047.5,0.25,30,141.83
3912,D4,1048.0,1.0,40,141.83
3913,D5,1048.0,0.25,56,141.83
3914,F5,1048.0,0.25,56,141.83
3915,A4,1048.0,0.25,56,141.83
3916,A4,1048.5,0.25,45,141.83
3917,F5,1048.5,0.25,45,141.83
3918,D5,1048.5,0.25,45,141.83
3919,D3,1049.0,1.0,40,141.83
3920,F5,1049.5,0.25,30,141.83
3921,D5,1049.5,0.25,30,141.83
3922,A4,1049.5,0.25,30,141.83
3923,B-2,1050.0,1.0,64,141.83
3924,B-1,1050.0,1.0,64,141.83
3925,D5,1050.5,0.25,30,141.83
3926,F5,1050.5,0.25,30,141.83
3927,A4,1050.5,0.25,30,141.83
3928,B-3,1051.0,1.0,40,141.83
3929,G#5,1051.0,0.25,59,141.83
3930,D5,1051.0,0.25,59,141.83
3931,G#5,1051.5,0.25,48,141.83
3932,D5,1051.5,0.25,48,141.83
3933,B-2,1052.0,1.0,40,141.83
3934,G#5,1052.5,0.25,30,141.83
3935,D5,1052.5,0.25,30,141.83
3936,A2,1053.0,1.0,44,141.83
3937,D5,1053.5,0.25,30,141.83
3938,G#5,1053.5,0.25,30,141.83
3939,A5,1054.0,49/100,35,141.83
3940,C#5,1054.0,49/100,35,141.83
3941,A5,1054.5,521/1000,34,141.83
3942,F5,1054.5,521/1000,34,141.83
3943,E5,1055.0,521/1000,30,141.83
3944,G5,1055.0,521/1000,30,141.83
3945,G#4,1055.5,0.5,38,141.83
3946,F5,1055.5,521/1000,28,141.83
3947,D5,1055.5,521/1000,28,141.83
3948,A4,1056.0,1.0,41,141.83
3949,C#5,1056.0,521/1000,30,141.83
3950,E5,1056.0,521/1000,30,141.83
3951,F5,1056.5,0.5,28,141.83
3952,D5,1056.5,0.5,28,141.83
3953,C#5,1057.0,0.5,35,141.83
3954,E5,1057.0,0.5,35,141.83
3955,F5,1057.0,21/1000,28,141.83
3956,D5,1057.0,21/1000,28,141.83
3957,A4,1057.5,521/1000,34,141.83
3958,F4,1057.5,521/1000,34,141.83
3959,G4,1058.0,521/1000,30,141.83
3960,E4,1058.0,521/1000,30,141.83
3961,G#3,1058.5,0.5,32,141.83
3962,D4,1058.5,521/1000,28,141.83
3963,F4,1058.5,521/1000,28,141.83
3964,A3,1059.0,521/1000,39,141.83
3965,G#3,1059.0,21/1000,32,141.83
3966,E4,1059.0,521/1000,30,141.83
3967,C#4,1059.0,521/1000,30,141.83
3968,G#3,1059.5,521/1000,35,141.83
3969,F4,1059.5,0.5,28,141.83
3970,D4,1059.5,0.5,28,141.83
3971,A3,1060.0,521/1000,39,141.83
3972,C#4,1060.0,521/1000,34,141.83
3973,E4,1060.0,521/1000,34,141.83
3974,F4,1060.0,21/1000,28,141.83
3975,D4,1060.0,21/1000,28,141.83
3976,G#3,1060.5,521/1000,31,141.83
3977,F4,1060.5,521/1000,30,141.83
3978,D4,1060.5,521/1000,30,141.83
3979,A3,1061.0,521/1000,39,141.83
3980,C#4,1061.0,521/1000,34,141.83
3981,E4,1061.0,521/1000,34,141.83
3982,G#3,1061.5,0.5,32,141.83
3983,F4,1061.5,521/1000,31,141.83
3984,D4,1061.5,521/1000,31,141.83
3985,A3,1062.0,1.0,39,141.83
3986,G#3,1062.0,21/1000,32,141.83
3987,C#4,1062.0,521/1000,34,141.83
3988,E4,1062.0,521/1000,34,141.83
3989,D4,1062.5,0.5,31,141.83
3990,F4,1062.5,0.5,31,141.83
3991,E4,1063.0,1.0,34,141.83
3992,C#4,1063.0,1.0,34,141.83
3993,A3,1065.0,521/1000,31,141.83
3994,G#3,1065.5,521/1000,28,141.83
3995,A3,1066.0,521/1000,31,141.83
3996,C4,1066.0,521/1000,26,141.83
3997,E4,1066.0,521/1000,26,141.83
3998,G#3,1066.5,521/1000,24,141.83
3999,F4,1066.5,521/1000,23,141.83
4000,D4,1066.5,521/1000,23,141.83
4001,A3,1067.0,521/1000,31,141.83
4002,E4,1067.0,521/1000,26,141.83
4003,C4,1067.0,521/1000,26,141.83
4004,G#3,1067.5,0.5,25,141.83
4005,D4,1067.5,521/1000,24,141.83
4006,F4,1067.5,521/1000,24,141.83
4007,A3,1068.0,1.0,31,141.83
4008,G#3,1068.0,21/1000,25,141.83
4009,E4,1068.0,521/1000,26,141.83
4010,C4,1068.0,521/1000,26,141.83
4011,F4,1068.5,0.5,24,141.83
4012,D4,1068.5,0.5,24,141.83
4013,C4,1069.0,1.0,30,141.83
4014,E4,1069.0,1.0,30,141.83
4015,F4,1069.0,21/1000,24,141.83
4016,D4,1069.0,21/1000,24,141.83
4017,G3,1071.0,521/1000,63,141.83
4018,A3,1071.5,521/1000,57,141.83
4019,E4,1072.0,521/1000,59,141.83
4020,G3,1072.0,521/1000,63,141.83
4021,B-3,1072.0,3.0,49,141.83
4022,C4,1072.0,3.0,49,141.83
4023,F4,1072.5,521/1000,51,141.83
4024,A3,1072.5,521/1000,49,141.83
4025,E4,1073.0,521/1000,59,141.83
4026,G3,1073.0,521/1000,63,141.83
4027,F4,1073.5,521/1000,55,141.83
4028,A3,1073.5,0.5,51,141.83
4029,E4,1074.0,521/1000,59,141.83
4030,G3,1074.0,1.0,63,141.83
4031,A3,1074.0,21/1000,51,141.83
4032,F4,1074.5,0.5,55,141.83
4033,E4,1076.0,1.0,59,141.83
4034,F4,1076.0,21/1000,55,141.83
4035,B-3,1076.0,1.0,49,141.83
4036,C4,1076.0,1.0,49,141.83
4037,C4,1077.0,3.0,29,141.83
4038,G4,1077.0,521/1000,39,141.83
4039,F#4,1077.5,521/1000,35,141.83
4040,G4,1078.0,521/1000,39,141.83
4041,F#4,1078.5,521/1000,31,141.83
4042,E5,1079.0,3.0,31,141.83
4043,B-5,1079.0,521/1000,37,141.83
4044,G4,1079.0,521/1000,39,141.83
4045,A5,1079.5,521/1000,32,141.83
4046,F#4,1079.5,0.5,32,141.83
4047,B-5,1080.0,521/1000,37,141.83
4048,G4,1080.0,1.0,39,141.83
4049,C4,1080.0,1.0,29,141.83
4050,F#4,1080.0,21/1000,32,141.83
4051,A5,1080.5,521/1000,34,141.83
4052,B-5,1081.0,521/1000,37,141.83
4053,A5,1081.5,0.5,34,141.83
4054,B-5,1082.0,1.0,37,141.83
4055,E5,1082.0,1.0,31,141.83
4056,F3,1083.0,0.5,40,141.83
4057,A3,1083.5,0.5,30,141.83
4058,C4,1084.0,0.5,33,141.83
4059,A3,1084.5,0.5,30,141.83
4060,F4,1085.0,2.0,50,141.83
4061,C4,1085.0,0.5,34,141.83
4062,A3,1085.5,0.5,30,141.83
4063,F3,1086.0,0.5,40,141.83
4064,C4,1086.5,0.5,29,141.83
4065,A4,1087.0,1.0,47,141.83
4066,E-4,1087.0,0.5,31,141.83
4067,C4,1087.5,0.5,27,141.83
4068,C5,1088.0,2.0,52,141.83
4069,E-4,1088.0,0.5,31,141.83
4070,C4,1088.5,0.5,28,141.83
4071,F3,1089.0,0.5,40,141.83
4072,B-3,1089.5,0.5,30,141.83
4073,A4,1090.0,1.0,46,141.83
4074,D4,1090.0,0.5,33,141.83
4075,B-3,1090.5,0.5,30,141.83
4076,B-4,1091.0,2.0,50,141.83
4077,D4,1091.0,0.5,33,141.83
4078,B-3,1091.5,0.5,30,141.83
4079,F3,1092.0,0.5,40,141.83
4080,G3,1092.5,0.5,23,141.83
4081,G5,1093.0,1.0,47,141.83
4082,B-3,1093.0,0.5,28,141.83
4083,G3,1093.5,0.5,24,141.83
4084,F5,1094.0,0.5,47,141.83
4085,B-3,1094.0,0.5,29,141.83
4086,E5,1094.5,0.5,44,141.83
4087,G3,1094.5,0.5,24,141.83
4088,E5,1095.0,1.0,44,141.83
4089,F3,1095.0,1.0,30,141.83
4090,A3,1095.0,1.0,30,141.83
4091,F5,1097.0,1.0,50,141.83
4092,A4,1098.0,1.0,46,141.83
4093,D5,1099.0,1.0,46,141.83
4094,G4,1100.0,1.0,50,141.83
4095,C5,1101.0,1.5,54,141.83
4096,F3,1101.0,1.0,47,141.83
4097,A2,1102.0,1.0,44,141.83
4098,A4,1102.5,0.5,45,141.83
4099,F4,1103.0,3.0,50,141.83
4100,D3,1103.0,1.0,48,141.83
4101,G2,1104.0,1.0,48,141.83
4102,C3,1105.0,1.5,49,141.83
4103,G4,1106.0,3.0,50,141.83
4104,F4,1106.0,1.0,50,141.83
4105,A2,1106.5,0.5,47,141.83
4106,E4,1107.0,0.125,42,141.83
4107,F2,1107.0,1.0,52,141.83
4108,F4,1107.125,0.125,37,141.83
4109,E4,1107.25,0.25,48,141.83
4110,D4,1107.5,0.5,48,141.83
4111,E4,1108.0,1.0,50,141.83
4112,D3,1108.0,1.0,40,141.83
4113,A4,1109.0,1.0,48,141.83
4114,F4,1109.0,3.0,48,141.83
4115,B-2,1109.0,1.0,44,141.83
4116,B-4,1110.0,1.0,52,141.83
4117,A2,1110.0,1.0,47,141.83
4118,D5,1111.0,1.0,55,141.83
4119,D5,1112.0,0.5,58,141.83
4120,F4,1112.0,1.0,48,141.83
4121,D3,1112.0,1.0,40,141.83
4122,C5,1112.5,0.5,57,141.83
4123,B-4,1113.0,0.5,56,141.83
4124,B-2,1113.0,1.0,40,141.83
4125,A4,1113.5,0.5,54,141.83
4126,G4,1114.0,0.5,53,141.83
4127,F4,1114.5,0.5,51,141.83
4128,G4,1115.0,1.0,54,141.83
4129,C3,1115.0,1.0,41,141.83
4130,B-4,1116.0,0.25,50,141.83
4131,F2,1116.0,1.0,43,141.83
4132,B-3,1117.0,1.0,54,141.83
4133,E4,1117.0,1.0,54,141.83
4134,F4,1118.0,1.0,56,141.83
4135,A3,1118.0,1.0,56,141.83
4136,C5,1118.0,0.75,36,141.83
4137,A4,1118.0,0.75,36,141.83
4138,G4,1118.75,0.25,32,141.83
4139,B-4,1118.75,0.25,32,141.83
4140,A4,1119.0,0.25,36,141.83
4141,F4,1119.0,0.25,36,141.83
4142,C6,1120.0,0.75,50,141.83
4143,F4,1120.0,0.25,36,141.83
4144,A4,1120.0,0.25,36,141.83
4145,B-5,1120.75,0.25,44,141.83
4146,A5,1121.0,0.25,50,141.83
4147,F4,1121.0,0.75,33,141.83
4148,A4,1121.0,0.75,33,141.83
4149,G4,1121.75,0.25,30,141.83
4150,C4,1121.75,0.25,30,141.83
4151,A5,1122.0,0.25,50,141.83
4152,F4,1122.0,0.25,34,141.83
4153,A3,1122.0,0.25,34,141.83
4154,A5,1123.0,0.75,47,141.83
4155,F4,1123.0,0.25,32,141.83
4156,A3,1123.0,0.25,32,141.83
4157,G5,1123.75,0.25,42,141.83
4158,F5,1124.0,0.25,48,141.83
4159,F4,1124.0,1.0,32,141.83
4160,A3,1124.0,1.0,32,141.83
4161,F5,1125.0,0.25,44,141.83
4162,C4,1125.0,0.25,32,141.83
4163,G4,1125.0,0.25,32,141.83
4164,F5,1126.0,1.0,44,141.83
4165,G4,1126.0,0.25,32,141.83
4166,C4,1126.0,0.25,32,141.83
4167,E5,1127.0,0.25,46,141.83
4168,G5,1127.0,0.25,46,141.83
4169,C4,1127.0,0.25,32,141.83
4170,G4,1127.0,0.25,32,141.83
4171,E5,1128.0,0.25,44,141.83
4172,G5,1128.0,0.25,44,141.83
4173,G4,1128.0,1.0,36,141.83
4174,C4,1128.0,1.0,36,141.83
4175,G5,1129.0,0.25,44,141.83
4176,E5,1129.0,0.25,44,141.83
4177,A4,1129.0,1.0,32,141.83
4178,F4,1129.0,1.0,32,141.83
4179,E5,1130.0,1.0,50,141.83
4180,G5,1130.0,1.0,50,141.83
4181,C5,1130.0,0.75,36,141.83
4182,A4,1130.0,0.75,36,141.83
4183,B-4,1130.75,0.25,32,141.83
4184,G4,1130.75,0.25,32,141.83
4185,A5,1131.0,1.0,44,141.83
4186,F5,1131.0,1.0,44,141.83
4187,F4,1131.0,0.25,36,141.83
4188,A4,1131.0,0.25,36,141.83
4189,C6,1132.0,0.25,50,141.83
4190,F4,1132.0,0.25,36,141.83
4191,A4,1132.0,0.25,36,141.83
4192,D6,1132.25,0.25,44,141.83
4193,C6,1132.5,0.25,44,141.83
4194,B-5,1132.75,0.25,44,141.83
4195,A5,1133.0,0.25,50,141.83
4196,A4,1133.0,0.75,33,141.83
4197,F4,1133.0,0.75,33,141.83
4198,G4,1133.75,0.25,30,141.83
4199,C4,1133.75,0.25,30,141.83
4200,A5,1134.0,0.25,50,141.83
4201,F4,1134.0,0.25,34,141.83
4202,A3,1134.0,0.25,34,141.83
4203,A5,1135.0,0.25,47,141.83
4204,A3,1135.0,0.25,32,141.83
4205,F4,1135.0,0.25,32,141.83
4206,B-5,1135.25,0.25,42,141.83
4207,A5,1135.5,0.25,42,141.83
4208,G5,1135.75,0.25,42,141.83
4209,F5,1136.0,0.25,48,141.83
4210,A3,1136.0,0.25,32,141.83
4211,F4,1136.0,0.25,32,141.83
4212,F5,1137.0,0.25,44,141.83
4213,G4,1137.0,1.0,33,141.83
4214,C4,1137.0,1.0,33,141.83
4215,F5,1138.0,0.25,44,141.83
4216,G5,1139.0,1.0,49,141.83
4217,C4,1139.0,1.0,32,141.83
4218,G4,1139.0,1.0,32,141.83
4219,B-5,1140.0,0.25,44,141.83
4220,F4,1140.0,1.0,39,141.83
4221,E5,1141.0,1.0,40,141.83
4222,B-4,1141.0,1.0,40,141.83
4223,A4,1142.0,1.0,43,141.83
4224,F5,1142.0,1.0,43,141.83
4225,B-4,1142.0,1.0,30,141.83
4226,C4,1142.0,1.0,30,141.83
4227,E4,1142.0,1.0,30,141.83
4228,A4,1143.0,1.0,35,141.83
4229,F4,1143.0,1.0,35,141.83
4230,C6,1144.0,1.0,44,141.83
4231,F5,1145.0,1.0,48,141.83
4232,B-3,1145.0,1.0,27,141.83
4233,E3,1145.0,1.0,27,141.83
4234,C3,1145.0,1.0,27,141.83
4235,F3,1146.0,1.0,31,141.83
4236,A3,1146.0,1.0,31,141.83
4237,C5,1147.0,1.0,39,141.83
4238,F4,1148.0,1.0,43,141.83
4239,C#2,1148.0,1.0,56,141.83
4240,C#3,1148.0,1.0,56,141.83
4241,D3,1149.0,0.5,61,141.83
4242,D2,1149.0,0.5,61,141.83
4243,F3,1149.5,0.5,60,141.83
4244,C#4,1150.0,1.0,80,141.83
4245,A3,1150.0,0.5,60,141.83
4246,F3,1150.5,0.5,60,141.83
4247,D4,1151.0,1.5,85,141.83
4248,A3,1151.0,0.5,63,141.83
4249,F3,1151.5,0.5,60,141.83
4250,D3,1152.0,0.5,65,141.83
4251,F4,1152.5,0.25,70,141.83
4252,F3,1152.5,0.5,60,141.83
4253,A4,1152.75,0.25,72,141.83
4254,D5,1153.0,0.25,84,141.83
4255,A3,1153.0,0.5,63,141.83
4256,A4,1153.5,0.25,71,141.83
4257,F3,1153.5,0.5,60,141.83
4258,D5,1153.75,0.25,73,141.83
4259,F5,1154.0,0.25,86,141.83
4260,A3,1154.0,0.5,60,141.83
4261,D5,1154.5,0.25,71,141.83
4262,F3,1154.5,0.5,62,141.83
4263,F5,1154.75,0.25,73,141.83
4264,A5,1155.0,0.25,87,141.83
4265,E2,1155.0,0.25,66,141.83
4266,E3,1155.0,0.25,66,141.83
4267,A5,1155.5,0.5,80,141.83
4268,F5,1156.0,0.5,80,141.83
4269,G3,1156.0,0.25,63,141.83
4270,E3,1156.0,0.25,63,141.83
4271,B-3,1156.0,0.25,63,141.83
4272,C#4,1156.0,0.25,63,141.83
4273,D5,1156.5,0.25,80,141.83
4274,C#5,1156.75,83/1000,70,141.83
4275,E5,1156.833,83/1000,70,141.83
4276,G5,1156.917,83/1000,70,141.83
4277,B-5,1157.0,1.5,90,141.83
4278,E3,1158.0,0.25,66,141.83
4279,E2,1158.0,0.25,66,141.83
4280,A5,1158.5,11/40,71,141.83
4281,G5,1158.75,11/40,68,141.83
4282,F5,1159.0,11/40,68,141.83
4283,C#4,1159.0,0.25,63,141.83
4284,E3,1159.0,0.25,63,141.83
4285,G3,1159.0,0.25,63,141.83
4286,B-3,1159.0,0.25,63,141.83
4287,E5,1159.25,11/40,68,141.83
4288,D5,1159.5,11/40,69,141.83
4289,C#5,1159.75,0.25,72,141.83
4290,B-5,1160.0,1.5,90,141.83
4291,C#5,1160.0,1/40,72,141.83
4292,F3,1161.0,0.5,66,141.83
4293,A5,1161.5,11/40,71,141.83
4294,A3,1161.5,0.5,60,141.83
4295,G5,1161.75,11/40,68,141.83
4296,F5,1162.0,11/40,68,141.83
4297,D4,1162.0,0.5,60,141.83
4298,E5,1162.25,11/40,68,141.83
4299,D5,1162.5,11/40,69,141.83
4300,A3,1162.5,0.5,60,141.83
4301,C#5,1162.75,0.25,72,141.83
4302,D5,1163.0,1.5,88,141.83
4303,C#5,1163.0,1/40,72,141.83
4304,D4,1163.0,0.5,63,141.83
4305,A3,1163.5,0.5,60,141.83
4306,F3,1164.0,0.5,65,141.83
4307,F4,1164.5,0.25,70,141.83
4308,A3,1164.5,0.5,60,141.83
4309,A4,1164.75,0.25,72,141.83
4310,D5,1165.0,0.25,84,141.83
4311,D4,1165.0,0.5,63,141.83
4312,A4,1165.5,0.25,71,141.83
4313,A3,1165.5,0.5,60,141.83
4314,D5,1165.75,0.25,73,141.83
4315,F5,1166.0,0.25,86,141.83
4316,D4,1166.0,0.5,60,141.83
4317,D5,1166.5,0.25,71,141.83
4318,A3,1166.5,0.5,62,141.83
4319,F5,1166.75,0.25,73,141.83
4320,A5,1167.0,0.25,87,141.83
4321,D2,1167.0,0.25,66,141.83
4322,D3,1167.0,0.25,66,141.83
4323,A5,1167.5,0.5,80,141.83
4324,F5,1168.0,0.5,80,141.83
4325,G#3,1168.0,0.25,63,141.83
4326,D3,1168.0,0.25,63,141.83
4327,B3,1168.0,0.25,63,141.83
4328,F3,1168.0,0.25,63,141.83
4329,D5,1168.5,0.5,80,141.83
4330,D5,1169.0,1.5,79,141.83
4331,G#5,1169.0,1.5,79,141.83
4332,F5,1169.0,1.5,79,141.83
4333,B4,1169.0,1.5,79,141.83
4334,D2,1170.0,0.25,66,141.83
4335,D3,1170.0,0.25,66,141.83
4336,G5,1170.5,11/40,71,141.83
4337,F5,1170.75,11/40,68,141.83
4338,E-5,1171.0,11/40,68,141.83
4339,F3,1171.0,0.25,63,141.83
4340,B3,1171.0,0.25,63,141.83
4341,G#3,1171.0,0.25,63,141.83
4342,D3,1171.0,0.25,63,141.83
4343,D5,1171.25,11/40,68,141.83
4344,C5,1171.5,11/40,69,141.83
4345,B4,1171.75,0.25,72,141.83
4346,G#5,1172.0,1.5,90,141.83
4347,B4,1172.0,1/40,72,141.83
4348,E-3,1173.0,0.5,66,141.83
4349,G5,1173.5,11/40,71,141.83
4350,G3,1173.5,0.5,60,141.83
4351,F5,1173.75,11/40,68,141.83
4352,E-5,1174.0,11/40,68,141.83
4353,C4,1174.0,0.5,60,141.83
4354,D5,1174.25,11/40,68,141.83
4355,C5,1174.5,11/40,69,141.83
4356,G3,1174.5,0.5,60,141.83
4357,B4,1174.75,0.25,72,141.83
4358,C5,1175.0,1.5,88,141.83
4359,B4,1175.0,1/40,72,141.83
4360,C4,1175.0,0.5,63,141.83
4361,G3,1175.5,0.5,60,141.83
4362,E-3,1176.0,0.5,65,141.83
4363,E-4,1176.5,0.25,70,141.83
4364,G3,1176.5,0.5,60,141.83
4365,G4,1176.75,0.25,72,141.83
4366,C5,1177.0,0.25,84,141.83
4367,C4,1177.0,0.5,63,141.83
4368,G4,1177.5,0.25,71,141.83
4369,G3,1177.5,0.5,60,141.83
4370,C5,1177.75,0.25,73,141.83
4371,E-5,1178.0,0.25,86,141.83
4372,C4,1178.0,0.5,60,141.83
4373,C5,1178.5,0.25,71,141.83
4374,G3,1178.5,0.5,62,141.83
4375,E-5,1178.75,0.25,73,141.83
4376,G5,1179.0,0.25,87,141.83
4377,E-2,1179.0,0.25,71,141.83
4378,G5,1179.5,0.5,80,141.83
4379,E-5,1180.0,0.5,80,141.83
4380,A3,1180.0,0.25,63,141.83
4381,F#3,1180.0,0.25,63,141.83
4382,C4,1180.0,0.25,63,141.83
4383,E-3,1180.0,0.25,63,141.83
4384,C5,1180.5,0.5,80,141.83
4385,C5,1181.0,1.5,79,141.83
4386,F#5,1181.0,1.5,79,141.83
4387,E-5,1181.0,1.5,79,141.83
4388,A4,1181.0,1.5,79,141.83
4389,E-2,1182.0,0.25,71,141.83
4390,F5,1182.5,11/40,71,141.83
4391,E-5,1182.75,11/40,68,141.83
4392,C#5,1183.0,11/40,68,141.83
4393,E-3,1183.0,0.25,63,141.83
4394,C4,1183.0,0.25,63,141.83
4395,A3,1183.0,0.25,63,141.83
4396,F#3,1183.0,0.25,63,141.83
4397,C5,1183.25,11/40,68,141.83
4398,B-4,1183.5,11/40,69,141.83
4399,A4,1183.75,0.25,72,141.83
4400,F#5,1184.0,1.5,90,141.83
4401,A4,1184.0,1/40,72,141.83
4402,C#3,1185.0,0.5,66,141.83
4403,F5,1185.5,11/40,71,141.83
4404,F3,1185.5,0.5,60,141.83
4405,E-5,1185.75,11/40,68,141.83
4406,C#5,1186.0,11/40,68,141.83
4407,B-3,1186.0,0.5,60,141.83
4408,C5,1186.25,11/40,68,141.83
4409,B-4,1186.5,11/40,69,141.83
4410,F3,1186.5,0.5,60,141.83
4411,A4,1186.75,0.25,72,141.83
4412,B-4,1187.0,1.25,88,141.83
4413,A4,1187.0,1/40,72,141.83
4414,B-3,1187.0,0.5,63,141.83
4415,F3,1187.5,0.5,60,141.83
4416,C#3,1188.0,0.5,66,141.83
4417,F4,1188.25,0.25,69,141.83
4418,B-4,1188.5,0.25,74,141.83
4419,F3,1188.5,0.5,60,141.83
4420,F4,1188.75,0.25,70,141.83
4421,C#5,1189.0,0.25,74,141.83
4422,B-3,1189.0,0.5,60,141.83
4423,B-4,1189.25,0.25,71,141.83
4424,C#5,1189.5,0.25,75,141.83
4425,F3,1189.5,0.5,60,141.83
4426,B-4,1189.75,0.25,70,141.83
4427,F5,1190.0,0.25,74,141.83
4428,B-3,1190.0,0.5,63,141.83
4429,C#5,1190.25,0.25,71,141.83
4430,F5,1190.5,0.25,74,141.83
4431,F3,1190.5,0.5,60,141.83
4432,C#5,1190.75,0.25,71,141.83
4433,B-5,1191.0,1.0,91,141.83
4434,C3,1191.0,0.5,66,141.83
4435,F3,1191.5,0.5,60,141.83
4436,A3,1192.0,0.5,60,141.83
4437,F3,1192.5,0.5,60,141.83
4438,A4,1193.0,1.25,88,141.83
4439,A3,1193.0,0.5,63,141.83
4440,F3,1193.5,0.5,60,141.83
4441,C3,1194.0,0.5,66,141.83
4442,F4,1194.25,0.25,69,141.83
4443,A4,1194.5,0.25,74,141.83
4444,F3,1194.5,0.5,60,141.83
4445,F4,1194.75,0.25,70,141.83
4446,C5,1195.0,0.25,74,141.83
4447,A3,1195.0,0.5,60,141.83
4448,A4,1195.25,0.25,71,141.83
4449,C5,1195.5,0.25,75,141.83
4450,F3,1195.5,0.5,60,141.83
4451,A4,1195.75,0.25,70,141.83
4452,F5,1196.0,0.25,74,141.83
4453,A3,1196.0,0.5,63,141.83
4454,C5,1196.25,0.25,71,141.83
4455,F5,1196.5,0.25,74,141.83
4456,F3,1196.5,0.5,60,141.83
4457,C5,1196.75,0.25,71,141.83
4458,A5,1197.0,1.0,91,141.83
4459,B2,1197.0,0.5,66,141.83
4460,F3,1197.5,0.5,60,141.83
4461,G#3,1198.0,0.5,60,141.83
4462,F3,1198.5,0.5,60,141.83
4463,G#4,1199.0,1.25,88,141.83
4464,G#3,1199.0,0.5,63,141.83
4465,F3,1199.5,0.5,60,141.83
4466,B2,1200.0,0.5,66,141.83
4467,F4,1200.25,0.25,69,141.83
4468,G#4,1200.5,0.25,74,141.83
4469,F3,1200.5,0.5,60,141.83
4470,F4,1200.75,0.25,70,141.83
4471,D5,1201.0,0.25,74,141.83
4472,G#3,1201.0,0.5,60,141.83
4473,G#4,1201.25,0.25,71,141.83
4474,D5,1201.5,0.25,75,141.83
4475,F3,1201.5,0.5,60,141.83
4476,G#4,1201.75,0.25,70,141.83
4477,F5,1202.0,0.25,74,141.83
4478,G#3,1202.0,0.5,63,141.83
4479,D5,1202.25,0.25,71,141.83
4480,F5,1202.5,0.25,74,141.83
4481,F3,1202.5,0.5,60,141.83
4482,D5,1202.75,0.25,71,141.83
4483,G#5,1203.0,1.0,91,141.83
4484,C3,1203.0,0.5,66,141.83
4485,E3,1203.5,0.5,60,141.83
4486,F5,1204.0,0.75,81,141.83
4487,G3,1204.0,0.5,60,141.83
4488,C4,1204.5,0.5,60,141.83
4489,C5,1204.75,83/1000,70,141.83
4490,E5,1204.833,83/1000,70,141.83
4491,G5,1204.917,83/1000,70,141.83
4492,C6,1205.0,2.0,90,141.83
4493,F3,1205.0,0.5,63,141.83
4494,G#3,1205.5,0.5,60,141.83
4495,C3,1206.0,0.5,66,141.83
4496,E3,1206.5,0.5,60,141.83
4497,B-5,1207.0,271/1000,72,141.83
4498,G3,1207.0,0.5,60,141.83
4499,G#5,1207.25,271/1000,72,141.83
4500,G5,1207.5,271/1000,73,141.83
4501,C4,1207.5,0.5,60,141.83
4502,F5,1207.75,0.25,76,141.83
4503,C6,1208.0,2.0,90,141.83
4504,F3,1208.0,0.5,63,141.83
4505,G#3,1208.5,0.5,60,141.83
4506,C4,1209.0,1.5,72,141.83
4507,B-5,1210.0,271/1000,72,141.83
4508,G#5,1210.25,271/1000,72,141.83
4509,G5,1210.5,271/1000,73,141.83
4510,C#4,1210.5,271/1000,63,141.83
4511,F5,1210.75,0.25,76,141.83
4512,C4,1210.75,271/1000,62,141.83
4513,C5,1211.0,1.5,90,141.83
4514,B-3,1211.0,271/1000,60,141.83
4515,G#3,1211.25,271/1000,60,141.83
4516,G3,1211.5,271/1000,59,141.83
4517,F3,1211.75,0.25,57,141.83
4518,C4,1212.0,0.25,63,141.83
4519,F3,1212.0,21/1000,57,141.83
4520,C#5,1212.5,271/1000,79,141.83
4521,C5,1212.75,271/1000,78,141.83
4522,B-4,1213.0,271/1000,76,141.83
4523,C3,1213.0,0.25,52,141.83
4524,C2,1213.0,0.25,52,141.83
4525,G#4,1213.25,271/1000,75,141.83
4526,G4,1213.5,271/1000,74,141.83
4527,F4,1213.75,0.25,72,141.83
4528,C5,1214.0,0.25,79,141.83
4529,F4,1214.0,21/1000,72,141.83
4530,F2,1214.625,0.125,35,141.83
4531,C3,1214.75,0.125,35,141.83
4532,C4,1215.0,0.25,72,141.83
4533,F3,1215.0,1.0,35,141.83
4534,C4,1216.875,0.125,41,141.83
4535,A4,1217.0,0.25,45,141.83
4536,C3,1217.625,0.125,34,141.83
4537,G3,1217.75,0.125,34,141.83
4538,A4,1218.0,0.25,43,141.83
4539,B-3,1218.0,1.0,35,141.83
4540,A4,1219.0,0.25,43,141.83
4541,E4,1219.875,0.125,42,141.83
4542,C5,1220.0,1.5,45,141.83
4543,F2,1221.0,1.0,35,141.83
4544,B-4,1221.5,0.5,41,141.83
4545,G4,1222.0,1.0,41,141.83
4546,A2,1222.0,1.0,31,141.83
4547,A3,1223.0,1.0,45,141.83
4548,G4,1223.0,0.5,45,141.83
4549,C3,1223.0,1.0,31,141.83
4550,F4,1223.5,0.5,41,141.83
4551,F3,1224.0,1.0,35,141.83
4552,F4,1224.0,1.5,45,141.83
4553,C4,1224.0,1.5,45,141.83
4554,F2,1225.0,1.0,31,141.83
4555,E4,1225.5,0.5,45,141.83
4556,G4,1225.5,0.5,45,141.83
4557,G4,1226.0,2.0,49,141.83
4558,E4,1226.0,2.0,49,141.83
4559,D3,1227.0,2.0,35,141.83
4560,F4,1228.0,1.0,45,141.83
4561,A4,1228.0,1.0,45,141.83
4562,F3,1228.0,1.0,33,141.83
4563,B-3,1228.0,1.0,33,141.83
4564,B-4,1229.0,1.5,45,141.83
4565,E3,1230.0,2.0,38,141.83
4566,C5,1230.5,0.125,46,141.83
4567,B-4,1230.625,0.125,42,141.83
4568,A4,1230.75,0.125,42,141.83
4569,B-4,1230.875,83/1000,45,141.83
4570,C5,1231.0,0.5,49,141.83
4571,C4,1231.0,1.0,35,141.83
4572,G3,1231.0,1.0,35,141.83
4573,D5,1231.5,0.5,47,141.83
4574,D5,1232.0,0.5,55,141.83
4575,C5,1232.5,0.5,49,141.83
4576,B4,1233.0,0.5,52,141.83
4577,F3,1233.0,1.0,41,141.83
4578,C5,1233.5,0.5,45,141.83
4579,B-4,1234.0,0.5,50,141.83
4580,D3,1234.0,1.0,34,141.83
4581,F3,1234.0,1.0,34,141.83
4582,G4,1234.5,0.5,45,141.83
4583,G#4,1235.0,0.5,49,141.83
4584,B-2,1235.0,1.0,32,141.83
4585,G3,1235.0,1.0,32,141.83
4586,A4,1235.5,0.5,45,141.83
4587,B-4,1236.0,0.5,50,141.83
4588,C3,1236.0,1.0,38,141.83
4589,E3,1236.0,1.0,38,141.83
4590,A4,1236.5,0.5,45,141.83
4591,C5,1237.0,0.5,49,141.83
4592,B-4,1237.5,0.5,45,141.83
4593,A4,1238.0,0.5,52,141.83
4594,G4,1238.5,0.5,45,141.83
4595,F4,1239.0,0.5,48,141.83
4596,F3,1239.0,333/1000,39,141.83
4597,A3,1239.333,333/1000,31,141.83
4598,E4,1239.5,0.5,45,141.83
4599,C4,1239.667,333/1000,31,141.83
4600,D4,1240.0,0.5,46,141.83
4601,F3,1240.0,333/1000,39,141.83
4602,A3,1240.333,333/1000,32,141.83
4603,C4,1240.5,0.5,45,141.83
4604,C4,1240.667,333/1000,32,141.83
4605,F3,1241.0,333/1000,40,141.83
4606,G#4,1241.0,0.5,44,141.83
4607,G#5,1241.0,0.5,44,141.83
4608,A3,1241.333,333/1000,32,141.83
4609,A4,1241.5,0.5,38,141.83
4610,A5,1241.5,0.5,38,141.83
4611,C4,1241.667,333/1000,32,141.83
4612,E3,1242.0,333/1000,43,141.83
4613,G#4,1242.0,0.5,44,141.83
4614,G#5,1242.0,0.5,44,141.83
4615,G3,1242.333,333/1000,36,141.83
4616,A4,1242.5,0.5,36,141.83
4617,A5,1242.5,0.5,36,141.83
4618,C4,1242.667,333/1000,35,141.83
4619,E3,1243.0,333/1000,40,141.83
4620,G#4,1243.0,0.5,46,141.83
4621,G#5,1243.0,0.5,46,141.83
4622,G3,1243.333,333/1000,33,141.83
4623,A4,1243.5,0.5,43,141.83
4624,A5,1243.5,0.5,43,141.83
4625,C4,1243.667,333/1000,29,141.83
4626,E3,1244.0,333/1000,37,141.83
4627,B4,1244.0,0.5,52,141.83
4628,B5,1244.0,0.5,52,141.83
4629,B-3,1244.333,333/1000,29,141.83
4630,C5,1244.5,0.5,48,141.83
4631,C6,1244.5,0.5,48,141.83
4632,C4,1244.667,333/1000,29,141.83
4633,B4,1245.0,0.5,52,141.83
4634,B5,1245.0,0.5,52,141.83
4635,F3,1245.0,1.0,32,141.83
4636,A3,1245.0,1.0,32,141.83
4637,C5,1245.5,0.5,41,141.83
4638,C6,1245.5,0.5,41,141.83
4639,B-5,1246.0,0.5,49,141.83
4640,A3,1246.0,1.0,31,141.83
4641,G5,1246.5,0.5,39,141.83
4642,G5,1247.0,0.5,45,141.83
4643,C4,1247.0,1.0,31,141.83
4644,F5,1247.5,0.5,41,141.83
4645,G5,1248.0,0.5,45,141.83
4646,C5,1248.0,1.0,41,141.83
4647,F4,1248.0,1.0,35,141.83
4648,F5,1248.5,0.5,41,141.83
4649,E5,1249.0,1.0,41,141.83
4650,A5,1249.0,0.5,45,141.83
4651,C4,1249.0,1.0,31,141.83
4652,G5,1249.5,0.5,45,141.83
4653,E5,1250.0,2.0,49,141.83
4654,G5,1250.0,1.5,49,141.83
4655,F3,1250.0,1.0,31,141.83
4656,D4,1251.0,0.5,35,141.83
4657,G#5,1251.5,0.5,49,141.83
4658,F4,1251.5,0.5,31,141.83
4659,B-4,1252.0,0.5,32,141.83
4660,A5,1252.0,1.0,45,141.83
4661,F5,1252.0,1.0,45,141.83
4662,F4,1252.5,0.5,33,141.83
4663,B-5,1253.0,1.5,49,141.83
4664,D4,1253.0,0.5,35,141.83
4665,F4,1253.5,0.5,38,141.83
4666,E4,1254.0,0.5,40,141.83
4667,C6,1254.5,0.125,50,141.83
4668,G4,1254.5,0.5,35,141.83
4669,B-5,1254.625,0.125,46,141.83
4670,A5,1254.75,0.125,46,141.83
4671,B-5,1254.875,83/1000,49,141.83
4672,C6,1255.0,0.5,53,141.83
4673,C5,1255.0,0.5,42,141.83
4674,D6,1255.5,0.5,51,141.83
4675,G4,1255.5,0.5,35,141.83
4676,D6,1256.0,0.5,60,141.83
4677,E4,1256.0,0.5,35,141.83
4678,C6,1256.5,0.5,53,141.83
4679,G4,1256.5,0.5,34,141.83
4680,B5,1257.0,0.5,57,141.83
4681,F4,1257.0,1.0,41,141.83
4682,C6,1257.5,0.5,49,141.83
4683,B-5,1258.0,0.5,55,141.83
4684,B-3,1258.0,1.0,37,141.83
4685,G4,1258.0,1.0,37,141.83
4686,G5,1258.5,0.5,49,141.83
4687,G#5,1259.0,0.5,53,141.83
4688,C4,1259.0,1.0,35,141.83
4689,B-4,1259.0,1.0,35,141.83
4690,A5,1259.5,0.5,49,141.83
4691,C6,1260.0,0.5,55,141.83
4692,A4,1260.0,1.0,34,141.83
4693,F4,1260.0,1.0,34,141.83
4694,B-5,1260.5,0.5,49,141.83
4695,G5,1261.0,0.5,53,141.83
4696,A4,1261.0,1.0,40,141.83
4697,E5,1261.5,0.5,49,141.83
4698,F5,1262.0,0.5,54,141.83
4699,F4,1262.0,1.0,37,141.83
4700,C5,1262.5,0.5,35,141.83
4701,G4,1263.0,1.0,40,141.83
4702,C5,1263.5,0.25,35,141.83
4703,E4,1264.0,1.0,38,141.83
4704,C5,1264.5,0.25,35,141.83
4705,C4,1265.0,1.0,38,141.83
4706,B-4,1265.0,0.25,38,141.83
4707,C5,1265.0,0.25,38,141.83
4708,C5,1265.5,0.25,32,141.83
4709,B-4,1265.5,0.25,32,141.83
4710,F3,1266.0,1.0,40,141.83
4711,B-4,1266.5,0.25,32,141.83
4712,C5,1266.5,0.25,32,141.83
4713,G#3,1267.0,1.0,40,141.83
4714,C5,1267.5,0.25,32,141.83
4715,B-4,1267.5,0.25,32,141.83
4716,F3,1268.0,1.0,37,141.83
4717,G#4,1268.0,0.25,38,141.83
4718,C5,1268.0,0.25,38,141.83
4719,G#4,1268.5,0.25,32,141.83
4720,C5,1268.5,0.25,32,141.83
4721,G3,1269.0,1.0,40,141.83
4722,G#4,1269.5,0.25,32,141.83
4723,C5,1269.5,0.25,32,141.83
4724,E3,1270.0,1.0,38,141.83
4725,C5,1270.5,0.25,32,141.83
4726,G#4,1270.5,0.25,32,141.83
4727,C3,1271.0,1.0,38,141.83
4728,C5,1271.0,0.25,38,141.83
4729,B-4,1271.0,0.25,38,141.83
4730,C5,1271.5,0.25,32,141.83
4731,B-4,1271.5,0.25,32,141.83
4732,F2,1272.0,1.0,64,141.83
4733,F3,1272.0,1.0,64,141.83
4734,C5,1272.5,0.25,32,141.83
4735,B-4,1272.5,0.25,32,141.83
4736,G#3,1273.0,1.0,40,141.83
4737,B-4,1273.5,0.25,32,141.83
4738,C5,1273.5,0.25,32,141.83
4739,C4,1274.0,1.0,40,141.83
4740,C5,1274.0,0.25,63,141.83
4741,G#4,1274.0,0.25,63,141.83
4742,G#4,1274.5,0.25,50,141.83
4743,C5,1274.5,0.25,50,141.83
4744,B-3,1275.0,1.0,64,141.83
4745,B-2,1275.0,1.0,64,141.83
4746,C5,1275.5,0.25,33,141.83
4747,G#4,1275.5,0.25,33,141.83
4748,C#4,1276.0,1.0,40,141.83
4749,C5,1276.5,0.25,33,141.83
4750,G#4,1276.5,0.25,33,141.83
4751,F4,1277.0,1.0,40,141.83
4752,C#5,1277.0,0.25,63,141.83
4753,G#4,1277.0,0.25,63,141.83
4754,G#4,1277.5,0.25,50,141.83
4755,C#5,1277.5,0.25,50,141.83
4756,E-3,1278.0,1.0,64,141.83
4757,E-2,1278.0,1.0,64,141.83
4758,G#4,1278.5,0.25,33,141.83
4759,C#5,1278.5,0.25,33,141.83
4760,G3,1279.0,1.0,40,141.83
4761,C#5,1279.5,0.25,33,141.83
4762,G#4,1279.5,0.25,33,141.83
4763,B-3,1280.0,1.0,40,141.83
4764,G4,1280.0,0.25,63,141.83
4765,C#5,1280.0,0.25,63,141.83
4766,C#5,1280.5,0.25,50,141.83
4767,G4,1280.5,0.25,50,141.83
4768,G#2,1281.0,1.0,64,141.83
4769,G#3,1281.0,1.0,64,141.83
4770,C#5,1281.5,0.25,33,141.83
4771,G4,1281.5,0.25,33,141.83
4772,C4,1282.0,1.0,40,141.83
4773,G4,1282.5,0.25,33,141.83
4774,C#5,1282.5,0.25,33,141.83
4775,E-4,1283.0,1.0,40,141.83
4776,G4,1283.0,0.25,63,141.83
4777,C5,1283.0,0.25,63,141.83
4778,C5,1283.5,0.25,50,141.83
4779,G4,1283.5,0.25,50,141.83
4780,C#2,1284.0,1.0,64,141.83
4781,C#3,1284.0,1.0,64,141.83
4782,G4,1284.5,0.25,33,141.83
4783,C5,1284.5,0.25,33,141.83
4784,C#4,1285.0,1.0,40,141.83
4785,C5,1285.5,0.25,33,141.83
4786,G4,1285.5,0.25,33,141.83
4787,F4,1286.0,0.25,63,141.83
4788,C5,1286.0,0.25,63,141.83
4789,G3,1286.0,1.0,64,141.83
4790,G2,1286.0,1.0,64,141.83
4791,F4,1286.5,0.25,50,141.83
4792,C5,1286.5,0.25,50,141.83
4793,G4,1287.0,1.0,40,141.83
4794,F4,1287.5,0.25,33,141.83
4795,C5,1287.5,0.25,33,141.83
4796,F4,1288.0,0.25,63,141.83
4797,B-4,1288.0,0.25,63,141.83
4798,C2,1288.0,1.0,64,141.83
4799,C3,1288.0,1.0,64,141.83
4800,B-4,1288.5,0.25,50,141.83
4801,F4,1288.5,0.25,50,141.83
4802,C4,1289.0,1.0,40,141.83
4803,F4,1289.5,0.25,33,141.83
4804,B-4,1289.5,0.25,33,141.83
4805,C#4,1290.0,1.0,45,141.83
4806,B-4,1290.0,0.25,63,141.83
4807,E4,1290.0,0.25,63,141.83
4808,E4,1290.5,0.25,50,141.83
4809,B-4,1290.5,0.25,50,141.83
4810,C4,1291.0,1.0,39,141.83
4811,E4,1291.5,0.25,33,141.83
4812,B-4,1291.5,0.25,33,141.83
4813,B3,1292.0,1.0,39,141.83
4814,G#4,1292.5,0.25,33,141.83
4815,F4,1292.5,0.25,33,141.83
4816,C4,1293.0,1.0,44,141.83
4817,G#4,1293.5,0.25,33,141.83
4818,F4,1293.5,0.25,33,141.83
4819,F4,1294.5,0.25,33,141.83
4820,G#4,1294.5,0.25,33,141.83
4821,E4,1295.0,0.5,35,141.83
4822,G4,1295.0,0.5,35,141.83
4823,B3,1295.5,0.5,41,141.83
4824,G#4,1295.5,521/1000,34,141.83
4825,C5,1295.5,521/1000,34,141.83
4826,C4,1296.0,1.0,44,141.83
4827,B-4,1296.0,521/1000,30,141.83
4828,G4,1296.0,521/1000,30,141.83
4829,F4,1296.5,521/1000,28,141.83
4830,G#4,1296.5,521/1000,28,141.83
4831,E4,1297.0,521/1000,30,141.83
4832,G4,1297.0,521/1000,30,141.83
4833,G#4,1297.5,0.5,28,141.83
4834,F4,1297.5,0.5,28,141.83
4835,E4,1298.0,0.5,35,141.83
4836,G4,1298.0,0.5,35,141.83
4837,G#4,1298.0,21/1000,28,141.83
4838,F4,1298.0,21/1000,28,141.83
4839,B3,1298.5,0.5,32,141.83
4840,C5,1298.5,521/1000,34,141.83
4841,G#4,1298.5,521/1000,34,141.83
4842,C4,1299.0,521/1000,39,141.83
4843,B3,1299.0,21/1000,32,141.83
4844,G4,1299.0,521/1000,30,141.83
4845,B-4,1299.0,521/1000,30,141.83
4846,B3,1299.5,521/1000,35,141.83
4847,F4,1299.5,521/1000,28,141.83
4848,G#4,1299.5,521/1000,28,141.83
4849,C4,1300.0,521/1000,39,141.83
4850,G4,1300.0,521/1000,30,141.83
4851,E4,1300.0,521/1000,30,141.83
4852,B3,1300.5,521/1000,31,141.83
4853,F4,1300.5,0.5,28,141.83
4854,G#4,1300.5,0.5,28,141.83
4855,C4,1301.0,521/1000,39,141.83
4856,G4,1301.0,521/1000,34,141.83
4857,E4,1301.0,521/1000,34,141.83
4858,F4,1301.0,21/1000,28,141.83
4859,G#4,1301.0,21/1000,28,141.83
4860,B3,1301.5,0.5,32,141.83
4861,G#4,1301.5,521/1000,30,141.83
4862,F4,1301.5,521/1000,30,141.83
4863,C4,1302.0,1.0,38,141.83
4864,B3,1302.0,21/1000,32,141.83
4865,E4,1302.0,521/1000,34,141.83
4866,G4,1302.0,521/1000,34,141.83
4867,F4,1302.5,521/1000,31,141.83
4868,G#4,1302.5,521/1000,31,141.83
4869,G4,1303.0,521/1000,34,141.83
4870,E4,1303.0,521/1000,34,141.83
4871,G#4,1303.5,0.5,31,141.83
4872,F4,1303.5,0.5,31,141.83
4873,E4,1304.0,0.5,34,141.83
4874,G4,1304.0,0.5,34,141.83
4875,G#4,1304.0,21/1000,31,141.83
4876,F4,1304.0,21/1000,31,141.83
4877,F#4,1304.5,521/1000,33,141.83
4878,E-4,1304.5,521/1000,33,141.83
4879,B-3,1305.0,1.0,33,141.83
4880,E4,1305.0,521/1000,35,141.83
4881,G4,1305.0,521/1000,35,141.83
4882,A4,1305.5,521/1000,36,141.83
4883,F#4,1305.5,521/1000,36,141.83
4884,B-3,1306.0,1.0,31,141.83
4885,B-4,1306.0,521/1000,38,141.83
4886,G4,1306.0,521/1000,38,141.83
4887,C5,1306.5,0.5,40,141.83
4888,A4,1306.5,0.5,40,141.83
4889,B-3,1307.0,1.0,31,141.83
4890,D5,1307.0,1.0,38,141.83
4891,B-4,1307.0,1.0,38,141.83
4892,C5,1307.0,21/1000,40,141.83
4893,A4,1307.0,21/1000,40,141.83
4894,B-3,1308.0,2.0,33,141.83
4895,F4,1308.0,1.0,36,141.83
4896,B-4,1308.0,1.0,36,141.83
4897,D5,1308.0,1.0,36,141.83
4898,B-4,1309.0,1.0,36,141.83
4899,D5,1309.0,1.0,36,141.83
4900,F4,1309.0,1.0,36,141.83
4901,F4,1310.0,3.0,35,141.83
4902,F3,1310.0,1.0,31,141.83
4903,D5,1310.0,2.0,38,141.83
4904,B-4,1310.0,2.0,38,141.83
4905,C3,1311.0,1.0,33,141.83
4906,C3,1312.0,1.0,30,141.83
4907,A4,1312.0,1.0,31,141.83
4908,C5,1312.0,1.0,31,141.83
4909,C5,1313.0,0.5,42,141.83
4910,C3,1313.0,1.0,30,141.83
4911,E4,1313.0,1.0,35,141.83
4912,G4,1313.0,1.0,35,141.83
4913,B-4,1313.5,0.5,38,141.83
4914,C3,1314.0,2.0,33,141.83
4915,B-4,1314.0,1.0,37,141.83
4916,E4,1314.0,1.0,37,141.83
4917,G4,1314.0,1.0,37,141.83
4918,B-4,1315.0,1.0,34,141.83
4919,G4,1315.0,1.0,34,141.83
4920,E4,1315.0,1.0,34,141.83
4921,D3,1316.0,1.0,30,141.83
4922,E4,1316.0,2.0,37,141.83
4923,G4,1316.0,2.0,37,141.83
4924,B-4,1316.0,2.0,37,141.83
4925,B-2,1317.0,1.0,33,141.83
4926,C3,1318.0,1.0,32,141.83
4927,A4,1318.0,1.0,36,141.83
4928,F4,1318.0,1.0,36,141.83
4929,C3,1319.0,1.0,32,141.83
4930,C5,1319.0,0.5,38,141.83
4931,A4,1319.0,0.5,38,141.83
4932,B-4,1319.5,0.5,34,141.83
4933,G4,1319.5,0.5,34,141.83
4934,F3,1320.0,1.0,33,141.83
4935,F4,1320.0,1.0,38,141.83
4936,A4,1320.0,1.0,38,141.83
4937,E4,1321.0,1.0,33,141.83
4938,G4,1321.0,1.0,33,141.83
4939,F4,1322.0,0.5,38,141.83
4940,A4,1322.0,0.5,38,141.83
4941,F5,1322.5,229/500,35,141.83
4942,G5,1323.0,229/500,37,141.83
4943,F4,1323.0,1.0,30,141.83
4944,B-4,1323.0,1.0,30,141.83
4945,A5,1323.5,229/500,38,141.83
4946,B-5,1324.0,229/500,40,141.83
4947,F4,1324.0,1.0,28,141.83
4948,B-4,1324.0,1.0,28,141.83
4949,C6,1324.5,229/500,41,141.83
4950,D6,1325.0,1.0,46,141.83
4951,B-4,1325.0,1.0,28,141.83
4952,F4,1325.0,1.0,28,141.83
4953,D6,1326.0,1.0,44,141.83
4954,B-4,1326.0,2.0,33,141.83
4955,F4,1326.0,3.0,28,141.83
4956,D6,1327.0,1.0,44,141.83
4957,D6,1328.0,1.5,46,141.83
4958,A4,1328.0,1.0,31,141.83
4959,C4,1329.0,1.0,30,141.83
4960,G4,1329.0,1.0,30,141.83
4961,E6,1329.5,0.25,39,141.83
4962,D6,1329.75,0.25,39,141.83
4963,C6,1330.0,1.0,46,141.83
4964,G4,1330.0,1.0,28,141.83
4965,C4,1330.0,1.0,28,141.83
4966,C6,1331.0,0.5,46,141.83
4967,E5,1331.0,1.0,35,141.83
4968,G4,1331.0,1.0,28,141.83
4969,C4,1331.0,1.0,28,141.83
4970,B-5,1331.5,0.5,41,141.83
4971,E5,1332.0,1.0,40,141.83
4972,B-5,1332.0,1.0,40,141.83
4973,C4,1332.0,2.0,30,141.83
4974,G4,1332.0,2.0,30,141.83
4975,B-5,1333.0,1.0,36,141.83
4976,E5,1333.0,1.0,36,141.83
4977,E5,1334.0,2.0,40,141.83
4978,B-5,1334.0,2.0,40,141.83
4979,F4,1334.0,1.0,28,141.83
4980,D4,1334.0,1.0,28,141.83
4981,B-3,1335.0,1.0,33,141.83
4982,C4,1336.0,1.0,32,141.83
4983,A5,1336.0,1.0,38,141.83
4984,F5,1336.0,1.0,38,141.83
4985,B-3,1337.0,1.0,32,141.83
4986,C6,1337.0,0.5,40,141.83
4987,A5,1337.0,0.5,40,141.83
4988,B-5,1337.5,0.5,36,141.83
4989,G5,1337.5,0.5,36,141.83
4990,A5,1338.0,1.0,40,141.83
4991,F5,1338.0,1.0,40,141.83
4992,A2,1338.0,0.5,64,141.83
4993,A3,1338.0,0.5,64,141.83
4994,C#4,1339.0,0.25,40,141.83
4995,E5,1339.0,1.0,34,141.83
4996,G5,1339.0,1.0,34,141.83
4997,D4,1340.0,0.25,40,141.83
4998,C6,1340.0,0.25,63,141.83
4999,A5,1340.0,0.25,63,141.83
5000,C6,1340.5,0.25,50,141.83
5001,A5,1340.5,0.25,50,141.83
5002,B-3,1341.0,0.25,40,141.83
5003,G5,1341.5,0.25,33,141.83
5004,B-5,1341.5,0.25,33,141.83
5005,C4,1342.0,0.25,40,141.83
5006,F5,1342.5,0.25,33,141.83
5007,A5,1342.5,0.25,33,141.83
5008,B-3,1343.0,0.25,40,141.83
5009,G5,1343.5,0.25,33,141.83
5010,B-4,1343.5,0.25,33,141.83
5011,A2,1344.0,0.25,75,141.83
5012,A3,1344.0,0.25,75,141.83
5013,F5,1344.5,0.25,33,141.83
5014,A4,1344.5,0.25,33,141.83
5015,C#3,1345.0,0.25,73,141.83
5016,C#4,1345.0,0.25,73,141.83
5017,G4,1345.5,0.25,33,141.83
5018,E5,1345.5,0.25,33,141.83
5019,D4,1346.0,0.25,73,141.83
5020,D3,1346.0,0.25,73,141.83
5021,A5,1346.25,0.25,72,141.83
5022,C6,1346.5,0.25,75,141.83
5023,A5,1346.75,0.25,72,141.83
5024,B-2,1347.0,0.25,75,141.83
5025,B-3,1347.0,0.25,75,141.83
5026,G5,1347.25,0.25,70,141.83
5027,B-5,1347.5,0.25,75,141.83
5028,G5,1347.75,0.25,70,141.83
5029,C4,1348.0,0.25,73,141.83
5030,C3,1348.0,0.25,73,141.83
5031,F5,1348.25,0.25,72,141.83
5032,A5,1348.5,0.25,75,141.83
5033,F5,1348.75,0.25,71,141.83
5034,C3,1349.0,0.25,73,141.83
5035,C2,1349.0,0.25,73,141.83
5036,B-4,1349.25,0.25,71,141.83
5037,G5,1349.5,0.25,75,141.83
5038,B-4,1349.75,0.25,71,141.83
5039,F2,1350.0,0.25,64,141.83
5040,A4,1350.25,0.25,71,141.83
5041,A2,1350.25,0.25,59,141.83
5042,F5,1350.5,0.25,75,141.83
5043,C3,1350.5,0.25,59,141.83
5044,A4,1350.75,0.25,71,141.83
5045,F3,1350.75,0.25,59,141.83
5046,F2,1351.0,0.25,63,141.83
5047,G4,1351.25,0.25,71,141.83
5048,A2,1351.25,0.25,58,141.83
5049,E5,1351.5,0.25,75,141.83
5050,C3,1351.5,0.25,58,141.83
5051,G4,1351.75,0.25,71,141.83
5052,F3,1351.75,0.25,58,141.83
5053,F2,1352.0,0.25,63,141.83
5054,A4,1352.0,1.0,75,141.83
5055,C5,1352.0,1.0,75,141.83
5056,F5,1352.0,1.0,75,141.83
5057,A2,1352.25,0.25,57,141.83
5058,C3,1352.5,0.25,58,141.83
5059,F3,1352.75,0.25,58,141.83
5060,F2,1353.0,0.25,63,141.83
5061,A2,1353.25,0.25,58,141.83
5062,C3,1353.5,0.25,59,141.83
5063,F3,1353.75,0.25,59,141.83
5064,A4,1354.0,0.125,70,141.83
5065,F2,1354.0,0.25,63,141.83
5066,B-4,1354.125,0.125,65,141.83
5067,A4,1354.25,0.125,70,141.83
5068,A2,1354.25,0.25,57,141.83
5069,B-4,1354.375,0.125,66,141.83
5070,A4,1354.5,83/1000,70,141.83
5071,C3,1354.5,0.25,57,141.83
5072,B-4,1354.583,83/1000,66,141.83
5073,A4,1354.667,83/1000,66,141.83
5074,G4,1354.75,0.125,70,141.83
5075,F3,1354.75,0.25,57,141.83
5076,F4,1354.875,0.125,66,141.83
5077,C5,1355.0,2.0,75,141.83
5078,F2,1355.0,0.25,63,141.83
5079,B-2,1355.25,0.25,57,141.83
5080,C3,1355.5,0.25,57,141.83
5081,G3,1355.75,0.25,57,141.83
5082,F2,1356.0,0.25,63,141.83
5083,A2,1356.25,0.25,57,141.83
5084,C3,1356.5,0.25,57,141.83
5085,F3,1356.75,0.25,57,141.83
5086,E5,1357.0,0.125,70,141.83
5087,F2,1357.0,0.25,63,141.83
5088,F5,1357.125,0.125,66,141.83
5089,E5,1357.25,0.125,70,141.83
5090,A2,1357.25,0.25,57,141.83
5091,F5,1357.375,0.125,66,141.83
5092,E5,1357.5,83/1000,70,141.83
5093,C3,1357.5,0.25,57,141.83
5094,F5,1357.583,83/1000,65,141.83
5095,E5,1357.667,83/1000,66,141.83
5096,D5,1357.75,0.125,70,141.83
5097,F3,1357.75,0.25,57,141.83
5098,C5,1357.875,0.125,65,141.83
5099,F5,1358.0,2.0,75,141.83
5100,F2,1358.0,0.25,63,141.83
5101,A2,1358.25,0.25,57,141.83
5102,C3,1358.5,0.25,58,141.83
5103,F3,1358.75,0.25,58,141.83
5104,F2,1359.0,0.25,63,141.83
5105,A2,1359.25,0.25,58,141.83
5106,C3,1359.5,0.25,59,141.83
5107,F3,1359.75,0.25,59,141.83
5108,A5,1360.0,0.125,70,141.83
5109,F2,1360.0,0.25,63,141.83
5110,B-5,1360.125,0.125,65,141.83
5111,A5,1360.25,0.125,70,141.83
5112,A2,1360.25,0.25,57,141.83
5113,B-5,1360.375,0.125,66,141.83
5114,A5,1360.5,83/1000,70,141.83
5115,C3,1360.5,0.25,57,141.83
5116,B-5,1360.583,83/1000,66,141.83
5117,A5,1360.667,83/1000,66,141.83
5118,G5,1360.75,0.125,70,141.83
5119,F3,1360.75,0.25,57,141.83
5120,F5,1360.875,0.125,66,141.83
5121,C6,1361.0,0.5,75,141.83
5122,F2,1361.0,0.25,63,141.83
5123,B-2,1361.25,0.25,57,141.83
5124,C3,1361.5,0.25,57,141.83
5125,G3,1361.75,0.25,57,141.83
5126,C6,1362.0,0.5,75,141.83
5127,F4,1362.0,0.25,63,141.83
5128,F3,1362.0,0.25,63,141.83
5129,A3,1362.0,0.25,63,141.83
5130,C4,1362.0,0.25,63,141.83
5131,E6,1363.0,0.125,70,141.83
5132,A3,1363.0,1.5,64,141.83
5133,A2,1363.0,1.5,64,141.83
5134,F6,1363.125,0.125,66,141.83
5135,E6,1363.25,0.125,70,141.83
5136,F6,1363.375,0.125,66,141.83
5137,E6,1363.5,83/1000,70,141.83
5138,F6,1363.583,83/1000,65,141.83
5139,E6,1363.667,83/1000,66,141.83
5140,D6,1363.75,0.125,70,141.83
5141,C6,1363.875,0.125,65,141.83
5142,F6,1364.0,0.25,75,141.83
5143,C#4,1364.5,0.5,63,141.83
5144,C#3,1364.5,0.5,63,141.83
5145,A5,1365.0,1.5,88,141.83
5146,D4,1365.0,0.25,63,141.83
5147,D3,1365.0,0.25,63,141.83
5148,F4,1366.0,1.5,66,141.83
5149,F3,1366.0,1.5,66,141.83
5150,C#5,1366.5,0.5,75,141.83
5151,D5,1367.0,0.25,75,141.83
5152,A3,1367.5,0.5,63,141.83
5153,F5,1368.0,1.5,89,141.83
5154,B-3,1368.0,0.125,56,141.83
5155,C4,1368.125,0.125,52,141.83
5156,B-3,1368.25,0.125,56,141.83
5157,C4,1368.375,0.125,52,141.83
5158,B-3,1368.5,83/1000,56,141.83
5159,C4,1368.583,83/1000,52,141.83
5160,B-3,1368.667,83/1000,52,141.83
5161,A3,1368.75,0.125,56,141.83
5162,G3,1368.875,0.125,52,141.83
5163,C4,1369.0,0.25,63,141.83
5164,A4,1369.5,0.5,75,141.83
5165,B-4,1370.0,0.125,70,141.83
5166,C4,1370.0,0.25,62,141.83
5167,C3,1370.0,0.25,62,141.83
5168,C5,1370.125,0.125,65,141.83
5169,B-4,1370.25,0.125,70,141.83
5170,C5,1370.375,0.125,66,141.83
5171,B-4,1370.5,83/1000,70,141.83
5172,C5,1370.583,83/1000,66,141.83
5173,B-4,1370.667,83/1000,66,141.83
5174,A4,1370.75,0.125,70,141.83
5175,G4,1370.875,0.125,66,141.83
5176,C5,1371.0,0.25,84,141.83
5177,F3,1371.0,0.25,66,141.83
5178,F4,1371.0,0.25,66,141.83
5179,C5,1372.0,0.25,77,141.83
5180,G4,1372.0,0.25,77,141.83
5181,E5,1372.0,0.25,77,141.83
5182,F3,1372.0,0.25,64,141.83
5183,F2,1372.0,0.25,64,141.83
5184,F5,1373.0,0.25,77,141.83
5185,A4,1373.0,0.25,77,141.83
5186,C5,1373.0,0.25,77,141.83
5187,F4,1374.0,0.25,79,141.83
