,note_name,start_time,duration,velocity,tempo
0,G5,3.0,0.25,57,128.72
1,F5,3.25,0.25,56,128.72
2,E-5,3.5,0.25,54,128.72
3,D5,3.75,0.25,52,128.72
4,C5,4.0,0.5,60,128.72
5,B-4,4.5,479/1000,54,128.72
6,B-3,4.5,0.5,37,128.72
7,B-4,5.0,1.5,51,128.72
8,D4,5.0,0.5,37,128.72
9,F4,5.5,0.5,33,128.72
10,D4,6.0,0.5,36,128.72
11,D5,6.5,0.5,57,128.72
12,B-3,6.5,0.5,33,128.72
13,G5,7.0,0.5,60,128.72
14,D4,7.0,0.5,41,128.72
15,D5,7.5,0.5,55,128.72
16,G4,7.5,0.5,38,128.72
17,F5,8.0,1.0,60,128.72
18,C4,8.5,0.5,34,128.72
19,E-5,9.0,1.5,56,128.72
20,E-4,9.0,0.5,39,128.72
21,G4,9.5,0.5,36,128.72
22,E-4,10.0,0.5,44,128.72
23,F5,10.5,0.25,60,128.72
24,C4,10.5,0.5,37,128.72
25,G5,10.75,0.25,56,128.72
26,F5,11.0,0.25,61,128.72
27,E-4,11.0,0.5,38,128.72
28,E-5,11.25,0.25,54,128.72
29,D5,11.5,0.25,58,128.72
30,G4,11.5,0.5,34,128.72
31,C5,11.75,0.25,53,128.72
32,B-4,12.0,1.0,66,128.72
33,F3,12.5,0.5,35,128.72
34,A4,13.0,297/200,57,128.72
35,C4,13.0,0.5,35,128.72
36,E-4,13.5,0.5,34,128.72
37,C4,14.0,0.5,47,128.72
38,A4,14.5,0.5,62,128.72
39,F3,14.5,0.5,36,128.72
40,B-4,15.0,0.5,65,128.72
41,C4,15.0,0.5,43,128.72
42,C5,15.5,479/1000,61,128.72
43,E-4,15.5,0.5,36,128.72
44,A4,16.0,1.0,56,128.72
45,C5,16.0,1.0,56,128.72
46,B-3,16.5,0.5,42,128.72
47,D4,17.0,0.5,42,128.72
48,B-4,17.0,1.0,54,128.72
49,D5,17.0,1.0,54,128.72
50,F4,17.5,0.5,36,128.72
51,D4,18.0,0.5,45,128.72
52,F5,18.5,0.25,64,128.72
53,B-3,18.5,0.5,42,128.72
54,E5,18.75,0.25,63,128.72
55,G5,19.0,0.25,66,128.72
56,D4,19.0,0.5,42,128.72
57,F5,19.25,0.25,63,128.72
58,E-5,19.5,0.25,63,128.72
59,F4,19.5,0.5,39,128.72
60,D5,19.75,229/1000,61,128.72
61,D5,20.0,0.5,68,128.72
62,E-4,20.0,0.5,45,128.72
63,C5,20.5,1.0,61,128.72
64,G4,20.5,0.5,37,128.72
65,D4,21.0,0.5,40,128.72
66,B-4,21.5,0.5,61,128.72
67,F4,21.5,0.5,35,128.72
68,D5,22.0,0.5,67,128.72
69,E-4,22.0,0.5,45,128.72
70,C5,22.5,1.0,62,128.72
71,G4,22.5,0.5,35,128.72
72,C4,23.0,0.5,38,128.72
73,A4,23.5,0.5,64,128.72
74,E-4,23.5,0.5,32,128.72
75,B-4,24.0,0.25,68,128.72
76,D4,24.0,1.0,42,128.72
77,F4,24.0,1.0,42,128.72
78,C5,24.25,0.25,59,128.72
79,B-4,24.5,0.25,62,128.72
80,A4,24.75,0.25,58,128.72
81,B-4,25.0,0.25,66,128.72
82,C5,25.25,0.25,60,128.72
83,D5,25.5,0.25,63,128.72
84,E-5,25.75,0.25,61,128.72
85,E5,26.0,0.25,69,128.72
86,F5,26.25,0.25,65,128.72
87,E5,26.5,0.25,69,128.72
88,F5,26.75,0.25,65,128.72
89,G5,27.0,0.25,69,128.72
90,F5,27.25,0.25,67,128.72
91,E-5,27.5,0.25,66,128.72
92,D5,27.75,229/1000,65,128.72
93,D5,28.0,0.5,72,128.72
94,E-4,28.0,0.5,47,128.72
95,C5,28.5,479/1000,54,128.72
96,G4,28.5,0.5,36,128.72
97,C5,29.0,0.5,56,128.72
98,D4,29.0,0.5,40,128.72
99,B-4,29.5,0.5,54,128.72
100,F4,29.5,0.5,33,128.72
101,D5,30.0,0.5,65,128.72
102,E-4,30.0,0.5,47,128.72
103,C5,30.5,479/1000,54,128.72
104,G4,30.5,0.5,37,128.72
105,C5,31.0,0.5,57,128.72
106,C4,31.0,0.5,39,128.72
107,A4,31.5,0.5,53,128.72
108,E-4,31.5,0.5,32,128.72
109,B-4,32.0,0.5,66,128.72
110,F4,32.0,1.0,47,128.72
111,D4,32.0,1.0,47,128.72
112,C5,32.5,0.25,57,128.72
113,D5,32.75,0.25,58,128.72
114,E-5,33.0,0.25,59,128.72
115,F5,33.25,0.25,60,128.72
116,G5,33.5,0.25,61,128.72
117,A5,33.75,0.25,64,128.72
118,B-5,34.0,0.25,66,128.72
119,C6,34.25,0.25,67,128.72
120,D6,34.5,0.25,68,128.72
121,E-6,34.75,0.25,69,128.72
122,F6,35.0,0.25,76,128.72
123,F6,35.5,0.25,75,128.72
124,F5,36.0,2.5,76,128.72
125,F6,36.0,0.5,76,128.72
126,A3,36.0,1.0,61,128.72
127,E-6,36.5,1.0,74,128.72
128,B-3,37.0,1.0,55,128.72
129,D6,37.5,0.5,73,128.72
130,D6,38.0,0.5,75,128.72
131,E-3,38.0,1.0,63,128.72
132,E-5,38.5,0.25,64,128.72
133,C6,38.5,0.25,64,128.72
134,F3,39.0,1.0,57,128.72
135,D5,39.0,0.25,72,128.72
136,B-5,39.0,0.25,72,128.72
137,C5,39.5,0.25,64,128.72
138,A5,39.5,0.25,64,128.72
139,B-5,40.0,0.5,76,128.72
140,D5,40.0,0.5,76,128.72
141,B-2,40.5,0.25,52,128.72
142,B-4,41.0,0.5,72,128.72
143,D3,41.0,0.25,55,128.72
144,F3,41.5,0.25,50,128.72
145,B-3,42.0,1.0,61,128.72
146,G4,43.0,0.25,52,128.72
147,F4,43.25,0.25,49,128.72
148,E-4,43.5,0.25,52,128.72
149,D4,43.75,0.25,50,128.72
150,C4,44.0,0.5,56,128.72
151,B-3,44.5,479/1000,53,128.72
152,B-2,44.5,0.5,34,128.72
153,B-3,45.0,1.5,53,128.72
154,D3,45.0,0.5,37,128.72
155,F3,45.5,0.5,35,128.72
156,D3,46.0,0.5,43,128.72
157,B-4,46.5,0.5,63,128.72
158,B-2,46.5,0.5,39,128.72
159,A4,47.0,0.5,58,128.72
160,D3,47.0,0.5,39,128.72
161,G4,47.5,0.5,56,128.72
162,G3,47.5,0.5,35,128.72
163,F4,48.0,1.0,64,128.72
164,C3,48.5,0.5,36,128.72
165,E4,49.0,1.25,51,128.72
166,G3,49.0,0.5,39,128.72
167,B-3,49.5,0.5,35,128.72
168,G3,50.0,0.5,42,128.72
169,G4,50.25,0.25,52,128.72
170,F4,50.5,0.25,56,128.72
171,C3,50.5,0.5,34,128.72
172,A4,50.75,0.25,52,128.72
173,G4,51.0,0.25,56,128.72
174,G3,51.0,0.5,38,128.72
175,B-4,51.25,0.25,53,128.72
176,A4,51.5,0.25,56,128.72
177,B-3,51.5,0.5,34,128.72
178,C5,51.75,0.25,53,128.72
179,B-4,52.0,0.25,56,128.72
180,G4,52.25,0.25,58,128.72
181,E5,52.5,0.25,61,128.72
182,E3,52.5,0.5,39,128.72
183,C5,52.75,0.25,62,128.72
184,G5,53.0,0.25,64,128.72
185,G3,53.0,0.5,43,128.72
186,E5,53.25,0.25,67,128.72
187,B-5,53.5,0.25,70,128.72
188,C4,53.5,0.5,46,128.72
189,A5,53.75,0.25,69,128.72
190,B-5,54.0,0.25,71,128.72
191,G3,54.0,0.5,49,128.72
192,A5,54.25,0.25,67,128.72
193,G5,54.5,0.25,69,128.72
194,E3,54.5,0.5,47,128.72
195,F5,54.75,0.25,65,128.72
196,E5,55.0,0.25,66,128.72
197,G3,55.0,0.5,50,128.72
198,D5,55.25,0.25,65,128.72
199,C5,55.5,0.25,64,128.72
200,C4,55.5,0.5,54,128.72
201,B-4,55.75,229/1000,63,128.72
202,B-4,56.0,0.25,69,128.72
203,A4,56.25,0.25,56,128.72
204,D5,56.5,0.25,64,128.72
205,F3,56.5,0.5,42,128.72
206,C5,56.75,229/1000,54,128.72
207,C5,57.0,1.0,54,128.72
208,A3,57.0,0.5,41,128.72
209,C4,57.5,0.5,34,128.72
210,A3,58.0,0.5,37,128.72
211,F3,58.5,0.5,34,128.72
212,D6,59.0,0.25,69,128.72
213,A3,59.0,0.5,36,128.72
214,C6,59.25,0.25,66,128.72
215,B-5,59.5,0.25,69,128.72
216,C4,59.5,0.5,32,128.72
217,A5,59.75,0.25,66,128.72
218,G5,60.0,1.5,72,128.72
219,B-3,60.0,0.5,47,128.72
220,C4,60.5,0.5,32,128.72
221,B-3,61.0,0.5,37,128.72
222,E5,61.5,0.5,63,128.72
223,C4,61.5,0.5,31,128.72
224,F5,62.0,0.125,66,128.72
225,A3,62.0,0.5,50,128.72
226,C6,62.25,3/10,70,128.72
227,B5,62.5,3/10,70,128.72
228,C4,62.5,0.5,41,128.72
229,C6,62.75,3/10,67,128.72
230,D6,63.0,3/10,73,128.72
231,A3,63.0,0.5,44,128.72
232,C6,63.25,3/10,68,128.72
233,B-5,63.5,3/10,71,128.72
234,C4,63.5,0.5,41,128.72
235,A5,63.75,0.25,68,128.72
236,G5,64.0,0.25,81,128.72
237,A5,64.0,1/20,68,128.72
238,B-3,64.0,0.5,49,128.72
239,G5,64.5,1.0,75,128.72
240,C4,64.5,0.5,36,128.72
241,B-3,65.0,0.5,42,128.72
242,E5,65.5,0.5,64,128.72
243,C4,65.5,0.5,36,128.72
244,F5,66.0,0.125,63,128.72
245,A3,66.0,0.5,53,128.72
246,C6,66.25,3/10,70,128.72
247,B5,66.5,3/10,69,128.72
248,C4,66.5,0.5,45,128.72
249,C6,66.75,3/10,68,128.72
250,D6,67.0,3/10,75,128.72
251,A3,67.0,0.5,46,128.72
252,C6,67.25,3/10,69,128.72
253,B-5,67.5,11/40,71,128.72
254,C4,67.5,0.5,44,128.72
255,A5,67.75,0.25,67,128.72
256,A5,68.0,0.5,73,128.72
257,B-3,68.0,0.5,51,128.72
258,G5,68.5,0.5,70,128.72
259,D4,68.5,0.5,46,128.72
260,B-3,69.0,0.5,51,128.72
261,G5,69.5,479/1000,72,128.72
262,D4,69.5,0.5,46,128.72
263,G5,70.0,0.5,78,128.72
264,B3,70.0,0.5,50,128.72
265,F5,70.5,0.5,72,128.72
266,D4,70.5,0.5,46,128.72
267,B3,71.0,0.5,52,128.72
268,F5,71.5,0.5,72,128.72
269,D4,71.5,0.5,48,128.72
270,E5,72.0,0.25,73,128.72
271,C4,72.0,1.0,59,128.72
272,F5,72.25,0.25,66,128.72
273,E5,72.5,0.25,68,128.72
274,C5,72.75,0.25,65,128.72
275,F5,73.0,0.25,75,128.72
276,D4,73.0,1.0,61,128.72
277,G5,73.25,0.25,68,128.72
278,F5,73.5,0.25,68,128.72
279,C5,73.75,0.25,65,128.72
280,G5,74.0,0.25,80,128.72
281,E4,74.0,1.0,63,128.72
282,A5,74.25,0.25,68,128.72
283,G5,74.5,0.25,72,128.72
284,C5,74.75,0.25,67,128.72
285,A5,75.0,0.25,81,128.72
286,F4,75.0,1.0,65,128.72
287,B-5,75.25,0.25,74,128.72
288,A5,75.5,0.25,76,128.72
289,C5,75.75,0.25,69,128.72
290,B-5,76.0,0.25,85,128.72
291,G4,76.0,0.5,65,128.72
292,B-5,76.5,0.25,83,128.72
293,C5,76.5,0.5,53,128.72
294,E4,77.0,0.5,60,128.72
295,G5,77.5,0.25,77,128.72
296,C5,77.5,0.5,53,128.72
297,B-5,78.0,0.5,81,128.72
298,F4,78.0,0.5,59,128.72
299,A5,78.5,0.25,71,128.72
300,C5,78.5,0.5,50,128.72
301,G5,79.0,0.25,76,128.72
302,D4,79.0,0.5,56,128.72
303,F5,79.5,0.25,73,128.72
304,C5,79.5,0.5,52,128.72
305,E5,80.0,0.25,78,128.72
306,C4,80.0,1.0,60,128.72
307,C5,80.25,0.25,72,128.72
308,B5,80.5,0.25,72,128.72
309,C6,80.75,0.25,68,128.72
310,F5,81.0,0.25,80,128.72
311,D4,81.0,1.0,62,128.72
312,C5,81.25,0.25,73,128.72
313,B5,81.5,0.25,73,128.72
314,C6,81.75,0.25,69,128.72
315,G5,82.0,0.25,81,128.72
316,E4,82.0,1.0,65,128.72
317,C5,82.25,0.25,76,128.72
318,B5,82.5,0.25,76,128.72
319,C6,82.75,0.25,73,128.72
320,A5,83.0,0.25,84,128.72
321,F4,83.0,1.0,68,128.72
322,C5,83.25,0.25,76,128.72
323,B5,83.5,0.25,76,128.72
324,C6,83.75,0.25,75,128.72
325,B-5,84.0,0.25,89,128.72
326,G4,84.0,0.25,66,128.72
327,C5,84.25,0.25,44,128.72
328,B-5,84.5,0.25,84,128.72
329,B4,84.5,0.25,47,128.72
330,C5,84.75,0.25,44,128.72
331,E4,85.0,0.25,57,128.72
332,C5,85.25,0.25,45,128.72
333,G5,85.5,0.125,69,128.72
334,B4,85.5,0.25,48,128.72
335,A5,85.625,0.125,66,128.72
336,G5,85.75,0.125,69,128.72
337,C5,85.75,0.25,44,128.72
338,A5,85.875,0.125,67,128.72
339,B-5,86.0,0.5,79,128.72
340,F4,86.0,0.25,57,128.72
341,C5,86.25,0.25,44,128.72
342,A5,86.5,0.25,76,128.72
343,B4,86.5,0.25,46,128.72
344,C5,86.75,0.25,44,128.72
345,G5,87.0,0.25,76,128.72
346,D4,87.0,0.25,56,128.72
347,B4,87.25,0.25,45,128.72
348,F5,87.5,0.25,75,128.72
349,A4,87.5,0.25,45,128.72
350,B4,87.75,0.25,43,128.72
351,E5,88.0,0.25,79,128.72
352,C5,88.0,99/100,56,128.72
353,C4,88.0,99/100,56,128.72
354,C6,88.25,0.25,71,128.72
355,G5,88.5,0.25,72,128.72
356,E5,88.75,0.25,70,128.72
357,C5,89.0,0.25,76,128.72
358,G4,89.25,0.25,69,128.72
359,E4,89.5,0.25,71,128.72
360,C4,89.75,0.25,70,128.72
361,C3,90.0,0.5,73,128.72
362,C2,90.0,0.5,73,128.72
363,A4,92.0,1.5,70,128.72
364,F4,92.0,1.5,70,128.72
365,C4,92.0,1.5,70,128.72
366,C5,92.0,1.5,70,128.72
367,F2,92.0,2.0,66,128.72
368,F3,92.0,2.0,66,128.72
369,D5,93.5,0.25,48,128.72
370,C5,93.75,0.25,48,128.72
371,B-4,94.0,0.25,52,128.72
372,A4,94.5,0.25,48,128.72
373,G4,95.0,0.25,48,128.72
374,F4,95.5,0.25,48,128.72
375,F4,96.0,0.5,54,128.72
376,D5,96.479,0.5,50,128.72
377,F4,97.0,1.5,72,128.72
378,D5,97.0,1.5,72,128.72
379,B-3,97.0,2.0,68,128.72
380,B-2,97.0,2.0,68,128.72
381,C5,98.5,0.5,53,128.72
382,E5,99.0,0.5,56,128.72
383,A3,99.0,1.0,44,128.72
384,F5,99.5,0.5,53,128.72
385,F5,100.0,0.5,61,128.72
386,B3,100.0,1.0,38,128.72
387,D4,100.0,1.0,38,128.72
388,G4,100.5,1.0,53,128.72
389,C4,101.0,1.0,38,128.72
390,A4,101.5,0.5,53,128.72
391,F5,102.0,0.5,61,128.72
392,D4,102.0,1.0,38,128.72
393,B3,102.0,1.0,38,128.72
394,G4,102.5,1.0,53,128.72
395,C4,103.0,1.0,40,128.72
396,A4,103.5,0.5,53,128.72
397,C5,104.0,1.0,58,128.72
398,D4,104.0,1.0,39,128.72
399,B-4,105.0,0.125,52,128.72
400,E4,105.0,1.0,35,128.72
401,C5,105.125,0.125,48,128.72
402,B-4,105.25,0.125,52,128.72
403,C5,105.375,0.125,48,128.72
404,B-4,105.5,83/1000,52,128.72
405,C5,105.583,83/1000,48,128.72
406,B-4,105.667,83/1000,48,128.72
407,A4,105.75,0.125,52,128.72
408,B-4,105.875,0.125,49,128.72
409,A4,106.0,0.25,57,128.72
410,F4,106.0,1.0,35,128.72
411,A4,106.5,0.5,53,128.72
412,B-4,107.0,0.5,56,128.72
413,C5,107.5,0.5,53,128.72
414,C#5,108.0,0.5,65,128.72
415,D5,108.5,1.0,54,128.72
416,B-2,108.5,0.5,45,128.72
417,D3,109.0,0.5,46,128.72
418,C5,109.5,0.25,54,128.72
419,G3,109.5,0.5,45,128.72
420,B-4,109.75,0.25,50,128.72
421,A4,110.0,0.5,54,128.72
422,B-3,110.0,1.0,52,128.72
423,G4,110.5,0.5,53,128.72
424,A4,111.0,0.5,54,128.72
425,B-4,111.5,0.5,52,128.72
426,D5,112.0,0.5,63,128.72
427,C5,112.5,1.0,53,128.72
428,A2,112.5,0.5,44,128.72
429,C3,113.0,0.5,44,128.72
430,B-4,113.5,0.25,54,128.72
431,F3,113.5,0.5,42,128.72
432,A4,113.75,0.25,52,128.72
433,G4,114.0,0.5,56,128.72
434,A3,114.0,1.0,52,128.72
435,F4,114.5,0.5,54,128.72
436,G4,115.0,0.5,54,128.72
437,A4,115.5,0.5,54,128.72
438,C5,116.0,0.5,63,128.72
439,G3,116.0,1.0,44,128.72
440,B-4,116.5,1.0,51,128.72
441,E3,117.0,1.0,41,128.72
442,G4,117.5,0.5,51,128.72
443,B-4,118.0,0.5,62,128.72
444,F3,118.0,1.0,43,128.72
445,A4,118.5,1.0,52,128.72
446,D3,119.0,1.0,42,128.72
447,F4,119.5,0.5,52,128.72
448,E4,120.0,0.25,61,128.72
449,C3,120.0,1.0,44,128.72
450,F4,120.25,0.25,53,128.72
451,G4,120.5,0.25,53,128.72
452,A4,120.75,0.25,50,128.72
453,B4,121.0,0.25,59,128.72
454,C5,121.25,0.25,54,128.72
455,B4,121.5,0.25,54,128.72
456,C5,121.75,0.25,51,128.72
457,C4,122.0,1.0,56,128.72
458,C3,122.0,0.25,53,128.72
459,D3,122.25,0.25,49,128.72
460,B-2,122.5,0.25,54,128.72
461,C3,122.75,0.25,49,128.72
462,A2,123.0,0.25,54,128.72
463,B-2,123.25,0.25,49,128.72
464,G2,123.5,0.25,56,128.72
465,A2,123.75,0.25,49,128.72
466,F2,124.0,1.0,66,128.72
467,C5,124.0,1.5,71,128.72
468,A4,124.0,1.5,71,128.72
469,F3,125.0,1.0,46,128.72
470,D5,125.5,0.25,51,128.72
471,C5,125.75,0.25,51,128.72
472,B-4,126.0,0.25,57,128.72
473,A4,126.5,0.25,50,128.72
474,G4,127.0,0.25,50,128.72
475,F4,127.5,0.25,50,128.72
476,F4,128.0,0.5,54,128.72
477,D5,128.5,479/1000,50,128.72
478,D5,129.0,1.5,71,128.72
479,F4,129.0,1.5,71,128.72
480,B-2,129.0,2.0,59,128.72
481,B-3,129.0,2.0,59,128.72
482,C5,130.5,0.5,53,128.72
483,E5,131.0,0.5,66,128.72
484,A3,131.0,1.0,43,128.72
485,F5,131.5,0.5,63,128.72
486,F5,132.0,0.5,63,128.72
487,B3,132.0,1.0,43,128.72
488,D4,132.0,1.0,43,128.72
489,G4,132.5,0.5,53,128.72
490,A4,133.0,0.5,53,128.72
491,C4,133.0,1.0,43,128.72
492,F5,133.5,1.0,69,128.72
493,D4,134.0,1.0,43,128.72
494,B3,134.0,1.0,43,128.72
495,G4,134.5,0.5,53,128.72
496,A4,135.0,0.5,53,128.72
497,C4,135.0,1.0,43,128.72
498,F5,135.5,0.25,69,128.72
499,C5,136.0,1.0,54,128.72
500,F4,136.0,1.0,43,128.72
501,D4,136.0,1.0,43,128.72
502,B4,137.0,0.5,53,128.72
503,G4,137.0,1.0,43,128.72
504,E4,137.0,1.0,43,128.72
505,B-4,137.5,0.5,53,128.72
506,A4,138.0,0.25,48,128.72
507,F4,138.0,1.0,46,128.72
508,A4,138.5,0.5,54,128.72
509,B-4,139.0,0.5,60,128.72
510,C5,139.5,0.5,64,128.72
511,C#5,140.0,0.125,75,128.72
512,D5,140.125,1.375,70,128.72
513,D3,140.5,0.5,54,128.72
514,D4,141.0,0.25,61,128.72
515,E5,141.5,0.25,70,128.72
516,C4,141.5,0.25,53,128.72
517,F#5,141.75,0.25,67,128.72
518,G5,142.0,0.25,70,128.72
519,B-3,142.0,0.25,60,128.72
520,A5,142.25,0.25,67,128.72
521,B-5,142.5,0.25,70,128.72
522,B-2,142.5,0.5,53,128.72
523,A5,142.75,0.25,67,128.72
524,G5,143.0,0.25,70,128.72
525,B-3,143.0,0.25,61,128.72
526,A5,143.25,0.25,67,128.72
527,F5,143.5,0.25,70,128.72
528,A3,143.5,0.25,53,128.72
529,G5,143.75,0.25,67,128.72
530,E5,144.0,0.25,71,128.72
531,G3,144.0,0.5,57,128.72
532,F5,144.25,0.25,66,128.72
533,D5,144.5,0.25,71,128.72
534,F3,144.5,0.5,53,128.72
535,E5,144.75,0.25,67,128.72
536,C5,145.0,0.25,70,128.72
537,E3,145.0,0.5,53,128.72
538,D5,145.25,0.25,65,128.72
539,B-4,145.5,0.25,68,128.72
540,C3,145.5,0.5,53,128.72
541,C5,145.75,0.25,61,128.72
542,A4,146.0,0.25,66,128.72
543,F3,146.0,1.0,60,128.72
544,B-4,146.25,0.25,64,128.72
545,C5,146.5,0.25,68,128.72
546,D5,146.75,0.25,64,128.72
547,E5,147.0,0.25,71,128.72
548,A2,147.0,1.0,56,128.72
549,F5,147.25,0.25,68,128.72
550,E5,147.5,0.25,71,128.72
551,F5,147.75,0.25,68,128.72
552,G5,148.0,0.25,72,128.72
553,B-2,148.0,1.0,59,128.72
554,F5,148.25,0.25,70,128.72
555,E5,148.5,0.25,69,128.72
556,D5,148.75,0.25,67,128.72
557,E5,149.0,0.25,72,128.72
558,B-3,149.0,1.0,53,128.72
559,D5,149.25,0.25,70,128.72
560,C5,149.5,0.25,69,128.72
561,B-4,149.75,0.25,67,128.72
562,A4,150.0,1.0,71,128.72
563,C4,150.0,1.0,54,128.72
564,G4,151.0,0.125,58,128.72
565,E4,151.0,1.0,58,128.72
566,C3,151.0,1.0,53,128.72
567,A4,151.125,0.125,51,128.72
568,G4,151.25,0.125,58,128.72
569,A4,151.375,0.125,52,128.72
570,G4,151.5,83/1000,58,128.72
571,A4,151.583,83/1000,53,128.72
572,G4,151.667,83/1000,53,128.72
573,F4,151.75,0.125,66,128.72
574,G4,151.875,0.125,62,128.72
575,F4,152.0,1.0,75,128.72
576,F3,152.0,0.25,53,128.72
577,C4,152.25,0.25,46,128.72
578,B3,152.5,0.25,49,128.72
579,C4,152.75,0.25,46,128.72
580,D4,153.0,0.25,53,128.72
581,C4,153.25,0.25,46,128.72
582,B3,153.5,0.25,49,128.72
583,C4,153.75,0.25,46,128.72
584,B-3,154.0,0.25,53,128.72
585,C4,154.25,0.25,50,128.72
586,A3,154.5,0.25,53,128.72
587,C4,154.75,0.25,49,128.72
588,G3,155.0,0.25,53,128.72
589,C4,155.25,0.25,50,128.72
590,F3,155.5,0.25,53,128.72
591,C4,155.75,0.25,50,128.72
592,B-5,156.0,0.5,96,128.72
593,E3,156.0,0.25,48,128.72
594,C4,156.25,0.25,42,128.72
595,G5,156.5,0.25,62,128.72
596,G3,156.5,0.25,42,128.72
597,C4,156.75,0.25,40,128.72
598,E5,157.0,0.25,66,128.72
599,B-3,157.0,0.25,48,128.72
600,C4,157.25,0.25,42,128.72
601,E5,157.5,0.25,62,128.72
602,B-3,157.5,0.25,42,128.72
603,C4,157.75,0.25,41,128.72
604,B-5,158.0,0.5,96,128.72
605,E3,158.0,0.25,47,128.72
606,C4,158.25,0.25,43,128.72
607,G5,158.5,0.25,59,128.72
608,G3,158.5,0.25,43,128.72
609,C4,158.75,0.25,42,128.72
610,E5,159.0,0.25,63,128.72
611,B-3,159.0,0.25,48,128.72
612,C4,159.25,0.25,42,128.72
613,E5,159.5,0.25,60,128.72
614,B-3,159.5,0.25,42,128.72
615,C4,159.75,0.25,42,128.72
616,F5,160.0,0.25,62,128.72
617,A3,160.0,0.25,44,128.72
618,C4,160.25,0.25,45,128.72
619,G5,160.5,0.25,63,128.72
620,E3,160.5,0.25,45,128.72
621,C4,160.75,0.25,45,128.72
622,A5,161.0,0.25,64,128.72
623,F3,161.0,0.25,46,128.72
624,C4,161.25,0.25,47,128.72
625,B-5,161.5,0.25,66,128.72
626,G3,161.5,0.25,48,128.72
627,C4,161.75,0.25,49,128.72
628,B5,162.0,0.5,93,128.72
629,G#3,162.0,0.25,53,128.72
630,C4,162.25,0.25,48,128.72
631,C6,162.5,0.5,75,128.72
632,A3,162.5,0.25,53,128.72
633,C4,162.75,0.25,46,128.72
634,B5,163.0,0.5,93,128.72
635,G#3,163.0,0.25,53,128.72
636,C4,163.25,0.25,46,128.72
637,C6,163.5,0.5,75,128.72
638,A3,163.5,0.25,53,128.72
639,C4,163.75,0.25,47,128.72
640,B-5,164.0,0.5,95,128.72
641,E3,164.0,0.25,48,128.72
642,C4,164.25,0.25,38,128.72
643,G5,164.5,0.25,62,128.72
644,G3,164.5,0.25,42,128.72
645,C4,164.75,0.25,39,128.72
646,E5,165.0,0.25,67,128.72
647,B-3,165.0,0.25,48,128.72
648,C4,165.25,0.25,39,128.72
649,E5,165.5,0.25,62,128.72
650,B-3,165.5,0.25,42,128.72
651,C4,165.75,0.25,40,128.72
652,B-5,166.0,0.5,97,128.72
653,E3,166.0,0.25,47,128.72
654,C4,166.25,0.25,41,128.72
655,G5,166.5,0.25,59,128.72
656,G3,166.5,0.25,43,128.72
657,C4,166.75,0.25,40,128.72
658,E5,167.0,0.25,65,128.72
659,B-3,167.0,0.25,48,128.72
660,C4,167.25,0.25,38,128.72
661,E5,167.5,0.25,60,128.72
662,B-3,167.5,0.25,42,128.72
663,C4,167.75,0.25,40,128.72
664,F5,168.0,0.25,62,128.72
665,A3,168.0,0.25,44,128.72
666,C4,168.25,0.25,43,128.72
667,G5,168.5,0.25,63,128.72
668,E3,168.5,0.25,45,128.72
669,C4,168.75,0.25,45,128.72
670,A5,169.0,0.25,64,128.72
671,F3,169.0,0.25,46,128.72
672,C4,169.25,0.25,45,128.72
673,B-5,169.5,0.25,66,128.72
674,G3,169.5,0.25,48,128.72
675,C4,169.75,0.25,47,128.72
676,B5,170.0,0.5,93,128.72
677,G#3,170.0,0.25,53,128.72
678,C4,170.25,0.25,48,128.72
679,C6,170.5,0.5,75,128.72
680,A3,170.5,0.25,53,128.72
681,C4,170.75,0.25,46,128.72
682,B5,171.0,0.5,93,128.72
683,G#3,171.0,0.25,53,128.72
684,C4,171.25,0.25,46,128.72
685,C6,171.5,0.5,75,128.72
686,A3,171.5,0.25,53,128.72
687,C4,171.75,0.25,47,128.72
688,D5,172.0,2.0,78,128.72
689,D6,172.0,2.0,78,128.72
690,B-3,172.5,0.5,36,128.72
691,A3,173.0,0.5,38,128.72
692,B-3,173.5,0.5,36,128.72
693,E5,174.0,2.0,64,128.72
694,E4,174.0,2.0,64,128.72
695,C4,174.5,0.5,34,128.72
696,B3,175.0,0.5,38,128.72
697,C4,175.5,0.5,33,128.72
698,B-4,176.0,2.0,71,128.72
699,B-5,176.0,2.0,71,128.72
700,C#4,176.5,0.5,34,128.72
701,B3,177.0,0.5,36,128.72
702,C#4,177.5,0.5,34,128.72
703,A4,178.0,2.0,66,128.72
704,A5,178.0,2.0,66,128.72
705,D4,178.5,0.5,38,128.72
706,C#4,179.0,0.5,40,128.72
707,D4,179.5,0.5,38,128.72
708,A5,180.0,0.25,75,128.72
709,G5,180.25,0.25,68,128.72
710,B-5,180.5,0.25,72,128.72
711,A5,180.75,0.25,68,128.72
712,C6,181.0,0.25,72,128.72
713,B-3,181.0,1.0,54,128.72
714,G4,181.0,1.0,54,128.72
715,B-5,181.25,0.25,71,128.72
716,A5,181.5,0.25,71,128.72
717,G5,181.75,0.25,69,128.72
718,F5,182.0,1.0,72,128.72
719,C4,182.0,2.0,54,128.72
720,A4,182.0,1.0,54,128.72
721,E5,183.0,1.0,63,128.72
722,B-4,183.0,1.0,45,128.72
723,A4,184.0,2.0,37,128.72
724,F4,184.0,2.0,37,128.72
725,F5,184.5,0.5,45,128.72
726,E5,185.0,0.5,49,128.72
727,F5,185.5,0.5,45,128.72
728,A4,186.0,2.0,33,128.72
729,F4,186.0,2.0,33,128.72
730,E-5,186.5,0.5,45,128.72
731,D5,187.0,0.5,50,128.72
732,E-5,187.5,0.5,46,128.72
733,F#3,188.0,2.0,32,128.72
734,A3,188.0,2.0,32,128.72
735,C4,188.0,2.0,32,128.72
736,D5,188.5,0.5,54,128.72
737,D6,189.0,0.5,67,128.72
738,D6,189.5,0.25,63,128.72
739,G3,190.0,2.0,33,128.72
740,B-3,190.0,2.0,33,128.72
741,D6,190.5,0.5,61,128.72
742,D5,191.0,0.5,51,128.72
743,D5,191.5,0.25,47,128.72
744,E3,192.0,2.0,31,128.72
745,B-3,192.0,2.0,31,128.72
746,G3,192.0,2.0,31,128.72
747,C5,192.5,0.5,49,128.72
748,C6,193.0,0.5,62,128.72
749,C6,193.5,0.25,57,128.72
750,A3,194.0,2.0,32,128.72
751,F3,194.0,2.0,32,128.72
752,C6,194.5,0.5,56,128.72
753,C5,195.0,0.5,48,128.72
754,C5,195.5,0.25,45,128.72
755,C#5,196.0,0.5,46,128.72
756,D5,196.5,0.5,50,128.72
757,E5,197.0,0.5,54,128.72
758,G3,197.0,1.0,32,128.72
759,B2,197.0,1.0,32,128.72
760,F5,197.5,0.5,49,128.72
761,F4,198.0,1.0,45,128.72
762,A3,198.0,1.0,36,128.72
763,C3,198.0,2.0,36,128.72
764,E4,199.0,1.0,42,128.72
765,A4,199.0,0.5,42,128.72
766,B-3,199.0,1.0,35,128.72
767,G4,199.5,0.5,42,128.72
768,F4,200.0,0.25,45,128.72
769,A3,200.0,0.25,43,128.72
770,F3,200.0,0.25,43,128.72
771,F4,200.5,0.25,47,128.72
772,A4,200.75,0.25,45,128.72
773,G4,201.0,0.25,47,128.72
774,E4,201.0,0.5,35,128.72
775,B-4,201.25,0.25,45,128.72
776,A4,201.5,0.25,47,128.72
777,E-4,201.5,0.5,35,128.72
778,C5,201.75,0.25,45,128.72
779,B-4,202.0,0.25,48,128.72
780,D4,202.0,0.25,43,128.72
781,F3,202.0,0.25,43,128.72
782,F4,202.5,0.25,52,128.72
783,A4,202.75,0.25,48,128.72
784,G4,203.0,0.25,52,128.72
785,E4,203.0,0.5,35,128.72
786,B-4,203.25,0.25,48,128.72
787,A4,203.5,0.25,52,128.72
788,E-4,203.5,0.5,35,128.72
789,C5,203.75,0.25,48,128.72
790,B-4,204.0,0.25,52,128.72
791,D4,204.0,0.25,42,128.72
792,F3,204.0,0.25,42,128.72
793,F4,204.5,0.25,48,128.72
794,A4,204.75,0.25,50,128.72
795,G4,205.0,0.25,52,128.72
796,E4,205.0,0.5,43,128.72
797,B-4,205.25,0.25,53,128.72
798,A4,205.5,0.25,54,128.72
799,E-4,205.5,0.5,43,128.72
800,C5,205.75,0.25,57,128.72
801,B-4,206.0,0.25,58,128.72
802,D4,206.0,0.5,47,128.72
803,D5,206.25,0.25,60,128.72
804,C5,206.5,0.25,61,128.72
805,A3,206.5,0.5,44,128.72
806,E-5,206.75,0.25,63,128.72
807,D5,207.0,0.25,64,128.72
808,B-3,207.0,0.5,46,128.72
809,F5,207.25,0.25,65,128.72
810,E5,207.5,0.25,67,128.72
811,G3,207.5,0.5,44,128.72
812,G5,207.75,0.25,69,128.72
813,F5,208.0,0.25,70,128.72
814,A3,208.0,1.0,52,128.72
815,G5,208.25,0.25,72,128.72
816,A5,208.5,0.25,75,128.72
817,G5,208.75,0.25,75,128.72
818,F5,209.0,0.25,73,128.72
819,E-5,209.25,0.25,72,128.72
820,D5,209.5,0.25,71,128.72
821,C#5,209.75,0.25,70,128.72
822,D5,210.0,0.25,72,128.72
823,B-3,210.0,1.0,49,128.72
824,C5,210.25,0.25,69,128.72
825,B-4,210.5,0.25,71,128.72
826,A4,210.75,0.25,68,128.72
827,G4,211.0,0.25,70,128.72
828,F4,211.25,0.25,67,128.72
829,E4,211.5,0.25,69,128.72
830,D4,211.75,0.25,65,128.72
831,C4,212.0,0.25,68,128.72
832,C3,212.0,0.5,48,128.72
833,F4,212.25,0.25,65,128.72
834,A4,212.5,0.25,68,128.72
835,F3,212.5,0.5,44,128.72
836,C5,212.75,0.25,65,128.72
837,F5,213.0,0.25,72,128.72
838,A3,213.0,0.25,44,128.72
839,F3,213.5,0.5,41,128.72
840,F4,213.5,0.25,59,128.72
841,A4,213.5,0.25,59,128.72
842,C3,214.0,0.5,49,128.72
843,A4,214.0,0.5,64,128.72
844,C5,214.0,0.5,64,128.72
845,G3,214.5,0.25,43,128.72
846,B-4,214.5,0.25,60,128.72
847,G4,214.5,0.25,60,128.72
848,B-3,215.0,0.25,45,128.72
849,A4,215.0,0.25,61,128.72
850,F4,215.0,0.25,61,128.72
851,G3,215.5,0.25,43,128.72
852,E4,215.5,0.25,58,128.72
853,G4,215.5,0.25,58,128.72
854,F4,216.0,0.25,61,128.72
855,A3,216.0,0.25,51,128.72
856,F3,216.0,0.25,51,128.72
857,F5,216.5,0.25,47,128.72
858,F4,216.5,0.5,35,128.72
859,A5,216.75,0.25,45,128.72
860,G5,217.0,0.25,47,128.72
861,E4,217.0,0.5,35,128.72
862,B-5,217.25,0.25,45,128.72
863,A5,217.5,0.25,47,128.72
864,E-4,217.5,0.5,32,128.72
865,C6,217.75,0.25,45,128.72
866,B-5,218.0,0.25,48,128.72
867,F3,218.0,0.25,43,128.72
868,D4,218.0,0.25,43,128.72
869,F5,218.5,0.25,54,128.72
870,F4,218.5,0.5,32,128.72
871,A5,218.75,0.25,50,128.72
872,G5,219.0,0.25,54,128.72
873,E4,219.0,0.5,35,128.72
874,B-5,219.25,0.25,51,128.72
875,A5,219.5,0.25,54,128.72
876,E-4,219.5,0.5,33,128.72
877,C6,219.75,0.25,50,128.72
878,B-5,220.0,0.25,54,128.72
879,F3,220.0,0.25,42,128.72
880,D4,220.0,0.25,42,128.72
881,F5,220.5,0.25,55,128.72
882,F4,220.5,0.5,35,128.72
883,A5,220.75,0.25,56,128.72
884,G5,221.0,0.25,58,128.72
885,E4,221.0,0.5,43,128.72
886,B-5,221.25,0.25,59,128.72
887,A5,221.5,0.25,61,128.72
888,E-4,221.5,0.5,43,128.72
889,C6,221.75,0.25,63,128.72
890,B-5,222.0,0.25,64,128.72
891,D4,222.0,0.5,47,128.72
892,F5,222.25,0.25,67,128.72
893,C6,222.5,0.25,68,128.72
894,A3,222.5,0.5,44,128.72
895,F5,222.75,0.25,69,128.72
896,D6,223.0,0.25,70,128.72
897,B-3,223.0,0.5,46,128.72
898,F5,223.25,0.25,72,128.72
899,E6,223.5,0.25,74,128.72
900,G3,223.5,0.5,44,128.72
901,F5,223.75,0.25,75,128.72
902,F6,224.0,0.25,78,128.72
903,A3,224.0,1.0,62,128.72
904,A2,224.0,1.0,62,128.72
905,E6,224.25,0.25,78,128.72
906,D6,224.5,0.25,77,128.72
907,C6,224.75,0.25,75,128.72
908,B-5,225.0,0.25,74,128.72
909,A5,225.25,0.25,73,128.72
910,G5,225.5,0.25,72,128.72
911,F5,225.75,0.25,71,128.72
912,D6,226.0,0.25,79,128.72
913,B-2,226.0,1.0,63,128.72
914,B-3,226.0,1.0,63,128.72
915,C6,226.25,0.25,75,128.72
916,B-5,226.5,0.25,78,128.72
917,A5,226.75,0.25,77,128.72
918,G5,227.0,0.25,75,128.72
919,F5,227.25,0.25,71,128.72
920,E5,227.5,0.25,73,128.72
921,D5,227.75,0.25,70,128.72
922,C5,228.0,0.5,78,128.72
923,C3,228.0,0.25,48,128.72
924,A3,228.25,0.25,40,128.72
925,C6,228.5,0.25,75,128.72
926,F3,228.5,0.25,44,128.72
927,A3,228.75,0.25,41,128.72
928,C6,229.0,0.25,78,128.72
929,C3,229.0,0.25,48,128.72
930,A3,229.25,0.25,40,128.72
931,C6,229.5,0.25,77,128.72
932,F3,229.5,0.25,44,128.72
933,A3,229.75,0.25,40,128.72
934,C6,230.0,0.25,75,128.72
935,C3,230.0,0.25,48,128.72
936,A5,230.25,0.25,72,128.72
937,A3,230.25,0.25,42,128.72
938,F5,230.5,0.25,70,128.72
939,F3,230.5,0.25,46,128.72
940,C5,230.75,0.25,70,128.72
941,A3,230.75,0.25,42,128.72
942,F5,231.0,0.25,75,128.72
943,C3,231.0,0.25,48,128.72
944,C5,231.25,0.25,73,128.72
945,A3,231.25,0.25,43,128.72
946,A4,231.5,0.25,70,128.72
947,F3,231.5,0.25,46,128.72
948,F4,231.75,0.25,70,128.72
949,A3,231.75,0.25,43,128.72
950,G4,232.0,167/1000,51,128.72
951,C3,232.0,0.25,48,128.72
952,A4,232.167,167/1000,46,128.72
953,B-3,232.25,0.25,40,128.72
954,G4,232.333,167/1000,51,128.72
955,A4,232.5,167/1000,46,128.72
956,E3,232.5,0.25,43,128.72
957,G4,232.667,167/1000,51,128.72
958,B-3,232.75,0.25,40,128.72
959,A4,232.833,167/1000,46,128.72
960,G4,233.0,167/1000,51,128.72
961,C3,233.0,0.25,48,128.72
962,A4,233.167,167/1000,46,128.72
963,B-3,233.25,0.25,42,128.72
964,G4,233.333,167/1000,51,128.72
965,A4,233.5,167/1000,46,128.72
966,E3,233.5,0.25,43,128.72
967,G4,233.667,167/1000,51,128.72
968,B-3,233.75,0.25,42,128.72
969,A4,233.833,167/1000,46,128.72
970,G4,234.0,167/1000,51,128.72
971,C3,234.0,0.25,48,128.72
972,A4,234.167,167/1000,46,128.72
973,B-3,234.25,0.25,41,128.72
974,G4,234.333,167/1000,51,128.72
975,A4,234.5,167/1000,48,128.72
976,E3,234.5,0.25,43,128.72
977,G4,234.667,167/1000,51,128.72
978,B-3,234.75,0.25,41,128.72
979,A4,234.833,167/1000,47,128.72
980,G4,235.0,0.125,51,128.72
981,C3,235.0,0.25,48,128.72
982,A4,235.125,0.125,48,128.72
983,G4,235.25,0.125,51,128.72
984,B-3,235.25,0.25,42,128.72
985,A4,235.375,0.125,47,128.72
986,G4,235.5,83/1000,51,128.72
987,E3,235.5,0.25,45,128.72
988,A4,235.583,83/1000,48,128.72
989,G4,235.667,83/1000,48,128.72
990,F4,235.75,0.125,62,128.72
991,B-3,235.75,0.25,42,128.72
992,G4,235.875,0.125,58,128.72
993,F4,236.0,479/1000,71,128.72
994,F3,236.0,0.5,51,128.72
995,F5,236.5,0.5,54,128.72
996,F4,236.5,0.5,44,128.72
997,E4,237.0,0.5,44,128.72
998,F5,237.5,0.5,53,128.72
999,F4,237.5,0.5,44,128.72
1000,E5,238.0,0.5,51,128.72
1001,G4,238.0,0.5,45,128.72
1002,F5,238.5,0.5,58,128.72
1003,F4,238.5,0.5,48,128.72
1004,G5,239.0,0.5,60,128.72
1005,E4,239.0,0.5,51,128.72
1006,A5,239.5,0.5,66,128.72
1007,E-4,239.5,0.5,54,128.72
1008,B-5,240.0,0.25,70,128.72
1009,D4,240.0,0.5,59,128.72
1010,C6,240.25,0.25,68,128.72
1011,D6,240.5,0.25,72,128.72
1012,F3,240.5,0.5,45,128.72
1013,C6,240.75,0.25,67,128.72
1014,B-5,241.0,0.25,70,128.72
1015,C#4,241.0,0.5,53,128.72
1016,G#5,241.25,0.25,67,128.72
1017,G5,241.5,0.25,68,128.72
1018,F3,241.5,0.5,45,128.72
1019,F5,241.75,0.25,65,128.72
1020,E5,242.0,0.25,67,128.72
1021,C4,242.0,0.5,52,128.72
1022,F5,242.25,0.25,68,128.72
1023,G5,242.5,0.25,69,128.72
1024,F3,242.5,0.5,44,128.72
1025,F5,242.75,0.25,68,128.72
1026,E5,243.0,0.25,67,128.72
1027,E4,243.0,0.5,50,128.72
1028,D5,243.25,0.25,65,128.72
1029,C5,243.5,0.25,64,128.72
1030,F3,243.5,0.5,44,128.72
1031,B-4,243.75,0.25,63,128.72
1032,A4,244.0,0.25,62,128.72
1033,F4,244.0,0.25,53,128.72
1034,A4,244.5,0.25,49,128.72
1035,F3,244.5,0.5,41,128.72
1036,E3,245.0,0.5,41,128.72
1037,F4,245.5,0.5,53,128.72
1038,F3,245.5,0.5,41,128.72
1039,E4,246.0,0.5,49,128.72
1040,G3,246.0,0.5,45,128.72
1041,F4,246.5,0.5,49,128.72
1042,F3,246.5,0.5,43,128.72
1043,G4,247.0,0.5,49,128.72
1044,E3,247.0,0.5,43,128.72
1045,A4,247.5,0.5,49,128.72
1046,E-3,247.5,0.5,43,128.72
1047,B-4,248.0,0.25,52,128.72
1048,D3,248.0,1.0,45,128.72
1049,C5,248.5,0.125,52,128.72
1050,B-4,248.625,0.125,49,128.72
1051,A4,248.75,0.125,52,128.72
1052,B-4,248.875,0.125,49,128.72
1053,C5,249.0,0.5,58,128.72
1054,B-2,249.0,1.0,35,128.72
1055,D5,249.5,479/1000,59,128.72
1056,C3,250.0,1.0,35,128.72
1057,B-4,250.0,0.5,50,128.72
1058,D5,250.0,0.5,50,128.72
1059,C5,250.5,0.5,46,128.72
1060,A4,250.5,0.5,46,128.72
1061,C3,251.0,1.0,35,128.72
1062,B-3,251.5,0.5,33,128.72
1063,E4,251.5,0.5,33,128.72
1064,F3,252.0,1.0,37,128.72
1065,B-3,252.0,2.0,45,128.72
1066,G4,252.0,2.0,45,128.72
1067,C3,253.0,1.0,28,128.72
1068,F2,254.0,0.75,28,128.72
1069,A3,254.0,0.75,34,128.72
1070,F4,254.0,0.75,34,128.72
1071,G5,255.0,0.25,57,128.72
1072,F5,255.25,0.25,56,128.72
1073,E-5,255.5,0.25,54,128.72
1074,D5,255.75,0.25,52,128.72
1075,C5,256.0,0.5,60,128.72
1076,B-4,256.5,479/1000,54,128.72
1077,B-3,256.5,0.5,37,128.72
1078,B-4,257.0,1.5,51,128.72
1079,D4,257.0,0.5,37,128.72
1080,F4,257.5,0.5,33,128.72
1081,D4,258.0,0.5,36,128.72
1082,D5,258.5,0.5,57,128.72
1083,B-3,258.5,0.5,33,128.72
1084,G5,259.0,0.5,60,128.72
1085,D4,259.0,0.5,41,128.72
1086,D5,259.5,0.5,55,128.72
1087,G4,259.5,0.5,38,128.72
1088,F5,260.0,1.0,60,128.72
1089,C4,260.5,0.5,34,128.72
1090,E-5,261.0,1.5,56,128.72
1091,E-4,261.0,0.5,39,128.72
1092,G4,261.5,0.5,36,128.72
1093,E-4,262.0,0.5,44,128.72
1094,F5,262.5,0.25,60,128.72
1095,C4,262.5,0.5,37,128.72
1096,G5,262.75,0.25,56,128.72
1097,F5,263.0,0.25,61,128.72
1098,E-4,263.0,0.5,38,128.72
1099,E-5,263.25,0.25,54,128.72
1100,D5,263.5,0.25,58,128.72
1101,G4,263.5,0.5,34,128.72
1102,C5,263.75,0.25,53,128.72
1103,B-4,264.0,1.0,66,128.72
1104,F3,264.5,0.5,35,128.72
1105,A4,265.0,297/200,57,128.72
1106,C4,265.0,0.5,35,128.72
1107,E-4,265.5,0.5,34,128.72
1108,C4,266.0,0.5,47,128.72
1109,A4,266.5,0.5,62,128.72
1110,F3,266.5,0.5,36,128.72
1111,B-4,267.0,0.5,65,128.72
1112,C4,267.0,0.5,43,128.72
1113,C5,267.5,479/1000,61,128.72
1114,E-4,267.5,0.5,36,128.72
1115,A4,268.0,1.0,56,128.72
1116,C5,268.0,1.0,56,128.72
1117,B-3,268.5,0.5,42,128.72
1118,D4,269.0,0.5,42,128.72
1119,B-4,269.0,1.0,54,128.72
1120,D5,269.0,1.0,54,128.72
1121,F4,269.5,0.5,36,128.72
1122,D4,270.0,0.5,45,128.72
1123,F5,270.5,0.25,64,128.72
1124,B-3,270.5,0.5,42,128.72
1125,E5,270.75,0.25,63,128.72
1126,G5,271.0,0.25,66,128.72
1127,D4,271.0,0.5,42,128.72
1128,F5,271.25,0.25,63,128.72
1129,E-5,271.5,0.25,63,128.72
1130,F4,271.5,0.5,39,128.72
1131,D5,271.75,229/1000,61,128.72
1132,D5,272.0,0.5,68,128.72
1133,E-4,272.0,0.5,45,128.72
1134,C5,272.5,1.0,61,128.72
1135,G4,272.5,0.5,37,128.72
1136,D4,273.0,0.5,40,128.72
1137,B-4,273.5,0.5,61,128.72
1138,F4,273.5,0.5,35,128.72
1139,D5,274.0,0.5,67,128.72
1140,E-4,274.0,0.5,45,128.72
1141,C5,274.5,1.0,62,128.72
1142,G4,274.5,0.5,35,128.72
1143,C4,275.0,0.5,38,128.72
1144,A4,275.5,0.5,64,128.72
1145,E-4,275.5,0.5,32,128.72
1146,B-4,276.0,0.25,68,128.72
1147,D4,276.0,1.0,42,128.72
1148,F4,276.0,1.0,42,128.72
1149,C5,276.25,0.25,59,128.72
1150,B-4,276.5,0.25,62,128.72
1151,A4,276.75,0.25,58,128.72
1152,B-4,277.0,0.25,66,128.72
1153,C5,277.25,0.25,60,128.72
1154,D5,277.5,0.25,63,128.72
1155,E-5,277.75,0.25,61,128.72
1156,E5,278.0,0.25,69,128.72
1157,F5,278.25,0.25,65,128.72
1158,E5,278.5,0.25,69,128.72
1159,F5,278.75,0.25,65,128.72
1160,G5,279.0,0.25,69,128.72
1161,F5,279.25,0.25,67,128.72
1162,E-5,279.5,0.25,66,128.72
1163,D5,279.75,229/1000,65,128.72
1164,D5,280.0,0.5,72,128.72
1165,E-4,280.0,0.5,47,128.72
1166,C5,280.5,479/1000,54,128.72
1167,G4,280.5,0.5,36,128.72
1168,C5,281.0,0.5,56,128.72
1169,D4,281.0,0.5,40,128.72
1170,B-4,281.5,0.5,54,128.72
1171,F4,281.5,0.5,33,128.72
1172,D5,282.0,0.5,65,128.72
1173,E-4,282.0,0.5,47,128.72
1174,C5,282.5,479/1000,54,128.72
1175,G4,282.5,0.5,37,128.72
1176,C5,283.0,0.5,57,128.72
1177,C4,283.0,0.5,39,128.72
1178,A4,283.5,0.5,53,128.72
1179,E-4,283.5,0.5,32,128.72
1180,B-4,284.0,0.5,66,128.72
1181,F4,284.0,1.0,47,128.72
1182,D4,284.0,1.0,47,128.72
1183,C5,284.5,0.25,57,128.72
1184,D5,284.75,0.25,58,128.72
1185,E-5,285.0,0.25,59,128.72
1186,F5,285.25,0.25,60,128.72
1187,G5,285.5,0.25,61,128.72
1188,A5,285.75,0.25,64,128.72
1189,B-5,286.0,0.25,66,128.72
1190,C6,286.25,0.25,67,128.72
1191,D6,286.5,0.25,68,128.72
1192,E-6,286.75,0.25,69,128.72
1193,F6,287.0,0.25,76,128.72
1194,F6,287.5,0.25,75,128.72
1195,F5,288.0,2.5,76,128.72
1196,F6,288.0,0.5,76,128.72
1197,A3,288.0,1.0,61,128.72
1198,E-6,288.5,1.0,74,128.72
1199,B-3,289.0,1.0,55,128.72
1200,D6,289.5,0.5,73,128.72
1201,D6,290.0,0.5,75,128.72
1202,E-3,290.0,1.0,63,128.72
1203,E-5,290.5,0.25,64,128.72
1204,C6,290.5,0.25,64,128.72
1205,F3,291.0,1.0,57,128.72
1206,D5,291.0,0.25,72,128.72
1207,B-5,291.0,0.25,72,128.72
1208,C5,291.5,0.25,64,128.72
1209,A5,291.5,0.25,64,128.72
1210,B-5,292.0,0.5,76,128.72
1211,D5,292.0,0.5,76,128.72
1212,B-2,292.5,0.25,52,128.72
1213,B-4,293.0,0.5,72,128.72
1214,D3,293.0,0.25,55,128.72
1215,F3,293.5,0.25,50,128.72
1216,B-3,294.0,1.0,61,128.72
1217,G4,295.0,0.25,52,128.72
1218,F4,295.25,0.25,49,128.72
1219,E-4,295.5,0.25,52,128.72
1220,D4,295.75,0.25,50,128.72
1221,C4,296.0,0.5,56,128.72
1222,B-3,296.5,479/1000,53,128.72
1223,B-2,296.5,0.5,34,128.72
1224,B-3,297.0,1.5,53,128.72
1225,D3,297.0,0.5,37,128.72
1226,F3,297.5,0.5,35,128.72
1227,D3,298.0,0.5,43,128.72
1228,B-4,298.5,0.5,63,128.72
1229,B-2,298.5,0.5,39,128.72
1230,A4,299.0,0.5,58,128.72
1231,D3,299.0,0.5,39,128.72
1232,G4,299.5,0.5,56,128.72
1233,G3,299.5,0.5,35,128.72
1234,F4,300.0,1.0,64,128.72
1235,C3,300.5,0.5,36,128.72
1236,E4,301.0,1.25,51,128.72
1237,G3,301.0,0.5,39,128.72
1238,B-3,301.5,0.5,35,128.72
1239,G3,302.0,0.5,42,128.72
1240,G4,302.25,0.25,52,128.72
1241,F4,302.5,0.25,56,128.72
1242,C3,302.5,0.5,34,128.72
1243,A4,302.75,0.25,52,128.72
1244,G4,303.0,0.25,56,128.72
1245,G3,303.0,0.5,38,128.72
1246,B-4,303.25,0.25,53,128.72
1247,A4,303.5,0.25,56,128.72
1248,B-3,303.5,0.5,34,128.72
1249,C5,303.75,0.25,53,128.72
1250,B-4,304.0,0.25,56,128.72
1251,G4,304.25,0.25,58,128.72
1252,E5,304.5,0.25,61,128.72
1253,E3,304.5,0.5,39,128.72
1254,C5,304.75,0.25,62,128.72
1255,G5,305.0,0.25,64,128.72
1256,G3,305.0,0.5,43,128.72
1257,E5,305.25,0.25,67,128.72
1258,B-5,305.5,0.25,70,128.72
1259,C4,305.5,0.5,46,128.72
1260,A5,305.75,0.25,69,128.72
1261,B-5,306.0,0.25,71,128.72
1262,G3,306.0,0.5,49,128.72
1263,A5,306.25,0.25,67,128.72
1264,G5,306.5,0.25,69,128.72
1265,E3,306.5,0.5,47,128.72
1266,F5,306.75,0.25,65,128.72
1267,E5,307.0,0.25,66,128.72
1268,G3,307.0,0.5,50,128.72
1269,D5,307.25,0.25,65,128.72
1270,C5,307.5,0.25,64,128.72
1271,C4,307.5,0.5,54,128.72
1272,B-4,307.75,229/1000,63,128.72
1273,B-4,308.0,0.25,69,128.72
1274,A4,308.25,0.25,56,128.72
1275,D5,308.5,0.25,64,128.72
1276,F3,308.5,0.5,42,128.72
1277,C5,308.75,229/1000,54,128.72
1278,C5,309.0,1.0,54,128.72
1279,A3,309.0,0.5,41,128.72
1280,C4,309.5,0.5,34,128.72
1281,A3,310.0,0.5,37,128.72
1282,F3,310.5,0.5,34,128.72
1283,D6,311.0,0.25,69,128.72
1284,A3,311.0,0.5,36,128.72
1285,C6,311.25,0.25,66,128.72
1286,B-5,311.5,0.25,69,128.72
1287,C4,311.5,0.5,32,128.72
1288,A5,311.75,0.25,66,128.72
1289,G5,312.0,1.5,72,128.72
1290,B-3,312.0,0.5,47,128.72
1291,C4,312.5,0.5,32,128.72
1292,B-3,313.0,0.5,37,128.72
1293,E5,313.5,0.5,63,128.72
1294,C4,313.5,0.5,31,128.72
1295,F5,314.0,0.125,66,128.72
1296,A3,314.0,0.5,50,128.72
1297,C6,314.25,3/10,70,128.72
1298,B5,314.5,3/10,70,128.72
1299,C4,314.5,0.5,41,128.72
1300,C6,314.75,3/10,67,128.72
1301,D6,315.0,3/10,73,128.72
1302,A3,315.0,0.5,44,128.72
1303,C6,315.25,3/10,68,128.72
1304,B-5,315.5,3/10,71,128.72
1305,C4,315.5,0.5,41,128.72
1306,A5,315.75,0.25,68,128.72
1307,G5,316.0,0.25,81,128.72
1308,A5,316.0,1/20,68,128.72
1309,B-3,316.0,0.5,49,128.72
1310,G5,316.5,1.0,75,128.72
1311,C4,316.5,0.5,36,128.72
1312,B-3,317.0,0.5,42,128.72
1313,E5,317.5,0.5,64,128.72
1314,C4,317.5,0.5,36,128.72
1315,F5,318.0,0.125,63,128.72
1316,A3,318.0,0.5,53,128.72
1317,C6,318.25,3/10,70,128.72
1318,B5,318.5,3/10,69,128.72
1319,C4,318.5,0.5,45,128.72
1320,C6,318.75,3/10,68,128.72
1321,D6,319.0,3/10,75,128.72
1322,A3,319.0,0.5,46,128.72
1323,C6,319.25,3/10,69,128.72
1324,B-5,319.5,11/40,71,128.72
1325,C4,319.5,0.5,44,128.72
1326,A5,319.75,229/1000,67,128.72
1327,A5,320.0,0.5,73,128.72
1328,B-3,320.0,0.5,51,128.72
1329,G5,320.5,0.5,70,128.72
1330,D4,320.5,0.5,46,128.72
1331,B-3,321.0,0.5,51,128.72
1332,G5,321.5,479/1000,72,128.72
1333,D4,321.5,0.5,46,128.72
1334,G5,322.0,0.5,78,128.72
1335,B3,322.0,0.5,50,128.72
1336,F5,322.5,0.5,72,128.72
1337,D4,322.5,0.5,46,128.72
1338,B3,323.0,0.5,52,128.72
1339,F5,323.5,0.5,72,128.72
1340,D4,323.5,0.5,48,128.72
1341,E5,324.0,0.25,73,128.72
1342,C4,324.0,1.0,59,128.72
1343,F5,324.25,0.25,66,128.72
1344,E5,324.5,0.25,68,128.72
1345,C5,324.75,0.25,65,128.72
1346,F5,325.0,0.25,75,128.72
1347,D4,325.0,1.0,61,128.72
1348,G5,325.25,0.25,68,128.72
1349,F5,325.5,0.25,68,128.72
1350,C5,325.75,0.25,65,128.72
1351,G5,326.0,0.25,80,128.72
1352,E4,326.0,1.0,63,128.72
1353,A5,326.25,0.25,68,128.72
1354,G5,326.5,0.25,72,128.72
1355,C5,326.75,0.25,67,128.72
1356,A5,327.0,0.25,81,128.72
1357,F4,327.0,1.0,65,128.72
1358,B-5,327.25,0.25,74,128.72
1359,A5,327.5,0.25,76,128.72
1360,C5,327.75,0.25,69,128.72
1361,B-5,328.0,0.25,85,128.72
1362,G4,328.0,0.5,65,128.72
1363,B-5,328.5,0.25,83,128.72
1364,C5,328.5,0.5,53,128.72
1365,E4,329.0,0.5,60,128.72
1366,G5,329.5,0.25,77,128.72
1367,C5,329.5,0.5,53,128.72
1368,B-5,330.0,0.5,81,128.72
1369,F4,330.0,0.5,59,128.72
1370,A5,330.5,0.25,71,128.72
1371,C5,330.5,0.5,50,128.72
1372,G5,331.0,0.25,76,128.72
1373,D4,331.0,0.5,56,128.72
1374,F5,331.5,0.25,73,128.72
1375,C5,331.5,0.5,52,128.72
1376,E5,332.0,0.25,78,128.72
1377,C4,332.0,1.0,60,128.72
1378,C5,332.25,0.25,72,128.72
1379,B5,332.5,0.25,72,128.72
1380,C6,332.75,0.25,68,128.72
1381,F5,333.0,0.25,80,128.72
1382,D4,333.0,1.0,62,128.72
1383,C5,333.25,0.25,73,128.72
1384,B5,333.5,0.25,73,128.72
1385,C6,333.75,0.25,69,128.72
1386,G5,334.0,0.25,81,128.72
1387,E4,334.0,1.0,65,128.72
1388,C5,334.25,0.25,76,128.72
1389,B5,334.5,0.25,76,128.72
1390,C6,334.75,0.25,73,128.72
1391,A5,335.0,0.25,84,128.72
1392,F4,335.0,1.0,68,128.72
1393,C5,335.25,0.25,76,128.72
1394,B5,335.5,0.25,76,128.72
1395,C6,335.75,0.25,75,128.72
1396,B-5,336.0,0.25,89,128.72
1397,G4,336.0,0.25,66,128.72
1398,C5,336.25,0.25,44,128.72
1399,B-5,336.5,0.25,84,128.72
1400,B4,336.5,0.25,47,128.72
1401,C5,336.75,0.25,44,128.72
1402,E4,337.0,0.25,57,128.72
1403,C5,337.25,0.25,45,128.72
1404,G5,337.5,0.125,69,128.72
1405,B4,337.5,0.25,48,128.72
1406,A5,337.625,0.125,66,128.72
1407,G5,337.75,0.125,69,128.72
1408,C5,337.75,0.25,44,128.72
1409,A5,337.875,0.125,67,128.72
1410,B-5,338.0,0.5,79,128.72
1411,F4,338.0,0.25,57,128.72
1412,C5,338.25,0.25,44,128.72
1413,A5,338.5,0.25,76,128.72
1414,B4,338.5,0.25,46,128.72
1415,C5,338.75,0.25,44,128.72
1416,G5,339.0,0.25,76,128.72
1417,D4,339.0,0.25,56,128.72
1418,B4,339.25,0.25,45,128.72
1419,F5,339.5,0.25,75,128.72
1420,A4,339.5,0.25,45,128.72
1421,B4,339.75,0.25,43,128.72
1422,E5,340.0,0.25,79,128.72
1423,C5,340.0,99/100,56,128.72
1424,C4,340.0,99/100,56,128.72
1425,C6,340.25,0.25,71,128.72
1426,G5,340.5,0.25,72,128.72
1427,E5,340.75,0.25,70,128.72
1428,C5,341.0,0.25,76,128.72
1429,G4,341.25,0.25,69,128.72
1430,E4,341.5,0.25,71,128.72
1431,C4,341.75,0.25,70,128.72
1432,C3,342.0,0.5,73,128.72
1433,C2,342.0,0.5,73,128.72
1434,A4,344.0,1.5,70,128.72
1435,F4,344.0,1.5,70,128.72
1436,C4,344.0,1.5,70,128.72
1437,C5,344.0,1.5,70,128.72
1438,F2,344.0,2.0,66,128.72
1439,F3,344.0,2.0,66,128.72
1440,D5,345.5,0.25,48,128.72
1441,C5,345.75,0.25,48,128.72
1442,B-4,346.0,0.25,52,128.72
1443,A4,346.5,0.25,48,128.72
1444,G4,347.0,0.25,48,128.72
1445,F4,347.5,0.25,48,128.72
1446,F4,348.0,0.5,54,128.72
1447,D5,348.479,0.5,50,128.72
1448,F4,349.0,1.5,72,128.72
1449,D5,349.0,1.5,72,128.72
1450,B-3,349.0,2.0,68,128.72
1451,B-2,349.0,2.0,68,128.72
1452,C5,350.5,0.5,53,128.72
1453,E5,351.0,0.5,56,128.72
1454,A3,351.0,1.0,44,128.72
1455,F5,351.5,0.5,53,128.72
1456,F5,352.0,0.5,61,128.72
1457,B3,352.0,1.0,38,128.72
1458,D4,352.0,1.0,38,128.72
1459,G4,352.5,1.0,53,128.72
1460,C4,353.0,1.0,38,128.72
1461,A4,353.5,0.5,53,128.72
1462,F5,354.0,0.5,61,128.72
1463,D4,354.0,1.0,38,128.72
1464,B3,354.0,1.0,38,128.72
1465,G4,354.5,1.0,53,128.72
1466,C4,355.0,1.0,40,128.72
1467,A4,355.5,0.5,53,128.72
1468,C5,356.0,1.0,58,128.72
1469,D4,356.0,1.0,39,128.72
1470,B-4,357.0,0.125,52,128.72
1471,E4,357.0,1.0,35,128.72
1472,C5,357.125,0.125,48,128.72
1473,B-4,357.25,0.125,52,128.72
1474,C5,357.375,0.125,48,128.72
1475,B-4,357.5,83/1000,52,128.72
1476,C5,357.583,83/1000,48,128.72
1477,B-4,357.667,83/1000,48,128.72
1478,A4,357.75,0.125,52,128.72
1479,B-4,357.875,0.125,49,128.72
1480,A4,358.0,0.25,57,128.72
1481,F4,358.0,1.0,35,128.72
1482,A4,358.5,0.5,53,128.72
1483,B-4,359.0,0.5,56,128.72
1484,C5,359.5,0.5,53,128.72
1485,C#5,360.0,0.5,65,128.72
1486,D5,360.5,1.0,54,128.72
1487,B-2,360.5,0.5,45,128.72
1488,D3,361.0,0.5,46,128.72
1489,C5,361.5,0.25,54,128.72
1490,G3,361.5,0.5,45,128.72
1491,B-4,361.75,0.25,50,128.72
1492,A4,362.0,0.5,54,128.72
1493,B-3,362.0,1.0,52,128.72
1494,G4,362.5,0.5,53,128.72
1495,A4,363.0,0.5,54,128.72
1496,B-4,363.5,0.5,52,128.72
1497,D5,364.0,0.5,63,128.72
1498,C5,364.5,1.0,53,128.72
1499,A2,364.5,0.5,44,128.72
1500,C3,365.0,0.5,44,128.72
1501,B-4,365.5,0.25,54,128.72
1502,F3,365.5,0.5,42,128.72
1503,A4,365.75,0.25,52,128.72
1504,G4,366.0,0.5,56,128.72
1505,A3,366.0,1.0,52,128.72
1506,F4,366.5,0.5,54,128.72
1507,G4,367.0,0.5,54,128.72
1508,A4,367.5,0.5,54,128.72
1509,C5,368.0,0.5,63,128.72
1510,G3,368.0,1.0,44,128.72
1511,B-4,368.5,1.0,51,128.72
1512,E3,369.0,1.0,41,128.72
1513,G4,369.5,0.5,51,128.72
1514,B-4,370.0,0.5,62,128.72
1515,F3,370.0,1.0,43,128.72
1516,A4,370.5,1.0,52,128.72
1517,D3,371.0,1.0,42,128.72
1518,F4,371.5,0.5,52,128.72
1519,E4,372.0,0.25,61,128.72
1520,C3,372.0,1.0,44,128.72
1521,F4,372.25,0.25,53,128.72
1522,G4,372.5,0.25,53,128.72
1523,A4,372.75,0.25,50,128.72
1524,B4,373.0,0.25,59,128.72
1525,C5,373.25,0.25,54,128.72
1526,B4,373.5,0.25,54,128.72
1527,C5,373.75,0.25,51,128.72
1528,C4,374.0,1.0,56,128.72
1529,C3,374.0,0.25,53,128.72
1530,D3,374.25,0.25,49,128.72
1531,B-2,374.5,0.25,54,128.72
1532,C3,374.75,0.25,49,128.72
1533,A2,375.0,0.25,54,128.72
1534,B-2,375.25,0.25,49,128.72
1535,G2,375.5,0.25,56,128.72
1536,A2,375.75,0.25,49,128.72
1537,F2,376.0,1.0,66,128.72
1538,C5,376.0,1.5,71,128.72
1539,A4,376.0,1.5,71,128.72
1540,F3,377.0,1.0,46,128.72
1541,D5,377.5,0.25,51,128.72
1542,C5,377.75,0.25,51,128.72
1543,B-4,378.0,0.25,57,128.72
1544,A4,378.5,0.25,50,128.72
1545,G4,379.0,0.25,50,128.72
1546,F4,379.5,0.25,50,128.72
1547,F4,380.0,0.5,54,128.72
1548,D5,380.5,479/1000,50,128.72
1549,D5,381.0,1.5,71,128.72
1550,F4,381.0,1.5,71,128.72
1551,B-2,381.0,2.0,59,128.72
1552,B-3,381.0,2.0,59,128.72
1553,C5,382.5,0.5,53,128.72
1554,E5,383.0,0.5,66,128.72
1555,A3,383.0,1.0,43,128.72
1556,F5,383.5,0.5,63,128.72
1557,F5,384.0,0.5,63,128.72
1558,B3,384.0,1.0,43,128.72
1559,D4,384.0,1.0,43,128.72
1560,G4,384.5,0.5,53,128.72
1561,A4,385.0,0.5,53,128.72
1562,C4,385.0,1.0,43,128.72
1563,F5,385.5,1.0,69,128.72
1564,D4,386.0,1.0,43,128.72
1565,B3,386.0,1.0,43,128.72
1566,G4,386.5,0.5,53,128.72
1567,A4,387.0,0.5,53,128.72
1568,C4,387.0,1.0,43,128.72
1569,F5,387.5,0.25,69,128.72
1570,C5,388.0,1.0,54,128.72
1571,F4,388.0,1.0,43,128.72
1572,D4,388.0,1.0,43,128.72
1573,B4,389.0,0.5,53,128.72
1574,G4,389.0,1.0,43,128.72
1575,E4,389.0,1.0,43,128.72
1576,B-4,389.5,0.5,53,128.72
1577,A4,390.0,0.25,48,128.72
1578,F4,390.0,1.0,46,128.72
1579,A4,390.5,0.5,54,128.72
1580,B-4,391.0,0.5,60,128.72
1581,C5,391.5,0.5,64,128.72
1582,C#5,392.0,0.125,75,128.72
1583,D5,392.125,1.375,70,128.72
1584,D3,392.5,0.5,54,128.72
1585,D4,393.0,0.25,61,128.72
1586,E5,393.5,0.25,70,128.72
1587,C4,393.5,0.25,53,128.72
1588,F#5,393.75,0.25,67,128.72
1589,G5,394.0,0.25,70,128.72
1590,B-3,394.0,0.25,60,128.72
1591,A5,394.25,0.25,67,128.72
1592,B-5,394.5,0.25,70,128.72
1593,B-2,394.5,0.5,53,128.72
1594,A5,394.75,0.25,67,128.72
1595,G5,395.0,0.25,70,128.72
1596,B-3,395.0,0.25,61,128.72
1597,A5,395.25,0.25,67,128.72
1598,F5,395.5,0.25,70,128.72
1599,A3,395.5,0.25,53,128.72
1600,G5,395.75,0.25,67,128.72
1601,E5,396.0,0.25,71,128.72
1602,G3,396.0,0.5,57,128.72
1603,F5,396.25,0.25,66,128.72
1604,D5,396.5,0.25,71,128.72
1605,F3,396.5,0.5,53,128.72
1606,E5,396.75,0.25,67,128.72
1607,C5,397.0,0.25,70,128.72
1608,E3,397.0,0.5,53,128.72
1609,D5,397.25,0.25,65,128.72
1610,B-4,397.5,0.25,68,128.72
1611,C3,397.5,0.5,53,128.72
1612,C5,397.75,0.25,61,128.72
1613,A4,398.0,0.25,66,128.72
1614,F3,398.0,1.0,60,128.72
1615,B-4,398.25,0.25,64,128.72
1616,C5,398.5,0.25,68,128.72
1617,D5,398.75,0.25,64,128.72
1618,E5,399.0,0.25,71,128.72
1619,A2,399.0,1.0,56,128.72
1620,F5,399.25,0.25,68,128.72
1621,E5,399.5,0.25,71,128.72
1622,F5,399.75,0.25,68,128.72
1623,G5,400.0,0.25,72,128.72
1624,B-2,400.0,1.0,59,128.72
1625,F5,400.25,0.25,70,128.72
1626,E5,400.5,0.25,69,128.72
1627,D5,400.75,0.25,67,128.72
1628,E5,401.0,0.25,72,128.72
1629,B-3,401.0,1.0,53,128.72
1630,D5,401.25,0.25,70,128.72
1631,C5,401.5,0.25,69,128.72
1632,B-4,401.75,0.25,67,128.72
1633,A4,402.0,1.0,71,128.72
1634,C4,402.0,1.0,54,128.72
1635,G4,403.0,0.125,58,128.72
1636,E4,403.0,1.0,58,128.72
1637,C3,403.0,1.0,53,128.72
1638,A4,403.125,0.125,51,128.72
1639,G4,403.25,0.125,58,128.72
1640,A4,403.375,0.125,52,128.72
1641,G4,403.5,83/1000,58,128.72
1642,A4,403.583,83/1000,53,128.72
1643,G4,403.667,83/1000,53,128.72
1644,F4,403.75,0.125,66,128.72
1645,G4,403.875,0.125,62,128.72
1646,F4,404.0,1.0,75,128.72
1647,F3,404.0,0.25,53,128.72
1648,C4,404.25,0.25,46,128.72
1649,B3,404.5,0.25,49,128.72
1650,C4,404.75,0.25,46,128.72
1651,D4,405.0,0.25,53,128.72
1652,C4,405.25,0.25,46,128.72
1653,B3,405.5,0.25,49,128.72
1654,C4,405.75,0.25,46,128.72
1655,B-3,406.0,0.25,53,128.72
1656,C4,406.25,0.25,50,128.72
1657,A3,406.5,0.25,53,128.72
1658,C4,406.75,0.25,49,128.72
1659,G3,407.0,0.25,53,128.72
1660,C4,407.25,0.25,50,128.72
1661,F3,407.5,0.25,53,128.72
1662,C4,407.75,0.25,50,128.72
1663,B-5,408.0,0.5,96,128.72
1664,E3,408.0,0.25,48,128.72
1665,C4,408.25,0.25,42,128.72
1666,G5,408.5,0.25,62,128.72
1667,G3,408.5,0.25,42,128.72
1668,C4,408.75,0.25,40,128.72
1669,E5,409.0,0.25,66,128.72
1670,B-3,409.0,0.25,48,128.72
1671,C4,409.25,0.25,42,128.72
1672,E5,409.5,0.25,62,128.72
1673,B-3,409.5,0.25,42,128.72
1674,C4,409.75,0.25,41,128.72
1675,B-5,410.0,0.5,96,128.72
1676,E3,410.0,0.25,47,128.72
1677,C4,410.25,0.25,43,128.72
1678,G5,410.5,0.25,59,128.72
1679,G3,410.5,0.25,43,128.72
1680,C4,410.75,0.25,42,128.72
1681,E5,411.0,0.25,63,128.72
1682,B-3,411.0,0.25,48,128.72
1683,C4,411.25,0.25,42,128.72
1684,E5,411.5,0.25,60,128.72
1685,B-3,411.5,0.25,42,128.72
1686,C4,411.75,0.25,42,128.72
1687,F5,412.0,0.25,62,128.72
1688,A3,412.0,0.25,44,128.72
1689,C4,412.25,0.25,45,128.72
1690,G5,412.5,0.25,63,128.72
1691,E3,412.5,0.25,45,128.72
1692,C4,412.75,0.25,45,128.72
1693,A5,413.0,0.25,64,128.72
1694,F3,413.0,0.25,46,128.72
1695,C4,413.25,0.25,47,128.72
1696,B-5,413.5,0.25,66,128.72
1697,G3,413.5,0.25,48,128.72
1698,C4,413.75,0.25,49,128.72
1699,B5,414.0,0.5,93,128.72
1700,G#3,414.0,0.25,53,128.72
1701,C4,414.25,0.25,48,128.72
1702,C6,414.5,0.5,75,128.72
1703,A3,414.5,0.25,53,128.72
1704,C4,414.75,0.25,46,128.72
1705,B5,415.0,0.5,93,128.72
1706,G#3,415.0,0.25,53,128.72
1707,C4,415.25,0.25,46,128.72
1708,C6,415.5,0.5,75,128.72
1709,A3,415.5,0.25,53,128.72
1710,C4,415.75,0.25,47,128.72
1711,B-5,416.0,0.5,95,128.72
1712,E3,416.0,0.25,48,128.72
1713,C4,416.25,0.25,38,128.72
1714,G5,416.5,0.25,62,128.72
1715,G3,416.5,0.25,42,128.72
1716,C4,416.75,0.25,39,128.72
1717,E5,417.0,0.25,67,128.72
1718,B-3,417.0,0.25,48,128.72
1719,C4,417.25,0.25,39,128.72
1720,E5,417.5,0.25,62,128.72
1721,B-3,417.5,0.25,42,128.72
1722,C4,417.75,0.25,40,128.72
1723,B-5,418.0,0.5,97,128.72
1724,E3,418.0,0.25,47,128.72
1725,C4,418.25,0.25,41,128.72
1726,G5,418.5,0.25,59,128.72
1727,G3,418.5,0.25,43,128.72
1728,C4,418.75,0.25,40,128.72
1729,E5,419.0,0.25,65,128.72
1730,B-3,419.0,0.25,48,128.72
1731,C4,419.25,0.25,38,128.72
1732,E5,419.5,0.25,60,128.72
1733,B-3,419.5,0.25,42,128.72
1734,C4,419.75,0.25,40,128.72
1735,F5,420.0,0.25,62,128.72
1736,A3,420.0,0.25,44,128.72
1737,C4,420.25,0.25,43,128.72
1738,G5,420.5,0.25,63,128.72
1739,E3,420.5,0.25,45,128.72
1740,C4,420.75,0.25,45,128.72
1741,A5,421.0,0.25,64,128.72
1742,F3,421.0,0.25,46,128.72
1743,C4,421.25,0.25,45,128.72
1744,B-5,421.5,0.25,66,128.72
1745,G3,421.5,0.25,48,128.72
1746,C4,421.75,0.25,47,128.72
1747,B5,422.0,0.5,93,128.72
1748,G#3,422.0,0.25,53,128.72
1749,C4,422.25,0.25,48,128.72
1750,C6,422.5,0.5,75,128.72
1751,A3,422.5,0.25,53,128.72
1752,C4,422.75,0.25,46,128.72
1753,B5,423.0,0.5,93,128.72
1754,G#3,423.0,0.25,53,128.72
1755,C4,423.25,0.25,46,128.72
1756,C6,423.5,0.5,75,128.72
1757,A3,423.5,0.25,53,128.72
1758,C4,423.75,0.25,47,128.72
1759,D5,424.0,2.0,78,128.72
1760,D6,424.0,2.0,78,128.72
1761,B-3,424.5,0.5,36,128.72
1762,A3,425.0,0.5,38,128.72
1763,B-3,425.5,0.5,36,128.72
1764,E5,426.0,2.0,64,128.72
1765,E4,426.0,2.0,64,128.72
1766,C4,426.5,0.5,34,128.72
1767,B3,427.0,0.5,38,128.72
1768,C4,427.5,0.5,33,128.72
1769,B-4,428.0,2.0,71,128.72
1770,B-5,428.0,2.0,71,128.72
1771,C#4,428.5,0.5,34,128.72
1772,B3,429.0,0.5,36,128.72
1773,C#4,429.5,0.5,34,128.72
1774,A4,430.0,2.0,66,128.72
1775,A5,430.0,2.0,66,128.72
1776,D4,430.5,0.5,38,128.72
1777,C#4,431.0,0.5,40,128.72
1778,D4,431.5,0.5,38,128.72
1779,A5,432.0,0.25,75,128.72
1780,G5,432.25,0.25,68,128.72
1781,B-5,432.5,0.25,72,128.72
1782,A5,432.75,0.25,68,128.72
1783,C6,433.0,0.25,72,128.72
1784,B-3,433.0,1.0,54,128.72
1785,G4,433.0,1.0,54,128.72
1786,B-5,433.25,0.25,71,128.72
1787,A5,433.5,0.25,71,128.72
1788,G5,433.75,0.25,69,128.72
1789,F5,434.0,1.0,72,128.72
1790,C4,434.0,2.0,54,128.72
1791,A4,434.0,1.0,54,128.72
1792,E5,435.0,1.0,63,128.72
1793,B-4,435.0,1.0,45,128.72
1794,A4,436.0,2.0,37,128.72
1795,F4,436.0,2.0,37,128.72
1796,F5,436.5,0.5,45,128.72
1797,E5,437.0,0.5,49,128.72
1798,F5,437.5,0.5,45,128.72
1799,A4,438.0,2.0,33,128.72
1800,F4,438.0,2.0,33,128.72
1801,E-5,438.5,0.5,45,128.72
1802,D5,439.0,0.5,50,128.72
1803,E-5,439.5,0.5,46,128.72
1804,F#3,440.0,2.0,32,128.72
1805,A3,440.0,2.0,32,128.72
1806,C4,440.0,2.0,32,128.72
1807,D5,440.5,0.5,54,128.72
1808,D6,441.0,0.5,67,128.72
1809,D6,441.5,0.25,63,128.72
1810,G3,442.0,2.0,33,128.72
1811,B-3,442.0,2.0,33,128.72
1812,D6,442.5,0.5,61,128.72
1813,D5,443.0,0.5,51,128.72
1814,D5,443.5,0.25,47,128.72
1815,E3,444.0,2.0,31,128.72
1816,B-3,444.0,2.0,31,128.72
1817,G3,444.0,2.0,31,128.72
1818,C5,444.5,0.5,49,128.72
1819,C6,445.0,0.5,62,128.72
1820,C6,445.5,0.25,57,128.72
1821,A3,446.0,2.0,32,128.72
1822,F3,446.0,2.0,32,128.72
1823,C6,446.5,0.5,56,128.72
1824,C5,447.0,0.5,48,128.72
1825,C5,447.5,0.25,45,128.72
1826,C#5,448.0,0.5,46,128.72
1827,D5,448.5,0.5,50,128.72
1828,E5,449.0,0.5,54,128.72
1829,G3,449.0,1.0,32,128.72
1830,B2,449.0,1.0,32,128.72
1831,F5,449.5,0.5,49,128.72
1832,F4,450.0,1.0,45,128.72
1833,A3,450.0,1.0,36,128.72
1834,C3,450.0,2.0,36,128.72
1835,E4,451.0,1.0,42,128.72
1836,A4,451.0,0.5,42,128.72
1837,B-3,451.0,1.0,35,128.72
1838,G4,451.5,0.5,42,128.72
1839,F4,452.0,0.25,45,128.72
1840,A3,452.0,0.25,43,128.72
1841,F3,452.0,0.25,43,128.72
1842,F4,452.5,0.25,47,128.72
1843,A4,452.75,0.25,45,128.72
1844,G4,453.0,0.25,47,128.72
1845,E4,453.0,0.5,35,128.72
1846,B-4,453.25,0.25,45,128.72
1847,A4,453.5,0.25,47,128.72
1848,E-4,453.5,0.5,35,128.72
1849,C5,453.75,0.25,45,128.72
1850,B-4,454.0,0.25,48,128.72
1851,D4,454.0,0.25,43,128.72
1852,F3,454.0,0.25,43,128.72
1853,F4,454.5,0.25,52,128.72
1854,A4,454.75,0.25,48,128.72
1855,G4,455.0,0.25,52,128.72
1856,E4,455.0,0.5,35,128.72
1857,B-4,455.25,0.25,48,128.72
1858,A4,455.5,0.25,52,128.72
1859,E-4,455.5,0.5,35,128.72
1860,C5,455.75,0.25,48,128.72
1861,B-4,456.0,0.25,52,128.72
1862,D4,456.0,0.25,42,128.72
1863,F3,456.0,0.25,42,128.72
1864,F4,456.5,0.25,48,128.72
1865,A4,456.75,0.25,50,128.72
1866,G4,457.0,0.25,52,128.72
1867,E4,457.0,0.5,43,128.72
1868,B-4,457.25,0.25,53,128.72
1869,A4,457.5,0.25,54,128.72
1870,E-4,457.5,0.5,43,128.72
1871,C5,457.75,0.25,57,128.72
1872,B-4,458.0,0.25,58,128.72
1873,D4,458.0,0.5,47,128.72
1874,D5,458.25,0.25,60,128.72
1875,C5,458.5,0.25,61,128.72
1876,A3,458.5,0.5,44,128.72
1877,E-5,458.75,0.25,63,128.72
1878,D5,459.0,0.25,64,128.72
1879,B-3,459.0,0.5,46,128.72
1880,F5,459.25,0.25,65,128.72
1881,E5,459.5,0.25,67,128.72
1882,G3,459.5,0.5,44,128.72
1883,G5,459.75,0.25,69,128.72
1884,F5,460.0,0.25,70,128.72
1885,A3,460.0,1.0,52,128.72
1886,G5,460.25,0.25,72,128.72
1887,A5,460.5,0.25,75,128.72
1888,G5,460.75,0.25,75,128.72
1889,F5,461.0,0.25,73,128.72
1890,E-5,461.25,0.25,72,128.72
1891,D5,461.5,0.25,71,128.72
1892,C#5,461.75,0.25,70,128.72
1893,D5,462.0,0.25,72,128.72
1894,B-3,462.0,1.0,49,128.72
1895,C5,462.25,0.25,69,128.72
1896,B-4,462.5,0.25,71,128.72
1897,A4,462.75,0.25,68,128.72
1898,G4,463.0,0.25,70,128.72
1899,F4,463.25,0.25,67,128.72
1900,E4,463.5,0.25,69,128.72
1901,D4,463.75,0.25,65,128.72
1902,C4,464.0,0.25,68,128.72
1903,C3,464.0,0.5,48,128.72
1904,F4,464.25,0.25,65,128.72
1905,A4,464.5,0.25,68,128.72
1906,F3,464.5,0.5,44,128.72
1907,C5,464.75,0.25,65,128.72
1908,F5,465.0,0.25,72,128.72
1909,A3,465.0,0.25,44,128.72
1910,F3,465.5,0.5,41,128.72
1911,F4,465.5,0.25,59,128.72
1912,A4,465.5,0.25,59,128.72
1913,C3,466.0,0.5,49,128.72
1914,A4,466.0,0.5,64,128.72
1915,C5,466.0,0.5,64,128.72
1916,G3,466.5,0.25,43,128.72
1917,B-4,466.5,0.25,60,128.72
1918,G4,466.5,0.25,60,128.72
1919,B-3,467.0,0.25,45,128.72
1920,A4,467.0,0.25,61,128.72
1921,F4,467.0,0.25,61,128.72
1922,G3,467.5,0.25,43,128.72
1923,E4,467.5,0.25,58,128.72
1924,G4,467.5,0.25,58,128.72
1925,F4,468.0,0.25,61,128.72
1926,A3,468.0,0.25,51,128.72
1927,F3,468.0,0.25,51,128.72
1928,F5,468.5,0.25,47,128.72
1929,F4,468.5,0.5,35,128.72
1930,A5,468.75,0.25,45,128.72
1931,G5,469.0,0.25,47,128.72
1932,E4,469.0,0.5,35,128.72
1933,B-5,469.25,0.25,45,128.72
1934,A5,469.5,0.25,47,128.72
1935,E-4,469.5,0.5,32,128.72
1936,C6,469.75,0.25,45,128.72
1937,B-5,470.0,0.25,48,128.72
1938,F3,470.0,0.25,43,128.72
1939,D4,470.0,0.25,43,128.72
1940,F5,470.5,0.25,54,128.72
1941,F4,470.5,0.5,32,128.72
1942,A5,470.75,0.25,50,128.72
1943,G5,471.0,0.25,54,128.72
1944,E4,471.0,0.5,35,128.72
1945,B-5,471.25,0.25,51,128.72
1946,A5,471.5,0.25,54,128.72
1947,E-4,471.5,0.5,33,128.72
1948,C6,471.75,0.25,50,128.72
1949,B-5,472.0,0.25,54,128.72
1950,F3,472.0,0.25,42,128.72
1951,D4,472.0,0.25,42,128.72
1952,F5,472.5,0.25,55,128.72
1953,F4,472.5,0.5,35,128.72
1954,A5,472.75,0.25,56,128.72
1955,G5,473.0,0.25,58,128.72
1956,E4,473.0,0.5,43,128.72
1957,B-5,473.25,0.25,59,128.72
1958,A5,473.5,0.25,61,128.72
1959,E-4,473.5,0.5,43,128.72
1960,C6,473.75,0.25,63,128.72
1961,B-5,474.0,0.25,64,128.72
1962,D4,474.0,0.5,47,128.72
1963,F5,474.25,0.25,67,128.72
1964,C6,474.5,0.25,68,128.72
1965,A3,474.5,0.5,44,128.72
1966,F5,474.75,0.25,69,128.72
1967,D6,475.0,0.25,70,128.72
1968,B-3,475.0,0.5,46,128.72
1969,F5,475.25,0.25,72,128.72
1970,E6,475.5,0.25,74,128.72
1971,G3,475.5,0.5,44,128.72
1972,F5,475.75,0.25,75,128.72
1973,F6,476.0,0.25,78,128.72
1974,A3,476.0,1.0,62,128.72
1975,A2,476.0,1.0,62,128.72
1976,E6,476.25,0.25,78,128.72
1977,D6,476.5,0.25,77,128.72
1978,C6,476.75,0.25,75,128.72
1979,B-5,477.0,0.25,74,128.72
1980,A5,477.25,0.25,73,128.72
1981,G5,477.5,0.25,72,128.72
1982,F5,477.75,0.25,71,128.72
1983,D6,478.0,0.25,79,128.72
1984,B-2,478.0,1.0,63,128.72
1985,B-3,478.0,1.0,63,128.72
1986,C6,478.25,0.25,75,128.72
1987,B-5,478.5,0.25,78,128.72
1988,A5,478.75,0.25,77,128.72
1989,G5,479.0,0.25,75,128.72
1990,F5,479.25,0.25,71,128.72
1991,E5,479.5,0.25,73,128.72
1992,D5,479.75,0.25,70,128.72
1993,C5,480.0,0.5,78,128.72
1994,C3,480.0,0.25,48,128.72
1995,A3,480.25,0.25,40,128.72
1996,C6,480.5,0.25,75,128.72
1997,F3,480.5,0.25,44,128.72
1998,A3,480.75,0.25,41,128.72
1999,C6,481.0,0.25,78,128.72
2000,C3,481.0,0.25,48,128.72
2001,A3,481.25,0.25,40,128.72
2002,C6,481.5,0.25,77,128.72
2003,F3,481.5,0.25,44,128.72
2004,A3,481.75,0.25,40,128.72
2005,C6,482.0,0.25,75,128.72
2006,C3,482.0,0.25,48,128.72
2007,A5,482.25,0.25,72,128.72
2008,A3,482.25,0.25,42,128.72
2009,F5,482.5,0.25,70,128.72
2010,F3,482.5,0.25,46,128.72
2011,C5,482.75,0.25,70,128.72
2012,A3,482.75,0.25,42,128.72
2013,F5,483.0,0.25,75,128.72
2014,C3,483.0,0.25,48,128.72
2015,C5,483.25,0.25,73,128.72
2016,A3,483.25,0.25,43,128.72
2017,A4,483.5,0.25,70,128.72
2018,F3,483.5,0.25,46,128.72
2019,F4,483.75,0.25,70,128.72
2020,A3,483.75,0.25,43,128.72
2021,G4,484.0,167/1000,51,128.72
2022,C3,484.0,0.25,48,128.72
2023,A4,484.167,167/1000,46,128.72
2024,B-3,484.25,0.25,40,128.72
2025,G4,484.333,167/1000,51,128.72
2026,A4,484.5,167/1000,46,128.72
2027,E3,484.5,0.25,43,128.72
2028,G4,484.667,167/1000,51,128.72
2029,B-3,484.75,0.25,40,128.72
2030,A4,484.833,167/1000,46,128.72
2031,G4,485.0,167/1000,51,128.72
2032,C3,485.0,0.25,48,128.72
2033,A4,485.167,167/1000,46,128.72
2034,B-3,485.25,0.25,42,128.72
2035,G4,485.333,167/1000,51,128.72
2036,A4,485.5,167/1000,46,128.72
2037,E3,485.5,0.25,43,128.72
2038,G4,485.667,167/1000,51,128.72
2039,B-3,485.75,0.25,42,128.72
2040,A4,485.833,167/1000,46,128.72
2041,G4,486.0,167/1000,51,128.72
2042,C3,486.0,0.25,48,128.72
2043,A4,486.167,167/1000,46,128.72
2044,B-3,486.25,0.25,41,128.72
2045,G4,486.333,167/1000,51,128.72
2046,A4,486.5,167/1000,48,128.72
2047,E3,486.5,0.25,43,128.72
2048,G4,486.667,167/1000,51,128.72
2049,B-3,486.75,0.25,41,128.72
2050,A4,486.833,167/1000,47,128.72
2051,G4,487.0,0.125,51,128.72
2052,C3,487.0,0.25,48,128.72
2053,A4,487.125,0.125,48,128.72
2054,G4,487.25,0.125,51,128.72
2055,B-3,487.25,0.25,42,128.72
2056,A4,487.375,0.125,47,128.72
2057,G4,487.5,83/1000,51,128.72
2058,E3,487.5,0.25,45,128.72
2059,A4,487.583,83/1000,48,128.72
2060,G4,487.667,83/1000,48,128.72
2061,F4,487.75,0.125,62,128.72
2062,B-3,487.75,0.25,42,128.72
2063,G4,487.875,0.125,58,128.72
2064,F4,488.0,479/1000,71,128.72
2065,F3,488.0,0.5,51,128.72
2066,F5,488.5,0.5,54,128.72
2067,F4,488.5,0.5,44,128.72
2068,E4,489.0,0.5,44,128.72
2069,F5,489.5,0.5,53,128.72
2070,F4,489.5,0.5,44,128.72
2071,E5,490.0,0.5,51,128.72
2072,G4,490.0,0.5,45,128.72
2073,F5,490.5,0.5,58,128.72
2074,F4,490.5,0.5,48,128.72
2075,G5,491.0,0.5,60,128.72
2076,E4,491.0,0.5,51,128.72
2077,A5,491.5,0.5,66,128.72
2078,E-4,491.5,0.5,54,128.72
2079,B-5,492.0,0.25,70,128.72
2080,D4,492.0,0.5,59,128.72
2081,C6,492.25,0.25,68,128.72
2082,D6,492.5,0.25,72,128.72
2083,F3,492.5,0.5,45,128.72
2084,C6,492.75,0.25,67,128.72
2085,B-5,493.0,0.25,70,128.72
2086,C#4,493.0,0.5,53,128.72
2087,G#5,493.25,0.25,67,128.72
2088,G5,493.5,0.25,68,128.72
2089,F3,493.5,0.5,45,128.72
2090,F5,493.75,0.25,65,128.72
2091,E5,494.0,0.25,67,128.72
2092,C4,494.0,0.5,52,128.72
2093,F5,494.25,0.25,68,128.72
2094,G5,494.5,0.25,69,128.72
2095,F3,494.5,0.5,44,128.72
2096,F5,494.75,0.25,68,128.72
2097,E5,495.0,0.25,67,128.72
2098,E4,495.0,0.5,50,128.72
2099,D5,495.25,0.25,65,128.72
2100,C5,495.5,0.25,64,128.72
2101,F3,495.5,0.5,44,128.72
2102,B-4,495.75,0.25,63,128.72
2103,A4,496.0,0.25,62,128.72
2104,F4,496.0,0.25,53,128.72
2105,A4,496.5,0.25,49,128.72
2106,F3,496.5,0.5,41,128.72
2107,E3,497.0,0.5,41,128.72
2108,F4,497.5,0.5,53,128.72
2109,F3,497.5,0.5,41,128.72
2110,E4,498.0,0.5,49,128.72
2111,G3,498.0,0.5,45,128.72
2112,F4,498.5,0.5,49,128.72
2113,F3,498.5,0.5,43,128.72
2114,G4,499.0,0.5,49,128.72
2115,E3,499.0,0.5,43,128.72
2116,A4,499.5,0.5,49,128.72
2117,E-3,499.5,0.5,43,128.72
2118,B-4,500.0,0.25,52,128.72
2119,D3,500.0,1.0,45,128.72
2120,C5,500.5,0.125,52,128.72
2121,B-4,500.625,0.125,49,128.72
2122,A4,500.75,0.125,52,128.72
2123,B-4,500.875,0.125,49,128.72
2124,C5,501.0,0.5,58,128.72
2125,B-2,501.0,1.0,35,128.72
2126,D5,501.5,479/1000,59,128.72
2127,C3,502.0,1.0,35,128.72
2128,B-4,502.0,0.5,50,128.72
2129,D5,502.0,0.5,50,128.72
2130,C5,502.5,0.5,46,128.72
2131,A4,502.5,0.5,46,128.72
2132,C3,503.0,1.0,35,128.72
2133,B-3,503.5,0.5,33,128.72
2134,E4,503.5,0.5,33,128.72
2135,F3,504.0,1.0,37,128.72
2136,B-3,504.0,2.0,45,128.72
2137,G4,504.0,2.0,45,128.72
2138,C3,505.0,1.0,28,128.72
2139,F2,506.0,0.75,28,128.72
2140,A3,506.0,0.75,34,128.72
2141,F4,506.0,0.75,34,128.72
2142,D5,507.0,0.25,57,128.72
2143,C5,507.25,0.25,56,128.72
2144,B-4,507.5,0.25,54,128.72
2145,A4,507.75,0.25,52,128.72
2146,G4,508.0,0.5,60,128.72
2147,F4,508.5,479/1000,47,128.72
2148,F2,508.5,0.5,33,128.72
2149,F4,509.0,1.5,47,128.72
2150,A2,509.0,0.5,35,128.72
2151,C3,509.5,0.5,33,128.72
2152,A2,510.0,0.5,38,128.72
2153,F5,510.5,0.5,52,128.72
2154,F2,510.5,0.5,32,128.72
2155,G5,511.0,0.5,57,128.72
2156,A2,511.0,0.5,34,128.72
2157,A5,511.5,0.5,61,128.72
2158,C3,511.5,0.5,32,128.72
2159,E5,511.875,0.125,55,128.72
2160,B-5,512.0,0.75,69,128.72
2161,G3,512.5,0.5,32,128.72
2162,G5,512.75,0.25,64,128.72
2163,E5,513.0,1.0,56,128.72
2164,B-3,513.0,0.5,35,128.72
2165,E4,513.5,0.5,33,128.72
2166,B-3,514.0,0.5,34,128.72
2167,G3,514.5,0.5,30,128.72
2168,C5,515.0,0.25,48,128.72
2169,B-3,515.0,0.5,34,128.72
2170,B-4,515.25,0.25,48,128.72
2171,A4,515.5,0.25,48,128.72
2172,E4,515.5,0.5,30,128.72
2173,G4,515.75,0.25,46,128.72
2174,F4,516.0,0.5,53,128.72
2175,E4,516.5,479/1000,47,128.72
2176,G2,516.5,0.5,32,128.72
2177,E4,517.0,1.5,47,128.72
2178,B-2,517.0,0.5,35,128.72
2179,E3,517.5,0.5,32,128.72
2180,B-2,518.0,0.5,39,128.72
2181,G5,518.5,0.5,53,128.72
2182,G2,518.5,0.5,33,128.72
2183,A5,519.0,0.5,58,128.72
2184,B-2,519.0,0.5,35,128.72
2185,B-5,519.5,0.5,63,128.72
2186,E3,519.5,0.5,33,128.72
2187,F#5,519.875,0.125,52,128.72
2188,C6,520.0,0.75,68,128.72
2189,A3,520.5,0.5,33,128.72
2190,A5,520.75,0.25,65,128.72
2191,F#5,521.0,1.0,57,128.72
2192,C4,521.0,0.5,35,128.72
2193,E-4,521.5,0.5,34,128.72
2194,C4,522.0,0.5,37,128.72
2195,A5,522.5,0.5,60,128.72
2196,A3,522.5,0.5,32,128.72
2197,B-5,523.0,0.5,64,128.72
2198,C4,523.0,0.5,34,128.72
2199,C6,523.5,0.5,69,128.72
2200,E-4,523.5,0.5,34,128.72
2201,G5,523.875,0.125,66,128.72
2202,D6,524.0,0.75,84,128.72
2203,B-2,524.5,0.5,41,128.72
2204,B-5,524.75,0.25,77,128.72
2205,G5,525.0,0.5,72,128.72
2206,D3,525.0,0.5,47,128.72
2207,G3,525.5,0.5,44,128.72
2208,E5,525.875,0.125,71,128.72
2209,B-5,526.0,0.75,85,128.72
2210,C3,526.5,0.5,46,128.72
2211,G5,526.75,0.25,76,128.72
2212,E5,527.0,0.5,72,128.72
2213,G3,527.0,0.5,49,128.72
2214,B-3,527.5,0.5,46,128.72
2215,B4,527.875,0.125,68,128.72
2216,F5,528.0,0.75,79,128.72
2217,D3,528.5,0.5,48,128.72
2218,D5,528.75,0.25,73,128.72
2219,B4,529.0,1.0,69,128.72
2220,F3,529.0,0.5,50,128.72
2221,G#3,529.5,0.5,45,128.72
2222,F3,530.0,0.5,52,128.72
2223,B4,530.5,479/1000,68,128.72
2224,D3,530.5,0.5,49,128.72
2225,B4,531.0,479/1000,69,128.72
2226,F3,531.0,0.5,53,128.72
2227,B4,531.5,479/1000,67,128.72
2228,G#3,531.5,0.5,50,128.72
2229,C5,532.0,0.25,76,128.72
2230,C3,532.0,2.0,63,128.72
2231,A3,532.0,2.0,63,128.72
2232,A5,532.25,0.25,69,128.72
2233,F5,532.5,0.25,72,128.72
2234,C5,532.75,0.25,70,128.72
2235,A4,533.0,0.25,76,128.72
2236,F5,533.25,0.25,70,128.72
2237,C5,533.5,0.25,72,128.72
2238,A4,533.75,47/200,67,128.72
2239,C4,534.0,1.0,48,128.72
2240,A4,534.0,0.5,66,128.72
2241,C5,534.0,0.5,66,128.72
2242,G4,534.5,0.5,58,128.72
2243,B-4,534.5,0.5,58,128.72
2244,C3,535.0,1.0,45,128.72
2245,F4,535.0,0.25,56,128.72
2246,A4,535.0,0.25,56,128.72
2247,E4,535.5,0.25,54,128.72
2248,G4,535.5,0.25,54,128.72
2249,F4,536.0,1.0,54,128.72
2250,F3,536.0,0.25,41,128.72
2251,C4,536.25,0.25,34,128.72
2252,G#3,536.5,0.25,37,128.72
2253,C4,536.75,0.25,34,128.72
2254,F3,537.0,3/10,41,128.72
2255,C4,537.25,3/10,34,128.72
2256,G#3,537.5,3/10,37,128.72
2257,C4,537.75,3/10,34,128.72
2258,F3,538.0,3/10,46,128.72
2259,F4,538.25,0.25,54,128.72
2260,C4,538.25,3/10,36,128.72
2261,G4,538.5,0.25,58,128.72
2262,G#3,538.5,3/10,41,128.72
2263,G#4,538.75,0.25,61,128.72
2264,C4,538.75,3/10,37,128.72
2265,B-4,539.0,0.25,63,128.72
2266,F3,539.0,3/10,49,128.72
2267,C5,539.25,0.25,65,128.72
2268,C4,539.25,3/10,39,128.72
2269,D5,539.5,0.25,68,128.72
2270,G#3,539.5,3/10,44,128.72
2271,E5,539.75,0.25,71,128.72
2272,C4,539.75,0.25,39,128.72
2273,F5,540.0,0.25,75,128.72
2274,F3,540.0,3/10,49,128.72
2275,C4,540.0,1/20,39,128.72
2276,C5,540.25,0.25,71,128.72
2277,C4,540.25,3/10,43,128.72
2278,G#5,540.5,0.25,75,128.72
2279,G#3,540.5,3/10,45,128.72
2280,G5,540.75,0.25,72,128.72
2281,C4,540.75,3/10,43,128.72
2282,F5,541.0,0.25,75,128.72
2283,F3,541.0,3/10,49,128.72
2284,C5,541.25,0.25,71,128.72
2285,C4,541.25,3/10,43,128.72
2286,G#5,541.5,0.25,72,128.72
2287,G#3,541.5,3/10,45,128.72
2288,G5,541.75,0.25,70,128.72
2289,C4,541.75,3/10,43,128.72
2290,F5,542.0,3/10,72,128.72
2291,F3,542.0,3/10,48,128.72
2292,G5,542.25,3/10,67,128.72
2293,D4,542.25,3/10,39,128.72
2294,E-5,542.5,3/10,71,128.72
2295,G#3,542.5,3/10,45,128.72
2296,F5,542.75,3/10,64,128.72
2297,D4,542.75,3/10,40,128.72
2298,D5,543.0,3/10,70,128.72
2299,F3,543.0,3/10,47,128.72
2300,E-5,543.25,3/10,63,128.72
2301,D4,543.25,3/10,40,128.72
2302,C5,543.5,3/10,68,128.72
2303,G#3,543.5,3/10,45,128.72
2304,D5,543.75,0.25,64,128.72
2305,D4,543.75,0.25,40,128.72
2306,B4,544.0,0.5,67,128.72
2307,D5,544.0,1/20,64,128.72
2308,G3,544.0,0.25,54,128.72
2309,D4,544.0,1/20,40,128.72
2310,F4,544.25,0.25,46,128.72
2311,F6,544.5,1.0,90,128.72
2312,D4,544.5,0.25,48,128.72
2313,F4,544.75,0.25,45,128.72
2314,G3,545.0,0.25,54,128.72
2315,F4,545.25,0.25,45,128.72
2316,E-6,545.5,1.0,89,128.72
2317,D4,545.5,0.25,48,128.72
2318,F4,545.75,0.25,45,128.72
2319,G3,546.0,0.25,54,128.72
2320,F4,546.25,0.25,46,128.72
2321,D6,546.5,1.0,88,128.72
2322,D4,546.5,0.25,48,128.72
2323,F4,546.75,0.25,45,128.72
2324,G3,547.0,0.25,52,128.72
2325,F4,547.25,0.25,45,128.72
2326,C6,547.5,0.5,87,128.72
2327,D4,547.5,0.25,48,128.72
2328,F4,547.75,0.25,45,128.72
2329,C6,548.0,0.5,87,128.72
2330,G3,548.0,0.25,53,128.72
2331,F4,548.25,0.25,45,128.72
2332,B5,548.5,1.0,84,128.72
2333,D4,548.5,0.25,48,128.72
2334,F4,548.75,0.25,45,128.72
2335,G3,549.0,0.25,53,128.72
2336,F4,549.25,0.25,45,128.72
2337,G#5,549.5,1.0,78,128.72
2338,D4,549.5,0.25,48,128.72
2339,F4,549.75,0.25,45,128.72
2340,G3,550.0,0.25,53,128.72
2341,D4,550.25,0.25,46,128.72
2342,G5,550.5,1.0,83,128.72
2343,B3,550.5,0.25,48,128.72
2344,D4,550.75,0.25,45,128.72
2345,G3,551.0,0.25,53,128.72
2346,D4,551.25,0.25,45,128.72
2347,F5,551.5,479/1000,78,128.72
2348,B3,551.5,0.25,48,128.72
2349,D4,551.75,0.25,45,128.72
2350,F5,552.0,0.5,80,128.72
2351,G3,552.0,0.25,48,128.72
2352,E4,552.25,0.25,39,128.72
2353,E5,552.5,0.5,77,128.72
2354,C4,552.5,0.25,44,128.72
2355,E4,552.75,0.25,39,128.72
2356,E-5,553.0,1.0,67,128.72
2357,G3,553.0,0.25,48,128.72
2358,E-4,553.25,0.25,41,128.72
2359,C4,553.5,0.25,44,128.72
2360,E-4,553.75,0.25,41,128.72
2361,G3,554.0,3/10,48,128.72
2362,E-5,554.25,3/10,65,128.72
2363,E-4,554.25,3/10,40,128.72
2364,D5,554.5,3/10,68,128.72
2365,C4,554.5,3/10,44,128.72
2366,E-5,554.75,3/10,66,128.72
2367,E-4,554.75,3/10,38,128.72
2368,F5,555.0,3/10,68,128.72
2369,G3,555.0,3/10,48,128.72
2370,E-5,555.25,3/10,66,128.72
2371,E-4,555.25,3/10,40,128.72
2372,D5,555.5,3/10,68,128.72
2373,C4,555.5,3/10,45,128.72
2374,E-5,555.75,0.25,65,128.72
2375,E-4,555.75,0.25,40,128.72
2376,F#5,556.0,0.75,77,128.72
2377,E-5,556.0,1/20,65,128.72
2378,F#3,556.0,0.25,54,128.72
2379,E-4,556.0,1/20,40,128.72
2380,E-4,556.25,0.25,40,128.72
2381,B-3,556.5,0.25,44,128.72
2382,E-5,556.75,229/1000,69,128.72
2383,E-4,556.75,0.25,41,128.72
2384,E-5,557.0,0.125,65,128.72
2385,F#3,557.0,0.25,49,128.72
2386,F5,557.125,0.125,62,128.72
2387,E-5,557.25,0.125,65,128.72
2388,E-4,557.25,0.25,42,128.72
2389,F5,557.375,0.125,63,128.72
2390,E-5,557.5,83/1000,66,128.72
2391,B-3,557.5,0.25,45,128.72
2392,F5,557.583,83/1000,64,128.72
2393,E-5,557.667,83/1000,64,128.72
2394,D5,557.75,0.125,71,128.72
2395,E-4,557.75,0.25,40,128.72
2396,E-5,557.875,0.125,69,128.72
2397,B-5,558.0,0.75,78,128.72
2398,F#3,558.0,0.25,54,128.72
2399,E-4,558.25,0.25,42,128.72
2400,B-3,558.5,0.25,45,128.72
2401,E-5,558.75,229/1000,68,128.72
2402,E-4,558.75,0.25,42,128.72
2403,E-5,559.0,0.125,64,128.72
2404,F#3,559.0,0.25,48,128.72
2405,F5,559.125,0.125,62,128.72
2406,E-5,559.25,0.125,64,128.72
2407,E-4,559.25,0.25,40,128.72
2408,F5,559.375,0.125,62,128.72
2409,E-5,559.5,83/1000,64,128.72
2410,B-3,559.5,0.25,45,128.72
2411,F5,559.583,83/1000,63,128.72
2412,E-5,559.667,83/1000,63,128.72
2413,D5,559.75,0.125,71,128.72
2414,E-4,559.75,0.25,40,128.72
2415,E-5,559.875,0.125,68,128.72
2416,A5,560.0,0.25,81,128.72
2417,F3,560.0,0.25,49,128.72
2418,E-4,560.25,0.25,40,128.72
2419,C6,560.5,0.25,85,128.72
2420,C4,560.5,0.25,45,128.72
2421,E-4,560.75,0.25,41,128.72
2422,E-6,561.0,1.25,89,128.72
2423,F3,561.0,0.25,50,128.72
2424,E-4,561.25,0.25,42,128.72
2425,C4,561.5,0.25,45,128.72
2426,E-4,561.75,0.25,40,128.72
2427,F3,562.0,3/10,50,128.72
2428,F6,562.25,3/10,71,128.72
2429,E-4,562.25,3/10,43,128.72
2430,D6,562.5,3/10,77,128.72
2431,C4,562.5,3/10,48,128.72
2432,E-6,562.75,3/10,71,128.72
2433,E-4,562.75,3/10,43,128.72
2434,C6,563.0,3/10,77,128.72
2435,F3,563.0,3/10,54,128.72
2436,D6,563.25,3/10,71,128.72
2437,E-4,563.25,3/10,45,128.72
2438,B-5,563.5,3/10,77,128.72
2439,C4,563.5,3/10,48,128.72
2440,C6,563.75,0.25,71,128.72
2441,E-4,563.75,0.25,45,128.72
2442,A5,564.0,3/10,72,128.72
2443,C6,564.0,1/20,71,128.72
2444,F3,564.0,3/10,54,128.72
2445,E-4,564.0,1/20,45,128.72
2446,B-5,564.25,3/10,73,128.72
2447,E-4,564.25,3/10,45,128.72
2448,C6,564.5,3/10,77,128.72
2449,C4,564.5,3/10,48,128.72
2450,B-5,564.75,3/10,72,128.72
2451,E-4,564.75,3/10,44,128.72
2452,A5,565.0,3/10,71,128.72
2453,F3,565.0,3/10,54,128.72
2454,B-5,565.25,3/10,72,128.72
2455,E-4,565.25,3/10,45,128.72
2456,C6,565.5,3/10,73,128.72
2457,C4,565.5,3/10,48,128.72
2458,D6,565.75,3/10,70,128.72
2459,E-4,565.75,3/10,44,128.72
2460,E-6,566.0,3/10,75,128.72
2461,F3,566.0,3/10,52,128.72
2462,D6,566.25,3/10,70,128.72
2463,C4,566.25,3/10,44,128.72
2464,C6,566.5,3/10,72,128.72
2465,A3,566.5,3/10,48,128.72
2466,B-5,566.75,3/10,72,128.72
2467,C4,566.75,3/10,44,128.72
2468,A5,567.0,3/10,71,128.72
2469,F3,567.0,3/10,53,128.72
2470,G5,567.25,3/10,70,128.72
2471,C4,567.25,3/10,44,128.72
2472,F5,567.5,3/10,69,128.72
2473,A3,567.5,3/10,47,128.72
2474,E-5,567.75,227/1000,68,128.72
2475,C4,567.75,0.25,44,128.72
2476,E-5,568.0,0.125,68,128.72
2477,F#3,568.0,0.25,44,128.72
2478,C4,568.0,1/20,44,128.72
2479,F5,568.125,0.125,64,128.72
2480,E-5,568.25,83/1000,65,128.72
2481,C4,568.25,0.25,39,128.72
2482,F5,568.333,83/1000,63,128.72
2483,E-5,568.417,83/1000,63,128.72
2484,D5,568.5,0.5,68,128.72
2485,A3,568.5,3/10,40,128.72
2486,C4,568.75,3/10,35,128.72
2487,D5,569.0,1.5,68,128.72
2488,F#3,569.0,0.25,44,128.72
2489,C4,569.25,0.25,33,128.72
2490,A3,569.5,0.25,39,128.72
2491,C4,569.75,0.25,34,128.72
2492,F#3,570.0,0.25,44,128.72
2493,C4,570.25,0.25,33,128.72
2494,D5,570.5,0.5,72,128.72
2495,A3,570.5,0.25,39,128.72
2496,C4,570.75,0.25,33,128.72
2497,D6,571.0,0.5,81,128.72
2498,F#3,571.0,0.25,44,128.72
2499,D4,571.25,0.25,35,128.72
2500,C6,571.5,0.5,77,128.72
2501,A3,571.5,0.25,39,128.72
2502,D4,571.75,0.25,34,128.72
2503,C6,572.0,0.5,77,128.72
2504,G3,572.0,0.25,48,128.72
2505,D4,572.25,0.25,39,128.72
2506,B-5,572.5,1.0,78,128.72
2507,B-3,572.5,0.25,44,128.72
2508,D4,572.75,0.25,39,128.72
2509,F3,573.0,0.25,48,128.72
2510,D4,573.25,0.25,38,128.72
2511,A5,573.5,0.75,77,128.72
2512,A3,573.5,0.25,44,128.72
2513,D4,573.75,0.25,38,128.72
2514,E3,574.0,3/10,48,128.72
2515,G5,574.25,3/10,70,128.72
2516,D4,574.25,3/10,38,128.72
2517,B-5,574.5,3/10,73,128.72
2518,G3,574.5,3/10,44,128.72
2519,A5,574.75,3/10,70,128.72
2520,D4,574.75,3/10,37,128.72
2521,C6,575.0,3/10,73,128.72
2522,E-3,575.0,3/10,48,128.72
2523,B-5,575.25,3/10,69,128.72
2524,C#4,575.25,3/10,38,128.72
2525,A5,575.5,3/10,73,128.72
2526,G3,575.5,3/10,44,128.72
2527,G5,575.75,0.25,67,128.72
2528,C#4,575.75,0.25,39,128.72
2529,F#5,576.0,0.125,71,128.72
2530,G5,576.0,1/20,67,128.72
2531,C#4,576.0,1/20,39,128.72
2532,D3,576.0,1.0,38,128.72
2533,D4,576.0,1.0,38,128.72
2534,D5,576.25,0.25,58,128.72
2535,D6,576.5,0.25,57,128.72
2536,C#6,576.75,0.25,57,128.72
2537,D6,577.0,0.25,56,128.72
2538,C#6,577.25,0.25,56,128.72
2539,D6,577.5,0.25,57,128.72
2540,C#6,577.75,0.25,58,128.72
2541,D6,578.0,0.25,59,128.72
2542,E-6,578.25,0.25,59,128.72
2543,C6,578.5,0.25,60,128.72
2544,D6,578.75,0.25,58,128.72
2545,B-5,579.0,0.25,62,128.72
2546,D4,579.0,1.0,45,128.72
2547,F#4,579.0,1.0,45,128.72
2548,C6,579.25,0.25,60,128.72
2549,A5,579.5,0.25,63,128.72
2550,B-5,579.75,0.25,61,128.72
2551,G5,580.0,3/10,64,128.72
2552,E-4,580.0,1.0,45,128.72
2553,G4,580.0,1.0,45,128.72
2554,A5,580.25,3/10,63,128.72
2555,F5,580.5,3/10,66,128.72
2556,G5,580.75,3/10,63,128.72
2557,E-5,581.0,3/10,67,128.72
2558,F5,581.25,3/10,62,128.72
2559,D5,581.5,3/10,69,128.72
2560,E-5,581.75,3/10,64,128.72
2561,C#5,582.0,0.25,70,128.72
2562,B-5,582.5,0.5,69,128.72
2563,A5,583.0,0.5,70,128.72
2564,E-3,583.0,1.0,54,128.72
2565,C#4,583.0,1.0,54,128.72
2566,G5,583.5,0.5,68,128.72
2567,F#5,584.0,0.125,71,128.72
2568,D3,584.0,1.0,49,128.72
2569,D4,584.0,1.0,49,128.72
2570,C#5,584.25,0.25,52,128.72
2571,D5,584.5,0.25,57,128.72
2572,C#5,584.75,0.25,52,128.72
2573,D5,585.0,0.25,57,128.72
2574,C#5,585.25,0.25,53,128.72
2575,D5,585.5,0.25,57,128.72
2576,C#5,585.75,0.25,53,128.72
2577,D5,586.0,0.25,54,128.72
2578,E-5,586.25,0.25,51,128.72
2579,C5,586.5,0.25,53,128.72
2580,D5,586.75,0.25,49,128.72
2581,B-4,587.0,0.25,52,128.72
2582,D3,587.0,1.0,45,128.72
2583,C4,587.0,1.0,45,128.72
2584,C5,587.25,0.25,49,128.72
2585,A4,587.5,0.25,50,128.72
2586,B-4,587.75,0.25,46,128.72
2587,G4,588.0,3/10,48,128.72
2588,E-3,588.0,1.0,42,128.72
2589,B-3,588.0,1.0,42,128.72
2590,A4,588.25,3/10,46,128.72
2591,F4,588.5,3/10,46,128.72
2592,G4,588.75,3/10,45,128.72
2593,E-4,589.0,3/10,45,128.72
2594,F4,589.25,3/10,44,128.72
2595,D4,589.5,3/10,43,128.72
2596,E-4,589.75,3/10,42,128.72
2597,C#4,590.0,0.25,41,128.72
2598,G4,590.5,0.5,41,128.72
2599,B-4,591.0,0.5,45,128.72
2600,E-3,591.0,1.0,32,128.72
2601,G3,591.0,1.0,32,128.72
2602,C#4,591.5,0.5,42,128.72
2603,D4,592.0,0.25,39,128.72
2604,D3,592.0,0.5,24,128.72
2605,F#3,592.0,0.5,24,128.72
2606,D5,592.5,0.25,46,128.72
2607,D3,593.0,0.5,27,128.72
2608,G3,593.0,0.5,27,128.72
2609,B-3,593.0,0.5,27,128.72
2610,D5,593.5,0.5,49,128.72
2611,D3,594.0,0.5,28,128.72
2612,F#3,594.0,0.5,28,128.72
2613,A3,594.0,0.5,28,128.72
2614,D5,594.5,0.5,46,128.72
2615,D3,595.0,0.5,32,128.72
2616,G3,595.0,0.5,32,128.72
2617,B-3,595.0,0.5,32,128.72
2618,D5,595.5,0.5,48,128.72
2619,D3,596.0,1.0,34,128.72
2620,F#3,596.0,1.0,34,128.72
2621,A3,596.0,1.0,34,128.72
2622,D5,596.5,0.5,43,128.72
2623,C#5,597.0,0.5,46,128.72
2624,D5,597.5,0.5,49,128.72
2625,C#5,598.0,0.5,53,128.72
2626,D5,598.5,0.5,56,128.72
2627,C#5,599.0,0.5,60,128.72
2628,D5,599.5,0.5,63,128.72
2629,F5,600.0,1.0,66,128.72
2630,C4,600.5,0.5,31,128.72
2631,F4,600.5,0.5,31,128.72
2632,A4,600.5,0.5,31,128.72
2633,E-5,601.0,1.0,64,128.72
2634,C4,601.0,0.5,34,128.72
2635,F4,601.0,0.5,34,128.72
2636,A4,601.0,0.5,34,128.72
2637,C4,601.5,0.5,37,128.72
2638,F4,601.5,0.5,37,128.72
2639,A4,601.5,0.5,37,128.72
2640,C4,602.0,1.0,41,128.72
2641,F4,602.0,1.0,41,128.72
2642,A4,602.0,1.0,41,128.72
2643,E-5,602.25,0.25,53,128.72
2644,D5,602.5,0.25,56,128.72
2645,E-5,602.75,0.25,53,128.72
2646,F5,603.0,0.25,56,128.72
2647,E-5,603.25,0.25,54,128.72
2648,D5,603.5,0.25,56,128.72
2649,E-5,603.75,0.25,53,128.72
2650,B-5,604.0,1.0,70,128.72
2651,F4,604.5,0.5,33,128.72
2652,C5,604.5,0.5,33,128.72
2653,E-5,604.5,0.5,33,128.72
2654,A5,605.0,1.0,66,128.72
2655,F4,605.0,0.5,37,128.72
2656,C5,605.0,0.5,37,128.72
2657,E-5,605.0,0.5,37,128.72
2658,F4,605.5,0.5,41,128.72
2659,C5,605.5,0.5,41,128.72
2660,E-5,605.5,0.5,41,128.72
2661,F4,606.0,1.0,44,128.72
2662,C5,606.0,1.0,44,128.72
2663,E-5,606.0,1.0,44,128.72
2664,A5,606.25,0.25,61,128.72
2665,G5,606.5,0.25,63,128.72
2666,A5,606.75,0.25,61,128.72
2667,B-5,607.0,0.25,63,128.72
2668,A5,607.25,0.25,61,128.72
2669,G5,607.5,0.25,63,128.72
2670,A5,607.75,0.25,61,128.72
2671,F6,608.0,1.0,77,128.72
2672,F4,608.5,0.5,47,128.72
2673,E-6,609.0,1.0,75,128.72
2674,C5,609.0,0.5,45,128.72
2675,E-5,609.5,0.5,45,128.72
2676,F#4,610.0,2.0,47,128.72
2677,E-6,610.25,0.25,66,128.72
2678,D6,610.5,0.25,68,128.72
2679,E-6,610.75,0.25,65,128.72
2680,F6,611.0,0.25,68,128.72
2681,E-6,611.25,0.25,65,128.72
2682,C#6,611.5,0.25,68,128.72
2683,C6,611.75,0.25,65,128.72
2684,B-5,612.0,1.0,77,128.72
2685,F4,612.5,0.5,38,128.72
2686,A5,613.0,1.0,69,128.72
2687,C5,613.0,0.5,41,128.72
2688,E-5,613.5,0.5,37,128.72
2689,F#4,614.0,2.0,49,128.72
2690,E-6,614.25,3/10,67,128.72
2691,D6,614.5,3/10,69,128.72
2692,E-6,614.75,3/10,66,128.72
2693,F6,615.0,3/10,70,128.72
2694,E-6,615.25,3/10,67,128.72
2695,C#6,615.5,3/10,68,128.72
2696,C6,615.75,0.25,67,128.72
2697,B-5,616.0,3/10,66,128.72
2698,F4,616.0,0.5,46,128.72
2699,A5,616.25,3/10,65,128.72
2700,E-6,616.5,3/10,69,128.72
2701,D6,616.75,3/10,66,128.72
2702,F6,617.0,3/10,71,128.72
2703,F#4,617.0,1.0,52,128.72
2704,C5,617.0,2.0,52,128.72
2705,E-5,617.0,2.0,52,128.72
2706,E-6,617.25,3/10,68,128.72
2707,C#6,617.5,3/10,69,128.72
2708,C6,617.75,3/10,67,128.72
2709,B-5,618.0,3/10,66,128.72
2710,F4,618.0,1.0,49,128.72
2711,A5,618.25,3/10,65,128.72
2712,E-6,618.5,3/10,70,128.72
2713,D6,618.75,3/10,67,128.72
2714,F6,619.0,3/10,71,128.72
2715,F#4,619.0,1.0,53,128.72
2716,C5,619.0,1.0,53,128.72
2717,E-5,619.0,1.0,53,128.72
2718,E-6,619.25,3/10,68,128.72
2719,C#6,619.5,3/10,70,128.72
2720,C6,619.75,0.25,69,128.72
2721,B-5,620.0,3/10,68,128.72
2722,F4,620.0,1.0,50,128.72
2723,C5,620.0,1.0,53,128.72
2724,E-5,620.0,1.0,53,128.72
2725,A5,620.25,3/10,67,128.72
2726,C6,620.5,3/10,68,128.72
2727,B5,620.75,3/10,64,128.72
2728,D6,621.0,3/10,68,128.72
2729,C6,621.25,3/10,67,128.72
2730,B-5,621.5,3/10,65,128.72
2731,A5,621.75,3/10,63,128.72
2732,G5,622.0,3/10,63,128.72
2733,F5,622.25,3/10,61,128.72
2734,G5,622.5,3/10,59,128.72
2735,F#5,622.75,3/10,58,128.72
2736,A5,623.0,3/10,59,128.72
2737,G5,623.25,3/10,57,128.72
2738,F5,623.5,3/10,56,128.72
2739,E-5,623.75,0.25,54,128.72
2740,D5,624.0,0.5,52,128.72
2741,C5,624.5,0.5,52,128.72
2742,D5,625.0,0.25,54,128.72
2743,E-5,625.5,0.25,56,128.72
2744,E5,626.0,0.25,58,128.72
2745,F5,626.5,0.25,61,128.72
2746,G5,627.0,0.25,57,128.72
2747,F5,627.25,0.25,56,128.72
2748,E-5,627.5,0.25,54,128.72
2749,D5,627.75,0.25,52,128.72
2750,C5,628.0,0.5,60,128.72
2751,B-4,628.5,479/1000,54,128.72
2752,B-3,628.5,0.5,37,128.72
2753,B-4,629.0,1.5,51,128.72
2754,D4,629.0,0.5,37,128.72
2755,F4,629.5,0.5,33,128.72
2756,D4,630.0,0.5,36,128.72
2757,D5,630.5,0.5,57,128.72
2758,B-3,630.5,0.5,33,128.72
2759,G5,631.0,0.5,60,128.72
2760,D4,631.0,0.5,41,128.72
2761,D5,631.5,0.5,55,128.72
2762,G4,631.5,0.5,38,128.72
2763,F5,632.0,1.0,60,128.72
2764,C4,632.5,0.5,34,128.72
2765,E-5,633.0,1.5,56,128.72
2766,E-4,633.0,0.5,39,128.72
2767,G4,633.5,0.5,36,128.72
2768,E-4,634.0,0.5,44,128.72
2769,F5,634.5,0.25,60,128.72
2770,C4,634.5,0.5,37,128.72
2771,G5,634.75,0.25,56,128.72
2772,F5,635.0,0.25,61,128.72
2773,E-4,635.0,0.5,38,128.72
2774,E-5,635.25,0.25,54,128.72
2775,D5,635.5,0.25,58,128.72
2776,G4,635.5,0.5,34,128.72
2777,C5,635.75,0.25,53,128.72
2778,B-4,636.0,1.0,66,128.72
2779,F3,636.5,0.5,35,128.72
2780,A4,637.0,297/200,57,128.72
2781,C4,637.0,0.5,35,128.72
2782,E-4,637.5,0.5,34,128.72
2783,C4,638.0,0.5,47,128.72
2784,A4,638.5,0.5,62,128.72
2785,F3,638.5,0.5,36,128.72
2786,B-4,639.0,0.5,65,128.72
2787,C4,639.0,0.5,43,128.72
2788,C5,639.5,479/1000,61,128.72
2789,E-4,639.5,0.5,36,128.72
2790,A4,640.0,1.0,56,128.72
2791,C5,640.0,1.0,56,128.72
2792,B-3,640.5,0.5,42,128.72
2793,D4,641.0,0.5,42,128.72
2794,B-4,641.0,1.0,54,128.72
2795,D5,641.0,1.0,54,128.72
2796,F4,641.5,0.5,36,128.72
2797,D4,642.0,0.5,45,128.72
2798,F5,642.5,0.25,64,128.72
2799,B-3,642.5,0.5,42,128.72
2800,E5,642.75,0.25,63,128.72
2801,G5,643.0,0.25,66,128.72
2802,D4,643.0,0.5,42,128.72
2803,F5,643.25,0.25,63,128.72
2804,E-5,643.5,0.25,63,128.72
2805,F4,643.5,0.5,39,128.72
2806,D5,643.75,229/1000,61,128.72
2807,D5,644.0,0.5,68,128.72
2808,E-4,644.0,0.5,45,128.72
2809,C5,644.5,1.0,61,128.72
2810,G4,644.5,0.5,37,128.72
2811,D4,645.0,0.5,40,128.72
2812,B-4,645.5,0.5,61,128.72
2813,F4,645.5,0.5,35,128.72
2814,D5,646.0,0.5,67,128.72
2815,E-4,646.0,0.5,45,128.72
2816,C5,646.5,1.0,62,128.72
2817,G4,646.5,0.5,35,128.72
2818,C4,647.0,0.5,38,128.72
2819,A4,647.5,0.5,64,128.72
2820,E-4,647.5,0.5,32,128.72
2821,B-4,648.0,0.25,68,128.72
2822,D4,648.0,1.0,42,128.72
2823,F4,648.0,1.0,42,128.72
2824,C5,648.25,0.25,59,128.72
2825,B-4,648.5,0.25,62,128.72
2826,A4,648.75,0.25,58,128.72
2827,B-4,649.0,0.25,66,128.72
2828,C5,649.25,0.25,60,128.72
2829,D5,649.5,0.25,63,128.72
2830,E-5,649.75,0.25,61,128.72
2831,E5,650.0,0.25,69,128.72
2832,F5,650.25,0.25,65,128.72
2833,E5,650.5,0.25,69,128.72
2834,F5,650.75,0.25,65,128.72
2835,G5,651.0,0.25,69,128.72
2836,F5,651.25,0.25,67,128.72
2837,E-5,651.5,0.25,66,128.72
2838,D5,651.75,229/1000,65,128.72
2839,D5,652.0,0.5,72,128.72
2840,E-4,652.0,0.5,47,128.72
2841,C5,652.5,479/1000,54,128.72
2842,G4,652.5,0.5,36,128.72
2843,C5,653.0,0.5,56,128.72
2844,D4,653.0,0.5,40,128.72
2845,B-4,653.5,0.5,54,128.72
2846,F4,653.5,0.5,33,128.72
2847,D5,654.0,0.5,65,128.72
2848,E-4,654.0,0.5,47,128.72
2849,C5,654.5,479/1000,54,128.72
2850,G4,654.5,0.5,37,128.72
2851,C5,655.0,0.5,57,128.72
2852,C4,655.0,0.5,39,128.72
2853,A4,655.5,0.5,53,128.72
2854,E-4,655.5,0.5,32,128.72
2855,B-4,656.0,0.5,66,128.72
2856,F4,656.0,1.0,47,128.72
2857,D4,656.0,1.0,47,128.72
2858,C5,656.5,0.25,57,128.72
2859,D5,656.75,0.25,58,128.72
2860,E-5,657.0,0.25,59,128.72
2861,F5,657.25,0.25,60,128.72
2862,G5,657.5,0.25,61,128.72
2863,A5,657.75,0.25,64,128.72
2864,B-5,658.0,0.25,66,128.72
2865,C6,658.25,0.25,67,128.72
2866,D6,658.5,0.25,68,128.72
2867,E-6,658.75,0.25,69,128.72
2868,F6,659.0,0.25,76,128.72
2869,F6,659.5,0.25,75,128.72
2870,F5,660.0,2.5,76,128.72
2871,F6,660.0,0.5,76,128.72
2872,A3,660.0,1.0,61,128.72
2873,E-6,660.5,1.0,74,128.72
2874,B-3,661.0,1.0,55,128.72
2875,D6,661.5,0.5,73,128.72
2876,D6,662.0,0.5,75,128.72
2877,E-3,662.0,1.0,63,128.72
2878,E-5,662.5,0.25,64,128.72
2879,C6,662.5,0.25,64,128.72
2880,F3,663.0,1.0,57,128.72
2881,D5,663.0,0.25,72,128.72
2882,B-5,663.0,0.25,72,128.72
2883,C5,663.5,0.25,64,128.72
2884,A5,663.5,0.25,64,128.72
2885,B-5,664.0,0.5,76,128.72
2886,D5,664.0,0.5,76,128.72
2887,B-2,664.5,0.25,52,128.72
2888,B-4,665.0,0.5,72,128.72
2889,D3,665.0,0.25,55,128.72
2890,F3,665.5,0.25,50,128.72
2891,B-3,666.0,1.0,61,128.72
2892,G4,667.0,0.25,52,128.72
2893,F4,667.25,0.25,48,128.72
2894,E-4,667.5,0.25,52,128.72
2895,D4,667.75,0.25,48,128.72
2896,C4,668.0,0.5,56,128.72
2897,B-3,668.5,0.5,53,128.72
2898,B-2,668.5,0.5,34,128.72
2899,B-3,669.0,1.5,53,128.72
2900,D3,669.0,0.5,37,128.72
2901,F3,669.5,0.5,34,128.72
2902,D3,670.0,0.5,43,128.72
2903,B-4,670.5,0.25,54,128.72
2904,B-2,670.5,0.5,35,128.72
2905,B-4,671.0,0.5,54,128.72
2906,D3,671.0,0.5,39,128.72
2907,C5,671.5,0.5,51,128.72
2908,F3,671.5,0.5,39,128.72
2909,B-4,672.0,0.5,61,128.72
2910,A4,672.5,0.5,53,128.72
2911,B-2,672.5,0.5,37,128.72
2912,G#4,673.0,1479/1000,51,128.72
2913,D3,673.0,0.5,41,128.72
2914,F3,673.5,0.5,37,128.72
2915,D3,674.0,0.5,43,128.72
2916,G#4,674.5,479/1000,58,128.72
2917,B-2,674.5,0.5,38,128.72
2918,G#4,675.0,479/1000,65,128.72
2919,D3,675.0,0.5,38,128.72
2920,G#4,675.5,0.5,72,128.72
2921,F3,675.5,0.5,34,128.72
2922,G#5,676.0,0.25,78,128.72
2923,B-5,676.25,0.25,71,128.72
2924,G5,676.5,0.25,78,128.72
2925,B-2,676.5,0.5,47,128.72
2926,G#5,676.75,0.25,70,128.72
2927,F5,677.0,0.25,79,128.72
2928,D3,677.0,0.5,47,128.72
2929,G5,677.25,0.25,69,128.72
2930,E-5,677.5,0.25,77,128.72
2931,F3,677.5,0.5,45,128.72
2932,F5,677.75,0.25,70,128.72
2933,D5,678.0,0.25,79,128.72
2934,G#3,678.0,0.5,53,128.72
2935,E-5,678.25,0.25,70,128.72
2936,C5,678.5,0.25,75,128.72
2937,F3,678.5,0.5,45,128.72
2938,D5,678.75,0.25,69,128.72
2939,B-4,679.0,0.25,76,128.72
2940,D3,679.0,0.5,48,128.72
2941,C5,679.25,0.25,70,128.72
2942,G#4,679.5,0.25,72,128.72
2943,B-2,679.5,0.5,45,128.72
2944,B-4,679.75,0.25,67,128.72
2945,G#4,680.0,0.5,72,128.72
2946,G4,680.5,479/1000,67,128.72
2947,B2,680.5,0.5,36,128.72
2948,G4,681.0,1.5,59,128.72
2949,D3,681.0,0.5,36,128.72
2950,F3,681.5,0.5,36,128.72
2951,G3,682.0,0.5,41,128.72
2952,G5,682.5,0.25,54,128.72
2953,F3,682.5,0.5,33,128.72
2954,G5,683.0,0.5,60,128.72
2955,D3,683.0,0.5,34,128.72
2956,F5,683.5,479/1000,54,128.72
2957,B2,683.5,0.5,32,128.72
2958,F5,684.0,0.5,63,128.72
2959,E5,684.5,479/1000,54,128.72
2960,B-3,684.5,0.5,33,128.72
2961,E5,685.0,1.5,54,128.72
2962,C#4,685.0,0.5,36,128.72
2963,E4,685.5,0.5,32,128.72
2964,G4,686.0,1.0,40,128.72
2965,C#6,686.5,0.25,59,128.72
2966,C#6,687.0,0.5,61,128.72
2967,E5,687.5,0.5,56,128.72
2968,G5,688.0,0.5,61,128.72
2969,F5,688.5,479/1000,54,128.72
2970,A3,688.5,0.5,34,128.72
2971,F5,689.0,1.5,54,128.72
2972,C4,689.0,0.5,34,128.72
2973,F4,689.5,0.5,32,128.72
2974,A4,690.0,1.0,39,128.72
2975,F#5,690.5,0.5,52,128.72
2976,G5,691.0,0.5,54,128.72
2977,E-5,691.5,0.5,52,128.72
2978,C#5,692.0,0.5,57,128.72
2979,D5,692.5,479/1000,52,128.72
2980,B-3,692.5,0.5,32,128.72
2981,D5,693.0,1.0,52,128.72
2982,D4,693.0,0.5,34,128.72
2983,F4,693.5,0.5,30,128.72
2984,B-4,694.0,1.0,38,128.72
2985,F5,694.5,0.5,54,128.72
2986,G5,695.0,0.25,61,128.72
2987,F5,695.25,0.25,57,128.72
2988,E-5,695.5,0.25,61,128.72
2989,D5,695.75,0.25,56,128.72
2990,C5,696.0,1.5,61,128.72
2991,E-4,696.0,0.5,42,128.72
2992,G4,696.5,0.5,38,128.72
2993,E-4,697.0,0.5,42,128.72
2994,A4,697.5,0.5,52,128.72
2995,F4,697.5,0.5,38,128.72
2996,B-4,698.0,0.125,52,128.72
2997,D4,698.0,0.5,41,128.72
2998,F5,698.25,3/10,56,128.72
2999,E5,698.5,3/10,56,128.72
3000,F4,698.5,0.5,38,128.72
3001,F5,698.75,3/10,52,128.72
3002,G5,699.0,3/10,63,128.72
3003,D4,699.0,0.5,41,128.72
3004,F5,699.25,3/10,54,128.72
3005,E-5,699.5,3/10,59,128.72
3006,F4,699.5,0.5,38,128.72
3007,D5,699.75,0.25,53,128.72
3008,C5,700.0,0.25,63,128.72
3009,D5,700.0,1/20,53,128.72
3010,E-4,700.0,0.5,41,128.72
3011,C5,700.5,1.0,63,128.72
3012,F4,700.5,0.5,38,128.72
3013,E-4,701.0,0.5,41,128.72
3014,A4,701.5,0.5,54,128.72
3015,F4,701.5,0.5,38,128.72
3016,B-4,702.0,0.125,54,128.72
3017,D4,702.0,0.5,41,128.72
3018,F5,702.25,3/10,51,128.72
3019,E5,702.5,3/10,56,128.72
3020,F4,702.5,0.5,38,128.72
3021,F5,702.75,3/10,53,128.72
3022,G5,703.0,3/10,62,128.72
3023,D4,703.0,0.5,41,128.72
3024,F5,703.25,3/10,53,128.72
3025,E-5,703.5,3/10,57,128.72
3026,F4,703.5,0.5,38,128.72
3027,D5,703.75,229/1000,54,128.72
3028,D5,704.0,0.5,63,128.72
3029,E-4,704.0,0.5,41,128.72
3030,C5,704.5,0.5,60,128.72
3031,G4,704.5,0.5,38,128.72
3032,E-4,705.0,0.5,41,128.72
3033,C5,705.5,0.5,59,128.72
3034,G4,705.5,0.5,38,128.72
3035,C5,706.0,0.5,63,128.72
3036,E4,706.0,0.5,41,128.72
3037,B-4,706.5,0.5,59,128.72
3038,G4,706.5,0.5,38,128.72
3039,E4,707.0,0.5,41,128.72
3040,B-4,707.5,0.5,52,128.72
3041,G4,707.5,0.5,38,128.72
3042,A4,708.0,0.25,64,128.72
3043,F3,708.0,1.0,41,128.72
3044,B-4,708.25,0.25,58,128.72
3045,A4,708.5,0.25,62,128.72
3046,F4,708.75,0.25,58,128.72
3047,B-4,709.0,0.25,69,128.72
3048,G3,709.0,1.0,47,128.72
3049,C5,709.25,0.25,62,128.72
3050,B-4,709.5,0.25,67,128.72
3051,F4,709.75,0.25,59,128.72
3052,C5,710.0,0.25,70,128.72
3053,A3,710.0,1.0,52,128.72
3054,D5,710.25,0.25,64,128.72
3055,C5,710.5,0.25,69,128.72
3056,F4,710.75,0.25,63,128.72
3057,D5,711.0,0.25,77,128.72
3058,B-3,711.0,1.0,58,128.72
3059,E-5,711.25,0.25,67,128.72
3060,D5,711.5,0.25,72,128.72
3061,F4,711.75,0.25,67,128.72
3062,E-5,712.0,0.25,78,128.72
3063,C4,712.0,0.5,64,128.72
3064,E-5,712.5,0.25,78,128.72
3065,F4,712.5,0.5,45,128.72
3066,A3,713.0,0.5,51,128.72
3067,C5,713.5,0.25,73,128.72
3068,F4,713.5,0.5,46,128.72
3069,E-5,714.0,0.5,79,128.72
3070,B-3,714.0,0.5,52,128.72
3071,D5,714.5,0.25,72,128.72
3072,F4,714.5,0.5,46,128.72
3073,C5,715.0,0.25,74,128.72
3074,G3,715.0,0.5,52,128.72
3075,B-4,715.5,0.25,71,128.72
3076,F4,715.5,0.5,46,128.72
3077,A4,716.0,0.25,67,128.72
3078,F3,716.0,1.0,40,128.72
3079,F4,716.25,0.25,59,128.72
3080,E5,716.5,0.25,61,128.72
3081,F5,716.75,0.25,59,128.72
3082,B-4,717.0,0.25,70,128.72
3083,G3,717.0,1.0,46,128.72
3084,F4,717.25,0.25,59,128.72
3085,E5,717.5,0.25,66,128.72
3086,F5,717.75,0.25,61,128.72
3087,C5,718.0,0.25,74,128.72
3088,A3,718.0,1.0,51,128.72
3089,F4,718.25,0.25,64,128.72
3090,E5,718.5,0.25,69,128.72
3091,F5,718.75,0.25,62,128.72
3092,D5,719.0,0.25,79,128.72
3093,B-3,719.0,1.0,58,128.72
3094,F4,719.25,0.25,69,128.72
3095,E5,719.5,0.25,73,128.72
3096,F5,719.75,0.25,69,128.72
3097,E-5,720.0,0.25,79,128.72
3098,C4,720.0,0.25,64,128.72
3099,F4,720.25,0.25,45,128.72
3100,E-5,720.5,0.25,79,128.72
3101,E4,720.5,0.25,49,128.72
3102,F4,720.75,0.25,45,128.72
3103,A3,721.0,0.25,56,128.72
3104,F4,721.25,0.25,46,128.72
3105,C5,721.5,0.125,57,128.72
3106,E4,721.5,0.25,49,128.72
3107,D5,721.619,0.125,52,128.72
3108,C5,721.75,0.125,57,128.72
3109,F4,721.75,0.25,46,128.72
3110,D5,721.875,0.125,52,128.72
3111,E-5,722.0,0.5,72,128.72
3112,B-3,722.0,0.25,56,128.72
3113,F4,722.25,0.25,46,128.72
3114,D5,722.5,0.25,71,128.72
3115,E4,722.5,0.25,49,128.72
3116,F4,722.75,0.25,47,128.72
3117,C5,723.0,0.25,71,128.72
3118,G3,723.0,0.25,57,128.72
3119,E4,723.25,0.25,45,128.72
3120,B-4,723.5,0.25,68,128.72
3121,D4,723.5,0.25,49,128.72
3122,E4,723.75,0.25,46,128.72
3123,A4,724.0,0.25,78,128.72
3124,F3,724.0,99/100,59,128.72
3125,F4,724.0,99/100,59,128.72
3126,F5,724.25,0.25,69,128.72
3127,C5,724.5,0.25,73,128.72
3128,A4,724.75,0.25,70,128.72
3129,F4,725.0,0.25,77,128.72
3130,C4,725.25,0.25,69,128.72
3131,A3,725.5,0.25,70,128.72
3132,F3,725.75,0.25,67,128.72
3133,F1,726.0,0.5,75,128.72
3134,F2,726.0,0.5,75,128.72
3135,F3,728.0,1.5,72,128.72
3136,B-3,728.0,1.5,72,128.72
3137,D4,728.0,1.5,72,128.72
3138,F4,728.0,1.5,72,128.72
3139,B-1,728.0,2.0,58,128.72
3140,B-2,728.0,2.0,58,128.72
3141,G4,729.5,0.25,48,128.72
3142,F4,729.75,0.25,45,128.72
3143,E-4,730.0,0.25,52,128.72
3144,D4,730.5,0.25,48,128.72
3145,C4,731.0,0.25,52,128.72
3146,B-3,731.5,0.25,48,128.72
3147,B-3,732.0,0.5,54,128.72
3148,G4,732.5,479/1000,49,128.72
3149,B-3,733.0,1.5,72,128.72
3150,G4,733.0,1.5,72,128.72
3151,E-2,733.0,2.0,57,128.72
3152,E-3,733.0,2.0,57,128.72
3153,F4,734.5,0.5,53,128.72
3154,A4,735.0,0.5,53,128.72
3155,D3,735.0,1.0,44,128.72
3156,B-4,735.5,479/1000,52,128.72
3157,B-4,736.0,0.5,61,128.72
3158,E3,736.0,1.0,38,128.72
3159,G3,736.0,1.0,38,128.72
3160,C4,736.5,1.0,53,128.72
3161,F3,737.0,1.0,38,128.72
3162,D4,737.5,0.5,53,128.72
3163,B-4,738.0,0.5,61,128.72
3164,G3,738.0,1.0,38,128.72
3165,E3,738.0,1.0,38,128.72
3166,C4,738.5,1.0,51,128.72
3167,F3,739.0,1.0,40,128.72
3168,D4,739.5,0.5,53,128.72
3169,F4,740.0,1.0,58,128.72
3170,G3,740.0,1.0,39,128.72
3171,E-4,741.0,0.125,52,128.72
3172,A3,741.0,1.0,35,128.72
3173,F4,741.125,0.125,47,128.72
3174,E-4,741.25,0.125,52,128.72
3175,F4,741.375,0.125,49,128.72
3176,E-4,741.5,83/1000,52,128.72
3177,F4,741.583,83/1000,49,128.72
3178,E-4,741.667,83/1000,49,128.72
3179,D4,741.75,0.125,52,128.72
3180,E-4,741.875,0.125,48,128.72
3181,D4,742.0,0.25,57,128.72
3182,B-3,742.0,1.0,35,128.72
3183,D4,742.5,0.5,51,128.72
3184,E-4,743.0,0.5,53,128.72
3185,F4,743.5,0.5,51,128.72
3186,F#4,744.0,0.5,65,128.72
3187,G4,744.5,1.0,54,128.72
3188,E-2,744.5,0.5,46,128.72
3189,G2,745.0,0.5,46,128.72
3190,F4,745.5,0.25,53,128.72
3191,C3,745.5,0.5,45,128.72
3192,E-4,745.75,0.25,50,128.72
3193,D4,746.0,0.5,54,128.72
3194,E-3,746.0,1.0,52,128.72
3195,C4,746.5,0.5,51,128.72
3196,D4,747.0,0.5,52,128.72
3197,E-4,747.5,0.5,51,128.72
3198,G4,748.0,0.5,63,128.72
3199,F4,748.5,1.0,53,128.72
3200,D2,748.5,0.5,44,128.72
3201,F2,749.0,0.5,44,128.72
3202,E-4,749.5,0.25,54,128.72
3203,B-2,749.5,0.5,43,128.72
3204,D4,749.75,0.25,49,128.72
3205,C4,750.0,0.5,56,128.72
3206,D3,750.0,1.0,52,128.72
3207,B-3,750.5,0.5,52,128.72
3208,C4,751.0,0.5,54,128.72
3209,D4,751.5,0.5,50,128.72
3210,F4,752.0,0.5,63,128.72
3211,C3,752.0,1.0,44,128.72
3212,E-4,752.5,1.0,51,128.72
3213,A2,753.0,1.0,41,128.72
3214,C4,753.5,0.5,51,128.72
3215,E-4,754.0,0.5,62,128.72
3216,B-2,754.0,1.0,43,128.72
3217,D4,754.5,1.0,52,128.72
3218,G2,755.0,1.0,42,128.72
3219,B-3,755.5,0.5,52,128.72
3220,A3,756.0,3/10,48,128.72
3221,F2,756.0,1.0,44,128.72
3222,B-3,756.25,3/10,49,128.72
3223,B3,756.5,3/10,50,128.72
3224,C4,756.75,3/10,51,128.72
3225,C#4,757.0,3/10,52,128.72
3226,D4,757.25,3/10,53,128.72
3227,E-4,757.5,3/10,54,128.72
3228,E4,757.75,3/10,54,128.72
3229,F4,758.0,1.0,56,128.72
3230,F3,758.0,0.25,53,128.72
3231,G3,758.25,0.25,49,128.72
3232,E-3,758.5,0.25,54,128.72
3233,F3,758.75,0.25,49,128.72
3234,D3,759.0,0.25,54,128.72
3235,E-3,759.25,0.25,49,128.72
3236,C3,759.5,0.25,56,128.72
3237,D3,759.75,0.25,49,128.72
3238,B-2,760.0,1.0,69,128.72
3239,F4,760.0,1.5,73,128.72
3240,B-4,760.0,1.5,73,128.72
3241,D5,760.0,1.5,73,128.72
3242,F5,760.0,1.5,73,128.72
3243,B-3,761.0,1.0,58,128.72
3244,G5,761.5,0.25,51,128.72
3245,F5,761.75,0.25,49,128.72
3246,E-5,762.0,0.25,57,128.72
3247,D5,762.5,0.25,50,128.72
3248,C5,763.0,0.25,50,128.72
3249,B-4,763.5,0.25,47,128.72
3250,B-4,764.0,0.5,53,128.72
3251,G5,764.5,479/1000,50,128.72
3252,B-4,765.0,1.5,68,128.72
3253,G5,765.0,1.5,68,128.72
3254,E-3,765.0,2.0,59,128.72
3255,E-4,765.0,2.0,59,128.72
3256,F5,766.5,0.5,53,128.72
3257,A5,767.0,0.5,66,128.72
3258,D4,767.0,1.0,43,128.72
3259,B-5,767.5,0.5,63,128.72
3260,B-5,768.0,0.5,63,128.72
3261,E4,768.0,1.0,43,128.72
3262,G4,768.0,1.0,43,128.72
3263,C5,768.5,0.5,53,128.72
3264,D5,769.0,0.5,53,128.72
3265,F4,769.0,1.0,43,128.72
3266,B-5,769.5,1.0,68,128.72
3267,E4,770.0,1.0,43,128.72
3268,G4,770.0,1.0,43,128.72
3269,C5,770.5,0.5,53,128.72
3270,D5,771.0,0.5,53,128.72
3271,F4,771.0,1.0,41,128.72
3272,B-5,771.5,0.25,67,128.72
3273,F5,772.0,1.0,54,128.72
3274,G4,772.0,1.0,43,128.72
3275,B-4,772.0,1.0,43,128.72
3276,E5,773.0,0.5,53,128.72
3277,A4,773.0,1.0,43,128.72
3278,C5,773.0,1.0,43,128.72
3279,E-5,773.5,0.5,53,128.72
3280,D5,774.0,0.25,48,128.72
3281,B-4,774.0,1.0,46,128.72
3282,D5,774.5,0.5,54,128.72
3283,E-5,775.0,0.5,60,128.72
3284,F5,775.5,0.5,64,128.72
3285,G5,776.0,1.5,70,128.72
3286,G3,776.5,0.5,54,128.72
3287,G4,777.0,0.25,61,128.72
3288,A5,777.5,0.25,70,128.72
3289,F4,777.5,0.25,53,128.72
3290,B5,777.75,0.25,67,128.72
3291,C6,778.0,0.25,70,128.72
3292,E-4,778.0,0.25,60,128.72
3293,D6,778.25,0.25,67,128.72
3294,E-6,778.5,0.25,70,128.72
3295,E-3,778.5,0.5,53,128.72
3296,D6,778.75,0.25,66,128.72
3297,C6,779.0,0.25,70,128.72
3298,E-4,779.0,0.25,61,128.72
3299,D6,779.25,0.25,67,128.72
3300,B-5,779.5,0.25,70,128.72
3301,D4,779.5,0.25,53,128.72
3302,C6,779.75,0.25,67,128.72
3303,A5,780.0,0.25,69,128.72
3304,C4,780.0,0.5,57,128.72
3305,B-5,780.25,0.25,66,128.72
3306,G5,780.5,0.25,69,128.72
3307,B-3,780.5,0.5,53,128.72
3308,A5,780.75,0.25,64,128.72
3309,F5,781.0,0.25,71,128.72
3310,A3,781.0,0.5,53,128.72
3311,G5,781.25,0.25,67,128.72
3312,E-5,781.5,0.25,71,128.72
3313,F3,781.5,0.5,53,128.72
3314,F5,781.75,0.25,67,128.72
3315,D5,782.0,0.25,68,128.72
3316,B-3,782.0,1.0,60,128.72
3317,E-5,782.25,0.25,64,128.72
3318,F5,782.5,0.25,68,128.72
3319,G5,782.75,0.25,65,128.72
3320,A5,783.0,0.25,70,128.72
3321,D3,783.0,1.0,54,128.72
3322,B-5,783.25,0.25,66,128.72
3323,A5,783.5,0.25,69,128.72
3324,B-5,783.75,0.25,65,128.72
3325,C6,784.0,0.25,72,128.72
3326,E-3,784.0,1.0,59,128.72
3327,B-5,784.25,0.25,70,128.72
3328,A5,784.5,0.25,69,128.72
3329,G5,784.75,0.25,67,128.72
3330,A5,785.0,0.25,72,128.72
3331,E-4,785.0,1.0,53,128.72
3332,G5,785.25,0.25,70,128.72
3333,F5,785.5,0.25,69,128.72
3334,E-5,785.75,0.25,67,128.72
3335,D5,786.0,1.0,71,128.72
3336,F4,786.0,1.0,54,128.72
3337,C5,787.0,0.125,58,128.72
3338,A4,787.0,1.0,58,128.72
3339,F3,787.0,1.0,53,128.72
3340,D5,787.125,0.125,54,128.72
3341,C5,787.25,0.125,58,128.72
3342,D5,787.375,0.125,53,128.72
3343,C5,787.5,83/1000,58,128.72
3344,D5,787.583,83/1000,54,128.72
3345,C5,787.667,83/1000,54,128.72
3346,B-4,787.75,0.125,66,128.72
3347,C5,787.875,0.125,62,128.72
3348,B-4,788.0,1.0,75,128.72
3349,B-3,788.0,0.25,53,128.72
3350,F4,788.25,0.25,46,128.72
3351,E4,788.5,0.25,49,128.72
3352,F4,788.75,0.25,46,128.72
3353,G4,789.0,0.25,53,128.72
3354,F4,789.25,0.25,47,128.72
3355,E4,789.5,0.25,49,128.72
3356,F4,789.75,0.25,46,128.72
3357,E-4,790.0,0.25,53,128.72
3358,F4,790.25,0.25,51,128.72
3359,D4,790.5,0.25,53,128.72
3360,F4,790.75,0.25,49,128.72
3361,C4,791.0,0.25,53,128.72
3362,F4,791.25,0.25,50,128.72
3363,B-3,791.5,0.25,53,128.72
3364,F4,791.75,0.25,50,128.72
3365,E-5,792.0,0.5,85,128.72
3366,A3,792.0,0.25,48,128.72
3367,F4,792.25,0.25,40,128.72
3368,C5,792.5,0.25,56,128.72
3369,C4,792.5,0.25,42,128.72
3370,F4,792.75,0.25,38,128.72
3371,A4,793.0,0.25,62,128.72
3372,E-4,793.0,0.25,48,128.72
3373,F4,793.25,0.25,40,128.72
3374,A4,793.5,0.25,56,128.72
3375,E-4,793.5,0.25,42,128.72
3376,F4,793.75,0.25,39,128.72
3377,E-5,794.0,0.5,85,128.72
3378,A3,794.0,0.25,47,128.72
3379,F4,794.25,0.25,40,128.72
3380,C5,794.5,0.25,54,128.72
3381,C4,794.5,0.25,43,128.72
3382,F4,794.75,0.25,40,128.72
3383,A4,795.0,0.25,60,128.72
3384,E-4,795.0,0.25,48,128.72
3385,F4,795.25,0.25,42,128.72
3386,A4,795.5,0.25,54,128.72
3387,E-4,795.5,0.25,42,128.72
3388,F4,795.75,0.25,42,128.72
3389,B-4,796.0,0.25,62,128.72
3390,D4,796.0,0.25,44,128.72
3391,F4,796.25,0.25,45,128.72
3392,C5,796.5,0.25,63,128.72
3393,A3,796.5,0.25,45,128.72
3394,F4,796.75,0.25,45,128.72
3395,D5,797.0,0.25,64,128.72
3396,B-3,797.0,0.25,46,128.72
3397,F4,797.25,0.25,47,128.72
3398,E-5,797.5,0.25,66,128.72
3399,C4,797.5,0.25,48,128.72
3400,F4,797.75,0.25,49,128.72
3401,E5,798.0,0.5,88,128.72
3402,C#4,798.0,0.25,53,128.72
3403,F4,798.25,0.25,48,128.72
3404,F5,798.5,0.5,75,128.72
3405,D4,798.5,0.25,53,128.72
3406,F4,798.75,0.25,46,128.72
3407,E5,799.0,0.5,87,128.72
3408,C#4,799.0,0.25,53,128.72
3409,F4,799.25,0.25,46,128.72
3410,F5,799.5,0.5,75,128.72
3411,D4,799.5,0.25,53,128.72
3412,F4,799.75,0.25,47,128.72
3413,A3,800.0,0.25,48,128.72
3414,E-6,800.0,0.5,90,128.72
3415,E-5,800.0,0.5,90,128.72
3416,F4,800.25,0.25,39,128.72
3417,C4,800.5,0.25,42,128.72
3418,C6,800.5,0.25,52,128.72
3419,C5,800.5,0.25,52,128.72
3420,F4,800.75,0.25,39,128.72
3421,E-4,801.0,0.25,48,128.72
3422,A5,801.0,0.25,57,128.72
3423,A4,801.0,0.25,57,128.72
3424,F4,801.25,0.25,40,128.72
3425,E-4,801.5,0.25,42,128.72
3426,A5,801.5,0.25,52,128.72
3427,A4,801.5,0.25,52,128.72
3428,F4,801.75,0.25,39,128.72
3429,A3,802.0,0.25,47,128.72
3430,E-6,802.0,0.5,90,128.72
3431,E-5,802.0,0.5,90,128.72
3432,F4,802.25,0.25,39,128.72
3433,C4,802.5,0.25,43,128.72
3434,C6,802.5,0.25,50,128.72
3435,C5,802.5,0.25,50,128.72
3436,F4,802.75,0.25,39,128.72
3437,E-4,803.0,0.25,48,128.72
3438,A5,803.0,0.25,56,128.72
3439,A4,803.0,0.25,56,128.72
3440,F4,803.25,0.25,42,128.72
3441,E-4,803.5,0.25,42,128.72
3442,A5,803.5,0.25,50,128.72
3443,A4,803.5,0.25,50,128.72
3444,F4,803.75,0.25,42,128.72
3445,D4,804.0,0.25,44,128.72
3446,B-5,804.0,0.25,57,128.72
3447,B-4,804.0,0.25,57,128.72
3448,F4,804.25,0.25,45,128.72
3449,A3,804.5,0.25,45,128.72
3450,C6,804.5,0.25,58,128.72
3451,C5,804.5,0.25,58,128.72
3452,F4,804.75,0.25,45,128.72
3453,B-3,805.0,0.25,46,128.72
3454,D6,805.0,0.25,59,128.72
3455,D5,805.0,0.25,59,128.72
3456,F4,805.25,0.25,47,128.72
3457,C4,805.5,0.25,48,128.72
3458,E-6,805.5,0.25,61,128.72
3459,E-5,805.5,0.25,61,128.72
3460,F4,805.75,0.25,49,128.72
3461,C#4,806.0,0.25,53,128.72
3462,E6,806.0,0.5,83,128.72
3463,E5,806.0,0.5,83,128.72
3464,F4,806.25,0.25,48,128.72
3465,D4,806.5,0.25,53,128.72
3466,F6,806.5,0.5,69,128.72
3467,F5,806.5,0.5,69,128.72
3468,F4,806.75,0.25,46,128.72
3469,C#4,807.0,0.25,53,128.72
3470,E6,807.0,0.5,84,128.72
3471,E5,807.0,0.5,84,128.72
3472,F4,807.25,0.25,46,128.72
3473,D4,807.5,0.25,53,128.72
3474,F6,807.5,0.5,69,128.72
3475,F5,807.5,0.5,69,128.72
3476,F4,807.75,0.25,47,128.72
3477,G4,808.0,2.0,61,128.72
3478,G5,808.0,2.0,61,128.72
3479,E-3,808.5,0.5,38,128.72
3480,D3,809.0,0.5,40,128.72
3481,E-3,809.5,0.5,38,128.72
3482,A3,810.0,2.0,50,128.72
3483,A4,810.0,2.0,50,128.72
3484,F3,810.5,0.5,38,128.72
3485,E3,811.0,0.5,40,128.72
3486,F3,811.5,0.5,38,128.72
3487,E-5,812.0,2.0,71,128.72
3488,E-6,812.0,2.0,71,128.72
3489,F#3,812.5,0.5,38,128.72
3490,E3,813.0,0.5,42,128.72
3491,F#3,813.5,0.5,38,128.72
3492,D5,814.0,2.0,62,128.72
3493,D6,814.0,2.0,62,128.72
3494,G3,814.5,0.5,40,128.72
3495,F#3,815.0,0.5,42,128.72
3496,G3,815.5,0.5,39,128.72
3497,D6,816.0,3/10,75,128.72
3498,C6,816.25,3/10,68,128.72
3499,E-6,816.5,3/10,72,128.72
3500,D6,816.75,3/10,67,128.72
3501,F6,817.0,3/10,75,128.72
3502,E-4,817.0,1.0,54,128.72
3503,C5,817.0,1.0,54,128.72
3504,E-6,817.25,3/10,71,128.72
3505,D6,817.5,3/10,72,128.72
3506,C6,817.75,3/10,68,128.72
3507,B-5,818.0,1.0,75,128.72
3508,F4,818.0,2.0,54,128.72
3509,D5,818.0,1.0,54,128.72
3510,A5,819.0,1.0,63,128.72
3511,E-5,819.0,1.0,45,128.72
3512,B-4,820.0,2.0,38,128.72
3513,D5,820.0,2.0,38,128.72
3514,B-5,820.5,0.5,47,128.72
3515,A5,821.0,0.5,50,128.72
3516,B-5,821.5,0.5,47,128.72
3517,B-4,822.0,2.0,31,128.72
3518,D5,822.0,2.0,31,128.72
3519,G#5,822.5,0.5,46,128.72
3520,G5,823.0,0.5,51,128.72
3521,G#5,823.5,0.5,46,128.72
3522,B4,824.0,2.0,31,128.72
3523,D5,824.0,2.0,31,128.72
3524,F5,824.0,2.0,31,128.72
3525,G5,824.5,0.5,44,128.72
3526,F#5,825.0,0.5,48,128.72
3527,G5,825.5,0.5,45,128.72
3528,C5,826.0,2.0,31,128.72
3529,E-5,826.0,2.0,31,128.72
3530,G5,826.5,0.5,44,128.72
3531,G6,827.0,0.5,51,128.72
3532,G6,827.5,0.25,48,128.72
3533,A4,828.0,2.0,31,128.72
3534,C5,828.0,2.0,31,128.72
3535,E-5,828.0,2.0,31,128.72
3536,G6,828.5,0.5,50,128.72
3537,F5,829.0,0.5,44,128.72
3538,F5,829.5,0.25,44,128.72
3539,B-4,830.0,2.0,30,128.72
3540,D5,830.0,2.0,30,128.72
3541,F5,830.5,0.5,46,128.72
3542,D6,831.0,0.5,51,128.72
3543,D6,831.5,0.25,48,128.72
3544,G4,832.0,2.0,31,128.72
3545,B-4,832.0,2.0,31,128.72
3546,D5,832.0,2.0,31,128.72
3547,D6,832.5,0.5,49,128.72
3548,E-5,833.0,0.5,45,128.72
3549,E-5,833.5,0.25,45,128.72
3550,A4,834.0,2.0,30,128.72
3551,C5,834.0,2.0,30,128.72
3552,E-5,834.5,0.5,44,128.72
3553,C6,835.0,0.5,50,128.72
3554,C6,835.5,0.25,47,128.72
3555,F#4,836.0,2.0,30,128.72
3556,A4,836.0,2.0,30,128.72
3557,C5,836.0,2.0,30,128.72
3558,C6,836.5,0.5,48,128.72
3559,D5,837.0,0.5,44,128.72
3560,D5,837.5,0.25,44,128.72
3561,G4,838.0,2.0,31,128.72
3562,B-4,838.0,2.0,31,128.72
3563,D5,838.5,0.5,44,128.72
3564,B-5,839.0,0.5,49,128.72
3565,B-5,839.5,0.25,46,128.72
3566,B-5,840.0,0.5,54,128.72
3567,C5,840.5,0.25,44,128.72
3568,E4,840.5,249/500,33,128.72
3569,B-4,840.5,249/500,33,128.72
3570,E4,841.0,249/500,38,128.72
3571,B-4,841.0,249/500,38,128.72
3572,E4,841.5,0.5,35,128.72
3573,B-4,841.5,0.5,35,128.72
3574,B-5,842.0,0.5,63,128.72
3575,D5,842.5,0.25,52,128.72
3576,F4,842.5,0.5,38,128.72
3577,B-4,842.5,0.5,38,128.72
3578,F4,843.0,0.5,42,128.72
3579,B-4,843.0,0.5,42,128.72
3580,F4,843.5,0.5,40,128.72
3581,B-4,843.5,0.5,40,128.72
3582,B-5,844.0,0.5,69,128.72
3583,E-5,844.5,0.25,54,128.72
3584,G4,844.5,0.5,42,128.72
3585,B-4,844.5,0.5,42,128.72
3586,G4,845.0,0.5,49,128.72
3587,B-4,845.0,0.5,49,128.72
3588,G4,845.5,0.5,46,128.72
3589,B-4,845.5,0.5,46,128.72
3590,B-5,846.0,0.5,81,128.72
3591,E5,846.5,0.25,67,128.72
3592,F#4,846.5,0.5,58,128.72
3593,B-4,846.5,0.5,58,128.72
3594,F#4,847.0,0.5,64,128.72
3595,B-4,847.0,0.5,64,128.72
3596,F#4,847.5,0.5,59,128.72
3597,B-4,847.5,0.5,59,128.72
3598,B-5,848.0,0.5,89,128.72
3599,F4,848.0,1.0,58,128.72
3600,B-4,848.0,1.0,58,128.72
3601,F5,848.5,0.25,83,128.72
3602,B-5,849.0,0.5,89,128.72
3603,D4,849.0,1.0,58,128.72
3604,B-4,849.0,1.0,58,128.72
3605,F#5,849.5,0.25,83,128.72
3606,B-5,850.0,0.5,89,128.72
3607,E-4,850.0,1.0,58,128.72
3608,B-4,850.0,1.0,58,128.72
3609,G5,850.5,0.5,85,128.72
3610,E-6,851.0,0.5,89,128.72
3611,C4,851.0,1.0,58,128.72
3612,F4,851.0,1.0,58,128.72
3613,A5,851.5,0.5,85,128.72
3614,D6,852.0,1/10,82,128.72
3615,B-3,852.0,1.0,56,128.72
3616,F4,852.0,1.0,56,128.72
3617,E-6,852.1,1/10,81,128.72
3618,D6,852.2,1/10,85,128.72
3619,E-6,852.3,1/10,78,128.72
3620,D6,852.4,1/10,78,128.72
3621,F6,852.5,0.5,94,128.72
3622,B-5,853.0,1/10,81,128.72
3623,D3,853.0,1.0,47,128.72
3624,F3,853.0,1.0,47,128.72
3625,C6,853.1,1/10,76,128.72
3626,B-5,853.2,1/10,81,128.72
3627,C6,853.3,1/10,75,128.72
3628,B-5,853.4,1/10,75,128.72
3629,D6,853.5,0.5,92,128.72
3630,G5,854.0,1/10,75,128.72
3631,E-3,854.0,1.0,46,128.72
3632,B-3,854.0,1.0,46,128.72
3633,A5,854.1,1/10,69,128.72
3634,G5,854.2,1/10,75,128.72
3635,A5,854.3,1/10,71,128.72
3636,G5,854.408,23/250,71,128.72
3637,B-5,854.5,0.5,88,128.72
3638,C5,855.0,1/10,71,128.72
3639,E-3,855.0,1.0,42,128.72
3640,G3,855.0,1.0,42,128.72
3641,D5,855.1,1/10,66,128.72
3642,C5,855.2,1/10,71,128.72
3643,D5,855.3,1/10,67,128.72
3644,C5,855.4,1/10,67,128.72
3645,E-5,855.5,0.5,79,128.72
3646,F4,856.0,0.125,74,128.72
3647,F5,856.25,3/10,76,128.72
3648,G5,856.5,3/10,78,128.72
3649,F5,856.75,3/10,76,128.72
3650,E-5,857.0,3/10,76,128.72
3651,B-3,857.0,2.0,46,128.72
3652,D3,857.0,1.0,46,128.72
3653,D5,857.25,3/10,71,128.72
3654,C5,857.5,3/10,72,128.72
3655,B-4,857.75,3/10,70,128.72
3656,C5,858.0,0.125,54,128.72
3657,E-3,858.0,1.0,46,128.72
3658,D5,858.125,0.125,50,128.72
3659,C5,858.25,0.125,54,128.72
3660,D5,858.375,0.125,49,128.72
3661,C5,858.5,0.125,54,128.72
3662,D5,858.625,0.125,49,128.72
3663,C5,858.75,0.125,54,128.72
3664,D5,858.875,0.125,49,128.72
3665,C5,859.0,0.125,54,128.72
3666,A3,859.0,1.0,46,128.72
3667,F3,859.0,1.0,46,128.72
3668,D5,859.125,0.125,49,128.72
3669,C5,859.25,0.125,54,128.72
3670,D5,859.375,0.125,51,128.72
3671,C5,859.5,83/1000,54,128.72
3672,D5,859.583,83/1000,50,128.72
3673,C5,859.667,83/1000,50,128.72
3674,B-4,859.75,0.125,66,128.72
3675,C5,859.875,0.125,62,128.72
3676,B-4,860.0,0.25,70,128.72
3677,B-2,860.0,0.25,52,128.72
3678,B-3,860.0,0.25,52,128.72
3679,B-3,860.5,0.25,47,128.72
3680,D4,860.75,0.25,45,128.72
3681,C4,861.0,0.25,47,128.72
3682,A3,861.0,0.5,35,128.72
3683,E-4,861.25,0.25,45,128.72
3684,D4,861.5,0.25,47,128.72
3685,G#3,861.5,0.5,33,128.72
3686,F4,861.75,0.25,45,128.72
3687,E-4,862.0,0.25,48,128.72
3688,B-2,862.0,0.25,43,128.72
3689,G3,862.0,0.25,43,128.72
3690,B-3,862.5,0.25,52,128.72
3691,D4,862.75,0.25,48,128.72
3692,C4,863.0,0.25,52,128.72
3693,A3,863.0,0.5,35,128.72
3694,E-4,863.25,0.25,48,128.72
3695,D4,863.5,0.25,52,128.72
3696,G#3,863.5,0.5,33,128.72
3697,F4,863.75,0.25,48,128.72
3698,E-4,864.0,0.25,52,128.72
3699,B-2,864.0,0.25,42,128.72
3700,G3,864.0,0.25,42,128.72
3701,B-3,864.5,0.25,52,128.72
3702,D4,864.75,0.25,55,128.72
3703,C4,865.0,0.25,57,128.72
3704,A3,865.0,0.5,47,128.72
3705,E-4,865.25,0.25,58,128.72
3706,D4,865.5,0.25,59,128.72
3707,G#3,865.5,0.5,47,128.72
3708,F4,865.75,0.25,62,128.72
3709,E-4,866.0,0.25,63,128.72
3710,G3,866.0,0.5,51,128.72
3711,G4,866.25,0.25,66,128.72
3712,F4,866.5,0.25,67,128.72
3713,D3,866.5,0.5,50,128.72
3714,G#4,866.75,0.25,69,128.72
3715,G4,867.0,0.25,70,128.72
3716,E-3,867.0,0.5,50,128.72
3717,B-4,867.25,0.25,71,128.72
3718,A4,867.5,0.25,73,128.72
3719,C3,867.5,0.5,50,128.72
3720,C5,867.75,0.25,75,128.72
3721,B-4,868.0,0.25,77,128.72
3722,D3,868.0,1.0,57,128.72
3723,C5,868.25,0.25,79,128.72
3724,D5,868.5,0.25,82,128.72
3725,C5,868.75,0.25,82,128.72
3726,B-4,869.0,0.25,80,128.72
3727,G#4,869.25,0.25,79,128.72
3728,G4,869.5,0.25,78,128.72
3729,F#4,869.75,0.25,77,128.72
3730,G4,870.0,0.25,78,128.72
3731,E-3,870.0,1.0,53,128.72
3732,C5,870.25,0.25,79,128.72
3733,E-5,870.5,0.25,80,128.72
3734,D5,870.75,0.25,79,128.72
3735,C5,871.0,0.25,79,128.72
3736,B-4,871.25,0.25,78,128.72
3737,A4,871.5,0.25,75,128.72
3738,G4,871.75,0.25,74,128.72
3739,F4,872.0,0.25,75,128.72
3740,F3,872.0,0.5,52,128.72
3741,B-4,872.25,0.25,79,128.72
3742,D5,872.5,0.25,82,128.72
3743,B-3,872.5,0.5,48,128.72
3744,F5,872.75,0.25,88,128.72
3745,B-5,873.0,0.25,94,128.72
3746,D4,873.0,0.5,48,128.72
3747,B-3,873.5,0.5,48,128.72
3748,B-4,873.5,0.25,64,128.72
3749,D5,873.5,0.25,64,128.72
3750,F3,874.0,0.5,53,128.72
3751,D5,874.0,0.5,70,128.72
3752,F5,874.0,0.5,70,128.72
3753,C4,874.5,0.5,49,128.72
3754,C5,874.5,0.25,66,128.72
3755,E-5,874.5,0.25,66,128.72
3756,E-4,875.0,0.5,49,128.72
3757,B-4,875.0,0.25,67,128.72
3758,D5,875.0,0.25,67,128.72
3759,C4,875.5,0.5,48,128.72
3760,A4,875.5,0.25,67,128.72
3761,C5,875.5,0.25,67,128.72
3762,B-4,876.0,0.25,67,128.72
3763,B-3,876.0,0.25,56,128.72
3764,D4,876.0,0.25,56,128.72
3765,B-4,876.5,0.25,47,128.72
3766,D5,876.75,0.25,45,128.72
3767,C5,877.0,0.25,47,128.72
3768,A4,877.0,0.5,35,128.72
3769,E-5,877.25,0.25,45,128.72
3770,D5,877.5,0.25,47,128.72
3771,G#4,877.5,0.5,35,128.72
3772,F5,877.75,0.25,45,128.72
3773,E-5,878.0,0.25,48,128.72
3774,B-3,878.0,0.25,43,128.72
3775,G4,878.0,0.25,43,128.72
3776,B-5,878.5,0.25,62,128.72
3777,B-4,878.5,0.5,35,128.72
3778,D6,878.75,0.25,58,128.72
3779,C6,879.0,0.25,62,128.72
3780,A4,879.0,0.5,35,128.72
3781,E-6,879.25,0.25,59,128.72
3782,D6,879.5,0.25,62,128.72
3783,G#4,879.5,0.5,35,128.72
3784,F6,879.75,0.25,58,128.72
3785,E-6,880.0,0.25,68,128.72
3786,B-3,880.0,0.25,46,128.72
3787,G4,880.0,0.25,46,128.72
3788,B-4,880.5,0.25,55,128.72
3789,B-4,880.5,0.5,38,128.72
3790,D5,880.75,0.25,56,128.72
3791,C5,881.0,0.25,58,128.72
3792,A4,881.0,0.5,47,128.72
3793,E-5,881.25,0.25,59,128.72
3794,D5,881.5,0.25,61,128.72
3795,G#4,881.5,0.5,47,128.72
3796,F5,881.75,0.25,63,128.72
3797,E-5,882.0,0.25,64,128.72
3798,G4,882.0,0.5,51,128.72
3799,B-4,882.25,0.25,67,128.72
3800,F5,882.5,0.25,68,128.72
3801,D4,882.5,0.5,49,128.72
3802,B-4,882.75,0.25,69,128.72
3803,G5,883.0,0.25,70,128.72
3804,E-4,883.0,0.5,50,128.72
3805,B-4,883.25,0.25,72,128.72
3806,A5,883.5,0.25,74,128.72
3807,C4,883.5,0.5,50,128.72
3808,B-4,883.75,0.25,75,128.72
3809,B-5,884.0,0.25,78,128.72
3810,D3,884.0,1.0,68,128.72
3811,D4,884.0,1.0,68,128.72
3812,C6,884.25,0.25,78,128.72
3813,D6,884.5,0.25,77,128.72
3814,C6,884.75,0.25,75,128.72
3815,B-5,885.0,0.25,74,128.72
3816,G#5,885.25,0.25,73,128.72
3817,G5,885.5,0.25,72,128.72
3818,F#5,885.75,0.25,71,128.72
3819,G5,886.0,0.25,79,128.72
3820,E-4,886.0,1.0,69,128.72
3821,E-3,886.0,1.0,69,128.72
3822,F5,886.25,0.25,79,128.72
3823,E-5,886.5,0.25,78,128.72
3824,D5,886.75,0.25,77,128.72
3825,C5,887.0,0.25,75,128.72
3826,B-4,887.25,0.25,74,128.72
3827,A4,887.5,0.25,73,128.72
3828,G4,887.75,0.25,73,128.72
3829,F4,888.0,0.5,82,128.72
3830,F3,888.0,0.25,48,128.72
3831,D4,888.25,0.25,41,128.72
3832,F6,888.5,0.25,82,128.72
3833,B-3,888.5,0.25,44,128.72
3834,D4,888.75,0.25,39,128.72
3835,F6,889.0,0.25,82,128.72
3836,F3,889.0,0.25,48,128.72
3837,D4,889.25,0.25,40,128.72
3838,F6,889.5,0.25,82,128.72
3839,B-3,889.5,0.25,44,128.72
3840,D4,889.75,0.25,41,128.72
3841,F6,890.0,0.25,81,128.72
3842,F3,890.0,0.25,48,128.72
3843,D6,890.25,0.25,76,128.72
3844,D4,890.25,0.25,42,128.72
3845,B-5,890.5,0.25,71,128.72
3846,B-3,890.5,0.25,46,128.72
3847,F5,890.75,0.25,69,128.72
3848,D4,890.75,0.25,42,128.72
3849,B-5,891.0,0.25,81,128.72
3850,F3,891.0,0.25,48,128.72
3851,F5,891.25,0.25,75,128.72
3852,D4,891.25,0.25,44,128.72
3853,D5,891.5,0.25,71,128.72
3854,B-3,891.5,0.25,46,128.72
3855,B-4,891.75,0.25,69,128.72
3856,D4,891.75,0.25,43,128.72
3857,C5,892.0,167/1000,51,128.72
3858,F3,892.0,0.25,48,128.72
3859,D5,892.167,167/1000,46,128.72
3860,E-4,892.25,0.25,40,128.72
3861,C5,892.333,167/1000,51,128.72
3862,D5,892.5,167/1000,46,128.72
3863,A3,892.5,0.25,43,128.72
3864,C5,892.667,167/1000,51,128.72
3865,E-4,892.75,0.25,40,128.72
3866,D5,892.833,167/1000,46,128.72
3867,C5,893.0,167/1000,51,128.72
3868,F3,893.0,0.25,48,128.72
3869,D5,893.167,167/1000,46,128.72
3870,E-4,893.25,0.25,39,128.72
3871,C5,893.333,167/1000,51,128.72
3872,D5,893.5,167/1000,46,128.72
3873,A3,893.5,0.25,43,128.72
3874,C5,893.667,167/1000,51,128.72
3875,E-4,893.75,0.25,39,128.72
3876,D5,893.833,167/1000,46,128.72
3877,C5,894.0,167/1000,51,128.72
3878,F3,894.0,0.25,48,128.72
3879,D5,894.167,167/1000,46,128.72
3880,E-4,894.25,0.25,39,128.72
3881,C5,894.333,167/1000,51,128.72
3882,D5,894.5,167/1000,48,128.72
3883,A3,894.5,0.25,43,128.72
3884,C5,894.667,167/1000,51,128.72
3885,E-4,894.75,0.25,38,128.72
3886,D5,894.833,167/1000,47,128.72
3887,C5,895.0,0.125,51,128.72
3888,F3,895.0,0.25,48,128.72
3889,D5,895.125,0.125,48,128.72
3890,C5,895.25,0.125,51,128.72
3891,E-4,895.25,0.25,42,128.72
3892,D5,895.375,0.125,47,128.72
3893,C5,895.5,83/1000,51,128.72
3894,A3,895.5,0.25,45,128.72
3895,D5,895.583,83/1000,48,128.72
3896,C5,895.667,83/1000,48,128.72
3897,B-4,895.75,0.125,62,128.72
3898,E-4,895.75,0.25,40,128.72
3899,C5,895.875,0.125,58,128.72
3900,B-4,896.0,123/250,69,128.72
3901,B-3,896.0,0.5,51,128.72
3902,B-5,896.5,0.5,54,128.72
3903,B-4,896.5,0.5,44,128.72
3904,A4,897.0,0.5,44,128.72
3905,B-5,897.5,0.5,58,128.72
3906,B-4,897.5,0.5,48,128.72
3907,A5,898.0,0.5,56,128.72
3908,C5,898.0,0.5,49,128.72
3909,B-5,898.5,0.5,61,128.72
3910,B-4,898.5,0.5,52,128.72
3911,C6,899.0,0.5,68,128.72
3912,A4,899.0,0.5,56,128.72
3913,D6,899.5,0.5,72,128.72
3914,G#4,899.5,0.5,59,128.72
3915,E-6,900.0,0.25,79,128.72
3916,G4,900.0,0.5,64,128.72
3917,D6,900.25,0.25,73,128.72
3918,E-6,900.5,0.25,76,128.72
3919,B-3,900.5,0.5,49,128.72
3920,D6,900.75,0.25,70,128.72
3921,E-6,901.0,0.25,75,128.72
3922,F#4,901.0,0.5,58,128.72
3923,C#6,901.25,0.25,67,128.72
3924,C6,901.5,0.25,69,128.72
3925,B-3,901.5,0.5,49,128.72
3926,B-5,901.75,0.25,65,128.72
3927,A5,902.0,0.25,67,128.72
3928,F4,902.0,0.5,57,128.72
3929,B-5,902.25,0.25,70,128.72
3930,C6,902.5,0.25,72,128.72
3931,B-3,902.5,0.5,48,128.72
3932,B-5,902.75,0.25,67,128.72
3933,A5,903.0,0.25,69,128.72
3934,A4,903.0,0.5,55,128.72
3935,G5,903.25,0.25,66,128.72
3936,F5,903.5,0.25,66,128.72
3937,B-3,903.5,0.5,48,128.72
3938,E-5,903.75,0.25,65,128.72
3939,D5,904.0,0.25,63,128.72
3940,B-4,904.0,0.25,53,128.72
3941,D5,904.5,0.25,49,128.72
3942,B-3,904.5,0.5,41,128.72
3943,A3,905.0,0.5,41,128.72
3944,B-4,905.5,0.5,53,128.72
3945,B-3,905.5,0.5,37,128.72
3946,A4,906.0,0.5,49,128.72
3947,C4,906.0,0.5,45,128.72
3948,B-4,906.5,0.5,49,128.72
3949,B-3,906.5,0.5,43,128.72
3950,C5,907.0,0.5,49,128.72
3951,A3,907.0,0.5,43,128.72
3952,D5,907.5,0.5,49,128.72
3953,G#3,907.5,0.5,38,128.72
3954,E-5,908.0,0.25,52,128.72
3955,G3,908.0,1.0,45,128.72
3956,F5,908.5,0.125,52,128.72
3957,E-5,908.625,0.125,49,128.72
3958,D5,908.75,0.125,52,128.72
3959,E-5,908.875,0.125,48,128.72
3960,F5,909.0,0.5,54,128.72
3961,E-3,909.0,1.0,35,128.72
3962,G5,909.5,479/1000,61,128.72
3963,F3,910.0,1.0,35,128.72
3964,E-5,910.0,0.5,49,128.72
3965,G5,910.0,0.5,49,128.72
3966,D5,910.5,0.5,42,128.72
3967,F5,910.5,0.5,42,128.72
3968,F3,911.0,1.0,35,128.72
3969,E-4,911.5,0.5,30,128.72
3970,A4,911.5,0.5,30,128.72
3971,B-3,912.0,1.0,37,128.72
3972,E-4,912.0,2.0,45,128.72
3973,C5,912.0,2.0,45,128.72
3974,F3,913.0,1.0,28,128.72
3975,B-2,914.0,0.75,28,128.72
3976,D4,914.0,0.75,32,128.72
3977,B-4,914.0,0.75,32,128.72
3978,D5,915.0,0.25,57,128.72
3979,C5,915.25,0.25,56,128.72
3980,B-4,915.5,0.25,54,128.72
3981,A4,915.75,0.25,52,128.72
3982,G4,916.0,0.5,60,128.72
3983,F4,916.5,479/1000,47,128.72
3984,F2,916.5,0.5,33,128.72
3985,F4,917.0,1.5,47,128.72
3986,A2,917.0,0.5,35,128.72
3987,C3,917.5,0.5,33,128.72
3988,A2,918.0,0.5,38,128.72
3989,F5,918.5,0.5,52,128.72
3990,F2,918.5,0.5,32,128.72
3991,G5,919.0,0.5,57,128.72
3992,A2,919.0,0.5,34,128.72
3993,A5,919.5,0.5,61,128.72
3994,C3,919.5,0.5,32,128.72
3995,E5,919.875,0.125,55,128.72
3996,B-5,920.0,0.75,69,128.72
3997,G3,920.5,0.5,32,128.72
3998,G5,920.75,0.25,64,128.72
3999,E5,921.0,1.0,56,128.72
4000,B-3,921.0,0.5,35,128.72
4001,E4,921.5,0.5,33,128.72
4002,B-3,922.0,0.5,34,128.72
4003,G3,922.5,0.5,30,128.72
4004,C5,923.0,0.25,48,128.72
4005,B-3,923.0,0.5,34,128.72
4006,B-4,923.25,0.25,48,128.72
4007,A4,923.5,0.25,48,128.72
4008,E4,923.5,0.5,30,128.72
4009,G4,923.75,0.25,46,128.72
4010,F4,924.0,0.5,53,128.72
4011,E4,924.5,479/1000,47,128.72
4012,G2,924.5,0.5,32,128.72
4013,E4,925.0,1.5,47,128.72
4014,B-2,925.0,0.5,35,128.72
4015,E3,925.5,0.5,32,128.72
4016,B-2,926.0,0.5,39,128.72
4017,G5,926.5,0.5,53,128.72
4018,G2,926.5,0.5,33,128.72
4019,A5,927.0,0.5,58,128.72
4020,B-2,927.0,0.5,35,128.72
4021,B-5,927.5,0.5,63,128.72
4022,E3,927.5,0.5,33,128.72
4023,F#5,927.875,0.125,52,128.72
4024,C6,928.0,0.75,68,128.72
4025,A3,928.5,0.5,33,128.72
4026,A5,928.75,0.25,65,128.72
4027,F#5,929.0,1.0,57,128.72
4028,C4,929.0,0.5,35,128.72
4029,E-4,929.5,0.5,34,128.72
4030,C4,930.0,0.5,37,128.72
4031,A5,930.5,0.5,60,128.72
4032,A3,930.5,0.5,32,128.72
4033,B-5,931.0,0.5,64,128.72
4034,C4,931.0,0.5,34,128.72
4035,C6,931.5,0.5,69,128.72
4036,E-4,931.5,0.5,34,128.72
4037,G5,931.875,0.125,66,128.72
4038,D6,932.0,0.75,84,128.72
4039,B-2,932.5,0.5,41,128.72
4040,B-5,932.75,0.25,77,128.72
4041,G5,933.0,0.5,72,128.72
4042,D3,933.0,0.5,47,128.72
4043,G3,933.5,0.5,44,128.72
4044,E5,933.875,0.125,71,128.72
4045,B-5,934.0,0.75,85,128.72
4046,C3,934.5,0.5,46,128.72
4047,G5,934.75,0.25,76,128.72
4048,E5,935.0,0.5,72,128.72
4049,G3,935.0,0.5,49,128.72
4050,B-3,935.5,0.5,46,128.72
4051,B4,935.875,0.125,68,128.72
4052,F5,936.0,0.75,79,128.72
4053,D3,936.5,0.5,48,128.72
4054,D5,936.75,0.25,73,128.72
4055,B4,937.0,1.0,69,128.72
4056,F3,937.0,0.5,50,128.72
4057,G#3,937.5,0.5,45,128.72
4058,F3,938.0,0.5,52,128.72
4059,B4,938.5,479/1000,68,128.72
4060,D3,938.5,0.5,49,128.72
4061,B4,939.0,479/1000,69,128.72
4062,F3,939.0,0.5,53,128.72
4063,B4,939.5,479/1000,67,128.72
4064,G#3,939.5,0.5,50,128.72
4065,C5,940.0,0.25,76,128.72
4066,C3,940.0,2.0,63,128.72
4067,A3,940.0,2.0,63,128.72
4068,A5,940.25,0.25,69,128.72
4069,F5,940.5,0.25,72,128.72
4070,C5,940.75,0.25,70,128.72
4071,A4,941.0,0.25,76,128.72
4072,F5,941.25,0.25,70,128.72
4073,C5,941.5,0.25,72,128.72
4074,A4,941.75,47/200,67,128.72
4075,C4,942.0,1.0,48,128.72
4076,A4,942.0,0.5,66,128.72
4077,C5,942.0,0.5,66,128.72
4078,G4,942.5,0.5,58,128.72
4079,B-4,942.5,0.5,58,128.72
4080,C3,943.0,1.0,45,128.72
4081,F4,943.0,0.25,56,128.72
4082,A4,943.0,0.25,56,128.72
4083,E4,943.5,0.25,54,128.72
4084,G4,943.5,0.25,54,128.72
4085,F4,944.0,1.0,54,128.72
4086,F3,944.0,0.25,41,128.72
4087,C4,944.25,0.25,34,128.72
4088,G#3,944.5,0.25,37,128.72
4089,C4,944.75,0.25,34,128.72
4090,F3,945.0,3/10,41,128.72
4091,C4,945.25,3/10,34,128.72
4092,G#3,945.5,3/10,37,128.72
4093,C4,945.75,3/10,34,128.72
4094,F3,946.0,3/10,46,128.72
4095,F4,946.25,0.25,54,128.72
4096,C4,946.25,3/10,36,128.72
4097,G4,946.5,0.25,58,128.72
4098,G#3,946.5,3/10,41,128.72
4099,G#4,946.75,0.25,61,128.72
4100,C4,946.75,3/10,37,128.72
4101,B-4,947.0,0.25,63,128.72
4102,F3,947.0,3/10,49,128.72
4103,C5,947.25,0.25,65,128.72
4104,C4,947.25,3/10,39,128.72
4105,D5,947.5,0.25,68,128.72
4106,G#3,947.5,3/10,44,128.72
4107,E5,947.75,0.25,71,128.72
4108,C4,947.75,0.25,39,128.72
4109,F5,948.0,0.25,75,128.72
4110,F3,948.0,3/10,49,128.72
4111,C4,948.0,1/20,39,128.72
4112,C5,948.25,0.25,71,128.72
4113,C4,948.25,3/10,43,128.72
4114,G#5,948.5,0.25,75,128.72
4115,G#3,948.5,3/10,45,128.72
4116,G5,948.75,0.25,72,128.72
4117,C4,948.75,3/10,43,128.72
4118,F5,949.0,0.25,75,128.72
4119,F3,949.0,3/10,49,128.72
4120,C5,949.25,0.25,71,128.72
4121,C4,949.25,3/10,43,128.72
4122,G#5,949.5,0.25,72,128.72
4123,G#3,949.5,3/10,45,128.72
4124,G5,949.75,0.25,70,128.72
4125,C4,949.75,3/10,43,128.72
4126,F5,950.0,3/10,72,128.72
4127,F3,950.0,3/10,48,128.72
4128,G5,950.25,3/10,67,128.72
4129,D4,950.25,3/10,39,128.72
4130,E-5,950.5,3/10,71,128.72
4131,G#3,950.5,3/10,45,128.72
4132,F5,950.75,3/10,64,128.72
4133,D4,950.75,3/10,40,128.72
4134,D5,951.0,3/10,70,128.72
4135,F3,951.0,3/10,47,128.72
4136,E-5,951.25,3/10,63,128.72
4137,D4,951.25,3/10,40,128.72
4138,C5,951.5,3/10,68,128.72
4139,G#3,951.5,3/10,45,128.72
4140,D5,951.75,0.25,64,128.72
4141,D4,951.75,0.25,40,128.72
4142,B4,952.0,0.5,67,128.72
4143,D5,952.0,1/20,64,128.72
4144,G3,952.0,0.25,54,128.72
4145,D4,952.0,1/20,40,128.72
4146,F4,952.25,0.25,46,128.72
4147,F6,952.5,1.0,90,128.72
4148,D4,952.5,0.25,48,128.72
4149,F4,952.75,0.25,45,128.72
4150,G3,953.0,0.25,54,128.72
4151,F4,953.25,0.25,45,128.72
4152,E-6,953.5,1.0,89,128.72
4153,D4,953.5,0.25,48,128.72
4154,F4,953.75,0.25,45,128.72
4155,G3,954.0,0.25,54,128.72
4156,F4,954.25,0.25,46,128.72
4157,D6,954.5,1.0,88,128.72
4158,D4,954.5,0.25,48,128.72
4159,F4,954.75,0.25,45,128.72
4160,G3,955.0,0.25,52,128.72
4161,F4,955.25,0.25,45,128.72
4162,C6,955.5,0.5,87,128.72
4163,D4,955.5,0.25,48,128.72
4164,F4,955.75,0.25,45,128.72
4165,C6,956.0,0.5,87,128.72
4166,G3,956.0,0.25,53,128.72
4167,F4,956.25,0.25,45,128.72
4168,B5,956.5,1.0,84,128.72
4169,D4,956.5,0.25,48,128.72
4170,F4,956.75,0.25,45,128.72
4171,G3,957.0,0.25,53,128.72
4172,F4,957.25,0.25,45,128.72
4173,G#5,957.5,1.0,78,128.72
4174,D4,957.5,0.25,48,128.72
4175,F4,957.75,0.25,45,128.72
4176,G3,958.0,0.25,53,128.72
4177,D4,958.25,0.25,46,128.72
4178,G5,958.5,1.0,83,128.72
4179,B3,958.5,0.25,48,128.72
4180,D4,958.75,0.25,45,128.72
4181,G3,959.0,0.25,53,128.72
4182,D4,959.25,0.25,45,128.72
4183,F5,959.5,479/1000,78,128.72
4184,B3,959.5,0.25,48,128.72
4185,D4,959.75,0.25,45,128.72
4186,F5,960.0,0.5,80,128.72
4187,G3,960.0,0.25,48,128.72
4188,E4,960.25,0.25,39,128.72
4189,E5,960.5,0.5,77,128.72
4190,C4,960.5,0.25,44,128.72
4191,E4,960.75,0.25,39,128.72
4192,E-5,961.0,1.0,67,128.72
4193,G3,961.0,0.25,48,128.72
4194,E-4,961.25,0.25,41,128.72
4195,C4,961.5,0.25,44,128.72
4196,E-4,961.75,0.25,41,128.72
4197,G3,962.0,3/10,48,128.72
4198,E-5,962.25,3/10,65,128.72
4199,E-4,962.25,3/10,40,128.72
4200,D5,962.5,3/10,68,128.72
4201,C4,962.5,3/10,44,128.72
4202,E-5,962.75,3/10,66,128.72
4203,E-4,962.75,3/10,38,128.72
4204,F5,963.0,3/10,68,128.72
4205,G3,963.0,3/10,48,128.72
4206,E-5,963.25,3/10,66,128.72
4207,E-4,963.25,3/10,40,128.72
4208,D5,963.5,3/10,68,128.72
4209,C4,963.5,3/10,45,128.72
4210,E-5,963.75,0.25,65,128.72
4211,E-4,963.75,0.25,40,128.72
4212,F#5,964.0,0.75,77,128.72
4213,E-5,964.0,1/20,65,128.72
4214,F#3,964.0,0.25,54,128.72
4215,E-4,964.0,1/20,40,128.72
4216,E-4,964.25,0.25,40,128.72
4217,B-3,964.5,0.25,44,128.72
4218,E-5,964.75,229/1000,69,128.72
4219,E-4,964.75,0.25,41,128.72
4220,E-5,965.0,0.125,65,128.72
4221,F#3,965.0,0.25,49,128.72
4222,F5,965.125,0.125,62,128.72
4223,E-5,965.25,0.125,65,128.72
4224,E-4,965.25,0.25,42,128.72
4225,F5,965.375,0.125,63,128.72
4226,E-5,965.5,83/1000,66,128.72
4227,B-3,965.5,0.25,45,128.72
4228,F5,965.583,83/1000,64,128.72
4229,E-5,965.667,83/1000,64,128.72
4230,D5,965.75,0.125,71,128.72
4231,E-4,965.75,0.25,40,128.72
4232,E-5,965.875,0.125,69,128.72
4233,B-5,966.0,0.75,78,128.72
4234,F#3,966.0,0.25,54,128.72
4235,E-4,966.25,0.25,42,128.72
4236,B-3,966.5,0.25,45,128.72
4237,E-5,966.75,229/1000,68,128.72
4238,E-4,966.75,0.25,42,128.72
4239,E-5,967.0,0.125,64,128.72
4240,F#3,967.0,0.25,48,128.72
4241,F5,967.125,0.125,62,128.72
4242,E-5,967.25,0.125,64,128.72
4243,E-4,967.25,0.25,40,128.72
4244,F5,967.375,0.125,62,128.72
4245,E-5,967.5,83/1000,64,128.72
4246,B-3,967.5,0.25,45,128.72
4247,F5,967.583,83/1000,63,128.72
4248,E-5,967.667,83/1000,63,128.72
4249,D5,967.75,0.125,71,128.72
4250,E-4,967.75,0.25,40,128.72
4251,E-5,967.875,0.125,68,128.72
4252,A5,968.0,0.25,81,128.72
4253,F3,968.0,0.25,49,128.72
4254,E-4,968.25,0.25,40,128.72
4255,C6,968.5,0.25,85,128.72
4256,C4,968.5,0.25,45,128.72
4257,E-4,968.75,0.25,41,128.72
4258,E-6,969.0,1.25,89,128.72
4259,F3,969.0,0.25,50,128.72
4260,E-4,969.25,0.25,42,128.72
4261,C4,969.5,0.25,45,128.72
4262,E-4,969.75,0.25,40,128.72
4263,F3,970.0,3/10,50,128.72
4264,F6,970.25,3/10,71,128.72
4265,E-4,970.25,3/10,43,128.72
4266,D6,970.5,3/10,77,128.72
4267,C4,970.5,3/10,48,128.72
4268,E-6,970.75,3/10,71,128.72
4269,E-4,970.75,3/10,43,128.72
4270,C6,971.0,3/10,77,128.72
4271,F3,971.0,3/10,54,128.72
4272,D6,971.25,3/10,71,128.72
4273,E-4,971.25,3/10,45,128.72
4274,B-5,971.5,3/10,77,128.72
4275,C4,971.5,3/10,48,128.72
4276,C6,971.75,0.25,71,128.72
4277,E-4,971.75,0.25,45,128.72
4278,A5,972.0,3/10,72,128.72
4279,C6,972.0,1/20,71,128.72
4280,F3,972.0,3/10,54,128.72
4281,E-4,972.0,1/20,45,128.72
4282,B-5,972.25,3/10,73,128.72
4283,E-4,972.25,3/10,45,128.72
4284,C6,972.5,3/10,77,128.72
4285,C4,972.5,3/10,48,128.72
4286,B-5,972.75,3/10,72,128.72
4287,E-4,972.75,3/10,44,128.72
4288,A5,973.0,3/10,71,128.72
4289,F3,973.0,3/10,54,128.72
4290,B-5,973.25,3/10,72,128.72
4291,E-4,973.25,3/10,45,128.72
4292,C6,973.5,3/10,73,128.72
4293,C4,973.5,3/10,48,128.72
4294,D6,973.75,3/10,70,128.72
4295,E-4,973.75,3/10,44,128.72
4296,E-6,974.0,3/10,75,128.72
4297,F3,974.0,3/10,52,128.72
4298,D6,974.25,3/10,70,128.72
4299,C4,974.25,3/10,44,128.72
4300,C6,974.5,3/10,72,128.72
4301,A3,974.5,3/10,48,128.72
4302,B-5,974.75,3/10,72,128.72
4303,C4,974.75,3/10,44,128.72
4304,A5,975.0,3/10,71,128.72
4305,F3,975.0,3/10,53,128.72
4306,G5,975.25,3/10,70,128.72
4307,C4,975.25,3/10,44,128.72
4308,F5,975.5,3/10,69,128.72
4309,A3,975.5,3/10,47,128.72
4310,E-5,975.75,227/1000,68,128.72
4311,C4,975.75,0.25,44,128.72
4312,E-5,976.0,0.125,68,128.72
4313,F#3,976.0,0.25,44,128.72
4314,C4,976.0,1/20,44,128.72
4315,F5,976.125,0.125,64,128.72
4316,E-5,976.25,83/1000,65,128.72
4317,C4,976.25,0.25,39,128.72
4318,F5,976.333,83/1000,63,128.72
4319,E-5,976.417,83/1000,63,128.72
4320,D5,976.5,0.5,68,128.72
4321,A3,976.5,3/10,40,128.72
4322,C4,976.75,3/10,35,128.72
4323,D5,977.0,1.5,68,128.72
4324,F#3,977.0,0.25,44,128.72
4325,C4,977.25,0.25,33,128.72
4326,A3,977.5,0.25,39,128.72
4327,C4,977.75,0.25,34,128.72
4328,F#3,978.0,0.25,44,128.72
4329,C4,978.25,0.25,33,128.72
4330,D5,978.5,0.5,72,128.72
4331,A3,978.5,0.25,39,128.72
4332,C4,978.75,0.25,33,128.72
4333,D6,979.0,0.5,81,128.72
4334,F#3,979.0,0.25,44,128.72
4335,D4,979.25,0.25,35,128.72
4336,C6,979.5,0.5,77,128.72
4337,A3,979.5,0.25,39,128.72
4338,D4,979.75,0.25,34,128.72
4339,C6,980.0,0.5,77,128.72
4340,G3,980.0,0.25,48,128.72
4341,D4,980.25,0.25,39,128.72
4342,B-5,980.5,1.0,78,128.72
4343,B-3,980.5,0.25,44,128.72
4344,D4,980.75,0.25,39,128.72
4345,F3,981.0,0.25,48,128.72
4346,D4,981.25,0.25,38,128.72
4347,A5,981.5,0.75,77,128.72
4348,A3,981.5,0.25,44,128.72
4349,D4,981.75,0.25,38,128.72
4350,E3,982.0,3/10,48,128.72
4351,G5,982.25,3/10,70,128.72
4352,D4,982.25,3/10,38,128.72
4353,B-5,982.5,3/10,73,128.72
4354,G3,982.5,3/10,44,128.72
4355,A5,982.75,3/10,70,128.72
4356,D4,982.75,3/10,37,128.72
4357,C6,983.0,3/10,73,128.72
4358,E-3,983.0,3/10,48,128.72
4359,B-5,983.25,3/10,69,128.72
4360,C#4,983.25,3/10,38,128.72
4361,A5,983.5,3/10,73,128.72
4362,G3,983.5,3/10,44,128.72
4363,G5,983.75,0.25,67,128.72
4364,C#4,983.75,0.25,39,128.72
4365,F#5,984.0,0.125,71,128.72
4366,G5,984.0,1/20,67,128.72
4367,C#4,984.0,1/20,39,128.72
4368,D3,984.0,1.0,38,128.72
4369,D4,984.0,1.0,38,128.72
4370,D5,984.25,0.25,58,128.72
4371,D6,984.5,0.25,57,128.72
4372,C#6,984.75,0.25,57,128.72
4373,D6,985.0,0.25,56,128.72
4374,C#6,985.25,0.25,56,128.72
4375,D6,985.5,0.25,57,128.72
4376,C#6,985.75,0.25,58,128.72
4377,D6,986.0,0.25,59,128.72
4378,E-6,986.25,0.25,59,128.72
4379,C6,986.5,0.25,60,128.72
4380,D6,986.75,0.25,58,128.72
4381,B-5,987.0,0.25,62,128.72
4382,D4,987.0,1.0,45,128.72
4383,F#4,987.0,1.0,45,128.72
4384,C6,987.25,0.25,60,128.72
4385,A5,987.5,0.25,63,128.72
4386,B-5,987.75,0.25,61,128.72
4387,G5,988.0,3/10,64,128.72
4388,E-4,988.0,1.0,45,128.72
4389,G4,988.0,1.0,45,128.72
4390,A5,988.25,3/10,63,128.72
4391,F5,988.5,3/10,66,128.72
4392,G5,988.75,3/10,63,128.72
4393,E-5,989.0,3/10,67,128.72
4394,F5,989.25,3/10,62,128.72
4395,D5,989.5,3/10,69,128.72
4396,E-5,989.75,3/10,64,128.72
4397,C#5,990.0,0.25,70,128.72
4398,B-5,990.5,0.5,69,128.72
4399,A5,991.0,0.5,70,128.72
4400,E-3,991.0,1.0,54,128.72
4401,C#4,991.0,1.0,54,128.72
4402,G5,991.5,0.5,68,128.72
4403,F#5,992.0,0.125,71,128.72
4404,D3,992.0,1.0,49,128.72
4405,D4,992.0,1.0,49,128.72
4406,C#5,992.25,0.25,52,128.72
4407,D5,992.5,0.25,57,128.72
4408,C#5,992.75,0.25,52,128.72
4409,D5,993.0,0.25,57,128.72
4410,C#5,993.25,0.25,53,128.72
4411,D5,993.5,0.25,57,128.72
4412,C#5,993.75,0.25,53,128.72
4413,D5,994.0,0.25,54,128.72
4414,E-5,994.25,0.25,51,128.72
4415,C5,994.5,0.25,53,128.72
4416,D5,994.75,0.25,49,128.72
4417,B-4,995.0,0.25,52,128.72
4418,D3,995.0,1.0,45,128.72
4419,C4,995.0,1.0,45,128.72
4420,C5,995.25,0.25,49,128.72
4421,A4,995.5,0.25,50,128.72
4422,B-4,995.75,0.25,46,128.72
4423,G4,996.0,3/10,48,128.72
4424,E-3,996.0,1.0,42,128.72
4425,B-3,996.0,1.0,42,128.72
4426,A4,996.25,3/10,46,128.72
4427,F4,996.5,3/10,46,128.72
4428,G4,996.75,3/10,45,128.72
4429,E-4,997.0,3/10,45,128.72
4430,F4,997.25,3/10,44,128.72
4431,D4,997.5,3/10,43,128.72
4432,E-4,997.75,3/10,42,128.72
4433,C#4,998.0,0.25,41,128.72
4434,G4,998.5,0.5,41,128.72
4435,B-4,999.0,0.5,45,128.72
4436,E-3,999.0,1.0,32,128.72
4437,G3,999.0,1.0,32,128.72
4438,C#4,999.5,0.5,42,128.72
4439,D4,1000.0,0.25,39,128.72
4440,D3,1000.0,0.5,24,128.72
4441,F#3,1000.0,0.5,24,128.72
4442,D5,1000.5,0.25,46,128.72
4443,D3,1001.0,0.5,27,128.72
4444,G3,1001.0,0.5,27,128.72
4445,B-3,1001.0,0.5,27,128.72
4446,D5,1001.5,0.5,49,128.72
4447,D3,1002.0,0.5,28,128.72
4448,F#3,1002.0,0.5,28,128.72
4449,A3,1002.0,0.5,28,128.72
4450,D5,1002.5,0.5,46,128.72
4451,D3,1003.0,0.5,32,128.72
4452,G3,1003.0,0.5,32,128.72
4453,B-3,1003.0,0.5,32,128.72
4454,D5,1003.5,0.5,48,128.72
4455,D3,1004.0,1.0,34,128.72
4456,F#3,1004.0,1.0,34,128.72
4457,A3,1004.0,1.0,34,128.72
4458,D5,1004.5,0.5,43,128.72
4459,C#5,1005.0,0.5,46,128.72
4460,D5,1005.5,0.5,49,128.72
4461,C#5,1006.0,0.5,53,128.72
4462,D5,1006.5,0.5,56,128.72
4463,C#5,1007.0,0.5,60,128.72
4464,D5,1007.5,0.5,63,128.72
4465,F5,1008.0,1.0,66,128.72
4466,C4,1008.5,0.5,31,128.72
4467,F4,1008.5,0.5,31,128.72
4468,A4,1008.5,0.5,31,128.72
4469,E-5,1009.0,1.0,64,128.72
4470,C4,1009.0,0.5,34,128.72
4471,F4,1009.0,0.5,34,128.72
4472,A4,1009.0,0.5,34,128.72
4473,C4,1009.5,0.5,37,128.72
4474,F4,1009.5,0.5,37,128.72
4475,A4,1009.5,0.5,37,128.72
4476,C4,1010.0,1.0,41,128.72
4477,F4,1010.0,1.0,41,128.72
4478,A4,1010.0,1.0,41,128.72
4479,E-5,1010.25,0.25,53,128.72
4480,D5,1010.5,0.25,56,128.72
4481,E-5,1010.75,0.25,53,128.72
4482,F5,1011.0,0.25,56,128.72
4483,E-5,1011.25,0.25,54,128.72
4484,D5,1011.5,0.25,56,128.72
4485,E-5,1011.75,0.25,53,128.72
4486,B-5,1012.0,1.0,70,128.72
4487,F4,1012.5,0.5,33,128.72
4488,C5,1012.5,0.5,33,128.72
4489,E-5,1012.5,0.5,33,128.72
4490,A5,1013.0,1.0,66,128.72
4491,F4,1013.0,0.5,37,128.72
4492,C5,1013.0,0.5,37,128.72
4493,E-5,1013.0,0.5,37,128.72
4494,F4,1013.5,0.5,41,128.72
4495,C5,1013.5,0.5,41,128.72
4496,E-5,1013.5,0.5,41,128.72
4497,F4,1014.0,1.0,44,128.72
4498,C5,1014.0,1.0,44,128.72
4499,E-5,1014.0,1.0,44,128.72
4500,A5,1014.25,0.25,61,128.72
4501,G5,1014.5,0.25,63,128.72
4502,A5,1014.75,0.25,61,128.72
4503,B-5,1015.0,0.25,63,128.72
4504,A5,1015.25,0.25,61,128.72
4505,G5,1015.5,0.25,63,128.72
4506,A5,1015.75,0.25,61,128.72
4507,F6,1016.0,1.0,77,128.72
4508,F4,1016.5,0.5,47,128.72
4509,E-6,1017.0,1.0,75,128.72
4510,C5,1017.0,0.5,45,128.72
4511,E-5,1017.5,0.5,45,128.72
4512,F#4,1018.0,2.0,47,128.72
4513,E-6,1018.25,0.25,66,128.72
4514,D6,1018.5,0.25,68,128.72
4515,E-6,1018.75,0.25,65,128.72
4516,F6,1019.0,0.25,68,128.72
4517,E-6,1019.25,0.25,65,128.72
4518,C#6,1019.5,0.25,68,128.72
4519,C6,1019.75,0.25,65,128.72
4520,B-5,1020.0,1.0,77,128.72
4521,F4,1020.5,0.5,38,128.72
4522,A5,1021.0,1.0,69,128.72
4523,C5,1021.0,0.5,41,128.72
4524,E-5,1021.5,0.5,37,128.72
4525,F#4,1022.0,2.0,49,128.72
4526,E-6,1022.25,3/10,67,128.72
4527,D6,1022.5,3/10,69,128.72
4528,E-6,1022.75,3/10,66,128.72
4529,F6,1023.0,3/10,70,128.72
4530,E-6,1023.25,3/10,67,128.72
4531,C#6,1023.5,3/10,68,128.72
4532,C6,1023.75,0.25,67,128.72
4533,B-5,1024.0,3/10,66,128.72
4534,F4,1024.0,0.5,46,128.72
4535,A5,1024.25,3/10,65,128.72
4536,E-6,1024.5,3/10,69,128.72
4537,D6,1024.75,3/10,66,128.72
4538,F6,1025.0,3/10,71,128.72
4539,F#4,1025.0,1.0,52,128.72
4540,C5,1025.0,2.0,52,128.72
4541,E-5,1025.0,2.0,52,128.72
4542,E-6,1025.25,3/10,68,128.72
4543,C#6,1025.5,3/10,69,128.72
4544,C6,1025.75,3/10,67,128.72
4545,B-5,1026.0,3/10,66,128.72
4546,F4,1026.0,1.0,49,128.72
4547,A5,1026.25,3/10,65,128.72
4548,E-6,1026.5,3/10,70,128.72
4549,D6,1026.75,3/10,67,128.72
4550,F6,1027.0,3/10,71,128.72
4551,F#4,1027.0,1.0,53,128.72
4552,C5,1027.0,1.0,53,128.72
4553,E-5,1027.0,1.0,53,128.72
4554,E-6,1027.25,3/10,68,128.72
4555,C#6,1027.5,3/10,70,128.72
4556,C6,1027.75,0.25,69,128.72
4557,B-5,1028.0,3/10,68,128.72
4558,F4,1028.0,1.0,50,128.72
4559,C5,1028.0,1.0,53,128.72
4560,E-5,1028.0,1.0,53,128.72
4561,A5,1028.25,3/10,67,128.72
4562,C6,1028.5,3/10,68,128.72
4563,B5,1028.75,3/10,64,128.72
4564,D6,1029.0,3/10,68,128.72
4565,C6,1029.25,3/10,67,128.72
4566,B-5,1029.5,3/10,65,128.72
4567,A5,1029.75,3/10,63,128.72
4568,G5,1030.0,3/10,63,128.72
4569,F5,1030.25,3/10,61,128.72
4570,G5,1030.5,3/10,59,128.72
4571,F#5,1030.75,3/10,58,128.72
4572,A5,1031.0,3/10,59,128.72
4573,G5,1031.25,3/10,57,128.72
4574,F5,1031.5,3/10,56,128.72
4575,E-5,1031.75,0.25,54,128.72
4576,D5,1032.0,0.5,52,128.72
4577,C5,1032.5,0.5,52,128.72
4578,D5,1033.0,0.25,54,128.72
4579,E-5,1033.5,0.25,56,128.72
4580,E5,1034.0,0.25,58,128.72
4581,F5,1034.5,0.25,61,128.72
4582,G5,1035.0,0.25,57,128.72
4583,F5,1035.25,0.25,56,128.72
4584,E-5,1035.5,0.25,54,128.72
4585,D5,1035.75,0.25,52,128.72
4586,C5,1036.0,0.5,60,128.72
4587,B-4,1036.5,479/1000,54,128.72
4588,B-3,1036.5,0.5,37,128.72
4589,B-4,1037.0,1.5,51,128.72
4590,D4,1037.0,0.5,37,128.72
4591,F4,1037.5,0.5,33,128.72
4592,D4,1038.0,0.5,36,128.72
4593,D5,1038.5,0.5,57,128.72
4594,B-3,1038.5,0.5,33,128.72
4595,G5,1039.0,0.5,60,128.72
4596,D4,1039.0,0.5,41,128.72
4597,D5,1039.5,0.5,55,128.72
4598,G4,1039.5,0.5,38,128.72
4599,F5,1040.0,1.0,60,128.72
4600,C4,1040.5,0.5,34,128.72
4601,E-5,1041.0,1.5,56,128.72
4602,E-4,1041.0,0.5,39,128.72
4603,G4,1041.5,0.5,36,128.72
4604,E-4,1042.0,0.5,44,128.72
4605,F5,1042.5,0.25,60,128.72
4606,C4,1042.5,0.5,37,128.72
4607,G5,1042.75,0.25,56,128.72
4608,F5,1043.0,0.25,61,128.72
4609,E-4,1043.0,0.5,38,128.72
4610,E-5,1043.25,0.25,54,128.72
4611,D5,1043.5,0.25,58,128.72
4612,G4,1043.5,0.5,34,128.72
4613,C5,1043.75,0.25,53,128.72
4614,B-4,1044.0,1.0,66,128.72
4615,F3,1044.5,0.5,35,128.72
4616,A4,1045.0,297/200,57,128.72
4617,C4,1045.0,0.5,35,128.72
4618,E-4,1045.5,0.5,34,128.72
4619,C4,1046.0,0.5,47,128.72
4620,A4,1046.5,0.5,62,128.72
4621,F3,1046.5,0.5,36,128.72
4622,B-4,1047.0,0.5,65,128.72
4623,C4,1047.0,0.5,43,128.72
4624,C5,1047.5,479/1000,61,128.72
4625,E-4,1047.5,0.5,36,128.72
4626,A4,1048.0,1.0,56,128.72
4627,C5,1048.0,1.0,56,128.72
4628,B-3,1048.5,0.5,42,128.72
4629,D4,1049.0,0.5,42,128.72
4630,B-4,1049.0,1.0,54,128.72
4631,D5,1049.0,1.0,54,128.72
4632,F4,1049.5,0.5,36,128.72
4633,D4,1050.0,0.5,45,128.72
4634,F5,1050.5,0.25,64,128.72
4635,B-3,1050.5,0.5,42,128.72
4636,E5,1050.75,0.25,63,128.72
4637,G5,1051.0,0.25,66,128.72
4638,D4,1051.0,0.5,42,128.72
4639,F5,1051.25,0.25,63,128.72
4640,E-5,1051.5,0.25,63,128.72
4641,F4,1051.5,0.5,39,128.72
4642,D5,1051.75,229/1000,61,128.72
4643,D5,1052.0,0.5,68,128.72
4644,E-4,1052.0,0.5,45,128.72
4645,C5,1052.5,1.0,61,128.72
4646,G4,1052.5,0.5,37,128.72
4647,D4,1053.0,0.5,40,128.72
4648,B-4,1053.5,0.5,61,128.72
4649,F4,1053.5,0.5,35,128.72
4650,D5,1054.0,0.5,67,128.72
4651,E-4,1054.0,0.5,45,128.72
4652,C5,1054.5,1.0,62,128.72
4653,G4,1054.5,0.5,35,128.72
4654,C4,1055.0,0.5,38,128.72
4655,A4,1055.5,0.5,64,128.72
4656,E-4,1055.5,0.5,32,128.72
4657,B-4,1056.0,0.25,68,128.72
4658,D4,1056.0,1.0,42,128.72
4659,F4,1056.0,1.0,42,128.72
4660,C5,1056.25,0.25,59,128.72
4661,B-4,1056.5,0.25,62,128.72
4662,A4,1056.75,0.25,58,128.72
4663,B-4,1057.0,0.25,66,128.72
4664,C5,1057.25,0.25,60,128.72
4665,D5,1057.5,0.25,63,128.72
4666,E-5,1057.75,0.25,61,128.72
4667,E5,1058.0,0.25,69,128.72
4668,F5,1058.25,0.25,65,128.72
4669,E5,1058.5,0.25,69,128.72
4670,F5,1058.75,0.25,65,128.72
4671,G5,1059.0,0.25,69,128.72
4672,F5,1059.25,0.25,67,128.72
4673,E-5,1059.5,0.25,66,128.72
4674,D5,1059.75,229/1000,65,128.72
4675,D5,1060.0,0.5,72,128.72
4676,E-4,1060.0,0.5,47,128.72
4677,C5,1060.5,479/1000,54,128.72
4678,G4,1060.5,0.5,36,128.72
4679,C5,1061.0,0.5,56,128.72
4680,D4,1061.0,0.5,40,128.72
4681,B-4,1061.5,0.5,54,128.72
4682,F4,1061.5,0.5,33,128.72
4683,D5,1062.0,0.5,65,128.72
4684,E-4,1062.0,0.5,47,128.72
4685,C5,1062.5,479/1000,54,128.72
4686,G4,1062.5,0.5,37,128.72
4687,C5,1063.0,0.5,57,128.72
4688,C4,1063.0,0.5,39,128.72
4689,A4,1063.5,0.5,53,128.72
4690,E-4,1063.5,0.5,32,128.72
4691,B-4,1064.0,0.5,66,128.72
4692,F4,1064.0,1.0,47,128.72
4693,D4,1064.0,1.0,47,128.72
4694,C5,1064.5,0.25,57,128.72
4695,D5,1064.75,0.25,58,128.72
4696,E-5,1065.0,0.25,59,128.72
4697,F5,1065.25,0.25,60,128.72
4698,G5,1065.5,0.25,61,128.72
4699,A5,1065.75,0.25,64,128.72
4700,B-5,1066.0,0.25,66,128.72
4701,C6,1066.25,0.25,67,128.72
4702,D6,1066.5,0.25,68,128.72
4703,E-6,1066.75,0.25,69,128.72
4704,F6,1067.0,0.25,76,128.72
4705,F6,1067.5,0.25,75,128.72
4706,F5,1068.0,2.5,76,128.72
4707,F6,1068.0,0.5,76,128.72
4708,A3,1068.0,1.0,61,128.72
4709,E-6,1068.5,1.0,74,128.72
4710,B-3,1069.0,1.0,55,128.72
4711,D6,1069.5,0.5,73,128.72
4712,D6,1070.0,0.5,75,128.72
4713,E-3,1070.0,1.0,63,128.72
4714,E-5,1070.5,0.25,64,128.72
4715,C6,1070.5,0.25,64,128.72
4716,F3,1071.0,1.0,57,128.72
4717,D5,1071.0,0.25,72,128.72
4718,B-5,1071.0,0.25,72,128.72
4719,C5,1071.5,0.25,64,128.72
4720,A5,1071.5,0.25,64,128.72
4721,B-5,1072.0,0.5,76,128.72
4722,D5,1072.0,0.5,76,128.72
4723,B-2,1072.5,0.25,52,128.72
4724,B-4,1073.0,0.5,72,128.72
4725,D3,1073.0,0.25,55,128.72
4726,F3,1073.5,0.25,50,128.72
4727,B-3,1074.0,1.0,61,128.72
4728,G4,1075.0,0.25,52,128.72
4729,F4,1075.25,0.25,48,128.72
4730,E-4,1075.5,0.25,52,128.72
4731,D4,1075.75,0.25,48,128.72
4732,C4,1076.0,0.5,56,128.72
4733,B-3,1076.5,0.5,53,128.72
4734,B-2,1076.5,0.5,34,128.72
4735,B-3,1077.0,1.5,53,128.72
4736,D3,1077.0,0.5,37,128.72
4737,F3,1077.5,0.5,34,128.72
4738,D3,1078.0,0.5,43,128.72
4739,B-4,1078.5,0.25,54,128.72
4740,B-2,1078.5,0.5,35,128.72
4741,B-4,1079.0,0.5,54,128.72
4742,D3,1079.0,0.5,39,128.72
4743,C5,1079.5,0.5,51,128.72
4744,F3,1079.5,0.5,39,128.72
4745,B-4,1080.0,0.5,61,128.72
4746,A4,1080.5,0.5,53,128.72
4747,B-2,1080.5,0.5,37,128.72
4748,G#4,1081.0,1479/1000,51,128.72
4749,D3,1081.0,0.5,41,128.72
4750,F3,1081.5,0.5,37,128.72
4751,D3,1082.0,0.5,43,128.72
4752,G#4,1082.5,479/1000,58,128.72
4753,B-2,1082.5,0.5,38,128.72
4754,G#4,1083.0,479/1000,65,128.72
4755,D3,1083.0,0.5,38,128.72
4756,G#4,1083.5,0.5,72,128.72
4757,F3,1083.5,0.5,34,128.72
4758,G#5,1084.0,0.25,78,128.72
4759,B-5,1084.25,0.25,71,128.72
4760,G5,1084.5,0.25,78,128.72
4761,B-2,1084.5,0.5,47,128.72
4762,G#5,1084.75,0.25,70,128.72
4763,F5,1085.0,0.25,79,128.72
4764,D3,1085.0,0.5,47,128.72
4765,G5,1085.25,0.25,69,128.72
4766,E-5,1085.5,0.25,77,128.72
4767,F3,1085.5,0.5,45,128.72
4768,F5,1085.75,0.25,70,128.72
4769,D5,1086.0,0.25,79,128.72
4770,G#3,1086.0,0.5,53,128.72
4771,E-5,1086.25,0.25,70,128.72
4772,C5,1086.5,0.25,75,128.72
4773,F3,1086.5,0.5,45,128.72
4774,D5,1086.75,0.25,69,128.72
4775,B-4,1087.0,0.25,76,128.72
4776,D3,1087.0,0.5,48,128.72
4777,C5,1087.25,0.25,70,128.72
4778,G#4,1087.5,0.25,72,128.72
4779,B-2,1087.5,0.5,45,128.72
4780,B-4,1087.75,0.25,67,128.72
4781,G#4,1088.0,0.5,72,128.72
4782,G4,1088.5,479/1000,67,128.72
4783,B2,1088.5,0.5,36,128.72
4784,G4,1089.0,1.5,59,128.72
4785,D3,1089.0,0.5,36,128.72
4786,F3,1089.5,0.5,36,128.72
4787,G3,1090.0,0.5,41,128.72
4788,G5,1090.5,0.25,54,128.72
4789,F3,1090.5,0.5,33,128.72
4790,G5,1091.0,0.5,60,128.72
4791,D3,1091.0,0.5,34,128.72
4792,F5,1091.5,479/1000,54,128.72
4793,B2,1091.5,0.5,32,128.72
4794,F5,1092.0,0.5,63,128.72
4795,E5,1092.5,479/1000,54,128.72
4796,B-3,1092.5,0.5,33,128.72
4797,E5,1093.0,1.5,54,128.72
4798,C#4,1093.0,0.5,36,128.72
4799,E4,1093.5,0.5,32,128.72
4800,G4,1094.0,1.0,40,128.72
4801,C#6,1094.5,0.25,59,128.72
4802,C#6,1095.0,0.5,61,128.72
4803,E5,1095.5,0.5,56,128.72
4804,G5,1096.0,0.5,61,128.72
4805,F5,1096.5,479/1000,54,128.72
4806,A3,1096.5,0.5,34,128.72
4807,F5,1097.0,1.5,54,128.72
4808,C4,1097.0,0.5,34,128.72
4809,F4,1097.5,0.5,32,128.72
4810,A4,1098.0,1.0,39,128.72
4811,F#5,1098.5,0.5,52,128.72
4812,G5,1099.0,0.5,54,128.72
4813,E-5,1099.5,0.5,52,128.72
4814,C#5,1100.0,0.5,57,128.72
4815,D5,1100.5,479/1000,52,128.72
4816,B-3,1100.5,0.5,32,128.72
4817,D5,1101.0,1.0,52,128.72
4818,D4,1101.0,0.5,34,128.72
4819,F4,1101.5,0.5,30,128.72
4820,B-4,1102.0,1.0,38,128.72
4821,F5,1102.5,0.5,54,128.72
4822,G5,1103.0,0.25,61,128.72
4823,F5,1103.25,0.25,57,128.72
4824,E-5,1103.5,0.25,61,128.72
4825,D5,1103.75,0.25,56,128.72
4826,C5,1104.0,1.5,61,128.72
4827,E-4,1104.0,0.5,42,128.72
4828,G4,1104.5,0.5,38,128.72
4829,E-4,1105.0,0.5,42,128.72
4830,A4,1105.5,0.5,52,128.72
4831,F4,1105.5,0.5,38,128.72
4832,B-4,1106.0,0.125,52,128.72
4833,D4,1106.0,0.5,41,128.72
4834,F5,1106.25,3/10,56,128.72
4835,E5,1106.5,3/10,56,128.72
4836,F4,1106.5,0.5,38,128.72
4837,F5,1106.75,3/10,52,128.72
4838,G5,1107.0,3/10,63,128.72
4839,D4,1107.0,0.5,41,128.72
4840,F5,1107.25,3/10,54,128.72
4841,E-5,1107.5,3/10,59,128.72
4842,F4,1107.5,0.5,38,128.72
4843,D5,1107.75,0.25,53,128.72
4844,C5,1108.0,0.25,63,128.72
4845,D5,1108.0,1/20,53,128.72
4846,E-4,1108.0,0.5,41,128.72
4847,C5,1108.5,1.0,63,128.72
4848,F4,1108.5,0.5,38,128.72
4849,E-4,1109.0,0.5,41,128.72
4850,A4,1109.5,0.5,54,128.72
4851,F4,1109.5,0.5,38,128.72
4852,B-4,1110.0,0.125,54,128.72
4853,D4,1110.0,0.5,41,128.72
4854,F5,1110.25,3/10,51,128.72
4855,E5,1110.5,3/10,56,128.72
4856,F4,1110.5,0.5,38,128.72
4857,F5,1110.75,3/10,53,128.72
4858,G5,1111.0,3/10,62,128.72
4859,D4,1111.0,0.5,41,128.72
4860,F5,1111.25,3/10,53,128.72
4861,E-5,1111.5,3/10,57,128.72
4862,F4,1111.5,0.5,38,128.72
4863,D5,1111.75,229/1000,54,128.72
4864,D5,1112.0,0.5,63,128.72
4865,E-4,1112.0,0.5,41,128.72
4866,C5,1112.5,0.5,60,128.72
4867,G4,1112.5,0.5,38,128.72
4868,E-4,1113.0,0.5,41,128.72
4869,C5,1113.5,0.5,59,128.72
4870,G4,1113.5,0.5,38,128.72
4871,C5,1114.0,0.5,63,128.72
4872,E4,1114.0,0.5,41,128.72
4873,B-4,1114.5,0.5,59,128.72
4874,G4,1114.5,0.5,38,128.72
4875,E4,1115.0,0.5,41,128.72
4876,B-4,1115.5,0.5,52,128.72
4877,G4,1115.5,0.5,38,128.72
4878,A4,1116.0,0.25,64,128.72
4879,F3,1116.0,1.0,41,128.72
4880,B-4,1116.25,0.25,58,128.72
4881,A4,1116.5,0.25,62,128.72
4882,F4,1116.75,0.25,58,128.72
4883,B-4,1117.0,0.25,69,128.72
4884,G3,1117.0,1.0,47,128.72
4885,C5,1117.25,0.25,62,128.72
4886,B-4,1117.5,0.25,67,128.72
4887,F4,1117.75,0.25,59,128.72
4888,C5,1118.0,0.25,70,128.72
4889,A3,1118.0,1.0,52,128.72
4890,D5,1118.25,0.25,64,128.72
4891,C5,1118.5,0.25,69,128.72
4892,F4,1118.75,0.25,63,128.72
4893,D5,1119.0,0.25,77,128.72
4894,B-3,1119.0,1.0,58,128.72
4895,E-5,1119.25,0.25,67,128.72
4896,D5,1119.5,0.25,72,128.72
4897,F4,1119.75,0.25,67,128.72
4898,E-5,1120.0,0.25,78,128.72
4899,C4,1120.0,0.5,64,128.72
4900,E-5,1120.5,0.25,78,128.72
4901,F4,1120.5,0.5,45,128.72
4902,A3,1121.0,0.5,51,128.72
4903,C5,1121.5,0.25,73,128.72
4904,F4,1121.5,0.5,46,128.72
4905,E-5,1122.0,0.5,79,128.72
4906,B-3,1122.0,0.5,52,128.72
4907,D5,1122.5,0.25,72,128.72
4908,F4,1122.5,0.5,46,128.72
4909,C5,1123.0,0.25,74,128.72
4910,G3,1123.0,0.5,52,128.72
4911,B-4,1123.5,0.25,71,128.72
4912,F4,1123.5,0.5,46,128.72
4913,A4,1124.0,0.25,67,128.72
4914,F3,1124.0,1.0,40,128.72
4915,F4,1124.25,0.25,59,128.72
4916,E5,1124.5,0.25,61,128.72
4917,F5,1124.75,0.25,59,128.72
4918,B-4,1125.0,0.25,70,128.72
4919,G3,1125.0,1.0,46,128.72
4920,F4,1125.25,0.25,59,128.72
4921,E5,1125.5,0.25,66,128.72
4922,F5,1125.75,0.25,61,128.72
4923,C5,1126.0,0.25,74,128.72
4924,A3,1126.0,1.0,51,128.72
4925,F4,1126.25,0.25,64,128.72
4926,E5,1126.5,0.25,69,128.72
4927,F5,1126.75,0.25,62,128.72
4928,D5,1127.0,0.25,79,128.72
4929,B-3,1127.0,1.0,58,128.72
4930,F4,1127.25,0.25,69,128.72
4931,E5,1127.5,0.25,73,128.72
4932,F5,1127.75,0.25,69,128.72
4933,E-5,1128.0,0.25,79,128.72
4934,C4,1128.0,0.25,64,128.72
4935,F4,1128.25,0.25,45,128.72
4936,E-5,1128.5,0.25,79,128.72
4937,E4,1128.5,0.25,49,128.72
4938,F4,1128.75,0.25,45,128.72
4939,A3,1129.0,0.25,56,128.72
4940,F4,1129.25,0.25,46,128.72
4941,C5,1129.5,0.125,57,128.72
4942,E4,1129.5,0.25,49,128.72
4943,D5,1129.619,0.125,52,128.72
4944,C5,1129.75,0.125,57,128.72
4945,F4,1129.75,0.25,46,128.72
4946,D5,1129.875,0.125,52,128.72
4947,E-5,1130.0,0.5,72,128.72
4948,B-3,1130.0,0.25,56,128.72
4949,F4,1130.25,0.25,46,128.72
4950,D5,1130.5,0.25,71,128.72
4951,E4,1130.5,0.25,49,128.72
4952,F4,1130.75,0.25,47,128.72
4953,C5,1131.0,0.25,71,128.72
4954,G3,1131.0,0.25,57,128.72
4955,E4,1131.25,0.25,45,128.72
4956,B-4,1131.5,0.25,68,128.72
4957,D4,1131.5,0.25,49,128.72
4958,E4,1131.75,0.25,46,128.72
4959,A4,1132.0,0.25,78,128.72
4960,F3,1132.0,99/100,59,128.72
4961,F4,1132.0,99/100,59,128.72
4962,F5,1132.25,0.25,69,128.72
4963,C5,1132.5,0.25,73,128.72
4964,A4,1132.75,0.25,70,128.72
4965,F4,1133.0,0.25,77,128.72
4966,C4,1133.25,0.25,69,128.72
4967,A3,1133.5,0.25,70,128.72
4968,F3,1133.75,0.25,67,128.72
4969,F1,1134.0,0.5,75,128.72
4970,F2,1134.0,0.5,75,128.72
4971,F3,1136.0,1.5,72,128.72
4972,B-3,1136.0,1.5,72,128.72
4973,D4,1136.0,1.5,72,128.72
4974,F4,1136.0,1.5,72,128.72
4975,B-1,1136.0,2.0,58,128.72
4976,B-2,1136.0,2.0,58,128.72
4977,G4,1137.5,0.25,48,128.72
4978,F4,1137.75,0.25,45,128.72
4979,E-4,1138.0,0.25,52,128.72
4980,D4,1138.5,0.25,48,128.72
4981,C4,1139.0,0.25,52,128.72
4982,B-3,1139.5,0.25,48,128.72
4983,B-3,1140.0,0.5,54,128.72
4984,G4,1140.5,479/1000,49,128.72
4985,B-3,1141.0,1.5,72,128.72
4986,G4,1141.0,1.5,72,128.72
4987,E-2,1141.0,2.0,57,128.72
4988,E-3,1141.0,2.0,57,128.72
4989,F4,1142.5,0.5,53,128.72
4990,A4,1143.0,0.5,53,128.72
4991,D3,1143.0,1.0,44,128.72
4992,B-4,1143.5,479/1000,52,128.72
4993,B-4,1144.0,0.5,61,128.72
4994,E3,1144.0,1.0,38,128.72
4995,G3,1144.0,1.0,38,128.72
4996,C4,1144.5,1.0,53,128.72
4997,F3,1145.0,1.0,38,128.72
4998,D4,1145.5,0.5,53,128.72
4999,B-4,1146.0,0.5,61,128.72
5000,G3,1146.0,1.0,38,128.72
5001,E3,1146.0,1.0,38,128.72
5002,C4,1146.5,1.0,51,128.72
5003,F3,1147.0,1.0,40,128.72
5004,D4,1147.5,0.5,53,128.72
5005,F4,1148.0,1.0,58,128.72
5006,G3,1148.0,1.0,39,128.72
5007,E-4,1149.0,0.125,52,128.72
5008,A3,1149.0,1.0,35,128.72
5009,F4,1149.125,0.125,47,128.72
5010,E-4,1149.25,0.125,52,128.72
5011,F4,1149.375,0.125,49,128.72
5012,E-4,1149.5,83/1000,52,128.72
5013,F4,1149.583,83/1000,49,128.72
5014,E-4,1149.667,83/1000,49,128.72
5015,D4,1149.75,0.125,52,128.72
5016,E-4,1149.875,0.125,48,128.72
5017,D4,1150.0,0.25,57,128.72
5018,B-3,1150.0,1.0,35,128.72
5019,D4,1150.5,0.5,51,128.72
5020,E-4,1151.0,0.5,53,128.72
5021,F4,1151.5,0.5,51,128.72
5022,F#4,1152.0,0.5,65,128.72
5023,G4,1152.5,1.0,54,128.72
5024,E-2,1152.5,0.5,46,128.72
5025,G2,1153.0,0.5,46,128.72
5026,F4,1153.5,0.25,53,128.72
5027,C3,1153.5,0.5,45,128.72
5028,E-4,1153.75,0.25,50,128.72
5029,D4,1154.0,0.5,54,128.72
5030,E-3,1154.0,1.0,52,128.72
5031,C4,1154.5,0.5,51,128.72
5032,D4,1155.0,0.5,52,128.72
5033,E-4,1155.5,0.5,51,128.72
5034,G4,1156.0,0.5,63,128.72
5035,F4,1156.5,1.0,53,128.72
5036,D2,1156.5,0.5,44,128.72
5037,F2,1157.0,0.5,44,128.72
5038,E-4,1157.5,0.25,54,128.72
5039,B-2,1157.5,0.5,43,128.72
5040,D4,1157.75,0.25,49,128.72
5041,C4,1158.0,0.5,56,128.72
5042,D3,1158.0,1.0,52,128.72
5043,B-3,1158.5,0.5,52,128.72
5044,C4,1159.0,0.5,54,128.72
5045,D4,1159.5,0.5,50,128.72
5046,F4,1160.0,0.5,63,128.72
5047,C3,1160.0,1.0,44,128.72
5048,E-4,1160.5,1.0,51,128.72
5049,A2,1161.0,1.0,41,128.72
5050,C4,1161.5,0.5,51,128.72
5051,E-4,1162.0,0.5,62,128.72
5052,B-2,1162.0,1.0,43,128.72
5053,D4,1162.5,1.0,52,128.72
5054,G2,1163.0,1.0,42,128.72
5055,B-3,1163.5,0.5,52,128.72
5056,A3,1164.0,3/10,48,128.72
5057,F2,1164.0,1.0,44,128.72
5058,B-3,1164.25,3/10,49,128.72
5059,B3,1164.5,3/10,50,128.72
5060,C4,1164.75,3/10,51,128.72
5061,C#4,1165.0,3/10,52,128.72
5062,D4,1165.25,3/10,53,128.72
5063,E-4,1165.5,3/10,54,128.72
5064,E4,1165.75,3/10,54,128.72
5065,F4,1166.0,1.0,56,128.72
5066,F3,1166.0,0.25,53,128.72
5067,G3,1166.25,0.25,49,128.72
5068,E-3,1166.5,0.25,54,128.72
5069,F3,1166.75,0.25,49,128.72
5070,D3,1167.0,0.25,54,128.72
5071,E-3,1167.25,0.25,49,128.72
5072,C3,1167.5,0.25,56,128.72
5073,D3,1167.75,0.25,49,128.72
5074,B-2,1168.0,1.0,69,128.72
5075,F4,1168.0,1.5,73,128.72
5076,B-4,1168.0,1.5,73,128.72
5077,D5,1168.0,1.5,73,128.72
5078,F5,1168.0,1.5,73,128.72
5079,B-3,1169.0,1.0,58,128.72
5080,G5,1169.5,0.25,51,128.72
5081,F5,1169.75,0.25,49,128.72
5082,E-5,1170.0,0.25,57,128.72
5083,D5,1170.5,0.25,50,128.72
5084,C5,1171.0,0.25,50,128.72
5085,B-4,1171.5,0.25,47,128.72
5086,B-4,1172.0,0.5,53,128.72
5087,G5,1172.5,479/1000,50,128.72
5088,B-4,1173.0,1.5,68,128.72
5089,G5,1173.0,1.5,68,128.72
5090,E-3,1173.0,2.0,59,128.72
5091,E-4,1173.0,2.0,59,128.72
5092,F5,1174.5,0.5,53,128.72
5093,A5,1175.0,0.5,66,128.72
5094,D4,1175.0,1.0,43,128.72
5095,B-5,1175.5,0.5,63,128.72
5096,B-5,1176.0,0.5,63,128.72
5097,E4,1176.0,1.0,43,128.72
5098,G4,1176.0,1.0,43,128.72
5099,C5,1176.5,0.5,53,128.72
5100,D5,1177.0,0.5,53,128.72
5101,F4,1177.0,1.0,43,128.72
5102,B-5,1177.5,1.0,68,128.72
5103,E4,1178.0,1.0,43,128.72
5104,G4,1178.0,1.0,43,128.72
5105,C5,1178.5,0.5,53,128.72
5106,D5,1179.0,0.5,53,128.72
5107,F4,1179.0,1.0,41,128.72
5108,B-5,1179.5,0.25,67,128.72
5109,F5,1180.0,1.0,54,128.72
5110,G4,1180.0,1.0,43,128.72
5111,B-4,1180.0,1.0,43,128.72
5112,E5,1181.0,0.5,53,128.72
5113,A4,1181.0,1.0,43,128.72
5114,C5,1181.0,1.0,43,128.72
5115,E-5,1181.5,0.5,53,128.72
5116,D5,1182.0,0.25,48,128.72
5117,B-4,1182.0,1.0,46,128.72
5118,D5,1182.5,0.5,54,128.72
5119,E-5,1183.0,0.5,60,128.72
5120,F5,1183.5,0.5,64,128.72
5121,G5,1184.0,1.5,70,128.72
5122,G3,1184.5,0.5,54,128.72
5123,G4,1185.0,0.25,61,128.72
5124,A5,1185.5,0.25,70,128.72
5125,F4,1185.5,0.25,53,128.72
5126,B5,1185.75,0.25,67,128.72
5127,C6,1186.0,0.25,70,128.72
5128,E-4,1186.0,0.25,60,128.72
5129,D6,1186.25,0.25,67,128.72
5130,E-6,1186.5,0.25,70,128.72
5131,E-3,1186.5,0.5,53,128.72
5132,D6,1186.75,0.25,66,128.72
5133,C6,1187.0,0.25,70,128.72
5134,E-4,1187.0,0.25,61,128.72
5135,D6,1187.25,0.25,67,128.72
5136,B-5,1187.5,0.25,70,128.72
5137,D4,1187.5,0.25,53,128.72
5138,C6,1187.75,0.25,67,128.72
5139,A5,1188.0,0.25,69,128.72
5140,C4,1188.0,0.5,57,128.72
5141,B-5,1188.25,0.25,66,128.72
5142,G5,1188.5,0.25,69,128.72
5143,B-3,1188.5,0.5,53,128.72
5144,A5,1188.75,0.25,64,128.72
5145,F5,1189.0,0.25,71,128.72
5146,A3,1189.0,0.5,53,128.72
5147,G5,1189.25,0.25,67,128.72
5148,E-5,1189.5,0.25,71,128.72
5149,F3,1189.5,0.5,53,128.72
5150,F5,1189.75,0.25,67,128.72
5151,D5,1190.0,0.25,68,128.72
5152,B-3,1190.0,1.0,60,128.72
5153,E-5,1190.25,0.25,64,128.72
5154,F5,1190.5,0.25,68,128.72
5155,G5,1190.75,0.25,65,128.72
5156,A5,1191.0,0.25,70,128.72
5157,D3,1191.0,1.0,54,128.72
5158,B-5,1191.25,0.25,66,128.72
5159,A5,1191.5,0.25,69,128.72
5160,B-5,1191.75,0.25,65,128.72
5161,C6,1192.0,0.25,72,128.72
5162,E-3,1192.0,1.0,59,128.72
5163,B-5,1192.25,0.25,70,128.72
5164,A5,1192.5,0.25,69,128.72
5165,G5,1192.75,0.25,67,128.72
5166,A5,1193.0,0.25,72,128.72
5167,E-4,1193.0,1.0,53,128.72
5168,G5,1193.25,0.25,70,128.72
5169,F5,1193.5,0.25,69,128.72
5170,E-5,1193.75,0.25,67,128.72
5171,D5,1194.0,1.0,71,128.72
5172,F4,1194.0,1.0,54,128.72
5173,C5,1195.0,0.125,58,128.72
5174,A4,1195.0,1.0,58,128.72
5175,F3,1195.0,1.0,53,128.72
5176,D5,1195.125,0.125,54,128.72
5177,C5,1195.25,0.125,58,128.72
5178,D5,1195.375,0.125,53,128.72
5179,C5,1195.5,83/1000,58,128.72
5180,D5,1195.583,83/1000,54,128.72
5181,C5,1195.667,83/1000,54,128.72
5182,B-4,1195.75,0.125,66,128.72
5183,C5,1195.875,0.125,62,128.72
5184,B-4,1196.0,1.0,75,128.72
5185,B-3,1196.0,0.25,53,128.72
5186,F4,1196.25,0.25,46,128.72
5187,E4,1196.5,0.25,49,128.72
5188,F4,1196.75,0.25,46,128.72
5189,G4,1197.0,0.25,53,128.72
5190,F4,1197.25,0.25,47,128.72
5191,E4,1197.5,0.25,49,128.72
5192,F4,1197.75,0.25,46,128.72
5193,E-4,1198.0,0.25,53,128.72
5194,F4,1198.25,0.25,51,128.72
5195,D4,1198.5,0.25,53,128.72
5196,F4,1198.75,0.25,49,128.72
5197,C4,1199.0,0.25,53,128.72
5198,F4,1199.25,0.25,50,128.72
5199,B-3,1199.5,0.25,53,128.72
5200,F4,1199.75,0.25,50,128.72
5201,E-5,1200.0,0.5,85,128.72
5202,A3,1200.0,0.25,48,128.72
5203,F4,1200.25,0.25,40,128.72
5204,C5,1200.5,0.25,56,128.72
5205,C4,1200.5,0.25,42,128.72
5206,F4,1200.75,0.25,38,128.72
5207,A4,1201.0,0.25,62,128.72
5208,E-4,1201.0,0.25,48,128.72
5209,F4,1201.25,0.25,40,128.72
5210,A4,1201.5,0.25,56,128.72
5211,E-4,1201.5,0.25,42,128.72
5212,F4,1201.75,0.25,39,128.72
5213,E-5,1202.0,0.5,85,128.72
5214,A3,1202.0,0.25,47,128.72
5215,F4,1202.25,0.25,40,128.72
5216,C5,1202.5,0.25,54,128.72
5217,C4,1202.5,0.25,43,128.72
5218,F4,1202.75,0.25,40,128.72
5219,A4,1203.0,0.25,60,128.72
5220,E-4,1203.0,0.25,48,128.72
5221,F4,1203.25,0.25,42,128.72
5222,A4,1203.5,0.25,54,128.72
5223,E-4,1203.5,0.25,42,128.72
5224,F4,1203.75,0.25,42,128.72
5225,B-4,1204.0,0.25,62,128.72
5226,D4,1204.0,0.25,44,128.72
5227,F4,1204.25,0.25,45,128.72
5228,C5,1204.5,0.25,63,128.72
5229,A3,1204.5,0.25,45,128.72
5230,F4,1204.75,0.25,45,128.72
5231,D5,1205.0,0.25,64,128.72
5232,B-3,1205.0,0.25,46,128.72
5233,F4,1205.25,0.25,47,128.72
5234,E-5,1205.5,0.25,66,128.72
5235,C4,1205.5,0.25,48,128.72
5236,F4,1205.75,0.25,49,128.72
5237,E5,1206.0,0.5,88,128.72
5238,C#4,1206.0,0.25,53,128.72
5239,F4,1206.25,0.25,48,128.72
5240,F5,1206.5,0.5,75,128.72
5241,D4,1206.5,0.25,53,128.72
5242,F4,1206.75,0.25,46,128.72
5243,E5,1207.0,0.5,87,128.72
5244,C#4,1207.0,0.25,53,128.72
5245,F4,1207.25,0.25,46,128.72
5246,F5,1207.5,0.5,75,128.72
5247,D4,1207.5,0.25,53,128.72
5248,F4,1207.75,0.25,47,128.72
5249,A3,1208.0,0.25,48,128.72
5250,E-6,1208.0,0.5,90,128.72
5251,E-5,1208.0,0.5,90,128.72
5252,F4,1208.25,0.25,39,128.72
5253,C4,1208.5,0.25,42,128.72
5254,C6,1208.5,0.25,52,128.72
5255,C5,1208.5,0.25,52,128.72
5256,F4,1208.75,0.25,39,128.72
5257,E-4,1209.0,0.25,48,128.72
5258,A5,1209.0,0.25,57,128.72
5259,A4,1209.0,0.25,57,128.72
5260,F4,1209.25,0.25,40,128.72
5261,E-4,1209.5,0.25,42,128.72
5262,A5,1209.5,0.25,52,128.72
5263,A4,1209.5,0.25,52,128.72
5264,F4,1209.75,0.25,39,128.72
5265,A3,1210.0,0.25,47,128.72
5266,E-6,1210.0,0.5,90,128.72
5267,E-5,1210.0,0.5,90,128.72
5268,F4,1210.25,0.25,39,128.72
5269,C4,1210.5,0.25,43,128.72
5270,C6,1210.5,0.25,50,128.72
5271,C5,1210.5,0.25,50,128.72
5272,F4,1210.75,0.25,39,128.72
5273,E-4,1211.0,0.25,48,128.72
5274,A5,1211.0,0.25,56,128.72
5275,A4,1211.0,0.25,56,128.72
5276,F4,1211.25,0.25,42,128.72
5277,E-4,1211.5,0.25,42,128.72
5278,A5,1211.5,0.25,50,128.72
5279,A4,1211.5,0.25,50,128.72
5280,F4,1211.75,0.25,42,128.72
5281,D4,1212.0,0.25,44,128.72
5282,B-5,1212.0,0.25,57,128.72
5283,B-4,1212.0,0.25,57,128.72
5284,F4,1212.25,0.25,45,128.72
5285,A3,1212.5,0.25,45,128.72
5286,C6,1212.5,0.25,58,128.72
5287,C5,1212.5,0.25,58,128.72
5288,F4,1212.75,0.25,45,128.72
5289,B-3,1213.0,0.25,46,128.72
5290,D6,1213.0,0.25,59,128.72
5291,D5,1213.0,0.25,59,128.72
5292,F4,1213.25,0.25,47,128.72
5293,C4,1213.5,0.25,48,128.72
5294,E-6,1213.5,0.25,61,128.72
5295,E-5,1213.5,0.25,61,128.72
5296,F4,1213.75,0.25,49,128.72
5297,C#4,1214.0,0.25,53,128.72
5298,E6,1214.0,0.5,83,128.72
5299,E5,1214.0,0.5,83,128.72
5300,F4,1214.25,0.25,48,128.72
5301,D4,1214.5,0.25,53,128.72
5302,F6,1214.5,0.5,69,128.72
5303,F5,1214.5,0.5,69,128.72
5304,F4,1214.75,0.25,46,128.72
5305,C#4,1215.0,0.25,53,128.72
5306,E6,1215.0,0.5,84,128.72
5307,E5,1215.0,0.5,84,128.72
5308,F4,1215.25,0.25,46,128.72
5309,D4,1215.5,0.25,53,128.72
5310,F6,1215.5,0.5,69,128.72
5311,F5,1215.5,0.5,69,128.72
5312,F4,1215.75,0.25,47,128.72
5313,G4,1216.0,2.0,61,128.72
5314,G5,1216.0,2.0,61,128.72
5315,E-3,1216.5,0.5,38,128.72
5316,D3,1217.0,0.5,40,128.72
5317,E-3,1217.5,0.5,38,128.72
5318,A3,1218.0,2.0,50,128.72
5319,A4,1218.0,2.0,50,128.72
5320,F3,1218.5,0.5,38,128.72
5321,E3,1219.0,0.5,40,128.72
5322,F3,1219.5,0.5,38,128.72
5323,E-5,1220.0,2.0,71,128.72
5324,E-6,1220.0,2.0,71,128.72
5325,F#3,1220.5,0.5,38,128.72
5326,E3,1221.0,0.5,42,128.72
5327,F#3,1221.5,0.5,38,128.72
5328,D5,1222.0,2.0,62,128.72
5329,D6,1222.0,2.0,62,128.72
5330,G3,1222.5,0.5,40,128.72
5331,F#3,1223.0,0.5,42,128.72
5332,G3,1223.5,0.5,39,128.72
5333,D6,1224.0,3/10,75,128.72
5334,C6,1224.25,3/10,68,128.72
5335,E-6,1224.5,3/10,72,128.72
5336,D6,1224.75,3/10,67,128.72
5337,F6,1225.0,3/10,75,128.72
5338,E-4,1225.0,1.0,54,128.72
5339,C5,1225.0,1.0,54,128.72
5340,E-6,1225.25,3/10,71,128.72
5341,D6,1225.5,3/10,72,128.72
5342,C6,1225.75,3/10,68,128.72
5343,B-5,1226.0,1.0,75,128.72
5344,F4,1226.0,2.0,54,128.72
5345,D5,1226.0,1.0,54,128.72
5346,A5,1227.0,1.0,63,128.72
5347,E-5,1227.0,1.0,45,128.72
5348,B-4,1228.0,2.0,38,128.72
5349,D5,1228.0,2.0,38,128.72
5350,B-5,1228.5,0.5,47,128.72
5351,A5,1229.0,0.5,50,128.72
5352,B-5,1229.5,0.5,47,128.72
5353,B-4,1230.0,2.0,31,128.72
5354,D5,1230.0,2.0,31,128.72
5355,G#5,1230.5,0.5,46,128.72
5356,G5,1231.0,0.5,51,128.72
5357,G#5,1231.5,0.5,46,128.72
5358,B4,1232.0,2.0,31,128.72
5359,D5,1232.0,2.0,31,128.72
5360,F5,1232.0,2.0,31,128.72
5361,G5,1232.5,0.5,44,128.72
5362,F#5,1233.0,0.5,48,128.72
5363,G5,1233.5,0.5,45,128.72
5364,C5,1234.0,2.0,31,128.72
5365,E-5,1234.0,2.0,31,128.72
5366,G5,1234.5,0.5,44,128.72
5367,G6,1235.0,0.5,51,128.72
5368,G6,1235.5,0.25,48,128.72
5369,A4,1236.0,2.0,31,128.72
5370,C5,1236.0,2.0,31,128.72
5371,E-5,1236.0,2.0,31,128.72
5372,G6,1236.5,0.5,50,128.72
5373,F5,1237.0,0.5,44,128.72
5374,F5,1237.5,0.25,44,128.72
5375,B-4,1238.0,2.0,30,128.72
5376,D5,1238.0,2.0,30,128.72
5377,F5,1238.5,0.5,46,128.72
5378,D6,1239.0,0.5,51,128.72
5379,D6,1239.5,0.25,48,128.72
5380,G4,1240.0,2.0,31,128.72
5381,B-4,1240.0,2.0,31,128.72
5382,D5,1240.0,2.0,31,128.72
5383,D6,1240.5,0.5,49,128.72
5384,E-5,1241.0,0.5,45,128.72
5385,E-5,1241.5,0.25,45,128.72
5386,A4,1242.0,2.0,30,128.72
5387,C5,1242.0,2.0,30,128.72
5388,E-5,1242.5,0.5,44,128.72
5389,C6,1243.0,0.5,50,128.72
5390,C6,1243.5,0.25,47,128.72
5391,F#4,1244.0,2.0,30,128.72
5392,A4,1244.0,2.0,30,128.72
5393,C5,1244.0,2.0,30,128.72
5394,C6,1244.5,0.5,48,128.72
5395,D5,1245.0,0.5,44,128.72
5396,D5,1245.5,0.25,44,128.72
5397,G4,1246.0,2.0,31,128.72
5398,B-4,1246.0,2.0,31,128.72
5399,D5,1246.5,0.5,44,128.72
5400,B-5,1247.0,0.5,49,128.72
5401,B-5,1247.5,0.25,46,128.72
5402,B-5,1248.0,0.5,54,128.72
5403,C5,1248.5,0.25,44,128.72
5404,E4,1248.5,249/500,33,128.72
5405,B-4,1248.5,249/500,33,128.72
5406,E4,1249.0,249/500,38,128.72
5407,B-4,1249.0,249/500,38,128.72
5408,E4,1249.5,0.5,35,128.72
5409,B-4,1249.5,0.5,35,128.72
5410,B-5,1250.0,0.5,63,128.72
5411,D5,1250.5,0.25,52,128.72
5412,F4,1250.5,0.5,38,128.72
5413,B-4,1250.5,0.5,38,128.72
5414,F4,1251.0,0.5,42,128.72
5415,B-4,1251.0,0.5,42,128.72
5416,F4,1251.5,0.5,40,128.72
5417,B-4,1251.5,0.5,40,128.72
5418,B-5,1252.0,0.5,69,128.72
5419,E-5,1252.5,0.25,54,128.72
5420,G4,1252.5,0.5,42,128.72
5421,B-4,1252.5,0.5,42,128.72
5422,G4,1253.0,0.5,49,128.72
5423,B-4,1253.0,0.5,49,128.72
5424,G4,1253.5,0.5,46,128.72
5425,B-4,1253.5,0.5,46,128.72
5426,B-5,1254.0,0.5,81,128.72
5427,E5,1254.5,0.25,67,128.72
5428,F#4,1254.5,0.5,58,128.72
5429,B-4,1254.5,0.5,58,128.72
5430,F#4,1255.0,0.5,64,128.72
5431,B-4,1255.0,0.5,64,128.72
5432,F#4,1255.5,0.5,59,128.72
5433,B-4,1255.5,0.5,59,128.72
5434,B-5,1256.0,0.5,89,128.72
5435,F4,1256.0,1.0,58,128.72
5436,B-4,1256.0,1.0,58,128.72
5437,F5,1256.5,0.25,83,128.72
5438,B-5,1257.0,0.5,89,128.72
5439,D4,1257.0,1.0,58,128.72
5440,B-4,1257.0,1.0,58,128.72
5441,F#5,1257.5,0.25,83,128.72
5442,B-5,1258.0,0.5,89,128.72
5443,E-4,1258.0,1.0,58,128.72
5444,B-4,1258.0,1.0,58,128.72
5445,G5,1258.5,0.5,85,128.72
5446,E-6,1259.0,0.5,89,128.72
5447,C4,1259.0,1.0,58,128.72
5448,F4,1259.0,1.0,58,128.72
5449,A5,1259.5,0.5,85,128.72
5450,D6,1260.0,1/10,82,128.72
5451,B-3,1260.0,1.0,56,128.72
5452,F4,1260.0,1.0,56,128.72
5453,E-6,1260.1,1/10,81,128.72
5454,D6,1260.2,1/10,85,128.72
5455,E-6,1260.3,1/10,78,128.72
5456,D6,1260.4,1/10,78,128.72
5457,F6,1260.5,0.5,94,128.72
5458,B-5,1261.0,1/10,81,128.72
5459,D3,1261.0,1.0,47,128.72
5460,F3,1261.0,1.0,47,128.72
5461,C6,1261.1,1/10,76,128.72
5462,B-5,1261.2,1/10,81,128.72
5463,C6,1261.3,1/10,75,128.72
5464,B-5,1261.4,1/10,75,128.72
5465,D6,1261.5,0.5,92,128.72
5466,G5,1262.0,1/10,75,128.72
5467,E-3,1262.0,1.0,46,128.72
5468,B-3,1262.0,1.0,46,128.72
5469,A5,1262.1,1/10,69,128.72
5470,G5,1262.2,1/10,75,128.72
5471,A5,1262.3,1/10,71,128.72
5472,G5,1262.408,23/250,71,128.72
5473,B-5,1262.5,0.5,88,128.72
5474,C5,1263.0,1/10,71,128.72
5475,E-3,1263.0,1.0,42,128.72
5476,G3,1263.0,1.0,42,128.72
5477,D5,1263.1,1/10,66,128.72
5478,C5,1263.2,1/10,71,128.72
5479,D5,1263.3,1/10,67,128.72
5480,C5,1263.4,1/10,67,128.72
5481,E-5,1263.5,0.5,79,128.72
5482,F4,1264.0,0.125,74,128.72
5483,F5,1264.25,3/10,76,128.72
5484,G5,1264.5,3/10,78,128.72
5485,F5,1264.75,3/10,76,128.72
5486,E-5,1265.0,3/10,76,128.72
5487,B-3,1265.0,2.0,46,128.72
5488,D3,1265.0,1.0,46,128.72
5489,D5,1265.25,3/10,71,128.72
5490,C5,1265.5,3/10,72,128.72
5491,B-4,1265.75,3/10,70,128.72
5492,C5,1266.0,0.125,54,128.72
5493,E-3,1266.0,1.0,46,128.72
5494,D5,1266.125,0.125,50,128.72
5495,C5,1266.25,0.125,54,128.72
5496,D5,1266.375,0.125,49,128.72
5497,C5,1266.5,0.125,54,128.72
5498,D5,1266.625,0.125,49,128.72
5499,C5,1266.75,0.125,54,128.72
5500,D5,1266.875,0.125,49,128.72
5501,C5,1267.0,0.125,54,128.72
5502,A3,1267.0,1.0,46,128.72
5503,F3,1267.0,1.0,46,128.72
5504,D5,1267.125,0.125,49,128.72
5505,C5,1267.25,0.125,54,128.72
5506,D5,1267.375,0.125,51,128.72
5507,C5,1267.5,83/1000,54,128.72
5508,D5,1267.583,83/1000,50,128.72
5509,C5,1267.667,83/1000,50,128.72
5510,B-4,1267.75,0.125,66,128.72
5511,C5,1267.875,0.125,62,128.72
5512,B-4,1268.0,0.25,70,128.72
5513,B-2,1268.0,0.25,52,128.72
5514,B-3,1268.0,0.25,52,128.72
5515,B-3,1268.5,0.25,47,128.72
5516,D4,1268.75,0.25,45,128.72
5517,C4,1269.0,0.25,47,128.72
5518,A3,1269.0,0.5,35,128.72
5519,E-4,1269.25,0.25,45,128.72
5520,D4,1269.5,0.25,47,128.72
5521,G#3,1269.5,0.5,33,128.72
5522,F4,1269.75,0.25,45,128.72
5523,E-4,1270.0,0.25,48,128.72
5524,B-2,1270.0,0.25,43,128.72
5525,G3,1270.0,0.25,43,128.72
5526,B-3,1270.5,0.25,52,128.72
5527,D4,1270.75,0.25,48,128.72
5528,C4,1271.0,0.25,52,128.72
5529,A3,1271.0,0.5,35,128.72
5530,E-4,1271.25,0.25,48,128.72
5531,D4,1271.5,0.25,52,128.72
5532,G#3,1271.5,0.5,33,128.72
5533,F4,1271.75,0.25,48,128.72
5534,E-4,1272.0,0.25,52,128.72
5535,B-2,1272.0,0.25,42,128.72
5536,G3,1272.0,0.25,42,128.72
5537,B-3,1272.5,0.25,52,128.72
5538,D4,1272.75,0.25,55,128.72
5539,C4,1273.0,0.25,57,128.72
5540,A3,1273.0,0.5,47,128.72
5541,E-4,1273.25,0.25,58,128.72
5542,D4,1273.5,0.25,59,128.72
5543,G#3,1273.5,0.5,47,128.72
5544,F4,1273.75,0.25,62,128.72
5545,E-4,1274.0,0.25,63,128.72
5546,G3,1274.0,0.5,51,128.72
5547,G4,1274.25,0.25,66,128.72
5548,F4,1274.5,0.25,67,128.72
5549,D3,1274.5,0.5,50,128.72
5550,G#4,1274.75,0.25,69,128.72
5551,G4,1275.0,0.25,70,128.72
5552,E-3,1275.0,0.5,50,128.72
5553,B-4,1275.25,0.25,71,128.72
5554,A4,1275.5,0.25,73,128.72
5555,C3,1275.5,0.5,50,128.72
5556,C5,1275.75,0.25,75,128.72
5557,B-4,1276.0,0.25,77,128.72
5558,D3,1276.0,1.0,57,128.72
5559,C5,1276.25,0.25,79,128.72
5560,D5,1276.5,0.25,82,128.72
5561,C5,1276.75,0.25,82,128.72
5562,B-4,1277.0,0.25,80,128.72
5563,G#4,1277.25,0.25,79,128.72
5564,G4,1277.5,0.25,78,128.72
5565,F#4,1277.75,0.25,77,128.72
5566,G4,1278.0,0.25,78,128.72
5567,E-3,1278.0,1.0,53,128.72
5568,C5,1278.25,0.25,79,128.72
5569,E-5,1278.5,0.25,80,128.72
5570,D5,1278.75,0.25,79,128.72
5571,C5,1279.0,0.25,79,128.72
5572,B-4,1279.25,0.25,78,128.72
5573,A4,1279.5,0.25,75,128.72
5574,G4,1279.75,0.25,74,128.72
5575,F4,1280.0,0.25,75,128.72
5576,F3,1280.0,0.5,52,128.72
5577,B-4,1280.25,0.25,79,128.72
5578,D5,1280.5,0.25,82,128.72
5579,B-3,1280.5,0.5,48,128.72
5580,F5,1280.75,0.25,88,128.72
5581,B-5,1281.0,0.25,94,128.72
5582,D4,1281.0,0.5,48,128.72
5583,B-3,1281.5,0.5,48,128.72
5584,B-4,1281.5,0.25,64,128.72
5585,D5,1281.5,0.25,64,128.72
5586,F3,1282.0,0.5,53,128.72
5587,D5,1282.0,0.5,70,128.72
5588,F5,1282.0,0.5,70,128.72
5589,C4,1282.5,0.5,49,128.72
5590,C5,1282.5,0.25,66,128.72
5591,E-5,1282.5,0.25,66,128.72
5592,E-4,1283.0,0.5,49,128.72
5593,B-4,1283.0,0.25,67,128.72
5594,D5,1283.0,0.25,67,128.72
5595,C4,1283.5,0.5,48,128.72
5596,A4,1283.5,0.25,67,128.72
5597,C5,1283.5,0.25,67,128.72
5598,B-4,1284.0,0.25,67,128.72
5599,B-3,1284.0,0.25,56,128.72
5600,D4,1284.0,0.25,56,128.72
5601,B-4,1284.5,0.25,47,128.72
5602,D5,1284.75,0.25,45,128.72
5603,C5,1285.0,0.25,47,128.72
5604,A4,1285.0,0.5,35,128.72
5605,E-5,1285.25,0.25,45,128.72
5606,D5,1285.5,0.25,47,128.72
5607,G#4,1285.5,0.5,35,128.72
5608,F5,1285.75,0.25,45,128.72
5609,E-5,1286.0,0.25,48,128.72
5610,B-3,1286.0,0.25,43,128.72
5611,G4,1286.0,0.25,43,128.72
5612,B-5,1286.5,0.25,62,128.72
5613,B-4,1286.5,0.5,35,128.72
5614,D6,1286.75,0.25,58,128.72
5615,C6,1287.0,0.25,62,128.72
5616,A4,1287.0,0.5,35,128.72
5617,E-6,1287.25,0.25,59,128.72
5618,D6,1287.5,0.25,62,128.72
5619,G#4,1287.5,0.5,35,128.72
5620,F6,1287.75,0.25,58,128.72
5621,E-6,1288.0,0.25,68,128.72
5622,B-3,1288.0,0.25,46,128.72
5623,G4,1288.0,0.25,46,128.72
5624,B-4,1288.5,0.25,55,128.72
5625,B-4,1288.5,0.5,38,128.72
5626,D5,1288.75,0.25,56,128.72
5627,C5,1289.0,0.25,58,128.72
5628,A4,1289.0,0.5,47,128.72
5629,E-5,1289.25,0.25,59,128.72
5630,D5,1289.5,0.25,61,128.72
5631,G#4,1289.5,0.5,47,128.72
5632,F5,1289.75,0.25,63,128.72
5633,E-5,1290.0,0.25,64,128.72
5634,G4,1290.0,0.5,51,128.72
5635,B-4,1290.25,0.25,67,128.72
5636,F5,1290.5,0.25,68,128.72
5637,D4,1290.5,0.5,49,128.72
5638,B-4,1290.75,0.25,69,128.72
5639,G5,1291.0,0.25,70,128.72
5640,E-4,1291.0,0.5,50,128.72
5641,B-4,1291.25,0.25,72,128.72
5642,A5,1291.5,0.25,74,128.72
5643,C4,1291.5,0.5,50,128.72
5644,B-4,1291.75,0.25,75,128.72
5645,B-5,1292.0,0.25,78,128.72
5646,D3,1292.0,1.0,68,128.72
5647,D4,1292.0,1.0,68,128.72
5648,C6,1292.25,0.25,78,128.72
5649,D6,1292.5,0.25,77,128.72
5650,C6,1292.75,0.25,75,128.72
5651,B-5,1293.0,0.25,74,128.72
5652,G#5,1293.25,0.25,73,128.72
5653,G5,1293.5,0.25,72,128.72
5654,F#5,1293.75,0.25,71,128.72
5655,G5,1294.0,0.25,79,128.72
5656,E-4,1294.0,1.0,69,128.72
5657,E-3,1294.0,1.0,69,128.72
5658,F5,1294.25,0.25,79,128.72
5659,E-5,1294.5,0.25,78,128.72
5660,D5,1294.75,0.25,77,128.72
5661,C5,1295.0,0.25,75,128.72
5662,B-4,1295.25,0.25,74,128.72
5663,A4,1295.5,0.25,73,128.72
5664,G4,1295.75,0.25,73,128.72
5665,F4,1296.0,0.5,82,128.72
5666,F3,1296.0,0.25,48,128.72
5667,D4,1296.25,0.25,41,128.72
5668,F6,1296.5,0.25,82,128.72
5669,B-3,1296.5,0.25,44,128.72
5670,D4,1296.75,0.25,39,128.72
5671,F6,1297.0,0.25,82,128.72
5672,F3,1297.0,0.25,48,128.72
5673,D4,1297.25,0.25,40,128.72
5674,F6,1297.5,0.25,82,128.72
5675,B-3,1297.5,0.25,44,128.72
5676,D4,1297.75,0.25,41,128.72
5677,F6,1298.0,0.25,81,128.72
5678,F3,1298.0,0.25,48,128.72
5679,D6,1298.25,0.25,76,128.72
5680,D4,1298.25,0.25,42,128.72
5681,B-5,1298.5,0.25,71,128.72
5682,B-3,1298.5,0.25,46,128.72
5683,F5,1298.75,0.25,69,128.72
5684,D4,1298.75,0.25,42,128.72
5685,B-5,1299.0,0.25,81,128.72
5686,F3,1299.0,0.25,48,128.72
5687,F5,1299.25,0.25,75,128.72
5688,D4,1299.25,0.25,44,128.72
5689,D5,1299.5,0.25,71,128.72
5690,B-3,1299.5,0.25,46,128.72
5691,B-4,1299.75,0.25,69,128.72
5692,D4,1299.75,0.25,43,128.72
5693,C5,1300.0,167/1000,51,128.72
5694,F3,1300.0,0.25,48,128.72
5695,D5,1300.167,167/1000,46,128.72
5696,E-4,1300.25,0.25,40,128.72
5697,C5,1300.333,167/1000,51,128.72
5698,D5,1300.5,167/1000,46,128.72
5699,A3,1300.5,0.25,43,128.72
5700,C5,1300.667,167/1000,51,128.72
5701,E-4,1300.75,0.25,40,128.72
5702,D5,1300.833,167/1000,46,128.72
5703,C5,1301.0,167/1000,51,128.72
5704,F3,1301.0,0.25,48,128.72
5705,D5,1301.167,167/1000,46,128.72
5706,E-4,1301.25,0.25,39,128.72
5707,C5,1301.333,167/1000,51,128.72
5708,D5,1301.5,167/1000,46,128.72
5709,A3,1301.5,0.25,43,128.72
5710,C5,1301.667,167/1000,51,128.72
5711,E-4,1301.75,0.25,39,128.72
5712,D5,1301.833,167/1000,46,128.72
5713,C5,1302.0,167/1000,51,128.72
5714,F3,1302.0,0.25,48,128.72
5715,D5,1302.167,167/1000,46,128.72
5716,E-4,1302.25,0.25,39,128.72
5717,C5,1302.333,167/1000,51,128.72
5718,D5,1302.5,167/1000,48,128.72
5719,A3,1302.5,0.25,43,128.72
5720,C5,1302.667,167/1000,51,128.72
5721,E-4,1302.75,0.25,38,128.72
5722,D5,1302.833,167/1000,47,128.72
5723,C5,1303.0,0.125,51,128.72
5724,F3,1303.0,0.25,48,128.72
5725,D5,1303.125,0.125,48,128.72
5726,C5,1303.25,0.125,51,128.72
5727,E-4,1303.25,0.25,42,128.72
5728,D5,1303.375,0.125,47,128.72
5729,C5,1303.5,83/1000,51,128.72
5730,A3,1303.5,0.25,45,128.72
5731,D5,1303.583,83/1000,48,128.72
5732,C5,1303.667,83/1000,48,128.72
5733,B-4,1303.75,0.125,62,128.72
5734,E-4,1303.75,0.25,40,128.72
5735,C5,1303.875,0.125,58,128.72
5736,B-4,1304.0,123/250,69,128.72
5737,B-3,1304.0,0.5,51,128.72
5738,B-5,1304.5,0.5,54,128.72
5739,B-4,1304.5,0.5,44,128.72
5740,A4,1305.0,0.5,44,128.72
5741,B-5,1305.5,0.5,58,128.72
5742,B-4,1305.5,0.5,48,128.72
5743,A5,1306.0,0.5,56,128.72
5744,C5,1306.0,0.5,49,128.72
5745,B-5,1306.5,0.5,61,128.72
5746,B-4,1306.5,0.5,52,128.72
5747,C6,1307.0,0.5,68,128.72
5748,A4,1307.0,0.5,56,128.72
5749,D6,1307.5,0.5,72,128.72
5750,G#4,1307.5,0.5,59,128.72
5751,E-6,1308.0,0.25,79,128.72
5752,G4,1308.0,0.5,64,128.72
5753,D6,1308.25,0.25,73,128.72
5754,E-6,1308.5,0.25,76,128.72
5755,B-3,1308.5,0.5,49,128.72
5756,D6,1308.75,0.25,70,128.72
5757,E-6,1309.0,0.25,75,128.72
5758,F#4,1309.0,0.5,58,128.72
5759,C#6,1309.25,0.25,67,128.72
5760,C6,1309.5,0.25,69,128.72
5761,B-3,1309.5,0.5,49,128.72
5762,B-5,1309.75,0.25,65,128.72
5763,A5,1310.0,0.25,67,128.72
5764,F4,1310.0,0.5,57,128.72
5765,B-5,1310.25,0.25,70,128.72
5766,C6,1310.5,0.25,72,128.72
5767,B-3,1310.5,0.5,48,128.72
5768,B-5,1310.75,0.25,67,128.72
5769,A5,1311.0,0.25,69,128.72
5770,A4,1311.0,0.5,55,128.72
5771,G5,1311.25,0.25,66,128.72
5772,F5,1311.5,0.25,66,128.72
5773,B-3,1311.5,0.5,48,128.72
5774,E-5,1311.75,0.25,65,128.72
5775,D5,1312.0,0.25,63,128.72
5776,B-4,1312.0,0.25,53,128.72
5777,D5,1312.5,0.25,49,128.72
5778,B-3,1312.5,0.5,41,128.72
5779,A3,1313.0,0.5,41,128.72
5780,B-4,1313.5,0.5,53,128.72
5781,B-3,1313.5,0.5,37,128.72
5782,A4,1314.0,0.5,49,128.72
5783,C4,1314.0,0.5,45,128.72
5784,B-4,1314.5,0.5,49,128.72
5785,B-3,1314.5,0.5,43,128.72
5786,C5,1315.0,0.5,49,128.72
5787,A3,1315.0,0.5,43,128.72
5788,D5,1315.5,0.5,49,128.72
5789,G#3,1315.5,0.5,38,128.72
5790,E-5,1316.0,0.25,52,128.72
5791,G3,1316.0,1.0,45,128.72
5792,F5,1316.5,0.125,52,128.72
5793,E-5,1316.625,0.125,49,128.72
5794,D5,1316.75,0.125,52,128.72
5795,E-5,1316.875,0.125,48,128.72
5796,F5,1317.0,0.5,54,128.72
5797,E-3,1317.0,1.0,35,128.72
5798,G5,1317.5,479/1000,61,128.72
5799,F3,1318.0,1.0,35,128.72
5800,E-5,1318.0,0.5,49,128.72
5801,G5,1318.0,0.5,49,128.72
5802,D5,1318.5,0.5,42,128.72
5803,F5,1318.5,0.5,42,128.72
5804,F3,1319.0,1.0,35,128.72
5805,E-4,1319.5,0.5,30,128.72
5806,A4,1319.5,0.5,30,128.72
5807,B-3,1320.0,1.0,37,128.72
5808,E-4,1320.0,2.0,45,128.72
5809,C5,1320.0,2.0,45,128.72
5810,F3,1321.0,1.0,28,128.72
5811,B-2,1322.0,0.75,28,128.72
5812,D4,1322.0,0.75,32,128.72
5813,B-4,1322.0,0.75,32,128.72
