,note_name,start_time,duration,velocity,tempo
0,A4,0.0,1.0,64,141.83
1,D5,0.0,1.0,64,141.83
2,F#4,0.0,1.0,64,141.83
3,A2,0.0,1.0,61,141.83
4,D2,0.0,1.0,61,141.83
5,D3,0.0,1.0,61,141.83
6,G5,2.0,11/40,66,141.83
7,F#4,2.0,1.0,41,141.83
8,D4,2.0,1.0,41,141.83
9,F#5,2.25,11/40,55,141.83
10,E5,2.5,11/40,54,141.83
11,F#5,2.75,11/40,54,141.83
12,A5,3.0,11/40,65,141.83
13,E4,3.0,1.0,41,141.83
14,G4,3.0,1.0,41,141.83
15,G5,3.25,11/40,55,141.83
16,F#5,3.5,11/40,55,141.83
17,G5,3.75,0.25,55,141.83
18,A5,4.0,1.0,62,141.83
19,G5,4.0,1/40,55,141.83
20,A4,4.0,1.0,41,141.83
21,F#4,4.0,1.0,41,141.83
22,A5,6.0,0.125,50,141.83
23,B5,6.5,0.125,45,141.83
24,C#6,7.0,0.125,45,141.83
25,D6,7.5,0.125,45,141.83
26,A5,8.0,1.0,54,141.83
27,F#3,8.0,0.5,38,141.83
28,D4,8.5,0.5,32,141.83
29,F#5,9.0,1.0,45,141.83
30,D3,9.0,0.5,38,141.83
31,D4,9.5,0.5,33,141.83
32,A5,10.0,0.25,50,141.83
33,E3,10.0,0.5,37,141.83
34,G5,10.25,0.25,44,141.83
35,F#5,10.5,0.25,44,141.83
36,D4,10.5,0.5,32,141.83
37,G5,10.75,0.25,44,141.83
38,A5,11.0,0.125,49,141.83
39,A3,11.0,0.125,37,141.83
40,G5,11.5,0.125,46,141.83
41,C#4,11.5,0.125,30,141.83
42,F5,12.0,0.5,54,141.83
43,D3,12.0,1.0,42,141.83
44,D4,12.0,1.0,42,141.83
45,F#5,12.5,0.5,45,141.83
46,G5,14.0,11/40,66,141.83
47,D4,14.0,1.0,41,141.83
48,F#4,14.0,1.0,41,141.83
49,F#5,14.25,11/40,55,141.83
50,E5,14.5,11/40,54,141.83
51,F#5,14.75,11/40,54,141.83
52,A5,15.0,11/40,65,141.83
53,E4,15.0,1.0,41,141.83
54,G4,15.0,1.0,41,141.83
55,G5,15.25,11/40,55,141.83
56,F#5,15.5,11/40,55,141.83
57,G5,15.75,0.25,55,141.83
58,A5,16.0,1.0,62,141.83
59,G5,16.0,1/40,55,141.83
60,F#4,16.0,1.0,41,141.83
61,A4,16.0,1.0,41,141.83
62,A5,18.0,0.125,50,141.83
63,B5,18.5,0.125,45,141.83
64,C#6,19.0,0.125,45,141.83
65,D6,19.5,0.125,45,141.83
66,A5,20.0,1.0,54,141.83
67,F#3,20.0,0.5,38,141.83
68,D4,20.5,0.5,32,141.83
69,F#5,21.0,1.0,45,141.83
70,D3,21.0,0.5,38,141.83
71,D4,21.5,0.5,33,141.83
72,A5,22.0,0.25,50,141.83
73,E3,22.0,0.5,37,141.83
74,G5,22.25,0.25,44,141.83
75,F#5,22.5,0.25,44,141.83
76,D4,22.5,0.5,32,141.83
77,G5,22.75,0.25,44,141.83
78,A5,23.0,0.25,50,141.83
79,A3,23.0,0.5,37,141.83
80,G5,23.25,0.25,44,141.83
81,F#5,23.5,0.25,44,141.83
82,C#4,23.5,0.5,32,141.83
83,E5,23.75,0.25,44,141.83
84,D5,24.0,0.25,50,141.83
85,D4,24.0,0.25,37,141.83
86,F#4,24.5,0.25,26,141.83
87,A4,25.0,0.25,42,141.83
88,D4,25.0,0.25,35,141.83
89,F#4,25.5,0.25,28,141.83
90,F#5,26.0,183/1000,47,141.83
91,D4,26.0,0.25,36,141.83
92,G5,26.167,183/1000,43,141.83
93,F#5,26.333,183/1000,48,141.83
94,G5,26.5,183/1000,43,141.83
95,F#4,26.5,0.25,26,141.83
96,F#5,26.665,183/1000,48,141.83
97,G5,26.831,183/1000,44,141.83
98,F#5,26.998,183/1000,48,141.83
99,D4,27.0,0.25,35,141.83
100,G5,27.165,183/1000,44,141.83
101,F#5,27.331,183/1000,44,141.83
102,E5,27.5,11/40,48,141.83
103,F#4,27.5,0.25,30,141.83
104,D5,27.75,0.25,44,141.83
105,C#5,28.0,0.25,50,141.83
106,D5,28.0,1/40,44,141.83
107,E4,28.0,0.25,37,141.83
108,G4,28.5,0.25,29,141.83
109,A4,29.0,0.25,42,141.83
110,E4,29.0,0.25,37,141.83
111,G4,29.5,0.25,29,141.83
112,E5,30.0,0.25,50,141.83
113,E4,30.0,11/40,43,141.83
114,F#4,30.25,11/40,38,141.83
115,G4,30.5,11/40,38,141.83
116,F#4,30.75,11/40,38,141.83
117,E4,31.0,11/40,38,141.83
118,D4,31.25,11/40,40,141.83
119,C#4,31.5,11/40,40,141.83
120,B3,31.75,0.25,40,141.83
121,E5,32.0,0.25,50,141.83
122,A3,32.0,0.25,37,141.83
123,B3,32.0,1/40,40,141.83
124,C#4,32.5,0.25,26,141.83
125,A4,33.0,0.25,42,141.83
126,A3,33.0,0.25,35,141.83
127,C#4,33.5,0.25,28,141.83
128,G5,34.0,183/1000,47,141.83
129,A3,34.0,0.25,36,141.83
130,A5,34.167,183/1000,43,141.83
131,G5,34.333,183/1000,48,141.83
132,A5,34.5,183/1000,43,141.83
133,C#4,34.5,0.25,26,141.83
134,G5,34.665,183/1000,48,141.83
135,A5,34.831,183/1000,44,141.83
136,G5,34.998,183/1000,48,141.83
137,G3,35.0,0.25,35,141.83
138,A5,35.165,183/1000,44,141.83
139,G5,35.331,183/1000,44,141.83
140,F#5,35.5,11/40,48,141.83
141,C#4,35.5,0.25,30,141.83
142,E5,35.75,0.25,44,141.83
143,D5,36.0,0.25,50,141.83
144,E5,36.0,1/40,44,141.83
145,F#3,36.0,0.25,37,141.83
146,D4,36.5,0.25,29,141.83
147,A4,37.0,0.25,42,141.83
148,F#3,37.0,0.25,37,141.83
149,D4,37.5,0.25,29,141.83
150,F#5,38.0,0.25,50,141.83
151,F#3,38.0,11/40,43,141.83
152,D3,38.25,11/40,36,141.83
153,E3,38.5,11/40,37,141.83
154,F#3,38.75,11/40,38,141.83
155,G3,39.0,11/40,39,141.83
156,A3,39.25,11/40,40,141.83
157,B3,39.5,11/40,41,141.83
158,C#4,39.75,0.25,42,141.83
159,F#5,40.0,0.25,54,141.83
160,D4,40.0,1.0,44,141.83
161,C#4,40.0,1/40,42,141.83
162,D5,40.25,11/40,47,141.83
163,E5,40.5,11/40,48,141.83
164,F#5,40.75,11/40,49,141.83
165,G5,41.0,11/40,50,141.83
166,A5,41.25,11/40,51,141.83
167,B5,41.5,11/40,52,141.83
168,C#6,41.75,11/40,53,141.83
169,D6,42.0,11/40,55,141.83
170,C#6,42.25,11/40,56,141.83
171,B5,42.5,11/40,56,141.83
172,A3,42.5,0.25,34,141.83
173,F#3,42.5,0.25,34,141.83
174,A5,42.75,11/40,56,141.83
175,G5,43.0,11/40,56,141.83
176,F#3,43.0,0.25,34,141.83
177,A3,43.0,0.25,34,141.83
178,F#5,43.25,11/40,55,141.83
179,E5,43.5,11/40,50,141.83
180,A3,43.5,0.25,34,141.83
181,F#3,43.5,0.25,34,141.83
182,D5,43.75,0.25,49,141.83
183,E5,44.0,11/40,51,141.83
184,D5,44.0,1/40,49,141.83
185,G3,44.0,1.0,40,141.83
186,B3,44.0,1.0,40,141.83
187,F#5,44.25,11/40,48,141.83
188,E5,44.5,11/40,45,141.83
189,E-5,44.75,11/40,43,141.83
190,E5,45.0,11/40,45,141.83
191,F#5,45.25,11/40,47,141.83
192,G5,45.5,11/40,49,141.83
193,A5,45.75,11/40,51,141.83
194,B5,46.0,11/40,53,141.83
195,A5,46.25,11/40,54,141.83
196,G5,46.5,11/40,53,141.83
197,G3,46.5,0.25,33,141.83
198,B3,46.5,0.25,33,141.83
199,F#5,46.75,11/40,51,141.83
200,E5,47.0,11/40,49,141.83
201,B3,47.0,0.25,33,141.83
202,G3,47.0,0.25,33,141.83
203,D5,47.25,11/40,48,141.83
204,C#5,47.5,11/40,46,141.83
205,B3,47.5,0.25,33,141.83
206,G#3,47.5,0.25,33,141.83
207,B4,47.75,0.25,44,141.83
208,C#5,48.0,11/40,50,141.83
209,B4,48.0,1/40,44,141.83
210,A3,48.0,0.5,46,141.83
211,D5,48.25,11/40,42,141.83
212,C#5,48.5,11/40,42,141.83
213,G3,48.5,0.5,40,141.83
214,A4,48.75,11/40,40,141.83
215,D5,49.0,0.25,47,141.83
216,F#3,49.0,0.25,40,141.83
217,D3,49.5,0.25,40,141.83
218,G5,50.0,11/40,55,141.83
219,C#3,50.0,0.5,50,141.83
220,A5,50.25,11/40,46,141.83
221,G5,50.5,11/40,46,141.83
222,A2,50.5,0.5,44,141.83
223,E5,50.75,11/40,46,141.83
224,G5,51.0,11/40,56,141.83
225,D3,51.0,0.25,44,141.83
226,F#5,51.25,11/40,47,141.83
227,E5,51.5,11/40,48,141.83
228,F#3,51.5,0.25,44,141.83
229,D5,51.75,0.25,48,141.83
230,C#5,52.0,11/40,57,141.83
231,D5,52.0,1/40,48,141.83
232,A3,52.0,0.5,51,141.83
233,D5,52.25,11/40,44,141.83
234,C#5,52.5,11/40,44,141.83
235,G3,52.5,0.5,44,141.83
236,A4,52.75,11/40,44,141.83
237,D5,53.0,0.25,57,141.83
238,F#3,53.0,0.25,45,141.83
239,D3,53.5,0.25,45,141.83
240,G5,54.0,11/40,65,141.83
241,C#3,54.0,0.5,54,141.83
242,A5,54.25,11/40,54,141.83
243,G5,54.5,11/40,54,141.83
244,A2,54.5,0.5,47,141.83
245,E5,54.75,11/40,56,141.83
246,G5,55.0,11/40,69,141.83
247,D3,55.0,0.25,48,141.83
248,F#5,55.25,11/40,56,141.83
249,E5,55.5,11/40,56,141.83
250,F#3,55.5,0.25,48,141.83
251,D5,55.75,0.25,59,141.83
252,C#5,56.0,0.25,79,141.83
253,D5,56.0,1/40,59,141.83
254,E3,56.0,0.5,53,141.83
255,A3,56.0,0.5,53,141.83
256,A2,56.0,0.5,53,141.83
257,E5,56.25,0.25,63,141.83
258,C#5,56.5,0.25,63,141.83
259,A4,56.75,0.25,63,141.83
260,F#5,57.0,0.25,74,141.83
261,D3,57.0,0.5,54,141.83
262,A3,57.0,0.5,54,141.83
263,F#3,57.0,0.5,54,141.83
264,A5,57.25,0.25,64,141.83
265,F#5,57.5,0.25,64,141.83
266,D5,57.75,0.25,64,141.83
267,C#5,58.0,0.25,77,141.83
268,A3,58.0,0.5,54,141.83
269,E3,58.0,0.5,54,141.83
270,A2,58.0,0.5,54,141.83
271,E5,58.25,0.25,64,141.83
272,C#5,58.5,0.25,64,141.83
273,A4,58.75,0.25,64,141.83
274,F#5,59.0,0.25,77,141.83
275,D3,59.0,0.5,55,141.83
276,F#3,59.0,0.5,55,141.83
277,A3,59.0,0.5,55,141.83
278,A5,59.25,0.25,64,141.83
279,F#5,59.5,0.25,64,141.83
280,D5,59.75,0.25,64,141.83
281,C#5,60.0,0.188,76,141.83
282,E5,60.0,0.188,76,141.83
283,A5,60.5,0.188,65,141.83
284,C#5,60.5,0.188,65,141.83
285,E5,60.5,0.188,65,141.83
286,A2,60.5,0.188,48,141.83
287,A3,60.5,0.188,48,141.83
288,E3,60.5,0.188,48,141.83
289,C#3,60.5,0.188,48,141.83
290,E5,61.0,0.188,65,141.83
291,C#5,61.0,0.188,65,141.83
292,A5,61.0,0.188,65,141.83
293,E3,61.0,0.188,48,141.83
294,C#3,61.0,0.188,48,141.83
295,A2,61.0,0.188,48,141.83
296,A3,61.0,0.188,48,141.83
297,E5,61.5,0.188,65,141.83
298,C#5,61.5,0.188,65,141.83
299,A5,61.5,0.188,65,141.83
300,A2,61.5,0.188,48,141.83
301,E3,61.5,0.188,48,141.83
302,C#3,61.5,0.188,48,141.83
303,A3,61.5,0.188,48,141.83
304,C#5,62.0,0.875,65,141.83
305,A5,62.0,0.875,65,141.83
306,E5,62.0,0.875,65,141.83
307,C#3,62.0,0.875,51,141.83
308,A3,62.0,0.875,51,141.83
309,E3,62.0,0.875,51,141.83
310,A2,62.0,0.875,51,141.83
311,D5,62.875,0.125,41,141.83
312,C#5,63.0,0.25,42,141.83
313,B4,63.25,0.25,40,141.83
314,C#5,63.5,0.25,40,141.83
315,D5,63.75,0.25,40,141.83
316,E-5,64.0,0.5,45,141.83
317,A3,64.0,0.5,34,141.83
318,E5,64.5,0.5,42,141.83
319,C#4,64.5,0.5,27,141.83
320,B3,65.0,0.5,30,141.83
321,E5,65.5,0.5,40,141.83
322,D4,65.5,0.5,27,141.83
323,A5,66.0,0.5,46,141.83
324,C#4,66.0,0.5,32,141.83
325,G#5,66.5,0.5,42,141.83
326,E4,66.5,0.5,26,141.83
327,F#5,67.0,0.5,44,141.83
328,A3,67.0,0.5,29,141.83
329,E5,67.5,0.5,42,141.83
330,C#4,67.5,0.5,26,141.83
331,C#5,68.0,0.5,48,141.83
332,B3,68.0,0.5,34,141.83
333,D5,68.5,0.5,42,141.83
334,F#4,68.5,0.5,28,141.83
335,D4,69.0,0.5,32,141.83
336,D5,69.5,0.5,40,141.83
337,B3,69.5,0.5,28,141.83
338,E5,70.0,0.5,45,141.83
339,G#3,70.0,0.5,34,141.83
340,D5,70.5,0.5,42,141.83
341,B3,70.5,0.5,29,141.83
342,C#5,71.0,0.5,45,141.83
343,E3,71.0,0.5,30,141.83
344,B4,71.5,0.5,42,141.83
345,D4,71.5,0.5,28,141.83
346,G#4,72.0,0.5,48,141.83
347,C#4,72.0,0.5,34,141.83
348,A4,72.5,0.5,44,141.83
349,E4,72.5,0.5,28,141.83
350,G#3,73.0,0.5,30,141.83
351,B4,73.5,0.5,45,141.83
352,E4,73.5,0.5,28,141.83
353,C5,74.0,0.5,50,141.83
354,A3,74.0,0.5,34,141.83
355,C#5,74.5,0.5,46,141.83
356,E4,74.5,0.5,26,141.83
357,F#3,75.0,0.5,29,141.83
358,E5,75.375,0.125,42,141.83
359,D5,75.5,0.5,47,141.83
360,A3,75.5,0.5,26,141.83
361,C#5,76.0,1.5,51,141.83
362,E3,76.0,0.5,34,141.83
363,A3,76.5,0.5,27,141.83
364,C#4,77.0,0.5,30,141.83
365,D5,77.5,0.25,44,141.83
366,A3,77.5,0.5,27,141.83
367,C#5,77.75,0.25,42,141.83
368,B4,78.0,0.5,47,141.83
369,E3,78.0,1.0,33,141.83
370,G#3,78.0,1.0,33,141.83
371,C#5,78.5,0.25,42,141.83
372,D5,79.0,0.25,44,141.83
373,E-5,79.5,0.25,47,141.83
374,E-5,80.0,0.5,43,141.83
375,A3,80.0,0.5,34,141.83
376,E5,80.5,0.5,42,141.83
377,C#4,80.5,0.5,27,141.83
378,B3,81.0,0.5,30,141.83
379,F#5,81.5,0.125,40,141.83
380,D4,81.5,0.5,27,141.83
381,E5,81.625,0.125,37,141.83
382,E-5,81.75,0.125,37,141.83
383,E5,81.875,0.125,37,141.83
384,A5,82.0,0.25,46,141.83
385,C#4,82.0,0.5,32,141.83
386,G#5,82.5,0.25,42,141.83
387,E4,82.5,0.25,26,141.83
388,F#5,83.0,0.25,44,141.83
389,A3,83.0,0.5,29,141.83
390,E5,83.5,0.25,42,141.83
391,C#4,83.5,0.25,26,141.83
392,C#5,84.0,0.5,48,141.83
393,B3,84.0,0.5,34,141.83
394,D5,84.5,0.5,42,141.83
395,F#4,84.5,0.5,28,141.83
396,D4,85.0,0.5,32,141.83
397,E5,85.5,0.125,40,141.83
398,B3,85.5,0.5,28,141.83
399,D5,85.625,0.125,37,141.83
400,C#5,85.75,0.125,37,141.83
401,D5,85.875,0.125,37,141.83
402,E5,86.0,0.25,45,141.83
403,G#3,86.0,0.5,34,141.83
404,D5,86.5,0.25,42,141.83
405,B3,86.5,0.25,29,141.83
406,C#5,87.0,0.25,45,141.83
407,E3,87.0,0.5,30,141.83
408,B4,87.5,0.25,42,141.83
409,G#3,87.5,0.25,28,141.83
410,C#5,88.0,0.75,45,141.83
411,A3,88.0,1.0,30,141.83
412,E5,88.75,0.25,42,141.83
413,F#4,89.0,0.75,45,141.83
414,D4,89.0,1.0,30,141.83
415,D3,89.0,1.0,30,141.83
416,B4,89.75,0.25,41,141.83
417,A4,90.0,1.0,45,141.83
418,C#4,90.0,1.0,30,141.83
419,E3,90.0,2.0,30,141.83
420,G#4,91.0,0.125,43,141.83
421,B3,91.0,1.0,30,141.83
422,A4,91.125,0.125,39,141.83
423,G#4,91.25,0.125,43,141.83
424,A4,91.375,0.125,40,141.83
425,G#4,91.5,167/1000,43,141.83
426,F#4,91.667,167/1000,40,141.83
427,G#4,91.833,167/1000,40,141.83
428,A4,92.0,0.25,46,141.83
429,A3,92.0,1.0,38,141.83
430,E5,92.25,0.25,44,141.83
431,E-5,92.5,0.25,47,141.83
432,E5,92.75,0.25,43,141.83
433,F#5,93.0,0.25,50,141.83
434,E5,93.25,0.25,47,141.83
435,E-5,93.5,0.25,51,141.83
436,A4,93.5,0.25,49,141.83
437,E5,93.75,0.25,51,141.83
438,D5,94.0,0.25,59,141.83
439,B4,94.0,0.25,55,141.83
440,E5,94.25,0.25,50,141.83
441,D5,94.5,0.25,52,141.83
442,A4,94.5,0.25,49,141.83
443,E5,94.75,0.25,50,141.83
444,D5,95.0,0.25,62,141.83
445,G#4,95.0,0.25,56,141.83
446,E5,95.25,0.25,49,141.83
447,D5,95.5,0.25,52,141.83
448,E4,95.5,0.25,48,141.83
449,E5,95.75,0.25,49,141.83
450,C#5,96.0,0.25,50,141.83
451,A4,96.0,1.0,55,141.83
452,E5,96.25,0.25,44,141.83
453,E-5,96.5,0.25,47,141.83
454,E5,96.75,0.25,43,141.83
455,F#5,97.0,0.25,50,141.83
456,E5,97.25,0.25,47,141.83
457,E-5,97.5,0.25,51,141.83
458,A3,97.5,0.25,50,141.83
459,E5,97.75,0.25,51,141.83
460,D5,98.0,0.25,59,141.83
461,B3,98.0,0.25,56,141.83
462,E5,98.25,0.25,50,141.83
463,D5,98.5,0.25,52,141.83
464,A3,98.5,0.25,50,141.83
465,E5,98.75,0.25,50,141.83
466,D5,99.0,0.25,62,141.83
467,G#3,99.0,0.25,56,141.83
468,E5,99.25,0.25,49,141.83
469,D5,99.5,0.25,52,141.83
470,E3,99.5,0.25,51,141.83
471,E5,99.75,0.25,49,141.83
472,A4,100.0,1.0,41,141.83
473,A3,100.0,0.25,45,141.83
474,E4,100.25,0.25,35,141.83
475,E-4,100.5,0.25,37,141.83
476,E4,100.75,0.25,34,141.83
477,F#4,101.0,0.25,40,141.83
478,E4,101.25,0.25,37,141.83
479,A5,101.5,0.25,57,141.83
480,E-4,101.5,0.25,40,141.83
481,E4,101.75,0.25,40,141.83
482,B5,102.0,0.25,63,141.83
483,D4,102.0,0.25,47,141.83
484,E4,102.25,0.25,39,141.83
485,A5,102.5,0.25,58,141.83
486,D4,102.5,0.25,41,141.83
487,E4,102.75,0.25,39,141.83
488,G#5,103.0,0.25,63,141.83
489,D4,103.0,0.25,49,141.83
490,E4,103.25,0.25,39,141.83
491,E5,103.5,0.25,58,141.83
492,D4,103.5,0.25,41,141.83
493,E4,103.75,0.25,39,141.83
494,A5,104.0,1.0,60,141.83
495,C#4,104.0,0.25,39,141.83
496,E4,104.25,0.25,35,141.83
497,E-4,104.5,0.25,37,141.83
498,E4,104.75,0.25,34,141.83
499,F#4,105.0,0.25,40,141.83
500,E4,105.25,0.25,37,141.83
501,A2,105.5,0.25,57,141.83
502,E-4,105.5,0.25,40,141.83
503,E4,105.75,0.25,40,141.83
504,B2,106.0,0.25,63,141.83
505,D4,106.0,0.25,47,141.83
506,E4,106.25,0.25,39,141.83
507,A2,106.5,0.25,58,141.83
508,D4,106.5,0.25,41,141.83
509,E4,106.75,0.25,39,141.83
510,G#2,107.0,0.25,60,141.83
511,D4,107.0,0.25,49,141.83
512,E4,107.25,0.25,39,141.83
513,E2,107.5,0.25,58,141.83
514,D4,107.5,0.25,41,141.83
515,E4,107.75,0.25,39,141.83
516,A2,108.0,1.0,60,141.83
517,C#4,108.0,1.0,41,141.83
518,E5,109.0,1.0,50,141.83
519,C#4,109.0,0.25,35,141.83
520,A4,109.25,0.25,29,141.83
521,C#4,109.5,0.25,29,141.83
522,A4,109.75,0.25,29,141.83
523,D5,110.0,1.0,47,141.83
524,B3,110.0,0.25,35,141.83
525,A4,110.25,0.25,30,141.83
526,B3,110.5,0.25,30,141.83
527,A4,110.75,0.25,30,141.83
528,C#5,111.0,1.0,46,141.83
529,A3,111.0,0.25,35,141.83
530,A4,111.25,0.25,31,141.83
531,A3,111.5,0.25,31,141.83
532,A4,111.75,0.25,31,141.83
533,F#5,112.0,0.75,50,141.83
534,D4,112.0,0.25,35,141.83
535,A4,112.25,0.25,30,141.83
536,G#4,112.5,0.25,30,141.83
537,G#5,112.75,83/1000,45,141.83
538,A4,112.75,0.25,30,141.83
539,F#5,112.833,83/1000,45,141.83
540,E5,112.919,83/1000,45,141.83
541,F#5,113.0,0.25,50,141.83
542,D4,113.0,0.25,35,141.83
543,A4,113.25,0.25,30,141.83
544,G#5,113.5,0.25,47,141.83
545,G#4,113.5,0.25,30,141.83
546,A4,113.75,0.25,30,141.83
547,B5,114.0,0.5,50,141.83
548,D4,114.0,0.25,30,141.83
549,A4,114.25,0.25,32,141.83
550,A5,114.5,0.5,45,141.83
551,G#4,114.5,0.25,32,141.83
552,A4,114.75,0.25,32,141.83
553,G#5,115.0,0.5,47,141.83
554,D4,115.0,0.25,34,141.83
555,A4,115.25,0.25,30,141.83
556,F#5,115.5,0.5,45,141.83
557,G#4,115.5,0.25,30,141.83
558,A4,115.75,0.25,30,141.83
559,E5,116.0,0.5,50,141.83
560,C#4,116.0,0.25,37,141.83
561,A4,116.25,0.25,37,141.83
562,G#4,116.5,0.25,28,141.83
563,A4,116.75,0.25,28,141.83
564,E5,117.0,1.0,60,141.83
565,C#4,117.0,0.25,45,141.83
566,A4,117.25,0.25,37,141.83
567,C#4,117.5,0.25,37,141.83
568,A4,117.75,0.25,37,141.83
569,D5,118.0,1.0,60,141.83
570,B3,118.0,0.25,45,141.83
571,A4,118.25,0.25,39,141.83
572,B3,118.5,0.25,39,141.83
573,A4,118.75,0.25,39,141.83
574,C#5,119.0,1.0,59,141.83
575,A3,119.0,0.25,45,141.83
576,A4,119.25,0.25,40,141.83
577,A3,119.5,0.25,40,141.83
578,A4,119.75,0.25,40,141.83
579,B4,120.0,0.75,68,141.83
580,D3,120.0,0.25,45,141.83
581,B3,120.25,0.25,39,141.83
582,F#3,120.5,0.25,39,141.83
583,F#5,120.75,0.25,53,141.83
584,B3,120.75,0.25,39,141.83
585,E5,121.0,0.25,60,141.83
586,D3,121.0,0.25,45,141.83
587,D5,121.25,0.25,58,141.83
588,B3,121.25,0.25,39,141.83
589,C#5,121.5,0.25,58,141.83
590,F#3,121.5,0.25,39,141.83
591,B4,121.75,0.25,58,141.83
592,B3,121.75,0.25,39,141.83
593,A4,122.0,1.0,63,141.83
594,E3,122.0,0.25,39,141.83
595,C#4,122.25,0.25,41,141.83
596,A3,122.5,0.25,41,141.83
597,C#4,122.75,0.25,41,141.83
598,B4,123.0,0.125,55,141.83
599,E3,123.0,0.25,44,141.83
600,C#5,123.125,0.125,49,141.83
601,B4,123.25,0.125,56,141.83
602,D4,123.25,0.25,39,141.83
603,C#5,123.375,0.125,50,141.83
604,B4,123.5,167/1000,56,141.83
605,G#3,123.5,0.25,39,141.83
606,A4,123.667,167/1000,48,141.83
607,D4,123.75,0.25,39,141.83
608,B4,123.833,167/1000,48,141.83
609,A4,124.0,0.5,66,141.83
610,A3,124.0,0.25,48,141.83
611,E4,124.25,0.25,42,141.83
612,C#4,124.5,0.25,36,141.83
613,E4,124.75,0.25,36,141.83
614,E5,125.0,1.0,50,141.83
615,C#4,125.0,0.25,35,141.83
616,A4,125.25,0.25,29,141.83
617,C#4,125.5,0.25,29,141.83
618,A4,125.75,0.25,29,141.83
619,D5,126.0,1.0,47,141.83
620,B3,126.0,0.25,35,141.83
621,A4,126.25,0.25,30,141.83
622,B3,126.5,0.25,30,141.83
623,A4,126.75,0.25,30,141.83
624,C#5,127.0,1.0,46,141.83
625,A3,127.0,0.25,35,141.83
626,A4,127.25,0.25,31,141.83
627,A3,127.5,0.25,31,141.83
628,A4,127.75,0.25,31,141.83
629,F#5,128.0,0.75,50,141.83
630,D4,128.0,0.25,35,141.83
631,A4,128.25,0.25,30,141.83
632,G#4,128.5,0.25,30,141.83
633,G#5,128.75,83/1000,45,141.83
634,A4,128.75,0.25,30,141.83
635,F#5,128.833,83/1000,45,141.83
636,E5,128.919,83/1000,45,141.83
637,F#5,129.0,0.25,50,141.83
638,D4,129.0,0.25,35,141.83
639,A4,129.25,0.25,30,141.83
640,G#5,129.5,0.25,47,141.83
641,G#4,129.5,0.25,30,141.83
642,A4,129.75,0.25,30,141.83
643,B5,130.0,0.5,50,141.83
644,D4,130.0,0.25,30,141.83
645,A4,130.25,0.25,32,141.83
646,A5,130.5,0.5,45,141.83
647,G#4,130.5,0.25,32,141.83
648,A4,130.75,0.25,32,141.83
649,G#5,131.0,0.5,47,141.83
650,D4,131.0,0.25,34,141.83
651,A4,131.25,0.25,30,141.83
652,F#5,131.5,0.5,45,141.83
653,G#4,131.5,0.25,30,141.83
654,A4,131.75,0.25,30,141.83
655,E5,132.0,0.5,50,141.83
656,C#4,132.0,0.25,37,141.83
657,A4,132.25,0.25,37,141.83
658,G#4,132.5,0.25,28,141.83
659,A4,132.75,0.25,28,141.83
660,E5,133.0,1.0,60,141.83
661,C#4,133.0,0.25,45,141.83
662,A4,133.25,0.25,37,141.83
663,C#4,133.5,0.25,37,141.83
664,A4,133.75,0.25,37,141.83
665,D5,134.0,1.0,60,141.83
666,B3,134.0,0.25,45,141.83
667,A4,134.25,0.25,39,141.83
668,B3,134.5,0.25,39,141.83
669,A4,134.75,0.25,39,141.83
670,C#5,135.0,1.0,59,141.83
671,A3,135.0,0.25,45,141.83
672,A4,135.25,0.25,40,141.83
673,A3,135.5,0.25,40,141.83
674,A4,135.75,0.25,40,141.83
675,B4,136.0,0.75,68,141.83
676,D3,136.0,0.25,45,141.83
677,B3,136.25,0.25,39,141.83
678,F#3,136.5,0.25,39,141.83
679,F#5,136.75,0.25,53,141.83
680,B3,136.75,0.25,39,141.83
681,E5,137.0,0.25,60,141.83
682,D3,137.0,0.25,45,141.83
683,D5,137.25,0.25,58,141.83
684,B3,137.25,0.25,39,141.83
685,C#5,137.5,0.25,58,141.83
686,F#3,137.5,0.25,39,141.83
687,B4,137.75,0.25,58,141.83
688,B3,137.75,0.25,39,141.83
689,A4,138.0,1.0,63,141.83
690,E3,138.0,0.25,39,141.83
691,C#4,138.25,0.25,41,141.83
692,A3,138.5,0.25,41,141.83
693,C#4,138.75,0.25,41,141.83
694,B4,139.0,0.125,55,141.83
695,E3,139.0,0.25,44,141.83
696,C#5,139.125,0.125,49,141.83
697,B4,139.25,0.125,56,141.83
698,D4,139.25,0.25,39,141.83
699,C#5,139.375,0.125,50,141.83
700,B4,139.5,167/1000,56,141.83
701,G#3,139.5,0.25,39,141.83
702,A4,139.667,167/1000,48,141.83
703,D4,139.75,0.25,39,141.83
704,B4,139.833,167/1000,48,141.83
705,A4,140.0,0.25,66,141.83
706,C#4,140.0,1.0,50,141.83
707,A3,140.0,1.0,50,141.83
708,E4,140.25,0.25,59,141.83
709,A4,140.5,0.25,66,141.83
710,C#5,140.75,0.25,58,141.83
711,E5,141.0,0.25,66,141.83
712,C#5,141.25,0.25,60,141.83
713,D5,141.5,0.25,66,141.83
714,E3,141.5,0.25,49,141.83
715,G#3,141.5,0.25,49,141.83
716,B3,141.5,0.25,49,141.83
717,B4,141.75,0.25,59,141.83
718,A4,142.0,0.25,66,141.83
719,A3,142.0,1.0,50,141.83
720,C#4,142.0,1.0,50,141.83
721,E4,142.25,0.25,59,141.83
722,A4,142.5,0.25,66,141.83
723,C#5,142.75,0.25,58,141.83
724,E5,143.0,0.25,66,141.83
725,C#5,143.25,0.25,60,141.83
726,D5,143.5,0.25,66,141.83
727,E3,143.5,0.25,49,141.83
728,B3,143.5,0.25,49,141.83
729,G#3,143.5,0.25,49,141.83
730,B4,143.75,0.25,59,141.83
731,A4,144.0,0.5,75,141.83
732,C#4,144.0,0.5,58,141.83
733,A3,144.0,0.5,58,141.83
734,G#5,145.0,0.5,68,141.83
735,B4,145.0,0.5,68,141.83
736,D5,145.0,0.5,68,141.83
737,F2,145.0,0.5,58,141.83
738,F3,145.0,0.5,58,141.83
739,A5,146.0,0.5,68,141.83
740,C#5,146.0,0.5,68,141.83
741,A4,146.0,0.5,68,141.83
742,F#2,146.0,0.5,58,141.83
743,F#3,146.0,0.5,58,141.83
744,D3,148.0,2.0,40,141.83
745,F#4,148.0,0.5,43,141.83
746,D5,148.0,0.5,43,141.83
747,E4,148.5,0.25,40,141.83
748,C#5,148.5,0.25,40,141.83
749,C#5,149.0,0.5,43,141.83
750,E4,149.0,0.5,43,141.83
751,D4,149.5,0.25,38,141.83
752,B4,149.5,0.25,38,141.83
753,E3,150.0,2.0,40,141.83
754,B4,150.0,0.5,43,141.83
755,D4,150.0,0.5,43,141.83
756,C#4,150.5,0.25,38,141.83
757,A4,150.5,0.25,38,141.83
758,C#4,151.0,0.5,43,141.83
759,A4,151.0,0.5,43,141.83
760,G#4,151.5,0.25,38,141.83
761,B3,151.5,0.25,38,141.83
762,A3,152.0,1.0,39,141.83
763,D4,152.0,2.0,45,141.83
764,B3,152.0,2.0,45,141.83
765,G#4,152.0,2.0,45,141.83
766,E3,153.0,1.0,39,141.83
767,A2,154.0,1.0,35,141.83
768,C#4,154.0,1.0,38,141.83
769,A4,154.0,1.0,38,141.83
770,F#4,156.0,1.0,64,141.83
771,A4,156.0,1.0,64,141.83
772,D5,156.0,1.0,64,141.83
773,D2,156.0,1.0,61,141.83
774,D3,156.0,1.0,61,141.83
775,A2,156.0,1.0,61,141.83
776,G5,158.0,11/40,66,141.83
777,F#4,158.0,1.0,41,141.83
778,D4,158.0,1.0,41,141.83
779,F#5,158.25,11/40,55,141.83
780,E5,158.5,11/40,54,141.83
781,F#5,158.75,11/40,54,141.83
782,A5,159.0,11/40,65,141.83
783,G4,159.0,1.0,41,141.83
784,E4,159.0,1.0,41,141.83
785,G5,159.25,11/40,55,141.83
786,F#5,159.5,11/40,55,141.83
787,G5,159.75,0.25,55,141.83
788,A5,160.0,1.0,62,141.83
789,G5,160.0,1/40,55,141.83
790,F#4,160.0,1.0,41,141.83
791,A4,160.0,1.0,41,141.83
792,A5,162.0,0.125,50,141.83
793,B5,162.5,0.125,45,141.83
794,C#6,163.0,0.125,45,141.83
795,D6,163.5,0.125,45,141.83
796,A5,164.0,1.0,54,141.83
797,F#3,164.0,0.5,38,141.83
798,D4,164.5,0.5,32,141.83
799,F#5,165.0,1.0,45,141.83
800,D3,165.0,0.5,38,141.83
801,D4,165.5,0.5,33,141.83
802,A5,166.0,0.25,50,141.83
803,E3,166.0,0.5,37,141.83
804,G5,166.25,0.25,44,141.83
805,F#5,166.5,0.25,44,141.83
806,D4,166.5,0.5,32,141.83
807,G5,166.75,0.25,44,141.83
808,A5,167.0,0.125,49,141.83
809,A3,167.0,0.125,37,141.83
810,G5,167.5,0.125,46,141.83
811,C#4,167.5,0.125,30,141.83
812,F5,168.0,0.5,54,141.83
813,D4,168.0,1.0,42,141.83
814,D3,168.0,1.0,42,141.83
815,F#5,168.5,0.5,45,141.83
816,G5,170.0,11/40,66,141.83
817,D4,170.0,1.0,41,141.83
818,F#4,170.0,1.0,41,141.83
819,F#5,170.25,11/40,55,141.83
820,E5,170.5,11/40,54,141.83
821,F#5,170.75,11/40,54,141.83
822,A5,171.0,11/40,65,141.83
823,G4,171.0,1.0,41,141.83
824,E4,171.0,1.0,41,141.83
825,G5,171.25,11/40,55,141.83
826,F#5,171.5,11/40,55,141.83
827,G5,171.75,0.25,55,141.83
828,A5,172.0,1.0,62,141.83
829,G5,172.0,1/40,55,141.83
830,A4,172.0,1.0,41,141.83
831,F#4,172.0,1.0,41,141.83
832,A5,174.0,0.125,50,141.83
833,B5,174.5,0.125,45,141.83
834,C#6,175.0,0.125,45,141.83
835,D6,175.5,0.125,45,141.83
836,A5,176.0,1.0,54,141.83
837,F#3,176.0,0.5,38,141.83
838,D4,176.5,0.5,32,141.83
839,F#5,177.0,1.0,45,141.83
840,D3,177.0,0.5,38,141.83
841,D4,177.5,0.5,33,141.83
842,A5,178.0,0.25,50,141.83
843,E3,178.0,0.5,37,141.83
844,G5,178.25,0.25,44,141.83
845,F#5,178.5,0.25,44,141.83
846,D4,178.5,0.5,32,141.83
847,G5,178.75,0.25,44,141.83
848,A5,179.0,0.25,50,141.83
849,A3,179.0,0.5,37,141.83
850,G5,179.25,0.25,44,141.83
851,F#5,179.5,0.25,44,141.83
852,C#4,179.5,0.5,32,141.83
853,E5,179.75,0.25,44,141.83
854,D5,180.0,0.25,50,141.83
855,D4,180.0,0.25,37,141.83
856,F#4,180.5,0.25,26,141.83
857,A4,181.0,0.25,42,141.83
858,D4,181.0,0.25,35,141.83
859,F#4,181.5,0.25,28,141.83
860,F#5,182.0,183/1000,47,141.83
861,D4,182.0,0.25,36,141.83
862,G5,182.167,183/1000,43,141.83
863,F#5,182.333,183/1000,48,141.83
864,G5,182.5,183/1000,43,141.83
865,F#4,182.5,0.25,26,141.83
866,F#5,182.665,183/1000,48,141.83
867,G5,182.831,183/1000,44,141.83
868,F#5,182.998,183/1000,48,141.83
869,D4,183.0,0.25,35,141.83
870,G5,183.165,183/1000,44,141.83
871,F#5,183.331,183/1000,44,141.83
872,E5,183.5,11/40,48,141.83
873,F#4,183.5,0.25,30,141.83
874,D5,183.75,0.25,44,141.83
875,C#5,184.0,0.25,50,141.83
876,D5,184.0,1/40,44,141.83
877,E4,184.0,0.25,37,141.83
878,G4,184.5,0.25,29,141.83
879,A4,185.0,0.25,42,141.83
880,E4,185.0,0.25,37,141.83
881,G4,185.5,0.25,29,141.83
882,E5,186.0,0.25,50,141.83
883,E4,186.0,11/40,43,141.83
884,F#4,186.25,11/40,38,141.83
885,G4,186.5,11/40,38,141.83
886,F#4,186.75,11/40,38,141.83
887,E4,187.0,11/40,38,141.83
888,D4,187.25,11/40,40,141.83
889,C#4,187.5,11/40,40,141.83
890,B3,187.75,0.25,40,141.83
891,E5,188.0,0.25,50,141.83
892,A3,188.0,0.25,37,141.83
893,B3,188.0,1/40,40,141.83
894,C#4,188.5,0.25,26,141.83
895,A4,189.0,0.25,42,141.83
896,A3,189.0,0.25,35,141.83
897,C#4,189.5,0.25,28,141.83
898,G5,190.0,183/1000,47,141.83
899,A3,190.0,0.25,36,141.83
900,A5,190.167,183/1000,43,141.83
901,G5,190.333,183/1000,48,141.83
902,A5,190.5,183/1000,43,141.83
903,C#4,190.5,0.25,26,141.83
904,G5,190.665,183/1000,48,141.83
905,A5,190.831,183/1000,44,141.83
906,G5,190.998,183/1000,48,141.83
907,G3,191.0,0.25,35,141.83
908,A5,191.165,183/1000,44,141.83
909,G5,191.331,183/1000,44,141.83
910,F#5,191.5,11/40,48,141.83
911,C#4,191.5,0.25,30,141.83
912,E5,191.75,0.25,44,141.83
913,D5,192.0,0.25,50,141.83
914,E5,192.0,1/40,44,141.83
915,F#3,192.0,0.25,37,141.83
916,D4,192.5,0.25,29,141.83
917,A4,193.0,0.25,42,141.83
918,F#3,193.0,0.25,37,141.83
919,D4,193.5,0.25,29,141.83
920,F#5,194.0,0.25,50,141.83
921,F#3,194.0,11/40,43,141.83
922,D3,194.25,11/40,36,141.83
923,E3,194.5,11/40,37,141.83
924,F#3,194.75,11/40,38,141.83
925,G3,195.0,11/40,39,141.83
926,A3,195.25,11/40,40,141.83
927,B3,195.5,11/40,41,141.83
928,C#4,195.75,0.25,42,141.83
929,F#5,196.0,0.25,54,141.83
930,D4,196.0,1.0,44,141.83
931,C#4,196.0,1/40,42,141.83
932,D5,196.25,11/40,47,141.83
933,E5,196.5,11/40,48,141.83
934,F#5,196.75,11/40,49,141.83
935,G5,197.0,11/40,50,141.83
936,A5,197.25,11/40,51,141.83
937,B5,197.5,11/40,52,141.83
938,C#6,197.75,11/40,53,141.83
939,D6,198.0,11/40,55,141.83
940,C#6,198.25,11/40,56,141.83
941,B5,198.5,11/40,56,141.83
942,A3,198.5,0.25,34,141.83
943,F#3,198.5,0.25,34,141.83
944,A5,198.75,11/40,56,141.83
945,G5,199.0,11/40,56,141.83
946,A3,199.0,0.25,34,141.83
947,F#3,199.0,0.25,34,141.83
948,F#5,199.25,11/40,55,141.83
949,E5,199.5,11/40,50,141.83
950,A3,199.5,0.25,34,141.83
951,F#3,199.5,0.25,34,141.83
952,D5,199.75,0.25,49,141.83
953,E5,200.0,11/40,51,141.83
954,D5,200.0,1/40,49,141.83
955,B3,200.0,1.0,40,141.83
956,G3,200.0,1.0,40,141.83
957,F#5,200.25,11/40,48,141.83
958,E5,200.5,11/40,45,141.83
959,E-5,200.75,11/40,43,141.83
960,E5,201.0,11/40,45,141.83
961,F#5,201.25,11/40,47,141.83
962,G5,201.5,11/40,49,141.83
963,A5,201.75,11/40,51,141.83
964,B5,202.0,11/40,53,141.83
965,A5,202.25,11/40,54,141.83
966,G5,202.5,11/40,53,141.83
967,B3,202.5,0.25,33,141.83
968,G3,202.5,0.25,33,141.83
969,F#5,202.75,11/40,51,141.83
970,E5,203.0,11/40,49,141.83
971,B3,203.0,0.25,33,141.83
972,G3,203.0,0.25,33,141.83
973,D5,203.25,11/40,48,141.83
974,C#5,203.5,11/40,46,141.83
975,G#3,203.5,0.25,33,141.83
976,B3,203.5,0.25,33,141.83
977,B4,203.75,0.25,44,141.83
978,C#5,204.0,11/40,50,141.83
979,B4,204.0,1/40,44,141.83
980,A3,204.0,0.5,46,141.83
981,D5,204.25,11/40,42,141.83
982,C#5,204.5,11/40,42,141.83
983,G3,204.5,0.5,40,141.83
984,A4,204.75,11/40,40,141.83
985,D5,205.0,0.25,47,141.83
986,F#3,205.0,0.25,40,141.83
987,D3,205.5,0.25,40,141.83
988,G5,206.0,11/40,55,141.83
989,C#3,206.0,0.5,50,141.83
990,A5,206.25,11/40,46,141.83
991,G5,206.5,11/40,46,141.83
992,A2,206.5,0.5,44,141.83
993,E5,206.75,11/40,46,141.83
994,G5,207.0,11/40,56,141.83
995,D3,207.0,0.25,44,141.83
996,F#5,207.25,11/40,47,141.83
997,E5,207.5,11/40,48,141.83
998,F#3,207.5,0.25,44,141.83
999,D5,207.75,0.25,48,141.83
1000,C#5,208.0,11/40,57,141.83
1001,D5,208.0,1/40,48,141.83
1002,A3,208.0,0.5,51,141.83
1003,D5,208.25,11/40,47,141.83
1004,C#5,208.5,11/40,47,141.83
1005,G3,208.5,0.5,44,141.83
1006,A4,208.75,11/40,47,141.83
1007,D5,209.0,0.25,57,141.83
1008,F#3,209.0,0.25,45,141.83
1009,D3,209.5,0.25,45,141.83
1010,G5,210.0,11/40,65,141.83
1011,C#3,210.0,0.5,54,141.83
1012,A5,210.25,11/40,54,141.83
1013,G5,210.5,11/40,54,141.83
1014,A2,210.5,0.5,47,141.83
1015,E5,210.75,11/40,56,141.83
1016,G5,211.0,11/40,70,141.83
1017,D3,211.0,0.25,48,141.83
1018,F#5,211.25,11/40,56,141.83
1019,E5,211.5,11/40,56,141.83
1020,F#3,211.5,0.25,48,141.83
1021,D5,211.75,0.25,59,141.83
1022,C#5,212.0,0.25,79,141.83
1023,D5,212.0,1/40,59,141.83
1024,A2,212.0,0.5,53,141.83
1025,A3,212.0,0.5,53,141.83
1026,E3,212.0,0.5,53,141.83
1027,E5,212.25,0.25,63,141.83
1028,C#5,212.5,0.25,63,141.83
1029,A4,212.75,0.25,63,141.83
1030,F#5,213.0,0.25,74,141.83
1031,F#3,213.0,0.5,54,141.83
1032,D3,213.0,0.5,54,141.83
1033,A3,213.0,0.5,54,141.83
1034,A5,213.25,0.25,64,141.83
1035,F#5,213.5,0.25,64,141.83
1036,D5,213.75,0.25,64,141.83
1037,C#5,214.0,0.25,77,141.83
1038,E3,214.0,0.5,54,141.83
1039,A2,214.0,0.5,54,141.83
1040,A3,214.0,0.5,54,141.83
1041,E5,214.25,0.25,62,141.83
1042,C#5,214.5,0.25,62,141.83
1043,A4,214.75,0.25,62,141.83
1044,F#5,215.0,0.25,77,141.83
1045,D3,215.0,0.5,55,141.83
1046,F#3,215.0,0.5,55,141.83
1047,A3,215.0,0.5,55,141.83
1048,A5,215.25,0.25,64,141.83
1049,F#5,215.5,0.25,64,141.83
1050,D5,215.75,0.25,64,141.83
1051,C#5,216.0,0.188,76,141.83
1052,E5,216.0,0.188,76,141.83
1053,C#5,216.5,0.188,65,141.83
1054,A5,216.5,0.188,65,141.83
1055,E5,216.5,0.188,65,141.83
1056,A2,216.5,0.188,48,141.83
1057,C#3,216.5,0.188,48,141.83
1058,A3,216.5,0.188,48,141.83
1059,E3,216.5,0.188,48,141.83
1060,A5,217.0,0.188,65,141.83
1061,C#5,217.0,0.188,65,141.83
1062,E5,217.0,0.188,65,141.83
1063,C#3,217.0,0.188,48,141.83
1064,A3,217.0,0.188,48,141.83
1065,E3,217.0,0.188,48,141.83
1066,A2,217.0,0.188,48,141.83
1067,E5,217.5,0.188,65,141.83
1068,C#5,217.5,0.188,65,141.83
1069,A5,217.5,0.188,65,141.83
1070,C#3,217.5,0.188,48,141.83
1071,E3,217.5,0.188,48,141.83
1072,A3,217.5,0.188,48,141.83
1073,A2,217.5,0.188,48,141.83
1074,A5,218.0,0.875,65,141.83
1075,C#5,218.0,0.875,65,141.83
1076,E5,218.0,0.875,65,141.83
1077,E3,218.0,0.875,51,141.83
1078,A3,218.0,0.875,51,141.83
1079,C#3,218.0,0.875,51,141.83
1080,A2,218.0,0.875,51,141.83
1081,D5,218.875,0.125,41,141.83
1082,C#5,219.0,0.25,42,141.83
1083,B4,219.25,0.25,40,141.83
1084,C#5,219.5,0.25,40,141.83
1085,D5,219.75,0.25,40,141.83
1086,E-5,220.0,0.5,45,141.83
1087,A3,220.0,0.5,34,141.83
1088,E5,220.5,0.5,42,141.83
1089,C#4,220.5,0.5,27,141.83
1090,B3,221.0,0.5,30,141.83
1091,E5,221.5,0.5,40,141.83
1092,D4,221.5,0.5,27,141.83
1093,A5,222.0,0.5,46,141.83
1094,C#4,222.0,0.5,32,141.83
1095,G#5,222.5,0.5,42,141.83
1096,E4,222.5,0.5,26,141.83
1097,F#5,223.0,0.5,44,141.83
1098,A3,223.0,0.5,29,141.83
1099,E5,223.5,0.5,42,141.83
1100,C#4,223.5,0.5,26,141.83
1101,C#5,224.0,0.5,48,141.83
1102,B3,224.0,0.5,34,141.83
1103,D5,224.5,0.5,42,141.83
1104,F#4,224.5,0.5,28,141.83
1105,D4,225.0,0.5,32,141.83
1106,D5,225.5,0.5,40,141.83
1107,B3,225.5,0.5,28,141.83
1108,E5,226.0,0.5,45,141.83
1109,G#3,226.0,0.5,34,141.83
1110,D5,226.5,0.5,42,141.83
1111,B3,226.5,0.5,29,141.83
1112,C#5,227.0,0.5,45,141.83
1113,E3,227.0,0.5,30,141.83
1114,B4,227.5,0.5,42,141.83
1115,D4,227.5,0.5,28,141.83
1116,G#4,228.0,0.5,48,141.83
1117,C#4,228.0,0.5,34,141.83
1118,A4,228.5,0.5,44,141.83
1119,E4,228.5,0.5,28,141.83
1120,G#3,229.0,0.5,30,141.83
1121,B4,229.5,0.5,45,141.83
1122,E4,229.5,0.5,28,141.83
1123,C5,230.0,0.5,50,141.83
1124,A3,230.0,0.5,34,141.83
1125,C#5,230.5,0.5,46,141.83
1126,E4,230.5,0.5,26,141.83
1127,F#3,231.0,0.5,29,141.83
1128,E5,231.375,0.125,42,141.83
1129,D5,231.5,0.5,47,141.83
1130,A3,231.5,0.5,26,141.83
1131,C#5,232.0,1.5,51,141.83
1132,E3,232.0,0.5,34,141.83
1133,A3,232.5,0.5,27,141.83
1134,C#4,233.0,0.5,30,141.83
1135,D5,233.5,0.25,44,141.83
1136,A3,233.5,0.5,27,141.83
1137,C#5,233.75,0.25,42,141.83
1138,B4,234.0,0.5,47,141.83
1139,G#3,234.0,1.0,33,141.83
1140,E3,234.0,1.0,33,141.83
1141,C#5,234.5,0.25,42,141.83
1142,D5,235.0,0.25,44,141.83
1143,E-5,235.5,0.25,47,141.83
1144,E-5,236.0,0.5,45,141.83
1145,A3,236.0,0.5,34,141.83
1146,E5,236.5,0.5,42,141.83
1147,C#4,236.5,0.5,27,141.83
1148,B3,237.0,0.5,30,141.83
1149,F#5,237.5,0.125,40,141.83
1150,D4,237.5,0.5,27,141.83
1151,E5,237.625,0.125,37,141.83
1152,E-5,237.75,0.125,37,141.83
1153,E5,237.875,0.125,37,141.83
1154,A5,238.0,0.25,46,141.83
1155,C#4,238.0,0.5,32,141.83
1156,G#5,238.5,0.25,42,141.83
1157,E4,238.5,0.25,26,141.83
1158,F#5,239.0,0.25,44,141.83
1159,A3,239.0,0.5,29,141.83
1160,E5,239.5,0.25,42,141.83
1161,C#4,239.5,0.25,26,141.83
1162,C#5,240.0,0.5,48,141.83
1163,B3,240.0,0.5,34,141.83
1164,D5,240.5,0.5,42,141.83
1165,F#4,240.5,0.5,28,141.83
1166,D4,241.0,0.5,32,141.83
1167,E5,241.5,0.125,40,141.83
1168,B3,241.5,0.5,28,141.83
1169,D5,241.625,0.125,37,141.83
1170,C#5,241.75,0.125,37,141.83
1171,D5,241.875,0.125,37,141.83
1172,E5,242.0,0.25,45,141.83
1173,G#3,242.0,0.5,34,141.83
1174,D5,242.5,0.25,42,141.83
1175,B3,242.5,0.25,29,141.83
1176,C#5,243.0,0.25,45,141.83
1177,E3,243.0,0.5,30,141.83
1178,B4,243.5,0.25,42,141.83
1179,G#3,243.5,0.25,28,141.83
1180,C#5,244.0,0.75,45,141.83
1181,A3,244.0,1.0,30,141.83
1182,E5,244.75,0.25,42,141.83
1183,F#4,245.0,0.75,45,141.83
1184,D4,245.0,1.0,30,141.83
1185,D3,245.0,1.0,30,141.83
1186,B4,245.75,0.25,41,141.83
1187,A4,246.0,1.0,45,141.83
1188,E3,246.0,2.0,30,141.83
1189,C#4,246.0,1.0,30,141.83
1190,G#4,247.0,0.125,43,141.83
1191,B3,247.0,1.0,30,141.83
1192,A4,247.125,0.125,39,141.83
1193,G#4,247.25,0.125,43,141.83
1194,A4,247.375,0.125,40,141.83
1195,G#4,247.5,167/1000,43,141.83
1196,F#4,247.667,167/1000,40,141.83
1197,G#4,247.833,167/1000,40,141.83
1198,A4,248.0,0.25,46,141.83
1199,A3,248.0,1.0,38,141.83
1200,E5,248.25,0.25,44,141.83
1201,E-5,248.5,0.25,47,141.83
1202,E5,248.75,0.25,43,141.83
1203,F#5,249.0,0.25,50,141.83
1204,E5,249.25,0.25,47,141.83
1205,E-5,249.5,0.25,51,141.83
1206,A4,249.5,0.25,51,141.83
1207,E5,249.75,0.25,51,141.83
1208,D5,250.0,0.25,59,141.83
1209,B4,250.0,0.25,55,141.83
1210,E5,250.25,0.25,50,141.83
1211,D5,250.5,0.25,52,141.83
1212,A4,250.5,0.25,51,141.83
1213,E5,250.75,0.25,50,141.83
1214,D5,251.0,0.25,62,141.83
1215,G#4,251.0,0.25,58,141.83
1216,E5,251.25,0.25,49,141.83
1217,D5,251.5,0.25,52,141.83
1218,E4,251.5,0.25,53,141.83
1219,E5,251.75,0.25,49,141.83
1220,C#5,252.0,0.25,50,141.83
1221,A4,252.0,1.0,55,141.83
1222,E5,252.25,0.25,44,141.83
1223,E-5,252.5,0.25,47,141.83
1224,E5,252.75,0.25,43,141.83
1225,F#5,253.0,0.25,50,141.83
1226,E5,253.25,0.25,47,141.83
1227,E-5,253.5,0.25,51,141.83
1228,A3,253.5,0.25,52,141.83
1229,E5,253.75,0.25,51,141.83
1230,D5,254.0,0.25,59,141.83
1231,B3,254.0,0.25,57,141.83
1232,E5,254.25,0.25,50,141.83
1233,D5,254.5,0.25,52,141.83
1234,A3,254.5,0.25,51,141.83
1235,E5,254.75,0.25,50,141.83
1236,D5,255.0,0.25,62,141.83
1237,G#3,255.0,0.25,57,141.83
1238,E5,255.25,0.25,49,141.83
1239,D5,255.5,0.25,52,141.83
1240,E3,255.5,0.25,53,141.83
1241,E5,255.75,0.25,49,141.83
1242,A4,256.0,1.0,41,141.83
1243,A3,256.0,0.25,56,141.83
1244,E4,256.25,0.25,35,141.83
1245,E-4,256.5,0.25,37,141.83
1246,E4,256.75,0.25,34,141.83
1247,F#4,257.0,0.25,40,141.83
1248,E4,257.25,0.25,37,141.83
1249,A5,257.5,0.25,57,141.83
1250,E-4,257.5,0.25,40,141.83
1251,E4,257.75,0.25,40,141.83
1252,B5,258.0,0.25,63,141.83
1253,D4,258.0,0.25,47,141.83
1254,E4,258.25,0.25,39,141.83
1255,A5,258.5,0.25,58,141.83
1256,D4,258.5,0.25,41,141.83
1257,E4,258.75,0.25,39,141.83
1258,G#5,259.0,0.25,63,141.83
1259,D4,259.0,0.25,49,141.83
1260,E4,259.25,0.25,39,141.83
1261,E5,259.5,0.25,58,141.83
1262,D4,259.5,0.25,41,141.83
1263,E4,259.75,0.25,39,141.83
1264,A5,260.0,1.0,60,141.83
1265,C#4,260.0,0.25,39,141.83
1266,E4,260.25,0.25,35,141.83
1267,E-4,260.5,0.25,37,141.83
1268,E4,260.75,0.25,34,141.83
1269,F#4,261.0,0.25,40,141.83
1270,E4,261.25,0.25,37,141.83
1271,A2,261.5,0.25,57,141.83
1272,E-4,261.5,0.25,40,141.83
1273,E4,261.75,0.25,40,141.83
1274,B2,262.0,0.25,63,141.83
1275,D4,262.0,0.25,47,141.83
1276,E4,262.25,0.25,39,141.83
1277,A2,262.5,0.25,58,141.83
1278,D4,262.5,0.25,41,141.83
1279,E4,262.75,0.25,39,141.83
1280,G#2,263.0,0.25,60,141.83
1281,D4,263.0,0.25,49,141.83
1282,E4,263.25,0.25,39,141.83
1283,E2,263.5,0.25,58,141.83
1284,D4,263.5,0.25,41,141.83
1285,E4,263.75,0.25,39,141.83
1286,A2,264.0,1.0,60,141.83
1287,C#4,264.0,1.0,41,141.83
1288,E5,265.0,1.0,50,141.83
1289,C#4,265.0,0.25,35,141.83
1290,A4,265.25,0.25,29,141.83
1291,C#4,265.5,0.25,29,141.83
1292,A4,265.75,0.25,29,141.83
1293,D5,266.0,1.0,47,141.83
1294,B3,266.0,0.25,35,141.83
1295,A4,266.25,0.25,30,141.83
1296,B3,266.5,0.25,30,141.83
1297,A4,266.75,0.25,30,141.83
1298,C#5,267.0,1.0,46,141.83
1299,A3,267.0,0.25,35,141.83
1300,A4,267.25,0.25,31,141.83
1301,A3,267.5,0.25,31,141.83
1302,A4,267.75,0.25,31,141.83
1303,F#5,268.0,0.75,50,141.83
1304,D4,268.0,0.25,35,141.83
1305,A4,268.25,0.25,30,141.83
1306,G#4,268.5,0.25,30,141.83
1307,G#5,268.75,83/1000,45,141.83
1308,A4,268.75,0.25,30,141.83
1309,F#5,268.833,83/1000,45,141.83
1310,E5,268.919,83/1000,45,141.83
1311,F#5,269.0,0.25,50,141.83
1312,D4,269.0,0.25,35,141.83
1313,A4,269.25,0.25,30,141.83
1314,G#5,269.5,0.25,47,141.83
1315,G#4,269.5,0.25,30,141.83
1316,A4,269.75,0.25,30,141.83
1317,B5,270.0,0.5,50,141.83
1318,D4,270.0,0.25,30,141.83
1319,A4,270.25,0.25,32,141.83
1320,A5,270.5,0.5,45,141.83
1321,G#4,270.5,0.25,32,141.83
1322,A4,270.75,0.25,32,141.83
1323,G#5,271.0,0.5,47,141.83
1324,D4,271.0,0.25,34,141.83
1325,A4,271.25,0.25,30,141.83
1326,F#5,271.5,0.5,45,141.83
1327,G#4,271.5,0.25,30,141.83
1328,A4,271.75,0.25,30,141.83
1329,E5,272.0,0.5,50,141.83
1330,C#4,272.0,0.25,37,141.83
1331,A4,272.25,0.25,37,141.83
1332,G#4,272.5,0.25,28,141.83
1333,A4,272.75,0.25,28,141.83
1334,E5,273.0,1.0,60,141.83
1335,C#4,273.0,0.25,45,141.83
1336,A4,273.25,0.25,37,141.83
1337,C#4,273.5,0.25,37,141.83
1338,A4,273.75,0.25,37,141.83
1339,D5,274.0,1.0,60,141.83
1340,B3,274.0,0.25,45,141.83
1341,A4,274.25,0.25,39,141.83
1342,B3,274.5,0.25,39,141.83
1343,A4,274.75,0.25,39,141.83
1344,C#5,275.0,1.0,59,141.83
1345,A3,275.0,0.25,45,141.83
1346,A4,275.25,0.25,40,141.83
1347,A3,275.5,0.25,40,141.83
1348,A4,275.75,0.25,40,141.83
1349,B4,276.0,0.75,68,141.83
1350,D3,276.0,0.25,45,141.83
1351,B3,276.25,0.25,39,141.83
1352,F#3,276.5,0.25,39,141.83
1353,F#5,276.75,0.25,53,141.83
1354,B3,276.75,0.25,39,141.83
1355,E5,277.0,0.25,60,141.83
1356,D3,277.0,0.25,45,141.83
1357,D5,277.25,0.25,58,141.83
1358,B3,277.25,0.25,39,141.83
1359,C#5,277.5,0.25,58,141.83
1360,F#3,277.5,0.25,39,141.83
1361,B4,277.75,0.25,58,141.83
1362,B3,277.75,0.25,39,141.83
1363,A4,278.0,1.0,63,141.83
1364,E3,278.0,0.25,39,141.83
1365,C#4,278.25,0.25,41,141.83
1366,A3,278.5,0.25,41,141.83
1367,C#4,278.75,0.25,41,141.83
1368,B4,279.0,0.125,55,141.83
1369,E3,279.0,0.25,44,141.83
1370,C#5,279.125,0.125,49,141.83
1371,B4,279.25,0.125,56,141.83
1372,D4,279.25,0.25,39,141.83
1373,C#5,279.375,0.125,50,141.83
1374,B4,279.5,167/1000,56,141.83
1375,G#3,279.5,0.25,39,141.83
1376,A4,279.667,167/1000,48,141.83
1377,D4,279.75,0.25,39,141.83
1378,B4,279.833,167/1000,48,141.83
1379,A4,280.0,0.5,66,141.83
1380,A3,280.0,0.25,48,141.83
1381,E4,280.25,0.25,42,141.83
1382,C#4,280.5,0.25,36,141.83
1383,E4,280.75,0.25,36,141.83
1384,E5,281.0,1.0,50,141.83
1385,C#4,281.0,0.25,35,141.83
1386,A4,281.25,0.25,29,141.83
1387,C#4,281.5,0.25,29,141.83
1388,A4,281.75,0.25,29,141.83
1389,D5,282.0,1.0,47,141.83
1390,B3,282.0,0.25,35,141.83
1391,A4,282.25,0.25,30,141.83
1392,B3,282.5,0.25,30,141.83
1393,A4,282.75,0.25,30,141.83
1394,C#5,283.0,1.0,46,141.83
1395,A3,283.0,0.25,35,141.83
1396,A4,283.25,0.25,31,141.83
1397,A3,283.5,0.25,31,141.83
1398,A4,283.75,0.25,31,141.83
1399,F#5,284.0,0.75,50,141.83
1400,D4,284.0,0.25,35,141.83
1401,A4,284.25,0.25,30,141.83
1402,G#4,284.5,0.25,30,141.83
1403,G#5,284.75,83/1000,45,141.83
1404,A4,284.75,0.25,30,141.83
1405,F#5,284.833,83/1000,45,141.83
1406,E5,284.919,83/1000,45,141.83
1407,F#5,285.0,0.25,50,141.83
1408,D4,285.0,0.25,35,141.83
1409,A4,285.25,0.25,30,141.83
1410,G#5,285.5,0.25,47,141.83
1411,G#4,285.5,0.25,30,141.83
1412,A4,285.75,0.25,30,141.83
1413,B5,286.0,0.5,50,141.83
1414,D4,286.0,0.25,30,141.83
1415,A4,286.25,0.25,32,141.83
1416,A5,286.5,0.5,45,141.83
1417,G#4,286.5,0.25,32,141.83
1418,A4,286.75,0.25,32,141.83
1419,G#5,287.0,0.5,47,141.83
1420,D4,287.0,0.25,34,141.83
1421,A4,287.25,0.25,30,141.83
1422,F#5,287.5,0.5,45,141.83
1423,G#4,287.5,0.25,30,141.83
1424,A4,287.75,0.25,30,141.83
1425,E5,288.0,0.5,50,141.83
1426,C#4,288.0,0.25,37,141.83
1427,A4,288.25,0.25,37,141.83
1428,G#4,288.5,0.25,28,141.83
1429,A4,288.75,0.25,28,141.83
1430,E5,289.0,1.0,60,141.83
1431,C#4,289.0,0.25,45,141.83
1432,A4,289.25,0.25,37,141.83
1433,C#4,289.5,0.25,37,141.83
1434,A4,289.75,0.25,37,141.83
1435,D5,290.0,1.0,60,141.83
1436,B3,290.0,0.25,45,141.83
1437,A4,290.25,0.25,39,141.83
1438,B3,290.5,0.25,39,141.83
1439,A4,290.75,0.25,39,141.83
1440,C#5,291.0,1.0,59,141.83
1441,A3,291.0,0.25,45,141.83
1442,A4,291.25,0.25,40,141.83
1443,A3,291.5,0.25,40,141.83
1444,A4,291.75,0.25,40,141.83
1445,B4,292.0,0.75,68,141.83
1446,D3,292.0,0.25,45,141.83
1447,B3,292.25,0.25,39,141.83
1448,F#3,292.5,0.25,39,141.83
1449,F#5,292.75,0.25,53,141.83
1450,B3,292.75,0.25,39,141.83
1451,E5,293.0,0.25,60,141.83
1452,D3,293.0,0.25,45,141.83
1453,D5,293.25,0.25,58,141.83
1454,B3,293.25,0.25,39,141.83
1455,C#5,293.5,0.25,58,141.83
1456,F#3,293.5,0.25,39,141.83
1457,B4,293.75,0.25,58,141.83
1458,B3,293.75,0.25,39,141.83
1459,A4,294.0,1.0,63,141.83
1460,E3,294.0,0.25,39,141.83
1461,C#4,294.25,0.25,41,141.83
1462,A3,294.5,0.25,41,141.83
1463,C#4,294.75,0.25,41,141.83
1464,B4,295.0,0.125,55,141.83
1465,E3,295.0,0.25,44,141.83
1466,C#5,295.125,0.125,49,141.83
1467,B4,295.25,0.125,56,141.83
1468,D4,295.25,0.25,39,141.83
1469,C#5,295.375,0.125,50,141.83
1470,B4,295.5,167/1000,56,141.83
1471,G#3,295.5,0.25,39,141.83
1472,A4,295.667,167/1000,48,141.83
1473,D4,295.75,0.25,39,141.83
1474,B4,295.833,167/1000,48,141.83
1475,A4,296.0,0.25,66,141.83
1476,A3,296.0,1.0,50,141.83
1477,C#4,296.0,1.0,50,141.83
1478,E4,296.25,0.25,59,141.83
1479,A4,296.5,0.25,66,141.83
1480,C#5,296.75,0.25,58,141.83
1481,E5,297.0,0.25,66,141.83
1482,C#5,297.25,0.25,60,141.83
1483,D5,297.5,0.25,66,141.83
1484,G#3,297.5,0.25,49,141.83
1485,E3,297.5,0.25,49,141.83
1486,B3,297.5,0.25,49,141.83
1487,B4,297.75,0.25,59,141.83
1488,A4,298.0,0.25,66,141.83
1489,A3,298.0,1.0,50,141.83
1490,C#4,298.0,1.0,50,141.83
1491,E4,298.25,0.25,59,141.83
1492,A4,298.5,0.25,66,141.83
1493,C#5,298.75,0.25,58,141.83
1494,E5,299.0,0.25,66,141.83
1495,C#5,299.25,0.25,60,141.83
1496,D5,299.5,0.25,66,141.83
1497,E3,299.5,0.25,49,141.83
1498,B3,299.5,0.25,49,141.83
1499,G#3,299.5,0.25,49,141.83
1500,B4,299.75,0.25,59,141.83
1501,A4,300.0,0.5,75,141.83
1502,A3,300.0,0.5,58,141.83
1503,C#4,300.0,0.5,58,141.83
1504,B4,301.0,0.5,68,141.83
1505,G#5,301.0,0.5,68,141.83
1506,D5,301.0,0.5,68,141.83
1507,F2,301.0,0.5,58,141.83
1508,F3,301.0,0.5,58,141.83
1509,C#5,302.0,0.5,68,141.83
1510,A4,302.0,0.5,68,141.83
1511,A5,302.0,0.5,68,141.83
1512,F#2,302.0,0.5,58,141.83
1513,F#3,302.0,0.5,58,141.83
1514,D3,304.0,2.0,40,141.83
1515,F#4,304.0,0.5,43,141.83
1516,D5,304.0,0.5,43,141.83
1517,C#5,304.5,0.25,40,141.83
1518,E4,304.5,0.25,40,141.83
1519,C#5,305.0,0.5,43,141.83
1520,E4,305.0,0.5,43,141.83
1521,B4,305.5,0.25,38,141.83
1522,D4,305.5,0.25,38,141.83
1523,E3,306.0,2.0,40,141.83
1524,D4,306.0,0.5,43,141.83
1525,B4,306.0,0.5,43,141.83
1526,C#4,306.5,0.25,38,141.83
1527,A4,306.5,0.25,38,141.83
1528,C#4,307.0,0.5,43,141.83
1529,A4,307.0,0.5,43,141.83
1530,B3,307.5,0.25,38,141.83
1531,G#4,307.5,0.25,38,141.83
1532,A3,308.0,1.0,39,141.83
1533,B3,308.0,2.0,45,141.83
1534,G#4,308.0,2.0,45,141.83
1535,D4,308.0,2.0,45,141.83
1536,E3,309.0,1.0,39,141.83
1537,A2,310.0,1.0,35,141.83
1538,C#4,310.0,1.0,38,141.83
1539,A4,310.0,1.0,38,141.83
1540,A5,312.0,0.5,47,141.83
1541,G5,312.5,0.25,43,141.83
1542,G5,313.0,0.5,47,141.83
1543,F#5,313.5,0.25,42,141.83
1544,F#5,314.0,0.5,51,141.83
1545,E5,314.5,0.25,45,141.83
1546,E5,315.0,0.5,55,141.83
1547,E-5,315.5,0.25,50,141.83
1548,C5,316.0,0.5,62,141.83
1549,E-5,316.0,4.0,62,141.83
1550,B2,316.0,4.0,44,141.83
1551,B3,316.0,4.0,44,141.83
1552,B4,316.5,0.25,55,141.83
1553,B4,317.0,0.5,61,141.83
1554,A4,317.5,0.25,53,141.83
1555,A4,318.0,0.5,58,141.83
1556,G4,318.5,0.25,49,141.83
1557,G4,319.0,0.5,58,141.83
1558,F#4,319.5,0.25,44,141.83
1559,E-5,320.0,0.5,47,141.83
1560,E5,320.5,0.25,43,141.83
1561,B4,321.0,0.5,40,141.83
1562,G4,321.0,0.5,40,141.83
1563,G5,321.5,0.5,43,141.83
1564,F5,322.0,0.5,47,141.83
1565,F#5,322.5,0.25,43,141.83
1566,E-4,323.0,0.5,40,141.83
1567,B4,323.0,0.5,40,141.83
1568,A5,323.5,0.5,43,141.83
1569,B2,324.0,0.5,69,141.83
1570,F#5,324.0,2.0,57,141.83
1571,E-5,324.0,2.0,57,141.83
1572,A2,324.5,0.25,62,141.83
1573,A2,325.0,0.5,67,141.83
1574,G2,325.5,0.25,59,141.83
1575,G2,326.0,0.5,61,141.83
1576,E5,326.0,1.0,51,141.83
1577,G5,326.0,1.0,51,141.83
1578,F#2,326.5,0.25,52,141.83
1579,F#2,327.0,0.5,51,141.83
1580,E2,327.5,0.25,45,141.83
1581,G5,328.0,0.5,47,141.83
1582,F#5,328.5,0.25,43,141.83
1583,F#5,329.0,0.5,47,141.83
1584,E5,329.5,0.25,42,141.83
1585,E5,330.0,0.5,51,141.83
1586,D5,330.5,0.25,45,141.83
1587,D5,331.0,0.5,55,141.83
1588,C#5,331.5,0.25,50,141.83
1589,C#5,332.0,4.0,62,141.83
1590,B-4,332.0,0.5,68,141.83
1591,A2,332.0,4.0,44,141.83
1592,A3,332.0,4.0,44,141.83
1593,A4,332.5,0.25,60,141.83
1594,A4,333.0,0.5,67,141.83
1595,G4,333.5,0.25,58,141.83
1596,G4,334.0,0.5,63,141.83
1597,F#4,334.5,0.25,53,141.83
1598,F#4,335.0,0.5,63,141.83
1599,E4,335.5,0.25,48,141.83
1600,C#5,336.0,0.5,47,141.83
1601,D5,336.5,0.25,43,141.83
1602,F#4,337.0,0.5,40,141.83
1603,A4,337.0,0.5,40,141.83
1604,F#5,337.5,0.5,43,141.83
1605,E-5,338.0,0.5,47,141.83
1606,E5,338.5,0.25,43,141.83
1607,A4,339.0,0.5,40,141.83
1608,C#4,339.0,0.5,40,141.83
1609,G5,339.5,0.5,43,141.83
1610,A2,340.0,0.5,69,141.83
1611,E5,340.0,2.0,57,141.83
1612,C#5,340.0,2.0,57,141.83
1613,G2,340.5,0.25,62,141.83
1614,G2,341.0,0.5,67,141.83
1615,F#2,341.5,0.25,59,141.83
1616,F#2,342.0,0.5,61,141.83
1617,D5,342.0,1.0,51,141.83
1618,F#5,342.0,1.0,51,141.83
1619,E2,342.5,0.25,52,141.83
1620,E2,343.0,0.5,51,141.83
1621,D2,343.5,0.25,45,141.83
1622,F#5,344.0,0.25,47,141.83
1623,D4,344.0,0.5,47,141.83
1624,D6,344.25,0.25,44,141.83
1625,F#5,344.5,0.25,48,141.83
1626,C#4,344.5,0.25,42,141.83
1627,D6,344.75,0.25,44,141.83
1628,F#5,345.0,0.25,51,141.83
1629,C#4,345.0,0.5,53,141.83
1630,D6,345.25,0.25,47,141.83
1631,F#5,345.5,0.25,52,141.83
1632,B3,345.5,0.25,46,141.83
1633,D6,345.75,0.25,47,141.83
1634,F#5,346.0,0.25,55,141.83
1635,B3,346.0,0.5,58,141.83
1636,D6,346.25,0.25,50,141.83
1637,F#5,346.5,0.25,57,141.83
1638,A3,346.5,0.25,50,141.83
1639,D6,346.75,0.25,51,141.83
1640,F#5,347.0,0.25,58,141.83
1641,A3,347.0,0.5,60,141.83
1642,D6,347.25,0.25,55,141.83
1643,F#5,347.5,0.25,60,141.83
1644,G#3,347.5,0.25,52,141.83
1645,D6,347.75,0.25,55,141.83
1646,E5,348.0,0.25,64,141.83
1647,G#3,348.0,2.0,61,141.83
1648,G#2,348.0,2.0,61,141.83
1649,D6,348.25,0.25,57,141.83
1650,E5,348.5,0.25,63,141.83
1651,D6,348.75,0.25,57,141.83
1652,E5,349.0,0.25,63,141.83
1653,D6,349.25,0.25,57,141.83
1654,E5,349.5,0.25,63,141.83
1655,D6,349.75,0.25,57,141.83
1656,E5,350.0,0.25,63,141.83
1657,B-3,350.0,2.0,56,141.83
1658,B-2,350.0,2.0,56,141.83
1659,C#6,350.25,0.25,57,141.83
1660,E5,350.5,0.25,62,141.83
1661,C#6,350.75,0.25,57,141.83
1662,E5,351.0,0.25,60,141.83
1663,C#6,351.25,0.25,55,141.83
1664,E5,351.5,0.25,59,141.83
1665,C#6,351.75,0.25,52,141.83
1666,D5,352.0,0.25,47,141.83
1667,B3,352.0,0.5,47,141.83
1668,C#6,352.25,0.25,44,141.83
1669,D5,352.5,0.25,48,141.83
1670,A3,352.5,0.25,42,141.83
1671,C#6,352.75,0.25,44,141.83
1672,D5,353.0,0.25,51,141.83
1673,A3,353.0,0.5,53,141.83
1674,C#6,353.25,0.25,47,141.83
1675,D5,353.5,0.25,52,141.83
1676,G3,353.5,0.25,46,141.83
1677,C#6,353.75,0.25,47,141.83
1678,D5,354.0,0.25,55,141.83
1679,G3,354.0,0.5,58,141.83
1680,B5,354.25,0.25,50,141.83
1681,D5,354.5,0.25,57,141.83
1682,F#3,354.5,0.25,50,141.83
1683,B5,354.75,0.25,51,141.83
1684,D5,355.0,0.25,58,141.83
1685,F#3,355.0,0.5,60,141.83
1686,B5,355.25,0.25,55,141.83
1687,D5,355.5,0.25,60,141.83
1688,F3,355.5,0.25,52,141.83
1689,B5,355.75,0.25,55,141.83
1690,C#5,356.0,0.25,64,141.83
1691,F2,356.0,2.0,61,141.83
1692,F3,356.0,2.0,61,141.83
1693,B5,356.25,0.25,57,141.83
1694,C#5,356.5,0.25,63,141.83
1695,B5,356.75,0.25,57,141.83
1696,C#5,357.0,0.25,63,141.83
1697,B5,357.25,0.25,57,141.83
1698,C#5,357.5,0.25,63,141.83
1699,B5,357.75,0.25,57,141.83
1700,C5,358.0,0.25,63,141.83
1701,F#2,358.0,2.0,56,141.83
1702,F#3,358.0,2.0,56,141.83
1703,A5,358.25,0.25,57,141.83
1704,C5,358.5,0.25,62,141.83
1705,A5,358.75,0.25,57,141.83
1706,C5,359.0,0.25,60,141.83
1707,A5,359.25,0.25,55,141.83
1708,C5,359.5,0.25,59,141.83
1709,A5,359.75,0.25,52,141.83
1710,A5,360.0,0.5,51,141.83
1711,B4,360.0,1.0,41,141.83
1712,G3,360.0,0.25,41,141.83
1713,D4,360.25,0.25,36,141.83
1714,G5,360.5,0.375,47,141.83
1715,B3,360.5,0.25,41,141.83
1716,D4,360.75,0.25,35,141.83
1717,G5,361.0,0.5,51,141.83
1718,G3,361.0,0.25,41,141.83
1719,D4,361.25,0.25,36,141.83
1720,F#5,361.5,0.375,46,141.83
1721,B3,361.5,0.25,41,141.83
1722,D4,361.75,0.25,35,141.83
1723,D6,362.0,0.5,51,141.83
1724,F5,362.0,1.0,40,141.83
1725,G3,362.0,0.25,41,141.83
1726,D4,362.25,0.25,36,141.83
1727,C#6,362.5,0.375,47,141.83
1728,B3,362.5,0.25,41,141.83
1729,D4,362.75,0.25,35,141.83
1730,C#6,363.0,0.5,51,141.83
1731,G3,363.0,0.25,41,141.83
1732,D4,363.25,0.25,36,141.83
1733,B5,363.5,0.375,46,141.83
1734,B3,363.5,0.25,41,141.83
1735,D4,363.75,0.25,35,141.83
1736,G5,364.0,0.5,59,141.83
1737,B-5,364.0,2.0,59,141.83
1738,F#3,364.0,0.25,45,141.83
1739,C#4,364.25,0.25,39,141.83
1740,F#5,364.5,0.375,52,141.83
1741,B-3,364.5,0.25,45,141.83
1742,C#4,364.75,0.25,38,141.83
1743,F#5,365.0,0.5,59,141.83
1744,F#3,365.0,0.25,45,141.83
1745,C#4,365.25,0.25,39,141.83
1746,E5,365.5,0.375,51,141.83
1747,B-3,365.5,0.25,45,141.83
1748,C#4,365.75,0.25,38,141.83
1749,D5,366.0,0.5,61,141.83
1750,B5,366.0,2.0,61,141.83
1751,F3,366.0,0.25,45,141.83
1752,D4,366.25,0.25,39,141.83
1753,C#5,366.5,0.375,51,141.83
1754,G#3,366.5,0.25,45,141.83
1755,D4,366.75,0.25,38,141.83
1756,C#5,367.0,0.5,61,141.83
1757,F3,367.0,0.25,45,141.83
1758,D4,367.25,0.25,39,141.83
1759,B4,367.5,0.375,55,141.83
1760,G#3,367.5,0.25,45,141.83
1761,D4,367.75,0.25,38,141.83
1762,F#3,368.0,2.0,40,141.83
1763,G4,368.0,0.5,43,141.83
1764,E5,368.0,0.5,43,141.83
1765,D5,368.5,0.25,40,141.83
1766,F#4,368.5,0.25,40,141.83
1767,F#4,369.0,0.5,43,141.83
1768,D5,369.0,0.5,43,141.83
1769,C#5,369.5,0.25,38,141.83
1770,E4,369.5,0.25,38,141.83
1771,F#2,370.0,2.0,40,141.83
1772,C#5,370.0,0.5,43,141.83
1773,E4,370.0,0.5,43,141.83
1774,B4,370.5,0.25,38,141.83
1775,D4,370.5,0.25,38,141.83
1776,B4,371.0,0.5,43,141.83
1777,D4,371.0,0.5,43,141.83
1778,C#4,371.5,0.25,38,141.83
1779,B-4,371.5,0.25,38,141.83
1780,B2,372.0,1.0,39,141.83
1781,E4,372.0,2.0,45,141.83
1782,B-4,372.0,2.0,45,141.83
1783,C#4,372.0,2.0,45,141.83
1784,F#2,373.0,1.0,39,141.83
1785,B1,374.0,1.0,35,141.83
1786,D4,374.0,1.0,38,141.83
1787,B4,374.0,1.0,38,141.83
1788,B4,376.0,2.0,61,141.83
1789,F#4,376.0,2.0,61,141.83
1790,D4,376.0,2.0,61,141.83
1791,B2,376.0,2.0,60,141.83
1792,B3,376.0,2.0,60,141.83
1793,D4,378.0,1.0,54,141.83
1794,F#4,378.0,1.0,54,141.83
1795,C5,378.0,1.0,54,141.83
1796,A2,378.0,1.0,54,141.83
1797,A3,378.0,1.0,54,141.83
1798,B4,380.0,2.0,39,141.83
1799,D5,380.0,1.5,46,141.83
1800,G3,380.0,2.0,35,141.83
1801,G2,380.0,2.0,35,141.83
1802,E-5,381.5,0.5,40,141.83
1803,C5,382.0,1.0,42,141.83
1804,E5,382.0,1.0,42,141.83
1805,F#3,382.0,1.0,35,141.83
1806,F#2,382.0,1.0,35,141.83
1807,D5,385.0,1.0,60,141.83
1808,B3,385.0,0.25,42,141.83
1809,G4,385.25,0.25,34,141.83
1810,B3,385.5,0.25,34,141.83
1811,G4,385.75,0.25,34,141.83
1812,C5,386.0,1.0,56,141.83
1813,A3,386.0,0.25,42,141.83
1814,G4,386.25,0.25,36,141.83
1815,A3,386.5,0.25,36,141.83
1816,G4,386.75,0.25,36,141.83
1817,B4,387.0,1.0,55,141.83
1818,G3,387.0,0.25,42,141.83
1819,G4,387.25,0.25,37,141.83
1820,G3,387.5,0.25,37,141.83
1821,G4,387.75,0.25,37,141.83
1822,E5,388.0,0.75,60,141.83
1823,C4,388.0,0.25,42,141.83
1824,G4,388.25,0.25,36,141.83
1825,F#4,388.5,0.25,36,141.83
1826,F#5,388.75,83/1000,54,141.83
1827,G4,388.75,0.25,36,141.83
1828,E5,388.833,83/1000,54,141.83
1829,D5,388.919,83/1000,54,141.83
1830,E5,389.0,0.25,60,141.83
1831,C4,389.0,0.25,42,141.83
1832,G4,389.25,0.25,36,141.83
1833,F#5,389.5,0.25,56,141.83
1834,F#4,389.5,0.25,36,141.83
1835,G4,389.75,0.25,36,141.83
1836,A5,390.0,0.5,60,141.83
1837,C4,390.0,0.25,36,141.83
1838,G4,390.25,0.25,38,141.83
1839,G5,390.5,0.25,54,141.83
1840,F#4,390.5,0.25,38,141.83
1841,G4,390.75,0.25,38,141.83
1842,F#5,391.0,0.5,56,141.83
1843,C4,391.0,0.25,40,141.83
1844,G4,391.25,0.25,36,141.83
1845,E5,391.5,0.25,54,141.83
1846,F#4,391.5,0.25,36,141.83
1847,G4,391.75,0.25,36,141.83
1848,D5,392.0,0.5,60,141.83
1849,B3,392.0,0.25,44,141.83
1850,G4,392.25,0.25,44,141.83
1851,F#4,392.5,0.25,33,141.83
1852,G4,392.75,0.25,33,141.83
1853,D5,393.0,1.0,49,141.83
1854,B3,393.0,0.25,37,141.83
1855,G4,393.25,0.25,30,141.83
1856,B3,393.5,0.25,30,141.83
1857,G4,393.75,0.25,30,141.83
1858,C5,394.0,1.0,49,141.83
1859,A3,394.0,0.25,37,141.83
1860,G4,394.25,0.25,32,141.83
1861,A3,394.5,0.25,32,141.83
1862,G4,394.75,0.25,32,141.83
1863,B4,395.0,1.0,48,141.83
1864,G3,395.0,0.25,37,141.83
1865,G4,395.25,0.25,33,141.83
1866,G3,395.5,0.25,33,141.83
1867,G4,395.75,0.25,33,141.83
1868,A4,396.0,0.75,56,141.83
1869,C3,396.0,0.25,37,141.83
1870,A3,396.25,0.25,32,141.83
1871,E3,396.5,0.25,32,141.83
1872,E5,396.75,0.25,43,141.83
1873,A3,396.75,0.25,32,141.83
1874,D5,397.0,0.25,49,141.83
1875,C3,397.0,0.25,37,141.83
1876,C5,397.25,0.25,48,141.83
1877,A3,397.25,0.25,32,141.83
1878,B4,397.5,0.25,48,141.83
1879,E3,397.5,0.25,32,141.83
1880,A4,397.75,0.25,48,141.83
1881,A3,397.75,0.25,32,141.83
1882,G4,398.0,1.0,52,141.83
1883,D3,398.0,0.25,32,141.83
1884,B3,398.25,0.25,34,141.83
1885,G3,398.5,0.25,34,141.83
1886,B3,398.75,0.25,34,141.83
1887,A4,399.0,0.125,45,141.83
1888,D3,399.0,0.25,36,141.83
1889,B4,399.125,0.125,40,141.83
1890,A4,399.25,0.125,46,141.83
1891,C4,399.25,0.25,32,141.83
1892,B4,399.375,0.125,41,141.83
1893,A4,399.5,167/1000,46,141.83
1894,F#3,399.5,0.25,32,141.83
1895,G4,399.667,167/1000,39,141.83
1896,C4,399.75,0.25,32,141.83
1897,A4,399.833,167/1000,39,141.83
1898,G4,400.0,0.5,54,141.83
1899,G3,400.0,0.25,39,141.83
1900,D4,400.25,0.25,34,141.83
1901,B3,400.5,0.25,29,141.83
1902,D4,400.75,0.25,29,141.83
1903,D5,401.0,1.0,60,141.83
1904,B3,401.0,0.25,42,141.83
1905,G4,401.25,0.25,34,141.83
1906,B3,401.5,0.25,34,141.83
1907,G4,401.75,0.25,34,141.83
1908,C5,402.0,1.0,56,141.83
1909,A3,402.0,0.25,42,141.83
1910,G4,402.25,0.25,36,141.83
1911,A3,402.5,0.25,36,141.83
1912,G4,402.75,0.25,36,141.83
1913,B4,403.0,1.0,55,141.83
1914,G3,403.0,0.25,42,141.83
1915,G4,403.25,0.25,37,141.83
1916,G3,403.5,0.25,37,141.83
1917,G4,403.75,0.25,37,141.83
1918,E5,404.0,0.75,60,141.83
1919,C4,404.0,0.25,42,141.83
1920,G4,404.25,0.25,36,141.83
1921,F#4,404.5,0.25,36,141.83
1922,F#5,404.75,83/1000,54,141.83
1923,G4,404.75,0.25,36,141.83
1924,E5,404.833,83/1000,54,141.83
1925,D5,404.919,83/1000,54,141.83
1926,E5,405.0,0.25,60,141.83
1927,C4,405.0,0.25,42,141.83
1928,G4,405.25,0.25,36,141.83
1929,F#5,405.5,0.25,56,141.83
1930,F#4,405.5,0.25,36,141.83
1931,G4,405.75,0.25,36,141.83
1932,A5,406.0,0.5,60,141.83
1933,C4,406.0,0.25,36,141.83
1934,G4,406.25,0.25,38,141.83
1935,G5,406.5,0.25,54,141.83
1936,F#4,406.5,0.25,38,141.83
1937,G4,406.75,0.25,38,141.83
1938,F#5,407.0,0.5,56,141.83
1939,C4,407.0,0.25,40,141.83
1940,G4,407.25,0.25,36,141.83
1941,E5,407.5,0.25,54,141.83
1942,F#4,407.5,0.25,36,141.83
1943,G4,407.75,0.25,36,141.83
1944,D5,408.0,0.5,60,141.83
1945,B3,408.0,0.25,44,141.83
1946,G4,408.25,0.25,44,141.83
1947,F#4,408.5,0.25,33,141.83
1948,G4,408.75,0.25,33,141.83
1949,D5,409.0,1.0,49,141.83
1950,B3,409.0,0.25,37,141.83
1951,G4,409.25,0.25,30,141.83
1952,B3,409.5,0.25,30,141.83
1953,G4,409.75,0.25,30,141.83
1954,C5,410.0,1.0,49,141.83
1955,A3,410.0,0.25,37,141.83
1956,G4,410.25,0.25,32,141.83
1957,A3,410.5,0.25,32,141.83
1958,G4,410.75,0.25,32,141.83
1959,B4,411.0,1.0,48,141.83
1960,G3,411.0,0.25,37,141.83
1961,G4,411.25,0.25,33,141.83
1962,G3,411.5,0.25,33,141.83
1963,G4,411.75,0.25,33,141.83
1964,A4,412.0,0.75,56,141.83
1965,C3,412.0,0.25,37,141.83
1966,A3,412.25,0.25,32,141.83
1967,E3,412.5,0.25,32,141.83
1968,E5,412.75,0.25,43,141.83
1969,A3,412.75,0.25,32,141.83
1970,D5,413.0,0.25,49,141.83
1971,C3,413.0,0.25,37,141.83
1972,C5,413.25,0.25,48,141.83
1973,A3,413.25,0.25,32,141.83
1974,B4,413.5,0.25,48,141.83
1975,E3,413.5,0.25,32,141.83
1976,A4,413.75,0.25,48,141.83
1977,A3,413.75,0.25,32,141.83
1978,G4,414.0,1.0,52,141.83
1979,D3,414.0,0.25,32,141.83
1980,B3,414.25,0.25,34,141.83
1981,G3,414.5,0.25,34,141.83
1982,B3,414.75,0.25,34,141.83
1983,A4,415.0,0.125,45,141.83
1984,D3,415.0,0.25,36,141.83
1985,B4,415.125,0.125,40,141.83
1986,A4,415.25,0.125,46,141.83
1987,C4,415.25,0.25,32,141.83
1988,B4,415.375,0.125,41,141.83
1989,A4,415.5,167/1000,46,141.83
1990,F#3,415.5,0.25,32,141.83
1991,G4,415.667,167/1000,39,141.83
1992,C4,415.75,0.25,32,141.83
1993,A4,415.833,167/1000,39,141.83
1994,G4,416.0,0.25,59,141.83
1995,B3,416.0,1.0,48,141.83
1996,G3,416.0,1.0,48,141.83
1997,A4,416.25,0.25,53,141.83
1998,G4,416.5,0.25,59,141.83
1999,F#4,416.75,0.25,52,141.83
2000,G4,417.0,0.25,59,141.83
2001,B4,417.25,0.25,54,141.83
2002,A4,417.5,0.25,59,141.83
2003,F#3,417.5,0.25,44,141.83
2004,D4,417.5,0.25,44,141.83
2005,C5,417.75,0.25,53,141.83
2006,B4,418.0,0.25,59,141.83
2007,D4,418.0,1.0,48,141.83
2008,G3,418.0,1.0,48,141.83
2009,A4,418.25,0.25,53,141.83
2010,G4,418.5,0.25,59,141.83
2011,F#4,418.75,0.25,52,141.83
2012,G4,419.0,0.25,59,141.83
2013,B4,419.25,0.25,54,141.83
2014,A4,419.5,0.25,59,141.83
2015,F#3,419.5,0.25,43,141.83
2016,D4,419.5,0.25,43,141.83
2017,C5,419.75,0.25,53,141.83
2018,B4,420.0,0.25,59,141.83
2019,G3,420.0,1.0,47,141.83
2020,D4,420.0,1.0,47,141.83
2021,A4,420.25,0.25,53,141.83
2022,G4,420.5,0.25,59,141.83
2023,F#4,420.75,0.25,52,141.83
2024,G4,421.0,0.25,59,141.83
2025,B4,421.25,0.25,54,141.83
2026,A4,421.5,0.25,59,141.83
2027,D4,421.5,0.25,42,141.83
2028,F#3,421.5,0.25,42,141.83
2029,C5,421.75,0.25,53,141.83
2030,B4,422.0,0.25,59,141.83
2031,D4,422.0,0.25,46,141.83
2032,G3,422.0,0.25,46,141.83
2033,D5,422.25,0.25,53,141.83
2034,C5,422.5,0.25,59,141.83
2035,D4,422.5,0.25,42,141.83
2036,F#3,422.5,0.25,42,141.83
2037,A4,422.75,0.25,52,141.83
2038,B4,423.0,0.25,59,141.83
2039,D4,423.0,0.25,42,141.83
2040,G3,423.0,0.25,42,141.83
2041,D5,423.25,0.25,54,141.83
2042,C#5,423.5,0.25,59,141.83
2043,G3,423.5,0.25,42,141.83
2044,E3,423.5,0.25,42,141.83
2045,E5,423.75,0.25,53,141.83
2046,D5,424.0,0.25,59,141.83
2047,A3,424.0,1.0,46,141.83
2048,F#3,424.0,1.0,46,141.83
2049,E5,424.25,0.25,53,141.83
2050,D5,424.5,0.25,59,141.83
2051,C#5,424.75,0.25,52,141.83
2052,D5,425.0,0.25,59,141.83
2053,F#5,425.25,0.25,54,141.83
2054,E5,425.5,0.25,59,141.83
2055,C#3,425.5,0.25,46,141.83
2056,A3,425.5,0.25,46,141.83
2057,G5,425.75,0.25,53,141.83
2058,F#5,426.0,0.25,59,141.83
2059,A3,426.0,1.0,48,141.83
2060,D3,426.0,1.0,48,141.83
2061,E5,426.25,0.25,53,141.83
2062,D5,426.5,0.25,59,141.83
2063,C#5,426.75,0.25,52,141.83
2064,D5,427.0,0.25,59,141.83
2065,F#5,427.25,0.25,54,141.83
2066,E5,427.5,0.25,59,141.83
2067,A3,427.5,0.25,46,141.83
2068,C#3,427.5,0.25,46,141.83
2069,G5,427.75,0.25,53,141.83
2070,F#5,428.0,0.25,59,141.83
2071,D3,428.0,1.0,50,141.83
2072,A3,428.0,1.0,50,141.83
2073,E5,428.25,0.25,53,141.83
2074,D5,428.5,0.25,59,141.83
2075,C#5,428.75,0.25,52,141.83
2076,D5,429.0,0.25,59,141.83
2077,E5,429.25,0.25,54,141.83
2078,F#5,429.5,0.25,64,141.83
2079,E-3,429.5,0.25,50,141.83
2080,B3,429.5,0.25,50,141.83
2081,A5,429.75,0.25,58,141.83
2082,G5,430.0,0.25,64,141.83
2083,B3,430.0,1.0,52,141.83
2084,E3,430.0,1.0,52,141.83
2085,F#5,430.25,0.25,58,141.83
2086,E5,430.5,0.25,64,141.83
2087,E-5,430.75,0.25,57,141.83
2088,E5,431.0,0.25,64,141.83
2089,F#5,431.25,0.25,59,141.83
2090,G5,431.5,0.25,64,141.83
2091,B3,431.5,0.25,49,141.83
2092,E-3,431.5,0.25,49,141.83
2093,A5,431.75,0.25,58,141.83
2094,G5,432.0,0.25,69,141.83
2095,E3,432.0,1.0,56,141.83
2096,B3,432.0,1.0,56,141.83
2097,F#5,432.25,0.25,67,141.83
2098,E5,432.5,0.25,65,141.83
2099,E-5,432.75,0.25,62,141.83
2100,E5,433.0,0.25,64,141.83
2101,F#5,433.25,0.25,65,141.83
2102,G5,433.5,0.25,67,141.83
2103,C#4,433.5,0.25,50,141.83
2104,E3,433.5,0.25,50,141.83
2105,B5,433.75,0.25,60,141.83
2106,A5,434.0,0.25,67,141.83
2107,D4,434.0,1.0,57,141.83
2108,F#3,434.0,1.0,57,141.83
2109,G5,434.25,0.25,60,141.83
2110,F#5,434.5,0.25,67,141.83
2111,E5,434.75,0.25,59,141.83
2112,F#5,435.0,0.25,67,141.83
2113,G5,435.25,0.25,61,141.83
2114,A5,435.5,0.25,67,141.83
2115,E3,435.5,0.25,52,141.83
2116,C#4,435.5,0.25,52,141.83
2117,B5,435.75,0.25,60,141.83
2118,A5,436.0,0.25,67,141.83
2119,F#3,436.0,1.0,57,141.83
2120,D4,436.0,1.0,57,141.83
2121,G5,436.25,0.25,66,141.83
2122,F#5,436.5,0.25,65,141.83
2123,E5,436.75,0.25,64,141.83
2124,F#5,437.0,0.25,67,141.83
2125,G5,437.25,0.25,61,141.83
2126,A5,437.5,0.25,67,141.83
2127,F#4,437.5,0.25,54,141.83
2128,C6,437.75,0.25,60,141.83
2129,B5,438.0,0.25,67,141.83
2130,G4,438.0,0.25,62,141.83
2131,D6,438.25,0.25,57,141.83
2132,A5,438.5,0.25,62,141.83
2133,F#4,438.5,0.25,56,141.83
2134,D6,438.75,0.25,57,141.83
2135,B5,439.0,0.25,67,141.83
2136,G4,439.0,0.25,61,141.83
2137,D6,439.25,0.25,56,141.83
2138,F#5,439.5,0.25,62,141.83
2139,E-4,439.5,0.25,53,141.83
2140,B5,439.75,0.25,56,141.83
2141,G5,440.0,0.25,67,141.83
2142,E4,440.0,0.25,62,141.83
2143,B5,440.25,0.25,57,141.83
2144,F#5,440.5,0.25,62,141.83
2145,E-4,440.5,0.25,56,141.83
2146,B5,440.75,0.25,57,141.83
2147,G5,441.0,0.25,67,141.83
2148,E4,441.0,0.25,64,141.83
2149,B5,441.25,0.25,58,141.83
2150,E5,441.5,0.25,62,141.83
2151,C#4,441.5,0.25,56,141.83
2152,A5,441.75,0.25,57,141.83
2153,F#5,442.0,0.25,67,141.83
2154,D4,442.0,0.25,66,141.83
2155,A5,442.25,0.25,57,141.83
2156,E5,442.5,0.25,62,141.83
2157,C#4,442.5,0.25,57,141.83
2158,A5,442.75,0.25,57,141.83
2159,F#5,443.0,0.25,67,141.83
2160,D4,443.0,0.25,66,141.83
2161,A5,443.25,0.25,57,141.83
2162,C#5,443.5,0.25,62,141.83
2163,B-3,443.5,0.25,57,141.83
2164,F#5,443.75,0.25,57,141.83
2165,D5,444.0,0.25,67,141.83
2166,B3,444.0,0.25,66,141.83
2167,F#5,444.25,0.25,59,141.83
2168,C#5,444.5,0.25,61,141.83
2169,B-3,444.5,0.25,57,141.83
2170,F#5,444.75,0.25,58,141.83
2171,D5,445.0,0.25,67,141.83
2172,B3,445.0,0.25,63,141.83
2173,F#5,445.25,0.25,59,141.83
2174,E-5,445.5,0.25,62,141.83
2175,C4,445.5,0.25,57,141.83
2176,A3,445.5,0.25,57,141.83
2177,F#5,445.75,0.25,59,141.83
2178,E5,446.0,0.25,67,141.83
2179,B3,446.0,1.0,58,141.83
2180,G3,446.0,1.0,58,141.83
2181,E-5,446.25,0.25,61,141.83
2182,E5,446.5,0.25,65,141.83
2183,F#5,446.75,0.25,60,141.83
2184,G5,447.0,0.25,70,141.83
2185,F#5,447.25,0.25,60,141.83
2186,G5,447.5,0.25,65,141.83
2187,A5,447.75,0.25,60,141.83
2188,B5,448.0,11/40,59,141.83
2189,E4,448.0,0.25,46,141.83
2190,G3,448.0,0.25,46,141.83
2191,C#6,448.25,11/40,60,141.83
2192,D6,448.5,11/40,61,141.83
2193,G3,448.5,0.25,37,141.83
2194,E4,448.5,0.25,37,141.83
2195,C#6,448.75,11/40,64,141.83
2196,B5,449.0,11/40,65,141.83
2197,E4,449.0,0.25,37,141.83
2198,G3,449.0,0.25,37,141.83
2199,A5,449.25,11/40,66,141.83
2200,G5,449.5,11/40,66,141.83
2201,G3,449.5,0.25,37,141.83
2202,E4,449.5,0.25,37,141.83
2203,F#5,449.75,11/40,65,141.83
2204,E5,450.0,11/40,63,141.83
2205,E4,450.0,0.25,46,141.83
2206,G3,450.0,0.25,46,141.83
2207,F#5,450.25,11/40,64,141.83
2208,G5,450.5,11/40,67,141.83
2209,E4,450.5,0.25,37,141.83
2210,G3,450.5,0.25,37,141.83
2211,F#5,450.75,11/40,70,141.83
2212,E5,451.0,11/40,68,141.83
2213,G#3,451.0,0.25,37,141.83
2214,E4,451.0,0.25,37,141.83
2215,D5,451.25,11/40,67,141.83
2216,C#5,451.5,11/40,65,141.83
2217,E4,451.5,0.25,37,141.83
2218,G#3,451.5,0.25,37,141.83
2219,B4,451.75,0.25,64,141.83
2220,C#5,452.0,11/40,67,141.83
2221,B4,452.0,1/40,64,141.83
2222,A3,452.0,0.5,48,141.83
2223,D5,452.25,11/40,67,141.83
2224,C#5,452.5,11/40,57,141.83
2225,G3,452.5,0.5,42,141.83
2226,A4,452.75,11/40,57,141.83
2227,D5,453.0,0.25,66,141.83
2228,F#3,453.0,0.25,42,141.83
2229,D3,453.5,0.25,42,141.83
2230,G5,454.0,11/40,66,141.83
2231,C#3,454.0,0.5,52,141.83
2232,A5,454.25,11/40,56,141.83
2233,G5,454.5,11/40,56,141.83
2234,A2,454.5,0.5,46,141.83
2235,E5,454.75,11/40,56,141.83
2236,G5,455.0,11/40,66,141.83
2237,D3,455.0,0.25,46,141.83
2238,F#5,455.25,11/40,57,141.83
2239,E5,455.5,11/40,57,141.83
2240,F#3,455.5,0.25,46,141.83
2241,D5,455.75,0.25,57,141.83
2242,C#5,456.0,11/40,68,141.83
2243,D5,456.0,1/40,57,141.83
2244,A3,456.0,0.5,53,141.83
2245,D5,456.25,11/40,56,141.83
2246,C#5,456.5,11/40,55,141.83
2247,G3,456.5,0.5,46,141.83
2248,A4,456.75,11/40,55,141.83
2249,D5,457.0,0.25,68,141.83
2250,F#3,457.0,0.25,47,141.83
2251,D3,457.5,0.25,47,141.83
2252,G5,458.0,11/40,68,141.83
2253,C#3,458.0,0.5,56,141.83
2254,A5,458.25,11/40,56,141.83
2255,G5,458.5,11/40,56,141.83
2256,A2,458.5,0.5,49,141.83
2257,E5,458.75,11/40,58,141.83
2258,G5,459.0,11/40,70,141.83
2259,D3,459.0,0.25,50,141.83
2260,F#5,459.25,11/40,58,141.83
2261,E5,459.5,11/40,58,141.83
2262,F#3,459.5,0.25,50,141.83
2263,D5,459.75,0.25,61,141.83
2264,C#5,460.0,0.25,79,141.83
2265,D5,460.0,1/40,61,141.83
2266,A3,460.0,0.5,53,141.83
2267,A2,460.0,0.5,53,141.83
2268,E3,460.0,0.5,53,141.83
2269,E5,460.25,0.25,63,141.83
2270,C#5,460.5,0.25,63,141.83
2271,A4,460.75,0.25,63,141.83
2272,F#5,461.0,0.25,74,141.83
2273,A3,461.0,0.5,54,141.83
2274,D3,461.0,0.5,54,141.83
2275,F#3,461.0,0.5,54,141.83
2276,A5,461.25,0.25,64,141.83
2277,F#5,461.5,0.25,64,141.83
2278,D5,461.75,0.25,64,141.83
2279,C#5,462.0,0.25,77,141.83
2280,A3,462.0,0.5,54,141.83
2281,A2,462.0,0.5,54,141.83
2282,E3,462.0,0.5,54,141.83
2283,E5,462.25,0.25,59,141.83
2284,C#5,462.5,0.25,60,141.83
2285,A4,462.75,0.25,60,141.83
2286,F#5,463.0,0.25,77,141.83
2287,F#3,463.0,0.5,55,141.83
2288,D3,463.0,0.5,55,141.83
2289,A3,463.0,0.5,55,141.83
2290,A5,463.25,0.25,64,141.83
2291,F#5,463.5,0.25,64,141.83
2292,D5,463.75,0.25,64,141.83
2293,E5,464.0,0.188,76,141.83
2294,C#5,464.0,0.188,76,141.83
2295,E5,464.5,0.188,65,141.83
2296,A5,464.5,0.188,65,141.83
2297,C#5,464.5,0.188,65,141.83
2298,E3,464.5,0.188,48,141.83
2299,A2,464.5,0.188,48,141.83
2300,C#3,464.5,0.188,48,141.83
2301,A3,464.5,0.188,48,141.83
2302,A5,465.0,0.188,65,141.83
2303,C#5,465.0,0.188,65,141.83
2304,E5,465.0,0.188,65,141.83
2305,E3,465.0,0.188,48,141.83
2306,C#3,465.0,0.188,48,141.83
2307,A2,465.0,0.188,48,141.83
2308,A3,465.0,0.188,48,141.83
2309,C#5,465.5,0.188,65,141.83
2310,E5,465.5,0.188,65,141.83
2311,A5,465.5,0.188,65,141.83
2312,E3,465.5,0.188,48,141.83
2313,C#3,465.5,0.188,48,141.83
2314,A2,465.5,0.188,48,141.83
2315,A3,465.5,0.188,48,141.83
2316,A5,466.0,0.875,65,141.83
2317,C#5,466.0,0.875,65,141.83
2318,E5,466.0,0.875,65,141.83
2319,C#3,466.0,0.875,51,141.83
2320,A3,466.0,0.875,51,141.83
2321,A2,466.0,0.875,51,141.83
2322,E3,466.0,0.875,51,141.83
2323,G5,466.875,0.125,41,141.83
2324,F#5,467.0,0.25,42,141.83
2325,E5,467.25,0.25,40,141.83
2326,F#5,467.5,0.25,40,141.83
2327,G5,467.75,0.25,40,141.83
2328,G#5,468.0,0.5,45,141.83
2329,D4,468.0,0.5,30,141.83
2330,A5,468.5,0.5,42,141.83
2331,F#4,468.5,0.5,23,141.83
2332,E4,469.0,0.5,30,141.83
2333,A5,469.5,0.5,40,141.83
2334,G4,469.5,0.5,27,141.83
2335,D6,470.0,0.5,46,141.83
2336,F#4,470.0,0.5,32,141.83
2337,C#6,470.5,0.5,42,141.83
2338,A4,470.5,0.5,26,141.83
2339,B5,471.0,0.5,44,141.83
2340,D4,471.0,0.5,29,141.83
2341,A5,471.5,0.5,42,141.83
2342,F#4,471.5,0.5,26,141.83
2343,F#5,472.0,0.5,48,141.83
2344,E4,472.0,0.5,34,141.83
2345,G5,472.5,0.5,42,141.83
2346,B4,472.5,0.5,28,141.83
2347,G4,473.0,0.5,32,141.83
2348,G5,473.5,0.5,40,141.83
2349,E4,473.5,0.5,28,141.83
2350,A5,474.0,0.5,45,141.83
2351,C#4,474.0,0.5,34,141.83
2352,G5,474.5,0.5,42,141.83
2353,E4,474.5,0.5,29,141.83
2354,F#5,475.0,0.5,45,141.83
2355,A3,475.0,0.5,30,141.83
2356,E5,475.5,0.5,42,141.83
2357,G4,475.5,0.5,28,141.83
2358,C#5,476.0,0.5,48,141.83
2359,F#4,476.0,0.5,34,141.83
2360,D5,476.5,0.5,44,141.83
2361,A4,476.5,0.5,28,141.83
2362,C#4,477.0,0.5,30,141.83
2363,E5,477.5,0.5,45,141.83
2364,A4,477.5,0.5,28,141.83
2365,F5,478.0,0.5,50,141.83
2366,D4,478.0,0.5,34,141.83
2367,F#5,478.5,0.5,46,141.83
2368,A4,478.5,0.5,26,141.83
2369,B3,479.0,0.5,29,141.83
2370,A5,479.375,0.125,42,141.83
2371,G5,479.5,0.5,47,141.83
2372,D4,479.5,0.5,26,141.83
2373,F#5,480.0,1.5,51,141.83
2374,A3,480.0,0.5,34,141.83
2375,D4,480.5,0.5,27,141.83
2376,F#4,481.0,0.5,30,141.83
2377,G5,481.5,0.25,44,141.83
2378,D4,481.5,0.5,27,141.83
2379,F#5,481.75,0.25,42,141.83
2380,E5,482.0,0.5,47,141.83
2381,C#4,482.0,1.0,33,141.83
2382,A3,482.0,1.0,33,141.83
2383,F#5,482.5,0.25,42,141.83
2384,G5,483.0,0.25,44,141.83
2385,G#5,483.5,0.25,47,141.83
2386,G#5,484.0,0.5,45,141.83
2387,D4,484.0,0.5,34,141.83
2388,A5,484.5,0.5,42,141.83
2389,F4,484.5,0.5,27,141.83
2390,E4,485.0,0.5,30,141.83
2391,A5,485.5,0.5,40,141.83
2392,G4,485.5,0.5,27,141.83
2393,D6,486.0,0.25,46,141.83
2394,F4,486.0,0.5,32,141.83
2395,C6,486.5,0.25,42,141.83
2396,A4,486.5,0.25,26,141.83
2397,B-5,487.0,0.25,44,141.83
2398,D4,487.0,0.5,29,141.83
2399,A5,487.5,0.25,42,141.83
2400,F4,487.5,0.25,26,141.83
2401,F#5,488.0,0.5,48,141.83
2402,E4,488.0,0.5,34,141.83
2403,G5,488.5,0.5,42,141.83
2404,B-4,488.5,0.5,28,141.83
2405,G4,489.0,0.5,32,141.83
2406,A5,489.5,0.125,40,141.83
2407,E4,489.5,0.5,28,141.83
2408,G5,489.625,0.125,37,141.83
2409,F#5,489.75,0.125,37,141.83
2410,G5,489.875,0.125,37,141.83
2411,A5,490.0,0.25,45,141.83
2412,C#4,490.0,0.5,34,141.83
2413,G5,490.5,0.25,42,141.83
2414,E4,490.5,0.25,29,141.83
2415,F5,491.0,0.25,45,141.83
2416,A3,491.0,0.5,30,141.83
2417,E5,491.5,0.25,42,141.83
2418,C#4,491.5,0.25,28,141.83
2419,G5,492.0,0.5,45,141.83
2420,D4,492.0,0.5,34,141.83
2421,F5,492.5,0.5,42,141.83
2422,A4,492.5,0.5,27,141.83
2423,C4,493.0,0.5,30,141.83
2424,E5,493.5,0.5,40,141.83
2425,A4,493.5,0.5,27,141.83
2426,C#5,494.0,0.5,46,141.83
2427,B-3,494.0,0.5,32,141.83
2428,D5,494.5,0.5,42,141.83
2429,F4,494.5,0.5,26,141.83
2430,E4,495.0,0.5,29,141.83
2431,G#5,495.5,0.5,46,141.83
2432,D4,495.5,0.5,26,141.83
2433,G#5,496.0,2.0,49,141.83
2434,A3,496.0,0.5,33,141.83
2435,D4,496.5,0.5,22,141.83
2436,F4,497.0,0.5,28,141.83
2437,D4,497.5,0.5,24,141.83
2438,A5,498.0,0.5,42,141.83
2439,C#4,498.0,0.5,28,141.83
2440,A3,498.0,0.5,28,141.83
2441,G2,498.5,0.25,49,141.83
2442,G3,498.5,0.25,49,141.83
2443,F#2,499.0,0.25,52,141.83
2444,F#3,499.0,0.25,52,141.83
2445,E3,499.5,0.25,56,141.83
2446,E2,499.5,0.25,56,141.83
2447,F#5,500.0,0.25,46,141.83
2448,D3,500.0,1.0,60,141.83
2449,D2,500.0,1.0,60,141.83
2450,A5,500.25,0.25,44,141.83
2451,G#5,500.5,0.25,47,141.83
2452,A5,500.75,0.25,43,141.83
2453,B5,501.0,0.25,50,141.83
2454,A5,501.25,0.25,47,141.83
2455,G#5,501.5,0.25,53,141.83
2456,D5,501.5,0.25,49,141.83
2457,A5,501.75,0.25,53,141.83
2458,G5,502.0,0.25,62,141.83
2459,E5,502.0,0.25,55,141.83
2460,A5,502.25,0.25,53,141.83
2461,G5,502.5,0.25,55,141.83
2462,D5,502.5,0.25,49,141.83
2463,A5,502.75,0.25,52,141.83
2464,G5,503.0,0.25,64,141.83
2465,C#5,503.0,0.25,58,141.83
2466,A5,503.25,0.25,51,141.83
2467,G5,503.5,0.25,55,141.83
2468,A4,503.5,0.25,48,141.83
2469,A5,503.75,0.25,49,141.83
2470,F#5,504.0,0.25,56,141.83
2471,D5,504.0,1.0,54,141.83
2472,A5,504.25,0.25,49,141.83
2473,G#5,504.5,0.25,51,141.83
2474,A5,504.75,0.25,47,141.83
2475,B5,505.0,0.25,54,141.83
2476,A5,505.25,0.25,47,141.83
2477,G#5,505.5,0.25,51,141.83
2478,D4,505.5,0.25,49,141.83
2479,A5,505.75,0.25,53,141.83
2480,G5,506.0,0.25,59,141.83
2481,E4,506.0,0.25,55,141.83
2482,A5,506.25,0.25,50,141.83
2483,G5,506.5,0.25,55,141.83
2484,D4,506.5,0.25,48,141.83
2485,A5,506.75,0.25,52,141.83
2486,G5,507.0,0.25,62,141.83
2487,C#4,507.0,0.25,54,141.83
2488,A5,507.25,0.25,49,141.83
2489,G5,507.5,0.25,55,141.83
2490,A3,507.5,0.25,47,141.83
2491,A5,507.75,0.25,49,141.83
2492,F#5,508.0,1.0,41,141.83
2493,D4,508.0,0.25,52,141.83
2494,A4,508.25,0.25,35,141.83
2495,G#4,508.5,0.25,42,141.83
2496,A4,508.75,0.25,38,141.83
2497,B4,509.0,0.25,47,141.83
2498,A4,509.25,0.25,39,141.83
2499,D6,509.5,0.25,57,141.83
2500,G#4,509.5,0.25,44,141.83
2501,A4,509.75,0.25,40,141.83
2502,E6,510.0,0.25,63,141.83
2503,G4,510.0,0.25,47,141.83
2504,A4,510.25,0.25,39,141.83
2505,D6,510.5,0.25,58,141.83
2506,G4,510.5,0.25,41,141.83
2507,A4,510.75,0.25,39,141.83
2508,C#6,511.0,0.25,63,141.83
2509,G4,511.0,0.25,49,141.83
2510,A4,511.25,0.25,39,141.83
2511,A5,511.5,0.25,58,141.83
2512,G4,511.5,0.25,44,141.83
2513,A4,511.75,0.25,39,141.83
2514,D6,512.0,1.0,60,141.83
2515,F#4,512.0,0.25,39,141.83
2516,A4,512.25,0.25,38,141.83
2517,G#4,512.5,0.25,41,141.83
2518,A4,512.75,0.25,37,141.83
2519,B4,513.0,0.25,40,141.83
2520,A4,513.25,0.25,37,141.83
2521,D3,513.5,0.25,57,141.83
2522,G#4,513.5,0.25,44,141.83
2523,A4,513.75,0.25,40,141.83
2524,E3,514.0,0.25,63,141.83
2525,G4,514.0,0.25,47,141.83
2526,A4,514.25,0.25,42,141.83
2527,D3,514.5,0.25,58,141.83
2528,G4,514.5,0.25,44,141.83
2529,A4,514.75,0.25,39,141.83
2530,C#3,515.0,0.25,60,141.83
2531,G4,515.0,0.25,49,141.83
2532,A4,515.25,0.25,43,141.83
2533,A2,515.5,0.25,58,141.83
2534,G4,515.5,0.25,47,141.83
2535,A4,515.75,0.25,39,141.83
2536,D3,516.0,1.0,60,141.83
2537,F#4,516.0,1.0,41,141.83
2538,A5,517.0,1.0,50,141.83
2539,F#4,517.0,0.25,35,141.83
2540,D5,517.25,0.25,29,141.83
2541,F#4,517.5,0.25,29,141.83
2542,D5,517.75,0.25,29,141.83
2543,G5,518.0,1.0,47,141.83
2544,E4,518.0,0.25,35,141.83
2545,D5,518.25,0.25,30,141.83
2546,E4,518.5,0.25,30,141.83
2547,D5,518.75,0.25,30,141.83
2548,F#5,519.0,1.0,46,141.83
2549,D4,519.0,0.25,35,141.83
2550,D5,519.25,0.25,31,141.83
2551,D4,519.5,0.25,31,141.83
2552,D5,519.75,0.25,31,141.83
2553,B5,520.0,0.75,50,141.83
2554,G4,520.0,0.25,35,141.83
2555,D5,520.25,0.25,30,141.83
2556,C#5,520.5,0.25,30,141.83
2557,C#6,520.75,83/1000,45,141.83
2558,D5,520.75,0.25,30,141.83
2559,B5,520.833,83/1000,45,141.83
2560,A5,520.919,83/1000,45,141.83
2561,B5,521.0,0.25,50,141.83
2562,G4,521.0,0.25,35,141.83
2563,D5,521.25,0.25,30,141.83
2564,C#6,521.5,0.25,47,141.83
2565,C#5,521.5,0.25,30,141.83
2566,D5,521.75,0.25,30,141.83
2567,E6,522.0,0.5,50,141.83
2568,G4,522.0,0.25,30,141.83
2569,D5,522.25,0.25,32,141.83
2570,D6,522.5,0.25,45,141.83
2571,C#5,522.5,0.25,32,141.83
2572,D5,522.75,0.25,32,141.83
2573,C#6,523.0,0.5,47,141.83
2574,G4,523.0,0.25,34,141.83
2575,D5,523.25,0.25,30,141.83
2576,B5,523.5,0.25,45,141.83
2577,C#5,523.5,0.25,30,141.83
2578,D5,523.75,0.25,30,141.83
2579,A5,524.0,0.5,50,141.83
2580,F#4,524.0,0.25,37,141.83
2581,D5,524.25,0.25,37,141.83
2582,C#5,524.5,0.25,28,141.83
2583,D5,524.75,0.25,28,141.83
2584,A5,525.0,1.0,60,141.83
2585,F#4,525.0,0.25,45,141.83
2586,D5,525.25,0.25,37,141.83
2587,F#4,525.5,0.25,37,141.83
2588,D5,525.75,0.25,37,141.83
2589,G5,526.0,1.0,60,141.83
2590,E4,526.0,0.25,45,141.83
2591,D5,526.25,0.25,39,141.83
2592,E4,526.5,0.25,39,141.83
2593,D5,526.75,0.25,39,141.83
2594,F#5,527.0,1.0,59,141.83
2595,D4,527.0,0.25,45,141.83
2596,D5,527.25,0.25,40,141.83
2597,D4,527.5,0.25,40,141.83
2598,D5,527.75,0.25,40,141.83
2599,E5,528.0,0.75,68,141.83
2600,G3,528.0,0.25,45,141.83
2601,E4,528.25,0.25,39,141.83
2602,B3,528.5,0.25,39,141.83
2603,B5,528.75,0.25,53,141.83
2604,E4,528.75,0.25,39,141.83
2605,A5,529.0,0.25,60,141.83
2606,G3,529.0,0.25,45,141.83
2607,G5,529.25,0.25,58,141.83
2608,E4,529.25,0.25,39,141.83
2609,F#5,529.5,0.25,58,141.83
2610,B3,529.5,0.25,39,141.83
2611,E5,529.75,0.25,58,141.83
2612,E4,529.75,0.25,39,141.83
2613,D5,530.0,1.0,63,141.83
2614,A3,530.0,0.25,39,141.83
2615,F#4,530.25,0.25,41,141.83
2616,D4,530.5,0.25,41,141.83
2617,F#4,530.75,0.25,41,141.83
2618,E5,531.0,0.125,55,141.83
2619,A3,531.0,0.25,44,141.83
2620,F#5,531.125,0.125,49,141.83
2621,E5,531.25,0.125,56,141.83
2622,G4,531.25,0.25,39,141.83
2623,F#5,531.375,0.125,50,141.83
2624,E5,531.5,167/1000,56,141.83
2625,C#4,531.5,0.25,39,141.83
2626,D5,531.667,167/1000,48,141.83
2627,G4,531.75,0.25,39,141.83
2628,E5,531.833,167/1000,48,141.83
2629,D5,532.0,0.5,66,141.83
2630,D4,532.0,0.25,48,141.83
2631,F#4,532.25,0.25,42,141.83
2632,D4,532.5,0.25,36,141.83
2633,F#4,532.75,0.25,36,141.83
2634,A4,533.0,1.0,50,141.83
2635,F#3,533.0,0.25,35,141.83
2636,D4,533.25,0.25,29,141.83
2637,F#3,533.5,0.25,29,141.83
2638,D4,533.75,0.25,29,141.83
2639,G4,534.0,1.0,47,141.83
2640,E3,534.0,0.25,35,141.83
2641,D4,534.25,0.25,30,141.83
2642,E3,534.5,0.25,30,141.83
2643,D4,534.75,0.25,30,141.83
2644,F#4,535.0,1.0,46,141.83
2645,D3,535.0,0.25,35,141.83
2646,D4,535.25,0.25,31,141.83
2647,D3,535.5,0.25,31,141.83
2648,D4,535.75,0.25,31,141.83
2649,B4,536.0,0.75,50,141.83
2650,G3,536.0,0.25,35,141.83
2651,D4,536.25,0.25,30,141.83
2652,C#4,536.5,0.25,30,141.83
2653,C#5,536.75,83/1000,45,141.83
2654,D4,536.75,0.25,30,141.83
2655,B4,536.833,83/1000,45,141.83
2656,A4,536.919,83/1000,45,141.83
2657,B4,537.0,0.25,50,141.83
2658,G3,537.0,0.25,35,141.83
2659,D4,537.25,0.25,30,141.83
2660,C#5,537.5,0.25,47,141.83
2661,C#4,537.5,0.25,30,141.83
2662,D4,537.75,0.25,30,141.83
2663,E5,538.0,0.5,50,141.83
2664,G3,538.0,0.25,30,141.83
2665,D4,538.25,0.25,32,141.83
2666,D5,538.5,0.5,45,141.83
2667,C#4,538.5,0.25,32,141.83
2668,D4,538.75,0.25,32,141.83
2669,C#5,539.0,0.5,47,141.83
2670,G3,539.0,0.25,34,141.83
2671,D4,539.25,0.25,30,141.83
2672,B4,539.5,0.5,45,141.83
2673,C#4,539.5,0.25,30,141.83
2674,D4,539.75,0.25,30,141.83
2675,A4,540.0,0.5,50,141.83
2676,F#3,540.0,0.25,37,141.83
2677,D4,540.25,0.25,37,141.83
2678,C#4,540.5,0.25,28,141.83
2679,D4,540.75,0.25,28,141.83
2680,F#2,541.0,0.25,49,141.83
2681,A4,541.0,1.0,61,141.83
2682,A5,541.0,1.0,61,141.83
2683,D3,541.25,0.25,40,141.83
2684,F#2,541.5,0.25,40,141.83
2685,D3,541.75,0.25,40,141.83
2686,E2,542.0,0.25,49,141.83
2687,G5,542.0,1.0,61,141.83
2688,G4,542.0,1.0,61,141.83
2689,D3,542.25,0.25,42,141.83
2690,E2,542.5,0.25,42,141.83
2691,D3,542.75,0.25,42,141.83
2692,D2,543.0,0.25,49,141.83
2693,F#4,543.0,1.0,60,141.83
2694,F#5,543.0,1.0,60,141.83
2695,D3,543.25,0.25,44,141.83
2696,D2,543.5,0.25,44,141.83
2697,D3,543.75,0.25,44,141.83
2698,G2,544.0,0.25,49,141.83
2699,E4,544.0,0.75,64,141.83
2700,E5,544.0,0.75,64,141.83
2701,E3,544.25,0.25,42,141.83
2702,B2,544.5,0.25,42,141.83
2703,B5,544.75,0.25,58,141.83
2704,E3,544.75,0.25,42,141.83
2705,A5,545.0,0.25,66,141.83
2706,G2,545.0,0.25,49,141.83
2707,G5,545.25,0.25,63,141.83
2708,E3,545.25,0.25,42,141.83
2709,F#5,545.5,0.25,63,141.83
2710,B2,545.5,0.25,42,141.83
2711,E5,545.75,0.25,63,141.83
2712,E3,545.75,0.25,42,141.83
2713,D5,546.0,1.0,69,141.83
2714,A2,546.0,0.25,42,141.83
2715,F#3,546.25,0.25,45,141.83
2716,D3,546.5,0.25,45,141.83
2717,F#3,546.75,0.25,45,141.83
2718,E5,547.0,0.125,60,141.83
2719,A2,547.0,0.25,48,141.83
2720,F#5,547.125,0.125,53,141.83
2721,E5,547.25,0.125,61,141.83
2722,G3,547.25,0.25,42,141.83
2723,F#5,547.375,0.125,55,141.83
2724,E5,547.5,167/1000,61,141.83
2725,C#3,547.5,0.25,42,141.83
2726,D5,547.667,167/1000,52,141.83
2727,G3,547.75,0.25,42,141.83
2728,E5,547.833,167/1000,52,141.83
2729,A4,548.0,1.0,66,141.83
2730,D5,548.0,1.0,66,141.83
2731,F#4,548.0,1.0,66,141.83
2732,D2,548.0,1.0,63,141.83
2733,D3,548.0,1.0,63,141.83
2734,A2,548.0,1.0,63,141.83
2735,G5,550.0,11/40,66,141.83
2736,D4,550.0,1.0,41,141.83
2737,F#4,550.0,1.0,41,141.83
2738,F#5,550.25,11/40,55,141.83
2739,E5,550.5,11/40,54,141.83
2740,F#5,550.75,11/40,54,141.83
2741,A5,551.0,11/40,65,141.83
2742,E4,551.0,1.0,41,141.83
2743,G4,551.0,1.0,41,141.83
2744,G5,551.25,11/40,55,141.83
2745,F#5,551.5,11/40,55,141.83
2746,G5,551.75,0.25,55,141.83
2747,A5,552.0,1.0,62,141.83
2748,G5,552.0,1/40,55,141.83
2749,A4,552.0,1.0,41,141.83
2750,F#4,552.0,1.0,41,141.83
2751,A5,554.0,0.125,50,141.83
2752,B5,554.5,0.125,45,141.83
2753,C#6,555.0,0.125,45,141.83
2754,D6,555.5,0.125,45,141.83
2755,A5,556.0,1.0,54,141.83
2756,F#3,556.0,0.5,38,141.83
2757,D4,556.5,0.5,32,141.83
2758,F#5,557.0,1.0,45,141.83
2759,D3,557.0,0.5,38,141.83
2760,D4,557.5,0.5,33,141.83
2761,A5,558.0,0.25,50,141.83
2762,E3,558.0,0.5,37,141.83
2763,G5,558.25,0.25,44,141.83
2764,F#5,558.5,0.25,44,141.83
2765,D4,558.5,0.5,32,141.83
2766,G5,558.75,0.25,44,141.83
2767,A5,559.0,0.125,49,141.83
2768,A3,559.0,0.125,37,141.83
2769,G5,559.5,0.125,46,141.83
2770,C#4,559.5,0.125,30,141.83
2771,F5,560.0,0.5,54,141.83
2772,D4,560.0,1.0,42,141.83
2773,D3,560.0,1.0,42,141.83
2774,F#5,560.5,0.5,45,141.83
2775,G5,562.0,11/40,66,141.83
2776,D4,562.0,0.25,41,141.83
2777,F#4,562.0,0.25,41,141.83
2778,F#5,562.25,11/40,55,141.83
2779,E5,562.5,11/40,54,141.83
2780,D4,562.5,0.25,34,141.83
2781,F#4,562.5,0.25,34,141.83
2782,F#5,562.75,11/40,54,141.83
2783,A5,563.0,11/40,65,141.83
2784,E4,563.0,0.25,41,141.83
2785,G4,563.0,0.25,41,141.83
2786,G5,563.25,11/40,55,141.83
2787,F#5,563.5,11/40,55,141.83
2788,G4,563.5,0.25,34,141.83
2789,E4,563.5,0.25,34,141.83
2790,G5,563.75,0.25,55,141.83
2791,A5,564.0,1.0,62,141.83
2792,G5,564.0,1/40,55,141.83
2793,F#4,564.0,1.0,41,141.83
2794,A4,564.0,1.0,41,141.83
2795,A5,566.0,0.125,50,141.83
2796,B5,566.5,0.125,45,141.83
2797,C#6,567.0,0.125,45,141.83
2798,D6,567.5,0.125,45,141.83
2799,A5,568.0,1.0,54,141.83
2800,F#3,568.0,0.5,38,141.83
2801,D4,568.5,0.5,32,141.83
2802,F#5,569.0,1.0,45,141.83
2803,D3,569.0,0.5,38,141.83
2804,D4,569.5,0.5,33,141.83
2805,A5,570.0,0.25,50,141.83
2806,E3,570.0,0.5,37,141.83
2807,G5,570.25,0.25,44,141.83
2808,F#5,570.5,0.25,44,141.83
2809,D4,570.5,0.5,32,141.83
2810,G5,570.75,0.25,44,141.83
2811,A5,571.0,0.25,50,141.83
2812,A3,571.0,0.5,37,141.83
2813,G5,571.25,0.25,44,141.83
2814,F#5,571.5,0.25,44,141.83
2815,C#4,571.5,0.5,32,141.83
2816,E5,571.75,0.25,44,141.83
2817,D5,572.0,0.25,45,141.83
2818,F#3,572.0,0.25,47,141.83
2819,E5,572.25,0.25,46,141.83
2820,D4,572.25,0.25,39,141.83
2821,F#5,572.5,0.25,48,141.83
2822,A3,572.5,0.25,39,141.83
2823,G5,572.75,0.25,49,141.83
2824,D4,572.75,0.25,39,141.83
2825,A5,573.0,0.25,50,141.83
2826,F#3,573.0,0.25,48,141.83
2827,B5,573.25,0.25,51,141.83
2828,D4,573.25,0.25,40,141.83
2829,C#6,573.5,0.25,53,141.83
2830,A3,573.5,0.25,40,141.83
2831,D6,573.75,229/1000,54,141.83
2832,D4,573.75,0.25,40,141.83
2833,D6,574.0,1.0,58,141.83
2834,G3,574.0,0.25,48,141.83
2835,D4,574.25,0.25,40,141.83
2836,B3,574.5,0.25,40,141.83
2837,D4,574.75,0.25,40,141.83
2838,B5,575.0,0.25,49,141.83
2839,G3,575.0,0.25,49,141.83
2840,D4,575.25,0.25,40,141.83
2841,B3,575.5,0.25,40,141.83
2842,G5,575.75,0.25,54,141.83
2843,D4,575.75,0.25,40,141.83
2844,F#5,576.0,1.0,59,141.83
2845,A3,576.0,0.25,47,141.83
2846,F#4,576.25,0.25,38,141.83
2847,D4,576.5,0.25,38,141.83
2848,F#4,576.75,0.25,38,141.83
2849,A5,577.0,0.5,54,141.83
2850,A3,577.0,0.25,48,141.83
2851,F#4,577.25,0.25,40,141.83
2852,D4,577.5,0.25,40,141.83
2853,D5,577.75,0.25,54,141.83
2854,F#4,577.75,0.25,40,141.83
2855,E5,578.0,1.0,59,141.83
2856,A3,578.0,0.25,48,141.83
2857,G4,578.25,0.25,39,141.83
2858,E4,578.5,0.25,39,141.83
2859,G4,578.75,0.25,39,141.83
2860,G5,579.0,0.5,54,141.83
2861,A3,579.0,0.25,49,141.83
2862,G4,579.25,0.25,40,141.83
2863,E4,579.5,0.25,40,141.83
2864,C#5,579.75,0.25,54,141.83
2865,G4,579.75,0.25,40,141.83
2866,D5,580.0,0.25,53,141.83
2867,F#3,580.0,0.25,47,141.83
2868,E5,580.25,0.25,53,141.83
2869,D4,580.25,0.25,39,141.83
2870,F#5,580.5,0.25,54,141.83
2871,A3,580.5,0.25,41,141.83
2872,G5,580.75,0.25,55,141.83
2873,D4,580.75,0.25,42,141.83
2874,A5,581.0,0.25,56,141.83
2875,F#3,581.0,0.25,48,141.83
2876,B5,581.25,0.25,56,141.83
2877,D4,581.25,0.25,41,141.83
2878,C#6,581.5,0.25,57,141.83
2879,A3,581.5,0.25,42,141.83
2880,D6,581.75,0.25,60,141.83
2881,D4,581.75,0.25,44,141.83
2882,E6,582.0,0.25,63,141.83
2883,G3,582.0,0.25,52,141.83
2884,D6,582.25,0.25,55,141.83
2885,D4,582.25,0.25,43,141.83
2886,C#6,582.5,0.25,55,141.83
2887,B3,582.5,0.25,43,141.83
2888,D6,582.75,0.25,55,141.83
2889,D4,582.75,0.25,43,141.83
2890,C#6,583.0,0.25,63,141.83
2891,G3,583.0,0.25,49,141.83
2892,B5,583.25,0.25,51,141.83
2893,D4,583.25,0.25,40,141.83
2894,A5,583.5,0.25,54,141.83
2895,B3,583.5,0.25,40,141.83
2896,G5,583.75,0.25,54,141.83
2897,D4,583.75,0.25,40,141.83
2898,F#5,584.0,0.25,61,141.83
2899,A3,584.0,0.25,47,141.83
2900,G5,584.25,0.25,51,141.83
2901,F#4,584.25,0.25,37,141.83
2902,G#5,584.5,0.25,54,141.83
2903,D4,584.5,0.25,37,141.83
2904,A5,584.75,0.25,54,141.83
2905,F#4,584.75,0.25,37,141.83
2906,G5,585.0,0.25,58,141.83
2907,A3,585.0,0.25,48,141.83
2908,F#5,585.25,0.25,51,141.83
2909,F#4,585.25,0.25,39,141.83
2910,E5,585.5,0.25,54,141.83
2911,D4,585.5,0.25,39,141.83
2912,D5,585.75,0.25,50,141.83
2913,F#4,585.75,0.25,39,141.83
2914,E-5,586.0,0.25,59,141.83
2915,A3,586.0,0.25,47,141.83
2916,E5,586.25,0.25,51,141.83
2917,G4,586.25,0.25,37,141.83
2918,F#5,586.5,0.25,54,141.83
2919,E4,586.5,0.25,37,141.83
2920,G5,586.75,0.25,54,141.83
2921,G4,586.75,0.25,37,141.83
2922,F#5,587.0,0.25,57,141.83
2923,A3,587.0,0.25,48,141.83
2924,E5,587.25,0.25,53,141.83
2925,G4,587.25,0.25,38,141.83
2926,D5,587.5,0.25,56,141.83
2927,E4,587.5,0.25,38,141.83
2928,C#5,587.75,0.25,54,141.83
2929,G4,587.75,0.25,38,141.83
2930,D5,588.0,0.25,66,141.83
2931,D4,588.0,1.0,50,141.83
2932,F#4,588.0,1.0,50,141.83
2933,A4,588.25,0.25,59,141.83
2934,D5,588.5,0.25,66,141.83
2935,F#5,588.75,0.25,58,141.83
2936,A5,589.0,0.25,66,141.83
2937,F#5,589.25,0.25,60,141.83
2938,G5,589.5,0.25,66,141.83
2939,A3,589.5,0.25,50,141.83
2940,E4,589.5,0.25,50,141.83
2941,E5,589.75,0.25,59,141.83
2942,D5,590.0,0.25,66,141.83
2943,D4,590.0,1.0,50,141.83
2944,F#4,590.0,1.0,50,141.83
2945,A4,590.25,0.25,59,141.83
2946,D5,590.5,0.25,66,141.83
2947,F#5,590.75,0.25,58,141.83
2948,A5,591.0,0.25,66,141.83
2949,F#5,591.25,0.25,60,141.83
2950,G5,591.5,0.25,66,141.83
2951,A3,591.5,0.25,50,141.83
2952,E4,591.5,0.25,50,141.83
2953,E5,591.75,0.25,59,141.83
2954,D5,592.0,0.5,75,141.83
2955,F#4,592.0,0.5,58,141.83
2956,D4,592.0,0.5,58,141.83
2957,C#6,593.0,0.5,68,141.83
2958,G5,593.0,0.5,68,141.83
2959,E5,593.0,0.5,68,141.83
2960,B-2,593.0,0.5,58,141.83
2961,B-3,593.0,0.5,58,141.83
2962,F#5,594.0,0.5,68,141.83
2963,D6,594.0,0.5,68,141.83
2964,D5,594.0,0.5,68,141.83
2965,B2,594.0,0.5,58,141.83
2966,B3,594.0,0.5,58,141.83
2967,G5,596.0,0.5,43,141.83
2968,B4,596.0,0.5,43,141.83
2969,G2,596.0,2.0,40,141.83
2970,G3,596.0,2.0,40,141.83
2971,A4,596.5,0.25,40,141.83
2972,F#5,596.5,0.25,40,141.83
2973,A4,597.0,0.5,43,141.83
2974,F#5,597.0,0.5,43,141.83
2975,E5,597.5,0.25,38,141.83
2976,G4,597.5,0.25,38,141.83
2977,E5,598.0,0.5,43,141.83
2978,G4,598.0,0.5,43,141.83
2979,A2,598.0,2.0,40,141.83
2980,A3,598.0,2.0,40,141.83
2981,D5,598.5,0.25,38,141.83
2982,F#4,598.5,0.25,38,141.83
2983,F#4,599.0,0.5,43,141.83
2984,D5,599.0,0.5,43,141.83
2985,E4,599.5,0.25,38,141.83
2986,C#5,599.5,0.25,38,141.83
2987,D3,600.0,1.0,39,141.83
2988,G4,600.0,2.0,45,141.83
2989,C#5,600.0,2.0,45,141.83
2990,E4,600.0,2.0,45,141.83
2991,A2,601.0,1.0,39,141.83
2992,D2,602.0,1.0,35,141.83
2993,F#4,602.0,1.0,38,141.83
2994,D5,602.0,1.0,38,141.83
