,note_name,start_time,duration,velocity,tempo
0,B4,0.0,0.375,50,44.39
1,G3,0.0,1.0,39,44.39
2,D4,0.0,2.0,39,44.39
3,D5,0.375,0.125,42,44.39
4,C5,0.5,0.375,50,44.39
5,B4,0.875,0.125,47,44.39
6,A4,1.0,0.5,50,44.39
7,F#3,1.0,0.5,32,44.39
8,B4,1.5,0.5,46,44.39
9,G3,1.5,0.5,32,44.39
10,C5,2.0,0.5,50,44.39
11,A3,2.0,0.5,38,44.39
12,D4,2.0,2.0,38,44.39
13,D5,2.5,0.5,46,44.39
14,F#3,2.5,0.5,33,44.39
15,C5,3.0,0.25,47,44.39
16,G3,3.0,1.0,39,44.39
17,B4,3.25,0.25,49,44.39
18,A4,3.5,0.25,51,44.39
19,G4,3.75,0.25,53,44.39
20,G4,4.0,0.25,65,44.39
21,C5,4.0,0.25,65,44.39
22,E3,4.0,0.25,49,44.39
23,E4,4.0,0.25,49,44.39
24,B4,4.5,0.25,61,44.39
25,G4,4.5,0.25,61,44.39
26,D3,4.5,0.25,44,44.39
27,D4,4.5,0.25,44,44.39
28,E5,5.0,0.25,67,44.39
29,G4,5.0,0.25,67,44.39
30,C4,5.0,0.25,51,44.39
31,C3,5.0,0.25,51,44.39
32,B3,5.75,0.25,37,44.39
33,D5,5.75,0.25,47,44.39
34,G4,5.75,0.25,47,44.39
35,C5,6.0,0.25,50,44.39
36,F#3,6.0,0.5,40,44.39
37,A4,6.25,0.25,42,44.39
38,B4,6.5,0.25,50,44.39
39,G3,6.5,0.5,35,44.39
40,G4,6.75,0.25,42,44.39
41,D3,7.0,1.0,39,44.39
42,G4,7.0,0.5,50,44.39
43,B4,7.0,0.5,50,44.39
44,F#4,7.5,0.5,44,44.39
45,A4,7.5,0.5,44,44.39
46,B4,8.0,0.375,50,44.39
47,G3,8.0,1.0,39,44.39
48,D4,8.0,2.0,39,44.39
49,D5,8.375,0.125,42,44.39
50,C5,8.5,0.375,48,44.39
51,B4,8.875,0.125,47,44.39
52,A4,9.0,0.5,50,44.39
53,F#3,9.0,0.5,32,44.39
54,B4,9.5,0.5,46,44.39
55,G3,9.5,0.5,32,44.39
56,C5,10.0,0.5,50,44.39
57,D4,10.0,2.0,38,44.39
58,A3,10.0,0.5,38,44.39
59,E5,10.5,0.25,46,44.39
60,F#3,10.5,0.5,33,44.39
61,D5,10.75,0.25,49,44.39
62,C5,11.0,0.25,47,44.39
63,G3,11.0,1.0,39,44.39
64,B4,11.25,0.25,49,44.39
65,A4,11.5,0.25,51,44.39
66,G4,11.75,0.25,53,44.39
67,G4,12.0,0.25,65,44.39
68,C5,12.0,0.25,65,44.39
69,E3,12.0,0.25,49,44.39
70,E4,12.0,0.25,49,44.39
71,B4,12.5,0.25,61,44.39
72,G4,12.5,0.25,61,44.39
73,D4,12.5,0.25,44,44.39
74,D3,12.5,0.25,44,44.39
75,E5,13.0,0.25,67,44.39
76,G4,13.0,0.75,67,44.39
77,C3,13.0,0.5,51,44.39
78,C4,13.0,0.5,51,44.39
79,F#5,13.25,0.25,62,44.39
80,G5,13.5,0.25,65,44.39
81,C5,13.75,0.188,47,44.39
82,C4,13.75,0.188,37,44.39
83,E4,13.75,0.188,37,44.39
84,B4,14.0,0.5,50,44.39
85,G4,14.0,0.5,40,44.39
86,D4,14.0,1.0,40,44.39
87,F#4,14.5,0.5,35,44.39
88,A4,14.5,27/500,47,44.39
89,B4,14.5,27/500,47,44.39
90,A4,14.61,7/125,47,44.39
91,B4,14.61,7/125,47,44.39
92,A4,14.721,7/125,45,44.39
93,B4,14.721,7/125,45,44.39
94,A4,14.831,7/125,45,44.39
95,G4,14.831,7/125,45,44.39
96,A4,14.94,3/50,50,44.39
97,G4,15.0,1.0,45,44.39
98,G3,15.0,1.0,39,44.39
99,B3,15.25,0.25,28,44.39
100,D4,15.5,0.25,32,44.39
101,B3,15.75,0.25,27,44.39
102,B4,16.0,0.5,45,44.39
103,C3,16.0,1.0,39,44.39
104,E3,16.25,0.25,27,44.39
105,A4,16.5,0.5,45,44.39
106,A3,16.5,0.25,32,44.39
107,E3,16.75,0.25,28,44.39
108,G4,17.0,0.25,45,44.39
109,D3,17.0,1.0,39,44.39
110,F#4,17.25,61/250,41,44.39
111,C4,17.25,0.25,29,44.39
112,F#4,17.5,0.25,45,44.39
113,A3,17.5,0.25,32,44.39
114,D4,17.75,0.25,41,44.39
115,C4,17.75,0.25,29,44.39
116,B4,18.0,1.0,51,44.39
117,G3,18.0,1.0,39,44.39
118,B3,18.25,0.25,29,44.39
119,D4,18.5,0.25,32,44.39
120,B3,18.75,0.25,29,44.39
121,G4,19.0,0.5,45,44.39
122,E3,19.0,1.0,39,44.39
123,G3,19.25,0.25,29,44.39
124,B3,19.5,0.25,32,44.39
125,G4,19.5,27/500,42,44.39
126,A4,19.5,27/500,42,44.39
127,G4,19.61,7/125,42,44.39
128,A4,19.61,7/125,42,44.39
129,G4,19.721,7/125,43,44.39
130,A4,19.721,7/125,43,44.39
131,G3,19.75,0.25,30,44.39
132,G4,19.831,7/125,46,44.39
133,F#4,19.831,7/125,46,44.39
134,G4,19.94,3/50,42,44.39
135,B4,20.0,0.25,45,44.39
136,C3,20.0,1.0,39,44.39
137,A4,20.25,123/500,45,44.39
138,E3,20.25,0.25,29,44.39
139,A4,20.5,0.5,45,44.39
140,A3,20.5,0.25,32,44.39
141,E3,20.75,0.25,29,44.39
142,G4,21.0,0.25,45,44.39
143,D3,21.0,1.0,39,44.39
144,F#4,21.25,121/500,41,44.39
145,C4,21.25,0.25,30,44.39
146,F#4,21.5,0.25,45,44.39
147,A3,21.5,0.25,32,44.39
148,D4,21.75,0.25,41,44.39
149,C4,21.75,0.25,29,44.39
150,B4,22.0,0.375,47,44.39
151,G3,22.0,1.0,39,44.39
152,D4,22.0,2.0,39,44.39
153,D5,22.375,0.125,42,44.39
154,C5,22.5,0.375,50,44.39
155,B4,22.875,0.125,47,44.39
156,A4,23.0,0.5,50,44.39
157,F#3,23.0,0.5,32,44.39
158,B4,23.5,0.5,46,44.39
159,G3,23.5,0.5,32,44.39
160,C5,24.0,0.5,50,44.39
161,D4,24.0,2.0,38,44.39
162,A3,24.0,0.5,38,44.39
163,D5,24.5,0.5,46,44.39
164,F#3,24.5,0.5,33,44.39
165,C5,25.0,0.25,47,44.39
166,G3,25.0,1.0,39,44.39
167,B4,25.25,0.25,49,44.39
168,A4,25.5,0.25,51,44.39
169,G4,25.75,0.25,53,44.39
170,G4,26.0,0.25,65,44.39
171,C5,26.0,0.25,65,44.39
172,E4,26.0,0.25,49,44.39
173,E3,26.0,0.25,49,44.39
174,B4,26.5,0.25,61,44.39
175,G4,26.5,0.25,61,44.39
176,D3,26.5,0.25,44,44.39
177,D4,26.5,0.25,44,44.39
178,E5,27.0,0.25,67,44.39
179,G4,27.0,0.25,67,44.39
180,C4,27.0,0.25,51,44.39
181,C3,27.0,0.25,51,44.39
182,B3,27.75,0.25,37,44.39
183,G4,27.75,0.25,47,44.39
184,D5,27.75,0.25,47,44.39
185,C5,28.0,0.25,50,44.39
186,F#3,28.0,0.5,40,44.39
187,A4,28.25,0.25,42,44.39
188,B4,28.5,0.25,50,44.39
189,G3,28.5,0.5,35,44.39
190,G4,28.75,0.25,42,44.39
191,D3,29.0,1.0,39,44.39
192,B4,29.0,0.5,50,44.39
193,G4,29.0,0.5,50,44.39
194,F#4,29.5,0.5,44,44.39
195,A4,29.5,0.5,44,44.39
196,B4,30.0,0.375,50,44.39
197,D4,30.0,2.0,39,44.39
198,G3,30.0,1.0,39,44.39
199,D5,30.375,0.125,42,44.39
200,C5,30.5,0.375,48,44.39
201,B4,30.875,0.125,47,44.39
202,A4,31.0,0.5,50,44.39
203,F#3,31.0,0.5,32,44.39
204,B4,31.5,0.5,46,44.39
205,G3,31.5,0.5,32,44.39
206,C5,32.0,0.5,50,44.39
207,A3,32.0,0.5,38,44.39
208,D4,32.0,2.0,38,44.39
209,E5,32.5,0.25,46,44.39
210,F#3,32.5,0.5,33,44.39
211,D5,32.75,0.25,49,44.39
212,C5,33.0,0.25,47,44.39
213,G3,33.0,1.0,39,44.39
214,B4,33.25,0.25,49,44.39
215,A4,33.5,0.25,51,44.39
216,G4,33.75,0.25,53,44.39
217,G4,34.0,0.25,65,44.39
218,C5,34.0,0.25,65,44.39
219,E4,34.0,0.25,49,44.39
220,E3,34.0,0.25,49,44.39
221,G4,34.5,0.25,61,44.39
222,B4,34.5,0.25,61,44.39
223,D4,34.5,0.25,44,44.39
224,D3,34.5,0.25,44,44.39
225,E5,35.0,0.25,67,44.39
226,G4,35.0,0.75,67,44.39
227,C3,35.0,0.5,51,44.39
228,C4,35.0,0.5,51,44.39
229,F#5,35.25,0.25,62,44.39
230,G5,35.5,0.25,65,44.39
231,C5,35.75,0.188,47,44.39
232,E4,35.75,0.188,37,44.39
233,C4,35.75,0.188,37,44.39
234,B4,36.0,0.5,50,44.39
235,D4,36.0,1.0,40,44.39
236,G4,36.0,0.5,40,44.39
237,F#4,36.5,0.5,35,44.39
238,A4,36.5,27/500,47,44.39
239,B4,36.5,27/500,47,44.39
240,A4,36.61,7/125,47,44.39
241,B4,36.61,7/125,47,44.39
242,A4,36.721,7/125,45,44.39
243,B4,36.721,7/125,45,44.39
244,A4,36.831,7/125,45,44.39
245,G4,36.831,7/125,45,44.39
246,A4,36.94,3/50,52,44.39
247,G4,37.0,1.0,45,44.39
248,G3,37.0,1.0,39,44.39
249,B3,37.25,0.25,28,44.39
250,D4,37.5,0.25,32,44.39
251,B3,37.75,0.25,27,44.39
252,B4,38.0,0.5,45,44.39
253,C3,38.0,1.0,39,44.39
254,E3,38.25,0.25,27,44.39
255,A4,38.5,0.5,45,44.39
256,A3,38.5,0.25,32,44.39
257,E3,38.75,0.25,28,44.39
258,G4,39.0,0.25,45,44.39
259,D3,39.0,1.0,39,44.39
260,F#4,39.25,121/500,41,44.39
261,C4,39.25,0.25,29,44.39
262,F#4,39.5,0.25,45,44.39
263,A3,39.5,0.25,32,44.39
264,D4,39.75,0.25,41,44.39
265,C4,39.75,0.25,29,44.39
266,B4,40.0,1.0,51,44.39
267,G3,40.0,1.0,39,44.39
268,B3,40.25,0.25,29,44.39
269,D4,40.5,0.25,32,44.39
270,B3,40.75,0.25,29,44.39
271,G4,41.0,0.5,45,44.39
272,E3,41.0,1.0,39,44.39
273,G3,41.25,0.25,29,44.39
274,B3,41.5,0.25,32,44.39
275,G4,41.5,27/500,42,44.39
276,A4,41.5,27/500,42,44.39
277,G4,41.61,7/125,42,44.39
278,A4,41.61,7/125,42,44.39
279,G4,41.721,7/125,43,44.39
280,A4,41.721,7/125,43,44.39
281,G3,41.75,0.25,30,44.39
282,G4,41.831,7/125,47,44.39
283,F#4,41.831,7/125,47,44.39
284,G4,41.94,3/50,44,44.39
285,B4,42.0,0.25,49,44.39
286,C3,42.0,1.0,39,44.39
287,A4,42.25,121/500,45,44.39
288,E3,42.25,0.25,29,44.39
289,A4,42.5,0.5,45,44.39
290,A3,42.5,0.25,32,44.39
291,E3,42.75,0.25,29,44.39
292,G4,43.0,0.25,45,44.39
293,D3,43.0,1.0,39,44.39
294,F#4,43.25,61/250,41,44.39
295,C4,43.25,0.25,30,44.39
296,F#4,43.5,0.25,45,44.39
297,A3,43.5,0.25,32,44.39
298,D4,43.75,0.25,41,44.39
299,C4,43.75,0.25,29,44.39
300,G4,44.0,1.0,45,44.39
301,B3,44.0,1.0,36,44.39
302,G3,44.0,1.0,36,44.39
303,E-4,45.0,19/40,47,44.39
304,A3,45.0,19/40,34,44.39
305,F#3,45.0,19/40,34,44.39
306,B2,45.0,19/40,34,44.39
307,E-4,45.5,19/40,47,44.39
308,B2,45.5,19/40,34,44.39
309,A3,45.5,19/40,34,44.39
310,F#3,45.5,19/40,34,44.39
311,E4,46.0,0.25,49,44.39
312,G3,46.0,1.0,38,44.39
313,E3,46.0,1.0,38,44.39
314,F#4,46.25,0.25,44,44.39
315,G4,46.5,0.25,49,44.39
316,E4,46.75,0.25,43,44.39
317,D4,47.0,0.25,49,44.39
318,G3,47.0,0.5,33,44.39
319,A2,47.0,0.5,33,44.39
320,E3,47.0,0.5,33,44.39
321,C#4,47.25,61/250,45,44.39
322,C#4,47.5,0.25,50,44.39
323,G3,47.5,0.5,37,44.39
324,E3,47.5,0.5,37,44.39
325,A2,47.5,0.5,37,44.39
326,A3,47.75,0.25,46,44.39
327,A4,48.0,1.0,61,44.39
328,D3,48.0,1.0,40,44.39
329,F#3,48.0,1.0,40,44.39
330,D5,49.0,19/40,62,44.39
331,G#4,49.0,19/40,62,44.39
332,D4,49.0,19/40,62,44.39
333,B2,49.0,19/40,56,44.39
334,B3,49.0,19/40,56,44.39
335,G#4,49.5,19/40,59,44.39
336,D5,49.5,19/40,59,44.39
337,D4,49.5,19/40,59,44.39
338,B2,49.5,19/40,52,44.39
339,B3,49.5,19/40,52,44.39
340,G#4,50.0,9/10,63,44.39
341,D5,50.0,9/10,63,44.39
342,D4,50.0,9/10,63,44.39
343,B2,50.0,9/10,56,44.39
344,B3,50.0,9/10,56,44.39
345,C#5,51.0,2/5,44,44.39
346,A5,51.0,2/5,44,44.39
347,E4,51.0,2/5,34,44.39
348,A3,51.0,2/5,34,44.39
349,A5,51.5,2/5,42,44.39
350,C#5,51.5,2/5,42,44.39
351,E4,51.5,2/5,32,44.39
352,A3,51.5,2/5,32,44.39
353,A5,52.0,1.0,44,44.39
354,C#5,52.0,1.0,44,44.39
355,A3,52.0,1.0,34,44.39
356,E4,52.0,1.0,34,44.39
357,F#5,53.5,0.062,48,44.39
358,G5,53.562,0.062,44,44.39
359,F#5,53.625,0.062,48,44.39
360,E5,53.688,0.062,44,44.39
361,F#5,53.75,0.125,50,44.39
362,G5,53.875,0.125,45,44.39
363,A5,54.0,0.5,54,44.39
364,D4,54.0,0.25,34,44.39
365,F#4,54.25,0.25,29,44.39
366,A5,54.5,0.75,48,44.39
367,A4,54.5,0.25,29,44.39
368,F#4,54.75,0.25,29,44.39
369,D4,55.0,0.25,34,44.39
370,A5,55.25,0.25,48,44.39
371,F#4,55.25,0.25,30,44.39
372,A5,55.5,0.062,50,44.39
373,A4,55.5,0.25,30,44.39
374,B5,55.562,0.062,44,44.39
375,A5,55.625,0.062,46,44.39
376,G#5,55.688,0.062,46,44.39
377,A5,55.75,0.125,53,44.39
378,F#4,55.75,0.25,30,44.39
379,B5,55.875,0.125,43,44.39
380,A5,56.0,0.25,53,44.39
381,D4,56.0,0.25,34,44.39
382,G5,56.25,0.25,48,44.39
383,E4,56.25,0.25,31,44.39
384,G5,56.5,0.75,48,44.39
385,B4,56.5,0.25,31,44.39
386,E4,56.75,0.25,31,44.39
387,D4,57.0,0.25,34,44.39
388,G5,57.25,0.125,45,44.39
389,E4,57.25,0.25,30,44.39
390,F#5,57.5,0.125,49,44.39
391,B4,57.5,0.25,30,44.39
392,E5,57.75,0.125,45,44.39
393,E4,57.75,0.25,30,44.39
394,E5,58.0,0.25,51,44.39
395,C#4,58.0,0.25,34,44.39
396,A5,58.25,0.25,46,44.39
397,E4,58.25,0.25,31,44.39
398,A5,58.5,0.75,46,44.39
399,A4,58.5,0.25,31,44.39
400,E4,58.75,0.25,31,44.39
401,B3,59.0,0.25,34,44.39
402,B5,59.25,0.125,48,44.39
403,D4,59.25,0.25,31,44.39
404,A5,59.375,0.125,44,44.39
405,A5,59.5,0.125,48,44.39
406,G4,59.5,0.25,31,44.39
407,G5,59.625,0.125,44,44.39
408,F#5,59.75,0.125,44,44.39
409,D4,59.75,0.25,28,44.39
410,G5,59.875,0.125,44,44.39
411,G5,60.0,0.25,49,44.39
412,B-3,60.0,0.25,31,44.39
413,F#5,60.25,0.25,45,44.39
414,C#4,60.25,0.25,32,44.39
415,F#5,60.5,0.625,48,44.39
416,E4,60.5,0.25,32,44.39
417,B-3,60.75,0.25,32,44.39
418,B3,61.0,0.25,34,44.39
419,F#5,61.125,0.062,44,44.39
420,G5,61.188,0.062,44,44.39
421,A5,61.25,0.125,48,44.39
422,F#4,61.25,0.25,32,44.39
423,G5,61.5,0.125,46,44.39
424,A3,61.5,0.25,32,44.39
425,F#5,61.75,0.125,46,44.39
426,D4,61.75,0.25,32,44.39
427,F#5,62.0,0.25,51,44.39
428,G#3,62.0,0.25,34,44.39
429,E5,62.25,0.25,46,44.39
430,B3,62.25,0.25,27,44.39
431,E5,62.5,0.125,46,44.39
432,D4,62.5,0.25,31,44.39
433,E5,62.75,0.125,48,44.39
434,B3,62.75,0.25,28,44.39
435,E5,63.0,0.5,48,44.39
436,G#3,63.0,0.25,34,44.39
437,B3,63.25,0.25,29,44.39
438,E5,63.5,0.375,48,44.39
439,D4,63.5,0.25,32,44.39
440,G#5,63.75,83/1000,48,44.39
441,B3,63.75,0.25,29,44.39
442,A5,63.833,83/1000,48,44.39
443,B5,63.917,83/1000,48,44.39
444,A5,64.0,1.25,53,44.39
445,G3,64.0,0.25,34,44.39
446,C#4,64.25,0.25,26,44.39
447,E4,64.5,0.25,29,44.39
448,G3,64.75,0.25,25,44.39
449,F#3,65.0,0.25,34,44.39
450,B5,65.25,0.125,52,44.39
451,D4,65.25,0.25,26,44.39
452,A5,65.375,0.125,48,44.39
453,G5,65.5,0.25,51,44.39
454,B3,65.5,0.25,29,44.39
455,F#5,65.75,61/250,48,44.39
456,A3,65.75,0.25,26,44.39
457,F#5,66.0,0.25,53,44.39
458,B3,66.0,1.5,33,44.39
459,G3,66.0,1.5,33,44.39
460,E5,66.25,0.25,45,44.39
461,E-5,66.5,0.25,50,44.39
462,E5,66.75,0.25,45,44.39
463,F#5,67.0,0.25,48,44.39
464,G5,67.25,0.25,44,44.39
465,B4,67.5,0.25,42,44.39
466,E4,67.5,0.5,32,44.39
467,G#3,67.5,0.5,32,44.39
468,E5,67.75,0.25,42,44.39
469,D5,68.0,0.25,48,44.39
470,E4,68.0,1.0,35,44.39
471,A3,68.0,1.0,35,44.39
472,C#5,68.25,0.25,45,44.39
473,B4,68.5,0.25,41,44.39
474,A4,68.75,0.25,41,44.39
475,B4,69.0,0.25,42,44.39
476,C#5,69.25,0.25,44,44.39
477,D5,69.5,0.25,47,44.39
478,E5,69.75,0.25,49,44.39
479,F#5,70.0,0.375,50,44.39
480,D5,70.0,0.25,36,44.39
481,A4,70.25,0.25,29,44.39
482,A5,70.375,0.125,42,44.39
483,G5,70.5,0.375,50,44.39
484,D5,70.5,0.25,33,44.39
485,A4,70.75,0.25,29,44.39
486,F#5,70.875,0.125,47,44.39
487,E5,71.0,0.5,50,44.39
488,C#5,71.0,0.25,36,44.39
489,A4,71.25,0.25,28,44.39
490,F#5,71.5,0.5,46,44.39
491,D5,71.5,0.25,32,44.39
492,A4,71.75,0.25,28,44.39
493,G5,72.0,0.5,50,44.39
494,E5,72.0,0.25,36,44.39
495,A4,72.25,0.25,28,44.39
496,A5,72.5,0.5,46,44.39
497,C#5,72.5,0.25,31,44.39
498,A4,72.75,0.25,28,44.39
499,G5,73.0,0.5,47,44.39
500,D5,73.0,0.25,36,44.39
501,A4,73.25,0.25,29,44.39
502,F#5,73.5,0.5,51,44.39
503,D5,73.5,0.25,33,44.39
504,A4,73.75,0.25,29,44.39
505,A5,74.0,0.062,45,44.39
506,D4,74.0,0.5,42,44.39
507,F#4,74.0,0.5,42,44.39
508,B5,74.062,0.062,40,44.39
509,A5,74.125,0.062,45,44.39
510,B5,74.188,0.062,41,44.39
511,A5,74.25,0.062,45,44.39
512,B5,74.312,0.062,40,44.39
513,A5,74.375,0.062,45,44.39
514,B5,74.438,0.062,39,44.39
515,A5,74.5,0.062,45,44.39
516,E4,74.5,0.375,42,44.39
517,G4,74.5,0.375,42,44.39
518,B5,74.562,0.062,40,44.39
519,A5,74.625,0.062,45,44.39
520,B5,74.688,0.062,40,44.39
521,A5,74.75,0.062,45,44.39
522,B5,74.812,0.062,40,44.39
523,A5,74.875,0.062,45,44.39
524,D4,74.875,0.125,38,44.39
525,F#4,74.875,0.125,38,44.39
526,B5,74.938,0.062,41,44.39
527,A5,75.0,0.062,45,44.39
528,C#4,75.0,0.5,42,44.39
529,E4,75.0,0.5,42,44.39
530,B5,75.062,0.062,40,44.39
531,A5,75.125,0.062,45,44.39
532,B5,75.188,0.062,40,44.39
533,A5,75.25,0.062,45,44.39
534,B5,75.312,0.062,41,44.39
535,A5,75.375,0.062,45,44.39
536,B5,75.438,0.062,40,44.39
537,A5,75.5,0.062,45,44.39
538,D4,75.5,0.5,38,44.39
539,F#4,75.5,0.5,38,44.39
540,B5,75.562,0.062,40,44.39
541,A5,75.625,0.062,45,44.39
542,B5,75.688,0.062,41,44.39
543,A5,75.75,0.062,45,44.39
544,B5,75.812,0.062,40,44.39
545,A5,75.875,0.062,45,44.39
546,B5,75.938,0.062,41,44.39
547,A5,76.0,0.062,45,44.39
548,E4,76.0,0.5,42,44.39
549,G4,76.0,0.5,42,44.39
550,B5,76.062,0.062,42,44.39
551,A5,76.125,0.062,45,44.39
552,B5,76.188,0.062,41,44.39
553,A5,76.25,0.062,44,44.39
554,B5,76.312,0.062,38,44.39
555,A5,76.375,0.062,44,44.39
556,B5,76.438,0.062,39,44.39
557,A5,76.5,0.062,43,44.39
558,F#4,76.5,0.5,38,44.39
559,A4,76.5,0.5,38,44.39
560,B5,76.562,0.062,38,44.39
561,A5,76.625,0.062,42,44.39
562,B5,76.688,0.062,38,44.39
563,A5,76.75,0.062,42,44.39
564,B5,76.812,0.062,39,44.39
565,A5,76.875,0.062,43,44.39
566,B5,76.938,0.062,39,44.39
567,A5,77.0,0.062,43,44.39
568,E4,77.0,0.5,38,44.39
569,G4,77.0,0.5,38,44.39
570,B5,77.062,0.062,38,44.39
571,A5,77.125,0.062,43,44.39
572,B5,77.188,0.062,38,44.39
573,A5,77.25,0.062,43,44.39
574,B5,77.312,0.062,38,44.39
575,A5,77.375,0.062,43,44.39
576,B5,77.438,0.062,39,44.39
577,A5,77.5,83/1000,43,44.39
578,D4,77.5,0.5,42,44.39
579,F#4,77.5,0.5,42,44.39
580,B5,77.583,83/1000,45,44.39
581,A5,77.667,83/1000,52,44.39
582,G#5,77.75,0.125,58,44.39
583,A5,77.875,0.125,54,44.39
584,D6,78.0,0.5,61,44.39
585,D5,78.0,0.5,61,44.39
586,F#4,78.0,0.5,59,44.39
587,A4,78.0,0.5,59,44.39
588,C#6,78.5,0.5,55,44.39
589,C#5,78.5,0.5,55,44.39
590,E4,78.5,0.5,45,44.39
591,G4,78.5,0.5,45,44.39
592,B-4,78.5,0.5,45,44.39
593,B4,79.0,0.5,58,44.39
594,B5,79.0,0.5,58,44.39
595,D4,79.0,0.5,48,44.39
596,F#4,79.0,0.5,48,44.39
597,F#5,79.75,0.25,40,44.39
598,B4,80.0,0.5,42,44.39
599,B5,80.0,0.5,42,44.39
600,D4,80.0,0.5,32,44.39
601,F#4,80.0,0.5,32,44.39
602,A4,80.5,0.5,37,44.39
603,A5,80.5,0.5,37,44.39
604,C4,80.5,0.5,31,44.39
605,D4,80.5,0.5,31,44.39
606,F#4,80.5,0.5,31,44.39
607,G4,81.0,0.5,40,44.39
608,G5,81.0,0.5,40,44.39
609,B3,81.0,0.5,32,44.39
610,D4,81.0,0.5,32,44.39
611,D5,81.75,0.25,60,44.39
612,G5,82.0,0.5,61,44.39
613,G4,82.0,0.5,61,44.39
614,B3,82.0,0.5,59,44.39
615,D4,82.0,0.5,59,44.39
616,E-4,82.5,0.5,51,44.39
617,F#5,82.5,0.5,55,44.39
618,F#4,82.5,0.5,55,44.39
619,A3,82.5,0.5,42,44.39
620,C4,82.5,0.5,42,44.39
621,E5,83.0,0.25,62,44.39
622,G3,83.0,1.0,47,44.39
623,B3,83.0,1.0,47,44.39
624,E4,83.0,1.0,47,44.39
625,B5,83.25,0.25,56,44.39
626,A5,83.5,0.125,50,44.39
627,G5,83.625,0.125,46,44.39
628,F#5,83.75,0.125,50,44.39
629,E5,83.875,0.125,46,44.39
630,D5,84.0,0.5,50,44.39
631,F#4,84.0,0.5,40,44.39
632,A3,84.0,1.0,40,44.39
633,E5,84.5,0.5,45,44.39
634,C#4,84.5,0.5,38,44.39
635,F5,85.0,0.5,53,44.39
636,C#4,85.0,0.5,40,44.39
637,D3,85.0,1.0,40,44.39
638,F#5,85.5,0.5,49,44.39
639,D4,85.5,0.5,38,44.39
640,D6,86.0,0.5,66,44.39
641,F#4,86.0,0.5,53,44.39
642,A4,86.0,0.5,53,44.39
643,C#6,86.5,0.062,60,44.39
644,E4,86.5,0.5,40,44.39
645,G4,86.5,0.5,40,44.39
646,B-4,86.5,0.5,40,44.39
647,D6,86.562,0.062,54,44.39
648,C#6,86.625,0.062,60,44.39
649,D6,86.688,0.062,55,44.39
650,C#6,86.75,0.062,60,44.39
651,D6,86.812,0.062,55,44.39
652,C#6,86.875,0.062,60,44.39
653,D6,86.938,0.062,55,44.39
654,B5,87.0,0.5,62,44.39
655,B4,87.0,0.5,44,44.39
656,D4,87.0,0.5,44,44.39
657,F#4,87.0,0.5,44,44.39
658,F#5,87.75,0.25,40,44.39
659,B5,88.0,0.5,45,44.39
660,D4,88.0,0.5,32,44.39
661,F#4,88.0,0.5,32,44.39
662,A5,88.5,0.062,48,44.39
663,C4,88.5,0.5,31,44.39
664,D4,88.5,0.5,31,44.39
665,F#4,88.5,0.5,31,44.39
666,B5,88.562,0.062,42,44.39
667,A5,88.625,0.062,50,44.39
668,B5,88.688,0.062,44,44.39
669,A5,88.75,0.062,49,44.39
670,B5,88.812,0.062,42,44.39
671,A5,88.875,0.062,50,44.39
672,B5,88.938,0.062,47,44.39
673,G5,89.0,0.5,44,44.39
674,G4,89.0,0.5,33,44.39
675,B3,89.0,0.5,33,44.39
676,D4,89.0,0.5,33,44.39
677,D5,89.75,0.25,60,44.39
678,G5,90.0,0.5,66,44.39
679,B3,90.0,0.5,59,44.39
680,D4,90.0,0.5,59,44.39
681,E-4,90.5,0.5,51,44.39
682,A3,90.5,0.5,42,44.39
683,C4,90.5,0.5,42,44.39
684,F#5,90.506,0.062,57,44.39
685,G5,90.569,0.062,54,44.39
686,F#5,90.631,0.062,59,44.39
687,G5,90.694,0.062,54,44.39
688,F#5,90.756,0.062,57,44.39
689,G5,90.819,0.062,52,44.39
690,F#5,90.881,0.062,56,44.39
691,G5,90.944,0.062,52,44.39
692,E5,91.0,0.25,62,44.39
693,G3,91.0,1.0,47,44.39
694,B3,91.0,1.0,47,44.39
695,E4,91.0,1.0,47,44.39
696,B5,91.25,0.25,58,44.39
697,A5,91.5,0.125,55,44.39
698,G5,91.625,0.125,47,44.39
699,F#5,91.75,0.125,50,44.39
700,E5,91.875,0.125,46,44.39
701,D5,92.0,0.125,47,44.39
702,D4,92.0,0.5,36,44.39
703,F#4,92.0,0.5,36,44.39
704,A3,92.0,0.5,36,44.39
705,F#5,92.25,0.125,47,44.39
706,A5,92.5,0.75,53,44.39
707,D4,93.0,0.5,30,44.39
708,F#4,93.0,0.5,30,44.39
709,A3,93.0,0.5,30,44.39
710,G#5,93.25,0.25,46,44.39
711,G5,93.5,0.25,46,44.39
712,F#5,93.75,0.25,44,44.39
713,B5,94.0,167/1000,53,44.39
714,A3,94.0,0.5,30,44.39
715,D4,94.0,0.5,30,44.39
716,E4,94.0,0.5,30,44.39
717,G5,94.167,167/1000,48,44.39
718,E5,94.333,4/25,47,44.39
719,E5,94.5,0.062,50,44.39
720,F#5,94.562,0.062,45,44.39
721,E5,94.625,0.062,50,44.39
722,F#5,94.688,0.062,45,44.39
723,E5,94.75,0.062,50,44.39
724,F#5,94.812,0.062,45,44.39
725,E5,94.875,0.062,50,44.39
726,F#5,94.938,0.062,45,44.39
727,E5,95.0,0.062,50,44.39
728,C#4,95.0,0.5,30,44.39
729,A3,95.0,0.5,30,44.39
730,G4,95.0,0.5,30,44.39
731,F#5,95.062,0.062,45,44.39
732,E5,95.125,0.062,50,44.39
733,F#5,95.188,0.062,44,44.39
734,E5,95.25,0.062,50,44.39
735,F#5,95.312,0.062,45,44.39
736,E5,95.375,0.062,50,44.39
737,F#5,95.438,0.062,45,44.39
738,E5,95.5,83/1000,50,44.39
739,F#5,95.583,83/1000,45,44.39
740,E5,95.667,83/1000,55,44.39
741,D5,95.75,0.125,62,44.39
742,E5,95.875,0.125,59,44.39
743,D5,96.0,0.25,65,44.39
744,D4,96.0,1.0,31,44.39
745,F#4,96.0,1.0,31,44.39
746,C#5,96.25,0.25,53,44.39
747,D5,96.5,0.25,59,44.39
748,E5,96.75,0.25,54,44.39
749,D5,97.0,0.25,53,44.39
750,C5,97.25,0.25,51,44.39
751,B4,97.5,0.25,48,44.39
752,B-4,97.75,0.25,45,44.39
753,B4,98.0,0.375,50,44.39
754,G3,98.0,0.5,39,44.39
755,D4,98.0,2.0,39,44.39
756,D5,98.375,0.125,42,44.39
757,C5,98.5,0.375,50,44.39
758,A3,98.5,0.375,35,44.39
759,B4,98.875,0.125,47,44.39
760,G3,98.875,0.125,30,44.39
761,A4,99.0,0.5,50,44.39
762,F#3,99.0,0.5,32,44.39
763,B4,99.5,0.5,46,44.39
764,G3,99.5,0.5,32,44.39
765,C5,100.0,0.25,50,44.39
766,A3,100.0,0.5,38,44.39
767,D4,100.0,2.0,38,44.39
768,D5,100.25,0.062,44,44.39
769,C5,100.312,0.062,40,44.39
770,B4,100.375,0.062,44,44.39
771,C5,100.438,0.062,40,44.39
772,E5,100.5,0.25,46,44.39
773,C4,100.5,0.25,40,44.39
774,D5,100.75,0.25,47,44.39
775,B3,100.75,0.25,36,44.39
776,C5,101.0,0.5,47,44.39
777,A3,101.0,0.5,47,44.39
778,B4,101.5,0.5,51,44.39
779,G3,101.5,0.5,51,44.39
780,G4,102.0,0.25,65,44.39
781,C5,102.0,0.25,65,44.39
782,E3,102.0,0.25,49,44.39
783,E4,102.0,0.25,49,44.39
784,B4,102.5,0.25,61,44.39
785,G4,102.5,0.25,61,44.39
786,D3,102.5,0.25,44,44.39
787,D4,102.5,0.25,44,44.39
788,E5,103.0,0.25,67,44.39
789,G4,103.0,0.25,67,44.39
790,C4,103.0,0.25,51,44.39
791,C3,103.0,0.25,51,44.39
792,B3,103.75,0.25,37,44.39
793,D5,103.75,0.25,47,44.39
794,G4,103.75,0.25,47,44.39
795,C5,104.0,0.25,50,44.39
796,F#3,104.0,0.5,40,44.39
797,A4,104.25,0.25,42,44.39
798,B4,104.5,0.25,50,44.39
799,G3,104.5,0.5,35,44.39
800,G4,104.75,0.25,42,44.39
801,D3,105.0,1.0,39,44.39
802,G4,105.0,0.5,50,44.39
803,B4,105.0,0.5,50,44.39
804,G3,105.015,0.5,40,44.39
805,F#3,105.5,0.5,35,44.39
806,F#4,105.5,0.5,44,44.39
807,A4,105.5,0.5,44,44.39
808,B4,106.0,0.25,50,44.39
809,D4,106.0,2.0,39,44.39
810,G3,106.0,0.5,39,44.39
811,C5,106.25,0.062,44,44.39
812,B4,106.312,0.062,40,44.39
813,A4,106.375,0.062,44,44.39
814,B4,106.438,0.062,40,44.39
815,C5,106.5,0.375,48,44.39
816,A3,106.5,0.375,35,44.39
817,B4,106.875,0.125,47,44.39
818,G3,106.875,0.125,30,44.39
819,A4,107.0,0.5,50,44.39
820,F#3,107.0,0.5,32,44.39
821,B4,107.5,0.5,46,44.39
822,G#3,107.5,0.5,32,44.39
823,C5,108.0,0.25,50,44.39
824,D4,108.0,2.0,38,44.39
825,A3,108.0,0.5,38,44.39
826,C#5,108.25,0.25,50,44.39
827,E5,108.5,0.25,46,44.39
828,F#3,108.5,0.5,33,44.39
829,D5,108.75,0.25,49,44.39
830,C5,109.0,0.375,47,44.39
831,G3,109.0,1.0,39,44.39
832,D5,109.375,0.062,47,44.39
833,C5,109.438,0.062,47,44.39
834,B4,109.5,0.5,51,44.39
835,G4,110.0,0.25,65,44.39
836,C5,110.0,0.25,65,44.39
837,E3,110.0,0.25,49,44.39
838,E4,110.0,0.25,49,44.39
839,B4,110.5,0.25,61,44.39
840,G4,110.5,0.25,61,44.39
841,D3,110.5,0.25,44,44.39
842,D4,110.5,0.25,44,44.39
843,G4,111.0,0.75,67,44.39
844,E5,111.0,0.25,67,44.39
845,C4,111.0,0.5,51,44.39
846,C3,111.0,0.5,51,44.39
847,F#5,111.25,0.25,62,44.39
848,G5,111.5,0.25,65,44.39
849,C5,111.75,0.25,47,44.39
850,E4,111.75,0.25,37,44.39
851,C4,111.75,0.25,37,44.39
852,B4,112.0,0.5,50,44.39
853,D4,112.0,1.0,40,44.39
854,G4,112.0,0.5,40,44.39
855,F#4,112.5,0.5,35,44.39
856,A4,112.5,27/500,47,44.39
857,B4,112.5,27/500,47,44.39
858,A4,112.61,7/125,47,44.39
859,B4,112.61,7/125,47,44.39
860,A4,112.721,7/125,45,44.39
861,B4,112.721,7/125,45,44.39
862,A4,112.831,7/125,45,44.39
863,G4,112.831,7/125,45,44.39
864,A4,112.94,3/50,45,44.39
865,G4,113.0,1.0,45,44.39
866,G3,113.0,1.0,39,44.39
867,B3,113.25,0.25,28,44.39
868,D4,113.5,0.25,32,44.39
869,B3,113.75,0.25,27,44.39
870,B4,114.0,0.5,45,44.39
871,C3,114.0,1.0,39,44.39
872,E3,114.25,0.25,27,44.39
873,A4,114.5,0.5,45,44.39
874,A3,114.5,0.25,32,44.39
875,E3,114.75,0.25,28,44.39
876,G4,115.0,0.25,45,44.39
877,D3,115.0,1.0,39,44.39
878,F#4,115.25,121/500,41,44.39
879,C4,115.25,0.25,29,44.39
880,F#4,115.5,0.25,45,44.39
881,A3,115.5,0.25,32,44.39
882,D4,115.75,0.25,41,44.39
883,C4,115.75,0.25,29,44.39
884,B4,116.0,1.0,51,44.39
885,G3,116.0,1.0,39,44.39
886,B3,116.25,0.25,29,44.39
887,D4,116.5,0.25,32,44.39
888,B3,116.75,0.25,29,44.39
889,G4,117.0,0.75,45,44.39
890,E3,117.0,1.0,39,44.39
891,G3,117.25,0.25,29,44.39
892,B3,117.5,0.25,32,44.39
893,A4,117.75,0.062,40,44.39
894,G3,117.75,0.25,30,44.39
895,G4,117.812,0.062,35,44.39
896,F#4,117.875,0.062,40,44.39
897,G4,117.938,0.062,36,44.39
898,B4,118.0,0.25,45,44.39
899,C3,118.0,1.0,39,44.39
900,A4,118.25,61/250,45,44.39
901,E3,118.25,0.25,29,44.39
902,A4,118.5,0.5,45,44.39
903,A3,118.5,0.25,32,44.39
904,E3,118.75,0.25,29,44.39
905,G4,119.0,0.25,45,44.39
906,D3,119.0,1.0,39,44.39
907,F#4,119.25,123/500,41,44.39
908,C4,119.25,0.25,30,44.39
909,F#4,119.5,0.25,45,44.39
910,A3,119.5,0.25,32,44.39
911,D4,119.75,0.25,43,44.39
912,C4,119.75,0.25,29,44.39
913,G4,120.0,1.0,54,44.39
914,B3,120.0,1.0,38,44.39
915,G3,120.0,1.0,38,44.39
916,G5,121.0,19/40,62,44.39
917,C#5,121.0,19/40,62,44.39
918,G4,121.0,19/40,62,44.39
919,E-3,121.0,19/40,56,44.39
920,E-4,121.0,19/40,56,44.39
921,C#5,121.5,19/40,59,44.39
922,G5,121.5,19/40,59,44.39
923,G4,121.5,19/40,59,44.39
924,E-3,121.5,19/40,52,44.39
925,E-4,121.5,19/40,52,44.39
926,C#5,122.0,9/10,63,44.39
927,G5,122.0,9/10,63,44.39
928,G4,122.0,9/10,63,44.39
929,E-3,122.0,9/10,56,44.39
930,E-4,122.0,9/10,56,44.39
931,F#5,123.0,2/5,44,44.39
932,D6,123.0,2/5,44,44.39
933,A4,123.0,2/5,34,44.39
934,D4,123.0,2/5,34,44.39
935,D6,123.5,2/5,42,44.39
936,F#5,123.5,2/5,42,44.39
937,A4,123.5,2/5,32,44.39
938,D4,123.5,2/5,32,44.39
939,D6,124.0,1.0,44,44.39
940,F#5,124.0,1.0,44,44.39
941,D4,124.0,1.0,34,44.39
942,A4,124.0,1.0,34,44.39
943,B4,125.5,0.062,48,44.39
944,C5,125.562,0.062,44,44.39
945,B4,125.625,0.062,48,44.39
946,A4,125.688,0.062,44,44.39
947,B4,125.75,0.125,50,44.39
948,C5,125.875,0.125,45,44.39
949,D5,126.0,0.5,54,44.39
950,G3,126.0,0.25,34,44.39
951,B3,126.25,0.25,29,44.39
952,D5,126.5,0.75,48,44.39
953,D4,126.5,0.25,29,44.39
954,B3,126.75,0.25,29,44.39
955,G3,127.0,0.25,34,44.39
956,D5,127.25,0.25,48,44.39
957,B3,127.25,0.25,30,44.39
958,D5,127.5,0.062,50,44.39
959,D4,127.5,0.25,30,44.39
960,E5,127.562,0.062,44,44.39
961,D5,127.625,0.062,46,44.39
962,C#5,127.688,0.062,46,44.39
963,D5,127.75,0.125,53,44.39
964,B3,127.75,0.25,30,44.39
965,E5,127.875,0.125,43,44.39
966,D5,128.0,0.25,53,44.39
967,G3,128.0,0.25,34,44.39
968,C5,128.25,0.25,48,44.39
969,A3,128.25,0.25,31,44.39
970,C5,128.5,0.75,48,44.39
971,E4,128.5,0.25,31,44.39
972,A3,128.75,0.25,31,44.39
973,G3,129.0,0.25,34,44.39
974,C5,129.25,0.125,45,44.39
975,A3,129.25,0.25,30,44.39
976,B4,129.5,0.125,49,44.39
977,E4,129.5,0.25,30,44.39
978,A4,129.75,0.125,45,44.39
979,A3,129.75,0.25,30,44.39
980,A4,130.0,0.25,51,44.39
981,F#3,130.0,0.25,34,44.39
982,D5,130.25,61/250,46,44.39
983,A3,130.25,0.25,31,44.39
984,D5,130.5,0.75,46,44.39
985,D4,130.5,0.25,31,44.39
986,A3,130.75,0.25,31,44.39
987,E3,131.0,0.25,34,44.39
988,E5,131.25,0.125,48,44.39
989,A3,131.25,0.25,31,44.39
990,D5,131.375,0.125,44,44.39
991,D5,131.5,0.125,48,44.39
992,C4,131.5,0.25,31,44.39
993,C5,131.625,0.125,44,44.39
994,B4,131.75,0.125,44,44.39
995,A3,131.75,0.25,28,44.39
996,C5,131.875,0.125,44,44.39
997,C5,132.0,0.25,49,44.39
998,E-3,132.0,0.25,31,44.39
999,B4,132.25,61/250,45,44.39
1000,F#3,132.25,0.25,32,44.39
1001,B4,132.5,0.625,48,44.39
1002,A3,132.5,0.25,32,44.39
1003,E-3,132.75,0.25,32,44.39
1004,E3,133.0,0.25,34,44.39
1005,B4,133.125,0.062,44,44.39
1006,C5,133.188,0.062,44,44.39
1007,D5,133.25,0.125,48,44.39
1008,B3,133.25,0.25,32,44.39
1009,C5,133.5,0.125,46,44.39
1010,D3,133.5,0.25,32,44.39
1011,B4,133.75,0.125,46,44.39
1012,G3,133.75,0.25,32,44.39
1013,B4,134.0,0.25,51,44.39
1014,C#3,134.0,0.25,34,44.39
1015,A4,134.25,0.25,46,44.39
1016,E3,134.25,0.25,27,44.39
1017,A4,134.5,0.125,46,44.39
1018,G3,134.5,0.25,31,44.39
1019,A4,134.75,0.125,48,44.39
1020,E3,134.75,0.25,28,44.39
1021,A4,135.0,0.5,48,44.39
1022,C#3,135.0,0.25,34,44.39
1023,E3,135.25,0.25,29,44.39
1024,A4,135.5,0.375,48,44.39
1025,G3,135.5,0.25,32,44.39
1026,C#5,135.75,83/1000,48,44.39
1027,E3,135.75,0.25,29,44.39
1028,D5,135.833,83/1000,48,44.39
1029,E5,135.917,83/1000,48,44.39
1030,D5,136.0,1.25,53,44.39
1031,C3,136.0,0.25,34,44.39
1032,F#3,136.25,0.25,26,44.39
1033,A3,136.5,0.25,29,44.39
1034,C3,136.75,0.25,25,44.39
1035,B2,137.0,0.25,34,44.39
1036,E5,137.25,0.125,52,44.39
1037,G3,137.25,0.25,26,44.39
1038,D5,137.375,0.125,48,44.39
1039,C5,137.5,0.25,51,44.39
1040,E3,137.5,0.25,29,44.39
1041,B4,137.75,61/250,48,44.39
1042,D3,137.75,0.25,26,44.39
1043,B4,138.0,0.25,53,44.39
1044,E3,138.0,1.5,33,44.39
1045,C3,138.0,1.5,33,44.39
1046,A4,138.25,0.25,45,44.39
1047,G#4,138.5,0.25,50,44.39
1048,A4,138.75,0.25,45,44.39
1049,B4,139.0,0.25,48,44.39
1050,C5,139.25,0.25,44,44.39
1051,E4,139.5,0.25,42,44.39
1052,A3,139.5,0.5,32,44.39
1053,C#3,139.5,0.5,32,44.39
1054,A4,139.75,0.25,42,44.39
1055,G4,140.0,0.25,48,44.39
1056,A3,140.0,1.0,35,44.39
1057,D3,140.0,1.0,35,44.39
1058,F#4,140.25,0.25,45,44.39
1059,E4,140.5,0.25,41,44.39
1060,D4,140.75,0.25,41,44.39
1061,E4,141.0,0.25,42,44.39
1062,F#4,141.25,0.25,44,44.39
1063,G4,141.5,0.25,47,44.39
1064,A4,141.75,0.25,49,44.39
1065,B4,142.0,0.375,50,44.39
1066,G4,142.0,0.25,36,44.39
1067,D4,142.25,0.25,29,44.39
1068,D5,142.375,0.125,42,44.39
1069,C5,142.5,0.375,50,44.39
1070,G4,142.5,0.25,33,44.39
1071,D4,142.75,0.25,29,44.39
1072,B4,142.875,0.125,47,44.39
1073,A4,143.0,0.5,50,44.39
1074,F#4,143.0,0.25,36,44.39
1075,D4,143.25,0.25,28,44.39
1076,B4,143.5,0.5,46,44.39
1077,G4,143.5,0.25,32,44.39
1078,D4,143.75,0.25,28,44.39
1079,C5,144.0,0.5,50,44.39
1080,A4,144.0,0.25,36,44.39
1081,D4,144.25,0.25,28,44.39
1082,D5,144.5,0.5,46,44.39
1083,F#4,144.5,0.25,31,44.39
1084,D4,144.75,0.25,28,44.39
1085,C5,145.0,0.5,47,44.39
1086,G4,145.0,0.25,36,44.39
1087,D4,145.25,0.25,29,44.39
1088,B4,145.5,0.5,51,44.39
1089,G4,145.5,0.25,33,44.39
1090,D4,145.75,0.25,29,44.39
1091,D6,146.0,0.062,45,44.39
1092,G3,146.0,0.375,42,44.39
1093,B3,146.0,0.375,42,44.39
1094,E6,146.062,0.062,40,44.39
1095,D6,146.125,0.062,45,44.39
1096,E6,146.188,0.062,41,44.39
1097,D6,146.25,0.062,45,44.39
1098,E6,146.312,0.062,40,44.39
1099,D6,146.375,0.062,45,44.39
1100,D4,146.375,0.125,37,44.39
1101,E6,146.438,0.062,39,44.39
1102,D6,146.5,0.062,45,44.39
1103,A3,146.5,0.375,42,44.39
1104,C4,146.5,0.375,42,44.39
1105,E6,146.562,0.062,40,44.39
1106,D6,146.625,0.062,45,44.39
1107,E6,146.688,0.062,40,44.39
1108,D6,146.75,0.062,45,44.39
1109,E6,146.812,0.062,40,44.39
1110,D6,146.875,0.062,45,44.39
1111,G3,146.875,0.125,38,44.39
1112,B3,146.875,0.125,38,44.39
1113,E6,146.938,0.062,41,44.39
1114,D6,147.0,0.062,45,44.39
1115,F#3,147.0,0.5,42,44.39
1116,A3,147.0,0.5,42,44.39
1117,E6,147.062,0.062,40,44.39
1118,D6,147.125,0.062,45,44.39
1119,E6,147.188,0.062,40,44.39
1120,D6,147.25,0.062,45,44.39
1121,E6,147.312,0.062,41,44.39
1122,D6,147.375,0.062,45,44.39
1123,E6,147.438,0.062,40,44.39
1124,D6,147.5,0.062,45,44.39
1125,G3,147.5,0.5,38,44.39
1126,B3,147.5,0.5,38,44.39
1127,E6,147.562,0.062,40,44.39
1128,D6,147.625,0.062,45,44.39
1129,E6,147.688,0.062,41,44.39
1130,D6,147.75,0.062,45,44.39
1131,E6,147.812,0.062,40,44.39
1132,D6,147.875,0.062,45,44.39
1133,E6,147.938,0.062,41,44.39
1134,D6,148.0,0.062,45,44.39
1135,A3,148.0,0.5,42,44.39
1136,C4,148.0,0.5,42,44.39
1137,E6,148.062,0.062,42,44.39
1138,D6,148.125,0.062,45,44.39
1139,E6,148.188,0.062,41,44.39
1140,D6,148.25,0.062,44,44.39
1141,E6,148.312,0.062,38,44.39
1142,D6,148.375,0.062,44,44.39
1143,E6,148.438,0.062,39,44.39
1144,D6,148.5,0.062,43,44.39
1145,B3,148.5,0.5,38,44.39
1146,D4,148.5,0.5,38,44.39
1147,E6,148.562,0.062,38,44.39
1148,D6,148.625,0.062,42,44.39
1149,E6,148.688,0.062,38,44.39
1150,D6,148.75,0.062,42,44.39
1151,E6,148.812,0.062,39,44.39
1152,D6,148.875,0.062,43,44.39
1153,E6,148.938,0.062,39,44.39
1154,D6,149.0,0.062,43,44.39
1155,A3,149.0,0.5,38,44.39
1156,C4,149.0,0.5,38,44.39
1157,E6,149.062,0.062,38,44.39
1158,D6,149.125,0.062,43,44.39
1159,E6,149.188,0.062,38,44.39
1160,D6,149.25,0.062,43,44.39
1161,E6,149.312,0.062,38,44.39
1162,D6,149.375,0.062,43,44.39
1163,E6,149.438,0.062,39,44.39
1164,D6,149.5,83/1000,43,44.39
1165,G3,149.5,0.5,42,44.39
1166,B3,149.5,0.5,42,44.39
1167,E6,149.583,83/1000,45,44.39
1168,D6,149.667,83/1000,52,44.39
1169,C#6,149.75,0.125,58,44.39
1170,D6,149.875,0.125,54,44.39
1171,G5,150.0,0.5,61,44.39
1172,G4,150.0,0.5,61,44.39
1173,B3,150.0,0.5,59,44.39
1174,D4,150.0,0.5,59,44.39
1175,F#5,150.5,0.5,55,44.39
1176,F#4,150.5,0.5,55,44.39
1177,A3,150.5,0.5,45,44.39
1178,C4,150.5,0.5,45,44.39
1179,E-4,150.5,0.5,45,44.39
1180,E4,151.0,0.5,58,44.39
1181,E5,151.0,0.5,58,44.39
1182,G3,151.0,0.5,48,44.39
1183,B3,151.0,0.5,48,44.39
1184,B4,151.75,0.25,40,44.39
1185,E4,152.0,0.5,42,44.39
1186,E5,152.0,0.5,42,44.39
1187,G3,152.0,0.5,32,44.39
1188,B3,152.0,0.5,32,44.39
1189,D4,152.5,0.5,37,44.39
1190,D5,152.5,0.5,37,44.39
1191,F3,152.5,0.5,31,44.39
1192,G3,152.5,0.5,31,44.39
1193,B3,152.5,0.5,31,44.39
1194,C4,153.0,0.5,40,44.39
1195,C5,153.0,0.5,40,44.39
1196,E3,153.0,0.5,32,44.39
1197,G3,153.0,0.5,32,44.39
1198,G4,153.75,0.25,60,44.39
1199,C5,154.0,0.5,61,44.39
1200,C4,154.0,0.5,61,44.39
1201,E3,154.0,0.5,59,44.39
1202,G3,154.0,0.5,59,44.39
1203,B3,154.5,0.5,55,44.39
1204,B4,154.5,0.5,55,44.39
1205,D3,154.5,0.5,45,44.39
1206,F3,154.5,0.5,45,44.39
1207,G#3,154.5,0.5,45,44.39
1208,A4,155.0,0.25,62,44.39
1209,C3,155.0,1.0,47,44.39
1210,E3,155.0,1.0,47,44.39
1211,A3,155.0,1.0,47,44.39
1212,E5,155.25,0.25,56,44.39
1213,D5,155.5,0.125,50,44.39
1214,C5,155.625,0.125,46,44.39
1215,B4,155.75,0.125,50,44.39
1216,A4,155.875,0.125,46,44.39
1217,G4,156.0,0.5,50,44.39
1218,B3,156.0,0.5,40,44.39
1219,D3,156.0,1.0,40,44.39
1220,A4,156.5,0.5,45,44.39
1221,F#3,156.5,62/125,38,44.39
1222,B-4,157.0,0.5,53,44.39
1223,F#3,157.0,0.5,40,44.39
1224,G2,157.0,1.0,40,44.39
1225,B4,157.5,0.5,49,44.39
1226,G3,157.5,0.5,38,44.39
1227,G5,158.0,0.5,66,44.39
1228,B3,158.0,0.5,53,44.39
1229,D4,158.0,0.5,53,44.39
1230,F#5,158.5,0.062,60,44.39
1231,A3,158.5,0.5,40,44.39
1232,C4,158.5,0.5,40,44.39
1233,E-4,158.5,0.5,40,44.39
1234,G5,158.562,0.062,54,44.39
1235,F#5,158.625,0.062,60,44.39
1236,G5,158.688,0.062,55,44.39
1237,F#5,158.75,0.062,60,44.39
1238,G5,158.812,0.062,55,44.39
1239,F#5,158.875,0.062,60,44.39
1240,G5,158.938,0.062,55,44.39
1241,E5,159.0,0.5,62,44.39
1242,E4,159.0,0.5,44,44.39
1243,G3,159.0,0.5,44,44.39
1244,B3,159.0,0.5,44,44.39
1245,B5,159.75,0.25,40,44.39
1246,E6,160.0,0.5,45,44.39
1247,G4,160.0,0.5,32,44.39
1248,B4,160.0,0.5,32,44.39
1249,D6,160.5,0.062,48,44.39
1250,F4,160.5,0.5,31,44.39
1251,G4,160.5,0.5,31,44.39
1252,B4,160.5,0.5,31,44.39
1253,E6,160.562,0.062,42,44.39
1254,D6,160.625,0.062,50,44.39
1255,E6,160.688,0.062,44,44.39
1256,D6,160.75,0.062,49,44.39
1257,E6,160.812,0.062,42,44.39
1258,D6,160.875,0.062,50,44.39
1259,E6,160.938,0.062,47,44.39
1260,C6,161.0,0.5,44,44.39
1261,C5,161.0,0.5,33,44.39
1262,E4,161.0,0.5,33,44.39
1263,G4,161.0,0.5,33,44.39
1264,G5,161.75,0.25,60,44.39
1265,C6,162.0,0.5,66,44.39
1266,E4,162.0,0.5,59,44.39
1267,G4,162.0,0.5,59,44.39
1268,D4,162.5,0.5,45,44.39
1269,F4,162.5,0.5,45,44.39
1270,G#4,162.5,0.5,45,44.39
1271,B5,162.506,0.062,57,44.39
1272,C6,162.569,0.062,54,44.39
1273,B5,162.631,0.062,59,44.39
1274,C6,162.694,0.062,54,44.39
1275,B5,162.756,0.062,57,44.39
1276,C6,162.819,0.062,52,44.39
1277,B5,162.881,0.062,56,44.39
1278,C6,162.944,0.062,52,44.39
1279,A5,163.0,0.25,62,44.39
1280,C4,163.0,1.0,47,44.39
1281,E4,163.0,1.0,47,44.39
1282,A4,163.0,1.0,47,44.39
1283,E6,163.25,0.25,58,44.39
1284,D6,163.5,0.125,55,44.39
1285,C6,163.625,0.125,47,44.39
1286,B5,163.75,0.125,50,44.39
1287,A5,163.875,0.125,46,44.39
1288,G5,164.0,0.125,47,44.39
1289,G4,164.0,0.5,36,44.39
1290,B4,164.0,0.5,36,44.39
1291,D4,164.0,0.5,36,44.39
1292,A5,164.25,0.125,47,44.39
1293,B-5,164.5,0.125,47,44.39
1294,B5,164.75,0.125,47,44.39
1295,C6,165.0,0.125,49,44.39
1296,G4,165.0,0.5,34,44.39
1297,B4,165.0,0.5,34,44.39
1298,D4,165.0,0.5,34,44.39
1299,C#6,165.25,0.125,52,44.39
1300,D6,165.5,0.125,55,44.39
1301,E-6,165.75,0.25,58,44.39
1302,E-6,166.0,0.125,58,44.39
1303,D4,166.0,0.5,34,44.39
1304,G4,166.0,0.5,34,44.39
1305,C5,166.0,0.5,34,44.39
1306,E6,166.125,0.125,57,44.39
1307,E-6,166.25,0.125,65,44.39
1308,E6,166.375,0.125,57,44.39
1309,D6,166.5,0.125,64,44.39
1310,C6,166.625,0.125,61,44.39
1311,B5,166.75,0.125,59,44.39
1312,A5,166.875,0.125,57,44.39
1313,A5,167.0,0.062,50,44.39
1314,F#4,167.0,0.5,30,44.39
1315,D4,167.0,0.5,30,44.39
1316,C5,167.0,0.5,30,44.39
1317,B5,167.062,0.062,45,44.39
1318,A5,167.125,0.062,50,44.39
1319,B5,167.188,0.062,44,44.39
1320,A5,167.25,0.062,50,44.39
1321,B5,167.312,0.062,45,44.39
1322,A5,167.375,0.062,50,44.39
1323,B5,167.438,0.062,45,44.39
1324,A5,167.5,83/1000,50,44.39
1325,B5,167.583,83/1000,45,44.39
1326,A5,167.667,83/1000,55,44.39
1327,G5,167.75,0.125,62,44.39
1328,A5,167.875,0.125,59,44.39
1329,G5,168.0,83/1000,65,44.39
1330,G4,168.0,1.0,31,44.39
1331,B4,168.0,1.0,31,44.39
1332,G5,168.125,0.125,61,44.39
1333,F#5,168.25,0.125,58,44.39
1334,G5,168.375,0.125,53,44.39
1335,A5,168.5,0.125,59,44.39
1336,G5,168.625,0.125,59,44.39
1337,F#5,168.75,0.125,56,44.39
1338,E5,168.875,0.125,54,44.39
1339,D5,169.0,83/1000,57,44.39
1340,E5,169.125,0.125,53,44.39
1341,E-5,169.25,0.125,51,44.39
1342,E5,169.375,0.125,48,44.39
1343,F#5,169.5,0.125,53,44.39
1344,E5,169.625,0.125,48,44.39
1345,D5,169.75,0.125,49,44.39
1346,C5,169.875,0.125,45,44.39
1347,B4,170.0,0.25,48,44.39
1348,D4,170.0,1.0,32,44.39
1349,G3,170.0,0.5,39,44.39
1350,C5,170.25,1/20,42,44.39
1351,B4,170.25,1/20,42,44.39
1352,A4,170.35,1/20,42,44.39
1353,B4,170.35,1/20,42,44.39
1354,D5,170.45,1/20,44,44.39
1355,C5,170.5,0.375,48,44.39
1356,A3,170.5,0.375,35,44.39
1357,B4,170.875,0.375,47,44.39
1358,G3,170.875,0.125,30,44.39
1359,D4,171.0,1.0,32,44.39
1360,F#3,171.0,0.5,36,44.39
1361,A4,171.25,0.5,50,44.39
1362,G3,171.5,0.5,32,44.39
1363,B4,171.75,0.25,46,44.39
1364,B4,172.0,0.25,46,44.39
1365,D4,172.0,1.0,38,44.39
1366,A3,172.0,0.5,40,44.39
1367,C5,172.25,0.375,50,44.39
1368,F#3,172.5,0.5,33,44.39
1369,E5,172.625,0.125,45,44.39
1370,D5,172.75,0.25,48,44.39
1371,C5,173.0,0.5,47,44.39
1372,D4,173.0,1.0,38,44.39
1373,G3,173.0,1.0,38,44.39
1374,B4,173.5,0.5,51,44.39
1375,G4,174.0,0.25,65,44.39
1376,C5,174.0,0.25,65,44.39
1377,E3,174.0,0.25,49,44.39
1378,E4,174.0,0.25,49,44.39
1379,B4,174.5,0.25,61,44.39
1380,G4,174.5,0.25,61,44.39
1381,D3,174.5,0.25,44,44.39
1382,D4,174.5,0.25,44,44.39
1383,E5,175.0,0.25,67,44.39
1384,G4,175.0,0.25,67,44.39
1385,C4,175.0,0.25,51,44.39
1386,C3,175.0,0.25,51,44.39
1387,D5,175.75,0.25,47,44.39
1388,B3,175.75,0.25,37,44.39
1389,D5,176.0,0.125,50,44.39
1390,D4,176.0,1.0,38,44.39
1391,F#3,176.0,0.5,40,44.39
1392,C5,176.125,0.125,44,44.39
1393,B4,176.25,0.125,44,44.39
1394,A4,176.375,0.125,44,44.39
1395,C5,176.5,0.125,50,44.39
1396,G3,176.5,0.5,35,44.39
1397,B4,176.625,0.125,45,44.39
1398,A4,176.75,0.125,45,44.39
1399,G4,176.875,0.125,45,44.39
1400,G4,177.0,0.5,50,44.39
1401,B4,177.0,0.5,50,44.39
1402,D4,177.0,1.0,38,44.39
1403,D3,177.0,1.0,38,44.39
1404,F#4,177.5,0.5,44,44.39
1405,A4,177.5,0.5,44,44.39
1406,B-4,178.0,0.25,50,44.39
1407,D4,178.0,1.0,39,44.39
1408,G3,178.0,0.5,39,44.39
1409,B4,178.25,0.188,50,44.39
1410,D5,178.438,0.062,51,44.39
1411,C5,178.5,0.25,51,44.39
1412,A3,178.5,0.25,35,44.39
1413,B4,178.75,0.25,44,44.39
1414,G3,178.75,0.25,30,44.39
1415,G#4,179.0,0.25,51,44.39
1416,D4,179.0,0.5,33,44.39
1417,F#3,179.0,0.5,33,44.39
1418,A4,179.25,0.25,47,44.39
1419,D4,179.5,0.5,31,44.39
1420,G3,179.5,0.5,31,44.39
1421,C5,179.75,0.125,49,44.39
1422,B4,179.875,0.125,46,44.39
1423,D4,180.0,0.5,39,44.39
1424,A3,180.0,0.5,39,44.39
1425,D5,180.25,0.125,50,44.39
1426,C5,180.375,0.125,45,44.39
1427,D4,180.5,0.5,32,44.39
1428,F#3,180.5,0.5,32,44.39
1429,E5,180.75,0.125,46,44.39
1430,D5,180.875,0.125,49,44.39
1431,C5,181.0,0.375,53,44.39
1432,D4,181.0,1.0,38,44.39
1433,G3,181.0,1.0,38,44.39
1434,D5,181.375,0.062,47,44.39
1435,C5,181.438,0.062,47,44.39
1436,B4,181.5,0.5,56,44.39
1437,C5,182.0,0.25,65,44.39
1438,G4,182.0,0.25,65,44.39
1439,E3,182.0,0.25,49,44.39
1440,E4,182.0,0.25,49,44.39
1441,G4,182.5,0.25,61,44.39
1442,B4,182.5,0.25,61,44.39
1443,D3,182.5,0.25,44,44.39
1444,D4,182.5,0.25,44,44.39
1445,E5,183.0,0.125,67,44.39
1446,C4,183.0,0.5,51,44.39
1447,C3,183.0,0.5,51,44.39
1448,F#5,183.125,21/500,54,44.39
1449,E5,183.125,21/500,54,44.39
1450,D5,183.208,21/500,54,44.39
1451,E5,183.25,0.125,63,44.39
1452,F#5,183.375,0.125,60,44.39
1453,G5,183.5,0.25,65,44.39
1454,C5,183.75,0.25,47,44.39
1455,E4,183.75,0.25,37,44.39
1456,C4,183.75,0.25,37,44.39
1457,B4,184.0,0.5,50,44.39
1458,D4,184.0,1.0,40,44.39
1459,G4,184.0,0.5,40,44.39
1460,F#4,184.5,0.5,35,44.39
1461,A4,184.5,27/500,47,44.39
1462,B4,184.5,27/500,47,44.39
1463,A4,184.61,7/125,47,44.39
1464,B4,184.61,7/125,47,44.39
1465,A4,184.721,7/125,45,44.39
1466,B4,184.721,7/125,45,44.39
1467,A4,184.831,7/125,45,44.39
1468,G4,184.831,7/125,45,44.39
1469,A4,184.94,3/50,45,44.39
1470,G4,185.0,1.0,45,44.39
1471,G3,185.0,1.0,39,44.39
1472,B3,185.25,0.25,28,44.39
1473,D4,185.5,0.25,32,44.39
1474,B3,185.75,0.25,27,44.39
1475,B4,186.0,0.5,45,44.39
1476,C3,186.0,1.0,39,44.39
1477,E3,186.25,0.25,27,44.39
1478,A4,186.5,0.5,45,44.39
1479,A3,186.5,0.25,32,44.39
1480,E3,186.75,0.25,28,44.39
1481,G4,187.0,0.25,45,44.39
1482,D3,187.0,1.0,39,44.39
1483,F#4,187.25,61/250,41,44.39
1484,C4,187.25,0.25,29,44.39
1485,F#4,187.5,0.25,45,44.39
1486,A3,187.5,0.25,32,44.39
1487,D4,187.75,0.25,41,44.39
1488,C4,187.75,0.25,29,44.39
1489,B4,188.0,1.0,51,44.39
1490,G3,188.0,1.0,39,44.39
1491,B3,188.25,0.25,29,44.39
1492,D4,188.5,0.25,32,44.39
1493,B3,188.75,0.25,29,44.39
1494,G4,189.0,0.75,45,44.39
1495,E3,189.0,1.0,39,44.39
1496,G3,189.25,0.25,29,44.39
1497,B3,189.5,0.25,32,44.39
1498,A4,189.75,0.062,40,44.39
1499,G3,189.75,0.25,30,44.39
1500,G4,189.812,0.062,35,44.39
1501,F#4,189.875,0.062,40,44.39
1502,G4,189.938,0.062,36,44.39
1503,B4,190.0,0.25,45,44.39
1504,C3,190.0,1.0,39,44.39
1505,A4,190.25,61/250,45,44.39
1506,E3,190.25,0.25,29,44.39
1507,A4,190.5,0.5,45,44.39
1508,A3,190.5,0.25,32,44.39
1509,E3,190.75,0.25,29,44.39
1510,G4,191.0,0.25,45,44.39
1511,D3,191.0,1.0,39,44.39
1512,F#4,191.25,123/500,41,44.39
1513,C4,191.25,0.25,30,44.39
1514,F#4,191.5,0.25,45,44.39
1515,A3,191.5,0.25,32,44.39
1516,D4,191.75,0.25,43,44.39
1517,C4,191.75,0.25,29,44.39
1518,G4,192.0,1.0,54,44.39
1519,G2,192.0,1.0,45,44.39
1520,G3,192.25,0.25,37,44.39
1521,B3,192.5,0.25,37,44.39
1522,D4,192.75,0.25,37,44.39
1523,E2,193.0,1.0,49,44.39
1524,G4,193.0,1.0,52,44.39
1525,G5,193.0,1.0,52,44.39
1526,E3,193.25,0.25,39,44.39
1527,G3,193.5,0.25,39,44.39
1528,B3,193.75,0.25,39,44.39
1529,C2,194.0,1.0,48,44.39
1530,B4,194.0,0.25,50,44.39
1531,B5,194.0,0.25,50,44.39
1532,C3,194.25,0.25,38,44.39
1533,A4,194.25,0.75,45,44.39
1534,A5,194.25,0.75,45,44.39
1535,E3,194.5,0.25,38,44.39
1536,A3,194.75,0.25,38,44.39
1537,D2,195.0,1.0,50,44.39
1538,G4,195.0,0.25,52,44.39
1539,G5,195.0,0.25,52,44.39
1540,D3,195.25,0.25,42,44.39
1541,F#4,195.25,119/500,50,44.39
1542,F#5,195.25,119/500,50,44.39
1543,A3,195.5,0.25,42,44.39
1544,F#4,195.5,0.25,52,44.39
1545,F#5,195.5,0.25,52,44.39
1546,C4,195.75,0.25,42,44.39
1547,D5,195.75,0.25,54,44.39
1548,D4,195.75,0.25,54,44.39
1549,B1,196.0,1.0,56,44.39
1550,D6,196.0,1.0,62,44.39
1551,D5,196.0,1.0,62,44.39
1552,B2,196.25,0.25,42,44.39
1553,D3,196.5,0.25,46,44.39
1554,G3,196.75,0.25,42,44.39
1555,E2,197.0,1.0,52,44.39
1556,G4,197.0,19/40,54,44.39
1557,G5,197.0,19/40,54,44.39
1558,E3,197.25,0.25,41,44.39
1559,G3,197.5,0.25,41,44.39
1560,G4,197.5,0.5,54,44.39
1561,G5,197.5,0.5,54,44.39
1562,B3,197.75,0.25,41,44.39
1563,C2,198.0,1.0,48,44.39
1564,B4,198.0,0.25,58,44.39
1565,B5,198.0,0.25,58,44.39
1566,C3,198.25,0.25,38,44.39
1567,A4,198.25,119/500,48,44.39
1568,A5,198.25,119/500,48,44.39
1569,E3,198.5,0.25,38,44.39
1570,A4,198.5,0.125,48,44.39
1571,A5,198.5,0.125,48,44.39
1572,A3,198.75,0.25,38,44.39
1573,A4,198.75,0.125,48,44.39
1574,A5,198.75,0.125,48,44.39
1575,D2,199.0,1.0,50,44.39
1576,G4,199.0,0.25,52,44.39
1577,G5,199.0,0.25,52,44.39
1578,D3,199.25,0.25,38,44.39
1579,F#4,199.25,119/500,50,44.39
1580,F#5,199.25,119/500,50,44.39
1581,A3,199.5,0.25,42,44.39
1582,F#4,199.5,0.25,52,44.39
1583,F#5,199.5,0.25,52,44.39
1584,C4,199.75,0.25,37,44.39
1585,D5,199.75,0.25,56,44.39
1586,D4,199.75,0.25,56,44.39
1587,G3,200.0,0.25,52,44.39
1588,G5,200.0,1.0,62,44.39
1589,G4,200.0,1.0,62,44.39
1590,D4,200.25,119/500,31,44.39
1591,B3,200.25,119/500,31,44.39
1592,D4,200.5,119/500,31,44.39
1593,B3,200.5,119/500,31,44.39
1594,D4,200.75,119/500,31,44.39
1595,B3,200.75,119/500,31,44.39
1596,B5,201.0,0.25,54,44.39
1597,D3,201.0,0.25,36,44.39
1598,A5,201.25,61/250,48,44.39
1599,D4,201.25,119/500,28,44.39
1600,C4,201.25,119/500,28,44.39
1601,A5,201.5,0.25,48,44.39
1602,D4,201.5,119/500,28,44.39
1603,C4,201.5,119/500,28,44.39
1604,F#5,201.75,0.25,48,44.39
1605,D4,201.75,119/500,28,44.39
1606,C4,201.75,119/500,28,44.39
1607,G5,202.0,0.25,50,44.39
1608,G3,202.0,0.25,37,44.39
1609,B5,202.25,0.25,52,44.39
1610,D4,202.25,119/500,26,44.39
1611,B3,202.25,119/500,26,44.39
1612,D6,202.5,0.5,58,44.39
1613,D4,202.5,119/500,26,44.39
1614,B3,202.5,119/500,26,44.39
1615,D4,202.75,119/500,26,44.39
1616,B3,202.75,119/500,26,44.39
1617,B5,203.0,0.25,54,44.39
1618,D3,203.0,0.25,36,44.39
1619,A5,203.25,123/500,48,44.39
1620,D4,203.25,119/500,28,44.39
1621,C4,203.25,119/500,28,44.39
1622,A5,203.5,0.25,48,44.39
1623,D4,203.5,119/500,28,44.39
1624,C4,203.5,119/500,28,44.39
1625,F#5,203.75,0.25,48,44.39
1626,D4,203.75,119/500,28,44.39
1627,C4,203.75,119/500,28,44.39
1628,G4,204.0,0.25,42,44.39
1629,G5,204.0,0.25,42,44.39
1630,D4,204.0,0.5,30,44.39
1631,B3,204.0,0.5,30,44.39
1632,G3,204.0,0.5,30,44.39
1633,B4,204.25,0.25,43,44.39
1634,B5,204.25,0.25,43,44.39
1635,D5,204.5,0.125,46,44.39
1636,D6,204.5,0.125,46,44.39
1637,D3,204.5,0.5,30,44.39
1638,F#3,204.5,0.5,30,44.39
1639,C4,204.5,0.5,30,44.39
1640,D5,204.75,0.125,43,44.39
1641,D6,204.75,0.125,43,44.39
1642,G4,205.0,0.25,35,44.39
1643,G5,205.0,0.25,35,44.39
1644,B3,205.0,0.5,26,44.39
1645,G3,205.0,0.5,26,44.39
1646,B4,205.25,0.25,31,44.39
1647,B5,205.25,0.25,31,44.39
1648,D5,205.5,0.125,35,44.39
1649,D6,205.5,0.125,35,44.39
1650,D3,205.5,0.5,26,44.39
1651,F#3,205.5,0.5,26,44.39
1652,C4,205.5,0.5,26,44.39
1653,D5,205.75,0.125,30,44.39
1654,D6,205.75,0.125,30,44.39
1655,D5,206.0,1.0,35,44.39
1656,D6,206.0,1.0,35,44.39
1657,G3,206.0,1.5,26,44.39
1658,B3,206.0,1.5,26,44.39
1659,G4,207.0,0.5,28,44.39
1660,G5,207.0,0.5,28,44.39
