,note_name,start_time,duration,velocity,tempo
0,C#4,0.0,0.125,64,113.0
1,E4,0.125,0.125,64,113.0
2,A4,0.25,1.75,76,113.0
3,A2,0.25,1.75,64,113.0
4,A3,0.25,1.75,64,113.0
5,E4,2.0,1.0,70,113.0
6,E2,2.0,1.0,58,113.0
7,E3,2.0,1.0,58,113.0
8,C#5,3.0,0.5,72,113.0
9,C#3,3.0,1.0,52,113.0
10,C#4,3.0,1.0,52,113.0
11,D5,3.5,0.25,74,113.0
12,B4,3.75,0.25,70,113.0
13,A4,4.0,0.5,70,113.0
14,A2,4.0,0.5,49,113.0
15,A3,4.0,0.5,49,113.0
16,C#5,6.0,0.5,50,113.0
17,D5,6.5,0.25,52,113.0
18,B4,6.75,0.25,46,113.0
19,A4,7.0,1.0,49,113.0
20,C#6,8.0,0.5,57,113.0
21,A3,8.0,0.5,40,113.0
22,F#4,8.0,0.5,40,113.0
23,E-5,9.0,1.0,50,113.0
24,B3,9.0,1.0,40,113.0
25,A4,9.0,1.0,40,113.0
26,E5,10.0,1.5,52,113.0
27,E4,10.0,1.0,40,113.0
28,G#4,10.0,1.0,40,113.0
29,F5,11.5,229/500,51,113.0
30,G#5,12.0,0.5,57,113.0
31,F#5,12.5,0.5,56,113.0
32,E5,13.0,0.5,54,113.0
33,D5,13.5,0.5,53,113.0
34,C#5,14.0,0.5,52,113.0
35,B4,14.5,0.5,51,113.0
36,A4,15.0,0.5,51,113.0
37,E3,15.0,0.5,39,113.0
38,G#4,15.5,0.5,46,113.0
39,D4,15.5,0.5,33,113.0
40,E5,16.0,0.5,53,113.0
41,B3,16.0,0.5,33,113.0
42,D5,16.5,0.5,51,113.0
43,D4,16.5,0.5,28,113.0
44,B3,17.0,0.5,31,113.0
45,D4,17.5,0.5,29,113.0
46,B4,18.0,0.5,57,113.0
47,E3,18.0,0.5,40,113.0
48,A4,18.5,0.5,53,113.0
49,C#4,18.5,0.5,34,113.0
50,F#5,19.0,0.5,57,113.0
51,A3,19.0,0.5,34,113.0
52,E5,19.5,0.5,56,113.0
53,C#4,19.5,0.5,30,113.0
54,A3,20.0,0.5,32,113.0
55,C#4,20.5,0.5,28,113.0
56,C#5,21.0,0.5,63,113.0
57,D3,21.0,0.5,42,113.0
58,B4,21.5,0.5,59,113.0
59,B3,21.5,0.5,36,113.0
60,G5,22.0,0.5,62,113.0
61,F#3,22.0,0.5,36,113.0
62,F#5,22.5,0.5,59,113.0
63,B3,22.5,0.5,34,113.0
64,F#3,23.0,0.5,36,113.0
65,B3,23.5,0.5,34,113.0
66,F#4,24.0,1.0,51,113.0
67,D3,24.0,1.0,39,113.0
68,E5,25.0,0.5,53,113.0
69,D5,25.5,0.5,51,113.0
70,C#5,26.0,0.5,51,113.0
71,B4,26.5,0.5,49,113.0
72,A4,27.0,0.5,51,113.0
73,E3,27.0,1.0,36,113.0
74,D4,27.0,1.0,36,113.0
75,G#4,27.5,0.5,48,113.0
76,A4,28.0,1.0,51,113.0
77,A3,28.0,1.0,36,113.0
78,C#4,28.0,1.0,36,113.0
79,B4,29.625,0.125,68,113.0
80,E5,29.75,0.125,71,113.0
81,G#5,29.875,0.125,74,113.0
82,B5,30.0,3.0,77,113.0
83,E3,30.0,0.5,60,113.0
84,G#3,30.5,0.5,52,113.0
85,B3,31.0,0.5,56,113.0
86,G#3,31.5,0.5,52,113.0
87,F#3,32.0,0.5,56,113.0
88,E3,32.5,0.5,51,113.0
89,B5,33.0,0.25,73,113.0
90,E-3,33.0,0.5,60,113.0
91,A5,33.25,0.25,72,113.0
92,G#5,33.5,0.25,71,113.0
93,E3,33.5,0.5,50,113.0
94,F#5,33.75,233/1000,70,113.0
95,F#5,34.0,0.25,72,113.0
96,F#3,34.0,0.5,50,113.0
97,E5,34.25,0.25,71,113.0
98,E-5,34.5,0.25,69,113.0
99,B2,34.5,0.5,51,113.0
100,C#5,34.75,0.25,68,113.0
101,B4,35.0,0.25,70,113.0
102,C#3,35.0,0.5,54,113.0
103,A4,35.25,0.25,67,113.0
104,G#4,35.5,0.25,67,113.0
105,E-3,35.5,0.5,51,113.0
106,A4,35.75,0.25,67,113.0
107,G#4,36.0,0.25,67,113.0
108,E3,36.0,0.5,60,113.0
109,B4,36.25,0.25,69,113.0
110,E5,36.5,0.25,70,113.0
111,G#3,36.5,0.5,52,113.0
112,G#5,36.75,0.25,72,113.0
113,B5,37.0,2.0,73,113.0
114,B3,37.0,0.5,52,113.0
115,G#3,37.5,0.5,52,113.0
116,F#3,38.0,0.5,55,113.0
117,E3,38.5,0.5,52,113.0
118,B5,39.0,0.25,73,113.0
119,E-3,39.0,0.5,60,113.0
120,A5,39.25,0.25,72,113.0
121,G#5,39.5,0.25,71,113.0
122,E3,39.5,0.5,50,113.0
123,F#5,39.75,6/25,70,113.0
124,F#5,40.0,0.25,72,113.0
125,F#3,40.0,0.5,50,113.0
126,E5,40.25,0.25,71,113.0
127,E-5,40.5,0.25,69,113.0
128,B2,40.5,0.5,51,113.0
129,C#5,40.75,0.25,68,113.0
130,B4,41.0,0.25,70,113.0
131,C#3,41.0,0.5,54,113.0
132,A4,41.25,0.25,67,113.0
133,G#4,41.5,0.25,67,113.0
134,E-3,41.5,0.5,51,113.0
135,A4,41.75,0.25,67,113.0
136,G#4,42.0,0.25,67,113.0
137,E3,42.0,1.0,60,113.0
138,B4,42.25,0.25,64,113.0
139,A4,42.5,0.25,70,113.0
140,G#4,42.75,0.25,64,113.0
141,A4,42.985,0.25,68,113.0
142,B4,43.25,0.25,68,113.0
143,C#5,43.5,0.25,69,113.0
144,E-5,43.75,0.25,70,113.0
145,E5,44.0,0.25,70,113.0
146,F#5,44.25,0.25,71,113.0
147,G#5,44.5,0.25,72,113.0
148,A5,44.75,0.25,72,113.0
149,B5,45.0,0.25,73,113.0
150,C#6,45.25,0.25,74,113.0
151,E-6,45.5,0.25,74,113.0
152,E6,45.75,0.25,75,113.0
153,E-6,46.0,0.25,72,113.0
154,C#6,46.25,0.25,70,113.0
155,B5,46.5,0.25,68,113.0
156,A5,46.75,0.25,65,113.0
157,G#5,47.0,0.25,63,113.0
158,F#5,47.25,0.25,61,113.0
159,E5,47.5,0.25,59,113.0
160,E-5,47.75,0.25,57,113.0
161,C#5,48.0,0.5,50,113.0
162,A3,48.0,1.0,42,113.0
163,F#4,48.0,1.0,42,113.0
164,C#6,48.75,0.25,50,113.0
165,E5,49.0,0.875,54,113.0
166,B3,49.0,2.0,33,113.0
167,G#4,49.0,1.0,39,113.0
168,G#5,49.875,0.125,50,113.0
169,A4,50.0,1.0,39,113.0
170,E-5,50.0,1.0,53,113.0
171,F#5,50.0,1.0,53,113.0
172,E5,51.0,1.0,51,113.0
173,E4,51.0,1.0,38,113.0
174,G#4,51.0,1.0,38,113.0
175,E3,51.946,1.0,35,113.0
176,C#4,54.0,0.125,64,113.0
177,E4,54.125,0.125,64,113.0
178,A4,54.25,1.75,76,113.0
179,A2,54.25,1.75,64,113.0
180,A3,54.25,1.75,64,113.0
181,E4,56.0,1.0,70,113.0
182,E2,56.0,1.0,58,113.0
183,E3,56.0,1.0,58,113.0
184,C#5,57.0,0.5,72,113.0
185,C#3,57.0,1.0,52,113.0
186,C#4,57.0,1.0,52,113.0
187,D5,57.5,0.25,74,113.0
188,B4,57.75,0.25,70,113.0
189,A4,58.0,0.5,70,113.0
190,A2,58.0,0.5,49,113.0
191,A3,58.0,0.5,49,113.0
192,C#5,60.0,0.5,50,113.0
193,D5,60.5,0.25,52,113.0
194,B4,60.75,0.25,46,113.0
195,A4,61.0,1.0,49,113.0
196,C#6,62.0,0.5,57,113.0
197,A3,62.0,0.5,40,113.0
198,F#4,62.0,0.5,40,113.0
199,E-5,63.0,1.0,50,113.0
200,B3,63.0,1.0,40,113.0
201,A4,63.0,1.0,40,113.0
202,E5,64.0,1.5,52,113.0
203,E4,64.0,1.0,40,113.0
204,G#4,64.0,1.0,40,113.0
205,F5,65.5,229/500,51,113.0
206,G#5,66.0,0.5,57,113.0
207,F#5,66.5,0.5,56,113.0
208,E5,67.0,0.5,54,113.0
209,D5,67.5,0.5,53,113.0
210,C#5,68.0,0.5,52,113.0
211,B4,68.5,0.5,51,113.0
212,A4,69.0,0.5,51,113.0
213,E3,69.0,0.5,39,113.0
214,G#4,69.5,0.5,46,113.0
215,D4,69.5,0.5,33,113.0
216,E5,70.0,0.5,53,113.0
217,B3,70.0,0.5,33,113.0
218,D5,70.5,0.5,51,113.0
219,D4,70.5,0.5,28,113.0
220,B3,71.0,0.5,31,113.0
221,D4,71.5,0.5,29,113.0
222,B4,72.0,0.5,57,113.0
223,E3,72.0,0.5,40,113.0
224,A4,72.5,0.5,53,113.0
225,C#4,72.5,0.5,34,113.0
226,F#5,73.0,0.5,57,113.0
227,A3,73.0,0.5,34,113.0
228,E5,73.5,0.5,56,113.0
229,C#4,73.5,0.5,30,113.0
230,A3,74.0,0.5,32,113.0
231,C#4,74.5,0.5,28,113.0
232,C#5,75.0,0.5,63,113.0
233,D3,75.0,0.5,42,113.0
234,B4,75.5,0.5,59,113.0
235,B3,75.5,0.5,36,113.0
236,G5,76.0,0.5,62,113.0
237,F#3,76.0,0.5,36,113.0
238,F#5,76.5,0.5,59,113.0
239,B3,76.5,0.5,34,113.0
240,F#3,77.0,0.5,36,113.0
241,B3,77.5,0.5,34,113.0
242,F#4,78.0,1.0,51,113.0
243,D3,78.0,1.0,39,113.0
244,E5,79.0,0.5,53,113.0
245,D5,79.5,0.5,51,113.0
246,C#5,80.0,0.5,51,113.0
247,B4,80.5,0.5,49,113.0
248,A4,81.0,0.5,51,113.0
249,E3,81.0,1.0,36,113.0
250,D4,81.0,1.0,36,113.0
251,G#4,81.5,0.5,48,113.0
252,A4,82.0,1.0,51,113.0
253,A3,82.0,1.0,36,113.0
254,C#4,82.0,1.0,36,113.0
255,B4,83.625,0.125,68,113.0
256,E5,83.75,0.125,71,113.0
257,G#5,83.875,0.125,74,113.0
258,B5,84.0,3.0,77,113.0
259,E3,84.0,0.5,60,113.0
260,G#3,84.5,0.5,52,113.0
261,B3,85.0,0.5,56,113.0
262,G#3,85.5,0.5,52,113.0
263,F#3,86.0,0.5,56,113.0
264,E3,86.5,0.5,51,113.0
265,B5,87.0,0.25,73,113.0
266,E-3,87.0,0.5,60,113.0
267,A5,87.25,0.25,72,113.0
268,G#5,87.5,0.25,71,113.0
269,E3,87.5,0.5,50,113.0
270,F#5,87.75,0.25,70,113.0
271,F#5,88.0,121/500,72,113.0
272,F#3,88.0,0.5,50,113.0
273,E5,88.25,0.25,71,113.0
274,E-5,88.5,0.25,69,113.0
275,B2,88.5,0.5,51,113.0
276,C#5,88.75,0.25,68,113.0
277,B4,89.0,0.25,70,113.0
278,C#3,89.0,0.5,54,113.0
279,A4,89.25,0.25,67,113.0
280,G#4,89.5,0.25,67,113.0
281,E-3,89.5,0.5,51,113.0
282,A4,89.75,0.25,67,113.0
283,G#4,90.0,0.25,67,113.0
284,E3,90.0,0.5,60,113.0
285,B4,90.25,0.25,69,113.0
286,E5,90.5,0.25,70,113.0
287,G#3,90.5,0.5,52,113.0
288,G#5,90.75,0.25,72,113.0
289,B5,91.0,2.0,73,113.0
290,B3,91.0,0.5,52,113.0
291,G#3,91.5,0.5,52,113.0
292,F#3,92.0,0.5,55,113.0
293,E3,92.5,0.5,52,113.0
294,B5,93.0,0.25,73,113.0
295,E-3,93.0,0.5,60,113.0
296,A5,93.25,0.25,72,113.0
297,G#5,93.5,0.25,71,113.0
298,E3,93.5,0.5,50,113.0
299,F#5,93.75,121/500,70,113.0
300,F#5,94.0,0.25,72,113.0
301,F#3,94.0,0.5,50,113.0
302,E5,94.25,0.25,71,113.0
303,E-5,94.5,0.25,69,113.0
304,B2,94.5,0.5,51,113.0
305,C#5,94.75,0.25,68,113.0
306,B4,95.0,0.25,70,113.0
307,C#3,95.0,0.5,54,113.0
308,A4,95.25,0.25,67,113.0
309,G#4,95.5,0.25,67,113.0
310,E-3,95.5,0.5,51,113.0
311,A4,95.75,0.25,67,113.0
312,G#4,96.0,0.25,67,113.0
313,E3,96.0,1.0,60,113.0
314,B4,96.25,0.25,64,113.0
315,A4,96.5,0.25,70,113.0
316,G#4,96.75,0.25,64,113.0
317,A4,96.985,0.25,68,113.0
318,B4,97.25,0.25,68,113.0
319,C#5,97.5,0.25,69,113.0
320,E-5,97.75,0.25,70,113.0
321,E5,98.0,0.25,70,113.0
322,F#5,98.25,0.25,71,113.0
323,G#5,98.5,0.25,72,113.0
324,A5,98.75,0.25,72,113.0
325,B5,99.0,0.25,73,113.0
326,C#6,99.25,0.25,74,113.0
327,E-6,99.5,0.25,74,113.0
328,E6,99.75,0.25,75,113.0
329,E-6,100.0,0.25,72,113.0
330,C#6,100.25,0.25,70,113.0
331,B5,100.5,0.25,68,113.0
332,A5,100.75,0.25,65,113.0
333,G#5,101.0,0.25,63,113.0
334,F#5,101.25,0.25,61,113.0
335,E5,101.5,0.25,59,113.0
336,E-5,101.75,0.25,57,113.0
337,C#5,102.0,0.5,50,113.0
338,A3,102.0,1.0,42,113.0
339,F#4,102.0,1.0,42,113.0
340,C#6,102.75,0.25,50,113.0
341,E5,103.0,0.875,54,113.0
342,B3,103.0,2.0,33,113.0
343,G#4,103.0,1.0,39,113.0
344,G#5,103.875,0.125,50,113.0
345,A4,104.0,1.0,39,113.0
346,E-5,104.0,1.0,53,113.0
347,F#5,104.0,1.0,53,113.0
348,E5,105.0,1.0,51,113.0
349,E4,105.0,1.0,38,113.0
350,G#4,105.0,1.0,38,113.0
351,E3,105.946,1.0,35,113.0
352,E4,107.875,0.125,61,113.0
353,E5,108.0,0.875,74,113.0
354,E4,108.0,0.125,61,113.0
355,F#4,108.875,0.25,61,113.0
356,F#5,109.0,0.875,70,113.0
357,G4,109.875,0.25,61,113.0
358,G5,110.0,1.0,70,113.0
359,B4,111.0,1.0,56,113.0
360,F#3,111.0,0.5,47,113.0
361,C#4,111.5,0.5,39,113.0
362,B-4,112.0,1.0,52,113.0
363,F#4,112.0,0.5,39,113.0
364,E4,112.5,0.5,39,113.0
365,D4,113.0,0.5,39,113.0
366,C#4,113.5,0.5,39,113.0
367,B-4,113.75,0.25,51,113.0
368,C#5,114.0,1.0,57,113.0
369,F#3,114.0,0.5,47,113.0
370,D4,114.5,0.5,42,113.0
371,B4,115.0,1.0,56,113.0
372,F#4,115.0,0.5,42,113.0
373,D4,115.5,0.5,42,113.0
374,C#4,116.0,0.5,42,113.0
375,B3,116.5,0.5,42,113.0
376,B4,116.75,0.25,63,113.0
377,D5,117.0,1.0,66,113.0
378,F#3,117.0,0.5,56,113.0
379,B-3,117.5,0.5,47,113.0
380,C#5,118.0,1.0,60,113.0
381,E4,118.0,0.5,47,113.0
382,C#4,118.5,0.5,47,113.0
383,B3,119.0,0.5,47,113.0
384,B-3,119.5,0.5,47,113.0
385,C#5,119.75,0.25,68,113.0
386,E5,120.0,0.5,72,113.0
387,B3,120.0,1.0,57,113.0
388,D5,120.5,0.5,68,113.0
389,F5,121.0,0.5,72,113.0
390,E5,121.5,0.5,67,113.0
391,G5,122.0,0.5,70,113.0
392,F5,122.5,0.5,66,113.0
393,A4,123.0,1.0,56,113.0
394,E3,123.0,0.5,47,113.0
395,B3,123.5,0.5,39,113.0
396,G#4,124.0,1.0,52,113.0
397,E4,124.0,0.5,39,113.0
398,D4,124.5,0.5,39,113.0
399,C4,125.0,0.5,39,113.0
400,B3,125.5,0.5,39,113.0
401,G#4,125.75,0.25,51,113.0
402,B4,126.0,1.0,57,113.0
403,E3,126.0,0.5,47,113.0
404,C4,126.5,0.5,42,113.0
405,A4,127.0,1.0,56,113.0
406,E4,127.0,0.5,42,113.0
407,C4,127.5,0.5,42,113.0
408,B3,128.0,0.5,42,113.0
409,A3,128.5,0.5,42,113.0
410,A4,128.75,0.25,63,113.0
411,C5,129.0,1.0,66,113.0
412,E3,129.0,0.5,56,113.0
413,G#3,129.5,0.5,47,113.0
414,B4,130.0,1.0,60,113.0
415,D4,130.0,0.5,47,113.0
416,B3,130.5,0.5,47,113.0
417,A3,131.0,0.5,47,113.0
418,G#3,131.5,0.5,47,113.0
419,B4,131.75,0.25,68,113.0
420,D5,132.0,0.5,72,113.0
421,A3,132.0,2.0,57,113.0
422,C5,132.5,0.5,68,113.0
423,B4,133.0,0.5,72,113.0
424,A4,133.5,0.5,67,113.0
425,A5,134.0,0.375,73,113.0
426,G2,134.0,1.0,69,113.0
427,G3,134.0,1.0,69,113.0
428,A5,134.5,0.375,70,113.0
429,B5,135.0,0.5,78,113.0
430,F2,135.0,2.0,72,113.0
431,F3,135.0,2.0,72,113.0
432,A5,135.5,0.5,78,113.0
433,G5,136.0,0.5,77,113.0
434,F5,136.5,0.5,75,113.0
435,E5,137.0,0.5,79,113.0
436,E-5,137.5,0.5,75,113.0
437,C6,138.0,2.0,81,113.0
438,A3,138.0,0.5,61,113.0
439,F3,138.0,3.0,61,113.0
440,G#3,138.5,0.5,42,113.0
441,A3,139.0,0.5,46,113.0
442,C4,139.5,0.5,41,113.0
443,E-5,140.0,1.0,55,113.0
444,B3,140.0,0.5,46,113.0
445,A3,140.5,0.5,41,113.0
446,E5,141.0,1.5,55,113.0
447,E3,141.0,1.0,57,113.0
448,G#3,141.0,1.0,57,113.0
449,F#5,142.5,0.25,57,113.0
450,E5,142.75,0.188,46,113.0
451,E5,143.0,0.25,55,113.0
452,D5,143.25,0.25,53,113.0
453,C#5,143.5,0.25,52,113.0
454,B4,143.75,0.25,51,113.0
455,C#4,144.0,0.125,64,113.0
456,E4,144.125,0.125,64,113.0
457,A4,144.25,1.75,76,113.0
458,A2,144.25,1.75,64,113.0
459,A3,144.25,1.75,64,113.0
460,E4,146.0,1.0,70,113.0
461,E2,146.0,1.0,58,113.0
462,E3,146.0,1.0,58,113.0
463,C#5,147.0,0.5,72,113.0
464,C#3,147.0,1.0,52,113.0
465,C#4,147.0,1.0,52,113.0
466,D5,147.5,0.25,74,113.0
467,B4,147.75,0.25,70,113.0
468,A4,148.0,0.5,70,113.0
469,A2,148.0,0.5,49,113.0
470,A3,148.0,0.5,49,113.0
471,C#5,150.0,0.5,50,113.0
472,D5,150.5,0.25,52,113.0
473,B4,150.75,0.25,46,113.0
474,A4,151.0,1.0,49,113.0
475,C#6,152.0,0.5,57,113.0
476,A3,152.0,0.5,40,113.0
477,F#4,152.0,0.5,40,113.0
478,E-5,153.0,1.0,50,113.0
479,B3,153.0,1.0,40,113.0
480,A4,153.0,1.0,40,113.0
481,E5,154.0,1.5,52,113.0
482,E4,154.0,1.0,40,113.0
483,G#4,154.0,1.0,40,113.0
484,F5,155.5,229/500,51,113.0
485,G#5,156.0,0.5,57,113.0
486,F#5,156.5,0.5,56,113.0
487,E5,157.0,0.5,54,113.0
488,D5,157.5,0.5,53,113.0
489,C#5,158.0,0.5,52,113.0
490,B4,158.5,0.5,51,113.0
491,A4,159.0,0.5,51,113.0
492,E3,159.0,0.5,39,113.0
493,G#4,159.5,0.5,46,113.0
494,D4,159.5,0.5,33,113.0
495,E5,160.0,0.5,53,113.0
496,B3,160.0,0.5,33,113.0
497,D5,160.5,0.5,51,113.0
498,D4,160.5,0.5,28,113.0
499,B3,161.0,0.5,31,113.0
500,D4,161.5,0.5,29,113.0
501,B4,162.0,0.5,57,113.0
502,E3,162.0,0.5,40,113.0
503,A4,162.5,0.5,53,113.0
504,C#4,162.5,0.5,34,113.0
505,F#5,163.0,0.5,57,113.0
506,A3,163.0,0.5,34,113.0
507,E5,163.5,0.5,56,113.0
508,C#4,163.5,0.5,30,113.0
509,A3,164.0,0.5,32,113.0
510,C#4,164.5,0.5,28,113.0
511,B4,165.0,0.5,63,113.0
512,E3,165.0,0.5,42,113.0
513,A4,165.5,0.5,59,113.0
514,C#4,165.5,0.5,36,113.0
515,A5,166.0,0.5,62,113.0
516,A3,166.0,0.5,36,113.0
517,G5,166.5,0.5,59,113.0
518,C#4,166.5,0.5,34,113.0
519,A3,167.0,0.5,36,113.0
520,C#4,167.5,0.5,34,113.0
521,G5,168.0,0.5,55,113.0
522,D3,168.0,1.0,30,113.0
523,A3,168.0,1.0,30,113.0
524,D4,168.0,1.0,30,113.0
525,F#5,168.5,0.5,52,113.0
526,E5,169.0,0.5,51,113.0
527,D5,169.5,0.5,50,113.0
528,C#5,170.0,0.5,49,113.0
529,B4,170.5,0.5,47,113.0
530,E5,171.0,0.25,49,113.0
531,C#3,171.0,0.75,40,113.0
532,F#5,171.25,83/1000,45,113.0
533,E5,171.333,83/1000,45,113.0
534,D5,171.417,83/1000,45,113.0
535,E5,171.5,0.25,51,113.0
536,F#5,171.75,0.25,52,113.0
537,D3,171.75,0.25,33,113.0
538,A4,172.0,1.0,51,113.0
539,E3,172.0,2.0,38,113.0
540,C#4,172.0,1.0,38,113.0
541,G#4,173.0,1.0,48,113.0
542,B3,173.0,1.0,32,113.0
543,A4,173.75,0.125,66,113.0
544,C#5,173.875,0.125,67,113.0
545,E5,174.0,1.0,67,113.0
546,A3,174.0,0.5,54,113.0
547,C#4,174.5,0.5,46,113.0
548,E5,175.0,2.0,69,113.0
549,E4,175.0,0.5,50,113.0
550,C#4,175.5,0.5,46,113.0
551,B3,176.0,0.5,50,113.0
552,A3,176.5,0.5,45,113.0
553,E5,177.0,0.25,65,113.0
554,G#3,177.0,0.5,54,113.0
555,D5,177.25,0.25,64,113.0
556,C#5,177.5,0.25,63,113.0
557,A3,177.5,0.5,45,113.0
558,B4,177.75,227/1000,63,113.0
559,B4,178.0,0.25,64,113.0
560,B3,178.0,0.5,45,113.0
561,A4,178.25,0.25,63,113.0
562,G#4,178.5,0.25,62,113.0
563,E3,178.5,0.5,45,113.0
564,F#4,178.75,0.25,61,113.0
565,E4,179.0,0.25,63,113.0
566,F#3,179.0,0.5,48,113.0
567,D4,179.25,0.25,60,113.0
568,C#4,179.5,0.25,60,113.0
569,G#3,179.5,0.5,45,113.0
570,D4,179.75,0.25,60,113.0
571,C#4,180.0,0.25,60,113.0
572,A3,180.0,0.5,54,113.0
573,E4,180.25,0.25,62,113.0
574,A4,180.5,0.25,63,113.0
575,C#4,180.5,0.5,46,113.0
576,C#5,180.75,0.25,64,113.0
577,E5,181.0,1.5,65,113.0
578,E4,181.0,0.5,46,113.0
579,C#4,181.5,0.5,46,113.0
580,B3,182.0,0.5,49,113.0
581,E6,182.5,123/250,65,113.0
582,A3,182.5,0.5,46,113.0
583,E6,183.0,0.25,70,113.0
584,G#3,183.0,0.5,52,113.0
585,D6,183.25,0.25,70,113.0
586,C#6,183.5,0.25,69,113.0
587,A3,183.5,0.5,44,113.0
588,B5,183.75,6/25,69,113.0
589,B5,184.0,0.25,68,113.0
590,B3,184.0,0.5,51,113.0
591,A5,184.25,0.25,67,113.0
592,G#5,184.5,0.25,67,113.0
593,E3,184.5,0.5,44,113.0
594,F#5,184.75,0.25,66,113.0
595,E5,185.0,0.25,66,113.0
596,F#3,185.0,0.5,50,113.0
597,D5,185.25,0.25,65,113.0
598,C#5,185.5,0.25,65,113.0
599,G#3,185.5,0.5,46,113.0
600,D5,185.75,0.25,64,113.0
601,C#5,186.0,0.25,63,113.0
602,A3,186.0,1.0,51,113.0
603,E5,186.25,0.25,64,113.0
604,D5,186.5,0.25,60,113.0
605,C#5,186.75,0.25,61,113.0
606,D5,187.0,0.25,62,113.0
607,F#3,187.0,1.0,44,113.0
608,A3,187.0,1.0,44,113.0
609,E5,187.25,0.25,63,113.0
610,F#5,187.5,0.25,64,113.0
611,G#5,187.75,0.25,66,113.0
612,A5,188.0,0.25,67,113.0
613,D3,188.0,1.0,47,113.0
614,F#3,188.0,1.0,47,113.0
615,A3,188.0,1.0,47,113.0
616,B5,188.25,0.25,68,113.0
617,C#6,188.5,0.25,70,113.0
618,D6,188.75,0.25,71,113.0
619,E6,189.0,0.25,72,113.0
620,C#3,189.0,1.0,50,113.0
621,E3,189.0,1.0,50,113.0
622,A3,189.0,1.0,50,113.0
623,D6,189.25,0.25,71,113.0
624,C#6,189.5,0.25,69,113.0
625,B5,189.75,0.25,68,113.0
626,A5,190.0,0.25,66,113.0
627,G#5,190.25,0.25,65,113.0
628,F#5,190.5,0.25,63,113.0
629,E5,190.75,0.25,62,113.0
630,D5,191.0,0.25,60,113.0
631,C#5,191.25,0.25,59,113.0
632,B4,191.5,0.25,57,113.0
633,A4,191.75,0.25,56,113.0
634,F#5,192.0,167/1000,59,113.0
635,D3,192.0,1.0,42,113.0
636,B3,192.0,1.0,42,113.0
637,G#5,192.167,167/1000,55,113.0
638,F#5,192.333,167/1000,59,113.0
639,F5,192.5,0.125,59,113.0
640,F#5,192.625,0.125,55,113.0
641,G#5,192.75,0.125,55,113.0
642,A5,192.875,0.125,55,113.0
643,A4,193.0,0.875,59,113.0
644,E3,193.0,2.0,33,113.0
645,C#4,193.0,1.0,39,113.0
646,C#5,193.875,0.125,50,113.0
647,D4,194.0,1.0,39,113.0
648,G#4,194.0,1.0,53,113.0
649,B4,194.0,1.0,53,113.0
650,A4,195.0,1.0,51,113.0
651,A3,195.0,1.0,38,113.0
652,C#4,195.0,1.0,38,113.0
653,A2,196.0,1.0,35,113.0
654,E4,197.875,0.125,61,113.0
655,E5,198.0,0.875,74,113.0
656,E4,198.0,0.125,61,113.0
657,F#4,198.875,0.25,61,113.0
658,F#5,199.0,0.875,70,113.0
659,G4,199.875,0.25,61,113.0
660,G5,200.0,1.0,70,113.0
661,B4,201.0,1.0,56,113.0
662,F#3,201.0,0.5,47,113.0
663,C#4,201.5,0.5,39,113.0
664,B-4,202.0,1.0,52,113.0
665,F#4,202.0,0.5,39,113.0
666,E4,202.5,0.5,39,113.0
667,D4,203.0,0.5,39,113.0
668,C#4,203.5,0.5,39,113.0
669,B-4,203.75,0.25,51,113.0
670,C#5,204.0,1.0,57,113.0
671,F#3,204.0,0.5,47,113.0
672,D4,204.5,0.5,42,113.0
673,B4,205.0,1.0,56,113.0
674,F#4,205.0,0.5,42,113.0
675,D4,205.5,0.5,42,113.0
676,C#4,206.0,0.5,42,113.0
677,B3,206.5,0.5,42,113.0
678,B4,206.75,0.25,63,113.0
679,D5,207.0,1.0,66,113.0
680,F#3,207.0,0.5,56,113.0
681,B-3,207.5,0.5,47,113.0
682,C#5,208.0,1.0,60,113.0
683,E4,208.0,0.5,47,113.0
684,C#4,208.5,0.5,47,113.0
685,B3,209.0,0.5,47,113.0
686,B-3,209.5,0.5,47,113.0
687,C#5,209.75,0.25,68,113.0
688,E5,210.0,0.5,72,113.0
689,B3,210.0,1.0,57,113.0
690,D5,210.5,0.5,68,113.0
691,F5,211.0,0.5,72,113.0
692,E5,211.5,0.5,67,113.0
693,G5,212.0,0.5,70,113.0
694,F5,212.5,0.5,66,113.0
695,A4,213.0,1.0,56,113.0
696,E3,213.0,0.5,47,113.0
697,B3,213.5,0.5,39,113.0
698,G#4,214.0,1.0,52,113.0
699,E4,214.0,0.5,39,113.0
700,D4,214.5,0.5,39,113.0
701,C4,215.0,0.5,39,113.0
702,B3,215.5,0.5,39,113.0
703,G#4,215.75,0.25,51,113.0
704,B4,216.0,1.0,57,113.0
705,E3,216.0,0.5,47,113.0
706,C4,216.5,0.5,42,113.0
707,A4,217.0,1.0,56,113.0
708,E4,217.0,0.5,42,113.0
709,C4,217.5,0.5,42,113.0
710,B3,218.0,0.5,42,113.0
711,A3,218.5,0.5,42,113.0
712,A4,218.75,0.25,63,113.0
713,C5,219.0,1.0,66,113.0
714,E3,219.0,0.5,56,113.0
715,G#3,219.5,0.5,47,113.0
716,B4,220.0,1.0,60,113.0
717,D4,220.0,0.5,47,113.0
718,B3,220.5,0.5,47,113.0
719,A3,221.0,0.5,47,113.0
720,G#3,221.5,0.5,47,113.0
721,B4,221.75,0.25,68,113.0
722,D5,222.0,0.5,72,113.0
723,A3,222.0,2.0,57,113.0
724,C5,222.5,0.5,68,113.0
725,B4,223.0,0.5,72,113.0
726,A4,223.5,0.5,67,113.0
727,A5,224.0,0.375,73,113.0
728,G2,224.0,1.0,69,113.0
729,G3,224.0,1.0,69,113.0
730,A5,224.5,0.375,70,113.0
731,B5,225.0,0.5,78,113.0
732,F2,225.0,2.0,72,113.0
733,F3,225.0,2.0,72,113.0
734,A5,225.5,0.5,78,113.0
735,G5,226.0,0.5,77,113.0
736,F5,226.5,0.5,75,113.0
737,E5,227.0,0.5,79,113.0
738,E-5,227.5,0.5,75,113.0
739,C6,228.0,2.0,81,113.0
740,A3,228.0,0.5,61,113.0
741,F3,228.0,3.0,61,113.0
742,G#3,228.5,0.5,42,113.0
743,A3,229.0,0.5,46,113.0
744,C4,229.5,0.5,41,113.0
745,E-5,230.0,1.0,55,113.0
746,B3,230.0,0.5,46,113.0
747,A3,230.5,0.5,41,113.0
748,E5,231.0,1.5,55,113.0
749,E3,231.0,1.0,57,113.0
750,G#3,231.0,1.0,57,113.0
751,F#5,232.5,0.25,57,113.0
752,E5,232.75,119/500,46,113.0
753,E5,233.0,0.25,55,113.0
754,D5,233.25,0.25,53,113.0
755,C#5,233.5,0.25,52,113.0
756,B4,233.75,0.25,51,113.0
757,C#4,234.0,0.125,64,113.0
758,E4,234.125,0.125,64,113.0
759,A4,234.25,1.75,76,113.0
760,A2,234.25,1.75,64,113.0
761,A3,234.25,1.75,64,113.0
762,E4,236.0,1.0,70,113.0
763,E2,236.0,1.0,58,113.0
764,E3,236.0,1.0,58,113.0
765,C#5,237.0,0.5,72,113.0
766,C#3,237.0,1.0,52,113.0
767,C#4,237.0,1.0,52,113.0
768,D5,237.5,0.25,74,113.0
769,B4,237.75,0.25,70,113.0
770,A4,238.0,0.5,70,113.0
771,A2,238.0,0.5,49,113.0
772,A3,238.0,0.5,49,113.0
773,C#5,240.0,0.5,50,113.0
774,D5,240.5,0.25,52,113.0
775,B4,240.75,0.25,46,113.0
776,A4,241.0,1.0,49,113.0
777,C#6,242.0,0.5,57,113.0
778,A3,242.0,0.5,40,113.0
779,F#4,242.0,0.5,40,113.0
780,E-5,243.0,1.0,50,113.0
781,B3,243.0,1.0,40,113.0
782,A4,243.0,1.0,40,113.0
783,E5,244.0,1.5,52,113.0
784,E4,244.0,1.0,40,113.0
785,G#4,244.0,1.0,40,113.0
786,F5,245.5,229/500,51,113.0
787,G#5,246.0,0.5,57,113.0
788,F#5,246.5,0.5,56,113.0
789,E5,247.0,0.5,54,113.0
790,D5,247.5,0.5,53,113.0
791,C#5,248.0,0.5,52,113.0
792,B4,248.5,0.5,51,113.0
793,A4,249.0,0.5,51,113.0
794,E3,249.0,0.5,39,113.0
795,G#4,249.5,0.5,46,113.0
796,D4,249.5,0.5,33,113.0
797,E5,250.0,0.5,53,113.0
798,B3,250.0,0.5,33,113.0
799,D5,250.5,0.5,51,113.0
800,D4,250.5,0.5,28,113.0
801,B3,251.0,0.5,31,113.0
802,D4,251.5,0.5,29,113.0
803,B4,252.0,0.5,57,113.0
804,E3,252.0,0.5,40,113.0
805,A4,252.5,0.5,53,113.0
806,C#4,252.5,0.5,34,113.0
807,F#5,253.0,0.5,57,113.0
808,A3,253.0,0.5,34,113.0
809,E5,253.5,0.5,56,113.0
810,C#4,253.5,0.5,30,113.0
811,A3,254.0,0.5,32,113.0
812,C#4,254.5,0.5,28,113.0
813,B4,255.0,0.5,63,113.0
814,E3,255.0,0.5,42,113.0
815,A4,255.5,0.5,59,113.0
816,C#4,255.5,0.5,36,113.0
817,A5,256.0,0.5,62,113.0
818,A3,256.0,0.5,36,113.0
819,G5,256.5,0.5,59,113.0
820,C#4,256.5,0.5,34,113.0
821,A3,257.0,0.5,36,113.0
822,C#4,257.5,0.5,34,113.0
823,G5,258.0,0.5,55,113.0
824,D3,258.0,1.0,30,113.0
825,A3,258.0,1.0,30,113.0
826,D4,258.0,1.0,30,113.0
827,F#5,258.5,0.5,52,113.0
828,E5,259.0,0.5,51,113.0
829,D5,259.5,0.5,50,113.0
830,C#5,260.0,0.5,49,113.0
831,B4,260.5,0.5,47,113.0
832,E5,261.0,0.25,49,113.0
833,C#3,261.0,0.75,40,113.0
834,F#5,261.25,83/1000,45,113.0
835,E5,261.333,83/1000,45,113.0
836,D5,261.417,83/1000,45,113.0
837,E5,261.5,0.25,51,113.0
838,F#5,261.75,0.25,52,113.0
839,D3,261.75,0.25,33,113.0
840,A4,262.0,1.0,51,113.0
841,E3,262.0,2.0,38,113.0
842,C#4,262.0,1.0,38,113.0
843,G#4,263.0,1.0,48,113.0
844,B3,263.0,1.0,32,113.0
845,A4,263.75,0.125,66,113.0
846,C#5,263.875,0.125,67,113.0
847,E5,264.0,1.0,67,113.0
848,A3,264.0,0.5,54,113.0
849,C#4,264.5,0.5,46,113.0
850,E5,265.0,2.0,69,113.0
851,E4,265.0,0.5,50,113.0
852,C#4,265.5,0.5,46,113.0
853,B3,266.0,0.5,50,113.0
854,A3,266.5,0.5,45,113.0
855,E5,267.0,0.25,65,113.0
856,G#3,267.0,0.5,54,113.0
857,D5,267.25,0.25,64,113.0
858,C#5,267.5,0.25,63,113.0
859,A3,267.5,0.5,45,113.0
860,B4,267.75,227/1000,63,113.0
861,B4,268.0,0.25,64,113.0
862,B3,268.0,0.5,45,113.0
863,A4,268.25,0.25,63,113.0
864,G#4,268.5,0.25,62,113.0
865,E3,268.5,0.5,45,113.0
866,F#4,268.75,0.25,61,113.0
867,E4,269.0,0.25,63,113.0
868,F#3,269.0,0.5,48,113.0
869,D4,269.25,0.25,60,113.0
870,C#4,269.5,0.25,60,113.0
871,G#3,269.5,0.5,45,113.0
872,D4,269.75,0.25,60,113.0
873,C#4,270.0,0.25,60,113.0
874,A3,270.0,0.5,54,113.0
875,E4,270.25,0.25,62,113.0
876,A4,270.5,0.25,63,113.0
877,C#4,270.5,0.5,46,113.0
878,C#5,270.75,0.25,64,113.0
879,E5,271.0,1.5,65,113.0
880,E4,271.0,0.5,46,113.0
881,C#4,271.5,0.5,46,113.0
882,B3,272.0,0.5,49,113.0
883,E6,272.5,49/100,65,113.0
884,A3,272.5,0.5,46,113.0
885,E6,273.0,0.25,70,113.0
886,G#3,273.0,0.5,52,113.0
887,D6,273.25,0.25,70,113.0
888,C#6,273.5,0.25,69,113.0
889,A3,273.5,0.5,44,113.0
890,B5,273.75,229/1000,69,113.0
891,B5,274.0,0.25,68,113.0
892,B3,274.0,0.5,51,113.0
893,A5,274.25,0.25,67,113.0
894,G#5,274.5,0.25,67,113.0
895,E3,274.5,0.5,44,113.0
896,F#5,274.75,0.25,66,113.0
897,E5,275.0,0.25,66,113.0
898,F#3,275.0,0.5,50,113.0
899,D5,275.25,0.25,65,113.0
900,C#5,275.5,0.25,65,113.0
901,G#3,275.5,0.5,46,113.0
902,D5,275.75,0.25,64,113.0
903,C#5,276.0,0.25,63,113.0
904,A3,276.0,1.0,51,113.0
905,E5,276.25,0.25,64,113.0
906,D5,276.5,0.25,60,113.0
907,C#5,276.75,0.25,61,113.0
908,D5,277.0,0.25,62,113.0
909,F#3,277.0,1.0,44,113.0
910,A3,277.0,1.0,44,113.0
911,E5,277.25,0.25,63,113.0
912,F#5,277.5,0.25,64,113.0
913,G#5,277.75,0.25,66,113.0
914,A5,278.0,0.25,67,113.0
915,D3,278.0,1.0,47,113.0
916,F#3,278.0,1.0,47,113.0
917,A3,278.0,1.0,47,113.0
918,B5,278.25,0.25,68,113.0
919,C#6,278.5,0.25,70,113.0
920,D6,278.75,0.25,71,113.0
921,E6,279.0,0.25,72,113.0
922,C#3,279.0,1.0,50,113.0
923,E3,279.0,1.0,50,113.0
924,A3,279.0,1.0,50,113.0
925,D6,279.25,0.25,71,113.0
926,C#6,279.5,0.25,69,113.0
927,B5,279.75,0.25,68,113.0
928,A5,280.0,0.25,66,113.0
929,G#5,280.25,0.25,65,113.0
930,F#5,280.5,0.25,63,113.0
931,E5,280.75,0.25,62,113.0
932,D5,281.0,0.25,60,113.0
933,C#5,281.25,0.25,59,113.0
934,B4,281.5,0.25,57,113.0
935,A4,281.75,0.25,56,113.0
936,F#5,282.0,167/1000,59,113.0
937,D3,282.0,1.0,42,113.0
938,B3,282.0,1.0,42,113.0
939,G#5,282.167,167/1000,55,113.0
940,F#5,282.333,167/1000,59,113.0
941,F5,282.5,0.125,59,113.0
942,F#5,282.625,0.125,55,113.0
943,G#5,282.75,0.125,55,113.0
944,A5,282.875,0.125,55,113.0
945,A4,283.0,0.875,59,113.0
946,E3,283.0,2.0,33,113.0
947,C#4,283.0,1.0,39,113.0
948,C#5,283.875,0.125,50,113.0
949,D4,284.0,1.0,39,113.0
950,B4,284.0,1.0,53,113.0
951,G#4,284.0,1.0,53,113.0
952,A4,285.0,1.0,51,113.0
953,A3,285.0,1.0,38,113.0
954,C#4,285.0,1.0,38,113.0
955,A2,286.0,1.0,35,113.0
956,F#4,291.0,0.5,46,113.0
957,A4,291.0,0.5,46,113.0
958,D2,291.0,3.0,40,113.0
959,D3,291.0,3.0,40,113.0
960,A3,291.5,0.5,45,113.0
961,D4,292.0,0.5,46,113.0
962,F#4,292.0,0.5,46,113.0
963,A3,292.5,0.5,47,113.0
964,E4,293.0,0.5,48,113.0
965,G4,293.0,0.5,48,113.0
966,A3,293.5,0.5,49,113.0
967,A4,294.0,0.5,50,113.0
968,F#4,294.0,0.5,50,113.0
969,A3,294.5,0.5,48,113.0
970,D4,295.0,0.5,46,113.0
971,F#4,295.0,0.5,46,113.0
972,D2,295.0,1.0,40,113.0
973,D3,295.0,1.0,40,113.0
974,C#4,295.5,0.5,43,113.0
975,E4,295.5,0.5,43,113.0
976,D4,296.0,0.5,46,113.0
977,F#4,296.0,0.5,46,113.0
978,E4,296.5,0.5,43,113.0
979,G4,296.5,0.5,43,113.0
980,F#4,297.0,0.5,46,113.0
981,A4,297.0,0.5,46,113.0
982,D4,297.5,0.5,45,113.0
983,G4,298.0,0.5,49,113.0
984,B4,298.0,0.5,49,113.0
985,D4,298.5,0.5,47,113.0
986,G4,299.0,0.5,50,113.0
987,C#5,299.0,0.5,50,113.0
988,E4,299.5,0.5,47,113.0
989,F#4,300.0,0.5,50,113.0
990,D5,300.0,0.5,50,113.0
991,A2,300.0,1.0,38,113.0
992,A3,300.0,1.0,38,113.0
993,A4,300.5,0.5,49,113.0
994,D4,301.0,0.5,46,113.0
995,F#4,301.0,0.5,46,113.0
996,D2,301.0,1.0,38,113.0
997,D3,301.0,1.0,38,113.0
998,C#4,301.5,0.5,43,113.0
999,E4,301.5,0.5,43,113.0
1000,F#5,302.0,0.5,55,113.0
1001,D4,302.0,0.5,46,113.0
1002,F#4,302.0,0.5,46,113.0
1003,E5,302.5,0.5,46,113.0
1004,E4,302.5,0.5,43,113.0
1005,G4,302.5,0.5,43,113.0
1006,F#5,303.0,0.5,54,113.0
1007,F#4,303.0,0.5,46,113.0
1008,A4,303.0,0.5,46,113.0
1009,D4,303.5,0.5,45,113.0
1010,G5,303.5,0.5,47,113.0
1011,A5,304.0,1.0,53,113.0
1012,G4,304.0,0.5,49,113.0
1013,B4,304.0,0.5,49,113.0
1014,D4,304.5,0.5,47,113.0
1015,B5,305.0,1.0,53,113.0
1016,G4,305.0,0.5,50,113.0
1017,C#5,305.0,0.5,50,113.0
1018,E4,305.5,0.5,47,113.0
1019,C#6,306.0,1.0,53,113.0
1020,F#4,306.0,0.5,50,113.0
1021,D5,306.0,0.5,50,113.0
1022,A4,306.5,0.5,49,113.0
1023,D6,307.0,1.0,54,113.0
1024,F#4,307.0,0.5,50,113.0
1025,D5,307.0,0.5,50,113.0
1026,E4,307.5,0.5,45,113.0
1027,C#5,307.5,0.5,45,113.0
1028,D4,308.0,0.5,45,113.0
1029,B4,308.0,0.5,45,113.0
1030,C#4,308.5,0.5,45,113.0
1031,A4,308.5,0.5,45,113.0
1032,B3,309.0,0.5,50,113.0
1033,G#4,309.0,0.5,50,113.0
1034,E4,309.5,0.5,47,113.0
1035,E3,310.0,1.0,41,113.0
1036,C#4,310.0,0.5,47,113.0
1037,A4,310.0,0.5,47,113.0
1038,E4,310.5,0.5,42,113.0
1039,C#3,311.0,1.0,35,113.0
1040,A4,311.0,0.5,48,113.0
1041,C#5,311.0,0.5,48,113.0
1042,E4,311.5,0.5,42,113.0
1043,A2,312.0,1.0,35,113.0
1044,G#4,312.0,0.5,47,113.0
1045,B4,312.0,0.5,47,113.0
1046,E4,312.5,0.5,44,113.0
1047,E3,313.0,1.0,40,113.0
1048,F#4,313.0,0.5,50,113.0
1049,D5,313.0,0.5,50,113.0
1050,E4,313.5,0.5,45,113.0
1051,C#5,313.5,0.5,45,113.0
1052,D6,314.0,0.5,60,113.0
1053,D4,314.0,0.5,45,113.0
1054,B4,314.0,0.5,45,113.0
1055,C#6,314.5,0.5,58,113.0
1056,C#4,314.5,0.5,45,113.0
1057,A4,314.5,0.5,45,113.0
1058,B5,315.0,0.5,56,113.0
1059,B3,315.0,0.5,50,113.0
1060,G#4,315.0,0.5,50,113.0
1061,E4,315.5,0.5,47,113.0
1062,A5,315.5,0.375,56,113.0
1063,E-6,315.875,0.125,54,113.0
1064,E6,316.0,0.875,65,113.0
1065,C#4,316.0,0.5,47,113.0
1066,A4,316.0,0.5,47,113.0
1067,E4,316.5,0.5,42,113.0
1068,E-6,316.875,0.125,54,113.0
1069,E6,317.0,0.875,65,113.0
1070,A4,317.0,0.5,48,113.0
1071,C#5,317.0,0.5,48,113.0
1072,E4,317.5,0.5,42,113.0
1073,E-6,317.875,0.125,54,113.0
1074,E6,318.0,0.875,66,113.0
1075,G#4,318.0,0.5,47,113.0
1076,B4,318.0,0.5,47,113.0
1077,E4,318.5,0.5,44,113.0
1078,E-6,318.875,0.125,54,113.0
1079,E4,319.0,2.0,64,113.0
1080,C#5,319.0,0.5,64,113.0
1081,E6,319.0,1.0,65,113.0
1082,B4,319.5,0.5,59,113.0
1083,C#5,320.0,0.5,61,113.0
1084,A2,320.0,0.5,51,113.0
1085,D5,320.5,0.5,54,113.0
1086,G#2,320.5,0.5,47,113.0
1087,E5,321.0,0.5,66,113.0
1088,E4,321.0,1.0,64,113.0
1089,A2,321.0,0.5,51,113.0
1090,A4,321.5,0.5,59,113.0
1091,B2,321.5,0.5,47,113.0
1092,A4,322.0,1.0,64,113.0
1093,C#5,322.0,0.5,64,113.0
1094,C#3,322.0,1.0,51,113.0
1095,E4,322.5,0.5,58,113.0
1096,G#4,323.0,1.0,64,113.0
1097,B4,323.0,0.5,64,113.0
1098,E3,323.0,1.0,46,113.0
1099,E4,323.5,0.5,58,113.0
1100,A4,324.0,0.5,64,113.0
1101,E2,324.0,1.0,49,113.0
1102,E4,324.5,0.5,58,113.0
1103,A2,325.0,1.0,49,113.0
1104,A4,325.0,0.5,64,113.0
1105,C#5,325.0,0.5,64,113.0
1106,G#4,325.5,0.5,59,113.0
1107,B4,325.5,0.5,59,113.0
1108,C#6,326.0,0.5,58,113.0
1109,A4,326.0,0.5,61,113.0
1110,C#5,326.0,0.5,61,113.0
1111,B5,326.5,0.5,53,113.0
1112,B4,326.5,0.5,54,113.0
1113,D5,326.5,0.5,54,113.0
1114,C#6,327.0,0.5,59,113.0
1115,C#5,327.0,0.5,66,113.0
1116,E5,327.0,0.5,66,113.0
1117,E4,327.5,0.5,59,113.0
1118,D6,327.5,0.5,52,113.0
1119,E6,328.0,1.0,58,113.0
1120,A4,328.0,0.5,64,113.0
1121,C#5,328.0,0.5,64,113.0
1122,E4,328.5,0.5,58,113.0
1123,C#6,329.0,1.0,62,113.0
1124,G#4,329.0,0.5,64,113.0
1125,B4,329.0,0.5,64,113.0
1126,E4,329.5,0.5,58,113.0
1127,A4,330.0,0.5,64,113.0
1128,B5,330.0,1.0,59,113.0
1129,E4,330.5,0.5,58,113.0
1130,F#4,331.0,0.5,61,113.0
1131,A5,331.0,1.0,56,113.0
1132,D5,331.5,0.5,53,113.0
1133,B4,332.0,0.5,61,113.0
1134,D3,332.0,1.0,40,113.0
1135,B3,332.0,1.0,40,113.0
1136,G#4,332.5,0.5,55,113.0
1137,A4,333.0,0.5,59,113.0
1138,D4,333.0,1.0,35,113.0
1139,E3,333.0,1.0,35,113.0
1140,E4,333.5,0.5,50,113.0
1141,F#4,334.0,0.5,56,113.0
1142,C#4,334.0,1.0,40,113.0
1143,A3,334.0,1.0,40,113.0
1144,D5,334.5,0.5,50,113.0
1145,B4,335.0,0.5,57,113.0
1146,D3,335.0,1.0,35,113.0
1147,B3,335.0,1.0,35,113.0
1148,G#4,335.5,0.5,48,113.0
1149,A4,336.0,0.5,52,113.0
1150,D4,336.0,1.0,40,113.0
1151,E3,336.0,1.0,40,113.0
1152,G#4,336.5,0.5,46,113.0
1153,A4,337.0,0.5,52,113.0
1154,A3,337.0,1.0,37,113.0
1155,C#4,337.0,1.0,37,113.0
1156,B4,337.5,0.5,45,113.0
1157,G4,338.0,0.5,48,113.0
1158,E4,338.5,0.5,48,113.0
1159,F#4,339.0,0.5,46,113.0
1160,A4,339.0,0.5,46,113.0
1161,A3,339.5,0.5,45,113.0
1162,D4,340.0,0.5,46,113.0
1163,F#4,340.0,0.5,46,113.0
1164,D2,340.0,3.0,40,113.0
1165,D3,340.0,3.0,40,113.0
1166,A3,340.5,0.5,47,113.0
1167,E4,341.0,0.5,48,113.0
1168,G4,341.0,0.5,48,113.0
1169,A3,341.5,0.5,49,113.0
1170,A4,342.0,0.5,50,113.0
1171,F#4,342.0,0.5,50,113.0
1172,A3,342.5,0.5,48,113.0
1173,D4,343.0,0.5,46,113.0
1174,F#4,343.0,0.5,46,113.0
1175,C#4,343.5,0.5,43,113.0
1176,E4,343.5,0.5,43,113.0
1177,D4,344.0,0.5,46,113.0
1178,F#4,344.0,0.5,46,113.0
1179,D2,344.0,1.0,40,113.0
1180,D3,344.0,1.0,40,113.0
1181,E4,344.5,0.5,43,113.0
1182,G4,344.5,0.5,43,113.0
1183,F#4,345.0,0.5,46,113.0
1184,A4,345.0,0.5,46,113.0
1185,D4,345.5,0.5,45,113.0
1186,G4,346.0,0.5,49,113.0
1187,B4,346.0,0.5,49,113.0
1188,D4,346.5,0.5,47,113.0
1189,G4,347.0,0.5,50,113.0
1190,C#5,347.0,0.5,50,113.0
1191,E4,347.5,0.5,47,113.0
1192,F#4,348.0,0.5,50,113.0
1193,D5,348.0,0.5,50,113.0
1194,A4,348.5,0.5,49,113.0
1195,D4,349.0,0.5,46,113.0
1196,F#4,349.0,0.5,46,113.0
1197,A2,349.0,1.0,38,113.0
1198,A3,349.0,1.0,38,113.0
1199,C#4,349.5,0.5,43,113.0
1200,E4,349.5,0.5,43,113.0
1201,D4,350.0,0.5,46,113.0
1202,F#4,350.0,0.5,46,113.0
1203,D2,350.0,1.0,38,113.0
1204,D3,350.0,1.0,38,113.0
1205,E4,350.5,0.5,43,113.0
1206,G4,350.5,0.5,43,113.0
1207,F#5,351.0,0.5,55,113.0
1208,F#4,351.0,0.5,46,113.0
1209,A4,351.0,0.5,46,113.0
1210,D4,351.5,0.5,45,113.0
1211,E5,351.5,0.5,46,113.0
1212,F#5,352.0,0.5,54,113.0
1213,G4,352.0,0.5,49,113.0
1214,B4,352.0,0.5,49,113.0
1215,D4,352.5,0.5,47,113.0
1216,G5,352.5,0.5,47,113.0
1217,A5,353.0,1.0,53,113.0
1218,G4,353.0,0.5,50,113.0
1219,C#5,353.0,0.5,50,113.0
1220,E4,353.5,0.5,47,113.0
1221,B5,354.0,1.0,53,113.0
1222,F#4,354.0,0.5,50,113.0
1223,D5,354.0,0.5,50,113.0
1224,A4,354.5,0.5,49,113.0
1225,C#6,355.0,1.0,53,113.0
1226,F#4,355.0,0.5,50,113.0
1227,D5,355.0,0.5,50,113.0
1228,E4,355.5,0.5,45,113.0
1229,C#5,355.5,0.5,45,113.0
1230,D6,356.0,1.0,54,113.0
1231,D4,356.0,0.5,45,113.0
1232,B4,356.0,0.5,45,113.0
1233,C#4,356.5,0.5,45,113.0
1234,A4,356.5,0.5,45,113.0
1235,B3,357.0,0.5,50,113.0
1236,G#4,357.0,0.5,50,113.0
1237,E4,357.5,0.5,47,113.0
1238,C#4,358.0,0.5,47,113.0
1239,A4,358.0,0.5,47,113.0
1240,E4,358.5,0.5,42,113.0
1241,E3,359.0,1.0,41,113.0
1242,A4,359.0,0.5,48,113.0
1243,C#5,359.0,0.5,48,113.0
1244,E4,359.5,0.5,42,113.0
1245,C#3,360.0,1.0,35,113.0
1246,G#4,360.0,0.5,47,113.0
1247,B4,360.0,0.5,47,113.0
1248,E4,360.5,0.5,44,113.0
1249,A2,361.0,1.0,35,113.0
1250,F#4,361.0,0.5,50,113.0
1251,D5,361.0,0.5,50,113.0
1252,E4,361.5,0.5,45,113.0
1253,C#5,361.5,0.5,45,113.0
1254,E3,362.0,1.0,40,113.0
1255,D4,362.0,0.5,45,113.0
1256,B4,362.0,0.5,45,113.0
1257,C#4,362.5,0.5,45,113.0
1258,A4,362.5,0.5,45,113.0
1259,D6,363.0,0.5,60,113.0
1260,B3,363.0,0.5,50,113.0
1261,G#4,363.0,0.5,50,113.0
1262,E4,363.5,0.5,47,113.0
1263,C#6,363.5,0.5,58,113.0
1264,B5,364.0,0.5,56,113.0
1265,C#4,364.0,0.5,47,113.0
1266,A4,364.0,0.5,47,113.0
1267,E4,364.5,0.5,42,113.0
1268,A5,364.5,0.375,56,113.0
1269,E-6,364.875,0.125,54,113.0
1270,E6,365.0,0.875,65,113.0
1271,A4,365.0,0.5,48,113.0
1272,C#5,365.0,0.5,48,113.0
1273,E4,365.5,0.5,42,113.0
1274,E-6,365.875,0.125,54,113.0
1275,E6,366.0,0.875,65,113.0
1276,G#4,366.0,0.5,47,113.0
1277,B4,366.0,0.5,47,113.0
1278,E4,366.5,0.5,44,113.0
1279,E-6,366.875,0.125,54,113.0
1280,E4,367.0,2.0,64,113.0
1281,C#5,367.0,0.5,64,113.0
1282,E6,367.0,0.875,66,113.0
1283,B4,367.5,0.5,59,113.0
1284,E-6,367.875,0.125,54,113.0
1285,C#5,368.0,0.5,61,113.0
1286,E6,368.0,1.0,65,113.0
1287,D5,368.5,0.5,54,113.0
1288,E5,369.0,0.5,66,113.0
1289,E4,369.0,1.0,64,113.0
1290,A2,369.0,0.5,51,113.0
1291,A4,369.5,0.5,59,113.0
1292,G#2,369.5,0.5,47,113.0
1293,A4,370.0,1.0,64,113.0
1294,C#5,370.0,0.5,64,113.0
1295,A2,370.0,0.5,51,113.0
1296,E4,370.5,0.5,58,113.0
1297,B2,370.5,0.5,47,113.0
1298,G#4,371.0,1.0,64,113.0
1299,B4,371.0,0.5,64,113.0
1300,C#3,371.0,1.0,51,113.0
1301,E4,371.5,0.5,58,113.0
1302,A4,372.0,0.5,64,113.0
1303,E3,372.0,1.0,46,113.0
1304,E4,372.5,0.5,58,113.0
1305,E2,373.0,1.0,49,113.0
1306,A4,373.0,0.5,64,113.0
1307,C#5,373.0,0.5,64,113.0
1308,G#4,373.5,0.5,59,113.0
1309,B4,373.5,0.5,59,113.0
1310,A2,374.0,1.0,49,113.0
1311,A4,374.0,0.5,61,113.0
1312,C#5,374.0,0.5,61,113.0
1313,B4,374.5,0.5,54,113.0
1314,D5,374.5,0.5,54,113.0
1315,C#6,375.0,0.5,58,113.0
1316,C#5,375.0,0.5,66,113.0
1317,E5,375.0,0.5,66,113.0
1318,E4,375.5,0.5,59,113.0
1319,B5,375.5,0.5,53,113.0
1320,C#6,376.0,0.5,59,113.0
1321,A4,376.0,0.5,64,113.0
1322,C#5,376.0,0.5,64,113.0
1323,E4,376.5,0.5,58,113.0
1324,D6,376.5,0.5,52,113.0
1325,E6,377.0,1.0,58,113.0
1326,G#4,377.0,0.5,64,113.0
1327,B4,377.0,0.5,64,113.0
1328,E4,377.5,0.5,58,113.0
1329,A4,378.0,0.5,64,113.0
1330,C#6,378.0,1.0,62,113.0
1331,E4,378.5,0.5,58,113.0
1332,F#4,379.0,0.5,61,113.0
1333,B5,379.0,1.0,59,113.0
1334,D5,379.5,0.5,53,113.0
1335,B4,380.0,0.5,61,113.0
1336,A5,380.0,1.0,56,113.0
1337,G#4,380.5,0.5,55,113.0
1338,A4,381.0,0.5,59,113.0
1339,D3,381.0,1.0,40,113.0
1340,B3,381.0,1.0,40,113.0
1341,E4,381.5,0.5,50,113.0
1342,F#4,382.0,0.5,56,113.0
1343,D4,382.0,1.0,35,113.0
1344,E3,382.0,1.0,35,113.0
1345,D5,382.5,0.5,50,113.0
1346,B4,383.0,0.5,57,113.0
1347,C#4,383.0,1.0,40,113.0
1348,A3,383.0,1.0,40,113.0
1349,G#4,383.5,0.5,48,113.0
1350,A4,384.0,0.5,52,113.0
1351,D3,384.0,1.0,35,113.0
1352,B3,384.0,1.0,35,113.0
1353,G#4,384.5,0.5,46,113.0
1354,A4,385.0,0.5,52,113.0
1355,D4,385.0,1.0,40,113.0
1356,E3,385.0,1.0,40,113.0
1357,B4,385.5,0.5,45,113.0
1358,G4,386.0,0.5,48,113.0
1359,A3,386.0,1.0,37,113.0
1360,C#4,386.0,1.0,37,113.0
1361,E4,386.5,0.5,48,113.0
1362,F#4,387.0,0.5,46,113.0
1363,A4,387.0,0.5,46,113.0
1364,B3,387.5,0.5,45,113.0
1365,E-4,388.0,0.5,46,113.0
1366,F#4,388.0,0.5,46,113.0
1367,B3,388.5,0.5,47,113.0
1368,E4,389.0,0.5,48,113.0
1369,G4,389.0,0.5,48,113.0
1370,B1,389.0,3.0,40,113.0
1371,B2,389.0,3.0,40,113.0
1372,B3,389.5,0.5,49,113.0
1373,A4,390.0,0.5,50,113.0
1374,F#4,390.0,0.5,50,113.0
1375,B3,390.5,0.5,48,113.0
1376,E-4,391.0,0.5,41,113.0
1377,F#4,391.0,0.5,41,113.0
1378,B3,391.5,0.5,42,113.0
1379,E4,392.0,0.5,42,113.0
1380,G4,392.0,0.5,42,113.0
1381,B3,392.5,0.5,44,113.0
1382,A4,393.0,0.5,44,113.0
1383,F#4,393.0,0.5,44,113.0
1384,B1,393.0,1.0,40,113.0
1385,B2,393.0,1.0,40,113.0
1386,B3,393.5,0.5,43,113.0
1387,C6,394.0,0.5,54,113.0
1388,E-4,394.0,0.5,41,113.0
1389,F#4,394.0,0.5,41,113.0
1390,B3,394.5,0.5,42,113.0
1391,B5,394.5,0.5,50,113.0
1392,A5,395.0,0.5,54,113.0
1393,E4,395.0,0.5,42,113.0
1394,G4,395.0,0.5,42,113.0
1395,B3,395.5,0.5,44,113.0
1396,G5,395.5,0.5,50,113.0
1397,F#5,396.0,1.0,54,113.0
1398,A4,396.0,1.0,44,113.0
1399,F#4,396.0,1.0,44,113.0
1400,A5,397.0,0.5,54,113.0
1401,B4,397.0,9/20,66,113.0
1402,B5,397.0,9/20,66,113.0
1403,G5,397.5,0.5,50,113.0
1404,A4,397.5,9/20,61,113.0
1405,A5,397.5,9/20,61,113.0
1406,F#5,398.0,0.5,55,113.0
1407,G4,398.0,9/20,66,113.0
1408,G5,398.0,9/20,66,113.0
1409,E5,398.5,0.5,50,113.0
1410,F#4,398.5,9/20,62,113.0
1411,F#5,398.5,9/20,62,113.0
1412,E-5,399.0,1.0,54,113.0
1413,E4,399.0,9/10,68,113.0
1414,E5,399.0,9/10,68,113.0
1415,E4,400.0,9/10,66,113.0
1416,E5,400.0,9/10,66,113.0
1417,B2,400.0,9/20,54,113.0
1418,B3,400.0,9/20,54,113.0
1419,A2,400.5,9/20,50,113.0
1420,A3,400.5,9/20,50,113.0
1421,B4,401.0,9/10,67,113.0
1422,B5,401.0,9/10,67,113.0
1423,G2,401.0,9/20,54,113.0
1424,G3,401.0,9/20,54,113.0
1425,F#2,401.5,9/20,50,113.0
1426,F#3,401.5,9/20,50,113.0
1427,E4,402.0,9/10,66,113.0
1428,E5,402.0,9/10,66,113.0
1429,E2,402.0,9/10,55,113.0
1430,E3,402.0,9/10,55,113.0
1431,B4,403.0,9/20,66,113.0
1432,B5,403.0,9/20,66,113.0
1433,E2,403.0,9/10,50,113.0
1434,E3,403.0,9/10,50,113.0
1435,A4,403.5,9/20,61,113.0
1436,A5,403.5,9/20,61,113.0
1437,G4,404.0,9/20,66,113.0
1438,G5,404.0,9/20,66,113.0
1439,B2,404.0,9/10,55,113.0
1440,B3,404.0,9/10,55,113.0
1441,F#4,404.5,9/20,62,113.0
1442,F#5,404.5,9/20,62,113.0
1443,E4,405.0,9/10,68,113.0
1444,E5,405.0,9/10,68,113.0
1445,E2,405.0,9/10,50,113.0
1446,E3,405.0,9/10,50,113.0
1447,E4,406.0,9/10,66,113.0
1448,E5,406.0,9/10,66,113.0
1449,B2,406.0,9/20,54,113.0
1450,B3,406.0,9/20,54,113.0
1451,A2,406.5,9/20,50,113.0
1452,A3,406.5,9/20,50,113.0
1453,B4,407.0,9/10,67,113.0
1454,B5,407.0,9/10,67,113.0
1455,G2,407.0,9/20,54,113.0
1456,G3,407.0,9/20,54,113.0
1457,F#2,407.5,9/20,50,113.0
1458,F#3,407.5,9/20,50,113.0
1459,E4,408.0,9/10,66,113.0
1460,E5,408.0,9/10,66,113.0
1461,E2,408.0,9/10,55,113.0
1462,E3,408.0,9/10,55,113.0
1463,E5,409.0,0.375,50,113.0
1464,E2,409.0,9/10,50,113.0
1465,E3,409.0,9/10,50,113.0
1466,D5,409.5,0.375,46,113.0
1467,E5,410.0,0.375,50,113.0
1468,B2,410.0,9/10,55,113.0
1469,B3,410.0,9/10,55,113.0
1470,F5,410.5,0.375,47,113.0
1471,G5,411.0,1.0,51,113.0
1472,E2,411.0,9/10,50,113.0
1473,E3,411.0,9/10,50,113.0
1474,G5,412.0,1.5,53,113.0
1475,G5,413.5,0.5,50,113.0
1476,C6,414.0,1.0,55,113.0
1477,C4,414.0,2.0,42,113.0
1478,E4,414.5,0.5,39,113.0
1479,G5,415.0,1.0,50,113.0
1480,G4,415.0,0.5,42,113.0
1481,E4,415.5,0.5,39,113.0
1482,B3,416.0,1.0,35,113.0
1483,F4,416.0,0.5,42,113.0
1484,D4,416.5,0.5,37,113.0
1485,G5,417.0,1.0,56,113.0
1486,C4,417.0,2.0,42,113.0
1487,E4,417.5,0.5,37,113.0
1488,G5,418.0,1.5,58,113.0
1489,G4,418.0,0.5,42,113.0
1490,E4,418.5,0.5,37,113.0
1491,B3,419.0,1.0,35,113.0
1492,F4,419.0,0.5,42,113.0
1493,G5,419.5,0.5,55,113.0
1494,D4,419.5,0.5,38,113.0
1495,C6,420.0,1.0,60,113.0
1496,C4,420.0,2.0,46,113.0
1497,E4,420.5,0.5,42,113.0
1498,G5,421.0,1.0,55,113.0
1499,G4,421.0,0.5,46,113.0
1500,E4,421.5,0.5,42,113.0
1501,B3,422.0,1.0,38,113.0
1502,F4,422.0,0.5,46,113.0
1503,D4,422.5,0.5,40,113.0
1504,G5,422.75,0.25,61,113.0
1505,E6,423.0,1.0,70,113.0
1506,C4,423.0,2.0,46,113.0
1507,E4,423.5,0.5,40,113.0
1508,G5,424.0,1.0,55,113.0
1509,G4,424.0,0.5,46,113.0
1510,E4,424.5,0.5,40,113.0
1511,C4,425.0,0.5,46,113.0
1512,E4,425.5,0.5,41,113.0
1513,G5,425.75,0.25,65,113.0
1514,E6,426.0,1.0,74,113.0
1515,B-3,426.0,2.0,53,113.0
1516,C4,426.5,0.5,45,113.0
1517,G5,427.0,1.0,61,113.0
1518,E4,427.0,0.5,51,113.0
1519,G4,427.5,0.5,43,113.0
1520,E4,428.0,0.5,52,113.0
1521,C4,428.5,0.5,46,113.0
1522,G5,428.75,0.25,55,113.0
1523,G5,429.0,0.5,60,113.0
1524,A3,429.0,2.0,58,113.0
1525,F5,429.5,0.5,58,113.0
1526,C#4,429.5,0.5,51,113.0
1527,E5,430.0,0.5,58,113.0
1528,E4,430.0,0.5,58,113.0
1529,F5,430.5,0.5,54,113.0
1530,G4,430.5,0.5,50,113.0
1531,E5,431.0,0.5,58,113.0
1532,E4,431.0,0.5,58,113.0
1533,D5,431.5,0.5,55,113.0
1534,C#4,431.5,0.5,51,113.0
1535,C#5,432.0,0.5,58,113.0
1536,A3,432.0,2.0,52,113.0
1537,D4,432.0,2.0,52,113.0
1538,G#5,432.5,0.5,55,113.0
1539,A5,433.0,0.5,58,113.0
1540,G#5,433.5,0.5,55,113.0
1541,A5,434.0,0.5,58,113.0
1542,G#3,434.0,1.0,41,113.0
1543,E4,434.0,0.5,49,113.0
1544,E5,434.5,0.5,55,113.0
1545,F4,434.5,0.5,43,113.0
1546,G5,435.0,0.5,60,113.0
1547,A3,435.0,1.0,48,113.0
1548,E4,435.0,1.0,48,113.0
1549,F5,435.5,0.5,58,113.0
1550,E5,436.0,0.5,58,113.0
1551,F5,436.5,0.5,54,113.0
1552,E5,437.0,0.5,58,113.0
1553,D5,437.5,0.5,55,113.0
1554,A5,438.0,0.5,58,113.0
1555,D4,438.0,3.0,46,113.0
1556,B-3,438.0,3.0,46,113.0
1557,G#4,438.0,3.0,46,113.0
1558,G#5,438.5,0.5,55,113.0
1559,A5,439.0,0.5,58,113.0
1560,E5,439.5,0.5,55,113.0
1561,F5,440.0,0.5,58,113.0
1562,D5,440.5,0.5,55,113.0
1563,A5,441.0,0.5,58,113.0
1564,C#4,441.0,1.0,47,113.0
1565,A3,441.0,1.0,47,113.0
1566,A4,441.0,1.0,47,113.0
1567,G#5,441.5,0.5,55,113.0
1568,A5,442.0,0.5,58,113.0
1569,E5,442.5,0.5,55,113.0
1570,F5,443.0,0.5,58,113.0
1571,A3,443.0,1.0,39,113.0
1572,D4,443.0,1.0,39,113.0
1573,F4,443.0,1.0,39,113.0
1574,D5,443.5,0.5,49,113.0
1575,A4,444.0,0.5,51,113.0
1576,C#4,444.0,1.0,47,113.0
1577,A3,444.0,1.0,47,113.0
1578,E4,444.0,1.0,47,113.0
1579,G#4,444.5,0.5,45,113.0
1580,A4,445.0,0.5,51,113.0
1581,G#4,445.5,0.5,47,113.0
1582,A4,446.0,0.5,51,113.0
1583,A3,446.0,1.0,39,113.0
1584,D4,446.0,1.0,39,113.0
1585,F4,446.0,1.0,39,113.0
1586,G#4,446.5,0.5,44,113.0
1587,F#4,447.0,0.5,46,113.0
1588,A4,447.0,0.5,46,113.0
1589,A3,447.0,1.0,47,113.0
1590,C#4,447.0,1.0,47,113.0
1591,E4,447.0,1.0,47,113.0
1592,A3,447.5,0.5,45,113.0
1593,D4,448.0,0.5,46,113.0
1594,F#4,448.0,0.5,46,113.0
1595,A3,448.5,0.5,47,113.0
1596,E4,449.0,0.5,48,113.0
1597,G4,449.0,0.5,48,113.0
1598,A3,449.5,0.5,49,113.0
1599,A4,450.0,0.5,50,113.0
1600,F#4,450.0,0.5,50,113.0
1601,D2,450.0,3.0,40,113.0
1602,D3,450.0,3.0,40,113.0
1603,D4,450.5,0.5,48,113.0
1604,B4,451.0,0.5,46,113.0
1605,D5,451.0,0.5,46,113.0
1606,A4,451.5,0.5,43,113.0
1607,C#5,451.5,0.5,43,113.0
1608,G4,452.0,0.5,46,113.0
1609,B4,452.0,0.5,46,113.0
1610,F#4,452.5,0.5,43,113.0
1611,A4,452.5,0.5,43,113.0
1612,G4,453.0,0.5,50,113.0
1613,D4,453.5,0.5,45,113.0
1614,F#4,454.0,0.5,49,113.0
1615,A4,454.0,0.5,49,113.0
1616,D2,454.0,1.0,40,113.0
1617,D3,454.0,1.0,40,113.0
1618,D4,454.5,0.5,47,113.0
1619,G4,455.0,0.5,50,113.0
1620,B4,455.0,0.5,50,113.0
1621,D4,455.5,0.5,47,113.0
1622,A4,456.0,0.5,50,113.0
1623,F#4,456.0,0.5,50,113.0
1624,D4,456.5,0.5,48,113.0
1625,B2,457.0,1.0,53,113.0
1626,B4,457.0,0.5,43,113.0
1627,D5,457.0,0.5,43,113.0
1628,A4,457.5,0.5,40,113.0
1629,C#5,457.5,0.5,40,113.0
1630,A2,458.0,1.0,49,113.0
1631,G4,458.0,0.5,43,113.0
1632,B4,458.0,0.5,43,113.0
1633,F#4,458.5,0.5,40,113.0
1634,A4,458.5,0.5,40,113.0
1635,G2,459.0,1.0,47,113.0
1636,E4,459.0,0.5,44,113.0
1637,G4,459.0,0.5,44,113.0
1638,D4,459.5,0.5,42,113.0
1639,D3,460.0,1.0,53,113.0
1640,F#4,460.0,0.5,46,113.0
1641,A4,460.0,0.5,46,113.0
1642,D4,460.5,0.5,44,113.0
1643,D6,461.0,0.5,55,113.0
1644,G4,461.0,0.5,46,113.0
1645,B4,461.0,0.5,46,113.0
1646,D4,461.5,0.5,44,113.0
1647,C#6,461.5,0.5,51,113.0
1648,B5,462.0,0.5,55,113.0
1649,A4,462.0,0.5,46,113.0
1650,F#4,462.0,0.5,46,113.0
1651,D4,462.5,0.5,45,113.0
1652,A5,462.5,0.5,51,113.0
1653,G5,463.0,1.0,55,113.0
1654,G4,463.0,0.5,46,113.0
1655,B4,463.0,0.5,46,113.0
1656,F#4,463.5,0.5,43,113.0
1657,A4,463.5,0.5,43,113.0
1658,A5,464.0,1.0,58,113.0
1659,E4,464.0,0.5,46,113.0
1660,G4,464.0,0.5,46,113.0
1661,D4,464.5,0.5,43,113.0
1662,F#4,464.5,0.5,43,113.0
1663,B5,465.0,1.0,59,113.0
1664,C#4,465.0,0.5,48,113.0
1665,E4,465.0,0.5,48,113.0
1666,A3,465.5,0.5,45,113.0
1667,A5,466.0,1.0,59,113.0
1668,D4,466.0,0.5,49,113.0
1669,A4,466.0,0.5,49,113.0
1670,A3,466.5,0.5,47,113.0
1671,D4,467.0,0.5,50,113.0
1672,F#4,467.0,0.5,50,113.0
1673,A3,467.5,0.5,47,113.0
1674,E4,468.0,0.5,50,113.0
1675,C#4,468.0,0.5,50,113.0
1676,A3,468.5,0.5,48,113.0
1677,A2,469.0,1.0,53,113.0
1678,G4,469.0,0.5,43,113.0
1679,B4,469.0,0.5,43,113.0
1680,F#4,469.5,0.5,40,113.0
1681,A4,469.5,0.5,40,113.0
1682,F#2,470.0,1.0,49,113.0
1683,E4,470.0,0.5,43,113.0
1684,G4,470.0,0.5,43,113.0
1685,D4,470.5,0.5,40,113.0
1686,F#4,470.5,0.5,40,113.0
1687,D2,471.0,1.0,47,113.0
1688,C#4,471.0,0.5,44,113.0
1689,E4,471.0,0.5,44,113.0
1690,A3,471.5,0.5,42,113.0
1691,A2,472.0,1.0,53,113.0
1692,F#4,472.0,0.5,46,113.0
1693,A4,472.0,0.5,46,113.0
1694,A3,472.5,0.5,44,113.0
1695,B5,473.0,0.5,55,113.0
1696,D4,473.0,0.5,46,113.0
1697,F#4,473.0,0.5,46,113.0
1698,A3,473.5,0.5,44,113.0
1699,A5,473.5,0.5,51,113.0
1700,G5,474.0,0.5,55,113.0
1701,E4,474.0,0.5,46,113.0
1702,C#4,474.0,0.5,46,113.0
1703,A4,474.5,0.5,45,113.0
1704,F#5,474.5,0.375,51,113.0
1705,G#5,474.875,0.125,48,113.0
1706,D4,475.0,2.0,50,113.0
1707,D5,475.0,0.5,64,113.0
1708,A5,475.0,0.75,63,113.0
1709,C#5,475.5,0.5,59,113.0
1710,G#5,475.875,0.125,48,113.0
1711,D5,476.0,0.5,61,113.0
1712,A5,476.0,0.75,63,113.0
1713,B4,476.5,0.5,54,113.0
1714,G#5,476.875,0.125,48,113.0
1715,A4,477.0,0.5,63,113.0
1716,D4,477.0,0.5,50,113.0
1717,A5,477.0,0.75,64,113.0
1718,A3,477.5,0.5,55,113.0
1719,G#5,477.875,0.125,48,113.0
1720,G4,478.0,1.0,61,113.0
1721,E4,478.0,0.5,54,113.0
1722,A5,478.0,1.0,64,113.0
1723,B3,478.5,0.5,54,113.0
1724,E4,479.0,1.0,61,113.0
1725,C#4,479.0,0.5,54,113.0
1726,B3,479.0,0.5,46,113.0
1727,A3,479.5,0.5,51,113.0
1728,B-3,479.5,0.5,41,113.0
1729,D4,480.0,729/1000,52,113.0
1730,F#4,480.0,0.5,64,113.0
1731,B3,480.0,0.5,47,113.0
1732,A4,480.5,0.5,55,113.0
1733,G3,480.5,0.5,41,113.0
1734,F#3,481.0,1.0,48,113.0
1735,B4,481.0,0.5,64,113.0
1736,D5,481.0,0.5,64,113.0
1737,B-4,481.5,0.5,56,113.0
1738,C#5,481.5,0.5,56,113.0
1739,E3,482.0,1.0,44,113.0
1740,B4,482.0,0.5,61,113.0
1741,D5,482.0,0.5,61,113.0
1742,G4,482.5,0.5,54,113.0
1743,B4,482.5,0.5,54,113.0
1744,A2,483.0,1.0,44,113.0
1745,F#4,483.0,0.5,61,113.0
1746,A4,483.0,0.5,61,113.0
1747,D4,483.5,0.5,51,113.0
1748,D3,484.0,1.0,49,113.0
1749,E4,484.0,0.5,59,113.0
1750,G4,484.0,0.5,59,113.0
1751,B3,484.5,0.5,51,113.0
1752,D6,485.0,0.5,58,113.0
1753,C#4,485.0,0.5,59,113.0
1754,E4,485.0,0.5,59,113.0
1755,A3,485.5,0.5,52,113.0
1756,C#6,485.5,0.5,53,113.0
1757,D6,486.0,0.5,59,113.0
1758,D4,486.0,0.5,59,113.0
1759,F#4,486.0,0.5,59,113.0
1760,A4,486.5,0.5,54,113.0
1761,B5,486.5,0.5,52,113.0
1762,B3,487.0,0.75,50,113.0
1763,A4,487.0,0.5,61,113.0
1764,A5,487.0,1.0,58,113.0
1765,G4,487.5,0.5,51,113.0
1766,E4,488.0,0.5,61,113.0
1767,G5,488.0,1.0,62,113.0
1768,C#4,488.5,0.5,52,113.0
1769,D4,489.0,0.5,59,113.0
1770,E5,489.0,1.0,59,113.0
1771,F#4,489.5,0.5,50,113.0
1772,B3,490.0,0.75,50,113.0
1773,A4,490.0,0.5,56,113.0
1774,D5,490.0,1.0,56,113.0
1775,G4,490.5,0.5,50,113.0
1776,E4,491.0,0.5,57,113.0
1777,G2,491.0,1.0,43,113.0
1778,C#4,491.5,0.5,48,113.0
1779,D4,492.0,0.5,52,113.0
1780,G3,492.0,1.0,35,113.0
1781,A2,492.0,1.0,35,113.0
1782,C#4,492.5,0.5,46,113.0
1783,D4,493.0,0.5,52,113.0
1784,F#3,493.0,1.0,40,113.0
1785,D3,493.0,1.0,40,113.0
1786,E4,493.5,0.5,45,113.0
1787,F#4,494.0,0.5,48,113.0
1788,G2,494.0,1.0,38,113.0
1789,G4,494.5,0.5,48,113.0
1790,F#4,495.0,0.5,46,113.0
1791,A4,495.0,0.5,46,113.0
1792,G3,495.0,1.0,40,113.0
1793,A2,495.0,1.0,40,113.0
1794,B3,495.5,0.5,45,113.0
1795,E-4,496.0,0.5,46,113.0
1796,F#4,496.0,0.5,46,113.0
1797,D3,496.0,1.0,37,113.0
1798,F#3,496.0,1.0,37,113.0
1799,B3,496.5,0.5,47,113.0
1800,E4,497.0,0.5,48,113.0
1801,G4,497.0,0.5,48,113.0
1802,B3,497.5,0.5,49,113.0
1803,A4,498.0,0.5,50,113.0
1804,F#4,498.0,0.5,50,113.0
1805,B3,498.5,0.5,48,113.0
1806,E-4,499.0,0.5,41,113.0
1807,F#4,499.0,0.5,41,113.0
1808,B1,499.0,3.0,40,113.0
1809,B2,499.0,3.0,40,113.0
1810,B3,499.5,0.5,42,113.0
1811,E4,500.0,0.5,42,113.0
1812,G4,500.0,0.5,42,113.0
1813,B3,500.5,0.5,44,113.0
1814,A4,501.0,0.5,44,113.0
1815,F#4,501.0,0.5,44,113.0
1816,B3,501.5,0.5,43,113.0
1817,E-4,502.0,0.5,41,113.0
1818,F#4,502.0,0.5,41,113.0
1819,B3,502.5,0.5,42,113.0
1820,E4,503.0,0.5,42,113.0
1821,G4,503.0,0.5,42,113.0
1822,B1,503.0,1.0,40,113.0
1823,B2,503.0,1.0,40,113.0
1824,B3,503.5,0.5,44,113.0
1825,C6,504.0,0.5,54,113.0
1826,A4,504.0,1.0,44,113.0
1827,F#4,504.0,1.0,44,113.0
1828,B5,504.5,0.5,50,113.0
1829,A5,505.0,0.5,54,113.0
1830,B4,505.0,9/20,66,113.0
1831,B5,505.0,9/20,66,113.0
1832,G5,505.5,0.5,50,113.0
1833,A4,505.5,9/20,61,113.0
1834,A5,505.5,9/20,61,113.0
1835,F#5,506.0,1.0,54,113.0
1836,G4,506.0,9/20,66,113.0
1837,G5,506.0,9/20,66,113.0
1838,F#4,506.5,9/20,62,113.0
1839,F#5,506.5,9/20,62,113.0
1840,A5,507.0,0.5,54,113.0
1841,E4,507.0,9/10,68,113.0
1842,E5,507.0,9/10,68,113.0
1843,G5,507.5,0.5,50,113.0
1844,F#5,508.0,0.5,55,113.0
1845,E4,508.0,9/10,66,113.0
1846,E5,508.0,9/10,66,113.0
1847,E5,508.5,0.5,50,113.0
1848,E-5,509.0,1.0,54,113.0
1849,B4,509.0,9/10,67,113.0
1850,B5,509.0,9/10,67,113.0
1851,E4,510.0,9/10,66,113.0
1852,E5,510.0,9/10,66,113.0
1853,B2,510.0,9/20,54,113.0
1854,B3,510.0,9/20,54,113.0
1855,A2,510.5,9/20,50,113.0
1856,A3,510.5,9/20,50,113.0
1857,B4,511.0,9/20,66,113.0
1858,B5,511.0,9/20,66,113.0
1859,G2,511.0,9/20,54,113.0
1860,G3,511.0,9/20,54,113.0
1861,A4,511.5,9/20,61,113.0
1862,A5,511.5,9/20,61,113.0
1863,F#2,511.5,9/20,50,113.0
1864,F#3,511.5,9/20,50,113.0
1865,G4,512.0,9/20,66,113.0
1866,G5,512.0,9/20,66,113.0
1867,E2,512.0,9/10,55,113.0
1868,E3,512.0,9/10,55,113.0
1869,F#4,512.5,9/20,62,113.0
1870,F#5,512.5,9/20,62,113.0
1871,E4,513.0,9/10,68,113.0
1872,E5,513.0,9/10,68,113.0
1873,E2,513.0,9/10,50,113.0
1874,E3,513.0,9/10,50,113.0
1875,E4,514.0,9/10,66,113.0
1876,E5,514.0,9/10,66,113.0
1877,B2,514.0,9/10,55,113.0
1878,B3,514.0,9/10,55,113.0
1879,B4,515.0,9/10,67,113.0
1880,B5,515.0,9/10,67,113.0
1881,E2,515.0,9/10,50,113.0
1882,E3,515.0,9/10,50,113.0
1883,E4,516.0,9/10,66,113.0
1884,E5,516.0,9/10,66,113.0
1885,B2,516.0,9/20,54,113.0
1886,B3,516.0,9/20,54,113.0
1887,A2,516.5,9/20,50,113.0
1888,A3,516.5,9/20,50,113.0
1889,E5,517.0,0.375,50,113.0
1890,G2,517.0,9/20,54,113.0
1891,G3,517.0,9/20,54,113.0
1892,D5,517.5,0.375,46,113.0
1893,F#2,517.5,9/20,50,113.0
1894,F#3,517.5,9/20,50,113.0
1895,E5,518.0,0.375,50,113.0
1896,E2,518.0,9/10,55,113.0
1897,E3,518.0,9/10,55,113.0
1898,F5,518.5,0.375,47,113.0
1899,G5,519.0,1.0,51,113.0
1900,E2,519.0,9/10,50,113.0
1901,E3,519.0,9/10,50,113.0
1902,G5,520.0,1.5,53,113.0
1903,B2,520.0,9/10,55,113.0
1904,B3,520.0,9/10,55,113.0
1905,E2,521.0,9/10,50,113.0
1906,E3,521.0,9/10,50,113.0
1907,G5,521.5,0.5,50,113.0
1908,C6,522.0,1.0,55,113.0
1909,G5,523.0,1.0,50,113.0
1910,C4,524.0,2.0,42,113.0
1911,E4,524.5,0.5,39,113.0
1912,G5,525.0,1.0,56,113.0
1913,G4,525.0,0.5,42,113.0
1914,E4,525.5,0.5,39,113.0
1915,G5,526.0,1.5,58,113.0
1916,B3,526.0,1.0,35,113.0
1917,F4,526.0,0.5,42,113.0
1918,D4,526.5,0.5,37,113.0
1919,C4,527.0,2.0,42,113.0
1920,G5,527.5,0.5,55,113.0
1921,E4,527.5,0.5,37,113.0
1922,C6,528.0,1.0,60,113.0
1923,G4,528.0,0.5,42,113.0
1924,E4,528.5,0.5,37,113.0
1925,G5,529.0,1.0,55,113.0
1926,B3,529.0,1.0,35,113.0
1927,F4,529.0,0.5,42,113.0
1928,D4,529.5,0.5,38,113.0
1929,C4,530.0,2.0,46,113.0
1930,E4,530.5,0.5,42,113.0
1931,G5,530.75,0.25,61,113.0
1932,E6,531.0,1.0,70,113.0
1933,G4,531.0,0.5,46,113.0
1934,E4,531.5,0.5,42,113.0
1935,G5,532.0,1.0,55,113.0
1936,B3,532.0,1.0,38,113.0
1937,F4,532.0,0.5,46,113.0
1938,D4,532.5,0.5,40,113.0
1939,C4,533.0,2.0,46,113.0
1940,E4,533.5,0.5,40,113.0
1941,G5,533.75,0.25,65,113.0
1942,E6,534.0,1.0,74,113.0
1943,G4,534.0,0.5,46,113.0
1944,E4,534.5,0.5,40,113.0
1945,G5,535.0,1.0,61,113.0
1946,C4,535.0,0.5,46,113.0
1947,E4,535.5,0.5,41,113.0
1948,B-3,536.0,2.0,53,113.0
1949,C4,536.5,0.5,45,113.0
1950,G5,536.75,0.25,55,113.0
1951,G5,537.0,0.5,60,113.0
1952,E4,537.0,0.5,51,113.0
1953,F5,537.5,0.5,58,113.0
1954,G4,537.5,0.5,43,113.0
1955,E5,538.0,0.5,58,113.0
1956,E4,538.0,0.5,52,113.0
1957,F5,538.5,0.5,54,113.0
1958,C4,538.5,0.5,46,113.0
1959,E5,539.0,0.5,58,113.0
1960,A3,539.0,2.0,58,113.0
1961,D5,539.5,0.5,55,113.0
1962,C#4,539.5,0.5,51,113.0
1963,C#5,540.0,0.5,58,113.0
1964,E4,540.0,0.5,58,113.0
1965,G#5,540.5,0.5,55,113.0
1966,G4,540.5,0.5,50,113.0
1967,A5,541.0,0.5,58,113.0
1968,E4,541.0,0.5,58,113.0
1969,G#5,541.5,0.5,55,113.0
1970,C#4,541.5,0.5,51,113.0
1971,A5,542.0,0.5,58,113.0
1972,A3,542.0,2.0,52,113.0
1973,D4,542.0,2.0,52,113.0
1974,E5,542.5,0.5,55,113.0
1975,G5,543.0,0.5,60,113.0
1976,F5,543.5,0.5,58,113.0
1977,E5,544.0,0.5,58,113.0
1978,G#3,544.0,1.0,41,113.0
1979,E4,544.0,0.5,49,113.0
1980,F5,544.5,0.5,54,113.0
1981,F4,544.5,0.5,43,113.0
1982,E5,545.0,0.5,58,113.0
1983,A3,545.0,1.0,48,113.0
1984,E4,545.0,1.0,48,113.0
1985,D5,545.5,0.5,55,113.0
1986,A5,546.0,0.5,58,113.0
1987,G#5,546.5,0.5,55,113.0
1988,A5,547.0,0.5,58,113.0
1989,E5,547.5,0.5,55,113.0
1990,F5,548.0,0.5,58,113.0
1991,D4,548.0,3.0,46,113.0
1992,B-3,548.0,3.0,46,113.0
1993,G#4,548.0,3.0,46,113.0
1994,D5,548.5,0.5,55,113.0
1995,A5,549.0,0.5,58,113.0
1996,G#5,549.5,0.5,55,113.0
1997,A5,550.0,0.5,58,113.0
1998,E5,550.5,0.5,55,113.0
1999,F5,551.0,0.5,58,113.0
2000,C#4,551.0,1.0,47,113.0
2001,A3,551.0,1.0,47,113.0
2002,A4,551.0,1.0,47,113.0
2003,D5,551.5,0.5,49,113.0
2004,A4,552.0,0.5,51,113.0
2005,G#4,552.5,0.5,45,113.0
2006,A4,553.0,0.5,51,113.0
2007,A3,553.0,1.0,39,113.0
2008,D4,553.0,1.0,39,113.0
2009,F4,553.0,1.0,39,113.0
2010,G#4,553.5,0.5,47,113.0
2011,A4,554.0,0.5,51,113.0
2012,C#4,554.0,1.0,47,113.0
2013,A3,554.0,1.0,47,113.0
2014,E4,554.0,1.0,47,113.0
2015,G#4,554.5,0.5,44,113.0
2016,F#4,555.0,0.5,46,113.0
2017,A4,555.0,0.5,46,113.0
2018,A3,555.5,0.5,45,113.0
2019,D4,556.0,0.5,46,113.0
2020,F#4,556.0,0.5,46,113.0
2021,A3,556.0,1.0,39,113.0
2022,D4,556.0,1.0,39,113.0
2023,F4,556.0,1.0,39,113.0
2024,A3,556.5,0.5,47,113.0
2025,E4,557.0,0.5,48,113.0
2026,G4,557.0,0.5,48,113.0
2027,A3,557.0,1.0,47,113.0
2028,C#4,557.0,1.0,47,113.0
2029,E4,557.0,1.0,47,113.0
2030,A3,557.5,0.5,49,113.0
2031,A4,558.0,0.5,50,113.0
2032,F#4,558.0,0.5,50,113.0
2033,D4,558.5,0.5,48,113.0
2034,B4,559.0,0.5,46,113.0
2035,D5,559.0,0.5,46,113.0
2036,A4,559.5,0.5,43,113.0
2037,C#5,559.5,0.5,43,113.0
2038,G4,560.0,0.5,46,113.0
2039,B4,560.0,0.5,46,113.0
2040,D2,560.0,3.0,40,113.0
2041,D3,560.0,3.0,40,113.0
2042,F#4,560.5,0.5,43,113.0
2043,A4,560.5,0.5,43,113.0
2044,G4,561.0,0.5,50,113.0
2045,D4,561.5,0.5,45,113.0
2046,F#4,562.0,0.5,49,113.0
2047,A4,562.0,0.5,49,113.0
2048,D4,562.5,0.5,47,113.0
2049,G4,563.0,0.5,50,113.0
2050,B4,563.0,0.5,50,113.0
2051,D4,563.5,0.5,47,113.0
2052,A4,564.0,0.5,50,113.0
2053,F#4,564.0,0.5,50,113.0
2054,D2,564.0,1.0,40,113.0
2055,D3,564.0,1.0,40,113.0
2056,D4,564.5,0.5,48,113.0
2057,B4,565.0,0.5,43,113.0
2058,D5,565.0,0.5,43,113.0
2059,A4,565.5,0.5,40,113.0
2060,C#5,565.5,0.5,40,113.0
2061,G4,566.0,0.5,43,113.0
2062,B4,566.0,0.5,43,113.0
2063,F#4,566.5,0.5,40,113.0
2064,A4,566.5,0.5,40,113.0
2065,B2,567.0,1.0,53,113.0
2066,E4,567.0,0.5,44,113.0
2067,G4,567.0,0.5,44,113.0
2068,D4,567.5,0.5,42,113.0
2069,A2,568.0,1.0,49,113.0
2070,F#4,568.0,0.5,46,113.0
2071,A4,568.0,0.5,46,113.0
2072,D4,568.5,0.5,44,113.0
2073,G2,569.0,1.0,47,113.0
2074,G4,569.0,0.5,46,113.0
2075,B4,569.0,0.5,46,113.0
2076,D4,569.5,0.5,44,113.0
2077,D3,570.0,1.0,53,113.0
2078,A4,570.0,0.5,46,113.0
2079,F#4,570.0,0.5,46,113.0
2080,D4,570.5,0.5,45,113.0
2081,D6,571.0,0.5,55,113.0
2082,G4,571.0,0.5,46,113.0
2083,B4,571.0,0.5,46,113.0
2084,C#6,571.5,0.5,51,113.0
2085,F#4,571.5,0.5,43,113.0
2086,A4,571.5,0.5,43,113.0
2087,B5,572.0,0.5,55,113.0
2088,E4,572.0,0.5,46,113.0
2089,G4,572.0,0.5,46,113.0
2090,A5,572.5,0.5,51,113.0
2091,D4,572.5,0.5,43,113.0
2092,F#4,572.5,0.5,43,113.0
2093,G5,573.0,1.0,55,113.0
2094,C#4,573.0,0.5,48,113.0
2095,E4,573.0,0.5,48,113.0
2096,A3,573.5,0.5,45,113.0
2097,A5,574.0,1.0,58,113.0
2098,D4,574.0,0.5,49,113.0
2099,A4,574.0,0.5,49,113.0
2100,A3,574.5,0.5,47,113.0
2101,B5,575.0,1.0,59,113.0
2102,D4,575.0,0.5,50,113.0
2103,F#4,575.0,0.5,50,113.0
2104,A3,575.5,0.5,47,113.0
2105,A5,576.0,1.0,59,113.0
2106,E4,576.0,0.5,50,113.0
2107,C#4,576.0,0.5,50,113.0
2108,A3,576.5,0.5,48,113.0
2109,G4,577.0,0.5,43,113.0
2110,B4,577.0,0.5,43,113.0
2111,F#4,577.5,0.5,40,113.0
2112,A4,577.5,0.5,40,113.0
2113,E4,578.0,0.5,43,113.0
2114,G4,578.0,0.5,43,113.0
2115,D4,578.5,0.5,40,113.0
2116,F#4,578.5,0.5,40,113.0
2117,A2,579.0,1.0,53,113.0
2118,C#4,579.0,0.5,44,113.0
2119,E4,579.0,0.5,44,113.0
2120,A3,579.5,0.5,42,113.0
2121,F#2,580.0,1.0,49,113.0
2122,F#4,580.0,0.5,46,113.0
2123,A4,580.0,0.5,46,113.0
2124,A3,580.5,0.5,44,113.0
2125,D2,581.0,1.0,47,113.0
2126,D4,581.0,0.5,46,113.0
2127,F#4,581.0,0.5,46,113.0
2128,A3,581.5,0.5,44,113.0
2129,A2,582.0,1.0,53,113.0
2130,E4,582.0,0.5,46,113.0
2131,C#4,582.0,0.5,46,113.0
2132,A4,582.5,0.5,45,113.0
2133,D4,583.0,2.0,50,113.0
2134,D5,583.0,0.5,64,113.0
2135,B5,583.0,0.5,55,113.0
2136,C#5,583.5,0.5,59,113.0
2137,A5,583.5,0.5,51,113.0
2138,D5,584.0,0.5,61,113.0
2139,G5,584.0,0.5,55,113.0
2140,B4,584.5,0.5,54,113.0
2141,F#5,584.5,0.375,51,113.0
2142,G#5,584.875,0.125,48,113.0
2143,A4,585.0,0.5,63,113.0
2144,D4,585.0,0.5,50,113.0
2145,A5,585.0,0.75,63,113.0
2146,A3,585.5,0.5,55,113.0
2147,G#5,585.875,0.125,48,113.0
2148,G4,586.0,1.0,61,113.0
2149,E4,586.0,0.5,54,113.0
2150,A5,586.0,0.75,63,113.0
2151,B3,586.5,0.5,54,113.0
2152,G#5,586.875,0.125,48,113.0
2153,E4,587.0,1.0,61,113.0
2154,C#4,587.0,0.5,54,113.0
2155,A5,587.0,0.75,64,113.0
2156,A3,587.5,0.5,51,113.0
2157,G#5,587.875,0.125,48,113.0
2158,D4,588.0,729/1000,52,113.0
2159,F#4,588.0,0.5,64,113.0
2160,A5,588.0,1.0,64,113.0
2161,A4,588.5,0.5,55,113.0
2162,B3,589.0,0.5,46,113.0
2163,B4,589.0,0.5,64,113.0
2164,D5,589.0,0.5,64,113.0
2165,B-3,589.5,0.5,41,113.0
2166,B-4,589.5,0.5,56,113.0
2167,C#5,589.5,0.5,56,113.0
2168,B3,590.0,0.5,47,113.0
2169,B4,590.0,0.5,61,113.0
2170,D5,590.0,0.5,61,113.0
2171,G3,590.5,0.5,41,113.0
2172,G4,590.5,0.5,54,113.0
2173,B4,590.5,0.5,54,113.0
2174,F#3,591.0,1.0,48,113.0
2175,F#4,591.0,0.5,61,113.0
2176,A4,591.0,0.5,61,113.0
2177,D4,591.5,0.5,51,113.0
2178,E3,592.0,1.0,44,113.0
2179,E4,592.0,0.5,59,113.0
2180,G4,592.0,0.5,59,113.0
2181,B3,592.5,0.5,51,113.0
2182,A2,593.0,1.0,44,113.0
2183,C#4,593.0,0.5,59,113.0
2184,E4,593.0,0.5,59,113.0
2185,A3,593.5,0.5,52,113.0
2186,D3,594.0,1.0,49,113.0
2187,D4,594.0,0.5,59,113.0
2188,F#4,594.0,0.5,59,113.0
2189,A4,594.5,0.5,54,113.0
2190,B3,595.0,0.75,50,113.0
2191,A4,595.0,0.5,61,113.0
2192,D6,595.0,0.5,58,113.0
2193,G4,595.5,0.5,51,113.0
2194,C#6,595.5,0.5,53,113.0
2195,E4,596.0,0.5,61,113.0
2196,D6,596.0,0.5,59,113.0
2197,C#4,596.5,0.5,52,113.0
2198,B5,596.5,0.5,52,113.0
2199,D4,597.0,0.5,59,113.0
2200,A5,597.0,1.0,58,113.0
2201,F#4,597.5,0.5,50,113.0
2202,B3,598.0,0.75,50,113.0
2203,A4,598.0,0.5,56,113.0
2204,G5,598.0,1.0,62,113.0
2205,G4,598.5,0.5,50,113.0
2206,E4,599.0,0.5,57,113.0
2207,E5,599.0,1.0,59,113.0
2208,C#4,599.5,0.5,48,113.0
2209,D4,600.0,1.0,52,113.0
2210,D5,600.0,1.0,56,113.0
2211,G2,601.0,1.0,43,113.0
2212,G3,602.0,1.0,35,113.0
2213,A2,602.0,1.0,35,113.0
2214,C#4,603.0,0.125,64,113.0
2215,F#3,603.0,1.0,40,113.0
2216,D3,603.0,1.0,40,113.0
2217,E4,603.125,0.125,64,113.0
2218,A4,603.25,1.75,76,113.0
2219,G2,604.0,1.0,38,113.0
2220,E4,605.0,1.0,70,113.0
2221,G3,605.0,1.0,40,113.0
2222,A2,605.0,1.0,40,113.0
2223,C#5,606.0,0.5,72,113.0
2224,D3,606.0,1.0,37,113.0
2225,F#3,606.0,1.0,37,113.0
2226,D5,606.5,0.25,74,113.0
2227,B4,606.75,0.25,70,113.0
2228,A4,607.0,0.5,70,113.0
2229,D2,607.0,0.5,40,113.0
2230,C#5,609.0,0.5,50,113.0
2231,A2,609.25,1.75,64,113.0
2232,A3,609.25,1.75,64,113.0
2233,D5,609.5,0.25,52,113.0
2234,B4,609.75,0.25,46,113.0
2235,A4,610.0,1.0,49,113.0
2236,C#6,611.0,0.5,57,113.0
2237,E2,611.0,1.0,58,113.0
2238,E3,611.0,1.0,58,113.0
2239,E-5,612.0,1.0,50,113.0
2240,C#3,612.0,1.0,52,113.0
2241,C#4,612.0,1.0,52,113.0
2242,E5,613.0,1.5,52,113.0
2243,A2,613.0,0.5,49,113.0
2244,A3,613.0,0.5,49,113.0
2245,F5,614.5,229/500,51,113.0
2246,G#5,615.0,0.5,57,113.0
2247,F#5,615.5,0.5,56,113.0
2248,E5,616.0,0.5,54,113.0
2249,D5,616.5,0.5,53,113.0
2250,C#5,617.0,0.5,52,113.0
2251,A3,617.0,0.5,40,113.0
2252,F#4,617.0,0.5,40,113.0
2253,B4,617.5,0.5,51,113.0
2254,A4,618.0,0.5,51,113.0
2255,B3,618.0,1.0,40,113.0
2256,A4,618.0,1.0,40,113.0
2257,G#4,618.5,0.5,46,113.0
2258,E5,619.0,0.5,53,113.0
2259,E4,619.0,1.0,40,113.0
2260,G#4,619.0,1.0,40,113.0
2261,D5,619.5,0.5,51,113.0
2262,B4,621.0,0.5,57,113.0
2263,A4,621.5,0.5,53,113.0
2264,F#5,622.0,0.5,57,113.0
2265,E5,622.5,0.5,56,113.0
2266,C#5,624.0,0.5,63,113.0
2267,E3,624.0,0.5,39,113.0
2268,B4,624.5,0.5,59,113.0
2269,D4,624.5,0.5,33,113.0
2270,G5,625.0,0.5,62,113.0
2271,B3,625.0,0.5,33,113.0
2272,F#5,625.5,0.5,59,113.0
2273,D4,625.5,0.5,28,113.0
2274,B3,626.0,0.5,31,113.0
2275,D4,626.5,0.5,29,113.0
2276,F#4,627.0,1.0,51,113.0
2277,E3,627.0,0.5,40,113.0
2278,C#4,627.5,0.5,34,113.0
2279,E5,628.0,0.5,53,113.0
2280,A3,628.0,0.5,34,113.0
2281,D5,628.5,0.5,51,113.0
2282,C#4,628.5,0.5,30,113.0
2283,C#5,629.0,0.5,51,113.0
2284,A3,629.0,0.5,32,113.0
2285,B4,629.5,0.5,49,113.0
2286,C#4,629.5,0.5,28,113.0
2287,A4,630.0,0.5,51,113.0
2288,D3,630.0,0.5,42,113.0
2289,G#4,630.5,0.5,48,113.0
2290,B3,630.5,0.5,36,113.0
2291,A4,631.0,1.0,51,113.0
2292,F#3,631.0,0.5,36,113.0
2293,B3,631.5,0.5,34,113.0
2294,F#3,632.0,0.5,36,113.0
2295,B3,632.5,0.5,34,113.0
2296,B4,632.625,0.125,68,113.0
2297,E5,632.75,0.125,71,113.0
2298,G#5,632.875,0.125,74,113.0
2299,B5,633.0,3.0,77,113.0
2300,D3,633.0,1.0,39,113.0
2301,B5,636.0,0.25,73,113.0
2302,E3,636.0,1.0,36,113.0
2303,D4,636.0,1.0,36,113.0
2304,A5,636.25,0.25,72,113.0
2305,G#5,636.5,0.25,71,113.0
2306,F#5,636.75,9/40,70,113.0
2307,F#5,637.0,0.25,72,113.0
2308,A3,637.0,1.0,36,113.0
2309,C#4,637.0,1.0,36,113.0
2310,E5,637.25,0.25,71,113.0
2311,E-5,637.5,0.25,69,113.0
2312,C#5,637.75,0.25,68,113.0
2313,B4,638.0,0.25,70,113.0
2314,A4,638.25,0.25,67,113.0
2315,G#4,638.5,0.25,67,113.0
2316,A4,638.75,0.25,67,113.0
2317,G#4,639.0,0.25,67,113.0
2318,E3,639.0,0.5,60,113.0
2319,B4,639.25,0.25,69,113.0
2320,E5,639.5,0.25,70,113.0
2321,G#3,639.5,0.5,52,113.0
2322,G#5,639.75,0.25,72,113.0
2323,B5,640.0,2.0,73,113.0
2324,B3,640.0,0.5,56,113.0
2325,G#3,640.5,0.5,52,113.0
2326,F#3,641.0,0.5,56,113.0
2327,E3,641.5,0.5,51,113.0
2328,B5,642.0,0.25,73,113.0
2329,E-3,642.0,0.5,60,113.0
2330,A5,642.25,0.25,72,113.0
2331,G#5,642.5,0.25,71,113.0
2332,E3,642.5,0.5,50,113.0
2333,F#5,642.75,229/1000,70,113.0
2334,F#5,643.0,0.25,72,113.0
2335,F#3,643.0,0.5,50,113.0
2336,E5,643.25,0.25,71,113.0
2337,E-5,643.5,0.25,69,113.0
2338,B2,643.5,0.5,51,113.0
2339,C#5,643.75,0.25,68,113.0
2340,B4,644.0,0.25,70,113.0
2341,C#3,644.0,0.5,54,113.0
2342,A4,644.25,0.25,67,113.0
2343,G#4,644.5,0.25,67,113.0
2344,E-3,644.5,0.5,51,113.0
2345,A4,644.75,0.25,67,113.0
2346,G#4,645.0,0.25,67,113.0
2347,E3,645.0,0.5,60,113.0
2348,B4,645.25,0.25,64,113.0
2349,A4,645.5,0.25,70,113.0
2350,G#3,645.5,0.5,52,113.0
2351,G#4,645.75,0.25,64,113.0
2352,A4,645.985,0.25,68,113.0
2353,B3,646.0,0.5,52,113.0
2354,B4,646.25,0.25,68,113.0
2355,C#5,646.5,0.25,69,113.0
2356,G#3,646.5,0.5,52,113.0
2357,E-5,646.75,0.25,70,113.0
2358,E5,647.0,0.25,70,113.0
2359,F#3,647.0,0.5,55,113.0
2360,F#5,647.25,0.25,71,113.0
2361,G#5,647.5,0.25,72,113.0
2362,E3,647.5,0.5,52,113.0
2363,A5,647.75,0.25,72,113.0
2364,B5,648.0,0.25,73,113.0
2365,E-3,648.0,0.5,60,113.0
2366,C#6,648.25,0.25,74,113.0
2367,E-6,648.5,0.25,74,113.0
2368,E3,648.5,0.5,50,113.0
2369,E6,648.75,0.25,75,113.0
2370,E-6,649.0,0.25,72,113.0
2371,F#3,649.0,0.5,50,113.0
2372,C#6,649.25,0.25,70,113.0
2373,B5,649.5,0.25,68,113.0
2374,B2,649.5,0.5,51,113.0
2375,A5,649.75,0.25,65,113.0
2376,G#5,650.0,0.25,63,113.0
2377,C#3,650.0,0.5,54,113.0
2378,F#5,650.25,0.25,61,113.0
2379,E5,650.5,0.25,59,113.0
2380,E-3,650.5,0.5,51,113.0
2381,E-5,650.75,0.25,57,113.0
2382,C#5,651.0,0.5,50,113.0
2383,E3,651.0,1.0,60,113.0
2384,C#6,651.75,0.25,50,113.0
2385,E5,652.0,0.875,54,113.0
2386,G#5,652.875,0.125,50,113.0
2387,E-5,653.0,1.0,53,113.0
2388,F#5,653.0,1.0,53,113.0
2389,E5,654.0,1.0,51,113.0
2390,E4,656.875,0.125,61,113.0
2391,E5,657.0,0.875,74,113.0
2392,E4,657.0,0.125,61,113.0
2393,A3,657.0,1.0,42,113.0
2394,F#4,657.0,1.0,42,113.0
2395,F#4,657.875,0.25,61,113.0
2396,F#5,658.0,0.875,70,113.0
2397,B3,658.0,2.0,33,113.0
2398,G#4,658.0,1.0,39,113.0
2399,G4,658.875,0.25,61,113.0
2400,G5,659.0,1.0,70,113.0
2401,A4,659.0,1.0,39,113.0
2402,B4,660.0,1.0,56,113.0
2403,E4,660.0,1.0,38,113.0
2404,G#4,660.0,1.0,38,113.0
2405,E3,660.946,1.0,35,113.0
2406,B-4,661.0,1.0,52,113.0
2407,B-4,662.75,0.25,51,113.0
2408,C#5,663.0,1.0,57,113.0
2409,B4,664.0,1.0,56,113.0
2410,B4,665.75,0.25,63,113.0
2411,D5,666.0,1.0,66,113.0
2412,F#3,666.0,0.5,47,113.0
2413,C#4,666.5,0.5,39,113.0
2414,C#5,667.0,1.0,60,113.0
2415,F#4,667.0,0.5,39,113.0
2416,E4,667.5,0.5,39,113.0
2417,D4,668.0,0.5,39,113.0
2418,C#4,668.5,0.5,39,113.0
2419,C#5,668.75,0.25,68,113.0
2420,E5,669.0,0.5,72,113.0
2421,F#3,669.0,0.5,47,113.0
2422,D5,669.5,0.5,68,113.0
2423,D4,669.5,0.5,42,113.0
2424,F5,670.0,0.5,72,113.0
2425,F#4,670.0,0.5,42,113.0
2426,E5,670.5,0.5,67,113.0
2427,D4,670.5,0.5,42,113.0
2428,G5,671.0,0.5,70,113.0
2429,C#4,671.0,0.5,42,113.0
2430,F5,671.5,0.5,66,113.0
2431,B3,671.5,0.5,42,113.0
2432,A4,672.0,1.0,56,113.0
2433,F#3,672.0,0.5,56,113.0
2434,B-3,672.5,0.5,47,113.0
2435,G#4,673.0,1.0,52,113.0
2436,E4,673.0,0.5,47,113.0
2437,C#4,673.5,0.5,47,113.0
2438,B3,674.0,0.5,47,113.0
2439,B-3,674.5,0.5,47,113.0
2440,G#4,674.75,0.25,51,113.0
2441,B4,675.0,1.0,57,113.0
2442,B3,675.0,1.0,57,113.0
2443,A4,676.0,1.0,56,113.0
2444,A4,677.75,0.25,63,113.0
2445,C5,678.0,1.0,66,113.0
2446,E3,678.0,0.5,47,113.0
2447,B3,678.5,0.5,39,113.0
2448,B4,679.0,1.0,60,113.0
2449,E4,679.0,0.5,39,113.0
2450,D4,679.5,0.5,39,113.0
2451,C4,680.0,0.5,39,113.0
2452,B3,680.5,0.5,39,113.0
2453,B4,680.75,0.25,68,113.0
2454,D5,681.0,0.5,72,113.0
2455,E3,681.0,0.5,47,113.0
2456,C5,681.5,0.5,68,113.0
2457,C4,681.5,0.5,42,113.0
2458,B4,682.0,0.5,72,113.0
2459,E4,682.0,0.5,42,113.0
2460,A4,682.5,0.5,67,113.0
2461,C4,682.5,0.5,42,113.0
2462,A5,683.0,0.375,73,113.0
2463,B3,683.0,0.5,42,113.0
2464,A5,683.5,0.375,70,113.0
2465,A3,683.5,0.5,42,113.0
2466,B5,684.0,0.5,78,113.0
2467,E3,684.0,0.5,56,113.0
2468,A5,684.5,0.5,78,113.0
2469,G#3,684.5,0.5,47,113.0
2470,G5,685.0,0.5,77,113.0
2471,D4,685.0,0.5,47,113.0
2472,F5,685.5,0.5,75,113.0
2473,B3,685.5,0.5,47,113.0
2474,E5,686.0,0.5,79,113.0
2475,A3,686.0,0.5,47,113.0
2476,E-5,686.5,0.5,75,113.0
2477,G#3,686.5,0.5,47,113.0
2478,C6,687.0,2.0,81,113.0
2479,A3,687.0,2.0,57,113.0
2480,E-5,689.0,1.0,55,113.0
2481,G2,689.0,1.0,69,113.0
2482,G3,689.0,1.0,69,113.0
2483,E5,690.0,1.5,55,113.0
2484,F2,690.0,2.0,72,113.0
2485,F3,690.0,2.0,72,113.0
2486,F#5,691.5,0.25,57,113.0
2487,E5,691.75,0.188,46,113.0
2488,E5,692.0,0.25,55,113.0
2489,D5,692.25,0.25,53,113.0
2490,C#5,692.5,0.25,52,113.0
2491,B4,692.75,0.25,51,113.0
2492,C#4,693.0,0.125,64,113.0
2493,A3,693.0,0.5,61,113.0
2494,F3,693.0,3.0,61,113.0
2495,E4,693.125,0.125,64,113.0
2496,A4,693.25,1.75,76,113.0
2497,G#3,693.5,0.5,42,113.0
2498,A3,694.0,0.5,46,113.0
2499,C4,694.5,0.5,41,113.0
2500,E4,695.0,1.0,70,113.0
2501,B3,695.0,0.5,46,113.0
2502,A3,695.5,0.5,41,113.0
2503,C#5,696.0,0.5,72,113.0
2504,E3,696.0,1.0,57,113.0
2505,G#3,696.0,1.0,57,113.0
2506,D5,696.5,0.25,74,113.0
2507,B4,696.75,0.25,70,113.0
2508,A4,697.0,0.5,70,113.0
2509,C#5,699.0,0.5,50,113.0
2510,A2,699.25,1.75,64,113.0
2511,A3,699.25,1.75,64,113.0
2512,D5,699.5,0.25,52,113.0
2513,B4,699.75,0.25,46,113.0
2514,A4,700.0,1.0,49,113.0
2515,C#6,701.0,0.5,57,113.0
2516,E2,701.0,1.0,58,113.0
2517,E3,701.0,1.0,58,113.0
2518,E-5,702.0,1.0,50,113.0
2519,C#3,702.0,1.0,52,113.0
2520,C#4,702.0,1.0,52,113.0
2521,E5,703.0,1.5,52,113.0
2522,A2,703.0,0.5,49,113.0
2523,A3,703.0,0.5,49,113.0
2524,F5,704.5,229/500,51,113.0
2525,G#5,705.0,0.5,57,113.0
2526,F#5,705.5,0.5,56,113.0
2527,E5,706.0,0.5,54,113.0
2528,D5,706.5,0.5,53,113.0
2529,C#5,707.0,0.5,52,113.0
2530,A3,707.0,0.5,40,113.0
2531,F#4,707.0,0.5,40,113.0
2532,B4,707.5,0.5,51,113.0
2533,A4,708.0,0.5,51,113.0
2534,B3,708.0,1.0,40,113.0
2535,A4,708.0,1.0,40,113.0
2536,G#4,708.5,0.5,46,113.0
2537,E5,709.0,0.5,53,113.0
2538,E4,709.0,1.0,40,113.0
2539,G#4,709.0,1.0,40,113.0
2540,D5,709.5,0.5,51,113.0
2541,B4,711.0,0.5,57,113.0
2542,A4,711.5,0.5,53,113.0
2543,F#5,712.0,0.5,57,113.0
2544,E5,712.5,0.5,56,113.0
2545,B4,714.0,0.5,63,113.0
2546,E3,714.0,0.5,39,113.0
2547,A4,714.5,0.5,59,113.0
2548,D4,714.5,0.5,33,113.0
2549,A5,715.0,0.5,62,113.0
2550,B3,715.0,0.5,33,113.0
2551,G5,715.5,0.5,59,113.0
2552,D4,715.5,0.5,28,113.0
2553,B3,716.0,0.5,31,113.0
2554,D4,716.5,0.5,29,113.0
2555,G5,717.0,0.5,55,113.0
2556,E3,717.0,0.5,40,113.0
2557,F#5,717.5,0.5,52,113.0
2558,C#4,717.5,0.5,34,113.0
2559,E5,718.0,0.5,51,113.0
2560,A3,718.0,0.5,34,113.0
2561,D5,718.5,0.5,50,113.0
2562,C#4,718.5,0.5,30,113.0
2563,C#5,719.0,0.5,49,113.0
2564,A3,719.0,0.5,32,113.0
2565,B4,719.5,0.5,47,113.0
2566,C#4,719.5,0.5,28,113.0
2567,E5,720.0,0.25,49,113.0
2568,E3,720.0,0.5,42,113.0
2569,F#5,720.25,83/1000,45,113.0
2570,E5,720.333,83/1000,45,113.0
2571,D5,720.417,83/1000,45,113.0
2572,E5,720.5,0.25,51,113.0
2573,C#4,720.5,0.5,36,113.0
2574,F#5,720.75,0.25,52,113.0
2575,A4,721.0,1.0,51,113.0
2576,A3,721.0,0.5,36,113.0
2577,C#4,721.5,0.5,34,113.0
2578,G#4,722.0,1.0,48,113.0
2579,A3,722.0,0.5,36,113.0
2580,C#4,722.5,0.5,34,113.0
2581,A4,722.75,0.125,66,113.0
2582,C#5,722.875,0.125,67,113.0
2583,E5,723.0,1.0,67,113.0
2584,D3,723.0,1.0,30,113.0
2585,A3,723.0,1.0,30,113.0
2586,D4,723.0,1.0,30,113.0
2587,E5,724.0,2.0,69,113.0
2588,E5,726.0,0.25,65,113.0
2589,C#3,726.0,0.75,40,113.0
2590,D5,726.25,0.25,64,113.0
2591,C#5,726.5,0.25,63,113.0
2592,B4,726.75,231/1000,63,113.0
2593,D3,726.75,0.25,33,113.0
2594,B4,727.0,0.25,64,113.0
2595,E3,727.0,2.0,38,113.0
2596,C#4,727.0,1.0,38,113.0
2597,A4,727.25,0.25,63,113.0
2598,G#4,727.5,0.25,62,113.0
2599,F#4,727.75,0.25,61,113.0
2600,E4,728.0,0.25,63,113.0
2601,B3,728.0,1.0,32,113.0
2602,D4,728.25,0.25,60,113.0
2603,C#4,728.5,0.25,60,113.0
2604,D4,728.75,0.25,60,113.0
2605,C#4,729.0,0.25,60,113.0
2606,A3,729.0,0.5,54,113.0
2607,E4,729.25,0.25,62,113.0
2608,A4,729.5,0.25,63,113.0
2609,C#4,729.5,0.5,46,113.0
2610,C#5,729.75,0.25,64,113.0
2611,E5,730.0,1.5,65,113.0
2612,E4,730.0,0.5,50,113.0
2613,C#4,730.5,0.5,46,113.0
2614,B3,731.0,0.5,50,113.0
2615,E6,731.5,477/1000,65,113.0
2616,A3,731.5,0.5,45,113.0
2617,E6,732.0,0.25,70,113.0
2618,G#3,732.0,0.5,54,113.0
2619,D6,732.25,0.25,70,113.0
2620,C#6,732.5,0.25,69,113.0
2621,A3,732.5,0.5,45,113.0
2622,B5,732.75,231/1000,69,113.0
2623,B5,733.0,0.25,68,113.0
2624,B3,733.0,0.5,45,113.0
2625,A5,733.25,0.25,67,113.0
2626,G#5,733.5,0.25,67,113.0
2627,E3,733.5,0.5,45,113.0
2628,F#5,733.75,0.25,66,113.0
2629,E5,734.0,0.25,66,113.0
2630,F#3,734.0,0.5,48,113.0
2631,D5,734.25,0.25,65,113.0
2632,C#5,734.5,0.25,65,113.0
2633,G#3,734.5,0.5,45,113.0
2634,D5,734.75,0.25,64,113.0
2635,C#5,735.0,0.25,63,113.0
2636,A3,735.0,0.5,54,113.0
2637,E5,735.25,0.25,64,113.0
2638,D5,735.5,0.25,60,113.0
2639,C#4,735.5,0.5,46,113.0
2640,C#5,735.75,0.25,61,113.0
2641,D5,736.0,0.25,62,113.0
2642,E4,736.0,0.5,46,113.0
2643,E5,736.25,0.25,63,113.0
2644,F#5,736.5,0.25,64,113.0
2645,C#4,736.5,0.5,46,113.0
2646,G#5,736.75,0.25,66,113.0
2647,A5,737.0,0.25,67,113.0
2648,B3,737.0,0.5,49,113.0
2649,B5,737.25,0.25,68,113.0
2650,C#6,737.5,0.25,70,113.0
2651,A3,737.5,0.5,46,113.0
2652,D6,737.75,0.25,71,113.0
2653,E6,738.0,0.25,72,113.0
2654,G#3,738.0,0.5,52,113.0
2655,D6,738.25,0.25,71,113.0
2656,C#6,738.5,0.25,69,113.0
2657,A3,738.5,0.5,44,113.0
2658,B5,738.75,0.25,68,113.0
2659,A5,739.0,0.25,66,113.0
2660,B3,739.0,0.5,51,113.0
2661,G#5,739.25,0.25,65,113.0
2662,F#5,739.5,0.25,63,113.0
2663,E3,739.5,0.5,44,113.0
2664,E5,739.75,0.25,62,113.0
2665,D5,740.0,0.25,60,113.0
2666,F#3,740.0,0.5,50,113.0
2667,C#5,740.25,0.25,59,113.0
2668,B4,740.5,0.25,57,113.0
2669,G#3,740.5,0.5,46,113.0
2670,A4,740.75,0.25,56,113.0
2671,F#5,741.0,167/1000,59,113.0
2672,A3,741.0,1.0,51,113.0
2673,G#5,741.167,167/1000,55,113.0
2674,F#5,741.333,167/1000,59,113.0
2675,F5,741.5,0.125,59,113.0
2676,F#5,741.625,0.125,55,113.0
2677,G#5,741.75,0.125,55,113.0
2678,A5,741.875,0.125,55,113.0
2679,A4,742.0,0.875,59,113.0
2680,F#3,742.0,1.0,44,113.0
2681,A3,742.0,1.0,44,113.0
2682,C#5,742.875,0.125,50,113.0
2683,B4,743.0,1.0,53,113.0
2684,G#4,743.0,1.0,53,113.0
2685,D3,743.0,1.0,47,113.0
2686,F#3,743.0,1.0,47,113.0
2687,A3,743.0,1.0,47,113.0
2688,A4,744.0,1.0,51,113.0
2689,C#3,744.0,1.0,50,113.0
2690,E3,744.0,1.0,50,113.0
2691,A3,744.0,1.0,50,113.0
2692,D3,747.0,1.0,42,113.0
2693,B3,747.0,1.0,42,113.0
2694,E3,748.0,2.0,33,113.0
2695,C#4,748.0,1.0,39,113.0
2696,D4,749.0,1.0,39,113.0
2697,A3,750.0,1.0,38,113.0
2698,C#4,750.0,1.0,38,113.0
2699,A2,751.0,1.0,35,113.0
