,note_name,start_time,duration,velocity,tempo
0,G5,0.002,31/125,79,65.07
1,E4,0.002,31/125,50,65.07
2,C4,0.25,0.25,36,65.07
3,G5,0.5,0.75,71,65.07
4,E4,0.5,0.25,43,65.07
5,C4,0.75,0.25,38,65.07
6,E4,1.0,0.25,51,65.07
7,F5,1.25,0.125,71,65.07
8,C4,1.25,0.25,40,65.07
9,E5,1.375,119/1000,69,65.07
10,E5,1.5,0.125,70,65.07
11,E4,1.5,0.25,45,65.07
12,D5,1.625,0.125,64,65.07
13,C5,1.75,0.125,67,65.07
14,C4,1.75,0.25,43,65.07
15,B4,1.875,0.125,66,65.07
16,C5,2.0,0.094,47,65.07
17,E4,2.0,0.25,51,65.07
18,D5,2.083,0.094,49,65.07
19,C5,2.167,0.094,55,65.07
20,D5,2.25,0.094,52,65.07
21,C4,2.25,0.25,45,65.07
22,C5,2.333,0.094,57,65.07
23,D5,2.417,0.094,51,65.07
24,C5,2.5,0.094,59,65.07
25,E4,2.5,0.25,51,65.07
26,D5,2.583,0.094,56,65.07
27,C5,2.667,0.125,63,65.07
28,D5,2.75,0.125,62,65.07
29,C4,2.75,0.25,40,65.07
30,E5,2.875,0.125,63,65.07
31,G4,3.0,0.5,69,65.07
32,E4,3.0,0.25,42,65.07
33,C4,3.25,0.25,28,65.07
34,E4,3.5,0.25,33,65.07
35,C4,3.75,0.25,27,65.07
36,G5,4.0,0.125,77,65.07
37,E4,4.0,0.25,51,65.07
38,G5,4.25,0.125,73,65.07
39,C4,4.25,0.25,36,65.07
40,G5,4.5,0.75,69,65.07
41,E4,4.5,0.25,43,65.07
42,C4,4.75,0.25,36,65.07
43,E4,5.0,0.25,43,65.07
44,F5,5.25,0.125,64,65.07
45,C4,5.25,0.25,36,65.07
46,E5,5.375,119/1000,61,65.07
47,E5,5.5,0.125,64,65.07
48,F4,5.5,0.25,40,65.07
49,D5,5.625,0.125,60,65.07
50,C5,5.75,0.125,61,65.07
51,C4,5.75,0.25,36,65.07
52,B4,5.875,0.125,60,65.07
53,C5,6.0,0.094,47,65.07
54,E4,6.0,0.25,38,65.07
55,D5,6.083,0.094,49,65.07
56,C5,6.167,0.094,55,65.07
57,D5,6.25,0.094,52,65.07
58,C4,6.25,0.25,34,65.07
59,C5,6.333,0.094,57,65.07
60,D5,6.417,0.094,51,65.07
61,C5,6.5,0.094,59,65.07
62,E4,6.5,0.25,39,65.07
63,D5,6.583,0.094,56,65.07
64,C5,6.667,0.125,63,65.07
65,D5,6.75,0.125,62,65.07
66,C4,6.75,0.25,33,65.07
67,E5,6.875,0.125,63,65.07
68,G4,7.0,0.5,62,65.07
69,E4,7.0,0.25,34,65.07
70,C4,7.25,0.25,27,65.07
71,E4,7.5,0.25,31,65.07
72,C4,7.75,0.25,27,65.07
73,A4,8.0,0.125,54,65.07
74,F4,8.0,0.25,34,65.07
75,C5,8.25,0.125,53,65.07
76,C4,8.25,0.25,29,65.07
77,F5,8.5,0.125,54,65.07
78,F4,8.5,0.25,34,65.07
79,A5,8.75,0.125,52,65.07
80,C4,8.75,0.25,30,65.07
81,C6,9.0,0.25,58,65.07
82,F4,9.0,0.25,34,65.07
83,C4,9.25,0.25,26,65.07
84,F4,9.5,0.25,31,65.07
85,C4,9.75,0.25,26,65.07
86,G4,10.0,0.125,56,65.07
87,E4,10.0,0.25,36,65.07
88,C5,10.25,0.125,54,65.07
89,C4,10.25,0.25,32,65.07
90,E5,10.5,0.125,56,65.07
91,E4,10.5,0.25,36,65.07
92,G5,10.75,0.125,53,65.07
93,C4,10.75,0.25,30,65.07
94,C6,11.0,0.25,61,65.07
95,E4,11.0,0.25,36,65.07
96,C4,11.25,0.25,26,65.07
97,E4,11.5,0.25,32,65.07
98,C4,11.75,0.25,27,65.07
99,G4,11.875,0.125,63,65.07
100,G5,12.0,1.5,83,65.07
101,C4,12.0,0.25,57,65.07
102,E4,12.0,0.5,57,65.07
103,G3,12.25,0.25,50,65.07
104,C4,12.5,0.25,57,65.07
105,E4,12.5,0.5,57,65.07
106,G3,12.75,0.25,50,65.07
107,D4,13.0,0.5,54,65.07
108,B3,13.0,0.25,54,65.07
109,G3,13.25,0.25,46,65.07
110,F5,13.5,83/1000,60,65.07
111,D4,13.5,0.5,50,65.07
112,B3,13.5,0.25,50,65.07
113,G5,13.583,83/1000,68,65.07
114,F5,13.667,83/1000,68,65.07
115,E5,13.75,0.125,76,65.07
116,G3,13.75,0.25,46,65.07
117,F5,13.875,0.125,71,65.07
118,E-5,14.0,0.5,78,65.07
119,C4,14.0,0.25,48,65.07
120,C3,14.25,0.25,43,65.07
121,E5,14.5,0.5,76,65.07
122,E3,14.5,0.25,48,65.07
123,G3,14.75,0.25,43,65.07
124,C4,15.0,0.25,57,65.07
125,E4,15.25,0.25,47,65.07
126,G4,15.5,0.25,52,65.07
127,E4,15.75,0.25,46,65.07
128,A4,16.0,0.25,57,65.07
129,F4,16.0,0.25,37,65.07
130,C5,16.25,0.125,57,65.07
131,C4,16.25,0.25,28,65.07
132,A4,16.375,0.125,52,65.07
133,F5,16.5,0.125,57,65.07
134,F4,16.5,0.25,37,65.07
135,C5,16.625,0.125,51,65.07
136,A5,16.75,0.125,55,65.07
137,C4,16.75,0.25,29,65.07
138,F5,16.875,0.125,50,65.07
139,C6,17.0,0.25,63,65.07
140,F4,17.0,0.25,37,65.07
141,C4,17.25,0.25,29,65.07
142,F4,17.5,0.25,33,65.07
143,C4,17.75,0.25,29,65.07
144,G4,18.0,0.25,59,65.07
145,E4,18.0,0.25,37,65.07
146,C5,18.25,0.125,59,65.07
147,C4,18.25,0.25,29,65.07
148,G4,18.375,0.125,53,65.07
149,E5,18.5,0.125,59,65.07
150,E4,18.5,0.25,37,65.07
151,C5,18.625,0.125,52,65.07
152,G5,18.75,0.125,57,65.07
153,C4,18.75,0.25,28,65.07
154,E5,18.875,0.125,50,65.07
155,C6,19.0,0.25,63,65.07
156,E4,19.0,0.25,37,65.07
157,C4,19.25,0.25,27,65.07
158,E4,19.5,0.25,32,65.07
159,C4,19.75,0.25,29,65.07
160,A5,20.0,0.25,85,65.07
161,E4,20.0,0.5,48,65.07
162,C4,20.0,0.25,48,65.07
163,G5,20.25,0.25,74,65.07
164,G3,20.25,0.25,42,65.07
165,F5,20.5,0.125,79,65.07
166,E4,20.5,0.5,45,65.07
167,C4,20.5,0.25,45,65.07
168,E5,20.75,0.125,73,65.07
169,G3,20.75,0.25,40,65.07
170,E5,21.0,0.25,85,65.07
171,D4,21.0,0.25,48,65.07
172,F4,21.0,0.5,48,65.07
173,D5,21.25,0.25,73,65.07
174,G3,21.25,0.25,42,65.07
175,C5,21.5,0.125,79,65.07
176,F4,21.5,0.5,45,65.07
177,D4,21.5,0.25,45,65.07
178,B4,21.75,0.125,73,65.07
179,G3,21.75,0.25,40,65.07
180,C5,22.0,3/20,82,65.07
181,C4,22.0,1.0,56,65.07
182,E4,22.0,1.0,56,65.07
183,G4,22.125,3/20,69,65.07
184,A4,22.25,3/20,70,65.07
185,B4,22.375,3/20,68,65.07
186,C5,22.5,3/20,73,65.07
187,D5,22.625,3/20,72,65.07
188,E5,22.75,3/20,76,65.07
189,F5,22.875,3/20,74,65.07
190,G5,23.0,3/20,77,65.07
191,A5,23.125,3/20,72,65.07
192,B5,23.25,3/20,77,65.07
193,C6,23.375,0.125,71,65.07
194,G5,23.5,0.125,75,65.07
195,G5,23.75,0.125,72,65.07
196,G3,24.0,0.5,45,65.07
197,E4,24.0,0.5,45,65.07
198,G5,24.125,0.125,54,65.07
199,A5,24.25,0.125,54,65.07
200,G5,24.375,0.125,51,65.07
201,G3,24.5,0.5,41,65.07
202,D4,24.5,0.5,41,65.07
203,F5,24.625,0.125,54,65.07
204,G5,24.75,0.125,54,65.07
205,F5,24.875,0.125,51,65.07
206,C4,25.0,0.5,46,65.07
207,G3,25.0,0.5,46,65.07
208,E5,25.125,0.125,54,65.07
209,F5,25.25,0.125,54,65.07
210,E5,25.375,0.125,50,65.07
211,B3,25.5,0.5,41,65.07
212,G3,25.5,0.5,41,65.07
213,D5,25.625,0.125,54,65.07
214,E5,25.75,0.125,54,65.07
215,D5,25.875,0.125,53,65.07
216,C5,26.0,3/20,79,65.07
217,C4,26.0,1.0,58,65.07
218,G4,26.125,3/20,72,65.07
219,A4,26.25,3/20,76,65.07
220,B4,26.375,3/20,73,65.07
221,C5,26.5,3/20,79,65.07
222,D5,26.625,3/20,75,65.07
223,E5,26.75,3/20,80,65.07
224,F5,26.875,3/20,74,65.07
225,G5,27.0,3/20,78,65.07
226,A5,27.125,3/20,74,65.07
227,B5,27.25,3/20,79,65.07
228,C6,27.375,0.125,72,65.07
229,G5,27.5,0.125,75,65.07
230,G5,27.75,0.125,72,65.07
231,E4,28.0,0.5,48,65.07
232,G3,28.0,0.5,48,65.07
233,G5,28.125,0.125,54,65.07
234,A5,28.25,0.125,54,65.07
235,G5,28.375,0.125,51,65.07
236,G3,28.5,0.5,45,65.07
237,D4,28.5,0.5,45,65.07
238,F5,28.625,0.125,54,65.07
239,G5,28.75,0.125,54,65.07
240,F5,28.875,0.125,50,65.07
241,C4,29.0,0.5,47,65.07
242,G3,29.0,0.5,47,65.07
243,E5,29.125,0.125,54,65.07
244,F5,29.25,0.125,54,65.07
245,E5,29.375,0.125,51,65.07
246,B3,29.5,0.5,45,65.07
247,G3,29.5,0.5,45,65.07
248,D5,29.625,0.125,54,65.07
249,E5,29.75,0.125,54,65.07
250,D5,29.875,0.125,51,65.07
251,C5,30.0,0.75,81,65.07
252,C3,30.0,0.125,58,65.07
253,C4,30.25,0.25,64,65.07
254,B3,30.5,0.25,56,65.07
255,D5,30.75,0.125,73,65.07
256,B-3,30.75,0.25,56,65.07
257,E5,30.875,0.125,68,65.07
258,F5,31.0,0.125,82,65.07
259,A3,31.0,0.125,59,65.07
260,F5,31.25,0.5,79,65.07
261,A3,31.25,0.25,57,65.07
262,G3,31.5,0.25,57,65.07
263,G5,31.75,0.125,76,65.07
264,F3,31.75,0.25,54,65.07
265,A5,31.875,0.125,71,65.07
266,G5,32.0,0.25,83,65.07
267,E3,32.0,0.25,57,65.07
268,E5,32.25,0.25,78,65.07
269,C6,32.5,0.125,81,65.07
270,C3,32.5,0.25,57,65.07
271,C6,32.75,0.125,79,65.07
272,D6,33.0,0.125,78,65.07
273,C6,33.125,0.125,71,65.07
274,B5,33.25,0.125,74,65.07
275,A5,33.375,119/1000,68,65.07
276,A5,33.5,0.125,69,65.07
277,C3,33.5,0.5,48,65.07
278,C4,33.5,0.5,48,65.07
279,G5,33.625,0.125,63,65.07
280,F5,33.75,0.125,67,65.07
281,E5,33.875,0.125,64,65.07
282,G5,34.0,0.75,68,65.07
283,G3,34.0,1.0,48,65.07
284,E4,34.0,0.75,48,65.07
285,E5,34.75,0.25,67,65.07
286,C4,34.75,0.25,54,65.07
287,D5,35.0,0.5,61,65.07
288,B3,35.0,0.5,48,65.07
289,G2,35.25,0.25,65,65.07
290,B2,35.5,0.25,72,65.07
291,D3,35.75,0.25,69,65.07
292,C#5,36.0,0.25,60,65.07
293,G3,36.0,0.25,45,65.07
294,D5,36.25,0.25,56,65.07
295,B3,36.25,0.25,43,65.07
296,C5,36.5,0.125,55,65.07
297,D4,36.5,0.25,41,65.07
298,B4,36.625,0.125,52,65.07
299,A4,36.75,0.125,55,65.07
300,G4,36.875,0.125,53,65.07
301,C#5,37.0,0.25,61,65.07
302,G3,37.0,0.25,45,65.07
303,D5,37.25,0.25,59,65.07
304,B3,37.25,0.25,43,65.07
305,C5,37.5,0.125,55,65.07
306,D4,37.5,0.25,41,65.07
307,B4,37.625,0.125,52,65.07
308,A4,37.75,0.125,55,65.07
309,G4,37.875,0.125,53,65.07
310,E-5,38.0,0.25,64,65.07
311,G3,38.0,0.25,44,65.07
312,E5,38.25,0.25,60,65.07
313,C4,38.25,0.25,40,65.07
314,E5,38.5,0.125,63,65.07
315,E4,38.5,0.25,43,65.07
316,E5,38.75,0.125,57,65.07
317,C4,38.75,0.25,40,65.07
318,E5,39.0,0.5,63,65.07
319,G3,39.0,0.25,44,65.07
320,C4,39.25,0.25,40,65.07
321,E4,39.5,0.25,43,65.07
322,C4,39.75,0.25,40,65.07
323,A4,39.875,0.125,64,65.07
324,A5,40.0,0.75,82,65.07
325,F#3,40.0,0.25,57,65.07
326,A3,40.25,0.25,54,65.07
327,C4,40.5,0.25,49,65.07
328,G5,40.75,83/1000,72,65.07
329,F#5,40.833,83/1000,69,65.07
330,E5,40.917,83/1000,66,65.07
331,D5,41.0,0.25,80,65.07
332,F#3,41.0,0.25,57,65.07
333,D6,41.25,0.125,75,65.07
334,A3,41.25,0.25,54,65.07
335,D6,41.5,0.125,78,65.07
336,C4,41.5,0.25,51,65.07
337,D6,41.75,0.125,74,65.07
338,D6,42.0,0.625,85,65.07
339,G3,42.0,0.25,57,65.07
340,B3,42.25,0.25,51,65.07
341,D4,42.5,0.125,53,65.07
342,B5,42.625,0.125,70,65.07
343,D6,42.75,0.125,73,65.07
344,D4,42.75,0.125,50,65.07
345,B5,42.875,0.125,70,65.07
346,G5,43.0,0.5,72,65.07
347,G3,43.0,0.25,57,65.07
348,B3,43.25,0.25,39,65.07
349,D4,43.5,0.125,42,65.07
350,D4,43.75,0.125,37,65.07
351,C#5,44.0,0.25,60,65.07
352,G3,44.0,0.25,44,65.07
353,D5,44.25,0.25,58,65.07
354,B3,44.25,0.25,41,65.07
355,C5,44.5,0.125,54,65.07
356,D4,44.5,0.25,41,65.07
357,B4,44.625,0.125,51,65.07
358,A4,44.75,0.125,54,65.07
359,G4,44.875,0.125,52,65.07
360,C#5,45.0,0.125,54,65.07
361,G3,45.0,0.25,44,65.07
362,D5,45.125,0.125,53,65.07
363,E5,45.25,0.125,55,65.07
364,B3,45.25,0.25,41,65.07
365,D5,45.375,0.125,57,65.07
366,C5,45.5,0.125,56,65.07
367,D4,45.5,0.25,41,65.07
368,B4,45.625,0.125,55,65.07
369,A4,45.75,0.125,54,65.07
370,G4,45.875,0.125,54,65.07
371,E-5,46.0,0.25,64,65.07
372,G3,46.0,0.25,43,65.07
373,E5,46.25,61/250,63,65.07
374,C4,46.25,0.25,40,65.07
375,E5,46.5,0.125,63,65.07
376,E4,46.5,0.25,40,65.07
377,E5,46.75,0.125,60,65.07
378,C4,46.75,0.25,40,65.07
379,E5,47.0,0.5,63,65.07
380,G3,47.0,0.25,45,65.07
381,C4,47.25,0.25,38,65.07
382,E4,47.5,0.25,42,65.07
383,C4,47.75,0.25,40,65.07
384,A5,48.0,3/20,77,65.07
385,F#3,48.0,2.0,54,65.07
386,C4,48.0,2.0,54,65.07
387,D4,48.0,2.0,54,65.07
388,A3,48.0,2.0,54,65.07
389,B5,48.125,3/20,71,65.07
390,C6,48.25,3/20,77,65.07
391,B5,48.375,3/20,72,65.07
392,A5,48.5,3/20,78,65.07
393,G5,48.625,3/20,74,65.07
394,F#5,48.75,3/20,78,65.07
395,E5,48.875,3/20,73,65.07
396,D5,49.0,3/20,73,65.07
397,F#5,49.125,3/20,75,65.07
398,A5,49.25,3/20,77,65.07
399,G5,49.375,3/20,72,65.07
400,F#5,49.5,3/20,75,65.07
401,E5,49.625,3/20,72,65.07
402,D5,49.75,3/20,74,65.07
403,C5,49.875,0.125,67,65.07
404,B4,50.0,0.25,78,65.07
405,C5,50.0,1/40,67,65.07
406,G3,50.0,167/1000,61,65.07
407,B3,50.167,167/1000,54,65.07
408,G4,50.333,167/1000,51,65.07
409,C5,50.5,0.062,67,65.07
410,A3,50.5,167/1000,61,65.07
411,D5,50.562,0.062,63,65.07
412,C5,50.625,0.062,67,65.07
413,C4,50.667,167/1000,53,65.07
414,D5,50.688,0.062,63,65.07
415,C5,50.75,0.062,67,65.07
416,B4,50.833,83/1000,76,65.07
417,G4,50.833,167/1000,50,65.07
418,C5,50.917,83/1000,72,65.07
419,D5,51.0,0.25,81,65.07
420,B3,51.0,167/1000,61,65.07
421,D4,51.167,167/1000,57,65.07
422,G4,51.333,167/1000,49,65.07
423,G3,51.5,167/1000,61,65.07
424,B3,51.667,167/1000,48,65.07
425,E5,51.833,83/1000,53,65.07
426,G4,51.833,167/1000,45,65.07
427,F#5,51.917,83/1000,53,65.07
428,G5,52.0,0.5,61,65.07
429,C4,52.0,167/1000,43,65.07
430,E4,52.167,167/1000,40,65.07
431,G4,52.333,167/1000,37,65.07
432,G5,52.5,0.375,56,65.07
433,C4,52.5,167/1000,43,65.07
434,E4,52.667,167/1000,40,65.07
435,G4,52.833,167/1000,38,65.07
436,G5,52.875,0.125,54,65.07
437,G5,53.0,0.5,56,65.07
438,C4,53.0,167/1000,43,65.07
439,E4,53.167,167/1000,40,65.07
440,G4,53.333,167/1000,38,65.07
441,F#5,53.5,0.125,55,65.07
442,C4,53.5,167/1000,43,65.07
443,E5,53.625,0.125,52,65.07
444,E4,53.667,167/1000,41,65.07
445,D5,53.75,0.125,53,65.07
446,G4,53.833,167/1000,39,65.07
447,C5,53.875,0.125,51,65.07
448,B4,54.0,0.25,77,65.07
449,G3,54.0,167/1000,57,65.07
450,B3,54.167,167/1000,50,65.07
451,G4,54.333,167/1000,50,65.07
452,C5,54.5,0.062,67,65.07
453,A3,54.5,167/1000,57,65.07
454,D5,54.562,0.062,63,65.07
455,C5,54.625,0.062,67,65.07
456,C4,54.667,167/1000,51,65.07
457,D5,54.688,0.062,63,65.07
458,C5,54.75,0.062,67,65.07
459,B4,54.833,83/1000,76,65.07
460,G4,54.833,167/1000,48,65.07
461,C5,54.917,83/1000,72,65.07
462,D5,55.0,0.25,82,65.07
463,B3,55.0,167/1000,57,65.07
464,D4,55.167,167/1000,52,65.07
465,G4,55.333,167/1000,46,65.07
466,G3,55.5,167/1000,57,65.07
467,B3,55.667,167/1000,50,65.07
468,E5,55.833,83/1000,53,65.07
469,G4,55.833,167/1000,47,65.07
470,F#5,55.917,83/1000,51,65.07
471,G5,56.0,0.5,61,65.07
472,C4,56.0,167/1000,38,65.07
473,E4,56.167,167/1000,36,65.07
474,G4,56.333,167/1000,36,65.07
475,G5,56.5,0.375,55,65.07
476,C4,56.5,167/1000,38,65.07
477,E4,56.667,167/1000,36,65.07
478,G4,56.833,167/1000,36,65.07
479,G5,56.875,0.125,54,65.07
480,G5,57.0,0.5,55,65.07
481,C4,57.0,167/1000,45,65.07
482,E4,57.167,167/1000,43,65.07
483,G4,57.333,167/1000,40,65.07
484,F#5,57.5,0.125,54,65.07
485,C4,57.5,167/1000,45,65.07
486,E5,57.625,0.125,53,65.07
487,E4,57.667,167/1000,44,65.07
488,D5,57.75,0.125,54,65.07
489,G4,57.833,167/1000,41,65.07
490,C5,57.875,0.125,50,65.07
491,B4,58.0,0.125,79,65.07
492,G3,58.0,0.25,61,65.07
493,G5,58.25,3/20,70,65.07
494,A5,58.375,3/20,72,65.07
495,B5,58.5,3/20,76,65.07
496,A5,58.625,3/20,72,65.07
497,G5,58.75,3/20,77,65.07
498,F#5,58.875,3/20,72,65.07
499,E5,59.0,3/20,77,65.07
500,C3,59.0,0.25,61,65.07
501,D5,59.125,3/20,72,65.07
502,C5,59.25,3/20,77,65.07
503,B4,59.375,3/20,72,65.07
504,A4,59.5,3/20,74,65.07
505,G4,59.625,3/20,72,65.07
506,F#4,59.75,3/20,75,65.07
507,E4,59.875,0.125,69,65.07
508,D4,60.0,0.25,81,65.07
509,E4,60.0,1/40,69,65.07
510,D3,60.0,0.25,63,65.07
511,C4,60.5,1.0,89,65.07
512,F#3,60.5,1.0,56,65.07
513,E-3,60.5,1.0,56,65.07
514,A3,60.5,1.0,56,65.07
515,B3,61.5,0.5,72,65.07
516,E3,61.5,0.5,44,65.07
517,G3,61.5,0.5,44,65.07
518,C3,62.0,0.5,40,65.07
519,E3,62.0,0.5,40,65.07
520,A3,62.25,0.125,55,65.07
521,C4,62.5,0.125,55,65.07
522,E4,62.75,0.125,53,65.07
523,G#4,63.0,0.25,55,65.07
524,A4,63.25,0.25,53,65.07
525,C5,63.5,0.25,55,65.07
526,E5,63.75,0.25,54,65.07
527,E5,64.0,0.25,63,65.07
528,G4,64.25,229/1000,55,65.07
529,G4,64.5,1.0,55,65.07
530,D3,64.5,1.5,44,65.07
531,B3,64.5,0.5,44,65.07
532,C4,65.0,1.0,44,65.07
533,B4,65.5,0.25,56,65.07
534,F#4,65.5,0.5,56,65.07
535,A4,65.75,0.25,54,65.07
536,G4,66.0,0.5,54,65.07
537,G3,66.0,0.25,46,65.07
538,B3,66.0,0.5,46,65.07
539,G2,66.5,0.25,44,65.07
540,D5,67.0,0.25,75,65.07
541,B4,67.25,0.25,67,65.07
542,G5,67.5,0.25,54,65.07
543,F#5,67.75,0.125,53,65.07
544,E5,68.0,0.125,51,65.07
545,D5,68.25,0.125,49,65.07
546,C5,68.5,0.125,48,65.07
547,B4,68.75,0.125,50,65.07
548,A4,69.0,0.25,53,65.07
549,B4,69.5,0.25,54,65.07
550,D5,70.0,0.25,58,65.07
551,C#5,70.25,0.25,54,65.07
552,C5,70.5,0.25,51,65.07
553,F#3,70.5,0.5,40,65.07
554,D4,70.5,1.0,40,65.07
555,B4,71.0,0.25,51,65.07
556,G3,71.0,0.5,43,65.07
557,C5,71.25,0.25,54,65.07
558,D5,71.5,0.25,57,65.07
559,E-5,71.75,0.125,59,65.07
560,E5,72.0,3/40,49,65.07
561,C3,72.0,1.0,43,65.07
562,G3,72.0,1.0,43,65.07
563,F#5,72.075,3/40,51,65.07
564,E5,72.15,3/40,54,65.07
565,F#5,72.225,3/40,56,65.07
566,E5,72.3,3/40,58,65.07
567,F#5,72.375,0.125,62,65.07
568,G5,72.5,0.125,68,65.07
569,F#5,72.75,0.125,64,65.07
570,E5,73.0,0.125,63,65.07
571,D5,73.25,0.125,59,65.07
572,C5,73.5,0.125,60,65.07
573,E3,73.5,0.5,43,65.07
574,C#3,73.5,0.5,43,65.07
575,B4,73.75,0.125,56,65.07
576,D5,74.0,0.375,64,65.07
577,D3,74.0,1.0,43,65.07
578,G3,74.0,0.5,43,65.07
579,B4,74.375,0.125,59,65.07
580,A4,74.5,0.25,55,65.07
581,F#3,74.5,0.5,41,65.07
582,D5,75.0,0.375,86,65.07
583,D4,75.0,0.375,77,65.07
584,E5,75.375,0.062,81,65.07
585,E4,75.375,0.062,70,65.07
586,F#5,75.438,0.062,78,65.07
587,F#4,75.438,0.062,66,65.07
588,G5,75.5,0.25,86,65.07
589,G4,75.5,0.25,71,65.07
590,F#5,75.75,0.125,62,65.07
591,F#4,75.75,0.125,56,65.07
592,E5,76.0,0.125,62,65.07
593,E4,76.0,0.125,56,65.07
594,D5,76.25,0.125,58,65.07
595,D4,76.25,0.125,52,65.07
596,C5,76.5,0.125,62,65.07
597,C4,76.5,0.125,56,65.07
598,B4,76.75,0.125,57,65.07
599,B3,76.75,0.125,52,65.07
600,A4,77.0,0.25,63,65.07
601,A3,77.0,0.25,57,65.07
602,B4,77.5,0.25,70,65.07
603,B3,77.5,0.25,62,65.07
604,C5,78.0,0.25,72,65.07
605,C4,78.0,0.25,67,65.07
606,C#5,78.5,0.25,78,65.07
607,C#4,78.5,0.25,65,65.07
608,D5,79.0,0.25,83,65.07
609,D4,79.0,0.25,70,65.07
610,E-5,79.5,0.25,83,65.07
611,E-4,79.5,0.25,66,65.07
612,E5,80.0,0.375,87,65.07
613,E4,80.0,177/500,72,65.07
614,E4,80.375,0.125,82,65.07
615,C5,80.5,0.375,72,65.07
616,C3,80.5,0.5,43,65.07
617,A3,80.5,0.5,43,65.07
618,A4,80.875,0.125,72,65.07
619,G4,81.0,0.5,69,65.07
620,D3,81.0,1.0,43,65.07
621,B3,81.0,0.5,43,65.07
622,B4,81.438,0.062,57,65.07
623,C4,81.5,0.5,43,65.07
624,A4,81.5,0.5,63,65.07
625,F#4,81.5,0.5,63,65.07
626,G4,82.0,0.5,71,65.07
627,G3,82.0,0.25,60,65.07
628,B3,82.25,0.25,50,65.07
629,D4,82.5,0.25,54,65.07
630,G5,82.625,0.125,74,65.07
631,A5,82.75,0.125,77,65.07
632,B3,82.75,0.25,48,65.07
633,G5,82.875,0.125,73,65.07
634,E5,83.0,0.125,78,65.07
635,G3,83.0,0.25,56,65.07
636,G5,83.125,0.125,74,65.07
637,A5,83.25,0.125,77,65.07
638,C4,83.25,0.25,45,65.07
639,G5,83.375,0.125,74,65.07
640,C6,83.5,0.125,81,65.07
641,E4,83.5,0.25,49,65.07
642,G5,83.625,0.125,76,65.07
643,E5,83.75,0.125,78,65.07
644,C4,83.75,0.25,47,65.07
645,C5,83.875,0.125,73,65.07
646,G5,84.0,0.125,83,65.07
647,G3,84.0,0.25,56,65.07
648,G5,84.25,0.125,81,65.07
649,B3,84.25,0.25,50,65.07
650,D4,84.5,0.25,54,65.07
651,G5,84.625,0.125,73,65.07
652,A5,84.75,0.125,77,65.07
653,B3,84.75,0.25,47,65.07
654,G5,84.875,0.125,73,65.07
655,E5,85.0,0.125,78,65.07
656,G3,85.0,0.25,56,65.07
657,G5,85.125,0.125,74,65.07
658,A5,85.25,0.125,76,65.07
659,C4,85.25,0.25,50,65.07
660,G5,85.375,0.125,74,65.07
661,C6,85.5,0.125,81,65.07
662,E4,85.5,0.25,54,65.07
663,G5,85.625,0.125,75,65.07
664,E5,85.75,0.125,77,65.07
665,C4,85.75,0.25,49,65.07
666,C5,85.875,0.125,73,65.07
667,G5,86.0,0.125,84,65.07
668,B3,86.0,0.5,56,65.07
669,D4,86.0,0.5,56,65.07
670,G3,86.0,0.5,56,65.07
671,G5,86.25,0.125,82,65.07
672,C5,86.5,0.5,41,65.07
673,D5,86.625,0.125,55,65.07
674,F#5,86.75,0.125,55,65.07
675,D5,86.875,0.125,53,65.07
676,G5,87.0,0.125,59,65.07
677,B4,87.0,0.5,44,65.07
678,G5,87.25,0.125,59,65.07
679,C5,87.5,0.5,43,65.07
680,D5,87.625,0.125,54,65.07
681,F#5,87.75,0.125,54,65.07
682,D5,87.875,0.125,52,65.07
683,G5,88.0,0.125,59,65.07
684,B4,88.0,0.5,45,65.07
685,G5,88.25,0.125,59,65.07
686,F#4,88.5,0.125,52,65.07
687,D5,88.625,0.125,67,65.07
688,A5,88.75,0.125,71,65.07
689,F#4,88.75,0.125,54,65.07
690,D5,88.875,0.125,69,65.07
691,B5,89.0,0.125,75,65.07
692,G4,89.0,0.125,57,65.07
693,D5,89.125,0.125,73,65.07
694,B5,89.25,0.125,79,65.07
695,G4,89.25,0.125,60,65.07
696,D5,89.375,0.125,76,65.07
697,C6,89.5,0.125,83,65.07
698,A4,89.5,0.125,62,65.07
699,D5,89.625,0.125,81,65.07
700,C6,89.75,0.125,88,65.07
701,A4,89.75,0.125,65,65.07
702,D5,89.875,0.125,84,65.07
703,D6,90.0,0.25,91,65.07
704,B4,90.0,0.5,67,65.07
705,B5,90.25,0.25,79,65.07
706,G5,90.5,0.25,84,65.07
707,B5,90.75,0.25,73,65.07
708,D5,91.0,0.25,78,65.07
709,G5,91.25,0.25,70,65.07
710,B4,91.5,0.25,72,65.07
711,D5,91.75,0.25,68,65.07
712,A4,92.0,0.25,60,65.07
713,E5,92.25,0.25,63,65.07
714,D5,92.5,0.125,63,65.07
715,C3,92.5,0.5,44,65.07
716,A3,92.5,0.5,44,65.07
717,E3,92.5,0.5,44,65.07
718,C5,92.625,0.125,60,65.07
719,B4,92.75,0.125,63,65.07
720,A4,92.875,0.125,60,65.07
721,G4,93.0,0.5,63,65.07
722,D3,93.0,1.0,44,65.07
723,G3,93.0,0.5,44,65.07
724,B3,93.0,0.5,44,65.07
725,F#4,93.5,67/1000,60,65.07
726,C4,93.5,0.5,44,65.07
727,A3,93.5,0.5,44,65.07
728,G4,93.567,67/1000,63,65.07
729,F#4,93.633,67/1000,60,65.07
730,G4,93.7,67/1000,63,65.07
731,F#4,93.767,67/1000,63,65.07
732,E4,93.833,83/1000,63,65.07
733,F#4,93.917,83/1000,60,65.07
734,G4,94.0,0.5,77,65.07
735,G3,94.0,0.25,51,65.07
736,B3,94.25,0.25,46,65.07
737,D4,94.5,0.25,54,65.07
738,G5,94.625,0.125,74,65.07
739,A5,94.75,0.125,77,65.07
740,B3,94.75,0.25,49,65.07
741,G5,94.875,0.125,75,65.07
742,E5,95.0,0.125,81,65.07
743,G3,95.0,0.25,54,65.07
744,G5,95.125,0.125,75,65.07
745,A5,95.25,0.125,79,65.07
746,C4,95.25,0.25,50,65.07
747,G5,95.375,0.125,75,65.07
748,C6,95.5,0.125,81,65.07
749,E4,95.5,0.25,54,65.07
750,G5,95.625,0.125,78,65.07
751,E5,95.75,0.125,79,65.07
752,C4,95.75,0.25,50,65.07
753,C5,95.875,0.125,75,65.07
754,G5,96.0,0.125,84,65.07
755,G3,96.0,0.25,58,65.07
756,G5,96.25,0.125,81,65.07
757,B3,96.25,0.25,50,65.07
758,D4,96.5,0.25,54,65.07
759,G5,96.625,0.125,75,65.07
760,A5,96.75,0.125,77,65.07
761,B3,96.75,0.25,54,65.07
762,G5,96.875,0.125,73,65.07
763,E5,97.0,0.125,81,65.07
764,G3,97.0,0.25,54,65.07
765,G5,97.125,0.125,75,65.07
766,A5,97.25,0.125,78,65.07
767,C4,97.25,0.25,50,65.07
768,G5,97.375,0.125,77,65.07
769,C6,97.5,0.125,81,65.07
770,E4,97.5,0.25,54,65.07
771,G5,97.625,0.125,76,65.07
772,E5,97.75,0.125,78,65.07
773,C4,97.75,0.25,50,65.07
774,C5,97.875,0.125,75,65.07
775,G5,98.0,0.125,84,65.07
776,B3,98.0,0.5,58,65.07
777,D4,98.0,0.5,58,65.07
778,G3,98.0,0.5,58,65.07
779,G5,98.25,0.125,82,65.07
780,C5,98.5,0.5,43,65.07
781,D5,98.625,0.125,54,65.07
782,F#5,98.75,0.125,54,65.07
783,D5,98.875,0.125,50,65.07
784,G5,99.0,0.125,56,65.07
785,B4,99.0,0.5,45,65.07
786,G5,99.25,0.125,57,65.07
787,C5,99.5,0.5,43,65.07
788,D5,99.625,0.125,54,65.07
789,F#5,99.75,0.125,54,65.07
790,D5,99.875,0.125,50,65.07
791,G5,100.0,0.125,57,65.07
792,B4,100.0,0.5,45,65.07
793,G5,100.25,0.125,57,65.07
794,F#4,100.5,0.125,48,65.07
795,D5,100.625,0.125,67,65.07
796,A5,100.75,0.125,71,65.07
797,F#4,100.75,0.125,51,65.07
798,D5,100.875,0.125,66,65.07
799,B5,101.0,0.125,75,65.07
800,G4,101.0,0.125,54,65.07
801,D5,101.125,0.125,73,65.07
802,B5,101.25,0.125,81,65.07
803,G4,101.25,0.125,57,65.07
804,D5,101.375,0.125,77,65.07
805,C6,101.5,0.125,84,65.07
806,A4,101.5,0.125,61,65.07
807,D5,101.625,0.125,82,65.07
808,C6,101.75,0.125,90,65.07
809,A4,101.75,0.125,64,65.07
810,D5,101.875,0.125,85,65.07
811,D6,102.0,0.125,94,65.07
812,B4,102.0,0.5,67,65.07
813,B5,102.125,0.125,85,65.07
814,D6,102.25,0.125,89,65.07
815,B5,102.375,0.125,83,65.07
816,G5,102.5,0.125,87,65.07
817,B5,102.625,0.125,81,65.07
818,G5,102.75,0.125,85,65.07
819,B5,102.875,0.125,81,65.07
820,D5,103.0,0.125,86,65.07
821,G5,103.125,0.125,80,65.07
822,D5,103.25,0.125,81,65.07
823,G5,103.375,0.125,74,65.07
824,B4,103.5,0.125,73,65.07
825,D5,103.625,0.125,68,65.07
826,B4,103.75,0.125,68,65.07
827,D5,103.875,0.125,63,65.07
828,A4,104.0,0.125,54,65.07
829,E5,104.125,0.125,51,65.07
830,E-5,104.25,0.125,54,65.07
831,E5,104.375,0.125,52,65.07
832,D5,104.5,0.125,54,65.07
833,A3,104.5,0.5,44,65.07
834,C3,104.5,0.5,44,65.07
835,E3,104.5,0.5,44,65.07
836,C5,104.625,0.125,51,65.07
837,B4,104.75,0.125,54,65.07
838,A4,104.875,0.125,52,65.07
839,G4,105.0,0.5,63,65.07
840,D3,105.0,1.0,44,65.07
841,B3,105.0,0.5,44,65.07
842,G3,105.0,0.5,44,65.07
843,F#4,105.5,67/1000,60,65.07
844,A3,105.5,0.5,44,65.07
845,C4,105.5,0.5,44,65.07
846,G4,105.567,67/1000,63,65.07
847,F#4,105.633,67/1000,60,65.07
848,G4,105.7,67/1000,63,65.07
849,F#4,105.767,67/1000,63,65.07
850,E4,105.833,83/1000,63,65.07
851,F#4,105.917,83/1000,60,65.07
852,G4,106.0,0.375,86,65.07
853,G3,106.0,0.375,78,65.07
854,D4,106.375,0.125,81,65.07
855,D3,106.375,0.125,72,65.07
856,B4,106.5,0.375,86,65.07
857,B3,106.5,0.375,78,65.07
858,G4,106.875,0.125,81,65.07
859,G3,106.875,0.125,72,65.07
860,D5,107.0,0.25,87,65.07
861,D4,107.0,0.25,77,65.07
862,A5,107.5,3/20,54,65.07
863,G5,107.625,3/20,51,65.07
864,F#5,107.75,3/20,54,65.07
865,E5,107.875,0.125,52,65.07
866,D5,108.0,0.25,57,65.07
867,E5,108.0,1/40,52,65.07
868,G3,108.0,0.25,41,65.07
869,B3,108.0,0.25,41,65.07
870,D3,108.0,0.25,41,65.07
871,E5,108.5,3/20,54,65.07
872,D5,108.625,3/20,51,65.07
873,C5,108.75,3/20,54,65.07
874,B4,108.875,3/20,51,65.07
875,A4,109.0,0.25,57,65.07
876,D3,109.0,0.25,41,65.07
877,F#3,109.0,0.25,41,65.07
878,C4,109.0,0.25,41,65.07
879,D5,109.5,3/20,56,65.07
880,C5,109.625,3/20,56,65.07
881,B4,109.75,3/20,56,65.07
882,A4,109.875,0.125,53,65.07
883,G4,110.0,0.125,84,65.07
884,A4,110.0,1/40,53,65.07
885,G3,110.0,0.125,72,65.07
886,D4,110.125,0.125,80,65.07
887,D3,110.125,0.125,67,65.07
888,G4,110.25,0.125,84,65.07
889,G3,110.25,0.125,72,65.07
890,D4,110.375,0.125,80,65.07
891,D3,110.375,0.125,67,65.07
892,B4,110.5,0.125,84,65.07
893,B3,110.5,0.125,72,65.07
894,G4,110.625,0.125,80,65.07
895,G3,110.625,0.125,67,65.07
896,B4,110.75,0.125,84,65.07
897,B3,110.75,0.125,72,65.07
898,G4,110.875,0.125,80,65.07
899,G3,110.875,0.125,66,65.07
900,D5,111.0,0.25,84,65.07
901,D4,111.0,0.25,72,65.07
902,A5,111.5,3/20,55,65.07
903,G5,111.625,3/20,52,65.07
904,F#5,111.75,3/20,55,65.07
905,E5,111.875,0.125,52,65.07
906,D5,112.0,0.125,58,65.07
907,E5,112.0,1/40,52,65.07
908,B3,112.0,0.25,45,65.07
909,D3,112.0,0.25,45,65.07
910,G3,112.0,0.25,45,65.07
911,D5,112.25,0.125,58,65.07
912,E5,112.5,3/20,54,65.07
913,D5,112.625,3/20,51,65.07
914,C5,112.75,3/20,54,65.07
915,B4,112.875,3/20,50,65.07
916,A4,113.0,0.125,57,65.07
917,F#3,113.0,0.25,45,65.07
918,C4,113.0,0.25,45,65.07
919,D3,113.0,0.25,45,65.07
920,A4,113.25,0.125,57,65.07
921,D5,113.5,3/20,55,65.07
922,C5,113.625,3/20,53,65.07
923,B4,113.75,3/20,55,65.07
924,A4,113.875,0.125,52,65.07
925,G4,114.0,0.5,58,65.07
926,A4,114.0,1/40,52,65.07
927,B3,114.0,0.5,46,65.07
928,G3,114.0,0.5,46,65.07
929,G3,114.5,0.25,46,65.07
930,B4,114.5,0.25,54,65.07
931,D4,114.5,0.25,54,65.07
932,G2,115.0,0.25,46,65.07
933,G4,115.0,0.25,56,65.07
934,B3,115.0,0.25,56,65.07
935,G5,116.002,31/125,79,65.07
936,E4,116.002,31/125,50,65.07
937,C4,116.25,0.25,36,65.07
938,G5,116.5,0.75,71,65.07
939,E4,116.5,0.25,43,65.07
940,C4,116.75,0.25,38,65.07
941,E4,117.0,0.25,51,65.07
942,F5,117.25,0.125,71,65.07
943,C4,117.25,0.25,40,65.07
944,E5,117.375,119/1000,69,65.07
945,E5,117.5,0.125,70,65.07
946,E4,117.5,0.25,45,65.07
947,D5,117.625,0.125,64,65.07
948,C5,117.75,0.125,67,65.07
949,C4,117.75,0.25,43,65.07
950,B4,117.875,0.125,66,65.07
951,C5,118.0,0.094,47,65.07
952,E4,118.0,0.25,51,65.07
953,D5,118.083,0.094,49,65.07
954,C5,118.167,0.094,55,65.07
955,D5,118.25,0.094,52,65.07
956,C4,118.25,0.25,45,65.07
957,C5,118.333,0.094,57,65.07
958,D5,118.417,0.094,51,65.07
959,C5,118.5,0.094,59,65.07
960,E4,118.5,0.25,51,65.07
961,D5,118.583,0.094,56,65.07
962,C5,118.667,0.125,63,65.07
963,D5,118.75,0.125,62,65.07
964,C4,118.75,0.25,40,65.07
965,E5,118.875,0.125,63,65.07
966,G4,119.0,0.5,69,65.07
967,E4,119.0,0.25,42,65.07
968,C4,119.25,0.25,28,65.07
969,E4,119.5,0.25,33,65.07
970,C4,119.75,0.25,27,65.07
971,G5,120.0,0.125,77,65.07
972,E4,120.0,0.25,51,65.07
973,G5,120.25,0.125,73,65.07
974,C4,120.25,0.25,36,65.07
975,G5,120.5,0.75,69,65.07
976,E4,120.5,0.25,43,65.07
977,C4,120.75,0.25,36,65.07
978,E4,121.0,0.25,43,65.07
979,F5,121.25,0.125,64,65.07
980,C4,121.25,0.25,36,65.07
981,E5,121.375,119/1000,61,65.07
982,E5,121.5,0.125,64,65.07
983,F4,121.5,0.25,40,65.07
984,D5,121.625,0.125,60,65.07
985,C5,121.75,0.125,61,65.07
986,C4,121.75,0.25,36,65.07
987,B4,121.875,0.125,60,65.07
988,C5,122.0,0.094,47,65.07
989,E4,122.0,0.25,38,65.07
990,D5,122.083,0.094,49,65.07
991,C5,122.167,0.094,55,65.07
992,D5,122.25,0.094,52,65.07
993,C4,122.25,0.25,34,65.07
994,C5,122.333,0.094,57,65.07
995,D5,122.417,0.094,51,65.07
996,C5,122.5,0.094,59,65.07
997,E4,122.5,0.25,39,65.07
998,D5,122.583,0.094,56,65.07
999,C5,122.667,0.125,63,65.07
1000,D5,122.75,0.125,62,65.07
1001,C4,122.75,0.25,33,65.07
1002,E5,122.875,0.125,63,65.07
1003,G4,123.0,0.5,62,65.07
1004,E4,123.0,0.25,34,65.07
1005,C4,123.25,0.25,27,65.07
1006,E4,123.5,0.25,31,65.07
1007,C4,123.75,0.25,27,65.07
1008,A4,124.0,0.125,54,65.07
1009,F4,124.0,0.25,34,65.07
1010,C5,124.25,0.125,53,65.07
1011,C4,124.25,0.25,29,65.07
1012,F5,124.5,0.125,54,65.07
1013,F4,124.5,0.25,34,65.07
1014,A5,124.75,0.125,52,65.07
1015,C4,124.75,0.25,30,65.07
1016,C6,125.0,0.25,58,65.07
1017,F4,125.0,0.25,34,65.07
1018,C4,125.25,0.25,26,65.07
1019,F4,125.5,0.25,31,65.07
1020,C4,125.75,0.25,26,65.07
1021,G4,126.0,0.125,56,65.07
1022,E4,126.0,0.25,36,65.07
1023,C5,126.25,0.125,54,65.07
1024,C4,126.25,0.25,32,65.07
1025,E5,126.5,0.125,56,65.07
1026,E4,126.5,0.25,36,65.07
1027,G5,126.75,0.125,53,65.07
1028,C4,126.75,0.25,30,65.07
1029,C6,127.0,0.25,61,65.07
1030,E4,127.0,0.25,36,65.07
1031,C4,127.25,0.25,26,65.07
1032,E4,127.5,0.25,32,65.07
1033,C4,127.75,0.25,27,65.07
1034,G4,127.875,0.125,63,65.07
1035,G5,128.0,1.5,83,65.07
1036,C4,128.0,0.25,57,65.07
1037,E4,128.0,0.5,57,65.07
1038,G3,128.25,0.25,50,65.07
1039,C4,128.5,0.25,57,65.07
1040,E4,128.5,0.5,57,65.07
1041,G3,128.75,0.25,50,65.07
1042,D4,129.0,0.5,54,65.07
1043,B3,129.0,0.25,54,65.07
1044,G3,129.25,0.25,46,65.07
1045,F5,129.5,83/1000,60,65.07
1046,D4,129.5,0.5,50,65.07
1047,B3,129.5,0.25,50,65.07
1048,G5,129.583,83/1000,68,65.07
1049,F5,129.667,83/1000,68,65.07
1050,E5,129.75,0.125,76,65.07
1051,G3,129.75,0.25,46,65.07
1052,F5,129.875,0.125,71,65.07
1053,E-5,130.0,0.5,78,65.07
1054,C4,130.0,0.25,48,65.07
1055,C3,130.25,0.25,43,65.07
1056,E5,130.5,0.5,76,65.07
1057,E3,130.5,0.25,48,65.07
1058,G3,130.75,0.25,43,65.07
1059,C4,131.0,0.25,57,65.07
1060,E4,131.25,0.25,47,65.07
1061,G4,131.5,0.25,52,65.07
1062,E4,131.75,0.25,46,65.07
1063,A4,132.0,0.25,57,65.07
1064,F4,132.0,0.25,37,65.07
1065,C5,132.25,0.125,57,65.07
1066,C4,132.25,0.25,28,65.07
1067,A4,132.375,0.125,52,65.07
1068,F5,132.5,0.125,57,65.07
1069,F4,132.5,0.25,37,65.07
1070,C5,132.625,0.125,51,65.07
1071,A5,132.75,0.125,55,65.07
1072,C4,132.75,0.25,29,65.07
1073,F5,132.875,0.125,50,65.07
1074,C6,133.0,0.25,63,65.07
1075,F4,133.0,0.25,37,65.07
1076,C4,133.25,0.25,29,65.07
1077,F4,133.5,0.25,33,65.07
1078,C4,133.75,0.25,29,65.07
1079,G4,134.0,0.25,59,65.07
1080,E4,134.0,0.25,37,65.07
1081,C5,134.25,0.125,59,65.07
1082,C4,134.25,0.25,29,65.07
1083,G4,134.375,0.125,53,65.07
1084,E5,134.5,0.125,59,65.07
1085,E4,134.5,0.25,37,65.07
1086,C5,134.625,0.125,52,65.07
1087,G5,134.75,0.125,57,65.07
1088,C4,134.75,0.25,28,65.07
1089,E5,134.875,0.125,50,65.07
1090,C6,135.0,0.25,63,65.07
1091,E4,135.0,0.25,37,65.07
1092,C4,135.25,0.25,27,65.07
1093,E4,135.5,0.25,32,65.07
1094,C4,135.75,0.25,29,65.07
1095,A5,136.0,0.25,85,65.07
1096,E4,136.0,0.5,48,65.07
1097,C4,136.0,0.25,48,65.07
1098,G5,136.25,0.25,74,65.07
1099,G3,136.25,0.25,42,65.07
1100,F5,136.5,0.125,79,65.07
1101,E4,136.5,0.5,45,65.07
1102,C4,136.5,0.25,45,65.07
1103,E5,136.75,0.125,73,65.07
1104,G3,136.75,0.25,40,65.07
1105,E5,137.0,0.25,85,65.07
1106,D4,137.0,0.25,48,65.07
1107,F4,137.0,0.5,48,65.07
1108,D5,137.25,0.25,73,65.07
1109,G3,137.25,0.25,42,65.07
1110,C5,137.5,0.125,79,65.07
1111,F4,137.5,0.5,45,65.07
1112,D4,137.5,0.25,45,65.07
1113,B4,137.75,0.125,73,65.07
1114,G3,137.75,0.25,40,65.07
1115,C5,138.0,3/20,82,65.07
1116,C4,138.0,1.0,56,65.07
1117,E4,138.0,1.0,56,65.07
1118,G4,138.125,3/20,69,65.07
1119,A4,138.25,3/20,70,65.07
1120,B4,138.375,3/20,68,65.07
1121,C5,138.5,3/20,73,65.07
1122,D5,138.625,3/20,72,65.07
1123,E5,138.75,3/20,76,65.07
1124,F5,138.875,3/20,74,65.07
1125,G5,139.0,3/20,77,65.07
1126,A5,139.125,3/20,72,65.07
1127,B5,139.25,3/20,77,65.07
1128,C6,139.375,0.125,71,65.07
1129,G5,139.5,0.125,75,65.07
1130,G5,139.75,0.125,72,65.07
1131,G3,140.0,0.5,45,65.07
1132,E4,140.0,0.5,45,65.07
1133,G5,140.125,0.125,54,65.07
1134,A5,140.25,0.125,54,65.07
1135,G5,140.375,0.125,51,65.07
1136,G3,140.5,0.5,41,65.07
1137,D4,140.5,0.5,41,65.07
1138,F5,140.625,0.125,54,65.07
1139,G5,140.75,0.125,54,65.07
1140,F5,140.875,0.125,51,65.07
1141,C4,141.0,0.5,46,65.07
1142,G3,141.0,0.5,46,65.07
1143,E5,141.125,0.125,54,65.07
1144,F5,141.25,0.125,54,65.07
1145,E5,141.375,0.125,50,65.07
1146,B3,141.5,0.5,41,65.07
1147,G3,141.5,0.5,41,65.07
1148,D5,141.625,0.125,54,65.07
1149,E5,141.75,0.125,54,65.07
1150,D5,141.875,0.125,53,65.07
1151,C5,142.0,3/20,79,65.07
1152,C4,142.0,1.0,58,65.07
1153,G4,142.125,3/20,72,65.07
1154,A4,142.25,3/20,76,65.07
1155,B4,142.375,3/20,73,65.07
1156,C5,142.5,3/20,79,65.07
1157,D5,142.625,3/20,75,65.07
1158,E5,142.75,3/20,80,65.07
1159,F5,142.875,3/20,74,65.07
1160,G5,143.0,3/20,78,65.07
1161,A5,143.125,3/20,74,65.07
1162,B5,143.25,3/20,79,65.07
1163,C6,143.375,0.125,72,65.07
1164,G5,143.5,0.125,75,65.07
1165,G5,143.75,0.125,72,65.07
1166,E4,144.0,0.5,48,65.07
1167,G3,144.0,0.5,48,65.07
1168,G5,144.125,0.125,54,65.07
1169,A5,144.25,0.125,54,65.07
1170,G5,144.375,0.125,51,65.07
1171,G3,144.5,0.5,45,65.07
1172,D4,144.5,0.5,45,65.07
1173,F5,144.625,0.125,54,65.07
1174,G5,144.75,0.125,54,65.07
1175,F5,144.875,0.125,50,65.07
1176,C4,145.0,0.5,47,65.07
1177,G3,145.0,0.5,47,65.07
1178,E5,145.125,0.125,54,65.07
1179,F5,145.25,0.125,54,65.07
1180,E5,145.375,0.125,51,65.07
1181,B3,145.5,0.5,45,65.07
1182,G3,145.5,0.5,45,65.07
1183,D5,145.625,0.125,54,65.07
1184,E5,145.75,0.125,54,65.07
1185,D5,145.875,0.125,51,65.07
1186,C5,146.0,0.75,81,65.07
1187,C3,146.0,0.125,58,65.07
1188,C4,146.25,0.25,64,65.07
1189,B3,146.5,0.25,56,65.07
1190,D5,146.75,0.125,73,65.07
1191,B-3,146.75,0.25,56,65.07
1192,E5,146.875,0.125,68,65.07
1193,F5,147.0,0.125,82,65.07
1194,A3,147.0,0.125,59,65.07
1195,F5,147.25,0.5,79,65.07
1196,A3,147.25,0.25,57,65.07
1197,G3,147.5,0.25,57,65.07
1198,G5,147.75,0.125,76,65.07
1199,F3,147.75,0.25,54,65.07
1200,A5,147.875,0.125,71,65.07
1201,G5,148.0,0.25,83,65.07
1202,E3,148.0,0.25,57,65.07
1203,E5,148.25,0.25,78,65.07
1204,C6,148.5,0.125,81,65.07
1205,C3,148.5,0.25,57,65.07
1206,C6,148.75,0.125,79,65.07
1207,D6,149.0,0.125,78,65.07
1208,C6,149.125,0.125,71,65.07
1209,B5,149.25,0.125,74,65.07
1210,A5,149.375,119/1000,68,65.07
1211,A5,149.5,0.125,69,65.07
1212,C3,149.5,0.5,48,65.07
1213,C4,149.5,0.5,48,65.07
1214,G5,149.625,0.125,63,65.07
1215,F5,149.75,0.125,67,65.07
1216,E5,149.875,0.125,64,65.07
1217,G5,150.0,0.75,68,65.07
1218,G3,150.0,1.0,48,65.07
1219,E4,150.0,0.75,48,65.07
1220,E5,150.75,0.25,67,65.07
1221,C4,150.75,0.25,54,65.07
1222,D5,151.0,0.5,61,65.07
1223,B3,151.0,0.5,48,65.07
1224,G2,151.25,0.25,65,65.07
1225,B2,151.5,0.25,72,65.07
1226,D3,151.75,0.25,69,65.07
1227,C#5,152.0,0.25,60,65.07
1228,G3,152.0,0.25,45,65.07
1229,D5,152.25,0.25,56,65.07
1230,B3,152.25,0.25,43,65.07
1231,C5,152.5,0.125,55,65.07
1232,D4,152.5,0.25,41,65.07
1233,B4,152.625,0.125,52,65.07
1234,A4,152.75,0.125,55,65.07
1235,G4,152.875,0.125,53,65.07
1236,C#5,153.0,0.25,61,65.07
1237,G3,153.0,0.25,45,65.07
1238,D5,153.25,0.25,59,65.07
1239,B3,153.25,0.25,43,65.07
1240,C5,153.5,0.125,55,65.07
1241,D4,153.5,0.25,41,65.07
1242,B4,153.625,0.125,52,65.07
1243,A4,153.75,0.125,55,65.07
1244,G4,153.875,0.125,53,65.07
1245,E-5,154.0,0.25,64,65.07
1246,G3,154.0,0.25,44,65.07
1247,E5,154.25,0.25,60,65.07
1248,C4,154.25,0.25,40,65.07
1249,E5,154.5,0.125,63,65.07
1250,E4,154.5,0.25,43,65.07
1251,E5,154.75,0.125,57,65.07
1252,C4,154.75,0.25,40,65.07
1253,E5,155.0,0.5,63,65.07
1254,G3,155.0,0.25,44,65.07
1255,C4,155.25,0.25,40,65.07
1256,E4,155.5,0.25,43,65.07
1257,C4,155.75,0.25,40,65.07
1258,A4,155.875,0.125,64,65.07
1259,A5,156.0,0.75,82,65.07
1260,F#3,156.0,0.25,57,65.07
1261,A3,156.25,0.25,54,65.07
1262,C4,156.5,0.25,49,65.07
1263,G5,156.75,83/1000,72,65.07
1264,F#5,156.833,83/1000,69,65.07
1265,E5,156.917,83/1000,66,65.07
1266,D5,157.0,0.25,80,65.07
1267,F#3,157.0,0.25,57,65.07
1268,D6,157.25,0.125,75,65.07
1269,A3,157.25,0.25,54,65.07
1270,D6,157.5,0.125,78,65.07
1271,C4,157.5,0.25,51,65.07
1272,D6,157.75,0.125,74,65.07
1273,D6,158.0,0.625,85,65.07
1274,G3,158.0,0.25,57,65.07
1275,B3,158.25,0.25,51,65.07
1276,D4,158.5,0.125,53,65.07
1277,B5,158.625,0.125,70,65.07
1278,D6,158.75,0.125,73,65.07
1279,D4,158.75,0.125,50,65.07
1280,B5,158.875,0.125,70,65.07
1281,G5,159.0,0.5,72,65.07
1282,G3,159.0,0.25,57,65.07
1283,B3,159.25,0.25,39,65.07
1284,D4,159.5,0.125,42,65.07
1285,D4,159.75,0.125,37,65.07
1286,C#5,160.0,0.25,60,65.07
1287,G3,160.0,0.25,44,65.07
1288,D5,160.25,0.25,58,65.07
1289,B3,160.25,0.25,41,65.07
1290,C5,160.5,0.125,54,65.07
1291,D4,160.5,0.25,41,65.07
1292,B4,160.625,0.125,51,65.07
1293,A4,160.75,0.125,54,65.07
1294,G4,160.875,0.125,52,65.07
1295,C#5,161.0,0.125,54,65.07
1296,G3,161.0,0.25,44,65.07
1297,D5,161.125,0.125,53,65.07
1298,E5,161.25,0.125,55,65.07
1299,B3,161.25,0.25,41,65.07
1300,D5,161.375,0.125,57,65.07
1301,C5,161.5,0.125,56,65.07
1302,D4,161.5,0.25,41,65.07
1303,B4,161.625,0.125,55,65.07
1304,A4,161.75,0.125,54,65.07
1305,G4,161.875,0.125,54,65.07
1306,E-5,162.0,0.25,64,65.07
1307,G3,162.0,0.25,43,65.07
1308,E5,162.25,61/250,63,65.07
1309,C4,162.25,0.25,40,65.07
1310,E5,162.5,0.125,63,65.07
1311,E4,162.5,0.25,40,65.07
1312,E5,162.75,0.125,60,65.07
1313,C4,162.75,0.25,40,65.07
1314,E5,163.0,0.5,63,65.07
1315,G3,163.0,0.25,45,65.07
1316,C4,163.25,0.25,38,65.07
1317,E4,163.5,0.25,42,65.07
1318,C4,163.75,0.25,40,65.07
1319,A5,164.0,3/20,77,65.07
1320,F#3,164.0,2.0,54,65.07
1321,C4,164.0,2.0,54,65.07
1322,D4,164.0,2.0,54,65.07
1323,A3,164.0,2.0,54,65.07
1324,B5,164.125,3/20,71,65.07
1325,C6,164.25,3/20,77,65.07
1326,B5,164.375,3/20,72,65.07
1327,A5,164.5,3/20,78,65.07
1328,G5,164.625,3/20,74,65.07
1329,F#5,164.75,3/20,78,65.07
1330,E5,164.875,3/20,73,65.07
1331,D5,165.0,3/20,73,65.07
1332,F#5,165.125,3/20,75,65.07
1333,A5,165.25,3/20,77,65.07
1334,G5,165.375,3/20,72,65.07
1335,F#5,165.5,3/20,75,65.07
1336,E5,165.625,3/20,72,65.07
1337,D5,165.75,3/20,74,65.07
1338,C5,165.875,0.125,67,65.07
1339,B4,166.0,0.25,78,65.07
1340,C5,166.0,1/40,67,65.07
1341,G3,166.0,167/1000,61,65.07
1342,B3,166.167,167/1000,54,65.07
1343,G4,166.333,167/1000,51,65.07
1344,C5,166.5,0.062,67,65.07
1345,A3,166.5,167/1000,61,65.07
1346,D5,166.562,0.062,63,65.07
1347,C5,166.625,0.062,67,65.07
1348,C4,166.667,167/1000,53,65.07
1349,D5,166.688,0.062,63,65.07
1350,C5,166.75,0.062,67,65.07
1351,B4,166.833,83/1000,76,65.07
1352,G4,166.833,167/1000,50,65.07
1353,C5,166.917,83/1000,72,65.07
1354,D5,167.0,0.25,81,65.07
1355,B3,167.0,167/1000,61,65.07
1356,D4,167.167,167/1000,57,65.07
1357,G4,167.333,167/1000,49,65.07
1358,G3,167.5,167/1000,61,65.07
1359,B3,167.667,167/1000,48,65.07
1360,E5,167.833,83/1000,53,65.07
1361,G4,167.833,167/1000,45,65.07
1362,F#5,167.917,83/1000,53,65.07
1363,G5,168.0,0.5,61,65.07
1364,C4,168.0,167/1000,43,65.07
1365,E4,168.167,167/1000,40,65.07
1366,G4,168.333,167/1000,37,65.07
1367,G5,168.5,0.375,56,65.07
1368,C4,168.5,167/1000,43,65.07
1369,E4,168.667,167/1000,40,65.07
1370,G4,168.833,167/1000,38,65.07
1371,G5,168.875,0.125,54,65.07
1372,G5,169.0,0.5,56,65.07
1373,C4,169.0,167/1000,43,65.07
1374,E4,169.167,167/1000,40,65.07
1375,G4,169.333,167/1000,38,65.07
1376,F#5,169.5,0.125,55,65.07
1377,C4,169.5,167/1000,43,65.07
1378,E5,169.625,0.125,52,65.07
1379,E4,169.667,167/1000,41,65.07
1380,D5,169.75,0.125,53,65.07
1381,G4,169.833,167/1000,39,65.07
1382,C5,169.875,0.125,51,65.07
1383,B4,170.0,0.25,77,65.07
1384,G3,170.0,167/1000,57,65.07
1385,B3,170.167,167/1000,50,65.07
1386,G4,170.333,167/1000,50,65.07
1387,C5,170.5,0.062,67,65.07
1388,A3,170.5,167/1000,57,65.07
1389,D5,170.562,0.062,63,65.07
1390,C5,170.625,0.062,67,65.07
1391,C4,170.667,167/1000,51,65.07
1392,D5,170.688,0.062,63,65.07
1393,C5,170.75,0.062,67,65.07
1394,B4,170.833,83/1000,76,65.07
1395,G4,170.833,167/1000,48,65.07
1396,C5,170.917,83/1000,72,65.07
1397,D5,171.0,0.25,82,65.07
1398,B3,171.0,167/1000,57,65.07
1399,D4,171.167,167/1000,52,65.07
1400,G4,171.333,167/1000,46,65.07
1401,G3,171.5,167/1000,57,65.07
1402,B3,171.667,167/1000,50,65.07
1403,E5,171.833,83/1000,53,65.07
1404,G4,171.833,167/1000,47,65.07
1405,F#5,171.917,83/1000,51,65.07
1406,G5,172.0,0.5,61,65.07
1407,C4,172.0,167/1000,38,65.07
1408,E4,172.167,167/1000,36,65.07
1409,G4,172.333,167/1000,36,65.07
1410,G5,172.5,0.375,55,65.07
1411,C4,172.5,167/1000,38,65.07
1412,E4,172.667,167/1000,36,65.07
1413,G4,172.833,167/1000,36,65.07
1414,G5,172.875,0.125,54,65.07
1415,G5,173.0,0.5,55,65.07
1416,C4,173.0,167/1000,45,65.07
1417,E4,173.167,167/1000,43,65.07
1418,G4,173.333,167/1000,40,65.07
1419,F#5,173.5,0.125,54,65.07
1420,C4,173.5,167/1000,45,65.07
1421,E5,173.625,0.125,53,65.07
1422,E4,173.667,167/1000,44,65.07
1423,D5,173.75,0.125,54,65.07
1424,G4,173.833,167/1000,41,65.07
1425,C5,173.875,0.125,50,65.07
1426,B4,174.0,0.125,79,65.07
1427,G3,174.0,0.25,61,65.07
1428,G5,174.25,3/20,70,65.07
1429,A5,174.375,3/20,72,65.07
1430,B5,174.5,3/20,76,65.07
1431,A5,174.625,3/20,72,65.07
1432,G5,174.75,3/20,77,65.07
1433,F#5,174.875,3/20,72,65.07
1434,E5,175.0,3/20,77,65.07
1435,C3,175.0,0.25,61,65.07
1436,D5,175.125,3/20,72,65.07
1437,C5,175.25,3/20,77,65.07
1438,B4,175.375,3/20,72,65.07
1439,A4,175.5,3/20,74,65.07
1440,G4,175.625,3/20,72,65.07
1441,F#4,175.75,3/20,75,65.07
1442,E4,175.875,0.125,69,65.07
1443,D4,176.0,0.25,81,65.07
1444,E4,176.0,1/40,69,65.07
1445,D3,176.0,0.25,63,65.07
1446,C4,176.5,1.0,89,65.07
1447,F#3,176.5,1.0,56,65.07
1448,E-3,176.5,1.0,56,65.07
1449,A3,176.5,1.0,56,65.07
1450,B3,177.5,0.5,72,65.07
1451,E3,177.5,0.5,44,65.07
1452,G3,177.5,0.5,44,65.07
1453,C3,178.0,0.5,40,65.07
1454,E3,178.0,0.5,40,65.07
1455,A3,178.25,0.125,55,65.07
1456,C4,178.5,0.125,55,65.07
1457,E4,178.75,0.125,53,65.07
1458,G#4,179.0,0.25,55,65.07
1459,A4,179.25,0.25,53,65.07
1460,C5,179.5,0.25,55,65.07
1461,E5,179.75,0.25,54,65.07
1462,E5,180.0,0.25,63,65.07
1463,G4,180.25,229/1000,55,65.07
1464,G4,180.5,1.0,55,65.07
1465,D3,180.5,1.5,44,65.07
1466,B3,180.5,0.5,44,65.07
1467,C4,181.0,1.0,44,65.07
1468,B4,181.5,0.25,56,65.07
1469,F#4,181.5,0.5,56,65.07
1470,A4,181.75,0.25,54,65.07
1471,G4,182.0,0.5,54,65.07
1472,G3,182.0,0.25,46,65.07
1473,B3,182.0,0.5,46,65.07
1474,G2,182.5,0.25,44,65.07
1475,D5,183.0,0.25,75,65.07
1476,B4,183.25,0.25,67,65.07
1477,G5,183.5,0.25,54,65.07
1478,F#5,183.75,0.125,53,65.07
1479,E5,184.0,0.125,51,65.07
1480,D5,184.25,0.125,49,65.07
1481,C5,184.5,0.125,48,65.07
1482,B4,184.75,0.125,50,65.07
1483,A4,185.0,0.25,53,65.07
1484,B4,185.5,0.25,54,65.07
1485,D5,186.0,0.25,58,65.07
1486,C#5,186.25,0.25,54,65.07
1487,C5,186.5,0.25,51,65.07
1488,F#3,186.5,0.5,40,65.07
1489,D4,186.5,1.0,40,65.07
1490,B4,187.0,0.25,51,65.07
1491,G3,187.0,0.5,43,65.07
1492,C5,187.25,0.25,54,65.07
1493,D5,187.5,0.25,57,65.07
1494,E-5,187.75,0.125,59,65.07
1495,E5,188.0,3/40,49,65.07
1496,C3,188.0,1.0,43,65.07
1497,G3,188.0,1.0,43,65.07
1498,F#5,188.075,3/40,51,65.07
1499,E5,188.15,3/40,54,65.07
1500,F#5,188.225,3/40,56,65.07
1501,E5,188.3,3/40,58,65.07
1502,F#5,188.375,0.125,62,65.07
1503,G5,188.5,0.125,68,65.07
1504,F#5,188.75,0.125,64,65.07
1505,E5,189.0,0.125,63,65.07
1506,D5,189.25,0.125,59,65.07
1507,C5,189.5,0.125,60,65.07
1508,E3,189.5,0.5,43,65.07
1509,C#3,189.5,0.5,43,65.07
1510,B4,189.75,0.125,56,65.07
1511,D5,190.0,0.375,64,65.07
1512,D3,190.0,1.0,43,65.07
1513,G3,190.0,0.5,43,65.07
1514,B4,190.375,0.125,59,65.07
1515,A4,190.5,0.25,55,65.07
1516,F#3,190.5,0.5,41,65.07
1517,D5,191.0,0.375,86,65.07
1518,D4,191.0,0.375,77,65.07
1519,E5,191.375,0.062,81,65.07
1520,E4,191.375,0.062,70,65.07
1521,F#5,191.438,0.062,78,65.07
1522,F#4,191.438,0.062,66,65.07
1523,G5,191.5,0.25,86,65.07
1524,G4,191.5,0.25,71,65.07
1525,F#5,191.75,0.125,62,65.07
1526,F#4,191.75,0.125,56,65.07
1527,E5,192.0,0.125,62,65.07
1528,E4,192.0,0.125,56,65.07
1529,D5,192.25,0.125,58,65.07
1530,D4,192.25,0.125,52,65.07
1531,C5,192.5,0.125,62,65.07
1532,C4,192.5,0.125,56,65.07
1533,B4,192.75,0.125,57,65.07
1534,B3,192.75,0.125,52,65.07
1535,A4,193.0,0.25,63,65.07
1536,A3,193.0,0.25,57,65.07
1537,B4,193.5,0.25,70,65.07
1538,B3,193.5,0.25,62,65.07
1539,C5,194.0,0.25,72,65.07
1540,C4,194.0,0.25,67,65.07
1541,C#5,194.5,0.25,78,65.07
1542,C#4,194.5,0.25,65,65.07
1543,D5,195.0,0.25,83,65.07
1544,D4,195.0,0.25,70,65.07
1545,E-5,195.5,0.25,83,65.07
1546,E-4,195.5,0.25,66,65.07
1547,E5,196.0,0.375,87,65.07
1548,E4,196.0,177/500,72,65.07
1549,E4,196.375,0.125,82,65.07
1550,C5,196.5,0.375,72,65.07
1551,C3,196.5,0.5,43,65.07
1552,A3,196.5,0.5,43,65.07
1553,A4,196.875,0.125,72,65.07
1554,G4,197.0,0.5,69,65.07
1555,D3,197.0,1.0,43,65.07
1556,B3,197.0,0.5,43,65.07
1557,B4,197.438,0.062,57,65.07
1558,C4,197.5,0.5,43,65.07
1559,A4,197.5,0.5,63,65.07
1560,F#4,197.5,0.5,63,65.07
1561,G4,198.0,0.5,71,65.07
1562,G3,198.0,0.25,60,65.07
1563,B3,198.25,0.25,50,65.07
1564,D4,198.5,0.25,54,65.07
1565,G5,198.625,0.125,74,65.07
1566,A5,198.75,0.125,77,65.07
1567,B3,198.75,0.25,48,65.07
1568,G5,198.875,0.125,73,65.07
1569,E5,199.0,0.125,78,65.07
1570,G3,199.0,0.25,56,65.07
1571,G5,199.125,0.125,74,65.07
1572,A5,199.25,0.125,77,65.07
1573,C4,199.25,0.25,45,65.07
1574,G5,199.375,0.125,74,65.07
1575,C6,199.5,0.125,81,65.07
1576,E4,199.5,0.25,49,65.07
1577,G5,199.625,0.125,76,65.07
1578,E5,199.75,0.125,78,65.07
1579,C4,199.75,0.25,47,65.07
1580,C5,199.875,0.125,73,65.07
1581,G5,200.0,0.125,83,65.07
1582,G3,200.0,0.25,56,65.07
1583,G5,200.25,0.125,81,65.07
1584,B3,200.25,0.25,50,65.07
1585,D4,200.5,0.25,54,65.07
1586,G5,200.625,0.125,73,65.07
1587,A5,200.75,0.125,77,65.07
1588,B3,200.75,0.25,47,65.07
1589,G5,200.875,0.125,73,65.07
1590,E5,201.0,0.125,78,65.07
1591,G3,201.0,0.25,56,65.07
1592,G5,201.125,0.125,74,65.07
1593,A5,201.25,0.125,76,65.07
1594,C4,201.25,0.25,50,65.07
1595,G5,201.375,0.125,74,65.07
1596,C6,201.5,0.125,81,65.07
1597,E4,201.5,0.25,54,65.07
1598,G5,201.625,0.125,75,65.07
1599,E5,201.75,0.125,77,65.07
1600,C4,201.75,0.25,49,65.07
1601,C5,201.875,0.125,73,65.07
1602,G5,202.0,0.125,84,65.07
1603,B3,202.0,0.5,56,65.07
1604,D4,202.0,0.5,56,65.07
1605,G3,202.0,0.5,56,65.07
1606,G5,202.25,0.125,82,65.07
1607,C5,202.5,0.5,41,65.07
1608,D5,202.625,0.125,55,65.07
1609,F#5,202.75,0.125,55,65.07
1610,D5,202.875,0.125,53,65.07
1611,G5,203.0,0.125,59,65.07
1612,B4,203.0,0.5,44,65.07
1613,G5,203.25,0.125,59,65.07
1614,C5,203.5,0.5,43,65.07
1615,D5,203.625,0.125,54,65.07
1616,F#5,203.75,0.125,54,65.07
1617,D5,203.875,0.125,52,65.07
1618,G5,204.0,0.125,59,65.07
1619,B4,204.0,0.5,45,65.07
1620,G5,204.25,0.125,59,65.07
1621,F#4,204.5,0.125,52,65.07
1622,D5,204.625,0.125,67,65.07
1623,A5,204.75,0.125,71,65.07
1624,F#4,204.75,0.125,54,65.07
1625,D5,204.875,0.125,69,65.07
1626,B5,205.0,0.125,75,65.07
1627,G4,205.0,0.125,57,65.07
1628,D5,205.125,0.125,73,65.07
1629,B5,205.25,0.125,79,65.07
1630,G4,205.25,0.125,60,65.07
1631,D5,205.375,0.125,76,65.07
1632,C6,205.5,0.125,83,65.07
1633,A4,205.5,0.125,62,65.07
1634,D5,205.625,0.125,81,65.07
1635,C6,205.75,0.125,88,65.07
1636,A4,205.75,0.125,65,65.07
1637,D5,205.875,0.125,84,65.07
1638,D6,206.0,0.25,91,65.07
1639,B4,206.0,0.5,67,65.07
1640,B5,206.25,0.25,79,65.07
1641,G5,206.5,0.25,84,65.07
1642,B5,206.75,0.25,73,65.07
1643,D5,207.0,0.25,78,65.07
1644,G5,207.25,0.25,70,65.07
1645,B4,207.5,0.25,72,65.07
1646,D5,207.75,0.25,68,65.07
1647,A4,208.0,0.25,60,65.07
1648,E5,208.25,0.25,63,65.07
1649,D5,208.5,0.125,63,65.07
1650,C3,208.5,0.5,44,65.07
1651,A3,208.5,0.5,44,65.07
1652,E3,208.5,0.5,44,65.07
1653,C5,208.625,0.125,60,65.07
1654,B4,208.75,0.125,63,65.07
1655,A4,208.875,0.125,60,65.07
1656,G4,209.0,0.5,63,65.07
1657,D3,209.0,1.0,44,65.07
1658,G3,209.0,0.5,44,65.07
1659,B3,209.0,0.5,44,65.07
1660,F#4,209.5,67/1000,60,65.07
1661,C4,209.5,0.5,44,65.07
1662,A3,209.5,0.5,44,65.07
1663,G4,209.567,67/1000,63,65.07
1664,F#4,209.633,67/1000,60,65.07
1665,G4,209.7,67/1000,63,65.07
1666,F#4,209.767,67/1000,63,65.07
1667,E4,209.833,83/1000,63,65.07
1668,F#4,209.917,83/1000,60,65.07
1669,G4,210.0,0.5,77,65.07
1670,G3,210.0,0.25,51,65.07
1671,B3,210.25,0.25,46,65.07
1672,D4,210.5,0.25,54,65.07
1673,G5,210.625,0.125,74,65.07
1674,A5,210.75,0.125,77,65.07
1675,B3,210.75,0.25,49,65.07
1676,G5,210.875,0.125,75,65.07
1677,E5,211.0,0.125,81,65.07
1678,G3,211.0,0.25,54,65.07
1679,G5,211.125,0.125,75,65.07
1680,A5,211.25,0.125,79,65.07
1681,C4,211.25,0.25,50,65.07
1682,G5,211.375,0.125,75,65.07
1683,C6,211.5,0.125,81,65.07
1684,E4,211.5,0.25,54,65.07
1685,G5,211.625,0.125,78,65.07
1686,E5,211.75,0.125,79,65.07
1687,C4,211.75,0.25,50,65.07
1688,C5,211.875,0.125,75,65.07
1689,G5,212.0,0.125,84,65.07
1690,G3,212.0,0.25,58,65.07
1691,G5,212.25,0.125,81,65.07
1692,B3,212.25,0.25,50,65.07
1693,D4,212.5,0.25,54,65.07
1694,G5,212.625,0.125,75,65.07
1695,A5,212.75,0.125,77,65.07
1696,B3,212.75,0.25,54,65.07
1697,G5,212.875,0.125,73,65.07
1698,E5,213.0,0.125,81,65.07
1699,G3,213.0,0.25,54,65.07
1700,G5,213.125,0.125,75,65.07
1701,A5,213.25,0.125,78,65.07
1702,C4,213.25,0.25,50,65.07
1703,G5,213.375,0.125,77,65.07
1704,C6,213.5,0.125,81,65.07
1705,E4,213.5,0.25,54,65.07
1706,G5,213.625,0.125,76,65.07
1707,E5,213.75,0.125,78,65.07
1708,C4,213.75,0.25,50,65.07
1709,C5,213.875,0.125,75,65.07
1710,G5,214.0,0.125,84,65.07
1711,B3,214.0,0.5,58,65.07
1712,D4,214.0,0.5,58,65.07
1713,G3,214.0,0.5,58,65.07
1714,G5,214.25,0.125,82,65.07
1715,C5,214.5,0.5,43,65.07
1716,D5,214.625,0.125,54,65.07
1717,F#5,214.75,0.125,54,65.07
1718,D5,214.875,0.125,50,65.07
1719,G5,215.0,0.125,56,65.07
1720,B4,215.0,0.5,45,65.07
1721,G5,215.25,0.125,57,65.07
1722,C5,215.5,0.5,43,65.07
1723,D5,215.625,0.125,54,65.07
1724,F#5,215.75,0.125,54,65.07
1725,D5,215.875,0.125,50,65.07
1726,G5,216.0,0.125,57,65.07
1727,B4,216.0,0.5,45,65.07
1728,G5,216.25,0.125,57,65.07
1729,F#4,216.5,0.125,48,65.07
1730,D5,216.625,0.125,67,65.07
1731,A5,216.75,0.125,71,65.07
1732,F#4,216.75,0.125,51,65.07
1733,D5,216.875,0.125,66,65.07
1734,B5,217.0,0.125,75,65.07
1735,G4,217.0,0.125,54,65.07
1736,D5,217.125,0.125,73,65.07
1737,B5,217.25,0.125,81,65.07
1738,G4,217.25,0.125,57,65.07
1739,D5,217.375,0.125,77,65.07
1740,C6,217.5,0.125,84,65.07
1741,A4,217.5,0.125,61,65.07
1742,D5,217.625,0.125,82,65.07
1743,C6,217.75,0.125,90,65.07
1744,A4,217.75,0.125,64,65.07
1745,D5,217.875,0.125,85,65.07
1746,D6,218.0,0.125,94,65.07
1747,B4,218.0,0.5,67,65.07
1748,B5,218.125,0.125,85,65.07
1749,D6,218.25,0.125,89,65.07
1750,B5,218.375,0.125,83,65.07
1751,G5,218.5,0.125,87,65.07
1752,B5,218.625,0.125,81,65.07
1753,G5,218.75,0.125,85,65.07
1754,B5,218.875,0.125,81,65.07
1755,D5,219.0,0.125,86,65.07
1756,G5,219.125,0.125,80,65.07
1757,D5,219.25,0.125,81,65.07
1758,G5,219.375,0.125,74,65.07
1759,B4,219.5,0.125,73,65.07
1760,D5,219.625,0.125,68,65.07
1761,B4,219.75,0.125,68,65.07
1762,D5,219.875,0.125,63,65.07
1763,A4,220.0,0.125,54,65.07
1764,E5,220.125,0.125,51,65.07
1765,E-5,220.25,0.125,54,65.07
1766,E5,220.375,0.125,52,65.07
1767,D5,220.5,0.125,54,65.07
1768,A3,220.5,0.5,44,65.07
1769,C3,220.5,0.5,44,65.07
1770,E3,220.5,0.5,44,65.07
1771,C5,220.625,0.125,51,65.07
1772,B4,220.75,0.125,54,65.07
1773,A4,220.875,0.125,52,65.07
1774,G4,221.0,0.5,63,65.07
1775,D3,221.0,1.0,44,65.07
1776,B3,221.0,0.5,44,65.07
1777,G3,221.0,0.5,44,65.07
1778,F#4,221.5,67/1000,60,65.07
1779,A3,221.5,0.5,44,65.07
1780,C4,221.5,0.5,44,65.07
1781,G4,221.567,67/1000,63,65.07
1782,F#4,221.633,67/1000,60,65.07
1783,G4,221.7,67/1000,63,65.07
1784,F#4,221.767,67/1000,63,65.07
1785,E4,221.833,83/1000,63,65.07
1786,F#4,221.917,83/1000,60,65.07
1787,G4,222.0,0.375,86,65.07
1788,G3,222.0,0.375,78,65.07
1789,D4,222.375,0.125,81,65.07
1790,D3,222.375,0.125,72,65.07
1791,B4,222.5,0.375,86,65.07
1792,B3,222.5,0.375,78,65.07
1793,G4,222.875,0.125,81,65.07
1794,G3,222.875,0.125,72,65.07
1795,D5,223.0,0.25,87,65.07
1796,D4,223.0,0.25,77,65.07
1797,A5,223.5,3/20,54,65.07
1798,G5,223.625,3/20,51,65.07
1799,F#5,223.75,3/20,54,65.07
1800,E5,223.875,0.125,52,65.07
1801,D5,224.0,0.25,57,65.07
1802,E5,224.0,1/40,52,65.07
1803,G3,224.0,0.25,41,65.07
1804,B3,224.0,0.25,41,65.07
1805,D3,224.0,0.25,41,65.07
1806,E5,224.5,3/20,54,65.07
1807,D5,224.625,3/20,51,65.07
1808,C5,224.75,3/20,54,65.07
1809,B4,224.875,3/20,51,65.07
1810,A4,225.0,0.25,57,65.07
1811,D3,225.0,0.25,41,65.07
1812,F#3,225.0,0.25,41,65.07
1813,C4,225.0,0.25,41,65.07
1814,D5,225.5,3/20,56,65.07
1815,C5,225.625,3/20,56,65.07
1816,B4,225.75,3/20,56,65.07
1817,A4,225.875,0.125,53,65.07
1818,G4,226.0,0.125,84,65.07
1819,A4,226.0,1/40,53,65.07
1820,G3,226.0,0.125,72,65.07
1821,D4,226.125,0.125,80,65.07
1822,D3,226.125,0.125,67,65.07
1823,G4,226.25,0.125,84,65.07
1824,G3,226.25,0.125,72,65.07
1825,D4,226.375,0.125,80,65.07
1826,D3,226.375,0.125,67,65.07
1827,B4,226.5,0.125,84,65.07
1828,B3,226.5,0.125,72,65.07
1829,G4,226.625,0.125,80,65.07
1830,G3,226.625,0.125,67,65.07
1831,B4,226.75,0.125,84,65.07
1832,B3,226.75,0.125,72,65.07
1833,G4,226.875,0.125,80,65.07
1834,G3,226.875,0.125,66,65.07
1835,D5,227.0,0.25,84,65.07
1836,D4,227.0,0.25,72,65.07
1837,A5,227.5,3/20,55,65.07
1838,G5,227.625,3/20,52,65.07
1839,F#5,227.75,3/20,55,65.07
1840,E5,227.875,0.125,52,65.07
1841,D5,228.0,0.125,58,65.07
1842,E5,228.0,1/40,52,65.07
1843,B3,228.0,0.25,45,65.07
1844,D3,228.0,0.25,45,65.07
1845,G3,228.0,0.25,45,65.07
1846,D5,228.25,0.125,58,65.07
1847,E5,228.5,3/20,54,65.07
1848,D5,228.625,3/20,51,65.07
1849,C5,228.75,3/20,54,65.07
1850,B4,228.875,3/20,50,65.07
1851,A4,229.0,0.125,57,65.07
1852,F#3,229.0,0.25,45,65.07
1853,C4,229.0,0.25,45,65.07
1854,D3,229.0,0.25,45,65.07
1855,A4,229.25,0.125,57,65.07
1856,D5,229.5,3/20,55,65.07
1857,C5,229.625,3/20,53,65.07
1858,B4,229.75,3/20,55,65.07
1859,A4,229.875,0.125,52,65.07
1860,G4,230.0,0.5,58,65.07
1861,A4,230.0,1/40,52,65.07
1862,B3,230.0,0.5,46,65.07
1863,G3,230.0,0.5,46,65.07
1864,G3,230.5,0.25,46,65.07
1865,B4,230.5,0.25,54,65.07
1866,D4,230.5,0.25,54,65.07
1867,G2,231.0,0.25,46,65.07
1868,G4,231.0,0.25,56,65.07
1869,B3,231.0,0.25,56,65.07
1870,D5,232.0,0.75,51,65.07
1871,G4,232.0,0.25,40,65.07
1872,B4,232.25,0.25,36,65.07
1873,G4,232.5,0.25,36,65.07
1874,E-5,232.75,0.25,53,65.07
1875,B4,232.75,0.25,31,65.07
1876,E5,233.0,0.25,54,65.07
1877,G4,233.0,0.25,40,65.07
1878,F#5,233.25,0.25,55,65.07
1879,B4,233.25,0.25,36,65.07
1880,G5,233.5,0.25,56,65.07
1881,F4,233.5,0.25,40,65.07
1882,B4,233.75,0.25,53,65.07
1883,G#4,233.75,0.25,36,65.07
1884,D5,234.0,0.25,54,65.07
1885,E4,234.0,0.25,40,65.07
1886,C5,234.25,0.25,53,65.07
1887,G4,234.25,0.25,36,65.07
1888,E4,234.5,0.25,38,65.07
1889,B4,234.75,0.25,51,65.07
1890,G4,234.75,0.25,32,65.07
1891,C5,235.0,0.25,54,65.07
1892,E4,235.0,0.25,40,65.07
1893,D5,235.25,0.25,55,65.07
1894,G4,235.25,0.25,36,65.07
1895,E5,235.5,0.25,56,65.07
1896,D4,235.5,0.25,40,65.07
1897,G#4,235.75,0.25,50,65.07
1898,F4,235.75,0.25,36,65.07
1899,B4,236.0,0.25,54,65.07
1900,C4,236.0,0.25,40,65.07
1901,A4,236.25,0.25,51,65.07
1902,E4,236.25,0.25,35,65.07
1903,C4,236.5,0.25,40,65.07
1904,G#4,236.75,0.25,51,65.07
1905,E4,236.75,0.25,35,65.07
1906,A4,237.0,0.25,54,65.07
1907,C4,237.0,0.25,40,65.07
1908,B4,237.25,0.25,54,65.07
1909,E4,237.25,0.25,35,65.07
1910,C5,237.5,0.25,56,65.07
1911,C4,237.5,0.25,40,65.07
1912,F#4,237.75,0.25,50,65.07
1913,E-4,237.75,0.25,35,65.07
1914,A4,238.0,0.25,54,65.07
1915,B3,238.0,0.25,38,65.07
1916,G4,238.25,0.25,51,65.07
1917,D4,238.25,0.25,35,65.07
1918,E5,238.5,0.25,72,65.07
1919,C4,238.5,0.25,38,65.07
1920,F#4,238.75,0.25,54,65.07
1921,D4,238.75,0.25,35,65.07
1922,A4,239.0,0.25,56,65.07
1923,B3,239.0,0.25,38,65.07
1924,G4,239.25,0.25,51,65.07
1925,D4,239.25,0.25,35,65.07
1926,E5,239.5,0.25,72,65.07
1927,C4,239.5,0.25,38,65.07
1928,F#4,239.75,0.25,51,65.07
1929,D4,239.75,0.25,35,65.07
1930,A4,240.0,0.25,55,65.07
1931,B3,240.0,0.25,38,65.07
1932,G4,240.25,0.25,50,65.07
1933,D4,240.25,0.25,35,65.07
1934,E-5,240.5,0.25,71,65.07
1935,C4,240.5,0.25,38,65.07
1936,F#4,240.75,0.25,51,65.07
1937,E-4,240.75,0.25,35,65.07
1938,A4,241.0,0.25,55,65.07
1939,B3,241.0,0.25,38,65.07
1940,G4,241.25,0.25,51,65.07
1941,D4,241.25,0.25,36,65.07
1942,E-5,241.5,0.25,67,65.07
1943,C4,241.5,0.25,38,65.07
1944,F#4,241.75,0.25,49,65.07
1945,E-4,241.75,0.25,35,65.07
1946,G4,242.0,0.25,72,65.07
1947,B3,242.0,1.0,43,65.07
1948,D4,242.0,1.0,43,65.07
1949,A4,242.25,3/20,64,65.07
1950,B4,242.375,3/20,65,65.07
1951,C5,242.5,3/20,67,65.07
1952,D5,242.625,3/20,68,65.07
1953,E5,242.75,3/20,69,65.07
1954,F#5,242.875,3/20,71,65.07
1955,G5,243.0,3/20,72,65.07
1956,A5,243.125,3/20,70,65.07
1957,B5,243.25,3/20,74,65.07
1958,F#5,243.375,3/20,72,65.07
1959,G5,243.5,3/20,73,65.07
1960,D5,243.625,3/20,69,65.07
1961,E5,243.75,3/20,71,65.07
1962,B4,243.875,0.125,68,65.07
1963,D5,244.0,1.0,81,65.07
1964,B4,244.0,1/40,68,65.07
1965,D3,244.0,0.25,54,65.07
1966,B3,244.25,0.25,50,65.07
1967,G3,244.5,0.25,54,65.07
1968,B3,244.75,0.25,50,65.07
1969,C5,245.0,0.094,62,65.07
1970,D3,245.0,0.25,54,65.07
1971,D5,245.083,0.094,56,65.07
1972,C5,245.167,0.094,58,65.07
1973,D5,245.25,0.094,56,65.07
1974,A3,245.25,0.25,49,65.07
1975,C5,245.333,0.094,57,65.07
1976,D5,245.417,0.094,53,65.07
1977,C5,245.5,0.094,59,65.07
1978,F#3,245.5,0.25,54,65.07
1979,D5,245.583,0.094,56,65.07
1980,C5,245.667,0.125,63,65.07
1981,B4,245.75,0.125,61,65.07
1982,A3,245.75,0.25,50,65.07
1983,C5,245.875,0.125,59,65.07
1984,B4,246.0,1.0,66,65.07
1985,G3,246.0,0.25,46,65.07
1986,B3,246.25,0.25,43,65.07
1987,D4,246.5,0.25,45,65.07
1988,B3,246.75,0.25,40,65.07
1989,G3,247.0,0.5,50,65.07
1990,A4,247.188,0.062,38,65.07
1991,G4,247.25,0.125,48,65.07
1992,F#4,247.375,0.125,44,65.07
1993,G4,247.5,0.062,51,65.07
1994,B4,247.75,0.062,51,65.07
1995,E5,248.0,0.5,55,65.07
1996,G3,248.0,0.25,40,65.07
1997,B3,248.25,0.25,32,65.07
1998,D5,248.5,0.5,51,65.07
1999,D4,248.5,0.25,36,65.07
2000,B3,248.75,0.25,31,65.07
2001,G3,249.0,0.5,40,65.07
2002,C5,249.188,0.062,37,65.07
2003,B4,249.25,0.125,48,65.07
2004,A4,249.375,0.125,45,65.07
2005,B4,249.5,0.062,54,65.07
2006,D5,249.75,0.062,54,65.07
2007,G5,250.0,0.5,64,65.07
2008,G3,250.0,0.25,40,65.07
2009,B3,250.25,0.25,36,65.07
2010,F5,250.5,0.5,56,65.07
2011,D4,250.5,0.25,40,65.07
2012,B3,250.75,0.25,38,65.07
2013,G3,251.0,0.5,44,65.07
2014,E5,251.188,0.062,54,65.07
2015,D5,251.25,0.125,67,65.07
2016,C#5,251.375,0.125,61,65.07
2017,D5,251.5,0.062,71,65.07
2018,F5,251.75,0.062,74,65.07
2019,C6,252.0,0.25,75,65.07
2020,G#3,252.0,0.5,64,65.07
2021,B5,252.25,0.5,71,65.07
2022,B3,252.5,0.5,64,65.07
2023,D6,252.75,0.5,81,65.07
2024,D4,253.0,0.5,69,65.07
2025,G#5,253.25,0.5,73,65.07
2026,F4,253.5,0.5,65,65.07
2027,B5,253.75,0.25,81,65.07
2028,B5,254.0,0.25,81,65.07
2029,B3,254.0,0.5,69,65.07
2030,D5,254.25,0.5,78,65.07
2031,A3,254.5,0.5,63,65.07
2032,F5,254.75,0.5,84,65.07
2033,G#3,255.0,0.5,67,65.07
2034,E5,255.25,0.5,81,65.07
2035,E4,255.5,0.5,63,65.07
2036,D5,255.75,0.25,72,65.07
2037,C5,256.0,1.188,61,65.07
2038,A3,256.0,0.25,38,65.07
2039,C4,256.25,0.25,35,65.07
2040,E4,256.5,0.25,35,65.07
2041,C4,256.75,0.25,35,65.07
2042,A3,257.0,0.25,38,65.07
2043,D5,257.188,0.062,46,65.07
2044,C5,257.25,0.125,54,65.07
2045,C4,257.25,0.25,35,65.07
2046,B4,257.375,0.125,48,65.07
2047,C5,257.5,0.25,54,65.07
2048,F4,257.5,0.25,35,65.07
2049,D5,257.75,0.125,53,65.07
2050,C4,257.75,0.25,35,65.07
2051,C5,258.0,1.0,56,65.07
2052,G3,258.0,0.25,38,65.07
2053,D4,258.25,0.25,35,65.07
2054,F4,258.5,0.25,35,65.07
2055,D4,258.75,0.25,35,65.07
2056,B-4,259.0,0.094,62,65.07
2057,G3,259.0,0.25,43,65.07
2058,C5,259.083,0.094,56,65.07
2059,B-4,259.167,0.094,58,65.07
2060,C5,259.25,0.094,56,65.07
2061,C4,259.25,0.25,39,65.07
2062,B-4,259.333,0.094,57,65.07
2063,C5,259.417,0.094,53,65.07
2064,B-4,259.5,0.094,59,65.07
2065,E4,259.5,0.25,39,65.07
2066,C5,259.583,0.094,56,65.07
2067,B-4,259.667,0.125,63,65.07
2068,A4,259.75,0.125,61,65.07
2069,C4,259.75,0.25,39,65.07
2070,B-4,259.875,0.125,59,65.07
2071,A4,260.0,0.25,68,65.07
2072,F3,260.0,0.25,48,65.07
2073,C5,260.25,0.5,71,65.07
2074,C4,260.25,0.25,39,65.07
2075,F4,260.5,0.25,54,65.07
2076,F5,260.75,0.5,76,65.07
2077,C4,260.75,0.25,43,65.07
2078,F3,261.0,0.25,54,65.07
2079,A5,261.25,0.5,77,65.07
2080,A3,261.25,0.25,48,65.07
2081,D4,261.5,0.25,59,65.07
2082,B-5,261.75,0.25,78,65.07
2083,A3,261.75,0.25,51,65.07
2084,A5,262.0,1.0,83,65.07
2085,E3,262.0,0.25,59,65.07
2086,A3,262.25,0.25,46,65.07
2087,C#4,262.5,0.25,51,65.07
2088,A3,262.75,0.25,45,65.07
2089,G5,263.0,0.5,77,65.07
2090,E3,263.0,0.25,56,65.07
2091,A3,263.25,0.25,45,65.07
2092,C#4,263.5,0.25,50,65.07
2093,A3,263.75,0.25,45,65.07
2094,G5,264.0,0.75,70,65.07
2095,D3,264.0,0.25,36,65.07
2096,A3,264.25,0.25,32,65.07
2097,C4,264.5,0.25,32,65.07
2098,F#5,264.75,0.25,61,65.07
2099,A3,264.75,0.25,32,65.07
2100,F5,265.0,0.25,57,65.07
2101,D3,265.0,0.25,36,65.07
2102,G3,265.25,0.25,33,65.07
2103,B3,265.5,0.25,33,65.07
2104,G3,265.75,0.25,33,65.07
2105,F5,266.0,0.75,61,65.07
2106,C3,266.0,0.25,38,65.07
2107,G3,266.25,0.25,36,65.07
2108,C4,266.5,0.25,36,65.07
2109,E5,266.75,0.25,55,65.07
2110,G3,266.75,0.25,36,65.07
2111,E-5,267.0,0.25,54,65.07
2112,C3,267.0,0.25,38,65.07
2113,G3,267.25,0.25,34,65.07
2114,C4,267.5,0.25,34,65.07
2115,G3,267.75,0.25,34,65.07
2116,E-5,268.0,0.25,63,65.07
2117,F3,268.0,0.25,43,65.07
2118,D5,268.25,0.25,60,65.07
2119,G#3,268.25,0.25,38,65.07
2120,D5,268.5,0.125,57,65.07
2121,C4,268.5,0.25,38,65.07
2122,D5,268.75,0.125,60,65.07
2123,G#3,268.75,0.25,38,65.07
2124,D5,269.0,0.5,60,65.07
2125,F3,269.0,0.25,43,65.07
2126,G#3,269.25,0.25,38,65.07
2127,D5,269.5,0.5,60,65.07
2128,C4,269.5,0.25,38,65.07
2129,G#3,269.75,0.25,38,65.07
2130,D5,270.0,0.438,62,65.07
2131,F#3,270.0,0.25,43,65.07
2132,A3,270.25,0.25,45,65.07
2133,F5,270.438,0.062,64,65.07
2134,E-5,270.5,0.938,72,65.07
2135,C4,270.5,0.25,48,65.07
2136,A3,270.75,0.25,45,65.07
2137,F#3,271.0,0.25,43,65.07
2138,A3,271.25,0.25,39,65.07
2139,D5,271.438,0.062,57,65.07
2140,C5,271.5,0.5,63,65.07
2141,C4,271.5,0.25,39,65.07
2142,A3,271.75,0.25,39,65.07
2143,B4,272.0,0.25,54,65.07
2144,G3,272.0,19/40,39,65.07
2145,G5,272.25,0.25,54,65.07
2146,G3,272.5,19/40,41,65.07
2147,G5,272.75,0.25,56,65.07
2148,A3,273.0,19/40,45,65.07
2149,G3,273.0,19/40,45,65.07
2150,F#5,273.25,0.25,57,65.07
2151,B3,273.5,19/40,46,65.07
2152,G3,273.5,19/40,46,65.07
2153,F5,273.75,0.25,60,65.07
2154,F5,274.0,0.25,64,65.07
2155,C4,274.0,19/40,50,65.07
2156,G3,274.0,19/40,50,65.07
2157,E5,274.25,0.25,61,65.07
2158,G4,274.5,19/40,48,65.07
2159,G3,274.5,19/40,48,65.07
2160,E-5,274.75,0.25,59,65.07
2161,F4,275.0,19/40,46,65.07
2162,G3,275.0,19/40,46,65.07
2163,D5,275.25,0.25,56,65.07
2164,E-4,275.5,19/40,44,65.07
2165,G3,275.5,19/40,44,65.07
2166,C5,275.75,0.25,54,65.07
2167,C5,276.0,0.25,60,65.07
2168,D4,276.0,19/40,45,65.07
2169,G3,276.0,19/40,45,65.07
2170,B4,276.25,0.25,54,65.07
2171,B3,276.5,19/40,48,65.07
2172,G3,276.5,19/40,48,65.07
2173,G5,276.625,0.125,56,65.07
2174,A5,276.75,0.125,60,65.07
2175,G5,276.875,0.125,55,65.07
2176,A3,277.0,19/40,51,65.07
2177,G3,277.0,19/40,51,65.07
2178,F#5,277.125,0.125,61,65.07
2179,G5,277.25,0.125,66,65.07
2180,F#5,277.375,0.125,60,65.07
2181,B3,277.5,19/40,54,65.07
2182,G3,277.5,19/40,54,65.07
2183,F5,277.625,0.125,63,65.07
2184,G5,277.75,0.125,70,65.07
2185,F5,277.875,0.125,65,65.07
2186,C4,278.0,19/40,57,65.07
2187,G3,278.0,19/40,57,65.07
2188,E5,278.125,0.125,73,65.07
2189,F5,278.25,0.125,76,65.07
2190,E5,278.375,0.125,71,65.07
2191,G4,278.5,19/40,61,65.07
2192,G3,278.5,19/40,61,65.07
2193,E-5,278.625,0.125,73,65.07
2194,F5,278.75,0.125,80,65.07
2195,E-5,278.875,0.125,73,65.07
2196,F4,279.0,19/40,64,65.07
2197,G3,279.0,19/40,64,65.07
2198,D5,279.125,0.125,79,65.07
2199,E-5,279.25,0.125,83,65.07
2200,D5,279.375,0.125,79,65.07
2201,E-4,279.5,19/40,67,65.07
2202,F#3,279.5,19/40,67,65.07
2203,C5,279.625,0.125,82,65.07
2204,D5,279.75,0.125,87,65.07
2205,C5,279.875,0.125,86,65.07
2206,B4,280.0,0.125,88,65.07
2207,G3,280.0,0.5,71,65.07
2208,D4,280.0,0.5,71,65.07
2209,C5,280.188,0.062,71,65.07
2210,B4,280.25,0.125,75,65.07
2211,A4,280.375,0.125,75,65.07
2212,B4,280.5,0.25,79,65.07
2213,C5,280.75,0.125,76,65.07
2214,D5,281.0,0.125,79,65.07
2215,E5,281.188,0.062,68,65.07
2216,D5,281.25,0.125,72,65.07
2217,C#5,281.375,0.125,72,65.07
2218,D5,281.5,0.25,79,65.07
2219,E5,281.75,0.125,79,65.07
2220,F5,282.0,0.5,73,65.07
2221,D4,282.0,0.5,38,65.07
2222,G3,282.0,0.5,38,65.07
2223,G5,282.625,0.125,54,65.07
2224,E5,282.75,0.125,56,65.07
2225,C#4,282.75,0.25,38,65.07
2226,G5,282.875,0.125,54,65.07
2227,F5,283.0,0.5,54,65.07
2228,D4,283.0,0.5,38,65.07
2229,G3,283.0,0.5,38,65.07
2230,G5,283.625,0.125,53,65.07
2231,E5,283.75,0.125,56,65.07
2232,C#4,283.75,0.25,38,65.07
2233,G5,283.875,0.125,53,65.07
2234,F5,284.0,0.5,53,65.07
2235,D4,284.0,0.5,38,65.07
2236,G3,284.0,0.5,38,65.07
2237,G5,284.625,0.125,55,65.07
2238,E5,284.75,0.125,57,65.07
2239,C#4,284.75,0.25,40,65.07
2240,G5,284.875,0.125,61,65.07
2241,F5,285.0,0.125,63,65.07
2242,G3,285.0,0.5,45,65.07
2243,D4,285.0,0.25,45,65.07
2244,G5,285.125,0.125,66,65.07
2245,E5,285.25,0.125,70,65.07
2246,C#4,285.25,0.25,49,65.07
2247,G5,285.375,0.125,68,65.07
2248,F5,285.5,0.125,75,65.07
2249,G3,285.5,0.5,54,65.07
2250,D4,285.5,0.25,54,65.07
2251,G5,285.625,0.125,73,65.07
2252,E5,285.75,0.125,81,65.07
2253,C#4,285.75,0.25,59,65.07
2254,G5,285.875,0.125,79,65.07
2255,F5,286.0,0.25,86,65.07
2256,D4,286.0,1.0,63,65.07
2257,G3,286.0,1.0,63,65.07
2258,E5,286.25,0.125,72,65.07
2259,D5,286.5,0.125,77,65.07
2260,C5,286.75,0.125,72,65.07
2261,B4,287.0,0.125,60,65.07
2262,C5,287.25,0.125,62,65.07
2263,A3,287.25,0.125,54,65.07
2264,D5,287.5,0.125,59,65.07
2265,B3,287.5,0.125,54,65.07
2266,E5,287.75,0.125,56,65.07
2267,C4,287.75,0.125,54,65.07
2268,F5,288.0,0.125,62,65.07
2269,D4,288.0,0.125,52,65.07
2270,E5,288.25,0.125,57,65.07
2271,C4,288.25,0.125,55,65.07
2272,D5,288.5,0.125,61,65.07
2273,B3,288.5,0.125,59,65.07
2274,E5,288.75,0.125,64,65.07
2275,C4,288.75,0.125,62,65.07
2276,F5,289.0,0.125,67,65.07
2277,D4,289.0,0.125,65,65.07
2278,E5,289.25,0.125,71,65.07
2279,C#4,289.25,0.125,67,65.07
2280,F5,289.5,0.125,73,65.07
2281,D4,289.5,0.125,71,65.07
2282,F#5,289.75,0.125,77,65.07
2283,E-4,289.75,0.125,73,65.07
2284,G5,290.0,0.25,86,65.07
2285,E4,290.0,0.25,50,65.07
2286,C4,290.25,0.25,45,65.07
2287,G5,290.5,0.75,82,65.07
2288,E4,290.5,0.25,51,65.07
2289,C4,290.75,0.25,45,65.07
2290,E4,291.0,0.25,51,65.07
2291,F5,291.25,0.125,71,65.07
2292,C4,291.25,0.25,40,65.07
2293,E5,291.375,0.125,69,65.07
2294,E5,291.5,117/1000,70,65.07
2295,E4,291.5,0.25,45,65.07
2296,D5,291.625,0.125,66,65.07
2297,C5,291.75,0.125,67,65.07
2298,C4,291.75,0.25,43,65.07
2299,B4,291.875,0.125,66,65.07
2300,C5,292.0,0.094,47,65.07
2301,E4,292.0,0.25,51,65.07
2302,D5,292.083,0.094,49,65.07
2303,C5,292.167,0.094,55,65.07
2304,D5,292.25,0.094,52,65.07
2305,C4,292.25,0.25,45,65.07
2306,C5,292.333,0.094,57,65.07
2307,D5,292.417,0.094,51,65.07
2308,C5,292.5,0.094,59,65.07
2309,E4,292.5,0.25,51,65.07
2310,D5,292.583,0.094,56,65.07
2311,C5,292.667,0.125,63,65.07
2312,D5,292.75,0.125,62,65.07
2313,C4,292.75,0.25,40,65.07
2314,E5,292.875,0.125,63,65.07
2315,G4,293.0,0.5,71,65.07
2316,E4,293.0,0.25,46,65.07
2317,C4,293.25,0.25,31,65.07
2318,E4,293.5,0.25,35,65.07
2319,C4,293.75,0.25,31,65.07
2320,G5,294.0,0.125,86,65.07
2321,E4,294.0,0.25,51,65.07
2322,G5,294.25,0.125,78,65.07
2323,C4,294.25,0.25,36,65.07
2324,G5,294.5,0.75,76,65.07
2325,E4,294.5,0.25,43,65.07
2326,C4,294.75,0.25,36,65.07
2327,E4,295.0,0.25,43,65.07
2328,F5,295.25,0.125,64,65.07
2329,C4,295.25,0.25,36,65.07
2330,E5,295.375,117/1000,61,65.07
2331,E5,295.5,0.125,64,65.07
2332,F4,295.5,0.25,40,65.07
2333,D5,295.625,0.125,61,65.07
2334,C5,295.75,0.125,61,65.07
2335,C4,295.75,0.25,36,65.07
2336,B4,295.875,0.125,60,65.07
2337,C5,296.0,0.094,47,65.07
2338,E4,296.0,0.25,38,65.07
2339,D5,296.083,0.094,49,65.07
2340,C5,296.167,0.094,55,65.07
2341,D5,296.25,0.094,52,65.07
2342,C4,296.25,0.25,34,65.07
2343,C5,296.333,0.094,57,65.07
2344,D5,296.417,0.094,51,65.07
2345,C5,296.5,0.094,59,65.07
2346,E4,296.5,0.25,39,65.07
2347,D5,296.583,0.094,56,65.07
2348,C5,296.667,0.125,63,65.07
2349,D5,296.75,0.125,62,65.07
2350,C4,296.75,0.25,33,65.07
2351,E5,296.875,0.125,63,65.07
2352,G4,297.0,0.5,65,65.07
2353,E4,297.0,0.25,38,65.07
2354,C4,297.25,0.25,30,65.07
2355,E4,297.5,0.25,33,65.07
2356,C4,297.75,0.25,29,65.07
2357,A4,298.0,0.125,56,65.07
2358,F4,298.0,0.25,34,65.07
2359,C5,298.25,0.125,54,65.07
2360,C4,298.25,0.25,29,65.07
2361,F5,298.5,0.125,56,65.07
2362,F4,298.5,0.25,34,65.07
2363,A5,298.75,0.125,54,65.07
2364,C4,298.75,0.25,30,65.07
2365,C6,299.0,0.125,66,65.07
2366,F4,299.0,0.25,34,65.07
2367,F6,299.25,0.25,70,65.07
2368,C4,299.25,0.25,30,65.07
2369,F4,299.5,0.25,34,65.07
2370,C4,299.75,0.25,30,65.07
2371,G4,300.0,0.125,58,65.07
2372,E4,300.0,0.25,36,65.07
2373,C5,300.25,0.125,56,65.07
2374,C4,300.25,0.25,32,65.07
2375,E5,300.5,0.125,58,65.07
2376,E4,300.5,0.25,36,65.07
2377,G5,300.75,0.125,55,65.07
2378,C4,300.75,0.25,30,65.07
2379,C6,301.0,0.125,66,65.07
2380,E4,301.0,0.25,36,65.07
2381,E6,301.25,0.25,74,65.07
2382,C4,301.25,0.25,30,65.07
2383,E4,301.5,0.25,36,65.07
2384,C4,301.75,0.25,30,65.07
2385,G4,301.875,0.125,63,65.07
2386,G5,302.0,1.5,84,65.07
2387,E4,302.0,0.5,57,65.07
2388,C4,302.0,0.25,57,65.07
2389,G3,302.25,0.25,50,65.07
2390,E4,302.5,0.5,57,65.07
2391,C4,302.5,0.25,57,65.07
2392,G3,302.75,0.25,50,65.07
2393,D4,303.0,0.5,54,65.07
2394,B3,303.0,0.25,54,65.07
2395,G3,303.25,0.25,46,65.07
2396,F5,303.5,83/1000,60,65.07
2397,D4,303.5,0.5,51,65.07
2398,B3,303.5,0.25,51,65.07
2399,G5,303.583,83/1000,68,65.07
2400,F5,303.667,83/1000,68,65.07
2401,E5,303.75,0.125,76,65.07
2402,G3,303.75,0.25,44,65.07
2403,F5,303.875,0.125,71,65.07
2404,E-5,304.0,0.5,78,65.07
2405,C4,304.0,0.25,48,65.07
2406,C3,304.25,0.25,45,65.07
2407,E5,304.5,0.5,75,65.07
2408,E3,304.5,0.25,48,65.07
2409,G3,304.75,0.25,45,65.07
2410,C4,305.0,0.25,57,65.07
2411,E4,305.25,0.25,48,65.07
2412,G4,305.5,0.25,52,65.07
2413,E4,305.75,0.25,48,65.07
2414,A4,306.0,0.125,61,65.07
2415,F4,306.0,0.25,37,65.07
2416,C5,306.125,0.125,57,65.07
2417,D5,306.25,0.125,61,65.07
2418,C4,306.25,0.25,28,65.07
2419,E5,306.375,0.125,56,65.07
2420,F5,306.5,0.125,61,65.07
2421,F4,306.5,0.25,37,65.07
2422,G5,306.625,0.125,58,65.07
2423,A5,306.75,0.125,61,65.07
2424,C4,306.75,0.25,29,65.07
2425,B5,306.875,0.125,57,65.07
2426,C6,307.0,0.25,72,65.07
2427,F4,307.0,0.25,37,65.07
2428,C4,307.25,0.25,27,65.07
2429,F4,307.5,0.25,32,65.07
2430,C4,307.75,0.25,29,65.07
2431,G4,308.0,0.125,63,65.07
2432,E4,308.0,0.25,37,65.07
2433,C5,308.125,0.125,58,65.07
2434,D5,308.25,0.125,63,65.07
2435,C4,308.25,0.25,29,65.07
2436,E5,308.375,0.125,56,65.07
2437,F5,308.5,0.125,63,65.07
2438,E4,308.5,0.25,37,65.07
2439,G5,308.625,0.125,58,65.07
2440,A5,308.75,0.125,63,65.07
2441,C4,308.75,0.25,28,65.07
2442,B5,308.875,0.125,58,65.07
2443,C6,309.0,0.25,72,65.07
2444,E4,309.0,0.25,37,65.07
2445,C4,309.25,0.25,27,65.07
2446,E4,309.5,0.25,33,65.07
2447,C4,309.75,0.25,29,65.07
2448,A5,310.0,0.25,85,65.07
2449,E4,310.0,0.5,51,65.07
2450,C4,310.0,0.25,51,65.07
2451,G5,310.25,0.25,79,65.07
2452,G3,310.25,0.25,45,65.07
2453,F5,310.5,0.125,82,65.07
2454,E4,310.5,0.5,51,65.07
2455,C4,310.5,0.25,51,65.07
2456,E5,310.75,0.125,78,65.07
2457,G3,310.75,0.25,45,65.07
2458,E5,311.0,0.25,85,65.07
2459,F4,311.0,0.5,51,65.07
2460,D4,311.0,0.25,51,65.07
2461,D5,311.25,0.25,74,65.07
2462,G3,311.25,0.25,43,65.07
2463,C5,311.5,0.125,77,65.07
2464,F4,311.5,0.5,48,65.07
2465,D4,311.5,0.25,48,65.07
2466,B4,311.75,0.125,76,65.07
2467,G3,311.75,0.25,45,65.07
2468,C5,312.0,3/20,77,65.07
2469,E4,312.0,1.0,56,65.07
2470,C4,312.0,1.0,56,65.07
2471,G4,312.125,3/20,68,65.07
2472,A4,312.25,3/20,72,65.07
2473,B4,312.375,3/20,70,65.07
2474,C5,312.5,3/20,75,65.07
2475,D5,312.625,3/20,73,65.07
2476,E5,312.75,3/20,78,65.07
2477,F5,312.875,3/20,76,65.07
2478,G5,313.0,3/20,80,65.07
2479,A5,313.125,3/20,77,65.07
2480,B5,313.25,3/20,78,65.07
2481,C6,313.375,3/20,75,65.07
2482,G5,313.5,0.125,81,65.07
2483,G5,313.75,0.125,79,65.07
2484,E4,314.0,0.5,46,65.07
2485,G3,314.0,0.5,46,65.07
2486,G5,314.125,0.125,54,65.07
2487,A5,314.25,0.125,57,65.07
2488,G5,314.375,0.125,54,65.07
2489,D4,314.5,0.5,40,65.07
2490,G3,314.5,0.5,40,65.07
2491,F5,314.625,0.125,54,65.07
2492,G5,314.75,0.125,57,65.07
2493,F5,314.875,0.125,54,65.07
2494,C4,315.0,0.5,46,65.07
2495,G3,315.0,0.5,46,65.07
2496,E5,315.125,0.125,54,65.07
2497,F5,315.25,0.125,56,65.07
2498,E5,315.375,0.125,54,65.07
2499,B3,315.5,0.5,42,65.07
2500,G3,315.5,0.5,42,65.07
2501,D5,315.625,0.125,54,65.07
2502,E5,315.75,0.125,56,65.07
2503,D5,315.875,0.125,54,65.07
2504,C5,316.0,3/20,83,65.07
2505,C4,316.0,1.0,58,65.07
2506,G4,316.125,3/20,76,65.07
2507,A4,316.25,3/20,79,65.07
2508,B4,316.375,3/20,75,65.07
2509,C5,316.5,3/20,81,65.07
2510,D5,316.625,3/20,79,65.07
2511,E5,316.75,3/20,82,65.07
2512,F5,316.875,3/20,78,65.07
2513,G5,317.0,3/20,81,65.07
2514,A5,317.125,3/20,76,65.07
2515,B5,317.25,3/20,80,65.07
2516,C6,317.375,3/20,75,65.07
2517,G5,317.5,0.125,82,65.07
2518,G5,317.75,0.125,80,65.07
2519,E4,318.0,0.5,46,65.07
2520,G3,318.0,0.5,46,65.07
2521,G5,318.125,0.125,54,65.07
2522,A5,318.25,0.125,56,65.07
2523,G5,318.375,0.125,54,65.07
2524,D4,318.5,0.5,42,65.07
2525,G3,318.5,0.5,42,65.07
2526,F5,318.625,0.125,54,65.07
2527,G5,318.75,0.125,56,65.07
2528,F5,318.875,0.125,54,65.07
2529,C4,319.0,0.5,45,65.07
2530,G3,319.0,0.5,45,65.07
2531,E5,319.125,0.125,54,65.07
2532,F5,319.25,0.125,56,65.07
2533,E5,319.375,0.125,54,65.07
2534,B3,319.5,0.5,45,65.07
2535,G3,319.5,0.5,45,65.07
2536,D5,319.625,0.125,54,65.07
2537,E5,319.75,0.125,54,65.07
2538,D5,319.875,0.125,54,65.07
2539,C5,320.0,0.125,81,65.07
2540,C3,320.0,0.125,62,65.07
2541,C5,320.25,0.5,81,65.07
2542,C4,320.25,0.25,68,65.07
2543,B3,320.5,0.25,59,65.07
2544,D5,320.75,0.125,73,65.07
2545,B-3,320.75,0.25,59,65.07
2546,E5,320.875,0.125,70,65.07
2547,F5,321.0,0.125,82,65.07
2548,A3,321.0,0.125,63,65.07
2549,F5,321.25,0.5,79,65.07
2550,A3,321.25,0.25,67,65.07
2551,G3,321.5,0.25,61,65.07
2552,G5,321.75,0.125,76,65.07
2553,F3,321.75,0.25,61,65.07
2554,A5,321.875,0.125,76,65.07
2555,G5,322.0,0.25,83,65.07
2556,E3,322.0,0.25,60,65.07
2557,E5,322.25,0.25,80,65.07
2558,C6,322.5,0.125,83,65.07
2559,C3,322.5,0.25,60,65.07
2560,C6,322.75,0.125,80,65.07
2561,D6,323.0,3/20,84,65.07
2562,C6,323.125,3/20,76,65.07
2563,B5,323.25,3/20,78,65.07
2564,A5,323.375,117/1000,73,65.07
2565,A5,323.5,3/20,73,65.07
2566,C4,323.5,0.5,51,65.07
2567,C3,323.5,0.5,51,65.07
2568,G5,323.625,3/20,66,65.07
2569,F5,323.75,3/20,68,65.07
2570,E5,323.875,0.125,64,65.07
2571,G5,324.0,0.75,68,65.07
2572,E4,324.0,0.75,51,65.07
2573,G3,324.0,1.0,51,65.07
2574,E5,324.75,0.25,69,65.07
2575,C4,324.75,0.25,54,65.07
2576,D5,325.0,0.5,67,65.07
2577,B3,325.0,0.5,54,65.07
2578,G2,325.25,0.25,71,65.07
2579,B2,325.5,0.25,72,65.07
2580,D3,325.75,0.25,69,65.07
2581,C#5,326.0,0.25,60,65.07
2582,G3,326.0,0.25,45,65.07
2583,D5,326.25,0.25,56,65.07
2584,B3,326.25,0.25,42,65.07
2585,C5,326.5,0.125,55,65.07
2586,D4,326.5,0.25,40,65.07
2587,B4,326.625,0.125,52,65.07
2588,A4,326.75,0.125,55,65.07
2589,G4,326.875,0.125,53,65.07
2590,C#5,327.0,0.25,61,65.07
2591,G3,327.0,0.25,45,65.07
2592,D5,327.25,0.25,59,65.07
2593,B3,327.25,0.25,43,65.07
2594,C5,327.5,0.125,55,65.07
2595,D4,327.5,0.25,41,65.07
2596,B4,327.625,0.125,54,65.07
2597,A4,327.75,0.125,55,65.07
2598,G4,327.875,0.125,53,65.07
2599,E-5,328.0,0.25,64,65.07
2600,G3,328.0,0.25,44,65.07
2601,E5,328.25,0.25,61,65.07
2602,C4,328.25,0.25,40,65.07
2603,E5,328.5,0.125,63,65.07
2604,E4,328.5,0.25,43,65.07
2605,E5,328.75,0.125,59,65.07
2606,C4,328.75,0.25,41,65.07
2607,E5,329.0,0.5,63,65.07
2608,G3,329.0,0.25,44,65.07
2609,C4,329.25,0.25,40,65.07
2610,E4,329.5,0.25,43,65.07
2611,C4,329.75,0.25,40,65.07
2612,A4,329.875,0.125,60,65.07
2613,A5,330.0,0.75,87,65.07
2614,F#3,330.0,0.25,57,65.07
2615,A3,330.25,0.25,51,65.07
2616,C4,330.5,0.25,54,65.07
2617,G5,330.75,83/1000,76,65.07
2618,F#5,330.833,83/1000,72,65.07
2619,E5,330.917,83/1000,76,65.07
2620,D5,331.0,0.25,84,65.07
2621,F#3,331.0,0.25,57,65.07
2622,D6,331.25,0.125,82,65.07
2623,A3,331.25,0.25,51,65.07
2624,D6,331.5,0.125,82,65.07
2625,C4,331.5,0.25,54,65.07
2626,D6,331.75,0.125,79,65.07
2627,D6,332.0,0.625,90,65.07
2628,F3,332.0,0.25,57,65.07
2629,A3,332.25,0.25,52,65.07
2630,B3,332.5,0.25,57,65.07
2631,B5,332.625,0.125,74,65.07
2632,D6,332.75,0.125,77,65.07
2633,D4,332.75,0.25,52,65.07
2634,B5,332.875,0.125,76,65.07
2635,G5,333.0,0.25,77,65.07
2636,F4,333.0,0.5,62,65.07
2637,B4,333.25,0.25,54,65.07
2638,D5,333.25,0.25,54,65.07
2639,E4,333.5,0.25,43,65.07
2640,E5,333.5,0.25,54,65.07
2641,C5,333.5,0.25,54,65.07
2642,D4,333.75,0.25,45,65.07
2643,F5,333.75,0.25,50,65.07
2644,D5,333.75,0.25,50,65.07
2645,F#5,334.0,0.25,60,65.07
2646,C4,334.0,0.25,44,65.07
2647,G5,334.25,0.25,58,65.07
2648,E4,334.25,0.25,39,65.07
2649,F5,334.5,0.125,54,65.07
2650,G4,334.5,0.25,41,65.07
2651,E5,334.625,0.125,51,65.07
2652,D5,334.75,0.125,54,65.07
2653,C5,334.875,0.125,52,65.07
2654,F#5,335.0,0.125,54,65.07
2655,C4,335.0,0.25,44,65.07
2656,G5,335.125,0.125,53,65.07
2657,A5,335.25,0.125,55,65.07
2658,E4,335.25,0.25,39,65.07
2659,G5,335.375,0.125,57,65.07
2660,F5,335.5,0.125,56,65.07
2661,G4,335.5,0.25,41,65.07
2662,E5,335.625,0.125,55,65.07
2663,D5,335.75,0.125,54,65.07
2664,C5,335.875,0.125,54,65.07
2665,G#5,336.0,0.25,62,65.07
2666,C4,336.0,0.25,43,65.07
2667,A5,336.25,0.25,56,65.07
2668,F4,336.25,0.25,37,65.07
2669,A5,336.5,0.125,60,65.07
2670,A4,336.5,0.25,40,65.07
2671,A5,336.75,0.125,56,65.07
2672,F4,336.75,0.25,38,65.07
2673,A5,337.0,0.5,63,65.07
2674,C4,337.0,0.25,45,65.07
2675,F4,337.25,0.25,39,65.07
2676,A4,337.5,0.25,41,65.07
2677,F4,337.75,0.25,40,65.07
2678,D6,338.0,3/20,81,65.07
2679,B3,338.0,2.0,62,65.07
2680,D4,338.0,2.0,62,65.07
2681,F4,338.0,2.0,62,65.07
2682,G4,338.0,2.0,62,65.07
2683,E6,338.125,3/20,77,65.07
2684,F6,338.25,3/20,81,65.07
2685,E6,338.375,3/20,77,65.07
2686,D6,338.5,3/20,79,65.07
2687,C6,338.625,3/20,73,65.07
2688,B5,338.75,3/20,77,65.07
2689,A5,338.875,3/20,75,65.07
2690,G5,339.0,3/20,78,65.07
2691,B5,339.125,3/20,73,65.07
2692,D6,339.25,3/20,81,65.07
2693,C6,339.375,3/20,74,65.07
2694,B5,339.5,3/20,81,65.07
2695,A5,339.625,3/20,75,65.07
2696,G5,339.75,3/20,81,65.07
2697,F5,339.875,0.125,76,65.07
2698,E5,340.0,0.25,86,65.07
2699,F5,340.0,1/40,76,65.07
2700,C4,340.0,167/1000,61,65.07
2701,E4,340.167,167/1000,57,65.07
2702,C5,340.333,167/1000,53,65.07
2703,G5,340.5,0.062,71,65.07
2704,D4,340.5,167/1000,61,65.07
2705,F5,340.562,0.062,66,65.07
2706,G5,340.625,0.062,71,65.07
2707,F4,340.667,167/1000,57,65.07
2708,F5,340.688,0.062,67,65.07
2709,E5,340.75,0.125,81,65.07
2710,C5,340.833,167/1000,53,65.07
2711,F5,340.875,0.125,79,65.07
2712,G5,341.0,0.25,89,65.07
2713,E4,341.0,167/1000,61,65.07
2714,G4,341.167,167/1000,57,65.07
2715,C5,341.333,167/1000,53,65.07
2716,C4,341.5,167/1000,61,65.07
2717,E4,341.667,167/1000,48,65.07
2718,A5,341.833,83/1000,53,65.07
2719,C5,341.833,167/1000,48,65.07
2720,B5,341.917,83/1000,49,65.07
2721,C6,342.0,247/500,61,65.07
2722,F4,342.0,167/1000,43,65.07
2723,A4,342.167,167/1000,40,65.07
2724,C5,342.333,167/1000,38,65.07
2725,C6,342.5,369/1000,56,65.07
2726,F4,342.5,167/1000,43,65.07
2727,A4,342.667,167/1000,40,65.07
2728,C5,342.833,167/1000,39,65.07
2729,C6,342.875,119/1000,54,65.07
2730,C6,343.0,0.5,56,65.07
2731,F4,343.0,167/1000,43,65.07
2732,A4,343.167,167/1000,41,65.07
2733,C5,343.333,167/1000,40,65.07
2734,B5,343.5,0.125,55,65.07
2735,F4,343.5,167/1000,43,65.07
2736,A5,343.625,0.125,50,65.07
2737,A4,343.667,167/1000,41,65.07
2738,G5,343.75,0.125,53,65.07
2739,C5,343.833,167/1000,40,65.07
2740,F5,343.875,0.125,51,65.07
2741,E5,344.0,0.25,78,65.07
2742,C4,344.0,167/1000,57,65.07
2743,E4,344.167,167/1000,55,65.07
2744,C5,344.333,167/1000,50,65.07
2745,F5,344.5,0.062,67,65.07
2746,D4,344.5,167/1000,57,65.07
2747,G5,344.562,0.062,63,65.07
2748,F5,344.625,0.062,67,65.07
2749,F4,344.667,167/1000,54,65.07
2750,G5,344.688,0.062,63,65.07
2751,F5,344.75,0.062,67,65.07
2752,E5,344.833,83/1000,76,65.07
2753,C5,344.833,167/1000,51,65.07
2754,F5,344.917,83/1000,72,65.07
2755,G5,345.0,0.25,87,65.07
2756,E4,345.0,167/1000,57,65.07
2757,G4,345.167,167/1000,54,65.07
2758,C5,345.333,167/1000,51,65.07
2759,C4,345.5,167/1000,57,65.07
2760,E4,345.667,167/1000,54,65.07
2761,A5,345.833,83/1000,53,65.07
2762,C5,345.833,167/1000,49,65.07
2763,B5,345.917,83/1000,48,65.07
2764,C6,346.0,247/500,61,65.07
2765,F4,346.0,167/1000,38,65.07
2766,A4,346.167,167/1000,36,65.07
2767,C5,346.333,167/1000,36,65.07
2768,C6,346.5,369/1000,55,65.07
2769,F4,346.5,167/1000,38,65.07
2770,A4,346.667,167/1000,36,65.07
2771,C5,346.833,167/1000,36,65.07
2772,C6,346.875,119/1000,52,65.07
2773,C6,347.0,0.5,55,65.07
2774,F4,347.0,167/1000,43,65.07
2775,A4,347.167,167/1000,39,65.07
2776,C5,347.333,167/1000,39,65.07
2777,B5,347.5,0.125,54,65.07
2778,F4,347.5,167/1000,43,65.07
2779,A5,347.625,0.125,52,65.07
2780,A4,347.667,167/1000,40,65.07
2781,G5,347.75,0.125,54,65.07
2782,C5,347.833,167/1000,40,65.07
2783,F5,347.875,0.125,53,65.07
2784,E5,348.0,0.125,83,65.07
2785,C4,348.0,0.25,64,65.07
2786,C6,348.25,3/20,78,65.07
2787,D6,348.375,3/20,78,65.07
2788,E6,348.5,3/20,81,65.07
2789,D6,348.625,3/20,78,65.07
2790,C6,348.75,3/20,81,65.07
2791,B5,348.875,3/20,78,65.07
2792,A5,349.0,3/20,81,65.07
2793,F3,349.0,0.25,64,65.07
2794,G5,349.125,3/20,78,65.07
2795,F5,349.25,3/20,81,65.07
2796,E5,349.375,3/20,76,65.07
2797,D5,349.5,3/20,81,65.07
2798,C5,349.625,3/20,76,65.07
2799,B4,349.75,3/20,81,65.07
2800,A4,349.875,0.125,73,65.07
2801,G4,350.0,0.25,85,65.07
2802,A4,350.0,1/40,73,65.07
2803,G3,350.0,0.25,60,65.07
2804,F4,350.5,1.0,90,65.07
2805,B3,350.5,1.0,59,65.07
2806,D4,350.5,1.0,59,65.07
2807,G#3,350.5,1.0,59,65.07
2808,E4,351.5,0.5,76,65.07
2809,A3,351.5,0.5,51,65.07
2810,C4,351.5,0.5,51,65.07
2811,F3,352.0,0.5,43,65.07
2812,A3,352.0,0.5,43,65.07
2813,D4,352.25,0.125,55,65.07
2814,F4,352.5,0.125,54,65.07
2815,A4,352.75,0.125,53,65.07
2816,C#5,353.0,0.25,55,65.07
2817,D5,353.25,0.25,54,65.07
2818,F5,353.5,0.25,55,65.07
2819,A5,353.75,0.25,53,65.07
2820,A5,354.0,0.25,61,65.07
2821,C5,354.25,61/250,55,65.07
2822,C5,354.5,1.0,54,65.07
2823,G3,354.5,1.5,44,65.07
2824,E4,354.5,0.5,44,65.07
2825,F4,355.0,1.0,44,65.07
2826,B4,355.5,0.5,56,65.07
2827,E5,355.5,0.25,56,65.07
2828,D5,355.75,0.25,54,65.07
2829,C5,356.0,0.5,54,65.07
2830,E4,356.0,0.5,46,65.07
2831,C4,356.0,0.25,46,65.07
2832,C3,356.5,0.25,44,65.07
2833,G5,357.0,0.25,76,65.07
2834,E5,357.25,0.25,72,65.07
2835,C6,357.5,0.25,57,65.07
2836,B5,357.75,0.125,53,65.07
2837,A5,358.0,0.125,51,65.07
2838,G5,358.25,0.125,49,65.07
2839,F5,358.5,0.125,54,65.07
2840,E5,358.75,0.125,50,65.07
2841,D5,359.0,0.25,53,65.07
2842,E5,359.5,0.25,54,65.07
2843,G5,360.0,0.25,58,65.07
2844,F#5,360.25,0.25,54,65.07
2845,F5,360.5,0.25,54,65.07
2846,G4,360.5,1.0,43,65.07
2847,B3,360.5,0.5,43,65.07
2848,E5,361.0,0.25,51,65.07
2849,C4,361.0,0.5,43,65.07
2850,F5,361.25,0.25,54,65.07
2851,G5,361.5,0.25,57,65.07
2852,G#5,361.75,0.125,59,65.07
2853,A5,362.0,3/40,49,65.07
2854,F3,362.0,1.0,43,65.07
2855,C4,362.0,1.0,43,65.07
2856,B5,362.075,3/40,51,65.07
2857,A5,362.15,3/40,54,65.07
2858,B5,362.225,3/40,56,65.07
2859,A5,362.3,3/40,58,65.07
2860,B5,362.375,0.125,62,65.07
2861,C6,362.5,0.125,68,65.07
2862,B5,362.75,0.125,61,65.07
2863,A5,363.0,0.125,62,65.07
2864,G5,363.25,0.125,57,65.07
2865,F5,363.5,0.125,60,65.07
2866,F#3,363.5,0.5,40,65.07
2867,A3,363.5,0.5,40,65.07
2868,E5,363.75,0.125,57,65.07
2869,G5,364.0,0.375,64,65.07
2870,C4,364.0,0.5,43,65.07
2871,G3,364.0,1.0,43,65.07
2872,E5,364.375,0.125,61,65.07
2873,D5,364.5,0.25,61,65.07
2874,B3,364.5,0.5,40,65.07
2875,G5,365.0,0.375,86,65.07
2876,G4,365.0,0.375,77,65.07
2877,A5,365.375,0.062,81,65.07
2878,A4,365.375,0.062,68,65.07
2879,B5,365.438,0.062,76,65.07
2880,B4,365.438,0.062,63,65.07
2881,C6,365.5,0.25,85,65.07
2882,C5,365.5,0.25,69,65.07
2883,B5,365.75,0.125,62,65.07
2884,B4,365.75,0.125,56,65.07
2885,A5,366.0,0.125,62,65.07
2886,A4,366.0,0.125,56,65.07
2887,G5,366.25,0.125,60,65.07
2888,G4,366.25,0.125,52,65.07
2889,F5,366.5,0.125,62,65.07
2890,F4,366.5,0.125,56,65.07
2891,E5,366.75,0.125,59,65.07
2892,E4,366.75,0.125,52,65.07
2893,D5,367.0,0.25,63,65.07
2894,D4,367.0,0.25,57,65.07
2895,E5,367.5,0.25,70,65.07
2896,E4,367.5,0.25,62,65.07
2897,F5,368.0,0.25,72,65.07
2898,F4,368.0,0.25,67,65.07
2899,F#5,368.5,0.25,78,65.07
2900,F#4,368.5,0.25,69,65.07
2901,G5,369.0,0.25,79,65.07
2902,G4,369.0,0.25,70,65.07
2903,G#5,369.5,0.25,82,65.07
2904,G#4,369.5,0.25,72,65.07
2905,A5,370.0,0.375,85,65.07
2906,A4,370.0,0.5,77,65.07
2907,A4,370.375,0.125,79,65.07
2908,F5,370.5,0.375,84,65.07
2909,F3,370.5,0.5,48,65.07
2910,D4,370.5,0.5,48,65.07
2911,D5,370.875,0.125,81,65.07
2912,C5,371.0,0.5,77,65.07
2913,G3,371.0,1.0,48,65.07
2914,E4,371.0,0.5,48,65.07
2915,E5,371.438,0.062,64,65.07
2916,F4,371.5,0.5,48,65.07
2917,D5,371.5,0.5,71,65.07
2918,B4,371.5,0.5,71,65.07
2919,C5,372.0,0.5,71,65.07
2920,C4,372.0,0.25,60,65.07
2921,E4,372.25,0.25,52,65.07
2922,G4,372.5,0.25,57,65.07
2923,C5,372.625,0.125,64,65.07
2924,D5,372.75,0.125,65,65.07
2925,E4,372.75,0.25,53,65.07
2926,E5,372.875,0.125,66,65.07
2927,F5,373.0,0.062,68,65.07
2928,C4,373.0,0.25,60,65.07
2929,G5,373.062,0.062,68,65.07
2930,F5,373.125,0.062,59,65.07
2931,E5,373.188,0.125,70,65.07
2932,F5,373.25,0.125,71,65.07
2933,F4,373.25,0.25,53,65.07
2934,G5,373.375,0.125,72,65.07
2935,A5,373.5,13/250,66,65.07
2936,A4,373.5,0.25,57,65.07
2937,B5,373.562,13/250,65,65.07
2938,A5,373.625,0.125,70,65.07
2939,G5,373.688,0.125,75,65.07
2940,A5,373.75,0.125,76,65.07
2941,F4,373.75,0.25,51,65.07
2942,B5,373.875,0.125,78,65.07
2943,C6,374.0,0.125,87,65.07
2944,C4,374.0,0.25,60,65.07
2945,C6,374.25,0.125,84,65.07
2946,E4,374.25,0.25,47,65.07
2947,G4,374.5,0.25,54,65.07
2948,C5,374.625,0.125,63,65.07
2949,D5,374.75,0.125,65,65.07
2950,E4,374.75,0.25,49,65.07
2951,E5,374.875,0.125,66,65.07
2952,F5,375.0,0.062,68,65.07
2953,C4,375.0,0.25,60,65.07
2954,G5,375.062,0.062,68,65.07
2955,F5,375.125,0.062,59,65.07
2956,E5,375.188,0.125,70,65.07
2957,F5,375.25,0.125,71,65.07
2958,F4,375.25,0.25,53,65.07
2959,G5,375.375,0.125,72,65.07
2960,A5,375.5,13/250,66,65.07
2961,A4,375.5,0.25,57,65.07
2962,B5,375.562,13/250,65,65.07
2963,A5,375.625,0.125,70,65.07
2964,G5,375.688,0.125,75,65.07
2965,A5,375.75,0.125,76,65.07
2966,F4,375.75,0.25,52,65.07
2967,B5,375.875,0.125,78,65.07
2968,C6,376.0,0.125,88,65.07
2969,G4,376.0,0.5,58,65.07
2970,E4,376.0,0.5,58,65.07
2971,C4,376.0,0.5,58,65.07
2972,C6,376.25,0.125,86,65.07
2973,G4,376.5,1.0,46,65.07
2974,F4,376.5,0.5,46,65.07
2975,G5,376.625,0.125,55,65.07
2976,B5,376.75,0.125,58,65.07
2977,G5,376.875,0.125,55,65.07
2978,C6,377.0,0.125,59,65.07
2979,E4,377.0,0.5,44,65.07
2980,C6,377.25,0.125,59,65.07
2981,G4,377.5,0.5,43,65.07
2982,F4,377.5,0.5,43,65.07
2983,G5,377.625,0.125,54,65.07
2984,B5,377.75,0.125,57,65.07
2985,G5,377.875,0.125,54,65.07
2986,C6,378.0,0.125,59,65.07
2987,E4,378.0,0.5,45,65.07
2988,G4,378.0,0.5,43,65.07
2989,C6,378.25,0.125,66,65.07
2990,F4,378.5,0.25,52,65.07
2991,G4,378.5,0.25,52,65.07
2992,G5,378.625,0.125,67,65.07
2993,B5,378.75,0.125,71,65.07
2994,F4,378.75,0.25,53,65.07
2995,G4,378.75,0.25,53,65.07
2996,G5,378.875,0.125,68,65.07
2997,C6,379.0,0.125,75,65.07
2998,E4,379.0,0.25,54,65.07
2999,G4,379.0,0.25,54,65.07
3000,G5,379.125,0.125,72,65.07
3001,C6,379.25,0.125,79,65.07
3002,E4,379.25,0.25,56,65.07
3003,G4,379.25,0.25,56,65.07
3004,G5,379.375,0.125,75,65.07
3005,D6,379.5,0.125,83,65.07
3006,B3,379.5,0.25,57,65.07
3007,G4,379.5,0.25,57,65.07
3008,G5,379.625,0.125,81,65.07
3009,D6,379.75,0.125,88,65.07
3010,B3,379.75,0.25,58,65.07
3011,G4,379.75,0.25,58,65.07
3012,G5,379.875,0.125,83,65.07
3013,E6,380.0,0.25,91,65.07
3014,C4,380.0,0.5,67,65.07
3015,G4,380.0,0.5,67,65.07
3016,C6,380.25,0.25,80,65.07
3017,G5,380.5,0.25,82,65.07
3018,C6,380.75,0.25,79,65.07
3019,E5,381.0,0.25,78,65.07
3020,G5,381.25,0.25,71,65.07
3021,C5,381.5,0.25,72,65.07
3022,E5,381.75,0.25,69,65.07
3023,A4,382.0,0.25,60,65.07
3024,A5,382.25,0.25,60,65.07
3025,G5,382.5,0.125,63,65.07
3026,F3,382.5,0.5,44,65.07
3027,A3,382.5,0.5,44,65.07
3028,D4,382.5,0.5,44,65.07
3029,F5,382.625,0.125,58,65.07
3030,E5,382.75,0.125,63,65.07
3031,D5,382.875,0.125,58,65.07
3032,C5,383.0,0.5,63,65.07
3033,G3,383.0,1.0,44,65.07
3034,E4,383.0,0.5,44,65.07
3035,C4,383.0,0.5,44,65.07
3036,B4,383.5,67/1000,60,65.07
3037,D4,383.5,0.5,43,65.07
3038,F4,383.5,0.5,43,65.07
3039,C5,383.567,67/1000,63,65.07
3040,B4,383.633,67/1000,60,65.07
3041,C5,383.7,67/1000,63,65.07
3042,B4,383.767,67/1000,63,65.07
3043,A4,383.833,83/1000,63,65.07
3044,B4,383.917,83/1000,60,65.07
3045,C5,384.0,0.5,71,65.07
3046,C4,384.0,0.25,60,65.07
3047,E4,384.25,0.25,52,65.07
3048,G4,384.5,0.25,57,65.07
3049,C5,384.625,0.125,64,65.07
3050,D5,384.75,0.125,65,65.07
3051,E4,384.75,0.25,52,65.07
3052,E5,384.875,0.125,66,65.07
3053,F5,385.0,0.062,68,65.07
3054,C4,385.0,0.25,60,65.07
3055,G5,385.062,0.062,68,65.07
3056,F5,385.125,0.062,59,65.07
3057,E5,385.188,0.125,70,65.07
3058,F5,385.25,0.125,71,65.07
3059,F4,385.25,0.25,53,65.07
3060,G5,385.375,0.125,72,65.07
3061,A5,385.5,13/250,66,65.07
3062,A4,385.5,0.25,57,65.07
3063,B5,385.562,13/250,65,65.07
3064,A5,385.625,0.125,70,65.07
3065,G5,385.688,0.125,75,65.07
3066,A5,385.75,0.125,76,65.07
3067,F4,385.75,0.25,57,65.07
3068,B5,385.875,0.125,78,65.07
3069,C6,386.0,0.125,84,65.07
3070,C4,386.0,0.25,60,65.07
3071,C6,386.25,0.125,81,65.07
3072,E4,386.25,0.25,52,65.07
3073,G4,386.5,0.25,57,65.07
3074,C5,386.625,0.125,63,65.07
3075,D5,386.75,0.125,65,65.07
3076,E4,386.75,0.25,51,65.07
3077,E5,386.875,0.125,66,65.07
3078,F5,387.0,0.062,68,65.07
3079,C4,387.0,0.25,60,65.07
3080,G5,387.062,0.062,68,65.07
3081,F5,387.125,0.062,59,65.07
3082,E5,387.188,0.125,70,65.07
3083,F5,387.25,0.125,71,65.07
3084,F4,387.25,0.25,53,65.07
3085,G5,387.375,0.125,72,65.07
3086,A5,387.5,13/250,66,65.07
3087,A4,387.5,0.25,57,65.07
3088,B5,387.562,13/250,65,65.07
3089,A5,387.625,0.125,70,65.07
3090,G5,387.688,0.125,75,65.07
3091,A5,387.75,0.125,76,65.07
3092,F4,387.75,0.25,51,65.07
3093,B5,387.875,0.125,78,65.07
3094,C6,388.0,0.125,84,65.07
3095,G4,388.0,0.5,60,65.07
3096,E4,388.0,0.5,60,65.07
3097,C4,388.0,0.5,60,65.07
3098,C6,388.25,0.125,80,65.07
3099,G4,388.5,1.0,46,65.07
3100,F4,388.5,0.5,46,65.07
3101,G5,388.625,0.125,55,65.07
3102,B5,388.75,0.125,59,65.07
3103,G5,388.875,0.125,55,65.07
3104,C6,389.0,0.125,59,65.07
3105,E4,389.0,0.5,44,65.07
3106,C6,389.25,0.125,59,65.07
3107,G4,389.5,0.5,42,65.07
3108,F4,389.5,0.5,42,65.07
3109,G5,389.625,0.125,54,65.07
3110,B5,389.75,0.125,56,65.07
3111,G5,389.875,0.125,54,65.07
3112,C6,390.0,0.125,59,65.07
3113,E4,390.0,0.5,45,65.07
3114,G4,390.0,0.5,42,65.07
3115,C6,390.25,0.125,59,65.07
3116,F4,390.5,119/500,52,65.07
3117,G4,390.5,119/500,52,65.07
3118,G5,390.625,0.125,67,65.07
3119,B5,390.75,0.125,71,65.07
3120,F4,390.75,119/500,53,65.07
3121,G4,390.75,119/500,53,65.07
3122,G5,390.875,0.125,68,65.07
3123,C6,391.0,0.125,75,65.07
3124,E4,391.0,119/500,54,65.07
3125,G4,391.0,119/500,54,65.07
3126,G5,391.125,0.125,73,65.07
3127,C6,391.25,0.125,79,65.07
3128,E4,391.25,119/500,56,65.07
3129,G4,391.25,119/500,56,65.07
3130,G5,391.375,0.125,77,65.07
3131,D6,391.5,0.125,83,65.07
3132,B3,391.5,119/500,57,65.07
3133,G4,391.5,119/500,57,65.07
3134,G5,391.625,0.125,81,65.07
3135,D6,391.75,0.125,88,65.07
3136,B3,391.75,119/500,58,65.07
3137,G4,391.75,119/500,58,65.07
3138,G5,391.875,0.125,82,65.07
3139,E6,392.0,0.125,88,65.07
3140,C4,392.0,0.5,67,65.07
3141,G4,392.0,0.5,67,65.07
3142,C6,392.125,0.125,78,65.07
3143,E6,392.25,0.125,84,65.07
3144,C6,392.375,0.125,80,65.07
3145,G5,392.5,0.125,82,65.07
3146,C6,392.625,0.125,74,65.07
3147,G5,392.75,0.125,79,65.07
3148,C6,392.875,0.125,71,65.07
3149,E5,393.0,0.125,78,65.07
3150,G5,393.125,0.125,71,65.07
3151,E5,393.25,0.125,76,65.07
3152,G5,393.375,0.125,71,65.07
3153,C5,393.5,0.125,72,65.07
3154,E5,393.625,0.125,67,65.07
3155,C5,393.75,0.125,71,65.07
3156,E5,393.875,0.125,63,65.07
3157,A4,394.0,0.25,60,65.07
3158,A5,394.25,0.25,63,65.07
3159,G5,394.5,0.125,63,65.07
3160,F3,394.5,0.5,44,65.07
3161,A3,394.5,0.5,44,65.07
3162,D4,394.5,0.5,44,65.07
3163,F5,394.625,0.125,58,65.07
3164,E5,394.75,0.125,63,65.07
3165,D5,394.875,0.125,60,65.07
3166,C5,395.0,0.5,63,65.07
3167,G3,395.0,1.0,44,65.07
3168,E4,395.0,0.5,44,65.07
3169,C4,395.0,0.5,44,65.07
3170,B4,395.5,67/1000,60,65.07
3171,D4,395.5,0.5,41,65.07
3172,F4,395.5,0.5,41,65.07
3173,C5,395.567,67/1000,63,65.07
3174,B4,395.633,67/1000,60,65.07
3175,C5,395.7,67/1000,63,65.07
3176,B4,395.767,67/1000,63,65.07
3177,A4,395.833,83/1000,63,65.07
3178,B4,395.917,83/1000,60,65.07
3179,C5,396.0,0.375,82,65.07
3180,C4,396.0,0.375,78,65.07
3181,G4,396.375,0.125,78,65.07
3182,G3,396.375,0.125,71,65.07
3183,E5,396.5,0.375,82,65.07
3184,E4,396.5,0.375,76,65.07
3185,C5,396.875,0.125,76,65.07
3186,C4,396.875,0.125,68,65.07
3187,G5,397.0,0.25,81,65.07
3188,G4,397.0,0.25,74,65.07
3189,D6,397.5,3/20,54,65.07
3190,C6,397.625,3/20,50,65.07
3191,B5,397.75,3/20,54,65.07
3192,A5,397.875,0.125,49,65.07
3193,G5,398.0,0.25,57,65.07
3194,A5,398.0,1/40,49,65.07
3195,G3,398.0,0.25,41,65.07
3196,C4,398.0,0.25,41,65.07
3197,E4,398.0,0.25,41,65.07
3198,A5,398.5,3/20,54,65.07
3199,G5,398.625,3/20,50,65.07
3200,F5,398.75,3/20,54,65.07
3201,E5,398.875,3/20,50,65.07
3202,D5,399.0,0.25,57,65.07
3203,G3,399.0,0.25,41,65.07
3204,F4,399.0,0.25,41,65.07
3205,B3,399.0,0.25,41,65.07
3206,G5,399.5,3/20,56,65.07
3207,F5,399.625,3/20,53,65.07
3208,E5,399.75,3/20,56,65.07
3209,D5,399.875,0.125,52,65.07
3210,C5,400.0,0.125,81,65.07
3211,D5,400.0,1/40,52,65.07
3212,C4,400.0,0.125,70,65.07
3213,G4,400.125,0.125,75,65.07
3214,G3,400.125,0.125,65,65.07
3215,C5,400.25,0.125,82,65.07
3216,C4,400.25,0.125,70,65.07
3217,G4,400.375,0.125,78,65.07
3218,G3,400.375,0.125,65,65.07
3219,E5,400.5,0.125,82,65.07
3220,E4,400.5,0.125,70,65.07
3221,C5,400.625,0.125,78,65.07
3222,C4,400.625,0.125,64,65.07
3223,E5,400.75,0.125,82,65.07
3224,E4,400.75,0.125,71,65.07
3225,C5,400.875,0.125,76,65.07
3226,C4,400.875,0.125,65,65.07
3227,G5,401.0,0.25,82,65.07
3228,G4,401.0,0.25,71,65.07
3229,D6,401.5,3/20,55,65.07
3230,C6,401.625,3/20,53,65.07
3231,B5,401.75,3/20,55,65.07
3232,A5,401.875,0.125,53,65.07
3233,G5,402.0,0.125,58,65.07
3234,A5,402.0,1/40,53,65.07
3235,G3,402.0,0.25,45,65.07
3236,E4,402.0,0.25,45,65.07
3237,C4,402.0,0.25,45,65.07
3238,G5,402.25,0.125,58,65.07
3239,A5,402.5,3/20,54,65.07
3240,G5,402.625,3/20,50,65.07
3241,F5,402.75,3/20,54,65.07
3242,E5,402.875,3/20,50,65.07
3243,D5,403.0,0.125,57,65.07
3244,B3,403.0,0.25,45,65.07
3245,G3,403.0,0.25,45,65.07
3246,F4,403.0,0.25,45,65.07
3247,D5,403.25,0.125,57,65.07
3248,G5,403.5,3/20,55,65.07
3249,F5,403.625,3/20,51,65.07
3250,E5,403.75,3/20,55,65.07
3251,D5,403.875,0.125,51,65.07
3252,C5,404.0,0.5,62,65.07
3253,D5,404.0,1/40,51,65.07
3254,E4,404.0,0.25,51,65.07
3255,C4,404.25,0.25,41,65.07
3256,E4,404.5,0.25,51,65.07
3257,G#5,404.75,0.25,57,65.07
3258,C4,404.75,0.25,41,65.07
3259,A5,405.0,0.25,62,65.07
3260,F4,405.0,0.25,51,65.07
3261,B5,405.25,0.25,64,65.07
3262,C4,405.25,0.25,41,65.07
3263,C6,405.5,0.25,70,65.07
3264,G4,405.5,0.25,51,65.07
3265,E5,405.75,0.25,62,65.07
3266,C4,405.75,0.25,41,65.07
3267,G5,406.0,0.25,66,65.07
3268,A4,406.0,0.25,51,65.07
3269,F5,406.25,0.25,62,65.07
3270,C4,406.25,0.25,43,65.07
3271,B-4,406.5,0.25,51,65.07
3272,E5,406.75,0.25,55,65.07
3273,C4,406.75,0.25,43,65.07
3274,F5,407.0,0.25,60,65.07
3275,A4,407.0,0.25,51,65.07
3276,G5,407.25,0.25,62,65.07
3277,C4,407.25,0.25,43,65.07
3278,A5,407.5,0.25,65,65.07
3279,G4,407.5,0.25,51,65.07
3280,C#5,407.75,0.25,57,65.07
3281,C4,407.75,0.25,43,65.07
3282,E5,408.0,0.25,63,65.07
3283,F4,408.0,0.25,51,65.07
3284,D5,408.25,0.25,57,65.07
3285,C4,408.25,0.25,43,65.07
3286,E4,408.5,0.25,51,65.07
3287,C#5,408.75,0.25,49,65.07
3288,C4,408.75,0.25,35,65.07
3289,D5,409.0,0.25,52,65.07
3290,F4,409.0,0.25,40,65.07
3291,E5,409.25,0.25,54,65.07
3292,C4,409.25,0.25,37,65.07
3293,F5,409.5,0.25,57,65.07
3294,D4,409.5,0.25,40,65.07
3295,B4,409.75,0.25,49,65.07
3296,C4,409.75,0.25,36,65.07
3297,D5,410.0,0.25,50,65.07
3298,E4,410.0,0.25,39,65.07
3299,C5,410.25,0.25,49,65.07
3300,C4,410.25,0.25,36,65.07
3301,A5,410.5,0.25,70,65.07
3302,F4,410.5,0.25,40,65.07
3303,B4,410.75,0.25,49,65.07
3304,C4,410.75,0.25,34,65.07
3305,D5,411.0,0.25,51,65.07
3306,E4,411.0,0.25,40,65.07
3307,C5,411.25,0.25,49,65.07
3308,C4,411.25,0.25,38,65.07
3309,A5,411.5,0.25,70,65.07
3310,F4,411.5,0.25,41,65.07
3311,B4,411.75,0.25,49,65.07
3312,C4,411.75,0.25,34,65.07
3313,E4,412.0,0.25,41,65.07
3314,D5,412.25,0.125,49,65.07
3315,C4,412.25,0.25,37,65.07
3316,C5,412.375,0.125,43,65.07
3317,F4,412.5,0.25,40,65.07
3318,G#5,412.75,0.125,57,65.07
3319,C4,412.75,0.25,33,65.07
3320,B4,412.875,0.125,43,65.07
3321,E4,413.0,0.25,41,65.07
3322,D5,413.25,0.125,51,65.07
3323,C4,413.25,0.25,37,65.07
3324,C5,413.375,0.125,43,65.07
3325,F4,413.5,0.25,41,65.07
3326,G#5,413.75,0.125,55,65.07
3327,C4,413.75,0.25,35,65.07
3328,B4,413.875,0.125,41,65.07
3329,B4,414.0,1.0,50,65.07
3330,D5,414.0,1.0,50,65.07
3331,G4,414.0,1.0,50,65.07
3332,F4,414.0,1.0,50,65.07
3333,C3,414.0,1.5,36,65.07
3334,C4,414.0,1.5,36,65.07
3335,C5,415.0,0.5,36,65.07
3336,E4,415.0,0.5,36,65.07
3337,G4,415.0,0.5,36,65.07
3338,D5,416.0,0.75,51,65.07
3339,G4,416.0,0.25,40,65.07
3340,B4,416.25,0.25,36,65.07
3341,G4,416.5,0.25,36,65.07
3342,E-5,416.75,0.25,53,65.07
3343,B4,416.75,0.25,31,65.07
3344,E5,417.0,0.25,54,65.07
3345,G4,417.0,0.25,40,65.07
3346,F#5,417.25,0.25,55,65.07
3347,B4,417.25,0.25,36,65.07
3348,G5,417.5,0.25,56,65.07
3349,F4,417.5,0.25,40,65.07
3350,B4,417.75,0.25,53,65.07
3351,G#4,417.75,0.25,36,65.07
3352,D5,418.0,0.25,54,65.07
3353,E4,418.0,0.25,40,65.07
3354,C5,418.25,0.25,53,65.07
3355,G4,418.25,0.25,36,65.07
3356,E4,418.5,0.25,38,65.07
3357,B4,418.75,0.25,51,65.07
3358,G4,418.75,0.25,32,65.07
3359,C5,419.0,0.25,54,65.07
3360,E4,419.0,0.25,40,65.07
3361,D5,419.25,0.25,55,65.07
3362,G4,419.25,0.25,36,65.07
3363,E5,419.5,0.25,56,65.07
3364,D4,419.5,0.25,40,65.07
3365,G#4,419.75,0.25,50,65.07
3366,F4,419.75,0.25,36,65.07
3367,B4,420.0,0.25,54,65.07
3368,C4,420.0,0.25,40,65.07
3369,A4,420.25,0.25,51,65.07
3370,E4,420.25,0.25,35,65.07
3371,C4,420.5,0.25,40,65.07
3372,G#4,420.75,0.25,51,65.07
3373,E4,420.75,0.25,35,65.07
3374,A4,421.0,0.25,54,65.07
3375,C4,421.0,0.25,40,65.07
3376,B4,421.25,0.25,54,65.07
3377,E4,421.25,0.25,35,65.07
3378,C5,421.5,0.25,56,65.07
3379,C4,421.5,0.25,40,65.07
3380,F#4,421.75,0.25,50,65.07
3381,E-4,421.75,0.25,35,65.07
3382,A4,422.0,0.25,54,65.07
3383,B3,422.0,0.25,38,65.07
3384,G4,422.25,0.25,51,65.07
3385,D4,422.25,0.25,35,65.07
3386,E5,422.5,0.25,72,65.07
3387,C4,422.5,0.25,38,65.07
3388,F#4,422.75,0.25,54,65.07
3389,D4,422.75,0.25,35,65.07
3390,A4,423.0,0.25,56,65.07
3391,B3,423.0,0.25,38,65.07
3392,G4,423.25,0.25,51,65.07
3393,D4,423.25,0.25,35,65.07
3394,E5,423.5,0.25,72,65.07
3395,C4,423.5,0.25,38,65.07
3396,F#4,423.75,0.25,51,65.07
3397,D4,423.75,0.25,35,65.07
3398,A4,424.0,0.25,55,65.07
3399,B3,424.0,0.25,38,65.07
3400,G4,424.25,0.25,50,65.07
3401,D4,424.25,0.25,35,65.07
3402,E-5,424.5,0.25,71,65.07
3403,C4,424.5,0.25,38,65.07
3404,F#4,424.75,0.25,51,65.07
3405,E-4,424.75,0.25,35,65.07
3406,A4,425.0,0.25,55,65.07
3407,B3,425.0,0.25,38,65.07
3408,G4,425.25,0.25,51,65.07
3409,D4,425.25,0.25,36,65.07
3410,E-5,425.5,0.25,67,65.07
3411,C4,425.5,0.25,38,65.07
3412,F#4,425.75,0.25,49,65.07
3413,E-4,425.75,0.25,35,65.07
3414,G4,426.0,0.25,72,65.07
3415,B3,426.0,1.0,43,65.07
3416,D4,426.0,1.0,43,65.07
3417,A4,426.25,3/20,64,65.07
3418,B4,426.375,3/20,65,65.07
3419,C5,426.5,3/20,67,65.07
3420,D5,426.625,3/20,68,65.07
3421,E5,426.75,3/20,69,65.07
3422,F#5,426.875,3/20,71,65.07
3423,G5,427.0,3/20,72,65.07
3424,A5,427.125,3/20,70,65.07
3425,B5,427.25,3/20,74,65.07
3426,F#5,427.375,3/20,72,65.07
3427,G5,427.5,3/20,73,65.07
3428,D5,427.625,3/20,69,65.07
3429,E5,427.75,3/20,71,65.07
3430,B4,427.875,0.125,68,65.07
3431,D5,428.0,1.0,81,65.07
3432,B4,428.0,1/40,68,65.07
3433,D3,428.0,0.25,54,65.07
3434,B3,428.25,0.25,50,65.07
3435,G3,428.5,0.25,54,65.07
3436,B3,428.75,0.25,50,65.07
3437,C5,429.0,0.094,62,65.07
3438,D3,429.0,0.25,54,65.07
3439,D5,429.083,0.094,56,65.07
3440,C5,429.167,0.094,58,65.07
3441,D5,429.25,0.094,56,65.07
3442,A3,429.25,0.25,49,65.07
3443,C5,429.333,0.094,57,65.07
3444,D5,429.417,0.094,53,65.07
3445,C5,429.5,0.094,59,65.07
3446,F#3,429.5,0.25,54,65.07
3447,D5,429.583,0.094,56,65.07
3448,C5,429.667,0.125,63,65.07
3449,B4,429.75,0.125,61,65.07
3450,A3,429.75,0.25,50,65.07
3451,C5,429.875,0.125,59,65.07
3452,B4,430.0,1.0,66,65.07
3453,G3,430.0,0.25,46,65.07
3454,B3,430.25,0.25,43,65.07
3455,D4,430.5,0.25,45,65.07
3456,B3,430.75,0.25,40,65.07
3457,G3,431.0,0.5,50,65.07
3458,A4,431.188,0.062,38,65.07
3459,G4,431.25,0.125,48,65.07
3460,F#4,431.375,0.125,44,65.07
3461,G4,431.5,0.062,51,65.07
3462,B4,431.75,0.062,51,65.07
3463,E5,432.0,0.5,55,65.07
3464,G3,432.0,0.25,40,65.07
3465,B3,432.25,0.25,32,65.07
3466,D5,432.5,0.5,51,65.07
3467,D4,432.5,0.25,36,65.07
3468,B3,432.75,0.25,31,65.07
3469,G3,433.0,0.5,40,65.07
3470,C5,433.188,0.062,37,65.07
3471,B4,433.25,0.125,48,65.07
3472,A4,433.375,0.125,45,65.07
3473,B4,433.5,0.062,54,65.07
3474,D5,433.75,0.062,54,65.07
3475,G5,434.0,0.5,64,65.07
3476,G3,434.0,0.25,40,65.07
3477,B3,434.25,0.25,36,65.07
3478,F5,434.5,0.5,56,65.07
3479,D4,434.5,0.25,40,65.07
3480,B3,434.75,0.25,38,65.07
3481,G3,435.0,0.5,44,65.07
3482,E5,435.188,0.062,54,65.07
3483,D5,435.25,0.125,67,65.07
3484,C#5,435.375,0.125,61,65.07
3485,D5,435.5,0.062,71,65.07
3486,F5,435.75,0.062,74,65.07
3487,C6,436.0,0.25,75,65.07
3488,G#3,436.0,0.5,64,65.07
3489,B5,436.25,0.5,71,65.07
3490,B3,436.5,0.5,64,65.07
3491,D6,436.75,0.5,81,65.07
3492,D4,437.0,0.5,69,65.07
3493,G#5,437.25,0.5,73,65.07
3494,F4,437.5,0.5,65,65.07
3495,B5,437.75,0.25,81,65.07
3496,B5,438.0,0.25,81,65.07
3497,B3,438.0,0.5,69,65.07
3498,D5,438.25,0.5,78,65.07
3499,A3,438.5,0.5,63,65.07
3500,F5,438.75,0.5,84,65.07
3501,G#3,439.0,0.5,67,65.07
3502,E5,439.25,0.5,81,65.07
3503,E4,439.5,0.5,63,65.07
3504,D5,439.75,0.25,72,65.07
3505,C5,440.0,1.188,61,65.07
3506,A3,440.0,0.25,38,65.07
3507,C4,440.25,0.25,35,65.07
3508,E4,440.5,0.25,35,65.07
3509,C4,440.75,0.25,35,65.07
3510,A3,441.0,0.25,38,65.07
3511,D5,441.188,0.062,46,65.07
3512,C5,441.25,0.125,54,65.07
3513,C4,441.25,0.25,35,65.07
3514,B4,441.375,0.125,48,65.07
3515,C5,441.5,0.25,54,65.07
3516,F4,441.5,0.25,35,65.07
3517,D5,441.75,0.125,53,65.07
3518,C4,441.75,0.25,35,65.07
3519,C5,442.0,1.0,56,65.07
3520,G3,442.0,0.25,38,65.07
3521,D4,442.25,0.25,35,65.07
3522,F4,442.5,0.25,35,65.07
3523,D4,442.75,0.25,35,65.07
3524,B-4,443.0,0.094,62,65.07
3525,G3,443.0,0.25,43,65.07
3526,C5,443.083,0.094,56,65.07
3527,B-4,443.167,0.094,58,65.07
3528,C5,443.25,0.094,56,65.07
3529,C4,443.25,0.25,39,65.07
3530,B-4,443.333,0.094,57,65.07
3531,C5,443.417,0.094,53,65.07
3532,B-4,443.5,0.094,59,65.07
3533,E4,443.5,0.25,39,65.07
3534,C5,443.583,0.094,56,65.07
3535,B-4,443.667,0.125,63,65.07
3536,A4,443.75,0.125,61,65.07
3537,C4,443.75,0.25,39,65.07
3538,B-4,443.875,0.125,59,65.07
3539,A4,444.0,0.25,68,65.07
3540,F3,444.0,0.25,48,65.07
3541,C5,444.25,0.5,71,65.07
3542,C4,444.25,0.25,39,65.07
3543,F4,444.5,0.25,54,65.07
3544,F5,444.75,0.5,76,65.07
3545,C4,444.75,0.25,43,65.07
3546,F3,445.0,0.25,54,65.07
3547,A5,445.25,0.5,77,65.07
3548,A3,445.25,0.25,48,65.07
3549,D4,445.5,0.25,59,65.07
3550,B-5,445.75,0.25,78,65.07
3551,A3,445.75,0.25,51,65.07
3552,A5,446.0,1.0,83,65.07
3553,E3,446.0,0.25,59,65.07
3554,A3,446.25,0.25,46,65.07
3555,C#4,446.5,0.25,51,65.07
3556,A3,446.75,0.25,45,65.07
3557,G5,447.0,0.5,77,65.07
3558,E3,447.0,0.25,56,65.07
3559,A3,447.25,0.25,45,65.07
3560,C#4,447.5,0.25,50,65.07
3561,A3,447.75,0.25,45,65.07
3562,G5,448.0,0.75,70,65.07
3563,D3,448.0,0.25,36,65.07
3564,A3,448.25,0.25,32,65.07
3565,C4,448.5,0.25,32,65.07
3566,F#5,448.75,0.25,61,65.07
3567,A3,448.75,0.25,32,65.07
3568,F5,449.0,0.25,57,65.07
3569,D3,449.0,0.25,36,65.07
3570,G3,449.25,0.25,33,65.07
3571,B3,449.5,0.25,33,65.07
3572,G3,449.75,0.25,33,65.07
3573,F5,450.0,0.75,61,65.07
3574,C3,450.0,0.25,38,65.07
3575,G3,450.25,0.25,36,65.07
3576,C4,450.5,0.25,36,65.07
3577,E5,450.75,0.25,55,65.07
3578,G3,450.75,0.25,36,65.07
3579,E-5,451.0,0.25,54,65.07
3580,C3,451.0,0.25,38,65.07
3581,G3,451.25,0.25,34,65.07
3582,C4,451.5,0.25,34,65.07
3583,G3,451.75,0.25,34,65.07
3584,E-5,452.0,0.25,63,65.07
3585,F3,452.0,0.25,43,65.07
3586,D5,452.25,0.25,60,65.07
3587,G#3,452.25,0.25,38,65.07
3588,D5,452.5,0.125,57,65.07
3589,C4,452.5,0.25,38,65.07
3590,D5,452.75,0.125,60,65.07
3591,G#3,452.75,0.25,38,65.07
3592,D5,453.0,0.5,60,65.07
3593,F3,453.0,0.25,43,65.07
3594,G#3,453.25,0.25,38,65.07
3595,D5,453.5,0.5,60,65.07
3596,C4,453.5,0.25,38,65.07
3597,G#3,453.75,0.25,38,65.07
3598,D5,454.0,0.438,62,65.07
3599,F#3,454.0,0.25,43,65.07
3600,A3,454.25,0.25,45,65.07
3601,F5,454.438,0.062,64,65.07
3602,E-5,454.5,0.938,72,65.07
3603,C4,454.5,0.25,48,65.07
3604,A3,454.75,0.25,45,65.07
3605,F#3,455.0,0.25,43,65.07
3606,A3,455.25,0.25,39,65.07
3607,D5,455.438,0.062,57,65.07
3608,C5,455.5,0.5,63,65.07
3609,C4,455.5,0.25,39,65.07
3610,A3,455.75,0.25,39,65.07
3611,B4,456.0,0.25,54,65.07
3612,G3,456.0,19/40,39,65.07
3613,G5,456.25,0.25,54,65.07
3614,G3,456.5,19/40,41,65.07
3615,G5,456.75,0.25,56,65.07
3616,A3,457.0,19/40,45,65.07
3617,G3,457.0,19/40,45,65.07
3618,F#5,457.25,0.25,57,65.07
3619,B3,457.5,19/40,46,65.07
3620,G3,457.5,19/40,46,65.07
3621,F5,457.75,0.25,60,65.07
3622,F5,458.0,0.25,64,65.07
3623,C4,458.0,19/40,50,65.07
3624,G3,458.0,19/40,50,65.07
3625,E5,458.25,0.25,61,65.07
3626,G4,458.5,19/40,48,65.07
3627,G3,458.5,19/40,48,65.07
3628,E-5,458.75,0.25,59,65.07
3629,F4,459.0,19/40,46,65.07
3630,G3,459.0,19/40,46,65.07
3631,D5,459.25,0.25,56,65.07
3632,E-4,459.5,19/40,44,65.07
3633,G3,459.5,19/40,44,65.07
3634,C5,459.75,0.25,54,65.07
3635,C5,460.0,0.25,60,65.07
3636,D4,460.0,19/40,45,65.07
3637,G3,460.0,19/40,45,65.07
3638,B4,460.25,0.25,54,65.07
3639,B3,460.5,19/40,48,65.07
3640,G3,460.5,19/40,48,65.07
3641,G5,460.625,0.125,56,65.07
3642,A5,460.75,0.125,60,65.07
3643,G5,460.875,0.125,55,65.07
3644,A3,461.0,19/40,51,65.07
3645,G3,461.0,19/40,51,65.07
3646,F#5,461.125,0.125,61,65.07
3647,G5,461.25,0.125,66,65.07
3648,F#5,461.375,0.125,60,65.07
3649,B3,461.5,19/40,54,65.07
3650,G3,461.5,19/40,54,65.07
3651,F5,461.625,0.125,63,65.07
3652,G5,461.75,0.125,70,65.07
3653,F5,461.875,0.125,65,65.07
3654,C4,462.0,19/40,57,65.07
3655,G3,462.0,19/40,57,65.07
3656,E5,462.125,0.125,73,65.07
3657,F5,462.25,0.125,76,65.07
3658,E5,462.375,0.125,71,65.07
3659,G4,462.5,19/40,61,65.07
3660,G3,462.5,19/40,61,65.07
3661,E-5,462.625,0.125,73,65.07
3662,F5,462.75,0.125,80,65.07
3663,E-5,462.875,0.125,73,65.07
3664,F4,463.0,19/40,64,65.07
3665,G3,463.0,19/40,64,65.07
3666,D5,463.125,0.125,79,65.07
3667,E-5,463.25,0.125,83,65.07
3668,D5,463.375,0.125,79,65.07
3669,E-4,463.5,19/40,67,65.07
3670,F#3,463.5,19/40,67,65.07
3671,C5,463.625,0.125,82,65.07
3672,D5,463.75,0.125,87,65.07
3673,C5,463.875,0.125,86,65.07
3674,B4,464.0,0.125,88,65.07
3675,G3,464.0,0.5,71,65.07
3676,D4,464.0,0.5,71,65.07
3677,C5,464.188,0.062,71,65.07
3678,B4,464.25,0.125,75,65.07
3679,A4,464.375,0.125,75,65.07
3680,B4,464.5,0.25,79,65.07
3681,C5,464.75,0.125,76,65.07
3682,D5,465.0,0.125,79,65.07
3683,E5,465.188,0.062,68,65.07
3684,D5,465.25,0.125,72,65.07
3685,C#5,465.375,0.125,72,65.07
3686,D5,465.5,0.25,79,65.07
3687,E5,465.75,0.125,79,65.07
3688,F5,466.0,0.5,73,65.07
3689,D4,466.0,0.5,38,65.07
3690,G3,466.0,0.5,38,65.07
3691,G5,466.625,0.125,54,65.07
3692,E5,466.75,0.125,56,65.07
3693,C#4,466.75,0.25,38,65.07
3694,G5,466.875,0.125,54,65.07
3695,F5,467.0,0.5,54,65.07
3696,D4,467.0,0.5,38,65.07
3697,G3,467.0,0.5,38,65.07
3698,G5,467.625,0.125,53,65.07
3699,E5,467.75,0.125,56,65.07
3700,C#4,467.75,0.25,38,65.07
3701,G5,467.875,0.125,53,65.07
3702,F5,468.0,0.5,53,65.07
3703,D4,468.0,0.5,38,65.07
3704,G3,468.0,0.5,38,65.07
3705,G5,468.625,0.125,55,65.07
3706,E5,468.75,0.125,57,65.07
3707,C#4,468.75,0.25,40,65.07
3708,G5,468.875,0.125,61,65.07
3709,F5,469.0,0.125,63,65.07
3710,G3,469.0,0.5,45,65.07
3711,D4,469.0,0.25,45,65.07
3712,G5,469.125,0.125,66,65.07
3713,E5,469.25,0.125,70,65.07
3714,C#4,469.25,0.25,49,65.07
3715,G5,469.375,0.125,68,65.07
3716,F5,469.5,0.125,75,65.07
3717,G3,469.5,0.5,54,65.07
3718,D4,469.5,0.25,54,65.07
3719,G5,469.625,0.125,73,65.07
3720,E5,469.75,0.125,81,65.07
3721,C#4,469.75,0.25,59,65.07
3722,G5,469.875,0.125,79,65.07
3723,F5,470.0,0.25,86,65.07
3724,D4,470.0,1.0,63,65.07
3725,G3,470.0,1.0,63,65.07
3726,E5,470.25,0.125,72,65.07
3727,D5,470.5,0.125,77,65.07
3728,C5,470.75,0.125,72,65.07
3729,B4,471.0,0.125,60,65.07
3730,C5,471.25,0.125,62,65.07
3731,A3,471.25,0.125,54,65.07
3732,D5,471.5,0.125,59,65.07
3733,B3,471.5,0.125,54,65.07
3734,E5,471.75,0.125,56,65.07
3735,C4,471.75,0.125,54,65.07
3736,F5,472.0,0.125,62,65.07
3737,D4,472.0,0.125,52,65.07
3738,E5,472.25,0.125,57,65.07
3739,C4,472.25,0.125,55,65.07
3740,D5,472.5,0.125,61,65.07
3741,B3,472.5,0.125,59,65.07
3742,E5,472.75,0.125,64,65.07
3743,C4,472.75,0.125,62,65.07
3744,F5,473.0,0.125,67,65.07
3745,D4,473.0,0.125,65,65.07
3746,E5,473.25,0.125,71,65.07
3747,C#4,473.25,0.125,67,65.07
3748,F5,473.5,0.125,73,65.07
3749,D4,473.5,0.125,71,65.07
3750,F#5,473.75,0.125,77,65.07
3751,E-4,473.75,0.125,73,65.07
3752,G5,474.0,0.25,86,65.07
3753,E4,474.0,0.25,50,65.07
3754,C4,474.25,0.25,45,65.07
3755,G5,474.5,0.75,82,65.07
3756,E4,474.5,0.25,51,65.07
3757,C4,474.75,0.25,45,65.07
3758,E4,475.0,0.25,51,65.07
3759,F5,475.25,0.125,71,65.07
3760,C4,475.25,0.25,40,65.07
3761,E5,475.375,0.125,69,65.07
3762,E5,475.5,117/1000,70,65.07
3763,E4,475.5,0.25,45,65.07
3764,D5,475.625,0.125,66,65.07
3765,C5,475.75,0.125,67,65.07
3766,C4,475.75,0.25,43,65.07
3767,B4,475.875,0.125,66,65.07
3768,C5,476.0,0.094,47,65.07
3769,E4,476.0,0.25,51,65.07
3770,D5,476.083,0.094,49,65.07
3771,C5,476.167,0.094,55,65.07
3772,D5,476.25,0.094,52,65.07
3773,C4,476.25,0.25,45,65.07
3774,C5,476.333,0.094,57,65.07
3775,D5,476.417,0.094,51,65.07
3776,C5,476.5,0.094,59,65.07
3777,E4,476.5,0.25,51,65.07
3778,D5,476.583,0.094,56,65.07
3779,C5,476.667,0.125,63,65.07
3780,D5,476.75,0.125,62,65.07
3781,C4,476.75,0.25,40,65.07
3782,E5,476.875,0.125,63,65.07
3783,G4,477.0,0.5,71,65.07
3784,E4,477.0,0.25,46,65.07
3785,C4,477.25,0.25,31,65.07
3786,E4,477.5,0.25,35,65.07
3787,C4,477.75,0.25,31,65.07
3788,G5,478.0,0.125,86,65.07
3789,E4,478.0,0.25,51,65.07
3790,G5,478.25,0.125,78,65.07
3791,C4,478.25,0.25,36,65.07
3792,G5,478.5,0.75,76,65.07
3793,E4,478.5,0.25,43,65.07
3794,C4,478.75,0.25,36,65.07
3795,E4,479.0,0.25,43,65.07
3796,F5,479.25,0.125,64,65.07
3797,C4,479.25,0.25,36,65.07
3798,E5,479.375,117/1000,61,65.07
3799,E5,479.5,0.125,64,65.07
3800,F4,479.5,0.25,40,65.07
3801,D5,479.625,0.125,61,65.07
3802,C5,479.75,0.125,61,65.07
3803,C4,479.75,0.25,36,65.07
3804,B4,479.875,0.125,60,65.07
3805,C5,480.0,0.094,47,65.07
3806,E4,480.0,0.25,38,65.07
3807,D5,480.083,0.094,49,65.07
3808,C5,480.167,0.094,55,65.07
3809,D5,480.25,0.094,52,65.07
3810,C4,480.25,0.25,34,65.07
3811,C5,480.333,0.094,57,65.07
3812,D5,480.417,0.094,51,65.07
3813,C5,480.5,0.094,59,65.07
3814,E4,480.5,0.25,39,65.07
3815,D5,480.583,0.094,56,65.07
3816,C5,480.667,0.125,63,65.07
3817,D5,480.75,0.125,62,65.07
3818,C4,480.75,0.25,33,65.07
3819,E5,480.875,0.125,63,65.07
3820,G4,481.0,0.5,65,65.07
3821,E4,481.0,0.25,38,65.07
3822,C4,481.25,0.25,30,65.07
3823,E4,481.5,0.25,33,65.07
3824,C4,481.75,0.25,29,65.07
3825,A4,482.0,0.125,56,65.07
3826,F4,482.0,0.25,34,65.07
3827,C5,482.25,0.125,54,65.07
3828,C4,482.25,0.25,29,65.07
3829,F5,482.5,0.125,56,65.07
3830,F4,482.5,0.25,34,65.07
3831,A5,482.75,0.125,54,65.07
3832,C4,482.75,0.25,30,65.07
3833,C6,483.0,0.125,66,65.07
3834,F4,483.0,0.25,34,65.07
3835,F6,483.25,0.125,70,65.07
3836,C4,483.25,0.25,30,65.07
3837,F4,483.5,0.25,34,65.07
3838,C4,483.75,0.25,30,65.07
3839,G4,484.0,0.125,58,65.07
3840,E4,484.0,0.25,36,65.07
3841,C5,484.25,0.125,56,65.07
3842,C4,484.25,0.25,32,65.07
3843,E5,484.5,0.125,58,65.07
3844,E4,484.5,0.25,36,65.07
3845,G5,484.75,0.125,55,65.07
3846,C4,484.75,0.25,30,65.07
3847,C6,485.0,0.125,66,65.07
3848,E4,485.0,0.25,36,65.07
3849,E6,485.25,0.125,74,65.07
3850,C4,485.25,0.25,30,65.07
3851,E4,485.5,0.25,36,65.07
3852,C4,485.75,0.25,30,65.07
3853,G4,485.875,0.125,63,65.07
3854,G5,486.0,1.5,84,65.07
3855,E4,486.0,0.5,57,65.07
3856,C4,486.0,0.25,57,65.07
3857,G3,486.25,0.25,50,65.07
3858,E4,486.5,0.5,57,65.07
3859,C4,486.5,0.25,57,65.07
3860,G3,486.75,0.25,50,65.07
3861,D4,487.0,0.5,54,65.07
3862,B3,487.0,0.25,54,65.07
3863,G3,487.25,0.25,46,65.07
3864,F5,487.5,83/1000,60,65.07
3865,D4,487.5,0.5,51,65.07
3866,B3,487.5,0.25,51,65.07
3867,G5,487.583,83/1000,68,65.07
3868,F5,487.667,83/1000,68,65.07
3869,E5,487.75,0.125,76,65.07
3870,G3,487.75,0.25,44,65.07
3871,F5,487.875,0.125,71,65.07
3872,E-5,488.0,0.5,78,65.07
3873,C4,488.0,0.25,48,65.07
3874,C3,488.25,0.25,45,65.07
3875,E5,488.5,0.5,75,65.07
3876,E3,488.5,0.25,48,65.07
3877,G3,488.75,0.25,45,65.07
3878,C4,489.0,0.25,57,65.07
3879,E4,489.25,0.25,48,65.07
3880,G4,489.5,0.25,52,65.07
3881,E4,489.75,0.25,48,65.07
3882,A4,490.0,0.125,61,65.07
3883,F4,490.0,0.25,37,65.07
3884,C5,490.125,0.125,57,65.07
3885,D5,490.25,0.125,61,65.07
3886,C4,490.25,0.25,28,65.07
3887,E5,490.375,0.125,56,65.07
3888,F5,490.5,0.125,61,65.07
3889,F4,490.5,0.25,37,65.07
3890,G5,490.625,0.125,58,65.07
3891,A5,490.75,0.125,61,65.07
3892,C4,490.75,0.25,29,65.07
3893,B5,490.875,0.125,57,65.07
3894,C6,491.0,0.25,72,65.07
3895,F4,491.0,0.25,37,65.07
3896,C4,491.25,0.25,27,65.07
3897,F4,491.5,0.25,32,65.07
3898,C4,491.75,0.25,29,65.07
3899,G4,492.0,0.125,63,65.07
3900,E4,492.0,0.25,37,65.07
3901,C5,492.125,0.125,58,65.07
3902,D5,492.25,0.125,63,65.07
3903,C4,492.25,0.25,29,65.07
3904,E5,492.375,0.125,56,65.07
3905,F5,492.5,0.125,63,65.07
3906,E4,492.5,0.25,37,65.07
3907,G5,492.625,0.125,58,65.07
3908,A5,492.75,0.125,63,65.07
3909,C4,492.75,0.25,28,65.07
3910,B5,492.875,0.125,58,65.07
3911,C6,493.0,0.25,72,65.07
3912,E4,493.0,0.25,37,65.07
3913,C4,493.25,0.25,27,65.07
3914,E4,493.5,0.25,33,65.07
3915,C4,493.75,0.25,29,65.07
3916,A5,494.0,0.25,85,65.07
3917,E4,494.0,0.5,51,65.07
3918,C4,494.0,0.25,51,65.07
3919,G5,494.25,0.25,79,65.07
3920,G3,494.25,0.25,45,65.07
3921,F5,494.5,0.125,82,65.07
3922,E4,494.5,0.5,51,65.07
3923,C4,494.5,0.25,51,65.07
3924,E5,494.75,0.125,78,65.07
3925,G3,494.75,0.25,45,65.07
3926,E5,495.0,0.25,85,65.07
3927,F4,495.0,0.5,51,65.07
3928,D4,495.0,0.25,51,65.07
3929,D5,495.25,0.25,74,65.07
3930,G3,495.25,0.25,43,65.07
3931,C5,495.5,0.125,77,65.07
3932,F4,495.5,0.5,48,65.07
3933,D4,495.5,0.25,48,65.07
3934,B4,495.75,0.125,76,65.07
3935,G3,495.75,0.25,45,65.07
3936,C5,496.0,3/20,77,65.07
3937,E4,496.0,1.0,56,65.07
3938,C4,496.0,1.0,56,65.07
3939,G4,496.125,3/20,68,65.07
3940,A4,496.25,3/20,72,65.07
3941,B4,496.375,3/20,70,65.07
3942,C5,496.5,3/20,75,65.07
3943,D5,496.625,3/20,73,65.07
3944,E5,496.75,3/20,78,65.07
3945,F5,496.875,3/20,76,65.07
3946,G5,497.0,3/20,80,65.07
3947,A5,497.125,3/20,77,65.07
3948,B5,497.25,3/20,78,65.07
3949,C6,497.375,3/20,75,65.07
3950,G5,497.5,0.125,81,65.07
3951,G5,497.75,0.125,79,65.07
3952,E4,498.0,0.5,46,65.07
3953,G3,498.0,0.5,46,65.07
3954,G5,498.125,0.125,54,65.07
3955,A5,498.25,0.125,57,65.07
3956,G5,498.375,0.125,54,65.07
3957,D4,498.5,0.5,40,65.07
3958,G3,498.5,0.5,40,65.07
3959,F5,498.625,0.125,54,65.07
3960,G5,498.75,0.125,57,65.07
3961,F5,498.875,0.125,54,65.07
3962,C4,499.0,0.5,46,65.07
3963,G3,499.0,0.5,46,65.07
3964,E5,499.125,0.125,54,65.07
3965,F5,499.25,0.125,56,65.07
3966,E5,499.375,0.125,54,65.07
3967,B3,499.5,0.5,42,65.07
3968,G3,499.5,0.5,42,65.07
3969,D5,499.625,0.125,54,65.07
3970,E5,499.75,0.125,56,65.07
3971,D5,499.875,0.125,54,65.07
3972,C5,500.0,3/20,83,65.07
3973,C4,500.0,1.0,58,65.07
3974,G4,500.125,3/20,76,65.07
3975,A4,500.25,3/20,79,65.07
3976,B4,500.375,3/20,75,65.07
3977,C5,500.5,3/20,81,65.07
3978,D5,500.625,3/20,79,65.07
3979,E5,500.75,3/20,82,65.07
3980,F5,500.875,3/20,78,65.07
3981,G5,501.0,3/20,81,65.07
3982,A5,501.125,3/20,76,65.07
3983,B5,501.25,3/20,80,65.07
3984,C6,501.375,3/20,75,65.07
3985,G5,501.5,0.125,82,65.07
3986,G5,501.75,0.125,80,65.07
3987,E4,502.0,0.5,46,65.07
3988,G3,502.0,0.5,46,65.07
3989,G5,502.125,0.125,54,65.07
3990,A5,502.25,0.125,56,65.07
3991,G5,502.375,0.125,54,65.07
3992,D4,502.5,0.5,42,65.07
3993,G3,502.5,0.5,42,65.07
3994,F5,502.625,0.125,54,65.07
3995,G5,502.75,0.125,56,65.07
3996,F5,502.875,0.125,54,65.07
3997,C4,503.0,0.5,45,65.07
3998,G3,503.0,0.5,45,65.07
3999,E5,503.125,0.125,54,65.07
4000,F5,503.25,0.125,56,65.07
4001,E5,503.375,0.125,54,65.07
4002,B3,503.5,0.5,45,65.07
4003,G3,503.5,0.5,45,65.07
4004,D5,503.625,0.125,54,65.07
4005,E5,503.75,0.125,54,65.07
4006,D5,503.875,0.125,54,65.07
4007,C5,504.0,0.125,81,65.07
4008,C3,504.0,0.125,62,65.07
4009,C5,504.25,0.5,81,65.07
4010,C4,504.25,0.25,68,65.07
4011,B3,504.5,0.25,59,65.07
4012,D5,504.75,0.125,73,65.07
4013,B-3,504.75,0.25,59,65.07
4014,E5,504.875,0.125,70,65.07
4015,F5,505.0,0.125,82,65.07
4016,A3,505.0,0.125,63,65.07
4017,F5,505.25,0.5,79,65.07
4018,A3,505.25,0.25,67,65.07
4019,G3,505.5,0.25,61,65.07
4020,G5,505.75,0.125,76,65.07
4021,F3,505.75,0.25,61,65.07
4022,A5,505.875,0.125,76,65.07
4023,G5,506.0,0.25,83,65.07
4024,E3,506.0,0.25,60,65.07
4025,E5,506.25,0.25,80,65.07
4026,C6,506.5,0.125,83,65.07
4027,C3,506.5,0.25,60,65.07
4028,C6,506.75,0.125,80,65.07
4029,D6,507.0,3/20,84,65.07
4030,C6,507.125,3/20,76,65.07
4031,B5,507.25,3/20,78,65.07
4032,A5,507.375,117/1000,73,65.07
4033,A5,507.5,3/20,73,65.07
4034,C4,507.5,0.5,51,65.07
4035,C3,507.5,0.5,51,65.07
4036,G5,507.625,3/20,66,65.07
4037,F5,507.75,3/20,68,65.07
4038,E5,507.875,0.125,64,65.07
4039,G5,508.0,0.75,68,65.07
4040,E4,508.0,0.75,51,65.07
4041,G3,508.0,1.0,51,65.07
4042,E5,508.75,0.25,69,65.07
4043,C4,508.75,0.25,54,65.07
4044,D5,509.0,0.5,67,65.07
4045,B3,509.0,0.5,54,65.07
4046,G2,509.25,0.25,71,65.07
4047,B2,509.5,0.25,72,65.07
4048,D3,509.75,0.25,69,65.07
4049,C#5,510.0,0.25,60,65.07
4050,G3,510.0,0.25,45,65.07
4051,D5,510.25,0.25,56,65.07
4052,B3,510.25,0.25,42,65.07
4053,C5,510.5,0.125,55,65.07
4054,D4,510.5,0.25,40,65.07
4055,B4,510.625,0.125,52,65.07
4056,A4,510.75,0.125,55,65.07
4057,G4,510.875,0.125,53,65.07
4058,C#5,511.0,0.25,61,65.07
4059,G3,511.0,0.25,45,65.07
4060,D5,511.25,0.25,59,65.07
4061,B3,511.25,0.25,43,65.07
4062,C5,511.5,0.125,55,65.07
4063,D4,511.5,0.25,41,65.07
4064,B4,511.625,0.125,54,65.07
4065,A4,511.75,0.125,55,65.07
4066,G4,511.875,0.125,53,65.07
4067,E-5,512.0,0.25,64,65.07
4068,G3,512.0,0.25,44,65.07
4069,E5,512.25,0.25,61,65.07
4070,C4,512.25,0.25,40,65.07
4071,E5,512.5,0.125,63,65.07
4072,E4,512.5,0.25,43,65.07
4073,E5,512.75,0.125,59,65.07
4074,C4,512.75,0.25,41,65.07
4075,E5,513.0,0.5,63,65.07
4076,G3,513.0,0.25,44,65.07
4077,C4,513.25,0.25,40,65.07
4078,E4,513.5,0.25,43,65.07
4079,C4,513.75,0.25,40,65.07
4080,A4,513.875,0.125,60,65.07
4081,A5,514.0,0.75,87,65.07
4082,F#3,514.0,0.25,57,65.07
4083,A3,514.25,0.25,51,65.07
4084,C4,514.5,0.25,54,65.07
4085,G5,514.75,83/1000,76,65.07
4086,F#5,514.833,83/1000,72,65.07
4087,E5,514.917,83/1000,76,65.07
4088,D5,515.0,0.25,84,65.07
4089,F#3,515.0,0.25,57,65.07
4090,D6,515.25,0.125,82,65.07
4091,A3,515.25,0.25,51,65.07
4092,D6,515.5,0.125,82,65.07
4093,C4,515.5,0.25,54,65.07
4094,D6,515.75,0.125,79,65.07
4095,D6,516.0,0.625,90,65.07
4096,F3,516.0,0.25,57,65.07
4097,A3,516.25,0.25,52,65.07
4098,B3,516.5,0.25,57,65.07
4099,B5,516.625,0.125,74,65.07
4100,D6,516.75,0.125,77,65.07
4101,D4,516.75,0.25,52,65.07
4102,B5,516.875,0.125,76,65.07
4103,G5,517.0,0.25,77,65.07
4104,F4,517.0,0.5,62,65.07
4105,B4,517.25,0.25,54,65.07
4106,D5,517.25,0.25,54,65.07
4107,E4,517.5,0.25,43,65.07
4108,E5,517.5,0.25,54,65.07
4109,C5,517.5,0.25,54,65.07
4110,D4,517.75,0.25,45,65.07
4111,F5,517.75,0.25,50,65.07
4112,D5,517.75,0.25,50,65.07
4113,F#5,518.0,0.25,60,65.07
4114,C4,518.0,0.25,44,65.07
4115,G5,518.25,0.25,58,65.07
4116,E4,518.25,0.25,39,65.07
4117,F5,518.5,0.125,54,65.07
4118,G4,518.5,0.25,41,65.07
4119,E5,518.625,0.125,51,65.07
4120,D5,518.75,0.125,54,65.07
4121,C5,518.875,0.125,52,65.07
4122,F#5,519.0,0.125,54,65.07
4123,C4,519.0,0.25,44,65.07
4124,G5,519.125,0.125,53,65.07
4125,A5,519.25,0.125,55,65.07
4126,E4,519.25,0.25,39,65.07
4127,G5,519.375,0.125,57,65.07
4128,F5,519.5,0.125,56,65.07
4129,G4,519.5,0.25,41,65.07
4130,E5,519.625,0.125,55,65.07
4131,D5,519.75,0.125,54,65.07
4132,C5,519.875,0.125,54,65.07
4133,G#5,520.0,0.25,62,65.07
4134,C4,520.0,0.25,43,65.07
4135,A5,520.25,0.25,56,65.07
4136,F4,520.25,0.25,37,65.07
4137,A5,520.5,0.125,60,65.07
4138,A4,520.5,0.25,40,65.07
4139,A5,520.75,0.125,56,65.07
4140,F4,520.75,0.25,38,65.07
4141,A5,521.0,0.5,63,65.07
4142,C4,521.0,0.25,45,65.07
4143,F4,521.25,0.25,39,65.07
4144,A4,521.5,0.25,41,65.07
4145,F4,521.75,0.25,40,65.07
4146,D6,522.0,3/20,81,65.07
4147,B3,522.0,2.0,62,65.07
4148,D4,522.0,2.0,62,65.07
4149,F4,522.0,2.0,62,65.07
4150,G4,522.0,2.0,62,65.07
4151,E6,522.125,3/20,77,65.07
4152,F6,522.25,3/20,81,65.07
4153,E6,522.375,3/20,77,65.07
4154,D6,522.5,3/20,79,65.07
4155,C6,522.625,3/20,73,65.07
4156,B5,522.75,3/20,77,65.07
4157,A5,522.875,3/20,75,65.07
4158,G5,523.0,3/20,78,65.07
4159,B5,523.125,3/20,73,65.07
4160,D6,523.25,3/20,81,65.07
4161,C6,523.375,3/20,74,65.07
4162,B5,523.5,3/20,81,65.07
4163,A5,523.625,3/20,75,65.07
4164,G5,523.75,3/20,81,65.07
4165,F5,523.875,0.125,76,65.07
4166,E5,524.0,0.25,86,65.07
4167,F5,524.0,1/40,76,65.07
4168,C4,524.0,167/1000,61,65.07
4169,E4,524.167,167/1000,57,65.07
4170,C5,524.333,167/1000,53,65.07
4171,G5,524.5,0.062,71,65.07
4172,D4,524.5,167/1000,61,65.07
4173,F5,524.562,0.062,66,65.07
4174,G5,524.625,0.062,71,65.07
4175,F4,524.667,167/1000,57,65.07
4176,F5,524.688,0.062,67,65.07
4177,E5,524.75,0.125,81,65.07
4178,C5,524.833,167/1000,53,65.07
4179,F5,524.875,0.125,79,65.07
4180,G5,525.0,0.25,89,65.07
4181,E4,525.0,167/1000,61,65.07
4182,G4,525.167,167/1000,57,65.07
4183,C5,525.333,167/1000,53,65.07
4184,C4,525.5,167/1000,61,65.07
4185,E4,525.667,167/1000,48,65.07
4186,A5,525.833,83/1000,53,65.07
4187,C5,525.833,167/1000,48,65.07
4188,B5,525.917,83/1000,49,65.07
4189,C6,526.0,247/500,61,65.07
4190,F4,526.0,167/1000,43,65.07
4191,A4,526.167,167/1000,40,65.07
4192,C5,526.333,167/1000,38,65.07
4193,C6,526.5,369/1000,56,65.07
4194,F4,526.5,167/1000,43,65.07
4195,A4,526.667,167/1000,40,65.07
4196,C5,526.833,167/1000,39,65.07
4197,C6,526.875,119/1000,54,65.07
4198,C6,527.0,0.5,56,65.07
4199,F4,527.0,167/1000,43,65.07
4200,A4,527.167,167/1000,41,65.07
4201,C5,527.333,167/1000,40,65.07
4202,B5,527.5,0.125,55,65.07
4203,F4,527.5,167/1000,43,65.07
4204,A5,527.625,0.125,50,65.07
4205,A4,527.667,167/1000,41,65.07
4206,G5,527.75,0.125,53,65.07
4207,C5,527.833,167/1000,40,65.07
4208,F5,527.875,0.125,51,65.07
4209,E5,528.0,0.25,78,65.07
4210,C4,528.0,167/1000,57,65.07
4211,E4,528.167,167/1000,55,65.07
4212,C5,528.333,167/1000,50,65.07
4213,F5,528.5,0.062,67,65.07
4214,D4,528.5,167/1000,57,65.07
4215,G5,528.562,0.062,63,65.07
4216,F5,528.625,0.062,67,65.07
4217,F4,528.667,167/1000,54,65.07
4218,G5,528.688,0.062,63,65.07
4219,F5,528.75,0.062,67,65.07
4220,E5,528.833,83/1000,76,65.07
4221,C5,528.833,167/1000,51,65.07
4222,F5,528.917,83/1000,72,65.07
4223,G5,529.0,0.25,87,65.07
4224,E4,529.0,167/1000,57,65.07
4225,G4,529.167,167/1000,54,65.07
4226,C5,529.333,167/1000,51,65.07
4227,C4,529.5,167/1000,57,65.07
4228,E4,529.667,167/1000,54,65.07
4229,A5,529.833,83/1000,53,65.07
4230,C5,529.833,167/1000,49,65.07
4231,B5,529.917,83/1000,48,65.07
4232,C6,530.0,247/500,61,65.07
4233,F4,530.0,167/1000,38,65.07
4234,A4,530.167,167/1000,36,65.07
4235,C5,530.333,167/1000,36,65.07
4236,C6,530.5,369/1000,55,65.07
4237,F4,530.5,167/1000,38,65.07
4238,A4,530.667,167/1000,36,65.07
4239,C5,530.833,167/1000,36,65.07
4240,C6,530.875,119/1000,52,65.07
4241,C6,531.0,0.5,55,65.07
4242,F4,531.0,167/1000,43,65.07
4243,A4,531.167,167/1000,39,65.07
4244,C5,531.333,167/1000,39,65.07
4245,B5,531.5,0.125,54,65.07
4246,F4,531.5,167/1000,43,65.07
4247,A5,531.625,0.125,52,65.07
4248,A4,531.667,167/1000,40,65.07
4249,G5,531.75,0.125,54,65.07
4250,C5,531.833,167/1000,40,65.07
4251,F5,531.875,0.125,53,65.07
4252,E5,532.0,0.125,83,65.07
4253,C4,532.0,0.25,64,65.07
4254,C6,532.25,3/20,78,65.07
4255,D6,532.375,3/20,78,65.07
4256,E6,532.5,3/20,81,65.07
4257,D6,532.625,3/20,78,65.07
4258,C6,532.75,3/20,81,65.07
4259,B5,532.875,3/20,78,65.07
4260,A5,533.0,3/20,81,65.07
4261,F3,533.0,0.25,64,65.07
4262,G5,533.125,3/20,78,65.07
4263,F5,533.25,3/20,81,65.07
4264,E5,533.375,3/20,76,65.07
4265,D5,533.5,3/20,81,65.07
4266,C5,533.625,3/20,76,65.07
4267,B4,533.75,3/20,81,65.07
4268,A4,533.875,0.125,73,65.07
4269,G4,534.0,0.25,85,65.07
4270,A4,534.0,1/40,73,65.07
4271,G3,534.0,0.25,60,65.07
4272,F4,534.5,1.0,90,65.07
4273,B3,534.5,1.0,59,65.07
4274,D4,534.5,1.0,59,65.07
4275,G#3,534.5,1.0,59,65.07
4276,E4,535.5,0.5,76,65.07
4277,A3,535.5,0.5,51,65.07
4278,C4,535.5,0.5,51,65.07
4279,F3,536.0,0.5,43,65.07
4280,A3,536.0,0.5,43,65.07
4281,D4,536.25,0.125,55,65.07
4282,F4,536.5,0.125,54,65.07
4283,A4,536.75,0.125,53,65.07
4284,C#5,537.0,0.25,55,65.07
4285,D5,537.25,0.25,54,65.07
4286,F5,537.5,0.25,55,65.07
4287,A5,537.75,0.25,53,65.07
4288,A5,538.0,0.25,61,65.07
4289,C5,538.25,61/250,55,65.07
4290,C5,538.5,1.0,54,65.07
4291,G3,538.5,1.5,44,65.07
4292,E4,538.5,0.5,44,65.07
4293,F4,539.0,1.0,44,65.07
4294,B4,539.5,0.5,56,65.07
4295,E5,539.5,0.25,56,65.07
4296,D5,539.75,0.25,54,65.07
4297,C5,540.0,0.5,54,65.07
4298,E4,540.0,0.5,46,65.07
4299,C4,540.0,0.25,46,65.07
4300,C3,540.5,0.25,44,65.07
4301,G5,541.0,0.25,76,65.07
4302,E5,541.25,0.25,72,65.07
4303,C6,541.5,0.25,57,65.07
4304,B5,541.75,0.125,53,65.07
4305,A5,542.0,0.125,51,65.07
4306,G5,542.25,0.125,49,65.07
4307,F5,542.5,0.125,54,65.07
4308,E5,542.75,0.125,50,65.07
4309,D5,543.0,0.25,53,65.07
4310,E5,543.5,0.25,54,65.07
4311,G5,544.0,0.25,58,65.07
4312,F#5,544.25,0.25,54,65.07
4313,F5,544.5,0.25,54,65.07
4314,G4,544.5,1.0,43,65.07
4315,B3,544.5,0.5,43,65.07
4316,E5,545.0,0.25,51,65.07
4317,C4,545.0,0.5,43,65.07
4318,F5,545.25,0.25,54,65.07
4319,G5,545.5,0.25,57,65.07
4320,G#5,545.75,0.125,59,65.07
4321,A5,546.0,3/40,49,65.07
4322,F3,546.0,1.0,43,65.07
4323,C4,546.0,1.0,43,65.07
4324,B5,546.075,3/40,51,65.07
4325,A5,546.15,3/40,54,65.07
4326,B5,546.225,3/40,56,65.07
4327,A5,546.3,3/40,58,65.07
4328,B5,546.375,0.125,62,65.07
4329,C6,546.5,0.125,68,65.07
4330,B5,546.75,0.125,61,65.07
4331,A5,547.0,0.125,62,65.07
4332,G5,547.25,0.125,57,65.07
4333,F5,547.5,0.125,60,65.07
4334,F#3,547.5,0.5,40,65.07
4335,A3,547.5,0.5,40,65.07
4336,E5,547.75,0.125,57,65.07
4337,G5,548.0,0.375,64,65.07
4338,C4,548.0,0.5,43,65.07
4339,G3,548.0,1.0,43,65.07
4340,E5,548.375,0.125,61,65.07
4341,D5,548.5,0.25,61,65.07
4342,B3,548.5,0.5,40,65.07
4343,G5,549.0,0.375,86,65.07
4344,G4,549.0,0.375,77,65.07
4345,A5,549.375,0.062,81,65.07
4346,A4,549.375,0.062,68,65.07
4347,B5,549.438,0.062,76,65.07
4348,B4,549.438,0.062,63,65.07
4349,C6,549.5,0.25,85,65.07
4350,C5,549.5,0.25,69,65.07
4351,B5,549.75,0.125,62,65.07
4352,B4,549.75,0.125,56,65.07
4353,A5,550.0,0.125,62,65.07
4354,A4,550.0,0.125,56,65.07
4355,G5,550.25,0.125,60,65.07
4356,G4,550.25,0.125,52,65.07
4357,F5,550.5,0.125,62,65.07
4358,F4,550.5,0.125,56,65.07
4359,E5,550.75,0.125,59,65.07
4360,E4,550.75,0.125,52,65.07
4361,D5,551.0,0.25,63,65.07
4362,D4,551.0,0.25,57,65.07
4363,E5,551.5,0.25,70,65.07
4364,E4,551.5,0.25,62,65.07
4365,F5,552.0,0.25,72,65.07
4366,F4,552.0,0.25,67,65.07
4367,F#5,552.5,0.25,78,65.07
4368,F#4,552.5,0.25,69,65.07
4369,G5,553.0,0.25,79,65.07
4370,G4,553.0,0.25,70,65.07
4371,G#5,553.5,0.25,82,65.07
4372,G#4,553.5,0.25,72,65.07
4373,A5,554.0,0.375,85,65.07
4374,A4,554.0,0.5,77,65.07
4375,A4,554.375,0.125,79,65.07
4376,F5,554.5,0.375,84,65.07
4377,F3,554.5,0.5,48,65.07
4378,D4,554.5,0.5,48,65.07
4379,D5,554.875,0.125,81,65.07
4380,C5,555.0,0.5,77,65.07
4381,G3,555.0,1.0,48,65.07
4382,E4,555.0,0.5,48,65.07
4383,E5,555.438,0.062,64,65.07
4384,F4,555.5,0.5,48,65.07
4385,D5,555.5,0.5,71,65.07
4386,B4,555.5,0.5,71,65.07
4387,C5,556.0,0.5,71,65.07
4388,C4,556.0,0.25,60,65.07
4389,E4,556.25,0.25,52,65.07
4390,G4,556.5,0.25,57,65.07
4391,C5,556.625,0.125,64,65.07
4392,D5,556.75,0.125,65,65.07
4393,E4,556.75,0.25,53,65.07
4394,E5,556.875,0.125,66,65.07
4395,F5,557.0,0.062,68,65.07
4396,C4,557.0,0.25,60,65.07
4397,G5,557.062,0.062,68,65.07
4398,F5,557.125,0.062,59,65.07
4399,E5,557.188,0.125,70,65.07
4400,F5,557.25,0.125,71,65.07
4401,F4,557.25,0.25,53,65.07
4402,G5,557.375,0.125,72,65.07
4403,A5,557.5,13/250,66,65.07
4404,A4,557.5,0.25,57,65.07
4405,B5,557.562,13/250,65,65.07
4406,A5,557.625,0.125,70,65.07
4407,G5,557.688,0.125,75,65.07
4408,A5,557.75,0.125,76,65.07
4409,F4,557.75,0.25,51,65.07
4410,B5,557.875,0.125,78,65.07
4411,C6,558.0,0.125,87,65.07
4412,C4,558.0,0.25,60,65.07
4413,C6,558.25,0.125,84,65.07
4414,E4,558.25,0.25,47,65.07
4415,G4,558.5,0.25,54,65.07
4416,C5,558.625,0.125,63,65.07
4417,D5,558.75,0.125,65,65.07
4418,E4,558.75,0.25,49,65.07
4419,E5,558.875,0.125,66,65.07
4420,F5,559.0,0.062,68,65.07
4421,C4,559.0,0.25,60,65.07
4422,G5,559.062,0.062,68,65.07
4423,F5,559.125,0.062,59,65.07
4424,E5,559.188,0.125,70,65.07
4425,F5,559.25,0.125,71,65.07
4426,F4,559.25,0.25,53,65.07
4427,G5,559.375,0.125,72,65.07
4428,A5,559.5,13/250,66,65.07
4429,A4,559.5,0.25,57,65.07
4430,B5,559.562,13/250,65,65.07
4431,A5,559.625,0.125,70,65.07
4432,G5,559.688,0.125,75,65.07
4433,A5,559.75,0.125,76,65.07
4434,F4,559.75,0.25,52,65.07
4435,B5,559.875,0.125,78,65.07
4436,C6,560.0,0.125,88,65.07
4437,G4,560.0,0.5,58,65.07
4438,E4,560.0,0.5,58,65.07
4439,C4,560.0,0.5,58,65.07
4440,C6,560.25,0.125,86,65.07
4441,G4,560.5,1.0,46,65.07
4442,F4,560.5,0.5,46,65.07
4443,G5,560.625,0.125,55,65.07
4444,B5,560.75,0.125,58,65.07
4445,G5,560.875,0.125,55,65.07
4446,C6,561.0,0.125,59,65.07
4447,E4,561.0,0.5,44,65.07
4448,C6,561.25,0.125,59,65.07
4449,G4,561.5,0.5,43,65.07
4450,F4,561.5,0.5,43,65.07
4451,G5,561.625,0.125,54,65.07
4452,B5,561.75,0.125,57,65.07
4453,G5,561.875,0.125,54,65.07
4454,C6,562.0,0.125,59,65.07
4455,E4,562.0,0.5,45,65.07
4456,G4,562.0,0.5,43,65.07
4457,C6,562.25,0.125,66,65.07
4458,F4,562.5,0.25,52,65.07
4459,G4,562.5,0.25,52,65.07
4460,G5,562.625,0.125,67,65.07
4461,B5,562.75,0.125,71,65.07
4462,F4,562.75,0.25,53,65.07
4463,G4,562.75,0.25,53,65.07
4464,G5,562.875,0.125,68,65.07
4465,C6,563.0,0.125,75,65.07
4466,E4,563.0,0.25,54,65.07
4467,G4,563.0,0.25,54,65.07
4468,G5,563.125,0.125,72,65.07
4469,C6,563.25,0.125,79,65.07
4470,E4,563.25,0.25,56,65.07
4471,G4,563.25,0.25,56,65.07
4472,G5,563.375,0.125,75,65.07
4473,D6,563.5,0.125,83,65.07
4474,B3,563.5,0.25,57,65.07
4475,G4,563.5,0.25,57,65.07
4476,G5,563.625,0.125,81,65.07
4477,D6,563.75,0.125,88,65.07
4478,B3,563.75,0.25,58,65.07
4479,G4,563.75,0.25,58,65.07
4480,G5,563.875,0.125,83,65.07
4481,E6,564.0,0.25,91,65.07
4482,C4,564.0,0.5,67,65.07
4483,G4,564.0,0.5,67,65.07
4484,C6,564.25,0.25,80,65.07
4485,G5,564.5,0.25,82,65.07
4486,C6,564.75,0.25,79,65.07
4487,E5,565.0,0.25,78,65.07
4488,G5,565.25,0.25,71,65.07
4489,C5,565.5,0.25,72,65.07
4490,E5,565.75,0.25,69,65.07
4491,A4,566.0,0.25,60,65.07
4492,A5,566.25,0.25,60,65.07
4493,G5,566.5,0.125,63,65.07
4494,F3,566.5,0.5,44,65.07
4495,A3,566.5,0.5,44,65.07
4496,D4,566.5,0.5,44,65.07
4497,F5,566.625,0.125,58,65.07
4498,E5,566.75,0.125,63,65.07
4499,D5,566.875,0.125,58,65.07
4500,C5,567.0,0.5,63,65.07
4501,G3,567.0,1.0,44,65.07
4502,E4,567.0,0.5,44,65.07
4503,C4,567.0,0.5,44,65.07
4504,B4,567.5,67/1000,60,65.07
4505,D4,567.5,0.5,43,65.07
4506,F4,567.5,0.5,43,65.07
4507,C5,567.567,67/1000,63,65.07
4508,B4,567.633,67/1000,60,65.07
4509,C5,567.7,67/1000,63,65.07
4510,B4,567.767,67/1000,63,65.07
4511,A4,567.833,83/1000,63,65.07
4512,B4,567.917,83/1000,60,65.07
4513,C5,568.0,0.5,71,65.07
4514,C4,568.0,0.25,60,65.07
4515,E4,568.25,0.25,52,65.07
4516,G4,568.5,0.25,57,65.07
4517,C5,568.625,0.125,64,65.07
4518,D5,568.75,0.125,65,65.07
4519,E4,568.75,0.25,52,65.07
4520,E5,568.875,0.125,66,65.07
4521,F5,569.0,0.062,68,65.07
4522,C4,569.0,0.25,60,65.07
4523,G5,569.062,0.062,68,65.07
4524,F5,569.125,0.062,59,65.07
4525,E5,569.188,0.125,70,65.07
4526,F5,569.25,0.125,71,65.07
4527,F4,569.25,0.25,53,65.07
4528,G5,569.375,0.125,72,65.07
4529,A5,569.5,13/250,66,65.07
4530,A4,569.5,0.25,57,65.07
4531,B5,569.562,13/250,65,65.07
4532,A5,569.625,0.125,70,65.07
4533,G5,569.688,0.125,75,65.07
4534,A5,569.75,0.125,76,65.07
4535,F4,569.75,0.25,57,65.07
4536,B5,569.875,0.125,78,65.07
4537,C6,570.0,0.125,84,65.07
4538,C4,570.0,0.25,60,65.07
4539,C6,570.25,0.125,81,65.07
4540,E4,570.25,0.25,52,65.07
4541,G4,570.5,0.25,57,65.07
4542,C5,570.625,0.125,63,65.07
4543,D5,570.75,0.125,65,65.07
4544,E4,570.75,0.25,51,65.07
4545,E5,570.875,0.125,66,65.07
4546,F5,571.0,0.062,68,65.07
4547,C4,571.0,0.25,60,65.07
4548,G5,571.062,0.062,68,65.07
4549,F5,571.125,0.062,59,65.07
4550,E5,571.188,0.125,70,65.07
4551,F5,571.25,0.125,71,65.07
4552,F4,571.25,0.25,53,65.07
4553,G5,571.375,0.125,72,65.07
4554,A5,571.5,13/250,66,65.07
4555,A4,571.5,0.25,57,65.07
4556,B5,571.562,13/250,65,65.07
4557,A5,571.625,0.125,70,65.07
4558,G5,571.688,0.125,75,65.07
4559,A5,571.75,0.125,76,65.07
4560,F4,571.75,0.25,51,65.07
4561,B5,571.875,0.125,78,65.07
4562,C6,572.0,0.125,84,65.07
4563,G4,572.0,0.5,60,65.07
4564,E4,572.0,0.5,60,65.07
4565,C4,572.0,0.5,60,65.07
4566,C6,572.25,0.125,80,65.07
4567,G4,572.5,1.0,46,65.07
4568,F4,572.5,0.5,46,65.07
4569,G5,572.625,0.125,55,65.07
4570,B5,572.75,0.125,59,65.07
4571,G5,572.875,0.125,55,65.07
4572,C6,573.0,0.125,59,65.07
4573,E4,573.0,0.5,44,65.07
4574,C6,573.25,0.125,59,65.07
4575,G4,573.5,0.5,42,65.07
4576,F4,573.5,0.5,42,65.07
4577,G5,573.625,0.125,54,65.07
4578,B5,573.75,0.125,56,65.07
4579,G5,573.875,0.125,54,65.07
4580,C6,574.0,0.125,59,65.07
4581,E4,574.0,0.5,45,65.07
4582,G4,574.0,0.5,42,65.07
4583,C6,574.25,0.125,59,65.07
4584,F4,574.5,119/500,52,65.07
4585,G4,574.5,119/500,52,65.07
4586,G5,574.625,0.125,67,65.07
4587,B5,574.75,0.125,71,65.07
4588,F4,574.75,119/500,53,65.07
4589,G4,574.75,119/500,53,65.07
4590,G5,574.875,0.125,68,65.07
4591,C6,575.0,0.125,75,65.07
4592,E4,575.0,119/500,54,65.07
4593,G4,575.0,119/500,54,65.07
4594,G5,575.125,0.125,73,65.07
4595,C6,575.25,0.125,79,65.07
4596,E4,575.25,119/500,56,65.07
4597,G4,575.25,119/500,56,65.07
4598,G5,575.375,0.125,77,65.07
4599,D6,575.5,0.125,83,65.07
4600,B3,575.5,119/500,57,65.07
4601,G4,575.5,119/500,57,65.07
4602,G5,575.625,0.125,81,65.07
4603,D6,575.75,0.125,88,65.07
4604,B3,575.75,119/500,58,65.07
4605,G4,575.75,119/500,58,65.07
4606,G5,575.875,0.125,82,65.07
4607,E6,576.0,0.125,88,65.07
4608,C4,576.0,0.5,67,65.07
4609,G4,576.0,0.5,67,65.07
4610,C6,576.125,0.125,78,65.07
4611,E6,576.25,0.125,84,65.07
4612,C6,576.375,0.125,80,65.07
4613,G5,576.5,0.125,82,65.07
4614,C6,576.625,0.125,74,65.07
4615,G5,576.75,0.125,79,65.07
4616,C6,576.875,0.125,71,65.07
4617,E5,577.0,0.125,78,65.07
4618,G5,577.125,0.125,71,65.07
4619,E5,577.25,0.125,76,65.07
4620,G5,577.375,0.125,71,65.07
4621,C5,577.5,0.125,72,65.07
4622,E5,577.625,0.125,67,65.07
4623,C5,577.75,0.125,71,65.07
4624,E5,577.875,0.125,63,65.07
4625,A4,578.0,0.25,60,65.07
4626,A5,578.25,0.25,63,65.07
4627,G5,578.5,0.125,63,65.07
4628,F3,578.5,0.5,44,65.07
4629,A3,578.5,0.5,44,65.07
4630,D4,578.5,0.5,44,65.07
4631,F5,578.625,0.125,58,65.07
4632,E5,578.75,0.125,63,65.07
4633,D5,578.875,0.125,60,65.07
4634,C5,579.0,0.5,63,65.07
4635,G3,579.0,1.0,44,65.07
4636,E4,579.0,0.5,44,65.07
4637,C4,579.0,0.5,44,65.07
4638,B4,579.5,67/1000,60,65.07
4639,D4,579.5,0.5,41,65.07
4640,F4,579.5,0.5,41,65.07
4641,C5,579.567,67/1000,63,65.07
4642,B4,579.633,67/1000,60,65.07
4643,C5,579.7,67/1000,63,65.07
4644,B4,579.767,67/1000,63,65.07
4645,A4,579.833,83/1000,63,65.07
4646,B4,579.917,83/1000,60,65.07
4647,C5,580.0,0.375,82,65.07
4648,C4,580.0,0.375,78,65.07
4649,G4,580.375,0.125,78,65.07
4650,G3,580.375,0.125,71,65.07
4651,E5,580.5,0.375,82,65.07
4652,E4,580.5,0.375,76,65.07
4653,C5,580.875,0.125,76,65.07
4654,C4,580.875,0.125,68,65.07
4655,G5,581.0,0.25,81,65.07
4656,G4,581.0,0.25,74,65.07
4657,D6,581.5,3/20,54,65.07
4658,C6,581.625,3/20,50,65.07
4659,B5,581.75,3/20,54,65.07
4660,A5,581.875,0.125,49,65.07
4661,G5,582.0,0.25,57,65.07
4662,A5,582.0,1/40,49,65.07
4663,G3,582.0,0.25,41,65.07
4664,C4,582.0,0.25,41,65.07
4665,E4,582.0,0.25,41,65.07
4666,A5,582.5,3/20,54,65.07
4667,G5,582.625,3/20,50,65.07
4668,F5,582.75,3/20,54,65.07
4669,E5,582.875,3/20,50,65.07
4670,D5,583.0,0.25,57,65.07
4671,G3,583.0,0.25,41,65.07
4672,F4,583.0,0.25,41,65.07
4673,B3,583.0,0.25,41,65.07
4674,G5,583.5,3/20,56,65.07
4675,F5,583.625,3/20,53,65.07
4676,E5,583.75,3/20,56,65.07
4677,D5,583.875,0.125,52,65.07
4678,C5,584.0,0.125,81,65.07
4679,D5,584.0,1/40,52,65.07
4680,C4,584.0,0.125,70,65.07
4681,G4,584.125,0.125,75,65.07
4682,G3,584.125,0.125,65,65.07
4683,C5,584.25,0.125,82,65.07
4684,C4,584.25,0.125,70,65.07
4685,G4,584.375,0.125,78,65.07
4686,G3,584.375,0.125,65,65.07
4687,E5,584.5,0.125,82,65.07
4688,E4,584.5,0.125,70,65.07
4689,C5,584.625,0.125,78,65.07
4690,C4,584.625,0.125,64,65.07
4691,E5,584.75,0.125,82,65.07
4692,E4,584.75,0.125,71,65.07
4693,C5,584.875,0.125,76,65.07
4694,C4,584.875,0.125,65,65.07
4695,G5,585.0,0.25,82,65.07
4696,G4,585.0,0.25,71,65.07
4697,D6,585.5,3/20,55,65.07
4698,C6,585.625,3/20,53,65.07
4699,B5,585.75,3/20,55,65.07
4700,A5,585.875,0.125,53,65.07
4701,G5,586.0,0.125,58,65.07
4702,A5,586.0,1/40,53,65.07
4703,G3,586.0,0.25,45,65.07
4704,E4,586.0,0.25,45,65.07
4705,C4,586.0,0.25,45,65.07
4706,G5,586.25,0.125,58,65.07
4707,A5,586.5,3/20,54,65.07
4708,G5,586.625,3/20,50,65.07
4709,F5,586.75,3/20,54,65.07
4710,E5,586.875,3/20,50,65.07
4711,D5,587.0,0.125,57,65.07
4712,B3,587.0,0.25,45,65.07
4713,G3,587.0,0.25,45,65.07
4714,F4,587.0,0.25,45,65.07
4715,D5,587.25,0.125,57,65.07
4716,G5,587.5,3/20,55,65.07
4717,F5,587.625,3/20,51,65.07
4718,E5,587.75,3/20,55,65.07
4719,D5,587.875,0.125,51,65.07
4720,C5,588.0,0.5,62,65.07
4721,D5,588.0,1/40,51,65.07
4722,E4,588.0,0.25,51,65.07
4723,C4,588.25,0.25,41,65.07
4724,E4,588.5,0.25,51,65.07
4725,G#5,588.75,0.25,57,65.07
4726,C4,588.75,0.25,41,65.07
4727,A5,589.0,0.25,62,65.07
4728,F4,589.0,0.25,51,65.07
4729,B5,589.25,0.25,64,65.07
4730,C4,589.25,0.25,41,65.07
4731,C6,589.5,0.25,70,65.07
4732,G4,589.5,0.25,51,65.07
4733,E5,589.75,0.25,62,65.07
4734,C4,589.75,0.25,41,65.07
4735,G5,590.0,0.25,66,65.07
4736,A4,590.0,0.25,51,65.07
4737,F5,590.25,0.25,62,65.07
4738,C4,590.25,0.25,43,65.07
4739,B-4,590.5,0.25,51,65.07
4740,E5,590.75,0.25,55,65.07
4741,C4,590.75,0.25,43,65.07
4742,F5,591.0,0.25,60,65.07
4743,A4,591.0,0.25,51,65.07
4744,G5,591.25,0.25,62,65.07
4745,C4,591.25,0.25,43,65.07
4746,A5,591.5,0.25,65,65.07
4747,G4,591.5,0.25,51,65.07
4748,C#5,591.75,0.25,57,65.07
4749,C4,591.75,0.25,43,65.07
4750,E5,592.0,0.25,63,65.07
4751,F4,592.0,0.25,51,65.07
4752,D5,592.25,0.25,57,65.07
4753,C4,592.25,0.25,43,65.07
4754,E4,592.5,0.25,51,65.07
4755,C#5,592.75,0.25,49,65.07
4756,C4,592.75,0.25,35,65.07
4757,D5,593.0,0.25,52,65.07
4758,F4,593.0,0.25,40,65.07
4759,E5,593.25,0.25,54,65.07
4760,C4,593.25,0.25,37,65.07
4761,F5,593.5,0.25,57,65.07
4762,D4,593.5,0.25,40,65.07
4763,B4,593.75,0.25,49,65.07
4764,C4,593.75,0.25,36,65.07
4765,D5,594.0,0.25,50,65.07
4766,E4,594.0,0.25,39,65.07
4767,C5,594.25,0.25,49,65.07
4768,C4,594.25,0.25,36,65.07
4769,A5,594.5,0.25,70,65.07
4770,F4,594.5,0.25,40,65.07
4771,B4,594.75,0.25,49,65.07
4772,C4,594.75,0.25,34,65.07
4773,D5,595.0,0.25,51,65.07
4774,E4,595.0,0.25,40,65.07
4775,C5,595.25,0.25,49,65.07
4776,C4,595.25,0.25,38,65.07
4777,A5,595.5,0.25,70,65.07
4778,F4,595.5,0.25,41,65.07
4779,B4,595.75,0.25,49,65.07
4780,C4,595.75,0.25,34,65.07
4781,E4,596.0,0.25,41,65.07
4782,D5,596.25,0.125,49,65.07
4783,C4,596.25,0.25,37,65.07
4784,C5,596.375,0.125,43,65.07
4785,F4,596.5,0.25,40,65.07
4786,G#5,596.75,0.125,57,65.07
4787,C4,596.75,0.25,33,65.07
4788,B4,596.875,0.125,43,65.07
4789,E4,597.0,0.25,41,65.07
4790,D5,597.25,0.125,51,65.07
4791,C4,597.25,0.25,37,65.07
4792,C5,597.375,0.125,43,65.07
4793,F4,597.5,0.25,41,65.07
4794,G#5,597.75,0.125,55,65.07
4795,C4,597.75,0.25,35,65.07
4796,B4,597.875,0.125,41,65.07
4797,B4,598.0,1.0,50,65.07
4798,D5,598.0,1.0,50,65.07
4799,G4,598.0,1.0,50,65.07
4800,F4,598.0,1.0,50,65.07
4801,C3,598.0,1.5,36,65.07
4802,C4,598.0,1.5,36,65.07
4803,C5,599.0,0.5,36,65.07
4804,E4,599.0,0.5,36,65.07
4805,G4,599.0,0.5,36,65.07
