,note_name,start_time,duration,velocity,tempo
0,E5,1.0,0.125,46,101.76
1,G5,1.0,0.125,46,101.76
2,E5,1.5,0.125,40,101.76
3,G5,1.5,0.125,40,101.76
4,C5,2.0,0.375,44,101.76
5,E5,2.0,0.375,44,101.76
6,C4,2.0,0.125,33,101.76
7,A3,2.0,0.125,33,101.76
8,C4,2.5,0.125,31,101.76
9,A3,2.5,0.125,31,101.76
10,D5,3.0,0.125,46,101.76
11,F5,3.0,0.125,46,101.76
12,A3,3.0,0.25,26,101.76
13,F3,3.0,0.25,26,101.76
14,D5,3.5,0.125,40,101.76
15,F5,3.5,0.125,40,101.76
16,B4,4.0,0.375,45,101.76
17,D5,4.0,0.375,45,101.76
18,G3,4.0,0.125,37,101.76
19,B3,4.0,0.125,37,101.76
20,G3,4.5,0.125,30,101.76
21,B3,4.5,0.125,30,101.76
22,C5,5.0,11/40,54,101.76
23,E3,5.0,0.25,35,101.76
24,G3,5.0,0.25,35,101.76
25,D5,5.25,11/40,49,101.76
26,E5,5.5,11/40,53,101.76
27,C5,5.75,0.25,49,101.76
28,A4,6.0,11/40,55,101.76
29,C5,6.0,1/40,49,101.76
30,F3,6.0,1.5,42,101.76
31,B4,6.25,11/40,57,101.76
32,C5,6.5,11/40,60,101.76
33,C#5,6.75,11/40,63,101.76
34,D5,7.0,11/40,66,101.76
35,E5,7.25,11/40,59,101.76
36,F5,7.5,11/40,66,101.76
37,D3,7.5,0.5,38,101.76
38,D5,7.75,0.25,60,101.76
39,C5,8.0,11/40,64,101.76
40,D5,8.0,1/40,60,101.76
41,G3,8.0,0.5,44,101.76
42,B4,8.25,11/40,59,101.76
43,A4,8.5,11/40,53,101.76
44,G4,8.75,0.25,48,101.76
45,E5,9.0,0.125,59,101.76
46,G5,9.0,0.125,59,101.76
47,E5,9.5,0.125,48,101.76
48,G5,9.5,0.125,48,101.76
49,C5,10.0,0.375,59,101.76
50,E5,10.0,0.375,59,101.76
51,C4,10.0,0.125,33,101.76
52,A3,10.0,0.125,33,101.76
53,C4,10.5,0.125,31,101.76
54,A3,10.5,0.125,31,101.76
55,F5,11.0,0.125,63,101.76
56,A5,11.0,0.125,63,101.76
57,F3,11.0,0.25,26,101.76
58,D3,11.0,0.25,26,101.76
59,F5,11.5,0.125,55,101.76
60,A5,11.5,0.125,55,101.76
61,B4,12.0,0.375,63,101.76
62,D5,12.0,0.375,63,101.76
63,G3,12.0,0.125,42,101.76
64,B3,12.0,0.125,42,101.76
65,G3,12.5,0.125,34,101.76
66,B3,12.5,0.125,34,101.76
67,A5,13.0,11/40,70,101.76
68,C3,13.0,0.25,40,101.76
69,E3,13.0,0.25,40,101.76
70,G5,13.25,11/40,68,101.76
71,F5,13.5,11/40,65,101.76
72,E5,13.75,0.25,63,101.76
73,C#5,14.0,11/40,60,101.76
74,A3,14.0,1.5,38,101.76
75,F3,14.0,1.5,38,101.76
76,D5,14.25,11/40,62,101.76
77,E5,14.5,11/40,66,101.76
78,F5,14.75,0.25,58,101.76
79,A4,15.0,0.25,60,101.76
80,C5,15.25,0.25,52,101.76
81,B4,15.5,0.25,58,101.76
82,F4,15.5,0.5,40,101.76
83,G3,15.5,0.5,40,101.76
84,D5,15.75,0.25,50,101.76
85,C5,16.0,0.5,56,101.76
86,E4,16.0,0.5,47,101.76
87,C4,16.0,0.5,47,101.76
88,C3,16.5,0.25,47,101.76
89,E5,17.0,0.125,46,101.76
90,G5,17.0,0.125,46,101.76
91,E5,17.5,0.125,40,101.76
92,G5,17.5,0.125,40,101.76
93,C5,18.0,0.375,44,101.76
94,E5,18.0,0.375,44,101.76
95,C4,18.0,0.125,33,101.76
96,A3,18.0,0.125,33,101.76
97,C4,18.5,0.125,31,101.76
98,A3,18.5,0.125,31,101.76
99,D5,19.0,0.125,46,101.76
100,F5,19.0,0.125,46,101.76
101,A3,19.0,0.25,26,101.76
102,F3,19.0,0.25,26,101.76
103,D5,19.5,0.125,40,101.76
104,F5,19.5,0.125,40,101.76
105,B4,20.0,0.375,45,101.76
106,D5,20.0,0.375,45,101.76
107,G3,20.0,0.125,37,101.76
108,B3,20.0,0.125,37,101.76
109,G3,20.5,0.125,30,101.76
110,B3,20.5,0.125,30,101.76
111,C5,21.0,11/40,55,101.76
112,E3,21.0,0.25,35,101.76
113,G3,21.0,0.25,35,101.76
114,D5,21.25,11/40,49,101.76
115,E5,21.5,11/40,54,101.76
116,C5,21.75,0.25,49,101.76
117,A4,22.0,11/40,51,101.76
118,C5,22.0,1/40,49,101.76
119,F3,22.0,1.5,42,101.76
120,B4,22.25,11/40,55,101.76
121,C5,22.5,11/40,59,101.76
122,C#5,22.75,11/40,62,101.76
123,D5,23.0,11/40,66,101.76
124,E5,23.25,11/40,60,101.76
125,F5,23.5,11/40,65,101.76
126,D3,23.5,0.5,38,101.76
127,D5,23.75,0.25,63,101.76
128,C5,24.0,11/40,60,101.76
129,D5,24.0,1/40,63,101.76
130,G3,24.0,0.5,44,101.76
131,B4,24.25,11/40,57,101.76
132,A4,24.5,11/40,54,101.76
133,G4,24.75,0.25,49,101.76
134,E5,25.0,0.125,56,101.76
135,G5,25.0,0.125,56,101.76
136,E5,25.5,0.125,49,101.76
137,G5,25.5,0.125,49,101.76
138,C5,26.0,0.375,55,101.76
139,E5,26.0,0.375,55,101.76
140,C4,26.0,0.125,33,101.76
141,A3,26.0,0.125,33,101.76
142,C4,26.5,0.125,31,101.76
143,A3,26.5,0.125,31,101.76
144,F5,27.0,0.125,66,101.76
145,A5,27.0,0.125,66,101.76
146,F3,27.0,0.25,26,101.76
147,D3,27.0,0.25,26,101.76
148,F5,27.5,0.125,57,101.76
149,A5,27.5,0.125,57,101.76
150,B4,28.0,0.375,63,101.76
151,D5,28.0,0.375,63,101.76
152,G3,28.0,0.125,42,101.76
153,B3,28.0,0.125,42,101.76
154,G3,28.5,0.125,34,101.76
155,B3,28.5,0.125,34,101.76
156,A5,29.0,11/40,68,101.76
157,C3,29.0,0.25,40,101.76
158,E3,29.0,0.25,40,101.76
159,G5,29.25,11/40,65,101.76
160,F5,29.5,11/40,63,101.76
161,E5,29.75,0.25,61,101.76
162,C#5,30.0,11/40,56,101.76
163,A3,30.0,1.5,38,101.76
164,F3,30.0,1.5,38,101.76
165,D5,30.25,11/40,58,101.76
166,E5,30.5,11/40,59,101.76
167,F5,30.75,0.25,56,101.76
168,A4,31.0,0.25,60,101.76
169,C5,31.25,0.25,52,101.76
170,B4,31.5,0.25,58,101.76
171,F4,31.5,0.5,40,101.76
172,G3,31.5,0.5,40,101.76
173,D5,31.75,0.25,50,101.76
174,C5,32.0,0.5,56,101.76
175,E4,32.0,0.5,47,101.76
176,C4,32.0,0.5,47,101.76
177,C3,32.5,0.25,47,101.76
178,E5,33.0,11/40,61,101.76
179,C4,33.0,11/40,40,101.76
180,F#5,33.25,11/40,56,101.76
181,G4,33.25,11/40,36,101.76
182,G5,33.5,0.125,53,101.76
183,E4,33.5,11/40,36,101.76
184,G5,33.75,0.125,53,101.76
185,G4,33.75,0.25,36,101.76
186,A5,34.0,11/40,62,101.76
187,B3,34.0,11/40,40,101.76
188,G5,34.25,11/40,58,101.76
189,G4,34.25,11/40,35,101.76
190,F#5,34.5,11/40,56,101.76
191,D4,34.5,11/40,35,101.76
192,E5,34.75,0.25,55,101.76
193,G4,34.75,0.25,35,101.76
194,D5,35.0,0.125,61,101.76
195,F#3,35.0,11/40,40,101.76
196,D5,35.25,0.125,54,101.76
197,D4,35.25,11/40,36,101.76
198,D5,35.5,0.125,54,101.76
199,A3,35.5,11/40,36,101.76
200,D5,35.75,0.125,54,101.76
201,D4,35.75,0.25,36,101.76
202,E5,36.0,11/40,66,101.76
203,G3,36.0,11/40,40,101.76
204,D5,36.25,11/40,59,101.76
205,D4,36.25,11/40,36,101.76
206,C5,36.5,11/40,58,101.76
207,B3,36.5,11/40,36,101.76
208,B4,36.75,0.25,57,101.76
209,D4,36.75,0.25,36,101.76
210,E6,37.0,11/40,74,101.76
211,B2,37.0,11/40,44,101.76
212,D6,37.25,11/40,66,101.76
213,G3,37.25,11/40,38,101.76
214,C6,37.5,11/40,65,101.76
215,D3,37.5,11/40,38,101.76
216,B5,37.75,0.25,64,101.76
217,G3,37.75,0.25,38,101.76
218,G#5,38.0,11/40,75,101.76
219,C3,38.0,11/40,47,101.76
220,A5,38.25,11/40,67,101.76
221,A3,38.25,11/40,40,101.76
222,B5,38.5,11/40,65,101.76
223,E3,38.5,11/40,40,101.76
224,C6,38.75,0.25,65,101.76
225,A3,38.75,0.25,40,101.76
226,E5,39.0,11/40,74,101.76
227,C#3,39.0,11/40,48,101.76
228,F#5,39.25,11/40,68,101.76
229,A3,39.25,11/40,40,101.76
230,G5,39.5,11/40,62,101.76
231,E3,39.5,11/40,39,101.76
232,A5,39.75,0.25,65,101.76
233,A3,39.75,0.25,39,101.76
234,G5,40.0,11/40,74,101.76
235,D3,40.0,0.5,48,101.76
236,F#5,40.25,11/40,70,101.76
237,E5,40.5,11/40,62,101.76
238,D5,40.75,0.25,63,101.76
239,B5,41.0,0.125,69,101.76
240,D6,41.0,0.125,69,101.76
241,B5,41.5,0.125,64,101.76
242,D6,41.5,0.125,64,101.76
243,G5,42.0,0.375,69,101.76
244,B5,42.0,0.375,69,101.76
245,G4,42.0,0.125,49,101.76
246,E4,42.0,0.125,49,101.76
247,G4,42.5,0.125,42,101.76
248,E4,42.5,0.125,42,101.76
249,A5,43.0,0.125,66,101.76
250,C6,43.0,0.125,66,101.76
251,E4,43.0,0.25,30,101.76
252,C4,43.0,0.25,30,101.76
253,A5,43.5,0.125,59,101.76
254,C6,43.5,0.125,59,101.76
255,F#5,44.0,0.375,64,101.76
256,A5,44.0,0.375,64,101.76
257,D4,44.0,0.125,46,101.76
258,F#4,44.0,0.125,46,101.76
259,D4,44.5,0.125,43,101.76
260,F#4,44.5,0.125,43,101.76
261,G5,45.0,11/40,68,101.76
262,B3,45.0,0.25,62,101.76
263,D4,45.0,0.25,62,101.76
264,A5,45.25,11/40,68,101.76
265,B5,45.5,11/40,72,101.76
266,G5,45.75,0.25,67,101.76
267,E-5,46.0,11/40,61,101.76
268,G3,46.0,1.5,63,101.76
269,C3,46.0,1.0,53,101.76
270,E5,46.25,11/40,63,101.76
271,G5,46.5,11/40,66,101.76
272,E5,46.75,0.25,59,101.76
273,D5,47.0,0.25,62,101.76
274,D3,47.0,1.0,45,101.76
275,B4,47.25,0.25,56,101.76
276,C5,47.5,0.25,58,101.76
277,F#3,47.5,0.5,52,101.76
278,A4,47.75,0.25,50,101.76
279,G4,48.0,0.25,56,101.76
280,G3,48.0,0.25,64,101.76
281,G2,48.5,0.25,54,101.76
282,G4,49.0,0.25,54,101.76
283,A4,49.25,0.25,56,101.76
284,B4,49.5,0.25,58,101.76
285,C5,49.75,0.25,59,101.76
286,D5,50.0,0.25,61,101.76
287,G3,50.0,0.25,59,101.76
288,B3,50.0,0.25,59,101.76
289,G2,50.5,0.25,54,101.76
290,B4,51.0,0.25,62,101.76
291,C5,51.25,0.25,65,101.76
292,D5,51.5,0.25,69,101.76
293,E5,51.75,0.25,72,101.76
294,F5,52.0,0.25,75,101.76
295,G3,52.0,0.25,70,101.76
296,B3,52.0,0.25,70,101.76
297,G2,52.5,0.25,57,101.76
298,D5,53.0,0.25,64,101.76
299,E5,53.25,0.25,67,101.76
300,F5,53.5,0.25,71,101.76
301,G5,53.75,0.25,74,101.76
302,A5,54.0,0.125,77,101.76
303,G#5,54.5,0.125,69,101.76
304,G5,55.0,0.125,66,101.76
305,F#5,55.5,0.125,60,101.76
306,F5,56.0,0.5,59,101.76
307,E5,57.0,0.125,46,101.76
308,G5,57.0,0.125,46,101.76
309,E5,57.5,0.125,40,101.76
310,G5,57.5,0.125,40,101.76
311,C5,58.0,0.375,44,101.76
312,E5,58.0,0.375,44,101.76
313,C4,58.0,0.125,33,101.76
314,A3,58.0,0.125,33,101.76
315,C4,58.5,0.125,31,101.76
316,A3,58.5,0.125,31,101.76
317,D5,59.0,0.125,46,101.76
318,F5,59.0,0.125,46,101.76
319,A3,59.0,0.25,26,101.76
320,F3,59.0,0.25,26,101.76
321,D5,59.5,0.125,40,101.76
322,F5,59.5,0.125,40,101.76
323,B4,60.0,0.375,45,101.76
324,D5,60.0,0.375,45,101.76
325,G3,60.0,0.125,37,101.76
326,B3,60.0,0.125,37,101.76
327,G3,60.5,0.125,30,101.76
328,B3,60.5,0.125,30,101.76
329,C5,61.0,11/40,55,101.76
330,E3,61.0,0.25,35,101.76
331,G3,61.0,0.25,35,101.76
332,D5,61.25,11/40,47,101.76
333,E5,61.5,11/40,54,101.76
334,C5,61.75,0.25,47,101.76
335,A4,62.0,11/40,50,101.76
336,C5,62.0,1/40,47,101.76
337,F3,62.0,1.5,42,101.76
338,B4,62.25,11/40,54,101.76
339,C5,62.5,11/40,58,101.76
340,C#5,62.75,11/40,61,101.76
341,D5,63.0,11/40,66,101.76
342,E5,63.25,11/40,58,101.76
343,F5,63.5,11/40,63,101.76
344,D3,63.5,0.5,38,101.76
345,D5,63.75,0.25,56,101.76
346,C5,64.0,11/40,62,101.76
347,D5,64.0,1/40,56,101.76
348,G3,64.0,0.5,44,101.76
349,B4,64.25,11/40,59,101.76
350,A4,64.5,11/40,54,101.76
351,G4,64.75,0.25,51,101.76
352,E5,65.0,0.125,54,101.76
353,G5,65.0,0.125,54,101.76
354,E5,65.5,0.125,45,101.76
355,G5,65.5,0.125,45,101.76
356,C5,66.0,0.375,53,101.76
357,E5,66.0,0.375,53,101.76
358,C4,66.0,0.125,33,101.76
359,A3,66.0,0.125,33,101.76
360,C4,66.5,0.125,31,101.76
361,A3,66.5,0.125,31,101.76
362,F5,67.0,0.125,62,101.76
363,A5,67.0,0.125,62,101.76
364,F3,67.0,0.25,26,101.76
365,D3,67.0,0.25,26,101.76
366,F5,67.5,0.125,56,101.76
367,A5,67.5,0.125,56,101.76
368,B4,68.0,0.375,66,101.76
369,D5,68.0,0.375,66,101.76
370,G3,68.0,0.125,42,101.76
371,B3,68.0,0.125,42,101.76
372,G3,68.5,0.125,34,101.76
373,B3,68.5,0.125,34,101.76
374,A5,69.0,11/40,73,101.76
375,C3,69.0,0.25,40,101.76
376,E3,69.0,0.25,40,101.76
377,G5,69.25,11/40,70,101.76
378,F5,69.5,11/40,67,101.76
379,E5,69.75,0.25,64,101.76
380,C#5,70.0,11/40,56,101.76
381,A3,70.0,1.5,38,101.76
382,F3,70.0,1.5,38,101.76
383,D5,70.25,11/40,60,101.76
384,E5,70.5,11/40,64,101.76
385,F5,70.75,0.25,56,101.76
386,A4,71.0,0.25,60,101.76
387,C5,71.25,0.25,52,101.76
388,B4,71.5,0.25,58,101.76
389,F4,71.5,0.5,40,101.76
390,G3,71.5,0.5,40,101.76
391,D5,71.75,0.25,50,101.76
392,C5,72.0,0.5,56,101.76
393,E4,72.0,0.5,47,101.76
394,C4,72.0,0.5,47,101.76
395,C3,72.5,0.25,47,101.76
396,E4,73.0,0.125,49,101.76
397,C4,73.0,0.125,49,101.76
398,E4,73.5,0.125,40,101.76
399,C4,73.5,0.125,40,101.76
400,E5,74.0,11/40,57,101.76
401,C4,74.0,0.25,42,101.76
402,A3,74.0,0.25,42,101.76
403,E-5,74.25,11/40,52,101.76
404,F5,74.5,11/40,58,101.76
405,E5,74.75,0.25,50,101.76
406,B3,75.0,0.125,44,101.76
407,D4,75.0,0.125,44,101.76
408,B3,75.5,0.125,35,101.76
409,D4,75.5,0.125,35,101.76
410,E5,76.0,11/40,55,101.76
411,G#3,76.0,0.25,44,101.76
412,B3,76.0,0.25,44,101.76
413,E-5,76.25,11/40,47,101.76
414,F5,76.5,11/40,53,101.76
415,E5,76.75,0.25,47,101.76
416,C6,77.0,0.125,66,101.76
417,E5,77.0,0.125,66,101.76
418,C6,77.5,0.125,62,101.76
419,E5,77.5,0.125,62,101.76
420,E4,78.0,11/40,60,101.76
421,A5,78.0,0.25,68,101.76
422,C5,78.0,0.25,68,101.76
423,E-4,78.25,11/40,53,101.76
424,F4,78.5,11/40,58,101.76
425,E4,78.75,0.25,52,101.76
426,D5,79.0,0.125,68,101.76
427,B5,79.0,0.125,68,101.76
428,D5,79.5,0.125,59,101.76
429,B5,79.5,0.125,59,101.76
430,E4,80.0,11/40,58,101.76
431,B4,80.0,0.25,68,101.76
432,G#5,80.0,0.25,68,101.76
433,E-4,80.25,11/40,50,101.76
434,F4,80.5,11/40,57,101.76
435,E4,80.75,6/25,50,101.76
436,A5,81.0,0.25,68,101.76
437,C4,81.0,1.0,60,101.76
438,E4,81.0,1.0,60,101.76
439,E5,81.25,0.25,54,101.76
440,C5,81.5,0.25,54,101.76
441,A4,81.75,0.25,52,101.76
442,C5,82.0,0.25,64,101.76
443,D4,82.0,1.0,52,101.76
444,F4,82.0,1.0,52,101.76
445,B-4,82.25,6/25,56,101.76
446,B-4,82.5,0.125,56,101.76
447,B-4,82.75,0.25,52,101.76
448,D5,83.0,0.25,68,101.76
449,E4,83.0,1.0,54,101.76
450,G4,83.0,1.0,54,101.76
451,C#5,83.25,6/25,56,101.76
452,C#5,83.5,0.125,56,101.76
453,C#5,83.75,0.125,56,101.76
454,E5,84.0,0.25,71,101.76
455,F4,84.0,0.5,62,101.76
456,A4,84.0,2.0,52,101.76
457,D5,84.25,0.125,59,101.76
458,F5,84.5,0.25,68,101.76
459,C#4,84.5,0.5,58,101.76
460,E5,84.75,0.125,59,101.76
461,G5,85.0,0.25,74,101.76
462,D4,85.0,0.5,64,101.76
463,F5,85.25,0.125,55,101.76
464,F5,85.5,0.25,71,101.76
465,E4,85.5,0.5,60,101.76
466,E5,85.75,0.125,60,101.76
467,E5,86.0,0.25,72,101.76
468,A4,86.0,0.5,62,101.76
469,F4,86.0,0.5,62,101.76
470,E-5,86.25,0.125,62,101.76
471,C6,86.5,1.0,78,101.76
472,F4,87.0,0.5,40,101.76
473,A4,87.0,0.5,40,101.76
474,E-5,87.5,0.5,56,101.76
475,E5,88.0,0.5,66,101.76
476,E3,88.0,0.25,43,101.76
477,E4,88.25,0.25,39,101.76
478,G#3,88.5,0.25,39,101.76
479,E4,88.75,0.25,39,101.76
480,B5,89.0,0.25,66,101.76
481,B3,89.0,0.25,46,101.76
482,G#5,89.25,0.25,62,101.76
483,E4,89.25,0.25,39,101.76
484,E5,89.5,0.25,62,101.76
485,G#3,89.5,0.25,39,101.76
486,D5,89.75,0.25,58,101.76
487,E4,89.75,0.25,39,101.76
488,C5,90.0,0.25,66,101.76
489,E3,90.0,0.25,47,101.76
490,E5,90.25,0.25,61,101.76
491,E4,90.25,0.25,41,101.76
492,A5,90.5,0.25,61,101.76
493,A3,90.5,0.25,41,101.76
494,G#5,90.75,0.25,60,101.76
495,E4,90.75,0.25,41,101.76
496,A5,91.0,0.25,70,101.76
497,C4,91.0,0.25,48,101.76
498,E5,91.25,0.25,63,101.76
499,E4,91.25,0.25,40,101.76
500,C5,91.5,0.25,63,101.76
501,A3,91.5,0.25,40,101.76
502,A4,91.75,0.25,59,101.76
503,E4,91.75,0.25,40,101.76
504,G#4,92.0,0.25,70,101.76
505,E3,92.0,0.25,52,101.76
506,B4,92.25,0.25,63,101.76
507,E4,92.25,0.25,42,101.76
508,E5,92.5,0.25,62,101.76
509,G#3,92.5,0.25,42,101.76
510,G#5,92.75,0.25,59,101.76
511,E4,92.75,0.25,42,101.76
512,B5,93.0,0.25,71,101.76
513,B3,93.0,0.25,52,101.76
514,G#5,93.25,0.25,62,101.76
515,E4,93.25,0.25,43,101.76
516,E5,93.5,0.25,62,101.76
517,G#3,93.5,0.25,43,101.76
518,D5,93.75,0.25,59,101.76
519,E4,93.75,0.25,43,101.76
520,C5,94.0,0.25,70,101.76
521,E3,94.0,0.25,51,101.76
522,E5,94.25,0.25,63,101.76
523,E4,94.25,0.25,43,101.76
524,A5,94.5,0.25,63,101.76
525,A3,94.5,0.25,43,101.76
526,G#5,94.75,0.25,59,101.76
527,E4,94.75,0.25,43,101.76
528,A5,95.0,0.25,66,101.76
529,C4,95.0,0.25,52,101.76
530,E5,95.25,0.25,62,101.76
531,E4,95.25,0.25,43,101.76
532,C5,95.5,0.25,62,101.76
533,A3,95.5,0.25,43,101.76
534,A4,95.75,0.25,59,101.76
535,E4,95.75,123/500,43,101.76
536,E4,96.0,0.5,70,101.76
537,E3,96.0,0.5,51,101.76
538,C5,97.0,0.125,42,101.76
539,E5,97.0,0.125,42,101.76
540,C5,97.5,0.125,38,101.76
541,E5,97.5,0.125,38,101.76
542,E4,98.0,11/40,46,101.76
543,A4,98.0,0.25,37,101.76
544,C5,98.0,0.25,37,101.76
545,E-4,98.25,11/40,39,101.76
546,F4,98.5,11/40,46,101.76
547,E4,98.75,0.25,39,101.76
548,B4,99.0,0.125,43,101.76
549,D5,99.0,0.125,43,101.76
550,B4,99.5,0.125,36,101.76
551,D5,99.5,0.125,36,101.76
552,E4,100.0,11/40,45,101.76
553,G#4,100.0,0.25,44,101.76
554,B4,100.0,0.25,44,101.76
555,E-4,100.25,11/40,39,101.76
556,F4,100.5,11/40,46,101.76
557,E4,100.75,0.25,39,101.76
558,E3,101.0,0.125,54,101.76
559,C4,101.0,0.125,54,101.76
560,E3,101.5,0.125,49,101.76
561,C4,101.5,0.125,49,101.76
562,E4,102.0,11/40,57,101.76
563,C3,102.0,0.25,56,101.76
564,A3,102.0,0.25,56,101.76
565,E-4,102.25,11/40,52,101.76
566,F4,102.5,11/40,57,101.76
567,E4,102.75,0.25,52,101.76
568,D3,103.0,0.125,52,101.76
569,B3,103.0,0.125,52,101.76
570,D3,103.5,0.125,45,101.76
571,B3,103.5,0.125,45,101.76
572,E6,104.0,0.25,76,101.76
573,B2,104.0,0.25,56,101.76
574,G#3,104.0,0.25,56,101.76
575,E-6,104.25,0.25,64,101.76
576,F6,104.5,0.25,68,101.76
577,E6,104.75,0.25,62,101.76
578,D6,105.0,0.25,73,101.76
579,G#3,105.0,1.0,43,101.76
580,B3,105.0,1.0,43,101.76
581,C#6,105.25,0.25,63,101.76
582,E6,105.5,0.25,71,101.76
583,D6,105.75,6/25,59,101.76
584,D6,106.0,0.25,72,101.76
585,A3,106.0,0.5,46,101.76
586,C4,106.0,0.5,46,101.76
587,C6,106.25,0.188,62,101.76
588,C6,106.5,0.125,67,101.76
589,B3,106.5,0.5,46,101.76
590,D4,106.5,0.5,46,101.76
591,B5,106.75,0.25,61,101.76
592,B5,107.0,0.188,71,101.76
593,C4,107.0,0.5,43,101.76
594,E4,107.0,1.0,51,101.76
595,A5,107.25,0.25,59,101.76
596,A5,107.5,0.125,68,101.76
597,C#4,107.5,0.5,43,101.76
598,G5,107.75,0.125,57,101.76
599,G5,108.0,0.25,69,101.76
600,D4,108.0,0.5,55,101.76
601,A4,108.0,2.0,46,101.76
602,F5,108.25,0.125,57,101.76
603,F5,108.5,0.25,65,101.76
604,E4,108.5,0.5,51,101.76
605,E5,108.75,0.125,57,101.76
606,E5,109.0,0.25,64,101.76
607,F4,109.0,0.5,57,101.76
608,D5,109.25,0.125,56,101.76
609,D5,109.5,0.25,62,101.76
610,E4,109.5,0.5,53,101.76
611,C5,109.75,0.125,55,101.76
612,B-4,110.0,0.25,66,101.76
613,F4,110.0,1.0,54,101.76
614,D4,110.0,1.0,54,101.76
615,F5,110.25,0.25,54,101.76
616,D5,110.5,0.25,57,101.76
617,B-4,110.75,0.25,53,101.76
618,A4,111.0,0.5,60,101.76
619,E3,111.0,1.0,36,101.76
620,C4,111.0,0.5,43,101.76
621,G#4,111.5,0.5,56,101.76
622,B3,111.5,0.5,43,101.76
623,A4,112.0,0.5,66,101.76
624,A3,112.0,0.25,43,101.76
625,C4,112.25,0.25,39,101.76
626,E4,112.5,0.25,39,101.76
627,C4,112.75,0.25,39,101.76
628,G#4,113.0,0.25,66,101.76
629,E3,113.0,0.25,46,101.76
630,D5,113.25,0.25,62,101.76
631,B3,113.25,0.25,39,101.76
632,B4,113.5,0.25,62,101.76
633,D4,113.5,0.25,39,101.76
634,G#4,113.75,0.25,58,101.76
635,B3,113.75,0.25,39,101.76
636,A4,114.0,0.5,66,101.76
637,A3,114.0,0.25,47,101.76
638,C4,114.25,0.25,41,101.76
639,E4,114.5,0.25,41,101.76
640,C4,114.75,0.25,41,101.76
641,G#4,115.0,0.25,70,101.76
642,E3,115.0,0.25,48,101.76
643,D5,115.25,0.25,63,101.76
644,B3,115.25,0.25,40,101.76
645,B4,115.5,0.25,63,101.76
646,D4,115.5,0.25,40,101.76
647,G#4,115.75,0.25,59,101.76
648,B3,115.75,0.25,40,101.76
649,A4,116.0,0.5,66,101.76
650,A3,116.0,0.25,47,101.76
651,C4,116.25,0.25,41,101.76
652,E4,116.5,0.25,41,101.76
653,C4,116.75,0.25,41,101.76
654,G#4,117.0,0.25,66,101.76
655,E3,117.0,0.25,43,101.76
656,D5,117.25,0.25,60,101.76
657,B3,117.25,0.25,35,101.76
658,B4,117.5,0.25,60,101.76
659,D4,117.5,0.25,37,101.76
660,G#4,117.75,0.25,54,101.76
661,B3,117.75,0.25,40,101.76
662,A4,118.0,0.25,69,101.76
663,A3,118.0,0.25,52,101.76
664,E5,118.25,0.25,64,101.76
665,C4,118.25,0.25,43,101.76
666,C5,118.5,0.25,64,101.76
667,E4,118.5,0.25,44,101.76
668,A4,118.75,0.25,58,101.76
669,C4,118.75,0.25,45,101.76
670,B4,119.0,0.25,77,101.76
671,G3,119.0,0.25,57,101.76
672,F5,119.25,0.25,66,101.76
673,D4,119.25,0.25,45,101.76
674,D5,119.5,0.25,66,101.76
675,F4,119.5,0.25,46,101.76
676,B4,119.75,0.25,59,101.76
677,D4,119.75,0.25,46,101.76
678,E5,121.0,0.125,46,101.76
679,G5,121.0,0.125,46,101.76
680,E5,121.5,0.125,40,101.76
681,G5,121.5,0.125,40,101.76
682,C5,122.0,0.375,44,101.76
683,E5,122.0,0.375,44,101.76
684,C4,122.0,0.125,33,101.76
685,A3,122.0,0.125,33,101.76
686,C4,122.5,0.125,31,101.76
687,A3,122.5,0.125,31,101.76
688,D5,123.0,0.125,46,101.76
689,F5,123.0,0.125,46,101.76
690,A3,123.0,0.25,26,101.76
691,F3,123.0,0.25,26,101.76
692,D5,123.5,0.125,40,101.76
693,F5,123.5,0.125,40,101.76
694,B4,124.0,0.375,45,101.76
695,D5,124.0,0.375,45,101.76
696,G3,124.0,0.125,37,101.76
697,B3,124.0,0.125,37,101.76
698,G3,124.5,0.125,30,101.76
699,B3,124.5,0.125,30,101.76
700,C5,125.0,11/40,53,101.76
701,E3,125.0,0.25,35,101.76
702,G3,125.0,0.25,35,101.76
703,D5,125.25,11/40,47,101.76
704,E5,125.5,11/40,53,101.76
705,C5,125.75,0.25,47,101.76
706,A4,126.0,11/40,50,101.76
707,C5,126.0,1/40,47,101.76
708,F3,126.0,1.5,42,101.76
709,B4,126.25,11/40,53,101.76
710,C5,126.5,11/40,58,101.76
711,C#5,126.75,11/40,62,101.76
712,D5,127.0,11/40,66,101.76
713,E5,127.25,11/40,56,101.76
714,F5,127.5,11/40,62,101.76
715,D3,127.5,0.5,38,101.76
716,D5,127.75,0.25,60,101.76
717,C5,128.0,11/40,67,101.76
718,D5,128.0,1/40,60,101.76
719,G3,128.0,0.5,44,101.76
720,B4,128.25,11/40,62,101.76
721,A4,128.5,11/40,58,101.76
722,G4,128.75,0.25,47,101.76
723,E5,129.0,0.125,46,101.76
724,G5,129.0,0.125,46,101.76
725,E5,129.5,0.125,40,101.76
726,G5,129.5,0.125,40,101.76
727,C5,130.0,0.375,44,101.76
728,E5,130.0,0.375,44,101.76
729,C4,130.0,0.125,33,101.76
730,A3,130.0,0.125,33,101.76
731,C4,130.5,0.125,31,101.76
732,A3,130.5,0.125,31,101.76
733,F5,131.0,0.125,62,101.76
734,A5,131.0,0.125,62,101.76
735,F3,131.0,0.25,26,101.76
736,D3,131.0,0.25,26,101.76
737,F5,131.5,0.125,55,101.76
738,A5,131.5,0.125,55,101.76
739,B4,132.0,0.375,60,101.76
740,D5,132.0,0.375,60,101.76
741,G3,132.0,0.125,42,101.76
742,B3,132.0,0.125,42,101.76
743,G3,132.5,0.125,34,101.76
744,B3,132.5,0.125,34,101.76
745,A5,133.0,11/40,70,101.76
746,C3,133.0,0.25,40,101.76
747,E3,133.0,0.25,40,101.76
748,G5,133.25,11/40,67,101.76
749,F5,133.5,11/40,64,101.76
750,E5,133.75,0.25,61,101.76
751,C#5,134.0,11/40,57,101.76
752,A3,134.0,1.5,38,101.76
753,F3,134.0,1.5,38,101.76
754,D5,134.25,11/40,58,101.76
755,E5,134.5,11/40,59,101.76
756,F5,134.75,0.25,56,101.76
757,A4,135.0,0.25,60,101.76
758,C5,135.25,0.25,52,101.76
759,B4,135.5,0.25,58,101.76
760,F4,135.5,0.5,40,101.76
761,G3,135.5,0.5,40,101.76
762,D5,135.75,0.25,50,101.76
763,C5,136.0,0.5,56,101.76
764,E4,136.0,0.5,47,101.76
765,C4,136.0,0.5,47,101.76
766,C3,136.5,0.25,47,101.76
767,B4,137.0,0.25,61,101.76
768,F3,137.0,0.25,44,101.76
769,F5,137.25,0.25,56,101.76
770,B3,137.25,0.25,38,101.76
771,D5,137.5,0.25,56,101.76
772,G3,137.5,0.25,38,101.76
773,B4,137.75,0.25,56,101.76
774,B3,137.75,0.25,38,101.76
775,A5,138.0,0.25,61,101.76
776,E3,138.0,0.25,44,101.76
777,G5,138.25,0.25,57,101.76
778,C4,138.25,0.25,39,101.76
779,F5,138.5,0.25,59,101.76
780,G3,138.5,0.25,41,101.76
781,E5,138.75,0.25,61,101.76
782,C4,138.75,0.25,42,101.76
783,D5,139.0,0.25,68,101.76
784,F3,139.0,0.25,48,101.76
785,F5,139.25,0.25,62,101.76
786,B3,139.25,0.25,41,101.76
787,D5,139.5,0.25,61,101.76
788,G3,139.5,0.25,41,101.76
789,B4,139.75,0.25,61,101.76
790,B3,139.75,0.25,42,101.76
791,A5,140.0,0.25,72,101.76
792,E3,140.0,0.25,51,101.76
793,G5,140.25,0.25,61,101.76
794,C4,140.25,0.25,44,101.76
795,F5,140.5,0.25,61,101.76
796,G3,140.5,0.25,44,101.76
797,E5,140.75,0.25,61,101.76
798,C4,140.75,0.25,44,101.76
799,D6,141.0,0.25,74,101.76
800,F3,141.0,0.25,53,101.76
801,C6,141.25,0.25,64,101.76
802,D4,141.25,0.25,44,101.76
803,B5,141.5,0.25,64,101.76
804,A3,141.5,0.25,44,101.76
805,A5,141.75,6/25,64,101.76
806,D4,141.75,0.25,44,101.76
807,A5,142.0,0.25,71,101.76
808,G3,142.0,0.25,51,101.76
809,G5,142.25,0.25,61,101.76
810,E4,142.25,0.25,44,101.76
811,F5,142.5,0.125,61,101.76
812,C4,142.5,0.25,44,101.76
813,E5,142.75,0.125,61,101.76
814,E4,142.75,0.25,44,101.76
815,E5,143.0,0.25,67,101.76
816,G3,143.0,0.25,50,101.76
817,D5,143.25,0.25,57,101.76
818,F4,143.25,0.25,41,101.76
819,C5,143.5,0.125,57,101.76
820,D4,143.5,0.25,41,101.76
821,B4,143.75,0.125,57,101.76
822,F4,143.75,0.25,44,101.76
823,D5,144.0,0.5,61,101.76
824,C4,144.0,0.25,44,101.76
825,G4,144.25,0.25,36,101.76
826,C5,144.5,0.5,57,101.76
827,E4,144.5,0.25,39,101.76
828,G4,144.75,0.25,36,101.76
829,B4,145.0,0.25,61,101.76
830,F3,145.0,0.25,44,101.76
831,F5,145.25,0.25,56,101.76
832,B3,145.25,0.25,38,101.76
833,D5,145.5,0.25,56,101.76
834,G3,145.5,0.25,38,101.76
835,B4,145.75,0.25,56,101.76
836,B3,145.75,0.25,38,101.76
837,A5,146.0,0.25,61,101.76
838,E3,146.0,0.25,44,101.76
839,G5,146.25,0.25,57,101.76
840,C4,146.25,0.25,39,101.76
841,F5,146.5,0.25,59,101.76
842,G3,146.5,0.25,41,101.76
843,E5,146.75,0.25,61,101.76
844,C4,146.75,0.25,42,101.76
845,D5,147.0,0.25,68,101.76
846,F3,147.0,0.25,48,101.76
847,F5,147.25,0.25,62,101.76
848,B3,147.25,0.25,41,101.76
849,D5,147.5,0.25,61,101.76
850,G3,147.5,0.25,41,101.76
851,B4,147.75,0.25,61,101.76
852,B3,147.75,0.25,42,101.76
853,A5,148.0,0.25,72,101.76
854,E3,148.0,0.25,51,101.76
855,G5,148.25,0.25,61,101.76
856,C4,148.25,0.25,44,101.76
857,F5,148.5,0.25,61,101.76
858,G3,148.5,0.25,44,101.76
859,E5,148.75,0.25,61,101.76
860,C4,148.75,0.25,44,101.76
861,D6,149.0,0.25,77,101.76
862,F3,149.0,0.25,53,101.76
863,C6,149.25,0.25,64,101.76
864,D4,149.25,0.25,46,101.76
865,B5,149.5,0.25,64,101.76
866,A3,149.5,0.25,46,101.76
867,A5,149.75,6/25,64,101.76
868,D4,149.75,0.25,46,101.76
869,A5,150.0,0.25,80,101.76
870,G3,150.0,0.25,51,101.76
871,G5,150.25,0.25,69,101.76
872,E4,150.25,0.25,48,101.76
873,F5,150.5,0.125,70,101.76
874,C4,150.5,0.25,49,101.76
875,E5,150.75,0.125,71,101.76
876,E4,150.75,0.25,51,101.76
877,E5,151.0,0.25,83,101.76
878,G3,151.0,0.25,57,101.76
879,D5,151.25,0.25,71,101.76
880,F4,151.25,0.25,51,101.76
881,C5,151.5,0.125,69,101.76
882,D4,151.5,0.25,55,101.76
883,B4,151.75,0.125,75,101.76
884,F4,151.75,0.25,58,101.76
885,C5,152.0,0.25,86,101.76
886,C4,152.0,0.25,67,101.76
887,E5,152.25,0.25,75,101.76
888,E4,152.25,0.25,58,101.76
889,G4,152.5,0.25,80,101.76
890,G3,152.5,0.25,60,101.76
891,C5,152.75,0.25,75,101.76
892,C4,152.75,0.25,56,101.76
893,E4,153.0,0.25,80,101.76
894,E3,153.0,0.25,62,101.76
895,G4,153.25,0.25,75,101.76
896,G3,153.25,0.25,55,101.76
897,C4,153.5,0.25,80,101.76
898,C3,153.5,0.25,58,101.76
899,E4,153.75,0.25,75,101.76
900,E3,153.75,0.25,49,101.76
901,G4,154.0,0.25,71,101.76
902,G3,154.0,0.5,63,101.76
903,C5,154.25,0.25,73,101.76
904,C5,154.5,0.25,68,101.76
905,E5,154.5,0.25,68,101.76
906,E5,154.75,0.188,70,101.76
907,G5,154.75,0.188,70,101.76
908,G2,155.0,0.5,63,101.76
909,E5,155.0,0.25,74,101.76
910,G5,155.0,0.25,74,101.76
911,D5,155.25,0.25,69,101.76
912,F5,155.25,0.25,69,101.76
913,C5,155.5,0.125,68,101.76
914,E5,155.5,0.125,68,101.76
915,B4,155.75,0.125,67,101.76
916,D5,155.75,0.125,67,101.76
917,C5,156.0,0.25,83,101.76
918,C4,156.0,0.25,67,101.76
919,E5,156.25,0.25,73,101.76
920,E4,156.25,0.25,56,101.76
921,G4,156.5,0.25,77,101.76
922,G3,156.5,0.25,60,101.76
923,C5,156.75,0.25,72,101.76
924,C4,156.75,0.25,56,101.76
925,E4,157.0,0.25,83,101.76
926,E3,157.0,0.25,64,101.76
927,G4,157.25,0.25,71,101.76
928,G3,157.25,0.25,56,101.76
929,C4,157.5,0.25,78,101.76
930,C3,157.5,0.25,60,101.76
931,E4,157.75,0.25,74,101.76
932,E3,157.75,0.25,53,101.76
933,G4,158.0,0.25,71,101.76
934,G3,158.0,0.5,67,101.76
935,C5,158.25,0.25,73,101.76
936,C5,158.5,0.25,68,101.76
937,E5,158.5,0.25,68,101.76
938,E5,158.75,0.188,70,101.76
939,G5,158.75,0.188,70,101.76
940,G2,159.0,0.5,63,101.76
941,E5,159.0,0.25,74,101.76
942,G5,159.0,0.25,74,101.76
943,D5,159.25,0.25,69,101.76
944,F5,159.25,0.25,69,101.76
945,C5,159.5,0.125,68,101.76
946,E5,159.5,0.125,68,101.76
947,B4,159.75,0.125,67,101.76
948,D5,159.75,0.125,67,101.76
949,C5,160.0,0.5,88,101.76
950,C2,160.0,0.5,65,101.76
951,C3,160.0,0.5,65,101.76
952,C6,160.5,0.375,71,101.76
953,G5,160.5,0.375,71,101.76
954,E5,160.5,0.375,71,101.76
955,E2,160.5,0.375,58,101.76
956,E3,160.5,0.375,58,101.76
957,E4,161.0,0.375,78,101.76
958,C5,161.0,0.375,78,101.76
959,G2,161.0,0.375,65,101.76
960,G3,161.0,0.375,65,101.76
961,E4,161.5,0.375,75,101.76
962,C5,161.5,0.375,75,101.76
963,E2,161.5,0.375,58,101.76
964,E3,161.5,0.375,58,101.76
965,E4,162.0,1.0,80,101.76
966,C5,162.0,1.0,80,101.76
967,C2,162.0,1.0,67,101.76
968,C3,162.0,1.0,67,101.76
