,note_name,start_time,duration,velocity,tempo
0,B-4,0.0,2.0,50,160.15
1,B-3,0.0,2.0,40,160.15
2,F4,2.0,1.0,45,160.15
3,F3,2.0,1.0,36,160.15
4,D4,3.0,2.0,50,160.15
5,D3,3.0,2.0,40,160.15
6,F4,5.0,1.0,48,160.15
7,F3,5.0,1.0,38,160.15
8,B-4,6.0,2.0,52,160.15
9,B-3,6.0,2.0,41,160.15
10,D5,8.0,1.0,54,160.15
11,D4,8.0,1.0,43,160.15
12,F5,9.0,2.0,57,160.15
13,F4,9.0,2.0,45,160.15
14,B-5,11.0,0.5,58,160.15
15,D5,11.5,0.5,51,160.15
16,F5,12.0,21/40,56,160.15
17,E-4,12.0,3.0,32,160.15
18,F3,12.0,3.0,32,160.15
19,C4,12.0,3.0,32,160.15
20,E-5,12.5,21/40,52,160.15
21,D5,13.0,21/40,51,160.15
22,C5,13.5,21/40,49,160.15
23,B-4,14.0,21/40,48,160.15
24,A4,14.5,0.5,47,160.15
25,G4,15.0,21/40,50,160.15
26,F4,15.5,21/40,44,160.15
27,E4,16.0,21/40,44,160.15
28,F4,16.5,21/40,45,160.15
29,G4,17.0,21/40,47,160.15
30,A4,17.5,0.5,50,160.15
31,B-4,18.0,0.125,50,160.15
32,E-4,18.0,3.0,32,160.15
33,F3,18.0,3.0,32,160.15
34,C4,18.0,3.0,32,160.15
35,C5,18.375,0.125,45,160.15
36,B-4,18.5,0.25,49,160.15
37,A4,18.75,0.25,46,160.15
38,B-4,19.0,0.125,50,160.15
39,C5,19.5,0.125,47,160.15
40,D5,20.0,0.125,49,160.15
41,E-5,20.5,0.125,51,160.15
42,E5,21.0,21/40,53,160.15
43,B-3,21.0,1.0,35,160.15
44,D4,21.0,1.0,35,160.15
45,F5,21.5,21/40,50,160.15
46,G5,22.0,21/40,55,160.15
47,F5,22.5,0.5,50,160.15
48,B-5,23.0,0.5,59,160.15
49,D5,23.5,0.5,50,160.15
50,F5,24.0,21/40,57,160.15
51,E-5,24.5,21/40,55,160.15
52,D5,25.0,21/40,53,160.15
53,C5,25.5,21/40,51,160.15
54,B-4,26.0,21/40,49,160.15
55,A4,26.5,0.5,47,160.15
56,G4,27.0,21/40,50,160.15
57,F3,27.0,3.0,32,160.15
58,C4,27.0,3.0,32,160.15
59,E-4,27.0,3.0,32,160.15
60,F4,27.5,21/40,43,160.15
61,E4,28.0,21/40,50,160.15
62,F4,28.5,21/40,43,160.15
63,G4,29.0,21/40,50,160.15
64,A4,29.5,0.5,45,160.15
65,B-4,30.0,0.25,50,160.15
66,B-4,31.0,0.25,48,160.15
67,D5,32.0,0.25,48,160.15
68,B-4,33.0,1.0,50,160.15
69,F3,33.0,3.0,32,160.15
70,C4,33.0,3.0,32,160.15
71,E-4,33.0,3.0,32,160.15
72,B-4,34.75,0.125,44,160.15
73,C5,35.0,11/40,50,160.15
74,B-4,35.25,11/40,43,160.15
75,A4,35.5,11/40,45,160.15
76,B-4,35.75,0.25,42,160.15
77,G5,36.0,1.0,56,160.15
78,B-4,36.0,1/40,42,160.15
79,B-3,36.0,0.25,37,160.15
80,D4,36.0,0.25,37,160.15
81,D4,37.0,0.25,35,160.15
82,B-3,37.0,0.25,35,160.15
83,B-4,37.75,0.125,44,160.15
84,C5,38.0,11/40,50,160.15
85,B-3,38.0,0.25,35,160.15
86,F4,38.0,0.25,35,160.15
87,B-4,38.25,11/40,43,160.15
88,A4,38.5,11/40,45,160.15
89,B-4,38.75,0.25,42,160.15
90,F5,39.0,1.0,55,160.15
91,B-4,39.0,1/40,42,160.15
92,B-3,39.0,1.0,37,160.15
93,D4,39.0,1.0,37,160.15
94,B-4,40.75,0.125,44,160.15
95,C5,41.0,11/40,50,160.15
96,B-4,41.25,11/40,43,160.15
97,A4,41.5,11/40,45,160.15
98,B-4,41.75,0.25,42,160.15
99,C5,42.0,1.0,52,160.15
100,B-4,42.0,1/40,42,160.15
101,F5,43.0,1.0,49,160.15
102,B-3,43.0,1.0,27,160.15
103,E-3,43.0,1.0,27,160.15
104,G3,43.0,1.0,27,160.15
105,E-5,44.0,1.0,48,160.15
106,C#5,45.0,1.0,55,160.15
107,D5,46.0,0.5,49,160.15
108,D3,46.0,1.0,27,160.15
109,F3,46.0,1.0,27,160.15
110,B-3,46.0,1.0,27,160.15
111,B-4,46.75,0.125,44,160.15
112,C5,47.0,11/40,50,160.15
113,B-4,47.25,11/40,43,160.15
114,A4,47.5,11/40,45,160.15
115,B-4,47.75,0.25,42,160.15
116,G5,48.0,1.0,56,160.15
117,B-4,48.0,1/40,42,160.15
118,A3,48.0,3.0,29,160.15
119,F4,48.0,3.0,34,160.15
120,B-4,49.75,0.125,44,160.15
121,C5,50.0,11/40,50,160.15
122,B-4,50.25,11/40,43,160.15
123,A4,50.5,11/40,45,160.15
124,B-4,50.75,0.25,42,160.15
125,F5,51.0,1.0,55,160.15
126,B-4,51.0,1/40,42,160.15
127,B-3,51.0,1.0,34,160.15
128,F4,51.0,1.0,34,160.15
129,B-4,52.75,0.125,44,160.15
130,C5,53.0,11/40,50,160.15
131,B-4,53.25,11/40,43,160.15
132,A4,53.5,11/40,45,160.15
133,B-4,53.75,0.25,42,160.15
134,C5,54.0,1.0,52,160.15
135,B-4,54.0,1/40,42,160.15
136,E-5,55.0,1.0,49,160.15
137,E-3,55.0,1.0,27,160.15
138,G3,55.0,1.0,27,160.15
139,B-3,55.0,1.0,27,160.15
140,A4,56.0,1.0,48,160.15
141,B-4,57.0,1.0,55,160.15
142,D3,58.0,1.0,27,160.15
143,F3,58.0,1.0,27,160.15
144,B-3,58.0,1.0,27,160.15
145,F3,60.0,3.0,29,160.15
146,A3,60.0,1.0,34,160.15
147,D5,60.0,0.25,68,160.15
148,B-4,60.0,0.25,68,160.15
149,G5,60.0,0.25,68,160.15
150,G4,61.0,0.25,64,160.15
151,C4,61.0,1.0,31,160.15
152,E-4,62.0,1.0,29,160.15
153,A4,63.0,0.25,67,160.15
154,F#4,63.0,0.25,67,160.15
155,D5,63.0,0.25,67,160.15
156,D4,63.0,1.0,31,160.15
157,B-3,63.0,1.0,31,160.15
158,D4,64.0,0.25,67,160.15
159,E-4,66.0,2.0,43,160.15
160,G3,66.0,0.25,73,160.15
161,G2,67.0,0.25,66,160.15
162,F4,68.0,11/40,36,160.15
163,E-4,68.25,11/40,36,160.15
164,D4,68.5,11/40,36,160.15
165,E-4,68.75,0.25,36,160.15
166,C5,69.0,0.5,42,160.15
167,D3,69.0,0.25,73,160.15
168,B-4,69.5,0.5,37,160.15
169,B-4,70.0,1.0,43,160.15
170,D2,70.0,0.25,66,160.15
171,B-4,71.0,1.0,38,160.15
172,B-4,72.0,21/40,39,160.15
173,E-3,72.0,3.0,20,160.15
174,G3,72.0,0.5,33,160.15
175,E-5,72.5,21/40,45,160.15
176,B-3,72.5,0.5,23,160.15
177,D5,73.0,21/40,44,160.15
178,G3,73.0,0.5,27,160.15
179,C#5,73.5,21/40,42,160.15
180,B-3,73.5,0.5,22,160.15
181,C5,74.0,21/40,40,160.15
182,G3,74.0,0.5,26,160.15
183,B4,74.5,0.5,38,160.15
184,B-3,74.5,0.5,22,160.15
185,B-4,75.0,1.0,41,160.15
186,B4,75.0,1/40,38,160.15
187,D3,75.0,3.0,20,160.15
188,G#3,75.0,0.5,36,160.15
189,B-3,75.5,0.5,23,160.15
190,G#3,76.0,0.5,27,160.15
191,B-3,76.5,0.5,23,160.15
192,G#3,77.0,0.5,27,160.15
193,B-3,77.5,0.5,24,160.15
194,E-4,78.0,2.0,45,160.15
195,E-3,78.0,3.0,20,160.15
196,G3,78.0,0.5,33,160.15
197,B-3,78.5,0.5,23,160.15
198,G3,79.0,0.5,27,160.15
199,B-3,79.5,0.5,23,160.15
200,F4,80.0,11/40,42,160.15
201,G3,80.0,0.5,27,160.15
202,E-4,80.25,11/40,39,160.15
203,D4,80.5,11/40,42,160.15
204,B-3,80.5,0.5,25,160.15
205,E-4,80.75,0.25,40,160.15
206,C5,81.0,21/40,54,160.15
207,D3,81.0,3.0,20,160.15
208,G#3,81.0,0.5,33,160.15
209,B4,81.5,0.5,48,160.15
210,B-3,81.5,0.5,27,160.15
211,B4,82.0,1.0,53,160.15
212,G#3,82.0,0.5,27,160.15
213,B-3,82.5,0.5,24,160.15
214,B4,83.0,1.0,47,160.15
215,G#3,83.0,0.5,27,160.15
216,B-3,83.5,0.5,23,160.15
217,C5,84.0,21/40,50,160.15
218,E-3,84.0,3.0,21,160.15
219,G3,84.0,0.5,35,160.15
220,G5,84.5,21/40,58,160.15
221,B-3,84.5,0.5,24,160.15
222,E-5,85.0,21/40,56,160.15
223,G3,85.0,0.5,28,160.15
224,D5,85.5,21/40,54,160.15
225,B-3,85.5,0.5,23,160.15
226,C5,86.0,21/40,51,160.15
227,G3,86.0,0.5,27,160.15
228,B-4,86.5,0.5,49,160.15
229,B-3,86.5,0.5,23,160.15
230,A4,87.0,1.0,50,160.15
231,B-4,87.0,1/40,49,160.15
232,D3,87.0,3.0,21,160.15
233,F3,87.0,0.5,38,160.15
234,G#3,87.5,0.5,24,160.15
235,F3,88.0,0.5,32,160.15
236,G#3,88.5,0.5,28,160.15
237,F3,89.0,0.5,32,160.15
238,G#3,89.5,0.5,27,160.15
239,B-4,90.0,21/40,59,160.15
240,E-3,90.0,3.0,23,160.15
241,G3,90.0,0.5,37,160.15
242,D6,90.5,21/40,62,160.15
243,C4,90.5,0.5,32,160.15
244,B-5,91.0,21/40,61,160.15
245,G3,91.0,0.5,34,160.15
246,A5,91.5,21/40,60,160.15
247,C4,91.5,0.5,29,160.15
248,G5,92.0,21/40,58,160.15
249,G3,92.0,0.5,30,160.15
250,F5,92.5,0.5,57,160.15
251,C4,92.5,0.5,28,160.15
252,E5,93.0,1.0,62,160.15
253,F5,93.0,1/40,57,160.15
254,E-3,93.0,3.0,23,160.15
255,F3,93.0,0.5,37,160.15
256,C4,93.5,0.5,30,160.15
257,F3,94.0,0.5,30,160.15
258,C4,94.5,21/40,27,160.15
259,F3,95.0,0.5,30,160.15
260,C4,95.5,0.5,26,160.15
261,F5,96.0,21/40,52,160.15
262,D3,96.0,3.0,27,160.15
263,F3,96.0,0.5,44,160.15
264,A5,96.5,21/40,58,160.15
265,B-3,96.5,0.5,30,160.15
266,F5,97.0,21/40,56,160.15
267,F3,97.0,0.5,36,160.15
268,E5,97.5,21/40,55,160.15
269,B-3,97.5,0.5,30,160.15
270,D5,98.0,21/40,53,160.15
271,F3,98.0,0.5,36,160.15
272,C5,98.5,0.5,51,160.15
273,B-3,98.5,0.5,33,160.15
274,B4,99.0,1.0,56,160.15
275,C5,99.0,1/40,51,160.15
276,C3,99.0,3.0,27,160.15
277,G3,99.0,0.5,44,160.15
278,B-3,99.5,0.5,36,160.15
279,G3,100.0,0.5,36,160.15
280,B-3,100.5,21/40,31,160.15
281,G3,101.0,0.5,36,160.15
282,B-3,101.5,0.5,30,160.15
283,D3,102.0,3.0,27,160.15
284,F3,102.0,0.5,44,160.15
285,C5,102.25,0.25,46,160.15
286,B4,102.5,0.25,49,160.15
287,A3,102.5,0.5,28,160.15
288,C5,102.75,0.25,44,160.15
289,D5,103.0,0.25,49,160.15
290,F3,103.0,0.5,36,160.15
291,C5,103.25,0.25,44,160.15
292,B4,103.5,0.25,49,160.15
293,A3,103.5,0.5,28,160.15
294,C5,103.75,0.25,44,160.15
295,F3,104.0,0.5,35,160.15
296,C5,104.25,0.25,49,160.15
297,E5,104.5,0.25,54,160.15
298,A3,104.5,0.5,27,160.15
299,C5,104.75,0.25,49,160.15
300,G3,105.0,3.0,37,160.15
301,D4,105.0,0.5,37,160.15
302,C5,105.25,0.25,53,160.15
303,F5,105.5,0.25,57,160.15
304,F4,105.5,0.5,36,160.15
305,C5,105.75,0.25,52,160.15
306,D4,106.0,0.5,36,160.15
307,C5,106.25,0.25,55,160.15
308,B-5,106.5,0.25,61,160.15
309,F4,106.5,21/40,30,160.15
310,C5,106.75,0.25,57,160.15
311,D4,107.0,0.5,36,160.15
312,C5,107.25,0.25,57,160.15
313,A5,107.5,0.25,64,160.15
314,F4,107.5,0.5,30,160.15
315,C5,107.75,0.25,57,160.15
316,G5,108.0,0.25,65,160.15
317,C4,108.0,1.0,44,160.15
318,E4,108.0,1.0,44,160.15
319,E5,108.25,0.25,60,160.15
320,D5,108.5,0.25,65,160.15
321,C5,108.75,0.25,60,160.15
322,B4,109.0,0.25,57,160.15
323,C5,109.25,0.25,59,160.15
324,D5,109.5,0.25,60,160.15
325,C5,109.75,0.25,56,160.15
326,B-4,110.0,0.5,50,160.15
327,C5,110.25,0.25,49,160.15
328,E5,110.5,0.25,53,160.15
329,C5,110.75,0.25,49,160.15
330,A4,111.0,0.5,55,160.15
331,C5,111.25,0.25,52,160.15
332,F5,111.5,0.25,58,160.15
333,C5,111.75,0.25,54,160.15
334,E4,112.0,0.5,59,160.15
335,C5,112.25,0.25,55,160.15
336,B-5,112.5,0.25,61,160.15
337,C5,112.75,0.25,55,160.15
338,F4,113.0,0.5,57,160.15
339,C5,113.25,0.25,49,160.15
340,A5,113.5,0.25,68,160.15
341,C5,113.75,0.25,62,160.15
342,G5,114.0,0.25,73,160.15
343,C4,114.0,1.0,62,160.15
344,C6,114.25,0.25,62,160.15
345,G5,114.5,0.25,69,160.15
346,E5,114.75,0.25,57,160.15
347,C5,115.0,0.25,67,160.15
348,G5,115.25,0.25,55,160.15
349,E5,115.5,0.25,61,160.15
350,C5,115.75,0.25,54,160.15
351,G4,116.0,0.25,63,160.15
352,B-4,116.0,0.5,50,160.15
353,C5,116.25,0.25,55,160.15
354,G4,116.5,0.25,65,160.15
355,E4,116.75,0.25,59,160.15
356,C4,117.0,0.25,85,160.15
357,A4,117.0,0.5,58,160.15
358,E4,118.0,0.5,62,160.15
359,G4,118.0,1.0,66,160.15
360,E4,118.0,1.0,66,160.15
361,C5,118.0,1.0,66,160.15
362,F4,119.0,0.5,56,160.15
363,C4,120.0,1.0,61,160.15
364,C4,122.25,0.25,47,160.15
365,G3,122.5,0.25,54,160.15
366,E3,122.75,0.25,47,160.15
367,C3,123.0,0.25,69,160.15
368,C2,124.0,1.0,59,160.15
369,F3,126.0,1021/500,34,160.15
370,C6,126.5,0.125,45,160.15
371,C6,127.0,0.125,49,160.15
372,C6,127.5,0.125,43,160.15
373,C6,128.0,0.125,46,160.15
374,C3,128.0,1.0,30,160.15
375,C6,128.5,0.125,40,160.15
376,D6,129.0,21/40,45,160.15
377,A2,129.0,1021/500,34,160.15
378,C6,129.5,21/40,40,160.15
379,B-5,130.0,21/40,43,160.15
380,A5,130.5,21/40,40,160.15
381,G5,131.0,21/40,45,160.15
382,C3,131.0,1.0,32,160.15
383,F5,131.5,0.5,39,160.15
384,F5,132.0,0.125,41,160.15
385,F3,132.0,1021/500,34,160.15
386,G5,132.125,0.125,39,160.15
387,F5,132.25,0.25,49,160.15
388,E5,132.5,483/1000,44,160.15
389,E5,133.0,1.0,46,160.15
390,A3,134.0,1.0,36,160.15
391,C4,135.0,1.0,38,160.15
392,B-3,138.0,1021/500,34,160.15
393,B-5,138.5,0.125,45,160.15
394,B-5,139.0,0.125,48,160.15
395,B-5,139.5,0.125,42,160.15
396,B-5,140.0,0.125,44,160.15
397,G3,140.0,1.0,30,160.15
398,B-5,140.5,0.125,40,160.15
399,C6,141.0,21/40,45,160.15
400,E3,141.0,1021/500,34,160.15
401,B-5,141.5,21/40,40,160.15
402,A5,142.0,21/40,40,160.15
403,G5,142.5,21/40,40,160.15
404,F5,143.0,21/40,45,160.15
405,G3,143.0,1.0,32,160.15
406,E5,143.5,0.5,39,160.15
407,F5,144.0,1.0,47,160.15
408,B-3,144.0,1021/500,34,160.15
409,A5,145.5,21/40,47,160.15
410,G5,146.0,21/40,45,160.15
411,E4,146.0,1.0,36,160.15
412,F5,146.5,0.5,40,160.15
413,E5,147.0,1.0,47,160.15
414,F5,147.0,1/40,40,160.15
415,G4,147.0,1.0,38,160.15
416,D6,148.5,21/40,52,160.15
417,C6,149.0,21/40,47,160.15
418,E5,149.5,0.5,42,160.15
419,F5,150.0,1.0,47,160.15
420,E5,150.0,1/40,42,160.15
421,A4,150.0,0.5,35,160.15
422,C5,150.5,0.5,28,160.15
423,A4,151.0,0.5,35,160.15
424,A5,151.5,21/40,47,160.15
425,C5,151.5,0.5,25,160.15
426,G5,152.0,21/40,45,160.15
427,A4,152.0,0.5,32,160.15
428,F5,152.5,0.5,40,160.15
429,C5,152.5,0.5,24,160.15
430,E5,153.0,1.0,47,160.15
431,F5,153.0,1/40,40,160.15
432,B-4,153.0,0.5,35,160.15
433,C5,153.5,0.5,31,160.15
434,B-4,154.0,0.5,35,160.15
435,D6,154.5,21/40,52,160.15
436,C5,154.5,0.5,26,160.15
437,C6,155.0,21/40,47,160.15
438,B-4,155.0,0.5,33,160.15
439,E5,155.5,0.5,42,160.15
440,C5,155.5,0.5,29,160.15
441,F5,156.0,1.0,47,160.15
442,E5,156.0,1/40,42,160.15
443,A4,156.0,0.5,35,160.15
444,C5,156.5,0.5,30,160.15
445,A4,157.0,0.5,32,160.15
446,C6,157.5,21/40,55,160.15
447,C5,157.5,0.5,24,160.15
448,A5,158.0,21/40,53,160.15
449,A4,158.0,0.5,32,160.15
450,G5,158.5,0.5,50,160.15
451,C5,158.5,0.5,25,160.15
452,F#5,159.0,1.0,56,160.15
453,G5,159.0,1/40,50,160.15
454,B-4,159.0,0.5,35,160.15
455,C5,159.5,0.5,31,160.15
456,B-4,160.0,0.5,35,160.15
457,E-6,160.5,21/40,58,160.15
458,C5,160.5,0.5,26,160.15
459,D6,161.0,21/40,52,160.15
460,B-4,161.0,0.5,33,160.15
461,F#5,161.5,0.5,48,160.15
462,C5,161.5,0.5,29,160.15
463,A5,162.0,21/40,56,160.15
464,F#5,162.0,1/40,48,160.15
465,A4,162.0,0.5,35,160.15
466,G5,162.5,21/40,51,160.15
467,C5,162.5,0.5,30,160.15
468,C6,163.0,21/40,55,160.15
469,A4,163.0,0.5,32,160.15
470,B5,163.5,21/40,51,160.15
471,C5,163.5,0.5,28,160.15
472,B-5,164.0,21/40,50,160.15
473,A4,164.0,0.5,38,160.15
474,A5,164.5,0.5,49,160.15
475,C5,164.5,0.5,31,160.15
476,G5,165.0,0.75,54,160.15
477,A5,165.0,1/40,49,160.15
478,D4,165.0,3.0,40,160.15
479,A4,165.0,0.5,40,160.15
480,C5,165.5,0.5,34,160.15
481,A5,165.75,0.25,48,160.15
482,F5,166.0,1.0,54,160.15
483,A4,166.0,0.5,38,160.15
484,C5,166.5,0.5,32,160.15
485,E5,167.0,167/1000,50,160.15
486,A4,167.0,0.5,39,160.15
487,F5,167.167,167/1000,44,160.15
488,E5,167.333,167/1000,50,160.15
489,F5,167.5,0.125,44,160.15
490,C5,167.5,0.5,32,160.15
491,E5,167.625,0.125,50,160.15
492,D5,167.75,0.125,42,160.15
493,E5,167.875,0.125,45,160.15
494,F5,168.0,0.25,49,160.15
495,G4,168.0,1.0,39,160.15
496,B-4,168.0,1.0,39,160.15
497,C5,168.25,0.25,46,160.15
498,B4,168.5,0.25,49,160.15
499,C5,168.75,0.25,44,160.15
500,D5,169.0,0.25,49,160.15
501,C5,169.0,2.0,35,160.15
502,E4,169.0,1.0,35,160.15
503,C5,169.25,0.25,44,160.15
504,B4,169.5,0.25,49,160.15
505,C5,169.75,0.25,44,160.15
506,B-4,170.0,0.25,49,160.15
507,F4,170.0,1.0,35,160.15
508,C5,170.25,0.25,49,160.15
509,A4,170.5,0.25,54,160.15
510,C5,170.75,0.25,49,160.15
511,G4,171.0,0.25,49,160.15
512,B-3,171.0,1.0,43,160.15
513,B-4,171.0,1.0,43,160.15
514,C5,171.25,0.25,46,160.15
515,B4,171.5,0.25,49,160.15
516,C5,171.75,0.25,44,160.15
517,D5,172.0,0.25,49,160.15
518,C4,172.0,2.0,40,160.15
519,A4,172.0,1.0,40,160.15
520,C5,172.25,0.25,44,160.15
521,B4,172.5,0.25,49,160.15
522,C5,172.75,0.25,44,160.15
523,B-5,173.0,0.25,49,160.15
524,G4,173.0,1.0,40,160.15
525,C5,173.25,0.25,49,160.15
526,B-5,173.5,0.25,54,160.15
527,C5,173.75,0.25,49,160.15
528,A5,174.0,0.25,49,160.15
529,F4,174.0,1.0,40,160.15
530,C5,174.25,0.25,46,160.15
531,B4,174.5,0.25,49,160.15
532,C5,174.75,0.25,44,160.15
533,D5,175.0,0.25,49,160.15
534,C5,175.25,0.25,44,160.15
535,B4,175.5,0.25,49,160.15
536,A3,175.5,0.5,49,160.15
537,C5,175.75,0.25,44,160.15
538,B-4,176.0,0.25,49,160.15
539,G3,176.0,0.5,55,160.15
540,C5,176.25,0.25,49,160.15
541,A4,176.5,0.25,54,160.15
542,F3,176.5,0.5,48,160.15
543,C5,176.75,0.25,49,160.15
544,G4,177.0,0.25,49,160.15
545,E3,177.0,1.0,48,160.15
546,C5,177.25,0.25,46,160.15
547,B4,177.5,0.25,49,160.15
548,C5,177.75,0.25,44,160.15
549,D5,178.0,0.25,49,160.15
550,C5,178.25,0.25,44,160.15
551,B4,178.5,0.25,49,160.15
552,D4,178.5,0.5,45,160.15
553,C5,178.75,0.25,44,160.15
554,B-5,179.0,0.25,49,160.15
555,C4,179.0,0.5,50,160.15
556,C5,179.25,0.25,49,160.15
557,B-5,179.5,0.25,54,160.15
558,E3,179.5,0.5,45,160.15
559,C5,179.75,0.25,49,160.15
560,A5,180.0,0.25,49,160.15
561,F3,180.0,1.0,40,160.15
562,C5,180.25,0.25,46,160.15
563,B4,180.5,0.25,49,160.15
564,C5,180.75,0.25,44,160.15
565,D5,181.0,0.25,49,160.15
566,C5,181.25,0.25,44,160.15
567,B4,181.5,0.25,49,160.15
568,A3,181.5,0.5,50,160.15
569,C5,181.75,0.25,44,160.15
570,E-5,182.0,0.25,49,160.15
571,G3,182.0,0.5,55,160.15
572,C5,182.25,0.25,49,160.15
573,B-4,182.5,0.25,54,160.15
574,F3,182.5,0.5,47,160.15
575,C5,182.75,0.25,49,160.15
576,A4,183.0,0.25,49,160.15
577,E3,183.0,1.0,47,160.15
578,D5,183.25,0.25,46,160.15
579,C#5,183.5,0.25,49,160.15
580,D5,183.75,0.25,44,160.15
581,E5,184.0,0.25,49,160.15
582,D5,184.25,0.25,44,160.15
583,C#5,184.5,0.25,52,160.15
584,D4,184.5,0.5,45,160.15
585,D5,184.75,0.25,44,160.15
586,C6,185.0,0.25,55,160.15
587,C4,185.0,0.5,50,160.15
588,D5,185.25,0.25,49,160.15
589,C6,185.5,0.25,57,160.15
590,E3,185.5,0.5,45,160.15
591,D5,185.75,0.25,49,160.15
592,B5,186.0,1.0,62,160.15
593,F3,186.0,1.0,40,160.15
594,B-5,187.0,1.0,60,160.15
595,C4,187.5,0.5,47,160.15
596,A5,188.0,1.0,57,160.15
597,A3,188.0,0.5,52,160.15
598,G3,188.5,0.5,47,160.15
599,G5,189.0,0.25,60,160.15
600,F#3,189.0,1.0,44,160.15
601,D6,189.25,0.25,52,160.15
602,B-5,189.5,0.25,52,160.15
603,G5,189.75,0.25,52,160.15
604,F5,190.0,0.25,62,160.15
605,C6,190.25,0.25,52,160.15
606,A5,190.5,0.25,52,160.15
607,E-4,190.5,0.5,45,160.15
608,F5,190.75,0.25,52,160.15
609,E5,191.0,0.25,62,160.15
610,D4,191.0,0.5,50,160.15
611,B-5,191.25,0.25,52,160.15
612,G5,191.5,0.25,52,160.15
613,F#3,191.5,0.5,45,160.15
614,E5,191.75,0.25,52,160.15
615,F5,192.0,11/40,54,160.15
616,G3,192.0,0.25,42,160.15
617,A5,192.25,11/40,57,160.15
618,D4,192.25,0.25,33,160.15
619,C6,192.5,11/40,61,160.15
620,B3,192.5,0.25,36,160.15
621,B-5,192.75,11/40,60,160.15
622,D4,192.75,0.25,33,160.15
623,A5,193.0,11/40,58,160.15
624,E3,193.0,0.25,38,160.15
625,G5,193.25,11/40,56,160.15
626,C#4,193.25,0.25,33,160.15
627,F5,193.5,11/40,54,160.15
628,G3,193.5,0.25,36,160.15
629,E5,193.75,11/40,52,160.15
630,C#4,193.75,0.25,33,160.15
631,D5,194.0,11/40,55,160.15
632,F3,194.0,0.25,39,160.15
633,C5,194.25,11/40,51,160.15
634,C4,194.25,0.25,33,160.15
635,B-4,194.5,11/40,50,160.15
636,A3,194.5,0.25,37,160.15
637,A4,194.75,0.25,50,160.15
638,C4,194.75,0.25,37,160.15
639,G4,195.0,11/40,50,160.15
640,B-2,195.0,1.0,34,160.15
641,B-3,195.0,1.0,34,160.15
642,B-4,195.25,11/40,53,160.15
643,D5,195.5,11/40,56,160.15
644,C5,195.75,11/40,55,160.15
645,B-4,196.0,11/40,54,160.15
646,C3,196.0,1.0,34,160.15
647,A3,196.0,1.0,34,160.15
648,A4,196.25,11/40,53,160.15
649,G4,196.5,11/40,52,160.15
650,F4,196.75,11/40,50,160.15
651,E4,197.0,11/40,49,160.15
652,B-2,197.0,1.0,34,160.15
653,G3,197.0,1.0,34,160.15
654,D4,197.25,11/40,50,160.15
655,C4,197.5,11/40,53,160.15
656,B3,197.75,0.25,56,160.15
657,C4,198.0,0.25,59,160.15
658,B3,198.0,1/40,56,160.15
659,A2,198.0,1.0,37,160.15
660,F3,198.0,1.0,37,160.15
661,C5,198.5,0.25,59,160.15
662,F5,199.0,0.25,61,160.15
663,A5,199.5,0.25,62,160.15
664,C6,200.0,0.25,64,160.15
665,C4,200.0,1.0,34,160.15
666,A3,200.0,1.0,34,160.15
667,F6,200.5,0.25,65,160.15
668,G5,201.0,0.125,37,160.15
669,B-3,201.0,1.0,40,160.15
670,D4,201.0,1.0,40,160.15
671,A5,201.125,0.125,31,160.15
672,G5,201.25,0.125,37,160.15
673,A5,201.375,0.125,31,160.15
674,G5,201.5,0.125,37,160.15
675,A5,201.625,0.125,32,160.15
676,G5,201.75,0.125,37,160.15
677,A5,201.875,0.125,33,160.15
678,G5,202.0,0.125,37,160.15
679,A5,202.125,0.125,32,160.15
680,G5,202.25,0.125,37,160.15
681,A5,202.375,0.125,32,160.15
682,G5,202.5,0.125,37,160.15
683,A5,202.625,0.125,31,160.15
684,G5,202.75,0.125,37,160.15
685,A5,202.875,0.125,33,160.15
686,G5,203.0,0.125,37,160.15
687,D3,203.0,1.0,33,160.15
688,F3,203.0,1.0,33,160.15
689,G3,203.0,1.0,33,160.15
690,A5,203.125,0.125,32,160.15
691,G5,203.25,167/1000,37,160.15
692,A5,203.417,167/1000,32,160.15
693,G5,203.583,167/1000,37,160.15
694,F5,203.75,0.125,33,160.15
695,G5,203.875,0.125,33,160.15
696,F5,204.0,1.0,49,160.15
697,C3,204.0,0.25,45,160.15
698,A3,204.25,0.25,37,160.15
699,F3,204.5,0.25,40,160.15
700,A3,204.75,0.25,37,160.15
701,C3,205.0,0.25,45,160.15
702,A3,205.25,0.25,37,160.15
703,F3,205.5,0.25,40,160.15
704,A3,205.75,0.25,37,160.15
705,C3,206.0,0.25,48,160.15
706,A3,206.25,0.25,37,160.15
707,F3,206.5,0.25,41,160.15
708,A3,206.75,0.25,37,160.15
709,B-5,207.0,1.0,46,160.15
710,C3,207.0,0.25,45,160.15
711,B-3,207.25,0.25,37,160.15
712,E3,207.5,0.25,40,160.15
713,B-3,207.75,0.25,37,160.15
714,C6,208.0,1.0,50,160.15
715,C3,208.0,0.25,45,160.15
716,B-3,208.25,0.25,37,160.15
717,E3,208.5,0.25,40,160.15
718,B-3,208.75,0.25,37,160.15
719,D6,209.0,1.0,51,160.15
720,C3,209.0,0.25,48,160.15
721,B-3,209.25,0.25,37,160.15
722,E3,209.5,0.25,41,160.15
723,B-3,209.75,0.25,37,160.15
724,C6,210.0,1.5,51,160.15
725,F3,210.0,21/40,41,160.15
726,A3,210.5,21/40,28,160.15
727,C4,211.0,21/40,35,160.15
728,D6,211.5,11/40,48,160.15
729,F4,211.5,21/40,34,160.15
730,C6,211.75,11/40,43,160.15
731,B-5,212.0,11/40,50,160.15
732,E4,212.0,21/40,32,160.15
733,A5,212.25,11/40,48,160.15
734,G5,212.5,11/40,47,160.15
735,E-4,212.5,0.5,30,160.15
736,F5,212.75,0.25,45,160.15
737,A5,213.0,1.5,48,160.15
738,D4,213.0,0.5,28,160.15
739,E-4,213.0,1/40,30,160.15
740,F4,213.5,0.5,21,160.15
741,C4,214.0,0.5,31,160.15
742,B-5,214.5,0.5,40,160.15
743,F4,214.5,0.5,24,160.15
744,G5,215.0,1.0,44,160.15
745,B-3,215.0,0.5,31,160.15
746,F4,215.5,0.5,25,160.15
747,F5,216.0,1.0,46,160.15
748,A3,216.0,0.5,31,160.15
749,F4,216.5,0.5,28,160.15
750,E4,217.0,0.5,31,160.15
751,F4,217.5,0.5,28,160.15
752,B-3,218.0,0.5,31,160.15
753,G4,218.5,0.5,27,160.15
754,B-4,219.0,0.5,52,160.15
755,C4,219.0,0.5,31,160.15
756,B-5,219.5,0.5,47,160.15
757,A4,219.5,0.5,27,160.15
758,C5,220.0,0.5,54,160.15
759,F4,220.0,0.5,31,160.15
760,C6,220.5,0.5,47,160.15
761,A4,220.5,0.5,29,160.15
762,D5,221.0,0.5,58,160.15
763,C4,221.0,0.5,31,160.15
764,D6,221.5,0.5,52,160.15
765,B-4,221.5,0.5,27,160.15
766,C6,222.0,0.5,61,160.15
767,A4,222.0,0.5,31,160.15
768,D6,222.5,11/40,54,160.15
769,F4,222.5,0.5,24,160.15
770,E6,222.75,11/40,58,160.15
771,F6,223.0,11/40,61,160.15
772,E4,223.0,0.5,30,160.15
773,E6,223.25,11/40,61,160.15
774,D6,223.5,11/40,60,160.15
775,E-4,223.5,0.5,26,160.15
776,C6,223.75,11/40,58,160.15
777,B-5,224.0,11/40,57,160.15
778,D4,224.0,0.5,29,160.15
779,A5,224.25,11/40,55,160.15
780,G5,224.5,11/40,54,160.15
781,C#4,224.5,0.5,31,160.15
782,F5,224.75,0.25,52,160.15
783,A5,225.0,1.5,62,160.15
784,D4,225.0,0.5,28,160.15
785,F4,225.5,0.5,27,160.15
786,C4,226.0,0.5,38,160.15
787,B-5,226.5,0.5,56,160.15
788,E4,226.5,0.5,32,160.15
789,G5,227.0,1.0,62,160.15
790,B3,227.0,0.5,40,160.15
791,G#4,227.5,0.5,34,160.15
792,F5,228.0,1.0,67,160.15
793,C4,228.0,0.5,41,160.15
794,A4,228.5,0.5,35,160.15
795,F4,229.0,0.5,38,160.15
796,C6,229.25,0.25,60,160.15
797,D6,229.5,11/40,65,160.15
798,A4,229.5,0.5,33,160.15
799,C6,229.75,11/40,60,160.15
800,B-5,230.0,11/40,64,160.15
801,C4,230.0,0.5,40,160.15
802,A5,230.25,11/40,62,160.15
803,B-5,230.5,11/40,60,160.15
804,A4,230.5,0.5,35,160.15
805,G5,230.75,0.25,58,160.15
806,F5,231.0,1.0,68,160.15
807,G5,231.0,1/40,58,160.15
808,C4,231.0,0.5,41,160.15
809,C5,231.5,0.5,33,160.15
810,A4,232.0,0.5,43,160.15
811,C5,232.25,11/40,60,160.15
812,D5,232.5,11/40,65,160.15
813,C5,232.5,0.5,33,160.15
814,C5,232.75,11/40,60,160.15
815,B-4,233.0,11/40,64,160.15
816,C4,233.0,0.5,45,160.15
817,A4,233.25,11/40,62,160.15
818,B-4,233.5,11/40,60,160.15
819,B-4,233.5,0.5,38,160.15
820,G4,233.75,0.25,58,160.15
821,F4,234.0,0.25,71,160.15
822,G4,234.0,1/40,58,160.15
823,F3,234.25,0.25,54,160.15
824,A3,234.5,0.25,56,160.15
825,C4,234.75,0.25,59,160.15
826,F4,235.0,0.5,61,160.15
827,A4,235.0,1.0,65,160.15
828,C5,235.0,1.0,65,160.15
829,F5,235.0,1.0,65,160.15
830,C4,236.0,0.5,54,160.15
831,E4,236.0,0.5,54,160.15
832,B-4,237.0,2.0,50,160.15
833,F2,237.25,0.25,54,160.15
834,A2,237.5,0.25,56,160.15
835,C3,237.75,0.25,59,160.15
836,F3,238.0,0.5,61,160.15
837,F4,239.0,1.0,45,160.15
838,C3,239.0,0.5,54,160.15
839,E3,239.0,0.5,54,160.15
840,D4,240.0,2.0,50,160.15
841,F3,240.0,0.25,59,160.15
842,F2,241.0,1.0,59,160.15
843,F4,242.0,1.0,48,160.15
844,B-4,243.0,2.0,52,160.15
845,B-3,243.0,2.0,40,160.15
846,D5,245.0,1.0,54,160.15
847,F3,245.0,1.0,36,160.15
848,F5,246.0,2.0,57,160.15
849,D3,246.0,2.0,40,160.15
850,B-5,248.0,0.5,58,160.15
851,F3,248.0,1.0,38,160.15
852,D5,248.5,0.5,51,160.15
853,F5,249.0,21/40,56,160.15
854,B-3,249.0,2.0,41,160.15
855,E-5,249.5,21/40,52,160.15
856,D5,250.0,21/40,51,160.15
857,C5,250.5,21/40,49,160.15
858,B-4,251.0,21/40,48,160.15
859,D4,251.0,1.0,43,160.15
860,A4,251.5,0.5,47,160.15
861,G4,252.0,21/40,50,160.15
862,F4,252.0,2.0,45,160.15
863,F4,252.5,21/40,44,160.15
864,E4,253.0,21/40,44,160.15
865,F4,253.5,21/40,45,160.15
866,G4,254.0,21/40,47,160.15
867,A4,254.5,0.5,50,160.15
868,B-4,255.0,0.125,50,160.15
869,E-4,255.0,3.0,32,160.15
870,F3,255.0,3.0,32,160.15
871,C4,255.0,3.0,32,160.15
872,C5,255.375,0.125,45,160.15
873,B-4,255.5,0.25,49,160.15
874,A4,255.75,0.25,46,160.15
875,B-4,256.0,0.125,50,160.15
876,C5,256.5,0.125,47,160.15
877,D5,257.0,0.125,49,160.15
878,E-5,257.5,0.125,51,160.15
879,E5,258.0,21/40,53,160.15
880,F5,258.5,21/40,50,160.15
881,G5,259.0,21/40,55,160.15
882,F5,259.5,0.5,50,160.15
883,B-5,260.0,0.5,59,160.15
884,D5,260.5,0.5,50,160.15
885,F5,261.0,21/40,57,160.15
886,E-4,261.0,3.0,32,160.15
887,F3,261.0,3.0,32,160.15
888,C4,261.0,3.0,32,160.15
889,E-5,261.5,21/40,55,160.15
890,D5,262.0,21/40,53,160.15
891,C5,262.5,21/40,51,160.15
892,B-4,263.0,21/40,49,160.15
893,A4,263.5,0.5,47,160.15
894,G4,264.0,21/40,50,160.15
895,B-3,264.0,1.0,35,160.15
896,D4,264.0,1.0,35,160.15
897,F4,264.5,21/40,43,160.15
898,E4,265.0,21/40,50,160.15
899,F4,265.5,21/40,43,160.15
900,G4,266.0,21/40,50,160.15
901,A4,266.5,0.5,45,160.15
902,B-4,267.0,0.25,50,160.15
903,B-4,268.0,0.25,48,160.15
904,D5,269.0,0.25,48,160.15
905,B-4,270.0,1.0,50,160.15
906,F3,270.0,3.0,32,160.15
907,C4,270.0,3.0,32,160.15
908,E-4,270.0,3.0,32,160.15
909,B-4,271.75,0.125,44,160.15
910,C5,272.0,11/40,50,160.15
911,B-4,272.25,11/40,43,160.15
912,A4,272.5,11/40,45,160.15
913,B-4,272.75,0.25,42,160.15
914,G5,273.0,1.0,56,160.15
915,B-4,273.0,1/40,42,160.15
916,B-4,274.75,0.125,44,160.15
917,C5,275.0,11/40,50,160.15
918,B-4,275.25,11/40,43,160.15
919,A4,275.5,11/40,45,160.15
920,B-4,275.75,0.25,42,160.15
921,F5,276.0,1.0,55,160.15
922,B-4,276.0,1/40,42,160.15
923,F3,276.0,3.0,32,160.15
924,C4,276.0,3.0,32,160.15
925,E-4,276.0,3.0,32,160.15
926,B-4,277.75,0.125,44,160.15
927,C5,278.0,11/40,50,160.15
928,B-4,278.25,11/40,43,160.15
929,A4,278.5,11/40,45,160.15
930,B-4,278.75,0.25,42,160.15
931,C5,279.0,1.0,52,160.15
932,B-4,279.0,1/40,42,160.15
933,B-3,279.0,0.25,37,160.15
934,D4,279.0,0.25,37,160.15
935,F5,280.0,1.0,49,160.15
936,D4,280.0,0.25,35,160.15
937,B-3,280.0,0.25,35,160.15
938,E-5,281.0,1.0,48,160.15
939,B-3,281.0,0.25,35,160.15
940,F4,281.0,0.25,35,160.15
941,C#5,282.0,1.0,55,160.15
942,B-3,282.0,1.0,37,160.15
943,D4,282.0,1.0,37,160.15
944,D5,283.0,0.5,49,160.15
945,B-4,283.75,0.125,44,160.15
946,C5,284.0,11/40,50,160.15
947,B-4,284.25,11/40,43,160.15
948,A4,284.5,11/40,45,160.15
949,B-4,284.75,0.25,42,160.15
950,G5,285.0,1.0,56,160.15
951,B-4,285.0,1/40,42,160.15
952,B-3,286.0,1.0,27,160.15
953,E-3,286.0,1.0,27,160.15
954,G3,286.0,1.0,27,160.15
955,B-4,286.75,0.125,44,160.15
956,C5,287.0,11/40,50,160.15
957,B-4,287.25,11/40,43,160.15
958,A4,287.5,11/40,45,160.15
959,B-4,287.75,0.25,42,160.15
960,F5,288.0,1.0,55,160.15
961,B-4,288.0,1/40,42,160.15
962,D3,289.0,1.0,27,160.15
963,F3,289.0,1.0,27,160.15
964,B-3,289.0,1.0,27,160.15
965,B-4,289.75,0.125,44,160.15
966,C5,290.0,11/40,50,160.15
967,B-4,290.25,11/40,43,160.15
968,A4,290.5,11/40,45,160.15
969,B-4,290.75,0.25,42,160.15
970,C5,291.0,1.0,52,160.15
971,B-4,291.0,1/40,42,160.15
972,A3,291.0,3.0,29,160.15
973,F4,291.0,3.0,34,160.15
974,E-5,292.0,1.0,49,160.15
975,A4,293.0,1.0,48,160.15
976,B-4,294.0,1.0,55,160.15
977,B-3,294.0,1.0,34,160.15
978,F4,294.0,1.0,34,160.15
979,D5,297.0,0.25,68,160.15
980,B-4,297.0,0.25,68,160.15
981,G5,297.0,0.25,68,160.15
982,G4,298.0,0.25,64,160.15
983,E-3,298.0,1.0,27,160.15
984,G3,298.0,1.0,27,160.15
985,B-3,298.0,1.0,27,160.15
986,A4,300.0,0.25,67,160.15
987,F#4,300.0,0.25,67,160.15
988,D5,300.0,0.25,67,160.15
989,D4,301.0,0.25,67,160.15
990,D3,301.0,1.0,27,160.15
991,F3,301.0,1.0,27,160.15
992,B-3,301.0,1.0,27,160.15
993,E-4,303.0,2.0,43,160.15
994,F3,303.0,3.0,29,160.15
995,A3,303.0,1.0,34,160.15
996,C4,304.0,1.0,31,160.15
997,F4,305.0,11/40,36,160.15
998,E-4,305.0,1.0,29,160.15
999,E-4,305.25,11/40,36,160.15
1000,D4,305.5,11/40,36,160.15
1001,E-4,305.75,0.25,36,160.15
1002,C5,306.0,0.5,42,160.15
1003,D4,306.0,1.0,31,160.15
1004,B-3,306.0,1.0,31,160.15
1005,B-4,306.5,0.5,37,160.15
1006,B-4,307.0,1.0,43,160.15
1007,B-4,308.0,1.0,38,160.15
1008,B-4,309.0,21/40,39,160.15
1009,G3,309.0,0.25,73,160.15
1010,E-5,309.5,21/40,45,160.15
1011,D5,310.0,21/40,44,160.15
1012,G2,310.0,0.25,66,160.15
1013,C#5,310.5,21/40,42,160.15
1014,C5,311.0,21/40,40,160.15
1015,B4,311.5,0.5,38,160.15
1016,B-4,312.0,1.0,41,160.15
1017,B4,312.0,1/40,38,160.15
1018,D3,312.0,0.25,73,160.15
1019,D2,313.0,0.25,66,160.15
1020,E-4,315.0,2.0,45,160.15
1021,E-3,315.0,3.0,20,160.15
1022,G3,315.0,0.5,33,160.15
1023,B-3,315.5,0.5,23,160.15
1024,G3,316.0,0.5,27,160.15
1025,B-3,316.5,0.5,22,160.15
1026,F4,317.0,11/40,42,160.15
1027,G3,317.0,0.5,26,160.15
1028,E-4,317.25,11/40,39,160.15
1029,D4,317.5,11/40,42,160.15
1030,B-3,317.5,0.5,22,160.15
1031,E-4,317.75,0.25,40,160.15
1032,C5,318.0,21/40,54,160.15
1033,D3,318.0,3.0,20,160.15
1034,G#3,318.0,0.5,36,160.15
1035,B4,318.5,0.5,48,160.15
1036,B-3,318.5,0.5,23,160.15
1037,B4,319.0,1.0,53,160.15
1038,G#3,319.0,0.5,27,160.15
1039,B-3,319.5,0.5,23,160.15
1040,B4,320.0,1.0,47,160.15
1041,G#3,320.0,0.5,27,160.15
1042,B-3,320.5,0.5,24,160.15
1043,C5,321.0,21/40,50,160.15
1044,E-3,321.0,3.0,20,160.15
1045,G3,321.0,0.5,33,160.15
1046,G5,321.5,21/40,58,160.15
1047,B-3,321.5,0.5,23,160.15
1048,E-5,322.0,21/40,56,160.15
1049,G3,322.0,0.5,27,160.15
1050,D5,322.5,21/40,54,160.15
1051,B-3,322.5,0.5,23,160.15
1052,C5,323.0,21/40,51,160.15
1053,G3,323.0,0.5,27,160.15
1054,B-4,323.5,0.5,49,160.15
1055,B-3,323.5,0.5,25,160.15
1056,A4,324.0,1.0,50,160.15
1057,B-4,324.0,1/40,49,160.15
1058,D3,324.0,3.0,20,160.15
1059,G#3,324.0,0.5,33,160.15
1060,B-3,324.5,0.5,27,160.15
1061,G#3,325.0,0.5,27,160.15
1062,B-3,325.5,0.5,24,160.15
1063,G#3,326.0,0.5,27,160.15
1064,B-3,326.5,0.5,23,160.15
1065,B-4,327.0,21/40,59,160.15
1066,E-3,327.0,3.0,21,160.15
1067,G3,327.0,0.5,35,160.15
1068,D6,327.5,21/40,62,160.15
1069,B-3,327.5,0.5,24,160.15
1070,B-5,328.0,21/40,61,160.15
1071,G3,328.0,0.5,28,160.15
1072,A5,328.5,21/40,60,160.15
1073,B-3,328.5,0.5,23,160.15
1074,G5,329.0,21/40,58,160.15
1075,G3,329.0,0.5,27,160.15
1076,F5,329.5,0.5,57,160.15
1077,B-3,329.5,0.5,23,160.15
1078,E5,330.0,1.0,62,160.15
1079,F5,330.0,1/40,57,160.15
1080,D3,330.0,3.0,21,160.15
1081,F3,330.0,0.5,38,160.15
1082,G#3,330.5,0.5,24,160.15
1083,F3,331.0,0.5,32,160.15
1084,G#3,331.5,0.5,28,160.15
1085,F3,332.0,0.5,32,160.15
1086,G#3,332.5,0.5,27,160.15
1087,F5,333.0,21/40,52,160.15
1088,E-3,333.0,3.0,23,160.15
1089,G3,333.0,0.5,37,160.15
1090,A5,333.5,21/40,58,160.15
1091,C4,333.5,0.5,32,160.15
1092,F5,334.0,21/40,56,160.15
1093,G3,334.0,0.5,34,160.15
1094,E5,334.5,21/40,55,160.15
1095,C4,334.5,0.5,29,160.15
1096,D5,335.0,21/40,53,160.15
1097,G3,335.0,0.5,30,160.15
1098,C5,335.5,0.5,51,160.15
1099,C4,335.5,0.5,28,160.15
1100,B4,336.0,1.0,56,160.15
1101,C5,336.0,1/40,51,160.15
1102,E-3,336.0,3.0,23,160.15
1103,F3,336.0,0.5,37,160.15
1104,C4,336.5,0.5,30,160.15
1105,F3,337.0,0.5,30,160.15
1106,C4,337.5,21/40,27,160.15
1107,F3,338.0,0.5,30,160.15
1108,C4,338.5,0.5,26,160.15
1109,D3,339.0,3.0,27,160.15
1110,F3,339.0,0.5,44,160.15
1111,C5,339.25,0.25,46,160.15
1112,B4,339.5,0.25,49,160.15
1113,B-3,339.5,0.5,30,160.15
1114,C5,339.75,0.25,44,160.15
1115,D5,340.0,0.25,49,160.15
1116,F3,340.0,0.5,36,160.15
1117,C5,340.25,0.25,44,160.15
1118,B4,340.5,0.25,49,160.15
1119,B-3,340.5,0.5,30,160.15
1120,C5,340.75,0.25,44,160.15
1121,F3,341.0,0.5,36,160.15
1122,C5,341.25,0.25,49,160.15
1123,E5,341.5,0.25,54,160.15
1124,B-3,341.5,0.5,33,160.15
1125,C5,341.75,0.25,49,160.15
1126,C3,342.0,3.0,27,160.15
1127,G3,342.0,0.5,44,160.15
1128,C5,342.25,0.25,53,160.15
1129,F5,342.5,0.25,57,160.15
1130,B-3,342.5,0.5,36,160.15
1131,C5,342.75,0.25,52,160.15
1132,G3,343.0,0.5,36,160.15
1133,C5,343.25,0.25,55,160.15
1134,B-5,343.5,0.25,61,160.15
1135,B-3,343.5,21/40,31,160.15
1136,C5,343.75,0.25,57,160.15
1137,G3,344.0,0.5,36,160.15
1138,C5,344.25,0.25,57,160.15
1139,A5,344.5,0.25,64,160.15
1140,B-3,344.5,0.5,30,160.15
1141,C5,344.75,0.25,57,160.15
1142,G5,345.0,0.25,65,160.15
1143,D3,345.0,3.0,27,160.15
1144,F3,345.0,0.5,44,160.15
1145,E5,345.25,0.25,60,160.15
1146,D5,345.5,0.25,65,160.15
1147,A3,345.5,0.5,28,160.15
1148,C5,345.75,0.25,60,160.15
1149,B4,346.0,0.25,57,160.15
1150,F3,346.0,0.5,36,160.15
1151,C5,346.25,0.25,59,160.15
1152,D5,346.5,0.25,60,160.15
1153,A3,346.5,0.5,28,160.15
1154,C5,346.75,0.25,56,160.15
1155,F3,347.0,0.5,35,160.15
1156,C5,347.25,0.25,49,160.15
1157,E5,347.5,0.25,53,160.15
1158,A3,347.5,0.5,27,160.15
1159,C5,347.75,0.25,49,160.15
1160,G3,348.0,3.0,37,160.15
1161,D4,348.0,0.5,37,160.15
1162,C5,348.25,0.25,52,160.15
1163,F5,348.5,0.25,58,160.15
1164,F4,348.5,0.5,36,160.15
1165,C5,348.75,0.25,54,160.15
1166,D4,349.0,0.5,36,160.15
1167,C5,349.25,0.25,55,160.15
1168,B-5,349.5,0.25,61,160.15
1169,F4,349.5,21/40,30,160.15
1170,C5,349.75,0.25,55,160.15
1171,D4,350.0,0.5,36,160.15
1172,C5,350.25,0.25,49,160.15
1173,A5,350.5,0.25,68,160.15
1174,F4,350.5,0.5,30,160.15
1175,C5,350.75,0.25,62,160.15
1176,G5,351.0,0.25,73,160.15
1177,C4,351.0,1.0,44,160.15
1178,E4,351.0,1.0,44,160.15
1179,C6,351.25,0.25,62,160.15
1180,G5,351.5,0.25,69,160.15
1181,E5,351.75,0.25,57,160.15
1182,C5,352.0,0.25,67,160.15
1183,G5,352.25,0.25,55,160.15
1184,E5,352.5,0.25,61,160.15
1185,C5,352.75,0.25,54,160.15
1186,G4,353.0,0.25,63,160.15
1187,B-4,353.0,0.5,50,160.15
1188,C5,353.25,0.25,55,160.15
1189,G4,353.5,0.25,65,160.15
1190,E4,353.75,0.25,59,160.15
1191,C4,354.0,0.25,85,160.15
1192,A4,354.0,0.5,55,160.15
1193,E4,355.0,0.5,59,160.15
1194,G4,355.0,1.0,66,160.15
1195,E4,355.0,1.0,66,160.15
1196,C5,355.0,1.0,66,160.15
1197,F4,356.0,0.5,57,160.15
1198,C4,357.0,1.0,62,160.15
1199,B-4,359.0,0.5,50,160.15
1200,A4,360.0,0.5,58,160.15
1201,E4,361.0,0.5,62,160.15
1202,F4,362.0,0.5,56,160.15
1203,C4,363.0,1.0,61,160.15
1204,C6,363.5,0.125,45,160.15
1205,C6,364.0,0.125,49,160.15
1206,C6,364.5,0.125,43,160.15
1207,C6,365.0,0.125,46,160.15
1208,C4,365.25,0.25,47,160.15
1209,C6,365.5,0.125,40,160.15
1210,G3,365.5,0.25,54,160.15
1211,E3,365.75,0.25,47,160.15
1212,D6,366.0,21/40,45,160.15
1213,C3,366.0,0.25,69,160.15
1214,C6,366.5,21/40,40,160.15
1215,B-5,367.0,21/40,43,160.15
1216,C2,367.0,1.0,59,160.15
1217,A5,367.5,21/40,40,160.15
1218,G5,368.0,21/40,45,160.15
1219,F5,368.5,0.5,39,160.15
1220,F5,369.0,0.125,41,160.15
1221,F3,369.0,1021/500,34,160.15
1222,G5,369.125,0.125,39,160.15
1223,F5,369.25,0.25,49,160.15
1224,E5,369.5,483/1000,44,160.15
1225,E5,370.0,1.0,46,160.15
1226,C3,371.0,1.0,30,160.15
1227,A2,372.0,1021/500,34,160.15
1228,C3,374.0,1.0,32,160.15
1229,F3,375.0,1021/500,34,160.15
1230,B-5,375.5,0.125,45,160.15
1231,B-5,376.0,0.125,48,160.15
1232,B-5,376.5,0.125,42,160.15
1233,B-5,377.0,0.125,44,160.15
1234,A3,377.0,1.0,36,160.15
1235,B-5,377.5,0.125,40,160.15
1236,C6,378.0,21/40,45,160.15
1237,C4,378.0,1.0,38,160.15
1238,B-5,378.5,21/40,40,160.15
1239,A5,379.0,21/40,40,160.15
1240,G5,379.5,21/40,40,160.15
1241,F5,380.0,21/40,45,160.15
1242,E5,380.5,0.5,39,160.15
1243,F5,381.0,1.0,47,160.15
1244,B-3,381.0,1021/500,34,160.15
1245,A5,382.5,21/40,47,160.15
1246,G5,383.0,21/40,45,160.15
1247,G3,383.0,1.0,30,160.15
1248,F5,383.5,0.5,40,160.15
1249,E5,384.0,1.0,47,160.15
1250,F5,384.0,1/40,40,160.15
1251,E3,384.0,1021/500,34,160.15
1252,D6,385.5,21/40,52,160.15
1253,C6,386.0,21/40,47,160.15
1254,G3,386.0,1.0,32,160.15
1255,E5,386.5,0.5,42,160.15
1256,F5,387.0,1.0,47,160.15
1257,E5,387.0,1/40,42,160.15
1258,B-3,387.0,1021/500,34,160.15
1259,A5,388.5,21/40,47,160.15
1260,G5,389.0,21/40,45,160.15
1261,E4,389.0,1.0,36,160.15
1262,F5,389.5,0.5,40,160.15
1263,E5,390.0,1.0,47,160.15
1264,F5,390.0,1/40,40,160.15
1265,G4,390.0,1.0,38,160.15
1266,D6,391.5,21/40,52,160.15
1267,C6,392.0,21/40,47,160.15
1268,E5,392.5,0.5,42,160.15
1269,F5,393.0,1.0,47,160.15
1270,E5,393.0,1/40,42,160.15
1271,A4,393.0,0.5,35,160.15
1272,C5,393.5,0.5,28,160.15
1273,A4,394.0,0.5,35,160.15
1274,C6,394.5,21/40,55,160.15
1275,C5,394.5,0.5,25,160.15
1276,A5,395.0,21/40,53,160.15
1277,A4,395.0,0.5,32,160.15
1278,G5,395.5,0.5,50,160.15
1279,C5,395.5,0.5,24,160.15
1280,F#5,396.0,1.0,56,160.15
1281,G5,396.0,1/40,50,160.15
1282,B-4,396.0,0.5,35,160.15
1283,C5,396.5,0.5,31,160.15
1284,B-4,397.0,0.5,35,160.15
1285,E-6,397.5,21/40,58,160.15
1286,C5,397.5,0.5,26,160.15
1287,D6,398.0,21/40,52,160.15
1288,B-4,398.0,0.5,33,160.15
1289,F#5,398.5,0.5,48,160.15
1290,C5,398.5,0.5,29,160.15
1291,A5,399.0,21/40,56,160.15
1292,F#5,399.0,1/40,48,160.15
1293,A4,399.0,0.5,35,160.15
1294,G5,399.5,21/40,51,160.15
1295,C5,399.5,0.5,30,160.15
1296,C6,400.0,21/40,55,160.15
1297,A4,400.0,0.5,32,160.15
1298,B5,400.5,21/40,51,160.15
1299,C5,400.5,0.5,24,160.15
1300,B-5,401.0,21/40,50,160.15
1301,A4,401.0,0.5,32,160.15
1302,A5,401.5,0.5,49,160.15
1303,C5,401.5,0.5,25,160.15
1304,G5,402.0,0.75,54,160.15
1305,A5,402.0,1/40,49,160.15
1306,B-4,402.0,0.5,35,160.15
1307,C5,402.5,0.5,31,160.15
1308,A5,402.75,0.25,48,160.15
1309,F5,403.0,1.0,54,160.15
1310,B-4,403.0,0.5,35,160.15
1311,C5,403.5,0.5,26,160.15
1312,E5,404.0,167/1000,50,160.15
1313,B-4,404.0,0.5,33,160.15
1314,F5,404.167,167/1000,44,160.15
1315,E5,404.333,167/1000,50,160.15
1316,F5,404.5,0.125,44,160.15
1317,C5,404.5,0.5,29,160.15
1318,E5,404.625,0.125,50,160.15
1319,D5,404.75,0.125,42,160.15
1320,E5,404.875,0.125,45,160.15
1321,F5,405.0,0.25,49,160.15
1322,A4,405.0,0.5,35,160.15
1323,C5,405.25,0.25,46,160.15
1324,B4,405.5,0.25,49,160.15
1325,C5,405.5,0.5,30,160.15
1326,C5,405.75,0.25,44,160.15
1327,D5,406.0,0.25,49,160.15
1328,A4,406.0,0.5,32,160.15
1329,C5,406.25,0.25,44,160.15
1330,B4,406.5,0.25,49,160.15
1331,C5,406.5,0.5,28,160.15
1332,C5,406.75,0.25,44,160.15
1333,B-4,407.0,0.25,49,160.15
1334,A4,407.0,0.5,38,160.15
1335,C5,407.25,0.25,49,160.15
1336,A4,407.5,0.25,54,160.15
1337,C5,407.5,0.5,31,160.15
1338,C5,407.75,0.25,49,160.15
1339,G4,408.0,0.25,49,160.15
1340,D4,408.0,3.0,40,160.15
1341,A4,408.0,0.5,40,160.15
1342,C5,408.25,0.25,46,160.15
1343,B4,408.5,0.25,49,160.15
1344,C5,408.5,0.5,34,160.15
1345,C5,408.75,0.25,44,160.15
1346,D5,409.0,0.25,49,160.15
1347,A4,409.0,0.5,38,160.15
1348,C5,409.25,0.25,44,160.15
1349,B4,409.5,0.25,49,160.15
1350,C5,409.5,0.5,32,160.15
1351,C5,409.75,0.25,44,160.15
1352,B-5,410.0,0.25,49,160.15
1353,A4,410.0,0.5,39,160.15
1354,C5,410.25,0.25,49,160.15
1355,B-5,410.5,0.25,54,160.15
1356,C5,410.5,0.5,32,160.15
1357,C5,410.75,0.25,49,160.15
1358,A5,411.0,0.25,49,160.15
1359,G4,411.0,1.0,39,160.15
1360,B-4,411.0,1.0,39,160.15
1361,C5,411.25,0.25,46,160.15
1362,B4,411.5,0.25,49,160.15
1363,C5,411.75,0.25,44,160.15
1364,D5,412.0,0.25,49,160.15
1365,C5,412.0,2.0,35,160.15
1366,E4,412.0,1.0,35,160.15
1367,C5,412.25,0.25,44,160.15
1368,B4,412.5,0.25,49,160.15
1369,C5,412.75,0.25,44,160.15
1370,B-4,413.0,0.25,49,160.15
1371,F4,413.0,1.0,35,160.15
1372,C5,413.25,0.25,49,160.15
1373,A4,413.5,0.25,54,160.15
1374,C5,413.75,0.25,49,160.15
1375,G4,414.0,0.25,49,160.15
1376,B-3,414.0,1.0,43,160.15
1377,B-4,414.0,1.0,43,160.15
1378,C5,414.25,0.25,46,160.15
1379,B4,414.5,0.25,49,160.15
1380,C5,414.75,0.25,44,160.15
1381,D5,415.0,0.25,49,160.15
1382,C4,415.0,2.0,40,160.15
1383,A4,415.0,1.0,40,160.15
1384,C5,415.25,0.25,44,160.15
1385,B4,415.5,0.25,49,160.15
1386,C5,415.75,0.25,44,160.15
1387,B-5,416.0,0.25,49,160.15
1388,G4,416.0,1.0,40,160.15
1389,C5,416.25,0.25,49,160.15
1390,B-5,416.5,0.25,54,160.15
1391,C5,416.75,0.25,49,160.15
1392,A5,417.0,0.25,49,160.15
1393,F4,417.0,1.0,40,160.15
1394,C5,417.25,0.25,46,160.15
1395,B4,417.5,0.25,49,160.15
1396,C5,417.75,0.25,44,160.15
1397,D5,418.0,0.25,49,160.15
1398,C5,418.25,0.25,44,160.15
1399,B4,418.5,0.25,49,160.15
1400,A3,418.5,0.5,49,160.15
1401,C5,418.75,0.25,44,160.15
1402,E-5,419.0,0.25,49,160.15
1403,G3,419.0,0.5,55,160.15
1404,C5,419.25,0.25,49,160.15
1405,B-4,419.5,0.25,54,160.15
1406,F3,419.5,0.5,48,160.15
1407,C5,419.75,0.25,49,160.15
1408,A4,420.0,0.25,49,160.15
1409,E3,420.0,1.0,48,160.15
1410,D5,420.25,0.25,46,160.15
1411,C#5,420.5,0.25,49,160.15
1412,D5,420.75,0.25,44,160.15
1413,E5,421.0,0.25,49,160.15
1414,D5,421.25,0.25,44,160.15
1415,C#5,421.5,0.25,52,160.15
1416,D4,421.5,0.5,45,160.15
1417,D5,421.75,0.25,44,160.15
1418,C6,422.0,0.25,55,160.15
1419,C4,422.0,0.5,50,160.15
1420,D5,422.25,0.25,49,160.15
1421,C6,422.5,0.25,57,160.15
1422,E3,422.5,0.5,45,160.15
1423,D5,422.75,0.25,49,160.15
1424,B5,423.0,1.0,62,160.15
1425,F3,423.0,1.0,40,160.15
1426,B-5,424.0,1.0,60,160.15
1427,A3,424.5,0.5,50,160.15
1428,A5,425.0,1.0,57,160.15
1429,G3,425.0,0.5,55,160.15
1430,F3,425.5,0.5,47,160.15
1431,G5,426.0,0.25,60,160.15
1432,E3,426.0,1.0,47,160.15
1433,D6,426.25,0.25,52,160.15
1434,B-5,426.5,0.25,52,160.15
1435,G5,426.75,0.25,52,160.15
1436,F5,427.0,0.25,62,160.15
1437,C6,427.25,0.25,52,160.15
1438,A5,427.5,0.25,52,160.15
1439,D4,427.5,0.5,45,160.15
1440,F5,427.75,0.25,52,160.15
1441,E5,428.0,0.25,62,160.15
1442,C4,428.0,0.5,50,160.15
1443,B-5,428.25,0.25,52,160.15
1444,G5,428.5,0.25,52,160.15
1445,E3,428.5,0.5,45,160.15
1446,E5,428.75,0.25,52,160.15
1447,F5,429.0,11/40,54,160.15
1448,F3,429.0,1.0,40,160.15
1449,A5,429.25,11/40,57,160.15
1450,C6,429.5,11/40,61,160.15
1451,B-5,429.75,11/40,60,160.15
1452,A5,430.0,11/40,58,160.15
1453,G5,430.25,11/40,56,160.15
1454,F5,430.5,11/40,54,160.15
1455,C4,430.5,0.5,47,160.15
1456,E5,430.75,11/40,52,160.15
1457,D5,431.0,11/40,55,160.15
1458,A3,431.0,0.5,52,160.15
1459,C5,431.25,11/40,51,160.15
1460,B-4,431.5,11/40,50,160.15
1461,G3,431.5,0.5,47,160.15
1462,A4,431.75,0.25,50,160.15
1463,G4,432.0,11/40,50,160.15
1464,F#3,432.0,1.0,44,160.15
1465,B-4,432.25,11/40,53,160.15
1466,D5,432.5,11/40,56,160.15
1467,C5,432.75,11/40,55,160.15
1468,B-4,433.0,11/40,54,160.15
1469,A4,433.25,11/40,53,160.15
1470,G4,433.5,11/40,52,160.15
1471,E-4,433.5,0.5,45,160.15
1472,F4,433.75,11/40,50,160.15
1473,E4,434.0,11/40,49,160.15
1474,D4,434.0,0.5,50,160.15
1475,D4,434.25,11/40,50,160.15
1476,C4,434.5,11/40,53,160.15
1477,F#3,434.5,0.5,45,160.15
1478,B3,434.75,0.25,56,160.15
1479,C4,435.0,0.25,59,160.15
1480,B3,435.0,1/40,56,160.15
1481,G3,435.0,0.25,42,160.15
1482,D4,435.25,0.25,33,160.15
1483,C5,435.5,0.25,59,160.15
1484,B3,435.5,0.25,36,160.15
1485,D4,435.75,0.25,33,160.15
1486,F5,436.0,0.25,61,160.15
1487,E3,436.0,0.25,38,160.15
1488,C#4,436.25,0.25,33,160.15
1489,A5,436.5,0.25,62,160.15
1490,G3,436.5,0.25,36,160.15
1491,C#4,436.75,0.25,33,160.15
1492,C6,437.0,0.25,64,160.15
1493,F3,437.0,0.25,39,160.15
1494,C4,437.25,0.25,33,160.15
1495,F6,437.5,0.25,65,160.15
1496,A3,437.5,0.25,37,160.15
1497,C4,437.75,0.25,37,160.15
1498,G5,438.0,0.125,37,160.15
1499,B-2,438.0,1.0,34,160.15
1500,B-3,438.0,1.0,34,160.15
1501,A5,438.125,0.125,31,160.15
1502,G5,438.25,0.125,37,160.15
1503,A5,438.375,0.125,31,160.15
1504,G5,438.5,0.125,37,160.15
1505,A5,438.625,0.125,32,160.15
1506,G5,438.75,0.125,37,160.15
1507,A5,438.875,0.125,33,160.15
1508,G5,439.0,0.125,37,160.15
1509,C3,439.0,1.0,34,160.15
1510,A3,439.0,1.0,34,160.15
1511,A5,439.125,0.125,32,160.15
1512,G5,439.25,0.125,37,160.15
1513,A5,439.375,0.125,32,160.15
1514,G5,439.5,0.125,37,160.15
1515,A5,439.625,0.125,31,160.15
1516,G5,439.75,0.125,37,160.15
1517,A5,439.875,0.125,33,160.15
1518,G5,440.0,0.125,37,160.15
1519,B-2,440.0,1.0,34,160.15
1520,G3,440.0,1.0,34,160.15
1521,A5,440.125,0.125,32,160.15
1522,G5,440.25,167/1000,37,160.15
1523,A5,440.417,167/1000,32,160.15
1524,G5,440.583,167/1000,37,160.15
1525,F5,440.75,0.125,33,160.15
1526,G5,440.875,0.125,33,160.15
1527,F5,441.0,1.0,49,160.15
1528,A2,441.0,1.0,37,160.15
1529,F3,441.0,1.0,37,160.15
1530,C4,443.0,1.0,34,160.15
1531,A3,443.0,1.0,34,160.15
1532,B-5,444.0,1.0,46,160.15
1533,B-3,444.0,1.0,40,160.15
1534,D4,444.0,1.0,40,160.15
1535,C6,445.0,1.0,50,160.15
1536,D6,446.0,1.0,51,160.15
1537,D3,446.0,1.0,33,160.15
1538,F3,446.0,1.0,33,160.15
1539,G3,446.0,1.0,33,160.15
1540,C6,447.0,1.5,51,160.15
1541,C3,447.0,0.25,45,160.15
1542,A3,447.25,0.25,37,160.15
1543,F3,447.5,0.25,40,160.15
1544,A3,447.75,0.25,37,160.15
1545,C3,448.0,0.25,45,160.15
1546,A3,448.25,0.25,37,160.15
1547,D6,448.5,11/40,48,160.15
1548,F3,448.5,0.25,40,160.15
1549,C6,448.75,11/40,43,160.15
1550,A3,448.75,0.25,37,160.15
1551,B-5,449.0,11/40,50,160.15
1552,C3,449.0,0.25,48,160.15
1553,A5,449.25,11/40,48,160.15
1554,A3,449.25,0.25,37,160.15
1555,G5,449.5,11/40,47,160.15
1556,F3,449.5,0.25,41,160.15
1557,F5,449.75,0.25,45,160.15
1558,A3,449.75,0.25,37,160.15
1559,A5,450.0,1.5,48,160.15
1560,C3,450.0,0.25,45,160.15
1561,B-3,450.25,0.25,37,160.15
1562,E3,450.5,0.25,40,160.15
1563,B-3,450.75,0.25,37,160.15
1564,C3,451.0,0.25,45,160.15
1565,B-3,451.25,0.25,37,160.15
1566,B-5,451.5,0.5,40,160.15
1567,E3,451.5,0.25,40,160.15
1568,B-3,451.75,0.25,37,160.15
1569,G5,452.0,1.0,44,160.15
1570,C3,452.0,0.25,48,160.15
1571,B-3,452.25,0.25,37,160.15
1572,E3,452.5,0.25,41,160.15
1573,B-3,452.75,0.25,37,160.15
1574,F5,453.0,1.0,46,160.15
1575,F3,453.0,21/40,41,160.15
1576,A3,453.5,21/40,28,160.15
1577,C4,454.0,21/40,35,160.15
1578,F4,454.5,21/40,34,160.15
1579,E4,455.0,21/40,32,160.15
1580,E-4,455.5,0.5,30,160.15
1581,B-4,456.0,0.5,52,160.15
1582,D4,456.0,0.5,28,160.15
1583,E-4,456.0,1/40,30,160.15
1584,B-5,456.5,0.5,47,160.15
1585,F4,456.5,0.5,21,160.15
1586,C5,457.0,0.5,54,160.15
1587,C4,457.0,0.5,31,160.15
1588,C6,457.5,0.5,47,160.15
1589,F4,457.5,0.5,24,160.15
1590,D5,458.0,0.5,58,160.15
1591,B-3,458.0,0.5,31,160.15
1592,D6,458.5,0.5,52,160.15
1593,F4,458.5,0.5,25,160.15
1594,C6,459.0,0.5,61,160.15
1595,A3,459.0,0.5,31,160.15
1596,D6,459.5,11/40,54,160.15
1597,F4,459.5,0.5,28,160.15
1598,E6,459.75,11/40,58,160.15
1599,F6,460.0,11/40,61,160.15
1600,E4,460.0,0.5,31,160.15
1601,E6,460.25,11/40,61,160.15
1602,D6,460.5,11/40,60,160.15
1603,F4,460.5,0.5,28,160.15
1604,C6,460.75,11/40,58,160.15
1605,B-5,461.0,11/40,57,160.15
1606,B-3,461.0,0.5,31,160.15
1607,A5,461.25,11/40,55,160.15
1608,G5,461.5,11/40,54,160.15
1609,G4,461.5,0.5,27,160.15
1610,F5,461.75,0.25,52,160.15
1611,A5,462.0,1.5,62,160.15
1612,C4,462.0,0.5,31,160.15
1613,A4,462.5,0.5,27,160.15
1614,F4,463.0,0.5,31,160.15
1615,B-5,463.5,0.5,56,160.15
1616,A4,463.5,0.5,29,160.15
1617,G5,464.0,1.0,62,160.15
1618,C4,464.0,0.5,31,160.15
1619,B-4,464.5,0.5,27,160.15
1620,F5,465.0,1.0,67,160.15
1621,A4,465.0,0.5,31,160.15
1622,F4,465.5,0.5,24,160.15
1623,E4,466.0,0.5,30,160.15
1624,C6,466.25,0.25,60,160.15
1625,D6,466.5,11/40,65,160.15
1626,E-4,466.5,0.5,26,160.15
1627,C6,466.75,11/40,60,160.15
1628,B-5,467.0,11/40,64,160.15
1629,D4,467.0,0.5,29,160.15
1630,A5,467.25,11/40,62,160.15
1631,B-5,467.5,11/40,60,160.15
1632,C#4,467.5,0.5,31,160.15
1633,G5,467.75,0.25,58,160.15
1634,F5,468.0,1.0,68,160.15
1635,G5,468.0,1/40,58,160.15
1636,D4,468.0,0.5,28,160.15
1637,F4,468.5,0.5,27,160.15
1638,C4,469.0,0.5,38,160.15
1639,C5,469.25,11/40,60,160.15
1640,D5,469.5,11/40,65,160.15
1641,E4,469.5,0.5,32,160.15
1642,C5,469.75,11/40,60,160.15
1643,B-4,470.0,11/40,64,160.15
1644,B3,470.0,0.5,40,160.15
1645,A4,470.25,11/40,62,160.15
1646,B-4,470.5,11/40,60,160.15
1647,G#4,470.5,0.5,34,160.15
1648,G4,470.75,0.25,58,160.15
1649,F4,471.0,0.25,71,160.15
1650,G4,471.0,1/40,58,160.15
1651,C4,471.0,0.5,41,160.15
1652,A4,471.5,0.5,35,160.15
1653,F4,472.0,0.5,38,160.15
1654,A4,472.0,1.0,65,160.15
1655,C5,472.0,1.0,65,160.15
1656,F5,472.0,1.0,65,160.15
1657,A4,472.5,0.5,33,160.15
1658,C4,473.0,0.5,40,160.15
1659,A4,473.5,0.5,35,160.15
1660,F#4,474.0,1.0,71,160.15
1661,C4,474.0,0.5,41,160.15
1662,C5,474.5,0.5,33,160.15
1663,A4,475.0,0.5,43,160.15
1664,G#4,475.0,1.0,65,160.15
1665,C5,475.0,1.0,65,160.15
1666,F#5,475.0,1.0,65,160.15
1667,C5,475.5,0.5,33,160.15
1668,C4,476.0,0.5,45,160.15
1669,B-4,476.5,0.5,38,160.15
1670,C#4,477.0,2.0,43,160.15
1671,F3,477.25,0.25,54,160.15
1672,A3,477.5,0.25,56,160.15
1673,C4,477.75,0.25,59,160.15
1674,F4,478.0,0.5,61,160.15
1675,E-4,479.0,11/40,36,160.15
1676,C4,479.0,0.5,54,160.15
1677,E4,479.0,0.5,54,160.15
1678,C#4,479.25,11/40,36,160.15
1679,C4,479.5,11/40,36,160.15
1680,C#4,479.75,0.25,36,160.15
1681,B-4,480.0,0.5,42,160.15
1682,F2,480.25,0.25,54,160.15
1683,G#4,480.5,61/125,37,160.15
1684,A2,480.5,0.25,56,160.15
1685,C3,480.75,0.25,59,160.15
1686,G#4,481.0,1.0,43,160.15
1687,F3,481.0,0.5,61,160.15
1688,G#4,482.0,1.0,38,160.15
1689,C3,482.0,0.5,54,160.15
1690,E3,482.0,0.5,54,160.15
1691,G#4,483.0,21/40,39,160.15
1692,F3,483.0,0.25,59,160.15
1693,C#5,483.5,21/40,45,160.15
1694,C5,484.0,21/40,44,160.15
1695,F2,484.0,1.0,59,160.15
1696,B4,484.5,21/40,41,160.15
1697,B-4,485.0,21/40,40,160.15
1698,A4,485.5,0.5,38,160.15
1699,G#4,486.0,1.0,41,160.15
1700,A4,486.0,1/40,38,160.15
1701,E-3,486.0,1.0,59,160.15
1702,E-2,487.0,1.0,59,160.15
1703,C#4,489.0,2.0,45,160.15
1704,C#3,489.0,3.0,20,160.15
1705,F3,489.0,0.5,33,160.15
1706,G#3,489.5,0.5,23,160.15
1707,F3,490.0,0.5,27,160.15
1708,G#3,490.5,0.5,22,160.15
1709,E-4,491.0,11/40,42,160.15
1710,F3,491.0,0.5,26,160.15
1711,C#4,491.25,11/40,39,160.15
1712,C4,491.5,11/40,42,160.15
1713,G#3,491.5,0.5,22,160.15
1714,C#4,491.75,0.25,40,160.15
1715,B-4,492.0,0.5,54,160.15
1716,C3,492.0,3.0,20,160.15
1717,F#3,492.0,0.5,36,160.15
1718,A4,492.5,0.5,48,160.15
1719,G#3,492.5,0.5,23,160.15
1720,A4,493.0,1.0,53,160.15
1721,F#3,493.0,0.5,27,160.15
1722,G#3,493.5,0.5,23,160.15
1723,A4,494.0,1.0,47,160.15
1724,F#3,494.0,0.5,27,160.15
1725,G#3,494.5,0.5,24,160.15
1726,B-4,495.0,21/40,50,160.15
1727,C#3,495.0,3.0,20,160.15
1728,F3,495.0,0.5,33,160.15
1729,F5,495.5,21/40,54,160.15
1730,G#3,495.5,0.5,23,160.15
1731,C#5,496.0,21/40,55,160.15
1732,F3,496.0,0.5,27,160.15
1733,C5,496.5,21/40,53,160.15
1734,G#3,496.5,0.5,23,160.15
1735,B-4,497.0,21/40,51,160.15
1736,F3,497.0,0.5,27,160.15
1737,G#4,497.5,0.5,50,160.15
1738,G#3,497.5,0.5,25,160.15
1739,G4,498.0,1.0,50,160.15
1740,G#4,498.0,1/40,50,160.15
1741,C3,498.0,3.0,20,160.15
1742,F#3,498.0,0.5,31,160.15
1743,G#3,498.5,0.5,27,160.15
1744,F#3,499.0,0.5,27,160.15
1745,G#3,499.5,0.5,24,160.15
1746,F#3,500.0,0.5,27,160.15
1747,G#3,500.5,0.5,23,160.15
1748,G#4,501.0,21/40,59,160.15
1749,C#3,501.0,3.0,21,160.15
1750,F3,501.0,0.5,35,160.15
1751,G#5,501.5,21/40,62,160.15
1752,G#3,501.5,0.5,24,160.15
1753,F5,502.0,21/40,61,160.15
1754,F3,502.0,0.5,28,160.15
1755,E-5,502.5,21/40,60,160.15
1756,G#3,502.5,0.5,23,160.15
1757,D5,503.0,21/40,58,160.15
1758,F3,503.0,0.5,27,160.15
1759,C5,503.5,0.5,57,160.15
1760,G#3,503.5,0.5,23,160.15
1761,B4,504.0,1.0,62,160.15
1762,C5,504.0,1/40,57,160.15
1763,C3,504.0,3.0,21,160.15
1764,E-3,504.0,0.5,38,160.15
1765,F#3,504.5,0.5,24,160.15
1766,E-3,505.0,0.5,32,160.15
1767,F#3,505.5,0.5,28,160.15
1768,E-3,506.0,0.5,32,160.15
1769,F#3,506.5,0.5,27,160.15
1770,C5,507.0,21/40,61,160.15
1771,C#3,507.0,3.0,23,160.15
1772,F3,507.0,0.5,37,160.15
1773,E-6,507.5,21/40,64,160.15
1774,B-3,507.5,0.5,32,160.15
1775,C6,508.0,21/40,61,160.15
1776,F3,508.0,0.5,34,160.15
1777,B-5,508.5,21/40,60,160.15
1778,B-3,508.5,0.5,29,160.15
1779,G#5,509.0,21/40,55,160.15
1780,F3,509.0,0.5,30,160.15
1781,G5,509.5,0.5,56,160.15
1782,B-3,509.5,0.5,28,160.15
1783,F#5,510.0,1.0,60,160.15
1784,G5,510.0,1/40,56,160.15
1785,E3,510.0,3.0,23,160.15
1786,B-3,510.0,0.5,37,160.15
1787,C#4,510.5,0.5,30,160.15
1788,B-3,511.0,0.5,30,160.15
1789,C#4,511.5,21/40,27,160.15
1790,B-3,512.0,0.5,30,160.15
1791,C#4,512.5,0.5,26,160.15
1792,G5,513.0,21/40,58,160.15
1793,F3,513.0,3.0,25,160.15
1794,G#3,513.0,0.5,40,160.15
1795,B-5,513.5,21/40,60,160.15
1796,C4,513.5,0.5,28,160.15
1797,G5,514.0,21/40,58,160.15
1798,G#3,514.0,0.5,33,160.15
1799,F5,514.5,21/40,55,160.15
1800,C4,514.5,0.5,28,160.15
1801,E-5,515.0,21/40,53,160.15
1802,G#3,515.0,0.5,36,160.15
1803,D5,515.5,0.5,50,160.15
1804,C4,515.5,0.5,32,160.15
1805,C#5,516.0,1.0,57,160.15
1806,D5,516.0,1/40,50,160.15
1807,G3,516.0,3.0,36,160.15
1808,D4,516.0,0.5,36,160.15
1809,F4,516.5,0.5,29,160.15
1810,D4,517.0,0.5,34,160.15
1811,F4,517.5,21/40,28,160.15
1812,D4,518.0,0.5,35,160.15
1813,F4,518.5,0.5,28,160.15
1814,G#3,519.0,3.0,42,160.15
1815,C4,519.0,0.5,42,160.15
1816,D5,519.25,0.25,46,160.15
1817,C#5,519.5,0.25,49,160.15
1818,E-4,519.5,0.5,26,160.15
1819,D5,519.75,0.25,44,160.15
1820,E5,520.0,0.25,49,160.15
1821,C4,520.0,0.5,38,160.15
1822,D5,520.25,0.25,44,160.15
1823,C#5,520.5,0.25,49,160.15
1824,E-4,520.5,0.5,31,160.15
1825,D5,520.75,0.25,44,160.15
1826,C4,521.0,0.5,38,160.15
1827,D5,521.25,0.25,49,160.15
1828,F#5,521.5,0.25,54,160.15
1829,E-4,521.5,0.5,35,160.15
1830,D5,521.75,0.25,49,160.15
1831,A3,522.0,3.0,41,160.15
1832,C4,522.0,0.5,41,160.15
1833,D5,522.25,0.25,53,160.15
1834,G5,522.5,0.25,57,160.15
1835,D4,522.5,0.5,33,160.15
1836,D5,522.75,0.25,52,160.15
1837,C4,523.0,0.5,37,160.15
1838,D5,523.25,0.25,55,160.15
1839,C6,523.5,0.25,61,160.15
1840,D4,523.5,21/40,28,160.15
1841,D5,523.75,0.25,57,160.15
1842,C4,524.0,0.5,35,160.15
1843,D5,524.25,0.25,57,160.15
1844,B-5,524.5,0.25,64,160.15
1845,D4,524.5,0.5,28,160.15
1846,D5,524.75,0.25,57,160.15
1847,A5,525.0,0.25,64,160.15
1848,B-3,525.0,3.0,22,160.15
1849,D4,525.0,0.5,36,160.15
1850,F#5,525.25,0.25,57,160.15
1851,E5,525.5,0.25,59,160.15
1852,G4,525.5,0.5,29,160.15
1853,D5,525.75,0.25,57,160.15
1854,C#5,526.0,0.25,57,160.15
1855,D4,526.0,0.5,34,160.15
1856,D5,526.25,0.25,59,160.15
1857,E5,526.5,0.25,60,160.15
1858,G4,526.5,0.5,28,160.15
1859,D5,526.75,0.25,56,160.15
1860,D4,527.0,0.5,34,160.15
1861,D5,527.25,0.25,49,160.15
1862,F#5,527.5,0.25,53,160.15
1863,G4,527.5,0.5,27,160.15
1864,D5,527.75,0.25,49,160.15
1865,E-4,528.0,3.0,29,160.15
1866,G4,528.0,0.5,36,160.15
1867,D5,528.25,0.25,52,160.15
1868,G5,528.5,0.25,58,160.15
1869,A4,528.5,0.5,28,160.15
1870,D5,528.75,0.25,54,160.15
1871,G4,529.0,0.5,34,160.15
1872,D5,529.25,0.25,55,160.15
1873,C6,529.5,0.25,61,160.15
1874,A4,529.5,21/40,27,160.15
1875,D5,529.75,0.25,55,160.15
1876,G4,530.0,0.5,34,160.15
1877,D5,530.25,0.25,49,160.15
1878,B-5,530.5,0.25,68,160.15
1879,A4,530.5,0.5,25,160.15
1880,D5,530.75,0.25,62,160.15
1881,A5,531.0,0.25,70,160.15
1882,D4,531.0,1.0,44,160.15
1883,F#4,531.0,1.0,44,160.15
1884,D6,531.25,0.25,60,160.15
1885,A5,531.5,0.25,69,160.15
1886,F#5,531.75,0.25,57,160.15
1887,D5,532.0,0.25,67,160.15
1888,A5,532.25,0.25,55,160.15
1889,F#5,532.5,0.25,61,160.15
1890,D5,532.75,0.25,54,160.15
1891,A4,533.0,0.25,63,160.15
1892,C5,533.0,0.5,47,160.15
1893,D5,533.25,0.25,55,160.15
1894,A4,533.5,0.25,65,160.15
1895,F#4,533.75,0.25,59,160.15
1896,D4,534.0,0.25,85,160.15
1897,B-4,534.0,0.5,51,160.15
1898,F#4,535.0,0.5,58,160.15
1899,A4,535.0,1.0,66,160.15
1900,F#4,535.0,1.0,66,160.15
1901,D5,535.0,1.0,66,160.15
1902,G4,536.0,0.5,54,160.15
1903,D4,537.0,1.0,53,160.15
1904,C5,539.0,0.5,48,160.15
1905,B-4,540.0,0.5,57,160.15
1906,F#4,541.0,0.5,59,160.15
1907,G4,542.0,0.5,54,160.15
1908,D4,543.0,1.0,58,160.15
1909,D6,543.5,0.125,45,160.15
1910,D6,544.0,0.125,49,160.15
1911,D6,544.5,0.125,43,160.15
1912,D6,545.0,0.125,46,160.15
1913,D4,545.25,0.25,47,160.15
1914,D6,545.5,0.125,40,160.15
1915,A3,545.5,0.25,54,160.15
1916,F#3,545.75,0.25,47,160.15
1917,E-6,546.0,21/40,45,160.15
1918,D3,546.0,0.25,69,160.15
1919,D6,546.5,21/40,40,160.15
1920,C6,547.0,21/40,43,160.15
1921,D2,547.0,1.0,59,160.15
1922,B5,547.5,21/40,40,160.15
1923,G#5,548.0,21/40,45,160.15
1924,G5,548.5,0.5,39,160.15
1925,G5,549.0,0.125,41,160.15
1926,G3,549.0,1021/500,34,160.15
1927,G#5,549.125,0.125,39,160.15
1928,G5,549.25,0.25,49,160.15
1929,F5,549.5,479/1000,44,160.15
1930,F5,550.0,1.0,46,160.15
1931,D3,551.0,1.0,30,160.15
1932,B2,552.0,1021/500,34,160.15
1933,D3,554.0,1.0,32,160.15
1934,G3,555.0,1021/500,34,160.15
1935,F5,555.5,0.125,45,160.15
1936,F5,556.0,0.125,48,160.15
1937,F5,556.5,0.125,42,160.15
1938,F5,557.0,0.125,44,160.15
1939,B3,557.0,1.0,36,160.15
1940,F5,557.5,0.125,40,160.15
1941,G5,558.0,21/40,45,160.15
1942,D4,558.0,1.0,38,160.15
1943,F5,558.5,21/40,40,160.15
1944,E-5,559.0,21/40,40,160.15
1945,D5,559.5,21/40,40,160.15
1946,C5,560.0,21/40,45,160.15
1947,B4,560.5,0.5,39,160.15
1948,C5,561.0,1021/500,48,160.15
1949,G3,561.0,1021/500,34,160.15
1950,G4,563.0,1.0,42,160.15
1951,D3,563.0,1.0,30,160.15
1952,E-4,564.0,1021/500,48,160.15
1953,B2,564.0,1021/500,34,160.15
1954,G4,566.0,1.0,45,160.15
1955,D3,566.0,1.0,32,160.15
1956,C5,567.0,1021/500,50,160.15
1957,G3,567.0,1021/500,34,160.15
1958,E-5,569.0,1.0,52,160.15
1959,B3,569.0,1.0,36,160.15
1960,G5,570.0,1.0,56,160.15
1961,D4,570.0,1.0,38,160.15
1962,E5,573.0,1021/500,58,160.15
1963,C5,575.0,1.0,52,160.15
1964,G4,576.0,1021/500,55,160.15
1965,C5,578.0,1.0,49,160.15
1966,E5,579.0,1021/500,53,160.15
1967,G3,579.5,0.125,39,160.15
1968,G3,580.0,0.125,42,160.15
1969,G3,580.5,0.125,37,160.15
1970,G5,581.0,1.0,54,160.15
1971,G3,581.0,0.125,39,160.15
1972,G3,581.5,0.125,35,160.15
1973,B-5,582.0,1.0,58,160.15
1974,G#3,582.0,21/40,39,160.15
1975,G3,582.5,21/40,35,160.15
1976,F3,583.0,21/40,37,160.15
1977,E-3,583.5,21/40,35,160.15
1978,D3,584.0,21/40,39,160.15
1979,C3,584.5,0.5,34,160.15
1980,C3,585.0,0.5,35,160.15
1981,G#5,585.5,0.125,45,160.15
1982,B-2,585.5,0.5,38,160.15
1983,G#5,586.0,0.125,49,160.15
1984,B-2,586.0,1.0,39,160.15
1985,G#5,586.5,0.125,43,160.15
1986,G#5,587.0,0.125,46,160.15
1987,G#5,587.5,0.125,40,160.15
1988,B-5,588.0,21/40,45,160.15
1989,G#5,588.5,21/40,40,160.15
1990,G5,589.0,21/40,43,160.15
1991,F5,589.5,21/40,40,160.15
1992,E-5,590.0,21/40,45,160.15
1993,D5,590.5,0.5,39,160.15
1994,G5,591.5,0.125,45,160.15
1995,B-3,591.5,0.125,39,160.15
1996,G5,592.0,0.125,49,160.15
1997,B-3,592.0,0.125,41,160.15
1998,G5,592.5,0.125,43,160.15
1999,B-3,592.5,0.125,36,160.15
2000,G5,593.0,0.125,46,160.15
2001,B-3,593.0,0.125,38,160.15
2002,G5,593.5,0.125,40,160.15
2003,B-3,593.5,0.125,35,160.15
2004,G#5,594.0,21/40,45,160.15
2005,C4,594.0,21/40,39,160.15
2006,G5,594.5,21/40,40,160.15
2007,B-3,594.5,21/40,35,160.15
2008,F5,595.0,21/40,43,160.15
2009,G#3,595.0,21/40,35,160.15
2010,E-5,595.5,21/40,40,160.15
2011,G3,595.5,21/40,35,160.15
2012,D5,596.0,21/40,45,160.15
2013,F3,596.0,21/40,39,160.15
2014,C5,596.5,0.5,39,160.15
2015,E3,596.5,0.5,34,160.15
2016,F3,597.0,1021/500,40,160.15
2017,F5,597.5,0.125,45,160.15
2018,F5,598.0,0.125,49,160.15
2019,F5,598.5,0.125,43,160.15
2020,F5,599.0,0.125,46,160.15
2021,F5,599.5,0.125,40,160.15
2022,G5,600.0,21/40,51,160.15
2023,B-3,600.0,3.0,28,160.15
2024,D4,600.0,1.0,31,160.15
2025,F4,600.0,1.0,31,160.15
2026,F5,600.5,21/40,50,160.15
2027,E-5,601.0,21/40,49,160.15
2028,E-4,601.0,1.0,31,160.15
2029,G4,601.0,1.0,31,160.15
2030,D5,601.5,21/40,48,160.15
2031,C5,602.0,21/40,47,160.15
2032,F4,602.0,1.0,31,160.15
2033,A4,602.0,1.0,31,160.15
2034,B4,602.5,0.5,47,160.15
2035,F5,603.0,21/40,56,160.15
2036,E-4,603.0,1.0,31,160.15
2037,G4,603.0,1.0,31,160.15
2038,E-5,603.5,21/40,54,160.15
2039,D5,604.0,21/40,52,160.15
2040,C5,604.5,21/40,51,160.15
2041,B-4,605.0,21/40,49,160.15
2042,A4,605.5,0.5,47,160.15
2043,C6,606.0,21/40,60,160.15
2044,G#3,606.0,3.0,28,160.15
2045,C4,606.0,1.0,31,160.15
2046,E-4,606.0,1.0,31,160.15
2047,B-5,606.5,21/40,58,160.15
2048,A5,607.0,21/40,56,160.15
2049,D4,607.0,1.0,31,160.15
2050,F4,607.0,1.0,31,160.15
2051,G5,607.5,21/40,54,160.15
2052,F5,608.0,21/40,54,160.15
2053,E-4,608.0,1.0,31,160.15
2054,G4,608.0,1.0,31,160.15
2055,E5,608.5,0.5,57,160.15
2056,F5,609.0,1.0,61,160.15
2057,D4,609.0,1.0,31,160.15
2058,F4,609.0,1.0,31,160.15
2059,A4,611.0,1.0,50,160.15
2060,E-5,611.0,1.0,50,160.15
2061,G3,612.0,3.0,28,160.15
2062,B-4,612.0,1.0,52,160.15
2063,C#5,612.0,1.0,52,160.15
2064,B3,612.0,1.0,31,160.15
2065,D4,612.0,1.0,31,160.15
2066,C4,613.0,1.0,31,160.15
2067,E-4,613.0,1.0,31,160.15
2068,C#5,614.0,1.0,50,160.15
2069,B-5,614.0,1.0,50,160.15
2070,D4,614.0,1.0,31,160.15
2071,F4,614.0,1.0,31,160.15
2072,C5,615.0,1.0,53,160.15
2073,A5,615.0,1.0,53,160.15
2074,C4,615.0,1.0,34,160.15
2075,E-4,615.0,1.0,34,160.15
2076,E-4,617.0,1.0,50,160.15
2077,A4,617.0,1.0,50,160.15
2078,F3,617.0,1.0,34,160.15
2079,E-4,617.0,1.0,34,160.15
2080,C#4,618.0,1.0,52,160.15
2081,B-4,618.0,1.0,52,160.15
2082,G3,618.0,1.0,34,160.15
2083,D4,618.0,1.0,34,160.15
2084,B-3,620.0,1.0,50,160.15
2085,C#4,620.0,1.0,50,160.15
2086,E-4,620.0,1.0,34,160.15
2087,G4,620.0,1.0,34,160.15
2088,A3,621.0,0.5,52,160.15
2089,C4,621.0,0.5,52,160.15
2090,F4,621.5,0.125,45,160.15
2091,F4,621.5,0.125,42,160.15
2092,F4,622.0,0.125,49,160.15
2093,F4,622.0,0.125,45,160.15
2094,F4,622.5,0.125,43,160.15
2095,F4,622.5,0.125,39,160.15
2096,F4,623.0,0.125,46,160.15
2097,F4,623.0,0.125,41,160.15
2098,F4,623.5,0.125,40,160.15
2099,F4,623.5,0.125,38,160.15
2100,E4,624.0,0.5,44,160.15
2101,F#4,624.0,21/40,42,160.15
2102,F4,624.5,0.5,40,160.15
2103,F4,624.5,21/40,38,160.15
2104,G4,625.0,0.5,45,160.15
2105,E-4,625.0,21/40,38,160.15
2106,F4,625.5,0.5,40,160.15
2107,C#4,625.5,21/40,38,160.15
2108,B-4,626.0,0.5,43,160.15
2109,C4,626.0,21/40,42,160.15
2110,A4,626.5,0.5,40,160.15
2111,B-3,626.5,0.5,37,160.15
2112,D5,627.0,0.5,44,160.15
2113,C5,627.5,0.5,40,160.15
2114,F3,627.5,0.125,42,160.15
2115,E-5,628.0,0.5,45,160.15
2116,F3,628.0,0.125,45,160.15
2117,D5,628.5,0.5,40,160.15
2118,F3,628.5,0.125,39,160.15
2119,G5,629.0,0.5,45,160.15
2120,F3,629.0,0.125,41,160.15
2121,F5,629.5,0.375,40,160.15
2122,F3,629.5,0.125,38,160.15
2123,F5,630.0,1.5,45,160.15
2124,F#3,630.0,21/40,42,160.15
2125,F3,630.5,21/40,38,160.15
2126,E-3,631.0,21/40,38,160.15
2127,E5,631.5,0.5,40,160.15
2128,C#3,631.5,21/40,38,160.15
2129,E-5,632.0,0.5,43,160.15
2130,C3,632.0,21/40,42,160.15
2131,C5,632.5,0.5,40,160.15
2132,B-2,632.5,0.5,37,160.15
2133,B-4,633.0,2.0,48,160.15
2134,F2,633.0,1.0,42,160.15
2135,F4,635.0,1.0,41,160.15
2136,D4,636.0,2.0,48,160.15
2137,F3,636.0,3.0,32,160.15
2138,E-4,636.0,3.0,32,160.15
2139,A3,636.0,3.0,32,160.15
2140,F4,638.0,1.0,44,160.15
2141,B-4,639.0,2.0,48,160.15
2142,D5,641.0,1.0,51,160.15
2143,F5,642.0,2.0,56,160.15
2144,F3,643.0,3.0,32,160.15
2145,E-4,643.0,3.0,32,160.15
2146,A3,643.0,3.0,32,160.15
2147,B-5,644.0,0.5,58,160.15
2148,D5,644.5,0.5,51,160.15
2149,F5,645.0,21/40,56,160.15
2150,E-5,645.5,21/40,52,160.15
2151,D5,646.0,21/40,51,160.15
2152,C5,646.5,21/40,49,160.15
2153,B-4,647.0,21/40,48,160.15
2154,F3,647.0,1.0,32,160.15
2155,E-4,647.0,1.0,32,160.15
2156,A3,647.0,1.0,32,160.15
2157,A4,647.5,0.5,47,160.15
2158,G4,648.0,21/40,50,160.15
2159,F4,648.5,21/40,44,160.15
2160,E4,649.0,21/40,44,160.15
2161,F4,649.5,21/40,45,160.15
2162,G4,650.0,21/40,47,160.15
2163,B-3,650.0,2.0,33,160.15
2164,A4,650.5,0.5,50,160.15
2165,B-4,651.0,0.125,50,160.15
2166,C5,651.375,0.125,45,160.15
2167,B-4,651.5,0.25,49,160.15
2168,A4,651.75,0.25,46,160.15
2169,B-4,652.0,0.125,50,160.15
2170,F3,652.0,1.0,31,160.15
2171,C5,652.5,0.125,47,160.15
2172,D5,653.0,0.125,49,160.15
2173,D3,653.0,2.0,37,160.15
2174,E-5,653.5,0.125,51,160.15
2175,E5,654.0,21/40,53,160.15
2176,F5,654.5,21/40,50,160.15
2177,G5,655.0,21/40,55,160.15
2178,F3,655.0,1.0,38,160.15
2179,F5,655.5,0.5,50,160.15
2180,B-5,656.0,0.5,59,160.15
2181,B-3,656.0,2.0,41,160.15
2182,D5,656.5,0.5,50,160.15
2183,F5,657.0,21/40,57,160.15
2184,E-5,657.5,21/40,55,160.15
2185,D5,658.0,21/40,53,160.15
2186,D4,658.0,1.0,43,160.15
2187,C5,658.5,21/40,51,160.15
2188,B-4,659.0,21/40,49,160.15
2189,F4,659.0,2.0,43,160.15
2190,A4,659.5,0.5,47,160.15
2191,G4,660.0,21/40,50,160.15
2192,F4,660.5,21/40,43,160.15
2193,E4,661.0,21/40,50,160.15
2194,F4,661.5,21/40,43,160.15
2195,G4,662.0,21/40,50,160.15
2196,E-4,662.0,3.0,32,160.15
2197,F3,662.0,3.0,32,160.15
2198,C4,662.0,3.0,32,160.15
2199,A4,662.5,0.5,45,160.15
2200,B-4,663.0,0.25,50,160.15
2201,B-4,664.0,0.25,48,160.15
2202,D5,665.0,0.25,48,160.15
2203,B-4,666.0,1.0,50,160.15
2204,B-4,667.75,0.125,44,160.15
2205,C5,668.0,11/40,50,160.15
2206,E-4,668.0,3.0,32,160.15
2207,F3,668.0,3.0,32,160.15
2208,C4,668.0,3.0,32,160.15
2209,B-4,668.25,11/40,43,160.15
2210,A4,668.5,11/40,45,160.15
2211,B-4,668.75,0.25,42,160.15
2212,G5,669.0,1.0,56,160.15
2213,B-4,669.0,1/40,42,160.15
2214,B-4,670.75,0.125,44,160.15
2215,C5,671.0,11/40,50,160.15
2216,B-3,671.0,1.0,35,160.15
2217,D4,671.0,1.0,35,160.15
2218,B-4,671.25,11/40,43,160.15
2219,A4,671.5,11/40,45,160.15
2220,B-4,671.75,0.25,42,160.15
2221,F5,672.0,1.0,55,160.15
2222,B-4,672.0,1/40,42,160.15
2223,B-4,673.75,0.125,44,160.15
2224,C5,674.0,11/40,50,160.15
2225,B-4,674.25,11/40,43,160.15
2226,A4,674.5,11/40,45,160.15
2227,B-4,674.75,0.25,42,160.15
2228,C5,675.0,1.0,52,160.15
2229,B-4,675.0,1/40,42,160.15
2230,F5,676.0,1.0,49,160.15
2231,E-5,677.0,1.0,48,160.15
2232,F3,677.0,3.0,32,160.15
2233,C4,677.0,3.0,32,160.15
2234,E-4,677.0,3.0,32,160.15
2235,C#5,678.0,1.0,55,160.15
2236,D5,679.0,0.5,49,160.15
2237,B-4,679.75,0.125,44,160.15
2238,C5,680.0,11/40,50,160.15
2239,B-4,680.25,11/40,43,160.15
2240,A4,680.5,11/40,45,160.15
2241,B-4,680.75,0.25,42,160.15
2242,G5,681.0,1.0,56,160.15
2243,B-4,681.0,1/40,42,160.15
2244,B-4,682.75,0.125,44,160.15
2245,C5,683.0,11/40,50,160.15
2246,F3,683.0,3.0,32,160.15
2247,C4,683.0,3.0,32,160.15
2248,E-4,683.0,3.0,32,160.15
2249,B-4,683.25,11/40,43,160.15
2250,A4,683.5,11/40,45,160.15
2251,B-4,683.75,0.25,42,160.15
2252,F5,684.0,1.0,55,160.15
2253,B-4,684.0,1/40,42,160.15
2254,B-4,685.75,0.125,44,160.15
2255,C5,686.0,11/40,50,160.15
2256,B-3,686.0,0.25,37,160.15
2257,D4,686.0,0.25,37,160.15
2258,B-4,686.25,11/40,43,160.15
2259,A4,686.5,11/40,45,160.15
2260,B-4,686.75,0.25,42,160.15
2261,C5,687.0,1.0,52,160.15
2262,B-4,687.0,1/40,42,160.15
2263,D4,687.0,0.25,35,160.15
2264,B-3,687.0,0.25,35,160.15
2265,E-5,688.0,1.0,49,160.15
2266,B-3,688.0,0.25,35,160.15
2267,F4,688.0,0.25,35,160.15
2268,A4,689.0,1.0,48,160.15
2269,B-3,689.0,1.0,37,160.15
2270,D4,689.0,1.0,37,160.15
2271,B-4,690.0,1.0,55,160.15
2272,D5,693.0,0.25,68,160.15
2273,B-4,693.0,0.25,68,160.15
2274,G5,693.0,0.25,68,160.15
2275,B-3,693.0,1.0,27,160.15
2276,E-3,693.0,1.0,27,160.15
2277,G3,693.0,1.0,27,160.15
2278,G4,694.0,0.25,64,160.15
2279,A4,696.0,0.25,67,160.15
2280,F#4,696.0,0.25,67,160.15
2281,D5,696.0,0.25,67,160.15
2282,D3,696.0,1.0,27,160.15
2283,F3,696.0,1.0,27,160.15
2284,B-3,696.0,1.0,27,160.15
2285,D4,697.0,0.25,67,160.15
2286,A3,698.0,3.0,29,160.15
2287,F4,698.0,3.0,34,160.15
2288,E-4,699.0,2.0,43,160.15
2289,F4,701.0,11/40,36,160.15
2290,B-3,701.0,1.0,34,160.15
2291,F4,701.0,1.0,34,160.15
2292,E-4,701.25,11/40,36,160.15
2293,D4,701.5,11/40,36,160.15
2294,E-4,701.75,0.25,36,160.15
2295,C5,702.0,0.5,42,160.15
2296,B-4,702.5,0.5,37,160.15
2297,B-4,703.0,1.0,43,160.15
2298,B-4,704.0,1.0,38,160.15
2299,B-4,705.0,21/40,39,160.15
2300,E-3,705.0,1.0,27,160.15
2301,G3,705.0,1.0,27,160.15
2302,B-3,705.0,1.0,27,160.15
2303,E-5,705.5,21/40,45,160.15
2304,D5,706.0,21/40,44,160.15
2305,C#5,706.5,21/40,42,160.15
2306,C5,707.0,21/40,40,160.15
2307,B4,707.5,0.5,38,160.15
2308,B-4,708.0,1.0,41,160.15
2309,B4,708.0,1/40,38,160.15
2310,D3,708.0,1.0,27,160.15
2311,F3,708.0,1.0,27,160.15
2312,B-3,708.0,1.0,27,160.15
2313,F3,710.0,3.0,29,160.15
2314,A3,710.0,1.0,34,160.15
2315,E-4,711.0,2.0,45,160.15
2316,C4,711.0,1.0,31,160.15
2317,E-4,712.0,1.0,29,160.15
2318,F4,713.0,11/40,42,160.15
2319,D4,713.0,1.0,31,160.15
2320,B-3,713.0,1.0,31,160.15
2321,E-4,713.25,11/40,39,160.15
2322,D4,713.5,11/40,42,160.15
2323,E-4,713.75,0.25,40,160.15
2324,C5,714.0,0.5,54,160.15
2325,B4,714.5,0.5,48,160.15
2326,B4,715.0,1.0,53,160.15
2327,B4,716.0,1.0,47,160.15
2328,G3,716.0,0.25,73,160.15
2329,C5,717.0,21/40,50,160.15
2330,G2,717.0,0.25,66,160.15
2331,G5,717.5,21/40,58,160.15
2332,E-5,718.0,21/40,56,160.15
2333,D5,718.5,21/40,54,160.15
2334,C5,719.0,21/40,51,160.15
2335,D3,719.0,0.25,73,160.15
2336,B-4,719.5,0.5,49,160.15
2337,A4,720.0,1.0,50,160.15
2338,B-4,720.0,1/40,49,160.15
2339,D2,720.0,0.25,66,160.15
2340,E-3,722.0,3.0,20,160.15
2341,G3,722.0,0.5,33,160.15
2342,B-3,722.5,0.5,23,160.15
2343,B-4,723.0,21/40,59,160.15
2344,G3,723.0,0.5,27,160.15
2345,D6,723.5,21/40,62,160.15
2346,B-3,723.5,0.5,22,160.15
2347,B-5,724.0,21/40,61,160.15
2348,G3,724.0,0.5,26,160.15
2349,A5,724.5,21/40,60,160.15
2350,B-3,724.5,0.5,22,160.15
2351,G5,725.0,21/40,58,160.15
2352,D3,725.0,3.0,20,160.15
2353,G#3,725.0,0.5,36,160.15
2354,F5,725.5,0.5,57,160.15
2355,B-3,725.5,0.5,23,160.15
2356,E5,726.0,1.0,62,160.15
2357,F5,726.0,1/40,57,160.15
2358,G#3,726.0,0.5,27,160.15
2359,B-3,726.5,0.5,23,160.15
2360,G#3,727.0,0.5,27,160.15
2361,B-3,727.5,0.5,24,160.15
2362,E-3,728.0,3.0,20,160.15
2363,G3,728.0,0.5,33,160.15
2364,B-3,728.5,0.5,23,160.15
2365,G3,729.0,0.5,27,160.15
2366,F5,729.25,0.25,46,160.15
2367,E5,729.5,0.25,49,160.15
2368,B-3,729.5,0.5,23,160.15
2369,F5,729.75,0.25,44,160.15
2370,G5,730.0,0.25,49,160.15
2371,G3,730.0,0.5,27,160.15
2372,F5,730.25,0.25,44,160.15
2373,E5,730.5,0.25,49,160.15
2374,B-3,730.5,0.5,25,160.15
2375,F5,730.75,0.25,44,160.15
2376,D3,731.0,3.0,20,160.15
2377,G#3,731.0,0.5,33,160.15
2378,F5,731.25,0.25,49,160.15
2379,A5,731.5,0.25,54,160.15
2380,B-3,731.5,0.5,27,160.15
2381,F5,731.75,0.25,49,160.15
2382,G#3,732.0,0.5,27,160.15
2383,F5,732.25,0.25,53,160.15
2384,B-5,732.5,0.25,57,160.15
2385,B-3,732.5,0.5,24,160.15
2386,F5,732.75,0.25,52,160.15
2387,G#3,733.0,0.5,27,160.15
2388,F5,733.25,0.25,55,160.15
2389,E-6,733.5,0.25,61,160.15
2390,B-3,733.5,0.5,23,160.15
2391,F5,733.75,0.25,57,160.15
2392,E-3,734.0,3.0,21,160.15
2393,G3,734.0,0.5,35,160.15
2394,F5,734.25,0.25,57,160.15
2395,D6,734.5,0.25,64,160.15
2396,B-3,734.5,0.5,24,160.15
2397,F5,734.75,0.25,57,160.15
2398,C6,735.0,0.25,65,160.15
2399,G3,735.0,0.5,28,160.15
2400,A5,735.25,0.25,60,160.15
2401,G5,735.5,0.25,65,160.15
2402,B-3,735.5,0.5,23,160.15
2403,F5,735.75,0.25,60,160.15
2404,E5,736.0,0.25,57,160.15
2405,G3,736.0,0.5,27,160.15
2406,F5,736.25,0.25,59,160.15
2407,G5,736.5,0.25,60,160.15
2408,B-3,736.5,0.5,23,160.15
2409,F5,736.75,0.25,56,160.15
2410,D3,737.0,3.0,21,160.15
2411,F3,737.0,0.5,38,160.15
2412,F5,737.25,0.25,49,160.15
2413,A5,737.5,0.25,53,160.15
2414,G#3,737.5,0.5,24,160.15
2415,F5,737.75,0.25,49,160.15
2416,F3,738.0,0.5,32,160.15
2417,F5,738.25,0.25,52,160.15
2418,B-5,738.5,0.25,58,160.15
2419,G#3,738.5,0.5,28,160.15
2420,F5,738.75,0.25,54,160.15
2421,F3,739.0,0.5,32,160.15
2422,F5,739.25,0.25,55,160.15
2423,E-6,739.5,0.25,61,160.15
2424,G#3,739.5,0.5,27,160.15
2425,F5,739.75,0.25,55,160.15
2426,E-3,740.0,3.0,23,160.15
2427,G3,740.0,0.5,37,160.15
2428,F5,740.25,0.25,49,160.15
2429,D6,740.5,0.25,68,160.15
2430,C4,740.5,0.5,32,160.15
2431,F5,740.75,0.25,62,160.15
2432,C6,741.0,0.25,73,160.15
2433,G3,741.0,0.5,34,160.15
2434,F6,741.25,0.25,62,160.15
2435,C6,741.5,0.25,69,160.15
2436,C4,741.5,0.5,29,160.15
2437,A5,741.75,0.25,57,160.15
2438,F5,742.0,0.25,67,160.15
2439,G3,742.0,0.5,30,160.15
2440,C6,742.25,0.25,55,160.15
2441,A5,742.5,0.25,61,160.15
2442,C4,742.5,0.5,28,160.15
2443,F5,742.75,0.25,54,160.15
2444,C5,743.0,0.25,63,160.15
2445,F#3,743.0,3.0,23,160.15
2446,C4,743.0,0.5,37,160.15
2447,F5,743.25,0.25,55,160.15
2448,C5,743.5,0.25,65,160.15
2449,E-4,743.5,0.5,30,160.15
2450,A4,743.75,0.25,59,160.15
2451,F4,744.0,0.25,85,160.15
2452,C4,744.0,0.5,30,160.15
2453,E-4,744.5,21/40,27,160.15
2454,C4,745.0,0.5,30,160.15
2455,C5,745.0,1.0,66,160.15
2456,A4,745.0,1.0,66,160.15
2457,F5,745.0,1.0,66,160.15
2458,E-4,745.5,0.5,26,160.15
2459,G3,746.0,3.0,27,160.15
2460,B-3,746.0,0.5,44,160.15
2461,D4,746.5,0.5,30,160.15
2462,B-3,747.0,0.5,36,160.15
2463,D4,747.5,0.5,30,160.15
2464,B-3,748.0,0.5,36,160.15
2465,D4,748.5,0.5,33,160.15
2466,C4,749.0,3.0,27,160.15
2467,G4,749.0,0.5,44,160.15
2468,B-4,749.5,0.5,36,160.15
2469,G4,750.0,0.5,36,160.15
2470,B-4,750.5,21/40,31,160.15
2471,G4,751.0,0.5,36,160.15
2472,B-4,751.5,0.5,30,160.15
2473,F4,752.0,1.0,44,160.15
2474,A4,752.0,1.0,44,160.15
2475,F5,753.5,0.125,45,160.15
2476,F5,754.0,0.125,49,160.15
2477,E-5,754.0,0.5,46,160.15
2478,F5,754.5,0.125,43,160.15
2479,F5,755.0,0.125,46,160.15
2480,D5,755.0,0.5,52,160.15
2481,F5,755.5,0.125,40,160.15
2482,G5,756.0,21/40,45,160.15
2483,A4,756.0,0.5,56,160.15
2484,F5,756.5,21/40,40,160.15
2485,E-5,757.0,21/40,43,160.15
2486,B-4,757.0,0.5,53,160.15
2487,D5,757.5,21/40,40,160.15
2488,C5,758.0,21/40,45,160.15
2489,F4,758.0,1.0,59,160.15
2490,B-4,758.5,0.375,39,160.15
2491,B-4,759.0,0.125,41,160.15
2492,C5,759.125,0.125,39,160.15
2493,B-4,759.25,0.25,49,160.15
2494,A4,759.5,0.5,44,160.15
2495,A4,760.0,1.0,46,160.15
2496,E-5,760.0,0.5,51,160.15
2497,D5,761.0,0.5,57,160.15
2498,A4,762.0,0.5,59,160.15
2499,B-4,763.0,0.5,54,160.15
2500,F4,764.0,1.0,62,160.15
2501,E-5,765.5,0.125,45,160.15
2502,E-5,766.0,0.125,48,160.15
2503,F4,766.25,0.25,47,160.15
2504,E-5,766.5,0.125,42,160.15
2505,C4,766.5,0.25,54,160.15
2506,A3,766.75,0.25,47,160.15
2507,E-5,767.0,0.125,44,160.15
2508,F3,767.0,0.25,69,160.15
2509,E-5,767.5,0.125,40,160.15
2510,F5,768.0,21/40,45,160.15
2511,F2,768.0,1.0,59,160.15
2512,E-5,768.5,21/40,40,160.15
2513,D5,769.0,21/40,40,160.15
2514,C5,769.5,21/40,40,160.15
2515,B-4,770.0,21/40,45,160.15
2516,B-3,770.0,1021/500,34,160.15
2517,A4,770.5,0.5,39,160.15
2518,B-4,771.0,1.0,47,160.15
2519,F3,772.0,1.0,30,160.15
2520,D5,772.5,21/40,47,160.15
2521,C5,773.0,21/40,45,160.15
2522,D3,773.0,1021/500,34,160.15
2523,B-4,773.5,0.5,40,160.15
2524,A4,774.0,1.0,47,160.15
2525,B-4,774.0,1/40,40,160.15
2526,F3,775.0,1.0,32,160.15
2527,G5,775.5,21/40,52,160.15
2528,F5,776.0,21/40,47,160.15
2529,B-3,776.0,1021/500,34,160.15
2530,A4,776.5,0.5,42,160.15
2531,B-4,777.0,1.0,47,160.15
2532,A4,777.0,1/40,42,160.15
2533,D4,778.0,1.0,36,160.15
2534,D5,778.5,21/40,47,160.15
2535,C5,779.0,21/40,45,160.15
2536,F4,779.0,1.0,38,160.15
2537,B-4,779.5,0.5,40,160.15
2538,A4,780.0,1.0,47,160.15
2539,B-4,780.0,1/40,40,160.15
2540,F#5,781.5,21/40,52,160.15
2541,F5,782.0,21/40,47,160.15
2542,E-3,782.0,1021/500,34,160.15
2543,A4,782.5,0.5,42,160.15
2544,B-4,783.0,1.0,47,160.15
2545,A4,783.0,1/40,42,160.15
2546,C3,784.0,1.0,30,160.15
2547,F5,784.5,21/40,55,160.15
2548,C#5,785.0,21/40,53,160.15
2549,A2,785.0,1021/500,34,160.15
2550,C5,785.5,0.5,50,160.15
2551,B4,786.0,1.0,56,160.15
2552,C5,786.0,1/40,50,160.15
2553,C3,787.0,1.0,32,160.15
2554,G#5,787.5,21/40,58,160.15
2555,G5,788.0,21/40,52,160.15
2556,E-3,788.0,1021/500,34,160.15
2557,B4,788.5,0.5,48,160.15
2558,D5,789.0,21/40,56,160.15
2559,C5,789.5,21/40,51,160.15
2560,F5,790.0,21/40,55,160.15
2561,A3,790.0,1.0,36,160.15
2562,E5,790.5,21/40,51,160.15
2563,E-5,791.0,21/40,50,160.15
2564,C4,791.0,1.0,38,160.15
2565,D5,791.5,0.5,49,160.15
2566,C5,792.0,0.75,54,160.15
2567,D5,792.75,0.25,48,160.15
2568,B-4,793.0,1.0,54,160.15
2569,A4,794.0,167/1000,50,160.15
2570,D4,794.0,0.5,35,160.15
2571,B-4,794.167,167/1000,44,160.15
2572,A4,794.333,167/1000,50,160.15
2573,B-4,794.5,0.125,44,160.15
2574,F4,794.5,0.5,28,160.15
2575,A4,794.625,0.125,50,160.15
2576,G4,794.75,0.125,42,160.15
2577,A4,794.875,0.125,45,160.15
2578,B-4,795.0,0.25,49,160.15
2579,D4,795.0,0.5,35,160.15
2580,F4,795.25,0.25,46,160.15
2581,E4,795.5,0.25,49,160.15
2582,F4,795.5,0.5,25,160.15
2583,F4,795.75,0.25,44,160.15
2584,G4,796.0,0.25,49,160.15
2585,D4,796.0,0.5,32,160.15
2586,F4,796.25,0.25,44,160.15
2587,E4,796.5,0.25,49,160.15
2588,F4,796.5,0.5,24,160.15
2589,F4,796.75,0.25,44,160.15
2590,E-4,797.0,0.25,49,160.15
2591,E-4,797.0,0.5,35,160.15
2592,F4,797.25,0.25,49,160.15
2593,D4,797.5,0.25,54,160.15
2594,F4,797.5,0.5,31,160.15
2595,F4,797.75,0.25,49,160.15
2596,C4,798.0,0.25,49,160.15
2597,E-4,798.0,0.5,35,160.15
2598,F4,798.25,0.25,46,160.15
2599,E4,798.5,0.25,49,160.15
2600,F4,798.5,0.5,26,160.15
2601,F4,798.75,0.25,44,160.15
2602,G4,799.0,0.25,49,160.15
2603,E-4,799.0,0.5,33,160.15
2604,F4,799.25,0.25,44,160.15
2605,E4,799.5,0.25,49,160.15
2606,F4,799.5,0.5,29,160.15
2607,F4,799.75,0.25,44,160.15
2608,E-5,800.0,0.25,49,160.15
2609,D4,800.0,0.5,35,160.15
2610,F4,800.25,0.25,49,160.15
2611,E-5,800.5,0.25,54,160.15
2612,F4,800.5,0.5,30,160.15
2613,F4,800.75,0.25,49,160.15
2614,D5,801.0,0.25,49,160.15
2615,D4,801.0,0.5,32,160.15
2616,F5,801.25,0.25,46,160.15
2617,E5,801.5,0.25,49,160.15
2618,F4,801.5,0.5,24,160.15
2619,F5,801.75,0.25,44,160.15
2620,G5,802.0,0.25,49,160.15
2621,D4,802.0,0.5,32,160.15
2622,F5,802.25,0.25,44,160.15
2623,E5,802.5,0.25,49,160.15
2624,F4,802.5,0.5,25,160.15
2625,F5,802.75,0.25,44,160.15
2626,E-5,803.0,0.25,49,160.15
2627,E-4,803.0,0.5,35,160.15
2628,F5,803.25,0.25,49,160.15
2629,D5,803.5,0.25,54,160.15
2630,F4,803.5,0.5,31,160.15
2631,F5,803.75,0.25,49,160.15
2632,C5,804.0,0.25,49,160.15
2633,E-4,804.0,0.5,35,160.15
2634,F5,804.25,0.25,46,160.15
2635,E5,804.5,0.25,49,160.15
2636,F4,804.5,0.5,26,160.15
2637,F5,804.75,0.25,44,160.15
2638,G5,805.0,0.25,49,160.15
2639,E-4,805.0,0.5,33,160.15
2640,F5,805.25,0.25,44,160.15
2641,E5,805.5,0.25,49,160.15
2642,F4,805.5,0.5,29,160.15
2643,F5,805.75,0.25,44,160.15
2644,E-6,806.0,0.25,49,160.15
2645,C#4,806.0,0.5,35,160.15
2646,F5,806.25,0.25,49,160.15
2647,E-6,806.5,0.25,54,160.15
2648,F4,806.5,0.5,30,160.15
2649,F5,806.75,0.25,49,160.15
2650,D6,807.0,0.25,49,160.15
2651,C#4,807.0,0.5,32,160.15
2652,F5,807.25,0.25,46,160.15
2653,E5,807.5,0.25,49,160.15
2654,F4,807.5,0.5,28,160.15
2655,F5,807.75,0.25,44,160.15
2656,G5,808.0,0.25,49,160.15
2657,C#4,808.0,0.5,38,160.15
2658,F5,808.25,0.25,44,160.15
2659,E5,808.5,0.25,49,160.15
2660,F4,808.5,0.5,31,160.15
2661,F5,808.75,0.25,44,160.15
2662,G#5,809.0,0.25,49,160.15
2663,G3,809.0,3.0,40,160.15
2664,D4,809.0,0.5,40,160.15
2665,F5,809.25,0.25,49,160.15
2666,E-5,809.5,0.25,54,160.15
2667,F4,809.5,0.5,34,160.15
2668,F5,809.75,0.25,49,160.15
2669,D5,810.0,0.25,49,160.15
2670,D4,810.0,0.5,38,160.15
2671,G5,810.25,0.25,46,160.15
2672,F#5,810.5,0.25,49,160.15
2673,F4,810.5,0.5,32,160.15
2674,G5,810.75,0.25,44,160.15
2675,A5,811.0,0.25,49,160.15
2676,D4,811.0,0.5,39,160.15
2677,G5,811.25,0.25,44,160.15
2678,F#5,811.5,0.25,52,160.15
2679,F4,811.5,0.5,32,160.15
2680,G5,811.75,0.25,44,160.15
2681,F6,812.0,0.25,55,160.15
2682,C4,812.0,1.0,39,160.15
2683,E-4,812.0,1.0,39,160.15
2684,G5,812.25,0.25,49,160.15
2685,F6,812.5,0.25,57,160.15
2686,G5,812.75,0.25,49,160.15
2687,E6,813.0,1.0,62,160.15
2688,F4,813.0,2.0,35,160.15
2689,A3,813.0,1.0,35,160.15
2690,E-6,814.0,1.0,60,160.15
2691,B-3,814.0,1.0,35,160.15
2692,D6,815.0,1.0,57,160.15
2693,E-3,815.0,1.0,43,160.15
2694,E-4,815.0,1.0,43,160.15
2695,D6,816.0,11/40,60,160.15
2696,F3,816.0,2.0,40,160.15
2697,D4,816.0,1.0,40,160.15
2698,C6,816.25,11/40,52,160.15
2699,E-6,816.5,11/40,52,160.15
2700,C6,816.75,0.188,52,160.15
2701,C6,817.0,11/40,62,160.15
2702,C4,817.0,1.0,40,160.15
2703,B-5,817.25,11/40,52,160.15
2704,D6,817.5,11/40,52,160.15
2705,B-5,817.75,0.188,52,160.15
2706,B-5,818.0,11/40,62,160.15
2707,B-3,818.0,1.0,40,160.15
2708,A5,818.25,11/40,52,160.15
2709,C6,818.5,11/40,52,160.15
2710,A5,818.75,0.25,52,160.15
2711,B-5,819.0,0.25,54,160.15
2712,D6,819.25,0.25,57,160.15
2713,F6,819.5,0.25,58,160.15
2714,D3,819.5,0.5,45,160.15
2715,E-6,819.75,0.25,60,160.15
2716,D6,820.0,0.25,58,160.15
2717,C3,820.0,0.5,50,160.15
2718,C6,820.25,0.25,56,160.15
2719,B-5,820.5,0.25,54,160.15
2720,B-2,820.5,0.5,45,160.15
2721,A5,820.75,0.25,52,160.15
2722,G5,821.0,0.25,55,160.15
2723,A2,821.0,1.0,40,160.15
2724,F5,821.25,0.25,51,160.15
2725,E-5,821.5,0.25,50,160.15
2726,D5,821.75,0.25,50,160.15
2727,C5,822.0,0.25,50,160.15
2728,E-5,822.25,0.25,53,160.15
2729,G5,822.5,0.25,56,160.15
2730,G3,822.5,0.5,45,160.15
2731,F5,822.75,0.25,55,160.15
2732,E-5,823.0,0.25,54,160.15
2733,F3,823.0,0.5,50,160.15
2734,D5,823.25,0.25,53,160.15
2735,C5,823.5,0.25,52,160.15
2736,A2,823.5,0.5,45,160.15
2737,B-4,823.75,0.25,50,160.15
2738,A4,824.0,0.25,49,160.15
2739,B-2,824.0,1.0,40,160.15
2740,G4,824.25,0.25,50,160.15
2741,F4,824.5,0.25,53,160.15
2742,E4,824.75,0.25,56,160.15
2743,F4,825.0,0.25,59,160.15
2744,B-4,825.5,0.25,59,160.15
2745,D4,825.5,0.5,48,160.15
2746,D5,826.0,0.25,61,160.15
2747,C4,826.0,0.5,52,160.15
2748,F5,826.5,0.25,62,160.15
2749,B-3,826.5,0.5,48,160.15
2750,B-5,827.0,0.25,64,160.15
2751,A3,827.0,1.0,48,160.15
2752,D6,827.5,0.25,65,160.15
2753,C5,828.0,0.125,37,160.15
2754,D5,828.125,0.125,31,160.15
2755,C5,828.25,0.125,37,160.15
2756,D5,828.375,0.125,31,160.15
2757,C5,828.5,0.125,37,160.15
2758,G4,828.5,0.5,49,160.15
2759,D5,828.625,0.125,32,160.15
2760,C5,828.75,0.125,37,160.15
2761,D5,828.875,0.125,33,160.15
2762,C5,829.0,0.125,37,160.15
2763,F4,829.0,0.5,50,160.15
2764,D5,829.125,0.125,32,160.15
2765,C5,829.25,0.125,37,160.15
2766,D5,829.375,0.125,32,160.15
2767,C5,829.5,0.125,37,160.15
2768,A3,829.5,0.5,46,160.15
2769,D5,829.625,0.125,31,160.15
2770,C5,829.75,0.125,37,160.15
2771,D5,829.875,0.125,33,160.15
2772,C5,830.0,0.125,37,160.15
2773,B-3,830.0,1.0,50,160.15
2774,D5,830.125,0.125,32,160.15
2775,C5,830.25,167/1000,37,160.15
2776,D5,830.417,167/1000,32,160.15
2777,C5,830.583,167/1000,37,160.15
2778,B-4,830.75,0.125,33,160.15
2779,C5,830.875,0.125,33,160.15
2780,B-4,831.0,1.0,49,160.15
2781,F4,831.5,0.5,50,160.15
2782,D4,832.0,0.5,54,160.15
2783,C4,832.5,0.5,51,160.15
2784,B3,833.0,1.0,54,160.15
2785,E-5,834.0,1.0,46,160.15
2786,G#4,834.5,0.5,45,160.15
2787,F5,835.0,1.0,50,160.15
2788,G4,835.0,0.5,50,160.15
2789,B3,835.5,0.5,45,160.15
2790,G5,836.0,1.0,51,160.15
2791,C4,836.0,0.25,42,160.15
2792,G4,836.25,0.25,33,160.15
2793,E4,836.5,0.25,36,160.15
2794,G4,836.75,0.25,33,160.15
2795,F5,837.0,1.5,51,160.15
2796,A3,837.0,0.25,38,160.15
2797,F#4,837.25,0.25,33,160.15
2798,C4,837.5,0.25,36,160.15
2799,F#4,837.75,0.25,33,160.15
2800,B-3,838.0,0.25,39,160.15
2801,F4,838.25,0.25,33,160.15
2802,G5,838.5,11/40,48,160.15
2803,D4,838.5,0.25,37,160.15
2804,F5,838.75,11/40,43,160.15
2805,F4,838.75,0.25,37,160.15
2806,E-5,839.0,11/40,50,160.15
2807,E-3,839.0,1.0,34,160.15
2808,E-4,839.0,1.0,34,160.15
2809,D5,839.25,11/40,48,160.15
2810,C5,839.5,11/40,47,160.15
2811,B-4,839.75,0.25,45,160.15
2812,D5,840.0,1.5,48,160.15
2813,F3,840.0,1.0,34,160.15
2814,D4,840.0,1.0,34,160.15
2815,E-3,841.0,1.0,34,160.15
2816,C4,841.0,1.0,34,160.15
2817,E-5,841.5,0.5,40,160.15
2818,C5,842.0,1.0,44,160.15
2819,D3,842.0,1.0,37,160.15
2820,B-3,842.0,1.0,37,160.15
2821,B-4,843.0,1.0,46,160.15
2822,F4,844.0,1.0,34,160.15
2823,D4,844.0,1.0,34,160.15
2824,E-4,845.0,1.0,40,160.15
2825,G4,845.0,1.0,40,160.15
2826,E-4,846.0,0.5,52,160.15
2827,E-5,846.5,0.5,47,160.15
2828,F4,847.0,0.5,54,160.15
2829,G3,847.0,1.0,33,160.15
2830,B-3,847.0,1.0,33,160.15
2831,C4,847.0,1.0,33,160.15
2832,F5,847.5,0.5,47,160.15
2833,G4,848.0,0.5,58,160.15
2834,F3,848.0,0.25,45,160.15
2835,D4,848.25,0.25,37,160.15
2836,G5,848.5,0.5,52,160.15
2837,B-3,848.5,0.25,40,160.15
2838,D4,848.75,0.25,37,160.15
2839,F5,849.0,0.5,61,160.15
2840,F3,849.0,0.25,45,160.15
2841,D4,849.25,0.25,37,160.15
2842,G5,849.5,0.25,54,160.15
2843,B-3,849.5,0.25,40,160.15
2844,A5,849.75,0.25,58,160.15
2845,D4,849.75,0.25,37,160.15
2846,B-5,850.0,0.25,61,160.15
2847,F3,850.0,0.25,48,160.15
2848,A5,850.25,0.25,61,160.15
2849,D4,850.25,0.25,37,160.15
2850,G5,850.5,0.25,60,160.15
2851,B-3,850.5,0.25,41,160.15
2852,F5,850.75,0.25,58,160.15
2853,D4,850.75,0.25,37,160.15
2854,E-5,851.0,0.25,57,160.15
2855,F3,851.0,0.25,45,160.15
2856,D5,851.25,0.25,55,160.15
2857,E-4,851.25,0.25,37,160.15
2858,C5,851.5,0.25,54,160.15
2859,A3,851.5,0.25,40,160.15
2860,B-4,851.75,0.25,52,160.15
2861,E-4,851.75,0.25,37,160.15
2862,D5,852.0,1.5,62,160.15
2863,F3,852.0,0.25,45,160.15
2864,E-4,852.25,0.25,37,160.15
2865,A3,852.5,0.25,40,160.15
2866,E-4,852.75,0.25,37,160.15
2867,F3,853.0,0.25,48,160.15
2868,E-4,853.25,0.25,37,160.15
2869,E-5,853.5,0.5,56,160.15
2870,A3,853.5,0.25,41,160.15
2871,E-4,853.75,0.25,37,160.15
2872,C5,854.0,1.0,62,160.15
2873,B-3,854.0,21/40,41,160.15
2874,D4,854.5,21/40,28,160.15
2875,B-4,855.0,1.0,67,160.15
2876,F4,855.0,21/40,35,160.15
2877,B-4,855.5,21/40,34,160.15
2878,A4,856.0,21/40,32,160.15
2879,F5,856.25,0.25,60,160.15
2880,G5,856.5,0.25,65,160.15
2881,G#4,856.5,0.5,30,160.15
2882,F5,856.75,0.25,60,160.15
2883,E-5,857.0,0.25,64,160.15
2884,G4,857.0,0.5,28,160.15
2885,G#4,857.0,1/40,30,160.15
2886,D5,857.25,0.25,62,160.15
2887,E-5,857.5,0.25,60,160.15
2888,B-4,857.5,0.5,21,160.15
2889,C5,857.75,0.25,58,160.15
2890,B-4,858.0,1.0,68,160.15
2891,F4,858.0,0.5,31,160.15
2892,B-4,858.5,0.5,24,160.15
2893,E-4,859.0,0.5,31,160.15
2894,F4,859.25,0.25,60,160.15
2895,G4,859.5,0.25,65,160.15
2896,B-4,859.5,0.5,25,160.15
2897,F4,859.75,0.25,60,160.15
2898,E-4,860.0,0.25,64,160.15
2899,D4,860.0,0.5,31,160.15
2900,D4,860.25,0.25,62,160.15
2901,E-4,860.5,0.25,60,160.15
2902,B-4,860.5,0.5,28,160.15
2903,C4,860.75,0.25,58,160.15
2904,B-3,861.0,7/20,71,160.15
2905,A4,861.0,0.5,31,160.15
2906,B-4,861.5,0.5,28,160.15
2907,G3,862.0,0.5,31,160.15
2908,D5,862.0,1.0,65,160.15
2909,F5,862.0,1.0,65,160.15
2910,B-5,862.0,1.0,65,160.15
2911,E-4,862.5,0.5,27,160.15
2912,F3,863.0,0.5,31,160.15
2913,D4,863.5,0.5,27,160.15
2914,F#4,864.0,1.0,71,160.15
2915,B-3,864.0,0.5,31,160.15
2916,D4,864.5,0.5,29,160.15
2917,F3,865.0,0.5,31,160.15
2918,G#4,865.0,1.0,65,160.15
2919,C5,865.0,1.0,65,160.15
2920,F#5,865.0,1.0,65,160.15
2921,E-4,865.5,0.5,27,160.15
2922,D4,866.0,0.5,31,160.15
2923,B-3,866.5,0.5,24,160.15
2924,C#4,867.0,2.0,43,160.15
2925,A3,867.0,0.5,30,160.15
2926,G#3,867.5,0.5,26,160.15
2927,G3,868.0,0.5,29,160.15
2928,F#3,868.5,0.5,31,160.15
2929,E-4,869.0,11/40,36,160.15
2930,G3,869.0,0.5,28,160.15
2931,C#4,869.25,11/40,36,160.15
2932,C4,869.5,11/40,36,160.15
2933,B-3,869.5,0.5,27,160.15
2934,C#4,869.75,0.25,36,160.15
2935,B-4,870.0,0.5,42,160.15
2936,F3,870.0,0.5,38,160.15
2937,G#4,870.5,61/125,37,160.15
2938,A3,870.5,0.5,32,160.15
2939,G#4,871.0,1.0,43,160.15
2940,E3,871.0,0.5,40,160.15
2941,C#4,871.5,0.5,34,160.15
2942,G#4,872.0,1.0,38,160.15
2943,F3,872.0,0.5,41,160.15
2944,D4,872.5,0.5,35,160.15
2945,G#4,873.0,21/40,39,160.15
2946,B-3,873.0,0.5,38,160.15
2947,C#5,873.5,21/40,45,160.15
2948,D4,873.5,0.5,33,160.15
2949,C5,874.0,21/40,44,160.15
2950,F3,874.0,0.5,40,160.15
2951,B4,874.5,21/40,41,160.15
2952,D4,874.5,0.5,35,160.15
2953,B-4,875.0,21/40,40,160.15
2954,F3,875.0,0.5,41,160.15
2955,A4,875.5,0.5,38,160.15
2956,F4,875.5,0.5,33,160.15
2957,G#4,876.0,1.0,41,160.15
2958,A4,876.0,1/40,38,160.15
2959,D4,876.0,0.5,43,160.15
2960,F4,876.5,0.5,33,160.15
2961,F3,877.0,0.5,45,160.15
2962,E-4,877.5,0.5,38,160.15
2963,B-3,878.25,0.25,54,160.15
2964,D4,878.5,0.25,56,160.15
2965,F4,878.75,0.25,59,160.15
2966,C#4,879.0,2.0,45,160.15
2967,B-4,879.0,0.5,61,160.15
2968,F3,880.0,0.5,54,160.15
2969,A3,880.0,0.5,54,160.15
2970,E-4,881.0,11/40,42,160.15
2971,C#4,881.25,11/40,39,160.15
2972,B-2,881.25,0.25,54,160.15
2973,C4,881.5,11/40,42,160.15
2974,D3,881.5,0.25,56,160.15
2975,C#4,881.75,0.25,40,160.15
2976,F3,881.75,0.25,59,160.15
2977,B-4,882.0,0.5,54,160.15
2978,B-3,882.0,0.5,61,160.15
2979,A4,882.5,0.5,48,160.15
2980,A4,883.0,1.0,53,160.15
2981,F2,883.0,0.5,54,160.15
2982,A2,883.0,0.5,54,160.15
2983,A4,884.0,1.0,47,160.15
2984,B-2,884.0,7/20,59,160.15
2985,B-4,885.0,21/40,50,160.15
2986,B-1,885.0,1.0,59,160.15
2987,F5,885.5,21/40,54,160.15
2988,C#5,886.0,21/40,55,160.15
2989,C5,886.5,21/40,53,160.15
2990,B-4,887.0,21/40,51,160.15
2991,E-3,887.0,1.0,59,160.15
2992,G#4,887.5,0.5,50,160.15
2993,G4,888.0,1.0,50,160.15
2994,G#4,888.0,1/40,50,160.15
2995,E-2,888.0,1.0,59,160.15
2996,C#3,890.0,3.0,20,160.15
2997,F3,890.0,0.5,33,160.15
2998,G#3,890.5,0.5,23,160.15
2999,G#4,891.0,21/40,59,160.15
3000,F3,891.0,0.5,27,160.15
3001,G#5,891.5,21/40,62,160.15
3002,G#3,891.5,0.5,22,160.15
3003,F5,892.0,21/40,61,160.15
3004,F3,892.0,0.5,26,160.15
3005,E-5,892.5,21/40,60,160.15
3006,G#3,892.5,0.5,22,160.15
3007,D5,893.0,21/40,58,160.15
3008,C3,893.0,3.0,20,160.15
3009,F#3,893.0,0.5,36,160.15
3010,C5,893.5,0.5,57,160.15
3011,G#3,893.5,0.5,23,160.15
3012,B4,894.0,1.0,62,160.15
3013,C5,894.0,1/40,57,160.15
3014,F#3,894.0,0.5,27,160.15
3015,G#3,894.5,0.5,23,160.15
3016,F#3,895.0,0.5,27,160.15
3017,G#3,895.5,0.5,24,160.15
3018,C#3,896.0,3.0,20,160.15
3019,F3,896.0,0.5,33,160.15
3020,G#3,896.5,0.5,23,160.15
3021,C5,897.0,21/40,61,160.15
3022,F3,897.0,0.5,27,160.15
3023,E-6,897.5,21/40,64,160.15
3024,G#3,897.5,0.5,23,160.15
3025,C6,898.0,21/40,61,160.15
3026,F3,898.0,0.5,27,160.15
3027,B-5,898.5,21/40,60,160.15
3028,G#3,898.5,0.5,25,160.15
3029,G#5,899.0,21/40,55,160.15
3030,C3,899.0,3.0,20,160.15
3031,F#3,899.0,0.5,31,160.15
3032,G5,899.5,0.5,56,160.15
3033,G#3,899.5,0.5,27,160.15
3034,F#5,900.0,1.0,60,160.15
3035,G5,900.0,1/40,56,160.15
3036,F#3,900.0,0.5,27,160.15
3037,G#3,900.5,0.5,24,160.15
3038,F#3,901.0,0.5,27,160.15
3039,G#3,901.5,0.5,23,160.15
3040,C#3,902.0,3.0,21,160.15
3041,F3,902.0,0.5,35,160.15
3042,G#3,902.5,0.5,24,160.15
3043,G5,903.0,21/40,58,160.15
3044,F3,903.0,0.5,28,160.15
3045,B-5,903.5,21/40,60,160.15
3046,G#3,903.5,0.5,23,160.15
3047,G5,904.0,21/40,58,160.15
3048,F3,904.0,0.5,27,160.15
3049,F5,904.5,21/40,55,160.15
3050,G#3,904.5,0.5,23,160.15
3051,E-5,905.0,21/40,53,160.15
3052,C3,905.0,3.0,21,160.15
3053,E-3,905.0,0.5,38,160.15
3054,D5,905.5,0.5,50,160.15
3055,F#3,905.5,0.5,24,160.15
3056,C#5,906.0,1.0,57,160.15
3057,D5,906.0,1/40,50,160.15
3058,E-3,906.0,0.5,32,160.15
3059,F#3,906.5,0.5,28,160.15
3060,E-3,907.0,0.5,32,160.15
3061,F#3,907.5,0.5,27,160.15
3062,C#3,908.0,3.0,23,160.15
3063,F3,908.0,0.5,37,160.15
3064,B-3,908.5,0.5,32,160.15
3065,F3,909.0,0.5,34,160.15
3066,D5,909.25,0.25,46,160.15
3067,C#5,909.5,0.25,49,160.15
3068,B-3,909.5,0.5,29,160.15
3069,D5,909.75,0.25,44,160.15
3070,E5,910.0,0.25,49,160.15
3071,F3,910.0,0.5,30,160.15
3072,D5,910.25,0.25,44,160.15
3073,C#5,910.5,0.25,49,160.15
3074,B-3,910.5,0.5,28,160.15
3075,D5,910.75,0.25,44,160.15
3076,E3,911.0,3.0,23,160.15
3077,B-3,911.0,0.5,37,160.15
3078,D5,911.25,0.25,49,160.15
3079,F#5,911.5,0.25,54,160.15
3080,C#4,911.5,0.5,30,160.15
3081,D5,911.75,0.25,49,160.15
3082,B-3,912.0,0.5,30,160.15
3083,D5,912.25,0.25,53,160.15
3084,G5,912.5,0.25,57,160.15
3085,C#4,912.5,21/40,27,160.15
3086,D5,912.75,0.25,52,160.15
3087,B-3,913.0,0.5,30,160.15
3088,D5,913.25,0.25,55,160.15
3089,C6,913.5,0.25,61,160.15
3090,C#4,913.5,0.5,26,160.15
3091,D5,913.75,0.25,57,160.15
3092,F3,914.0,3.0,25,160.15
3093,G#3,914.0,0.5,40,160.15
3094,D5,914.25,0.25,57,160.15
3095,B-5,914.5,0.25,64,160.15
3096,C4,914.5,0.5,28,160.15
3097,D5,914.75,0.25,57,160.15
3098,A5,915.0,0.25,64,160.15
3099,G#3,915.0,0.5,33,160.15
3100,F#5,915.25,0.25,57,160.15
3101,E5,915.5,0.25,59,160.15
3102,C4,915.5,0.5,28,160.15
3103,D5,915.75,0.25,57,160.15
3104,C#5,916.0,0.25,57,160.15
3105,G#3,916.0,0.5,36,160.15
3106,D5,916.25,0.25,59,160.15
3107,E5,916.5,0.25,60,160.15
3108,C4,916.5,0.5,32,160.15
3109,D5,916.75,0.25,56,160.15
3110,G3,917.0,3.0,36,160.15
3111,D4,917.0,0.5,36,160.15
3112,D5,917.25,0.25,49,160.15
3113,F#5,917.5,0.25,53,160.15
3114,F4,917.5,0.5,29,160.15
3115,D5,917.75,0.25,49,160.15
3116,D4,918.0,0.5,34,160.15
3117,D5,918.25,0.25,52,160.15
3118,G5,918.5,0.25,58,160.15
3119,F4,918.5,21/40,28,160.15
3120,D5,918.75,0.25,54,160.15
3121,D4,919.0,0.5,35,160.15
3122,D5,919.25,0.25,55,160.15
3123,C6,919.5,0.25,61,160.15
3124,F4,919.5,0.5,28,160.15
3125,D5,919.75,0.25,55,160.15
3126,G#3,920.0,3.0,42,160.15
3127,C4,920.0,0.5,42,160.15
3128,D5,920.25,0.25,49,160.15
3129,B-5,920.5,0.25,68,160.15
3130,E-4,920.5,0.5,26,160.15
3131,D5,920.75,0.25,62,160.15
3132,A5,921.0,0.25,70,160.15
3133,C4,921.0,0.5,38,160.15
3134,D6,921.25,0.25,60,160.15
3135,A5,921.5,0.25,69,160.15
3136,E-4,921.5,0.5,31,160.15
3137,F#5,921.75,0.25,57,160.15
3138,D5,922.0,0.25,67,160.15
3139,C4,922.0,0.5,38,160.15
3140,A5,922.25,0.25,55,160.15
3141,F#5,922.5,0.25,61,160.15
3142,E-4,922.5,0.5,35,160.15
3143,D5,922.75,0.25,54,160.15
3144,A4,923.0,0.25,63,160.15
3145,A3,923.0,3.0,41,160.15
3146,C4,923.0,0.5,41,160.15
3147,D5,923.25,0.25,55,160.15
3148,A4,923.5,0.25,65,160.15
3149,D4,923.5,0.5,33,160.15
3150,F#4,923.75,0.25,59,160.15
3151,D4,924.0,0.25,85,160.15
3152,C4,924.0,0.5,37,160.15
3153,D4,924.5,21/40,28,160.15
3154,C4,925.0,0.5,35,160.15
3155,A4,925.0,1.0,66,160.15
3156,F#4,925.0,1.0,66,160.15
3157,D5,925.0,1.0,66,160.15
3158,D4,925.5,0.5,28,160.15
3159,B-3,926.0,3.0,22,160.15
3160,D4,926.0,0.5,36,160.15
3161,G4,926.5,0.5,29,160.15
3162,D4,927.0,0.5,34,160.15
3163,G4,927.5,0.5,28,160.15
3164,D4,928.0,0.5,34,160.15
3165,G4,928.5,0.5,27,160.15
3166,E-4,929.0,3.0,29,160.15
3167,G4,929.0,0.5,36,160.15
3168,A4,929.5,0.5,28,160.15
3169,G4,930.0,0.5,34,160.15
3170,A4,930.5,21/40,27,160.15
3171,G4,931.0,0.5,34,160.15
3172,A4,931.5,0.5,25,160.15
3173,D4,932.0,1.0,44,160.15
3174,F#4,932.0,1.0,44,160.15
3175,D6,933.5,0.125,45,160.15
3176,D6,934.0,0.125,49,160.15
3177,C5,934.0,0.5,47,160.15
3178,D6,934.5,0.125,43,160.15
3179,D6,935.0,0.125,46,160.15
3180,B-4,935.0,0.5,51,160.15
3181,D6,935.5,0.125,40,160.15
3182,E-6,936.0,21/40,45,160.15
3183,F#4,936.0,0.5,58,160.15
3184,D6,936.5,21/40,40,160.15
3185,C6,937.0,21/40,43,160.15
3186,G4,937.0,0.5,54,160.15
3187,B5,937.5,21/40,40,160.15
3188,G#5,938.0,21/40,45,160.15
3189,D4,938.0,1.0,53,160.15
3190,G5,938.5,0.5,39,160.15
3191,G5,939.0,0.125,41,160.15
3192,G#5,939.125,0.125,39,160.15
3193,G5,939.25,0.25,49,160.15
3194,F5,939.5,479/1000,44,160.15
3195,F5,940.0,1.0,46,160.15
3196,C5,940.0,0.5,48,160.15
3197,B-4,941.0,0.5,57,160.15
3198,F#4,942.0,0.5,59,160.15
3199,G4,943.0,0.5,54,160.15
3200,D4,944.0,1.0,58,160.15
3201,F5,945.5,0.125,45,160.15
3202,F5,946.0,0.125,48,160.15
3203,D4,946.25,0.25,47,160.15
3204,F5,946.5,0.125,42,160.15
3205,A3,946.5,0.25,54,160.15
3206,F#3,946.75,0.25,47,160.15
3207,F5,947.0,0.125,44,160.15
3208,D3,947.0,0.25,69,160.15
3209,F5,947.5,0.125,40,160.15
3210,G5,948.0,21/40,45,160.15
3211,D2,948.0,1.0,59,160.15
3212,F5,948.5,21/40,40,160.15
3213,E-5,949.0,21/40,40,160.15
3214,D5,949.5,21/40,40,160.15
3215,C5,950.0,21/40,45,160.15
3216,G3,950.0,1021/500,34,160.15
3217,B4,950.5,0.5,39,160.15
3218,C5,951.0,1021/500,48,160.15
3219,D3,952.0,1.0,30,160.15
3220,G4,953.0,1.0,42,160.15
3221,B2,953.0,1021/500,34,160.15
3222,E-4,954.0,1021/500,48,160.15
3223,D3,955.0,1.0,32,160.15
3224,G4,956.0,1.0,45,160.15
3225,G3,956.0,1021/500,34,160.15
3226,C5,957.0,1021/500,50,160.15
3227,B3,958.0,1.0,36,160.15
3228,E-5,959.0,1.0,52,160.15
3229,D4,959.0,1.0,38,160.15
3230,G5,960.0,1.0,56,160.15
3231,G3,962.0,1021/500,34,160.15
3232,E5,963.0,1021/500,58,160.15
3233,D3,964.0,1.0,30,160.15
3234,C5,965.0,1.0,52,160.15
3235,B2,965.0,1021/500,34,160.15
3236,G4,966.0,1021/500,55,160.15
3237,D3,967.0,1.0,32,160.15
3238,C5,968.0,1.0,49,160.15
3239,G3,968.0,1021/500,34,160.15
3240,E5,969.0,1021/500,53,160.15
3241,B3,970.0,1.0,36,160.15
3242,G5,971.0,1.0,54,160.15
3243,D4,971.0,1.0,38,160.15
3244,B-5,972.0,1.0,58,160.15
3245,G#5,975.5,0.125,45,160.15
3246,G#5,976.0,0.125,49,160.15
3247,G#5,976.5,0.125,43,160.15
3248,G#5,977.0,0.125,46,160.15
3249,G#5,977.5,0.125,40,160.15
3250,B-5,978.0,21/40,45,160.15
3251,G#5,978.5,21/40,40,160.15
3252,G5,979.0,21/40,43,160.15
3253,F5,979.5,21/40,40,160.15
3254,E-5,980.0,21/40,45,160.15
3255,D5,980.5,0.5,39,160.15
3256,G3,980.5,0.125,39,160.15
3257,G3,981.0,0.125,42,160.15
3258,G5,981.5,0.125,45,160.15
3259,G3,981.5,0.125,37,160.15
3260,G5,982.0,0.125,49,160.15
3261,G3,982.0,0.125,39,160.15
3262,G5,982.5,0.125,43,160.15
3263,G3,982.5,0.125,35,160.15
3264,G5,983.0,0.125,46,160.15
3265,G#3,983.0,21/40,39,160.15
3266,G5,983.5,0.125,40,160.15
3267,G3,983.5,21/40,35,160.15
3268,G#5,984.0,21/40,45,160.15
3269,F3,984.0,21/40,37,160.15
3270,G5,984.5,21/40,40,160.15
3271,E-3,984.5,21/40,35,160.15
3272,F5,985.0,21/40,43,160.15
3273,D3,985.0,21/40,39,160.15
3274,E-5,985.5,21/40,40,160.15
3275,C3,985.5,0.5,34,160.15
3276,D5,986.0,21/40,45,160.15
3277,C3,986.0,0.5,35,160.15
3278,C5,986.5,0.5,39,160.15
3279,B-2,986.5,0.5,38,160.15
3280,B-2,987.0,1.0,39,160.15
3281,F5,987.5,0.125,45,160.15
3282,F5,988.0,0.125,49,160.15
3283,F5,988.5,0.125,43,160.15
3284,F5,989.0,0.125,46,160.15
3285,F5,989.5,0.125,40,160.15
3286,G5,990.0,21/40,51,160.15
3287,F5,990.5,21/40,50,160.15
3288,E-5,991.0,21/40,49,160.15
3289,D5,991.5,21/40,48,160.15
3290,C5,992.0,21/40,47,160.15
3291,B4,992.5,0.5,47,160.15
3292,B-3,992.5,0.125,39,160.15
3293,F5,993.0,21/40,56,160.15
3294,B-3,993.0,0.125,41,160.15
3295,E-5,993.5,21/40,54,160.15
3296,B-3,993.5,0.125,36,160.15
3297,D5,994.0,21/40,52,160.15
3298,B-3,994.0,0.125,38,160.15
3299,C5,994.5,21/40,51,160.15
3300,B-3,994.5,0.125,35,160.15
3301,B-4,995.0,21/40,49,160.15
3302,C4,995.0,21/40,39,160.15
3303,A4,995.5,0.5,47,160.15
3304,B-3,995.5,21/40,35,160.15
3305,C6,996.0,21/40,60,160.15
3306,G#3,996.0,21/40,35,160.15
3307,B-5,996.5,21/40,58,160.15
3308,G3,996.5,21/40,35,160.15
3309,A5,997.0,21/40,56,160.15
3310,F3,997.0,21/40,39,160.15
3311,G5,997.5,21/40,54,160.15
3312,E3,997.5,0.5,34,160.15
3313,F5,998.0,21/40,54,160.15
3314,F3,998.0,1021/500,40,160.15
3315,E5,998.5,0.5,57,160.15
3316,F5,999.0,1.0,61,160.15
3317,B-3,1001.0,3.0,28,160.15
3318,A4,1001.0,1.0,50,160.15
3319,E-5,1001.0,1.0,50,160.15
3320,D4,1001.0,1.0,31,160.15
3321,F4,1001.0,1.0,31,160.15
3322,B-4,1002.0,1.0,52,160.15
3323,C#5,1002.0,1.0,52,160.15
3324,E-4,1002.0,1.0,31,160.15
3325,G4,1002.0,1.0,31,160.15
3326,F4,1003.0,1.0,31,160.15
3327,A4,1003.0,1.0,31,160.15
3328,C#5,1004.0,1.0,50,160.15
3329,B-5,1004.0,1.0,50,160.15
3330,E-4,1004.0,1.0,31,160.15
3331,G4,1004.0,1.0,31,160.15
3332,C5,1005.0,1.0,53,160.15
3333,A5,1005.0,1.0,53,160.15
3334,G#3,1007.0,3.0,28,160.15
3335,E-4,1007.0,1.0,50,160.15
3336,A4,1007.0,1.0,50,160.15
3337,C4,1007.0,1.0,31,160.15
3338,E-4,1007.0,1.0,31,160.15
3339,C#4,1008.0,1.0,52,160.15
3340,B-4,1008.0,1.0,52,160.15
3341,D4,1008.0,1.0,31,160.15
3342,F4,1008.0,1.0,31,160.15
3343,E-4,1009.0,1.0,31,160.15
3344,G4,1009.0,1.0,31,160.15
3345,B-3,1010.0,1.0,50,160.15
3346,C#4,1010.0,1.0,50,160.15
3347,D4,1010.0,1.0,31,160.15
3348,F4,1010.0,1.0,31,160.15
3349,A3,1011.0,0.5,52,160.15
3350,C4,1011.0,0.5,52,160.15
3351,F4,1011.5,0.125,45,160.15
3352,F4,1012.0,0.125,49,160.15
3353,F4,1012.5,0.125,43,160.15
3354,F4,1013.0,0.125,46,160.15
3355,G3,1013.0,3.0,28,160.15
3356,B3,1013.0,1.0,31,160.15
3357,D4,1013.0,1.0,31,160.15
3358,F4,1013.5,0.125,40,160.15
3359,E4,1014.0,0.5,44,160.15
3360,C4,1014.0,1.0,31,160.15
3361,E-4,1014.0,1.0,31,160.15
3362,F4,1014.5,0.5,40,160.15
3363,G4,1015.0,0.5,45,160.15
3364,D4,1015.0,1.0,31,160.15
3365,F4,1015.0,1.0,31,160.15
3366,F4,1015.5,0.5,40,160.15
3367,B-4,1016.0,0.5,43,160.15
3368,C4,1016.0,1.0,34,160.15
3369,E-4,1016.0,1.0,34,160.15
3370,A4,1016.5,0.5,40,160.15
3371,D5,1017.0,0.5,44,160.15
3372,C5,1017.5,0.5,40,160.15
3373,E-5,1018.0,0.5,45,160.15
3374,F3,1018.0,1.0,34,160.15
3375,E-4,1018.0,1.0,34,160.15
3376,D5,1018.5,0.5,40,160.15
3377,G5,1019.0,0.5,45,160.15
3378,G3,1019.0,1.0,34,160.15
3379,D4,1019.0,1.0,34,160.15
3380,F5,1019.5,0.375,40,160.15
3381,F5,1020.0,1.5,45,160.15
3382,E-4,1021.0,1.0,34,160.15
3383,G4,1021.0,1.0,34,160.15
3384,E5,1021.5,0.5,40,160.15
3385,E-5,1022.0,0.5,43,160.15
3386,C5,1022.5,0.5,40,160.15
3387,F4,1022.5,0.125,42,160.15
3388,B-4,1023.0,2.0,48,160.15
3389,F4,1023.0,0.125,45,160.15
3390,F4,1023.5,0.125,39,160.15
3391,F4,1024.0,0.125,41,160.15
3392,F4,1024.5,0.125,38,160.15
3393,F4,1025.0,1.0,41,160.15
3394,F#4,1025.0,21/40,42,160.15
3395,F4,1025.5,21/40,38,160.15
3396,D4,1026.0,2.0,48,160.15
3397,E-4,1026.0,21/40,38,160.15
3398,C#4,1026.5,21/40,38,160.15
3399,C4,1027.0,21/40,42,160.15
3400,B-3,1027.5,0.5,37,160.15
3401,F4,1028.0,1.0,44,160.15
3402,F3,1028.5,0.125,42,160.15
3403,B-4,1029.0,2.0,48,160.15
3404,F3,1029.0,0.125,45,160.15
3405,F3,1029.5,0.125,39,160.15
3406,F3,1030.0,0.125,41,160.15
3407,F3,1030.5,0.125,38,160.15
3408,D5,1031.0,1.0,51,160.15
3409,F#3,1031.0,21/40,42,160.15
3410,F3,1031.5,21/40,38,160.15
3411,F5,1032.0,2.0,56,160.15
3412,E-3,1032.0,21/40,38,160.15
3413,C#3,1032.5,21/40,38,160.15
3414,C3,1033.0,21/40,42,160.15
3415,B-2,1033.5,0.5,37,160.15
3416,B-5,1034.0,0.5,58,160.15
3417,F2,1034.0,1.0,42,160.15
3418,D5,1034.5,0.5,51,160.15
3419,F5,1035.0,21/40,56,160.15
3420,E-5,1035.5,21/40,52,160.15
3421,D5,1036.0,21/40,51,160.15
3422,C5,1036.5,21/40,49,160.15
3423,B-4,1037.0,21/40,48,160.15
3424,F3,1037.0,3.0,32,160.15
3425,E-4,1037.0,3.0,32,160.15
3426,A3,1037.0,3.0,32,160.15
3427,A4,1037.5,0.5,47,160.15
3428,G4,1038.0,21/40,50,160.15
3429,F4,1038.5,21/40,44,160.15
3430,E4,1039.0,21/40,44,160.15
3431,F4,1039.5,21/40,45,160.15
3432,G4,1040.0,21/40,47,160.15
3433,A4,1040.5,0.5,50,160.15
3434,B-4,1041.0,0.125,50,160.15
3435,C5,1041.375,0.125,45,160.15
3436,B-4,1041.5,0.25,49,160.15
3437,A4,1041.75,0.25,46,160.15
3438,B-4,1042.0,0.125,50,160.15
3439,C5,1042.5,0.125,47,160.15
3440,D5,1043.0,0.125,49,160.15
3441,E-5,1043.5,0.125,51,160.15
3442,E5,1044.0,21/40,53,160.15
3443,F3,1044.0,3.0,32,160.15
3444,E-4,1044.0,3.0,32,160.15
3445,A3,1044.0,3.0,32,160.15
3446,F5,1044.5,21/40,50,160.15
3447,G5,1045.0,21/40,55,160.15
3448,F5,1045.5,0.5,50,160.15
3449,B-5,1046.0,0.5,59,160.15
3450,D5,1046.5,0.5,50,160.15
3451,F5,1047.0,21/40,57,160.15
3452,E-5,1047.5,21/40,55,160.15
3453,D5,1048.0,21/40,53,160.15
3454,F3,1048.0,1.0,32,160.15
3455,E-4,1048.0,1.0,32,160.15
3456,A3,1048.0,1.0,32,160.15
3457,C5,1048.5,21/40,51,160.15
3458,B-4,1049.0,21/40,49,160.15
3459,A4,1049.5,0.5,47,160.15
3460,G4,1050.0,21/40,50,160.15
3461,F4,1050.5,21/40,43,160.15
3462,E4,1051.0,21/40,50,160.15
3463,B-3,1051.0,2.0,33,160.15
3464,F4,1051.5,21/40,43,160.15
3465,G4,1052.0,21/40,50,160.15
3466,A4,1052.5,0.5,45,160.15
3467,B-4,1053.0,0.25,50,160.15
3468,F3,1053.0,1.0,31,160.15
3469,B-4,1054.0,0.25,48,160.15
3470,D3,1054.0,2.0,37,160.15
3471,D5,1055.0,0.25,48,160.15
3472,B-4,1056.0,1.0,50,160.15
3473,F3,1056.0,1.0,38,160.15
3474,B-3,1057.0,2.0,41,160.15
3475,B-4,1057.75,0.125,44,160.15
3476,C5,1058.0,11/40,50,160.15
3477,B-4,1058.25,11/40,43,160.15
3478,A4,1058.5,11/40,45,160.15
3479,B-4,1058.75,0.25,42,160.15
3480,G5,1059.0,1.0,56,160.15
3481,B-4,1059.0,1/40,42,160.15
3482,D4,1059.0,1.0,43,160.15
3483,F4,1060.0,2.0,43,160.15
3484,B-4,1060.75,0.125,44,160.15
3485,C5,1061.0,11/40,50,160.15
3486,B-4,1061.25,11/40,43,160.15
3487,A4,1061.5,11/40,45,160.15
3488,B-4,1061.75,0.25,42,160.15
3489,F5,1062.0,1.0,55,160.15
3490,B-4,1062.0,1/40,42,160.15
3491,E-4,1063.0,3.0,32,160.15
3492,F3,1063.0,3.0,32,160.15
3493,C4,1063.0,3.0,32,160.15
3494,B-4,1063.75,0.125,44,160.15
3495,C5,1064.0,11/40,50,160.15
3496,B-4,1064.25,11/40,43,160.15
3497,A4,1064.5,11/40,45,160.15
3498,B-4,1064.75,0.25,42,160.15
3499,C5,1065.0,1.0,52,160.15
3500,B-4,1065.0,1/40,42,160.15
3501,F5,1066.0,1.0,49,160.15
3502,E-5,1067.0,1.0,48,160.15
3503,C#5,1068.0,1.0,55,160.15
3504,D5,1069.0,0.5,49,160.15
3505,E-4,1069.0,3.0,32,160.15
3506,F3,1069.0,3.0,32,160.15
3507,C4,1069.0,3.0,32,160.15
3508,B-4,1069.75,0.125,44,160.15
3509,C5,1070.0,11/40,50,160.15
3510,B-4,1070.25,11/40,43,160.15
3511,A4,1070.5,11/40,45,160.15
3512,B-4,1070.75,0.25,42,160.15
3513,G5,1071.0,1.0,56,160.15
3514,B-4,1071.0,1/40,42,160.15
3515,D4,1072.0,1.0,35,160.15
3516,B-3,1072.0,1.0,35,160.15
3517,B-4,1072.75,0.125,44,160.15
3518,C5,1073.0,11/40,50,160.15
3519,B-4,1073.25,11/40,43,160.15
3520,A4,1073.5,11/40,45,160.15
3521,B-4,1073.75,0.25,42,160.15
3522,F5,1074.0,1.0,55,160.15
3523,B-4,1074.0,1/40,42,160.15
3524,B-4,1075.75,0.125,44,160.15
3525,C5,1076.0,11/40,50,160.15
3526,B-4,1076.25,11/40,43,160.15
3527,A4,1076.5,11/40,45,160.15
3528,B-4,1076.75,0.25,42,160.15
3529,C5,1077.0,1.0,52,160.15
3530,B-4,1077.0,1/40,42,160.15
3531,E-5,1078.0,1.0,49,160.15
3532,F3,1078.0,3.0,32,160.15
3533,C4,1078.0,3.0,32,160.15
3534,E-4,1078.0,3.0,32,160.15
3535,A4,1079.0,1.0,48,160.15
3536,B-4,1080.0,1.0,55,160.15
3537,D5,1083.0,0.25,68,160.15
3538,B-4,1083.0,0.25,68,160.15
3539,G5,1083.0,0.25,68,160.15
3540,G4,1084.0,0.25,64,160.15
3541,F3,1084.0,3.0,32,160.15
3542,C4,1084.0,3.0,32,160.15
3543,E-4,1084.0,3.0,32,160.15
3544,A4,1086.0,0.25,67,160.15
3545,F#4,1086.0,0.25,67,160.15
3546,D5,1086.0,0.25,67,160.15
3547,D4,1087.0,0.25,67,160.15
3548,B-3,1087.0,0.25,37,160.15
3549,D4,1087.0,0.25,37,160.15
3550,D4,1088.0,0.25,35,160.15
3551,B-3,1088.0,0.25,35,160.15
3552,E-4,1089.0,2.0,43,160.15
3553,F4,1089.0,0.25,35,160.15
3554,B-3,1089.0,0.25,35,160.15
3555,D4,1090.0,1.0,37,160.15
3556,B-3,1090.0,1.0,37,160.15
3557,F4,1091.0,11/40,36,160.15
3558,E-4,1091.25,11/40,36,160.15
3559,D4,1091.5,11/40,36,160.15
3560,E-4,1091.75,0.25,36,160.15
3561,C5,1092.0,0.5,42,160.15
3562,B-4,1092.5,0.5,37,160.15
3563,B-4,1093.0,1.0,43,160.15
3564,B-4,1094.0,1.0,38,160.15
3565,B-3,1094.0,1.0,27,160.15
3566,G3,1094.0,1.0,27,160.15
3567,E-3,1094.0,1.0,27,160.15
3568,B-4,1095.0,21/40,39,160.15
3569,E-5,1095.5,21/40,45,160.15
3570,D5,1096.0,21/40,44,160.15
3571,C#5,1096.5,21/40,42,160.15
3572,C5,1097.0,21/40,40,160.15
3573,F3,1097.0,1.0,27,160.15
3574,D3,1097.0,1.0,27,160.15
3575,B-3,1097.0,1.0,27,160.15
3576,B4,1097.5,0.5,38,160.15
3577,B-4,1098.0,1.0,41,160.15
3578,B4,1098.0,1/40,38,160.15
3579,A3,1099.0,3.0,29,160.15
3580,F4,1099.0,3.0,34,160.15
3581,E-4,1101.0,2.0,45,160.15
3582,B-3,1102.0,1.0,34,160.15
3583,F4,1102.0,1.0,34,160.15
3584,F4,1103.0,11/40,42,160.15
3585,E-4,1103.25,11/40,39,160.15
3586,D4,1103.5,11/40,42,160.15
3587,E-4,1103.75,0.25,40,160.15
3588,C5,1104.0,0.5,54,160.15
3589,B4,1104.5,0.5,48,160.15
3590,B4,1105.0,1.0,53,160.15
3591,B4,1106.0,1.0,47,160.15
3592,E-3,1106.0,1.0,27,160.15
3593,B-3,1106.0,1.0,27,160.15
3594,G3,1106.0,1.0,27,160.15
3595,C5,1107.0,21/40,50,160.15
3596,G5,1107.5,21/40,58,160.15
3597,E-5,1108.0,21/40,56,160.15
3598,D5,1108.5,21/40,54,160.15
3599,C5,1109.0,21/40,51,160.15
3600,F3,1109.0,1.0,27,160.15
3601,D3,1109.0,1.0,27,160.15
3602,B-3,1109.0,1.0,27,160.15
3603,B-4,1109.5,0.5,49,160.15
3604,A4,1110.0,1.0,50,160.15
3605,B-4,1110.0,1/40,49,160.15
3606,A3,1111.0,1.0,34,160.15
3607,F3,1111.0,3.0,29,160.15
3608,C4,1112.0,1.0,31,160.15
3609,B-4,1113.0,21/40,59,160.15
3610,E-4,1113.0,1.0,29,160.15
3611,D6,1113.5,21/40,62,160.15
3612,B-5,1114.0,21/40,61,160.15
3613,D4,1114.0,1.0,31,160.15
3614,B-3,1114.0,1.0,31,160.15
3615,A5,1114.5,21/40,60,160.15
3616,G5,1115.0,21/40,58,160.15
3617,F5,1115.5,0.5,57,160.15
3618,E5,1116.0,1.0,62,160.15
3619,F5,1116.0,1/40,57,160.15
3620,G3,1117.0,0.25,73,160.15
3621,G2,1118.0,0.25,66,160.15
3622,F5,1119.25,0.25,46,160.15
3623,E5,1119.5,0.25,49,160.15
3624,F5,1119.75,0.25,44,160.15
3625,G5,1120.0,0.25,49,160.15
3626,D3,1120.0,0.25,73,160.15
3627,F5,1120.25,0.25,44,160.15
3628,E5,1120.5,0.25,49,160.15
3629,F5,1120.75,0.25,44,160.15
3630,D2,1121.0,0.25,66,160.15
3631,F5,1121.25,0.25,49,160.15
3632,A5,1121.5,0.25,54,160.15
3633,F5,1121.75,0.25,49,160.15
3634,F5,1122.25,0.25,53,160.15
3635,B-5,1122.5,0.25,57,160.15
3636,F5,1122.75,0.25,52,160.15
3637,E-3,1123.0,3.0,20,160.15
3638,G3,1123.0,0.5,33,160.15
3639,F5,1123.25,0.25,55,160.15
3640,E-6,1123.5,0.25,61,160.15
3641,B-3,1123.5,0.5,23,160.15
3642,F5,1123.75,0.25,57,160.15
3643,G3,1124.0,0.5,27,160.15
3644,F5,1124.25,0.25,57,160.15
3645,D6,1124.5,0.25,64,160.15
3646,B-3,1124.5,0.5,22,160.15
3647,F5,1124.75,0.25,57,160.15
3648,C6,1125.0,0.25,65,160.15
3649,G3,1125.0,0.5,26,160.15
3650,A5,1125.25,0.25,60,160.15
3651,G5,1125.5,0.25,65,160.15
3652,B-3,1125.5,0.5,22,160.15
3653,F5,1125.75,0.25,60,160.15
3654,E5,1126.0,0.25,57,160.15
3655,G#3,1126.0,0.5,36,160.15
3656,D3,1126.0,3.0,20,160.15
3657,F5,1126.25,0.25,59,160.15
3658,G5,1126.5,0.25,60,160.15
3659,B-3,1126.5,0.5,23,160.15
3660,F5,1126.75,0.25,56,160.15
3661,G#3,1127.0,0.5,27,160.15
3662,F5,1127.25,0.25,49,160.15
3663,A5,1127.5,0.25,53,160.15
3664,B-3,1127.5,0.5,23,160.15
3665,F5,1127.75,0.25,49,160.15
3666,G#3,1128.0,0.5,27,160.15
3667,F5,1128.25,0.25,52,160.15
3668,B-5,1128.5,0.25,58,160.15
3669,B-3,1128.5,0.5,24,160.15
3670,F5,1128.75,0.25,54,160.15
3671,E-3,1129.0,3.0,20,160.15
3672,G3,1129.0,0.5,33,160.15
3673,F5,1129.25,0.25,55,160.15
3674,E-6,1129.5,0.25,61,160.15
3675,B-3,1129.5,0.5,23,160.15
3676,F5,1129.75,0.25,55,160.15
3677,G3,1130.0,0.5,27,160.15
3678,F5,1130.25,0.25,49,160.15
3679,D6,1130.5,0.25,68,160.15
3680,B-3,1130.5,0.5,23,160.15
3681,F5,1130.75,0.25,62,160.15
3682,C6,1131.0,0.25,73,160.15
3683,G3,1131.0,0.5,27,160.15
3684,F6,1131.25,0.25,62,160.15
3685,C6,1131.5,0.25,69,160.15
3686,B-3,1131.5,0.5,25,160.15
3687,A5,1131.75,0.25,57,160.15
3688,F5,1132.0,0.25,67,160.15
3689,D3,1132.0,3.0,20,160.15
3690,G#3,1132.0,0.5,33,160.15
3691,C6,1132.25,0.25,55,160.15
3692,A5,1132.5,0.25,61,160.15
3693,B-3,1132.5,0.5,27,160.15
3694,F5,1132.75,0.25,54,160.15
3695,C5,1133.0,0.25,63,160.15
3696,G#3,1133.0,0.5,27,160.15
3697,F5,1133.25,0.25,55,160.15
3698,C5,1133.5,0.25,65,160.15
3699,B-3,1133.5,0.5,24,160.15
3700,A4,1133.75,0.25,59,160.15
3701,F4,1134.0,0.25,85,160.15
3702,G#3,1134.0,0.5,27,160.15
3703,B-3,1134.5,0.5,23,160.15
3704,E-3,1135.0,3.0,21,160.15
3705,G3,1135.0,0.5,35,160.15
3706,C5,1135.0,1.0,66,160.15
3707,A4,1135.0,1.0,66,160.15
3708,F5,1135.0,1.0,66,160.15
3709,B-3,1135.5,0.5,24,160.15
3710,G3,1136.0,0.5,28,160.15
3711,B-3,1136.5,0.5,23,160.15
3712,G3,1137.0,0.5,27,160.15
3713,B-3,1137.5,0.5,23,160.15
3714,F3,1138.0,0.5,38,160.15
3715,D3,1138.0,3.0,21,160.15
3716,G#3,1138.5,0.5,24,160.15
3717,F3,1139.0,0.5,32,160.15
3718,G#3,1139.5,0.5,28,160.15
3719,F3,1140.0,0.5,32,160.15
3720,G#3,1140.5,0.5,27,160.15
3721,E-3,1141.0,3.0,23,160.15
3722,G3,1141.0,0.5,37,160.15
3723,C4,1141.5,0.5,32,160.15
3724,G3,1142.0,0.5,34,160.15
3725,C4,1142.5,0.5,29,160.15
3726,G3,1143.0,0.5,30,160.15
3727,F5,1143.5,0.125,45,160.15
3728,C4,1143.5,0.5,28,160.15
3729,F5,1144.0,0.125,49,160.15
3730,F#3,1144.0,3.0,23,160.15
3731,C4,1144.0,0.5,37,160.15
3732,F5,1144.5,0.125,43,160.15
3733,E-4,1144.5,0.5,30,160.15
3734,F5,1145.0,0.125,46,160.15
3735,C4,1145.0,0.5,30,160.15
3736,F5,1145.5,0.125,40,160.15
3737,E-4,1145.5,21/40,27,160.15
3738,G5,1146.0,21/40,45,160.15
3739,C4,1146.0,0.5,30,160.15
3740,F5,1146.5,21/40,40,160.15
3741,E-4,1146.5,0.5,26,160.15
3742,E-5,1147.0,21/40,43,160.15
3743,B-3,1147.0,0.5,44,160.15
3744,G3,1147.0,3.0,27,160.15
3745,D5,1147.5,21/40,40,160.15
3746,D4,1147.5,0.5,30,160.15
3747,C5,1148.0,21/40,45,160.15
3748,B-3,1148.0,0.5,36,160.15
3749,B-4,1148.5,0.375,39,160.15
3750,D4,1148.5,0.5,30,160.15
3751,B-4,1149.0,0.125,41,160.15
3752,B-3,1149.0,0.5,36,160.15
3753,C5,1149.125,0.125,39,160.15
3754,B-4,1149.25,0.25,49,160.15
3755,A4,1149.5,0.5,44,160.15
3756,D4,1149.5,0.5,33,160.15
3757,A4,1150.0,1.0,46,160.15
3758,G4,1150.0,0.5,44,160.15
3759,C4,1150.0,3.0,27,160.15
3760,B-4,1150.5,0.5,36,160.15
3761,G4,1151.0,0.5,36,160.15
3762,B-4,1151.5,21/40,31,160.15
3763,G4,1152.0,0.5,36,160.15
3764,B-4,1152.5,0.5,30,160.15
3765,F4,1153.0,1.0,44,160.15
3766,A4,1153.0,1.0,44,160.15
3767,E-5,1155.0,0.5,46,160.15
3768,E-5,1155.5,0.125,45,160.15
3769,E-5,1156.0,0.125,48,160.15
3770,D5,1156.0,0.5,52,160.15
3771,E-5,1156.5,0.125,42,160.15
3772,E-5,1157.0,0.125,44,160.15
3773,A4,1157.0,0.5,56,160.15
3774,E-5,1157.5,0.125,40,160.15
3775,F5,1158.0,21/40,45,160.15
3776,B-4,1158.0,0.5,53,160.15
3777,E-5,1158.5,21/40,40,160.15
3778,D5,1159.0,21/40,40,160.15
3779,F4,1159.0,1.0,59,160.15
3780,C5,1159.5,21/40,40,160.15
3781,B-4,1160.0,21/40,45,160.15
3782,A4,1160.5,0.5,39,160.15
3783,B-4,1161.0,1.0,47,160.15
3784,E-5,1161.0,0.5,51,160.15
3785,D5,1162.0,0.5,57,160.15
3786,D5,1162.5,21/40,47,160.15
3787,C5,1163.0,21/40,45,160.15
3788,A4,1163.0,0.5,59,160.15
3789,B-4,1163.5,0.5,40,160.15
3790,A4,1164.0,1.0,47,160.15
3791,B-4,1164.0,1/40,40,160.15
3792,B-4,1164.0,0.5,54,160.15
3793,F4,1165.0,1.0,62,160.15
3794,G5,1165.5,21/40,52,160.15
3795,F5,1166.0,21/40,47,160.15
3796,A4,1166.5,0.5,42,160.15
3797,B-4,1167.0,1.0,47,160.15
3798,A4,1167.0,1/40,42,160.15
3799,F4,1167.25,0.25,47,160.15
3800,C4,1167.5,0.25,54,160.15
3801,A3,1167.75,0.25,47,160.15
3802,F3,1168.0,0.25,69,160.15
3803,D5,1168.5,21/40,47,160.15
3804,C5,1169.0,21/40,45,160.15
3805,F2,1169.0,1.0,59,160.15
3806,B-4,1169.5,0.5,40,160.15
3807,A4,1170.0,1.0,47,160.15
3808,B-4,1170.0,1/40,40,160.15
3809,B-3,1171.0,1021/500,34,160.15
3810,F#5,1171.5,21/40,52,160.15
3811,F5,1172.0,21/40,47,160.15
3812,A4,1172.5,0.5,42,160.15
3813,B-4,1173.0,1.0,47,160.15
3814,A4,1173.0,1/40,42,160.15
3815,F3,1173.0,1.0,30,160.15
3816,D3,1174.0,1021/500,34,160.15
3817,F5,1174.5,21/40,55,160.15
3818,C#5,1175.0,21/40,53,160.15
3819,C5,1175.5,0.5,50,160.15
3820,B4,1176.0,1.0,56,160.15
3821,C5,1176.0,1/40,50,160.15
3822,F3,1176.0,1.0,32,160.15
3823,B-3,1177.0,1021/500,34,160.15
3824,G#5,1177.5,21/40,58,160.15
3825,G5,1178.0,21/40,52,160.15
3826,B4,1178.5,0.5,48,160.15
3827,D5,1179.0,21/40,56,160.15
3828,D4,1179.0,1.0,36,160.15
3829,C5,1179.5,21/40,51,160.15
3830,F5,1180.0,21/40,55,160.15
3831,F4,1180.0,1.0,38,160.15
3832,E5,1180.5,21/40,51,160.15
3833,E-5,1181.0,21/40,50,160.15
3834,D5,1181.5,0.5,49,160.15
3835,C5,1182.0,0.75,54,160.15
3836,D5,1182.75,0.25,48,160.15
3837,B-4,1183.0,1.0,54,160.15
3838,E-3,1183.0,1021/500,34,160.15
3839,A4,1184.0,167/1000,50,160.15
3840,B-4,1184.167,167/1000,44,160.15
3841,A4,1184.333,167/1000,50,160.15
3842,B-4,1184.5,0.125,44,160.15
3843,A4,1184.625,0.125,50,160.15
3844,G4,1184.75,0.125,42,160.15
3845,A4,1184.875,0.125,45,160.15
3846,B-4,1185.0,0.25,49,160.15
3847,C3,1185.0,1.0,30,160.15
3848,F4,1185.25,0.25,46,160.15
3849,E4,1185.5,0.25,49,160.15
3850,F4,1185.75,0.25,44,160.15
3851,G4,1186.0,0.25,49,160.15
3852,A2,1186.0,1021/500,34,160.15
3853,F4,1186.25,0.25,44,160.15
3854,E4,1186.5,0.25,49,160.15
3855,F4,1186.75,0.25,44,160.15
3856,E-4,1187.0,0.25,49,160.15
3857,F4,1187.25,0.25,49,160.15
3858,D4,1187.5,0.25,54,160.15
3859,F4,1187.75,0.25,49,160.15
3860,C4,1188.0,0.25,49,160.15
3861,C3,1188.0,1.0,32,160.15
3862,F4,1188.25,0.25,46,160.15
3863,E4,1188.5,0.25,49,160.15
3864,F4,1188.75,0.25,44,160.15
3865,G4,1189.0,0.25,49,160.15
3866,E-3,1189.0,1021/500,34,160.15
3867,F4,1189.25,0.25,44,160.15
3868,E4,1189.5,0.25,49,160.15
3869,F4,1189.75,0.25,44,160.15
3870,E-5,1190.0,0.25,49,160.15
3871,F4,1190.25,0.25,49,160.15
3872,E-5,1190.5,0.25,54,160.15
3873,F4,1190.75,0.25,49,160.15
3874,D5,1191.0,0.25,49,160.15
3875,A3,1191.0,1.0,36,160.15
3876,F5,1191.25,0.25,46,160.15
3877,E5,1191.5,0.25,49,160.15
3878,F5,1191.75,0.25,44,160.15
3879,G5,1192.0,0.25,49,160.15
3880,C4,1192.0,1.0,38,160.15
3881,F5,1192.25,0.25,44,160.15
3882,E5,1192.5,0.25,49,160.15
3883,F5,1192.75,0.25,44,160.15
3884,E-5,1193.0,0.25,49,160.15
3885,F5,1193.25,0.25,49,160.15
3886,D5,1193.5,0.25,54,160.15
3887,F5,1193.75,0.25,49,160.15
3888,C5,1194.0,0.25,49,160.15
3889,F5,1194.25,0.25,46,160.15
3890,E5,1194.5,0.25,49,160.15
3891,F5,1194.75,0.25,44,160.15
3892,G5,1195.0,0.25,49,160.15
3893,D4,1195.0,0.5,35,160.15
3894,F5,1195.25,0.25,44,160.15
3895,E5,1195.5,0.25,49,160.15
3896,F4,1195.5,0.5,28,160.15
3897,F5,1195.75,0.25,44,160.15
3898,E-6,1196.0,0.25,49,160.15
3899,D4,1196.0,0.5,35,160.15
3900,F5,1196.25,0.25,49,160.15
3901,E-6,1196.5,0.25,54,160.15
3902,F4,1196.5,0.5,25,160.15
3903,F5,1196.75,0.25,49,160.15
3904,D6,1197.0,0.25,49,160.15
3905,D4,1197.0,0.5,32,160.15
3906,F5,1197.25,0.25,46,160.15
3907,E5,1197.5,0.25,49,160.15
3908,F4,1197.5,0.5,24,160.15
3909,F5,1197.75,0.25,44,160.15
3910,G5,1198.0,0.25,49,160.15
3911,E-4,1198.0,0.5,35,160.15
3912,F5,1198.25,0.25,44,160.15
3913,E5,1198.5,0.25,49,160.15
3914,F4,1198.5,0.5,31,160.15
3915,F5,1198.75,0.25,44,160.15
3916,G#5,1199.0,0.25,49,160.15
3917,E-4,1199.0,0.5,35,160.15
3918,F5,1199.25,0.25,49,160.15
3919,E-5,1199.5,0.25,54,160.15
3920,F4,1199.5,0.5,26,160.15
3921,F5,1199.75,0.25,49,160.15
3922,D5,1200.0,0.25,49,160.15
3923,E-4,1200.0,0.5,33,160.15
3924,G5,1200.25,0.25,46,160.15
3925,F#5,1200.5,0.25,49,160.15
3926,F4,1200.5,0.5,29,160.15
3927,G5,1200.75,0.25,44,160.15
3928,A5,1201.0,0.25,49,160.15
3929,D4,1201.0,0.5,35,160.15
3930,G5,1201.25,0.25,44,160.15
3931,F#5,1201.5,0.25,52,160.15
3932,F4,1201.5,0.5,30,160.15
3933,G5,1201.75,0.25,44,160.15
3934,F6,1202.0,0.25,55,160.15
3935,D4,1202.0,0.5,32,160.15
3936,G5,1202.25,0.25,49,160.15
3937,F6,1202.5,0.25,57,160.15
3938,F4,1202.5,0.5,24,160.15
3939,G5,1202.75,0.25,49,160.15
3940,E6,1203.0,1.0,62,160.15
3941,D4,1203.0,0.5,32,160.15
3942,F4,1203.5,0.5,25,160.15
3943,E-6,1204.0,1.0,60,160.15
3944,E-4,1204.0,0.5,35,160.15
3945,F4,1204.5,0.5,31,160.15
3946,D6,1205.0,1.0,57,160.15
3947,E-4,1205.0,0.5,35,160.15
3948,F4,1205.5,0.5,26,160.15
3949,D6,1206.0,11/40,60,160.15
3950,E-4,1206.0,0.5,33,160.15
3951,C6,1206.25,11/40,52,160.15
3952,E-6,1206.5,11/40,52,160.15
3953,F4,1206.5,0.5,29,160.15
3954,C6,1206.75,0.188,52,160.15
3955,C6,1207.0,11/40,62,160.15
3956,C#4,1207.0,0.5,35,160.15
3957,B-5,1207.25,11/40,52,160.15
3958,D6,1207.5,11/40,52,160.15
3959,F4,1207.5,0.5,30,160.15
3960,B-5,1207.75,0.188,52,160.15
3961,B-5,1208.0,11/40,62,160.15
3962,C#4,1208.0,0.5,32,160.15
3963,A5,1208.25,11/40,52,160.15
3964,C6,1208.5,11/40,52,160.15
3965,F4,1208.5,0.5,28,160.15
3966,A5,1208.75,0.25,52,160.15
3967,B-5,1209.0,0.25,54,160.15
3968,C#4,1209.0,0.5,38,160.15
3969,D6,1209.25,0.25,57,160.15
3970,F6,1209.5,0.25,58,160.15
3971,F4,1209.5,0.5,31,160.15
3972,E-6,1209.75,0.25,60,160.15
3973,D6,1210.0,0.25,58,160.15
3974,G3,1210.0,3.0,40,160.15
3975,D4,1210.0,0.5,40,160.15
3976,C6,1210.25,0.25,56,160.15
3977,B-5,1210.5,0.25,54,160.15
3978,F4,1210.5,0.5,34,160.15
3979,A5,1210.75,0.25,52,160.15
3980,G5,1211.0,0.25,55,160.15
3981,D4,1211.0,0.5,38,160.15
3982,F5,1211.25,0.25,51,160.15
3983,E-5,1211.5,0.25,50,160.15
3984,F4,1211.5,0.5,32,160.15
3985,D5,1211.75,0.25,50,160.15
3986,C5,1212.0,0.25,50,160.15
3987,D4,1212.0,0.5,39,160.15
3988,E-5,1212.25,0.25,53,160.15
3989,G5,1212.5,0.25,56,160.15
3990,F4,1212.5,0.5,32,160.15
3991,F5,1212.75,0.25,55,160.15
3992,E-5,1213.0,0.25,54,160.15
3993,E-4,1213.0,1.0,39,160.15
3994,C4,1213.0,1.0,39,160.15
3995,D5,1213.25,0.25,53,160.15
3996,C5,1213.5,0.25,52,160.15
3997,B-4,1213.75,0.25,50,160.15
3998,A4,1214.0,0.25,49,160.15
3999,F4,1214.0,2.0,35,160.15
4000,A3,1214.0,1.0,35,160.15
4001,G4,1214.25,0.25,50,160.15
4002,F4,1214.5,0.25,53,160.15
4003,E4,1214.75,0.25,56,160.15
4004,F4,1215.0,0.25,59,160.15
4005,B-3,1215.0,1.0,35,160.15
4006,B-4,1215.5,0.25,59,160.15
4007,D5,1216.0,0.25,61,160.15
4008,E-3,1216.0,1.0,43,160.15
4009,E-4,1216.0,1.0,43,160.15
4010,F5,1216.5,0.25,62,160.15
4011,B-5,1217.0,0.25,64,160.15
4012,D4,1217.0,1.0,40,160.15
4013,F3,1217.0,2.0,40,160.15
4014,D6,1217.5,0.25,65,160.15
4015,C5,1218.0,0.125,37,160.15
4016,C4,1218.0,1.0,40,160.15
4017,D5,1218.125,0.125,31,160.15
4018,C5,1218.25,0.125,37,160.15
4019,D5,1218.375,0.125,31,160.15
4020,C5,1218.5,0.125,37,160.15
4021,D5,1218.625,0.125,32,160.15
4022,C5,1218.75,0.125,37,160.15
4023,D5,1218.875,0.125,33,160.15
4024,C5,1219.0,0.125,37,160.15
4025,B-3,1219.0,1.0,40,160.15
4026,D5,1219.125,0.125,32,160.15
4027,C5,1219.25,0.125,37,160.15
4028,D5,1219.375,0.125,32,160.15
4029,C5,1219.5,0.125,37,160.15
4030,D5,1219.625,0.125,31,160.15
4031,C5,1219.75,0.125,37,160.15
4032,D5,1219.875,0.125,33,160.15
4033,C5,1220.0,0.125,37,160.15
4034,D5,1220.125,0.125,32,160.15
4035,C5,1220.25,167/1000,37,160.15
4036,D5,1220.417,167/1000,32,160.15
4037,D3,1220.5,0.5,45,160.15
4038,C5,1220.583,167/1000,37,160.15
4039,B-4,1220.75,0.125,33,160.15
4040,C5,1220.875,0.125,33,160.15
4041,B-4,1221.0,1.0,49,160.15
4042,C3,1221.0,0.5,50,160.15
4043,B-2,1221.5,0.5,45,160.15
4044,A2,1222.0,1.0,40,160.15
4045,G3,1223.5,0.5,45,160.15
4046,E-5,1224.0,1.0,46,160.15
4047,F3,1224.0,0.5,50,160.15
4048,A2,1224.5,0.5,45,160.15
4049,F5,1225.0,1.0,50,160.15
4050,B-2,1225.0,1.0,40,160.15
4051,G5,1226.0,1.0,51,160.15
4052,D4,1226.5,0.5,48,160.15
4053,F5,1227.0,1.5,51,160.15
4054,C4,1227.0,0.5,52,160.15
4055,B-3,1227.5,0.5,48,160.15
4056,A3,1228.0,1.0,48,160.15
4057,G5,1228.5,11/40,48,160.15
4058,F5,1228.75,11/40,43,160.15
4059,E-5,1229.0,11/40,50,160.15
4060,D5,1229.25,11/40,48,160.15
4061,C5,1229.5,11/40,47,160.15
4062,G4,1229.5,0.5,49,160.15
4063,B-4,1229.75,0.25,45,160.15
4064,D5,1230.0,1.5,48,160.15
4065,F4,1230.0,0.5,50,160.15
4066,A3,1230.5,0.5,46,160.15
4067,B-3,1231.0,1.0,50,160.15
4068,E-5,1231.5,0.5,40,160.15
4069,C5,1232.0,1.0,44,160.15
4070,F4,1232.5,0.5,50,160.15
4071,B-4,1233.0,1.0,46,160.15
4072,D4,1233.0,0.5,54,160.15
4073,C4,1233.5,0.5,51,160.15
4074,B3,1234.0,1.0,54,160.15
4075,G#4,1235.5,0.5,45,160.15
4076,E-4,1236.0,0.5,52,160.15
4077,G4,1236.0,0.5,50,160.15
4078,E-5,1236.5,0.5,47,160.15
4079,B3,1236.5,0.5,45,160.15
4080,F4,1237.0,0.5,54,160.15
4081,C4,1237.0,0.25,42,160.15
4082,G4,1237.25,0.25,33,160.15
4083,F5,1237.5,0.5,47,160.15
4084,E4,1237.5,0.25,36,160.15
4085,G4,1237.75,0.25,33,160.15
4086,G4,1238.0,0.5,58,160.15
4087,A3,1238.0,0.25,38,160.15
4088,F#4,1238.25,0.25,33,160.15
4089,G5,1238.5,0.5,52,160.15
4090,C4,1238.5,0.25,36,160.15
4091,F#4,1238.75,0.25,33,160.15
4092,F5,1239.0,0.5,61,160.15
4093,B-3,1239.0,0.25,39,160.15
4094,F4,1239.25,0.25,33,160.15
4095,G5,1239.5,0.25,54,160.15
4096,D4,1239.5,0.25,37,160.15
4097,A5,1239.75,0.25,58,160.15
4098,F4,1239.75,0.25,37,160.15
4099,B-5,1240.0,0.25,61,160.15
4100,E-3,1240.0,1.0,34,160.15
4101,E-4,1240.0,1.0,34,160.15
4102,A5,1240.25,0.25,61,160.15
4103,G5,1240.5,0.25,60,160.15
4104,F5,1240.75,0.25,58,160.15
4105,E-5,1241.0,0.25,57,160.15
4106,F3,1241.0,1.0,34,160.15
4107,D4,1241.0,1.0,34,160.15
4108,D5,1241.25,0.25,55,160.15
4109,C5,1241.5,0.25,54,160.15
4110,B-4,1241.75,0.25,52,160.15
4111,D5,1242.0,1.5,62,160.15
4112,E-3,1242.0,1.0,34,160.15
4113,C4,1242.0,1.0,34,160.15
4114,D3,1243.0,1.0,37,160.15
4115,B-3,1243.0,1.0,37,160.15
4116,E-5,1243.5,0.5,56,160.15
4117,C5,1244.0,1.0,62,160.15
4118,B-4,1245.0,1.0,67,160.15
4119,F4,1245.0,1.0,34,160.15
4120,D4,1245.0,1.0,34,160.15
4121,E-4,1246.0,1.0,40,160.15
4122,G4,1246.0,1.0,40,160.15
4123,F5,1246.25,0.25,60,160.15
4124,G5,1246.5,0.25,65,160.15
4125,F5,1246.75,0.25,60,160.15
4126,E-5,1247.0,0.25,64,160.15
4127,D5,1247.25,0.25,62,160.15
4128,E-5,1247.5,0.25,60,160.15
4129,C5,1247.75,0.25,58,160.15
4130,B-4,1248.0,1.0,68,160.15
4131,G3,1248.0,1.0,33,160.15
4132,B-3,1248.0,1.0,33,160.15
4133,C4,1248.0,1.0,33,160.15
4134,F3,1249.0,0.25,45,160.15
4135,F4,1249.25,0.25,60,160.15
4136,D4,1249.25,0.25,37,160.15
4137,G4,1249.5,0.25,65,160.15
4138,B-3,1249.5,0.25,40,160.15
4139,F4,1249.75,0.25,60,160.15
4140,D4,1249.75,0.25,37,160.15
4141,E-4,1250.0,0.25,64,160.15
4142,F3,1250.0,0.25,45,160.15
4143,D4,1250.25,0.25,62,160.15
4144,D4,1250.25,0.25,37,160.15
4145,E-4,1250.5,0.25,60,160.15
4146,B-3,1250.5,0.25,40,160.15
4147,C4,1250.75,0.25,58,160.15
4148,D4,1250.75,0.25,37,160.15
4149,B-3,1251.0,7/20,71,160.15
4150,F3,1251.0,0.25,48,160.15
4151,D4,1251.25,0.25,37,160.15
4152,B-3,1251.5,0.25,41,160.15
4153,D4,1251.75,0.25,37,160.15
4154,F3,1252.0,0.25,45,160.15
4155,D5,1252.0,1.0,65,160.15
4156,F5,1252.0,1.0,65,160.15
4157,B-5,1252.0,1.0,65,160.15
4158,E-4,1252.25,0.25,37,160.15
4159,A3,1252.5,0.25,40,160.15
4160,E-4,1252.75,0.25,37,160.15
4161,F3,1253.0,0.25,45,160.15
4162,E-4,1253.25,0.25,37,160.15
4163,A3,1253.5,0.25,40,160.15
4164,E-4,1253.75,0.25,37,160.15
4165,F3,1254.0,0.25,48,160.15
4166,E-4,1254.25,0.25,37,160.15
4167,A3,1254.5,0.25,41,160.15
4168,E-4,1254.75,0.25,37,160.15
4169,B-3,1255.0,21/40,41,160.15
4170,D4,1255.5,21/40,28,160.15
4171,F4,1256.0,21/40,35,160.15
4172,B-4,1256.5,21/40,34,160.15
4173,A4,1257.0,21/40,32,160.15
4174,G#4,1257.5,0.5,30,160.15
4175,G4,1258.0,0.5,28,160.15
4176,G#4,1258.0,1/40,30,160.15
4177,B-4,1258.5,0.5,21,160.15
4178,F4,1259.0,0.5,31,160.15
4179,B-4,1259.5,0.5,24,160.15
4180,E-4,1260.0,0.5,31,160.15
4181,B-4,1260.5,0.5,25,160.15
4182,D4,1261.0,0.5,31,160.15
4183,B-4,1261.5,0.5,28,160.15
4184,A4,1262.0,0.5,31,160.15
4185,B-4,1262.5,0.5,28,160.15
4186,G3,1263.0,0.5,31,160.15
4187,E-4,1263.5,0.5,27,160.15
4188,F3,1264.0,0.5,31,160.15
4189,D4,1264.5,0.5,27,160.15
4190,B-3,1265.0,0.5,31,160.15
4191,D4,1265.5,0.5,29,160.15
4192,F3,1266.0,0.5,31,160.15
4193,E-4,1266.5,0.5,27,160.15
4194,D4,1267.0,0.5,31,160.15
4195,B-3,1267.5,0.5,24,160.15
4196,A3,1268.0,0.5,30,160.15
4197,G#3,1268.5,0.5,26,160.15
4198,G3,1269.0,0.5,29,160.15
4199,F#3,1269.5,0.5,31,160.15
4200,G3,1270.0,0.5,28,160.15
4201,B-3,1270.5,0.5,27,160.15
4202,F3,1271.0,0.5,38,160.15
4203,A3,1271.5,0.5,32,160.15
4204,E3,1272.0,0.5,40,160.15
4205,C#4,1272.5,0.5,34,160.15
4206,F3,1273.0,0.5,41,160.15
4207,D4,1273.5,0.5,35,160.15
4208,B-3,1274.0,0.5,38,160.15
4209,D4,1274.5,0.5,33,160.15
4210,F3,1275.0,0.5,40,160.15
4211,D4,1275.5,0.5,35,160.15
4212,F3,1276.0,0.5,41,160.15
4213,F4,1276.5,0.5,33,160.15
4214,D4,1277.0,0.5,43,160.15
4215,F4,1277.5,0.5,33,160.15
4216,F3,1278.0,0.5,45,160.15
4217,E-4,1278.5,0.5,38,160.15
4218,B-3,1279.25,0.25,54,160.15
4219,D4,1279.5,0.25,56,160.15
4220,F4,1279.75,0.25,59,160.15
4221,B-4,1280.0,0.5,61,160.15
4222,F3,1281.0,0.5,54,160.15
4223,A3,1281.0,0.5,54,160.15
4224,B-2,1282.25,0.25,54,160.15
4225,D3,1282.5,0.25,56,160.15
4226,F3,1282.75,0.25,59,160.15
4227,B-3,1283.0,0.5,61,160.15
4228,A2,1284.0,0.5,54,160.15
4229,F2,1284.0,0.5,54,160.15
4230,B-2,1285.0,7/20,59,160.15
4231,B-1,1286.0,1.0,59,160.15
