,note_name,start_time,duration,velocity,tempo
0,C5,0.0,2.0,60,136.54
1,C4,0.0,0.5,40,136.54
2,G4,0.5,0.5,30,136.54
3,E4,1.0,0.5,30,136.54
4,G4,1.5,0.5,30,136.54
5,E5,2.0,1.0,60,136.54
6,C4,2.0,0.5,40,136.54
7,G4,2.5,0.5,30,136.54
8,G5,3.0,1.0,60,136.54
9,E4,3.0,0.5,30,136.54
10,G4,3.5,0.5,30,136.54
11,B4,4.0,1.5,60,136.54
12,D4,4.0,0.5,30,136.54
13,G4,4.5,0.5,29,136.54
14,F4,5.0,0.5,31,136.54
15,C5,5.5,0.25,55,136.54
16,G4,5.5,0.5,28,136.54
17,D5,5.75,0.25,51,136.54
18,C5,6.0,1.0,60,136.54
19,C4,6.0,0.5,40,136.54
20,G4,6.5,0.5,29,136.54
21,E4,7.0,0.5,32,136.54
22,G4,7.5,0.5,29,136.54
23,A5,8.0,2.0,64,136.54
24,C4,8.0,0.5,40,136.54
25,A4,8.5,0.5,32,136.54
26,F4,9.0,0.5,32,136.54
27,A4,9.5,0.5,32,136.54
28,G5,10.0,1.0,62,136.54
29,C4,10.0,0.5,40,136.54
30,G4,10.5,0.5,32,136.54
31,C6,11.0,1.0,64,136.54
32,E4,11.0,0.5,32,136.54
33,G4,11.5,0.5,32,136.54
34,G5,12.0,1.0,64,136.54
35,B3,12.0,0.5,40,136.54
36,G4,12.5,0.5,32,136.54
37,F5,13.0,167/1000,55,136.54
38,D4,13.0,0.5,32,136.54
39,G5,13.167,167/1000,55,136.54
40,F5,13.333,167/1000,55,136.54
41,E5,13.5,0.25,59,136.54
42,G4,13.5,0.5,32,136.54
43,F5,13.75,0.25,55,136.54
44,E5,14.0,1.0,60,136.54
45,C4,14.0,0.5,40,136.54
46,G4,14.5,0.5,34,136.54
47,E4,15.0,0.5,34,136.54
48,G4,15.5,0.5,34,136.54
49,A4,16.0,0.5,60,136.54
50,F4,16.0,1.0,40,136.54
51,B4,16.5,11/40,53,136.54
52,C5,16.75,11/40,54,136.54
53,D5,17.0,11/40,55,136.54
54,E5,17.25,11/40,57,136.54
55,F5,17.5,11/40,58,136.54
56,G5,17.75,11/40,59,136.54
57,A5,18.0,11/40,62,136.54
58,G5,18.25,11/40,61,136.54
59,F5,18.5,11/40,60,136.54
60,E5,18.75,11/40,59,136.54
61,D5,19.0,11/40,58,136.54
62,F3,19.0,1.0,40,136.54
63,C4,19.0,1.0,40,136.54
64,C5,19.25,11/40,57,136.54
65,B4,19.5,11/40,55,136.54
66,A4,19.75,0.25,53,136.54
67,G4,20.0,0.5,60,136.54
68,A4,20.0,1/40,53,136.54
69,E3,20.0,1.0,40,136.54
70,C4,20.0,1.0,40,136.54
71,A4,20.5,11/40,53,136.54
72,B4,20.75,11/40,54,136.54
73,C5,21.0,11/40,55,136.54
74,D5,21.25,11/40,57,136.54
75,E5,21.5,11/40,58,136.54
76,F5,21.75,11/40,59,136.54
77,G5,22.0,11/40,62,136.54
78,F5,22.25,11/40,61,136.54
79,E5,22.5,11/40,60,136.54
80,D5,22.75,11/40,59,136.54
81,C5,23.0,11/40,58,136.54
82,E3,23.0,1.0,40,136.54
83,C4,23.0,1.0,40,136.54
84,B4,23.25,11/40,57,136.54
85,A4,23.5,11/40,55,136.54
86,G4,23.75,0.25,53,136.54
87,F4,24.0,0.5,60,136.54
88,G4,24.0,1/40,53,136.54
89,D3,24.0,1.0,40,136.54
90,C4,24.0,1.0,40,136.54
91,G4,24.5,11/40,53,136.54
92,A4,24.75,11/40,54,136.54
93,B4,25.0,11/40,55,136.54
94,C5,25.25,11/40,57,136.54
95,D5,25.5,11/40,58,136.54
96,E5,25.75,11/40,59,136.54
97,F5,26.0,11/40,62,136.54
98,E5,26.25,11/40,61,136.54
99,D5,26.5,11/40,60,136.54
100,C5,26.75,11/40,59,136.54
101,B4,27.0,11/40,58,136.54
102,D3,27.0,1.0,40,136.54
103,B3,27.0,1.0,40,136.54
104,A4,27.25,11/40,57,136.54
105,G4,27.5,11/40,55,136.54
106,F4,27.75,0.25,53,136.54
107,E4,28.0,0.5,60,136.54
108,F4,28.0,1/40,53,136.54
109,C3,28.0,1.0,40,136.54
110,C4,28.0,1.0,40,136.54
111,F4,28.5,11/40,53,136.54
112,G4,28.75,11/40,54,136.54
113,A4,29.0,11/40,55,136.54
114,B4,29.25,11/40,57,136.54
115,C5,29.5,11/40,58,136.54
116,D5,29.75,11/40,59,136.54
117,E5,30.0,11/40,62,136.54
118,D5,30.25,11/40,61,136.54
119,C5,30.5,11/40,60,136.54
120,B4,30.75,11/40,59,136.54
121,A4,31.0,11/40,58,136.54
122,E3,31.0,1.0,40,136.54
123,C3,31.0,1.0,40,136.54
124,G4,31.25,11/40,57,136.54
125,F4,31.5,11/40,55,136.54
126,E4,31.75,0.25,53,136.54
127,D4,32.0,0.5,60,136.54
128,E4,32.0,1/40,53,136.54
129,F3,32.0,4.0,40,136.54
130,A3,32.0,4.0,40,136.54
131,E4,32.5,11/40,53,136.54
132,F4,32.75,11/40,54,136.54
133,G4,33.0,11/40,55,136.54
134,A4,33.25,11/40,57,136.54
135,B4,33.5,11/40,58,136.54
136,C#5,33.75,11/40,59,136.54
137,D5,34.0,0.25,62,136.54
138,A4,34.25,11/40,58,136.54
139,B4,34.5,11/40,61,136.54
140,C#5,34.75,11/40,64,136.54
141,D5,35.0,11/40,66,136.54
142,E5,35.25,11/40,67,136.54
143,F5,35.5,11/40,68,136.54
144,G5,35.75,0.25,69,136.54
145,A5,36.0,11/40,70,136.54
146,G5,36.0,1/40,69,136.54
147,F3,36.0,1.5,60,136.54
148,B5,36.25,11/40,69,136.54
149,C6,36.5,11/40,71,136.54
150,B5,36.75,11/40,69,136.54
151,A5,37.0,11/40,67,136.54
152,G5,37.25,11/40,65,136.54
153,F5,37.5,11/40,63,136.54
154,G3,37.5,0.5,55,136.54
155,E5,37.75,0.25,66,136.54
156,F5,38.0,11/40,65,136.54
157,A3,38.0,1.5,60,136.54
158,G5,38.25,11/40,66,136.54
159,A5,38.5,11/40,67,136.54
160,G5,38.75,11/40,67,136.54
161,F5,39.0,11/40,68,136.54
162,E5,39.25,11/40,71,136.54
163,D5,39.5,11/40,73,136.54
164,F#3,39.5,0.5,54,136.54
165,C5,39.75,0.25,76,136.54
166,B4,40.0,0.25,78,136.54
167,C5,40.0,1/40,76,136.54
168,G2,40.0,0.25,65,136.54
169,B2,40.25,0.25,56,136.54
170,G5,40.5,0.25,71,136.54
171,D3,40.5,0.25,56,136.54
172,G3,40.75,0.25,50,136.54
173,E5,41.0,0.25,71,136.54
174,G2,41.0,0.25,65,136.54
175,C3,41.25,0.25,55,136.54
176,C5,41.5,0.25,71,136.54
177,E3,41.5,0.25,55,136.54
178,G3,41.75,0.25,50,136.54
179,D5,42.0,0.25,78,136.54
180,G2,42.0,0.25,65,136.54
181,B2,42.25,0.25,55,136.54
182,G5,42.5,0.25,71,136.54
183,D3,42.5,0.25,55,136.54
184,G3,42.75,0.25,54,136.54
185,E5,43.0,0.25,71,136.54
186,G2,43.0,0.25,65,136.54
187,C3,43.25,0.25,57,136.54
188,C5,43.5,0.25,71,136.54
189,E3,43.5,0.25,56,136.54
190,G3,43.75,0.25,53,136.54
191,D5,44.0,0.25,81,136.54
192,G2,44.0,0.25,65,136.54
193,G3,45.0,0.25,59,136.54
194,B4,45.0,0.25,71,136.54
195,D5,45.0,0.25,71,136.54
196,G5,45.0,0.25,71,136.54
197,G4,46.0,1.0,83,136.54
198,G2,46.0,1.0,61,136.54
199,C#4,48.0,11/40,42,136.54
200,D4,48.25,0.25,36,136.54
201,C#4,48.5,11/40,42,136.54
202,D4,48.75,0.25,36,136.54
203,C#4,49.0,11/40,42,136.54
204,D4,49.25,0.25,38,136.54
205,C#4,49.5,11/40,42,136.54
206,D4,49.75,0.25,37,136.54
207,C4,50.0,11/40,42,136.54
208,D4,50.25,0.25,36,136.54
209,C4,50.5,11/40,42,136.54
210,D4,50.75,0.25,37,136.54
211,C4,51.0,11/40,42,136.54
212,D4,51.25,0.25,37,136.54
213,C4,51.5,11/40,42,136.54
214,D4,51.75,0.25,38,136.54
215,D6,52.0,0.5,61,136.54
216,B3,52.0,0.25,42,136.54
217,D4,52.25,0.25,36,136.54
218,B5,52.5,0.5,55,136.54
219,B3,52.5,0.25,42,136.54
220,D4,52.75,0.25,36,136.54
221,G5,53.0,1.5,61,136.54
222,B3,53.0,0.25,42,136.54
223,D4,53.25,0.25,32,136.54
224,B3,53.5,0.25,38,136.54
225,D4,53.75,0.25,33,136.54
226,B3,54.0,0.25,39,136.54
227,D4,54.25,0.25,32,136.54
228,A5,54.5,0.25,53,136.54
229,B3,54.5,0.25,39,136.54
230,B5,54.75,0.25,51,136.54
231,D4,54.75,0.25,34,136.54
232,A5,55.0,0.5,55,136.54
233,B3,55.0,0.25,42,136.54
234,D4,55.25,0.25,37,136.54
235,G5,55.5,0.25,53,136.54
236,B3,55.5,0.25,42,136.54
237,D4,55.75,0.25,38,136.54
238,G5,56.0,0.125,55,136.54
239,C4,56.0,0.25,46,136.54
240,A5,56.125,0.125,51,136.54
241,G5,56.25,0.125,56,136.54
242,D4,56.25,0.25,38,136.54
243,A5,56.375,0.125,51,136.54
244,G5,56.5,0.25,58,136.54
245,B3,56.5,0.25,42,136.54
246,F#5,56.75,229/1000,52,136.54
247,D4,56.75,0.25,36,136.54
248,F#5,57.0,1.0,58,136.54
249,A3,57.0,11/40,39,136.54
250,D4,57.25,0.25,27,136.54
251,B3,57.5,11/40,47,136.54
252,D4,57.75,0.25,35,136.54
253,C4,58.0,11/40,50,136.54
254,D4,58.25,0.25,36,136.54
255,B3,58.5,11/40,44,136.54
256,D4,58.75,0.25,30,136.54
257,C4,59.0,11/40,52,136.54
258,D4,59.25,0.25,31,136.54
259,A3,59.5,11/40,40,136.54
260,D4,59.75,0.25,28,136.54
261,D6,60.0,0.5,61,136.54
262,B3,60.0,0.25,42,136.54
263,D4,60.25,0.25,36,136.54
264,B5,60.5,0.5,55,136.54
265,B3,60.5,0.25,42,136.54
266,D4,60.75,0.25,36,136.54
267,G5,61.0,1.5,61,136.54
268,B3,61.0,0.25,42,136.54
269,D4,61.25,0.25,32,136.54
270,B3,61.5,0.25,38,136.54
271,D4,61.75,0.25,33,136.54
272,B3,62.0,0.25,39,136.54
273,D4,62.25,0.25,32,136.54
274,A5,62.5,0.25,53,136.54
275,B3,62.5,0.25,39,136.54
276,B5,62.75,0.25,51,136.54
277,D4,62.75,0.25,34,136.54
278,A5,63.0,0.5,55,136.54
279,B3,63.0,0.25,42,136.54
280,D4,63.25,0.25,37,136.54
281,G5,63.5,0.25,53,136.54
282,B3,63.5,0.25,42,136.54
283,D4,63.75,0.25,38,136.54
284,G5,64.0,0.125,55,136.54
285,C4,64.0,0.25,42,136.54
286,A5,64.125,0.125,51,136.54
287,G5,64.25,0.125,56,136.54
288,D4,64.25,0.25,36,136.54
289,A5,64.375,0.125,50,136.54
290,G5,64.5,0.25,55,136.54
291,B3,64.5,0.25,42,136.54
292,F#5,64.75,0.188,52,136.54
293,D4,64.75,0.25,36,136.54
294,F#5,65.0,1.0,58,136.54
295,A3,65.0,11/40,39,136.54
296,D4,65.25,0.25,29,136.54
297,B3,65.5,11/40,42,136.54
298,D4,65.75,0.25,32,136.54
299,C4,66.0,11/40,48,136.54
300,D4,66.25,0.25,36,136.54
301,B3,66.5,11/40,43,136.54
302,D4,66.75,0.25,30,136.54
303,C4,67.0,11/40,48,136.54
304,D4,67.25,0.25,36,136.54
305,A3,67.5,11/40,43,136.54
306,D4,67.75,0.25,30,136.54
307,D6,68.0,1.0,69,136.54
308,B3,68.25,0.25,39,136.54
309,D4,68.5,0.25,42,136.54
310,G4,68.75,0.25,39,136.54
311,B4,69.0,1.0,48,136.54
312,D6,69.25,0.25,61,136.54
313,B5,69.5,0.25,66,136.54
314,G5,69.75,0.25,61,136.54
315,E5,70.0,1.0,68,136.54
316,C4,70.25,0.25,42,136.54
317,E4,70.5,0.25,44,136.54
318,G4,70.75,0.25,41,136.54
319,C5,71.0,1.0,52,136.54
320,E5,71.25,0.25,61,136.54
321,G5,71.5,0.25,66,136.54
322,E5,71.75,0.25,61,136.54
323,C6,72.0,1.0,69,136.54
324,A3,72.25,0.25,39,136.54
325,C4,72.5,0.25,42,136.54
326,F#4,72.75,0.25,39,136.54
327,A4,73.0,1.0,48,136.54
328,C6,73.25,0.25,61,136.54
329,A5,73.5,0.25,66,136.54
330,F#5,73.75,0.25,61,136.54
331,D5,74.0,1.0,68,136.54
332,B3,74.25,0.25,42,136.54
333,D4,74.5,0.25,44,136.54
334,F#4,74.75,0.25,41,136.54
335,B4,75.0,1.0,52,136.54
336,D5,75.25,0.25,61,136.54
337,F#5,75.5,0.25,66,136.54
338,D5,75.75,0.25,61,136.54
339,B5,76.0,1.0,68,136.54
340,G3,76.25,0.25,39,136.54
341,B3,76.5,0.25,42,136.54
342,E4,76.75,0.25,39,136.54
343,G4,77.0,1.0,48,136.54
344,B5,77.25,0.25,61,136.54
345,G5,77.5,0.25,66,136.54
346,E5,77.75,0.25,61,136.54
347,C5,78.0,1.0,68,136.54
348,A3,78.25,0.25,42,136.54
349,C4,78.5,0.25,44,136.54
350,E4,78.75,0.25,41,136.54
351,A4,79.0,1.0,52,136.54
352,C5,79.25,0.25,61,136.54
353,E5,79.5,0.25,66,136.54
354,C5,79.75,0.25,61,136.54
355,A5,80.0,1.0,68,136.54
356,F#3,80.25,0.25,39,136.54
357,A3,80.5,0.25,42,136.54
358,D4,80.75,0.25,39,136.54
359,F#4,81.0,1.0,48,136.54
360,A5,81.25,0.25,61,136.54
361,F#5,81.5,0.25,66,136.54
362,C5,81.75,0.25,61,136.54
363,B4,82.0,1.0,68,136.54
364,G3,82.25,0.25,42,136.54
365,B3,82.5,0.25,44,136.54
366,D4,82.75,0.25,41,136.54
367,G4,83.0,1.0,52,136.54
368,G5,83.25,0.25,61,136.54
369,D5,83.5,0.25,66,136.54
370,B4,83.75,0.25,61,136.54
371,A4,84.0,1.875,66,136.54
372,C4,84.0,0.25,44,136.54
373,E4,84.0,0.25,44,136.54
374,C4,84.5,0.25,39,136.54
375,E4,84.5,0.25,39,136.54
376,C4,85.0,0.25,39,136.54
377,E4,85.0,0.25,39,136.54
378,C4,85.5,0.25,39,136.54
379,E4,85.5,0.25,39,136.54
380,B4,85.875,0.125,64,136.54
381,C5,86.0,0.875,69,136.54
382,C4,86.0,0.25,44,136.54
383,E4,86.0,0.25,44,136.54
384,C4,86.5,0.25,40,136.54
385,E4,86.5,0.25,40,136.54
386,E-5,86.875,0.125,65,136.54
387,E5,87.0,0.875,72,136.54
388,C4,87.0,0.25,40,136.54
389,E4,87.0,0.25,40,136.54
390,C4,87.5,0.25,41,136.54
391,E4,87.5,0.25,41,136.54
392,G#5,87.875,0.125,65,136.54
393,A5,88.0,1.5,71,136.54
394,C4,88.0,0.25,50,136.54
395,E4,88.0,0.25,50,136.54
396,C4,88.5,0.25,44,136.54
397,E4,88.5,0.25,44,136.54
398,C4,89.0,0.25,44,136.54
399,E4,89.0,0.25,44,136.54
400,B5,89.5,0.125,66,136.54
401,C4,89.5,0.25,44,136.54
402,E4,89.5,0.25,44,136.54
403,A5,89.625,0.125,66,136.54
404,G#5,89.75,0.125,66,136.54
405,A5,89.875,0.125,66,136.54
406,C6,90.0,0.5,74,136.54
407,C4,90.0,0.25,49,136.54
408,E4,90.0,0.25,49,136.54
409,A5,90.5,0.5,68,136.54
410,C4,90.5,0.25,46,136.54
411,E4,90.5,0.25,46,136.54
412,C6,91.0,0.5,75,136.54
413,C4,91.0,0.25,46,136.54
414,E4,91.0,0.25,46,136.54
415,A5,91.5,0.5,69,136.54
416,C4,91.5,0.25,46,136.54
417,E4,91.5,0.25,46,136.54
418,B5,92.0,0.5,78,136.54
419,D4,92.0,0.25,50,136.54
420,B4,92.25,0.25,42,136.54
421,G5,92.5,0.5,73,136.54
422,G4,92.5,0.25,42,136.54
423,B4,92.75,0.25,42,136.54
424,D6,93.0,2.0,79,136.54
425,D4,93.0,0.25,49,136.54
426,B4,93.25,0.25,42,136.54
427,G4,93.5,0.25,42,136.54
428,B4,93.75,0.25,42,136.54
429,D4,94.0,0.25,48,136.54
430,B4,94.25,0.25,42,136.54
431,G4,94.5,0.25,42,136.54
432,B4,94.75,0.25,42,136.54
433,C6,95.0,0.25,70,136.54
434,D4,95.0,0.25,49,136.54
435,B5,95.25,0.25,68,136.54
436,B4,95.25,0.25,42,136.54
437,A5,95.5,0.25,67,136.54
438,G4,95.5,0.25,42,136.54
439,G5,95.75,0.25,65,136.54
440,B4,95.75,0.25,42,136.54
441,A5,96.0,0.125,49,136.54
442,D4,96.0,0.25,50,136.54
443,B5,96.125,0.125,38,136.54
444,A5,96.25,0.125,49,136.54
445,C5,96.25,0.25,42,136.54
446,B5,96.375,0.125,40,136.54
447,A5,96.5,0.125,50,136.54
448,F#4,96.5,0.25,42,136.54
449,B5,96.625,0.125,40,136.54
450,A5,96.75,0.125,50,136.54
451,C5,96.75,0.25,42,136.54
452,B5,96.875,0.125,40,136.54
453,A5,97.0,0.125,52,136.54
454,D4,97.0,0.25,49,136.54
455,B5,97.125,0.125,40,136.54
456,A5,97.25,0.125,52,136.54
457,C5,97.25,0.25,42,136.54
458,B5,97.375,0.125,41,136.54
459,A5,97.5,0.125,53,136.54
460,F#4,97.5,0.25,42,136.54
461,B5,97.625,0.125,41,136.54
462,A5,97.75,0.125,53,136.54
463,C5,97.75,0.25,42,136.54
464,B5,97.875,0.125,42,136.54
465,A5,98.0,0.125,54,136.54
466,D4,98.0,0.25,48,136.54
467,B5,98.125,0.125,43,136.54
468,A5,98.25,0.125,54,136.54
469,C5,98.25,0.25,42,136.54
470,B5,98.375,0.125,45,136.54
471,A5,98.5,0.125,54,136.54
472,F#4,98.5,0.25,42,136.54
473,B5,98.625,0.125,44,136.54
474,A5,98.75,0.125,54,136.54
475,C5,98.75,0.25,42,136.54
476,B5,98.875,0.125,44,136.54
477,A5,99.0,0.125,53,136.54
478,D4,99.0,0.25,49,136.54
479,B5,99.125,0.125,45,136.54
480,A5,99.25,0.125,53,136.54
481,C5,99.25,0.25,42,136.54
482,B5,99.375,0.125,42,136.54
483,A5,99.5,167/1000,53,136.54
484,F#4,99.5,0.25,42,136.54
485,G5,99.667,167/1000,59,136.54
486,C5,99.75,0.25,42,136.54
487,A5,99.833,167/1000,58,136.54
488,G5,100.0,1.0,69,136.54
489,G4,100.0,1.0,54,136.54
490,B4,100.0,1.0,54,136.54
491,G5,101.0,0.25,67,136.54
492,D5,101.25,0.25,59,136.54
493,G5,101.5,0.25,62,136.54
494,B5,101.75,0.25,65,136.54
495,D6,102.0,0.25,68,136.54
496,B5,102.25,0.25,63,136.54
497,G5,102.5,0.25,68,136.54
498,B5,102.75,0.25,63,136.54
499,C6,103.0,0.25,69,136.54
500,D4,103.0,1.0,43,136.54
501,A4,103.0,1.0,43,136.54
502,C5,103.0,1.0,43,136.54
503,A5,103.25,0.25,63,136.54
504,F#5,103.5,0.25,69,136.54
505,A5,103.75,0.25,63,136.54
506,G5,104.0,1.0,69,136.54
507,G4,104.0,1.0,54,136.54
508,B4,104.0,1.0,54,136.54
509,G4,105.0,0.25,67,136.54
510,D4,105.25,0.25,59,136.54
511,G4,105.5,0.25,62,136.54
512,B4,105.75,0.25,65,136.54
513,D5,106.0,0.25,68,136.54
514,B4,106.25,0.25,63,136.54
515,G4,106.5,0.25,68,136.54
516,B4,106.75,0.25,63,136.54
517,C5,107.0,0.25,69,136.54
518,D3,107.0,1.0,43,136.54
519,A3,107.0,1.0,43,136.54
520,C4,107.0,1.0,43,136.54
521,A4,107.25,0.25,63,136.54
522,F#4,107.5,0.25,69,136.54
523,A4,107.75,0.25,63,136.54
524,G4,108.0,0.25,74,136.54
525,G3,108.0,0.25,48,136.54
526,B3,108.0,0.25,48,136.54
527,D5,109.0,0.25,71,136.54
528,B5,109.0,0.25,71,136.54
529,G2,109.0,0.25,48,136.54
530,G3,109.0,0.25,48,136.54
531,B4,110.0,1.0,68,136.54
532,G5,110.0,1.0,68,136.54
533,G2,110.0,1.0,48,136.54
534,G3,110.0,1.0,48,136.54
535,C5,112.0,2.0,60,136.54
536,C4,112.0,0.5,40,136.54
537,G4,112.5,0.5,30,136.54
538,E4,113.0,0.5,30,136.54
539,G4,113.5,0.5,30,136.54
540,E5,114.0,1.0,60,136.54
541,C4,114.0,0.5,40,136.54
542,G4,114.5,0.5,30,136.54
543,G5,115.0,1.0,60,136.54
544,E4,115.0,0.5,30,136.54
545,G4,115.5,0.5,30,136.54
546,B4,116.0,1.5,60,136.54
547,D4,116.0,0.5,30,136.54
548,G4,116.5,0.5,29,136.54
549,F4,117.0,0.5,31,136.54
550,C5,117.5,0.25,55,136.54
551,G4,117.5,0.5,28,136.54
552,D5,117.75,0.25,51,136.54
553,C5,118.0,1.0,60,136.54
554,C4,118.0,0.5,40,136.54
555,G4,118.5,0.5,29,136.54
556,E4,119.0,0.5,32,136.54
557,G4,119.5,0.5,29,136.54
558,A5,120.0,2.0,64,136.54
559,C4,120.0,0.5,40,136.54
560,A4,120.5,0.5,32,136.54
561,F4,121.0,0.5,32,136.54
562,A4,121.5,0.5,32,136.54
563,G5,122.0,1.0,62,136.54
564,C4,122.0,0.5,40,136.54
565,G4,122.5,0.5,32,136.54
566,C6,123.0,1.0,64,136.54
567,E4,123.0,0.5,32,136.54
568,G4,123.5,0.5,32,136.54
569,G5,124.0,1.0,64,136.54
570,B3,124.0,0.5,40,136.54
571,G4,124.5,0.5,32,136.54
572,F5,125.0,167/1000,55,136.54
573,D4,125.0,0.5,32,136.54
574,G5,125.167,167/1000,55,136.54
575,F5,125.333,167/1000,55,136.54
576,E5,125.5,0.25,59,136.54
577,G4,125.5,0.5,32,136.54
578,F5,125.75,0.25,55,136.54
579,E5,126.0,1.0,60,136.54
580,C4,126.0,0.5,40,136.54
581,G4,126.5,0.5,34,136.54
582,E4,127.0,0.5,34,136.54
583,G4,127.5,0.5,34,136.54
584,A4,128.0,0.5,60,136.54
585,F4,128.0,1.0,40,136.54
586,B4,128.5,11/40,53,136.54
587,C5,128.75,11/40,54,136.54
588,D5,129.0,11/40,55,136.54
589,E5,129.25,11/40,57,136.54
590,F5,129.5,11/40,58,136.54
591,G5,129.75,11/40,59,136.54
592,A5,130.0,11/40,62,136.54
593,G5,130.25,11/40,61,136.54
594,F5,130.5,11/40,60,136.54
595,E5,130.75,11/40,59,136.54
596,D5,131.0,11/40,58,136.54
597,F3,131.0,1.0,40,136.54
598,C4,131.0,1.0,40,136.54
599,C5,131.25,11/40,57,136.54
600,B4,131.5,11/40,55,136.54
601,A4,131.75,0.25,53,136.54
602,G4,132.0,0.5,60,136.54
603,A4,132.0,1/40,53,136.54
604,E3,132.0,1.0,40,136.54
605,C4,132.0,1.0,40,136.54
606,A4,132.5,11/40,53,136.54
607,B4,132.75,11/40,54,136.54
608,C5,133.0,11/40,55,136.54
609,D5,133.25,11/40,57,136.54
610,E5,133.5,11/40,58,136.54
611,F5,133.75,11/40,59,136.54
612,G5,134.0,11/40,62,136.54
613,F5,134.25,11/40,61,136.54
614,E5,134.5,11/40,60,136.54
615,D5,134.75,11/40,59,136.54
616,C5,135.0,11/40,58,136.54
617,E3,135.0,1.0,40,136.54
618,C4,135.0,1.0,40,136.54
619,B4,135.25,11/40,57,136.54
620,A4,135.5,11/40,55,136.54
621,G4,135.75,0.25,53,136.54
622,F4,136.0,0.5,60,136.54
623,G4,136.0,1/40,53,136.54
624,D3,136.0,1.0,40,136.54
625,C4,136.0,1.0,40,136.54
626,G4,136.5,11/40,53,136.54
627,A4,136.75,11/40,54,136.54
628,B4,137.0,11/40,55,136.54
629,C5,137.25,11/40,57,136.54
630,D5,137.5,11/40,58,136.54
631,E5,137.75,11/40,59,136.54
632,F5,138.0,11/40,62,136.54
633,E5,138.25,11/40,61,136.54
634,D5,138.5,11/40,60,136.54
635,C5,138.75,11/40,59,136.54
636,B4,139.0,11/40,58,136.54
637,D3,139.0,1.0,40,136.54
638,B3,139.0,1.0,40,136.54
639,A4,139.25,11/40,57,136.54
640,G4,139.5,11/40,55,136.54
641,F4,139.75,0.25,53,136.54
642,E4,140.0,0.5,60,136.54
643,F4,140.0,1/40,53,136.54
644,C3,140.0,1.0,40,136.54
645,C4,140.0,1.0,40,136.54
646,F4,140.5,11/40,53,136.54
647,G4,140.75,11/40,54,136.54
648,A4,141.0,11/40,55,136.54
649,B4,141.25,11/40,57,136.54
650,C5,141.5,11/40,58,136.54
651,D5,141.75,11/40,59,136.54
652,E5,142.0,11/40,62,136.54
653,D5,142.25,11/40,61,136.54
654,C5,142.5,11/40,60,136.54
655,B4,142.75,11/40,59,136.54
656,A4,143.0,11/40,58,136.54
657,E3,143.0,1.0,40,136.54
658,C3,143.0,1.0,40,136.54
659,G4,143.25,11/40,57,136.54
660,F4,143.5,11/40,55,136.54
661,E4,143.75,0.25,53,136.54
662,D4,144.0,0.5,60,136.54
663,E4,144.0,1/40,53,136.54
664,F3,144.0,4.0,40,136.54
665,A3,144.0,4.0,40,136.54
666,E4,144.5,11/40,53,136.54
667,F4,144.75,11/40,54,136.54
668,G4,145.0,11/40,55,136.54
669,A4,145.25,11/40,57,136.54
670,B4,145.5,11/40,58,136.54
671,C#5,145.75,11/40,59,136.54
672,D5,146.0,0.25,62,136.54
673,A4,146.25,11/40,58,136.54
674,B4,146.5,11/40,61,136.54
675,C#5,146.75,11/40,64,136.54
676,D5,147.0,11/40,66,136.54
677,E5,147.25,11/40,67,136.54
678,F5,147.5,11/40,68,136.54
679,G5,147.75,0.25,69,136.54
680,A5,148.0,11/40,70,136.54
681,G5,148.0,1/40,69,136.54
682,F3,148.0,1.5,60,136.54
683,B5,148.25,11/40,69,136.54
684,C6,148.5,11/40,71,136.54
685,B5,148.75,11/40,69,136.54
686,A5,149.0,11/40,67,136.54
687,G5,149.25,11/40,65,136.54
688,F5,149.5,11/40,63,136.54
689,G3,149.5,0.5,55,136.54
690,E5,149.75,0.25,66,136.54
691,F5,150.0,11/40,65,136.54
692,A3,150.0,1.5,60,136.54
693,G5,150.25,11/40,66,136.54
694,A5,150.5,11/40,67,136.54
695,G5,150.75,11/40,67,136.54
696,F5,151.0,11/40,68,136.54
697,E5,151.25,11/40,71,136.54
698,D5,151.5,11/40,73,136.54
699,F#3,151.5,0.5,54,136.54
700,C5,151.75,0.25,76,136.54
701,B4,152.0,0.25,78,136.54
702,C5,152.0,1/40,76,136.54
703,G2,152.0,0.25,65,136.54
704,B2,152.25,0.25,56,136.54
705,G5,152.5,0.25,71,136.54
706,D3,152.5,0.25,56,136.54
707,G3,152.75,0.25,50,136.54
708,E5,153.0,0.25,71,136.54
709,G2,153.0,0.25,65,136.54
710,C3,153.25,0.25,55,136.54
711,C5,153.5,0.25,71,136.54
712,E3,153.5,0.25,55,136.54
713,G3,153.75,0.25,50,136.54
714,D5,154.0,0.25,78,136.54
715,G2,154.0,0.25,65,136.54
716,B2,154.25,0.25,55,136.54
717,G5,154.5,0.25,71,136.54
718,D3,154.5,0.25,55,136.54
719,G3,154.75,0.25,54,136.54
720,E5,155.0,0.25,71,136.54
721,G2,155.0,0.25,65,136.54
722,C3,155.25,0.25,57,136.54
723,C5,155.5,0.25,71,136.54
724,E3,155.5,0.25,56,136.54
725,G3,155.75,0.25,53,136.54
726,D5,156.0,0.25,81,136.54
727,G2,156.0,0.25,65,136.54
728,G3,157.0,0.25,59,136.54
729,B4,157.0,0.25,71,136.54
730,G5,157.0,0.25,71,136.54
731,D5,157.0,0.25,71,136.54
732,G4,158.0,1.0,83,136.54
733,G2,158.0,1.0,61,136.54
734,C#4,160.0,11/40,42,136.54
735,D4,160.25,0.25,36,136.54
736,C#4,160.5,11/40,42,136.54
737,D4,160.75,0.25,36,136.54
738,C#4,161.0,11/40,42,136.54
739,D4,161.25,0.25,38,136.54
740,C#4,161.5,11/40,42,136.54
741,D4,161.75,0.25,37,136.54
742,C4,162.0,11/40,42,136.54
743,D4,162.25,0.25,36,136.54
744,C4,162.5,11/40,42,136.54
745,D4,162.75,0.25,37,136.54
746,C4,163.0,11/40,42,136.54
747,D4,163.25,0.25,37,136.54
748,C4,163.5,11/40,42,136.54
749,D4,163.75,0.25,38,136.54
750,D6,164.0,0.5,61,136.54
751,B3,164.0,0.25,42,136.54
752,D4,164.25,0.25,36,136.54
753,B5,164.5,0.5,55,136.54
754,B3,164.5,0.25,42,136.54
755,D4,164.75,0.25,36,136.54
756,G5,165.0,1.5,61,136.54
757,B3,165.0,0.25,42,136.54
758,D4,165.25,0.25,32,136.54
759,B3,165.5,0.25,38,136.54
760,D4,165.75,0.25,33,136.54
761,B3,166.0,0.25,39,136.54
762,D4,166.25,0.25,32,136.54
763,A5,166.5,0.25,53,136.54
764,B3,166.5,0.25,39,136.54
765,B5,166.75,0.25,51,136.54
766,D4,166.75,0.25,34,136.54
767,A5,167.0,0.5,55,136.54
768,B3,167.0,0.25,42,136.54
769,D4,167.25,0.25,37,136.54
770,G5,167.5,0.25,53,136.54
771,B3,167.5,0.25,42,136.54
772,D4,167.75,0.25,38,136.54
773,G5,168.0,0.125,55,136.54
774,C4,168.0,0.25,46,136.54
775,A5,168.125,0.125,51,136.54
776,G5,168.25,0.125,56,136.54
777,D4,168.25,0.25,38,136.54
778,A5,168.375,0.125,51,136.54
779,G5,168.5,0.25,58,136.54
780,B3,168.5,0.25,42,136.54
781,F#5,168.75,229/1000,52,136.54
782,D4,168.75,0.25,36,136.54
783,F#5,169.0,1.0,58,136.54
784,A3,169.0,11/40,39,136.54
785,D4,169.25,0.25,27,136.54
786,B3,169.5,11/40,47,136.54
787,D4,169.75,0.25,35,136.54
788,C4,170.0,11/40,50,136.54
789,D4,170.25,0.25,36,136.54
790,B3,170.5,11/40,44,136.54
791,D4,170.75,0.25,30,136.54
792,C4,171.0,11/40,52,136.54
793,D4,171.25,0.25,31,136.54
794,A3,171.5,11/40,40,136.54
795,D4,171.75,0.25,28,136.54
796,D6,172.0,0.5,61,136.54
797,B3,172.0,0.25,42,136.54
798,D4,172.25,0.25,36,136.54
799,B5,172.5,0.5,55,136.54
800,B3,172.5,0.25,42,136.54
801,D4,172.75,0.25,36,136.54
802,G5,173.0,1.5,61,136.54
803,B3,173.0,0.25,42,136.54
804,D4,173.25,0.25,32,136.54
805,B3,173.5,0.25,38,136.54
806,D4,173.75,0.25,33,136.54
807,B3,174.0,0.25,39,136.54
808,D4,174.25,0.25,32,136.54
809,A5,174.5,0.25,53,136.54
810,B3,174.5,0.25,39,136.54
811,B5,174.75,0.25,51,136.54
812,D4,174.75,0.25,34,136.54
813,A5,175.0,0.5,55,136.54
814,B3,175.0,0.25,42,136.54
815,D4,175.25,0.25,37,136.54
816,G5,175.5,0.25,53,136.54
817,B3,175.5,0.25,42,136.54
818,D4,175.75,0.25,38,136.54
819,G5,176.0,0.125,55,136.54
820,C4,176.0,0.25,42,136.54
821,A5,176.125,0.125,51,136.54
822,G5,176.25,0.125,56,136.54
823,D4,176.25,0.25,36,136.54
824,A5,176.375,0.125,50,136.54
825,G5,176.5,0.25,55,136.54
826,B3,176.5,0.25,42,136.54
827,F#5,176.75,0.188,52,136.54
828,D4,176.75,0.25,36,136.54
829,F#5,177.0,1.0,58,136.54
830,A3,177.0,11/40,39,136.54
831,D4,177.25,0.25,29,136.54
832,B3,177.5,11/40,42,136.54
833,D4,177.75,0.25,32,136.54
834,C4,178.0,11/40,48,136.54
835,D4,178.25,0.25,36,136.54
836,B3,178.5,11/40,43,136.54
837,D4,178.75,0.25,30,136.54
838,C4,179.0,11/40,48,136.54
839,D4,179.25,0.25,36,136.54
840,A3,179.5,11/40,43,136.54
841,D4,179.75,0.25,30,136.54
842,D6,180.0,1.0,69,136.54
843,B3,180.25,0.25,39,136.54
844,D4,180.5,0.25,42,136.54
845,G4,180.75,0.25,39,136.54
846,B4,181.0,1.0,48,136.54
847,D6,181.25,0.25,61,136.54
848,B5,181.5,0.25,66,136.54
849,G5,181.75,0.25,61,136.54
850,E5,182.0,1.0,68,136.54
851,C4,182.25,0.25,42,136.54
852,E4,182.5,0.25,44,136.54
853,G4,182.75,0.25,41,136.54
854,C5,183.0,1.0,52,136.54
855,E5,183.25,0.25,61,136.54
856,G5,183.5,0.25,66,136.54
857,E5,183.75,0.25,61,136.54
858,C6,184.0,1.0,69,136.54
859,A3,184.25,0.25,39,136.54
860,C4,184.5,0.25,42,136.54
861,F#4,184.75,0.25,39,136.54
862,A4,185.0,1.0,48,136.54
863,C6,185.25,0.25,61,136.54
864,A5,185.5,0.25,66,136.54
865,F#5,185.75,0.25,61,136.54
866,D5,186.0,1.0,68,136.54
867,B3,186.25,0.25,42,136.54
868,D4,186.5,0.25,44,136.54
869,F#4,186.75,0.25,41,136.54
870,B4,187.0,1.0,52,136.54
871,D5,187.25,0.25,61,136.54
872,F#5,187.5,0.25,66,136.54
873,D5,187.75,0.25,61,136.54
874,B5,188.0,1.0,68,136.54
875,G3,188.25,0.25,39,136.54
876,B3,188.5,0.25,42,136.54
877,E4,188.75,0.25,39,136.54
878,G4,189.0,1.0,48,136.54
879,B5,189.25,0.25,61,136.54
880,G5,189.5,0.25,66,136.54
881,E5,189.75,0.25,61,136.54
882,C5,190.0,1.0,68,136.54
883,A3,190.25,0.25,42,136.54
884,C4,190.5,0.25,44,136.54
885,E4,190.75,0.25,41,136.54
886,A4,191.0,1.0,52,136.54
887,C5,191.25,0.25,61,136.54
888,E5,191.5,0.25,66,136.54
889,C5,191.75,0.25,61,136.54
890,A5,192.0,1.0,68,136.54
891,F#3,192.25,0.25,39,136.54
892,A3,192.5,0.25,42,136.54
893,D4,192.75,0.25,39,136.54
894,F#4,193.0,1.0,48,136.54
895,A5,193.25,0.25,61,136.54
896,F#5,193.5,0.25,66,136.54
897,C5,193.75,0.25,61,136.54
898,B4,194.0,1.0,68,136.54
899,G3,194.25,0.25,42,136.54
900,B3,194.5,0.25,44,136.54
901,D4,194.75,0.25,41,136.54
902,G4,195.0,1.0,52,136.54
903,G5,195.25,0.25,61,136.54
904,D5,195.5,0.25,66,136.54
905,B4,195.75,0.25,61,136.54
906,A4,196.0,1.875,66,136.54
907,E4,196.0,0.25,44,136.54
908,C4,196.0,0.25,44,136.54
909,E4,196.5,0.25,39,136.54
910,C4,196.5,0.25,39,136.54
911,E4,197.0,0.25,39,136.54
912,C4,197.0,0.25,39,136.54
913,C4,197.5,0.25,39,136.54
914,E4,197.5,0.25,39,136.54
915,B4,197.875,0.125,64,136.54
916,C5,198.0,0.875,69,136.54
917,C4,198.0,0.25,44,136.54
918,E4,198.0,0.25,44,136.54
919,C4,198.5,0.25,40,136.54
920,E4,198.5,0.25,40,136.54
921,E-5,198.875,0.125,65,136.54
922,E5,199.0,0.875,72,136.54
923,E4,199.0,0.25,40,136.54
924,C4,199.0,0.25,40,136.54
925,C4,199.5,0.25,41,136.54
926,E4,199.5,0.25,41,136.54
927,G#5,199.875,0.125,65,136.54
928,A5,200.0,1.5,71,136.54
929,E4,200.0,0.25,50,136.54
930,C4,200.0,0.25,50,136.54
931,E4,200.5,0.25,44,136.54
932,C4,200.5,0.25,44,136.54
933,E4,201.0,0.25,44,136.54
934,C4,201.0,0.25,44,136.54
935,B5,201.5,0.125,66,136.54
936,C4,201.5,0.25,44,136.54
937,E4,201.5,0.25,44,136.54
938,A5,201.625,0.125,66,136.54
939,G#5,201.75,0.125,66,136.54
940,A5,201.875,0.125,66,136.54
941,C6,202.0,0.5,74,136.54
942,C4,202.0,0.25,49,136.54
943,E4,202.0,0.25,49,136.54
944,A5,202.5,0.5,68,136.54
945,E4,202.5,0.25,46,136.54
946,C4,202.5,0.25,46,136.54
947,C6,203.0,0.5,75,136.54
948,C4,203.0,0.25,46,136.54
949,E4,203.0,0.25,46,136.54
950,A5,203.5,0.5,69,136.54
951,C4,203.5,0.25,46,136.54
952,E4,203.5,0.25,46,136.54
953,B5,204.0,0.5,78,136.54
954,D4,204.0,0.25,50,136.54
955,B4,204.25,0.25,42,136.54
956,G5,204.5,0.5,73,136.54
957,G4,204.5,0.25,42,136.54
958,B4,204.75,0.25,42,136.54
959,D6,205.0,2.0,79,136.54
960,D4,205.0,0.25,49,136.54
961,B4,205.25,0.25,42,136.54
962,G4,205.5,0.25,42,136.54
963,B4,205.75,0.25,42,136.54
964,D4,206.0,0.25,48,136.54
965,B4,206.25,0.25,42,136.54
966,G4,206.5,0.25,42,136.54
967,B4,206.75,0.25,42,136.54
968,C6,207.0,0.25,70,136.54
969,D4,207.0,0.25,49,136.54
970,B5,207.25,0.25,68,136.54
971,B4,207.25,0.25,42,136.54
972,A5,207.5,0.25,67,136.54
973,G4,207.5,0.25,42,136.54
974,G5,207.75,0.25,65,136.54
975,B4,207.75,0.25,42,136.54
976,A5,208.0,0.125,49,136.54
977,D4,208.0,0.25,50,136.54
978,B5,208.125,0.125,38,136.54
979,A5,208.25,0.125,49,136.54
980,C5,208.25,0.25,42,136.54
981,B5,208.375,0.125,40,136.54
982,A5,208.5,0.125,50,136.54
983,F#4,208.5,0.25,42,136.54
984,B5,208.625,0.125,40,136.54
985,A5,208.75,0.125,50,136.54
986,C5,208.75,0.25,42,136.54
987,B5,208.875,0.125,40,136.54
988,A5,209.0,0.125,52,136.54
989,D4,209.0,0.25,49,136.54
990,B5,209.125,0.125,40,136.54
991,A5,209.25,0.125,52,136.54
992,C5,209.25,0.25,42,136.54
993,B5,209.375,0.125,41,136.54
994,A5,209.5,0.125,53,136.54
995,F#4,209.5,0.25,42,136.54
996,B5,209.625,0.125,41,136.54
997,A5,209.75,0.125,53,136.54
998,C5,209.75,0.25,42,136.54
999,B5,209.875,0.125,42,136.54
1000,A5,210.0,0.125,54,136.54
1001,D4,210.0,0.25,48,136.54
1002,B5,210.125,0.125,43,136.54
1003,A5,210.25,0.125,54,136.54
1004,C5,210.25,0.25,42,136.54
1005,B5,210.375,0.125,45,136.54
1006,A5,210.5,0.125,54,136.54
1007,F#4,210.5,0.25,42,136.54
1008,B5,210.625,0.125,44,136.54
1009,A5,210.75,0.125,54,136.54
1010,C5,210.75,0.25,42,136.54
1011,B5,210.875,0.125,44,136.54
1012,A5,211.0,0.125,53,136.54
1013,D4,211.0,0.25,49,136.54
1014,B5,211.125,0.125,45,136.54
1015,A5,211.25,0.125,53,136.54
1016,C5,211.25,0.25,42,136.54
1017,B5,211.375,0.125,42,136.54
1018,A5,211.5,167/1000,53,136.54
1019,F#4,211.5,0.25,42,136.54
1020,G5,211.667,167/1000,59,136.54
1021,C5,211.75,0.25,42,136.54
1022,A5,211.833,167/1000,58,136.54
1023,G5,212.0,1.0,69,136.54
1024,B4,212.0,1.0,54,136.54
1025,G4,212.0,1.0,54,136.54
1026,G5,213.0,0.25,67,136.54
1027,D5,213.25,0.25,59,136.54
1028,G5,213.5,0.25,62,136.54
1029,B5,213.75,0.25,65,136.54
1030,D6,214.0,0.25,68,136.54
1031,B5,214.25,0.25,63,136.54
1032,G5,214.5,0.25,68,136.54
1033,B5,214.75,0.25,63,136.54
1034,C6,215.0,0.25,69,136.54
1035,A4,215.0,1.0,43,136.54
1036,C5,215.0,1.0,43,136.54
1037,D4,215.0,1.0,43,136.54
1038,A5,215.25,0.25,63,136.54
1039,F#5,215.5,0.25,69,136.54
1040,A5,215.75,0.25,63,136.54
1041,G5,216.0,1.0,69,136.54
1042,G4,216.0,1.0,54,136.54
1043,B4,216.0,1.0,54,136.54
1044,G4,217.0,0.25,67,136.54
1045,D4,217.25,0.25,59,136.54
1046,G4,217.5,0.25,62,136.54
1047,B4,217.75,0.25,65,136.54
1048,D5,218.0,0.25,68,136.54
1049,B4,218.25,0.25,63,136.54
1050,G4,218.5,0.25,68,136.54
1051,B4,218.75,0.25,63,136.54
1052,C5,219.0,0.25,69,136.54
1053,A3,219.0,1.0,43,136.54
1054,C4,219.0,1.0,43,136.54
1055,D3,219.0,1.0,43,136.54
1056,A4,219.25,0.25,63,136.54
1057,F#4,219.5,0.25,69,136.54
1058,A4,219.75,0.25,63,136.54
1059,G4,220.0,0.25,74,136.54
1060,G3,220.0,0.25,48,136.54
1061,B3,220.0,0.25,48,136.54
1062,D5,221.0,0.25,71,136.54
1063,B5,221.0,0.25,71,136.54
1064,G2,221.0,0.25,48,136.54
1065,G3,221.0,0.25,48,136.54
1066,B4,222.0,1.0,68,136.54
1067,G5,222.0,1.0,68,136.54
1068,G2,222.0,1.0,48,136.54
1069,G3,222.0,1.0,48,136.54
1070,G4,224.0,1.0,69,136.54
1071,G3,224.0,1.0,54,136.54
1072,G2,224.0,1.0,54,136.54
1073,G5,225.0,0.25,67,136.54
1074,D5,225.25,0.25,59,136.54
1075,G5,225.5,0.25,62,136.54
1076,B-5,225.75,0.25,65,136.54
1077,D6,226.0,0.25,68,136.54
1078,B-5,226.25,0.25,63,136.54
1079,G5,226.5,0.25,68,136.54
1080,B-5,226.75,0.25,63,136.54
1081,C6,227.0,0.25,69,136.54
1082,A4,227.0,1.0,43,136.54
1083,C5,227.0,1.0,43,136.54
1084,D4,227.0,1.0,43,136.54
1085,A5,227.25,0.25,63,136.54
1086,F#5,227.5,0.25,69,136.54
1087,A5,227.75,0.25,63,136.54
1088,G5,228.0,1.0,69,136.54
1089,G4,228.0,1.0,54,136.54
1090,B-4,228.0,1.0,54,136.54
1091,G4,229.0,0.25,67,136.54
1092,D4,229.25,0.25,59,136.54
1093,G4,229.5,0.25,62,136.54
1094,B-4,229.75,0.25,65,136.54
1095,D5,230.0,0.25,68,136.54
1096,B-4,230.25,0.25,63,136.54
1097,G4,230.5,0.25,68,136.54
1098,B-4,230.75,0.25,63,136.54
1099,C5,231.0,0.25,69,136.54
1100,A3,231.0,1.0,43,136.54
1101,C4,231.0,1.0,43,136.54
1102,D3,231.0,1.0,43,136.54
1103,A4,231.25,0.25,63,136.54
1104,F#4,231.5,0.25,69,136.54
1105,A4,231.75,0.25,63,136.54
1106,G4,232.0,1.0,74,136.54
1107,G2,232.25,11/40,49,136.54
1108,A2,232.5,11/40,51,136.54
1109,B-2,232.75,11/40,52,136.54
1110,C3,233.0,11/40,54,136.54
1111,D3,233.25,11/40,56,136.54
1112,E3,233.5,11/40,58,136.54
1113,F#3,233.75,11/40,60,136.54
1114,G3,234.0,1.0,61,136.54
1115,G5,234.25,11/40,68,136.54
1116,B-5,234.5,11/40,72,136.54
1117,A5,234.75,11/40,70,136.54
1118,G5,235.0,11/40,68,136.54
1119,F5,235.25,11/40,67,136.54
1120,E5,235.5,11/40,65,136.54
1121,D5,235.75,0.25,64,136.54
1122,C#5,236.0,1.0,70,136.54
1123,D5,236.0,1/40,64,136.54
1124,A2,236.25,11/40,53,136.54
1125,B2,236.5,11/40,55,136.54
1126,C#3,236.75,11/40,57,136.54
1127,D3,237.0,11/40,60,136.54
1128,E3,237.25,11/40,62,136.54
1129,F#3,237.5,11/40,64,136.54
1130,G#3,237.75,11/40,66,136.54
1131,A3,238.0,1.0,68,136.54
1132,C#6,238.25,11/40,75,136.54
1133,E6,238.5,11/40,79,136.54
1134,D6,238.75,11/40,77,136.54
1135,C#6,239.0,11/40,74,136.54
1136,B-5,239.25,11/40,72,136.54
1137,A5,239.5,11/40,70,136.54
1138,G5,239.75,0.25,72,136.54
1139,F5,240.0,1.0,85,136.54
1140,G5,240.0,1/40,72,136.54
1141,D3,240.0,1.0,71,136.54
1142,D2,240.0,1.0,71,136.54
1143,D5,241.0,0.25,73,136.54
1144,A4,241.25,0.25,64,136.54
1145,D5,241.5,0.25,68,136.54
1146,F5,241.75,0.25,71,136.54
1147,A5,242.0,0.25,74,136.54
1148,F5,242.25,0.25,69,136.54
1149,D5,242.5,0.25,74,136.54
1150,F5,242.75,0.25,69,136.54
1151,G5,243.0,0.25,75,136.54
1152,E4,243.0,1.0,47,136.54
1153,G4,243.0,1.0,47,136.54
1154,A3,243.0,1.0,47,136.54
1155,E5,243.25,0.25,69,136.54
1156,C#5,243.5,0.25,75,136.54
1157,E5,243.75,0.25,69,136.54
1158,D5,244.0,1.0,75,136.54
1159,D4,244.0,1.0,58,136.54
1160,F4,244.0,1.0,58,136.54
1161,D4,245.0,0.25,67,136.54
1162,A3,245.25,0.25,59,136.54
1163,D4,245.5,0.25,62,136.54
1164,F4,245.75,0.25,65,136.54
1165,A4,246.0,0.25,68,136.54
1166,F4,246.25,0.25,63,136.54
1167,D4,246.5,0.25,68,136.54
1168,F4,246.75,0.25,63,136.54
1169,G4,247.0,0.25,69,136.54
1170,E3,247.0,1.0,43,136.54
1171,G3,247.0,1.0,43,136.54
1172,A2,247.0,1.0,43,136.54
1173,E4,247.25,0.25,63,136.54
1174,C#4,247.5,0.25,69,136.54
1175,E4,247.75,0.25,63,136.54
1176,D3,248.0,1.0,62,136.54
1177,F3,248.0,1.0,62,136.54
1178,D4,248.25,11/40,54,136.54
1179,E4,248.5,11/40,56,136.54
1180,F4,248.75,11/40,58,136.54
1181,G4,249.0,11/40,60,136.54
1182,A4,249.25,11/40,61,136.54
1183,B4,249.5,11/40,63,136.54
1184,C#5,249.75,11/40,65,136.54
1185,D5,250.0,1.0,66,136.54
1186,D4,250.25,11/40,53,136.54
1187,F4,250.5,11/40,63,136.54
1188,E4,250.75,11/40,61,136.54
1189,D4,251.0,11/40,59,136.54
1190,C4,251.25,11/40,56,136.54
1191,B3,251.5,11/40,54,136.54
1192,A3,251.75,0.25,52,136.54
1193,G#3,252.0,1.0,57,136.54
1194,A3,252.0,1/40,52,136.54
1195,B4,252.25,11/40,58,136.54
1196,C5,252.5,11/40,60,136.54
1197,D5,252.75,11/40,61,136.54
1198,E5,253.0,11/40,63,136.54
1199,F#5,253.25,11/40,64,136.54
1200,G#5,253.5,11/40,66,136.54
1201,A5,253.75,11/40,67,136.54
1202,B5,254.0,1.0,69,136.54
1203,G#3,254.25,11/40,52,136.54
1204,B3,254.5,11/40,61,136.54
1205,A3,254.75,11/40,59,136.54
1206,G#3,255.0,11/40,57,136.54
1207,F3,255.25,11/40,55,136.54
1208,E3,255.5,11/40,53,136.54
1209,D3,255.75,0.25,50,136.54
1210,C3,256.0,1.0,57,136.54
1211,D3,256.0,1/40,50,136.54
1212,A5,256.25,11/40,70,136.54
1213,E6,256.5,11/40,77,136.54
1214,D6,256.75,11/40,70,136.54
1215,C6,257.0,11/40,71,136.54
1216,B5,257.25,11/40,72,136.54
1217,A5,257.5,11/40,73,136.54
1218,G5,257.75,11/40,74,136.54
1219,F5,258.0,1.0,78,136.54
1220,D4,258.25,11/40,58,136.54
1221,A4,258.5,11/40,66,136.54
1222,G4,258.75,11/40,64,136.54
1223,F4,259.0,11/40,62,136.54
1224,E4,259.25,11/40,61,136.54
1225,D4,259.5,11/40,59,136.54
1226,C4,259.75,0.25,58,136.54
1227,B3,260.0,1.0,68,136.54
1228,C4,260.0,1/40,58,136.54
1229,G5,260.25,11/40,64,136.54
1230,D6,260.5,11/40,69,136.54
1231,C6,260.75,11/40,63,136.54
1232,B5,261.0,11/40,64,136.54
1233,A5,261.25,11/40,66,136.54
1234,G5,261.5,11/40,67,136.54
1235,F5,261.75,11/40,69,136.54
1236,E5,262.0,1.0,71,136.54
1237,C4,262.25,11/40,50,136.54
1238,G4,262.5,11/40,58,136.54
1239,F4,262.75,11/40,56,136.54
1240,E4,263.0,11/40,55,136.54
1241,D4,263.25,11/40,53,136.54
1242,C4,263.5,11/40,51,136.54
1243,B3,263.75,0.25,49,136.54
1244,A3,264.0,1.0,57,136.54
1245,B3,264.0,1/40,49,136.54
1246,F5,264.25,11/40,60,136.54
1247,C6,264.5,11/40,66,136.54
1248,B5,264.75,11/40,70,136.54
1249,A5,265.0,11/40,69,136.54
1250,G5,265.25,11/40,68,136.54
1251,F5,265.5,11/40,66,136.54
1252,E5,265.75,11/40,65,136.54
1253,D5,266.0,1.0,69,136.54
1254,B3,266.25,11/40,50,136.54
1255,F4,266.5,11/40,56,136.54
1256,E4,266.75,11/40,54,136.54
1257,D4,267.0,11/40,53,136.54
1258,C4,267.25,11/40,51,136.54
1259,B3,267.5,11/40,49,136.54
1260,A3,267.75,0.25,48,136.54
1261,G#3,268.0,1.0,54,136.54
1262,A3,268.0,1/40,48,136.54
1263,E5,268.25,11/40,59,136.54
1264,B5,268.5,11/40,67,136.54
1265,A5,268.75,11/40,67,136.54
1266,G#5,269.0,11/40,66,136.54
1267,F5,269.25,11/40,65,136.54
1268,E5,269.5,11/40,64,136.54
1269,D5,269.75,11/40,63,136.54
1270,C5,270.0,1.0,66,136.54
1271,A3,270.25,11/40,44,136.54
1272,C4,270.5,11/40,52,136.54
1273,B3,270.75,11/40,50,136.54
1274,A3,271.0,11/40,48,136.54
1275,G3,271.25,11/40,46,136.54
1276,F3,271.5,11/40,45,136.54
1277,E3,271.75,0.25,43,136.54
1278,D3,272.0,2.0,51,136.54
1279,E3,272.0,1/40,43,136.54
1280,B-4,272.25,11/40,58,136.54
1281,D5,272.5,11/40,64,136.54
1282,C5,272.75,11/40,59,136.54
1283,B-4,273.0,11/40,64,136.54
1284,A4,273.25,11/40,63,136.54
1285,G4,273.5,11/40,61,136.54
1286,F4,273.75,0.25,60,136.54
1287,E4,274.0,11/40,59,136.54
1288,C3,274.0,2.0,50,136.54
1289,G3,274.0,2.0,50,136.54
1290,B-3,274.0,2.0,50,136.54
1291,F4,274.25,11/40,57,136.54
1292,G4,274.5,11/40,56,136.54
1293,A4,274.75,11/40,55,136.54
1294,B-4,275.0,11/40,53,136.54
1295,C5,275.25,11/40,52,136.54
1296,D5,275.5,11/40,50,136.54
1297,E5,275.75,0.25,49,136.54
1298,F5,276.0,2.0,59,136.54
1299,F4,276.0,0.5,40,136.54
1300,C5,276.5,0.5,30,136.54
1301,A4,277.0,0.5,30,136.54
1302,C5,277.5,0.5,30,136.54
1303,A5,278.0,1.0,58,136.54
1304,F4,278.0,0.5,40,136.54
1305,C5,278.5,0.5,30,136.54
1306,C6,279.0,1.0,56,136.54
1307,A4,279.0,0.5,30,136.54
1308,C5,279.5,0.5,30,136.54
1309,E5,280.0,1.5,60,136.54
1310,G4,280.0,0.5,30,136.54
1311,C5,280.5,0.5,29,136.54
1312,B-4,281.0,0.5,31,136.54
1313,F5,281.5,0.25,55,136.54
1314,C5,281.5,0.5,28,136.54
1315,G5,281.75,0.25,51,136.54
1316,F5,282.0,1.0,60,136.54
1317,F4,282.0,0.5,40,136.54
1318,C5,282.5,0.5,29,136.54
1319,A4,283.0,0.5,32,136.54
1320,C5,283.5,0.5,29,136.54
1321,D6,284.0,2.0,64,136.54
1322,F4,284.0,0.5,40,136.54
1323,D5,284.5,0.5,32,136.54
1324,B-4,285.0,0.5,32,136.54
1325,D5,285.5,0.5,32,136.54
1326,C6,286.0,1.0,62,136.54
1327,F4,286.0,0.5,40,136.54
1328,C5,286.5,0.5,32,136.54
1329,F6,287.0,1.0,64,136.54
1330,A4,287.0,0.5,32,136.54
1331,C5,287.5,0.5,32,136.54
1332,C6,288.0,1.0,64,136.54
1333,E4,288.0,0.5,40,136.54
1334,C5,288.5,0.5,32,136.54
1335,B-5,289.0,167/1000,55,136.54
1336,G4,289.0,0.5,32,136.54
1337,C6,289.167,167/1000,55,136.54
1338,B-5,289.333,167/1000,55,136.54
1339,A5,289.5,0.25,59,136.54
1340,C5,289.5,0.5,32,136.54
1341,B-5,289.75,0.25,55,136.54
1342,A5,290.0,1.0,60,136.54
1343,F4,290.0,0.5,40,136.54
1344,C5,290.5,0.5,34,136.54
1345,A4,291.0,0.5,34,136.54
1346,C5,291.5,0.5,34,136.54
1347,D5,292.0,0.5,60,136.54
1348,B-4,292.0,1.0,40,136.54
1349,E5,292.5,11/40,53,136.54
1350,F5,292.75,11/40,54,136.54
1351,G5,293.0,11/40,55,136.54
1352,A5,293.25,11/40,57,136.54
1353,B-5,293.5,11/40,58,136.54
1354,C6,293.75,11/40,59,136.54
1355,D6,294.0,11/40,62,136.54
1356,C6,294.25,11/40,61,136.54
1357,B-5,294.5,11/40,60,136.54
1358,A5,294.75,11/40,59,136.54
1359,G5,295.0,11/40,58,136.54
1360,B-3,295.0,1.0,40,136.54
1361,F4,295.0,1.0,40,136.54
1362,F5,295.25,11/40,57,136.54
1363,E5,295.5,11/40,55,136.54
1364,D5,295.75,0.25,53,136.54
1365,C5,296.0,0.5,60,136.54
1366,D5,296.0,1/40,53,136.54
1367,A3,296.0,1.0,40,136.54
1368,F4,296.0,1.0,40,136.54
1369,D5,296.5,11/40,53,136.54
1370,E5,296.75,11/40,54,136.54
1371,F5,297.0,11/40,55,136.54
1372,G5,297.25,11/40,57,136.54
1373,A5,297.5,11/40,58,136.54
1374,B-5,297.75,11/40,59,136.54
1375,C6,298.0,11/40,62,136.54
1376,B-5,298.25,11/40,61,136.54
1377,A5,298.5,11/40,60,136.54
1378,G5,298.75,11/40,59,136.54
1379,F5,299.0,11/40,58,136.54
1380,A3,299.0,1.0,40,136.54
1381,F4,299.0,1.0,40,136.54
1382,E5,299.25,11/40,57,136.54
1383,D5,299.5,11/40,55,136.54
1384,C5,299.75,0.25,53,136.54
1385,B-4,300.0,0.5,60,136.54
1386,C5,300.0,1/40,53,136.54
1387,G3,300.0,1.0,40,136.54
1388,F4,300.0,1.0,40,136.54
1389,C5,300.5,11/40,53,136.54
1390,D5,300.75,11/40,54,136.54
1391,E5,301.0,11/40,55,136.54
1392,F5,301.25,11/40,57,136.54
1393,G5,301.5,11/40,58,136.54
1394,A5,301.75,11/40,59,136.54
1395,B-5,302.0,11/40,62,136.54
1396,A5,302.25,11/40,61,136.54
1397,G5,302.5,11/40,60,136.54
1398,F5,302.75,11/40,59,136.54
1399,E5,303.0,11/40,58,136.54
1400,G3,303.0,1.0,40,136.54
1401,E4,303.0,1.0,40,136.54
1402,D5,303.25,11/40,57,136.54
1403,C5,303.5,11/40,55,136.54
1404,B-4,303.75,0.25,53,136.54
1405,A4,304.0,0.5,60,136.54
1406,B-4,304.0,1/40,53,136.54
1407,F3,304.0,1.0,40,136.54
1408,F4,304.0,1.0,40,136.54
1409,B-4,304.5,11/40,53,136.54
1410,C5,304.75,11/40,54,136.54
1411,D5,305.0,11/40,55,136.54
1412,E5,305.25,11/40,57,136.54
1413,F5,305.5,11/40,58,136.54
1414,G5,305.75,11/40,59,136.54
1415,A5,306.0,11/40,62,136.54
1416,G5,306.25,11/40,61,136.54
1417,F5,306.5,11/40,60,136.54
1418,E5,306.75,11/40,59,136.54
1419,D5,307.0,11/40,58,136.54
1420,C5,307.25,11/40,57,136.54
1421,B-4,307.5,11/40,55,136.54
1422,A4,307.75,0.25,53,136.54
1423,A5,308.0,1.0,61,136.54
1424,A4,308.0,1/40,53,136.54
1425,F3,308.0,0.5,48,136.54
1426,G3,308.5,11/40,42,136.54
1427,A3,308.75,11/40,42,136.54
1428,B-3,309.0,11/40,43,136.54
1429,C4,309.25,11/40,45,136.54
1430,D4,309.5,11/40,46,136.54
1431,E4,309.75,11/40,47,136.54
1432,F4,310.0,11/40,49,136.54
1433,E4,310.25,11/40,48,136.54
1434,D4,310.5,11/40,48,136.54
1435,C4,310.75,11/40,47,136.54
1436,B-3,311.0,11/40,46,136.54
1437,C5,311.0,1.0,56,136.54
1438,A5,311.0,1.0,56,136.54
1439,A3,311.25,11/40,45,136.54
1440,G3,311.5,11/40,43,136.54
1441,F3,311.75,0.25,42,136.54
1442,E3,312.0,0.5,48,136.54
1443,F3,312.0,1/40,42,136.54
1444,C5,312.0,1.0,56,136.54
1445,G5,312.0,1.0,56,136.54
1446,F3,312.5,11/40,42,136.54
1447,G3,312.75,11/40,42,136.54
1448,A3,313.0,11/40,43,136.54
1449,B3,313.25,11/40,45,136.54
1450,C4,313.5,11/40,46,136.54
1451,D4,313.75,11/40,47,136.54
1452,E4,314.0,11/40,49,136.54
1453,D4,314.25,11/40,48,136.54
1454,C4,314.5,11/40,48,136.54
1455,B3,314.75,11/40,47,136.54
1456,A3,315.0,11/40,46,136.54
1457,C5,315.0,1.0,56,136.54
1458,G5,315.0,1.0,56,136.54
1459,G3,315.25,11/40,45,136.54
1460,F3,315.5,11/40,43,136.54
1461,E3,315.75,0.25,42,136.54
1462,D3,316.0,0.5,48,136.54
1463,E3,316.0,1/40,42,136.54
1464,C5,316.0,1.0,56,136.54
1465,F5,316.0,1.0,56,136.54
1466,E3,316.5,11/40,42,136.54
1467,F3,316.75,11/40,42,136.54
1468,G3,317.0,11/40,43,136.54
1469,A3,317.25,11/40,45,136.54
1470,B3,317.5,11/40,46,136.54
1471,C4,317.75,11/40,47,136.54
1472,D4,318.0,11/40,49,136.54
1473,C4,318.25,11/40,48,136.54
1474,B3,318.5,11/40,48,136.54
1475,A3,318.75,11/40,47,136.54
1476,G3,319.0,11/40,46,136.54
1477,B4,319.0,1.0,56,136.54
1478,F5,319.0,1.0,56,136.54
1479,F3,319.25,11/40,45,136.54
1480,E3,319.5,11/40,43,136.54
1481,D3,319.75,0.25,42,136.54
1482,C3,320.0,0.5,48,136.54
1483,D3,320.0,1/40,42,136.54
1484,C5,320.0,1.0,56,136.54
1485,E5,320.0,1.0,56,136.54
1486,D3,320.5,11/40,42,136.54
1487,E3,320.75,11/40,42,136.54
1488,F3,321.0,11/40,43,136.54
1489,G3,321.25,11/40,45,136.54
1490,A3,321.5,11/40,46,136.54
1491,B3,321.75,11/40,47,136.54
1492,C4,322.0,11/40,49,136.54
1493,B3,322.25,11/40,48,136.54
1494,A3,322.5,11/40,48,136.54
1495,G3,322.75,11/40,47,136.54
1496,F3,323.0,11/40,46,136.54
1497,C5,323.0,1.0,56,136.54
1498,E5,323.0,1.0,56,136.54
1499,E3,323.25,11/40,45,136.54
1500,D3,323.5,11/40,43,136.54
1501,C3,323.75,0.25,42,136.54
1502,D5,324.0,0.25,60,136.54
1503,C3,324.0,1/40,42,136.54
1504,F3,324.0,4.0,38,136.54
1505,A3,324.0,4.0,38,136.54
1506,D4,324.25,11/40,53,136.54
1507,E4,324.5,11/40,53,136.54
1508,F4,324.75,11/40,54,136.54
1509,G4,325.0,11/40,55,136.54
1510,A4,325.25,11/40,57,136.54
1511,B4,325.5,11/40,58,136.54
1512,C#5,325.75,11/40,59,136.54
1513,D5,326.0,0.25,62,136.54
1514,A4,326.25,11/40,58,136.54
1515,B4,326.5,11/40,61,136.54
1516,C#5,326.75,11/40,64,136.54
1517,D5,327.0,11/40,66,136.54
1518,E5,327.25,11/40,67,136.54
1519,F5,327.5,11/40,68,136.54
1520,G5,327.75,0.25,69,136.54
1521,A5,328.0,11/40,70,136.54
1522,G5,328.0,1/40,69,136.54
1523,F3,328.0,1.5,60,136.54
1524,B5,328.25,11/40,69,136.54
1525,C6,328.5,11/40,71,136.54
1526,B5,328.75,11/40,69,136.54
1527,A5,329.0,11/40,67,136.54
1528,G5,329.25,11/40,65,136.54
1529,F5,329.5,11/40,63,136.54
1530,G3,329.5,0.5,55,136.54
1531,E5,329.75,0.25,66,136.54
1532,F5,330.0,11/40,65,136.54
1533,A3,330.0,1.5,60,136.54
1534,G5,330.25,11/40,66,136.54
1535,A5,330.5,11/40,67,136.54
1536,G5,330.75,11/40,67,136.54
1537,F5,331.0,11/40,68,136.54
1538,E5,331.25,11/40,71,136.54
1539,D5,331.5,11/40,73,136.54
1540,F#3,331.5,0.5,54,136.54
1541,C5,331.75,0.25,76,136.54
1542,B4,332.0,0.25,78,136.54
1543,C5,332.0,1/40,76,136.54
1544,G2,332.0,0.25,65,136.54
1545,B2,332.25,0.25,56,136.54
1546,G5,332.5,0.25,71,136.54
1547,D3,332.5,0.25,56,136.54
1548,G3,332.75,0.25,50,136.54
1549,E5,333.0,0.25,71,136.54
1550,G2,333.0,0.25,65,136.54
1551,C3,333.25,0.25,55,136.54
1552,C5,333.5,0.25,71,136.54
1553,E3,333.5,0.25,55,136.54
1554,G3,333.75,0.25,50,136.54
1555,D5,334.0,0.25,78,136.54
1556,G2,334.0,0.25,65,136.54
1557,B2,334.25,0.25,55,136.54
1558,G5,334.5,0.25,71,136.54
1559,D3,334.5,0.25,55,136.54
1560,G3,334.75,0.25,54,136.54
1561,E5,335.0,0.25,71,136.54
1562,G2,335.0,0.25,65,136.54
1563,C3,335.25,0.25,57,136.54
1564,C5,335.5,0.25,71,136.54
1565,E3,335.5,0.25,56,136.54
1566,G3,335.75,0.25,53,136.54
1567,D5,336.0,0.25,81,136.54
1568,G2,336.0,0.25,65,136.54
1569,G3,337.0,0.25,59,136.54
1570,D5,337.0,0.25,71,136.54
1571,G5,337.0,0.25,71,136.54
1572,B4,337.0,0.25,71,136.54
1573,G4,338.0,1.0,83,136.54
1574,G2,338.0,1.0,61,136.54
1575,F#4,340.0,11/40,42,136.54
1576,G4,340.25,0.25,36,136.54
1577,F#4,340.5,11/40,42,136.54
1578,G4,340.75,0.25,36,136.54
1579,F#4,341.0,11/40,42,136.54
1580,G4,341.25,0.25,38,136.54
1581,F#4,341.5,11/40,42,136.54
1582,G4,341.75,0.25,37,136.54
1583,F4,342.0,11/40,42,136.54
1584,G4,342.25,0.25,36,136.54
1585,F4,342.5,11/40,42,136.54
1586,G4,342.75,0.25,37,136.54
1587,F4,343.0,11/40,42,136.54
1588,G4,343.25,0.25,37,136.54
1589,F4,343.5,11/40,42,136.54
1590,G4,343.75,0.25,38,136.54
1591,G5,344.0,0.5,61,136.54
1592,E4,344.0,0.25,42,136.54
1593,G4,344.25,0.25,36,136.54
1594,E5,344.5,0.5,55,136.54
1595,E4,344.5,0.25,42,136.54
1596,G4,344.75,0.25,36,136.54
1597,C5,345.0,1.5,61,136.54
1598,E4,345.0,0.25,42,136.54
1599,G4,345.25,0.25,32,136.54
1600,E4,345.5,0.25,38,136.54
1601,G4,345.75,0.25,33,136.54
1602,E4,346.0,0.25,39,136.54
1603,G4,346.25,0.25,32,136.54
1604,D5,346.5,0.25,53,136.54
1605,E4,346.5,0.25,39,136.54
1606,E5,346.75,0.25,51,136.54
1607,G4,346.75,0.25,34,136.54
1608,D5,347.0,0.5,55,136.54
1609,E4,347.0,0.25,42,136.54
1610,G4,347.25,0.25,37,136.54
1611,C5,347.5,0.25,53,136.54
1612,E4,347.5,0.25,42,136.54
1613,G4,347.75,0.25,38,136.54
1614,C5,348.0,0.125,55,136.54
1615,F4,348.0,0.25,46,136.54
1616,D5,348.125,0.125,51,136.54
1617,C5,348.25,0.125,56,136.54
1618,G4,348.25,0.25,38,136.54
1619,D5,348.375,0.125,51,136.54
1620,C5,348.5,0.25,58,136.54
1621,E4,348.5,0.25,42,136.54
1622,B4,348.75,229/1000,52,136.54
1623,G4,348.75,0.25,36,136.54
1624,B4,349.0,1.0,58,136.54
1625,D4,349.0,11/40,39,136.54
1626,G4,349.25,0.25,27,136.54
1627,E4,349.5,11/40,47,136.54
1628,G4,349.75,0.25,35,136.54
1629,F4,350.0,11/40,50,136.54
1630,G4,350.25,0.25,36,136.54
1631,E4,350.5,11/40,44,136.54
1632,G4,350.75,0.25,30,136.54
1633,F4,351.0,11/40,52,136.54
1634,G4,351.25,0.25,31,136.54
1635,D4,351.5,11/40,40,136.54
1636,G4,351.75,0.25,28,136.54
1637,G5,352.0,0.5,61,136.54
1638,E4,352.0,0.25,42,136.54
1639,G4,352.25,0.25,36,136.54
1640,E5,352.5,0.5,55,136.54
1641,E4,352.5,0.25,42,136.54
1642,G4,352.75,0.25,36,136.54
1643,C5,353.0,1.5,61,136.54
1644,E4,353.0,0.25,42,136.54
1645,G4,353.25,0.25,32,136.54
1646,E4,353.5,0.25,38,136.54
1647,G4,353.75,0.25,33,136.54
1648,E4,354.0,0.25,39,136.54
1649,G4,354.25,0.25,32,136.54
1650,D5,354.5,0.25,53,136.54
1651,E4,354.5,0.25,39,136.54
1652,E5,354.75,0.25,51,136.54
1653,G4,354.75,0.25,34,136.54
1654,D5,355.0,0.5,55,136.54
1655,E4,355.0,0.25,42,136.54
1656,G4,355.25,0.25,37,136.54
1657,C5,355.5,0.25,53,136.54
1658,E4,355.5,0.25,42,136.54
1659,G4,355.75,0.25,38,136.54
1660,C5,356.0,0.125,55,136.54
1661,F4,356.0,0.25,42,136.54
1662,D5,356.125,0.125,51,136.54
1663,C5,356.25,0.125,56,136.54
1664,G4,356.25,0.25,36,136.54
1665,D5,356.375,0.125,50,136.54
1666,C5,356.5,0.25,55,136.54
1667,E4,356.5,0.25,42,136.54
1668,B4,356.75,0.188,52,136.54
1669,G4,356.75,0.25,36,136.54
1670,B4,357.0,1.0,58,136.54
1671,D4,357.0,11/40,39,136.54
1672,G4,357.25,0.25,29,136.54
1673,E4,357.5,11/40,42,136.54
1674,G4,357.75,0.25,32,136.54
1675,F4,358.0,11/40,48,136.54
1676,G4,358.25,0.25,36,136.54
1677,E4,358.5,11/40,43,136.54
1678,G4,358.75,0.25,30,136.54
1679,F4,359.0,11/40,48,136.54
1680,G4,359.25,0.25,36,136.54
1681,D4,359.5,11/40,43,136.54
1682,G4,359.75,0.25,30,136.54
1683,G5,360.0,1.0,65,136.54
1684,E3,360.25,0.25,37,136.54
1685,G3,360.5,0.25,39,136.54
1686,C4,360.75,0.25,37,136.54
1687,E4,361.0,1.0,45,136.54
1688,G5,361.25,0.25,57,136.54
1689,E5,361.5,0.25,62,136.54
1690,C5,361.75,0.25,57,136.54
1691,A4,362.0,1.0,64,136.54
1692,F3,362.25,0.25,39,136.54
1693,A3,362.5,0.25,41,136.54
1694,C4,362.75,0.25,38,136.54
1695,F4,363.0,1.0,49,136.54
1696,A4,363.25,0.25,57,136.54
1697,C5,363.5,0.25,62,136.54
1698,A4,363.75,0.25,57,136.54
1699,F5,364.0,1.0,65,136.54
1700,D3,364.25,0.25,37,136.54
1701,F3,364.5,0.25,39,136.54
1702,B3,364.75,0.25,37,136.54
1703,D4,365.0,1.0,45,136.54
1704,F5,365.25,0.25,57,136.54
1705,D5,365.5,0.25,62,136.54
1706,B4,365.75,0.25,57,136.54
1707,G4,366.0,1.0,64,136.54
1708,E3,366.25,0.25,39,136.54
1709,G3,366.5,0.25,41,136.54
1710,B3,366.75,0.25,38,136.54
1711,E4,367.0,1.0,49,136.54
1712,G5,367.25,0.25,64,136.54
1713,B5,367.5,0.25,67,136.54
1714,G5,367.75,0.25,63,136.54
1715,E6,368.0,1.0,72,136.54
1716,C4,368.25,0.25,39,136.54
1717,E4,368.5,0.25,42,136.54
1718,A4,368.75,0.25,39,136.54
1719,C5,369.0,1.0,48,136.54
1720,E6,369.25,0.25,61,136.54
1721,C6,369.5,0.25,66,136.54
1722,A5,369.75,0.25,61,136.54
1723,F5,370.0,1.0,68,136.54
1724,D4,370.25,0.25,42,136.54
1725,F4,370.5,0.25,44,136.54
1726,A4,370.75,0.25,41,136.54
1727,D5,371.0,1.0,52,136.54
1728,F5,371.25,0.25,64,136.54
1729,A5,371.5,0.25,66,136.54
1730,F5,371.75,0.25,64,136.54
1731,D6,372.0,1.0,73,136.54
1732,B3,372.25,0.25,39,136.54
1733,D4,372.5,0.25,42,136.54
1734,G4,372.75,0.25,39,136.54
1735,B4,373.0,1.0,48,136.54
1736,D6,373.25,0.25,61,136.54
1737,B5,373.5,0.25,66,136.54
1738,F5,373.75,0.25,61,136.54
1739,E5,374.0,1.0,68,136.54
1740,C4,374.25,0.25,42,136.54
1741,E4,374.5,0.25,44,136.54
1742,G4,374.75,0.25,41,136.54
1743,C5,375.0,1.0,52,136.54
1744,C6,375.25,0.25,61,136.54
1745,G5,375.5,0.25,66,136.54
1746,E5,375.75,0.25,61,136.54
1747,D5,376.0,1.875,71,136.54
1748,A4,376.5,0.25,39,136.54
1749,F4,376.5,0.25,39,136.54
1750,A4,377.0,0.25,39,136.54
1751,F4,377.0,0.25,39,136.54
1752,F4,377.5,0.25,39,136.54
1753,A4,377.5,0.25,39,136.54
1754,C#5,377.875,0.125,64,136.54
1755,D5,378.0,0.875,69,136.54
1756,A4,378.0,0.25,44,136.54
1757,F4,378.0,0.25,44,136.54
1758,F4,378.5,0.25,40,136.54
1759,A4,378.5,0.25,40,136.54
1760,C#5,378.875,0.125,65,136.54
1761,D5,379.0,1.0,72,136.54
1762,F4,379.0,0.25,40,136.54
1763,A4,379.0,0.25,40,136.54
1764,F4,379.5,0.25,41,136.54
1765,A4,379.5,0.25,41,136.54
1766,A5,380.0,1.875,77,136.54
1767,F#3,380.5,0.25,40,136.54
1768,E-4,380.5,0.25,40,136.54
1769,C4,380.5,0.25,40,136.54
1770,F#3,381.0,0.25,41,136.54
1771,E-4,381.0,0.25,41,136.54
1772,C4,381.0,0.25,41,136.54
1773,F#3,381.5,0.25,41,136.54
1774,C4,381.5,0.25,41,136.54
1775,E-4,381.5,0.25,41,136.54
1776,G#5,381.875,0.125,69,136.54
1777,A5,382.0,0.875,78,136.54
1778,F#3,382.0,0.25,47,136.54
1779,C4,382.0,0.25,47,136.54
1780,E-4,382.0,0.25,47,136.54
1781,F#3,382.5,0.25,43,136.54
1782,C4,382.5,0.25,43,136.54
1783,E-4,382.5,0.25,43,136.54
1784,G#5,382.875,0.125,69,136.54
1785,A5,383.0,1.0,79,136.54
1786,F#3,383.0,0.25,43,136.54
1787,C4,383.0,0.25,43,136.54
1788,E-4,383.0,0.25,43,136.54
1789,F#3,383.5,0.25,44,136.54
1790,E-4,383.5,0.25,44,136.54
1791,C4,383.5,0.25,44,136.54
1792,G5,384.0,0.5,78,136.54
1793,G3,384.0,0.25,54,136.54
1794,E4,384.25,0.25,42,136.54
1795,A5,384.5,0.25,75,136.54
1796,C4,384.5,0.25,42,136.54
1797,B5,384.75,0.25,76,136.54
1798,E4,384.75,0.25,42,136.54
1799,C6,385.0,0.25,79,136.54
1800,G3,385.0,0.25,56,136.54
1801,D6,385.25,0.25,80,136.54
1802,E4,385.25,0.25,44,136.54
1803,E6,385.5,0.25,83,136.54
1804,C4,385.5,0.25,42,136.54
1805,D6,385.75,0.25,82,136.54
1806,E4,385.75,0.25,42,136.54
1807,C6,386.0,0.25,78,136.54
1808,G3,386.0,0.25,48,136.54
1809,B5,386.25,0.25,77,136.54
1810,E4,386.25,0.25,42,136.54
1811,A5,386.5,0.25,75,136.54
1812,C4,386.5,0.25,42,136.54
1813,G5,386.75,0.25,74,136.54
1814,E4,386.75,0.25,42,136.54
1815,F5,387.0,0.25,70,136.54
1816,G3,387.0,0.25,49,136.54
1817,E5,387.25,0.25,68,136.54
1818,E4,387.25,0.25,42,136.54
1819,D5,387.5,0.25,67,136.54
1820,C4,387.5,0.25,42,136.54
1821,C5,387.75,0.25,65,136.54
1822,E4,387.75,0.25,42,136.54
1823,D5,388.0,0.125,49,136.54
1824,G3,388.0,0.25,50,136.54
1825,E5,388.125,0.125,38,136.54
1826,D5,388.25,0.125,49,136.54
1827,F4,388.25,0.25,42,136.54
1828,E5,388.375,0.125,40,136.54
1829,D5,388.5,0.125,50,136.54
1830,B3,388.5,0.25,42,136.54
1831,E5,388.625,0.125,40,136.54
1832,D5,388.75,0.125,50,136.54
1833,F4,388.75,0.25,42,136.54
1834,E5,388.875,0.125,40,136.54
1835,D5,389.0,0.125,52,136.54
1836,G3,389.0,0.25,49,136.54
1837,E5,389.125,0.125,40,136.54
1838,D5,389.25,0.125,52,136.54
1839,F4,389.25,0.25,42,136.54
1840,E5,389.375,0.125,41,136.54
1841,D5,389.5,0.125,53,136.54
1842,B3,389.5,0.25,42,136.54
1843,E5,389.625,0.125,41,136.54
1844,D5,389.75,0.125,53,136.54
1845,F4,389.75,0.25,42,136.54
1846,E5,389.875,0.125,42,136.54
1847,D5,390.0,0.125,54,136.54
1848,G3,390.0,0.25,48,136.54
1849,E5,390.125,0.125,43,136.54
1850,D5,390.25,0.125,54,136.54
1851,F4,390.25,0.25,42,136.54
1852,E5,390.375,0.125,45,136.54
1853,D5,390.5,0.125,54,136.54
1854,B3,390.5,0.25,42,136.54
1855,E5,390.625,0.125,44,136.54
1856,D5,390.75,0.125,54,136.54
1857,F4,390.75,0.25,42,136.54
1858,E5,390.875,0.125,44,136.54
1859,D5,391.0,0.125,53,136.54
1860,G3,391.0,0.25,49,136.54
1861,E5,391.125,0.125,45,136.54
1862,D5,391.25,0.125,53,136.54
1863,F4,391.25,0.25,42,136.54
1864,E5,391.375,0.125,42,136.54
1865,D5,391.5,167/1000,53,136.54
1866,B3,391.5,0.25,42,136.54
1867,C5,391.667,167/1000,59,136.54
1868,F4,391.75,0.25,42,136.54
1869,D5,391.833,167/1000,58,136.54
1870,C5,392.0,1.0,69,136.54
1871,E4,392.0,1.0,54,136.54
1872,C4,392.0,1.0,54,136.54
1873,C5,393.0,0.25,67,136.54
1874,G4,393.25,0.25,59,136.54
1875,C5,393.5,0.25,62,136.54
1876,E5,393.75,0.25,65,136.54
1877,G5,394.0,0.25,68,136.54
1878,E5,394.25,0.25,63,136.54
1879,C5,394.5,0.25,68,136.54
1880,E5,394.75,0.25,63,136.54
1881,F5,395.0,0.25,69,136.54
1882,G3,395.0,1.0,43,136.54
1883,F4,395.0,1.0,43,136.54
1884,D4,395.0,1.0,43,136.54
1885,D5,395.25,0.25,63,136.54
1886,B4,395.5,0.25,69,136.54
1887,D5,395.75,0.25,63,136.54
1888,C5,396.0,1.0,69,136.54
1889,E4,396.0,1.0,54,136.54
1890,C4,396.0,1.0,54,136.54
1891,C4,397.0,0.25,67,136.54
1892,G3,397.25,0.25,59,136.54
1893,C4,397.5,0.25,62,136.54
1894,E4,397.75,0.25,65,136.54
1895,G4,398.0,0.25,68,136.54
1896,E4,398.25,0.25,63,136.54
1897,C4,398.5,0.25,68,136.54
1898,E4,398.75,0.25,63,136.54
1899,F4,399.0,0.25,69,136.54
1900,G2,399.0,1.0,43,136.54
1901,D3,399.0,1.0,43,136.54
1902,F3,399.0,1.0,43,136.54
1903,D4,399.25,0.25,63,136.54
1904,B3,399.5,0.25,69,136.54
1905,D4,399.75,0.25,63,136.54
1906,C4,400.0,0.25,74,136.54
1907,E3,400.0,0.25,48,136.54
1908,C3,400.0,0.25,48,136.54
1909,C4,401.0,0.25,59,136.54
1910,G5,401.0,0.25,74,136.54
1911,C6,401.0,0.25,74,136.54
1912,E5,401.0,0.25,74,136.54
1913,C5,402.0,1.0,83,136.54
1914,C3,402.0,1.0,50,136.54
1915,C2,402.0,1.0,50,136.54
1916,G4,404.0,1.0,69,136.54
1917,G3,404.0,1.0,54,136.54
1918,G2,404.0,1.0,54,136.54
1919,G5,405.0,0.25,67,136.54
1920,D5,405.25,0.25,59,136.54
1921,G5,405.5,0.25,62,136.54
1922,B-5,405.75,0.25,65,136.54
1923,D6,406.0,0.25,68,136.54
1924,B-5,406.25,0.25,63,136.54
1925,G5,406.5,0.25,68,136.54
1926,B-5,406.75,0.25,63,136.54
1927,C6,407.0,0.25,69,136.54
1928,A4,407.0,1.0,43,136.54
1929,C5,407.0,1.0,43,136.54
1930,D4,407.0,1.0,43,136.54
1931,A5,407.25,0.25,63,136.54
1932,F#5,407.5,0.25,69,136.54
1933,A5,407.75,0.25,63,136.54
1934,G5,408.0,1.0,69,136.54
1935,G4,408.0,1.0,54,136.54
1936,B-4,408.0,1.0,54,136.54
1937,G4,409.0,0.25,67,136.54
1938,D4,409.25,0.25,59,136.54
1939,G4,409.5,0.25,62,136.54
1940,B-4,409.75,0.25,65,136.54
1941,D5,410.0,0.25,68,136.54
1942,B-4,410.25,0.25,63,136.54
1943,G4,410.5,0.25,68,136.54
1944,B-4,410.75,0.25,63,136.54
1945,C5,411.0,0.25,69,136.54
1946,A3,411.0,1.0,43,136.54
1947,C4,411.0,1.0,43,136.54
1948,D3,411.0,1.0,43,136.54
1949,A4,411.25,0.25,63,136.54
1950,F#4,411.5,0.25,69,136.54
1951,A4,411.75,0.25,63,136.54
1952,G4,412.0,1.0,74,136.54
1953,G2,412.25,11/40,49,136.54
1954,A2,412.5,11/40,51,136.54
1955,B-2,412.75,11/40,52,136.54
1956,C3,413.0,11/40,54,136.54
1957,D3,413.25,11/40,56,136.54
1958,E3,413.5,11/40,58,136.54
1959,F#3,413.75,11/40,60,136.54
1960,G3,414.0,1.0,61,136.54
1961,G5,414.25,11/40,68,136.54
1962,B-5,414.5,11/40,72,136.54
1963,A5,414.75,11/40,70,136.54
1964,G5,415.0,11/40,68,136.54
1965,F5,415.25,11/40,67,136.54
1966,E5,415.5,11/40,65,136.54
1967,D5,415.75,0.25,64,136.54
1968,C#5,416.0,1.0,70,136.54
1969,D5,416.0,1/40,64,136.54
1970,A2,416.25,11/40,53,136.54
1971,B2,416.5,11/40,55,136.54
1972,C#3,416.75,11/40,57,136.54
1973,D3,417.0,11/40,60,136.54
1974,E3,417.25,11/40,62,136.54
1975,F#3,417.5,11/40,64,136.54
1976,G#3,417.75,11/40,66,136.54
1977,A3,418.0,1.0,68,136.54
1978,C#6,418.25,11/40,75,136.54
1979,E6,418.5,11/40,79,136.54
1980,D6,418.75,11/40,77,136.54
1981,C#6,419.0,11/40,74,136.54
1982,B-5,419.25,11/40,72,136.54
1983,A5,419.5,11/40,70,136.54
1984,G5,419.75,0.25,72,136.54
1985,F5,420.0,1.0,85,136.54
1986,G5,420.0,1/40,72,136.54
1987,D3,420.0,1.0,71,136.54
1988,D2,420.0,1.0,71,136.54
1989,D5,421.0,0.25,73,136.54
1990,A4,421.25,0.25,64,136.54
1991,D5,421.5,0.25,68,136.54
1992,F5,421.75,0.25,71,136.54
1993,A5,422.0,0.25,74,136.54
1994,F5,422.25,0.25,69,136.54
1995,D5,422.5,0.25,74,136.54
1996,F5,422.75,0.25,69,136.54
1997,G5,423.0,0.25,75,136.54
1998,E4,423.0,1.0,47,136.54
1999,G4,423.0,1.0,47,136.54
2000,A3,423.0,1.0,47,136.54
2001,E5,423.25,0.25,69,136.54
2002,C#5,423.5,0.25,75,136.54
2003,E5,423.75,0.25,69,136.54
2004,D5,424.0,1.0,75,136.54
2005,D4,424.0,1.0,58,136.54
2006,F4,424.0,1.0,58,136.54
2007,D4,425.0,0.25,67,136.54
2008,A3,425.25,0.25,59,136.54
2009,D4,425.5,0.25,62,136.54
2010,F4,425.75,0.25,65,136.54
2011,A4,426.0,0.25,68,136.54
2012,F4,426.25,0.25,63,136.54
2013,D4,426.5,0.25,68,136.54
2014,F4,426.75,0.25,63,136.54
2015,G4,427.0,0.25,69,136.54
2016,E3,427.0,1.0,43,136.54
2017,G3,427.0,1.0,43,136.54
2018,A2,427.0,1.0,43,136.54
2019,E4,427.25,0.25,63,136.54
2020,C#4,427.5,0.25,69,136.54
2021,E4,427.75,0.25,63,136.54
2022,D3,428.0,1.0,62,136.54
2023,F3,428.0,1.0,62,136.54
2024,D4,428.25,11/40,54,136.54
2025,E4,428.5,11/40,56,136.54
2026,F4,428.75,11/40,58,136.54
2027,G4,429.0,11/40,60,136.54
2028,A4,429.25,11/40,61,136.54
2029,B4,429.5,11/40,63,136.54
2030,C#5,429.75,11/40,65,136.54
2031,D5,430.0,1.0,66,136.54
2032,D4,430.25,11/40,53,136.54
2033,F4,430.5,11/40,63,136.54
2034,E4,430.75,11/40,61,136.54
2035,D4,431.0,11/40,59,136.54
2036,C4,431.25,11/40,56,136.54
2037,B3,431.5,11/40,54,136.54
2038,A3,431.75,0.25,52,136.54
2039,G#3,432.0,1.0,57,136.54
2040,A3,432.0,1/40,52,136.54
2041,B4,432.25,11/40,58,136.54
2042,C5,432.5,11/40,60,136.54
2043,D5,432.75,11/40,61,136.54
2044,E5,433.0,11/40,63,136.54
2045,F#5,433.25,11/40,64,136.54
2046,G#5,433.5,11/40,66,136.54
2047,A5,433.75,11/40,67,136.54
2048,B5,434.0,1.0,69,136.54
2049,G#3,434.25,11/40,52,136.54
2050,B3,434.5,11/40,61,136.54
2051,A3,434.75,11/40,59,136.54
2052,G#3,435.0,11/40,57,136.54
2053,F3,435.25,11/40,55,136.54
2054,E3,435.5,11/40,53,136.54
2055,D3,435.75,0.25,50,136.54
2056,C3,436.0,1.0,57,136.54
2057,D3,436.0,1/40,50,136.54
2058,A5,436.25,11/40,70,136.54
2059,E6,436.5,11/40,77,136.54
2060,D6,436.75,11/40,70,136.54
2061,C6,437.0,11/40,71,136.54
2062,B5,437.25,11/40,72,136.54
2063,A5,437.5,11/40,73,136.54
2064,G5,437.75,11/40,74,136.54
2065,F5,438.0,1.0,78,136.54
2066,D4,438.25,11/40,58,136.54
2067,A4,438.5,11/40,66,136.54
2068,G4,438.75,11/40,64,136.54
2069,F4,439.0,11/40,62,136.54
2070,E4,439.25,11/40,61,136.54
2071,D4,439.5,11/40,59,136.54
2072,C4,439.75,0.25,58,136.54
2073,B3,440.0,1.0,68,136.54
2074,C4,440.0,1/40,58,136.54
2075,G5,440.25,11/40,64,136.54
2076,D6,440.5,11/40,69,136.54
2077,C6,440.75,11/40,63,136.54
2078,B5,441.0,11/40,64,136.54
2079,A5,441.25,11/40,66,136.54
2080,G5,441.5,11/40,67,136.54
2081,F5,441.75,11/40,69,136.54
2082,E5,442.0,1.0,71,136.54
2083,C4,442.25,11/40,50,136.54
2084,G4,442.5,11/40,58,136.54
2085,F4,442.75,11/40,56,136.54
2086,E4,443.0,11/40,55,136.54
2087,D4,443.25,11/40,53,136.54
2088,C4,443.5,11/40,51,136.54
2089,B3,443.75,0.25,49,136.54
2090,A3,444.0,1.0,57,136.54
2091,B3,444.0,1/40,49,136.54
2092,F5,444.25,11/40,60,136.54
2093,C6,444.5,11/40,66,136.54
2094,B5,444.75,11/40,70,136.54
2095,A5,445.0,11/40,69,136.54
2096,G5,445.25,11/40,68,136.54
2097,F5,445.5,11/40,66,136.54
2098,E5,445.75,11/40,65,136.54
2099,D5,446.0,1.0,69,136.54
2100,B3,446.25,11/40,50,136.54
2101,F4,446.5,11/40,56,136.54
2102,E4,446.75,11/40,54,136.54
2103,D4,447.0,11/40,53,136.54
2104,C4,447.25,11/40,51,136.54
2105,B3,447.5,11/40,49,136.54
2106,A3,447.75,0.25,48,136.54
2107,G#3,448.0,1.0,54,136.54
2108,A3,448.0,1/40,48,136.54
2109,E5,448.25,11/40,59,136.54
2110,B5,448.5,11/40,67,136.54
2111,A5,448.75,11/40,67,136.54
2112,G#5,449.0,11/40,66,136.54
2113,F5,449.25,11/40,65,136.54
2114,E5,449.5,11/40,64,136.54
2115,D5,449.75,11/40,63,136.54
2116,C5,450.0,1.0,66,136.54
2117,A3,450.25,11/40,44,136.54
2118,C4,450.5,11/40,52,136.54
2119,B3,450.75,11/40,50,136.54
2120,A3,451.0,11/40,48,136.54
2121,G3,451.25,11/40,46,136.54
2122,F3,451.5,11/40,45,136.54
2123,E3,451.75,0.25,43,136.54
2124,D3,452.0,2.0,51,136.54
2125,E3,452.0,1/40,43,136.54
2126,B-4,452.25,11/40,58,136.54
2127,D5,452.5,11/40,64,136.54
2128,C5,452.75,11/40,59,136.54
2129,B-4,453.0,11/40,64,136.54
2130,A4,453.25,11/40,63,136.54
2131,G4,453.5,11/40,61,136.54
2132,F4,453.75,0.25,60,136.54
2133,E4,454.0,11/40,59,136.54
2134,C3,454.0,2.0,50,136.54
2135,G3,454.0,2.0,50,136.54
2136,B-3,454.0,2.0,50,136.54
2137,F4,454.25,11/40,57,136.54
2138,G4,454.5,11/40,56,136.54
2139,A4,454.75,11/40,55,136.54
2140,B-4,455.0,11/40,53,136.54
2141,C5,455.25,11/40,52,136.54
2142,D5,455.5,11/40,50,136.54
2143,E5,455.75,0.25,49,136.54
2144,F5,456.0,2.0,59,136.54
2145,F4,456.0,0.5,40,136.54
2146,C5,456.5,0.5,30,136.54
2147,A4,457.0,0.5,30,136.54
2148,C5,457.5,0.5,30,136.54
2149,A5,458.0,1.0,58,136.54
2150,F4,458.0,0.5,40,136.54
2151,C5,458.5,0.5,30,136.54
2152,C6,459.0,1.0,56,136.54
2153,A4,459.0,0.5,30,136.54
2154,C5,459.5,0.5,30,136.54
2155,E5,460.0,1.5,60,136.54
2156,G4,460.0,0.5,30,136.54
2157,C5,460.5,0.5,29,136.54
2158,B-4,461.0,0.5,31,136.54
2159,F5,461.5,0.25,55,136.54
2160,C5,461.5,0.5,28,136.54
2161,G5,461.75,0.25,51,136.54
2162,F5,462.0,1.0,60,136.54
2163,F4,462.0,0.5,40,136.54
2164,C5,462.5,0.5,29,136.54
2165,A4,463.0,0.5,32,136.54
2166,C5,463.5,0.5,29,136.54
2167,D6,464.0,2.0,64,136.54
2168,F4,464.0,0.5,40,136.54
2169,D5,464.5,0.5,32,136.54
2170,B-4,465.0,0.5,32,136.54
2171,D5,465.5,0.5,32,136.54
2172,C6,466.0,1.0,62,136.54
2173,F4,466.0,0.5,40,136.54
2174,C5,466.5,0.5,32,136.54
2175,F6,467.0,1.0,64,136.54
2176,A4,467.0,0.5,32,136.54
2177,C5,467.5,0.5,32,136.54
2178,C6,468.0,1.0,64,136.54
2179,E4,468.0,0.5,40,136.54
2180,C5,468.5,0.5,32,136.54
2181,B-5,469.0,167/1000,55,136.54
2182,G4,469.0,0.5,32,136.54
2183,C6,469.167,167/1000,55,136.54
2184,B-5,469.333,167/1000,55,136.54
2185,A5,469.5,0.25,59,136.54
2186,C5,469.5,0.5,32,136.54
2187,B-5,469.75,0.25,55,136.54
2188,A5,470.0,1.0,60,136.54
2189,F4,470.0,0.5,40,136.54
2190,C5,470.5,0.5,34,136.54
2191,A4,471.0,0.5,34,136.54
2192,C5,471.5,0.5,34,136.54
2193,D5,472.0,0.5,60,136.54
2194,B-4,472.0,1.0,40,136.54
2195,E5,472.5,11/40,53,136.54
2196,F5,472.75,11/40,54,136.54
2197,G5,473.0,11/40,55,136.54
2198,A5,473.25,11/40,57,136.54
2199,B-5,473.5,11/40,58,136.54
2200,C6,473.75,11/40,59,136.54
2201,D6,474.0,11/40,62,136.54
2202,C6,474.25,11/40,61,136.54
2203,B-5,474.5,11/40,60,136.54
2204,A5,474.75,11/40,59,136.54
2205,G5,475.0,11/40,58,136.54
2206,B-3,475.0,1.0,40,136.54
2207,F4,475.0,1.0,40,136.54
2208,F5,475.25,11/40,57,136.54
2209,E5,475.5,11/40,55,136.54
2210,D5,475.75,0.25,53,136.54
2211,C5,476.0,0.5,60,136.54
2212,D5,476.0,1/40,53,136.54
2213,A3,476.0,1.0,40,136.54
2214,F4,476.0,1.0,40,136.54
2215,D5,476.5,11/40,53,136.54
2216,E5,476.75,11/40,54,136.54
2217,F5,477.0,11/40,55,136.54
2218,G5,477.25,11/40,57,136.54
2219,A5,477.5,11/40,58,136.54
2220,B-5,477.75,11/40,59,136.54
2221,C6,478.0,11/40,62,136.54
2222,B-5,478.25,11/40,61,136.54
2223,A5,478.5,11/40,60,136.54
2224,G5,478.75,11/40,59,136.54
2225,F5,479.0,11/40,58,136.54
2226,A3,479.0,1.0,40,136.54
2227,F4,479.0,1.0,40,136.54
2228,E5,479.25,11/40,57,136.54
2229,D5,479.5,11/40,55,136.54
2230,C5,479.75,0.25,53,136.54
2231,B-4,480.0,0.5,60,136.54
2232,C5,480.0,1/40,53,136.54
2233,G3,480.0,1.0,40,136.54
2234,F4,480.0,1.0,40,136.54
2235,C5,480.5,11/40,53,136.54
2236,D5,480.75,11/40,54,136.54
2237,E5,481.0,11/40,55,136.54
2238,F5,481.25,11/40,57,136.54
2239,G5,481.5,11/40,58,136.54
2240,A5,481.75,11/40,59,136.54
2241,B-5,482.0,11/40,62,136.54
2242,A5,482.25,11/40,61,136.54
2243,G5,482.5,11/40,60,136.54
2244,F5,482.75,11/40,59,136.54
2245,E5,483.0,11/40,58,136.54
2246,G3,483.0,1.0,40,136.54
2247,E4,483.0,1.0,40,136.54
2248,D5,483.25,11/40,57,136.54
2249,C5,483.5,11/40,55,136.54
2250,B-4,483.75,0.25,53,136.54
2251,A4,484.0,0.5,60,136.54
2252,B-4,484.0,1/40,53,136.54
2253,F3,484.0,1.0,40,136.54
2254,F4,484.0,1.0,40,136.54
2255,B-4,484.5,11/40,53,136.54
2256,C5,484.75,11/40,54,136.54
2257,D5,485.0,11/40,55,136.54
2258,E5,485.25,11/40,57,136.54
2259,F5,485.5,11/40,58,136.54
2260,G5,485.75,11/40,59,136.54
2261,A5,486.0,11/40,62,136.54
2262,G5,486.25,11/40,61,136.54
2263,F5,486.5,11/40,60,136.54
2264,E5,486.75,11/40,59,136.54
2265,D5,487.0,11/40,58,136.54
2266,C5,487.25,11/40,57,136.54
2267,B-4,487.5,11/40,55,136.54
2268,A4,487.75,0.25,53,136.54
2269,A5,488.0,1.0,61,136.54
2270,A4,488.0,1/40,53,136.54
2271,F3,488.0,0.5,48,136.54
2272,G3,488.5,11/40,42,136.54
2273,A3,488.75,11/40,42,136.54
2274,B-3,489.0,11/40,43,136.54
2275,C4,489.25,11/40,45,136.54
2276,D4,489.5,11/40,46,136.54
2277,E4,489.75,11/40,47,136.54
2278,F4,490.0,11/40,49,136.54
2279,E4,490.25,11/40,48,136.54
2280,D4,490.5,11/40,48,136.54
2281,C4,490.75,11/40,47,136.54
2282,B-3,491.0,11/40,46,136.54
2283,C5,491.0,1.0,56,136.54
2284,A5,491.0,1.0,56,136.54
2285,A3,491.25,11/40,45,136.54
2286,G3,491.5,11/40,43,136.54
2287,F3,491.75,0.25,42,136.54
2288,E3,492.0,0.5,48,136.54
2289,F3,492.0,1/40,42,136.54
2290,C5,492.0,1.0,56,136.54
2291,G5,492.0,1.0,56,136.54
2292,F3,492.5,11/40,42,136.54
2293,G3,492.75,11/40,42,136.54
2294,A3,493.0,11/40,43,136.54
2295,B3,493.25,11/40,45,136.54
2296,C4,493.5,11/40,46,136.54
2297,D4,493.75,11/40,47,136.54
2298,E4,494.0,11/40,49,136.54
2299,D4,494.25,11/40,48,136.54
2300,C4,494.5,11/40,48,136.54
2301,B3,494.75,11/40,47,136.54
2302,A3,495.0,11/40,46,136.54
2303,C5,495.0,1.0,56,136.54
2304,G5,495.0,1.0,56,136.54
2305,G3,495.25,11/40,45,136.54
2306,F3,495.5,11/40,43,136.54
2307,E3,495.75,0.25,42,136.54
2308,D3,496.0,0.5,48,136.54
2309,E3,496.0,1/40,42,136.54
2310,C5,496.0,1.0,56,136.54
2311,F5,496.0,1.0,56,136.54
2312,E3,496.5,11/40,42,136.54
2313,F3,496.75,11/40,42,136.54
2314,G3,497.0,11/40,43,136.54
2315,A3,497.25,11/40,45,136.54
2316,B3,497.5,11/40,46,136.54
2317,C4,497.75,11/40,47,136.54
2318,D4,498.0,11/40,49,136.54
2319,C4,498.25,11/40,48,136.54
2320,B3,498.5,11/40,48,136.54
2321,A3,498.75,11/40,47,136.54
2322,G3,499.0,11/40,46,136.54
2323,B4,499.0,1.0,56,136.54
2324,F5,499.0,1.0,56,136.54
2325,F3,499.25,11/40,45,136.54
2326,E3,499.5,11/40,43,136.54
2327,D3,499.75,0.25,42,136.54
2328,C3,500.0,0.5,48,136.54
2329,D3,500.0,1/40,42,136.54
2330,C5,500.0,1.0,56,136.54
2331,E5,500.0,1.0,56,136.54
2332,D3,500.5,11/40,42,136.54
2333,E3,500.75,11/40,42,136.54
2334,F3,501.0,11/40,43,136.54
2335,G3,501.25,11/40,45,136.54
2336,A3,501.5,11/40,46,136.54
2337,B3,501.75,11/40,47,136.54
2338,C4,502.0,11/40,49,136.54
2339,B3,502.25,11/40,48,136.54
2340,A3,502.5,11/40,48,136.54
2341,G3,502.75,11/40,47,136.54
2342,F3,503.0,11/40,46,136.54
2343,C5,503.0,1.0,56,136.54
2344,E5,503.0,1.0,56,136.54
2345,E3,503.25,11/40,45,136.54
2346,D3,503.5,11/40,43,136.54
2347,C3,503.75,0.25,42,136.54
2348,D5,504.0,0.25,60,136.54
2349,C3,504.0,1/40,42,136.54
2350,F3,504.0,4.0,38,136.54
2351,A3,504.0,4.0,38,136.54
2352,D4,504.25,11/40,53,136.54
2353,E4,504.5,11/40,53,136.54
2354,F4,504.75,11/40,54,136.54
2355,G4,505.0,11/40,55,136.54
2356,A4,505.25,11/40,57,136.54
2357,B4,505.5,11/40,58,136.54
2358,C#5,505.75,11/40,59,136.54
2359,D5,506.0,0.25,62,136.54
2360,A4,506.25,11/40,58,136.54
2361,B4,506.5,11/40,61,136.54
2362,C#5,506.75,11/40,64,136.54
2363,D5,507.0,11/40,66,136.54
2364,E5,507.25,11/40,67,136.54
2365,F5,507.5,11/40,68,136.54
2366,G5,507.75,0.25,69,136.54
2367,A5,508.0,11/40,70,136.54
2368,G5,508.0,1/40,69,136.54
2369,F3,508.0,1.5,60,136.54
2370,B5,508.25,11/40,69,136.54
2371,C6,508.5,11/40,71,136.54
2372,B5,508.75,11/40,69,136.54
2373,A5,509.0,11/40,67,136.54
2374,G5,509.25,11/40,65,136.54
2375,F5,509.5,11/40,63,136.54
2376,G3,509.5,0.5,55,136.54
2377,E5,509.75,0.25,66,136.54
2378,F5,510.0,11/40,65,136.54
2379,A3,510.0,1.5,60,136.54
2380,G5,510.25,11/40,66,136.54
2381,A5,510.5,11/40,67,136.54
2382,G5,510.75,11/40,67,136.54
2383,F5,511.0,11/40,68,136.54
2384,E5,511.25,11/40,71,136.54
2385,D5,511.5,11/40,73,136.54
2386,F#3,511.5,0.5,54,136.54
2387,C5,511.75,0.25,76,136.54
2388,B4,512.0,0.25,78,136.54
2389,C5,512.0,1/40,76,136.54
2390,G2,512.0,0.25,65,136.54
2391,B2,512.25,0.25,56,136.54
2392,G5,512.5,0.25,71,136.54
2393,D3,512.5,0.25,56,136.54
2394,G3,512.75,0.25,50,136.54
2395,E5,513.0,0.25,71,136.54
2396,G2,513.0,0.25,65,136.54
2397,C3,513.25,0.25,55,136.54
2398,C5,513.5,0.25,71,136.54
2399,E3,513.5,0.25,55,136.54
2400,G3,513.75,0.25,50,136.54
2401,D5,514.0,0.25,78,136.54
2402,G2,514.0,0.25,65,136.54
2403,B2,514.25,0.25,55,136.54
2404,G5,514.5,0.25,71,136.54
2405,D3,514.5,0.25,55,136.54
2406,G3,514.75,0.25,54,136.54
2407,E5,515.0,0.25,71,136.54
2408,G2,515.0,0.25,65,136.54
2409,C3,515.25,0.25,57,136.54
2410,C5,515.5,0.25,71,136.54
2411,E3,515.5,0.25,56,136.54
2412,G3,515.75,0.25,53,136.54
2413,D5,516.0,0.25,81,136.54
2414,G2,516.0,0.25,65,136.54
2415,G3,517.0,0.25,59,136.54
2416,D5,517.0,0.25,71,136.54
2417,G5,517.0,0.25,71,136.54
2418,B4,517.0,0.25,71,136.54
2419,G4,518.0,1.0,83,136.54
2420,G2,518.0,1.0,61,136.54
2421,F#4,520.0,11/40,42,136.54
2422,G4,520.25,0.25,36,136.54
2423,F#4,520.5,11/40,42,136.54
2424,G4,520.75,0.25,36,136.54
2425,F#4,521.0,11/40,42,136.54
2426,G4,521.25,0.25,38,136.54
2427,F#4,521.5,11/40,42,136.54
2428,G4,521.75,0.25,37,136.54
2429,F4,522.0,11/40,42,136.54
2430,G4,522.25,0.25,36,136.54
2431,F4,522.5,11/40,42,136.54
2432,G4,522.75,0.25,37,136.54
2433,F4,523.0,11/40,42,136.54
2434,G4,523.25,0.25,37,136.54
2435,F4,523.5,11/40,42,136.54
2436,G4,523.75,0.25,38,136.54
2437,G5,524.0,0.5,61,136.54
2438,E4,524.0,0.25,42,136.54
2439,G4,524.25,0.25,36,136.54
2440,E5,524.5,0.5,55,136.54
2441,E4,524.5,0.25,42,136.54
2442,G4,524.75,0.25,36,136.54
2443,C5,525.0,1.5,61,136.54
2444,E4,525.0,0.25,42,136.54
2445,G4,525.25,0.25,32,136.54
2446,E4,525.5,0.25,38,136.54
2447,G4,525.75,0.25,33,136.54
2448,E4,526.0,0.25,39,136.54
2449,G4,526.25,0.25,32,136.54
2450,D5,526.5,0.25,53,136.54
2451,E4,526.5,0.25,39,136.54
2452,E5,526.75,0.25,51,136.54
2453,G4,526.75,0.25,34,136.54
2454,D5,527.0,0.5,55,136.54
2455,E4,527.0,0.25,42,136.54
2456,G4,527.25,0.25,37,136.54
2457,C5,527.5,0.25,53,136.54
2458,E4,527.5,0.25,42,136.54
2459,G4,527.75,0.25,38,136.54
2460,C5,528.0,0.125,55,136.54
2461,F4,528.0,0.25,46,136.54
2462,D5,528.125,0.125,51,136.54
2463,C5,528.25,0.125,56,136.54
2464,G4,528.25,0.25,38,136.54
2465,D5,528.375,0.125,51,136.54
2466,C5,528.5,0.25,58,136.54
2467,E4,528.5,0.25,42,136.54
2468,B4,528.75,229/1000,52,136.54
2469,G4,528.75,0.25,36,136.54
2470,B4,529.0,1.0,58,136.54
2471,D4,529.0,11/40,39,136.54
2472,G4,529.25,0.25,27,136.54
2473,E4,529.5,11/40,47,136.54
2474,G4,529.75,0.25,35,136.54
2475,F4,530.0,11/40,50,136.54
2476,G4,530.25,0.25,36,136.54
2477,E4,530.5,11/40,44,136.54
2478,G4,530.75,0.25,30,136.54
2479,F4,531.0,11/40,52,136.54
2480,G4,531.25,0.25,31,136.54
2481,D4,531.5,11/40,40,136.54
2482,G4,531.75,0.25,28,136.54
2483,G5,532.0,0.5,61,136.54
2484,E4,532.0,0.25,42,136.54
2485,G4,532.25,0.25,36,136.54
2486,E5,532.5,0.5,55,136.54
2487,E4,532.5,0.25,42,136.54
2488,G4,532.75,0.25,36,136.54
2489,C5,533.0,1.5,61,136.54
2490,E4,533.0,0.25,42,136.54
2491,G4,533.25,0.25,32,136.54
2492,E4,533.5,0.25,38,136.54
2493,G4,533.75,0.25,33,136.54
2494,E4,534.0,0.25,39,136.54
2495,G4,534.25,0.25,32,136.54
2496,D5,534.5,0.25,53,136.54
2497,E4,534.5,0.25,39,136.54
2498,E5,534.75,0.25,51,136.54
2499,G4,534.75,0.25,34,136.54
2500,D5,535.0,0.5,55,136.54
2501,E4,535.0,0.25,42,136.54
2502,G4,535.25,0.25,37,136.54
2503,C5,535.5,0.25,53,136.54
2504,E4,535.5,0.25,42,136.54
2505,G4,535.75,0.25,38,136.54
2506,C5,536.0,0.125,55,136.54
2507,F4,536.0,0.25,42,136.54
2508,D5,536.125,0.125,51,136.54
2509,C5,536.25,0.125,56,136.54
2510,G4,536.25,0.25,36,136.54
2511,D5,536.375,0.125,50,136.54
2512,C5,536.5,0.25,55,136.54
2513,E4,536.5,0.25,42,136.54
2514,B4,536.75,0.188,52,136.54
2515,G4,536.75,0.25,36,136.54
2516,B4,537.0,1.0,58,136.54
2517,D4,537.0,11/40,39,136.54
2518,G4,537.25,0.25,29,136.54
2519,E4,537.5,11/40,42,136.54
2520,G4,537.75,0.25,32,136.54
2521,F4,538.0,11/40,48,136.54
2522,G4,538.25,0.25,36,136.54
2523,E4,538.5,11/40,43,136.54
2524,G4,538.75,0.25,30,136.54
2525,F4,539.0,11/40,48,136.54
2526,G4,539.25,0.25,36,136.54
2527,D4,539.5,11/40,43,136.54
2528,G4,539.75,0.25,30,136.54
2529,G5,540.0,1.0,65,136.54
2530,E3,540.25,0.25,37,136.54
2531,G3,540.5,0.25,39,136.54
2532,C4,540.75,0.25,37,136.54
2533,E4,541.0,1.0,45,136.54
2534,G5,541.25,0.25,57,136.54
2535,E5,541.5,0.25,62,136.54
2536,C5,541.75,0.25,57,136.54
2537,A4,542.0,1.0,64,136.54
2538,F3,542.25,0.25,39,136.54
2539,A3,542.5,0.25,41,136.54
2540,C4,542.75,0.25,38,136.54
2541,F4,543.0,1.0,49,136.54
2542,A4,543.25,0.25,57,136.54
2543,C5,543.5,0.25,62,136.54
2544,A4,543.75,0.25,57,136.54
2545,F5,544.0,1.0,65,136.54
2546,D3,544.25,0.25,37,136.54
2547,F3,544.5,0.25,39,136.54
2548,B3,544.75,0.25,37,136.54
2549,D4,545.0,1.0,45,136.54
2550,F5,545.25,0.25,57,136.54
2551,D5,545.5,0.25,62,136.54
2552,B4,545.75,0.25,57,136.54
2553,G4,546.0,1.0,64,136.54
2554,E3,546.25,0.25,39,136.54
2555,G3,546.5,0.25,41,136.54
2556,B3,546.75,0.25,38,136.54
2557,E4,547.0,1.0,49,136.54
2558,G5,547.25,0.25,64,136.54
2559,B5,547.5,0.25,67,136.54
2560,G5,547.75,0.25,63,136.54
2561,E6,548.0,1.0,72,136.54
2562,C4,548.25,0.25,39,136.54
2563,E4,548.5,0.25,42,136.54
2564,A4,548.75,0.25,39,136.54
2565,C5,549.0,1.0,48,136.54
2566,E6,549.25,0.25,61,136.54
2567,C6,549.5,0.25,66,136.54
2568,A5,549.75,0.25,61,136.54
2569,F5,550.0,1.0,68,136.54
2570,D4,550.25,0.25,42,136.54
2571,F4,550.5,0.25,44,136.54
2572,A4,550.75,0.25,41,136.54
2573,D5,551.0,1.0,52,136.54
2574,F5,551.25,0.25,64,136.54
2575,A5,551.5,0.25,66,136.54
2576,F5,551.75,0.25,64,136.54
2577,D6,552.0,1.0,73,136.54
2578,B3,552.25,0.25,39,136.54
2579,D4,552.5,0.25,42,136.54
2580,G4,552.75,0.25,39,136.54
2581,B4,553.0,1.0,48,136.54
2582,D6,553.25,0.25,61,136.54
2583,B5,553.5,0.25,66,136.54
2584,F5,553.75,0.25,61,136.54
2585,E5,554.0,1.0,68,136.54
2586,C4,554.25,0.25,42,136.54
2587,E4,554.5,0.25,44,136.54
2588,G4,554.75,0.25,41,136.54
2589,C5,555.0,1.0,52,136.54
2590,C6,555.25,0.25,61,136.54
2591,G5,555.5,0.25,66,136.54
2592,E5,555.75,0.25,61,136.54
2593,D5,556.0,1.875,71,136.54
2594,A4,556.5,0.25,39,136.54
2595,F4,556.5,0.25,39,136.54
2596,A4,557.0,0.25,39,136.54
2597,F4,557.0,0.25,39,136.54
2598,F4,557.5,0.25,39,136.54
2599,A4,557.5,0.25,39,136.54
2600,C#5,557.875,0.125,64,136.54
2601,D5,558.0,0.875,69,136.54
2602,A4,558.0,0.25,44,136.54
2603,F4,558.0,0.25,44,136.54
2604,F4,558.5,0.25,40,136.54
2605,A4,558.5,0.25,40,136.54
2606,C#5,558.875,0.125,65,136.54
2607,D5,559.0,1.0,72,136.54
2608,F4,559.0,0.25,40,136.54
2609,A4,559.0,0.25,40,136.54
2610,F4,559.5,0.25,41,136.54
2611,A4,559.5,0.25,41,136.54
2612,A5,560.0,1.875,77,136.54
2613,F#3,560.5,0.25,40,136.54
2614,E-4,560.5,0.25,40,136.54
2615,C4,560.5,0.25,40,136.54
2616,F#3,561.0,0.25,41,136.54
2617,E-4,561.0,0.25,41,136.54
2618,C4,561.0,0.25,41,136.54
2619,F#3,561.5,0.25,41,136.54
2620,C4,561.5,0.25,41,136.54
2621,E-4,561.5,0.25,41,136.54
2622,G#5,561.875,0.125,69,136.54
2623,A5,562.0,0.875,78,136.54
2624,F#3,562.0,0.25,47,136.54
2625,C4,562.0,0.25,47,136.54
2626,E-4,562.0,0.25,47,136.54
2627,F#3,562.5,0.25,43,136.54
2628,C4,562.5,0.25,43,136.54
2629,E-4,562.5,0.25,43,136.54
2630,G#5,562.875,0.125,69,136.54
2631,A5,563.0,1.0,79,136.54
2632,F#3,563.0,0.25,43,136.54
2633,C4,563.0,0.25,43,136.54
2634,E-4,563.0,0.25,43,136.54
2635,F#3,563.5,0.25,44,136.54
2636,E-4,563.5,0.25,44,136.54
2637,C4,563.5,0.25,44,136.54
2638,G5,564.0,0.5,78,136.54
2639,G3,564.0,0.25,54,136.54
2640,E4,564.25,0.25,42,136.54
2641,A5,564.5,0.25,75,136.54
2642,C4,564.5,0.25,42,136.54
2643,B5,564.75,0.25,76,136.54
2644,E4,564.75,0.25,42,136.54
2645,C6,565.0,0.25,79,136.54
2646,G3,565.0,0.25,56,136.54
2647,D6,565.25,0.25,80,136.54
2648,E4,565.25,0.25,44,136.54
2649,E6,565.5,0.25,83,136.54
2650,C4,565.5,0.25,42,136.54
2651,D6,565.75,0.25,82,136.54
2652,E4,565.75,0.25,42,136.54
2653,C6,566.0,0.25,78,136.54
2654,G3,566.0,0.25,48,136.54
2655,B5,566.25,0.25,77,136.54
2656,E4,566.25,0.25,42,136.54
2657,A5,566.5,0.25,75,136.54
2658,C4,566.5,0.25,42,136.54
2659,G5,566.75,0.25,74,136.54
2660,E4,566.75,0.25,42,136.54
2661,F5,567.0,0.25,70,136.54
2662,G3,567.0,0.25,49,136.54
2663,E5,567.25,0.25,68,136.54
2664,E4,567.25,0.25,42,136.54
2665,D5,567.5,0.25,67,136.54
2666,C4,567.5,0.25,42,136.54
2667,C5,567.75,0.25,65,136.54
2668,E4,567.75,0.25,42,136.54
2669,D5,568.0,0.125,49,136.54
2670,G3,568.0,0.25,50,136.54
2671,E5,568.125,0.125,38,136.54
2672,D5,568.25,0.125,49,136.54
2673,F4,568.25,0.25,42,136.54
2674,E5,568.375,0.125,40,136.54
2675,D5,568.5,0.125,50,136.54
2676,B3,568.5,0.25,42,136.54
2677,E5,568.625,0.125,40,136.54
2678,D5,568.75,0.125,50,136.54
2679,F4,568.75,0.25,42,136.54
2680,E5,568.875,0.125,40,136.54
2681,D5,569.0,0.125,52,136.54
2682,G3,569.0,0.25,49,136.54
2683,E5,569.125,0.125,40,136.54
2684,D5,569.25,0.125,52,136.54
2685,F4,569.25,0.25,42,136.54
2686,E5,569.375,0.125,41,136.54
2687,D5,569.5,0.125,53,136.54
2688,B3,569.5,0.25,42,136.54
2689,E5,569.625,0.125,41,136.54
2690,D5,569.75,0.125,53,136.54
2691,F4,569.75,0.25,42,136.54
2692,E5,569.875,0.125,42,136.54
2693,D5,570.0,0.125,54,136.54
2694,G3,570.0,0.25,48,136.54
2695,E5,570.125,0.125,43,136.54
2696,D5,570.25,0.125,54,136.54
2697,F4,570.25,0.25,42,136.54
2698,E5,570.375,0.125,45,136.54
2699,D5,570.5,0.125,54,136.54
2700,B3,570.5,0.25,42,136.54
2701,E5,570.625,0.125,44,136.54
2702,D5,570.75,0.125,54,136.54
2703,F4,570.75,0.25,42,136.54
2704,E5,570.875,0.125,44,136.54
2705,D5,571.0,0.125,53,136.54
2706,G3,571.0,0.25,49,136.54
2707,E5,571.125,0.125,45,136.54
2708,D5,571.25,0.125,53,136.54
2709,F4,571.25,0.25,42,136.54
2710,E5,571.375,0.125,42,136.54
2711,D5,571.5,167/1000,53,136.54
2712,B3,571.5,0.25,42,136.54
2713,C5,571.667,167/1000,59,136.54
2714,F4,571.75,0.25,42,136.54
2715,D5,571.833,167/1000,58,136.54
2716,C5,572.0,1.0,69,136.54
2717,E4,572.0,1.0,54,136.54
2718,C4,572.0,1.0,54,136.54
2719,C5,573.0,0.25,67,136.54
2720,G4,573.25,0.25,59,136.54
2721,C5,573.5,0.25,62,136.54
2722,E5,573.75,0.25,65,136.54
2723,G5,574.0,0.25,68,136.54
2724,E5,574.25,0.25,63,136.54
2725,C5,574.5,0.25,68,136.54
2726,E5,574.75,0.25,63,136.54
2727,F5,575.0,0.25,69,136.54
2728,G3,575.0,1.0,43,136.54
2729,F4,575.0,1.0,43,136.54
2730,D4,575.0,1.0,43,136.54
2731,D5,575.25,0.25,63,136.54
2732,B4,575.5,0.25,69,136.54
2733,D5,575.75,0.25,63,136.54
2734,C5,576.0,1.0,69,136.54
2735,E4,576.0,1.0,54,136.54
2736,C4,576.0,1.0,54,136.54
2737,C4,577.0,0.25,67,136.54
2738,G3,577.25,0.25,59,136.54
2739,C4,577.5,0.25,62,136.54
2740,E4,577.75,0.25,65,136.54
2741,G4,578.0,0.25,68,136.54
2742,E4,578.25,0.25,63,136.54
2743,C4,578.5,0.25,68,136.54
2744,E4,578.75,0.25,63,136.54
2745,F4,579.0,0.25,69,136.54
2746,G2,579.0,1.0,43,136.54
2747,D3,579.0,1.0,43,136.54
2748,F3,579.0,1.0,43,136.54
2749,D4,579.25,0.25,63,136.54
2750,B3,579.5,0.25,69,136.54
2751,D4,579.75,0.25,63,136.54
2752,C4,580.0,0.25,74,136.54
2753,E3,580.0,0.25,48,136.54
2754,C3,580.0,0.25,48,136.54
2755,C4,581.0,0.25,59,136.54
2756,G5,581.0,0.25,76,136.54
2757,C6,581.0,0.25,76,136.54
2758,E5,581.0,0.25,76,136.54
2759,C5,582.0,1.0,85,136.54
2760,C3,582.0,1.0,51,136.54
2761,C2,582.0,1.0,51,136.54
