,note_name,start_time,duration,velocity,tempo
0,B-4,3.5,0.5,47,156.21
1,D5,4.0,0.5,50,156.21
2,B-3,4.0,0.5,30,156.21
3,F4,4.5,0.5,23,156.21
4,E-5,5.0,0.5,51,156.21
5,C4,5.0,0.5,23,156.21
6,F4,5.5,0.5,23,156.21
7,E5,6.0,1.0,52,156.21
8,D4,6.0,0.5,23,156.21
9,F4,6.5,0.5,23,156.21
10,F5,7.0,0.5,52,156.21
11,B-3,7.0,0.5,23,156.21
12,D5,7.5,0.25,51,156.21
13,F4,7.5,0.5,25,156.21
14,D5,7.875,0.125,52,156.21
15,C5,8.0,0.25,54,156.21
16,A3,8.0,0.25,30,156.21
17,B4,8.5,0.25,50,156.21
18,F4,8.5,0.25,23,156.21
19,C5,9.0,0.25,52,156.21
20,B-3,9.0,0.25,25,156.21
21,D5,9.5,0.25,50,156.21
22,F4,9.5,0.25,25,156.21
23,F5,10.0,1.0,54,156.21
24,C4,10.0,0.5,25,156.21
25,F4,10.5,0.5,25,156.21
26,E-5,11.0,0.5,46,156.21
27,E-4,11.0,0.5,25,156.21
28,A4,11.5,0.25,46,156.21
29,F4,11.5,0.5,24,156.21
30,B-4,12.0,0.25,52,156.21
31,D4,12.0,0.5,31,156.21
32,B-4,12.5,1.0,48,156.21
33,F4,12.5,0.5,24,156.21
34,D4,13.0,0.5,31,156.21
35,B4,13.5,0.5,47,156.21
36,F4,13.5,0.5,24,156.21
37,C5,14.0,0.25,51,156.21
38,A3,14.0,0.5,32,156.21
39,C5,14.5,1.0,50,156.21
40,F4,14.5,0.5,26,156.21
41,A3,15.0,0.5,32,156.21
42,C#5,15.5,0.5,50,156.21
43,F4,15.5,0.5,27,156.21
44,D5,16.0,0.25,54,156.21
45,B-3,16.0,0.25,32,156.21
46,C5,16.5,0.25,50,156.21
47,A3,16.5,0.25,28,156.21
48,D5,17.0,0.25,55,156.21
49,B-3,17.0,0.25,28,156.21
50,E-3,17.5,0.25,28,156.21
51,C5,17.5,0.25,50,156.21
52,E-5,17.5,0.25,50,156.21
53,F3,18.0,1.0,32,156.21
54,B-4,18.0,1.0,55,156.21
55,D5,18.0,1.0,55,156.21
56,A4,19.0,0.375,50,156.21
57,C5,19.0,0.375,50,156.21
58,B-4,19.5,0.25,47,156.21
59,C5,19.75,0.25,47,156.21
60,D5,20.0,0.5,50,156.21
61,B-3,20.0,0.5,30,156.21
62,F4,20.5,0.5,23,156.21
63,E-5,21.0,0.5,51,156.21
64,C4,21.0,0.5,23,156.21
65,F4,21.5,0.5,23,156.21
66,E5,22.0,1.0,52,156.21
67,D4,22.0,0.5,23,156.21
68,F4,22.5,0.5,23,156.21
69,F5,23.0,0.5,52,156.21
70,B-3,23.0,0.5,23,156.21
71,D5,23.5,0.25,51,156.21
72,F4,23.5,0.5,25,156.21
73,D5,23.875,0.125,52,156.21
74,C5,24.0,0.25,54,156.21
75,A3,24.0,0.25,30,156.21
76,B4,24.5,0.25,50,156.21
77,F4,24.5,0.25,23,156.21
78,C5,25.0,0.25,52,156.21
79,B-3,25.0,0.25,25,156.21
80,D5,25.5,0.25,50,156.21
81,F4,25.5,0.25,25,156.21
82,F5,26.0,1.0,54,156.21
83,C4,26.0,0.5,25,156.21
84,F4,26.5,0.5,25,156.21
85,E-5,27.0,0.5,46,156.21
86,E-4,27.0,0.5,25,156.21
87,A4,27.5,0.25,46,156.21
88,F4,27.5,0.5,24,156.21
89,B-4,28.0,0.25,56,156.21
90,D4,28.0,1.0,31,156.21
91,B-5,28.5,0.5,50,156.21
92,B-5,29.0,0.25,53,156.21
93,B-5,29.5,0.25,48,156.21
94,C5,30.0,0.25,56,156.21
95,G4,30.0,1.0,28,156.21
96,E-4,30.0,1.0,28,156.21
97,G5,30.5,0.5,50,156.21
98,G5,31.0,0.25,53,156.21
99,G5,31.5,0.25,50,156.21
100,B-4,32.0,0.25,54,156.21
101,F3,32.0,2.0,25,156.21
102,D4,32.0,1.0,30,156.21
103,B-4,32.5,0.25,50,156.21
104,C5,33.0,0.125,50,156.21
105,E-4,33.0,1.0,28,156.21
106,D5,33.125,0.125,45,156.21
107,C5,33.25,0.125,45,156.21
108,B-4,33.375,0.125,45,156.21
109,C5,33.5,0.25,50,156.21
110,D5,33.75,0.25,45,156.21
111,B-4,34.0,1.0,55,156.21
112,B-3,34.0,1.0,30,156.21
113,D4,34.0,1.0,30,156.21
114,B-4,35.5,0.25,47,156.21
115,D5,35.75,0.25,47,156.21
116,F5,36.0,0.5,54,156.21
117,F3,36.0,0.5,30,156.21
118,A3,36.5,0.5,23,156.21
119,E5,37.0,0.5,51,156.21
120,G3,37.0,0.5,23,156.21
121,B-3,37.5,0.5,23,156.21
122,C6,38.0,0.25,59,156.21
123,A3,38.0,0.5,23,156.21
124,E-5,38.5,0.5,52,156.21
125,C4,38.5,0.5,23,156.21
126,B-3,39.0,0.5,23,156.21
127,D5,39.5,0.5,51,156.21
128,F4,39.5,0.5,25,156.21
129,D5,40.0,0.5,51,156.21
130,E-4,40.0,1.5,30,156.21
131,B4,40.5,0.5,50,156.21
132,C5,41.0,0.5,52,156.21
133,G5,41.5,0.5,50,156.21
134,E4,41.5,0.5,30,156.21
135,B-4,42.0,0.75,54,156.21
136,F4,42.0,1.0,25,156.21
137,C5,42.75,0.125,43,156.21
138,B-4,42.875,0.125,43,156.21
139,A4,43.0,0.375,48,156.21
140,A4,43.5,0.25,47,156.21
141,C5,43.75,0.25,47,156.21
142,F5,44.0,0.5,54,156.21
143,F3,44.0,0.5,30,156.21
144,A3,44.5,0.5,23,156.21
145,E5,45.0,0.5,51,156.21
146,G3,45.0,0.5,23,156.21
147,B-3,45.5,0.5,23,156.21
148,C6,46.0,0.25,59,156.21
149,A3,46.0,0.5,23,156.21
150,E-5,46.5,0.5,52,156.21
151,C4,46.5,0.5,23,156.21
152,B-3,47.0,0.5,23,156.21
153,D5,47.5,0.5,51,156.21
154,F4,47.5,0.5,25,156.21
155,G4,48.0,2.0,34,156.21
156,B-4,48.0,2.0,34,156.21
157,B-5,48.5,0.5,50,156.21
158,G5,49.0,0.5,52,156.21
159,E5,49.5,0.5,50,156.21
160,F5,50.0,0.5,60,156.21
161,A4,50.0,1.0,28,156.21
162,F4,50.0,1.0,28,156.21
163,A5,50.5,0.5,53,156.21
164,C6,51.0,0.25,58,156.21
165,C6,51.5,0.25,51,156.21
166,G4,52.0,2.0,34,156.21
167,B-4,52.0,2.0,34,156.21
168,C6,52.5,11/40,54,156.21
169,B-5,52.75,11/40,48,156.21
170,A5,53.0,11/40,48,156.21
171,G5,53.25,11/40,48,156.21
172,F5,53.5,11/40,48,156.21
173,E5,53.75,11/40,48,156.21
174,F5,54.0,0.25,55,156.21
175,F4,54.0,1.0,28,156.21
176,A4,54.0,1.0,28,156.21
177,C5,54.25,0.25,45,156.21
178,F5,54.5,0.25,53,156.21
179,A5,54.75,0.25,48,156.21
180,C6,55.0,0.25,59,156.21
181,C6,55.5,0.25,52,156.21
182,G4,56.0,2.0,34,156.21
183,B-4,56.0,2.0,34,156.21
184,A5,56.25,0.25,48,156.21
185,C6,56.5,11/40,54,156.21
186,B-5,56.75,11/40,48,156.21
187,A5,57.0,11/40,48,156.21
188,G5,57.25,11/40,48,156.21
189,F5,57.5,11/40,48,156.21
190,E5,57.75,11/40,48,156.21
191,F5,58.0,0.25,51,156.21
192,F4,58.0,1.0,28,156.21
193,A4,58.0,1.0,28,156.21
194,F#5,58.25,0.25,42,156.21
195,A5,58.5,0.25,49,156.21
196,G5,58.75,0.25,48,156.21
197,F5,59.0,0.25,46,156.21
198,E-5,59.25,0.25,45,156.21
199,D5,59.5,0.25,43,156.21
200,C#5,59.75,0.25,42,156.21
201,D5,60.0,0.5,46,156.21
202,B-3,60.0,0.5,30,156.21
203,F4,60.5,0.5,23,156.21
204,E-5,61.0,0.5,49,156.21
205,C4,61.0,0.5,23,156.21
206,F4,61.5,0.5,23,156.21
207,E5,62.0,1.0,50,156.21
208,D4,62.0,0.5,23,156.21
209,F4,62.5,0.5,23,156.21
210,F5,63.0,0.5,50,156.21
211,B-3,63.0,0.5,23,156.21
212,D5,63.5,0.25,47,156.21
213,F4,63.5,0.5,25,156.21
214,D5,63.875,0.125,47,156.21
215,C5,64.0,0.25,52,156.21
216,A3,64.0,0.25,30,156.21
217,B4,64.5,0.25,50,156.21
218,F4,64.5,0.25,23,156.21
219,C5,65.0,0.25,52,156.21
220,B-3,65.0,0.25,25,156.21
221,D5,65.5,0.25,50,156.21
222,F4,65.5,0.25,25,156.21
223,F5,66.0,1.0,54,156.21
224,C4,66.0,0.5,25,156.21
225,F4,66.5,0.5,25,156.21
226,E-5,67.0,0.5,46,156.21
227,E-4,67.0,0.5,25,156.21
228,A4,67.5,0.25,46,156.21
229,F4,67.5,0.5,24,156.21
230,B-4,68.0,0.25,52,156.21
231,D4,68.0,0.5,31,156.21
232,B-4,68.5,1.0,48,156.21
233,F4,68.5,0.5,24,156.21
234,D4,69.0,0.5,31,156.21
235,B4,69.5,0.5,47,156.21
236,F4,69.5,0.5,24,156.21
237,C5,70.0,0.25,51,156.21
238,A3,70.0,0.5,32,156.21
239,C5,70.5,1.0,50,156.21
240,F4,70.5,0.5,26,156.21
241,A3,71.0,0.5,32,156.21
242,C#5,71.5,0.5,50,156.21
243,F4,71.5,0.5,27,156.21
244,D5,72.0,0.25,54,156.21
245,B-3,72.0,0.25,32,156.21
246,C5,72.5,0.25,50,156.21
247,A3,72.5,0.25,28,156.21
248,D5,73.0,0.25,55,156.21
249,B-3,73.0,0.25,28,156.21
250,E-3,73.5,0.25,28,156.21
251,C5,73.5,0.25,50,156.21
252,E-5,73.5,0.25,50,156.21
253,F3,74.0,1.0,32,156.21
254,B-4,74.0,1.0,55,156.21
255,D5,74.0,1.0,55,156.21
256,A4,75.0,0.375,50,156.21
257,C5,75.0,0.375,50,156.21
258,B-4,75.5,0.25,47,156.21
259,C5,75.75,0.25,47,156.21
260,D5,76.0,0.5,50,156.21
261,B-3,76.0,0.5,30,156.21
262,F4,76.5,0.5,23,156.21
263,E-5,77.0,0.5,51,156.21
264,C4,77.0,0.5,23,156.21
265,F4,77.5,0.5,23,156.21
266,E5,78.0,1.0,52,156.21
267,D4,78.0,0.5,23,156.21
268,F4,78.5,0.5,23,156.21
269,F5,79.0,0.5,52,156.21
270,B-3,79.0,0.5,23,156.21
271,D5,79.5,0.25,51,156.21
272,F4,79.5,0.5,25,156.21
273,D5,79.875,0.125,52,156.21
274,C5,80.0,0.25,54,156.21
275,A3,80.0,0.5,30,156.21
276,B4,80.5,0.25,50,156.21
277,F4,80.5,0.5,23,156.21
278,C5,81.0,0.25,52,156.21
279,B-3,81.0,0.5,25,156.21
280,D5,81.5,0.25,50,156.21
281,F4,81.5,0.5,25,156.21
282,F5,82.0,1.0,54,156.21
283,C4,82.0,0.5,25,156.21
284,F4,82.5,0.5,25,156.21
285,E-5,83.0,0.5,46,156.21
286,E-4,83.0,0.5,25,156.21
287,A4,83.5,0.25,46,156.21
288,F4,83.5,0.5,24,156.21
289,B-4,84.0,0.25,56,156.21
290,D4,84.0,1.0,31,156.21
291,B-5,84.5,0.5,50,156.21
292,B-5,85.0,0.25,53,156.21
293,B-5,85.5,0.25,48,156.21
294,C5,86.0,0.25,56,156.21
295,G4,86.0,1.0,30,156.21
296,E-4,86.0,1.0,30,156.21
297,G5,86.5,0.5,50,156.21
298,G5,87.0,0.25,53,156.21
299,G5,87.5,0.25,50,156.21
300,B-4,88.0,0.25,54,156.21
301,F3,88.0,2.0,21,156.21
302,D4,88.0,1.0,30,156.21
303,B-4,88.5,0.25,50,156.21
304,C5,89.0,0.125,50,156.21
305,E-4,89.0,1.0,28,156.21
306,D5,89.125,0.125,45,156.21
307,C5,89.25,0.125,45,156.21
308,B-4,89.375,0.125,45,156.21
309,C5,89.5,0.25,50,156.21
310,D5,89.75,0.25,45,156.21
311,B-4,90.0,1.0,55,156.21
312,B-3,90.0,1.0,30,156.21
313,D4,90.0,1.0,30,156.21
314,F4,91.5,0.25,60,156.21
315,B-2,92.0,0.25,59,156.21
316,F4,92.0,0.25,60,156.21
317,D5,92.0,0.25,60,156.21
318,B-3,92.5,0.375,54,156.21
319,F4,92.5,1.0,59,156.21
320,D5,92.5,1.0,59,156.21
321,B-3,93.0,0.375,54,156.21
322,B-3,93.5,0.375,54,156.21
323,D4,93.5,0.375,54,156.21
324,B-4,93.5,0.375,54,156.21
325,B-2,94.0,0.25,59,156.21
326,G4,94.0,0.25,60,156.21
327,E-5,94.0,0.25,60,156.21
328,B-3,94.5,0.375,54,156.21
329,G4,94.5,1.0,59,156.21
330,E-5,94.5,1.0,59,156.21
331,B-3,95.0,0.375,54,156.21
332,B-3,95.5,0.375,54,156.21
333,E-4,95.5,0.375,54,156.21
334,C5,95.5,0.375,54,156.21
335,G4,96.0,0.5,63,156.21
336,B-3,96.0,2.0,57,156.21
337,E-4,96.0,1.0,57,156.21
338,B-4,96.5,0.5,59,156.21
339,A4,97.0,0.5,65,156.21
340,C4,97.0,1.0,52,156.21
341,C5,97.5,0.5,59,156.21
342,B-4,98.0,0.25,63,156.21
343,D4,98.0,1.0,52,156.21
344,B-3,98.0,1.0,52,156.21
345,A4,98.25,0.25,59,156.21
346,B-4,98.5,0.25,57,156.21
347,C5,98.75,0.25,57,156.21
348,B-4,99.0,0.25,64,156.21
349,B-4,99.5,0.25,59,156.21
350,B-2,100.0,0.25,59,156.21
351,D5,100.0,0.25,60,156.21
352,F5,100.0,0.25,60,156.21
353,B-3,100.5,0.375,54,156.21
354,D5,100.5,1.0,59,156.21
355,F5,100.5,1.0,59,156.21
356,B-3,101.0,0.375,54,156.21
357,B-3,101.5,0.375,54,156.21
358,B-4,101.5,0.375,54,156.21
359,D5,101.5,0.375,54,156.21
360,B-2,102.0,0.25,59,156.21
361,E-5,102.0,0.25,60,156.21
362,G5,102.0,0.25,60,156.21
363,B-3,102.5,0.375,54,156.21
364,E-5,102.5,1.0,59,156.21
365,G5,102.5,1.0,59,156.21
366,B-3,103.0,0.375,54,156.21
367,B-3,103.5,0.375,54,156.21
368,C5,103.5,0.375,54,156.21
369,E-5,103.5,0.375,54,156.21
370,B-4,104.0,0.5,63,156.21
371,B-3,104.0,2.0,57,156.21
372,G4,104.0,1.0,57,156.21
373,D5,104.5,0.5,59,156.21
374,C5,105.0,0.5,63,156.21
375,A4,105.0,1.0,52,156.21
376,E-5,105.5,0.5,59,156.21
377,D5,106.0,0.25,63,156.21
378,B-4,106.0,1.0,52,156.21
379,B-3,106.0,1.0,52,156.21
380,C5,106.25,0.25,59,156.21
381,D5,106.5,0.25,59,156.21
382,E-5,106.75,0.25,59,156.21
383,D5,107.0,0.25,66,156.21
384,D5,107.5,0.25,46,156.21
385,D6,108.0,0.25,53,156.21
386,F#4,108.0,0.5,36,156.21
387,D6,108.5,0.5,46,156.21
388,A4,108.5,0.5,30,156.21
389,B-5,109.0,0.5,50,156.21
390,G4,109.0,0.5,30,156.21
391,G5,109.5,0.5,46,156.21
392,B-4,109.5,0.5,30,156.21
393,F#5,110.0,1.0,51,156.21
394,A4,110.0,0.5,36,156.21
395,C5,110.5,0.5,32,156.21
396,G5,111.0,0.5,46,156.21
397,B-4,111.0,0.5,32,156.21
398,D6,111.5,0.25,50,156.21
399,D5,111.5,0.5,32,156.21
400,B5,112.0,11/40,51,156.21
401,E4,112.0,0.5,36,156.21
402,C6,112.25,11/40,46,156.21
403,D6,112.5,11/40,46,156.21
404,G4,112.5,0.5,32,156.21
405,C6,112.75,11/40,48,156.21
406,B-5,113.0,11/40,47,156.21
407,F4,113.0,0.5,32,156.21
408,A5,113.25,11/40,45,156.21
409,G5,113.5,11/40,44,156.21
410,A4,113.5,0.5,32,156.21
411,F5,113.75,11/40,42,156.21
412,E5,114.0,1.0,49,156.21
413,G4,114.0,0.5,36,156.21
414,B-4,114.5,0.5,31,156.21
415,F5,115.0,0.5,46,156.21
416,A4,115.0,0.5,31,156.21
417,C6,115.5,0.25,49,156.21
418,C5,115.5,0.5,31,156.21
419,F6,116.0,11/40,55,156.21
420,A3,116.0,1.0,36,156.21
421,F4,116.0,1.0,36,156.21
422,E6,116.25,11/40,54,156.21
423,D6,116.5,11/40,53,156.21
424,C6,116.75,11/40,52,156.21
425,B-5,117.0,151/500,51,156.21
426,A5,117.25,151/500,50,156.21
427,G5,117.5,151/500,49,156.21
428,F5,117.75,0.25,48,156.21
429,D6,118.0,11/40,53,156.21
430,B-3,118.0,1.0,36,156.21
431,G4,118.0,1.0,36,156.21
432,F4,118.0,1.0,36,156.21
433,C6,118.25,11/40,52,156.21
434,B-5,118.5,11/40,50,156.21
435,A5,118.75,11/40,49,156.21
436,G5,119.0,151/500,48,156.21
437,F5,119.25,151/500,47,156.21
438,E5,119.5,151/500,45,156.21
439,D5,119.75,0.25,44,156.21
440,C5,120.0,0.25,50,156.21
441,C4,120.0,2.0,36,156.21
442,A4,120.0,1.0,36,156.21
443,F5,120.25,0.25,46,156.21
444,A5,120.5,0.25,46,156.21
445,C6,120.75,0.188,46,156.21
446,C6,121.0,11/40,50,156.21
447,B-4,121.0,1.0,31,156.21
448,B-5,121.25,11/40,44,156.21
449,A5,121.5,11/40,44,156.21
450,G5,121.75,0.188,44,156.21
451,G5,122.0,1.0,47,156.21
452,F4,122.0,186/125,36,156.21
453,B-4,122.0,1.0,36,156.21
454,F5,123.0,0.375,40,156.21
455,A4,123.0,0.375,33,156.21
456,F4,123.5,0.25,60,156.21
457,B-2,124.0,0.25,59,156.21
458,F4,124.0,0.25,60,156.21
459,D5,124.0,0.25,60,156.21
460,B-3,124.5,0.375,54,156.21
461,F4,124.5,1.0,59,156.21
462,D5,124.5,1.0,59,156.21
463,B-3,125.0,0.375,54,156.21
464,B-3,125.5,0.375,54,156.21
465,D4,125.5,0.375,54,156.21
466,B-4,125.5,0.375,54,156.21
467,B-2,126.0,0.25,59,156.21
468,G4,126.0,0.25,60,156.21
469,E-5,126.0,0.25,60,156.21
470,B-3,126.5,0.375,54,156.21
471,G4,126.5,1.0,59,156.21
472,E-5,126.5,1.0,59,156.21
473,B-3,127.0,0.375,54,156.21
474,B-3,127.5,0.375,54,156.21
475,E-4,127.5,0.375,54,156.21
476,C5,127.5,0.375,54,156.21
477,G4,128.0,0.5,63,156.21
478,B-3,128.0,2.0,57,156.21
479,E-4,128.0,1.0,57,156.21
480,B-4,128.5,0.5,59,156.21
481,A4,129.0,0.5,65,156.21
482,C4,129.0,1.0,52,156.21
483,C5,129.5,0.5,59,156.21
484,B-4,130.0,0.25,63,156.21
485,D4,130.0,1.0,52,156.21
486,B-3,130.0,1.0,52,156.21
487,A4,130.25,0.25,59,156.21
488,B-4,130.5,0.25,57,156.21
489,C5,130.75,0.25,57,156.21
490,B-4,131.0,0.25,64,156.21
491,B-4,131.5,0.25,59,156.21
492,B-2,132.0,0.25,59,156.21
493,D5,132.0,0.25,60,156.21
494,F5,132.0,0.25,60,156.21
495,B-3,132.5,0.375,54,156.21
496,D5,132.5,1.0,59,156.21
497,F5,132.5,1.0,59,156.21
498,B-3,133.0,0.375,54,156.21
499,B-3,133.5,0.375,54,156.21
500,B-4,133.5,0.375,54,156.21
501,D5,133.5,0.375,54,156.21
502,B-2,134.0,0.25,59,156.21
503,E-5,134.0,0.25,60,156.21
504,G5,134.0,0.25,60,156.21
505,B-3,134.5,0.375,54,156.21
506,E-5,134.5,1.0,59,156.21
507,G5,134.5,1.0,59,156.21
508,B-3,135.0,0.375,54,156.21
509,B-3,135.5,0.375,54,156.21
510,C5,135.5,0.375,54,156.21
511,E-5,135.5,0.375,54,156.21
512,B-4,136.0,0.5,63,156.21
513,B-3,136.0,2.0,57,156.21
514,G4,136.0,1.0,57,156.21
515,D5,136.5,0.5,59,156.21
516,C5,137.0,0.5,63,156.21
517,A4,137.0,1.0,52,156.21
518,E-5,137.5,0.5,59,156.21
519,D5,138.0,0.25,63,156.21
520,B-4,138.0,1.0,52,156.21
521,B-3,138.0,1.0,52,156.21
522,C5,138.25,0.25,59,156.21
523,D5,138.5,0.25,59,156.21
524,E-5,138.75,0.25,59,156.21
525,D5,139.0,0.25,66,156.21
526,D5,139.5,0.25,46,156.21
527,D6,140.0,0.25,53,156.21
528,F#4,140.0,0.5,36,156.21
529,D6,140.5,0.5,46,156.21
530,A4,140.5,0.5,30,156.21
531,B-5,141.0,0.5,50,156.21
532,G4,141.0,0.5,30,156.21
533,G5,141.5,0.5,46,156.21
534,B-4,141.5,0.5,30,156.21
535,F#5,142.0,1.0,51,156.21
536,A4,142.0,0.5,36,156.21
537,C5,142.5,0.5,32,156.21
538,G5,143.0,0.5,46,156.21
539,B-4,143.0,0.5,32,156.21
540,D6,143.5,0.25,50,156.21
541,D5,143.5,0.5,32,156.21
542,B5,144.0,11/40,51,156.21
543,E4,144.0,0.5,36,156.21
544,C6,144.25,11/40,46,156.21
545,D6,144.5,11/40,46,156.21
546,G4,144.5,0.5,32,156.21
547,C6,144.75,11/40,48,156.21
548,B-5,145.0,11/40,47,156.21
549,F4,145.0,0.5,32,156.21
550,A5,145.25,11/40,45,156.21
551,G5,145.5,11/40,44,156.21
552,A4,145.5,0.5,32,156.21
553,F5,145.75,11/40,42,156.21
554,E5,146.0,1.0,49,156.21
555,G4,146.0,0.5,36,156.21
556,B-4,146.5,0.5,31,156.21
557,F5,147.0,0.5,46,156.21
558,A4,147.0,0.5,31,156.21
559,C6,147.5,0.25,49,156.21
560,C5,147.5,0.5,31,156.21
561,F6,148.0,11/40,55,156.21
562,A3,148.0,1.0,36,156.21
563,F4,148.0,1.0,36,156.21
564,E6,148.25,11/40,54,156.21
565,D6,148.5,11/40,53,156.21
566,C6,148.75,11/40,52,156.21
567,B-5,149.0,151/500,51,156.21
568,A5,149.25,151/500,50,156.21
569,G5,149.5,151/500,49,156.21
570,F5,149.75,0.25,48,156.21
571,D6,150.0,11/40,53,156.21
572,B-3,150.0,1.0,36,156.21
573,G4,150.0,1.0,36,156.21
574,F4,150.0,1.0,36,156.21
575,C6,150.25,11/40,52,156.21
576,B-5,150.5,11/40,50,156.21
577,A5,150.75,11/40,49,156.21
578,G5,151.0,151/500,48,156.21
579,F5,151.25,151/500,47,156.21
580,E5,151.5,151/500,45,156.21
581,D5,151.75,0.25,44,156.21
582,C5,152.0,0.25,50,156.21
583,C4,152.0,2.0,36,156.21
584,A4,152.0,1.0,36,156.21
585,F5,152.25,0.25,46,156.21
586,A5,152.5,0.25,46,156.21
587,C6,152.75,0.188,46,156.21
588,C6,153.0,11/40,50,156.21
589,B-4,153.0,1.0,31,156.21
590,B-5,153.25,11/40,44,156.21
591,A5,153.5,11/40,44,156.21
592,G5,153.75,0.188,44,156.21
593,G5,154.0,1.0,47,156.21
594,F4,154.0,297/200,36,156.21
595,B-4,154.0,1.0,36,156.21
596,F5,155.0,0.375,40,156.21
597,A4,155.0,0.375,33,156.21
598,F4,155.5,0.25,60,156.21
599,D2,156.0,0.25,59,156.21
600,D5,156.0,0.25,60,156.21
601,F5,156.0,0.25,60,156.21
602,D3,156.5,0.375,54,156.21
603,D5,156.5,1.0,59,156.21
604,F5,156.5,1.0,59,156.21
605,D3,157.0,0.375,54,156.21
606,D3,157.5,0.375,54,156.21
607,F5,157.5,0.375,54,156.21
608,G#5,157.5,0.375,54,156.21
609,G2,158.0,0.25,59,156.21
610,B4,158.0,0.25,60,156.21
611,D5,158.0,0.25,60,156.21
612,G3,158.5,0.375,54,156.21
613,B4,158.5,1.0,59,156.21
614,D5,158.5,1.0,59,156.21
615,G3,159.0,0.375,54,156.21
616,G3,159.5,0.375,54,156.21
617,D5,159.5,0.375,54,156.21
618,F5,159.5,0.375,54,156.21
619,C2,160.0,0.25,59,156.21
620,C5,160.0,0.25,60,156.21
621,E-5,160.0,0.25,60,156.21
622,C3,160.5,0.375,54,156.21
623,C5,160.5,1.0,59,156.21
624,E-5,160.5,1.0,59,156.21
625,C3,161.0,0.375,54,156.21
626,C3,161.5,0.375,54,156.21
627,E-5,161.5,0.375,54,156.21
628,G5,161.5,0.375,54,156.21
629,F2,162.0,0.25,59,156.21
630,A4,162.0,0.25,60,156.21
631,C5,162.0,0.25,60,156.21
632,F3,162.5,0.375,54,156.21
633,A4,162.5,1.0,59,156.21
634,C5,162.5,1.0,59,156.21
635,F3,163.0,0.375,54,156.21
636,F3,163.5,0.375,54,156.21
637,C5,163.5,0.375,54,156.21
638,E-5,163.5,0.375,54,156.21
639,E-5,164.0,11/40,54,156.21
640,B-3,164.0,0.5,38,156.21
641,C#5,164.25,11/40,49,156.21
642,C5,164.5,11/40,49,156.21
643,C#4,164.5,0.5,34,156.21
644,B-4,164.75,11/40,51,156.21
645,A4,165.0,11/40,50,156.21
646,B-3,165.0,0.5,34,156.21
647,B-4,165.25,11/40,48,156.21
648,C5,165.5,11/40,46,156.21
649,G#3,165.5,0.5,34,156.21
650,B-4,165.75,0.25,45,156.21
651,E-5,166.0,11/40,54,156.21
652,F#3,166.0,0.5,38,156.21
653,C#5,166.25,11/40,49,156.21
654,C5,166.5,11/40,49,156.21
655,B-3,166.5,0.5,34,156.21
656,B-4,166.75,11/40,51,156.21
657,A4,167.0,11/40,50,156.21
658,F#3,167.0,0.5,34,156.21
659,B-4,167.25,11/40,48,156.21
660,C5,167.5,11/40,46,156.21
661,F3,167.5,0.5,34,156.21
662,B-4,167.75,0.25,45,156.21
663,B-5,168.0,0.25,66,156.21
664,E3,168.0,0.5,34,156.21
665,B-5,168.5,1.0,57,156.21
666,C4,169.0,1.0,28,156.21
667,G4,169.0,1.0,28,156.21
668,B-4,169.5,0.5,42,156.21
669,E5,169.5,0.5,42,156.21
670,F4,170.0,1.375,37,156.21
671,B-4,170.0,1.0,47,156.21
672,G5,170.0,1.0,47,156.21
673,A4,171.0,0.375,42,156.21
674,F5,171.0,0.375,42,156.21
675,F4,171.5,0.25,60,156.21
676,B-2,172.0,0.25,59,156.21
677,F4,172.0,0.25,60,156.21
678,D5,172.0,0.25,60,156.21
679,B-3,172.5,0.375,54,156.21
680,F4,172.5,1.0,59,156.21
681,D5,172.5,1.0,59,156.21
682,B-3,173.0,0.375,54,156.21
683,B-3,173.5,0.375,54,156.21
684,D4,173.5,0.375,54,156.21
685,B-4,173.5,0.375,54,156.21
686,B-2,174.0,0.25,59,156.21
687,G4,174.0,0.25,60,156.21
688,E-5,174.0,0.25,60,156.21
689,B-3,174.5,0.375,54,156.21
690,G4,174.5,1.0,59,156.21
691,E-5,174.5,1.0,59,156.21
692,B-3,175.0,0.375,54,156.21
693,B-3,175.5,0.375,54,156.21
694,E-4,175.5,0.375,54,156.21
695,C5,175.5,0.375,54,156.21
696,G4,176.0,0.5,65,156.21
697,B-3,176.0,2.0,57,156.21
698,E-4,176.0,1.0,57,156.21
699,B-4,176.5,0.5,59,156.21
700,A4,177.0,0.5,65,156.21
701,C4,177.0,1.0,52,156.21
702,C5,177.5,0.5,59,156.21
703,B-4,178.0,0.25,63,156.21
704,D4,178.0,1.0,52,156.21
705,B-3,178.0,1.0,52,156.21
706,A4,178.25,0.25,56,156.21
707,B-4,178.5,0.25,56,156.21
708,C5,178.75,0.25,56,156.21
709,B-4,179.0,0.25,62,156.21
710,B-4,179.5,0.25,59,156.21
711,B-2,180.0,0.25,59,156.21
712,D5,180.0,0.25,60,156.21
713,F5,180.0,0.25,60,156.21
714,B-3,180.5,0.375,54,156.21
715,D5,180.5,1.0,59,156.21
716,F5,180.5,1.0,59,156.21
717,B-3,181.0,0.375,54,156.21
718,B-3,181.5,0.375,54,156.21
719,B-4,181.5,0.375,54,156.21
720,D5,181.5,0.375,54,156.21
721,B-2,182.0,0.25,59,156.21
722,E-5,182.0,0.25,60,156.21
723,G5,182.0,0.25,60,156.21
724,B-3,182.5,0.375,54,156.21
725,E-5,182.5,1.0,59,156.21
726,G5,182.5,1.0,59,156.21
727,B-3,183.0,0.375,54,156.21
728,B-3,183.5,0.375,54,156.21
729,C5,183.5,0.375,54,156.21
730,E-5,183.5,0.375,54,156.21
731,B-4,184.0,0.5,65,156.21
732,B-3,184.0,2.0,57,156.21
733,G4,184.0,1.0,57,156.21
734,D5,184.5,0.5,59,156.21
735,C5,185.0,0.5,65,156.21
736,A4,185.0,1.0,52,156.21
737,E-5,185.5,0.5,59,156.21
738,D5,186.0,0.25,63,156.21
739,B-4,186.0,1.0,52,156.21
740,B-3,186.0,1.0,52,156.21
741,C5,186.25,0.25,59,156.21
742,D5,186.5,0.25,59,156.21
743,E-5,186.75,0.25,59,156.21
744,D5,187.0,0.25,66,156.21
745,B-4,187.5,0.25,46,156.21
746,G5,188.0,0.25,53,156.21
747,B3,188.0,0.5,36,156.21
748,G5,188.5,0.5,46,156.21
749,D4,188.5,0.5,30,156.21
750,E-5,189.0,0.5,50,156.21
751,C4,189.0,0.5,30,156.21
752,C5,189.5,0.5,46,156.21
753,E-4,189.5,0.5,30,156.21
754,B4,190.0,1.0,51,156.21
755,D4,190.0,0.5,36,156.21
756,F4,190.5,0.5,32,156.21
757,C5,191.0,0.5,46,156.21
758,E-4,191.0,0.5,32,156.21
759,G5,191.5,0.25,50,156.21
760,G4,191.5,0.5,32,156.21
761,E5,192.0,11/40,51,156.21
762,A3,192.0,0.5,36,156.21
763,F5,192.25,11/40,46,156.21
764,G5,192.5,11/40,46,156.21
765,C4,192.5,0.5,32,156.21
766,F5,192.75,11/40,48,156.21
767,E-5,193.0,11/40,47,156.21
768,B-3,193.0,0.5,32,156.21
769,D5,193.25,11/40,45,156.21
770,C5,193.5,11/40,44,156.21
771,D4,193.5,0.5,32,156.21
772,B-4,193.75,11/40,42,156.21
773,A4,194.0,1.0,49,156.21
774,C4,194.0,0.5,36,156.21
775,E-4,194.5,0.5,31,156.21
776,B-4,195.0,0.5,46,156.21
777,D4,195.0,0.5,31,156.21
778,F5,195.5,0.25,49,156.21
779,F4,195.5,0.5,31,156.21
780,B-5,196.0,11/40,61,156.21
781,D3,196.0,1.0,36,156.21
782,F3,196.0,1.0,36,156.21
783,B-3,196.0,1.0,36,156.21
784,A5,196.25,11/40,60,156.21
785,G5,196.5,11/40,58,156.21
786,F5,196.75,11/40,57,156.21
787,E-5,197.0,11/40,56,156.21
788,D5,197.25,11/40,54,156.21
789,C5,197.5,11/40,53,156.21
790,B-4,197.75,0.25,50,156.21
791,G5,198.0,11/40,58,156.21
792,E-3,198.0,1.0,36,156.21
793,C4,198.0,1.0,36,156.21
794,B-3,198.0,1.0,36,156.21
795,F5,198.25,11/40,57,156.21
796,E-5,198.5,11/40,55,156.21
797,D5,198.75,11/40,53,156.21
798,C5,199.0,11/40,52,156.21
799,B-4,199.25,11/40,50,156.21
800,A4,199.5,11/40,48,156.21
801,G4,199.75,0.25,47,156.21
802,F4,200.0,0.25,50,156.21
803,F3,200.0,2.0,36,156.21
804,D4,200.0,1.0,36,156.21
805,B-4,200.25,0.25,46,156.21
806,D5,200.5,0.25,46,156.21
807,F5,200.75,0.188,46,156.21
808,F5,201.0,0.25,50,156.21
809,E-4,201.0,1.0,31,156.21
810,E-5,201.25,0.25,44,156.21
811,D5,201.5,0.25,44,156.21
812,C5,201.75,0.188,44,156.21
813,C5,202.0,1.0,47,156.21
814,B-3,202.0,1.5,36,156.21
815,E-4,202.0,1.0,36,156.21
816,B-4,203.0,0.375,40,156.21
817,D4,203.0,0.375,33,156.21
818,F4,203.5,0.25,60,156.21
819,D2,204.0,0.25,59,156.21
820,D5,204.0,0.25,60,156.21
821,F5,204.0,0.25,60,156.21
822,D3,204.5,0.375,54,156.21
823,D5,204.5,1.0,59,156.21
824,F5,204.5,1.0,59,156.21
825,D3,205.0,0.375,54,156.21
826,D3,205.5,0.375,54,156.21
827,F5,205.5,0.375,54,156.21
828,G#5,205.5,0.375,54,156.21
829,G2,206.0,0.25,59,156.21
830,B4,206.0,0.25,60,156.21
831,D5,206.0,0.25,60,156.21
832,G3,206.5,0.375,54,156.21
833,B4,206.5,1.0,59,156.21
834,D5,206.5,1.0,59,156.21
835,G3,207.0,0.375,54,156.21
836,G3,207.5,0.375,54,156.21
837,D5,207.5,0.375,54,156.21
838,F5,207.5,0.375,54,156.21
839,C2,208.0,0.25,59,156.21
840,C5,208.0,0.25,60,156.21
841,E-5,208.0,0.25,60,156.21
842,C3,208.5,0.375,54,156.21
843,C5,208.5,1.0,59,156.21
844,E-5,208.5,1.0,59,156.21
845,C3,209.0,0.375,54,156.21
846,C3,209.5,0.375,54,156.21
847,E-5,209.5,0.375,54,156.21
848,G5,209.5,0.375,54,156.21
849,F2,210.0,0.25,59,156.21
850,A4,210.0,0.25,60,156.21
851,C5,210.0,0.25,60,156.21
852,F3,210.5,0.375,54,156.21
853,A4,210.5,1.0,59,156.21
854,C5,210.5,1.0,59,156.21
855,F3,211.0,0.375,54,156.21
856,F3,211.5,0.375,54,156.21
857,C5,211.5,0.375,54,156.21
858,E-5,211.5,0.375,54,156.21
859,E-5,212.0,11/40,54,156.21
860,B-3,212.0,0.5,38,156.21
861,C#5,212.25,11/40,49,156.21
862,C5,212.5,11/40,49,156.21
863,C#4,212.5,0.5,34,156.21
864,B-4,212.75,11/40,51,156.21
865,A4,213.0,11/40,50,156.21
866,B-3,213.0,0.5,34,156.21
867,B-4,213.25,11/40,48,156.21
868,C5,213.5,11/40,46,156.21
869,G#3,213.5,0.5,34,156.21
870,B-4,213.75,0.25,45,156.21
871,E-5,214.0,11/40,54,156.21
872,F#3,214.0,0.5,38,156.21
873,C#5,214.25,11/40,49,156.21
874,C5,214.5,11/40,49,156.21
875,B-3,214.5,0.5,34,156.21
876,B-4,214.75,11/40,51,156.21
877,A4,215.0,11/40,50,156.21
878,F#3,215.0,0.5,34,156.21
879,B-4,215.25,11/40,48,156.21
880,C5,215.5,11/40,46,156.21
881,F3,215.5,0.5,34,156.21
882,B-4,215.75,0.25,45,156.21
883,B-5,216.0,0.25,66,156.21
884,E3,216.0,0.5,34,156.21
885,B-5,216.5,1.0,57,156.21
886,C4,217.0,1.0,28,156.21
887,G4,217.0,1.0,28,156.21
888,B-4,217.5,0.5,42,156.21
889,E5,217.5,0.5,42,156.21
890,F4,218.0,1.375,37,156.21
891,B-4,218.0,1.0,47,156.21
892,G5,218.0,1.0,47,156.21
893,A4,219.0,0.375,42,156.21
894,F5,219.0,0.375,42,156.21
895,F4,219.5,0.25,60,156.21
896,B-2,220.0,0.25,59,156.21
897,F4,220.0,0.25,60,156.21
898,D5,220.0,0.25,60,156.21
899,B-3,220.5,0.375,54,156.21
900,F4,220.5,1.0,59,156.21
901,D5,220.5,1.0,59,156.21
902,B-3,221.0,0.375,54,156.21
903,B-3,221.5,0.375,54,156.21
904,D4,221.5,0.375,54,156.21
905,B-4,221.5,0.375,54,156.21
906,B-2,222.0,0.25,59,156.21
907,G4,222.0,0.25,60,156.21
908,E-5,222.0,0.25,60,156.21
909,B-3,222.5,0.375,54,156.21
910,G4,222.5,1.0,59,156.21
911,E-5,222.5,1.0,59,156.21
912,B-3,223.0,0.375,54,156.21
913,B-3,223.5,0.375,54,156.21
914,E-4,223.5,0.375,54,156.21
915,C5,223.5,0.375,54,156.21
916,G4,224.0,0.5,65,156.21
917,B-3,224.0,2.0,57,156.21
918,E-4,224.0,1.0,57,156.21
919,B-4,224.5,0.5,59,156.21
920,A4,225.0,0.5,65,156.21
921,C4,225.0,1.0,52,156.21
922,C5,225.5,0.5,59,156.21
923,B-4,226.0,0.25,63,156.21
924,D4,226.0,1.0,52,156.21
925,B-3,226.0,1.0,52,156.21
926,A4,226.25,0.25,56,156.21
927,B-4,226.5,0.25,56,156.21
928,C5,226.75,0.25,56,156.21
929,B-4,227.0,0.25,62,156.21
930,B-4,227.5,0.25,59,156.21
931,B-2,228.0,0.25,59,156.21
932,D5,228.0,0.25,60,156.21
933,F5,228.0,0.25,60,156.21
934,B-3,228.5,0.375,54,156.21
935,D5,228.5,1.0,59,156.21
936,F5,228.5,1.0,59,156.21
937,B-3,229.0,0.375,54,156.21
938,B-3,229.5,0.375,54,156.21
939,B-4,229.5,0.375,54,156.21
940,D5,229.5,0.375,54,156.21
941,B-2,230.0,0.25,59,156.21
942,E-5,230.0,0.25,60,156.21
943,G5,230.0,0.25,60,156.21
944,B-3,230.5,0.375,54,156.21
945,E-5,230.5,1.0,59,156.21
946,G5,230.5,1.0,59,156.21
947,B-3,231.0,0.375,54,156.21
948,B-3,231.5,0.375,54,156.21
949,C5,231.5,0.375,54,156.21
950,E-5,231.5,0.375,54,156.21
951,B-4,232.0,0.5,65,156.21
952,B-3,232.0,2.0,57,156.21
953,G4,232.0,1.0,57,156.21
954,D5,232.5,0.5,59,156.21
955,C5,233.0,0.5,65,156.21
956,A4,233.0,1.0,52,156.21
957,E-5,233.5,0.5,59,156.21
958,D5,234.0,0.25,63,156.21
959,B-4,234.0,1.0,52,156.21
960,B-3,234.0,1.0,52,156.21
961,C5,234.25,0.25,59,156.21
962,D5,234.5,0.25,59,156.21
963,E-5,234.75,0.25,59,156.21
964,D5,235.0,0.25,66,156.21
965,B-4,235.5,0.25,46,156.21
966,G5,236.0,0.25,53,156.21
967,B3,236.0,0.5,36,156.21
968,G5,236.5,0.5,46,156.21
969,D4,236.5,0.5,30,156.21
970,E-5,237.0,0.5,50,156.21
971,C4,237.0,0.5,30,156.21
972,C5,237.5,0.5,46,156.21
973,E-4,237.5,0.5,30,156.21
974,B4,238.0,1.0,51,156.21
975,D4,238.0,0.5,36,156.21
976,F4,238.5,0.5,32,156.21
977,C5,239.0,0.5,46,156.21
978,E-4,239.0,0.5,32,156.21
979,G5,239.5,0.25,50,156.21
980,G4,239.5,0.5,32,156.21
981,E5,240.0,11/40,51,156.21
982,A3,240.0,0.5,36,156.21
983,F5,240.25,11/40,46,156.21
984,G5,240.5,11/40,46,156.21
985,C4,240.5,0.5,32,156.21
986,F5,240.75,11/40,48,156.21
987,E-5,241.0,11/40,47,156.21
988,B-3,241.0,0.5,32,156.21
989,D5,241.25,11/40,45,156.21
990,C5,241.5,11/40,44,156.21
991,D4,241.5,0.5,32,156.21
992,B-4,241.75,11/40,42,156.21
993,A4,242.0,1.0,49,156.21
994,C4,242.0,0.5,36,156.21
995,E-4,242.5,0.5,31,156.21
996,B-4,243.0,0.5,46,156.21
997,D4,243.0,0.5,31,156.21
998,F5,243.5,0.25,49,156.21
999,F4,243.5,0.5,31,156.21
1000,B-5,244.0,11/40,61,156.21
1001,D3,244.0,1.0,36,156.21
1002,F3,244.0,1.0,36,156.21
1003,B-3,244.0,1.0,36,156.21
1004,A5,244.25,11/40,60,156.21
1005,G5,244.5,11/40,58,156.21
1006,F5,244.75,11/40,57,156.21
1007,E-5,245.0,11/40,56,156.21
1008,D5,245.25,11/40,54,156.21
1009,C5,245.5,11/40,53,156.21
1010,B-4,245.75,0.25,50,156.21
1011,G5,246.0,11/40,58,156.21
1012,E-3,246.0,1.0,36,156.21
1013,C4,246.0,1.0,36,156.21
1014,B-3,246.0,1.0,36,156.21
1015,F5,246.25,11/40,57,156.21
1016,E-5,246.5,11/40,55,156.21
1017,D5,246.75,11/40,53,156.21
1018,C5,247.0,11/40,52,156.21
1019,B-4,247.25,11/40,50,156.21
1020,A4,247.5,11/40,48,156.21
1021,G4,247.75,0.25,47,156.21
1022,F4,248.0,0.25,50,156.21
1023,F3,248.0,2.0,36,156.21
1024,D4,248.0,1.0,36,156.21
1025,B-4,248.25,0.25,46,156.21
1026,D5,248.5,0.25,46,156.21
1027,F5,248.75,0.188,46,156.21
1028,F5,249.0,0.25,50,156.21
1029,E-4,249.0,1.0,31,156.21
1030,E-5,249.25,0.25,44,156.21
1031,D5,249.5,0.25,44,156.21
1032,C5,249.75,0.188,44,156.21
1033,C5,250.0,1.0,47,156.21
1034,B-3,250.0,1.5,36,156.21
1035,E-4,250.0,1.0,36,156.21
1036,B-4,251.0,0.375,40,156.21
1037,D4,251.0,0.375,33,156.21
1038,B-4,251.5,0.25,38,156.21
1039,C5,251.75,0.25,43,156.21
1040,D5,252.0,1.0,47,156.21
1041,B-3,252.5,0.25,30,156.21
1042,D4,252.5,0.25,30,156.21
1043,B-3,253.0,0.25,30,156.21
1044,D4,253.0,0.25,30,156.21
1045,D5,253.5,0.25,46,156.21
1046,E-5,253.75,0.25,48,156.21
1047,F5,254.0,1.0,50,156.21
1048,B-3,254.5,0.25,30,156.21
1049,D4,254.5,0.25,30,156.21
1050,B-3,255.0,0.25,30,156.21
1051,D4,255.0,0.25,30,156.21
1052,F5,255.5,0.25,53,156.21
1053,G5,255.75,0.25,55,156.21
1054,G#5,256.0,0.5,62,156.21
1055,F5,256.5,0.5,54,156.21
1056,D5,257.0,0.5,53,156.21
1057,B-4,257.5,0.5,52,156.21
1058,A4,258.0,0.5,40,156.21
1059,B-4,258.5,0.5,43,156.21
1060,G#4,259.0,0.5,40,156.21
1061,F4,259.5,0.5,37,156.21
1062,E-4,260.0,0.25,39,156.21
1063,E-4,260.5,0.25,36,156.21
1064,E-4,261.0,0.25,35,156.21
1065,G3,261.0,1.0,26,156.21
1066,B-3,261.0,1.0,26,156.21
1067,E-4,261.5,0.25,35,156.21
1068,C5,262.0,0.25,41,156.21
1069,C5,262.5,0.25,37,156.21
1070,C5,263.0,0.25,37,156.21
1071,G#3,263.0,1.0,26,156.21
1072,E-4,263.0,1.0,26,156.21
1073,C5,263.5,0.25,37,156.21
1074,F4,264.0,0.25,40,156.21
1075,F4,264.5,0.25,37,156.21
1076,B-4,265.0,0.25,40,156.21
1077,D3,265.0,1.0,26,156.21
1078,F3,265.0,1.0,26,156.21
1079,B-4,265.5,0.25,37,156.21
1080,G#4,266.0,0.5,36,156.21
1081,E-3,266.0,0.5,26,156.21
1082,B-3,266.0,0.5,26,156.21
1083,G4,266.5,0.375,39,156.21
1084,F4,267.0,0.25,42,156.21
1085,E-4,267.5,0.25,45,156.21
1086,G5,268.0,0.25,48,156.21
1087,G5,268.5,0.25,43,156.21
1088,E-4,268.5,0.25,30,156.21
1089,F#5,269.0,0.25,48,156.21
1090,D4,269.0,0.25,35,156.21
1091,F5,269.5,0.25,43,156.21
1092,B3,269.5,0.25,32,156.21
1093,E5,270.0,0.25,48,156.21
1094,C4,270.0,0.25,35,156.21
1095,E-5,270.5,0.25,46,156.21
1096,A3,270.5,0.25,29,156.21
1097,D5,271.0,0.25,49,156.21
1098,B-3,271.0,1.0,35,156.21
1099,C#5,271.5,0.25,42,156.21
1100,E3,271.5,0.5,31,156.21
1101,C5,272.0,0.25,45,156.21
1102,F3,272.0,2.0,35,156.21
1103,B-3,272.0,1.0,35,156.21
1104,C5,272.5,0.25,40,156.21
1105,F5,273.0,0.25,48,156.21
1106,A3,273.0,1.0,35,156.21
1107,F5,273.5,0.25,43,156.21
1108,B-4,274.0,1.0,50,156.21
1109,B-3,274.0,0.25,39,156.21
1110,F3,274.5,0.25,36,156.21
1111,D3,275.0,0.25,35,156.21
1112,B-2,275.5,0.25,35,156.21
1113,E-4,276.0,0.25,39,156.21
1114,E-4,276.5,0.25,36,156.21
1115,E-4,277.0,0.25,35,156.21
1116,G3,277.0,1.0,26,156.21
1117,B-3,277.0,1.0,26,156.21
1118,E-4,277.5,0.25,35,156.21
1119,C5,278.0,0.25,41,156.21
1120,C5,278.5,0.25,37,156.21
1121,C5,279.0,0.25,37,156.21
1122,G#3,279.0,1.0,26,156.21
1123,E-4,279.0,1.0,26,156.21
1124,C5,279.5,0.25,37,156.21
1125,F4,280.0,0.25,40,156.21
1126,F4,280.5,0.25,37,156.21
1127,B-4,281.0,0.25,40,156.21
1128,D3,281.0,1.0,26,156.21
1129,F3,281.0,1.0,26,156.21
1130,B-4,281.5,0.25,37,156.21
1131,G#4,282.0,0.5,36,156.21
1132,E-3,282.0,0.5,26,156.21
1133,B-3,282.0,0.5,26,156.21
1134,G4,282.5,0.375,39,156.21
1135,F4,283.0,0.25,42,156.21
1136,E-4,283.5,0.25,45,156.21
1137,G5,284.0,0.25,48,156.21
1138,G5,284.5,0.25,43,156.21
1139,E-4,284.5,0.25,30,156.21
1140,F#5,285.0,0.25,48,156.21
1141,D4,285.0,0.25,35,156.21
1142,F5,285.5,0.25,43,156.21
1143,B3,285.5,0.25,32,156.21
1144,E5,286.0,0.25,48,156.21
1145,C4,286.0,0.25,35,156.21
1146,E-5,286.5,0.25,46,156.21
1147,A3,286.5,0.25,29,156.21
1148,D5,287.0,0.25,49,156.21
1149,B-3,287.0,1.0,35,156.21
1150,C#5,287.5,0.25,42,156.21
1151,E3,287.5,0.5,31,156.21
1152,C5,288.0,0.25,45,156.21
1153,F3,288.0,2.0,35,156.21
1154,B-3,288.0,1.0,35,156.21
1155,C5,288.5,0.25,40,156.21
1156,F5,289.0,0.25,48,156.21
1157,A3,289.0,1.0,35,156.21
1158,F5,289.5,0.25,43,156.21
1159,B-4,290.0,1.0,50,156.21
1160,B-3,290.0,0.25,39,156.21
1161,F3,290.5,0.25,36,156.21
1162,D3,291.0,0.25,35,156.21
1163,B-2,291.5,0.25,35,156.21
1164,C#4,292.0,0.25,46,156.21
1165,B-4,292.5,0.5,35,156.21
1166,C#4,292.5,0.25,39,156.21
1167,C#5,293.0,0.5,40,156.21
1168,C#4,293.0,0.25,39,156.21
1169,E5,293.5,0.5,44,156.21
1170,C#4,293.5,0.25,39,156.21
1171,G5,294.0,0.5,48,156.21
1172,E3,294.0,0.25,44,156.21
1173,C#5,294.5,0.5,45,156.21
1174,E3,294.5,0.25,39,156.21
1175,C5,295.0,0.5,42,156.21
1176,E3,295.0,0.25,39,156.21
1177,B-4,295.5,0.5,39,156.21
1178,E3,295.5,0.25,39,156.21
1179,A4,296.0,0.5,35,156.21
1180,C4,296.0,0.25,44,156.21
1181,G#4,296.5,0.5,37,156.21
1182,C4,296.5,0.25,38,156.21
1183,D5,297.0,0.5,40,156.21
1184,C4,297.0,0.25,38,156.21
1185,E-5,297.5,0.5,42,156.21
1186,C4,297.5,0.25,39,156.21
1187,F5,298.0,0.5,44,156.21
1188,D3,298.0,0.25,44,156.21
1189,B4,298.5,0.5,40,156.21
1190,D3,298.5,0.25,37,156.21
1191,B-4,299.0,0.5,39,156.21
1192,D3,299.0,0.25,37,156.21
1193,G#4,299.5,0.5,39,156.21
1194,D3,299.5,0.25,39,156.21
1195,G4,300.0,0.5,47,156.21
1196,E-3,300.0,0.25,41,156.21
1197,F#4,300.5,0.5,42,156.21
1198,E-3,300.5,0.25,42,156.21
1199,F4,301.0,0.5,48,156.21
1200,D3,301.0,0.25,44,156.21
1201,B-4,301.5,0.5,44,156.21
1202,C#3,301.5,0.25,47,156.21
1203,E-4,302.0,0.5,52,156.21
1204,C3,302.0,0.25,49,156.21
1205,A4,302.5,0.5,46,156.21
1206,B2,302.5,0.25,49,156.21
1207,D4,303.0,0.5,54,156.21
1208,B-2,303.0,0.25,47,156.21
1209,A2,303.5,0.25,47,156.21
1210,F#4,303.5,0.5,45,156.21
1211,E-4,303.5,0.5,45,156.21
1212,B-2,304.0,0.5,50,156.21
1213,D4,304.0,0.5,49,156.21
1214,F4,304.0,0.5,49,156.21
1215,A2,304.5,0.5,44,156.21
1216,E-4,304.5,0.5,40,156.21
1217,F#4,304.5,0.5,40,156.21
1218,B-2,305.0,0.5,50,156.21
1219,D4,305.0,0.5,48,156.21
1220,F4,305.0,0.5,48,156.21
1221,A2,305.5,0.5,44,156.21
1222,E-4,305.5,0.5,40,156.21
1223,F#4,305.5,0.5,40,156.21
1224,B-2,306.0,0.5,44,156.21
1225,D4,306.0,0.5,41,156.21
1226,F4,306.0,0.5,41,156.21
1227,E-4,306.5,0.5,35,156.21
1228,G4,306.5,0.5,35,156.21
1229,F4,307.0,0.5,35,156.21
1230,G#4,307.0,0.5,35,156.21
1231,D4,307.5,0.5,35,156.21
1232,F4,307.5,0.5,35,156.21
1233,E-4,308.0,0.25,39,156.21
1234,E-4,308.5,0.25,36,156.21
1235,E-4,309.0,0.25,35,156.21
1236,G3,309.0,1.0,32,156.21
1237,B-3,309.0,1.0,32,156.21
1238,E-4,309.5,0.25,35,156.21
1239,C5,310.0,0.25,41,156.21
1240,C5,310.5,0.25,37,156.21
1241,C5,311.0,0.25,37,156.21
1242,G#3,311.0,1.0,32,156.21
1243,E-4,311.0,1.0,32,156.21
1244,C5,311.5,0.25,37,156.21
1245,F4,312.0,0.25,40,156.21
1246,F4,312.5,0.25,37,156.21
1247,B-4,313.0,0.25,40,156.21
1248,D3,313.0,1.0,32,156.21
1249,F3,313.0,1.0,32,156.21
1250,B-4,313.5,0.25,37,156.21
1251,G#4,314.0,0.5,36,156.21
1252,E-3,314.0,0.5,32,156.21
1253,B-3,314.0,0.5,32,156.21
1254,G4,314.5,0.375,39,156.21
1255,F4,315.0,0.25,42,156.21
1256,E-4,315.5,0.25,45,156.21
1257,C5,316.0,0.25,48,156.21
1258,C6,316.5,0.25,43,156.21
1259,G#4,316.5,0.25,30,156.21
1260,B5,317.0,0.25,48,156.21
1261,G4,317.0,0.25,35,156.21
1262,B-5,317.5,0.25,43,156.21
1263,E4,317.5,0.25,32,156.21
1264,A5,318.0,0.25,48,156.21
1265,F4,318.0,0.25,35,156.21
1266,G#5,318.5,0.25,46,156.21
1267,D4,318.5,0.25,29,156.21
1268,G5,319.0,0.25,49,156.21
1269,E-4,319.0,1.0,35,156.21
1270,F#5,319.5,0.25,42,156.21
1271,A3,319.5,0.5,31,156.21
1272,F5,320.0,0.25,45,156.21
1273,B-3,320.0,2.0,35,156.21
1274,E-4,320.0,1.0,35,156.21
1275,F5,320.5,0.25,40,156.21
1276,B-5,321.0,0.25,48,156.21
1277,D4,321.0,1.0,35,156.21
1278,B-5,321.5,0.25,43,156.21
1279,E-5,322.0,1.0,50,156.21
1280,E-4,322.0,0.25,39,156.21
1281,B-3,322.5,0.25,36,156.21
1282,G3,323.0,0.25,35,156.21
1283,E-3,323.5,0.25,35,156.21
1284,C#4,324.0,0.25,46,156.21
1285,B-4,324.5,0.5,35,156.21
1286,C#4,324.5,0.25,39,156.21
1287,C#5,325.0,0.5,40,156.21
1288,C#4,325.0,0.25,39,156.21
1289,E5,325.5,0.5,44,156.21
1290,C#4,325.5,0.25,39,156.21
1291,G5,326.0,0.5,48,156.21
1292,E3,326.0,0.25,44,156.21
1293,C#5,326.5,0.5,45,156.21
1294,E3,326.5,0.25,39,156.21
1295,C5,327.0,0.5,42,156.21
1296,E3,327.0,0.25,39,156.21
1297,B-4,327.5,0.5,39,156.21
1298,E3,327.5,0.25,39,156.21
1299,A4,328.0,0.5,35,156.21
1300,C4,328.0,0.25,44,156.21
1301,G#4,328.5,0.5,37,156.21
1302,C4,328.5,0.25,38,156.21
1303,D5,329.0,0.5,40,156.21
1304,C4,329.0,0.25,38,156.21
1305,E-5,329.5,0.5,42,156.21
1306,C4,329.5,0.25,39,156.21
1307,F5,330.0,0.5,44,156.21
1308,D3,330.0,0.25,44,156.21
1309,B4,330.5,0.5,40,156.21
1310,D3,330.5,0.25,37,156.21
1311,B-4,331.0,0.5,39,156.21
1312,D3,331.0,0.25,37,156.21
1313,G#4,331.5,0.5,39,156.21
1314,D3,331.5,0.25,39,156.21
1315,G4,332.0,0.5,47,156.21
1316,E-3,332.0,0.25,41,156.21
1317,F#4,332.5,0.5,42,156.21
1318,E-3,332.5,0.25,42,156.21
1319,F4,333.0,0.5,48,156.21
1320,D3,333.0,0.25,44,156.21
1321,B-4,333.5,0.5,44,156.21
1322,C#3,333.5,0.25,47,156.21
1323,E-4,334.0,0.5,52,156.21
1324,C3,334.0,0.25,49,156.21
1325,A4,334.5,0.5,46,156.21
1326,B2,334.5,0.25,49,156.21
1327,D4,335.0,0.5,54,156.21
1328,B-2,335.0,0.25,47,156.21
1329,A2,335.5,0.25,47,156.21
1330,F#4,335.5,0.5,45,156.21
1331,E-4,335.5,0.5,45,156.21
1332,B-2,336.0,0.5,50,156.21
1333,D4,336.0,0.5,49,156.21
1334,F4,336.0,0.5,49,156.21
1335,A2,336.5,0.5,44,156.21
1336,E-4,336.5,0.5,40,156.21
1337,F#4,336.5,0.5,40,156.21
1338,B-2,337.0,0.5,50,156.21
1339,D4,337.0,0.5,48,156.21
1340,F4,337.0,0.5,48,156.21
1341,A2,337.5,0.5,44,156.21
1342,E-4,337.5,0.5,40,156.21
1343,F#4,337.5,0.5,40,156.21
1344,B-2,338.0,0.5,44,156.21
1345,D4,338.0,0.5,41,156.21
1346,F4,338.0,0.5,41,156.21
1347,E-4,338.5,0.5,35,156.21
1348,G4,338.5,0.5,35,156.21
1349,F4,339.0,0.5,35,156.21
1350,G#4,339.0,0.5,35,156.21
1351,D4,339.5,0.5,35,156.21
1352,F4,339.5,0.5,35,156.21
1353,E-4,340.0,0.25,39,156.21
1354,E-4,340.5,0.25,36,156.21
1355,E-4,341.0,0.25,35,156.21
1356,G3,341.0,1.0,32,156.21
1357,B-3,341.0,1.0,32,156.21
1358,E-4,341.5,0.25,35,156.21
1359,C5,342.0,0.25,41,156.21
1360,C5,342.5,0.25,37,156.21
1361,C5,343.0,0.25,37,156.21
1362,G#3,343.0,1.0,32,156.21
1363,E-4,343.0,1.0,32,156.21
1364,C5,343.5,0.25,37,156.21
1365,F4,344.0,0.25,40,156.21
1366,F4,344.5,0.25,37,156.21
1367,B-4,345.0,0.25,40,156.21
1368,D3,345.0,1.0,32,156.21
1369,F3,345.0,1.0,32,156.21
1370,B-4,345.5,0.25,37,156.21
1371,G#4,346.0,0.5,36,156.21
1372,E-3,346.0,0.5,32,156.21
1373,B-3,346.0,0.5,32,156.21
1374,G4,346.5,0.375,39,156.21
1375,F4,347.0,0.25,42,156.21
1376,E-4,347.5,0.25,45,156.21
1377,C5,348.0,0.25,48,156.21
1378,C6,348.5,0.25,43,156.21
1379,G#4,348.5,0.25,30,156.21
1380,B5,349.0,0.25,48,156.21
1381,G4,349.0,0.25,35,156.21
1382,B-5,349.5,0.25,43,156.21
1383,E4,349.5,0.25,32,156.21
1384,A5,350.0,0.25,48,156.21
1385,F4,350.0,0.25,35,156.21
1386,G#5,350.5,0.25,46,156.21
1387,D4,350.5,0.25,29,156.21
1388,G5,351.0,0.25,49,156.21
1389,E-4,351.0,1.0,35,156.21
1390,F#5,351.5,0.25,42,156.21
1391,A3,351.5,0.5,31,156.21
1392,F5,352.0,0.25,45,156.21
1393,B-3,352.0,2.0,35,156.21
1394,E-4,352.0,1.0,35,156.21
1395,F5,352.5,0.25,40,156.21
1396,B-5,353.0,0.25,48,156.21
1397,D4,353.0,1.0,35,156.21
1398,B-5,353.5,0.25,43,156.21
1399,E-5,354.0,1.0,50,156.21
1400,E-4,354.0,0.25,39,156.21
1401,B-3,354.5,0.25,36,156.21
1402,G3,355.0,0.25,35,156.21
1403,E-3,355.5,0.25,35,156.21
1404,G3,356.0,0.25,35,156.21
1405,G4,356.5,21/40,38,156.21
1406,F#4,357.0,21/40,39,156.21
1407,B4,357.5,21/40,37,156.21
1408,F4,357.5,21/40,39,156.21
1409,C5,358.0,21/40,39,156.21
1410,E-4,358.0,21/40,40,156.21
1411,D5,358.5,21/40,40,156.21
1412,D4,358.5,21/40,41,156.21
1413,E-5,359.0,21/40,42,156.21
1414,C4,359.0,21/40,42,156.21
1415,E5,359.5,0.5,44,156.21
1416,B-3,359.5,0.5,43,156.21
1417,F5,360.0,0.25,46,156.21
1418,A3,360.0,1.0,44,156.21
1419,F6,360.5,21/40,54,156.21
1420,E6,361.0,21/40,50,156.21
1421,E-6,361.5,21/40,52,156.21
1422,A4,361.5,21/40,40,156.21
1423,D6,362.0,21/40,53,156.21
1424,B-4,362.0,21/40,45,156.21
1425,C6,362.5,21/40,55,156.21
1426,C5,362.5,21/40,40,156.21
1427,B-5,363.0,21/40,57,156.21
1428,D5,363.0,21/40,44,156.21
1429,G#5,363.5,0.5,59,156.21
1430,C5,363.5,0.5,42,156.21
1431,G5,364.0,0.25,59,156.21
1432,B4,364.0,0.25,49,156.21
1433,E-6,364.5,0.25,51,156.21
1434,C5,364.5,0.25,43,156.21
1435,F5,365.0,0.25,58,156.21
1436,A4,365.0,0.25,49,156.21
1437,D6,365.5,0.25,51,156.21
1438,B-4,365.5,0.25,44,156.21
1439,E-5,366.0,0.25,60,156.21
1440,G4,366.0,0.25,49,156.21
1441,C6,366.5,0.25,52,156.21
1442,A4,366.5,0.25,43,156.21
1443,D5,367.0,0.25,60,156.21
1444,F#4,367.0,0.25,48,156.21
1445,B-5,367.5,0.25,53,156.21
1446,G4,367.5,0.25,43,156.21
1447,G4,368.0,2.0,52,156.21
1448,B-4,368.0,2.0,52,156.21
1449,B-5,368.5,0.5,51,156.21
1450,G5,369.0,0.5,59,156.21
1451,E5,369.5,0.5,51,156.21
1452,F5,370.0,0.5,59,156.21
1453,F4,370.0,1.0,32,156.21
1454,A4,370.0,1.0,32,156.21
1455,A5,370.5,0.5,49,156.21
1456,C6,371.0,0.25,61,156.21
1457,C6,371.5,0.25,51,156.21
1458,G4,372.0,2.0,36,156.21
1459,B-4,372.0,2.0,36,156.21
1460,C6,372.5,11/40,55,156.21
1461,B-5,372.75,11/40,54,156.21
1462,A5,373.0,11/40,52,156.21
1463,G5,373.25,11/40,51,156.21
1464,F5,373.5,11/40,50,156.21
1465,E5,373.75,0.25,48,156.21
1466,F5,374.0,0.25,52,156.21
1467,F4,374.0,1.0,30,156.21
1468,A4,374.0,1.0,30,156.21
1469,C5,374.25,0.25,45,156.21
1470,F5,374.5,0.25,48,156.21
1471,A5,374.75,0.25,45,156.21
1472,C6,375.0,0.25,52,156.21
1473,C6,375.5,0.25,49,156.21
1474,G4,376.0,2.0,32,156.21
1475,B-4,376.0,2.0,32,156.21
1476,A5,376.25,11/40,47,156.21
1477,C6,376.5,11/40,53,156.21
1478,B-5,376.75,11/40,51,156.21
1479,A5,377.0,11/40,49,156.21
1480,G5,377.25,11/40,47,156.21
1481,F5,377.5,11/40,45,156.21
1482,E5,377.75,0.25,43,156.21
1483,F5,378.0,11/40,48,156.21
1484,F4,378.0,1.0,30,156.21
1485,A4,378.0,1.0,30,156.21
1486,F#5,378.25,11/40,40,156.21
1487,A5,378.5,11/40,47,156.21
1488,G5,378.75,11/40,46,156.21
1489,F5,379.0,11/40,45,156.21
1490,E-5,379.25,11/40,43,156.21
1491,D5,379.5,11/40,42,156.21
1492,C#5,379.75,0.25,41,156.21
1493,D5,380.0,0.5,47,156.21
1494,B-3,380.0,0.5,29,156.21
1495,F4,380.5,0.5,23,156.21
1496,E-5,381.0,0.5,48,156.21
1497,C4,381.0,0.5,23,156.21
1498,F4,381.5,0.5,23,156.21
1499,E5,382.0,1.0,52,156.21
1500,D4,382.0,0.5,23,156.21
1501,F4,382.5,0.5,23,156.21
1502,F5,383.0,0.5,48,156.21
1503,B-3,383.0,0.5,23,156.21
1504,D5,383.5,0.25,44,156.21
1505,F4,383.5,0.5,25,156.21
1506,D5,383.875,0.125,45,156.21
1507,C5,384.0,0.25,49,156.21
1508,A3,384.0,0.5,30,156.21
1509,B4,384.5,0.25,45,156.21
1510,F4,384.5,0.5,23,156.21
1511,C5,385.0,0.25,48,156.21
1512,B-3,385.0,0.5,25,156.21
1513,D5,385.5,0.25,47,156.21
1514,F4,385.5,0.5,25,156.21
1515,F5,386.0,1.0,51,156.21
1516,C4,386.0,0.5,25,156.21
1517,F4,386.5,0.5,25,156.21
1518,E-5,387.0,0.5,46,156.21
1519,E-4,387.0,0.5,25,156.21
1520,A4,387.5,0.25,43,156.21
1521,F4,387.5,0.5,24,156.21
1522,B-4,388.0,0.25,49,156.21
1523,D4,388.0,0.25,31,156.21
1524,B-4,388.5,1.0,46,156.21
1525,F4,388.5,0.5,24,156.21
1526,D4,389.0,0.5,31,156.21
1527,B4,389.5,0.5,46,156.21
1528,F4,389.5,0.5,24,156.21
1529,C5,390.0,0.25,50,156.21
1530,A3,390.0,0.25,32,156.21
1531,C5,390.5,1.0,47,156.21
1532,F4,390.5,0.5,26,156.21
1533,A3,391.0,0.5,32,156.21
1534,C#5,391.5,0.5,47,156.21
1535,F4,391.5,0.5,27,156.21
1536,D5,392.0,0.25,53,156.21
1537,B-3,392.0,0.25,32,156.21
1538,C5,392.5,0.25,49,156.21
1539,A3,392.5,0.25,28,156.21
1540,D5,393.0,0.25,54,156.21
1541,B-3,393.0,0.25,28,156.21
1542,E-3,393.5,0.25,28,156.21
1543,C5,393.5,0.25,50,156.21
1544,E-5,393.5,0.25,50,156.21
1545,F3,394.0,1.0,32,156.21
1546,B-4,394.0,1.0,55,156.21
1547,D5,394.0,1.0,55,156.21
1548,A4,395.0,0.375,50,156.21
1549,C5,395.0,0.375,50,156.21
1550,B-4,395.5,0.25,47,156.21
1551,C5,395.75,0.25,47,156.21
1552,D5,396.0,0.5,50,156.21
1553,B-3,396.0,0.5,30,156.21
1554,F4,396.5,0.5,23,156.21
1555,E-5,397.0,0.5,51,156.21
1556,C4,397.0,0.5,23,156.21
1557,F4,397.5,0.5,23,156.21
1558,E5,398.0,1.0,52,156.21
1559,D4,398.0,0.5,23,156.21
1560,F4,398.5,0.5,23,156.21
1561,F5,399.0,0.5,52,156.21
1562,B-3,399.0,0.5,23,156.21
1563,D5,399.5,0.25,51,156.21
1564,F4,399.5,0.5,25,156.21
1565,D5,399.875,0.125,52,156.21
1566,C5,400.0,0.25,54,156.21
1567,A3,400.0,0.5,30,156.21
1568,B4,400.5,0.25,50,156.21
1569,F4,400.5,0.5,23,156.21
1570,C5,401.0,0.25,52,156.21
1571,B-3,401.0,0.5,25,156.21
1572,D5,401.5,0.25,50,156.21
1573,F4,401.5,0.5,25,156.21
1574,F5,402.0,1.0,54,156.21
1575,C4,402.0,0.5,25,156.21
1576,F4,402.5,0.5,25,156.21
1577,E-5,403.0,0.5,46,156.21
1578,E-4,403.0,0.5,25,156.21
1579,A4,403.5,0.25,46,156.21
1580,F4,403.5,0.5,24,156.21
1581,B-4,404.0,0.25,56,156.21
1582,D4,404.0,1.0,31,156.21
1583,B-5,404.5,0.5,50,156.21
1584,B-5,405.0,0.25,53,156.21
1585,B-5,405.5,0.25,48,156.21
1586,C5,406.0,0.25,56,156.21
1587,G4,406.0,1.0,28,156.21
1588,E-4,406.0,1.0,28,156.21
1589,G5,406.5,0.5,50,156.21
1590,G5,407.0,0.25,53,156.21
1591,G5,407.5,0.25,50,156.21
1592,B-4,408.0,0.25,54,156.21
1593,F3,408.0,2.0,27,156.21
1594,D4,408.0,1.0,32,156.21
1595,B-4,408.5,0.25,50,156.21
1596,C5,409.0,0.125,50,156.21
1597,E-4,409.0,1.0,28,156.21
1598,D5,409.125,0.125,45,156.21
1599,C5,409.25,0.125,45,156.21
1600,B-4,409.375,0.125,45,156.21
1601,C5,409.5,0.25,50,156.21
1602,D5,409.75,0.25,45,156.21
1603,B-4,410.0,1.0,55,156.21
1604,B-3,410.0,1.0,30,156.21
1605,D4,410.0,1.0,30,156.21
1606,B-4,411.5,0.25,60,156.21
1607,B-2,412.0,0.25,59,156.21
1608,G5,412.0,0.25,60,156.21
1609,B-5,412.0,0.25,60,156.21
1610,B-3,412.5,0.375,54,156.21
1611,G5,412.5,1.0,59,156.21
1612,B-5,412.5,1.0,59,156.21
1613,B-3,413.0,0.375,54,156.21
1614,B-3,413.5,0.375,54,156.21
1615,E-5,413.5,0.5,54,156.21
1616,G5,413.5,0.5,54,156.21
1617,B-2,414.0,0.25,59,156.21
1618,D5,414.0,0.25,60,156.21
1619,F5,414.0,0.25,60,156.21
1620,B-3,414.5,0.375,54,156.21
1621,D5,414.5,1.0,59,156.21
1622,F5,414.5,1.0,59,156.21
1623,B-3,415.0,0.375,54,156.21
1624,B-3,415.5,0.375,54,156.21
1625,B-4,415.5,0.5,54,156.21
1626,D5,415.5,0.5,54,156.21
1627,F2,416.0,0.25,59,156.21
1628,A4,416.0,0.25,60,156.21
1629,C5,416.0,0.25,60,156.21
1630,F3,416.5,0.375,54,156.21
1631,A4,416.5,1.0,59,156.21
1632,C5,416.5,1.0,59,156.21
1633,F3,417.0,0.375,54,156.21
1634,F3,417.5,0.375,54,156.21
1635,C5,417.5,0.5,54,156.21
1636,E-5,417.5,0.5,54,156.21
1637,B-2,418.0,0.375,59,156.21
1638,A4,418.0,0.5,60,156.21
1639,C#5,418.0,0.5,60,156.21
1640,B-3,418.5,0.5,54,156.21
1641,B-4,418.5,0.5,60,156.21
1642,D5,418.5,0.5,60,156.21
1643,B-3,419.0,0.375,54,156.21
1644,B-4,419.0,0.375,59,156.21
1645,D5,419.0,0.375,59,156.21
1646,B-4,419.5,0.25,43,156.21
1647,B-3,419.5,0.25,34,156.21
1648,B-2,420.0,0.25,41,156.21
1649,G5,420.0,0.25,42,156.21
1650,B-5,420.0,0.25,42,156.21
1651,B-3,420.5,0.375,37,156.21
1652,G5,420.5,1.0,42,156.21
1653,B-5,420.5,1.0,42,156.21
1654,B-3,421.0,0.375,37,156.21
1655,B-3,421.5,0.375,37,156.21
1656,E-5,421.5,0.5,38,156.21
1657,G5,421.5,0.5,38,156.21
1658,B-2,422.0,0.25,41,156.21
1659,D5,422.0,0.25,42,156.21
1660,F5,422.0,0.25,42,156.21
1661,B-3,422.5,0.375,37,156.21
1662,D5,422.5,1.0,42,156.21
1663,F5,422.5,1.0,42,156.21
1664,B-3,423.0,0.375,37,156.21
1665,B-3,423.5,0.375,37,156.21
1666,B-4,423.5,0.5,38,156.21
1667,D5,423.5,0.5,38,156.21
1668,F2,424.0,0.25,41,156.21
1669,A4,424.0,0.25,42,156.21
1670,C5,424.0,0.25,42,156.21
1671,F3,424.5,0.375,37,156.21
1672,A4,424.5,1.0,42,156.21
1673,C5,424.5,1.0,42,156.21
1674,F3,425.0,0.375,37,156.21
1675,F3,425.5,0.375,37,156.21
1676,C5,425.5,0.5,38,156.21
1677,E-5,425.5,0.5,38,156.21
1678,B-2,426.0,0.375,41,156.21
1679,A4,426.0,0.5,42,156.21
1680,C#5,426.0,0.5,42,156.21
1681,B-3,426.5,0.5,37,156.21
1682,B-4,426.5,0.5,42,156.21
1683,D5,426.5,0.5,42,156.21
1684,B-3,427.0,0.375,37,156.21
1685,B-4,427.0,0.375,42,156.21
1686,D5,427.0,0.375,42,156.21
1687,B-4,427.5,0.25,53,156.21
1688,B-5,428.0,0.25,55,156.21
1689,B-5,428.5,0.25,50,156.21
1690,B-5,429.0,0.25,50,156.21
1691,G3,429.0,1.5,55,156.21
1692,B-5,429.5,0.25,50,156.21
1693,E5,430.0,0.25,55,156.21
1694,E5,430.5,0.25,50,156.21
1695,A3,430.5,0.25,50,156.21
1696,B-3,430.75,0.25,50,156.21
1697,E5,431.0,0.25,50,156.21
1698,C4,431.0,0.5,55,156.21
1699,E5,431.5,0.25,50,156.21
1700,B-3,431.5,0.5,50,156.21
1701,C6,432.0,0.25,55,156.21
1702,B-3,432.0,0.5,50,156.21
1703,C6,432.5,0.25,52,156.21
1704,A3,432.5,0.5,55,156.21
1705,C6,433.0,0.25,51,156.21
1706,C6,433.5,0.25,51,156.21
1707,F2,433.5,0.5,46,156.21
1708,E-5,434.0,0.25,55,156.21
1709,F#2,434.0,0.5,48,156.21
1710,E-5,434.5,0.25,50,156.21
1711,G2,434.5,0.5,49,156.21
1712,E-5,435.0,0.25,50,156.21
1713,G#2,435.0,0.5,51,156.21
1714,E-5,435.5,0.25,50,156.21
1715,A2,435.5,0.5,52,156.21
1716,D5,436.0,0.25,60,156.21
1717,B-2,436.0,0.5,55,156.21
1718,B-5,436.5,0.25,67,156.21
1719,B-3,436.5,0.25,50,156.21
1720,A5,437.0,0.25,66,156.21
1721,C4,437.0,0.25,50,156.21
1722,G#5,437.5,0.25,63,156.21
1723,D4,437.5,0.25,49,156.21
1724,G5,438.0,0.25,62,156.21
1725,E-4,438.0,0.25,48,156.21
1726,F#5,438.5,0.25,60,156.21
1727,E-4,438.5,0.25,48,156.21
1728,F5,439.0,0.25,58,156.21
1729,F4,439.0,0.25,46,156.21
1730,E5,439.5,0.25,56,156.21
1731,F#4,439.5,0.25,45,156.21
1732,F5,440.0,0.5,63,156.21
1733,F4,440.0,1.0,49,156.21
1734,D5,440.5,0.5,55,156.21
1735,A4,441.0,1.0,47,156.21
1736,C5,441.0,0.5,55,156.21
1737,F4,441.0,1.0,49,156.21
1738,F5,441.5,0.5,55,156.21
1739,F#4,442.0,1.0,52,156.21
1740,C5,442.0,1.0,60,156.21
1741,E-5,442.0,1.0,60,156.21
1742,G4,443.0,0.5,49,156.21
1743,B-4,443.0,0.5,57,156.21
1744,D5,443.0,0.5,57,156.21
1745,G2,443.5,0.5,49,156.21
1746,B-3,444.0,0.25,44,156.21
1747,F#5,444.5,0.5,50,156.21
1748,B-3,444.5,0.25,34,156.21
1749,G5,445.0,0.5,55,156.21
1750,B-3,445.0,0.25,34,156.21
1751,B-5,445.5,0.5,51,156.21
1752,B-3,445.5,0.25,34,156.21
1753,C#6,446.0,0.75,58,156.21
1754,E3,446.0,0.25,39,156.21
1755,E3,446.5,0.25,35,156.21
1756,E-6,446.75,0.125,49,156.21
1757,C#6,446.875,0.125,49,156.21
1758,C6,447.0,0.5,55,156.21
1759,E3,447.0,0.25,35,156.21
1760,B-5,447.5,0.5,49,156.21
1761,E3,447.5,0.25,35,156.21
1762,A5,448.0,0.5,56,156.21
1763,F#3,448.0,0.25,44,156.21
1764,A4,448.5,0.5,45,156.21
1765,F#3,448.5,0.25,35,156.21
1766,C5,449.0,0.5,49,156.21
1767,F#3,449.0,0.25,35,156.21
1768,E-5,449.5,0.5,45,156.21
1769,F#3,449.5,0.25,35,156.21
1770,F#5,450.0,0.75,49,156.21
1771,A2,450.0,0.25,44,156.21
1772,A2,450.5,0.25,36,156.21
1773,G#5,450.75,0.125,48,156.21
1774,F#5,450.875,0.125,48,156.21
1775,F5,451.0,0.5,55,156.21
1776,A2,451.0,0.25,36,156.21
1777,E-5,451.5,0.5,51,156.21
1778,A2,451.5,0.25,36,156.21
1779,D5,452.0,0.5,55,156.21
1780,B-2,452.0,0.25,48,156.21
1781,B-4,452.5,0.25,59,156.21
1782,B-3,452.5,0.25,49,156.21
1783,C5,453.0,0.25,60,156.21
1784,A3,453.0,0.25,51,156.21
1785,D5,453.5,0.25,61,156.21
1786,G#3,453.5,0.25,55,156.21
1787,E-5,454.0,0.25,63,156.21
1788,G3,454.0,0.25,57,156.21
1789,E5,454.5,0.25,64,156.21
1790,F#3,454.5,0.25,59,156.21
1791,F5,455.0,0.25,66,156.21
1792,F3,455.0,0.25,62,156.21
1793,F#5,455.5,0.25,69,156.21
1794,D3,455.5,0.25,64,156.21
1795,G5,456.0,0.75,74,156.21
1796,E-3,456.0,0.75,67,156.21
1797,C#5,457.0,1.0,68,156.21
1798,G5,457.0,1.0,68,156.21
1799,B-5,457.0,1.0,68,156.21
1800,E2,457.0,1.0,64,156.21
1801,E3,457.0,1.0,64,156.21
1802,G5,458.5,0.5,59,156.21
1803,A5,459.0,0.5,61,156.21
1804,B-5,459.5,0.5,64,156.21
1805,B-5,460.0,0.25,67,156.21
1806,F3,460.0,0.5,56,156.21
1807,C6,460.25,0.25,60,156.21
1808,D6,460.5,0.25,60,156.21
1809,D4,460.5,0.5,47,156.21
1810,E-6,460.75,0.25,60,156.21
1811,F6,461.0,0.25,67,156.21
1812,B-3,461.0,0.5,47,156.21
1813,E-6,461.25,0.25,61,156.21
1814,D6,461.5,0.25,61,156.21
1815,D4,461.5,0.5,47,156.21
1816,C6,461.75,0.25,61,156.21
1817,B-5,462.0,0.25,67,156.21
1818,F3,462.0,0.5,52,156.21
1819,A5,462.25,0.25,67,156.21
1820,G5,462.5,0.25,66,156.21
1821,D4,462.5,0.5,44,156.21
1822,F5,462.75,0.25,64,156.21
1823,E-5,463.0,0.25,64,156.21
1824,B-3,463.0,0.5,44,156.21
1825,D5,463.25,0.25,63,156.21
1826,C5,463.5,0.25,62,156.21
1827,D4,463.5,0.5,44,156.21
1828,B-4,463.75,0.25,62,156.21
1829,C5,464.0,0.125,50,156.21
1830,F3,464.0,0.5,49,156.21
1831,D5,464.125,0.125,41,156.21
1832,C5,464.25,0.125,49,156.21
1833,D5,464.375,0.125,41,156.21
1834,C5,464.5,0.125,49,156.21
1835,E-4,464.5,0.5,27,156.21
1836,D5,464.625,0.125,40,156.21
1837,C5,464.75,0.125,50,156.21
1838,D5,464.875,0.125,44,156.21
1839,C5,465.0,0.125,49,156.21
1840,C4,465.0,0.5,34,156.21
1841,D5,465.125,0.125,44,156.21
1842,C5,465.25,0.125,50,156.21
1843,D5,465.375,0.125,44,156.21
1844,C5,465.5,0.125,51,156.21
1845,E-4,465.5,0.5,34,156.21
1846,D5,465.625,0.125,45,156.21
1847,C5,465.75,0.125,53,156.21
1848,D5,465.875,0.125,46,156.21
1849,C5,466.0,0.125,55,156.21
1850,F3,466.0,0.5,41,156.21
1851,D5,466.125,0.125,47,156.21
1852,C5,466.25,0.125,52,156.21
1853,D5,466.375,0.125,45,156.21
1854,C5,466.5,0.125,51,156.21
1855,E-4,466.5,0.5,34,156.21
1856,D5,466.625,0.125,44,156.21
1857,C5,466.75,0.125,50,156.21
1858,D5,466.875,0.125,44,156.21
1859,C5,467.0,0.125,49,156.21
1860,C4,467.0,0.5,35,156.21
1861,D5,467.125,0.125,42,156.21
1862,C5,467.25,0.125,47,156.21
1863,D5,467.375,0.125,40,156.21
1864,C5,467.5,167/1000,46,156.21
1865,E-4,467.5,0.5,35,156.21
1866,B-4,467.667,167/1000,52,156.21
1867,C5,467.833,167/1000,47,156.21
1868,B-4,468.0,0.5,55,156.21
1869,B-2,468.0,0.375,38,156.21
1870,B-3,468.5,0.375,31,156.21
1871,B-3,469.0,0.375,31,156.21
1872,B-3,469.5,0.375,31,156.21
1873,B-3,470.0,1.0,38,156.21
1874,F5,470.5,0.5,35,156.21
1875,D5,470.5,0.5,35,156.21
1876,C5,471.0,0.5,36,156.21
1877,E-5,471.0,0.5,36,156.21
1878,B-4,471.5,0.5,32,156.21
1879,D5,471.5,0.5,32,156.21
1880,B-2,472.0,0.375,35,156.21
1881,G5,472.0,1.0,39,156.21
1882,E-5,472.0,1.0,39,156.21
1883,B-3,472.5,0.375,31,156.21
1884,B-3,473.0,0.375,31,156.21
1885,B-3,473.5,0.375,31,156.21
1886,B-3,474.0,1.0,35,156.21
1887,G5,474.5,0.5,36,156.21
1888,E-5,474.5,0.5,36,156.21
1889,A5,475.0,0.5,41,156.21
1890,F5,475.0,0.5,41,156.21
1891,G5,475.5,0.5,35,156.21
1892,B-5,475.5,0.5,35,156.21
1893,B-2,476.0,0.375,35,156.21
1894,F5,476.0,1.0,43,156.21
1895,D5,476.0,1.0,43,156.21
1896,B-3,476.5,0.375,30,156.21
1897,B-3,477.0,0.375,30,156.21
1898,B-3,477.5,0.375,30,156.21
1899,B-3,478.0,1.0,35,156.21
1900,B-4,478.5,0.5,32,156.21
1901,D5,478.5,0.5,32,156.21
1902,E-5,479.0,0.5,39,156.21
1903,C5,479.0,0.5,39,156.21
1904,D5,479.5,0.5,33,156.21
1905,F5,479.5,0.5,33,156.21
1906,F2,480.0,0.375,40,156.21
1907,C5,480.0,1.0,38,156.21
1908,E-5,480.0,1.0,38,156.21
1909,F3,480.5,0.375,35,156.21
1910,F3,481.0,0.375,35,156.21
1911,F3,481.5,0.375,35,156.21
1912,F3,482.0,1.0,38,156.21
1913,D4,482.5,21/40,45,156.21
1914,F4,482.5,21/40,45,156.21
1915,E4,483.0,21/40,52,156.21
1916,G4,483.0,21/40,52,156.21
1917,E-4,483.5,0.5,58,156.21
1918,A4,483.5,0.5,58,156.21
1919,B-2,484.0,0.5,47,156.21
1920,D4,484.0,0.5,66,156.21
1921,B-4,484.0,0.5,66,156.21
1922,B-3,485.0,0.5,49,156.21
1923,F4,485.0,0.5,65,156.21
1924,D5,485.0,0.5,65,156.21
1925,B-2,486.0,0.5,49,156.21
1926,D4,486.0,0.5,65,156.21
1927,B-4,486.0,0.5,65,156.21
