,note_name,start_time,duration,velocity,tempo
0,B4,0.0,2.0,50,54.93
1,G3,0.0,0.25,40,54.93
2,D4,0.25,0.25,22,54.93
3,B3,0.5,0.25,25,54.93
4,D4,0.75,0.25,24,54.93
5,G3,1.0,0.25,40,54.93
6,D4,1.25,0.25,29,54.93
7,B3,1.5,0.25,35,54.93
8,D4,1.75,0.25,30,54.93
9,D5,2.0,3/10,50,54.93
10,A3,2.0,0.25,40,54.93
11,C5,2.25,3/10,46,54.93
12,D4,2.25,0.25,32,54.93
13,B4,2.5,3/10,46,54.93
14,C4,2.5,0.25,40,54.93
15,C5,2.75,0.25,48,54.93
16,D4,2.75,0.25,35,54.93
17,D5,3.0,0.75,54,54.93
18,C5,3.0,1/20,48,54.93
19,G3,3.0,0.25,43,54.93
20,D4,3.25,0.25,28,54.93
21,B3,3.5,0.25,32,54.93
22,B4,3.75,0.25,47,54.93
23,D4,3.75,0.25,28,54.93
24,G4,4.0,1.0,47,54.93
25,G3,4.0,0.25,40,54.93
26,D4,4.25,0.25,29,54.93
27,B3,4.5,0.25,39,54.93
28,D4,4.75,0.25,36,54.93
29,G3,5.0,0.25,48,54.93
30,D4,5.25,0.25,38,54.93
31,B3,5.5,0.25,48,54.93
32,D4,5.75,0.25,45,54.93
33,G5,6.0,1.5,67,54.93
34,G3,6.0,0.25,53,54.93
35,E4,6.25,0.25,37,54.93
36,C4,6.5,0.25,47,54.93
37,E4,6.75,0.25,41,54.93
38,G3,7.0,0.25,44,54.93
39,E4,7.25,0.25,34,54.93
40,A5,7.5,0.25,62,54.93
41,C4,7.5,0.25,39,54.93
42,G5,7.75,0.25,55,54.93
43,E4,7.75,0.25,34,54.93
44,F#5,8.0,3/10,57,54.93
45,G3,8.0,0.25,40,54.93
46,E5,8.25,3/10,46,54.93
47,C#4,8.25,0.25,26,54.93
48,D5,8.5,3/10,51,54.93
49,B-3,8.5,0.25,34,54.93
50,C#5,8.75,0.25,46,54.93
51,C#4,8.75,0.25,27,54.93
52,D5,9.0,0.75,53,54.93
53,C#5,9.0,1/20,46,54.93
54,G3,9.0,0.25,40,54.93
55,D4,9.25,0.25,26,54.93
56,B3,9.5,0.25,31,54.93
57,B4,9.75,0.25,47,54.93
58,D4,9.75,0.25,27,54.93
59,G4,10.0,1.0,45,54.93
60,G3,10.0,0.25,40,54.93
61,D4,10.25,0.25,26,54.93
62,B3,10.5,0.25,30,54.93
63,D4,10.75,0.25,27,54.93
64,G3,11.0,0.25,41,54.93
65,D4,11.25,0.25,25,54.93
66,B3,11.5,0.25,30,54.93
67,D4,11.75,0.25,25,54.93
68,C5,12.0,0.75,50,54.93
69,A3,12.0,0.25,40,54.93
70,D4,12.25,0.25,27,54.93
71,C4,12.5,0.25,32,54.93
72,A4,12.75,0.25,47,54.93
73,D4,12.75,0.25,27,54.93
74,F#4,13.0,0.25,52,54.93
75,A3,13.0,0.25,40,54.93
76,D4,13.25,0.25,30,54.93
77,A4,13.5,0.25,47,54.93
78,C4,13.5,0.25,33,54.93
79,D4,13.75,0.25,28,54.93
80,B4,14.0,0.25,51,54.93
81,A3,14.0,0.25,44,54.93
82,D4,14.25,0.25,33,54.93
83,C5,14.5,0.25,52,54.93
84,C4,14.5,0.25,40,54.93
85,D4,14.75,0.25,33,54.93
86,D5,15.0,0.75,57,54.93
87,G3,15.0,0.25,46,54.93
88,D4,15.25,0.25,33,54.93
89,B3,15.5,0.25,40,54.93
90,B4,15.75,0.25,61,54.93
91,D4,15.75,0.25,37,54.93
92,G5,16.0,1.0,65,54.93
93,E3,16.0,0.25,46,54.93
94,B3,16.25,0.25,38,54.93
95,G3,16.5,0.25,42,54.93
96,B3,16.75,0.25,38,54.93
97,B2,17.0,0.25,53,54.93
98,G3,17.25,0.25,44,54.93
99,D3,17.5,0.25,48,54.93
100,G3,17.75,0.25,39,54.93
101,A5,18.0,11/40,68,54.93
102,C3,18.0,2.0,49,54.93
103,E3,18.0,1.0,58,54.93
104,G5,18.25,11/40,59,54.93
105,F#5,18.5,11/40,64,54.93
106,G5,18.75,0.25,58,54.93
107,F#5,19.0,11/40,64,54.93
108,G3,19.0,2.0,34,54.93
109,E5,19.25,11/40,54,54.93
110,E-5,19.5,11/40,59,54.93
111,E5,19.75,0.25,53,54.93
112,D5,20.0,11/40,62,54.93
113,E3,20.0,1.0,34,54.93
114,C5,20.25,11/40,53,54.93
115,B4,20.5,11/40,56,54.93
116,C5,20.75,0.25,53,54.93
117,B4,21.0,0.75,59,54.93
118,D3,21.0,2.0,36,54.93
119,G3,21.0,1.0,36,54.93
120,C5,21.75,0.125,50,54.93
121,B4,21.875,0.125,50,54.93
122,A4,22.0,0.5,57,54.93
123,F#3,22.0,1.0,28,54.93
124,D5,22.5,521/1000,54,54.93
125,C#5,23.0,521/1000,52,54.93
126,C5,23.5,0.5,50,54.93
127,B4,24.0,1.25,50,54.93
128,G3,24.0,0.25,40,54.93
129,D4,24.25,0.25,25,54.93
130,B3,24.5,0.25,31,54.93
131,D4,24.75,0.25,26,54.93
132,G3,25.0,0.25,40,54.93
133,G4,25.25,0.25,46,54.93
134,D4,25.25,0.25,27,54.93
135,B4,25.485,0.25,48,54.93
136,B3,25.5,0.25,31,54.93
137,D5,25.735,0.25,46,54.93
138,D4,25.75,0.25,26,54.93
139,C5,26.0,0.25,54,54.93
140,A3,26.0,0.25,40,54.93
141,A4,26.25,0.25,46,54.93
142,D4,26.25,0.25,31,54.93
143,C5,26.5,0.25,54,54.93
144,C4,26.5,0.25,36,54.93
145,E5,26.75,0.25,51,54.93
146,D4,26.75,0.25,30,54.93
147,D5,27.0,0.75,58,54.93
148,G3,27.0,0.25,40,54.93
149,D4,27.25,0.25,28,54.93
150,B3,27.5,0.25,32,54.93
151,B4,27.75,0.25,47,54.93
152,D4,27.75,0.25,28,54.93
153,G4,28.0,0.125,47,54.93
154,G3,28.0,0.25,40,54.93
155,G4,28.25,0.125,46,54.93
156,D4,28.25,0.25,33,54.93
157,A4,28.5,0.125,47,54.93
158,B3,28.5,0.25,37,54.93
159,B4,28.75,0.125,48,54.93
160,D4,28.75,0.25,30,54.93
161,C5,29.0,0.125,49,54.93
162,G3,29.0,0.25,47,54.93
163,D5,29.25,0.125,50,54.93
164,D4,29.25,0.25,38,54.93
165,E5,29.5,0.125,51,54.93
166,B3,29.5,0.25,44,54.93
167,F#5,29.75,0.125,53,54.93
168,D4,29.75,0.25,42,54.93
169,G5,30.0,3/10,57,54.93
170,G3,30.0,0.25,43,54.93
171,F#5,30.25,3/10,50,54.93
172,E4,30.25,0.25,34,54.93
173,G5,30.5,3/10,56,54.93
174,C4,30.5,0.25,38,54.93
175,F#5,30.75,3/10,52,54.93
176,E4,30.75,0.25,34,54.93
177,A5,31.0,3/10,59,54.93
178,G3,31.0,0.25,44,54.93
179,G5,31.25,3/10,57,54.93
180,E4,31.25,0.25,34,54.93
181,F#5,31.5,3/10,54,54.93
182,C4,31.5,0.25,39,54.93
183,G5,31.75,3/10,49,54.93
184,E4,31.75,0.25,34,54.93
185,F#5,32.0,3/10,52,54.93
186,G3,32.0,0.25,40,54.93
187,E5,32.25,3/10,50,54.93
188,C#4,32.25,0.25,26,54.93
189,D5,32.5,3/10,48,54.93
190,B-3,32.5,0.25,34,54.93
191,C#5,32.75,0.25,46,54.93
192,C#4,32.75,0.25,27,54.93
193,D5,33.0,0.25,50,54.93
194,C#5,33.0,1/20,46,54.93
195,G3,33.0,0.25,40,54.93
196,B4,33.25,0.25,43,54.93
197,D4,33.25,0.25,24,54.93
198,D5,33.5,0.25,47,54.93
199,B3,33.5,0.25,31,54.93
200,B4,33.75,0.25,43,54.93
201,D4,33.75,0.25,27,54.93
202,G4,34.0,1.0,47,54.93
203,G3,34.0,0.25,40,54.93
204,D4,34.25,0.25,26,54.93
205,B3,34.5,0.25,33,54.93
206,D4,34.75,0.25,27,54.93
207,G3,35.0,0.25,41,54.93
208,D4,35.25,0.25,30,54.93
209,B3,35.5,0.25,33,54.93
210,D4,35.75,0.25,29,54.93
211,C5,36.0,0.25,50,54.93
212,A3,36.0,0.25,40,54.93
213,A4,36.25,0.25,46,54.93
214,D4,36.25,0.25,27,54.93
215,C5,36.5,0.25,46,54.93
216,C4,36.5,0.25,32,54.93
217,A4,36.75,0.25,43,54.93
218,D4,36.75,0.25,27,54.93
219,F#4,37.0,0.125,50,54.93
220,A3,37.0,0.25,40,54.93
221,A4,37.25,0.25,46,54.93
222,D4,37.25,0.25,30,54.93
223,G#4,37.5,0.25,49,54.93
224,C4,37.5,0.25,33,54.93
225,A4,37.75,0.25,51,54.93
226,D4,37.75,0.25,28,54.93
227,B-4,38.0,0.25,54,54.93
228,A3,38.0,0.25,40,54.93
229,B4,38.25,0.25,51,54.93
230,D4,38.25,0.25,31,54.93
231,C5,38.5,0.25,54,54.93
232,C4,38.5,0.25,38,54.93
233,C#5,38.75,0.25,56,54.93
234,D4,38.75,0.25,33,54.93
235,D5,39.0,0.25,59,54.93
236,G3,39.0,0.25,40,54.93
237,B4,39.25,0.25,51,54.93
238,D4,39.25,0.25,38,54.93
239,D5,39.5,0.25,54,54.93
240,B3,39.5,0.25,42,54.93
241,B4,39.75,0.25,51,54.93
242,D4,39.75,0.25,35,54.93
243,G5,40.0,1.0,63,54.93
244,E3,40.0,0.25,51,54.93
245,B3,40.25,0.25,46,54.93
246,G3,40.5,0.25,50,54.93
247,B3,40.75,0.25,47,54.93
248,B2,41.0,0.25,54,54.93
249,B5,41.25,3/10,67,54.93
250,G3,41.25,0.25,42,54.93
251,F#5,41.5,3/10,62,54.93
252,D3,41.5,0.25,47,54.93
253,G5,41.75,0.25,56,54.93
254,G3,41.75,0.25,34,54.93
255,E-5,42.0,3/10,58,54.93
256,C3,42.0,0.25,40,54.93
257,E5,42.25,3/10,49,54.93
258,A3,42.25,0.25,26,54.93
259,C5,42.5,3/10,53,54.93
260,E3,42.5,0.25,33,54.93
261,A4,42.75,0.25,46,54.93
262,A3,42.75,0.25,29,54.93
263,G4,43.0,0.75,53,54.93
264,D3,43.0,0.25,39,54.93
265,B3,43.25,0.25,27,54.93
266,G3,43.5,0.25,33,54.93
267,G4,43.75,0.25,44,54.93
268,B3,43.75,0.25,28,54.93
269,F#4,44.0,1.0,47,54.93
270,B4,44.0,3/10,55,54.93
271,D3,44.0,0.25,39,54.93
272,A4,44.25,3/10,44,54.93
273,C4,44.25,0.25,27,54.93
274,G4,44.5,3/10,49,54.93
275,A3,44.5,0.25,32,54.93
276,A4,44.75,47/200,42,54.93
277,C4,44.75,47/200,27,54.93
278,G3,45.0,2.0,27,54.93
279,C4,45.0,1.0,36,54.93
280,F#4,45.0,1.0,48,54.93
281,A4,45.0,1.0,48,54.93
282,G4,46.0,1.0,48,54.93
283,B3,46.0,1.0,28,54.93
284,B4,48.0,2.0,50,54.93
285,G3,48.0,0.25,40,54.93
286,D4,48.25,0.25,22,54.93
287,B3,48.5,0.25,25,54.93
288,D4,48.75,0.25,24,54.93
289,G3,49.0,0.25,40,54.93
290,D4,49.25,0.25,29,54.93
291,B3,49.5,0.25,35,54.93
292,D4,49.75,0.25,30,54.93
293,D5,50.0,3/10,50,54.93
294,A3,50.0,0.25,40,54.93
295,C5,50.25,3/10,46,54.93
296,D4,50.25,0.25,32,54.93
297,B4,50.5,3/10,46,54.93
298,C4,50.5,0.25,40,54.93
299,C5,50.75,0.25,48,54.93
300,D4,50.75,0.25,35,54.93
301,D5,51.0,0.75,54,54.93
302,C5,51.0,1/20,48,54.93
303,G3,51.0,0.25,43,54.93
304,D4,51.25,0.25,28,54.93
305,B3,51.5,0.25,32,54.93
306,B4,51.75,0.25,47,54.93
307,D4,51.75,0.25,28,54.93
308,G4,52.0,1.0,47,54.93
309,G3,52.0,0.25,40,54.93
310,D4,52.25,0.25,29,54.93
311,B3,52.5,0.25,39,54.93
312,D4,52.75,0.25,36,54.93
313,G3,53.0,0.25,48,54.93
314,D4,53.25,0.25,38,54.93
315,B3,53.5,0.25,48,54.93
316,D4,53.75,0.25,45,54.93
317,G5,54.0,1.5,67,54.93
318,G3,54.0,0.25,53,54.93
319,E4,54.25,0.25,37,54.93
320,C4,54.5,0.25,47,54.93
321,E4,54.75,0.25,41,54.93
322,G3,55.0,0.25,44,54.93
323,E4,55.25,0.25,34,54.93
324,A5,55.5,0.25,62,54.93
325,C4,55.5,0.25,39,54.93
326,G5,55.75,0.25,55,54.93
327,E4,55.75,0.25,34,54.93
328,F#5,56.0,3/10,57,54.93
329,G3,56.0,0.25,40,54.93
330,E5,56.25,3/10,46,54.93
331,C#4,56.25,0.25,26,54.93
332,D5,56.5,3/10,51,54.93
333,B-3,56.5,0.25,34,54.93
334,C#5,56.75,0.25,46,54.93
335,C#4,56.75,0.25,27,54.93
336,D5,57.0,0.75,53,54.93
337,C#5,57.0,1/20,46,54.93
338,G3,57.0,0.25,40,54.93
339,D4,57.25,0.25,26,54.93
340,B3,57.5,0.25,31,54.93
341,B4,57.75,0.25,47,54.93
342,D4,57.75,0.25,27,54.93
343,G4,58.0,1.0,45,54.93
344,G3,58.0,0.25,40,54.93
345,D4,58.25,0.25,26,54.93
346,B3,58.5,0.25,30,54.93
347,D4,58.75,0.25,27,54.93
348,G3,59.0,0.25,41,54.93
349,D4,59.25,0.25,25,54.93
350,B3,59.5,0.25,30,54.93
351,D4,59.75,0.25,25,54.93
352,C5,60.0,0.75,50,54.93
353,A3,60.0,0.25,40,54.93
354,D4,60.25,0.25,27,54.93
355,C4,60.5,0.25,32,54.93
356,A4,60.75,0.25,47,54.93
357,D4,60.75,0.25,27,54.93
358,F#4,61.0,0.25,52,54.93
359,A3,61.0,0.25,40,54.93
360,D4,61.25,0.25,30,54.93
361,A4,61.5,0.25,47,54.93
362,C4,61.5,0.25,33,54.93
363,D4,61.75,0.25,28,54.93
364,B4,62.0,0.25,51,54.93
365,A3,62.0,0.25,44,54.93
366,D4,62.25,0.25,33,54.93
367,C5,62.5,0.25,52,54.93
368,C4,62.5,0.25,40,54.93
369,D4,62.75,0.25,33,54.93
370,D5,63.0,0.75,57,54.93
371,G3,63.0,0.25,46,54.93
372,D4,63.25,0.25,33,54.93
373,B3,63.5,0.25,40,54.93
374,B4,63.75,0.25,61,54.93
375,D4,63.75,0.25,37,54.93
376,G5,64.0,1.0,65,54.93
377,E3,64.0,0.25,46,54.93
378,B3,64.25,0.25,38,54.93
379,G3,64.5,0.25,42,54.93
380,B3,64.75,0.25,38,54.93
381,B2,65.0,0.25,53,54.93
382,G3,65.25,0.25,44,54.93
383,D3,65.5,0.25,48,54.93
384,G3,65.75,0.25,39,54.93
385,A5,66.0,11/40,68,54.93
386,E3,66.0,1.0,58,54.93
387,C3,66.0,2.0,49,54.93
388,G5,66.25,11/40,59,54.93
389,F#5,66.5,11/40,64,54.93
390,G5,66.75,0.25,58,54.93
391,F#5,67.0,11/40,64,54.93
392,G3,67.0,2.0,34,54.93
393,E5,67.25,11/40,54,54.93
394,E-5,67.5,11/40,59,54.93
395,E5,67.75,0.25,53,54.93
396,D5,68.0,11/40,62,54.93
397,E3,68.0,1.0,34,54.93
398,C5,68.25,11/40,53,54.93
399,B4,68.5,11/40,56,54.93
400,C5,68.75,0.25,53,54.93
401,B4,69.0,0.75,59,54.93
402,D3,69.0,2.0,36,54.93
403,G3,69.0,1.0,36,54.93
404,C5,69.75,0.125,50,54.93
405,B4,69.875,0.125,50,54.93
406,A4,70.0,0.5,57,54.93
407,F#3,70.0,1.0,28,54.93
408,D5,70.5,521/1000,54,54.93
409,C#5,71.0,521/1000,52,54.93
410,C5,71.5,0.5,50,54.93
411,B4,72.0,1.25,50,54.93
412,G3,72.0,0.25,40,54.93
413,D4,72.25,0.25,25,54.93
414,B3,72.5,0.25,31,54.93
415,D4,72.75,0.25,26,54.93
416,G3,73.0,0.25,40,54.93
417,G4,73.25,0.25,46,54.93
418,D4,73.25,0.25,27,54.93
419,B4,73.485,0.25,48,54.93
420,B3,73.5,0.25,31,54.93
421,D5,73.735,0.25,46,54.93
422,D4,73.75,0.25,26,54.93
423,C5,74.0,0.25,54,54.93
424,A3,74.0,0.25,40,54.93
425,A4,74.25,0.25,46,54.93
426,D4,74.25,0.25,31,54.93
427,C5,74.5,0.25,54,54.93
428,C4,74.5,0.25,36,54.93
429,E5,74.75,0.25,51,54.93
430,D4,74.75,0.25,30,54.93
431,D5,75.0,0.75,58,54.93
432,G3,75.0,0.25,40,54.93
433,D4,75.25,0.25,28,54.93
434,B3,75.5,0.25,32,54.93
435,B4,75.75,0.25,47,54.93
436,D4,75.75,0.25,28,54.93
437,G4,76.0,0.125,47,54.93
438,G3,76.0,0.25,40,54.93
439,G4,76.25,0.125,46,54.93
440,D4,76.25,0.25,33,54.93
441,A4,76.5,0.125,47,54.93
442,B3,76.5,0.25,37,54.93
443,B4,76.75,0.125,48,54.93
444,D4,76.75,0.25,30,54.93
445,C5,77.0,0.125,49,54.93
446,G3,77.0,0.25,47,54.93
447,D5,77.25,0.125,50,54.93
448,D4,77.25,0.25,38,54.93
449,E5,77.5,0.125,51,54.93
450,B3,77.5,0.25,44,54.93
451,F#5,77.75,0.125,53,54.93
452,D4,77.75,0.25,42,54.93
453,G5,78.0,3/10,57,54.93
454,G3,78.0,0.25,43,54.93
455,F#5,78.25,3/10,50,54.93
456,E4,78.25,0.25,34,54.93
457,G5,78.5,3/10,56,54.93
458,C4,78.5,0.25,38,54.93
459,F#5,78.75,3/10,52,54.93
460,E4,78.75,0.25,34,54.93
461,A5,79.0,3/10,59,54.93
462,G3,79.0,0.25,44,54.93
463,G5,79.25,3/10,57,54.93
464,E4,79.25,0.25,34,54.93
465,F#5,79.5,3/10,54,54.93
466,C4,79.5,0.25,39,54.93
467,G5,79.75,3/10,49,54.93
468,E4,79.75,0.25,34,54.93
469,F#5,80.0,3/10,52,54.93
470,G3,80.0,0.25,40,54.93
471,E5,80.25,3/10,50,54.93
472,C#4,80.25,0.25,26,54.93
473,D5,80.5,3/10,48,54.93
474,B-3,80.5,0.25,34,54.93
475,C#5,80.75,0.25,46,54.93
476,C#4,80.75,0.25,27,54.93
477,D5,81.0,0.25,50,54.93
478,C#5,81.0,1/20,46,54.93
479,G3,81.0,0.25,40,54.93
480,B4,81.25,0.25,43,54.93
481,D4,81.25,0.25,24,54.93
482,D5,81.5,0.25,47,54.93
483,B3,81.5,0.25,31,54.93
484,B4,81.75,0.25,43,54.93
485,D4,81.75,0.25,27,54.93
486,G4,82.0,1.0,47,54.93
487,G3,82.0,0.25,40,54.93
488,D4,82.25,0.25,26,54.93
489,B3,82.5,0.25,33,54.93
490,D4,82.75,0.25,27,54.93
491,G3,83.0,0.25,41,54.93
492,D4,83.25,0.25,30,54.93
493,B3,83.5,0.25,33,54.93
494,D4,83.75,0.25,29,54.93
495,C5,84.0,0.25,50,54.93
496,A3,84.0,0.25,40,54.93
497,A4,84.25,0.25,46,54.93
498,D4,84.25,0.25,27,54.93
499,C5,84.5,0.25,46,54.93
500,C4,84.5,0.25,32,54.93
501,A4,84.75,0.25,43,54.93
502,D4,84.75,0.25,27,54.93
503,F#4,85.0,0.125,50,54.93
504,A3,85.0,0.25,40,54.93
505,A4,85.25,0.25,46,54.93
506,D4,85.25,0.25,30,54.93
507,G#4,85.5,0.25,49,54.93
508,C4,85.5,0.25,33,54.93
509,A4,85.75,0.25,51,54.93
510,D4,85.75,0.25,28,54.93
511,B-4,86.0,0.25,54,54.93
512,A3,86.0,0.25,40,54.93
513,B4,86.25,0.25,51,54.93
514,D4,86.25,0.25,31,54.93
515,C5,86.5,0.25,54,54.93
516,C4,86.5,0.25,38,54.93
517,C#5,86.75,0.25,56,54.93
518,D4,86.75,0.25,33,54.93
519,D5,87.0,0.25,59,54.93
520,G3,87.0,0.25,40,54.93
521,B4,87.25,0.25,51,54.93
522,D4,87.25,0.25,38,54.93
523,D5,87.5,0.25,54,54.93
524,B3,87.5,0.25,42,54.93
525,B4,87.75,0.25,51,54.93
526,D4,87.75,0.25,35,54.93
527,G5,88.0,1.0,63,54.93
528,E3,88.0,0.25,51,54.93
529,B3,88.25,0.25,46,54.93
530,G3,88.5,0.25,50,54.93
531,B3,88.75,0.25,47,54.93
532,B2,89.0,0.25,54,54.93
533,B5,89.25,3/10,67,54.93
534,G3,89.25,0.25,42,54.93
535,F#5,89.5,3/10,62,54.93
536,D3,89.5,0.25,47,54.93
537,G5,89.75,0.25,56,54.93
538,G3,89.75,0.25,34,54.93
539,E-5,90.0,3/10,58,54.93
540,C3,90.0,0.25,40,54.93
541,E5,90.25,3/10,49,54.93
542,A3,90.25,0.25,26,54.93
543,C5,90.5,3/10,53,54.93
544,E3,90.5,0.25,33,54.93
545,A4,90.75,0.25,46,54.93
546,A3,90.75,0.25,29,54.93
547,G4,91.0,0.75,53,54.93
548,D3,91.0,0.25,39,54.93
549,B3,91.25,0.25,27,54.93
550,G3,91.5,0.25,33,54.93
551,G4,91.75,0.25,44,54.93
552,B3,91.75,0.25,28,54.93
553,F#4,92.0,1.0,47,54.93
554,B4,92.0,3/10,55,54.93
555,D3,92.0,0.25,39,54.93
556,A4,92.25,3/10,44,54.93
557,C4,92.25,0.25,27,54.93
558,G4,92.5,3/10,49,54.93
559,A3,92.5,0.25,32,54.93
560,A4,92.75,47/200,42,54.93
561,C4,92.75,47/200,27,54.93
562,G3,93.0,2.0,27,54.93
563,C4,93.0,1.0,36,54.93
564,A4,93.0,1.0,48,54.93
565,F#4,93.0,1.0,48,54.93
566,G4,94.0,1.0,48,54.93
567,B3,94.0,1.0,28,54.93
568,D5,96.0,1.25,50,54.93
569,D4,96.0,0.25,40,54.93
570,A4,96.25,0.25,25,54.93
571,F#4,96.5,0.25,31,54.93
572,A4,96.75,0.25,26,54.93
573,D4,97.0,0.25,40,54.93
574,C#5,97.25,3/10,46,54.93
575,A4,97.25,0.25,27,54.93
576,E5,97.5,3/10,49,54.93
577,F#4,97.5,0.25,31,54.93
578,D5,97.75,3/10,46,54.93
579,A4,97.763,0.25,26,54.93
580,G5,98.0,3/10,52,54.93
581,D4,98.0,0.25,40,54.93
582,F#5,98.25,3/10,46,54.93
583,A4,98.25,0.25,26,54.93
584,E5,98.5,3/10,49,54.93
585,F#4,98.5,0.25,32,54.93
586,D5,98.75,0.25,46,54.93
587,A4,98.75,0.25,27,54.93
588,C#5,99.0,0.75,50,54.93
589,D5,99.0,1/20,46,54.93
590,E4,99.0,0.25,40,54.93
591,A4,99.25,0.25,28,54.93
592,G4,99.5,0.25,32,54.93
593,D5,99.75,0.25,49,54.93
594,A4,99.75,0.25,28,54.93
595,E5,100.0,1.0,53,54.93
596,E4,100.0,0.25,36,54.93
597,A4,100.25,0.25,28,54.93
598,G4,100.5,0.25,37,54.93
599,A4,100.75,0.25,29,54.93
600,E4,101.0,0.25,41,54.93
601,A4,101.25,0.25,36,54.93
602,G4,101.5,0.25,38,54.93
603,A4,101.75,0.25,29,54.93
604,E5,102.0,1.25,54,54.93
605,C#4,102.0,0.25,42,54.93
606,A4,102.25,0.25,26,54.93
607,G4,102.5,0.25,32,54.93
608,A4,102.75,0.25,27,54.93
609,C#4,103.0,0.25,42,54.93
610,E-5,103.25,3/10,46,54.93
611,A4,103.25,0.25,28,54.93
612,F#5,103.5,3/10,50,54.93
613,G4,103.5,0.25,32,54.93
614,E5,103.75,3/10,46,54.93
615,A4,103.763,0.25,27,54.93
616,A5,104.0,3/10,54,54.93
617,C#4,104.0,0.25,42,54.93
618,G5,104.25,3/10,46,54.93
619,A4,104.25,0.25,27,54.93
620,F#5,104.5,3/10,49,54.93
621,G4,104.5,0.25,33,54.93
622,E5,104.75,0.25,49,54.93
623,A4,104.75,0.25,28,54.93
624,D5,105.0,0.75,54,54.93
625,E5,105.0,1/20,49,54.93
626,D4,105.0,0.25,42,54.93
627,A4,105.25,0.25,29,54.93
628,F#4,105.5,0.25,33,54.93
629,E5,105.75,0.25,52,54.93
630,A4,105.75,0.25,29,54.93
631,F#5,106.0,1.0,57,54.93
632,C#4,106.0,0.25,46,54.93
633,A4,106.25,0.25,36,54.93
634,D4,106.5,0.25,42,54.93
635,A4,106.75,0.25,38,54.93
636,B3,107.0,0.25,46,54.93
637,G4,107.25,0.25,44,54.93
638,D4,107.5,0.25,49,54.93
639,G4,107.75,0.25,45,54.93
640,F#5,108.0,1.25,70,54.93
641,A3,108.0,0.25,51,54.93
642,F#4,108.25,0.25,44,54.93
643,D4,108.5,0.25,47,54.93
644,F#4,108.75,0.25,40,54.93
645,G3,109.0,0.25,50,54.93
646,E5,109.25,3/10,57,54.93
647,E4,109.25,0.25,41,54.93
648,G5,109.5,3/10,61,54.93
649,C#4,109.5,0.25,49,54.93
650,F#5,109.75,3/10,55,54.93
651,E4,109.75,0.25,41,54.93
652,B5,110.0,3/10,65,54.93
653,F#3,110.0,0.25,46,54.93
654,A5,110.25,3/10,53,54.93
655,D4,110.25,0.25,33,54.93
656,G5,110.5,3/10,59,54.93
657,B3,110.5,0.25,42,54.93
658,F#5,110.75,0.25,53,54.93
659,D4,110.75,0.25,34,54.93
660,E5,111.0,1.25,64,54.93
661,F#5,111.0,1/20,53,54.93
662,B3,111.0,0.25,46,54.93
663,G4,111.25,0.25,33,54.93
664,E4,111.5,0.25,41,54.93
665,G4,111.75,0.25,32,54.93
666,A3,112.0,0.25,40,54.93
667,E-5,112.25,3/10,55,54.93
668,F#4,112.25,0.25,30,54.93
669,F#5,112.5,3/10,60,54.93
670,E-4,112.5,0.25,40,54.93
671,E5,112.75,3/10,52,54.93
672,F#4,112.75,0.25,30,54.93
673,A5,113.0,3/10,62,54.93
674,G3,113.0,0.25,42,54.93
675,G5,113.25,3/10,51,54.93
676,E4,113.25,0.25,29,54.93
677,F#5,113.5,3/10,59,54.93
678,C4,113.5,0.25,35,54.93
679,E5,113.75,6/25,53,54.93
680,E4,113.75,0.25,30,54.93
681,E5,114.0,0.25,63,54.93
682,A3,114.0,0.25,40,54.93
683,D5,114.25,0.25,49,54.93
684,F#4,114.25,0.25,26,54.93
685,D5,114.5,0.75,55,54.93
686,D4,114.5,0.25,33,54.93
687,F#4,114.75,0.25,29,54.93
688,A3,115.0,0.25,39,54.93
689,A4,115.25,0.25,44,54.93
690,F#4,115.25,0.25,29,54.93
691,D5,115.5,0.25,46,54.93
692,D4,115.5,0.25,37,54.93
693,F#5,115.75,0.25,43,54.93
694,F#4,115.75,0.25,29,54.93
695,C#5,116.0,1.0,49,54.93
696,F#5,116.0,3/10,58,54.93
697,A3,116.0,0.25,39,54.93
698,E5,116.25,3/10,44,54.93
699,G4,116.25,0.25,30,54.93
700,D5,116.5,3/10,53,54.93
701,E4,116.5,0.25,36,54.93
702,E5,116.75,6/25,45,54.93
703,G4,116.75,6/25,29,54.93
704,D4,117.0,2.0,34,54.93
705,G4,117.0,1.0,40,54.93
706,C#5,117.0,1.0,56,54.93
707,E5,117.0,1.0,56,54.93
708,D5,118.0,0.188,53,54.93
709,F#4,118.0,1.0,28,54.93
710,E-5,118.25,11/40,43,54.93
711,E5,118.5,11/40,48,54.93
712,E-5,118.75,11/40,42,54.93
713,F#5,119.0,11/40,51,54.93
714,E5,119.25,11/40,48,54.93
715,D5,119.5,11/40,46,54.93
716,C5,119.75,0.25,44,54.93
717,B4,120.0,1.25,48,54.93
718,C5,120.0,1/40,44,54.93
719,G3,120.0,0.25,35,54.93
720,D4,120.25,0.25,23,54.93
721,B3,120.5,0.25,31,54.93
722,D4,120.75,0.25,23,54.93
723,G3,121.0,0.25,40,54.93
724,G4,121.25,0.25,44,54.93
725,D4,121.25,0.25,26,54.93
726,B4,121.5,0.25,44,54.93
727,B3,121.5,0.25,32,54.93
728,D5,121.735,0.25,44,54.93
729,D4,121.75,0.25,26,54.93
730,C5,122.0,0.25,50,54.93
731,A3,122.0,0.25,40,54.93
732,A4,122.25,0.25,44,54.93
733,D4,122.25,0.25,26,54.93
734,C5,122.5,0.25,44,54.93
735,C4,122.5,0.25,32,54.93
736,E5,122.75,0.25,44,54.93
737,D4,122.75,0.25,27,54.93
738,D5,123.0,0.75,50,54.93
739,G3,123.0,0.25,40,54.93
740,D4,123.25,0.25,28,54.93
741,B3,123.5,0.25,32,54.93
742,B4,123.75,0.25,47,54.93
743,D4,123.75,0.25,28,54.93
744,G4,124.0,0.125,47,54.93
745,G3,124.0,0.25,40,54.93
746,G4,124.25,0.125,46,54.93
747,D4,124.25,0.25,29,54.93
748,A4,124.5,0.125,47,54.93
749,B3,124.5,0.25,33,54.93
750,B4,124.75,0.125,48,54.93
751,D4,124.75,0.25,30,54.93
752,C5,125.0,0.125,48,54.93
753,G3,125.0,0.25,41,54.93
754,D5,125.25,0.125,51,54.93
755,D4,125.25,0.25,30,54.93
756,E5,125.5,0.125,52,54.93
757,B3,125.5,0.25,33,54.93
758,F#5,125.75,0.125,54,54.93
759,D4,125.75,0.25,29,54.93
760,G5,126.0,3/10,56,54.93
761,G3,126.0,0.25,43,54.93
762,F#5,126.25,3/10,50,54.93
763,E4,126.25,0.25,29,54.93
764,G5,126.5,3/10,56,54.93
765,C4,126.5,0.25,34,54.93
766,F#5,126.75,3/10,52,54.93
767,E4,126.75,0.25,30,54.93
768,A5,127.0,3/10,56,54.93
769,G3,127.0,0.25,44,54.93
770,G5,127.25,3/10,54,54.93
771,E4,127.25,0.25,34,54.93
772,F#5,127.5,3/10,53,54.93
773,C4,127.5,0.25,39,54.93
774,G5,127.75,3/10,49,54.93
775,E4,127.75,0.25,34,54.93
776,F#5,128.0,3/10,52,54.93
777,G3,128.0,0.25,40,54.93
778,E5,128.25,3/10,50,54.93
779,C#4,128.25,0.25,26,54.93
780,D5,128.5,3/10,48,54.93
781,B-3,128.5,0.25,34,54.93
782,C#5,128.75,0.25,46,54.93
783,C#4,128.75,0.25,27,54.93
784,D5,129.0,0.25,50,54.93
785,C#5,129.0,1/20,46,54.93
786,G3,129.0,0.25,40,54.93
787,B4,129.25,0.25,43,54.93
788,D4,129.25,0.25,24,54.93
789,D5,129.5,0.25,47,54.93
790,B3,129.5,0.25,31,54.93
791,B4,129.75,0.25,43,54.93
792,D4,129.75,0.25,27,54.93
793,G4,130.0,1.0,47,54.93
794,G3,130.0,0.25,40,54.93
795,D4,130.25,0.25,26,54.93
796,B3,130.5,0.25,33,54.93
797,D4,130.75,0.25,27,54.93
798,G3,131.0,0.25,41,54.93
799,D4,131.25,0.25,30,54.93
800,B3,131.5,0.25,33,54.93
801,D4,131.75,0.25,29,54.93
802,C5,132.0,0.25,50,54.93
803,A3,132.0,0.25,40,54.93
804,A4,132.25,0.25,46,54.93
805,D4,132.25,0.25,27,54.93
806,C5,132.5,0.25,46,54.93
807,C4,132.5,0.25,32,54.93
808,A4,132.75,0.25,43,54.93
809,D4,132.75,0.25,27,54.93
810,F#4,133.0,0.125,50,54.93
811,A3,133.0,0.25,40,54.93
812,A4,133.25,0.25,45,54.93
813,D4,133.25,0.25,30,54.93
814,G#4,133.5,0.25,47,54.93
815,C4,133.5,0.25,33,54.93
816,A4,133.75,0.25,49,54.93
817,D4,133.75,0.25,28,54.93
818,B-4,134.0,0.25,50,54.93
819,A3,134.0,0.25,40,54.93
820,B4,134.25,0.25,50,54.93
821,D4,134.25,0.25,26,54.93
822,C5,134.5,0.25,53,54.93
823,C4,134.5,0.25,34,54.93
824,C#5,134.75,0.25,55,54.93
825,D4,134.75,0.25,27,54.93
826,D5,135.0,0.25,58,54.93
827,G3,135.0,0.25,40,54.93
828,B4,135.25,0.25,51,54.93
829,D4,135.25,0.25,28,54.93
830,D5,135.5,0.25,54,54.93
831,B3,135.5,0.25,36,54.93
832,B4,135.75,0.25,51,54.93
833,D4,135.75,0.25,33,54.93
834,G5,136.0,1.0,61,54.93
835,E3,136.0,0.25,46,54.93
836,B3,136.25,0.25,42,54.93
837,G3,136.5,0.25,48,54.93
838,B3,136.75,0.25,44,54.93
839,B2,137.0,0.25,51,54.93
840,B5,137.25,3/10,62,54.93
841,G3,137.25,0.25,39,54.93
842,F#5,137.5,3/10,59,54.93
843,D3,137.5,0.25,47,54.93
844,G5,137.75,0.25,56,54.93
845,G3,137.75,0.25,34,54.93
846,E-5,138.0,3/10,58,54.93
847,C3,138.0,0.25,40,54.93
848,E5,138.25,3/10,49,54.93
849,A3,138.25,0.25,26,54.93
850,C5,138.5,3/10,53,54.93
851,E3,138.5,0.25,33,54.93
852,A4,138.75,3/10,46,54.93
853,A3,138.75,0.25,25,54.93
854,G4,139.0,0.75,53,54.93
855,D3,139.0,0.25,39,54.93
856,B3,139.25,0.25,27,54.93
857,G3,139.5,0.25,32,54.93
858,G4,139.75,0.25,44,54.93
859,B3,139.75,0.25,27,54.93
860,F#4,140.0,1.0,47,54.93
861,B4,140.0,3/10,55,54.93
862,D3,140.0,0.25,39,54.93
863,A4,140.25,3/10,44,54.93
864,C4,140.25,0.25,27,54.93
865,G4,140.5,3/10,49,54.93
866,A3,140.5,0.25,33,54.93
867,A4,140.75,6/25,42,54.93
868,C4,140.75,6/25,29,54.93
869,G3,141.0,2.0,27,54.93
870,C4,141.0,1.0,36,54.93
871,F#4,141.0,1.0,48,54.93
872,A4,141.0,1.0,48,54.93
873,G4,142.0,1.0,48,54.93
874,B3,142.0,1.0,28,54.93
875,D5,144.0,1.25,50,54.93
876,D4,144.0,0.25,40,54.93
877,A4,144.25,0.25,25,54.93
878,F#4,144.5,0.25,31,54.93
879,A4,144.75,0.25,26,54.93
880,D4,145.0,0.25,40,54.93
881,C#5,145.25,3/10,46,54.93
882,A4,145.25,0.25,27,54.93
883,E5,145.5,3/10,49,54.93
884,F#4,145.5,0.25,31,54.93
885,D5,145.75,3/10,46,54.93
886,A4,145.762,0.25,26,54.93
887,G5,146.0,3/10,52,54.93
888,D4,146.0,0.25,40,54.93
889,F#5,146.25,3/10,46,54.93
890,A4,146.25,0.25,26,54.93
891,E5,146.5,3/10,49,54.93
892,F#4,146.5,0.25,32,54.93
893,D5,146.75,0.25,46,54.93
894,A4,146.75,0.25,27,54.93
895,C#5,147.0,0.75,50,54.93
896,D5,147.0,1/20,46,54.93
897,E4,147.0,0.25,40,54.93
898,A4,147.25,0.25,28,54.93
899,G4,147.5,0.25,32,54.93
900,D5,147.75,0.25,49,54.93
901,A4,147.75,0.25,28,54.93
902,E5,148.0,1.0,53,54.93
903,E4,148.0,0.25,36,54.93
904,A4,148.25,0.25,28,54.93
905,G4,148.5,0.25,37,54.93
906,A4,148.75,0.25,29,54.93
907,E4,149.0,0.25,41,54.93
908,A4,149.25,0.25,36,54.93
909,G4,149.5,0.25,38,54.93
910,A4,149.75,0.25,29,54.93
911,E5,150.0,1.25,54,54.93
912,C#4,150.0,0.25,42,54.93
913,A4,150.25,0.25,26,54.93
914,G4,150.5,0.25,32,54.93
915,A4,150.75,0.25,27,54.93
916,C#4,151.0,0.25,42,54.93
917,E-5,151.25,3/10,46,54.93
918,A4,151.25,0.25,28,54.93
919,F#5,151.5,3/10,50,54.93
920,G4,151.5,0.25,32,54.93
921,E5,151.75,3/10,46,54.93
922,A4,151.762,0.25,27,54.93
923,A5,152.0,3/10,54,54.93
924,C#4,152.0,0.25,42,54.93
925,G5,152.25,3/10,46,54.93
926,A4,152.25,0.25,27,54.93
927,F#5,152.5,3/10,49,54.93
928,G4,152.5,0.25,33,54.93
929,E5,152.75,0.25,49,54.93
930,A4,152.75,0.25,28,54.93
931,D5,153.0,0.75,54,54.93
932,E5,153.0,1/20,49,54.93
933,D4,153.0,0.25,42,54.93
934,A4,153.25,0.25,29,54.93
935,F#4,153.5,0.25,33,54.93
936,E5,153.75,0.25,52,54.93
937,A4,153.75,0.25,29,54.93
938,F#5,154.0,1.0,57,54.93
939,C#4,154.0,0.25,46,54.93
940,A4,154.25,0.25,36,54.93
941,D4,154.5,0.25,42,54.93
942,A4,154.75,0.25,38,54.93
943,B3,155.0,0.25,46,54.93
944,G4,155.25,0.25,44,54.93
945,D4,155.5,0.25,49,54.93
946,G4,155.75,0.25,45,54.93
947,F#5,156.0,1.25,70,54.93
948,A3,156.0,0.25,51,54.93
949,F#4,156.25,0.25,44,54.93
950,D4,156.5,0.25,47,54.93
951,F#4,156.75,0.25,40,54.93
952,G3,157.0,0.25,50,54.93
953,E5,157.25,3/10,57,54.93
954,E4,157.25,0.25,41,54.93
955,G5,157.5,3/10,61,54.93
956,C#4,157.5,0.25,49,54.93
957,F#5,157.75,3/10,55,54.93
958,E4,157.75,0.25,41,54.93
959,B5,158.0,3/10,65,54.93
960,F#3,158.0,0.25,46,54.93
961,A5,158.25,3/10,53,54.93
962,D4,158.25,0.25,33,54.93
963,G5,158.5,3/10,59,54.93
964,B3,158.5,0.25,42,54.93
965,F#5,158.75,0.25,53,54.93
966,D4,158.75,0.25,34,54.93
967,E5,159.0,1.25,64,54.93
968,F#5,159.0,1/20,53,54.93
969,B3,159.0,0.25,46,54.93
970,G4,159.25,0.25,33,54.93
971,E4,159.5,0.25,41,54.93
972,G4,159.75,0.25,32,54.93
973,A3,160.0,0.25,40,54.93
974,E-5,160.25,3/10,55,54.93
975,F#4,160.25,0.25,30,54.93
976,F#5,160.5,3/10,60,54.93
977,E-4,160.5,0.25,40,54.93
978,E5,160.75,3/10,52,54.93
979,F#4,160.75,0.25,30,54.93
980,A5,161.0,3/10,62,54.93
981,G3,161.0,0.25,42,54.93
982,G5,161.25,3/10,51,54.93
983,E4,161.25,0.25,29,54.93
984,F#5,161.5,3/10,59,54.93
985,C4,161.5,0.25,35,54.93
986,E5,161.75,6/25,53,54.93
987,E4,161.75,0.25,30,54.93
988,E5,162.0,0.25,63,54.93
989,A3,162.0,0.25,40,54.93
990,D5,162.25,0.25,49,54.93
991,F#4,162.25,0.25,26,54.93
992,D5,162.5,0.75,55,54.93
993,D4,162.5,0.25,33,54.93
994,F#4,162.75,0.25,29,54.93
995,A3,163.0,0.25,39,54.93
996,A4,163.25,0.25,44,54.93
997,F#4,163.25,0.25,29,54.93
998,D5,163.5,0.25,46,54.93
999,D4,163.5,0.25,37,54.93
1000,F#5,163.75,0.25,43,54.93
1001,F#4,163.75,0.25,29,54.93
1002,C#5,164.0,1.0,49,54.93
1003,F#5,164.0,3/10,58,54.93
1004,A3,164.0,0.25,39,54.93
1005,E5,164.25,3/10,44,54.93
1006,G4,164.25,0.25,30,54.93
1007,D5,164.5,3/10,53,54.93
1008,E4,164.5,0.25,36,54.93
1009,E5,164.75,6/25,45,54.93
1010,G4,164.75,6/25,29,54.93
1011,G4,165.0,1.0,40,54.93
1012,D4,165.0,2.0,34,54.93
1013,C#5,165.0,1.0,56,54.93
1014,E5,165.0,1.0,56,54.93
1015,D5,166.0,0.188,53,54.93
1016,F#4,166.0,1.0,28,54.93
1017,E-5,166.25,11/40,43,54.93
1018,E5,166.5,11/40,48,54.93
1019,E-5,166.75,11/40,42,54.93
1020,F#5,167.0,11/40,51,54.93
1021,E5,167.25,11/40,48,54.93
1022,D5,167.5,11/40,46,54.93
1023,C5,167.75,0.25,44,54.93
1024,B4,168.0,1.25,48,54.93
1025,C5,168.0,1/40,44,54.93
1026,G3,168.0,0.25,35,54.93
1027,D4,168.25,0.25,23,54.93
1028,B3,168.5,0.25,31,54.93
1029,D4,168.75,0.25,23,54.93
1030,G3,169.0,0.25,40,54.93
1031,G4,169.25,0.25,44,54.93
1032,D4,169.25,0.25,26,54.93
1033,B4,169.5,0.25,44,54.93
1034,B3,169.5,0.25,32,54.93
1035,D5,169.735,0.25,44,54.93
1036,D4,169.75,0.25,26,54.93
1037,C5,170.0,0.25,50,54.93
1038,A3,170.0,0.25,40,54.93
1039,A4,170.25,0.25,44,54.93
1040,D4,170.25,0.25,26,54.93
1041,C5,170.5,0.25,44,54.93
1042,C4,170.5,0.25,32,54.93
1043,E5,170.75,0.25,44,54.93
1044,D4,170.75,0.25,27,54.93
1045,D5,171.0,0.75,50,54.93
1046,G3,171.0,0.25,40,54.93
1047,D4,171.25,0.25,28,54.93
1048,B3,171.5,0.25,32,54.93
1049,B4,171.75,0.25,47,54.93
1050,D4,171.75,0.25,28,54.93
1051,G4,172.0,0.125,47,54.93
1052,G3,172.0,0.25,40,54.93
1053,G4,172.25,0.125,46,54.93
1054,D4,172.25,0.25,29,54.93
1055,A4,172.5,0.125,47,54.93
1056,B3,172.5,0.25,33,54.93
1057,B4,172.75,0.125,48,54.93
1058,D4,172.75,0.25,30,54.93
1059,C5,173.0,0.125,48,54.93
1060,G3,173.0,0.25,41,54.93
1061,D5,173.25,0.125,51,54.93
1062,D4,173.25,0.25,30,54.93
1063,E5,173.5,0.125,52,54.93
1064,B3,173.5,0.25,33,54.93
1065,F#5,173.75,0.125,54,54.93
1066,D4,173.75,0.25,29,54.93
1067,G5,174.0,3/10,56,54.93
1068,G3,174.0,0.25,43,54.93
1069,F#5,174.25,3/10,50,54.93
1070,E4,174.25,0.25,29,54.93
1071,G5,174.5,3/10,56,54.93
1072,C4,174.5,0.25,34,54.93
1073,F#5,174.75,3/10,52,54.93
1074,E4,174.75,0.25,30,54.93
1075,A5,175.0,3/10,56,54.93
1076,G3,175.0,0.25,44,54.93
1077,G5,175.25,3/10,54,54.93
1078,E4,175.25,0.25,34,54.93
1079,F#5,175.5,3/10,53,54.93
1080,C4,175.5,0.25,39,54.93
1081,G5,175.75,3/10,49,54.93
1082,E4,175.75,0.25,34,54.93
1083,F#5,176.0,3/10,52,54.93
1084,G3,176.0,0.25,40,54.93
1085,E5,176.25,3/10,50,54.93
1086,C#4,176.25,0.25,26,54.93
1087,D5,176.5,3/10,48,54.93
1088,B-3,176.5,0.25,34,54.93
1089,C#5,176.75,0.25,46,54.93
1090,C#4,176.75,0.25,27,54.93
1091,D5,177.0,0.25,50,54.93
1092,C#5,177.0,1/20,46,54.93
1093,G3,177.0,0.25,40,54.93
1094,B4,177.25,0.25,43,54.93
1095,D4,177.25,0.25,24,54.93
1096,D5,177.5,0.25,47,54.93
1097,B3,177.5,0.25,31,54.93
1098,B4,177.75,0.25,43,54.93
1099,D4,177.75,0.25,27,54.93
1100,G4,178.0,1.0,47,54.93
1101,G3,178.0,0.25,40,54.93
1102,D4,178.25,0.25,26,54.93
1103,B3,178.5,0.25,33,54.93
1104,D4,178.75,0.25,27,54.93
1105,G3,179.0,0.25,41,54.93
1106,D4,179.25,0.25,30,54.93
1107,B3,179.5,0.25,33,54.93
1108,D4,179.75,0.25,29,54.93
1109,C5,180.0,0.25,50,54.93
1110,A3,180.0,0.25,40,54.93
1111,A4,180.25,0.25,46,54.93
1112,D4,180.25,0.25,27,54.93
1113,C5,180.5,0.25,46,54.93
1114,C4,180.5,0.25,32,54.93
1115,A4,180.75,0.25,43,54.93
1116,D4,180.75,0.25,27,54.93
1117,F#4,181.0,0.125,50,54.93
1118,A3,181.0,0.25,40,54.93
1119,A4,181.25,0.25,45,54.93
1120,D4,181.25,0.25,30,54.93
1121,G#4,181.5,0.25,47,54.93
1122,C4,181.5,0.25,33,54.93
1123,A4,181.75,0.25,49,54.93
1124,D4,181.75,0.25,28,54.93
1125,B-4,182.0,0.25,50,54.93
1126,A3,182.0,0.25,40,54.93
1127,B4,182.25,0.25,50,54.93
1128,D4,182.25,0.25,26,54.93
1129,C5,182.5,0.25,53,54.93
1130,C4,182.5,0.25,34,54.93
1131,C#5,182.75,0.25,55,54.93
1132,D4,182.75,0.25,27,54.93
1133,D5,183.0,0.25,58,54.93
1134,G3,183.0,0.25,40,54.93
1135,B4,183.25,0.25,51,54.93
1136,D4,183.25,0.25,28,54.93
1137,D5,183.5,0.25,54,54.93
1138,B3,183.5,0.25,36,54.93
1139,B4,183.75,0.25,51,54.93
1140,D4,183.75,0.25,33,54.93
1141,G5,184.0,1.0,61,54.93
1142,E3,184.0,0.25,46,54.93
1143,B3,184.25,0.25,42,54.93
1144,G3,184.5,0.25,48,54.93
1145,B3,184.75,0.25,44,54.93
1146,B2,185.0,0.25,51,54.93
1147,B5,185.25,3/10,62,54.93
1148,G3,185.25,0.25,39,54.93
1149,F#5,185.5,3/10,59,54.93
1150,D3,185.5,0.25,47,54.93
1151,G5,185.75,0.25,56,54.93
1152,G3,185.75,0.25,34,54.93
1153,E-5,186.0,3/10,58,54.93
1154,C3,186.0,0.25,40,54.93
1155,E5,186.25,3/10,49,54.93
1156,A3,186.25,0.25,26,54.93
1157,C5,186.5,3/10,53,54.93
1158,E3,186.5,0.25,33,54.93
1159,A4,186.75,3/10,46,54.93
1160,A3,186.75,0.25,25,54.93
1161,G4,187.0,0.75,53,54.93
1162,D3,187.0,0.25,39,54.93
1163,B3,187.25,0.25,27,54.93
1164,G3,187.5,0.25,32,54.93
1165,G4,187.75,0.25,44,54.93
1166,B3,187.75,0.25,27,54.93
1167,F#4,188.0,1.0,47,54.93
1168,B4,188.0,3/10,55,54.93
1169,D3,188.0,0.25,39,54.93
1170,A4,188.25,3/10,44,54.93
1171,C4,188.25,0.25,27,54.93
1172,G4,188.5,3/10,49,54.93
1173,A3,188.5,0.25,33,54.93
1174,A4,188.75,6/25,42,54.93
1175,C4,188.75,6/25,29,54.93
1176,G3,189.0,2.0,27,54.93
1177,C4,189.0,1.0,36,54.93
1178,F#4,189.0,1.0,48,54.93
1179,A4,189.0,1.0,48,54.93
1180,G4,190.0,1.0,48,54.93
1181,B3,190.0,1.0,28,54.93
1182,B-4,192.0,1.25,50,54.93
1183,G3,192.0,0.25,40,54.93
1184,D4,192.25,0.25,25,54.93
1185,B-3,192.5,0.25,31,54.93
1186,D4,192.75,0.25,26,54.93
1187,G3,193.0,0.25,40,54.93
1188,A4,193.25,3/10,46,54.93
1189,D4,193.25,0.25,27,54.93
1190,C5,193.5,3/10,46,54.93
1191,B-3,193.5,0.25,31,54.93
1192,B-4,193.75,6/25,46,54.93
1193,D4,193.75,0.25,26,54.93
1194,B-4,194.0,3/10,50,54.93
1195,A3,194.0,0.25,40,54.93
1196,A4,194.25,3/10,46,54.93
1197,D4,194.25,0.25,26,54.93
1198,G4,194.5,3/10,46,54.93
1199,C4,194.5,0.25,32,54.93
1200,F#4,194.75,0.25,46,54.93
1201,D4,194.75,0.25,27,54.93
1202,G4,195.0,0.75,50,54.93
1203,F#4,195.0,1/20,46,54.93
1204,G3,195.0,0.25,40,54.93
1205,D4,195.25,0.25,31,54.93
1206,B-3,195.5,0.25,35,54.93
1207,B-4,195.75,0.25,56,54.93
1208,D4,195.75,0.25,28,54.93
1209,D5,196.0,1.0,62,54.93
1210,G3,196.0,0.25,47,54.93
1211,D4,196.25,0.25,37,54.93
1212,B-3,196.5,0.25,41,54.93
1213,D4,196.75,0.25,39,54.93
1214,G3,197.0,0.25,51,54.93
1215,D4,197.25,0.25,43,54.93
1216,B-3,197.5,0.25,46,54.93
1217,D4,197.75,0.25,41,54.93
1218,D5,198.0,1.25,64,54.93
1219,F#3,198.0,0.25,47,54.93
1220,D4,198.25,0.25,31,54.93
1221,A3,198.5,0.25,40,54.93
1222,D4,198.75,0.25,33,54.93
1223,F#3,199.0,0.25,40,54.93
1224,C#5,199.25,3/10,57,54.93
1225,D4,199.25,0.25,31,54.93
1226,E-5,199.5,3/10,59,54.93
1227,A3,199.5,0.25,37,54.93
1228,D5,199.75,6/25,55,54.93
1229,D4,199.75,0.25,31,54.93
1230,D5,200.0,3/10,62,54.93
1231,D3,200.0,0.25,40,54.93
1232,C5,200.25,3/10,50,54.93
1233,D4,200.25,0.25,30,54.93
1234,B-4,200.5,3/10,60,54.93
1235,F#3,200.5,0.25,36,54.93
1236,A4,200.75,0.25,54,54.93
1237,D4,200.75,0.25,30,54.93
1238,B-4,201.0,0.75,64,54.93
1239,A4,201.0,1/20,54,54.93
1240,G3,201.0,0.25,40,54.93
1241,D4,201.25,0.25,35,54.93
1242,B-3,201.5,0.25,40,54.93
1243,D5,201.75,0.25,64,54.93
1244,D4,201.75,0.25,37,54.93
1245,G5,202.0,1.0,72,54.93
1246,G3,202.0,0.25,48,54.93
1247,D4,202.25,0.25,39,54.93
1248,B-3,202.5,0.25,47,54.93
1249,D4,202.75,0.25,35,54.93
1250,G3,203.0,0.25,55,54.93
1251,E-4,203.25,0.25,48,54.93
1252,B-3,203.5,0.25,50,54.93
1253,E-4,203.75,0.25,43,54.93
1254,F5,204.0,1.25,69,54.93
1255,A3,204.0,0.25,57,54.93
1256,F4,204.25,0.25,39,54.93
1257,C4,204.5,0.25,50,54.93
1258,F4,204.75,0.25,40,54.93
1259,A3,205.0,0.25,48,54.93
1260,A5,205.25,3/10,63,54.93
1261,F4,205.25,0.25,40,54.93
1262,C6,205.5,3/10,71,54.93
1263,C4,205.5,0.25,48,54.93
1264,B-5,205.75,3/10,64,54.93
1265,F4,205.75,0.25,39,54.93
1266,A5,206.0,3/10,67,54.93
1267,A3,206.0,0.25,48,54.93
1268,G5,206.25,3/10,53,54.93
1269,F4,206.25,0.25,36,54.93
1270,F5,206.5,3/10,65,54.93
1271,C4,206.5,0.25,42,54.93
1272,E-5,206.75,0.25,56,54.93
1273,F4,206.75,0.25,38,54.93
1274,D5,207.0,1.25,63,54.93
1275,E-5,207.0,1/20,56,54.93
1276,B-3,207.0,0.25,46,54.93
1277,F4,207.25,0.25,29,54.93
1278,D4,207.5,0.25,34,54.93
1279,F4,207.75,0.25,26,54.93
1280,G3,208.0,0.25,40,54.93
1281,G5,208.25,3/10,49,54.93
1282,D4,208.25,0.25,30,54.93
1283,B-5,208.5,3/10,54,54.93
1284,B-3,208.5,0.25,40,54.93
1285,A5,208.75,3/10,46,54.93
1286,D4,208.75,0.25,30,54.93
1287,G5,209.0,3/10,55,54.93
1288,D3,209.0,0.25,42,54.93
1289,F5,209.25,3/10,46,54.93
1290,B-3,209.25,0.25,29,54.93
1291,E-5,209.5,3/10,51,54.93
1292,F3,209.5,0.25,35,54.93
1293,D5,209.75,0.25,46,54.93
1294,B-3,209.75,0.25,30,54.93
1295,B-4,210.0,0.25,57,54.93
1296,D5,210.0,1/20,46,54.93
1297,E-3,210.0,0.25,37,54.93
1298,C5,210.25,0.25,49,54.93
1299,C4,210.25,0.25,26,54.93
1300,E-5,210.5,0.25,46,54.93
1301,G3,210.5,0.25,33,54.93
1302,G5,210.75,0.25,46,54.93
1303,C4,210.75,0.25,29,54.93
1304,B-4,211.0,0.75,53,54.93
1305,F3,211.0,0.25,39,54.93
1306,D4,211.25,0.25,26,54.93
1307,B-3,211.5,0.25,35,54.93
1308,B-4,211.75,0.25,46,54.93
1309,D4,211.75,0.25,28,54.93
1310,D5,212.0,3/10,53,54.93
1311,F3,212.0,0.25,39,54.93
1312,C5,212.25,3/10,44,54.93
1313,E-4,212.25,0.25,30,54.93
1314,B-4,212.5,3/10,52,54.93
1315,C4,212.5,0.25,36,54.93
1316,C5,212.75,6/25,45,54.93
1317,E-4,212.75,6/25,29,54.93
1318,B-3,213.0,2.0,34,54.93
1319,E-4,213.0,1.0,40,54.93
1320,A4,213.0,1.0,56,54.93
1321,C5,213.0,1.0,56,54.93
1322,B-4,214.0,11/40,53,54.93
1323,D4,214.0,1.0,28,54.93
1324,A4,214.25,11/40,43,54.93
1325,C5,214.5,11/40,48,54.93
1326,B-4,214.75,11/40,42,54.93
1327,D5,215.0,11/40,48,54.93
1328,C5,215.25,11/40,47,54.93
1329,E-5,215.5,11/40,50,54.93
1330,D5,215.75,0.25,53,54.93
1331,F5,216.0,1.25,68,54.93
1332,D5,216.0,1/40,53,54.93
1333,G#3,216.0,0.25,47,54.93
1334,F4,216.25,0.25,32,54.93
1335,C4,216.5,0.25,38,54.93
1336,F4,216.75,0.25,31,54.93
1337,G3,217.0,0.25,40,54.93
1338,G#5,217.25,3/10,56,54.93
1339,D4,217.25,0.25,32,54.93
1340,G5,217.5,3/10,62,54.93
1341,B3,217.5,0.25,37,54.93
1342,F5,217.75,3/10,57,54.93
1343,D4,217.75,0.25,31,54.93
1344,E-5,218.0,3/10,63,54.93
1345,F3,218.0,0.25,40,54.93
1346,D5,218.25,3/10,46,54.93
1347,D4,218.25,0.25,32,54.93
1348,C5,218.5,3/10,57,54.93
1349,G3,218.5,0.25,37,54.93
1350,B4,218.75,0.25,44,54.93
1351,D4,218.75,0.25,32,54.93
1352,C5,219.0,0.75,60,54.93
1353,B4,219.0,1/20,44,54.93
1354,E-3,219.0,0.25,40,54.93
1355,C4,219.25,0.25,33,54.93
1356,G3,219.5,0.25,40,54.93
1357,E-5,219.75,0.25,62,54.93
1358,C4,219.75,0.25,28,54.93
1359,G5,220.0,1.0,67,54.93
1360,D3,220.0,0.25,44,54.93
1361,B3,220.25,0.25,36,54.93
1362,F3,220.5,0.25,42,54.93
1363,B3,220.75,0.25,33,54.93
1364,C3,221.0,0.25,49,54.93
1365,C4,221.25,0.25,41,54.93
1366,E-3,221.5,0.25,49,54.93
1367,C4,221.75,0.25,43,54.93
1368,G5,222.0,1.25,74,54.93
1369,C#3,222.0,0.25,62,54.93
1370,B-3,222.25,0.25,45,54.93
1371,E3,222.5,0.25,53,54.93
1372,B-3,222.75,0.25,39,54.93
1373,D3,223.0,0.25,53,54.93
1374,F#5,223.25,3/10,64,54.93
1375,B-3,223.25,0.25,41,54.93
1376,A5,223.5,3/10,70,54.93
1377,G3,223.5,0.25,48,54.93
1378,G5,223.75,0.25,62,54.93
1379,B-3,223.75,0.25,41,54.93
1380,B-5,224.0,0.25,70,54.93
1381,E-3,224.0,0.25,50,54.93
1382,C#5,224.25,0.25,64,54.93
1383,B-3,224.25,0.25,33,54.93
1384,B-5,224.5,0.25,67,54.93
1385,G3,224.5,0.25,46,54.93
1386,C#5,224.75,6/25,50,54.93
1387,B-3,224.75,0.25,40,54.93
1388,C#5,225.0,1.0,65,54.93
1389,D3,225.0,0.25,51,54.93
1390,B-3,225.25,0.25,32,54.93
1391,G3,225.5,0.25,36,54.93
1392,B-3,225.75,0.25,32,54.93
1393,D5,226.0,1.0,65,54.93
1394,D3,226.0,0.25,48,54.93
1395,A3,226.25,0.25,39,54.93
1396,F#3,226.5,0.25,49,54.93
1397,A3,226.75,0.25,42,54.93
1398,D3,227.0,0.25,55,54.93
1399,A3,227.25,0.25,46,54.93
1400,F#3,227.5,0.25,53,54.93
1401,A3,227.75,0.25,46,54.93
1402,E-5,228.0,1.25,73,54.93
1403,C3,228.0,0.25,63,54.93
1404,A3,228.25,0.25,47,54.93
1405,F#3,228.5,0.25,55,54.93
1406,A3,228.75,0.25,49,54.93
1407,C3,229.0,0.25,58,54.93
1408,C5,229.25,0.25,65,54.93
1409,A3,229.25,0.25,44,54.93
1410,A5,229.5,0.25,74,54.93
1411,F#3,229.5,0.25,54,54.93
1412,F#5,229.75,0.25,71,54.93
1413,A3,229.75,0.25,47,54.93
1414,C6,230.0,0.25,76,54.93
1415,C3,230.0,0.25,59,54.93
1416,A5,230.25,0.25,73,54.93
1417,A3,230.25,0.25,43,54.93
1418,E-6,230.5,0.25,81,54.93
1419,F#3,230.5,0.25,50,54.93
1420,F#5,230.75,0.25,75,54.93
1421,A3,230.75,0.25,34,54.93
1422,D6,231.0,1.25,85,54.93
1423,B-2,231.0,0.25,57,54.93
1424,G3,231.25,0.25,44,54.93
1425,D3,231.5,0.25,50,54.93
1426,G3,231.75,0.25,42,54.93
1427,B-2,232.0,0.25,50,54.93
1428,A5,232.25,3/10,64,54.93
1429,G3,232.25,0.25,38,54.93
1430,B-5,232.5,3/10,70,54.93
1431,D3,232.5,0.25,46,54.93
1432,F#5,232.75,3/10,59,54.93
1433,G3,232.75,0.25,37,54.93
1434,G5,233.0,3/10,66,54.93
1435,B-2,233.0,0.25,42,54.93
1436,C#5,233.25,3/10,54,54.93
1437,G3,233.25,0.25,29,54.93
1438,D5,233.5,3/10,60,54.93
1439,D3,233.5,0.25,35,54.93
1440,B-4,233.75,6/25,46,54.93
1441,G3,233.75,0.25,30,54.93
1442,B-4,234.0,0.25,57,54.93
1443,C3,234.0,0.25,37,54.93
1444,A4,234.25,0.25,49,54.93
1445,A3,234.25,0.25,26,54.93
1446,C5,234.5,0.25,46,54.93
1447,E-3,234.5,0.25,33,54.93
1448,E-5,234.75,0.25,46,54.93
1449,A3,234.75,0.25,29,54.93
1450,G4,235.0,0.75,53,54.93
1451,D3,235.0,0.25,39,54.93
1452,B-3,235.25,0.25,29,54.93
1453,G3,235.5,0.25,37,54.93
1454,G4,235.75,0.25,46,54.93
1455,B-3,235.75,0.25,29,54.93
1456,B-4,236.0,3/10,53,54.93
1457,D3,236.0,0.25,39,54.93
1458,A4,236.25,3/10,44,54.93
1459,C4,236.25,0.25,30,54.93
1460,G4,236.5,3/10,52,54.93
1461,A3,236.5,0.25,36,54.93
1462,A4,236.75,6/25,45,54.93
1463,C4,236.75,6/25,29,54.93
1464,G3,237.0,2.0,34,54.93
1465,C4,237.0,1.0,40,54.93
1466,F#4,237.0,1.0,56,54.93
1467,A4,237.0,1.0,56,54.93
1468,G4,238.0,11/40,53,54.93
1469,B-3,238.0,1.0,28,54.93
1470,F#4,238.25,11/40,43,54.93
1471,G4,238.5,11/40,48,54.93
1472,G#4,238.75,11/40,42,54.93
1473,A4,239.0,11/40,48,54.93
1474,G#4,239.25,11/40,46,54.93
1475,A4,239.5,11/40,43,54.93
1476,B-4,239.75,0.25,41,54.93
1477,B4,240.0,2.0,48,54.93
1478,B-4,240.0,1/40,41,54.93
1479,G3,240.0,0.25,36,54.93
1480,D4,240.25,0.25,22,54.93
1481,B3,240.5,0.25,25,54.93
1482,D4,240.75,0.25,24,54.93
1483,G3,241.0,0.25,40,54.93
1484,D4,241.25,0.25,29,54.93
1485,B3,241.5,0.25,35,54.93
1486,D4,241.75,0.25,30,54.93
1487,D5,242.0,3/10,50,54.93
1488,A3,242.0,0.25,40,54.93
1489,C5,242.25,3/10,46,54.93
1490,D4,242.25,0.25,32,54.93
1491,B4,242.5,3/10,46,54.93
1492,C4,242.5,0.25,40,54.93
1493,C5,242.75,0.25,48,54.93
1494,D4,242.75,0.25,35,54.93
1495,D5,243.0,0.75,54,54.93
1496,C5,243.0,1/20,48,54.93
1497,G3,243.0,0.25,43,54.93
1498,D4,243.25,0.25,28,54.93
1499,B3,243.5,0.25,32,54.93
1500,B4,243.75,0.25,47,54.93
1501,D4,243.75,0.25,28,54.93
1502,G4,244.0,1.0,47,54.93
1503,G3,244.0,0.25,40,54.93
1504,D4,244.25,0.25,29,54.93
1505,B3,244.5,0.25,39,54.93
1506,D4,244.75,0.25,36,54.93
1507,G3,245.0,0.25,48,54.93
1508,D4,245.25,0.25,38,54.93
1509,B3,245.5,0.25,48,54.93
1510,D4,245.75,0.25,45,54.93
1511,G5,246.0,1.5,67,54.93
1512,G3,246.0,0.25,53,54.93
1513,E4,246.25,0.25,37,54.93
1514,C4,246.5,0.25,47,54.93
1515,E4,246.75,0.25,41,54.93
1516,G3,247.0,0.25,44,54.93
1517,E4,247.25,0.25,34,54.93
1518,A5,247.5,3/10,62,54.93
1519,C4,247.5,0.25,39,54.93
1520,G5,247.75,3/10,55,54.93
1521,E4,247.75,0.25,34,54.93
1522,F#5,248.0,3/10,57,54.93
1523,G3,248.0,0.25,40,54.93
1524,E5,248.25,3/10,46,54.93
1525,C#4,248.25,0.25,26,54.93
1526,D5,248.5,3/10,51,54.93
1527,B-3,248.5,0.25,34,54.93
1528,C#5,248.75,0.25,46,54.93
1529,C#4,248.75,0.25,27,54.93
1530,D5,249.0,0.75,53,54.93
1531,C#5,249.0,1/20,46,54.93
1532,G3,249.0,0.25,40,54.93
1533,D4,249.25,0.25,26,54.93
1534,B3,249.5,0.25,31,54.93
1535,B4,249.75,0.25,47,54.93
1536,D4,249.75,0.25,27,54.93
1537,G4,250.0,1.0,45,54.93
1538,G3,250.0,0.25,40,54.93
1539,D4,250.25,0.25,26,54.93
1540,B3,250.5,0.25,30,54.93
1541,D4,250.75,0.25,27,54.93
1542,G3,251.0,0.25,41,54.93
1543,D4,251.25,0.25,25,54.93
1544,B3,251.5,0.25,30,54.93
1545,D4,251.75,0.25,25,54.93
1546,C5,252.0,0.75,50,54.93
1547,A3,252.0,0.25,40,54.93
1548,D4,252.25,0.25,27,54.93
1549,C4,252.5,0.25,32,54.93
1550,A4,252.75,0.25,47,54.93
1551,D4,252.75,0.25,27,54.93
1552,F#4,253.0,0.25,52,54.93
1553,A3,253.0,0.25,40,54.93
1554,D4,253.25,0.25,30,54.93
1555,A4,253.5,0.25,47,54.93
1556,C4,253.5,0.25,33,54.93
1557,D4,253.75,0.25,28,54.93
1558,B4,254.0,0.25,51,54.93
1559,A3,254.0,0.25,44,54.93
1560,D4,254.25,0.25,33,54.93
1561,C5,254.5,0.25,52,54.93
1562,C4,254.5,0.25,40,54.93
1563,D4,254.75,0.25,33,54.93
1564,D5,255.0,0.75,57,54.93
1565,G3,255.0,0.25,46,54.93
1566,D4,255.25,0.25,33,54.93
1567,B3,255.5,0.25,40,54.93
1568,B4,255.75,0.25,61,54.93
1569,D4,255.75,0.25,37,54.93
1570,G5,256.0,1.0,65,54.93
1571,E3,256.0,0.25,46,54.93
1572,B3,256.25,0.25,38,54.93
1573,G3,256.5,0.25,42,54.93
1574,B3,256.75,0.25,38,54.93
1575,B2,257.0,0.25,53,54.93
1576,G3,257.25,0.25,44,54.93
1577,D3,257.5,0.25,48,54.93
1578,G3,257.75,0.25,39,54.93
1579,A5,258.0,11/40,68,54.93
1580,C3,258.0,2.0,49,54.93
1581,E3,258.0,1.0,58,54.93
1582,G5,258.25,11/40,59,54.93
1583,F#5,258.5,11/40,64,54.93
1584,G5,258.75,0.25,58,54.93
1585,F#5,259.0,11/40,64,54.93
1586,G3,259.0,2.0,34,54.93
1587,E5,259.25,11/40,54,54.93
1588,E-5,259.5,11/40,59,54.93
1589,E5,259.75,0.25,53,54.93
1590,D5,260.0,11/40,62,54.93
1591,E3,260.0,1.0,34,54.93
1592,C5,260.25,11/40,53,54.93
1593,B4,260.5,11/40,56,54.93
1594,C5,260.75,0.25,53,54.93
1595,B4,261.0,0.75,59,54.93
1596,D3,261.0,2.0,36,54.93
1597,G3,261.0,1.0,36,54.93
1598,C5,261.75,0.125,50,54.93
1599,B4,261.875,0.125,50,54.93
1600,A4,262.0,0.5,57,54.93
1601,F#3,262.0,1.0,28,54.93
1602,D5,262.5,521/1000,54,54.93
1603,C#5,263.0,521/1000,52,54.93
1604,C5,263.5,0.5,50,54.93
1605,B4,264.0,1.25,50,54.93
1606,G3,264.0,0.25,40,54.93
1607,D4,264.25,0.25,25,54.93
1608,B3,264.5,0.25,31,54.93
1609,D4,264.75,0.25,26,54.93
1610,G3,265.0,0.25,40,54.93
1611,G4,265.25,0.25,46,54.93
1612,D4,265.25,0.25,27,54.93
1613,B4,265.5,0.25,48,54.93
1614,B3,265.5,0.25,31,54.93
1615,D5,265.735,0.25,46,54.93
1616,D4,265.75,0.25,26,54.93
1617,C5,266.0,0.25,54,54.93
1618,A3,266.0,0.25,40,54.93
1619,A4,266.25,0.25,46,54.93
1620,D4,266.25,0.25,31,54.93
1621,C5,266.5,0.25,54,54.93
1622,C4,266.5,0.25,36,54.93
1623,E5,266.75,0.25,51,54.93
1624,D4,266.75,0.25,30,54.93
1625,D5,267.0,0.75,58,54.93
1626,G3,267.0,0.25,40,54.93
1627,D4,267.25,0.25,28,54.93
1628,B3,267.5,0.25,32,54.93
1629,B4,267.75,0.25,47,54.93
1630,D4,267.75,0.25,28,54.93
1631,G4,268.0,0.125,47,54.93
1632,G3,268.0,0.25,40,54.93
1633,G4,268.25,0.125,46,54.93
1634,D4,268.25,0.25,33,54.93
1635,A4,268.5,0.125,47,54.93
1636,B3,268.5,0.25,37,54.93
1637,B4,268.75,0.125,48,54.93
1638,D4,268.75,0.25,30,54.93
1639,C5,269.0,0.125,49,54.93
1640,G3,269.0,0.25,47,54.93
1641,D5,269.25,0.125,50,54.93
1642,D4,269.25,0.25,38,54.93
1643,E5,269.5,0.125,51,54.93
1644,B3,269.5,0.25,44,54.93
1645,F#5,269.75,0.125,53,54.93
1646,D4,269.75,0.25,42,54.93
1647,G5,270.0,3/10,57,54.93
1648,G3,270.0,0.25,43,54.93
1649,F#5,270.25,3/10,50,54.93
1650,E4,270.25,0.25,34,54.93
1651,G5,270.5,3/10,56,54.93
1652,C4,270.5,0.25,38,54.93
1653,F#5,270.75,3/10,52,54.93
1654,E4,270.75,0.25,34,54.93
1655,A5,271.0,3/10,59,54.93
1656,G3,271.0,0.25,44,54.93
1657,G5,271.25,3/10,57,54.93
1658,E4,271.25,0.25,34,54.93
1659,F#5,271.5,3/10,54,54.93
1660,C4,271.5,0.25,39,54.93
1661,G5,271.75,3/10,49,54.93
1662,E4,271.75,0.25,34,54.93
1663,F#5,272.0,3/10,52,54.93
1664,G3,272.0,0.25,40,54.93
1665,E5,272.25,3/10,50,54.93
1666,C#4,272.25,0.25,26,54.93
1667,D5,272.5,3/10,48,54.93
1668,B-3,272.5,0.25,34,54.93
1669,C#5,272.75,0.25,46,54.93
1670,C#4,272.75,0.25,27,54.93
1671,D5,273.0,0.25,50,54.93
1672,C#5,273.0,1/20,46,54.93
1673,G3,273.0,0.25,40,54.93
1674,B4,273.25,0.25,43,54.93
1675,D4,273.25,0.25,24,54.93
1676,D5,273.5,0.25,47,54.93
1677,B3,273.5,0.25,31,54.93
1678,B4,273.75,0.25,43,54.93
1679,D4,273.75,0.25,27,54.93
1680,G4,274.0,1.0,47,54.93
1681,G3,274.0,0.25,40,54.93
1682,D4,274.25,0.25,26,54.93
1683,B3,274.5,0.25,33,54.93
1684,D4,274.75,0.25,27,54.93
1685,G3,275.0,0.25,41,54.93
1686,D4,275.25,0.25,30,54.93
1687,B3,275.5,0.25,33,54.93
1688,D4,275.75,0.25,29,54.93
1689,C5,276.0,0.25,50,54.93
1690,A3,276.0,0.25,40,54.93
1691,A4,276.25,0.25,46,54.93
1692,D4,276.25,0.25,27,54.93
1693,C5,276.5,0.25,46,54.93
1694,C4,276.5,0.25,32,54.93
1695,A4,276.75,0.25,43,54.93
1696,D4,276.75,0.25,27,54.93
1697,F#4,277.0,0.125,50,54.93
1698,A3,277.0,0.25,40,54.93
1699,A4,277.25,0.25,46,54.93
1700,D4,277.25,0.25,30,54.93
1701,G#4,277.5,0.25,49,54.93
1702,C4,277.5,0.25,33,54.93
1703,A4,277.75,0.25,51,54.93
1704,D4,277.75,0.25,28,54.93
1705,B-4,278.0,0.25,54,54.93
1706,A3,278.0,0.25,40,54.93
1707,B4,278.25,0.25,51,54.93
1708,D4,278.25,0.25,31,54.93
1709,C5,278.5,0.25,54,54.93
1710,C4,278.5,0.25,38,54.93
1711,C#5,278.75,0.25,56,54.93
1712,D4,278.75,0.25,33,54.93
1713,D5,279.0,0.25,59,54.93
1714,G3,279.0,0.25,40,54.93
1715,B4,279.25,0.25,51,54.93
1716,D4,279.25,0.25,38,54.93
1717,D5,279.5,0.25,54,54.93
1718,B3,279.5,0.25,42,54.93
1719,B4,279.75,0.25,51,54.93
1720,D4,279.75,0.25,35,54.93
1721,G5,280.0,1.0,63,54.93
1722,E3,280.0,0.25,51,54.93
1723,B3,280.25,0.25,46,54.93
1724,G3,280.5,0.25,50,54.93
1725,B3,280.75,0.25,47,54.93
1726,B2,281.0,0.25,54,54.93
1727,B5,281.25,3/10,67,54.93
1728,G3,281.25,0.25,42,54.93
1729,F#5,281.5,3/10,62,54.93
1730,D3,281.5,0.25,47,54.93
1731,G5,281.75,0.25,56,54.93
1732,G3,281.75,0.25,34,54.93
1733,E-5,282.0,3/10,58,54.93
1734,C3,282.0,0.25,40,54.93
1735,E5,282.25,3/10,49,54.93
1736,A3,282.25,0.25,26,54.93
1737,C5,282.5,3/10,53,54.93
1738,E3,282.5,0.25,33,54.93
1739,A4,282.75,3/10,46,54.93
1740,A3,282.75,0.25,29,54.93
1741,G4,283.0,0.75,53,54.93
1742,D3,283.0,0.25,39,54.93
1743,B3,283.25,0.25,27,54.93
1744,G3,283.5,0.25,33,54.93
1745,G4,283.75,0.25,44,54.93
1746,B3,283.75,0.25,28,54.93
1747,F#4,284.0,1.0,47,54.93
1748,B4,284.0,3/10,55,54.93
1749,D3,284.0,0.25,39,54.93
1750,A4,284.25,3/10,44,54.93
1751,C4,284.25,0.25,27,54.93
1752,G4,284.5,3/10,49,54.93
1753,A3,284.5,0.25,32,54.93
1754,A4,284.75,0.25,42,54.93
1755,C4,284.75,0.25,27,54.93
1756,G4,285.0,0.25,49,54.93
1757,G3,285.0,1.0,32,54.93
1758,B3,285.0,1.0,32,54.93
1759,F#4,285.25,0.25,43,54.93
1760,A4,285.5,0.25,49,54.93
1761,G4,285.75,0.25,43,54.93
1762,B4,286.0,0.25,49,54.93
1763,A4,286.25,0.25,42,54.93
1764,C5,286.5,0.25,48,54.93
1765,B4,286.75,0.25,40,54.93
1766,D5,287.0,0.25,53,54.93
1767,C5,287.25,0.25,46,54.93
1768,E5,287.5,0.25,56,54.93
1769,D5,287.75,0.25,53,54.93
1770,F5,288.0,1.5,59,54.93
1771,A3,288.0,0.25,40,54.93
1772,F4,288.25,0.25,29,54.93
1773,C4,288.5,0.25,35,54.93
1774,F4,288.75,0.25,30,54.93
1775,A3,289.0,0.25,40,54.93
1776,F4,289.25,0.25,31,54.93
1777,G5,289.5,3/10,56,54.93
1778,C4,289.5,0.25,36,54.93
1779,A5,289.75,3/10,50,54.93
1780,F4,289.75,0.25,30,54.93
1781,G5,290.0,3/10,56,54.93
1782,B3,290.0,0.25,40,54.93
1783,F5,290.25,3/10,50,54.93
1784,G4,290.25,0.25,31,54.93
1785,E5,290.5,3/10,54,54.93
1786,D4,290.5,0.25,37,54.93
1787,D5,290.75,0.25,51,54.93
1788,G4,290.75,0.25,31,54.93
1789,E-5,291.0,1.0,60,54.93
1790,C4,291.0,0.25,40,54.93
1791,G4,291.25,0.25,26,54.93
1792,E4,291.5,0.25,32,54.93
1793,G4,291.75,0.25,27,54.93
1794,E5,292.0,1.0,55,54.93
1795,C4,292.0,0.25,36,54.93
1796,G4,292.25,0.25,27,54.93
1797,E4,292.5,0.25,32,54.93
1798,G4,292.75,0.25,29,54.93
1799,C4,293.0,0.25,37,54.93
1800,G5,293.25,3/10,61,54.93
1801,G4,293.25,0.25,28,54.93
1802,F#5,293.5,3/10,55,54.93
1803,E4,293.5,0.25,32,54.93
1804,E5,293.75,0.25,58,54.93
1805,G4,293.75,0.25,28,54.93
1806,D5,294.0,3/10,58,54.93
1807,E5,294.0,1/20,58,54.93
1808,B3,294.0,0.25,40,54.93
1809,B4,294.25,3/10,49,54.93
1810,D4,294.25,0.25,26,54.93
1811,A4,294.5,3/10,53,54.93
1812,C4,294.5,0.25,33,54.93
1813,E5,294.75,0.25,46,54.93
1814,E4,294.75,0.25,29,54.93
1815,G4,295.0,0.75,53,54.93
1816,D3,295.0,0.25,39,54.93
1817,B3,295.25,0.25,29,54.93
1818,G3,295.5,0.25,37,54.93
1819,G4,295.75,0.25,44,54.93
1820,B3,295.75,0.25,29,54.93
1821,F#4,296.0,1.0,47,54.93
1822,B4,296.0,3/10,55,54.93
1823,D3,296.0,0.25,39,54.93
1824,A4,296.25,3/10,44,54.93
1825,C4,296.25,0.25,30,54.93
1826,G4,296.5,3/10,49,54.93
1827,A3,296.5,0.25,36,54.93
1828,A4,296.75,0.25,42,54.93
1829,C4,296.75,0.25,29,54.93
1830,G4,297.0,0.25,49,54.93
1831,G3,297.0,1.0,32,54.93
1832,B3,297.0,1.0,32,54.93
1833,F#4,297.25,0.25,43,54.93
1834,A4,297.5,0.25,52,54.93
1835,G4,297.75,0.25,47,54.93
1836,B4,298.0,0.25,56,54.93
1837,A4,298.25,0.25,52,54.93
1838,C5,298.5,0.25,57,54.93
1839,B4,298.75,0.25,57,54.93
1840,D5,299.0,0.25,63,54.93
1841,C5,299.25,0.25,62,54.93
1842,E5,299.5,0.25,66,54.93
1843,D5,299.75,0.25,65,54.93
1844,F5,300.0,1.5,75,54.93
1845,A2,300.0,0.25,56,54.93
1846,F3,300.25,0.25,45,54.93
1847,C3,300.5,0.25,49,54.93
1848,F3,300.75,0.25,44,54.93
1849,B2,301.0,0.25,55,54.93
1850,G3,301.25,0.25,41,54.93
1851,G5,301.5,3/10,72,54.93
1852,D3,301.5,0.25,50,54.93
1853,A5,301.75,3/10,67,54.93
1854,G3,301.75,0.25,43,54.93
1855,G5,302.0,3/10,75,54.93
1856,G2,302.0,0.25,55,54.93
1857,F5,302.25,3/10,71,54.93
1858,G3,302.25,0.25,41,54.93
1859,E5,302.5,3/10,75,54.93
1860,B2,302.5,0.25,52,54.93
1861,D5,302.75,0.25,73,54.93
1862,G3,302.75,0.25,44,54.93
1863,E5,303.0,1.0,76,54.93
1864,C3,303.0,0.25,56,54.93
1865,G3,303.25,0.25,47,54.93
1866,E3,303.5,0.25,49,54.93
1867,G3,303.75,0.25,46,54.93
1868,F#5,304.0,1.0,74,54.93
1869,C3,304.0,0.25,60,54.93
1870,A3,304.25,0.25,48,54.93
1871,E-3,304.5,0.25,56,54.93
1872,A3,304.75,0.25,47,54.93
1873,G5,305.0,1.0,77,54.93
1874,C#3,305.0,0.25,61,54.93
1875,B-3,305.25,0.25,48,54.93
1876,E3,305.5,0.25,56,54.93
1877,B-3,305.75,0.25,47,54.93
1878,G4,306.0,1.5,65,54.93
1879,D3,306.0,0.25,40,54.93
1880,B3,306.25,0.25,26,54.93
1881,G3,306.5,0.25,33,54.93
1882,B3,306.75,0.25,29,54.93
1883,D3,307.0,0.25,39,54.93
1884,B3,307.25,0.25,29,54.93
1885,A4,307.5,0.125,44,54.93
1886,G3,307.5,0.25,37,54.93
1887,G4,307.625,0.125,44,54.93
1888,F#4,307.75,0.125,44,54.93
1889,B3,307.75,0.25,29,54.93
1890,G4,307.875,0.125,44,54.93
1891,F#4,308.0,1.0,47,54.93
1892,B4,308.0,0.5,55,54.93
1893,D3,308.0,0.25,39,54.93
1894,C4,308.25,0.25,30,54.93
1895,A4,308.5,0.5,49,54.93
1896,A3,308.5,0.25,36,54.93
1897,C4,308.75,0.25,29,54.93
1898,G4,309.0,0.25,49,54.93
1899,G3,309.0,1.0,33,54.93
1900,B3,309.0,1.0,33,54.93
1901,D4,309.25,0.25,40,54.93
1902,B4,309.5,83/1000,44,54.93
1903,B4,309.75,83/1000,44,54.93
1904,B4,310.0,0.25,49,54.93
1905,G4,310.25,0.25,41,54.93
1906,D5,310.5,83/1000,45,54.93
1907,D5,310.75,83/1000,45,54.93
1908,D5,311.0,0.25,49,54.93
1909,B4,311.25,0.25,42,54.93
1910,A4,311.5,0.25,45,54.93
1911,D3,311.5,0.5,33,54.93
1912,C4,311.5,0.5,33,54.93
1913,B4,311.75,0.25,40,54.93
1914,G4,312.0,0.25,49,54.93
1915,G3,312.0,1.0,33,54.93
1916,B3,312.0,1.0,33,54.93
1917,D4,312.25,0.25,40,54.93
1918,B4,312.5,83/1000,44,54.93
1919,B4,312.75,83/1000,44,54.93
1920,B4,313.0,0.25,49,54.93
1921,G4,313.25,0.25,41,54.93
1922,D5,313.5,83/1000,45,54.93
1923,D5,313.75,83/1000,45,54.93
1924,D5,314.0,0.25,49,54.93
1925,B4,314.25,0.25,42,54.93
1926,A4,314.5,0.25,45,54.93
1927,D3,314.5,0.5,33,54.93
1928,C4,314.5,0.5,33,54.93
1929,B4,314.75,0.25,40,54.93
1930,G4,315.0,0.5,45,54.93
1931,G3,315.0,0.5,33,54.93
1932,B3,315.0,0.5,33,54.93
1933,G2,316.0,0.5,30,54.93
1934,B3,316.0,0.5,38,54.93
1935,G4,316.0,0.5,38,54.93
