,note_name,start_time,duration,velocity,tempo
0,G4,0.0,1.0,38,42.38
1,B-4,0.0,1.0,38,42.38
2,E-2,0.0,1.0,30,42.38
3,E-3,0.0,1.0,30,42.38
4,E-4,1.0,0.5,36,42.38
5,G4,1.0,0.5,36,42.38
6,B-2,1.5,0.5,30,42.38
7,B-3,1.5,0.5,38,42.38
8,F4,1.5,0.5,38,42.38
9,E-3,2.0,1.0,36,42.38
10,G3,2.0,0.5,38,42.38
11,E-4,2.0,0.5,38,42.38
12,B-3,2.5,0.5,43,42.38
13,E-4,3.0,0.5,45,42.38
14,B-2,3.5,0.5,33,42.38
15,D4,3.5,0.5,38,42.38
16,F4,3.5,0.5,38,42.38
17,E-4,4.0,2.0,34,42.38
18,G4,4.0,0.5,47,42.38
19,E-3,4.0,0.5,36,42.38
20,G#4,4.5,0.5,61,42.38
21,C3,4.5,0.5,31,42.38
22,B-4,5.0,0.5,62,42.38
23,G2,5.0,0.5,36,42.38
24,C5,5.5,0.5,62,42.38
25,G#2,5.5,0.5,34,42.38
26,G4,6.0,0.75,57,42.38
27,E-4,6.0,1.0,40,42.38
28,B-2,6.0,1.5,36,42.38
29,G#4,6.75,0.25,48,42.38
30,D4,7.0,1.0,35,42.38
31,F4,7.0,271/1000,50,42.38
32,G4,7.25,271/1000,48,42.38
33,G#4,7.5,271/1000,49,42.38
34,A4,7.75,0.25,49,42.38
35,B-4,8.0,2.0,50,42.38
36,B-5,8.0,1.0,59,42.38
37,G4,8.0,1.0,36,42.38
38,G5,9.0,0.5,62,42.38
39,E-4,9.0,0.5,36,42.38
40,F5,9.5,0.5,58,42.38
41,B-3,9.5,0.5,34,42.38
42,G3,10.0,0.375,38,42.38
43,B-4,10.0,0.375,55,42.38
44,E-5,10.0,0.375,55,42.38
45,B-3,10.5,0.375,34,42.38
46,D5,10.5,0.375,50,42.38
47,F5,10.5,0.375,50,42.38
48,E-4,11.0,0.375,36,42.38
49,E-5,11.0,0.375,54,42.38
50,G5,11.0,0.375,54,42.38
51,C4,11.5,0.375,39,42.38
52,E-5,11.5,0.375,56,42.38
53,G#5,11.5,0.375,56,42.38
54,G3,12.0,0.5,42,42.38
55,B-5,12.0,0.5,58,42.38
56,E-5,12.0,0.5,58,42.38
57,B5,12.5,73/500,62,42.38
58,F4,12.5,0.5,33,42.38
59,G#3,12.5,0.5,33,42.38
60,C6,12.625,73/500,59,42.38
61,G#5,12.75,73/500,59,42.38
62,F5,12.875,0.125,57,42.38
63,E-5,13.0,0.5,64,42.38
64,B-3,13.0,1.0,35,42.38
65,G4,13.0,0.5,42,42.38
66,G5,13.5,73/500,60,42.38
67,G#4,13.5,0.5,33,42.38
68,F5,13.625,73/500,56,42.38
69,E5,13.75,73/500,56,42.38
70,F5,13.875,13/125,53,42.38
71,E-4,14.0,1.5,28,42.38
72,G#4,14.0,1.0,34,42.38
73,D5,14.0,1.0,56,42.38
74,F5,14.0,1.0,56,42.38
75,E-5,15.0,0.5,54,42.38
76,G4,15.0,0.5,32,42.38
77,G4,16.0,1.0,38,42.38
78,B-4,16.0,1.0,38,42.38
79,E-2,16.0,1.0,30,42.38
80,E-3,16.0,1.0,30,42.38
81,E-4,17.0,0.5,36,42.38
82,G4,17.0,0.5,36,42.38
83,B-2,17.5,0.5,30,42.38
84,B-3,17.5,0.5,38,42.38
85,F4,17.5,0.5,38,42.38
86,E-3,18.0,1.0,36,42.38
87,G3,18.0,0.5,38,42.38
88,E-4,18.0,0.5,38,42.38
89,B-3,18.5,0.5,43,42.38
90,E-4,19.0,0.5,45,42.38
91,B-2,19.5,0.5,33,42.38
92,D4,19.5,0.5,38,42.38
93,F4,19.5,0.5,38,42.38
94,E-4,20.0,2.0,34,42.38
95,G4,20.0,0.5,47,42.38
96,E-3,20.0,0.5,36,42.38
97,G#4,20.5,0.5,59,42.38
98,C3,20.5,0.5,31,42.38
99,B-4,21.0,0.5,62,42.38
100,G2,21.0,0.5,36,42.38
101,C5,21.5,0.5,59,42.38
102,G#2,21.5,0.5,34,42.38
103,G4,22.0,0.75,57,42.38
104,E-4,22.0,1.0,40,42.38
105,B-2,22.0,1.5,36,42.38
106,G#4,22.75,0.25,48,42.38
107,D4,23.0,1.0,35,42.38
108,F4,23.0,271/1000,50,42.38
109,G4,23.25,271/1000,48,42.38
110,G#4,23.5,271/1000,49,42.38
111,A4,23.75,0.25,49,42.38
112,B-4,24.0,2.0,50,42.38
113,B-5,24.0,1.0,59,42.38
114,G4,24.0,1.0,36,42.38
115,G5,25.0,0.5,62,42.38
116,E-4,25.0,0.5,36,42.38
117,F5,25.5,0.5,58,42.38
118,B-3,25.5,0.5,34,42.38
119,G3,26.0,0.375,38,42.38
120,B-4,26.0,0.375,55,42.38
121,E-5,26.0,0.375,55,42.38
122,B-3,26.5,0.375,34,42.38
123,D5,26.5,0.375,50,42.38
124,F5,26.5,0.375,50,42.38
125,E-4,27.0,0.375,36,42.38
126,E-5,27.0,0.375,54,42.38
127,G5,27.0,0.375,54,42.38
128,C4,27.5,0.375,39,42.38
129,E-5,27.5,0.375,56,42.38
130,G#5,27.5,0.375,56,42.38
131,G3,28.0,0.5,42,42.38
132,B-5,28.0,0.5,58,42.38
133,E-5,28.0,0.5,58,42.38
134,B5,28.5,73/500,63,42.38
135,F4,28.5,0.5,33,42.38
136,G#3,28.5,0.5,33,42.38
137,C6,28.625,73/500,59,42.38
138,G#5,28.75,73/500,59,42.38
139,F5,28.875,0.125,57,42.38
140,E-5,29.0,0.5,64,42.38
141,B-3,29.0,1.0,35,42.38
142,G4,29.0,0.5,42,42.38
143,G5,29.5,73/500,60,42.38
144,G#4,29.5,0.5,33,42.38
145,F5,29.625,73/500,56,42.38
146,E5,29.75,73/500,56,42.38
147,F5,29.875,13/125,53,42.38
148,E-4,30.0,1.5,28,42.38
149,G#4,30.0,1.0,34,42.38
150,D5,30.0,1.0,56,42.38
151,F5,30.0,1.0,56,42.38
152,E-5,31.0,0.5,54,42.38
153,G4,31.0,0.5,32,42.38
154,F5,32.0,1.0,60,42.38
155,D4,32.0,0.5,32,42.38
156,B-3,32.5,0.5,29,42.38
157,G5,33.0,0.5,60,42.38
158,E-4,33.0,0.5,32,42.38
159,E-5,33.5,0.5,55,42.38
160,B-3,33.5,0.5,28,42.38
161,G#5,34.0,0.75,60,42.38
162,B-3,34.0,1.0,32,42.38
163,F4,34.0,1.0,32,42.38
164,F5,34.75,0.25,54,42.38
165,D5,35.0,271/1000,56,42.38
166,E-5,35.25,271/1000,55,42.38
167,F5,35.5,271/1000,57,42.38
168,F#5,35.75,0.25,59,42.38
169,G5,36.0,0.5,60,42.38
170,F#5,36.0,21/1000,59,42.38
171,E-4,36.0,0.5,32,42.38
172,G5,36.5,0.5,63,42.38
173,E-4,36.5,0.5,32,42.38
174,G#5,37.0,0.5,63,42.38
175,F4,37.0,0.5,30,42.38
176,E-4,37.0,0.5,30,42.38
177,A5,37.5,0.5,63,42.38
178,F#4,37.5,0.5,30,42.38
179,E-4,37.5,0.5,30,42.38
180,B-5,38.0,0.75,67,42.38
181,E-4,38.0,1.0,33,42.38
182,G4,38.0,1.0,33,42.38
183,C6,38.75,13/125,58,42.38
184,B-5,38.833,13/125,58,42.38
185,G#5,38.917,13/125,58,42.38
186,G5,39.0,0.25,62,42.38
187,G#5,39.25,271/1000,56,42.38
188,B-5,39.5,271/1000,60,42.38
189,B5,39.75,0.25,63,42.38
190,C6,40.0,1.0,63,42.38
191,G#4,40.5,0.5,31,42.38
192,E-5,40.5,0.5,31,42.38
193,B-5,41.0,1.0,63,42.38
194,F#4,41.5,0.5,31,42.38
195,E-5,41.5,0.5,31,42.38
196,A5,42.0,1.0,63,42.38
197,F4,42.5,0.5,31,42.38
198,E-5,42.5,0.5,31,42.38
199,G#5,43.0,1.0,63,42.38
200,B3,43.5,0.5,31,42.38
201,D4,43.5,0.5,31,42.38
202,G5,44.0,0.5,67,42.38
203,C4,44.0,1.0,33,42.38
204,E-4,44.0,1.0,33,42.38
205,E-6,44.5,0.5,68,42.38
206,F5,45.0,0.5,67,42.38
207,G#3,45.0,0.5,33,42.38
208,C4,45.0,0.5,33,42.38
209,C6,45.5,0.5,64,42.38
210,G#4,45.5,0.5,30,42.38
211,E-5,46.0,0.75,56,42.38
212,B-3,46.0,1.5,27,42.38
213,G4,46.0,1.0,32,42.38
214,F5,46.75,0.125,46,42.38
215,E-5,46.875,0.125,42,42.38
216,D5,47.0,0.5,45,42.38
217,F4,47.0,0.5,32,42.38
218,G4,48.0,1.0,38,42.38
219,B-4,48.0,1.0,38,42.38
220,E-2,48.0,1.0,30,42.38
221,E-3,48.0,1.0,30,42.38
222,E-4,49.0,0.5,36,42.38
223,G4,49.0,0.5,36,42.38
224,B-2,49.5,0.5,30,42.38
225,B-3,49.5,0.5,38,42.38
226,F4,49.5,0.5,38,42.38
227,E-3,50.0,1.0,36,42.38
228,G3,50.0,0.5,38,42.38
229,E-4,50.0,0.5,38,42.38
230,B-3,50.5,0.5,43,42.38
231,E-4,51.0,0.5,45,42.38
232,B-2,51.5,0.5,33,42.38
233,D4,51.5,0.5,38,42.38
234,F4,51.5,0.5,38,42.38
235,E-4,52.0,2.0,34,42.38
236,G4,52.0,0.5,47,42.38
237,E-3,52.0,0.5,36,42.38
238,G#4,52.5,0.5,61,42.38
239,C3,52.5,0.5,31,42.38
240,B-4,53.0,0.5,62,42.38
241,G2,53.0,0.5,36,42.38
242,C5,53.5,0.5,62,42.38
243,G#2,53.5,0.5,34,42.38
244,G4,54.0,0.75,57,42.38
245,E-4,54.0,1.0,40,42.38
246,B-2,54.0,1.5,36,42.38
247,G#4,54.75,0.25,48,42.38
248,D4,55.0,1.0,35,42.38
249,F4,55.0,271/1000,50,42.38
250,G4,55.25,271/1000,48,42.38
251,G#4,55.5,271/1000,49,42.38
252,A4,55.75,0.25,49,42.38
253,B-4,56.0,2.0,50,42.38
254,B-5,56.0,1.0,59,42.38
255,G4,56.0,1.0,36,42.38
256,G5,57.0,0.5,62,42.38
257,E-4,57.0,0.5,36,42.38
258,F5,57.5,0.5,58,42.38
259,B-3,57.5,0.5,34,42.38
260,G3,58.0,0.375,38,42.38
261,B-4,58.0,0.375,55,42.38
262,E-5,58.0,0.375,55,42.38
263,B-3,58.5,0.375,34,42.38
264,D5,58.5,0.375,50,42.38
265,F5,58.5,0.375,50,42.38
266,E-4,59.0,0.375,36,42.38
267,E-5,59.0,0.375,54,42.38
268,G5,59.0,0.375,54,42.38
269,C4,59.5,0.375,39,42.38
270,E-5,59.5,0.375,56,42.38
271,G#5,59.5,0.375,56,42.38
272,G3,60.0,0.5,42,42.38
273,B-5,60.0,0.5,58,42.38
274,E-5,60.0,0.5,58,42.38
275,B5,60.5,73/500,62,42.38
276,F4,60.5,0.5,33,42.38
277,G#3,60.5,0.5,33,42.38
278,C6,60.625,73/500,59,42.38
279,G#5,60.75,73/500,59,42.38
280,F5,60.875,0.125,57,42.38
281,E-5,61.0,0.5,64,42.38
282,B-3,61.0,1.0,35,42.38
283,G4,61.0,0.5,42,42.38
284,G5,61.5,73/500,60,42.38
285,G#4,61.5,0.5,33,42.38
286,F5,61.625,73/500,56,42.38
287,E5,61.75,73/500,56,42.38
288,F5,61.875,13/125,53,42.38
289,E-4,62.0,1.5,28,42.38
290,G#4,62.0,1.0,34,42.38
291,D5,62.0,1.0,56,42.38
292,F5,62.0,1.0,56,42.38
293,E-5,63.0,0.5,54,42.38
294,G4,63.0,0.5,32,42.38
295,F5,64.0,1.0,60,42.38
296,D4,64.0,0.5,32,42.38
297,B-3,64.5,0.5,29,42.38
298,G5,65.0,0.5,60,42.38
299,E-4,65.0,0.5,32,42.38
300,E-5,65.5,0.5,55,42.38
301,B-3,65.5,0.5,28,42.38
302,G#5,66.0,0.75,60,42.38
303,B-3,66.0,1.0,32,42.38
304,F4,66.0,1.0,32,42.38
305,F5,66.75,0.25,54,42.38
306,D5,67.0,271/1000,56,42.38
307,E-5,67.25,271/1000,55,42.38
308,F5,67.5,271/1000,57,42.38
309,F#5,67.75,0.25,59,42.38
310,G5,68.0,0.5,60,42.38
311,F#5,68.0,21/1000,59,42.38
312,E-4,68.0,0.5,32,42.38
313,G5,68.5,0.5,63,42.38
314,E-4,68.5,0.5,32,42.38
315,G#5,69.0,0.5,63,42.38
316,F4,69.0,0.5,30,42.38
317,E-4,69.0,0.5,30,42.38
318,A5,69.5,0.5,63,42.38
319,F#4,69.5,0.5,30,42.38
320,E-4,69.5,0.5,30,42.38
321,B-5,70.0,0.75,67,42.38
322,E-4,70.0,1.0,33,42.38
323,G4,70.0,1.0,33,42.38
324,C6,70.75,13/125,58,42.38
325,B-5,70.833,13/125,58,42.38
326,G#5,70.917,13/125,58,42.38
327,G5,71.0,0.25,62,42.38
328,G#5,71.25,271/1000,56,42.38
329,B-5,71.5,271/1000,60,42.38
330,B5,71.75,0.25,63,42.38
331,C6,72.0,1.0,63,42.38
332,G#4,72.5,0.5,31,42.38
333,E-5,72.5,0.5,31,42.38
334,B-5,73.0,1.0,63,42.38
335,F#4,73.5,0.5,31,42.38
336,E-5,73.5,0.5,31,42.38
337,A5,74.0,1.0,63,42.38
338,F4,74.5,0.5,31,42.38
339,E-5,74.5,0.5,31,42.38
340,G#5,75.0,1.0,63,42.38
341,B3,75.5,0.5,31,42.38
342,D4,75.5,0.5,31,42.38
343,G5,76.0,0.5,67,42.38
344,C4,76.0,1.0,33,42.38
345,E-4,76.0,1.0,33,42.38
346,E-6,76.5,0.5,68,42.38
347,F5,77.0,0.5,67,42.38
348,G#3,77.0,0.5,33,42.38
349,C4,77.0,0.5,33,42.38
350,C6,77.5,0.5,64,42.38
351,G#4,77.5,0.5,30,42.38
352,E-5,78.0,0.75,56,42.38
353,B-3,78.0,1.5,27,42.38
354,G4,78.0,1.0,32,42.38
355,F5,78.75,0.125,46,42.38
356,E-5,78.875,0.125,42,42.38
357,D5,79.0,0.5,45,42.38
358,F4,79.0,0.5,32,42.38
359,G4,80.0,1.0,38,42.38
360,B-4,80.0,1.0,38,42.38
361,E-2,80.0,1.0,30,42.38
362,E-3,80.0,1.0,30,42.38
363,E-4,81.0,0.5,36,42.38
364,G4,81.0,0.5,36,42.38
365,B-2,81.5,0.5,30,42.38
366,B-3,81.5,0.5,38,42.38
367,F4,81.5,0.5,38,42.38
368,E-3,82.0,1.0,36,42.38
369,G3,82.0,0.5,38,42.38
370,E-4,82.0,0.5,38,42.38
371,B-3,82.5,0.5,43,42.38
372,E-4,83.0,0.5,45,42.38
373,B-2,83.5,0.5,33,42.38
374,D4,83.5,0.5,38,42.38
375,F4,83.5,0.5,38,42.38
376,E-4,84.0,2.0,34,42.38
377,G4,84.0,0.5,47,42.38
378,E-3,84.0,0.5,36,42.38
379,G#4,84.5,0.5,61,42.38
380,C3,84.5,0.5,31,42.38
381,B-4,85.0,0.5,62,42.38
382,G2,85.0,0.5,36,42.38
383,C5,85.5,0.5,62,42.38
384,G#2,85.5,0.5,34,42.38
385,G4,86.0,0.75,57,42.38
386,E-4,86.0,1.0,40,42.38
387,B-2,86.0,1.5,36,42.38
388,G#4,86.75,0.25,48,42.38
389,D4,87.0,1.0,35,42.38
390,F4,87.0,271/1000,50,42.38
391,G4,87.25,271/1000,48,42.38
392,G#4,87.5,271/1000,49,42.38
393,A4,87.75,0.25,49,42.38
394,B-4,88.0,2.0,50,42.38
395,B-5,88.0,1.0,59,42.38
396,G4,88.0,1.0,36,42.38
397,G5,89.0,0.5,62,42.38
398,E-4,89.0,0.5,36,42.38
399,F5,89.5,0.5,58,42.38
400,B-3,89.5,0.5,34,42.38
401,G3,90.0,0.375,38,42.38
402,B-4,90.0,0.375,55,42.38
403,E-5,90.0,0.375,55,42.38
404,B-3,90.5,0.375,34,42.38
405,D5,90.5,0.375,50,42.38
406,F5,90.5,0.375,50,42.38
407,E-4,91.0,0.375,36,42.38
408,E-5,91.0,0.375,54,42.38
409,G5,91.0,0.375,54,42.38
410,C4,91.5,0.375,39,42.38
411,E-5,91.5,0.375,56,42.38
412,G#5,91.5,0.375,56,42.38
413,G3,92.0,0.5,42,42.38
414,B-5,92.0,0.5,58,42.38
415,E-5,92.0,0.5,58,42.38
416,B5,92.5,73/500,62,42.38
417,F4,92.5,0.5,33,42.38
418,G#3,92.5,0.5,33,42.38
419,C6,92.625,73/500,59,42.38
420,G#5,92.75,73/500,59,42.38
421,F5,92.875,0.125,57,42.38
422,E-5,93.0,0.5,64,42.38
423,B-3,93.0,1.0,35,42.38
424,G4,93.0,0.5,42,42.38
425,G5,93.5,73/500,60,42.38
426,G#4,93.5,0.5,33,42.38
427,F5,93.625,73/500,56,42.38
428,E5,93.75,73/500,56,42.38
429,F5,93.875,13/125,53,42.38
430,E-4,94.0,1.5,28,42.38
431,G#4,94.0,1.0,34,42.38
432,D5,94.0,1.0,56,42.38
433,F5,94.0,1.0,56,42.38
434,E-5,95.0,0.5,54,42.38
435,G4,95.0,0.5,32,42.38
436,C3,96.0,0.25,36,42.38
437,E-5,96.0,0.75,54,42.38
438,G5,96.0,0.75,54,42.38
439,C4,96.25,0.188,30,42.38
440,C4,96.5,0.188,30,42.38
441,C4,96.75,0.188,32,42.38
442,D5,96.75,0.25,52,42.38
443,F5,96.75,0.25,52,42.38
444,C4,97.0,0.188,32,42.38
445,C5,97.0,0.5,52,42.38
446,E-5,97.0,0.5,52,42.38
447,C4,97.25,0.188,29,42.38
448,C4,97.5,0.188,29,42.38
449,C4,97.75,0.188,29,42.38
450,B2,98.0,0.25,36,42.38
451,F5,98.0,0.75,58,42.38
452,G#5,98.0,0.75,58,42.38
453,B3,98.25,0.188,32,42.38
454,B3,98.5,0.188,32,42.38
455,B3,98.75,0.188,32,42.38
456,E-5,98.75,0.25,50,42.38
457,G5,98.75,0.25,50,42.38
458,B3,99.0,0.188,36,42.38
459,D5,99.0,0.5,53,42.38
460,F5,99.0,0.5,53,42.38
461,B3,99.25,0.188,29,42.38
462,B3,99.5,0.188,29,42.38
463,B3,99.75,0.188,29,42.38
464,C4,100.0,1.0,46,42.38
465,C5,100.25,11/40,52,42.38
466,E-5,100.25,11/40,52,42.38
467,D5,100.5,11/40,55,42.38
468,F5,100.5,11/40,55,42.38
469,E-5,100.75,0.188,57,42.38
470,G5,100.75,0.188,57,42.38
471,G#3,101.0,0.5,40,42.38
472,E-5,101.0,0.25,56,42.38
473,G5,101.0,0.25,56,42.38
474,D5,101.25,0.25,55,42.38
475,F5,101.25,0.25,55,42.38
476,F#3,101.5,0.5,36,42.38
477,D5,101.5,0.25,53,42.38
478,F5,101.5,0.25,53,42.38
479,C5,101.75,0.188,52,42.38
480,E-5,101.75,0.188,52,42.38
481,G3,102.0,0.25,46,42.38
482,C5,102.0,1.0,54,42.38
483,E-5,102.0,1.0,54,42.38
484,G2,102.25,0.25,41,42.38
485,G3,102.5,0.125,46,42.38
486,G3,102.75,0.125,42,42.38
487,G3,103.0,271/1000,48,42.38
488,B4,103.0,0.5,50,42.38
489,D5,103.0,0.5,50,42.38
490,F3,103.25,271/1000,45,42.38
491,E-3,103.5,271/1000,43,42.38
492,D3,103.75,0.25,39,42.38
493,C3,104.0,1.0,46,42.38
494,D3,104.0,21/1000,39,42.38
495,E-5,104.25,0.25,57,42.38
496,C5,104.5,0.25,53,42.38
497,G#4,104.75,0.25,53,42.38
498,G4,105.0,0.5,53,42.38
499,E-4,105.25,0.188,36,42.38
500,C4,105.25,0.188,36,42.38
501,F#4,105.5,0.5,55,42.38
502,C4,105.5,0.188,40,42.38
503,E-4,105.5,0.188,40,42.38
504,C4,105.75,0.188,37,42.38
505,E-4,105.75,0.188,37,42.38
506,B-3,106.0,1.0,47,42.38
507,D4,106.0,1.0,47,42.38
508,B-5,106.25,0.25,61,42.38
509,G5,106.5,0.25,61,42.38
510,E-5,106.75,0.25,61,42.38
511,D5,107.0,0.5,65,42.38
512,E4,107.25,0.188,40,42.38
513,G4,107.25,0.188,40,42.38
514,C#5,107.5,0.5,61,42.38
515,E4,107.5,0.188,42,42.38
516,G4,107.5,0.188,42,42.38
517,E4,107.75,0.188,40,42.38
518,G4,107.75,0.188,40,42.38
519,D4,108.0,0.25,50,42.38
520,F#4,108.0,0.25,50,42.38
521,D5,108.25,0.25,54,42.38
522,E-4,108.5,0.25,50,42.38
523,B-4,108.75,0.25,49,42.38
524,G4,108.75,0.25,49,42.38
525,C4,109.0,0.25,54,42.38
526,A4,109.25,0.25,49,42.38
527,C5,109.25,0.25,49,42.38
528,D4,109.5,0.25,51,42.38
529,A4,109.75,0.25,49,42.38
530,F#4,109.75,0.25,49,42.38
531,G3,110.0,1.0,57,42.38
532,G4,110.25,0.25,49,42.38
533,A4,110.5,0.25,49,42.38
534,B4,110.75,0.25,49,42.38
535,A4,111.0,0.25,45,42.38
536,C5,111.0,0.25,45,42.38
537,B4,111.25,0.25,46,42.38
538,D5,111.25,0.25,46,42.38
539,C5,111.5,0.25,48,42.38
540,E-5,111.5,0.25,48,42.38
541,D5,111.75,0.25,50,42.38
542,F5,111.75,0.25,50,42.38
543,C3,112.0,0.188,36,42.38
544,E-5,112.0,0.75,54,42.38
545,G5,112.0,0.75,54,42.38
546,C4,112.25,0.188,30,42.38
547,C4,112.5,0.188,30,42.38
548,C4,112.75,0.188,32,42.38
549,D5,112.75,0.25,52,42.38
550,F5,112.75,0.25,52,42.38
551,C4,113.0,0.188,32,42.38
552,C5,113.0,0.5,52,42.38
553,E-5,113.0,0.5,52,42.38
554,C4,113.25,0.188,29,42.38
555,C4,113.5,0.188,29,42.38
556,C4,113.75,0.188,29,42.38
557,B2,114.0,0.25,36,42.38
558,F5,114.0,0.75,58,42.38
559,G#5,114.0,0.75,58,42.38
560,B3,114.25,0.188,32,42.38
561,B3,114.5,0.188,32,42.38
562,B3,114.75,0.188,32,42.38
563,E-5,114.75,0.25,50,42.38
564,G5,114.75,0.25,50,42.38
565,B3,115.0,0.188,36,42.38
566,D5,115.0,0.5,53,42.38
567,F5,115.0,0.5,53,42.38
568,B3,115.25,0.188,29,42.38
569,B3,115.5,0.188,29,42.38
570,B3,115.75,0.188,29,42.38
571,C4,116.0,1.0,46,42.38
572,C5,116.25,11/40,52,42.38
573,E-5,116.25,11/40,52,42.38
574,D5,116.5,11/40,55,42.38
575,F5,116.5,11/40,55,42.38
576,E-5,116.75,0.188,57,42.38
577,G5,116.75,0.188,57,42.38
578,G#3,117.0,0.5,40,42.38
579,E-5,117.0,0.25,56,42.38
580,G5,117.0,0.25,56,42.38
581,D5,117.25,0.25,55,42.38
582,F5,117.25,0.25,55,42.38
583,F#3,117.5,0.5,36,42.38
584,D5,117.5,0.25,53,42.38
585,F5,117.5,0.25,53,42.38
586,C5,117.75,0.188,52,42.38
587,E-5,117.75,0.188,52,42.38
588,G3,118.0,0.25,46,42.38
589,C5,118.0,1.0,54,42.38
590,E-5,118.0,1.0,54,42.38
591,G2,118.25,0.25,41,42.38
592,G3,118.5,0.125,46,42.38
593,G3,118.75,0.125,42,42.38
594,G3,119.0,271/1000,48,42.38
595,B4,119.0,0.5,50,42.38
596,D5,119.0,0.5,50,42.38
597,F3,119.25,271/1000,45,42.38
598,E-3,119.5,271/1000,43,42.38
599,D3,119.75,0.25,39,42.38
600,C3,120.0,1.0,46,42.38
601,D3,120.0,21/1000,39,42.38
602,E-5,120.25,0.25,57,42.38
603,C5,120.5,0.25,53,42.38
604,G#4,120.75,0.25,53,42.38
605,G4,121.0,0.5,53,42.38
606,E-4,121.25,0.188,36,42.38
607,C4,121.25,0.188,36,42.38
608,F#4,121.5,0.5,55,42.38
609,C4,121.5,0.188,40,42.38
610,E-4,121.5,0.188,40,42.38
611,C4,121.75,0.188,37,42.38
612,E-4,121.75,0.188,37,42.38
613,B-3,122.0,1.0,47,42.38
614,D4,122.0,1.0,47,42.38
615,B-5,122.25,0.25,61,42.38
616,G5,122.5,0.25,61,42.38
617,E-5,122.75,0.25,61,42.38
618,D5,123.0,0.5,65,42.38
619,E4,123.25,0.188,40,42.38
620,G4,123.25,0.188,40,42.38
621,C#5,123.5,0.5,61,42.38
622,E4,123.5,0.188,42,42.38
623,G4,123.5,0.188,42,42.38
624,E4,123.75,0.188,40,42.38
625,G4,123.75,0.188,40,42.38
626,D4,124.0,0.25,50,42.38
627,F#4,124.0,0.25,50,42.38
628,D5,124.25,0.25,54,42.38
629,E-4,124.5,0.25,50,42.38
630,B-4,124.75,0.25,49,42.38
631,G4,124.75,0.25,49,42.38
632,C4,125.0,0.25,54,42.38
633,A4,125.25,0.25,49,42.38
634,C5,125.25,0.25,49,42.38
635,D4,125.5,0.25,51,42.38
636,A4,125.75,0.25,49,42.38
637,F#4,125.75,0.25,49,42.38
638,G3,126.0,1.0,57,42.38
639,G4,126.25,0.25,49,42.38
640,A4,126.5,0.25,49,42.38
641,B4,126.75,0.25,49,42.38
642,A4,127.0,0.25,45,42.38
643,C5,127.0,0.25,45,42.38
644,B4,127.25,0.25,46,42.38
645,D5,127.25,0.25,46,42.38
646,C5,127.5,0.25,48,42.38
647,E-5,127.5,0.25,48,42.38
648,D5,127.75,0.25,50,42.38
649,F5,127.75,0.25,50,42.38
650,C4,128.0,0.25,38,42.38
651,E5,128.0,1.0,54,42.38
652,G5,128.0,1.0,54,42.38
653,G4,128.25,0.188,28,42.38
654,B-4,128.25,0.188,28,42.38
655,G4,128.5,0.188,28,42.38
656,B-4,128.5,0.188,28,42.38
657,G4,128.75,0.188,30,42.38
658,B-4,128.75,0.188,30,42.38
659,C4,129.0,0.25,36,42.38
660,F5,129.0,1.0,52,42.38
661,G#5,129.0,1.0,52,42.38
662,F4,129.25,0.188,28,42.38
663,G#4,129.25,0.188,28,42.38
664,F4,129.5,0.188,28,42.38
665,G#4,129.5,0.188,28,42.38
666,G#4,129.75,0.188,28,42.38
667,F4,129.75,0.188,28,42.38
668,C4,130.0,0.25,38,42.38
669,G5,130.0,1.0,58,42.38
670,B-5,130.0,1.0,58,42.38
671,E4,130.25,0.188,31,42.38
672,G4,130.25,0.188,31,42.38
673,G4,130.5,0.188,31,42.38
674,E4,130.5,0.188,31,42.38
675,E4,130.75,0.188,31,42.38
676,G4,130.75,0.188,31,42.38
677,C4,131.0,0.25,47,42.38
678,F5,131.0,0.5,53,42.38
679,G#5,131.0,0.5,53,42.38
680,F4,131.25,0.25,39,42.38
681,G#4,131.25,0.25,39,42.38
682,B3,131.5,0.25,49,42.38
683,F4,131.75,0.25,42,42.38
684,G#4,131.75,0.25,42,42.38
685,B-3,132.0,0.25,55,42.38
686,D5,132.0,1.0,62,42.38
687,F5,132.0,1.0,62,42.38
688,F4,132.25,0.188,42,42.38
689,G#4,132.25,0.188,42,42.38
690,F4,132.5,0.188,42,42.38
691,G#4,132.5,0.188,42,42.38
692,F4,132.75,0.188,42,42.38
693,G#4,132.75,0.188,42,42.38
694,B-3,133.0,0.25,54,42.38
695,E-5,133.0,1.0,59,42.38
696,G5,133.0,1.0,59,42.38
697,E-4,133.25,0.188,42,42.38
698,G4,133.25,0.188,42,42.38
699,E-4,133.5,0.188,42,42.38
700,G4,133.5,0.188,42,42.38
701,G4,133.75,0.188,42,42.38
702,E-4,133.75,0.188,42,42.38
703,B-3,134.0,0.25,54,42.38
704,F5,134.0,1.0,62,42.38
705,G#5,134.0,1.0,62,42.38
706,D4,134.25,0.188,42,42.38
707,F4,134.25,0.188,42,42.38
708,F4,134.5,0.188,42,42.38
709,D4,134.5,0.188,42,42.38
710,D4,134.75,0.188,42,42.38
711,F4,134.75,0.188,42,42.38
712,B-3,135.0,0.25,54,42.38
713,E-5,135.0,0.5,58,42.38
714,G5,135.0,0.5,58,42.38
715,E-4,135.25,0.188,42,42.38
716,G4,135.25,0.188,42,42.38
717,E-4,135.5,0.188,41,42.38
718,G4,135.5,0.188,41,42.38
719,E-4,135.75,0.188,38,42.38
720,G4,135.75,0.188,38,42.38
721,A3,136.0,1.0,50,42.38
722,C4,136.0,1.0,50,42.38
723,F#5,136.25,11/40,61,42.38
724,G5,136.5,11/40,63,42.38
725,F#5,136.75,0.25,60,42.38
726,D6,137.0,0.5,66,42.38
727,G4,137.25,0.188,33,42.38
728,B3,137.25,0.188,33,42.38
729,F5,137.5,0.5,62,42.38
730,B3,137.5,0.188,36,42.38
731,G4,137.5,0.188,36,42.38
732,B3,137.75,0.188,34,42.38
733,G4,137.75,0.188,34,42.38
734,C4,138.0,1.0,39,42.38
735,G4,138.0,1.0,39,42.38
736,E5,138.25,11/40,60,42.38
737,F5,138.5,11/40,62,42.38
738,E5,138.75,0.25,57,42.38
739,C6,139.0,0.5,63,42.38
740,G#3,139.25,0.188,36,42.38
741,C4,139.25,0.188,36,42.38
742,E-5,139.5,0.5,57,42.38
743,G#3,139.5,0.188,38,42.38
744,C4,139.5,0.188,38,42.38
745,G#3,139.75,0.188,35,42.38
746,C4,139.75,0.188,35,42.38
747,F3,140.0,1.0,40,42.38
748,G#3,140.0,1.0,40,42.38
749,C#5,140.25,11/40,54,42.38
750,C5,140.5,11/40,56,42.38
751,C#5,140.75,11/40,54,42.38
752,E5,141.0,11/40,58,42.38
753,F5,141.25,11/40,50,42.38
754,G5,141.5,11/40,53,42.38
755,G#5,141.75,0.25,55,42.38
756,C5,142.0,1.0,55,42.38
757,G3,142.0,1.0,38,42.38
758,E-4,142.0,11/40,38,42.38
759,E4,142.25,11/40,35,42.38
760,F4,142.5,11/40,36,42.38
761,F#4,142.75,11/40,36,42.38
762,B4,143.0,11/40,54,42.38
763,G3,143.0,0.5,38,42.38
764,G4,143.0,0.5,38,42.38
765,D5,143.25,11/40,49,42.38
766,E-5,143.5,11/40,52,42.38
767,F5,143.75,0.25,54,42.38
768,C3,144.0,0.25,36,42.38
769,E-5,144.0,0.75,54,42.38
770,G5,144.0,0.75,54,42.38
771,C4,144.25,0.188,30,42.38
772,C4,144.5,0.188,30,42.38
773,C4,144.75,0.188,32,42.38
774,D5,144.75,0.25,52,42.38
775,F5,144.75,0.25,52,42.38
776,C4,145.0,0.188,32,42.38
777,C5,145.0,0.5,52,42.38
778,E-5,145.0,0.5,52,42.38
779,C4,145.25,0.188,29,42.38
780,C4,145.5,0.188,29,42.38
781,C4,145.75,0.188,29,42.38
782,B2,146.0,0.25,36,42.38
783,F5,146.0,0.75,58,42.38
784,G#5,146.0,0.75,58,42.38
785,B3,146.25,0.188,32,42.38
786,B3,146.5,0.188,32,42.38
787,B3,146.75,0.188,32,42.38
788,E-5,146.75,0.25,50,42.38
789,G5,146.75,0.25,50,42.38
790,B3,147.0,0.188,36,42.38
791,D5,147.0,0.5,53,42.38
792,F5,147.0,0.5,53,42.38
793,B3,147.25,0.188,29,42.38
794,B3,147.5,0.188,29,42.38
795,B3,147.75,0.188,29,42.38
796,C4,148.0,1.0,46,42.38
797,C5,148.25,11/40,52,42.38
798,E-5,148.25,11/40,52,42.38
799,D5,148.5,11/40,55,42.38
800,F5,148.5,11/40,55,42.38
801,E-5,148.75,0.188,57,42.38
802,G5,148.75,0.188,57,42.38
803,G#3,149.0,0.5,40,42.38
804,E-5,149.0,0.25,56,42.38
805,G5,149.0,0.25,56,42.38
806,D5,149.25,0.25,55,42.38
807,F5,149.25,0.25,55,42.38
808,F#3,149.5,0.5,36,42.38
809,D5,149.5,0.25,53,42.38
810,F5,149.5,0.25,53,42.38
811,C5,149.75,0.188,52,42.38
812,E-5,149.75,0.188,52,42.38
813,G3,150.0,0.25,46,42.38
814,C5,150.0,1.0,54,42.38
815,E-5,150.0,1.0,54,42.38
816,G2,150.25,0.25,41,42.38
817,G3,150.5,0.125,46,42.38
818,G3,150.75,0.125,42,42.38
819,G3,151.0,271/1000,48,42.38
820,B4,151.0,0.5,50,42.38
821,D5,151.0,0.5,50,42.38
822,F3,151.25,271/1000,45,42.38
823,E-3,151.5,271/1000,43,42.38
824,D3,151.75,0.25,39,42.38
825,C3,152.0,1.0,46,42.38
826,D3,152.0,21/1000,39,42.38
827,G5,152.25,0.25,61,42.38
828,E-5,152.5,0.25,56,42.38
829,B4,152.75,0.25,56,42.38
830,D5,153.0,0.5,60,42.38
831,G4,153.25,0.188,36,42.38
832,E4,153.25,0.188,36,42.38
833,C5,153.5,0.5,55,42.38
834,E4,153.5,0.188,40,42.38
835,G4,153.5,0.188,40,42.38
836,E4,153.75,0.188,37,42.38
837,G4,153.75,0.188,37,42.38
838,F4,154.0,1.0,47,42.38
839,G#4,154.0,1.0,47,42.38
840,C6,154.25,0.25,61,42.38
841,G#5,154.5,0.25,61,42.38
842,E5,154.75,0.25,61,42.38
843,G5,155.0,0.5,65,42.38
844,A4,155.25,0.188,40,42.38
845,C5,155.25,0.188,40,42.38
846,F#5,155.5,0.5,61,42.38
847,A4,155.5,0.188,42,42.38
848,C5,155.5,0.188,42,42.38
849,A4,155.75,0.188,40,42.38
850,C5,155.75,0.188,40,42.38
851,G4,156.0,0.25,50,42.38
852,B4,156.0,0.25,50,42.38
853,G5,156.25,0.25,54,42.38
854,G#4,156.5,0.25,50,42.38
855,E-5,156.75,0.25,49,42.38
856,C5,156.75,0.25,49,42.38
857,F4,157.0,0.25,54,42.38
858,D5,157.25,0.25,49,42.38
859,F5,157.25,0.25,49,42.38
860,G4,157.5,0.25,51,42.38
861,D5,157.75,0.25,49,42.38
862,B4,157.75,0.25,49,42.38
863,C4,158.0,1.0,57,42.38
864,B4,158.25,0.25,49,42.38
865,C5,158.5,0.25,49,42.38
866,B4,158.75,0.25,49,42.38
867,C5,159.0,0.25,49,42.38
868,B4,159.25,0.25,46,42.38
869,D5,159.25,0.25,46,42.38
870,C5,159.5,0.25,48,42.38
871,E-5,159.5,0.25,48,42.38
872,D5,159.75,0.25,50,42.38
873,F5,159.75,0.25,50,42.38
874,C4,160.0,0.25,38,42.38
875,E5,160.0,1.0,54,42.38
876,G5,160.0,1.0,54,42.38
877,G4,160.25,0.188,28,42.38
878,B-4,160.25,0.188,28,42.38
879,G4,160.5,0.188,28,42.38
880,B-4,160.5,0.188,28,42.38
881,G4,160.75,0.188,30,42.38
882,B-4,160.75,0.188,30,42.38
883,C4,161.0,0.25,36,42.38
884,F5,161.0,1.0,52,42.38
885,G#5,161.0,1.0,52,42.38
886,F4,161.25,0.188,28,42.38
887,G#4,161.25,0.188,28,42.38
888,F4,161.5,0.188,28,42.38
889,G#4,161.5,0.188,28,42.38
890,G#4,161.75,0.188,28,42.38
891,F4,161.75,0.188,28,42.38
892,C4,162.0,0.25,38,42.38
893,G5,162.0,1.0,58,42.38
894,B-5,162.0,1.0,58,42.38
895,E4,162.25,0.188,31,42.38
896,G4,162.25,0.188,31,42.38
897,G4,162.5,0.188,31,42.38
898,E4,162.5,0.188,31,42.38
899,E4,162.75,0.188,31,42.38
900,G4,162.75,0.188,31,42.38
901,C4,163.0,0.25,47,42.38
902,F5,163.0,0.5,53,42.38
903,G#5,163.0,0.5,53,42.38
904,F4,163.25,0.25,39,42.38
905,G#4,163.25,0.25,39,42.38
906,B3,163.5,0.25,49,42.38
907,F4,163.75,0.25,42,42.38
908,G#4,163.75,0.25,42,42.38
909,B-3,164.0,0.25,55,42.38
910,D5,164.0,1.0,62,42.38
911,F5,164.0,1.0,62,42.38
912,F4,164.25,0.188,42,42.38
913,G#4,164.25,0.188,42,42.38
914,F4,164.5,0.188,42,42.38
915,G#4,164.5,0.188,42,42.38
916,F4,164.75,0.188,42,42.38
917,G#4,164.75,0.188,42,42.38
918,B-3,165.0,0.25,54,42.38
919,E-5,165.0,1.0,59,42.38
920,G5,165.0,1.0,59,42.38
921,E-4,165.25,0.188,42,42.38
922,G4,165.25,0.188,42,42.38
923,E-4,165.5,0.188,42,42.38
924,G4,165.5,0.188,42,42.38
925,G4,165.75,0.188,42,42.38
926,E-4,165.75,0.188,42,42.38
927,B-3,166.0,0.25,54,42.38
928,F5,166.0,1.0,62,42.38
929,G#5,166.0,1.0,62,42.38
930,D4,166.25,0.188,42,42.38
931,F4,166.25,0.188,42,42.38
932,F4,166.5,0.188,42,42.38
933,D4,166.5,0.188,42,42.38
934,D4,166.75,0.188,42,42.38
935,F4,166.75,0.188,42,42.38
936,B-3,167.0,0.25,54,42.38
937,E-5,167.0,0.5,58,42.38
938,G5,167.0,0.5,58,42.38
939,E-4,167.25,0.188,42,42.38
940,G4,167.25,0.188,42,42.38
941,E-4,167.5,0.188,41,42.38
942,G4,167.5,0.188,41,42.38
943,E-4,167.75,0.188,38,42.38
944,G4,167.75,0.188,38,42.38
945,A3,168.0,1.0,50,42.38
946,C4,168.0,1.0,50,42.38
947,F#5,168.25,11/40,61,42.38
948,G5,168.5,11/40,63,42.38
949,F#5,168.75,0.25,60,42.38
950,D6,169.0,0.5,66,42.38
951,G4,169.25,0.188,33,42.38
952,B3,169.25,0.188,33,42.38
953,F5,169.5,0.5,62,42.38
954,B3,169.5,0.188,36,42.38
955,G4,169.5,0.188,36,42.38
956,B3,169.75,0.188,34,42.38
957,G4,169.75,0.188,34,42.38
958,C4,170.0,1.0,39,42.38
959,G4,170.0,1.0,39,42.38
960,E5,170.25,11/40,60,42.38
961,F5,170.5,11/40,62,42.38
962,E5,170.75,0.25,57,42.38
963,C6,171.0,0.5,63,42.38
964,G#3,171.25,0.188,36,42.38
965,C4,171.25,0.188,36,42.38
966,E-5,171.5,0.5,57,42.38
967,G#3,171.5,0.188,38,42.38
968,C4,171.5,0.188,38,42.38
969,G#3,171.75,0.188,35,42.38
970,C4,171.75,0.188,35,42.38
971,F3,172.0,1.0,40,42.38
972,G#3,172.0,1.0,40,42.38
973,C#5,172.25,11/40,54,42.38
974,C5,172.5,11/40,56,42.38
975,C#5,172.75,11/40,54,42.38
976,E5,173.0,11/40,58,42.38
977,F5,173.25,11/40,50,42.38
978,G5,173.5,11/40,53,42.38
979,G#5,173.75,0.25,55,42.38
980,C5,174.0,1.0,55,42.38
981,G3,174.0,1.0,38,42.38
982,E-4,174.0,11/40,38,42.38
983,E4,174.25,11/40,35,42.38
984,F4,174.5,11/40,36,42.38
985,F#4,174.75,11/40,36,42.38
986,B4,175.0,11/40,54,42.38
987,G3,175.0,0.5,38,42.38
988,G4,175.0,0.5,38,42.38
989,D5,175.25,11/40,49,42.38
990,E-5,175.5,11/40,52,42.38
991,F5,175.75,0.25,54,42.38
992,C3,176.0,0.25,36,42.38
993,E-5,176.0,0.75,54,42.38
994,G5,176.0,0.75,54,42.38
995,C4,176.25,0.188,30,42.38
996,C4,176.5,0.188,30,42.38
997,C4,176.75,0.188,32,42.38
998,D5,176.75,0.25,52,42.38
999,F5,176.75,0.25,52,42.38
1000,C4,177.0,0.188,32,42.38
1001,C5,177.0,0.5,52,42.38
1002,E-5,177.0,0.5,52,42.38
1003,C4,177.25,0.188,29,42.38
1004,C4,177.5,0.188,29,42.38
1005,C4,177.75,0.188,29,42.38
1006,B2,178.0,0.25,36,42.38
1007,F5,178.0,0.75,58,42.38
1008,G#5,178.0,0.75,58,42.38
1009,B3,178.25,0.188,32,42.38
1010,B3,178.5,0.188,32,42.38
1011,B3,178.75,0.188,32,42.38
1012,E-5,178.75,0.25,50,42.38
1013,G5,178.75,0.25,50,42.38
1014,B3,179.0,0.188,36,42.38
1015,D5,179.0,0.5,53,42.38
1016,F5,179.0,0.5,53,42.38
1017,B3,179.25,0.188,29,42.38
1018,B3,179.5,0.188,29,42.38
1019,B3,179.75,0.188,29,42.38
1020,C4,180.0,1.0,46,42.38
1021,C5,180.25,11/40,52,42.38
1022,E-5,180.25,11/40,52,42.38
1023,D5,180.5,11/40,55,42.38
1024,F5,180.5,11/40,55,42.38
1025,E-5,180.75,0.188,57,42.38
1026,G5,180.75,0.188,57,42.38
1027,G#3,181.0,0.5,40,42.38
1028,E-5,181.0,0.25,56,42.38
1029,G5,181.0,0.25,56,42.38
1030,D5,181.25,0.25,55,42.38
1031,F5,181.25,0.25,55,42.38
1032,F#3,181.5,0.5,36,42.38
1033,D5,181.5,0.25,53,42.38
1034,F5,181.5,0.25,53,42.38
1035,C5,181.75,0.188,52,42.38
1036,E-5,181.75,0.188,52,42.38
1037,G3,182.0,0.25,46,42.38
1038,C5,182.0,1.0,54,42.38
1039,E-5,182.0,1.0,54,42.38
1040,G2,182.25,0.25,41,42.38
1041,G3,182.5,0.125,46,42.38
1042,G3,182.75,0.125,42,42.38
1043,G3,183.0,271/1000,48,42.38
1044,B4,183.0,0.5,50,42.38
1045,D5,183.0,0.5,50,42.38
1046,F3,183.25,271/1000,45,42.38
1047,E-3,183.5,271/1000,43,42.38
1048,D3,183.75,0.25,39,42.38
1049,C3,184.0,1.0,46,42.38
1050,D3,184.0,21/1000,39,42.38
1051,G5,184.25,0.25,61,42.38
1052,E-5,184.5,0.25,56,42.38
1053,B4,184.75,0.25,56,42.38
1054,D5,185.0,0.5,60,42.38
1055,G4,185.25,0.188,36,42.38
1056,E4,185.25,0.188,36,42.38
1057,C5,185.5,0.5,55,42.38
1058,E4,185.5,0.188,40,42.38
1059,G4,185.5,0.188,40,42.38
1060,E4,185.75,0.188,37,42.38
1061,G4,185.75,0.188,37,42.38
1062,F4,186.0,1.0,47,42.38
1063,G#4,186.0,1.0,47,42.38
1064,C6,186.25,0.25,61,42.38
1065,G#5,186.5,0.25,61,42.38
1066,E5,186.75,0.25,61,42.38
1067,G5,187.0,0.5,65,42.38
1068,A4,187.25,0.188,40,42.38
1069,C5,187.25,0.188,40,42.38
1070,F#5,187.5,0.5,61,42.38
1071,A4,187.5,0.188,42,42.38
1072,C5,187.5,0.188,42,42.38
1073,A4,187.75,0.188,40,42.38
1074,C5,187.75,0.188,40,42.38
1075,G4,188.0,0.25,50,42.38
1076,B4,188.0,0.25,50,42.38
1077,G5,188.25,0.25,54,42.38
1078,G#4,188.5,0.25,50,42.38
1079,E-5,188.75,0.25,49,42.38
1080,C5,188.75,0.25,49,42.38
1081,F4,189.0,0.25,54,42.38
1082,D5,189.25,0.25,49,42.38
1083,F5,189.25,0.25,49,42.38
1084,G4,189.5,0.25,51,42.38
1085,D5,189.75,0.25,49,42.38
1086,B4,189.75,0.25,49,42.38
1087,C4,190.0,1.0,57,42.38
1088,B4,190.25,11/40,49,42.38
1089,C5,190.5,11/40,52,42.38
1090,B4,190.75,0.25,49,42.38
1091,C5,191.0,1.0,54,42.38
1092,E-4,191.25,11/40,38,42.38
1093,F#4,191.25,11/40,38,42.38
1094,E4,191.5,11/40,41,42.38
1095,G4,191.5,11/40,41,42.38
1096,E-4,191.75,0.25,38,42.38
1097,F#4,191.75,0.25,38,42.38
1098,C5,192.0,0.25,54,42.38
1099,E4,192.0,1.25,44,42.38
1100,G4,192.0,1.25,44,42.38
1101,C#5,192.25,11/40,54,42.38
1102,C5,192.5,11/40,51,42.38
1103,C#5,192.75,0.25,53,42.38
1104,C5,193.0,1.25,54,42.38
1105,E4,193.25,11/40,40,42.38
1106,G4,193.25,11/40,40,42.38
1107,F4,193.5,11/40,42,42.38
1108,G#4,193.5,11/40,42,42.38
1109,E4,193.75,0.25,38,42.38
1110,G4,193.75,0.25,38,42.38
1111,F4,194.0,1.25,44,42.38
1112,G#4,194.0,1.25,44,42.38
1113,E5,194.25,11/40,56,42.38
1114,F5,194.5,11/40,58,42.38
1115,G#5,194.75,0.25,61,42.38
1116,B4,195.0,1.0,56,42.38
1117,E-4,195.25,11/40,36,42.38
1118,F#4,195.25,11/40,36,42.38
1119,D4,195.5,11/40,40,42.38
1120,F4,195.5,11/40,40,42.38
1121,E-4,195.75,0.25,36,42.38
1122,F#4,195.75,0.25,36,42.38
1123,B4,196.0,0.25,56,42.38
1124,D4,196.0,1.25,45,42.38
1125,F4,196.0,1.25,45,42.38
1126,A4,196.25,11/40,50,42.38
1127,B-4,196.5,11/40,54,42.38
1128,A4,196.75,0.25,50,42.38
1129,B-4,197.0,1.25,54,42.38
1130,E4,197.25,11/40,30,42.38
1131,G4,197.25,11/40,30,42.38
1132,F4,197.5,11/40,32,42.38
1133,G#4,197.5,11/40,32,42.38
1134,E4,197.75,0.25,30,42.38
1135,G4,197.75,0.25,30,42.38
1136,F4,198.0,1.0,36,42.38
1137,G#4,198.0,1.0,36,42.38
1138,C#5,198.25,11/40,46,42.38
1139,D5,198.5,11/40,48,42.38
1140,E-5,198.75,11/40,49,42.38
1141,E5,199.0,11/40,51,42.38
1142,F5,199.25,11/40,52,42.38
1143,F#5,199.5,11/40,53,42.38
1144,G5,199.75,0.25,54,42.38
1145,B-5,200.0,0.75,55,42.38
1146,D4,200.0,1.5,34,42.38
1147,F4,200.0,1.5,34,42.38
1148,B-4,200.0,1.5,34,42.38
1149,A5,200.75,0.25,50,42.38
1150,G#5,201.0,0.5,45,42.38
1151,E4,202.25,0.25,41,42.38
1152,F4,202.5,0.25,44,42.38
1153,G4,202.75,0.25,41,42.38
1154,G#4,203.0,0.25,44,42.38
1155,G4,203.25,0.25,45,42.38
1156,G#4,203.5,0.25,45,42.38
1157,A4,203.75,0.25,46,42.38
1158,G4,204.0,1.0,42,42.38
1159,B-4,204.0,1.0,42,42.38
1160,E-2,204.0,1.0,33,42.38
1161,E-3,204.0,1.0,33,42.38
1162,E-4,205.0,0.5,40,42.38
1163,G4,205.0,0.5,40,42.38
1164,B-2,205.5,0.5,33,42.38
1165,B-3,205.5,0.5,41,42.38
1166,F4,205.5,0.5,41,42.38
1167,E-3,206.0,1.0,39,42.38
1168,G3,206.0,0.5,41,42.38
1169,E-4,206.0,0.5,41,42.38
1170,B-3,206.5,0.5,46,42.38
1171,E-4,207.0,0.5,49,42.38
1172,B-2,207.5,0.5,36,42.38
1173,D4,207.5,0.5,42,42.38
1174,F4,207.5,0.5,42,42.38
1175,E-4,208.0,2.0,36,42.38
1176,G4,208.0,0.5,52,42.38
1177,E-3,208.0,0.5,39,42.38
1178,G#4,208.5,0.5,58,42.38
1179,C3,208.5,0.5,34,42.38
1180,B-4,209.0,0.5,60,42.38
1181,G2,209.0,0.5,39,42.38
1182,C5,209.5,0.5,57,42.38
1183,G#2,209.5,0.5,36,42.38
1184,G4,210.0,0.75,63,42.38
1185,E-4,210.0,1.0,44,42.38
1186,B-2,210.0,1.5,39,42.38
1187,G#4,210.75,0.25,53,42.38
1188,D4,211.0,1.0,37,42.38
1189,F4,211.0,271/1000,54,42.38
1190,G4,211.25,271/1000,53,42.38
1191,G#4,211.5,271/1000,54,42.38
1192,A4,211.75,0.25,54,42.38
1193,B-4,212.0,2.0,50,42.38
1194,B-5,212.0,1.0,59,42.38
1195,G4,212.0,1.0,36,42.38
1196,G5,213.0,0.5,62,42.38
1197,E-4,213.0,0.5,36,42.38
1198,F5,213.5,0.5,58,42.38
1199,B-3,213.5,0.5,34,42.38
1200,G3,214.0,0.375,38,42.38
1201,B-4,214.0,0.375,55,42.38
1202,E-5,214.0,0.375,55,42.38
1203,B-3,214.5,0.375,34,42.38
1204,D5,214.5,0.375,50,42.38
1205,F5,214.5,0.375,50,42.38
1206,E-4,215.0,0.375,36,42.38
1207,E-5,215.0,0.375,54,42.38
1208,G5,215.0,0.375,54,42.38
1209,C4,215.5,0.375,39,42.38
1210,E-5,215.5,0.375,56,42.38
1211,G#5,215.5,0.375,56,42.38
1212,G3,216.0,0.5,42,42.38
1213,B-5,216.0,0.5,58,42.38
1214,E-5,216.0,0.5,58,42.38
1215,B5,216.5,73/500,62,42.38
1216,F4,216.5,0.5,33,42.38
1217,G#3,216.5,0.5,33,42.38
1218,C6,216.625,73/500,59,42.38
1219,G#5,216.75,73/500,59,42.38
1220,F5,216.875,0.125,57,42.38
1221,E-5,217.0,0.5,64,42.38
1222,B-3,217.0,1.0,35,42.38
1223,G4,217.0,0.5,42,42.38
1224,G5,217.5,73/500,60,42.38
1225,G#4,217.5,0.5,33,42.38
1226,F5,217.625,73/500,56,42.38
1227,E5,217.75,73/500,56,42.38
1228,F5,217.875,13/125,53,42.38
1229,E-4,218.0,1.5,28,42.38
1230,G#4,218.0,1.0,34,42.38
1231,D5,218.0,1.0,56,42.38
1232,F5,218.0,1.0,56,42.38
1233,E-5,219.0,0.5,54,42.38
1234,G4,219.0,0.5,32,42.38
1235,C5,220.0,1.0,54,42.38
1236,G#3,220.0,0.25,36,42.38
1237,E-4,220.25,0.25,31,42.38
1238,C4,220.5,0.25,31,42.38
1239,E-4,220.75,0.25,31,42.38
1240,E-5,221.0,0.25,54,42.38
1241,B-3,221.0,0.25,36,42.38
1242,C#5,221.25,0.25,50,42.38
1243,E-4,221.25,0.25,33,42.38
1244,B-4,221.5,0.25,54,42.38
1245,C#4,221.5,0.25,32,42.38
1246,G4,221.75,0.25,50,42.38
1247,E-4,221.75,0.25,32,42.38
1248,G#4,222.0,0.75,54,42.38
1249,C4,222.0,0.25,36,42.38
1250,E-4,222.25,0.25,31,42.38
1251,G#3,222.5,0.25,36,42.38
1252,B-4,222.75,0.125,50,42.38
1253,E-4,222.75,0.25,31,42.38
1254,C5,222.875,0.125,50,42.38
1255,G3,223.0,0.25,36,42.38
1256,B-4,223.008,0.5,54,42.38
1257,E-4,223.25,0.25,32,42.38
1258,E-3,223.5,0.25,32,42.38
1259,E-4,223.75,0.25,32,42.38
1260,C#5,224.0,1.0,59,42.38
1261,G3,224.0,0.25,43,42.38
1262,E-4,224.25,0.25,37,42.38
1263,B-3,224.5,0.25,37,42.38
1264,E-4,224.75,0.25,37,42.38
1265,F5,225.0,11/40,61,42.38
1266,G#3,225.0,0.25,44,42.38
1267,E-5,225.25,11/40,56,42.38
1268,E-4,225.25,0.25,33,42.38
1269,C#5,225.5,11/40,58,42.38
1270,C4,225.5,0.25,36,42.38
1271,C5,225.75,11/40,54,42.38
1272,E-4,225.75,0.25,36,42.38
1273,B-4,226.0,0.75,63,42.38
1274,G3,226.0,0.25,43,42.38
1275,E-4,226.25,0.25,38,42.38
1276,E-3,226.5,0.25,42,42.38
1277,C5,226.75,0.125,54,42.38
1278,E-4,226.75,0.25,42,42.38
1279,C#5,226.875,0.125,54,42.38
1280,C5,227.0,0.5,63,42.38
1281,G#3,227.0,0.25,48,42.38
1282,E-4,227.25,0.25,43,42.38
1283,C4,227.5,0.25,51,42.38
1284,E-4,227.75,0.25,43,42.38
1285,C6,228.0,0.75,67,42.38
1286,B-3,228.0,0.25,56,42.38
1287,G4,228.25,0.25,42,42.38
1288,E4,228.5,0.25,51,42.38
1289,E5,228.75,0.25,59,42.38
1290,G4,228.75,0.25,45,42.38
1291,F5,229.0,0.125,61,42.38
1292,G#3,229.0,0.25,54,42.38
1293,G5,229.25,0.125,56,42.38
1294,F4,229.25,0.25,44,42.38
1295,G#5,229.5,0.125,57,42.38
1296,C4,229.5,0.25,46,42.38
1297,A5,229.75,0.125,58,42.38
1298,F4,229.75,0.25,46,42.38
1299,B-5,230.0,0.75,63,42.38
1300,G#3,230.0,0.25,55,42.38
1301,F4,230.25,0.25,42,42.38
1302,D4,230.5,0.25,47,42.38
1303,D5,230.75,0.25,53,42.38
1304,F4,230.75,0.25,42,42.38
1305,E-5,231.0,0.125,62,42.38
1306,G3,231.0,0.25,45,42.38
1307,F5,231.25,0.125,54,42.38
1308,E-4,231.25,0.25,40,42.38
1309,F#5,231.5,0.125,55,42.38
1310,B-3,231.5,0.25,45,42.38
1311,G5,231.75,0.125,56,42.38
1312,E-4,231.75,0.25,38,42.38
1313,G5,232.0,0.25,62,42.38
1314,G#3,232.0,0.25,44,42.38
1315,C5,232.25,0.25,55,42.38
1316,F4,232.25,0.25,38,42.38
1317,G#5,232.5,0.25,62,42.38
1318,C4,232.5,0.25,40,42.38
1319,F5,232.75,0.188,56,42.38
1320,F4,232.75,0.25,40,42.38
1321,F5,233.0,0.25,58,42.38
1322,B-3,233.0,0.25,40,42.38
1323,E-5,233.25,0.188,53,42.38
1324,G4,233.25,0.25,36,42.38
1325,E-5,233.5,0.25,58,42.38
1326,B-3,233.5,0.25,36,42.38
1327,D5,233.75,0.188,53,42.38
1328,G#4,233.75,0.188,36,42.38
1329,E-5,234.0,11/40,58,42.38
1330,E-4,234.0,1.0,42,42.38
1331,G4,234.0,1.0,42,42.38
1332,D5,234.25,11/40,52,42.38
1333,E-5,234.5,11/40,55,42.38
1334,F5,234.75,11/40,51,42.38
1335,E-5,235.0,11/40,54,42.38
1336,D5,235.25,11/40,54,42.38
1337,C#5,235.5,11/40,52,42.38
1338,B-4,235.75,0.25,51,42.38
1339,C5,236.0,1.0,54,42.38
1340,G#3,236.0,0.25,36,42.38
1341,E-4,236.25,0.25,31,42.38
1342,C4,236.5,0.25,31,42.38
1343,E-4,236.75,0.25,31,42.38
1344,E-5,237.0,0.25,54,42.38
1345,B-3,237.0,0.25,36,42.38
1346,C#5,237.25,0.25,50,42.38
1347,E-4,237.25,0.25,33,42.38
1348,B-4,237.5,0.25,54,42.38
1349,C#4,237.5,0.25,32,42.38
1350,G4,237.75,0.25,50,42.38
1351,E-4,237.75,0.25,32,42.38
1352,G#4,238.0,0.75,54,42.38
1353,C4,238.0,0.25,36,42.38
1354,E-4,238.25,0.25,31,42.38
1355,G#3,238.5,0.25,36,42.38
1356,B-4,238.75,0.125,50,42.38
1357,E-4,238.75,0.25,31,42.38
1358,C5,238.875,0.125,50,42.38
1359,G3,239.0,0.25,36,42.38
1360,B-4,239.008,0.5,54,42.38
1361,E-4,239.25,0.25,32,42.38
1362,E-3,239.5,0.25,32,42.38
1363,E-4,239.75,0.25,32,42.38
1364,C#5,240.0,1.0,59,42.38
1365,G3,240.0,0.25,43,42.38
1366,E-4,240.25,0.25,37,42.38
1367,B-3,240.5,0.25,37,42.38
1368,E-4,240.75,0.25,37,42.38
1369,F5,241.0,11/40,61,42.38
1370,G#3,241.0,0.25,44,42.38
1371,E-5,241.25,11/40,56,42.38
1372,E-4,241.25,0.25,33,42.38
1373,C#5,241.5,11/40,58,42.38
1374,C4,241.5,0.25,36,42.38
1375,C5,241.75,11/40,54,42.38
1376,E-4,241.75,0.25,36,42.38
1377,B-4,242.0,0.75,63,42.38
1378,G3,242.0,0.25,43,42.38
1379,E-4,242.25,0.25,38,42.38
1380,E-3,242.5,0.25,42,42.38
1381,C5,242.75,0.125,54,42.38
1382,E-4,242.75,0.25,42,42.38
1383,C#5,242.875,0.125,54,42.38
1384,C5,243.0,0.5,63,42.38
1385,G#3,243.0,0.25,48,42.38
1386,E-4,243.25,0.25,43,42.38
1387,C4,243.5,0.25,51,42.38
1388,E-4,243.75,0.25,43,42.38
1389,C6,244.0,0.75,67,42.38
1390,B-3,244.0,0.25,56,42.38
1391,G4,244.25,0.25,42,42.38
1392,E4,244.5,0.25,51,42.38
1393,E5,244.75,0.25,59,42.38
1394,G4,244.75,0.25,45,42.38
1395,F5,245.0,0.125,61,42.38
1396,G#3,245.0,0.25,54,42.38
1397,G5,245.25,0.125,56,42.38
1398,F4,245.25,0.25,44,42.38
1399,G#5,245.5,0.125,57,42.38
1400,C4,245.5,0.25,46,42.38
1401,A5,245.75,0.125,58,42.38
1402,F4,245.75,0.25,46,42.38
1403,B-5,246.0,0.75,63,42.38
1404,G#3,246.0,0.25,55,42.38
1405,F4,246.25,0.25,42,42.38
1406,D4,246.5,0.25,47,42.38
1407,D5,246.75,0.25,53,42.38
1408,F4,246.75,0.25,42,42.38
1409,E-5,247.0,0.125,62,42.38
1410,G3,247.0,0.25,45,42.38
1411,F5,247.25,0.125,54,42.38
1412,E-4,247.25,0.25,40,42.38
1413,F#5,247.5,0.125,55,42.38
1414,B-3,247.5,0.25,45,42.38
1415,G5,247.75,0.125,56,42.38
1416,E-4,247.75,0.25,38,42.38
1417,G5,248.0,0.25,62,42.38
1418,G#3,248.0,0.25,44,42.38
1419,C5,248.25,0.25,55,42.38
1420,F4,248.25,0.25,38,42.38
1421,G#5,248.5,0.25,62,42.38
1422,C4,248.5,0.25,40,42.38
1423,F5,248.75,0.188,56,42.38
1424,F4,248.75,0.25,40,42.38
1425,F5,249.0,0.25,58,42.38
1426,B-3,249.0,0.25,40,42.38
1427,E-5,249.25,0.188,53,42.38
1428,G4,249.25,0.25,36,42.38
1429,E-5,249.5,0.25,58,42.38
1430,B-3,249.5,0.25,36,42.38
1431,D5,249.75,0.188,53,42.38
1432,G#4,249.75,0.188,36,42.38
1433,E-5,250.0,11/40,58,42.38
1434,E-4,250.0,1.0,42,42.38
1435,G4,250.0,1.0,42,42.38
1436,D5,250.25,11/40,52,42.38
1437,E-5,250.5,11/40,55,42.38
1438,F5,250.75,11/40,51,42.38
1439,E-5,251.0,11/40,54,42.38
1440,D5,251.25,11/40,54,42.38
1441,C#5,251.5,11/40,52,42.38
1442,B-4,251.75,0.25,51,42.38
1443,A4,252.0,2.0,45,42.38
1444,C5,252.0,1.0,59,42.38
1445,E-4,252.0,0.25,36,42.38
1446,F#4,252.25,0.25,31,42.38
1447,E-4,252.5,0.25,31,42.38
1448,F#4,252.75,0.25,31,42.38
1449,B4,253.0,11/40,59,42.38
1450,E-4,253.0,11/40,39,42.38
1451,C5,253.25,11/40,54,42.38
1452,F4,253.25,11/40,33,42.38
1453,C#5,253.5,11/40,62,42.38
1454,E-4,253.5,11/40,36,42.38
1455,C5,253.75,0.25,57,42.38
1456,F4,253.75,0.25,32,42.38
1457,G#4,254.0,1.0,50,42.38
1458,F5,254.0,0.5,64,42.38
1459,D4,254.0,0.25,39,42.38
1460,F4,254.25,0.25,31,42.38
1461,B-4,254.5,0.5,59,42.38
1462,D4,254.5,0.25,31,42.38
1463,F4,254.75,0.25,31,42.38
1464,G4,255.0,1.0,45,42.38
1465,A4,255.0,11/40,59,42.38
1466,C#4,255.0,11/40,36,42.38
1467,B-4,255.25,11/40,54,42.38
1468,F4,255.25,11/40,33,42.38
1469,C5,255.5,11/40,59,42.38
1470,C#4,255.5,11/40,32,42.38
1471,B-4,255.75,0.25,54,42.38
1472,F4,255.75,0.25,32,42.38
1473,F#4,256.0,1.0,45,42.38
1474,E-5,256.0,0.5,59,42.38
1475,C4,256.0,0.25,36,42.38
1476,E-4,256.25,0.25,31,42.38
1477,G#4,256.5,0.75,59,42.38
1478,C4,256.5,0.25,31,42.38
1479,E-4,256.75,0.25,31,42.38
1480,F4,257.0,0.25,49,42.38
1481,C#4,257.0,0.5,36,42.38
1482,B-4,257.25,0.25,48,42.38
1483,G4,257.25,0.25,48,42.38
1484,B-3,257.5,0.5,33,42.38
1485,C5,257.5,0.25,47,42.38
1486,G#4,257.5,0.25,47,42.38
1487,C#5,257.75,0.25,47,42.38
1488,B-4,257.75,0.25,47,42.38
1489,E-4,258.0,0.25,41,42.38
1490,G#4,258.0,1.0,54,42.38
1491,C5,258.0,1.0,54,42.38
1492,D4,258.25,0.25,36,42.38
1493,E-4,258.5,0.25,36,42.38
1494,D4,258.75,0.25,36,42.38
1495,E-4,259.0,0.25,40,42.38
1496,G4,259.0,0.5,48,42.38
1497,B-4,259.0,0.5,48,42.38
1498,B-3,259.25,0.25,36,42.38
1499,G3,259.5,0.25,36,42.38
1500,E-3,259.75,0.25,36,42.38
1501,G#5,260.0,1.0,67,42.38
1502,F3,260.0,0.25,36,42.38
1503,C4,260.25,0.25,31,42.38
1504,G#3,260.5,0.25,31,42.38
1505,C4,260.75,0.25,31,42.38
1506,G5,261.0,11/40,61,42.38
1507,G#3,261.0,11/40,39,42.38
1508,F5,261.25,11/40,56,42.38
1509,F4,261.25,11/40,33,42.38
1510,E-5,261.5,11/40,63,42.38
1511,B-3,261.5,11/40,36,42.38
1512,D5,261.75,0.25,57,42.38
1513,F4,261.75,0.25,32,42.38
1514,C#6,262.0,1.0,71,42.38
1515,G3,262.0,0.25,43,42.38
1516,E-4,262.25,0.25,36,42.38
1517,B-3,262.5,0.25,40,42.38
1518,E-4,262.762,0.25,36,42.38
1519,C6,263.0,11/40,65,42.38
1520,C#4,263.0,11/40,41,42.38
1521,B-5,263.25,11/40,63,42.38
1522,B-4,263.25,11/40,33,42.38
1523,G#5,263.5,11/40,58,42.38
1524,E-4,263.5,11/40,36,42.38
1525,G5,263.75,0.25,54,42.38
1526,B-4,263.75,0.25,32,42.38
1527,G#5,264.0,0.25,56,42.38
1528,C4,264.0,0.5,39,42.38
1529,G#4,264.0,0.5,39,42.38
1530,C5,264.25,0.25,52,42.38
1531,B-4,264.5,0.25,52,42.38
1532,C#4,264.5,0.5,36,42.38
1533,F4,264.5,0.5,36,42.38
1534,F5,264.75,0.25,52,42.38
1535,E-5,265.0,0.25,56,42.38
1536,E-3,265.0,0.5,39,42.38
1537,C4,265.0,0.5,39,42.38
1538,G#4,265.25,0.25,51,42.38
1539,C#5,265.5,0.25,55,42.38
1540,E-3,265.5,0.5,36,42.38
1541,B-3,265.5,0.5,36,42.38
1542,G4,265.75,0.25,51,42.38
1543,B-4,266.0,1.0,54,42.38
1544,G#3,266.0,1.5,39,42.38
1545,C#4,266.0,1.0,39,42.38
1546,G#4,267.0,0.25,52,42.38
1547,C4,267.0,0.5,36,42.38
1548,B-4,267.25,11/40,47,42.38
1549,B4,267.5,11/40,45,42.38
1550,C5,267.75,0.25,45,42.38
1551,A4,268.0,2.0,39,42.38
1552,C5,268.0,1.0,59,42.38
1553,E-4,268.0,0.25,36,42.38
1554,F#4,268.25,0.25,31,42.38
1555,E-4,268.5,0.25,31,42.38
1556,F#4,268.75,0.25,31,42.38
1557,B4,269.0,11/40,59,42.38
1558,E-4,269.0,11/40,39,42.38
1559,C5,269.25,11/40,54,42.38
1560,F4,269.25,11/40,33,42.38
1561,C#5,269.5,11/40,62,42.38
1562,E-4,269.5,11/40,36,42.38
1563,C5,269.75,0.25,57,42.38
1564,F4,269.75,0.25,32,42.38
1565,G#4,270.0,1.0,50,42.38
1566,F5,270.0,0.5,64,42.38
1567,D4,270.0,0.25,39,42.38
1568,F4,270.25,0.25,31,42.38
1569,B-4,270.5,0.5,59,42.38
1570,D4,270.5,0.25,31,42.38
1571,F4,270.75,0.25,31,42.38
1572,G4,271.0,1.0,45,42.38
1573,A4,271.0,11/40,59,42.38
1574,C#4,271.0,11/40,36,42.38
1575,B-4,271.25,11/40,54,42.38
1576,F4,271.25,11/40,33,42.38
1577,C5,271.5,11/40,59,42.38
1578,C#4,271.5,11/40,32,42.38
1579,B-4,271.75,0.25,54,42.38
1580,F4,271.75,0.25,32,42.38
1581,F#4,272.0,1.0,45,42.38
1582,E-5,272.0,0.5,59,42.38
1583,C4,272.0,0.25,36,42.38
1584,E-4,272.25,0.25,31,42.38
1585,G#4,272.5,0.75,59,42.38
1586,C4,272.5,0.25,31,42.38
1587,E-4,272.75,0.25,31,42.38
1588,F4,273.0,0.25,49,42.38
1589,C#4,273.0,0.5,36,42.38
1590,B-4,273.25,0.25,48,42.38
1591,G4,273.25,0.25,48,42.38
1592,B-3,273.5,0.5,33,42.38
1593,C5,273.5,0.25,47,42.38
1594,G#4,273.5,0.25,47,42.38
1595,C#5,273.75,0.25,47,42.38
1596,B-4,273.75,0.25,47,42.38
1597,E-4,274.0,0.25,41,42.38
1598,G#4,274.0,1.0,54,42.38
1599,C5,274.0,1.0,54,42.38
1600,D4,274.25,0.25,36,42.38
1601,E-4,274.5,0.25,36,42.38
1602,D4,274.75,0.25,36,42.38
1603,E-4,275.0,0.25,40,42.38
1604,G4,275.0,0.5,48,42.38
1605,B-4,275.0,0.5,48,42.38
1606,B-3,275.25,0.25,36,42.38
1607,G3,275.5,0.25,36,42.38
1608,E-3,275.75,0.25,36,42.38
1609,G#5,276.0,1.0,65,42.38
1610,F3,276.0,0.25,36,42.38
1611,C4,276.25,0.25,31,42.38
1612,G#3,276.5,0.25,31,42.38
1613,C4,276.75,0.25,31,42.38
1614,G5,277.0,11/40,62,42.38
1615,G#3,277.0,11/40,39,42.38
1616,F5,277.25,11/40,57,42.38
1617,F4,277.25,11/40,33,42.38
1618,E-5,277.5,11/40,60,42.38
1619,B-3,277.5,11/40,36,42.38
1620,D5,277.75,0.25,57,42.38
1621,F4,277.75,0.25,32,42.38
1622,C#6,278.0,1.0,71,42.38
1623,G3,278.0,0.25,43,42.38
1624,E-4,278.25,0.25,31,42.38
1625,B-3,278.5,0.25,36,42.38
1626,E-4,278.762,0.25,31,42.38
1627,C6,279.0,11/40,65,42.38
1628,C#4,279.0,11/40,39,42.38
1629,B-5,279.25,11/40,61,42.38
1630,B-4,279.25,11/40,33,42.38
1631,G#5,279.5,11/40,61,42.38
1632,E-4,279.5,11/40,32,42.38
1633,G5,279.75,0.25,55,42.38
1634,B-4,279.75,0.25,32,42.38
1635,G#5,280.0,0.25,56,42.38
1636,C4,280.0,0.5,39,42.38
1637,G#4,280.0,0.5,39,42.38
1638,C5,280.25,0.25,52,42.38
1639,B-4,280.5,0.25,52,42.38
1640,C#4,280.5,0.5,36,42.38
1641,F4,280.5,0.5,36,42.38
1642,F5,280.75,0.25,52,42.38
1643,E-5,281.0,0.25,56,42.38
1644,E-3,281.0,0.5,39,42.38
1645,C4,281.0,0.5,39,42.38
1646,G#4,281.25,0.25,51,42.38
1647,C#5,281.5,0.25,55,42.38
1648,E-3,281.5,0.5,36,42.38
1649,B-3,281.5,0.5,36,42.38
1650,G4,281.75,0.25,51,42.38
1651,B-4,282.0,1.0,54,42.38
1652,G#3,282.0,1.5,39,42.38
1653,C#4,282.0,1.0,39,42.38
1654,G#4,283.0,0.25,52,42.38
1655,C4,283.0,0.5,36,42.38
1656,B-4,283.25,11/40,47,42.38
1657,B4,283.5,11/40,45,42.38
1658,C5,283.75,0.25,45,42.38
1659,E4,284.0,0.75,39,42.38
1660,G4,284.0,0.75,39,42.38
1661,C5,284.25,73/250,53,42.38
1662,C#5,284.5,73/250,56,42.38
1663,C5,284.75,0.25,52,42.38
1664,F4,285.0,0.5,39,42.38
1665,G#4,285.0,0.5,39,42.38
1666,C5,285.25,0.25,53,42.38
1667,C6,285.5,0.25,56,42.38
1668,C5,285.75,0.25,52,42.38
1669,D4,286.0,0.75,39,42.38
1670,F4,286.0,0.75,39,42.38
1671,B-4,286.25,73/250,53,42.38
1672,B4,286.5,73/250,56,42.38
1673,B-4,286.75,0.25,53,42.38
1674,E-4,287.0,0.5,39,42.38
1675,G4,287.0,0.5,39,42.38
1676,B-4,287.25,0.25,53,42.38
1677,B-5,287.5,0.25,56,42.38
1678,B-4,287.75,0.25,53,42.38
1679,C4,288.0,2.0,39,42.38
1680,E-4,288.0,2.0,39,42.38
1681,A4,288.25,73/250,54,42.38
1682,B-4,288.5,73/250,56,42.38
1683,A4,288.75,0.25,53,42.38
1684,E-5,289.0,0.25,59,42.38
1685,A4,289.25,0.25,56,42.38
1686,F#5,289.5,0.25,63,42.38
1687,A4,289.75,0.25,58,42.38
1688,B-4,290.0,1.25,64,42.38
1689,B-3,290.25,0.75,50,42.38
1690,D4,290.5,0.25,53,42.38
1691,F4,290.75,0.25,55,42.38
1692,F#4,291.0,0.5,58,42.38
1693,A4,291.25,0.25,59,42.38
1694,F#5,291.5,0.25,61,42.38
1695,E-4,291.5,0.5,54,42.38
1696,A4,291.75,0.25,60,42.38
1697,B-4,292.0,1.25,65,42.38
1698,B-3,292.25,0.75,54,42.38
1699,D4,292.5,0.25,58,42.38
1700,F4,292.75,0.25,61,42.38
1701,F#4,293.0,0.5,63,42.38
1702,A4,293.25,0.25,60,42.38
1703,F#5,293.5,0.25,63,42.38
1704,E-4,293.5,0.5,54,42.38
1705,A4,293.75,0.25,59,42.38
1706,B-4,294.0,1.25,65,42.38
1707,B-3,294.25,1.75,47,42.38
1708,D4,294.5,0.25,49,42.38
1709,F4,294.75,0.25,51,42.38
1710,G#4,295.0,1.0,56,42.38
1711,D5,295.25,0.25,56,42.38
1712,F5,295.5,0.25,58,42.38
1713,G#5,295.75,0.25,60,42.38
1714,B5,296.0,11/40,61,42.38
1715,B-3,296.0,3.5,47,42.38
1716,G#4,296.0,3.5,56,42.38
1717,C6,296.25,11/40,63,42.38
1718,D6,296.5,11/40,64,42.38
1719,C6,296.75,11/40,62,42.38
1720,B-5,297.0,11/40,61,42.38
1721,G#5,297.25,11/40,60,42.38
1722,G5,297.5,11/40,58,42.38
1723,F5,297.75,11/40,57,42.38
1724,E-5,298.0,0.75,57,42.38
1725,F5,298.75,73/500,44,42.38
1726,E-5,298.875,73/500,40,42.38
1727,D5,299.0,0.5,48,42.38
1728,G4,300.0,1.0,42,42.38
1729,B-4,300.0,1.0,42,42.38
1730,E-2,300.0,1.0,33,42.38
1731,E-3,300.0,1.0,33,42.38
1732,E-4,301.0,0.5,40,42.38
1733,G4,301.0,0.5,40,42.38
1734,B-2,301.5,0.5,33,42.38
1735,B-3,301.5,0.5,41,42.38
1736,F4,301.5,0.5,41,42.38
1737,E-3,302.0,1.0,39,42.38
1738,G3,302.0,0.5,41,42.38
1739,E-4,302.0,0.5,41,42.38
1740,B-3,302.5,0.5,46,42.38
1741,E-4,303.0,0.5,49,42.38
1742,B-2,303.5,0.5,36,42.38
1743,D4,303.5,0.5,42,42.38
1744,F4,303.5,0.5,42,42.38
1745,E-4,304.0,2.0,36,42.38
1746,G4,304.0,0.5,52,42.38
1747,E-3,304.0,0.5,39,42.38
1748,G#4,304.5,0.5,58,42.38
1749,C3,304.5,0.5,34,42.38
1750,B-4,305.0,0.5,60,42.38
1751,G2,305.0,0.5,39,42.38
1752,C5,305.5,0.5,57,42.38
1753,G#2,305.5,0.5,36,42.38
1754,G4,306.0,0.75,63,42.38
1755,E-4,306.0,1.0,44,42.38
1756,B-2,306.0,1.5,39,42.38
1757,G#4,306.75,0.25,53,42.38
1758,D4,307.0,1.0,37,42.38
1759,F4,307.0,271/1000,54,42.38
1760,G4,307.25,271/1000,53,42.38
1761,G#4,307.5,271/1000,54,42.38
1762,A4,307.75,0.25,54,42.38
1763,B-4,308.0,2.0,50,42.38
1764,B-5,308.0,1.0,59,42.38
1765,G4,308.0,1.0,36,42.38
1766,G5,309.0,0.5,62,42.38
1767,E-4,309.0,0.5,36,42.38
1768,F5,309.5,0.5,58,42.38
1769,B-3,309.5,0.5,34,42.38
1770,G3,310.0,0.375,38,42.38
1771,B-4,310.0,0.375,55,42.38
1772,E-5,310.0,0.375,55,42.38
1773,B-3,310.5,0.375,34,42.38
1774,D5,310.5,0.375,50,42.38
1775,F5,310.5,0.375,50,42.38
1776,E-4,311.0,0.375,36,42.38
1777,E-5,311.0,0.375,54,42.38
1778,G5,311.0,0.375,54,42.38
1779,C4,311.5,0.375,39,42.38
1780,E-5,311.5,0.375,56,42.38
1781,G#5,311.5,0.375,56,42.38
1782,G3,312.0,0.5,42,42.38
1783,B-5,312.0,0.5,58,42.38
1784,E-5,312.0,0.5,58,42.38
1785,B5,312.5,73/500,62,42.38
1786,F4,312.5,0.5,33,42.38
1787,G#3,312.5,0.5,33,42.38
1788,C6,312.625,73/500,59,42.38
1789,G#5,312.75,73/500,59,42.38
1790,F5,312.875,0.125,57,42.38
1791,E-5,313.0,0.5,64,42.38
1792,B-3,313.0,1.0,35,42.38
1793,G4,313.0,0.5,42,42.38
1794,G5,313.5,73/500,60,42.38
1795,G#4,313.5,0.5,33,42.38
1796,F5,313.625,73/500,56,42.38
1797,E5,313.75,73/500,56,42.38
1798,F5,313.875,13/125,53,42.38
1799,E-4,314.0,1.5,28,42.38
1800,G#4,314.0,1.0,34,42.38
1801,D5,314.0,1.0,56,42.38
1802,F5,314.0,1.0,56,42.38
1803,E-5,315.0,0.5,54,42.38
1804,G4,315.0,0.5,32,42.38
1805,C5,316.0,0.75,54,42.38
1806,E-3,316.0,0.25,36,42.38
1807,C4,316.25,0.25,31,42.38
1808,G#3,316.5,0.25,31,42.38
1809,D5,316.75,0.25,51,42.38
1810,C4,316.75,0.25,31,42.38
1811,E-5,317.0,0.5,55,42.38
1812,E-3,317.0,0.25,36,42.38
1813,C4,317.25,0.25,33,42.38
1814,E-5,317.5,0.5,54,42.38
1815,G#3,317.5,0.25,32,42.38
1816,C4,317.75,0.25,32,42.38
1817,E-5,318.0,0.75,58,42.38
1818,E-3,318.0,0.25,36,42.38
1819,B-3,318.25,0.25,27,42.38
1820,G3,318.5,0.25,31,42.38
1821,D5,318.75,0.125,50,42.38
1822,B-3,318.75,0.25,26,42.38
1823,C5,318.875,0.125,50,42.38
1824,B-4,319.0,0.5,54,42.38
1825,E-3,319.0,0.25,36,42.38
1826,B-3,319.25,0.25,28,42.38
1827,G3,319.5,0.25,32,42.38
1828,B-3,319.75,0.25,30,42.38
1829,C5,320.0,0.75,54,42.38
1830,E-3,320.0,0.25,36,42.38
1831,C4,320.25,0.25,31,42.38
1832,G#3,320.5,0.25,31,42.38
1833,D5,320.75,0.25,51,42.38
1834,C4,320.75,0.25,31,42.38
1835,E-5,321.0,0.188,55,42.38
1836,E-3,321.0,0.25,36,42.38
1837,E-5,321.25,0.188,50,42.38
1838,C4,321.25,0.25,29,42.38
1839,E-5,321.5,0.188,54,42.38
1840,G#3,321.5,0.25,32,42.38
1841,E-5,321.75,0.188,51,42.38
1842,C4,321.75,0.25,30,42.38
1843,E-5,322.0,0.125,55,42.38
1844,E-3,322.0,0.25,36,42.38
1845,G5,322.125,0.125,50,42.38
1846,F5,322.25,0.125,50,42.38
1847,B-3,322.25,0.25,31,42.38
1848,E-5,322.375,0.125,50,42.38
1849,D5,322.5,0.125,55,42.38
1850,G3,322.5,0.25,36,42.38
1851,F5,322.625,0.125,50,42.38
1852,E-5,322.75,0.125,50,42.38
1853,B-3,322.75,0.25,31,42.38
1854,C5,322.875,0.125,50,42.38
1855,B-4,323.0,0.5,55,42.38
1856,E-3,323.0,0.25,36,42.38
1857,B-3,323.25,0.25,30,42.38
1858,G3,323.5,0.25,32,42.38
1859,B-3,323.75,0.25,30,42.38
1860,C4,324.0,1.0,42,42.38
1861,G5,324.25,0.25,56,42.38
1862,G#5,324.5,0.25,62,42.38
1863,C6,324.75,0.25,57,42.38
1864,E5,325.0,0.5,61,42.38
1865,D4,325.25,0.188,32,42.38
1866,B-4,325.25,0.188,32,42.38
1867,F5,325.5,0.5,60,42.38
1868,D4,325.5,0.188,36,42.38
1869,B-4,325.5,0.188,36,42.38
1870,D4,325.75,0.188,32,42.38
1871,B-4,325.75,0.188,32,42.38
1872,E-4,326.0,1.0,37,42.38
1873,B-4,326.0,1.0,37,42.38
1874,F#5,326.25,0.25,54,42.38
1875,G5,326.5,0.25,62,42.38
1876,B-5,326.75,0.25,56,42.38
1877,D5,327.0,0.5,61,42.38
1878,G4,327.25,0.188,32,42.38
1879,B-4,327.25,0.188,32,42.38
1880,E-5,327.5,0.5,57,42.38
1881,G4,327.5,0.188,36,42.38
1882,B-4,327.5,0.188,36,42.38
1883,G4,327.75,0.188,32,42.38
1884,B-4,327.75,0.188,32,42.38
1885,G#4,328.0,1.0,37,42.38
1886,C5,328.0,1.0,37,42.38
1887,E5,328.25,0.25,54,42.38
1888,F5,328.5,0.25,62,42.38
1889,G#5,328.75,0.25,56,42.38
1890,B4,329.0,11/40,59,42.38
1891,C5,329.25,11/40,54,42.38
1892,E-5,329.5,11/40,59,42.38
1893,B-3,329.5,0.5,36,42.38
1894,G#4,329.5,0.5,36,42.38
1895,D5,329.75,0.25,54,42.38
1896,F5,330.0,1.0,57,42.38
1897,B3,330.0,1.0,38,42.38
1898,G#4,330.0,1.0,38,42.38
1899,E-5,331.0,0.5,52,42.38
1900,C4,331.0,0.5,36,42.38
1901,G4,331.0,0.5,36,42.38
1902,E-5,332.0,1.0,54,42.38
1903,F3,332.0,0.25,38,42.38
1904,C4,332.25,0.25,31,42.38
1905,A3,332.5,0.25,36,42.38
1906,C4,332.75,0.25,31,42.38
1907,D5,333.0,11/40,54,42.38
1908,E-3,333.0,0.25,38,42.38
1909,C5,333.25,11/40,50,42.38
1910,C4,333.25,0.25,33,42.38
1911,B-4,333.5,11/40,54,42.38
1912,F3,333.5,0.25,36,42.38
1913,A4,333.75,0.25,50,42.38
1914,C4,333.75,0.25,32,42.38
1915,G#5,334.0,1.0,63,42.38
1916,D3,334.0,0.25,40,42.38
1917,B-3,334.25,0.25,31,42.38
1918,F3,334.512,0.25,36,42.38
1919,B-3,334.75,0.25,31,42.38
1920,G5,335.0,11/40,54,42.38
1921,G#3,335.0,0.25,40,42.38
1922,F5,335.25,11/40,50,42.38
1923,F4,335.25,0.25,33,42.38
1924,E-5,335.5,11/40,54,42.38
1925,B-3,335.5,0.25,36,42.38
1926,D5,335.75,0.25,50,42.38
1927,F4,335.75,0.25,32,42.38
1928,E-5,336.0,0.25,56,42.38
1929,E-4,336.0,0.5,33,42.38
1930,G3,336.0,0.5,33,42.38
1931,G4,336.25,0.25,54,42.38
1932,F4,336.5,0.25,56,42.38
1933,C4,336.5,0.5,30,42.38
1934,G#3,336.5,0.5,30,42.38
1935,C5,336.75,0.25,50,42.38
1936,B-4,337.0,0.25,54,42.38
1937,B-2,337.0,0.5,33,42.38
1938,G3,337.0,0.5,33,42.38
1939,E-4,337.25,0.25,49,42.38
1940,G#4,337.5,0.25,54,42.38
1941,B-2,337.5,0.5,30,42.38
1942,F3,337.5,0.5,30,42.38
1943,D4,337.75,0.25,49,42.38
1944,E-4,338.0,1.0,55,42.38
1945,E-3,338.0,0.25,40,42.38
1946,G3,338.25,0.25,36,42.38
1947,B-3,338.5,0.125,39,42.38
1948,B-3,338.75,0.125,36,42.38
1949,B-3,339.015,0.5,40,42.38
1950,G#5,339.25,0.25,49,42.38
1951,F5,339.5,0.25,53,42.38
1952,D5,339.75,0.25,50,42.38
1953,B-5,340.0,1.0,58,42.38
1954,E-4,340.0,0.25,37,42.38
1955,G4,340.25,0.25,33,42.38
1956,B-4,340.5,0.125,37,42.38
1957,B-4,340.75,0.125,33,42.38
1958,B-4,341.015,0.5,38,42.38
1959,G#5,341.25,0.25,46,42.38
1960,F5,341.5,0.25,49,42.38
1961,D5,341.75,0.25,46,42.38
1962,E-5,342.0,1.0,55,42.38
1963,E-2,342.0,0.25,36,42.38
1964,G2,342.25,0.25,31,42.38
1965,B-2,342.5,0.125,36,42.38
1966,B-2,342.75,0.125,33,42.38
1967,B-2,343.015,0.5,37,42.38
1968,G#4,343.25,0.25,45,42.38
1969,F4,343.5,0.25,47,42.38
1970,D4,343.75,0.25,39,42.38
1971,G#3,344.0,2.0,33,42.38
1972,F4,344.0,2.0,33,42.38
1973,B-1,344.0,2.0,28,42.38
1974,B-2,344.0,2.0,28,42.38
1975,E-2,346.0,0.5,27,42.38
1976,G3,346.0,0.5,27,42.38
1977,E-4,346.0,0.5,27,42.38
