,note_name,start_time,duration,velocity,tempo
0,G4,2.5,0.25,48,206.99
1,C5,3.0,0.25,49,206.99
2,D5,3.5,0.25,51,206.99
3,E-5,4.0,1.5,52,206.99
4,C3,4.0,0.5,40,206.99
5,E-3,4.5,0.5,36,206.99
6,G3,5.0,0.5,36,206.99
7,F5,5.5,0.5,50,206.99
8,C4,5.5,0.5,36,206.99
9,D5,6.0,1.5,53,206.99
10,C3,6.0,0.5,40,206.99
11,F3,6.5,0.5,40,206.99
12,G3,7.0,0.5,36,206.99
13,E-5,7.5,0.5,50,206.99
14,B3,7.5,0.5,36,206.99
15,C5,8.0,1.875,52,206.99
16,C3,8.0,0.5,40,206.99
17,E-3,8.5,0.5,40,206.99
18,G3,9.0,0.5,36,206.99
19,C4,9.5,0.5,36,206.99
20,D5,9.875,0.125,48,206.99
21,C5,10.0,0.5,52,206.99
22,E-4,10.0,0.5,40,206.99
23,B4,10.5,0.5,51,206.99
24,G4,10.5,0.5,36,206.99
25,C5,11.0,0.5,51,206.99
26,E-4,11.0,0.5,36,206.99
27,D5,11.5,0.375,50,206.99
28,D4,11.5,0.5,36,206.99
29,F5,11.875,0.125,49,206.99
30,E-5,12.0,0.5,56,206.99
31,C4,12.0,0.5,40,206.99
32,D5,12.5,0.5,52,206.99
33,G4,12.5,0.5,36,206.99
34,E-5,13.0,0.5,52,206.99
35,C4,13.0,0.5,36,206.99
36,E-4,13.0,0.5,36,206.99
37,F5,13.5,0.5,52,206.99
38,G4,13.5,0.5,36,206.99
39,G5,14.0,0.5,56,206.99
40,B3,14.0,0.5,41,206.99
41,D4,14.0,0.5,41,206.99
42,G4,14.5,0.5,36,206.99
43,G5,15.0,0.5,55,206.99
44,C4,15.0,0.5,36,206.99
45,G#3,15.0,0.5,36,206.99
46,G4,15.5,0.5,36,206.99
47,G5,16.0,3.0,57,206.99
48,G3,16.0,0.5,40,206.99
49,B3,16.5,0.5,29,206.99
50,D4,17.0,0.5,28,206.99
51,G4,17.5,0.5,28,206.99
52,G3,18.0,0.5,40,206.99
53,B3,18.5,0.5,31,206.99
54,F5,19.0,0.5,51,206.99
55,D4,19.0,0.5,31,206.99
56,G5,19.5,0.25,53,206.99
57,G4,19.5,0.5,31,206.99
58,F5,19.75,0.125,48,206.99
59,G5,19.875,0.125,48,206.99
60,G#5,20.0,2.0,56,206.99
61,F3,20.0,0.5,40,206.99
62,G#3,20.5,0.5,36,206.99
63,B3,21.0,0.5,37,206.99
64,D4,21.5,0.5,37,206.99
65,D5,22.0,1.0,52,206.99
66,F3,22.0,0.5,40,206.99
67,G#3,22.5,0.5,36,206.99
68,E-5,23.0,0.5,51,206.99
69,B3,23.0,0.5,36,206.99
70,F5,23.5,0.25,53,206.99
71,D4,23.5,0.5,36,206.99
72,E-5,23.75,0.125,50,206.99
73,F5,23.875,0.125,50,206.99
74,G5,24.0,2.0,56,206.99
75,E-3,24.0,0.5,40,206.99
76,G3,24.5,0.5,34,206.99
77,C4,25.0,0.5,34,206.99
78,E-4,25.5,0.5,33,206.99
79,C5,26.0,247/250,52,206.99
80,G#3,26.0,0.5,41,206.99
81,C4,26.5,0.5,35,206.99
82,C5,27.0,0.5,53,206.99
83,E-4,27.0,0.5,35,206.99
84,D5,27.5,0.5,54,206.99
85,F#4,27.5,0.5,35,206.99
86,E-5,28.0,0.5,57,206.99
87,G3,28.0,0.5,40,206.99
88,C4,28.5,0.5,40,206.99
89,E-5,29.0,0.5,53,206.99
90,E-4,29.0,0.5,35,206.99
91,F5,29.5,0.5,46,206.99
92,G4,29.5,0.5,35,206.99
93,D5,30.0,0.5,57,206.99
94,G3,30.0,0.5,40,206.99
95,B3,30.5,0.5,36,206.99
96,D5,31.0,0.5,51,206.99
97,D4,31.0,0.5,36,206.99
98,E-5,31.5,0.5,54,206.99
99,G4,31.5,0.5,36,206.99
100,C5,32.0,1.0,57,206.99
101,C3,32.5,0.5,38,206.99
102,E-3,33.0,0.5,42,206.99
103,G3,33.5,0.5,45,206.99
104,C4,34.0,1.0,49,206.99
105,F5,35.0,0.5,56,206.99
106,G5,35.5,0.5,58,206.99
107,G#4,36.0,2.0,56,206.99
108,G#5,36.0,2.0,56,206.99
109,F2,36.5,0.5,43,206.99
110,B2,37.0,0.5,45,206.99
111,D3,37.5,0.5,47,206.99
112,D5,38.0,1.0,57,206.99
113,F3,38.0,0.5,49,206.99
114,G#3,38.5,0.5,43,206.99
115,E-5,39.0,0.5,56,206.99
116,G3,39.0,0.5,43,206.99
117,F5,39.5,0.5,58,206.99
118,F3,39.5,0.5,43,206.99
119,G4,40.0,2.0,56,206.99
120,G5,40.0,2.0,56,206.99
121,E-2,40.5,0.5,40,206.99
122,G2,41.0,0.5,42,206.99
123,C3,41.5,0.5,45,206.99
124,C5,42.0,1.0,57,206.99
125,E-3,42.0,0.5,48,206.99
126,G3,42.5,0.5,40,206.99
127,C5,43.0,0.5,58,206.99
128,G#3,43.0,0.5,39,206.99
129,D5,43.5,0.5,59,206.99
130,F#3,43.5,0.5,39,206.99
131,E-5,44.0,0.5,62,206.99
132,G2,44.0,0.5,48,206.99
133,G3,44.5,0.5,44,206.99
134,E-5,45.0,0.5,58,206.99
135,C4,45.0,0.5,38,206.99
136,F5,45.5,0.5,60,206.99
137,G3,45.5,0.5,38,206.99
138,D5,46.0,0.5,62,206.99
139,G2,46.0,0.5,48,206.99
140,G3,46.5,0.5,39,206.99
141,D5,47.0,0.5,56,206.99
142,B3,47.0,0.5,39,206.99
143,E-5,47.5,0.5,59,206.99
144,G3,47.5,0.5,39,206.99
145,C5,48.0,0.5,62,206.99
146,C3,48.0,0.5,52,206.99
147,C4,48.5,0.5,45,206.99
148,B-5,49.0,2.0,74,206.99
149,B3,49.0,0.5,45,206.99
150,C4,49.5,0.5,45,206.99
151,E3,50.0,0.5,52,206.99
152,C4,50.5,0.5,48,206.99
153,B-5,51.0,1.0,73,206.99
154,G3,51.0,0.5,48,206.99
155,C4,51.5,0.5,48,206.99
156,B-5,52.0,0.5,73,206.99
157,F3,52.0,0.5,53,206.99
158,G#5,52.5,0.5,71,206.99
159,C4,52.5,0.5,49,206.99
160,G5,53.0,0.5,72,206.99
161,G#3,53.0,0.5,50,206.99
162,F5,53.5,0.5,72,206.99
163,C4,53.5,0.5,49,206.99
164,E-5,54.0,0.5,71,206.99
165,G3,54.0,0.5,54,206.99
166,D5,54.5,0.5,71,206.99
167,F4,54.5,0.5,52,206.99
168,C5,55.0,0.5,71,206.99
169,B3,55.0,0.5,46,206.99
170,B4,55.5,0.5,71,206.99
171,F4,55.5,0.5,50,206.99
172,C5,56.0,0.5,73,206.99
173,G#3,56.0,0.5,54,206.99
174,E-4,56.5,0.5,47,206.99
175,C4,57.0,0.5,47,206.99
176,C5,57.0,2.0,73,206.99
177,C6,57.0,2.0,73,206.99
178,E-4,57.5,0.5,47,206.99
179,G3,58.0,0.5,62,206.99
180,E4,58.5,0.5,54,206.99
181,B-5,59.0,1.0,80,206.99
182,C4,59.0,0.5,55,206.99
183,E4,59.5,0.5,55,206.99
184,B-5,60.0,0.5,80,206.99
185,F3,60.0,0.5,64,206.99
186,G#5,60.5,0.5,81,206.99
187,F4,60.5,0.5,57,206.99
188,G5,61.0,0.5,82,206.99
189,C4,61.0,0.5,58,206.99
190,F5,61.5,0.5,81,206.99
191,F4,61.5,0.5,57,206.99
192,E-5,62.0,0.5,79,206.99
193,G3,62.0,0.5,63,206.99
194,D5,62.5,0.5,79,206.99
195,G4,62.5,0.5,57,206.99
196,C5,63.0,0.5,79,206.99
197,G3,63.0,0.5,57,206.99
198,B4,63.5,0.5,78,206.99
199,G4,63.5,0.5,56,206.99
200,C5,64.0,0.5,89,206.99
201,C4,64.0,0.5,68,206.99
202,D5,65.0,167/1000,81,206.99
203,G3,65.0,0.5,62,206.99
204,B3,65.0,0.5,62,206.99
205,E-5,65.167,167/1000,81,206.99
206,D5,65.333,167/1000,81,206.99
207,E-5,65.5,0.125,81,206.99
208,D5,65.625,0.125,81,206.99
209,C5,65.75,0.125,80,206.99
210,D5,65.875,0.125,80,206.99
211,E-5,66.0,0.5,92,206.99
212,C3,66.0,0.5,62,206.99
213,C4,66.0,0.5,62,206.99
214,B4,67.0,0.5,92,206.99
215,D5,67.0,0.5,92,206.99
216,B5,67.0,0.5,92,206.99
217,G2,67.0,0.5,62,206.99
218,G3,67.0,0.5,62,206.99
219,C5,68.0,0.5,92,206.99
220,E-5,68.0,0.5,92,206.99
221,C6,68.0,0.5,92,206.99
222,C2,68.0,0.5,69,206.99
223,C3,68.0,0.5,69,206.99
224,G3,72.0,4.0,77,206.99
225,C4,72.0,4.0,77,206.99
226,E4,72.0,4.0,77,206.99
227,B-1,72.0,4.0,64,206.99
228,B-2,72.0,4.0,64,206.99
229,F4,76.0,0.5,50,206.99
230,G#1,76.0,1.0,62,206.99
231,G#2,76.0,1.0,62,206.99
232,C5,76.5,0.5,51,206.99
233,G#4,77.0,0.5,53,206.99
234,F5,77.5,0.5,54,206.99
235,C5,78.0,0.5,55,206.99
236,G#5,78.5,0.5,56,206.99
237,F5,79.0,0.5,57,206.99
238,C6,79.5,0.5,59,206.99
239,B-5,80.0,0.5,59,206.99
240,G5,80.5,0.5,59,206.99
241,E5,81.0,0.5,58,206.99
242,E3,81.0,1.0,50,206.99
243,C4,81.0,1.0,50,206.99
244,C5,81.5,0.5,57,206.99
245,B-4,82.0,0.5,56,206.99
246,E3,82.0,1.0,50,206.99
247,C4,82.0,1.0,50,206.99
248,B4,82.5,0.5,55,206.99
249,C5,83.0,0.5,55,206.99
250,E3,83.0,1.0,50,206.99
251,C4,83.0,1.0,50,206.99
252,G4,83.5,0.5,54,206.99
253,B-4,84.0,2.0,60,206.99
254,F3,84.0,3.0,50,206.99
255,C4,84.0,3.0,50,206.99
256,G#4,86.0,1.0,56,206.99
257,F3,88.0,4.0,77,206.99
258,B-3,88.0,4.0,77,206.99
259,D4,88.0,4.0,77,206.99
260,G#1,88.0,4.0,64,206.99
261,G#2,88.0,4.0,64,206.99
262,E-4,92.0,0.5,50,206.99
263,G1,92.0,1.0,62,206.99
264,G2,92.0,1.0,62,206.99
265,B-4,92.5,0.5,51,206.99
266,G4,93.0,0.5,53,206.99
267,E-5,93.5,0.5,54,206.99
268,B-4,94.0,0.5,55,206.99
269,G5,94.5,0.5,56,206.99
270,E-5,95.0,0.5,57,206.99
271,B-5,95.5,0.5,59,206.99
272,G#5,96.0,0.5,59,206.99
273,G5,96.5,0.5,59,206.99
274,F5,97.0,0.5,58,206.99
275,D3,97.0,1.0,50,206.99
276,B-3,97.0,1.0,50,206.99
277,E-5,97.5,0.5,57,206.99
278,D5,98.0,0.5,56,206.99
279,D3,98.0,1.0,50,206.99
280,B-3,98.0,1.0,50,206.99
281,C5,98.5,0.5,55,206.99
282,B-4,99.0,0.5,55,206.99
283,D3,99.0,1.0,50,206.99
284,B-3,99.0,1.0,50,206.99
285,G#4,99.5,0.5,54,206.99
286,G4,100.0,0.5,60,206.99
287,E-3,100.0,0.5,46,206.99
288,B-3,100.5,0.5,31,206.99
289,B-4,101.0,2.0,60,206.99
290,E-4,101.0,0.5,31,206.99
291,B-3,101.5,0.5,31,206.99
292,G#3,102.0,0.5,42,206.99
293,B-3,102.5,0.5,30,206.99
294,B-4,103.0,1.0,56,206.99
295,D4,103.0,0.5,30,206.99
296,B-3,103.5,0.5,30,206.99
297,B-4,104.0,0.5,56,206.99
298,G3,104.0,0.5,42,206.99
299,C5,104.5,0.5,54,206.99
300,B-3,104.5,0.5,33,206.99
301,D5,105.0,0.5,55,206.99
302,E-4,105.0,0.5,33,206.99
303,E-5,105.5,0.5,57,206.99
304,B-3,105.5,0.5,34,206.99
305,F5,106.0,0.5,58,206.99
306,D3,106.0,0.5,41,206.99
307,G5,106.5,0.5,60,206.99
308,B-3,106.5,0.5,33,206.99
309,G#5,107.0,0.5,61,206.99
310,D4,107.0,0.5,33,206.99
311,F5,107.5,0.5,58,206.99
312,B-3,107.5,0.5,33,206.99
313,G#5,108.0,0.5,61,206.99
314,E-3,108.0,0.5,40,206.99
315,G5,108.5,0.5,60,206.99
316,B-3,108.5,0.5,35,206.99
317,F5,109.0,0.5,59,206.99
318,E-4,109.0,0.5,35,206.99
319,E-5,109.5,229/500,58,206.99
320,B-3,109.5,0.5,35,206.99
321,E-5,110.0,0.5,60,206.99
322,G#3,110.0,0.5,40,206.99
323,D5,110.5,0.5,58,206.99
324,B-3,110.5,0.5,35,206.99
325,C5,111.0,0.5,58,206.99
326,F4,111.0,0.5,36,206.99
327,D5,111.5,0.5,58,206.99
328,B-3,111.5,0.5,36,206.99
329,F5,112.0,0.5,63,206.99
330,G3,112.0,0.5,40,206.99
331,E-5,112.5,0.5,57,206.99
332,B-3,112.5,0.5,35,206.99
333,D5,113.0,0.5,57,206.99
334,E-4,113.0,0.5,36,206.99
335,C5,113.5,0.5,57,206.99
336,B-3,113.5,0.5,36,206.99
337,D3,114.0,0.5,40,206.99
338,G#4,114.0,9/10,60,206.99
339,B-4,114.0,9/10,60,206.99
340,B-3,114.5,0.5,34,206.99
341,D3,115.0,0.5,34,206.99
342,G#4,115.0,9/10,60,206.99
343,B-4,115.0,9/10,60,206.99
344,B-3,115.5,0.5,34,206.99
345,G#4,116.0,0.5,60,206.99
346,B-4,116.0,4.0,60,206.99
347,E-3,116.0,0.5,41,206.99
348,G4,116.5,0.5,53,206.99
349,B-3,116.5,0.5,34,206.99
350,F4,117.0,0.5,53,206.99
351,E-3,117.0,0.5,34,206.99
352,E-4,117.5,229/500,53,206.99
353,B-3,117.5,0.5,34,206.99
354,E-4,118.0,0.5,57,206.99
355,G#3,118.0,0.5,40,206.99
356,D4,118.5,0.5,52,206.99
357,B-3,118.5,0.5,34,206.99
358,C4,119.0,0.5,52,206.99
359,G#3,119.0,0.5,34,206.99
360,D4,119.5,0.5,52,206.99
361,B-3,119.5,0.5,34,206.99
362,E-4,120.0,0.5,55,206.99
363,B-4,120.0,0.5,60,206.99
364,F#3,120.0,0.5,40,206.99
365,C5,120.5,0.5,56,206.99
366,B-3,120.5,0.5,36,206.99
367,D5,121.0,0.5,58,206.99
368,F#3,121.0,0.5,37,206.99
369,E-5,121.5,0.5,59,206.99
370,B-3,121.5,0.5,37,206.99
371,F5,122.0,0.5,61,206.99
372,D3,122.0,0.5,41,206.99
373,F#5,122.5,0.5,63,206.99
374,B-3,122.5,0.5,36,206.99
375,G#5,123.0,0.5,64,206.99
376,D3,123.0,0.5,36,206.99
377,F5,123.5,0.5,62,206.99
378,B-3,123.5,0.5,36,206.99
379,F#5,124.0,1.0,65,206.99
380,E-3,124.0,0.5,39,206.99
381,B-3,124.5,0.5,39,206.99
382,B-5,125.0,1979/1000,72,206.99
383,F#3,125.0,0.5,41,206.99
384,B-3,125.5,0.5,41,206.99
385,B-2,126.0,0.5,42,206.99
386,B-3,126.5,0.5,43,206.99
387,B-5,127.0,1.0,74,206.99
388,D3,127.0,0.5,44,206.99
389,B-3,127.5,0.5,45,206.99
390,B-5,128.0,1.0,74,206.99
391,B2,128.0,0.5,45,206.99
392,B-3,128.5,0.5,47,206.99
393,E-6,129.0,2.0,91,206.99
394,E-3,129.0,0.5,51,206.99
395,B-3,129.5,0.5,54,206.99
396,B2,130.0,0.5,58,206.99
397,A3,130.5,0.5,49,206.99
398,A5,131.0,1.0,78,206.99
399,E-3,131.0,0.5,49,206.99
400,A3,131.5,0.5,49,206.99
401,B-5,132.0,2333/1000,60,206.99
402,B-2,132.0,1.0,60,206.99
403,B-3,133.0,0.5,49,206.99
404,D4,133.0,0.5,49,206.99
405,F4,133.0,0.5,49,206.99
406,B-3,134.0,2.0,63,206.99
407,F#4,134.0,2.0,63,206.99
408,E-4,134.0,2.0,63,206.99
409,A5,134.333,333/1000,49,206.99
410,B-5,134.667,333/1000,51,206.99
411,C6,135.0,333/1000,53,206.99
412,B-5,135.333,333/1000,50,206.99
413,A5,135.667,333/1000,50,206.99
414,B-5,136.0,2333/1000,50,206.99
415,B-3,137.0,0.5,49,206.99
416,D4,137.0,0.5,49,206.99
417,F4,137.0,0.5,49,206.99
418,B-3,138.0,2.0,63,206.99
419,F#4,138.0,2.0,63,206.99
420,E-4,138.0,2.0,63,206.99
421,A5,138.333,333/1000,49,206.99
422,B-5,138.667,333/1000,51,206.99
423,C6,139.0,333/1000,53,206.99
424,B-5,139.333,333/1000,50,206.99
425,A5,139.667,333/1000,50,206.99
426,B-3,140.0,1.0,49,206.99
427,D4,140.0,1.0,49,206.99
428,F4,140.0,1.0,49,206.99
429,B-5,140.333,333/1000,54,206.99
430,C6,140.667,333/1000,56,206.99
431,D6,141.0,333/1000,58,206.99
432,C6,141.333,333/1000,55,206.99
433,B-5,141.667,333/1000,52,206.99
434,B-3,142.0,1.0,49,206.99
435,F4,142.0,1.0,49,206.99
436,G#4,142.0,1.0,49,206.99
437,D6,142.333,333/1000,54,206.99
438,E-6,142.667,333/1000,57,206.99
439,F6,143.0,333/1000,59,206.99
440,E-6,143.333,333/1000,57,206.99
441,D6,143.667,333/1000,55,206.99
442,F6,144.0,333/1000,63,206.99
443,B-3,144.0,1.0,48,206.99
444,D4,144.0,1.0,48,206.99
445,F4,144.0,1.0,48,206.99
446,G#4,144.0,1.0,48,206.99
447,E-6,144.333,333/1000,63,206.99
448,D6,144.667,333/1000,62,206.99
449,C6,145.0,333/1000,61,206.99
450,B-5,145.333,333/1000,60,206.99
451,G#5,145.667,333/1000,59,206.99
452,G5,146.0,333/1000,59,206.99
453,F5,146.333,333/1000,58,206.99
454,E-5,146.667,333/1000,57,206.99
455,D5,147.0,0.25,56,206.99
456,C5,147.25,0.25,56,206.99
457,B-4,147.5,0.25,55,206.99
458,G#4,147.75,0.25,54,206.99
459,G4,148.0,177/500,59,206.99
460,E-3,148.0,1.0,55,206.99
461,E-4,148.333,177/500,55,206.99
462,F4,148.667,177/500,55,206.99
463,G4,149.0,177/500,59,206.99
464,F4,149.333,177/500,55,206.99
465,E-4,149.667,177/500,55,206.99
466,G#4,150.0,2.0,59,206.99
467,B-3,150.333,177/500,45,206.99
468,C4,150.667,177/500,48,206.99
469,D4,151.0,177/500,50,206.99
470,C4,151.333,177/500,48,206.99
471,B-3,151.667,333/1000,45,206.99
472,G4,152.0,177/500,59,206.99
473,E-4,152.0,1.0,55,206.99
474,B-3,152.0,21/1000,45,206.99
475,E-5,152.333,177/500,55,206.99
476,F5,152.667,177/500,55,206.99
477,G5,153.0,177/500,59,206.99
478,F5,153.333,177/500,55,206.99
479,E-5,153.667,177/500,55,206.99
480,G#5,154.0,2.0,59,206.99
481,B-3,154.333,177/500,43,206.99
482,C4,154.667,177/500,47,206.99
483,D4,155.0,177/500,50,206.99
484,C4,155.333,177/500,48,206.99
485,B-3,155.667,333/1000,45,206.99
486,G5,156.0,333/1000,59,206.99
487,E-4,156.0,1.0,55,206.99
488,B-3,156.0,21/1000,45,206.99
489,E-5,156.333,333/1000,59,206.99
490,F5,156.667,333/1000,59,206.99
491,G5,157.0,333/1000,64,206.99
492,F5,157.333,333/1000,57,206.99
493,E-5,157.667,333/1000,58,206.99
494,B-5,158.0,333/1000,67,206.99
495,E-4,158.0,1.0,55,206.99
496,G5,158.333,333/1000,59,206.99
497,G#5,158.667,333/1000,59,206.99
498,B-5,159.0,333/1000,62,206.99
499,G#5,159.333,333/1000,65,206.99
500,G5,159.667,333/1000,67,206.99
501,C#6,160.0,177/500,69,206.99
502,C#4,160.0,1.0,55,206.99
503,G3,160.0,1.0,55,206.99
504,B-3,160.0,1.0,55,206.99
505,E-4,160.0,1.0,55,206.99
506,C6,160.333,177/500,68,206.99
507,B-5,160.667,177/500,67,206.99
508,G#5,161.0,177/500,66,206.99
509,G5,161.333,177/500,65,206.99
510,F5,161.667,177/500,63,206.99
511,E-5,162.0,177/500,59,206.99
512,D5,162.333,177/500,55,206.99
513,E-5,162.667,177/500,55,206.99
514,E5,163.0,177/500,59,206.99
515,F5,163.333,177/500,56,206.99
516,C#5,163.667,333/1000,56,206.99
517,C#5,164.0,21/1000,56,206.99
518,G#2,164.0,333/1000,52,206.99
519,C3,164.333,333/1000,54,206.99
520,E-3,164.667,333/1000,56,206.99
521,C4,165.0,333/1000,57,206.99
522,G#3,165.0,1.0,59,206.99
523,E-4,165.333,333/1000,59,206.99
524,G#4,165.667,333/1000,62,206.99
525,C5,166.0,333/1000,64,206.99
526,E-5,166.333,333/1000,66,206.99
527,G#5,166.667,333/1000,68,206.99
528,C6,167.0,0.25,70,206.99
529,C6,167.5,0.25,70,206.99
530,C6,168.0,0.5,70,206.99
531,B-3,168.0,1.0,51,206.99
532,E-4,168.0,1.0,51,206.99
533,G4,168.0,1.0,51,206.99
534,B-5,168.5,0.5,68,206.99
535,G#5,169.0,0.25,66,206.99
536,G5,169.5,0.25,64,206.99
537,G5,170.0,0.5,65,206.99
538,B-3,170.0,1.0,52,206.99
539,F4,170.0,1.0,52,206.99
540,G#4,170.0,1.0,52,206.99
541,F5,170.5,0.5,63,206.99
542,E-5,171.0,0.25,61,206.99
543,D5,171.5,0.25,59,206.99
544,E-5,172.0,1.0,63,206.99
545,E-4,172.0,1.0,54,206.99
546,G4,172.0,1.0,54,206.99
547,B-3,175.0,979/1000,45,206.99
548,D4,176.0,0.5,41,206.99
549,F4,176.0,0.5,41,206.99
550,B-3,176.0,0.5,36,206.99
551,G#3,176.0,0.5,36,206.99
552,D4,177.0,0.5,42,206.99
553,F4,177.0,0.5,42,206.99
554,G#3,177.0,0.5,37,206.99
555,B-3,177.0,0.5,37,206.99
556,D4,178.0,0.5,42,206.99
557,F4,178.0,0.5,42,206.99
558,B-3,178.0,0.5,38,206.99
559,G#3,178.0,0.5,38,206.99
560,D4,179.0,0.5,42,206.99
561,F4,179.0,0.5,42,206.99
562,G#3,179.0,0.5,40,206.99
563,B-3,179.0,0.5,40,206.99
564,E-4,180.0,3.0,44,206.99
565,B-4,180.0,3.0,44,206.99
566,G3,180.0,3.0,41,206.99
567,B-3,180.0,3.0,41,206.99
568,G3,183.0,1.0,42,206.99
569,E-4,183.0,1.0,46,206.99
570,B-4,183.0,1.0,46,206.99
571,C4,184.0,2.0,45,206.99
572,E-4,184.0,2.0,44,206.99
573,G#4,184.0,2.0,44,206.99
574,B3,186.0,2.0,43,206.99
575,F4,186.0,2.0,40,206.99
576,E-4,186.0,2.0,40,206.99
577,A4,186.0,2.0,40,206.99
578,B-3,188.0,3.0,43,206.99
579,D4,188.0,3.0,41,206.99
580,F4,188.0,3.0,41,206.99
581,B-4,188.0,3.0,41,206.99
582,B-4,191.0,979/1000,50,206.99
583,B-4,192.0,0.5,46,206.99
584,F5,192.0,0.5,46,206.99
585,D4,192.0,0.5,40,206.99
586,G#3,192.0,0.5,40,206.99
587,B-4,193.0,0.5,49,206.99
588,F5,193.0,0.5,49,206.99
589,G#3,193.0,0.5,43,206.99
590,D4,193.0,0.5,43,206.99
591,B-4,194.0,0.5,52,206.99
592,F5,194.0,0.5,52,206.99
593,D4,194.0,0.5,46,206.99
594,G#3,194.0,0.5,46,206.99
595,B-4,195.0,0.5,54,206.99
596,F5,195.0,0.5,54,206.99
597,G#3,195.0,0.5,50,206.99
598,D4,195.0,0.5,50,206.99
599,B-4,196.0,2.0,73,206.99
600,B-5,196.0,3.0,73,206.99
601,G3,196.0,4.0,55,206.99
602,E-4,196.0,4.0,55,206.99
603,C#5,198.0,2.0,80,206.99
604,B5,199.0,1.0,72,206.99
605,C5,200.0,1.0,80,206.99
606,C6,200.0,1.0,80,206.99
607,G#3,200.0,1.0,66,206.99
608,E-4,200.0,1.0,66,206.99
609,F4,202.0,1.0,78,206.99
610,G#4,202.0,1.0,78,206.99
611,D5,202.0,1.0,78,206.99
612,B-2,202.0,1.0,66,206.99
613,B-3,202.0,1.0,66,206.99
614,G4,204.0,1.0,52,206.99
615,E-5,204.0,1.0,52,206.99
616,E-4,204.333,177/500,55,206.99
617,F4,204.667,177/500,55,206.99
618,G4,205.0,177/500,59,206.99
619,F4,205.333,177/500,55,206.99
620,E-4,205.667,177/500,55,206.99
621,G#4,206.0,2.0,59,206.99
622,B-4,206.333,177/500,54,206.99
623,C5,206.667,177/500,56,206.99
624,D5,207.0,177/500,57,206.99
625,C5,207.333,177/500,54,206.99
626,B-4,207.667,333/1000,51,206.99
627,E-5,208.0,1.0,55,206.99
628,B-4,208.0,21/1000,51,206.99
629,G4,208.0,177/500,59,206.99
630,E-4,208.333,177/500,55,206.99
631,F4,208.667,177/500,55,206.99
632,G4,209.0,177/500,59,206.99
633,F4,209.333,177/500,55,206.99
634,E-4,209.667,177/500,55,206.99
635,G#4,210.0,2.0,59,206.99
636,B-4,210.333,177/500,54,206.99
637,C5,210.667,177/500,56,206.99
638,D5,211.0,177/500,57,206.99
639,C5,211.333,177/500,54,206.99
640,B-4,211.667,333/1000,51,206.99
641,E-5,212.0,333/1000,56,206.99
642,B-4,212.0,21/1000,51,206.99
643,G4,212.0,0.5,55,206.99
644,E-4,212.0,0.5,55,206.99
645,G5,212.333,333/1000,59,206.99
646,F5,212.667,333/1000,52,206.99
647,E-5,213.0,333/1000,59,206.99
648,C4,213.012,0.5,52,206.99
649,D5,213.333,333/1000,57,206.99
650,C5,213.667,333/1000,58,206.99
651,B4,214.0,333/1000,54,206.99
652,G#3,214.0,0.5,52,206.99
653,C5,214.333,333/1000,54,206.99
654,B-4,214.667,333/1000,53,206.99
655,G#4,215.0,333/1000,53,206.99
656,B-3,215.0,0.5,52,206.99
657,G4,215.333,333/1000,52,206.99
658,F4,215.667,333/1000,52,206.99
659,E-4,216.0,1.0,55,206.99
660,E-2,216.333,177/500,49,206.99
661,F2,216.667,177/500,49,206.99
662,G2,217.0,177/500,53,206.99
663,F2,217.333,177/500,49,206.99
664,E-2,217.667,177/500,49,206.99
665,G#2,218.0,2.0,70,206.99
666,B-3,218.333,177/500,54,206.99
667,C4,218.667,177/500,56,206.99
668,D4,219.0,177/500,57,206.99
669,C4,219.333,177/500,54,206.99
670,B-3,219.667,333/1000,51,206.99
671,E-4,220.0,1.0,55,206.99
672,B-3,220.0,21/1000,51,206.99
673,G2,220.0,177/500,53,206.99
674,E-2,220.333,177/500,49,206.99
675,F2,220.667,177/500,49,206.99
676,G2,221.0,177/500,53,206.99
677,F2,221.333,177/500,49,206.99
678,E-2,221.667,177/500,49,206.99
679,G#2,222.0,2.0,70,206.99
680,B-3,222.333,177/500,54,206.99
681,C4,222.667,177/500,56,206.99
682,D4,223.0,177/500,57,206.99
683,C4,223.333,177/500,54,206.99
684,B-3,223.667,333/1000,51,206.99
685,E-4,224.0,1.0,55,206.99
686,B-3,224.0,21/1000,51,206.99
687,G2,224.0,177/500,53,206.99
688,E-2,224.333,177/500,49,206.99
689,F2,224.667,177/500,49,206.99
690,G2,225.0,177/500,53,206.99
691,F2,225.333,177/500,49,206.99
692,E-2,225.667,177/500,49,206.99
693,G#2,226.0,2.0,70,206.99
694,B3,226.333,177/500,54,206.99
695,C4,226.667,177/500,56,206.99
696,D4,227.0,177/500,57,206.99
697,C4,227.333,177/500,54,206.99
698,B3,227.667,333/1000,51,206.99
699,F4,228.0,177/500,64,206.99
700,B3,228.0,21/1000,51,206.99
701,G#2,228.0,4.0,70,206.99
702,E-4,228.338,177/500,54,206.99
703,D4,228.669,333/1000,58,206.99
704,G#4,228.985,177/500,66,206.99
705,G4,229.338,177/500,58,206.99
706,F4,229.669,333/1000,61,206.99
707,D5,230.0,177/500,70,206.99
708,C5,230.331,177/500,60,206.99
709,B4,230.669,333/1000,64,206.99
710,F5,231.012,177/500,74,206.99
711,E-5,231.331,177/500,64,206.99
712,D5,231.669,331/1000,68,206.99
713,F6,232.0,3.0,100,206.99
714,D5,232.0,1/500,68,206.99
715,G1,232.0,4.0,78,206.99
716,G2,232.0,4.0,78,206.99
717,E-6,235.0,333/1000,86,206.99
718,D6,235.333,333/1000,85,206.99
719,C6,235.667,333/1000,83,206.99
720,B5,236.0,333/1000,82,206.99
721,G#5,236.333,333/1000,81,206.99
722,G5,236.667,333/1000,79,206.99
723,F5,237.0,333/1000,78,206.99
724,E-5,237.333,333/1000,77,206.99
725,D5,237.667,333/1000,75,206.99
726,C5,238.0,333/1000,74,206.99
727,B4,238.333,333/1000,72,206.99
728,G#4,238.667,333/1000,71,206.99
729,G4,239.0,1/5,70,206.99
730,F4,239.2,1/5,68,206.99
731,E-4,239.4,1/5,69,206.99
732,D4,239.6,1/5,70,206.99
733,C4,239.8,1/5,71,206.99
734,B3,240.0,4.0,93,206.99
735,G1,240.0,4.0,78,206.99
736,G2,240.0,4.0,78,206.99
737,B3,244.0,2.0,93,206.99
738,G2,244.0,4.0,73,206.99
739,D3,244.0,4.0,73,206.99
740,F3,244.0,4.0,73,206.99
741,G4,246.5,0.25,48,206.99
742,C5,247.0,0.25,49,206.99
743,D5,247.5,0.25,51,206.99
744,E-5,248.0,1.5,52,206.99
745,F5,249.5,0.5,50,206.99
746,D5,250.0,1.5,53,206.99
747,G2,250.0,2.0,73,206.99
748,D3,250.0,2.0,73,206.99
749,F3,250.0,2.0,73,206.99
750,E-5,251.5,0.5,50,206.99
751,C5,252.0,1.875,52,206.99
752,D5,253.875,0.125,48,206.99
753,C5,254.0,0.5,52,206.99
754,C3,254.0,0.5,40,206.99
755,B4,254.5,0.5,51,206.99
756,E-3,254.5,0.5,36,206.99
757,C5,255.0,0.5,51,206.99
758,G3,255.0,0.5,36,206.99
759,D5,255.5,0.375,50,206.99
760,C4,255.5,0.5,36,206.99
761,F5,255.875,0.125,49,206.99
762,E-5,256.0,0.5,56,206.99
763,C3,256.0,0.5,40,206.99
764,D5,256.5,0.5,52,206.99
765,F3,256.5,0.5,40,206.99
766,E-5,257.0,0.5,52,206.99
767,G3,257.0,0.5,36,206.99
768,F5,257.5,0.5,52,206.99
769,B3,257.5,0.5,36,206.99
770,G5,258.0,0.5,56,206.99
771,C3,258.0,0.5,40,206.99
772,E-3,258.5,0.5,40,206.99
773,G5,259.0,0.5,55,206.99
774,G3,259.0,0.5,36,206.99
775,C4,259.5,0.5,36,206.99
776,G5,260.0,3.0,57,206.99
777,E-4,260.0,0.5,40,206.99
778,G4,260.5,0.5,36,206.99
779,E-4,261.0,0.5,36,206.99
780,D4,261.5,0.5,36,206.99
781,C4,262.0,0.5,40,206.99
782,G4,262.5,0.5,36,206.99
783,F5,263.0,0.5,51,206.99
784,C4,263.0,0.5,36,206.99
785,E-4,263.0,0.5,36,206.99
786,G5,263.5,0.25,53,206.99
787,G4,263.5,0.5,36,206.99
788,F5,263.75,0.125,48,206.99
789,G5,263.875,0.125,48,206.99
790,G#5,264.0,2.0,56,206.99
791,B3,264.0,0.5,41,206.99
792,D4,264.0,0.5,41,206.99
793,G4,264.5,0.5,36,206.99
794,C4,265.0,0.5,36,206.99
795,G#3,265.0,0.5,36,206.99
796,G4,265.5,0.5,36,206.99
797,D5,266.0,1.0,52,206.99
798,G3,266.0,0.5,40,206.99
799,B3,266.5,0.5,29,206.99
800,E-5,267.0,0.5,51,206.99
801,D4,267.0,0.5,28,206.99
802,F5,267.5,0.25,53,206.99
803,G4,267.5,0.5,28,206.99
804,E-5,267.75,0.125,50,206.99
805,F5,267.875,0.125,50,206.99
806,G5,268.0,2.0,56,206.99
807,G3,268.0,0.5,40,206.99
808,B3,268.5,0.5,31,206.99
809,D4,269.0,0.5,31,206.99
810,G4,269.5,0.5,31,206.99
811,C5,270.0,979/1000,52,206.99
812,F3,270.0,0.5,40,206.99
813,G#3,270.5,0.5,36,206.99
814,C5,271.0,0.5,53,206.99
815,B3,271.0,0.5,37,206.99
816,D5,271.5,0.5,54,206.99
817,D4,271.5,0.5,37,206.99
818,E-5,272.0,0.5,57,206.99
819,F3,272.0,0.5,40,206.99
820,G#3,272.5,0.5,36,206.99
821,E-5,273.0,0.5,53,206.99
822,B3,273.0,0.5,36,206.99
823,F5,273.5,0.5,55,206.99
824,D4,273.5,0.5,36,206.99
825,D5,274.0,0.5,57,206.99
826,E-3,274.0,0.5,40,206.99
827,G3,274.5,0.5,34,206.99
828,D5,275.0,0.5,51,206.99
829,C4,275.0,0.5,34,206.99
830,E-5,275.5,0.5,54,206.99
831,E-4,275.5,0.5,33,206.99
832,C5,276.0,1.0,57,206.99
833,G#3,276.0,0.5,41,206.99
834,C4,276.5,0.5,35,206.99
835,E-4,277.0,0.5,35,206.99
836,F#4,277.5,0.5,35,206.99
837,G3,278.0,0.5,40,206.99
838,C4,278.5,0.5,40,206.99
839,F5,279.0,0.5,56,206.99
840,E-4,279.0,0.5,35,206.99
841,G5,279.5,0.5,58,206.99
842,G4,279.5,0.5,35,206.99
843,G3,280.0,0.5,40,206.99
844,G#4,280.0,2.0,56,206.99
845,G#5,280.0,2.0,56,206.99
846,B3,280.5,0.5,36,206.99
847,D4,281.0,0.5,36,206.99
848,G4,281.5,0.5,36,206.99
849,D5,282.0,1.0,57,206.99
850,C3,282.5,0.5,38,206.99
851,E-5,283.0,0.5,56,206.99
852,E-3,283.0,0.5,42,206.99
853,F5,283.5,0.5,58,206.99
854,G3,283.5,0.5,45,206.99
855,C4,284.0,1.0,49,206.99
856,G4,284.0,2.0,56,206.99
857,G5,284.0,2.0,56,206.99
858,C5,286.0,979/1000,57,206.99
859,F2,286.5,0.5,43,206.99
860,C5,287.0,0.5,58,206.99
861,B2,287.0,0.5,45,206.99
862,D5,287.5,0.5,59,206.99
863,D3,287.5,0.5,47,206.99
864,E-5,288.0,0.5,62,206.99
865,F3,288.0,0.5,49,206.99
866,G#3,288.5,0.5,43,206.99
867,E-5,289.0,0.5,58,206.99
868,G3,289.0,0.5,43,206.99
869,F5,289.5,0.5,60,206.99
870,F3,289.5,0.5,43,206.99
871,D5,290.0,0.5,62,206.99
872,E-2,290.5,0.5,40,206.99
873,D5,291.0,0.5,56,206.99
874,G2,291.0,0.5,42,206.99
875,E-5,291.5,0.5,59,206.99
876,C3,291.5,0.5,45,206.99
877,C5,292.0,0.5,62,206.99
878,E-3,292.0,0.5,48,206.99
879,G3,292.5,0.5,40,206.99
880,B-5,293.0,2.0,74,206.99
881,G#3,293.0,0.5,39,206.99
882,F#3,293.5,0.5,39,206.99
883,G2,294.0,0.5,48,206.99
884,G3,294.5,0.5,44,206.99
885,B-5,295.0,1.0,73,206.99
886,C4,295.0,0.5,38,206.99
887,G3,295.5,0.5,38,206.99
888,B-5,296.0,0.5,73,206.99
889,G2,296.0,0.5,48,206.99
890,G#5,296.5,0.5,71,206.99
891,G3,296.5,0.5,39,206.99
892,G5,297.0,0.5,72,206.99
893,B3,297.0,0.5,39,206.99
894,F5,297.5,0.5,72,206.99
895,G3,297.5,0.5,39,206.99
896,E-5,298.0,0.5,71,206.99
897,C3,298.0,0.5,52,206.99
898,D5,298.5,0.5,71,206.99
899,C4,298.5,0.5,45,206.99
900,C5,299.0,0.5,71,206.99
901,B3,299.0,0.5,45,206.99
902,B4,299.5,0.5,71,206.99
903,C4,299.5,0.5,45,206.99
904,C5,300.0,0.5,73,206.99
905,E3,300.0,0.5,52,206.99
906,C4,300.5,0.5,48,206.99
907,G3,301.0,0.5,48,206.99
908,C5,301.0,2.0,73,206.99
909,C6,301.0,2.0,73,206.99
910,C4,301.5,0.5,48,206.99
911,F3,302.0,0.5,53,206.99
912,C4,302.5,0.5,49,206.99
913,B-5,303.0,1.0,80,206.99
914,G#3,303.0,0.5,50,206.99
915,C4,303.5,0.5,49,206.99
916,B-5,304.0,0.5,80,206.99
917,G3,304.0,0.5,54,206.99
918,G#5,304.5,0.5,81,206.99
919,F4,304.5,0.5,52,206.99
920,G5,305.0,0.5,82,206.99
921,B3,305.0,0.5,43,206.99
922,F5,305.5,0.5,81,206.99
923,F4,305.5,0.5,50,206.99
924,E-5,306.0,0.5,79,206.99
925,G#3,306.0,0.5,54,206.99
926,D5,306.5,0.5,79,206.99
927,E-4,306.5,0.5,47,206.99
928,C5,307.0,0.5,79,206.99
929,C4,307.0,0.5,47,206.99
930,B4,307.5,0.5,78,206.99
931,E-4,307.5,0.5,47,206.99
932,C5,308.0,0.5,89,206.99
933,G3,308.0,0.5,62,206.99
934,E4,308.5,0.5,54,206.99
935,D5,309.0,167/1000,81,206.99
936,C4,309.0,0.5,55,206.99
937,E-5,309.167,167/1000,81,206.99
938,D5,309.333,167/1000,81,206.99
939,E-5,309.5,0.125,81,206.99
940,E4,309.5,0.5,55,206.99
941,D5,309.625,0.125,81,206.99
942,C5,309.75,0.125,80,206.99
943,D5,309.875,0.125,80,206.99
944,E-5,310.0,0.5,92,206.99
945,F3,310.0,0.5,64,206.99
946,F4,310.5,0.5,57,206.99
947,C4,311.0,0.5,58,206.99
948,B4,311.0,0.5,92,206.99
949,D5,311.0,0.5,92,206.99
950,B5,311.0,0.5,92,206.99
951,F4,311.5,0.5,57,206.99
952,G3,312.0,0.5,63,206.99
953,C5,312.0,0.5,92,206.99
954,E-5,312.0,0.5,92,206.99
955,C6,312.0,0.5,92,206.99
956,G4,312.5,0.5,57,206.99
957,G3,313.0,0.5,57,206.99
958,G4,313.5,0.5,56,206.99
959,C4,314.0,0.5,68,206.99
960,G3,315.0,0.5,62,206.99
961,B3,315.0,0.5,62,206.99
962,C4,316.0,2.0,53,206.99
963,C3,316.0,0.5,62,206.99
964,C4,316.0,0.5,62,206.99
965,G2,317.0,0.5,62,206.99
966,G3,317.0,0.5,62,206.99
967,F4,318.0,2.0,48,206.99
968,C2,318.0,0.5,69,206.99
969,C3,318.0,0.5,69,206.99
970,B-3,320.0,2.0,51,206.99
971,G#2,320.5,0.5,46,206.99
972,C3,321.0,0.5,48,206.99
973,E-3,321.5,0.5,50,206.99
974,E-4,322.0,2.0,48,206.99
975,G#3,322.0,2.0,51,206.99
976,G#3,324.0,2.0,52,206.99
977,C#3,324.0,2.0,48,206.99
978,C#4,326.0,1.0,48,206.99
979,G3,326.0,2.0,48,206.99
980,C4,327.0,1.0,48,206.99
981,B-3,328.0,1.0,53,206.99
982,C3,328.0,2.0,45,206.99
983,G#3,329.0,1.0,48,206.99
984,G3,330.0,1.0,48,206.99
985,F3,330.0,1.0,48,206.99
986,B-2,331.0,2.0,48,206.99
987,C5,333.0,2.0,55,206.99
988,C3,333.0,1.0,48,206.99
989,C#3,334.0,1.0,51,206.99
990,F4,335.0,1.0,53,206.99
991,D3,335.0,1.0,46,206.99
992,F4,336.0,1.0,53,206.99
993,E-3,336.0,1.0,46,206.99
994,B-4,337.0,2.0,56,206.99
995,E-2,337.0,1.0,42,206.99
996,G#2,338.0,2.0,51,206.99
997,E-4,339.0,1.0,53,206.99
998,E-4,340.0,1.0,53,206.99
999,C#3,340.0,2.0,49,206.99
1000,G#4,341.0,1.0,53,206.99
1001,G4,342.0,1.0,51,206.99
1002,G2,342.0,2.0,51,206.99
1003,F4,343.0,1.0,51,206.99
1004,E-4,344.0,1.0,53,206.99
1005,C3,344.0,2.0,49,206.99
1006,D4,345.0,1.0,49,206.99
1007,F4,346.0,1.0,53,206.99
1008,F2,346.0,2.0,52,206.99
1009,E-4,347.0,1.0,49,206.99
1010,C5,348.0,2.0,57,206.99
1011,G2,348.0,1.0,51,206.99
1012,G#2,349.0,1.0,49,206.99
1013,A2,350.0,1.0,53,206.99
1014,F4,350.0,2.0,44,206.99
1015,F5,350.0,2.0,44,206.99
1016,B-2,351.0,1.0,50,206.99
1017,B-4,352.0,2.0,57,206.99
1018,E-2,352.0,1.0,49,206.99
1019,E-4,354.0,2.0,40,206.99
1020,E-5,354.0,2.0,48,206.99
1021,G#3,355.0,2.0,47,206.99
1022,C4,355.0,2.0,47,206.99
1023,G#4,356.0,2.0,52,206.99
1024,E-4,356.0,1.0,40,206.99
1025,C4,357.0,1.0,48,206.99
1026,C#3,357.0,1.0,44,206.99
1027,F3,357.0,1.0,44,206.99
1028,F4,358.0,1.0,49,206.99
1029,C#5,358.0,1.0,49,206.99
1030,C#3,358.0,1.0,44,206.99
1031,F3,358.0,1.0,44,206.99
1032,E-4,359.0,1.0,44,206.99
1033,C5,359.0,1.0,44,206.99
1034,G3,359.0,2.0,47,206.99
1035,B-3,359.0,2.0,47,206.99
1036,C#4,360.0,1.0,46,206.99
1037,B-4,360.0,1.0,46,206.99
1038,C4,361.0,1.0,44,206.99
1039,G#4,361.0,1.0,44,206.99
1040,C3,361.0,1.0,44,206.99
1041,E-3,361.0,1.0,44,206.99
1042,B-3,362.0,1.0,44,206.99
1043,G4,362.0,1.0,44,206.99
1044,E-4,363.0,1.0,48,206.99
1045,C3,363.0,1.0,44,206.99
1046,E-3,363.0,1.0,44,206.99
1047,F3,364.0,1.0,47,206.99
1048,G#3,364.0,1.0,47,206.99
1049,B-2,365.0,1.0,51,206.99
1050,C5,365.0,2.0,50,206.99
1051,C6,365.0,2.0,50,206.99
1052,C3,366.0,1.0,51,206.99
1053,F5,367.0,1.0,55,206.99
1054,C#3,367.0,1.0,49,206.99
1055,F5,368.0,1.0,55,206.99
1056,D3,368.0,1.0,49,206.99
1057,E-3,369.0,1.0,49,206.99
1058,B-4,369.0,2.0,56,206.99
1059,B-5,369.0,2.0,56,206.99
1060,E-5,371.0,1.0,59,206.99
1061,C4,371.0,2.0,47,206.99
1062,G#3,371.0,2.0,47,206.99
1063,C5,372.0,2.0,51,206.99
1064,E-5,372.0,1.0,59,206.99
1065,G#5,373.0,1.0,61,206.99
1066,F4,373.0,2.0,46,206.99
1067,C#4,373.0,2.0,46,206.99
1068,B-4,374.0,1.0,55,206.99
1069,G5,374.0,1.0,55,206.99
1070,G#4,375.0,1.0,56,206.99
1071,F5,375.0,1.0,56,206.99
1072,B-3,375.0,2.0,50,206.99
1073,G3,375.0,2.0,50,206.99
1074,G4,376.0,1.0,59,206.99
1075,E-5,376.0,1.0,59,206.99
1076,F4,377.0,1.0,55,206.99
1077,D5,377.0,1.0,55,206.99
1078,E-4,377.0,2.0,50,206.99
1079,C4,377.0,2.0,50,206.99
1080,G#4,378.0,1.0,61,206.99
1081,F5,378.0,1.0,61,206.99
1082,F3,379.0,2.0,59,206.99
1083,G4,379.0,1.0,57,206.99
1084,E-5,379.0,1.0,57,206.99
1085,G3,381.0,1.0,60,206.99
1086,G#3,382.0,1.0,58,206.99
1087,E-5,383.0,1.0,65,206.99
1088,A3,383.0,1.0,64,206.99
1089,C5,384.0,1.0,68,206.99
1090,B-3,384.0,1.0,62,206.99
1091,C#5,385.0,1.0,65,206.99
1092,E-3,385.0,1.0,61,206.99
1093,F5,386.0,1.0,67,206.99
1094,E-4,386.0,1.0,64,206.99
1095,G4,387.0,1.0,63,206.99
1096,D4,387.0,1.0,65,206.99
1097,B-4,388.0,1.0,68,206.99
1098,E-4,388.0,1.0,65,206.99
1099,G#4,389.0,1.0,65,206.99
1100,F#4,389.0,1.0,65,206.99
1101,C5,390.0,1.0,67,206.99
1102,A3,390.0,1.0,61,206.99
1103,D4,391.0,1.0,65,206.99
1104,B-3,391.0,0.5,62,206.99
1105,E-4,392.0,0.5,65,206.99
1106,B-5,393.0,1.0,61,206.99
1107,E-6,394.0,1.0,66,206.99
1108,C#4,394.0,1.0,60,206.99
1109,E-3,394.0,1.0,60,206.99
1110,C#6,395.0,1.0,62,206.99
1111,C4,395.0,1.0,62,206.99
1112,G#3,395.0,1.0,62,206.99
1113,C6,396.0,2.0,69,206.99
1114,F6,398.0,2.0,70,206.99
1115,B-2,398.0,1.0,58,206.99
1116,G#3,398.0,1.0,58,206.99
1117,E-3,399.0,1.0,63,206.99
1118,G3,399.0,1.0,63,206.99
1119,B-5,400.0,2.0,70,206.99
1120,E-5,401.5,0.25,49,206.99
1121,E-6,402.0,2.0,67,206.99
1122,F5,402.0,0.25,49,206.99
1123,G5,402.5,0.25,49,206.99
1124,G#5,403.0,0.5,49,206.99
1125,G5,403.5,0.5,49,206.99
1126,G#5,404.0,2.0,70,206.99
1127,F5,404.0,0.5,49,206.99
1128,E-5,404.5,0.5,49,206.99
1129,C#5,405.0,0.5,49,206.99
1130,C5,405.5,0.5,49,206.99
1131,B-4,406.0,0.5,49,206.99
1132,C#5,406.0,0.5,72,206.99
1133,C#6,406.0,0.5,72,206.99
1134,G#4,406.5,0.5,49,206.99
1135,G4,407.0,0.5,49,206.99
1136,C6,407.0,0.5,73,206.99
1137,C5,407.0,0.5,73,206.99
1138,F4,407.5,0.5,49,206.99
1139,E-4,408.0,0.5,49,206.99
1140,B-4,408.0,0.5,75,206.99
1141,B-5,408.0,0.5,75,206.99
1142,C#4,408.5,0.5,49,206.99
1143,C4,409.0,0.5,49,206.99
1144,G#5,409.0,0.5,77,206.99
1145,G#4,409.0,0.5,77,206.99
1146,B-3,409.5,0.5,49,206.99
1147,G#3,410.0,0.5,49,206.99
1148,G4,410.0,0.5,79,206.99
1149,G5,410.0,0.5,79,206.99
1150,G3,410.5,0.5,49,206.99
1151,C#5,411.0,0.5,80,206.99
1152,F3,411.0,0.5,51,206.99
1153,E-3,411.5,0.5,51,206.99
1154,C6,412.0,0.5,80,206.99
1155,C#3,412.0,0.5,52,206.99
1156,B-5,412.5,0.5,79,206.99
1157,C3,412.5,0.5,53,206.99
1158,G#5,413.0,0.5,79,206.99
1159,B-2,413.0,0.5,53,206.99
1160,G5,413.5,0.5,78,206.99
1161,A2,413.5,0.5,54,206.99
1162,F5,414.0,0.5,77,206.99
1163,B-2,414.0,0.5,55,206.99
1164,E-5,414.5,0.5,76,206.99
1165,C3,414.5,0.5,55,206.99
1166,C#5,415.0,0.5,76,206.99
1167,C#3,415.0,0.5,55,206.99
1168,C5,415.5,0.5,76,206.99
1169,C3,415.5,0.5,56,206.99
1170,B-4,416.0,0.5,77,206.99
1171,C#3,416.0,0.5,57,206.99
1172,G#4,416.5,0.5,77,206.99
1173,D3,416.5,0.5,58,206.99
1174,G4,417.0,0.5,77,206.99
1175,E-3,417.0,0.5,59,206.99
1176,F4,417.5,0.5,77,206.99
1177,F3,417.5,0.5,60,206.99
1178,E4,418.0,0.5,77,206.99
1179,F#3,418.0,0.5,61,206.99
1180,C#4,418.5,0.5,76,206.99
1181,G3,418.5,0.5,62,206.99
1182,C4,419.0,0.5,76,206.99
1183,G#2,419.0,2.0,76,206.99
1184,B-3,419.5,0.5,75,206.99
1185,G#3,420.0,0.5,75,206.99
1186,G3,420.5,0.5,74,206.99
1187,F3,421.0,0.5,73,206.99
1188,C#3,421.0,2.0,72,206.99
1189,E3,421.5,0.5,71,206.99
1190,F3,422.0,0.5,70,206.99
1191,G3,422.5,0.5,72,206.99
1192,G#3,423.0,0.5,74,206.99
1193,G2,423.0,2.0,77,206.99
1194,G3,423.5,0.5,71,206.99
1195,F3,424.0,0.5,73,206.99
1196,E-3,424.5,0.5,72,206.99
1197,D3,425.0,0.5,71,206.99
1198,C3,425.0,2.0,71,206.99
1199,C3,425.5,0.5,70,206.99
1200,B2,426.0,0.5,67,206.99
1201,C3,426.5,0.5,69,206.99
1202,D3,427.0,0.5,71,206.99
1203,F2,427.0,2.0,76,206.99
1204,C3,427.5,0.5,70,206.99
1205,G2,428.25,0.25,56,206.99
1206,B2,428.5,0.25,56,206.99
1207,D3,428.75,0.25,56,206.99
1208,G3,429.0,0.25,69,206.99
1209,F1,429.0,2.0,76,206.99
1210,F2,429.0,2.0,76,206.99
1211,G2,430.25,0.25,58,206.99
1212,C3,430.5,0.25,58,206.99
1213,E-3,430.75,0.25,58,206.99
1214,G3,431.0,0.25,70,206.99
1215,G2,432.25,0.25,60,206.99
1216,D3,432.5,0.25,60,206.99
1217,F3,432.75,0.25,60,206.99
1218,G3,433.0,0.25,71,206.99
1219,F1,433.0,2.0,76,206.99
1220,F2,433.0,2.0,76,206.99
1221,G2,434.25,0.25,61,206.99
1222,C3,434.5,0.25,61,206.99
1223,E-3,434.75,0.25,61,206.99
1224,G3,435.0,0.25,71,206.99
1225,F#1,435.0,2.0,75,206.99
1226,F#2,435.0,2.0,75,206.99
1227,G3,436.25,0.25,60,206.99
1228,B3,436.5,0.25,60,206.99
1229,D4,436.75,0.25,60,206.99
1230,G4,437.0,0.25,76,206.99
1231,G1,437.0,1.0,75,206.99
1232,G3,438.25,0.25,64,206.99
1233,C4,438.5,0.25,64,206.99
1234,D2,438.5,0.25,54,206.99
1235,E-4,438.75,0.25,64,206.99
1236,B1,438.75,0.25,55,206.99
1237,G4,439.0,0.25,76,206.99
1238,G1,439.0,0.25,67,206.99
1239,G3,440.25,0.25,66,206.99
1240,D4,440.5,0.25,66,206.99
1241,E-2,440.5,0.25,55,206.99
1242,F4,440.75,0.25,66,206.99
1243,C2,440.75,0.25,55,206.99
1244,G4,441.0,0.25,77,206.99
1245,G1,441.0,0.25,69,206.99
1246,G3,442.25,0.25,67,206.99
1247,C4,442.5,0.25,67,206.99
1248,F2,442.5,0.25,57,206.99
1249,E-4,442.75,0.25,67,206.99
1250,D2,442.75,0.25,57,206.99
1251,G4,443.0,0.25,77,206.99
1252,G1,443.0,0.25,70,206.99
1253,G4,444.25,0.25,72,206.99
1254,B4,444.5,0.25,72,206.99
1255,E-2,444.5,0.25,59,206.99
1256,D5,444.75,0.25,72,206.99
1257,C2,444.75,0.25,59,206.99
1258,G5,445.0,0.25,89,206.99
1259,G1,445.0,0.25,81,206.99
1260,G4,446.25,0.25,75,206.99
1261,C5,446.5,0.25,75,206.99
1262,D3,446.5,0.25,59,206.99
1263,E-5,446.75,0.25,75,206.99
1264,B2,446.75,0.25,59,206.99
1265,G5,447.0,0.25,88,206.99
1266,G2,447.0,0.25,74,206.99
1267,G4,448.25,0.25,75,206.99
1268,D5,448.5,0.25,75,206.99
1269,E-3,448.5,0.25,59,206.99
1270,F5,448.75,0.25,75,206.99
1271,C3,448.75,0.25,59,206.99
1272,G5,449.0,0.25,87,206.99
1273,G2,449.0,0.25,76,206.99
1274,G4,450.25,0.25,75,206.99
1275,C5,450.5,0.25,75,206.99
1276,F3,450.5,0.25,62,206.99
1277,E-5,450.75,0.25,75,206.99
1278,D3,450.75,0.25,62,206.99
1279,G5,451.0,0.25,86,206.99
1280,G2,451.0,0.25,76,206.99
1281,G4,452.333,333/1000,66,206.99
1282,E-3,452.5,0.25,65,206.99
1283,F#4,452.667,333/1000,68,206.99
1284,C3,452.75,0.25,65,206.99
1285,G4,453.0,333/1000,70,206.99
1286,G2,453.0,0.25,88,206.99
1287,B4,453.333,333/1000,72,206.99
1288,D5,453.667,333/1000,75,206.99
1289,G5,454.0,333/1000,84,206.99
1290,D5,454.333,333/1000,72,206.99
1291,D4,454.5,0.25,70,206.99
1292,B4,454.667,333/1000,64,206.99
1293,B3,454.75,0.25,70,206.99
1294,G4,455.0,0.25,70,206.99
1295,G3,455.0,0.25,86,206.99
1296,B4,456.333,333/1000,66,206.99
1297,E-4,456.5,0.25,68,206.99
1298,B-4,456.667,333/1000,68,206.99
1299,C4,456.75,0.25,68,206.99
1300,B4,457.0,333/1000,70,206.99
1301,G3,457.0,0.25,86,206.99
1302,D5,457.333,333/1000,72,206.99
1303,G5,457.667,333/1000,75,206.99
1304,B5,458.0,333/1000,84,206.99
1305,G5,458.333,333/1000,72,206.99
1306,F4,458.5,0.25,70,206.99
1307,D5,458.667,333/1000,64,206.99
1308,D4,458.75,0.25,70,206.99
1309,B4,459.0,0.25,70,206.99
1310,G3,459.0,0.25,86,206.99
1311,D5,460.333,333/1000,66,206.99
1312,E-4,460.5,0.25,71,206.99
1313,C#5,460.667,333/1000,68,206.99
1314,C4,460.75,0.25,71,206.99
1315,D5,461.0,333/1000,70,206.99
1316,G3,461.0,0.25,80,206.99
1317,F5,461.333,333/1000,72,206.99
1318,B5,461.667,333/1000,75,206.99
1319,D6,462.0,333/1000,84,206.99
1320,B5,462.333,333/1000,72,206.99
1321,F5,462.667,333/1000,64,206.99
1322,D5,463.0,0.25,70,206.99
1323,G3,464.0,333/1000,67,206.99
1324,F5,464.333,333/1000,66,206.99
1325,D3,464.333,333/1000,67,206.99
1326,E5,464.667,333/1000,68,206.99
1327,B2,464.667,333/1000,66,206.99
1328,F5,465.0,333/1000,70,206.99
1329,G2,465.0,1.0,80,206.99
1330,B5,465.333,333/1000,72,206.99
1331,D6,465.667,333/1000,75,206.99
1332,F6,466.0,333/1000,84,206.99
1333,D6,466.333,333/1000,72,206.99
1334,B5,466.667,333/1000,64,206.99
1335,F6,467.0,333/1000,84,206.99
1336,D6,467.333,333/1000,72,206.99
1337,B5,467.667,333/1000,64,206.99
1338,F6,468.0,3.0,100,206.99
1339,G3,468.0,333/1000,67,206.99
1340,D3,468.333,333/1000,67,206.99
1341,B2,468.667,333/1000,66,206.99
1342,G2,469.0,1.0,80,206.99
1343,E-6,471.0,333/1000,86,206.99
1344,D6,471.333,333/1000,85,206.99
1345,C6,471.667,333/1000,83,206.99
1346,B5,472.0,333/1000,82,206.99
1347,G2,472.0,333/1000,67,206.99
1348,G#5,472.333,333/1000,81,206.99
1349,D2,472.333,333/1000,67,206.99
1350,G5,472.667,333/1000,79,206.99
1351,B1,472.667,333/1000,66,206.99
1352,F5,473.0,333/1000,78,206.99
1353,G1,473.0,1.0,80,206.99
1354,E-5,473.333,333/1000,77,206.99
1355,D5,473.667,333/1000,75,206.99
1356,C5,474.0,333/1000,74,206.99
1357,B4,474.333,333/1000,72,206.99
1358,G#4,474.667,333/1000,71,206.99
1359,G4,475.0,1/5,70,206.99
1360,F4,475.2,1/5,68,206.99
1361,E-4,475.4,1/5,69,206.99
1362,D4,475.6,1/5,70,206.99
1363,C4,475.8,1/5,71,206.99
1364,B3,476.0,4.0,93,206.99
1365,G1,477.0,4.0,78,206.99
1366,G2,477.0,4.0,78,206.99
1367,B3,480.0,2.0,93,206.99
1368,G4,482.5,0.25,48,206.99
1369,C5,483.0,0.25,49,206.99
1370,D5,483.5,0.25,51,206.99
1371,E-5,484.0,1.5,52,206.99
1372,G1,485.0,4.0,78,206.99
1373,G2,485.0,4.0,78,206.99
1374,F5,485.5,0.5,50,206.99
1375,D5,486.0,1.5,53,206.99
1376,E-5,487.5,0.5,50,206.99
1377,C5,488.0,1.875,52,206.99
1378,G2,489.0,4.0,73,206.99
1379,F3,489.0,4.0,73,206.99
1380,D3,489.0,4.0,73,206.99
1381,D5,489.875,0.125,48,206.99
1382,C5,490.0,0.5,52,206.99
1383,B4,490.5,0.5,51,206.99
1384,C5,491.0,0.5,51,206.99
1385,D5,491.5,0.375,50,206.99
1386,F5,491.875,0.125,49,206.99
1387,E-5,492.0,0.5,56,206.99
1388,D5,492.5,0.5,52,206.99
1389,E-5,493.0,0.5,52,206.99
1390,F5,493.5,0.5,52,206.99
1391,G5,494.0,0.5,56,206.99
1392,G5,495.0,0.5,55,206.99
1393,G2,495.0,2.0,73,206.99
1394,F3,495.0,2.0,73,206.99
1395,D3,495.0,2.0,73,206.99
1396,G5,496.0,3.0,57,206.99
1397,F5,499.0,0.5,51,206.99
1398,C3,499.0,0.5,40,206.99
1399,G5,499.5,0.25,53,206.99
1400,E-3,499.5,0.5,36,206.99
1401,F5,499.75,0.125,48,206.99
1402,G5,499.875,0.125,48,206.99
1403,G#5,500.0,2.0,56,206.99
1404,G3,500.0,0.5,36,206.99
1405,C4,500.5,0.5,36,206.99
1406,C3,501.0,0.5,40,206.99
1407,F3,501.5,0.5,40,206.99
1408,D5,502.0,1.0,52,206.99
1409,G3,502.0,0.5,36,206.99
1410,B3,502.5,0.5,36,206.99
1411,E-5,503.0,0.5,51,206.99
1412,C3,503.0,0.5,40,206.99
1413,F5,503.5,0.25,53,206.99
1414,E-3,503.5,0.5,40,206.99
1415,E-5,503.75,0.125,50,206.99
1416,F5,503.875,0.125,50,206.99
1417,G5,504.0,2.0,56,206.99
1418,G3,504.0,0.5,36,206.99
1419,C4,504.5,0.5,36,206.99
1420,E-4,505.0,0.5,40,206.99
1421,G4,505.5,0.5,36,206.99
1422,C5,506.0,979/1000,52,206.99
1423,E-4,506.0,0.5,36,206.99
1424,D4,506.5,0.5,36,206.99
1425,C5,507.0,0.5,53,206.99
1426,C4,507.0,0.5,40,206.99
1427,D5,507.5,0.5,54,206.99
1428,G4,507.5,0.5,36,206.99
1429,E-5,508.0,0.5,57,206.99
1430,C4,508.0,0.5,36,206.99
1431,E-4,508.0,0.5,36,206.99
1432,G4,508.5,0.5,36,206.99
1433,E-5,509.0,0.5,53,206.99
1434,B3,509.0,0.5,41,206.99
1435,D4,509.0,0.5,41,206.99
1436,F5,509.5,0.5,55,206.99
1437,G4,509.5,0.5,36,206.99
1438,D5,510.0,0.5,57,206.99
1439,C4,510.0,0.5,36,206.99
1440,G#3,510.0,0.5,36,206.99
1441,G4,510.5,0.5,36,206.99
1442,D5,511.0,0.5,51,206.99
1443,G3,511.0,0.5,40,206.99
1444,E-5,511.5,0.5,54,206.99
1445,B3,511.5,0.5,29,206.99
1446,C5,512.0,1.0,57,206.99
1447,D4,512.0,0.5,28,206.99
1448,G4,512.5,0.5,28,206.99
1449,G3,513.0,0.5,40,206.99
1450,B3,513.5,0.5,31,206.99
1451,D4,514.0,0.5,31,206.99
1452,G4,514.5,0.5,31,206.99
1453,F3,515.0,0.5,40,206.99
1454,G#3,515.5,0.5,36,206.99
1455,B3,516.0,0.5,37,206.99
1456,B3,516.5,0.5,47,206.99
1457,D4,516.5,0.5,37,206.99
1458,D4,517.0,0.5,49,206.99
1459,F3,517.0,0.5,40,206.99
1460,F4,517.5,0.5,51,206.99
1461,G#3,517.5,0.5,36,206.99
1462,B3,518.0,0.5,36,206.99
1463,F5,518.5,0.5,51,206.99
1464,D4,518.5,0.5,36,206.99
1465,D5,519.0,0.5,50,206.99
1466,E-3,519.0,0.5,40,206.99
1467,B4,519.5,0.5,48,206.99
1468,G3,519.5,0.5,34,206.99
1469,C4,520.0,0.5,34,206.99
1470,C4,520.5,0.5,44,206.99
1471,E-4,520.5,0.5,33,206.99
1472,E-4,521.0,0.5,46,206.99
1473,G#3,521.0,0.5,41,206.99
1474,G4,521.5,0.5,49,206.99
1475,C4,521.5,0.5,35,206.99
1476,E-4,522.0,0.5,35,206.99
1477,G5,522.5,0.5,48,206.99
1478,F#4,522.5,0.5,35,206.99
1479,E-5,523.0,0.5,47,206.99
1480,G3,523.0,0.5,40,206.99
1481,C5,523.5,0.5,45,206.99
1482,C4,523.5,0.5,40,206.99
1483,E-4,524.0,0.5,35,206.99
1484,E4,524.5,0.5,47,206.99
1485,G4,524.5,0.5,35,206.99
1486,G4,525.0,0.5,49,206.99
1487,G3,525.0,0.5,40,206.99
1488,B-4,525.5,0.5,51,206.99
1489,B3,525.5,0.5,36,206.99
1490,D4,526.0,0.5,36,206.99
1491,B-5,526.5,0.5,51,206.99
1492,G4,526.5,0.5,36,206.99
1493,G5,527.0,0.5,50,206.99
1494,E5,527.5,0.5,48,206.99
1495,C2,527.5,0.5,38,206.99
1496,E-2,528.0,0.5,42,206.99
1497,F4,528.5,0.5,48,206.99
1498,G2,528.5,0.5,45,206.99
1499,G#4,529.0,0.5,50,206.99
1500,C3,529.0,0.5,45,206.99
1501,C5,529.5,0.5,53,206.99
1502,E-3,529.5,0.5,45,206.99
1503,F5,530.0,0.5,55,206.99
1504,F3,530.0,0.5,50,206.99
1505,G#5,530.5,0.5,58,206.99
1506,G3,530.5,0.5,52,206.99
1507,C6,531.0,0.5,60,206.99
1508,G#3,531.0,2.0,54,206.99
1509,F6,531.5,0.5,69,206.99
1510,F6,532.0,1.0,69,206.99
1511,E-6,533.0,1.0,63,206.99
1512,D3,533.0,1.0,51,206.99
1513,D6,534.0,1.0,61,206.99
1514,E-3,534.0,0.5,50,206.99
1515,F3,534.5,0.5,52,206.99
1516,C6,535.0,1.0,60,206.99
1517,G3,535.0,2.0,54,206.99
1518,B5,536.0,0.5,60,206.99
1519,G5,537.0,2.0,60,206.99
1520,C3,537.0,1.0,51,206.99
1521,B-3,538.0,0.5,50,206.99
1522,C4,538.5,0.5,52,206.99
1523,G5,539.0,1.0,56,206.99
1524,C#4,539.0,2.0,54,206.99
1525,G5,540.0,0.5,56,206.99
1526,A5,540.5,0.5,54,206.99
1527,B5,541.0,0.5,55,206.99
1528,G3,541.0,1.0,51,206.99
1529,C6,541.5,0.5,57,206.99
1530,D6,542.0,0.5,58,206.99
1531,G#3,542.0,0.5,50,206.99
1532,E6,542.5,0.5,60,206.99
1533,B-3,542.5,0.5,52,206.99
1534,F6,543.0,0.5,61,206.99
1535,C4,543.0,2.0,54,206.99
1536,D6,543.5,0.5,58,206.99
1537,F6,544.0,0.5,61,206.99
1538,E6,544.5,0.5,60,206.99
1539,D6,545.0,0.5,59,206.99
1540,F3,545.0,1.0,51,206.99
1541,C6,545.5,229/500,58,206.99
1542,C6,546.0,0.5,60,206.99
1543,B5,546.5,0.5,58,206.99
1544,A5,547.0,0.5,58,206.99
1545,C4,547.0,1.0,54,206.99
1546,G#3,547.0,2.0,54,206.99
1547,B5,547.5,0.5,58,206.99
1548,D6,548.0,0.5,63,206.99
1549,F4,548.0,1.0,54,206.99
1550,C6,548.5,0.5,57,206.99
1551,B5,549.0,0.5,57,206.99
1552,C4,549.0,1.0,54,206.99
1553,G#3,549.0,2.0,54,206.99
1554,A5,549.5,0.5,57,206.99
1555,F#4,550.0,1.0,54,206.99
1556,F5,550.0,9/10,54,206.99
1557,G5,550.0,9/10,54,206.99
1558,G3,551.0,1.0,46,206.99
1559,F5,551.0,9/10,54,206.99
1560,G5,551.0,9/10,54,206.99
1561,F5,552.0,0.5,60,206.99
1562,G5,552.0,4.0,60,206.99
1563,G4,552.0,1.0,31,206.99
1564,E5,552.5,0.5,53,206.99
1565,D5,553.0,0.5,53,206.99
1566,F4,553.0,1.0,42,206.99
1567,C5,553.5,229/500,53,206.99
1568,C5,554.0,0.5,57,206.99
1569,G4,554.0,1.0,30,206.99
1570,B4,554.5,0.5,52,206.99
1571,A4,555.0,0.5,52,206.99
1572,E4,555.0,1.0,42,206.99
1573,B4,555.5,0.5,52,206.99
1574,C5,556.0,1.0,52,206.99
1575,G5,556.0,0.5,60,206.99
1576,G4,556.0,1.0,33,206.99
1577,A5,556.5,0.5,54,206.99
1578,B5,557.0,0.5,55,206.99
1579,B3,557.0,1.0,41,206.99
1580,C6,557.5,0.5,57,206.99
1581,D6,558.0,0.5,58,206.99
1582,G4,558.0,1.0,33,206.99
1583,E6,558.5,0.5,60,206.99
1584,F6,559.0,0.5,61,206.99
1585,C4,559.0,1.0,40,206.99
1586,D6,559.5,0.5,58,206.99
1587,F6,560.0,0.5,61,206.99
1588,G4,560.0,1.0,35,206.99
1589,E6,560.5,0.5,60,206.99
1590,D6,561.0,0.5,59,206.99
1591,D5,561.0,2.0,40,206.99
1592,F4,561.0,1.0,40,206.99
1593,C6,561.5,0.5,58,206.99
1594,B5,562.0,0.5,60,206.99
1595,G4,562.0,1.0,36,206.99
1596,C6,562.5,0.5,58,206.99
1597,E6,563.0,0.5,59,206.99
1598,C5,563.0,2.0,40,206.99
1599,E4,563.0,1.0,40,206.99
1600,C6,563.5,0.5,59,206.99
1601,B5,564.0,0.5,66,206.99
1602,G4,564.0,1.0,36,206.99
1603,A5,564.5,0.5,57,206.99
1604,C6,565.0,0.5,58,206.99
1605,B3,565.0,1.0,40,206.99
1606,A5,565.5,0.5,59,206.99
1607,G5,566.0,0.5,69,206.99
1608,G4,566.0,1.0,34,206.99
1609,F5,566.5,0.5,63,206.99
1610,A5,567.0,0.5,63,206.99
1611,C4,567.0,1.0,41,206.99
1612,F5,567.5,0.5,64,206.99
1613,E5,568.0,0.5,72,206.99
1614,G4,568.0,1.0,34,206.99
1615,D5,568.5,0.5,62,206.99
1616,F5,569.0,0.5,64,206.99
1617,F4,569.0,1.0,40,206.99
1618,D5,569.5,0.5,64,206.99
1619,A5,570.0,0.5,75,206.99
1620,G4,570.0,1.0,34,206.99
1621,F5,570.5,0.5,67,206.99
1622,D5,571.0,0.5,67,206.99
1623,E4,571.0,1.0,42,206.99
1624,C5,571.5,0.5,67,206.99
1625,B4,572.0,177/500,59,206.99
1626,G4,572.0,1.0,33,206.99
1627,G4,572.333,177/500,55,206.99
1628,A4,572.667,177/500,55,206.99
1629,B4,573.0,177/500,59,206.99
1630,B3,573.0,1.0,41,206.99
1631,A4,573.333,177/500,55,206.99
1632,G4,573.667,177/500,55,206.99
1633,C5,574.0,2.0,59,206.99
1634,G4,574.0,1.0,33,206.99
1635,C4,575.0,1.0,40,206.99
1636,B4,576.0,177/500,59,206.99
1637,G4,576.0,1.0,35,206.99
1638,G4,576.333,177/500,55,206.99
1639,A4,576.667,177/500,55,206.99
1640,B4,577.0,177/500,59,206.99
1641,E4,577.0,2.0,40,206.99
1642,C5,577.0,1.0,40,206.99
1643,A4,577.333,177/500,55,206.99
1644,G4,577.667,177/500,55,206.99
1645,C5,578.0,2.0,59,206.99
1646,G4,578.0,1.0,36,206.99
1647,F4,579.0,1979/1000,38,206.99
1648,C5,579.0,1.0,42,206.99
1649,B4,580.0,333/1000,59,206.99
1650,A4,580.0,1.0,38,206.99
1651,G4,580.333,333/1000,59,206.99
1652,A4,580.667,333/1000,59,206.99
1653,B4,581.0,333/1000,64,206.99
1654,F4,581.0,2.0,37,206.99
1655,C#5,581.0,1.0,44,206.99
1656,A4,581.333,333/1000,57,206.99
1657,G4,581.667,333/1000,58,206.99
1658,D5,582.0,333/1000,67,206.99
1659,A4,582.0,1.0,38,206.99
1660,B4,582.333,333/1000,59,206.99
1661,C5,582.667,333/1000,59,206.99
1662,D5,583.0,333/1000,62,206.99
1663,F4,583.0,1.0,46,206.99
1664,D5,583.0,1.0,46,206.99
1665,C5,583.333,333/1000,65,206.99
1666,B4,583.667,333/1000,67,206.99
1667,F5,584.0,177/500,69,206.99
1668,A4,584.0,1.0,42,206.99
1669,E5,584.333,177/500,68,206.99
1670,D5,584.667,177/500,67,206.99
1671,C5,585.0,177/500,66,206.99
1672,F4,585.0,1.0,48,206.99
1673,B4,585.333,177/500,65,206.99
1674,A4,585.667,177/500,63,206.99
1675,G4,586.0,177/500,59,206.99
1676,F#4,586.0,1.0,41,206.99
1677,A4,586.333,177/500,55,206.99
1678,G4,586.667,177/500,55,206.99
1679,F4,587.0,177/500,59,206.99
1680,G4,587.0,0.312,55,206.99
1681,E4,587.333,177/500,56,206.99
1682,D4,587.667,333/1000,56,206.99
1683,E4,588.0,177/500,59,206.99
1684,D4,588.0,21/1000,56,206.99
1685,C4,588.333,177/500,55,206.99
1686,D4,588.667,177/500,55,206.99
1687,E4,589.0,177/500,59,206.99
1688,D4,589.333,177/500,55,206.99
1689,D4,589.333,177/500,45,206.99
1690,C4,589.667,177/500,55,206.99
1691,E4,589.667,177/500,48,206.99
1692,F4,590.0,2.0,59,206.99
1693,F#4,590.0,177/500,50,206.99
1694,E4,590.333,177/500,48,206.99
1695,D4,590.667,333/1000,45,206.99
1696,G4,591.0,0.312,55,206.99
1697,D4,591.0,21/1000,45,206.99
1698,E4,592.0,177/500,59,206.99
1699,C5,592.333,177/500,55,206.99
1700,D5,592.667,177/500,55,206.99
1701,E5,593.0,177/500,59,206.99
1702,D5,593.333,177/500,55,206.99
1703,D4,593.333,177/500,43,206.99
1704,C5,593.667,177/500,55,206.99
1705,E4,593.667,177/500,47,206.99
1706,F5,594.0,2.0,59,206.99
1707,F#4,594.0,177/500,50,206.99
1708,E4,594.333,177/500,48,206.99
1709,D4,594.667,333/1000,45,206.99
1710,G4,595.0,0.312,55,206.99
1711,D4,595.0,21/1000,45,206.99
1712,E5,596.0,333/1000,59,206.99
1713,C5,596.333,333/1000,59,206.99
1714,D5,596.667,333/1000,59,206.99
1715,E5,597.0,333/1000,64,206.99
1716,G4,597.0,1.0,55,206.99
1717,D5,597.333,333/1000,57,206.99
1718,C5,597.667,333/1000,58,206.99
1719,G5,598.0,333/1000,67,206.99
1720,E5,598.333,333/1000,59,206.99
1721,F5,598.667,333/1000,59,206.99
1722,G5,599.0,333/1000,62,206.99
1723,D4,599.0,1.0,48,206.99
1724,G3,599.0,1.0,48,206.99
1725,B3,599.0,1.0,48,206.99
1726,F4,599.0,1.0,48,206.99
1727,F5,599.333,333/1000,65,206.99
1728,E5,599.667,333/1000,67,206.99
1729,B-5,600.0,177/500,69,206.99
1730,A5,600.333,177/500,68,206.99
1731,G5,600.667,177/500,67,206.99
1732,F5,601.0,177/500,66,206.99
1733,E5,601.333,177/500,65,206.99
1734,D5,601.667,177/500,63,206.99
1735,C5,602.0,177/500,59,206.99
1736,B4,602.333,177/500,55,206.99
1737,C5,602.667,177/500,55,206.99
1738,C#5,603.0,177/500,59,206.99
1739,C3,603.0,1.0,55,206.99
1740,D5,603.333,177/500,56,206.99
1741,B-4,603.667,333/1000,56,206.99
1742,B-4,604.0,21/1000,56,206.99
1743,A3,605.0,333/1000,57,206.99
1744,C4,605.333,333/1000,59,206.99
1745,G3,605.333,177/500,45,206.99
1746,F4,605.667,333/1000,62,206.99
1747,A3,605.667,177/500,48,206.99
1748,A4,606.0,333/1000,64,206.99
1749,B3,606.0,177/500,50,206.99
1750,C5,606.333,333/1000,66,206.99
1751,A3,606.333,177/500,48,206.99
1752,F5,606.667,333/1000,68,206.99
1753,G3,606.667,333/1000,45,206.99
1754,A5,607.0,0.25,70,206.99
1755,C4,607.0,1.0,55,206.99
1756,G3,607.0,21/1000,45,206.99
1757,A5,607.5,0.25,70,206.99
1758,A5,608.0,0.5,70,206.99
1759,G5,608.5,0.5,68,206.99
1760,F5,609.0,0.25,66,206.99
1761,G3,609.333,177/500,43,206.99
1762,E5,609.5,0.25,64,206.99
1763,A3,609.667,177/500,47,206.99
1764,E5,610.0,0.5,65,206.99
1765,B3,610.0,177/500,50,206.99
1766,A3,610.333,177/500,48,206.99
1767,D5,610.5,0.5,63,206.99
1768,G3,610.667,333/1000,45,206.99
1769,C5,611.0,0.25,61,206.99
1770,C4,611.0,1.0,55,206.99
1771,G3,611.0,21/1000,45,206.99
1772,B4,611.5,0.25,59,206.99
1773,C5,612.0,1.0,63,206.99
1774,C4,613.0,1.0,55,206.99
1775,G4,615.0,979/1000,45,206.99
1776,B-3,615.0,1.0,48,206.99
1777,E3,615.0,1.0,48,206.99
1778,G3,615.0,1.0,48,206.99
1779,C4,615.0,1.0,48,206.99
1780,B4,616.0,0.5,41,206.99
1781,D5,616.0,0.5,41,206.99
1782,B4,617.0,0.5,42,206.99
1783,D5,617.0,0.5,42,206.99
1784,B4,618.0,0.5,42,206.99
1785,D5,618.0,0.5,42,206.99
1786,F2,619.0,333/1000,52,206.99
1787,B4,619.0,0.5,42,206.99
1788,D5,619.0,0.5,42,206.99
1789,A2,619.333,333/1000,54,206.99
1790,C3,619.667,333/1000,56,206.99
1791,F3,620.0,1.0,59,206.99
1792,C5,620.0,3.0,44,206.99
1793,G5,620.0,3.0,44,206.99
1794,C5,623.0,1.0,46,206.99
1795,G5,623.0,1.0,46,206.99
1796,G3,623.0,1.0,51,206.99
1797,C4,623.0,1.0,51,206.99
1798,E4,623.0,1.0,51,206.99
1799,E-5,624.0,49/25,43,206.99
1800,C5,624.0,49/25,43,206.99
1801,F#5,624.0,49/25,43,206.99
1802,G3,625.0,1.0,52,206.99
1803,D4,625.0,1.0,52,206.99
1804,F4,625.0,1.0,52,206.99
1805,D5,626.0,49/25,40,206.99
1806,C5,626.0,49/25,40,206.99
1807,F#5,626.0,49/25,40,206.99
1808,C4,627.0,1.0,54,206.99
1809,E4,627.0,1.0,54,206.99
1810,B4,628.0,1.0,41,206.99
1811,D5,628.0,1.0,41,206.99
1812,G5,628.0,1.0,41,206.99
1813,G3,631.0,247/250,45,206.99
1814,G4,631.0,0.5,36,206.99
1815,F4,631.0,0.5,36,206.99
1816,B3,632.0,0.5,41,206.99
1817,D4,632.0,0.5,41,206.99
1818,F4,632.0,0.5,37,206.99
1819,G4,632.0,0.5,37,206.99
1820,B3,633.0,0.5,42,206.99
1821,D4,633.0,0.5,42,206.99
1822,G4,633.0,0.5,38,206.99
1823,F4,633.0,0.5,38,206.99
1824,B3,634.0,0.5,42,206.99
1825,D4,634.0,0.5,42,206.99
1826,F4,634.0,0.5,40,206.99
1827,G4,634.0,0.5,40,206.99
1828,B3,635.0,0.5,42,206.99
1829,D4,635.0,0.5,42,206.99
1830,E4,635.0,2979/1000,41,206.99
1831,G4,635.0,2979/1000,41,206.99
1832,G4,636.0,3.0,47,206.99
1833,B3,637.0,1.0,40,206.99
1834,C4,638.0,2.0,40,206.99
1835,E4,638.0,1.0,42,206.99
1836,G4,639.0,1.0,45,206.99
1837,A4,639.0,49/25,45,206.99
1838,F4,640.0,0.5,50,206.99
1839,C4,640.0,0.5,40,206.99
1840,A4,641.0,49/25,43,206.99
1841,C4,641.0,0.5,49,206.99
1842,F4,641.0,0.5,49,206.99
1843,D4,642.0,0.5,49,206.99
1844,F4,642.0,0.5,49,206.99
1845,D4,643.0,1.0,49,206.99
1846,F4,643.0,0.5,49,206.99
1847,G4,643.0,1.0,43,206.99
1848,B-4,644.0,3.0,54,206.99
1849,D4,644.0,1.0,49,206.99
1850,D4,645.0,1.0,51,206.99
1851,E-4,646.0,2.0,51,206.99
1852,B-4,647.0,1.0,53,206.99
1853,G3,647.0,0.5,36,206.99
1854,F3,647.0,0.5,36,206.99
1855,A4,648.0,0.5,59,206.99
1856,E-4,648.0,1.0,51,206.99
1857,F3,648.0,0.5,37,206.99
1858,G3,648.0,0.5,37,206.99
1859,F#4,649.0,0.5,56,206.99
1860,A4,649.0,0.5,56,206.99
1861,G3,649.0,0.5,38,206.99
1862,F3,649.0,0.5,38,206.99
1863,F#4,650.0,0.5,56,206.99
1864,A4,650.0,0.5,56,206.99
1865,F3,650.0,0.5,40,206.99
1866,G3,650.0,0.5,40,206.99
1867,F#4,651.0,1.0,55,206.99
1868,A4,651.0,0.5,55,206.99
1869,E-3,651.0,3.0,41,206.99
1870,G3,651.0,3.0,41,206.99
1871,D5,652.0,3.0,61,206.99
1872,F#4,652.0,1.0,55,206.99
1873,F#4,653.0,1.0,54,206.99
1874,G4,654.0,1.0,54,206.99
1875,E-3,654.0,1.0,41,206.99
1876,F#4,655.0,1.0,62,206.99
1877,A4,655.0,1.0,62,206.99
1878,G#3,655.0,0.5,39,206.99
1879,D5,656.0,3.0,63,206.99
1880,F#4,656.0,1.0,62,206.99
1881,G#3,656.0,0.5,44,206.99
1882,F#4,657.0,1.0,55,206.99
1883,B-3,657.0,0.5,44,206.99
1884,G#3,657.0,0.5,44,206.99
1885,G4,658.0,1.0,50,206.99
1886,G#3,658.0,0.5,46,206.99
1887,B-3,658.0,0.5,46,206.99
1888,B4,659.0,1.0,54,206.99
1889,D5,659.0,1.0,54,206.99
1890,G3,659.0,3.0,50,206.99
1891,B-3,659.0,3.0,50,206.99
1892,G5,660.0,3.0,58,206.99
1893,B4,660.0,1.0,54,206.99
1894,B4,661.0,1.0,52,206.99
1895,C5,662.0,1.0,55,206.99
1896,G3,662.0,1.0,51,206.99
1897,B4,663.0,1.0,57,206.99
1898,D5,663.0,1.0,57,206.99
1899,C4,663.0,0.5,47,206.99
1900,G5,664.0,3.0,63,206.99
1901,B4,664.0,1.0,57,206.99
1902,C4,664.0,0.5,48,206.99
1903,E-4,664.0,0.5,48,206.99
1904,B4,665.0,1.0,55,206.99
1905,E-4,665.0,0.5,50,206.99
1906,C4,665.0,0.5,50,206.99
1907,C5,666.0,1.0,55,206.99
1908,C4,666.0,0.5,51,206.99
1909,E-4,666.0,0.5,51,206.99
1910,B4,667.0,1.0,60,206.99
1911,D5,667.0,1.0,60,206.99
1912,B3,667.0,3.0,54,206.99
1913,D4,667.0,3.0,54,206.99
1914,G#5,668.0,3.0,69,206.99
1915,B4,668.0,1.0,60,206.99
1916,B-4,669.0,1.0,49,206.99
1917,B4,670.0,1.0,49,206.99
1918,C4,670.0,1.0,53,206.99
1919,E-4,670.0,1.0,53,206.99
1920,D5,671.0,1.0,56,206.99
1921,B3,671.0,3.0,55,206.99
1922,D4,671.0,3.0,55,206.99
1923,G5,672.0,3.0,65,206.99
1924,B-4,673.0,1.0,47,206.99
1925,B4,674.0,1.0,48,206.99
1926,F4,674.0,1.0,54,206.99
1927,G#4,674.0,1.0,54,206.99
1928,D5,675.0,1.0,54,206.99
1929,E-4,675.0,3.0,56,206.99
1930,G4,675.0,3.0,56,206.99
1931,F#5,676.0,3.0,60,206.99
1932,B-4,677.0,1.0,38,206.99
1933,B4,678.0,1.0,38,206.99
1934,F4,678.0,1.0,49,206.99
1935,G#4,678.0,1.0,49,206.99
1936,D5,679.0,1.0,40,206.99
1937,E-4,679.0,3.0,52,206.99
1938,G4,679.0,3.0,52,206.99
1939,F5,680.0,3.0,47,206.99
1940,D5,680.0,1.0,40,206.99
1941,B-4,681.0,1.0,37,206.99
1942,B4,682.0,2.0,37,206.99
1943,F4,682.0,1.0,40,206.99
1944,G#4,682.0,1.0,40,206.99
1945,G4,684.0,1.5,47,206.99
1946,C5,684.0,1.5,47,206.99
1947,E-5,684.0,1.5,47,206.99
1948,F5,685.5,0.5,50,206.99
1949,D5,686.0,1.5,53,206.99
1950,E-5,687.5,0.5,50,206.99
1951,C5,688.0,1.875,52,206.99
1952,D5,689.875,0.125,48,206.99
1953,C5,690.0,0.5,52,206.99
1954,B4,690.5,0.5,51,206.99
1955,C5,691.0,0.5,51,206.99
1956,D5,691.5,0.375,50,206.99
1957,F5,691.875,0.125,49,206.99
1958,E-5,692.0,0.5,56,206.99
1959,D5,692.5,0.5,52,206.99
1960,E-5,693.0,0.5,52,206.99
1961,F5,693.5,0.5,52,206.99
1962,G5,694.0,0.5,56,206.99
1963,G5,695.0,0.5,55,206.99
1964,G5,696.0,3.0,57,206.99
1965,G2,698.0,1.0,42,206.99
1966,F5,699.0,0.5,51,206.99
1967,C3,699.0,0.5,40,206.99
1968,G5,699.5,0.25,53,206.99
1969,E-3,699.5,0.5,36,206.99
1970,F5,699.75,0.125,48,206.99
1971,G5,699.875,0.125,48,206.99
1972,G#5,700.0,2.0,56,206.99
1973,G3,700.0,0.5,36,206.99
1974,C4,700.5,0.5,36,206.99
1975,C3,701.0,0.5,40,206.99
1976,F3,701.5,0.5,40,206.99
1977,D5,702.0,1.0,52,206.99
1978,G3,702.0,0.5,36,206.99
1979,B3,702.5,0.5,36,206.99
1980,E-5,703.0,0.5,51,206.99
1981,C3,703.0,0.5,40,206.99
1982,F5,703.5,0.25,53,206.99
1983,E-3,703.5,0.5,40,206.99
1984,E-5,703.75,0.125,50,206.99
1985,F5,703.875,0.125,50,206.99
1986,G5,704.0,2.0,56,206.99
1987,G3,704.0,0.5,36,206.99
1988,C4,704.5,0.5,36,206.99
1989,E-4,705.0,0.5,40,206.99
1990,G4,705.5,0.5,36,206.99
1991,C5,706.0,979/1000,52,206.99
1992,E-4,706.0,0.5,36,206.99
1993,D4,706.5,0.5,36,206.99
1994,C5,707.0,0.5,53,206.99
1995,C4,707.0,0.5,40,206.99
1996,D5,707.5,0.5,54,206.99
1997,G4,707.5,0.5,36,206.99
1998,E-5,708.0,0.5,57,206.99
1999,C4,708.0,0.5,36,206.99
2000,E-4,708.0,0.5,36,206.99
2001,G4,708.5,0.5,36,206.99
2002,E-5,709.0,0.5,53,206.99
2003,B3,709.0,0.5,41,206.99
2004,D4,709.0,0.5,41,206.99
2005,F5,709.5,0.5,55,206.99
2006,G4,709.5,0.5,36,206.99
2007,D5,710.0,0.5,57,206.99
2008,C4,710.0,0.5,36,206.99
2009,G#3,710.0,0.5,36,206.99
2010,G4,710.5,0.5,36,206.99
2011,D5,711.0,0.5,51,206.99
2012,G3,711.0,0.5,40,206.99
2013,E-5,711.5,0.5,54,206.99
2014,B3,711.5,0.5,29,206.99
2015,C5,712.0,0.5,57,206.99
2016,D4,712.0,0.5,28,206.99
2017,B4,712.5,0.5,52,206.99
2018,G4,712.5,0.5,28,206.99
2019,C5,713.0,0.5,53,206.99
2020,G3,713.0,0.5,40,206.99
2021,D5,713.5,0.5,54,206.99
2022,B3,713.5,0.5,31,206.99
2023,E-5,714.0,0.5,55,206.99
2024,D4,714.0,0.5,31,206.99
2025,E5,714.5,0.5,56,206.99
2026,G4,714.5,0.5,31,206.99
2027,F5,715.0,0.5,58,206.99
2028,F3,715.0,0.5,40,206.99
2029,G5,715.5,0.5,59,206.99
2030,G#3,715.5,0.5,36,206.99
2031,G#5,716.0,0.5,60,206.99
2032,B3,716.0,0.5,37,206.99
2033,G5,716.5,0.5,57,206.99
2034,D4,716.5,0.5,37,206.99
2035,B-5,717.0,0.5,63,206.99
2036,F3,717.0,0.5,40,206.99
2037,G#5,717.5,0.5,62,206.99
2038,G#3,717.5,0.5,36,206.99
2039,G5,718.0,0.5,62,206.99
2040,B3,718.0,0.5,36,206.99
2041,F5,718.5,0.5,61,206.99
2042,D4,718.5,0.5,36,206.99
2043,E-5,719.0,0.5,60,206.99
2044,E-3,719.0,0.5,40,206.99
2045,D5,719.5,0.5,58,206.99
2046,G3,719.5,0.5,34,206.99
2047,G5,720.0,0.5,66,206.99
2048,C4,720.0,0.5,34,206.99
2049,F#5,720.5,0.5,60,206.99
2050,E-4,720.5,0.5,33,206.99
2051,G#5,721.0,0.5,67,206.99
2052,G#3,721.0,0.5,41,206.99
2053,G5,721.5,0.5,66,206.99
2054,C4,721.5,0.5,35,206.99
2055,F5,722.0,0.5,66,206.99
2056,E-4,722.0,0.5,35,206.99
2057,E-5,722.5,0.5,65,206.99
2058,F#4,722.5,0.5,35,206.99
2059,D5,723.0,0.5,65,206.99
2060,G3,723.0,0.5,40,206.99
2061,C5,723.5,0.5,64,206.99
2062,C4,723.5,0.5,40,206.99
2063,E-5,724.0,0.5,71,206.99
2064,E-4,724.0,0.5,35,206.99
2065,D5,724.5,0.5,64,206.99
2066,G4,724.5,0.5,35,206.99
2067,F5,725.0,0.5,70,206.99
2068,G3,725.0,0.5,40,206.99
2069,E-5,725.5,0.5,62,206.99
2070,B3,725.5,0.5,36,206.99
2071,D5,726.0,0.5,69,206.99
2072,D4,726.0,0.5,36,206.99
2073,C#5,726.5,0.5,66,206.99
2074,G4,726.5,0.5,36,206.99
2075,E-5,727.0,0.5,64,206.99
2076,C4,727.0,1.0,57,206.99
2077,D5,727.5,0.5,60,206.99
2078,C5,728.0,1.0,66,206.99
2079,C6,730.333,333/1000,68,206.99
2080,D6,730.667,333/1000,70,206.99
2081,E6,731.0,333/1000,73,206.99
2082,F2,731.0,0.5,58,206.99
2083,D6,731.333,333/1000,70,206.99
2084,G#2,731.5,0.5,48,206.99
2085,C6,731.667,333/1000,66,206.99
2086,F6,732.0,0.5,77,206.99
2087,B2,732.0,0.5,49,206.99
2088,D3,732.5,0.5,51,206.99
2089,F2,733.0,0.5,53,206.99
2090,G#2,733.5,0.5,54,206.99
2091,B2,734.0,0.5,56,206.99
2092,C6,734.333,333/1000,66,206.99
2093,D3,734.5,0.5,57,206.99
2094,D6,734.667,333/1000,69,206.99
2095,E6,735.0,333/1000,72,206.99
2096,E-2,735.0,0.5,58,206.99
2097,D6,735.333,333/1000,70,206.99
2098,G2,735.5,0.5,57,206.99
2099,C6,735.667,333/1000,67,206.99
2100,F6,736.0,0.5,77,206.99
2101,C3,736.0,0.5,55,206.99
2102,E-3,736.5,0.5,56,206.99
2103,G#2,737.0,0.5,57,206.99
2104,C3,737.5,0.5,57,206.99
2105,E-3,738.0,0.5,58,206.99
2106,C6,738.333,333/1000,66,206.99
2107,F#3,738.5,0.5,60,206.99
2108,D6,738.667,333/1000,69,206.99
2109,E6,739.0,333/1000,72,206.99
2110,G2,739.0,0.5,64,206.99
2111,D6,739.333,333/1000,70,206.99
2112,C3,739.5,0.5,58,206.99
2113,C6,739.667,333/1000,67,206.99
2114,F6,740.0,0.5,86,206.99
2115,E-3,740.0,0.5,63,206.99
2116,G3,740.5,0.5,63,206.99
2117,G2,741.0,0.5,62,206.99
2118,C5,741.0,0.5,80,206.99
2119,E-5,741.0,0.5,80,206.99
2120,F#5,741.0,0.5,80,206.99
2121,C6,741.0,0.5,80,206.99
2122,G3,741.5,0.5,61,206.99
2123,G2,742.0,0.5,58,206.99
2124,C5,742.0,0.5,80,206.99
2125,E-5,742.0,0.5,80,206.99
2126,G5,742.0,0.5,80,206.99
2127,C6,742.0,0.5,80,206.99
2128,G3,742.5,0.5,57,206.99
2129,C3,743.0,0.5,67,206.99
2130,B4,743.0,0.5,80,206.99
2131,D5,743.0,0.5,80,206.99
2132,G5,743.0,0.5,80,206.99
2133,B5,743.0,0.5,80,206.99
2134,C4,743.5,0.5,52,206.99
2135,B3,744.0,0.5,60,206.99
2136,C5,744.0,0.5,80,206.99
2137,E-5,744.0,0.5,80,206.99
2138,G5,744.0,0.5,80,206.99
2139,C6,744.0,0.5,80,206.99
2140,C4,744.5,0.5,52,206.99
2141,B-3,745.0,0.5,64,206.99
2142,C4,745.5,0.5,51,206.99
2143,G3,746.0,0.5,57,206.99
2144,C5,746.333,333/1000,68,206.99
2145,C4,746.5,0.5,50,206.99
2146,D5,746.667,333/1000,70,206.99
2147,E5,747.0,333/1000,73,206.99
2148,G#3,747.0,0.5,63,206.99
2149,D5,747.333,333/1000,70,206.99
2150,C4,747.5,0.5,50,206.99
2151,C5,747.667,333/1000,66,206.99
2152,F5,748.0,0.5,77,206.99
2153,F3,748.0,0.5,57,206.99
2154,C4,748.5,0.5,50,206.99
2155,B-3,749.0,0.5,59,206.99
2156,C4,749.5,0.5,50,206.99
2157,G3,750.0,0.5,55,206.99
2158,C5,750.333,333/1000,66,206.99
2159,C4,750.5,0.5,50,206.99
2160,D5,750.667,333/1000,69,206.99
2161,E5,751.0,333/1000,72,206.99
2162,G#3,751.0,0.5,63,206.99
2163,D5,751.333,333/1000,70,206.99
2164,C4,751.5,0.5,50,206.99
2165,C5,751.667,333/1000,67,206.99
2166,F5,752.0,0.5,77,206.99
2167,F3,752.0,0.5,57,206.99
2168,C4,752.5,0.5,50,206.99
2169,B-3,753.0,0.5,59,206.99
2170,C4,753.5,0.5,50,206.99
2171,G3,754.0,0.5,55,206.99
2172,C4,754.333,333/1000,66,206.99
2173,C4,754.5,0.5,50,206.99
2174,D4,754.667,333/1000,69,206.99
2175,E4,755.0,333/1000,72,206.99
2176,G#3,755.0,0.5,77,206.99
2177,D4,755.333,333/1000,70,206.99
2178,C4,755.667,333/1000,67,206.99
2179,F4,756.0,333/1000,63,206.99
2180,G#2,756.0,0.5,65,206.99
2181,C3,756.0,0.5,65,206.99
2182,E-3,756.0,0.5,65,206.99
2183,G#3,756.0,0.5,65,206.99
2184,C4,756.333,333/1000,50,206.99
2185,D4,756.667,333/1000,50,206.99
2186,E-4,757.0,333/1000,63,206.99
2187,G2,757.0,0.5,65,206.99
2188,C3,757.0,0.5,65,206.99
2189,E-3,757.0,0.5,65,206.99
2190,G3,757.0,0.5,65,206.99
2191,D4,757.333,333/1000,50,206.99
2192,C4,757.667,333/1000,50,206.99
2193,F#4,758.0,333/1000,68,206.99
2194,G2,758.0,0.5,65,206.99
2195,B2,758.0,0.5,65,206.99
2196,D3,758.0,0.5,65,206.99
2197,G3,758.0,0.5,65,206.99
2198,C4,758.333,333/1000,52,206.99
2199,D4,758.667,333/1000,53,206.99
2200,E-4,759.0,333/1000,60,206.99
2201,C2,759.0,0.5,76,206.99
2202,D4,759.333,333/1000,50,206.99
2203,C3,759.5,0.5,52,206.99
2204,C4,759.667,333/1000,50,206.99
2205,G4,760.0,333/1000,69,206.99
2206,B2,760.0,0.5,60,206.99
2207,C4,760.333,333/1000,51,206.99
2208,C3,760.5,0.5,52,206.99
2209,D4,760.667,333/1000,52,206.99
2210,E-4,761.0,333/1000,58,206.99
2211,B-2,761.0,0.5,64,206.99
2212,D4,761.333,333/1000,51,206.99
2213,C3,761.5,0.5,51,206.99
2214,C4,761.667,333/1000,52,206.99
2215,A4,762.0,333/1000,69,206.99
2216,G2,762.0,0.5,57,206.99
2217,C4,762.333,333/1000,54,206.99
2218,C3,762.5,0.5,50,206.99
2219,D4,762.667,333/1000,55,206.99
2220,E-4,763.0,333/1000,62,206.99
2221,G#2,763.0,0.5,63,206.99
2222,D4,763.333,333/1000,55,206.99
2223,C3,763.5,0.5,50,206.99
2224,C4,763.667,333/1000,55,206.99
2225,B4,764.0,333/1000,70,206.99
2226,F2,764.0,0.5,57,206.99
2227,B3,764.333,333/1000,55,206.99
2228,C3,764.5,0.5,50,206.99
2229,C4,764.667,333/1000,55,206.99
2230,D4,765.0,333/1000,61,206.99
2231,B-2,765.0,0.5,59,206.99
2232,C4,765.333,333/1000,55,206.99
2233,C3,765.5,0.5,50,206.99
2234,B3,765.667,333/1000,54,206.99
2235,C5,766.0,333/1000,72,206.99
2236,G2,766.0,0.5,55,206.99
2237,C4,766.333,333/1000,55,206.99
2238,C3,766.5,0.5,50,206.99
2239,D4,766.667,333/1000,55,206.99
2240,E-4,767.0,333/1000,63,206.99
2241,G#2,767.0,0.5,63,206.99
2242,D4,767.333,333/1000,56,206.99
2243,C3,767.5,0.5,50,206.99
2244,C4,767.667,333/1000,58,206.99
2245,D5,768.0,333/1000,74,206.99
2246,F2,768.0,0.5,57,206.99
2247,D4,768.333,333/1000,56,206.99
2248,C3,768.5,0.5,50,206.99
2249,E-4,768.667,333/1000,56,206.99
2250,F4,769.0,333/1000,62,206.99
2251,B-2,769.0,0.5,59,206.99
2252,E-4,769.333,333/1000,54,206.99
2253,C3,769.5,0.5,50,206.99
2254,D4,769.667,333/1000,54,206.99
2255,B4,770.0,333/1000,75,206.99
2256,G2,770.0,0.5,55,206.99
2257,B3,770.333,333/1000,53,206.99
2258,C3,770.5,0.5,50,206.99
2259,C4,770.667,333/1000,53,206.99
2260,D4,771.0,333/1000,65,206.99
2261,G#2,771.0,1.0,45,206.99
2262,C4,771.333,333/1000,55,206.99
2263,B3,771.667,333/1000,55,206.99
2264,C4,772.0,1.0,73,206.99
2265,C5,772.0,1.0,73,206.99
2266,G#2,772.0,1.0,45,206.99
2267,G#3,772.0,1.0,45,206.99
2268,G5,774.0,1.0,84,206.99
2269,G#2,774.0,0.5,43,206.99
2270,C3,774.0,0.5,43,206.99
2271,E-3,774.0,0.5,43,206.99
2272,G#3,774.0,0.5,43,206.99
2273,F5,775.0,0.25,80,206.99
2274,E-5,775.25,0.25,79,206.99
2275,D5,775.5,0.25,78,206.99
2276,C5,775.75,0.25,77,206.99
2277,D5,776.0,0.5,79,206.99
2278,G2,776.0,0.5,46,206.99
2279,C3,776.0,0.5,46,206.99
2280,E-3,776.0,0.5,46,206.99
2281,G3,776.0,0.5,46,206.99
2282,F5,778.0,1.0,84,206.99
2283,F#2,778.0,0.5,48,206.99
2284,C3,778.0,0.5,48,206.99
2285,E-3,778.0,0.5,48,206.99
2286,F#3,778.0,0.5,48,206.99
2287,E-5,779.0,0.25,80,206.99
2288,D5,779.25,0.25,79,206.99
2289,C5,779.5,0.25,78,206.99
2290,B4,779.75,0.25,77,206.99
2291,C5,780.0,0.5,79,206.99
2292,F2,780.0,0.5,50,206.99
2293,B2,780.0,0.5,50,206.99
2294,D3,780.0,0.5,50,206.99
2295,F3,780.0,0.5,50,206.99
2296,G5,782.0,1.0,84,206.99
2297,E-2,782.0,0.5,53,206.99
2298,G2,782.0,0.5,53,206.99
2299,C3,782.0,0.5,53,206.99
2300,E-3,782.0,0.5,53,206.99
2301,F5,783.0,0.25,80,206.99
2302,E-5,783.25,0.25,79,206.99
2303,D5,783.5,0.25,78,206.99
2304,C5,783.75,0.25,77,206.99
2305,D5,784.0,0.5,79,206.99
2306,F2,784.0,0.5,56,206.99
2307,G#2,784.0,0.5,56,206.99
2308,D3,784.0,0.5,56,206.99
2309,F3,784.0,0.5,56,206.99
2310,F5,786.0,1.0,84,206.99
2311,G2,786.0,0.5,58,206.99
2312,B2,786.0,0.5,58,206.99
2313,D3,786.0,0.5,58,206.99
2314,G3,786.0,0.5,58,206.99
2315,E-5,787.0,0.25,80,206.99
2316,C2,787.0,0.5,71,206.99
2317,C3,787.0,0.5,71,206.99
2318,D5,787.25,0.25,79,206.99
2319,C5,787.5,0.25,78,206.99
2320,B4,787.75,0.25,77,206.99
2321,C5,788.0,0.5,79,206.99
2322,E-3,788.0,3.0,74,206.99
2323,G3,788.0,3.0,74,206.99
2324,C4,788.0,3.0,74,206.99
2325,G5,790.0,1.0,84,206.99
2326,F5,791.0,0.25,80,206.99
2327,F3,791.0,0.5,68,206.99
2328,G#3,791.0,0.5,68,206.99
2329,C4,791.0,0.5,68,206.99
2330,D4,791.0,0.5,68,206.99
2331,E-5,791.25,0.25,79,206.99
2332,D5,791.5,0.25,78,206.99
2333,C5,791.75,0.25,77,206.99
2334,C#5,792.0,0.5,79,206.99
2335,G3,792.0,3.0,74,206.99
2336,B3,792.0,3.0,74,206.99
2337,D4,792.0,3.0,74,206.99
2338,F6,794.0,2.0,100,206.99
2339,E-3,795.0,0.5,69,206.99
2340,G3,795.0,0.5,69,206.99
2341,C4,795.0,0.5,69,206.99
2342,F6,796.0,3.0,100,206.99
2343,E-3,796.0,3.0,74,206.99
2344,G3,796.0,3.0,74,206.99
2345,C4,796.0,3.0,74,206.99
2346,E-6,799.0,333/1000,86,206.99
2347,F3,799.0,0.5,68,206.99
2348,G#3,799.0,0.5,68,206.99
2349,C4,799.0,0.5,68,206.99
2350,D4,799.0,0.5,68,206.99
2351,C#6,799.333,333/1000,85,206.99
2352,C6,799.667,333/1000,83,206.99
2353,B-5,800.0,333/1000,82,206.99
2354,G3,800.0,3.0,74,206.99
2355,B3,800.0,3.0,74,206.99
2356,D4,800.0,3.0,74,206.99
2357,G#5,800.333,333/1000,81,206.99
2358,G5,800.667,333/1000,79,206.99
2359,F5,801.0,333/1000,78,206.99
2360,E-5,801.333,333/1000,77,206.99
2361,C#5,801.667,333/1000,75,206.99
2362,C5,802.0,167/1000,74,206.99
2363,B-4,802.167,167/1000,72,206.99
2364,G#4,802.333,167/1000,71,206.99
2365,G4,802.5,167/1000,70,206.99
2366,F4,802.667,167/1000,68,206.99
2367,E-4,802.833,167/1000,69,206.99
2368,C#4,803.0,71/500,70,206.99
2369,E-3,803.0,0.5,69,206.99
2370,G3,803.0,0.5,69,206.99
2371,C4,803.0,0.5,69,206.99
2372,C4,803.142,71/500,71,206.99
2373,B-3,803.283,71/500,71,206.99
2374,G#3,803.425,71/500,71,206.99
2375,G3,803.567,71/500,71,206.99
2376,F3,803.708,71/500,71,206.99
2377,E-3,803.85,3/20,71,206.99
2378,C#3,804.0,4.0,93,206.99
2379,E-3,804.0,3.0,74,206.99
2380,G3,804.0,3.0,74,206.99
2381,C4,804.0,3.0,74,206.99
2382,F3,807.0,0.5,69,206.99
2383,G#3,807.0,0.5,69,206.99
2384,C#4,807.0,0.5,69,206.99
2385,C#3,808.0,2.0,93,206.99
2386,F3,808.0,2.0,74,206.99
2387,G#3,808.0,2.0,74,206.99
2388,C#4,808.0,2.0,74,206.99
2389,F3,810.0,0.5,75,206.99
2390,G#3,810.0,0.5,75,206.99
2391,C#4,810.0,0.5,75,206.99
2392,G#3,811.0,0.5,49,206.99
2393,G3,811.0,4.0,80,206.99
2394,B-3,811.0,4.0,80,206.99
2395,C#4,811.0,4.0,80,206.99
2396,E-4,811.0,4.0,80,206.99
2397,B-3,811.5,0.5,51,206.99
2398,C4,812.0,1.5,52,206.99
2399,C#4,813.5,0.5,50,206.99
2400,B-3,814.0,1.5,53,206.99
2401,C4,815.5,0.5,50,206.99
2402,G#3,816.0,1.0,52,206.99
2403,G3,817.0,2.0,80,206.99
2404,B-3,817.0,2.0,80,206.99
2405,C#4,817.0,2.0,80,206.99
2406,E-4,817.0,2.0,80,206.99
2407,G#4,819.0,0.5,46,206.99
2408,B-4,819.5,0.5,48,206.99
2409,C5,820.0,1.5,49,206.99
2410,G1,821.0,4.0,73,206.99
2411,E-2,821.0,4.0,73,206.99
2412,G2,821.0,4.0,73,206.99
2413,C#5,821.5,0.5,47,206.99
2414,B-4,822.0,1.5,49,206.99
2415,C5,823.5,0.5,46,206.99
2416,G#4,824.0,1.0,47,206.99
2417,C5,827.0,1.0,40,206.99
2418,G1,827.0,2.0,73,206.99
2419,E-2,827.0,2.0,73,206.99
2420,G2,827.0,2.0,73,206.99
2421,F#5,828.0,1.0,40,206.99
2422,E-5,828.0,1.0,40,206.99
2423,C5,831.0,1.0,40,206.99
2424,G#2,831.0,4.0,40,206.99
2425,E-3,831.0,2.0,40,206.99
2426,G5,832.0,1.0,40,206.99
2427,E-5,832.0,1.0,40,206.99
2428,C#3,833.0,2.0,40,206.99
2429,E-6,835.0,333/1000,97,206.99
2430,G#2,835.0,1.0,40,206.99
2431,C3,835.0,1.0,40,206.99
2432,D6,835.333,333/1000,90,206.99
2433,C6,835.667,333/1000,90,206.99
2434,F6,836.0,333/1000,96,206.99
2435,E-6,836.333,333/1000,89,206.99
2436,D6,836.667,333/1000,90,206.99
2437,C6,837.0,333/1000,97,206.99
2438,B5,837.333,333/1000,92,206.99
2439,G#5,837.667,333/1000,92,206.99
2440,G5,838.0,333/1000,90,206.99
2441,F5,838.333,333/1000,92,206.99
2442,E-5,838.667,333/1000,93,206.99
2443,D5,839.0,333/1000,95,206.99
2444,G#3,839.0,4.0,38,206.99
2445,E-4,839.0,2.0,38,206.99
2446,C5,839.333,333/1000,97,206.99
2447,B4,839.667,333/1000,99,206.99
2448,C5,840.0,1.0,101,206.99
2449,C#4,841.0,2.0,37,206.99
2450,G#3,843.0,1.0,36,206.99
2451,C4,843.0,1.0,36,206.99
2452,G#4,847.0,1.0,35,206.99
2453,G4,851.0,1.0,34,206.99
2454,G2,855.0,1.0,70,206.99
2455,B2,855.0,1.0,70,206.99
2456,D3,855.0,1.0,70,206.99
2457,G3,855.0,1.0,70,206.99
2458,C2,859.0,1.0,72,206.99
2459,E-2,859.0,1.0,72,206.99
2460,G2,859.0,1.0,72,206.99
2461,C3,859.0,1.0,72,206.99
