,note_name,start_time,duration,velocity,tempo
0,E-3,0.0,2.75,84,40.0
1,G3,0.0,2.75,84,40.0
2,C4,0.0,2.75,84,40.0
3,C2,0.0,2.75,73,40.0
4,E-2,0.0,2.75,73,40.0
5,G2,0.0,2.75,73,40.0
6,C3,0.0,2.75,73,40.0
7,E-3,2.75,0.25,36,40.0
8,G3,2.75,0.25,44,40.0
9,C4,2.75,0.25,44,40.0
10,D3,3.0,0.75,41,40.0
11,G3,3.0,0.75,45,40.0
12,B3,3.0,0.75,45,40.0
13,D4,3.0,0.75,45,40.0
14,C3,3.75,9/40,36,40.0
15,G3,3.75,9/40,44,40.0
16,C4,3.75,9/40,44,40.0
17,E-4,3.75,9/40,44,40.0
18,F#3,4.0,2.0,39,40.0
19,A3,4.0,2.0,47,40.0
20,C4,4.0,2.0,47,40.0
21,E-4,4.0,2.0,47,40.0
22,G3,6.0,1.0,25,40.0
23,B3,6.0,1.0,32,40.0
24,D4,6.0,1.0,32,40.0
25,G#2,7.75,0.25,89,40.0
26,G#3,8.0,2.75,93,40.0
27,B3,8.0,2.75,95,40.0
28,D4,8.0,2.75,95,40.0
29,F4,8.0,2.75,95,40.0
30,G#3,10.75,9/40,38,40.0
31,D4,10.75,9/40,45,40.0
32,B3,10.75,9/40,45,40.0
33,F4,10.75,9/40,45,40.0
34,G3,11.0,0.75,43,40.0
35,B3,11.0,0.75,47,40.0
36,D4,11.0,0.75,47,40.0
37,G4,11.0,0.75,47,40.0
38,F3,11.75,9/40,38,40.0
39,D4,11.75,9/40,46,40.0
40,G#4,11.75,9/40,46,40.0
41,B3,11.75,9/40,46,40.0
42,E-3,12.0,3.0,37,40.0
43,G#4,12.0,2.0,50,40.0
44,B3,12.0,2.0,50,40.0
45,D4,12.0,2.0,50,40.0
46,C4,14.0,1.0,33,40.0
47,G4,14.0,1.0,33,40.0
48,E-4,14.0,1.0,33,40.0
49,E-3,15.75,0.25,86,40.0
50,E-4,16.0,2.75,91,40.0
51,F#4,16.0,2.75,93,40.0
52,A4,16.0,2.75,93,40.0
53,C5,16.0,2.75,93,40.0
54,E-4,18.75,9/40,45,40.0
55,A4,18.75,9/40,52,40.0
56,F#4,18.75,9/40,52,40.0
57,C5,18.75,9/40,52,40.0
58,D4,19.0,0.75,52,40.0
59,F#4,19.0,0.75,57,40.0
60,A4,19.0,0.75,57,40.0
61,D5,19.0,0.75,57,40.0
62,C4,19.75,9/40,52,40.0
63,A4,19.75,9/40,64,40.0
64,E-5,19.75,9/40,64,40.0
65,F#4,19.75,9/40,64,40.0
66,C4,20.0,2.0,65,40.0
67,E-5,20.0,2.0,66,40.0
68,F#4,20.0,2.0,66,40.0
69,A4,20.0,2.0,66,40.0
70,B3,22.0,0.25,35,40.0
71,D4,22.0,0.25,37,40.0
72,D5,22.0,0.25,37,40.0
73,G4,22.0,0.25,37,40.0
74,E-4,22.75,9/40,47,40.0
75,A4,22.75,9/40,54,40.0
76,F#4,22.75,9/40,54,40.0
77,C5,22.75,9/40,54,40.0
78,D4,23.0,0.75,54,40.0
79,F#4,23.0,0.75,60,40.0
80,A4,23.0,0.75,60,40.0
81,D5,23.0,0.75,60,40.0
82,C4,23.75,9/40,54,40.0
83,A4,23.75,9/40,66,40.0
84,E-5,23.75,9/40,66,40.0
85,F#4,23.75,9/40,66,40.0
86,C4,24.0,2.0,71,40.0
87,E-5,24.0,2.0,69,40.0
88,F#4,24.0,2.0,69,40.0
89,A4,24.0,2.0,69,40.0
90,G4,26.0,1.0,51,40.0
91,D5,26.0,1.0,51,40.0
92,B3,26.0,1.0,47,40.0
93,D4,26.0,1.0,47,40.0
94,G4,27.0,1.0,56,40.0
95,C5,27.0,1.0,56,40.0
96,E5,27.0,1.0,56,40.0
97,E4,27.0,1.0,51,40.0
98,B-3,27.0,1.0,51,40.0
99,C4,27.0,1.0,51,40.0
100,G#4,28.0,0.5,62,40.0
101,C5,28.0,0.5,62,40.0
102,F5,28.0,0.5,62,40.0
103,F4,28.0,0.5,57,40.0
104,C4,28.0,0.5,57,40.0
105,G#3,28.0,0.5,57,40.0
106,G#5,29.0,1.25,84,40.0
107,B-1,30.0,2.0,84,40.0
108,B-2,30.0,2.0,84,40.0
109,G5,30.25,0.125,61,40.0
110,G#5,30.375,0.125,63,40.0
111,B-5,30.5,0.125,65,40.0
112,G#5,30.625,0.125,67,40.0
113,G5,30.75,0.125,67,40.0
114,F5,30.875,0.125,67,40.0
115,E-5,31.0,0.125,67,40.0
116,D5,31.125,0.125,67,40.0
117,C5,31.25,0.125,67,40.0
118,B-4,31.375,0.125,67,40.0
119,G#4,31.5,7/125,62,40.0
120,G4,31.5,7/125,62,40.0
121,F4,31.613,7/125,60,40.0
122,E-4,31.613,7/125,60,40.0
123,D4,31.725,7/125,58,40.0
124,F4,31.725,7/125,58,40.0
125,G#4,31.837,7/125,54,40.0
126,F4,31.837,7/125,54,40.0
127,D4,31.95,1/20,53,40.0
128,E-4,32.0,0.5,50,40.0
129,E-2,32.0,19/40,48,40.0
130,E-3,32.0,19/40,48,40.0
131,E-3,32.5,19/40,27,40.0
132,G3,32.5,19/40,27,40.0
133,B-3,32.5,19/40,27,40.0
134,E-4,33.0,1.75,50,40.0
135,E-5,33.0,1.75,50,40.0
136,E-3,33.0,19/40,27,40.0
137,G3,33.0,19/40,27,40.0
138,B-3,33.0,19/40,27,40.0
139,E-3,33.5,19/40,27,40.0
140,G3,33.5,19/40,27,40.0
141,B-3,33.5,19/40,27,40.0
142,E-3,34.0,19/40,27,40.0
143,G3,34.0,19/40,27,40.0
144,B-3,34.0,19/40,27,40.0
145,E-3,34.5,19/40,27,40.0
146,G3,34.5,19/40,27,40.0
147,B-3,34.5,19/40,27,40.0
148,E-4,34.75,0.25,50,40.0
149,E-5,34.75,0.25,50,40.0
150,F4,35.0,0.75,52,40.0
151,F5,35.0,0.75,52,40.0
152,E-3,35.0,19/40,27,40.0
153,G3,35.0,19/40,27,40.0
154,B-3,35.0,19/40,27,40.0
155,E-3,35.5,19/40,27,40.0
156,G3,35.5,19/40,27,40.0
157,B-3,35.5,19/40,27,40.0
158,G4,35.75,119/500,54,40.0
159,G5,35.75,119/500,54,40.0
160,G4,36.0,1.0,54,40.0
161,G5,36.0,1.0,54,40.0
162,E-3,36.0,19/40,28,40.0
163,G#3,36.0,19/40,28,40.0
164,C4,36.0,19/40,28,40.0
165,E-3,36.5,19/40,29,40.0
166,G#3,36.5,19/40,29,40.0
167,C4,36.5,19/40,29,40.0
168,F4,37.0,0.5,46,40.0
169,F5,37.0,0.5,46,40.0
170,E-3,37.0,19/40,29,40.0
171,G#3,37.0,19/40,29,40.0
172,C4,37.0,19/40,29,40.0
173,E-3,37.5,19/40,29,40.0
174,G#3,37.5,19/40,29,40.0
175,C4,37.5,19/40,29,40.0
176,F4,37.75,0.25,90,40.0
177,F3,38.0,0.75,85,40.0
178,G#3,38.0,0.75,85,40.0
179,B3,38.0,0.75,85,40.0
180,F4,38.0,0.75,85,40.0
181,D2,38.0,19/40,74,40.0
182,D3,38.0,19/40,74,40.0
183,D2,38.5,19/40,74,40.0
184,D3,38.5,19/40,74,40.0
185,F3,38.75,119/500,78,40.0
186,G#3,38.75,119/500,78,40.0
187,B3,38.75,119/500,78,40.0
188,F4,38.75,119/500,78,40.0
189,F3,39.0,0.75,82,40.0
190,G#3,39.0,0.75,82,40.0
191,C4,39.0,0.75,82,40.0
192,F4,39.0,0.75,82,40.0
193,C2,39.0,19/40,74,40.0
194,C3,39.0,19/40,74,40.0
195,C2,39.5,19/40,74,40.0
196,C3,39.5,19/40,74,40.0
197,F3,39.75,119/500,82,40.0
198,G#3,39.75,119/500,82,40.0
199,C4,39.75,119/500,82,40.0
200,F4,39.75,119/500,82,40.0
201,F3,40.0,1.0,82,40.0
202,G#3,40.0,1.0,82,40.0
203,D4,40.0,1.0,82,40.0
204,F4,40.0,1.0,82,40.0
205,B1,40.0,19/40,74,40.0
206,B2,40.0,19/40,74,40.0
207,B2,40.5,19/40,22,40.0
208,D3,40.5,19/40,22,40.0
209,F3,40.5,19/40,22,40.0
210,G#3,40.5,19/40,22,40.0
211,F4,41.0,1.75,50,40.0
212,F5,41.0,1.75,50,40.0
213,B2,41.0,19/40,22,40.0
214,D3,41.0,19/40,22,40.0
215,F3,41.0,19/40,22,40.0
216,G#3,41.0,19/40,22,40.0
217,B2,41.5,19/40,22,40.0
218,D3,41.5,19/40,22,40.0
219,F3,41.5,19/40,22,40.0
220,G#3,41.5,19/40,22,40.0
221,B-2,42.0,19/40,22,40.0
222,D3,42.0,19/40,22,40.0
223,F3,42.0,19/40,22,40.0
224,G#3,42.0,19/40,22,40.0
225,B-2,42.5,19/40,22,40.0
226,D3,42.5,19/40,22,40.0
227,F3,42.5,19/40,22,40.0
228,G#3,42.5,19/40,22,40.0
229,F4,42.75,0.25,50,40.0
230,F5,42.75,0.25,50,40.0
231,G4,43.0,0.75,52,40.0
232,G5,43.0,0.75,52,40.0
233,B-2,43.0,19/40,22,40.0
234,D3,43.0,19/40,22,40.0
235,F3,43.0,19/40,22,40.0
236,G#3,43.0,19/40,22,40.0
237,B-2,43.5,19/40,22,40.0
238,D3,43.5,19/40,22,40.0
239,F3,43.5,19/40,22,40.0
240,G#3,43.5,19/40,22,40.0
241,G#4,43.75,119/500,54,40.0
242,G#5,43.75,119/500,54,40.0
243,G#4,44.0,1.0,54,40.0
244,G#5,44.0,1.0,54,40.0
245,B-2,44.0,19/40,22,40.0
246,C#3,44.0,19/40,22,40.0
247,E3,44.0,19/40,22,40.0
248,G3,44.0,19/40,22,40.0
249,B-2,44.5,19/40,23,40.0
250,C#3,44.5,19/40,23,40.0
251,E3,44.5,19/40,23,40.0
252,G3,44.5,19/40,23,40.0
253,G4,45.0,0.5,50,40.0
254,G5,45.0,0.5,50,40.0
255,B-2,45.0,19/40,23,40.0
256,C#3,45.0,19/40,23,40.0
257,E3,45.0,19/40,23,40.0
258,G3,45.0,19/40,23,40.0
259,B-2,45.5,19/40,23,40.0
260,C#3,45.5,19/40,23,40.0
261,E3,45.5,19/40,23,40.0
262,G3,45.5,19/40,23,40.0
263,G3,45.75,0.25,79,40.0
264,C#4,45.75,0.25,79,40.0
265,E4,45.75,0.25,79,40.0
266,G4,45.75,0.25,79,40.0
267,A3,46.0,0.75,85,40.0
268,C#4,46.0,0.75,85,40.0
269,E-4,46.0,0.75,85,40.0
270,A4,46.0,0.75,85,40.0
271,A1,46.0,19/40,74,40.0
272,A2,46.0,19/40,74,40.0
273,A1,46.5,19/40,74,40.0
274,A2,46.5,19/40,74,40.0
275,A3,46.75,119/500,78,40.0
276,C#4,46.75,119/500,78,40.0
277,E-4,46.75,119/500,78,40.0
278,A4,46.75,119/500,78,40.0
279,B-3,47.0,0.75,82,40.0
280,C#4,47.0,0.75,82,40.0
281,E-4,47.0,0.75,82,40.0
282,B-4,47.0,0.75,82,40.0
283,G1,47.0,19/40,74,40.0
284,G2,47.0,19/40,74,40.0
285,G1,47.5,19/40,74,40.0
286,G2,47.5,19/40,74,40.0
287,B-3,47.75,119/500,82,40.0
288,C#4,47.75,119/500,82,40.0
289,E-4,47.75,119/500,82,40.0
290,B-4,47.75,119/500,82,40.0
291,A3,48.0,1.0,82,40.0
292,D4,48.0,1.0,82,40.0
293,F#4,48.0,1.0,82,40.0
294,A4,48.0,1.0,82,40.0
295,F#1,48.0,19/40,74,40.0
296,F#2,48.0,19/40,74,40.0
297,F#3,48.5,19/40,29,40.0
298,A3,48.5,19/40,29,40.0
299,D4,48.5,19/40,29,40.0
300,A4,49.0,1.75,50,40.0
301,A5,49.0,1.75,50,40.0
302,F#3,49.0,19/40,29,40.0
303,A3,49.0,19/40,29,40.0
304,D4,49.0,19/40,29,40.0
305,F#3,49.5,19/40,29,40.0
306,A3,49.5,19/40,29,40.0
307,D4,49.5,19/40,29,40.0
308,F#3,50.0,19/40,29,40.0
309,A3,50.0,19/40,29,40.0
310,D4,50.0,19/40,29,40.0
311,F#3,50.5,19/40,29,40.0
312,A3,50.5,19/40,29,40.0
313,D4,50.5,19/40,29,40.0
314,A4,50.75,0.25,50,40.0
315,A5,50.75,0.25,50,40.0
316,B4,51.0,0.75,52,40.0
317,B5,51.0,0.75,52,40.0
318,F#3,51.0,19/40,29,40.0
319,A3,51.0,19/40,29,40.0
320,D4,51.0,19/40,29,40.0
321,F#3,51.5,19/40,29,40.0
322,A3,51.5,19/40,29,40.0
323,D4,51.5,19/40,29,40.0
324,C5,51.75,119/500,54,40.0
325,C6,51.75,119/500,54,40.0
326,C5,52.0,1.0,54,40.0
327,C6,52.0,1.0,54,40.0
328,F3,52.0,19/40,30,40.0
329,G#3,52.0,19/40,30,40.0
330,D4,52.0,19/40,30,40.0
331,F3,52.5,19/40,30,40.0
332,G#3,52.5,19/40,30,40.0
333,D4,52.5,19/40,30,40.0
334,B4,53.0,0.5,50,40.0
335,B5,53.0,0.5,50,40.0
336,F3,53.0,19/40,30,40.0
337,G#3,53.0,19/40,30,40.0
338,D4,53.0,19/40,30,40.0
339,F3,53.5,19/40,30,40.0
340,G#3,53.5,19/40,30,40.0
341,D4,53.5,19/40,30,40.0
342,D3,54.0,19/40,42,40.0
343,F3,54.0,19/40,42,40.0
344,B3,54.0,19/40,42,40.0
345,D3,54.5,19/40,42,40.0
346,F3,54.5,19/40,42,40.0
347,B3,54.5,19/40,42,40.0
348,B4,55.0,0.75,71,40.0
349,B5,55.0,0.75,71,40.0
350,D3,55.0,19/40,42,40.0
351,F3,55.0,19/40,42,40.0
352,B3,55.0,19/40,42,40.0
353,D3,55.5,19/40,42,40.0
354,F3,55.5,19/40,42,40.0
355,B3,55.5,19/40,42,40.0
356,C5,55.75,0.25,68,40.0
357,C6,55.75,0.25,68,40.0
358,C#5,56.0,1.0,80,40.0
359,C#6,56.0,1.0,80,40.0
360,B2,56.0,19/40,50,40.0
361,D3,56.0,19/40,50,40.0
362,G#3,56.0,19/40,50,40.0
363,B2,56.5,19/40,52,40.0
364,D3,56.5,19/40,52,40.0
365,G#3,56.5,19/40,52,40.0
366,D5,57.0,1.0,85,40.0
367,D6,57.0,1.0,85,40.0
368,B2,57.0,19/40,47,40.0
369,D3,57.0,19/40,47,40.0
370,G#3,57.0,19/40,47,40.0
371,B2,57.5,19/40,47,40.0
372,D3,57.5,19/40,47,40.0
373,G#3,57.5,19/40,47,40.0
374,G#2,58.0,19/40,54,40.0
375,B2,58.0,19/40,54,40.0
376,F3,58.0,19/40,54,40.0
377,G#2,58.5,19/40,54,40.0
378,B2,58.5,19/40,54,40.0
379,F3,58.5,19/40,54,40.0
380,D5,59.0,0.75,90,40.0
381,D6,59.0,0.75,90,40.0
382,G#2,59.0,19/40,54,40.0
383,B2,59.0,19/40,54,40.0
384,F3,59.0,19/40,54,40.0
385,G#2,59.5,19/40,54,40.0
386,B2,59.5,19/40,54,40.0
387,F3,59.5,19/40,54,40.0
388,E-5,59.75,0.25,81,40.0
389,E-6,59.75,0.25,81,40.0
390,E5,60.0,1.0,88,40.0
391,E6,60.0,1.0,88,40.0
392,G2,60.0,19/40,54,40.0
393,B2,60.0,19/40,54,40.0
394,F3,60.0,19/40,54,40.0
395,G2,60.5,19/40,54,40.0
396,B2,60.5,19/40,54,40.0
397,F3,60.5,19/40,54,40.0
398,F5,61.0,1979/1000,89,40.0
399,F6,61.0,1979/1000,89,40.0
400,G2,61.0,19/40,54,40.0
401,B2,61.0,19/40,54,40.0
402,F3,61.0,19/40,54,40.0
403,G2,61.5,19/40,54,40.0
404,B2,61.5,19/40,54,40.0
405,F3,61.5,19/40,54,40.0
406,G#2,62.0,19/40,56,40.0
407,C3,62.0,19/40,56,40.0
408,F3,62.0,19/40,56,40.0
409,G#2,62.5,19/40,58,40.0
410,C3,62.5,19/40,58,40.0
411,F3,62.5,19/40,58,40.0
412,F5,63.0,979/1000,96,40.0
413,F6,63.0,979/1000,96,40.0
414,G#2,63.0,19/40,60,40.0
415,C3,63.0,19/40,60,40.0
416,F3,63.0,19/40,60,40.0
417,G#2,63.5,19/40,62,40.0
418,C3,63.5,19/40,62,40.0
419,F3,63.5,19/40,62,40.0
420,F5,64.0,1.25,96,40.0
421,F6,64.0,1.25,96,40.0
422,G2,64.0,1.0,75,40.0
423,B2,64.0,1.0,75,40.0
424,F3,64.0,1.0,75,40.0
425,E-6,65.25,0.125,62,40.0
426,D6,65.375,0.125,62,40.0
427,F6,65.5,0.125,62,40.0
428,E-6,65.625,0.125,62,40.0
429,D6,65.75,0.125,62,40.0
430,C6,65.875,0.125,62,40.0
431,B5,66.0,0.25,62,40.0
432,B5,66.5,0.25,52,40.0
433,F5,67.0,0.25,43,40.0
434,B5,67.0,0.25,43,40.0
435,G4,67.0,0.25,38,40.0
436,D5,67.0,0.25,38,40.0
437,F5,67.5,0.25,44,40.0
438,B5,67.5,0.25,44,40.0
439,G4,67.5,0.25,38,40.0
440,D5,67.5,0.25,38,40.0
441,E-5,68.0,1.0,44,40.0
442,C6,68.0,1.0,44,40.0
443,G#4,68.0,1.0,38,40.0
444,C5,68.0,1.0,38,40.0
445,C6,72.0,1.25,65,40.0
446,B5,73.25,0.125,61,40.0
447,C6,73.375,0.125,63,40.0
448,D6,73.5,83/1000,66,40.0
449,C6,73.583,83/1000,65,40.0
450,B-5,73.667,83/1000,64,40.0
451,G#5,73.75,83/1000,63,40.0
452,G5,73.833,83/1000,61,40.0
453,B-5,73.917,83/1000,60,40.0
454,G#5,74.0,0.25,62,40.0
455,G#5,74.5,0.25,49,40.0
456,G#5,75.0,0.25,47,40.0
457,C4,75.0,0.25,30,40.0
458,F3,75.0,0.25,30,40.0
459,D4,75.0,0.25,30,40.0
460,G#5,75.5,0.25,48,40.0
461,C4,75.5,0.25,30,40.0
462,F3,75.5,0.25,30,40.0
463,D4,75.5,0.25,30,40.0
464,G5,76.0,0.5,50,40.0
465,C4,76.0,1.0,30,40.0
466,G3,76.0,1.0,30,40.0
467,E-4,76.0,1.0,30,40.0
468,E-6,76.5,583/1000,65,40.0
469,D6,77.083,83/1000,52,40.0
470,C#6,77.167,83/1000,52,40.0
471,C6,77.25,83/1000,52,40.0
472,B5,77.333,83/1000,52,40.0
473,B-5,77.417,83/1000,53,40.0
474,A5,77.5,71/1000,53,40.0
475,G#5,77.571,71/1000,53,40.0
476,G5,77.642,71/1000,53,40.0
477,F#5,77.713,71/1000,54,40.0
478,F5,77.783,71/1000,54,40.0
479,E5,77.854,71/1000,54,40.0
480,E-5,77.925,3/40,54,40.0
481,D5,78.0,0.125,54,40.0
482,G2,78.0,1.0,35,40.0
483,D3,78.0,1.0,35,40.0
484,F3,78.0,1.0,35,40.0
485,C#5,78.125,0.125,55,40.0
486,C5,78.25,0.125,55,40.0
487,B4,78.375,0.125,56,40.0
488,B-4,78.5,0.125,56,40.0
489,A4,78.625,0.125,56,40.0
490,G#4,78.75,0.125,57,40.0
491,G4,78.875,0.125,57,40.0
492,F#4,79.0,0.125,57,40.0
493,F4,79.125,0.125,58,40.0
494,E4,79.25,0.125,57,40.0
495,E-4,79.375,0.125,57,40.0
496,D4,79.5,0.125,58,40.0
497,C#4,79.625,0.125,63,40.0
498,C4,79.75,0.125,68,40.0
499,B3,79.875,0.125,73,40.0
500,G#4,80.0,0.75,82,40.0
501,B3,80.75,0.25,68,40.0
502,C4,81.0,1.5,50,40.0
503,C2,81.0,19/40,44,40.0
504,C3,81.25,0.25,41,40.0
505,C2,81.5,19/40,44,40.0
506,C3,81.75,0.25,41,40.0
507,C2,82.0,19/40,44,40.0
508,C3,82.25,0.25,41,40.0
509,C2,82.5,19/40,45,40.0
510,B-3,82.5,0.188,52,40.0
511,E4,82.5,0.188,52,40.0
512,C3,82.75,0.25,41,40.0
513,C2,83.0,19/40,45,40.0
514,G#3,83.0,0.188,54,40.0
515,F4,83.0,0.188,54,40.0
516,C3,83.25,0.25,46,40.0
517,C2,83.5,19/40,47,40.0
518,E4,83.5,0.188,56,40.0
519,G4,83.5,0.188,56,40.0
520,C3,83.75,0.25,47,40.0
521,C2,84.0,19/40,49,40.0
522,F4,84.0,0.188,57,40.0
523,G#4,84.0,0.188,57,40.0
524,C3,84.25,0.25,50,40.0
525,C2,84.5,19/40,51,40.0
526,D4,84.5,0.188,59,40.0
527,B4,84.5,0.188,59,40.0
528,C3,84.75,0.25,53,40.0
529,C2,85.0,19/40,55,40.0
530,E-4,85.0,0.188,61,40.0
531,C5,85.0,0.188,61,40.0
532,C3,85.25,0.25,50,40.0
533,C2,85.5,19/40,53,40.0
534,E4,85.5,1.0,55,40.0
535,C5,85.5,1.0,55,40.0
536,C3,85.75,0.25,47,40.0
537,C2,86.0,19/40,53,40.0
538,C3,86.25,0.25,47,40.0
539,C2,86.5,19/40,44,40.0
540,B-4,86.5,0.188,51,40.0
541,E5,86.5,0.188,51,40.0
542,C3,86.75,0.25,40,40.0
543,C2,87.0,19/40,43,40.0
544,G#4,87.0,0.188,53,40.0
545,F5,87.0,0.188,53,40.0
546,C3,87.25,0.25,45,40.0
547,C2,87.5,19/40,46,40.0
548,E5,87.5,0.188,55,40.0
549,G5,87.5,0.188,55,40.0
550,C3,87.75,0.25,47,40.0
551,C2,88.0,19/40,48,40.0
552,F5,88.0,0.188,57,40.0
553,G#5,88.0,0.188,57,40.0
554,C3,88.25,0.25,50,40.0
555,C2,88.5,19/40,51,40.0
556,D5,88.5,0.188,59,40.0
557,B5,88.5,0.188,59,40.0
558,C3,88.75,0.25,53,40.0
559,C2,89.0,19/40,55,40.0
560,C5,89.0,1.0,56,40.0
561,G5,89.0,1.0,56,40.0
562,E-5,89.0,1.0,56,40.0
563,C6,89.0,1.0,56,40.0
564,C3,89.25,0.25,50,40.0
565,C2,89.5,19/40,53,40.0
566,C3,89.75,0.25,47,40.0
567,D2,90.0,19/40,55,40.0
568,G4,90.0,1.0,58,40.0
569,B4,90.0,1.0,58,40.0
570,F5,90.0,1.0,58,40.0
571,G5,90.0,1.0,58,40.0
572,D3,90.25,0.25,50,40.0
573,D2,90.5,19/40,55,40.0
574,D3,90.75,0.25,51,40.0
575,E-2,91.0,19/40,55,40.0
576,G4,91.0,1.0,60,40.0
577,C5,91.0,1.0,60,40.0
578,E-5,91.0,1.0,60,40.0
579,E-3,91.25,0.25,55,40.0
580,E-2,91.5,19/40,55,40.0
581,E-3,91.75,0.25,55,40.0
582,F2,92.0,19/40,55,40.0
583,F4,92.0,1.0,64,40.0
584,G#4,92.0,1.0,64,40.0
585,D5,92.0,1.0,64,40.0
586,F3,92.25,0.25,53,40.0
587,F2,92.5,19/40,55,40.0
588,F3,92.75,0.25,55,40.0
589,G4,93.0,1.0,74,40.0
590,G2,93.0,19/40,56,40.0
591,E-4,93.0,2.0,68,40.0
592,C5,93.0,2.0,68,40.0
593,G3,93.25,0.25,56,40.0
594,G2,93.5,19/40,57,40.0
595,G3,93.75,0.25,57,40.0
596,F#4,94.0,1.0,74,40.0
597,G#2,94.0,19/40,58,40.0
598,G#3,94.25,0.25,59,40.0
599,G#2,94.5,19/40,59,40.0
600,G#3,94.75,0.25,60,40.0
601,F#2,95.0,19/40,60,40.0
602,F#3,95.25,0.25,55,40.0
603,F#2,95.5,19/40,61,40.0
604,F#3,95.75,0.25,55,40.0
605,A4,96.0,1.0,77,40.0
606,G2,96.0,19/40,58,40.0
607,E-4,96.0,1.0,68,40.0
608,C5,96.0,1.0,68,40.0
609,G3,96.25,0.25,55,40.0
610,G2,96.5,19/40,58,40.0
611,G3,96.75,0.25,55,40.0
612,C2,97.0,19/40,48,40.0
613,D4,97.0,1.0,66,40.0
614,F4,97.0,1.0,66,40.0
615,B4,97.0,1.0,66,40.0
616,C3,97.25,0.25,45,40.0
617,C2,97.5,19/40,44,40.0
618,C3,97.75,0.25,41,40.0
619,C2,98.0,19/40,44,40.0
620,C4,98.0,0.188,71,40.0
621,E-4,98.0,0.188,71,40.0
622,C5,98.0,0.188,71,40.0
623,C3,98.25,0.25,40,40.0
624,C4,98.5,1.0,67,40.0
625,C2,98.5,19/40,44,40.0
626,C3,98.75,0.25,41,40.0
627,C2,99.0,19/40,44,40.0
628,C3,99.25,0.25,46,40.0
629,C2,99.5,19/40,47,40.0
630,B-3,99.5,0.188,52,40.0
631,E4,99.5,0.188,52,40.0
632,C3,99.75,0.25,47,40.0
633,C2,100.0,19/40,49,40.0
634,G#3,100.0,0.188,54,40.0
635,F4,100.0,0.188,54,40.0
636,C3,100.25,0.25,50,40.0
637,C2,100.5,19/40,51,40.0
638,E4,100.5,0.188,55,40.0
639,G4,100.5,0.188,55,40.0
640,C3,100.75,0.25,53,40.0
641,C2,101.0,19/40,55,40.0
642,F4,101.0,0.188,57,40.0
643,G#4,101.0,0.188,57,40.0
644,C3,101.25,0.25,50,40.0
645,C2,101.5,19/40,53,40.0
646,D4,101.5,0.188,59,40.0
647,B4,101.5,0.188,59,40.0
648,C3,101.75,0.25,47,40.0
649,C2,102.0,19/40,53,40.0
650,E-4,102.0,0.188,61,40.0
651,C5,102.0,0.188,61,40.0
652,C3,102.25,0.25,47,40.0
653,C2,102.5,19/40,44,40.0
654,E4,102.5,1.0,55,40.0
655,C5,102.5,1.0,55,40.0
656,C3,102.75,0.25,40,40.0
657,C2,103.0,19/40,43,40.0
658,C3,103.25,0.25,45,40.0
659,C2,103.5,19/40,46,40.0
660,B-4,103.5,0.188,51,40.0
661,E5,103.5,0.188,51,40.0
662,C3,103.75,0.25,47,40.0
663,C2,104.0,19/40,48,40.0
664,G#4,104.0,0.188,53,40.0
665,F5,104.0,0.188,53,40.0
666,C3,104.25,0.25,50,40.0
667,C2,104.5,19/40,51,40.0
668,E5,104.5,0.188,55,40.0
669,G5,104.5,0.188,55,40.0
670,C3,104.75,0.25,53,40.0
671,C2,105.0,19/40,55,40.0
672,F5,105.0,0.188,57,40.0
673,G#5,105.0,0.188,57,40.0
674,C3,105.25,0.25,50,40.0
675,C2,105.5,19/40,53,40.0
676,D5,105.5,0.188,59,40.0
677,B5,105.5,0.188,59,40.0
678,C3,105.75,0.25,47,40.0
679,D2,106.0,19/40,55,40.0
680,C5,106.0,1.0,56,40.0
681,G5,106.0,1.0,56,40.0
682,E-5,106.0,1.0,56,40.0
683,C6,106.0,1.0,56,40.0
684,D3,106.25,0.25,50,40.0
685,D2,106.5,19/40,55,40.0
686,D3,106.75,0.25,51,40.0
687,E-2,107.0,19/40,55,40.0
688,G4,107.0,1.0,58,40.0
689,B4,107.0,1.0,58,40.0
690,F5,107.0,1.0,58,40.0
691,G5,107.0,1.0,58,40.0
692,E-3,107.25,0.25,55,40.0
693,E-2,107.5,19/40,55,40.0
694,E-3,107.75,0.25,55,40.0
695,F2,108.0,19/40,55,40.0
696,G4,108.0,1.0,60,40.0
697,C5,108.0,1.0,60,40.0
698,E-5,108.0,1.0,60,40.0
699,F3,108.25,0.25,53,40.0
700,F2,108.5,19/40,55,40.0
701,F3,108.75,0.25,55,40.0
702,G2,109.0,19/40,56,40.0
703,F4,109.0,1.0,64,40.0
704,G#4,109.0,1.0,64,40.0
705,D5,109.0,1.0,64,40.0
706,G3,109.25,0.25,56,40.0
707,G2,109.5,19/40,57,40.0
708,G3,109.75,0.25,57,40.0
709,G4,110.0,1.0,74,40.0
710,G#2,110.0,19/40,58,40.0
711,E-4,110.0,2.0,68,40.0
712,C5,110.0,2.0,68,40.0
713,G#3,110.25,0.25,59,40.0
714,G#2,110.5,19/40,59,40.0
715,G#3,110.75,0.25,60,40.0
716,F#4,111.0,1.0,74,40.0
717,F#2,111.0,19/40,60,40.0
718,F#3,111.25,0.25,55,40.0
719,F#2,111.5,19/40,61,40.0
720,F#3,111.75,0.25,55,40.0
721,F#2,112.0,19/40,58,40.0
722,F#3,112.25,0.25,55,40.0
723,F#2,112.5,19/40,58,40.0
724,F#3,112.75,0.25,55,40.0
725,G2,113.0,0.5,55,40.0
726,G3,113.0,0.5,55,40.0
727,D4,113.5,19/40,50,40.0
728,B3,113.5,19/40,50,40.0
729,A4,114.0,2.0,77,40.0
730,E-4,114.0,2.0,68,40.0
731,C5,114.0,2.0,68,40.0
732,D4,114.0,19/40,50,40.0
733,B3,114.0,19/40,50,40.0
734,B3,114.5,19/40,50,40.0
735,D4,114.5,19/40,50,40.0
736,G3,115.0,0.5,50,40.0
737,E-4,115.5,19/40,50,40.0
738,C4,115.5,19/40,50,40.0
739,D4,116.0,0.5,55,40.0
740,G4,116.0,0.5,55,40.0
741,B4,116.0,0.5,55,40.0
742,E-4,116.0,19/40,50,40.0
743,C4,116.0,19/40,50,40.0
744,E-4,116.5,19/40,50,40.0
745,C4,116.5,19/40,50,40.0
746,G4,117.0,1.0,80,40.0
747,G5,117.0,1.0,80,40.0
748,F4,117.0,0.5,50,40.0
749,D4,117.0,0.5,50,40.0
750,G4,118.0,0.5,80,40.0
751,G5,118.0,0.5,80,40.0
752,G4,119.0,1.0,80,40.0
753,G5,119.0,1.0,80,40.0
754,G#1,120.0,0.25,55,40.0
755,G4,120.0,0.25,80,40.0
756,G5,120.0,0.25,80,40.0
757,F5,120.25,0.25,70,40.0
758,G#2,120.25,0.25,55,40.0
759,D5,120.5,0.25,69,40.0
760,G#1,120.5,0.25,55,40.0
761,B4,120.75,0.25,69,40.0
762,G#2,120.75,0.25,55,40.0
763,G4,121.0,0.25,68,40.0
764,G1,121.0,0.5,50,40.0
765,G2,121.0,0.5,50,40.0
766,F4,121.25,0.25,67,40.0
767,D4,121.5,0.25,66,40.0
768,D4,121.5,19/40,50,40.0
769,B3,121.5,19/40,50,40.0
770,B3,121.75,0.25,65,40.0
771,C4,122.0,0.25,65,40.0
772,D4,122.0,19/40,50,40.0
773,B3,122.0,19/40,50,40.0
774,E-4,122.25,0.25,64,40.0
775,C4,122.5,0.25,65,40.0
776,B3,122.5,19/40,50,40.0
777,D4,122.5,19/40,50,40.0
778,G3,122.75,0.25,65,40.0
779,F#3,123.0,0.25,64,40.0
780,G3,123.0,0.5,50,40.0
781,C4,123.25,0.25,64,40.0
782,G#3,123.5,0.25,63,40.0
783,E-4,123.5,19/40,50,40.0
784,C4,123.5,19/40,50,40.0
785,F#3,123.75,0.25,65,40.0
786,G3,124.0,0.5,67,40.0
787,E-4,124.0,19/40,50,40.0
788,C4,124.0,19/40,50,40.0
789,E-4,124.5,19/40,50,40.0
790,C4,124.5,19/40,50,40.0
791,G4,125.0,1.0,80,40.0
792,G5,125.0,1.0,80,40.0
793,F4,125.0,0.5,50,40.0
794,D4,125.0,0.5,50,40.0
795,G4,126.0,0.5,80,40.0
796,G5,126.0,0.5,80,40.0
797,G4,127.0,1.0,80,40.0
798,G5,127.0,1.0,80,40.0
799,G#1,128.0,19/40,55,40.0
800,G4,128.0,0.25,80,40.0
801,G5,128.0,0.25,80,40.0
802,F5,128.25,0.25,72,40.0
803,G#2,128.25,0.25,55,40.0
804,D5,128.5,0.25,71,40.0
805,G#1,128.5,19/40,55,40.0
806,B4,128.75,0.25,70,40.0
807,G#2,128.75,0.25,49,40.0
808,G4,129.0,0.25,69,40.0
809,G1,129.0,19/40,50,40.0
810,F4,129.25,0.25,68,40.0
811,G2,129.25,0.25,51,40.0
812,D4,129.5,0.25,67,40.0
813,G1,129.5,19/40,51,40.0
814,B3,129.75,0.25,66,40.0
815,G2,129.75,0.25,52,40.0
816,C4,130.0,0.25,65,40.0
817,G1,130.0,19/40,53,40.0
818,E-4,130.25,0.25,64,40.0
819,G2,130.25,0.25,54,40.0
820,C4,130.5,0.25,64,40.0
821,G1,130.5,19/40,55,40.0
822,G3,130.75,0.25,67,40.0
823,G2,130.75,0.25,56,40.0
824,F#3,131.0,0.25,66,40.0
825,G1,131.0,19/40,57,40.0
826,C4,131.25,0.25,64,40.0
827,G2,131.25,0.25,58,40.0
828,G#3,131.5,0.25,62,40.0
829,G1,131.5,19/40,59,40.0
830,F#3,131.75,0.25,60,40.0
831,G2,131.75,0.25,60,40.0
832,G3,132.0,0.5,67,40.0
833,G1,132.0,19/40,61,40.0
834,G2,132.25,0.25,61,40.0
835,F#4,132.5,0.188,67,40.0
836,G1,132.5,19/40,62,40.0
837,G2,132.75,0.25,63,40.0
838,G4,133.0,0.188,69,40.0
839,G1,133.0,19/40,64,40.0
840,G2,133.25,0.25,55,40.0
841,G1,133.5,19/40,61,40.0
842,F#4,133.5,0.188,71,40.0
843,C5,133.5,0.188,71,40.0
844,G2,133.75,0.25,55,40.0
845,G1,134.0,19/40,61,40.0
846,G4,134.0,0.188,73,40.0
847,B4,134.0,0.188,73,40.0
848,G2,134.25,0.25,55,40.0
849,G1,134.5,19/40,60,40.0
850,C5,134.5,0.188,75,40.0
851,F#5,134.5,0.188,75,40.0
852,G2,134.75,0.25,55,40.0
853,G1,135.0,19/40,64,40.0
854,B4,135.0,0.188,77,40.0
855,G5,135.0,0.188,77,40.0
856,G2,135.25,0.25,55,40.0
857,G1,135.5,19/40,61,40.0
858,C6,135.5,0.188,79,40.0
859,F#5,135.5,0.188,79,40.0
860,G2,135.75,0.25,55,40.0
861,G1,136.0,19/40,61,40.0
862,B5,136.0,0.25,81,40.0
863,G5,136.0,0.25,81,40.0
864,G2,136.25,0.25,55,40.0
865,G1,136.5,19/40,60,40.0
866,G2,136.75,0.25,55,40.0
867,G#1,137.0,19/40,50,40.0
868,G#2,137.25,0.25,51,40.0
869,G#1,137.5,19/40,51,40.0
870,G#2,137.75,0.25,52,40.0
871,E-4,138.0,2.0,84,40.0
872,G#1,138.0,19/40,53,40.0
873,B-3,138.0,2.0,81,40.0
874,C#4,138.0,2.0,81,40.0
875,G#2,138.25,0.25,54,40.0
876,G#1,138.5,19/40,55,40.0
877,G#2,138.75,0.25,56,40.0
878,G#1,139.0,19/40,57,40.0
879,G#2,139.25,0.25,58,40.0
880,G#1,139.5,19/40,59,40.0
881,G#2,139.75,0.25,60,40.0
882,C4,140.0,0.5,67,40.0
883,E-4,140.0,0.5,84,40.0
884,G#1,140.0,19/40,61,40.0
885,G#2,140.25,0.25,61,40.0
886,C#5,140.5,0.188,67,40.0
887,G#1,140.5,19/40,62,40.0
888,G#2,140.75,0.25,63,40.0
889,C5,141.0,0.188,69,40.0
890,G#1,141.0,19/40,64,40.0
891,G#2,141.25,0.25,55,40.0
892,G#1,141.5,19/40,61,40.0
893,C#5,141.5,0.188,71,40.0
894,G5,141.5,0.188,71,40.0
895,G#2,141.75,0.25,55,40.0
896,G#1,142.0,19/40,61,40.0
897,C5,142.0,0.188,73,40.0
898,G#5,142.0,0.188,73,40.0
899,G#2,142.25,0.25,55,40.0
900,G#1,142.5,19/40,60,40.0
901,G5,142.5,0.188,75,40.0
902,C#6,142.5,0.188,75,40.0
903,G#2,142.75,0.25,55,40.0
904,A1,143.0,19/40,64,40.0
905,G#5,143.0,0.188,77,40.0
906,C6,143.0,0.188,77,40.0
907,A2,143.25,0.25,55,40.0
908,A1,143.5,19/40,61,40.0
909,C#6,143.5,0.188,79,40.0
910,G5,143.5,0.188,79,40.0
911,A2,143.75,0.25,55,40.0
912,A1,144.0,19/40,61,40.0
913,C6,144.0,0.25,81,40.0
914,G#5,144.0,0.25,81,40.0
915,A2,144.25,0.25,55,40.0
916,A1,144.5,19/40,60,40.0
917,A2,144.75,0.25,55,40.0
918,B-1,145.0,19/40,50,40.0
919,B-2,145.25,0.25,51,40.0
920,B-1,145.5,19/40,51,40.0
921,B-2,145.75,0.25,52,40.0
922,B-1,146.0,19/40,53,40.0
923,C4,146.0,2.0,82,40.0
924,E-4,146.0,2.0,82,40.0
925,F#4,146.0,2.0,82,40.0
926,B-2,146.25,0.25,54,40.0
927,B-1,146.5,19/40,55,40.0
928,B-2,146.75,0.25,56,40.0
929,B-1,147.0,19/40,57,40.0
930,B-2,147.25,0.25,58,40.0
931,B-1,147.5,19/40,59,40.0
932,B-2,147.75,0.25,60,40.0
933,B-1,148.0,19/40,61,40.0
934,D4,148.0,0.5,67,40.0
935,F4,148.0,0.5,67,40.0
936,B-2,148.25,0.25,61,40.0
937,B-1,148.5,19/40,62,40.0
938,A4,148.5,0.188,64,40.0
939,E-5,148.5,0.188,64,40.0
940,B-2,148.75,0.25,63,40.0
941,B-1,149.0,19/40,64,40.0
942,B-4,149.0,0.188,67,40.0
943,D5,149.0,0.188,67,40.0
944,B-2,149.25,0.25,55,40.0
945,B-1,149.5,19/40,61,40.0
946,E-5,149.5,0.188,71,40.0
947,A5,149.5,0.188,71,40.0
948,B-2,149.75,0.25,55,40.0
949,B-1,150.0,19/40,61,40.0
950,D5,150.0,0.188,73,40.0
951,B-5,150.0,0.188,73,40.0
952,B-2,150.25,0.25,55,40.0
953,B-1,150.5,19/40,60,40.0
954,A5,150.5,0.188,75,40.0
955,E-6,150.5,0.188,75,40.0
956,B-2,150.75,0.25,55,40.0
957,B-1,151.0,19/40,64,40.0
958,B-5,151.0,0.188,77,40.0
959,D6,151.0,0.188,77,40.0
960,B-2,151.25,0.25,55,40.0
961,B-1,151.5,19/40,61,40.0
962,E-6,151.5,0.188,79,40.0
963,A5,151.5,0.188,79,40.0
964,B-2,151.75,0.25,55,40.0
965,B-1,152.0,19/40,61,40.0
966,D6,152.0,0.25,81,40.0
967,B-5,152.0,0.25,81,40.0
968,B-2,152.25,0.25,55,40.0
969,B-1,152.5,19/40,60,40.0
970,B-2,152.75,0.25,55,40.0
971,B-1,153.0,19/40,64,40.0
972,E-5,153.0,1.0,81,40.0
973,A5,153.0,1.0,81,40.0
974,B-2,153.25,0.25,55,40.0
975,B-1,153.5,19/40,61,40.0
976,B-2,153.75,0.25,55,40.0
977,B-1,154.0,19/40,61,40.0
978,D5,154.0,0.5,81,40.0
979,B-5,154.0,0.5,81,40.0
980,B-2,154.25,0.25,55,40.0
981,B-1,154.5,19/40,60,40.0
982,B-2,154.75,0.25,55,40.0
983,B-1,155.0,19/40,64,40.0
984,A4,155.0,1.0,81,40.0
985,E-5,155.0,1.0,81,40.0
986,B-2,155.25,0.25,55,40.0
987,B-1,155.5,19/40,61,40.0
988,B-2,155.75,0.25,55,40.0
989,B-1,156.0,19/40,61,40.0
990,B-4,156.0,0.5,81,40.0
991,D5,156.0,0.5,81,40.0
992,B-2,156.25,0.25,55,40.0
993,B-1,156.5,19/40,60,40.0
994,B-2,156.75,0.25,55,40.0
995,E-4,157.0,1.0,81,40.0
996,A4,157.0,1.0,81,40.0
997,B-2,157.0,0.5,60,40.0
998,B-1,157.0,0.5,60,40.0
999,D4,158.0,0.5,81,40.0
1000,B-4,158.0,0.5,81,40.0
1001,A3,159.0,1.0,81,40.0
1002,E-4,159.0,1.0,81,40.0
1003,B-3,160.0,0.5,81,40.0
1004,D4,160.0,0.5,81,40.0
1005,A3,160.5,0.5,50,40.0
1006,B-3,161.0,0.5,59,40.0
1007,B-3,161.0,2.0,44,40.0
1008,A3,161.5,0.5,56,40.0
1009,E-4,161.5,19/40,38,40.0
1010,F#4,161.5,19/40,38,40.0
1011,B-3,162.0,0.5,57,40.0
1012,E-4,162.0,19/40,38,40.0
1013,F#4,162.0,19/40,38,40.0
1014,A3,162.5,0.5,49,40.0
1015,E-4,162.5,19/40,38,40.0
1016,F#4,162.5,19/40,38,40.0
1017,B-3,163.0,0.5,57,40.0
1018,B-3,163.0,2.0,44,40.0
1019,A3,163.5,0.5,51,40.0
1020,E-4,163.5,19/40,38,40.0
1021,F#4,163.5,19/40,38,40.0
1022,E-4,164.0,19/40,38,40.0
1023,F#4,164.0,19/40,38,40.0
1024,B-2,164.5,0.25,55,40.0
1025,E-4,164.5,19/40,38,40.0
1026,F#4,164.5,19/40,38,40.0
1027,E-3,165.0,0.25,58,40.0
1028,B-3,165.0,2.0,44,40.0
1029,F3,165.5,0.25,61,40.0
1030,E-4,165.5,19/40,38,40.0
1031,F#4,165.5,19/40,38,40.0
1032,F#3,166.0,0.25,64,40.0
1033,E-4,166.0,19/40,38,40.0
1034,F#4,166.0,19/40,38,40.0
1035,B-4,166.5,0.25,62,40.0
1036,E-4,166.5,19/40,38,40.0
1037,F#4,166.5,19/40,38,40.0
1038,E-5,167.0,0.25,64,40.0
1039,B-3,167.0,2.0,44,40.0
1040,F5,167.5,0.25,66,40.0
1041,E-4,167.5,19/40,38,40.0
1042,F#4,167.5,19/40,38,40.0
1043,B-4,167.875,0.125,65,40.0
1044,F#5,168.0,1.5,75,40.0
1045,E-4,168.0,19/40,38,40.0
1046,F#4,168.0,19/40,38,40.0
1047,E-4,168.5,0.5,38,40.0
1048,F#4,168.5,0.5,38,40.0
1049,B-3,169.0,2.0,44,40.0
1050,E-5,169.5,0.5,63,40.0
1051,F4,169.5,19/40,38,40.0
1052,G#4,169.5,19/40,38,40.0
1053,B-4,169.875,0.125,60,40.0
1054,F#5,170.0,1.5,71,40.0
1055,F4,170.0,19/40,38,40.0
1056,G#4,170.0,19/40,38,40.0
1057,F4,170.5,19/40,38,40.0
1058,G#4,170.5,19/40,38,40.0
1059,B-3,171.0,2.0,44,40.0
1060,E-5,171.5,0.5,58,40.0
1061,F4,171.5,19/40,38,40.0
1062,G#4,171.5,19/40,38,40.0
1063,D5,172.0,0.5,60,40.0
1064,F4,172.0,19/40,38,40.0
1065,G#4,172.0,19/40,38,40.0
1066,B-2,172.5,0.25,57,40.0
1067,F4,172.5,19/40,38,40.0
1068,G#4,172.5,19/40,38,40.0
1069,F3,173.0,0.25,60,40.0
1070,B-3,173.0,2.0,44,40.0
1071,F#3,173.5,0.25,63,40.0
1072,F4,173.5,19/40,38,40.0
1073,G#4,173.5,19/40,38,40.0
1074,G#3,174.0,0.25,66,40.0
1075,F4,174.0,19/40,38,40.0
1076,G#4,174.0,19/40,38,40.0
1077,B-4,174.5,0.5,59,40.0
1078,F4,174.5,19/40,38,40.0
1079,G#4,174.5,19/40,38,40.0
1080,G#5,175.0,0.5,62,40.0
1081,B-3,175.0,2.0,44,40.0
1082,F#5,175.5,0.5,65,40.0
1083,F4,175.5,19/40,38,40.0
1084,G#4,175.5,19/40,38,40.0
1085,F#5,176.0,0.125,60,40.0
1086,F4,176.0,19/40,38,40.0
1087,G#4,176.0,19/40,38,40.0
1088,G#5,176.125,0.125,60,40.0
1089,F#5,176.25,0.25,67,40.0
1090,F5,176.5,0.5,60,40.0
1091,F4,176.5,19/40,38,40.0
1092,G#4,176.5,19/40,38,40.0
1093,F5,177.0,0.125,60,40.0
1094,B-3,177.0,2.0,44,40.0
1095,F#5,177.125,0.125,60,40.0
1096,F5,177.25,0.25,67,40.0
1097,E-5,177.5,0.5,60,40.0
1098,E-4,177.5,19/40,38,40.0
1099,F#4,177.5,19/40,38,40.0
1100,E-5,178.0,0.125,60,40.0
1101,E-4,178.0,19/40,38,40.0
1102,F#4,178.0,19/40,38,40.0
1103,F5,178.125,0.125,60,40.0
1104,E-5,178.25,0.25,66,40.0
1105,D5,178.5,0.5,60,40.0
1106,E-4,178.5,19/40,38,40.0
1107,F#4,178.5,19/40,38,40.0
1108,C5,179.0,0.25,60,40.0
1109,B-3,179.0,2.0,44,40.0
1110,D5,179.5,0.25,60,40.0
1111,E-4,179.5,19/40,38,40.0
1112,F#4,179.5,19/40,38,40.0
1113,E-5,180.0,0.5,60,40.0
1114,E-4,180.0,19/40,38,40.0
1115,F#4,180.0,19/40,38,40.0
1116,B-2,180.5,0.25,55,40.0
1117,E-4,180.5,19/40,38,40.0
1118,F#4,180.5,19/40,38,40.0
1119,E-3,181.0,0.25,58,40.0
1120,B-3,181.0,2.0,44,40.0
1121,F3,181.5,0.25,61,40.0
1122,E-4,181.5,19/40,38,40.0
1123,F#4,181.5,19/40,38,40.0
1124,F#3,182.0,0.25,64,40.0
1125,E-4,182.0,19/40,38,40.0
1126,F#4,182.0,19/40,38,40.0
1127,B-4,182.5,0.25,62,40.0
1128,E-4,182.5,19/40,38,40.0
1129,F#4,182.5,19/40,38,40.0
1130,E-5,183.0,0.25,64,40.0
1131,B-3,183.0,2.0,44,40.0
1132,F5,183.5,0.25,66,40.0
1133,E-4,183.5,19/40,38,40.0
1134,F#4,183.5,19/40,38,40.0
1135,B-4,183.875,0.125,65,40.0
1136,F#5,184.0,1.5,75,40.0
1137,E-4,184.0,19/40,38,40.0
1138,F#4,184.0,19/40,38,40.0
1139,E-4,184.5,19/40,38,40.0
1140,F#4,184.5,19/40,38,40.0
1141,G#3,185.0,2.0,44,40.0
1142,E-5,185.5,0.5,63,40.0
1143,E-4,185.5,19/40,38,40.0
1144,F#4,185.5,19/40,38,40.0
1145,B-4,185.875,0.125,60,40.0
1146,F#5,186.0,1.5,71,40.0
1147,E-4,186.0,19/40,38,40.0
1148,F#4,186.0,19/40,38,40.0
1149,E-4,186.5,19/40,38,40.0
1150,F#4,186.5,19/40,38,40.0
1151,G#3,187.0,2.0,44,40.0
1152,E-5,187.5,0.5,58,40.0
1153,E-4,187.5,19/40,38,40.0
1154,F#4,187.5,19/40,38,40.0
1155,C5,188.0,0.5,60,40.0
1156,E-4,188.0,19/40,38,40.0
1157,F#4,188.0,19/40,38,40.0
1158,G#2,188.5,0.25,57,40.0
1159,E-4,188.5,19/40,38,40.0
1160,F#4,188.5,19/40,38,40.0
1161,E-3,189.0,0.25,60,40.0
1162,G#3,189.0,2.0,44,40.0
1163,F3,189.5,0.25,63,40.0
1164,E-4,189.5,19/40,38,40.0
1165,F#4,189.5,19/40,38,40.0
1166,F#3,190.0,0.25,66,40.0
1167,E-4,190.0,19/40,38,40.0
1168,F#4,190.0,19/40,38,40.0
1169,G#4,190.5,0.5,59,40.0
1170,E-4,190.5,19/40,38,40.0
1171,F#4,190.5,19/40,38,40.0
1172,F#5,191.0,0.5,62,40.0
1173,G#3,191.0,2.0,44,40.0
1174,F5,191.5,0.5,65,40.0
1175,E-4,191.5,19/40,38,40.0
1176,F#4,191.5,19/40,38,40.0
1177,F5,192.0,0.125,60,40.0
1178,E-4,192.0,19/40,38,40.0
1179,F#4,192.0,19/40,38,40.0
1180,F#5,192.125,0.125,60,40.0
1181,F5,192.25,0.25,67,40.0
1182,E-5,192.5,0.5,60,40.0
1183,E-4,192.5,19/40,38,40.0
1184,F#4,192.5,19/40,38,40.0
1185,E-5,193.0,0.125,60,40.0
1186,G#3,193.0,2.0,44,40.0
1187,F5,193.125,0.125,60,40.0
1188,E-5,193.25,0.25,67,40.0
1189,C#5,193.5,0.5,60,40.0
1190,C#4,193.5,19/40,38,40.0
1191,F4,193.5,19/40,38,40.0
1192,C#5,194.0,0.125,60,40.0
1193,C#4,194.0,19/40,38,40.0
1194,F4,194.0,19/40,38,40.0
1195,E-5,194.125,0.125,60,40.0
1196,C#5,194.25,0.25,66,40.0
1197,C5,194.5,0.5,60,40.0
1198,C#4,194.5,19/40,38,40.0
1199,F4,194.5,19/40,38,40.0
1200,B-4,195.0,0.25,60,40.0
1201,G#3,195.0,2.0,44,40.0
1202,C5,195.5,0.25,60,40.0
1203,C#4,195.5,19/40,38,40.0
1204,F4,195.5,19/40,38,40.0
1205,C#5,196.0,0.5,60,40.0
1206,C#4,196.0,19/40,38,40.0
1207,F4,196.0,19/40,38,40.0
1208,G#2,196.5,0.25,55,40.0
1209,C#4,196.5,19/40,38,40.0
1210,F4,196.5,19/40,38,40.0
1211,C#3,197.0,0.25,58,40.0
1212,G#3,197.0,2.0,44,40.0
1213,E-3,197.5,0.25,61,40.0
1214,C#4,197.5,19/40,38,40.0
1215,F4,197.5,19/40,38,40.0
1216,F3,198.0,0.25,64,40.0
1217,C#4,198.0,19/40,38,40.0
1218,F4,198.0,19/40,38,40.0
1219,G#4,198.5,0.25,62,40.0
1220,C#4,198.5,19/40,38,40.0
1221,F4,198.5,19/40,38,40.0
1222,C#5,199.0,0.25,64,40.0
1223,G#3,199.0,2.0,44,40.0
1224,E-5,199.5,0.25,66,40.0
1225,C#4,199.5,19/40,38,40.0
1226,F4,199.5,19/40,38,40.0
1227,G#4,199.875,0.125,65,40.0
1228,F5,200.0,1.5,75,40.0
1229,C#4,200.0,19/40,38,40.0
1230,F4,200.0,19/40,38,40.0
1231,C#4,200.5,19/40,38,40.0
1232,F4,200.5,19/40,38,40.0
1233,G#3,201.0,2.0,44,40.0
1234,C#5,201.5,0.5,63,40.0
1235,E-4,201.5,19/40,38,40.0
1236,F#4,201.5,19/40,38,40.0
1237,G#4,201.875,0.125,60,40.0
1238,F5,202.0,1.5,71,40.0
1239,E-4,202.0,19/40,38,40.0
1240,F#4,202.0,19/40,38,40.0
1241,E-4,202.5,19/40,38,40.0
1242,F#4,202.5,19/40,38,40.0
1243,G#3,203.0,2.0,44,40.0
1244,C#5,203.5,0.5,58,40.0
1245,E-4,203.5,19/40,38,40.0
1246,F#4,203.5,19/40,38,40.0
1247,C5,204.0,0.5,60,40.0
1248,E-4,204.0,19/40,38,40.0
1249,F#4,204.0,19/40,38,40.0
1250,G#2,204.5,0.25,57,40.0
1251,E-4,204.5,19/40,38,40.0
1252,F#4,204.5,19/40,38,40.0
1253,E-3,205.0,0.25,60,40.0
1254,G#3,205.0,2.0,44,40.0
1255,F3,205.5,0.25,63,40.0
1256,E-4,205.5,19/40,38,40.0
1257,F#4,205.5,19/40,38,40.0
1258,F#3,206.0,0.25,66,40.0
1259,E-4,206.0,19/40,38,40.0
1260,F#4,206.0,19/40,38,40.0
1261,G#4,206.5,0.5,59,40.0
1262,E-4,206.5,19/40,38,40.0
1263,F#4,206.5,19/40,38,40.0
1264,F#5,207.0,0.5,62,40.0
1265,G#3,207.0,2.0,44,40.0
1266,F5,207.5,0.5,65,40.0
1267,E-4,207.5,19/40,38,40.0
1268,F#4,207.5,19/40,38,40.0
1269,F5,208.0,0.125,60,40.0
1270,E-4,208.0,19/40,38,40.0
1271,F#4,208.0,19/40,38,40.0
1272,F#5,208.125,0.125,60,40.0
1273,F5,208.25,0.25,67,40.0
1274,E-5,208.5,0.5,60,40.0
1275,E-4,208.5,19/40,38,40.0
1276,F#4,208.5,19/40,38,40.0
1277,E-5,209.0,0.125,60,40.0
1278,C#4,209.0,1.0,54,40.0
1279,F5,209.125,0.125,60,40.0
1280,E-5,209.25,0.25,67,40.0
1281,C#5,209.5,0.5,60,40.0
1282,F4,209.5,0.5,53,40.0
1283,G#4,209.5,0.5,53,40.0
1284,C#5,210.0,0.125,60,40.0
1285,B3,210.0,1.0,60,40.0
1286,E-5,210.125,0.125,60,40.0
1287,C#5,210.25,0.25,66,40.0
1288,C5,210.5,0.5,60,40.0
1289,F4,210.5,0.5,53,40.0
1290,G#4,210.5,0.5,53,40.0
1291,B-4,211.0,0.25,60,40.0
1292,B-3,211.0,2.0,53,40.0
1293,C5,211.5,0.25,57,40.0
1294,F4,211.5,19/40,38,40.0
1295,G#4,211.5,19/40,38,40.0
1296,C#5,212.0,0.5,60,40.0
1297,F4,212.0,19/40,38,40.0
1298,G#4,212.0,19/40,38,40.0
1299,C#3,212.5,0.5,73,40.0
1300,F4,212.5,19/40,38,40.0
1301,G#4,212.5,19/40,38,40.0
1302,G#3,213.0,0.5,77,40.0
1303,B-3,213.0,2.0,44,40.0
1304,B2,213.5,0.25,73,40.0
1305,F4,213.5,19/40,38,40.0
1306,G#4,213.5,19/40,38,40.0
1307,B-2,214.0,0.25,77,40.0
1308,F4,214.0,19/40,38,40.0
1309,G#4,214.0,19/40,38,40.0
1310,B-4,214.5,0.5,59,40.0
1311,F4,214.5,19/40,38,40.0
1312,G#4,214.5,19/40,38,40.0
1313,G#5,215.0,0.5,62,40.0
1314,B-3,215.0,2.0,44,40.0
1315,F#5,215.5,0.5,65,40.0
1316,F4,215.5,19/40,38,40.0
1317,G#4,215.5,19/40,38,40.0
1318,F#5,216.0,0.125,60,40.0
1319,F4,216.0,19/40,38,40.0
1320,G#4,216.0,19/40,38,40.0
1321,G#5,216.125,0.125,60,40.0
1322,F#5,216.25,0.25,67,40.0
1323,F5,216.5,0.5,60,40.0
1324,F4,216.5,19/40,38,40.0
1325,G#4,216.5,19/40,38,40.0
1326,F5,217.0,0.125,60,40.0
1327,E-4,217.0,1.0,54,40.0
1328,F#5,217.125,0.125,60,40.0
1329,F5,217.25,0.25,67,40.0
1330,E-5,217.5,0.5,60,40.0
1331,F#4,217.5,0.5,53,40.0
1332,B-4,217.5,0.5,53,40.0
1333,E-5,218.0,0.125,60,40.0
1334,C#4,218.0,1.0,60,40.0
1335,F5,218.125,0.125,60,40.0
1336,E-5,218.25,0.25,66,40.0
1337,D5,218.5,0.5,60,40.0
1338,F4,218.5,0.5,53,40.0
1339,B-4,218.5,0.5,53,40.0
1340,C5,219.0,0.25,60,40.0
1341,C4,219.0,2.0,53,40.0
1342,D5,219.5,0.25,57,40.0
1343,G4,219.5,19/40,38,40.0
1344,B-4,219.5,19/40,38,40.0
1345,E-5,220.0,0.5,60,40.0
1346,G4,220.0,19/40,38,40.0
1347,B-4,220.0,19/40,38,40.0
1348,E-3,220.5,0.5,73,40.0
1349,G4,220.5,19/40,38,40.0
1350,B-4,220.5,19/40,38,40.0
1351,B-3,221.0,0.5,77,40.0
1352,C4,221.0,2.0,44,40.0
1353,C#3,221.5,0.25,73,40.0
1354,G4,221.5,19/40,38,40.0
1355,B-4,221.5,19/40,38,40.0
1356,C3,222.0,0.25,77,40.0
1357,G4,222.0,19/40,38,40.0
1358,B-4,222.0,19/40,38,40.0
1359,C5,222.5,0.5,59,40.0
1360,G4,222.5,19/40,38,40.0
1361,B-4,222.5,19/40,38,40.0
1362,B-5,223.0,0.5,62,40.0
1363,C4,223.0,2.0,44,40.0
1364,G#5,223.5,0.5,65,40.0
1365,G4,223.5,19/40,38,40.0
1366,B-4,223.5,19/40,38,40.0
1367,G#5,224.0,0.125,60,40.0
1368,G4,224.0,19/40,38,40.0
1369,B-4,224.0,19/40,38,40.0
1370,B-5,224.125,0.125,60,40.0
1371,G#5,224.25,0.25,67,40.0
1372,G5,224.5,0.5,60,40.0
1373,G4,224.5,19/40,38,40.0
1374,B-4,224.5,19/40,38,40.0
1375,G5,225.0,0.125,60,40.0
1376,F4,225.0,2.0,44,40.0
1377,G#5,225.125,0.125,60,40.0
1378,G5,225.25,0.25,67,40.0
1379,F5,225.5,0.5,60,40.0
1380,G#4,225.5,19/40,38,40.0
1381,C5,225.5,19/40,38,40.0
1382,F5,226.0,0.125,60,40.0
1383,G#4,226.0,19/40,38,40.0
1384,C5,226.0,19/40,38,40.0
1385,G5,226.125,0.125,60,40.0
1386,F5,226.25,0.25,66,40.0
1387,E5,226.5,0.5,60,40.0
1388,G#4,226.5,19/40,38,40.0
1389,C5,226.5,19/40,38,40.0
1390,D5,227.0,0.5,60,40.0
1391,B-3,227.0,1.0,44,40.0
1392,E5,227.5,0.5,57,40.0
1393,F4,227.5,19/40,38,40.0
1394,G#4,227.5,19/40,38,40.0
1395,G5,228.0,0.125,60,40.0
1396,B3,228.0,1.0,44,40.0
1397,F4,228.0,19/40,38,40.0
1398,G#4,228.0,19/40,38,40.0
1399,G#5,228.125,0.125,60,40.0
1400,G5,228.25,0.25,67,40.0
1401,F5,228.5,0.5,60,40.0
1402,F4,228.5,19/40,38,40.0
1403,G#4,228.5,19/40,38,40.0
1404,F5,229.0,0.125,60,40.0
1405,C4,229.0,2.0,44,40.0
1406,G5,229.125,0.125,60,40.0
1407,F5,229.25,0.25,67,40.0
1408,E-5,229.5,0.5,60,40.0
1409,E-4,229.5,19/40,37,40.0
1410,G4,229.5,19/40,37,40.0
1411,E-5,230.0,0.125,60,40.0
1412,E-4,230.0,19/40,36,40.0
1413,G4,230.0,19/40,36,40.0
1414,F5,230.125,0.125,60,40.0
1415,E-5,230.25,0.25,66,40.0
1416,D5,230.5,0.5,60,40.0
1417,E-4,230.5,19/40,36,40.0
1418,G4,230.5,19/40,36,40.0
1419,C5,231.0,0.5,60,40.0
1420,G#3,231.0,2.0,41,40.0
1421,D5,231.5,0.5,57,40.0
1422,E-4,231.5,19/40,34,40.0
1423,F4,231.5,19/40,34,40.0
1424,F5,232.0,0.125,60,40.0
1425,E-4,232.0,19/40,34,40.0
1426,F4,232.0,19/40,34,40.0
1427,G5,232.125,0.125,60,40.0
1428,F5,232.25,0.25,67,40.0
1429,E-5,232.5,0.5,59,40.0
1430,E-4,232.5,19/40,33,40.0
1431,F4,232.5,19/40,33,40.0
1432,E-5,233.0,0.125,58,40.0
1433,B-3,233.0,2.0,38,40.0
1434,F5,233.125,0.125,58,40.0
1435,E-5,233.25,0.25,64,40.0
1436,D5,233.5,0.5,57,40.0
1437,E-4,233.5,19/40,32,40.0
1438,G4,233.5,19/40,32,40.0
1439,D5,234.0,0.125,56,40.0
1440,E-4,234.0,19/40,31,40.0
1441,G4,234.0,19/40,31,40.0
1442,E-5,234.125,0.125,55,40.0
1443,D5,234.25,0.25,61,40.0
1444,C5,234.5,0.5,55,40.0
1445,E-4,234.5,19/40,31,40.0
1446,G4,234.5,19/40,31,40.0
1447,C5,235.0,0.125,54,40.0
1448,B-3,235.0,2.0,27,40.0
1449,D5,235.125,0.125,54,40.0
1450,C5,235.25,0.25,59,40.0
1451,B4,235.5,0.5,53,40.0
1452,D4,235.5,19/40,23,40.0
1453,F4,235.5,19/40,23,40.0
1454,C5,236.0,0.125,52,40.0
1455,D4,236.0,19/40,23,40.0
1456,F4,236.0,19/40,23,40.0
1457,D5,236.125,0.125,52,40.0
1458,C5,236.25,0.25,56,40.0
1459,B-4,236.5,0.5,51,40.0
1460,D4,236.5,19/40,23,40.0
1461,F4,236.5,19/40,23,40.0
1462,B-4,237.0,0.188,50,40.0
1463,E-3,237.0,2.0,36,40.0
1464,B-3,237.25,0.25,24,40.0
1465,B-4,237.5,0.188,46,40.0
1466,G3,237.5,0.25,26,40.0
1467,B-3,237.75,0.25,24,40.0
1468,C5,238.0,0.125,37,40.0
1469,G3,238.0,0.25,32,40.0
1470,D5,238.125,0.125,37,40.0
1471,C5,238.25,0.25,41,40.0
1472,B-3,238.25,0.25,25,40.0
1473,B-4,238.5,0.5,37,40.0
1474,G3,238.5,0.25,28,40.0
1475,B-3,238.75,0.25,26,40.0
1476,B-4,239.0,0.188,37,40.0
1477,G3,239.0,0.25,34,40.0
1478,E-3,239.0,1.0,36,40.0
1479,B-3,239.25,0.25,26,40.0
1480,B-4,239.5,0.188,35,40.0
1481,G3,239.5,0.25,29,40.0
1482,B-3,239.75,0.25,26,40.0
1483,E-3,240.0,1.0,36,40.0
1484,E-4,240.25,0.25,25,40.0
1485,B-3,240.25,0.25,28,40.0
1486,G4,240.5,0.25,29,40.0
1487,G3,240.5,0.25,32,40.0
1488,E-4,240.75,0.25,29,40.0
1489,B-3,240.75,0.25,28,40.0
1490,E-5,241.0,1.0,45,40.0
1491,C#3,241.0,2.0,45,40.0
1492,E-4,241.25,0.25,28,40.0
1493,B-3,241.25,0.25,30,40.0
1494,G4,241.5,0.25,30,40.0
1495,G3,241.5,0.25,32,40.0
1496,E-4,241.75,0.25,28,40.0
1497,B-3,241.75,0.25,29,40.0
1498,G4,242.0,0.25,31,40.0
1499,E-5,242.0,1.0,45,40.0
1500,G3,242.0,0.25,38,40.0
1501,E-4,242.25,0.25,30,40.0
1502,B-3,242.25,0.25,30,40.0
1503,G4,242.5,0.25,32,40.0
1504,G3,242.5,0.25,33,40.0
1505,E-4,242.75,0.25,29,40.0
1506,B-3,242.75,0.25,30,40.0
1507,E-5,243.0,1.0,50,40.0
1508,G3,243.0,0.25,38,40.0
1509,C#3,243.0,1.0,45,40.0
1510,E-4,243.25,0.25,30,40.0
1511,B-3,243.25,0.25,29,40.0
1512,G4,243.5,0.25,33,40.0
1513,G3,243.5,0.25,32,40.0
1514,E-4,243.75,0.25,32,40.0
1515,B-3,243.75,0.25,29,40.0
1516,C#3,244.0,1.0,38,40.0
1517,E-4,244.25,0.25,32,40.0
1518,B-3,244.25,0.25,30,40.0
1519,G4,244.5,0.25,36,40.0
1520,G3,244.5,0.25,33,40.0
1521,E-4,244.75,0.25,35,40.0
1522,B-3,244.75,0.25,29,40.0
1523,E-5,245.0,1.0,54,40.0
1524,C3,245.0,0.188,55,40.0
1525,E-4,245.25,0.25,33,40.0
1526,G#3,245.25,0.25,36,40.0
1527,G4,245.5,0.25,35,40.0
1528,E-3,245.5,0.25,39,40.0
1529,E-4,245.75,0.25,32,40.0
1530,G#3,245.75,0.25,35,40.0
1531,G4,246.0,0.25,35,40.0
1532,E-5,246.0,1.0,54,40.0
1533,B-2,246.0,0.188,56,40.0
1534,E-4,246.25,0.25,33,40.0
1535,G3,246.25,0.25,36,40.0
1536,G4,246.5,0.25,35,40.0
1537,C3,246.5,0.25,43,40.0
1538,E-4,246.75,0.25,32,40.0
1539,G3,246.75,0.25,41,40.0
1540,E-5,247.0,1.0,53,40.0
1541,G#2,247.0,0.188,58,40.0
1542,E-4,247.25,0.25,32,40.0
1543,G#3,247.25,0.25,38,40.0
1544,G4,247.5,0.25,35,40.0
1545,C3,247.5,0.25,43,40.0
1546,E-4,247.75,0.25,33,40.0
1547,G#3,247.75,0.25,38,40.0
1548,E-5,248.0,0.188,66,40.0
1549,G2,248.0,0.188,60,40.0
1550,E-4,248.25,0.25,41,40.0
1551,G3,248.25,0.25,40,40.0
1552,G#4,248.5,0.25,45,40.0
1553,C3,248.5,0.25,43,40.0
1554,E-4,248.75,0.25,42,40.0
1555,G3,248.75,0.25,38,40.0
1556,E5,249.0,0.188,67,40.0
1557,F2,249.0,0.188,63,40.0
1558,E4,249.25,0.25,43,40.0
1559,F3,249.25,0.25,42,40.0
1560,C5,249.5,0.25,47,40.0
1561,C3,249.5,0.25,45,40.0
1562,E4,249.75,0.25,43,40.0
1563,F3,249.75,0.25,42,40.0
1564,F5,250.0,0.188,71,40.0
1565,E-2,250.0,0.188,66,40.0
1566,F4,250.25,0.25,45,40.0
1567,E-3,250.25,0.25,41,40.0
1568,C5,250.5,0.25,50,40.0
1569,F2,250.5,0.25,47,40.0
1570,F4,250.75,0.25,45,40.0
1571,E-3,250.75,0.25,41,40.0
1572,G5,251.0,0.188,72,40.0
1573,D2,251.0,0.188,68,40.0
1574,G4,251.25,0.25,47,40.0
1575,D3,251.25,0.25,45,40.0
1576,C5,251.5,0.25,50,40.0
1577,F2,251.5,0.25,49,40.0
1578,G4,251.75,0.25,47,40.0
1579,D3,251.75,0.25,43,40.0
1580,G#5,252.0,0.188,74,40.0
1581,C2,252.0,0.188,70,40.0
1582,G#4,252.25,0.25,49,40.0
1583,C3,252.25,0.25,45,40.0
1584,C5,252.5,0.25,54,40.0
1585,F2,252.5,0.25,51,40.0
1586,G#4,252.75,0.25,49,40.0
1587,C3,252.75,0.25,43,40.0
1588,A5,253.0,0.188,80,40.0
1589,B-1,253.0,0.188,70,40.0
1590,A4,253.25,0.25,50,40.0
1591,B-2,253.25,0.25,47,40.0
1592,C5,253.5,0.25,55,40.0
1593,F2,253.5,0.25,53,40.0
1594,A4,253.75,0.25,51,40.0
1595,B-2,253.75,0.25,48,40.0
1596,B-5,254.0,0.188,84,40.0
1597,G#1,254.0,0.188,72,40.0
1598,B-4,254.25,0.25,51,40.0
1599,G#2,254.25,0.25,47,40.0
1600,F5,254.5,0.25,58,40.0
1601,F2,254.5,0.25,53,40.0
1602,B-4,254.75,0.25,53,40.0
1603,G#2,254.75,0.25,50,40.0
1604,C6,255.0,0.188,85,40.0
1605,G1,255.0,0.188,75,40.0
1606,C5,255.25,0.25,53,40.0
1607,G2,255.25,0.25,50,40.0
1608,F5,255.5,0.25,58,40.0
1609,E-2,255.5,0.25,55,40.0
1610,C5,255.75,0.25,54,40.0
1611,G2,255.75,0.25,50,40.0
1612,C#6,256.0,0.188,85,40.0
1613,G1,256.0,0.188,76,40.0
1614,C#5,256.25,0.25,55,40.0
1615,G2,256.25,0.25,56,40.0
1616,F5,256.5,0.25,63,40.0
1617,E-2,256.5,0.25,58,40.0
1618,C#5,256.75,0.25,55,40.0
1619,G2,256.75,0.25,55,40.0
1620,D6,257.0,0.188,90,40.0
1621,G#1,257.0,0.5,78,40.0
1622,G#2,257.0,0.5,78,40.0
1623,D5,257.25,0.25,57,40.0
1624,F5,257.5,0.25,62,40.0
1625,D5,257.75,0.25,57,40.0
1626,E-6,258.0,0.188,89,40.0
1627,E-5,258.25,0.25,59,40.0
1628,B-5,258.5,0.25,64,40.0
1629,E-5,258.75,0.25,59,40.0
1630,B5,259.0,0.188,91,40.0
1631,B-2,259.0,0.5,78,40.0
1632,B-1,259.0,0.5,78,40.0
1633,B4,259.25,0.25,61,40.0
1634,E-5,259.5,0.25,67,40.0
1635,B4,259.75,0.25,61,40.0
1636,C5,260.25,0.25,78,40.0
1637,E-5,260.5,0.25,84,40.0
1638,C5,260.75,0.25,78,40.0
1639,C6,261.0,0.188,88,40.0
1640,E-3,261.0,2.0,45,40.0
1641,C5,261.25,0.25,78,40.0
1642,B-3,261.25,0.25,30,40.0
1643,E-5,261.5,0.25,84,40.0
1644,G3,261.5,0.25,32,40.0
1645,C5,261.75,0.25,76,40.0
1646,B-3,261.75,0.25,29,40.0
1647,G3,262.0,0.25,38,40.0
1648,F4,262.25,0.25,78,40.0
1649,B-3,262.25,0.25,30,40.0
1650,G#4,262.5,0.25,84,40.0
1651,G3,262.5,0.25,33,40.0
1652,F4,262.75,0.25,78,40.0
1653,B-3,262.75,0.25,30,40.0
1654,D5,263.0,0.188,88,40.0
1655,G3,263.0,0.25,38,40.0
1656,E-3,263.0,1.0,45,40.0
1657,F4,263.25,0.25,78,40.0
1658,B-3,263.25,0.25,29,40.0
1659,G#4,263.5,0.25,84,40.0
1660,G3,263.5,0.25,32,40.0
1661,F4,263.75,0.25,76,40.0
1662,B-3,263.75,0.25,29,40.0
1663,E-3,264.0,1.0,38,40.0
1664,E-4,264.25,0.25,32,40.0
1665,B-3,264.25,0.25,30,40.0
1666,G4,264.5,0.25,36,40.0
1667,G3,264.5,0.25,33,40.0
1668,E-4,264.75,0.25,35,40.0
1669,B-3,264.75,0.25,29,40.0
1670,E-5,265.0,1.0,54,40.0
1671,C#3,265.0,2.0,45,40.0
1672,E-4,265.25,0.25,33,40.0
1673,B-3,265.25,0.25,30,40.0
1674,G4,265.5,0.25,35,40.0
1675,G3,265.5,0.25,32,40.0
1676,E-4,265.75,0.25,32,40.0
1677,B-3,265.75,0.25,29,40.0
1678,G4,266.0,0.25,35,40.0
1679,E-5,266.0,1.0,54,40.0
1680,G3,266.0,0.25,38,40.0
1681,E-4,266.25,0.25,33,40.0
1682,B-3,266.25,0.25,30,40.0
1683,G4,266.5,0.25,35,40.0
1684,G3,266.5,0.25,33,40.0
1685,E-4,266.75,0.25,32,40.0
1686,B-3,266.75,0.25,30,40.0
1687,E-5,267.0,1.0,53,40.0
1688,G3,267.0,0.25,38,40.0
1689,C#3,267.0,1.0,45,40.0
1690,E-4,267.25,0.25,32,40.0
1691,B-3,267.25,0.25,29,40.0
1692,G4,267.5,0.25,35,40.0
1693,G3,267.5,0.25,32,40.0
1694,E-4,267.75,0.25,33,40.0
1695,B-3,267.75,0.25,29,40.0
1696,C#3,268.0,1.0,38,40.0
1697,E-4,268.25,0.25,32,40.0
1698,B-3,268.25,0.25,30,40.0
1699,G4,268.5,0.25,36,40.0
1700,G3,268.5,0.25,33,40.0
1701,E-4,268.75,0.25,35,40.0
1702,B-3,268.75,0.25,29,40.0
1703,E-5,269.0,1.0,54,40.0
1704,C3,269.0,0.188,55,40.0
1705,E-4,269.25,0.25,33,40.0
1706,G#3,269.25,0.25,36,40.0
1707,G4,269.5,0.25,35,40.0
1708,E-3,269.5,0.25,39,40.0
1709,E-4,269.75,0.25,32,40.0
1710,G#3,269.75,0.25,35,40.0
1711,G4,270.0,0.25,35,40.0
1712,E-5,270.0,1.0,54,40.0
1713,B-2,270.0,0.188,56,40.0
1714,E-4,270.25,0.25,33,40.0
1715,G3,270.25,0.25,36,40.0
1716,G4,270.5,0.25,35,40.0
1717,C3,270.5,0.25,43,40.0
1718,E-4,270.75,0.25,32,40.0
1719,G3,270.75,0.25,41,40.0
1720,E-5,271.0,1.0,53,40.0
1721,G#2,271.0,0.188,58,40.0
1722,E-4,271.25,0.25,32,40.0
1723,G#3,271.25,0.25,38,40.0
1724,G4,271.5,0.25,35,40.0
1725,C3,271.5,0.25,43,40.0
1726,E-4,271.75,0.25,33,40.0
1727,G#3,271.75,0.25,38,40.0
1728,E-5,272.0,0.188,66,40.0
1729,G2,272.0,0.188,60,40.0
1730,E-4,272.25,0.25,41,40.0
1731,G3,272.25,0.25,40,40.0
1732,G#4,272.5,0.25,45,40.0
1733,C3,272.5,0.25,43,40.0
1734,E-4,272.75,0.25,42,40.0
1735,G3,272.75,0.25,38,40.0
1736,E5,273.0,0.188,67,40.0
1737,F2,273.0,0.188,63,40.0
1738,E4,273.25,0.25,43,40.0
1739,F3,273.25,0.25,42,40.0
1740,C5,273.5,0.25,47,40.0
1741,C3,273.5,0.25,45,40.0
1742,E4,273.75,0.25,43,40.0
1743,F3,273.75,0.25,42,40.0
1744,F5,274.0,0.188,71,40.0
1745,E-2,274.0,0.188,66,40.0
1746,F4,274.25,0.25,45,40.0
1747,E-3,274.25,0.25,41,40.0
1748,C5,274.5,0.25,50,40.0
1749,F2,274.5,0.25,47,40.0
1750,F4,274.75,0.25,45,40.0
1751,E-3,274.75,0.25,41,40.0
1752,G5,275.0,0.188,72,40.0
1753,D2,275.0,0.188,68,40.0
1754,G4,275.25,0.25,47,40.0
1755,D3,275.25,0.25,45,40.0
1756,C5,275.5,0.25,50,40.0
1757,F2,275.5,0.25,49,40.0
1758,G4,275.75,0.25,47,40.0
1759,D3,275.75,0.25,43,40.0
1760,G#5,276.0,0.188,74,40.0
1761,C2,276.0,0.188,70,40.0
1762,G#4,276.25,0.25,49,40.0
1763,C3,276.25,0.25,45,40.0
1764,C5,276.5,0.25,54,40.0
1765,F2,276.5,0.25,51,40.0
1766,G#4,276.75,0.25,49,40.0
1767,C3,276.75,0.25,43,40.0
1768,A5,277.0,0.188,80,40.0
1769,B-1,277.0,0.188,70,40.0
1770,A4,277.25,0.25,50,40.0
1771,B-2,277.25,0.25,47,40.0
1772,C5,277.5,0.25,55,40.0
1773,F2,277.5,0.25,53,40.0
1774,A4,277.75,0.25,51,40.0
1775,B-2,277.75,0.25,48,40.0
1776,B-5,278.0,0.188,84,40.0
1777,G#1,278.0,0.188,72,40.0
1778,B-4,278.25,0.25,51,40.0
1779,G#2,278.25,0.25,47,40.0
1780,F5,278.5,0.25,58,40.0
1781,F2,278.5,0.25,53,40.0
1782,B-4,278.75,0.25,53,40.0
1783,G#2,278.75,0.25,50,40.0
1784,C6,279.0,0.188,85,40.0
1785,G1,279.0,0.188,75,40.0
1786,C5,279.25,0.25,53,40.0
1787,G2,279.25,0.25,50,40.0
1788,F5,279.5,0.25,58,40.0
1789,E-2,279.5,0.25,55,40.0
1790,C5,279.75,0.25,54,40.0
1791,G2,279.75,0.25,50,40.0
1792,C#6,280.0,0.188,85,40.0
1793,G1,280.0,0.188,76,40.0
1794,C#5,280.25,0.25,55,40.0
1795,G2,280.25,0.25,56,40.0
1796,F5,280.5,0.25,63,40.0
1797,G1,280.5,0.25,58,40.0
1798,C#5,280.75,0.25,55,40.0
1799,G2,280.75,0.25,55,40.0
1800,D6,281.0,0.188,90,40.0
1801,G#1,281.0,0.5,78,40.0
1802,G#2,281.0,0.5,78,40.0
1803,D5,281.25,0.25,57,40.0
1804,F5,281.5,0.25,62,40.0
1805,D5,281.75,0.25,57,40.0
1806,E-6,282.0,0.188,89,40.0
1807,E-5,282.25,0.25,59,40.0
1808,B-5,282.5,0.25,64,40.0
1809,E-5,282.75,0.25,59,40.0
1810,E6,283.0,0.188,91,40.0
1811,B-2,283.0,0.5,78,40.0
1812,B-1,283.0,0.5,78,40.0
1813,E5,283.25,0.25,61,40.0
1814,B-5,283.5,0.25,67,40.0
1815,E5,283.75,0.25,61,40.0
1816,G#5,284.25,0.25,78,40.0
1817,C6,284.5,0.25,84,40.0
1818,G#5,284.75,0.25,78,40.0
1819,F6,285.0,0.188,88,40.0
1820,E-2,285.0,0.5,84,40.0
1821,E-3,285.0,0.5,84,40.0
1822,G#5,285.25,0.25,78,40.0
1823,C6,285.5,0.25,84,40.0
1824,E-4,285.5,19/40,34,40.0
1825,G4,285.5,19/40,34,40.0
1826,G#5,285.75,0.25,76,40.0
1827,E-4,286.0,19/40,34,40.0
1828,G4,286.0,19/40,34,40.0
1829,F5,286.25,0.25,78,40.0
1830,G#5,286.5,0.25,84,40.0
1831,E-4,286.5,19/40,34,40.0
1832,G4,286.5,19/40,34,40.0
1833,F5,286.75,0.25,78,40.0
1834,D6,287.0,0.188,88,40.0
1835,C4,287.0,2.0,34,40.0
1836,F5,287.25,0.25,78,40.0
1837,G#5,287.5,0.25,84,40.0
1838,E-4,287.5,19/40,34,40.0
1839,G4,287.5,19/40,34,40.0
1840,F5,287.75,0.25,76,40.0
1841,G5,288.0,0.188,81,40.0
1842,E-4,288.0,19/40,34,40.0
1843,G4,288.0,19/40,34,40.0
1844,E-6,288.5,1.0,62,40.0
1845,E-4,288.5,19/40,34,40.0
1846,G4,288.5,19/40,34,40.0
1847,G#3,289.0,2.0,34,40.0
1848,D6,289.5,0.25,46,40.0
1849,F4,289.5,19/40,34,40.0
1850,E-4,289.5,19/40,34,40.0
1851,E-6,289.75,0.25,48,40.0
1852,F6,290.0,0.25,49,40.0
1853,E-4,290.0,19/40,34,40.0
1854,F4,290.0,19/40,34,40.0
1855,E-6,290.25,0.25,49,40.0
1856,D6,290.5,0.25,48,40.0
1857,E-4,290.5,19/40,34,40.0
1858,F4,290.5,19/40,34,40.0
1859,C6,290.75,0.25,47,40.0
1860,B5,291.0,0.25,45,40.0
1861,B-3,291.0,2.0,34,40.0
1862,C6,291.25,0.25,46,40.0
1863,D6,291.5,0.25,49,40.0
1864,D4,291.5,19/40,34,40.0
1865,F4,291.5,19/40,34,40.0
1866,C6,291.75,0.25,47,40.0
1867,B-5,292.0,0.25,49,40.0
1868,D4,292.0,19/40,34,40.0
1869,F4,292.0,19/40,34,40.0
1870,G#5,292.25,0.25,47,40.0
1871,G5,292.5,0.25,46,40.0
1872,D4,292.5,19/40,34,40.0
1873,F4,292.5,19/40,34,40.0
1874,F5,292.75,0.25,45,40.0
1875,E5,293.0,0.25,45,40.0
1876,E-3,293.0,2.0,59,40.0
1877,F5,293.25,0.25,45,40.0
1878,G5,293.5,0.25,47,40.0
1879,G3,293.5,19/40,44,40.0
1880,E-4,293.5,19/40,44,40.0
1881,F5,293.75,0.25,45,40.0
1882,E-5,294.0,0.25,46,40.0
1883,G3,294.0,19/40,44,40.0
1884,E-4,294.0,19/40,44,40.0
1885,D5,294.25,0.25,46,40.0
1886,C5,294.5,0.25,45,40.0
1887,G3,294.5,19/40,44,40.0
1888,E-4,294.5,19/40,44,40.0
1889,B-4,294.75,0.25,45,40.0
1890,A4,295.0,0.25,45,40.0
1891,C3,295.0,2.0,45,40.0
1892,B-4,295.25,0.25,42,40.0
1893,C5,295.5,0.25,46,40.0
1894,G3,295.5,19/40,46,40.0
1895,E-3,295.5,19/40,46,40.0
1896,C4,295.5,19/40,46,40.0
1897,G#4,295.75,0.25,42,40.0
1898,G4,296.0,0.188,66,40.0
1899,G3,296.0,19/40,46,40.0
1900,E-3,296.0,19/40,46,40.0
1901,C4,296.0,19/40,46,40.0
1902,E-5,296.5,1.0,68,40.0
1903,E-6,296.5,1.0,68,40.0
1904,G3,296.5,19/40,47,40.0
1905,E-3,296.5,19/40,47,40.0
1906,C4,296.5,19/40,47,40.0
1907,G#2,297.0,2.0,47,40.0
1908,D6,297.5,0.25,61,40.0
1909,F3,297.5,19/40,48,40.0
1910,G#3,297.5,19/40,48,40.0
1911,E-3,297.5,19/40,48,40.0
1912,E-6,297.75,0.25,64,40.0
1913,F6,298.0,0.25,66,40.0
1914,F3,298.0,19/40,48,40.0
1915,E-3,298.0,19/40,48,40.0
1916,G#3,298.0,19/40,48,40.0
1917,E-6,298.25,0.25,66,40.0
1918,D6,298.5,0.25,65,40.0
1919,F3,298.5,19/40,49,40.0
1920,E-3,298.5,19/40,49,40.0
1921,G#3,298.5,19/40,49,40.0
1922,C6,298.75,0.25,64,40.0
1923,B5,299.0,0.25,62,40.0
1924,B-2,299.0,2.0,49,40.0
1925,C6,299.25,0.25,64,40.0
1926,D6,299.5,0.25,68,40.0
1927,F3,299.5,19/40,50,40.0
1928,D3,299.5,19/40,50,40.0
1929,B-3,299.5,19/40,50,40.0
1930,C6,299.75,0.25,66,40.0
1931,B-5,300.0,0.25,69,40.0
1932,F3,300.0,19/40,50,40.0
1933,D3,300.0,19/40,50,40.0
1934,B-3,300.0,19/40,50,40.0
1935,G#5,300.25,0.25,67,40.0
1936,G5,300.5,0.25,66,40.0
1937,F3,300.5,19/40,51,40.0
1938,D3,300.5,19/40,51,40.0
1939,B-3,300.5,19/40,51,40.0
1940,F5,300.75,0.25,65,40.0
1941,E5,301.0,0.25,65,40.0
1942,E-2,301.0,19/40,67,40.0
1943,F5,301.25,0.25,64,40.0
1944,E-3,301.25,0.25,60,40.0
1945,G5,301.5,0.25,68,40.0
1946,E-2,301.5,19/40,67,40.0
1947,F5,301.75,0.25,66,40.0
1948,E-3,301.75,0.25,59,40.0
1949,E-5,302.0,0.25,68,40.0
1950,E-2,302.0,19/40,67,40.0
1951,D5,302.25,0.25,68,40.0
1952,E-3,302.25,0.25,60,40.0
1953,C5,302.5,0.25,68,40.0
1954,E-2,302.5,19/40,66,40.0
1955,B-4,302.75,0.25,68,40.0
1956,E-3,302.75,0.25,60,40.0
1957,A4,303.0,0.25,67,40.0
1958,E-2,303.0,19/40,66,40.0
1959,B-4,303.25,0.25,64,40.0
1960,E-3,303.25,0.25,59,40.0
1961,C5,303.5,0.25,70,40.0
1962,E-2,303.5,19/40,66,40.0
1963,B-4,303.75,0.25,64,40.0
1964,E-3,303.75,0.25,60,40.0
1965,E-5,304.0,0.25,83,40.0
1966,E-2,304.0,19/40,66,40.0
1967,E-3,304.25,0.25,60,40.0
1968,E-4,304.5,1.0,82,40.0
1969,E-2,304.5,19/40,66,40.0
1970,E-3,304.75,0.25,61,40.0
1971,E-2,305.0,19/40,67,40.0
1972,E-3,305.25,0.25,60,40.0
1973,E-2,305.5,19/40,67,40.0
1974,C#4,305.5,0.25,80,40.0
1975,G4,305.5,0.25,80,40.0
1976,E-3,305.75,0.25,59,40.0
1977,E-2,306.0,19/40,67,40.0
1978,C4,306.0,0.25,81,40.0
1979,G#4,306.0,0.25,81,40.0
1980,E-3,306.25,0.25,60,40.0
1981,E-2,306.5,19/40,66,40.0
1982,G4,306.5,0.25,82,40.0
1983,B-4,306.5,0.25,82,40.0
1984,E-3,306.75,0.25,60,40.0
1985,E-2,307.0,19/40,66,40.0
1986,G#4,307.0,0.25,83,40.0
1987,C5,307.0,0.25,83,40.0
1988,E-3,307.25,0.25,59,40.0
1989,E-2,307.5,19/40,66,40.0
1990,G#4,307.5,0.25,85,40.0
1991,D5,307.5,0.25,85,40.0
1992,E-3,307.75,0.25,60,40.0
1993,E-2,308.0,19/40,66,40.0
1994,G4,308.0,0.25,83,40.0
1995,E-5,308.0,0.25,83,40.0
1996,E-3,308.25,0.25,60,40.0
1997,E-5,308.5,1.0,82,40.0
1998,E-2,308.5,19/40,66,40.0
1999,E-3,308.75,0.25,61,40.0
2000,E-2,309.0,19/40,66,40.0
2001,E-3,309.25,0.25,59,40.0
2002,E-2,309.5,19/40,66,40.0
2003,C#5,309.5,0.25,80,40.0
2004,G5,309.5,0.25,80,40.0
2005,E-3,309.75,0.25,60,40.0
2006,E-2,310.0,19/40,66,40.0
2007,C5,310.0,0.25,81,40.0
2008,G#5,310.0,0.25,81,40.0
2009,E-3,310.25,0.25,60,40.0
2010,E-2,310.5,19/40,66,40.0
2011,G5,310.5,0.25,82,40.0
2012,B-5,310.5,0.25,82,40.0
2013,E-3,310.75,0.25,61,40.0
2014,D2,311.0,19/40,66,40.0
2015,G#5,311.0,0.25,83,40.0
2016,C6,311.0,0.25,83,40.0
2017,D3,311.25,0.25,59,40.0
2018,D2,311.5,19/40,66,40.0
2019,G#5,311.5,0.25,85,40.0
2020,D6,311.5,0.25,85,40.0
2021,D3,311.75,0.25,60,40.0
2022,D2,312.0,19/40,66,40.0
2023,E-6,312.0,2.0,94,40.0
2024,G5,312.0,2.0,94,40.0
2025,D3,312.25,0.25,60,40.0
2026,D2,312.5,19/40,66,40.0
2027,D3,312.75,0.25,61,40.0
2028,C2,313.0,19/40,66,40.0
2029,C3,313.25,0.25,59,40.0
2030,C2,313.5,19/40,66,40.0
2031,C3,313.75,0.25,60,40.0
2032,C2,314.0,19/40,66,40.0
2033,G4,314.0,2.0,88,40.0
2034,E-5,314.0,2.0,88,40.0
2035,C3,314.25,0.25,60,40.0
2036,C2,314.5,19/40,66,40.0
2037,C3,314.75,0.25,61,40.0
2038,B-1,315.0,19/40,66,40.0
2039,B-2,315.25,0.25,59,40.0
2040,B-1,315.5,19/40,66,40.0
2041,B-2,315.75,0.25,60,40.0
2042,B-1,316.0,19/40,66,40.0
2043,E-6,316.0,2.0,99,40.0
2044,G5,316.0,2.0,99,40.0
2045,B-2,316.25,0.25,60,40.0
2046,B-1,316.5,19/40,66,40.0
2047,B-2,316.75,0.25,61,40.0
2048,G#1,317.0,19/40,66,40.0
2049,G#2,317.25,0.25,59,40.0
2050,G#1,317.5,19/40,66,40.0
2051,G#2,317.75,0.25,60,40.0
2052,G#1,318.0,19/40,66,40.0
2053,G4,318.0,2.0,92,40.0
2054,E-5,318.0,2.0,92,40.0
2055,G#2,318.25,0.25,60,40.0
2056,G#1,318.5,19/40,66,40.0
2057,G#2,318.75,0.25,61,40.0
2058,G1,319.0,19/40,66,40.0
2059,G2,319.25,0.25,59,40.0
2060,G1,319.5,19/40,66,40.0
2061,G2,319.75,0.25,60,40.0
2062,G1,320.0,19/40,66,40.0
2063,E-6,320.0,2.0,102,40.0
2064,C6,320.0,2.0,102,40.0
2065,G2,320.25,0.25,60,40.0
2066,G1,320.5,19/40,66,40.0
2067,G2,320.75,0.25,61,40.0
2068,F#1,321.0,2.0,68,40.0
2069,F#2,321.0,2.0,68,40.0
2070,C5,322.0,2.0,96,40.0
2071,E-5,322.0,2.0,96,40.0
2072,G1,323.0,2.0,78,40.0
2073,G2,323.0,2.0,78,40.0
2074,C6,324.0,2.0,93,40.0
2075,A5,324.0,2.0,93,40.0
2076,D6,324.0,2.0,93,40.0
2077,C2,325.0,19/40,44,40.0
2078,C3,325.25,0.25,41,40.0
2079,C2,325.5,19/40,44,40.0
2080,C3,325.75,0.25,41,40.0
2081,C2,326.0,19/40,44,40.0
2082,F3,326.0,2.0,97,40.0
2083,B3,326.0,2.0,97,40.0
2084,D4,326.0,2.0,97,40.0
2085,C3,326.25,0.25,41,40.0
2086,C2,326.5,19/40,45,40.0
2087,C3,326.75,0.25,41,40.0
2088,C2,327.0,19/40,45,40.0
2089,C3,327.25,0.25,46,40.0
2090,C2,327.5,19/40,47,40.0
2091,C3,327.75,0.25,47,40.0
2092,C4,328.0,1.5,50,40.0
2093,C2,328.0,19/40,49,40.0
2094,C3,328.25,0.25,50,40.0
2095,C2,328.5,19/40,51,40.0
2096,C3,328.75,0.25,53,40.0
2097,C2,329.0,19/40,55,40.0
2098,C3,329.25,0.25,50,40.0
2099,C2,329.5,19/40,53,40.0
2100,B-3,329.5,0.188,52,40.0
2101,E4,329.5,0.188,52,40.0
2102,C3,329.75,0.25,47,40.0
2103,C2,330.0,19/40,53,40.0
2104,G#3,330.0,0.188,54,40.0
2105,F4,330.0,0.188,54,40.0
2106,C3,330.25,0.25,47,40.0
2107,C2,330.5,19/40,44,40.0
2108,E4,330.5,0.188,56,40.0
2109,G4,330.5,0.188,56,40.0
2110,C3,330.75,0.25,40,40.0
2111,C2,331.0,19/40,43,40.0
2112,F4,331.0,0.188,57,40.0
2113,G#4,331.0,0.188,57,40.0
2114,C3,331.25,0.25,45,40.0
2115,C2,331.5,19/40,46,40.0
2116,D4,331.5,0.188,59,40.0
2117,B4,331.5,0.188,59,40.0
2118,C3,331.75,0.25,47,40.0
2119,C2,332.0,19/40,48,40.0
2120,E-4,332.0,0.188,61,40.0
2121,C5,332.0,0.188,61,40.0
2122,C3,332.25,0.25,50,40.0
2123,C2,332.5,19/40,51,40.0
2124,E4,332.5,1.0,55,40.0
2125,C5,332.5,1.0,55,40.0
2126,C3,332.75,0.25,53,40.0
2127,C2,333.0,19/40,55,40.0
2128,C3,333.25,0.25,50,40.0
2129,C2,333.5,19/40,53,40.0
2130,B-4,333.5,0.188,51,40.0
2131,E5,333.5,0.188,51,40.0
2132,C3,333.75,0.25,47,40.0
2133,D2,334.0,19/40,55,40.0
2134,G#4,334.0,0.188,53,40.0
2135,F5,334.0,0.188,53,40.0
2136,D3,334.25,0.25,50,40.0
2137,D2,334.5,19/40,55,40.0
2138,E5,334.5,0.188,55,40.0
2139,G5,334.5,0.188,55,40.0
2140,D3,334.75,0.25,51,40.0
2141,E-2,335.0,19/40,55,40.0
2142,F5,335.0,0.188,57,40.0
2143,G#5,335.0,0.188,57,40.0
2144,E-3,335.25,0.25,55,40.0
2145,E-2,335.5,19/40,55,40.0
2146,D5,335.5,0.188,59,40.0
2147,B5,335.5,0.188,59,40.0
2148,E-3,335.75,0.25,55,40.0
2149,F2,336.0,19/40,55,40.0
2150,C5,336.0,1.0,56,40.0
2151,G5,336.0,1.0,56,40.0
2152,E-5,336.0,1.0,56,40.0
2153,C6,336.0,1.0,56,40.0
2154,F3,336.25,0.25,53,40.0
2155,F2,336.5,19/40,55,40.0
2156,F3,336.75,0.25,55,40.0
2157,G2,337.0,19/40,56,40.0
2158,G4,337.0,1.0,58,40.0
2159,B4,337.0,1.0,58,40.0
2160,F5,337.0,1.0,58,40.0
2161,G5,337.0,1.0,58,40.0
2162,G3,337.25,0.25,56,40.0
2163,G2,337.5,19/40,57,40.0
2164,G3,337.75,0.25,57,40.0
2165,G#2,338.0,19/40,58,40.0
2166,G4,338.0,1.0,60,40.0
2167,C5,338.0,1.0,60,40.0
2168,E-5,338.0,1.0,60,40.0
2169,G#3,338.25,0.25,59,40.0
2170,G#2,338.5,19/40,59,40.0
2171,G#3,338.75,0.25,60,40.0
2172,F#2,339.0,19/40,60,40.0
2173,F4,339.0,1.0,64,40.0
2174,G#4,339.0,1.0,64,40.0
2175,D5,339.0,1.0,64,40.0
2176,F#3,339.25,0.25,55,40.0
2177,F#2,339.5,19/40,61,40.0
2178,F#3,339.75,0.25,55,40.0
2179,G4,340.0,1.0,74,40.0
2180,G2,340.0,19/40,58,40.0
2181,E-4,340.0,2.0,68,40.0
2182,C5,340.0,2.0,68,40.0
2183,G3,340.25,0.25,55,40.0
2184,G2,340.5,19/40,58,40.0
2185,G3,340.75,0.25,55,40.0
2186,F#4,341.0,1.0,74,40.0
2187,C2,341.0,19/40,48,40.0
2188,C3,341.25,0.25,45,40.0
2189,C2,341.5,19/40,44,40.0
2190,C3,341.75,0.25,41,40.0
2191,C2,342.0,19/40,44,40.0
2192,C3,342.25,0.25,40,40.0
2193,C2,342.5,19/40,44,40.0
2194,C3,342.75,0.25,41,40.0
2195,A4,343.0,1.0,77,40.0
2196,C2,343.0,19/40,44,40.0
2197,E-4,343.0,1.0,68,40.0
2198,C5,343.0,1.0,68,40.0
2199,C3,343.25,0.25,46,40.0
2200,C2,343.5,19/40,47,40.0
2201,C3,343.75,0.25,47,40.0
2202,C2,344.0,19/40,49,40.0
2203,D4,344.0,1.0,66,40.0
2204,F4,344.0,1.0,66,40.0
2205,B4,344.0,1.0,66,40.0
2206,C3,344.25,0.25,50,40.0
2207,C2,344.5,19/40,51,40.0
2208,C3,344.75,0.25,53,40.0
2209,C2,345.0,19/40,55,40.0
2210,C4,345.0,0.188,71,40.0
2211,E-4,345.0,0.188,71,40.0
2212,C5,345.0,0.188,71,40.0
2213,C3,345.25,0.25,50,40.0
2214,C4,345.5,1.0,67,40.0
2215,C2,345.5,19/40,53,40.0
2216,C3,345.75,0.25,47,40.0
2217,C2,346.0,19/40,53,40.0
2218,C3,346.25,0.25,47,40.0
2219,C2,346.5,19/40,44,40.0
2220,B-3,346.5,0.188,52,40.0
2221,E4,346.5,0.188,52,40.0
2222,C3,346.75,0.25,40,40.0
2223,C2,347.0,19/40,43,40.0
2224,G#3,347.0,0.188,54,40.0
2225,F4,347.0,0.188,54,40.0
2226,C3,347.25,0.25,45,40.0
2227,C2,347.5,19/40,46,40.0
2228,E4,347.5,0.188,55,40.0
2229,G4,347.5,0.188,55,40.0
2230,C3,347.75,0.25,47,40.0
2231,C2,348.0,19/40,48,40.0
2232,F4,348.0,0.188,57,40.0
2233,G#4,348.0,0.188,57,40.0
2234,C3,348.25,0.25,50,40.0
2235,C2,348.5,19/40,51,40.0
2236,D4,348.5,0.188,59,40.0
2237,B4,348.5,0.188,59,40.0
2238,C3,348.75,0.25,53,40.0
2239,C2,349.0,19/40,55,40.0
2240,E-4,349.0,0.188,61,40.0
2241,C5,349.0,0.188,61,40.0
2242,C3,349.25,0.25,50,40.0
2243,C2,349.5,19/40,53,40.0
2244,E4,349.5,1.0,55,40.0
2245,C5,349.5,1.0,55,40.0
2246,C3,349.75,0.25,47,40.0
2247,D2,350.0,19/40,55,40.0
2248,D3,350.25,0.25,50,40.0
2249,D2,350.5,19/40,55,40.0
2250,B-4,350.5,0.188,51,40.0
2251,E5,350.5,0.188,51,40.0
2252,D3,350.75,0.25,51,40.0
2253,E-2,351.0,19/40,55,40.0
2254,G#4,351.0,0.188,53,40.0
2255,F5,351.0,0.188,53,40.0
2256,E-3,351.25,0.25,55,40.0
2257,E-2,351.5,19/40,55,40.0
2258,E5,351.5,0.188,55,40.0
2259,G5,351.5,0.188,55,40.0
2260,E-3,351.75,0.25,55,40.0
2261,F2,352.0,19/40,55,40.0
2262,F5,352.0,0.188,57,40.0
2263,G#5,352.0,0.188,57,40.0
2264,F3,352.25,0.25,53,40.0
2265,F2,352.5,19/40,55,40.0
2266,D5,352.5,0.188,59,40.0
2267,B5,352.5,0.188,59,40.0
2268,F3,352.75,0.25,55,40.0
2269,G2,353.0,19/40,56,40.0
2270,C5,353.0,1.0,56,40.0
2271,G5,353.0,1.0,56,40.0
2272,E-5,353.0,1.0,56,40.0
2273,C6,353.0,1.0,56,40.0
2274,G3,353.25,0.25,56,40.0
2275,G2,353.5,19/40,57,40.0
2276,G3,353.75,0.25,57,40.0
2277,G#2,354.0,19/40,58,40.0
2278,G4,354.0,1.0,58,40.0
2279,B4,354.0,1.0,58,40.0
2280,F5,354.0,1.0,58,40.0
2281,G5,354.0,1.0,58,40.0
2282,G#3,354.25,0.25,59,40.0
2283,G#2,354.5,19/40,59,40.0
2284,G#3,354.75,0.25,60,40.0
2285,F#2,355.0,19/40,60,40.0
2286,G4,355.0,1.0,60,40.0
2287,C5,355.0,1.0,60,40.0
2288,E-5,355.0,1.0,60,40.0
2289,F#3,355.25,0.25,55,40.0
2290,F#2,355.5,19/40,61,40.0
2291,F#3,355.75,0.25,55,40.0
2292,F#2,356.0,19/40,58,40.0
2293,F4,356.0,1.0,64,40.0
2294,G#4,356.0,1.0,64,40.0
2295,D5,356.0,1.0,64,40.0
2296,F#3,356.25,0.25,55,40.0
2297,F#2,356.5,19/40,58,40.0
2298,F#3,356.75,0.25,55,40.0
2299,G4,357.0,1.0,74,40.0
2300,E-4,357.0,2.0,68,40.0
2301,C5,357.0,2.0,68,40.0
2302,G2,357.0,0.5,55,40.0
2303,G3,357.0,0.5,55,40.0
2304,D4,357.5,19/40,50,40.0
2305,B3,357.5,19/40,50,40.0
2306,F#4,358.0,1.0,74,40.0
2307,D4,358.0,19/40,50,40.0
2308,B3,358.0,19/40,50,40.0
2309,B3,358.5,19/40,50,40.0
2310,D4,358.5,19/40,50,40.0
2311,G3,359.0,0.5,50,40.0
2312,E-4,359.5,19/40,50,40.0
2313,C4,359.5,19/40,50,40.0
2314,E-4,360.0,19/40,50,40.0
2315,C4,360.0,19/40,50,40.0
2316,E-4,360.5,19/40,50,40.0
2317,C4,360.5,19/40,50,40.0
2318,A4,361.0,2.0,77,40.0
2319,E-4,361.0,2.0,68,40.0
2320,C5,361.0,2.0,68,40.0
2321,F4,361.0,0.5,50,40.0
2322,D4,361.0,0.5,50,40.0
2323,D4,363.0,0.5,55,40.0
2324,G4,363.0,0.5,55,40.0
2325,B4,363.0,0.5,55,40.0
2326,G#1,364.0,0.25,55,40.0
2327,G4,364.0,1.0,80,40.0
2328,G5,364.0,1.0,80,40.0
2329,G#2,364.25,0.25,55,40.0
2330,G#1,364.5,0.25,55,40.0
2331,G#2,364.75,0.25,55,40.0
2332,G4,365.0,0.5,80,40.0
2333,G5,365.0,0.5,80,40.0
2334,G1,365.0,0.5,50,40.0
2335,G2,365.0,0.5,50,40.0
2336,D4,365.5,19/40,50,40.0
2337,B3,365.5,19/40,50,40.0
2338,G4,366.0,1.0,80,40.0
2339,G5,366.0,1.0,80,40.0
2340,D4,366.0,19/40,50,40.0
2341,B3,366.0,19/40,50,40.0
2342,B3,366.5,0.5,50,40.0
2343,D4,366.5,0.5,50,40.0
2344,G3,367.0,0.5,50,40.0
2345,G4,367.0,0.25,80,40.0
2346,G5,367.0,0.25,80,40.0
2347,F5,367.25,0.25,70,40.0
2348,D5,367.5,0.25,69,40.0
2349,E-4,367.5,19/40,50,40.0
2350,C4,367.5,19/40,50,40.0
2351,B4,367.75,0.25,69,40.0
2352,G4,368.0,0.25,68,40.0
2353,E-4,368.0,19/40,50,40.0
2354,C4,368.0,19/40,50,40.0
2355,F4,368.25,0.25,67,40.0
2356,D4,368.5,0.25,66,40.0
2357,E-4,368.5,19/40,50,40.0
2358,C4,368.5,19/40,50,40.0
2359,B3,368.75,0.25,65,40.0
2360,C4,369.0,0.25,65,40.0
2361,F4,369.0,0.5,50,40.0
2362,D4,369.0,0.5,50,40.0
2363,E-4,369.25,0.25,64,40.0
2364,C4,369.5,0.25,65,40.0
2365,G3,369.75,0.25,65,40.0
2366,F#3,370.0,0.25,64,40.0
2367,C4,370.25,0.25,64,40.0
2368,G#3,370.5,0.25,63,40.0
2369,F#3,370.75,0.25,65,40.0
2370,G3,371.0,0.5,67,40.0
2371,G#1,372.0,19/40,55,40.0
2372,G4,372.0,1.0,80,40.0
2373,G5,372.0,1.0,80,40.0
2374,G#2,372.25,0.25,55,40.0
2375,G#1,372.5,19/40,55,40.0
2376,G#2,372.75,0.25,49,40.0
2377,G1,373.0,19/40,50,40.0
2378,G4,373.0,0.5,80,40.0
2379,G5,373.0,0.5,80,40.0
2380,G2,373.25,0.25,51,40.0
2381,G1,373.5,19/40,51,40.0
2382,G2,373.75,0.25,52,40.0
2383,G1,374.0,19/40,53,40.0
2384,G4,374.0,1.0,80,40.0
2385,G5,374.0,1.0,80,40.0
2386,G2,374.25,0.25,54,40.0
2387,G1,374.5,19/40,55,40.0
2388,G2,374.75,0.25,56,40.0
2389,G1,375.0,19/40,57,40.0
2390,G4,375.0,0.25,80,40.0
2391,G5,375.0,0.25,80,40.0
2392,F5,375.25,0.25,72,40.0
2393,G2,375.25,0.25,58,40.0
2394,D5,375.5,0.25,71,40.0
2395,G1,375.5,19/40,59,40.0
2396,B4,375.75,0.25,70,40.0
2397,G2,375.75,0.25,60,40.0
2398,G4,376.0,0.25,69,40.0
2399,G1,376.0,19/40,61,40.0
2400,F4,376.25,0.25,68,40.0
2401,G2,376.25,0.25,61,40.0
2402,D4,376.5,0.25,67,40.0
2403,G1,376.5,19/40,62,40.0
2404,B3,376.75,0.25,66,40.0
2405,G2,376.75,0.25,63,40.0
2406,C4,377.0,0.25,65,40.0
2407,G1,377.0,19/40,64,40.0
2408,E-4,377.25,0.25,64,40.0
2409,G2,377.25,0.25,55,40.0
2410,C4,377.5,0.25,64,40.0
2411,G1,377.5,19/40,61,40.0
2412,G3,377.75,0.25,67,40.0
2413,G2,377.75,0.25,55,40.0
2414,F#3,378.0,0.25,66,40.0
2415,G1,378.0,19/40,61,40.0
2416,C4,378.25,0.25,64,40.0
2417,G2,378.25,0.25,55,40.0
2418,G#3,378.5,0.25,62,40.0
2419,G1,378.5,19/40,60,40.0
2420,F#3,378.75,0.25,60,40.0
2421,G2,378.75,0.25,55,40.0
2422,G3,379.0,0.5,67,40.0
2423,G1,379.0,19/40,64,40.0
2424,G2,379.25,0.25,55,40.0
2425,F#4,379.5,0.188,67,40.0
2426,G1,379.5,19/40,61,40.0
2427,G2,379.75,0.25,55,40.0
2428,G4,380.0,0.188,69,40.0
2429,G1,380.0,19/40,61,40.0
2430,G2,380.25,0.25,55,40.0
2431,G1,380.5,19/40,60,40.0
2432,F#4,380.5,0.188,71,40.0
2433,C5,380.5,0.188,71,40.0
2434,G2,380.75,0.25,55,40.0
2435,G#1,381.0,19/40,50,40.0
2436,G4,381.0,0.188,73,40.0
2437,B4,381.0,0.188,73,40.0
2438,G#2,381.25,0.25,51,40.0
2439,G#1,381.5,19/40,51,40.0
2440,C5,381.5,0.188,75,40.0
2441,F#5,381.5,0.188,75,40.0
2442,G#2,381.75,0.25,52,40.0
2443,G#1,382.0,19/40,53,40.0
2444,B4,382.0,0.188,77,40.0
2445,G5,382.0,0.188,77,40.0
2446,G#2,382.25,0.25,54,40.0
2447,G#1,382.5,19/40,55,40.0
2448,C6,382.5,0.188,79,40.0
2449,F#5,382.5,0.188,79,40.0
2450,G#2,382.75,0.25,56,40.0
2451,G#1,383.0,19/40,57,40.0
2452,B5,383.0,0.25,81,40.0
2453,G5,383.0,0.25,81,40.0
2454,G#2,383.25,0.25,58,40.0
2455,G#1,383.5,19/40,59,40.0
2456,G#2,383.75,0.25,60,40.0
2457,G#1,384.0,19/40,61,40.0
2458,G#2,384.25,0.25,61,40.0
2459,G#1,384.5,19/40,62,40.0
2460,G#2,384.75,0.25,63,40.0
2461,E-4,385.0,2.0,84,40.0
2462,G#1,385.0,19/40,64,40.0
2463,B-3,385.0,2.0,81,40.0
2464,C#4,385.0,2.0,81,40.0
2465,G#2,385.25,0.25,55,40.0
2466,G#1,385.5,19/40,61,40.0
2467,G#2,385.75,0.25,55,40.0
2468,G#1,386.0,19/40,61,40.0
2469,G#2,386.25,0.25,55,40.0
2470,G#1,386.5,19/40,60,40.0
2471,G#2,386.75,0.25,55,40.0
2472,C4,387.0,0.5,67,40.0
2473,E-4,387.0,0.5,84,40.0
2474,A1,387.0,19/40,64,40.0
2475,A2,387.25,0.25,55,40.0
2476,C#5,387.5,0.188,67,40.0
2477,A1,387.5,19/40,61,40.0
2478,A2,387.75,0.25,55,40.0
2479,C5,388.0,0.188,69,40.0
2480,A1,388.0,19/40,61,40.0
2481,A2,388.25,0.25,55,40.0
2482,A1,388.5,19/40,60,40.0
2483,C#5,388.5,0.188,71,40.0
2484,G5,388.5,0.188,71,40.0
2485,A2,388.75,0.25,55,40.0
2486,B-1,389.0,19/40,50,40.0
2487,C5,389.0,0.188,73,40.0
2488,G#5,389.0,0.188,73,40.0
2489,B-2,389.25,0.25,51,40.0
2490,B-1,389.5,19/40,51,40.0
2491,G5,389.5,0.188,75,40.0
2492,C#6,389.5,0.188,75,40.0
2493,B-2,389.75,0.25,52,40.0
2494,B-1,390.0,19/40,53,40.0
2495,G#5,390.0,0.188,77,40.0
2496,C6,390.0,0.188,77,40.0
2497,B-2,390.25,0.25,54,40.0
2498,B-1,390.5,19/40,55,40.0
2499,C#6,390.5,0.188,79,40.0
2500,G5,390.5,0.188,79,40.0
2501,B-2,390.75,0.25,56,40.0
2502,B-1,391.0,19/40,57,40.0
2503,C6,391.0,0.25,81,40.0
2504,G#5,391.0,0.25,81,40.0
2505,B-2,391.25,0.25,58,40.0
2506,B-1,391.5,19/40,59,40.0
2507,B-2,391.75,0.25,60,40.0
2508,B-1,392.0,19/40,61,40.0
2509,B-2,392.25,0.25,61,40.0
2510,B-1,392.5,19/40,62,40.0
2511,B-2,392.75,0.25,63,40.0
2512,B-1,393.0,19/40,64,40.0
2513,C4,393.0,2.0,82,40.0
2514,E-4,393.0,2.0,82,40.0
2515,F#4,393.0,2.0,82,40.0
2516,B-2,393.25,0.25,55,40.0
2517,B-1,393.5,19/40,61,40.0
2518,B-2,393.75,0.25,55,40.0
2519,B-1,394.0,19/40,61,40.0
2520,B-2,394.25,0.25,55,40.0
2521,B-1,394.5,19/40,60,40.0
2522,B-2,394.75,0.25,55,40.0
2523,B-1,395.0,19/40,64,40.0
2524,D4,395.0,0.5,67,40.0
2525,F4,395.0,0.5,67,40.0
2526,B-2,395.25,0.25,55,40.0
2527,B-1,395.5,19/40,61,40.0
2528,A4,395.5,0.188,64,40.0
2529,E-5,395.5,0.188,64,40.0
2530,B-2,395.75,0.25,55,40.0
2531,B-1,396.0,19/40,61,40.0
2532,B-4,396.0,0.188,67,40.0
2533,D5,396.0,0.188,67,40.0
2534,B-2,396.25,0.25,55,40.0
2535,B-1,396.5,19/40,60,40.0
2536,E-5,396.5,0.188,71,40.0
2537,A5,396.5,0.188,71,40.0
2538,B-2,396.75,0.25,55,40.0
2539,B-1,397.0,19/40,64,40.0
2540,D5,397.0,0.188,73,40.0
2541,B-5,397.0,0.188,73,40.0
2542,B-2,397.25,0.25,55,40.0
2543,B-1,397.5,19/40,61,40.0
2544,A5,397.5,0.188,75,40.0
2545,E-6,397.5,0.188,75,40.0
2546,B-2,397.75,0.25,55,40.0
2547,B-1,398.0,19/40,61,40.0
2548,B-5,398.0,0.188,77,40.0
2549,D6,398.0,0.188,77,40.0
2550,B-2,398.25,0.25,55,40.0
2551,B-1,398.5,19/40,60,40.0
2552,E-6,398.5,0.188,79,40.0
2553,A5,398.5,0.188,79,40.0
2554,B-2,398.75,0.25,55,40.0
2555,B-1,399.0,19/40,64,40.0
2556,D6,399.0,0.25,81,40.0
2557,B-5,399.0,0.25,81,40.0
2558,B-2,399.25,0.25,55,40.0
2559,B-1,399.5,19/40,61,40.0
2560,B-2,399.75,0.25,55,40.0
2561,B-1,400.0,19/40,61,40.0
2562,E-5,400.0,1.0,81,40.0
2563,A5,400.0,1.0,81,40.0
2564,B-2,400.25,0.25,55,40.0
2565,B-1,400.5,19/40,60,40.0
2566,B-2,400.75,0.25,55,40.0
2567,D5,401.0,0.5,81,40.0
2568,B-5,401.0,0.5,81,40.0
2569,B-2,401.0,0.5,60,40.0
2570,B-1,401.0,0.5,60,40.0
2571,A4,402.0,1.0,81,40.0
2572,E-5,402.0,1.0,81,40.0
2573,B-4,403.0,0.5,81,40.0
2574,D5,403.0,0.5,81,40.0
2575,E-4,404.0,1.0,81,40.0
2576,A4,404.0,1.0,81,40.0
2577,B-3,405.0,2.0,44,40.0
2578,D4,405.0,0.5,81,40.0
2579,B-4,405.0,0.5,81,40.0
2580,E-4,405.5,19/40,38,40.0
2581,F#4,405.5,19/40,38,40.0
2582,A3,406.0,1.0,81,40.0
2583,E-4,406.0,1.0,81,40.0
2584,E-4,406.0,19/40,38,40.0
2585,F#4,406.0,19/40,38,40.0
2586,E-4,406.5,19/40,38,40.0
2587,F#4,406.5,19/40,38,40.0
2588,B-3,407.0,2.0,44,40.0
2589,B-3,407.0,0.5,81,40.0
2590,D4,407.0,0.5,81,40.0
2591,A3,407.5,0.5,50,40.0
2592,E-4,407.5,19/40,38,40.0
2593,F#4,407.5,19/40,38,40.0
2594,B-3,408.0,0.5,59,40.0
2595,E-4,408.0,19/40,38,40.0
2596,F#4,408.0,19/40,38,40.0
2597,A3,408.5,0.5,56,40.0
2598,E-4,408.5,0.5,38,40.0
2599,F#4,408.5,0.5,38,40.0
2600,B-3,409.0,0.5,57,40.0
2601,B-3,409.0,2.0,44,40.0
2602,A3,409.5,0.5,49,40.0
2603,E-4,409.5,19/40,38,40.0
2604,F#4,409.5,19/40,38,40.0
2605,B-3,410.0,0.5,57,40.0
2606,E-4,410.0,19/40,38,40.0
2607,F#4,410.0,19/40,38,40.0
2608,A3,410.5,0.5,51,40.0
2609,E-4,410.5,19/40,38,40.0
2610,F#4,410.5,19/40,38,40.0
2611,B-3,411.0,2.0,44,40.0
2612,B-2,411.5,0.25,55,40.0
2613,E-4,411.5,19/40,38,40.0
2614,F#4,411.5,19/40,38,40.0
2615,E-3,412.0,0.25,58,40.0
2616,E-4,412.0,19/40,38,40.0
2617,F#4,412.0,19/40,38,40.0
2618,F3,412.5,0.25,61,40.0
2619,E-4,412.5,19/40,38,40.0
2620,F#4,412.5,19/40,38,40.0
2621,F#3,413.0,0.25,64,40.0
2622,B-3,413.0,2.0,44,40.0
2623,B-4,413.5,0.25,62,40.0
2624,F4,413.5,19/40,38,40.0
2625,G#4,413.5,19/40,38,40.0
2626,E-5,414.0,0.25,64,40.0
2627,F4,414.0,19/40,38,40.0
2628,G#4,414.0,19/40,38,40.0
2629,F5,414.5,0.25,66,40.0
2630,F4,414.5,19/40,38,40.0
2631,G#4,414.5,19/40,38,40.0
2632,B-4,414.875,0.125,65,40.0
2633,F#5,415.0,1.5,75,40.0
2634,B-3,415.0,2.0,44,40.0
2635,F4,415.5,19/40,38,40.0
2636,G#4,415.5,19/40,38,40.0
2637,F4,416.0,19/40,38,40.0
2638,G#4,416.0,19/40,38,40.0
2639,E-5,416.5,0.5,63,40.0
2640,F4,416.5,19/40,38,40.0
2641,G#4,416.5,19/40,38,40.0
2642,B-4,416.875,0.125,60,40.0
2643,F#5,417.0,1.5,71,40.0
2644,B-3,417.0,2.0,44,40.0
2645,F4,417.5,19/40,38,40.0
2646,G#4,417.5,19/40,38,40.0
2647,F4,418.0,19/40,38,40.0
2648,G#4,418.0,19/40,38,40.0
2649,E-5,418.5,0.5,58,40.0
2650,F4,418.5,19/40,38,40.0
2651,G#4,418.5,19/40,38,40.0
2652,D5,419.0,0.5,60,40.0
2653,B-3,419.0,2.0,44,40.0
2654,B-2,419.5,0.25,57,40.0
2655,F4,419.5,19/40,38,40.0
2656,G#4,419.5,19/40,38,40.0
2657,F3,420.0,0.25,60,40.0
2658,F4,420.0,19/40,38,40.0
2659,G#4,420.0,19/40,38,40.0
2660,F#3,420.5,0.25,63,40.0
2661,F4,420.5,19/40,38,40.0
2662,G#4,420.5,19/40,38,40.0
2663,G#3,421.0,0.25,66,40.0
2664,B-3,421.0,2.0,44,40.0
2665,B-4,421.5,0.5,59,40.0
2666,E-4,421.5,19/40,38,40.0
2667,F#4,421.5,19/40,38,40.0
2668,G#5,422.0,0.5,62,40.0
2669,E-4,422.0,19/40,38,40.0
2670,F#4,422.0,19/40,38,40.0
2671,F#5,422.5,0.5,65,40.0
2672,E-4,422.5,19/40,38,40.0
2673,F#4,422.5,19/40,38,40.0
2674,F#5,423.0,0.125,60,40.0
2675,B-3,423.0,2.0,44,40.0
2676,G#5,423.125,0.125,60,40.0
2677,F#5,423.25,0.25,67,40.0
2678,F5,423.5,0.5,60,40.0
2679,E-4,423.5,19/40,38,40.0
2680,F#4,423.5,19/40,38,40.0
2681,F5,424.0,0.125,60,40.0
2682,E-4,424.0,19/40,38,40.0
2683,F#4,424.0,19/40,38,40.0
2684,F#5,424.125,0.125,60,40.0
2685,F5,424.25,0.25,67,40.0
2686,E-5,424.5,0.5,60,40.0
2687,E-4,424.5,19/40,38,40.0
2688,F#4,424.5,19/40,38,40.0
2689,E-5,425.0,0.125,60,40.0
2690,B-3,425.0,2.0,44,40.0
2691,F5,425.125,0.125,60,40.0
2692,E-5,425.25,0.25,66,40.0
2693,D5,425.5,0.5,60,40.0
2694,E-4,425.5,19/40,38,40.0
2695,F#4,425.5,19/40,38,40.0
2696,C5,426.0,0.25,60,40.0
2697,E-4,426.0,19/40,38,40.0
2698,F#4,426.0,19/40,38,40.0
2699,D5,426.5,0.25,60,40.0
2700,E-4,426.5,19/40,38,40.0
2701,F#4,426.5,19/40,38,40.0
2702,E-5,427.0,0.5,60,40.0
2703,B-3,427.0,2.0,44,40.0
2704,B-2,427.5,0.25,55,40.0
2705,E-4,427.5,19/40,38,40.0
2706,F#4,427.5,19/40,38,40.0
2707,E-3,428.0,0.25,58,40.0
2708,E-4,428.0,19/40,38,40.0
2709,F#4,428.0,19/40,38,40.0
2710,F3,428.5,0.25,61,40.0
2711,E-4,428.5,19/40,38,40.0
2712,F#4,428.5,19/40,38,40.0
2713,F#3,429.0,0.25,64,40.0
2714,G#3,429.0,2.0,44,40.0
2715,B-4,429.5,0.25,62,40.0
2716,E-4,429.5,19/40,38,40.0
2717,F#4,429.5,19/40,38,40.0
2718,E-5,430.0,0.25,64,40.0
2719,E-4,430.0,19/40,38,40.0
2720,F#4,430.0,19/40,38,40.0
2721,F5,430.5,0.25,66,40.0
2722,E-4,430.5,19/40,38,40.0
2723,F#4,430.5,19/40,38,40.0
2724,B-4,430.875,0.125,65,40.0
2725,F#5,431.0,1.5,75,40.0
2726,G#3,431.0,2.0,44,40.0
2727,E-4,431.5,19/40,38,40.0
2728,F#4,431.5,19/40,38,40.0
2729,E-4,432.0,19/40,38,40.0
2730,F#4,432.0,19/40,38,40.0
2731,E-5,432.5,0.5,63,40.0
2732,E-4,432.5,19/40,38,40.0
2733,F#4,432.5,19/40,38,40.0
2734,B-4,432.875,0.125,60,40.0
2735,F#5,433.0,1.5,71,40.0
2736,G#3,433.0,2.0,44,40.0
2737,E-4,433.5,19/40,38,40.0
2738,F#4,433.5,19/40,38,40.0
2739,E-4,434.0,19/40,38,40.0
2740,F#4,434.0,19/40,38,40.0
2741,E-5,434.5,0.5,58,40.0
2742,E-4,434.5,19/40,38,40.0
2743,F#4,434.5,19/40,38,40.0
2744,C5,435.0,0.5,60,40.0
2745,G#3,435.0,2.0,44,40.0
2746,G#2,435.5,0.25,57,40.0
2747,E-4,435.5,19/40,38,40.0
2748,F#4,435.5,19/40,38,40.0
2749,E-3,436.0,0.25,60,40.0
2750,E-4,436.0,19/40,38,40.0
2751,F#4,436.0,19/40,38,40.0
2752,F3,436.5,0.25,63,40.0
2753,E-4,436.5,19/40,38,40.0
2754,F#4,436.5,19/40,38,40.0
2755,F#3,437.0,0.25,66,40.0
2756,G#3,437.0,2.0,44,40.0
2757,G#4,437.5,0.5,59,40.0
2758,C#4,437.5,19/40,38,40.0
2759,F4,437.5,19/40,38,40.0
2760,F#5,438.0,0.5,62,40.0
2761,C#4,438.0,19/40,38,40.0
2762,F4,438.0,19/40,38,40.0
2763,F5,438.5,0.5,65,40.0
2764,C#4,438.5,19/40,38,40.0
2765,F4,438.5,19/40,38,40.0
2766,F5,439.0,0.125,60,40.0
2767,G#3,439.0,2.0,44,40.0
2768,F#5,439.125,0.125,60,40.0
2769,F5,439.25,0.25,67,40.0
2770,E-5,439.5,0.5,60,40.0
2771,C#4,439.5,19/40,38,40.0
2772,F4,439.5,19/40,38,40.0
2773,E-5,440.0,0.125,60,40.0
2774,C#4,440.0,19/40,38,40.0
2775,F4,440.0,19/40,38,40.0
2776,F5,440.125,0.125,60,40.0
2777,E-5,440.25,0.25,67,40.0
2778,C#5,440.5,0.5,60,40.0
2779,C#4,440.5,19/40,38,40.0
2780,F4,440.5,19/40,38,40.0
2781,C#5,441.0,0.125,60,40.0
2782,G#3,441.0,2.0,44,40.0
2783,E-5,441.125,0.125,60,40.0
2784,C#5,441.25,0.25,66,40.0
2785,C5,441.5,0.5,60,40.0
2786,C#4,441.5,19/40,38,40.0
2787,F4,441.5,19/40,38,40.0
2788,B-4,442.0,0.25,60,40.0
2789,C#4,442.0,19/40,38,40.0
2790,F4,442.0,19/40,38,40.0
2791,C5,442.5,0.25,60,40.0
2792,C#4,442.5,19/40,38,40.0
2793,F4,442.5,19/40,38,40.0
2794,C#5,443.0,0.5,60,40.0
2795,G#3,443.0,2.0,44,40.0
2796,G#2,443.5,0.25,55,40.0
2797,C#4,443.5,19/40,38,40.0
2798,F4,443.5,19/40,38,40.0
2799,C#3,444.0,0.25,58,40.0
2800,C#4,444.0,19/40,38,40.0
2801,F4,444.0,19/40,38,40.0
2802,E-3,444.5,0.25,61,40.0
2803,C#4,444.5,19/40,38,40.0
2804,F4,444.5,19/40,38,40.0
2805,F3,445.0,0.25,64,40.0
2806,G#3,445.0,2.0,44,40.0
2807,G#4,445.5,0.25,62,40.0
2808,E-4,445.5,19/40,38,40.0
2809,F#4,445.5,19/40,38,40.0
2810,C#5,446.0,0.25,64,40.0
2811,E-4,446.0,19/40,38,40.0
2812,F#4,446.0,19/40,38,40.0
2813,E-5,446.5,0.25,66,40.0
2814,E-4,446.5,19/40,38,40.0
2815,F#4,446.5,19/40,38,40.0
2816,G#4,446.875,0.125,65,40.0
2817,F5,447.0,1.5,75,40.0
2818,G#3,447.0,2.0,44,40.0
2819,E-4,447.5,19/40,38,40.0
2820,F#4,447.5,19/40,38,40.0
2821,E-4,448.0,19/40,38,40.0
2822,F#4,448.0,19/40,38,40.0
2823,C#5,448.5,0.5,63,40.0
2824,E-4,448.5,19/40,38,40.0
2825,F#4,448.5,19/40,38,40.0
2826,G#4,448.875,0.125,60,40.0
2827,F5,449.0,1.5,71,40.0
2828,G#3,449.0,2.0,44,40.0
2829,E-4,449.5,19/40,38,40.0
2830,F#4,449.5,19/40,38,40.0
2831,E-4,450.0,19/40,38,40.0
2832,F#4,450.0,19/40,38,40.0
2833,C#5,450.5,0.5,58,40.0
2834,E-4,450.5,19/40,38,40.0
2835,F#4,450.5,19/40,38,40.0
2836,C5,451.0,0.5,60,40.0
2837,G#3,451.0,2.0,44,40.0
2838,G#2,451.5,0.25,57,40.0
2839,E-4,451.5,19/40,38,40.0
2840,F#4,451.5,19/40,38,40.0
2841,E-3,452.0,0.25,60,40.0
2842,E-4,452.0,19/40,38,40.0
2843,F#4,452.0,19/40,38,40.0
2844,F3,452.5,0.25,63,40.0
2845,E-4,452.5,19/40,38,40.0
2846,F#4,452.5,19/40,38,40.0
2847,F#3,453.0,0.25,66,40.0
2848,C#4,453.0,1.0,54,40.0
2849,G#4,453.5,0.5,59,40.0
2850,F4,453.5,0.5,53,40.0
2851,G#4,453.5,0.5,53,40.0
2852,F#5,454.0,0.5,62,40.0
2853,B3,454.0,1.0,60,40.0
2854,F5,454.5,0.5,65,40.0
2855,F4,454.5,0.5,53,40.0
2856,G#4,454.5,0.5,53,40.0
2857,F5,455.0,0.125,60,40.0
2858,B-3,455.0,2.0,53,40.0
2859,F#5,455.125,0.125,60,40.0
2860,F5,455.25,0.25,67,40.0
2861,E-5,455.5,0.5,60,40.0
2862,F4,455.5,19/40,38,40.0
2863,G#4,455.5,19/40,38,40.0
2864,E-5,456.0,0.125,60,40.0
2865,F4,456.0,19/40,38,40.0
2866,G#4,456.0,19/40,38,40.0
2867,F5,456.125,0.125,60,40.0
2868,E-5,456.25,0.25,67,40.0
2869,C#5,456.5,0.5,60,40.0
2870,F4,456.5,19/40,38,40.0
2871,G#4,456.5,19/40,38,40.0
2872,C#5,457.0,0.125,60,40.0
2873,B-3,457.0,2.0,44,40.0
2874,E-5,457.125,0.125,60,40.0
2875,C#5,457.25,0.25,66,40.0
2876,C5,457.5,0.5,60,40.0
2877,F4,457.5,19/40,38,40.0
2878,G#4,457.5,19/40,38,40.0
2879,B-4,458.0,0.25,60,40.0
2880,F4,458.0,19/40,38,40.0
2881,G#4,458.0,19/40,38,40.0
2882,C5,458.5,0.25,57,40.0
2883,F4,458.5,19/40,38,40.0
2884,G#4,458.5,19/40,38,40.0
2885,C#5,459.0,0.5,60,40.0
2886,B-3,459.0,2.0,44,40.0
2887,C#3,459.5,0.5,73,40.0
2888,F4,459.5,19/40,38,40.0
2889,G#4,459.5,19/40,38,40.0
2890,G#3,460.0,0.5,77,40.0
2891,F4,460.0,19/40,38,40.0
2892,G#4,460.0,19/40,38,40.0
2893,B2,460.5,0.25,73,40.0
2894,F4,460.5,19/40,38,40.0
2895,G#4,460.5,19/40,38,40.0
2896,B-2,461.0,0.25,77,40.0
2897,E-4,461.0,1.0,54,40.0
2898,B-4,461.5,0.5,59,40.0
2899,F#4,461.5,0.5,53,40.0
2900,B-4,461.5,0.5,53,40.0
2901,G#5,462.0,0.5,62,40.0
2902,C#4,462.0,1.0,60,40.0
2903,F#5,462.5,0.5,65,40.0
2904,F4,462.5,0.5,53,40.0
2905,B-4,462.5,0.5,53,40.0
2906,F#5,463.0,0.125,60,40.0
2907,C4,463.0,2.0,53,40.0
2908,G#5,463.125,0.125,60,40.0
2909,F#5,463.25,0.25,67,40.0
2910,F5,463.5,0.5,60,40.0
2911,G4,463.5,19/40,38,40.0
2912,B-4,463.5,19/40,38,40.0
2913,F5,464.0,0.125,60,40.0
2914,G4,464.0,19/40,38,40.0
2915,B-4,464.0,19/40,38,40.0
2916,F#5,464.125,0.125,60,40.0
2917,F5,464.25,0.25,67,40.0
2918,E-5,464.5,0.5,60,40.0
2919,G4,464.5,19/40,38,40.0
2920,B-4,464.5,19/40,38,40.0
2921,E-5,465.0,0.125,60,40.0
2922,C4,465.0,2.0,44,40.0
2923,F5,465.125,0.125,60,40.0
2924,E-5,465.25,0.25,66,40.0
2925,D5,465.5,0.5,60,40.0
2926,G4,465.5,19/40,38,40.0
2927,B-4,465.5,19/40,38,40.0
2928,C5,466.0,0.25,60,40.0
2929,G4,466.0,19/40,38,40.0
2930,B-4,466.0,19/40,38,40.0
2931,D5,466.5,0.25,57,40.0
2932,G4,466.5,19/40,38,40.0
2933,B-4,466.5,19/40,38,40.0
2934,E-5,467.0,0.5,60,40.0
2935,C4,467.0,2.0,44,40.0
2936,E-3,467.5,0.5,73,40.0
2937,G4,467.5,19/40,38,40.0
2938,B-4,467.5,19/40,38,40.0
2939,B-3,468.0,0.5,77,40.0
2940,G4,468.0,19/40,38,40.0
2941,B-4,468.0,19/40,38,40.0
2942,C#3,468.5,0.25,73,40.0
2943,G4,468.5,19/40,38,40.0
2944,B-4,468.5,19/40,38,40.0
2945,C3,469.0,0.25,77,40.0
2946,F4,469.0,2.0,44,40.0
2947,C5,469.5,0.5,59,40.0
2948,G#4,469.5,19/40,38,40.0
2949,C5,469.5,19/40,38,40.0
2950,B-5,470.0,0.5,62,40.0
2951,G#4,470.0,19/40,38,40.0
2952,C5,470.0,19/40,38,40.0
2953,G#5,470.5,0.5,65,40.0
2954,G#4,470.5,19/40,38,40.0
2955,C5,470.5,19/40,38,40.0
2956,G#5,471.0,0.125,60,40.0
2957,B-3,471.0,1.0,44,40.0
2958,B-5,471.125,0.125,60,40.0
2959,G#5,471.25,0.25,67,40.0
2960,G5,471.5,0.5,60,40.0
2961,F4,471.5,19/40,38,40.0
2962,G#4,471.5,19/40,38,40.0
2963,G5,472.0,0.125,60,40.0
2964,B3,472.0,1.0,44,40.0
2965,F4,472.0,19/40,38,40.0
2966,G#4,472.0,19/40,38,40.0
2967,G#5,472.125,0.125,60,40.0
2968,G5,472.25,0.25,67,40.0
2969,F5,472.5,0.5,60,40.0
2970,F4,472.5,19/40,38,40.0
2971,G#4,472.5,19/40,38,40.0
2972,F5,473.0,0.125,60,40.0
2973,C4,473.0,2.0,44,40.0
2974,G5,473.125,0.125,60,40.0
2975,F5,473.25,0.25,66,40.0
2976,E5,473.5,0.5,60,40.0
2977,E-4,473.5,19/40,37,40.0
2978,G4,473.5,19/40,37,40.0
2979,D5,474.0,0.5,60,40.0
2980,E-4,474.0,19/40,36,40.0
2981,G4,474.0,19/40,36,40.0
2982,E5,474.5,0.5,57,40.0
2983,E-4,474.5,19/40,36,40.0
2984,G4,474.5,19/40,36,40.0
2985,G5,475.0,0.125,60,40.0
2986,G#3,475.0,2.0,41,40.0
2987,G#5,475.125,0.125,60,40.0
2988,G5,475.25,0.25,67,40.0
2989,F5,475.5,0.5,60,40.0
2990,E-4,475.5,19/40,34,40.0
2991,F4,475.5,19/40,34,40.0
2992,F5,476.0,0.125,60,40.0
2993,E-4,476.0,19/40,34,40.0
2994,F4,476.0,19/40,34,40.0
2995,G5,476.125,0.125,60,40.0
2996,F5,476.25,0.25,67,40.0
2997,E-5,476.5,0.5,60,40.0
2998,E-4,476.5,19/40,33,40.0
2999,F4,476.5,19/40,33,40.0
3000,E-5,477.0,0.125,60,40.0
3001,B-3,477.0,2.0,38,40.0
3002,F5,477.125,0.125,60,40.0
3003,E-5,477.25,0.25,66,40.0
3004,D5,477.5,0.5,60,40.0
3005,E-4,477.5,19/40,32,40.0
3006,G4,477.5,19/40,32,40.0
3007,C5,478.0,0.5,60,40.0
3008,E-4,478.0,19/40,31,40.0
3009,G4,478.0,19/40,31,40.0
3010,D5,478.5,0.5,57,40.0
3011,E-4,478.5,19/40,31,40.0
3012,G4,478.5,19/40,31,40.0
3013,F5,479.0,0.125,60,40.0
3014,B-3,479.0,2.0,27,40.0
3015,G5,479.125,0.125,60,40.0
3016,F5,479.25,0.25,67,40.0
3017,E-5,479.5,0.5,59,40.0
3018,D4,479.5,19/40,23,40.0
3019,F4,479.5,19/40,23,40.0
3020,E-5,480.0,0.125,58,40.0
3021,D4,480.0,19/40,23,40.0
3022,F4,480.0,19/40,23,40.0
3023,F5,480.125,0.125,58,40.0
3024,E-5,480.25,0.25,64,40.0
3025,D5,480.5,0.5,57,40.0
3026,D4,480.5,19/40,23,40.0
3027,F4,480.5,19/40,23,40.0
3028,D5,481.0,0.125,56,40.0
3029,E-3,481.0,2.0,36,40.0
3030,E-5,481.125,0.125,55,40.0
3031,D5,481.25,0.25,61,40.0
3032,B-3,481.25,0.25,24,40.0
3033,C5,481.5,0.5,55,40.0
3034,G3,481.5,0.25,26,40.0
3035,B-3,481.75,0.25,24,40.0
3036,C5,482.0,0.125,54,40.0
3037,G3,482.0,0.25,32,40.0
3038,D5,482.125,0.125,54,40.0
3039,C5,482.25,0.25,59,40.0
3040,B-3,482.25,0.25,25,40.0
3041,B4,482.5,0.5,53,40.0
3042,G3,482.5,0.25,28,40.0
3043,B-3,482.75,0.25,26,40.0
3044,C5,483.0,0.125,52,40.0
3045,G3,483.0,0.25,34,40.0
3046,E-3,483.0,1.0,36,40.0
3047,D5,483.125,0.125,52,40.0
3048,C5,483.25,0.25,56,40.0
3049,B-3,483.25,0.25,26,40.0
3050,B-4,483.5,0.5,51,40.0
3051,G3,483.5,0.25,29,40.0
3052,B-3,483.75,0.25,26,40.0
3053,B-4,484.0,0.188,50,40.0
3054,E-3,484.0,1.0,36,40.0
3055,B-3,484.25,0.25,28,40.0
3056,B-4,484.5,0.188,46,40.0
3057,G3,484.5,0.25,32,40.0
3058,B-3,484.75,0.25,28,40.0
3059,C5,485.0,0.125,37,40.0
3060,C#3,485.0,2.0,45,40.0
3061,D5,485.125,0.125,37,40.0
3062,C5,485.25,0.25,41,40.0
3063,B-3,485.25,0.25,30,40.0
3064,B-4,485.5,0.5,37,40.0
3065,G3,485.5,0.25,32,40.0
3066,B-3,485.75,0.25,29,40.0
3067,B-4,486.0,0.188,37,40.0
3068,G3,486.0,0.25,38,40.0
3069,B-3,486.25,0.25,30,40.0
3070,B-4,486.5,0.188,35,40.0
3071,G3,486.5,0.25,33,40.0
3072,B-3,486.75,0.25,30,40.0
3073,G3,487.0,0.25,38,40.0
3074,C#3,487.0,1.0,45,40.0
3075,E-4,487.25,0.25,25,40.0
3076,B-3,487.25,0.25,29,40.0
3077,G4,487.5,0.25,29,40.0
3078,G3,487.5,0.25,32,40.0
3079,E-4,487.75,0.25,29,40.0
3080,B-3,487.75,0.25,29,40.0
3081,E-5,488.0,1.0,45,40.0
3082,C#3,488.0,1.0,38,40.0
3083,E-4,488.25,0.25,28,40.0
3084,B-3,488.25,0.25,30,40.0
3085,G4,488.5,0.25,30,40.0
3086,G3,488.5,0.25,33,40.0
3087,E-4,488.75,0.25,28,40.0
3088,B-3,488.75,0.25,29,40.0
3089,G4,489.0,0.25,31,40.0
3090,E-5,489.0,1.0,45,40.0
3091,C3,489.0,0.188,55,40.0
3092,E-4,489.25,0.25,30,40.0
3093,G#3,489.25,0.25,36,40.0
3094,G4,489.5,0.25,32,40.0
3095,E-3,489.5,0.25,39,40.0
3096,E-4,489.75,0.25,29,40.0
3097,G#3,489.75,0.25,35,40.0
3098,E-5,490.0,1.0,50,40.0
3099,B-2,490.0,0.188,56,40.0
3100,E-4,490.25,0.25,30,40.0
3101,G3,490.25,0.25,36,40.0
3102,G4,490.5,0.25,33,40.0
3103,C3,490.5,0.25,43,40.0
3104,E-4,490.75,0.25,32,40.0
3105,G3,490.75,0.25,41,40.0
3106,G#2,491.0,0.188,58,40.0
3107,E-4,491.25,0.25,32,40.0
3108,G#3,491.25,0.25,38,40.0
3109,G4,491.5,0.25,36,40.0
3110,C3,491.5,0.25,43,40.0
3111,E-4,491.75,0.25,35,40.0
3112,G#3,491.75,0.25,38,40.0
3113,E-5,492.0,1.0,54,40.0
3114,G2,492.0,0.188,60,40.0
3115,E-4,492.25,0.25,33,40.0
3116,G3,492.25,0.25,40,40.0
3117,G4,492.5,0.25,35,40.0
3118,C3,492.5,0.25,43,40.0
3119,E-4,492.75,0.25,32,40.0
3120,G3,492.75,0.25,38,40.0
3121,G4,493.0,0.25,35,40.0
3122,E-5,493.0,1.0,54,40.0
3123,F2,493.0,0.188,63,40.0
3124,E-4,493.25,0.25,33,40.0
3125,F3,493.25,0.25,42,40.0
3126,G4,493.5,0.25,35,40.0
3127,C3,493.5,0.25,45,40.0
3128,E-4,493.75,0.25,32,40.0
3129,F3,493.75,0.25,42,40.0
3130,E-5,494.0,1.0,53,40.0
3131,E-2,494.0,0.188,66,40.0
3132,E-4,494.25,0.25,32,40.0
3133,E-3,494.25,0.25,41,40.0
3134,G4,494.5,0.25,35,40.0
3135,F2,494.5,0.25,47,40.0
3136,E-4,494.75,0.25,33,40.0
3137,E-3,494.75,0.25,41,40.0
3138,E-5,495.0,0.188,66,40.0
3139,D2,495.0,0.188,68,40.0
3140,E-4,495.25,0.25,41,40.0
3141,D3,495.25,0.25,45,40.0
3142,G#4,495.5,0.25,45,40.0
3143,F2,495.5,0.25,49,40.0
3144,E-4,495.75,0.25,42,40.0
3145,D3,495.75,0.25,43,40.0
3146,E5,496.0,0.188,67,40.0
3147,C2,496.0,0.188,70,40.0
3148,E4,496.25,0.25,43,40.0
3149,C3,496.25,0.25,45,40.0
3150,C5,496.5,0.25,47,40.0
3151,F2,496.5,0.25,51,40.0
3152,E4,496.75,0.25,43,40.0
3153,C3,496.75,0.25,43,40.0
3154,F5,497.0,0.188,71,40.0
3155,B-1,497.0,0.188,70,40.0
3156,F4,497.25,0.25,45,40.0
3157,B-2,497.25,0.25,47,40.0
3158,C5,497.5,0.25,50,40.0
3159,F2,497.5,0.25,53,40.0
3160,F4,497.75,0.25,45,40.0
3161,B-2,497.75,0.25,48,40.0
3162,G5,498.0,0.188,72,40.0
3163,G#1,498.0,0.188,72,40.0
3164,G4,498.25,0.25,47,40.0
3165,G#2,498.25,0.25,47,40.0
3166,C5,498.5,0.25,50,40.0
3167,F2,498.5,0.25,53,40.0
3168,G4,498.75,0.25,47,40.0
3169,G#2,498.75,0.25,50,40.0
3170,G#5,499.0,0.188,74,40.0
3171,G1,499.0,0.188,75,40.0
3172,G#4,499.25,0.25,49,40.0
3173,G2,499.25,0.25,50,40.0
3174,C5,499.5,0.25,54,40.0
3175,E-2,499.5,0.25,55,40.0
3176,G#4,499.75,0.25,49,40.0
3177,G2,499.75,0.25,50,40.0
3178,A5,500.0,0.188,80,40.0
3179,G1,500.0,0.188,76,40.0
3180,A4,500.25,0.25,50,40.0
3181,G2,500.25,0.25,56,40.0
3182,C5,500.5,0.25,55,40.0
3183,E-2,500.5,0.25,58,40.0
3184,A4,500.75,0.25,51,40.0
3185,G2,500.75,0.25,55,40.0
3186,B-5,501.0,0.188,84,40.0
3187,G#1,501.0,0.5,78,40.0
3188,G#2,501.0,0.5,78,40.0
3189,B-4,501.25,0.25,51,40.0
3190,F5,501.5,0.25,58,40.0
3191,B-4,501.75,0.25,53,40.0
3192,C6,502.0,0.188,85,40.0
3193,C5,502.25,0.25,53,40.0
3194,F5,502.5,0.25,58,40.0
3195,C5,502.75,0.25,54,40.0
3196,C#6,503.0,0.188,85,40.0
3197,B-2,503.0,0.5,78,40.0
3198,B-1,503.0,0.5,78,40.0
3199,C#5,503.25,0.25,55,40.0
3200,F5,503.5,0.25,63,40.0
3201,C#5,503.75,0.25,55,40.0
3202,D6,504.0,0.188,90,40.0
3203,D5,504.25,0.25,57,40.0
3204,F5,504.5,0.25,62,40.0
3205,D5,504.75,0.25,57,40.0
3206,E-6,505.0,0.188,89,40.0
3207,E-3,505.0,2.0,45,40.0
3208,E-5,505.25,0.25,59,40.0
3209,B-3,505.25,0.25,30,40.0
3210,B-5,505.5,0.25,64,40.0
3211,G3,505.5,0.25,32,40.0
3212,E-5,505.75,0.25,59,40.0
3213,B-3,505.75,0.25,29,40.0
3214,B5,506.0,0.188,91,40.0
3215,G3,506.0,0.25,38,40.0
3216,B4,506.25,0.25,61,40.0
3217,B-3,506.25,0.25,30,40.0
3218,E-5,506.5,0.25,67,40.0
3219,G3,506.5,0.25,33,40.0
3220,B4,506.75,0.25,61,40.0
3221,B-3,506.75,0.25,30,40.0
3222,G3,507.0,0.25,38,40.0
3223,E-3,507.0,1.0,45,40.0
3224,C5,507.25,0.25,78,40.0
3225,B-3,507.25,0.25,29,40.0
3226,E-5,507.5,0.25,84,40.0
3227,G3,507.5,0.25,32,40.0
3228,C5,507.75,0.25,78,40.0
3229,B-3,507.75,0.25,29,40.0
3230,C6,508.0,0.188,88,40.0
3231,E-3,508.0,1.0,38,40.0
3232,C5,508.25,0.25,78,40.0
3233,B-3,508.25,0.25,30,40.0
3234,E-5,508.5,0.25,84,40.0
3235,G3,508.5,0.25,33,40.0
3236,C5,508.75,0.25,76,40.0
3237,B-3,508.75,0.25,29,40.0
3238,C#3,509.0,2.0,45,40.0
3239,F4,509.25,0.25,78,40.0
3240,B-3,509.25,0.25,30,40.0
3241,G#4,509.5,0.25,84,40.0
3242,G3,509.5,0.25,32,40.0
3243,F4,509.75,0.25,78,40.0
3244,B-3,509.75,0.25,29,40.0
3245,D5,510.0,0.188,88,40.0
3246,G3,510.0,0.25,38,40.0
3247,F4,510.25,0.25,78,40.0
3248,B-3,510.25,0.25,30,40.0
3249,G#4,510.5,0.25,84,40.0
3250,G3,510.5,0.25,33,40.0
3251,F4,510.75,0.25,76,40.0
3252,B-3,510.75,0.25,30,40.0
3253,G3,511.0,0.25,38,40.0
3254,C#3,511.0,1.0,45,40.0
3255,E-4,511.25,0.25,32,40.0
3256,B-3,511.25,0.25,29,40.0
3257,G4,511.5,0.25,36,40.0
3258,G3,511.5,0.25,32,40.0
3259,E-4,511.75,0.25,35,40.0
3260,B-3,511.75,0.25,29,40.0
3261,E-5,512.0,1.0,54,40.0
3262,C#3,512.0,1.0,38,40.0
3263,E-4,512.25,0.25,33,40.0
3264,B-3,512.25,0.25,30,40.0
3265,G4,512.5,0.25,35,40.0
3266,G3,512.5,0.25,33,40.0
3267,E-4,512.75,0.25,32,40.0
3268,B-3,512.75,0.25,29,40.0
3269,G4,513.0,0.25,35,40.0
3270,E-5,513.0,1.0,54,40.0
3271,C3,513.0,0.188,55,40.0
3272,E-4,513.25,0.25,33,40.0
3273,G#3,513.25,0.25,36,40.0
3274,G4,513.5,0.25,35,40.0
3275,E-3,513.5,0.25,39,40.0
3276,E-4,513.75,0.25,32,40.0
3277,G#3,513.75,0.25,35,40.0
3278,E-5,514.0,1.0,53,40.0
3279,B-2,514.0,0.188,56,40.0
3280,E-4,514.25,0.25,32,40.0
3281,G3,514.25,0.25,36,40.0
3282,G4,514.5,0.25,35,40.0
3283,C3,514.5,0.25,43,40.0
3284,E-4,514.75,0.25,33,40.0
3285,G3,514.75,0.25,41,40.0
3286,G#2,515.0,0.188,58,40.0
3287,E-4,515.25,0.25,32,40.0
3288,G#3,515.25,0.25,38,40.0
3289,G4,515.5,0.25,36,40.0
3290,C3,515.5,0.25,43,40.0
3291,E-4,515.75,0.25,35,40.0
3292,G#3,515.75,0.25,38,40.0
3293,E-5,516.0,1.0,54,40.0
3294,G2,516.0,0.188,60,40.0
3295,E-4,516.25,0.25,33,40.0
3296,G3,516.25,0.25,40,40.0
3297,G4,516.5,0.25,35,40.0
3298,C3,516.5,0.25,43,40.0
3299,E-4,516.75,0.25,32,40.0
3300,G3,516.75,0.25,38,40.0
3301,G4,517.0,0.25,35,40.0
3302,E-5,517.0,1.0,54,40.0
3303,F2,517.0,0.188,63,40.0
3304,E-4,517.25,0.25,33,40.0
3305,F3,517.25,0.25,42,40.0
3306,G4,517.5,0.25,35,40.0
3307,C3,517.5,0.25,45,40.0
3308,E-4,517.75,0.25,32,40.0
3309,F3,517.75,0.25,42,40.0
3310,E-5,518.0,1.0,53,40.0
3311,E-2,518.0,0.188,66,40.0
3312,E-4,518.25,0.25,32,40.0
3313,E-3,518.25,0.25,41,40.0
3314,G4,518.5,0.25,35,40.0
3315,F2,518.5,0.25,47,40.0
3316,E-4,518.75,0.25,33,40.0
3317,E-3,518.75,0.25,41,40.0
3318,E-5,519.0,0.188,66,40.0
3319,D2,519.0,0.188,68,40.0
3320,E-4,519.25,0.25,41,40.0
3321,D3,519.25,0.25,45,40.0
3322,G#4,519.5,0.25,45,40.0
3323,F2,519.5,0.25,49,40.0
3324,E-4,519.75,0.25,42,40.0
3325,D3,519.75,0.25,43,40.0
3326,E5,520.0,0.188,67,40.0
3327,C2,520.0,0.188,70,40.0
3328,E4,520.25,0.25,43,40.0
3329,C3,520.25,0.25,45,40.0
3330,C5,520.5,0.25,47,40.0
3331,F2,520.5,0.25,51,40.0
3332,E4,520.75,0.25,43,40.0
3333,C3,520.75,0.25,43,40.0
3334,F5,521.0,0.188,71,40.0
3335,B-1,521.0,0.188,70,40.0
3336,F4,521.25,0.25,45,40.0
3337,B-2,521.25,0.25,47,40.0
3338,C5,521.5,0.25,50,40.0
3339,F2,521.5,0.25,53,40.0
3340,F4,521.75,0.25,45,40.0
3341,B-2,521.75,0.25,48,40.0
3342,G5,522.0,0.188,72,40.0
3343,G#1,522.0,0.188,72,40.0
3344,G4,522.25,0.25,47,40.0
3345,G#2,522.25,0.25,47,40.0
3346,C5,522.5,0.25,50,40.0
3347,F2,522.5,0.25,53,40.0
3348,G4,522.75,0.25,47,40.0
3349,G#2,522.75,0.25,50,40.0
3350,G#5,523.0,0.188,74,40.0
3351,G1,523.0,0.188,75,40.0
3352,G#4,523.25,0.25,49,40.0
3353,G2,523.25,0.25,50,40.0
3354,C5,523.5,0.25,54,40.0
3355,E-2,523.5,0.25,55,40.0
3356,G#4,523.75,0.25,49,40.0
3357,G2,523.75,0.25,50,40.0
3358,A5,524.0,0.188,80,40.0
3359,G1,524.0,0.188,76,40.0
3360,A4,524.25,0.25,50,40.0
3361,G2,524.25,0.25,56,40.0
3362,C5,524.5,0.25,55,40.0
3363,G1,524.5,0.25,58,40.0
3364,A4,524.75,0.25,51,40.0
3365,G2,524.75,0.25,55,40.0
3366,B-5,525.0,0.188,84,40.0
3367,G#1,525.0,0.5,78,40.0
3368,G#2,525.0,0.5,78,40.0
3369,B-4,525.25,0.25,51,40.0
3370,F5,525.5,0.25,58,40.0
3371,B-4,525.75,0.25,53,40.0
3372,C6,526.0,0.188,85,40.0
3373,C5,526.25,0.25,53,40.0
3374,F5,526.5,0.25,58,40.0
3375,C5,526.75,0.25,54,40.0
3376,C#6,527.0,0.188,85,40.0
3377,B-2,527.0,0.5,78,40.0
3378,B-1,527.0,0.5,78,40.0
3379,C#5,527.25,0.25,55,40.0
3380,F5,527.5,0.25,63,40.0
3381,C#5,527.75,0.25,55,40.0
3382,D6,528.0,0.188,90,40.0
3383,D5,528.25,0.25,57,40.0
3384,F5,528.5,0.25,62,40.0
3385,D5,528.75,0.25,57,40.0
3386,E-6,529.0,0.188,89,40.0
3387,E-2,529.0,0.5,84,40.0
3388,E-3,529.0,0.5,84,40.0
3389,E-5,529.25,0.25,59,40.0
3390,B-5,529.5,0.25,64,40.0
3391,E-4,529.5,19/40,34,40.0
3392,G4,529.5,19/40,34,40.0
3393,E-5,529.75,0.25,59,40.0
3394,E6,530.0,0.188,91,40.0
3395,E-4,530.0,19/40,34,40.0
3396,G4,530.0,19/40,34,40.0
3397,E5,530.25,0.25,61,40.0
3398,B-5,530.5,0.25,67,40.0
3399,E-4,530.5,19/40,34,40.0
3400,G4,530.5,19/40,34,40.0
3401,E5,530.75,0.25,61,40.0
3402,C4,531.0,2.0,34,40.0
3403,G#5,531.25,0.25,78,40.0
3404,C6,531.5,0.25,84,40.0
3405,E-4,531.5,19/40,34,40.0
3406,G4,531.5,19/40,34,40.0
3407,G#5,531.75,0.25,78,40.0
3408,F6,532.0,0.188,88,40.0
3409,E-4,532.0,19/40,34,40.0
3410,G4,532.0,19/40,34,40.0
3411,G#5,532.25,0.25,78,40.0
3412,C6,532.5,0.25,84,40.0
3413,E-4,532.5,19/40,34,40.0
3414,G4,532.5,19/40,34,40.0
3415,G#5,532.75,0.25,76,40.0
3416,G#3,533.0,2.0,34,40.0
3417,F5,533.25,0.25,78,40.0
3418,G#5,533.5,0.25,84,40.0
3419,F4,533.5,19/40,34,40.0
3420,E-4,533.5,19/40,34,40.0
3421,F5,533.75,0.25,78,40.0
3422,D6,534.0,0.188,88,40.0
3423,E-4,534.0,19/40,34,40.0
3424,F4,534.0,19/40,34,40.0
3425,F5,534.25,0.25,78,40.0
3426,G#5,534.5,0.25,84,40.0
3427,E-4,534.5,19/40,34,40.0
3428,F4,534.5,19/40,34,40.0
3429,F5,534.75,0.25,76,40.0
3430,G5,535.0,0.188,81,40.0
3431,B-3,535.0,2.0,34,40.0
3432,E-6,535.5,1.0,64,40.0
3433,D4,535.5,19/40,34,40.0
3434,F4,535.5,19/40,34,40.0
3435,D4,536.0,19/40,34,40.0
3436,F4,536.0,19/40,34,40.0
3437,D6,536.5,0.25,46,40.0
3438,D4,536.5,19/40,34,40.0
3439,F4,536.5,19/40,34,40.0
3440,E-6,536.75,0.25,48,40.0
3441,F6,537.0,0.25,49,40.0
3442,E-3,537.0,2.0,59,40.0
3443,E-6,537.25,0.25,49,40.0
3444,D6,537.5,0.25,48,40.0
3445,G3,537.5,19/40,44,40.0
3446,E-4,537.5,19/40,44,40.0
3447,C6,537.75,0.25,47,40.0
3448,B5,538.0,0.25,45,40.0
3449,G3,538.0,19/40,44,40.0
3450,E-4,538.0,19/40,44,40.0
3451,C6,538.25,0.25,46,40.0
3452,D6,538.5,0.25,49,40.0
3453,G3,538.5,19/40,44,40.0
3454,E-4,538.5,19/40,44,40.0
3455,C6,538.75,0.25,47,40.0
3456,B-5,539.0,0.25,49,40.0
3457,C3,539.0,2.0,45,40.0
3458,G#5,539.25,0.25,47,40.0
3459,G5,539.5,0.25,46,40.0
3460,G3,539.5,19/40,46,40.0
3461,E-3,539.5,19/40,46,40.0
3462,C4,539.5,19/40,46,40.0
3463,F5,539.75,0.25,45,40.0
3464,E5,540.0,0.25,45,40.0
3465,G3,540.0,19/40,46,40.0
3466,E-3,540.0,19/40,46,40.0
3467,C4,540.0,19/40,46,40.0
3468,F5,540.25,0.25,45,40.0
3469,G5,540.5,0.25,47,40.0
3470,G3,540.5,19/40,47,40.0
3471,E-3,540.5,19/40,47,40.0
3472,C4,540.5,19/40,47,40.0
3473,F5,540.75,0.25,45,40.0
3474,E-5,541.0,0.25,46,40.0
3475,G#2,541.0,2.0,47,40.0
3476,D5,541.25,0.25,46,40.0
3477,C5,541.5,0.25,45,40.0
3478,F3,541.5,19/40,48,40.0
3479,G#3,541.5,19/40,48,40.0
3480,E-3,541.5,19/40,48,40.0
3481,B-4,541.75,0.25,45,40.0
3482,A4,542.0,0.25,45,40.0
3483,F3,542.0,19/40,48,40.0
3484,E-3,542.0,19/40,48,40.0
3485,G#3,542.0,19/40,48,40.0
3486,B-4,542.25,0.25,42,40.0
3487,C5,542.5,0.25,46,40.0
3488,F3,542.5,19/40,49,40.0
3489,E-3,542.5,19/40,49,40.0
3490,G#3,542.5,19/40,49,40.0
3491,G#4,542.75,0.25,42,40.0
3492,G4,543.0,0.188,66,40.0
3493,B-2,543.0,2.0,49,40.0
3494,E-5,543.5,1.0,68,40.0
3495,E-6,543.5,1.0,68,40.0
3496,F3,543.5,19/40,50,40.0
3497,D3,543.5,19/40,50,40.0
3498,B-3,543.5,19/40,50,40.0
3499,F3,544.0,19/40,50,40.0
3500,D3,544.0,19/40,50,40.0
3501,B-3,544.0,19/40,50,40.0
3502,D6,544.5,0.25,61,40.0
3503,F3,544.5,19/40,51,40.0
3504,D3,544.5,19/40,51,40.0
3505,B-3,544.5,19/40,51,40.0
3506,E-6,544.75,0.25,64,40.0
3507,F6,545.0,0.25,66,40.0
3508,E-2,545.0,19/40,67,40.0
3509,E-6,545.25,0.25,66,40.0
3510,E-3,545.25,0.25,60,40.0
3511,D6,545.5,0.25,65,40.0
3512,E-2,545.5,19/40,67,40.0
3513,C6,545.75,0.25,64,40.0
3514,E-3,545.75,0.25,59,40.0
3515,B5,546.0,0.25,62,40.0
3516,E-2,546.0,19/40,67,40.0
3517,C6,546.25,0.25,64,40.0
3518,E-3,546.25,0.25,60,40.0
3519,D6,546.5,0.25,68,40.0
3520,E-2,546.5,19/40,66,40.0
3521,C6,546.75,0.25,66,40.0
3522,E-3,546.75,0.25,60,40.0
3523,B-5,547.0,0.25,69,40.0
3524,E-2,547.0,19/40,66,40.0
3525,G#5,547.25,0.25,67,40.0
3526,E-3,547.25,0.25,59,40.0
3527,G5,547.5,0.25,66,40.0
3528,E-2,547.5,19/40,66,40.0
3529,F5,547.75,0.25,65,40.0
3530,E-3,547.75,0.25,60,40.0
3531,E5,548.0,0.25,65,40.0
3532,E-2,548.0,19/40,66,40.0
3533,F5,548.25,0.25,64,40.0
3534,E-3,548.25,0.25,60,40.0
3535,G5,548.5,0.25,68,40.0
3536,E-2,548.5,19/40,66,40.0
3537,F5,548.75,0.25,66,40.0
3538,E-3,548.75,0.25,61,40.0
3539,E-5,549.0,0.25,68,40.0
3540,E-2,549.0,19/40,67,40.0
3541,D5,549.25,0.25,68,40.0
3542,E-3,549.25,0.25,60,40.0
3543,C5,549.5,0.25,68,40.0
3544,E-2,549.5,19/40,67,40.0
3545,B-4,549.75,0.25,68,40.0
3546,E-3,549.75,0.25,59,40.0
3547,A4,550.0,0.25,67,40.0
3548,E-2,550.0,19/40,67,40.0
3549,B-4,550.25,0.25,64,40.0
3550,E-3,550.25,0.25,60,40.0
3551,C5,550.5,0.25,70,40.0
3552,E-2,550.5,19/40,66,40.0
3553,B-4,550.75,0.25,64,40.0
3554,E-3,550.75,0.25,60,40.0
3555,E-5,551.0,0.25,83,40.0
3556,E-2,551.0,19/40,66,40.0
3557,E-3,551.25,0.25,59,40.0
3558,E-4,551.5,1.0,82,40.0
3559,E-2,551.5,19/40,66,40.0
3560,E-3,551.75,0.25,60,40.0
3561,E-2,552.0,19/40,66,40.0
3562,E-3,552.25,0.25,60,40.0
3563,E-2,552.5,19/40,66,40.0
3564,C#4,552.5,0.25,80,40.0
3565,G4,552.5,0.25,80,40.0
3566,E-3,552.75,0.25,61,40.0
3567,E-2,553.0,19/40,66,40.0
3568,C4,553.0,0.25,81,40.0
3569,G#4,553.0,0.25,81,40.0
3570,E-3,553.25,0.25,59,40.0
3571,E-2,553.5,19/40,66,40.0
3572,G4,553.5,0.25,82,40.0
3573,B-4,553.5,0.25,82,40.0
3574,E-3,553.75,0.25,60,40.0
3575,E-2,554.0,19/40,66,40.0
3576,G#4,554.0,0.25,83,40.0
3577,C5,554.0,0.25,83,40.0
3578,E-3,554.25,0.25,60,40.0
3579,E-2,554.5,19/40,66,40.0
3580,G#4,554.5,0.25,85,40.0
3581,D5,554.5,0.25,85,40.0
3582,E-3,554.75,0.25,61,40.0
3583,D2,555.0,19/40,66,40.0
3584,G4,555.0,0.25,83,40.0
3585,E-5,555.0,0.25,83,40.0
3586,D3,555.25,0.25,59,40.0
3587,E-5,555.5,1.0,82,40.0
3588,D2,555.5,19/40,66,40.0
3589,D3,555.75,0.25,60,40.0
3590,D2,556.0,19/40,66,40.0
3591,D3,556.25,0.25,60,40.0
3592,D2,556.5,19/40,66,40.0
3593,C#5,556.5,0.25,80,40.0
3594,G5,556.5,0.25,80,40.0
3595,D3,556.75,0.25,61,40.0
3596,C2,557.0,19/40,66,40.0
3597,C5,557.0,0.25,81,40.0
3598,G#5,557.0,0.25,81,40.0
3599,C3,557.25,0.25,59,40.0
3600,C2,557.5,19/40,66,40.0
3601,G5,557.5,0.25,82,40.0
3602,B-5,557.5,0.25,82,40.0
3603,C3,557.75,0.25,60,40.0
3604,C2,558.0,19/40,66,40.0
3605,G#5,558.0,0.25,83,40.0
3606,C6,558.0,0.25,83,40.0
3607,C3,558.25,0.25,60,40.0
3608,C2,558.5,19/40,66,40.0
3609,G#5,558.5,0.25,85,40.0
3610,D6,558.5,0.25,85,40.0
3611,C3,558.75,0.25,61,40.0
3612,B-1,559.0,19/40,66,40.0
3613,E-6,559.0,2.0,94,40.0
3614,G5,559.0,2.0,94,40.0
3615,B-2,559.25,0.25,59,40.0
3616,B-1,559.5,19/40,66,40.0
3617,B-2,559.75,0.25,60,40.0
3618,B-1,560.0,19/40,66,40.0
3619,B-2,560.25,0.25,60,40.0
3620,B-1,560.5,19/40,66,40.0
3621,B-2,560.75,0.25,61,40.0
3622,G#1,561.0,19/40,66,40.0
3623,G4,561.0,2.0,88,40.0
3624,E-5,561.0,2.0,88,40.0
3625,G#2,561.25,0.25,59,40.0
3626,G#1,561.5,19/40,66,40.0
3627,G#2,561.75,0.25,60,40.0
3628,G#1,562.0,19/40,66,40.0
3629,G#2,562.25,0.25,60,40.0
3630,G#1,562.5,19/40,66,40.0
3631,G#2,562.75,0.25,61,40.0
3632,G1,563.0,19/40,66,40.0
3633,E-6,563.0,2.0,99,40.0
3634,G5,563.0,2.0,99,40.0
3635,G2,563.25,0.25,59,40.0
3636,G1,563.5,19/40,66,40.0
3637,G2,563.75,0.25,60,40.0
3638,G1,564.0,19/40,66,40.0
3639,G2,564.25,0.25,60,40.0
3640,G1,564.5,19/40,66,40.0
3641,G2,564.75,0.25,61,40.0
3642,G4,565.0,2.0,92,40.0
3643,E-5,565.0,2.0,92,40.0
3644,F#1,565.0,2.0,68,40.0
3645,F#2,565.0,2.0,68,40.0
3646,E-6,567.0,2.0,102,40.0
3647,C6,567.0,2.0,102,40.0
3648,F#2,567.0,2.0,78,40.0
3649,F#3,567.0,2.0,78,40.0
3650,C5,569.0,2.0,96,40.0
3651,E-5,569.0,2.0,96,40.0
3652,G1,569.0,2.75,79,40.0
3653,B-1,569.0,2.75,79,40.0
3654,D2,569.0,2.75,79,40.0
3655,G2,569.0,2.75,79,40.0
3656,C6,571.0,2.0,93,40.0
3657,A5,571.0,2.0,93,40.0
3658,D6,571.0,2.0,93,40.0
3659,B-3,571.75,119/500,39,40.0
3660,A3,572.0,0.75,45,40.0
3661,G3,572.75,119/500,39,40.0
3662,C#4,573.0,2.0,42,40.0
3663,A3,573.0,2.0,97,40.0
3664,C4,573.0,2.0,97,40.0
3665,D4,573.0,2.0,97,40.0
3666,D4,575.0,1.0,27,40.0
3667,G3,575.0,2.75,91,40.0
3668,B-3,575.0,2.75,91,40.0
3669,D4,575.0,2.75,91,40.0
3670,G4,575.0,2.75,91,40.0
3671,E-3,576.75,0.25,86,40.0
3672,E-4,577.0,2.75,90,40.0
3673,D4,577.75,119/500,48,40.0
3674,G4,577.75,119/500,48,40.0
3675,D4,578.0,0.75,49,40.0
3676,F#4,578.0,0.75,49,40.0
3677,A4,578.0,0.75,49,40.0
3678,D4,578.75,119/500,47,40.0
3679,G4,578.75,119/500,47,40.0
3680,B-4,578.75,119/500,47,40.0
3681,E4,579.0,2.0,52,40.0
3682,G4,579.0,2.0,52,40.0
3683,B-4,579.0,2.0,52,40.0
3684,E-4,579.75,119/500,39,40.0
3685,D4,580.0,0.75,45,40.0
3686,C4,580.75,119/500,39,40.0
3687,B-3,581.0,3.0,38,40.0
3688,F#4,581.0,1.0,35,40.0
3689,A4,581.0,1.0,35,40.0
3690,F#4,583.0,2.75,91,40.0
3691,A4,583.0,2.75,91,40.0
3692,C5,583.0,2.75,91,40.0
3693,E-3,584.75,0.25,81,40.0
3694,E-4,585.0,2.75,86,40.0
3695,A4,585.75,119/500,47,40.0
3696,F#4,585.75,119/500,47,40.0
3697,C5,585.75,119/500,47,40.0
3698,F#4,586.0,0.75,49,40.0
3699,A4,586.0,0.75,49,40.0
3700,D5,586.0,0.75,49,40.0
3701,A4,586.75,119/500,48,40.0
3702,E-5,586.75,119/500,48,40.0
3703,F#4,586.75,119/500,48,40.0
3704,E-5,587.0,2.0,52,40.0
3705,F#4,587.0,2.0,52,40.0
3706,A4,587.0,2.0,52,40.0
3707,E-4,587.75,119/500,42,40.0
3708,D4,588.0,0.75,49,40.0
3709,C4,588.75,119/500,49,40.0
3710,C4,589.0,1.0,50,40.0
3711,G4,589.0,1.0,34,40.0
3712,D5,589.0,1.0,34,40.0
3713,B-4,589.0,1.0,34,40.0
3714,B3,590.0,2.0,43,40.0
3715,F#4,591.0,2.75,88,40.0
3716,A4,591.0,2.75,88,40.0
3717,C5,591.0,2.75,88,40.0
3718,B3,592.0,1.0,33,40.0
3719,B3,593.0,1.0,33,40.0
3720,A4,593.75,119/500,49,40.0
3721,F#4,593.75,119/500,49,40.0
3722,C5,593.75,119/500,49,40.0
3723,B2,594.0,2.0,31,40.0
3724,F#4,594.0,0.75,54,40.0
3725,A4,594.0,0.75,54,40.0
3726,D5,594.0,0.75,54,40.0
3727,A4,594.75,119/500,60,40.0
3728,E-5,594.75,119/500,60,40.0
3729,F#4,594.75,119/500,60,40.0
3730,E-5,595.0,2.0,53,40.0
3731,F#4,595.0,2.0,53,40.0
3732,A4,595.0,2.0,53,40.0
3733,B2,596.0,2.0,28,40.0
3734,E4,597.0,2.0,47,40.0
3735,G4,597.0,2.0,47,40.0
3736,E5,597.0,2.0,47,40.0
3737,B1,598.0,2.0,25,40.0
3738,E-4,599.0,2.0,42,40.0
3739,F#4,599.0,2.0,42,40.0
3740,A4,599.0,2.0,42,40.0
3741,B1,600.0,1.0,22,40.0
3742,E2,601.0,19/40,55,40.0
3743,B3,601.0,2.0,38,40.0
3744,E4,601.0,2.0,38,40.0
3745,G4,601.0,2.0,38,40.0
3746,E3,601.25,0.25,50,40.0
3747,E2,601.5,19/40,53,40.0
3748,E3,601.75,0.25,47,40.0
3749,E2,602.0,19/40,53,40.0
3750,E3,602.25,0.25,47,40.0
3751,E2,602.5,19/40,52,40.0
3752,E3,602.75,0.25,48,40.0
3753,E2,603.0,19/40,50,40.0
3754,A3,603.0,2.0,36,40.0
3755,C4,603.0,2.0,36,40.0
3756,E-4,603.0,2.0,36,40.0
3757,F#4,603.0,2.0,36,40.0
3758,E3,603.25,0.25,53,40.0
3759,E2,603.5,19/40,54,40.0
3760,E3,603.75,0.25,54,40.0
3761,E2,604.0,19/40,56,40.0
3762,E3,604.25,0.25,58,40.0
3763,E2,604.5,19/40,62,40.0
3764,E3,604.75,0.25,57,40.0
3765,F#3,605.0,2.0,30,40.0
3766,A3,605.0,2.0,30,40.0
3767,E-4,605.0,2.0,30,40.0
3768,E3,605.0,19/40,58,40.0
3769,E2,605.0,19/40,58,40.0
3770,G3,605.5,19/40,50,40.0
3771,B3,605.5,19/40,50,40.0
3772,G3,606.0,19/40,50,40.0
3773,B3,606.0,19/40,50,40.0
3774,G3,606.5,19/40,50,40.0
3775,B3,606.5,19/40,50,40.0
3776,E4,607.0,0.188,61,40.0
3777,E3,607.0,19/40,63,40.0
3778,A4,607.5,0.188,55,40.0
3779,G3,607.5,19/40,50,40.0
3780,B3,607.5,19/40,50,40.0
3781,G4,608.0,0.188,58,40.0
3782,G3,608.0,19/40,50,40.0
3783,B3,608.0,19/40,50,40.0
3784,A4,608.5,0.188,52,40.0
3785,E-5,608.5,0.188,52,40.0
3786,G3,608.5,19/40,47,40.0
3787,B3,608.5,19/40,47,40.0
3788,E3,609.0,19/40,55,40.0
3789,G4,609.0,0.188,56,40.0
3790,E5,609.0,0.188,56,40.0
3791,E-5,609.5,0.188,61,40.0
3792,A5,609.5,0.188,61,40.0
3793,A3,609.5,19/40,44,40.0
3794,C4,609.5,19/40,44,40.0
3795,E5,610.0,0.188,66,40.0
3796,G5,610.0,0.188,66,40.0
3797,A3,610.0,19/40,44,40.0
3798,C4,610.0,19/40,44,40.0
3799,A5,610.5,0.188,68,40.0
3800,E-6,610.5,0.188,68,40.0
3801,A3,610.5,19/40,44,40.0
3802,C4,610.5,19/40,44,40.0
3803,E-3,611.0,19/40,63,40.0
3804,G5,611.0,0.5,74,40.0
3805,E6,611.0,0.5,74,40.0
3806,A3,611.5,19/40,50,40.0
3807,C4,611.5,19/40,50,40.0
3808,E4,612.0,0.5,74,40.0
3809,E5,612.0,0.5,74,40.0
3810,A3,612.0,19/40,50,40.0
3811,C4,612.0,19/40,50,40.0
3812,A3,612.5,19/40,47,40.0
3813,C4,612.5,19/40,47,40.0
3814,D2,613.0,19/40,55,40.0
3815,D3,613.25,0.25,50,40.0
3816,D2,613.5,19/40,53,40.0
3817,E4,613.5,0.188,57,40.0
3818,E5,613.5,0.188,57,40.0
3819,D3,613.75,0.25,47,40.0
3820,D2,614.0,19/40,53,40.0
3821,F#4,614.0,0.188,62,40.0
3822,F#5,614.0,0.188,62,40.0
3823,D3,614.25,0.25,47,40.0
3824,D2,614.5,19/40,52,40.0
3825,G4,614.5,0.188,57,40.0
3826,G5,614.5,0.188,57,40.0
3827,D3,614.75,0.25,48,40.0
3828,D2,615.0,19/40,50,40.0
3829,G4,615.0,1.0,61,40.0
3830,G5,615.0,1.0,61,40.0
3831,D3,615.25,0.25,53,40.0
3832,D2,615.5,19/40,54,40.0
3833,D3,615.75,0.25,54,40.0
3834,D2,616.0,19/40,56,40.0
3835,F#4,616.0,0.5,57,40.0
3836,F#5,616.0,0.5,57,40.0
3837,D3,616.25,0.25,58,40.0
3838,D2,616.5,19/40,62,40.0
3839,D3,616.75,0.25,57,40.0
3840,D3,617.0,19/40,58,40.0
3841,D2,617.0,19/40,58,40.0
3842,F#4,617.5,0.188,57,40.0
3843,F#5,617.5,0.188,57,40.0
3844,A3,617.5,19/40,50,40.0
3845,C4,617.5,19/40,50,40.0
3846,G4,618.0,0.188,62,40.0
3847,G5,618.0,0.188,62,40.0
3848,A3,618.0,19/40,50,40.0
3849,C4,618.0,19/40,50,40.0
3850,A4,618.5,0.188,57,40.0
3851,A5,618.5,0.188,57,40.0
3852,A3,618.5,19/40,50,40.0
3853,C4,618.5,19/40,50,40.0
3854,D3,619.0,19/40,63,40.0
3855,A4,619.0,0.188,57,40.0
3856,A5,619.0,0.188,57,40.0
3857,G4,619.5,0.188,55,40.0
3858,A3,619.5,19/40,50,40.0
3859,C4,619.5,19/40,50,40.0
3860,F#4,620.0,0.188,58,40.0
3861,A3,620.0,19/40,50,40.0
3862,C4,620.0,19/40,50,40.0
3863,G4,620.5,0.188,52,40.0
3864,C#5,620.5,0.188,52,40.0
3865,A3,620.5,19/40,47,40.0
3866,C4,620.5,19/40,47,40.0
3867,D3,621.0,19/40,55,40.0
3868,F#4,621.0,0.188,56,40.0
3869,D5,621.0,0.188,56,40.0
3870,C#5,621.5,0.188,61,40.0
3871,G5,621.5,0.188,61,40.0
3872,G3,621.5,19/40,44,40.0
3873,B-3,621.5,19/40,44,40.0
3874,D5,622.0,0.188,66,40.0
3875,F#5,622.0,0.188,66,40.0
3876,G3,622.0,19/40,44,40.0
3877,B-3,622.0,19/40,44,40.0
3878,G5,622.5,0.188,68,40.0
3879,C#6,622.5,0.188,68,40.0
3880,G3,622.5,19/40,44,40.0
3881,B-3,622.5,19/40,44,40.0
3882,C#3,623.0,19/40,63,40.0
3883,F#5,623.0,0.5,74,40.0
3884,D6,623.0,0.5,74,40.0
3885,G3,623.5,19/40,50,40.0
3886,B-3,623.5,19/40,50,40.0
3887,F#4,624.0,0.5,74,40.0
3888,F#5,624.0,0.5,74,40.0
3889,G3,624.0,19/40,50,40.0
3890,B-3,624.0,19/40,50,40.0
3891,G3,624.5,19/40,47,40.0
3892,B-3,624.5,19/40,47,40.0
3893,C2,625.0,0.5,53,40.0
3894,C3,625.0,0.5,53,40.0
3895,C#3,625.5,0.5,55,40.0
3896,F#4,625.5,0.188,57,40.0
3897,F#5,625.5,0.188,57,40.0
3898,C3,626.0,0.5,51,40.0
3899,G4,626.0,0.188,62,40.0
3900,G5,626.0,0.188,62,40.0
3901,F3,626.5,0.5,55,40.0
3902,A4,626.5,0.188,57,40.0
3903,A5,626.5,0.188,57,40.0
3904,E3,627.0,0.5,52,40.0
3905,A4,627.0,1.0,61,40.0
3906,A5,627.0,1.0,61,40.0
3907,C#4,627.5,0.5,55,40.0
3908,C4,628.0,0.5,51,40.0
3909,G4,628.0,0.5,57,40.0
3910,G5,628.0,0.5,57,40.0
3911,F4,628.5,0.5,55,40.0
3912,E4,629.0,0.5,51,40.0
3913,F#4,629.5,0.5,55,40.0
3914,G4,629.5,0.188,57,40.0
3915,G5,629.5,0.188,57,40.0
3916,G4,630.0,0.5,57,40.0
3917,A4,630.0,0.188,62,40.0
3918,A5,630.0,0.188,62,40.0
3919,B-4,630.5,0.188,57,40.0
3920,B-5,630.5,0.188,57,40.0
3921,B-4,631.0,19/40,58,40.0
3922,B-5,631.25,0.25,52,40.0
3923,B-4,631.5,19/40,58,40.0
3924,B-5,631.75,0.25,53,40.0
3925,B-4,632.0,19/40,58,40.0
3926,B-5,632.25,0.25,52,40.0
3927,B-4,632.5,19/40,58,40.0
3928,B-5,632.75,0.25,52,40.0
3929,B-4,633.0,19/40,58,40.0
3930,B-5,633.25,0.25,52,40.0
3931,B-4,633.5,19/40,58,40.0
3932,F#2,633.5,0.5,55,40.0
3933,B-5,633.75,0.25,53,40.0
3934,B-4,634.0,19/40,58,40.0
3935,F2,634.0,0.5,51,40.0
3936,B-5,634.25,0.25,52,40.0
3937,B-4,634.5,19/40,58,40.0
3938,C#3,634.5,0.5,55,40.0
3939,B-5,634.75,0.25,52,40.0
3940,B-4,635.0,19/40,58,40.0
3941,C3,635.0,0.5,52,40.0
3942,B-5,635.25,0.25,52,40.0
3943,B-4,635.5,19/40,58,40.0
3944,F#3,635.5,0.5,55,40.0
3945,B-5,635.75,0.25,53,40.0
3946,B-4,636.0,19/40,58,40.0
3947,F3,636.0,0.5,51,40.0
3948,B-5,636.25,0.25,52,40.0
3949,B-4,636.5,19/40,58,40.0
3950,C#4,636.5,0.5,55,40.0
3951,B-5,636.75,0.25,52,40.0
3952,B-4,637.0,19/40,58,40.0
3953,C4,637.0,0.5,51,40.0
3954,B-5,637.25,0.25,52,40.0
3955,B-4,637.5,19/40,58,40.0
3956,E4,637.5,0.5,55,40.0
3957,B-5,637.75,0.25,53,40.0
3958,B-4,638.0,19/40,58,40.0
3959,F4,638.0,0.5,57,40.0
3960,B-5,638.25,0.25,52,40.0
3961,B-4,638.5,19/40,58,40.0
3962,B-5,638.75,0.25,52,40.0
3963,A4,639.0,19/40,58,40.0
3964,A5,639.25,0.25,52,40.0
3965,A4,639.5,19/40,58,40.0
3966,A5,639.75,0.25,53,40.0
3967,A4,640.0,19/40,58,40.0
3968,A5,640.25,0.25,52,40.0
3969,A4,640.5,19/40,58,40.0
3970,A5,640.75,0.25,52,40.0
3971,A4,641.0,19/40,58,40.0
3972,A5,641.25,0.25,52,40.0
3973,A4,641.5,19/40,58,40.0
3974,C3,641.5,0.5,55,40.0
3975,A5,641.75,0.25,53,40.0
3976,A4,642.0,19/40,58,40.0
3977,B2,642.0,0.5,51,40.0
3978,A5,642.25,0.25,52,40.0
3979,A4,642.5,19/40,58,40.0
3980,D3,642.5,0.5,55,40.0
3981,A5,642.75,0.25,52,40.0
3982,A4,643.0,19/40,58,40.0
3983,F3,643.0,0.5,52,40.0
3984,A5,643.25,0.25,52,40.0
3985,A4,643.5,19/40,58,40.0
3986,C4,643.5,0.5,55,40.0
3987,A5,643.75,0.25,53,40.0
3988,A4,644.0,19/40,58,40.0
3989,B3,644.0,0.5,51,40.0
3990,A5,644.25,0.25,52,40.0
3991,A4,644.5,19/40,58,40.0
3992,D4,644.5,0.5,55,40.0
3993,A5,644.75,0.25,52,40.0
3994,A4,645.0,19/40,58,40.0
3995,F4,645.0,119/500,54,40.0
3996,A5,645.25,0.25,52,40.0
3997,A4,645.5,19/40,58,40.0
3998,A5,645.75,0.25,53,40.0
3999,A4,646.0,19/40,58,40.0
4000,D4,646.0,0.25,54,40.0
4001,A5,646.25,0.25,52,40.0
4002,A4,646.5,19/40,58,40.0
4003,A5,646.75,0.25,52,40.0
4004,G#4,647.0,19/40,58,40.0
4005,B3,647.0,0.25,53,40.0
4006,G#5,647.25,0.25,52,40.0
4007,G#4,647.5,19/40,58,40.0
4008,G#5,647.75,0.25,53,40.0
4009,G#4,648.0,19/40,58,40.0
4010,G3,648.0,0.25,52,40.0
4011,G#5,648.25,0.25,52,40.0
4012,G#4,648.5,19/40,58,40.0
4013,G#5,648.75,0.25,52,40.0
4014,G#4,649.0,19/40,58,40.0
4015,C#3,649.0,0.5,47,40.0
4016,C#4,649.0,0.5,47,40.0
4017,G#5,649.25,0.25,52,40.0
4018,G#4,649.5,19/40,58,40.0
4019,G#5,649.75,0.25,53,40.0
4020,G#4,650.0,19/40,58,40.0
4021,B-2,650.0,0.5,46,40.0
4022,B-3,650.0,0.5,46,40.0
4023,G#5,650.25,0.25,52,40.0
4024,G#4,650.5,19/40,58,40.0
4025,G#5,650.75,0.25,52,40.0
4026,G#4,651.0,19/40,58,40.0
4027,G2,651.0,0.5,45,40.0
4028,G3,651.0,0.5,45,40.0
4029,G#5,651.25,0.25,52,40.0
4030,G#4,651.5,19/40,58,40.0
4031,G#5,651.75,0.25,53,40.0
4032,G#4,652.0,19/40,58,40.0
4033,E2,652.0,0.5,44,40.0
4034,E3,652.0,0.5,44,40.0
4035,G#5,652.25,0.25,52,40.0
4036,G#4,652.5,19/40,58,40.0
4037,G#5,652.75,0.25,52,40.0
4038,G#4,653.0,19/40,58,40.0
4039,F2,653.0,0.5,44,40.0
4040,F3,653.0,0.5,44,40.0
4041,G#5,653.25,0.25,54,40.0
4042,G4,653.5,19/40,58,40.0
4043,G5,653.75,0.25,54,40.0
4044,G4,654.0,19/40,58,40.0
4045,G5,654.25,0.25,54,40.0
4046,F4,654.5,19/40,58,40.0
4047,F5,654.75,0.25,54,40.0
4048,F4,655.0,19/40,56,40.0
4049,F1,655.0,0.5,44,40.0
4050,F2,655.0,0.5,44,40.0
4051,F5,655.25,0.25,56,40.0
4052,E4,655.5,19/40,56,40.0
4053,E5,655.75,0.25,56,40.0
4054,E4,656.0,19/40,55,40.0
4055,E5,656.25,0.25,55,40.0
4056,C#4,656.5,19/40,55,40.0
4057,C#5,656.75,0.25,55,40.0
4058,C#4,657.0,19/40,54,40.0
4059,F#1,657.0,0.5,44,40.0
4060,F#2,657.0,0.5,44,40.0
4061,C#5,657.25,0.25,51,40.0
4062,C4,657.5,19/40,54,40.0
4063,C5,657.75,0.25,51,40.0
4064,C4,658.0,19/40,53,40.0
4065,C5,658.25,0.25,50,40.0
4066,B-3,658.5,19/40,53,40.0
4067,B-4,658.75,0.25,49,40.0
4068,B-3,659.0,19/40,53,40.0
4069,F#1,659.0,0.5,44,40.0
4070,F#2,659.0,0.5,44,40.0
4071,B-4,659.25,0.25,51,40.0
4072,G#3,659.5,19/40,53,40.0
4073,G#4,659.75,0.25,50,40.0
4074,G#3,660.0,19/40,53,40.0
4075,G#4,660.25,0.25,50,40.0
4076,G3,660.5,19/40,53,40.0
4077,G4,660.75,0.25,49,40.0
4078,G3,661.0,19/40,53,40.0
4079,G1,661.0,0.25,33,40.0
4080,G4,661.25,0.25,53,40.0
4081,G2,661.25,0.25,33,40.0
4082,F3,661.5,19/40,53,40.0
4083,G1,661.5,0.25,34,40.0
4084,F4,661.75,0.25,48,40.0
4085,G2,661.75,0.25,34,40.0
4086,F3,662.0,19/40,53,40.0
4087,G1,662.0,0.25,34,40.0
4088,F4,662.25,0.25,49,40.0
4089,G2,662.25,0.25,34,40.0
4090,E-3,662.5,19/40,53,40.0
4091,G1,662.5,0.25,34,40.0
4092,E-4,662.75,0.25,49,40.0
4093,G2,662.75,0.25,34,40.0
4094,E-3,663.0,19/40,53,40.0
4095,G1,663.0,0.25,34,40.0
4096,E-4,663.25,0.25,49,40.0
4097,G2,663.25,0.25,34,40.0
4098,D3,663.5,19/40,53,40.0
4099,G1,663.5,0.25,34,40.0
4100,D4,663.75,0.25,49,40.0
4101,G2,663.75,0.25,34,40.0
4102,D3,664.0,19/40,53,40.0
4103,G1,664.0,0.25,34,40.0
4104,D4,664.25,0.25,49,40.0
4105,G2,664.25,0.25,34,40.0
4106,E-3,664.5,19/40,53,40.0
4107,G1,664.5,0.25,34,40.0
4108,E-4,664.75,0.25,48,40.0
4109,G2,664.75,0.25,34,40.0
4110,E-3,665.0,19/40,53,40.0
4111,G1,665.0,0.25,33,40.0
4112,E-4,665.25,0.25,49,40.0
4113,G2,665.25,0.25,33,40.0
4114,D3,665.5,19/40,53,40.0
4115,G1,665.5,0.25,33,40.0
4116,D4,665.75,0.25,49,40.0
4117,G2,665.75,0.25,33,40.0
4118,D3,666.0,19/40,53,40.0
4119,G1,666.0,0.25,33,40.0
4120,D4,666.25,0.25,49,40.0
4121,G2,666.25,0.25,33,40.0
4122,C3,666.5,19/40,53,40.0
4123,G1,666.5,0.25,33,40.0
4124,C4,666.75,0.25,49,40.0
4125,G2,666.75,0.25,33,40.0
4126,G1,667.0,0.25,33,40.0
4127,B2,667.0,0.5,53,40.0
4128,B3,667.0,0.5,53,40.0
4129,G2,667.25,0.25,33,40.0
4130,G1,667.5,0.25,33,40.0
4131,G2,667.75,0.25,33,40.0
4132,C#3,668.0,0.25,40,40.0
4133,G1,668.0,0.25,33,40.0
4134,G#3,668.25,0.25,34,40.0
4135,G2,668.25,0.25,33,40.0
4136,E3,668.5,0.25,34,40.0
4137,G1,668.5,0.25,33,40.0
4138,C#3,668.75,0.25,34,40.0
4139,G2,668.75,0.25,33,40.0
4140,D3,669.0,0.25,41,40.0
4141,G1,669.0,19/40,55,40.0
4142,G#3,669.25,0.25,34,40.0
4143,G2,669.25,0.25,50,40.0
4144,F3,669.5,0.25,34,40.0
4145,G1,669.5,19/40,53,40.0
4146,D3,669.75,0.25,34,40.0
4147,G2,669.75,0.25,47,40.0
4148,C3,670.0,0.25,41,40.0
4149,G1,670.0,19/40,53,40.0
4150,G#3,670.25,0.25,34,40.0
4151,G2,670.25,0.25,47,40.0
4152,E-3,670.5,0.25,34,40.0
4153,G1,670.5,19/40,52,40.0
4154,C3,670.75,0.25,34,40.0
4155,G2,670.75,0.25,48,40.0
4156,B2,671.0,0.25,40,40.0
4157,G1,671.0,19/40,50,40.0
4158,G3,671.25,0.25,34,40.0
4159,G2,671.25,0.25,53,40.0
4160,D3,671.5,0.25,34,40.0
4161,G1,671.5,19/40,54,40.0
4162,B2,671.75,0.25,34,40.0
4163,G2,671.75,0.25,54,40.0
4164,C#3,672.0,0.25,40,40.0
4165,G1,672.0,19/40,56,40.0
4166,G#3,672.25,0.25,34,40.0
4167,G2,672.25,0.25,58,40.0
4168,E3,672.5,0.25,34,40.0
4169,G1,672.5,19/40,62,40.0
4170,C#3,672.75,0.25,34,40.0
4171,G2,672.75,0.25,57,40.0
4172,D3,673.0,0.25,40,40.0
4173,G1,673.0,1.0,69,40.0
4174,G#3,673.25,0.25,34,40.0
4175,F3,673.5,0.25,34,40.0
4176,G2,673.5,1.0,62,40.0
4177,D3,673.75,0.25,34,40.0
4178,C3,674.0,0.25,39,40.0
4179,B1,674.0,1.0,67,40.0
4180,G#3,674.25,0.25,34,40.0
4181,E-3,674.5,0.25,34,40.0
4182,G2,674.5,0.5,62,40.0
4183,C3,674.75,0.25,34,40.0
4184,C2,675.0,1.0,67,40.0
4185,G2,675.0,0.5,62,40.0
4186,B2,675.0,0.5,34,40.0
4187,D3,675.0,0.5,34,40.0
4188,G3,675.0,0.5,34,40.0
4189,E4,675.5,0.188,55,40.0
4190,G2,675.5,1.0,62,40.0
4191,F4,676.0,0.188,58,40.0
4192,F#1,676.0,1.0,64,40.0
4193,G2,676.5,0.5,62,40.0
4194,E4,676.5,0.188,52,40.0
4195,C#5,676.5,0.188,52,40.0
4196,G1,677.0,0.25,33,40.0
4197,F4,677.0,0.188,56,40.0
4198,D5,677.0,0.188,56,40.0
4199,G2,677.25,0.25,33,40.0
4200,G1,677.5,0.25,34,40.0
4201,C#5,677.5,0.188,61,40.0
4202,E5,677.5,0.188,61,40.0
4203,G2,677.75,0.25,34,40.0
4204,G1,678.0,0.25,34,40.0
4205,D5,678.0,0.188,66,40.0
4206,F5,678.0,0.188,66,40.0
4207,G2,678.25,0.25,34,40.0
4208,G1,678.5,0.25,34,40.0
4209,E5,678.5,0.188,68,40.0
4210,C#6,678.5,0.188,68,40.0
4211,G2,678.75,0.25,34,40.0
4212,G1,679.0,0.25,34,40.0
4213,F5,679.0,0.188,68,40.0
4214,D6,679.0,0.188,68,40.0
4215,G2,679.25,0.25,34,40.0
4216,G1,679.5,0.25,34,40.0
4217,C#6,679.5,0.188,77,40.0
4218,E6,679.5,0.188,77,40.0
4219,G2,679.75,0.25,34,40.0
4220,G1,680.0,0.25,34,40.0
4221,D6,680.0,1.0,82,40.0
4222,F6,680.0,1.0,82,40.0
4223,G2,680.25,0.25,34,40.0
4224,G1,680.5,0.25,34,40.0
4225,G2,680.75,0.25,34,40.0
4226,G1,681.0,0.25,33,40.0
4227,D6,681.0,1.0,82,40.0
4228,F6,681.0,1.0,82,40.0
4229,G2,681.25,0.25,33,40.0
4230,G1,681.5,0.25,33,40.0
4231,G2,681.75,0.25,33,40.0
4232,C6,682.0,1.0,58,40.0
4233,E-6,682.0,0.125,58,40.0
4234,G1,682.0,0.25,33,40.0
4235,F6,682.125,0.125,54,40.0
4236,E-6,682.25,0.125,54,40.0
4237,G2,682.25,0.25,33,40.0
4238,F6,682.375,0.125,54,40.0
4239,E-6,682.5,0.125,59,40.0
4240,G1,682.5,0.25,33,40.0
4241,F6,682.625,0.125,54,40.0
4242,E-6,682.75,0.125,54,40.0
4243,G2,682.75,0.25,33,40.0
4244,F6,682.875,0.125,54,40.0
4245,G1,683.0,0.25,33,40.0
4246,B5,683.0,0.5,59,40.0
4247,D6,683.0,0.5,59,40.0
4248,G2,683.25,0.25,33,40.0
4249,G1,683.5,0.25,33,40.0
4250,G2,683.75,0.25,33,40.0
4251,C#3,684.0,0.25,40,40.0
4252,G1,684.0,0.25,33,40.0
4253,G#3,684.25,0.25,34,40.0
4254,G2,684.25,0.25,33,40.0
4255,E3,684.5,0.25,34,40.0
4256,G1,684.5,0.25,33,40.0
4257,C#3,684.75,0.25,34,40.0
4258,G2,684.75,0.25,33,40.0
4259,D3,685.0,0.25,41,40.0
4260,G1,685.0,19/40,55,40.0
4261,G#3,685.25,0.25,34,40.0
4262,G2,685.25,0.25,50,40.0
4263,F3,685.5,0.25,34,40.0
4264,G1,685.5,19/40,53,40.0
4265,D3,685.75,0.25,34,40.0
4266,G2,685.75,0.25,47,40.0
4267,C3,686.0,0.25,41,40.0
4268,G1,686.0,19/40,53,40.0
4269,G#3,686.25,0.25,34,40.0
4270,G2,686.25,0.25,47,40.0
4271,E-3,686.5,0.25,34,40.0
4272,G1,686.5,19/40,52,40.0
4273,C3,686.75,0.25,34,40.0
4274,G2,686.75,0.25,48,40.0
4275,B2,687.0,0.25,40,40.0
4276,G1,687.0,19/40,50,40.0
4277,G3,687.25,0.25,34,40.0
4278,G2,687.25,0.25,53,40.0
4279,D3,687.5,0.25,34,40.0
4280,G1,687.5,19/40,54,40.0
4281,B2,687.75,0.25,34,40.0
4282,G2,687.75,0.25,54,40.0
4283,C#3,688.0,0.25,40,40.0
4284,G1,688.0,19/40,56,40.0
4285,G#3,688.25,0.25,34,40.0
4286,G2,688.25,0.25,58,40.0
4287,E3,688.5,0.25,34,40.0
4288,G1,688.5,19/40,62,40.0
4289,C#3,688.75,0.25,34,40.0
4290,G2,688.75,0.25,57,40.0
4291,D3,689.0,0.25,40,40.0
4292,G1,689.0,1.0,69,40.0
4293,G#3,689.25,0.25,34,40.0
4294,F3,689.5,0.25,34,40.0
4295,G2,689.5,1.0,62,40.0
4296,D3,689.75,0.25,34,40.0
4297,C3,690.0,0.25,39,40.0
4298,B1,690.0,1.0,67,40.0
4299,G#3,690.25,0.25,34,40.0
4300,E-3,690.5,0.25,34,40.0
4301,G2,690.5,0.5,62,40.0
4302,C3,690.75,0.25,34,40.0
4303,C2,691.0,1.0,67,40.0
4304,G2,691.0,0.5,62,40.0
4305,B2,691.0,0.5,34,40.0
4306,D3,691.0,0.5,34,40.0
4307,G3,691.0,0.5,34,40.0
4308,E4,691.5,0.188,55,40.0
4309,G2,691.5,1.0,62,40.0
4310,F4,692.0,0.188,58,40.0
4311,F#1,692.0,1.0,64,40.0
4312,G2,692.5,0.5,62,40.0
4313,E4,692.5,0.188,52,40.0
4314,C#5,692.5,0.188,52,40.0
4315,G1,693.0,1.0,69,40.0
4316,F4,693.0,0.188,56,40.0
4317,D5,693.0,0.188,56,40.0
4318,G2,693.5,1.0,62,40.0
4319,C#5,693.5,0.188,61,40.0
4320,E5,693.5,0.188,61,40.0
4321,B1,694.0,1.0,67,40.0
4322,D5,694.0,0.188,66,40.0
4323,F5,694.0,0.188,66,40.0
4324,G2,694.5,0.5,62,40.0
4325,E5,694.5,0.188,68,40.0
4326,C#6,694.5,0.188,68,40.0
4327,C2,695.0,1.0,67,40.0
4328,G2,695.0,0.5,62,40.0
4329,F5,695.0,0.188,68,40.0
4330,D6,695.0,0.188,68,40.0
4331,G2,695.5,1.0,62,40.0
4332,C#6,695.5,0.188,77,40.0
4333,E6,695.5,0.188,77,40.0
4334,F#1,696.0,1.0,64,40.0
4335,D6,696.0,1.0,82,40.0
4336,F6,696.0,1.0,82,40.0
4337,G2,696.5,0.5,62,40.0
4338,G1,697.0,1.0,69,40.0
4339,D6,697.0,1.0,82,40.0
4340,F6,697.0,1.0,82,40.0
4341,G2,697.5,1.0,62,40.0
4342,C6,698.0,1.0,58,40.0
4343,E-6,698.0,0.125,58,40.0
4344,B1,698.0,1.0,67,40.0
4345,F6,698.125,0.125,54,40.0
4346,E-6,698.25,0.125,54,40.0
4347,F6,698.375,0.125,54,40.0
4348,E-6,698.5,83/1000,59,40.0
4349,G2,698.5,0.5,62,40.0
4350,F6,698.583,83/1000,54,40.0
4351,E-6,698.667,83/1000,54,40.0
4352,D6,698.75,0.125,54,40.0
4353,E-6,698.875,0.125,54,40.0
4354,C2,699.0,1.0,67,40.0
4355,G2,699.0,0.5,62,40.0
4356,B5,699.0,0.188,68,40.0
4357,D6,699.0,0.188,68,40.0
4358,G2,699.5,1.0,62,40.0
4359,C#6,699.5,0.188,77,40.0
4360,E6,699.5,0.188,77,40.0
4361,F#1,700.0,1.0,64,40.0
4362,D6,700.0,1.0,82,40.0
4363,F6,700.0,1.0,82,40.0
4364,G2,700.5,0.5,62,40.0
4365,D6,701.0,1.0,82,40.0
4366,F6,701.0,1.0,82,40.0
4367,C6,702.0,1.0,58,40.0
4368,E-6,702.0,0.125,58,40.0
4369,F6,702.125,0.125,54,40.0
4370,E-6,702.25,0.125,54,40.0
4371,F6,702.375,0.125,54,40.0
4372,E-6,702.5,83/1000,59,40.0
4373,F6,702.583,83/1000,54,40.0
4374,E-6,702.667,83/1000,54,40.0
4375,D6,702.75,0.125,54,40.0
4376,E-6,702.875,0.125,54,40.0
4377,B5,703.0,0.188,68,40.0
4378,D6,703.0,0.188,68,40.0
4379,C#6,703.5,0.188,77,40.0
4380,E6,703.5,0.188,77,40.0
4381,D6,704.0,1.0,82,40.0
4382,F6,704.0,1.0,82,40.0
4383,D6,705.0,1.0,82,40.0
4384,F6,705.0,1.0,82,40.0
4385,C6,706.0,1.0,58,40.0
4386,E-6,706.0,0.125,58,40.0
4387,F6,706.125,0.125,54,40.0
4388,E-6,706.25,0.125,54,40.0
4389,F6,706.375,0.125,54,40.0
4390,E-6,706.5,83/1000,59,40.0
4391,F6,706.583,83/1000,54,40.0
4392,E-6,706.667,83/1000,54,40.0
4393,D6,706.75,0.125,54,40.0
4394,E-6,706.875,0.125,54,40.0
4395,B5,707.0,0.25,58,40.0
4396,D6,707.0,0.25,58,40.0
4397,F6,707.25,0.25,53,40.0
4398,D6,707.5,0.25,54,40.0
4399,C6,707.75,0.25,54,40.0
4400,B5,708.0,0.25,58,40.0
4401,F6,708.25,0.25,53,40.0
4402,D6,708.5,0.25,53,40.0
4403,C6,708.75,0.25,53,40.0
4404,B5,709.0,0.25,58,40.0
4405,F6,709.25,0.25,55,40.0
4406,D6,709.5,0.25,55,40.0
4407,C6,709.75,0.25,55,40.0
4408,B5,710.0,0.25,58,40.0
4409,D6,710.25,0.25,55,40.0
4410,B5,710.5,0.25,55,40.0
4411,G5,710.75,0.25,55,40.0
4412,G#5,711.0,0.25,58,40.0
4413,B-5,711.25,0.25,55,40.0
4414,G#5,711.5,0.25,55,40.0
4415,G5,711.75,0.25,55,40.0
4416,F5,712.0,0.25,58,40.0
4417,G#5,712.25,0.25,55,40.0
4418,F5,712.5,0.25,55,40.0
4419,E-5,712.75,0.25,55,40.0
4420,D5,713.0,0.25,58,40.0
4421,F5,713.25,0.25,54,40.0
4422,D5,713.5,0.25,54,40.0
4423,C5,713.75,0.25,54,40.0
4424,B4,714.0,0.25,58,40.0
4425,D5,714.25,0.25,54,40.0
4426,B4,714.5,0.25,54,40.0
4427,G4,714.75,0.25,54,40.0
4428,G#4,715.0,0.25,58,40.0
4429,B-4,715.25,0.25,55,40.0
4430,G#4,715.5,0.25,55,40.0
4431,G4,715.75,0.25,55,40.0
4432,F4,716.0,0.25,58,40.0
4433,G#4,716.25,0.25,58,40.0
4434,F4,716.5,0.25,55,40.0
4435,E-4,716.75,0.25,55,40.0
4436,D4,717.0,0.25,58,40.0
4437,C2,717.0,19/40,44,40.0
4438,F4,717.25,0.25,55,40.0
4439,C3,717.25,0.25,41,40.0
4440,D4,717.5,0.25,55,40.0
4441,C2,717.5,19/40,44,40.0
4442,C4,717.75,0.25,55,40.0
4443,C3,717.75,0.25,41,40.0
4444,B3,718.0,0.25,58,40.0
4445,C2,718.0,19/40,44,40.0
4446,D4,718.25,0.25,55,40.0
4447,C3,718.25,0.25,41,40.0
4448,B3,718.5,0.25,55,40.0
4449,C2,718.5,19/40,45,40.0
4450,G3,718.75,0.25,55,40.0
4451,C3,718.75,0.25,41,40.0
4452,G#3,719.0,0.25,58,40.0
4453,C2,719.0,19/40,45,40.0
4454,B-3,719.25,0.25,54,40.0
4455,C3,719.25,0.25,46,40.0
4456,G#3,719.5,0.25,54,40.0
4457,C2,719.5,19/40,47,40.0
4458,G3,719.75,0.25,54,40.0
4459,C3,719.75,0.25,47,40.0
4460,F3,720.0,0.25,58,40.0
4461,C2,720.0,19/40,49,40.0
4462,E-3,720.25,0.25,53,40.0
4463,C3,720.25,0.25,50,40.0
4464,D3,720.5,0.25,53,40.0
4465,C2,720.5,19/40,51,40.0
4466,C3,720.75,0.25,53,40.0
4467,C3,720.75,0.25,53,40.0
4468,B2,721.0,0.25,58,40.0
4469,C2,721.0,19/40,55,40.0
4470,C3,721.25,0.25,55,40.0
4471,C3,721.25,0.25,50,40.0
4472,B2,721.5,0.25,55,40.0
4473,C2,721.5,19/40,53,40.0
4474,G#2,721.75,0.25,56,40.0
4475,C3,721.75,0.25,47,40.0
4476,G2,722.0,0.25,58,40.0
4477,C2,722.0,19/40,53,40.0
4478,F2,722.25,0.25,55,40.0
4479,C3,722.25,0.25,47,40.0
4480,E-2,722.5,0.25,55,40.0
4481,C2,722.5,19/40,44,40.0
4482,D2,722.75,0.25,55,40.0
4483,C3,722.75,0.25,40,40.0
4484,C4,723.0,1.5,50,40.0
4485,C2,723.0,19/40,43,40.0
4486,C3,723.25,0.25,45,40.0
4487,C2,723.5,19/40,46,40.0
4488,C3,723.75,0.25,47,40.0
4489,C2,724.0,19/40,48,40.0
4490,C3,724.25,0.25,50,40.0
4491,C2,724.5,19/40,51,40.0
4492,B-3,724.5,0.188,52,40.0
4493,E4,724.5,0.188,52,40.0
4494,C3,724.75,0.25,53,40.0
4495,C2,725.0,19/40,55,40.0
4496,G#3,725.0,0.188,54,40.0
4497,F4,725.0,0.188,54,40.0
4498,C3,725.25,0.25,50,40.0
4499,C2,725.5,19/40,53,40.0
4500,E4,725.5,0.188,56,40.0
4501,G4,725.5,0.188,56,40.0
4502,C3,725.75,0.25,47,40.0
4503,D2,726.0,19/40,55,40.0
4504,F4,726.0,0.188,57,40.0
4505,G#4,726.0,0.188,57,40.0
4506,D3,726.25,0.25,50,40.0
4507,D2,726.5,19/40,55,40.0
4508,D4,726.5,0.188,59,40.0
4509,B4,726.5,0.188,59,40.0
4510,D3,726.75,0.25,51,40.0
4511,E-2,727.0,19/40,55,40.0
4512,E-4,727.0,0.188,61,40.0
4513,C5,727.0,0.188,61,40.0
4514,E-3,727.25,0.25,55,40.0
4515,E-2,727.5,19/40,55,40.0
4516,E4,727.5,1.0,55,40.0
4517,C5,727.5,1.0,55,40.0
4518,E-3,727.75,0.25,55,40.0
4519,F2,728.0,19/40,55,40.0
4520,F3,728.25,0.25,53,40.0
4521,F2,728.5,19/40,55,40.0
4522,B-4,728.5,0.188,51,40.0
4523,E5,728.5,0.188,51,40.0
4524,F3,728.75,0.25,55,40.0
4525,G2,729.0,19/40,56,40.0
4526,G#4,729.0,0.188,53,40.0
4527,F5,729.0,0.188,53,40.0
4528,G3,729.25,0.25,56,40.0
4529,G2,729.5,19/40,57,40.0
4530,E5,729.5,0.188,55,40.0
4531,G5,729.5,0.188,55,40.0
4532,G3,729.75,0.25,57,40.0
4533,G#2,730.0,19/40,58,40.0
4534,F5,730.0,0.188,57,40.0
4535,G#5,730.0,0.188,57,40.0
4536,G#3,730.25,0.25,59,40.0
4537,G#2,730.5,19/40,59,40.0
4538,D5,730.5,0.188,59,40.0
4539,B5,730.5,0.188,59,40.0
4540,G#3,730.75,0.25,60,40.0
4541,F#2,731.0,19/40,60,40.0
4542,C5,731.0,1.0,56,40.0
4543,G5,731.0,1.0,56,40.0
4544,E-5,731.0,1.0,56,40.0
4545,C6,731.0,1.0,56,40.0
4546,F#3,731.25,0.25,55,40.0
4547,F#2,731.5,19/40,61,40.0
4548,F#3,731.75,0.25,55,40.0
4549,G2,732.0,19/40,58,40.0
4550,G4,732.0,1.0,58,40.0
4551,B4,732.0,1.0,58,40.0
4552,F5,732.0,1.0,58,40.0
4553,G5,732.0,1.0,58,40.0
4554,G3,732.25,0.25,55,40.0
4555,G2,732.5,19/40,58,40.0
4556,G3,732.75,0.25,55,40.0
4557,C2,733.0,19/40,48,40.0
4558,G4,733.0,1.0,60,40.0
4559,C5,733.0,1.0,60,40.0
4560,E-5,733.0,1.0,60,40.0
4561,C3,733.25,0.25,45,40.0
4562,C2,733.5,19/40,44,40.0
4563,C3,733.75,0.25,41,40.0
4564,C2,734.0,19/40,44,40.0
4565,F4,734.0,1.0,64,40.0
4566,G#4,734.0,1.0,64,40.0
4567,D5,734.0,1.0,64,40.0
4568,C3,734.25,0.25,40,40.0
4569,C2,734.5,19/40,44,40.0
4570,C3,734.75,0.25,41,40.0
4571,G4,735.0,1.0,74,40.0
4572,C2,735.0,19/40,44,40.0
4573,E-4,735.0,2.0,68,40.0
4574,C5,735.0,2.0,68,40.0
4575,C3,735.25,0.25,46,40.0
4576,C2,735.5,19/40,47,40.0
4577,C3,735.75,0.25,47,40.0
4578,F#4,736.0,1.0,74,40.0
4579,C2,736.0,19/40,49,40.0
4580,C3,736.25,0.25,50,40.0
4581,C2,736.5,19/40,51,40.0
4582,C3,736.75,0.25,53,40.0
4583,C2,737.0,19/40,55,40.0
4584,C3,737.25,0.25,50,40.0
4585,C2,737.5,19/40,53,40.0
4586,C3,737.75,0.25,47,40.0
4587,A4,738.0,1.0,77,40.0
4588,C2,738.0,19/40,53,40.0
4589,E-4,738.0,1.0,68,40.0
4590,C5,738.0,1.0,68,40.0
4591,C3,738.25,0.25,47,40.0
4592,C2,738.5,19/40,44,40.0
4593,C3,738.75,0.25,40,40.0
4594,C2,739.0,19/40,43,40.0
4595,D4,739.0,1.0,66,40.0
4596,F4,739.0,1.0,66,40.0
4597,B4,739.0,1.0,66,40.0
4598,C3,739.25,0.25,45,40.0
4599,C2,739.5,19/40,46,40.0
4600,C3,739.75,0.25,47,40.0
4601,C2,740.0,19/40,48,40.0
4602,C4,740.0,0.188,71,40.0
4603,E-4,740.0,0.188,71,40.0
4604,C5,740.0,0.188,71,40.0
4605,C3,740.25,0.25,50,40.0
4606,C4,740.5,1.0,67,40.0
4607,C2,740.5,19/40,51,40.0
4608,C3,740.75,0.25,53,40.0
4609,C2,741.0,19/40,55,40.0
4610,C3,741.25,0.25,50,40.0
4611,C2,741.5,19/40,53,40.0
4612,B-3,741.5,0.188,52,40.0
4613,E4,741.5,0.188,52,40.0
4614,C3,741.75,0.25,47,40.0
4615,C2,742.0,19/40,55,40.0
4616,G#3,742.0,0.188,54,40.0
4617,F4,742.0,0.188,54,40.0
4618,C3,742.25,0.25,50,40.0
4619,C2,742.5,19/40,55,40.0
4620,E4,742.5,0.188,55,40.0
4621,G4,742.5,0.188,55,40.0
4622,C3,742.75,0.25,51,40.0
4623,C#2,743.0,19/40,55,40.0
4624,F4,743.0,0.188,57,40.0
4625,G#4,743.0,0.188,57,40.0
4626,C#3,743.25,0.25,55,40.0
4627,C#2,743.5,19/40,55,40.0
4628,D4,743.5,0.188,59,40.0
4629,B4,743.5,0.188,59,40.0
4630,C#3,743.75,0.25,55,40.0
4631,E-2,744.0,19/40,55,40.0
4632,E-4,744.0,0.188,61,40.0
4633,C5,744.0,0.188,61,40.0
4634,E-3,744.25,0.25,53,40.0
4635,E-2,744.5,19/40,55,40.0
4636,E4,744.5,1.0,55,40.0
4637,C5,744.5,1.0,55,40.0
4638,E-3,744.75,0.25,55,40.0
4639,F2,745.0,19/40,56,40.0
4640,F3,745.25,0.25,56,40.0
4641,F2,745.5,19/40,57,40.0
4642,B-4,745.5,0.188,51,40.0
4643,E5,745.5,0.188,51,40.0
4644,F3,745.75,0.25,57,40.0
4645,F#2,746.0,19/40,58,40.0
4646,G#4,746.0,0.188,53,40.0
4647,F5,746.0,0.188,53,40.0
4648,F#3,746.25,0.25,59,40.0
4649,F#2,746.5,19/40,59,40.0
4650,E5,746.5,0.188,55,40.0
4651,G5,746.5,0.188,55,40.0
4652,F#3,746.75,0.25,60,40.0
4653,G#2,747.0,19/40,60,40.0
4654,F5,747.0,0.188,57,40.0
4655,G#5,747.0,0.188,57,40.0
4656,G#3,747.25,0.25,55,40.0
4657,G#2,747.5,19/40,61,40.0
4658,D5,747.5,0.188,59,40.0
4659,B5,747.5,0.188,59,40.0
4660,G#3,747.75,0.25,55,40.0
4661,G#2,748.0,19/40,58,40.0
4662,C5,748.0,1.0,56,40.0
4663,G5,748.0,1.0,56,40.0
4664,E-5,748.0,1.0,56,40.0
4665,C6,748.0,1.0,56,40.0
4666,G#3,748.25,0.25,55,40.0
4667,G#2,748.5,19/40,58,40.0
4668,G#3,748.75,0.25,55,40.0
4669,G#2,749.0,19/40,52,40.0
4670,G#4,749.0,1.0,60,40.0
4671,E-5,749.0,1.0,60,40.0
4672,G#5,749.0,1.0,60,40.0
4673,G#3,749.25,0.25,45,40.0
4674,G#2,749.5,19/40,53,40.0
4675,G#3,749.75,0.25,47,40.0
4676,D2,750.0,19/40,55,40.0
4677,G#4,750.0,1.0,60,40.0
4678,C#5,750.0,1.0,60,40.0
4679,F5,750.0,1.0,60,40.0
4680,D3,750.25,0.25,50,40.0
4681,D2,750.5,19/40,55,40.0
4682,D3,750.75,0.25,51,40.0
4683,E-2,751.0,19/40,55,40.0
4684,F#4,751.0,1.0,64,40.0
4685,C5,751.0,1.0,64,40.0
4686,E-5,751.0,1.0,64,40.0
4687,E-3,751.25,0.25,55,40.0
4688,E-2,751.5,19/40,55,40.0
4689,E-3,751.75,0.25,55,40.0
4690,F2,752.0,19/40,55,40.0
4691,F4,752.0,1.0,70,40.0
4692,G#4,752.0,1.0,70,40.0
4693,C#5,752.0,1.0,70,40.0
4694,F3,752.25,0.25,53,40.0
4695,F2,752.5,19/40,55,40.0
4696,F3,752.75,0.25,55,40.0
4697,F#2,753.0,19/40,56,40.0
4698,B-4,753.0,1.0,74,40.0
4699,F#4,753.0,1.0,74,40.0
4700,C#4,753.0,1.0,74,40.0
4701,F#3,753.25,0.25,56,40.0
4702,F#2,753.5,19/40,57,40.0
4703,F#3,753.75,0.25,57,40.0
4704,G#4,754.0,2.0,77,40.0
4705,G#2,754.0,19/40,58,40.0
4706,C#4,754.0,1.0,74,40.0
4707,F4,754.0,1.0,74,40.0
4708,G#3,754.25,0.25,59,40.0
4709,G#2,754.5,19/40,59,40.0
4710,G#3,754.75,0.25,60,40.0
4711,B-2,755.0,19/40,60,40.0
4712,C4,755.0,1.0,74,40.0
4713,E-4,755.0,1.0,74,40.0
4714,B-3,755.25,0.25,55,40.0
4715,B-2,755.5,19/40,61,40.0
4716,B-3,755.75,0.25,55,40.0
4717,B-2,756.0,19/40,58,40.0
4718,D4,756.0,1.0,54,40.0
4719,F4,756.0,1.0,54,40.0
4720,B-4,756.0,1.0,54,40.0
4721,B-3,756.25,0.25,55,40.0
4722,B-2,756.5,19/40,58,40.0
4723,B-3,756.75,0.25,55,40.0
4724,B-2,757.0,19/40,53,40.0
4725,B-4,757.0,1.0,60,40.0
4726,F5,757.0,1.0,60,40.0
4727,B-5,757.0,1.0,60,40.0
4728,B-3,757.25,0.25,46,40.0
4729,B-2,757.5,19/40,50,40.0
4730,B-3,757.75,0.25,47,40.0
4731,E2,758.0,19/40,55,40.0
4732,B-4,758.0,1.0,60,40.0
4733,E-5,758.0,1.0,60,40.0
4734,F#5,758.0,1.0,60,40.0
4735,E3,758.25,0.25,50,40.0
4736,E2,758.5,19/40,55,40.0
4737,E3,758.75,0.25,51,40.0
4738,F2,759.0,19/40,55,40.0
4739,G#4,759.0,1.0,64,40.0
4740,D5,759.0,1.0,64,40.0
4741,F5,759.0,1.0,64,40.0
4742,F3,759.25,0.25,55,40.0
4743,F2,759.5,19/40,55,40.0
4744,F3,759.75,0.25,55,40.0
4745,G2,760.0,19/40,55,40.0
4746,F#4,760.0,1.0,70,40.0
4747,B-4,760.0,1.0,70,40.0
4748,E-5,760.0,1.0,70,40.0
4749,G3,760.25,0.25,53,40.0
4750,G2,760.5,19/40,55,40.0
4751,G3,760.75,0.25,55,40.0
4752,G#2,761.0,19/40,56,40.0
4753,E-4,761.0,1.0,74,40.0
4754,B4,761.0,1.0,74,40.0
4755,G#4,761.0,1.0,74,40.0
4756,G#3,761.25,0.25,56,40.0
4757,G#2,761.5,19/40,57,40.0
4758,G#3,761.75,0.25,57,40.0
4759,B-4,762.0,2.0,77,40.0
4760,B-2,762.0,19/40,58,40.0
4761,E-4,762.0,1.0,74,40.0
4762,F#4,762.0,1.0,74,40.0
4763,B-3,762.25,0.25,59,40.0
4764,B-2,762.5,19/40,59,40.0
4765,B-3,762.75,0.25,60,40.0
4766,C3,763.0,19/40,60,40.0
4767,D4,763.0,1.0,74,40.0
4768,F4,763.0,1.0,74,40.0
4769,C4,763.25,0.25,55,40.0
4770,C3,763.5,19/40,61,40.0
4771,C4,763.75,0.25,55,40.0
4772,C#3,764.0,19/40,58,40.0
4773,E4,764.0,1.0,54,40.0
4774,G4,764.0,1.0,54,40.0
4775,C5,764.0,1.0,54,40.0
4776,C#4,764.25,0.25,55,40.0
4777,C#3,764.5,19/40,58,40.0
4778,C#4,764.75,0.25,55,40.0
4779,C5,765.0,1.0,60,40.0
4780,G5,765.0,1.0,60,40.0
4781,C6,765.0,1.0,60,40.0
4782,C3,765.0,0.5,58,40.0
4783,C4,765.0,0.5,58,40.0
4784,C5,766.0,1.0,60,40.0
4785,F5,766.0,1.0,60,40.0
4786,G#5,766.0,1.0,60,40.0
4787,B-4,767.0,1.0,64,40.0
4788,E5,767.0,1.0,64,40.0
4789,G5,767.0,1.0,64,40.0
4790,G#4,768.0,1.0,70,40.0
4791,C5,768.0,1.0,70,40.0
4792,F5,768.0,1.0,70,40.0
4793,C4,769.0,2.0,44,40.0
4794,C#5,769.0,1.0,74,40.0
4795,F4,769.0,1.0,74,40.0
4796,F4,769.5,19/40,38,40.0
4797,G#4,769.5,19/40,38,40.0
4798,F4,770.0,1.0,76,40.0
4799,C5,770.0,1.0,76,40.0
4800,F4,770.0,19/40,38,40.0
4801,G#4,770.0,19/40,38,40.0
4802,F4,770.5,19/40,38,40.0
4803,G#4,770.5,19/40,38,40.0
4804,C4,771.0,2.0,44,40.0
4805,F4,771.0,1.0,74,40.0
4806,B4,771.0,1.0,74,40.0
4807,F4,771.5,19/40,38,40.0
4808,G#4,771.5,19/40,38,40.0
4809,E4,772.0,0.5,69,40.0
4810,C5,772.0,0.5,69,40.0
4811,F4,772.0,19/40,38,40.0
4812,G#4,772.0,19/40,38,40.0
4813,B3,772.5,0.5,50,40.0
4814,F4,772.5,19/40,38,40.0
4815,G#4,772.5,19/40,38,40.0
4816,C4,773.0,0.5,59,40.0
4817,C4,773.0,2.0,44,40.0
4818,B3,773.5,0.5,56,40.0
4819,F4,773.5,19/40,38,40.0
4820,G#4,773.5,19/40,38,40.0
4821,C4,774.0,0.5,57,40.0
4822,F4,774.0,19/40,38,40.0
4823,G#4,774.0,19/40,38,40.0
4824,B3,774.5,0.5,49,40.0
4825,F4,774.5,19/40,38,40.0
4826,G#4,774.5,19/40,38,40.0
4827,C4,775.0,0.5,57,40.0
4828,C4,775.0,2.0,44,40.0
4829,B3,775.5,0.5,51,40.0
4830,F4,775.5,19/40,38,40.0
4831,G#4,775.5,19/40,38,40.0
4832,F4,776.0,19/40,38,40.0
4833,G#4,776.0,19/40,38,40.0
4834,C3,776.5,0.25,55,40.0
4835,F4,776.5,19/40,38,40.0
4836,G#4,776.5,19/40,38,40.0
4837,F3,777.0,0.25,58,40.0
4838,C4,777.0,2.0,44,40.0
4839,G3,777.5,0.25,61,40.0
4840,G4,777.5,19/40,38,40.0
4841,B-4,777.5,19/40,38,40.0
4842,G#3,778.0,0.25,64,40.0
4843,G4,778.0,19/40,38,40.0
4844,B-4,778.0,19/40,38,40.0
4845,C5,778.5,0.25,62,40.0
4846,G4,778.5,19/40,38,40.0
4847,B-4,778.5,19/40,38,40.0
4848,F5,779.0,0.25,64,40.0
4849,C4,779.0,2.0,44,40.0
4850,G5,779.5,0.25,66,40.0
4851,G4,779.5,19/40,38,40.0
4852,B-4,779.5,19/40,38,40.0
4853,C5,779.875,0.125,65,40.0
4854,G#5,780.0,1.5,75,40.0
4855,G4,780.0,19/40,38,40.0
4856,B-4,780.0,19/40,38,40.0
4857,G4,780.5,19/40,38,40.0
4858,B-4,780.5,19/40,38,40.0
4859,C4,781.0,2.0,44,40.0
4860,F5,781.5,0.5,63,40.0
4861,G4,781.5,19/40,38,40.0
4862,B-4,781.5,19/40,38,40.0
4863,C5,781.875,0.125,60,40.0
4864,G#5,782.0,1.5,71,40.0
4865,G4,782.0,19/40,38,40.0
4866,B-4,782.0,19/40,38,40.0
4867,G4,782.5,19/40,38,40.0
4868,B-4,782.5,19/40,38,40.0
4869,C4,783.0,2.0,44,40.0
4870,F5,783.5,0.5,58,40.0
4871,G4,783.5,19/40,38,40.0
4872,B-4,783.5,19/40,38,40.0
4873,E5,784.0,0.5,60,40.0
4874,G4,784.0,19/40,38,40.0
4875,B-4,784.0,19/40,38,40.0
4876,C3,784.5,0.25,57,40.0
4877,G4,784.5,19/40,38,40.0
4878,B-4,784.5,19/40,38,40.0
4879,G3,785.0,0.25,60,40.0
4880,C4,785.0,2.0,44,40.0
4881,G#3,785.5,0.25,63,40.0
4882,F4,785.5,19/40,38,40.0
4883,G#4,785.5,19/40,38,40.0
4884,B-3,786.0,0.25,66,40.0
4885,F4,786.0,19/40,38,40.0
4886,G#4,786.0,19/40,38,40.0
4887,C5,786.5,0.5,59,40.0
4888,F4,786.5,19/40,38,40.0
4889,G#4,786.5,19/40,38,40.0
4890,B-5,787.0,0.5,62,40.0
4891,C4,787.0,2.0,44,40.0
4892,G#5,787.5,0.5,65,40.0
4893,F4,787.5,19/40,38,40.0
4894,G#4,787.5,19/40,38,40.0
4895,G#5,788.0,0.125,60,40.0
4896,F4,788.0,19/40,38,40.0
4897,G#4,788.0,19/40,38,40.0
4898,B-5,788.125,0.125,60,40.0
4899,G#5,788.25,0.25,67,40.0
4900,G5,788.5,0.5,60,40.0
4901,F4,788.5,19/40,38,40.0
4902,G#4,788.5,19/40,38,40.0
4903,G5,789.0,0.125,60,40.0
4904,G#3,789.0,2.0,44,40.0
4905,G#5,789.125,0.125,60,40.0
4906,G5,789.25,0.25,67,40.0
4907,F5,789.5,0.5,60,40.0
4908,C4,789.5,19/40,38,40.0
4909,F4,789.5,19/40,38,40.0
4910,F5,790.0,0.125,60,40.0
4911,C4,790.0,19/40,38,40.0
4912,F4,790.0,19/40,38,40.0
4913,G5,790.125,0.125,60,40.0
4914,F5,790.25,0.25,66,40.0
4915,E5,790.5,0.5,60,40.0
4916,C4,790.5,19/40,38,40.0
4917,F4,790.5,19/40,38,40.0
4918,D5,791.0,0.25,60,40.0
4919,G#3,791.0,2.0,44,40.0
4920,E5,791.5,0.25,60,40.0
4921,C4,791.5,19/40,38,40.0
4922,F4,791.5,19/40,38,40.0
4923,F5,792.0,0.5,60,40.0
4924,C4,792.0,19/40,38,40.0
4925,F4,792.0,19/40,38,40.0
4926,C3,792.5,0.25,55,40.0
4927,C4,792.5,19/40,38,40.0
4928,F4,792.5,19/40,38,40.0
4929,F3,793.0,0.25,58,40.0
4930,G3,793.0,2.0,44,40.0
4931,G3,793.5,0.25,61,40.0
4932,D4,793.5,19/40,38,40.0
4933,F4,793.5,19/40,38,40.0
4934,G#3,794.0,0.25,64,40.0
4935,D4,794.0,19/40,38,40.0
4936,F4,794.0,19/40,38,40.0
4937,C5,794.5,0.25,62,40.0
4938,D4,794.5,19/40,38,40.0
4939,F4,794.5,19/40,38,40.0
4940,F5,795.0,0.25,64,40.0
4941,G3,795.0,2.0,44,40.0
4942,G#5,795.5,0.25,66,40.0
4943,D4,795.5,19/40,38,40.0
4944,F4,795.5,19/40,38,40.0
4945,C5,795.875,0.125,65,40.0
4946,C6,796.0,1.5,75,40.0
4947,D4,796.0,19/40,38,40.0
4948,F4,796.0,19/40,38,40.0
4949,D4,796.5,19/40,38,40.0
4950,F4,796.5,19/40,38,40.0
4951,G3,797.0,2.0,44,40.0
4952,F5,797.5,333/1000,63,40.0
4953,D4,797.5,19/40,38,40.0
4954,F4,797.5,19/40,38,40.0
4955,F5,797.875,0.125,60,40.0
4956,F6,798.0,1.5,71,40.0
4957,D4,798.0,19/40,38,40.0
4958,F4,798.0,19/40,38,40.0
4959,D4,798.5,19/40,38,40.0
4960,F4,798.5,19/40,38,40.0
4961,G3,799.0,2.0,44,40.0
4962,C6,799.5,0.5,58,40.0
4963,D4,799.5,19/40,38,40.0
4964,F4,799.5,19/40,38,40.0
4965,B5,800.0,0.5,60,40.0
4966,D4,800.0,19/40,38,40.0
4967,F4,800.0,19/40,38,40.0
4968,G2,800.5,0.25,57,40.0
4969,D4,800.5,19/40,38,40.0
4970,F4,800.5,19/40,38,40.0
4971,D3,801.0,0.25,60,40.0
4972,G3,801.0,2.0,44,40.0
4973,E-3,801.5,0.25,63,40.0
4974,C4,801.5,19/40,38,40.0
4975,E-4,801.5,19/40,38,40.0
4976,F3,802.0,0.25,66,40.0
4977,C4,802.0,19/40,38,40.0
4978,E-4,802.0,19/40,38,40.0
4979,G4,802.5,0.5,59,40.0
4980,C4,802.5,19/40,38,40.0
4981,E-4,802.5,19/40,38,40.0
4982,F5,803.0,0.5,62,40.0
4983,G3,803.0,2.0,44,40.0
4984,E-5,803.5,0.5,65,40.0
4985,C4,803.5,19/40,38,40.0
4986,E-4,803.5,19/40,38,40.0
4987,E-5,804.0,0.125,60,40.0
4988,C4,804.0,19/40,38,40.0
4989,E-4,804.0,19/40,38,40.0
4990,F5,804.125,0.125,60,40.0
4991,E-5,804.25,0.25,67,40.0
4992,D5,804.5,0.5,60,40.0
4993,C4,804.5,19/40,38,40.0
4994,E-4,804.5,19/40,38,40.0
4995,D5,805.0,0.125,60,40.0
4996,G3,805.0,2.0,44,40.0
4997,E-5,805.125,0.125,60,40.0
4998,D5,805.25,0.25,67,40.0
4999,C5,805.5,0.5,60,40.0
5000,C4,805.5,19/40,38,40.0
5001,E-4,805.5,19/40,38,40.0
5002,C5,806.0,0.125,60,40.0
5003,C4,806.0,19/40,38,40.0
5004,E-4,806.0,19/40,38,40.0
5005,D5,806.125,0.125,60,40.0
5006,C5,806.25,0.25,66,40.0
5007,B4,806.5,0.5,60,40.0
5008,C4,806.5,19/40,38,40.0
5009,E-4,806.5,19/40,38,40.0
5010,A4,807.0,0.25,60,40.0
5011,G3,807.0,2.0,44,40.0
5012,B4,807.5,0.25,60,40.0
5013,C4,807.5,19/40,38,40.0
5014,E-4,807.5,19/40,38,40.0
5015,C5,808.0,0.5,60,40.0
5016,C4,808.0,19/40,38,40.0
5017,E-4,808.0,19/40,38,40.0
5018,G2,808.5,0.25,55,40.0
5019,C4,808.5,19/40,38,40.0
5020,E-4,808.5,19/40,38,40.0
5021,C3,809.0,0.25,58,40.0
5022,G3,809.0,2.0,44,40.0
5023,D3,809.5,0.25,61,40.0
5024,D4,809.5,19/40,38,40.0
5025,F4,809.5,19/40,38,40.0
5026,E-3,810.0,0.25,64,40.0
5027,D4,810.0,19/40,38,40.0
5028,F4,810.0,19/40,38,40.0
5029,G5,810.5,0.25,62,40.0
5030,D4,810.5,19/40,38,40.0
5031,F4,810.5,19/40,38,40.0
5032,C6,811.0,0.25,64,40.0
5033,G3,811.0,2.0,44,40.0
5034,D6,811.5,0.25,66,40.0
5035,D4,811.5,19/40,38,40.0
5036,F4,811.5,19/40,38,40.0
5037,G5,811.875,0.125,65,40.0
5038,E-6,812.0,1.5,75,40.0
5039,D4,812.0,19/40,38,40.0
5040,F4,812.0,19/40,38,40.0
5041,D4,812.5,19/40,38,40.0
5042,F4,812.5,19/40,38,40.0
5043,G3,813.0,2.0,44,40.0
5044,C6,813.5,0.5,63,40.0
5045,D4,813.5,19/40,38,40.0
5046,F4,813.5,19/40,38,40.0
5047,G5,813.875,0.125,60,40.0
5048,E-6,814.0,1.5,71,40.0
5049,D4,814.0,19/40,38,40.0
5050,F4,814.0,19/40,38,40.0
5051,D4,814.5,19/40,38,40.0
5052,F4,814.5,19/40,38,40.0
5053,G3,815.0,2.0,44,40.0
5054,C6,815.5,0.5,58,40.0
5055,D4,815.5,19/40,38,40.0
5056,F4,815.5,19/40,38,40.0
5057,B5,816.0,0.5,60,40.0
5058,D4,816.0,19/40,38,40.0
5059,F4,816.0,19/40,38,40.0
5060,G2,816.5,0.25,57,40.0
5061,D4,816.5,19/40,38,40.0
5062,F4,816.5,19/40,38,40.0
5063,D3,817.0,0.25,60,40.0
5064,C4,817.0,2.0,44,40.0
5065,E-3,817.5,0.25,63,40.0
5066,E-4,817.5,19/40,37,40.0
5067,G4,817.5,19/40,37,40.0
5068,F3,818.0,0.25,66,40.0
5069,E-4,818.0,19/40,37,40.0
5070,G4,818.0,19/40,37,40.0
5071,G5,818.5,0.5,59,40.0
5072,E-4,818.5,19/40,36,40.0
5073,G4,818.5,19/40,36,40.0
5074,F6,819.0,0.5,62,40.0
5075,F3,819.0,2.0,42,40.0
5076,E-6,819.5,0.5,65,40.0
5077,E-4,819.5,19/40,36,40.0
5078,F4,819.5,19/40,36,40.0
5079,E-6,820.0,0.125,60,40.0
5080,E-4,820.0,19/40,35,40.0
5081,F4,820.0,19/40,35,40.0
5082,F6,820.125,0.125,60,40.0
5083,E-6,820.25,0.25,67,40.0
5084,D6,820.5,0.5,60,40.0
5085,E-4,820.5,19/40,35,40.0
5086,F4,820.5,19/40,35,40.0
5087,D6,821.0,0.125,60,40.0
5088,B-3,821.0,2.0,40,40.0
5089,E-6,821.125,0.125,60,40.0
5090,D6,821.25,0.25,67,40.0
5091,C6,821.5,0.5,60,40.0
5092,C#4,821.5,19/40,34,40.0
5093,F4,821.5,19/40,34,40.0
5094,C6,822.0,0.125,60,40.0
5095,C#4,822.0,19/40,34,40.0
5096,F4,822.0,19/40,34,40.0
5097,D6,822.125,0.125,60,40.0
5098,C6,822.25,0.25,66,40.0
5099,B5,822.5,0.5,60,40.0
5100,C#4,822.5,19/40,33,40.0
5101,F4,822.5,19/40,33,40.0
5102,A5,823.0,0.25,60,40.0
5103,E-3,823.0,2.0,38,40.0
5104,B5,823.5,0.25,60,40.0
5105,C#4,823.5,19/40,33,40.0
5106,E-4,823.5,19/40,33,40.0
5107,D6,824.0,0.125,60,40.0
5108,C#4,824.0,19/40,32,40.0
5109,E-4,824.0,19/40,32,40.0
5110,E-6,824.125,0.125,60,40.0
5111,D6,824.25,0.25,67,40.0
5112,C6,824.5,0.5,59,40.0
5113,C#4,824.5,19/40,32,40.0
5114,E-4,824.5,19/40,32,40.0
5115,C6,825.0,0.125,58,40.0
5116,G#3,825.0,2.0,36,40.0
5117,D6,825.125,0.125,58,40.0
5118,C6,825.25,0.25,65,40.0
5119,B-5,825.5,0.5,58,40.0
5120,C4,825.5,19/40,31,40.0
5121,E-4,825.5,19/40,31,40.0
5122,B-5,826.0,0.125,57,40.0
5123,C4,826.0,19/40,31,40.0
5124,E-4,826.0,19/40,31,40.0
5125,C6,826.125,0.125,57,40.0
5126,B-5,826.25,0.25,63,40.0
5127,A5,826.5,0.5,57,40.0
5128,C4,826.5,19/40,30,40.0
5129,E-4,826.5,19/40,30,40.0
5130,G5,827.0,0.25,56,40.0
5131,G#3,827.0,2.0,35,40.0
5132,A5,827.5,0.25,55,40.0
5133,C4,827.5,19/40,30,40.0
5134,E-4,827.5,19/40,30,40.0
5135,C6,828.0,0.125,55,40.0
5136,C4,828.0,19/40,29,40.0
5137,E-4,828.0,19/40,29,40.0
5138,C#6,828.125,0.125,55,40.0
5139,C6,828.25,0.25,61,40.0
5140,B-5,828.5,0.5,54,40.0
5141,C4,828.5,19/40,29,40.0
5142,E-4,828.5,19/40,29,40.0
5143,B-5,829.0,0.125,54,40.0
5144,G3,829.0,2.0,30,40.0
5145,C6,829.125,0.125,54,40.0
5146,B-5,829.25,0.25,60,40.0
5147,G#5,829.5,0.5,53,40.0
5148,C4,829.5,19/40,26,40.0
5149,E-4,829.5,19/40,26,40.0
5150,G#5,830.0,0.125,52,40.0
5151,C4,830.0,19/40,26,40.0
5152,E-4,830.0,19/40,26,40.0
5153,B-5,830.125,0.125,52,40.0
5154,G#5,830.25,0.25,57,40.0
5155,G5,830.5,0.5,52,40.0
5156,C4,830.5,19/40,26,40.0
5157,E-4,830.5,19/40,26,40.0
5158,F5,831.0,0.25,51,40.0
5159,G3,831.0,2.0,30,40.0
5160,G5,831.5,0.25,51,40.0
5161,B3,831.5,19/40,26,40.0
5162,D4,831.5,19/40,26,40.0
5163,B-5,832.0,0.125,50,40.0
5164,B3,832.0,19/40,26,40.0
5165,D4,832.0,19/40,26,40.0
5166,C6,832.125,0.125,50,40.0
5167,B-5,832.25,0.25,55,40.0
5168,G#5,832.5,0.5,49,40.0
5169,B3,832.5,19/40,26,40.0
5170,D4,832.5,19/40,26,40.0
5171,G#5,833.0,0.125,49,40.0
5172,C3,833.0,2.0,36,40.0
5173,B-5,833.125,0.125,48,40.0
5174,G#5,833.25,0.25,54,40.0
5175,G3,833.25,0.25,24,40.0
5176,G5,833.5,0.5,48,40.0
5177,E-3,833.5,0.25,26,40.0
5178,G3,833.75,0.25,24,40.0
5179,G5,834.0,0.125,48,40.0
5180,E-3,834.0,0.25,32,40.0
5181,G#5,834.125,0.125,47,40.0
5182,G5,834.25,0.25,52,40.0
5183,G3,834.25,0.25,25,40.0
5184,F#5,834.5,0.5,47,40.0
5185,E-3,834.5,0.25,28,40.0
5186,G3,834.75,0.25,26,40.0
5187,F#5,835.0,0.25,46,40.0
5188,E-3,835.0,0.25,34,40.0
5189,C3,835.0,1.0,36,40.0
5190,G3,835.25,0.25,26,40.0
5191,F#5,835.5,0.25,46,40.0
5192,E-3,835.5,0.25,29,40.0
5193,G3,835.75,0.25,26,40.0
5194,G#5,836.0,0.125,42,40.0
5195,C3,836.0,1.0,36,40.0
5196,B-5,836.125,0.125,42,40.0
5197,G#5,836.25,0.25,46,40.0
5198,G3,836.25,0.25,28,40.0
5199,G5,836.5,0.5,42,40.0
5200,E-3,836.5,0.25,32,40.0
5201,G3,836.75,0.25,28,40.0
5202,G5,837.0,0.25,42,40.0
5203,B-2,837.0,2.0,45,40.0
5204,G3,837.25,0.25,30,40.0
5205,G5,837.5,0.25,42,40.0
5206,E3,837.5,0.25,32,40.0
5207,G3,837.75,0.25,29,40.0
5208,G#5,838.0,0.125,42,40.0
5209,E3,838.0,0.25,38,40.0
5210,B-5,838.125,0.125,42,40.0
5211,G#5,838.25,0.25,46,40.0
5212,G3,838.25,0.25,30,40.0
5213,G5,838.5,0.5,42,40.0
5214,E3,838.5,0.25,33,40.0
5215,G3,838.75,0.25,30,40.0
5216,G5,839.0,0.25,42,40.0
5217,E3,839.0,0.25,38,40.0
5218,B-2,839.0,1.0,45,40.0
5219,G3,839.25,0.25,29,40.0
5220,G5,839.5,0.25,42,40.0
5221,E3,839.5,0.25,32,40.0
5222,G3,839.75,0.25,29,40.0
5223,B-2,840.0,1.0,38,40.0
5224,C4,840.25,0.25,25,40.0
5225,G3,840.25,0.25,30,40.0
5226,E-4,840.5,0.25,29,40.0
5227,E3,840.5,0.25,33,40.0
5228,C4,840.75,0.25,29,40.0
5229,G3,840.75,0.25,29,40.0
5230,C5,841.0,1.0,45,40.0
5231,G#2,841.0,0.188,55,40.0
5232,C4,841.25,0.25,28,40.0
5233,G#3,841.25,0.25,36,40.0
5234,E-4,841.5,0.25,30,40.0
5235,C3,841.5,0.25,39,40.0
5236,C4,841.75,0.25,28,40.0
5237,G#3,841.75,0.25,35,40.0
5238,E-4,842.0,0.25,31,40.0
5239,C5,842.0,1.0,45,40.0
5240,B-2,842.0,0.188,56,40.0
5241,C4,842.25,0.25,30,40.0
5242,B-3,842.25,0.25,36,40.0
5243,E-4,842.5,0.25,32,40.0
5244,C3,842.5,0.25,43,40.0
5245,C4,842.75,0.25,29,40.0
5246,B-3,842.75,0.25,41,40.0
5247,C5,843.0,1.0,50,40.0
5248,G#2,843.0,0.188,58,40.0
5249,C4,843.25,0.25,30,40.0
5250,G#3,843.25,0.25,38,40.0
5251,E-4,843.5,0.25,33,40.0
5252,C3,843.5,0.25,43,40.0
5253,C4,843.75,0.25,32,40.0
5254,G#3,843.75,0.25,38,40.0
5255,G2,844.0,0.188,60,40.0
5256,C#4,844.25,0.25,32,40.0
5257,G3,844.25,0.25,40,40.0
5258,E4,844.5,0.25,36,40.0
5259,C3,844.5,0.25,43,40.0
5260,C#4,844.75,0.25,35,40.0
5261,G3,844.75,0.25,38,40.0
5262,C#5,845.0,1.0,54,40.0
5263,F2,845.0,0.188,63,40.0
5264,C#4,845.25,0.25,33,40.0
5265,F3,845.25,0.25,42,40.0
5266,E4,845.5,0.25,35,40.0
5267,C3,845.5,0.25,45,40.0
5268,C#4,845.75,0.25,32,40.0
5269,F3,845.75,0.25,42,40.0
5270,E4,846.0,0.25,35,40.0
5271,C#5,846.0,1.0,54,40.0
5272,E-2,846.0,0.188,66,40.0
5273,C#4,846.25,0.25,33,40.0
5274,E-3,846.25,0.25,41,40.0
5275,E4,846.5,0.25,35,40.0
5276,C3,846.5,0.25,47,40.0
5277,C#4,846.75,0.25,32,40.0
5278,E-3,846.75,0.25,41,40.0
5279,C#5,847.0,1.0,53,40.0
5280,D2,847.0,0.188,68,40.0
5281,C#4,847.25,0.25,32,40.0
5282,D3,847.25,0.25,45,40.0
5283,E4,847.5,0.25,35,40.0
5284,G2,847.5,0.25,49,40.0
5285,C#4,847.75,0.25,33,40.0
5286,D3,847.75,0.25,43,40.0
5287,C5,848.0,0.188,66,40.0
5288,C2,848.0,0.188,70,40.0
5289,C4,848.25,0.25,41,40.0
5290,C3,848.25,0.25,45,40.0
5291,F4,848.5,0.25,45,40.0
5292,G2,848.5,0.25,51,40.0
5293,C4,848.75,0.25,42,40.0
5294,C3,848.75,0.25,43,40.0
5295,E5,849.0,0.188,67,40.0
5296,B1,849.0,0.188,70,40.0
5297,E4,849.25,0.25,43,40.0
5298,B2,849.25,0.25,47,40.0
5299,C5,849.5,0.25,47,40.0
5300,G2,849.5,0.25,53,40.0
5301,E4,849.75,0.25,43,40.0
5302,B2,849.75,0.25,48,40.0
5303,F5,850.0,0.188,71,40.0
5304,B-1,850.0,0.188,72,40.0
5305,F4,850.25,0.25,45,40.0
5306,B-2,850.25,0.25,47,40.0
5307,C5,850.5,0.25,50,40.0
5308,C2,850.5,0.25,53,40.0
5309,F4,850.75,0.25,45,40.0
5310,B-2,850.75,0.25,50,40.0
5311,G5,851.0,0.188,72,40.0
5312,G#1,851.0,0.188,75,40.0
5313,G4,851.25,0.25,47,40.0
5314,G#2,851.25,0.25,50,40.0
5315,C5,851.5,0.25,50,40.0
5316,C2,851.5,0.25,55,40.0
5317,G4,851.75,0.25,47,40.0
5318,G#2,851.75,0.25,50,40.0
5319,G#5,852.0,0.188,74,40.0
5320,F1,852.0,0.188,76,40.0
5321,G#4,852.25,0.25,49,40.0
5322,F2,852.25,0.25,56,40.0
5323,C5,852.5,0.25,54,40.0
5324,C2,852.5,0.25,58,40.0
5325,G#4,852.75,0.25,49,40.0
5326,F2,852.75,0.25,55,40.0
5327,A5,853.0,0.188,80,40.0
5328,G1,853.0,0.5,78,40.0
5329,G2,853.0,0.5,78,40.0
5330,A4,853.25,0.25,50,40.0
5331,C5,853.5,0.25,55,40.0
5332,A4,853.75,0.25,51,40.0
5333,B5,854.0,0.188,84,40.0
5334,B4,854.25,0.25,51,40.0
5335,F5,854.5,0.25,58,40.0
5336,B4,854.75,0.25,53,40.0
5337,C6,855.0,0.188,85,40.0
5338,G3,855.0,0.5,78,40.0
5339,G2,855.0,0.5,78,40.0
5340,C5,855.25,0.25,53,40.0
5341,F5,855.5,0.25,58,40.0
5342,C5,855.75,0.25,54,40.0
5343,D6,856.0,0.188,85,40.0
5344,D5,856.25,0.25,55,40.0
5345,F5,856.5,0.25,63,40.0
5346,D5,856.75,0.25,55,40.0
5347,E6,857.0,0.188,90,40.0
5348,C3,857.0,2.0,45,40.0
5349,E5,857.25,0.25,57,40.0
5350,G3,857.25,0.25,30,40.0
5351,G5,857.5,0.25,62,40.0
5352,E-3,857.5,0.25,32,40.0
5353,E5,857.75,0.25,57,40.0
5354,G3,857.75,0.25,29,40.0
5355,F6,858.0,0.188,89,40.0
5356,E-3,858.0,0.25,38,40.0
5357,F5,858.25,0.25,59,40.0
5358,G3,858.25,0.25,30,40.0
5359,G#5,858.5,0.25,64,40.0
5360,E-3,858.5,0.25,33,40.0
5361,F5,858.75,0.25,59,40.0
5362,G3,858.75,0.25,30,40.0
5363,D6,859.0,0.188,91,40.0
5364,E-3,859.0,0.25,38,40.0
5365,C3,859.0,1.0,45,40.0
5366,F5,859.25,0.25,61,40.0
5367,G3,859.25,0.25,29,40.0
5368,G#5,859.5,0.25,67,40.0
5369,E-3,859.5,0.25,32,40.0
5370,F5,859.75,0.25,61,40.0
5371,G3,859.75,0.25,29,40.0
5372,C3,860.0,1.0,38,40.0
5373,E-5,860.25,0.25,78,40.0
5374,G3,860.25,0.25,30,40.0
5375,G5,860.5,0.25,84,40.0
5376,E-3,860.5,0.25,33,40.0
5377,E-5,860.75,0.25,78,40.0
5378,G3,860.75,0.25,29,40.0
5379,C6,861.0,0.188,88,40.0
5380,B-2,861.0,2.0,45,40.0
5381,E-5,861.25,0.25,78,40.0
5382,G3,861.25,0.25,30,40.0
5383,G5,861.5,0.25,84,40.0
5384,E3,861.5,0.25,32,40.0
5385,E-5,861.75,0.25,76,40.0
5386,G3,861.75,0.25,29,40.0
5387,E3,862.0,0.25,38,40.0
5388,D5,862.25,0.25,78,40.0
5389,G3,862.25,0.25,30,40.0
5390,F5,862.5,0.25,84,40.0
5391,E3,862.5,0.25,33,40.0
5392,D5,862.75,0.25,78,40.0
5393,G3,862.75,0.25,30,40.0
5394,B5,863.0,0.188,88,40.0
5395,E3,863.0,0.25,38,40.0
5396,B-2,863.0,1.0,45,40.0
5397,D5,863.25,0.25,78,40.0
5398,G3,863.25,0.25,29,40.0
5399,F5,863.5,0.25,84,40.0
5400,E3,863.5,0.25,32,40.0
5401,D5,863.75,0.25,76,40.0
5402,G3,863.75,0.25,29,40.0
5403,B-2,864.0,1.0,38,40.0
5404,C4,864.25,0.25,32,40.0
5405,G3,864.25,0.25,30,40.0
5406,E-4,864.5,0.25,36,40.0
5407,E3,864.5,0.25,33,40.0
5408,C4,864.75,0.25,35,40.0
5409,G3,864.75,0.25,29,40.0
5410,C5,865.0,1.0,54,40.0
5411,G#2,865.0,0.188,55,40.0
5412,C4,865.25,0.25,33,40.0
5413,G#3,865.25,0.25,36,40.0
5414,E-4,865.5,0.25,35,40.0
5415,C3,865.5,0.25,39,40.0
5416,C4,865.75,0.25,32,40.0
5417,G#3,865.75,0.25,35,40.0
5418,E-4,866.0,0.25,35,40.0
5419,C5,866.0,1.0,54,40.0
5420,B-2,866.0,0.188,56,40.0
5421,C4,866.25,0.25,33,40.0
5422,B-3,866.25,0.25,36,40.0
5423,E-4,866.5,0.25,35,40.0
5424,C3,866.5,0.25,43,40.0
5425,C4,866.75,0.25,32,40.0
5426,B-3,866.75,0.25,41,40.0
5427,C5,867.0,1.0,53,40.0
5428,G#2,867.0,0.188,58,40.0
5429,C4,867.25,0.25,32,40.0
5430,G#3,867.25,0.25,38,40.0
5431,E-4,867.5,0.25,35,40.0
5432,C3,867.5,0.25,43,40.0
5433,C4,867.75,0.25,33,40.0
5434,G#3,867.75,0.25,38,40.0
5435,G2,868.0,0.188,60,40.0
5436,C#4,868.25,0.25,32,40.0
5437,G3,868.25,0.25,40,40.0
5438,E4,868.5,0.25,36,40.0
5439,C3,868.5,0.25,43,40.0
5440,C#4,868.75,0.25,35,40.0
5441,G3,868.75,0.25,38,40.0
5442,C#5,869.0,1.0,54,40.0
5443,F2,869.0,0.188,63,40.0
5444,C#4,869.25,0.25,33,40.0
5445,F3,869.25,0.25,42,40.0
5446,E4,869.5,0.25,35,40.0
5447,C3,869.5,0.25,45,40.0
5448,C#4,869.75,0.25,32,40.0
5449,F3,869.75,0.25,42,40.0
5450,E4,870.0,0.25,35,40.0
5451,C#5,870.0,1.0,54,40.0
5452,E-2,870.0,0.188,66,40.0
5453,C#4,870.25,0.25,33,40.0
5454,E-3,870.25,0.25,41,40.0
5455,E4,870.5,0.25,35,40.0
5456,C3,870.5,0.25,47,40.0
5457,C#4,870.75,0.25,32,40.0
5458,E-3,870.75,0.25,41,40.0
5459,C#5,871.0,1.0,53,40.0
5460,D2,871.0,0.188,68,40.0
5461,C#4,871.25,0.25,32,40.0
5462,D3,871.25,0.25,45,40.0
5463,E4,871.5,0.25,35,40.0
5464,G2,871.5,0.25,49,40.0
5465,C#4,871.75,0.25,33,40.0
5466,D3,871.75,0.25,43,40.0
5467,C5,872.0,0.188,66,40.0
5468,C2,872.0,0.188,70,40.0
5469,C4,872.25,0.25,41,40.0
5470,C3,872.25,0.25,45,40.0
5471,F4,872.5,0.25,45,40.0
5472,G2,872.5,0.25,51,40.0
5473,C4,872.75,0.25,42,40.0
5474,C3,872.75,0.25,43,40.0
5475,E5,873.0,0.188,67,40.0
5476,B1,873.0,0.188,70,40.0
5477,E4,873.25,0.25,43,40.0
5478,B2,873.25,0.25,47,40.0
5479,C5,873.5,0.25,47,40.0
5480,G2,873.5,0.25,53,40.0
5481,E4,873.75,0.25,43,40.0
5482,B2,873.75,0.25,48,40.0
5483,F5,874.0,0.188,71,40.0
5484,B-1,874.0,0.188,72,40.0
5485,F4,874.25,0.25,45,40.0
5486,B-2,874.25,0.25,47,40.0
5487,C5,874.5,0.25,50,40.0
5488,C2,874.5,0.25,53,40.0
5489,F4,874.75,0.25,45,40.0
5490,B-2,874.75,0.25,50,40.0
5491,G5,875.0,0.188,72,40.0
5492,G#1,875.0,0.188,75,40.0
5493,G4,875.25,0.25,47,40.0
5494,G#2,875.25,0.25,50,40.0
5495,C5,875.5,0.25,50,40.0
5496,C2,875.5,0.25,55,40.0
5497,G4,875.75,0.25,47,40.0
5498,G#2,875.75,0.25,50,40.0
5499,G#5,876.0,0.188,74,40.0
5500,F1,876.0,0.188,76,40.0
5501,G#4,876.25,0.25,49,40.0
5502,F2,876.25,0.25,56,40.0
5503,C5,876.5,0.25,54,40.0
5504,C2,876.5,0.25,58,40.0
5505,G#4,876.75,0.25,49,40.0
5506,F2,876.75,0.25,55,40.0
5507,A5,877.0,0.188,80,40.0
5508,G1,877.0,0.5,78,40.0
5509,G2,877.0,0.5,78,40.0
5510,A4,877.25,0.25,50,40.0
5511,C5,877.5,0.25,55,40.0
5512,A4,877.75,0.25,51,40.0
5513,B5,878.0,0.188,84,40.0
5514,B4,878.25,0.25,51,40.0
5515,F5,878.5,0.25,58,40.0
5516,B4,878.75,0.25,53,40.0
5517,C6,879.0,0.188,85,40.0
5518,G3,879.0,0.5,78,40.0
5519,G2,879.0,0.5,78,40.0
5520,C5,879.25,0.25,53,40.0
5521,F5,879.5,0.25,58,40.0
5522,C5,879.75,0.25,54,40.0
5523,D6,880.0,0.188,85,40.0
5524,D5,880.25,0.25,55,40.0
5525,F5,880.5,0.25,63,40.0
5526,D5,880.75,0.25,55,40.0
5527,E6,881.0,0.188,90,40.0
5528,C3,881.0,0.5,84,40.0
5529,E5,881.25,0.25,57,40.0
5530,G5,881.5,0.25,62,40.0
5531,C4,881.5,19/40,34,40.0
5532,E-4,881.5,19/40,34,40.0
5533,E5,881.75,0.25,57,40.0
5534,F6,882.0,0.188,89,40.0
5535,C4,882.0,19/40,34,40.0
5536,E-4,882.0,19/40,34,40.0
5537,F5,882.25,0.25,59,40.0
5538,G#5,882.5,0.25,64,40.0
5539,C4,882.5,19/40,34,40.0
5540,E-4,882.5,19/40,34,40.0
5541,F5,882.75,0.25,59,40.0
5542,D6,883.0,0.188,91,40.0
5543,G#3,883.0,2.0,34,40.0
5544,F5,883.25,0.25,61,40.0
5545,G#5,883.5,0.25,67,40.0
5546,C4,883.5,19/40,34,40.0
5547,E-4,883.5,19/40,34,40.0
5548,F5,883.75,0.25,61,40.0
5549,C4,884.0,19/40,34,40.0
5550,E-4,884.0,19/40,34,40.0
5551,E-5,884.25,0.25,78,40.0
5552,G5,884.5,0.25,84,40.0
5553,C4,884.5,19/40,34,40.0
5554,E-4,884.5,19/40,34,40.0
5555,E-5,884.75,0.25,78,40.0
5556,C6,885.0,0.188,88,40.0
5557,F3,885.0,2.0,34,40.0
5558,E-5,885.25,0.25,78,40.0
5559,G5,885.5,0.25,84,40.0
5560,D4,885.5,19/40,34,40.0
5561,C4,885.5,19/40,34,40.0
5562,E-5,885.75,0.25,76,40.0
5563,C4,886.0,19/40,34,40.0
5564,D4,886.0,19/40,34,40.0
5565,D5,886.25,0.25,78,40.0
5566,F5,886.5,0.25,84,40.0
5567,C4,886.5,19/40,34,40.0
5568,D4,886.5,19/40,34,40.0
5569,D5,886.75,0.25,78,40.0
5570,B5,887.0,0.188,88,40.0
5571,G3,887.0,2.0,34,40.0
5572,D5,887.25,0.25,78,40.0
5573,F5,887.5,0.25,84,40.0
5574,B3,887.5,19/40,34,40.0
5575,D4,887.5,19/40,34,40.0
5576,D5,887.75,0.25,76,40.0
5577,C5,888.0,0.188,81,40.0
5578,B3,888.0,19/40,34,40.0
5579,D4,888.0,19/40,34,40.0
5580,C6,888.5,1.0,58,40.0
5581,B3,888.5,19/40,34,40.0
5582,D4,888.5,19/40,34,40.0
5583,C3,889.0,2.0,59,40.0
5584,B5,889.5,0.25,46,40.0
5585,E-3,889.5,19/40,44,40.0
5586,C4,889.5,19/40,44,40.0
5587,C6,889.75,0.25,48,40.0
5588,D6,890.0,0.25,49,40.0
5589,E-3,890.0,19/40,44,40.0
5590,C4,890.0,19/40,44,40.0
5591,C6,890.25,0.25,49,40.0
5592,B-5,890.5,0.25,48,40.0
5593,E-3,890.5,19/40,44,40.0
5594,C4,890.5,19/40,44,40.0
5595,G#5,890.75,0.25,47,40.0
5596,G5,891.0,0.25,45,40.0
5597,G#2,891.0,2.0,45,40.0
5598,G#5,891.25,0.25,46,40.0
5599,B-5,891.5,0.25,49,40.0
5600,E-3,891.5,19/40,46,40.0
5601,C3,891.5,19/40,46,40.0
5602,G#3,891.5,19/40,46,40.0
5603,G#5,891.75,0.25,47,40.0
5604,G5,892.0,0.25,49,40.0
5605,E-3,892.0,19/40,46,40.0
5606,C3,892.0,19/40,46,40.0
5607,G#3,892.0,19/40,46,40.0
5608,F5,892.25,0.25,47,40.0
5609,E-5,892.5,0.25,46,40.0
5610,E-3,892.5,19/40,47,40.0
5611,C3,892.5,19/40,47,40.0
5612,G#3,892.5,19/40,47,40.0
5613,D5,892.75,0.25,45,40.0
5614,C#5,893.0,0.25,45,40.0
5615,F2,893.0,2.0,47,40.0
5616,D5,893.25,0.25,45,40.0
5617,E-5,893.5,0.25,47,40.0
5618,D3,893.5,19/40,48,40.0
5619,F3,893.5,19/40,48,40.0
5620,C3,893.5,19/40,48,40.0
5621,D5,893.75,0.25,45,40.0
5622,C5,894.0,0.25,46,40.0
5623,D3,894.0,19/40,48,40.0
5624,C3,894.0,19/40,48,40.0
5625,F3,894.0,19/40,48,40.0
5626,B4,894.25,0.25,46,40.0
5627,G#4,894.5,0.25,45,40.0
5628,D3,894.5,19/40,49,40.0
5629,C3,894.5,19/40,49,40.0
5630,F3,894.5,19/40,49,40.0
5631,G4,894.75,0.25,45,40.0
5632,F#4,895.0,0.25,45,40.0
5633,G2,895.0,2.0,49,40.0
5634,G4,895.25,0.25,42,40.0
5635,G#4,895.5,0.25,46,40.0
5636,D3,895.5,19/40,50,40.0
5637,B2,895.5,19/40,50,40.0
5638,G3,895.5,19/40,50,40.0
5639,F4,895.75,0.25,42,40.0
5640,E-4,896.0,0.188,66,40.0
5641,D3,896.0,19/40,50,40.0
5642,B2,896.0,19/40,50,40.0
5643,G3,896.0,19/40,50,40.0
5644,C5,896.5,1.0,68,40.0
5645,C6,896.5,1.0,68,40.0
5646,D3,896.5,19/40,51,40.0
5647,B2,896.5,19/40,51,40.0
5648,G3,896.5,19/40,51,40.0
5649,C2,897.0,19/40,67,40.0
5650,C3,897.25,0.25,60,40.0
5651,B5,897.5,0.25,61,40.0
5652,C2,897.5,19/40,67,40.0
5653,C6,897.75,0.25,64,40.0
5654,C3,897.75,0.25,59,40.0
5655,D6,898.0,0.25,66,40.0
5656,C2,898.0,19/40,67,40.0
5657,C6,898.25,0.25,66,40.0
5658,C3,898.25,0.25,60,40.0
5659,B-5,898.5,0.25,65,40.0
5660,C2,898.5,19/40,66,40.0
5661,G#5,898.75,0.25,64,40.0
5662,C3,898.75,0.25,60,40.0
5663,G5,899.0,0.25,62,40.0
5664,C2,899.0,19/40,66,40.0
5665,G#5,899.25,0.25,64,40.0
5666,C3,899.25,0.25,59,40.0
5667,B-5,899.5,0.25,68,40.0
5668,C2,899.5,19/40,66,40.0
5669,G#5,899.75,0.25,66,40.0
5670,C3,899.75,0.25,60,40.0
5671,G5,900.0,0.25,69,40.0
5672,C2,900.0,19/40,66,40.0
5673,F5,900.25,0.25,67,40.0
5674,C3,900.25,0.25,60,40.0
5675,E-5,900.5,0.25,66,40.0
5676,C2,900.5,19/40,66,40.0
5677,D5,900.75,0.25,65,40.0
5678,C3,900.75,0.25,61,40.0
5679,C#5,901.0,0.25,65,40.0
5680,C2,901.0,19/40,67,40.0
5681,D5,901.25,0.25,64,40.0
5682,C3,901.25,0.25,60,40.0
5683,E-5,901.5,0.25,68,40.0
5684,C2,901.5,19/40,67,40.0
5685,D5,901.75,0.25,66,40.0
5686,C3,901.75,0.25,59,40.0
5687,C5,902.0,0.25,68,40.0
5688,C2,902.0,19/40,67,40.0
5689,B4,902.25,0.25,68,40.0
5690,C3,902.25,0.25,60,40.0
5691,G#4,902.5,0.25,68,40.0
5692,C2,902.5,19/40,66,40.0
5693,G4,902.75,0.25,68,40.0
5694,C3,902.75,0.25,60,40.0
5695,F#4,903.0,0.25,67,40.0
5696,C2,903.0,19/40,66,40.0
5697,G4,903.25,0.25,64,40.0
5698,C3,903.25,0.25,59,40.0
5699,G#4,903.5,0.25,70,40.0
5700,C2,903.5,19/40,66,40.0
5701,G4,903.75,0.25,64,40.0
5702,C3,903.75,0.25,60,40.0
5703,C5,904.0,0.25,83,40.0
5704,C2,904.0,19/40,66,40.0
5705,C3,904.25,0.25,60,40.0
5706,C4,904.5,1.0,82,40.0
5707,C2,904.5,19/40,66,40.0
5708,C3,904.75,0.25,61,40.0
5709,C2,905.0,19/40,66,40.0
5710,C3,905.25,0.25,59,40.0
5711,C2,905.5,19/40,66,40.0
5712,B-3,905.5,0.25,80,40.0
5713,E4,905.5,0.25,80,40.0
5714,C3,905.75,0.25,60,40.0
5715,C2,906.0,19/40,66,40.0
5716,G#3,906.0,0.25,81,40.0
5717,F4,906.0,0.25,81,40.0
5718,C3,906.25,0.25,60,40.0
5719,C2,906.5,19/40,66,40.0
5720,E4,906.5,0.25,82,40.0
5721,G4,906.5,0.25,82,40.0
5722,C3,906.75,0.25,61,40.0
5723,B-1,907.0,19/40,66,40.0
5724,F4,907.0,0.25,83,40.0
5725,G#4,907.0,0.25,83,40.0
5726,B-2,907.25,0.25,59,40.0
5727,B-1,907.5,19/40,66,40.0
5728,D4,907.5,0.25,85,40.0
5729,B4,907.5,0.25,85,40.0
5730,B-2,907.75,0.25,60,40.0
5731,B-1,908.0,19/40,66,40.0
5732,E-4,908.0,0.25,83,40.0
5733,C5,908.0,0.25,83,40.0
5734,B-2,908.25,0.25,60,40.0
5735,B-1,908.5,19/40,66,40.0
5736,E4,908.5,1.0,82,40.0
5737,C5,908.5,1.0,82,40.0
5738,B-2,908.75,0.25,61,40.0
5739,G#1,909.0,19/40,66,40.0
5740,G#2,909.25,0.25,59,40.0
5741,G#1,909.5,19/40,66,40.0
5742,B-4,909.5,0.25,80,40.0
5743,E5,909.5,0.25,80,40.0
5744,G#2,909.75,0.25,60,40.0
5745,G#1,910.0,19/40,66,40.0
5746,G#4,910.0,0.25,81,40.0
5747,F5,910.0,0.25,81,40.0
5748,G#2,910.25,0.25,60,40.0
5749,G#1,910.5,19/40,66,40.0
5750,E5,910.5,0.25,82,40.0
5751,G5,910.5,0.25,82,40.0
5752,G#2,910.75,0.25,61,40.0
5753,G1,911.0,19/40,66,40.0
5754,F5,911.0,0.25,83,40.0
5755,G#5,911.0,0.25,83,40.0
5756,G2,911.25,0.25,59,40.0
5757,G1,911.5,19/40,66,40.0
5758,D5,911.5,0.25,85,40.0
5759,B5,911.5,0.25,85,40.0
5760,G2,911.75,0.25,60,40.0
5761,G1,912.0,19/40,66,40.0
5762,C5,912.0,2.0,94,40.0
5763,C6,912.0,2.0,94,40.0
5764,E-5,912.0,2.0,94,40.0
5765,G2,912.25,0.25,60,40.0
5766,G1,912.5,19/40,66,40.0
5767,G2,912.75,0.25,61,40.0
5768,F#1,913.0,2.0,74,40.0
5769,F#2,913.0,2.0,74,40.0
5770,C4,914.0,2.0,88,40.0
5771,E-4,914.0,2.0,88,40.0
5772,C5,914.0,2.0,88,40.0
5773,A2,915.0,2.0,81,40.0
5774,C3,915.0,2.0,81,40.0
5775,F#2,915.0,2.0,81,40.0
5776,E-3,915.0,2.0,81,40.0
5777,C5,916.0,2.0,99,40.0
5778,C6,916.0,2.0,99,40.0
5779,E-5,916.0,2.0,99,40.0
5780,C4,918.0,2.0,92,40.0
5781,E-4,918.0,2.0,92,40.0
5782,C5,918.0,2.0,92,40.0
5783,E-4,919.75,119/500,39,40.0
5784,D4,920.0,0.75,45,40.0
5785,A5,920.0,2.0,102,40.0
5786,C6,920.0,2.0,102,40.0
5787,E-5,920.0,2.0,102,40.0
5788,E-6,920.0,2.0,102,40.0
5789,C4,920.75,119/500,39,40.0
5790,C4,921.0,2.0,42,40.0
5791,C4,922.0,2.0,98,40.0
5792,F#3,922.0,2.0,98,40.0
5793,A3,922.0,2.0,98,40.0
5794,E-4,922.0,2.0,98,40.0
5795,B3,923.0,1.0,27,40.0
5796,F#4,926.75,119/500,46,40.0
5797,A4,926.75,119/500,46,40.0
5798,C5,926.75,119/500,46,40.0
5799,F#4,927.0,0.75,49,40.0
5800,A4,927.0,0.75,49,40.0
5801,D5,927.0,0.75,49,40.0
5802,G#4,927.75,0.25,39,40.0
5803,F#4,927.75,119/500,47,40.0
5804,A4,927.75,119/500,47,40.0
5805,E-5,927.75,119/500,47,40.0
5806,G4,928.0,0.75,45,40.0
5807,F#4,928.0,2.0,52,40.0
5808,A4,928.0,2.0,52,40.0
5809,E-5,928.0,2.0,52,40.0
5810,F4,928.75,119/500,39,40.0
5811,F4,929.0,2.0,38,40.0
5812,G4,930.0,1.0,34,40.0
5813,B4,930.0,1.0,34,40.0
5814,D5,930.0,1.0,34,40.0
5815,E-4,931.0,1.0,27,40.0
5816,D5,934.75,0.25,47,40.0
5817,B4,934.75,0.25,47,40.0
5818,F5,934.75,0.25,47,40.0
5819,B4,935.0,0.75,49,40.0
5820,D5,935.0,0.75,49,40.0
5821,G5,935.0,0.75,49,40.0
5822,D5,935.75,119/500,48,40.0
5823,G#5,935.75,119/500,48,40.0
5824,B4,935.75,119/500,48,40.0
5825,C#4,935.75,0.25,45,40.0
5826,E4,935.75,0.25,45,40.0
5827,G4,935.75,0.25,45,40.0
5828,G#5,936.0,2.0,52,40.0
5829,B4,936.0,2.0,52,40.0
5830,D5,936.0,2.0,52,40.0
5831,C4,936.0,0.75,52,40.0
5832,E4,936.0,0.75,52,40.0
5833,G4,936.0,0.75,52,40.0
5834,B-3,936.75,119/500,52,40.0
5835,E4,936.75,119/500,52,40.0
5836,G4,936.75,119/500,52,40.0
5837,G#3,937.0,4.0,60,40.0
5838,B-3,937.0,2.0,64,40.0
5839,E4,937.0,2.0,64,40.0
5840,G4,937.0,2.0,64,40.0
5841,C5,938.0,1.0,34,40.0
5842,G5,938.0,1.0,34,40.0
5843,E-5,938.0,1.0,34,40.0
5844,C4,939.0,1.0,49,40.0
5845,F4,939.0,1.0,49,40.0
5846,G#4,939.0,1.0,49,40.0
5847,G3,940.0,1.0,47,40.0
5848,C4,940.0,1.0,47,40.0
5849,E4,940.0,1.0,47,40.0
5850,F3,941.0,1.0,37,40.0
5851,C4,941.0,1.0,37,40.0
5852,F4,941.0,1.0,37,40.0
5853,E-3,942.0,1.0,36,40.0
5854,G3,942.0,1.0,36,40.0
5855,C4,942.0,1.0,36,40.0
5856,B-4,942.75,0.25,58,40.0
5857,G5,942.75,0.25,58,40.0
5858,E5,942.75,0.25,58,40.0
5859,B-5,942.75,0.25,58,40.0
5860,C5,943.0,0.75,64,40.0
5861,E5,943.0,0.75,64,40.0
5862,G5,943.0,0.75,64,40.0
5863,C6,943.0,0.75,64,40.0
5864,D3,943.0,1.0,34,40.0
5865,G3,943.0,1.0,34,40.0
5866,B3,943.0,1.0,34,40.0
5867,C#5,943.75,119/500,70,40.0
5868,G5,943.75,119/500,70,40.0
5869,C#6,943.75,119/500,70,40.0
5870,E5,943.75,119/500,70,40.0
5871,C#5,944.0,2.0,75,40.0
5872,C#6,944.0,2.0,75,40.0
5873,E5,944.0,2.0,75,40.0
5874,G5,944.0,2.0,75,40.0
5875,C3,944.0,1.0,32,40.0
5876,G3,944.0,1.0,32,40.0
5877,C4,944.0,1.0,32,40.0
5878,F3,945.0,1.0,34,40.0
5879,C5,946.0,1.0,57,40.0
5880,C6,946.0,1.0,57,40.0
5881,B-4,947.0,1.0,60,40.0
5882,B-5,947.0,1.0,60,40.0
5883,G1,947.0,1.0,33,40.0
5884,G2,947.0,1.0,33,40.0
5885,G#4,948.0,1.0,45,40.0
5886,G#5,948.0,1.0,45,40.0
5887,D3,948.0,1.0,31,40.0
5888,F3,948.0,1.0,31,40.0
5889,B3,948.0,1.0,31,40.0
5890,C2,949.0,19/40,44,40.0
5891,G4,949.0,1.0,44,40.0
5892,G5,949.0,1.0,44,40.0
5893,C3,949.25,0.25,41,40.0
5894,C2,949.5,19/40,44,40.0
5895,C3,949.75,0.25,41,40.0
5896,C2,950.0,19/40,44,40.0
5897,F4,950.0,1.0,42,40.0
5898,F5,950.0,1.0,42,40.0
5899,C3,950.25,0.25,41,40.0
5900,C2,950.5,19/40,45,40.0
5901,C3,950.75,0.25,41,40.0
5902,C2,951.0,19/40,45,40.0
5903,E-4,951.0,1.0,40,40.0
5904,E-5,951.0,1.0,40,40.0
5905,C3,951.25,0.25,46,40.0
5906,C2,951.5,19/40,47,40.0
5907,C3,951.75,0.25,47,40.0
5908,C2,952.0,19/40,49,40.0
5909,C3,952.25,0.25,50,40.0
5910,C2,952.5,19/40,51,40.0
5911,C3,952.75,0.25,53,40.0
5912,C2,953.0,19/40,55,40.0
5913,F4,953.0,1.0,34,40.0
5914,G#4,953.0,1.0,34,40.0
5915,D5,953.0,1.0,34,40.0
5916,C3,953.25,0.25,50,40.0
5917,C2,953.5,19/40,53,40.0
5918,C3,953.75,0.25,47,40.0
5919,C2,954.0,19/40,53,40.0
5920,C3,954.25,0.25,47,40.0
5921,C2,954.5,19/40,44,40.0
5922,C3,954.75,0.25,40,40.0
5923,C2,955.0,19/40,40,40.0
5924,C3,955.25,0.25,43,40.0
5925,C2,955.5,19/40,44,40.0
5926,C3,955.75,0.25,46,40.0
5927,C4,956.0,1.5,50,40.0
5928,C2,956.0,19/40,48,40.0
5929,C3,956.25,0.25,50,40.0
5930,C2,956.5,19/40,52,40.0
5931,C3,956.75,0.25,54,40.0
5932,C2,957.0,19/40,63,40.0
5933,C3,957.25,0.25,57,40.0
5934,C2,957.5,19/40,62,40.0
5935,B-3,957.5,0.188,52,40.0
5936,E4,957.5,0.188,52,40.0
5937,C3,957.75,0.25,56,40.0
5938,B-1,958.0,19/40,66,40.0
5939,G#3,958.0,0.188,54,40.0
5940,F4,958.0,0.188,54,40.0
5941,B-2,958.25,0.25,61,40.0
5942,B-1,958.5,19/40,68,40.0
5943,E4,958.5,0.188,56,40.0
5944,G4,958.5,0.188,56,40.0
5945,B-2,958.75,0.25,64,40.0
5946,G#1,959.0,19/40,70,40.0
5947,F4,959.0,0.188,57,40.0
5948,G#4,959.0,0.188,57,40.0
5949,G#2,959.25,0.25,72,40.0
5950,G#1,959.5,19/40,73,40.0
5951,D4,959.5,0.188,59,40.0
5952,B4,959.5,0.188,59,40.0
5953,G#2,959.75,0.25,74,40.0
5954,G1,960.0,19/40,75,40.0
5955,E-4,960.0,0.188,61,40.0
5956,C5,960.0,0.188,61,40.0
5957,G2,960.25,0.25,73,40.0
5958,G1,960.5,19/40,76,40.0
5959,E4,960.5,1.0,55,40.0
5960,C5,960.5,1.0,55,40.0
5961,G2,960.75,0.25,78,40.0
5962,F#1,961.0,0.5,93,40.0
5963,F#2,961.0,0.5,93,40.0
5964,B-4,961.5,0.188,51,40.0
5965,E5,961.5,0.188,51,40.0
5966,G#4,962.0,0.188,50,40.0
5967,F5,962.0,0.188,50,40.0
5968,E5,962.5,0.188,53,40.0
5969,G5,962.5,0.188,53,40.0
5970,F5,963.0,0.188,57,40.0
5971,G#5,963.0,0.188,57,40.0
5972,A3,963.0,0.5,86,40.0
5973,E-4,963.0,0.5,86,40.0
5974,C4,963.0,0.5,86,40.0
5975,F#3,963.0,0.5,86,40.0
5976,D5,963.5,0.188,60,40.0
5977,B5,963.5,0.188,60,40.0
5978,E-5,964.0,1.0,64,40.0
5979,C6,964.0,1.0,64,40.0
5980,C5,965.0,1.0,71,40.0
5981,E-5,965.0,1.0,71,40.0
5982,C6,965.0,1.0,71,40.0
5983,C4,965.0,0.5,88,40.0
5984,G3,965.0,0.5,88,40.0
5985,E-4,965.0,0.5,88,40.0
5986,C5,966.0,1.0,77,40.0
5987,E-5,966.0,1.0,77,40.0
5988,C6,966.0,1.0,77,40.0
5989,C5,967.0,1.0,86,40.0
5990,E-5,967.0,1.0,86,40.0
5991,C6,967.0,1.0,86,40.0
5992,G2,967.0,0.5,78,40.0
5993,D2,967.0,0.5,78,40.0
5994,G1,967.0,0.5,78,40.0
5995,B1,967.0,0.5,78,40.0
5996,E-5,968.0,0.5,100,40.0
5997,A5,968.0,0.5,100,40.0
5998,C6,968.0,0.5,100,40.0
5999,E-6,968.0,0.5,100,40.0
6000,C3,969.0,0.5,78,40.0
6001,C2,969.0,0.5,78,40.0
6002,E-2,969.0,0.5,78,40.0
6003,G2,969.0,0.5,78,40.0
6004,F#4,970.0,0.5,86,40.0
6005,A4,970.0,0.5,86,40.0
6006,C5,970.0,0.5,86,40.0
6007,E-5,970.0,0.5,86,40.0
6008,E-5,972.0,0.5,86,40.0
6009,G4,972.0,0.5,86,40.0
6010,C5,972.0,0.5,86,40.0
6011,G5,972.0,0.5,86,40.0
6012,D3,974.0,0.5,94,40.0
6013,G3,974.0,0.5,94,40.0
6014,B3,974.0,0.5,94,40.0
6015,F3,974.0,0.5,94,40.0
6016,G3,976.0,0.5,97,40.0
6017,C4,976.0,0.5,97,40.0
6018,E-3,976.0,0.5,97,40.0
