,note_name,start_time,duration,velocity,tempo
0,C4,0.0,1.0,50,26.67
1,G#2,0.0,1.0,40,26.67
2,G#3,0.0,0.25,28,26.67
3,E-3,0.25,0.25,24,26.67
4,G#3,0.5,0.25,26,26.67
5,E-3,0.75,0.25,23,26.67
6,B-3,1.0,1.0,46,26.67
7,C#3,1.0,1.0,35,26.67
8,G3,1.0,0.25,28,26.67
9,E-3,1.25,0.25,24,26.67
10,G3,1.5,0.25,26,26.67
11,E-3,1.75,0.25,24,26.67
12,E-4,2.0,1.5,50,26.67
13,C3,2.0,1.0,40,26.67
14,G#3,2.0,0.25,28,26.67
15,E-3,2.25,0.25,25,26.67
16,G#3,2.5,0.25,25,26.67
17,E-3,2.75,0.25,25,26.67
18,G2,3.0,1.0,37,26.67
19,B-3,3.0,0.25,28,26.67
20,E-3,3.25,0.25,25,26.67
21,C#4,3.5,0.5,48,26.67
22,B-3,3.5,0.25,25,26.67
23,E-3,3.75,0.25,25,26.67
24,C4,4.0,0.5,47,26.67
25,G#2,4.0,0.5,33,26.67
26,G#3,4.0,0.25,29,26.67
27,E-3,4.25,0.25,25,26.67
28,E-4,4.5,0.5,49,26.67
29,G2,4.5,0.5,35,26.67
30,B-3,4.5,0.25,26,26.67
31,E-3,4.75,0.25,23,26.67
32,G#4,5.0,0.5,51,26.67
33,F2,5.0,0.5,38,26.67
34,C4,5.0,0.25,30,26.67
35,G#3,5.25,0.25,25,26.67
36,B-4,5.5,0.5,56,26.67
37,F3,5.5,0.5,40,26.67
38,D4,5.5,0.25,27,26.67
39,G#3,5.75,0.25,22,26.67
40,E-4,6.0,1.5,50,26.67
41,E-3,6.0,1.0,36,26.67
42,G3,6.0,0.25,28,26.67
43,B-3,6.25,0.25,23,26.67
44,G3,6.5,0.25,23,26.67
45,B-3,6.75,0.25,23,26.67
46,E-2,7.0,1.0,35,26.67
47,G3,7.0,0.25,28,26.67
48,B-3,7.25,0.25,23,26.67
49,E4,7.5,0.5,46,26.67
50,G3,7.5,0.25,25,26.67
51,B-3,7.75,0.25,24,26.67
52,F4,8.0,1.0,50,26.67
53,C#2,8.0,1.0,40,26.67
54,G3,8.0,0.25,28,26.67
55,B-3,8.25,0.25,24,26.67
56,G3,8.5,0.25,26,26.67
57,B-3,8.75,123/500,23,26.67
58,B-3,9.0,0.75,50,26.67
59,C#3,9.0,1.0,36,26.67
60,G3,9.0,0.25,28,26.67
61,E-3,9.25,0.25,24,26.67
62,G3,9.5,0.25,24,26.67
63,C4,9.75,0.125,46,26.67
64,E-3,9.75,0.25,24,26.67
65,C#4,9.875,0.125,46,26.67
66,E-4,10.0,1.0,50,26.67
67,C3,10.0,1.0,40,26.67
68,G#3,10.0,0.25,28,26.67
69,E-3,10.25,0.25,27,26.67
70,G#3,10.5,0.25,27,26.67
71,E-3,10.75,0.25,25,26.67
72,A3,11.0,1.0,48,26.67
73,F2,11.0,1.0,36,26.67
74,E-3,11.0,0.25,28,26.67
75,C3,11.25,0.25,24,26.67
76,E-3,11.5,0.25,26,26.67
77,C3,11.75,0.25,24,26.67
78,C#4,12.0,1.0,50,26.67
79,B-1,12.0,1.0,40,26.67
80,F3,12.0,0.25,29,26.67
81,C#3,12.25,0.25,25,26.67
82,F3,12.5,0.25,27,26.67
83,C#3,12.75,9/40,24,26.67
84,C4,13.0,0.25,48,26.67
85,E-2,13.0,1.0,34,26.67
86,C#3,13.0,9/40,30,26.67
87,B-3,13.25,0.25,48,26.67
88,C#3,13.25,9/40,26,26.67
89,G#3,13.5,0.25,48,26.67
90,C#3,13.5,9/40,28,26.67
91,G3,13.75,0.25,48,26.67
92,C#3,13.75,9/40,26,26.67
93,G#1,14.0,0.5,37,26.67
94,C#3,14.0,0.25,31,26.67
95,G3,14.0,1.0,45,26.67
96,B-3,14.0,1.0,45,26.67
97,E-3,14.25,0.25,26,26.67
98,G#2,14.5,0.5,29,26.67
99,C#3,14.5,0.25,28,26.67
100,E-3,14.75,0.25,24,26.67
101,G#3,15.0,0.5,50,26.67
102,C3,15.0,0.125,36,26.67
103,G#1,15.0,0.5,36,26.67
104,E-3,15.167,0.125,34,26.67
105,G#3,15.333,0.125,34,26.67
106,C4,15.5,0.125,36,26.67
107,E-4,15.667,0.125,35,26.67
108,G#4,15.833,0.125,35,26.67
109,C5,16.0,1.0,50,26.67
110,C4,16.0,0.25,28,26.67
111,G#2,16.0,1.0,40,26.67
112,G#3,16.0,0.25,25,26.67
113,E-4,16.25,0.25,24,26.67
114,E-3,16.25,0.25,21,26.67
115,C4,16.5,0.25,26,26.67
116,G#3,16.5,0.25,23,26.67
117,E-4,16.75,0.25,23,26.67
118,E-3,16.75,0.25,20,26.67
119,B-4,17.0,1.0,46,26.67
120,B-3,17.0,0.25,28,26.67
121,C#3,17.0,1.0,35,26.67
122,G3,17.0,0.25,25,26.67
123,E-4,17.25,0.25,24,26.67
124,E-3,17.25,0.25,21,26.67
125,B-3,17.5,0.25,26,26.67
126,G3,17.5,0.25,23,26.67
127,E-4,17.75,0.25,24,26.67
128,E-3,17.75,0.25,21,26.67
129,E-5,18.0,1.5,50,26.67
130,E-4,18.0,0.25,28,26.67
131,C3,18.0,1.0,40,26.67
132,G#3,18.0,0.25,25,26.67
133,G#4,18.25,0.25,25,26.67
134,E-3,18.25,0.25,22,26.67
135,E-4,18.5,0.25,25,26.67
136,G#3,18.5,0.25,22,26.67
137,G#4,18.75,0.25,25,26.67
138,E-3,18.75,0.25,22,26.67
139,E-4,19.0,0.25,28,26.67
140,G2,19.0,1.0,37,26.67
141,G3,19.0,0.25,25,26.67
142,B-4,19.25,0.25,25,26.67
143,E-3,19.25,0.25,22,26.67
144,C#5,19.5,0.5,48,26.67
145,E-4,19.5,0.25,25,26.67
146,G3,19.5,0.25,22,26.67
147,B-4,19.75,0.25,25,26.67
148,E-3,19.75,0.25,22,26.67
149,C5,20.0,0.5,47,26.67
150,E-4,20.0,0.25,31,26.67
151,G#2,20.0,0.5,41,26.67
152,G#3,20.0,0.25,30,26.67
153,G#4,20.25,0.25,31,26.67
154,E-3,20.25,0.25,30,26.67
155,E-5,20.5,0.5,49,26.67
156,E-4,20.5,0.25,32,26.67
157,G2,20.5,0.5,44,26.67
158,G3,20.5,0.25,30,26.67
159,B-4,20.75,0.25,33,26.67
160,E-3,20.75,0.25,31,26.67
161,G#5,21.0,0.5,51,26.67
162,G#4,21.0,0.25,33,26.67
163,F2,21.0,0.5,46,26.67
164,F3,21.0,0.25,31,26.67
165,C5,21.25,0.25,34,26.67
166,G#2,21.25,0.25,32,26.67
167,B-5,21.5,0.5,56,26.67
168,G#4,21.5,0.25,35,26.67
169,F2,21.5,0.5,49,26.67
170,F3,21.5,0.25,32,26.67
171,D5,21.75,0.25,35,26.67
172,G#2,21.75,0.25,32,26.67
173,E-5,22.0,1.5,50,26.67
174,G4,22.0,0.25,33,26.67
175,E-2,22.0,0.25,46,26.67
176,B-4,22.25,0.25,25,26.67
177,G2,22.25,0.25,25,26.67
178,G4,22.5,0.25,25,26.67
179,B-2,22.5,0.25,25,26.67
180,B-4,22.75,0.25,25,26.67
181,E-3,22.75,0.25,25,26.67
182,G4,23.0,0.25,29,26.67
183,G3,23.0,0.25,28,26.67
184,B-4,23.25,0.25,30,26.67
185,B-3,23.25,0.25,30,26.67
186,E5,23.5,0.5,46,26.67
187,G4,23.5,0.25,33,26.67
188,G3,23.5,0.25,33,26.67
189,B-4,23.75,0.25,34,26.67
190,B-3,23.75,0.25,35,26.67
191,F5,24.0,1.0,50,26.67
192,G4,24.0,0.25,30,26.67
193,C#2,24.0,0.25,40,26.67
194,B-4,24.25,0.25,24,26.67
195,G2,24.25,0.25,24,26.67
196,G4,24.5,0.25,26,26.67
197,B-2,24.5,0.25,26,26.67
198,B-4,24.75,123/500,23,26.67
199,C#3,24.75,0.25,23,26.67
200,B-4,25.0,0.75,50,26.67
201,G4,25.0,0.25,28,26.67
202,G3,25.0,0.25,25,26.67
203,E-4,25.25,0.25,24,26.67
204,B-3,25.25,0.25,21,26.67
205,G4,25.5,0.25,24,26.67
206,G3,25.5,0.25,21,26.67
207,C5,25.75,0.125,46,26.67
208,E-4,25.75,0.25,24,26.67
209,C#3,25.75,0.25,21,26.67
210,C#5,25.875,0.125,46,26.67
211,E-5,26.0,1.0,50,26.67
212,G#4,26.0,0.25,30,26.67
213,C3,26.0,0.5,40,26.67
214,E-4,26.25,0.25,27,26.67
215,E-3,26.25,0.25,27,26.67
216,G#4,26.5,0.25,27,26.67
217,C3,26.5,0.5,27,26.67
218,E-4,26.75,0.188,25,26.67
219,E-3,26.75,0.25,25,26.67
220,A4,27.0,1.0,48,26.67
221,E-4,27.0,0.25,28,26.67
222,F2,27.0,1.0,36,26.67
223,C3,27.0,0.25,25,26.67
224,C4,27.25,0.25,24,26.67
225,F3,27.25,0.25,21,26.67
226,E-4,27.5,0.25,26,26.67
227,C3,27.5,0.25,23,26.67
228,C4,27.75,0.25,24,26.67
229,F3,27.75,0.25,21,26.67
230,C#5,28.0,1.0,50,26.67
231,F4,28.0,0.25,29,26.67
232,B-2,28.0,1.0,40,26.67
233,C#3,28.0,0.25,26,26.67
234,C#4,28.25,0.25,25,26.67
235,F3,28.25,0.25,22,26.67
236,F4,28.5,0.25,27,26.67
237,C#3,28.5,0.25,24,26.67
238,C#4,28.75,0.188,24,26.67
239,F3,28.75,0.25,21,26.67
240,C5,29.0,0.25,48,26.67
241,C#4,29.0,0.188,30,26.67
242,E-2,29.0,1.0,34,26.67
243,B-2,29.0,0.25,27,26.67
244,B-4,29.25,0.25,48,26.67
245,C#4,29.25,0.188,26,26.67
246,E-3,29.25,0.25,23,26.67
247,G#4,29.5,0.25,48,26.67
248,C#4,29.5,0.188,28,26.67
249,B-2,29.5,0.25,25,26.67
250,G4,29.75,0.25,48,26.67
251,C#4,29.75,0.188,26,26.67
252,E-3,29.75,0.25,23,26.67
253,B-4,30.0,1.0,50,26.67
254,C#4,30.0,0.25,30,26.67
255,G#2,30.0,1.5,37,26.67
256,E-4,30.25,0.25,26,26.67
257,E-3,30.25,0.25,23,26.67
258,C#4,30.5,0.25,28,26.67
259,G3,30.5,0.25,25,26.67
260,E-4,30.75,0.25,24,26.67
261,E-3,30.75,0.25,21,26.67
262,G#4,31.0,0.5,50,26.67
263,C4,31.0,0.5,36,26.67
264,G#3,31.0,0.5,36,26.67
265,C4,31.875,0.125,45,26.67
266,C5,32.0,1.25,50,26.67
267,C4,32.25,9/40,25,26.67
268,C4,32.5,9/40,25,26.67
269,C4,32.75,9/40,25,26.67
270,C4,33.0,9/40,29,26.67
271,G#5,33.25,0.25,50,26.67
272,C4,33.25,9/40,25,26.67
273,G5,33.5,0.25,51,26.67
274,C4,33.5,9/40,25,26.67
275,F5,33.75,0.25,48,26.67
276,C4,33.75,9/40,25,26.67
277,C6,34.0,1.25,54,26.67
278,E3,34.0,9/40,26,26.67
279,G3,34.0,9/40,26,26.67
280,C4,34.0,9/40,26,26.67
281,E3,34.25,9/40,22,26.67
282,G3,34.25,9/40,22,26.67
283,C4,34.25,9/40,22,26.67
284,E3,34.5,9/40,22,26.67
285,G3,34.5,9/40,22,26.67
286,C4,34.5,9/40,22,26.67
287,E3,34.75,9/40,22,26.67
288,G3,34.75,9/40,22,26.67
289,C4,34.75,9/40,22,26.67
290,F3,35.0,9/40,26,26.67
291,G#3,35.0,9/40,26,26.67
292,C4,35.0,9/40,26,26.67
293,G#5,35.25,0.25,50,26.67
294,F3,35.25,9/40,22,26.67
295,G#3,35.25,9/40,22,26.67
296,C4,35.25,9/40,22,26.67
297,G5,35.5,0.25,50,26.67
298,F3,35.5,9/40,22,26.67
299,G#3,35.5,9/40,22,26.67
300,C4,35.5,9/40,22,26.67
301,F5,35.75,0.25,48,26.67
302,F3,35.75,9/40,22,26.67
303,G#3,35.75,9/40,22,26.67
304,C4,35.75,9/40,22,26.67
305,C5,36.0,1.25,52,26.67
306,G3,36.0,9/40,26,26.67
307,B-3,36.0,9/40,26,26.67
308,E4,36.0,9/40,26,26.67
309,G3,36.25,9/40,22,26.67
310,B-3,36.25,9/40,22,26.67
311,E4,36.25,9/40,22,26.67
312,G3,36.5,9/40,22,26.67
313,B-3,36.5,9/40,22,26.67
314,E4,36.5,9/40,22,26.67
315,G3,36.75,9/40,22,26.67
316,B-3,36.75,9/40,22,26.67
317,E4,36.75,9/40,22,26.67
318,G#3,37.0,9/40,28,26.67
319,C4,37.0,9/40,28,26.67
320,F4,37.0,9/40,28,26.67
321,G#5,37.25,0.25,46,26.67
322,G#3,37.25,9/40,25,26.67
323,C4,37.25,9/40,25,26.67
324,F4,37.25,9/40,25,26.67
325,G5,37.5,0.25,49,26.67
326,G#3,37.5,9/40,26,26.67
327,C4,37.5,9/40,26,26.67
328,F4,37.5,9/40,26,26.67
329,F5,37.75,0.25,51,26.67
330,G#3,37.75,9/40,26,26.67
331,C4,37.75,9/40,26,26.67
332,F4,37.75,9/40,26,26.67
333,E-5,38.0,0.5,57,26.67
334,B-3,38.0,9/40,27,26.67
335,F4,38.0,9/40,27,26.67
336,G#4,38.0,9/40,27,26.67
337,B-3,38.25,9/40,28,26.67
338,F4,38.25,9/40,28,26.67
339,G#4,38.25,9/40,28,26.67
340,D5,38.5,0.75,53,26.67
341,B-3,38.5,9/40,30,26.67
342,F4,38.5,9/40,30,26.67
343,G#4,38.5,9/40,30,26.67
344,B-3,38.75,9/40,32,26.67
345,F4,38.75,9/40,32,26.67
346,G#4,38.75,9/40,32,26.67
347,B3,39.0,9/40,34,26.67
348,F4,39.0,9/40,34,26.67
349,G#4,39.0,9/40,34,26.67
350,E-5,39.25,0.062,55,26.67
351,B3,39.25,9/40,29,26.67
352,F4,39.25,9/40,29,26.67
353,G#4,39.25,9/40,29,26.67
354,D5,39.312,0.062,55,26.67
355,C5,39.375,0.062,54,26.67
356,D5,39.438,0.062,54,26.67
357,F5,39.5,0.375,63,26.67
358,B3,39.5,9/40,29,26.67
359,D4,39.5,9/40,29,26.67
360,G#4,39.5,9/40,29,26.67
361,B3,39.75,9/40,27,26.67
362,D4,39.75,9/40,27,26.67
363,G#4,39.75,9/40,27,26.67
364,E-5,39.875,0.125,55,26.67
365,E-5,40.0,1.0,62,26.67
366,C4,40.0,9/40,29,26.67
367,E-4,40.0,9/40,29,26.67
368,G4,40.0,9/40,29,26.67
369,C4,40.25,9/40,24,26.67
370,E-4,40.25,9/40,24,26.67
371,G4,40.25,9/40,24,26.67
372,C4,40.5,9/40,24,26.67
373,E-4,40.5,9/40,24,26.67
374,G4,40.5,9/40,24,26.67
375,C4,40.75,9/40,24,26.67
376,E-4,40.75,9/40,24,26.67
377,G4,40.75,9/40,24,26.67
378,F4,41.0,0.625,55,26.67
379,G#3,41.0,9/40,30,26.67
380,E-4,41.0,9/40,30,26.67
381,G#3,41.25,9/40,28,26.67
382,E-4,41.25,9/40,28,26.67
383,G4,41.5,0.062,54,26.67
384,G#3,41.5,9/40,28,26.67
385,E-4,41.5,9/40,28,26.67
386,F4,41.562,0.188,54,26.67
387,E4,41.625,0.062,53,26.67
388,F4,41.688,0.062,53,26.67
389,G#4,41.75,0.125,58,26.67
390,G#3,41.75,9/40,28,26.67
391,E-4,41.75,9/40,28,26.67
392,C5,41.875,0.125,51,26.67
393,B4,42.0,83/1000,45,26.67
394,C5,42.083,83/1000,45,26.67
395,D5,42.167,83/1000,45,26.67
396,C5,42.25,0.125,49,26.67
397,B-4,42.375,0.125,45,26.67
398,G5,42.5,0.5,52,26.67
399,B-3,42.5,9/40,27,26.67
400,E-4,42.5,9/40,27,26.67
401,G4,42.5,9/40,27,26.67
402,B-3,42.75,9/40,27,26.67
403,E-4,42.75,9/40,27,26.67
404,G4,42.75,9/40,27,26.67
405,F5,43.0,0.125,50,26.67
406,B-3,43.0,9/40,27,26.67
407,E-4,43.0,9/40,27,26.67
408,G4,43.0,9/40,27,26.67
409,E-5,43.125,0.125,49,26.67
410,D5,43.25,0.125,47,26.67
411,C5,43.375,0.125,46,26.67
412,B-4,43.5,0.125,44,26.67
413,B-2,43.5,9/40,27,26.67
414,D3,43.5,9/40,27,26.67
415,G#3,43.5,9/40,27,26.67
416,A4,43.625,0.125,43,26.67
417,C5,43.75,0.125,47,26.67
418,B-2,43.75,9/40,27,26.67
419,D3,43.75,9/40,27,26.67
420,G#3,43.75,9/40,27,26.67
421,B-4,43.875,0.125,46,26.67
422,G#4,44.0,0.125,45,26.67
423,B-2,44.0,9/40,27,26.67
424,D3,44.0,9/40,27,26.67
425,G#3,44.0,9/40,27,26.67
426,F4,44.125,0.125,43,26.67
427,E-4,44.25,0.5,49,26.67
428,E-3,44.25,0.5,29,26.67
429,G3,44.25,0.5,29,26.67
430,B-3,45.0,0.25,44,26.67
431,G3,45.25,0.25,49,26.67
432,B-3,45.5,0.25,45,26.67
433,G3,45.75,0.25,49,26.67
434,E-3,46.0,0.25,45,26.67
435,E-3,46.25,0.25,49,26.67
436,B-1,46.25,2.0,33,26.67
437,F3,46.25,49/100,42,26.67
438,G#3,46.25,49/100,42,26.67
439,D3,46.5,0.188,44,26.67
440,D3,46.75,0.25,49,26.67
441,F3,46.75,49/100,43,26.67
442,G#3,46.75,49/100,43,26.67
443,C3,47.0,0.188,45,26.67
444,C3,47.25,0.25,53,26.67
445,F3,47.25,49/100,46,26.67
446,G#3,47.25,49/100,46,26.67
447,B2,47.5,0.188,47,26.67
448,B2,47.75,0.25,53,26.67
449,D3,47.75,49/100,42,26.67
450,F3,47.75,49/100,42,26.67
451,G#3,47.75,49/100,42,26.67
452,B-2,48.0,0.25,49,26.67
453,E-2,48.25,0.5,36,26.67
454,B-2,48.25,0.5,42,26.67
455,E-3,48.25,0.5,42,26.67
456,G3,48.25,0.5,42,26.67
457,B-2,49.0,0.25,44,26.67
458,G2,49.25,0.25,49,26.67
459,B-2,49.5,0.25,45,26.67
460,B-3,49.75,0.375,49,26.67
461,G2,49.75,0.25,41,26.67
462,E-2,50.0,0.25,38,26.67
463,E-4,50.125,0.125,49,26.67
464,E-4,50.25,0.25,49,26.67
465,F3,50.25,1.0,39,26.67
466,B-1,50.25,1.0,39,26.67
467,G#3,50.25,1.0,39,26.67
468,D4,50.5,6/25,44,26.67
469,D4,50.75,0.25,49,26.67
470,C4,51.0,6/25,45,26.67
471,C4,51.25,0.25,53,26.67
472,B-2,51.25,1.0,42,26.67
473,F3,51.25,1.0,42,26.67
474,G#3,51.25,1.0,42,26.67
475,B3,51.5,6/25,47,26.67
476,B3,51.75,0.25,53,26.67
477,B-3,52.0,6/25,49,26.67
478,E-2,52.25,2.0,51,26.67
479,F3,52.25,0.25,51,26.67
480,G3,52.25,2.0,50,26.67
481,B-3,52.25,2.0,50,26.67
482,E3,52.5,0.188,48,26.67
483,E3,52.75,0.25,53,26.67
484,E-3,53.0,0.188,48,26.67
485,E-3,53.25,0.25,53,26.67
486,D3,53.5,0.188,49,26.67
487,D3,53.75,0.25,55,26.67
488,E-3,54.0,0.188,50,26.67
489,E-3,54.25,0.25,55,26.67
490,E-2,54.25,2.0,51,26.67
491,E3,54.5,0.188,40,26.67
492,E3,54.75,0.25,44,26.67
493,E-3,55.0,0.188,37,26.67
494,E-3,55.25,0.25,44,26.67
495,D3,55.5,0.188,31,26.67
496,D3,55.75,0.25,37,26.67
497,C#3,56.0,0.25,29,26.67
498,G#3,56.25,0.25,28,26.67
499,G3,56.25,2.0,50,26.67
500,B-3,56.25,2.0,50,26.67
501,G#1,56.25,1.0,35,26.67
502,G#2,56.25,1.0,35,26.67
503,E-3,56.5,0.25,24,26.67
504,G#3,56.75,0.25,26,26.67
505,E-3,57.0,0.25,23,26.67
506,C#3,57.25,1.0,35,26.67
507,G3,57.25,0.25,28,26.67
508,E-3,57.5,0.25,24,26.67
509,G3,57.75,0.25,26,26.67
510,E-3,58.0,0.25,24,26.67
511,C4,58.25,1.0,47,26.67
512,C3,58.25,1.0,40,26.67
513,G#3,58.25,0.25,28,26.67
514,E-3,58.5,0.25,25,26.67
515,G#3,58.75,0.25,25,26.67
516,E-3,59.0,0.25,25,26.67
517,B-3,59.25,1.0,46,26.67
518,G2,59.25,1.0,37,26.67
519,B-3,59.25,0.25,28,26.67
520,E-3,59.5,0.25,25,26.67
521,B-3,59.75,0.25,25,26.67
522,E-3,60.0,0.25,25,26.67
523,E-4,60.25,1.5,50,26.67
524,G#2,60.25,0.5,33,26.67
525,G#3,60.25,0.25,29,26.67
526,E-3,60.5,0.25,25,26.67
527,G2,60.75,0.5,36,26.67
528,B-3,60.75,0.25,27,26.67
529,E-3,61.0,0.25,24,26.67
530,F2,61.25,0.5,40,26.67
531,C4,61.25,0.25,33,26.67
532,G#3,61.5,0.25,28,26.67
533,C#4,61.75,0.5,48,26.67
534,F3,61.75,0.5,44,26.67
535,D4,61.75,0.25,31,26.67
536,G#3,62.0,0.25,26,26.67
537,C4,62.25,0.5,47,26.67
538,E-3,62.25,1.0,36,26.67
539,G3,62.25,0.25,28,26.67
540,B-3,62.5,0.25,23,26.67
541,E-4,62.75,0.5,49,26.67
542,G3,62.75,0.25,23,26.67
543,B-3,63.0,0.25,23,26.67
544,G#4,63.25,0.5,51,26.67
545,E-2,63.25,1.0,35,26.67
546,G3,63.25,0.25,28,26.67
547,B-3,63.5,0.25,23,26.67
548,B-4,63.75,0.5,56,26.67
549,G3,63.75,0.25,25,26.67
550,B-3,64.0,0.25,24,26.67
551,E-4,64.25,1.5,50,26.67
552,C#2,64.25,1.0,40,26.67
553,G3,64.25,0.25,28,26.67
554,B-3,64.5,0.25,24,26.67
555,G3,64.75,0.25,26,26.67
556,B-3,65.0,123/500,23,26.67
557,C#3,65.25,1.0,36,26.67
558,G3,65.25,0.25,28,26.67
559,E-3,65.5,0.25,24,26.67
560,E4,65.75,0.5,46,26.67
561,G3,65.75,0.25,24,26.67
562,E-3,66.0,0.25,24,26.67
563,F4,66.25,1.0,50,26.67
564,C3,66.25,1.0,40,26.67
565,G#3,66.25,0.25,28,26.67
566,E-3,66.5,0.25,27,26.67
567,G#3,66.75,0.25,27,26.67
568,E-3,67.0,0.25,25,26.67
569,B-3,67.25,0.75,50,26.67
570,F2,67.25,1.0,36,26.67
571,E-3,67.25,0.25,28,26.67
572,C3,67.5,0.25,24,26.67
573,E-3,67.75,0.25,26,26.67
574,C4,68.0,0.125,46,26.67
575,C3,68.0,0.25,24,26.67
576,C#4,68.125,0.125,46,26.67
577,E-4,68.25,1.0,50,26.67
578,B-1,68.25,1.0,40,26.67
579,F3,68.25,0.25,29,26.67
580,C#3,68.5,0.25,25,26.67
581,F3,68.75,0.25,27,26.67
582,C#3,69.0,0.188,24,26.67
583,A3,69.25,1.0,48,26.67
584,E-2,69.25,1.0,34,26.67
585,C#3,69.25,0.188,30,26.67
586,C#3,69.5,0.188,26,26.67
587,C#3,69.75,0.188,28,26.67
588,C#3,70.0,0.188,26,26.67
589,C#4,70.25,1.0,50,26.67
590,G#1,70.25,0.5,37,26.67
591,C#3,70.25,0.25,31,26.67
592,E-3,70.5,0.25,26,26.67
593,G#2,70.75,0.5,29,26.67
594,C#3,70.75,0.25,28,26.67
595,E-3,71.0,0.25,24,26.67
596,C4,71.25,0.25,48,26.67
597,G#1,71.25,0.5,36,26.67
598,B-3,71.5,0.25,48,26.67
599,G#3,71.75,0.25,48,26.67
600,G3,72.0,0.25,48,26.67
601,G3,72.25,1.0,45,26.67
602,B-3,72.25,1.0,45,26.67
603,B3,72.25,0.125,26,26.67
604,E-4,72.25,0.125,26,26.67
605,G#2,72.25,1.0,33,26.67
606,G#3,72.25,1.0,33,26.67
607,B3,72.417,0.125,26,26.67
608,E-4,72.417,0.125,26,26.67
609,B3,72.583,0.125,26,26.67
610,E-4,72.583,0.125,26,26.67
611,B3,72.75,0.125,26,26.67
612,E-4,72.75,0.125,26,26.67
613,B3,72.917,0.125,28,26.67
614,E-4,72.917,0.125,28,26.67
615,B3,73.083,0.125,28,26.67
616,E-4,73.083,0.125,28,26.67
617,G#3,73.25,0.5,50,26.67
618,B3,73.25,0.125,28,26.67
619,E-4,73.25,0.125,28,26.67
620,B3,73.417,0.125,28,26.67
621,E-4,73.417,0.125,28,26.67
622,B3,73.583,0.125,28,26.67
623,E-4,73.583,0.125,28,26.67
624,E-4,73.75,0.5,47,26.67
625,B3,73.75,0.125,28,26.67
626,E-4,73.75,0.125,28,26.67
627,B3,73.917,0.125,28,26.67
628,E-4,73.917,0.125,28,26.67
629,B3,74.083,0.125,28,26.67
630,E-4,74.083,0.125,28,26.67
631,G#4,74.25,0.5,50,26.67
632,B-3,74.25,667/1000,36,26.67
633,C#4,74.25,0.125,28,26.67
634,E-4,74.25,0.125,28,26.67
635,C#4,74.417,0.125,28,26.67
636,E-4,74.417,0.125,28,26.67
637,C#4,74.583,0.125,28,26.67
638,E-4,74.583,0.125,28,26.67
639,B4,74.75,0.5,47,26.67
640,C#4,74.75,0.125,28,26.67
641,E-4,74.75,0.125,28,26.67
642,B-3,74.917,167/1000,36,26.67
643,C#4,74.917,0.125,28,26.67
644,E-4,74.917,0.125,28,26.67
645,A3,75.083,167/1000,36,26.67
646,C#4,75.083,0.125,28,26.67
647,E-4,75.083,0.125,28,26.67
648,B-4,75.25,0.5,47,26.67
649,B-3,75.25,0.125,36,26.67
650,C#4,75.25,0.125,28,26.67
651,E-4,75.25,0.125,28,26.67
652,B-3,75.417,0.125,36,26.67
653,C#4,75.417,0.125,28,26.67
654,E-4,75.417,0.125,28,26.67
655,G#3,75.583,0.125,33,26.67
656,C#4,75.583,0.125,28,26.67
657,E-4,75.583,0.125,28,26.67
658,G#4,75.75,0.5,46,26.67
659,G3,75.75,0.125,36,26.67
660,C#4,75.75,0.125,28,26.67
661,E-4,75.75,0.125,28,26.67
662,F3,75.917,0.125,32,26.67
663,C#4,75.917,0.125,28,26.67
664,E-4,75.917,0.125,28,26.67
665,E-3,76.083,0.125,32,26.67
666,C#4,76.083,0.125,28,26.67
667,E-4,76.083,0.125,28,26.67
668,G4,76.25,0.5,51,26.67
669,B3,76.25,0.125,26,26.67
670,E-4,76.25,0.125,26,26.67
671,G#2,76.25,1.0,33,26.67
672,G#3,76.25,1.0,33,26.67
673,B3,76.417,0.125,26,26.67
674,E-4,76.417,0.125,26,26.67
675,B3,76.583,0.125,26,26.67
676,E-4,76.583,0.125,26,26.67
677,C#5,76.75,0.5,47,26.67
678,B3,76.75,0.125,26,26.67
679,E-4,76.75,0.125,26,26.67
680,B3,76.917,0.125,28,26.67
681,E-4,76.917,0.125,28,26.67
682,B3,77.083,0.125,28,26.67
683,E-4,77.083,0.125,28,26.67
684,B3,77.25,0.125,28,26.67
685,E-4,77.25,0.125,28,26.67
686,B3,77.417,0.125,28,26.67
687,E-4,77.417,0.125,28,26.67
688,B3,77.583,0.125,28,26.67
689,E-4,77.583,0.125,28,26.67
690,B3,77.75,0.125,28,26.67
691,E-4,77.75,0.125,28,26.67
692,B3,77.917,0.125,28,26.67
693,E-4,77.917,0.125,28,26.67
694,B3,78.083,0.125,28,26.67
695,E-4,78.083,0.125,28,26.67
696,G#4,78.25,0.5,50,26.67
697,E-3,78.25,667/1000,36,26.67
698,B-3,78.25,0.125,28,26.67
699,E-4,78.25,0.125,28,26.67
700,B-3,78.417,0.125,28,26.67
701,E-4,78.417,0.125,28,26.67
702,B-3,78.583,0.125,28,26.67
703,E-4,78.583,0.125,28,26.67
704,B4,78.75,0.5,47,26.67
705,B-3,78.75,0.125,28,26.67
706,E-4,78.75,0.125,28,26.67
707,E-3,78.917,167/1000,36,26.67
708,B-3,78.917,0.125,28,26.67
709,E-4,78.917,0.125,28,26.67
710,D3,79.083,167/1000,36,26.67
711,B-3,79.083,0.125,28,26.67
712,E-4,79.083,0.125,28,26.67
713,B-4,79.25,0.5,47,26.67
714,E-3,79.25,0.125,36,26.67
715,G3,79.25,0.125,27,26.67
716,B-3,79.25,0.125,27,26.67
717,E-4,79.25,0.125,27,26.67
718,E3,79.417,0.125,36,26.67
719,G3,79.417,0.125,27,26.67
720,B-3,79.417,0.125,27,26.67
721,E-4,79.417,0.125,27,26.67
722,E-3,79.583,0.125,33,26.67
723,G3,79.583,0.125,27,26.67
724,B-3,79.583,0.125,27,26.67
725,E-4,79.583,0.125,27,26.67
726,G#4,79.75,0.5,46,26.67
727,C#3,79.75,0.125,36,26.67
728,G3,79.75,0.125,27,26.67
729,B-3,79.75,0.125,27,26.67
730,E-4,79.75,0.125,27,26.67
731,B2,79.917,0.125,32,26.67
732,G3,79.917,0.125,27,26.67
733,B-3,79.917,0.125,27,26.67
734,E-4,79.917,0.125,27,26.67
735,B-2,80.083,0.125,32,26.67
736,G3,80.083,0.125,27,26.67
737,B-3,80.083,0.125,27,26.67
738,E-4,80.083,0.125,27,26.67
739,G#4,80.25,0.5,51,26.67
740,B3,80.25,0.125,28,26.67
741,E-4,80.25,0.125,28,26.67
742,G#2,80.25,1.0,36,26.67
743,G#3,80.25,1.0,36,26.67
744,B3,80.417,0.125,29,26.67
745,E-4,80.417,0.125,29,26.67
746,B3,80.583,0.125,30,26.67
747,E-4,80.583,0.125,30,26.67
748,G4,80.75,0.5,47,26.67
749,B3,80.75,0.125,31,26.67
750,E-4,80.75,0.125,31,26.67
751,B3,80.917,0.125,33,26.67
752,E-4,80.917,0.125,33,26.67
753,B3,81.083,0.125,34,26.67
754,E-4,81.083,0.125,34,26.67
755,B3,81.25,0.125,36,26.67
756,E-4,81.25,0.125,36,26.67
757,B3,81.417,0.125,36,26.67
758,E-4,81.417,0.125,36,26.67
759,B3,81.583,0.125,36,26.67
760,E-4,81.583,0.125,36,26.67
761,B3,81.75,0.125,38,26.67
762,E-4,81.75,0.125,38,26.67
763,B3,81.917,0.125,38,26.67
764,E-4,81.917,0.125,38,26.67
765,B3,82.083,0.125,40,26.67
766,E-4,82.083,0.125,40,26.67
767,G#4,82.25,0.5,55,26.67
768,A2,82.25,0.125,53,26.67
769,B2,82.25,0.125,53,26.67
770,E-3,82.25,0.125,53,26.67
771,F#3,82.25,0.125,53,26.67
772,A2,82.417,0.125,50,26.67
773,B2,82.417,0.125,50,26.67
774,E-3,82.417,0.125,50,26.67
775,F#3,82.417,0.125,50,26.67
776,A2,82.583,0.125,50,26.67
777,B2,82.583,0.125,50,26.67
778,E-3,82.583,0.125,50,26.67
779,F#3,82.583,0.125,50,26.67
780,B4,82.75,0.5,56,26.67
781,A2,82.75,0.125,50,26.67
782,B2,82.75,0.125,50,26.67
783,E-3,82.75,0.125,50,26.67
784,F#3,82.75,0.125,50,26.67
785,A2,82.917,0.125,50,26.67
786,B2,82.917,0.125,50,26.67
787,E-3,82.917,0.125,50,26.67
788,F#3,82.917,0.125,50,26.67
789,A2,83.083,0.125,50,26.67
790,B2,83.083,0.125,50,26.67
791,E-3,83.083,0.125,50,26.67
792,F#3,83.083,0.125,50,26.67
793,B-4,83.25,0.5,61,26.67
794,G#2,83.25,0.125,56,26.67
795,B2,83.25,0.125,56,26.67
796,E3,83.25,0.125,56,26.67
797,G#3,83.25,0.125,56,26.67
798,G#2,83.417,0.125,50,26.67
799,B2,83.417,0.125,50,26.67
800,E3,83.417,0.125,50,26.67
801,G#3,83.417,0.125,50,26.67
802,G#2,83.583,0.125,50,26.67
803,B2,83.583,0.125,50,26.67
804,E3,83.583,0.125,50,26.67
805,G#3,83.583,0.125,50,26.67
806,G#4,83.75,0.5,65,26.67
807,G#2,83.75,0.125,50,26.67
808,B2,83.75,0.125,50,26.67
809,E3,83.75,0.125,50,26.67
810,G#3,83.75,0.125,50,26.67
811,G#2,83.917,0.125,50,26.67
812,B2,83.917,0.125,50,26.67
813,E3,83.917,0.125,50,26.67
814,G#3,83.917,0.125,50,26.67
815,G#2,84.083,0.125,50,26.67
816,B2,84.083,0.125,50,26.67
817,E3,84.083,0.125,50,26.67
818,G#3,84.083,0.125,50,26.67
819,F#4,84.25,0.5,73,26.67
820,F#5,84.25,667/1000,86,26.67
821,C#3,84.25,0.125,56,26.67
822,E3,84.25,0.125,56,26.67
823,F#3,84.25,0.125,56,26.67
824,B-3,84.25,0.125,56,26.67
825,C#3,84.417,0.125,48,26.67
826,E3,84.417,0.125,48,26.67
827,F#3,84.417,0.125,48,26.67
828,B-3,84.417,0.125,48,26.67
829,C#3,84.583,0.125,48,26.67
830,E3,84.583,0.125,48,26.67
831,F#3,84.583,0.125,48,26.67
832,B-3,84.583,0.125,48,26.67
833,C#3,84.75,0.125,48,26.67
834,E3,84.75,0.125,48,26.67
835,F#3,84.75,0.125,48,26.67
836,B-3,84.75,0.125,48,26.67
837,E-5,84.917,167/1000,85,26.67
838,C#3,84.917,0.125,48,26.67
839,E3,84.917,0.125,48,26.67
840,F#3,84.917,0.125,48,26.67
841,B-3,84.917,0.125,48,26.67
842,B4,85.083,167/1000,85,26.67
843,C#3,85.083,0.125,48,26.67
844,E3,85.083,0.125,48,26.67
845,F#3,85.083,0.125,48,26.67
846,B-3,85.083,0.125,48,26.67
847,B4,85.25,0.5,81,26.67
848,B5,85.25,667/1000,96,26.67
849,B2,85.25,0.125,62,26.67
850,E3,85.25,0.125,62,26.67
851,G#3,85.25,0.125,62,26.67
852,B3,85.25,0.125,62,26.67
853,B2,85.417,0.125,56,26.67
854,E3,85.417,0.125,56,26.67
855,G#3,85.417,0.125,56,26.67
856,B3,85.417,0.125,56,26.67
857,B2,85.583,0.125,56,26.67
858,E3,85.583,0.125,56,26.67
859,G#3,85.583,0.125,56,26.67
860,B3,85.583,0.125,56,26.67
861,B1,85.75,0.125,60,26.67
862,B2,85.75,0.125,60,26.67
863,G#5,85.917,167/1000,93,26.67
864,B1,85.917,0.125,60,26.67
865,B2,85.917,0.125,60,26.67
866,E5,86.083,167/1000,93,26.67
867,B1,86.083,0.125,60,26.67
868,B2,86.083,0.125,60,26.67
869,E5,86.25,0.5,88,26.67
870,E6,86.25,667/1000,104,26.67
871,G#3,86.25,0.125,58,26.67
872,B3,86.25,0.125,58,26.67
873,E2,86.25,0.5,55,26.67
874,E3,86.25,0.5,55,26.67
875,G#3,86.417,0.125,35,26.67
876,B3,86.417,0.125,35,26.67
877,G#3,86.583,0.125,35,26.67
878,B3,86.583,0.125,35,26.67
879,G#3,86.75,0.125,35,26.67
880,B3,86.75,0.125,35,26.67
881,C#6,86.917,167/1000,92,26.67
882,G#3,86.917,0.125,35,26.67
883,B3,86.917,0.125,35,26.67
884,B-5,87.083,167/1000,92,26.67
885,G#3,87.083,0.125,35,26.67
886,B3,87.083,0.125,35,26.67
887,B4,87.25,0.25,88,26.67
888,B5,87.25,0.25,88,26.67
889,G#3,87.25,0.125,33,26.67
890,B3,87.25,0.125,33,26.67
891,G#3,87.417,0.125,33,26.67
892,B3,87.417,0.125,33,26.67
893,G#3,87.583,0.125,32,26.67
894,B3,87.583,0.125,32,26.67
895,F#3,87.75,0.25,80,26.67
896,A3,87.75,0.25,80,26.67
897,B3,87.75,0.25,80,26.67
898,E-4,87.75,0.25,80,26.67
899,G#3,87.75,0.125,31,26.67
900,B3,87.75,0.125,31,26.67
901,G#3,87.917,0.125,30,26.67
902,B3,87.917,0.125,30,26.67
903,G#3,88.083,0.125,29,26.67
904,B3,88.083,0.125,29,26.67
905,E4,88.25,0.25,86,26.67
906,G#3,88.25,0.125,26,26.67
907,B3,88.25,0.125,26,26.67
908,E2,88.25,1.0,33,26.67
909,E3,88.25,1.0,33,26.67
910,G#3,88.417,0.125,26,26.67
911,B3,88.417,0.125,26,26.67
912,G#3,88.583,0.125,26,26.67
913,B3,88.583,0.125,26,26.67
914,G#3,88.75,0.125,26,26.67
915,B3,88.75,0.125,26,26.67
916,G#3,88.917,0.125,28,26.67
917,B3,88.917,0.125,28,26.67
918,G#3,89.083,0.125,28,26.67
919,B3,89.083,0.125,28,26.67
920,G#3,89.25,0.125,28,26.67
921,B3,89.25,0.125,28,26.67
922,G#3,89.417,0.125,28,26.67
923,B3,89.417,0.125,28,26.67
924,G#3,89.583,0.125,28,26.67
925,B3,89.583,0.125,28,26.67
926,G#3,89.75,0.125,28,26.67
927,B3,89.75,0.125,28,26.67
928,G#3,89.917,0.125,28,26.67
929,B3,89.917,0.125,28,26.67
930,G#3,90.083,0.125,28,26.67
931,B3,90.083,0.125,28,26.67
932,E4,90.25,0.5,50,26.67
933,F#3,90.25,667/1000,36,26.67
934,A3,90.25,0.125,28,26.67
935,B3,90.25,0.125,28,26.67
936,A3,90.417,0.125,28,26.67
937,B3,90.417,0.125,28,26.67
938,A3,90.583,0.125,28,26.67
939,B3,90.583,0.125,28,26.67
940,G#4,90.75,0.5,47,26.67
941,A3,90.75,0.125,28,26.67
942,B3,90.75,0.125,28,26.67
943,F#3,90.917,167/1000,36,26.67
944,A3,90.917,0.125,28,26.67
945,B3,90.917,0.125,28,26.67
946,F3,91.083,167/1000,36,26.67
947,A3,91.083,0.125,28,26.67
948,B3,91.083,0.125,28,26.67
949,F#4,91.25,0.5,47,26.67
950,F#3,91.25,0.125,36,26.67
951,A3,91.25,0.125,28,26.67
952,B3,91.25,0.125,28,26.67
953,F#3,91.417,0.125,36,26.67
954,A3,91.417,0.125,28,26.67
955,B3,91.417,0.125,28,26.67
956,E3,91.583,0.125,33,26.67
957,A3,91.583,0.125,28,26.67
958,B3,91.583,0.125,28,26.67
959,E4,91.75,0.5,46,26.67
960,E-3,91.75,0.125,36,26.67
961,A3,91.75,0.125,28,26.67
962,B3,91.75,0.125,28,26.67
963,C#3,91.917,0.125,32,26.67
964,A3,91.917,0.125,28,26.67
965,B3,91.917,0.125,28,26.67
966,B2,92.083,0.125,32,26.67
967,A3,92.083,0.125,28,26.67
968,B3,92.083,0.125,28,26.67
969,E-4,92.25,0.5,51,26.67
970,E3,92.25,1.0,33,26.67
971,G#3,92.25,0.125,26,26.67
972,B3,92.25,0.125,26,26.67
973,G#3,92.417,0.125,26,26.67
974,B3,92.417,0.125,26,26.67
975,G#3,92.583,0.125,26,26.67
976,B3,92.583,0.125,26,26.67
977,A4,92.75,0.5,47,26.67
978,G#3,92.75,0.125,26,26.67
979,B3,92.75,0.125,26,26.67
980,G#3,92.917,0.125,28,26.67
981,B3,92.917,0.125,28,26.67
982,G#3,93.083,0.125,28,26.67
983,B3,93.083,0.125,28,26.67
984,G#3,93.25,0.125,28,26.67
985,B3,93.25,0.125,28,26.67
986,G#3,93.417,0.125,28,26.67
987,B3,93.417,0.125,28,26.67
988,G#3,93.583,0.125,28,26.67
989,B3,93.583,0.125,28,26.67
990,G#3,93.75,0.125,28,26.67
991,B3,93.75,0.125,28,26.67
992,G#3,93.917,0.125,28,26.67
993,B3,93.917,0.125,28,26.67
994,G#3,94.083,0.125,28,26.67
995,B3,94.083,0.125,28,26.67
996,E4,94.25,0.5,50,26.67
997,D3,94.25,0.125,26,26.67
998,G#3,94.25,0.125,26,26.67
999,B3,94.25,0.125,26,26.67
1000,F1,94.417,83/1000,41,26.67
1001,D3,94.417,0.125,26,26.67
1002,G#3,94.417,0.125,26,26.67
1003,B3,94.417,0.125,26,26.67
1004,G#1,94.583,83/1000,44,26.67
1005,D3,94.583,0.125,26,26.67
1006,G#3,94.583,0.125,26,26.67
1007,B3,94.583,0.125,26,26.67
1008,G#4,94.75,0.5,47,26.67
1009,B1,94.75,83/1000,46,26.67
1010,D3,94.75,0.125,26,26.67
1011,G#3,94.75,0.125,26,26.67
1012,B3,94.75,0.125,26,26.67
1013,D2,94.917,83/1000,47,26.67
1014,D3,94.917,0.125,26,26.67
1015,G#3,94.917,0.125,26,26.67
1016,B3,94.917,0.125,26,26.67
1017,F2,95.083,83/1000,49,26.67
1018,D3,95.083,0.125,26,26.67
1019,G#3,95.083,0.125,26,26.67
1020,B3,95.083,0.125,26,26.67
1021,E4,95.25,0.5,47,26.67
1022,G#2,95.25,0.5,51,26.67
1023,D3,95.25,0.125,26,26.67
1024,G#3,95.25,0.125,26,26.67
1025,B3,95.25,0.125,26,26.67
1026,D3,95.417,0.125,26,26.67
1027,G#3,95.417,0.125,26,26.67
1028,B3,95.417,0.125,26,26.67
1029,D3,95.583,0.125,26,26.67
1030,G#3,95.583,0.125,26,26.67
1031,B3,95.583,0.125,26,26.67
1032,E-4,95.75,0.5,46,26.67
1033,D3,95.75,0.125,26,26.67
1034,G#3,95.75,0.125,26,26.67
1035,B3,95.75,0.125,26,26.67
1036,D3,95.917,0.125,26,26.67
1037,G#3,95.917,0.125,26,26.67
1038,B3,95.917,0.125,26,26.67
1039,D3,96.083,0.125,26,26.67
1040,G#3,96.083,0.125,26,26.67
1041,B3,96.083,0.125,26,26.67
1042,D4,96.25,1.5,54,26.67
1043,D3,96.25,0.125,27,26.67
1044,G#3,96.25,0.125,27,26.67
1045,B3,96.25,0.125,27,26.67
1046,F1,96.417,83/1000,42,26.67
1047,D3,96.417,0.125,27,26.67
1048,G#3,96.417,0.125,27,26.67
1049,B3,96.417,0.125,27,26.67
1050,G#1,96.583,83/1000,46,26.67
1051,D3,96.583,0.125,27,26.67
1052,G#3,96.583,0.125,27,26.67
1053,B3,96.583,0.125,27,26.67
1054,B1,96.75,83/1000,48,26.67
1055,D3,96.75,0.125,27,26.67
1056,G#3,96.75,0.125,27,26.67
1057,B3,96.75,0.125,27,26.67
1058,D2,96.917,83/1000,49,26.67
1059,D3,96.917,0.125,27,26.67
1060,G#3,96.917,0.125,27,26.67
1061,B3,96.917,0.125,27,26.67
1062,F2,97.083,83/1000,51,26.67
1063,D3,97.083,0.125,27,26.67
1064,G#3,97.083,0.125,27,26.67
1065,B3,97.083,0.125,27,26.67
1066,G#2,97.25,0.5,53,26.67
1067,D3,97.25,0.125,27,26.67
1068,G#3,97.25,0.125,27,26.67
1069,B3,97.25,0.125,27,26.67
1070,D3,97.417,0.125,27,26.67
1071,G#3,97.417,0.125,27,26.67
1072,B3,97.417,0.125,27,26.67
1073,D3,97.583,0.125,27,26.67
1074,G#3,97.583,0.125,27,26.67
1075,B3,97.583,0.125,27,26.67
1076,D4,97.75,0.5,51,26.67
1077,D3,97.75,0.125,27,26.67
1078,G#3,97.75,0.125,27,26.67
1079,B3,97.75,0.125,27,26.67
1080,D3,97.917,0.125,27,26.67
1081,G#3,97.917,0.125,27,26.67
1082,B3,97.917,0.125,27,26.67
1083,D3,98.083,0.125,27,26.67
1084,G#3,98.083,0.125,27,26.67
1085,B3,98.083,0.125,27,26.67
1086,D4,98.25,1.5,56,26.67
1087,C#3,98.25,0.125,28,26.67
1088,G#3,98.25,0.125,28,26.67
1089,B-3,98.25,0.125,28,26.67
1090,E2,98.417,83/1000,45,26.67
1091,C#3,98.417,0.125,28,26.67
1092,G#3,98.417,0.125,28,26.67
1093,B-3,98.417,0.125,28,26.67
1094,G#2,98.583,83/1000,48,26.67
1095,C#3,98.583,0.125,28,26.67
1096,G#3,98.583,0.125,28,26.67
1097,B-3,98.583,0.125,28,26.67
1098,B-2,98.75,0.25,51,26.67
1099,C#3,98.75,0.125,28,26.67
1100,G#3,98.75,0.125,28,26.67
1101,B-3,98.75,0.125,28,26.67
1102,C#3,98.917,0.125,29,26.67
1103,G#3,98.917,0.125,29,26.67
1104,B-3,98.917,0.125,29,26.67
1105,C#3,99.083,0.125,30,26.67
1106,G#3,99.083,0.125,30,26.67
1107,B-3,99.083,0.125,30,26.67
1108,C#3,99.25,0.125,30,26.67
1109,G3,99.25,0.125,30,26.67
1110,B-3,99.25,0.125,30,26.67
1111,E-2,99.417,83/1000,57,26.67
1112,C#3,99.417,0.125,30,26.67
1113,G3,99.417,0.125,30,26.67
1114,B-3,99.417,0.125,30,26.67
1115,G2,99.583,83/1000,60,26.67
1116,C#3,99.583,0.125,30,26.67
1117,G3,99.583,0.125,30,26.67
1118,B-3,99.583,0.125,30,26.67
1119,D4,99.75,0.5,53,26.67
1120,B-2,99.75,0.25,64,26.67
1121,E-3,99.75,0.125,29,26.67
1122,C#3,99.75,0.125,29,26.67
1123,G3,99.75,0.125,29,26.67
1124,B-3,99.75,0.125,29,26.67
1125,E-3,99.917,0.125,29,26.67
1126,C#3,99.917,0.125,29,26.67
1127,G3,99.917,0.125,29,26.67
1128,B-3,99.917,0.125,29,26.67
1129,E-3,100.083,0.125,29,26.67
1130,C#3,100.083,0.125,29,26.67
1131,G3,100.083,0.125,29,26.67
1132,B-3,100.083,0.125,29,26.67
1133,C#4,100.25,1.5,59,26.67
1134,C3,100.25,167/1000,28,26.67
1135,G#1,100.25,1.0,37,26.67
1136,G#2,100.25,1.0,37,26.67
1137,E-3,100.417,0.125,26,26.67
1138,E-3,100.583,0.125,26,26.67
1139,G#3,100.75,167/1000,28,26.67
1140,E-3,100.917,0.125,26,26.67
1141,E-3,101.083,0.125,26,26.67
1142,C#3,101.25,1.0,35,26.67
1143,G3,101.25,167/1000,28,26.67
1144,E-3,101.417,0.125,26,26.67
1145,E-3,101.583,0.125,26,26.67
1146,C#4,101.75,0.5,72,26.67
1147,G3,101.75,167/1000,28,26.67
1148,E-3,101.917,0.125,27,26.67
1149,E-3,102.083,0.125,27,26.67
1150,C4,102.25,1.0,50,26.67
1151,C3,102.25,1.0,40,26.67
1152,G#3,102.25,167/1000,28,26.67
1153,E-3,102.417,0.125,26,26.67
1154,E-3,102.583,0.125,26,26.67
1155,G#3,102.75,167/1000,28,26.67
1156,E-3,102.917,0.125,26,26.67
1157,E-3,103.083,0.125,26,26.67
1158,B-3,103.25,1.0,46,26.67
1159,G2,103.25,1.0,37,26.67
1160,B-3,103.25,167/1000,28,26.67
1161,E-3,103.417,0.125,25,26.67
1162,E-3,103.583,0.125,25,26.67
1163,B-3,103.75,167/1000,25,26.67
1164,E-3,103.917,0.125,25,26.67
1165,E-3,104.083,0.125,25,26.67
1166,E-4,104.25,1.5,50,26.67
1167,G#2,104.25,0.5,33,26.67
1168,G#3,104.25,167/1000,29,26.67
1169,E-3,104.417,0.125,27,26.67
1170,E-3,104.583,0.125,27,26.67
1171,G2,104.75,0.5,35,26.67
1172,B-3,104.75,167/1000,26,26.67
1173,E-3,104.917,0.125,26,26.67
1174,E-3,105.083,0.125,26,26.67
1175,F2,105.25,0.5,38,26.67
1176,C4,105.25,167/1000,30,26.67
1177,G#3,105.417,0.125,27,26.67
1178,G#3,105.583,0.125,27,26.67
1179,C#4,105.75,0.5,48,26.67
1180,F3,105.75,0.5,40,26.67
1181,D4,105.75,167/1000,27,26.67
1182,G#3,105.917,0.125,27,26.67
1183,G#3,106.083,0.125,25,26.67
1184,C4,106.25,0.5,47,26.67
1185,E-3,106.25,1.0,36,26.67
1186,G3,106.25,167/1000,28,26.67
1187,B-3,106.417,0.125,27,26.67
1188,B-3,106.583,0.125,27,26.67
1189,E-4,106.75,0.5,49,26.67
1190,G3,106.75,167/1000,23,26.67
1191,B-3,106.917,0.125,23,26.67
1192,B-3,107.083,0.125,23,26.67
1193,G#4,107.25,0.5,51,26.67
1194,E-2,107.25,1.0,35,26.67
1195,G3,107.25,167/1000,28,26.67
1196,B-3,107.417,0.125,26,26.67
1197,B-3,107.583,0.125,26,26.67
1198,B-4,107.75,0.5,56,26.67
1199,G3,107.75,167/1000,25,26.67
1200,B-3,107.917,0.125,25,26.67
1201,B-3,108.083,0.125,25,26.67
1202,E-4,108.25,1.5,50,26.67
1203,C#2,108.25,1.0,40,26.67
1204,G3,108.25,167/1000,28,26.67
1205,B-3,108.417,0.125,25,26.67
1206,B-3,108.583,0.125,25,26.67
1207,G3,108.75,167/1000,26,26.67
1208,B-3,108.917,0.125,26,26.67
1209,B-3,109.083,123/1000,26,26.67
1210,C#3,109.25,1.0,36,26.67
1211,G3,109.25,167/1000,28,26.67
1212,E-3,109.417,0.125,26,26.67
1213,E-3,109.583,0.125,26,26.67
1214,E4,109.75,0.5,46,26.67
1215,G3,109.75,167/1000,24,26.67
1216,E-3,109.917,0.125,24,26.67
1217,E-3,110.083,0.125,24,26.67
1218,F4,110.25,1.0,50,26.67
1219,C3,110.25,1.0,40,26.67
1220,G#3,110.25,167/1000,28,26.67
1221,E-3,110.417,0.125,26,26.67
1222,E-3,110.583,0.125,26,26.67
1223,G#3,110.75,167/1000,27,26.67
1224,E-3,110.917,0.125,25,26.67
1225,E-3,111.083,0.125,25,26.67
1226,B-3,111.25,0.75,50,26.67
1227,F2,111.25,1.0,36,26.67
1228,E-3,111.25,167/1000,28,26.67
1229,C3,111.417,0.125,25,26.67
1230,C3,111.583,0.125,25,26.67
1231,E-3,111.75,167/1000,26,26.67
1232,C3,111.917,0.125,26,26.67
1233,C4,112.0,0.125,46,26.67
1234,C3,112.083,0.125,26,26.67
1235,C#4,112.125,0.125,46,26.67
1236,E-4,112.25,1.0,50,26.67
1237,B-1,112.25,1.0,40,26.67
1238,F3,112.25,167/1000,29,26.67
1239,C#3,112.417,0.125,26,26.67
1240,C#3,112.583,0.125,26,26.67
1241,F3,112.75,167/1000,27,26.67
1242,C#3,112.917,0.125,25,26.67
1243,C#3,113.083,0.125,25,26.67
1244,A3,113.25,1.0,48,26.67
1245,E-2,113.25,1.0,34,26.67
1246,G3,113.25,167/1000,30,26.67
1247,C#3,113.417,0.125,28,26.67
1248,C#3,113.583,0.125,28,26.67
1249,C#3,113.75,0.125,28,26.67
1250,C#3,113.917,0.125,25,26.67
1251,C#3,114.083,0.125,25,26.67
1252,C#4,114.25,1.0,50,26.67
1253,G#1,114.25,0.5,37,26.67
1254,C#3,114.25,167/1000,31,26.67
1255,E-3,114.417,0.125,28,26.67
1256,E-3,114.583,0.125,28,26.67
1257,G#2,114.75,0.5,29,26.67
1258,C#3,114.75,167/1000,28,26.67
1259,E-3,114.917,0.125,25,26.67
1260,E-3,115.083,0.125,25,26.67
1261,C#4,115.25,167/1000,52,26.67
1262,C3,115.25,0.125,36,26.67
1263,G#1,115.25,0.5,36,26.67
1264,C4,115.417,167/1000,46,26.67
1265,E-3,115.417,0.125,34,26.67
1266,B-3,115.583,167/1000,46,26.67
1267,G#3,115.583,0.125,34,26.67
1268,B-3,115.75,167/1000,51,26.67
1269,G#3,115.917,167/1000,47,26.67
1270,G3,116.083,167/1000,47,26.67
1271,C4,116.25,167/1000,28,26.67
1272,G#2,116.25,1.0,40,26.67
1273,G#3,116.25,167/1000,28,26.67
1274,G3,116.25,1.0,45,26.67
1275,B-3,116.25,1.0,45,26.67
1276,E-4,116.417,0.125,26,26.67
1277,E-3,116.417,0.125,26,26.67
1278,E-4,116.583,0.125,26,26.67
1279,E-3,116.583,0.125,26,26.67
1280,C4,116.75,167/1000,26,26.67
1281,G#3,116.75,167/1000,28,26.67
1282,E-4,116.917,0.125,26,26.67
1283,E-3,116.917,0.125,26,26.67
1284,E-4,117.083,0.125,26,26.67
1285,E-3,117.083,0.125,26,26.67
1286,G#3,117.25,0.5,50,26.67
1287,B-3,117.25,167/1000,28,26.67
1288,C#3,117.25,1.0,35,26.67
1289,G3,117.25,167/1000,28,26.67
1290,E-4,117.417,0.125,26,26.67
1291,E-3,117.417,0.125,26,26.67
1292,E-4,117.583,0.125,26,26.67
1293,E-3,117.583,0.125,26,26.67
1294,C4,117.75,0.125,36,26.67
1295,B-3,117.75,167/1000,26,26.67
1296,G3,117.75,167/1000,28,26.67
1297,E-4,117.917,0.125,35,26.67
1298,E-4,117.917,0.125,26,26.67
1299,E-3,117.917,0.125,27,26.67
1300,G#4,118.083,0.125,35,26.67
1301,E-4,118.083,0.125,26,26.67
1302,E-3,118.083,0.125,27,26.67
1303,C5,118.25,1.0,50,26.67
1304,E-4,118.25,167/1000,28,26.67
1305,C3,118.25,1.0,40,26.67
1306,G#3,118.25,167/1000,28,26.67
1307,G#4,118.417,0.125,26,26.67
1308,E-3,118.417,0.125,26,26.67
1309,G#4,118.583,0.125,26,26.67
1310,E-3,118.583,0.125,26,26.67
1311,E-4,118.75,167/1000,25,26.67
1312,G#3,118.75,167/1000,28,26.67
1313,G#4,118.917,0.125,25,26.67
1314,E-3,118.917,0.125,26,26.67
1315,G#4,119.083,0.125,25,26.67
1316,E-3,119.083,0.125,26,26.67
1317,B-4,119.25,1.0,46,26.67
1318,E-4,119.25,167/1000,28,26.67
1319,G2,119.25,1.0,37,26.67
1320,G3,119.25,167/1000,28,26.67
1321,B-4,119.417,0.125,26,26.67
1322,E-3,119.417,0.125,25,26.67
1323,B-4,119.583,0.125,26,26.67
1324,E-3,119.583,0.125,25,26.67
1325,E-4,119.75,167/1000,25,26.67
1326,G3,119.75,167/1000,25,26.67
1327,B-4,119.917,0.125,25,26.67
1328,E-3,119.917,0.125,25,26.67
1329,B-4,120.083,0.125,25,26.67
1330,E-3,120.083,0.125,25,26.67
1331,E-5,120.25,1.5,50,26.67
1332,E-4,120.25,167/1000,29,26.67
1333,G#2,120.25,0.5,33,26.67
1334,G#3,120.25,167/1000,29,26.67
1335,G#4,120.417,0.125,27,26.67
1336,E-3,120.417,0.125,27,26.67
1337,G#4,120.583,0.125,26,26.67
1338,E-3,120.583,0.125,27,26.67
1339,E-4,120.75,167/1000,26,26.67
1340,G2,120.75,0.5,35,26.67
1341,G3,120.75,167/1000,26,26.67
1342,B-4,120.917,0.125,26,26.67
1343,E-3,120.917,0.125,26,26.67
1344,B-4,121.083,0.125,26,26.67
1345,E-3,121.083,0.125,26,26.67
1346,G#4,121.25,167/1000,30,26.67
1347,F2,121.25,0.5,38,26.67
1348,F3,121.25,167/1000,30,26.67
1349,C5,121.417,0.125,28,26.67
1350,G#2,121.417,0.125,27,26.67
1351,C5,121.583,0.125,28,26.67
1352,G#2,121.583,0.125,27,26.67
1353,C#5,121.75,0.5,48,26.67
1354,G#4,121.75,167/1000,27,26.67
1355,F2,121.75,0.5,40,26.67
1356,F3,121.75,167/1000,27,26.67
1357,D5,121.917,0.125,27,26.67
1358,G#2,121.917,0.125,27,26.67
1359,D5,122.083,0.125,27,26.67
1360,G#2,122.083,0.125,25,26.67
1361,C5,122.25,0.5,47,26.67
1362,G4,122.25,167/1000,30,26.67
1363,E-2,122.25,83/1000,50,26.67
1364,B-4,122.417,0.125,28,26.67
1365,G2,122.417,83/1000,44,26.67
1366,B-4,122.583,0.125,28,26.67
1367,B-2,122.583,83/1000,45,26.67
1368,E-5,122.75,0.5,49,26.67
1369,G4,122.75,167/1000,27,26.67
1370,E-3,122.75,83/1000,47,26.67
1371,B-4,122.917,0.125,23,26.67
1372,G3,122.917,83/1000,49,26.67
1373,B-4,123.083,0.125,23,26.67
1374,B-3,123.083,83/1000,50,26.67
1375,G#5,123.25,0.5,51,26.67
1376,G4,123.25,167/1000,32,26.67
1377,E-4,123.25,1.0,52,26.67
1378,B-4,123.417,0.125,28,26.67
1379,B-4,123.583,0.125,28,26.67
1380,B-5,123.75,0.5,56,26.67
1381,G4,123.75,167/1000,33,26.67
1382,B-4,123.917,0.125,29,26.67
1383,B-4,124.083,0.125,28,26.67
1384,E-5,124.25,1.5,50,26.67
1385,G4,124.25,167/1000,35,26.67
1386,C#2,124.25,83/1000,50,26.67
1387,B-4,124.417,0.125,28,26.67
1388,G2,124.417,83/1000,43,26.67
1389,B-4,124.583,0.125,28,26.67
1390,B-2,124.583,83/1000,44,26.67
1391,G4,124.75,167/1000,32,26.67
1392,C#3,124.75,83/1000,46,26.67
1393,B-4,124.917,0.125,26,26.67
1394,G3,124.917,83/1000,47,26.67
1395,B-4,125.083,123/1000,26,26.67
1396,B-3,125.083,83/1000,49,26.67
1397,G4,125.25,167/1000,34,26.67
1398,C#4,125.25,1.0,50,26.67
1399,E-4,125.417,0.125,27,26.67
1400,E-4,125.583,0.125,27,26.67
1401,E5,125.75,0.5,55,26.67
1402,G4,125.75,167/1000,33,26.67
1403,E-4,125.917,0.125,27,26.67
1404,E-4,126.083,0.125,25,26.67
1405,F5,126.25,1.0,59,26.67
1406,G#4,126.25,167/1000,30,26.67
1407,C4,126.25,1.0,40,26.67
1408,E-4,126.417,0.125,28,26.67
1409,E-4,126.583,0.125,28,26.67
1410,G#4,126.75,167/1000,27,26.67
1411,E-4,126.917,0.125,23,26.67
1412,E-4,127.083,0.125,23,26.67
1413,B-4,127.25,0.75,57,26.67
1414,E-4,127.25,167/1000,28,26.67
1415,F3,127.25,1.0,36,26.67
1416,C4,127.417,0.125,26,26.67
1417,C4,127.583,0.125,26,26.67
1418,E-4,127.75,167/1000,28,26.67
1419,C4,127.917,0.125,25,26.67
1420,C5,128.0,0.125,56,26.67
1421,C4,128.083,0.125,25,26.67
1422,C#5,128.125,0.125,58,26.67
1423,E-5,128.25,1.0,60,26.67
1424,F4,128.25,167/1000,29,26.67
1425,B-2,128.25,1.0,40,26.67
1426,C#4,128.417,0.125,28,26.67
1427,C#4,128.583,0.125,27,26.67
1428,F4,128.75,167/1000,27,26.67
1429,C#4,128.917,0.125,27,26.67
1430,C#4,129.083,0.125,27,26.67
1431,A4,129.25,1.0,48,26.67
1432,G4,129.25,167/1000,30,26.67
1433,E-2,129.25,0.5,34,26.67
1434,B-2,129.25,167/1000,27,26.67
1435,C#4,129.417,0.125,28,26.67
1436,E-3,129.417,0.125,25,26.67
1437,C#4,129.583,0.125,28,26.67
1438,E-3,129.583,0.125,25,26.67
1439,C#4,129.75,0.125,28,26.67
1440,E-2,129.75,0.5,30,26.67
1441,C#4,129.917,0.125,28,26.67
1442,E-3,129.917,0.125,25,26.67
1443,C#4,130.083,0.125,28,26.67
1444,E-3,130.083,0.125,25,26.67
1445,C#5,130.25,1.0,50,26.67
1446,G#2,130.25,167/1000,29,26.67
1447,E-3,130.417,0.125,25,26.67
1448,E-3,130.583,0.125,25,26.67
1449,E-3,130.75,0.125,25,26.67
1450,E-3,130.917,0.125,25,26.67
1451,E-3,131.083,0.125,25,26.67
1452,C#5,131.25,167/1000,48,26.67
1453,E-3,131.25,3/20,25,26.67
1454,C5,131.417,167/1000,47,26.67
1455,E-3,131.417,3/20,25,26.67
1456,B-4,131.583,0.125,47,26.67
1457,E-3,131.583,3/20,25,26.67
1458,B-4,131.75,167/1000,48,26.67
1459,E-3,131.75,3/20,26,26.67
1460,G#4,131.917,167/1000,46,26.67
1461,E-3,131.917,3/20,27,26.67
1462,G4,132.083,167/1000,46,26.67
1463,E-3,132.083,3/20,28,26.67
1464,C4,132.25,0.5,52,26.67
1465,G#4,132.25,0.5,52,26.67
1466,E-2,132.25,3/20,26,26.67
1467,C#3,132.25,3/20,26,26.67
1468,E-3,132.25,3/20,26,26.67
1469,E-2,132.417,3/20,22,26.67
1470,C#3,132.417,3/20,22,26.67
1471,E-3,132.417,3/20,22,26.67
1472,E-2,132.583,3/20,22,26.67
1473,C#3,132.583,3/20,22,26.67
1474,E-3,132.583,3/20,22,26.67
1475,E-2,132.75,3/20,22,26.67
1476,C#3,132.75,3/20,22,26.67
1477,E-3,132.75,3/20,22,26.67
1478,E-2,132.917,3/20,22,26.67
1479,C#3,132.917,3/20,22,26.67
1480,E-3,132.917,3/20,22,26.67
1481,E-2,133.083,3/20,22,26.67
1482,C#3,133.083,3/20,22,26.67
1483,E-3,133.083,3/20,22,26.67
1484,E-2,133.25,3/20,23,26.67
1485,C#3,133.25,3/20,23,26.67
1486,E-3,133.25,3/20,23,26.67
1487,E-2,133.417,3/20,23,26.67
1488,C#3,133.417,3/20,23,26.67
1489,E-3,133.417,3/20,23,26.67
1490,E-2,133.583,3/20,24,26.67
1491,C#3,133.583,3/20,24,26.67
1492,E-3,133.583,3/20,24,26.67
1493,E-5,133.75,0.375,50,26.67
1494,E-2,133.75,3/20,22,26.67
1495,C#3,133.75,3/20,22,26.67
1496,E-3,133.75,3/20,22,26.67
1497,E-2,133.917,3/20,22,26.67
1498,C#3,133.917,3/20,22,26.67
1499,E-3,133.917,3/20,22,26.67
1500,E-2,134.083,3/20,22,26.67
1501,C#3,134.083,3/20,22,26.67
1502,E-3,134.083,3/20,22,26.67
1503,E5,134.125,0.125,50,26.67
1504,F5,134.25,667/1000,55,26.67
1505,G#2,134.25,3/20,22,26.67
1506,C3,134.25,3/20,22,26.67
1507,E-3,134.25,3/20,22,26.67
1508,E-3,134.417,3/20,25,26.67
1509,E-3,134.583,3/20,25,26.67
1510,E-3,134.75,3/20,25,26.67
1511,E-5,134.917,167/1000,51,26.67
1512,E-3,134.917,3/20,25,26.67
1513,C#5,135.083,167/1000,51,26.67
1514,E-3,135.083,3/20,25,26.67
1515,C5,135.25,167/1000,52,26.67
1516,E-3,135.25,3/20,25,26.67
1517,B-4,135.417,167/1000,53,26.67
1518,E-3,135.417,3/20,25,26.67
1519,G#4,135.583,167/1000,54,26.67
1520,E-3,135.583,3/20,25,26.67
1521,G4,135.75,0.125,58,26.67
1522,E-3,135.75,3/20,26,26.67
1523,C#5,135.875,0.125,53,26.67
1524,E-3,135.917,3/20,27,26.67
1525,B-4,136.0,0.125,51,26.67
1526,E-3,136.083,3/20,28,26.67
1527,G4,136.125,0.125,50,26.67
1528,G#4,136.25,167/1000,52,26.67
1529,E-2,136.25,3/20,26,26.67
1530,C#3,136.25,3/20,26,26.67
1531,E-3,136.25,3/20,26,26.67
1532,B-4,136.417,27/500,42,26.67
1533,G#4,136.417,27/500,42,26.67
1534,E-2,136.417,3/20,22,26.67
1535,C#3,136.417,3/20,22,26.67
1536,E-3,136.417,3/20,22,26.67
1537,G4,136.525,27/500,39,26.67
1538,G#4,136.583,0.125,44,26.67
1539,E-2,136.583,3/20,22,26.67
1540,C#3,136.583,3/20,22,26.67
1541,E-3,136.583,3/20,22,26.67
1542,C5,136.708,21/500,46,26.67
1543,E-4,136.75,0.5,46,26.67
1544,E-2,136.75,3/20,22,26.67
1545,C#3,136.75,3/20,22,26.67
1546,E-3,136.75,3/20,22,26.67
1547,E-2,136.917,3/20,22,26.67
1548,C#3,136.917,3/20,22,26.67
1549,E-3,136.917,3/20,22,26.67
1550,E-2,137.083,3/20,22,26.67
1551,C#3,137.083,3/20,22,26.67
1552,E-3,137.083,3/20,22,26.67
1553,E-2,137.25,3/20,23,26.67
1554,C#3,137.25,3/20,23,26.67
1555,E-3,137.25,3/20,23,26.67
1556,E-2,137.417,3/20,23,26.67
1557,C#3,137.417,3/20,23,26.67
1558,E-3,137.417,3/20,23,26.67
1559,E-2,137.583,3/20,24,26.67
1560,C#3,137.583,3/20,24,26.67
1561,E-3,137.583,3/20,24,26.67
1562,E-6,137.75,0.375,46,26.67
1563,E-5,137.75,0.375,46,26.67
1564,E-2,137.75,3/20,22,26.67
1565,C#3,137.75,3/20,22,26.67
1566,E-3,137.75,3/20,22,26.67
1567,E-2,137.917,3/20,22,26.67
1568,C#3,137.917,3/20,22,26.67
1569,E-3,137.917,3/20,22,26.67
1570,E-2,138.083,3/20,22,26.67
1571,C#3,138.083,3/20,22,26.67
1572,E-3,138.083,3/20,22,26.67
1573,E6,138.125,0.125,46,26.67
1574,E5,138.125,0.125,46,26.67
1575,F6,138.25,667/1000,50,26.67
1576,F5,138.25,667/1000,50,26.67
1577,G#2,138.25,0.5,22,26.67
1578,C3,138.25,0.5,22,26.67
1579,E-3,138.25,0.5,22,26.67
1580,E-6,138.917,167/1000,47,26.67
1581,E-5,138.917,167/1000,47,26.67
1582,C#6,139.083,167/1000,49,26.67
1583,C#5,139.083,167/1000,49,26.67
1584,C6,139.25,167/1000,49,26.67
1585,C5,139.25,167/1000,49,26.67
1586,E-4,139.25,1.0,46,26.67
1587,G4,139.25,1.0,46,26.67
1588,B-5,139.417,167/1000,48,26.67
1589,B-4,139.417,167/1000,48,26.67
1590,G#5,139.583,167/1000,46,26.67
1591,G#4,139.583,167/1000,46,26.67
1592,G4,139.75,167/1000,47,26.67
1593,G5,139.75,167/1000,47,26.67
1594,C#5,139.917,167/1000,46,26.67
1595,C#6,139.917,167/1000,46,26.67
1596,G4,140.083,167/1000,48,26.67
1597,G5,140.083,167/1000,48,26.67
1598,G#5,140.25,0.5,48,26.67
1599,G#4,140.25,0.5,48,26.67
1600,G#3,140.25,0.5,44,26.67
1601,G#4,140.25,0.5,44,26.67
1602,E-5,141.188,0.062,52,26.67
1603,C#5,141.25,167/1000,63,26.67
1604,E-3,141.25,1.0,44,26.67
1605,C#4,141.25,1.0,44,26.67
1606,C5,141.417,167/1000,55,26.67
1607,C#5,141.583,167/1000,55,26.67
1608,F5,141.75,167/1000,58,26.67
1609,E-5,141.917,167/1000,55,26.67
1610,C#5,142.083,167/1000,54,26.67
1611,C5,142.25,0.5,52,26.67
1612,G#3,142.25,0.5,36,26.67
1613,C4,142.25,0.5,36,26.67
1614,C5,143.188,0.062,54,26.67
1615,G4,143.25,1.0,47,26.67
1616,B-4,143.25,167/1000,64,26.67
1617,G3,143.25,1.0,39,26.67
1618,E-2,143.25,1.0,39,26.67
1619,C#3,143.25,1.0,39,26.67
1620,A4,143.417,167/1000,52,26.67
1621,B-4,143.583,167/1000,52,26.67
1622,C#5,143.75,167/1000,54,26.67
1623,C5,143.917,167/1000,52,26.67
1624,B-4,144.083,167/1000,52,26.67
1625,G#4,144.25,0.5,46,26.67
1626,G#2,144.25,0.25,28,26.67
1627,C3,144.25,0.25,28,26.67
1628,G#1,144.75,0.25,30,26.67
1629,C4,145.188,0.062,54,26.67
1630,B-3,145.25,167/1000,64,26.67
1631,G#1,145.25,1.0,30,26.67
1632,A3,145.417,167/1000,48,26.67
1633,B-3,145.583,167/1000,48,26.67
1634,C#4,145.75,167/1000,50,26.67
1635,C4,145.917,167/1000,47,26.67
1636,B-3,146.083,167/1000,44,26.67
1637,G#3,146.25,0.25,35,26.67
1638,C3,146.75,0.25,30,26.67
1639,E-3,146.75,0.25,30,26.67
1640,G#3,146.75,0.25,30,26.67
1641,G#2,147.25,1.0,30,26.67
1642,C3,147.25,1.0,30,26.67
1643,G#3,147.25,1.0,30,26.67
