,note_name,start_time,duration,velocity,tempo
0,G#4,3.0,771/1000,43,65.0
1,C5,3.0,771/1000,43,65.0
2,C4,3.0,771/1000,43,65.0
3,G#2,3.0,0.75,36,65.0
4,E-3,3.0,0.75,36,65.0
5,G4,3.75,271/1000,43,65.0
6,C#4,3.75,271/1000,43,65.0
7,C#5,3.75,271/1000,43,65.0
8,B-2,3.75,0.25,36,65.0
9,E-3,3.75,0.25,36,65.0
10,G#4,4.0,0.5,43,65.0
11,C5,4.0,0.5,43,65.0
12,C4,4.0,0.5,43,65.0
13,G#2,4.0,0.5,36,65.0
14,E-3,4.0,0.5,36,65.0
15,C#5,4.5,3.0,35,65.0
16,C#4,4.5,3.0,35,65.0
17,G4,4.5,3.0,35,65.0
18,E-3,4.5,3.0,30,65.0
19,B-2,4.5,3.0,30,65.0
20,C5,7.5,771/1000,43,65.0
21,C4,7.5,771/1000,43,65.0
22,G#4,7.5,771/1000,43,65.0
23,G#2,7.5,0.75,36,65.0
24,E-3,7.5,0.75,36,65.0
25,C#4,8.25,271/1000,43,65.0
26,G4,8.25,271/1000,43,65.0
27,C#5,8.25,271/1000,43,65.0
28,E-3,8.25,271/1000,36,65.0
29,B-2,8.25,271/1000,36,65.0
30,C4,8.5,0.5,43,65.0
31,C5,8.5,0.5,43,65.0
32,G#4,8.5,0.5,43,65.0
33,G#2,8.5,0.5,36,65.0
34,E-3,8.5,0.5,36,65.0
35,G4,9.0,3.0,37,65.0
36,B-3,9.0,3.0,37,65.0
37,B-4,9.0,3.0,37,65.0
38,E-3,9.0,3.0,30,65.0
39,E-2,9.0,3.0,30,65.0
40,G#4,12.0,771/1000,43,65.0
41,C4,12.0,771/1000,43,65.0
42,C5,12.0,771/1000,43,65.0
43,G#2,12.0,0.75,36,65.0
44,E-3,12.0,0.75,36,65.0
45,G4,12.75,271/1000,43,65.0
46,C#5,12.75,271/1000,43,65.0
47,C#4,12.75,271/1000,43,65.0
48,B-2,12.75,0.25,36,65.0
49,E-3,12.75,0.25,36,65.0
50,C5,13.0,0.5,43,65.0
51,C4,13.0,0.5,43,65.0
52,G#4,13.0,0.5,43,65.0
53,E-3,13.0,0.5,36,65.0
54,G#2,13.0,0.5,36,65.0
55,C5,13.5,771/1000,38,65.0
56,C4,13.5,771/1000,38,65.0
57,G#4,13.5,771/1000,38,65.0
58,G#2,13.5,0.75,32,65.0
59,E-3,13.5,0.75,32,65.0
60,C#4,14.25,271/1000,47,65.0
61,G4,14.25,271/1000,47,65.0
62,C#5,14.25,271/1000,47,65.0
63,E-3,14.25,271/1000,37,65.0
64,B-2,14.25,271/1000,37,65.0
65,C4,14.5,0.5,49,65.0
66,C5,14.5,0.5,49,65.0
67,G#4,14.5,0.5,49,65.0
68,G#2,14.5,0.5,40,65.0
69,E-3,14.5,0.5,40,65.0
70,G#4,15.0,1.25,60,65.0
71,E-4,15.0,1.25,60,65.0
72,E-5,15.0,1.25,60,65.0
73,E-3,15.0,1.5,45,65.0
74,C3,15.0,1.5,45,65.0
75,E-5,16.25,0.25,40,65.0
76,E-4,16.25,0.25,40,65.0
77,C#5,16.5,1.25,39,65.0
78,G4,16.5,1.25,39,65.0
79,C#4,16.5,1.25,39,65.0
80,B-2,16.5,1.25,30,65.0
81,E-3,16.5,1.25,30,65.0
82,C4,17.75,0.25,36,65.0
83,G#4,17.75,0.25,36,65.0
84,C5,17.75,0.25,36,65.0
85,G#2,17.75,0.25,27,65.0
86,E-3,17.75,0.25,27,65.0
87,C4,18.0,3.0,33,65.0
88,C5,18.0,3.0,33,65.0
89,G#4,18.0,3.0,33,65.0
90,E-3,18.0,3.0,27,65.0
91,G#2,18.0,3.0,27,65.0
92,G4,21.0,771/1000,36,65.0
93,B-3,21.0,771/1000,36,65.0
94,B-4,21.0,771/1000,36,65.0
95,E-2,21.0,0.75,30,65.0
96,E-3,21.0,0.75,30,65.0
97,B4,21.75,271/1000,36,65.0
98,B3,21.75,271/1000,36,65.0
99,G#4,21.75,271/1000,36,65.0
100,E-3,21.75,271/1000,30,65.0
101,G#2,21.75,271/1000,30,65.0
102,G4,22.0,0.5,36,65.0
103,B-4,22.0,0.5,36,65.0
104,B-3,22.0,0.5,36,65.0
105,E-2,22.0,0.5,30,65.0
106,E-3,22.0,0.5,30,65.0
107,B-4,22.5,771/1000,36,65.0
108,B-3,22.5,771/1000,36,65.0
109,G4,22.5,771/1000,36,65.0
110,E-3,22.5,771/1000,30,65.0
111,E-2,22.5,771/1000,30,65.0
112,G#4,23.25,271/1000,36,65.0
113,B3,23.25,271/1000,36,65.0
114,B4,23.25,271/1000,36,65.0
115,G#2,23.25,0.25,30,65.0
116,E-3,23.25,0.25,30,65.0
117,B-3,23.5,0.5,36,65.0
118,G4,23.5,0.5,36,65.0
119,B-4,23.5,0.5,36,65.0
120,E-2,23.5,0.5,30,65.0
121,E-3,23.5,0.5,30,65.0
122,F4,24.0,3.0,56,65.0
123,B4,24.0,3.0,58,65.0
124,G#4,24.0,3.0,58,65.0
125,D3,24.0,3.0,48,65.0
126,D2,24.0,3.0,48,65.0
127,E-4,27.0,2.0,27,65.0
128,B4,27.0,1.5,58,65.0
129,G#4,27.0,1.5,58,65.0
130,E-2,27.0,2.0,24,65.0
131,E-3,27.0,2.0,24,65.0
132,G4,28.5,0.5,26,65.0
133,B-4,28.5,0.5,26,65.0
134,B-3,30.0,771/1000,42,65.0
135,F#4,30.0,771/1000,42,65.0
136,B-4,30.0,771/1000,42,65.0
137,E-3,30.0,771/1000,36,65.0
138,E-2,30.0,771/1000,36,65.0
139,B4,30.75,271/1000,42,65.0
140,G#4,30.75,271/1000,42,65.0
141,B3,30.75,271/1000,42,65.0
142,G#2,30.75,0.25,36,65.0
143,E-3,30.75,0.25,36,65.0
144,B-4,31.0,0.5,42,65.0
145,F#4,31.0,0.5,42,65.0
146,B-3,31.0,0.5,42,65.0
147,E-3,31.0,0.5,36,65.0
148,E-2,31.0,0.5,36,65.0
149,B-4,31.5,0.5,42,65.0
150,B-3,31.5,0.5,42,65.0
151,F#4,31.5,0.5,42,65.0
152,E-2,31.5,0.5,36,65.0
153,E-3,31.5,0.5,36,65.0
154,E-4,32.0,0.5,50,65.0
155,B-4,32.0,0.5,50,65.0
156,E-5,32.0,0.5,50,65.0
157,E-3,32.0,0.5,42,65.0
158,F#2,32.0,0.5,42,65.0
159,F4,32.5,0.5,62,65.0
160,F5,32.5,0.5,62,65.0
161,E-5,32.5,0.5,62,65.0
162,B2,32.5,0.5,52,65.0
163,E-3,32.5,0.5,52,65.0
164,E-5,33.0,1.25,67,65.0
165,F#4,33.0,1.25,67,65.0
166,F#5,33.0,1.25,67,65.0
167,E-3,33.0,1.5,58,65.0
168,B-2,33.0,1.5,58,65.0
169,F#5,34.25,0.25,52,65.0
170,F#4,34.25,0.25,52,65.0
171,F5,34.5,1.25,42,65.0
172,F4,34.5,1.25,42,65.0
173,D5,34.5,1.25,42,65.0
174,B-2,34.5,1.25,34,65.0
175,G#3,34.5,1.25,34,65.0
176,E-4,35.75,0.25,29,65.0
177,E-5,35.75,0.25,29,65.0
178,E-3,35.75,0.25,24,65.0
179,G3,35.75,0.25,24,65.0
180,E-5,36.0,3.0,29,65.0
181,E-4,36.0,3.0,29,65.0
182,G3,36.0,3.0,24,65.0
183,E-3,36.0,3.0,24,65.0
184,C5,39.0,771/1000,32,65.0
185,C4,39.0,771/1000,32,65.0
186,G#4,39.0,771/1000,32,65.0
187,G#2,39.0,0.75,26,65.0
188,E-3,39.0,0.75,26,65.0
189,C#4,39.75,271/1000,32,65.0
190,G4,39.75,271/1000,32,65.0
191,C#5,39.75,271/1000,32,65.0
192,E-3,39.75,271/1000,26,65.0
193,B-2,39.75,271/1000,26,65.0
194,C4,40.0,0.5,32,65.0
195,C5,40.0,0.5,32,65.0
196,G#4,40.0,0.5,32,65.0
197,G#2,40.0,0.5,26,65.0
198,E-3,40.0,0.5,26,65.0
199,G4,40.5,3.0,26,65.0
200,C#4,40.5,3.0,26,65.0
201,C#5,40.5,3.0,26,65.0
202,E-3,40.5,3.0,21,65.0
203,B-2,40.5,3.0,21,65.0
204,G#4,43.5,771/1000,32,65.0
205,C4,43.5,771/1000,32,65.0
206,C5,43.5,771/1000,32,65.0
207,G#2,43.5,0.75,26,65.0
208,E-3,43.5,0.75,26,65.0
209,E-5,44.25,271/1000,34,65.0
210,E-4,44.25,271/1000,34,65.0
211,C3,44.25,0.25,26,65.0
212,E-3,44.25,0.25,26,65.0
213,C4,44.5,0.5,32,65.0
214,G#4,44.5,0.5,32,65.0
215,C5,44.5,0.5,32,65.0
216,E-3,44.5,0.5,26,65.0
217,G#2,44.5,0.5,26,65.0
218,B-3,45.0,3.0,26,65.0
219,B-4,45.0,3.0,26,65.0
220,G4,45.0,3.0,26,65.0
221,E-2,45.0,3.0,21,65.0
222,E-3,45.0,3.0,21,65.0
223,G#4,48.0,771/1000,31,65.0
224,C4,48.0,771/1000,31,65.0
225,C5,48.0,771/1000,31,65.0
226,E-3,48.0,771/1000,26,65.0
227,G#2,48.0,771/1000,26,65.0
228,G4,48.75,271/1000,31,65.0
229,C#4,48.75,271/1000,31,65.0
230,C#5,48.75,271/1000,31,65.0
231,B-2,48.75,0.25,26,65.0
232,E-3,48.75,0.25,26,65.0
233,G#4,49.0,0.5,31,65.0
234,C5,49.0,0.5,31,65.0
235,C4,49.0,0.5,31,65.0
236,E-3,49.0,0.5,26,65.0
237,G#2,49.0,0.5,26,65.0
238,C5,49.5,771/1000,28,65.0
239,C4,49.5,771/1000,28,65.0
240,G#4,49.5,771/1000,28,65.0
241,G#2,49.5,0.75,23,65.0
242,E-3,49.5,0.75,23,65.0
243,F5,50.25,0.25,41,65.0
244,F4,50.25,0.25,41,65.0
245,G#4,50.25,0.25,41,65.0
246,C#3,50.25,0.25,30,65.0
247,E-3,50.25,0.25,30,65.0
248,E-4,50.5,0.5,43,65.0
249,E-5,50.5,0.5,43,65.0
250,G#4,50.5,0.5,43,65.0
251,E-3,50.5,0.5,34,65.0
252,C3,50.5,0.5,34,65.0
253,E-4,51.0,1.25,48,65.0
254,E-5,51.0,1.25,48,65.0
255,G#4,51.0,1.25,48,65.0
256,C3,51.0,1.5,38,65.0
257,E-3,51.0,1.5,38,65.0
258,E-5,52.25,0.25,50,65.0
259,E-4,52.25,0.25,50,65.0
260,C#5,52.5,1.25,49,65.0
261,C#4,52.5,1.25,49,65.0
262,G4,52.5,1.25,49,65.0
263,E-3,52.5,1.25,40,65.0
264,B-2,52.5,1.25,40,65.0
265,C5,53.75,0.25,25,65.0
266,C4,53.75,0.25,25,65.0
267,G#4,53.75,0.25,25,65.0
268,G#2,53.75,0.25,21,65.0
269,E-3,53.75,0.25,21,65.0
270,C4,54.0,3.0,25,65.0
271,G#4,54.0,3.0,25,65.0
272,C5,54.0,3.0,25,65.0
273,E-3,54.0,3.0,20,65.0
274,G#2,54.0,3.0,20,65.0
275,B-3,57.0,771/1000,41,65.0
276,B-4,57.0,771/1000,41,65.0
277,G4,57.0,771/1000,41,65.0
278,E-2,57.0,0.75,33,65.0
279,E-3,57.0,0.75,33,65.0
280,B4,57.75,271/1000,41,65.0
281,B3,57.75,271/1000,41,65.0
282,G#4,57.75,271/1000,41,65.0
283,G#2,57.75,0.25,34,65.0
284,E-3,57.75,0.25,34,65.0
285,G4,58.0,0.5,41,65.0
286,B-3,58.0,0.5,41,65.0
287,B-4,58.0,0.5,41,65.0
288,E-3,58.0,0.5,34,65.0
289,E-2,58.0,0.5,34,65.0
290,G4,58.5,771/1000,41,65.0
291,B-4,58.5,771/1000,41,65.0
292,B-3,58.5,771/1000,41,65.0
293,E-3,58.5,771/1000,34,65.0
294,E-2,58.5,771/1000,34,65.0
295,G#4,59.25,271/1000,41,65.0
296,B3,59.25,271/1000,41,65.0
297,B4,59.25,271/1000,41,65.0
298,G#2,59.25,0.25,33,65.0
299,E-3,59.25,0.25,33,65.0
300,B-4,59.5,0.5,41,65.0
301,B-3,59.5,0.5,41,65.0
302,G4,59.5,0.5,41,65.0
303,E-2,59.5,0.5,33,65.0
304,E-3,59.5,0.5,33,65.0
305,F4,60.0,1.5,63,65.0
306,G#4,60.0,1.5,63,65.0
307,B4,60.0,1.5,63,65.0
308,D3,60.0,3.0,52,65.0
309,D2,60.0,3.0,52,65.0
310,F5,61.5,1.25,67,65.0
311,G#4,61.5,1.0,60,65.0
312,B4,61.5,1.0,60,65.0
313,E-5,62.75,0.25,42,65.0
314,E-5,63.0,2.0,42,65.0
315,G#4,63.0,1.5,38,65.0
316,B4,63.0,1.5,38,65.0
317,E-2,63.0,2.0,33,65.0
318,E-3,63.0,2.0,33,65.0
319,G4,64.5,0.5,26,65.0
320,B-4,64.5,0.5,26,65.0
321,E-5,66.0,771/1000,35,65.0
322,C4,66.0,1.0,30,65.0
323,F#4,66.0,1.0,30,65.0
324,A4,66.0,1.0,30,65.0
325,F5,66.75,271/1000,35,65.0
326,E-5,67.0,0.5,31,65.0
327,A4,67.0,0.5,31,65.0
328,C4,67.0,0.5,31,65.0
329,F#4,67.0,0.5,31,65.0
330,F#4,67.5,1.5,30,65.0
331,C#4,67.5,2.0,30,65.0
332,G#4,67.5,1.0,32,65.0
333,E-5,67.5,1.0,32,65.0
334,C5,68.5,0.5,35,65.0
335,C#5,69.0,0.5,32,65.0
336,F4,69.0,0.5,32,65.0
337,G#4,69.0,0.5,32,65.0
338,C#5,70.5,771/1000,62,65.0
339,G#4,70.5,1.0,56,65.0
340,F4,70.5,1.0,56,65.0
341,B2,70.5,1.0,46,65.0
342,B1,70.5,1.0,46,65.0
343,E-5,71.25,271/1000,62,65.0
344,F4,71.5,0.5,58,65.0
345,G#4,71.5,0.5,58,65.0
346,C#5,71.5,0.5,58,65.0
347,B1,71.5,0.5,46,65.0
348,B2,71.5,0.5,46,65.0
349,E-5,72.0,771/1000,62,65.0
350,F#4,72.0,1.0,56,65.0
351,B-2,72.0,1.0,44,65.0
352,B-1,72.0,1.0,44,65.0
353,C#5,72.75,0.25,63,65.0
354,F#4,73.0,0.5,57,65.0
355,C#5,73.0,0.125,63,65.0
356,A1,73.0,0.5,56,65.0
357,A2,73.0,0.5,56,65.0
358,C#5,73.25,0.25,71,65.0
359,F#5,73.5,1.0,77,65.0
360,F#4,73.5,1.5,67,65.0
361,C#5,73.5,1.5,67,65.0
362,G#1,73.5,1.5,66,65.0
363,G#2,73.5,1.5,66,65.0
364,F5,74.5,0.25,62,65.0
365,F5,74.75,0.25,50,65.0
366,C5,75.0,1.25,47,65.0
367,F#4,75.0,1.25,47,65.0
368,E-5,75.0,1.25,47,65.0
369,G#2,75.0,1.25,38,65.0
370,G#3,75.0,1.25,38,65.0
371,F4,76.25,0.25,40,65.0
372,C#5,76.25,0.25,40,65.0
373,C#3,76.25,0.25,33,65.0
374,G#3,76.25,0.25,33,65.0
375,F4,76.5,4.5,40,65.0
376,C#5,76.5,4.5,40,65.0
377,G#3,76.5,4.5,33,65.0
378,C#3,76.5,4.5,33,65.0
379,C#5,81.0,1.5,36,65.0
380,F#2,81.0,0.25,35,65.0
381,C#3,81.5,0.5,26,65.0
382,A3,82.0,0.5,26,65.0
383,C#5,82.5,1.5,35,65.0
384,F#2,82.5,0.25,35,65.0
385,C#3,83.0,0.5,26,65.0
386,A3,83.5,0.5,26,65.0
387,C#5,84.0,1.5,34,65.0
388,F#2,84.0,0.25,35,65.0
389,C#3,84.5,0.5,26,65.0
390,A3,85.0,0.5,26,65.0
391,D5,85.5,4.5,46,65.0
392,F#2,85.5,0.25,36,65.0
393,D3,86.0,0.5,26,65.0
394,B3,86.5,0.5,28,65.0
395,F#2,87.0,0.25,35,65.0
396,D3,87.5,0.5,26,65.0
397,B3,88.0,0.5,26,65.0
398,F#2,88.5,0.25,35,65.0
399,D3,89.0,0.5,27,65.0
400,B3,89.5,0.5,27,65.0
401,E5,90.0,1.0,41,65.0
402,F#2,90.0,0.25,35,65.0
403,B2,90.5,0.5,28,65.0
404,D5,91.0,0.5,40,65.0
405,G#3,91.0,0.5,28,65.0
406,D5,91.5,1.0,44,65.0
407,F#2,91.5,0.25,35,65.0
408,C#3,92.0,0.5,29,65.0
409,C#5,92.5,0.5,39,65.0
410,A3,92.5,0.5,29,65.0
411,C#5,93.0,1.0,41,65.0
412,F#2,93.0,0.25,35,65.0
413,D3,93.5,0.5,27,65.0
414,B4,94.0,0.5,39,65.0
415,B3,94.0,0.5,27,65.0
416,C#5,94.5,3.0,42,65.0
417,F#2,94.5,0.25,35,65.0
418,C#3,95.0,0.5,30,65.0
419,A3,95.5,0.5,30,65.0
420,F#2,96.0,0.25,35,65.0
421,C#3,96.5,0.5,27,65.0
422,A3,97.0,0.5,28,65.0
423,C#5,97.5,1.0,36,65.0
424,F#2,97.5,0.25,35,65.0
425,C#3,98.0,0.5,29,65.0
426,A4,98.5,0.5,44,65.0
427,F#3,98.5,0.5,29,65.0
428,G#4,99.0,3.0,52,65.0
429,C#3,99.0,0.5,35,65.0
430,F3,99.5,0.5,35,65.0
431,G#3,100.0,0.5,35,65.0
432,C#3,100.5,0.5,35,65.0
433,F3,101.0,0.5,35,65.0
434,G#3,101.5,0.5,35,65.0
435,F#5,102.0,1.0,61,65.0
436,A2,102.0,0.5,35,65.0
437,C#3,102.5,0.5,35,65.0
438,A4,103.0,0.5,52,65.0
439,F#3,103.0,0.5,35,65.0
440,G#4,103.5,2.0,42,65.0
441,C#3,103.5,0.5,35,65.0
442,F3,104.0,0.5,35,65.0
443,G#3,104.5,0.5,35,65.0
444,D3,105.0,2.5,35,65.0
445,B4,105.5,0.5,35,65.0
446,G#3,105.5,0.5,35,65.0
447,A4,106.0,0.5,34,65.0
448,F#3,106.0,0.5,35,65.0
449,G#4,106.5,0.5,28,65.0
450,F3,106.5,0.5,33,65.0
451,A4,107.0,0.5,26,65.0
452,F#3,107.0,0.5,30,65.0
453,B4,107.5,0.5,25,65.0
454,G#3,107.5,0.5,27,65.0
455,C#3,107.5,0.5,27,65.0
456,C#5,108.0,1.5,36,65.0
457,F#2,108.0,0.5,35,65.0
458,C#3,108.5,0.5,30,65.0
459,A3,109.0,0.5,31,65.0
460,C#5,109.5,1.5,47,65.0
461,F#2,109.5,0.5,37,65.0
462,B2,110.0,0.5,33,65.0
463,G#3,110.5,0.5,33,65.0
464,C#5,111.0,1.5,57,65.0
465,F#2,111.0,0.5,42,65.0
466,A2,111.5,0.5,37,65.0
467,F#3,112.0,0.5,37,65.0
468,D5,112.5,4.5,66,65.0
469,E2,112.5,0.5,45,65.0
470,B2,113.0,0.5,40,65.0
471,G#3,113.5,0.5,40,65.0
472,E2,114.0,0.5,39,65.0
473,B2,114.5,0.5,36,65.0
474,G#3,115.0,0.5,36,65.0
475,E2,115.5,0.5,34,65.0
476,B2,116.0,0.5,34,65.0
477,G#3,116.5,0.5,34,65.0
478,D5,116.75,0.25,53,65.0
479,F#5,117.0,1.0,50,65.0
480,E2,117.0,0.5,45,65.0
481,B2,117.5,0.5,39,65.0
482,D5,118.0,0.5,48,65.0
483,G#3,118.0,0.5,40,65.0
484,D5,118.5,1.0,48,65.0
485,E2,118.5,0.5,40,65.0
486,C#3,119.0,0.5,38,65.0
487,C#5,119.5,0.5,44,65.0
488,A3,119.5,0.5,36,65.0
489,C#5,120.0,1.0,44,65.0
490,E2,120.0,0.5,35,65.0
491,D3,120.5,0.5,33,65.0
492,B4,121.0,0.5,38,65.0
493,G#3,121.0,0.5,33,65.0
494,C#5,121.5,3.0,44,65.0
495,A2,121.5,0.5,38,65.0
496,C#3,122.0,0.5,35,65.0
497,A3,122.5,0.5,37,65.0
498,A2,123.0,0.5,39,65.0
499,C#3,123.5,0.5,42,65.0
500,G#3,124.0,0.5,46,65.0
501,C#5,124.5,1.0,52,65.0
502,A2,124.5,0.5,47,65.0
503,C#3,125.0,0.5,45,65.0
504,A4,125.5,0.5,52,65.0
505,F#3,125.5,0.5,42,65.0
506,G#4,126.0,3.0,52,65.0
507,B2,126.0,0.5,44,65.0
508,D3,126.5,0.5,40,65.0
509,F#3,127.0,0.5,40,65.0
510,D3,127.5,0.5,44,65.0
511,F#3,128.0,0.5,40,65.0
512,B3,128.5,0.5,40,65.0
513,B4,129.0,0.5,47,65.0
514,C#3,129.0,0.5,39,65.0
515,A4,129.5,0.5,44,65.0
516,F3,129.5,0.5,38,65.0
517,G#4,130.0,0.5,36,65.0
518,B2,130.0,0.5,30,65.0
519,C#5,130.5,2.75,45,65.0
520,A2,130.5,0.5,42,65.0
521,C#3,131.0,0.5,39,65.0
522,F#3,131.5,0.5,39,65.0
523,G#2,132.0,0.5,42,65.0
524,B2,132.5,0.5,39,65.0
525,F#3,133.0,0.5,39,65.0
526,C#5,133.25,0.25,52,65.0
527,F#5,133.5,1.0,70,65.0
528,A2,133.5,0.5,52,65.0
529,C#3,134.0,0.5,48,65.0
530,A4,134.5,0.5,60,65.0
531,F#3,134.5,0.5,48,65.0
532,G#4,135.0,2.0,60,65.0
533,B2,135.0,0.5,52,65.0
534,D3,135.5,0.5,48,65.0
535,F#3,136.0,0.5,49,65.0
536,D3,136.5,0.5,52,65.0
537,A4,137.0,0.5,52,65.0
538,F#3,137.0,0.5,49,65.0
539,G#4,137.5,0.5,52,65.0
540,B3,137.5,0.5,44,65.0
541,B4,138.0,0.5,52,65.0
542,C#3,138.0,0.5,48,65.0
543,A4,138.5,0.5,49,65.0
544,F3,138.5,0.5,42,65.0
545,G#4,139.0,0.5,48,65.0
546,B3,139.0,0.5,39,65.0
547,F#4,139.5,3.0,51,65.0
548,F#3,139.5,0.5,37,65.0
549,A3,139.5,0.5,37,65.0
550,F#2,140.0,0.5,38,65.0
551,A2,140.5,0.5,39,65.0
552,C#3,141.0,0.5,41,65.0
553,F#3,141.5,0.5,44,65.0
554,G#3,142.0,0.5,45,65.0
555,A3,142.5,0.5,47,65.0
556,C#4,143.0,0.5,48,65.0
557,F#3,143.5,0.5,50,65.0
558,C#5,144.0,1.5,52,65.0
559,F3,144.0,0.5,52,65.0
560,G#3,144.5,0.5,49,65.0
561,C#4,145.0,0.5,49,65.0
562,C#5,145.5,1.5,52,65.0
563,F3,145.5,0.5,52,65.0
564,G#3,146.0,0.5,46,65.0
565,C#4,146.5,0.5,46,65.0
566,C#5,147.0,1.5,52,65.0
567,F3,147.0,0.5,52,65.0
568,G#3,147.5,0.5,47,65.0
569,C#4,148.0,0.5,47,65.0
570,C#5,148.5,1.5,46,65.0
571,E3,148.5,0.5,45,65.0
572,G#3,149.0,0.5,41,65.0
573,C#4,149.5,0.5,41,65.0
574,C#5,150.0,1.5,44,65.0
575,E3,150.0,0.5,45,65.0
576,G#3,150.5,0.5,41,65.0
577,C#4,151.0,0.5,41,65.0
578,C#5,151.5,1.25,44,65.0
579,E3,151.5,0.5,45,65.0
580,G#3,152.0,0.5,46,65.0
581,C#4,152.5,0.5,52,65.0
582,C#5,152.75,0.25,35,65.0
583,E5,153.0,1.0,60,65.0
584,E-3,153.0,0.5,52,65.0
585,G3,153.5,0.5,52,65.0
586,E-5,154.0,0.5,52,65.0
587,C#4,154.0,0.5,50,65.0
588,E-5,154.5,0.5,51,65.0
589,E-3,154.5,0.5,50,65.0
590,E-5,155.0,0.5,50,65.0
591,G3,155.0,0.5,49,65.0
592,E-5,155.5,0.5,49,65.0
593,C#4,155.5,0.5,48,65.0
594,E-5,156.0,0.5,48,65.0
595,E-3,156.0,0.5,48,65.0
596,E-5,156.5,0.5,48,65.0
597,G3,156.5,0.5,48,65.0
598,E-5,157.0,0.5,47,65.0
599,C#4,157.0,0.5,47,65.0
600,E-5,157.5,3.0,46,65.0
601,E-3,157.5,3.0,45,65.0
602,G3,157.5,3.0,45,65.0
603,B-3,158.0,0.5,40,65.0
604,C4,158.5,0.5,36,65.0
605,C#4,159.0,1.5,31,65.0
606,C5,160.5,771/1000,39,65.0
607,C4,160.5,771/1000,39,65.0
608,G#4,160.5,771/1000,39,65.0
609,G#2,160.5,0.75,33,65.0
610,E-3,160.5,0.75,33,65.0
611,C#5,161.25,271/1000,39,65.0
612,C#4,161.25,271/1000,39,65.0
613,G4,161.25,271/1000,39,65.0
614,E-3,161.25,271/1000,33,65.0
615,B-2,161.25,271/1000,33,65.0
616,C5,161.5,0.5,39,65.0
617,C4,161.5,0.5,39,65.0
618,G#4,161.5,0.5,39,65.0
619,G#2,161.5,0.5,33,65.0
620,E-3,161.5,0.5,33,65.0
621,C#4,162.0,3.0,31,65.0
622,G4,162.0,3.0,31,65.0
623,C#5,162.0,3.0,31,65.0
624,E-3,162.0,3.0,25,65.0
625,B-2,162.0,3.0,25,65.0
626,C4,165.0,771/1000,39,65.0
627,C5,165.0,771/1000,39,65.0
628,G#4,165.0,771/1000,39,65.0
629,G#2,165.0,0.75,33,65.0
630,E-3,165.0,0.75,33,65.0
631,G4,165.75,271/1000,39,65.0
632,C#4,165.75,271/1000,39,65.0
633,C#5,165.75,271/1000,39,65.0
634,E-3,165.75,271/1000,33,65.0
635,B-2,165.75,271/1000,33,65.0
636,G#4,166.0,0.5,39,65.0
637,C4,166.0,0.5,39,65.0
638,C5,166.0,0.5,39,65.0
639,G#2,166.0,0.5,33,65.0
640,E-3,166.0,0.5,33,65.0
641,G4,166.5,3.0,32,65.0
642,B-4,166.5,3.0,32,65.0
643,B-3,166.5,3.0,32,65.0
644,E-2,166.5,3.0,24,65.0
645,E-3,166.5,3.0,24,65.0
646,C5,169.5,771/1000,43,65.0
647,C4,169.5,771/1000,43,65.0
648,G#4,169.5,771/1000,43,65.0
649,E-3,169.5,771/1000,36,65.0
650,G#2,169.5,771/1000,36,65.0
651,C#5,170.25,271/1000,43,65.0
652,C#4,170.25,271/1000,43,65.0
653,G4,170.25,271/1000,43,65.0
654,B-2,170.25,0.25,36,65.0
655,E-3,170.25,0.25,36,65.0
656,C4,170.5,0.5,43,65.0
657,G#4,170.5,0.5,43,65.0
658,C5,170.5,0.5,43,65.0
659,E-3,170.5,0.5,36,65.0
660,G#2,170.5,0.5,36,65.0
661,C4,171.0,0.75,38,65.0
662,C5,171.0,0.75,38,65.0
663,G#4,171.0,0.75,38,65.0
664,G#2,171.0,0.75,32,65.0
665,E-3,171.0,0.75,32,65.0
666,G#4,171.75,271/1000,51,65.0
667,F4,171.75,271/1000,51,65.0
668,F5,171.75,271/1000,51,65.0
669,E-3,171.75,271/1000,40,65.0
670,C#3,171.75,271/1000,40,65.0
671,E-5,172.0,0.5,54,65.0
672,E-4,172.0,0.5,54,65.0
673,G#4,172.0,0.5,54,65.0
674,C3,172.0,0.5,44,65.0
675,E-3,172.0,0.5,44,65.0
676,G#4,172.5,1.25,60,65.0
677,E-5,172.5,1.25,60,65.0
678,E-4,172.5,1.25,60,65.0
679,C3,172.5,1.5,45,65.0
680,E-3,172.5,1.5,45,65.0
681,E-4,173.75,0.25,37,65.0
682,E-5,173.75,0.25,37,65.0
683,G4,174.0,1.25,39,65.0
684,C#5,174.0,1.25,39,65.0
685,C#4,174.0,1.25,39,65.0
686,E-3,174.0,1.25,30,65.0
687,B-2,174.0,1.25,30,65.0
688,G#4,175.25,0.25,28,65.0
689,C4,175.25,0.25,28,65.0
690,C5,175.25,0.25,28,65.0
691,G#2,175.25,0.25,24,65.0
692,E-3,175.25,0.25,24,65.0
693,G#4,175.5,3.0,28,65.0
694,C4,175.5,3.0,28,65.0
695,C5,175.5,3.0,28,65.0
696,E-3,175.5,3.0,24,65.0
697,G#2,175.5,3.0,24,65.0
698,G4,178.5,771/1000,41,65.0
699,B-4,178.5,771/1000,41,65.0
700,B-3,178.5,771/1000,41,65.0
701,E-2,178.5,0.75,33,65.0
702,E-3,178.5,0.75,33,65.0
703,G#4,179.25,271/1000,41,65.0
704,B3,179.25,271/1000,41,65.0
705,B4,179.25,271/1000,41,65.0
706,E-3,179.25,271/1000,34,65.0
707,G#2,179.25,271/1000,34,65.0
708,B-4,179.5,0.5,41,65.0
709,B-3,179.5,0.5,41,65.0
710,G4,179.5,0.5,41,65.0
711,E-2,179.5,0.5,34,65.0
712,E-3,179.5,0.5,34,65.0
713,B-3,180.0,771/1000,41,65.0
714,G4,180.0,771/1000,41,65.0
715,B-4,180.0,771/1000,41,65.0
716,E-3,180.0,771/1000,34,65.0
717,E-2,180.0,771/1000,34,65.0
718,B3,180.75,271/1000,41,65.0
719,G#4,180.75,271/1000,41,65.0
720,B4,180.75,271/1000,41,65.0
721,G#2,180.75,0.25,33,65.0
722,E-3,180.75,0.25,33,65.0
723,G4,181.0,0.5,41,65.0
724,B-3,181.0,0.5,41,65.0
725,B-4,181.0,0.5,41,65.0
726,E-3,181.0,0.5,33,65.0
727,E-2,181.0,0.5,33,65.0
728,F4,181.5,3.0,62,65.0
729,G#4,181.5,3.0,66,65.0
730,B4,181.5,3.0,66,65.0
731,D2,181.5,3.0,54,65.0
732,D3,181.5,3.0,54,65.0
733,E-4,184.5,2.0,30,65.0
734,G#4,184.5,1.5,66,65.0
735,B4,184.5,1.5,66,65.0
736,E-2,184.5,2.0,26,65.0
737,E-3,184.5,2.0,26,65.0
738,B-4,186.0,0.5,24,65.0
739,G4,186.0,0.5,24,65.0
740,B4,187.5,771/1000,52,65.0
741,F#4,187.5,1.0,47,65.0
742,E-4,187.5,1.0,47,65.0
743,C#5,188.25,0.25,53,65.0
744,E-3,188.5,0.5,45,65.0
745,E-4,188.5,0.5,50,65.0
746,F#4,188.5,0.5,50,65.0
747,B4,188.5,0.5,50,65.0
748,C#5,189.0,1.0,58,65.0
749,G#3,189.0,771/1000,44,65.0
750,F4,189.0,1.5,48,65.0
751,B4,189.0,1.5,48,65.0
752,B-3,189.75,0.25,44,65.0
753,D5,190.0,0.5,61,65.0
754,G#3,190.0,0.5,44,65.0
755,B3,190.5,1.0,44,65.0
756,A3,190.5,0.5,44,65.0
757,B4,190.5,0.5,51,65.0
758,E-5,190.5,0.5,51,65.0
759,F#4,190.5,0.5,51,65.0
760,G#3,191.0,0.5,52,65.0
761,E5,191.0,0.5,61,65.0
762,E4,191.0,0.5,61,65.0
763,B4,191.0,0.5,61,65.0
764,F#5,191.5,0.5,65,65.0
765,F#4,191.5,0.5,65,65.0
766,B4,191.5,0.5,65,65.0
767,F#3,191.5,0.5,60,65.0
768,E-4,191.5,0.5,60,65.0
769,G#5,192.0,0.5,77,65.0
770,E4,192.0,1.0,64,65.0
771,E3,192.0,0.5,64,65.0
772,G#4,192.0,1.0,64,65.0
773,B4,192.0,1.0,64,65.0
774,E5,192.5,0.5,66,65.0
775,G#3,192.5,0.5,58,65.0
776,G#4,193.0,0.5,54,65.0
777,E-5,193.0,0.5,54,65.0
778,F4,193.0,0.5,54,65.0
779,E-4,193.0,0.5,48,65.0
780,B3,193.0,0.5,48,65.0
781,F#4,193.5,2.0,47,65.0
782,F#3,193.5,2.0,34,65.0
783,B4,193.5,1.5,50,65.0
784,E-5,193.5,1.5,50,65.0
785,E-4,193.5,1.5,38,65.0
786,B3,193.5,1.5,38,65.0
787,B-4,195.0,0.5,32,65.0
788,C#5,195.0,0.5,32,65.0
789,B-3,195.0,0.5,29,65.0
790,C#4,195.0,0.5,29,65.0
791,G#5,196.5,0.5,34,65.0
792,E4,196.5,1.0,29,65.0
793,E3,196.5,0.5,29,65.0
794,B4,196.5,1.0,29,65.0
795,G#4,196.5,1.0,29,65.0
796,E5,197.0,0.5,35,65.0
797,G#3,197.0,0.5,29,65.0
798,G#4,197.5,0.5,32,65.0
799,F4,197.5,0.5,32,65.0
800,E-5,197.5,0.5,32,65.0
801,B3,197.5,0.5,30,65.0
802,E-4,197.5,0.5,30,65.0
803,F#4,198.0,2.0,31,65.0
804,F#3,198.0,2.0,25,65.0
805,B4,198.0,1.5,34,65.0
806,E-5,198.0,1.5,34,65.0
807,B3,198.0,1.5,28,65.0
808,E-4,198.0,1.5,28,65.0
809,B-4,199.5,0.5,28,65.0
810,C#5,199.5,0.5,28,65.0
811,B-3,199.5,0.5,24,65.0
812,C#4,199.5,0.5,24,65.0
813,C#5,201.0,771/1000,53,65.0
814,E-4,201.0,1.5,48,65.0
815,E-3,201.0,1.5,44,65.0
816,G2,201.0,1.5,44,65.0
817,E-5,201.75,0.25,52,65.0
818,B-4,202.0,0.5,52,65.0
819,C#5,202.5,1.5,52,65.0
820,E-4,202.5,3.0,47,65.0
821,G#2,202.5,2.5,44,65.0
822,E-3,202.5,3.0,44,65.0
823,C5,204.0,1.0,55,65.0
824,C#5,205.0,0.5,69,65.0
825,B-2,205.0,0.5,57,65.0
826,C3,205.5,0.5,66,65.0
827,E-3,205.5,1.5,66,65.0
828,E-5,205.5,0.5,70,65.0
829,E-4,205.5,0.5,70,65.0
830,B-2,206.0,0.5,56,65.0
831,C#5,206.0,0.5,60,65.0
832,G4,206.0,0.5,60,65.0
833,G#2,206.5,0.5,49,65.0
834,G#4,206.5,0.5,54,65.0
835,C5,206.5,0.5,54,65.0
836,F4,207.0,1.0,47,65.0
837,C5,207.0,0.5,52,65.0
838,C#3,207.0,1.5,46,65.0
839,B-4,207.5,0.5,52,65.0
840,B-3,208.0,0.5,37,65.0
841,C#5,208.0,0.5,50,65.0
842,E4,208.0,0.5,50,65.0
843,G#4,208.5,1.25,42,65.0
844,E-4,208.5,1.25,42,65.0
845,E-3,208.5,1.25,39,65.0
846,C4,208.5,1.25,39,65.0
847,C#4,209.75,0.25,37,65.0
848,G4,209.75,0.25,37,65.0
849,B-3,209.75,0.25,33,65.0
850,E-3,209.75,0.25,33,65.0
851,G4,210.0,1.25,37,65.0
852,C#4,210.0,1.25,37,65.0
853,B-3,210.0,1.25,34,65.0
854,E-3,210.0,1.25,34,65.0
855,C4,211.25,0.25,35,65.0
856,G#4,211.25,0.25,35,65.0
857,G#2,211.25,0.25,29,65.0
858,G#3,211.25,0.25,29,65.0
859,G#4,211.5,1.5,35,65.0
860,C4,211.5,1.5,35,65.0
861,G#3,211.5,1.0,29,65.0
862,G#2,211.5,1.0,29,65.0
863,E-3,212.75,0.25,24,65.0
864,E-3,213.0,3.0,24,65.0
865,G#2,214.25,0.25,29,65.0
866,C5,214.25,0.25,32,65.0
867,C4,214.25,0.25,32,65.0
868,G#4,214.25,0.25,32,65.0
869,G#2,214.5,771/1000,29,65.0
870,C4,214.5,771/1000,32,65.0
871,G#4,214.5,771/1000,32,65.0
872,C5,214.5,771/1000,32,65.0
873,B-2,215.25,271/1000,29,65.0
874,C#4,215.25,271/1000,32,65.0
875,C#5,215.25,271/1000,32,65.0
876,G4,215.25,271/1000,32,65.0
877,G#2,215.5,0.5,29,65.0
878,G#4,215.5,0.5,32,65.0
879,C4,215.5,0.5,32,65.0
880,C5,215.5,0.5,32,65.0
881,B-2,216.0,2.75,25,65.0
882,E-3,216.0,1.25,24,65.0
883,G4,216.0,2.75,28,65.0
884,C#4,216.0,2.75,28,65.0
885,C#5,216.0,2.75,28,65.0
886,E-3,217.25,0.25,25,65.0
887,E-3,217.5,3.0,25,65.0
888,E-2,218.75,0.25,29,65.0
889,G4,218.75,0.25,32,65.0
890,B-4,218.75,0.25,32,65.0
891,B-3,218.75,0.25,32,65.0
892,E-2,219.0,771/1000,29,65.0
893,B-4,219.0,771/1000,32,65.0
894,B-3,219.0,771/1000,32,65.0
895,G4,219.0,771/1000,32,65.0
896,G#2,219.75,271/1000,29,65.0
897,C5,219.75,271/1000,32,65.0
898,C4,219.75,271/1000,32,65.0
899,G#4,219.75,271/1000,32,65.0
900,E-2,220.0,0.5,29,65.0
901,B-3,220.0,0.5,32,65.0
902,G4,220.0,0.5,32,65.0
903,B-4,220.0,0.5,32,65.0
904,G#2,220.5,2.75,24,65.0
905,E-3,220.5,1.0,25,65.0
906,C4,220.5,2.75,28,65.0
907,C5,220.5,2.75,28,65.0
908,G#4,220.5,2.75,28,65.0
909,E-3,221.75,0.25,25,65.0
910,E-3,222.0,3.0,25,65.0
911,E-4,223.25,0.25,35,65.0
912,C3,223.25,0.25,29,65.0
913,E-4,223.5,771/1000,35,65.0
914,C3,223.5,771/1000,29,65.0
915,F4,224.25,271/1000,42,65.0
916,C#3,224.25,271/1000,28,65.0
917,E-4,224.5,0.5,44,65.0
918,C3,224.5,0.5,30,65.0
919,F4,225.0,771/1000,45,65.0
920,C#3,225.0,771/1000,36,65.0
921,E-3,225.0,1.5,25,65.0
922,E-4,225.75,0.25,44,65.0
923,C3,225.75,0.25,37,65.0
924,E-4,226.0,0.5,44,65.0
925,C3,226.0,0.5,37,65.0
926,E-3,226.5,1.5,37,65.0
927,G#4,226.5,1.5,42,65.0
928,C4,226.5,1.5,42,65.0
929,B-4,228.0,1.25,41,65.0
930,C#4,228.0,1.25,41,65.0
931,G4,228.0,1.25,41,65.0
932,E-3,228.0,1.25,37,65.0
933,E-2,228.0,1.25,37,65.0
934,G#4,229.25,0.25,32,65.0
935,C4,229.25,0.25,32,65.0
936,G#2,229.25,0.25,29,65.0
937,E-3,229.25,0.25,29,65.0
938,G#4,229.5,1.5,32,65.0
939,C4,229.5,1.5,32,65.0
940,G#2,229.5,1.5,29,65.0
941,E-3,229.5,1.5,29,65.0
942,E-5,230.75,0.25,29,65.0
943,E-5,231.0,3.0,29,65.0
944,E-4,232.25,0.25,32,65.0
945,G#4,232.25,0.25,32,65.0
946,C4,232.25,0.25,29,65.0
947,E-3,232.25,0.25,29,65.0
948,G#4,232.5,771/1000,32,65.0
949,E-4,232.5,771/1000,32,65.0
950,E-3,232.5,771/1000,33,65.0
951,C4,232.5,771/1000,33,65.0
952,F4,233.25,271/1000,32,65.0
953,B-4,233.25,271/1000,32,65.0
954,C#4,233.25,0.25,29,65.0
955,E-3,233.25,0.25,29,65.0
956,E-4,233.5,0.5,32,65.0
957,G#4,233.5,0.5,32,65.0
958,E-3,233.5,0.5,29,65.0
959,C4,233.5,0.5,29,65.0
960,E-5,234.0,1.25,29,65.0
961,B-4,234.0,2.75,28,65.0
962,F4,234.0,2.75,28,65.0
963,C#4,234.0,2.75,25,65.0
964,E-3,234.0,2.75,25,65.0
965,E-5,235.25,0.25,27,65.0
966,E-5,235.5,3.0,27,65.0
967,G4,236.75,0.25,32,65.0
968,C#4,236.75,0.25,32,65.0
969,E-3,236.75,0.25,29,65.0
970,B-3,236.75,0.25,29,65.0
971,C#4,237.0,771/1000,32,65.0
972,G4,237.0,771/1000,32,65.0
973,B-3,237.0,0.75,29,65.0
974,E-3,237.0,0.75,29,65.0
975,G#4,237.75,271/1000,32,65.0
976,E-4,237.75,271/1000,32,65.0
977,C4,237.75,0.25,29,65.0
978,E-3,237.75,0.25,29,65.0
979,B-4,238.0,0.5,32,65.0
980,F4,238.0,0.5,32,65.0
981,C#4,238.0,0.5,29,65.0
982,E-3,238.0,0.5,29,65.0
983,E-5,238.5,1.25,27,65.0
984,G#4,238.5,2.75,28,65.0
985,E-4,238.5,2.75,28,65.0
986,E-3,238.5,2.75,24,65.0
987,C4,238.5,2.75,24,65.0
988,E-5,239.75,0.25,39,65.0
989,E-5,240.0,3.0,39,65.0
990,E-4,241.25,0.25,35,65.0
991,E-3,241.25,0.25,29,65.0
992,C4,241.25,0.25,29,65.0
993,E-4,241.5,771/1000,35,65.0
994,E-3,241.5,771/1000,29,65.0
995,C4,241.5,771/1000,29,65.0
996,F4,242.25,271/1000,42,65.0
997,E-3,242.25,271/1000,28,65.0
998,C#4,242.25,271/1000,28,65.0
999,E-4,242.5,0.5,44,65.0
1000,C4,242.5,0.5,30,65.0
1001,E-3,242.5,0.5,30,65.0
1002,E-5,243.0,1.5,39,65.0
1003,F4,243.0,771/1000,42,65.0
1004,G#4,243.0,771/1000,42,65.0
1005,E-3,243.0,771/1000,36,65.0
1006,C#4,243.0,771/1000,36,65.0
1007,E-4,243.75,0.25,44,65.0
1008,C4,243.75,0.25,37,65.0
1009,E-3,243.75,0.25,37,65.0
1010,E-4,244.0,0.5,44,65.0
1011,E-3,244.0,0.5,37,65.0
1012,C4,244.0,0.5,37,65.0
1013,C5,244.5,1.5,48,65.0
1014,E-5,244.5,1.5,48,65.0
1015,E-4,244.5,1.5,41,65.0
1016,E-3,244.5,1.5,41,65.0
1017,B-4,246.0,1.25,47,65.0
1018,G5,246.0,1.25,47,65.0
1019,E-5,246.0,1.25,47,65.0
1020,E-4,246.0,1.25,42,65.0
1021,E-3,246.0,1.25,42,65.0
1022,C#4,246.0,1.25,42,65.0
1023,G#5,247.25,0.25,46,65.0
1024,G#4,247.25,0.25,46,65.0
1025,E-5,247.25,0.25,46,65.0
1026,G#3,247.25,0.25,36,65.0
1027,E-4,247.25,0.25,36,65.0
1028,C4,247.25,0.25,36,65.0
1029,E-5,247.5,4.25,47,65.0
1030,G#4,247.5,4.25,47,65.0
1031,G#5,247.5,4.25,47,65.0
1032,G#3,247.5,4.25,36,65.0
1033,E-4,247.5,4.25,36,65.0
1034,C4,247.5,4.25,36,65.0
1035,F#2,251.75,0.25,73,65.0
1036,F#5,251.75,0.25,76,65.0
1037,A5,251.75,0.25,76,65.0
1038,A4,251.75,0.25,76,65.0
1039,F#2,252.0,0.25,79,65.0
1040,A5,252.0,1.5,84,65.0
1041,A4,252.0,1.5,84,65.0
1042,F#5,252.0,1.5,84,65.0
1043,C#3,252.5,0.5,70,65.0
1044,A3,253.0,0.5,67,65.0
1045,F#2,253.5,0.25,79,65.0
1046,F#5,253.5,1.5,83,65.0
1047,A5,253.5,1.5,83,65.0
1048,A4,253.5,1.5,83,65.0
1049,C#3,254.0,0.5,69,65.0
1050,A3,254.5,0.5,66,65.0
1051,F#2,255.0,0.25,79,65.0
1052,B-5,255.0,1.5,83,65.0
1053,B-4,255.0,1.5,83,65.0
1054,E5,255.0,1.5,83,65.0
1055,C#3,255.5,0.5,70,65.0
1056,F#3,256.0,0.5,66,65.0
1057,F#2,256.5,0.25,79,65.0
1058,B5,256.5,4.25,76,65.0
1059,B4,256.5,4.25,76,65.0
1060,D5,256.5,4.25,76,65.0
1061,D3,257.0,0.5,71,65.0
1062,B3,257.5,0.5,68,65.0
1063,F#2,258.0,0.25,79,65.0
1064,D3,258.5,0.5,71,65.0
1065,B3,259.0,0.5,68,65.0
1066,F#2,259.5,0.25,79,65.0
1067,D3,260.0,0.5,73,65.0
1068,B3,260.5,0.5,68,65.0
1069,D5,260.75,0.25,76,65.0
1070,B5,260.75,0.25,76,65.0
1071,B4,260.75,0.25,76,65.0
1072,F#2,261.0,0.25,79,65.0
1073,C#5,261.0,1.25,83,65.0
1074,C#6,261.0,1.25,83,65.0
1075,E5,261.0,1.25,83,65.0
1076,B2,261.5,0.5,70,65.0
1077,G#3,262.0,0.5,72,65.0
1078,D5,262.25,0.25,76,65.0
1079,B4,262.25,0.25,76,65.0
1080,B5,262.25,0.25,76,65.0
1081,F#2,262.5,0.25,79,65.0
1082,D5,262.5,1.25,83,65.0
1083,B4,262.5,1.25,83,65.0
1084,B5,262.5,1.25,83,65.0
1085,C#3,263.0,0.5,71,65.0
1086,A3,263.5,0.5,73,65.0
1087,C#5,263.75,0.25,76,65.0
1088,A5,263.75,0.25,76,65.0
1089,A4,263.75,0.25,76,65.0
1090,F#2,264.0,0.25,79,65.0
1091,A5,264.0,1.25,83,65.0
1092,A4,264.0,1.25,83,65.0
1093,C#5,264.0,1.25,83,65.0
1094,D3,264.5,0.5,70,65.0
1095,B3,265.0,0.5,72,65.0
1096,G#5,265.25,0.25,68,65.0
1097,G#4,265.25,0.25,68,65.0
1098,B4,265.25,0.25,68,65.0
1099,F#2,265.5,0.25,70,65.0
1100,A4,265.5,3.0,72,65.0
1101,C#5,265.5,3.0,72,65.0
1102,A5,265.5,3.0,72,65.0
1103,C#3,266.0,0.5,64,65.0
1104,A3,266.5,0.5,65,65.0
1105,F#2,267.0,0.25,70,65.0
1106,C#3,267.5,0.5,65,65.0
1107,A3,268.0,0.5,65,65.0
1108,A2,268.5,0.25,79,65.0
1109,C#5,268.5,1.25,87,65.0
1110,C#6,268.5,1.25,87,65.0
1111,C#3,269.0,0.5,71,65.0
1112,F#3,269.5,0.5,71,65.0
1113,A5,269.75,0.25,67,65.0
1114,F#5,269.75,0.25,67,65.0
1115,A4,269.75,0.25,67,65.0
1116,C#3,270.0,0.5,63,65.0
1117,G#5,270.0,3.0,67,65.0
1118,G#4,270.0,3.0,67,65.0
1119,F5,270.0,3.0,67,65.0
1120,F3,270.5,0.5,54,65.0
1121,G#3,271.0,0.5,56,65.0
1122,C#3,271.5,0.5,63,65.0
1123,F3,272.0,0.5,54,65.0
1124,G#3,272.5,0.5,57,65.0
1125,A2,273.0,0.5,79,65.0
1126,F#6,273.0,1.25,86,65.0
1127,F#5,273.0,1.25,86,65.0
1128,A5,273.0,1.25,86,65.0
1129,C#3,273.5,0.5,63,65.0
1130,F#3,274.0,0.5,63,65.0
1131,A4,274.25,0.25,61,65.0
1132,A5,274.25,0.25,61,65.0
1133,F#5,274.25,0.25,61,65.0
1134,C#3,274.5,0.5,70,65.0
1135,G#4,274.5,2.0,61,65.0
1136,G#5,274.5,2.0,61,65.0
1137,F5,274.5,2.0,61,65.0
1138,F3,275.0,0.5,62,65.0
1139,G#3,275.5,0.5,58,65.0
1140,D3,276.0,2.25,62,65.0
1141,B4,276.5,0.5,70,65.0
1142,G#3,276.5,0.5,59,65.0
1143,A4,277.0,0.5,63,65.0
1144,F#3,277.0,0.5,59,65.0
1145,G#4,277.5,0.5,58,65.0
1146,F3,277.5,0.5,60,65.0
1147,A4,278.0,0.5,55,65.0
1148,F#3,278.0,0.5,55,65.0
1149,B4,278.5,0.5,53,65.0
1150,G#3,278.5,0.5,50,65.0
1151,C#3,278.5,0.5,50,65.0
1152,C#5,279.0,1.5,51,65.0
1153,F#2,279.0,0.5,44,65.0
1154,C#3,279.5,0.5,40,65.0
1155,A3,280.0,0.5,40,65.0
1156,C#5,280.5,1.5,51,65.0
1157,F#2,280.5,0.5,42,65.0
1158,B2,281.0,0.5,39,65.0
1159,G#3,281.5,0.5,39,65.0
1160,C#5,282.0,1.5,52,65.0
1161,F#2,282.0,0.5,41,65.0
1162,A2,282.5,0.5,38,65.0
1163,F#3,283.0,0.5,38,65.0
1164,D5,283.5,4.5,60,65.0
1165,E2,283.5,0.5,41,65.0
1166,B2,284.0,0.5,40,65.0
1167,G#3,284.5,0.5,40,65.0
1168,E2,285.0,0.5,44,65.0
1169,B2,285.5,0.5,40,65.0
1170,G#3,286.0,0.5,44,65.0
1171,E2,286.5,0.5,44,65.0
1172,B2,287.0,0.5,41,65.0
1173,G#3,287.5,0.5,39,65.0
1174,D5,287.75,0.25,41,65.0
1175,F#5,288.0,1.0,41,65.0
1176,E2,288.0,0.5,35,65.0
1177,B2,288.5,0.5,34,65.0
1178,D5,289.0,0.5,41,65.0
1179,G#3,289.0,0.5,34,65.0
1180,D5,289.5,1.0,41,65.0
1181,E2,289.5,0.5,34,65.0
1182,C#3,290.0,0.5,33,65.0
1183,C#5,290.5,0.5,41,65.0
1184,A3,290.5,0.5,34,65.0
1185,C#5,291.0,1.0,41,65.0
1186,E2,291.0,0.5,34,65.0
1187,D3,291.5,0.5,33,65.0
1188,B4,292.0,0.5,44,65.0
1189,G#3,292.0,0.5,33,65.0
1190,C#5,292.5,3.0,44,65.0
1191,A2,292.5,0.5,34,65.0
1192,C#3,293.0,0.5,34,65.0
1193,A3,293.5,0.5,34,65.0
1194,A2,294.0,0.5,35,65.0
1195,C#3,294.5,0.5,34,65.0
1196,G#3,295.0,0.5,33,65.0
1197,C#5,295.5,1.0,52,65.0
1198,A2,295.5,0.5,42,65.0
1199,C#3,296.0,0.5,38,65.0
1200,A4,296.5,0.5,52,65.0
1201,F#3,296.5,0.5,37,65.0
1202,G#4,297.0,3.0,52,65.0
1203,B2,297.0,0.5,42,65.0
1204,D3,297.5,0.5,39,65.0
1205,F#3,298.0,0.5,39,65.0
1206,D3,298.5,0.5,44,65.0
1207,F#3,299.0,0.5,40,65.0
1208,B3,299.5,0.5,40,65.0
1209,B4,300.0,0.5,47,65.0
1210,C#3,300.0,0.5,39,65.0
1211,A4,300.5,0.5,44,65.0
1212,F3,300.5,0.5,38,65.0
1213,G#4,301.0,0.5,36,65.0
1214,B3,301.0,0.5,30,65.0
1215,C#5,301.5,2.75,45,65.0
1216,A2,301.5,0.5,42,65.0
1217,C#3,302.0,0.5,36,65.0
1218,F#3,302.5,0.5,37,65.0
1219,G#2,303.0,0.5,37,65.0
1220,B2,303.5,0.5,37,65.0
1221,F#3,304.0,0.5,37,65.0
1222,C#5,304.25,0.25,52,65.0
1223,F#5,304.5,1.0,70,65.0
1224,B-2,304.5,0.5,44,65.0
1225,C#3,305.0,0.5,40,65.0
1226,B-4,305.5,0.5,62,65.0
1227,F#3,305.5,0.5,40,65.0
1228,G#4,306.0,2.0,62,65.0
1229,B2,306.0,0.5,44,65.0
1230,E-3,306.5,0.5,41,65.0
1231,F#3,307.0,0.5,40,65.0
1232,C3,307.5,0.5,44,65.0
1233,B-4,308.0,0.5,61,65.0
1234,F#3,308.0,0.5,41,65.0
1235,G#4,308.5,0.5,61,65.0
1236,G#3,308.5,0.5,40,65.0
1237,B4,309.0,0.5,60,65.0
1238,C#3,309.0,0.5,39,65.0
1239,B-4,309.5,0.5,57,65.0
1240,F3,309.5,0.5,39,65.0
1241,G#4,310.0,0.5,57,65.0
1242,B3,310.0,0.5,37,65.0
1243,F#4,310.5,3.0,62,65.0
1244,B-3,310.5,0.5,34,65.0
1245,F#3,310.5,0.5,34,65.0
1246,F#2,311.0,0.5,31,65.0
1247,B-2,311.5,0.5,34,65.0
1248,C#3,312.0,0.5,35,65.0
1249,F#3,312.5,0.5,37,65.0
1250,G#3,313.0,0.5,39,65.0
1251,B-3,313.5,0.5,41,65.0
1252,C#4,314.0,0.5,45,65.0
1253,F#3,314.5,0.5,45,65.0
1254,C#5,315.0,1.5,45,65.0
1255,F3,315.0,0.5,44,65.0
1256,G#3,315.5,0.5,35,65.0
1257,C#4,316.0,0.5,35,65.0
1258,C#5,316.5,1.5,45,65.0
1259,F3,316.5,0.5,36,65.0
1260,G#3,317.0,0.5,36,65.0
1261,C#4,317.5,0.5,36,65.0
1262,C#5,318.0,1.5,44,65.0
1263,F3,318.0,0.5,36,65.0
1264,G#3,318.5,0.5,36,65.0
1265,C#4,319.0,0.5,36,65.0
1266,C#5,319.5,1.5,46,65.0
1267,E3,319.5,0.5,36,65.0
1268,G#3,320.0,0.5,34,65.0
1269,C#4,320.5,0.5,35,65.0
1270,C#5,321.0,1.5,44,65.0
1271,E3,321.0,0.5,35,65.0
1272,G#3,321.5,0.5,34,65.0
1273,C#4,322.0,0.5,34,65.0
1274,C#5,322.5,1.25,44,65.0
1275,E3,322.5,0.5,35,65.0
1276,G#3,323.0,0.5,36,65.0
1277,C#4,323.5,0.5,38,65.0
1278,C#5,323.75,0.25,35,65.0
1279,E5,324.0,1.0,52,65.0
1280,E-3,324.0,0.5,42,65.0
1281,G3,324.5,0.5,41,65.0
1282,E-5,325.0,0.5,47,65.0
1283,C#4,325.0,0.5,42,65.0
1284,E-5,325.5,0.5,46,65.0
1285,E-3,325.5,0.5,41,65.0
1286,E-5,326.0,0.5,45,65.0
1287,G3,326.0,0.5,40,65.0
1288,E-5,326.5,0.5,44,65.0
1289,C#4,326.5,0.5,39,65.0
1290,E-5,327.0,0.5,42,65.0
1291,E-3,327.0,0.5,38,65.0
1292,E-5,327.5,0.5,41,65.0
1293,G3,327.5,0.5,36,65.0
1294,E-5,328.0,0.5,40,65.0
1295,C#4,328.0,0.5,35,65.0
1296,E-5,328.5,3.0,39,65.0
1297,G3,328.5,3.0,33,65.0
1298,E-3,328.5,3.0,33,65.0
1299,B-3,329.0,0.5,29,65.0
1300,C4,329.5,0.5,26,65.0
1301,C#4,330.0,1.5,22,65.0
1302,C5,331.5,771/1000,28,65.0
1303,G#4,331.5,771/1000,28,65.0
1304,C4,331.5,771/1000,28,65.0
1305,E-3,331.5,771/1000,22,65.0
1306,G#2,331.5,771/1000,22,65.0
1307,G4,332.25,271/1000,28,65.0
1308,C#5,332.25,271/1000,28,65.0
1309,C#4,332.25,271/1000,28,65.0
1310,B-2,332.25,0.25,22,65.0
1311,E-3,332.25,0.25,22,65.0
1312,C5,332.5,0.5,28,65.0
1313,C4,332.5,0.5,28,65.0
1314,G#4,332.5,0.5,28,65.0
1315,E-3,332.5,0.5,22,65.0
1316,G#2,332.5,0.5,22,65.0
1317,C#5,333.0,3.0,20,65.0
1318,C#4,333.0,3.0,20,65.0
1319,G4,333.0,3.0,20,65.0
1320,B-2,333.0,3.0,16,65.0
1321,E-3,333.0,3.0,16,65.0
1322,C4,336.0,771/1000,32,65.0
1323,G#4,336.0,771/1000,32,65.0
1324,C5,336.0,771/1000,32,65.0
1325,E-3,336.0,771/1000,26,65.0
1326,G#2,336.0,771/1000,26,65.0
1327,E-4,336.75,271/1000,37,65.0
1328,E-5,336.75,271/1000,37,65.0
1329,C3,336.75,0.25,26,65.0
1330,E-3,336.75,0.25,26,65.0
1331,G#4,337.0,0.5,32,65.0
1332,C5,337.0,0.5,32,65.0
1333,C4,337.0,0.5,32,65.0
1334,G#2,337.0,0.5,26,65.0
1335,E-3,337.0,0.5,26,65.0
1336,B-4,337.5,3.0,26,65.0
1337,B-3,337.5,3.0,26,65.0
1338,G4,337.5,3.0,26,65.0
1339,E-3,337.5,3.0,21,65.0
1340,E-2,337.5,3.0,21,65.0
1341,C5,340.5,771/1000,31,65.0
1342,C4,340.5,771/1000,31,65.0
1343,G#4,340.5,771/1000,31,65.0
1344,G#2,340.5,0.75,26,65.0
1345,E-3,340.5,0.75,26,65.0
1346,C#4,341.25,271/1000,31,65.0
1347,G4,341.25,271/1000,31,65.0
1348,C#5,341.25,271/1000,31,65.0
1349,E-3,341.25,271/1000,26,65.0
1350,B-2,341.25,271/1000,26,65.0
1351,C4,341.5,0.5,31,65.0
1352,C5,341.5,0.5,31,65.0
1353,G#4,341.5,0.5,31,65.0
1354,G#2,341.5,0.5,26,65.0
1355,E-3,341.5,0.5,26,65.0
1356,G#4,342.0,771/1000,28,65.0
1357,C4,342.0,771/1000,28,65.0
1358,C5,342.0,771/1000,28,65.0
1359,E-3,342.0,771/1000,23,65.0
1360,G#2,342.0,771/1000,23,65.0
1361,G#4,342.75,271/1000,44,65.0
1362,F4,342.75,271/1000,44,65.0
1363,F5,342.75,271/1000,44,65.0
1364,C#3,342.75,0.25,33,65.0
1365,E-3,342.75,0.25,33,65.0
1366,E-5,343.0,0.5,47,65.0
1367,G#4,343.0,0.5,47,65.0
1368,E-4,343.0,0.5,47,65.0
1369,C3,343.0,0.5,37,65.0
1370,E-3,343.0,0.5,37,65.0
1371,E-5,343.5,1.25,52,65.0
1372,E-4,343.5,1.25,52,65.0
1373,G#4,343.5,1.25,52,65.0
1374,E-3,343.5,1.5,42,65.0
1375,C3,343.5,1.5,42,65.0
1376,E-5,344.75,0.25,50,65.0
1377,E-4,344.75,0.25,50,65.0
1378,G4,345.0,1.25,49,65.0
1379,C#4,345.0,1.25,49,65.0
1380,C#5,345.0,1.25,49,65.0
1381,B-2,345.0,1.25,40,65.0
1382,E-3,345.0,1.25,40,65.0
1383,G#4,346.25,0.25,25,65.0
1384,C4,346.25,0.25,25,65.0
1385,C5,346.25,0.25,25,65.0
1386,E-3,346.25,0.25,21,65.0
1387,G#2,346.25,0.25,21,65.0
1388,G#4,346.5,3.0,25,65.0
1389,C5,346.5,3.0,25,65.0
1390,C4,346.5,3.0,25,65.0
1391,G#2,346.5,3.0,20,65.0
1392,E-3,346.5,3.0,20,65.0
1393,B-4,349.5,771/1000,41,65.0
1394,B-3,349.5,771/1000,41,65.0
1395,G4,349.5,771/1000,41,65.0
1396,E-3,349.5,771/1000,33,65.0
1397,E-2,349.5,771/1000,33,65.0
1398,G#4,350.25,271/1000,41,65.0
1399,B3,350.25,271/1000,41,65.0
1400,B4,350.25,271/1000,41,65.0
1401,G#2,350.25,0.25,34,65.0
1402,E-3,350.25,0.25,34,65.0
1403,B-3,350.5,0.5,41,65.0
1404,G4,350.5,0.5,41,65.0
1405,B-4,350.5,0.5,41,65.0
1406,E-3,350.5,0.5,34,65.0
1407,E-2,350.5,0.5,34,65.0
1408,B-3,351.0,771/1000,41,65.0
1409,B-4,351.0,771/1000,41,65.0
1410,G4,351.0,771/1000,41,65.0
1411,E-2,351.0,0.75,34,65.0
1412,E-3,351.0,0.75,34,65.0
1413,B4,351.75,271/1000,41,65.0
1414,B3,351.75,271/1000,41,65.0
1415,G#4,351.75,271/1000,41,65.0
1416,E-3,351.75,271/1000,33,65.0
1417,G#2,351.75,271/1000,33,65.0
1418,G4,352.0,0.5,41,65.0
1419,B-3,352.0,0.5,41,65.0
1420,B-4,352.0,0.5,41,65.0
1421,E-2,352.0,0.5,33,65.0
1422,E-3,352.0,0.5,33,65.0
1423,G#4,352.5,1.5,63,65.0
1424,B4,352.5,1.5,63,65.0
1425,F4,352.5,1.5,63,65.0
1426,D2,352.5,3.0,52,65.0
1427,D3,352.5,3.0,52,65.0
1428,F5,354.0,1.25,69,65.0
1429,G#4,354.0,1.0,62,65.0
1430,B4,354.0,1.0,62,65.0
1431,E-5,355.25,0.25,42,65.0
1432,E-5,355.5,2.0,42,65.0
1433,G#4,355.5,1.5,38,65.0
1434,B4,355.5,1.5,38,65.0
1435,E-3,355.5,2.0,33,65.0
1436,E-2,355.5,2.0,33,65.0
1437,G4,357.0,0.5,26,65.0
1438,B-4,357.0,0.5,26,65.0
1439,E-5,358.5,771/1000,35,65.0
1440,A4,358.5,1.0,30,65.0
1441,C4,358.5,1.0,30,65.0
1442,F#4,358.5,1.0,30,65.0
1443,F5,359.25,271/1000,35,65.0
1444,F#4,359.5,0.5,31,65.0
1445,E-5,359.5,0.5,31,65.0
1446,C4,359.5,0.5,31,65.0
1447,A4,359.5,0.5,31,65.0
1448,C#4,360.0,2.0,30,65.0
1449,F#4,360.0,1.5,30,65.0
1450,E-5,360.0,1.0,32,65.0
1451,G#4,360.0,1.0,32,65.0
1452,C5,361.0,0.5,35,65.0
1453,G#4,361.5,0.5,32,65.0
1454,F4,361.5,0.5,32,65.0
1455,C#5,361.5,0.5,32,65.0
1456,G#5,363.0,771/1000,77,65.0
1457,E-5,363.0,1.0,68,65.0
1458,C5,363.0,1.0,68,65.0
1459,F#2,363.0,1.0,52,65.0
1460,F#3,363.0,1.0,52,65.0
1461,B-5,363.75,271/1000,77,65.0
1462,C5,364.0,0.5,71,65.0
1463,G#5,364.0,0.5,71,65.0
1464,E-5,364.0,0.5,71,65.0
1465,F#3,364.0,0.5,50,65.0
1466,F#2,364.0,0.5,50,65.0
1467,B-5,364.5,771/1000,77,65.0
1468,C#5,364.5,1.0,68,65.0
1469,F2,364.5,1.0,50,65.0
1470,F3,364.5,1.0,50,65.0
1471,G#5,365.25,0.25,77,65.0
1472,G#5,365.5,0.125,77,65.0
1473,C#5,365.5,0.5,68,65.0
1474,E3,365.5,0.5,57,65.0
1475,E2,365.5,0.5,57,65.0
1476,G#5,365.75,0.25,77,65.0
1477,C#6,366.0,1.0,91,65.0
1478,G#5,366.0,1.5,81,65.0
1479,C#5,366.0,1.5,81,65.0
1480,E-2,366.0,1.5,63,65.0
1481,E-3,366.0,1.5,63,65.0
1482,C6,367.0,0.25,77,65.0
1483,C6,367.25,0.25,57,65.0
1484,B-5,367.5,1.25,53,65.0
1485,G5,367.5,1.25,53,65.0
1486,C#5,367.5,1.25,53,65.0
1487,E-3,367.5,1.25,38,65.0
1488,E-2,367.5,1.25,38,65.0
1489,G#5,368.75,0.25,48,65.0
1490,C5,368.75,0.25,48,65.0
1491,G#2,368.75,0.25,42,65.0
1492,E-3,368.75,0.25,42,65.0
1493,E-3,369.0,1.25,42,65.0
1494,G#2,369.0,1.5,42,65.0
1495,G#5,369.0,1.5,44,65.0
1496,C5,369.0,1.5,44,65.0
1497,E-3,370.25,0.25,24,65.0
1498,E-3,370.5,3.0,24,65.0
1499,G#2,371.75,0.25,29,65.0
1500,C4,371.75,0.25,32,65.0
1501,C5,371.75,0.25,32,65.0
1502,G#4,371.75,0.25,32,65.0
1503,G#2,372.0,771/1000,29,65.0
1504,G#4,372.0,771/1000,32,65.0
1505,C4,372.0,771/1000,32,65.0
1506,C5,372.0,771/1000,32,65.0
1507,B-2,372.75,271/1000,29,65.0
1508,G4,372.75,271/1000,32,65.0
1509,C#4,372.75,271/1000,32,65.0
1510,C#5,372.75,271/1000,32,65.0
1511,G#2,373.0,0.5,29,65.0
1512,G#4,373.0,0.5,32,65.0
1513,C5,373.0,0.5,32,65.0
1514,C4,373.0,0.5,32,65.0
1515,B-2,373.5,2.75,25,65.0
1516,E-3,373.5,1.25,24,65.0
1517,C#5,373.5,2.75,28,65.0
1518,C#4,373.5,2.75,28,65.0
1519,G4,373.5,2.75,28,65.0
1520,E-3,374.75,0.25,25,65.0
1521,E-3,375.0,3.0,25,65.0
1522,E-2,376.25,0.25,29,65.0
1523,B-4,376.25,0.25,32,65.0
1524,B-3,376.25,0.25,32,65.0
1525,G4,376.25,0.25,32,65.0
1526,E-2,376.5,771/1000,29,65.0
1527,B-3,376.5,771/1000,32,65.0
1528,G4,376.5,771/1000,32,65.0
1529,B-4,376.5,771/1000,32,65.0
1530,G#2,377.25,271/1000,29,65.0
1531,C4,377.25,271/1000,32,65.0
1532,C5,377.25,271/1000,32,65.0
1533,G#4,377.25,271/1000,32,65.0
1534,E-2,377.5,0.5,29,65.0
1535,G4,377.5,0.5,32,65.0
1536,B-3,377.5,0.5,32,65.0
1537,B-4,377.5,0.5,32,65.0
1538,G#2,378.0,2.75,24,65.0
1539,E-3,378.0,1.0,25,65.0
1540,G#4,378.0,2.75,28,65.0
1541,C4,378.0,2.75,28,65.0
1542,C5,378.0,2.75,28,65.0
1543,E-3,379.25,0.25,25,65.0
1544,E-3,379.5,3.0,25,65.0
1545,E-4,380.75,0.25,35,65.0
1546,C3,380.75,0.25,29,65.0
1547,E-4,381.0,771/1000,35,65.0
1548,C3,381.0,771/1000,29,65.0
1549,F4,381.75,271/1000,42,65.0
1550,C#3,381.75,271/1000,28,65.0
1551,E-4,382.0,0.5,44,65.0
1552,C3,382.0,0.5,30,65.0
1553,F4,382.5,771/1000,45,65.0
1554,C#3,382.5,771/1000,36,65.0
1555,E-3,382.5,1.5,25,65.0
1556,E-4,383.25,0.25,44,65.0
1557,C3,383.25,0.25,37,65.0
1558,E-4,383.5,0.5,44,65.0
1559,C3,383.5,0.5,37,65.0
1560,E-3,384.0,1.5,37,65.0
1561,G#4,384.0,1.5,42,65.0
1562,C4,384.0,1.5,42,65.0
1563,C#4,385.5,1.25,41,65.0
1564,G4,385.5,1.25,41,65.0
1565,B-4,385.5,1.25,41,65.0
1566,E-2,385.5,1.25,40,65.0
1567,E-3,385.5,1.25,40,65.0
1568,C4,386.75,0.25,32,65.0
1569,G#4,386.75,0.25,32,65.0
1570,E-3,386.75,0.25,29,65.0
1571,G#2,386.75,0.25,29,65.0
1572,G#4,387.0,1.5,32,65.0
1573,C4,387.0,1.5,32,65.0
1574,G#2,387.0,1.5,29,65.0
1575,E-3,387.0,1.5,29,65.0
1576,E-5,388.25,0.25,29,65.0
1577,E-5,388.5,3.0,29,65.0
1578,E-4,389.75,0.25,32,65.0
1579,G#4,389.75,0.25,32,65.0
1580,C4,389.75,0.25,29,65.0
1581,E-3,389.75,0.25,29,65.0
1582,G#4,390.0,771/1000,32,65.0
1583,E-4,390.0,771/1000,32,65.0
1584,E-3,390.0,771/1000,33,65.0
1585,C4,390.0,771/1000,33,65.0
1586,B-4,390.75,271/1000,32,65.0
1587,F4,390.75,271/1000,32,65.0
1588,C#4,390.75,0.25,29,65.0
1589,E-3,390.75,0.25,29,65.0
1590,E-4,391.0,0.5,32,65.0
1591,G#4,391.0,0.5,32,65.0
1592,E-3,391.0,0.5,29,65.0
1593,C4,391.0,0.5,29,65.0
1594,E-5,391.5,1.25,29,65.0
1595,F4,391.5,2.75,28,65.0
1596,B-4,391.5,2.75,28,65.0
1597,E-3,391.5,2.75,25,65.0
1598,C#4,391.5,2.75,25,65.0
1599,E-5,392.75,0.25,27,65.0
1600,E-5,393.0,3.0,27,65.0
1601,C#4,394.25,0.25,32,65.0
1602,G4,394.25,0.25,32,65.0
1603,B-3,394.25,0.25,29,65.0
1604,E-3,394.25,0.25,29,65.0
1605,G4,394.5,771/1000,32,65.0
1606,C#4,394.5,771/1000,32,65.0
1607,B-3,394.5,0.75,29,65.0
1608,E-3,394.5,0.75,29,65.0
1609,E-4,395.25,271/1000,32,65.0
1610,G#4,395.25,271/1000,32,65.0
1611,C4,395.25,0.25,29,65.0
1612,E-3,395.25,0.25,29,65.0
1613,B-4,395.5,0.5,32,65.0
1614,F4,395.5,0.5,32,65.0
1615,E-3,395.5,0.5,29,65.0
1616,C#4,395.5,0.5,29,65.0
1617,E-5,396.0,1.25,27,65.0
1618,G#4,396.0,2.75,28,65.0
1619,E-4,396.0,2.75,28,65.0
1620,C4,396.0,2.75,24,65.0
1621,E-3,396.0,2.75,24,65.0
1622,E-5,397.25,0.25,27,65.0
1623,E-5,397.5,3.0,27,65.0
1624,E-4,398.75,0.25,35,65.0
1625,E-3,398.75,0.25,29,65.0
1626,C4,398.75,0.25,29,65.0
1627,E-4,399.0,771/1000,35,65.0
1628,C4,399.0,0.75,29,65.0
1629,E-3,399.0,0.75,29,65.0
1630,F4,399.75,271/1000,42,65.0
1631,C#4,399.75,0.25,32,65.0
1632,E-3,399.75,0.25,32,65.0
1633,E-4,400.0,0.5,44,65.0
1634,E-3,400.0,0.5,30,65.0
1635,C4,400.0,0.5,30,65.0
1636,E-5,400.5,1.5,27,65.0
1637,G#4,400.5,771/1000,42,65.0
1638,F4,400.5,771/1000,42,65.0
1639,C#4,400.5,0.75,39,65.0
1640,E-3,400.5,0.75,39,65.0
1641,E-4,401.25,0.25,44,65.0
1642,E-3,401.25,0.25,37,65.0
1643,C4,401.25,0.25,37,65.0
1644,E-4,401.5,0.5,44,65.0
1645,C4,401.5,0.5,37,65.0
1646,E-3,401.5,0.5,37,65.0
1647,C5,402.0,1.5,63,65.0
1648,E-5,402.0,1.5,63,65.0
1649,E-4,402.0,1.5,41,65.0
1650,E-3,402.0,1.5,41,65.0
1651,E-5,403.5,1.25,66,65.0
1652,B-4,403.5,1.25,66,65.0
1653,G5,403.5,1.25,66,65.0
1654,C#4,403.5,1.25,50,65.0
1655,E-4,403.5,1.25,50,65.0
1656,E-3,403.5,1.25,50,65.0
1657,G#5,404.75,0.25,71,65.0
1658,E-5,404.75,0.25,71,65.0
1659,G#4,404.75,0.25,71,65.0
1660,C4,404.75,0.25,56,65.0
1661,E-4,404.75,0.25,56,65.0
1662,G#3,404.75,0.25,56,65.0
1663,G#5,405.0,4.5,71,65.0
1664,G#4,405.0,4.5,71,65.0
1665,E-5,405.0,4.5,71,65.0
1666,C4,405.0,4.5,57,65.0
1667,E-4,405.0,4.5,57,65.0
1668,G#3,405.0,4.5,57,65.0
