,note_name,start_time,duration,velocity,tempo
0,A4,0.002,2.0,50,119.69
1,A3,0.002,2.0,42,119.69
2,E5,2.0,2.0,50,119.69
3,E4,2.0,2.0,42,119.69
4,E-5,4.0,2.0,53,119.69
5,E-4,4.0,2.0,44,119.69
6,E5,6.0,417/1000,47,119.69
7,E4,6.0,417/1000,38,119.69
8,C5,7.0,99/125,49,119.69
9,C4,7.0,99/125,39,119.69
10,B4,7.75,0.25,47,119.69
11,B3,7.75,0.25,39,119.69
12,A4,8.0,2.0,48,119.69
13,B4,8.0,21/500,47,119.69
14,A3,8.0,2.0,38,119.69
15,B3,8.0,21/500,39,119.69
16,E3,10.0,2.0,52,119.69
17,G#3,10.0,2.0,56,119.69
18,E4,10.0,2.0,56,119.69
19,B3,10.0,2.0,56,119.69
20,C4,12.0,2.0,52,119.69
21,C3,12.0,2.0,47,119.69
22,A3,14.0,0.375,51,119.69
23,A2,14.0,0.375,39,119.69
24,A3,16.0,2.0,50,119.69
25,A2,16.0,2.0,42,119.69
26,D2,18.0,2.0,45,119.69
27,A3,18.0,2.0,59,119.69
28,F4,18.0,2.0,59,119.69
29,C#2,20.0,2.0,48,119.69
30,B-3,20.0,2.0,64,119.69
31,G4,20.0,2.0,64,119.69
32,D2,22.0,417/1000,42,119.69
33,F4,22.0,417/1000,54,119.69
34,A3,22.0,417/1000,54,119.69
35,A3,23.0,99/125,51,119.69
36,A2,23.0,99/125,44,119.69
37,B3,23.75,0.25,54,119.69
38,B2,23.75,0.25,45,119.69
39,C4,24.0,2.0,52,119.69
40,B3,24.0,21/500,54,119.69
41,C3,24.0,2.0,45,119.69
42,B2,24.0,21/500,45,119.69
43,E2,26.0,2.0,47,119.69
44,B3,26.0,2.0,54,119.69
45,E4,26.0,2.0,54,119.69
46,E3,26.0,2.0,54,119.69
47,G#3,26.0,2.0,54,119.69
48,C2,28.0,2.0,45,119.69
49,C4,28.0,2.0,50,119.69
50,C3,28.0,2.0,50,119.69
51,A1,30.0,417/1000,41,119.69
52,A2,30.0,417/1000,50,119.69
53,A3,30.0,417/1000,50,119.69
54,D2,32.0,2.0,35,119.69
55,A2,32.0,2.0,35,119.69
56,F2,32.0,2.0,35,119.69
57,A1,34.0,0.25,33,119.69
58,C2,36.0,2.0,36,119.69
59,A2,36.0,2.0,36,119.69
60,E2,36.0,2.0,36,119.69
61,A1,38.0,0.25,35,119.69
62,A3,39.0,1.0,52,119.69
63,A3,40.0,1.0,52,119.69
64,F2,40.0,2.0,36,119.69
65,A2,40.0,2.0,36,119.69
66,D2,40.0,2.0,36,119.69
67,D4,41.0,1.0,46,119.69
68,E4,42.0,1.0,49,119.69
69,A1,42.0,0.25,34,119.69
70,F4,43.0,1.0,47,119.69
71,E4,44.0,2.0,50,119.69
72,C2,44.0,2.0,36,119.69
73,E2,44.0,2.0,36,119.69
74,A2,44.0,2.0,36,119.69
75,A3,46.0,417/1000,46,119.69
76,A1,46.0,417/1000,34,119.69
77,G4,47.0,1.0,44,119.69
78,F4,48.0,2.0,47,119.69
79,D2,48.0,2.0,37,119.69
80,F2,48.0,2.0,37,119.69
81,A2,48.0,2.0,37,119.69
82,A3,50.0,417/1000,48,119.69
83,A1,50.0,417/1000,35,119.69
84,F4,51.0,1.0,45,119.69
85,E4,52.0,2.0,50,119.69
86,C2,52.0,2.0,36,119.69
87,E2,52.0,2.0,36,119.69
88,A2,52.0,2.0,36,119.69
89,A3,54.0,417/1000,48,119.69
90,A1,54.0,417/1000,33,119.69
91,A3,55.0,497/500,56,119.69
92,A4,55.0,1.0,56,119.69
93,A4,56.0,1.0,56,119.69
94,F3,56.0,2.0,45,119.69
95,A3,56.0,2.0,45,119.69
96,D3,56.0,2.0,45,119.69
97,D4,57.0,1.0,56,119.69
98,D5,57.0,1.0,56,119.69
99,A2,58.0,0.25,35,119.69
100,E5,58.0,1.0,59,119.69
101,E4,58.0,1.0,59,119.69
102,F4,59.0,1.0,54,119.69
103,F5,59.0,1.0,54,119.69
104,E4,60.0,2.0,59,119.69
105,E5,60.0,2.0,59,119.69
106,C3,60.0,499/250,41,119.69
107,E3,60.0,499/250,41,119.69
108,A3,60.0,499/250,41,119.69
109,A2,62.0,417/1000,36,119.69
110,A3,62.0,417/1000,56,119.69
111,A4,62.0,417/1000,56,119.69
112,E5,63.0,1.0,69,119.69
113,E4,63.0,1.0,69,119.69
114,E5,64.0,1.0,69,119.69
115,E4,64.0,1.0,69,119.69
116,B2,64.0,2.0,70,119.69
117,E3,64.0,2.0,70,119.69
118,G3,64.0,2.0,70,119.69
119,G4,65.0,1.0,74,119.69
120,G5,65.0,1.0,74,119.69
121,G2,66.0,0.375,54,119.69
122,A4,66.0,1.0,79,119.69
123,A5,66.0,1.0,79,119.69
124,B4,67.0,1.0,77,119.69
125,B5,67.0,1.0,77,119.69
126,B4,68.0,1833/1000,85,119.69
127,B5,68.0,1833/1000,85,119.69
128,E-3,68.0,1833/1000,66,119.69
129,F#3,68.0,1833/1000,66,119.69
130,F#2,68.0,1833/1000,66,119.69
131,B5,70.0,1833/1000,81,119.69
132,B4,70.0,1833/1000,81,119.69
133,B2,70.0,1833/1000,56,119.69
134,E-3,70.0,1833/1000,56,119.69
135,B3,70.0,1833/1000,56,119.69
136,G4,72.0,2.0,63,119.69
137,G5,72.0,2.0,63,119.69
138,G3,72.0,2.0,49,119.69
139,G2,72.0,2.0,49,119.69
140,E4,74.0,417/1000,53,119.69
141,E5,74.0,417/1000,53,119.69
142,E3,74.0,417/1000,42,119.69
143,E2,74.0,417/1000,42,119.69
144,B3,76.0,1833/1000,41,119.69
145,B4,76.0,1833/1000,41,119.69
146,F#1,76.0,1833/1000,26,119.69
147,F#2,76.0,1833/1000,26,119.69
148,E-2,76.0,1833/1000,26,119.69
149,B4,78.0,1833/1000,37,119.69
150,B3,78.0,1833/1000,37,119.69
151,B1,78.0,1833/1000,24,119.69
152,E-2,78.0,1833/1000,24,119.69
153,B2,78.0,1833/1000,24,119.69
154,G3,80.0,2.0,37,119.69
155,G4,80.0,2.0,37,119.69
156,G2,80.0,2.0,30,119.69
157,G1,80.0,2.0,30,119.69
158,E3,82.0,417/1000,33,119.69
159,E4,82.0,417/1000,33,119.69
160,E1,82.0,417/1000,27,119.69
161,E2,82.0,417/1000,27,119.69
162,E2,84.0,573/250,30,119.69
163,G3,84.0,2.0,37,119.69
164,G4,84.0,2.0,37,119.69
165,E3,86.0,73/250,33,119.69
166,E4,86.0,73/250,33,119.69
167,F2,86.25,73/250,23,119.69
168,E2,86.5,73/250,27,119.69
169,F2,86.75,73/250,25,119.69
170,E2,87.0,73/250,29,119.69
171,F2,87.25,73/250,22,119.69
172,E2,87.5,73/250,27,119.69
173,F2,87.75,0.25,23,119.69
174,E2,88.0,73/250,31,119.69
175,F2,88.0,21/500,23,119.69
176,F4,88.0,2.0,45,119.69
177,F3,88.0,2.0,45,119.69
178,F2,88.25,73/250,28,119.69
179,E2,88.5,73/250,31,119.69
180,F2,88.75,73/250,25,119.69
181,E2,89.0,73/250,34,119.69
182,F2,89.25,73/250,30,119.69
183,E2,89.5,73/250,34,119.69
184,F2,89.75,73/250,29,119.69
185,E2,90.0,73/250,34,119.69
186,D4,90.0,73/250,40,119.69
187,D3,90.0,73/250,40,119.69
188,F2,90.25,73/250,28,119.69
189,E2,90.5,73/250,34,119.69
190,F2,90.75,73/250,29,119.69
191,E2,91.0,73/250,34,119.69
192,F2,91.25,73/250,29,119.69
193,E2,91.5,73/250,34,119.69
194,F2,91.75,0.25,30,119.69
195,E2,92.0,73/250,39,119.69
196,F2,92.0,21/500,30,119.69
197,E4,92.0,2.0,56,119.69
198,E3,92.0,2.0,56,119.69
199,F2,92.25,73/250,33,119.69
200,E2,92.5,73/250,39,119.69
201,F2,92.75,73/250,33,119.69
202,E2,93.0,73/250,39,119.69
203,F2,93.25,73/250,33,119.69
204,E2,93.5,73/250,40,119.69
205,F2,93.75,73/250,35,119.69
206,E2,94.0,73/250,40,119.69
207,C3,94.0,73/250,51,119.69
208,C4,94.0,73/250,51,119.69
209,F2,94.25,73/250,35,119.69
210,E2,94.5,73/250,41,119.69
211,F2,94.75,73/250,34,119.69
212,E2,95.0,73/250,41,119.69
213,F2,95.25,73/250,36,119.69
214,E2,95.5,73/250,42,119.69
215,F2,95.75,0.25,37,119.69
216,E2,96.0,73/250,47,119.69
217,F2,96.0,21/500,37,119.69
218,D3,96.0,2.0,73,119.69
219,D4,96.0,2.0,73,119.69
220,F2,96.25,73/250,39,119.69
221,E2,96.5,73/250,47,119.69
222,F2,96.75,73/250,39,119.69
223,E2,97.0,73/250,48,119.69
224,F2,97.25,73/250,40,119.69
225,E2,97.5,73/250,48,119.69
226,F2,97.75,73/250,42,119.69
227,E2,98.0,73/250,49,119.69
228,B3,98.0,73/250,69,119.69
229,B2,98.0,73/250,69,119.69
230,F2,98.25,73/250,43,119.69
231,E2,98.5,73/250,54,119.69
232,F2,98.75,73/250,48,119.69
233,E2,99.0,73/250,62,119.69
234,F2,99.25,73/250,63,119.69
235,E2,99.5,73/250,71,119.69
236,G#2,99.75,0.25,79,119.69
237,G#2,100.0,21/500,79,119.69
238,A3,100.0,2.0,95,119.69
239,A4,100.0,2.0,95,119.69
240,A1,100.0,2.0,80,119.69
241,A2,100.0,2.0,80,119.69
242,E4,102.0,2.0,91,119.69
243,E5,102.0,2.0,91,119.69
244,E2,102.0,2.0,76,119.69
245,E3,102.0,2.0,76,119.69
246,E-4,104.0,2.0,88,119.69
247,E-5,104.0,2.0,88,119.69
248,E-3,104.0,2.0,73,119.69
249,E-2,104.0,2.0,73,119.69
250,E5,106.0,0.5,81,119.69
251,E4,106.0,0.5,81,119.69
252,E2,106.0,0.5,66,119.69
253,E3,106.0,0.5,66,119.69
254,C5,107.0,0.5,78,119.69
255,E4,107.0,0.5,78,119.69
256,E3,107.0,0.5,48,119.69
257,E4,107.0,0.5,48,119.69
258,E4,107.75,0.188,68,119.69
259,B4,107.75,0.188,68,119.69
260,D3,107.75,0.188,46,119.69
261,D4,107.75,0.188,46,119.69
262,E4,108.0,0.5,74,119.69
263,A4,108.0,0.5,74,119.69
264,C4,108.0,0.5,48,119.69
265,C3,108.0,0.5,48,119.69
266,D4,108.75,0.188,68,119.69
267,G4,108.75,0.188,68,119.69
268,B3,108.75,0.188,46,119.69
269,B2,108.75,0.188,46,119.69
270,F4,109.0,0.5,68,119.69
271,C4,109.0,0.5,68,119.69
272,A3,109.0,0.5,43,119.69
273,A2,109.0,0.5,43,119.69
274,E4,109.75,0.188,64,119.69
275,B3,109.75,0.188,64,119.69
276,G#2,109.75,0.188,42,119.69
277,G#3,109.75,0.188,42,119.69
278,C4,110.0,0.5,74,119.69
279,F4,110.0,0.5,74,119.69
280,A3,110.0,0.5,46,119.69
281,A2,110.0,0.5,46,119.69
282,B3,110.75,0.188,64,119.69
283,E4,110.75,0.188,64,119.69
284,G3,110.75,0.188,40,119.69
285,G2,110.75,0.188,40,119.69
286,A3,111.0,0.5,70,119.69
287,D4,111.0,0.5,70,119.69
288,F3,111.0,0.5,46,119.69
289,F2,111.0,0.5,46,119.69
290,C#4,111.75,0.188,64,119.69
291,G3,111.75,0.188,64,119.69
292,E3,111.75,0.188,42,119.69
293,E2,111.75,0.188,42,119.69
294,A3,112.0,0.5,76,119.69
295,D4,112.0,0.5,76,119.69
296,F3,112.0,0.5,48,119.69
297,F2,112.0,0.5,48,119.69
298,B3,112.75,0.188,68,119.69
299,E4,112.75,0.188,68,119.69
300,G#3,112.75,0.188,46,119.69
301,G#2,112.75,0.188,46,119.69
302,C4,113.0,0.5,77,119.69
303,F4,113.0,0.5,77,119.69
304,A2,113.0,0.5,48,119.69
305,A3,113.0,0.5,48,119.69
306,D4,113.75,0.188,68,119.69
307,G#4,113.75,0.188,68,119.69
308,B2,113.75,0.188,46,119.69
309,B3,113.75,0.188,46,119.69
310,A4,114.0,0.5,81,119.69
311,E4,114.0,0.5,81,119.69
312,C3,114.0,0.5,52,119.69
313,C4,114.0,0.5,52,119.69
314,E4,114.75,0.188,74,119.69
315,B4,114.75,0.188,74,119.69
316,D3,114.75,0.188,48,119.69
317,D4,114.75,0.188,48,119.69
318,E4,115.0,0.25,78,119.69
319,A4,115.0,0.25,78,119.69
320,C4,115.0,0.25,53,119.69
321,C3,115.0,0.25,53,119.69
322,A3,116.0,2.0,97,119.69
323,A2,116.0,2.0,90,119.69
324,A3,118.0,2.0,85,119.69
325,A4,118.0,2.0,85,119.69
326,F4,118.0,2.0,85,119.69
327,D2,118.0,2.0,86,119.69
328,A2,118.0,2.0,86,119.69
329,C#2,120.0,2.0,71,119.69
330,A2,120.0,2.5,71,119.69
331,B-4,120.0,2.0,90,119.69
332,B-3,120.0,2.0,90,119.69
333,G4,120.0,2.0,90,119.69
334,D2,122.0,0.5,71,119.69
335,F4,122.0,0.5,80,119.69
336,A4,122.0,0.5,80,119.69
337,A3,122.0,0.5,80,119.69
338,A4,123.0,0.5,81,119.69
339,F5,123.0,0.5,81,119.69
340,A3,123.0,0.5,53,119.69
341,A4,123.0,0.5,53,119.69
342,A4,123.75,0.188,77,119.69
343,E5,123.75,0.188,77,119.69
344,G3,123.75,0.188,52,119.69
345,G4,123.75,0.188,52,119.69
346,D5,124.0,0.5,74,119.69
347,A4,124.0,0.5,74,119.69
348,F3,124.0,0.5,48,119.69
349,F4,124.0,0.5,48,119.69
350,G4,124.75,0.188,68,119.69
351,C5,124.75,0.188,68,119.69
352,E3,124.75,0.188,46,119.69
353,E4,124.75,0.188,46,119.69
354,F4,125.0,0.5,68,119.69
355,B-4,125.0,0.5,68,119.69
356,D4,125.0,0.5,43,119.69
357,D3,125.0,0.5,43,119.69
358,E4,125.75,0.188,64,119.69
359,A4,125.75,0.188,64,119.69
360,C#3,125.75,0.188,42,119.69
361,C#4,125.75,0.188,42,119.69
362,B-4,126.0,0.5,70,119.69
363,F4,126.0,0.5,70,119.69
364,D3,126.0,0.5,46,119.69
365,D4,126.0,0.5,46,119.69
366,E4,126.75,0.188,64,119.69
367,A4,126.75,0.188,64,119.69
368,C3,126.75,0.188,40,119.69
369,C4,126.75,0.188,40,119.69
370,D4,127.0,0.5,74,119.69
371,G4,127.0,0.5,74,119.69
372,B-2,127.0,0.5,46,119.69
373,B-3,127.0,0.5,46,119.69
374,C4,127.75,0.188,64,119.69
375,F#4,127.75,0.188,64,119.69
376,A3,127.75,0.188,42,119.69
377,A2,127.75,0.188,42,119.69
378,D4,128.0,0.5,77,119.69
379,G4,128.0,0.5,77,119.69
380,B-3,128.0,0.5,47,119.69
381,B-2,128.0,0.5,47,119.69
382,A4,128.75,0.188,68,119.69
383,E4,128.75,0.188,68,119.69
384,C#4,128.75,0.188,46,119.69
385,C#3,128.75,0.188,46,119.69
386,F4,129.0,0.5,78,119.69
387,B-4,129.0,0.5,78,119.69
388,D4,129.0,0.5,48,119.69
389,D3,129.0,0.5,48,119.69
390,G4,129.75,0.188,68,119.69
391,C#5,129.75,0.188,68,119.69
392,E4,129.75,0.188,46,119.69
393,E3,129.75,0.188,46,119.69
394,A4,130.0,0.5,77,119.69
395,D5,130.0,0.5,77,119.69
396,F3,130.0,0.5,52,119.69
397,F4,130.0,0.5,52,119.69
398,E5,130.75,0.188,74,119.69
399,A4,130.75,0.188,74,119.69
400,G3,130.75,0.188,48,119.69
401,G4,130.75,0.188,48,119.69
402,A4,131.0,0.25,78,119.69
403,D5,131.0,0.25,78,119.69
404,F3,131.0,0.25,53,119.69
405,F4,131.0,0.25,53,119.69
406,G3,132.0,2.0,91,119.69
407,B-3,132.0,2.0,91,119.69
408,D3,132.0,2.0,91,119.69
409,D4,132.0,2.0,91,119.69
410,D2,134.0,0.375,76,119.69
411,D3,134.0,0.375,76,119.69
412,D3,136.0,2.0,90,119.69
413,F3,136.0,2.0,90,119.69
414,D4,136.0,2.0,90,119.69
415,A3,136.0,2.0,90,119.69
416,D3,138.0,0.375,76,119.69
417,D2,138.0,0.375,76,119.69
418,D4,139.0,497/500,83,119.69
419,D5,139.0,1.0,93,119.69
420,D5,140.0,1.0,93,119.69
421,G3,140.0,2.0,82,119.69
422,B-3,140.0,2.0,82,119.69
423,D4,140.0,2.0,82,119.69
424,D3,140.0,2.0,82,119.69
425,G4,141.0,1.0,84,119.69
426,G5,141.0,1.0,84,119.69
427,A4,142.0,1.0,89,119.69
428,A5,142.0,1.0,89,119.69
429,D2,142.0,0.375,66,119.69
430,D3,142.0,0.375,66,119.69
431,B-4,143.0,1.0,84,119.69
432,B-5,143.0,1.0,84,119.69
433,A4,144.0,2.0,88,119.69
434,A5,144.0,2.0,88,119.69
435,F3,144.0,997/500,78,119.69
436,A3,144.0,997/500,78,119.69
437,D3,144.0,997/500,78,119.69
438,D4,144.0,997/500,78,119.69
439,D4,146.0,417/1000,80,119.69
440,D5,146.0,417/1000,80,119.69
441,D2,146.0,417/1000,70,119.69
442,D3,146.0,417/1000,70,119.69
443,C5,147.0,1.0,92,119.69
444,C6,147.0,1.0,92,119.69
445,B-4,148.0,2.0,92,119.69
446,B-5,148.0,2.0,92,119.69
447,D3,148.0,2.0,78,119.69
448,G3,148.0,2.0,78,119.69
449,D4,148.0,2.0,78,119.69
450,B-3,148.0,2.0,78,119.69
451,D5,150.0,417/1000,87,119.69
452,D4,150.0,417/1000,87,119.69
453,D3,150.0,417/1000,70,119.69
454,D2,150.0,417/1000,70,119.69
455,B-4,151.0,1.0,92,119.69
456,B-5,151.0,1.0,92,119.69
457,A4,152.0,2.0,87,119.69
458,A5,152.0,2.0,87,119.69
459,F3,152.0,2.0,78,119.69
460,A3,152.0,2.0,78,119.69
461,D4,152.0,2.0,78,119.69
462,D3,152.0,2.0,78,119.69
463,D4,154.0,417/1000,80,119.69
464,D5,154.0,417/1000,80,119.69
465,D3,154.0,417/1000,69,119.69
466,D2,154.0,417/1000,69,119.69
467,D5,155.0,1.0,92,119.69
468,D4,155.0,1.0,92,119.69
469,D5,156.0,1.0,92,119.69
470,D4,156.0,1.0,92,119.69
471,D3,156.0,2.0,80,119.69
472,G3,156.0,2.0,80,119.69
473,D4,156.0,2.0,80,119.69
474,B-3,156.0,2.0,80,119.69
475,G4,157.0,1.0,86,119.69
476,G5,157.0,1.0,86,119.69
477,A4,158.0,1.0,91,119.69
478,A5,158.0,1.0,91,119.69
479,D2,158.0,0.375,70,119.69
480,D3,158.0,0.375,70,119.69
481,B-4,159.0,1.0,88,119.69
482,B-5,159.0,1.0,88,119.69
483,A4,160.0,2.0,93,119.69
484,A5,160.0,2.0,93,119.69
485,D3,160.0,2.0,80,119.69
486,A3,160.0,2.0,80,119.69
487,D4,160.0,2.0,80,119.69
488,F3,160.0,2.0,80,119.69
489,D5,162.0,417/1000,80,119.69
490,D4,162.0,417/1000,80,119.69
491,D2,162.0,417/1000,70,119.69
492,D3,162.0,417/1000,70,119.69
493,A4,163.0,1.0,89,119.69
494,A5,163.0,1.0,89,119.69
495,A4,164.0,1.0,89,119.69
496,A5,164.0,1.0,89,119.69
497,E3,164.0,2.0,76,119.69
498,A3,164.0,2.0,76,119.69
499,C4,164.0,2.0,76,119.69
500,C3,164.0,2.0,76,119.69
501,C6,165.0,1.0,90,119.69
502,C5,165.0,1.0,90,119.69
503,D5,166.0,1.0,98,119.69
504,D6,166.0,1.0,98,119.69
505,C3,166.0,0.375,67,119.69
506,C2,166.0,0.375,67,119.69
507,E6,167.0,1.0,96,119.69
508,E5,167.0,1.0,96,119.69
509,E6,168.0,1917/1000,102,119.69
510,E5,168.0,1917/1000,102,119.69
511,B2,168.0,1917/1000,80,119.69
512,G#3,168.0,1917/1000,80,119.69
513,B3,168.0,1917/1000,80,119.69
514,E5,170.0,1917/1000,89,119.69
515,E6,170.0,1917/1000,89,119.69
516,E4,170.0,1917/1000,73,119.69
517,E3,170.0,1917/1000,73,119.69
518,G#3,170.0,1917/1000,73,119.69
519,C6,172.0,2.0,91,119.69
520,C5,172.0,2.0,91,119.69
521,C3,172.0,2.0,75,119.69
522,C4,172.0,2.0,75,119.69
523,A5,174.0,417/1000,76,119.69
524,A4,174.0,417/1000,76,119.69
525,A2,174.0,417/1000,69,119.69
526,A3,174.0,417/1000,69,119.69
527,E4,176.0,1917/1000,48,119.69
528,E5,176.0,1917/1000,48,119.69
529,G#2,176.0,1917/1000,40,119.69
530,B2,176.0,1917/1000,40,119.69
531,B1,176.0,1917/1000,40,119.69
532,E5,178.0,1917/1000,48,119.69
533,E4,178.0,1917/1000,48,119.69
534,E2,178.0,1917/1000,37,119.69
535,G#2,178.0,1917/1000,37,119.69
536,E3,178.0,1917/1000,37,119.69
537,C4,180.0,2.0,45,119.69
538,C5,180.0,2.0,45,119.69
539,C3,180.0,2.0,37,119.69
540,C2,180.0,2.0,37,119.69
541,A3,182.0,417/1000,41,119.69
542,A4,182.0,417/1000,41,119.69
543,A2,182.0,417/1000,37,119.69
544,A1,182.0,417/1000,37,119.69
545,B-3,184.0,2.0,34,119.69
546,B-4,184.0,2.0,34,119.69
547,B-1,184.0,2.0,31,119.69
548,B-2,184.0,2.0,31,119.69
549,G4,186.0,0.375,25,119.69
550,G3,186.0,0.375,25,119.69
551,G1,186.0,0.375,24,119.69
552,G2,186.0,0.375,24,119.69
553,B-3,188.0,2.0,31,119.69
554,B-4,188.0,2.0,31,119.69
555,B-1,188.0,2.0,30,119.69
556,B-2,188.0,2.0,30,119.69
557,G3,190.0,0.375,25,119.69
558,G4,190.0,0.375,25,119.69
559,G1,190.0,0.375,22,119.69
560,G2,190.0,0.375,22,119.69
561,B-3,192.0,2.0,31,119.69
562,B-4,192.0,2.0,31,119.69
563,B-2,192.0,2.0,30,119.69
564,B-1,192.0,2.0,30,119.69
565,G3,194.0,0.375,24,119.69
566,G4,194.0,0.375,24,119.69
567,G1,194.0,0.375,23,119.69
568,G2,194.0,0.375,23,119.69
569,B-4,196.0,2.0,34,119.69
570,B-3,196.0,2.0,34,119.69
571,B-1,196.0,2.0,31,119.69
572,B-2,196.0,2.0,31,119.69
573,G3,198.0,0.375,29,119.69
574,G4,198.0,0.375,29,119.69
575,G1,198.0,0.375,26,119.69
576,G2,198.0,0.375,26,119.69
577,B3,200.0,0.25,80,119.69
578,B1,200.0,0.25,68,119.69
579,B4,200.25,0.25,76,119.69
580,B2,200.25,0.25,55,119.69
581,B3,200.5,0.25,72,119.69
582,B1,200.5,0.25,54,119.69
583,B4,200.75,0.25,67,119.69
584,B2,200.75,0.25,52,119.69
585,B3,201.0,0.25,63,119.69
586,B1,201.0,0.25,51,119.69
587,B4,201.25,0.25,60,119.69
588,B2,201.25,0.25,49,119.69
589,B3,201.5,0.25,57,119.69
590,B1,201.5,0.25,48,119.69
591,B4,201.75,0.25,54,119.69
592,B2,201.75,0.25,46,119.69
593,B3,202.0,0.25,60,119.69
594,B1,202.0,0.25,49,119.69
595,B4,202.25,0.25,57,119.69
596,B2,202.25,0.25,48,119.69
597,B3,202.5,0.25,55,119.69
598,B1,202.5,0.25,47,119.69
599,B4,202.75,0.25,52,119.69
600,B2,202.75,0.25,45,119.69
601,B3,203.0,0.25,58,119.69
602,B1,203.0,0.25,51,119.69
603,B4,203.25,0.25,56,119.69
604,B2,203.25,0.25,47,119.69
605,B3,203.5,0.25,54,119.69
606,B1,203.5,0.25,44,119.69
607,B4,203.75,0.25,51,119.69
608,B2,203.75,0.25,43,119.69
609,G#3,204.0,0.25,80,119.69
610,G#1,204.0,0.25,64,119.69
611,G#4,204.25,0.25,75,119.69
612,G#2,204.25,0.25,53,119.69
613,G#3,204.5,0.25,69,119.69
614,G#1,204.5,0.25,50,119.69
615,G#4,204.75,0.25,65,119.69
616,G#2,204.75,0.25,46,119.69
617,G#3,205.0,0.25,61,119.69
618,G#1,205.0,0.25,57,119.69
619,G#4,205.25,0.25,60,119.69
620,G#2,205.25,0.25,53,119.69
621,G#3,205.5,0.25,59,119.69
622,G#1,205.5,0.25,52,119.69
623,G#4,205.75,0.25,58,119.69
624,G#2,205.75,0.25,51,119.69
625,G#3,206.0,0.25,69,119.69
626,G#1,206.0,0.25,59,119.69
627,G#4,206.25,0.25,68,119.69
628,G#2,206.25,0.25,54,119.69
629,G#3,206.5,0.25,66,119.69
630,G#1,206.5,0.25,53,119.69
631,G#4,206.75,0.25,63,119.69
632,G#2,206.75,0.25,39,119.69
633,G#3,207.0,0.25,73,119.69
634,G#1,207.0,0.25,59,119.69
635,G#4,207.25,0.25,70,119.69
636,G#2,207.25,0.25,58,119.69
637,G#3,207.5,0.25,67,119.69
638,G#1,207.5,0.25,56,119.69
639,G#4,207.75,0.25,64,119.69
640,G#2,207.75,0.25,54,119.69
641,B5,208.0,1.0,99,119.69
642,B4,208.0,1.0,99,119.69
643,B3,208.0,1.0,79,119.69
644,B2,208.0,1.0,79,119.69
645,G#4,209.0,0.375,90,119.69
646,G#5,209.0,0.375,90,119.69
647,G#3,209.0,0.375,69,119.69
648,G#2,209.0,0.375,69,119.69
649,B4,210.0,1.0,98,119.69
650,B5,210.0,1.0,98,119.69
651,B3,210.0,1.0,79,119.69
652,B2,210.0,1.0,79,119.69
653,E6,211.0,0.375,93,119.69
654,E5,211.0,0.375,93,119.69
655,E3,211.0,0.375,69,119.69
656,E4,211.0,0.375,69,119.69
657,B4,212.0,1.0,95,119.69
658,B5,212.0,1.0,95,119.69
659,B3,212.0,1.0,75,119.69
660,B2,212.0,1.0,75,119.69
661,G#4,213.0,0.375,90,119.69
662,G#5,213.0,0.375,90,119.69
663,G#3,213.0,0.375,70,119.69
664,G#2,213.0,0.375,70,119.69
665,E5,214.0,1.0,90,119.69
666,E4,214.0,1.0,90,119.69
667,E3,214.0,1.0,69,119.69
668,E2,214.0,1.0,69,119.69
669,B3,215.0,0.375,81,119.69
670,B4,215.0,0.375,81,119.69
671,B2,215.0,0.375,60,119.69
672,B1,215.0,0.375,60,119.69
673,G#4,216.0,4.0,34,119.69
674,E4,216.0,4.0,34,119.69
675,G#3,216.0,4.0,34,119.69
676,B1,216.0,4.0,27,119.69
677,B2,216.0,4.0,27,119.69
678,A3,220.0,4.0,38,119.69
679,B4,220.0,4.0,38,119.69
680,E-4,220.0,4.0,38,119.69
681,B3,224.0,0.25,93,119.69
682,B1,224.0,4.0,27,119.69
683,B2,224.0,4.0,27,119.69
684,B4,224.25,0.25,87,119.69
685,B3,224.5,0.25,81,119.69
686,B4,224.75,0.25,75,119.69
687,G#3,225.0,0.25,91,119.69
688,G#4,225.25,0.25,86,119.69
689,G#3,225.5,0.25,81,119.69
690,G#4,225.75,0.25,75,119.69
691,B3,226.0,0.25,84,119.69
692,B4,226.25,0.25,80,119.69
693,B3,226.5,0.25,77,119.69
694,B4,226.75,0.25,73,119.69
695,E4,227.0,0.25,88,119.69
696,E5,227.25,0.25,85,119.69
697,E4,227.5,0.25,83,119.69
698,E5,227.75,0.25,80,119.69
699,G#4,228.0,0.25,91,119.69
700,B1,228.0,0.25,81,119.69
701,G#5,228.25,0.25,88,119.69
702,B2,228.25,0.25,50,119.69
703,G#4,228.5,0.25,86,119.69
704,B1,228.5,0.25,63,119.69
705,G#5,228.75,0.25,83,119.69
706,B2,228.75,0.25,48,119.69
707,B4,229.0,0.25,94,119.69
708,G#1,229.0,0.25,72,119.69
709,B5,229.25,0.25,91,119.69
710,G#2,229.25,0.25,52,119.69
711,B4,229.5,0.25,88,119.69
712,G#1,229.5,0.25,58,119.69
713,B5,229.75,0.25,84,119.69
714,G#2,229.75,0.25,46,119.69
715,E5,230.0,0.25,102,119.69
716,B1,230.0,0.25,72,119.69
717,E6,230.25,0.25,96,119.69
718,B2,230.25,0.25,53,119.69
719,E5,230.5,0.25,90,119.69
720,B1,230.5,0.25,60,119.69
721,E6,230.75,0.25,84,119.69
722,B2,230.75,0.25,45,119.69
723,B4,231.0,0.25,82,119.69
724,E2,231.0,0.25,72,119.69
725,B5,231.25,0.25,71,119.69
726,E3,231.25,0.25,53,119.69
727,B4,231.5,0.25,68,119.69
728,E2,231.5,0.25,62,119.69
729,B5,231.75,0.25,64,119.69
730,E3,231.75,0.25,48,119.69
731,G#2,232.0,0.25,77,119.69
732,G#4,232.0,4.0,39,119.69
733,E4,232.0,4.0,39,119.69
734,G#3,232.0,4.0,39,119.69
735,G#3,232.25,0.25,60,119.69
736,G#2,232.5,0.25,68,119.69
737,G#3,232.75,0.25,55,119.69
738,B2,233.0,0.25,79,119.69
739,B3,233.25,0.25,57,119.69
740,B2,233.5,0.25,66,119.69
741,B3,233.75,0.25,51,119.69
742,E3,234.0,0.25,88,119.69
743,E4,234.25,0.25,57,119.69
744,E3,234.5,0.25,74,119.69
745,E4,234.75,0.25,57,119.69
746,B2,235.0,0.25,73,119.69
747,B3,235.25,0.25,48,119.69
748,B2,235.5,0.25,58,119.69
749,B3,235.75,0.25,47,119.69
750,B4,236.0,4.0,47,119.69
751,A3,236.0,4.0,47,119.69
752,E-4,236.0,4.0,47,119.69
753,B2,236.0,4.0,37,119.69
754,B1,236.0,4.0,37,119.69
755,G#3,240.0,1917/1000,37,119.69
756,E4,240.0,1917/1000,37,119.69
757,G#3,242.0,1.75,28,119.69
758,E4,242.0,1.75,28,119.69
759,G#3,244.0,979/1000,39,119.69
760,E4,244.0,979/1000,39,119.69
761,B2,244.0,4.0,37,119.69
762,B1,244.0,4.0,37,119.69
763,G#4,245.0,979/1000,34,119.69
764,G#3,245.0,979/1000,34,119.69
765,G#3,246.0,979/1000,38,119.69
766,F#4,246.0,979/1000,38,119.69
767,G#3,247.0,979/1000,35,119.69
768,G#4,247.0,979/1000,35,119.69
769,A3,248.0,1917/1000,39,119.69
770,C#4,248.0,1917/1000,39,119.69
771,B2,248.0,1917/1000,20,119.69
772,E2,248.0,1917/1000,20,119.69
773,A3,250.0,1.75,28,119.69
774,C#4,250.0,1.75,28,119.69
775,B2,250.0,1.75,19,119.69
776,E2,250.0,1.75,19,119.69
777,C#4,252.0,979/1000,38,119.69
778,A3,252.0,979/1000,38,119.69
779,B2,252.0,979/1000,20,119.69
780,E2,252.0,979/1000,20,119.69
781,B3,253.0,979/1000,31,119.69
782,A3,253.0,979/1000,31,119.69
783,F#4,253.0,979/1000,31,119.69
784,E2,253.0,979/1000,16,119.69
785,B2,253.0,979/1000,16,119.69
786,E4,254.0,979/1000,37,119.69
787,A3,254.0,979/1000,37,119.69
788,B3,254.0,979/1000,37,119.69
789,E2,254.0,979/1000,19,119.69
790,B2,254.0,979/1000,19,119.69
791,F#4,255.0,979/1000,29,119.69
792,A3,255.0,979/1000,29,119.69
793,B3,255.0,979/1000,29,119.69
794,E2,255.0,979/1000,15,119.69
795,B2,255.0,979/1000,15,119.69
796,B3,256.0,1917/1000,36,119.69
797,G#3,256.0,1917/1000,36,119.69
798,E2,256.0,1917/1000,23,119.69
799,C#3,256.0,1917/1000,23,119.69
800,G#3,258.0,1.75,26,119.69
801,E4,258.0,1.75,26,119.69
802,C#3,258.0,1.75,17,119.69
803,E2,258.0,1.75,17,119.69
804,G#3,260.0,979/1000,46,119.69
805,E4,260.0,979/1000,46,119.69
806,C#3,260.0,979/1000,20,119.69
807,E2,260.0,979/1000,20,119.69
808,G#3,261.0,979/1000,38,119.69
809,G#4,261.0,979/1000,38,119.69
810,E-3,261.0,979/1000,15,119.69
811,E2,261.0,979/1000,15,119.69
812,F#4,262.0,979/1000,46,119.69
813,G#3,262.0,979/1000,46,119.69
814,E2,262.0,979/1000,19,119.69
815,C#3,262.0,979/1000,19,119.69
816,G#3,263.0,979/1000,39,119.69
817,G#4,263.0,979/1000,39,119.69
818,E2,263.0,979/1000,15,119.69
819,E-3,263.0,979/1000,15,119.69
820,A3,264.0,1917/1000,46,119.69
821,E4,264.0,1917/1000,46,119.69
822,A4,264.0,1917/1000,46,119.69
823,E3,264.0,1917/1000,23,119.69
824,E2,264.0,1917/1000,23,119.69
825,A3,266.0,1.75,38,119.69
826,E4,266.0,1.75,38,119.69
827,A4,266.0,1.75,38,119.69
828,B2,266.0,1.75,17,119.69
829,E2,266.0,1.75,17,119.69
830,A4,268.0,1917/1000,51,119.69
831,C#4,268.0,1917/1000,51,119.69
832,C#5,268.0,1917/1000,51,119.69
833,B2,268.0,979/1000,23,119.69
834,E2,268.0,979/1000,23,119.69
835,B2,269.0,979/1000,18,119.69
836,E2,269.0,979/1000,18,119.69
837,C#4,270.0,124/125,50,119.69
838,A4,270.0,1.75,50,119.69
839,C#5,270.0,1.75,50,119.69
840,E2,270.0,979/1000,24,119.69
841,B2,270.0,979/1000,24,119.69
842,B2,271.0,979/1000,18,119.69
843,E2,271.0,979/1000,18,119.69
844,E4,272.0,1917/1000,36,119.69
845,G#4,272.0,1917/1000,36,119.69
846,E5,272.0,1917/1000,36,119.69
847,C#3,272.0,1917/1000,25,119.69
848,E2,272.0,1917/1000,25,119.69
849,G#4,274.0,1.75,28,119.69
850,E4,274.0,1.75,28,119.69
851,E5,274.0,1.75,28,119.69
852,C#3,274.0,1.75,19,119.69
853,E2,274.0,1.75,19,119.69
854,E2,276.0,4.0,30,119.69
855,C#3,276.0,1.0,36,119.69
856,E-4,276.0,979/1000,38,119.69
857,A4,276.0,979/1000,38,119.69
858,F#5,276.0,979/1000,38,119.69
859,E3,277.0,1.0,33,119.69
860,F#4,277.0,979/1000,31,119.69
861,A4,277.0,979/1000,31,119.69
862,E-5,277.0,979/1000,31,119.69
863,A3,278.0,1.0,37,119.69
864,F#4,278.0,979/1000,36,119.69
865,B4,278.0,979/1000,36,119.69
866,C#4,279.0,1.0,39,119.69
867,E4,279.0,979/1000,31,119.69
868,A4,279.0,979/1000,31,119.69
869,E4,280.0,1917/1000,32,119.69
870,G#4,280.0,1917/1000,32,119.69
871,B3,280.0,1917/1000,26,119.69
872,E3,280.0,1917/1000,26,119.69
873,E4,282.0,1.75,21,119.69
874,G#4,282.0,1.75,21,119.69
875,B3,282.0,1.75,20,119.69
876,E3,282.0,1.75,20,119.69
877,E-4,284.0,979/1000,37,119.69
878,F#5,284.0,979/1000,37,119.69
879,A4,284.0,979/1000,37,119.69
880,E3,284.0,979/1000,22,119.69
881,B3,284.0,979/1000,22,119.69
882,E-5,285.0,979/1000,30,119.69
883,A4,285.0,979/1000,30,119.69
884,F#4,285.0,979/1000,30,119.69
885,E3,285.0,979/1000,18,119.69
886,B3,285.0,979/1000,18,119.69
887,F#4,286.0,979/1000,35,119.69
888,B4,286.0,979/1000,35,119.69
889,E-4,286.0,979/1000,20,119.69
890,E3,286.0,979/1000,20,119.69
891,E4,287.0,979/1000,30,119.69
892,A4,287.0,979/1000,30,119.69
893,E3,287.0,979/1000,18,119.69
894,C#4,287.0,979/1000,18,119.69
895,G#4,288.0,1917/1000,32,119.69
896,E4,288.0,1917/1000,32,119.69
897,E3,288.0,1917/1000,24,119.69
898,B3,288.0,1917/1000,24,119.69
899,E4,290.0,1.75,21,119.69
900,G#4,290.0,1.75,21,119.69
901,E3,290.0,1.75,15,119.69
902,B3,290.0,1.75,15,119.69
903,E4,292.0,979/1000,35,119.69
904,E3,292.0,979/1000,22,119.69
905,B3,292.0,979/1000,22,119.69
906,E4,293.0,979/1000,28,119.69
907,G#4,293.0,979/1000,28,119.69
908,E3,293.0,979/1000,17,119.69
909,B3,293.0,979/1000,17,119.69
910,E4,294.0,979/1000,32,119.69
911,F#4,294.0,979/1000,32,119.69
912,E-4,294.0,979/1000,20,119.69
913,E3,294.0,979/1000,20,119.69
914,G#4,295.0,979/1000,30,119.69
915,E4,295.0,979/1000,30,119.69
916,C#4,295.0,979/1000,18,119.69
917,E3,295.0,979/1000,18,119.69
918,E4,296.0,1917/1000,31,119.69
919,B4,296.0,1917/1000,31,119.69
920,E3,296.0,1917/1000,26,119.69
921,B3,296.0,1917/1000,26,119.69
922,E4,298.0,0.5,21,119.69
923,B-4,298.0,0.5,21,119.69
924,E3,298.0,1.75,15,119.69
925,B3,298.0,1.75,15,119.69
926,E6,300.0,1917/1000,44,119.69
927,B5,300.0,1917/1000,44,119.69
928,E5,300.0,1917/1000,44,119.69
929,G#3,300.0,979/1000,25,119.69
930,E3,300.0,979/1000,25,119.69
931,B3,301.0,979/1000,23,119.69
932,E3,301.0,979/1000,23,119.69
933,A5,302.0,917/1000,27,119.69
934,E6,302.0,917/1000,27,119.69
935,E5,302.0,917/1000,27,119.69
936,E3,302.0,979/1000,25,119.69
937,A3,302.0,979/1000,25,119.69
938,B3,303.0,979/1000,24,119.69
939,E3,303.0,979/1000,24,119.69
940,A4,304.0,1917/1000,34,119.69
941,E4,304.0,1917/1000,34,119.69
942,E3,304.0,1917/1000,25,119.69
943,C#4,304.0,1917/1000,25,119.69
944,E4,306.0,917/1000,24,119.69
945,G#4,306.0,917/1000,24,119.69
946,E3,306.0,0.5,15,119.69
947,C#4,306.0,0.5,15,119.69
948,E6,308.0,1917/1000,42,119.69
949,A5,308.0,1917/1000,42,119.69
950,E5,308.0,1917/1000,42,119.69
951,C5,308.0,1917/1000,22,119.69
952,E4,308.0,1917/1000,22,119.69
953,E5,310.0,917/1000,26,119.69
954,G5,310.0,917/1000,26,119.69
955,E6,310.0,917/1000,26,119.69
956,E4,310.0,917/1000,8,119.69
957,C5,310.0,917/1000,8,119.69
958,E4,312.0,1917/1000,79,119.69
959,C4,312.0,1917/1000,79,119.69
960,F#3,312.0,1917/1000,79,119.69
961,F#4,312.0,1917/1000,79,119.69
962,B3,312.0,1917/1000,25,119.69
963,E3,312.0,1917/1000,25,119.69
964,E4,314.0,917/1000,62,119.69
965,C4,314.0,917/1000,62,119.69
966,F#3,314.0,917/1000,62,119.69
967,F#4,314.0,917/1000,62,119.69
968,B3,314.0,917/1000,10,119.69
969,E3,314.0,917/1000,10,119.69
970,E5,316.0,979/1000,49,119.69
971,C#5,316.0,979/1000,49,119.69
972,F#5,316.0,979/1000,49,119.69
973,E4,316.0,1917/1000,22,119.69
974,B4,316.0,1917/1000,22,119.69
975,B4,317.0,979/1000,40,119.69
976,E5,317.0,979/1000,40,119.69
977,G#5,317.0,979/1000,40,119.69
978,A4,318.0,979/1000,45,119.69
979,E5,318.0,979/1000,45,119.69
980,A5,318.0,979/1000,45,119.69
981,B4,318.0,917/1000,11,119.69
982,E4,318.0,917/1000,11,119.69
983,E5,319.0,979/1000,40,119.69
984,B4,319.0,979/1000,40,119.69
985,G#5,319.0,979/1000,40,119.69
986,E5,320.0,1917/1000,50,119.69
987,B4,320.0,1917/1000,50,119.69
988,B5,320.0,1917/1000,50,119.69
989,A2,320.0,1917/1000,62,119.69
990,A1,320.0,1917/1000,62,119.69
991,B4,322.0,917/1000,28,119.69
992,B5,322.0,917/1000,28,119.69
993,E-5,322.0,917/1000,28,119.69
994,A2,322.0,917/1000,45,119.69
995,A1,322.0,917/1000,45,119.69
996,E4,324.0,1917/1000,34,119.69
997,G#4,324.0,1917/1000,34,119.69
998,F#4,324.0,979/1000,39,119.69
999,E4,324.0,979/1000,39,119.69
1000,A3,324.0,979/1000,39,119.69
1001,B3,325.0,979/1000,34,119.69
1002,E4,325.0,979/1000,34,119.69
1003,G#4,325.0,979/1000,34,119.69
1004,E4,326.0,917/1000,23,119.69
1005,G#4,326.0,917/1000,23,119.69
1006,E4,326.0,979/1000,37,119.69
1007,C#4,326.0,979/1000,37,119.69
1008,E4,327.0,979/1000,36,119.69
1009,G#4,327.0,979/1000,36,119.69
1010,B3,327.0,979/1000,36,119.69
1011,F#3,328.0,1917/1000,82,119.69
1012,F#4,328.0,1917/1000,82,119.69
1013,E4,328.0,1917/1000,82,119.69
1014,C4,328.0,1917/1000,82,119.69
1015,F#4,328.0,1917/1000,36,119.69
1016,B3,328.0,1917/1000,36,119.69
1017,A4,328.0,1917/1000,36,119.69
1018,C4,330.0,917/1000,60,119.69
1019,F#3,330.0,917/1000,60,119.69
1020,E4,330.0,917/1000,60,119.69
1021,F#4,330.0,917/1000,60,119.69
1022,B3,330.0,917/1000,17,119.69
1023,F#4,330.0,917/1000,17,119.69
1024,A4,330.0,917/1000,17,119.69
1025,C#5,332.0,979/1000,49,119.69
1026,E5,332.0,979/1000,49,119.69
1027,F#5,332.0,979/1000,49,119.69
1028,B3,332.0,1917/1000,27,119.69
1029,E3,332.0,1917/1000,27,119.69
1030,G#5,333.0,979/1000,44,119.69
1031,B4,333.0,979/1000,44,119.69
1032,E5,333.0,979/1000,44,119.69
1033,A5,334.0,979/1000,47,119.69
1034,E5,334.0,979/1000,47,119.69
1035,A4,334.0,979/1000,47,119.69
1036,B3,334.0,917/1000,20,119.69
1037,E3,334.0,917/1000,20,119.69
1038,B4,335.0,979/1000,42,119.69
1039,E5,335.0,979/1000,42,119.69
1040,G#5,335.0,979/1000,42,119.69
1041,B5,336.0,1917/1000,47,119.69
1042,E5,336.0,1917/1000,47,119.69
1043,B4,336.0,1917/1000,47,119.69
1044,A2,336.0,1917/1000,67,119.69
1045,A1,336.0,1917/1000,67,119.69
1046,E-5,338.0,917/1000,29,119.69
1047,B5,338.0,917/1000,29,119.69
1048,B4,338.0,917/1000,29,119.69
1049,A1,338.0,917/1000,49,119.69
1050,A2,338.0,917/1000,49,119.69
1051,E4,340.0,1917/1000,103,119.69
1052,E3,340.0,1917/1000,103,119.69
1053,F#4,340.0,979/1000,39,119.69
1054,E4,340.0,979/1000,39,119.69
1055,A3,340.0,979/1000,39,119.69
1056,E4,341.0,979/1000,36,119.69
1057,G#4,341.0,979/1000,36,119.69
1058,B3,341.0,979/1000,36,119.69
1059,E3,342.0,917/1000,56,119.69
1060,E4,342.0,917/1000,56,119.69
1061,E4,342.0,979/1000,39,119.69
1062,C#4,342.0,979/1000,39,119.69
1063,B3,343.0,979/1000,36,119.69
1064,G#4,343.0,979/1000,36,119.69
1065,E4,343.0,979/1000,36,119.69
1066,G#3,344.0,979/1000,36,119.69
1067,B3,344.0,979/1000,36,119.69
1068,F#4,344.0,1917/1000,36,119.69
1069,A4,344.0,1917/1000,36,119.69
1070,B3,344.0,1917/1000,36,119.69
1071,G#4,345.0,979/1000,30,119.69
1072,G#3,345.0,979/1000,30,119.69
1073,G#3,346.0,979/1000,37,119.69
1074,F#4,346.0,979/1000,37,119.69
1075,B3,346.0,917/1000,17,119.69
1076,A4,346.0,917/1000,17,119.69
1077,F#4,346.0,917/1000,17,119.69
1078,G#3,347.0,979/1000,30,119.69
1079,G#4,347.0,979/1000,30,119.69
1080,E2,348.0,1917/1000,84,119.69
1081,G#4,348.0,1917/1000,34,119.69
1082,B4,348.0,1917/1000,34,119.69
1083,C4,348.0,1917/1000,34,119.69
1084,E2,350.0,917/1000,52,119.69
1085,F#4,350.0,0.5,23,119.69
1086,C4,350.0,0.5,23,119.69
1087,A4,350.0,0.5,23,119.69
1088,G#4,352.0,1917/1000,36,119.69
1089,B4,352.0,1917/1000,36,119.69
1090,B3,352.0,1917/1000,36,119.69
1091,E2,352.0,979/1000,22,119.69
1092,B2,352.0,979/1000,22,119.69
1093,B2,353.0,979/1000,17,119.69
1094,E2,353.0,979/1000,17,119.69
1095,B3,354.0,0.5,22,119.69
1096,F#4,354.0,0.5,22,119.69
1097,A4,354.0,0.5,22,119.69
1098,E2,354.0,979/1000,20,119.69
1099,B2,354.0,979/1000,20,119.69
1100,E2,355.0,979/1000,16,119.69
1101,B2,355.0,979/1000,16,119.69
1102,E5,356.0,1917/1000,103,119.69
1103,E4,356.0,1917/1000,103,119.69
1104,E2,356.0,1917/1000,16,119.69
1105,C3,356.0,1917/1000,16,119.69
1106,E5,358.0,917/1000,64,119.69
1107,E4,358.0,917/1000,64,119.69
1108,C3,358.0,0.5,8,119.69
1109,E2,358.0,0.5,8,119.69
1110,B3,360.0,979/1000,38,119.69
1111,G#3,360.0,979/1000,38,119.69
1112,E2,360.0,1917/1000,23,119.69
1113,E-3,360.0,1917/1000,23,119.69
1114,G#3,361.0,979/1000,31,119.69
1115,G#4,361.0,979/1000,31,119.69
1116,G#3,362.0,979/1000,38,119.69
1117,F#4,362.0,979/1000,38,119.69
1118,E-3,362.0,0.5,9,119.69
1119,E2,362.0,0.5,9,119.69
1120,G#3,363.0,979/1000,31,119.69
1121,G#4,363.0,979/1000,31,119.69
1122,A4,364.0,1917/1000,42,119.69
1123,C#4,364.0,1917/1000,42,119.69
1124,C#5,364.0,1917/1000,42,119.69
1125,E2,364.0,1917/1000,82,119.69
1126,E3,364.0,1917/1000,82,119.69
1127,C#4,366.0,0.5,25,119.69
1128,F#4,366.0,0.5,25,119.69
1129,A4,366.0,0.5,25,119.69
1130,E2,366.0,917/1000,44,119.69
1131,E3,366.0,917/1000,44,119.69
1132,G#4,368.0,1917/1000,39,119.69
1133,B4,368.0,1917/1000,39,119.69
1134,B3,368.0,1917/1000,39,119.69
1135,E2,368.0,979/1000,25,119.69
1136,B2,368.0,979/1000,25,119.69
1137,E2,369.0,979/1000,18,119.69
1138,B2,369.0,979/1000,18,119.69
1139,F#4,370.0,0.5,28,119.69
1140,B3,370.0,0.5,28,119.69
1141,A4,370.0,0.5,28,119.69
1142,B2,370.0,979/1000,25,119.69
1143,E2,370.0,979/1000,25,119.69
1144,B2,371.0,979/1000,17,119.69
1145,E2,371.0,979/1000,17,119.69
1146,E4,372.0,1917/1000,37,119.69
1147,A4,372.0,1917/1000,37,119.69
1148,B3,372.0,1917/1000,37,119.69
1149,A2,372.0,1917/1000,24,119.69
1150,E2,372.0,1917/1000,24,119.69
1151,G4,374.0,0.5,27,119.69
1152,B3,374.0,0.5,27,119.69
1153,E4,374.0,0.5,27,119.69
1154,E2,374.0,0.5,16,119.69
1155,C#3,374.0,0.5,16,119.69
1156,A3,376.0,1917/1000,38,119.69
1157,G4,376.0,1917/1000,38,119.69
1158,C4,376.0,1917/1000,38,119.69
1159,E2,376.0,1917/1000,25,119.69
1160,B2,376.0,1917/1000,25,119.69
1161,C4,378.0,0.5,27,119.69
1162,A3,378.0,0.5,27,119.69
1163,F4,378.0,0.5,27,119.69
1164,E2,378.0,0.5,19,119.69
1165,E-3,378.0,0.5,19,119.69
1166,G3,380.0,1917/1000,38,119.69
1167,F4,380.0,1917/1000,38,119.69
1168,C4,380.0,1917/1000,38,119.69
1169,E3,380.0,1917/1000,25,119.69
1170,E2,380.0,1917/1000,25,119.69
1171,E4,382.0,0.5,27,119.69
1172,C4,382.0,0.5,27,119.69
1173,G3,382.0,0.5,27,119.69
1174,E2,382.0,0.5,10,119.69
1175,E3,382.0,0.5,10,119.69
1176,E4,384.0,1917/1000,38,119.69
1177,A3,384.0,1917/1000,38,119.69
1178,F3,384.0,1917/1000,38,119.69
1179,A2,384.0,1917/1000,25,119.69
1180,C3,384.0,1917/1000,25,119.69
1181,D4,386.0,0.5,26,119.69
1182,A3,386.0,0.5,26,119.69
1183,F3,386.0,0.5,26,119.69
1184,A2,386.0,0.5,14,119.69
1185,C3,386.0,0.5,14,119.69
1186,C3,388.0,1917/1000,25,119.69
1187,E3,388.0,1917/1000,37,119.69
1188,D4,388.0,1917/1000,37,119.69
1189,A3,388.0,1917/1000,37,119.69
1190,C3,390.0,0.5,16,119.69
1191,C4,390.0,0.5,26,119.69
1192,A3,390.0,0.5,26,119.69
1193,D2,392.0,1917/1000,25,119.69
1194,D3,392.0,1917/1000,25,119.69
1195,D3,394.0,0.5,15,119.69
1196,D2,394.0,0.5,15,119.69
1197,E2,396.0,1917/1000,24,119.69
1198,A2,396.0,2.0,24,119.69
1199,E3,398.0,2.0,39,119.69
1200,E2,398.0,0.5,14,119.69
1201,E-3,400.0,2.0,37,119.69
1202,B3,400.0,1917/1000,35,119.69
1203,A3,400.0,1917/1000,35,119.69
1204,E3,402.0,0.5,35,119.69
1205,B3,402.0,917/1000,29,119.69
1206,G#3,402.0,917/1000,29,119.69
1207,E2,408.0,1917/1000,19,119.69
1208,B2,408.0,2.0,33,119.69
1209,E3,410.0,2.0,39,119.69
1210,E2,410.0,917/1000,12,119.69
1211,A4,412.0,2.0,50,119.69
1212,E-3,412.0,2.0,37,119.69
1213,E5,414.0,2.0,50,119.69
1214,E3,414.0,0.5,35,119.69
1215,E-5,416.0,2.0,53,119.69
1216,E5,418.0,417/1000,47,119.69
1217,C5,419.0,99/125,49,119.69
1218,B4,419.75,0.25,47,119.69
1219,A4,420.0,2.0,48,119.69
1220,B4,420.0,21/500,47,119.69
1221,A3,420.0,2.0,42,119.69
1222,E4,422.0,2.0,42,119.69
1223,G#3,422.0,2.0,59,119.69
1224,B3,422.0,2.0,59,119.69
1225,E4,422.0,2.0,59,119.69
1226,C4,424.0,2.0,52,119.69
1227,E-4,424.0,2.0,44,119.69
1228,A3,426.0,0.375,51,119.69
1229,E4,426.0,417/1000,38,119.69
1230,C4,427.0,99/125,39,119.69
1231,B3,427.75,0.25,39,119.69
1232,A3,428.0,2.0,50,119.69
1233,A3,428.0,2.0,38,119.69
1234,B3,428.0,21/500,39,119.69
1235,E3,430.0,2.0,52,119.69
1236,A3,430.0,2.0,63,119.69
1237,F4,430.0,2.0,63,119.69
1238,C3,432.0,2.0,47,119.69
1239,B-3,432.0,2.0,70,119.69
1240,G4,432.0,2.0,70,119.69
1241,A2,434.0,0.375,39,119.69
1242,A3,434.0,417/1000,54,119.69
1243,F4,434.0,417/1000,54,119.69
1244,A3,435.0,99/125,51,119.69
1245,B3,435.75,0.25,54,119.69
1246,C4,436.0,2.0,52,119.69
1247,B3,436.0,21/500,54,119.69
1248,A2,436.0,2.0,42,119.69
1249,D2,438.0,2.0,45,119.69
1250,E3,438.0,2.0,62,119.69
1251,G#3,438.0,2.0,62,119.69
1252,B3,438.0,2.0,62,119.69
1253,E4,438.0,2.0,62,119.69
1254,C#2,440.0,2.0,50,119.69
1255,C3,440.0,2.0,50,119.69
1256,C4,440.0,2.0,50,119.69
1257,D2,442.0,417/1000,42,119.69
1258,A2,442.0,417/1000,50,119.69
1259,A3,442.0,417/1000,50,119.69
1260,A2,443.0,99/125,44,119.69
1261,B2,443.75,0.25,45,119.69
1262,C3,444.0,2.0,45,119.69
1263,B2,444.0,21/500,45,119.69
1264,E2,446.0,2.0,52,119.69
1265,C2,448.0,2.0,45,119.69
1266,A1,450.0,417/1000,41,119.69
1267,A3,451.0,1.0,52,119.69
1268,A3,452.0,1.0,52,119.69
1269,D2,452.0,2.0,35,119.69
1270,F2,452.0,2.0,35,119.69
1271,A2,452.0,2.0,35,119.69
1272,D4,453.0,1.0,46,119.69
1273,E4,454.0,1.0,49,119.69
1274,A1,454.0,0.25,33,119.69
1275,F4,455.0,1.0,47,119.69
1276,E4,456.0,2.0,50,119.69
1277,C2,456.0,2.0,36,119.69
1278,E2,456.0,2.0,36,119.69
1279,A2,456.0,2.0,36,119.69
1280,A3,458.0,417/1000,46,119.69
1281,A1,458.0,0.25,35,119.69
1282,G4,459.0,1.0,47,119.69
1283,F4,460.0,2.0,47,119.69
1284,D2,460.0,2.0,36,119.69
1285,F2,460.0,2.0,36,119.69
1286,A2,460.0,2.0,36,119.69
1287,A3,462.0,417/1000,48,119.69
1288,A1,462.0,0.25,34,119.69
1289,F4,463.0,1.0,45,119.69
1290,E4,464.0,2.0,50,119.69
1291,C2,464.0,2.0,36,119.69
1292,E2,464.0,2.0,36,119.69
1293,A2,464.0,2.0,36,119.69
1294,A3,466.0,417/1000,48,119.69
1295,A1,466.0,417/1000,34,119.69
1296,A3,467.0,497/500,56,119.69
1297,A4,467.0,1.0,56,119.69
1298,A4,468.0,1.0,56,119.69
1299,D2,468.0,2.0,37,119.69
1300,F2,468.0,2.0,37,119.69
1301,A2,468.0,2.0,37,119.69
1302,D4,469.0,1.0,57,119.69
1303,D5,469.0,1.0,57,119.69
1304,A1,470.0,417/1000,35,119.69
1305,E4,470.0,1.0,60,119.69
1306,E5,470.0,1.0,60,119.69
1307,F4,471.0,1.0,56,119.69
1308,F5,471.0,1.0,56,119.69
1309,E4,472.0,2.0,60,119.69
1310,E5,472.0,2.0,60,119.69
1311,C2,472.0,2.0,36,119.69
1312,E2,472.0,2.0,36,119.69
1313,A2,472.0,2.0,36,119.69
1314,A1,474.0,417/1000,33,119.69
1315,A3,474.0,417/1000,56,119.69
1316,A4,474.0,417/1000,56,119.69
1317,E4,475.0,1.0,68,119.69
1318,E5,475.0,1.0,68,119.69
1319,E4,476.0,1.0,68,119.69
1320,E5,476.0,1.0,68,119.69
1321,D3,476.0,2.0,51,119.69
1322,F3,476.0,2.0,51,119.69
1323,A3,476.0,2.0,51,119.69
1324,G4,477.0,1.0,74,119.69
1325,G5,477.0,1.0,74,119.69
1326,A2,478.0,0.25,35,119.69
1327,A4,478.0,1.0,77,119.69
1328,A5,478.0,1.0,77,119.69
1329,B4,479.0,1.0,73,119.69
1330,B5,479.0,1.0,73,119.69
1331,B4,480.0,1833/1000,85,119.69
1332,B5,480.0,1833/1000,85,119.69
1333,C3,480.0,997/500,41,119.69
1334,E3,480.0,997/500,41,119.69
1335,A3,480.0,997/500,41,119.69
1336,A2,482.0,417/1000,36,119.69
1337,B4,482.0,1833/1000,71,119.69
1338,B5,482.0,1833/1000,71,119.69
1339,G4,484.0,2.0,57,119.69
1340,G5,484.0,2.0,57,119.69
1341,B2,484.0,2.0,57,119.69
1342,E3,484.0,2.0,57,119.69
1343,G3,484.0,2.0,57,119.69
1344,G2,486.0,0.375,54,119.69
1345,E4,486.0,417/1000,53,119.69
1346,E5,486.0,417/1000,53,119.69
1347,B3,488.0,1833/1000,41,119.69
1348,B4,488.0,1833/1000,41,119.69
1349,F#2,488.0,1833/1000,61,119.69
1350,E-3,488.0,1833/1000,61,119.69
1351,F#3,488.0,1833/1000,61,119.69
1352,B3,490.0,1833/1000,37,119.69
1353,B4,490.0,1833/1000,37,119.69
1354,B2,490.0,1833/1000,51,119.69
1355,E-3,490.0,1833/1000,51,119.69
1356,B3,490.0,1833/1000,51,119.69
1357,G3,492.0,2.0,37,119.69
1358,G4,492.0,2.0,37,119.69
1359,G2,492.0,2.0,49,119.69
1360,G3,492.0,2.0,49,119.69
1361,E3,494.0,417/1000,33,119.69
1362,E4,494.0,417/1000,33,119.69
1363,E2,494.0,417/1000,42,119.69
1364,E3,494.0,417/1000,42,119.69
1365,G3,496.0,2.0,37,119.69
1366,G4,496.0,2.0,37,119.69
1367,F#1,496.0,1833/1000,26,119.69
1368,E-2,496.0,1833/1000,26,119.69
1369,F#2,496.0,1833/1000,26,119.69
1370,E3,498.0,0.25,33,119.69
1371,E4,498.0,0.25,33,119.69
1372,B1,498.0,1833/1000,24,119.69
1373,E-2,498.0,1833/1000,24,119.69
1374,B2,498.0,1833/1000,24,119.69
1375,F4,500.0,2.0,48,119.69
1376,F3,500.0,2.0,48,119.69
1377,G1,500.0,2.0,30,119.69
1378,G2,500.0,2.0,30,119.69
1379,D3,502.0,0.25,43,119.69
1380,D4,502.0,0.25,43,119.69
1381,E1,502.0,417/1000,27,119.69
1382,E2,502.0,417/1000,27,119.69
1383,E2,504.0,573/250,30,119.69
1384,E4,504.0,2.0,58,119.69
1385,E3,504.0,2.0,58,119.69
1386,C3,506.0,0.25,50,119.69
1387,C4,506.0,0.25,50,119.69
1388,F2,506.25,73/250,30,119.69
1389,E2,506.5,73/250,26,119.69
1390,F2,506.75,73/250,30,119.69
1391,E2,507.0,73/250,24,119.69
1392,F2,507.25,73/250,30,119.69
1393,E2,507.5,73/250,25,119.69
1394,F2,507.75,0.25,30,119.69
1395,E2,508.0,73/250,31,119.69
1396,F2,508.0,21/500,30,119.69
1397,D3,508.0,2.0,73,119.69
1398,D4,508.0,2.0,73,119.69
1399,F2,508.25,73/250,28,119.69
1400,E2,508.5,73/250,31,119.69
1401,F2,508.75,73/250,31,119.69
1402,E2,509.0,73/250,34,119.69
1403,F2,509.25,73/250,30,119.69
1404,E2,509.5,73/250,34,119.69
1405,F2,509.75,73/250,29,119.69
1406,E2,510.0,73/250,34,119.69
1407,B2,510.0,0.25,67,119.69
1408,B3,510.0,0.25,67,119.69
1409,F2,510.25,73/250,28,119.69
1410,E2,510.5,73/250,34,119.69
1411,F2,510.75,73/250,29,119.69
1412,E2,511.0,73/250,34,119.69
1413,F2,511.25,73/250,29,119.69
1414,E2,511.5,73/250,34,119.69
1415,F2,511.75,0.25,30,119.69
1416,E2,512.0,73/250,39,119.69
1417,F2,512.0,21/500,30,119.69
1418,A3,512.0,2.0,98,119.69
1419,A4,512.0,2.0,98,119.69
1420,F2,512.25,73/250,33,119.69
1421,E2,512.5,73/250,39,119.69
1422,F2,512.75,73/250,33,119.69
1423,E2,513.0,73/250,39,119.69
1424,F2,513.25,73/250,33,119.69
1425,E2,513.5,73/250,40,119.69
1426,F2,513.75,73/250,35,119.69
1427,E2,514.0,73/250,40,119.69
1428,E4,514.0,2.0,88,119.69
1429,E5,514.0,2.0,88,119.69
1430,F2,514.25,73/250,35,119.69
1431,E2,514.5,73/250,41,119.69
1432,F2,514.75,73/250,34,119.69
1433,E2,515.0,73/250,41,119.69
1434,F2,515.25,73/250,36,119.69
1435,E2,515.5,73/250,42,119.69
1436,F2,515.75,0.25,37,119.69
1437,E2,516.0,73/250,47,119.69
1438,F2,516.0,21/500,37,119.69
1439,E-4,516.0,2.0,84,119.69
1440,E-5,516.0,2.0,84,119.69
1441,F2,516.25,73/250,39,119.69
1442,E2,516.5,73/250,47,119.69
1443,F2,516.75,73/250,39,119.69
1444,E2,517.0,73/250,48,119.69
1445,F2,517.25,73/250,40,119.69
1446,E2,517.5,73/250,48,119.69
1447,F2,517.75,73/250,42,119.69
1448,E2,518.0,73/250,49,119.69
1449,E5,518.0,0.5,77,119.69
1450,E4,518.0,0.5,77,119.69
1451,F2,518.25,73/250,43,119.69
1452,E2,518.5,73/250,54,119.69
1453,F2,518.75,73/250,48,119.69
1454,E2,519.0,73/250,62,119.69
1455,E4,519.0,0.5,74,119.69
1456,C5,519.0,0.5,74,119.69
1457,F2,519.25,73/250,63,119.69
1458,E2,519.5,73/250,71,119.69
1459,G#2,519.75,0.25,79,119.69
1460,E4,519.75,0.188,68,119.69
1461,B4,519.75,0.188,68,119.69
1462,G#2,520.0,21/500,79,119.69
1463,E4,520.0,0.5,74,119.69
1464,A4,520.0,0.5,74,119.69
1465,A1,520.0,2.0,78,119.69
1466,A2,520.0,2.0,78,119.69
1467,D4,520.75,0.188,68,119.69
1468,G4,520.75,0.188,68,119.69
1469,C4,521.0,0.5,68,119.69
1470,F4,521.0,0.5,68,119.69
1471,B3,521.75,0.188,64,119.69
1472,E4,521.75,0.188,64,119.69
1473,C4,522.0,0.5,70,119.69
1474,F4,522.0,0.5,70,119.69
1475,E2,522.0,2.0,75,119.69
1476,E3,522.0,2.0,75,119.69
1477,B3,522.75,0.188,64,119.69
1478,E4,522.75,0.188,64,119.69
1479,A3,523.0,0.5,70,119.69
1480,D4,523.0,0.5,70,119.69
1481,G3,523.75,0.188,64,119.69
1482,C#4,523.75,0.188,64,119.69
1483,A3,524.0,0.5,78,119.69
1484,D4,524.0,0.5,78,119.69
1485,E-2,524.0,2.0,72,119.69
1486,E-3,524.0,2.0,72,119.69
1487,B3,524.75,0.188,68,119.69
1488,E4,524.75,0.188,68,119.69
1489,C4,525.0,0.5,78,119.69
1490,F4,525.0,0.5,78,119.69
1491,D4,525.75,0.188,68,119.69
1492,G#4,525.75,0.188,68,119.69
1493,E4,526.0,0.5,77,119.69
1494,A4,526.0,0.5,77,119.69
1495,E2,526.0,0.5,67,119.69
1496,E3,526.0,0.5,67,119.69
1497,E4,526.75,0.188,74,119.69
1498,B4,526.75,0.188,74,119.69
1499,E4,527.0,0.25,78,119.69
1500,A4,527.0,0.25,78,119.69
1501,E3,527.0,0.5,48,119.69
1502,E4,527.0,0.5,48,119.69
1503,D3,527.75,0.188,46,119.69
1504,D4,527.75,0.188,46,119.69
1505,A3,528.0,2.0,97,119.69
1506,C3,528.0,0.5,48,119.69
1507,C4,528.0,0.5,48,119.69
1508,B2,528.75,0.188,46,119.69
1509,B3,528.75,0.188,46,119.69
1510,A2,529.0,0.5,43,119.69
1511,A3,529.0,0.5,43,119.69
1512,G#2,529.75,0.188,42,119.69
1513,G#3,529.75,0.188,42,119.69
1514,A3,530.0,2.0,85,119.69
1515,F4,530.0,2.0,85,119.69
1516,A4,530.0,2.0,85,119.69
1517,A2,530.0,0.5,46,119.69
1518,A3,530.0,0.5,46,119.69
1519,G2,530.75,0.188,40,119.69
1520,G3,530.75,0.188,40,119.69
1521,F2,531.0,0.5,46,119.69
1522,F3,531.0,0.5,46,119.69
1523,E2,531.75,0.188,42,119.69
1524,E3,531.75,0.188,42,119.69
1525,G4,532.0,2.0,90,119.69
1526,B-3,532.0,2.0,90,119.69
1527,B-4,532.0,2.0,90,119.69
1528,F2,532.0,0.5,48,119.69
1529,F3,532.0,0.5,48,119.69
1530,G#2,532.75,0.188,46,119.69
1531,G#3,532.75,0.188,46,119.69
1532,A2,533.0,0.5,48,119.69
1533,A3,533.0,0.5,48,119.69
1534,B2,533.75,0.188,46,119.69
1535,B3,533.75,0.188,46,119.69
1536,A3,534.0,0.5,80,119.69
1537,A4,534.0,0.5,80,119.69
1538,F4,534.0,0.5,80,119.69
1539,C3,534.0,0.5,52,119.69
1540,C4,534.0,0.5,52,119.69
1541,D3,534.75,0.188,48,119.69
1542,D4,534.75,0.188,48,119.69
1543,A4,535.0,0.5,81,119.69
1544,F5,535.0,0.5,81,119.69
1545,C3,535.0,0.25,53,119.69
1546,C4,535.0,0.25,53,119.69
1547,A4,535.75,0.188,77,119.69
1548,E5,535.75,0.188,77,119.69
1549,A2,536.0,2.0,90,119.69
1550,A4,536.0,0.5,74,119.69
1551,D5,536.0,0.5,74,119.69
1552,G4,536.75,0.188,68,119.69
1553,C5,536.75,0.188,68,119.69
1554,F4,537.0,0.5,68,119.69
1555,B-4,537.0,0.5,68,119.69
1556,E4,537.75,0.188,64,119.69
1557,A4,537.75,0.188,64,119.69
1558,F4,538.0,0.5,73,119.69
1559,B-4,538.0,0.5,73,119.69
1560,D2,538.0,2.0,86,119.69
1561,A2,538.0,2.0,86,119.69
1562,E4,538.75,0.188,64,119.69
1563,A4,538.75,0.188,64,119.69
1564,D4,539.0,0.5,72,119.69
1565,G4,539.0,0.5,72,119.69
1566,C4,539.75,0.188,64,119.69
1567,F#4,539.75,0.188,64,119.69
1568,C#2,540.0,2.0,71,119.69
1569,A2,540.0,2.5,71,119.69
1570,D4,540.0,0.5,76,119.69
1571,G4,540.0,0.5,76,119.69
1572,E4,540.75,0.188,68,119.69
1573,A4,540.75,0.188,68,119.69
1574,F4,541.0,0.5,77,119.69
1575,B-4,541.0,0.5,77,119.69
1576,G4,541.75,0.188,68,119.69
1577,C#5,541.75,0.188,68,119.69
1578,D2,542.0,0.5,71,119.69
1579,A4,542.0,0.5,79,119.69
1580,D5,542.0,0.5,79,119.69
1581,A4,542.75,0.188,74,119.69
1582,E5,542.75,0.188,74,119.69
1583,A4,543.0,0.25,78,119.69
1584,D5,543.0,0.25,78,119.69
1585,A3,543.0,0.5,53,119.69
1586,A4,543.0,0.5,53,119.69
1587,G3,543.75,0.188,52,119.69
1588,G4,543.75,0.188,52,119.69
1589,F3,544.0,0.5,48,119.69
1590,F4,544.0,0.5,48,119.69
1591,E3,544.75,0.188,46,119.69
1592,E4,544.75,0.188,46,119.69
1593,D3,545.0,0.5,43,119.69
1594,D4,545.0,0.5,43,119.69
1595,C#3,545.75,0.188,42,119.69
1596,C#4,545.75,0.188,42,119.69
1597,D3,546.0,0.5,46,119.69
1598,D4,546.0,0.5,46,119.69
1599,C3,546.75,0.188,40,119.69
1600,C4,546.75,0.188,40,119.69
1601,B-2,547.0,0.5,46,119.69
1602,B-3,547.0,0.5,46,119.69
1603,A2,547.75,0.188,42,119.69
1604,A3,547.75,0.188,42,119.69
1605,B-2,548.0,0.5,48,119.69
1606,B-3,548.0,0.5,48,119.69
1607,C#3,548.75,0.188,46,119.69
1608,C#4,548.75,0.188,46,119.69
1609,D3,549.0,0.5,48,119.69
1610,D4,549.0,0.5,48,119.69
1611,E3,549.75,0.188,46,119.69
1612,E4,549.75,0.188,46,119.69
1613,F3,550.0,0.5,52,119.69
1614,F4,550.0,0.5,52,119.69
1615,G3,550.75,0.188,48,119.69
1616,G4,550.75,0.188,48,119.69
1617,D4,551.0,1.0,88,119.69
1618,D5,551.0,1.0,88,119.69
1619,F3,551.0,0.25,53,119.69
1620,F4,551.0,0.25,53,119.69
1621,D4,552.0,1.0,88,119.69
1622,D5,552.0,1.0,88,119.69
1623,D3,552.0,2.0,93,119.69
1624,G3,552.0,2.0,93,119.69
1625,B-3,552.0,2.0,93,119.69
1626,D4,552.0,2.0,93,119.69
1627,G4,553.0,1.0,84,119.69
1628,G5,553.0,1.0,84,119.69
1629,A4,554.0,1.0,89,119.69
1630,A5,554.0,1.0,89,119.69
1631,D2,554.0,0.375,76,119.69
1632,D3,554.0,0.375,76,119.69
1633,B-4,555.0,1.0,86,119.69
1634,B-5,555.0,1.0,86,119.69
1635,A4,556.0,2.0,88,119.69
1636,A5,556.0,2.0,88,119.69
1637,D3,556.0,997/500,92,119.69
1638,F3,556.0,997/500,92,119.69
1639,A3,556.0,997/500,92,119.69
1640,D4,556.0,997/500,92,119.69
1641,D4,558.0,417/1000,80,119.69
1642,D5,558.0,417/1000,80,119.69
1643,D2,558.0,0.375,76,119.69
1644,D3,558.0,0.375,76,119.69
1645,C5,559.0,1.0,92,119.69
1646,C6,559.0,1.0,92,119.69
1647,B-4,560.0,2.0,92,119.69
1648,B-5,560.0,2.0,92,119.69
1649,D3,560.0,2.0,80,119.69
1650,G3,560.0,2.0,80,119.69
1651,B-3,560.0,2.0,80,119.69
1652,D4,560.0,2.0,80,119.69
1653,D4,562.0,417/1000,87,119.69
1654,D5,562.0,417/1000,87,119.69
1655,D2,562.0,0.375,66,119.69
1656,D3,562.0,0.375,66,119.69
1657,B-4,563.0,1.0,92,119.69
1658,B-5,563.0,1.0,92,119.69
1659,A4,564.0,2.0,87,119.69
1660,A5,564.0,2.0,87,119.69
1661,D3,564.0,997/500,78,119.69
1662,F3,564.0,997/500,78,119.69
1663,A3,564.0,997/500,78,119.69
1664,D4,564.0,997/500,78,119.69
1665,D4,566.0,417/1000,80,119.69
1666,D5,566.0,417/1000,80,119.69
1667,D2,566.0,417/1000,70,119.69
1668,D3,566.0,417/1000,70,119.69
1669,D4,567.0,1.0,92,119.69
1670,D5,567.0,1.0,92,119.69
1671,D4,568.0,1.0,92,119.69
1672,D5,568.0,1.0,92,119.69
1673,D3,568.0,997/500,78,119.69
1674,G3,568.0,997/500,78,119.69
1675,B-3,568.0,997/500,78,119.69
1676,D4,568.0,997/500,78,119.69
1677,G4,569.0,1.0,87,119.69
1678,G5,569.0,1.0,87,119.69
1679,A4,570.0,1.0,92,119.69
1680,A5,570.0,1.0,92,119.69
1681,D2,570.0,417/1000,70,119.69
1682,D3,570.0,417/1000,70,119.69
1683,B-4,571.0,1.0,87,119.69
1684,B-5,571.0,1.0,87,119.69
1685,A4,572.0,2.0,94,119.69
1686,A5,572.0,2.0,94,119.69
1687,D3,572.0,997/500,78,119.69
1688,F3,572.0,997/500,78,119.69
1689,A3,572.0,997/500,78,119.69
1690,D4,572.0,997/500,78,119.69
1691,D4,574.0,417/1000,80,119.69
1692,D5,574.0,417/1000,80,119.69
1693,D2,574.0,417/1000,69,119.69
1694,D3,574.0,417/1000,69,119.69
1695,A4,575.0,1.0,90,119.69
1696,A5,575.0,1.0,90,119.69
1697,A4,576.0,1.0,90,119.69
1698,A5,576.0,1.0,90,119.69
1699,D3,576.0,2.0,80,119.69
1700,G3,576.0,2.0,80,119.69
1701,B-3,576.0,2.0,80,119.69
1702,D4,576.0,2.0,80,119.69
1703,C6,577.0,1.0,87,119.69
1704,C5,577.0,1.0,87,119.69
1705,D5,578.0,1.0,96,119.69
1706,D6,578.0,1.0,96,119.69
1707,D2,578.0,0.375,70,119.69
1708,D3,578.0,0.375,70,119.69
1709,E5,579.0,1.0,100,119.69
1710,E6,579.0,1.0,100,119.69
1711,E6,580.0,1917/1000,102,119.69
1712,E5,580.0,1917/1000,102,119.69
1713,D3,580.0,997/500,80,119.69
1714,F3,580.0,997/500,80,119.69
1715,A3,580.0,997/500,80,119.69
1716,D4,580.0,997/500,80,119.69
1717,E5,582.0,1917/1000,89,119.69
1718,E6,582.0,1917/1000,89,119.69
1719,D2,582.0,417/1000,70,119.69
1720,D3,582.0,417/1000,70,119.69
1721,C6,584.0,2.0,84,119.69
1722,C5,584.0,2.0,84,119.69
1723,C3,584.0,2.0,76,119.69
1724,E3,584.0,2.0,76,119.69
1725,A3,584.0,2.0,76,119.69
1726,C4,584.0,2.0,76,119.69
1727,A5,586.0,417/1000,76,119.69
1728,A4,586.0,417/1000,76,119.69
1729,C2,586.0,0.375,67,119.69
1730,C3,586.0,0.375,67,119.69
1731,E4,588.0,1917/1000,48,119.69
1732,E5,588.0,1917/1000,48,119.69
1733,B2,588.0,1917/1000,82,119.69
1734,G#3,588.0,1917/1000,82,119.69
1735,B3,588.0,1917/1000,82,119.69
1736,E4,590.0,1917/1000,48,119.69
1737,E5,590.0,1917/1000,48,119.69
1738,E4,590.0,1917/1000,82,119.69
1739,G#3,590.0,1917/1000,82,119.69
1740,E3,590.0,1917/1000,82,119.69
1741,C4,592.0,2.0,45,119.69
1742,C5,592.0,2.0,45,119.69
1743,C3,592.0,2.0,78,119.69
1744,C4,592.0,2.0,78,119.69
1745,A3,594.0,0.375,41,119.69
1746,A4,594.0,0.375,41,119.69
1747,A2,594.0,417/1000,69,119.69
1748,A3,594.0,417/1000,69,119.69
1749,B-3,596.0,2.0,34,119.69
1750,B-4,596.0,2.0,34,119.69
1751,B1,596.0,1917/1000,40,119.69
1752,G#2,596.0,1917/1000,40,119.69
1753,B2,596.0,1917/1000,40,119.69
1754,G3,598.0,0.375,25,119.69
1755,G4,598.0,0.375,25,119.69
1756,E2,598.0,1917/1000,37,119.69
1757,G#2,598.0,1917/1000,37,119.69
1758,E3,598.0,1917/1000,37,119.69
1759,B-3,600.0,2.0,31,119.69
1760,B-4,600.0,2.0,31,119.69
1761,C2,600.0,2.0,37,119.69
1762,C3,600.0,2.0,37,119.69
1763,G3,602.0,0.375,25,119.69
1764,G4,602.0,0.375,25,119.69
1765,A1,602.0,0.375,37,119.69
1766,A2,602.0,0.375,37,119.69
1767,B-3,604.0,2.0,31,119.69
1768,B-4,604.0,2.0,31,119.69
1769,B-1,604.0,2.0,31,119.69
1770,B-2,604.0,2.0,31,119.69
1771,G3,606.0,0.375,24,119.69
1772,G4,606.0,0.375,24,119.69
1773,G1,606.0,0.375,24,119.69
1774,G2,606.0,0.375,24,119.69
1775,B-3,608.0,2.0,34,119.69
1776,B-4,608.0,2.0,34,119.69
1777,B-1,608.0,2.0,30,119.69
1778,B-2,608.0,2.0,30,119.69
1779,G3,610.0,0.375,29,119.69
1780,G4,610.0,0.375,29,119.69
1781,G1,610.0,0.375,22,119.69
1782,G2,610.0,0.375,22,119.69
1783,B3,612.0,0.25,80,119.69
1784,B-1,612.0,2.0,30,119.69
1785,B-2,612.0,2.0,30,119.69
1786,B4,612.25,0.25,76,119.69
1787,B3,612.5,0.25,72,119.69
1788,B4,612.75,0.25,67,119.69
1789,B3,613.0,0.25,63,119.69
1790,B4,613.25,0.25,60,119.69
1791,B3,613.5,0.25,57,119.69
1792,B4,613.75,0.25,54,119.69
1793,B3,614.0,0.25,60,119.69
1794,G1,614.0,0.375,23,119.69
1795,G2,614.0,0.375,23,119.69
1796,B4,614.25,0.25,57,119.69
1797,B3,614.5,0.25,55,119.69
1798,B4,614.75,0.25,52,119.69
1799,B3,615.0,0.25,58,119.69
1800,B4,615.25,0.25,56,119.69
1801,B3,615.5,0.25,54,119.69
1802,B4,615.75,0.25,51,119.69
1803,G#3,616.0,0.25,80,119.69
1804,B-1,616.0,2.0,31,119.69
1805,B-2,616.0,2.0,31,119.69
1806,G#4,616.25,0.25,75,119.69
1807,G#3,616.5,0.25,69,119.69
1808,G#4,616.75,0.25,65,119.69
1809,G#3,617.0,0.25,61,119.69
1810,G#4,617.25,0.25,60,119.69
1811,G#3,617.5,0.25,59,119.69
1812,G#4,617.75,0.25,58,119.69
1813,G#3,618.0,0.25,69,119.69
1814,G1,618.0,0.375,26,119.69
1815,G2,618.0,0.375,26,119.69
1816,G#4,618.25,0.25,68,119.69
1817,G#3,618.5,0.25,66,119.69
1818,G#4,618.75,0.25,63,119.69
1819,G#3,619.0,0.25,73,119.69
1820,G#4,619.25,0.25,70,119.69
1821,G#3,619.5,0.25,67,119.69
1822,G#4,619.75,0.25,64,119.69
1823,B1,620.0,0.25,72,119.69
1824,B4,620.0,1.0,99,119.69
1825,B5,620.0,1.0,99,119.69
1826,B2,620.25,0.25,31,119.69
1827,B1,620.5,0.25,42,119.69
1828,B2,620.75,0.25,30,119.69
1829,B1,621.0,0.25,46,119.69
1830,G#4,621.0,0.375,90,119.69
1831,G#5,621.0,0.375,90,119.69
1832,B2,621.25,0.25,33,119.69
1833,B1,621.5,0.25,44,119.69
1834,B2,621.75,0.25,31,119.69
1835,B1,622.0,0.25,45,119.69
1836,B5,622.0,1.0,96,119.69
1837,B4,622.0,1.0,96,119.69
1838,B2,622.25,0.25,33,119.69
1839,B1,622.5,0.25,44,119.69
1840,B2,622.75,0.25,31,119.69
1841,B1,623.0,0.25,51,119.69
1842,E6,623.0,0.375,90,119.69
1843,E5,623.0,0.375,90,119.69
1844,B2,623.25,0.25,37,119.69
1845,B1,623.5,0.25,47,119.69
1846,B2,623.75,0.25,33,119.69
1847,G#1,624.0,0.25,74,119.69
1848,B4,624.0,1.0,89,119.69
1849,B5,624.0,1.0,89,119.69
1850,G#2,624.25,0.25,37,119.69
1851,G#1,624.5,0.25,47,119.69
1852,G#2,624.75,0.25,37,119.69
1853,G#1,625.0,0.25,52,119.69
1854,G#5,625.0,0.375,82,119.69
1855,G#4,625.0,0.375,82,119.69
1856,G#2,625.25,0.25,39,119.69
1857,G#1,625.5,0.25,49,119.69
1858,G#2,625.75,0.25,38,119.69
1859,G#1,626.0,0.25,55,119.69
1860,E4,626.0,1.0,65,119.69
1861,E5,626.0,1.0,65,119.69
1862,G#2,626.25,0.25,39,119.69
1863,G#1,626.5,0.25,51,119.69
1864,G#2,626.75,0.25,39,119.69
1865,G#1,627.0,0.25,66,119.69
1866,B3,627.0,0.375,53,119.69
1867,B4,627.0,0.375,53,119.69
1868,G#2,627.25,0.25,52,119.69
1869,G#1,627.5,0.25,57,119.69
1870,G#2,627.75,0.25,46,119.69
1871,G#3,628.0,4.0,34,119.69
1872,E4,628.0,4.0,34,119.69
1873,G#4,628.0,4.0,34,119.69
1874,B2,628.0,1.0,79,119.69
1875,B3,628.0,1.0,79,119.69
1876,G#2,629.0,0.375,69,119.69
1877,G#3,629.0,0.375,69,119.69
1878,B2,630.0,1.0,79,119.69
1879,B3,630.0,1.0,79,119.69
1880,E4,631.0,0.375,69,119.69
1881,E3,631.0,0.375,69,119.69
1882,E-4,632.0,4.0,38,119.69
1883,A3,632.0,4.0,38,119.69
1884,B4,632.0,4.0,38,119.69
1885,B2,632.0,1.0,70,119.69
1886,B3,632.0,1.0,70,119.69
1887,G#2,633.0,0.375,63,119.69
1888,G#3,633.0,0.375,63,119.69
1889,E3,634.0,1.0,54,119.69
1890,E2,634.0,1.0,54,119.69
1891,B2,635.0,0.375,44,119.69
1892,B1,635.0,0.375,44,119.69
1893,B3,636.0,0.25,93,119.69
1894,B1,636.0,4.0,27,119.69
1895,B2,636.0,4.0,27,119.69
1896,B4,636.25,0.25,87,119.69
1897,B3,636.5,0.25,81,119.69
1898,B4,636.75,0.25,75,119.69
1899,G#3,637.0,0.25,91,119.69
1900,G#4,637.25,0.25,86,119.69
1901,G#3,637.5,0.25,81,119.69
1902,G#4,637.75,0.25,75,119.69
1903,B3,638.0,0.25,84,119.69
1904,B4,638.25,0.25,80,119.69
1905,B3,638.5,0.25,77,119.69
1906,B4,638.75,0.25,73,119.69
1907,E4,639.0,0.25,88,119.69
1908,E5,639.25,0.25,85,119.69
1909,E4,639.5,0.25,83,119.69
1910,E5,639.75,0.25,80,119.69
1911,G#4,640.0,0.25,91,119.69
1912,G#5,640.25,0.25,88,119.69
1913,G#4,640.5,0.25,86,119.69
1914,G#5,640.75,0.25,83,119.69
1915,B4,641.0,0.25,94,119.69
1916,B5,641.25,0.25,91,119.69
1917,B4,641.5,0.25,88,119.69
1918,B5,641.75,0.25,84,119.69
1919,E5,642.0,0.25,102,119.69
1920,E6,642.25,0.25,96,119.69
1921,E5,642.5,0.25,90,119.69
1922,E6,642.75,0.25,84,119.69
1923,B4,643.0,0.25,82,119.69
1924,B5,643.25,0.25,71,119.69
1925,B4,643.5,0.25,68,119.69
1926,B5,643.75,0.25,64,119.69
1927,E4,644.0,4.0,35,119.69
1928,G#3,644.0,4.0,35,119.69
1929,G#4,644.0,4.0,35,119.69
1930,B1,644.0,4.0,27,119.69
1931,B2,644.0,4.0,27,119.69
1932,B1,648.0,0.25,81,119.69
1933,E-4,648.0,4.0,38,119.69
1934,A3,648.0,4.0,38,119.69
1935,B4,648.0,4.0,38,119.69
1936,B2,648.25,0.25,38,119.69
1937,B1,648.5,0.25,58,119.69
1938,B2,648.75,0.25,38,119.69
1939,G#1,649.0,0.25,72,119.69
1940,G#2,649.25,0.25,38,119.69
1941,G#1,649.5,0.25,57,119.69
1942,G#2,649.75,0.25,38,119.69
1943,B1,650.0,0.25,72,119.69
1944,B2,650.25,0.25,40,119.69
1945,B1,650.5,0.25,60,119.69
1946,B2,650.75,0.25,41,119.69
1947,E2,651.0,0.25,72,119.69
1948,E3,651.25,0.25,45,119.69
1949,E2,651.5,0.25,61,119.69
1950,E3,651.75,0.25,45,119.69
1951,G#2,652.0,0.25,77,119.69
1952,G#3,652.0,1917/1000,37,119.69
1953,E4,652.0,1917/1000,37,119.69
1954,G#3,652.25,0.25,49,119.69
1955,G#2,652.5,0.25,66,119.69
1956,G#3,652.75,0.25,51,119.69
1957,B2,653.0,0.25,79,119.69
1958,B3,653.25,0.25,53,119.69
1959,B2,653.5,0.25,72,119.69
1960,B3,653.75,0.25,55,119.69
1961,E3,654.0,0.25,88,119.69
1962,G#3,654.0,1.75,25,119.69
1963,E4,654.0,1.75,25,119.69
1964,E4,654.25,0.25,57,119.69
1965,E3,654.5,0.25,74,119.69
1966,E4,654.75,0.25,57,119.69
1967,B2,655.0,0.25,73,119.69
1968,B3,655.25,0.25,48,119.69
1969,B2,655.5,0.25,58,119.69
1970,B3,655.75,0.25,47,119.69
1971,E4,656.0,979/1000,39,119.69
1972,G#3,656.0,979/1000,39,119.69
1973,B1,656.0,4.0,28,119.69
1974,B2,656.0,4.0,28,119.69
1975,G#3,657.0,979/1000,34,119.69
1976,G#4,657.0,979/1000,34,119.69
1977,G#3,658.0,979/1000,38,119.69
1978,F#4,658.0,979/1000,38,119.69
1979,G#3,659.0,979/1000,35,119.69
1980,G#4,659.0,979/1000,35,119.69
1981,A3,660.0,1917/1000,39,119.69
1982,C#4,660.0,1917/1000,39,119.69
1983,A3,662.0,1.75,25,119.69
1984,C#4,662.0,1.75,25,119.69
1985,A3,664.0,979/1000,38,119.69
1986,C#4,664.0,979/1000,38,119.69
1987,B1,664.0,4.0,28,119.69
1988,B2,664.0,4.0,28,119.69
1989,A3,665.0,979/1000,31,119.69
1990,B3,665.0,979/1000,31,119.69
1991,F#4,665.0,979/1000,31,119.69
1992,A3,666.0,979/1000,37,119.69
1993,B3,666.0,979/1000,37,119.69
1994,E4,666.0,979/1000,37,119.69
1995,A3,667.0,979/1000,29,119.69
1996,F#4,667.0,979/1000,29,119.69
1997,B3,667.0,979/1000,29,119.69
1998,G#3,668.0,1917/1000,36,119.69
1999,B3,668.0,1917/1000,36,119.69
2000,B2,668.0,1917/1000,20,119.69
2001,E2,668.0,1917/1000,20,119.69
2002,G#3,670.0,1.75,26,119.69
2003,E4,670.0,1.75,26,119.69
2004,E2,670.0,1.75,17,119.69
2005,B2,670.0,1.75,17,119.69
2006,G#3,672.0,979/1000,46,119.69
2007,E4,672.0,979/1000,46,119.69
2008,B2,672.0,979/1000,20,119.69
2009,E2,672.0,979/1000,20,119.69
2010,G#3,673.0,979/1000,36,119.69
2011,G#4,673.0,979/1000,36,119.69
2012,B2,673.0,979/1000,16,119.69
2013,E2,673.0,979/1000,16,119.69
2014,F#4,674.0,979/1000,45,119.69
2015,G#3,674.0,979/1000,45,119.69
2016,E2,674.0,979/1000,19,119.69
2017,B2,674.0,979/1000,19,119.69
2018,G#3,675.0,979/1000,39,119.69
2019,G#4,675.0,979/1000,39,119.69
2020,E2,675.0,979/1000,15,119.69
2021,B2,675.0,979/1000,15,119.69
2022,A3,676.0,1917/1000,42,119.69
2023,A4,676.0,1917/1000,42,119.69
2024,E4,676.0,1917/1000,42,119.69
2025,E2,676.0,1917/1000,23,119.69
2026,C#3,676.0,1917/1000,23,119.69
2027,A4,678.0,1.75,37,119.69
2028,A3,678.0,1.75,37,119.69
2029,E4,678.0,1.75,37,119.69
2030,E2,678.0,1.75,15,119.69
2031,C#3,678.0,1.75,15,119.69
2032,A4,680.0,1917/1000,43,119.69
2033,C#4,680.0,1917/1000,43,119.69
2034,C#5,680.0,1917/1000,43,119.69
2035,E2,680.0,979/1000,20,119.69
2036,C#3,680.0,979/1000,20,119.69
2037,E2,681.0,979/1000,15,119.69
2038,E-3,681.0,979/1000,15,119.69
2039,C#4,682.0,979/1000,40,119.69
2040,C#5,682.0,1917/1000,44,119.69
2041,A4,682.0,1917/1000,44,119.69
2042,E2,682.0,979/1000,19,119.69
2043,C#3,682.0,979/1000,19,119.69
2044,E-3,683.0,979/1000,15,119.69
2045,E2,683.0,979/1000,15,119.69
2046,E4,684.0,1917/1000,36,119.69
2047,E5,684.0,1917/1000,36,119.69
2048,G#4,684.0,1917/1000,36,119.69
2049,E3,684.0,1917/1000,23,119.69
2050,E2,684.0,1917/1000,23,119.69
2051,G#4,686.0,1.75,24,119.69
2052,E4,686.0,1.75,24,119.69
2053,E5,686.0,1.75,24,119.69
2054,E2,686.0,1.75,17,119.69
2055,B2,686.0,1.75,17,119.69
2056,A4,688.0,979/1000,38,119.69
2057,F#5,688.0,979/1000,38,119.69
2058,E-4,688.0,979/1000,38,119.69
2059,B2,688.0,979/1000,23,119.69
2060,E2,688.0,979/1000,23,119.69
2061,E-5,689.0,979/1000,31,119.69
2062,A4,689.0,979/1000,31,119.69
2063,F#4,689.0,979/1000,31,119.69
2064,E2,689.0,979/1000,18,119.69
2065,B2,689.0,979/1000,18,119.69
2066,B4,690.0,979/1000,36,119.69
2067,F#4,690.0,979/1000,36,119.69
2068,E2,690.0,979/1000,24,119.69
2069,B2,690.0,979/1000,24,119.69
2070,A4,691.0,979/1000,31,119.69
2071,E4,691.0,979/1000,31,119.69
2072,B2,691.0,979/1000,18,119.69
2073,E2,691.0,979/1000,18,119.69
2074,E4,692.0,1917/1000,32,119.69
2075,G#4,692.0,1917/1000,32,119.69
2076,E2,692.0,1917/1000,25,119.69
2077,C#3,692.0,1917/1000,25,119.69
2078,E4,694.0,1.75,21,119.69
2079,G#4,694.0,1.75,21,119.69
2080,C#3,694.0,1.75,19,119.69
2081,E2,694.0,1.75,19,119.69
2082,E2,696.0,4.0,30,119.69
2083,C#3,696.0,1.0,36,119.69
2084,F#5,696.0,979/1000,37,119.69
2085,A4,696.0,979/1000,37,119.69
2086,E-4,696.0,979/1000,37,119.69
2087,E3,697.0,1.0,33,119.69
2088,F#4,697.0,979/1000,30,119.69
2089,E-5,697.0,979/1000,30,119.69
2090,A4,697.0,979/1000,30,119.69
2091,A3,698.0,1.0,37,119.69
2092,F#4,698.0,979/1000,35,119.69
2093,B4,698.0,979/1000,35,119.69
2094,C#4,699.0,1.0,39,119.69
2095,E4,699.0,979/1000,30,119.69
2096,A4,699.0,979/1000,30,119.69
2097,E4,700.0,1917/1000,32,119.69
2098,G#4,700.0,1917/1000,32,119.69
2099,E3,700.0,1917/1000,26,119.69
2100,B3,700.0,1917/1000,26,119.69
2101,E4,702.0,1.75,21,119.69
2102,G#4,702.0,1.75,21,119.69
2103,B3,702.0,1.75,17,119.69
2104,E3,702.0,1.75,17,119.69
2105,E4,704.0,979/1000,35,119.69
2106,E3,704.0,979/1000,22,119.69
2107,B3,704.0,979/1000,22,119.69
2108,E4,705.0,979/1000,28,119.69
2109,G#4,705.0,979/1000,28,119.69
2110,B3,705.0,979/1000,18,119.69
2111,E3,705.0,979/1000,18,119.69
2112,E4,706.0,979/1000,32,119.69
2113,F#4,706.0,979/1000,32,119.69
2114,E3,706.0,979/1000,20,119.69
2115,E-4,706.0,979/1000,20,119.69
2116,G#4,707.0,979/1000,30,119.69
2117,E4,707.0,979/1000,30,119.69
2118,C#4,707.0,979/1000,18,119.69
2119,E3,707.0,979/1000,18,119.69
2120,E4,708.0,1917/1000,31,119.69
2121,B4,708.0,1917/1000,31,119.69
2122,E3,708.0,1917/1000,24,119.69
2123,B3,708.0,1917/1000,24,119.69
2124,E4,710.0,0.5,21,119.69
2125,B-4,710.0,0.5,21,119.69
2126,B3,710.0,1.75,15,119.69
2127,E3,710.0,1.75,15,119.69
2128,E5,712.0,1917/1000,41,119.69
2129,B5,712.0,1917/1000,41,119.69
2130,E6,712.0,1917/1000,41,119.69
2131,E3,712.0,979/1000,22,119.69
2132,B3,712.0,979/1000,22,119.69
2133,B3,713.0,979/1000,17,119.69
2134,E3,713.0,979/1000,17,119.69
2135,E5,714.0,917/1000,25,119.69
2136,E6,714.0,917/1000,25,119.69
2137,A5,714.0,917/1000,25,119.69
2138,E3,714.0,979/1000,20,119.69
2139,E-4,714.0,979/1000,20,119.69
2140,E3,715.0,979/1000,18,119.69
2141,C#4,715.0,979/1000,18,119.69
2142,E4,716.0,1917/1000,34,119.69
2143,A4,716.0,1917/1000,34,119.69
2144,B3,716.0,1917/1000,26,119.69
2145,E3,716.0,1917/1000,26,119.69
2146,E4,718.0,917/1000,24,119.69
2147,G#4,718.0,917/1000,24,119.69
2148,B3,718.0,1.75,15,119.69
2149,E3,718.0,1.75,15,119.69
2150,E5,720.0,1917/1000,42,119.69
2151,E6,720.0,1917/1000,42,119.69
2152,A5,720.0,1917/1000,42,119.69
2153,G#3,720.0,979/1000,25,119.69
2154,E3,720.0,979/1000,25,119.69
2155,E3,721.0,979/1000,23,119.69
2156,B3,721.0,979/1000,23,119.69
2157,E5,722.0,917/1000,25,119.69
2158,G5,722.0,917/1000,25,119.69
2159,E6,722.0,917/1000,25,119.69
2160,A3,722.0,979/1000,25,119.69
2161,E3,722.0,979/1000,25,119.69
2162,E3,723.0,979/1000,24,119.69
2163,B3,723.0,979/1000,24,119.69
2164,C4,724.0,1917/1000,82,119.69
2165,F#4,724.0,1917/1000,82,119.69
2166,E4,724.0,1917/1000,82,119.69
2167,F#3,724.0,1917/1000,82,119.69
2168,E3,724.0,1917/1000,25,119.69
2169,C#4,724.0,1917/1000,25,119.69
2170,F#3,726.0,917/1000,63,119.69
2171,E4,726.0,917/1000,63,119.69
2172,C4,726.0,917/1000,63,119.69
2173,F#4,726.0,917/1000,63,119.69
2174,C#4,726.0,0.5,15,119.69
2175,E3,726.0,0.5,15,119.69
2176,C#5,728.0,979/1000,49,119.69
2177,E5,728.0,979/1000,49,119.69
2178,F#5,728.0,979/1000,49,119.69
2179,E4,728.0,1917/1000,22,119.69
2180,C5,728.0,1917/1000,22,119.69
2181,E5,729.0,979/1000,40,119.69
2182,G#5,729.0,979/1000,40,119.69
2183,B4,729.0,979/1000,40,119.69
2184,A5,730.0,979/1000,45,119.69
2185,A4,730.0,979/1000,45,119.69
2186,E5,730.0,979/1000,45,119.69
2187,E4,730.0,917/1000,8,119.69
2188,C5,730.0,917/1000,8,119.69
2189,E5,731.0,979/1000,40,119.69
2190,G#5,731.0,979/1000,40,119.69
2191,B4,731.0,979/1000,40,119.69
2192,E5,732.0,1917/1000,50,119.69
2193,B4,732.0,1917/1000,50,119.69
2194,B5,732.0,1917/1000,50,119.69
2195,E3,732.0,1917/1000,25,119.69
2196,B3,732.0,1917/1000,25,119.69
2197,B5,734.0,917/1000,28,119.69
2198,B4,734.0,917/1000,28,119.69
2199,E-5,734.0,917/1000,28,119.69
2200,E3,734.0,917/1000,10,119.69
2201,B3,734.0,917/1000,10,119.69
2202,E4,736.0,1917/1000,34,119.69
2203,G#4,736.0,1917/1000,34,119.69
2204,B4,736.0,1917/1000,22,119.69
2205,E4,736.0,1917/1000,22,119.69
2206,G#4,738.0,917/1000,23,119.69
2207,E4,738.0,917/1000,23,119.69
2208,E4,738.0,917/1000,11,119.69
2209,B4,738.0,917/1000,11,119.69
2210,F#3,740.0,1917/1000,84,119.69
2211,F#4,740.0,1917/1000,84,119.69
2212,C4,740.0,1917/1000,84,119.69
2213,E4,740.0,1917/1000,84,119.69
2214,A1,740.0,1917/1000,61,119.69
2215,A2,740.0,1917/1000,61,119.69
2216,F#3,742.0,917/1000,63,119.69
2217,C4,742.0,917/1000,63,119.69
2218,F#4,742.0,917/1000,63,119.69
2219,E4,742.0,917/1000,63,119.69
2220,A1,742.0,917/1000,42,119.69
2221,A2,742.0,917/1000,42,119.69
2222,E5,744.0,979/1000,49,119.69
2223,F#5,744.0,979/1000,49,119.69
2224,C#5,744.0,979/1000,49,119.69
2225,E4,744.0,979/1000,39,119.69
2226,F#4,744.0,979/1000,39,119.69
2227,A3,744.0,979/1000,39,119.69
2228,B4,745.0,979/1000,44,119.69
2229,G#5,745.0,979/1000,44,119.69
2230,E5,745.0,979/1000,44,119.69
2231,E4,745.0,979/1000,34,119.69
2232,B3,745.0,979/1000,34,119.69
2233,G#4,745.0,979/1000,34,119.69
2234,A4,746.0,979/1000,47,119.69
2235,E5,746.0,979/1000,47,119.69
2236,A5,746.0,979/1000,47,119.69
2237,E4,746.0,979/1000,37,119.69
2238,C#4,746.0,979/1000,37,119.69
2239,B4,747.0,979/1000,42,119.69
2240,E5,747.0,979/1000,42,119.69
2241,G#5,747.0,979/1000,42,119.69
2242,E4,747.0,979/1000,36,119.69
2243,B3,747.0,979/1000,36,119.69
2244,G#4,747.0,979/1000,36,119.69
2245,B5,748.0,1917/1000,47,119.69
2246,B4,748.0,1917/1000,47,119.69
2247,E5,748.0,1917/1000,47,119.69
2248,A4,748.0,1917/1000,36,119.69
2249,F#4,748.0,1917/1000,36,119.69
2250,B3,748.0,1917/1000,36,119.69
2251,B4,750.0,917/1000,29,119.69
2252,B5,750.0,917/1000,29,119.69
2253,E-5,750.0,917/1000,29,119.69
2254,B3,750.0,917/1000,17,119.69
2255,A4,750.0,917/1000,17,119.69
2256,F#4,750.0,917/1000,17,119.69
2257,E4,752.0,1917/1000,104,119.69
2258,E3,752.0,1917/1000,104,119.69
2259,E3,752.0,1917/1000,27,119.69
2260,B3,752.0,1917/1000,27,119.69
2261,E3,754.0,917/1000,78,119.69
2262,E4,754.0,917/1000,78,119.69
2263,E3,754.0,917/1000,20,119.69
2264,B3,754.0,917/1000,20,119.69
2265,G#3,756.0,979/1000,36,119.69
2266,B3,756.0,979/1000,36,119.69
2267,A1,756.0,1917/1000,61,119.69
2268,A2,756.0,1917/1000,61,119.69
2269,G#3,757.0,979/1000,30,119.69
2270,G#4,757.0,979/1000,30,119.69
2271,F#4,758.0,979/1000,37,119.69
2272,G#3,758.0,979/1000,37,119.69
2273,A2,758.0,917/1000,45,119.69
2274,A1,758.0,917/1000,45,119.69
2275,G#3,759.0,979/1000,30,119.69
2276,G#4,759.0,979/1000,30,119.69
2277,B4,760.0,1917/1000,34,119.69
2278,G#4,760.0,1917/1000,34,119.69
2279,C4,760.0,1917/1000,34,119.69
2280,E4,760.0,979/1000,39,119.69
2281,F#4,760.0,979/1000,39,119.69
2282,A3,760.0,979/1000,39,119.69
2283,B3,761.0,979/1000,36,119.69
2284,G#4,761.0,979/1000,36,119.69
2285,E4,761.0,979/1000,36,119.69
2286,A4,762.0,0.5,23,119.69
2287,C4,762.0,0.5,23,119.69
2288,F#4,762.0,0.5,23,119.69
2289,C#4,762.0,979/1000,39,119.69
2290,E4,762.0,979/1000,39,119.69
2291,G#4,763.0,979/1000,36,119.69
2292,B3,763.0,979/1000,36,119.69
2293,E4,763.0,979/1000,36,119.69
2294,B3,764.0,1917/1000,36,119.69
2295,G#4,764.0,1917/1000,36,119.69
2296,B4,764.0,1917/1000,36,119.69
2297,A4,764.0,1917/1000,36,119.69
2298,B3,764.0,1917/1000,36,119.69
2299,F#4,764.0,1917/1000,36,119.69
2300,B3,766.0,0.5,22,119.69
2301,F#4,766.0,0.5,22,119.69
2302,A4,766.0,0.5,22,119.69
2303,F#4,766.0,917/1000,17,119.69
2304,A4,766.0,917/1000,17,119.69
2305,B3,766.0,917/1000,17,119.69
2306,E2,768.0,1917/1000,86,119.69
2307,E4,768.0,1917/1000,105,119.69
2308,E5,768.0,1917/1000,105,119.69
2309,E2,770.0,917/1000,70,119.69
2310,E4,770.0,917/1000,65,119.69
2311,E5,770.0,917/1000,65,119.69
2312,G#3,772.0,979/1000,38,119.69
2313,B3,772.0,979/1000,38,119.69
2314,E2,772.0,979/1000,22,119.69
2315,B2,772.0,979/1000,22,119.69
2316,G#4,773.0,979/1000,31,119.69
2317,G#3,773.0,979/1000,31,119.69
2318,B2,773.0,979/1000,17,119.69
2319,E2,773.0,979/1000,17,119.69
2320,G#3,774.0,979/1000,38,119.69
2321,F#4,774.0,979/1000,38,119.69
2322,E2,774.0,979/1000,20,119.69
2323,B2,774.0,979/1000,20,119.69
2324,G#3,775.0,979/1000,31,119.69
2325,G#4,775.0,979/1000,31,119.69
2326,E2,775.0,979/1000,16,119.69
2327,B2,775.0,979/1000,16,119.69
2328,C#4,776.0,1917/1000,42,119.69
2329,C#5,776.0,1917/1000,42,119.69
2330,A4,776.0,1917/1000,42,119.69
2331,C3,776.0,1917/1000,16,119.69
2332,E2,776.0,1917/1000,16,119.69
2333,C#4,778.0,0.5,22,119.69
2334,A4,778.0,0.5,22,119.69
2335,F#4,778.0,0.5,22,119.69
2336,E2,778.0,0.5,8,119.69
2337,C3,778.0,0.5,8,119.69
2338,B3,780.0,1917/1000,39,119.69
2339,B4,780.0,1917/1000,39,119.69
2340,G#4,780.0,1917/1000,39,119.69
2341,E2,780.0,1917/1000,23,119.69
2342,E-3,780.0,1917/1000,23,119.69
2343,A4,782.0,0.5,25,119.69
2344,B3,782.0,0.5,25,119.69
2345,F#4,782.0,0.5,25,119.69
2346,E2,782.0,0.5,9,119.69
2347,E-3,782.0,0.5,9,119.69
2348,E4,784.0,1917/1000,37,119.69
2349,A4,784.0,1917/1000,37,119.69
2350,B3,784.0,1917/1000,37,119.69
2351,E2,784.0,1917/1000,86,119.69
2352,E3,784.0,1917/1000,86,119.69
2353,E4,786.0,0.5,24,119.69
2354,G4,786.0,0.5,24,119.69
2355,B3,786.0,0.5,24,119.69
2356,E3,786.0,917/1000,62,119.69
2357,E2,786.0,917/1000,62,119.69
2358,C4,788.0,1917/1000,38,119.69
2359,G4,788.0,1917/1000,38,119.69
2360,A3,788.0,1917/1000,38,119.69
2361,E2,788.0,979/1000,25,119.69
2362,B2,788.0,979/1000,25,119.69
2363,B2,789.0,979/1000,18,119.69
2364,E2,789.0,979/1000,18,119.69
2365,F4,790.0,0.5,24,119.69
2366,C4,790.0,0.5,24,119.69
2367,A3,790.0,0.5,24,119.69
2368,B2,790.0,979/1000,25,119.69
2369,E2,790.0,979/1000,25,119.69
2370,E2,791.0,979/1000,17,119.69
2371,B2,791.0,979/1000,17,119.69
2372,G3,792.0,1917/1000,38,119.69
2373,C4,792.0,1917/1000,38,119.69
2374,F4,792.0,1917/1000,38,119.69
2375,A2,792.0,1917/1000,24,119.69
2376,E2,792.0,1917/1000,24,119.69
2377,C4,794.0,0.5,24,119.69
2378,G3,794.0,0.5,24,119.69
2379,E4,794.0,0.5,24,119.69
2380,E2,794.0,0.5,14,119.69
2381,C#3,794.0,0.5,14,119.69
2382,A3,796.0,1917/1000,38,119.69
2383,F3,796.0,1917/1000,38,119.69
2384,E4,796.0,1917/1000,38,119.69
2385,B2,796.0,1917/1000,25,119.69
2386,E2,796.0,1917/1000,25,119.69
2387,A3,798.0,0.5,26,119.69
2388,D4,798.0,0.5,26,119.69
2389,F3,798.0,0.5,26,119.69
2390,E-3,798.0,0.5,16,119.69
2391,E2,798.0,0.5,16,119.69
2392,E3,800.0,1917/1000,37,119.69
2393,D4,800.0,1917/1000,37,119.69
2394,A3,800.0,1917/1000,37,119.69
2395,E3,800.0,1917/1000,25,119.69
2396,E2,800.0,1917/1000,25,119.69
2397,A3,802.0,0.5,22,119.69
2398,C4,802.0,0.5,22,119.69
2399,E3,802.0,0.5,8,119.69
2400,E2,802.0,0.5,8,119.69
2401,A2,804.0,1917/1000,25,119.69
2402,C3,804.0,1917/1000,25,119.69
2403,C3,806.0,0.5,12,119.69
2404,A2,806.0,0.5,12,119.69
2405,C3,808.0,1917/1000,25,119.69
2406,C3,810.0,0.5,14,119.69
2407,A3,812.0,1917/1000,35,119.69
2408,B3,812.0,1917/1000,35,119.69
2409,D2,812.0,1917/1000,25,119.69
2410,D3,812.0,1917/1000,25,119.69
2411,B3,814.0,917/1000,25,119.69
2412,G#3,814.0,917/1000,25,119.69
2413,D2,814.0,0.5,15,119.69
2414,D3,814.0,0.5,15,119.69
2415,E2,816.0,1917/1000,24,119.69
2416,A2,816.0,2.0,24,119.69
2417,E3,818.0,2.0,39,119.69
2418,E2,818.0,0.5,12,119.69
2419,E-3,820.0,2.0,37,119.69
2420,E3,822.0,0.5,35,119.69
2421,C4,824.0,2.0,36,119.69
2422,A3,826.0,2.0,33,119.69
2423,A4,826.0,2.0,33,119.69
2424,E2,828.0,1917/1000,19,119.69
2425,B2,828.0,2.0,33,119.69
2426,G#3,828.0,2.0,40,119.69
2427,G#4,828.0,2.0,40,119.69
2428,E2,830.0,917/1000,9,119.69
2429,E3,830.0,2.0,39,119.69
2430,A3,830.0,2.0,37,119.69
2431,A4,830.0,2.0,37,119.69
2432,E-3,832.0,2.0,37,119.69
2433,B-3,832.0,2.0,47,119.69
2434,B-4,832.0,2.0,47,119.69
2435,E3,834.0,0.5,35,119.69
2436,A3,834.0,2.0,45,119.69
2437,A4,834.0,2.0,45,119.69
2438,D4,836.0,2.0,63,119.69
2439,D5,836.0,2.0,63,119.69
2440,C4,838.0,2.0,61,119.69
2441,C5,838.0,2.0,61,119.69
2442,F2,840.0,0.25,22,119.69
2443,G4,840.0,2.0,77,119.69
2444,G5,840.0,2.0,77,119.69
2445,C3,840.25,0.25,14,119.69
2446,F2,840.5,0.25,17,119.69
2447,C3,840.75,0.25,15,119.69
2448,F2,841.0,0.25,18,119.69
2449,C3,841.25,0.25,14,119.69
2450,F2,841.5,0.25,18,119.69
2451,C3,841.75,0.25,13,119.69
2452,F2,842.0,0.25,20,119.69
2453,F4,842.0,2.0,73,119.69
2454,F5,842.0,2.0,73,119.69
2455,C3,842.25,0.25,12,119.69
2456,F2,842.5,0.25,18,119.69
2457,C3,842.75,0.25,13,119.69
2458,F2,843.0,0.25,19,119.69
2459,C3,843.25,0.25,12,119.69
2460,F2,843.5,0.25,16,119.69
2461,C3,843.75,0.25,12,119.69
2462,F2,844.0,0.25,24,119.69
2463,B-4,844.0,2.0,96,119.69
2464,B-5,844.0,2.0,96,119.69
2465,C3,844.25,0.25,14,119.69
2466,F2,844.5,0.25,18,119.69
2467,C3,844.75,0.25,15,119.69
2468,F2,845.0,0.25,20,119.69
2469,C3,845.25,0.25,16,119.69
2470,F2,845.5,0.25,19,119.69
2471,C3,845.75,0.25,15,119.69
2472,F2,846.0,0.25,21,119.69
2473,A4,846.0,2.0,93,119.69
2474,A5,846.0,2.0,93,119.69
2475,C3,846.25,0.25,14,119.69
2476,F2,846.5,0.25,20,119.69
2477,C3,846.75,0.25,15,119.69
2478,F2,847.0,0.25,20,119.69
2479,C3,847.25,0.25,14,119.69
2480,F2,847.5,0.25,18,119.69
2481,C3,847.75,0.25,13,119.69
2482,F2,848.0,0.25,27,119.69
2483,D6,848.0,2.0,96,119.69
2484,A5,848.0,2.0,96,119.69
2485,F5,848.0,2.0,96,119.69
2486,D5,848.0,2.0,96,119.69
2487,C3,848.25,0.25,17,119.69
2488,F2,848.5,0.25,22,119.69
2489,C3,848.75,0.25,20,119.69
2490,F2,849.0,0.25,27,119.69
2491,C3,849.25,0.25,20,119.69
2492,F2,849.5,0.25,27,119.69
2493,C3,849.75,0.25,20,119.69
2494,F2,850.0,0.25,31,119.69
2495,A4,850.0,417/1000,80,119.69
2496,A5,850.0,417/1000,80,119.69
2497,C3,850.25,0.25,19,119.69
2498,F2,850.5,0.25,29,119.69
2499,C3,850.75,0.25,21,119.69
2500,F2,851.0,0.25,33,119.69
2501,C3,851.25,0.25,22,119.69
2502,F2,851.5,0.25,29,119.69
2503,C3,851.75,0.25,21,119.69
2504,F2,852.0,0.25,37,119.69
2505,E6,852.0,2.0,96,119.69
2506,C#6,852.0,2.0,96,119.69
2507,A5,852.0,2.0,96,119.69
2508,E5,852.0,2.0,96,119.69
2509,C3,852.25,0.25,28,119.69
2510,F2,852.5,0.25,31,119.69
2511,C3,852.75,0.25,31,119.69
2512,F2,853.0,0.25,35,119.69
2513,C3,853.25,0.25,30,119.69
2514,F2,853.5,0.25,36,119.69
2515,C3,853.75,0.25,31,119.69
2516,F2,854.0,0.25,42,119.69
2517,A4,854.0,417/1000,80,119.69
2518,A5,854.0,417/1000,80,119.69
2519,C3,854.25,0.25,30,119.69
2520,F2,854.5,0.25,42,119.69
2521,C3,854.75,0.25,33,119.69
2522,F2,855.0,0.25,42,119.69
2523,C3,855.25,0.25,32,119.69
2524,F2,855.5,0.25,41,119.69
2525,C3,855.75,0.25,31,119.69
2526,F2,856.0,0.25,54,119.69
2527,F6,856.0,2.0,96,119.69
2528,D6,856.0,2.0,96,119.69
2529,A5,856.0,2.0,96,119.69
2530,F5,856.0,2.0,96,119.69
2531,C3,856.25,0.25,39,119.69
2532,F2,856.5,0.25,45,119.69
2533,C3,856.75,0.25,40,119.69
2534,F2,857.0,0.25,52,119.69
2535,C3,857.25,0.25,38,119.69
2536,F2,857.5,0.25,52,119.69
2537,C3,857.75,0.25,42,119.69
2538,F2,858.0,0.25,57,119.69
2539,A4,858.0,417/1000,80,119.69
2540,A5,858.0,417/1000,80,119.69
2541,C3,858.25,0.25,41,119.69
2542,F2,858.5,0.25,54,119.69
2543,C3,858.75,0.25,45,119.69
2544,F2,859.0,0.25,60,119.69
2545,C3,859.25,0.25,43,119.69
2546,F2,859.5,0.25,57,119.69
2547,C3,859.75,0.25,42,119.69
2548,F2,860.0,0.25,62,119.69
2549,E6,860.0,2.0,96,119.69
2550,C#6,860.0,2.0,96,119.69
2551,A5,860.0,2.0,96,119.69
2552,E5,860.0,2.0,96,119.69
2553,C3,860.25,0.25,48,119.69
2554,F2,860.5,0.25,57,119.69
2555,C3,860.75,0.25,53,119.69
2556,F2,861.0,0.25,63,119.69
2557,C3,861.25,0.25,49,119.69
2558,F2,861.5,0.25,63,119.69
2559,C3,861.75,0.25,50,119.69
2560,F2,862.0,0.25,68,119.69
2561,A4,862.0,417/1000,80,119.69
2562,A5,862.0,417/1000,80,119.69
2563,C3,862.25,0.25,48,119.69
2564,F2,862.5,0.25,65,119.69
2565,C3,862.75,0.25,49,119.69
2566,F2,863.0,0.25,69,119.69
2567,C3,863.25,0.25,51,119.69
2568,F2,863.5,0.25,65,119.69
2569,C3,863.75,0.25,48,119.69
2570,D6,864.0,2.0,96,119.69
2571,A5,864.0,2.0,96,119.69
2572,F5,864.0,2.0,96,119.69
2573,D5,864.0,2.0,96,119.69
2574,F2,864.0,2.0,80,119.69
2575,A2,864.0,2.0,80,119.69
2576,D3,864.0,2.0,80,119.69
2577,F3,864.0,2.0,80,119.69
2578,A4,866.0,417/1000,88,119.69
2579,A5,866.0,417/1000,88,119.69
2580,A2,866.0,417/1000,73,119.69
2581,A3,866.0,417/1000,73,119.69
2582,E6,868.0,2.0,98,119.69
2583,C#6,868.0,2.0,98,119.69
2584,A5,868.0,2.0,98,119.69
2585,E5,868.0,2.0,98,119.69
2586,E2,868.0,2.0,80,119.69
2587,A2,868.0,2.0,80,119.69
2588,C#3,868.0,2.0,80,119.69
2589,E3,868.0,2.0,80,119.69
2590,A4,870.0,0.25,89,119.69
2591,A5,870.0,0.25,89,119.69
2592,A2,870.0,417/1000,73,119.69
2593,A3,870.0,417/1000,73,119.69
2594,F6,872.0,2.0,96,119.69
2595,D6,872.0,2.0,96,119.69
2596,A5,872.0,2.0,96,119.69
2597,F5,872.0,2.0,96,119.69
2598,D2,872.0,2.0,80,119.69
2599,F2,872.0,2.0,80,119.69
2600,A2,872.0,2.0,80,119.69
2601,D3,872.0,2.0,80,119.69
2602,A4,874.0,0.25,87,119.69
2603,A5,874.0,0.25,87,119.69
2604,A2,874.0,417/1000,73,119.69
2605,A3,874.0,417/1000,73,119.69
2606,E6,876.0,2.0,98,119.69
2607,C#6,876.0,2.0,98,119.69
2608,A5,876.0,2.0,98,119.69
2609,E5,876.0,2.0,98,119.69
2610,E2,876.0,2.0,80,119.69
2611,A2,876.0,2.0,80,119.69
2612,C#3,876.0,2.0,80,119.69
2613,E3,876.0,2.0,80,119.69
2614,A4,878.0,0.25,88,119.69
2615,A5,878.0,0.25,88,119.69
2616,A2,878.0,417/1000,73,119.69
2617,A3,878.0,417/1000,73,119.69
2618,A4,879.0,0.5,85,119.69
2619,A3,879.0,0.5,85,119.69
2620,G4,879.75,0.125,73,119.69
2621,G3,879.75,0.125,73,119.69
2622,F6,880.0,2.0,100,119.69
2623,C6,880.0,2.0,100,119.69
2624,A5,880.0,2.0,100,119.69
2625,F5,880.0,2.0,100,119.69
2626,F4,880.0,0.375,87,119.69
2627,F3,880.0,0.375,87,119.69
2628,E4,880.75,0.125,72,119.69
2629,E3,880.75,0.125,72,119.69
2630,D3,881.0,0.375,78,119.69
2631,D4,881.0,0.375,78,119.69
2632,C#3,881.75,0.125,72,119.69
2633,C#4,881.75,0.125,72,119.69
2634,C5,882.0,0.25,87,119.69
2635,C6,882.0,0.25,87,119.69
2636,D3,882.0,0.375,78,119.69
2637,D4,882.0,0.375,78,119.69
2638,C3,882.75,0.125,70,119.69
2639,C4,882.75,0.125,70,119.69
2640,B-2,883.0,0.375,79,119.69
2641,B-3,883.0,0.375,79,119.69
2642,A2,883.75,0.125,75,119.69
2643,A3,883.75,0.125,75,119.69
2644,G6,884.0,2.0,95,119.69
2645,E6,884.0,2.0,95,119.69
2646,C6,884.0,2.0,95,119.69
2647,G5,884.0,2.0,95,119.69
2648,G2,884.0,0.375,73,119.69
2649,G3,884.0,0.375,73,119.69
2650,F2,884.75,0.125,69,119.69
2651,F3,884.75,0.125,69,119.69
2652,E2,885.0,0.375,74,119.69
2653,E3,885.0,0.375,74,119.69
2654,D2,885.75,0.125,68,119.69
2655,D3,885.75,0.125,68,119.69
2656,C5,886.0,0.25,80,119.69
2657,C6,886.0,0.25,80,119.69
2658,C#2,886.0,0.375,80,119.69
2659,C#3,886.0,0.375,80,119.69
2660,B-1,886.75,0.125,74,119.69
2661,B-2,886.75,0.125,74,119.69
2662,A1,887.0,0.375,84,119.69
2663,A2,887.0,0.375,84,119.69
2664,G1,887.75,0.125,73,119.69
2665,G2,887.75,0.125,73,119.69
2666,A6,888.0,2.0,95,119.69
2667,F6,888.0,2.0,95,119.69
2668,C6,888.0,2.0,95,119.69
2669,A5,888.0,2.0,95,119.69
2670,F1,888.0,667/1000,84,119.69
2671,F2,888.0,667/1000,84,119.69
2672,G4,888.75,0.125,69,119.69
2673,G3,888.75,0.125,69,119.69
2674,F4,889.0,0.375,76,119.69
2675,F3,889.0,0.375,76,119.69
2676,E4,889.75,0.125,66,119.69
2677,E3,889.75,0.125,66,119.69
2678,C5,890.0,0.25,80,119.69
2679,C6,890.0,0.25,80,119.69
2680,D3,890.0,0.375,77,119.69
2681,D4,890.0,0.375,77,119.69
2682,C3,890.75,0.125,65,119.69
2683,C4,890.75,0.125,65,119.69
2684,B-2,891.0,0.375,76,119.69
2685,B-3,891.0,0.375,76,119.69
2686,A2,891.75,0.125,67,119.69
2687,A3,891.75,0.125,67,119.69
2688,G6,892.0,2.0,91,119.69
2689,E6,892.0,2.0,91,119.69
2690,C6,892.0,2.0,91,119.69
2691,G5,892.0,2.0,91,119.69
2692,G2,892.0,0.375,74,119.69
2693,G3,892.0,0.375,74,119.69
2694,F2,892.75,0.125,67,119.69
2695,F3,892.75,0.125,67,119.69
2696,E2,893.0,0.375,73,119.69
2697,E3,893.0,0.375,73,119.69
2698,D2,893.75,0.125,67,119.69
2699,D3,893.75,0.125,67,119.69
2700,C5,894.0,0.25,80,119.69
2701,C6,894.0,0.25,80,119.69
2702,C#2,894.0,0.375,78,119.69
2703,C#3,894.0,0.375,78,119.69
2704,B-1,894.75,0.125,72,119.69
2705,B-2,894.75,0.125,72,119.69
2706,A1,895.0,0.375,81,119.69
2707,A2,895.0,0.375,81,119.69
2708,G1,895.75,0.125,70,119.69
2709,G2,895.75,0.125,70,119.69
2710,A6,896.0,667/1000,92,119.69
2711,F6,896.0,667/1000,92,119.69
2712,C6,896.0,667/1000,92,119.69
2713,A5,896.0,667/1000,92,119.69
2714,F1,896.0,667/1000,84,119.69
2715,F2,896.0,667/1000,84,119.69
2716,F6,896.75,167/1000,66,119.69
2717,C6,896.75,167/1000,66,119.69
2718,A5,896.75,167/1000,66,119.69
2719,F5,896.75,167/1000,66,119.69
2720,G4,896.75,0.125,71,119.69
2721,G3,896.75,0.125,71,119.69
2722,F6,897.0,667/1000,74,119.69
2723,C6,897.0,667/1000,74,119.69
2724,A5,897.0,667/1000,74,119.69
2725,F5,897.0,667/1000,74,119.69
2726,F4,897.0,0.375,78,119.69
2727,F3,897.0,0.375,78,119.69
2728,C6,897.75,167/1000,66,119.69
2729,A5,897.75,167/1000,66,119.69
2730,F5,897.75,167/1000,66,119.69
2731,C5,897.75,167/1000,66,119.69
2732,E4,897.75,0.125,71,119.69
2733,E3,897.75,0.125,71,119.69
2734,C6,898.0,667/1000,74,119.69
2735,A5,898.0,667/1000,74,119.69
2736,F5,898.0,667/1000,74,119.69
2737,C5,898.0,667/1000,74,119.69
2738,F3,898.0,0.375,77,119.69
2739,F4,898.0,0.375,77,119.69
2740,A5,898.75,167/1000,66,119.69
2741,F5,898.75,167/1000,66,119.69
2742,C5,898.75,167/1000,66,119.69
2743,A4,898.75,167/1000,66,119.69
2744,E3,898.75,0.125,69,119.69
2745,E4,898.75,0.125,69,119.69
2746,A4,899.0,0.188,74,119.69
2747,C5,899.0,0.188,74,119.69
2748,F5,899.0,0.188,74,119.69
2749,A5,899.0,0.188,74,119.69
2750,D3,899.0,0.375,76,119.69
2751,D4,899.0,0.375,76,119.69
2752,F4,899.5,0.188,66,119.69
2753,A4,899.5,0.188,66,119.69
2754,C5,899.5,0.188,66,119.69
2755,F5,899.5,0.188,66,119.69
2756,C3,899.75,0.125,69,119.69
2757,C4,899.75,0.125,69,119.69
2758,A6,900.0,667/1000,94,119.69
2759,F6,900.0,667/1000,94,119.69
2760,C6,900.0,667/1000,94,119.69
2761,A5,900.0,667/1000,94,119.69
2762,B-2,900.0,0.375,78,119.69
2763,B-3,900.0,0.375,78,119.69
2764,F6,900.75,167/1000,66,119.69
2765,C6,900.75,167/1000,66,119.69
2766,A5,900.75,167/1000,66,119.69
2767,F5,900.75,167/1000,66,119.69
2768,A2,900.75,0.125,66,119.69
2769,A3,900.75,0.125,66,119.69
2770,F6,901.0,667/1000,74,119.69
2771,C6,901.0,667/1000,74,119.69
2772,A5,901.0,667/1000,74,119.69
2773,F5,901.0,667/1000,74,119.69
2774,G2,901.0,0.375,72,119.69
2775,G3,901.0,0.375,72,119.69
2776,C6,901.75,167/1000,66,119.69
2777,A5,901.75,167/1000,66,119.69
2778,F5,901.75,167/1000,66,119.69
2779,C5,901.75,167/1000,66,119.69
2780,F2,901.75,0.125,68,119.69
2781,F3,901.75,0.125,68,119.69
2782,C6,902.0,667/1000,74,119.69
2783,A5,902.0,667/1000,74,119.69
2784,F5,902.0,667/1000,74,119.69
2785,C5,902.0,667/1000,74,119.69
2786,E2,902.0,0.375,74,119.69
2787,E3,902.0,0.375,74,119.69
2788,A5,902.75,167/1000,66,119.69
2789,F5,902.75,167/1000,66,119.69
2790,C5,902.75,167/1000,66,119.69
2791,A4,902.75,167/1000,66,119.69
2792,D2,902.75,0.125,69,119.69
2793,D3,902.75,0.125,69,119.69
2794,A4,903.0,0.188,74,119.69
2795,C5,903.0,0.188,74,119.69
2796,F5,903.0,0.188,74,119.69
2797,A5,903.0,0.188,74,119.69
2798,C2,903.0,0.375,79,119.69
2799,C3,903.0,0.375,79,119.69
2800,F4,903.5,0.188,66,119.69
2801,A4,903.5,0.188,66,119.69
2802,C5,903.5,0.188,66,119.69
2803,F5,903.5,0.188,66,119.69
2804,B-1,903.75,0.125,71,119.69
2805,B-2,903.75,0.125,71,119.69
2806,A6,904.0,667/1000,87,119.69
2807,E6,904.0,667/1000,87,119.69
2808,C#6,904.0,667/1000,87,119.69
2809,A5,904.0,667/1000,87,119.69
2810,A1,904.0,667/1000,85,119.69
2811,A2,904.0,667/1000,85,119.69
2812,A6,904.75,167/1000,68,119.69
2813,E6,904.75,167/1000,68,119.69
2814,C#6,904.75,167/1000,68,119.69
2815,A5,904.75,167/1000,68,119.69
2816,B-3,904.75,0.125,73,119.69
2817,B-4,904.75,0.125,73,119.69
2818,A6,905.0,667/1000,78,119.69
2819,E6,905.0,667/1000,78,119.69
2820,C#6,905.0,667/1000,78,119.69
2821,A5,905.0,667/1000,78,119.69
2822,A3,905.0,0.375,80,119.69
2823,A4,905.0,0.375,80,119.69
2824,A6,905.75,167/1000,66,119.69
2825,E6,905.75,167/1000,66,119.69
2826,C#6,905.75,167/1000,66,119.69
2827,A5,905.75,167/1000,66,119.69
2828,G3,905.75,0.125,71,119.69
2829,G4,905.75,0.125,71,119.69
2830,A6,906.0,667/1000,78,119.69
2831,E6,906.0,667/1000,78,119.69
2832,C#6,906.0,667/1000,78,119.69
2833,A5,906.0,667/1000,78,119.69
2834,F4,906.0,0.375,76,119.69
2835,F3,906.0,0.375,76,119.69
2836,A6,906.75,167/1000,66,119.69
2837,E6,906.75,167/1000,66,119.69
2838,C#6,906.75,167/1000,66,119.69
2839,A5,906.75,167/1000,66,119.69
2840,E4,906.75,0.125,72,119.69
2841,E3,906.75,0.125,72,119.69
2842,A6,907.0,0.188,76,119.69
2843,E6,907.0,0.188,76,119.69
2844,C#6,907.0,0.188,76,119.69
2845,A5,907.0,0.188,76,119.69
2846,D3,907.0,0.375,82,119.69
2847,D4,907.0,0.375,82,119.69
2848,A5,907.5,0.188,66,119.69
2849,C#6,907.5,0.188,66,119.69
2850,E6,907.5,0.188,66,119.69
2851,A6,907.5,0.188,66,119.69
2852,C3,907.75,0.125,69,119.69
2853,C4,907.75,0.125,69,119.69
2854,A5,908.0,667/1000,50,119.69
2855,E5,908.0,667/1000,50,119.69
2856,C#5,908.0,667/1000,50,119.69
2857,A4,908.0,667/1000,50,119.69
2858,B-2,908.0,0.375,85,119.69
2859,B-3,908.0,0.375,85,119.69
2860,C#5,908.75,167/1000,45,119.69
2861,E5,908.75,167/1000,45,119.69
2862,A5,908.75,167/1000,45,119.69
2863,A2,908.75,0.125,69,119.69
2864,A3,908.75,0.125,69,119.69
2865,A5,909.0,667/1000,50,119.69
2866,E5,909.0,667/1000,50,119.69
2867,C#5,909.0,667/1000,50,119.69
2868,G2,909.0,0.375,80,119.69
2869,G3,909.0,0.375,80,119.69
2870,C#5,909.75,167/1000,45,119.69
2871,E5,909.75,167/1000,45,119.69
2872,A5,909.75,167/1000,45,119.69
2873,F2,909.75,0.125,70,119.69
2874,F3,909.75,0.125,70,119.69
2875,A5,910.0,667/1000,49,119.69
2876,E5,910.0,667/1000,49,119.69
2877,C#5,910.0,667/1000,49,119.69
2878,E2,910.0,0.375,83,119.69
2879,E3,910.0,0.375,83,119.69
2880,C#5,910.75,167/1000,45,119.69
2881,E5,910.75,167/1000,45,119.69
2882,A5,910.75,167/1000,45,119.69
2883,D2,910.75,0.125,73,119.69
2884,D3,910.75,0.125,73,119.69
2885,A5,911.0,0.188,50,119.69
2886,E5,911.0,0.188,50,119.69
2887,C#5,911.0,0.188,50,119.69
2888,C2,911.0,0.375,84,119.69
2889,C3,911.0,0.375,84,119.69
2890,C#5,911.5,0.188,45,119.69
2891,E5,911.5,0.188,45,119.69
2892,A5,911.5,0.188,45,119.69
2893,B-1,911.75,0.125,84,119.69
2894,B-2,911.75,0.125,84,119.69
2895,C5,912.0,667/1000,45,119.69
2896,F5,912.0,667/1000,45,119.69
2897,A5,912.0,667/1000,45,119.69
2898,A1,912.0,2.0,82,119.69
2899,C2,912.0,2.0,82,119.69
2900,F2,912.0,2.0,82,119.69
2901,A2,912.0,2.0,82,119.69
2902,C5,912.75,167/1000,38,119.69
2903,F5,912.75,167/1000,38,119.69
2904,A5,912.75,167/1000,38,119.69
2905,C5,913.0,667/1000,45,119.69
2906,F5,913.0,667/1000,45,119.69
2907,A5,913.0,667/1000,45,119.69
2908,C5,913.75,167/1000,37,119.69
2909,F5,913.75,167/1000,37,119.69
2910,A5,913.75,167/1000,37,119.69
2911,C5,914.0,667/1000,45,119.69
2912,F5,914.0,667/1000,45,119.69
2913,A5,914.0,667/1000,45,119.69
2914,F3,914.0,0.25,55,119.69
2915,A3,914.0,0.25,55,119.69
2916,C3,914.0,0.25,55,119.69
2917,A2,914.0,0.25,55,119.69
2918,C5,914.75,167/1000,38,119.69
2919,F5,914.75,167/1000,38,119.69
2920,A5,914.75,167/1000,38,119.69
2921,C5,915.0,0.188,45,119.69
2922,F5,915.0,0.188,45,119.69
2923,A5,915.0,0.188,45,119.69
2924,F5,915.5,0.188,39,119.69
2925,C5,915.5,0.188,39,119.69
2926,A5,915.5,0.188,39,119.69
2927,C5,916.0,667/1000,51,119.69
2928,F5,916.0,667/1000,51,119.69
2929,A5,916.0,667/1000,51,119.69
2930,A1,916.0,2.0,64,119.69
2931,C2,916.0,2.0,64,119.69
2932,F2,916.0,2.0,64,119.69
2933,F1,916.0,2.0,64,119.69
2934,D5,916.75,167/1000,37,119.69
2935,F5,916.75,167/1000,37,119.69
2936,B-5,916.75,167/1000,37,119.69
2937,C5,917.0,667/1000,45,119.69
2938,F5,917.0,667/1000,45,119.69
2939,A5,917.0,667/1000,45,119.69
2940,B-4,917.75,167/1000,37,119.69
2941,C5,917.75,167/1000,37,119.69
2942,G5,917.75,167/1000,37,119.69
2943,A4,918.0,667/1000,45,119.69
2944,C5,918.0,667/1000,45,119.69
2945,F5,918.0,667/1000,45,119.69
2946,A2,918.0,0.25,55,119.69
2947,C3,918.0,0.25,55,119.69
2948,F3,918.0,0.25,55,119.69
2949,F2,918.0,0.25,55,119.69
2950,B-4,918.75,167/1000,37,119.69
2951,C5,918.75,167/1000,37,119.69
2952,G5,918.75,167/1000,37,119.69
2953,A4,919.0,667/1000,45,119.69
2954,C5,919.0,667/1000,45,119.69
2955,F5,919.0,667/1000,45,119.69
2956,F4,919.75,167/1000,37,119.69
2957,B-4,919.75,167/1000,37,119.69
2958,D5,919.75,167/1000,37,119.69
2959,E4,920.0,0.75,52,119.69
2960,B-4,920.0,0.75,52,119.69
2961,C5,920.0,0.75,52,119.69
2962,A1,920.0,667/1000,74,119.69
2963,A2,920.0,667/1000,74,119.69
2964,F4,920.75,0.25,37,119.69
2965,B-4,920.75,0.25,37,119.69
2966,D5,920.75,0.25,37,119.69
2967,C#2,920.75,167/1000,66,119.69
2968,C#3,920.75,167/1000,66,119.69
2969,F4,921.0,0.75,45,119.69
2970,B-4,921.0,0.75,45,119.69
2971,D5,921.0,0.75,45,119.69
2972,C#2,921.0,667/1000,74,119.69
2973,C#3,921.0,667/1000,74,119.69
2974,E4,921.75,0.25,37,119.69
2975,B-4,921.75,0.25,37,119.69
2976,C5,921.75,0.25,37,119.69
2977,E2,921.75,167/1000,66,119.69
2978,E3,921.75,167/1000,66,119.69
2979,E4,922.0,0.75,45,119.69
2980,B-4,922.0,0.75,45,119.69
2981,C5,922.0,0.75,45,119.69
2982,E2,922.0,667/1000,74,119.69
2983,E3,922.0,667/1000,74,119.69
2984,F4,922.75,0.25,37,119.69
2985,B-4,922.75,0.25,37,119.69
2986,D5,922.75,0.25,37,119.69
2987,A2,922.75,167/1000,66,119.69
2988,A3,922.75,167/1000,66,119.69
2989,F4,923.0,0.188,39,119.69
2990,B-4,923.0,0.188,39,119.69
2991,D5,923.0,0.188,39,119.69
2992,A2,923.0,0.188,74,119.69
2993,A3,923.0,0.188,74,119.69
2994,E4,923.5,167/1000,37,119.69
2995,B-4,923.5,167/1000,37,119.69
2996,C5,923.5,167/1000,37,119.69
2997,A2,923.5,0.188,67,119.69
2998,A3,923.5,0.188,67,119.69
2999,A3,924.0,667/1000,50,119.69
3000,D5,924.0,667/1000,45,119.69
3001,G5,924.0,667/1000,45,119.69
3002,B-5,924.0,667/1000,45,119.69
3003,C#4,924.75,167/1000,40,119.69
3004,E-5,924.75,167/1000,37,119.69
3005,G5,924.75,167/1000,37,119.69
3006,C6,924.75,167/1000,37,119.69
3007,C#4,925.0,667/1000,49,119.69
3008,D5,925.0,667/1000,45,119.69
3009,G5,925.0,667/1000,45,119.69
3010,B-5,925.0,667/1000,45,119.69
3011,E4,925.75,167/1000,38,119.69
3012,C5,925.75,167/1000,37,119.69
3013,D5,925.75,167/1000,37,119.69
3014,A5,925.75,167/1000,37,119.69
3015,E4,926.0,667/1000,48,119.69
3016,B-4,926.0,667/1000,45,119.69
3017,D5,926.0,667/1000,45,119.69
3018,G5,926.0,667/1000,45,119.69
3019,A4,926.75,167/1000,38,119.69
3020,C5,926.75,167/1000,37,119.69
3021,D5,926.75,167/1000,37,119.69
3022,A5,926.75,167/1000,37,119.69
3023,A4,927.0,0.188,45,119.69
3024,B-4,927.0,667/1000,45,119.69
3025,D5,927.0,667/1000,45,119.69
3026,G5,927.0,667/1000,45,119.69
3027,A4,927.5,0.188,38,119.69
3028,G4,927.75,167/1000,37,119.69
3029,C5,927.75,167/1000,37,119.69
3030,E-5,927.75,167/1000,37,119.69
3031,F#4,928.0,0.75,52,119.69
3032,C5,928.0,0.75,52,119.69
3033,D5,928.0,0.75,52,119.69
3034,F4,928.0,667/1000,44,119.69
3035,A4,928.0,667/1000,44,119.69
3036,G4,928.75,0.25,37,119.69
3037,C5,928.75,0.25,37,119.69
3038,E-5,928.75,0.25,37,119.69
3039,F4,928.75,167/1000,33,119.69
3040,A4,928.75,167/1000,33,119.69
3041,G4,929.0,0.75,45,119.69
3042,C5,929.0,0.75,45,119.69
3043,E-5,929.0,0.75,45,119.69
3044,F4,929.0,667/1000,42,119.69
3045,A4,929.0,667/1000,42,119.69
3046,F#4,929.75,0.25,37,119.69
3047,C5,929.75,0.25,37,119.69
3048,D5,929.75,0.25,37,119.69
3049,F4,929.75,167/1000,33,119.69
3050,A4,929.75,167/1000,33,119.69
3051,F#4,930.0,0.75,45,119.69
3052,C5,930.0,0.75,45,119.69
3053,D5,930.0,0.75,45,119.69
3054,F4,930.0,667/1000,42,119.69
3055,A4,930.0,667/1000,42,119.69
3056,G4,930.75,0.25,37,119.69
3057,C5,930.75,0.25,37,119.69
3058,E-5,930.75,0.25,37,119.69
3059,F4,930.75,167/1000,34,119.69
3060,A4,930.75,167/1000,34,119.69
3061,G4,931.0,0.188,39,119.69
3062,C5,931.0,0.188,39,119.69
3063,E-5,931.0,0.188,39,119.69
3064,F4,931.0,0.188,40,119.69
3065,A4,931.0,0.188,40,119.69
3066,F#4,931.5,167/1000,37,119.69
3067,C5,931.5,167/1000,37,119.69
3068,D5,931.5,167/1000,37,119.69
3069,F4,931.5,0.188,36,119.69
3070,A4,931.5,0.188,36,119.69
3071,B4,932.0,0.75,51,119.69
3072,F5,932.0,0.75,51,119.69
3073,G5,932.0,0.75,51,119.69
3074,F2,932.0,2.0,31,119.69
3075,F3,932.0,2.0,31,119.69
3076,B4,932.75,167/1000,37,119.69
3077,F5,932.75,167/1000,37,119.69
3078,G#5,932.75,167/1000,37,119.69
3079,B4,933.0,0.5,51,119.69
3080,F5,933.0,0.5,51,119.69
3081,G#5,933.0,0.5,51,119.69
3082,B4,933.5,167/1000,42,119.69
3083,F5,933.5,167/1000,42,119.69
3084,G5,933.5,167/1000,42,119.69
3085,G4,934.0,0.75,45,119.69
3086,B-4,934.0,0.75,45,119.69
3087,C5,934.0,0.75,45,119.69
3088,A2,934.0,417/1000,37,119.69
3089,A3,934.0,417/1000,37,119.69
3090,G4,934.75,167/1000,39,119.69
3091,B-4,934.75,167/1000,39,119.69
3092,C#5,934.75,167/1000,39,119.69
3093,G4,935.0,0.188,47,119.69
3094,B-4,935.0,0.188,47,119.69
3095,C#5,935.0,0.188,47,119.69
3096,G4,935.5,167/1000,37,119.69
3097,B-4,935.5,167/1000,37,119.69
3098,C5,935.5,167/1000,37,119.69
3099,A4,936.0,0.75,52,119.69
3100,E-5,936.0,0.75,52,119.69
3101,F5,936.0,0.75,52,119.69
3102,C3,936.0,2.0,34,119.69
3103,G3,936.0,2.0,34,119.69
3104,A4,936.75,167/1000,42,119.69
3105,E-5,936.75,167/1000,42,119.69
3106,G5,936.75,167/1000,42,119.69
3107,A4,937.0,0.5,49,119.69
3108,E-5,937.0,0.5,49,119.69
3109,G5,937.0,0.5,49,119.69
3110,A4,937.5,167/1000,37,119.69
3111,E-5,937.5,167/1000,37,119.69
3112,F5,937.5,167/1000,37,119.69
3113,C4,938.0,417/1000,37,119.69
3114,D4,938.0,0.75,49,119.69
3115,F4,938.0,0.75,49,119.69
3116,B-4,938.0,0.75,49,119.69
3117,D4,938.75,167/1000,37,119.69
3118,F4,938.75,167/1000,37,119.69
3119,C5,938.75,167/1000,37,119.69
3120,D4,939.0,0.188,45,119.69
3121,F4,939.0,0.188,45,119.69
3122,C5,939.0,0.188,45,119.69
3123,D4,939.5,167/1000,37,119.69
3124,B-4,939.5,167/1000,37,119.69
3125,F4,939.5,167/1000,37,119.69
3126,F4,940.0,0.75,55,119.69
3127,B-4,940.0,0.75,55,119.69
3128,D5,940.0,0.75,55,119.69
3129,G2,940.0,2.0,31,119.69
3130,G3,940.0,2.0,31,119.69
3131,F4,940.75,0.25,55,119.69
3132,C#5,940.75,0.25,55,119.69
3133,E5,940.75,0.25,55,119.69
3134,F4,941.0,0.75,59,119.69
3135,C#5,941.0,0.75,59,119.69
3136,E5,941.0,0.75,59,119.69
3137,F4,941.75,0.25,58,119.69
3138,D5,941.75,0.25,58,119.69
3139,F5,941.75,0.25,58,119.69
3140,F4,942.0,0.75,67,119.69
3141,D5,942.0,0.75,67,119.69
3142,F5,942.0,0.75,67,119.69
3143,B-2,942.0,417/1000,37,119.69
3144,B-3,942.0,417/1000,37,119.69
3145,G4,942.75,0.25,66,119.69
3146,E5,942.75,0.25,66,119.69
3147,G5,942.75,0.25,66,119.69
3148,G4,943.0,0.75,73,119.69
3149,E5,943.0,0.75,73,119.69
3150,G5,943.0,0.75,73,119.69
3151,G#4,943.75,0.25,67,119.69
3152,F5,943.75,0.25,67,119.69
3153,G#5,943.75,0.25,67,119.69
3154,G#4,944.0,0.75,76,119.69
3155,F5,944.0,0.75,76,119.69
3156,G#5,944.0,0.75,76,119.69
3157,D3,944.0,2.0,37,119.69
3158,A3,944.0,2.0,37,119.69
3159,C5,944.75,0.25,70,119.69
3160,G#4,944.75,0.25,70,119.69
3161,F5,944.75,0.25,70,119.69
3162,G#5,944.75,0.25,70,119.69
3163,C5,945.0,0.75,76,119.69
3164,G#4,945.0,0.75,76,119.69
3165,F5,945.0,0.75,76,119.69
3166,G#5,945.0,0.75,76,119.69
3167,G4,945.75,0.25,71,119.69
3168,B4,945.75,0.25,71,119.69
3169,F5,945.75,0.25,71,119.69
3170,G5,945.75,0.25,71,119.69
3171,D4,946.0,417/1000,37,119.69
3172,G4,946.0,0.75,78,119.69
3173,B4,946.0,0.75,78,119.69
3174,F5,946.0,0.75,78,119.69
3175,G5,946.0,0.75,78,119.69
3176,G4,946.75,0.25,70,119.69
3177,B4,946.75,0.25,70,119.69
3178,D5,946.75,0.25,70,119.69
3179,F5,946.75,0.25,70,119.69
3180,G5,946.75,0.25,70,119.69
3181,G4,947.0,0.75,81,119.69
3182,B4,947.0,0.75,81,119.69
3183,D5,947.0,0.75,81,119.69
3184,F5,947.0,0.75,81,119.69
3185,G5,947.0,0.75,81,119.69
3186,E4,947.75,0.25,73,119.69
3187,G4,947.75,0.25,73,119.69
3188,C5,947.75,0.25,73,119.69
3189,E5,947.75,0.25,73,119.69
3190,E4,948.0,0.75,89,119.69
3191,G4,948.0,0.75,89,119.69
3192,C5,948.0,0.75,89,119.69
3193,E5,948.0,0.75,89,119.69
3194,G2,948.0,2.0,40,119.69
3195,D3,948.0,2.0,40,119.69
3196,C5,948.75,167/1000,76,119.69
3197,E5,948.75,167/1000,76,119.69
3198,G4,948.75,167/1000,76,119.69
3199,G5,948.75,167/1000,76,119.69
3200,G4,949.0,0.188,86,119.69
3201,C5,949.0,0.188,86,119.69
3202,E5,949.0,0.188,86,119.69
3203,G5,949.0,0.188,86,119.69
3204,C6,949.5,0.188,78,119.69
3205,G5,949.5,0.188,78,119.69
3206,E5,949.5,0.188,78,119.69
3207,C5,949.5,0.188,78,119.69
3208,C5,950.0,1.0,91,119.69
3209,F5,950.0,1.0,91,119.69
3210,G#5,950.0,1.0,91,119.69
3211,C3,950.0,417/1000,37,119.69
3212,E3,950.0,417/1000,37,119.69
3213,E4,952.0,0.75,89,119.69
3214,G4,952.0,0.75,89,119.69
3215,C5,952.0,0.75,89,119.69
3216,E5,952.0,0.75,89,119.69
3217,F2,952.0,2.0,41,119.69
3218,C3,952.0,2.0,41,119.69
3219,C5,952.75,167/1000,73,119.69
3220,E5,952.75,167/1000,73,119.69
3221,G4,952.75,167/1000,73,119.69
3222,G5,952.75,167/1000,73,119.69
3223,G4,953.0,0.188,87,119.69
3224,C5,953.0,0.188,87,119.69
3225,E5,953.0,0.188,87,119.69
3226,G5,953.0,0.188,87,119.69
3227,C6,953.5,0.188,80,119.69
3228,G5,953.5,0.188,80,119.69
3229,E5,953.5,0.188,80,119.69
3230,C5,953.5,0.188,80,119.69
3231,C5,954.0,1.0,91,119.69
3232,F5,954.0,1.0,91,119.69
3233,G#5,954.0,1.0,91,119.69
3234,B-2,954.0,417/1000,37,119.69
3235,D3,954.0,417/1000,37,119.69
3236,C6,956.0,0.75,84,119.69
3237,G5,956.0,0.75,84,119.69
3238,E5,956.0,0.75,84,119.69
3239,C5,956.0,0.75,84,119.69
3240,B-2,956.0,0.75,49,119.69
3241,D3,956.0,0.75,49,119.69
3242,C5,956.75,0.25,58,119.69
3243,B-2,956.75,0.25,49,119.69
3244,C#3,956.75,0.25,49,119.69
3245,E3,956.75,0.25,49,119.69
3246,C5,957.0,0.75,70,119.69
3247,B-2,957.0,0.75,53,119.69
3248,C#3,957.0,0.75,53,119.69
3249,E3,957.0,0.75,53,119.69
3250,C5,957.75,0.25,55,119.69
3251,B-2,957.75,0.25,52,119.69
3252,D3,957.75,0.25,52,119.69
3253,F3,957.75,0.25,52,119.69
3254,C6,958.0,0.75,69,119.69
3255,G5,958.0,0.75,69,119.69
3256,E5,958.0,0.75,69,119.69
3257,C5,958.0,0.75,69,119.69
3258,B-2,958.0,0.75,60,119.69
3259,D3,958.0,0.75,60,119.69
3260,F3,958.0,0.75,60,119.69
3261,C5,958.75,0.25,57,119.69
3262,B-2,958.75,0.25,59,119.69
3263,E3,958.75,0.25,59,119.69
3264,G3,958.75,0.25,59,119.69
3265,C5,959.0,0.75,69,119.69
3266,B-2,959.0,0.75,64,119.69
3267,E3,959.0,0.75,64,119.69
3268,G3,959.0,0.75,64,119.69
3269,C5,959.75,0.25,56,119.69
3270,B2,959.75,0.25,60,119.69
3271,F3,959.75,0.25,60,119.69
3272,G#3,959.75,0.25,60,119.69
3273,C5,960.0,0.75,66,119.69
3274,B2,960.0,0.75,68,119.69
3275,F3,960.0,0.75,68,119.69
3276,G#3,960.0,0.75,68,119.69
3277,C#5,960.75,0.25,58,119.69
3278,C2,960.75,0.25,63,119.69
3279,C3,960.75,0.25,63,119.69
3280,C#5,961.0,0.75,64,119.69
3281,C2,961.0,0.75,67,119.69
3282,C3,961.0,0.75,67,119.69
3283,C5,961.75,0.25,51,119.69
3284,D2,961.75,0.25,64,119.69
3285,D3,961.75,0.25,64,119.69
3286,C5,962.0,0.75,63,119.69
3287,D2,962.0,0.75,69,119.69
3288,D3,962.0,0.75,69,119.69
3289,C5,962.75,0.25,53,119.69
3290,G1,962.75,0.25,62,119.69
3291,G2,962.75,0.25,62,119.69
3292,C5,963.0,0.75,62,119.69
3293,G1,963.0,0.75,68,119.69
3294,G2,963.0,0.75,68,119.69
3295,C5,963.75,0.25,49,119.69
3296,C2,963.75,0.25,64,119.69
3297,C3,963.75,0.25,64,119.69
3298,C5,964.0,0.75,60,119.69
3299,C2,964.0,1.0,73,119.69
3300,C3,964.0,1.0,73,119.69
3301,F5,964.75,0.25,49,119.69
3302,F5,965.0,0.75,63,119.69
3303,C5,965.75,0.25,44,119.69
3304,C5,966.0,0.75,56,119.69
3305,C3,966.0,0.75,92,119.69
3306,C4,966.0,0.75,92,119.69
3307,C5,966.75,0.25,42,119.69
3308,G#2,966.75,167/1000,81,119.69
3309,G#3,966.75,167/1000,81,119.69
3310,C5,967.0,0.75,54,119.69
3311,G#2,967.0,0.188,85,119.69
3312,G#3,967.0,0.188,85,119.69
3313,F2,967.5,0.188,80,119.69
3314,F3,967.5,0.188,80,119.69
3315,C5,967.75,0.25,41,119.69
3316,C5,968.0,0.75,53,119.69
3317,C2,968.0,1.0,77,119.69
3318,C3,968.0,1.0,77,119.69
3319,D5,968.75,0.25,39,119.69
3320,D5,969.0,0.75,52,119.69
3321,C5,969.75,0.25,39,119.69
3322,C5,970.0,0.75,50,119.69
3323,C3,970.0,0.75,92,119.69
3324,C4,970.0,0.75,92,119.69
3325,B-5,970.75,0.25,37,119.69
3326,G#2,970.75,167/1000,81,119.69
3327,G#3,970.75,167/1000,81,119.69
3328,B-5,971.0,0.75,47,119.69
3329,G#2,971.0,0.188,85,119.69
3330,G#3,971.0,0.188,85,119.69
3331,F2,971.5,0.188,80,119.69
3332,F3,971.5,0.188,80,119.69
3333,E5,971.75,0.25,35,119.69
3334,F6,972.0,0.75,47,119.69
3335,F5,972.0,0.75,47,119.69
3336,C2,972.0,1.0,70,119.69
3337,C3,972.0,1.0,70,119.69
3338,C6,972.75,167/1000,35,119.69
3339,C6,973.0,667/1000,43,119.69
3340,C6,973.75,167/1000,34,119.69
3341,B5,974.0,667/1000,42,119.69
3342,C6,974.75,167/1000,34,119.69
3343,C6,975.0,667/1000,41,119.69
3344,C6,975.75,167/1000,35,119.69
3345,A5,976.0,667/1000,44,119.69
3346,G4,976.0,4.0,39,119.69
3347,E4,976.0,4.0,39,119.69
3348,B-3,976.0,4.0,39,119.69
3349,C6,976.75,167/1000,34,119.69
3350,A6,977.0,667/1000,42,119.69
3351,G6,977.75,167/1000,34,119.69
3352,G6,978.0,667/1000,41,119.69
3353,A6,978.75,167/1000,35,119.69
3354,A6,979.0,667/1000,41,119.69
3355,F6,979.75,167/1000,37,119.69
3356,E6,980.0,667/1000,48,119.69
3357,F4,980.0,4.0,39,119.69
3358,C4,980.0,4.0,39,119.69
3359,A3,980.0,4.0,39,119.69
3360,D6,980.75,167/1000,33,119.69
3361,D6,981.0,667/1000,43,119.69
3362,D6,981.75,167/1000,35,119.69
3363,C#6,982.0,667/1000,45,119.69
3364,D6,982.75,167/1000,34,119.69
3365,D6,983.0,667/1000,44,119.69
3366,D6,983.75,167/1000,33,119.69
3367,B-5,984.0,0.75,44,119.69
3368,E4,984.0,4.0,35,119.69
3369,G3,984.0,4.0,35,119.69
3370,B-3,984.0,4.0,35,119.69
3371,D6,984.75,0.25,35,119.69
3372,G6,985.0,0.75,43,119.69
3373,F6,985.75,0.25,34,119.69
3374,F6,986.0,0.75,44,119.69
3375,G6,986.75,0.25,34,119.69
3376,G6,987.0,0.75,42,119.69
3377,E6,987.75,0.25,33,119.69
3378,C6,988.0,0.75,47,119.69
3379,F4,988.0,1917/1000,30,119.69
3380,A3,988.0,1917/1000,30,119.69
3381,F3,988.0,1917/1000,30,119.69
3382,C5,988.75,0.25,35,119.69
3383,C5,989.0,0.75,43,119.69
3384,C5,989.75,0.25,36,119.69
3385,B4,990.0,0.75,42,119.69
3386,F3,990.0,1917/1000,29,119.69
3387,A3,990.0,1917/1000,29,119.69
3388,C4,990.0,1917/1000,29,119.69
3389,C5,990.75,0.25,33,119.69
3390,C5,991.0,0.75,41,119.69
3391,C5,991.75,0.25,35,119.69
3392,G#4,992.0,0.75,44,119.69
3393,C5,992.75,0.25,33,119.69
3394,G#5,993.0,0.75,42,119.69
3395,F3,993.0,917/1000,24,119.69
3396,A3,993.0,917/1000,24,119.69
3397,C4,993.0,917/1000,24,119.69
3398,G5,993.75,0.25,31,119.69
3399,G5,994.0,0.75,41,119.69
3400,F3,994.0,917/1000,24,119.69
3401,A3,994.0,917/1000,24,119.69
3402,C4,994.0,917/1000,24,119.69
3403,G#5,994.75,0.25,33,119.69
3404,G#5,995.0,0.75,41,119.69
3405,F3,995.0,917/1000,22,119.69
3406,A3,995.0,917/1000,22,119.69
3407,C4,995.0,917/1000,22,119.69
3408,F5,995.75,0.25,34,119.69
3409,G5,996.0,0.75,48,119.69
3410,D4,996.0,1917/1000,26,119.69
3411,B-3,996.0,1917/1000,26,119.69
3412,F3,996.0,1917/1000,26,119.69
3413,F5,996.75,0.25,39,119.69
3414,F5,997.0,0.75,43,119.69
3415,F5,997.75,0.25,41,119.69
3416,E5,998.0,0.75,45,119.69
3417,F3,998.0,1917/1000,26,119.69
3418,B-3,998.0,1917/1000,26,119.69
3419,D4,998.0,1917/1000,26,119.69
3420,F5,998.75,0.25,41,119.69
3421,F5,999.0,0.75,44,119.69
3422,F5,999.75,0.25,41,119.69
3423,C#5,1000.0,0.75,44,119.69
3424,F5,1000.75,0.25,36,119.69
3425,B-5,1001.0,0.75,43,119.69
3426,E4,1001.0,917/1000,20,119.69
3427,C4,1001.0,917/1000,20,119.69
3428,B-3,1001.0,917/1000,20,119.69
3429,F3,1001.0,917/1000,20,119.69
3430,G#5,1001.75,0.25,35,119.69
3431,G#5,1002.0,0.75,44,119.69
3432,D4,1002.0,917/1000,20,119.69
3433,C4,1002.0,917/1000,20,119.69
3434,B-3,1002.0,917/1000,20,119.69
3435,F3,1002.0,917/1000,20,119.69
3436,B-5,1002.75,0.25,34,119.69
3437,B-5,1003.0,0.75,42,119.69
3438,E4,1003.0,917/1000,20,119.69
3439,C4,1003.0,917/1000,20,119.69
3440,B-3,1003.0,917/1000,20,119.69
3441,F3,1003.0,917/1000,20,119.69
3442,G5,1003.75,0.25,34,119.69
3443,E-5,1004.0,0.75,45,119.69
3444,C4,1004.0,1917/1000,31,119.69
3445,F4,1004.0,1917/1000,31,119.69
3446,A3,1004.0,1917/1000,31,119.69
3447,F3,1004.0,1917/1000,31,119.69
3448,C6,1004.75,0.25,40,119.69
3449,C6,1005.0,0.75,48,119.69
3450,B-5,1005.75,0.25,36,119.69
3451,B-5,1006.0,0.75,46,119.69
3452,F3,1006.0,1917/1000,25,119.69
3453,G#3,1006.0,1917/1000,25,119.69
3454,C4,1006.0,1917/1000,25,119.69
3455,G#5,1006.75,0.25,35,119.69
3456,G#5,1007.0,0.75,44,119.69
3457,F#5,1007.75,0.25,35,119.69
3458,F#5,1008.0,0.75,44,119.69
3459,F5,1008.75,0.25,35,119.69
3460,F5,1009.0,0.75,40,119.69
3461,F3,1009.0,917/1000,24,119.69
3462,G#3,1009.0,917/1000,24,119.69
3463,C4,1009.0,917/1000,24,119.69
3464,F5,1009.75,0.25,35,119.69
3465,E5,1010.0,0.75,40,119.69
3466,F3,1010.0,917/1000,24,119.69
3467,G#3,1010.0,917/1000,24,119.69
3468,C4,1010.0,917/1000,24,119.69
3469,E-5,1010.75,0.25,34,119.69
3470,E-5,1011.0,0.75,40,119.69
3471,F3,1011.0,917/1000,22,119.69
3472,G#3,1011.0,917/1000,22,119.69
3473,C4,1011.0,917/1000,22,119.69
3474,E-5,1011.75,0.25,39,119.69
3475,C#5,1012.0,0.75,45,119.69
3476,F4,1012.0,1917/1000,26,119.69
3477,C#4,1012.0,1917/1000,26,119.69
3478,G#3,1012.0,1917/1000,26,119.69
3479,F3,1012.0,1917/1000,26,119.69
3480,C#6,1012.75,0.25,45,119.69
3481,C#6,1013.0,0.75,48,119.69
3482,C6,1013.75,0.25,38,119.69
3483,C6,1014.0,0.75,46,119.69
3484,G#3,1014.0,1917/1000,26,119.69
3485,C#4,1014.0,1917/1000,26,119.69
3486,F4,1014.0,1917/1000,26,119.69
3487,B-5,1014.75,0.25,38,119.69
3488,B-5,1015.0,0.75,44,119.69
3489,G#5,1015.75,0.25,38,119.69
3490,G#5,1016.0,0.75,44,119.69
3491,G5,1016.75,0.25,35,119.69
3492,G5,1017.0,0.75,40,119.69
3493,G4,1017.0,917/1000,18,119.69
3494,E-4,1017.0,917/1000,18,119.69
3495,C#4,1017.0,917/1000,18,119.69
3496,G#3,1017.0,917/1000,18,119.69
3497,G5,1017.75,0.25,34,119.69
3498,F#5,1018.0,0.75,40,119.69
3499,F4,1018.0,917/1000,20,119.69
3500,E-4,1018.0,917/1000,20,119.69
3501,C#4,1018.0,917/1000,20,119.69
3502,G#3,1018.0,917/1000,20,119.69
3503,F5,1018.75,0.25,36,119.69
3504,F5,1019.0,0.75,40,119.69
3505,G4,1019.0,917/1000,18,119.69
3506,E-4,1019.0,917/1000,18,119.69
3507,C#4,1019.0,917/1000,18,119.69
3508,G#3,1019.0,917/1000,18,119.69
3509,F5,1019.75,0.25,36,119.69
3510,E5,1020.0,0.75,45,119.69
3511,G#3,1020.0,4.0,22,119.69
3512,C4,1020.0,4.0,22,119.69
3513,E-4,1020.0,4.0,22,119.69
3514,G#4,1020.0,4.0,22,119.69
3515,E6,1020.75,0.25,41,119.69
3516,E6,1021.0,0.75,49,119.69
3517,E6,1021.75,0.25,41,119.69
3518,G6,1022.0,0.75,51,119.69
3519,F6,1022.75,0.25,42,119.69
3520,F6,1023.0,0.75,50,119.69
3521,F6,1023.75,0.25,38,119.69
3522,F6,1024.0,0.75,50,119.69
3523,A3,1024.0,4.0,18,119.69
3524,C4,1024.0,4.0,18,119.69
3525,E-4,1024.0,4.0,18,119.69
3526,F4,1024.0,4.0,18,119.69
3527,E6,1024.75,0.25,41,119.69
3528,E6,1025.0,0.75,48,119.69
3529,E6,1025.75,0.25,40,119.69
3530,E6,1026.0,0.75,48,119.69
3531,B5,1026.75,0.25,36,119.69
3532,B5,1027.0,0.75,45,119.69
3533,B5,1027.75,0.25,42,119.69
3534,D6,1028.0,0.75,56,119.69
3535,B-3,1028.0,4.0,22,119.69
3536,C#4,1028.0,4.0,22,119.69
3537,F4,1028.0,4.0,22,119.69
3538,C6,1028.75,0.25,40,119.69
3539,C6,1029.0,0.75,49,119.69
3540,E5,1029.75,0.25,39,119.69
3541,G5,1030.0,0.75,47,119.69
3542,F5,1030.75,0.25,35,119.69
3543,F5,1031.0,0.75,44,119.69
3544,F5,1031.75,0.25,38,119.69
3545,F5,1032.0,0.75,46,119.69
3546,B3,1032.0,4.0,18,119.69
3547,D4,1032.0,4.0,18,119.69
3548,F4,1032.0,4.0,18,119.69
3549,G4,1032.0,4.0,18,119.69
3550,E5,1032.75,0.25,39,119.69
3551,E5,1033.0,0.75,46,119.69
3552,E5,1033.75,0.25,37,119.69
3553,E5,1034.0,0.75,44,119.69
3554,B4,1034.75,0.25,36,119.69
3555,B4,1035.0,0.75,44,119.69
3556,B4,1035.75,0.25,37,119.69
3557,D5,1036.0,0.75,46,119.69
3558,C4,1036.0,2.0,22,119.69
3559,E4,1036.0,2.0,22,119.69
3560,G4,1036.0,2.0,22,119.69
3561,C5,1036.75,0.25,36,119.69
3562,C5,1037.0,0.75,44,119.69
3563,C5,1037.75,0.25,36,119.69
3564,C5,1038.0,0.75,43,119.69
3565,C#4,1038.0,2.0,22,119.69
3566,G4,1038.0,2.0,25,119.69
3567,B-4,1038.0,2.0,25,119.69
3568,E5,1038.75,0.25,39,119.69
3569,E5,1039.0,0.75,47,119.69
3570,E5,1039.75,0.25,38,119.69
3571,E5,1040.0,0.75,47,119.69
3572,G#4,1040.75,0.25,38,119.69
3573,G#4,1041.0,0.75,47,119.69
3574,G#4,1041.75,0.25,37,119.69
3575,G#4,1042.0,0.75,45,119.69
3576,C4,1042.0,2.0,32,119.69
3577,G4,1042.0,2.0,25,119.69
3578,B-4,1042.0,2.0,25,119.69
3579,E5,1042.75,0.25,39,119.69
3580,E5,1043.0,0.75,47,119.69
3581,E5,1043.75,0.25,37,119.69
3582,E5,1044.0,0.75,45,119.69
3583,C4,1044.0,2.0,23,119.69
3584,F4,1044.0,2.0,23,119.69
3585,G#4,1044.0,2.0,23,119.69
3586,A4,1044.75,0.25,32,119.69
3587,A4,1045.0,0.75,40,119.69
3588,A4,1045.75,0.25,32,119.69
3589,A4,1046.0,0.75,39,119.69
3590,G4,1046.0,2.0,24,119.69
3591,E4,1046.0,2.0,24,119.69
3592,C4,1046.0,2.0,24,119.69
3593,E5,1046.75,0.25,34,119.69
3594,E5,1047.0,0.75,39,119.69
3595,E5,1047.75,0.25,34,119.69
3596,E5,1048.0,0.75,41,119.69
3597,C#3,1048.0,2.0,17,119.69
3598,G3,1048.0,2.0,20,119.69
3599,B-3,1048.0,2.0,20,119.69
3600,B4,1048.75,0.25,33,119.69
3601,B4,1049.0,0.75,37,119.69
3602,B4,1049.75,0.25,32,119.69
3603,B4,1050.0,0.75,37,119.69
3604,C3,1050.0,2.0,22,119.69
3605,G3,1050.0,2.0,20,119.69
3606,B-3,1050.0,2.0,20,119.69
3607,F5,1050.75,0.25,29,119.69
3608,F5,1051.0,0.75,34,119.69
3609,F5,1051.75,0.25,30,119.69
3610,G#4,1052.0,2.0,37,119.69
3611,D5,1052.0,2.0,37,119.69
3612,E5,1052.0,2.0,37,119.69
3613,C3,1052.0,2.0,22,119.69
3614,F3,1052.0,2.0,22,119.69
3615,G#3,1052.0,2.0,22,119.69
3616,C3,1054.0,4.0,24,119.69
3617,E3,1054.0,4.0,24,119.69
3618,G3,1054.0,4.0,24,119.69
3619,B3,1058.0,4.0,24,119.69
3620,D4,1058.0,4.0,24,119.69
3621,E4,1058.0,4.0,24,119.69
3622,F4,1058.75,0.25,32,119.69
3623,F4,1059.0,0.75,36,119.69
3624,F4,1059.75,0.25,32,119.69
3625,G#3,1060.0,2.0,36,119.69
3626,D4,1060.0,2.0,36,119.69
3627,E4,1060.0,2.0,36,119.69
3628,A3,1062.0,4.0,22,119.69
3629,D4,1062.0,4.0,22,119.69
3630,E4,1062.0,4.0,22,119.69
3631,G#3,1066.0,4.0,19,119.69
3632,D4,1066.0,4.0,19,119.69
3633,E4,1066.0,4.0,19,119.69
3634,E3,1070.0,2.0,33,119.69
3635,A4,1072.0,2.0,50,119.69
3636,B3,1072.0,2.0,30,119.69
3637,E5,1074.0,2.0,50,119.69
3638,B-3,1074.0,2.0,36,119.69
3639,E-5,1076.0,2.0,53,119.69
3640,B3,1076.0,417/1000,34,119.69
3641,E5,1078.0,417/1000,47,119.69
3642,E2,1078.0,2.0,31,119.69
3643,C5,1079.0,99/125,49,119.69
3644,B4,1079.75,0.25,47,119.69
3645,A4,1080.0,2.0,48,119.69
3646,B4,1080.0,21/500,47,119.69
3647,B2,1080.0,2.0,33,119.69
3648,B-2,1082.0,2.0,38,119.69
3649,E4,1082.0,2.0,58,119.69
3650,G#3,1082.0,2.0,58,119.69
3651,B3,1082.0,2.0,58,119.69
3652,C4,1084.0,2.0,52,119.69
3653,B2,1084.0,417/1000,35,119.69
3654,A3,1086.0,0.375,51,119.69
3655,A3,1088.0,2.0,50,119.69
3656,A3,1090.0,2.0,42,119.69
3657,F4,1090.0,2.0,60,119.69
3658,A3,1090.0,2.0,60,119.69
3659,E4,1092.0,2.0,42,119.69
3660,B-3,1092.0,2.0,67,119.69
3661,G4,1092.0,2.0,67,119.69
3662,E-4,1094.0,2.0,44,119.69
3663,A3,1094.0,417/1000,54,119.69
3664,F4,1094.0,417/1000,54,119.69
3665,A3,1095.0,99/125,51,119.69
3666,B3,1095.75,0.25,54,119.69
3667,C4,1096.0,2.0,52,119.69
3668,B3,1096.0,21/500,54,119.69
3669,E4,1096.0,417/1000,38,119.69
3670,C4,1097.0,99/125,39,119.69
3671,B3,1097.75,0.25,39,119.69
3672,A3,1098.0,2.0,38,119.69
3673,B3,1098.0,21/500,39,119.69
3674,G#3,1098.0,2.0,60,119.69
3675,B3,1098.0,2.0,60,119.69
3676,E4,1098.0,2.0,60,119.69
3677,C4,1100.0,2.0,50,119.69
3678,E3,1100.0,2.0,52,119.69
3679,A3,1102.0,417/1000,50,119.69
3680,C3,1102.0,2.0,47,119.69
3681,A2,1104.0,0.375,39,119.69
3682,A3,1104.0,2.0,46,119.69
3683,D4,1104.0,2.0,46,119.69
3684,A4,1104.0,2.0,46,119.69
3685,F4,1104.0,2.0,46,119.69
3686,A3,1106.0,0.25,37,119.69
3687,A2,1106.0,2.0,42,119.69
3688,D2,1108.0,2.0,49,119.69
3689,C4,1108.0,2.0,47,119.69
3690,A4,1108.0,2.0,47,119.69
3691,E4,1108.0,2.0,47,119.69
3692,A3,1108.0,2.0,47,119.69
3693,A3,1110.0,0.25,40,119.69
3694,C#2,1110.0,2.0,52,119.69
3695,D2,1112.0,417/1000,42,119.69
3696,D4,1112.0,2.0,47,119.69
3697,A4,1112.0,2.0,47,119.69
3698,F4,1112.0,2.0,47,119.69
3699,A3,1112.0,2.0,47,119.69
3700,A1,1113.0,99/125,44,119.69
3701,A2,1113.0,99/125,44,119.69
3702,B2,1113.75,0.25,45,119.69
3703,B1,1113.75,0.25,45,119.69
3704,A3,1114.0,0.25,39,119.69
3705,C2,1114.0,2.0,45,119.69
3706,C3,1114.0,2.0,45,119.69
3707,B2,1114.0,21/500,45,119.69
3708,B1,1114.0,21/500,45,119.69
3709,A4,1116.0,2.0,45,119.69
3710,A3,1116.0,2.0,45,119.69
3711,C4,1116.0,2.0,45,119.69
3712,E3,1116.0,2.0,55,119.69
3713,E2,1116.0,2.0,55,119.69
3714,A3,1118.0,0.25,39,119.69
3715,C3,1118.0,2.0,45,119.69
3716,C2,1118.0,2.0,45,119.69
3717,D4,1120.0,2.0,47,119.69
3718,A4,1120.0,2.0,47,119.69
3719,A3,1120.0,2.0,47,119.69
3720,A2,1120.0,417/1000,46,119.69
3721,A1,1120.0,417/1000,46,119.69
3722,A3,1122.0,0.25,40,119.69
3723,C4,1124.0,2.0,45,119.69
3724,A3,1124.0,2.0,45,119.69
3725,A4,1124.0,2.0,45,119.69
3726,A3,1126.0,0.25,37,119.69
3727,F5,1128.0,2.0,69,119.69
3728,A5,1128.0,2.0,69,119.69
3729,D5,1128.0,2.0,69,119.69
3730,A4,1128.0,2.0,69,119.69
3731,A2,1129.0,1.0,46,119.69
3732,A4,1130.0,0.375,56,119.69
3733,A2,1130.0,1.0,46,119.69
3734,D3,1131.0,1.0,41,119.69
3735,E3,1132.0,1.0,44,119.69
3736,C5,1132.0,2.0,70,119.69
3737,A5,1132.0,2.0,70,119.69
3738,A4,1132.0,2.0,70,119.69
3739,F3,1133.0,1.0,42,119.69
3740,A4,1134.0,0.25,54,119.69
3741,E3,1134.0,2.0,45,119.69
3742,A2,1136.0,0.25,41,119.69
3743,B4,1136.0,2.0,74,119.69
3744,E5,1136.0,2.0,74,119.69
3745,G5,1136.0,2.0,74,119.69
3746,G3,1137.0,1.0,51,119.69
3747,G4,1138.0,0.375,73,119.69
3748,F3,1138.0,2.0,46,119.69
3749,A2,1140.0,0.25,43,119.69
3750,E-5,1140.0,1833/1000,82,119.69
3751,F#4,1140.0,1833/1000,82,119.69
3752,F#5,1140.0,1833/1000,82,119.69
3753,F3,1141.0,1.0,40,119.69
3754,E3,1142.0,2.0,45,119.69
3755,B4,1142.0,1833/1000,76,119.69
3756,B5,1142.0,1833/1000,76,119.69
3757,E-5,1142.0,1833/1000,76,119.69
3758,A2,1144.0,0.25,43,119.69
3759,G4,1144.0,2.0,73,119.69
3760,G5,1144.0,2.0,73,119.69
3761,A1,1145.0,1.0,56,119.69
3762,A2,1145.0,1.0,56,119.69
3763,E4,1146.0,417/1000,60,119.69
3764,E5,1146.0,417/1000,60,119.69
3765,A1,1146.0,1.0,56,119.69
3766,A2,1146.0,1.0,56,119.69
3767,D2,1147.0,1.0,52,119.69
3768,D3,1147.0,1.0,52,119.69
3769,F#4,1148.0,1833/1000,38,119.69
3770,F#3,1148.0,1833/1000,38,119.69
3771,E-4,1148.0,1833/1000,38,119.69
3772,E3,1148.0,1.0,56,119.69
3773,E2,1148.0,1.0,56,119.69
3774,F2,1149.0,1.0,52,119.69
3775,F3,1149.0,1.0,52,119.69
3776,B3,1150.0,1833/1000,36,119.69
3777,E-4,1150.0,1833/1000,36,119.69
3778,B4,1150.0,1833/1000,36,119.69
3779,E2,1150.0,2.0,56,119.69
3780,E3,1150.0,2.0,56,119.69
3781,G4,1152.0,2.0,37,119.69
3782,G3,1152.0,2.0,37,119.69
3783,A1,1152.0,0.25,53,119.69
3784,A2,1152.0,0.25,53,119.69
3785,E2,1153.0,1.0,62,119.69
3786,E3,1153.0,1.0,62,119.69
3787,E3,1154.0,417/1000,31,119.69
3788,E4,1154.0,417/1000,31,119.69
3789,E2,1154.0,1.0,62,119.69
3790,E3,1154.0,1.0,62,119.69
3791,G2,1155.0,1.0,68,119.69
3792,G3,1155.0,1.0,68,119.69
3793,G3,1156.0,2.0,37,119.69
3794,G4,1156.0,2.0,37,119.69
3795,A2,1156.0,1.0,74,119.69
3796,A3,1156.0,1.0,74,119.69
3797,B3,1157.0,1.0,72,119.69
3798,B2,1157.0,1.0,72,119.69
3799,E3,1158.0,0.25,33,119.69
3800,E4,1158.0,0.25,33,119.69
3801,B2,1158.0,1833/1000,85,119.69
3802,B3,1158.0,1833/1000,85,119.69
3803,F4,1160.0,2.0,48,119.69
3804,F3,1160.0,2.0,48,119.69
3805,B3,1160.0,1833/1000,70,119.69
3806,B2,1160.0,1833/1000,70,119.69
3807,D3,1162.0,0.25,42,119.69
3808,D4,1162.0,0.25,42,119.69
3809,G3,1162.0,2.0,58,119.69
3810,G2,1162.0,2.0,58,119.69
3811,E3,1164.0,2.0,57,119.69
3812,E4,1164.0,2.0,57,119.69
3813,E3,1164.0,417/1000,47,119.69
3814,E2,1164.0,417/1000,47,119.69
3815,C3,1166.0,0.25,52,119.69
3816,C4,1166.0,0.25,52,119.69
3817,B1,1166.0,1833/1000,32,119.69
3818,B2,1166.0,1833/1000,32,119.69
3819,D4,1168.0,2.0,76,119.69
3820,D3,1168.0,2.0,76,119.69
3821,B2,1168.0,1833/1000,30,119.69
3822,B1,1168.0,1833/1000,30,119.69
3823,B2,1170.0,0.25,67,119.69
3824,B3,1170.0,0.25,67,119.69
3825,G1,1170.0,2.0,29,119.69
3826,G2,1170.0,2.0,29,119.69
3827,A3,1172.0,2.0,101,119.69
3828,A4,1172.0,2.0,101,119.69
3829,E1,1172.0,417/1000,28,119.69
3830,E2,1172.0,417/1000,28,119.69
3831,E2,1174.0,573/250,30,119.69
3832,E4,1174.0,2.0,93,119.69
3833,E5,1174.0,2.0,93,119.69
3834,E-5,1176.0,2.0,89,119.69
3835,E-4,1176.0,2.0,89,119.69
3836,F2,1176.25,73/250,30,119.69
3837,E2,1176.5,73/250,26,119.69
3838,F2,1176.75,73/250,30,119.69
3839,E2,1177.0,73/250,24,119.69
3840,F2,1177.25,73/250,30,119.69
3841,E2,1177.5,73/250,25,119.69
3842,F2,1177.75,0.25,30,119.69
3843,E2,1178.0,73/250,31,119.69
3844,F2,1178.0,21/500,30,119.69
3845,E5,1178.0,0.5,75,119.69
3846,E4,1178.0,0.5,75,119.69
3847,F2,1178.25,73/250,28,119.69
3848,E2,1178.5,73/250,31,119.69
3849,F2,1178.75,73/250,31,119.69
3850,E2,1179.0,73/250,34,119.69
3851,C3,1179.0,667/1000,68,119.69
3852,E3,1179.0,667/1000,68,119.69
3853,F2,1179.25,73/250,30,119.69
3854,E2,1179.5,73/250,34,119.69
3855,F2,1179.75,73/250,29,119.69
3856,G#3,1179.75,26/125,61,119.69
3857,D3,1179.75,26/125,61,119.69
3858,E2,1180.0,73/250,34,119.69
3859,E3,1180.0,667/1000,64,119.69
3860,A3,1180.0,667/1000,64,119.69
3861,F2,1180.25,73/250,28,119.69
3862,E2,1180.5,73/250,34,119.69
3863,F2,1180.75,73/250,29,119.69
3864,B3,1180.75,26/125,63,119.69
3865,F3,1180.75,26/125,63,119.69
3866,E2,1181.0,73/250,34,119.69
3867,G3,1181.0,667/1000,65,119.69
3868,C4,1181.0,667/1000,65,119.69
3869,F2,1181.25,73/250,29,119.69
3870,E2,1181.5,73/250,34,119.69
3871,F2,1181.75,0.25,30,119.69
3872,A3,1181.75,26/125,67,119.69
3873,D4,1181.75,26/125,67,119.69
3874,E2,1182.0,73/250,39,119.69
3875,F2,1182.0,21/500,30,119.69
3876,G3,1182.0,667/1000,70,119.69
3877,C4,1182.0,667/1000,70,119.69
3878,F2,1182.25,73/250,33,119.69
3879,E2,1182.5,73/250,39,119.69
3880,F2,1182.75,73/250,33,119.69
3881,D4,1182.75,26/125,61,119.69
3882,A3,1182.75,26/125,61,119.69
3883,E2,1183.0,73/250,39,119.69
3884,B3,1183.0,667/1000,70,119.69
3885,E4,1183.0,667/1000,70,119.69
3886,F2,1183.25,73/250,33,119.69
3887,E2,1183.5,73/250,40,119.69
3888,F2,1183.75,73/250,35,119.69
3889,F4,1183.75,26/125,62,119.69
3890,C4,1183.75,26/125,62,119.69
3891,E2,1184.0,73/250,40,119.69
3892,B3,1184.0,667/1000,71,119.69
3893,E4,1184.0,667/1000,71,119.69
3894,F2,1184.25,73/250,35,119.69
3895,E2,1184.5,73/250,41,119.69
3896,F2,1184.75,73/250,34,119.69
3897,A3,1184.75,26/125,65,119.69
3898,D4,1184.75,26/125,65,119.69
3899,E2,1185.0,73/250,41,119.69
3900,G3,1185.0,667/1000,73,119.69
3901,C4,1185.0,667/1000,73,119.69
3902,F2,1185.25,73/250,36,119.69
3903,E2,1185.5,73/250,42,119.69
3904,F2,1185.75,0.25,37,119.69
3905,F3,1185.75,26/125,65,119.69
3906,B3,1185.75,26/125,65,119.69
3907,E2,1186.0,73/250,47,119.69
3908,F2,1186.0,21/500,37,119.69
3909,A3,1186.0,667/1000,73,119.69
3910,E3,1186.0,667/1000,73,119.69
3911,F2,1186.25,73/250,39,119.69
3912,E2,1186.5,73/250,47,119.69
3913,F2,1186.75,73/250,39,119.69
3914,G#3,1186.75,26/125,70,119.69
3915,E3,1186.75,26/125,70,119.69
3916,E2,1187.0,73/250,48,119.69
3917,E3,1187.0,0.25,75,119.69
3918,A3,1187.0,0.25,75,119.69
3919,F2,1187.25,73/250,40,119.69
3920,E2,1187.5,73/250,48,119.69
3921,F2,1187.75,73/250,42,119.69
3922,E2,1188.0,73/250,49,119.69
3923,A3,1188.0,2.0,100,119.69
3924,A4,1188.0,2.0,100,119.69
3925,F2,1188.25,73/250,43,119.69
3926,E2,1188.5,73/250,54,119.69
3927,F2,1188.75,73/250,48,119.69
3928,E2,1189.0,73/250,62,119.69
3929,F2,1189.25,73/250,63,119.69
3930,E2,1189.5,73/250,71,119.69
3931,G#2,1189.75,0.25,79,119.69
3932,G#2,1190.0,21/500,79,119.69
3933,F5,1190.0,2.0,93,119.69
3934,A4,1190.0,2.0,93,119.69
3935,A5,1190.0,2.0,93,119.69
3936,A2,1190.0,2.0,78,119.69
3937,A1,1190.0,2.0,78,119.69
3938,A4,1192.0,2.5,98,119.69
3939,G5,1192.0,2.0,98,119.69
3940,B-5,1192.0,2.0,98,119.69
3941,E2,1192.0,2.0,77,119.69
3942,E3,1192.0,2.0,77,119.69
3943,F5,1194.0,0.5,89,119.69
3944,A5,1194.0,0.5,89,119.69
3945,E-3,1194.0,2.0,75,119.69
3946,E-2,1194.0,2.0,75,119.69
3947,F3,1195.0,667/1000,67,119.69
3948,A3,1195.0,667/1000,67,119.69
3949,G3,1195.75,26/125,62,119.69
3950,C#4,1195.75,26/125,62,119.69
3951,D4,1196.0,667/1000,66,119.69
3952,A3,1196.0,667/1000,66,119.69
3953,E3,1196.0,0.5,71,119.69
3954,E2,1196.0,0.5,71,119.69
3955,B-3,1196.75,26/125,64,119.69
3956,E4,1196.75,26/125,64,119.69
3957,F4,1197.0,667/1000,67,119.69
3958,C4,1197.0,667/1000,67,119.69
3959,A1,1197.0,667/1000,37,119.69
3960,A2,1197.0,667/1000,37,119.69
3961,D4,1197.75,26/125,64,119.69
3962,G4,1197.75,26/125,64,119.69
3963,B1,1197.75,26/125,35,119.69
3964,B2,1197.75,26/125,35,119.69
3965,C4,1198.0,667/1000,68,119.69
3966,F4,1198.0,667/1000,68,119.69
3967,C2,1198.0,667/1000,39,119.69
3968,C3,1198.0,667/1000,39,119.69
3969,D4,1198.75,26/125,61,119.69
3970,G4,1198.75,26/125,61,119.69
3971,D3,1198.75,26/125,36,119.69
3972,D2,1198.75,26/125,36,119.69
3973,A4,1199.0,667/1000,71,119.69
3974,E4,1199.0,667/1000,71,119.69
3975,E3,1199.0,667/1000,41,119.69
3976,E2,1199.0,667/1000,41,119.69
3977,F4,1199.75,26/125,62,119.69
3978,B-4,1199.75,26/125,62,119.69
3979,F3,1199.75,26/125,38,119.69
3980,F2,1199.75,26/125,38,119.69
3981,A4,1200.0,667/1000,72,119.69
3982,E4,1200.0,667/1000,72,119.69
3983,E2,1200.0,667/1000,45,119.69
3984,E3,1200.0,667/1000,45,119.69
3985,D4,1200.75,26/125,65,119.69
3986,G4,1200.75,26/125,65,119.69
3987,F2,1200.75,26/125,39,119.69
3988,F3,1200.75,26/125,39,119.69
3989,C4,1201.0,667/1000,74,119.69
3990,F4,1201.0,667/1000,74,119.69
3991,G2,1201.0,667/1000,44,119.69
3992,G3,1201.0,667/1000,44,119.69
3993,B-3,1201.75,26/125,65,119.69
3994,E4,1201.75,26/125,65,119.69
3995,A2,1201.75,26/125,40,119.69
3996,A3,1201.75,26/125,40,119.69
3997,A3,1202.0,667/1000,75,119.69
3998,D4,1202.0,667/1000,75,119.69
3999,G3,1202.0,667/1000,46,119.69
4000,G2,1202.0,667/1000,46,119.69
4001,A3,1202.75,26/125,70,119.69
4002,C#4,1202.75,26/125,70,119.69
4003,F2,1202.75,26/125,44,119.69
4004,F3,1202.75,26/125,44,119.69
4005,D4,1203.0,0.25,75,119.69
4006,A3,1203.0,0.25,75,119.69
4007,E3,1203.0,667/1000,46,119.69
4008,E2,1203.0,667/1000,46,119.69
4009,D3,1203.75,26/125,44,119.69
4010,D2,1203.75,26/125,44,119.69
4011,C2,1204.0,667/1000,50,119.69
4012,C3,1204.0,667/1000,50,119.69
4013,B1,1204.75,26/125,46,119.69
4014,B2,1204.75,26/125,46,119.69
4015,C3,1205.0,0.25,51,119.69
4016,C2,1205.0,0.25,51,119.69
4017,A2,1206.0,2.0,85,119.69
4018,A2,1208.0,2.0,74,119.69
4019,D2,1208.0,2.0,74,119.69
4020,C#2,1210.0,2.0,71,119.69
4021,A2,1210.0,2.5,71,119.69
4022,D4,1211.0,124/125,82,119.69
4023,D5,1211.0,1.0,92,119.69
4024,D5,1212.0,1.0,92,119.69
4025,D2,1212.0,0.5,71,119.69
4026,G5,1213.0,1.0,86,119.69
4027,G4,1213.0,1.0,86,119.69
4028,D2,1213.0,667/1000,44,119.69
4029,D3,1213.0,667/1000,44,119.69
4030,E3,1213.75,26/125,37,119.69
4031,E2,1213.75,26/125,37,119.69
4032,A4,1214.0,1.0,88,119.69
4033,A5,1214.0,1.0,88,119.69
4034,F3,1214.0,667/1000,42,119.69
4035,F2,1214.0,667/1000,42,119.69
4036,G3,1214.75,26/125,40,119.69
4037,G2,1214.75,26/125,40,119.69
4038,B-4,1215.0,1.0,86,119.69
4039,B-5,1215.0,1.0,86,119.69
4040,A2,1215.0,667/1000,43,119.69
4041,A3,1215.0,667/1000,43,119.69
4042,B-2,1215.75,26/125,42,119.69
4043,B-3,1215.75,26/125,42,119.69
4044,A4,1216.0,2.0,87,119.69
4045,A5,1216.0,2.0,87,119.69
4046,A3,1216.0,667/1000,45,119.69
4047,A2,1216.0,667/1000,45,119.69
4048,B-2,1216.75,26/125,39,119.69
4049,B-3,1216.75,26/125,39,119.69
4050,C3,1217.0,667/1000,44,119.69
4051,C4,1217.0,667/1000,44,119.69
4052,D4,1217.75,26/125,40,119.69
4053,D3,1217.75,26/125,40,119.69
4054,D5,1218.0,0.375,80,119.69
4055,D4,1218.0,0.375,80,119.69
4056,C3,1218.0,667/1000,46,119.69
4057,C4,1218.0,667/1000,46,119.69
4058,B-2,1218.75,26/125,44,119.69
4059,B-3,1218.75,26/125,44,119.69
4060,C5,1219.0,1.0,89,119.69
4061,C6,1219.0,1.0,89,119.69
4062,A2,1219.0,667/1000,46,119.69
4063,A3,1219.0,667/1000,46,119.69
4064,G3,1219.75,26/125,44,119.69
4065,G2,1219.75,26/125,44,119.69
4066,B-5,1220.0,2.0,91,119.69
4067,B-4,1220.0,2.0,91,119.69
4068,F3,1220.0,667/1000,50,119.69
4069,F2,1220.0,667/1000,50,119.69
4070,E3,1220.75,26/125,46,119.69
4071,E2,1220.75,26/125,46,119.69
4072,F2,1221.0,0.25,51,119.69
4073,F3,1221.0,0.25,51,119.69
4074,D5,1222.0,0.375,86,119.69
4075,D4,1222.0,0.375,86,119.69
4076,D3,1222.0,2.0,94,119.69
4077,G3,1222.0,2.0,94,119.69
4078,D4,1222.0,2.0,94,119.69
4079,B-3,1222.0,2.0,94,119.69
4080,B-4,1223.0,1.0,90,119.69
4081,B-5,1223.0,1.0,90,119.69
4082,A5,1224.0,2.0,86,119.69
4083,A4,1224.0,2.0,86,119.69
4084,D3,1224.0,0.375,76,119.69
4085,D2,1224.0,0.375,76,119.69
4086,D4,1226.0,0.375,78,119.69
4087,D5,1226.0,0.375,78,119.69
4088,D3,1226.0,2.0,95,119.69
4089,F3,1226.0,2.0,95,119.69
4090,A3,1226.0,2.0,95,119.69
4091,D4,1226.0,2.0,95,119.69
4092,D4,1227.0,1.0,91,119.69
4093,D5,1227.0,1.0,91,119.69
4094,D4,1228.0,1.0,91,119.69
4095,D5,1228.0,1.0,91,119.69
4096,D2,1228.0,0.375,76,119.69
4097,D3,1228.0,0.375,76,119.69
4098,G4,1229.0,1.0,89,119.69
4099,G5,1229.0,1.0,89,119.69
4100,B-5,1230.0,1.0,100,119.69
4101,B-4,1230.0,1.0,100,119.69
4102,D3,1230.0,2.0,82,119.69
4103,G3,1230.0,2.0,82,119.69
4104,B-3,1230.0,2.0,82,119.69
4105,D4,1230.0,2.0,82,119.69
4106,D5,1231.0,1.0,98,119.69
4107,D6,1231.0,1.0,98,119.69
4108,E-6,1232.0,2.0,104,119.69
4109,E-5,1232.0,2.0,104,119.69
4110,D3,1232.0,0.375,64,119.69
4111,D2,1232.0,0.375,64,119.69
4112,G4,1234.0,0.375,78,119.69
4113,G5,1234.0,0.375,78,119.69
4114,D3,1234.0,1979/1000,76,119.69
4115,F3,1234.0,1979/1000,76,119.69
4116,A3,1234.0,1979/1000,76,119.69
4117,D4,1234.0,1979/1000,76,119.69
4118,E-5,1235.0,1.0,100,119.69
4119,E-6,1235.0,1.0,100,119.69
4120,D5,1236.0,2.0,100,119.69
4121,D6,1236.0,2.0,100,119.69
4122,D3,1236.0,0.375,69,119.69
4123,D2,1236.0,0.375,69,119.69
4124,G4,1238.0,0.375,78,119.69
4125,G5,1238.0,0.375,78,119.69
4126,D3,1238.0,1979/1000,76,119.69
4127,G3,1238.0,1979/1000,76,119.69
4128,B-3,1238.0,1979/1000,76,119.69
4129,D4,1238.0,1979/1000,76,119.69
4130,D5,1239.0,1.0,92,119.69
4131,D6,1239.0,1.0,92,119.69
4132,D5,1240.0,1.0,92,119.69
4133,D6,1240.0,1.0,92,119.69
4134,D2,1240.0,0.375,69,119.69
4135,D3,1240.0,0.375,69,119.69
4136,F5,1241.0,1.0,90,119.69
4137,F6,1241.0,1.0,90,119.69
4138,G6,1242.0,1.0,98,119.69
4139,G5,1242.0,1.0,98,119.69
4140,D3,1242.0,2.0,78,119.69
4141,A3,1242.0,2.0,78,119.69
4142,D4,1242.0,2.0,78,119.69
4143,F3,1242.0,2.0,78,119.69
4144,A6,1243.0,1.0,95,119.69
4145,A5,1243.0,1.0,95,119.69
4146,A5,1244.0,1917/1000,104,119.69
4147,A6,1244.0,1917/1000,104,119.69
4148,D2,1244.0,0.375,68,119.69
4149,D3,1244.0,0.375,68,119.69
4150,G4,1246.0,979/1000,88,119.69
4151,A6,1246.0,1917/1000,100,119.69
4152,A5,1246.0,1917/1000,100,119.69
4153,G3,1246.0,2.0,82,119.69
4154,D4,1246.0,2.0,82,119.69
4155,B-3,1246.0,2.0,82,119.69
4156,F6,1248.0,2.0,84,119.69
4157,F5,1248.0,2.0,84,119.69
4158,G2,1248.0,0.375,69,119.69
4159,G3,1248.0,0.375,69,119.69
4160,G4,1250.0,979/1000,83,119.69
4161,D6,1250.0,417/1000,76,119.69
4162,D5,1250.0,417/1000,76,119.69
4163,C4,1250.0,2.0,77,119.69
4164,G3,1250.0,2.0,77,119.69
4165,E-4,1250.0,2.0,77,119.69
4166,A4,1252.0,1917/1000,52,119.69
4167,A5,1252.0,1917/1000,52,119.69
4168,G3,1252.0,0.375,69,119.69
4169,G2,1252.0,0.375,69,119.69
4170,G4,1254.0,979/1000,82,119.69
4171,A5,1254.0,1917/1000,52,119.69
4172,A4,1254.0,1917/1000,52,119.69
4173,B-3,1254.0,2.0,76,119.69
4174,G3,1254.0,2.0,76,119.69
4175,D4,1254.0,2.0,76,119.69
4176,F4,1256.0,2.0,49,119.69
4177,F5,1256.0,2.0,49,119.69
4178,G2,1256.0,0.375,68,119.69
4179,G3,1256.0,0.375,68,119.69
4180,D5,1258.0,417/1000,45,119.69
4181,D4,1258.0,417/1000,45,119.69
4182,F3,1258.0,2.0,78,119.69
4183,D4,1258.0,2.0,78,119.69
4184,A3,1258.0,2.0,78,119.69
4185,F4,1258.0,2.0,78,119.69
4186,E-4,1260.0,2.0,37,119.69
4187,E-5,1260.0,2.0,37,119.69
4188,F3,1260.0,0.375,70,119.69
4189,F2,1260.0,0.375,70,119.69
4190,C5,1262.0,417/1000,27,119.69
4191,C4,1262.0,417/1000,27,119.69
4192,E3,1262.0,1917/1000,82,119.69
4193,C#4,1262.0,1917/1000,82,119.69
4194,E4,1262.0,1917/1000,82,119.69
4195,E-4,1264.0,2.0,34,119.69
4196,E-5,1264.0,2.0,34,119.69
4197,C#4,1264.0,1917/1000,78,119.69
4198,A4,1264.0,1917/1000,78,119.69
4199,A3,1264.0,1917/1000,78,119.69
4200,C5,1266.0,417/1000,27,119.69
4201,C4,1266.0,417/1000,27,119.69
4202,F4,1266.0,2.0,78,119.69
4203,F3,1266.0,2.0,78,119.69
4204,A4,1268.0,2.375,34,119.69
4205,E-5,1268.0,2.0,34,119.69
4206,D4,1268.0,417/1000,69,119.69
4207,D3,1268.0,417/1000,69,119.69
4208,C5,1270.0,417/1000,27,119.69
4209,E2,1270.0,1917/1000,44,119.69
4210,C#3,1270.0,1917/1000,44,119.69
4211,E3,1270.0,1917/1000,44,119.69
4212,A4,1272.0,2.375,34,119.69
4213,E-5,1272.0,2.0,34,119.69
4214,A3,1272.0,1917/1000,40,119.69
4215,A2,1272.0,1917/1000,40,119.69
4216,C#3,1272.0,1917/1000,40,119.69
4217,C5,1274.0,417/1000,27,119.69
4218,F3,1274.0,2.0,40,119.69
4219,F2,1274.0,2.0,40,119.69
4220,E5,1276.0,2.0,34,119.69
4221,A4,1276.0,2.375,34,119.69
4222,D3,1276.0,417/1000,40,119.69
4223,D2,1276.0,417/1000,40,119.69
4224,C#5,1278.0,417/1000,27,119.69
4225,E-3,1278.0,2.0,34,119.69
4226,E-2,1278.0,2.0,34,119.69
4227,G#4,1280.0,2.375,34,119.69
4228,E5,1280.0,2.0,34,119.69
4229,C2,1280.0,417/1000,26,119.69
4230,C3,1280.0,417/1000,26,119.69
4231,B4,1282.0,417/1000,27,119.69
4232,E-2,1282.0,2.0,33,119.69
4233,E-3,1282.0,2.0,33,119.69
4234,C#5,1284.0,583/1000,34,119.69
4235,C#4,1284.0,583/1000,34,119.69
4236,C3,1284.0,417/1000,24,119.69
4237,C2,1284.0,417/1000,24,119.69
4238,C#4,1284.667,583/1000,29,119.69
4239,C#5,1284.667,583/1000,29,119.69
4240,C#5,1285.333,583/1000,29,119.69
4241,C#4,1285.333,583/1000,29,119.69
4242,C4,1286.0,2.0,33,119.69
4243,F#3,1286.0,2.375,33,119.69
4244,C#4,1286.0,1.75,25,119.69
4245,C#5,1286.0,1.75,25,119.69
4246,E-4,1288.0,417/1000,24,119.69
4247,C#4,1288.0,979/1000,39,119.69
4248,A4,1288.0,979/1000,39,119.69
4249,C#4,1289.0,979/1000,34,119.69
4250,C#5,1289.0,979/1000,34,119.69
4251,F3,1290.0,2.375,33,119.69
4252,C4,1290.0,2.0,33,119.69
4253,B4,1290.0,979/1000,38,119.69
4254,C#4,1290.0,979/1000,38,119.69
4255,C#4,1291.0,979/1000,35,119.69
4256,C#5,1291.0,979/1000,35,119.69
4257,E-4,1292.0,417/1000,24,119.69
4258,F#4,1292.0,583/1000,39,119.69
4259,D4,1292.0,583/1000,39,119.69
4260,D4,1292.667,583/1000,30,119.69
4261,F#4,1292.667,583/1000,30,119.69
4262,D4,1293.333,583/1000,30,119.69
4263,F#4,1293.333,583/1000,30,119.69
4264,E3,1294.0,2.375,33,119.69
4265,C#4,1294.0,2.0,33,119.69
4266,D4,1294.0,1.75,25,119.69
4267,F#4,1294.0,1.75,25,119.69
4268,E4,1296.0,417/1000,24,119.69
4269,D4,1296.0,979/1000,38,119.69
4270,F#4,1296.0,979/1000,38,119.69
4271,E4,1297.0,979/1000,31,119.69
4272,B4,1297.0,979/1000,31,119.69
4273,D4,1297.0,979/1000,31,119.69
4274,D4,1298.0,2.0,33,119.69
4275,E3,1298.0,2.375,33,119.69
4276,E4,1298.0,979/1000,37,119.69
4277,D4,1298.0,979/1000,37,119.69
4278,A4,1298.0,979/1000,37,119.69
4279,B4,1299.0,979/1000,29,119.69
4280,D4,1299.0,979/1000,29,119.69
4281,E4,1299.0,979/1000,29,119.69
4282,E4,1300.0,417/1000,24,119.69
4283,E4,1300.0,583/1000,36,119.69
4284,C#4,1300.0,583/1000,36,119.69
4285,C#4,1300.667,583/1000,29,119.69
4286,E4,1300.667,583/1000,29,119.69
4287,E4,1301.333,583/1000,29,119.69
4288,C#4,1301.333,583/1000,29,119.69
4289,C#4,1302.0,1.75,26,119.69
4290,A4,1302.0,1.75,26,119.69
4291,A2,1302.0,583/1000,20,119.69
4292,E3,1302.0,583/1000,20,119.69
4293,E3,1302.667,583/1000,16,119.69
4294,A2,1302.667,583/1000,16,119.69
4295,E3,1303.333,583/1000,16,119.69
4296,A2,1303.333,583/1000,16,119.69
4297,C#4,1304.0,979/1000,50,119.69
4298,A4,1304.0,979/1000,50,119.69
4299,A2,1304.0,1.75,16,119.69
4300,E3,1304.0,1.75,16,119.69
4301,C#4,1305.0,979/1000,40,119.69
4302,C#5,1305.0,979/1000,40,119.69
4303,C#4,1306.0,979/1000,42,119.69
4304,B4,1306.0,979/1000,42,119.69
4305,A2,1306.0,979/1000,20,119.69
4306,E3,1306.0,979/1000,20,119.69
4307,C#4,1307.0,979/1000,42,119.69
4308,C#5,1307.0,979/1000,42,119.69
4309,E3,1307.0,979/1000,16,119.69
4310,A2,1307.0,979/1000,16,119.69
4311,A4,1308.0,583/1000,48,119.69
4312,D4,1308.0,583/1000,48,119.69
4313,D5,1308.0,583/1000,48,119.69
4314,A2,1308.0,979/1000,19,119.69
4315,E3,1308.0,979/1000,19,119.69
4316,D4,1308.667,583/1000,40,119.69
4317,D5,1308.667,583/1000,40,119.69
4318,A4,1308.667,583/1000,40,119.69
4319,E3,1309.0,979/1000,15,119.69
4320,A2,1309.0,979/1000,15,119.69
4321,D5,1309.333,583/1000,40,119.69
4322,A4,1309.333,583/1000,40,119.69
4323,D4,1309.333,583/1000,40,119.69
4324,D4,1310.0,1.75,36,119.69
4325,A4,1310.0,1.75,36,119.69
4326,D5,1310.0,1.75,36,119.69
4327,A2,1310.0,583/1000,23,119.69
4328,F#3,1310.0,583/1000,23,119.69
4329,F#3,1310.667,583/1000,19,119.69
4330,A2,1310.667,583/1000,19,119.69
4331,A2,1311.333,583/1000,17,119.69
4332,F#3,1311.333,583/1000,17,119.69
4333,D5,1312.0,583/1000,42,119.69
4334,F#4,1312.0,583/1000,42,119.69
4335,F#5,1312.0,583/1000,42,119.69
4336,A2,1312.0,1.75,15,119.69
4337,F#3,1312.0,1.75,15,119.69
4338,F#4,1312.667,583/1000,38,119.69
4339,F#5,1312.667,583/1000,38,119.69
4340,D5,1312.667,583/1000,38,119.69
4341,D5,1313.333,583/1000,38,119.69
4342,F#4,1313.333,583/1000,38,119.69
4343,F#5,1313.333,583/1000,38,119.69
4344,F#4,1314.0,979/1000,42,119.69
4345,F#5,1314.0,1917/1000,42,119.69
4346,D5,1314.0,1917/1000,42,119.69
4347,F#3,1314.0,979/1000,20,119.69
4348,A2,1314.0,979/1000,20,119.69
4349,G#3,1315.0,979/1000,15,119.69
4350,A2,1315.0,979/1000,15,119.69
4351,A4,1316.0,583/1000,40,119.69
4352,C#5,1316.0,583/1000,40,119.69
4353,A5,1316.0,583/1000,40,119.69
4354,A2,1316.0,979/1000,19,119.69
4355,F#3,1316.0,979/1000,19,119.69
4356,A5,1316.667,583/1000,36,119.69
4357,C#5,1316.667,583/1000,36,119.69
4358,A4,1316.667,583/1000,36,119.69
4359,A2,1317.0,979/1000,15,119.69
4360,G#3,1317.0,979/1000,15,119.69
4361,C#5,1317.333,583/1000,36,119.69
4362,A4,1317.333,583/1000,36,119.69
4363,A5,1317.333,583/1000,36,119.69
4364,A4,1318.0,1.75,24,119.69
4365,A5,1318.0,1.75,24,119.69
4366,C#5,1318.0,1.75,24,119.69
4367,A3,1318.0,583/1000,23,119.69
4368,A2,1318.0,583/1000,23,119.69
4369,A2,1318.667,583/1000,18,119.69
4370,A3,1318.667,583/1000,18,119.69
4371,A2,1319.333,583/1000,17,119.69
4372,A3,1319.333,583/1000,17,119.69
4373,G#4,1320.0,979/1000,45,119.69
4374,D5,1320.0,979/1000,45,119.69
4375,B5,1320.0,979/1000,45,119.69
4376,E3,1320.0,1.75,15,119.69
4377,A2,1320.0,1.75,15,119.69
4378,G#5,1321.0,979/1000,36,119.69
4379,D5,1321.0,979/1000,36,119.69
4380,B4,1321.0,979/1000,36,119.69
4381,B4,1322.0,979/1000,41,119.69
4382,E5,1322.0,979/1000,41,119.69
4383,A2,1322.0,979/1000,23,119.69
4384,E3,1322.0,979/1000,23,119.69
4385,A4,1323.0,979/1000,34,119.69
4386,D5,1323.0,979/1000,34,119.69
4387,E3,1323.0,979/1000,18,119.69
4388,A2,1323.0,979/1000,18,119.69
4389,C#5,1324.0,583/1000,35,119.69
4390,A4,1324.0,583/1000,35,119.69
4391,E3,1324.0,979/1000,26,119.69
4392,A2,1324.0,979/1000,26,119.69
4393,A4,1324.667,583/1000,27,119.69
4394,C#5,1324.667,583/1000,27,119.69
4395,A2,1325.0,979/1000,22,119.69
4396,E3,1325.0,979/1000,22,119.69
4397,C#5,1325.333,583/1000,26,119.69
4398,A4,1325.333,583/1000,26,119.69
4399,A4,1326.0,1.75,21,119.69
4400,C#5,1326.0,1.75,21,119.69
4401,F#3,1326.0,583/1000,31,119.69
4402,A2,1326.0,583/1000,31,119.69
4403,A2,1326.667,583/1000,23,119.69
4404,F#3,1326.667,583/1000,23,119.69
4405,A2,1327.333,583/1000,22,119.69
4406,F#3,1327.333,583/1000,22,119.69
4407,G#4,1328.0,979/1000,44,119.69
4408,D5,1328.0,979/1000,44,119.69
4409,B5,1328.0,979/1000,44,119.69
4410,F#3,1328.0,1.75,17,119.69
4411,A2,1328.0,1.75,17,119.69
4412,G#5,1329.0,979/1000,33,119.69
4413,B4,1329.0,979/1000,33,119.69
4414,D5,1329.0,979/1000,33,119.69
4415,A2,1330.0,4.0,56,119.69
4416,F#3,1330.0,1.0,56,119.69
4417,B4,1330.0,979/1000,38,119.69
4418,E5,1330.0,979/1000,38,119.69
4419,A3,1331.0,1.0,53,119.69
4420,D5,1331.0,979/1000,33,119.69
4421,A4,1331.0,979/1000,33,119.69
4422,D4,1332.0,1.0,56,119.69
4423,C#5,1332.0,583/1000,35,119.69
4424,A4,1332.0,583/1000,35,119.69
4425,A4,1332.667,583/1000,31,119.69
4426,C#5,1332.667,583/1000,31,119.69
4427,F#4,1333.0,1.0,58,119.69
4428,C#5,1333.333,583/1000,28,119.69
4429,A4,1333.333,583/1000,28,119.69
4430,A4,1334.0,1.75,21,119.69
4431,C#5,1334.0,1.75,21,119.69
4432,A3,1334.0,583/1000,26,119.69
4433,E4,1334.0,583/1000,26,119.69
4434,E4,1334.667,583/1000,22,119.69
4435,A3,1334.667,583/1000,22,119.69
4436,E4,1335.333,583/1000,22,119.69
4437,A3,1335.333,583/1000,22,119.69
4438,A4,1336.0,979/1000,35,119.69
4439,A3,1336.0,1.75,17,119.69
4440,E4,1336.0,1.75,17,119.69
4441,C#5,1337.0,979/1000,28,119.69
4442,A4,1337.0,979/1000,28,119.69
4443,A4,1338.0,979/1000,32,119.69
4444,B4,1338.0,979/1000,32,119.69
4445,A3,1338.0,979/1000,24,119.69
4446,E4,1338.0,979/1000,24,119.69
4447,A4,1339.0,979/1000,30,119.69
4448,C#5,1339.0,979/1000,30,119.69
4449,E4,1339.0,979/1000,19,119.69
4450,A3,1339.0,979/1000,19,119.69
4451,A4,1340.0,583/1000,34,119.69
4452,E5,1340.0,583/1000,34,119.69
4453,A3,1340.0,979/1000,22,119.69
4454,G#4,1340.0,979/1000,22,119.69
4455,E5,1340.667,583/1000,30,119.69
4456,A4,1340.667,583/1000,30,119.69
4457,A3,1341.0,979/1000,19,119.69
4458,F#4,1341.0,979/1000,19,119.69
4459,A4,1341.333,583/1000,29,119.69
4460,E5,1341.333,583/1000,29,119.69
4461,E-5,1342.0,0.5,21,119.69
4462,A4,1342.0,0.5,21,119.69
4463,A3,1342.0,583/1000,24,119.69
4464,E4,1342.0,583/1000,24,119.69
4465,A3,1342.667,583/1000,19,119.69
4466,E4,1342.667,583/1000,19,119.69
4467,A3,1343.333,583/1000,19,119.69
4468,E4,1343.333,583/1000,19,119.69
4469,E6,1344.0,583/1000,37,119.69
4470,A6,1344.0,583/1000,37,119.69
4471,A5,1344.0,583/1000,37,119.69
4472,A3,1344.0,1.75,15,119.69
4473,E4,1344.0,1.75,15,119.69
4474,A6,1344.667,583/1000,31,119.69
4475,A5,1344.667,583/1000,31,119.69
4476,E6,1344.667,583/1000,31,119.69
4477,A6,1345.333,583/1000,30,119.69
4478,E6,1345.333,583/1000,30,119.69
4479,A5,1345.333,583/1000,30,119.69
4480,D6,1346.0,917/1000,24,119.69
4481,A6,1346.0,917/1000,24,119.69
4482,A5,1346.0,917/1000,24,119.69
4483,E4,1346.0,979/1000,24,119.69
4484,A3,1346.0,979/1000,24,119.69
4485,E4,1347.0,979/1000,18,119.69
4486,A3,1347.0,979/1000,18,119.69
4487,A4,1348.0,583/1000,34,119.69
4488,D5,1348.0,583/1000,34,119.69
4489,G#4,1348.0,979/1000,22,119.69
4490,A3,1348.0,979/1000,22,119.69
4491,A4,1348.667,583/1000,29,119.69
4492,D5,1348.667,583/1000,29,119.69
4493,A3,1349.0,979/1000,19,119.69
4494,F#4,1349.0,979/1000,19,119.69
4495,A4,1349.333,583/1000,29,119.69
4496,D5,1349.333,583/1000,29,119.69
4497,C#5,1350.0,917/1000,27,119.69
4498,A4,1350.0,917/1000,27,119.69
4499,E4,1350.0,583/1000,29,119.69
4500,A3,1350.0,583/1000,29,119.69
4501,A3,1350.667,583/1000,26,119.69
4502,E4,1350.667,583/1000,26,119.69
4503,A3,1351.333,583/1000,22,119.69
4504,E4,1351.333,583/1000,22,119.69
4505,A6,1352.0,583/1000,37,119.69
4506,D6,1352.0,583/1000,37,119.69
4507,A5,1352.0,583/1000,37,119.69
4508,E4,1352.0,1.75,15,119.69
4509,A3,1352.0,1.75,15,119.69
4510,A5,1352.667,583/1000,33,119.69
4511,D6,1352.667,583/1000,33,119.69
4512,A6,1352.667,583/1000,33,119.69
4513,A6,1353.333,583/1000,30,119.69
4514,D6,1353.333,583/1000,30,119.69
4515,A5,1353.333,583/1000,30,119.69
4516,A6,1354.0,917/1000,27,119.69
4517,A5,1354.0,917/1000,27,119.69
4518,C6,1354.0,917/1000,27,119.69
4519,A3,1354.0,979/1000,25,119.69
4520,C#4,1354.0,979/1000,25,119.69
4521,E4,1355.0,979/1000,23,119.69
4522,A3,1355.0,979/1000,23,119.69
4523,B3,1356.0,583/1000,85,119.69
4524,B4,1356.0,583/1000,85,119.69
4525,A4,1356.0,583/1000,85,119.69
4526,F4,1356.0,583/1000,85,119.69
4527,D4,1356.0,979/1000,25,119.69
4528,A3,1356.0,979/1000,25,119.69
4529,F4,1356.667,583/1000,79,119.69
4530,B4,1356.667,583/1000,79,119.69
4531,A4,1356.667,583/1000,79,119.69
4532,B3,1356.667,583/1000,79,119.69
4533,A3,1357.0,979/1000,24,119.69
4534,E4,1357.0,979/1000,24,119.69
4535,A4,1357.333,583/1000,73,119.69
4536,B4,1357.333,583/1000,73,119.69
4537,F4,1357.333,583/1000,73,119.69
4538,B3,1357.333,583/1000,73,119.69
4539,B3,1358.0,917/1000,57,119.69
4540,B4,1358.0,917/1000,57,119.69
4541,A4,1358.0,917/1000,57,119.69
4542,F4,1358.0,917/1000,57,119.69
4543,F#4,1358.0,583/1000,25,119.69
4544,A3,1358.0,583/1000,25,119.69
4545,A3,1358.667,583/1000,20,119.69
4546,F#4,1358.667,583/1000,20,119.69
4547,A3,1359.333,583/1000,20,119.69
4548,F#4,1359.333,583/1000,20,119.69
4549,F#5,1360.0,979/1000,49,119.69
4550,A5,1360.0,979/1000,49,119.69
4551,B5,1360.0,979/1000,49,119.69
4552,F#4,1360.0,0.5,15,119.69
4553,A3,1360.0,0.5,15,119.69
4554,C#6,1361.0,979/1000,40,119.69
4555,E5,1361.0,979/1000,40,119.69
4556,A5,1361.0,979/1000,40,119.69
4557,D5,1362.0,979/1000,45,119.69
4558,A5,1362.0,979/1000,45,119.69
4559,D6,1362.0,979/1000,45,119.69
4560,A4,1362.0,583/1000,22,119.69
4561,F5,1362.0,583/1000,22,119.69
4562,F5,1362.667,583/1000,19,119.69
4563,A4,1362.667,583/1000,19,119.69
4564,C#6,1363.0,979/1000,40,119.69
4565,E5,1363.0,979/1000,40,119.69
4566,A5,1363.0,979/1000,40,119.69
4567,A4,1363.333,583/1000,19,119.69
4568,F5,1363.333,583/1000,19,119.69
4569,E6,1364.0,583/1000,50,119.69
4570,A5,1364.0,583/1000,50,119.69
4571,E5,1364.0,583/1000,50,119.69
4572,A4,1364.0,917/1000,8,119.69
4573,F5,1364.0,917/1000,8,119.69
4574,E5,1364.667,583/1000,42,119.69
4575,E6,1364.667,583/1000,42,119.69
4576,A5,1364.667,583/1000,42,119.69
4577,E6,1365.333,583/1000,41,119.69
4578,A5,1365.333,583/1000,41,119.69
4579,E5,1365.333,583/1000,41,119.69
4580,G#5,1366.0,917/1000,25,119.69
4581,E6,1366.0,917/1000,25,119.69
4582,E5,1366.0,917/1000,25,119.69
4583,E4,1366.0,583/1000,25,119.69
4584,A3,1366.0,583/1000,25,119.69
4585,E4,1366.667,583/1000,20,119.69
4586,A3,1366.667,583/1000,20,119.69
4587,E4,1367.333,583/1000,22,119.69
4588,A3,1367.333,583/1000,22,119.69
4589,A4,1368.0,583/1000,37,119.69
4590,C#5,1368.0,583/1000,37,119.69
4591,A3,1368.0,917/1000,12,119.69
4592,E4,1368.0,917/1000,12,119.69
4593,C#5,1368.667,583/1000,30,119.69
4594,A4,1368.667,583/1000,30,119.69
4595,A4,1369.333,583/1000,29,119.69
4596,C#5,1369.333,583/1000,29,119.69
4597,A4,1370.0,917/1000,23,119.69
4598,C#5,1370.0,917/1000,23,119.69
4599,E5,1370.0,583/1000,22,119.69
4600,A4,1370.0,583/1000,22,119.69
4601,A4,1370.667,583/1000,19,119.69
4602,E5,1370.667,583/1000,19,119.69
4603,E5,1371.333,583/1000,20,119.69
4604,A4,1371.333,583/1000,20,119.69
4605,A4,1372.0,583/1000,85,119.69
4606,B4,1372.0,583/1000,85,119.69
4607,F4,1372.0,583/1000,85,119.69
4608,B3,1372.0,583/1000,85,119.69
4609,A4,1372.0,917/1000,13,119.69
4610,E5,1372.0,917/1000,13,119.69
4611,B3,1372.667,583/1000,79,119.69
4612,F4,1372.667,583/1000,79,119.69
4613,B4,1372.667,583/1000,79,119.69
4614,A4,1372.667,583/1000,79,119.69
4615,B3,1373.333,583/1000,72,119.69
4616,F4,1373.333,583/1000,72,119.69
4617,A4,1373.333,583/1000,72,119.69
4618,B4,1373.333,583/1000,72,119.69
4619,B4,1374.0,917/1000,56,119.69
4620,A4,1374.0,917/1000,56,119.69
4621,F4,1374.0,917/1000,56,119.69
4622,B3,1374.0,917/1000,56,119.69
4623,D2,1374.0,583/1000,59,119.69
4624,D3,1374.0,583/1000,59,119.69
4625,D3,1374.667,583/1000,53,119.69
4626,D2,1374.667,583/1000,53,119.69
4627,D2,1375.333,583/1000,49,119.69
4628,D3,1375.333,583/1000,49,119.69
4629,F#5,1376.0,979/1000,49,119.69
4630,B5,1376.0,979/1000,49,119.69
4631,A5,1376.0,979/1000,49,119.69
4632,D2,1376.0,917/1000,34,119.69
4633,D3,1376.0,917/1000,34,119.69
4634,A5,1377.0,979/1000,44,119.69
4635,E5,1377.0,979/1000,44,119.69
4636,C#6,1377.0,979/1000,44,119.69
4637,D6,1378.0,979/1000,47,119.69
4638,D5,1378.0,979/1000,47,119.69
4639,A5,1378.0,979/1000,47,119.69
4640,A4,1378.0,979/1000,39,119.69
4641,B4,1378.0,979/1000,39,119.69
4642,D4,1378.0,979/1000,39,119.69
4643,A5,1379.0,979/1000,42,119.69
4644,E5,1379.0,979/1000,42,119.69
4645,C#6,1379.0,979/1000,42,119.69
4646,A4,1379.0,979/1000,34,119.69
4647,C#5,1379.0,979/1000,34,119.69
4648,E4,1379.0,979/1000,34,119.69
4649,E6,1380.0,583/1000,50,119.69
4650,E5,1380.0,583/1000,50,119.69
4651,A5,1380.0,583/1000,50,119.69
4652,A4,1380.0,979/1000,37,119.69
4653,F#4,1380.0,979/1000,37,119.69
4654,E6,1380.667,583/1000,47,119.69
4655,A5,1380.667,583/1000,47,119.69
4656,E5,1380.667,583/1000,47,119.69
4657,E4,1381.0,979/1000,36,119.69
4658,C#5,1381.0,979/1000,36,119.69
4659,A4,1381.0,979/1000,36,119.69
4660,E5,1381.333,583/1000,47,119.69
4661,A5,1381.333,583/1000,47,119.69
4662,E6,1381.333,583/1000,47,119.69
4663,E6,1382.0,917/1000,29,119.69
4664,E5,1382.0,917/1000,29,119.69
4665,G#5,1382.0,917/1000,29,119.69
4666,E4,1382.0,583/1000,36,119.69
4667,B4,1382.0,583/1000,36,119.69
4668,D5,1382.0,583/1000,36,119.69
4669,E4,1382.667,583/1000,34,119.69
4670,B4,1382.667,583/1000,34,119.69
4671,D5,1382.667,583/1000,34,119.69
4672,E4,1383.333,583/1000,29,119.69
4673,B4,1383.333,583/1000,29,119.69
4674,D5,1383.333,583/1000,29,119.69
4675,A4,1384.0,583/1000,100,119.69
4676,A3,1384.0,583/1000,100,119.69
4677,D5,1384.0,917/1000,15,119.69
4678,B4,1384.0,917/1000,15,119.69
4679,E4,1384.0,917/1000,15,119.69
4680,A3,1384.667,583/1000,92,119.69
4681,A4,1384.667,583/1000,92,119.69
4682,A3,1385.333,583/1000,82,119.69
4683,A4,1385.333,583/1000,82,119.69
4684,A3,1386.0,917/1000,73,119.69
4685,A4,1386.0,917/1000,73,119.69
4686,E4,1386.0,583/1000,27,119.69
4687,A3,1386.0,583/1000,27,119.69
4688,E4,1386.667,583/1000,24,119.69
4689,A3,1386.667,583/1000,24,119.69
4690,E4,1387.333,583/1000,24,119.69
4691,A3,1387.333,583/1000,24,119.69
4692,E4,1388.0,979/1000,36,119.69
4693,C#4,1388.0,979/1000,36,119.69
4694,A3,1388.0,917/1000,20,119.69
4695,E4,1388.0,917/1000,20,119.69
4696,C#4,1389.0,979/1000,30,119.69
4697,C#5,1389.0,979/1000,30,119.69
4698,B4,1390.0,979/1000,37,119.69
4699,C#4,1390.0,979/1000,37,119.69
4700,D3,1390.0,583/1000,63,119.69
4701,D2,1390.0,583/1000,63,119.69
4702,D2,1390.667,583/1000,55,119.69
4703,D3,1390.667,583/1000,55,119.69
4704,C#4,1391.0,979/1000,30,119.69
4705,C#5,1391.0,979/1000,30,119.69
4706,D2,1391.333,583/1000,51,119.69
4707,D3,1391.333,583/1000,51,119.69
4708,C#5,1392.0,1917/1000,34,119.69
4709,F4,1392.0,1917/1000,34,119.69
4710,E5,1392.0,1917/1000,34,119.69
4711,D2,1392.0,917/1000,35,119.69
4712,D3,1392.0,917/1000,35,119.69
4713,F4,1394.0,0.5,23,119.69
4714,B4,1394.0,0.5,23,119.69
4715,D5,1394.0,0.5,23,119.69
4716,D4,1394.0,979/1000,39,119.69
4717,B4,1394.0,979/1000,39,119.69
4718,A4,1394.0,979/1000,39,119.69
4719,C#5,1395.0,979/1000,36,119.69
4720,A4,1395.0,979/1000,36,119.69
4721,E4,1395.0,979/1000,36,119.69
4722,E5,1396.0,1917/1000,36,119.69
4723,E4,1396.0,1917/1000,36,119.69
4724,C#5,1396.0,1917/1000,36,119.69
4725,F#4,1396.0,979/1000,39,119.69
4726,A4,1396.0,979/1000,39,119.69
4727,E4,1397.0,979/1000,36,119.69
4728,A4,1397.0,979/1000,36,119.69
4729,C#5,1397.0,979/1000,36,119.69
4730,E4,1398.0,0.5,22,119.69
4731,B4,1398.0,0.5,22,119.69
4732,D5,1398.0,0.5,22,119.69
4733,B4,1398.0,583/1000,36,119.69
4734,D5,1398.0,583/1000,36,119.69
4735,E4,1398.0,583/1000,36,119.69
4736,E4,1398.667,583/1000,33,119.69
4737,B4,1398.667,583/1000,33,119.69
4738,D5,1398.667,583/1000,33,119.69
4739,B4,1399.333,583/1000,33,119.69
4740,D5,1399.333,583/1000,33,119.69
4741,E4,1399.333,583/1000,33,119.69
4742,A5,1400.0,583/1000,100,119.69
4743,A4,1400.0,583/1000,100,119.69
4744,E4,1400.0,917/1000,17,119.69
4745,D5,1400.0,917/1000,17,119.69
4746,B4,1400.0,917/1000,17,119.69
4747,A4,1400.667,583/1000,94,119.69
4748,A5,1400.667,583/1000,94,119.69
4749,A4,1401.333,583/1000,89,119.69
4750,A5,1401.333,583/1000,89,119.69
4751,A4,1402.0,917/1000,70,119.69
4752,A5,1402.0,917/1000,70,119.69
4753,A2,1402.0,583/1000,78,119.69
4754,A1,1402.0,583/1000,78,119.69
4755,A2,1402.667,583/1000,70,119.69
4756,A1,1402.667,583/1000,70,119.69
4757,A2,1403.333,583/1000,63,119.69
4758,A1,1403.333,583/1000,63,119.69
4759,C#4,1404.0,979/1000,38,119.69
4760,E4,1404.0,979/1000,38,119.69
4761,A1,1404.0,917/1000,54,119.69
4762,A2,1404.0,917/1000,54,119.69
4763,C#4,1405.0,979/1000,31,119.69
4764,C#5,1405.0,979/1000,31,119.69
4765,B4,1406.0,979/1000,42,119.69
4766,C#4,1406.0,979/1000,42,119.69
4767,E3,1406.0,979/1000,22,119.69
4768,A2,1406.0,979/1000,22,119.69
4769,C#5,1407.0,979/1000,38,119.69
4770,C#4,1407.0,979/1000,38,119.69
4771,E3,1407.0,979/1000,17,119.69
4772,A2,1407.0,979/1000,17,119.69
4773,F#4,1408.0,1917/1000,42,119.69
4774,D5,1408.0,1917/1000,42,119.69
4775,F#5,1408.0,1917/1000,42,119.69
4776,E3,1408.0,979/1000,20,119.69
4777,A2,1408.0,979/1000,20,119.69
4778,A2,1409.0,979/1000,16,119.69
4779,E3,1409.0,979/1000,16,119.69
4780,B4,1410.0,0.75,22,119.69
4781,F#4,1410.0,0.75,22,119.69
4782,D5,1410.0,0.75,22,119.69
4783,A2,1410.0,1917/1000,16,119.69
4784,F3,1410.0,1917/1000,16,119.69
4785,C#5,1412.0,1917/1000,39,119.69
4786,E4,1412.0,1917/1000,39,119.69
4787,E5,1412.0,1917/1000,39,119.69
4788,A2,1412.0,0.5,8,119.69
4789,F3,1412.0,0.5,8,119.69
4790,B4,1414.0,0.75,25,119.69
4791,E4,1414.0,0.75,25,119.69
4792,D5,1414.0,0.75,25,119.69
4793,G#3,1414.0,1917/1000,23,119.69
4794,A2,1414.0,1917/1000,23,119.69
4795,B4,1416.0,1917/1000,37,119.69
4796,D5,1416.0,1917/1000,37,119.69
4797,E4,1416.0,1917/1000,37,119.69
4798,G#3,1416.0,0.5,9,119.69
4799,A2,1416.0,0.5,9,119.69
4800,E4,1418.0,0.75,24,119.69
4801,A4,1418.0,0.75,24,119.69
4802,C5,1418.0,0.75,24,119.69
4803,A2,1418.0,583/1000,78,119.69
4804,A1,1418.0,583/1000,78,119.69
4805,A2,1418.667,583/1000,72,119.69
4806,A1,1418.667,583/1000,72,119.69
4807,A2,1419.333,583/1000,70,119.69
4808,A1,1419.333,583/1000,70,119.69
4809,C5,1420.0,1917/1000,38,119.69
4810,D4,1420.0,1917/1000,38,119.69
4811,F4,1420.0,1917/1000,38,119.69
4812,A2,1420.0,917/1000,54,119.69
4813,A1,1420.0,917/1000,54,119.69
4814,D4,1422.0,0.75,24,119.69
4815,F4,1422.0,0.75,24,119.69
4816,B-4,1422.0,0.75,24,119.69
4817,E3,1422.0,979/1000,25,119.69
4818,A2,1422.0,979/1000,25,119.69
4819,A2,1423.0,979/1000,18,119.69
4820,E3,1423.0,979/1000,18,119.69
4821,C4,1424.0,2.0,35,119.69
4822,B-4,1424.0,1917/1000,38,119.69
4823,E4,1424.0,1917/1000,38,119.69
4824,E3,1424.0,979/1000,27,119.69
4825,A2,1424.0,979/1000,27,119.69
4826,A2,1425.0,979/1000,22,119.69
4827,E3,1425.0,979/1000,22,119.69
4828,E4,1426.0,2.0,39,119.69
4829,A4,1426.0,0.75,22,119.69
4830,C4,1426.0,0.75,22,119.69
4831,D3,1426.0,1917/1000,28,119.69
4832,A2,1426.0,1917/1000,28,119.69
4833,E-4,1428.0,2.0,37,119.69
4834,A2,1428.0,0.75,14,119.69
4835,F#3,1428.0,0.75,14,119.69
4836,E4,1430.0,0.75,35,119.69
4837,A2,1430.0,1917/1000,25,119.69
4838,E3,1430.0,1917/1000,25,119.69
4839,A2,1432.0,0.75,16,119.69
4840,G#3,1432.0,0.75,16,119.69
4841,A2,1434.0,1917/1000,25,119.69
4842,A3,1434.0,1917/1000,25,119.69
4843,B3,1436.0,2.0,41,119.69
4844,A4,1436.0,1917/1000,29,119.69
4845,E4,1436.0,1917/1000,29,119.69
4846,A2,1436.0,0.75,8,119.69
4847,A3,1436.0,0.75,8,119.69
4848,E4,1438.0,2.0,39,119.69
4849,B3,1438.0,917/1000,25,119.69
4850,G#4,1438.0,917/1000,25,119.69
4851,F3,1438.0,1917/1000,25,119.69
4852,D3,1438.0,1917/1000,25,119.69
4853,E-4,1440.0,2.0,37,119.69
4854,D3,1440.0,0.75,12,119.69
4855,F3,1440.0,0.75,12,119.69
4856,E4,1442.0,0.75,35,119.69
4857,E2,1442.0,1917/1000,24,119.69
4858,C3,1442.0,2.0,24,119.69
4859,E2,1444.0,0.75,14,119.69
4860,E3,1444.0,2.0,29,119.69
4861,E-3,1446.0,2.0,34,119.69
4862,E3,1448.0,0.75,33,119.69
4863,A3,1448.0,4.0,28,119.69
4864,E-4,1448.0,4.0,28,119.69
4865,F#4,1448.0,4.0,28,119.69
4866,A3,1453.0,1.0,28,119.69
4867,E-4,1453.0,1.0,28,119.69
4868,F#4,1453.0,1.0,28,119.69
4869,E2,1454.0,1917/1000,19,119.69
4870,B2,1454.0,2.0,33,119.69
4871,E3,1456.0,2.0,35,119.69
4872,E2,1456.0,917/1000,16,119.69
4873,F#4,1457.0,4.0,28,119.69
4874,E-4,1457.0,4.0,28,119.69
4875,A3,1457.0,4.0,28,119.69
4876,E-3,1458.0,2.0,35,119.69
4877,E3,1460.0,0.75,34,119.69
4878,F#4,1462.0,1.0,28,119.69
4879,E-4,1462.0,1.0,28,119.69
4880,A3,1462.0,1.0,28,119.69
4881,E-4,1466.0,2.0,34,119.69
4882,E-5,1466.0,2.0,34,119.69
4883,E-3,1466.0,4.0,22,119.69
4884,F#3,1466.0,4.0,22,119.69
4885,A2,1466.0,4.0,22,119.69
4886,C4,1468.0,0.375,25,119.69
4887,C5,1468.0,0.375,25,119.69
4888,E-5,1470.0,2.0,31,119.69
4889,E-4,1470.0,2.0,31,119.69
4890,E-3,1471.0,1.0,22,119.69
4891,F#3,1471.0,1.0,22,119.69
4892,A2,1471.0,1.0,22,119.69
4893,C4,1472.0,0.375,25,119.69
4894,C5,1472.0,0.375,25,119.69
4895,E-5,1474.0,1.0,36,119.69
4896,E-4,1474.0,1.0,36,119.69
4897,C4,1475.0,0.375,34,119.69
4898,C5,1475.0,0.375,34,119.69
4899,A2,1475.0,4.0,20,119.69
4900,F#3,1475.0,4.0,20,119.69
4901,E-3,1475.0,4.0,20,119.69
4902,E-4,1476.0,1.0,46,119.69
4903,E-5,1476.0,1.0,46,119.69
4904,C4,1477.0,0.375,40,119.69
4905,C5,1477.0,0.375,40,119.69
4906,E-4,1478.0,1.0,59,119.69
4907,E-5,1478.0,1.0,59,119.69
4908,C5,1479.0,0.375,57,119.69
4909,C4,1479.0,0.375,57,119.69
4910,E-4,1480.0,1.0,71,119.69
4911,E-5,1480.0,1.0,71,119.69
4912,A2,1480.0,1.0,20,119.69
4913,F#3,1480.0,1.0,20,119.69
4914,E-3,1480.0,1.0,20,119.69
4915,C5,1481.0,0.375,66,119.69
4916,C4,1481.0,0.375,66,119.69
4917,E4,1482.0,0.25,92,119.69
4918,E5,1482.25,0.25,82,119.69
4919,E4,1482.5,0.25,78,119.69
4920,E5,1482.75,0.25,74,119.69
4921,E4,1483.0,0.25,69,119.69
4922,E5,1483.25,0.25,66,119.69
4923,E4,1483.5,0.25,62,119.69
4924,E5,1483.75,0.25,60,119.69
4925,E4,1484.0,0.25,70,119.69
4926,E-2,1484.0,2.0,31,119.69
4927,E-3,1484.0,2.0,31,119.69
4928,E5,1484.25,0.25,67,119.69
4929,E4,1484.5,0.25,65,119.69
4930,E5,1484.75,0.25,62,119.69
4931,E4,1485.0,0.25,70,119.69
4932,E5,1485.25,0.25,67,119.69
4933,E4,1485.5,0.25,64,119.69
4934,E5,1485.75,0.25,61,119.69
4935,C#4,1486.0,0.25,96,119.69
4936,C3,1486.0,0.375,24,119.69
4937,C2,1486.0,0.375,24,119.69
4938,C#5,1486.25,0.25,84,119.69
4939,C#4,1486.5,0.25,79,119.69
4940,C#5,1486.75,0.25,74,119.69
4941,C#4,1487.0,0.25,69,119.69
4942,C#5,1487.25,0.25,65,119.69
4943,C#4,1487.5,0.25,62,119.69
4944,C#5,1487.75,0.25,55,119.69
4945,C#4,1488.0,0.25,73,119.69
4946,E-2,1488.0,2.0,30,119.69
4947,E-3,1488.0,2.0,30,119.69
4948,C#5,1488.25,0.25,69,119.69
4949,C#4,1488.5,0.25,66,119.69
4950,C#5,1488.75,0.25,56,119.69
4951,C#4,1489.0,0.25,72,119.69
4952,C#5,1489.25,0.25,69,119.69
4953,C#4,1489.5,0.25,66,119.69
4954,C#5,1489.75,0.25,63,119.69
4955,E5,1490.0,1.0,102,119.69
4956,E6,1490.0,1.0,102,119.69
4957,C2,1490.0,0.375,22,119.69
4958,C3,1490.0,0.375,22,119.69
4959,C#5,1491.0,0.375,94,119.69
4960,C#6,1491.0,0.375,94,119.69
4961,E6,1492.0,1.0,101,119.69
4962,E5,1492.0,1.0,101,119.69
4963,E-3,1492.0,1.0,30,119.69
4964,E-2,1492.0,1.0,30,119.69
4965,A6,1493.0,0.375,94,119.69
4966,A5,1493.0,0.375,94,119.69
4967,C3,1493.0,0.375,23,119.69
4968,C2,1493.0,0.375,23,119.69
4969,E5,1494.0,1.0,93,119.69
4970,E6,1494.0,1.0,93,119.69
4971,E-3,1494.0,1.0,39,119.69
4972,E-2,1494.0,1.0,39,119.69
4973,C#5,1495.0,0.375,86,119.69
4974,C#6,1495.0,0.375,86,119.69
4975,C2,1495.0,0.375,30,119.69
4976,C3,1495.0,0.375,30,119.69
4977,A5,1496.0,1.0,78,119.69
4978,A4,1496.0,1.0,78,119.69
4979,E-3,1496.0,1.0,52,119.69
4980,E-2,1496.0,1.0,52,119.69
4981,E5,1497.0,0.375,68,119.69
4982,E4,1497.0,0.375,68,119.69
4983,C2,1497.0,0.375,50,119.69
4984,C3,1497.0,0.375,50,119.69
4985,C#4,1498.0,4.0,34,119.69
4986,A4,1498.0,4.0,34,119.69
4987,C#5,1498.0,4.0,34,119.69
4988,E-2,1498.0,1.0,66,119.69
4989,E-3,1498.0,1.0,66,119.69
4990,C3,1499.0,0.375,58,119.69
4991,C2,1499.0,0.375,58,119.69
4992,E2,1500.0,0.25,72,119.69
4993,E3,1500.25,0.25,41,119.69
4994,E2,1500.5,0.25,53,119.69
4995,E3,1500.75,0.25,38,119.69
4996,E2,1501.0,0.25,47,119.69
4997,E3,1501.25,0.25,40,119.69
4998,E2,1501.5,0.25,47,119.69
4999,E3,1501.75,0.25,37,119.69
5000,E2,1502.0,0.25,42,119.69
5001,D4,1502.0,4.0,38,119.69
5002,E5,1502.0,4.0,38,119.69
5003,G#4,1502.0,4.0,38,119.69
5004,E3,1502.25,0.25,33,119.69
5005,E2,1502.5,0.25,42,119.69
5006,E3,1502.75,0.25,35,119.69
5007,E2,1503.0,0.25,41,119.69
5008,E3,1503.25,0.25,32,119.69
5009,E2,1503.5,0.25,42,119.69
5010,E3,1503.75,0.25,31,119.69
5011,C#2,1504.0,0.25,75,119.69
5012,C#3,1504.25,0.25,37,119.69
5013,C#2,1504.5,0.25,50,119.69
5014,C#3,1504.75,0.25,35,119.69
5015,C#2,1505.0,0.25,49,119.69
5016,C#3,1505.25,0.25,32,119.69
5017,C#2,1505.5,0.25,42,119.69
5018,C#3,1505.75,0.25,33,119.69
5019,E4,1506.0,0.25,97,119.69
5020,C#2,1506.0,0.25,43,119.69
5021,E5,1506.25,0.25,90,119.69
5022,C#3,1506.25,0.25,32,119.69
5023,E4,1506.5,0.25,86,119.69
5024,C#2,1506.5,0.25,43,119.69
5025,E5,1506.75,0.25,83,119.69
5026,C#3,1506.75,0.25,33,119.69
5027,C#4,1507.0,0.25,88,119.69
5028,C#2,1507.0,0.25,43,119.69
5029,C#5,1507.25,0.25,85,119.69
5030,C#3,1507.25,0.25,35,119.69
5031,C#4,1507.5,0.25,82,119.69
5032,C#2,1507.5,0.25,42,119.69
5033,C#5,1507.75,0.25,78,119.69
5034,C#3,1507.75,0.25,37,119.69
5035,E4,1508.0,0.25,87,119.69
5036,E4,1508.0,1.0,83,119.69
5037,E3,1508.0,1.0,83,119.69
5038,E5,1508.25,0.25,85,119.69
5039,E4,1508.5,0.25,83,119.69
5040,E5,1508.75,0.25,80,119.69
5041,A4,1509.0,0.25,89,119.69
5042,C#3,1509.0,0.375,72,119.69
5043,C#4,1509.0,0.375,72,119.69
5044,A5,1509.25,0.25,86,119.69
5045,A4,1509.5,0.25,84,119.69
5046,A5,1509.75,0.25,81,119.69
5047,C#5,1510.0,0.25,94,119.69
5048,E3,1510.0,1.0,83,119.69
5049,E4,1510.0,1.0,83,119.69
5050,C#6,1510.25,0.25,92,119.69
5051,C#5,1510.5,0.25,90,119.69
5052,C#6,1510.75,0.25,88,119.69
5053,E5,1511.0,0.25,102,119.69
5054,A4,1511.0,0.375,72,119.69
5055,A3,1511.0,0.375,72,119.69
5056,E6,1511.25,0.25,98,119.69
5057,E5,1511.5,0.25,94,119.69
5058,E6,1511.75,0.25,90,119.69
5059,A5,1512.0,0.25,109,119.69
5060,E3,1512.0,1.0,73,119.69
5061,E4,1512.0,1.0,73,119.69
5062,A6,1512.25,0.25,100,119.69
5063,A5,1512.5,0.25,94,119.69
5064,A6,1512.75,0.25,88,119.69
5065,E5,1513.0,0.25,83,119.69
5066,C#3,1513.0,0.375,66,119.69
5067,C#4,1513.0,0.375,66,119.69
5068,E6,1513.25,0.25,77,119.69
5069,E5,1513.5,0.25,70,119.69
5070,E6,1513.75,0.25,60,119.69
5071,A4,1514.0,4.0,35,119.69
5072,C#4,1514.0,4.0,35,119.69
5073,C#5,1514.0,4.0,35,119.69
5074,A3,1514.0,1.0,57,119.69
5075,A2,1514.0,1.0,57,119.69
5076,E3,1515.0,0.375,44,119.69
5077,E2,1515.0,0.375,44,119.69
5078,E3,1516.0,4.0,27,119.69
5079,E2,1516.0,4.0,27,119.69
5080,G#4,1518.0,4.0,38,119.69
5081,E5,1518.0,4.0,38,119.69
5082,D4,1518.0,4.0,38,119.69
5083,C#3,1522.0,1917/1000,34,119.69
5084,C#4,1522.0,1917/1000,34,119.69
5085,A3,1524.0,0.75,21,119.69
5086,C#3,1524.0,0.75,21,119.69
5087,E3,1524.0,4.0,27,119.69
5088,E2,1524.0,4.0,27,119.69
5089,D5,1526.0,1917/1000,42,119.69
5090,G#5,1526.0,1917/1000,42,119.69
5091,E6,1526.0,1917/1000,42,119.69
5092,E2,1528.0,0.25,71,119.69
5093,G#5,1528.0,0.75,28,119.69
5094,D5,1528.0,0.75,28,119.69
5095,E3,1528.25,0.25,38,119.69
5096,E2,1528.5,0.25,47,119.69
5097,E3,1528.75,0.25,35,119.69
5098,C#2,1529.0,0.25,66,119.69
5099,C#3,1529.25,0.25,37,119.69
5100,C#2,1529.5,0.25,42,119.69
5101,C#3,1529.75,0.25,35,119.69
5102,E2,1530.0,0.25,63,119.69
5103,C#3,1530.0,1917/1000,34,119.69
5104,C#4,1530.0,1917/1000,34,119.69
5105,E3,1530.25,0.25,41,119.69
5106,E2,1530.5,0.25,51,119.69
5107,E3,1530.75,0.25,38,119.69
5108,A2,1531.0,0.25,67,119.69
5109,A3,1531.25,0.25,40,119.69
5110,A2,1531.5,0.25,52,119.69
5111,A3,1531.75,0.25,40,119.69
5112,C#3,1532.0,0.25,72,119.69
5113,C#3,1532.0,0.75,23,119.69
5114,A3,1532.0,0.75,23,119.69
5115,C#4,1532.25,0.25,47,119.69
5116,C#3,1532.5,0.25,61,119.69
5117,C#4,1532.75,0.25,48,119.69
5118,E3,1533.0,0.25,79,119.69
5119,E4,1533.25,0.25,52,119.69
5120,E3,1533.5,0.25,63,119.69
5121,E4,1533.75,0.25,56,119.69
5122,A3,1534.0,0.25,84,119.69
5123,D5,1534.0,1917/1000,42,119.69
5124,E6,1534.0,1917/1000,42,119.69
5125,G#5,1534.0,1917/1000,42,119.69
5126,A4,1534.25,0.25,57,119.69
5127,A3,1534.5,0.25,66,119.69
5128,A4,1534.75,0.25,53,119.69
5129,E3,1535.0,0.25,73,119.69
5130,E4,1535.25,0.25,46,119.69
5131,E3,1535.5,0.25,57,119.69
5132,E4,1535.75,0.25,45,119.69
5133,D5,1536.0,0.75,28,119.69
5134,G#5,1536.0,0.75,28,119.69
5135,E3,1536.0,4.0,28,119.69
5136,E2,1536.0,4.0,28,119.69
5137,C#3,1538.0,1917/1000,34,119.69
5138,C#4,1538.0,1917/1000,34,119.69
5139,C#3,1540.0,0.75,20,119.69
5140,A3,1540.0,0.75,20,119.69
5141,D5,1542.0,1917/1000,42,119.69
5142,G#5,1542.0,1917/1000,42,119.69
5143,E6,1542.0,1917/1000,42,119.69
5144,G#5,1544.0,0.75,26,119.69
5145,D5,1544.0,0.75,26,119.69
5146,E3,1544.0,4.0,28,119.69
5147,E2,1544.0,4.0,28,119.69
5148,D5,1546.0,1917/1000,42,119.69
5149,G#5,1546.0,1917/1000,42,119.69
5150,E6,1546.0,1917/1000,42,119.69
5151,G#5,1548.0,0.75,28,119.69
5152,D5,1548.0,0.75,28,119.69
5153,E2,1548.0,1917/1000,26,119.69
5154,A2,1548.0,1917/1000,26,119.69
5155,A1,1548.0,1917/1000,26,119.69
5156,E6,1550.0,1917/1000,42,119.69
5157,G#5,1550.0,1917/1000,42,119.69
5158,D5,1550.0,1917/1000,42,119.69
5159,A1,1550.0,0.75,13,119.69
5160,E2,1550.0,0.75,13,119.69
5161,A2,1550.0,0.75,13,119.69
5162,D5,1552.0,0.75,28,119.69
5163,G#5,1552.0,0.75,28,119.69
5164,A3,1552.0,1917/1000,26,119.69
5165,B4,1552.0,1917/1000,26,119.69
5166,E4,1552.0,1917/1000,26,119.69
5167,C#5,1554.0,4.0,98,119.69
5168,C#6,1554.0,4.0,98,119.69
5169,A3,1554.0,0.75,11,119.69
5170,B4,1554.0,0.75,11,119.69
5171,E4,1554.0,0.75,11,119.69
5172,E2,1556.0,1917/1000,26,119.69
5173,A1,1556.0,1917/1000,26,119.69
5174,A2,1556.0,1917/1000,26,119.69
5175,A1,1558.0,0.75,12,119.69
5176,A2,1558.0,0.75,12,119.69
5177,E2,1558.0,0.75,12,119.69
5178,A3,1560.0,1917/1000,26,119.69
5179,B4,1560.0,1917/1000,26,119.69
5180,E4,1560.0,1917/1000,26,119.69
5181,C#5,1562.0,4.0,98,119.69
5182,C#6,1562.0,4.0,98,119.69
5183,E4,1562.0,0.75,11,119.69
5184,B4,1562.0,0.75,11,119.69
5185,A3,1562.0,0.75,11,119.69
5186,A1,1564.0,1917/1000,26,119.69
5187,E2,1564.0,1917/1000,26,119.69
5188,A2,1564.0,1917/1000,26,119.69
5189,A4,1566.0,4.0,31,119.69
5190,A5,1566.0,4.0,31,119.69
5191,E2,1566.0,0.75,12,119.69
5192,A2,1566.0,0.75,12,119.69
5193,A1,1566.0,0.75,12,119.69
5194,A3,1568.0,1917/1000,26,119.69
5195,B4,1568.0,1917/1000,26,119.69
5196,E4,1568.0,1917/1000,26,119.69
5197,E4,1570.0,0.75,11,119.69
5198,B4,1570.0,0.75,11,119.69
5199,A3,1570.0,0.75,11,119.69
5200,A3,1572.0,1917/1000,26,119.69
5201,B4,1572.0,1917/1000,26,119.69
5202,E4,1572.0,1917/1000,26,119.69
5203,A4,1574.0,4.0,31,119.69
5204,A5,1574.0,4.0,31,119.69
5205,E4,1574.0,0.75,11,119.69
5206,A3,1574.0,0.75,11,119.69
5207,B4,1574.0,0.75,11,119.69
5208,A3,1576.0,1917/1000,26,119.69
5209,E4,1576.0,1917/1000,26,119.69
5210,B4,1576.0,1917/1000,26,119.69
5211,C#3,1578.0,1917/1000,26,119.69
5212,C#4,1578.0,1917/1000,26,119.69
5213,A3,1578.0,1917/1000,26,119.69
5214,E3,1578.0,1917/1000,26,119.69
5215,A3,1578.0,0.75,11,119.69
5216,E4,1578.0,0.75,11,119.69
5217,B4,1578.0,0.75,11,119.69
5218,C#3,1580.0,1917/1000,26,119.69
5219,E3,1580.0,1917/1000,26,119.69
5220,A3,1580.0,1917/1000,26,119.69
5221,C#4,1580.0,1917/1000,26,119.69
5222,C#4,1580.0,4.0,78,119.69
5223,C#3,1580.0,4.0,78,119.69
5224,E3,1582.0,4.0,26,119.69
5225,C#4,1582.0,4.0,26,119.69
5226,A3,1582.0,4.0,26,119.69
5227,C#3,1582.0,4.0,26,119.69
5228,C#4,1588.0,4.0,78,119.69
5229,C#3,1588.0,4.0,78,119.69
5230,A2,1592.0,4.0,28,119.69
5231,A3,1592.0,4.0,28,119.69
5232,A2,1600.0,4.0,28,119.69
5233,A3,1600.0,4.0,28,119.69
5234,A2,1604.0,1917/1000,14,119.69
5235,E2,1604.0,1917/1000,14,119.69
5236,A1,1604.0,1917/1000,14,119.69
5237,E2,1606.0,1917/1000,14,119.69
5238,A2,1606.0,1917/1000,14,119.69
5239,A1,1606.0,1917/1000,14,119.69
5240,A2,1608.0,4.0,14,119.69
5241,A1,1608.0,4.0,14,119.69
5242,E2,1608.0,4.0,14,119.69
