,note_name,start_time,duration,velocity,tempo
0,A5,2.0,1.0,50,160.0
1,A4,2.0,1.0,50,160.0
2,C3,3.0,19/40,45,160.0
3,B-4,3.0,1.0,54,160.0
4,B-5,3.0,1.0,54,160.0
5,E4,3.5,19/40,31,160.0
6,C4,3.5,19/40,31,160.0
7,B-3,3.5,19/40,31,160.0
8,E5,4.0,1.0,57,160.0
9,E6,4.0,1.0,57,160.0
10,B-3,4.0,19/40,32,160.0
11,C4,4.0,19/40,32,160.0
12,E4,4.0,19/40,32,160.0
13,B-3,4.5,19/40,32,160.0
14,C4,4.5,19/40,32,160.0
15,E4,4.5,19/40,32,160.0
16,G5,5.0,1.0,60,160.0
17,G6,5.0,1.0,60,160.0
18,B-3,5.0,19/40,34,160.0
19,C4,5.0,19/40,34,160.0
20,E4,5.0,19/40,34,160.0
21,B-3,5.5,19/40,35,160.0
22,C4,5.5,19/40,35,160.0
23,E4,5.5,19/40,35,160.0
24,C3,6.0,19/40,50,160.0
25,G6,6.0,2.0,62,160.0
26,G5,6.0,2.0,62,160.0
27,E4,6.5,19/40,31,160.0
28,C4,6.5,19/40,31,160.0
29,B-3,6.5,19/40,31,160.0
30,E4,7.0,19/40,32,160.0
31,C4,7.0,19/40,32,160.0
32,B-3,7.0,19/40,32,160.0
33,E4,7.5,19/40,33,160.0
34,C4,7.5,19/40,33,160.0
35,B-3,7.5,19/40,33,160.0
36,G#4,8.0,1.0,57,160.0
37,G#5,8.0,1.0,57,160.0
38,E4,8.0,19/40,34,160.0
39,C4,8.0,19/40,34,160.0
40,B-3,8.0,19/40,34,160.0
41,E4,8.5,19/40,35,160.0
42,C4,8.5,19/40,35,160.0
43,B-3,8.5,19/40,35,160.0
44,F3,9.0,19/40,50,160.0
45,A5,9.0,1.0,62,160.0
46,A4,9.0,1.0,62,160.0
47,F4,9.5,19/40,31,160.0
48,C4,9.5,19/40,31,160.0
49,A3,9.5,19/40,31,160.0
50,C5,10.0,1.0,57,160.0
51,C6,10.0,1.0,57,160.0
52,A3,10.0,19/40,32,160.0
53,C4,10.0,19/40,32,160.0
54,F4,10.0,19/40,32,160.0
55,A3,10.5,19/40,33,160.0
56,C4,10.5,19/40,33,160.0
57,F4,10.5,19/40,33,160.0
58,F6,11.0,1.0,62,160.0
59,F5,11.0,1.0,62,160.0
60,A3,11.0,19/40,34,160.0
61,C4,11.0,19/40,34,160.0
62,F4,11.0,19/40,34,160.0
63,A3,11.5,19/40,35,160.0
64,C4,11.5,19/40,35,160.0
65,F4,11.5,19/40,35,160.0
66,A2,12.0,19/40,50,160.0
67,F5,12.0,2.0,62,160.0
68,F6,12.0,2.0,62,160.0
69,F4,12.5,19/40,36,160.0
70,C4,12.5,19/40,36,160.0
71,A3,12.5,19/40,36,160.0
72,F4,13.0,19/40,36,160.0
73,C4,13.0,19/40,36,160.0
74,A3,13.0,19/40,36,160.0
75,F4,13.5,19/40,37,160.0
76,C4,13.5,19/40,37,160.0
77,A3,13.5,19/40,37,160.0
78,F#5,14.0,1.0,50,160.0
79,F#4,14.0,1.0,50,160.0
80,A3,14.0,19/40,37,160.0
81,C4,14.0,19/40,37,160.0
82,E-4,14.0,19/40,37,160.0
83,A3,14.5,19/40,37,160.0
84,C4,14.5,19/40,37,160.0
85,E-4,14.5,19/40,37,160.0
86,B-2,15.0,19/40,45,160.0
87,G4,15.0,1.0,54,160.0
88,G5,15.0,1.0,54,160.0
89,D4,15.5,19/40,31,160.0
90,B-3,15.5,19/40,31,160.0
91,G3,15.5,19/40,31,160.0
92,B-4,16.0,1.0,57,160.0
93,B-5,16.0,1.0,57,160.0
94,G3,16.0,19/40,32,160.0
95,B-3,16.0,19/40,32,160.0
96,D4,16.0,19/40,32,160.0
97,G3,16.5,19/40,32,160.0
98,B-3,16.5,19/40,32,160.0
99,D4,16.5,19/40,32,160.0
100,D5,17.0,1.0,60,160.0
101,D6,17.0,1.0,60,160.0
102,G3,17.0,19/40,34,160.0
103,B-3,17.0,19/40,34,160.0
104,D4,17.0,19/40,34,160.0
105,G3,17.5,19/40,35,160.0
106,B-3,17.5,19/40,35,160.0
107,D4,17.5,19/40,35,160.0
108,C3,18.0,19/40,50,160.0
109,D6,18.0,2.0,62,160.0
110,D5,18.0,2.0,62,160.0
111,C4,18.5,19/40,31,160.0
112,B-3,18.5,19/40,31,160.0
113,G3,18.5,19/40,31,160.0
114,C4,19.0,19/40,32,160.0
115,B-3,19.0,19/40,32,160.0
116,G3,19.0,19/40,32,160.0
117,C4,19.5,19/40,33,160.0
118,B-3,19.5,19/40,33,160.0
119,G3,19.5,19/40,33,160.0
120,E4,20.0,1.0,57,160.0
121,E5,20.0,1.0,57,160.0
122,C4,20.0,19/40,34,160.0
123,B-3,20.0,19/40,34,160.0
124,G3,20.0,19/40,34,160.0
125,C4,20.5,19/40,35,160.0
126,B-3,20.5,19/40,35,160.0
127,G3,20.5,19/40,35,160.0
128,F3,21.0,19/40,50,160.0
129,F5,21.0,1.0,62,160.0
130,F4,21.0,1.0,62,160.0
131,A3,21.5,19/40,30,160.0
132,F3,21.5,19/40,30,160.0
133,A4,22.0,1.0,52,160.0
134,A5,22.0,1.0,52,160.0
135,F3,22.0,19/40,30,160.0
136,A3,22.0,19/40,30,160.0
137,F3,22.5,19/40,30,160.0
138,A3,22.5,19/40,30,160.0
139,C6,23.0,1.0,52,160.0
140,C5,23.0,1.0,52,160.0
141,F3,23.0,19/40,30,160.0
142,A3,23.0,19/40,30,160.0
143,F3,23.5,19/40,30,160.0
144,A3,23.5,19/40,30,160.0
145,F3,24.0,19/40,40,160.0
146,C5,24.0,2.0,49,160.0
147,C6,24.0,2.0,49,160.0
148,F4,24.5,19/40,29,160.0
149,C4,24.5,19/40,29,160.0
150,A3,24.5,19/40,29,160.0
151,F4,25.0,19/40,29,160.0
152,C4,25.0,19/40,29,160.0
153,A3,25.0,19/40,29,160.0
154,F4,25.5,19/40,30,160.0
155,C4,25.5,19/40,30,160.0
156,A3,25.5,19/40,30,160.0
157,A4,25.875,1.0,38,160.0
158,A5,26.0,1.0,45,160.0
159,A3,26.0,19/40,30,160.0
160,C4,26.0,19/40,30,160.0
161,F4,26.0,19/40,30,160.0
162,A3,26.5,19/40,30,160.0
163,C4,26.5,19/40,30,160.0
164,F4,26.5,19/40,30,160.0
165,B-4,26.875,0.125,40,160.0
166,B-5,27.0,1.0,48,160.0
167,B-4,27.0,0.875,40,160.0
168,C4,27.0,19/40,34,160.0
169,C3,27.0,19/40,34,160.0
170,E4,27.5,19/40,26,160.0
171,B-3,27.5,19/40,26,160.0
172,E5,27.875,1.0,43,160.0
173,E6,28.0,1.0,51,160.0
174,B-3,28.0,19/40,28,160.0
175,E4,28.0,19/40,28,160.0
176,B-3,28.5,19/40,28,160.0
177,E4,28.5,19/40,28,160.0
178,G5,28.875,1.0,45,160.0
179,G6,29.0,1.0,54,160.0
180,B-3,29.0,19/40,30,160.0
181,E4,29.0,19/40,30,160.0
182,B-3,29.5,19/40,30,160.0
183,E4,29.5,19/40,30,160.0
184,G5,29.875,0.125,47,160.0
185,G6,30.0,2.0,56,160.0
186,G5,30.0,2.0,47,160.0
187,C4,30.0,19/40,37,160.0
188,C3,30.0,19/40,37,160.0
189,E4,30.5,19/40,26,160.0
190,B-3,30.5,19/40,26,160.0
191,E4,31.0,19/40,28,160.0
192,B-3,31.0,19/40,28,160.0
193,E4,31.5,19/40,28,160.0
194,B-3,31.5,19/40,28,160.0
195,G#4,32.0,1.0,47,160.0
196,G#5,32.0,1.0,47,160.0
197,E4,32.0,19/40,30,160.0
198,B-3,32.0,19/40,30,160.0
199,E4,32.5,19/40,30,160.0
200,B-3,32.5,19/40,30,160.0
201,A5,33.0,1.0,48,160.0
202,A4,33.0,1.0,48,160.0
203,F4,33.0,19/40,34,160.0
204,F3,33.0,19/40,34,160.0
205,C4,33.5,19/40,26,160.0
206,A3,33.5,19/40,26,160.0
207,C5,34.0,1.0,47,160.0
208,C6,34.0,1.0,47,160.0
209,A3,34.0,19/40,28,160.0
210,C4,34.0,19/40,28,160.0
211,A3,34.5,19/40,28,160.0
212,C4,34.5,19/40,28,160.0
213,F6,35.0,1.0,50,160.0
214,F5,35.0,1.0,50,160.0
215,A3,35.0,19/40,30,160.0
216,C4,35.0,19/40,30,160.0
217,A3,35.5,19/40,30,160.0
218,C4,35.5,19/40,30,160.0
219,F5,36.0,2.0,50,160.0
220,F6,36.0,2.0,50,160.0
221,A3,36.0,19/40,38,160.0
222,A2,36.0,19/40,38,160.0
223,C4,36.5,19/40,31,160.0
224,F3,36.5,19/40,31,160.0
225,C4,37.0,19/40,31,160.0
226,F3,37.0,19/40,31,160.0
227,C4,37.5,19/40,32,160.0
228,F3,37.5,19/40,32,160.0
229,F#5,38.0,1.0,42,160.0
230,F#4,38.0,1.0,42,160.0
231,E-3,38.0,19/40,32,160.0
232,C4,38.0,19/40,32,160.0
233,E-3,38.5,19/40,32,160.0
234,C4,38.5,19/40,32,160.0
235,G4,39.0,1.0,44,160.0
236,G5,39.0,1.0,44,160.0
237,B-3,39.0,19/40,35,160.0
238,B-2,39.0,19/40,35,160.0
239,D4,39.5,19/40,26,160.0
240,G3,39.5,19/40,26,160.0
241,D3,39.5,19/40,26,160.0
242,B-4,40.0,1.0,47,160.0
243,B-5,40.0,1.0,47,160.0
244,D3,40.0,19/40,27,160.0
245,G3,40.0,19/40,27,160.0
246,D4,40.0,19/40,27,160.0
247,D3,40.5,19/40,27,160.0
248,G3,40.5,19/40,27,160.0
249,D4,40.5,19/40,27,160.0
250,D5,41.0,1.0,50,160.0
251,D6,41.0,1.0,50,160.0
252,D3,41.0,19/40,29,160.0
253,G3,41.0,19/40,29,160.0
254,D4,41.0,19/40,29,160.0
255,D3,41.5,19/40,30,160.0
256,G3,41.5,19/40,30,160.0
257,D4,41.5,19/40,30,160.0
258,D6,42.0,2.0,52,160.0
259,D5,42.0,2.0,52,160.0
260,C4,42.0,19/40,38,160.0
261,C3,42.0,19/40,38,160.0
262,E4,42.5,19/40,26,160.0
263,B-3,42.5,19/40,26,160.0
264,G3,42.5,19/40,26,160.0
265,E4,43.0,19/40,27,160.0
266,B-3,43.0,19/40,27,160.0
267,G3,43.0,19/40,27,160.0
268,E4,43.5,19/40,28,160.0
269,B-3,43.5,19/40,28,160.0
270,G3,43.5,19/40,28,160.0
271,E4,44.0,1.0,47,160.0
272,E5,44.0,1.0,47,160.0
273,C4,44.0,19/40,29,160.0
274,B-3,44.0,19/40,29,160.0
275,G3,44.0,19/40,29,160.0
276,C4,44.5,19/40,30,160.0
277,B-3,44.5,19/40,30,160.0
278,G3,44.5,19/40,30,160.0
279,F5,45.0,1.0,52,160.0
280,F4,45.0,1.0,52,160.0
281,F2,45.0,19/40,40,160.0
282,F3,45.0,19/40,40,160.0
283,C3,45.5,19/40,25,160.0
284,C4,45.5,19/40,25,160.0
285,A3,45.5,19/40,25,160.0
286,A4,46.0,1.0,43,160.0
287,A5,46.0,1.0,43,160.0
288,C3,46.0,19/40,25,160.0
289,A3,46.0,19/40,25,160.0
290,C4,46.0,19/40,25,160.0
291,C3,46.5,19/40,25,160.0
292,A3,46.5,19/40,25,160.0
293,C4,46.5,19/40,25,160.0
294,C6,47.0,1.0,43,160.0
295,C5,47.0,1.0,43,160.0
296,C3,47.0,19/40,25,160.0
297,A3,47.0,19/40,25,160.0
298,C4,47.0,19/40,25,160.0
299,C3,47.5,19/40,24,160.0
300,A3,47.5,19/40,24,160.0
301,C4,47.5,19/40,24,160.0
302,C5,48.0,2.0,40,160.0
303,C6,48.0,2.0,40,160.0
304,F2,48.0,19/40,30,160.0
305,F3,48.0,19/40,30,160.0
306,F4,48.5,19/40,24,160.0
307,C4,48.5,19/40,24,160.0
308,A3,48.5,19/40,24,160.0
309,F4,49.0,19/40,24,160.0
310,C4,49.0,19/40,24,160.0
311,A3,49.0,19/40,24,160.0
312,F4,49.5,19/40,25,160.0
313,C4,49.5,19/40,25,160.0
314,A3,49.5,19/40,25,160.0
315,G5,50.0,1.0,60,160.0
316,G6,50.0,1.0,60,160.0
317,F4,50.0,19/40,34,160.0
318,B3,50.0,19/40,34,160.0
319,G3,50.0,19/40,34,160.0
320,F4,50.5,19/40,35,160.0
321,B3,50.5,19/40,35,160.0
322,G3,50.5,19/40,35,160.0
323,C3,51.0,19/40,50,160.0
324,G6,51.0,1.0,65,160.0
325,G5,51.0,1.0,65,160.0
326,E4,51.5,19/40,33,160.0
327,C4,51.5,19/40,33,160.0
328,G3,51.5,19/40,33,160.0
329,E5,52.0,1.0,60,160.0
330,E6,52.0,1.0,60,160.0
331,G3,52.0,19/40,35,160.0
332,C4,52.0,19/40,35,160.0
333,E4,52.0,19/40,35,160.0
334,G3,52.5,19/40,36,160.0
335,C4,52.5,19/40,36,160.0
336,E4,52.5,19/40,36,160.0
337,B-5,53.0,1.0,62,160.0
338,B-4,53.0,1.0,62,160.0
339,G3,53.0,19/40,37,160.0
340,C4,53.0,19/40,37,160.0
341,E4,53.0,19/40,37,160.0
342,G3,53.5,19/40,38,160.0
343,C4,53.5,19/40,38,160.0
344,E4,53.5,19/40,38,160.0
345,C#3,54.0,19/40,55,160.0
346,A4,54.0,2.0,62,160.0
347,A5,54.0,2.0,62,160.0
348,G4,54.5,19/40,40,160.0
349,E4,54.5,19/40,40,160.0
350,A3,54.5,19/40,40,160.0
351,G4,55.0,19/40,40,160.0
352,E4,55.0,19/40,40,160.0
353,A3,55.0,19/40,40,160.0
354,G4,55.5,19/40,41,160.0
355,E4,55.5,19/40,41,160.0
356,A3,55.5,19/40,41,160.0
357,A5,56.0,1.0,62,160.0
358,A6,56.0,1.0,62,160.0
359,G4,56.0,19/40,37,160.0
360,E4,56.0,19/40,37,160.0
361,A3,56.0,19/40,37,160.0
362,G4,56.5,19/40,38,160.0
363,E4,56.5,19/40,38,160.0
364,A3,56.5,19/40,38,160.0
365,D3,57.0,19/40,55,160.0
366,A6,57.0,1.0,68,160.0
367,A5,57.0,1.0,68,160.0
368,F4,57.5,19/40,36,160.0
369,D4,57.5,19/40,36,160.0
370,A3,57.5,19/40,36,160.0
371,F5,58.0,1.0,62,160.0
372,F6,58.0,1.0,62,160.0
373,A3,58.0,19/40,38,160.0
374,D4,58.0,19/40,38,160.0
375,F4,58.0,19/40,38,160.0
376,A3,58.5,19/40,39,160.0
377,D4,58.5,19/40,39,160.0
378,F4,58.5,19/40,39,160.0
379,D6,59.0,1.0,66,160.0
380,D5,59.0,1.0,66,160.0
381,A3,59.0,19/40,40,160.0
382,D4,59.0,19/40,40,160.0
383,F4,59.0,19/40,40,160.0
384,A3,59.5,19/40,41,160.0
385,D4,59.5,19/40,41,160.0
386,F4,59.5,19/40,41,160.0
387,E3,60.0,19/40,55,160.0
388,C5,60.0,2.0,64,160.0
389,C6,60.0,2.0,64,160.0
390,G4,60.5,19/40,43,160.0
391,C4,60.5,19/40,43,160.0
392,B-3,60.5,19/40,43,160.0
393,G4,61.0,19/40,43,160.0
394,C4,61.0,19/40,43,160.0
395,B-3,61.0,19/40,43,160.0
396,G4,61.5,19/40,45,160.0
397,C4,61.5,19/40,45,160.0
398,B-3,61.5,19/40,45,160.0
399,C6,62.0,1.0,64,160.0
400,C7,62.0,1.0,64,160.0
401,G4,62.0,19/40,41,160.0
402,C4,62.0,19/40,41,160.0
403,B-3,62.0,19/40,41,160.0
404,G4,62.5,19/40,43,160.0
405,C4,62.5,19/40,43,160.0
406,B-3,62.5,19/40,43,160.0
407,F3,63.0,19/40,58,160.0
408,C7,63.0,1.0,72,160.0
409,C6,63.0,1.0,72,160.0
410,F4,63.5,19/40,39,160.0
411,C4,63.5,19/40,39,160.0
412,A3,63.5,19/40,39,160.0
413,A5,64.0,1.0,68,160.0
414,A6,64.0,1.0,68,160.0
415,A3,64.0,19/40,41,160.0
416,C4,64.0,19/40,41,160.0
417,F4,64.0,19/40,41,160.0
418,A3,64.5,19/40,43,160.0
419,C4,64.5,19/40,43,160.0
420,F4,64.5,19/40,43,160.0
421,F6,65.0,1.0,70,160.0
422,F5,65.0,1.0,70,160.0
423,A3,65.0,19/40,44,160.0
424,C4,65.0,19/40,44,160.0
425,F4,65.0,19/40,44,160.0
426,A3,65.5,19/40,47,160.0
427,C4,65.5,19/40,47,160.0
428,F4,65.5,19/40,47,160.0
429,B2,66.0,19/40,62,160.0
430,D5,66.0,2.0,75,160.0
431,D6,66.0,2.0,75,160.0
432,F4,66.5,19/40,45,160.0
433,D4,66.5,19/40,45,160.0
434,G3,66.5,19/40,45,160.0
435,F4,67.0,19/40,45,160.0
436,D4,67.0,19/40,45,160.0
437,G3,67.0,19/40,45,160.0
438,F4,67.5,19/40,47,160.0
439,D4,67.5,19/40,47,160.0
440,G3,67.5,19/40,47,160.0
441,D6,68.0,1.0,62,160.0
442,D7,68.0,1.0,62,160.0
443,F4,68.0,19/40,40,160.0
444,D4,68.0,19/40,40,160.0
445,G3,68.0,19/40,40,160.0
446,F4,68.5,19/40,35,160.0
447,D4,68.5,19/40,35,160.0
448,G3,68.5,19/40,35,160.0
449,C3,69.0,19/40,45,160.0
450,D7,69.0,1.0,66,160.0
451,D6,69.0,1.0,66,160.0
452,D4,69.5,19/40,32,160.0
453,B-3,69.5,19/40,32,160.0
454,B-5,70.0,1.0,58,160.0
455,B-6,70.0,1.0,58,160.0
456,B-3,70.0,19/40,32,160.0
457,D4,70.0,19/40,32,160.0
458,B-3,70.5,19/40,33,160.0
459,D4,70.5,19/40,33,160.0
460,G6,71.0,1.0,62,160.0
461,G5,71.0,1.0,62,160.0
462,B-3,71.0,19/40,34,160.0
463,E4,71.0,19/40,34,160.0
464,B-3,71.5,19/40,34,160.0
465,E4,71.5,19/40,34,160.0
466,F2,72.0,19/40,47,160.0
467,F5,72.0,2.0,58,160.0
468,F6,72.0,2.0,58,160.0
469,F4,72.5,19/40,30,160.0
470,C4,72.5,19/40,30,160.0
471,A3,72.5,19/40,30,160.0
472,F4,73.0,19/40,30,160.0
473,C4,73.0,19/40,30,160.0
474,A3,73.0,19/40,30,160.0
475,F4,73.5,19/40,31,160.0
476,C4,73.5,19/40,31,160.0
477,A3,73.5,19/40,31,160.0
478,G5,73.875,1.0,44,160.0
479,G6,74.0,1.0,49,160.0
480,F4,74.0,19/40,24,160.0
481,B3,74.0,19/40,24,160.0
482,G3,74.0,19/40,24,160.0
483,F4,74.5,19/40,24,160.0
484,B3,74.5,19/40,24,160.0
485,G3,74.5,19/40,24,160.0
486,G5,74.875,0.125,43,160.0
487,G6,75.0,1.0,54,160.0
488,G5,75.0,0.875,43,160.0
489,C3,75.0,19/40,34,160.0
490,C4,75.0,19/40,34,160.0
491,E4,75.5,19/40,22,160.0
492,G3,75.5,19/40,22,160.0
493,E5,75.875,1.0,39,160.0
494,E6,76.0,1.0,49,160.0
495,G3,76.0,19/40,23,160.0
496,E4,76.0,19/40,23,160.0
497,G3,76.5,19/40,24,160.0
498,E4,76.5,19/40,24,160.0
499,B-4,76.875,1.0,43,160.0
500,B-5,77.0,1.0,53,160.0
501,G3,77.0,19/40,24,160.0
502,E4,77.0,19/40,24,160.0
503,G3,77.5,19/40,25,160.0
504,E4,77.5,19/40,25,160.0
505,A4,77.875,0.125,43,160.0
506,A5,78.0,2.0,53,160.0
507,A4,78.0,2.0,43,160.0
508,C#4,78.0,19/40,34,160.0
509,C#3,78.0,19/40,34,160.0
510,G4,78.5,19/40,26,160.0
511,E4,78.5,19/40,26,160.0
512,A3,78.5,19/40,26,160.0
513,G4,79.0,19/40,27,160.0
514,E4,79.0,19/40,27,160.0
515,A3,79.0,19/40,27,160.0
516,G4,79.5,19/40,29,160.0
517,E4,79.5,19/40,29,160.0
518,A3,79.5,19/40,29,160.0
519,A5,80.0,1.0,50,160.0
520,A6,80.0,1.0,50,160.0
521,G4,80.0,19/40,27,160.0
522,E4,80.0,19/40,27,160.0
523,A3,80.0,19/40,27,160.0
524,G4,80.5,19/40,28,160.0
525,E4,80.5,19/40,28,160.0
526,A3,80.5,19/40,28,160.0
527,A6,81.0,1.0,54,160.0
528,A5,81.0,1.0,54,160.0
529,D4,81.0,19/40,36,160.0
530,D3,81.0,19/40,36,160.0
531,F4,81.5,19/40,26,160.0
532,A3,81.5,19/40,26,160.0
533,F5,82.0,1.0,50,160.0
534,F6,82.0,1.0,50,160.0
535,A3,82.0,19/40,26,160.0
536,F4,82.0,19/40,26,160.0
537,A3,82.5,19/40,27,160.0
538,F4,82.5,19/40,27,160.0
539,D6,83.0,1.0,56,160.0
540,D5,83.0,1.0,56,160.0
541,A3,83.0,19/40,28,160.0
542,F4,83.0,19/40,28,160.0
543,A3,83.5,19/40,30,160.0
544,F4,83.5,19/40,30,160.0
545,C5,84.0,2.0,56,160.0
546,C6,84.0,2.0,56,160.0
547,E4,84.0,19/40,40,160.0
548,E3,84.0,19/40,40,160.0
549,G4,84.5,19/40,30,160.0
550,C4,84.5,19/40,30,160.0
551,B-3,84.5,19/40,30,160.0
552,G4,85.0,19/40,31,160.0
553,C4,85.0,19/40,31,160.0
554,B-3,85.0,19/40,31,160.0
555,G4,85.5,19/40,32,160.0
556,C4,85.5,19/40,32,160.0
557,B-3,85.5,19/40,32,160.0
558,C6,86.0,1.0,56,160.0
559,C7,86.0,1.0,56,160.0
560,G4,86.0,19/40,30,160.0
561,C4,86.0,19/40,30,160.0
562,B-3,86.0,19/40,30,160.0
563,G4,86.5,19/40,31,160.0
564,C4,86.5,19/40,31,160.0
565,B-3,86.5,19/40,31,160.0
566,C7,87.0,1.0,62,160.0
567,C6,87.0,1.0,62,160.0
568,F4,87.0,19/40,44,160.0
569,F3,87.0,19/40,44,160.0
570,A4,87.5,19/40,34,160.0
571,C4,87.5,19/40,34,160.0
572,A5,88.0,1.0,59,160.0
573,A6,88.0,1.0,59,160.0
574,C4,88.0,19/40,36,160.0
575,A4,88.0,19/40,36,160.0
576,C4,88.5,19/40,38,160.0
577,A4,88.5,19/40,38,160.0
578,F6,89.0,1.0,61,160.0
579,F5,89.0,1.0,61,160.0
580,C4,89.0,19/40,39,160.0
581,A4,89.0,19/40,39,160.0
582,C4,89.5,19/40,41,160.0
583,A4,89.5,19/40,41,160.0
584,D5,90.0,2.0,67,160.0
585,D6,90.0,2.0,67,160.0
586,B3,90.0,19/40,49,160.0
587,B2,90.0,19/40,49,160.0
588,F4,90.5,19/40,38,160.0
589,G#3,90.5,19/40,38,160.0
590,F4,91.0,19/40,38,160.0
591,G#3,91.0,19/40,38,160.0
592,F4,91.5,19/40,39,160.0
593,G#3,91.5,19/40,39,160.0
594,D6,92.0,1.0,54,160.0
595,D7,92.0,1.0,54,160.0
596,F4,92.0,19/40,30,160.0
597,G#3,92.0,19/40,30,160.0
598,F4,92.5,19/40,30,160.0
599,G#3,92.5,19/40,30,160.0
600,D7,93.0,1.0,58,160.0
601,D6,93.0,1.0,58,160.0
602,C4,93.0,19/40,40,160.0
603,C3,93.0,19/40,40,160.0
604,D4,93.5,19/40,26,160.0
605,B-3,93.5,19/40,26,160.0
606,B-5,94.0,1.0,48,160.0
607,B-6,94.0,1.0,48,160.0
608,B-3,94.0,19/40,24,160.0
609,D4,94.0,19/40,24,160.0
610,B-3,94.5,19/40,25,160.0
611,D4,94.5,19/40,25,160.0
612,G6,95.0,1.0,48,160.0
613,G5,95.0,1.0,48,160.0
614,B-3,95.0,19/40,24,160.0
615,E4,95.0,19/40,24,160.0
616,B-3,95.5,19/40,24,160.0
617,E4,95.5,19/40,24,160.0
618,F5,96.0,1.0,45,160.0
619,F6,96.0,1.0,45,160.0
620,A3,96.0,1.0,31,160.0
621,F4,96.0,1.0,31,160.0
622,F2,97.0,1.0,17,160.0
623,C3,97.062,0.938,20,160.0
624,A3,97.125,0.875,28,160.0
625,C4,97.188,0.75,28,160.0
626,F4,97.25,0.75,34,160.0
627,A3,101.5,0.5,62,160.0
628,E-3,101.5,0.5,62,160.0
629,C3,101.5,0.5,62,160.0
630,F#1,101.5,0.5,54,160.0
631,F#2,101.5,0.5,54,160.0
632,C3,102.0,0.5,68,160.0
633,E3,102.0,0.5,68,160.0
634,B-3,102.0,0.5,68,160.0
635,G1,102.0,0.5,58,160.0
636,G2,102.0,0.5,58,160.0
637,C4,102.5,0.5,63,160.0
638,A4,102.5,0.5,63,160.0
639,E-4,102.5,0.5,63,160.0
640,F#2,102.5,0.5,54,160.0
641,F#3,102.5,0.5,54,160.0
642,E4,103.0,0.5,68,160.0
643,C4,103.0,0.5,68,160.0
644,B-4,103.0,0.5,68,160.0
645,G2,103.0,0.5,58,160.0
646,G3,103.0,0.5,58,160.0
647,E-5,103.5,0.5,64,160.0
648,C5,103.5,0.5,64,160.0
649,A5,103.5,0.5,64,160.0
650,F#3,103.5,0.5,56,160.0
651,F#4,103.5,0.5,56,160.0
652,E5,104.0,0.5,69,160.0
653,B-5,104.0,0.5,69,160.0
654,C5,104.0,0.5,69,160.0
655,G3,104.0,0.5,62,160.0
656,G4,104.0,0.5,62,160.0
657,A6,104.5,0.5,67,160.0
658,C6,104.5,0.5,67,160.0
659,E-6,104.5,0.5,67,160.0
660,F#4,104.5,0.5,58,160.0
661,F#5,104.5,0.5,58,160.0
662,C6,105.0,0.25,66,160.0
663,G4,105.0,0.5,66,160.0
664,G5,105.0,0.5,66,160.0
665,B-6,105.25,0.25,73,160.0
666,G6,105.5,0.25,64,160.0
667,C7,105.5,0.5,75,160.0
668,B-5,105.5,0.25,65,160.0
669,E6,105.75,0.25,73,160.0
670,G5,105.75,0.25,58,160.0
671,C6,106.0,0.25,75,160.0
672,E5,106.0,0.25,59,160.0
673,B-5,106.25,0.25,74,160.0
674,C5,106.25,0.25,57,160.0
675,G5,106.5,0.25,72,160.0
676,B-4,106.5,0.25,56,160.0
677,E5,106.75,0.25,71,160.0
678,G4,106.75,0.25,54,160.0
679,C5,107.0,0.5,69,160.0
680,E4,107.0,0.5,52,160.0
681,D3,107.5,0.5,62,160.0
682,F3,107.5,0.5,62,160.0
683,B3,107.5,0.5,62,160.0
684,G#1,107.5,0.5,54,160.0
685,G#2,107.5,0.5,54,160.0
686,C3,108.0,0.5,68,160.0
687,C4,108.0,0.5,68,160.0
688,F3,108.0,0.5,68,160.0
689,A1,108.0,0.5,58,160.0
690,A2,108.0,0.5,58,160.0
691,F4,108.5,0.5,63,160.0
692,D4,108.5,0.5,63,160.0
693,B4,108.5,0.5,63,160.0
694,G#2,108.5,0.5,54,160.0
695,G#3,108.5,0.5,54,160.0
696,F4,109.0,0.5,68,160.0
697,C4,109.0,0.5,68,160.0
698,C5,109.0,0.5,68,160.0
699,A2,109.0,0.5,58,160.0
700,A3,109.0,0.5,58,160.0
701,F5,109.5,0.5,64,160.0
702,B5,109.5,0.5,64,160.0
703,D5,109.5,0.5,64,160.0
704,G#3,109.5,0.5,56,160.0
705,G#4,109.5,0.5,56,160.0
706,C6,110.0,0.5,69,160.0
707,C5,110.0,0.5,69,160.0
708,F5,110.0,0.5,69,160.0
709,A3,110.0,0.5,62,160.0
710,A4,110.0,0.5,62,160.0
711,B6,110.5,0.5,67,160.0
712,D6,110.5,0.5,67,160.0
713,F6,110.5,0.5,67,160.0
714,G#4,110.5,0.5,58,160.0
715,G#5,110.5,0.5,58,160.0
716,C6,111.0,0.25,66,160.0
717,A4,111.0,0.5,66,160.0
718,A5,111.0,0.5,66,160.0
719,F7,111.25,0.25,77,160.0
720,C7,111.5,0.5,75,160.0
721,A6,111.75,0.25,73,160.0
722,F6,112.0,0.25,76,160.0
723,C6,112.25,0.25,73,160.0
724,A5,112.5,0.25,71,160.0
725,F5,112.75,0.25,69,160.0
726,F#5,113.0,0.25,67,160.0
727,C4,113.0,1.0,47,160.0
728,E-4,113.0,1.0,47,160.0
729,A4,113.0,1.0,47,160.0
730,A5,113.25,0.75,63,160.0
731,C6,113.5,0.25,57,160.0
732,E-6,113.75,0.25,54,160.0
733,G5,114.0,1.25,56,160.0
734,E-6,114.0,0.25,54,160.0
735,B-2,114.0,0.5,47,160.0
736,D6,114.25,0.25,48,160.0
737,C#6,114.5,0.25,48,160.0
738,G3,114.5,1.5,37,160.0
739,D6,114.75,0.25,48,160.0
740,G6,115.0,229/500,54,160.0
741,D4,115.0,0.5,37,160.0
742,B-3,115.0,1.0,37,160.0
743,G#5,115.25,73/250,47,160.0
744,G6,115.5,229/500,54,160.0
745,A5,115.5,73/250,47,160.0
746,G4,115.5,0.5,37,160.0
747,B-5,115.75,73/250,47,160.0
748,B5,116.0,73/250,47,160.0
749,G6,116.0,229/500,54,160.0
750,G2,116.0,0.25,40,160.0
751,C6,116.25,73/250,48,160.0
752,C#6,116.5,73/250,49,160.0
753,G6,116.5,229/500,56,160.0
754,F4,116.5,0.5,37,160.0
755,B3,116.5,0.5,37,160.0
756,D6,116.75,0.25,50,160.0
757,F6,117.0,73/250,49,160.0
758,G6,117.0,229/500,56,160.0
759,D6,117.0,21/500,50,160.0
760,C3,117.0,0.25,47,160.0
761,E6,117.25,73/250,49,160.0
762,G6,117.5,229/500,56,160.0
763,E-6,117.5,73/250,50,160.0
764,C4,117.5,1.5,50,160.0
765,E6,117.75,73/250,49,160.0
766,C6,118.0,73/250,50,160.0
767,C7,118.0,229/500,56,160.0
768,G4,118.0,0.5,45,160.0
769,E4,118.0,0.5,45,160.0
770,C#6,118.25,73/250,51,160.0
771,C7,118.5,229/500,56,160.0
772,D6,118.5,73/250,50,160.0
773,C5,118.5,0.5,40,160.0
774,E-6,118.75,73/250,51,160.0
775,C7,119.0,229/500,58,160.0
776,E6,119.0,73/250,51,160.0
777,B-3,119.0,0.25,46,160.0
778,F6,119.25,73/250,53,160.0
779,F#6,119.5,73/250,53,160.0
780,C7,119.5,229/500,60,160.0
781,C5,119.5,0.5,42,160.0
782,G4,119.5,0.5,42,160.0
783,G6,119.75,0.25,55,160.0
784,B-6,120.0,73/250,54,160.0
785,C7,120.0,229/500,61,160.0
786,G6,120.0,21/500,55,160.0
787,A3,120.0,0.25,45,160.0
788,A6,120.25,73/250,56,160.0
789,G#6,120.5,73/250,56,160.0
790,C7,120.5,229/500,65,160.0
791,C4,120.5,1.5,49,160.0
792,A6,120.75,73/250,57,160.0
793,F7,121.0,229/500,65,160.0
794,F6,121.0,73/250,56,160.0
795,A4,121.0,0.5,47,160.0
796,F4,121.0,0.5,47,160.0
797,F#6,121.25,73/250,56,160.0
798,G6,121.5,73/250,57,160.0
799,F7,121.5,229/500,67,160.0
800,C5,121.5,0.5,40,160.0
801,G#6,121.75,73/250,57,160.0
802,F7,122.0,229/500,67,160.0
803,A6,122.0,73/250,57,160.0
804,F3,122.0,0.25,48,160.0
805,B-6,122.25,73/250,58,160.0
806,F7,122.5,229/500,69,160.0
807,B6,122.5,73/250,59,160.0
808,F4,122.5,0.5,41,160.0
809,A3,122.5,0.5,41,160.0
810,D7,122.75,0.25,60,160.0
811,D7,123.0,21/500,60,160.0
812,C3,123.0,1.0,48,160.0
813,E7,123.0,0.5,69,160.0
814,C7,123.0,0.5,69,160.0
815,C5,123.5,0.25,47,160.0
816,E3,123.5,0.25,36,160.0
817,E5,123.75,0.25,52,160.0
818,G3,123.75,0.25,39,160.0
819,G5,124.0,0.25,56,160.0
820,E4,124.0,0.25,45,160.0
821,C6,124.25,0.25,54,160.0
822,E6,124.5,0.25,52,160.0
823,G6,124.75,0.25,50,160.0
824,F#6,125.0,0.25,52,160.0
825,A3,125.0,1.0,37,160.0
826,F#3,125.0,1.0,37,160.0
827,C3,125.0,1.0,37,160.0
828,E-7,125.25,0.25,55,160.0
829,E-6,125.5,0.25,45,160.0
830,C7,125.75,0.25,52,160.0
831,G6,126.0,0.25,45,160.0
832,C3,126.0,2.0,32,160.0
833,B-3,126.0,1.0,36,160.0
834,G3,126.0,1.0,36,160.0
835,E7,126.25,0.25,39,160.0
836,E6,126.5,0.188,40,160.0
837,E6,126.75,0.188,40,160.0
838,C7,127.0,0.25,48,160.0
839,E4,127.0,1.0,35,160.0
840,C4,127.0,1.0,35,160.0
841,B-3,127.0,1.0,35,160.0
842,C6,127.25,0.188,41,160.0
843,C6,127.5,0.25,41,160.0
844,G6,127.75,0.188,42,160.0
845,G5,128.0,0.188,51,160.0
846,G4,128.0,1.0,38,160.0
847,C4,128.0,1.0,38,160.0
848,B-3,128.0,1.0,38,160.0
849,G5,128.25,0.25,43,160.0
850,E6,128.5,0.25,45,160.0
851,E5,128.75,0.188,45,160.0
852,E5,129.0,0.25,54,160.0
853,G4,129.0,2.0,41,160.0
854,C4,129.0,2.0,41,160.0
855,B-3,129.0,2.0,41,160.0
856,C6,129.25,0.25,48,160.0
857,C5,129.5,0.188,48,160.0
858,C5,129.75,0.188,48,160.0
859,G5,130.0,0.25,56,160.0
860,G4,130.25,0.188,48,160.0
861,G4,130.5,0.25,48,160.0
862,G5,130.75,0.188,48,160.0
863,E4,131.0,0.188,56,160.0
864,G#3,131.0,0.75,44,160.0
865,E4,131.25,0.25,49,160.0
866,C5,131.5,0.25,49,160.0
867,C4,131.75,0.25,50,160.0
868,F2,131.75,0.25,34,160.0
869,C3,131.875,0.125,38,160.0
870,F4,132.0,0.25,64,160.0
871,A3,132.0,1.0,51,160.0
872,F2,132.0,1.0,34,160.0
873,C3,132.0,1.0,38,160.0
874,C5,132.25,0.25,51,160.0
875,C4,132.5,0.25,51,160.0
876,A4,132.75,0.25,52,160.0
877,F5,133.0,0.25,63,160.0
878,C4,133.0,1.0,48,160.0
879,A3,133.0,1.0,48,160.0
880,F4,133.25,0.25,53,160.0
881,C5,133.5,0.25,53,160.0
882,A5,133.75,0.25,54,160.0
883,A4,134.0,0.25,66,160.0
884,F4,134.0,1.0,50,160.0
885,A3,134.0,1.0,50,160.0
886,F5,134.25,0.25,55,160.0
887,C6,134.5,0.25,57,160.0
888,C5,134.75,0.25,57,160.0
889,C6,135.0,0.25,69,160.0
890,F4,135.0,2.0,54,160.0
891,A3,135.0,2.0,54,160.0
892,F6,135.25,0.25,59,160.0
893,F5,135.5,0.25,60,160.0
894,C6,135.75,0.25,64,160.0
895,A6,136.0,0.25,75,160.0
896,A5,136.25,0.25,67,160.0
897,F6,136.5,0.25,68,160.0
898,C7,136.75,0.25,68,160.0
899,C6,137.0,0.25,78,160.0
900,A6,137.25,0.25,72,160.0
901,F7,137.5,0.25,73,160.0
902,F6,137.75,0.25,74,160.0
903,G#6,138.0,0.25,76,160.0
904,B2,138.0,0.5,63,160.0
905,F7,138.25,0.25,80,160.0
906,E7,138.5,0.25,79,160.0
907,D4,138.5,2.5,51,160.0
908,E-7,138.75,0.25,76,160.0
909,D7,139.0,0.25,75,160.0
910,F7,139.0,1.0,70,160.0
911,F4,139.0,2.0,53,160.0
912,C#7,139.25,0.25,72,160.0
913,C7,139.5,0.25,72,160.0
914,G#4,139.5,0.5,56,160.0
915,B6,139.75,0.25,70,160.0
916,G#6,140.0,0.25,62,160.0
917,D7,140.0,0.5,74,160.0
918,B4,140.0,1.0,58,160.0
919,D6,140.25,0.25,70,160.0
920,G6,140.5,0.25,57,160.0
921,B6,140.5,0.5,69,160.0
922,G4,140.5,0.5,56,160.0
923,F6,140.75,0.25,67,160.0
924,C7,141.0,1.0,74,160.0
925,E6,141.0,0.25,63,160.0
926,C3,141.0,0.5,63,160.0
927,B-6,141.25,0.25,64,160.0
928,A6,141.5,0.25,63,160.0
929,G3,141.5,2.5,46,160.0
930,G#6,141.75,0.25,61,160.0
931,G6,142.0,0.25,56,160.0
932,C7,142.0,1.0,67,160.0
933,B-3,142.0,2.0,48,160.0
934,F#6,142.25,0.25,54,160.0
935,F6,142.5,0.25,53,160.0
936,C#4,142.5,0.5,50,160.0
937,E6,142.75,0.25,53,160.0
938,C#6,143.0,0.25,48,160.0
939,G6,143.0,0.5,56,160.0
940,E4,143.0,1.0,52,160.0
941,G5,143.25,0.25,46,160.0
942,E6,143.5,0.5,51,160.0
943,C6,143.5,0.25,43,160.0
944,C4,143.5,0.5,49,160.0
945,B-5,143.75,0.25,43,160.0
946,C6,144.0,0.25,43,160.0
947,F2,144.0,0.5,43,160.0
948,F6,144.25,0.25,38,160.0
949,A6,144.25,0.5,47,160.0
950,A5,144.5,0.25,43,160.0
951,E-4,144.5,0.5,39,160.0
952,C5,144.5,0.5,39,160.0
953,F#5,144.75,0.25,43,160.0
954,F5,145.0,0.25,43,160.0
955,D4,145.0,0.5,35,160.0
956,B-4,145.0,0.5,35,160.0
957,D6,145.25,0.25,38,160.0
958,F6,145.25,0.5,47,160.0
959,F5,145.5,0.25,44,160.0
960,B-3,145.5,0.5,37,160.0
961,C#4,145.5,1.0,40,160.0
962,F4,145.5,1.0,40,160.0
963,C#5,145.75,0.25,44,160.0
964,C5,146.0,0.25,44,160.0
965,C4,146.0,1.0,44,160.0
966,A3,146.0,0.5,37,160.0
967,C6,146.25,0.5,48,160.0
968,A5,146.25,0.25,40,160.0
969,C5,146.5,0.25,44,160.0
970,E4,146.5,0.5,35,160.0
971,G3,146.5,0.5,35,160.0
972,B-4,146.75,0.25,44,160.0
973,A4,147.0,0.25,44,160.0
974,C4,147.0,0.5,44,160.0
975,F3,147.0,0.5,38,160.0
976,F4,147.0,0.5,38,160.0
977,F5,147.25,0.25,40,160.0
978,A5,147.25,0.5,48,160.0
979,A4,147.5,0.25,44,160.0
980,F4,147.75,0.25,44,160.0
981,F2,148.0,1.0,27,160.0
982,C3,148.062,0.938,28,160.0
983,F3,148.125,0.875,29,160.0
984,A3,148.188,0.812,36,160.0
985,C4,148.25,0.75,40,160.0
986,A6,149.5,0.25,65,160.0
987,C7,149.5,0.5,77,160.0
988,E-6,149.5,0.5,72,160.0
989,C6,149.75,0.25,65,160.0
990,F#6,149.75,0.25,65,160.0
991,G6,150.0,0.5,75,160.0
992,E6,150.0,0.5,77,160.0
993,C6,150.25,0.25,68,160.0
994,A5,150.5,0.25,63,160.0
995,C6,150.5,0.5,74,160.0
996,E-5,150.5,0.5,71,160.0
997,C5,150.75,0.25,60,160.0
998,F#5,150.75,0.25,60,160.0
999,G5,151.0,0.5,71,160.0
1000,E5,151.0,0.5,76,160.0
1001,C5,151.25,0.25,63,160.0
1002,A4,151.5,0.25,58,160.0
1003,C5,151.5,0.5,69,160.0
1004,E-4,151.5,0.5,66,160.0
1005,C4,151.75,0.25,56,160.0
1006,F#4,151.75,0.25,56,160.0
1007,G4,152.0,0.5,64,160.0
1008,E4,152.0,0.5,72,160.0
1009,F4,152.25,0.25,63,160.0
1010,G4,152.5,0.5,71,160.0
1011,E4,152.5,0.25,59,160.0
1012,B-1,152.5,0.5,61,160.0
1013,B-2,152.5,0.5,61,160.0
1014,D4,152.75,0.25,65,160.0
1015,A4,153.0,0.5,69,160.0
1016,C#4,153.0,0.25,58,160.0
1017,A1,153.0,0.5,70,160.0
1018,A2,153.0,0.5,70,160.0
1019,B-3,153.25,0.25,58,160.0
1020,E4,153.5,2.5,58,160.0
1021,A3,153.5,0.25,54,160.0
1022,E3,153.75,0.25,47,160.0
1023,G4,154.0,0.5,63,160.0
1024,C#3,154.0,0.25,52,160.0
1025,B-2,154.25,0.25,51,160.0
1026,B-4,154.5,0.5,68,160.0
1027,A2,154.5,0.25,49,160.0
1028,G2,154.75,0.25,48,160.0
1029,A4,155.0,0.5,57,160.0
1030,C#5,155.0,1.0,70,160.0
1031,E2,155.0,0.25,47,160.0
1032,C#2,155.25,0.25,50,160.0
1033,G4,155.5,0.5,69,160.0
1034,B-1,155.5,0.25,53,160.0
1035,A1,155.75,0.25,55,160.0
1036,D2,156.0,0.25,58,160.0
1037,D5,156.0,0.5,64,160.0
1038,F4,156.0,0.5,64,160.0
1039,F2,156.25,0.25,58,160.0
1040,C#6,156.5,0.25,65,160.0
1041,A6,156.5,0.5,77,160.0
1042,A2,156.5,0.25,59,160.0
1043,C#3,156.75,0.25,60,160.0
1044,G5,156.75,0.25,65,160.0
1045,E6,156.75,0.25,65,160.0
1046,D6,157.0,0.25,65,160.0
1047,F6,157.0,0.5,75,160.0
1048,D3,157.0,0.25,60,160.0
1049,F5,157.25,0.25,68,160.0
1050,F3,157.25,0.25,61,160.0
1051,C5,157.5,0.25,63,160.0
1052,A5,157.5,0.5,74,160.0
1053,A3,157.5,0.25,62,160.0
1054,C#4,157.75,0.25,63,160.0
1055,G4,157.75,0.25,60,160.0
1056,E5,157.75,0.25,60,160.0
1057,D5,158.0,0.25,65,160.0
1058,F5,158.0,0.5,71,160.0
1059,D4,158.0,0.25,63,160.0
1060,E4,158.25,0.25,63,160.0
1061,F4,158.5,0.25,58,160.0
1062,B4,158.5,0.5,69,160.0
1063,C#2,158.5,0.5,61,160.0
1064,C#3,158.5,0.5,61,160.0
1065,G4,158.75,0.25,60,160.0
1066,G#4,159.0,0.25,63,160.0
1067,C5,159.0,1.0,68,160.0
1068,C2,159.0,0.5,70,160.0
1069,C3,159.0,0.5,70,160.0
1070,F4,159.25,0.25,63,160.0
1071,E4,159.5,0.25,58,160.0
1072,G3,159.5,2.5,57,160.0
1073,G4,159.75,0.25,63,160.0
1074,B-4,160.0,0.25,55,160.0
1075,B-3,160.0,0.5,61,160.0
1076,C#5,160.25,0.25,53,160.0
1077,E5,160.5,0.25,52,160.0
1078,C#4,160.5,0.5,64,160.0
1079,G5,160.75,0.25,52,160.0
1080,B-5,161.0,0.25,49,160.0
1081,C4,161.0,0.5,57,160.0
1082,E4,161.0,1.0,68,160.0
1083,C6,161.25,0.75,51,160.0
1084,E6,161.5,0.5,51,160.0
1085,B-3,161.5,0.5,63,160.0
1086,G6,161.75,0.25,52,160.0
1087,C7,162.0,0.5,54,160.0
1088,C6,162.0,0.25,51,160.0
1089,E6,162.0,0.25,51,160.0
1090,G6,162.0,0.25,52,160.0
1091,E4,162.0,0.5,68,160.0
1092,C4,162.0,0.5,59,160.0
1093,A3,162.0,0.5,59,160.0
1094,C6,162.25,0.5,48,160.0
1095,C7,162.5,0.5,53,160.0
1096,C4,162.5,1.0,46,160.0
1097,F4,162.5,1.0,46,160.0
1098,F6,162.75,0.25,49,160.0
1099,B5,163.0,0.5,56,160.0
1100,B6,163.0,0.25,56,160.0
1101,G3,163.0,1.0,54,160.0
1102,G#6,163.25,0.25,51,160.0
1103,D6,163.5,0.5,52,160.0
1104,G6,163.5,0.25,52,160.0
1105,F4,163.5,0.5,46,160.0
1106,B3,163.5,0.5,46,160.0
1107,F6,163.75,0.25,54,160.0
1108,A6,163.938,0.062,46,160.0
1109,G6,164.0,0.5,54,160.0
1110,E6,164.0,0.375,46,160.0
1111,C4,164.0,0.5,45,160.0
1112,C3,164.0,1.0,37,160.0
1113,C#6,164.375,0.125,52,160.0
1114,F6,164.438,0.062,45,160.0
1115,E6,164.5,0.5,56,160.0
1116,C6,164.5,0.375,47,160.0
1117,B-3,164.5,0.5,39,160.0
1118,G3,164.5,0.5,39,160.0
1119,E4,164.5,0.5,39,160.0
1120,B-5,164.875,0.125,52,160.0
1121,D6,164.938,0.062,45,160.0
1122,C6,165.0,0.5,54,160.0
1123,A5,165.0,0.375,46,160.0
1124,F4,165.0,0.5,45,160.0
1125,F3,165.0,1.0,37,160.0
1126,F#5,165.375,0.125,52,160.0
1127,B-5,165.438,0.062,49,160.0
1128,A5,165.5,0.5,54,160.0
1129,F5,165.5,0.375,47,160.0
1130,E-4,165.5,0.5,35,160.0
1131,C4,165.5,0.5,35,160.0
1132,A4,165.5,0.5,35,160.0
1133,E-5,165.875,0.125,52,160.0
1134,B-5,166.0,0.75,67,160.0
1135,D5,166.0,0.25,67,160.0
1136,B-3,166.0,2.0,67,160.0
1137,G5,166.25,0.25,61,160.0
1138,B-5,166.5,0.5,64,160.0
1139,G4,166.5,1.5,46,160.0
1140,F4,166.5,1.5,46,160.0
1141,D4,166.5,1.5,46,160.0
1142,C#6,166.75,0.25,66,160.0
1143,D6,167.0,0.25,68,160.0
1144,G6,167.25,0.25,70,160.0
1145,B-6,167.5,0.25,72,160.0
1146,C#7,167.75,0.25,74,160.0
1147,D7,168.0,0.75,76,160.0
1148,C3,168.0,0.5,56,160.0
1149,C4,168.0,0.5,56,160.0
1150,E6,168.25,0.75,54,160.0
1151,F#6,168.25,0.25,68,160.0
1152,G6,168.5,0.25,63,160.0
1153,E4,168.5,1.0,60,160.0
1154,C4,168.5,1.0,60,160.0
1155,B-3,168.5,1.0,60,160.0
1156,G3,168.5,1.0,60,160.0
1157,C7,168.75,0.25,60,160.0
1158,A6,169.0,0.75,76,160.0
1159,C6,169.25,0.75,52,160.0
1160,E-6,169.25,0.25,65,160.0
1161,E6,169.5,0.25,60,160.0
1162,B-4,169.5,1.0,61,160.0
1163,G4,169.5,1.0,61,160.0
1164,C4,169.5,1.0,61,160.0
1165,G6,169.75,0.25,59,160.0
1166,F6,170.0,0.75,75,160.0
1167,B-5,170.25,0.75,52,160.0
1168,C#6,170.25,0.25,60,160.0
1169,C6,170.5,0.25,56,160.0
1170,E3,170.5,0.5,62,160.0
1171,B-3,170.5,0.5,62,160.0
1172,E6,170.75,0.25,56,160.0
1173,F6,171.0,0.25,73,160.0
1174,A3,171.0,0.5,52,160.0
1175,C4,171.0,0.5,52,160.0
1176,C6,171.25,0.25,63,160.0
1177,A5,171.5,0.25,66,160.0
1178,A6,171.75,0.25,60,160.0
1179,F2,172.0,1.0,47,160.0
1180,C3,172.062,0.938,47,160.0
1181,F3,172.125,0.875,56,160.0
1182,A3,172.188,0.812,49,160.0
1183,C4,172.25,0.75,49,160.0
1184,F4,172.312,0.688,58,160.0
1185,A6,173.5,0.25,65,160.0
1186,C7,173.5,0.5,77,160.0
1187,E-6,173.5,0.5,72,160.0
1188,C6,173.75,0.25,65,160.0
1189,F#6,173.75,0.25,65,160.0
1190,G6,174.0,0.5,75,160.0
1191,E6,174.0,0.5,77,160.0
1192,C6,174.25,0.25,68,160.0
1193,A5,174.5,0.25,63,160.0
1194,C6,174.5,0.5,74,160.0
1195,E-5,174.5,0.5,71,160.0
1196,C5,174.75,0.25,60,160.0
1197,F#5,174.75,0.25,60,160.0
1198,G5,175.0,0.5,71,160.0
1199,E5,175.0,0.5,76,160.0
1200,C5,175.25,0.25,63,160.0
1201,A4,175.5,0.25,58,160.0
1202,C5,175.5,0.5,69,160.0
1203,E-4,175.5,0.5,66,160.0
1204,C4,175.75,0.25,56,160.0
1205,F#4,175.75,0.25,56,160.0
1206,G4,176.0,0.5,65,160.0
1207,E4,176.0,0.5,72,160.0
1208,F4,176.25,0.25,63,160.0
1209,G4,176.5,0.5,71,160.0
1210,E4,176.5,0.25,59,160.0
1211,B-1,176.5,0.5,61,160.0
1212,B-2,176.5,0.5,61,160.0
1213,D4,176.75,0.25,65,160.0
1214,A4,177.0,0.5,69,160.0
1215,C#4,177.0,0.25,58,160.0
1216,A1,177.0,0.5,70,160.0
1217,A2,177.0,0.5,70,160.0
1218,B-3,177.25,0.25,58,160.0
1219,E4,177.5,2.5,58,160.0
1220,A3,177.5,0.25,54,160.0
1221,E3,177.75,0.25,47,160.0
1222,G4,178.0,0.5,63,160.0
1223,C#3,178.0,0.25,52,160.0
1224,B-2,178.25,0.25,51,160.0
1225,B-4,178.5,0.5,68,160.0
1226,A2,178.5,0.25,49,160.0
1227,G2,178.75,0.25,48,160.0
1228,A4,179.0,0.5,58,160.0
1229,C#5,179.0,1.0,70,160.0
1230,E2,179.0,0.25,47,160.0
1231,C#2,179.25,0.25,49,160.0
1232,G4,179.5,0.5,69,160.0
1233,B-1,179.5,0.25,51,160.0
1234,A1,179.75,0.25,53,160.0
1235,D2,180.0,0.25,55,160.0
1236,D5,180.0,0.5,64,160.0
1237,F4,180.0,0.5,64,160.0
1238,F2,180.25,0.25,55,160.0
1239,C#6,180.5,0.25,65,160.0
1240,A6,180.5,0.5,77,160.0
1241,A2,180.5,0.25,56,160.0
1242,C#3,180.75,0.25,57,160.0
1243,G5,180.75,0.25,65,160.0
1244,E6,180.75,0.25,65,160.0
1245,D6,181.0,0.25,65,160.0
1246,F6,181.0,0.5,75,160.0
1247,D3,181.0,0.25,57,160.0
1248,F5,181.25,0.25,68,160.0
1249,F3,181.25,0.25,58,160.0
1250,C5,181.5,0.25,63,160.0
1251,A5,181.5,0.5,74,160.0
1252,A3,181.5,0.25,59,160.0
1253,C#4,181.75,0.25,60,160.0
1254,G4,181.75,0.25,60,160.0
1255,E5,181.75,0.25,60,160.0
1256,D5,182.0,0.25,65,160.0
1257,F5,182.0,0.5,71,160.0
1258,D4,182.0,0.25,60,160.0
1259,E4,182.25,0.25,63,160.0
1260,F4,182.5,0.25,58,160.0
1261,B4,182.5,0.5,69,160.0
1262,C#2,182.5,0.5,61,160.0
1263,C#3,182.5,0.5,61,160.0
1264,G4,182.75,0.25,60,160.0
1265,G#4,183.0,0.25,63,160.0
1266,C5,183.0,1.0,68,160.0
1267,C2,183.0,0.5,70,160.0
1268,C3,183.0,0.5,70,160.0
1269,F4,183.25,0.25,63,160.0
1270,E4,183.5,0.25,59,160.0
1271,G3,183.5,2.5,58,160.0
1272,G4,183.75,0.25,65,160.0
1273,B-4,184.0,0.25,56,160.0
1274,B-3,184.0,0.5,62,160.0
1275,C#5,184.25,0.25,54,160.0
1276,E5,184.5,0.25,53,160.0
1277,C#4,184.5,0.5,65,160.0
1278,G5,184.75,0.25,52,160.0
1279,B-5,185.0,0.25,50,160.0
1280,C4,185.0,0.5,57,160.0
1281,E4,185.0,1.0,69,160.0
1282,C6,185.25,0.75,52,160.0
1283,E6,185.5,0.5,52,160.0
1284,B-3,185.5,0.5,64,160.0
1285,G6,185.75,0.25,53,160.0
1286,C7,186.0,0.5,55,160.0
1287,C6,186.0,0.25,52,160.0
1288,E6,186.0,0.25,52,160.0
1289,G6,186.0,0.25,53,160.0
1290,E4,186.0,0.5,69,160.0
1291,C4,186.0,0.5,60,160.0
1292,A3,186.0,0.5,60,160.0
1293,C6,186.25,0.5,49,160.0
1294,C7,186.5,0.5,53,160.0
1295,C4,186.5,1.0,46,160.0
1296,F4,186.5,1.0,46,160.0
1297,F6,186.75,0.25,49,160.0
1298,B5,187.0,0.5,56,160.0
1299,B6,187.0,0.25,56,160.0
1300,G3,187.0,1.0,54,160.0
1301,G#6,187.25,0.25,51,160.0
1302,D6,187.5,0.5,52,160.0
1303,G6,187.5,0.25,52,160.0
1304,F4,187.5,0.5,46,160.0
1305,B3,187.5,0.5,46,160.0
1306,F6,187.75,0.25,54,160.0
1307,A6,187.938,0.062,46,160.0
1308,G6,188.0,0.5,54,160.0
1309,E6,188.0,0.375,46,160.0
1310,C4,188.0,0.5,45,160.0
1311,C3,188.0,1.0,37,160.0
1312,C#6,188.375,0.125,52,160.0
1313,F6,188.438,0.062,45,160.0
1314,E6,188.5,0.5,56,160.0
1315,C6,188.5,0.375,47,160.0
1316,B-3,188.5,0.5,39,160.0
1317,G3,188.5,0.5,39,160.0
1318,E4,188.5,0.5,39,160.0
1319,B-5,188.875,0.125,52,160.0
1320,D6,188.938,0.062,45,160.0
1321,C6,189.0,0.5,54,160.0
1322,A5,189.0,0.375,46,160.0
1323,F4,189.0,0.5,45,160.0
1324,F3,189.0,1.0,37,160.0
1325,F#5,189.375,0.125,52,160.0
1326,B-5,189.438,0.062,49,160.0
1327,A5,189.5,0.5,54,160.0
1328,F5,189.5,0.375,47,160.0
1329,E-4,189.5,0.5,35,160.0
1330,C4,189.5,0.5,35,160.0
1331,A4,189.5,0.5,35,160.0
1332,E-5,189.875,0.125,52,160.0
1333,B-5,190.0,0.75,60,160.0
1334,D5,190.0,0.25,60,160.0
1335,B-3,190.0,2.0,60,160.0
1336,G5,190.25,0.25,58,160.0
1337,B-5,190.5,0.5,61,160.0
1338,G4,190.5,1.5,46,160.0
1339,F4,190.5,1.5,46,160.0
1340,D4,190.5,1.5,46,160.0
1341,C#6,190.75,0.25,64,160.0
1342,D6,191.0,0.25,68,160.0
1343,G6,191.25,0.25,70,160.0
1344,B-6,191.5,0.25,72,160.0
1345,C#7,191.75,0.25,74,160.0
1346,D7,192.0,0.75,75,160.0
1347,C3,192.0,0.5,56,160.0
1348,C4,192.0,0.5,56,160.0
1349,E6,192.25,0.75,54,160.0
1350,F#6,192.25,0.25,68,160.0
1351,G6,192.5,0.25,62,160.0
1352,E4,192.5,1.0,60,160.0
1353,C4,192.5,1.0,60,160.0
1354,B-3,192.5,1.0,60,160.0
1355,G3,192.5,1.0,60,160.0
1356,C7,192.75,0.25,62,160.0
1357,A6,193.0,0.75,76,160.0
1358,C6,193.25,0.75,52,160.0
1359,E-6,193.25,0.25,65,160.0
1360,E6,193.5,0.25,61,160.0
1361,B-4,193.5,1.0,61,160.0
1362,G4,193.5,1.0,61,160.0
1363,C4,193.5,1.0,61,160.0
1364,G6,193.75,0.25,62,160.0
1365,F6,194.0,0.75,75,160.0
1366,B-5,194.25,0.75,52,160.0
1367,C#6,194.25,0.25,60,160.0
1368,C6,194.5,0.25,58,160.0
1369,E3,194.5,0.5,62,160.0
1370,B-3,194.5,0.5,62,160.0
1371,E6,194.75,0.25,59,160.0
1372,F6,195.0,0.25,73,160.0
1373,A3,195.0,0.5,52,160.0
1374,C4,195.0,0.5,52,160.0
1375,C6,195.25,0.25,63,160.0
1376,A5,195.5,0.25,66,160.0
1377,A6,195.75,0.25,60,160.0
1378,F2,196.0,1.0,47,160.0
1379,C3,196.062,0.938,47,160.0
1380,F3,196.125,0.875,56,160.0
1381,A3,196.188,0.812,49,160.0
1382,C4,196.25,0.75,49,160.0
1383,F4,196.312,0.688,58,160.0
1384,A4,200.0,1.0,48,160.0
1385,C4,200.25,113/250,35,160.0
1386,E-4,200.25,113/250,35,160.0
1387,F#3,200.5,0.5,44,160.0
1388,E-4,200.75,0.25,35,160.0
1389,C4,200.75,0.25,35,160.0
1390,B-4,201.0,521/500,49,160.0
1391,A4,201.0,21/500,48,160.0
1392,F#3,201.0,0.5,44,160.0
1393,E4,201.25,113/250,38,160.0
1394,C4,201.25,113/250,38,160.0
1395,G3,201.5,1.0,46,160.0
1396,E4,201.75,0.25,38,160.0
1397,C4,201.75,0.25,38,160.0
1398,B4,202.0,521/500,54,160.0
1399,D4,202.25,113/250,40,160.0
1400,F4,202.25,113/250,40,160.0
1401,G#3,202.5,1.0,49,160.0
1402,F4,202.75,0.25,40,160.0
1403,D4,202.75,0.25,40,160.0
1404,C5,203.0,1.0,60,160.0
1405,C4,203.25,113/250,42,160.0
1406,F4,203.25,113/250,42,160.0
1407,A3,203.5,0.5,51,160.0
1408,F4,203.75,0.25,43,160.0
1409,C4,203.75,0.25,43,160.0
1410,C#5,204.0,521/500,65,160.0
1411,C5,204.0,21/500,60,160.0
1412,A3,204.0,0.5,51,160.0
1413,G4,204.25,113/250,44,160.0
1414,E4,204.25,113/250,44,160.0
1415,B-3,204.5,1.0,53,160.0
1416,G4,204.75,0.25,45,160.0
1417,E4,204.75,0.25,45,160.0
1418,D5,205.0,521/500,68,160.0
1419,F4,205.25,113/250,47,160.0
1420,G#4,205.25,113/250,47,160.0
1421,B3,205.5,1.0,55,160.0
1422,G#4,205.75,0.25,48,160.0
1423,F4,205.75,0.25,48,160.0
1424,C5,206.0,1.0,68,160.0
1425,E4,206.25,113/250,48,160.0
1426,G4,206.25,113/250,48,160.0
1427,C4,206.5,0.5,58,160.0
1428,G4,206.75,0.25,49,160.0
1429,E4,206.75,0.25,49,160.0
1430,C5,207.0,1.0,73,160.0
1431,C4,207.0,0.5,58,160.0
1432,F4,207.25,19/40,50,160.0
1433,A4,207.25,19/40,50,160.0
1434,F3,207.5,1.0,61,160.0
1435,F4,207.75,0.25,50,160.0
1436,A4,207.75,0.25,50,160.0
1437,D5,208.0,521/500,77,160.0
1438,A4,208.25,19/40,51,160.0
1439,D4,208.25,19/40,51,160.0
1440,F#3,208.5,1.0,63,160.0
1441,D4,208.75,0.25,51,160.0
1442,A4,208.75,0.25,51,160.0
1443,B-4,209.0,1.0,73,160.0
1444,G4,209.25,19/40,49,160.0
1445,D4,209.25,19/40,49,160.0
1446,G3,209.5,0.5,60,160.0
1447,G4,209.75,0.25,46,160.0
1448,D4,209.75,0.25,46,160.0
1449,C5,210.0,521/500,69,160.0
1450,B-4,210.0,21/500,73,160.0
1451,G3,210.0,0.5,60,160.0
1452,C4,210.25,19/40,48,160.0
1453,G4,210.25,19/40,48,160.0
1454,E3,210.5,1.0,58,160.0
1455,C4,210.75,0.25,48,160.0
1456,G4,210.75,0.25,48,160.0
1457,A4,211.0,521/500,70,160.0
1458,F4,211.25,19/40,45,160.0
1459,C4,211.25,19/40,45,160.0
1460,F3,211.5,1.0,54,160.0
1461,C4,211.75,0.25,45,160.0
1462,F4,211.75,0.25,45,160.0
1463,G4,212.0,1.0,65,160.0
1464,C#4,212.25,19/40,45,160.0
1465,A3,212.25,19/40,45,160.0
1466,E3,212.5,0.5,51,160.0
1467,A3,212.75,0.25,45,160.0
1468,C#4,212.75,0.25,45,160.0
1469,F4,213.0,521/500,61,160.0
1470,G4,213.0,21/500,65,160.0
1471,E3,213.0,0.5,51,160.0
1472,A3,213.25,19/40,44,160.0
1473,D4,213.25,19/40,44,160.0
1474,D3,213.5,1.0,49,160.0
1475,D4,213.75,0.25,44,160.0
1476,A3,213.75,0.25,44,160.0
1477,E-4,214.0,521/500,59,160.0
1478,A3,214.25,19/40,42,160.0
1479,F3,214.25,19/40,42,160.0
1480,C3,214.5,1.0,49,160.0
1481,F3,214.75,0.25,42,160.0
1482,A3,214.75,0.25,42,160.0
1483,D4,215.0,1.0,57,160.0
1484,F3,215.25,19/40,42,160.0
1485,B-3,215.25,19/40,42,160.0
1486,B-2,215.5,0.5,48,160.0
1487,F3,215.75,0.25,42,160.0
1488,B-3,215.75,0.25,42,160.0
1489,C4,216.0,521/500,56,160.0
1490,D4,216.0,21/500,57,160.0
1491,B-2,216.0,0.5,48,160.0
1492,D3,216.25,19/40,40,160.0
1493,F#3,216.25,19/40,40,160.0
1494,A2,216.5,1.0,47,160.0
1495,F#3,216.75,0.25,38,160.0
1496,D3,216.75,0.25,38,160.0
1497,B-3,217.0,521/500,54,160.0
1498,G3,217.25,19/40,38,160.0
1499,D3,217.25,19/40,38,160.0
1500,G2,217.5,1.0,46,160.0
1501,D3,217.75,0.25,38,160.0
1502,G3,217.75,0.25,38,160.0
1503,B3,218.0,1.0,49,160.0
1504,D3,218.25,19/40,35,160.0
1505,G#3,218.25,19/40,35,160.0
1506,F2,218.5,0.5,45,160.0
1507,D3,218.75,0.25,35,160.0
1508,G#3,218.75,0.25,35,160.0
1509,B3,219.0,21/500,49,160.0
1510,F2,219.0,0.5,45,160.0
1511,B-3,219.0,1.0,45,160.0
1512,C4,219.0,1.0,45,160.0
1513,C3,219.25,19/40,33,160.0
1514,G3,219.25,19/40,33,160.0
1515,E2,219.5,1.0,41,160.0
1516,G3,219.75,119/500,33,160.0
1517,C3,219.75,119/500,33,160.0
1518,B-3,220.0,1.0,44,160.0
1519,C4,220.0,1.0,44,160.0
1520,F#3,220.25,19/40,34,160.0
1521,C3,220.25,19/40,34,160.0
1522,E-2,220.5,1.0,40,160.0
1523,C3,220.75,0.25,34,160.0
1524,F#3,220.75,0.25,34,160.0
1525,C4,221.0,1.0,43,160.0
1526,B-3,221.0,1.0,43,160.0
1527,C3,221.25,19/40,32,160.0
1528,G3,221.25,19/40,32,160.0
1529,E2,221.5,0.5,35,160.0
1530,G3,221.75,0.25,32,160.0
1531,C3,221.75,0.25,32,160.0
1532,C4,222.0,1.0,43,160.0
1533,E2,222.0,0.5,35,160.0
1534,A3,222.25,19/40,28,160.0
1535,F3,222.25,19/40,28,160.0
1536,F2,222.5,1.0,35,160.0
1537,A3,222.75,0.25,28,160.0
1538,F3,222.75,0.25,28,160.0
1539,F4,223.0,1.0,43,160.0
1540,A3,223.25,19/40,28,160.0
1541,C4,223.25,19/40,28,160.0
1542,C2,223.5,0.5,35,160.0
1543,C4,223.75,0.25,28,160.0
1544,A3,223.75,0.25,28,160.0
1545,A4,224.0,1.0,45,160.0
1546,C4,224.25,19/40,31,160.0
1547,E-4,224.25,19/40,31,160.0
1548,F#5,224.5,0.5,48,160.0
1549,C4,224.75,0.25,35,160.0
1550,E-4,224.75,0.25,35,160.0
1551,B-4,225.0,521/500,49,160.0
1552,A4,225.0,21/500,45,160.0
1553,F#5,225.0,0.5,48,160.0
1554,C4,225.25,19/40,38,160.0
1555,E4,225.25,19/40,38,160.0
1556,G5,225.5,1.0,49,160.0
1557,C4,225.75,0.25,38,160.0
1558,E4,225.75,0.25,38,160.0
1559,B4,226.0,521/500,54,160.0
1560,D4,226.25,19/40,40,160.0
1561,F4,226.25,19/40,40,160.0
1562,G#5,226.5,1.0,53,160.0
1563,D4,226.75,0.25,40,160.0
1564,F4,226.75,0.25,40,160.0
1565,C5,227.0,1.0,60,160.0
1566,C4,227.25,19/40,42,160.0
1567,F4,227.25,19/40,42,160.0
1568,A5,227.5,0.5,56,160.0
1569,C4,227.75,0.25,43,160.0
1570,F4,227.75,0.25,43,160.0
1571,C#5,228.0,521/500,65,160.0
1572,C5,228.0,21/500,60,160.0
1573,A5,228.0,0.5,56,160.0
1574,E4,228.25,19/40,44,160.0
1575,G4,228.25,19/40,44,160.0
1576,B-5,228.5,1.0,58,160.0
1577,E4,228.75,0.25,45,160.0
1578,G4,228.75,0.25,45,160.0
1579,D5,229.0,521/500,68,160.0
1580,F4,229.25,19/40,47,160.0
1581,G#4,229.25,19/40,47,160.0
1582,B5,229.5,1.0,60,160.0
1583,F4,229.75,0.25,48,160.0
1584,G#4,229.75,0.25,48,160.0
1585,C5,230.0,1.0,68,160.0
1586,E4,230.25,19/40,48,160.0
1587,G4,230.25,19/40,48,160.0
1588,C6,230.5,0.5,63,160.0
1589,E4,230.75,0.25,49,160.0
1590,G4,230.75,0.25,49,160.0
1591,C5,231.0,1.0,73,160.0
1592,C6,231.0,0.5,63,160.0
1593,F4,231.25,19/40,50,160.0
1594,A4,231.25,19/40,50,160.0
1595,F5,231.5,1.0,66,160.0
1596,F4,231.75,0.25,50,160.0
1597,A4,231.75,0.25,50,160.0
1598,D5,232.0,521/500,77,160.0
1599,D4,232.25,19/40,51,160.0
1600,A4,232.25,19/40,51,160.0
1601,F#5,232.5,1.0,69,160.0
1602,D4,232.75,0.25,51,160.0
1603,A4,232.75,0.25,51,160.0
1604,B-4,233.0,1.0,73,160.0
1605,D4,233.25,19/40,49,160.0
1606,G4,233.25,19/40,49,160.0
1607,G5,233.5,0.5,66,160.0
1608,D4,233.75,0.25,46,160.0
1609,G4,233.75,0.25,46,160.0
1610,C5,234.0,521/500,69,160.0
1611,B-4,234.0,21/500,73,160.0
1612,G5,234.0,0.5,66,160.0
1613,C4,234.25,19/40,48,160.0
1614,G4,234.25,19/40,48,160.0
1615,E5,234.5,1.0,63,160.0
1616,C4,234.75,0.25,48,160.0
1617,G4,234.75,0.25,48,160.0
1618,A4,235.0,521/500,70,160.0
1619,C4,235.25,19/40,45,160.0
1620,F4,235.25,19/40,45,160.0
1621,F5,235.5,1.0,59,160.0
1622,C4,235.75,0.25,45,160.0
1623,F4,235.75,0.25,45,160.0
1624,G4,236.0,1.0,65,160.0
1625,A3,236.25,19/40,45,160.0
1626,C#4,236.25,19/40,45,160.0
1627,E5,236.5,0.5,56,160.0
1628,A3,236.75,0.25,45,160.0
1629,C#4,236.75,0.25,45,160.0
1630,F4,237.0,521/500,61,160.0
1631,G4,237.0,21/500,65,160.0
1632,E5,237.0,0.5,56,160.0
1633,A3,237.25,19/40,44,160.0
1634,D4,237.25,19/40,44,160.0
1635,D5,237.5,1.0,54,160.0
1636,A3,237.75,0.25,44,160.0
1637,D4,237.75,0.25,44,160.0
1638,E-4,238.0,521/500,59,160.0
1639,F3,238.25,19/40,42,160.0
1640,A3,238.25,19/40,42,160.0
1641,C5,238.5,1.0,53,160.0
1642,F3,238.75,0.25,42,160.0
1643,A3,238.75,0.25,42,160.0
1644,D4,239.0,1.0,57,160.0
1645,F3,239.25,19/40,42,160.0
1646,B-3,239.25,19/40,42,160.0
1647,B-4,239.5,0.5,52,160.0
1648,F3,239.75,0.25,42,160.0
1649,B-3,239.75,0.25,42,160.0
1650,C4,240.0,521/500,56,160.0
1651,D4,240.0,21/500,57,160.0
1652,B-4,240.0,0.5,52,160.0
1653,D3,240.25,19/40,40,160.0
1654,F#3,240.25,19/40,40,160.0
1655,A4,240.5,1.0,51,160.0
1656,D3,240.75,0.25,38,160.0
1657,F#3,240.75,0.25,38,160.0
1658,B-3,241.0,521/500,54,160.0
1659,D3,241.25,19/40,38,160.0
1660,G3,241.25,19/40,38,160.0
1661,G4,241.5,1.0,50,160.0
1662,D3,241.75,0.25,38,160.0
1663,G3,241.75,0.25,38,160.0
1664,B3,242.0,1.0,49,160.0
1665,D3,242.25,19/40,35,160.0
1666,G#3,242.25,19/40,35,160.0
1667,F4,242.5,0.5,49,160.0
1668,D3,242.75,0.25,35,160.0
1669,G#3,242.75,0.25,35,160.0
1670,B3,243.0,21/500,49,160.0
1671,F4,243.0,0.5,49,160.0
1672,C4,243.0,1.0,45,160.0
1673,B-3,243.0,1.0,45,160.0
1674,C3,243.25,19/40,33,160.0
1675,G3,243.25,19/40,33,160.0
1676,E4,243.5,1.0,45,160.0
1677,C3,243.75,0.25,33,160.0
1678,G3,243.75,0.25,33,160.0
1679,C4,244.0,1.0,44,160.0
1680,B-3,244.0,1.0,44,160.0
1681,C3,244.25,19/40,34,160.0
1682,F#3,244.25,19/40,34,160.0
1683,E-4,244.5,1.0,44,160.0
1684,C3,244.75,0.25,34,160.0
1685,F#3,244.75,0.25,34,160.0
1686,C4,245.0,1.0,43,160.0
1687,B-3,245.0,1.0,43,160.0
1688,C3,245.25,19/40,32,160.0
1689,G3,245.25,19/40,32,160.0
1690,E4,245.5,0.5,38,160.0
1691,C3,245.75,0.25,32,160.0
1692,G3,245.75,0.25,32,160.0
1693,E4,246.0,0.5,38,160.0
1694,A3,246.0,1.0,40,160.0
1695,C4,246.0,1.0,40,160.0
1696,C3,246.25,19/40,28,160.0
1697,F3,246.25,19/40,28,160.0
1698,F4,246.5,1.0,38,160.0
1699,C3,246.75,0.25,28,160.0
1700,F3,246.75,0.25,28,160.0
1701,A3,247.0,1.0,40,160.0
1702,C4,247.0,1.0,40,160.0
1703,C3,247.25,19/40,28,160.0
1704,F3,247.25,19/40,28,160.0
1705,C5,247.5,0.5,38,160.0
1706,C3,247.75,0.25,28,160.0
1707,F3,247.75,0.25,28,160.0
1708,F4,248.0,1.0,48,160.0
1709,A3,248.25,19/40,33,160.0
1710,C4,248.25,19/40,33,160.0
1711,F1,248.5,0.5,40,160.0
1712,F2,248.5,0.5,40,160.0
1713,A3,248.75,0.25,35,160.0
1714,C4,248.75,0.25,35,160.0
1715,E4,249.0,521/500,49,160.0
1716,F4,249.0,21/500,48,160.0
1717,F1,249.0,0.5,40,160.0
1718,F2,249.0,0.5,40,160.0
1719,G3,249.25,19/40,38,160.0
1720,B-3,249.25,19/40,38,160.0
1721,G1,249.5,1.0,41,160.0
1722,G2,249.5,1.0,41,160.0
1723,G3,249.75,0.25,38,160.0
1724,B-3,249.75,0.25,38,160.0
1725,D4,250.0,521/500,54,160.0
1726,F3,250.25,19/40,40,160.0
1727,B3,250.25,19/40,40,160.0
1728,G#1,250.5,1.0,44,160.0
1729,G#2,250.5,1.0,44,160.0
1730,F3,250.75,0.25,40,160.0
1731,B3,250.75,0.25,40,160.0
1732,C#4,251.0,1.0,60,160.0
1733,E3,251.25,19/40,42,160.0
1734,A3,251.25,19/40,42,160.0
1735,A1,251.5,0.5,46,160.0
1736,A2,251.5,0.5,46,160.0
1737,E3,251.75,0.25,43,160.0
1738,A3,251.75,0.25,43,160.0
1739,D4,252.0,521/500,65,160.0
1740,C#4,252.0,21/500,60,160.0
1741,F3,252.25,19/40,44,160.0
1742,G#3,252.25,19/40,44,160.0
1743,A1,252.5,0.5,46,160.0
1744,A2,252.5,0.5,46,160.0
1745,F3,252.75,0.25,45,160.0
1746,G#3,252.75,0.25,45,160.0
1747,E-4,253.0,521/500,68,160.0
1748,B1,253.0,1.0,48,160.0
1749,B2,253.0,1.0,48,160.0
1750,F#3,253.25,19/40,47,160.0
1751,A3,253.25,19/40,47,160.0
1752,F#3,253.75,0.25,48,160.0
1753,A3,253.75,0.25,48,160.0
1754,E4,254.0,1.0,68,160.0
1755,C2,254.0,1.0,50,160.0
1756,C3,254.0,1.0,50,160.0
1757,G3,254.25,19/40,48,160.0
1758,A3,254.25,19/40,48,160.0
1759,G3,254.75,0.25,49,160.0
1760,A3,254.75,0.25,49,160.0
1761,F4,255.0,1.0,73,160.0
1762,E4,255.0,21/500,68,160.0
1763,C#2,255.0,0.5,52,160.0
1764,C#3,255.0,0.5,52,160.0
1765,F3,255.25,19/40,50,160.0
1766,A3,255.25,19/40,50,160.0
1767,F3,255.75,0.25,50,160.0
1768,A3,255.75,0.25,50,160.0
1769,C#4,256.0,521/500,77,160.0
1770,C#2,256.0,0.5,52,160.0
1771,C#3,256.0,0.5,52,160.0
1772,G3,256.25,19/40,51,160.0
1773,B-3,256.25,19/40,51,160.0
1774,D2,256.5,1.0,54,160.0
1775,D3,256.5,1.0,54,160.0
1776,G3,256.75,0.25,51,160.0
1777,B-3,256.75,0.25,51,160.0
1778,D4,257.0,1.0,73,160.0
1779,F3,257.25,19/40,49,160.0
1780,A3,257.25,19/40,49,160.0
1781,E4,257.5,1.0,69,160.0
1782,F3,257.75,0.25,46,160.0
1783,A3,257.75,0.25,46,160.0
1784,C4,258.0,521/500,69,160.0
1785,D4,258.0,21/500,73,160.0
1786,D3,258.25,19/40,48,160.0
1787,A3,258.25,19/40,48,160.0
1788,F4,258.5,0.5,66,160.0
1789,D3,258.75,0.25,48,160.0
1790,A3,258.75,0.25,48,160.0
1791,B-3,259.0,1.0,70,160.0
1792,F4,259.0,0.5,66,160.0
1793,D3,259.25,19/40,45,160.0
1794,G3,259.25,19/40,45,160.0
1795,F#4,259.5,1.0,63,160.0
1796,D3,259.75,0.25,45,160.0
1797,G3,259.75,0.25,45,160.0
1798,B3,260.0,1.0,65,160.0
1799,D3,260.25,19/40,45,160.0
1800,F3,260.25,19/40,45,160.0
1801,G4,260.5,1.0,59,160.0
1802,D3,260.75,0.25,45,160.0
1803,F3,260.75,0.25,45,160.0
1804,C4,261.0,521/500,61,160.0
1805,B3,261.0,21/500,65,160.0
1806,C3,261.25,19/40,44,160.0
1807,F3,261.25,19/40,44,160.0
1808,G#4,261.5,0.5,56,160.0
1809,C3,261.75,0.25,44,160.0
1810,F3,261.75,0.25,44,160.0
1811,B3,262.0,521/500,59,160.0
1812,G#4,262.0,0.5,56,160.0
1813,D3,262.25,19/40,42,160.0
1814,F3,262.25,19/40,42,160.0
1815,A4,262.5,1.0,54,160.0
1816,D3,262.75,0.25,42,160.0
1817,F3,262.75,0.25,42,160.0
1818,C4,263.0,1.0,57,160.0
1819,C3,263.25,19/40,42,160.0
1820,F3,263.25,19/40,42,160.0
1821,G#4,263.5,1.0,53,160.0
1822,C3,263.75,0.25,42,160.0
1823,F3,263.75,0.25,42,160.0
1824,B3,264.0,521/500,56,160.0
1825,C4,264.0,21/500,57,160.0
1826,D3,264.25,19/40,40,160.0
1827,F3,264.25,19/40,40,160.0
1828,A4,264.5,0.5,52,160.0
1829,D3,264.75,0.25,38,160.0
1830,F3,264.75,0.25,38,160.0
1831,C4,265.0,521/500,54,160.0
1832,A4,265.0,0.5,52,160.0
1833,D3,265.25,19/40,38,160.0
1834,F3,265.25,19/40,38,160.0
1835,G4,265.5,1.0,51,160.0
1836,D3,265.75,0.25,38,160.0
1837,F3,265.75,0.25,38,160.0
1838,B3,266.0,1.0,49,160.0
1839,D3,266.25,19/40,35,160.0
1840,F3,266.25,19/40,35,160.0
1841,G#4,266.5,1.0,50,160.0
1842,D3,266.75,0.25,35,160.0
1843,F3,266.75,0.25,35,160.0
1844,C4,267.0,1.0,45,160.0
1845,B-3,267.0,1.0,45,160.0
1846,C3,267.25,19/40,33,160.0
1847,G3,267.25,19/40,33,160.0
1848,G4,267.5,0.5,49,160.0
1849,C3,267.75,0.25,33,160.0
1850,G3,267.75,0.25,33,160.0
1851,G4,268.0,0.5,49,160.0
1852,C4,268.0,1.0,44,160.0
1853,B-3,268.0,1.0,44,160.0
1854,C3,268.25,19/40,34,160.0
1855,F#3,268.25,19/40,34,160.0
1856,E4,268.5,1.0,45,160.0
1857,C3,268.75,0.25,34,160.0
1858,F#3,268.75,0.25,34,160.0
1859,C4,269.0,1.0,43,160.0
1860,B-3,269.0,1.0,43,160.0
1861,C3,269.25,19/40,32,160.0
1862,G3,269.25,19/40,32,160.0
1863,E-4,269.5,1.0,44,160.0
1864,C3,269.75,0.25,32,160.0
1865,G3,269.75,0.25,32,160.0
1866,A3,270.0,1.0,40,160.0
1867,C4,270.0,1.0,40,160.0
1868,C3,270.25,19/40,28,160.0
1869,F3,270.25,19/40,28,160.0
1870,E4,270.5,0.5,38,160.0
1871,C3,270.75,0.25,28,160.0
1872,F3,270.75,0.25,28,160.0
1873,E4,271.0,0.5,38,160.0
1874,A3,271.0,1.0,40,160.0
1875,C4,271.0,1.0,40,160.0
1876,C3,271.25,19/40,28,160.0
1877,F3,271.25,19/40,28,160.0
1878,F4,271.5,1.0,38,160.0
1879,C3,271.75,0.25,28,160.0
1880,F3,271.75,0.25,28,160.0
1881,F4,272.0,1.0,48,160.0
1882,A3,272.25,19/40,33,160.0
1883,C4,272.25,19/40,33,160.0
1884,C5,272.5,0.5,38,160.0
1885,A3,272.75,0.25,35,160.0
1886,C4,272.75,0.25,35,160.0
1887,E4,273.0,521/500,49,160.0
1888,F4,273.0,21/500,48,160.0
1889,G3,273.25,19/40,38,160.0
1890,B-3,273.25,19/40,38,160.0
1891,F1,273.5,0.5,40,160.0
1892,F2,273.5,0.5,40,160.0
1893,G3,273.75,0.25,38,160.0
1894,B-3,273.75,0.25,38,160.0
1895,D4,274.0,521/500,54,160.0
1896,F1,274.0,0.5,40,160.0
1897,F2,274.0,0.5,40,160.0
1898,F3,274.25,19/40,40,160.0
1899,B3,274.25,19/40,40,160.0
1900,G1,274.5,1.0,41,160.0
1901,G2,274.5,1.0,41,160.0
1902,F3,274.75,0.25,40,160.0
1903,B3,274.75,0.25,40,160.0
1904,C#4,275.0,1.0,60,160.0
1905,E3,275.25,19/40,42,160.0
1906,A3,275.25,19/40,42,160.0
1907,G#1,275.5,1.0,44,160.0
1908,G#2,275.5,1.0,44,160.0
1909,E3,275.75,0.25,43,160.0
1910,A3,275.75,0.25,43,160.0
1911,D4,276.0,521/500,65,160.0
1912,C#4,276.0,21/500,60,160.0
1913,F3,276.25,19/40,44,160.0
1914,G#3,276.25,19/40,44,160.0
1915,A1,276.5,0.5,46,160.0
1916,A2,276.5,0.5,46,160.0
1917,F3,276.75,0.25,45,160.0
1918,G#3,276.75,0.25,45,160.0
1919,E-4,277.0,521/500,68,160.0
1920,F#3,277.25,19/40,47,160.0
1921,A3,277.25,19/40,47,160.0
1922,A1,277.5,0.5,46,160.0
1923,A2,277.5,0.5,46,160.0
1924,F#3,277.75,0.25,48,160.0
1925,A3,277.75,0.25,48,160.0
1926,E4,278.0,1.0,68,160.0
1927,B1,278.0,1.0,48,160.0
1928,B2,278.0,1.0,48,160.0
1929,G3,278.25,19/40,48,160.0
1930,A3,278.25,19/40,48,160.0
1931,G3,278.75,0.25,49,160.0
1932,A3,278.75,0.25,49,160.0
1933,F4,279.0,1.0,73,160.0
1934,E4,279.0,21/500,68,160.0
1935,C2,279.0,1.0,50,160.0
1936,C3,279.0,1.0,50,160.0
1937,F3,279.25,19/40,50,160.0
1938,A3,279.25,19/40,50,160.0
1939,F3,279.75,0.25,50,160.0
1940,A3,279.75,0.25,50,160.0
1941,C#4,280.0,521/500,77,160.0
1942,C#2,280.0,0.5,52,160.0
1943,C#3,280.0,0.5,52,160.0
1944,G3,280.25,19/40,51,160.0
1945,B-3,280.25,19/40,51,160.0
1946,G3,280.75,0.25,51,160.0
1947,B-3,280.75,0.25,51,160.0
1948,D4,281.0,1.0,73,160.0
1949,C#2,281.0,0.5,52,160.0
1950,C#3,281.0,0.5,52,160.0
1951,F3,281.25,19/40,49,160.0
1952,A3,281.25,19/40,49,160.0
1953,D2,281.5,1.0,54,160.0
1954,D3,281.5,1.0,54,160.0
1955,F3,281.75,0.25,46,160.0
1956,A3,281.75,0.25,46,160.0
1957,C4,282.0,1.0,69,160.0
1958,D4,282.0,21/500,73,160.0
1959,D3,282.25,19/40,48,160.0
1960,A3,282.25,19/40,48,160.0
1961,E4,282.5,1.0,69,160.0
1962,D3,282.75,0.25,48,160.0
1963,A3,282.75,0.25,48,160.0
1964,B-3,283.0,1.0,70,160.0
1965,D3,283.25,19/40,45,160.0
1966,G3,283.25,19/40,45,160.0
1967,F4,283.5,0.5,66,160.0
1968,D3,283.75,0.25,45,160.0
1969,G3,283.75,0.25,45,160.0
1970,B3,284.0,1.0,65,160.0
1971,F4,284.0,0.5,66,160.0
1972,D3,284.25,19/40,45,160.0
1973,F3,284.25,19/40,45,160.0
1974,F#4,284.5,1.0,63,160.0
1975,D3,284.75,0.25,45,160.0
1976,F3,284.75,0.25,45,160.0
1977,C4,285.0,521/500,61,160.0
1978,B3,285.0,21/500,65,160.0
1979,C3,285.25,19/40,44,160.0
1980,F3,285.25,19/40,44,160.0
1981,G4,285.5,1.0,59,160.0
1982,C3,285.75,0.25,44,160.0
1983,F3,285.75,0.25,44,160.0
1984,B3,286.0,521/500,59,160.0
1985,D3,286.25,19/40,42,160.0
1986,F3,286.25,19/40,42,160.0
1987,G#4,286.5,0.5,56,160.0
1988,D3,286.75,0.25,42,160.0
1989,F3,286.75,0.25,42,160.0
1990,C4,287.0,1.0,57,160.0
1991,G#4,287.0,0.5,56,160.0
1992,C3,287.25,19/40,42,160.0
1993,F3,287.25,19/40,42,160.0
1994,A4,287.5,1.0,54,160.0
1995,C3,287.75,0.25,42,160.0
1996,F3,287.75,0.25,42,160.0
1997,B3,288.0,521/500,56,160.0
1998,C4,288.0,21/500,57,160.0
1999,D3,288.25,19/40,40,160.0
2000,F3,288.25,19/40,40,160.0
2001,G#4,288.5,1.0,53,160.0
2002,D3,288.75,0.25,38,160.0
2003,F3,288.75,0.25,38,160.0
2004,C4,289.0,521/500,54,160.0
2005,D3,289.25,19/40,38,160.0
2006,F3,289.25,19/40,38,160.0
2007,A4,289.5,0.5,52,160.0
2008,D3,289.75,0.25,38,160.0
2009,F3,289.75,0.25,38,160.0
2010,B3,290.0,1.0,49,160.0
2011,A4,290.0,0.5,52,160.0
2012,D3,290.25,19/40,35,160.0
2013,F3,290.25,19/40,35,160.0
2014,G4,290.5,1.0,51,160.0
2015,D3,290.75,0.25,35,160.0
2016,F3,290.75,0.25,35,160.0
2017,C4,291.0,1.0,45,160.0
2018,B-3,291.0,1.0,45,160.0
2019,C3,291.25,19/40,32,160.0
2020,G3,291.25,19/40,32,160.0
2021,G#4,291.5,1.0,50,160.0
2022,C3,291.75,0.25,32,160.0
2023,G3,291.75,0.25,32,160.0
2024,C4,292.0,1.0,41,160.0
2025,B-3,292.0,1.0,41,160.0
2026,C3,292.25,19/40,32,160.0
2027,F#3,292.25,19/40,32,160.0
2028,G4,292.5,0.5,49,160.0
2029,C3,292.75,0.25,30,160.0
2030,F#3,292.75,0.25,30,160.0
2031,G4,293.0,0.5,49,160.0
2032,C4,293.0,1.0,38,160.0
2033,B-3,293.0,1.0,38,160.0
2034,C3,293.25,19/40,28,160.0
2035,G3,293.25,19/40,28,160.0
2036,E4,293.5,1.0,44,160.0
2037,C3,293.75,0.25,28,160.0
2038,G3,293.75,0.25,28,160.0
2039,A3,294.0,1.0,34,160.0
2040,C4,294.0,1.0,34,160.0
2041,C3,294.25,19/40,24,160.0
2042,F3,294.25,19/40,24,160.0
2043,E-4,294.5,1.0,40,160.0
2044,C3,294.75,0.25,23,160.0
2045,F3,294.75,0.25,23,160.0
2046,A3,295.0,1.0,28,160.0
2047,C4,295.0,1.0,28,160.0
2048,C3,295.25,19/40,20,160.0
2049,F3,295.25,19/40,20,160.0
2050,E4,295.5,0.5,33,160.0
2051,C3,295.75,0.25,18,160.0
2052,F3,295.75,0.25,18,160.0
2053,E4,296.0,0.5,33,160.0
2054,F4,296.5,1.0,32,160.0
2055,C5,297.5,0.5,32,160.0
2056,F#4,299.0,26/125,44,160.0
2057,G4,299.167,26/125,45,160.0
2058,A4,299.333,26/125,46,160.0
2059,B-4,299.5,26/125,46,160.0
2060,C5,299.667,26/125,47,160.0
2061,D5,299.833,167/1000,48,160.0
2062,E5,300.0,26/125,49,160.0
2063,D5,300.0,21/500,48,160.0
2064,G5,300.167,167/1000,47,160.0
2065,C5,300.333,26/125,47,160.0
2066,C#5,300.5,26/125,51,160.0
2067,B-5,300.667,167/1000,47,160.0
2068,A4,300.833,26/125,48,160.0
2069,B-4,301.0,26/125,51,160.0
2070,G5,301.167,167/1000,45,160.0
2071,F#4,301.333,26/125,45,160.0
2072,G4,301.5,26/125,51,160.0
2073,A4,301.667,26/125,46,160.0
2074,B-4,301.833,26/125,46,160.0
2075,C5,302.0,26/125,51,160.0
2076,C2,302.0,0.25,50,160.0
2077,D5,302.167,26/125,51,160.0
2078,E5,302.333,26/125,53,160.0
2079,F5,302.5,26/125,54,160.0
2080,E4,302.5,0.25,41,160.0
2081,C4,302.5,0.25,41,160.0
2082,G5,302.667,26/125,55,160.0
2083,A5,302.833,167/1000,55,160.0
2084,C6,303.0,0.875,56,160.0
2085,A5,303.0,21/500,55,160.0
2086,E2,303.0,0.25,51,160.0
2087,E5,303.167,26/125,53,160.0
2088,G5,303.333,26/125,53,160.0
2089,B-5,303.5,26/125,54,160.0
2090,E4,303.5,0.25,41,160.0
2091,C4,303.5,0.25,41,160.0
2092,C6,303.667,333/1000,55,160.0
2093,D6,303.833,26/125,56,160.0
2094,E-6,304.0,26/125,57,160.0
2095,G2,304.0,0.25,53,160.0
2096,E6,304.167,26/125,58,160.0
2097,F6,304.333,26/125,59,160.0
2098,F#6,304.5,26/125,60,160.0
2099,E4,304.5,0.25,44,160.0
2100,C4,304.5,0.25,44,160.0
2101,G6,304.667,26/125,61,160.0
2102,A6,304.833,26/125,62,160.0
2103,B-6,305.0,26/125,63,160.0
2104,C3,305.0,0.25,54,160.0
2105,B6,305.167,26/125,64,160.0
2106,C7,305.333,26/125,65,160.0
2107,C#7,305.5,26/125,66,160.0
2108,E4,305.5,0.25,44,160.0
2109,C4,305.5,0.25,44,160.0
2110,D7,305.667,26/125,67,160.0
2111,E7,305.833,167/1000,68,160.0
2112,F7,306.0,26/125,74,160.0
2113,E7,306.0,21/500,68,160.0
2114,E3,306.0,0.25,56,160.0
2115,C7,306.167,26/125,69,160.0
2116,A6,306.333,167/1000,68,160.0
2117,G#6,306.5,0.5,72,160.0
2118,E4,306.5,0.25,45,160.0
2119,C4,306.5,0.25,45,160.0
2120,D7,306.667,26/125,66,160.0
2121,B6,306.833,167/1000,66,160.0
2122,C7,307.0,26/125,74,160.0
2123,G3,307.0,0.25,58,160.0
2124,A6,307.167,26/125,66,160.0
2125,F6,307.333,167/1000,66,160.0
2126,D6,307.5,0.5,71,160.0
2127,E4,307.5,0.25,49,160.0
2128,C4,307.5,0.25,49,160.0
2129,G#6,307.667,26/125,66,160.0
2130,F6,307.833,167/1000,66,160.0
2131,A6,308.0,26/125,70,160.0
2132,F2,308.0,0.5,58,160.0
2133,F6,308.167,26/125,66,160.0
2134,C6,308.333,167/1000,66,160.0
2135,G#6,308.5,26/125,71,160.0
2136,F3,308.5,1.0,62,160.0
2137,D4,308.5,0.5,62,160.0
2138,B-3,308.5,0.5,62,160.0
2139,D6,308.667,26/125,66,160.0
2140,B5,308.833,167/1000,66,160.0
2141,C6,309.0,167/1000,71,160.0
2142,C4,309.0,0.5,56,160.0
2143,A3,309.0,0.5,56,160.0
2144,A5,309.167,167/1000,60,160.0
2145,F5,309.333,167/1000,60,160.0
2146,E5,309.5,0.25,54,160.0
2147,C6,309.5,167/1000,64,160.0
2148,F4,309.5,0.5,61,160.0
2149,B3,309.5,0.5,61,160.0
2150,G#4,309.5,0.5,61,160.0
2151,A5,309.667,167/1000,50,160.0
2152,C6,309.667,167/1000,50,160.0
2153,C5,309.833,167/1000,55,160.0
2154,B4,310.0,0.25,50,160.0
2155,A5,310.0,167/1000,59,160.0
2156,C4,310.0,0.5,54,160.0
2157,A4,310.0,0.5,54,160.0
2158,C5,310.167,167/1000,49,160.0
2159,F5,310.167,167/1000,49,160.0
2160,A4,310.333,167/1000,52,160.0
2161,G#4,310.5,0.25,50,160.0
2162,F5,310.5,167/1000,59,160.0
2163,F4,310.5,0.5,62,160.0
2164,B4,310.5,0.5,62,160.0
2165,D5,310.5,0.5,62,160.0
2166,C5,310.667,167/1000,46,160.0
2167,A4,310.667,167/1000,46,160.0
2168,F4,310.833,167/1000,50,160.0
2169,C5,311.0,167/1000,54,160.0
2170,E4,311.0,0.25,45,160.0
2171,F4,311.0,0.5,62,160.0
2172,A4,311.0,0.5,55,160.0
2173,C5,311.0,0.5,55,160.0
2174,F4,311.167,167/1000,43,160.0
2175,A4,311.167,167/1000,43,160.0
2176,C4,311.333,167/1000,46,160.0
2177,B3,311.5,0.25,42,160.0
2178,A4,311.5,167/1000,50,160.0
2179,C4,311.667,167/1000,40,160.0
2180,F4,311.667,167/1000,40,160.0
2181,A3,311.833,167/1000,45,160.0
2182,G4,312.0,167/1000,57,160.0
2183,D4,312.167,26/125,51,160.0
2184,E-4,312.333,26/125,51,160.0
2185,E4,312.5,26/125,52,160.0
2186,F4,312.667,26/125,52,160.0
2187,F#4,312.833,26/125,53,160.0
2188,G4,313.0,26/125,53,160.0
2189,G#4,313.167,26/125,54,160.0
2190,A4,313.333,26/125,54,160.0
2191,B-4,313.5,26/125,55,160.0
2192,B4,313.667,26/125,55,160.0
2193,C5,313.833,26/125,56,160.0
2194,C#5,314.0,26/125,56,160.0
2195,B2,314.0,1.0,54,160.0
2196,D5,314.167,26/125,57,160.0
2197,E-5,314.333,26/125,57,160.0
2198,E5,314.5,26/125,58,160.0
2199,B3,314.5,0.25,38,160.0
2200,G3,314.5,0.25,38,160.0
2201,F5,314.667,26/125,58,160.0
2202,F#5,314.833,167/1000,59,160.0
2203,G5,315.0,167/1000,59,160.0
2204,F#5,315.0,21/500,59,160.0
2205,D3,315.0,1.0,55,160.0
2206,C5,315.167,26/125,61,160.0
2207,C#5,315.333,26/125,61,160.0
2208,D5,315.5,26/125,62,160.0
2209,B3,315.5,0.25,38,160.0
2210,D4,315.5,0.25,38,160.0
2211,E-5,315.667,26/125,63,160.0
2212,E5,315.833,26/125,63,160.0
2213,F5,316.0,26/125,64,160.0
2214,G3,316.0,1.0,56,160.0
2215,F#5,316.167,26/125,65,160.0
2216,G5,316.333,26/125,65,160.0
2217,G#5,316.5,26/125,66,160.0
2218,D4,316.5,0.25,40,160.0
2219,B3,316.5,0.25,40,160.0
2220,A5,316.667,26/125,67,160.0
2221,B-5,316.833,26/125,67,160.0
2222,B5,317.0,26/125,67,160.0
2223,C3,317.0,1.0,56,160.0
2224,C6,317.167,26/125,68,160.0
2225,C#6,317.333,26/125,69,160.0
2226,D6,317.5,26/125,71,160.0
2227,C4,317.5,0.5,42,160.0
2228,B-3,317.5,0.5,42,160.0
2229,E-6,317.667,26/125,72,160.0
2230,E6,317.833,167/1000,73,160.0
2231,F6,318.0,167/1000,75,160.0
2232,E6,318.0,21/500,73,160.0
2233,E3,318.0,1.0,58,160.0
2234,C6,318.167,167/1000,70,160.0
2235,A5,318.333,167/1000,70,160.0
2236,G#5,318.5,167/1000,74,160.0
2237,C4,318.5,0.5,43,160.0
2238,B-3,318.5,0.5,43,160.0
2239,C#6,318.667,167/1000,70,160.0
2240,F6,318.833,167/1000,70,160.0
2241,F7,319.0,167/1000,77,160.0
2242,G3,319.0,1.0,61,160.0
2243,B6,319.167,167/1000,72,160.0
2244,G#6,319.333,167/1000,72,160.0
2245,F6,319.5,167/1000,71,160.0
2246,C4,319.5,0.5,47,160.0
2247,B-3,319.5,0.5,47,160.0
2248,D6,319.667,167/1000,70,160.0
2249,B5,319.833,167/1000,69,160.0
2250,G#5,320.0,167/1000,69,160.0
2251,F3,320.0,0.25,47,160.0
2252,C4,320.0,0.25,47,160.0
2253,A3,320.0,0.25,47,160.0
2254,F5,320.167,167/1000,68,160.0
2255,D5,320.333,167/1000,67,160.0
2256,B4,320.5,167/1000,66,160.0
2257,F3,320.5,0.25,47,160.0
2258,G#3,320.5,0.25,47,160.0
2259,C#4,320.5,0.25,47,160.0
2260,G#4,320.667,167/1000,66,160.0
2261,F4,320.833,167/1000,65,160.0
2262,C5,321.0,167/1000,66,160.0
2263,G#3,321.0,1.5,46,160.0
2264,D4,321.0,2.0,51,160.0
2265,B3,321.0,2.0,51,160.0
2266,F3,321.0,2.0,51,160.0
2267,G4,321.167,26/125,60,160.0
2268,G#4,321.333,26/125,60,160.0
2269,A4,321.5,26/125,65,160.0
2270,B-4,321.667,26/125,60,160.0
2271,B4,321.833,26/125,60,160.0
2272,C5,322.0,26/125,62,160.0
2273,C#5,322.167,26/125,61,160.0
2274,D5,322.333,26/125,60,160.0
2275,E-5,322.5,26/125,59,160.0
2276,G3,322.5,0.5,49,160.0
2277,E5,322.667,26/125,58,160.0
2278,F5,322.833,167/1000,57,160.0
2279,F#5,323.0,167/1000,55,160.0
2280,C6,323.0,833/1000,56,160.0
2281,G3,323.0,1.0,49,160.0
2282,E3,323.0,1.0,49,160.0
2283,C4,323.0,1.0,49,160.0
2284,G5,323.167,167/1000,54,160.0
2285,A5,323.333,167/1000,53,160.0
2286,B-5,323.5,167/1000,52,160.0
2287,C6,323.667,333/1000,51,160.0
2288,D6,323.833,167/1000,50,160.0
2289,C6,324.0,0.5,50,160.0
2290,E6,324.0,167/1000,50,160.0
2291,G6,324.167,167/1000,52,160.0
2292,C6,324.333,167/1000,52,160.0
2293,C#6,324.5,167/1000,48,160.0
2294,B-6,324.667,167/1000,41,160.0
2295,A5,324.833,167/1000,42,160.0
2296,B-5,325.0,167/1000,47,160.0
2297,A3,325.0,1.0,53,160.0
2298,G6,325.167,167/1000,42,160.0
2299,F#5,325.333,167/1000,42,160.0
2300,G5,325.5,167/1000,47,160.0
2301,E-5,325.5,0.5,34,160.0
2302,C5,325.5,0.5,34,160.0
2303,F#4,325.5,0.5,34,160.0
2304,A5,325.667,167/1000,42,160.0
2305,B-5,325.833,167/1000,42,160.0
2306,C6,326.0,167/1000,47,160.0
2307,B-3,326.0,1.0,56,160.0
2308,D6,326.167,167/1000,42,160.0
2309,E6,326.333,167/1000,42,160.0
2310,F6,326.5,167/1000,45,160.0
2311,E5,326.5,0.5,36,160.0
2312,C5,326.5,0.5,36,160.0
2313,G4,326.5,0.5,36,160.0
2314,G6,326.667,167/1000,42,160.0
2315,A6,326.833,167/1000,42,160.0
2316,C7,327.0,167/1000,51,160.0
2317,E4,327.0,1.0,57,160.0
2318,B-6,327.167,167/1000,42,160.0
2319,G6,327.333,167/1000,42,160.0
2320,E6,327.5,167/1000,48,160.0
2321,B-4,327.5,0.5,36,160.0
2322,C5,327.5,0.5,36,160.0
2323,E5,327.5,0.5,36,160.0
2324,C6,327.667,167/1000,48,160.0
2325,D6,327.833,167/1000,49,160.0
2326,E-6,328.0,167/1000,49,160.0
2327,G4,328.0,1.0,60,160.0
2328,E6,328.167,167/1000,50,160.0
2329,F6,328.333,167/1000,52,160.0
2330,F#6,328.5,167/1000,54,160.0
2331,B-4,328.5,0.5,36,160.0
2332,C5,328.5,0.5,36,160.0
2333,E5,328.5,0.5,36,160.0
2334,G6,328.667,167/1000,55,160.0
2335,A6,328.833,167/1000,57,160.0
2336,B-6,329.0,167/1000,59,160.0
2337,G4,329.0,2.0,60,160.0
2338,B-4,329.0,0.5,36,160.0
2339,C5,329.0,0.5,36,160.0
2340,E5,329.0,0.5,36,160.0
2341,B6,329.167,167/1000,60,160.0
2342,C7,329.333,167/1000,62,160.0
2343,C#7,329.5,167/1000,64,160.0
2344,C5,329.5,19/40,44,160.0
2345,E5,329.5,19/40,44,160.0
2346,D7,329.667,167/1000,65,160.0
2347,E7,329.833,167/1000,67,160.0
2348,F7,330.0,167/1000,69,160.0
2349,C5,330.0,19/40,44,160.0
2350,E5,330.0,19/40,44,160.0
2351,C7,330.167,167/1000,57,160.0
2352,A6,330.333,167/1000,58,160.0
2353,G#6,330.5,167/1000,65,160.0
2354,C5,330.5,19/40,44,160.0
2355,E5,330.5,19/40,44,160.0
2356,B6,330.667,167/1000,55,160.0
2357,D7,330.833,167/1000,55,160.0
2358,C7,331.0,167/1000,61,160.0
2359,B-4,331.0,1.0,57,160.0
2360,A6,331.167,167/1000,55,160.0
2361,F6,331.333,167/1000,55,160.0
2362,B-6,331.5,0.5,58,160.0
2363,C5,331.5,0.5,40,160.0
2364,E5,331.5,0.5,48,160.0
2365,E7,331.667,167/1000,53,160.0
2366,E6,331.833,167/1000,53,160.0
2367,A6,332.0,0.5,57,160.0
2368,C5,332.0,0.5,40,160.0
2369,A4,332.0,0.5,44,160.0
2370,F5,332.0,0.5,44,160.0
2371,D7,332.167,167/1000,52,160.0
2372,D6,332.333,167/1000,52,160.0
2373,G6,332.5,0.5,56,160.0
2374,G#4,332.5,1.0,40,160.0
2375,F4,332.5,1.0,40,160.0
2376,B4,332.5,0.5,52,160.0
2377,D5,332.5,0.5,52,160.0
2378,C7,332.667,167/1000,51,160.0
2379,C6,332.833,167/1000,51,160.0
2380,F6,333.0,0.5,54,160.0
2381,A4,333.0,0.5,45,160.0
2382,C5,333.0,0.5,45,160.0
2383,B-6,333.167,167/1000,49,160.0
2384,B-5,333.333,167/1000,49,160.0
2385,E6,333.5,0.5,53,160.0
2386,E6,333.5,0.125,47,160.0
2387,G5,333.5,0.125,47,160.0
2388,A6,333.667,167/1000,49,160.0
2389,A5,333.833,167/1000,49,160.0
2390,D6,334.0,0.5,52,160.0
2391,D6,334.0,0.125,54,160.0
2392,F5,334.0,0.125,54,160.0
2393,G6,334.167,167/1000,48,160.0
2394,G5,334.333,167/1000,48,160.0
2395,C6,334.5,0.5,50,160.0
2396,C6,334.5,0.125,54,160.0
2397,E5,334.5,0.125,54,160.0
2398,F6,334.667,167/1000,46,160.0
2399,F5,334.833,167/1000,46,160.0
2400,B5,335.0,0.5,49,160.0
2401,B-5,335.0,0.125,52,160.0
2402,D5,335.0,0.125,52,160.0
2403,F6,335.167,167/1000,45,160.0
2404,F5,335.333,167/1000,45,160.0
2405,C6,335.5,0.5,48,160.0
2406,A5,335.5,0.125,50,160.0
2407,C5,335.5,0.125,50,160.0
2408,F6,335.667,167/1000,44,160.0
2409,F5,335.833,167/1000,44,160.0
2410,D6,336.0,167/1000,52,160.0
2411,G5,336.0,0.125,50,160.0
2412,B-4,336.0,0.125,50,160.0
2413,G5,336.167,26/125,44,160.0
2414,G#5,336.333,26/125,45,160.0
2415,A5,336.5,26/125,45,160.0
2416,F5,336.5,0.125,49,160.0
2417,A4,336.5,0.125,49,160.0
2418,B-5,336.667,26/125,46,160.0
2419,B5,336.833,26/125,47,160.0
2420,C6,337.0,26/125,48,160.0
2421,D5,337.0,0.125,47,160.0
2422,G#4,337.0,0.125,47,160.0
2423,C#6,337.167,26/125,49,160.0
2424,D6,337.333,26/125,50,160.0
2425,E-6,337.5,26/125,51,160.0
2426,A4,337.5,0.125,46,160.0
2427,C5,337.5,0.125,46,160.0
2428,E6,337.667,26/125,51,160.0
2429,F6,337.833,26/125,52,160.0
2430,F#6,338.0,26/125,54,160.0
2431,G4,338.0,0.5,46,160.0
2432,B4,338.0,0.5,46,160.0
2433,G6,338.167,26/125,55,160.0
2434,G#6,338.333,26/125,56,160.0
2435,A6,338.5,26/125,57,160.0
2436,D4,338.5,0.25,47,160.0
2437,D5,338.5,0.25,47,160.0
2438,B-6,338.667,26/125,58,160.0
2439,B6,338.833,167/1000,58,160.0
2440,C7,339.0,167/1000,59,160.0
2441,B6,339.0,21/500,58,160.0
2442,B3,339.0,0.25,48,160.0
2443,B4,339.0,0.25,48,160.0
2444,C6,339.167,26/125,60,160.0
2445,C#6,339.333,26/125,61,160.0
2446,D6,339.5,26/125,62,160.0
2447,G3,339.5,0.25,49,160.0
2448,G4,339.5,0.25,49,160.0
2449,E-6,339.667,26/125,63,160.0
2450,E6,339.833,26/125,64,160.0
2451,F6,340.0,26/125,64,160.0
2452,F4,340.0,0.25,50,160.0
2453,F3,340.0,0.25,50,160.0
2454,F#6,340.167,26/125,64,160.0
2455,G6,340.333,26/125,65,160.0
2456,G#6,340.5,26/125,66,160.0
2457,D4,340.5,0.25,52,160.0
2458,D3,340.5,0.25,52,160.0
2459,A6,340.667,26/125,67,160.0
2460,B-6,340.833,26/125,68,160.0
2461,B6,341.0,167/1000,69,160.0
2462,C3,341.0,0.25,53,160.0
2463,C4,341.0,0.25,53,160.0
2464,C7,341.167,167/1000,70,160.0
2465,C#7,341.333,167/1000,71,160.0
2466,D7,341.5,167/1000,72,160.0
2467,G2,341.5,0.25,54,160.0
2468,G3,341.5,0.25,54,160.0
2469,E-7,341.667,167/1000,72,160.0
2470,E7,341.833,167/1000,73,160.0
2471,F7,342.0,167/1000,79,160.0
2472,E2,342.0,0.25,57,160.0
2473,E3,342.0,0.25,57,160.0
2474,C7,342.167,167/1000,71,160.0
2475,A6,342.333,167/1000,71,160.0
2476,F6,342.5,79/500,77,160.0
2477,C2,342.5,0.25,59,160.0
2478,C3,342.5,0.25,59,160.0
2479,F6,342.667,167/1000,69,160.0
2480,C6,342.833,167/1000,69,160.0
2481,C7,343.0,167/1000,77,160.0
2482,B-1,343.0,0.25,62,160.0
2483,B-2,343.0,0.25,62,160.0
2484,A6,343.167,167/1000,71,160.0
2485,F6,343.333,167/1000,71,160.0
2486,C6,343.5,79/500,76,160.0
2487,G1,343.5,0.25,64,160.0
2488,G2,343.5,0.25,64,160.0
2489,C6,343.667,167/1000,69,160.0
2490,A5,343.833,167/1000,70,160.0
2491,A6,344.0,167/1000,74,160.0
2492,F1,344.0,0.5,66,160.0
2493,F2,344.0,0.5,66,160.0
2494,F6,344.167,167/1000,70,160.0
2495,C6,344.333,167/1000,70,160.0
2496,A5,344.5,79/500,74,160.0
2497,C3,344.5,0.5,58,160.0
2498,F3,344.5,0.5,58,160.0
2499,A3,344.5,0.5,58,160.0
2500,A5,344.667,167/1000,69,160.0
2501,F5,344.833,79/500,70,160.0
2502,F6,345.0,0.5,74,160.0
2503,A1,345.0,0.5,66,160.0
2504,A2,345.0,0.5,66,160.0
2505,A3,345.5,167/1000,72,160.0
2506,C3,345.5,0.5,57,160.0
2507,F3,345.5,0.5,57,160.0
2508,A3,345.5,0.5,57,160.0
2509,C4,345.667,167/1000,67,160.0
2510,F4,345.833,167/1000,68,160.0
2511,C2,346.0,0.5,68,160.0
2512,C3,346.0,0.5,68,160.0
2513,A4,346.5,167/1000,75,160.0
2514,C3,346.5,0.5,57,160.0
2515,F3,346.5,0.5,57,160.0
2516,A3,346.5,0.5,57,160.0
2517,C5,346.667,167/1000,71,160.0
2518,F5,346.833,167/1000,70,160.0
2519,A5,347.0,167/1000,74,160.0
2520,F2,347.0,0.5,67,160.0
2521,F3,347.0,0.5,67,160.0
2522,C6,347.167,167/1000,72,160.0
2523,F6,347.333,167/1000,72,160.0
2524,A6,347.5,26/125,54,160.0
2525,G6,347.667,26/125,53,160.0
2526,F6,347.833,167/1000,52,160.0
2527,E6,348.0,26/125,49,160.0
2528,F6,348.0,21/500,52,160.0
2529,A3,348.0,167/1000,72,160.0
2530,F6,348.167,26/125,47,160.0
2531,C4,348.167,167/1000,68,160.0
2532,G6,348.333,167/1000,47,160.0
2533,F4,348.333,167/1000,68,160.0
2534,G5,348.5,26/125,51,160.0
2535,B-5,348.667,26/125,47,160.0
2536,C6,348.833,26/125,48,160.0
2537,C#6,349.0,26/125,55,160.0
2538,E6,349.167,26/125,45,160.0
2539,G6,349.333,167/1000,45,160.0
2540,G5,349.5,26/125,51,160.0
2541,B-5,349.667,26/125,46,160.0
2542,C6,349.833,26/125,46,160.0
2543,C#6,350.0,26/125,56,160.0
2544,C3,350.0,0.25,50,160.0
2545,E6,350.167,26/125,50,160.0
2546,G6,350.333,167/1000,50,160.0
2547,G5,350.5,26/125,54,160.0
2548,E4,350.5,0.25,41,160.0
2549,C4,350.5,0.25,41,160.0
2550,B-5,350.667,26/125,50,160.0
2551,F6,350.833,167/1000,50,160.0
2552,E6,351.0,26/125,49,160.0
2553,F6,351.0,21/500,50,160.0
2554,G3,351.0,0.25,51,160.0
2555,E-6,351.167,26/125,47,160.0
2556,E6,351.333,26/125,47,160.0
2557,E7,351.5,26/125,48,160.0
2558,E4,351.5,0.25,41,160.0
2559,C4,351.5,0.25,41,160.0
2560,C#7,351.667,26/125,44,160.0
2561,G6,351.833,167/1000,44,160.0
2562,E6,352.0,26/125,50,160.0
2563,E3,352.0,0.25,53,160.0
2564,C#6,352.167,26/125,40,160.0
2565,E6,352.333,26/125,40,160.0
2566,E5,352.5,26/125,45,160.0
2567,E4,352.5,0.25,44,160.0
2568,C4,352.5,0.25,44,160.0
2569,C#5,352.667,26/125,40,160.0
2570,E5,352.833,167/1000,40,160.0
2571,E4,353.0,167/1000,48,160.0
2572,A2,353.0,0.25,50,160.0
2573,C#4,353.167,167/1000,42,160.0
2574,E4,353.333,167/1000,42,160.0
2575,A3,353.5,26/125,44,160.0
2576,C#4,353.5,0.25,38,160.0
2577,A3,353.5,0.25,38,160.0
2578,B3,353.667,26/125,41,160.0
2579,C#4,353.833,167/1000,40,160.0
2580,D4,354.0,26/125,41,160.0
2581,C#4,354.0,21/500,40,160.0
2582,E3,354.0,0.25,46,160.0
2583,A4,354.167,26/125,39,160.0
2584,F#4,354.333,167/1000,39,160.0
2585,A3,354.5,26/125,43,160.0
2586,C#4,354.5,0.25,36,160.0
2587,A3,354.5,0.25,36,160.0
2588,C4,354.667,26/125,39,160.0
2589,E-4,354.833,26/125,40,160.0
2590,D4,355.0,26/125,46,160.0
2591,A2,355.0,0.25,45,160.0
2592,A4,355.167,26/125,38,160.0
2593,F#4,355.333,167/1000,38,160.0
2594,A3,355.5,26/125,43,160.0
2595,E3,355.5,0.25,36,160.0
2596,C#3,355.5,0.25,36,160.0
2597,C4,355.667,26/125,39,160.0
2598,E-4,355.833,26/125,39,160.0
2599,D4,356.0,26/125,47,160.0
2600,D2,356.0,0.25,42,160.0
2601,A4,356.167,26/125,42,160.0
2602,F#4,356.333,167/1000,42,160.0
2603,A3,356.5,26/125,45,160.0
2604,F#3,356.5,0.25,34,160.0
2605,D3,356.5,0.25,34,160.0
2606,C4,356.667,26/125,42,160.0
2607,E-4,356.833,167/1000,42,160.0
2608,D4,357.0,167/1000,46,160.0
2609,E-4,357.0,21/500,42,160.0
2610,A2,357.0,0.25,43,160.0
2611,F4,357.167,167/1000,47,160.0
2612,G#4,357.333,167/1000,49,160.0
2613,B4,357.5,167/1000,50,160.0
2614,F#3,357.5,0.25,34,160.0
2615,D3,357.5,0.25,34,160.0
2616,D5,357.667,167/1000,51,160.0
2617,F5,357.833,167/1000,53,160.0
2618,G#5,358.0,167/1000,54,160.0
2619,D2,358.0,0.25,45,160.0
2620,F5,358.167,167/1000,55,160.0
2621,G#5,358.333,167/1000,57,160.0
2622,B5,358.5,167/1000,58,160.0
2623,F#3,358.5,0.25,37,160.0
2624,D3,358.5,0.25,37,160.0
2625,D6,358.667,167/1000,59,160.0
2626,F6,358.833,167/1000,61,160.0
2627,G#6,359.0,167/1000,62,160.0
2628,G2,359.0,0.25,50,160.0
2629,C#6,359.167,167/1000,63,160.0
2630,D6,359.333,167/1000,65,160.0
2631,F6,359.5,167/1000,66,160.0
2632,B-3,359.5,0.5,40,160.0
2633,G3,359.5,0.5,40,160.0
2634,G#6,359.667,167/1000,67,160.0
2635,B6,359.833,167/1000,72,160.0
2636,D7,359.938,0.062,65,160.0
2637,F7,360.0,167/1000,74,160.0
2638,D3,360.0,0.25,52,160.0
2639,E7,360.167,167/1000,72,160.0
2640,D7,360.333,167/1000,70,160.0
2641,C7,360.5,167/1000,68,160.0
2642,B-3,360.5,0.5,45,160.0
2643,G3,360.5,0.5,45,160.0
2644,B-6,360.667,167/1000,64,160.0
2645,D7,360.833,167/1000,65,160.0
2646,G6,361.0,167/1000,66,160.0
2647,G2,361.0,0.25,59,160.0
2648,E6,361.167,167/1000,61,160.0
2649,C7,361.333,167/1000,61,160.0
2650,C6,361.5,167/1000,65,160.0
2651,B-3,361.5,0.5,50,160.0
2652,G3,361.5,0.5,50,160.0
2653,B-5,361.667,167/1000,60,160.0
2654,D6,361.833,167/1000,60,160.0
2655,G5,362.0,167/1000,57,160.0
2656,C3,362.0,1.0,66,160.0
2657,E5,362.167,167/1000,51,160.0
2658,C6,362.333,167/1000,51,160.0
2659,C5,362.5,167/1000,55,160.0
2660,G3,362.5,0.5,56,160.0
2661,D5,362.667,167/1000,49,160.0
2662,E5,362.833,167/1000,49,160.0
2663,F5,363.0,167/1000,52,160.0
2664,C4,363.0,1.0,65,160.0
2665,E4,363.0,0.5,65,160.0
2666,A5,363.167,167/1000,48,160.0
2667,B-5,363.333,167/1000,48,160.0
2668,C6,363.5,167/1000,52,160.0
2669,G3,363.5,0.5,51,160.0
2670,F6,363.667,167/1000,48,160.0
2671,A6,363.833,167/1000,48,160.0
2672,C7,364.0,167/1000,59,160.0
2673,E4,364.0,0.5,54,160.0
2674,B-3,364.0,1.0,54,160.0
2675,B-6,364.167,167/1000,53,160.0
2676,A6,364.333,13/125,53,160.0
2677,B-6,364.438,0.062,53,160.0
2678,A6,364.5,167/1000,58,160.0
2679,G3,364.5,0.5,47,160.0
2680,G6,364.667,167/1000,53,160.0
2681,F6,364.833,13/125,53,160.0
2682,G6,364.938,0.062,58,160.0
2683,F6,365.0,167/1000,60,160.0
2684,A2,365.0,0.25,54,160.0
2685,E6,365.167,167/1000,53,160.0
2686,D6,365.333,13/125,53,160.0
2687,E6,365.438,0.062,58,160.0
2688,D6,365.5,167/1000,59,160.0
2689,F4,365.5,0.5,47,160.0
2690,C4,365.5,0.5,47,160.0
2691,C6,365.667,167/1000,52,160.0
2692,B5,365.833,13/125,52,160.0
2693,C6,365.938,0.062,53,160.0
2694,A6,366.0,0.25,57,160.0
2695,A3,366.0,0.25,54,160.0
2696,F6,366.333,167/1000,56,160.0
2697,C6,366.5,167/1000,56,160.0
2698,F4,366.5,0.5,48,160.0
2699,C4,366.5,0.5,48,160.0
2700,A5,366.667,167/1000,56,160.0
2701,F5,366.833,167/1000,55,160.0
2702,C5,367.0,167/1000,55,160.0
2703,B2,367.0,0.25,54,160.0
2704,C6,367.167,167/1000,54,160.0
2705,A5,367.333,167/1000,54,160.0
2706,F5,367.5,167/1000,53,160.0
2707,F4,367.5,0.5,47,160.0
2708,D4,367.5,0.5,47,160.0
2709,G3,367.5,0.5,47,160.0
2710,C5,367.667,167/1000,53,160.0
2711,A4,367.833,167/1000,53,160.0
2712,C5,368.0,167/1000,52,160.0
2713,C3,368.0,0.25,54,160.0
2714,G4,368.167,167/1000,52,160.0
2715,E4,368.333,167/1000,51,160.0
2716,C4,368.5,167/1000,51,160.0
2717,F4,368.5,0.5,47,160.0
2718,C4,368.5,0.5,47,160.0
2719,A3,368.5,0.5,47,160.0
2720,B-3,368.667,167/1000,50,160.0
2721,G3,368.833,167/1000,50,160.0
2722,F3,369.0,79/500,50,160.0
2723,F3,369.167,167/1000,51,160.0
2724,A3,369.333,167/1000,52,160.0
2725,F4,369.5,79/500,53,160.0
2726,F4,369.667,167/1000,55,160.0
2727,A4,369.833,167/1000,56,160.0
2728,F5,370.0,79/500,57,160.0
2729,C2,370.0,0.25,54,160.0
2730,F5,370.167,167/1000,58,160.0
2731,A5,370.333,167/1000,60,160.0
2732,F6,370.5,79/500,61,160.0
2733,E3,370.5,0.5,47,160.0
2734,G3,370.5,0.5,47,160.0
2735,F6,370.667,167/1000,62,160.0
2736,A6,370.833,167/1000,63,160.0
2737,F7,371.0,0.5,71,160.0
2738,F2,371.0,2.0,54,160.0
2739,A6,371.5,26/125,54,160.0
2740,C3,371.5,0.25,48,160.0
2741,G6,371.667,26/125,53,160.0
2742,F6,371.833,167/1000,52,160.0
2743,E6,372.0,26/125,49,160.0
2744,F6,372.0,21/500,52,160.0
2745,C4,372.0,0.25,50,160.0
2746,F6,372.167,26/125,47,160.0
2747,G6,372.333,167/1000,47,160.0
2748,G5,372.5,26/125,51,160.0
2749,C5,372.5,0.25,52,160.0
2750,B-5,372.667,26/125,47,160.0
2751,C6,372.833,26/125,48,160.0
2752,C#6,373.0,26/125,55,160.0
2753,A5,373.0,167/1000,59,160.0
2754,E6,373.167,26/125,45,160.0
2755,C6,373.167,167/1000,62,160.0
2756,G6,373.333,167/1000,45,160.0
2757,F6,373.333,167/1000,65,160.0
2758,G5,373.5,26/125,51,160.0
2759,B-5,373.667,26/125,46,160.0
2760,C6,373.833,26/125,46,160.0
2761,C#6,374.0,26/125,56,160.0
2762,C3,374.0,0.25,50,160.0
2763,E6,374.167,26/125,50,160.0
2764,G6,374.333,167/1000,50,160.0
2765,G5,374.5,26/125,54,160.0
2766,E4,374.5,0.25,41,160.0
2767,C4,374.5,0.25,41,160.0
2768,B-5,374.667,26/125,50,160.0
2769,F6,374.833,167/1000,50,160.0
2770,E6,375.0,26/125,49,160.0
2771,F6,375.0,21/500,50,160.0
2772,G3,375.0,0.25,51,160.0
2773,E-6,375.167,26/125,47,160.0
2774,E6,375.333,26/125,47,160.0
2775,E7,375.5,26/125,48,160.0
2776,E4,375.5,0.25,41,160.0
2777,C4,375.5,0.25,41,160.0
2778,C#7,375.667,26/125,44,160.0
2779,G6,375.833,167/1000,44,160.0
2780,E6,376.0,26/125,50,160.0
2781,E3,376.0,0.25,53,160.0
2782,C#6,376.167,26/125,40,160.0
2783,E6,376.333,26/125,40,160.0
2784,E5,376.5,26/125,45,160.0
2785,E4,376.5,0.25,44,160.0
2786,C4,376.5,0.25,44,160.0
2787,C#5,376.667,26/125,40,160.0
2788,E5,376.833,167/1000,40,160.0
2789,E4,377.0,167/1000,48,160.0
2790,A2,377.0,0.25,50,160.0
2791,C#4,377.167,167/1000,42,160.0
2792,E4,377.333,167/1000,42,160.0
2793,A3,377.5,26/125,44,160.0
2794,C#4,377.5,0.25,38,160.0
2795,A3,377.5,0.25,38,160.0
2796,B3,377.667,26/125,41,160.0
2797,C#4,377.833,167/1000,40,160.0
2798,D4,378.0,26/125,41,160.0
2799,C#4,378.0,21/500,40,160.0
2800,E3,378.0,0.25,46,160.0
2801,A4,378.167,26/125,39,160.0
2802,F#4,378.333,167/1000,39,160.0
2803,A3,378.5,26/125,43,160.0
2804,C#4,378.5,0.25,36,160.0
2805,A3,378.5,0.25,36,160.0
2806,C4,378.667,26/125,39,160.0
2807,E-4,378.833,26/125,40,160.0
2808,D4,379.0,26/125,46,160.0
2809,A2,379.0,0.25,45,160.0
2810,A4,379.167,26/125,38,160.0
2811,F#4,379.333,167/1000,38,160.0
2812,A3,379.5,26/125,43,160.0
2813,E3,379.5,0.25,36,160.0
2814,C#3,379.5,0.25,36,160.0
2815,C4,379.667,26/125,39,160.0
2816,E-4,379.833,26/125,39,160.0
2817,D4,380.0,26/125,47,160.0
2818,D2,380.0,0.25,42,160.0
2819,A4,380.167,26/125,42,160.0
2820,F#4,380.333,167/1000,42,160.0
2821,A3,380.5,26/125,45,160.0
2822,F#3,380.5,0.25,34,160.0
2823,D3,380.5,0.25,34,160.0
2824,C4,380.667,26/125,42,160.0
2825,E-4,380.833,167/1000,42,160.0
2826,D4,381.0,167/1000,46,160.0
2827,E-4,381.0,21/500,42,160.0
2828,A2,381.0,0.25,43,160.0
2829,F4,381.167,167/1000,47,160.0
2830,G#4,381.333,167/1000,49,160.0
2831,B4,381.5,167/1000,50,160.0
2832,F#3,381.5,0.25,34,160.0
2833,D3,381.5,0.25,34,160.0
2834,D5,381.667,167/1000,51,160.0
2835,F5,381.833,167/1000,53,160.0
2836,G#5,382.0,167/1000,54,160.0
2837,D2,382.0,0.25,45,160.0
2838,F5,382.167,167/1000,55,160.0
2839,G#5,382.333,167/1000,57,160.0
2840,B5,382.5,167/1000,58,160.0
2841,F#3,382.5,0.25,37,160.0
2842,D3,382.5,0.25,37,160.0
2843,D6,382.667,167/1000,59,160.0
2844,F6,382.833,167/1000,61,160.0
2845,G#6,383.0,167/1000,62,160.0
2846,G2,383.0,0.25,50,160.0
2847,C#6,383.167,167/1000,63,160.0
2848,D6,383.333,167/1000,65,160.0
2849,F6,383.5,167/1000,66,160.0
2850,B-3,383.5,0.5,40,160.0
2851,G3,383.5,0.5,40,160.0
2852,G#6,383.667,167/1000,67,160.0
2853,B6,383.833,167/1000,72,160.0
2854,D7,383.938,0.062,65,160.0
2855,F7,384.0,167/1000,74,160.0
2856,D3,384.0,0.25,52,160.0
2857,E7,384.167,167/1000,72,160.0
2858,D7,384.333,167/1000,70,160.0
2859,C7,384.5,167/1000,68,160.0
2860,B-3,384.5,0.5,45,160.0
2861,G3,384.5,0.5,45,160.0
2862,B-6,384.667,167/1000,64,160.0
2863,D7,384.833,167/1000,65,160.0
2864,G6,385.0,167/1000,66,160.0
2865,G2,385.0,0.25,59,160.0
2866,E6,385.167,167/1000,61,160.0
2867,C7,385.333,167/1000,61,160.0
2868,C6,385.5,167/1000,65,160.0
2869,B-3,385.5,0.5,50,160.0
2870,G3,385.5,0.5,50,160.0
2871,B-5,385.667,167/1000,60,160.0
2872,D6,385.833,167/1000,60,160.0
2873,G5,386.0,167/1000,57,160.0
2874,C3,386.0,1.0,66,160.0
2875,E5,386.167,167/1000,51,160.0
2876,C6,386.333,167/1000,51,160.0
2877,C5,386.5,167/1000,55,160.0
2878,G3,386.5,0.5,56,160.0
2879,D5,386.667,167/1000,49,160.0
2880,E5,386.833,167/1000,49,160.0
2881,F5,387.0,167/1000,52,160.0
2882,C4,387.0,1.0,65,160.0
2883,E4,387.0,0.5,65,160.0
2884,A5,387.167,167/1000,48,160.0
2885,B-5,387.333,167/1000,48,160.0
2886,C6,387.5,167/1000,52,160.0
2887,G3,387.5,0.5,51,160.0
2888,F6,387.667,167/1000,48,160.0
2889,A6,387.833,167/1000,48,160.0
2890,C7,388.0,167/1000,59,160.0
2891,E4,388.0,0.5,54,160.0
2892,B-3,388.0,1.0,54,160.0
2893,B-6,388.167,167/1000,53,160.0
2894,A6,388.333,13/125,53,160.0
2895,B-6,388.438,0.062,53,160.0
2896,A6,388.5,167/1000,58,160.0
2897,G3,388.5,0.5,47,160.0
2898,G6,388.667,167/1000,53,160.0
2899,F6,388.833,13/125,53,160.0
2900,G6,388.938,0.062,58,160.0
2901,F6,389.0,167/1000,60,160.0
2902,A2,389.0,0.25,54,160.0
2903,E6,389.167,167/1000,53,160.0
2904,D6,389.333,13/125,53,160.0
2905,E6,389.438,0.062,58,160.0
2906,D6,389.5,167/1000,59,160.0
2907,F4,389.5,0.5,47,160.0
2908,C4,389.5,0.5,47,160.0
2909,C6,389.667,167/1000,52,160.0
2910,B5,389.833,13/125,52,160.0
2911,C6,389.938,0.062,53,160.0
2912,A6,390.0,0.25,57,160.0
2913,A3,390.0,0.25,54,160.0
2914,F6,390.333,167/1000,56,160.0
2915,C6,390.5,167/1000,56,160.0
2916,F4,390.5,0.5,48,160.0
2917,C4,390.5,0.5,48,160.0
2918,A5,390.667,167/1000,56,160.0
2919,F5,390.833,167/1000,55,160.0
2920,C5,391.0,167/1000,55,160.0
2921,B2,391.0,0.25,54,160.0
2922,C6,391.167,167/1000,54,160.0
2923,A5,391.333,167/1000,54,160.0
2924,F5,391.5,167/1000,53,160.0
2925,F4,391.5,0.5,47,160.0
2926,D4,391.5,0.5,47,160.0
2927,G3,391.5,0.5,47,160.0
2928,C5,391.667,167/1000,53,160.0
2929,A4,391.833,167/1000,53,160.0
2930,C5,392.0,167/1000,52,160.0
2931,C3,392.0,0.25,54,160.0
2932,G4,392.167,167/1000,52,160.0
2933,E4,392.333,167/1000,51,160.0
2934,C4,392.5,167/1000,51,160.0
2935,F4,392.5,0.5,47,160.0
2936,C4,392.5,0.5,47,160.0
2937,A3,392.5,0.5,47,160.0
2938,B-3,392.667,167/1000,50,160.0
2939,G3,392.833,167/1000,50,160.0
2940,F3,393.0,167/1000,50,160.0
2941,A3,393.167,167/1000,51,160.0
2942,C4,393.333,167/1000,52,160.0
2943,F4,393.5,0.125,52,160.0
2944,A4,393.625,0.125,52,160.0
2945,C5,393.75,0.125,53,160.0
2946,F5,393.875,0.125,53,160.0
2947,C2,394.0,0.25,54,160.0
2948,F5,394.25,0.25,53,160.0
2949,A5,394.312,0.188,56,160.0
2950,C6,394.375,0.125,60,160.0
2951,F6,394.438,0.062,63,160.0
2952,E3,394.5,0.5,47,160.0
2953,G3,394.5,0.5,47,160.0
2954,F2,395.0,0.5,54,160.0
2955,F3,396.0,0.5,41,160.0
2956,A3,396.062,0.438,45,160.0
2957,C4,396.125,0.375,49,160.0
2958,F4,396.188,0.312,53,160.0
2959,D6,399.0,1.5,46,160.0
2960,D5,399.0,1.5,46,160.0
2961,E-6,400.5,1.5,49,160.0
2962,E-5,400.5,1.5,49,160.0
2963,G#6,402.0,1.5,54,160.0
2964,G#5,402.0,1.5,54,160.0
2965,G#2,402.5,1.0,36,160.0
2966,C7,403.5,1.5,58,160.0
2967,C6,403.5,1.5,58,160.0
2968,E-4,403.5,62/125,29,160.0
2969,C4,403.5,62/125,29,160.0
2970,E-3,403.5,62/125,29,160.0
2971,E-4,404.0,99/100,33,160.0
2972,C4,404.0,99/100,33,160.0
2973,G#3,404.0,99/100,33,160.0
2974,F6,405.0,3.0,65,160.0
2975,F7,405.0,3.0,65,160.0
2976,E-4,405.0,62/125,31,160.0
2977,C4,405.0,62/125,31,160.0
2978,E-3,405.0,62/125,31,160.0
2979,G#3,405.5,99/100,35,160.0
2980,C4,405.5,99/100,35,160.0
2981,E-4,405.5,99/100,35,160.0
2982,E-3,406.5,62/125,32,160.0
2983,C4,406.5,62/125,32,160.0
2984,E-4,406.5,62/125,32,160.0
2985,F2,407.0,1.0,50,160.0
2986,E-7,408.0,1.5,55,160.0
2987,E-6,408.0,1.5,55,160.0
2988,F4,408.0,62/125,38,160.0
2989,E-4,408.0,62/125,38,160.0
2990,F3,408.0,62/125,38,160.0
2991,F4,408.5,99/100,38,160.0
2992,E-4,408.5,99/100,38,160.0
2993,A3,408.5,99/100,38,160.0
2994,C#7,409.5,1.0,51,160.0
2995,C#6,409.5,1.0,51,160.0
2996,F4,409.5,62/125,35,160.0
2997,E-4,409.5,62/125,35,160.0
2998,F3,409.5,62/125,35,160.0
2999,F4,410.0,99/100,35,160.0
3000,E-4,410.0,99/100,35,160.0
3001,A3,410.0,99/100,35,160.0
3002,C#6,410.5,0.25,47,160.0
3003,F6,410.75,0.5,45,160.0
3004,C6,410.75,0.25,33,160.0
3005,B5,411.0,0.25,33,160.0
3006,F4,411.0,62/125,31,160.0
3007,E-4,411.0,62/125,31,160.0
3008,F3,411.0,62/125,31,160.0
3009,F6,411.25,0.5,45,160.0
3010,B-5,411.25,0.25,32,160.0
3011,A5,411.5,0.25,32,160.0
3012,B-2,411.5,1.0,34,160.0
3013,F6,411.75,0.5,44,160.0
3014,G#5,411.75,0.25,32,160.0
3015,G5,412.0,0.25,32,160.0
3016,B-5,412.25,0.5,44,160.0
3017,F#5,412.25,0.25,32,160.0
3018,F5,412.5,0.25,31,160.0
3019,F4,412.5,62/125,28,160.0
3020,C#4,412.5,62/125,28,160.0
3021,F3,412.5,62/125,28,160.0
3022,B-5,412.75,0.5,43,160.0
3023,E5,412.75,0.25,31,160.0
3024,E-5,413.0,0.25,30,160.0
3025,B-3,413.0,99/100,28,160.0
3026,C#4,413.0,99/100,28,160.0
3027,F4,413.0,99/100,28,160.0
3028,B-5,413.25,0.5,42,160.0
3029,D5,413.25,0.25,30,160.0
3030,C#5,413.5,0.25,30,160.0
3031,B-5,413.75,0.25,41,160.0
3032,C5,413.75,0.25,29,160.0
3033,C5,414.0,0.125,37,160.0
3034,B-5,414.0,0.25,41,160.0
3035,F3,414.0,62/125,27,160.0
3036,C#4,414.0,62/125,27,160.0
3037,F4,414.0,62/125,27,160.0
3038,B-4,414.125,0.125,32,160.0
3039,C5,414.25,0.125,37,160.0
3040,B-4,414.375,0.125,32,160.0
3041,C5,414.5,0.125,37,160.0
3042,B-3,414.5,99/100,27,160.0
3043,C#4,414.5,99/100,27,160.0
3044,F4,414.5,99/100,27,160.0
3045,B-4,414.625,0.125,32,160.0
3046,C5,414.75,0.125,37,160.0
3047,B-4,414.875,0.125,31,160.0
3048,C5,415.0,0.125,37,160.0
3049,B-4,415.125,0.125,32,160.0
3050,C5,415.25,0.125,37,160.0
3051,B-4,415.375,0.125,32,160.0
3052,C5,415.5,0.125,37,160.0
3053,F3,415.5,62/125,28,160.0
3054,C#4,415.5,62/125,28,160.0
3055,F4,415.5,62/125,28,160.0
3056,B-4,415.625,0.125,33,160.0
3057,C5,415.75,0.125,37,160.0
3058,B-4,415.875,0.125,33,160.0
3059,C5,416.0,0.125,37,160.0
3060,E-3,416.0,4.5,35,160.0
3061,B-4,416.125,0.125,31,160.0
3062,C5,416.25,0.125,37,160.0
3063,B-4,416.375,0.125,31,160.0
3064,C5,416.5,0.125,37,160.0
3065,B-4,416.625,0.125,32,160.0
3066,C5,416.75,0.125,37,160.0
3067,B-4,416.875,0.125,32,160.0
3068,C5,417.0,0.125,37,160.0
3069,E-5,417.0,1.5,50,160.0
3070,B-3,417.0,62/125,28,160.0
3071,G4,417.0,62/125,28,160.0
3072,B-4,417.125,0.125,31,160.0
3073,C5,417.25,0.125,36,160.0
3074,B-4,417.375,0.125,27,160.0
3075,C5,417.5,0.125,34,160.0
3076,E-4,417.5,99/100,32,160.0
3077,C4,417.5,99/100,32,160.0
3078,B-4,417.625,0.125,28,160.0
3079,C5,417.75,0.125,32,160.0
3080,B-4,417.875,0.125,27,160.0
3081,C5,418.0,0.125,31,160.0
3082,B-4,418.125,0.125,26,160.0
3083,C5,418.25,0.125,29,160.0
3084,B-4,418.375,0.125,23,160.0
3085,D5,418.5,1.5,51,160.0
3086,B4,418.5,0.125,29,160.0
3087,G4,418.5,62/125,28,160.0
3088,B-3,418.5,62/125,28,160.0
3089,B-4,418.625,0.125,26,160.0
3090,B4,418.75,0.125,30,160.0
3091,B-4,418.875,0.125,27,160.0
3092,B4,419.0,0.125,31,160.0
3093,G4,419.0,99/100,32,160.0
3094,E-4,419.0,99/100,32,160.0
3095,B-4,419.125,0.125,27,160.0
3096,B4,419.25,0.125,32,160.0
3097,B-4,419.375,0.125,27,160.0
3098,B4,419.5,0.125,33,160.0
3099,B-4,419.625,0.125,28,160.0
3100,B4,419.75,0.125,34,160.0
3101,B-4,419.875,0.125,29,160.0
3102,F5,420.0,1.5,56,160.0
3103,B4,420.0,0.125,35,160.0
3104,G4,420.0,62/125,28,160.0
3105,B-3,420.0,62/125,28,160.0
3106,B-4,420.125,0.125,31,160.0
3107,B4,420.25,0.125,36,160.0
3108,B-4,420.375,0.125,32,160.0
3109,B4,420.5,0.125,36,160.0
3110,F3,420.5,4.5,35,160.0
3111,B-4,420.625,0.125,31,160.0
3112,B4,420.75,0.125,37,160.0
3113,B-4,420.875,0.125,31,160.0
3114,B4,421.0,0.125,37,160.0
3115,B-4,421.125,0.125,32,160.0
3116,B4,421.25,0.125,37,160.0
3117,B-4,421.375,0.125,32,160.0
3118,B4,421.5,0.125,37,160.0
3119,G#5,421.5,1.5,59,160.0
3120,G#4,421.5,62/125,28,160.0
3121,B-3,421.5,62/125,28,160.0
3122,B-4,421.625,0.125,32,160.0
3123,B4,421.75,0.125,37,160.0
3124,B-4,421.875,0.125,33,160.0
3125,B4,422.0,0.125,37,160.0
3126,G#4,422.0,99/100,32,160.0
3127,D4,422.0,99/100,32,160.0
3128,B-4,422.125,0.125,32,160.0
3129,B4,422.25,0.125,37,160.0
3130,B-4,422.375,0.125,32,160.0
3131,B4,422.5,0.125,37,160.0
3132,B-4,422.625,0.125,32,160.0
3133,B4,422.75,0.125,37,160.0
3134,B-4,422.875,0.125,31,160.0
3135,G#5,423.0,3.0,61,160.0
3136,B4,423.0,0.125,37,160.0
3137,G#4,423.0,62/125,28,160.0
3138,B-3,423.0,62/125,28,160.0
3139,B-4,423.125,0.125,31,160.0
3140,B4,423.25,0.125,36,160.0
3141,B-4,423.375,0.125,31,160.0
3142,B4,423.5,0.125,36,160.0
3143,D4,423.5,99/100,32,160.0
3144,G#4,423.5,99/100,32,160.0
3145,B-4,423.625,0.125,30,160.0
3146,B4,423.75,0.125,36,160.0
3147,B-4,423.875,0.125,29,160.0
3148,B4,424.0,0.125,35,160.0
3149,B-4,424.125,0.125,29,160.0
3150,B4,424.25,0.125,35,160.0
3151,B-4,424.375,0.125,29,160.0
3152,B4,424.5,0.125,34,160.0
3153,B-3,424.5,62/125,28,160.0
3154,G#4,424.5,62/125,28,160.0
3155,B-4,424.625,0.125,29,160.0
3156,B4,424.75,0.125,33,160.0
3157,B-4,424.875,0.125,29,160.0
3158,B4,425.0,0.125,33,160.0
3159,D3,425.0,1.5,35,160.0
3160,B-4,425.125,0.125,27,160.0
3161,B4,425.25,0.125,32,160.0
3162,B-4,425.375,0.125,27,160.0
3163,B4,425.5,0.125,32,160.0
3164,B-4,425.625,0.125,27,160.0
3165,B4,425.75,0.125,31,160.0
3166,B-4,425.875,0.125,27,160.0
3167,D5,426.0,1.5,50,160.0
3168,B4,426.0,0.125,30,160.0
3169,B-3,426.0,0.5,28,160.0
3170,D4,426.0,0.5,28,160.0
3171,B-4,426.125,0.125,26,160.0
3172,B4,426.25,0.125,30,160.0
3173,B-4,426.375,0.125,26,160.0
3174,B4,426.5,0.125,22,160.0
3175,F3,426.5,1.5,35,160.0
3176,B-4,426.625,0.125,24,160.0
3177,B4,426.75,0.125,27,160.0
3178,B-4,426.875,0.125,24,160.0
3179,B4,427.0,0.125,27,160.0
3180,B-4,427.125,0.125,24,160.0
3181,B4,427.25,0.125,27,160.0
3182,B-4,427.375,0.125,23,160.0
3183,E-5,427.5,1.5,51,160.0
3184,C5,427.5,0.125,29,160.0
3185,B-3,427.5,0.5,28,160.0
3186,D4,427.5,0.5,28,160.0
3187,B-4,427.625,0.125,26,160.0
3188,C5,427.75,0.125,30,160.0
3189,B-4,427.875,0.125,26,160.0
3190,C5,428.0,0.125,30,160.0
3191,G#3,428.0,1.5,35,160.0
3192,B-4,428.125,0.125,27,160.0
3193,C5,428.25,0.125,31,160.0
3194,B-4,428.375,0.125,26,160.0
3195,C5,428.5,0.125,32,160.0
3196,B-4,428.625,0.125,27,160.0
3197,C5,428.75,0.125,32,160.0
3198,B-4,428.875,0.125,28,160.0
3199,G5,429.0,1.5,56,160.0
3200,C5,429.0,0.125,33,160.0
3201,D4,429.0,0.5,28,160.0
3202,F4,429.0,0.5,28,160.0
3203,B-3,429.0,0.5,28,160.0
3204,B-4,429.125,0.125,29,160.0
3205,C5,429.25,0.125,34,160.0
3206,B-4,429.375,0.125,30,160.0
3207,C5,429.5,0.125,35,160.0
3208,G3,429.5,4.5,35,160.0
3209,B-4,429.625,0.125,28,160.0
3210,C5,429.75,0.125,35,160.0
3211,B-4,429.875,0.125,29,160.0
3212,C5,430.0,0.125,36,160.0
3213,B-4,430.125,0.125,30,160.0
3214,C5,430.25,0.125,36,160.0
3215,B-4,430.375,0.125,31,160.0
3216,C5,430.5,0.125,36,160.0
3217,B-5,430.5,1.5,59,160.0
3218,G4,430.5,62/125,28,160.0
3219,B-3,430.5,62/125,28,160.0
3220,B-4,430.625,0.125,32,160.0
3221,C5,430.75,0.125,37,160.0
3222,B-4,430.875,0.125,32,160.0
3223,C5,431.0,0.125,37,160.0
3224,G4,431.0,99/100,32,160.0
3225,E-4,431.0,99/100,32,160.0
3226,B-4,431.125,0.125,32,160.0
3227,C5,431.25,0.125,37,160.0
3228,B-4,431.375,0.125,32,160.0
3229,C5,431.5,0.125,37,160.0
3230,B-4,431.625,0.125,32,160.0
3231,C5,431.75,0.125,37,160.0
3232,B-4,431.875,0.125,31,160.0
3233,B-4,432.0,1.25,58,160.0
3234,B-5,432.0,1.25,58,160.0
3235,G4,432.0,62/125,28,160.0
3236,B-3,432.0,62/125,28,160.0
3237,E-4,432.5,99/100,32,160.0
3238,G4,432.5,99/100,32,160.0
3239,A4,433.25,0.125,43,160.0
3240,B-4,433.375,0.125,46,160.0
3241,B4,433.5,3/20,48,160.0
3242,B-3,433.5,62/125,28,160.0
3243,G4,433.5,62/125,28,160.0
3244,C5,433.65,71/500,49,160.0
3245,C#5,433.792,71/500,50,160.0
3246,D5,433.933,71/500,50,160.0
3247,E-3,434.0,1.5,35,160.0
3248,E-5,434.075,71/500,51,160.0
3249,E5,434.217,71/500,52,160.0
3250,F5,434.358,71/500,53,160.0
3251,F#5,434.5,0.125,53,160.0
3252,G5,434.625,0.125,54,160.0
3253,G#5,434.75,0.125,55,160.0
3254,A5,434.875,0.125,55,160.0
3255,B-5,435.0,1/5,56,160.0
3256,E-4,435.0,0.5,30,160.0
3257,G4,435.0,0.5,30,160.0
3258,B5,435.2,1/5,57,160.0
3259,C6,435.4,1/5,58,160.0
3260,G3,435.5,1.5,37,160.0
3261,C#6,435.6,1/5,59,160.0
3262,D6,435.8,1/5,60,160.0
3263,E-6,436.0,1/10,61,160.0
3264,E-6,436.1,1/10,61,160.0
3265,E-6,436.2,1/10,62,160.0
3266,E-6,436.3,1/10,62,160.0
3267,E-6,436.408,23/250,62,160.0
3268,E-6,436.5,0.125,62,160.0
3269,E-6,436.5,1/125,62,160.0
3270,E-4,436.5,0.5,31,160.0
3271,G4,436.5,0.5,31,160.0
3272,G6,436.75,0.125,57,160.0
3273,F6,437.0,0.125,57,160.0
3274,A3,437.0,1.5,39,160.0
3275,E-6,437.25,0.125,57,160.0
3276,D6,437.5,0.125,56,160.0
3277,C6,437.75,0.125,57,160.0
3278,B-5,438.0,0.25,62,160.0
3279,E-4,438.0,0.5,30,160.0
3280,F#4,438.0,0.5,30,160.0
3281,A5,438.25,0.25,54,160.0
3282,C6,438.5,0.25,57,160.0
3283,B-3,438.5,4.0,34,160.0
3284,B-4,438.5,4.0,34,160.0
3285,B-5,438.75,0.25,56,160.0
3286,G#5,439.0,0.25,55,160.0
3287,G5,439.25,0.25,54,160.0
3288,E5,439.5,0.125,50,160.0
3289,E-4,439.5,62/125,32,160.0
3290,G4,439.5,62/125,32,160.0
3291,F5,439.625,0.125,50,160.0
3292,E5,439.75,0.125,50,160.0
3293,F5,439.875,0.125,50,160.0
3294,E5,440.0,0.125,50,160.0
3295,E-4,440.0,99/100,32,160.0
3296,G4,440.0,99/100,32,160.0
3297,F5,440.125,0.125,50,160.0
3298,E5,440.25,0.125,50,160.0
3299,F5,440.375,0.125,52,160.0
3300,G#5,440.5,0.375,56,160.0
3301,G5,440.875,0.125,52,160.0
3302,B-4,441.0,3.0,53,160.0
3303,E-4,441.0,62/125,32,160.0
3304,G4,441.0,62/125,32,160.0
3305,E-4,441.5,1.0,36,160.0
3306,G#4,441.5,1.0,36,160.0
3307,C5,442.0,0.25,49,160.0
3308,D5,442.25,0.25,50,160.0
3309,E-5,442.5,0.5,53,160.0
3310,D4,442.5,0.5,32,160.0
3311,G#4,442.5,0.5,32,160.0
3312,E-4,443.0,99/100,34,160.0
3313,F4,443.0,99/100,34,160.0
3314,G#4,443.0,99/100,34,160.0
3315,A4,443.875,0.125,44,160.0
3316,C#5,444.0,1.0,55,160.0
3317,A4,444.0,1.5,53,160.0
3318,E-4,444.0,62/125,31,160.0
3319,F4,444.0,62/125,31,160.0
3320,G#4,444.0,62/125,31,160.0
3321,E-4,444.5,99/100,33,160.0
3322,G4,444.5,99/100,33,160.0
3323,C5,445.0,0.5,53,160.0
3324,F5,445.5,3.0,56,160.0
3325,C5,445.5,1.5,53,160.0
3326,A4,445.5,1.5,53,160.0
3327,E-4,445.5,0.25,36,160.0
3328,G4,445.5,0.25,36,160.0
3329,E-3,445.75,0.125,39,160.0
3330,F#3,445.875,0.125,44,160.0
3331,F#4,446.0,99/100,50,160.0
3332,B-4,447.0,1.5,53,160.0
3333,E-4,447.0,0.25,36,160.0
3334,F#4,447.0,0.25,36,160.0
3335,C#3,447.25,0.125,35,160.0
3336,F3,447.375,0.125,37,160.0
3337,F4,447.5,99/100,45,160.0
3338,A2,448.5,0.125,46,160.0
3339,C#4,448.5,62/125,36,160.0
3340,F4,448.5,62/125,36,160.0
3341,C3,448.625,0.125,47,160.0
3342,E-3,448.75,0.125,47,160.0
3343,F3,448.875,0.125,48,160.0
3344,F#3,449.0,0.125,49,160.0
3345,C#4,449.0,99/100,39,160.0
3346,F4,449.0,99/100,39,160.0
3347,A3,449.125,0.125,50,160.0
3348,C4,449.25,0.125,50,160.0
3349,E-4,449.375,119/1000,51,160.0
3350,F4,449.5,1/10,52,160.0
3351,F#4,449.6,1/10,52,160.0
3352,A4,449.7,1/10,53,160.0
3353,C5,449.8,1/10,54,160.0
3354,F#5,449.9,1/10,54,160.0
3355,F5,450.0,1.0,57,160.0
3356,C#4,450.0,62/125,36,160.0
3357,F4,450.0,62/125,36,160.0
3358,E-4,450.5,871/1000,39,160.0
3359,C4,450.5,1.0,39,160.0
3360,F4,450.5,1.0,39,160.0
3361,E5,451.0,83/1000,52,160.0
3362,F5,451.083,83/1000,47,160.0
3363,E5,451.167,83/1000,51,160.0
3364,F5,451.25,83/1000,47,160.0
3365,E5,451.333,83/1000,51,160.0
3366,F5,451.417,83/1000,46,160.0
3367,B-5,451.5,1.0,53,160.0
3368,C4,451.5,0.5,36,160.0
3369,E-4,451.5,0.5,36,160.0
3370,C#4,452.0,99/100,39,160.0
3371,F4,452.0,99/100,39,160.0
3372,B-5,452.5,0.25,53,160.0
3373,B5,452.75,0.25,56,160.0
3374,C6,453.0,0.125,55,160.0
3375,C#4,453.0,62/125,36,160.0
3376,F4,453.0,62/125,36,160.0
3377,B5,453.125,0.125,55,160.0
3378,C6,453.25,0.125,56,160.0
3379,B5,453.375,0.125,57,160.0
3380,C6,453.5,0.125,58,160.0
3381,C#4,453.5,99/100,36,160.0
3382,F4,453.5,99/100,36,160.0
3383,B5,453.625,0.125,59,160.0
3384,C6,453.75,0.125,60,160.0
3385,B5,453.875,0.125,60,160.0
3386,C6,454.0,3/20,62,160.0
3387,B5,454.15,3/20,63,160.0
3388,B-5,454.3,1/10,64,160.0
3389,B5,454.4,1/10,66,160.0
3390,C6,454.5,1.75,70,160.0
3391,C#4,454.5,62/125,39,160.0
3392,F4,454.5,62/125,39,160.0
3393,C#4,455.0,99/100,40,160.0
3394,F4,455.0,99/100,40,160.0
3395,G4,455.0,99/100,40,160.0
3396,C#4,456.0,62/125,45,160.0
3397,F4,456.0,62/125,45,160.0
3398,G4,456.0,62/125,45,160.0
3399,G5,456.25,0.25,64,160.0
3400,E5,456.5,0.25,62,160.0
3401,C4,456.5,99/100,49,160.0
3402,E4,456.5,99/100,49,160.0
3403,G4,456.5,99/100,49,160.0
3404,C5,456.75,0.25,61,160.0
3405,G4,457.0,0.25,60,160.0
3406,E4,457.25,0.25,59,160.0
3407,G#4,457.5,0.25,58,160.0
3408,C4,457.5,62/125,39,160.0
3409,E4,457.5,62/125,39,160.0
3410,G4,457.5,62/125,39,160.0
3411,F4,457.75,0.25,56,160.0
3412,C#4,458.0,0.25,56,160.0
3413,C4,458.0,99/100,42,160.0
3414,E4,458.0,99/100,42,160.0
3415,G4,458.0,99/100,42,160.0
3416,B3,458.25,0.25,55,160.0
3417,G#3,458.5,0.25,54,160.0
3418,F3,458.75,0.25,52,160.0
3419,E3,459.0,0.25,55,160.0
3420,C4,459.0,62/125,37,160.0
3421,E4,459.0,123/500,37,160.0
3422,G3,459.25,0.25,52,160.0
3423,C4,459.5,0.25,52,160.0
3424,C3,459.5,0.5,42,160.0
3425,F3,459.5,0.5,42,160.0
3426,E4,459.75,0.25,52,160.0
3427,F#3,460.0,0.25,49,160.0
3428,E-4,460.25,0.25,49,160.0
3429,F3,460.5,0.25,55,160.0
3430,G#3,460.75,0.25,52,160.0
3431,B2,460.75,0.25,41,160.0
3432,C#4,461.0,0.25,52,160.0
3433,C3,461.0,0.5,46,160.0
3434,F4,461.25,0.25,52,160.0
3435,G#3,461.5,0.25,49,160.0
3436,C2,461.5,0.25,41,160.0
3437,G#4,461.75,0.25,49,160.0
3438,B3,462.0,0.25,57,160.0
3439,G#2,462.0,0.5,41,160.0
3440,D4,462.25,0.25,53,160.0
3441,F4,462.5,0.25,53,160.0
3442,C#3,462.5,0.5,47,160.0
3443,B4,462.75,0.25,53,160.0
3444,F4,463.0,0.25,48,160.0
3445,C#2,463.0,0.25,41,160.0
3446,F5,463.25,0.25,49,160.0
3447,E4,463.5,0.25,58,160.0
3448,F3,463.5,0.5,41,160.0
3449,G4,463.75,0.25,53,160.0
3450,C5,464.0,0.25,53,160.0
3451,G3,464.0,0.5,47,160.0
3452,E5,464.25,0.25,54,160.0
3453,F#4,464.5,0.25,52,160.0
3454,G2,464.5,0.25,41,160.0
3455,E-5,464.75,0.25,52,160.0
3456,F4,465.0,0.25,60,160.0
3457,B3,465.0,0.5,41,160.0
3458,G#4,465.25,0.25,57,160.0
3459,C#5,465.5,0.25,57,160.0
3460,C4,465.5,0.5,47,160.0
3461,F5,465.75,0.25,58,160.0
3462,G#4,466.0,0.25,55,160.0
3463,C3,466.0,0.25,42,160.0
3464,G#5,466.25,0.25,55,160.0
3465,B4,466.5,0.25,67,160.0
3466,G#3,466.5,0.5,43,160.0
3467,D5,466.75,0.25,60,160.0
3468,F5,467.0,0.25,60,160.0
3469,C#4,467.0,0.5,50,160.0
3470,B5,467.25,0.25,62,160.0
3471,F5,467.5,0.25,58,160.0
3472,C#3,467.5,0.25,44,160.0
3473,F6,467.75,0.25,58,160.0
3474,E5,468.0,0.25,67,160.0
3475,F4,468.0,0.5,46,160.0
3476,G5,468.25,0.25,64,160.0
3477,C6,468.5,0.25,65,160.0
3478,G4,468.5,0.5,54,160.0
3479,E6,468.75,0.25,66,160.0
3480,F#5,469.0,0.25,63,160.0
3481,G3,469.0,0.25,48,160.0
3482,E-6,469.25,0.25,63,160.0
3483,F5,469.5,0.25,71,160.0
3484,B4,469.5,0.5,49,160.0
3485,G#5,469.75,0.25,68,160.0
3486,C#6,470.0,0.25,70,160.0
3487,C5,470.0,0.5,56,160.0
3488,F6,470.25,0.25,70,160.0
3489,G#5,470.5,0.25,66,160.0
3490,C4,470.5,0.25,51,160.0
3491,G#6,470.75,0.25,66,160.0
3492,B5,471.0,0.25,77,160.0
3493,G#4,471.0,0.5,52,160.0
3494,D6,471.25,0.25,73,160.0
3495,F6,471.5,0.25,74,160.0
3496,C#5,471.5,0.5,60,160.0
3497,B6,471.75,0.25,74,160.0
3498,F6,472.0,0.25,68,160.0
3499,C#4,472.0,0.25,55,160.0
3500,F7,472.25,0.25,69,160.0
3501,E6,472.5,0.25,71,160.0
3502,F5,472.5,0.5,56,160.0
3503,E7,472.75,0.25,72,160.0
3504,B6,473.0,0.25,79,160.0
3505,G5,473.0,0.5,64,160.0
3506,E7,473.25,0.25,73,160.0
3507,C7,473.5,0.25,70,160.0
3508,G4,473.5,0.25,57,160.0
3509,G6,473.75,0.25,70,160.0
3510,E6,474.0,0.25,73,160.0
3511,B5,474.0,0.5,58,160.0
3512,C7,474.25,0.25,73,160.0
3513,F#6,474.5,0.25,79,160.0
3514,C6,474.5,0.25,61,160.0
3515,C7,474.75,0.25,73,160.0
3516,G6,475.0,0.25,73,160.0
3517,E6,475.25,0.25,71,160.0
3518,C6,475.5,0.25,73,160.0
3519,G6,475.75,0.25,73,160.0
3520,C4,475.812,1.188,63,160.0
3521,G4,475.875,1.125,66,160.0
3522,B-4,475.938,1.062,68,160.0
3523,E-6,476.0,0.25,78,160.0
3524,E5,476.0,1.0,71,160.0
3525,G6,476.25,0.25,73,160.0
3526,E6,476.5,0.25,71,160.0
3527,C6,476.75,0.25,72,160.0
3528,G5,477.0,0.25,73,160.0
3529,E6,477.25,0.25,73,160.0
3530,B5,477.5,0.25,77,160.0
3531,E6,477.75,0.25,73,160.0
3532,C6,478.0,0.25,70,160.0
3533,G5,478.25,0.25,70,160.0
3534,E5,478.5,0.25,73,160.0
3535,C6,478.75,0.25,73,160.0
3536,F#5,479.0,0.25,78,160.0
3537,C6,479.25,0.25,73,160.0
3538,G5,479.5,0.25,71,160.0
3539,E5,479.75,0.25,71,160.0
3540,C5,480.0,0.25,71,160.0
3541,G5,480.25,0.25,70,160.0
3542,E-5,480.5,0.25,73,160.0
3543,G5,480.75,0.25,68,160.0
3544,E5,481.0,0.25,65,160.0
3545,C5,481.25,0.25,65,160.0
3546,G4,481.5,0.25,66,160.0
3547,E5,481.75,0.25,61,160.0
3548,B4,482.0,0.25,67,160.0
3549,E5,482.25,0.25,59,160.0
3550,C5,482.5,0.25,59,160.0
3551,B-4,482.75,0.25,57,160.0
3552,G4,483.0,0.25,56,160.0
3553,E4,483.25,0.25,55,160.0
3554,C4,483.5,0.25,55,160.0
3555,B-3,483.75,0.25,54,160.0
3556,G3,484.0,0.25,53,160.0
3557,E3,484.25,0.25,52,160.0
3558,A4,486.5,0.25,61,160.0
3559,C2,486.5,0.25,58,160.0
3560,B-4,486.75,0.5,56,160.0
3561,B-2,486.75,0.25,54,160.0
3562,C5,487.0,0.25,56,160.0
3563,C3,487.0,0.25,55,160.0
3564,E5,487.25,0.25,56,160.0
3565,E3,487.25,0.25,55,160.0
3566,A5,487.5,0.25,64,160.0
3567,A3,487.5,0.25,58,160.0
3568,B-5,487.75,0.5,55,160.0
3569,B-3,487.75,0.5,55,160.0
3570,C6,488.0,0.25,55,160.0
3571,C4,488.0,0.25,55,160.0
3572,E6,488.25,0.25,56,160.0
3573,E4,488.25,0.25,55,160.0
3574,A6,488.5,1/5,64,160.0
3575,G6,488.7,1/5,58,160.0
3576,F#6,488.9,1/5,59,160.0
3577,G6,489.1,1/5,59,160.0
3578,A6,489.3,1/5,65,160.0
3579,G6,489.5,0.125,44,160.0
3580,A6,489.625,0.125,38,160.0
3581,G6,489.75,0.125,42,160.0
3582,A6,489.875,0.125,37,160.0
3583,G6,490.0,0.125,43,160.0
3584,A6,490.125,0.125,37,160.0
3585,G6,490.25,0.125,43,160.0
3586,A6,490.375,0.125,38,160.0
3587,G6,490.5,0.125,44,160.0
3588,A6,490.625,0.125,40,160.0
3589,G6,490.75,0.125,44,160.0
3590,A6,490.875,0.125,40,160.0
3591,G6,491.0,0.125,45,160.0
3592,A6,491.125,0.125,41,160.0
3593,G6,491.25,0.125,46,160.0
3594,A6,491.375,0.125,43,160.0
3595,G6,491.5,0.125,48,160.0
3596,C3,491.5,0.5,50,160.0
3597,A6,491.625,0.125,43,160.0
3598,G6,491.75,0.125,48,160.0
3599,A6,491.875,0.125,44,160.0
3600,G6,492.0,0.125,50,160.0
3601,A6,492.125,0.125,44,160.0
3602,G6,492.25,0.125,51,160.0
3603,A6,492.375,0.125,44,160.0
3604,G6,492.5,0.125,51,160.0
3605,B-3,492.5,0.5,45,160.0
3606,A6,492.625,0.125,45,160.0
3607,G6,492.75,0.125,50,160.0
3608,A6,492.875,0.125,45,160.0
3609,G6,493.0,0.125,50,160.0
3610,A6,493.125,0.125,43,160.0
3611,G6,493.25,0.125,49,160.0
3612,A6,493.375,0.125,43,160.0
3613,G6,493.5,0.125,48,160.0
3614,E4,493.5,0.5,47,160.0
3615,A6,493.625,0.125,43,160.0
3616,G6,493.75,0.125,47,160.0
3617,A6,493.875,0.125,38,160.0
3618,G6,494.0,0.125,44,160.0
3619,A6,494.125,0.125,36,160.0
3620,G6,494.25,0.125,46,160.0
3621,A6,494.375,0.125,37,160.0
3622,G6,494.5,167/1000,45,160.0
3623,B-4,494.5,0.5,51,160.0
3624,A6,494.667,167/1000,40,160.0
3625,G6,494.833,167/1000,38,160.0
3626,F#6,495.0,167/1000,44,160.0
3627,G6,495.167,167/1000,46,160.0
3628,A6,495.333,167/1000,46,160.0
3629,G6,495.5,1.0,52,160.0
3630,E5,495.5,0.5,46,160.0
3631,B-5,496.5,0.5,43,160.0
3632,E6,497.5,1.0,41,160.0
3633,E-4,499.0,99/100,41,160.0
3634,A4,499.0,99/100,41,160.0
3635,E-4,500.0,62/125,40,160.0
3636,A4,500.0,62/125,40,160.0
3637,E4,500.5,99/100,46,160.0
3638,B-4,500.5,99/100,46,160.0
3639,C3,501.0,99/100,32,160.0
3640,F#3,501.0,99/100,32,160.0
3641,C4,501.0,99/100,32,160.0
3642,E4,501.5,62/125,44,160.0
3643,B-4,501.5,62/125,44,160.0
3644,F4,502.0,99/100,48,160.0
3645,B4,502.0,99/100,48,160.0
3646,C3,502.0,62/125,29,160.0
3647,F#3,502.0,62/125,29,160.0
3648,C4,502.0,62/125,29,160.0
3649,C3,502.5,99/100,33,160.0
3650,G3,502.5,99/100,33,160.0
3651,C4,502.5,99/100,33,160.0
3652,F4,503.0,62/125,47,160.0
3653,B4,503.0,62/125,47,160.0
3654,F4,503.5,99/100,52,160.0
3655,C5,503.5,99/100,52,160.0
3656,C3,503.5,62/125,31,160.0
3657,G3,503.5,62/125,31,160.0
3658,C4,503.5,62/125,31,160.0
3659,C3,504.0,99/100,38,160.0
3660,G#3,504.0,99/100,38,160.0
3661,D4,504.0,99/100,38,160.0
3662,F4,504.5,62/125,48,160.0
3663,A4,505.0,99/100,58,160.0
3664,D5,505.0,99/100,58,160.0
3665,C3,505.0,62/125,36,160.0
3666,G#3,505.0,62/125,36,160.0
3667,D4,505.0,62/125,36,160.0
3668,C3,505.5,99/100,42,160.0
3669,A3,505.5,99/100,42,160.0
3670,C4,505.5,99/100,42,160.0
3671,A4,506.0,62/125,56,160.0
3672,C5,506.0,62/125,56,160.0
3673,G4,506.5,99/100,55,160.0
3674,B-4,506.5,99/100,55,160.0
3675,C3,506.5,62/125,40,160.0
3676,A3,506.5,62/125,40,160.0
3677,C4,506.5,62/125,40,160.0
3678,C3,507.0,99/100,48,160.0
3679,F#3,507.0,99/100,48,160.0
3680,D4,507.0,99/100,48,160.0
3681,G#4,507.5,62/125,46,160.0
3682,B4,507.5,62/125,46,160.0
3683,G4,508.0,99/100,50,160.0
3684,C5,508.0,99/100,50,160.0
3685,C3,508.0,62/125,43,160.0
3686,F#3,508.0,62/125,43,160.0
3687,D4,508.0,62/125,43,160.0
3688,C3,508.5,99/100,44,160.0
3689,G3,508.5,99/100,44,160.0
3690,D4,508.5,99/100,44,160.0
3691,E4,509.0,62/125,44,160.0
3692,B-4,509.0,62/125,44,160.0
3693,F4,509.5,1.0,42,160.0
3694,A4,509.5,1.0,42,160.0
3695,C3,509.5,62/125,32,160.0
3696,F3,509.5,62/125,32,160.0
3697,D4,509.5,62/125,32,160.0
3698,C3,510.0,99/100,36,160.0
3699,E3,510.0,99/100,36,160.0
3700,C4,510.0,99/100,36,160.0
3701,E-7,511.0,0.25,38,160.0
3702,C3,511.0,62/125,33,160.0
3703,G3,511.0,62/125,33,160.0
3704,C4,511.0,62/125,33,160.0
3705,D7,511.25,0.25,36,160.0
3706,F7,511.5,0.25,40,160.0
3707,C3,511.5,1.0,32,160.0
3708,F3,511.5,1.0,32,160.0
3709,C4,511.5,1.0,32,160.0
3710,E-7,511.75,0.25,37,160.0
3711,D7,512.0,0.25,37,160.0
3712,C7,512.25,0.25,37,160.0
3713,B-6,512.5,0.25,40,160.0
3714,C3,512.5,0.5,33,160.0
3715,A6,512.75,0.25,37,160.0
3716,C7,513.0,0.25,41,160.0
3717,C3,513.0,99/100,36,160.0
3718,F#3,513.0,99/100,36,160.0
3719,A3,513.0,99/100,36,160.0
3720,B-6,513.25,0.25,38,160.0
3721,A6,513.5,0.25,39,160.0
3722,G6,513.75,0.25,39,160.0
3723,F6,514.0,0.25,42,160.0
3724,C3,514.0,62/125,33,160.0
3725,F#3,514.0,62/125,33,160.0
3726,A3,514.0,62/125,33,160.0
3727,E6,514.25,0.25,39,160.0
3728,G6,514.5,0.25,44,160.0
3729,C3,514.5,99/100,39,160.0
3730,G3,514.5,99/100,39,160.0
3731,B-3,514.5,99/100,39,160.0
3732,F6,514.75,0.25,41,160.0
3733,E6,515.0,0.25,41,160.0
3734,D6,515.25,0.25,41,160.0
3735,C6,515.5,0.25,43,160.0
3736,C3,515.5,62/125,37,160.0
3737,G3,515.5,62/125,37,160.0
3738,B-3,515.5,62/125,37,160.0
3739,B5,515.75,0.25,41,160.0
3740,D6,516.0,0.25,47,160.0
3741,C3,516.0,99/100,43,160.0
3742,G#3,516.0,99/100,43,160.0
3743,B3,516.0,99/100,43,160.0
3744,C6,516.25,0.25,44,160.0
3745,B-5,516.5,0.25,44,160.0
3746,A5,516.75,0.25,44,160.0
3747,D6,517.0,0.25,47,160.0
3748,C3,517.0,62/125,41,160.0
3749,G#3,517.0,62/125,41,160.0
3750,B3,517.0,62/125,41,160.0
3751,C#6,517.25,0.25,45,160.0
3752,E-6,517.5,0.25,51,160.0
3753,C3,517.5,99/100,37,160.0
3754,A3,517.5,297/200,42,160.0
3755,C4,517.5,297/200,42,160.0
3756,D6,517.75,0.25,46,160.0
3757,C6,518.0,0.25,46,160.0
3758,A5,518.25,0.25,47,160.0
3759,B-5,518.5,0.25,51,160.0
3760,C3,518.5,62/125,45,160.0
3761,A5,518.75,0.25,47,160.0
3762,C6,519.0,0.25,52,160.0
3763,C3,519.0,99/100,48,160.0
3764,F#3,519.0,99/100,48,160.0
3765,D4,519.0,99/100,48,160.0
3766,B-5,519.25,0.25,48,160.0
3767,G5,519.5,0.25,48,160.0
3768,D5,519.75,0.25,48,160.0
3769,C5,520.0,0.25,53,160.0
3770,C3,520.0,62/125,46,160.0
3771,A3,520.0,62/125,46,160.0
3772,D4,520.0,62/125,46,160.0
3773,B4,520.25,0.25,49,160.0
3774,D5,520.5,0.25,54,160.0
3775,C3,520.5,99/100,49,160.0
3776,G3,520.5,99/100,49,160.0
3777,D4,520.5,99/100,49,160.0
3778,C5,520.75,0.25,49,160.0
3779,B-4,521.0,0.25,49,160.0
3780,G4,521.25,0.25,49,160.0
3781,A4,521.5,0.25,52,160.0
3782,C3,521.5,62/125,46,160.0
3783,F3,521.5,62/125,46,160.0
3784,D4,521.5,62/125,46,160.0
3785,G#4,521.75,0.25,49,160.0
3786,A4,522.0,0.25,56,160.0
3787,C3,522.0,99/100,50,160.0
3788,E3,522.0,99/100,50,160.0
3789,C4,522.0,99/100,50,160.0
3790,B-4,522.25,0.25,50,160.0
3791,F4,522.5,0.25,51,160.0
3792,A4,522.75,0.25,51,160.0
3793,E-4,523.0,1.0,60,160.0
3794,C3,523.0,62/125,49,160.0
3795,G3,523.0,62/125,49,160.0
3796,C4,523.0,62/125,49,160.0
3797,A4,523.25,0.25,56,160.0
3798,G#4,523.5,0.25,56,160.0
3799,C3,523.5,99/100,52,160.0
3800,F3,523.5,99/100,52,160.0
3801,C4,523.5,99/100,52,160.0
3802,A4,523.75,0.25,56,160.0
3803,B-4,524.0,0.25,53,160.0
3804,A4,524.25,0.25,53,160.0
3805,E4,524.5,1.0,60,160.0
3806,C3,524.5,62/125,46,160.0
3807,B-4,524.75,0.25,57,160.0
3808,A4,525.0,0.25,57,160.0
3809,C3,525.0,99/100,50,160.0
3810,F#3,525.0,99/100,50,160.0
3811,A3,525.0,99/100,50,160.0
3812,B-4,525.25,0.25,57,160.0
3813,C5,525.5,0.25,55,160.0
3814,B-4,525.75,0.25,55,160.0
3815,F4,526.0,1.0,63,160.0
3816,C3,526.0,62/125,47,160.0
3817,F#3,526.0,62/125,47,160.0
3818,A3,526.0,62/125,47,160.0
3819,B4,526.25,0.25,58,160.0
3820,B-4,526.5,0.25,58,160.0
3821,C3,526.5,99/100,55,160.0
3822,G3,526.5,99/100,55,160.0
3823,B-3,526.5,99/100,55,160.0
3824,B4,526.75,0.25,58,160.0
3825,C5,527.0,0.25,56,160.0
3826,B4,527.25,0.25,56,160.0
3827,F4,527.5,1.0,65,160.0
3828,C3,527.5,62/125,51,160.0
3829,G3,527.5,62/125,51,160.0
3830,B-3,527.5,62/125,51,160.0
3831,C5,527.75,0.25,59,160.0
3832,B4,528.0,0.25,59,160.0
3833,C3,528.0,99/100,54,160.0
3834,G#3,528.0,99/100,54,160.0
3835,B3,528.0,99/100,54,160.0
3836,C5,528.25,0.25,59,160.0
3837,D5,528.5,0.25,56,160.0
3838,C5,528.75,0.25,56,160.0
3839,A4,529.0,1.0,65,160.0
3840,C3,529.0,62/125,54,160.0
3841,G#3,529.0,62/125,54,160.0
3842,B3,529.0,62/125,54,160.0
3843,D5,529.25,0.25,60,160.0
3844,C#5,529.5,0.25,60,160.0
3845,C3,529.5,99/100,50,160.0
3846,A3,529.5,297/200,55,160.0
3847,C4,529.5,297/200,55,160.0
3848,D5,529.75,0.25,60,160.0
3849,E5,530.0,0.25,58,160.0
3850,D5,530.25,0.25,58,160.0
3851,D5,530.5,1.0,66,160.0
3852,C3,530.5,62/125,57,160.0
3853,G5,530.75,0.25,61,160.0
3854,F#5,531.0,0.25,61,160.0
3855,C3,531.0,99/100,59,160.0
3856,F#3,531.0,99/100,59,160.0
3857,D4,531.0,99/100,59,160.0
3858,G5,531.25,0.25,61,160.0
3859,A5,531.5,0.25,59,160.0
3860,G5,531.75,0.25,60,160.0
3861,G5,532.0,1.0,69,160.0
3862,C3,532.0,62/125,56,160.0
3863,A3,532.0,62/125,56,160.0
3864,D4,532.0,62/125,56,160.0
3865,C6,532.25,0.25,63,160.0
3866,B5,532.5,0.25,63,160.0
3867,B-2,532.5,0.5,67,160.0
3868,C6,532.75,0.25,63,160.0
3869,D6,533.0,0.25,61,160.0
3870,D4,533.0,0.5,58,160.0
3871,C6,533.25,0.25,61,160.0
3872,C6,533.5,1.0,70,160.0
3873,G4,533.5,0.5,59,160.0
3874,F6,533.75,0.25,63,160.0
3875,E6,534.0,0.25,63,160.0
3876,B-3,534.0,1.5,68,160.0
3877,F6,534.25,0.25,59,160.0
3878,G6,534.5,0.25,61,160.0
3879,C4,534.5,0.5,58,160.0
3880,F6,534.75,0.25,61,160.0
3881,D6,535.0,0.25,65,160.0
3882,E4,535.0,0.5,60,160.0
3883,C#6,535.25,0.25,60,160.0
3884,E6,535.5,0.25,66,160.0
3885,A3,535.5,1.5,69,160.0
3886,D6,535.75,0.25,63,160.0
3887,G5,536.0,0.5,72,160.0
3888,C4,536.0,0.5,59,160.0
3889,E6,536.5,1.0,75,160.0
3890,F4,536.5,0.5,61,160.0
3891,A6,536.75,0.25,68,160.0
3892,G#6,537.0,0.25,69,160.0
3893,B-3,537.0,1.5,71,160.0
3894,A6,537.25,0.25,63,160.0
3895,B-6,537.5,0.25,64,160.0
3896,D4,537.5,0.5,62,160.0
3897,A6,537.75,0.25,64,160.0
3898,F6,538.0,0.25,71,160.0
3899,G4,538.0,0.5,63,160.0
3900,E6,538.25,0.25,64,160.0
3901,G6,538.5,0.25,72,160.0
3902,C4,538.5,1.5,74,160.0
3903,F6,538.75,0.25,66,160.0
3904,D6,539.0,0.5,77,160.0
3905,E4,539.0,0.5,65,160.0
3906,G6,539.5,1.0,79,160.0
3907,A4,539.5,0.5,66,160.0
3908,C7,539.75,0.25,71,160.0
3909,B6,540.0,0.25,73,160.0
3910,D4,540.0,1.5,77,160.0
3911,C7,540.25,0.25,67,160.0
3912,D7,540.5,0.25,67,160.0
3913,F4,540.5,0.5,67,160.0
3914,C7,540.75,0.25,69,160.0
3915,A6,541.0,0.25,74,160.0
3916,B-4,541.0,0.5,68,160.0
3917,G#6,541.25,0.25,68,160.0
3918,B-6,541.5,0.25,75,160.0
3919,E4,541.5,1.5,78,160.0
3920,A6,541.75,0.25,68,160.0
3921,F6,542.0,0.5,77,160.0
3922,G4,542.0,0.5,68,160.0
3923,A6,542.5,1.0,83,160.0
3924,C5,542.5,0.5,69,160.0
3925,D7,542.75,0.25,76,160.0
3926,C#7,543.0,0.25,76,160.0
3927,F4,543.0,1.5,81,160.0
3928,D7,543.25,0.25,70,160.0
3929,E-7,543.5,0.25,70,160.0
3930,A4,543.5,0.5,68,160.0
3931,D7,543.75,0.25,70,160.0
3932,B-6,544.0,0.25,76,160.0
3933,C5,544.0,0.5,68,160.0
3934,A6,544.25,0.25,69,160.0
3935,C7,544.5,0.25,76,160.0
3936,F#4,544.5,1.5,82,160.0
3937,B-6,544.75,0.25,69,160.0
3938,G6,545.0,0.5,80,160.0
3939,A4,545.0,0.5,71,160.0
3940,B-6,545.5,0.25,50,160.0
3941,D5,545.5,0.5,71,160.0
3942,E7,545.75,0.25,45,160.0
3943,G6,546.0,0.25,45,160.0
3944,G4,546.0,1.5,82,160.0
3945,B-6,546.25,0.062,42,160.0
3946,C7,546.312,0.062,42,160.0
3947,B-6,546.375,0.125,45,160.0
3948,A6,546.5,0.25,48,160.0
3949,B-4,546.5,0.5,71,160.0
3950,G6,546.75,0.25,45,160.0
3951,F#6,547.0,0.25,50,160.0
3952,D5,547.0,0.5,71,160.0
3953,C7,547.25,0.25,45,160.0
3954,C6,547.5,0.25,45,160.0
3955,C#4,547.5,0.5,48,160.0
3956,E-6,547.75,0.062,40,160.0
3957,F6,547.812,0.062,40,160.0
3958,E-6,547.875,0.125,45,160.0
3959,D6,548.0,0.25,45,160.0
3960,B-4,548.0,1.0,42,160.0
3961,C6,548.25,0.25,45,160.0
3962,B5,548.5,0.25,49,160.0
3963,E5,548.5,0.5,43,160.0
3964,F6,548.75,0.25,45,160.0
3965,F5,549.0,0.25,45,160.0
3966,D4,549.0,0.5,47,160.0
3967,G#5,549.25,0.062,39,160.0
3968,B-5,549.312,0.062,39,160.0
3969,G#5,549.375,0.125,42,160.0
3970,G5,549.5,0.25,49,160.0
3971,A4,549.5,1.0,43,160.0
3972,F5,549.75,0.25,45,160.0
3973,E5,550.0,0.25,51,160.0
3974,F#5,550.0,0.5,43,160.0
3975,B-5,550.25,0.25,45,160.0
3976,D5,550.5,0.25,45,160.0
3977,G3,550.5,0.5,47,160.0
3978,C#5,550.75,0.062,39,160.0
3979,E-5,550.812,0.062,39,160.0
3980,C#5,550.875,0.125,43,160.0
3981,C5,551.0,0.25,45,160.0
3982,D4,551.0,1.0,42,160.0
3983,B-4,551.25,0.25,45,160.0
3984,B-4,551.5,0.25,45,160.0
3985,B4,551.5,0.5,43,160.0
3986,A4,551.75,0.25,41,160.0
3987,C5,552.0,0.25,43,160.0
3988,C3,552.0,0.5,46,160.0
3989,E5,552.25,0.25,45,160.0
3990,F5,552.5,0.25,47,160.0
3991,G3,552.5,1.0,45,160.0
3992,A5,552.75,0.25,49,160.0
3993,C6,553.0,0.25,51,160.0
3994,E4,553.0,0.5,46,160.0
3995,E6,553.25,0.25,52,160.0
3996,F6,553.5,0.25,54,160.0
3997,F3,553.5,2.5,50,160.0
3998,A6,553.75,0.25,56,160.0
3999,C7,554.0,0.25,58,160.0
4000,A3,554.0,2.0,43,160.0
4001,E7,554.25,0.25,60,160.0
4002,F7,554.5,0.25,60,160.0
4003,C4,554.5,0.5,46,160.0
4004,E7,554.75,0.25,60,160.0
4005,E-7,555.0,0.25,59,160.0
4006,A4,555.0,1.0,50,160.0
4007,D7,555.25,0.25,59,160.0
4008,C#7,555.5,0.25,58,160.0
4009,C7,555.75,0.25,58,160.0
4010,B6,556.0,0.25,57,160.0
4011,B-6,556.25,0.25,57,160.0
4012,A6,556.5,0.25,56,160.0
4013,B2,556.5,0.5,55,160.0
4014,G#6,556.75,0.25,55,160.0
4015,G6,557.0,0.25,55,160.0
4016,G#3,557.0,2.0,50,160.0
4017,F#6,557.25,0.25,54,160.0
4018,F6,557.5,0.25,52,160.0
4019,D4,557.5,1.5,50,160.0
4020,A6,557.75,0.25,51,160.0
4021,G#6,558.0,0.25,50,160.0
4022,F4,558.0,1.0,53,160.0
4023,G6,558.25,0.25,49,160.0
4024,F#6,558.5,0.25,48,160.0
4025,F6,558.75,0.25,47,160.0
4026,E6,559.0,0.25,46,160.0
4027,E-6,559.25,0.25,46,160.0
4028,D6,559.5,0.25,45,160.0
4029,C3,559.5,0.5,47,160.0
4030,C#6,559.75,0.25,44,160.0
4031,C6,560.0,0.25,43,160.0
4032,A3,560.0,2.0,42,160.0
4033,B5,560.25,0.25,42,160.0
4034,B-5,560.5,0.25,46,160.0
4035,C4,560.5,1.5,42,160.0
4036,E6,560.75,0.25,40,160.0
4037,E-6,561.0,0.25,39,160.0
4038,F4,561.0,1.0,45,160.0
4039,D6,561.25,0.25,39,160.0
4040,C#6,561.5,0.25,39,160.0
4041,C6,561.75,0.25,38,160.0
4042,B5,562.0,0.25,38,160.0
4043,B-5,562.25,0.25,37,160.0
4044,A5,562.5,0.25,37,160.0
4045,C2,562.5,0.375,40,160.0
4046,G#5,562.75,0.25,37,160.0
4047,G5,563.0,0.25,36,160.0
4048,G3,563.0,2.0,36,160.0
4049,F#5,563.25,0.25,36,160.0
4050,F5,563.5,0.25,45,160.0
4051,B-3,563.5,1.5,36,160.0
4052,E4,564.0,1.0,40,160.0
4053,F2,565.5,0.375,38,160.0
4054,A4,566.0,0.5,47,160.0
4055,F3,566.0,0.5,32,160.0
4056,A5,566.25,0.25,44,160.0
4057,B-4,566.5,0.5,49,160.0
4058,A3,566.5,0.5,32,160.0
4059,B-5,566.75,0.25,45,160.0
4060,B4,567.0,0.5,51,160.0
4061,F4,567.0,0.5,37,160.0
4062,B5,567.25,0.25,48,160.0
4063,C5,567.5,0.5,54,160.0
4064,A3,567.5,0.5,36,160.0
4065,C6,567.75,0.25,50,160.0
4066,D5,568.0,0.5,56,160.0
4067,C4,568.0,0.5,36,160.0
4068,D6,568.25,0.25,51,160.0
4069,E5,568.5,0.5,58,160.0
4070,F3,568.5,3.0,46,160.0
4071,E6,568.75,0.25,54,160.0
4072,F5,569.0,0.5,60,160.0
4073,G3,569.0,0.5,38,160.0
4074,F6,569.25,0.125,56,160.0
4075,G5,569.375,0.125,57,160.0
4076,G6,569.5,0.5,63,160.0
4077,C4,569.5,0.5,40,160.0
4078,E4,570.0,0.5,42,160.0
4079,G3,570.5,0.5,44,160.0
4080,A4,571.0,0.5,54,160.0
4081,C4,571.0,0.5,47,160.0
4082,A5,571.25,0.25,49,160.0
4083,B-4,571.5,0.5,55,160.0
4084,F3,571.5,3.0,46,160.0
4085,B-5,571.75,0.25,51,160.0
4086,B4,572.0,0.5,57,160.0
4087,B-3,572.0,0.5,42,160.0
4088,B5,572.25,0.25,52,160.0
4089,C5,572.5,0.5,58,160.0
4090,C4,572.5,0.5,42,160.0
4091,C6,572.75,0.25,52,160.0
4092,D5,573.0,0.5,60,160.0
4093,E4,573.0,0.5,45,160.0
4094,D6,573.25,0.25,53,160.0
4095,E5,573.5,0.5,62,160.0
4096,B-3,573.5,0.5,46,160.0
4097,E6,573.75,0.25,55,160.0
4098,F5,574.0,0.5,63,160.0
4099,C4,574.0,0.5,47,160.0
4100,F6,574.25,0.25,55,160.0
4101,G5,574.5,0.5,65,160.0
4102,F3,574.5,3.0,53,160.0
4103,G6,574.75,0.25,56,160.0
4104,G#5,575.0,0.5,66,160.0
4105,A3,575.0,0.5,48,160.0
4106,G#6,575.25,0.125,54,160.0
4107,A5,575.375,0.125,54,160.0
4108,A6,575.5,0.25,68,160.0
4109,C4,575.5,0.5,48,160.0
4110,F4,576.0,0.5,49,160.0
4111,A3,576.5,0.5,50,160.0
4112,A5,577.0,0.5,66,160.0
4113,C4,577.0,0.5,50,160.0
4114,A6,577.25,0.25,63,160.0
4115,B5,577.5,0.5,68,160.0
4116,E3,577.5,0.5,55,160.0
4117,B6,577.75,0.25,66,160.0
4118,C#6,578.0,0.5,71,160.0
4119,A3,578.0,1.5,51,160.0
4120,C#7,578.25,0.125,69,160.0
4121,D6,578.375,0.125,69,160.0
4122,D7,578.5,0.875,74,160.0
4123,D6,578.5,0.875,69,160.0
4124,C#4,578.5,0.5,51,160.0
4125,G4,579.0,0.5,54,160.0
4126,E6,579.375,0.5,71,160.0
4127,E7,579.5,0.375,76,160.0
4128,A3,579.5,1.0,50,160.0
4129,F6,579.875,1.5,71,160.0
4130,F7,580.0,1.375,76,160.0
4131,C#4,580.0,0.5,51,160.0
4132,D3,580.5,0.5,55,160.0
4133,A3,581.0,1.5,65,160.0
4134,D6,581.375,0.125,70,160.0
4135,D7,581.5,0.875,77,160.0
4136,D6,581.5,0.875,70,160.0
4137,D4,581.5,0.5,53,160.0
4138,F4,582.0,0.5,58,160.0
4139,E6,582.375,0.5,73,160.0
4140,E7,582.5,0.375,78,160.0
4141,A3,582.5,1.0,67,160.0
4142,F6,582.875,1.625,71,160.0
4143,F7,583.0,1.5,76,160.0
4144,D4,583.0,0.5,53,160.0
4145,C3,583.5,0.5,58,160.0
4146,A3,584.0,1.5,66,160.0
4147,D6,584.5,0.25,83,160.0
4148,F6,584.5,21/500,71,160.0
4149,D4,584.5,0.5,53,160.0
4150,D7,584.75,0.25,76,160.0
4151,F6,585.0,0.25,76,160.0
4152,F4,585.0,0.5,58,160.0
4153,B-6,585.25,0.25,76,160.0
4154,G#6,585.5,0.25,76,160.0
4155,A3,585.5,1.0,71,160.0
4156,F6,585.75,0.25,76,160.0
4157,D6,586.0,0.25,84,160.0
4158,D4,586.0,0.5,61,160.0
4159,B-5,586.25,0.25,83,160.0
4160,G#5,586.5,0.25,81,160.0
4161,B-2,586.5,0.25,76,160.0
4162,F5,586.75,0.25,80,160.0
4163,D5,587.0,0.25,79,160.0
4164,B-4,587.25,0.25,77,160.0
4165,G#4,587.5,0.25,76,160.0
4166,F4,588.0,1.5,67,160.0
4167,B-3,588.0,1.5,67,160.0
4168,G#3,588.0,1.5,67,160.0
4169,F3,588.0,1.5,67,160.0
4170,G#4,589.0,1.5,66,160.0
4171,D4,589.0,1.5,66,160.0
4172,E4,589.0,1.5,66,160.0
4173,F4,589.5,0.25,67,160.0
4174,B-3,589.5,0.25,67,160.0
4175,G#3,589.5,0.25,67,160.0
4176,F3,589.5,0.25,67,160.0
4177,F4,589.75,0.25,70,160.0
4178,D4,590.0,0.25,69,160.0
4179,B-3,590.25,0.25,68,160.0
4180,G#3,590.5,0.25,67,160.0
4181,C#4,590.5,73/250,65,160.0
4182,A4,590.5,73/250,65,160.0
4183,D4,590.75,73/250,66,160.0
4184,F3,590.75,0.25,66,160.0
4185,E4,591.0,73/250,66,160.0
4186,D3,591.0,0.25,65,160.0
4187,F#4,591.25,73/250,67,160.0
4188,B-2,591.25,0.25,64,160.0
4189,G#4,591.5,73/250,68,160.0
4190,G#2,591.5,0.25,63,160.0
4191,A4,591.75,73/250,69,160.0
4192,F2,591.75,0.25,62,160.0
4193,B4,592.0,73/250,70,160.0
4194,D2,592.0,0.25,61,160.0
4195,C#5,592.25,73/250,71,160.0
4196,B-1,592.25,0.25,60,160.0
4197,D5,592.5,73/250,72,160.0
4198,A1,592.5,73/250,52,160.0
4199,E5,592.75,73/250,73,160.0
4200,B1,592.75,73/250,53,160.0
4201,F#5,593.0,73/250,74,160.0
4202,C#2,593.0,73/250,54,160.0
4203,G#5,593.25,0.25,74,160.0
4204,D2,593.25,73/250,55,160.0
4205,A5,593.5,73/250,75,160.0
4206,G#5,593.5,21/500,74,160.0
4207,E2,593.5,73/250,56,160.0
4208,B5,593.75,73/250,76,160.0
4209,F#2,593.75,73/250,57,160.0
4210,C#6,594.0,73/250,77,160.0
4211,G#2,594.0,73/250,58,160.0
4212,D6,594.25,73/250,78,160.0
4213,A2,594.25,73/250,59,160.0
4214,E6,594.5,73/250,79,160.0
4215,B2,594.5,73/250,60,160.0
4216,F#6,594.75,73/250,80,160.0
4217,C#3,594.75,73/250,61,160.0
4218,G#6,595.0,73/250,81,160.0
4219,D3,595.0,73/250,62,160.0
4220,A6,595.25,73/250,81,160.0
4221,E3,595.25,0.25,63,160.0
4222,B6,595.5,73/250,82,160.0
4223,F#3,595.5,73/250,64,160.0
4224,E3,595.5,21/500,63,160.0
4225,C#7,595.75,73/250,83,160.0
4226,G#3,595.75,73/250,65,160.0
4227,D7,596.0,73/250,84,160.0
4228,A3,596.0,73/250,66,160.0
4229,E-7,596.25,0.25,85,160.0
4230,B3,596.25,73/250,67,160.0
4231,E7,596.5,0.25,91,160.0
4232,E-7,596.5,21/500,85,160.0
4233,C#4,596.5,73/250,69,160.0
4234,C#7,596.75,0.25,82,160.0
4235,D4,596.75,73/250,70,160.0
4236,A6,597.0,0.25,82,160.0
4237,E4,597.0,73/250,71,160.0
4238,E6,597.25,0.25,85,160.0
4239,F#4,597.25,73/250,72,160.0
4240,D6,597.5,0.25,81,160.0
4241,G#4,597.5,73/250,73,160.0
4242,G#6,597.75,0.25,82,160.0
4243,A4,597.75,73/250,74,160.0
4244,A6,598.0,0.25,90,160.0
4245,B4,598.0,73/250,75,160.0
4246,E6,598.25,0.25,85,160.0
4247,C5,598.25,0.25,76,160.0
4248,C#6,598.5,0.25,81,160.0
4249,C#5,598.5,0.25,79,160.0
4250,C5,598.5,21/500,76,160.0
4251,A5,598.75,0.25,81,160.0
4252,E5,598.75,0.25,70,160.0
4253,G#5,599.0,0.25,77,160.0
4254,A5,599.0,0.25,68,160.0
4255,D6,599.25,0.25,77,160.0
4256,C#6,599.25,0.25,73,160.0
4257,E6,599.5,0.25,83,160.0
4258,B5,599.5,0.25,70,160.0
4259,C#6,599.75,0.25,76,160.0
4260,E5,599.75,0.25,70,160.0
4261,A5,600.0,0.25,76,160.0
4262,C#5,600.0,0.25,77,160.0
4263,E5,600.25,0.25,76,160.0
4264,A4,600.25,0.25,73,160.0
4265,D5,600.5,0.25,72,160.0
4266,E4,600.5,0.25,71,160.0
4267,G#5,600.75,0.25,73,160.0
4268,C#4,600.75,0.25,71,160.0
4269,A5,601.0,0.25,82,160.0
4270,E4,601.0,0.25,66,160.0
4271,E5,601.25,0.25,76,160.0
4272,B4,601.25,0.25,66,160.0
4273,C#5,601.5,0.25,76,160.0
4274,C#4,601.5,0.25,71,160.0
4275,A4,601.75,0.25,76,160.0
4276,E4,601.75,0.25,65,160.0
4277,G#4,602.0,0.25,72,160.0
4278,A4,602.0,0.25,65,160.0
4279,D5,602.25,0.25,72,160.0
4280,C#5,602.25,0.25,65,160.0
4281,E5,602.5,0.25,70,160.0
4282,B4,602.5,0.25,63,160.0
4283,C#5,602.75,0.25,63,160.0
4284,E4,602.75,0.25,63,160.0
4285,A4,603.0,0.25,63,160.0
4286,C#4,603.0,0.25,71,160.0
4287,E4,603.25,0.25,62,160.0
4288,A3,603.25,0.25,65,160.0
4289,D4,603.5,0.25,57,160.0
4290,E3,603.5,0.25,65,160.0
4291,G#4,603.75,0.25,57,160.0
4292,C#3,603.75,0.25,65,160.0
4293,A4,604.0,0.25,63,160.0
4294,E3,604.0,0.25,63,160.0
4295,E4,604.25,0.25,57,160.0
4296,B3,604.25,0.25,63,160.0
4297,C#4,604.5,0.25,55,160.0
4298,C#3,604.5,0.25,60,160.0
4299,A3,604.75,0.25,53,160.0
4300,E3,604.75,0.25,54,160.0
4301,G#3,605.0,0.25,48,160.0
4302,A3,605.0,0.25,53,160.0
4303,D4,605.25,0.25,46,160.0
4304,C#4,605.25,0.25,53,160.0
4305,E4,605.5,73/250,48,160.0
4306,B3,605.5,0.25,50,160.0
4307,C#4,605.75,73/250,51,160.0
4308,E3,605.75,0.25,49,160.0
4309,A3,606.0,73/250,54,160.0
4310,C#3,606.0,0.25,56,160.0
4311,E3,606.25,73/250,51,160.0
4312,A2,606.25,0.25,49,160.0
4313,G#3,606.5,73/250,48,160.0
4314,E2,606.5,0.25,46,160.0
4315,D4,606.75,73/250,48,160.0
4316,C#2,606.75,0.25,45,160.0
4317,E4,607.0,73/250,48,160.0
4318,E2,607.0,0.25,42,160.0
4319,C#4,607.25,73/250,51,160.0
4320,B2,607.25,0.25,41,160.0
4321,A3,607.5,73/250,54,160.0
4322,A1,607.5,73/250,41,160.0
4323,E3,607.75,73/250,51,160.0
4324,E2,607.75,73/250,45,160.0
4325,G#3,608.0,73/250,48,160.0
4326,C3,608.0,73/250,48,160.0
4327,D4,608.25,0.25,47,160.0
4328,C#3,608.25,73/250,45,160.0
4329,E4,608.5,73/250,36,160.0
4330,D4,608.5,21/500,47,160.0
4331,B2,608.5,73/250,40,160.0
4332,C#4,608.75,73/250,38,160.0
4333,E2,608.75,73/250,40,160.0
4334,A3,609.0,73/250,40,160.0
4335,A1,609.0,73/250,41,160.0
4336,E3,609.25,73/250,38,160.0
4337,E2,609.25,73/250,45,160.0
4338,G#3,609.5,73/250,35,160.0
4339,C3,609.5,73/250,48,160.0
4340,D4,609.75,73/250,35,160.0
4341,C#3,609.75,73/250,45,160.0
4342,E4,610.0,73/250,36,160.0
4343,B2,610.0,73/250,40,160.0
4344,C#4,610.25,73/250,38,160.0
4345,E2,610.25,0.25,41,160.0
4346,A3,610.5,73/250,40,160.0
4347,A1,610.5,73/250,31,160.0
4348,E2,610.5,21/500,41,160.0
4349,E3,610.75,73/250,38,160.0
4350,E2,610.75,73/250,33,160.0
4351,G#3,611.0,73/250,35,160.0
4352,C3,611.0,73/250,36,160.0
4353,D4,611.25,0.25,35,160.0
4354,C#3,611.25,73/250,34,160.0
4355,D4,611.5,21/500,35,160.0
4356,B2,611.5,73/250,29,160.0
4357,A3,611.5,73/250,36,160.0
4358,E4,611.5,73/250,36,160.0
4359,B-3,611.75,73/250,36,160.0
4360,E2,611.75,73/250,30,160.0
4361,B3,612.0,73/250,36,160.0
4362,A1,612.0,73/250,31,160.0
4363,C4,612.25,73/250,35,160.0
4364,E2,612.25,73/250,33,160.0
4365,C#4,612.5,73/250,35,160.0
4366,C3,612.5,73/250,36,160.0
4367,D4,612.75,73/250,35,160.0
4368,C#3,612.75,73/250,34,160.0
4369,E-4,613.0,73/250,35,160.0
4370,B2,613.0,73/250,27,160.0
4371,E4,613.25,73/250,34,160.0
4372,E2,613.25,0.25,27,160.0
4373,F4,613.5,73/250,34,160.0
4374,A1,613.5,0.5,31,160.0
4375,E2,613.5,21/500,27,160.0
4376,F#4,613.75,73/250,34,160.0
4377,G4,614.0,73/250,33,160.0
4378,G#4,614.25,0.25,33,160.0
4379,A4,614.5,73/250,33,160.0
4380,G#4,614.5,21/500,33,160.0
4381,G#4,614.75,73/250,29,160.0
4382,A4,615.0,73/250,33,160.0
4383,G#4,615.25,73/250,30,160.0
4384,A4,615.5,73/250,33,160.0
4385,G#4,615.75,73/250,29,160.0
4386,A4,616.0,73/250,33,160.0
4387,G#4,616.25,73/250,30,160.0
4388,A4,616.5,73/250,33,160.0
4389,G#4,616.75,73/250,30,160.0
4390,A4,617.0,73/250,33,160.0
4391,G#4,617.25,0.25,29,160.0
4392,A4,617.5,73/250,33,160.0
4393,G#4,617.5,21/500,29,160.0
4394,G#4,617.75,73/250,29,160.0
4395,A4,618.0,73/250,33,160.0
4396,G#4,618.25,73/250,30,160.0
4397,A4,618.5,73/250,33,160.0
4398,G#4,618.75,0.125,30,160.0
4399,B-4,618.875,0.125,39,160.0
4400,A4,619.0,0.25,41,160.0
4401,E4,619.25,0.25,34,160.0
4402,G#4,619.5,0.25,42,160.0
4403,E4,619.75,0.25,34,160.0
4404,A4,620.0,0.25,42,160.0
4405,E4,620.25,0.125,36,160.0
4406,C5,620.375,0.125,38,160.0
4407,B-4,620.5,0.25,44,160.0
4408,E4,620.75,0.25,38,160.0
4409,A4,621.0,0.25,47,160.0
4410,C3,621.0,0.25,34,160.0
4411,E4,621.25,0.25,38,160.0
4412,C4,621.25,0.25,29,160.0
4413,B-4,621.5,0.25,48,160.0
4414,F#3,621.5,0.25,34,160.0
4415,E4,621.75,0.25,40,160.0
4416,C4,621.75,0.25,30,160.0
4417,B4,622.0,0.25,50,160.0
4418,F#3,622.0,0.25,34,160.0
4419,F4,622.25,0.25,41,160.0
4420,C4,622.25,0.25,30,160.0
4421,F5,622.5,1.0,51,160.0
4422,C3,622.5,0.25,38,160.0
4423,F4,622.75,0.25,41,160.0
4424,C4,622.75,0.25,31,160.0
4425,B4,623.0,0.25,47,160.0
4426,G3,623.0,0.25,40,160.0
4427,F4,623.25,0.125,39,160.0
4428,C4,623.25,0.25,32,160.0
4429,D5,623.375,0.125,41,160.0
4430,C5,623.5,0.25,50,160.0
4431,F5,623.5,2.0,51,160.0
4432,G3,623.5,0.25,42,160.0
4433,F4,623.75,0.25,42,160.0
4434,C4,623.75,0.25,31,160.0
4435,B4,624.0,0.25,49,160.0
4436,C3,624.0,0.25,43,160.0
4437,F4,624.25,0.25,41,160.0
4438,D4,624.25,0.25,32,160.0
4439,C5,624.5,0.25,49,160.0
4440,G#3,624.5,0.25,48,160.0
4441,F4,624.75,0.25,44,160.0
4442,D4,624.75,0.25,39,160.0
4443,C5,625.0,0.25,51,160.0
4444,G#3,625.0,0.25,45,160.0
4445,A4,625.25,0.25,44,160.0
4446,D4,625.25,0.25,33,160.0
4447,A5,625.5,1.0,56,160.0
4448,E-5,625.5,0.25,47,160.0
4449,C3,625.5,0.25,44,160.0
4450,F4,625.75,0.25,47,160.0
4451,C4,625.75,0.25,34,160.0
4452,D5,626.0,0.25,52,160.0
4453,A3,626.0,0.25,46,160.0
4454,F4,626.25,0.25,45,160.0
4455,C4,626.25,0.25,35,160.0
4456,D5,626.5,0.25,53,160.0
4457,A5,626.5,0.5,56,160.0
4458,G3,626.5,0.25,47,160.0
4459,G4,626.75,0.25,45,160.0
4460,C4,626.75,0.25,36,160.0
4461,G5,627.0,1.5,58,160.0
4462,B-4,627.0,0.25,53,160.0
4463,C3,627.0,0.25,48,160.0
4464,G4,627.25,0.25,45,160.0
4465,D4,627.25,0.25,37,160.0
4466,B-4,627.5,0.25,51,160.0
4467,F#3,627.5,0.25,49,160.0
4468,G4,627.75,0.25,45,160.0
4469,D4,627.75,0.25,39,160.0
4470,B-4,628.0,0.25,51,160.0
4471,A3,628.0,0.25,48,160.0
4472,G4,628.25,0.25,45,160.0
4473,D4,628.25,0.25,38,160.0
4474,G5,628.5,1.0,58,160.0
4475,C#5,628.5,0.25,42,160.0
4476,C3,628.5,0.25,49,160.0
4477,G4,628.75,0.25,45,160.0
4478,D4,628.75,0.25,40,160.0
4479,C5,629.0,0.25,51,160.0
4480,G3,629.0,0.25,47,160.0
4481,G4,629.25,0.25,45,160.0
4482,D4,629.25,0.25,40,160.0
4483,C5,629.5,0.25,51,160.0
4484,G5,629.5,0.5,58,160.0
4485,F3,629.5,0.25,51,160.0
4486,F4,629.75,0.25,45,160.0
4487,D4,629.75,0.25,38,160.0
4488,F5,630.0,1.0,58,160.0
4489,A4,630.0,0.25,45,160.0
4490,C3,630.0,0.25,49,160.0
4491,F4,630.25,0.25,45,160.0
4492,C4,630.25,0.25,38,160.0
4493,A4,630.5,0.25,45,160.0
4494,E3,630.5,0.25,47,160.0
4495,F4,630.75,0.25,45,160.0
4496,C4,630.75,0.25,38,160.0
4497,E4,631.0,1.0,55,160.0
4498,G3,631.0,0.25,47,160.0
4499,C4,631.25,0.25,42,160.0
4500,C4,631.25,0.25,38,160.0
4501,C5,631.5,0.25,43,160.0
4502,C3,631.5,0.25,48,160.0
4503,C4,631.75,0.25,43,160.0
4504,C4,631.75,0.25,38,160.0
4505,F4,632.0,0.5,51,160.0
4506,F3,632.0,0.25,47,160.0
4507,C4,632.25,0.25,44,160.0
4508,C4,632.25,0.25,37,160.0
4509,F#4,632.5,1.0,57,160.0
4510,C3,632.5,0.25,46,160.0
4511,D4,632.75,0.25,45,160.0
4512,C4,632.75,0.25,37,160.0
4513,D5,633.0,0.25,45,160.0
4514,E3,633.0,1.0,46,160.0
4515,D4,633.25,0.25,45,160.0
4516,A3,633.25,0.25,36,160.0
4517,G4,633.5,0.5,54,160.0
4518,A2,633.5,0.25,37,160.0
4519,D4,633.75,0.25,45,160.0
4520,A3,633.75,0.25,37,160.0
4521,G#4,634.0,1.0,59,160.0
4522,F3,634.0,0.5,43,160.0
4523,E4,634.25,0.25,46,160.0
4524,A3,634.25,0.25,38,160.0
4525,E5,634.5,0.25,47,160.0
4526,F#3,634.5,1.0,48,160.0
4527,E4,634.75,0.25,47,160.0
4528,B-3,634.75,0.25,38,160.0
4529,A4,635.0,0.5,56,160.0
4530,B-2,635.0,0.25,39,160.0
4531,E4,635.25,0.25,48,160.0
4532,B-3,635.25,0.25,39,160.0
4533,A4,635.5,1.0,62,160.0
4534,G3,635.5,0.5,45,160.0
4535,F4,635.75,0.25,48,160.0
4536,B-3,635.75,0.25,38,160.0
4537,F5,636.0,0.25,49,160.0
4538,G#3,636.0,1.0,50,160.0
4539,F4,636.25,0.25,49,160.0
4540,C4,636.25,0.25,37,160.0
4541,B-4,636.5,0.5,58,160.0
4542,C3,636.5,0.25,38,160.0
4543,F4,636.75,0.25,49,160.0
4544,C4,636.75,0.25,38,160.0
4545,B4,637.0,1.0,64,160.0
4546,A3,637.0,0.5,47,160.0
4547,G4,637.25,0.25,50,160.0
4548,C4,637.25,0.25,40,160.0
4549,G5,637.5,1.0,50,160.0
4550,A3,637.5,1.0,52,160.0
4551,G4,637.75,0.25,51,160.0
4552,D4,637.75,0.25,41,160.0
4553,C5,638.0,0.5,60,160.0
4554,D3,638.0,0.25,41,160.0
4555,G4,638.25,0.25,49,160.0
4556,D4,638.25,0.25,41,160.0
4557,A5,638.5,1.0,67,160.0
4558,B-3,638.5,0.5,49,160.0
4559,A4,638.75,0.25,57,160.0
4560,D4,638.75,0.25,42,160.0
4561,C5,639.0,0.25,57,160.0
4562,B3,639.0,1.0,54,160.0
4563,A4,639.25,0.25,57,160.0
4564,E4,639.25,0.25,43,160.0
4565,B4,639.5,0.5,53,160.0
4566,E3,639.5,0.25,44,160.0
4567,G#4,639.75,0.25,46,160.0
4568,E4,639.75,0.25,44,160.0
4569,B-4,640.0,0.5,53,160.0
4570,C4,640.0,0.5,51,160.0
4571,G4,640.25,0.25,46,160.0
4572,E4,640.25,0.25,42,160.0
4573,E5,640.5,0.5,53,160.0
4574,F3,640.5,1.0,55,160.0
4575,G4,640.75,0.25,45,160.0
4576,F4,640.75,0.25,45,160.0
4577,G5,641.0,0.5,53,160.0
4578,C4,641.0,0.25,45,160.0
4579,G4,641.25,0.25,46,160.0
4580,F4,641.25,0.25,46,160.0
4581,A5,641.5,1.0,53,160.0
4582,D4,641.5,0.5,40,160.0
4583,A4,641.75,0.25,45,160.0
4584,F4,641.75,0.25,37,160.0
4585,C5,642.0,0.25,48,160.0
4586,C#4,642.0,0.5,43,160.0
4587,A4,642.25,0.25,44,160.0
4588,E4,642.25,0.25,31,160.0
4589,B4,642.5,0.5,46,160.0
4590,C4,642.5,0.5,43,160.0
4591,G#4,642.75,0.25,36,160.0
4592,E4,642.75,0.25,32,160.0
4593,B-4,643.0,0.5,42,160.0
4594,B-3,643.0,0.5,42,160.0
4595,G4,643.25,0.25,37,160.0
4596,E4,643.25,0.25,31,160.0
4597,E5,643.5,0.5,42,160.0
4598,F3,643.5,0.25,43,160.0
4599,A3,643.5,1.0,43,160.0
4600,G4,643.75,0.25,36,160.0
4601,F4,643.75,0.25,30,160.0
4602,G5,644.0,0.5,43,160.0
4603,C4,644.0,0.25,33,160.0
4604,G4,644.25,0.25,37,160.0
4605,F4,644.25,0.25,29,160.0
4606,A5,644.5,1.0,43,160.0
4607,D4,644.5,0.5,32,160.0
4608,A4,644.75,0.25,37,160.0
4609,F4,644.75,0.25,29,160.0
4610,G#4,645.0,0.25,41,160.0
4611,C#4,645.0,0.5,34,160.0
4612,A4,645.25,0.25,36,160.0
4613,E4,645.25,0.25,25,160.0
4614,A5,645.5,0.5,47,160.0
4615,C4,645.5,0.5,34,160.0
4616,A4,645.75,0.25,37,160.0
4617,E4,645.75,0.25,25,160.0
4618,F5,646.0,0.5,50,160.0
4619,B-3,646.0,0.5,34,160.0
4620,A4,646.25,0.25,38,160.0
4621,E4,646.25,0.25,25,160.0
4622,C5,646.5,0.5,47,160.0
4623,F3,646.5,0.25,34,160.0
4624,A3,646.5,0.5,34,160.0
4625,A4,646.75,0.25,38,160.0
4626,F4,646.75,0.25,26,160.0
4627,A5,647.0,0.5,47,160.0
4628,E4,647.0,0.25,26,160.0
4629,A4,647.25,0.25,38,160.0
4630,F4,647.25,0.25,26,160.0
4631,E5,647.5,0.5,52,160.0
4632,F3,647.5,0.5,39,160.0
4633,A4,647.75,0.25,38,160.0
4634,F4,647.75,0.25,27,160.0
4635,C5,648.0,0.5,48,160.0
4636,A3,648.0,0.5,45,160.0
4637,A4,648.25,0.25,38,160.0
4638,F4,648.25,0.25,27,160.0
4639,A5,648.5,0.5,49,160.0
4640,C4,648.5,0.5,38,160.0
4641,A4,648.75,0.25,40,160.0
4642,F4,648.75,0.25,27,160.0
4643,F5,649.0,0.5,54,160.0
4644,C3,649.0,0.5,39,160.0
4645,A4,649.25,0.25,41,160.0
4646,F4,649.25,0.25,27,160.0
4647,C5,649.5,0.5,53,160.0
4648,A3,649.5,0.5,46,160.0
4649,A4,649.75,0.25,42,160.0
4650,E4,649.75,0.25,28,160.0
4651,A5,650.0,0.5,60,160.0
4652,C4,650.0,0.5,40,160.0
4653,A4,650.25,0.25,44,160.0
4654,E4,650.25,0.25,28,160.0
4655,C5,650.5,0.5,56,160.0
4656,E-3,650.5,0.5,42,160.0
4657,A4,650.75,0.25,45,160.0
4658,E-4,650.75,0.25,29,160.0
4659,A5,651.0,0.5,63,160.0
4660,A3,651.0,0.5,49,160.0
4661,A4,651.25,0.25,45,160.0
4662,E-4,651.25,0.25,29,160.0
4663,C#5,651.5,0.5,59,160.0
4664,C4,651.5,0.5,44,160.0
4665,A4,651.75,0.25,46,160.0
4666,E-4,651.75,0.25,31,160.0
4667,A5,652.0,0.5,70,160.0
4668,D3,652.0,0.5,55,160.0
4669,A4,652.25,0.25,49,160.0
4670,D4,652.25,0.25,31,160.0
4671,D5,652.5,0.5,59,160.0
4672,F#3,652.5,0.5,48,160.0
4673,A4,652.75,0.25,49,160.0
4674,D4,652.75,0.25,31,160.0
4675,A5,653.0,0.5,71,160.0
4676,C#3,653.0,0.5,55,160.0
4677,A4,653.25,0.25,50,160.0
4678,C#4,653.25,0.25,33,160.0
4679,E-5,653.5,0.5,66,160.0
4680,F#3,653.5,0.5,48,160.0
4681,A4,653.75,0.25,52,160.0
4682,C#4,653.75,0.25,34,160.0
4683,B-5,654.0,0.5,74,160.0
4684,C3,654.0,0.5,59,160.0
4685,B-4,654.25,0.25,54,160.0
4686,C4,654.25,0.25,35,160.0
4687,E-5,654.5,0.5,68,160.0
4688,F#3,654.5,0.5,51,160.0
4689,B-4,654.75,0.25,55,160.0
4690,C4,654.75,0.25,35,160.0
4691,B5,655.0,0.5,80,160.0
4692,B2,655.0,0.5,64,160.0
4693,B4,655.25,0.25,57,160.0
4694,B3,655.25,0.25,37,160.0
4695,E-5,655.5,0.5,72,160.0
4696,F#3,655.5,0.5,53,160.0
4697,B4,655.75,0.25,58,160.0
4698,B3,655.75,0.25,37,160.0
4699,C6,656.0,0.5,84,160.0
4700,B-2,656.0,0.5,69,160.0
4701,C5,656.25,0.25,59,160.0
4702,B-3,656.25,0.25,39,160.0
4703,F#3,656.5,0.5,55,160.0
4704,C#5,656.5,0.5,80,160.0
4705,C#6,656.5,0.5,80,160.0
4706,B-3,656.75,0.25,39,160.0
4707,B3,657.0,0.25,65,160.0
4708,A2,657.0,0.5,70,160.0
4709,C#4,657.25,0.25,69,160.0
4710,A3,657.25,0.25,40,160.0
4711,F4,657.5,0.25,73,160.0
4712,F#3,657.5,0.5,57,160.0
4713,G#4,657.75,0.25,77,160.0
4714,A3,657.75,0.25,42,160.0
4715,B4,658.0,0.25,86,160.0
4716,G#2,658.0,0.5,72,160.0
4717,B5,658.25,0.25,81,160.0
4718,G#3,658.25,0.25,43,160.0
4719,B4,658.5,0.25,77,160.0
4720,C#2,658.5,0.5,67,160.0
4721,C#3,658.5,0.5,67,160.0
4722,C#5,658.75,0.25,78,160.0
4723,F5,659.0,0.25,79,160.0
4724,G#5,659.25,0.25,81,160.0
4725,B5,659.5,0.25,88,160.0
4726,B6,659.75,0.25,85,160.0
4727,G#6,660.0,0.25,81,160.0
4728,F6,660.25,0.25,80,160.0
4729,C#6,660.5,0.25,79,160.0
4730,B5,660.75,0.25,78,160.0
4731,G#5,661.0,0.25,76,160.0
4732,F3,661.0,0.5,64,160.0
4733,C#4,661.0,0.5,64,160.0
4734,F5,661.25,0.25,75,160.0
4735,C#5,661.5,0.25,74,160.0
4736,G#3,661.5,0.5,66,160.0
4737,F4,661.5,0.5,66,160.0
4738,B4,661.75,0.25,73,160.0
4739,G#4,662.0,0.25,72,160.0
4740,C#4,662.0,0.5,62,160.0
4741,G#4,662.0,0.5,62,160.0
4742,F4,662.25,0.25,71,160.0
4743,B-4,662.5,73/250,67,160.0
4744,F4,662.5,0.5,62,160.0
4745,C#5,662.5,0.5,62,160.0
4746,E4,662.75,73/250,61,160.0
4747,E-4,663.0,73/250,62,160.0
4748,F4,663.0,0.5,66,160.0
4749,C#5,663.0,0.5,66,160.0
4750,A4,663.25,73/250,62,160.0
4751,G#4,663.5,73/250,64,160.0
4752,D4,663.75,73/250,63,160.0
4753,C#4,664.0,73/250,70,160.0
4754,G4,664.25,73/250,63,160.0
4755,F#4,664.5,73/250,63,160.0
4756,F#2,664.5,1.0,61,160.0
4757,F#3,664.5,0.5,61,160.0
4758,C4,664.75,73/250,63,160.0
4759,B3,665.0,73/250,63,160.0
4760,B2,665.0,0.5,55,160.0
4761,F4,665.25,0.25,63,160.0
4762,E4,665.5,73/250,66,160.0
4763,F4,665.5,21/500,63,160.0
4764,E2,665.5,1.0,61,160.0
4765,E3,665.5,0.5,61,160.0
4766,B-3,665.75,73/250,56,160.0
4767,G3,666.0,73/250,58,160.0
4768,A2,666.0,0.5,54,160.0
4769,E-4,666.25,73/250,60,160.0
4770,D4,666.5,73/250,62,160.0
4771,D2,666.5,1.0,61,160.0
4772,D3,666.5,0.5,61,160.0
4773,G3,666.75,73/250,64,160.0
4774,B-3,667.0,73/250,70,160.0
4775,G2,667.0,0.5,54,160.0
4776,C#4,667.25,73/250,64,160.0
4777,C4,667.5,73/250,66,160.0
4778,C2,667.5,0.5,56,160.0
4779,C3,667.5,0.5,56,160.0
4780,G3,667.75,73/250,67,160.0
4781,A3,668.0,73/250,69,160.0
4782,C#2,668.0,0.5,58,160.0
4783,C#3,668.0,0.5,58,160.0
4784,C4,668.25,0.25,70,160.0
4785,D4,668.5,73/250,70,160.0
4786,D2,668.5,0.5,59,160.0
4787,D3,668.5,0.5,59,160.0
4788,G#3,668.75,73/250,64,160.0
4789,G3,669.0,73/250,64,160.0
4790,E-2,669.0,0.5,61,160.0
4791,E-3,669.0,0.5,61,160.0
4792,C#4,669.25,73/250,64,160.0
4793,C4,669.5,73/250,63,160.0
4794,E2,669.5,0.5,63,160.0
4795,E3,669.5,0.5,63,160.0
4796,F#3,669.75,73/250,63,160.0
4797,F3,670.0,73/250,70,160.0
4798,F2,670.0,0.5,65,160.0
4799,E-3,670.0,0.5,65,160.0
4800,B3,670.25,73/250,60,160.0
4801,B-3,670.5,73/250,60,160.0
4802,B-2,670.5,0.5,63,160.0
4803,D3,670.5,0.5,63,160.0
4804,E3,670.75,73/250,57,160.0
4805,E-3,671.0,73/250,55,160.0
4806,E-2,671.0,0.25,54,160.0
4807,A3,671.25,0.25,53,160.0
4808,G#3,671.5,73/250,62,160.0
4809,A3,671.5,21/500,53,160.0
4810,G#2,671.5,0.25,54,160.0
4811,D3,671.75,73/250,56,160.0
4812,B2,672.0,73/250,54,160.0
4813,C#3,672.0,0.25,60,160.0
4814,G#3,672.25,73/250,53,160.0
4815,E3,672.5,73/250,51,160.0
4816,F#3,672.5,0.25,52,160.0
4817,B2,672.75,73/250,50,160.0
4818,G#3,673.0,73/250,57,160.0
4819,B3,673.0,0.25,52,160.0
4820,F3,673.25,73/250,55,160.0
4821,C3,673.5,73/250,54,160.0
4822,E4,673.5,0.25,58,160.0
4823,G#3,673.75,73/250,52,160.0
4824,F3,674.0,73/250,51,160.0
4825,E-4,674.0,0.25,50,160.0
4826,E-3,674.25,0.25,49,160.0
4827,A3,674.5,73/250,51,160.0
4828,D4,674.5,0.25,50,160.0
4829,C3,674.75,73/250,42,160.0
4830,E-3,675.0,73/250,42,160.0
4831,C#4,675.0,0.25,57,160.0
4832,F#3,675.25,73/250,42,160.0
4833,G3,675.5,73/250,42,160.0
4834,C4,675.5,0.25,49,160.0
4835,D3,675.75,73/250,42,160.0
4836,C#3,676.0,73/250,51,160.0
4837,B3,676.0,0.25,49,160.0
4838,E3,676.25,73/250,41,160.0
4839,F3,676.5,73/250,41,160.0
4840,C4,676.5,0.5,49,160.0
4841,C3,676.75,73/250,41,160.0
4842,F3,677.0,73/250,41,160.0
4843,C5,677.0,271/500,46,160.0
4844,C4,677.25,0.25,41,160.0
4845,B-3,677.5,73/250,50,160.0
4846,C4,677.5,21/500,41,160.0
4847,B4,677.5,271/500,47,160.0
4848,E3,677.75,73/250,40,160.0
4849,G#3,678.0,73/250,41,160.0
4850,B-4,678.0,271/500,47,160.0
4851,B3,678.25,73/250,41,160.0
4852,C4,678.5,73/250,41,160.0
4853,A4,678.5,271/500,47,160.0
4854,G3,678.75,73/250,41,160.0
4855,B-3,679.0,73/250,52,160.0
4856,G#4,679.0,0.5,48,160.0
4857,C#4,679.25,73/250,42,160.0
4858,D4,679.5,73/250,41,160.0
4859,G4,679.5,271/500,49,160.0
4860,G#4,679.5,21/500,48,160.0
4861,G3,679.75,73/250,41,160.0
4862,B-3,680.0,73/250,41,160.0
4863,F4,680.0,271/500,45,160.0
4864,F4,680.25,0.25,41,160.0
4865,E4,680.5,73/250,50,160.0
4866,F4,680.5,21/500,41,160.0
4867,E4,680.5,271/500,45,160.0
4868,G3,680.75,73/250,42,160.0
4869,E-4,681.0,73/250,42,160.0
4870,E-4,681.0,271/500,45,160.0
4871,F#4,681.25,73/250,42,160.0
4872,G4,681.5,73/250,42,160.0
4873,D4,681.5,271/500,45,160.0
4874,D4,681.75,73/250,43,160.0
4875,C#4,682.0,73/250,52,160.0
4876,C#4,682.0,0.5,45,160.0
4877,E4,682.25,73/250,42,160.0
4878,F4,682.5,73/250,43,160.0
4879,C4,682.5,229/500,51,160.0
4880,C#4,682.5,21/500,45,160.0
4881,C4,682.75,73/250,43,160.0
4882,F4,683.0,73/250,43,160.0
4883,C4,683.0,271/500,49,160.0
4884,C5,683.25,0.25,43,160.0
4885,B-4,683.5,73/250,53,160.0
4886,C5,683.5,21/500,43,160.0
4887,B3,683.5,271/500,50,160.0
4888,E4,683.75,73/250,43,160.0
4889,G#4,684.0,73/250,44,160.0
4890,B-3,684.0,271/500,54,160.0
4891,B4,684.25,73/250,44,160.0
4892,C5,684.5,73/250,44,160.0
4893,A3,684.5,271/500,52,160.0
4894,G4,684.75,73/250,45,160.0
4895,B-4,685.0,73/250,57,160.0
4896,G#3,685.0,0.5,53,160.0
4897,C#5,685.25,73/250,49,160.0
4898,D5,685.5,73/250,45,160.0
4899,G3,685.5,271/500,57,160.0
4900,G#3,685.5,21/500,53,160.0
4901,G4,685.75,73/250,46,160.0
4902,B-4,686.0,73/250,46,160.0
4903,F3,686.0,271/500,53,160.0
4904,F5,686.25,0.25,46,160.0
4905,E-5,686.5,73/250,57,160.0
4906,F5,686.5,21/500,46,160.0
4907,E3,686.5,271/500,54,160.0
4908,E5,686.75,0.25,55,160.0
4909,G4,687.0,0.25,56,160.0
4910,E-3,687.0,271/500,55,160.0
4911,A4,687.25,0.25,57,160.0
4912,B-4,687.5,0.25,58,160.0
4913,D3,687.5,271/500,58,160.0
4914,C5,687.75,0.25,59,160.0
4915,C#5,688.0,0.25,60,160.0
4916,C#3,688.0,0.5,60,160.0
4917,E5,688.25,0.25,61,160.0
4918,G5,688.5,0.25,62,160.0
4919,C3,688.5,0.25,62,160.0
4920,C#3,688.5,21/500,60,160.0
4921,A5,688.75,0.25,63,160.0
4922,B-5,689.0,0.25,64,160.0
4923,B-3,689.0,1.0,57,160.0
4924,C4,689.0,0.5,68,160.0
4925,C6,689.25,0.25,65,160.0
4926,C#6,689.5,73/250,68,160.0
4927,E4,689.5,0.5,63,160.0
4928,G6,689.75,0.25,67,160.0
4929,E6,690.0,0.25,66,160.0
4930,B-2,690.0,0.25,60,160.0
4931,C#6,690.25,0.25,65,160.0
4932,B-5,690.5,0.25,64,160.0
4933,G3,690.5,1.0,56,160.0
4934,B-3,690.5,0.5,67,160.0
4935,G5,690.75,0.25,63,160.0
4936,E5,691.0,73/250,62,160.0
4937,E4,691.0,0.5,62,160.0
4938,C#5,691.25,0.25,61,160.0
4939,B-4,691.5,0.25,60,160.0
4940,A2,691.5,0.25,60,160.0
4941,G4,691.75,0.25,59,160.0
4942,E4,692.0,0.25,58,160.0
4943,E3,692.0,1.0,55,160.0
4944,G3,692.0,0.5,65,160.0
4945,C#4,692.25,0.25,57,160.0
4946,D4,692.5,73/250,56,160.0
4947,E4,692.5,0.5,61,160.0
4948,D5,692.75,0.25,55,160.0
4949,D4,693.0,0.25,57,160.0
4950,A2,693.0,0.25,56,160.0
4951,E4,693.25,0.25,59,160.0
4952,F4,693.5,0.25,60,160.0
4953,C#3,693.5,1.0,51,160.0
4954,E3,693.5,0.5,61,160.0
4955,G4,693.75,0.25,62,160.0
4956,G#4,694.0,73/250,63,160.0
4957,A3,694.0,0.5,53,160.0
4958,B4,694.25,0.25,65,160.0
4959,D5,694.5,0.25,66,160.0
4960,D3,694.5,0.25,58,160.0
4961,E5,694.75,0.25,68,160.0
4962,F5,695.0,0.25,69,160.0
4963,F3,695.0,1.0,56,160.0
4964,A3,695.0,0.5,66,160.0
4965,G5,695.25,0.25,71,160.0
4966,G#5,695.5,73/250,72,160.0
4967,D4,695.5,0.5,61,160.0
4968,D6,695.75,0.25,67,160.0
4969,B5,696.0,0.25,68,160.0
4970,C3,696.0,0.25,58,160.0
4971,G#5,696.25,0.25,67,160.0
4972,F5,696.5,0.25,66,160.0
4973,F3,696.5,1.0,56,160.0
4974,G#3,696.5,0.5,67,160.0
4975,D5,696.75,0.25,66,160.0
4976,B4,697.0,73/250,65,160.0
4977,D4,697.0,0.5,61,160.0
4978,G#4,697.25,0.25,64,160.0
4979,F4,697.5,0.25,63,160.0
4980,B2,697.5,0.25,56,160.0
4981,D4,697.75,0.25,62,160.0
4982,B3,698.0,0.25,61,160.0
4983,D3,698.0,1.0,56,160.0
4984,F3,698.0,0.5,66,160.0
4985,G#3,698.25,0.25,60,160.0
4986,A3,698.5,0.25,68,160.0
4987,D4,698.5,0.5,59,160.0
4988,A4,698.75,0.25,59,160.0
4989,C#4,699.0,0.25,59,160.0
4990,E2,699.0,0.25,56,160.0
4991,G4,699.25,0.25,59,160.0
4992,F4,699.5,0.25,59,160.0
4993,G#2,699.5,1.0,54,160.0
4994,B2,699.5,0.5,64,160.0
4995,D4,699.75,0.25,59,160.0
4996,E4,700.0,0.25,67,160.0
4997,E3,700.0,0.5,57,160.0
4998,B-4,700.25,0.25,57,160.0
4999,A4,700.5,0.25,57,160.0
5000,A2,700.5,0.5,68,160.0
5001,F4,700.75,0.25,57,160.0
5002,G#4,701.0,0.25,57,160.0
5003,A2,701.0,0.5,68,160.0
5004,E3,701.0,0.5,68,160.0
5005,D5,701.25,0.25,56,160.0
5006,C5,701.5,0.25,66,160.0
5007,D3,701.5,0.5,62,160.0
5008,F3,701.5,0.5,62,160.0
5009,A4,701.75,0.25,57,160.0
5010,B4,702.0,0.25,57,160.0
5011,C3,702.0,0.5,66,160.0
5012,G3,702.0,0.5,66,160.0
5013,F5,702.25,0.25,57,160.0
5014,E5,702.5,0.25,56,160.0
5015,F3,702.5,0.5,62,160.0
5016,A3,702.5,0.5,62,160.0
5017,C5,702.75,0.25,55,160.0
5018,C#5,703.0,0.25,65,160.0
5019,E3,703.0,0.5,66,160.0
5020,B3,703.0,0.5,66,160.0
5021,G5,703.25,0.25,56,160.0
5022,F5,703.5,0.25,56,160.0
5023,C4,703.5,0.5,62,160.0
5024,A3,703.5,0.5,62,160.0
5025,D5,703.75,0.25,56,160.0
5026,E5,704.0,0.25,56,160.0
5027,G3,704.0,0.5,69,160.0
5028,D4,704.0,0.5,69,160.0
5029,B-5,704.25,0.25,56,160.0
5030,A5,704.5,0.25,69,160.0
5031,E4,704.5,0.5,64,160.0
5032,C4,704.5,0.5,64,160.0
5033,F5,704.75,0.25,57,160.0
5034,C#5,705.0,0.25,57,160.0
5035,E4,705.0,0.5,69,160.0
5036,A3,705.0,0.5,69,160.0
5037,A5,705.25,0.25,58,160.0
5038,F5,705.5,0.25,58,160.0
5039,F4,705.5,0.5,64,160.0
5040,D4,705.5,0.5,64,160.0
5041,D5,705.75,0.25,60,160.0
5042,E5,706.0,0.25,71,160.0
5043,C4,706.0,0.5,69,160.0
5044,G4,706.0,0.5,69,160.0
5045,C6,706.25,0.25,60,160.0
5046,A5,706.5,0.25,61,160.0
5047,A4,706.5,0.5,64,160.0
5048,F4,706.5,0.5,64,160.0
5049,F5,706.75,0.25,60,160.0
5050,G#5,707.0,0.25,61,160.0
5051,A3,707.0,0.25,54,160.0
5052,E6,707.25,0.25,61,160.0
5053,E4,707.25,0.25,55,160.0
5054,C6,707.5,0.25,76,160.0
5055,D4,707.5,0.25,56,160.0
5056,A5,707.75,0.25,66,160.0
5057,F4,707.75,0.25,58,160.0
5058,B5,708.0,0.25,67,160.0
5059,C4,708.0,0.25,70,160.0
5060,G6,708.25,0.25,67,160.0
5061,G4,708.25,0.25,58,160.0
5062,E6,708.5,0.25,68,160.0
5063,F4,708.5,0.25,59,160.0
5064,C6,708.75,0.25,68,160.0
5065,A4,708.75,0.25,59,160.0
5066,C#6,709.0,0.25,82,160.0
5067,E4,709.0,0.25,61,160.0
5068,A6,709.25,0.25,67,160.0
5069,B4,709.25,0.25,61,160.0
5070,F6,709.5,0.25,68,160.0
5071,A4,709.5,0.25,75,160.0
5072,D6,709.75,0.25,69,160.0
5073,C5,709.75,0.25,63,160.0
5074,E6,710.0,0.25,69,160.0
5075,G4,710.0,0.25,61,160.0
5076,C7,710.25,0.25,70,160.0
5077,D5,710.25,0.25,63,160.0
5078,A6,710.5,0.25,82,160.0
5079,C5,710.5,0.25,64,160.0
5080,F6,710.75,0.25,70,160.0
5081,E5,710.75,0.25,65,160.0
5082,B6,711.0,0.25,70,160.0
5083,A4,711.0,0.25,80,160.0
5084,F7,711.25,0.25,71,160.0
5085,E5,711.25,0.25,66,160.0
5086,C7,711.5,0.25,78,160.0
5087,D5,711.5,0.25,66,160.0
5088,F6,711.75,0.25,71,160.0
5089,F5,711.75,0.25,68,160.0
5090,B6,712.0,0.25,80,160.0
5091,C5,712.0,0.25,68,160.0
5092,F7,712.25,0.25,71,160.0
5093,G5,712.25,0.25,68,160.0
5094,C7,712.5,0.25,80,160.0
5095,A5,712.5,0.25,69,160.0
5096,F5,712.5,0.25,69,160.0
5097,F6,712.75,0.25,72,160.0
5098,B6,713.0,0.25,79,160.0
5099,C#5,713.0,0.5,58,160.0
5100,G#5,713.0,0.5,58,160.0
5101,F7,713.25,0.25,72,160.0
5102,C7,713.5,0.25,78,160.0
5103,A5,713.5,0.5,61,160.0
5104,C5,713.5,0.5,61,160.0
5105,F6,713.75,0.25,72,160.0
5106,B6,714.0,0.25,78,160.0
5107,C#5,714.0,0.5,61,160.0
5108,G#5,714.0,0.5,61,160.0
5109,F7,714.25,0.25,72,160.0
5110,C7,714.5,0.25,77,160.0
5111,A5,714.5,0.5,61,160.0
5112,C5,714.5,0.5,61,160.0
5113,F6,714.75,0.25,71,160.0
5114,B6,715.0,0.25,78,160.0
5115,C#5,715.0,0.5,61,160.0
5116,G#5,715.0,0.5,61,160.0
5117,F7,715.25,0.25,70,160.0
5118,C7,715.5,0.25,79,160.0
5119,C5,715.5,0.5,61,160.0
5120,A5,715.5,0.5,61,160.0
5121,F6,715.75,0.25,70,160.0
5122,B6,716.0,0.25,78,160.0
5123,C#5,716.0,0.5,61,160.0
5124,G#5,716.0,0.5,61,160.0
5125,F7,716.25,0.25,68,160.0
5126,C7,716.5,0.25,78,160.0
5127,F6,716.5,0.25,78,160.0
5128,C5,716.5,0.5,61,160.0
5129,A5,716.5,0.5,61,160.0
5130,C#5,717.0,0.5,61,160.0
5131,G#5,717.0,0.5,61,160.0
5132,C5,717.5,0.5,61,160.0
5133,A5,717.5,0.5,61,160.0
5134,E-4,718.0,1.5,59,160.0
5135,F#4,718.0,1.5,59,160.0
5136,C5,718.0,1.5,59,160.0
5137,C#5,718.0,0.5,61,160.0
5138,G#5,718.0,0.5,61,160.0
5139,C5,718.5,0.25,60,160.0
5140,A5,718.5,0.25,60,160.0
5141,G4,719.5,3.0,56,160.0
5142,E4,719.5,1.5,56,160.0
5143,C5,719.5,4.5,68,160.0
5144,C3,720.0,1.5,64,160.0
5145,A3,720.0,1.5,64,160.0
5146,E4,721.0,1.5,61,160.0
5147,C3,721.5,4.5,68,160.0
5148,B-3,721.5,4.5,68,160.0
5149,G4,722.5,1.5,61,160.0
5150,G4,724.0,2.0,60,160.0
5151,C5,724.0,1.0,68,160.0
5152,E-4,727.0,99/100,46,160.0
5153,A4,727.0,99/100,46,160.0
5154,C3,727.0,1.0,68,160.0
5155,B-3,727.0,1.0,68,160.0
5156,E-4,728.0,62/125,44,160.0
5157,A4,728.0,62/125,44,160.0
5158,E4,728.5,99/100,50,160.0
5159,B-4,728.5,99/100,50,160.0
5160,E4,729.5,62/125,48,160.0
5161,B-4,729.5,62/125,48,160.0
5162,F4,730.0,99/100,52,160.0
5163,B4,730.0,99/100,52,160.0
5164,C3,730.0,99/100,36,160.0
5165,F#3,730.0,99/100,36,160.0
5166,C4,730.0,99/100,36,160.0
5167,F4,731.0,62/125,50,160.0
5168,F5,731.0,62/125,50,160.0
5169,C3,731.0,62/125,32,160.0
5170,F#3,731.0,62/125,32,160.0
5171,C4,731.0,62/125,32,160.0
5172,F4,731.5,99/100,54,160.0
5173,C5,731.5,99/100,54,160.0
5174,C3,731.5,99/100,36,160.0
5175,G3,731.5,99/100,36,160.0
5176,C4,731.5,99/100,36,160.0
5177,F4,732.5,62/125,49,160.0
5178,C3,732.5,62/125,33,160.0
5179,G3,732.5,62/125,33,160.0
5180,C4,732.5,62/125,33,160.0
5181,A4,733.0,99/100,58,160.0
5182,D5,733.0,99/100,58,160.0
5183,C3,733.0,99/100,41,160.0
5184,G#3,733.0,99/100,41,160.0
5185,D4,733.0,99/100,41,160.0
5186,A4,734.0,62/125,56,160.0
5187,D5,734.0,62/125,56,160.0
5188,C3,734.0,62/125,38,160.0
5189,G#3,734.0,62/125,38,160.0
5190,D4,734.0,62/125,38,160.0
5191,B-4,734.5,0.75,55,160.0
5192,D5,734.5,0.75,55,160.0
5193,C3,734.5,99/100,44,160.0
5194,A3,734.5,99/100,44,160.0
5195,C4,734.5,99/100,44,160.0
5196,B-4,735.4,3/10,48,160.0
5197,D5,735.4,3/10,48,160.0
5198,B-5,735.5,0.25,58,160.0
5199,C3,735.5,62/125,41,160.0
5200,A3,735.5,62/125,41,160.0
5201,C4,735.5,62/125,41,160.0
5202,A4,735.9,4/5,44,160.0
5203,C5,735.9,4/5,44,160.0
5204,A5,736.0,0.75,56,160.0
5205,C3,736.0,99/100,48,160.0
5206,F#3,736.0,99/100,48,160.0
5207,D4,736.0,99/100,48,160.0
5208,B-4,736.9,3/10,42,160.0
5209,C5,736.9,3/10,42,160.0
5210,G5,737.0,0.25,52,160.0
5211,C3,737.0,62/125,43,160.0
5212,F#3,737.0,62/125,43,160.0
5213,D4,737.0,62/125,43,160.0
5214,A4,737.4,1/10,36,160.0
5215,C5,737.4,1/10,36,160.0
5216,F5,737.5,1.0,50,160.0
5217,A4,737.5,19/20,36,160.0
5218,C5,737.5,19/20,36,160.0
5219,C3,737.5,0.75,44,160.0
5220,G3,737.5,0.75,44,160.0
5221,D4,737.5,0.75,44,160.0
5222,C3,738.25,9/20,28,160.0
5223,G3,738.25,9/20,28,160.0
5224,D4,738.35,2/5,33,160.0
5225,C3,738.75,19/20,30,160.0
5226,F#3,738.75,19/20,30,160.0
5227,E-4,738.85,9/10,37,160.0
5228,E-7,739.0,0.25,40,160.0
5229,D7,739.25,0.25,39,160.0
5230,F7,739.5,0.25,42,160.0
5231,E-7,739.75,0.25,39,160.0
5232,C3,739.75,9/20,28,160.0
5233,G3,739.75,9/20,28,160.0
5234,E4,739.85,2/5,34,160.0
5235,D7,740.0,0.25,39,160.0
5236,C7,740.25,0.25,39,160.0
5237,C3,740.25,0.25,27,160.0
5238,A3,740.25,0.25,27,160.0
5239,F4,740.35,3/20,33,160.0
5240,B-6,740.5,0.25,41,160.0
5241,F4,740.5,1.0,33,160.0
5242,C3,740.5,19/20,27,160.0
5243,A3,740.5,19/20,27,160.0
5244,A6,740.75,0.25,39,160.0
5245,C7,741.0,0.25,43,160.0
5246,B-6,741.25,0.25,39,160.0
5247,A6,741.5,0.25,39,160.0
5248,C3,741.5,0.375,31,160.0
5249,G6,741.75,0.25,39,160.0
5250,C3,741.875,1.125,34,160.0
5251,F#3,741.938,1.062,40,160.0
5252,F6,742.0,0.25,42,160.0
5253,E-4,742.0,1.0,40,160.0
5254,E6,742.25,0.25,39,160.0
5255,G6,742.5,0.25,44,160.0
5256,F6,742.75,0.25,40,160.0
5257,E6,743.0,0.25,40,160.0
5258,C3,743.0,0.375,40,160.0
5259,D6,743.25,0.25,40,160.0
5260,C3,743.375,0.125,38,160.0
5261,G3,743.438,0.062,38,160.0
5262,C6,743.5,0.25,42,160.0
5263,D4,743.5,1.0,45,160.0
5264,C3,743.5,1.0,38,160.0
5265,G3,743.5,1.0,38,160.0
5266,B5,743.75,0.25,40,160.0
5267,D6,744.0,0.25,45,160.0
5268,C6,744.25,0.25,41,160.0
5269,B-5,744.5,0.25,41,160.0
5270,C3,744.5,0.375,42,160.0
5271,A5,744.75,0.25,42,160.0
5272,C3,744.875,1.125,37,160.0
5273,G#3,744.938,1.062,45,160.0
5274,D6,745.0,0.25,44,160.0
5275,F4,745.0,1.0,45,160.0
5276,C#6,745.25,0.25,42,160.0
5277,E-6,745.5,0.25,47,160.0
5278,D6,745.75,0.25,43,160.0
5279,C6,746.0,0.25,43,160.0
5280,C3,746.0,0.375,42,160.0
5281,A5,746.25,0.25,43,160.0
5282,C3,746.375,0.125,37,160.0
5283,A3,746.438,0.062,37,160.0
5284,B-5,746.5,0.25,47,160.0
5285,C4,746.5,1.0,45,160.0
5286,C3,746.5,1.0,37,160.0
5287,A3,746.5,1.0,37,160.0
5288,A5,746.75,0.25,43,160.0
5289,C6,747.0,0.25,48,160.0
5290,B-5,747.25,0.25,44,160.0
5291,G5,747.5,0.25,44,160.0
5292,C3,747.5,0.375,42,160.0
5293,D5,747.75,0.25,44,160.0
5294,C3,747.875,1.125,42,160.0
5295,F#3,747.938,1.062,42,160.0
5296,C5,748.0,0.25,48,160.0
5297,D4,748.0,1.0,51,160.0
5298,B4,748.25,0.25,45,160.0
5299,D5,748.5,0.25,50,160.0
5300,C5,748.75,0.25,45,160.0
5301,B-4,749.0,0.25,45,160.0
5302,C3,749.0,0.375,47,160.0
5303,G4,749.25,0.25,45,160.0
5304,C3,749.375,0.125,42,160.0
5305,G3,749.438,0.062,42,160.0
5306,A4,749.5,0.25,48,160.0
5307,D4,749.5,1.0,51,160.0
5308,C3,749.5,1.0,42,160.0
5309,G3,749.5,1.0,42,160.0
5310,G#4,749.75,0.25,45,160.0
5311,B-4,750.0,0.25,51,160.0
5312,A4,750.25,0.25,45,160.0
5313,F4,750.5,0.25,47,160.0
5314,C3,750.5,0.375,47,160.0
5315,A4,750.75,0.25,47,160.0
5316,C3,750.875,1.125,43,160.0
5317,E3,750.938,1.062,43,160.0
5318,E-4,751.0,1.0,55,160.0
5319,C4,751.0,1.0,52,160.0
5320,A4,751.25,0.25,51,160.0
5321,G#4,751.5,0.25,51,160.0
5322,A4,751.75,0.25,51,160.0
5323,E-4,752.0,0.5,52,160.0
5324,B-4,752.0,0.25,48,160.0
5325,C3,752.0,0.375,50,160.0
5326,A4,752.25,0.25,48,160.0
5327,C3,752.375,0.125,45,160.0
5328,F3,752.438,0.062,45,160.0
5329,E4,752.5,1.0,56,160.0
5330,C4,752.5,1.0,53,160.0
5331,C3,752.5,1.0,45,160.0
5332,F3,752.5,1.0,45,160.0
5333,B-4,752.75,0.25,53,160.0
5334,A4,753.0,0.25,53,160.0
5335,B-4,753.25,0.25,53,160.0
5336,E4,753.5,0.5,53,160.0
5337,C5,753.5,0.25,51,160.0
5338,C3,753.5,0.5,51,160.0
5339,B-4,753.75,0.25,51,160.0
5340,F4,754.0,1.0,58,160.0
5341,C3,754.0,99/100,45,160.0
5342,F#3,754.0,99/100,45,160.0
5343,C4,754.0,99/100,45,160.0
5344,B4,754.25,0.25,54,160.0
5345,B-4,754.5,0.25,54,160.0
5346,B4,754.75,0.25,54,160.0
5347,F4,755.0,0.5,56,160.0
5348,C5,755.0,0.25,53,160.0
5349,C3,755.0,62/125,42,160.0
5350,F#3,755.0,62/125,42,160.0
5351,C4,755.0,62/125,42,160.0
5352,B4,755.25,0.25,53,160.0
5353,F4,755.5,1.0,61,160.0
5354,C3,755.5,99/100,51,160.0
5355,G3,755.5,99/100,51,160.0
5356,C4,755.5,99/100,51,160.0
5357,C5,755.75,0.25,55,160.0
5358,B4,756.0,0.25,55,160.0
5359,C5,756.25,0.25,56,160.0
5360,D5,756.5,0.25,53,160.0
5361,C3,756.5,62/125,47,160.0
5362,G3,756.5,62/125,47,160.0
5363,C4,756.5,62/125,47,160.0
5364,C5,756.75,0.25,53,160.0
5365,A4,757.0,1.0,62,160.0
5366,C3,757.0,99/100,50,160.0
5367,G#3,757.0,99/100,50,160.0
5368,D4,757.0,99/100,50,160.0
5369,D5,757.25,0.25,57,160.0
5370,C#5,757.5,0.25,57,160.0
5371,D5,757.75,0.25,57,160.0
5372,A4,758.0,0.5,59,160.0
5373,E5,758.0,0.25,56,160.0
5374,C3,758.0,62/125,51,160.0
5375,G#3,758.0,62/125,51,160.0
5376,D4,758.0,62/125,51,160.0
5377,D5,758.25,0.25,56,160.0
5378,D5,758.5,1.0,63,160.0
5379,C3,758.5,1.0,46,160.0
5380,A3,758.5,1.5,51,160.0
5381,C4,758.5,1.5,51,160.0
5382,G5,758.75,0.25,58,160.0
5383,F#5,759.0,0.25,58,160.0
5384,G5,759.25,0.25,58,160.0
5385,D5,759.5,0.5,60,160.0
5386,A5,759.5,0.25,57,160.0
5387,C3,759.5,0.5,54,160.0
5388,G5,759.75,0.25,58,160.0
5389,G5,760.0,1.0,67,160.0
5390,C3,760.0,1.0,56,160.0
5391,F#3,760.0,1.0,56,160.0
5392,D4,760.0,1.0,56,160.0
5393,C6,760.25,0.25,61,160.0
5394,B5,760.5,0.25,61,160.0
5395,C6,760.75,0.25,61,160.0
5396,G5,761.0,0.5,67,160.0
5397,D6,761.0,0.25,59,160.0
5398,C3,761.0,0.5,54,160.0
5399,F#3,761.0,0.5,54,160.0
5400,D4,761.0,0.5,54,160.0
5401,C6,761.25,0.25,59,160.0
5402,C6,761.5,1.0,69,160.0
5403,B-2,761.5,0.5,64,160.0
5404,F6,761.75,0.25,61,160.0
5405,E6,762.0,0.25,63,160.0
5406,D4,762.0,0.5,56,160.0
5407,F6,762.25,0.25,59,160.0
5408,C6,762.5,0.5,66,160.0
5409,G6,762.5,0.25,61,160.0
5410,G4,762.5,0.5,57,160.0
5411,F6,762.75,0.25,61,160.0
5412,D6,763.0,0.25,65,160.0
5413,B-3,763.0,1.5,66,160.0
5414,C#6,763.25,0.25,60,160.0
5415,E6,763.5,0.25,66,160.0
5416,C4,763.5,0.5,56,160.0
5417,D6,763.75,0.25,63,160.0
5418,G5,764.0,0.5,72,160.0
5419,E4,764.0,0.5,58,160.0
5420,E6,764.5,1.0,75,160.0
5421,A3,764.5,1.5,67,160.0
5422,A6,764.75,0.25,68,160.0
5423,G#6,765.0,0.25,69,160.0
5424,C4,765.0,0.5,59,160.0
5425,A6,765.25,0.25,63,160.0
5426,E6,765.5,0.5,72,160.0
5427,B-6,765.5,0.25,64,160.0
5428,F4,765.5,0.5,61,160.0
5429,A6,765.75,0.25,65,160.0
5430,F6,766.0,0.25,72,160.0
5431,B-3,766.0,1.5,70,160.0
5432,E6,766.25,0.25,65,160.0
5433,G6,766.5,0.25,73,160.0
5434,D4,766.5,0.5,62,160.0
5435,F6,766.75,0.25,67,160.0
5436,D6,767.0,0.5,75,160.0
5437,G4,767.0,0.5,63,160.0
5438,G6,767.5,1.0,85,160.0
5439,C4,767.5,1.5,74,160.0
5440,C7,767.75,0.25,76,160.0
5441,B6,768.0,0.25,78,160.0
5442,E4,768.0,0.5,65,160.0
5443,C7,768.25,0.25,72,160.0
5444,G6,768.5,0.5,81,160.0
5445,D7,768.5,0.25,72,160.0
5446,A4,768.5,0.5,66,160.0
5447,C7,768.75,0.25,74,160.0
5448,A6,769.0,0.25,79,160.0
5449,D4,769.0,1.5,75,160.0
5450,G#6,769.25,0.25,73,160.0
5451,B-6,769.5,0.25,80,160.0
5452,F4,769.5,0.5,68,160.0
5453,A6,769.75,0.25,73,160.0
5454,F6,770.0,0.5,82,160.0
5455,B-4,770.0,0.5,69,160.0
5456,G6,770.5,0.25,48,160.0
5457,E4,770.5,1.5,84,160.0
5458,F#6,770.75,0.25,42,160.0
5459,A6,771.0,0.25,48,160.0
5460,G4,771.0,0.5,73,160.0
5461,G6,771.25,0.25,42,160.0
5462,D6,771.5,0.5,43,160.0
5463,C5,771.5,0.5,74,160.0
5464,G6,772.0,0.25,48,160.0
5465,F4,772.0,1.5,82,160.0
5466,F#6,772.25,0.25,42,160.0
5467,A6,772.5,0.25,48,160.0
5468,A4,772.5,0.5,73,160.0
5469,G6,772.75,0.25,42,160.0
5470,C#6,773.0,0.5,43,160.0
5471,C5,773.0,0.5,73,160.0
5472,G6,773.5,0.25,48,160.0
5473,F3,773.5,1.5,40,160.0
5474,F#6,773.75,0.25,42,160.0
5475,A6,774.0,0.25,48,160.0
5476,B3,774.0,19/40,32,160.0
5477,D4,774.0,19/40,32,160.0
5478,G4,774.0,19/40,32,160.0
5479,G6,774.25,0.25,42,160.0
5480,C6,774.5,0.5,43,160.0
5481,B3,774.5,19/40,32,160.0
5482,D4,774.5,19/40,32,160.0
5483,G4,774.5,19/40,32,160.0
5484,F6,775.0,1.0,48,160.0
5485,F3,775.0,1.5,40,160.0
5486,B-3,775.5,19/40,32,160.0
5487,C#4,775.5,19/40,32,160.0
5488,G4,775.5,19/40,32,160.0
5489,F7,776.0,0.5,43,160.0
5490,B-3,776.0,19/40,32,160.0
5491,C#4,776.0,19/40,32,160.0
5492,G4,776.0,19/40,32,160.0
5493,F#6,776.5,0.25,48,160.0
5494,F3,776.5,1.5,40,160.0
5495,A6,776.75,0.25,42,160.0
5496,G6,777.0,0.25,48,160.0
5497,B-3,777.0,19/40,32,160.0
5498,C4,777.0,19/40,32,160.0
5499,E4,777.0,19/40,32,160.0
5500,D6,777.25,0.25,42,160.0
5501,D7,777.5,0.25,50,160.0
5502,B-3,777.5,19/40,32,160.0
5503,C4,777.5,19/40,32,160.0
5504,E4,777.5,19/40,32,160.0
5505,F#6,778.0,0.25,48,160.0
5506,F3,778.0,1.5,40,160.0
5507,A6,778.25,0.25,42,160.0
5508,G6,778.5,0.25,48,160.0
5509,A3,778.5,19/40,32,160.0
5510,C4,778.5,19/40,32,160.0
5511,F4,778.5,19/40,32,160.0
5512,C#6,778.75,0.25,42,160.0
5513,C#7,779.0,0.25,49,160.0
5514,A3,779.0,19/40,32,160.0
5515,C4,779.0,19/40,32,160.0
5516,F4,779.0,19/40,32,160.0
5517,F#6,779.5,0.25,48,160.0
5518,F3,779.5,1.5,40,160.0
5519,A6,779.75,0.25,42,160.0
5520,G6,780.0,0.25,48,160.0
5521,B3,780.0,19/40,32,160.0
5522,D4,780.0,19/40,32,160.0
5523,G4,780.0,19/40,32,160.0
5524,C6,780.25,0.25,42,160.0
5525,C7,780.5,0.25,49,160.0
5526,B3,780.5,19/40,32,160.0
5527,D4,780.5,19/40,32,160.0
5528,G4,780.5,19/40,32,160.0
5529,G#6,781.0,0.25,48,160.0
5530,F3,781.0,1.5,40,160.0
5531,B-6,781.25,0.25,42,160.0
5532,A6,781.5,0.25,48,160.0
5533,B-3,781.5,19/40,32,160.0
5534,C#4,781.5,19/40,32,160.0
5535,G4,781.5,19/40,32,160.0
5536,F6,781.75,0.25,42,160.0
5537,F7,782.0,0.5,50,160.0
5538,B-3,782.0,19/40,32,160.0
5539,C#4,782.0,19/40,32,160.0
5540,G4,782.0,19/40,32,160.0
5541,D7,782.5,0.25,60,160.0
5542,F3,782.5,1.5,40,160.0
5543,C#7,782.75,0.25,55,160.0
5544,E7,783.0,0.25,55,160.0
5545,B-3,783.0,19/40,32,160.0
5546,C4,783.0,19/40,32,160.0
5547,E4,783.0,19/40,32,160.0
5548,D7,783.25,0.25,55,160.0
5549,B6,783.5,0.25,57,160.0
5550,B-3,783.5,19/40,32,160.0
5551,C4,783.5,19/40,32,160.0
5552,E4,783.5,19/40,32,160.0
5553,G6,783.75,0.25,53,160.0
5554,C#7,784.0,0.25,60,160.0
5555,F3,784.0,1.5,40,160.0
5556,C7,784.25,0.25,55,160.0
5557,E-7,784.5,0.25,55,160.0
5558,A3,784.5,19/40,32,160.0
5559,C4,784.5,19/40,32,160.0
5560,F4,784.5,19/40,32,160.0
5561,C#7,784.75,0.25,55,160.0
5562,B-6,785.0,0.25,57,160.0
5563,A3,785.0,19/40,32,160.0
5564,C4,785.0,19/40,32,160.0
5565,F4,785.0,19/40,32,160.0
5566,G6,785.25,0.25,54,160.0
5567,B-6,785.5,0.25,61,160.0
5568,F3,785.5,1.5,45,160.0
5569,A6,785.75,0.25,55,160.0
5570,C7,786.0,0.25,55,160.0
5571,D4,786.0,0.5,40,160.0
5572,B3,786.0,1.0,40,160.0
5573,B-6,786.25,0.25,55,160.0
5574,G6,786.5,0.25,58,160.0
5575,G4,786.5,0.5,40,160.0
5576,E6,786.75,0.25,55,160.0
5577,A6,787.0,0.25,60,160.0
5578,F3,787.0,1.5,47,160.0
5579,G#6,787.25,0.25,55,160.0
5580,B-6,787.5,0.25,55,160.0
5581,C#4,787.5,0.5,40,160.0
5582,B-3,787.5,1.0,40,160.0
5583,A6,787.75,0.25,55,160.0
5584,F6,788.0,0.25,56,160.0
5585,G4,788.0,0.5,40,160.0
5586,C6,788.25,0.25,55,160.0
5587,D6,788.5,0.25,60,160.0
5588,F3,788.5,1.5,46,160.0
5589,C#6,788.75,0.25,55,160.0
5590,E6,789.0,0.25,54,160.0
5591,C4,789.0,0.5,40,160.0
5592,B-3,789.0,1.0,40,160.0
5593,D6,789.25,0.25,53,160.0
5594,B5,789.5,0.25,55,160.0
5595,E4,789.5,0.5,40,160.0
5596,G5,789.75,0.25,50,160.0
5597,C#6,790.0,0.25,57,160.0
5598,F3,790.0,1.5,47,160.0
5599,C6,790.25,0.25,52,160.0
5600,E-6,790.5,0.25,51,160.0
5601,C4,790.5,0.5,40,160.0
5602,A3,790.5,1.0,40,160.0
5603,C#6,790.75,0.25,51,160.0
5604,B-5,791.0,0.25,52,160.0
5605,F4,791.0,0.5,40,160.0
5606,G5,791.25,0.25,49,160.0
5607,B-5,791.5,0.25,54,160.0
5608,F3,791.5,1.5,45,160.0
5609,A5,791.75,0.25,49,160.0
5610,C6,792.0,0.25,48,160.0
5611,D4,792.0,0.5,39,160.0
5612,B3,792.0,1.0,39,160.0
5613,B-5,792.25,0.25,48,160.0
5614,G5,792.5,0.25,50,160.0
5615,G4,792.5,0.5,38,160.0
5616,E5,792.75,0.25,47,160.0
5617,A5,793.0,0.25,51,160.0
5618,F3,793.0,1.5,44,160.0
5619,G#5,793.25,0.25,46,160.0
5620,B-5,793.5,0.25,46,160.0
5621,C#4,793.5,0.5,37,160.0
5622,B-3,793.5,1.0,37,160.0
5623,A5,793.75,0.25,45,160.0
5624,F5,794.0,0.25,45,160.0
5625,G4,794.0,0.5,36,160.0
5626,C5,794.25,0.25,44,160.0
5627,D5,794.5,0.25,48,160.0
5628,F3,794.5,1.5,41,160.0
5629,C#5,794.75,0.25,44,160.0
5630,E5,795.0,0.25,44,160.0
5631,C4,795.0,0.5,35,160.0
5632,B-3,795.0,1.0,35,160.0
5633,D5,795.25,0.25,44,160.0
5634,B4,795.5,0.25,45,160.0
5635,E4,795.5,0.5,34,160.0
5636,G4,795.75,0.25,42,160.0
5637,C#5,796.0,0.25,48,160.0
5638,F3,796.0,1.5,39,160.0
5639,C5,796.25,0.25,44,160.0
5640,E-5,796.5,0.25,44,160.0
5641,C4,796.5,0.5,33,160.0
5642,A3,796.5,1.0,33,160.0
5643,C#5,796.75,0.25,44,160.0
5644,B-4,797.0,0.25,45,160.0
5645,F4,797.0,0.5,32,160.0
5646,G4,797.25,0.25,43,160.0
5647,B-4,797.5,0.25,48,160.0
5648,F2,797.5,1.5,36,160.0
5649,A4,797.75,0.25,44,160.0
5650,C5,798.0,0.25,44,160.0
5651,D3,798.0,0.5,32,160.0
5652,B2,798.0,1.0,32,160.0
5653,B-4,798.25,0.25,44,160.0
5654,G4,798.5,0.25,46,160.0
5655,G3,798.5,0.5,32,160.0
5656,E4,798.75,0.25,44,160.0
5657,A4,799.0,0.25,48,160.0
5658,F2,799.0,1.5,37,160.0
5659,G#4,799.25,0.25,44,160.0
5660,B-4,799.5,0.25,44,160.0
5661,C#3,799.5,0.5,32,160.0
5662,B-2,799.5,1.0,32,160.0
5663,A4,799.75,0.25,44,160.0
5664,F4,800.0,0.25,44,160.0
5665,G3,800.0,0.5,32,160.0
5666,C4,800.25,0.25,44,160.0
5667,D4,800.5,73/250,40,160.0
5668,F2,800.5,1.5,36,160.0
5669,C#4,800.75,73/250,37,160.0
5670,E4,801.0,73/250,37,160.0
5671,C3,801.0,0.5,32,160.0
5672,B-2,801.0,1.0,32,160.0
5673,D4,801.25,73/250,36,160.0
5674,B3,801.5,73/250,37,160.0
5675,E3,801.5,0.5,32,160.0
5676,G3,801.75,73/250,34,160.0
5677,C#4,802.0,73/250,39,160.0
5678,F2,802.0,1.5,37,160.0
5679,C4,802.25,73/250,36,160.0
5680,E-4,802.5,73/250,35,160.0
5681,C3,802.5,0.5,32,160.0
5682,A2,802.5,1.0,32,160.0
5683,C#4,802.75,73/250,35,160.0
5684,B-3,803.0,73/250,36,160.0
5685,F3,803.0,0.5,32,160.0
5686,G3,803.25,0.25,34,160.0
5687,B-3,803.5,73/250,38,160.0
5688,G3,803.5,21/500,34,160.0
5689,F1,803.5,1.5,30,160.0
5690,A3,803.75,73/250,35,160.0
5691,C4,804.0,73/250,35,160.0
5692,D2,804.0,0.5,27,160.0
5693,B-3,804.25,73/250,34,160.0
5694,G3,804.5,73/250,36,160.0
5695,G2,804.5,0.5,26,160.0
5696,E3,804.75,73/250,34,160.0
5697,G3,805.0,73/250,37,160.0
5698,F1,805.0,1.5,30,160.0
5699,F#3,805.25,73/250,34,160.0
5700,A3,805.5,73/250,34,160.0
5701,C#2,805.5,0.5,26,160.0
5702,G3,805.75,73/250,34,160.0
5703,E3,806.0,73/250,33,160.0
5704,G2,806.0,0.5,25,160.0
5705,C3,806.25,0.25,33,160.0
5706,F3,806.5,73/250,36,160.0
5707,F1,806.5,1.5,28,160.0
5708,E3,806.75,73/250,33,160.0
5709,F3,807.0,73/250,33,160.0
5710,C2,807.0,0.5,25,160.0
5711,C3,807.25,73/250,32,160.0
5712,A2,807.5,73/250,34,160.0
5713,E2,807.5,0.5,25,160.0
5714,C3,807.75,73/250,32,160.0
5715,E3,808.0,73/250,35,160.0
5716,F1,808.0,1.5,28,160.0
5717,E-3,808.25,73/250,32,160.0
5718,E3,808.5,73/250,32,160.0
5719,C2,808.5,1.0,30,160.0
5720,B-2,808.75,73/250,32,160.0
5721,G2,809.0,73/250,31,160.0
5722,B-2,809.25,0.25,31,160.0
5723,F3,809.5,73/250,34,160.0
5724,B-2,809.5,21/500,31,160.0
5725,F1,809.5,1.5,27,160.0
5726,E3,809.75,73/250,31,160.0
5727,F3,810.0,73/250,31,160.0
5728,C2,810.0,1.0,29,160.0
5729,C3,810.25,73/250,31,160.0
5730,A2,810.5,73/250,33,160.0
5731,C3,810.75,73/250,31,160.0
5732,E3,811.0,73/250,34,160.0
5733,F1,811.0,1.5,27,160.0
5734,E-3,811.25,73/250,31,160.0
5735,E3,811.5,73/250,31,160.0
5736,C#2,811.5,1.0,29,160.0
5737,B-2,811.75,73/250,31,160.0
5738,G2,812.0,73/250,31,160.0
5739,B-2,812.25,0.25,31,160.0
5740,F3,812.5,73/250,34,160.0
5741,B-2,812.5,21/500,31,160.0
5742,F1,812.5,1.5,25,160.0
5743,E3,812.75,73/250,31,160.0
5744,F3,813.0,73/250,31,160.0
5745,C2,813.0,1.0,27,160.0
5746,C3,813.25,73/250,31,160.0
5747,A2,813.5,73/250,33,160.0
5748,C3,813.75,73/250,31,160.0
5749,E3,814.0,73/250,34,160.0
5750,F1,814.0,1.5,26,160.0
5751,E-3,814.25,73/250,31,160.0
5752,E3,814.5,73/250,31,160.0
5753,C#2,814.5,1.0,28,160.0
5754,B-2,814.75,73/250,31,160.0
5755,G2,815.0,73/250,31,160.0
5756,B-2,815.25,0.25,31,160.0
5757,F1,815.5,1.5,25,160.0
5758,F3,815.5,0.5,28,160.0
5759,A2,815.5,0.5,28,160.0
5760,C2,816.0,1.0,29,160.0
5761,F1,817.0,1.5,26,160.0
5762,E4,817.0,0.25,28,160.0
5763,C5,817.0,0.25,28,160.0
5764,C#2,817.5,1.0,28,160.0
5765,C2,818.5,0.5,24,160.0
5766,F1,818.5,0.5,26,160.0
5767,A3,818.5,0.25,28,160.0
5768,F4,818.5,0.25,28,160.0
5769,C3,820.0,0.25,24,160.0
5770,B-3,820.0,0.25,24,160.0
5771,F2,821.5,0.25,24,160.0
5772,C3,821.5,0.25,24,160.0
