,note_name,start_time,duration,velocity,tempo
0,G#4,0.0,1.0,75,225.99
1,C5,0.0,1.0,75,225.99
2,G#5,0.0,1.0,75,225.99
3,F2,0.0,1.0,64,225.99
4,F3,0.0,1.0,64,225.99
5,F3,1.0,0.25,66,225.99
6,G5,1.0,0.25,72,225.99
7,G#4,1.0,0.25,72,225.99
8,C5,1.0,0.25,72,225.99
9,F3,1.5,0.25,66,225.99
10,F5,1.5,0.25,72,225.99
11,C5,1.5,0.25,72,225.99
12,G#4,1.5,0.25,72,225.99
13,G#4,2.0,1.0,75,225.99
14,F5,2.0,1.0,75,225.99
15,C5,2.0,1.0,75,225.99
16,F2,2.0,1.0,64,225.99
17,F3,2.0,1.0,64,225.99
18,F3,3.0,0.25,66,225.99
19,G#4,3.0,0.25,74,225.99
20,C5,3.0,0.25,74,225.99
21,F3,3.5,0.25,65,225.99
22,C5,3.5,0.25,74,225.99
23,G#4,3.5,0.25,74,225.99
24,F5,4.0,1.0,75,225.99
25,C#5,4.0,1.0,75,225.99
26,B-4,4.0,1.0,75,225.99
27,F3,4.0,1.0,64,225.99
28,F2,4.0,1.0,64,225.99
29,F3,5.0,0.25,66,225.99
30,C#5,5.0,0.25,73,225.99
31,B-4,5.0,0.25,73,225.99
32,F3,5.5,0.25,66,225.99
33,B-4,5.5,0.25,72,225.99
34,C#5,5.5,0.25,72,225.99
35,F5,6.0,979/1000,75,225.99
36,G#4,6.0,979/1000,75,225.99
37,C5,6.0,979/1000,75,225.99
38,F2,6.0,979/1000,64,225.99
39,F3,6.0,979/1000,64,225.99
40,F3,7.0,0.25,45,225.99
41,G#4,7.0,0.25,52,225.99
42,C5,7.0,0.25,52,225.99
43,F3,7.5,0.25,45,225.99
44,G#4,7.5,0.25,52,225.99
45,C5,7.5,0.25,52,225.99
46,C5,8.0,1.0,46,225.99
47,G#4,8.0,1.0,46,225.99
48,F2,8.0,1.0,38,225.99
49,F1,8.0,1.0,38,225.99
50,F2,9.0,0.25,38,225.99
51,G4,9.0,0.25,45,225.99
52,G#4,9.0,0.25,45,225.99
53,C5,9.0,0.25,45,225.99
54,F2,9.5,0.25,38,225.99
55,G#4,9.5,0.25,42,225.99
56,F4,9.5,0.25,42,225.99
57,C5,9.5,0.25,42,225.99
58,F4,10.0,1.0,42,225.99
59,C5,10.0,1.0,42,225.99
60,G#4,10.0,1.0,42,225.99
61,F1,10.0,1.0,38,225.99
62,F2,10.0,1.0,38,225.99
63,F2,11.0,0.25,38,225.99
64,G#4,11.0,0.25,45,225.99
65,C4,11.0,0.25,45,225.99
66,C5,11.0,0.25,45,225.99
67,F2,11.5,0.25,38,225.99
68,C4,11.5,0.25,42,225.99
69,C5,11.5,0.25,42,225.99
70,G#4,11.5,0.25,42,225.99
71,C#5,12.0,1.0,42,225.99
72,B-4,12.0,1.0,42,225.99
73,F4,12.0,1.0,42,225.99
74,F1,12.0,1.0,38,225.99
75,F2,12.0,1.0,38,225.99
76,F2,13.0,0.25,38,225.99
77,C#5,13.0,0.25,45,225.99
78,C#4,13.0,0.25,45,225.99
79,B-4,13.0,0.25,45,225.99
80,F2,13.5,0.25,38,225.99
81,C#4,13.5,0.25,42,225.99
82,B-4,13.5,0.25,42,225.99
83,C#5,13.5,0.25,42,225.99
84,G#4,14.0,1.0,42,225.99
85,F4,14.0,1.0,42,225.99
86,C5,14.0,1.0,42,225.99
87,F2,14.0,1.0,38,225.99
88,F1,14.0,1.0,38,225.99
89,F2,15.0,0.25,38,225.99
90,C4,15.0,0.25,42,225.99
91,C5,15.0,0.25,42,225.99
92,G#4,15.0,0.25,42,225.99
93,F2,15.5,0.25,38,225.99
94,C4,15.5,0.25,42,225.99
95,G#4,15.5,0.25,42,225.99
96,C5,15.5,0.25,42,225.99
97,F3,16.0,1.0,67,225.99
98,F4,16.0,1.0,73,225.99
99,B4,16.0,1.0,73,225.99
100,G#4,16.0,1.0,73,225.99
101,D3,17.0,0.25,62,225.99
102,B4,17.0,0.25,69,225.99
103,G#4,17.0,0.25,69,225.99
104,D4,17.0,0.25,69,225.99
105,D3,17.5,0.25,62,225.99
106,G#4,17.5,0.25,69,225.99
107,B4,17.5,0.25,69,225.99
108,D4,17.5,0.25,69,225.99
109,E-3,18.0,1.0,69,225.99
110,E-4,18.0,1.0,78,225.99
111,C5,18.0,1.0,78,225.99
112,G4,18.0,1.0,78,225.99
113,C3,19.0,0.25,65,225.99
114,C4,19.0,0.25,73,225.99
115,G4,19.0,0.25,73,225.99
116,C5,19.0,0.25,73,225.99
117,C3,19.5,0.25,65,225.99
118,C5,19.5,0.25,73,225.99
119,G4,19.5,0.25,73,225.99
120,C4,19.5,0.25,73,225.99
121,B2,20.0,1.0,69,225.99
122,D4,20.0,1.0,77,225.99
123,D5,20.0,1.0,77,225.99
124,G4,20.0,1.0,77,225.99
125,G2,21.0,0.25,66,225.99
126,D4,21.0,0.25,73,225.99
127,B4,21.0,0.25,73,225.99
128,G4,21.0,0.25,73,225.99
129,G2,21.5,0.25,66,225.99
130,B4,21.5,0.25,73,225.99
131,G4,21.5,0.25,73,225.99
132,D4,21.5,0.25,73,225.99
133,C3,22.0,1.0,70,225.99
134,G4,22.0,1.0,77,225.99
135,E-4,22.0,1.0,77,225.99
136,E-5,22.0,1.0,77,225.99
137,G2,23.0,0.25,70,225.99
138,E-4,23.0,0.25,75,225.99
139,C5,23.0,0.25,75,225.99
140,G4,23.0,0.25,75,225.99
141,G2,23.5,0.25,70,225.99
142,E-4,23.5,0.25,75,225.99
143,G4,23.5,0.25,75,225.99
144,C5,23.5,0.25,75,225.99
145,D3,24.0,1.0,76,225.99
146,G4,24.0,1.0,86,225.99
147,F5,24.0,1.0,86,225.99
148,G2,25.0,0.25,73,225.99
149,G5,25.0,0.25,82,225.99
150,G4,25.0,0.25,82,225.99
151,G2,25.5,0.25,73,225.99
152,G5,25.5,0.25,82,225.99
153,G4,25.5,0.25,82,225.99
154,E-3,26.0,1.0,78,225.99
155,G4,26.0,1.0,87,225.99
156,F#5,26.0,1.0,87,225.99
157,G2,27.0,0.25,75,225.99
158,G5,27.0,0.25,86,225.99
159,G4,27.0,0.25,86,225.99
160,G2,27.5,0.25,75,225.99
161,G4,27.5,0.25,86,225.99
162,G5,27.5,0.25,86,225.99
163,E-3,28.0,979/1000,82,225.99
164,G5,28.0,979/1000,92,225.99
165,G4,28.0,979/1000,92,225.99
166,G#5,29.0,0.5,90,225.99
167,G#4,29.0,0.5,90,225.99
168,F5,29.0,0.5,90,225.99
169,C#3,29.0,0.5,78,225.99
170,C#2,29.0,0.5,78,225.99
171,G#5,30.0,0.5,90,225.99
172,F5,30.0,0.5,90,225.99
173,G#4,30.0,0.5,90,225.99
174,C#3,30.0,0.5,78,225.99
175,C#2,30.0,0.5,78,225.99
176,G#4,31.0,0.5,90,225.99
177,F5,31.0,0.5,90,225.99
178,G#5,31.0,0.5,90,225.99
179,C#2,31.0,0.5,78,225.99
180,C#3,31.0,0.5,78,225.99
181,G#5,32.0,0.5,90,225.99
182,F5,32.0,0.5,90,225.99
183,G#4,32.0,0.5,90,225.99
184,C#2,32.0,0.5,78,225.99
185,C#3,32.0,0.5,78,225.99
186,C#5,33.0,0.5,90,225.99
187,C#6,33.0,0.5,90,225.99
188,G#5,33.0,0.5,90,225.99
189,F3,33.0,0.5,78,225.99
190,F2,33.0,0.5,78,225.99
191,C#6,34.0,1.0,84,225.99
192,G#5,34.0,1.0,84,225.99
193,C#5,34.0,1.0,84,225.99
194,F3,34.0,1.0,70,225.99
195,G#2,34.0,1.0,70,225.99
196,G#3,34.0,1.0,70,225.99
197,G#5,35.0,0.25,88,225.99
198,C#6,35.0,0.25,88,225.99
199,C#5,35.0,0.25,88,225.99
200,F3,35.0,0.25,75,225.99
201,G#3,35.0,0.25,75,225.99
202,G#2,35.0,0.25,75,225.99
203,C#6,35.5,0.25,90,225.99
204,C#5,35.5,0.25,90,225.99
205,G#5,35.5,0.25,90,225.99
206,F3,35.5,0.25,76,225.99
207,G#3,35.5,0.25,76,225.99
208,G#2,35.5,0.25,76,225.99
209,E-6,36.0,1.0,92,225.99
210,C6,36.0,1.0,92,225.99
211,E-5,36.0,1.0,92,225.99
212,G#2,36.0,1.0,78,225.99
213,F#3,36.0,1.0,78,225.99
214,G#3,36.0,1.0,78,225.99
215,E-5,37.0,0.25,87,225.99
216,E-6,37.0,0.25,87,225.99
217,C6,37.0,0.25,87,225.99
218,F#3,37.0,0.25,75,225.99
219,G#3,37.0,0.25,75,225.99
220,G#2,37.0,0.25,75,225.99
221,E-6,37.5,0.25,84,225.99
222,C6,37.5,0.25,84,225.99
223,E-5,37.5,0.25,84,225.99
224,F#3,37.5,0.25,73,225.99
225,G#3,37.5,0.25,73,225.99
226,G#2,37.5,0.25,73,225.99
227,C#5,38.0,0.5,84,225.99
228,C#6,38.0,0.5,84,225.99
229,C#3,38.0,0.5,70,225.99
230,F3,38.0,0.5,70,225.99
231,G#3,38.0,0.5,70,225.99
232,B5,39.0,0.5,84,225.99
233,G#5,39.0,0.5,84,225.99
234,B4,39.0,0.5,84,225.99
235,F5,39.0,0.5,84,225.99
236,C#2,39.0,0.5,73,225.99
237,C#3,39.0,0.5,73,225.99
238,C6,40.0,0.5,84,225.99
239,G#5,40.0,0.5,84,225.99
240,F5,40.0,0.5,84,225.99
241,C5,40.0,0.5,84,225.99
242,C2,40.0,0.5,73,225.99
243,C3,40.0,0.5,73,225.99
244,G5,41.0,0.5,84,225.99
245,C5,41.0,0.5,84,225.99
246,E5,41.0,0.5,84,225.99
247,C6,41.0,0.5,84,225.99
248,C3,41.0,0.5,73,225.99
249,C2,41.0,0.5,73,225.99
250,C5,42.0,1.0,69,225.99
251,G#4,42.0,1.0,69,225.99
252,G#5,42.0,1.0,69,225.99
253,F2,42.0,1.0,58,225.99
254,F3,42.0,1.0,58,225.99
255,F3,43.0,0.25,61,225.99
256,G5,43.0,0.25,66,225.99
257,C5,43.0,0.25,66,225.99
258,G#4,43.0,0.25,66,225.99
259,F3,43.5,0.25,61,225.99
260,F5,43.5,0.25,65,225.99
261,C5,43.5,0.25,65,225.99
262,G#4,43.5,0.25,65,225.99
263,F5,44.0,1.0,69,225.99
264,C5,44.0,1.0,69,225.99
265,G#4,44.0,1.0,69,225.99
266,F2,44.0,1.0,58,225.99
267,F3,44.0,1.0,58,225.99
268,F3,45.0,0.25,61,225.99
269,G#4,45.0,0.25,68,225.99
270,C5,45.0,0.25,68,225.99
271,F3,45.5,0.25,61,225.99
272,G#4,45.5,0.25,68,225.99
273,C5,45.5,0.25,68,225.99
274,F5,46.0,1.0,70,225.99
275,C#5,46.0,1.0,70,225.99
276,B-4,46.0,1.0,70,225.99
277,F2,46.0,1.0,60,225.99
278,F3,46.0,1.0,60,225.99
279,F3,47.0,0.25,62,225.99
280,B-4,47.0,0.25,68,225.99
281,C#5,47.0,0.25,68,225.99
282,F3,47.5,0.25,62,225.99
283,B-4,47.5,0.25,68,225.99
284,C#5,47.5,0.25,68,225.99
285,F5,48.0,979/1000,71,225.99
286,C5,48.0,979/1000,71,225.99
287,G#4,48.0,979/1000,71,225.99
288,F2,48.0,979/1000,62,225.99
289,F3,48.0,979/1000,62,225.99
290,F3,49.0,0.25,45,225.99
291,G#4,49.0,0.25,51,225.99
292,C5,49.0,0.25,51,225.99
293,F3,49.5,0.25,46,225.99
294,G#4,49.5,0.25,51,225.99
295,C5,49.5,0.25,51,225.99
296,G#4,50.0,1.0,46,225.99
297,C5,50.0,1.0,46,225.99
298,F1,50.0,1.0,38,225.99
299,F2,50.0,1.0,38,225.99
300,F2,51.0,0.25,38,225.99
301,G4,51.0,0.25,45,225.99
302,G#4,51.0,0.25,45,225.99
303,C5,51.0,0.25,45,225.99
304,F2,51.5,0.25,38,225.99
305,F4,51.5,0.25,42,225.99
306,G#4,51.5,0.25,42,225.99
307,C5,51.5,0.25,42,225.99
308,F4,52.0,1.0,42,225.99
309,G#4,52.0,1.0,42,225.99
310,C5,52.0,1.0,42,225.99
311,F1,52.0,1.0,38,225.99
312,F2,52.0,1.0,38,225.99
313,F2,53.0,0.25,38,225.99
314,C4,53.0,0.25,45,225.99
315,G#4,53.0,0.25,45,225.99
316,C5,53.0,0.25,45,225.99
317,F2,53.5,0.25,38,225.99
318,C4,53.5,0.25,42,225.99
319,G#4,53.5,0.25,42,225.99
320,C5,53.5,0.25,42,225.99
321,C#5,54.0,1.0,42,225.99
322,B-4,54.0,1.0,42,225.99
323,F4,54.0,1.0,42,225.99
324,F1,54.0,1.0,38,225.99
325,F2,54.0,1.0,38,225.99
326,F2,55.0,0.25,38,225.99
327,C#4,55.0,0.25,45,225.99
328,B-4,55.0,0.25,45,225.99
329,C#5,55.0,0.25,45,225.99
330,F2,55.5,0.25,38,225.99
331,C#4,55.5,0.25,42,225.99
332,B-4,55.5,0.25,42,225.99
333,C#5,55.5,0.25,42,225.99
334,F4,56.0,1.0,42,225.99
335,G#4,56.0,1.0,42,225.99
336,C5,56.0,1.0,42,225.99
337,F1,56.0,1.0,38,225.99
338,F2,56.0,1.0,38,225.99
339,F2,57.0,0.25,38,225.99
340,C4,57.0,0.25,42,225.99
341,G#4,57.0,0.25,42,225.99
342,C5,57.0,0.25,42,225.99
343,F2,57.5,0.25,38,225.99
344,C4,57.5,0.25,42,225.99
345,G#4,57.5,0.25,42,225.99
346,C5,57.5,0.25,42,225.99
347,F3,58.0,1.0,67,225.99
348,B4,58.0,1.0,73,225.99
349,G#4,58.0,1.0,73,225.99
350,F4,58.0,1.0,73,225.99
351,D3,59.0,0.25,62,225.99
352,B4,59.0,0.25,69,225.99
353,G#4,59.0,0.25,69,225.99
354,D4,59.0,0.25,69,225.99
355,D3,59.5,0.25,62,225.99
356,B4,59.5,0.25,69,225.99
357,G#4,59.5,0.25,69,225.99
358,D4,59.5,0.25,69,225.99
359,E-3,60.0,1.0,69,225.99
360,E-4,60.0,1.0,78,225.99
361,G4,60.0,1.0,78,225.99
362,C5,60.0,1.0,78,225.99
363,C3,61.0,0.25,65,225.99
364,C4,61.0,0.25,73,225.99
365,G4,61.0,0.25,73,225.99
366,C5,61.0,0.25,73,225.99
367,C3,61.5,0.25,65,225.99
368,C4,61.5,0.25,73,225.99
369,G4,61.5,0.25,73,225.99
370,C5,61.5,0.25,73,225.99
371,B2,62.0,1.0,69,225.99
372,D4,62.0,1.0,77,225.99
373,D5,62.0,1.0,77,225.99
374,G4,62.0,1.0,77,225.99
375,G2,63.0,0.25,66,225.99
376,B4,63.0,0.25,73,225.99
377,G4,63.0,0.25,73,225.99
378,D4,63.0,0.25,73,225.99
379,G2,63.5,0.25,66,225.99
380,B4,63.5,0.25,73,225.99
381,G4,63.5,0.25,73,225.99
382,D4,63.5,0.25,73,225.99
383,C3,64.0,1.0,70,225.99
384,E-4,64.0,1.0,77,225.99
385,G4,64.0,1.0,77,225.99
386,E-5,64.0,1.0,77,225.99
387,G2,65.0,0.25,70,225.99
388,E-4,65.0,0.25,75,225.99
389,G4,65.0,0.25,75,225.99
390,C5,65.0,0.25,75,225.99
391,G2,65.5,0.25,70,225.99
392,E-4,65.5,0.25,75,225.99
393,G4,65.5,0.25,75,225.99
394,C5,65.5,0.25,75,225.99
395,D3,66.0,1.0,76,225.99
396,F5,66.0,1.0,86,225.99
397,G4,66.0,1.0,86,225.99
398,G2,67.0,0.25,73,225.99
399,G5,67.0,0.25,82,225.99
400,G4,67.0,0.25,82,225.99
401,G2,67.5,0.25,73,225.99
402,G5,67.5,0.25,82,225.99
403,G4,67.5,0.25,82,225.99
404,E-3,68.0,1.0,78,225.99
405,F#5,68.0,1.0,87,225.99
406,G4,68.0,1.0,87,225.99
407,G2,69.0,0.25,75,225.99
408,G5,69.0,0.25,86,225.99
409,G4,69.0,0.25,86,225.99
410,G2,69.5,0.25,75,225.99
411,G5,69.5,0.25,86,225.99
412,G4,69.5,0.25,86,225.99
413,E-3,70.0,979/1000,82,225.99
414,G5,70.0,979/1000,92,225.99
415,G4,70.0,979/1000,92,225.99
416,G#5,71.0,0.5,90,225.99
417,F5,71.0,0.5,90,225.99
418,G#4,71.0,0.5,90,225.99
419,C#2,71.0,0.5,78,225.99
420,C#3,71.0,0.5,78,225.99
421,G#5,72.0,0.5,90,225.99
422,F5,72.0,0.5,90,225.99
423,G#4,72.0,0.5,90,225.99
424,C#2,72.0,0.5,78,225.99
425,C#3,72.0,0.5,78,225.99
426,G#5,73.0,0.5,90,225.99
427,F5,73.0,0.5,90,225.99
428,G#4,73.0,0.5,90,225.99
429,C#2,73.0,0.5,78,225.99
430,C#3,73.0,0.5,78,225.99
431,G#5,74.0,0.5,90,225.99
432,F5,74.0,0.5,90,225.99
433,G#4,74.0,0.5,90,225.99
434,C#2,74.0,0.5,78,225.99
435,C#3,74.0,0.5,78,225.99
436,C#6,75.0,0.5,90,225.99
437,G#5,75.0,0.5,90,225.99
438,C#5,75.0,0.5,90,225.99
439,F2,75.0,0.5,78,225.99
440,F3,75.0,0.5,78,225.99
441,C#6,76.0,1.0,84,225.99
442,G#5,76.0,1.0,84,225.99
443,C#5,76.0,1.0,84,225.99
444,G#3,76.0,1.0,70,225.99
445,F3,76.0,1.0,70,225.99
446,G#2,76.0,1.0,70,225.99
447,C#6,77.0,0.25,88,225.99
448,G#5,77.0,0.25,88,225.99
449,C#5,77.0,0.25,88,225.99
450,G#2,77.0,0.25,75,225.99
451,F3,77.0,0.25,75,225.99
452,G#3,77.0,0.25,75,225.99
453,C#6,77.5,0.25,90,225.99
454,G#5,77.5,0.25,90,225.99
455,C#5,77.5,0.25,90,225.99
456,G#2,77.5,0.25,76,225.99
457,F3,77.5,0.25,76,225.99
458,G#3,77.5,0.25,76,225.99
459,E-6,78.0,1.0,92,225.99
460,C6,78.0,1.0,92,225.99
461,E-5,78.0,1.0,92,225.99
462,G#2,78.0,1.0,78,225.99
463,G#3,78.0,1.0,78,225.99
464,F#3,78.0,1.0,78,225.99
465,E-6,79.0,0.25,87,225.99
466,C6,79.0,0.25,87,225.99
467,E-5,79.0,0.25,87,225.99
468,F#3,79.0,0.25,75,225.99
469,G#3,79.0,0.25,75,225.99
470,G#2,79.0,0.25,75,225.99
471,E-6,79.5,0.25,84,225.99
472,C6,79.5,0.25,84,225.99
473,E-5,79.5,0.25,84,225.99
474,F#3,79.5,0.25,73,225.99
475,G#3,79.5,0.25,73,225.99
476,G#2,79.5,0.25,73,225.99
477,C#6,80.0,0.5,84,225.99
478,C#5,80.0,0.5,84,225.99
479,C#3,80.0,0.5,70,225.99
480,F3,80.0,0.5,70,225.99
481,G#3,80.0,0.5,70,225.99
482,B5,81.0,0.5,84,225.99
483,G#5,81.0,0.5,84,225.99
484,F5,81.0,0.5,84,225.99
485,B4,81.0,0.5,84,225.99
486,C#2,81.0,0.5,73,225.99
487,C#3,81.0,0.5,73,225.99
488,C6,82.0,0.5,84,225.99
489,G#5,82.0,0.5,84,225.99
490,F5,82.0,0.5,84,225.99
491,C5,82.0,0.5,84,225.99
492,C2,82.0,0.5,73,225.99
493,C3,82.0,0.5,73,225.99
494,C6,83.0,0.5,84,225.99
495,G5,83.0,0.5,84,225.99
496,E5,83.0,0.5,84,225.99
497,C5,83.0,0.5,84,225.99
498,C2,83.0,0.5,73,225.99
499,C3,83.0,0.5,73,225.99
500,B-4,84.0,1.0,46,225.99
501,C5,84.0,1.0,46,225.99
502,B-3,84.0,1.0,38,225.99
503,C4,84.0,1.0,38,225.99
504,G4,85.0,0.25,42,225.99
505,C5,85.0,0.25,42,225.99
506,G3,85.0,0.25,37,225.99
507,C4,85.0,0.25,37,225.99
508,G4,85.5,0.25,42,225.99
509,C5,85.5,0.25,42,225.99
510,G3,85.5,0.25,37,225.99
511,C4,85.5,0.25,37,225.99
512,G#4,86.0,1.0,46,225.99
513,C5,86.0,1.0,46,225.99
514,G#3,86.0,1.0,38,225.99
515,C4,86.0,1.0,38,225.99
516,F4,87.0,0.25,42,225.99
517,C5,87.0,0.25,42,225.99
518,F3,87.0,0.25,36,225.99
519,C4,87.0,0.25,36,225.99
520,F4,87.5,0.25,42,225.99
521,C5,87.5,0.25,42,225.99
522,F3,87.5,0.25,36,225.99
523,C4,87.5,0.25,36,225.99
524,F#4,88.0,1.0,46,225.99
525,G#4,88.0,1.0,46,225.99
526,F#3,88.0,1.0,38,225.99
527,G#3,88.0,1.0,38,225.99
528,C4,89.0,0.25,42,225.99
529,G#4,89.0,0.25,42,225.99
530,C3,89.0,0.25,36,225.99
531,G#3,89.0,0.25,36,225.99
532,C4,89.5,0.25,42,225.99
533,G#4,89.5,0.25,42,225.99
534,C3,89.5,0.25,36,225.99
535,G#3,89.5,0.25,36,225.99
536,F4,90.0,0.25,83,225.99
537,G#4,90.0,0.25,83,225.99
538,F5,90.0,0.25,83,225.99
539,C#2,90.0,0.25,72,225.99
540,C#3,90.0,0.25,72,225.99
541,F4,90.983,0.25,83,225.99
542,G#4,90.983,0.25,83,225.99
543,C#5,90.983,0.25,83,225.99
544,C#3,90.983,0.25,72,225.99
545,G#3,90.983,0.25,72,225.99
546,F#4,92.0,1.0,46,225.99
547,G#4,92.0,1.0,46,225.99
548,F#3,92.0,1.0,38,225.99
549,G#3,92.0,1.0,38,225.99
550,C4,93.0,0.25,42,225.99
551,G#4,93.0,0.25,42,225.99
552,C3,93.0,0.25,36,225.99
553,G#3,93.0,0.25,36,225.99
554,C4,93.5,0.25,42,225.99
555,G#4,93.5,0.25,42,225.99
556,C3,93.5,0.25,36,225.99
557,G#3,93.5,0.25,36,225.99
558,F4,94.0,31/125,83,225.99
559,G#4,94.0,31/125,83,225.99
560,F5,94.0,31/125,83,225.99
561,C#2,94.0,31/125,71,225.99
562,C#3,94.0,31/125,71,225.99
563,F4,94.983,31/125,83,225.99
564,G#4,94.983,31/125,83,225.99
565,C#5,94.983,31/125,83,225.99
566,C#3,94.983,31/125,71,225.99
567,G#3,94.983,31/125,71,225.99
568,E-5,96.0,1.0,46,225.99
569,F5,96.0,1.0,46,225.99
570,E-4,96.0,1.0,38,225.99
571,F4,96.0,1.0,38,225.99
572,C5,97.0,0.25,42,225.99
573,F5,97.0,0.25,42,225.99
574,C4,97.0,0.25,37,225.99
575,F4,97.0,0.25,37,225.99
576,C5,97.5,0.25,42,225.99
577,F5,97.5,0.25,42,225.99
578,C4,97.5,0.25,37,225.99
579,F4,97.5,0.25,37,225.99
580,C#5,98.0,1.0,46,225.99
581,F5,98.0,1.0,46,225.99
582,C#4,98.0,1.0,38,225.99
583,F4,98.0,1.0,38,225.99
584,B-4,99.0,0.25,42,225.99
585,F5,99.0,0.25,42,225.99
586,B-3,99.0,0.25,36,225.99
587,F4,99.0,0.25,36,225.99
588,B-4,99.5,0.25,42,225.99
589,F5,99.5,0.25,42,225.99
590,B-3,99.5,0.25,36,225.99
591,F4,99.5,0.25,36,225.99
592,B4,100.0,1.0,46,225.99
593,C#5,100.0,1.0,46,225.99
594,B3,100.0,1.0,38,225.99
595,C#4,100.0,1.0,38,225.99
596,F4,101.0,0.25,42,225.99
597,C#5,101.0,0.25,42,225.99
598,F3,101.0,0.25,36,225.99
599,C#4,101.0,0.25,36,225.99
600,F4,101.5,0.25,42,225.99
601,C#5,101.5,0.25,42,225.99
602,F3,101.5,0.25,36,225.99
603,C#4,101.5,0.25,36,225.99
604,B-4,102.0,31/125,88,225.99
605,C#5,102.0,31/125,88,225.99
606,B-5,102.0,31/125,88,225.99
607,F#2,102.0,31/125,76,225.99
608,F#3,102.0,31/125,76,225.99
609,B-4,102.983,31/125,87,225.99
610,C#5,102.983,31/125,87,225.99
611,F#5,102.983,31/125,87,225.99
612,F#3,102.983,31/125,76,225.99
613,C#4,102.983,31/125,76,225.99
614,B4,104.0,1.0,46,225.99
615,C#5,104.0,1.0,46,225.99
616,B3,104.0,1.0,38,225.99
617,C#4,104.0,1.0,38,225.99
618,F4,105.0,0.25,42,225.99
619,C#5,105.0,0.25,42,225.99
620,F3,105.0,0.25,36,225.99
621,C#4,105.0,0.25,36,225.99
622,F4,105.5,0.25,42,225.99
623,C#5,105.5,0.25,42,225.99
624,F3,105.5,0.25,36,225.99
625,C#4,105.5,0.25,36,225.99
626,B-4,106.0,31/125,88,225.99
627,C#5,106.0,31/125,88,225.99
628,B-5,106.0,31/125,88,225.99
629,F#2,106.0,31/125,74,225.99
630,F#3,106.0,31/125,74,225.99
631,B-4,106.983,31/125,88,225.99
632,C#5,106.983,31/125,88,225.99
633,F#5,106.983,31/125,88,225.99
634,F#3,106.983,31/125,74,225.99
635,C#4,106.983,31/125,74,225.99
636,B-5,108.0,0.25,46,225.99
637,C#3,108.0,0.25,44,225.99
638,B-4,108.5,0.25,40,225.99
639,F#3,109.0,0.25,38,225.99
640,F#5,109.0,0.25,38,225.99
641,C#5,109.0,0.25,38,225.99
642,B-4,109.5,0.25,40,225.99
643,F#5,110.0,0.25,44,225.99
644,F#3,110.0,0.25,40,225.99
645,F#4,110.5,0.25,39,225.99
646,B3,111.0,0.25,37,225.99
647,B4,111.0,0.25,36,225.99
648,D5,111.0,0.25,36,225.99
649,F#4,111.5,0.25,38,225.99
650,E5,112.0,0.25,41,225.99
651,F#2,112.0,0.25,39,225.99
652,G4,112.5,0.25,36,225.99
653,F#3,113.0,0.25,36,225.99
654,B-4,113.0,0.25,34,225.99
655,C#5,113.0,0.25,34,225.99
656,G4,113.5,0.25,36,225.99
657,C#5,114.0,0.25,36,225.99
658,B4,114.0,0.25,36,225.99
659,F#2,114.0,0.25,36,225.99
660,F#3,114.0,0.25,36,225.99
661,F#4,114.5,0.25,32,225.99
662,B4,115.0,0.25,30,225.99
663,D5,115.0,0.25,30,225.99
664,B2,115.0,0.25,30,225.99
665,F#3,115.0,0.25,30,225.99
666,F#4,115.5,0.25,32,225.99
667,G5,116.0,0.25,40,225.99
668,F#3,116.0,0.25,40,225.99
669,B-4,116.5,0.25,36,225.99
670,G4,117.0,0.25,36,225.99
671,C#5,117.0,0.25,34,225.99
672,E5,117.0,0.25,34,225.99
673,B-4,117.5,0.25,36,225.99
674,C#5,118.0,0.25,37,225.99
675,F#5,118.0,0.25,37,225.99
676,F#3,118.0,0.25,37,225.99
677,F#4,118.0,0.25,37,225.99
678,B-4,118.5,0.25,32,225.99
679,D5,119.0,0.25,30,225.99
680,F#5,119.0,0.25,30,225.99
681,B3,119.0,0.25,30,225.99
682,F#4,119.0,0.25,30,225.99
683,B4,119.5,0.25,32,225.99
684,B5,120.0,0.25,46,225.99
685,D3,120.0,0.25,45,225.99
686,B4,120.5,0.25,40,225.99
687,G3,121.0,0.25,40,225.99
688,D5,121.0,0.25,38,225.99
689,G5,121.0,0.25,38,225.99
690,B4,121.5,0.25,40,225.99
691,G5,122.0,0.25,44,225.99
692,G3,122.0,0.25,41,225.99
693,G4,122.5,0.25,33,225.99
694,C4,123.0,0.25,39,225.99
695,C5,123.0,0.25,36,225.99
696,E-5,123.0,0.25,36,225.99
697,G4,123.5,0.25,38,225.99
698,F5,124.0,0.25,41,225.99
699,G2,124.0,0.25,40,225.99
700,G#4,124.5,0.25,37,225.99
701,G3,125.0,0.25,36,225.99
702,B4,125.0,0.25,35,225.99
703,D5,125.0,0.25,35,225.99
704,G#4,125.5,0.25,37,225.99
705,D5,126.0,0.25,38,225.99
706,C5,126.0,0.25,38,225.99
707,G2,126.0,0.25,36,225.99
708,G3,126.0,0.25,36,225.99
709,G4,126.5,0.25,33,225.99
710,C5,127.0,0.25,31,225.99
711,E-5,127.0,0.25,31,225.99
712,C3,127.0,0.25,31,225.99
713,G3,127.0,0.25,31,225.99
714,G4,127.5,0.25,33,225.99
715,G#5,128.0,0.25,44,225.99
716,G3,128.0,0.25,41,225.99
717,B4,128.5,0.25,37,225.99
718,G#4,129.0,0.25,38,225.99
719,D5,129.0,0.25,35,225.99
720,F5,129.0,0.25,35,225.99
721,B4,129.5,0.25,35,225.99
722,D5,130.0,0.25,38,225.99
723,G5,130.0,0.25,38,225.99
724,G3,130.0,0.25,38,225.99
725,G4,130.0,0.25,38,225.99
726,B4,130.5,0.25,36,225.99
727,E-5,131.0,0.25,34,225.99
728,G5,131.0,0.25,34,225.99
729,C4,131.0,0.25,34,225.99
730,G4,131.0,0.25,34,225.99
731,C5,131.5,0.25,36,225.99
732,B-4,132.0,0.25,45,225.99
733,G4,132.0,0.25,45,225.99
734,E-5,132.5,0.25,41,225.99
735,D5,133.0,0.25,41,225.99
736,E-4,133.0,0.25,41,225.99
737,E-5,133.5,0.25,41,225.99
738,E-5,134.0,0.25,48,225.99
739,E-4,134.0,0.25,47,225.99
740,G#5,134.5,0.25,45,225.99
741,G5,135.0,0.25,45,225.99
742,B3,135.0,0.25,42,225.99
743,E-4,135.0,0.25,42,225.99
744,G#5,135.5,0.25,45,225.99
745,E-6,136.0,0.25,54,225.99
746,C#4,136.0,0.25,46,225.99
747,E-4,136.0,0.25,46,225.99
748,E-5,136.5,0.25,45,225.99
749,G5,137.0,0.25,45,225.99
750,B-3,137.0,0.25,42,225.99
751,E-4,137.0,0.25,42,225.99
752,E-5,137.5,0.25,45,225.99
753,E-5,138.0,0.25,50,225.99
754,B-3,138.0,0.25,48,225.99
755,E-4,138.0,0.25,48,225.99
756,G#5,138.5,0.25,41,225.99
757,G5,139.0,0.25,41,225.99
758,B3,139.0,0.25,41,225.99
759,E-4,139.0,0.25,41,225.99
760,G#5,139.5,0.25,41,225.99
761,F#5,140.0,0.25,48,225.99
762,E4,140.0,0.25,45,225.99
763,F#4,140.5,0.25,42,225.99
764,B-4,141.0,0.25,42,225.99
765,C#4,141.0,0.25,41,225.99
766,F#4,141.5,0.25,42,225.99
767,F#4,142.0,0.25,47,225.99
768,C#4,142.0,0.25,45,225.99
769,B4,142.5,0.25,43,225.99
770,B-4,143.0,0.25,43,225.99
771,E-4,143.0,0.25,41,225.99
772,B4,143.5,0.25,44,225.99
773,B4,144.0,0.25,51,225.99
774,G#4,144.0,0.25,48,225.99
775,E5,144.5,0.25,47,225.99
776,E-5,145.0,0.25,47,225.99
777,E4,145.0,0.25,45,225.99
778,E5,145.5,0.25,48,225.99
779,E5,146.0,0.25,59,225.99
780,E4,146.0,0.25,54,225.99
781,A5,146.5,0.25,54,225.99
782,G#5,147.0,0.25,54,225.99
783,C4,147.0,0.25,48,225.99
784,E4,147.0,0.25,48,225.99
785,A5,147.5,0.25,54,225.99
786,E6,148.0,0.25,71,225.99
787,D4,148.0,0.25,56,225.99
788,E4,148.0,0.25,56,225.99
789,E5,148.5,0.25,60,225.99
790,G#5,149.0,0.25,61,225.99
791,B3,149.0,0.25,51,225.99
792,E4,149.0,0.25,51,225.99
793,E5,149.5,0.25,61,225.99
794,E5,150.0,0.25,65,225.99
795,B3,150.0,0.25,55,225.99
796,E4,150.0,0.25,55,225.99
797,A5,150.5,0.25,60,225.99
798,G#5,151.0,0.25,60,225.99
799,C4,151.0,0.25,51,225.99
800,E4,151.0,0.25,51,225.99
801,A5,151.5,0.25,60,225.99
802,G5,152.0,0.25,69,225.99
803,F4,152.0,0.25,59,225.99
804,G4,152.5,0.25,62,225.99
805,B4,153.0,0.25,62,225.99
806,D4,153.0,0.25,50,225.99
807,G4,153.5,0.25,62,225.99
808,G4,154.0,0.25,67,225.99
809,D4,154.0,0.25,58,225.99
810,C5,154.5,0.25,58,225.99
811,B4,155.0,0.25,58,225.99
812,E4,155.0,123/500,50,225.99
813,C5,155.5,6/25,58,225.99
814,C#5,156.0,1.0,81,225.99
815,C#4,156.0,1.0,68,225.99
816,C5,157.0,0.375,73,225.99
817,C#5,157.0,0.375,73,225.99
818,C4,157.0,0.375,62,225.99
819,C#4,157.0,0.375,62,225.99
820,B-4,157.5,0.375,73,225.99
821,C#5,157.5,0.375,73,225.99
822,B-3,157.5,0.375,62,225.99
823,C#4,157.5,0.375,62,225.99
824,B-4,158.0,1.0,76,225.99
825,C#5,158.0,1.0,76,225.99
826,B-3,158.0,1.0,64,225.99
827,C#4,158.0,1.0,64,225.99
828,G#4,159.0,0.375,74,225.99
829,C#5,159.0,0.375,74,225.99
830,G#3,159.0,0.375,62,225.99
831,C#4,159.0,0.375,62,225.99
832,G4,159.5,0.375,74,225.99
833,C#5,159.5,0.375,74,225.99
834,G3,159.5,0.375,62,225.99
835,C#4,159.5,0.375,62,225.99
836,G4,160.0,1.0,75,225.99
837,B-4,160.0,1.0,75,225.99
838,C#5,160.0,1.0,75,225.99
839,G3,160.0,1.0,64,225.99
840,C#4,160.0,1.0,64,225.99
841,F4,161.0,0.375,72,225.99
842,G#4,161.0,0.375,72,225.99
843,C#5,161.0,0.375,72,225.99
844,F3,161.0,0.375,62,225.99
845,C#4,161.0,0.375,62,225.99
846,E4,161.5,9/25,72,225.99
847,G4,161.5,9/25,72,225.99
848,C#5,161.5,9/25,72,225.99
849,E3,161.5,9/25,62,225.99
850,C#4,161.5,9/25,62,225.99
851,C6,162.0,1.0,93,225.99
852,B-5,162.0,1.0,93,225.99
853,G5,162.0,1.0,93,225.99
854,C2,162.0,1.0,78,225.99
855,C3,162.0,1.0,78,225.99
856,C3,163.0,0.375,79,225.99
857,F5,163.0,0.375,87,225.99
858,G#5,163.0,0.375,87,225.99
859,C6,163.0,0.375,87,225.99
860,C3,163.5,9/25,79,225.99
861,E5,163.5,9/25,87,225.99
862,G5,163.5,9/25,87,225.99
863,C6,163.5,9/25,87,225.99
864,C#5,164.0,1.0,81,225.99
865,C#4,164.0,1.0,68,225.99
866,C5,165.0,0.375,73,225.99
867,C#5,165.0,0.375,73,225.99
868,C4,165.0,0.375,62,225.99
869,C#4,165.0,0.375,62,225.99
870,B-4,165.5,0.375,73,225.99
871,C#5,165.5,0.375,73,225.99
872,B-3,165.5,0.375,62,225.99
873,C#4,165.5,0.375,62,225.99
874,B-4,166.0,1.0,76,225.99
875,C#5,166.0,1.0,76,225.99
876,B-3,166.0,1.0,64,225.99
877,C#4,166.0,1.0,64,225.99
878,G#4,167.0,0.375,74,225.99
879,C#5,167.0,0.375,74,225.99
880,G#3,167.0,0.375,62,225.99
881,C#4,167.0,0.375,62,225.99
882,G4,167.5,0.375,74,225.99
883,C#5,167.5,0.375,74,225.99
884,G3,167.5,0.375,62,225.99
885,C#4,167.5,0.375,62,225.99
886,G4,168.0,1.0,75,225.99
887,B-4,168.0,1.0,75,225.99
888,C#5,168.0,1.0,75,225.99
889,G3,168.0,1.0,64,225.99
890,C#4,168.0,1.0,64,225.99
891,F4,169.0,0.375,72,225.99
892,G#4,169.0,0.375,72,225.99
893,C#5,169.0,0.375,72,225.99
894,F3,169.0,0.375,62,225.99
895,C#4,169.0,0.375,62,225.99
896,E4,169.5,9/25,72,225.99
897,G4,169.5,9/25,72,225.99
898,C#5,169.5,9/25,72,225.99
899,E3,169.5,9/25,62,225.99
900,C#4,169.5,9/25,62,225.99
901,C6,170.0,1.0,92,225.99
902,B-5,170.0,1.0,92,225.99
903,G5,170.0,1.0,92,225.99
904,C2,170.0,1.0,80,225.99
905,C3,170.0,1.0,80,225.99
906,C3,171.0,0.375,79,225.99
907,F5,171.0,0.375,85,225.99
908,G#5,171.0,0.375,85,225.99
909,C6,171.0,0.375,85,225.99
910,C3,171.5,9/25,79,225.99
911,E5,171.5,9/25,85,225.99
912,G5,171.5,9/25,85,225.99
913,C6,171.5,9/25,85,225.99
914,G4,172.0,1.0,52,225.99
915,B-4,172.0,1.0,52,225.99
916,C#5,172.0,1.0,52,225.99
917,G3,172.0,1.0,42,225.99
918,C#4,172.0,1.0,42,225.99
919,F4,173.0,0.375,46,225.99
920,G#4,173.0,0.375,46,225.99
921,C#5,173.0,0.375,46,225.99
922,F3,173.0,0.375,38,225.99
923,C#4,173.0,0.375,38,225.99
924,E4,173.5,0.375,46,225.99
925,G4,173.5,0.375,46,225.99
926,C#5,173.5,0.375,46,225.99
927,E3,173.5,0.375,38,225.99
928,C#4,173.5,0.375,38,225.99
929,C6,174.0,1.0,90,225.99
930,B-5,174.0,1.0,90,225.99
931,G5,174.0,1.0,90,225.99
932,C2,174.0,1.0,78,225.99
933,C3,174.0,1.0,78,225.99
934,C3,175.0,0.375,79,225.99
935,F5,175.0,0.375,82,225.99
936,G#5,175.0,0.375,82,225.99
937,C6,175.0,0.375,82,225.99
938,C3,175.5,0.375,79,225.99
939,E5,175.5,0.375,84,225.99
940,G5,175.5,0.375,84,225.99
941,C6,175.5,0.375,84,225.99
942,C4,176.0,0.5,48,225.99
943,C3,176.0,0.5,40,225.99
944,C#4,177.0,0.25,45,225.99
945,C#3,177.0,0.25,38,225.99
946,C4,177.5,0.25,45,225.99
947,C3,177.5,0.25,38,225.99
948,C#4,178.0,0.5,48,225.99
949,C#3,178.0,0.5,40,225.99
950,C4,179.0,0.25,45,225.99
951,C3,179.0,0.25,38,225.99
952,D4,179.5,0.25,45,225.99
953,D3,179.5,0.25,38,225.99
954,E4,180.0,0.5,48,225.99
955,E3,180.0,0.5,40,225.99
956,F4,181.0,0.25,45,225.99
957,F3,181.0,0.25,38,225.99
958,E4,181.5,0.25,45,225.99
959,E3,181.5,0.25,38,225.99
960,F4,182.0,0.5,48,225.99
961,F3,182.0,0.5,39,225.99
962,E4,183.0,0.25,50,225.99
963,E3,183.0,0.25,42,225.99
964,F#4,183.5,0.25,52,225.99
965,F#3,183.5,0.25,44,225.99
966,G4,184.0,1.0,54,225.99
967,G3,184.0,1.0,45,225.99
968,G#4,185.0,0.5,56,225.99
969,G#3,185.0,0.5,47,225.99
970,G4,185.5,0.5,58,225.99
971,G3,185.5,0.5,49,225.99
972,B-4,186.0,1.0,60,225.99
973,B-3,186.0,1.0,51,225.99
974,G#4,187.0,0.5,63,225.99
975,G#3,187.0,0.5,54,225.99
976,C#5,187.5,0.5,64,225.99
977,C#4,187.5,0.5,55,225.99
978,C5,188.0,1.0,66,225.99
979,C4,188.0,1.0,56,225.99
980,D5,189.0,0.5,70,225.99
981,D4,189.0,0.5,60,225.99
982,E-5,189.5,0.5,72,225.99
983,E-4,189.5,0.5,61,225.99
984,E5,190.0,1.0,72,225.99
985,E4,190.0,1.0,62,225.99
986,F5,191.0,0.5,76,225.99
987,F4,191.0,0.5,65,225.99
988,G5,191.5,0.5,78,225.99
989,G4,191.5,0.5,67,225.99
990,C5,192.0,1.0,75,225.99
991,G#4,192.0,1.0,75,225.99
992,G#5,192.0,1.0,75,225.99
993,F2,192.0,1.0,68,225.99
994,F3,192.0,1.0,68,225.99
995,F3,193.0,0.25,66,225.99
996,G5,193.0,0.25,72,225.99
997,C5,193.0,0.25,72,225.99
998,G#4,193.0,0.25,72,225.99
999,F3,193.5,0.25,66,225.99
1000,F5,193.5,0.25,72,225.99
1001,C5,193.5,0.25,72,225.99
1002,G#4,193.5,0.25,72,225.99
1003,F5,194.0,1.0,75,225.99
1004,C5,194.0,1.0,75,225.99
1005,G#4,194.0,1.0,75,225.99
1006,F2,194.0,1.0,64,225.99
1007,F3,194.0,1.0,64,225.99
1008,F3,195.0,0.25,66,225.99
1009,G#4,195.0,0.25,74,225.99
1010,C5,195.0,0.25,74,225.99
1011,F3,195.5,0.25,65,225.99
1012,G#4,195.5,0.25,74,225.99
1013,C5,195.5,0.25,74,225.99
1014,F5,196.0,1.0,75,225.99
1015,C#5,196.0,1.0,75,225.99
1016,B-4,196.0,1.0,75,225.99
1017,F2,196.0,1.0,64,225.99
1018,F3,196.0,1.0,64,225.99
1019,F3,197.0,0.25,66,225.99
1020,B-4,197.0,0.25,73,225.99
1021,C#5,197.0,0.25,73,225.99
1022,F3,197.5,0.25,66,225.99
1023,B-4,197.5,0.25,72,225.99
1024,C#5,197.5,0.25,72,225.99
1025,F5,198.0,979/1000,75,225.99
1026,C5,198.0,979/1000,75,225.99
1027,G#4,198.0,979/1000,75,225.99
1028,F2,198.0,979/1000,64,225.99
1029,F3,198.0,979/1000,64,225.99
1030,F3,199.0,0.25,46,225.99
1031,G#4,199.0,0.25,51,225.99
1032,C5,199.0,0.25,51,225.99
1033,F3,199.5,0.25,46,225.99
1034,G#4,199.5,0.25,51,225.99
1035,C5,199.5,0.25,51,225.99
1036,G#4,200.0,1.0,46,225.99
1037,C5,200.0,1.0,46,225.99
1038,F1,200.0,1.0,38,225.99
1039,F2,200.0,1.0,38,225.99
1040,F2,201.0,0.25,38,225.99
1041,G4,201.0,0.25,46,225.99
1042,G#4,201.0,0.25,46,225.99
1043,C5,201.0,0.25,46,225.99
1044,F2,201.5,0.25,38,225.99
1045,F4,201.5,0.25,42,225.99
1046,G#4,201.5,0.25,42,225.99
1047,C5,201.5,0.25,42,225.99
1048,F4,202.0,1.0,42,225.99
1049,G#4,202.0,1.0,42,225.99
1050,C5,202.0,1.0,42,225.99
1051,F1,202.0,1.0,38,225.99
1052,F2,202.0,1.0,38,225.99
1053,F2,203.0,0.25,38,225.99
1054,C4,203.0,0.25,45,225.99
1055,G#4,203.0,0.25,45,225.99
1056,C5,203.0,0.25,45,225.99
1057,F2,203.5,0.25,38,225.99
1058,C4,203.5,0.25,42,225.99
1059,G#4,203.5,0.25,42,225.99
1060,C5,203.5,0.25,42,225.99
1061,C#5,204.0,1.0,42,225.99
1062,B-4,204.0,1.0,42,225.99
1063,F4,204.0,1.0,42,225.99
1064,F1,204.0,1.0,38,225.99
1065,F2,204.0,1.0,38,225.99
1066,F2,205.0,0.25,38,225.99
1067,C#4,205.0,0.25,45,225.99
1068,B-4,205.0,0.25,45,225.99
1069,C#5,205.0,0.25,45,225.99
1070,F2,205.5,0.25,38,225.99
1071,C#4,205.5,0.25,42,225.99
1072,B-4,205.5,0.25,42,225.99
1073,C#5,205.5,0.25,42,225.99
1074,F4,206.0,1.0,42,225.99
1075,G#4,206.0,1.0,42,225.99
1076,C5,206.0,1.0,42,225.99
1077,F1,206.0,1.0,38,225.99
1078,F2,206.0,1.0,38,225.99
1079,F2,207.0,0.25,38,225.99
1080,C4,207.0,0.25,42,225.99
1081,G#4,207.0,0.25,42,225.99
1082,C5,207.0,0.25,42,225.99
1083,F2,207.5,0.25,38,225.99
1084,C4,207.5,0.25,42,225.99
1085,G#4,207.5,0.25,42,225.99
1086,C5,207.5,0.25,42,225.99
1087,B-3,208.0,1.0,47,225.99
1088,E5,208.0,1.0,51,225.99
1089,C#5,208.0,1.0,51,225.99
1090,B-4,208.0,1.0,51,225.99
1091,G3,209.0,0.25,44,225.99
1092,E5,209.0,0.25,48,225.99
1093,C#5,209.0,0.25,48,225.99
1094,G4,209.0,0.25,48,225.99
1095,G3,209.5,0.25,44,225.99
1096,E5,209.5,0.25,48,225.99
1097,C#5,209.5,0.25,48,225.99
1098,G4,209.5,0.25,48,225.99
1099,G#3,210.0,1.0,53,225.99
1100,G#4,210.0,1.0,56,225.99
1101,C5,210.0,1.0,56,225.99
1102,F5,210.0,1.0,56,225.99
1103,F3,211.0,0.25,51,225.99
1104,F4,211.0,0.25,54,225.99
1105,C5,211.0,0.25,54,225.99
1106,F5,211.0,0.25,54,225.99
1107,F3,211.5,0.25,51,225.99
1108,F4,211.5,0.25,54,225.99
1109,C5,211.5,0.25,54,225.99
1110,F5,211.5,0.25,54,225.99
1111,E3,212.0,1.0,57,225.99
1112,G4,212.0,1.0,62,225.99
1113,G5,212.0,1.0,62,225.99
1114,C5,212.0,1.0,62,225.99
1115,C3,213.0,0.25,50,225.99
1116,E5,213.0,0.25,56,225.99
1117,C5,213.0,0.25,56,225.99
1118,G4,213.0,0.25,56,225.99
1119,C3,213.5,0.25,51,225.99
1120,E5,213.5,0.25,56,225.99
1121,C5,213.5,0.25,56,225.99
1122,G4,213.5,0.25,56,225.99
1123,F3,214.0,1.0,63,225.99
1124,G#4,214.0,1.0,68,225.99
1125,C5,214.0,1.0,68,225.99
1126,G#5,214.0,1.0,68,225.99
1127,C3,215.0,0.25,56,225.99
1128,G#4,215.0,0.25,63,225.99
1129,C5,215.0,0.25,63,225.99
1130,F5,215.0,0.25,63,225.99
1131,C3,215.5,0.25,56,225.99
1132,G#4,215.5,0.25,63,225.99
1133,C5,215.5,0.25,63,225.99
1134,F5,215.5,0.25,63,225.99
1135,G3,216.0,1.0,72,225.99
1136,B-5,216.0,1.0,80,225.99
1137,C5,216.0,1.0,80,225.99
1138,C3,217.0,0.25,65,225.99
1139,C6,217.0,0.25,73,225.99
1140,C5,217.0,0.25,73,225.99
1141,C3,217.5,0.25,65,225.99
1142,C6,217.5,0.25,73,225.99
1143,C5,217.5,0.25,73,225.99
1144,G#3,218.0,1.0,76,225.99
1145,B5,218.0,1.0,84,225.99
1146,C5,218.0,1.0,84,225.99
1147,C3,219.0,0.25,72,225.99
1148,C6,219.0,0.25,80,225.99
1149,C5,219.0,0.25,80,225.99
1150,C3,219.5,0.25,72,225.99
1151,C6,219.5,0.25,80,225.99
1152,C5,219.5,0.25,80,225.99
1153,G#3,220.0,979/1000,82,225.99
1154,C6,220.0,979/1000,92,225.99
1155,C5,220.0,979/1000,92,225.99
1156,C#6,221.0,0.5,90,225.99
1157,B-5,221.0,0.5,90,225.99
1158,C#5,221.0,0.5,90,225.99
1159,F#2,221.0,0.5,78,225.99
1160,F#3,221.0,0.5,78,225.99
1161,C#6,222.0,0.5,90,225.99
1162,B-5,222.0,0.5,90,225.99
1163,C#5,222.0,0.5,90,225.99
1164,F#2,222.0,0.5,78,225.99
1165,F#3,222.0,0.5,78,225.99
1166,C#6,223.0,0.5,90,225.99
1167,B-5,223.0,0.5,90,225.99
1168,C#5,223.0,0.5,90,225.99
1169,F#2,223.0,0.5,78,225.99
1170,F#3,223.0,0.5,78,225.99
1171,C#6,224.0,0.5,90,225.99
1172,B-5,224.0,0.5,90,225.99
1173,C#5,224.0,0.5,90,225.99
1174,F#2,224.0,0.5,78,225.99
1175,F#3,224.0,0.5,78,225.99
1176,F#6,225.0,0.5,90,225.99
1177,C#6,225.0,0.5,90,225.99
1178,F#5,225.0,0.5,90,225.99
1179,B-2,225.0,0.5,78,225.99
1180,B-3,225.0,0.5,78,225.99
1181,F#6,226.0,1.0,84,225.99
1182,C#6,226.0,1.0,84,225.99
1183,F#5,226.0,1.0,84,225.99
1184,C#4,226.0,1.0,70,225.99
1185,B-3,226.0,1.0,70,225.99
1186,C#3,226.0,1.0,70,225.99
1187,F#6,227.0,0.25,88,225.99
1188,C#6,227.0,0.25,88,225.99
1189,F#5,227.0,0.25,88,225.99
1190,C#3,227.0,0.25,75,225.99
1191,B-3,227.0,0.25,75,225.99
1192,C#4,227.0,0.25,75,225.99
1193,F#6,227.5,0.25,90,225.99
1194,C#6,227.5,0.25,90,225.99
1195,F#5,227.5,0.25,90,225.99
1196,C#3,227.5,0.25,76,225.99
1197,B-3,227.5,0.25,76,225.99
1198,C#4,227.5,0.25,76,225.99
1199,G#6,228.0,1.0,92,225.99
1200,F6,228.0,1.0,92,225.99
1201,G#5,228.0,1.0,92,225.99
1202,C#3,228.0,1.0,78,225.99
1203,C#4,228.0,1.0,78,225.99
1204,B3,228.0,1.0,78,225.99
1205,G#6,229.0,0.25,87,225.99
1206,F6,229.0,0.25,87,225.99
1207,G#5,229.0,0.25,87,225.99
1208,B3,229.0,0.25,75,225.99
1209,C#4,229.0,0.25,75,225.99
1210,C#3,229.0,0.25,75,225.99
1211,G#6,229.5,0.25,84,225.99
1212,F6,229.5,0.25,84,225.99
1213,G#5,229.5,0.25,84,225.99
1214,B3,229.5,0.25,73,225.99
1215,C#4,229.5,0.25,73,225.99
1216,C#3,229.5,0.25,73,225.99
1217,F#6,230.0,0.5,84,225.99
1218,F#5,230.0,0.5,84,225.99
1219,F#3,230.0,0.5,70,225.99
1220,B-3,230.0,0.5,70,225.99
1221,C#4,230.0,0.5,70,225.99
1222,B5,231.0,0.5,84,225.99
1223,G#5,231.0,0.5,84,225.99
1224,F5,231.0,0.5,84,225.99
1225,B4,231.0,0.5,84,225.99
1226,C#2,231.0,0.5,73,225.99
1227,C#3,231.0,0.5,73,225.99
1228,C6,232.0,0.5,84,225.99
1229,G#5,232.0,0.5,84,225.99
1230,F5,232.0,0.5,84,225.99
1231,C5,232.0,0.5,84,225.99
1232,C2,232.0,0.5,73,225.99
1233,C3,232.0,0.5,73,225.99
1234,C6,233.0,0.5,84,225.99
1235,G5,233.0,0.5,84,225.99
1236,E5,233.0,0.5,84,225.99
1237,C5,233.0,0.5,84,225.99
1238,C2,233.0,0.5,73,225.99
1239,C3,233.0,0.5,73,225.99
1240,F4,234.0,1.0,87,225.99
1241,F5,234.0,1.0,87,225.99
1242,F2,234.0,1.0,74,225.99
1243,F3,234.0,1.0,74,225.99
1244,F4,235.0,0.5,48,225.99
1245,F3,235.0,0.5,40,225.99
1246,G4,235.5,0.5,48,225.99
1247,G3,235.5,0.5,40,225.99
1248,A4,236.0,1.0,48,225.99
1249,A3,236.0,1.0,40,225.99
1250,B-4,237.0,0.25,48,225.99
1251,B-3,237.0,0.25,40,225.99
1252,C5,237.5,0.25,48,225.99
1253,C4,237.5,0.25,40,225.99
1254,C5,238.0,1.0,46,225.99
1255,D5,238.0,1.0,46,225.99
1256,C3,238.0,1.0,37,225.99
1257,A3,238.0,1.0,37,225.99
1258,C4,238.0,1.0,37,225.99
1259,B-4,239.0,0.25,42,225.99
1260,E5,239.0,0.25,42,225.99
1261,C3,239.0,0.25,36,225.99
1262,G3,239.0,0.25,36,225.99
1263,C4,239.0,0.25,36,225.99
1264,B-4,239.5,0.25,42,225.99
1265,E5,239.5,0.25,42,225.99
1266,C3,239.5,0.25,36,225.99
1267,G3,239.5,0.25,36,225.99
1268,C4,239.5,0.25,36,225.99
1269,B-4,240.0,1.0,46,225.99
1270,E5,240.0,1.0,46,225.99
1271,C3,240.0,1.0,37,225.99
1272,G3,240.0,1.0,37,225.99
1273,C4,240.0,1.0,37,225.99
1274,A4,241.0,0.25,42,225.99
1275,F5,241.0,0.25,42,225.99
1276,C3,241.0,0.25,35,225.99
1277,F3,241.0,0.25,35,225.99
1278,C4,241.0,0.25,35,225.99
1279,A4,241.5,0.25,42,225.99
1280,F5,241.5,0.25,42,225.99
1281,C3,241.5,0.25,35,225.99
1282,F3,241.5,0.25,35,225.99
1283,C4,241.5,0.25,35,225.99
1284,A4,242.0,1.0,46,225.99
1285,C5,242.0,1.0,46,225.99
1286,C3,242.0,1.0,37,225.99
1287,D3,242.0,1.0,37,225.99
1288,C4,242.0,1.0,37,225.99
1289,G4,243.0,0.25,42,225.99
1290,B-4,243.0,0.25,42,225.99
1291,E3,243.0,0.25,35,225.99
1292,C3,243.0,0.25,35,225.99
1293,C4,243.0,0.25,35,225.99
1294,G4,243.5,0.25,42,225.99
1295,B-4,243.5,0.25,42,225.99
1296,E3,243.5,0.25,35,225.99
1297,C3,243.5,0.25,35,225.99
1298,C4,243.5,0.25,35,225.99
1299,A4,244.0,31/125,83,225.99
1300,C5,244.0,31/125,83,225.99
1301,A5,244.0,31/125,83,225.99
1302,F2,244.0,31/125,72,225.99
1303,F3,244.0,31/125,72,225.99
1304,A4,245.0,31/125,83,225.99
1305,C5,245.0,31/125,83,225.99
1306,F5,245.0,31/125,83,225.99
1307,F3,245.0,31/125,72,225.99
1308,C4,245.0,31/125,72,225.99
1309,C5,246.0,1.0,48,225.99
1310,C3,246.0,1.0,37,225.99
1311,A3,246.0,1.0,37,225.99
1312,C4,246.0,1.0,37,225.99
1313,C5,247.0,0.25,42,225.99
1314,D5,247.0,0.25,42,225.99
1315,C3,247.0,0.25,36,225.99
1316,A3,247.0,0.25,36,225.99
1317,C4,247.0,0.25,36,225.99
1318,C5,247.5,0.25,42,225.99
1319,D5,247.5,0.25,42,225.99
1320,C3,247.5,0.25,36,225.99
1321,A3,247.5,0.25,36,225.99
1322,C4,247.5,0.25,36,225.99
1323,B-4,248.0,1.0,46,225.99
1324,E5,248.0,1.0,46,225.99
1325,C3,248.0,1.0,37,225.99
1326,G3,248.0,1.0,37,225.99
1327,C4,248.0,1.0,37,225.99
1328,A4,249.0,0.25,42,225.99
1329,F5,249.0,0.25,42,225.99
1330,C3,249.0,0.25,35,225.99
1331,F3,249.0,0.25,35,225.99
1332,C4,249.0,0.25,35,225.99
1333,A4,249.5,0.25,42,225.99
1334,F5,249.5,0.25,42,225.99
1335,C3,249.5,0.25,35,225.99
1336,F3,249.5,0.25,35,225.99
1337,C4,249.5,0.25,35,225.99
1338,A4,250.0,1.0,46,225.99
1339,C5,250.0,1.0,46,225.99
1340,C3,250.0,1.0,37,225.99
1341,D3,250.0,1.0,37,225.99
1342,C4,250.0,1.0,37,225.99
1343,G4,251.0,0.25,42,225.99
1344,B-4,251.0,0.25,42,225.99
1345,E3,251.0,0.25,35,225.99
1346,C3,251.0,0.25,35,225.99
1347,C4,251.0,0.25,35,225.99
1348,G4,251.5,0.25,42,225.99
1349,B-4,251.5,0.25,42,225.99
1350,E3,251.5,0.25,35,225.99
1351,C3,251.5,0.25,35,225.99
1352,C4,251.5,0.25,35,225.99
1353,A4,252.0,31/125,87,225.99
1354,C5,252.0,31/125,87,225.99
1355,A5,252.0,31/125,87,225.99
1356,F2,252.0,31/125,75,225.99
1357,F3,252.0,31/125,75,225.99
1358,A4,253.0,31/125,88,225.99
1359,C5,253.0,31/125,88,225.99
1360,F5,253.0,31/125,88,225.99
1361,F3,253.0,31/125,75,225.99
1362,C4,253.0,31/125,75,225.99
1363,A4,254.0,1.0,46,225.99
1364,C5,254.0,1.0,46,225.99
1365,C3,254.0,1.0,37,225.99
1366,D3,254.0,1.0,37,225.99
1367,C4,254.0,1.0,37,225.99
1368,G4,255.0,0.25,42,225.99
1369,B-4,255.0,0.25,42,225.99
1370,E3,255.0,0.25,35,225.99
1371,C3,255.0,0.25,35,225.99
1372,C4,255.0,0.25,35,225.99
1373,G4,255.5,0.25,42,225.99
1374,B-4,255.5,0.25,42,225.99
1375,E3,255.5,0.25,35,225.99
1376,C3,255.5,0.25,35,225.99
1377,C4,255.5,0.25,35,225.99
1378,A4,256.0,31/125,90,225.99
1379,C5,256.0,31/125,90,225.99
1380,A5,256.0,31/125,90,225.99
1381,F2,256.0,31/125,78,225.99
1382,F3,256.0,31/125,78,225.99
1383,A4,257.0,31/125,90,225.99
1384,C5,257.0,31/125,90,225.99
1385,F5,257.0,31/125,90,225.99
1386,F3,257.0,31/125,78,225.99
1387,C4,257.0,31/125,78,225.99
1388,A4,258.0,1.0,46,225.99
1389,C5,258.0,1.0,46,225.99
1390,C3,258.0,1.0,37,225.99
1391,D3,258.0,1.0,37,225.99
1392,C4,258.0,1.0,37,225.99
1393,G4,259.0,0.25,42,225.99
1394,B-4,259.0,0.25,42,225.99
1395,E3,259.0,0.25,35,225.99
1396,C3,259.0,0.25,35,225.99
1397,C4,259.0,0.25,35,225.99
1398,G4,259.5,0.25,42,225.99
1399,B-4,259.5,0.25,42,225.99
1400,E3,259.5,0.25,35,225.99
1401,C3,259.5,0.25,35,225.99
1402,C4,259.5,0.25,35,225.99
1403,F5,260.0,9/10,92,225.99
1404,A5,260.0,9/10,92,225.99
1405,C6,260.0,9/10,92,225.99
1406,F6,260.0,9/10,92,225.99
1407,F2,260.0,9/10,80,225.99
1408,F3,260.0,9/10,80,225.99
1409,F3,261.0,1.0,75,225.99
1410,F4,261.0,1.0,99,225.99
1411,F5,261.0,1.0,99,225.99
1412,B-4,264.0,1.0,46,225.99
1413,C5,264.0,1.0,46,225.99
1414,B-3,264.0,1.0,38,225.99
1415,C4,264.0,1.0,38,225.99
1416,G4,265.0,0.25,42,225.99
1417,C5,265.0,0.25,42,225.99
1418,G3,265.0,0.25,37,225.99
1419,C4,265.0,0.25,37,225.99
1420,G4,265.5,0.25,42,225.99
1421,C5,265.5,0.25,42,225.99
1422,G3,265.5,0.25,37,225.99
1423,C4,265.5,0.25,37,225.99
1424,G#4,266.0,1.0,46,225.99
1425,C5,266.0,1.0,46,225.99
1426,G#3,266.0,1.0,38,225.99
1427,C4,266.0,1.0,38,225.99
1428,F4,267.0,0.25,42,225.99
1429,C5,267.0,0.25,42,225.99
1430,F3,267.0,0.25,36,225.99
1431,C4,267.0,0.25,36,225.99
1432,F4,267.5,0.25,42,225.99
1433,C5,267.5,0.25,42,225.99
1434,F3,267.5,0.25,36,225.99
1435,C4,267.5,0.25,36,225.99
1436,F#4,268.0,1.0,46,225.99
1437,G#4,268.0,1.0,46,225.99
1438,F#3,268.0,1.0,38,225.99
1439,G#3,268.0,1.0,38,225.99
1440,C4,269.0,0.25,42,225.99
1441,G#4,269.0,0.25,42,225.99
1442,C3,269.0,0.25,36,225.99
1443,G#3,269.0,0.25,36,225.99
1444,C4,269.5,0.25,42,225.99
1445,G#4,269.5,0.25,42,225.99
1446,C3,269.5,0.25,36,225.99
1447,G#3,269.5,0.25,36,225.99
1448,F4,270.0,31/125,83,225.99
1449,G#4,270.0,31/125,83,225.99
1450,F5,270.0,31/125,83,225.99
1451,C#2,270.0,31/125,72,225.99
1452,C#3,270.0,31/125,72,225.99
1453,F4,270.983,31/125,83,225.99
1454,G#4,270.983,31/125,83,225.99
1455,C#5,270.983,31/125,83,225.99
1456,C#3,270.983,31/125,72,225.99
1457,G#3,270.983,31/125,72,225.99
1458,F#4,272.0,1.0,46,225.99
1459,G#4,272.0,1.0,46,225.99
1460,F#3,272.0,1.0,38,225.99
1461,G#3,272.0,1.0,38,225.99
1462,C4,273.0,0.25,42,225.99
1463,G#4,273.0,0.25,42,225.99
1464,C3,273.0,0.25,36,225.99
1465,G#3,273.0,0.25,36,225.99
1466,C4,273.5,0.25,42,225.99
1467,G#4,273.5,0.25,42,225.99
1468,C3,273.5,0.25,36,225.99
1469,G#3,273.5,0.25,36,225.99
1470,F4,274.0,31/125,83,225.99
1471,G#4,274.0,31/125,83,225.99
1472,F5,274.0,31/125,83,225.99
1473,C#2,274.0,31/125,71,225.99
1474,C#3,274.0,31/125,71,225.99
1475,F4,274.983,31/125,83,225.99
1476,G#4,274.983,31/125,83,225.99
1477,C#5,274.983,31/125,83,225.99
1478,C#3,274.983,31/125,71,225.99
1479,G#3,274.983,31/125,71,225.99
1480,E-5,276.0,1.0,46,225.99
1481,F5,276.0,1.0,46,225.99
1482,E-4,276.0,1.0,38,225.99
1483,F4,276.0,1.0,38,225.99
1484,C5,277.0,0.25,42,225.99
1485,F5,277.0,0.25,42,225.99
1486,C4,277.0,0.25,37,225.99
1487,F4,277.0,0.25,37,225.99
1488,C5,277.5,0.25,42,225.99
1489,F5,277.5,0.25,42,225.99
1490,C4,277.5,0.25,37,225.99
1491,F4,277.5,0.25,37,225.99
1492,C#5,278.0,1.0,46,225.99
1493,F5,278.0,1.0,46,225.99
1494,C#4,278.0,1.0,38,225.99
1495,F4,278.0,1.0,38,225.99
1496,B-4,279.0,0.25,42,225.99
1497,F5,279.0,0.25,42,225.99
1498,B-3,279.0,0.25,36,225.99
1499,F4,279.0,0.25,36,225.99
1500,B-4,279.5,0.25,42,225.99
1501,F5,279.5,0.25,42,225.99
1502,B-3,279.5,0.25,36,225.99
1503,F4,279.5,0.25,36,225.99
1504,B4,280.0,1.0,46,225.99
1505,C#5,280.0,1.0,46,225.99
1506,B3,280.0,1.0,38,225.99
1507,C#4,280.0,1.0,38,225.99
1508,F4,281.0,0.25,42,225.99
1509,C#5,281.0,0.25,42,225.99
1510,F3,281.0,0.25,36,225.99
1511,C#4,281.0,0.25,36,225.99
1512,F4,281.5,0.25,42,225.99
1513,C#5,281.5,0.25,42,225.99
1514,F3,281.5,0.25,36,225.99
1515,C#4,281.5,0.25,36,225.99
1516,B-4,282.0,31/125,88,225.99
1517,C#5,282.0,31/125,88,225.99
1518,B-5,282.0,31/125,88,225.99
1519,F#2,282.0,31/125,76,225.99
1520,F#3,282.0,31/125,76,225.99
1521,B-4,282.983,31/125,87,225.99
1522,C#5,282.983,31/125,87,225.99
1523,F#5,282.983,31/125,87,225.99
1524,F#3,282.983,31/125,76,225.99
1525,C#4,282.983,31/125,76,225.99
1526,B4,284.0,1.0,46,225.99
1527,C#5,284.0,1.0,46,225.99
1528,B3,284.0,1.0,38,225.99
1529,C#4,284.0,1.0,38,225.99
1530,F4,285.0,0.25,42,225.99
1531,C#5,285.0,0.25,42,225.99
1532,F3,285.0,0.25,36,225.99
1533,C#4,285.0,0.25,36,225.99
1534,F4,285.5,0.25,42,225.99
1535,C#5,285.5,0.25,42,225.99
1536,F3,285.5,0.25,36,225.99
1537,C#4,285.5,0.25,36,225.99
1538,B-4,286.0,31/125,88,225.99
1539,C#5,286.0,31/125,88,225.99
1540,B-5,286.0,31/125,88,225.99
1541,F#2,286.0,31/125,74,225.99
1542,F#3,286.0,31/125,74,225.99
1543,B-4,286.983,31/125,88,225.99
1544,C#5,286.983,31/125,88,225.99
1545,F#5,286.983,31/125,88,225.99
1546,F#3,286.983,31/125,74,225.99
1547,C#4,286.983,31/125,74,225.99
1548,B-5,288.0,0.25,46,225.99
1549,C#3,288.0,0.25,44,225.99
1550,B-4,288.5,0.25,40,225.99
1551,F#3,289.0,0.25,38,225.99
1552,F#5,289.0,0.25,38,225.99
1553,C#5,289.0,0.25,38,225.99
1554,B-4,289.5,0.25,40,225.99
1555,F#5,290.0,0.25,44,225.99
1556,F#3,290.0,0.25,40,225.99
1557,F#4,290.5,0.25,39,225.99
1558,B3,291.0,0.25,37,225.99
1559,B4,291.0,0.25,36,225.99
1560,D5,291.0,0.25,36,225.99
1561,F#4,291.5,0.25,38,225.99
1562,E5,292.0,0.25,41,225.99
1563,F#2,292.0,0.25,39,225.99
1564,G4,292.5,0.25,36,225.99
1565,F#3,293.0,0.25,36,225.99
1566,B-4,293.0,0.25,34,225.99
1567,C#5,293.0,0.25,34,225.99
1568,G4,293.5,0.25,36,225.99
1569,C#5,294.0,0.25,36,225.99
1570,B4,294.0,0.25,36,225.99
1571,F#2,294.0,0.25,36,225.99
1572,F#3,294.0,0.25,36,225.99
1573,F#4,294.5,0.25,32,225.99
1574,B4,295.0,0.25,30,225.99
1575,D5,295.0,0.25,30,225.99
1576,B2,295.0,0.25,30,225.99
1577,F#3,295.0,0.25,30,225.99
1578,F#4,295.5,0.25,32,225.99
1579,G5,296.0,0.25,40,225.99
1580,F#3,296.0,0.25,40,225.99
1581,B-4,296.5,0.25,36,225.99
1582,G4,297.0,0.25,36,225.99
1583,C#5,297.0,0.25,34,225.99
1584,E5,297.0,0.25,34,225.99
1585,B-4,297.5,0.25,36,225.99
1586,C#5,298.0,0.25,37,225.99
1587,F#5,298.0,0.25,37,225.99
1588,F#3,298.0,0.25,37,225.99
1589,F#4,298.0,0.25,37,225.99
1590,B-4,298.5,0.25,32,225.99
1591,D5,299.0,0.25,30,225.99
1592,F#5,299.0,0.25,30,225.99
1593,B3,299.0,0.25,30,225.99
1594,F#4,299.0,0.25,30,225.99
1595,B4,299.5,0.25,32,225.99
1596,B5,300.0,0.25,46,225.99
1597,D3,300.0,0.25,45,225.99
1598,B4,300.5,0.25,40,225.99
1599,G3,301.0,0.25,40,225.99
1600,D5,301.0,0.25,38,225.99
1601,G5,301.0,0.25,38,225.99
1602,B4,301.5,0.25,40,225.99
1603,G5,302.0,0.25,44,225.99
1604,G3,302.0,0.25,41,225.99
1605,G4,302.5,0.25,33,225.99
1606,C4,303.0,0.25,39,225.99
1607,C5,303.0,0.25,36,225.99
1608,E-5,303.0,0.25,36,225.99
1609,G4,303.5,0.25,38,225.99
1610,F5,304.0,0.25,41,225.99
1611,G2,304.0,0.25,40,225.99
1612,G#4,304.5,0.25,37,225.99
1613,G3,305.0,0.25,36,225.99
1614,B4,305.0,0.25,35,225.99
1615,D5,305.0,0.25,35,225.99
1616,G#4,305.5,0.25,37,225.99
1617,D5,306.0,0.25,38,225.99
1618,C5,306.0,0.25,38,225.99
1619,G2,306.0,0.25,36,225.99
1620,G3,306.0,0.25,36,225.99
1621,G4,306.5,0.25,33,225.99
1622,C5,307.0,0.25,31,225.99
1623,E-5,307.0,0.25,31,225.99
1624,C3,307.0,0.25,31,225.99
1625,G3,307.0,0.25,31,225.99
1626,G4,307.5,0.25,33,225.99
1627,G#5,308.0,0.25,44,225.99
1628,G3,308.0,0.25,41,225.99
1629,B4,308.5,0.25,37,225.99
1630,G#4,309.0,0.25,38,225.99
1631,D5,309.0,0.25,35,225.99
1632,F5,309.0,0.25,35,225.99
1633,B4,309.5,0.25,35,225.99
1634,D5,310.0,0.25,38,225.99
1635,G5,310.0,0.25,38,225.99
1636,G3,310.0,0.25,38,225.99
1637,G4,310.0,0.25,38,225.99
1638,B4,310.5,0.25,36,225.99
1639,E-5,311.0,0.25,34,225.99
1640,G5,311.0,0.25,34,225.99
1641,C4,311.0,0.25,34,225.99
1642,G4,311.0,0.25,34,225.99
1643,C5,311.5,0.25,36,225.99
1644,B-4,312.0,0.25,45,225.99
1645,G4,312.0,0.25,45,225.99
1646,E-5,312.5,0.25,41,225.99
1647,D5,313.0,0.25,41,225.99
1648,E-4,313.0,0.25,41,225.99
1649,E-5,313.5,0.25,41,225.99
1650,E-5,314.0,0.25,48,225.99
1651,E-4,314.0,0.25,47,225.99
1652,G#5,314.5,0.25,45,225.99
1653,G5,315.0,0.25,45,225.99
1654,B3,315.0,0.25,42,225.99
1655,E-4,315.0,0.25,42,225.99
1656,G#5,315.5,0.25,45,225.99
1657,E-6,316.0,0.25,54,225.99
1658,C#4,316.0,0.25,46,225.99
1659,E-4,316.0,0.25,46,225.99
1660,E-5,316.5,0.25,45,225.99
1661,G5,317.0,0.25,45,225.99
1662,B-3,317.0,0.25,42,225.99
1663,E-4,317.0,0.25,42,225.99
1664,E-5,317.5,0.25,45,225.99
1665,E-5,318.0,0.25,50,225.99
1666,B-3,318.0,0.25,46,225.99
1667,E-4,318.0,0.25,46,225.99
1668,G#5,318.5,0.25,41,225.99
1669,G5,319.0,0.25,41,225.99
1670,B3,319.0,0.25,38,225.99
1671,E-4,319.0,0.25,38,225.99
1672,G#5,319.5,0.25,41,225.99
1673,F#5,320.0,0.25,48,225.99
1674,E4,320.0,0.25,45,225.99
1675,F#4,320.5,0.25,42,225.99
1676,B-4,321.0,0.25,42,225.99
1677,C#4,321.0,0.25,41,225.99
1678,F#4,321.5,0.25,42,225.99
1679,F#4,322.0,0.25,47,225.99
1680,C#4,322.0,0.25,45,225.99
1681,B4,322.5,0.25,43,225.99
1682,B-4,323.0,0.25,43,225.99
1683,E-4,323.0,0.25,41,225.99
1684,B4,323.5,0.25,44,225.99
1685,B4,324.0,0.25,51,225.99
1686,G#4,324.0,0.25,48,225.99
1687,E5,324.5,0.25,47,225.99
1688,E-5,325.0,0.25,47,225.99
1689,E4,325.0,0.25,45,225.99
1690,E5,325.5,0.25,48,225.99
1691,E5,326.0,0.25,59,225.99
1692,E4,326.0,0.25,54,225.99
1693,A5,326.5,0.25,54,225.99
1694,G#5,327.0,0.25,54,225.99
1695,C4,327.0,0.25,46,225.99
1696,E4,327.0,0.25,46,225.99
1697,A5,327.5,0.25,54,225.99
1698,E6,328.0,0.25,71,225.99
1699,D4,328.0,0.25,56,225.99
1700,E4,328.0,0.25,56,225.99
1701,E5,328.5,0.25,60,225.99
1702,G#5,329.0,0.25,61,225.99
1703,B3,329.0,0.25,51,225.99
1704,E4,329.0,0.25,51,225.99
1705,E5,329.5,0.25,61,225.99
1706,E5,330.0,0.25,65,225.99
1707,B3,330.0,0.25,55,225.99
1708,E4,330.0,0.25,55,225.99
1709,A5,330.5,0.25,60,225.99
1710,G#5,331.0,0.25,60,225.99
1711,C4,331.0,0.25,51,225.99
1712,E4,331.0,0.25,51,225.99
1713,A5,331.5,0.25,60,225.99
1714,G5,332.0,0.25,69,225.99
1715,F4,332.0,0.25,59,225.99
1716,G4,332.5,0.25,62,225.99
1717,B4,333.0,0.25,62,225.99
1718,D4,333.0,0.25,50,225.99
1719,G4,333.5,0.25,62,225.99
1720,G4,334.0,0.25,67,225.99
1721,D4,334.0,0.25,58,225.99
1722,C5,334.5,0.25,58,225.99
1723,B4,335.0,0.25,58,225.99
1724,E4,335.0,123/500,50,225.99
1725,C5,335.5,6/25,58,225.99
1726,C#5,336.0,1.0,81,225.99
1727,C#4,336.0,1.0,68,225.99
1728,C5,337.0,0.375,73,225.99
1729,C#5,337.0,0.375,73,225.99
1730,C4,337.0,0.375,62,225.99
1731,C#4,337.0,0.375,62,225.99
1732,B-4,337.5,0.375,73,225.99
1733,C#5,337.5,0.375,73,225.99
1734,B-3,337.5,0.375,65,225.99
1735,C#4,337.5,0.375,65,225.99
1736,B-4,338.0,1.0,76,225.99
1737,C#5,338.0,1.0,76,225.99
1738,B-3,338.0,1.0,64,225.99
1739,C#4,338.0,1.0,64,225.99
1740,G#4,339.0,0.375,74,225.99
1741,C#5,339.0,0.375,74,225.99
1742,G#3,339.0,0.375,62,225.99
1743,C#4,339.0,0.375,62,225.99
1744,G4,339.5,0.375,74,225.99
1745,C#5,339.5,0.375,74,225.99
1746,G3,339.5,0.375,62,225.99
1747,C#4,339.5,0.375,62,225.99
1748,G4,340.0,1.0,75,225.99
1749,B-4,340.0,1.0,75,225.99
1750,C#5,340.0,1.0,75,225.99
1751,G3,340.0,1.0,64,225.99
1752,C#4,340.0,1.0,64,225.99
1753,F4,341.0,0.375,72,225.99
1754,G#4,341.0,0.375,72,225.99
1755,C#5,341.0,0.375,72,225.99
1756,F3,341.0,0.375,62,225.99
1757,C#4,341.0,0.375,62,225.99
1758,E4,341.5,9/25,72,225.99
1759,G4,341.5,9/25,72,225.99
1760,C#5,341.5,9/25,72,225.99
1761,E3,341.5,9/25,62,225.99
1762,C#4,341.5,9/25,62,225.99
1763,C6,342.0,1.0,90,225.99
1764,B-5,342.0,1.0,90,225.99
1765,G5,342.0,1.0,90,225.99
1766,C2,342.0,1.0,82,225.99
1767,C3,342.0,1.0,82,225.99
1768,C3,343.0,0.375,79,225.99
1769,F5,343.0,0.375,82,225.99
1770,G#5,343.0,0.375,82,225.99
1771,C6,343.0,0.375,82,225.99
1772,C3,343.5,9/25,79,225.99
1773,E5,343.5,9/25,84,225.99
1774,G5,343.5,9/25,84,225.99
1775,C6,343.5,9/25,84,225.99
1776,C#5,344.0,1.0,81,225.99
1777,C#4,344.0,1.0,68,225.99
1778,C5,345.0,0.375,73,225.99
1779,C#5,345.0,0.375,73,225.99
1780,C4,345.0,0.375,62,225.99
1781,C#4,345.0,0.375,62,225.99
1782,B-4,345.5,0.375,73,225.99
1783,C#5,345.5,0.375,73,225.99
1784,B-3,345.5,0.375,62,225.99
1785,C#4,345.5,0.375,62,225.99
1786,B-4,346.0,1.0,76,225.99
1787,C#5,346.0,1.0,76,225.99
1788,B-3,346.0,1.0,64,225.99
1789,C#4,346.0,1.0,64,225.99
1790,G#4,347.0,0.375,74,225.99
1791,C#5,347.0,0.375,74,225.99
1792,G#3,347.0,0.375,62,225.99
1793,C#4,347.0,0.375,62,225.99
1794,G4,347.5,0.375,74,225.99
1795,C#5,347.5,0.375,74,225.99
1796,G3,347.5,0.375,62,225.99
1797,C#4,347.5,0.375,62,225.99
1798,G4,348.0,1.0,75,225.99
1799,B-4,348.0,1.0,75,225.99
1800,C#5,348.0,1.0,75,225.99
1801,G3,348.0,1.0,64,225.99
1802,C#4,348.0,1.0,64,225.99
1803,F4,349.0,0.375,72,225.99
1804,G#4,349.0,0.375,72,225.99
1805,C#5,349.0,0.375,72,225.99
1806,F3,349.0,0.375,62,225.99
1807,C#4,349.0,0.375,62,225.99
1808,E4,349.5,9/25,72,225.99
1809,G4,349.5,9/25,72,225.99
1810,C#5,349.5,9/25,72,225.99
1811,E3,349.5,9/25,62,225.99
1812,C#4,349.5,9/25,62,225.99
1813,C6,350.0,1.0,95,225.99
1814,B-5,350.0,1.0,95,225.99
1815,G5,350.0,1.0,95,225.99
1816,C2,350.0,1.0,80,225.99
1817,C3,350.0,1.0,80,225.99
1818,C3,351.0,0.375,79,225.99
1819,F5,351.0,0.375,85,225.99
1820,G#5,351.0,0.375,85,225.99
1821,C6,351.0,0.375,85,225.99
1822,C3,351.5,9/25,79,225.99
1823,E5,351.5,9/25,85,225.99
1824,G5,351.5,9/25,85,225.99
1825,C6,351.5,9/25,85,225.99
1826,G4,352.0,1.0,52,225.99
1827,B-4,352.0,1.0,52,225.99
1828,C#5,352.0,1.0,52,225.99
1829,G3,352.0,1.0,42,225.99
1830,C#4,352.0,1.0,42,225.99
1831,F4,353.0,0.375,46,225.99
1832,G#4,353.0,0.375,46,225.99
1833,C#5,353.0,0.375,46,225.99
1834,F3,353.0,0.375,38,225.99
1835,C#4,353.0,0.375,38,225.99
1836,E4,353.5,9/25,46,225.99
1837,G4,353.5,9/25,46,225.99
1838,C#5,353.5,9/25,46,225.99
1839,E3,353.5,9/25,38,225.99
1840,C#4,353.5,9/25,38,225.99
1841,C6,354.0,1.0,93,225.99
1842,B-5,354.0,1.0,93,225.99
1843,G5,354.0,1.0,93,225.99
1844,C2,354.0,1.0,80,225.99
1845,C3,354.0,1.0,80,225.99
1846,C3,355.0,0.375,79,225.99
1847,F5,355.0,0.375,85,225.99
1848,G#5,355.0,0.375,85,225.99
1849,C6,355.0,0.375,85,225.99
1850,C3,355.5,9/25,79,225.99
1851,E5,355.5,9/25,85,225.99
1852,G5,355.5,9/25,85,225.99
1853,C6,355.5,9/25,85,225.99
1854,C4,356.0,0.5,48,225.99
1855,C3,356.0,0.5,40,225.99
1856,C#4,357.0,0.25,45,225.99
1857,C#3,357.0,0.25,38,225.99
1858,C4,357.5,0.25,45,225.99
1859,C3,357.5,0.25,38,225.99
1860,C#4,358.0,0.5,48,225.99
1861,C#3,358.0,0.5,40,225.99
1862,C4,359.0,0.25,45,225.99
1863,C3,359.0,0.25,38,225.99
1864,D4,359.5,0.25,45,225.99
1865,D3,359.5,0.25,38,225.99
1866,E4,360.0,0.5,48,225.99
1867,E3,360.0,0.5,40,225.99
1868,F4,361.0,0.25,45,225.99
1869,F3,361.0,0.25,38,225.99
1870,E4,361.5,0.25,45,225.99
1871,E3,361.5,0.25,38,225.99
1872,F4,362.0,0.5,48,225.99
1873,F3,362.0,0.5,39,225.99
1874,E4,363.0,0.25,50,225.99
1875,E3,363.0,0.25,42,225.99
1876,F#4,363.5,0.25,52,225.99
1877,F#3,363.5,0.25,44,225.99
1878,G4,364.0,1.0,54,225.99
1879,G3,364.0,1.0,45,225.99
1880,G#4,365.0,0.5,56,225.99
1881,G#3,365.0,0.5,47,225.99
1882,G4,365.5,0.5,58,225.99
1883,G3,365.5,0.5,49,225.99
1884,B-4,366.0,1.0,60,225.99
1885,B-3,366.0,1.0,51,225.99
1886,G#4,367.0,0.5,63,225.99
1887,G#3,367.0,0.5,54,225.99
1888,C#5,367.5,0.5,64,225.99
1889,C#4,367.5,0.5,55,225.99
1890,C5,368.0,1.0,66,225.99
1891,C4,368.0,1.0,56,225.99
1892,D5,369.0,0.5,70,225.99
1893,D4,369.0,0.5,60,225.99
1894,E-5,369.5,0.5,72,225.99
1895,E-4,369.5,0.5,61,225.99
1896,E5,370.0,1.0,72,225.99
1897,E4,370.0,1.0,62,225.99
1898,F5,371.0,0.5,76,225.99
1899,F4,371.0,0.5,65,225.99
1900,G5,371.5,0.5,78,225.99
1901,G4,371.5,0.5,67,225.99
1902,C5,372.0,1.0,75,225.99
1903,G#4,372.0,1.0,75,225.99
1904,G#5,372.0,1.0,75,225.99
1905,F2,372.0,1.0,64,225.99
1906,F3,372.0,1.0,64,225.99
1907,F3,373.0,0.25,66,225.99
1908,G5,373.0,0.25,72,225.99
1909,C5,373.0,0.25,72,225.99
1910,G#4,373.0,0.25,72,225.99
1911,F3,373.5,0.25,66,225.99
1912,F5,373.5,0.25,72,225.99
1913,C5,373.5,0.25,72,225.99
1914,G#4,373.5,0.25,72,225.99
1915,F5,374.0,1.0,75,225.99
1916,C5,374.0,1.0,75,225.99
1917,G#4,374.0,1.0,75,225.99
1918,F2,374.0,1.0,64,225.99
1919,F3,374.0,1.0,64,225.99
1920,F3,375.0,0.25,66,225.99
1921,G#4,375.0,0.25,74,225.99
1922,C5,375.0,0.25,74,225.99
1923,F3,375.5,0.25,65,225.99
1924,G#4,375.5,0.25,74,225.99
1925,C5,375.5,0.25,74,225.99
1926,F5,376.0,1.0,75,225.99
1927,C#5,376.0,1.0,75,225.99
1928,B-4,376.0,1.0,75,225.99
1929,F2,376.0,1.0,64,225.99
1930,F3,376.0,1.0,64,225.99
1931,F3,377.0,0.25,66,225.99
1932,B-4,377.0,0.25,73,225.99
1933,C#5,377.0,0.25,73,225.99
1934,F3,377.5,0.5,66,225.99
1935,B-4,377.5,0.5,72,225.99
1936,C#5,377.5,0.5,72,225.99
1937,F5,378.0,979/1000,75,225.99
1938,C5,378.0,979/1000,75,225.99
1939,G#4,378.0,979/1000,75,225.99
1940,F2,378.0,979/1000,64,225.99
1941,F3,378.0,979/1000,64,225.99
1942,F3,379.0,0.25,45,225.99
1943,G#4,379.0,0.25,52,225.99
1944,C5,379.0,0.25,52,225.99
1945,F3,379.5,0.25,45,225.99
1946,G#4,379.5,0.25,52,225.99
1947,C5,379.5,0.25,52,225.99
1948,G#4,380.0,1.0,46,225.99
1949,C5,380.0,1.0,46,225.99
1950,F1,380.0,1.0,38,225.99
1951,F2,380.0,1.0,38,225.99
1952,F2,381.0,0.25,38,225.99
1953,G4,381.0,0.25,45,225.99
1954,G#4,381.0,0.25,45,225.99
1955,C5,381.0,0.25,45,225.99
1956,F2,381.5,0.25,38,225.99
1957,F4,381.5,0.25,42,225.99
1958,G#4,381.5,0.25,42,225.99
1959,C5,381.5,0.25,42,225.99
1960,F4,382.0,1.0,42,225.99
1961,G#4,382.0,1.0,42,225.99
1962,C5,382.0,1.0,42,225.99
1963,F1,382.0,1.0,38,225.99
1964,F2,382.0,1.0,38,225.99
1965,F2,383.0,0.25,38,225.99
1966,C4,383.0,0.25,45,225.99
1967,G#4,383.0,0.25,45,225.99
1968,C5,383.0,0.25,45,225.99
1969,F2,383.5,0.25,38,225.99
1970,C4,383.5,0.25,42,225.99
1971,G#4,383.5,0.25,42,225.99
1972,C5,383.5,0.25,42,225.99
1973,C#5,384.0,1.0,42,225.99
1974,B-4,384.0,1.0,42,225.99
1975,F4,384.0,1.0,42,225.99
1976,F1,384.0,1.0,38,225.99
1977,F2,384.0,1.0,38,225.99
1978,F2,385.0,0.25,38,225.99
1979,C#4,385.0,0.25,45,225.99
1980,B-4,385.0,0.25,45,225.99
1981,C#5,385.0,0.25,45,225.99
1982,F2,385.5,0.25,38,225.99
1983,C#4,385.5,0.25,42,225.99
1984,B-4,385.5,0.25,42,225.99
1985,C#5,385.5,0.25,42,225.99
1986,F4,386.0,1.0,42,225.99
1987,G#4,386.0,1.0,42,225.99
1988,C5,386.0,1.0,42,225.99
1989,F1,386.0,1.0,38,225.99
1990,F2,386.0,1.0,38,225.99
1991,F2,387.0,0.25,38,225.99
1992,C4,387.0,0.25,42,225.99
1993,G#4,387.0,0.25,42,225.99
1994,C5,387.0,0.25,42,225.99
1995,F2,387.5,0.25,38,225.99
1996,C4,387.5,0.25,42,225.99
1997,G#4,387.5,0.25,42,225.99
1998,C5,387.5,0.25,42,225.99
1999,B-3,388.0,1.0,47,225.99
2000,E5,388.0,1.0,51,225.99
2001,C#5,388.0,1.0,51,225.99
2002,B-4,388.0,1.0,51,225.99
2003,G3,389.0,0.25,44,225.99
2004,E5,389.0,0.25,48,225.99
2005,C#5,389.0,0.25,48,225.99
2006,G4,389.0,0.25,48,225.99
2007,G3,389.5,0.25,44,225.99
2008,E5,389.5,0.25,48,225.99
2009,C#5,389.5,0.25,48,225.99
2010,G4,389.5,0.25,48,225.99
2011,G#3,390.0,1.0,53,225.99
2012,G#4,390.0,1.0,56,225.99
2013,C5,390.0,1.0,56,225.99
2014,F5,390.0,1.0,56,225.99
2015,F3,391.0,0.25,51,225.99
2016,F4,391.0,0.25,54,225.99
2017,C5,391.0,0.25,54,225.99
2018,F5,391.0,0.25,54,225.99
2019,F3,391.5,0.25,51,225.99
2020,F4,391.5,0.25,54,225.99
2021,C5,391.5,0.25,54,225.99
2022,F5,391.5,0.25,54,225.99
2023,E3,392.0,1.0,57,225.99
2024,G4,392.0,1.0,62,225.99
2025,G5,392.0,1.0,62,225.99
2026,C5,392.0,1.0,62,225.99
2027,C3,393.0,0.25,50,225.99
2028,E5,393.0,0.25,56,225.99
2029,C5,393.0,0.25,56,225.99
2030,G4,393.0,0.25,56,225.99
2031,C3,393.5,0.25,51,225.99
2032,E5,393.5,0.25,56,225.99
2033,C5,393.5,0.25,56,225.99
2034,G4,393.5,0.25,56,225.99
2035,F3,394.0,1.0,63,225.99
2036,G#4,394.0,1.0,68,225.99
2037,C5,394.0,1.0,68,225.99
2038,G#5,394.0,1.0,68,225.99
2039,C3,395.0,0.25,56,225.99
2040,G#4,395.0,0.25,63,225.99
2041,C5,395.0,0.25,63,225.99
2042,F5,395.0,0.25,63,225.99
2043,C3,395.5,0.25,56,225.99
2044,G#4,395.5,0.25,63,225.99
2045,C5,395.5,0.25,63,225.99
2046,F5,395.5,0.25,63,225.99
2047,G3,396.0,1.0,72,225.99
2048,B-5,396.0,1.0,80,225.99
2049,C5,396.0,1.0,80,225.99
2050,C3,397.0,0.25,65,225.99
2051,C6,397.0,0.25,73,225.99
2052,C5,397.0,0.25,73,225.99
2053,C3,397.5,0.25,65,225.99
2054,C6,397.5,0.25,73,225.99
2055,C5,397.5,0.25,73,225.99
2056,G#3,398.0,1.0,76,225.99
2057,B5,398.0,1.0,84,225.99
2058,C5,398.0,1.0,84,225.99
2059,C3,399.0,0.25,72,225.99
2060,C6,399.0,0.25,80,225.99
2061,C5,399.0,0.25,80,225.99
2062,C3,399.5,0.25,72,225.99
2063,C6,399.5,0.25,80,225.99
2064,C5,399.5,0.25,80,225.99
2065,G#3,400.0,1.0,82,225.99
2066,C6,400.0,1.0,92,225.99
2067,C5,400.0,1.0,92,225.99
2068,C#6,401.0,0.5,90,225.99
2069,B-5,401.0,0.5,90,225.99
2070,C#5,401.0,0.5,90,225.99
2071,F#2,401.0,0.5,78,225.99
2072,F#3,401.0,0.5,78,225.99
2073,C#6,402.0,0.5,90,225.99
2074,B-5,402.0,0.5,90,225.99
2075,C#5,402.0,0.5,90,225.99
2076,F#2,402.0,0.5,78,225.99
2077,F#3,402.0,0.5,78,225.99
2078,C#6,403.0,0.5,90,225.99
2079,B-5,403.0,0.5,90,225.99
2080,C#5,403.0,0.5,90,225.99
2081,F#2,403.0,0.5,78,225.99
2082,F#3,403.0,0.5,78,225.99
2083,C#6,404.0,0.5,90,225.99
2084,B-5,404.0,0.5,90,225.99
2085,C#5,404.0,0.5,90,225.99
2086,F#2,404.0,0.5,78,225.99
2087,F#3,404.0,0.5,78,225.99
2088,F#6,405.0,0.5,90,225.99
2089,C#6,405.0,0.5,90,225.99
2090,F#5,405.0,0.5,90,225.99
2091,B-2,405.0,0.5,78,225.99
2092,B-3,405.0,0.5,78,225.99
2093,F#6,406.0,1.0,84,225.99
2094,C#6,406.0,1.0,84,225.99
2095,F#5,406.0,1.0,84,225.99
2096,C#4,406.0,1.0,70,225.99
2097,B-3,406.0,1.0,70,225.99
2098,C#3,406.0,1.0,70,225.99
2099,F#6,407.0,0.25,88,225.99
2100,C#6,407.0,0.25,88,225.99
2101,F#5,407.0,0.25,88,225.99
2102,C#3,407.0,0.25,75,225.99
2103,B-3,407.0,0.25,75,225.99
2104,C#4,407.0,0.25,75,225.99
2105,F#6,407.5,0.25,90,225.99
2106,C#6,407.5,0.25,90,225.99
2107,F#5,407.5,0.25,90,225.99
2108,C#3,407.5,0.25,76,225.99
2109,B-3,407.5,0.25,76,225.99
2110,C#4,407.5,0.25,76,225.99
2111,G#6,408.0,1.0,92,225.99
2112,F6,408.0,1.0,92,225.99
2113,G#5,408.0,1.0,92,225.99
2114,C#3,408.0,1.0,78,225.99
2115,C#4,408.0,1.0,78,225.99
2116,B3,408.0,1.0,78,225.99
2117,G#6,409.0,0.25,87,225.99
2118,F6,409.0,0.25,87,225.99
2119,G#5,409.0,0.25,87,225.99
2120,B3,409.0,0.25,75,225.99
2121,C#4,409.0,0.25,75,225.99
2122,C#3,409.0,0.25,75,225.99
2123,G#6,409.5,0.25,84,225.99
2124,F6,409.5,0.25,84,225.99
2125,G#5,409.5,0.25,84,225.99
2126,B3,409.5,0.25,73,225.99
2127,C#4,409.5,0.25,73,225.99
2128,C#3,409.5,0.25,73,225.99
2129,F#6,410.0,0.5,84,225.99
2130,F#5,410.0,0.5,84,225.99
2131,F#3,410.0,0.5,70,225.99
2132,B-3,410.0,0.5,70,225.99
2133,C#4,410.0,0.5,70,225.99
2134,B5,411.0,0.5,84,225.99
2135,G#5,411.0,0.5,84,225.99
2136,F5,411.0,0.5,84,225.99
2137,B4,411.0,0.5,84,225.99
2138,C#2,411.0,0.5,73,225.99
2139,C#3,411.0,0.5,73,225.99
2140,C6,412.0,0.5,84,225.99
2141,G#5,412.0,0.5,84,225.99
2142,F5,412.0,0.5,84,225.99
2143,C5,412.0,0.5,84,225.99
2144,C2,412.0,0.5,73,225.99
2145,C3,412.0,0.5,73,225.99
2146,C6,413.0,0.5,84,225.99
2147,G5,413.0,0.5,84,225.99
2148,E5,413.0,0.5,84,225.99
2149,C5,413.0,0.5,84,225.99
2150,C2,413.0,0.5,73,225.99
2151,C3,413.0,0.5,73,225.99
2152,F4,414.0,1.0,87,225.99
2153,F5,414.0,1.0,87,225.99
2154,F2,414.0,1.0,78,225.99
2155,F3,414.0,1.0,78,225.99
2156,F4,415.0,0.5,48,225.99
2157,F3,415.0,0.5,40,225.99
2158,G4,415.5,0.5,48,225.99
2159,G3,415.5,0.5,40,225.99
2160,A4,416.0,1.0,48,225.99
2161,A3,416.0,1.0,40,225.99
2162,B-4,417.0,0.25,48,225.99
2163,B-3,417.0,0.25,40,225.99
2164,C5,417.5,0.25,48,225.99
2165,C4,417.5,0.25,40,225.99
2166,C5,418.0,1.0,48,225.99
2167,D5,418.0,1.0,48,225.99
2168,C3,418.0,1.0,37,225.99
2169,A3,418.0,1.0,37,225.99
2170,C4,418.0,1.0,37,225.99
2171,B-4,419.0,0.25,42,225.99
2172,E5,419.0,0.25,42,225.99
2173,C3,419.0,0.25,36,225.99
2174,G3,419.0,0.25,36,225.99
2175,C4,419.0,0.25,36,225.99
2176,B-4,419.5,0.25,42,225.99
2177,E5,419.5,0.25,42,225.99
2178,C3,419.5,0.25,36,225.99
2179,G3,419.5,0.25,36,225.99
2180,C4,419.5,0.25,36,225.99
2181,B-4,420.0,1.0,46,225.99
2182,E5,420.0,1.0,46,225.99
2183,C3,420.0,1.0,37,225.99
2184,G3,420.0,1.0,37,225.99
2185,C4,420.0,1.0,37,225.99
2186,A4,421.0,0.25,42,225.99
2187,F5,421.0,0.25,42,225.99
2188,C3,421.0,0.25,35,225.99
2189,F3,421.0,0.25,35,225.99
2190,C4,421.0,0.25,35,225.99
2191,A4,421.5,0.25,42,225.99
2192,F5,421.5,0.25,42,225.99
2193,C3,421.5,0.25,35,225.99
2194,F3,421.5,0.25,35,225.99
2195,C4,421.5,0.25,35,225.99
2196,A4,422.0,1.0,46,225.99
2197,C5,422.0,1.0,46,225.99
2198,C3,422.0,1.0,37,225.99
2199,D3,422.0,1.0,37,225.99
2200,C4,422.0,1.0,37,225.99
2201,G4,423.0,0.25,42,225.99
2202,B-4,423.0,0.25,42,225.99
2203,E3,423.0,0.25,35,225.99
2204,C3,423.0,0.25,35,225.99
2205,C4,423.0,0.25,35,225.99
2206,G4,423.5,0.25,42,225.99
2207,B-4,423.5,0.25,42,225.99
2208,E3,423.5,0.25,35,225.99
2209,C3,423.5,0.25,35,225.99
2210,C4,423.5,0.25,35,225.99
2211,A4,424.0,31/125,83,225.99
2212,C5,424.0,31/125,83,225.99
2213,A5,424.0,31/125,83,225.99
2214,F2,424.0,31/125,72,225.99
2215,F3,424.0,31/125,72,225.99
2216,A4,425.0,31/125,83,225.99
2217,C5,425.0,31/125,83,225.99
2218,F5,425.0,31/125,83,225.99
2219,F3,425.0,31/125,72,225.99
2220,C4,425.0,31/125,72,225.99
2221,C5,426.0,1.0,48,225.99
2222,C3,426.0,1.0,37,225.99
2223,A3,426.0,1.0,37,225.99
2224,C4,426.0,1.0,37,225.99
2225,C5,427.0,0.25,42,225.99
2226,D5,427.0,0.25,42,225.99
2227,C3,427.0,0.25,36,225.99
2228,A3,427.0,0.25,36,225.99
2229,C4,427.0,0.25,36,225.99
2230,C5,427.5,0.25,42,225.99
2231,D5,427.5,0.25,42,225.99
2232,C3,427.5,0.25,36,225.99
2233,A3,427.5,0.25,36,225.99
2234,C4,427.5,0.25,36,225.99
2235,B-4,428.0,1.0,46,225.99
2236,E5,428.0,1.0,46,225.99
2237,C3,428.0,1.0,37,225.99
2238,G3,428.0,1.0,37,225.99
2239,C4,428.0,1.0,37,225.99
2240,A4,429.0,0.25,42,225.99
2241,F5,429.0,0.25,42,225.99
2242,C3,429.0,0.25,35,225.99
2243,F3,429.0,0.25,35,225.99
2244,C4,429.0,0.25,35,225.99
2245,A4,429.5,0.25,42,225.99
2246,F5,429.5,0.25,42,225.99
2247,C3,429.5,0.25,35,225.99
2248,F3,429.5,0.25,35,225.99
2249,C4,429.5,0.25,35,225.99
2250,A4,430.0,1.0,46,225.99
2251,C5,430.0,1.0,46,225.99
2252,C3,430.0,1.0,37,225.99
2253,D3,430.0,1.0,37,225.99
2254,C4,430.0,1.0,37,225.99
2255,G4,431.0,0.25,42,225.99
2256,B-4,431.0,0.25,42,225.99
2257,E3,431.0,0.25,35,225.99
2258,C3,431.0,0.25,35,225.99
2259,C4,431.0,0.25,35,225.99
2260,G4,431.5,0.25,42,225.99
2261,B-4,431.5,0.25,42,225.99
2262,E3,431.5,0.25,35,225.99
2263,C3,431.5,0.25,35,225.99
2264,C4,431.5,0.25,35,225.99
2265,A4,432.0,31/125,87,225.99
2266,C5,432.0,31/125,87,225.99
2267,A5,432.0,31/125,87,225.99
2268,F2,432.0,31/125,75,225.99
2269,F3,432.0,31/125,75,225.99
2270,A4,433.0,31/125,88,225.99
2271,C5,433.0,31/125,88,225.99
2272,F5,433.0,31/125,88,225.99
2273,F3,433.0,31/125,75,225.99
2274,C4,433.0,31/125,75,225.99
2275,A4,434.0,1.0,46,225.99
2276,C5,434.0,1.0,46,225.99
2277,C3,434.0,1.0,37,225.99
2278,D3,434.0,1.0,37,225.99
2279,C4,434.0,1.0,37,225.99
2280,G4,435.0,0.25,42,225.99
2281,B-4,435.0,0.25,42,225.99
2282,E3,435.0,0.25,35,225.99
2283,C3,435.0,0.25,35,225.99
2284,C4,435.0,0.25,35,225.99
2285,G4,435.5,0.25,42,225.99
2286,B-4,435.5,0.25,42,225.99
2287,E3,435.5,0.25,35,225.99
2288,C3,435.5,0.25,35,225.99
2289,C4,435.5,0.25,35,225.99
2290,A4,436.0,31/125,90,225.99
2291,C5,436.0,31/125,90,225.99
2292,A5,436.0,31/125,90,225.99
2293,F2,436.0,31/125,78,225.99
2294,F3,436.0,31/125,78,225.99
2295,A4,437.0,31/125,90,225.99
2296,C5,437.0,31/125,90,225.99
2297,F5,437.0,31/125,90,225.99
2298,F3,437.0,31/125,78,225.99
2299,C4,437.0,31/125,78,225.99
2300,A4,438.0,1.0,46,225.99
2301,C5,438.0,1.0,46,225.99
2302,C3,438.0,1.0,37,225.99
2303,D3,438.0,1.0,37,225.99
2304,C4,438.0,1.0,37,225.99
2305,G4,439.0,0.25,42,225.99
2306,B-4,439.0,0.25,42,225.99
2307,E3,439.0,0.25,35,225.99
2308,C3,439.0,0.25,35,225.99
2309,C4,439.0,0.25,35,225.99
2310,G4,439.5,0.25,42,225.99
2311,B-4,439.5,0.25,42,225.99
2312,E3,439.5,0.25,35,225.99
2313,C3,439.5,0.25,35,225.99
2314,C4,439.5,0.25,35,225.99
2315,F5,440.0,9/10,92,225.99
2316,A5,440.0,9/10,92,225.99
2317,C6,440.0,9/10,92,225.99
2318,F6,440.0,9/10,92,225.99
2319,F2,440.0,9/10,80,225.99
2320,F3,440.0,9/10,80,225.99
2321,F3,441.0,1.0,84,225.99
2322,F4,441.0,1.0,94,225.99
2323,F5,441.0,1.0,94,225.99
