,note_name,start_time,duration,velocity,tempo
0,B-5,0.0,0.5,54,129.93
1,B-3,0.0,0.25,34,129.93
2,D4,0.0,0.25,34,129.93
3,F4,0.25,0.25,25,129.93
4,A5,0.5,0.5,47,129.93
5,B-3,0.5,0.25,26,129.93
6,D4,0.5,0.25,26,129.93
7,F4,0.75,0.25,24,129.93
8,B-5,1.0,0.5,47,129.93
9,D4,1.0,0.25,26,129.93
10,B-3,1.0,0.25,26,129.93
11,F4,1.25,0.25,25,129.93
12,G5,1.5,0.5,51,129.93
13,E-4,1.5,0.25,31,129.93
14,B-3,1.5,0.25,31,129.93
15,G4,1.75,0.25,25,129.93
16,A5,2.0,0.25,46,129.93
17,E-4,2.0,0.25,26,129.93
18,B-3,2.0,0.25,26,129.93
19,B-5,2.25,0.25,47,129.93
20,G4,2.25,0.25,24,129.93
21,C6,2.5,0.25,49,129.93
22,B-3,2.5,0.25,26,129.93
23,E-4,2.5,0.25,26,129.93
24,D6,2.75,0.25,50,129.93
25,G4,2.75,0.25,24,129.93
26,B-5,3.0,0.5,53,129.93
27,B-3,3.0,0.25,37,129.93
28,D4,3.0,0.25,37,129.93
29,F4,3.25,0.25,25,129.93
30,C6,3.5,0.25,54,129.93
31,D4,3.5,0.25,26,129.93
32,B-3,3.5,0.25,26,129.93
33,B-5,3.75,0.25,47,129.93
34,F4,3.75,0.25,24,129.93
35,A5,4.0,0.25,51,129.93
36,B-3,4.0,0.25,26,129.93
37,D4,4.0,0.25,26,129.93
38,G5,4.25,0.25,47,129.93
39,F4,4.25,0.25,24,129.93
40,F5,4.5,0.125,56,129.93
41,E-4,4.5,0.25,32,129.93
42,A3,4.5,0.25,32,129.93
43,F4,4.75,0.25,25,129.93
44,F5,5.0,0.125,51,129.93
45,A3,5.0,0.25,26,129.93
46,E-4,5.0,0.25,26,129.93
47,F4,5.25,0.25,26,129.93
48,F5,5.5,0.125,50,129.93
49,A3,5.5,0.25,26,129.93
50,E-4,5.5,0.25,26,129.93
51,F4,5.75,0.25,25,129.93
52,F#5,6.0,0.5,61,129.93
53,E-4,6.0,0.25,34,129.93
54,A3,6.0,0.25,34,129.93
55,F#4,6.25,0.25,25,129.93
56,F#6,6.5,0.5,57,129.93
57,A3,6.5,0.25,26,129.93
58,E-4,6.5,0.25,26,129.93
59,F#4,6.75,0.25,25,129.93
60,F#6,7.0,0.125,57,129.93
61,A3,7.0,0.25,26,129.93
62,E-4,7.0,0.25,26,129.93
63,F#4,7.25,0.25,25,129.93
64,G6,7.5,0.5,65,129.93
65,B-3,7.5,0.25,32,129.93
66,E-4,7.5,0.25,32,129.93
67,G4,7.75,0.25,25,129.93
68,G5,8.0,0.5,51,129.93
69,E-4,8.0,0.25,26,129.93
70,B-3,8.0,0.25,26,129.93
71,G4,8.25,0.25,25,129.93
72,G5,8.5,0.125,51,129.93
73,B-3,8.5,0.25,26,129.93
74,E-4,8.5,0.25,26,129.93
75,G4,8.75,0.25,25,129.93
76,A5,9.0,0.125,53,129.93
77,C4,9.0,0.25,32,129.93
78,E-4,9.0,0.25,32,129.93
79,F4,9.25,0.25,25,129.93
80,B-6,9.438,0.062,46,129.93
81,A6,9.5,0.25,52,129.93
82,C4,9.5,0.25,26,129.93
83,E-4,9.5,0.25,26,129.93
84,G6,9.75,0.25,51,129.93
85,F4,9.75,0.25,25,129.93
86,A6,10.0,0.5,52,129.93
87,C4,10.0,0.25,26,129.93
88,E-4,10.0,0.25,26,129.93
89,F4,10.25,0.25,25,129.93
90,B-6,10.5,0.125,54,129.93
91,B-3,10.5,0.25,32,129.93
92,D4,10.5,0.25,32,129.93
93,F4,10.75,0.25,25,129.93
94,C6,10.938,0.062,45,129.93
95,B-5,11.0,0.25,51,129.93
96,B-3,11.0,0.25,26,129.93
97,D4,11.0,0.25,26,129.93
98,A5,11.25,0.25,47,129.93
99,F4,11.25,0.25,25,129.93
100,B-5,11.5,0.25,51,129.93
101,B-3,11.5,0.25,26,129.93
102,D4,11.5,0.25,26,129.93
103,F4,11.75,0.25,25,129.93
104,B-3,12.0,0.5,48,129.93
105,B-4,12.0,0.25,37,129.93
106,D5,12.0,0.25,37,129.93
107,F5,12.25,0.25,35,129.93
108,A3,12.5,0.5,40,129.93
109,B-4,12.5,0.25,38,129.93
110,D5,12.5,0.25,38,129.93
111,F5,12.75,0.25,34,129.93
112,B-3,13.0,0.5,40,129.93
113,D5,13.0,0.25,38,129.93
114,B-4,13.0,0.25,38,129.93
115,F5,13.25,0.25,35,129.93
116,G3,13.5,0.5,48,129.93
117,B-4,13.5,0.25,38,129.93
118,D5,13.5,0.25,38,129.93
119,G5,13.75,0.25,35,129.93
120,A3,14.0,0.25,39,129.93
121,B-4,14.0,0.25,38,129.93
122,D5,14.0,0.25,38,129.93
123,G5,14.25,0.25,34,129.93
124,B-3,14.25,0.25,39,129.93
125,C4,14.5,0.25,40,129.93
126,B-4,14.5,0.25,38,129.93
127,D5,14.5,0.25,38,129.93
128,G5,14.75,0.25,34,129.93
129,D4,14.75,0.25,40,129.93
130,B-3,15.0,0.5,46,129.93
131,B-4,15.0,0.25,40,129.93
132,D5,15.0,0.25,40,129.93
133,F5,15.25,0.25,35,129.93
134,C4,15.5,0.25,44,129.93
135,B-4,15.5,0.25,38,129.93
136,D5,15.5,0.25,38,129.93
137,F5,15.75,0.25,34,129.93
138,B-3,15.75,0.25,40,129.93
139,A3,16.0,0.25,44,129.93
140,D5,16.0,0.25,38,129.93
141,B-4,16.0,0.25,38,129.93
142,F5,16.25,0.25,34,129.93
143,G3,16.25,0.25,40,129.93
144,F3,16.5,0.125,47,129.93
145,E-5,16.5,0.25,43,129.93
146,A4,16.5,0.25,43,129.93
147,F5,16.75,0.25,35,129.93
148,F3,17.0,0.125,40,129.93
149,E-5,17.0,0.25,38,129.93
150,A4,17.0,0.25,38,129.93
151,F5,17.25,0.25,37,129.93
152,F3,17.5,0.125,40,129.93
153,E-5,17.5,0.25,38,129.93
154,A4,17.5,0.25,38,129.93
155,F5,17.75,0.25,35,129.93
156,F#3,18.0,0.5,51,129.93
157,A4,18.0,0.25,42,129.93
158,E-5,18.0,0.25,42,129.93
159,A5,18.25,0.25,35,129.93
160,F#4,18.5,0.5,39,129.93
161,A4,18.5,0.25,38,129.93
162,E-5,18.5,0.25,38,129.93
163,A5,18.75,0.25,35,129.93
164,F#4,19.0,0.125,41,129.93
165,A4,19.0,0.25,38,129.93
166,E-5,19.0,0.25,38,129.93
167,A5,19.25,0.25,35,129.93
168,G4,19.5,0.5,51,129.93
169,E-5,19.5,0.25,40,129.93
170,B-4,19.5,0.25,40,129.93
171,B-5,19.75,0.25,35,129.93
172,G3,20.0,0.5,45,129.93
173,B-4,20.0,0.25,38,129.93
174,E-5,20.0,0.25,38,129.93
175,A5,20.25,0.25,35,129.93
176,G3,20.5,0.125,46,129.93
177,B-4,20.5,0.25,38,129.93
178,E-5,20.5,0.25,38,129.93
179,G5,20.75,0.25,35,129.93
180,B-3,21.0,0.125,51,129.93
181,G#4,21.0,0.25,38,129.93
182,D5,21.0,0.25,38,129.93
183,F5,21.25,0.25,35,129.93
184,C3,21.375,167/1000,39,129.93
185,B-2,21.5,73/250,46,129.93
186,G#4,21.5,0.25,38,129.93
187,D5,21.5,0.25,38,129.93
188,F5,21.75,0.25,35,129.93
189,A2,21.75,73/250,42,129.93
190,B-2,22.0,0.5,45,129.93
191,D5,22.0,0.25,38,129.93
192,G#4,22.0,0.25,38,129.93
193,F5,22.25,0.25,35,129.93
194,E-3,22.5,0.125,42,129.93
195,E-5,22.5,0.25,38,129.93
196,G4,22.5,0.25,38,129.93
197,G5,22.75,0.25,35,129.93
198,F2,22.875,167/1000,37,129.93
199,E-2,23.0,73/250,42,129.93
200,E-5,23.0,0.25,38,129.93
201,G4,23.0,0.25,38,129.93
202,G5,23.25,0.25,35,129.93
203,D2,23.25,73/250,39,129.93
204,E-2,23.5,0.25,42,129.93
205,E-5,23.5,0.25,38,129.93
206,G4,23.5,0.25,38,129.93
207,B-5,24.0,0.125,56,129.93
208,E-4,24.0,0.25,32,129.93
209,G4,24.0,0.25,32,129.93
210,B-4,24.25,0.25,28,129.93
211,G#5,24.375,0.125,50,129.93
212,G5,24.5,0.25,56,129.93
213,E-4,24.5,0.25,29,129.93
214,G4,24.5,0.25,29,129.93
215,F5,24.75,0.25,52,129.93
216,B-4,24.75,0.25,28,129.93
217,G5,25.0,0.5,56,129.93
218,E-4,25.0,0.25,29,129.93
219,G4,25.0,0.25,29,129.93
220,B-4,25.25,0.25,28,129.93
221,B-5,25.5,0.125,56,129.93
222,D4,25.5,0.25,29,129.93
223,F4,25.5,0.25,29,129.93
224,B-4,25.75,0.25,28,129.93
225,G5,25.875,0.125,49,129.93
226,F5,26.0,0.25,56,129.93
227,D4,26.0,0.25,29,129.93
228,F4,26.0,0.25,29,129.93
229,E5,26.25,0.25,52,129.93
230,B-4,26.25,0.25,28,129.93
231,F5,26.5,0.5,56,129.93
232,C#4,26.5,0.25,29,129.93
233,F4,26.5,0.25,29,129.93
234,B-4,26.75,0.25,28,129.93
235,C6,27.0,0.5,58,129.93
236,C4,27.0,0.25,29,129.93
237,F4,27.0,0.25,29,129.93
238,G#4,27.25,0.25,28,129.93
239,B-5,27.5,0.25,59,129.93
240,C4,27.5,0.25,29,129.93
241,F4,27.5,0.25,29,129.93
242,G#5,27.75,0.25,54,129.93
243,G#4,27.75,0.25,28,129.93
244,G5,28.0,0.25,58,129.93
245,C4,28.0,0.25,29,129.93
246,F4,28.0,0.25,29,129.93
247,F5,28.25,0.25,58,129.93
248,G#4,28.25,0.25,28,129.93
249,C6,28.5,0.5,58,129.93
250,C4,28.5,0.25,29,129.93
251,F4,28.5,0.25,29,129.93
252,G4,28.75,0.25,28,129.93
253,C5,29.0,0.5,56,129.93
254,C4,29.0,0.25,29,129.93
255,E4,29.0,0.25,29,129.93
256,G4,29.25,0.25,28,129.93
257,C5,29.5,0.5,56,129.93
258,C4,29.5,0.25,29,129.93
259,E4,29.5,0.25,29,129.93
260,G4,29.75,0.25,30,129.93
261,G#3,30.0,1.5,37,129.93
262,C4,30.0,0.5,44,129.93
263,G#4,30.0,0.25,40,129.93
264,C5,30.0,0.25,40,129.93
265,E-5,30.25,0.25,39,129.93
266,C#4,30.5,0.5,40,129.93
267,G#4,30.5,0.25,42,129.93
268,C5,30.5,0.25,42,129.93
269,E-5,30.75,0.25,38,129.93
270,C4,31.0,0.5,40,129.93
271,G#4,31.0,0.25,42,129.93
272,C5,31.0,0.25,42,129.93
273,E-5,31.25,0.25,39,129.93
274,C#3,31.5,1.5,37,129.93
275,B-3,31.5,0.5,44,129.93
276,G#4,31.5,0.25,40,129.93
277,F5,31.5,0.25,40,129.93
278,G#5,31.75,0.25,39,129.93
279,F3,32.0,0.5,42,129.93
280,G#4,32.0,0.25,43,129.93
281,F5,32.0,0.25,43,129.93
282,G#5,32.25,0.25,39,129.93
283,G3,32.5,0.5,44,129.93
284,G#4,32.5,0.25,45,129.93
285,F5,32.5,0.25,45,129.93
286,G#5,32.75,0.25,43,129.93
287,B-3,32.875,0.125,44,129.93
288,E-3,33.0,1.5,37,129.93
289,G#3,33.0,0.5,44,129.93
290,G#4,33.0,0.25,40,129.93
291,C5,33.0,0.25,40,129.93
292,E-5,33.25,0.25,38,129.93
293,G3,33.5,0.5,38,129.93
294,G#4,33.5,0.25,38,129.93
295,C5,33.5,0.25,38,129.93
296,E-5,33.75,0.25,34,129.93
297,G#3,34.0,0.5,35,129.93
298,G#4,34.0,0.25,37,129.93
299,C5,34.0,0.25,37,129.93
300,E-5,34.25,0.25,33,129.93
301,B-3,34.5,1.0,37,129.93
302,E-3,34.5,1.5,37,129.93
303,G4,34.5,0.25,34,129.93
304,C#5,34.5,0.25,34,129.93
305,E-5,34.75,0.25,32,129.93
306,G4,35.0,0.25,34,129.93
307,C#5,35.0,0.25,34,129.93
308,E-5,35.25,0.25,31,129.93
309,B3,35.5,0.5,34,129.93
310,G4,35.5,0.25,34,129.93
311,C#5,35.5,0.25,34,129.93
312,E-5,35.75,0.25,32,129.93
313,G#4,36.0,0.125,50,129.93
314,C5,36.0,0.125,50,129.93
315,E-5,36.0,0.125,50,129.93
316,G#3,36.0,0.25,32,129.93
317,C4,36.0,0.25,32,129.93
318,E-4,36.25,0.25,28,129.93
319,C#5,36.375,0.125,48,129.93
320,C5,36.5,0.25,56,129.93
321,G#3,36.5,0.25,29,129.93
322,C4,36.5,0.25,29,129.93
323,B-4,36.75,0.25,52,129.93
324,E-4,36.75,0.25,28,129.93
325,C5,37.0,0.5,56,129.93
326,G#3,37.0,0.25,29,129.93
327,C4,37.0,0.25,29,129.93
328,E-4,37.25,0.25,28,129.93
329,E-5,37.5,0.125,56,129.93
330,G3,37.5,0.25,29,129.93
331,B-3,37.5,0.25,29,129.93
332,E-4,37.75,0.25,28,129.93
333,C5,37.875,0.125,48,129.93
334,B-4,38.0,0.25,56,129.93
335,G3,38.0,0.25,29,129.93
336,B-3,38.0,0.25,29,129.93
337,A4,38.25,0.25,52,129.93
338,E-4,38.25,0.25,28,129.93
339,B-4,38.5,0.5,56,129.93
340,F#3,38.5,0.25,29,129.93
341,B-3,38.5,0.25,29,129.93
342,E-4,38.75,0.25,28,129.93
343,F5,39.0,0.5,58,129.93
344,F3,39.0,0.25,29,129.93
345,B-3,39.0,0.25,29,129.93
346,C#4,39.25,0.25,28,129.93
347,E-5,39.5,0.25,59,129.93
348,F3,39.5,0.25,29,129.93
349,B-3,39.5,0.25,29,129.93
350,C#5,39.75,0.25,54,129.93
351,C#4,39.75,0.25,28,129.93
352,C5,40.0,0.25,58,129.93
353,F3,40.0,0.25,29,129.93
354,B-3,40.0,0.25,29,129.93
355,B-4,40.25,0.25,58,129.93
356,C#4,40.25,0.25,28,129.93
357,F5,40.5,0.5,58,129.93
358,F3,40.5,0.25,29,129.93
359,B-3,40.5,0.25,29,129.93
360,C4,40.75,0.25,28,129.93
361,F4,41.0,0.5,56,129.93
362,F3,41.0,0.25,29,129.93
363,A3,41.0,0.25,29,129.93
364,C4,41.25,0.25,28,129.93
365,F4,41.5,0.5,56,129.93
366,F3,41.5,0.25,29,129.93
367,A3,41.5,0.25,29,129.93
368,C4,41.75,0.25,30,129.93
369,C#4,42.0,1.5,37,129.93
370,F4,42.0,0.5,44,129.93
371,C#5,42.0,0.25,40,129.93
372,F5,42.0,0.25,40,129.93
373,G#5,42.25,0.25,39,129.93
374,F#4,42.5,0.5,40,129.93
375,C#5,42.5,0.25,42,129.93
376,F5,42.5,0.25,42,129.93
377,G#5,42.75,0.25,38,129.93
378,F4,43.0,0.5,40,129.93
379,C#5,43.0,0.25,42,129.93
380,F5,43.0,0.25,42,129.93
381,G#5,43.25,0.25,39,129.93
382,F#3,43.5,1.5,37,129.93
383,E-4,43.5,0.5,44,129.93
384,C#5,43.5,0.25,40,129.93
385,B-5,43.5,0.25,40,129.93
386,C#6,43.75,0.25,39,129.93
387,B-3,44.0,0.5,42,129.93
388,C#5,44.0,0.25,43,129.93
389,B-5,44.0,0.25,43,129.93
390,C#6,44.25,0.25,39,129.93
391,C4,44.5,0.5,44,129.93
392,C#5,44.5,0.25,45,129.93
393,B-5,44.5,0.25,45,129.93
394,C#6,44.75,0.25,43,129.93
395,E-4,44.875,0.125,41,129.93
396,G#3,45.0,1.5,37,129.93
397,C#4,45.0,0.5,44,129.93
398,C#5,45.0,0.25,40,129.93
399,F5,45.0,0.25,40,129.93
400,G#5,45.25,0.25,38,129.93
401,C4,45.5,0.5,38,129.93
402,C#5,45.5,0.25,38,129.93
403,F5,45.5,0.25,38,129.93
404,G#5,45.75,0.25,34,129.93
405,C#4,46.0,0.5,35,129.93
406,C#5,46.0,0.25,37,129.93
407,F5,46.0,0.25,37,129.93
408,G#5,46.25,0.25,33,129.93
409,E-4,46.5,1.0,37,129.93
410,G#3,46.5,1.5,37,129.93
411,C5,46.5,0.25,34,129.93
412,F#5,46.5,0.25,34,129.93
413,G#5,46.75,0.25,32,129.93
414,C5,47.0,0.25,34,129.93
415,F#5,47.0,0.25,34,129.93
416,G#5,47.25,0.25,31,129.93
417,E4,47.5,0.5,34,129.93
418,C5,47.5,0.25,34,129.93
419,F#5,47.5,0.25,34,129.93
420,G#5,47.75,0.25,32,129.93
421,C#5,48.0,0.5,33,129.93
422,F5,48.0,0.5,33,129.93
423,G#5,48.0,0.5,33,129.93
424,C#4,48.0,0.125,32,129.93
425,F4,48.0,0.125,32,129.93
426,C#3,48.5,0.125,28,129.93
427,C#3,49.0,0.125,28,129.93
428,C#4,49.5,0.125,29,129.93
429,F4,49.5,0.125,29,129.93
430,C#3,50.0,0.125,28,129.93
431,C#3,50.5,0.125,28,129.93
432,C#5,50.875,0.125,40,129.93
433,F5,50.938,0.062,40,129.93
434,G#5,51.0,0.25,51,129.93
435,C#5,51.0,0.25,40,129.93
436,F5,51.0,0.25,40,129.93
437,C#4,51.0,0.125,30,129.93
438,F4,51.0,0.125,30,129.93
439,F#5,51.5,0.25,40,129.93
440,C#3,51.5,0.125,28,129.93
441,F5,51.75,0.25,40,129.93
442,E-5,52.0,0.25,40,129.93
443,C#3,52.0,0.125,28,129.93
444,C#5,52.25,0.25,40,129.93
445,G#4,52.375,0.125,40,129.93
446,C5,52.438,0.062,40,129.93
447,E-5,52.5,0.25,49,129.93
448,G#4,52.5,0.25,40,129.93
449,C5,52.5,0.25,40,129.93
450,C#4,52.5,0.125,31,129.93
451,F#4,52.5,0.125,31,129.93
452,C#5,53.0,0.25,40,129.93
453,C#3,53.0,0.125,28,129.93
454,C5,53.25,0.25,40,129.93
455,B-4,53.5,0.25,40,129.93
456,C#3,53.5,0.125,28,129.93
457,G#4,53.75,0.25,40,129.93
458,C#5,53.875,0.125,40,129.93
459,F5,53.938,0.062,40,129.93
460,G#5,54.0,0.25,53,129.93
461,C#5,54.0,0.25,40,129.93
462,F5,54.0,0.25,40,129.93
463,C#4,54.0,0.125,30,129.93
464,F4,54.0,0.125,30,129.93
465,F#5,54.5,0.25,42,129.93
466,C#3,54.5,0.125,28,129.93
467,F5,54.75,0.25,45,129.93
468,E-5,55.0,0.25,47,129.93
469,C#3,55.0,0.125,33,129.93
470,C#5,55.25,0.25,51,129.93
471,C#6,55.5,0.125,57,129.93
472,B-5,55.5,0.125,57,129.93
473,F#5,55.5,0.125,57,129.93
474,C#4,55.5,0.125,34,129.93
475,F#4,55.5,0.125,34,129.93
476,C#3,56.0,0.125,28,129.93
477,F#5,56.0,0.125,51,129.93
478,B-5,56.0,0.125,51,129.93
479,C#6,56.0,0.125,51,129.93
480,C#3,56.5,0.125,28,129.93
481,F#5,56.5,0.125,51,129.93
482,B-5,56.5,0.125,51,129.93
483,C#6,56.5,0.125,51,129.93
484,B-3,57.0,0.125,30,129.93
485,C#4,57.0,0.125,30,129.93
486,F#4,57.0,0.125,30,129.93
487,C#3,57.5,0.125,25,129.93
488,C#3,58.0,0.125,25,129.93
489,B-3,58.5,0.125,27,129.93
490,C#4,58.5,0.125,27,129.93
491,F#4,58.5,0.125,27,129.93
492,C#3,59.0,0.125,25,129.93
493,C#3,59.5,0.125,25,129.93
494,F4,60.0,0.5,49,129.93
495,G#3,60.0,0.125,26,129.93
496,C#4,60.0,0.125,26,129.93
497,G#4,60.375,0.125,32,129.93
498,F#4,60.5,0.5,41,129.93
499,C#3,60.5,0.125,24,129.93
500,F4,61.0,0.5,41,129.93
501,C#3,61.0,0.125,24,129.93
502,E-4,61.5,0.5,48,129.93
503,F#3,61.5,0.125,28,129.93
504,B-3,61.5,0.125,28,129.93
505,F4,62.0,0.25,41,129.93
506,F#2,62.0,0.125,24,129.93
507,F#4,62.25,0.25,41,129.93
508,G#4,62.5,0.25,43,129.93
509,F#2,62.5,0.125,24,129.93
510,B-4,62.75,0.25,44,129.93
511,C5,63.0,0.5,52,129.93
512,E-4,63.0,0.125,26,129.93
513,F#4,63.0,0.125,26,129.93
514,B-4,63.5,0.25,50,129.93
515,G#3,63.5,0.125,24,129.93
516,C5,63.75,0.25,46,129.93
517,C#5,64.0,0.25,48,129.93
518,G#3,64.0,0.125,24,129.93
519,E-5,64.25,0.25,50,129.93
520,F5,64.5,0.125,53,129.93
521,F4,64.5,0.125,26,129.93
522,C#4,64.5,0.125,26,129.93
523,F5,65.0,0.125,45,129.93
524,C#3,65.0,0.125,24,129.93
525,F5,65.5,0.125,44,129.93
526,C#3,65.5,0.125,24,129.93
527,C#4,66.0,0.125,28,129.93
528,F4,66.0,0.125,28,129.93
529,C#3,66.5,0.125,25,129.93
530,C#3,67.0,0.125,25,129.93
531,C#4,67.5,0.125,28,129.93
532,F4,67.5,0.125,28,129.93
533,C#3,68.0,0.125,28,129.93
534,C#3,68.5,0.125,28,129.93
535,C#5,68.875,0.125,40,129.93
536,F5,68.938,0.062,40,129.93
537,G#5,69.0,0.25,51,129.93
538,C#5,69.0,0.25,40,129.93
539,F5,69.0,0.25,40,129.93
540,C#4,69.0,0.125,30,129.93
541,F4,69.0,0.125,30,129.93
542,F#5,69.5,0.25,40,129.93
543,C#3,69.5,0.125,28,129.93
544,F5,69.75,0.25,40,129.93
545,E-5,70.0,0.25,40,129.93
546,C#3,70.0,0.125,28,129.93
547,C#5,70.25,0.25,40,129.93
548,G#4,70.375,0.125,40,129.93
549,C5,70.438,0.062,40,129.93
550,E-5,70.5,0.25,49,129.93
551,G#4,70.5,0.25,40,129.93
552,C5,70.5,0.25,40,129.93
553,C#4,70.5,0.125,31,129.93
554,F#4,70.5,0.125,31,129.93
555,C#5,71.0,0.25,40,129.93
556,C#3,71.0,0.125,28,129.93
557,C5,71.25,0.25,40,129.93
558,B-4,71.5,0.25,40,129.93
559,C#3,71.5,0.125,28,129.93
560,G#4,71.75,0.25,40,129.93
561,C#5,71.875,0.125,40,129.93
562,F5,71.938,0.062,40,129.93
563,G#5,72.0,0.25,53,129.93
564,C#5,72.0,0.25,40,129.93
565,F5,72.0,0.25,40,129.93
566,C#4,72.0,0.125,30,129.93
567,F4,72.0,0.125,30,129.93
568,F#5,72.5,0.25,42,129.93
569,C#3,72.5,0.125,28,129.93
570,F5,72.75,0.25,45,129.93
571,E-5,73.0,0.25,47,129.93
572,C#3,73.0,0.125,33,129.93
573,C#5,73.25,0.25,51,129.93
574,C#6,73.5,0.125,57,129.93
575,A5,73.5,0.125,57,129.93
576,F#5,73.5,0.125,57,129.93
577,C#4,73.5,0.125,34,129.93
578,F#4,73.5,0.125,34,129.93
579,C#3,74.0,0.125,28,129.93
580,F#5,74.0,0.125,51,129.93
581,A5,74.0,0.125,51,129.93
582,C#6,74.0,0.125,51,129.93
583,C#3,74.5,0.125,28,129.93
584,F#5,74.5,0.125,51,129.93
585,A5,74.5,0.125,51,129.93
586,C#6,74.5,0.125,51,129.93
587,A3,75.0,0.125,30,129.93
588,C#4,75.0,0.125,30,129.93
589,F#4,75.0,0.125,30,129.93
590,F#3,75.5,0.125,25,129.93
591,F#3,76.0,0.125,25,129.93
592,A3,76.5,0.125,27,129.93
593,C#4,76.5,0.125,27,129.93
594,F#4,76.5,0.125,27,129.93
595,F#3,77.0,0.125,25,129.93
596,F#3,77.5,0.125,25,129.93
597,C#5,78.0,0.5,53,129.93
598,F#4,78.0,0.125,26,129.93
599,A3,78.0,0.125,26,129.93
600,C#4,78.0,0.125,26,129.93
601,E5,78.375,0.125,38,129.93
602,D5,78.5,0.5,45,129.93
603,F#3,78.5,0.125,24,129.93
604,C#5,79.0,0.5,45,129.93
605,F#3,79.0,0.125,24,129.93
606,B4,79.5,0.5,52,129.93
607,D4,79.5,0.125,28,129.93
608,F#4,79.5,0.125,28,129.93
609,C#5,80.0,0.25,45,129.93
610,D3,80.0,0.125,24,129.93
611,D5,80.25,0.25,45,129.93
612,E5,80.5,0.25,47,129.93
613,D3,80.5,0.125,24,129.93
614,F#5,80.75,0.25,48,129.93
615,G#5,81.0,0.5,52,129.93
616,D4,81.0,0.125,26,129.93
617,E4,81.0,0.125,26,129.93
618,F#5,81.5,0.25,53,129.93
619,E3,81.5,0.125,24,129.93
620,G#5,81.75,0.25,43,129.93
621,A5,82.0,0.25,46,129.93
622,E3,82.0,0.125,24,129.93
623,B5,82.25,0.25,49,129.93
624,C#6,82.5,0.125,52,129.93
625,E4,82.5,0.125,26,129.93
626,C#4,82.5,0.125,26,129.93
627,C#6,83.0,0.125,49,129.93
628,A3,83.0,0.125,24,129.93
629,C#6,83.5,0.125,48,129.93
630,A3,83.5,0.125,24,129.93
631,C#4,84.0,0.125,28,129.93
632,E4,84.0,0.125,28,129.93
633,A3,84.5,0.125,25,129.93
634,A3,85.0,0.125,26,129.93
635,C#5,85.5,0.031,53,129.93
636,E4,85.5,0.031,26,129.93
637,C#4,85.5,0.031,26,129.93
638,C#5,86.0,0.031,45,129.93
639,A3,86.0,0.031,24,129.93
640,C#5,86.5,0.031,45,129.93
641,A3,86.5,0.031,24,129.93
642,C#5,87.0,0.5,52,129.93
643,C#4,87.0,0.125,28,129.93
644,E4,87.0,0.125,28,129.93
645,E5,87.5,0.25,45,129.93
646,B-3,87.5,0.125,24,129.93
647,D5,87.75,0.25,45,129.93
648,C#5,88.0,0.25,47,129.93
649,B-3,88.0,0.125,24,129.93
650,E5,88.25,0.25,48,129.93
651,D5,88.5,0.125,52,129.93
652,D4,88.5,0.125,26,129.93
653,E4,88.5,0.125,26,129.93
654,D5,89.0,0.125,52,129.93
655,B3,89.0,0.125,24,129.93
656,D5,89.5,0.125,51,129.93
657,B3,89.5,0.125,24,129.93
658,D6,90.0,0.125,52,129.93
659,E4,90.0,0.125,26,129.93
660,D4,90.0,0.125,26,129.93
661,D6,90.5,0.125,49,129.93
662,B3,90.5,0.125,24,129.93
663,D6,91.0,0.125,48,129.93
664,B3,91.0,0.125,24,129.93
665,D4,91.5,0.125,24,129.93
666,E4,91.5,0.125,24,129.93
667,B3,92.0,0.125,22,129.93
668,B3,92.5,0.125,22,129.93
669,D5,93.0,0.125,53,129.93
670,E4,93.0,0.125,26,129.93
671,D4,93.0,0.125,26,129.93
672,D5,93.5,0.125,45,129.93
673,B3,93.5,0.125,24,129.93
674,D5,94.0,0.125,45,129.93
675,B3,94.0,0.125,24,129.93
676,D5,94.5,0.5,52,129.93
677,D4,94.5,0.125,28,129.93
678,F4,94.5,0.125,28,129.93
679,F5,95.0,0.25,45,129.93
680,B3,95.0,0.125,24,129.93
681,E5,95.25,0.25,45,129.93
682,D5,95.5,0.25,47,129.93
683,B3,95.5,0.125,24,129.93
684,F5,95.75,0.25,48,129.93
685,D5,96.0,0.125,52,129.93
686,D4,96.0,0.125,26,129.93
687,F4,96.0,0.125,26,129.93
688,D5,96.5,0.125,52,129.93
689,B3,96.5,0.125,24,129.93
690,D5,97.0,0.125,52,129.93
691,B3,97.0,0.125,24,129.93
692,D6,97.5,0.125,52,129.93
693,F4,97.5,0.125,26,129.93
694,D4,97.5,0.125,26,129.93
695,D6,98.0,0.125,49,129.93
696,B3,98.0,0.125,24,129.93
697,D6,98.5,0.125,48,129.93
698,B3,98.5,0.125,24,129.93
699,D5,99.0,0.5,56,129.93
700,B3,99.0,0.25,29,129.93
701,D4,99.0,0.25,29,129.93
702,F4,99.25,0.25,26,129.93
703,C#5,99.5,0.5,52,129.93
704,D4,99.5,0.25,25,129.93
705,B3,99.5,0.25,25,129.93
706,F4,99.75,0.25,26,129.93
707,D5,100.0,0.5,52,129.93
708,D4,100.0,0.25,25,129.93
709,B3,100.0,0.25,25,129.93
710,F4,100.25,0.25,26,129.93
711,D6,100.5,0.5,56,129.93
712,B-3,100.5,0.25,29,129.93
713,D4,100.5,0.25,29,129.93
714,F4,100.75,0.25,26,129.93
715,C#6,101.0,0.5,52,129.93
716,D4,101.0,0.25,25,129.93
717,B-3,101.0,0.25,25,129.93
718,F4,101.25,0.25,26,129.93
719,D6,101.5,0.5,52,129.93
720,D4,101.5,0.25,25,129.93
721,B-3,101.5,0.25,25,129.93
722,F4,101.75,0.25,26,129.93
723,B-5,102.0,0.5,54,129.93
724,B-3,102.0,0.25,34,129.93
725,D4,102.0,0.25,34,129.93
726,F4,102.25,0.25,25,129.93
727,A5,102.5,0.5,47,129.93
728,B-3,102.5,0.25,26,129.93
729,D4,102.5,0.25,26,129.93
730,F4,102.75,0.25,24,129.93
731,B-5,103.0,0.5,48,129.93
732,B-3,103.0,0.25,26,129.93
733,D4,103.0,0.25,26,129.93
734,F4,103.25,0.25,25,129.93
735,G5,103.5,0.5,51,129.93
736,B-3,103.5,0.25,32,129.93
737,E-4,103.5,0.25,32,129.93
738,G4,103.75,0.25,26,129.93
739,A5,104.0,0.25,48,129.93
740,B-3,104.0,0.25,28,129.93
741,E-4,104.0,0.25,28,129.93
742,B-5,104.25,0.25,49,129.93
743,G4,104.25,0.25,25,129.93
744,C6,104.5,0.25,51,129.93
745,B-3,104.5,0.25,28,129.93
746,E-4,104.5,0.25,28,129.93
747,D6,104.75,0.25,52,129.93
748,G4,104.75,0.25,25,129.93
749,B-5,105.0,0.5,57,129.93
750,B-3,105.0,0.25,39,129.93
751,D4,105.0,0.25,39,129.93
752,F4,105.25,0.25,28,129.93
753,C6,105.5,0.25,58,129.93
754,D4,105.5,0.25,28,129.93
755,B-3,105.5,0.25,28,129.93
756,B-5,105.75,0.25,51,129.93
757,F4,105.75,0.25,26,129.93
758,A5,106.0,0.25,56,129.93
759,B-3,106.0,0.25,29,129.93
760,D4,106.0,0.25,29,129.93
761,G5,106.25,0.25,51,129.93
762,F4,106.25,0.25,26,129.93
763,F5,106.5,0.125,61,129.93
764,A3,106.5,0.25,36,129.93
765,E-4,106.5,0.25,36,129.93
766,F4,106.75,0.25,28,129.93
767,F5,107.0,0.125,56,129.93
768,A3,107.0,0.25,29,129.93
769,E-4,107.0,0.25,29,129.93
770,F4,107.25,0.25,29,129.93
771,F5,107.5,0.125,56,129.93
772,A3,107.5,0.25,30,129.93
773,E-4,107.5,0.25,30,129.93
774,F4,107.75,0.25,28,129.93
775,F#5,108.0,0.5,69,129.93
776,A3,108.0,0.25,38,129.93
777,E-4,108.0,0.25,38,129.93
778,F#4,108.25,0.25,29,129.93
779,F#6,108.5,0.5,66,129.93
780,A3,108.5,0.25,31,129.93
781,E-4,108.5,0.25,31,129.93
782,F#4,108.75,0.25,29,129.93
783,F#6,109.0,0.125,67,129.93
784,A3,109.0,0.25,31,129.93
785,E-4,109.0,0.25,31,129.93
786,F#4,109.25,0.25,30,129.93
787,G6,109.5,0.5,76,129.93
788,B-3,109.5,0.25,37,129.93
789,E-4,109.5,0.25,37,129.93
790,G4,109.75,0.25,30,129.93
791,G5,110.0,0.5,61,129.93
792,B-3,110.0,0.25,32,129.93
793,E-4,110.0,0.25,32,129.93
794,G4,110.25,0.25,30,129.93
795,G5,110.5,0.125,61,129.93
796,B-3,110.5,0.25,32,129.93
797,E-4,110.5,0.25,32,129.93
798,G4,110.75,0.25,30,129.93
799,A5,111.0,0.125,65,129.93
800,C4,111.0,0.25,38,129.93
801,E-4,111.0,0.25,38,129.93
802,G4,111.25,0.25,31,129.93
803,B-6,111.438,0.062,62,129.93
804,A6,111.5,0.25,65,129.93
805,C4,111.5,0.25,32,129.93
806,E-4,111.5,0.25,32,129.93
807,G6,111.75,0.25,62,129.93
808,G4,111.75,0.25,31,129.93
809,A6,112.0,0.5,66,129.93
810,C4,112.0,0.25,34,129.93
811,E-4,112.0,0.25,34,129.93
812,G4,112.25,0.25,32,129.93
813,B-6,112.5,0.125,68,129.93
814,G3,112.5,0.25,39,129.93
815,D4,112.5,0.25,39,129.93
816,G4,112.75,0.25,32,129.93
817,C6,112.938,0.062,61,129.93
818,B-5,113.0,0.25,63,129.93
819,G3,113.0,0.25,34,129.93
820,D4,113.0,0.25,34,129.93
821,A5,113.25,0.25,60,129.93
822,G4,113.25,0.25,32,129.93
823,B-5,113.5,0.25,65,129.93
824,G3,113.5,0.25,34,129.93
825,D4,113.5,0.25,34,129.93
826,G4,113.75,0.25,33,129.93
827,E-4,114.0,0.5,62,129.93
828,E-5,114.0,0.25,48,129.93
829,G5,114.0,0.25,48,129.93
830,B-5,114.25,0.25,46,129.93
831,D4,114.5,0.5,52,129.93
832,E-5,114.5,0.25,49,129.93
833,G5,114.5,0.25,49,129.93
834,B-5,114.75,0.25,45,129.93
835,E-4,115.0,0.5,52,129.93
836,E-5,115.0,0.25,49,129.93
837,G5,115.0,0.25,49,129.93
838,B-5,115.25,0.25,46,129.93
839,C4,115.5,0.5,62,129.93
840,E-5,115.5,0.25,50,129.93
841,G5,115.5,0.25,50,129.93
842,C6,115.75,0.25,46,129.93
843,D4,116.0,0.25,50,129.93
844,E-5,116.0,0.25,49,129.93
845,G5,116.0,0.25,49,129.93
846,C6,116.25,0.25,45,129.93
847,E-4,116.25,0.25,50,129.93
848,F4,116.5,0.25,52,129.93
849,E-5,116.5,0.25,49,129.93
850,G5,116.5,0.25,49,129.93
851,C6,116.75,0.25,45,129.93
852,G4,116.75,0.25,52,129.93
853,E-4,117.0,0.5,60,129.93
854,E-5,117.0,0.25,52,129.93
855,G5,117.0,0.25,52,129.93
856,B-5,117.25,0.25,46,129.93
857,F4,117.5,0.25,57,129.93
858,G5,117.5,0.25,49,129.93
859,E-5,117.5,0.25,49,129.93
860,B-5,117.75,0.25,45,129.93
861,E-4,117.75,0.25,52,129.93
862,D4,118.0,0.25,57,129.93
863,E-5,118.0,0.25,49,129.93
864,G5,118.0,0.25,49,129.93
865,B-5,118.25,0.25,45,129.93
866,C4,118.25,0.25,52,129.93
867,B-3,118.5,0.125,61,129.93
868,D5,118.5,0.25,56,129.93
869,G#5,118.5,0.25,56,129.93
870,B-5,118.75,0.25,46,129.93
871,B-3,119.0,0.125,52,129.93
872,D5,119.0,0.25,49,129.93
873,G#5,119.0,0.25,49,129.93
874,B-5,119.25,0.25,48,129.93
875,B-3,119.5,0.125,52,129.93
876,D5,119.5,0.25,49,129.93
877,G#5,119.5,0.25,49,129.93
878,B-5,119.75,0.25,46,129.93
879,B3,120.0,0.5,60,129.93
880,D5,120.0,0.25,54,129.93
881,G#5,120.0,0.25,54,129.93
882,D6,120.25,0.25,46,129.93
883,B4,120.5,0.5,50,129.93
884,D5,120.5,0.25,49,129.93
885,G#5,120.5,0.25,49,129.93
886,D6,120.75,0.25,46,129.93
887,B4,121.0,0.125,53,129.93
888,D5,121.0,0.25,49,129.93
889,G#5,121.0,0.25,49,129.93
890,D6,121.25,0.25,46,129.93
891,C5,121.5,0.5,62,129.93
892,E-5,121.5,0.25,52,129.93
893,G5,121.5,0.25,52,129.93
894,E-6,121.75,0.25,46,129.93
895,C4,122.0,0.5,58,129.93
896,E-5,122.0,0.25,49,129.93
897,G5,122.0,0.25,49,129.93
898,E-6,122.25,0.25,46,129.93
899,C4,122.5,0.125,60,129.93
900,E-5,122.5,0.25,49,129.93
901,G5,122.5,0.25,49,129.93
902,D6,122.75,0.25,46,129.93
903,F4,123.0,0.125,66,129.93
904,E-5,123.0,0.25,49,129.93
905,A5,123.0,0.25,49,129.93
906,C6,123.25,0.25,46,129.93
907,G3,123.375,167/1000,58,129.93
908,F3,123.5,73/250,67,129.93
909,E-5,123.5,0.25,49,129.93
910,A5,123.5,0.25,49,129.93
911,C6,123.75,0.25,46,129.93
912,E3,123.75,73/250,62,129.93
913,F3,124.0,0.5,66,129.93
914,E-5,124.0,0.25,49,129.93
915,A5,124.0,0.25,49,129.93
916,C6,124.25,0.25,46,129.93
917,B-3,124.5,0.125,62,129.93
918,D5,124.5,0.25,49,129.93
919,B-5,124.5,0.25,49,129.93
920,D6,124.75,0.25,46,129.93
921,C3,124.875,167/1000,54,129.93
922,B-2,125.0,73/250,62,129.93
923,D5,125.0,0.25,49,129.93
924,B-5,125.0,0.25,49,129.93
925,D6,125.25,0.25,46,129.93
926,A2,125.25,73/250,57,129.93
927,B-2,125.5,0.5,62,129.93
928,D5,125.5,0.25,49,129.93
929,B-5,125.5,0.25,49,129.93
930,D6,125.75,0.25,46,129.93
931,F2,126.0,0.5,56,129.93
932,E-5,126.0,0.25,50,129.93
933,A5,126.0,0.25,50,129.93
934,C6,126.25,0.25,46,129.93
935,G2,126.5,0.25,44,129.93
936,E-5,126.5,0.25,49,129.93
937,A5,126.5,0.25,49,129.93
938,C6,126.75,0.25,45,129.93
939,A2,126.75,0.25,44,129.93
940,B-2,127.0,0.25,47,129.93
941,E-5,127.0,0.25,49,129.93
942,A5,127.0,0.25,49,129.93
943,C6,127.25,0.25,45,129.93
944,C3,127.25,0.25,47,129.93
945,B-2,127.5,0.125,53,129.93
946,D5,127.5,0.25,52,129.93
947,B-5,127.5,0.25,52,129.93
948,D6,127.75,0.25,46,129.93
949,B-2,128.0,0.125,53,129.93
950,B-5,128.0,0.25,49,129.93
951,D5,128.0,0.25,49,129.93
952,D6,128.25,0.25,45,129.93
953,B-2,128.5,0.125,53,129.93
954,D5,128.5,0.25,49,129.93
955,B-5,128.5,0.25,49,129.93
956,D6,128.75,0.25,45,129.93
957,F3,129.0,0.5,50,129.93
958,E-5,129.0,0.25,45,129.93
959,A5,129.0,0.25,45,129.93
960,C6,129.25,0.25,41,129.93
961,G3,129.5,0.25,39,129.93
962,E-5,129.5,0.25,44,129.93
963,A5,129.5,0.25,44,129.93
964,C6,129.75,0.25,40,129.93
965,A3,129.75,0.25,39,129.93
966,B-3,130.0,0.25,41,129.93
967,E-5,130.0,0.25,44,129.93
968,A5,130.0,0.25,44,129.93
969,C6,130.25,0.25,40,129.93
970,C4,130.25,0.25,41,129.93
971,B-3,130.5,0.125,48,129.93
972,D5,130.5,0.25,46,129.93
973,B-5,130.5,0.25,46,129.93
974,D6,130.75,0.25,41,129.93
975,B-3,131.0,0.125,48,129.93
976,B-5,131.0,0.25,44,129.93
977,D5,131.0,0.25,44,129.93
978,D6,131.25,0.25,40,129.93
979,B-3,131.5,0.125,48,129.93
980,D5,131.5,0.25,44,129.93
981,B-5,131.5,0.25,44,129.93
982,D6,131.75,0.25,40,129.93
983,F4,132.0,0.5,44,129.93
984,E-5,132.0,0.25,39,129.93
985,A5,132.0,0.25,39,129.93
986,C6,132.25,0.25,37,129.93
987,G4,132.5,0.25,34,129.93
988,E-5,132.5,0.25,38,129.93
989,A5,132.5,0.25,38,129.93
990,C6,132.75,0.25,35,129.93
991,A4,132.75,0.25,34,129.93
992,B-4,133.0,0.25,37,129.93
993,E-5,133.0,0.25,38,129.93
994,A5,133.0,0.25,38,129.93
995,C6,133.25,0.25,35,129.93
996,C5,133.25,0.25,37,129.93
997,B-4,133.5,0.125,42,129.93
998,D5,133.5,0.25,42,129.93
999,B-5,133.5,0.25,42,129.93
1000,D6,133.75,0.25,37,129.93
1001,B-4,134.0,0.125,42,129.93
1002,B-5,134.0,0.25,38,129.93
1003,D5,134.0,0.25,38,129.93
1004,D6,134.25,0.25,35,129.93
1005,B-4,134.5,0.125,42,129.93
1006,D5,134.5,0.5,38,129.93
1007,B-5,134.5,0.5,38,129.93
1008,B-5,135.0,0.125,56,129.93
1009,E-4,135.0,0.25,32,129.93
1010,G4,135.0,0.25,32,129.93
1011,B-4,135.25,0.25,28,129.93
1012,G#5,135.375,0.125,48,129.93
1013,G5,135.5,0.25,56,129.93
1014,E-4,135.5,0.25,29,129.93
1015,G4,135.5,0.25,29,129.93
1016,F5,135.75,0.25,52,129.93
1017,B-4,135.75,0.25,28,129.93
1018,G5,136.0,0.5,56,129.93
1019,E-4,136.0,0.25,29,129.93
1020,G4,136.0,0.25,29,129.93
1021,B-4,136.25,0.25,28,129.93
1022,B-5,136.5,0.125,56,129.93
1023,D4,136.5,0.25,29,129.93
1024,F4,136.5,0.25,29,129.93
1025,B-4,136.75,0.25,28,129.93
1026,G5,136.875,0.125,48,129.93
1027,F5,137.0,0.25,56,129.93
1028,D4,137.0,0.25,29,129.93
1029,F4,137.0,0.25,29,129.93
1030,E5,137.25,0.25,52,129.93
1031,B-4,137.25,0.25,28,129.93
1032,F5,137.5,0.5,56,129.93
1033,C#4,137.5,0.25,29,129.93
1034,F4,137.5,0.25,29,129.93
1035,B-4,137.75,0.25,28,129.93
1036,C6,138.0,0.5,58,129.93
1037,C4,138.0,0.25,29,129.93
1038,F4,138.0,0.25,29,129.93
1039,G#4,138.25,0.25,28,129.93
1040,B-5,138.5,0.25,59,129.93
1041,C4,138.5,0.25,29,129.93
1042,F4,138.5,0.25,29,129.93
1043,G#5,138.75,0.25,54,129.93
1044,G#4,138.75,0.25,28,129.93
1045,G5,139.0,0.25,58,129.93
1046,C4,139.0,0.25,29,129.93
1047,F4,139.0,0.25,29,129.93
1048,F5,139.25,0.25,58,129.93
1049,G#4,139.25,0.25,28,129.93
1050,C6,139.5,0.5,58,129.93
1051,C4,139.5,0.25,29,129.93
1052,F4,139.5,0.25,29,129.93
1053,G4,139.75,0.25,28,129.93
1054,C5,140.0,0.5,56,129.93
1055,C4,140.0,0.25,29,129.93
1056,E4,140.0,0.25,29,129.93
1057,G4,140.25,0.25,28,129.93
1058,C5,140.5,0.5,56,129.93
1059,C4,140.5,0.25,29,129.93
1060,E4,140.5,0.25,29,129.93
1061,G4,140.75,0.25,30,129.93
1062,G#3,141.0,1.5,37,129.93
1063,C4,141.0,0.5,44,129.93
1064,G#4,141.0,0.25,40,129.93
1065,C5,141.0,0.25,40,129.93
1066,E-5,141.25,0.25,39,129.93
1067,C#4,141.5,0.5,40,129.93
1068,G#4,141.5,0.25,42,129.93
1069,C5,141.5,0.25,42,129.93
1070,E-5,141.75,0.25,38,129.93
1071,C4,142.0,0.5,40,129.93
1072,G#4,142.0,0.25,42,129.93
1073,C5,142.0,0.25,42,129.93
1074,E-5,142.25,0.25,39,129.93
1075,C#3,142.5,1.5,37,129.93
1076,B-3,142.5,0.5,44,129.93
1077,G#4,142.5,0.25,40,129.93
1078,F5,142.5,0.25,40,129.93
1079,G#5,142.75,0.25,39,129.93
1080,F3,143.0,0.5,42,129.93
1081,G#4,143.0,0.25,43,129.93
1082,F5,143.0,0.25,43,129.93
1083,G#5,143.25,0.25,39,129.93
1084,G3,143.5,0.5,44,129.93
1085,G#4,143.5,0.25,45,129.93
1086,F5,143.5,0.25,45,129.93
1087,G#5,143.75,0.25,43,129.93
1088,B-3,143.875,0.125,39,129.93
1089,E-3,144.0,1.5,37,129.93
1090,G#3,144.0,0.5,44,129.93
1091,G#4,144.0,0.25,40,129.93
1092,C5,144.0,0.25,40,129.93
1093,E-5,144.25,0.25,38,129.93
1094,G3,144.5,0.5,38,129.93
1095,G#4,144.5,0.25,38,129.93
1096,C5,144.5,0.25,38,129.93
1097,E-5,144.75,0.25,34,129.93
1098,G#3,145.0,0.5,35,129.93
1099,G#4,145.0,0.25,37,129.93
1100,C5,145.0,0.25,37,129.93
1101,E-5,145.25,0.25,33,129.93
1102,B-3,145.5,1.0,37,129.93
1103,E-3,145.5,1.5,37,129.93
1104,G4,145.5,0.25,34,129.93
1105,C#5,145.5,0.25,34,129.93
1106,E-5,145.75,0.25,32,129.93
1107,G4,146.0,0.25,34,129.93
1108,C#5,146.0,0.25,34,129.93
1109,E-5,146.25,0.25,31,129.93
1110,B3,146.5,0.5,34,129.93
1111,G4,146.5,0.25,34,129.93
1112,C#5,146.5,0.25,34,129.93
1113,E-5,146.75,0.25,32,129.93
1114,G#4,147.0,0.125,50,129.93
1115,C5,147.0,0.125,50,129.93
1116,E-5,147.0,0.125,50,129.93
1117,G#3,147.0,0.25,32,129.93
1118,C4,147.0,0.25,32,129.93
1119,E-4,147.25,0.25,28,129.93
1120,C#5,147.375,0.125,49,129.93
1121,C5,147.5,0.25,56,129.93
1122,G#3,147.5,0.25,29,129.93
1123,C4,147.5,0.25,29,129.93
1124,B-4,147.75,0.25,52,129.93
1125,E-4,147.75,0.25,28,129.93
1126,C5,148.0,0.5,56,129.93
1127,G#3,148.0,0.25,29,129.93
1128,C4,148.0,0.25,29,129.93
1129,E-4,148.25,0.25,28,129.93
1130,E-5,148.5,0.125,56,129.93
1131,G3,148.5,0.25,29,129.93
1132,B-3,148.5,0.25,29,129.93
1133,E-4,148.75,0.25,28,129.93
1134,C5,148.875,0.125,49,129.93
1135,B-4,149.0,0.25,56,129.93
1136,G3,149.0,0.25,29,129.93
1137,B-3,149.0,0.25,29,129.93
1138,A4,149.25,0.25,52,129.93
1139,E-4,149.25,0.25,28,129.93
1140,B-4,149.5,0.5,56,129.93
1141,F#3,149.5,0.25,29,129.93
1142,B-3,149.5,0.25,29,129.93
1143,E-4,149.75,0.25,28,129.93
1144,F5,150.0,0.5,58,129.93
1145,F3,150.0,0.25,29,129.93
1146,B-3,150.0,0.25,29,129.93
1147,C#4,150.25,0.25,28,129.93
1148,E-5,150.5,0.25,59,129.93
1149,F3,150.5,0.25,29,129.93
1150,B-3,150.5,0.25,29,129.93
1151,C#5,150.75,0.25,54,129.93
1152,C#4,150.75,0.25,28,129.93
1153,C5,151.0,0.25,58,129.93
1154,F3,151.0,0.25,29,129.93
1155,B-3,151.0,0.25,29,129.93
1156,B-4,151.25,0.25,58,129.93
1157,C#4,151.25,0.25,28,129.93
1158,F5,151.5,0.5,58,129.93
1159,F3,151.5,0.25,29,129.93
1160,B-3,151.5,0.25,29,129.93
1161,C4,151.75,0.25,28,129.93
1162,F4,152.0,0.5,56,129.93
1163,F3,152.0,0.25,29,129.93
1164,A3,152.0,0.25,29,129.93
1165,C4,152.25,0.25,28,129.93
1166,F4,152.5,0.5,56,129.93
1167,F3,152.5,0.25,29,129.93
1168,A3,152.5,0.25,29,129.93
1169,C4,152.75,0.25,30,129.93
1170,C#4,153.0,1.5,37,129.93
1171,F4,153.0,0.5,44,129.93
1172,C#5,153.0,0.25,40,129.93
1173,F5,153.0,0.25,40,129.93
1174,G#5,153.25,0.25,39,129.93
1175,F#4,153.5,0.5,40,129.93
1176,C#5,153.5,0.25,42,129.93
1177,F5,153.5,0.25,42,129.93
1178,G#5,153.75,0.25,38,129.93
1179,F4,154.0,0.5,40,129.93
1180,C#5,154.0,0.25,42,129.93
1181,F5,154.0,0.25,42,129.93
1182,G#5,154.25,0.25,39,129.93
1183,F#3,154.5,1.5,37,129.93
1184,E-4,154.5,0.5,44,129.93
1185,C#5,154.5,0.25,40,129.93
1186,B-5,154.5,0.25,40,129.93
1187,C#6,154.75,0.25,39,129.93
1188,B-3,155.0,0.5,42,129.93
1189,C#5,155.0,0.25,43,129.93
1190,B-5,155.0,0.25,43,129.93
1191,C#6,155.25,0.25,39,129.93
1192,C4,155.5,0.5,44,129.93
1193,C#5,155.5,0.25,45,129.93
1194,B-5,155.5,0.25,45,129.93
1195,C#6,155.75,0.25,43,129.93
1196,E-4,155.875,0.125,40,129.93
1197,G#3,156.0,1.5,37,129.93
1198,C#4,156.0,0.5,44,129.93
1199,C#5,156.0,0.25,40,129.93
1200,F5,156.0,0.25,40,129.93
1201,G#5,156.25,0.25,38,129.93
1202,C4,156.5,0.5,38,129.93
1203,C#5,156.5,0.25,38,129.93
1204,F5,156.5,0.25,38,129.93
1205,G#5,156.75,0.25,34,129.93
1206,C#4,157.0,0.5,35,129.93
1207,C#5,157.0,0.25,37,129.93
1208,F5,157.0,0.25,37,129.93
1209,G#5,157.25,0.25,33,129.93
1210,E-4,157.5,1.0,37,129.93
1211,G#3,157.5,1.5,37,129.93
1212,C5,157.5,0.25,34,129.93
1213,F#5,157.5,0.25,34,129.93
1214,G#5,157.75,0.25,32,129.93
1215,C5,158.0,0.25,34,129.93
1216,F#5,158.0,0.25,34,129.93
1217,G#5,158.25,0.25,31,129.93
1218,E4,158.5,0.5,34,129.93
1219,C5,158.5,0.25,34,129.93
1220,F#5,158.5,0.25,34,129.93
1221,G#5,158.75,0.25,32,129.93
1222,C#5,159.0,0.5,33,129.93
1223,F5,159.0,0.5,33,129.93
1224,G#5,159.0,0.5,33,129.93
1225,C#4,159.0,0.125,32,129.93
1226,F4,159.0,0.125,32,129.93
1227,C#3,159.5,0.125,28,129.93
1228,C#3,160.0,0.125,28,129.93
1229,C#4,160.5,0.125,29,129.93
1230,F4,160.5,0.125,29,129.93
1231,C#3,161.0,0.125,28,129.93
1232,C#3,161.5,0.125,28,129.93
1233,C#5,161.875,0.125,40,129.93
1234,F5,161.938,0.062,40,129.93
1235,G#5,162.0,0.25,51,129.93
1236,C#5,162.0,0.25,40,129.93
1237,F5,162.0,0.25,40,129.93
1238,C#4,162.0,0.125,30,129.93
1239,F4,162.0,0.125,30,129.93
1240,F#5,162.5,0.25,40,129.93
1241,C#3,162.5,0.125,28,129.93
1242,F5,162.75,0.25,40,129.93
1243,E-5,163.0,0.25,40,129.93
1244,C#3,163.0,0.125,28,129.93
1245,C#5,163.25,0.25,40,129.93
1246,G#4,163.375,0.125,40,129.93
1247,C5,163.438,0.062,40,129.93
1248,E-5,163.5,0.25,49,129.93
1249,G#4,163.5,0.25,40,129.93
1250,C5,163.5,0.25,40,129.93
1251,C#4,163.5,0.125,31,129.93
1252,F#4,163.5,0.125,31,129.93
1253,C#5,164.0,0.25,40,129.93
1254,C#3,164.0,0.125,28,129.93
1255,C5,164.25,0.25,40,129.93
1256,B-4,164.5,0.25,40,129.93
1257,C#3,164.5,0.125,28,129.93
1258,G#4,164.75,0.25,40,129.93
1259,C#5,164.875,0.125,40,129.93
1260,F5,164.938,0.062,40,129.93
1261,G#5,165.0,0.25,53,129.93
1262,C#5,165.0,0.25,40,129.93
1263,F5,165.0,0.25,40,129.93
1264,C#4,165.0,0.125,30,129.93
1265,F4,165.0,0.125,30,129.93
1266,F#5,165.5,0.25,42,129.93
1267,C#3,165.5,0.125,28,129.93
1268,F5,165.75,0.25,45,129.93
1269,E-5,166.0,0.25,47,129.93
1270,C#3,166.0,0.125,33,129.93
1271,C#5,166.25,0.25,51,129.93
1272,C#6,166.5,0.125,57,129.93
1273,B-5,166.5,0.125,57,129.93
1274,F#5,166.5,0.125,57,129.93
1275,C#4,166.5,0.125,34,129.93
1276,F#4,166.5,0.125,34,129.93
1277,C#3,167.0,0.125,28,129.93
1278,F#5,167.0,0.125,51,129.93
1279,B-5,167.0,0.125,51,129.93
1280,C#6,167.0,0.125,51,129.93
1281,C#3,167.5,0.125,28,129.93
1282,F#5,167.5,0.125,51,129.93
1283,B-5,167.5,0.125,51,129.93
1284,C#6,167.5,0.125,51,129.93
1285,B-3,168.0,0.125,30,129.93
1286,C#4,168.0,0.125,30,129.93
1287,F#4,168.0,0.125,30,129.93
1288,C#3,168.5,0.125,25,129.93
1289,C#3,169.0,0.125,25,129.93
1290,B-3,169.5,0.125,27,129.93
1291,C#4,169.5,0.125,27,129.93
1292,F#4,169.5,0.125,27,129.93
1293,C#3,170.0,0.125,25,129.93
1294,C#3,170.5,0.125,25,129.93
1295,F4,171.0,0.5,49,129.93
1296,G#3,171.0,0.125,26,129.93
1297,C#4,171.0,0.125,26,129.93
1298,G#4,171.375,0.125,32,129.93
1299,F#4,171.5,0.5,41,129.93
1300,C#3,171.5,0.125,24,129.93
1301,F4,172.0,0.5,41,129.93
1302,C#3,172.0,0.125,24,129.93
1303,E-4,172.5,0.5,48,129.93
1304,F#3,172.5,0.125,28,129.93
1305,B-3,172.5,0.125,28,129.93
1306,F4,173.0,0.25,41,129.93
1307,F#2,173.0,0.125,24,129.93
1308,F#4,173.25,0.25,41,129.93
1309,G#4,173.5,0.25,43,129.93
1310,F#2,173.5,0.125,24,129.93
1311,B-4,173.75,0.25,44,129.93
1312,C5,174.0,0.5,52,129.93
1313,E-4,174.0,0.125,26,129.93
1314,F#4,174.0,0.125,26,129.93
1315,B-4,174.5,0.25,50,129.93
1316,G#3,174.5,0.125,24,129.93
1317,C5,174.75,0.25,46,129.93
1318,C#5,175.0,0.25,48,129.93
1319,G#3,175.0,0.125,24,129.93
1320,E-5,175.25,0.25,50,129.93
1321,F5,175.5,0.125,53,129.93
1322,F4,175.5,0.125,26,129.93
1323,C#4,175.5,0.125,26,129.93
1324,F5,176.0,0.125,45,129.93
1325,C#3,176.0,0.125,24,129.93
1326,F5,176.5,0.125,44,129.93
1327,C#3,176.5,0.125,24,129.93
1328,C#4,177.0,0.125,28,129.93
1329,F4,177.0,0.125,28,129.93
1330,C#3,177.5,0.125,25,129.93
1331,C#3,178.0,0.125,25,129.93
1332,C#4,178.5,0.125,28,129.93
1333,F4,178.5,0.125,28,129.93
1334,C#3,179.0,0.125,28,129.93
1335,C#3,179.5,0.125,28,129.93
1336,C#5,179.875,0.125,40,129.93
1337,F5,179.938,0.062,40,129.93
1338,G#5,180.0,0.25,51,129.93
1339,C#5,180.0,0.25,40,129.93
1340,F5,180.0,0.25,40,129.93
1341,C#4,180.0,0.125,30,129.93
1342,F4,180.0,0.125,30,129.93
1343,F#5,180.5,0.25,40,129.93
1344,C#3,180.5,0.125,28,129.93
1345,F5,180.75,0.25,40,129.93
1346,E-5,181.0,0.25,40,129.93
1347,C#3,181.0,0.125,28,129.93
1348,C#5,181.25,0.25,40,129.93
1349,G#4,181.375,0.125,40,129.93
1350,C5,181.438,0.062,40,129.93
1351,E-5,181.5,0.25,49,129.93
1352,G#4,181.5,0.25,40,129.93
1353,C5,181.5,0.25,40,129.93
1354,C#4,181.5,0.125,31,129.93
1355,F#4,181.5,0.125,31,129.93
1356,C#5,182.0,0.25,40,129.93
1357,C#3,182.0,0.125,28,129.93
1358,C5,182.25,0.25,40,129.93
1359,B-4,182.5,0.25,40,129.93
1360,C#3,182.5,0.125,28,129.93
1361,G#4,182.75,0.25,40,129.93
1362,C#5,182.875,0.125,40,129.93
1363,F5,182.938,0.062,40,129.93
1364,G#5,183.0,0.25,53,129.93
1365,C#5,183.0,0.25,40,129.93
1366,F5,183.0,0.25,40,129.93
1367,C#4,183.0,0.125,30,129.93
1368,F4,183.0,0.125,30,129.93
1369,F#5,183.5,0.25,42,129.93
1370,C#3,183.5,0.125,28,129.93
1371,F5,183.75,0.25,45,129.93
1372,E-5,184.0,0.25,47,129.93
1373,C#3,184.0,0.125,33,129.93
1374,C#5,184.25,0.25,51,129.93
1375,C#6,184.5,0.125,57,129.93
1376,A5,184.5,0.125,57,129.93
1377,F#5,184.5,0.125,57,129.93
1378,C#4,184.5,0.125,34,129.93
1379,F#4,184.5,0.125,34,129.93
1380,C#3,185.0,0.125,28,129.93
1381,F#5,185.0,0.125,51,129.93
1382,A5,185.0,0.125,51,129.93
1383,C#6,185.0,0.125,51,129.93
1384,C#3,185.5,0.125,28,129.93
1385,F#5,185.5,0.125,51,129.93
1386,A5,185.5,0.125,51,129.93
1387,C#6,185.5,0.125,51,129.93
1388,A3,186.0,0.125,30,129.93
1389,C#4,186.0,0.125,30,129.93
1390,F#4,186.0,0.125,30,129.93
1391,F#3,186.5,0.125,25,129.93
1392,F#3,187.0,0.125,25,129.93
1393,A3,187.5,0.125,27,129.93
1394,C#4,187.5,0.125,27,129.93
1395,F#4,187.5,0.125,27,129.93
1396,F#3,188.0,0.125,25,129.93
1397,F#3,188.5,0.125,25,129.93
1398,C#5,189.0,0.5,53,129.93
1399,F#4,189.0,0.125,26,129.93
1400,A3,189.0,0.125,26,129.93
1401,C#4,189.0,0.125,26,129.93
1402,E5,189.375,0.125,38,129.93
1403,D5,189.5,0.5,45,129.93
1404,F#3,189.5,0.125,24,129.93
1405,C#5,190.0,0.5,45,129.93
1406,F#3,190.0,0.125,24,129.93
1407,B4,190.5,0.5,52,129.93
1408,D4,190.5,0.125,28,129.93
1409,F#4,190.5,0.125,28,129.93
1410,C#5,191.0,0.25,45,129.93
1411,D3,191.0,0.125,24,129.93
1412,D5,191.25,0.25,45,129.93
1413,E5,191.5,0.25,47,129.93
1414,D3,191.5,0.125,24,129.93
1415,F#5,191.75,0.25,48,129.93
1416,G#5,192.0,0.5,52,129.93
1417,D4,192.0,0.125,26,129.93
1418,E4,192.0,0.125,26,129.93
1419,F#5,192.5,0.25,53,129.93
1420,E3,192.5,0.125,24,129.93
1421,G#5,192.75,0.25,43,129.93
1422,A5,193.0,0.25,46,129.93
1423,E3,193.0,0.125,24,129.93
1424,B5,193.25,0.25,49,129.93
1425,C#6,193.5,0.125,52,129.93
1426,E4,193.5,0.125,26,129.93
1427,C#4,193.5,0.125,26,129.93
1428,C#6,194.0,0.125,49,129.93
1429,A3,194.0,0.125,24,129.93
1430,C#6,194.5,0.125,48,129.93
1431,A3,194.5,0.125,24,129.93
1432,C#4,195.0,0.125,28,129.93
1433,E4,195.0,0.125,28,129.93
1434,A3,195.5,0.125,25,129.93
1435,A3,196.0,0.125,26,129.93
1436,C#5,196.5,0.125,53,129.93
1437,E4,196.5,0.125,26,129.93
1438,C#4,196.5,0.125,26,129.93
1439,C#5,197.0,0.125,45,129.93
1440,A3,197.0,0.125,24,129.93
1441,C#5,197.5,0.125,45,129.93
1442,A3,197.5,0.125,24,129.93
1443,C#5,198.0,0.5,52,129.93
1444,C#4,198.0,0.125,28,129.93
1445,E4,198.0,0.125,28,129.93
1446,E5,198.5,0.25,45,129.93
1447,B-3,198.5,0.125,24,129.93
1448,D5,198.75,0.25,45,129.93
1449,C#5,199.0,0.25,47,129.93
1450,B-3,199.0,0.125,24,129.93
1451,E5,199.25,0.25,48,129.93
1452,D5,199.5,0.125,52,129.93
1453,D4,199.5,0.125,26,129.93
1454,E4,199.5,0.125,26,129.93
1455,D5,200.0,0.125,52,129.93
1456,B3,200.0,0.125,24,129.93
1457,D5,200.5,0.125,51,129.93
1458,B3,200.5,0.125,24,129.93
1459,D6,201.0,0.125,52,129.93
1460,E4,201.0,0.125,26,129.93
1461,D4,201.0,0.125,26,129.93
1462,D6,201.5,0.125,49,129.93
1463,B3,201.5,0.125,24,129.93
1464,D6,202.0,0.125,48,129.93
1465,B3,202.0,0.125,24,129.93
1466,D4,202.5,0.125,24,129.93
1467,E4,202.5,0.125,24,129.93
1468,B3,203.0,0.125,22,129.93
1469,B3,203.5,0.125,22,129.93
1470,D5,204.0,0.125,53,129.93
1471,E4,204.0,0.125,26,129.93
1472,D4,204.0,0.125,26,129.93
1473,D5,204.5,0.125,45,129.93
1474,B3,204.5,0.125,24,129.93
1475,D5,205.0,0.125,45,129.93
1476,B3,205.0,0.125,24,129.93
1477,D5,205.5,0.5,52,129.93
1478,D4,205.5,0.125,28,129.93
1479,F4,205.5,0.125,28,129.93
1480,F5,206.0,0.25,45,129.93
1481,B3,206.0,0.125,24,129.93
1482,E5,206.25,0.25,45,129.93
1483,D5,206.5,0.25,47,129.93
1484,B3,206.5,0.125,24,129.93
1485,F5,206.75,0.25,48,129.93
1486,D5,207.0,0.125,52,129.93
1487,D4,207.0,0.125,26,129.93
1488,F4,207.0,0.125,26,129.93
1489,D5,207.5,0.125,52,129.93
1490,B3,207.5,0.125,24,129.93
1491,D5,208.0,0.125,52,129.93
1492,B3,208.0,0.125,24,129.93
1493,D6,208.5,0.125,52,129.93
1494,F4,208.5,0.125,26,129.93
1495,D4,208.5,0.125,26,129.93
1496,D6,209.0,0.125,49,129.93
1497,B3,209.0,0.125,24,129.93
1498,D6,209.5,0.125,48,129.93
1499,B3,209.5,0.125,24,129.93
1500,D5,210.0,0.5,56,129.93
1501,B3,210.0,0.25,29,129.93
1502,D4,210.0,0.25,29,129.93
1503,F4,210.25,0.25,26,129.93
1504,C#5,210.5,0.5,52,129.93
1505,D4,210.5,0.25,25,129.93
1506,B3,210.5,0.25,25,129.93
1507,F4,210.75,0.25,26,129.93
1508,D5,211.0,0.5,52,129.93
1509,D4,211.0,0.25,25,129.93
1510,B3,211.0,0.25,25,129.93
1511,F4,211.25,0.25,26,129.93
1512,D6,211.5,0.5,56,129.93
1513,B-3,211.5,0.25,29,129.93
1514,D4,211.5,0.25,29,129.93
1515,F4,211.75,0.25,26,129.93
1516,C#6,212.0,0.5,52,129.93
1517,D4,212.0,0.25,25,129.93
1518,B-3,212.0,0.25,25,129.93
1519,F4,212.25,0.25,26,129.93
1520,D6,212.5,0.5,52,129.93
1521,D4,212.5,0.25,25,129.93
1522,B-3,212.5,0.25,25,129.93
1523,F4,212.75,0.25,26,129.93
1524,B-5,213.0,0.5,54,129.93
1525,B-3,213.0,0.25,34,129.93
1526,D4,213.0,0.25,34,129.93
1527,F4,213.25,0.25,25,129.93
1528,A5,213.5,0.5,47,129.93
1529,B-3,213.5,0.25,26,129.93
1530,D4,213.5,0.25,26,129.93
1531,F4,213.75,0.25,24,129.93
1532,B-5,214.0,0.5,48,129.93
1533,B-3,214.0,0.25,26,129.93
1534,D4,214.0,0.25,26,129.93
1535,F4,214.25,0.25,25,129.93
1536,G5,214.5,0.5,51,129.93
1537,B-3,214.5,0.25,32,129.93
1538,E-4,214.5,0.25,32,129.93
1539,G4,214.75,0.25,26,129.93
1540,A5,215.0,0.25,48,129.93
1541,B-3,215.0,0.25,28,129.93
1542,E-4,215.0,0.25,28,129.93
1543,B-5,215.25,0.25,49,129.93
1544,G4,215.25,0.25,25,129.93
1545,C6,215.5,0.25,51,129.93
1546,B-3,215.5,0.25,28,129.93
1547,E-4,215.5,0.25,28,129.93
1548,D6,215.75,0.25,52,129.93
1549,G4,215.75,0.25,25,129.93
1550,B-5,216.0,0.5,57,129.93
1551,B-3,216.0,0.25,39,129.93
1552,D4,216.0,0.25,39,129.93
1553,F4,216.25,0.25,28,129.93
1554,C6,216.5,0.25,58,129.93
1555,D4,216.5,0.25,28,129.93
1556,B-3,216.5,0.25,28,129.93
1557,B-5,216.75,0.25,51,129.93
1558,F4,216.75,0.25,26,129.93
1559,A5,217.0,0.25,56,129.93
1560,B-3,217.0,0.25,29,129.93
1561,D4,217.0,0.25,29,129.93
1562,G5,217.25,0.25,51,129.93
1563,F4,217.25,0.25,26,129.93
1564,F5,217.5,0.125,61,129.93
1565,A3,217.5,0.25,36,129.93
1566,E-4,217.5,0.25,36,129.93
1567,F4,217.75,0.25,28,129.93
1568,F5,218.0,0.125,56,129.93
1569,A3,218.0,0.25,29,129.93
1570,E-4,218.0,0.25,29,129.93
1571,F4,218.25,0.25,29,129.93
1572,F5,218.5,0.125,56,129.93
1573,A3,218.5,0.25,30,129.93
1574,E-4,218.5,0.25,30,129.93
1575,F4,218.75,0.25,28,129.93
1576,F#5,219.0,0.5,69,129.93
1577,A3,219.0,0.25,38,129.93
1578,E-4,219.0,0.25,38,129.93
1579,F#4,219.25,0.25,29,129.93
1580,F#6,219.5,0.5,66,129.93
1581,A3,219.5,0.25,31,129.93
1582,E-4,219.5,0.25,31,129.93
1583,F#4,219.75,0.25,29,129.93
1584,F#6,220.0,0.125,67,129.93
1585,A3,220.0,0.25,31,129.93
1586,E-4,220.0,0.25,31,129.93
1587,F#4,220.25,0.25,30,129.93
1588,G6,220.5,0.5,76,129.93
1589,B-3,220.5,0.25,37,129.93
1590,E-4,220.5,0.25,37,129.93
1591,G4,220.75,0.25,30,129.93
1592,G5,221.0,0.5,61,129.93
1593,B-3,221.0,0.25,32,129.93
1594,E-4,221.0,0.25,32,129.93
1595,G4,221.25,0.25,30,129.93
1596,G5,221.5,0.125,61,129.93
1597,B-3,221.5,0.25,32,129.93
1598,E-4,221.5,0.25,32,129.93
1599,G4,221.75,0.25,30,129.93
1600,A5,222.0,0.125,65,129.93
1601,C4,222.0,0.25,38,129.93
1602,E-4,222.0,0.25,38,129.93
1603,G4,222.25,0.25,31,129.93
1604,B-6,222.438,0.062,62,129.93
1605,A6,222.5,0.25,65,129.93
1606,C4,222.5,0.25,32,129.93
1607,E-4,222.5,0.25,32,129.93
1608,G6,222.75,0.25,62,129.93
1609,G4,222.75,0.25,31,129.93
1610,A6,223.0,0.5,66,129.93
1611,C4,223.0,0.25,34,129.93
1612,E-4,223.0,0.25,34,129.93
1613,G4,223.25,0.25,32,129.93
1614,B-6,223.5,0.125,68,129.93
1615,G3,223.5,0.25,39,129.93
1616,D4,223.5,0.25,39,129.93
1617,G4,223.75,0.25,32,129.93
1618,C6,223.938,0.062,61,129.93
1619,B-5,224.0,0.25,63,129.93
1620,G3,224.0,0.25,34,129.93
1621,D4,224.0,0.25,34,129.93
1622,A5,224.25,0.25,60,129.93
1623,G4,224.25,0.25,32,129.93
1624,B-5,224.5,0.25,65,129.93
1625,G3,224.5,0.25,34,129.93
1626,D4,224.5,0.25,34,129.93
1627,G4,224.75,0.25,33,129.93
1628,E-4,225.0,0.5,62,129.93
1629,E-5,225.0,0.25,48,129.93
1630,G5,225.0,0.25,48,129.93
1631,B-5,225.25,0.25,46,129.93
1632,D4,225.5,0.5,52,129.93
1633,E-5,225.5,0.25,49,129.93
1634,G5,225.5,0.25,49,129.93
1635,B-5,225.75,0.25,45,129.93
1636,E-4,226.0,0.5,52,129.93
1637,E-5,226.0,0.25,49,129.93
1638,G5,226.0,0.25,49,129.93
1639,B-5,226.25,0.25,46,129.93
1640,C4,226.5,0.5,62,129.93
1641,E-5,226.5,0.25,50,129.93
1642,G5,226.5,0.25,50,129.93
1643,C6,226.75,0.25,46,129.93
1644,D4,227.0,0.25,50,129.93
1645,E-5,227.0,0.25,49,129.93
1646,G5,227.0,0.25,49,129.93
1647,C6,227.25,0.25,45,129.93
1648,E-4,227.25,0.25,50,129.93
1649,F4,227.5,0.25,52,129.93
1650,E-5,227.5,0.25,49,129.93
1651,G5,227.5,0.25,49,129.93
1652,C6,227.75,0.25,45,129.93
1653,G4,227.75,0.25,52,129.93
1654,E-4,228.0,0.5,60,129.93
1655,E-5,228.0,0.25,52,129.93
1656,G5,228.0,0.25,52,129.93
1657,B-5,228.25,0.25,46,129.93
1658,F4,228.5,0.25,57,129.93
1659,G5,228.5,0.25,49,129.93
1660,E-5,228.5,0.25,49,129.93
1661,B-5,228.75,0.25,45,129.93
1662,E-4,228.75,0.25,52,129.93
1663,D4,229.0,0.25,57,129.93
1664,E-5,229.0,0.25,49,129.93
1665,G5,229.0,0.25,49,129.93
1666,B-5,229.25,0.25,45,129.93
1667,C4,229.25,0.25,52,129.93
1668,B-3,229.5,0.125,61,129.93
1669,D5,229.5,0.25,56,129.93
1670,G#5,229.5,0.25,56,129.93
1671,B-5,229.75,0.25,46,129.93
1672,B-3,230.0,0.125,52,129.93
1673,D5,230.0,0.25,49,129.93
1674,G#5,230.0,0.25,49,129.93
1675,B-5,230.25,0.25,48,129.93
1676,B-3,230.5,0.125,52,129.93
1677,D5,230.5,0.25,49,129.93
1678,G#5,230.5,0.25,49,129.93
1679,B-5,230.75,0.25,46,129.93
1680,B3,231.0,0.5,60,129.93
1681,D5,231.0,0.25,54,129.93
1682,G#5,231.0,0.25,54,129.93
1683,D6,231.25,0.25,46,129.93
1684,B4,231.5,0.5,50,129.93
1685,D5,231.5,0.25,49,129.93
1686,G#5,231.5,0.25,49,129.93
1687,D6,231.75,0.25,46,129.93
1688,B4,232.0,0.125,53,129.93
1689,D5,232.0,0.25,49,129.93
1690,G#5,232.0,0.25,49,129.93
1691,D6,232.25,0.25,46,129.93
1692,C5,232.5,0.5,62,129.93
1693,E-5,232.5,0.25,52,129.93
1694,G5,232.5,0.25,52,129.93
1695,E-6,232.75,0.25,46,129.93
1696,C4,233.0,0.5,58,129.93
1697,E-5,233.0,0.25,49,129.93
1698,G5,233.0,0.25,49,129.93
1699,E-6,233.25,0.25,46,129.93
1700,C4,233.5,0.125,60,129.93
1701,E-5,233.5,0.25,49,129.93
1702,G5,233.5,0.25,49,129.93
1703,D6,233.75,0.25,46,129.93
1704,F4,234.0,0.125,66,129.93
1705,E-5,234.0,0.25,49,129.93
1706,A5,234.0,0.25,49,129.93
1707,C6,234.25,0.25,46,129.93
1708,G3,234.375,167/1000,58,129.93
1709,F3,234.5,73/250,67,129.93
1710,E-5,234.5,0.25,49,129.93
1711,A5,234.5,0.25,49,129.93
1712,C6,234.75,0.25,46,129.93
1713,E3,234.75,73/250,62,129.93
1714,F3,235.0,0.5,66,129.93
1715,E-5,235.0,0.25,49,129.93
1716,A5,235.0,0.25,49,129.93
1717,C6,235.25,0.25,46,129.93
1718,B-3,235.5,0.125,62,129.93
1719,D5,235.5,0.25,49,129.93
1720,B-5,235.5,0.25,49,129.93
1721,D6,235.75,0.25,46,129.93
1722,C3,235.875,167/1000,56,129.93
1723,B-2,236.0,73/250,62,129.93
1724,D5,236.0,0.25,49,129.93
1725,B-5,236.0,0.25,49,129.93
1726,D6,236.25,0.25,46,129.93
1727,A2,236.25,73/250,57,129.93
1728,B-2,236.5,0.5,62,129.93
1729,D5,236.5,0.25,49,129.93
1730,B-5,236.5,0.25,49,129.93
1731,D6,236.75,0.25,46,129.93
1732,F2,237.0,0.5,56,129.93
1733,E-5,237.0,0.25,50,129.93
1734,A5,237.0,0.25,50,129.93
1735,C6,237.25,0.25,46,129.93
1736,G2,237.5,0.25,44,129.93
1737,E-5,237.5,0.25,49,129.93
1738,A5,237.5,0.25,49,129.93
1739,C6,237.75,0.25,45,129.93
1740,A2,237.75,0.25,44,129.93
1741,B-2,238.0,0.25,47,129.93
1742,E-5,238.0,0.25,49,129.93
1743,A5,238.0,0.25,49,129.93
1744,C6,238.25,0.25,45,129.93
1745,C3,238.25,0.25,47,129.93
1746,B-2,238.5,0.125,53,129.93
1747,D5,238.5,0.25,52,129.93
1748,B-5,238.5,0.25,52,129.93
1749,D6,238.75,0.25,46,129.93
1750,B-2,239.0,0.125,53,129.93
1751,B-5,239.0,0.25,49,129.93
1752,D5,239.0,0.25,49,129.93
1753,D6,239.25,0.25,45,129.93
1754,B-2,239.5,0.125,53,129.93
1755,D5,239.5,0.25,49,129.93
1756,B-5,239.5,0.25,49,129.93
1757,D6,239.75,0.25,45,129.93
1758,F3,240.0,0.5,50,129.93
1759,E-5,240.0,0.25,45,129.93
1760,A5,240.0,0.25,45,129.93
1761,C6,240.25,0.25,41,129.93
1762,G3,240.5,0.25,39,129.93
1763,E-5,240.5,0.25,44,129.93
1764,A5,240.5,0.25,44,129.93
1765,C6,240.75,0.25,40,129.93
1766,A3,240.75,0.25,39,129.93
1767,B-3,241.0,0.25,41,129.93
1768,E-5,241.0,0.25,44,129.93
1769,A5,241.0,0.25,44,129.93
1770,C6,241.25,0.25,40,129.93
1771,C4,241.25,0.25,41,129.93
1772,B-3,241.5,0.125,48,129.93
1773,D5,241.5,0.25,46,129.93
1774,B-5,241.5,0.25,46,129.93
1775,D6,241.75,0.25,41,129.93
1776,B-3,242.0,0.125,48,129.93
1777,B-5,242.0,0.25,44,129.93
1778,D5,242.0,0.25,44,129.93
1779,D6,242.25,0.25,40,129.93
1780,B-3,242.5,0.125,48,129.93
1781,D5,242.5,0.25,44,129.93
1782,B-5,242.5,0.25,44,129.93
1783,D6,242.75,0.25,40,129.93
1784,F4,243.0,0.5,44,129.93
1785,E-5,243.0,0.25,39,129.93
1786,A5,243.0,0.25,39,129.93
1787,C6,243.25,0.25,37,129.93
1788,G4,243.5,0.25,34,129.93
1789,E-5,243.5,0.25,38,129.93
1790,A5,243.5,0.25,38,129.93
1791,C6,243.75,0.25,35,129.93
1792,A4,243.75,0.25,34,129.93
1793,B-4,244.0,0.25,37,129.93
1794,E-5,244.0,0.25,38,129.93
1795,A5,244.0,0.25,38,129.93
1796,C6,244.25,0.25,35,129.93
1797,C5,244.25,0.25,37,129.93
1798,B-4,244.5,0.5,42,129.93
1799,D6,244.5,0.5,43,129.93
1800,D5,244.5,0.5,43,129.93
1801,B-5,244.5,0.5,43,129.93
1802,C#4,246.0,1.0,45,129.93
1803,F4,246.0,1.0,45,129.93
1804,B-2,246.5,0.25,45,129.93
1805,C#4,247.0,0.5,45,129.93
1806,F4,247.0,0.5,45,129.93
1807,C#3,247.5,0.25,63,129.93
1808,C#4,247.75,0.25,45,129.93
1809,F4,247.75,0.25,45,129.93
1810,C4,248.25,0.188,39,129.93
1811,E-4,248.25,0.188,39,129.93
1812,F4,248.25,0.188,39,129.93
1813,B-3,248.75,0.188,40,129.93
1814,C#4,248.75,0.188,40,129.93
1815,F4,248.75,0.188,40,129.93
1816,A3,249.25,1.0,43,129.93
1817,C4,249.25,1.0,43,129.93
1818,F4,249.25,1.0,43,129.93
1819,F#2,249.5,0.5,45,129.93
1820,A3,250.25,0.5,43,129.93
1821,C4,250.25,0.5,43,129.93
1822,F4,250.25,0.5,43,129.93
1823,F2,250.5,0.25,63,129.93
1824,A3,251.0,0.25,43,129.93
1825,C4,251.0,0.25,43,129.93
1826,F4,251.0,0.25,43,129.93
1827,B-3,251.5,0.188,39,129.93
1828,C#4,251.5,0.188,39,129.93
1829,F4,251.5,0.188,39,129.93
1830,C4,252.0,0.188,40,129.93
1831,E-4,252.0,0.188,40,129.93
1832,F4,252.0,0.188,40,129.93
1833,B-2,252.5,0.5,45,129.93
1834,C#4,252.5,1.0,45,129.93
1835,F4,252.5,1.0,45,129.93
1836,C#3,253.5,0.5,63,129.93
1837,C#4,253.5,0.5,45,129.93
1838,F4,253.5,0.5,45,129.93
1839,C#4,254.5,0.5,45,129.93
1840,F4,254.5,0.5,45,129.93
1841,C4,255.0,0.188,39,129.93
1842,E-4,255.0,0.188,39,129.93
1843,F4,255.0,0.188,39,129.93
1844,F2,255.5,0.5,38,129.93
1845,B-3,255.5,0.188,40,129.93
1846,C#4,255.5,0.188,40,129.93
1847,F4,255.5,0.188,40,129.93
1848,G#3,256.0,1.0,36,129.93
1849,C#4,256.0,1.0,36,129.93
1850,F4,256.0,1.0,36,129.93
1851,G#1,256.5,0.25,43,129.93
1852,G#3,257.0,0.5,36,129.93
1853,C#4,257.0,0.5,36,129.93
1854,F4,257.0,0.5,36,129.93
1855,G#3,257.75,0.25,36,129.93
1856,C#4,257.75,0.25,36,129.93
1857,F4,257.75,0.25,36,129.93
1858,G#3,258.25,0.188,32,129.93
1859,F4,258.25,0.188,32,129.93
1860,G#4,258.25,0.188,32,129.93
1861,C#2,258.5,0.5,38,129.93
1862,G#3,258.75,0.188,33,129.93
1863,F4,258.75,0.188,33,129.93
1864,G#4,258.75,0.188,33,129.93
1865,G#3,259.25,1.0,36,129.93
1866,C#4,259.25,1.0,36,129.93
1867,F4,259.25,1.0,36,129.93
1868,C#2,259.5,0.25,39,129.93
1869,C#3,260.0,0.25,32,129.93
1870,G#3,260.25,0.5,36,129.93
1871,C#4,260.25,0.5,36,129.93
1872,F4,260.25,0.5,36,129.93
1873,C3,260.5,0.25,29,129.93
1874,G#3,261.25,0.5,36,129.93
1875,C#4,261.25,0.5,36,129.93
1876,F4,261.25,0.5,36,129.93
1877,B-2,261.5,0.25,45,129.93
1878,C#3,262.5,0.25,63,129.93
1879,C#4,262.75,1.0,45,129.93
1880,F4,262.75,1.0,45,129.93
1881,C#4,263.75,0.5,45,129.93
1882,F4,263.75,0.5,45,129.93
1883,F#2,264.5,0.5,45,129.93
1884,C#4,264.5,0.25,45,129.93
1885,F4,264.5,0.25,45,129.93
1886,C4,265.0,0.188,39,129.93
1887,E-4,265.0,0.188,39,129.93
1888,F4,265.0,0.188,39,129.93
1889,F2,265.5,0.25,63,129.93
1890,B-3,265.5,0.188,40,129.93
1891,C#4,265.5,0.188,40,129.93
1892,F4,265.5,0.188,40,129.93
1893,A3,266.0,1.0,43,129.93
1894,C4,266.0,1.0,43,129.93
1895,F4,266.0,1.0,43,129.93
1896,A3,267.0,0.5,43,129.93
1897,C4,267.0,0.5,43,129.93
1898,F4,267.0,0.5,43,129.93
1899,B-2,267.5,0.5,45,129.93
1900,A3,267.75,0.25,43,129.93
1901,C4,267.75,0.25,43,129.93
1902,F4,267.75,0.25,43,129.93
1903,B-3,268.25,0.188,39,129.93
1904,C#4,268.25,0.188,39,129.93
1905,F4,268.25,0.188,39,129.93
1906,C#3,268.5,0.5,63,129.93
1907,C4,268.75,0.188,40,129.93
1908,E-4,268.75,0.188,40,129.93
1909,F4,268.75,0.188,40,129.93
1910,C#4,269.25,1.0,45,129.93
1911,F4,269.25,1.0,45,129.93
1912,C#4,270.25,0.5,45,129.93
1913,F4,270.25,0.5,45,129.93
1914,F2,270.5,0.5,38,129.93
1915,C#4,271.25,0.5,45,129.93
1916,F4,271.25,0.5,45,129.93
1917,G#1,271.5,0.25,43,129.93
1918,C4,271.75,0.188,39,129.93
1919,E-4,271.75,0.188,39,129.93
1920,F4,271.75,0.188,39,129.93
1921,B-3,272.25,0.188,40,129.93
1922,C#4,272.25,0.188,40,129.93
1923,F4,272.25,0.188,40,129.93
1924,G#3,272.75,1.0,36,129.93
1925,C#4,272.75,1.0,36,129.93
1926,F4,272.75,1.0,36,129.93
1927,C#2,273.5,0.5,38,129.93
1928,G#3,273.75,0.5,36,129.93
1929,C#4,273.75,0.5,36,129.93
1930,F4,273.75,0.5,36,129.93
1931,C#2,274.5,0.25,39,129.93
1932,G#3,274.5,0.25,36,129.93
1933,C#4,274.5,0.25,36,129.93
1934,F4,274.5,0.25,36,129.93
1935,C#3,275.0,0.25,32,129.93
1936,G#3,275.0,0.188,32,129.93
1937,F4,275.0,0.188,32,129.93
1938,G#4,275.0,0.188,32,129.93
1939,C3,275.5,0.25,29,129.93
1940,G#3,275.5,0.188,33,129.93
1941,F4,275.5,0.188,33,129.93
1942,G#4,275.5,0.188,33,129.93
1943,G#3,276.0,1.0,36,129.93
1944,C#4,276.0,1.0,36,129.93
1945,F4,276.0,1.0,36,129.93
1946,B-2,276.5,0.5,45,129.93
1947,G#3,277.0,0.5,36,129.93
1948,C#4,277.0,0.5,36,129.93
1949,F4,277.0,0.5,36,129.93
1950,C#3,277.5,0.5,67,129.93
1951,G#3,278.0,0.5,36,129.93
1952,C#4,278.0,0.5,36,129.93
1953,F4,278.0,0.5,36,129.93
1954,C3,279.5,0.5,51,129.93
1955,B-3,279.5,1.0,43,129.93
1956,C#4,279.5,1.0,43,129.93
1957,F#4,279.5,1.0,43,129.93
1958,C2,280.5,0.5,73,129.93
1959,B-3,280.5,0.5,44,129.93
1960,C#4,280.5,0.5,44,129.93
1961,F#4,280.5,0.5,44,129.93
1962,B-3,281.5,0.5,44,129.93
1963,C#4,281.5,0.5,44,129.93
1964,F#4,281.5,0.5,44,129.93
1965,B-3,282.0,0.188,43,129.93
1966,C#4,282.0,0.188,43,129.93
1967,G#4,282.0,0.188,43,129.93
1968,C3,282.5,0.5,43,129.93
1969,B-3,282.5,0.188,44,129.93
1970,C#4,282.5,0.188,44,129.93
1971,B-4,282.5,0.188,44,129.93
1972,G#3,283.0,1.0,48,129.93
1973,C4,283.0,1.0,48,129.93
1974,F4,283.0,1.0,48,129.93
1975,E-3,283.5,0.5,35,129.93
1976,G#3,284.0,0.5,47,129.93
1977,C4,284.0,0.5,47,129.93
1978,F4,284.0,0.5,47,129.93
1979,G#3,285.0,0.5,47,129.93
1980,C4,285.0,0.5,47,129.93
1981,F4,285.0,0.5,47,129.93
1982,G#2,285.5,0.25,45,129.93
1983,G3,285.5,0.188,44,129.93
1984,C4,285.5,0.188,44,129.93
1985,E4,285.5,0.188,44,129.93
1986,F#2,286.0,0.25,48,129.93
1987,G3,286.0,0.188,45,129.93
1988,C4,286.0,0.188,45,129.93
1989,E4,286.0,0.188,45,129.93
1990,F2,286.5,0.25,42,129.93
1991,E-4,286.5,1.0,43,129.93
1992,G#3,286.5,1.0,43,129.93
1993,C4,286.5,1.0,43,129.93
1994,E-4,287.5,0.5,45,129.93
1995,G#3,287.5,0.5,42,129.93
1996,C4,287.5,0.5,42,129.93
1997,E-4,288.0,0.5,45,129.93
1998,B-3,288.0,0.5,34,129.93
1999,C#4,288.0,0.5,34,129.93
2000,B-3,288.5,0.5,45,129.93
2001,G3,288.5,0.188,39,129.93
2002,B-3,288.5,0.188,39,129.93
2003,E-4,288.5,0.188,39,129.93
2004,G3,289.0,0.188,40,129.93
2005,B-3,289.0,0.188,40,129.93
2006,E-4,289.0,0.188,40,129.93
2007,C#4,289.5,0.5,63,129.93
2008,G#4,289.5,1.0,43,129.93
2009,C4,289.5,1.0,43,129.93
2010,E-4,289.5,1.0,43,129.93
2011,G#4,290.5,0.5,50,129.93
2012,C4,290.5,0.5,46,129.93
2013,E-4,290.5,0.5,46,129.93
2014,A4,291.5,0.5,47,129.93
2015,F#3,291.5,0.5,45,129.93
2016,C4,291.5,0.5,46,129.93
2017,E-4,291.5,0.5,46,129.93
2018,C4,292.0,0.188,39,129.93
2019,E-4,292.0,0.188,39,129.93
2020,F4,292.0,0.188,39,129.93
2021,F3,292.5,0.5,63,129.93
2022,C4,292.5,0.188,40,129.93
2023,E-4,292.5,0.188,40,129.93
2024,F4,292.5,0.188,40,129.93
2025,F4,293.0,1.0,45,129.93
2026,C#5,293.0,1.0,45,129.93
2027,F4,294.0,0.5,45,129.93
2028,C#5,294.0,0.5,45,129.93
2029,B-2,294.5,0.5,45,129.93
2030,F4,295.0,0.5,45,129.93
2031,C#5,295.0,0.5,45,129.93
2032,C#3,295.5,0.5,63,129.93
2033,E-4,295.5,0.188,41,129.93
2034,F4,295.5,0.188,41,129.93
2035,C5,295.5,0.188,41,129.93
2036,C#4,296.0,0.188,40,129.93
2037,F4,296.0,0.188,40,129.93
2038,B-4,296.0,0.188,40,129.93
2039,F4,296.5,1.0,43,129.93
2040,C4,296.5,1.0,43,129.93
2041,A4,296.5,1.0,43,129.93
2042,F2,297.5,0.5,45,129.93
2043,F4,297.5,0.5,43,129.93
2044,C4,297.5,0.5,43,129.93
2045,A4,297.5,0.5,43,129.93
2046,F1,298.5,0.5,64,129.93
2047,F4,298.5,0.5,43,129.93
2048,C4,298.5,0.5,43,129.93
2049,A4,298.5,0.5,43,129.93
2050,C#4,299.0,0.188,39,129.93
2051,F4,299.0,0.188,39,129.93
2052,B-4,299.0,0.188,39,129.93
2053,E-4,299.5,0.188,40,129.93
2054,F4,299.5,0.188,40,129.93
2055,C5,299.5,0.188,40,129.93
2056,C#4,300.0,1.0,45,129.93
2057,F4,300.0,1.0,45,129.93
2058,B-1,300.5,0.5,38,129.93
2059,C#4,301.0,0.5,45,129.93
2060,F4,301.0,0.5,45,129.93
2061,B-2,301.5,0.25,39,129.93
2062,C#3,302.0,0.25,32,129.93
2063,C#4,302.0,0.5,45,129.93
2064,F4,302.0,0.5,45,129.93
2065,C3,302.5,0.25,29,129.93
2066,C4,302.5,0.188,39,129.93
2067,E-4,302.5,0.188,39,129.93
2068,F4,302.5,0.188,39,129.93
2069,B-3,303.0,0.188,40,129.93
2070,C#4,303.0,0.188,40,129.93
2071,F4,303.0,0.188,40,129.93
2072,B-2,303.5,0.5,45,129.93
2073,G#3,303.5,1.0,36,129.93
2074,C#4,303.5,1.0,36,129.93
2075,F4,303.5,1.0,36,129.93
2076,C#3,304.5,0.5,67,129.93
2077,G#3,304.5,0.5,36,129.93
2078,C#4,304.5,0.5,36,129.93
2079,F4,304.5,0.5,36,129.93
2080,G#3,305.5,0.5,36,129.93
2081,C#4,305.5,0.5,36,129.93
2082,F4,305.5,0.5,36,129.93
2083,F#3,306.0,0.188,32,129.93
2084,A3,306.0,0.188,32,129.93
2085,C4,306.0,0.188,32,129.93
2086,E-4,306.0,0.188,32,129.93
2087,C3,306.5,0.5,51,129.93
2088,F#3,306.5,0.188,32,129.93
2089,A3,306.5,0.188,32,129.93
2090,C4,306.5,0.188,32,129.93
2091,E-4,306.5,0.188,32,129.93
2092,F3,307.0,1.0,36,129.93
2093,B-3,307.0,1.0,36,129.93
2094,C#4,307.0,1.0,36,129.93
2095,C2,307.5,0.5,73,129.93
2096,F3,308.0,0.5,36,129.93
2097,B-3,308.0,0.5,36,129.93
2098,C#4,308.0,0.5,36,129.93
2099,F3,309.0,0.5,36,129.93
2100,B-3,309.0,0.5,36,129.93
2101,C#4,309.0,0.5,36,129.93
2102,C3,309.5,0.5,43,129.93
2103,E-3,310.5,0.5,35,129.93
2104,B-3,310.5,1.0,43,129.93
2105,C#4,310.5,1.0,43,129.93
2106,F#4,310.5,1.0,43,129.93
2107,B-3,311.5,0.5,44,129.93
2108,C#4,311.5,0.5,44,129.93
2109,F#4,311.5,0.5,44,129.93
2110,G#2,312.5,0.25,45,129.93
2111,B-3,312.5,0.5,44,129.93
2112,C#4,312.5,0.5,44,129.93
2113,F#4,312.5,0.5,44,129.93
2114,F#2,313.0,0.25,48,129.93
2115,B-3,313.0,0.188,43,129.93
2116,C#4,313.0,0.188,43,129.93
2117,G#4,313.0,0.188,43,129.93
2118,F2,313.5,0.25,42,129.93
2119,B-3,313.5,0.188,44,129.93
2120,C#4,313.5,0.188,44,129.93
2121,B-4,313.5,0.188,44,129.93
2122,G#3,314.0,1.0,48,129.93
2123,C4,314.0,1.0,48,129.93
2124,F4,314.0,1.0,48,129.93
2125,G#3,315.0,0.5,47,129.93
2126,C4,315.0,0.5,47,129.93
2127,F4,315.0,0.5,47,129.93
2128,B-3,315.5,0.5,45,129.93
2129,G#3,316.0,0.5,47,129.93
2130,C4,316.0,0.5,47,129.93
2131,F4,316.0,0.5,47,129.93
2132,C#4,316.5,0.5,63,129.93
2133,G3,316.5,0.188,44,129.93
2134,C4,316.5,0.188,44,129.93
2135,E4,316.5,0.188,44,129.93
2136,G3,317.0,0.188,45,129.93
2137,C4,317.0,0.188,45,129.93
2138,E4,317.0,0.188,45,129.93
2139,E-4,317.5,1.0,43,129.93
2140,G#3,317.5,1.0,43,129.93
2141,C4,317.5,1.0,43,129.93
2142,E-4,318.5,0.5,45,129.93
2143,F#3,318.5,0.5,45,129.93
2144,G#3,318.5,0.5,42,129.93
2145,C4,318.5,0.5,42,129.93
2146,E-4,319.0,0.5,45,129.93
2147,B-3,319.0,0.5,34,129.93
2148,C#4,319.0,0.5,34,129.93
2149,F3,319.5,0.5,63,129.93
2150,G3,319.5,0.188,39,129.93
2151,B-3,319.5,0.188,39,129.93
2152,E-4,319.5,0.188,39,129.93
2153,G3,320.0,0.188,40,129.93
2154,B-3,320.0,0.188,40,129.93
2155,E-4,320.0,0.188,40,129.93
2156,G#4,320.5,1.0,43,129.93
2157,C4,320.5,1.0,43,129.93
2158,E-4,320.5,1.0,43,129.93
2159,G#4,321.5,0.5,50,129.93
2160,B-2,321.5,0.5,45,129.93
2161,C4,321.5,0.5,42,129.93
2162,E-4,321.5,0.5,42,129.93
2163,A4,322.5,0.5,47,129.93
2164,C#3,322.5,0.5,63,129.93
2165,C4,322.5,0.5,42,129.93
2166,E-4,322.5,0.5,42,129.93
2167,C4,323.0,0.188,36,129.93
2168,E-4,323.0,0.188,36,129.93
2169,F4,323.0,0.188,36,129.93
2170,C4,323.5,0.188,37,129.93
2171,E-4,323.5,0.188,37,129.93
2172,F4,323.5,0.188,37,129.93
2173,F4,324.0,1.0,45,129.93
2174,C#5,324.0,1.0,45,129.93
2175,F2,324.5,0.5,45,129.93
2176,F4,325.0,0.5,45,129.93
2177,C#5,325.0,0.5,45,129.93
2178,F1,325.5,0.5,64,129.93
2179,F4,326.0,0.5,45,129.93
2180,C#5,326.0,0.5,45,129.93
2181,E-4,326.5,0.188,39,129.93
2182,F4,326.5,0.188,39,129.93
2183,C5,326.5,0.188,39,129.93
2184,C#4,327.0,0.188,40,129.93
2185,F4,327.0,0.188,40,129.93
2186,B-4,327.0,0.188,40,129.93
2187,B-1,327.5,0.5,38,129.93
2188,F4,327.5,1.0,43,129.93
2189,C4,327.5,1.0,43,129.93
2190,A4,327.5,1.0,43,129.93
2191,B-2,328.5,0.5,39,129.93
2192,F4,328.5,0.5,43,129.93
2193,C4,328.5,0.5,43,129.93
2194,A4,328.5,0.5,43,129.93
2195,F4,329.5,0.5,43,129.93
2196,C4,329.5,0.5,43,129.93
2197,A4,329.5,0.5,43,129.93
2198,C#4,330.0,0.188,39,129.93
2199,F4,330.0,0.188,39,129.93
2200,B-4,330.0,0.188,39,129.93
2201,B-3,330.0,0.25,34,129.93
2202,D4,330.0,0.25,34,129.93
2203,F4,330.25,0.25,25,129.93
2204,E-4,330.5,0.188,40,129.93
2205,F4,330.5,0.188,40,129.93
2206,C5,330.5,0.188,40,129.93
2207,B-3,330.5,0.25,26,129.93
2208,D4,330.5,0.25,26,129.93
2209,F4,330.75,0.25,24,129.93
2210,C#4,331.0,1.0,45,129.93
2211,F4,331.0,1.0,45,129.93
2212,B-3,331.0,0.25,26,129.93
2213,D4,331.0,0.25,26,129.93
2214,F4,331.25,0.25,25,129.93
2215,B-3,331.5,0.25,31,129.93
2216,E-4,331.5,0.25,31,129.93
2217,G4,331.75,0.25,25,129.93
2218,C#4,332.0,0.5,45,129.93
2219,F4,332.0,0.5,45,129.93
2220,B-3,332.0,0.25,26,129.93
2221,E-4,332.0,0.25,26,129.93
2222,G4,332.25,0.25,24,129.93
2223,B-3,332.5,0.25,26,129.93
2224,E-4,332.5,0.25,26,129.93
2225,G4,332.75,0.25,24,129.93
2226,C#4,333.0,0.5,45,129.93
2227,F4,333.0,0.5,45,129.93
2228,B-3,333.0,0.25,37,129.93
2229,D4,333.0,0.25,37,129.93
2230,F4,333.25,0.25,25,129.93
2231,C4,333.5,0.188,39,129.93
2232,E-4,333.5,0.188,39,129.93
2233,F4,333.5,0.188,39,129.93
2234,D4,333.5,0.25,26,129.93
2235,B-3,333.5,0.25,26,129.93
2236,F4,333.75,0.25,24,129.93
2237,B-3,334.0,0.188,40,129.93
2238,C#4,334.0,0.188,40,129.93
2239,F4,334.0,0.188,40,129.93
2240,B-3,334.0,0.25,26,129.93
2241,D4,334.0,0.25,26,129.93
2242,F4,334.25,0.25,24,129.93
2243,G#3,334.5,1.0,36,129.93
2244,C#4,334.5,1.0,36,129.93
2245,F4,334.5,1.0,36,129.93
2246,A3,334.5,0.25,32,129.93
2247,E-4,334.5,0.25,32,129.93
2248,F4,334.75,0.25,25,129.93
2249,A3,335.0,0.25,26,129.93
2250,E-4,335.0,0.25,26,129.93
2251,F4,335.25,0.25,26,129.93
2252,G#3,335.5,0.5,36,129.93
2253,C#4,335.5,0.5,36,129.93
2254,F4,335.5,0.5,36,129.93
2255,A3,335.5,0.25,26,129.93
2256,E-4,335.5,0.25,26,129.93
2257,F4,335.75,0.25,25,129.93
2258,A3,336.0,0.25,34,129.93
2259,E-4,336.0,0.25,34,129.93
2260,F#4,336.25,0.25,25,129.93
2261,G#3,336.5,0.5,36,129.93
2262,C#4,336.5,0.5,36,129.93
2263,F4,336.5,0.5,36,129.93
2264,A3,336.5,0.25,26,129.93
2265,E-4,336.5,0.25,26,129.93
2266,F#4,336.75,0.25,25,129.93
2267,F#3,337.0,0.188,31,129.93
2268,A3,337.0,0.188,31,129.93
2269,C4,337.0,0.188,31,129.93
2270,E-4,337.0,0.188,31,129.93
2271,A3,337.0,0.25,26,129.93
2272,E-4,337.0,0.25,26,129.93
2273,F#4,337.25,0.25,25,129.93
2274,F#3,337.5,0.188,32,129.93
2275,A3,337.5,0.188,32,129.93
2276,C4,337.5,0.188,32,129.93
2277,E-4,337.5,0.188,32,129.93
2278,B-3,337.5,0.25,32,129.93
2279,E-4,337.5,0.25,32,129.93
2280,G4,337.75,0.25,25,129.93
2281,F3,338.0,1.0,36,129.93
2282,B-3,338.0,1.0,36,129.93
2283,C#4,338.0,1.0,36,129.93
2284,B-3,338.0,0.25,26,129.93
2285,E-4,338.0,0.25,26,129.93
2286,G4,338.25,0.25,25,129.93
2287,B-3,338.5,0.25,26,129.93
2288,E-4,338.5,0.25,26,129.93
2289,G4,338.75,0.25,25,129.93
2290,F3,339.0,0.5,36,129.93
2291,B-3,339.0,0.5,36,129.93
2292,C#4,339.0,0.5,36,129.93
2293,C4,339.0,0.25,32,129.93
2294,E-4,339.0,0.25,32,129.93
2295,F4,339.25,0.25,25,129.93
2296,C4,339.5,0.25,26,129.93
2297,E-4,339.5,0.25,26,129.93
2298,F4,339.75,0.25,25,129.93
2299,F3,340.0,0.5,36,129.93
2300,B-3,340.0,0.5,36,129.93
2301,C#4,340.0,0.5,36,129.93
2302,C4,340.0,0.25,26,129.93
2303,E-4,340.0,0.25,26,129.93
2304,F4,340.25,0.25,25,129.93
2305,B-3,340.5,0.25,32,129.93
2306,D4,340.5,0.25,32,129.93
2307,F4,340.75,0.25,25,129.93
2308,B-3,341.0,0.25,26,129.93
2309,D4,341.0,0.25,26,129.93
2310,F4,341.25,0.25,25,129.93
2311,B-5,341.5,0.5,54,129.93
2312,B-3,341.5,0.25,26,129.93
2313,D4,341.5,0.25,26,129.93
2314,F4,341.75,0.25,25,129.93
2315,A5,342.0,0.5,47,129.93
2316,B-3,342.0,0.5,48,129.93
2317,B-5,342.5,0.5,47,129.93
2318,A3,342.5,0.5,40,129.93
2319,G5,343.0,0.5,51,129.93
2320,B-3,343.0,0.5,40,129.93
2321,A5,343.5,0.25,46,129.93
2322,G3,343.5,0.5,48,129.93
2323,B-5,343.75,0.25,47,129.93
2324,C6,344.0,0.25,49,129.93
2325,A3,344.0,0.25,39,129.93
2326,D6,344.25,0.25,50,129.93
2327,B-3,344.25,0.25,39,129.93
2328,B-5,344.5,0.5,53,129.93
2329,C4,344.5,0.25,40,129.93
2330,D4,344.75,0.25,40,129.93
2331,C6,345.0,0.25,54,129.93
2332,B-3,345.0,0.5,46,129.93
2333,B-5,345.25,0.25,47,129.93
2334,A5,345.5,0.25,51,129.93
2335,C4,345.5,0.25,44,129.93
2336,G5,345.75,0.25,47,129.93
2337,B-3,345.75,0.25,40,129.93
2338,F5,346.0,0.125,56,129.93
2339,A3,346.0,0.25,44,129.93
2340,G3,346.25,0.25,40,129.93
2341,F5,346.5,0.125,51,129.93
2342,F3,346.5,0.25,47,129.93
2343,F5,347.0,0.125,50,129.93
2344,F3,347.0,0.25,40,129.93
2345,F#5,347.5,0.5,61,129.93
2346,F3,347.5,0.25,40,129.93
2347,F#6,348.0,0.5,57,129.93
2348,F#3,348.0,0.5,51,129.93
2349,F#6,348.5,0.125,57,129.93
2350,F#4,348.5,0.5,39,129.93
2351,G6,349.0,0.5,65,129.93
2352,F#4,349.0,0.25,41,129.93
2353,G5,349.5,0.5,51,129.93
2354,G4,349.5,0.5,51,129.93
2355,G5,350.0,0.125,51,129.93
2356,G3,350.0,0.5,45,129.93
2357,A5,350.5,0.125,53,129.93
2358,G3,350.5,0.25,46,129.93
2359,B-6,350.938,0.062,45,129.93
2360,A6,351.0,0.25,52,129.93
2361,B-3,351.0,0.125,51,129.93
2362,G6,351.25,0.25,51,129.93
2363,C3,351.375,167/1000,39,129.93
2364,A6,351.5,0.5,52,129.93
2365,B-2,351.5,73/250,46,129.93
2366,A2,351.75,73/250,42,129.93
2367,B-6,352.0,0.125,54,129.93
2368,B-2,352.0,0.5,45,129.93
2369,C6,352.438,0.062,45,129.93
2370,B-5,352.5,0.25,51,129.93
2371,E-3,352.5,0.125,42,129.93
2372,A5,352.75,0.25,47,129.93
2373,F2,352.875,167/1000,39,129.93
2374,B-5,353.0,0.25,51,129.93
2375,E-2,353.0,73/250,42,129.93
2376,D2,353.25,73/250,39,129.93
2377,E-2,353.5,0.25,42,129.93
2378,B-4,353.5,0.25,37,129.93
2379,D5,353.5,0.25,37,129.93
2380,F5,353.75,0.25,35,129.93
2381,B-4,354.0,0.25,38,129.93
2382,D5,354.0,0.25,38,129.93
2383,E-4,354.0,0.25,32,129.93
2384,G4,354.0,0.25,32,129.93
2385,F5,354.25,0.25,34,129.93
2386,B-4,354.25,0.25,28,129.93
2387,B-4,354.5,0.25,38,129.93
2388,D5,354.5,0.25,38,129.93
2389,E-4,354.5,0.25,29,129.93
2390,G4,354.5,0.25,29,129.93
2391,F5,354.75,0.25,35,129.93
2392,B-4,354.75,0.25,28,129.93
2393,B-4,355.0,0.25,38,129.93
2394,D5,355.0,0.25,38,129.93
2395,E-4,355.0,0.25,29,129.93
2396,G4,355.0,0.25,29,129.93
2397,G5,355.25,0.25,35,129.93
2398,B-4,355.25,0.25,28,129.93
2399,B-4,355.5,0.25,38,129.93
2400,D5,355.5,0.25,38,129.93
2401,D4,355.5,0.25,29,129.93
2402,F4,355.5,0.25,29,129.93
2403,G5,355.75,0.25,34,129.93
2404,B-4,355.75,0.25,28,129.93
2405,B-4,356.0,0.25,38,129.93
2406,D5,356.0,0.25,38,129.93
2407,D4,356.0,0.25,29,129.93
2408,F4,356.0,0.25,29,129.93
2409,G5,356.25,0.25,34,129.93
2410,B-4,356.25,0.25,28,129.93
2411,B-4,356.5,0.25,40,129.93
2412,D5,356.5,0.25,40,129.93
2413,C#4,356.5,0.25,29,129.93
2414,F4,356.5,0.25,29,129.93
2415,F5,356.75,0.25,35,129.93
2416,B-4,356.75,0.25,28,129.93
2417,D5,357.0,0.25,38,129.93
2418,B-4,357.0,0.25,38,129.93
2419,C4,357.0,0.25,29,129.93
2420,F4,357.0,0.25,29,129.93
2421,F5,357.25,0.25,34,129.93
2422,G#4,357.25,0.25,28,129.93
2423,B-4,357.5,0.25,38,129.93
2424,D5,357.5,0.25,38,129.93
2425,C4,357.5,0.25,29,129.93
2426,F4,357.5,0.25,29,129.93
2427,F5,357.75,0.25,34,129.93
2428,G#4,357.75,0.25,28,129.93
2429,A4,358.0,0.25,43,129.93
2430,E-5,358.0,0.25,43,129.93
2431,C4,358.0,0.25,29,129.93
2432,F4,358.0,0.25,29,129.93
2433,F5,358.25,0.25,35,129.93
2434,G#4,358.25,0.25,28,129.93
2435,A4,358.5,0.25,38,129.93
2436,E-5,358.5,0.25,38,129.93
2437,C4,358.5,0.25,29,129.93
2438,F4,358.5,0.25,29,129.93
2439,F5,358.75,0.25,37,129.93
2440,G4,358.75,0.25,28,129.93
2441,A4,359.0,0.25,38,129.93
2442,E-5,359.0,0.25,38,129.93
2443,C4,359.0,0.25,29,129.93
2444,E4,359.0,0.25,29,129.93
2445,F5,359.25,0.25,35,129.93
2446,G4,359.25,0.25,28,129.93
2447,A4,359.5,0.25,42,129.93
2448,E-5,359.5,0.25,42,129.93
2449,C4,359.5,0.25,29,129.93
2450,E4,359.5,0.25,29,129.93
2451,A5,359.75,0.25,35,129.93
2452,G4,359.75,0.25,30,129.93
2453,G#3,360.0,1.5,37,129.93
2454,C4,360.0,0.5,44,129.93
2455,A4,360.0,0.25,38,129.93
2456,E-5,360.0,0.25,38,129.93
2457,A5,360.25,0.25,35,129.93
2458,C#4,360.5,0.5,40,129.93
2459,A4,360.5,0.25,38,129.93
2460,E-5,360.5,0.25,38,129.93
2461,A5,360.75,0.25,35,129.93
2462,C4,361.0,0.5,40,129.93
2463,B-4,361.0,0.25,40,129.93
2464,E-5,361.0,0.25,40,129.93
2465,B-5,361.25,0.25,35,129.93
2466,C#3,361.5,1.5,37,129.93
2467,B-3,361.5,0.5,44,129.93
2468,B-4,361.5,0.25,38,129.93
2469,E-5,361.5,0.25,38,129.93
2470,A5,361.75,0.25,35,129.93
2471,F3,362.0,0.5,42,129.93
2472,B-4,362.0,0.25,38,129.93
2473,E-5,362.0,0.25,38,129.93
2474,G5,362.25,0.25,35,129.93
2475,G3,362.5,0.5,44,129.93
2476,G#4,362.5,0.25,38,129.93
2477,D5,362.5,0.25,38,129.93
2478,F5,362.75,0.25,35,129.93
2479,B-3,362.875,0.125,41,129.93
2480,E-3,363.0,1.5,37,129.93
2481,G#3,363.0,0.5,44,129.93
2482,G#4,363.0,0.25,38,129.93
2483,D5,363.0,0.25,38,129.93
2484,F5,363.25,0.25,35,129.93
2485,G3,363.5,0.5,38,129.93
2486,G#4,363.5,0.25,38,129.93
2487,D5,363.5,0.25,38,129.93
2488,F5,363.75,0.25,35,129.93
2489,G#3,364.0,0.5,35,129.93
2490,G4,364.0,0.25,38,129.93
2491,E-5,364.0,0.25,38,129.93
2492,G5,364.25,0.25,35,129.93
2493,B-3,364.5,1.0,37,129.93
2494,E-3,364.5,1.5,37,129.93
2495,G4,364.5,0.25,38,129.93
2496,E-5,364.5,0.25,38,129.93
2497,G5,364.75,0.25,35,129.93
2498,G4,365.0,0.25,38,129.93
2499,E-5,365.0,0.25,38,129.93
2500,B-5,365.5,0.125,56,129.93
2501,B3,365.5,0.5,34,129.93
2502,G#5,365.875,0.125,47,129.93
2503,G5,366.0,0.25,56,129.93
2504,G#3,366.0,0.25,32,129.93
2505,C4,366.0,0.25,32,129.93
2506,F5,366.25,0.25,52,129.93
2507,E-4,366.25,0.25,28,129.93
2508,G5,366.5,0.5,56,129.93
2509,G#3,366.5,0.25,29,129.93
2510,C4,366.5,0.25,29,129.93
2511,E-4,366.75,0.25,28,129.93
2512,B-5,367.0,0.125,56,129.93
2513,G#3,367.0,0.25,29,129.93
2514,C4,367.0,0.25,29,129.93
2515,E-4,367.25,0.25,28,129.93
2516,G5,367.375,0.125,48,129.93
2517,F5,367.5,0.25,56,129.93
2518,G3,367.5,0.25,29,129.93
2519,B-3,367.5,0.25,29,129.93
2520,E5,367.75,0.25,52,129.93
2521,E-4,367.75,0.25,28,129.93
2522,F5,368.0,0.5,56,129.93
2523,G3,368.0,0.25,29,129.93
2524,B-3,368.0,0.25,29,129.93
2525,E-4,368.25,0.25,28,129.93
2526,C6,368.5,0.5,58,129.93
2527,F#3,368.5,0.25,29,129.93
2528,B-3,368.5,0.25,29,129.93
2529,E-4,368.75,0.25,28,129.93
2530,B-5,369.0,0.25,59,129.93
2531,F3,369.0,0.25,29,129.93
2532,B-3,369.0,0.25,29,129.93
2533,G#5,369.25,0.25,54,129.93
2534,C#4,369.25,0.25,28,129.93
2535,G5,369.5,0.25,58,129.93
2536,F3,369.5,0.25,29,129.93
2537,B-3,369.5,0.25,29,129.93
2538,F5,369.75,0.25,58,129.93
2539,C#4,369.75,0.25,28,129.93
2540,C6,370.0,0.5,58,129.93
2541,F3,370.0,0.25,29,129.93
2542,B-3,370.0,0.25,29,129.93
2543,C#4,370.25,0.25,28,129.93
2544,C5,370.5,0.5,56,129.93
2545,F3,370.5,0.25,29,129.93
2546,B-3,370.5,0.25,29,129.93
2547,C4,370.75,0.25,28,129.93
2548,C5,371.0,0.5,56,129.93
2549,F3,371.0,0.25,29,129.93
2550,A3,371.0,0.25,29,129.93
2551,C4,371.25,0.25,28,129.93
2552,G#4,371.5,0.25,40,129.93
2553,C5,371.5,0.25,40,129.93
2554,F3,371.5,0.25,29,129.93
2555,A3,371.5,0.25,29,129.93
2556,E-5,371.75,0.25,39,129.93
2557,C4,371.75,0.25,30,129.93
2558,C#4,372.0,1.5,37,129.93
2559,F4,372.0,0.5,44,129.93
2560,G#4,372.0,0.25,42,129.93
2561,C5,372.0,0.25,42,129.93
2562,E-5,372.25,0.25,38,129.93
2563,F#4,372.5,0.5,40,129.93
2564,G#4,372.5,0.25,42,129.93
2565,C5,372.5,0.25,42,129.93
2566,E-5,372.75,0.25,39,129.93
2567,F4,373.0,0.5,40,129.93
2568,G#4,373.0,0.25,40,129.93
2569,F5,373.0,0.25,40,129.93
2570,G#5,373.25,0.25,39,129.93
2571,F#3,373.5,1.5,37,129.93
2572,E-4,373.5,0.5,44,129.93
2573,G#4,373.5,0.25,43,129.93
2574,F5,373.5,0.25,43,129.93
2575,G#5,373.75,0.25,39,129.93
2576,B-3,374.0,0.5,42,129.93
2577,G#4,374.0,0.25,45,129.93
2578,F5,374.0,0.25,45,129.93
2579,G#5,374.25,0.25,43,129.93
2580,C4,374.5,0.5,44,129.93
2581,G#4,374.5,0.25,40,129.93
2582,C5,374.5,0.25,40,129.93
2583,E-5,374.75,0.25,38,129.93
2584,E-4,374.875,0.125,41,129.93
2585,G#3,375.0,1.5,37,129.93
2586,C#4,375.0,0.5,44,129.93
2587,G#4,375.0,0.25,38,129.93
2588,C5,375.0,0.25,38,129.93
2589,E-5,375.25,0.25,34,129.93
2590,C4,375.5,0.5,38,129.93
2591,G#4,375.5,0.25,37,129.93
2592,C5,375.5,0.25,37,129.93
2593,E-5,375.75,0.25,33,129.93
2594,C#4,376.0,0.5,35,129.93
2595,G4,376.0,0.25,34,129.93
2596,C#5,376.0,0.25,34,129.93
2597,E-5,376.25,0.25,32,129.93
2598,E-4,376.5,1.0,37,129.93
2599,G#3,376.5,1.5,37,129.93
2600,G4,376.5,0.25,34,129.93
2601,C#5,376.5,0.25,34,129.93
2602,E-5,376.75,0.25,31,129.93
2603,G4,377.0,0.25,34,129.93
2604,C#5,377.0,0.25,34,129.93
2605,E-5,377.25,0.25,32,129.93
2606,E4,377.5,0.5,34,129.93
2607,G#4,377.5,0.125,50,129.93
2608,C5,377.5,0.125,50,129.93
2609,E-5,377.5,0.125,50,129.93
2610,C#5,377.875,0.125,49,129.93
2611,C5,378.0,0.25,56,129.93
2612,C#4,378.0,0.125,32,129.93
2613,F4,378.0,0.125,32,129.93
2614,B-4,378.25,0.25,52,129.93
2615,C5,378.5,0.5,56,129.93
2616,C#3,378.5,0.125,28,129.93
2617,E-5,379.0,0.125,56,129.93
2618,C#3,379.0,0.125,28,129.93
2619,C5,379.375,0.125,49,129.93
2620,B-4,379.5,0.25,56,129.93
2621,C#4,379.5,0.125,29,129.93
2622,F4,379.5,0.125,29,129.93
2623,A4,379.75,0.25,52,129.93
2624,B-4,380.0,0.5,56,129.93
2625,C#3,380.0,0.125,28,129.93
2626,F5,380.5,0.5,58,129.93
2627,C#3,380.5,0.125,28,129.93
2628,E-5,381.0,0.25,59,129.93
2629,C#4,381.0,0.125,30,129.93
2630,F4,381.0,0.125,30,129.93
2631,C#5,381.25,0.25,54,129.93
2632,C5,381.5,0.25,58,129.93
2633,C#3,381.5,0.125,28,129.93
2634,B-4,381.75,0.25,58,129.93
2635,F5,382.0,0.5,58,129.93
2636,C#3,382.0,0.125,28,129.93
2637,F4,382.5,0.5,56,129.93
2638,C#4,382.5,0.125,31,129.93
2639,F#4,382.5,0.125,31,129.93
2640,F4,383.0,0.5,56,129.93
2641,C#3,383.0,0.125,28,129.93
2642,C#3,383.5,0.125,28,129.93
2643,C#5,383.5,0.25,40,129.93
2644,F5,383.5,0.25,40,129.93
2645,G#5,383.75,0.25,39,129.93
2646,C#5,384.0,0.25,42,129.93
2647,F5,384.0,0.25,42,129.93
2648,C#4,384.0,0.125,30,129.93
2649,F4,384.0,0.125,30,129.93
2650,G#5,384.25,0.25,38,129.93
2651,C#3,384.5,0.125,28,129.93
2652,C#5,384.5,0.25,42,129.93
2653,F5,384.5,0.25,42,129.93
2654,G#5,384.75,0.25,39,129.93
2655,C#3,385.0,0.125,33,129.93
2656,C#5,385.0,0.25,40,129.93
2657,B-5,385.0,0.25,40,129.93
2658,C#6,385.25,0.25,39,129.93
2659,C#5,385.5,0.25,43,129.93
2660,B-5,385.5,0.25,43,129.93
2661,C#4,385.5,0.125,34,129.93
2662,F#4,385.5,0.125,34,129.93
2663,C#6,385.75,0.25,39,129.93
2664,C#3,386.0,0.125,28,129.93
2665,C#5,386.0,0.25,45,129.93
2666,B-5,386.0,0.25,45,129.93
2667,C#6,386.25,0.25,43,129.93
2668,C#3,386.5,0.125,28,129.93
2669,C#5,386.5,0.25,40,129.93
2670,F5,386.5,0.25,40,129.93
2671,G#5,386.75,0.25,38,129.93
2672,C#5,387.0,0.25,38,129.93
2673,F5,387.0,0.25,38,129.93
2674,B-3,387.0,0.125,30,129.93
2675,C#4,387.0,0.125,30,129.93
2676,F#4,387.0,0.125,30,129.93
2677,G#5,387.25,0.25,34,129.93
2678,C#3,387.5,0.125,25,129.93
2679,C#5,387.5,0.25,37,129.93
2680,F5,387.5,0.25,37,129.93
2681,G#5,387.75,0.25,33,129.93
2682,C#3,388.0,0.125,25,129.93
2683,C5,388.0,0.25,34,129.93
2684,F#5,388.0,0.25,34,129.93
2685,G#5,388.25,0.25,32,129.93
2686,C5,388.5,0.25,34,129.93
2687,F#5,388.5,0.25,34,129.93
2688,B-3,388.5,0.125,27,129.93
2689,C#4,388.5,0.125,27,129.93
2690,F#4,388.5,0.125,27,129.93
2691,G#5,388.75,0.25,31,129.93
2692,C#3,389.0,0.125,25,129.93
2693,C5,389.0,0.25,34,129.93
2694,F#5,389.0,0.25,34,129.93
2695,G#5,389.25,0.25,32,129.93
2696,C#3,389.5,0.125,25,129.93
2697,C#5,389.5,0.5,33,129.93
2698,F5,389.5,0.5,33,129.93
2699,G#5,389.5,0.5,33,129.93
2700,G#3,390.0,0.125,26,129.93
2701,C#4,390.0,0.125,26,129.93
2702,C#3,390.5,0.125,24,129.93
2703,C#3,391.0,0.125,24,129.93
2704,F#3,391.5,0.125,28,129.93
2705,B-3,391.5,0.125,28,129.93
2706,F#2,392.0,0.125,24,129.93
2707,C#5,392.375,0.125,40,129.93
2708,F5,392.438,0.062,40,129.93
2709,G#5,392.5,0.25,51,129.93
2710,C#5,392.5,0.25,40,129.93
2711,F5,392.5,0.25,40,129.93
2712,F#2,392.5,0.125,24,129.93
2713,F#5,393.0,0.25,40,129.93
2714,E-4,393.0,0.125,26,129.93
2715,F#4,393.0,0.125,26,129.93
2716,F5,393.25,0.25,40,129.93
2717,E-5,393.5,0.25,40,129.93
2718,G#3,393.5,0.125,24,129.93
2719,C#5,393.75,0.25,40,129.93
2720,G#4,393.875,0.125,40,129.93
2721,C5,393.938,0.062,40,129.93
2722,E-5,394.0,0.25,49,129.93
2723,G#4,394.0,0.25,40,129.93
2724,C5,394.0,0.25,40,129.93
2725,G#3,394.0,0.125,24,129.93
2726,C#5,394.5,0.25,40,129.93
2727,F4,394.5,0.125,26,129.93
2728,C#4,394.5,0.125,26,129.93
2729,C5,394.75,0.25,40,129.93
2730,B-4,395.0,0.25,40,129.93
2731,C#3,395.0,0.125,24,129.93
2732,G#4,395.25,0.25,40,129.93
2733,C#5,395.375,0.125,40,129.93
2734,F5,395.438,0.062,40,129.93
2735,G#5,395.5,0.25,53,129.93
2736,C#5,395.5,0.25,40,129.93
2737,F5,395.5,0.25,40,129.93
2738,C#3,395.5,0.125,24,129.93
2739,F#5,396.0,0.25,42,129.93
2740,C#4,396.0,0.125,28,129.93
2741,F4,396.0,0.125,28,129.93
2742,F5,396.25,0.25,45,129.93
2743,E-5,396.5,0.25,47,129.93
2744,C#3,396.5,0.125,25,129.93
2745,C#5,396.75,0.25,51,129.93
2746,C#3,397.0,0.125,25,129.93
2747,C#6,397.0,0.125,57,129.93
2748,B-5,397.0,0.125,57,129.93
2749,F#5,397.0,0.125,57,129.93
2750,F#5,397.5,0.125,51,129.93
2751,B-5,397.5,0.125,51,129.93
2752,C#6,397.5,0.125,51,129.93
2753,C#4,397.5,0.125,28,129.93
2754,F4,397.5,0.125,28,129.93
2755,C#3,398.0,0.125,28,129.93
2756,F#5,398.0,0.125,51,129.93
2757,B-5,398.0,0.125,51,129.93
2758,C#6,398.0,0.125,51,129.93
2759,C#3,398.5,0.125,28,129.93
2760,C#4,399.0,0.125,30,129.93
2761,F4,399.0,0.125,30,129.93
2762,C#3,399.5,0.125,28,129.93
2763,C#3,400.0,0.125,28,129.93
2764,C#4,400.5,0.125,31,129.93
2765,F#4,400.5,0.125,31,129.93
2766,C#3,401.0,0.125,28,129.93
2767,F4,401.5,0.5,49,129.93
2768,C#3,401.5,0.125,28,129.93
2769,G#4,401.875,0.125,34,129.93
2770,F#4,402.0,0.5,41,129.93
2771,C#4,402.0,0.125,30,129.93
2772,F4,402.0,0.125,30,129.93
2773,F4,402.5,0.5,41,129.93
2774,C#3,402.5,0.125,28,129.93
2775,E-4,403.0,0.5,48,129.93
2776,C#3,403.0,0.125,33,129.93
2777,F4,403.5,0.25,41,129.93
2778,C#4,403.5,0.125,34,129.93
2779,F#4,403.5,0.125,34,129.93
2780,F#4,403.75,0.25,41,129.93
2781,G#4,404.0,0.25,43,129.93
2782,C#3,404.0,0.125,28,129.93
2783,B-4,404.25,0.25,44,129.93
2784,C5,404.5,0.5,52,129.93
2785,C#3,404.5,0.125,28,129.93
2786,B-4,405.0,0.25,50,129.93
2787,A3,405.0,0.125,30,129.93
2788,C#4,405.0,0.125,30,129.93
2789,F#4,405.0,0.125,30,129.93
2790,C5,405.25,0.25,46,129.93
2791,C#5,405.5,0.25,48,129.93
2792,F#3,405.5,0.125,25,129.93
2793,E-5,405.75,0.25,50,129.93
2794,F5,406.0,0.125,53,129.93
2795,F#3,406.0,0.125,25,129.93
2796,F5,406.5,0.125,45,129.93
2797,A3,406.5,0.125,27,129.93
2798,C#4,406.5,0.125,27,129.93
2799,F#4,406.5,0.125,27,129.93
2800,F5,407.0,0.125,44,129.93
2801,F#3,407.0,0.125,25,129.93
2802,F#3,407.5,0.125,25,129.93
2803,F#4,408.0,0.125,26,129.93
2804,A3,408.0,0.125,26,129.93
2805,C#4,408.0,0.125,26,129.93
2806,F#3,408.5,0.125,24,129.93
2807,F#3,409.0,0.125,24,129.93
2808,D4,409.5,0.125,28,129.93
2809,F#4,409.5,0.125,28,129.93
2810,D3,410.0,0.125,24,129.93
2811,C#5,410.375,0.125,40,129.93
2812,F5,410.438,0.062,40,129.93
2813,G#5,410.5,0.25,51,129.93
2814,C#5,410.5,0.25,40,129.93
2815,F5,410.5,0.25,40,129.93
2816,D3,410.5,0.125,24,129.93
2817,F#5,411.0,0.25,40,129.93
2818,D4,411.0,0.125,26,129.93
2819,E4,411.0,0.125,26,129.93
2820,F5,411.25,0.25,40,129.93
2821,E-5,411.5,0.25,40,129.93
2822,E3,411.5,0.125,24,129.93
2823,C#5,411.75,0.25,40,129.93
2824,G#4,411.875,0.125,40,129.93
2825,C5,411.938,0.062,40,129.93
2826,E-5,412.0,0.25,49,129.93
2827,G#4,412.0,0.25,40,129.93
2828,C5,412.0,0.25,40,129.93
2829,E3,412.0,0.125,24,129.93
2830,C#5,412.5,0.25,40,129.93
2831,E4,412.5,0.125,26,129.93
2832,C#4,412.5,0.125,26,129.93
2833,C5,412.75,0.25,40,129.93
2834,B-4,413.0,0.25,40,129.93
2835,A3,413.0,0.125,24,129.93
2836,G#4,413.25,0.25,40,129.93
2837,C#5,413.375,0.125,40,129.93
2838,F5,413.438,0.062,40,129.93
2839,G#5,413.5,0.25,53,129.93
2840,C#5,413.5,0.25,40,129.93
2841,F5,413.5,0.25,40,129.93
2842,A3,413.5,0.125,24,129.93
2843,F#5,414.0,0.25,42,129.93
2844,C#4,414.0,0.125,28,129.93
2845,E4,414.0,0.125,28,129.93
2846,F5,414.25,0.25,45,129.93
2847,E-5,414.5,0.25,47,129.93
2848,A3,414.5,0.125,25,129.93
2849,C#5,414.75,0.25,51,129.93
2850,A3,415.0,0.125,26,129.93
2851,C#6,415.0,0.125,57,129.93
2852,A5,415.0,0.125,57,129.93
2853,F#5,415.0,0.125,57,129.93
2854,F#5,415.5,0.125,51,129.93
2855,A5,415.5,0.125,51,129.93
2856,C#6,415.5,0.125,51,129.93
2857,E4,415.5,0.125,26,129.93
2858,C#4,415.5,0.125,26,129.93
2859,A3,416.0,0.125,24,129.93
2860,F#5,416.0,0.125,51,129.93
2861,A5,416.0,0.125,51,129.93
2862,C#6,416.0,0.125,51,129.93
2863,A3,416.5,0.125,24,129.93
2864,C#4,417.0,0.125,28,129.93
2865,E4,417.0,0.125,28,129.93
2866,B-3,417.5,0.125,24,129.93
2867,B-3,418.0,0.125,24,129.93
2868,D4,418.5,0.125,26,129.93
2869,E4,418.5,0.125,26,129.93
2870,B3,419.0,0.125,24,129.93
2871,C#5,419.5,0.5,53,129.93
2872,B3,419.5,0.125,24,129.93
2873,E5,419.875,0.125,38,129.93
2874,D5,420.0,0.5,45,129.93
2875,E4,420.0,0.125,26,129.93
2876,D4,420.0,0.125,26,129.93
2877,C#5,420.5,0.5,45,129.93
2878,B3,420.5,0.125,24,129.93
2879,B4,421.0,0.5,52,129.93
2880,B3,421.0,0.125,24,129.93
2881,C#5,421.5,0.25,45,129.93
2882,D4,421.5,0.125,24,129.93
2883,E4,421.5,0.125,24,129.93
2884,D5,421.75,0.25,45,129.93
2885,E5,422.0,0.25,47,129.93
2886,B3,422.0,0.125,22,129.93
2887,F#5,422.25,0.25,48,129.93
2888,G#5,422.5,0.5,52,129.93
2889,B3,422.5,0.125,22,129.93
2890,F#5,423.0,0.25,53,129.93
2891,E4,423.0,0.125,26,129.93
2892,D4,423.0,0.125,26,129.93
2893,G#5,423.25,0.25,43,129.93
2894,A5,423.5,0.25,46,129.93
2895,B3,423.5,0.125,24,129.93
2896,B5,423.75,0.25,49,129.93
2897,C#6,424.0,0.125,52,129.93
2898,B3,424.0,0.125,24,129.93
2899,C#6,424.5,0.125,49,129.93
2900,D4,424.5,0.125,28,129.93
2901,F4,424.5,0.125,28,129.93
2902,C#6,425.0,0.125,48,129.93
2903,B3,425.0,0.125,24,129.93
2904,B3,425.5,0.125,24,129.93
2905,D4,426.0,0.125,26,129.93
2906,F4,426.0,0.125,26,129.93
2907,B3,426.5,0.125,24,129.93
2908,C#5,427.0,0.125,53,129.93
2909,B3,427.0,0.125,24,129.93
2910,C#5,427.5,0.125,45,129.93
2911,F4,427.5,0.125,26,129.93
2912,D4,427.5,0.125,26,129.93
2913,C#5,428.0,0.125,45,129.93
2914,B3,428.0,0.125,24,129.93
2915,C#5,428.5,0.5,52,129.93
2916,B3,428.5,0.125,24,129.93
2917,E5,429.0,0.25,45,129.93
2918,B3,429.0,0.25,29,129.93
2919,D4,429.0,0.25,29,129.93
2920,D5,429.25,0.25,45,129.93
2921,F4,429.25,0.25,26,129.93
2922,C#5,429.5,0.25,47,129.93
2923,D4,429.5,0.25,25,129.93
2924,B3,429.5,0.25,25,129.93
2925,E5,429.75,0.25,48,129.93
2926,F4,429.75,0.25,26,129.93
2927,D5,430.0,0.125,52,129.93
2928,D4,430.0,0.25,25,129.93
2929,B3,430.0,0.25,25,129.93
2930,F4,430.25,0.25,26,129.93
2931,D5,430.5,0.125,52,129.93
2932,B-3,430.5,0.25,29,129.93
2933,D4,430.5,0.25,29,129.93
2934,F4,430.75,0.25,26,129.93
2935,D5,431.0,0.125,51,129.93
2936,D4,431.0,0.25,25,129.93
2937,B-3,431.0,0.25,25,129.93
2938,F4,431.25,0.25,26,129.93
2939,D6,431.5,0.125,52,129.93
2940,D4,431.5,0.25,25,129.93
2941,B-3,431.5,0.25,25,129.93
2942,F4,431.75,0.25,26,129.93
2943,D6,432.0,0.125,49,129.93
2944,B-3,432.0,0.25,34,129.93
2945,D4,432.0,0.25,34,129.93
2946,F4,432.25,0.25,25,129.93
2947,D6,432.5,0.125,48,129.93
2948,B-3,432.5,0.25,26,129.93
2949,D4,432.5,0.25,26,129.93
2950,F4,432.75,0.25,24,129.93
2951,B-3,433.0,0.25,26,129.93
2952,D4,433.0,0.25,26,129.93
2953,F4,433.25,0.25,25,129.93
2954,B-3,433.5,0.25,32,129.93
2955,E-4,433.5,0.25,32,129.93
2956,G4,433.75,0.25,26,129.93
2957,B-3,434.0,0.25,28,129.93
2958,E-4,434.0,0.25,28,129.93
2959,G4,434.25,0.25,25,129.93
2960,D5,434.5,0.125,53,129.93
2961,B-3,434.5,0.25,28,129.93
2962,E-4,434.5,0.25,28,129.93
2963,G4,434.75,0.25,25,129.93
2964,D5,435.0,0.125,45,129.93
2965,B-3,435.0,0.25,39,129.93
2966,D4,435.0,0.25,39,129.93
2967,F4,435.25,0.25,28,129.93
2968,D5,435.5,0.125,45,129.93
2969,D4,435.5,0.25,28,129.93
2970,B-3,435.5,0.25,28,129.93
2971,F4,435.75,0.25,26,129.93
2972,D5,436.0,0.5,52,129.93
2973,B-3,436.0,0.25,29,129.93
2974,D4,436.0,0.25,29,129.93
2975,F4,436.25,0.25,26,129.93
2976,F5,436.5,0.25,45,129.93
2977,A3,436.5,0.25,36,129.93
2978,E-4,436.5,0.25,36,129.93
2979,E5,436.75,0.25,45,129.93
2980,F4,436.75,0.25,28,129.93
2981,D5,437.0,0.25,47,129.93
2982,A3,437.0,0.25,29,129.93
2983,E-4,437.0,0.25,29,129.93
2984,F5,437.25,0.25,48,129.93
2985,F4,437.25,0.25,29,129.93
2986,D5,437.5,0.125,52,129.93
2987,A3,437.5,0.25,30,129.93
2988,E-4,437.5,0.25,30,129.93
2989,F4,437.75,0.25,28,129.93
2990,D5,438.0,0.125,52,129.93
2991,A3,438.0,0.25,38,129.93
2992,E-4,438.0,0.25,38,129.93
2993,F#4,438.25,0.25,29,129.93
2994,D5,438.5,0.125,52,129.93
2995,A3,438.5,0.25,31,129.93
2996,E-4,438.5,0.25,31,129.93
2997,F#4,438.75,0.25,29,129.93
2998,D6,439.0,0.125,52,129.93
2999,A3,439.0,0.25,31,129.93
3000,E-4,439.0,0.25,31,129.93
3001,F#4,439.25,0.25,30,129.93
3002,D6,439.5,0.125,49,129.93
3003,B-3,439.5,0.25,37,129.93
3004,E-4,439.5,0.25,37,129.93
3005,G4,439.75,0.25,30,129.93
3006,D6,440.0,0.125,48,129.93
3007,B-3,440.0,0.25,32,129.93
3008,E-4,440.0,0.25,32,129.93
3009,G4,440.25,0.25,30,129.93
3010,D5,440.5,0.5,56,129.93
3011,B-3,440.5,0.25,32,129.93
3012,E-4,440.5,0.25,32,129.93
3013,G4,440.75,0.25,30,129.93
3014,C#5,441.0,0.5,52,129.93
3015,C4,441.0,0.25,38,129.93
3016,E-4,441.0,0.25,38,129.93
3017,G4,441.25,0.25,31,129.93
3018,D5,441.5,0.5,52,129.93
3019,C4,441.5,0.25,32,129.93
3020,E-4,441.5,0.25,32,129.93
3021,G4,441.75,0.25,31,129.93
3022,D6,442.0,0.5,56,129.93
3023,C4,442.0,0.25,34,129.93
3024,E-4,442.0,0.25,34,129.93
3025,G4,442.25,0.25,32,129.93
3026,C#6,442.5,0.5,52,129.93
3027,G3,442.5,0.25,39,129.93
3028,D4,442.5,0.25,39,129.93
3029,G4,442.75,0.25,32,129.93
3030,D6,443.0,0.5,52,129.93
3031,G3,443.0,0.25,34,129.93
3032,D4,443.0,0.25,34,129.93
3033,G4,443.25,0.25,32,129.93
3034,B-5,443.5,0.5,54,129.93
3035,G3,443.5,0.25,34,129.93
3036,D4,443.5,0.25,34,129.93
3037,G4,443.75,0.25,33,129.93
3038,A5,444.0,0.5,47,129.93
3039,E-4,444.0,0.5,62,129.93
3040,B-5,444.5,0.5,48,129.93
3041,D4,444.5,0.5,52,129.93
3042,G5,445.0,0.5,51,129.93
3043,E-4,445.0,0.5,52,129.93
3044,A5,445.5,0.25,48,129.93
3045,C4,445.5,0.5,62,129.93
3046,B-5,445.75,0.25,49,129.93
3047,C6,446.0,0.25,51,129.93
3048,D4,446.0,0.25,50,129.93
3049,D6,446.25,0.25,52,129.93
3050,E-4,446.25,0.25,50,129.93
3051,B-5,446.5,0.5,57,129.93
3052,F4,446.5,0.25,52,129.93
3053,G4,446.75,0.25,52,129.93
3054,C6,447.0,0.25,58,129.93
3055,E-4,447.0,0.5,60,129.93
3056,B-5,447.25,0.25,51,129.93
3057,A5,447.5,0.25,56,129.93
3058,F4,447.5,0.25,57,129.93
3059,G5,447.75,0.25,51,129.93
3060,E-4,447.75,0.25,52,129.93
3061,F5,448.0,0.125,61,129.93
3062,D4,448.0,0.25,57,129.93
3063,C4,448.25,0.25,52,129.93
3064,F5,448.5,0.125,56,129.93
3065,B-3,448.5,0.125,61,129.93
3066,F5,449.0,0.125,56,129.93
3067,B-3,449.0,0.125,52,129.93
3068,F#5,449.5,0.5,69,129.93
3069,B-3,449.5,0.125,52,129.93
3070,F#6,450.0,0.5,66,129.93
3071,B3,450.0,0.5,60,129.93
3072,F#6,450.5,0.125,67,129.93
3073,B4,450.5,0.5,50,129.93
3074,G6,451.0,0.5,76,129.93
3075,B4,451.0,0.25,53,129.93
3076,G5,451.5,0.5,61,129.93
3077,C5,451.5,0.5,62,129.93
3078,G5,452.0,0.125,61,129.93
3079,C4,452.0,0.5,58,129.93
3080,A5,452.5,0.125,65,129.93
3081,C4,452.5,0.25,60,129.93
3082,B-6,452.938,0.062,62,129.93
3083,A6,453.0,0.25,65,129.93
3084,F4,453.0,0.125,66,129.93
3085,G6,453.25,0.25,62,129.93
3086,G3,453.375,167/1000,58,129.93
3087,A6,453.5,0.5,66,129.93
3088,F3,453.5,73/250,67,129.93
3089,E3,453.75,73/250,62,129.93
3090,B-6,454.0,0.125,68,129.93
3091,F3,454.0,0.5,66,129.93
3092,C6,454.438,0.062,61,129.93
3093,B-5,454.5,0.25,63,129.93
3094,B-3,454.5,0.125,62,129.93
3095,A5,454.75,0.25,60,129.93
3096,C3,454.875,167/1000,55,129.93
3097,B-5,455.0,0.25,65,129.93
3098,B-2,455.0,73/250,62,129.93
3099,A2,455.25,73/250,57,129.93
3100,B-2,455.5,0.5,62,129.93
3101,E-5,455.5,0.25,48,129.93
3102,G5,455.5,0.25,48,129.93
3103,B-5,455.75,0.25,46,129.93
3104,F2,456.0,0.5,56,129.93
3105,E-5,456.0,0.25,49,129.93
3106,G5,456.0,0.25,49,129.93
3107,B-5,456.25,0.25,45,129.93
3108,G2,456.5,0.25,44,129.93
3109,E-5,456.5,0.25,49,129.93
3110,G5,456.5,0.25,49,129.93
3111,B-5,456.75,0.25,46,129.93
3112,A2,456.75,0.25,44,129.93
3113,B-2,457.0,0.25,47,129.93
3114,E-5,457.0,0.25,50,129.93
3115,G5,457.0,0.25,50,129.93
3116,C6,457.25,0.25,46,129.93
3117,C3,457.25,0.25,47,129.93
3118,B-2,457.5,0.125,53,129.93
3119,E-5,457.5,0.25,49,129.93
3120,G5,457.5,0.25,49,129.93
3121,C6,457.75,0.25,45,129.93
3122,B-2,458.0,0.125,53,129.93
3123,E-5,458.0,0.25,49,129.93
3124,G5,458.0,0.25,49,129.93
3125,C6,458.25,0.25,45,129.93
3126,B-2,458.5,0.125,53,129.93
3127,E-5,458.5,0.25,52,129.93
3128,G5,458.5,0.25,52,129.93
3129,B-5,458.75,0.25,46,129.93
3130,F3,459.0,0.5,50,129.93
3131,G5,459.0,0.25,49,129.93
3132,E-5,459.0,0.25,49,129.93
3133,B-5,459.25,0.25,45,129.93
3134,G3,459.5,0.25,39,129.93
3135,E-5,459.5,0.25,49,129.93
3136,G5,459.5,0.25,49,129.93
3137,B-5,459.75,0.25,45,129.93
3138,A3,459.75,0.25,39,129.93
3139,B-3,460.0,0.25,41,129.93
3140,D5,460.0,0.25,56,129.93
3141,G#5,460.0,0.25,56,129.93
3142,B-5,460.25,0.25,46,129.93
3143,C4,460.25,0.25,41,129.93
3144,B-3,460.5,0.125,48,129.93
3145,D5,460.5,0.25,49,129.93
3146,G#5,460.5,0.25,49,129.93
3147,B-5,460.75,0.25,48,129.93
3148,B-3,461.0,0.125,48,129.93
3149,D5,461.0,0.25,49,129.93
3150,G#5,461.0,0.25,49,129.93
3151,B-5,461.25,0.25,46,129.93
3152,B-3,461.5,0.125,48,129.93
3153,D5,461.5,0.25,54,129.93
3154,G#5,461.5,0.25,54,129.93
3155,D6,461.75,0.25,46,129.93
3156,F4,462.0,0.5,44,129.93
3157,D5,462.0,0.25,49,129.93
3158,G#5,462.0,0.25,49,129.93
3159,D6,462.25,0.25,46,129.93
3160,G4,462.5,0.25,34,129.93
3161,D5,462.5,0.25,49,129.93
3162,G#5,462.5,0.25,49,129.93
3163,D6,462.75,0.25,46,129.93
3164,A4,462.75,0.25,34,129.93
3165,B-4,463.0,0.25,37,129.93
3166,E-5,463.0,0.25,52,129.93
3167,G#5,463.0,0.25,52,129.93
3168,E-6,463.25,0.25,46,129.93
3169,C5,463.25,0.25,37,129.93
3170,B-4,463.5,0.5,42,129.93
3171,E-5,463.5,0.25,49,129.93
3172,G#5,463.5,0.25,49,129.93
3173,E-6,463.75,0.25,46,129.93
3174,E-5,464.0,0.25,49,129.93
3175,G#5,464.0,0.25,49,129.93
3176,D6,464.25,0.25,46,129.93
3177,E-5,464.5,0.25,49,129.93
3178,A5,464.5,0.25,49,129.93
3179,C6,464.75,0.25,46,129.93
3180,E-5,465.0,0.25,49,129.93
3181,A5,465.0,0.25,49,129.93
3182,F4,465.0,0.5,30,129.93
3183,B-4,465.0,0.5,30,129.93
3184,C6,465.25,0.25,46,129.93
3185,E-5,465.5,0.25,49,129.93
3186,A5,465.5,0.25,49,129.93
3187,C6,465.75,0.25,46,129.93
3188,D5,466.0,0.25,49,129.93
3189,B-5,466.0,0.25,49,129.93
3190,D6,466.25,0.25,46,129.93
3191,D5,466.5,0.25,49,129.93
3192,B-5,466.5,0.25,49,129.93
3193,D4,466.5,0.5,28,129.93
3194,F4,466.5,0.5,28,129.93
3195,B-4,466.5,0.5,28,129.93
3196,D6,466.75,0.25,46,129.93
3197,D5,467.0,0.25,49,129.93
3198,B-5,467.0,0.25,49,129.93
3199,D6,467.25,0.25,46,129.93
3200,E-5,467.5,0.25,50,129.93
3201,A5,467.5,0.25,50,129.93
3202,C6,467.75,0.25,46,129.93
3203,E-5,468.0,0.25,49,129.93
3204,A5,468.0,0.25,49,129.93
3205,B-3,468.0,1.5,28,129.93
3206,F4,468.0,1.5,28,129.93
3207,B-4,468.0,1.5,28,129.93
3208,C6,468.25,0.25,45,129.93
3209,E-5,468.5,0.25,49,129.93
3210,A5,468.5,0.25,49,129.93
3211,C6,468.75,0.25,45,129.93
3212,D5,469.0,0.25,52,129.93
3213,B-5,469.0,0.25,52,129.93
3214,D6,469.25,0.25,46,129.93
3215,B-5,469.5,0.25,49,129.93
3216,D5,469.5,0.25,49,129.93
3217,D6,469.75,0.25,45,129.93
3218,D5,470.0,0.25,49,129.93
3219,B-5,470.0,0.25,49,129.93
3220,B-3,470.0,0.5,28,129.93
3221,F4,470.0,0.5,28,129.93
3222,B-4,470.0,0.5,28,129.93
3223,D6,470.25,0.25,45,129.93
3224,E-5,470.5,0.25,45,129.93
3225,A5,470.5,0.25,45,129.93
3226,C6,470.75,0.25,41,129.93
3227,E-5,471.0,0.25,44,129.93
3228,A5,471.0,0.25,44,129.93
3229,C6,471.25,0.25,40,129.93
3230,E-5,471.5,0.25,44,129.93
3231,A5,471.5,0.25,44,129.93
3232,C6,471.75,0.25,40,129.93
3233,D5,472.0,0.25,46,129.93
3234,B-5,472.0,0.25,46,129.93
3235,D6,472.25,0.25,41,129.93
3236,B-5,472.5,0.25,44,129.93
3237,D5,472.5,0.25,44,129.93
3238,D6,472.75,0.25,40,129.93
3239,D5,473.0,0.25,44,129.93
3240,B-5,473.0,0.25,44,129.93
3241,D6,473.25,0.25,40,129.93
3242,E-5,473.5,0.25,39,129.93
3243,A5,473.5,0.25,39,129.93
3244,C6,473.75,0.25,37,129.93
3245,E-5,474.0,0.25,38,129.93
3246,A5,474.0,0.25,38,129.93
3247,C6,474.25,0.25,35,129.93
3248,E-5,474.5,0.25,38,129.93
3249,A5,474.5,0.25,38,129.93
3250,C6,474.75,0.25,35,129.93
3251,D6,475.0,0.5,43,129.93
3252,D5,475.0,0.5,43,129.93
3253,B-5,475.0,0.5,43,129.93
3254,D5,476.5,0.5,37,129.93
3255,B-5,476.5,0.5,37,129.93
3256,D6,476.5,0.5,37,129.93
3257,D5,478.0,0.5,36,129.93
3258,B-5,478.0,0.5,36,129.93
3259,D6,478.0,0.5,36,129.93
3260,D5,479.5,1.5,32,129.93
3261,B-5,479.5,1.5,32,129.93
3262,D6,479.5,1.5,32,129.93
3263,D5,481.5,0.5,32,129.93
3264,B-5,481.5,0.5,32,129.93
3265,D6,481.5,0.5,32,129.93
