,note_name,start_time,duration,velocity,tempo
0,A3,0.002,999/500,50,70.0
1,C4,0.002,999/500,50,70.0
2,F2,0.002,999/500,41,70.0
3,C3,0.002,999/500,41,70.0
4,F4,1.5,0.5,42,70.0
5,F3,1.5,0.5,35,70.0
6,A4,2.0,1.0,50,70.0
7,A3,2.0,1.0,41,70.0
8,D5,3.0,1.0,54,70.0
9,D4,3.0,1.0,54,70.0
10,G4,4.0,2.0,50,70.0
11,C5,4.0,1.5,50,70.0
12,C4,4.0,1.5,50,70.0
13,E2,4.0,1.938,38,70.0
14,C3,4.0,1.938,38,70.0
15,G3,4.0,1.938,38,70.0
16,B-3,5.5,0.5,45,70.0
17,B-4,5.5,0.5,45,70.0
18,G3,6.0,1.0,50,70.0
19,G4,6.0,1.0,50,70.0
20,A4,7.0,1.0,45,70.0
21,A3,7.0,1.0,45,70.0
22,F4,8.0,2.0,45,70.0
23,F3,8.0,2.0,45,70.0
24,A3,8.0,2.0,45,70.0
25,A2,8.0,2.0,35,70.0
26,D3,8.0,2.0,35,70.0
27,D2,8.0,2.0,35,70.0
28,G4,10.0,2.0,37,70.0
29,B-4,10.0,2.0,37,70.0
30,C4,10.0,2.0,37,70.0
31,B-3,10.0,2.0,37,70.0
32,E2,10.0,2.0,31,70.0
33,E3,10.0,2.0,31,70.0
34,C3,10.0,2.0,31,70.0
35,C4,12.0,0.5,28,70.0
36,A3,12.0,0.5,28,70.0
37,A4,12.0,0.5,28,70.0
38,F4,12.0,0.5,28,70.0
39,C3,12.0,0.5,25,70.0
40,F3,12.0,0.5,25,70.0
41,F2,12.0,0.5,25,70.0
42,C4,13.0,0.75,21,70.0
43,C3,13.0,0.75,17,70.0
44,C#4,13.75,0.125,18,70.0
45,C#3,13.75,0.125,15,70.0
46,C4,13.875,0.125,18,70.0
47,C3,13.875,0.125,16,70.0
48,B3,14.0,0.75,25,70.0
49,B2,14.0,0.75,20,70.0
50,C4,14.75,0.125,18,70.0
51,C3,14.75,0.125,16,70.0
52,C#4,14.875,0.125,18,70.0
53,C#3,14.875,0.125,16,70.0
54,C4,15.0,0.25,21,70.0
55,C3,15.0,0.25,18,70.0
56,A3,16.0,2.0,46,70.0
57,C4,16.0,2.0,46,70.0
58,F2,16.0,2.0,38,70.0
59,C3,16.0,2.0,38,70.0
60,F4,17.5,0.5,46,70.0
61,F3,17.5,0.5,38,70.0
62,A4,18.0,1.0,50,70.0
63,A3,18.0,1.0,41,70.0
64,D5,19.0,1.0,61,70.0
65,A4,19.0,1.0,61,70.0
66,D4,19.0,1.0,61,70.0
67,F2,19.0,1.0,40,70.0
68,D3,19.0,1.0,40,70.0
69,A3,19.0,1.0,40,70.0
70,D5,20.0,2.0,60,70.0
71,A4,20.0,2.0,60,70.0
72,D4,20.0,2.0,60,70.0
73,F2,20.0,2.0,42,70.0
74,D3,20.0,2.0,42,70.0
75,A3,20.0,2.0,42,70.0
76,F4,21.5,0.5,65,70.0
77,F5,21.5,0.5,65,70.0
78,A5,22.0,1.0,69,70.0
79,A4,22.0,1.0,69,70.0
80,B-4,23.0,1.0,74,70.0
81,C#5,23.0,1.0,74,70.0
82,B-5,23.0,1.0,74,70.0
83,G4,23.0,1.0,58,70.0
84,A3,23.0,1.0,58,70.0
85,E4,23.0,1.0,58,70.0
86,C#5,24.0,2.0,71,70.0
87,B-5,24.0,2.0,71,70.0
88,B-4,24.0,2.0,71,70.0
89,E4,24.0,2.0,53,70.0
90,A3,24.0,2.0,53,70.0
91,G4,24.0,2.0,53,70.0
92,A5,26.0,1.0,52,70.0
93,A4,26.0,1.0,52,70.0
94,C5,26.0,1.0,52,70.0
95,A3,26.0,1.0,41,70.0
96,F4,26.0,1.0,41,70.0
97,C5,27.0,1.0,46,70.0
98,E4,27.0,1.0,35,70.0
99,C4,27.0,1.0,35,70.0
100,G5,27.0,1.0,46,70.0
101,B-4,27.0,1.0,46,70.0
102,C5,28.0,0.5,46,70.0
103,C4,28.0,0.5,35,70.0
104,A4,28.0,0.5,42,70.0
105,F5,28.0,0.5,42,70.0
106,F4,28.0,0.5,31,70.0
107,F3,28.0,0.5,31,70.0
108,C4,29.0,0.75,21,70.0
109,C3,29.0,0.75,17,70.0
110,C#4,29.75,0.125,18,70.0
111,C#3,29.75,0.125,15,70.0
112,C4,29.875,0.125,18,70.0
113,C3,29.875,0.125,16,70.0
114,B3,30.0,0.75,25,70.0
115,B2,30.0,0.75,20,70.0
116,C4,30.75,0.125,18,70.0
117,C3,30.75,0.125,16,70.0
118,C#4,30.875,0.125,18,70.0
119,C#3,30.875,0.125,16,70.0
120,C4,31.0,0.25,21,70.0
121,C3,31.0,0.25,18,70.0
122,G3,32.0,997/500,46,70.0
123,C4,32.0,1.5,46,70.0
124,C3,32.0,2.0,38,70.0
125,E2,32.0,2.0,38,70.0
126,E4,33.5,0.5,46,70.0
127,E3,33.5,0.5,38,70.0
128,G4,34.0,1.0,50,70.0
129,G3,34.0,1.0,41,70.0
130,B-3,35.0,1.0,61,70.0
131,C#4,35.0,1.0,61,70.0
132,B-4,35.0,1.0,61,70.0
133,E2,35.0,1.0,44,70.0
134,C#3,35.0,1.0,44,70.0
135,G3,35.0,1.0,44,70.0
136,F2,36.0,2.0,42,70.0
137,D3,36.0,1.5,42,70.0
138,B-3,36.0,2.0,56,70.0
139,D4,36.0,2.0,56,70.0
140,F4,37.5,0.5,56,70.0
141,F3,37.5,0.5,44,70.0
142,B-4,38.0,1.0,71,70.0
143,B-3,38.0,1.0,51,70.0
144,B-4,39.0,1.0,73,70.0
145,D5,39.0,1.0,73,70.0
146,F4,39.0,1.0,73,70.0
147,D4,39.0,1.0,73,70.0
148,D3,39.0,1.0,58,70.0
149,B-3,39.0,1.0,58,70.0
150,D3,40.0,3.0,62,70.0
151,E-4,40.0,2.0,77,70.0
152,F#4,40.0,2.0,77,70.0
153,E-5,40.0,2.0,77,70.0
154,C4,40.0,2.0,62,70.0
155,A3,40.0,2.0,62,70.0
156,B-3,42.0,1.0,55,70.0
157,D5,42.0,1.0,70,70.0
158,F4,42.0,1.0,70,70.0
159,D4,42.0,1.0,70,70.0
160,C4,43.0,1.0,71,70.0
161,F4,43.0,1.0,71,70.0
162,C5,43.0,1.0,71,70.0
163,A2,43.0,1.0,54,70.0
164,A3,43.0,1.0,54,70.0
165,A2,44.0,3.0,58,70.0
166,C#4,44.0,2.0,77,70.0
167,E4,44.0,2.0,77,70.0
168,C#5,44.0,2.0,77,70.0
169,G3,44.0,2.0,58,70.0
170,B-3,44.0,2.0,58,70.0
171,A3,46.0,249/250,47,70.0
172,C5,46.0,1.0,67,70.0
173,F4,46.0,1.0,67,70.0
174,C4,46.0,1.0,67,70.0
175,A3,47.0,1.0,51,70.0
176,A4,47.0,1.0,51,70.0
177,F4,47.0,1.0,51,70.0
178,F3,47.0,1.0,33,70.0
179,C3,47.0,1.0,33,70.0
180,F2,47.0,1.0,33,70.0
181,G4,48.0,2.0,50,70.0
182,C4,48.0,1.5,50,70.0
183,C5,48.0,1.5,50,70.0
184,E2,48.0,1.938,38,70.0
185,C3,48.0,1.938,38,70.0
186,G3,48.0,1.938,38,70.0
187,B-3,49.5,0.5,45,70.0
188,B-4,49.5,0.5,45,70.0
189,G3,50.0,1.0,50,70.0
190,G4,50.0,1.0,50,70.0
191,A4,51.0,1.0,45,70.0
192,A3,51.0,1.0,45,70.0
193,F4,52.0,2.0,45,70.0
194,F3,52.0,2.0,45,70.0
195,A3,52.0,2.0,45,70.0
196,A2,52.0,2.0,35,70.0
197,D3,52.0,2.0,35,70.0
198,D2,52.0,2.0,35,70.0
199,C2,54.0,2.0,33,70.0
200,C3,54.0,2.0,33,70.0
201,G4,54.0,2.0,39,70.0
202,B-3,54.0,2.0,39,70.0
203,E4,54.0,2.0,39,70.0
204,F2,56.0,0.5,26,70.0
205,C3,56.0,0.5,33,70.0
206,A4,56.0,0.5,32,70.0
207,A3,56.0,0.5,32,70.0
208,F4,56.0,0.5,32,70.0
209,C4,57.0,0.75,21,70.0
210,C3,57.0,0.75,17,70.0
211,C#4,57.75,0.125,18,70.0
212,C#3,57.75,0.125,15,70.0
213,C4,57.875,0.125,18,70.0
214,C3,57.875,0.125,16,70.0
215,B3,58.0,0.75,25,70.0
216,B2,58.0,0.75,20,70.0
217,C4,58.75,0.125,18,70.0
218,C3,58.75,0.125,16,70.0
219,C#4,58.875,0.125,18,70.0
220,C#3,58.875,0.125,16,70.0
221,C4,59.0,0.25,21,70.0
222,C3,59.0,0.25,18,70.0
223,G5,60.0,2.0,50,70.0
224,C5,60.0,1.5,50,70.0
225,C6,60.0,1.5,50,70.0
226,C4,60.0,2.0,38,70.0
227,G4,60.0,2.0,38,70.0
228,E3,60.0,2.0,38,70.0
229,B-4,61.5,0.5,45,70.0
230,B-5,61.5,0.5,45,70.0
231,G4,62.0,1.0,50,70.0
232,G5,62.0,1.0,50,70.0
233,A5,63.0,1.0,45,70.0
234,A4,63.0,1.0,45,70.0
235,F5,64.0,2.0,45,70.0
236,F4,64.0,2.0,45,70.0
237,A4,64.0,2.0,45,70.0
238,A3,64.0,2.0,35,70.0
239,D4,64.0,2.0,35,70.0
240,D3,64.0,2.0,35,70.0
241,C4,66.0,2.0,33,70.0
242,G5,66.0,2.0,39,70.0
243,G4,66.0,2.0,39,70.0
244,E5,66.0,2.0,39,70.0
245,C3,66.0,2.0,33,70.0
246,B-3,66.0,2.0,33,70.0
247,C4,68.0,0.5,33,70.0
248,F4,68.0,0.5,32,70.0
249,F5,68.0,0.5,32,70.0
250,A3,68.0,0.5,26,70.0
251,F3,68.0,0.5,26,70.0
252,C5,69.0,0.75,21,70.0
253,C4,69.0,0.75,17,70.0
254,C#5,69.75,0.125,18,70.0
255,C#4,69.75,0.125,15,70.0
256,C5,69.875,0.125,18,70.0
257,C4,69.875,0.125,16,70.0
258,B4,70.0,0.75,25,70.0
259,B3,70.0,0.75,20,70.0
260,C5,70.75,0.125,18,70.0
261,C4,70.75,0.125,16,70.0
262,C#5,70.875,0.125,18,70.0
263,C#4,70.875,0.125,16,70.0
264,C5,71.0,0.25,21,70.0
265,C4,71.0,0.25,18,70.0
266,F4,73.0,0.75,40,70.0
267,F3,73.0,0.75,33,70.0
268,F#4,73.75,0.125,34,70.0
269,F#3,73.75,0.125,28,70.0
270,F4,73.875,0.125,34,70.0
271,F3,73.875,0.125,30,70.0
272,E4,74.0,0.75,48,70.0
273,E3,74.0,0.75,39,70.0
274,F4,74.75,0.125,38,70.0
275,F3,74.75,0.125,35,70.0
276,F#4,74.875,0.125,39,70.0
277,F#3,74.875,0.125,38,70.0
278,F4,75.0,0.75,51,70.0
279,F3,75.0,0.75,43,70.0
280,E-4,75.75,0.125,45,70.0
281,E-3,75.75,0.125,41,70.0
282,C#4,75.875,0.125,52,70.0
283,C#3,75.875,0.125,46,70.0
284,C4,76.0,0.75,63,70.0
285,C3,76.0,0.75,55,70.0
286,C#4,76.75,0.125,53,70.0
287,C#3,76.75,0.125,40,70.0
288,E-4,76.875,0.125,55,70.0
289,E-3,76.875,0.125,41,70.0
290,C#4,77.0,0.75,71,70.0
291,C#3,77.0,0.75,58,70.0
292,C4,77.75,0.125,59,70.0
293,C3,77.75,0.125,58,70.0
294,B-3,77.875,0.125,67,70.0
295,B-2,77.875,0.125,58,70.0
296,A3,78.0,0.75,75,70.0
297,A2,78.0,0.75,68,70.0
298,B-3,78.75,0.125,71,70.0
299,B-2,78.75,0.125,63,70.0
300,C4,78.875,0.125,71,70.0
301,C3,78.875,0.125,63,70.0
302,B-3,79.0,0.75,87,70.0
303,B-2,79.0,0.75,76,70.0
304,G#3,79.75,0.125,76,70.0
305,G#2,79.75,0.125,66,70.0
306,F#3,79.875,0.125,86,70.0
307,F#2,79.875,0.125,73,70.0
308,F3,80.0,2.0,78,70.0
309,G#3,80.0,2.0,78,70.0
310,C#4,80.0,2.0,78,70.0
311,G#2,80.0,2.0,60,70.0
312,C#3,80.0,2.0,60,70.0
313,F2,80.0,2.0,60,70.0
314,C#2,82.0,2.0,63,70.0
315,F3,82.0,333/1000,68,70.0
316,C#4,82.0,333/1000,68,70.0
317,G#3,82.0,333/1000,68,70.0
318,C#4,82.333,333/1000,62,70.0
319,G#3,82.333,333/1000,62,70.0
320,F4,82.333,333/1000,62,70.0
321,C#4,82.667,0.25,63,70.0
322,G#3,82.667,0.25,63,70.0
323,F4,82.667,0.25,63,70.0
324,F4,83.0,333/1000,65,70.0
325,C#4,83.0,333/1000,65,70.0
326,G#4,83.0,333/1000,65,70.0
327,G#4,83.333,333/1000,58,70.0
328,F4,83.333,333/1000,58,70.0
329,C#5,83.333,333/1000,58,70.0
330,G#4,83.667,0.25,59,70.0
331,F4,83.667,0.25,59,70.0
332,C#5,83.667,0.25,59,70.0
333,C#5,84.0,1.0,69,70.0
334,G#1,84.0,333/1000,63,70.0
335,G#4,84.0,2.0,64,70.0
336,E-4,84.0,2.0,64,70.0
337,E-2,84.333,333/1000,55,70.0
338,E-2,84.667,0.25,55,70.0
339,C5,85.0,1.0,62,70.0
340,E-2,85.0,333/1000,61,70.0
341,G#2,85.333,333/1000,55,70.0
342,G#2,85.667,0.25,55,70.0
343,B-2,86.0,2.0,60,70.0
344,F3,86.0,333/1000,68,70.0
345,B-3,86.0,333/1000,68,70.0
346,C#4,86.0,333/1000,68,70.0
347,B-3,86.333,333/1000,60,70.0
348,F4,86.333,333/1000,60,70.0
349,C#4,86.333,333/1000,60,70.0
350,C#4,86.667,0.25,60,70.0
351,F4,86.667,0.25,60,70.0
352,B-3,86.667,0.25,60,70.0
353,F4,87.0,333/1000,67,70.0
354,B-3,87.0,333/1000,67,70.0
355,C#4,87.0,333/1000,67,70.0
356,B-4,87.333,333/1000,58,70.0
357,C#4,87.333,333/1000,58,70.0
358,F4,87.333,333/1000,58,70.0
359,B-4,87.667,0.25,58,70.0
360,C#4,87.667,0.25,58,70.0
361,F4,87.667,0.25,58,70.0
362,B-4,88.0,1.0,66,70.0
363,F1,88.0,333/1000,59,70.0
364,C4,88.0,2.0,66,70.0
365,F4,88.0,2.0,66,70.0
366,C2,88.333,333/1000,54,70.0
367,C2,88.667,0.25,54,70.0
368,G#4,89.0,1.0,62,70.0
369,C2,89.0,333/1000,58,70.0
370,F2,89.333,333/1000,53,70.0
371,F2,89.667,0.25,53,70.0
372,F#2,90.0,2.0,59,70.0
373,B-3,90.0,333/1000,61,70.0
374,C#3,90.0,333/1000,61,70.0
375,F#3,90.0,333/1000,61,70.0
376,C#4,90.333,333/1000,54,70.0
377,B-3,90.333,333/1000,54,70.0
378,F#3,90.333,333/1000,54,70.0
379,C#4,90.667,0.25,54,70.0
380,B-3,90.667,0.25,54,70.0
381,F#3,90.667,0.25,54,70.0
382,C#4,91.0,333/1000,60,70.0
383,F#3,91.0,333/1000,60,70.0
384,B-3,91.0,333/1000,60,70.0
385,B-3,91.333,333/1000,52,70.0
386,C#4,91.333,333/1000,52,70.0
387,F#4,91.333,333/1000,52,70.0
388,B-3,91.667,0.25,52,70.0
389,C#4,91.667,0.25,52,70.0
390,F#4,91.667,0.25,52,70.0
391,F#2,92.0,83/1000,35,70.0
392,F#4,92.0,333/1000,63,70.0
393,B-3,92.0,333/1000,63,70.0
394,C#4,92.0,333/1000,63,70.0
395,G#2,92.083,83/1000,45,70.0
396,F#2,92.167,83/1000,38,70.0
397,G#2,92.25,83/1000,45,70.0
398,F#2,92.333,83/1000,38,70.0
399,B-4,92.333,333/1000,59,70.0
400,C#4,92.333,333/1000,59,70.0
401,F#4,92.333,333/1000,59,70.0
402,G#2,92.417,83/1000,46,70.0
403,F#2,92.5,83/1000,37,70.0
404,G#2,92.583,83/1000,47,70.0
405,F#2,92.667,83/1000,40,70.0
406,B-4,92.667,0.25,59,70.0
407,C#4,92.667,0.25,59,70.0
408,F#4,92.667,0.25,59,70.0
409,G#2,92.75,83/1000,48,70.0
410,F#2,92.833,83/1000,40,70.0
411,G#2,92.917,83/1000,49,70.0
412,F#2,93.0,83/1000,40,70.0
413,F#4,93.0,333/1000,67,70.0
414,B-4,93.0,333/1000,67,70.0
415,C#4,93.0,333/1000,67,70.0
416,G#2,93.083,83/1000,50,70.0
417,F#2,93.167,83/1000,43,70.0
418,G#2,93.25,83/1000,52,70.0
419,F#2,93.333,83/1000,43,70.0
420,B-4,93.333,333/1000,64,70.0
421,C#5,93.333,333/1000,64,70.0
422,F#4,93.333,333/1000,64,70.0
423,G#2,93.417,83/1000,53,70.0
424,F#2,93.5,83/1000,43,70.0
425,G#2,93.583,83/1000,54,70.0
426,F#2,93.667,83/1000,46,70.0
427,B-4,93.667,0.25,66,70.0
428,C#5,93.667,0.25,66,70.0
429,F#4,93.667,0.25,66,70.0
430,G#2,93.75,83/1000,54,70.0
431,F#2,93.833,83/1000,47,70.0
432,G#2,93.917,83/1000,55,70.0
433,F#2,94.0,83/1000,46,70.0
434,B-4,94.0,333/1000,72,70.0
435,C#5,94.0,333/1000,72,70.0
436,F#4,94.0,333/1000,72,70.0
437,G#2,94.083,83/1000,57,70.0
438,F#2,94.167,83/1000,48,70.0
439,G#2,94.25,83/1000,58,70.0
440,F#2,94.333,83/1000,49,70.0
441,C#5,94.333,333/1000,65,70.0
442,F#5,94.333,333/1000,65,70.0
443,B-4,94.333,333/1000,65,70.0
444,G#2,94.417,83/1000,59,70.0
445,F#2,94.5,83/1000,49,70.0
446,G#2,94.583,83/1000,61,70.0
447,F#2,94.667,83/1000,51,70.0
448,C#5,94.667,0.25,67,70.0
449,F#5,94.667,0.25,67,70.0
450,B-4,94.667,0.25,67,70.0
451,G#2,94.75,83/1000,61,70.0
452,F#2,94.833,83/1000,52,70.0
453,G#2,94.917,83/1000,63,70.0
454,F#2,95.0,83/1000,51,70.0
455,B-4,95.0,333/1000,75,70.0
456,C#5,95.0,333/1000,75,70.0
457,F#5,95.0,333/1000,75,70.0
458,G#2,95.083,83/1000,64,70.0
459,F#2,95.167,83/1000,54,70.0
460,G#2,95.25,83/1000,64,70.0
461,F#2,95.333,83/1000,54,70.0
462,B-5,95.333,333/1000,72,70.0
463,B-4,95.333,333/1000,72,70.0
464,C#5,95.333,333/1000,72,70.0
465,F#5,95.333,333/1000,72,70.0
466,G#2,95.417,83/1000,66,70.0
467,F#2,95.5,83/1000,54,70.0
468,G#2,95.583,83/1000,67,70.0
469,F#2,95.667,83/1000,58,70.0
470,F#5,95.667,0.25,72,70.0
471,B-4,95.667,0.25,72,70.0
472,C#5,95.667,0.25,72,70.0
473,B-5,95.667,0.25,72,70.0
474,G#2,95.75,83/1000,69,70.0
475,F#2,95.833,83/1000,58,70.0
476,G#2,95.917,83/1000,44,70.0
477,G#5,96.0,1.0,90,70.0
478,C#5,96.0,1.0,90,70.0
479,C#6,96.0,1.0,90,70.0
480,F#2,96.0,333/1000,76,70.0
481,F#1,96.0,333/1000,76,70.0
482,F1,96.333,333/1000,68,70.0
483,F2,96.333,333/1000,68,70.0
484,F1,96.667,0.25,68,70.0
485,F2,96.667,0.25,68,70.0
486,C#5,97.0,333/1000,81,70.0
487,B5,97.0,333/1000,81,70.0
488,B4,97.0,333/1000,81,70.0
489,G#5,97.0,333/1000,81,70.0
490,F#2,97.0,1.0,76,70.0
491,F#1,97.0,1.0,76,70.0
492,C#5,97.333,333/1000,72,70.0
493,B-4,97.333,333/1000,72,70.0
494,B-5,97.333,333/1000,72,70.0
495,F#5,97.333,333/1000,72,70.0
496,B-4,97.667,0.25,72,70.0
497,F#5,97.667,0.25,72,70.0
498,C#5,97.667,0.25,72,70.0
499,B-5,97.667,0.25,72,70.0
500,C#6,98.0,1.0,90,70.0
501,C#5,98.0,1.0,90,70.0
502,G#5,98.0,1.0,90,70.0
503,F#2,98.0,333/1000,76,70.0
504,F#1,98.0,333/1000,76,70.0
505,F2,98.333,333/1000,68,70.0
506,F1,98.333,333/1000,68,70.0
507,F1,98.667,0.25,68,70.0
508,F2,98.667,0.25,68,70.0
509,B5,99.0,333/1000,81,70.0
510,B4,99.0,333/1000,81,70.0
511,C#5,99.0,333/1000,81,70.0
512,G#5,99.0,333/1000,81,70.0
513,F#2,99.0,1.0,76,70.0
514,F#1,99.0,1.0,76,70.0
515,C#5,99.333,333/1000,72,70.0
516,F#5,99.333,333/1000,72,70.0
517,B-5,99.333,333/1000,72,70.0
518,B-4,99.333,333/1000,72,70.0
519,B-4,99.667,0.25,72,70.0
520,F#5,99.667,0.25,72,70.0
521,B-5,99.667,0.25,72,70.0
522,C#5,99.667,0.25,72,70.0
523,E6,100.0,1.0,96,70.0
524,B-5,100.0,1.0,96,70.0
525,E5,100.0,1.0,96,70.0
526,G#1,100.0,333/1000,76,70.0
527,G#2,100.0,333/1000,76,70.0
528,G2,100.333,333/1000,68,70.0
529,G1,100.333,333/1000,68,70.0
530,G1,100.667,0.25,68,70.0
531,G2,100.667,0.25,68,70.0
532,D6,101.0,333/1000,93,70.0
533,D5,101.0,333/1000,93,70.0
534,B-5,101.0,333/1000,93,70.0
535,G3,101.0,1.0,76,70.0
536,G2,101.0,1.0,76,70.0
537,B-5,101.333,333/1000,87,70.0
538,E-5,101.333,333/1000,87,70.0
539,E-6,101.333,333/1000,87,70.0
540,B-5,101.667,0.25,87,70.0
541,E-5,101.667,0.25,87,70.0
542,E-6,101.667,0.25,87,70.0
543,E6,102.0,1.0,96,70.0
544,B-5,102.0,1.0,96,70.0
545,E5,102.0,1.0,96,70.0
546,G#2,102.0,333/1000,76,70.0
547,G#1,102.0,333/1000,76,70.0
548,G2,102.333,333/1000,68,70.0
549,G1,102.333,333/1000,68,70.0
550,G1,102.667,0.25,68,70.0
551,G2,102.667,0.25,68,70.0
552,D6,103.0,333/1000,93,70.0
553,D5,103.0,333/1000,93,70.0
554,B-5,103.0,333/1000,93,70.0
555,G2,103.0,1.0,76,70.0
556,G3,103.0,1.0,76,70.0
557,B-5,103.333,333/1000,87,70.0
558,E-5,103.333,333/1000,87,70.0
559,E-6,103.333,333/1000,87,70.0
560,B-5,103.667,0.25,87,70.0
561,E-5,103.667,0.25,87,70.0
562,E-6,103.667,0.25,87,70.0
563,B-5,104.0,1.0,87,70.0
564,E5,104.0,1.0,87,70.0
565,E6,104.0,1.0,87,70.0
566,G2,104.0,333/1000,64,70.0
567,G1,104.0,333/1000,64,70.0
568,G3,104.333,333/1000,52,70.0
569,G2,104.333,333/1000,52,70.0
570,G2,104.667,0.25,52,70.0
571,G3,104.667,0.25,52,70.0
572,E5,105.0,1.0,89,70.0
573,E6,105.0,1.0,89,70.0
574,B-5,105.0,1.0,89,70.0
575,G2,105.0,333/1000,66,70.0
576,G1,105.0,333/1000,66,70.0
577,G3,105.333,333/1000,54,70.0
578,G2,105.333,333/1000,54,70.0
579,G3,105.667,0.25,54,70.0
580,G2,105.667,0.25,54,70.0
581,E5,106.0,1.0,92,70.0
582,E6,106.0,1.0,92,70.0
583,B-5,106.0,1.0,92,70.0
584,G1,106.0,333/1000,68,70.0
585,G2,106.0,333/1000,68,70.0
586,G3,106.333,333/1000,59,70.0
587,G2,106.333,333/1000,59,70.0
588,G2,106.667,0.25,59,70.0
589,G3,106.667,0.25,59,70.0
590,E5,107.0,1.0,95,70.0
591,E6,107.0,1.0,95,70.0
592,B-5,107.0,1.0,95,70.0
593,G1,107.0,333/1000,71,70.0
594,G2,107.0,333/1000,71,70.0
595,G2,107.333,333/1000,62,70.0
596,G3,107.333,333/1000,62,70.0
597,G2,107.667,0.25,62,70.0
598,G3,107.667,0.25,62,70.0
599,B5,108.0,1.0,98,70.0
600,F5,108.0,1.0,98,70.0
601,D6,108.0,1.0,98,70.0
602,F6,108.0,1.0,98,70.0
603,G2,108.0,333/1000,76,70.0
604,G1,108.0,333/1000,76,70.0
605,G2,108.333,333/1000,68,70.0
606,G3,108.333,333/1000,68,70.0
607,G2,108.667,0.25,68,70.0
608,G3,108.667,0.25,68,70.0
609,D6,109.0,1.0,98,70.0
610,F6,109.0,1.0,98,70.0
611,B5,109.0,1.0,98,70.0
612,F5,109.0,1.0,98,70.0
613,G2,109.0,333/1000,80,70.0
614,G1,109.0,333/1000,80,70.0
615,G3,109.333,333/1000,69,70.0
616,G2,109.333,333/1000,69,70.0
617,G3,109.667,0.25,69,70.0
618,G2,109.667,0.25,69,70.0
619,F#6,110.0,1.0,101,70.0
620,A5,110.0,1.0,101,70.0
621,E-6,110.0,1.0,101,70.0
622,C6,110.0,1.0,101,70.0
623,F#5,110.0,1.0,101,70.0
624,G1,110.0,333/1000,90,70.0
625,G2,110.0,333/1000,90,70.0
626,G3,110.333,333/1000,71,70.0
627,G2,110.333,333/1000,71,70.0
628,G2,110.667,0.25,71,70.0
629,G3,110.667,0.25,71,70.0
630,E-6,111.0,1.0,102,70.0
631,C6,111.0,1.0,102,70.0
632,F#5,111.0,1.0,102,70.0
633,A5,111.0,1.0,102,70.0
634,F#6,111.0,1.0,102,70.0
635,G2,111.0,333/1000,97,70.0
636,G1,111.0,333/1000,97,70.0
637,G3,111.333,333/1000,76,70.0
638,G2,111.333,333/1000,76,70.0
639,G2,111.667,0.25,76,70.0
640,G3,111.667,0.25,76,70.0
641,G6,112.0,0.25,104,70.0
642,G5,112.0,0.25,104,70.0
643,D6,112.0,0.25,104,70.0
644,B5,112.0,0.25,104,70.0
645,G1,112.0,0.5,98,70.0
646,G2,112.0,0.5,98,70.0
647,G5,112.333,0.25,86,70.0
648,G5,112.667,0.25,72,70.0
649,G4,113.0,333/1000,81,70.0
650,G5,113.333,333/1000,69,70.0
651,G5,113.667,0.25,61,70.0
652,G4,114.0,333/1000,61,70.0
653,G5,114.333,333/1000,54,70.0
654,G5,114.667,0.25,45,70.0
655,G4,115.0,333/1000,59,70.0
656,G5,115.333,333/1000,50,70.0
657,G5,115.667,0.25,45,70.0
658,G4,116.0,333/1000,56,70.0
659,D4,116.0,2.0,54,70.0
660,F4,116.0,2.0,54,70.0
661,G5,116.333,333/1000,45,70.0
662,G5,116.667,0.25,45,70.0
663,G4,117.0,333/1000,54,70.0
664,G5,117.333,333/1000,42,70.0
665,G5,117.667,0.25,43,70.0
666,G4,118.0,333/1000,50,70.0
667,E4,118.0,1.0,40,70.0
668,C4,118.0,1.0,40,70.0
669,G5,118.333,333/1000,39,70.0
670,G5,118.667,0.25,39,70.0
671,G4,119.0,333/1000,50,70.0
672,G3,119.0,1.0,35,70.0
673,D4,119.0,1.0,35,70.0
674,G5,119.333,333/1000,40,70.0
675,G5,119.667,0.25,39,70.0
676,E5,120.0,333/1000,48,70.0
677,C3,120.0,2.0,45,70.0
678,G3,120.0,2.0,45,70.0
679,E3,120.0,2.0,45,70.0
680,G5,120.333,333/1000,40,70.0
681,G5,120.667,0.25,40,70.0
682,G5,121.0,333/1000,50,70.0
683,C6,121.333,333/1000,39,70.0
684,C4,121.5,0.5,37,70.0
685,C6,121.667,0.25,39,70.0
686,C6,122.0,333/1000,48,70.0
687,E4,122.0,1.0,45,70.0
688,E6,122.333,333/1000,39,70.0
689,E6,122.667,0.25,39,70.0
690,E6,123.0,333/1000,54,70.0
691,A4,123.0,1.0,48,70.0
692,A6,123.333,333/1000,43,70.0
693,A6,123.667,0.25,42,70.0
694,B2,123.833,167/1000,35,70.0
695,G3,123.917,83/1000,40,70.0
696,A6,124.0,333/1000,54,70.0
697,G4,124.0,1.5,45,70.0
698,B2,124.0,2.0,35,70.0
699,G3,124.0,2.0,40,70.0
700,G6,124.333,333/1000,44,70.0
701,G6,124.667,0.25,41,70.0
702,G6,125.0,333/1000,51,70.0
703,F6,125.333,333/1000,42,70.0
704,F4,125.5,0.5,40,70.0
705,F6,125.667,0.25,42,70.0
706,F6,126.0,333/1000,50,70.0
707,D4,126.0,1.0,45,70.0
708,D6,126.333,333/1000,42,70.0
709,D6,126.667,0.25,42,70.0
710,D6,127.0,333/1000,48,70.0
711,E4,127.0,1.0,40,70.0
712,E6,127.333,333/1000,42,70.0
713,E6,127.667,0.25,42,70.0
714,A2,127.833,167/1000,38,70.0
715,E3,127.917,83/1000,40,70.0
716,E5,128.0,333/1000,48,70.0
717,C4,128.0,2.0,45,70.0
718,A2,128.0,1833/1000,38,70.0
719,E3,128.0,1917/1000,40,70.0
720,C6,128.333,333/1000,43,70.0
721,C6,128.667,0.25,43,70.0
722,D6,129.0,333/1000,48,70.0
723,C6,129.333,333/1000,42,70.0
724,C6,129.667,0.25,42,70.0
725,B2,129.833,2.0,35,70.0
726,G3,129.917,2.0,37,70.0
727,B5,130.0,333/1000,48,70.0
728,F4,130.0,2.0,40,70.0
729,F6,130.333,333/1000,43,70.0
730,F6,130.667,0.25,44,70.0
731,G6,131.0,333/1000,48,70.0
732,F6,131.333,333/1000,42,70.0
733,F6,131.667,0.25,41,70.0
734,C3,131.833,167/1000,31,70.0
735,G3,131.917,83/1000,31,70.0
736,E6,132.0,0.25,40,70.0
737,E4,132.0,0.25,36,70.0
738,C3,132.0,0.25,31,70.0
739,G3,132.0,0.25,31,70.0
740,C5,133.0,2.25,26,70.0
741,E5,133.0,0.75,26,70.0
742,C4,133.0,2.25,21,70.0
743,G4,133.0,1.0,21,70.0
744,F5,133.75,0.125,23,70.0
745,E5,133.875,0.125,23,70.0
746,E-5,134.0,0.75,29,70.0
747,A4,134.0,1.0,17,70.0
748,F#4,134.0,1.0,17,70.0
749,E5,134.75,0.125,22,70.0
750,F5,134.875,0.125,22,70.0
751,E5,135.0,0.25,26,70.0
752,G4,135.0,0.25,21,70.0
753,E5,136.0,333/1000,48,70.0
754,G3,136.0,2.0,45,70.0
755,E3,136.0,2.0,45,70.0
756,C3,136.0,2.0,45,70.0
757,G5,136.333,333/1000,40,70.0
758,G5,136.667,0.25,40,70.0
759,G5,137.0,333/1000,50,70.0
760,C6,137.333,333/1000,39,70.0
761,C4,137.5,0.5,37,70.0
762,C6,137.667,0.25,39,70.0
763,C6,138.0,333/1000,52,70.0
764,E4,138.0,1.0,45,70.0
765,E6,138.333,333/1000,43,70.0
766,E6,138.667,0.25,43,70.0
767,C3,138.833,1167/1000,35,70.0
768,C4,138.917,1083/1000,40,70.0
769,E6,139.0,333/1000,56,70.0
770,A4,139.0,1.0,48,70.0
771,A6,139.333,333/1000,46,70.0
772,A6,139.667,0.25,46,70.0
773,E5,140.0,333/1000,60,70.0
774,C3,140.0,2.0,53,70.0
775,A3,140.0,2.0,53,70.0
776,E3,140.0,2.0,53,70.0
777,A5,140.333,333/1000,56,70.0
778,A5,140.667,0.25,52,70.0
779,A5,141.0,333/1000,61,70.0
780,C6,141.333,333/1000,55,70.0
781,C4,141.5,0.5,48,70.0
782,C6,141.667,0.25,55,70.0
783,C6,142.0,333/1000,68,70.0
784,E4,142.0,1.0,54,70.0
785,E6,142.333,333/1000,63,70.0
786,E6,142.667,0.25,64,70.0
787,E6,143.0,333/1000,87,70.0
788,E3,143.0,333/1000,63,70.0
789,D4,143.0,333/1000,63,70.0
790,B3,143.0,333/1000,63,70.0
791,G#5,143.333,333/1000,72,70.0
792,F6,143.333,333/1000,72,70.0
793,F5,143.333,333/1000,72,70.0
794,D4,143.333,333/1000,54,70.0
795,E3,143.333,333/1000,54,70.0
796,B3,143.333,333/1000,54,70.0
797,G#5,143.667,0.25,72,70.0
798,F5,143.667,0.25,72,70.0
799,F6,143.667,0.25,72,70.0
800,B3,143.667,333/1000,54,70.0
801,E3,143.667,333/1000,54,70.0
802,D4,143.667,333/1000,54,70.0
803,F6,144.0,2.0,76,70.0
804,F5,144.0,2.0,76,70.0
805,G#5,144.0,2.0,76,70.0
806,E3,144.0,2.0,60,70.0
807,B3,144.0,2.0,60,70.0
808,D4,144.0,2.0,60,70.0
809,G5,146.0,333/1000,65,70.0
810,E3,146.0,1.0,46,70.0
811,C4,146.0,1.0,46,70.0
812,F6,146.333,167/1000,58,70.0
813,E6,146.667,167/1000,49,70.0
814,F5,147.0,333/1000,58,70.0
815,G3,147.0,1.0,38,70.0
816,B3,147.0,1.0,38,70.0
817,E6,147.333,167/1000,51,70.0
818,D6,147.667,167/1000,48,70.0
819,C4,148.0,0.5,37,70.0
820,C6,148.0,0.5,50,70.0
821,E5,148.0,0.5,50,70.0
822,C5,149.0,2.25,21,70.0
823,E5,149.0,0.75,26,70.0
824,C4,149.0,2.25,21,70.0
825,G4,149.0,1.0,21,70.0
826,F5,149.75,0.125,23,70.0
827,E5,149.875,0.125,23,70.0
828,E-5,150.0,0.75,29,70.0
829,F#4,150.0,1.0,17,70.0
830,A4,150.0,1.0,17,70.0
831,E5,150.75,0.125,22,70.0
832,F5,150.875,0.125,22,70.0
833,E5,151.0,0.25,26,70.0
834,G4,151.0,0.25,21,70.0
835,G4,152.0,333/1000,48,70.0
836,C3,152.0,2.0,45,70.0
837,E2,152.0,2.0,45,70.0
838,C5,152.333,333/1000,40,70.0
839,C5,152.667,0.25,40,70.0
840,C5,153.0,333/1000,50,70.0
841,E5,153.333,333/1000,39,70.0
842,E3,153.5,0.5,37,70.0
843,E5,153.667,0.25,39,70.0
844,E5,154.0,333/1000,52,70.0
845,G3,154.0,1.0,45,70.0
846,G5,154.333,333/1000,43,70.0
847,G5,154.667,0.25,43,70.0
848,E2,154.833,1167/1000,35,70.0
849,C#3,154.917,1083/1000,40,70.0
850,G5,155.0,333/1000,56,70.0
851,B-3,155.0,1.0,48,70.0
852,C#5,155.0,0.75,56,70.0
853,B-4,155.0,0.75,56,70.0
854,B-5,155.333,333/1000,46,70.0
855,B-5,155.667,0.25,46,70.0
856,B-4,155.75,0.25,55,70.0
857,C#5,155.75,0.25,55,70.0
858,B-4,156.0,333/1000,67,70.0
859,D3,156.0,2.0,58,70.0
860,F2,156.0,2.0,58,70.0
861,D5,156.333,333/1000,56,70.0
862,D5,156.667,0.25,52,70.0
863,D5,157.0,333/1000,61,70.0
864,F5,157.333,333/1000,55,70.0
865,F3,157.5,0.5,48,70.0
866,F5,157.667,0.25,55,70.0
867,F5,158.0,333/1000,68,70.0
868,B-3,158.0,1.0,54,70.0
869,B-5,158.333,333/1000,63,70.0
870,B-5,158.667,0.25,64,70.0
871,B-5,159.0,333/1000,88,70.0
872,D3,159.0,333/1000,65,70.0
873,B-3,159.0,333/1000,65,70.0
874,D6,159.333,333/1000,79,70.0
875,F5,159.333,333/1000,79,70.0
876,D5,159.333,333/1000,79,70.0
877,B-3,159.333,333/1000,56,70.0
878,D3,159.333,333/1000,56,70.0
879,D5,159.667,0.25,79,70.0
880,F5,159.667,0.25,79,70.0
881,D6,159.667,0.25,79,70.0
882,D3,159.667,333/1000,56,70.0
883,B-3,159.667,333/1000,56,70.0
884,E-6,160.0,2.0,96,70.0
885,E-5,160.0,2.0,96,70.0
886,F#5,160.0,2.0,96,70.0
887,D3,160.0,2.0,63,70.0
888,A3,160.0,2.0,63,70.0
889,C4,160.0,2.0,63,70.0
890,F5,162.0,333/1000,65,70.0
891,B-3,162.0,1.0,46,70.0
892,D3,162.0,1.0,46,70.0
893,E-6,162.333,167/1000,58,70.0
894,D6,162.667,167/1000,49,70.0
895,F5,163.0,333/1000,58,70.0
896,A3,163.0,1.0,38,70.0
897,A2,163.0,1.0,38,70.0
898,F3,163.0,1.0,38,70.0
899,D6,163.333,167/1000,51,70.0
900,C6,163.667,167/1000,48,70.0
901,C#6,164.0,2.0,93,70.0
902,C#5,164.0,2.0,93,70.0
903,E5,164.0,2.0,93,70.0
904,A2,164.0,2.0,66,70.0
905,B-3,164.0,2.0,66,70.0
906,G3,164.0,2.0,66,70.0
907,C5,166.0,333/1000,65,70.0
908,F3,166.0,1.0,54,70.0
909,A3,166.0,1.0,54,70.0
910,A2,166.0,1.0,54,70.0
911,C#6,166.333,167/1000,58,70.0
912,C6,166.667,167/1000,49,70.0
913,C5,167.0,333/1000,58,70.0
914,F2,167.0,1.0,38,70.0
915,F3,167.0,1.0,38,70.0
916,C3,167.0,1.0,38,70.0
917,B-5,167.333,167/1000,51,70.0
918,A5,167.667,167/1000,48,70.0
919,E2,167.833,167/1000,35,70.0
920,C3,167.917,83/1000,40,70.0
921,D6,168.0,333/1000,54,70.0
922,C4,168.0,1.5,45,70.0
923,E2,168.0,2.0,35,70.0
924,C3,168.0,2.0,40,70.0
925,C6,168.333,333/1000,44,70.0
926,C6,168.667,0.25,41,70.0
927,C6,169.0,333/1000,51,70.0
928,B-5,169.333,333/1000,42,70.0
929,B-3,169.5,0.5,40,70.0
930,B-5,169.667,0.25,42,70.0
931,B-5,170.0,333/1000,50,70.0
932,G3,170.0,1.0,45,70.0
933,G5,170.333,333/1000,42,70.0
934,G5,170.667,0.25,42,70.0
935,G5,171.0,333/1000,48,70.0
936,A3,171.0,1.0,40,70.0
937,A5,171.333,333/1000,42,70.0
938,A5,171.667,0.25,42,70.0
939,D2,171.833,167/1000,38,70.0
940,A2,171.917,83/1000,40,70.0
941,A4,172.0,333/1000,48,70.0
942,F3,172.0,2.0,45,70.0
943,D2,172.0,1833/1000,38,70.0
944,A2,172.0,1917/1000,40,70.0
945,F5,172.333,333/1000,43,70.0
946,F5,172.667,0.25,43,70.0
947,G5,173.0,333/1000,48,70.0
948,F5,173.333,333/1000,42,70.0
949,F5,173.667,0.25,42,70.0
950,E2,173.833,2.0,35,70.0
951,C3,173.917,2.0,37,70.0
952,E5,174.0,333/1000,48,70.0
953,G3,174.0,2.0,40,70.0
954,B-5,174.333,333/1000,43,70.0
955,B-5,174.667,0.25,44,70.0
956,C6,175.0,333/1000,48,70.0
957,B-5,175.333,333/1000,42,70.0
958,B-5,175.667,0.25,41,70.0
959,F2,175.833,167/1000,31,70.0
960,C3,175.917,83/1000,31,70.0
961,A5,176.0,0.25,40,70.0
962,A3,176.0,0.25,36,70.0
963,F2,176.0,0.25,31,70.0
964,C3,176.0,0.25,31,70.0
965,A4,177.0,0.75,26,70.0
966,F4,177.0,2.25,21,70.0
967,C4,177.0,1.0,21,70.0
968,F3,177.0,2.25,21,70.0
969,B-4,177.75,0.125,23,70.0
970,A4,177.875,0.125,23,70.0
971,G#4,178.0,0.75,29,70.0
972,B3,178.0,1.0,17,70.0
973,D4,178.0,1.0,17,70.0
974,A4,178.75,0.125,22,70.0
975,B-4,178.875,0.125,22,70.0
976,A4,179.0,0.25,26,70.0
977,C4,179.0,0.25,21,70.0
978,E3,179.833,167/1000,35,70.0
979,C4,179.917,83/1000,40,70.0
980,D7,180.0,333/1000,54,70.0
981,C5,180.0,1.5,45,70.0
982,E3,180.0,2.0,35,70.0
983,C4,180.0,2.0,40,70.0
984,C7,180.333,333/1000,44,70.0
985,C7,180.667,0.25,41,70.0
986,C7,181.0,333/1000,51,70.0
987,B-6,181.333,333/1000,42,70.0
988,B-4,181.5,0.5,40,70.0
989,B-6,181.667,0.25,42,70.0
990,B-6,182.0,333/1000,50,70.0
991,G4,182.0,1.0,45,70.0
992,G6,182.333,333/1000,42,70.0
993,G6,182.667,0.25,42,70.0
994,G6,183.0,333/1000,48,70.0
995,A4,183.0,1.0,40,70.0
996,A6,183.333,333/1000,42,70.0
997,A6,183.667,0.25,42,70.0
998,D3,183.833,167/1000,38,70.0
999,A3,183.917,83/1000,40,70.0
1000,A5,184.0,333/1000,48,70.0
1001,F4,184.0,2.0,45,70.0
1002,D3,184.0,1833/1000,38,70.0
1003,A3,184.0,1917/1000,40,70.0
1004,F6,184.333,333/1000,43,70.0
1005,F6,184.667,0.25,43,70.0
1006,G6,185.0,333/1000,48,70.0
1007,F6,185.333,333/1000,42,70.0
1008,F6,185.667,0.25,42,70.0
1009,C3,185.833,2167/1000,35,70.0
1010,B-3,185.917,2083/1000,37,70.0
1011,B-5,186.0,333/1000,48,70.0
1012,E4,186.0,2.0,40,70.0
1013,G6,186.333,333/1000,43,70.0
1014,G6,186.667,0.25,44,70.0
1015,B-6,187.0,333/1000,48,70.0
1016,A6,187.333,333/1000,42,70.0
1017,G6,187.667,0.25,41,70.0
1018,F6,188.0,0.25,40,70.0
1019,F4,188.0,0.25,33,70.0
1020,A3,188.0,0.25,33,70.0
1021,F3,188.0,0.25,33,70.0
1022,F4,189.0,2.25,21,70.0
1023,A4,189.0,0.75,26,70.0
1024,F3,189.0,2.25,21,70.0
1025,C4,189.0,1.0,21,70.0
1026,B-4,189.75,0.125,23,70.0
1027,A4,189.875,0.125,23,70.0
1028,G#4,190.0,0.75,29,70.0
1029,D4,190.0,1.0,17,70.0
1030,B3,190.0,1.0,17,70.0
1031,A4,190.75,0.125,22,70.0
1032,B-4,190.875,0.125,22,70.0
1033,A4,191.0,0.25,26,70.0
1034,C4,191.0,0.25,21,70.0
1035,C5,193.0,0.75,32,70.0
1036,C4,193.0,0.75,26,70.0
1037,C#5,193.75,0.125,27,70.0
1038,C#4,193.75,0.125,22,70.0
1039,C5,193.875,0.125,27,70.0
1040,C4,193.875,0.125,24,70.0
1041,B4,194.0,0.75,38,70.0
1042,B3,194.0,0.75,31,70.0
1043,C5,194.75,0.125,27,70.0
1044,C4,194.75,0.125,24,70.0
1045,C#5,194.875,0.125,27,70.0
1046,C#4,194.875,0.125,24,70.0
1047,C5,195.0,0.25,32,70.0
1048,C4,195.0,0.25,27,70.0
1049,B4,196.0,0.75,50,70.0
1050,B3,196.0,0.75,40,70.0
1051,C5,196.75,0.125,46,70.0
1052,C4,196.75,0.125,38,70.0
1053,C#5,196.875,0.125,46,70.0
1054,C#4,196.875,0.125,42,70.0
1055,C5,197.0,0.75,68,70.0
1056,C4,197.0,0.75,55,70.0
1057,B-4,197.75,0.125,56,70.0
1058,B-3,197.75,0.125,49,70.0
1059,G#4,197.875,0.125,57,70.0
1060,G#3,197.875,0.125,50,70.0
1061,G4,198.0,0.75,73,70.0
1062,G3,198.0,0.75,61,70.0
1063,G#4,198.75,0.125,60,70.0
1064,G#3,198.75,0.125,48,70.0
1065,B-4,198.875,0.125,60,70.0
1066,B-3,198.875,0.125,53,70.0
1067,G#4,199.0,0.75,70,70.0
1068,G#3,199.0,0.75,60,70.0
1069,G4,199.75,0.125,66,70.0
1070,G3,199.75,0.125,54,70.0
1071,F4,199.875,0.125,58,70.0
1072,F3,199.875,0.125,50,70.0
1073,C4,200.0,2.0,50,70.0
1074,F3,200.0,4.0,34,70.0
1075,C3,200.0,4.0,34,70.0
1076,A3,200.0,4.0,34,70.0
1077,C5,202.0,0.75,58,70.0
1078,D5,202.75,0.125,53,70.0
1079,E5,202.875,0.125,53,70.0
1080,F5,203.0,0.75,63,70.0
1081,G5,203.75,0.125,58,70.0
1082,A5,203.875,0.125,64,70.0
1083,C#5,204.0,2.0,76,70.0
1084,B-4,204.0,2.0,76,70.0
1085,B-5,204.0,2.0,76,70.0
1086,G3,204.0,4.0,52,70.0
1087,E3,204.0,4.0,52,70.0
1088,A2,204.0,4.0,52,70.0
1089,B-5,206.0,13/125,37,70.0
1090,C#5,206.0,2.0,32,70.0
1091,C6,206.104,13/125,32,70.0
1092,B-5,206.208,13/125,36,70.0
1093,C6,206.312,13/125,32,70.0
1094,B-5,206.417,83/1000,36,70.0
1095,C6,206.5,83/1000,32,70.0
1096,B-5,206.583,83/1000,36,70.0
1097,C6,206.667,83/1000,32,70.0
1098,A5,206.75,0.125,36,70.0
1099,B-5,206.875,0.125,32,70.0
1100,E6,207.0,0.5,45,70.0
1101,B-5,207.5,0.25,40,70.0
1102,A5,208.0,13/125,37,70.0
1103,C5,208.0,2.0,37,70.0
1104,A2,208.0,2.0,41,70.0
1105,F3,208.0,2.0,41,70.0
1106,B-5,208.104,13/125,32,70.0
1107,A5,208.208,13/125,36,70.0
1108,B-5,208.312,13/125,32,70.0
1109,A5,208.417,83/1000,36,70.0
1110,B-5,208.5,83/1000,32,70.0
1111,A5,208.583,83/1000,36,70.0
1112,B-5,208.667,83/1000,32,70.0
1113,G#5,208.75,0.125,36,70.0
1114,A5,208.875,0.125,32,70.0
1115,C6,209.0,0.5,45,70.0
1116,A5,209.5,0.25,40,70.0
1117,C5,210.0,2.0,37,70.0
1118,G5,210.0,13/125,37,70.0
1119,C3,210.0,2.0,41,70.0
1120,B-3,210.0,2.0,41,70.0
1121,G3,210.0,2.0,41,70.0
1122,A5,210.104,13/125,32,70.0
1123,G5,210.208,13/125,36,70.0
1124,A5,210.312,13/125,32,70.0
1125,G5,210.417,83/1000,36,70.0
1126,A5,210.5,83/1000,32,70.0
1127,G5,210.583,83/1000,36,70.0
1128,A5,210.667,83/1000,32,70.0
1129,F#5,210.75,0.125,36,70.0
1130,G5,210.875,0.125,32,70.0
1131,B-5,211.0,0.5,45,70.0
1132,G5,211.5,0.25,40,70.0
1133,C5,213.0,0.75,32,70.0
1134,C4,213.0,0.75,26,70.0
1135,C#5,213.75,0.125,27,70.0
1136,C#4,213.75,0.125,22,70.0
1137,C5,213.875,0.125,27,70.0
1138,C4,213.875,0.125,24,70.0
1139,B4,214.0,0.75,38,70.0
1140,B3,214.0,0.75,31,70.0
1141,C5,214.75,0.125,27,70.0
1142,C4,214.75,0.125,24,70.0
1143,C#5,214.875,0.125,27,70.0
1144,C#4,214.875,0.125,24,70.0
1145,C5,215.0,0.25,32,70.0
1146,C4,215.0,0.25,27,70.0
1147,B4,216.0,0.75,50,70.0
1148,B3,216.0,0.75,40,70.0
1149,C5,216.75,0.125,46,70.0
1150,C4,216.75,0.125,38,70.0
1151,C#5,216.875,0.125,46,70.0
1152,C#4,216.875,0.125,42,70.0
1153,C5,217.0,0.75,68,70.0
1154,C4,217.0,0.75,55,70.0
1155,B-4,217.75,0.125,56,70.0
1156,B-3,217.75,0.125,49,70.0
1157,G#4,217.875,0.125,57,70.0
1158,G#3,217.875,0.125,50,70.0
1159,G4,218.0,0.75,73,70.0
1160,G3,218.0,0.75,61,70.0
1161,G#4,218.75,0.125,60,70.0
1162,G#3,218.75,0.125,48,70.0
1163,B-4,218.875,0.125,60,70.0
1164,B-3,218.875,0.125,53,70.0
1165,G#4,219.0,0.75,70,70.0
1166,G#3,219.0,0.75,60,70.0
1167,G4,219.75,0.125,66,70.0
1168,G3,219.75,0.125,54,70.0
1169,F4,219.875,0.125,58,70.0
1170,F3,219.875,0.125,50,70.0
1171,E-4,220.0,2.0,77,70.0
1172,C4,220.0,4.0,45,70.0
1173,G#3,220.0,4.0,45,70.0
1174,E-3,220.0,4.0,45,70.0
1175,E-5,222.0,0.75,67,70.0
1176,F5,222.75,0.125,59,70.0
1177,G5,222.875,0.125,59,70.0
1178,G#5,223.0,0.75,69,70.0
1179,B-5,223.75,0.125,70,70.0
1180,C6,223.875,0.125,76,70.0
1181,C#6,224.0,2.0,83,70.0
1182,E5,224.0,2.0,83,70.0
1183,C#5,224.0,2.0,83,70.0
1184,C3,224.0,4.0,60,70.0
1185,G3,224.0,4.0,60,70.0
1186,B-3,224.0,4.0,60,70.0
1187,E5,226.0,2.0,40,70.0
1188,C#6,226.0,13/125,47,70.0
1189,E-6,226.104,13/125,40,70.0
1190,C#6,226.208,13/125,46,70.0
1191,E-6,226.312,13/125,40,70.0
1192,C#6,226.417,83/1000,45,70.0
1193,E-6,226.5,83/1000,40,70.0
1194,C#6,226.583,83/1000,45,70.0
1195,E-6,226.667,83/1000,40,70.0
1196,C6,226.75,0.125,45,70.0
1197,C#6,226.875,0.125,40,70.0
1198,G6,227.0,0.5,53,70.0
1199,C#6,227.5,0.25,50,70.0
1200,C6,228.0,13/125,47,70.0
1201,E-5,228.0,2.0,40,70.0
1202,G#3,228.0,2.0,41,70.0
1203,C3,228.0,2.0,41,70.0
1204,C#6,228.104,13/125,40,70.0
1205,C6,228.208,13/125,46,70.0
1206,C#6,228.312,13/125,40,70.0
1207,C6,228.417,83/1000,45,70.0
1208,C#6,228.5,83/1000,40,70.0
1209,C6,228.583,83/1000,45,70.0
1210,C#6,228.667,83/1000,40,70.0
1211,B5,228.75,0.125,45,70.0
1212,C6,228.875,0.125,40,70.0
1213,E-6,229.0,0.5,53,70.0
1214,C6,229.5,0.25,50,70.0
1215,E-5,230.0,2.0,40,70.0
1216,B-5,230.0,13/125,47,70.0
1217,C#4,230.0,2.0,41,70.0
1218,E-3,230.0,2.0,41,70.0
1219,G3,230.0,2.0,41,70.0
1220,C6,230.104,13/125,40,70.0
1221,B-5,230.208,13/125,46,70.0
1222,C6,230.312,13/125,40,70.0
1223,B-5,230.417,83/1000,45,70.0
1224,C6,230.5,83/1000,40,70.0
1225,B-5,230.583,83/1000,45,70.0
1226,C6,230.667,83/1000,40,70.0
1227,A5,230.75,0.125,45,70.0
1228,B-5,230.875,0.125,40,70.0
1229,C#6,231.0,0.5,53,70.0
1230,B-5,231.5,0.25,50,70.0
1231,B-4,233.0,0.75,26,70.0
1232,G4,233.0,2.25,21,70.0
1233,C#4,233.0,2.25,21,70.0
1234,E3,233.0,2.25,21,70.0
1235,C5,233.75,0.125,23,70.0
1236,B-4,233.875,0.125,23,70.0
1237,A4,234.0,0.75,29,70.0
1238,B-4,234.75,0.125,22,70.0
1239,C5,234.875,0.125,22,70.0
1240,B-4,235.0,0.25,26,70.0
1241,B-3,236.0,2.0,75,70.0
1242,C#4,236.0,2.0,75,70.0
1243,B-4,236.0,2.0,75,70.0
1244,A2,236.0,4.0,59,70.0
1245,E3,236.0,4.0,59,70.0
1246,G3,236.0,4.0,59,70.0
1247,C#4,238.0,2.0,38,70.0
1248,B-4,238.0,13/125,44,70.0
1249,C5,238.104,13/125,38,70.0
1250,B-4,238.208,13/125,43,70.0
1251,C5,238.312,13/125,38,70.0
1252,B-4,238.417,83/1000,43,70.0
1253,C5,238.5,83/1000,38,70.0
1254,B-4,238.583,83/1000,43,70.0
1255,C5,238.667,83/1000,38,70.0
1256,A4,238.75,0.125,43,70.0
1257,B-4,238.875,0.125,38,70.0
1258,E5,239.0,0.5,54,70.0
1259,B-4,239.5,0.25,48,70.0
1260,C4,240.0,2.0,44,70.0
1261,A4,240.0,13/125,44,70.0
1262,A2,240.0,2.0,41,70.0
1263,F3,240.0,2.0,41,70.0
1264,B-4,240.104,13/125,38,70.0
1265,A4,240.208,13/125,43,70.0
1266,B-4,240.312,13/125,38,70.0
1267,A4,240.417,83/1000,43,70.0
1268,B-4,240.5,83/1000,38,70.0
1269,A4,240.583,83/1000,43,70.0
1270,B-4,240.667,83/1000,38,70.0
1271,G#4,240.75,0.125,43,70.0
1272,A4,240.875,0.125,38,70.0
1273,C5,241.0,0.5,54,70.0
1274,A4,241.5,0.25,48,70.0
1275,C4,242.0,1.75,44,70.0
1276,G4,242.0,13/125,44,70.0
1277,B-3,242.0,1.75,41,70.0
1278,G3,242.0,1.75,41,70.0
1279,C3,242.0,1.75,41,70.0
1280,A4,242.104,13/125,38,70.0
1281,G4,242.208,13/125,43,70.0
1282,A4,242.312,13/125,38,70.0
1283,G4,242.417,83/1000,43,70.0
1284,A4,242.5,83/1000,38,70.0
1285,G4,242.583,83/1000,43,70.0
1286,A4,242.667,83/1000,38,70.0
1287,F#4,242.75,0.125,43,70.0
1288,G4,242.875,0.125,38,70.0
1289,B-4,243.0,0.5,54,70.0
1290,G4,243.5,0.25,48,70.0
1291,C4,244.0,1979/1000,40,70.0
1292,A3,244.0,1979/1000,40,70.0
1293,C3,244.0,2.0,32,70.0
1294,F2,244.0,2.0,32,70.0
1295,F4,245.5,0.5,33,70.0
1296,F3,245.5,0.5,28,70.0
1297,A4,246.0,1.0,40,70.0
1298,A3,246.0,1.0,32,70.0
1299,D5,247.0,1.0,43,70.0
1300,D4,247.0,1.0,43,70.0
1301,C2,247.833,167/1000,24,70.0
1302,B-2,247.917,83/1000,24,70.0
1303,E4,248.0,2.0,40,70.0
1304,G3,248.0,1.938,30,70.0
1305,C2,248.0,2.0,24,70.0
1306,B-2,248.0,2.0,24,70.0
1307,C5,248.0,1.5,40,70.0
1308,C4,248.0,1.5,40,70.0
1309,B-3,249.5,0.5,36,70.0
1310,B-4,249.5,0.5,36,70.0
1311,G3,250.0,1.0,40,70.0
1312,G4,250.0,1.0,40,70.0
1313,A4,251.0,1.0,36,70.0
1314,A3,251.0,1.0,36,70.0
1315,F4,252.0,2.0,36,70.0
1316,F3,252.0,2.0,36,70.0
1317,A3,252.0,2.0,36,70.0
1318,D2,252.0,2.0,28,70.0
1319,D3,252.0,2.0,28,70.0
1320,A2,252.0,2.0,28,70.0
1321,C3,254.0,2.0,24,70.0
1322,C2,254.0,2.0,24,70.0
1323,G4,254.0,2.0,29,70.0
1324,B-3,254.0,2.0,29,70.0
1325,E4,254.0,2.0,29,70.0
1326,F2,256.0,0.5,20,70.0
1327,C3,256.0,0.5,24,70.0
1328,A3,256.0,0.5,22,70.0
1329,F4,256.0,0.5,22,70.0
1330,A3,258.0,0.5,22,70.0
1331,F4,258.0,0.5,22,70.0
1332,C3,258.0,0.5,20,70.0
1333,F2,258.0,0.5,20,70.0
1334,F4,260.0,4.0,20,70.0
1335,A3,260.0,4.0,20,70.0
1336,F2,260.0,4.0,20,70.0
1337,C3,260.0,4.0,20,70.0
