,note_name,start_time,duration,velocity,tempo
0,G4,0.0,2.0,86,129.29
1,G3,0.0,2.0,86,129.29
2,D5,3.5,0.25,52,129.29
3,C5,4.0,0.5,63,129.29
4,G4,4.0,2.0,86,129.29
5,G3,4.0,2.0,86,129.29
6,B4,4.5,0.25,37,129.29
7,B4,5.0,0.25,43,129.29
8,B4,5.5,0.25,37,129.29
9,B4,6.0,0.5,55,129.29
10,G3,6.0,0.5,42,129.29
11,C5,6.5,0.25,40,129.29
12,G4,6.5,0.25,31,129.29
13,D4,7.0,0.25,28,129.29
14,F4,7.0,0.25,28,129.29
15,E-5,7.5,0.25,51,129.29
16,G4,7.5,0.25,32,129.29
17,C5,8.0,0.5,63,129.29
18,G3,8.0,0.5,44,129.29
19,B4,8.5,0.25,37,129.29
20,G4,8.5,0.25,28,129.29
21,B4,9.0,0.25,44,129.29
22,C4,9.0,0.25,32,129.29
23,E-4,9.0,0.25,32,129.29
24,B4,9.5,0.25,37,129.29
25,G4,9.5,0.25,32,129.29
26,B4,10.0,0.5,57,129.29
27,G3,10.0,0.5,42,129.29
28,C5,10.5,0.25,47,129.29
29,G4,10.5,0.25,31,129.29
30,D4,11.0,0.25,28,129.29
31,F4,11.0,0.25,28,129.29
32,E-5,11.5,0.5,54,129.29
33,G4,11.5,0.25,29,129.29
34,C5,12.0,0.5,63,129.29
35,G3,12.0,0.5,44,129.29
36,B-4,12.5,0.25,52,129.29
37,G4,12.5,0.25,32,129.29
38,B-4,13.0,0.25,54,129.29
39,C4,13.0,0.375,31,129.29
40,E-4,13.0,0.375,31,129.29
41,F#3,13.0,0.375,31,129.29
42,B-4,13.5,0.25,54,129.29
43,F#4,13.5,0.375,35,129.29
44,C5,14.0,0.5,63,129.29
45,F3,14.0,0.5,42,129.29
46,B-4,14.5,0.25,53,129.29
47,F4,14.5,0.25,35,129.29
48,B-4,15.0,0.25,55,129.29
49,D4,15.0,0.25,35,129.29
50,B-4,15.5,0.25,55,129.29
51,F4,15.5,0.25,36,129.29
52,C5,16.0,0.25,63,129.29
53,G3,16.0,0.5,42,129.29
54,B-4,16.25,0.25,52,129.29
55,A4,16.5,0.25,53,129.29
56,E4,16.5,0.25,36,129.29
57,B-4,16.75,0.25,53,129.29
58,C5,17.0,0.25,58,129.29
59,C4,17.0,0.25,36,129.29
60,D5,17.5,0.25,54,129.29
61,E4,17.5,0.25,36,129.29
62,B-4,18.0,0.5,58,129.29
63,D4,18.0,0.5,38,129.29
64,F3,18.0,0.5,38,129.29
65,F4,18.5,0.5,33,129.29
66,E-4,19.0,0.25,32,129.29
67,F3,19.0,0.25,32,129.29
68,F4,19.5,0.25,34,129.29
69,D4,20.0,0.5,42,129.29
70,B-3,20.0,0.5,42,129.29
71,G3,21.0,1.0,86,129.29
72,G4,21.0,1.0,86,129.29
73,D6,21.5,0.25,52,129.29
74,C6,22.0,0.5,64,129.29
75,G3,22.0,2.0,86,129.29
76,G4,22.0,2.0,86,129.29
77,B5,22.5,0.25,37,129.29
78,B5,23.0,0.25,43,129.29
79,B5,23.5,0.25,37,129.29
80,B5,24.0,0.5,55,129.29
81,G3,24.0,0.5,42,129.29
82,C6,24.5,0.25,42,129.29
83,G4,24.5,0.25,31,129.29
84,F4,25.0,0.25,28,129.29
85,D4,25.0,0.25,28,129.29
86,E-6,25.5,0.25,51,129.29
87,G4,25.5,0.25,32,129.29
88,C6,26.0,0.5,64,129.29
89,G3,26.0,0.5,44,129.29
90,B5,26.5,0.25,37,129.29
91,G4,26.5,0.25,31,129.29
92,B5,27.0,0.25,44,129.29
93,C4,27.0,0.25,32,129.29
94,E-4,27.0,0.25,32,129.29
95,B5,27.5,0.25,37,129.29
96,G4,27.5,0.25,32,129.29
97,B5,28.0,0.5,57,129.29
98,G3,28.0,0.5,42,129.29
99,C6,28.5,0.25,47,129.29
100,G4,28.5,0.25,31,129.29
101,D4,29.0,0.25,28,129.29
102,F4,29.0,0.25,28,129.29
103,E-6,29.5,0.5,54,129.29
104,G4,29.5,0.25,29,129.29
105,C6,30.0,0.5,64,129.29
106,G3,30.0,0.5,44,129.29
107,B-5,30.5,0.25,52,129.29
108,G4,30.5,0.25,32,129.29
109,B-5,31.0,0.25,54,129.29
110,F#3,31.0,0.25,31,129.29
111,C4,31.0,0.25,31,129.29
112,E-4,31.0,0.25,31,129.29
113,B-5,31.5,0.25,54,129.29
114,F#4,31.5,0.25,35,129.29
115,C6,32.0,0.5,64,129.29
116,F3,32.0,0.5,42,129.29
117,B-5,32.5,0.25,53,129.29
118,F4,32.5,0.25,35,129.29
119,B-5,33.0,0.25,55,129.29
120,D4,33.0,0.25,35,129.29
121,B-5,33.5,0.25,55,129.29
122,F4,33.5,0.25,36,129.29
123,C6,34.0,0.25,64,129.29
124,G3,34.0,0.5,42,129.29
125,B-5,34.25,0.25,52,129.29
126,A5,34.5,0.25,53,129.29
127,E4,34.5,0.25,36,129.29
128,B-5,34.75,0.25,53,129.29
129,C6,35.0,0.25,58,129.29
130,C4,35.0,0.25,36,129.29
131,D6,35.5,0.25,54,129.29
132,E4,35.5,0.25,36,129.29
133,B-5,36.0,1.0,58,129.29
134,F3,36.0,0.5,38,129.29
135,D4,36.0,0.5,38,129.29
136,F4,36.5,0.5,33,129.29
137,E-4,37.0,0.25,32,129.29
138,F3,37.0,0.25,32,129.29
139,D5,37.5,0.25,57,129.29
140,F4,37.5,0.25,34,129.29
141,G5,38.0,1.0,60,129.29
142,B-3,38.0,0.25,42,129.29
143,D4,38.0,0.25,42,129.29
144,A3,38.5,0.25,38,129.29
145,E-5,39.0,1.0,60,129.29
146,G3,39.0,0.25,37,129.29
147,F3,39.5,0.25,36,129.29
148,C5,40.0,1.0,60,129.29
149,E-3,40.0,0.25,42,129.29
150,G3,40.5,0.25,36,129.29
151,B-3,40.5,0.25,36,129.29
152,D5,41.0,0.25,60,129.29
153,C3,41.0,0.25,36,129.29
154,E-5,41.5,0.25,58,129.29
155,C4,41.5,0.25,36,129.29
156,G3,41.5,0.25,36,129.29
157,F5,42.0,0.25,57,129.29
158,F3,42.0,0.25,42,129.29
159,G5,42.25,0.25,53,129.29
160,F5,42.5,0.25,53,129.29
161,A3,42.5,0.25,35,129.29
162,C4,42.5,0.25,35,129.29
163,E-5,42.75,0.25,53,129.29
164,D5,43.0,0.25,59,129.29
165,E-3,43.0,0.25,36,129.29
166,E-5,43.25,0.25,52,129.29
167,D5,43.5,0.25,52,129.29
168,A3,43.5,0.25,36,129.29
169,C4,43.5,0.25,36,129.29
170,C5,43.75,0.25,53,129.29
171,B-4,44.0,1.5,60,129.29
172,D3,44.0,0.5,39,129.29
173,B-3,44.5,0.5,32,129.29
174,F3,44.5,0.5,32,129.29
175,B-2,45.0,0.5,34,129.29
176,B-4,45.5,0.25,57,129.29
177,B-3,45.5,0.5,32,129.29
178,F3,45.5,0.5,32,129.29
179,E-5,46.0,1.0,60,129.29
180,E-3,46.0,0.5,40,129.29
181,G3,46.5,0.5,32,129.29
182,B-3,46.5,0.5,32,129.29
183,C5,47.0,1.0,60,129.29
184,D3,47.0,0.5,34,129.29
185,G3,47.5,0.5,32,129.29
186,B-3,47.5,0.5,32,129.29
187,A4,48.0,1.0,60,129.29
188,C3,48.0,0.5,42,129.29
189,E-3,48.5,0.5,33,129.29
190,A3,48.5,0.5,33,129.29
191,A2,49.0,0.5,36,129.29
192,D5,49.0,0.25,60,129.29
193,D4,49.0,0.25,60,129.29
194,C4,49.5,0.25,54,129.29
195,C5,49.5,0.25,54,129.29
196,E-3,49.5,0.5,33,129.29
197,A3,49.5,0.5,33,129.29
198,D3,50.0,0.5,42,129.29
199,C4,50.0,0.5,60,129.29
200,C5,50.0,0.5,60,129.29
201,B-3,50.5,0.25,56,129.29
202,B-4,50.5,0.25,56,129.29
203,A3,50.5,0.5,32,129.29
204,F#3,50.5,0.5,32,129.29
205,F#2,51.0,0.25,42,129.29
206,A4,51.0,0.25,62,129.29
207,A3,51.0,0.25,62,129.29
208,G3,51.5,0.25,56,129.29
209,G4,51.5,0.25,56,129.29
210,D3,51.5,0.25,33,129.29
211,F#3,51.5,0.25,33,129.29
212,G2,52.0,0.25,47,129.29
213,B-4,52.0,0.5,67,129.29
214,B-3,52.0,0.5,67,129.29
215,G3,52.5,0.25,39,129.29
216,A4,52.5,0.25,60,129.29
217,A3,52.5,0.25,60,129.29
218,E-2,53.0,0.25,49,129.29
219,G3,53.0,0.25,65,129.29
220,G4,53.0,0.25,65,129.29
221,E-3,53.5,0.25,44,129.29
222,F#4,53.5,0.25,60,129.29
223,F#3,53.5,0.25,60,129.29
224,C2,54.0,0.25,51,129.29
225,G3,54.0,0.5,66,129.29
226,G4,54.0,0.5,66,129.29
227,C3,54.5,0.25,46,129.29
228,D2,55.0,0.25,54,129.29
229,D5,55.0,1.0,73,129.29
230,D4,55.0,1.0,73,129.29
231,A4,55.0,1.0,73,129.29
232,D3,55.5,0.25,45,129.29
233,D5,56.0,0.5,73,129.29
234,D4,56.0,0.5,73,129.29
235,A4,56.0,0.5,73,129.29
236,C2,56.0,0.5,48,129.29
237,E-3,56.0,0.5,48,129.29
238,E-4,56.5,0.25,58,129.29
239,E-5,56.5,0.25,58,129.29
240,D5,57.0,0.25,62,129.29
241,D4,57.0,0.25,62,129.29
242,D3,57.0,1.0,54,129.29
243,F#3,57.0,1.0,54,129.29
244,F#2,57.0,1.0,54,129.29
245,C5,57.5,0.25,58,129.29
246,C4,57.5,0.25,58,129.29
247,C4,58.0,0.5,64,129.29
248,C5,58.0,0.5,64,129.29
249,D3,58.0,2.0,54,129.29
250,F#3,58.0,2.0,54,129.29
251,F#2,58.0,2.0,54,129.29
252,B-4,58.5,0.25,58,129.29
253,B-3,58.5,0.25,58,129.29
254,A3,59.0,0.25,64,129.29
255,A4,59.0,0.25,64,129.29
256,G3,59.5,0.25,58,129.29
257,G4,59.5,0.25,58,129.29
258,G2,60.0,0.5,50,129.29
259,G#4,60.0,1.0,66,129.29
260,G#3,60.0,1.0,66,129.29
261,G3,60.5,0.25,45,129.29
262,E-2,61.0,0.5,45,129.29
263,F#3,61.0,1.0,60,129.29
264,F#4,61.0,1.0,60,129.29
265,E-3,61.5,0.5,45,129.29
266,C2,62.0,0.5,50,129.29
267,G3,62.0,0.5,65,129.29
268,G4,62.0,0.5,65,129.29
269,C3,62.5,0.5,45,129.29
270,D2,63.0,0.5,45,129.29
271,D3,63.5,0.5,45,129.29
272,G2,64.0,0.5,46,129.29
273,G1,64.0,0.5,46,129.29
274,G3,65.0,1.0,86,129.29
275,G4,65.0,1.0,86,129.29
276,D5,65.5,0.25,52,129.29
277,C5,66.0,0.5,63,129.29
278,G3,66.0,2.0,86,129.29
279,G4,66.0,2.0,86,129.29
280,B4,66.5,0.25,37,129.29
281,B4,67.0,0.25,43,129.29
282,B4,67.5,0.25,37,129.29
283,B4,68.0,0.25,55,129.29
284,G3,68.0,0.5,42,129.29
285,C5,68.25,0.25,49,129.29
286,G5,68.5,0.5,59,129.29
287,G4,68.5,0.25,31,129.29
288,F5,69.0,0.25,50,129.29
289,F4,69.0,0.25,28,129.29
290,D4,69.0,0.25,28,129.29
291,E-5,69.25,0.25,45,129.29
292,D5,69.5,0.25,45,129.29
293,G4,69.5,0.25,32,129.29
294,C5,69.75,0.25,45,129.29
295,C5,70.0,0.5,63,129.29
296,G3,70.0,0.5,44,129.29
297,B4,70.5,0.25,37,129.29
298,G4,70.5,0.5,31,129.29
299,B4,71.0,0.25,44,129.29
300,E-4,71.0,0.5,32,129.29
301,C4,71.0,0.5,32,129.29
302,B4,71.5,0.25,37,129.29
303,G4,71.5,0.5,32,129.29
304,B4,72.0,0.5,57,129.29
305,G3,72.0,0.5,42,129.29
306,C5,72.5,0.25,47,129.29
307,G4,72.5,0.25,31,129.29
308,F4,73.0,0.25,28,129.29
309,D4,73.0,0.25,28,129.29
310,E-5,73.5,0.5,54,129.29
311,G4,73.5,0.25,29,129.29
312,C5,74.0,0.5,63,129.29
313,G3,74.0,0.5,44,129.29
314,B-4,74.5,0.25,52,129.29
315,G4,74.5,0.25,32,129.29
316,B-4,75.0,0.25,54,129.29
317,F#3,75.0,0.25,31,129.29
318,E-4,75.0,0.25,31,129.29
319,C4,75.0,0.25,31,129.29
320,B-4,75.5,0.25,54,129.29
321,F#4,75.5,0.5,35,129.29
322,C5,76.0,0.5,63,129.29
323,F3,76.0,0.5,42,129.29
324,B-4,76.5,0.25,53,129.29
325,F4,76.5,0.25,35,129.29
326,B-4,77.0,0.25,55,129.29
327,D4,77.0,0.25,35,129.29
328,B-4,77.5,0.25,55,129.29
329,F4,77.5,0.25,36,129.29
330,C5,78.0,0.25,63,129.29
331,G3,78.0,0.5,42,129.29
332,B-4,78.25,0.25,52,129.29
333,A4,78.5,0.25,53,129.29
334,E4,78.5,0.25,36,129.29
335,B-4,78.75,0.25,53,129.29
336,C5,79.0,0.25,58,129.29
337,C4,79.0,0.25,36,129.29
338,D5,79.5,0.25,54,129.29
339,E4,79.5,0.25,36,129.29
340,B-4,80.0,1.0,58,129.29
341,D4,80.0,0.5,38,129.29
342,F3,80.0,0.5,38,129.29
343,F4,80.5,0.5,33,129.29
344,E-4,81.0,0.25,32,129.29
345,F3,81.0,0.25,32,129.29
346,D5,81.5,0.25,57,129.29
347,F4,81.5,0.25,34,129.29
348,G5,82.0,1.0,60,129.29
349,B-3,82.0,0.25,42,129.29
350,D4,82.0,0.25,42,129.29
351,A3,82.5,0.25,38,129.29
352,E-5,83.0,1.0,60,129.29
353,G3,83.0,0.25,37,129.29
354,F3,83.5,0.25,36,129.29
355,C5,84.0,1.0,60,129.29
356,E-3,84.0,0.25,42,129.29
357,B-3,84.5,0.25,36,129.29
358,G3,84.5,0.25,36,129.29
359,D5,85.0,0.25,60,129.29
360,C3,85.0,0.25,36,129.29
361,E-5,85.5,0.25,58,129.29
362,G3,85.5,0.25,36,129.29
363,C4,85.5,0.25,36,129.29
364,F5,86.0,0.25,57,129.29
365,F3,86.0,0.25,42,129.29
366,G5,86.25,0.25,53,129.29
367,F5,86.5,0.25,53,129.29
368,C4,86.5,0.25,35,129.29
369,A3,86.5,0.25,35,129.29
370,E-5,86.75,0.25,53,129.29
371,D5,87.0,0.25,59,129.29
372,E-3,87.0,0.25,36,129.29
373,E-5,87.25,0.25,52,129.29
374,D5,87.5,0.25,52,129.29
375,A3,87.5,0.25,36,129.29
376,C4,87.5,0.25,36,129.29
377,C5,87.75,0.25,53,129.29
378,B-4,88.0,1.5,60,129.29
379,D3,88.0,0.5,39,129.29
380,B-3,88.5,0.5,32,129.29
381,F3,88.5,0.5,32,129.29
382,B-2,89.0,0.5,34,129.29
383,B-4,89.5,0.25,46,129.29
384,F3,89.5,0.5,32,129.29
385,B-3,89.5,0.5,32,129.29
386,E-5,90.0,1.0,48,129.29
387,E-3,90.0,0.5,40,129.29
388,B-3,90.5,0.5,32,129.29
389,G3,90.5,0.5,32,129.29
390,C5,91.0,1.0,48,129.29
391,D3,91.0,0.5,34,129.29
392,B-3,91.5,0.5,29,129.29
393,G3,91.5,0.5,29,129.29
394,G#4,92.0,1.0,48,129.29
395,C3,92.0,0.5,33,129.29
396,C4,92.5,0.5,29,129.29
397,G#3,92.5,0.5,29,129.29
398,B-4,93.0,0.5,48,129.29
399,E-3,93.0,0.5,29,129.29
400,C5,93.5,0.5,46,129.29
401,C4,93.5,0.5,29,129.29
402,G#3,93.5,0.5,29,129.29
403,E-5,94.0,1.0,48,129.29
404,C3,94.0,0.5,33,129.29
405,C4,94.5,0.5,28,129.29
406,G#3,94.5,0.5,28,129.29
407,C#5,95.0,0.5,48,129.29
408,E-3,95.0,0.5,29,129.29
409,C5,95.5,0.5,48,129.29
410,G#3,95.5,0.5,29,129.29
411,C4,95.5,0.5,29,129.29
412,B-4,96.0,1.0,48,129.29
413,C#3,96.0,0.5,33,129.29
414,G3,96.5,0.5,29,129.29
415,B-3,96.5,0.5,29,129.29
416,C5,97.0,0.25,48,129.29
417,E-3,97.0,0.5,29,129.29
418,C#5,97.5,0.25,46,129.29
419,B-3,97.5,0.5,29,129.29
420,G3,97.5,0.5,29,129.29
421,E-5,98.0,0.25,46,129.29
422,C#3,98.0,0.5,33,129.29
423,F5,98.25,0.25,42,129.29
424,E-5,98.5,0.25,42,129.29
425,B-3,98.5,0.5,28,129.29
426,G3,98.5,0.5,28,129.29
427,C#5,98.75,0.25,42,129.29
428,C5,99.0,0.25,47,129.29
429,E-3,99.0,0.25,29,129.29
430,C#5,99.25,0.25,42,129.29
431,C5,99.5,0.25,42,129.29
432,G3,99.5,0.25,29,129.29
433,B-3,99.5,0.25,29,129.29
434,B-4,99.75,0.25,42,129.29
435,G#4,100.0,1.0,48,129.29
436,C3,100.0,0.25,31,129.29
437,C4,100.5,0.25,25,129.29
438,G#3,100.5,0.25,25,129.29
439,B-4,101.0,0.25,48,129.29
440,E-3,101.0,0.25,27,129.29
441,C5,101.5,0.25,44,129.29
442,C4,101.5,0.25,25,129.29
443,G#3,101.5,0.25,25,129.29
444,E-5,102.0,0.5,48,129.29
445,C3,102.0,0.25,32,129.29
446,C#5,102.5,0.25,48,129.29
447,G#3,102.5,0.25,25,129.29
448,C4,102.5,0.25,25,129.29
449,C#5,103.0,0.25,48,129.29
450,E-3,103.0,0.25,32,129.29
451,E-5,103.25,0.25,44,129.29
452,C#5,103.5,0.25,44,129.29
453,G#3,103.5,0.25,25,129.29
454,C4,103.5,0.25,25,129.29
455,C5,103.75,0.25,44,129.29
456,B-4,104.0,0.5,48,129.29
457,C#3,104.0,0.5,32,129.29
458,E-5,104.5,0.25,49,129.29
459,G3,104.5,0.25,29,129.29
460,B-3,104.5,0.25,29,129.29
461,F5,105.0,0.25,53,129.29
462,E-3,105.0,0.5,32,129.29
463,G5,105.5,0.25,56,129.29
464,B-3,105.5,0.5,29,129.29
465,G3,105.5,0.5,29,129.29
466,C#3,106.0,0.5,34,129.29
467,G#5,106.0,2.0,54,129.29
468,G#4,106.0,2.0,54,129.29
469,B-3,106.5,0.25,29,129.29
470,G3,106.5,0.25,29,129.29
471,E-3,107.0,0.25,31,129.29
472,B-3,107.5,0.25,34,129.29
473,G3,107.5,0.25,34,129.29
474,C3,108.0,0.5,37,129.29
475,C6,108.0,1.5,56,129.29
476,C5,108.0,1.5,56,129.29
477,G#3,108.5,0.5,30,129.29
478,C4,108.5,0.5,30,129.29
479,E-3,109.0,0.5,32,129.29
480,G#5,109.5,0.5,51,129.29
481,G#4,109.5,0.5,51,129.29
482,G#3,109.5,0.5,30,129.29
483,C4,109.5,0.5,30,129.29
484,C3,110.0,0.5,37,129.29
485,G#5,110.0,1.0,54,129.29
486,G#4,110.0,1.0,54,129.29
487,C4,110.5,0.5,30,129.29
488,G#3,110.5,0.5,30,129.29
489,E-3,111.0,0.5,32,129.29
490,G4,111.0,1.0,51,129.29
491,G5,111.0,1.0,51,129.29
492,C4,111.5,0.5,30,129.29
493,G#3,111.5,0.5,30,129.29
494,C#3,112.0,0.5,37,129.29
495,B-3,112.5,0.5,30,129.29
496,G3,112.5,0.5,30,129.29
497,E3,113.0,0.5,32,129.29
498,G4,113.0,1.0,51,129.29
499,G5,113.0,1.0,51,129.29
500,G3,113.5,0.5,30,129.29
501,B-3,113.5,0.5,30,129.29
502,C#3,114.0,0.5,37,129.29
503,G4,114.0,1.0,52,129.29
504,G5,114.0,1.0,52,129.29
505,B-3,114.5,0.5,30,129.29
506,G3,114.5,0.5,30,129.29
507,E3,115.0,0.5,36,129.29
508,G4,115.0,1.0,58,129.29
509,G5,115.0,1.0,58,129.29
510,B-3,115.5,0.5,36,129.29
511,G3,115.5,0.5,36,129.29
512,D3,116.0,0.5,44,129.29
513,F5,116.0,1.0,54,129.29
514,F4,116.0,1.0,54,129.29
515,B-3,116.5,0.5,34,129.29
516,D4,116.5,0.5,34,129.29
517,F3,117.0,0.5,38,129.29
518,B-4,117.0,1.5,62,129.29
519,B-5,117.0,1.5,62,129.29
520,B-3,117.5,0.5,34,129.29
521,D4,117.5,0.5,34,129.29
522,D3,118.0,0.5,48,129.29
523,A5,118.5,0.5,56,129.29
524,A4,118.5,0.5,56,129.29
525,D4,118.5,0.5,34,129.29
526,B-3,118.5,0.5,34,129.29
527,F3,119.0,0.5,37,129.29
528,A4,119.0,0.5,56,129.29
529,A5,119.0,0.5,56,129.29
530,G5,119.5,0.5,50,129.29
531,G4,119.5,0.5,50,129.29
532,D4,119.5,0.5,34,129.29
533,B-3,119.5,0.5,34,129.29
534,E-3,120.0,0.5,50,129.29
535,E-5,120.0,1.0,65,129.29
536,E-6,120.0,1.0,65,129.29
537,C4,120.5,0.5,37,129.29
538,E-4,120.5,0.5,37,129.29
539,G3,121.0,0.5,37,129.29
540,D6,121.0,1.0,58,129.29
541,D5,121.0,1.0,58,129.29
542,C4,121.5,0.5,34,129.29
543,E-4,121.5,0.5,34,129.29
544,F3,122.0,0.5,44,129.29
545,C5,122.0,1.0,49,129.29
546,C6,122.0,1.0,49,129.29
547,D4,122.5,0.5,31,129.29
548,B-3,122.5,0.5,31,129.29
549,F3,123.0,0.5,34,129.29
550,B-5,123.0,0.5,48,129.29
551,B-4,123.0,0.5,48,129.29
552,A3,123.5,0.5,31,129.29
553,C4,123.5,0.5,31,129.29
554,D5,124.0,0.25,46,129.29
555,B-2,124.0,0.5,38,129.29
556,D5,124.333,0.25,48,129.29
557,D4,124.5,0.5,28,129.29
558,B-3,124.5,0.5,28,129.29
559,D5,124.667,0.25,50,129.29
560,D5,125.0,0.25,51,129.29
561,D3,125.0,0.5,30,129.29
562,D5,125.333,0.25,49,129.29
563,B-3,125.5,0.5,28,129.29
564,D4,125.5,0.5,28,129.29
565,D5,125.667,0.25,47,129.29
566,D5,126.0,0.25,51,129.29
567,F3,126.0,0.5,36,129.29
568,C5,126.25,0.25,46,129.29
569,D5,126.5,0.25,47,129.29
570,D4,126.5,0.5,28,129.29
571,B-3,126.5,0.5,28,129.29
572,E-5,126.75,0.25,47,129.29
573,D5,127.0,0.5,53,129.29
574,F#3,127.0,0.5,30,129.29
575,C4,127.5,0.5,28,129.29
576,D4,127.5,0.5,28,129.29
577,D4,128.0,0.5,31,129.29
578,G3,128.0,0.5,31,129.29
579,B3,128.0,0.5,31,129.29
580,G3,129.0,1.0,86,129.29
581,G4,129.0,1.0,86,129.29
582,G3,130.0,2.0,86,129.29
583,G4,130.0,2.0,86,129.29
584,D6,130.5,0.25,52,129.29
585,C6,131.0,0.5,63,129.29
586,B5,131.5,0.25,37,129.29
587,B5,132.0,0.25,43,129.29
588,G3,132.0,0.5,42,129.29
589,B5,132.5,0.25,37,129.29
590,G4,132.5,0.25,31,129.29
591,B5,133.0,0.25,55,129.29
592,F4,133.0,0.25,28,129.29
593,D4,133.0,0.25,28,129.29
594,C6,133.25,0.25,49,129.29
595,G6,133.5,0.5,59,129.29
596,G4,133.5,0.25,32,129.29
597,F6,134.0,0.25,50,129.29
598,G3,134.0,0.5,44,129.29
599,E-6,134.25,0.25,45,129.29
600,D6,134.5,0.25,45,129.29
601,G4,134.5,0.5,31,129.29
602,C6,134.75,0.25,45,129.29
603,C6,135.0,0.5,63,129.29
604,E-4,135.0,0.5,32,129.29
605,C4,135.0,0.5,32,129.29
606,B5,135.5,0.25,37,129.29
607,G4,135.5,0.5,32,129.29
608,B5,136.0,0.25,44,129.29
609,G3,136.0,0.5,42,129.29
610,B5,136.5,0.25,37,129.29
611,G4,136.5,0.25,31,129.29
612,B5,137.0,0.5,57,129.29
613,F4,137.0,0.25,28,129.29
614,D4,137.0,0.25,28,129.29
615,C6,137.5,0.25,47,129.29
616,G4,137.5,0.25,29,129.29
617,G3,138.0,0.5,44,129.29
618,E-6,138.5,0.5,54,129.29
619,G4,138.5,0.25,32,129.29
620,C6,139.0,0.5,63,129.29
621,F#3,139.0,0.25,31,129.29
622,E-4,139.0,0.25,31,129.29
623,C4,139.0,0.25,31,129.29
624,B-5,139.5,0.25,52,129.29
625,F#4,139.5,0.5,35,129.29
626,B-5,140.0,0.25,54,129.29
627,F3,140.0,0.5,42,129.29
628,B-5,140.5,0.25,54,129.29
629,F4,140.5,0.25,35,129.29
630,C6,141.0,0.5,63,129.29
631,D4,141.0,0.25,35,129.29
632,B-5,141.5,0.25,53,129.29
633,F4,141.5,0.25,36,129.29
634,B-5,142.0,0.25,55,129.29
635,G3,142.0,0.5,42,129.29
636,B-5,142.5,0.25,55,129.29
637,E4,142.5,0.25,36,129.29
638,G5,143.0,0.25,63,129.29
639,C4,143.0,0.25,36,129.29
640,F5,143.25,0.25,52,129.29
641,E5,143.5,0.25,53,129.29
642,E4,143.5,0.25,36,129.29
643,F5,143.75,0.25,53,129.29
644,E-5,144.0,0.25,58,129.29
645,F3,144.0,0.5,38,129.29
646,D4,144.0,0.5,38,129.29
647,C5,144.5,0.25,54,129.29
648,F4,144.5,0.5,33,129.29
649,B-4,145.0,0.25,58,129.29
650,F3,145.0,0.25,32,129.29
651,A3,145.0,0.25,32,129.29
652,D5,145.5,0.25,55,129.29
653,E-4,145.5,0.25,34,129.29
654,F5,146.0,0.25,55,129.29
655,B-3,146.0,0.5,42,129.29
656,D4,146.0,0.5,42,129.29
657,B-5,146.5,0.25,55,129.29
658,F4,146.5,0.5,38,129.29
659,D6,147.0,0.5,60,129.29
660,D4,147.0,0.5,38,129.29
661,C6,147.5,0.25,58,129.29
662,B-3,147.5,0.5,38,129.29
663,C6,148.0,0.25,61,129.29
664,G3,148.0,0.5,43,129.29
665,C6,148.5,0.25,58,129.29
666,E4,148.5,0.25,37,129.29
667,G5,149.0,0.25,63,129.29
668,B-3,149.0,0.25,39,129.29
669,F5,149.25,0.25,52,129.29
670,E5,149.5,0.25,53,129.29
671,E4,149.5,0.25,42,129.29
672,F5,149.75,0.25,53,129.29
673,C5,150.0,0.25,58,129.29
674,F3,150.0,0.5,35,129.29
675,A4,150.5,0.25,54,129.29
676,F4,150.5,0.5,33,129.29
677,D6,151.0,0.5,65,129.29
678,A3,151.0,0.25,35,129.29
679,C6,151.5,0.25,58,129.29
680,F4,151.5,0.25,34,129.29
681,C6,152.0,0.25,61,129.29
682,G3,152.0,0.5,43,129.29
683,C6,152.5,0.25,58,129.29
684,E4,152.5,0.25,35,129.29
685,G5,153.0,0.25,63,129.29
686,B-3,153.0,0.25,35,129.29
687,F5,153.25,0.25,52,129.29
688,E5,153.5,0.25,53,129.29
689,E4,153.5,0.25,36,129.29
690,F5,153.75,0.25,53,129.29
691,C5,154.0,0.25,58,129.29
692,F3,154.0,0.5,35,129.29
693,A4,154.5,0.25,54,129.29
694,F4,154.5,0.5,33,129.29
695,A5,155.0,0.5,54,129.29
696,A3,155.0,0.25,35,129.29
697,G5,155.5,0.25,49,129.29
698,F4,155.5,0.25,34,129.29
699,G5,156.0,0.25,52,129.29
700,D3,156.0,0.5,35,129.29
701,G5,156.5,0.25,49,129.29
702,B3,156.5,0.25,29,129.29
703,D6,157.0,0.25,53,129.29
704,F3,157.0,0.25,29,129.29
705,C6,157.25,0.25,44,129.29
706,B5,157.5,0.25,45,129.29
707,B3,157.5,0.25,30,129.29
708,C6,157.75,0.25,45,129.29
709,G5,158.0,0.25,49,129.29
710,C3,158.0,0.5,29,129.29
711,E5,158.5,0.25,46,129.29
712,C4,158.5,0.5,28,129.29
713,A5,159.0,0.5,54,129.29
714,E3,159.0,0.25,29,129.29
715,G5,159.5,0.25,49,129.29
716,C4,159.5,0.25,29,129.29
717,G5,160.0,0.25,52,129.29
718,D3,160.0,0.5,35,129.29
719,G5,160.5,0.25,49,129.29
720,B3,160.5,0.25,29,129.29
721,D6,161.0,0.25,53,129.29
722,F3,161.0,0.25,29,129.29
723,C6,161.25,0.25,44,129.29
724,B5,161.5,0.25,45,129.29
725,B3,161.5,0.25,30,129.29
726,C6,161.75,0.25,45,129.29
727,G5,162.0,0.25,49,129.29
728,E3,162.0,1.0,29,129.29
729,C3,162.0,1.0,29,129.29
730,C4,162.0,1.0,29,129.29
731,E5,162.5,0.25,46,129.29
732,D5,163.0,0.25,53,129.29
733,C5,163.25,0.25,44,129.29
734,B4,163.5,0.25,45,129.29
735,C5,163.75,0.25,45,129.29
736,G4,164.0,0.25,49,129.29
737,E4,164.5,0.25,46,129.29
738,D4,166.0,0.25,53,129.29
739,C4,166.25,0.25,44,129.29
740,B3,166.5,0.25,45,129.29
741,C4,166.75,0.25,45,129.29
742,G3,167.0,0.25,49,129.29
743,E3,167.5,0.25,46,129.29
744,C3,168.0,0.25,46,129.29
745,G2,168.5,0.25,39,129.29
746,E2,169.0,0.25,43,129.29
747,D2,169.5,0.25,47,129.29
748,G4,169.5,0.25,52,129.29
749,E4,169.5,0.25,52,129.29
750,C5,169.5,0.25,52,129.29
751,C2,170.0,0.25,50,129.29
752,E4,170.0,0.25,52,129.29
753,C5,170.0,0.25,52,129.29
754,A4,170.0,0.25,52,129.29
755,B-1,170.5,0.25,46,129.29
756,E4,170.5,0.25,52,129.29
757,B-4,170.5,0.25,52,129.29
758,C5,170.5,0.25,52,129.29
759,C5,171.0,1.0,52,129.29
760,A1,171.0,0.25,43,129.29
761,A4,171.25,0.25,34,129.29
762,F4,171.5,0.25,33,129.29
763,G1,171.5,0.25,39,129.29
764,A4,171.75,0.25,33,129.29
765,F5,172.0,1.0,53,129.29
766,A4,172.25,0.25,39,129.29
767,F4,172.5,0.25,39,129.29
768,F1,172.5,0.25,33,129.29
769,A4,172.75,0.25,39,129.29
770,C5,173.0,0.25,52,129.29
771,E5,173.0,1.0,52,129.29
772,A4,173.25,0.25,38,129.29
773,E4,173.5,0.25,38,129.29
774,F2,173.5,0.25,33,129.29
775,A4,173.75,0.25,38,129.29
776,B-4,174.0,0.25,51,129.29
777,D5,174.0,1.0,51,129.29
778,F4,174.25,0.25,34,129.29
779,D4,174.5,0.25,34,129.29
780,A2,174.5,0.25,33,129.29
781,F4,174.75,0.25,34,129.29
782,A4,175.0,0.25,51,129.29
783,D5,175.0,1.0,51,129.29
784,F4,175.25,0.25,35,129.29
785,D4,175.5,0.25,35,129.29
786,B-2,175.5,0.25,33,129.29
787,F4,175.75,0.25,35,129.29
788,A4,176.0,0.25,49,129.29
789,C5,176.0,1.0,49,129.29
790,F4,176.25,0.25,35,129.29
791,C4,176.5,0.25,35,129.29
792,D3,176.5,0.5,33,129.29
793,F4,176.75,0.25,35,129.29
794,A4,177.0,0.25,50,129.29
795,C5,177.0,1.0,50,129.29
796,E4,177.25,0.25,36,129.29
797,C4,177.5,0.25,36,129.29
798,F3,177.5,0.5,33,129.29
799,E4,177.75,0.25,36,129.29
800,G4,178.0,0.25,49,129.29
801,B-4,178.0,1.0,49,129.29
802,E4,178.25,0.25,34,129.29
803,B-3,178.5,0.25,34,129.29
804,A3,178.5,0.5,33,129.29
805,E4,178.75,0.25,34,129.29
806,G4,179.0,0.25,50,129.29
807,B-4,179.0,1.0,50,129.29
808,D4,179.25,0.25,35,129.29
809,B-3,179.5,0.25,35,129.29
810,C2,179.5,0.5,33,129.29
811,D4,179.75,0.25,35,129.29
812,F4,180.0,0.25,49,129.29
813,A4,180.0,1.0,49,129.29
814,D4,180.25,0.25,35,129.29
815,A3,180.5,0.25,35,129.29
816,D2,180.5,0.5,33,129.29
817,D4,180.75,0.25,35,129.29
818,E4,181.0,0.25,48,129.29
819,A4,181.0,1.0,48,129.29
820,C#4,181.25,0.25,36,129.29
821,A3,181.5,0.25,36,129.29
822,F2,181.5,0.5,33,129.29
823,C#4,181.75,0.25,36,129.29
824,G4,182.0,1.0,47,129.29
825,E4,182.25,0.25,35,129.29
826,A3,182.5,0.25,35,129.29
827,A2,182.5,0.5,33,129.29
828,E4,182.75,0.25,35,129.29
829,G4,183.0,1.0,48,129.29
830,E4,183.25,0.25,38,129.29
831,A3,183.5,0.25,42,129.29
832,C#3,183.5,0.5,33,129.29
833,E4,183.75,0.25,45,129.29
834,F4,184.0,1.0,52,129.29
835,D4,184.25,0.25,39,129.29
836,A3,184.5,0.25,39,129.29
837,D3,184.5,0.25,33,129.29
838,D4,184.75,0.25,39,129.29
839,E4,185.0,1.0,49,129.29
840,E3,185.0,0.25,33,129.29
841,F3,185.5,0.25,33,129.29
842,D4,186.0,1.0,47,129.29
843,G3,186.0,0.5,33,129.29
844,C4,186.25,0.25,35,129.29
845,G3,186.5,0.25,35,129.29
846,C4,186.75,0.25,35,129.29
847,G2,187.0,0.5,33,129.29
848,B3,187.25,0.25,33,129.29
849,F3,187.5,0.25,33,129.29
850,B3,187.75,0.25,33,129.29
851,E3,188.0,0.25,36,129.29
852,C2,188.0,0.25,36,129.29
853,C3,188.0,0.25,36,129.29
854,C4,188.0,0.25,36,129.29
855,G3,188.5,0.25,39,129.29
856,E3,189.0,0.25,43,129.29
857,D3,189.5,0.25,47,129.29
858,E4,189.5,0.25,52,129.29
859,G4,189.5,0.25,52,129.29
860,C5,189.5,0.25,52,129.29
861,C3,190.0,0.25,50,129.29
862,E4,190.0,0.25,52,129.29
863,A4,190.0,0.25,52,129.29
864,C5,190.0,0.25,52,129.29
865,B-2,190.5,0.25,46,129.29
866,E4,190.5,0.25,52,129.29
867,B-4,190.5,0.25,52,129.29
868,C5,190.5,0.25,52,129.29
869,C5,191.0,1.0,52,129.29
870,A2,191.0,0.25,43,129.29
871,A4,191.25,0.25,37,129.29
872,F4,191.5,0.25,37,129.29
873,G2,191.5,0.25,39,129.29
874,A4,191.75,0.25,37,129.29
875,F5,192.0,1.0,53,129.29
876,A4,192.25,0.25,40,129.29
877,F4,192.5,0.25,40,129.29
878,F1,192.5,0.25,33,129.29
879,A4,192.75,0.25,42,129.29
880,C5,193.0,0.25,52,129.29
881,E5,193.0,1.0,52,129.29
882,A4,193.25,0.25,38,129.29
883,E4,193.5,0.25,38,129.29
884,F2,193.5,0.25,33,129.29
885,A4,193.75,0.25,38,129.29
886,B-4,194.0,0.25,51,129.29
887,D5,194.0,1.0,51,129.29
888,F4,194.25,0.25,34,129.29
889,D4,194.5,0.25,34,129.29
890,A2,194.5,0.25,33,129.29
891,F4,194.75,0.25,34,129.29
892,A4,195.0,0.25,48,129.29
893,D5,195.0,1.0,48,129.29
894,F4,195.25,0.25,37,129.29
895,D4,195.5,0.25,37,129.29
896,B-2,195.5,0.25,33,129.29
897,F4,195.75,0.25,37,129.29
898,A4,196.0,0.25,49,129.29
899,C5,196.0,1.0,49,129.29
900,F4,196.25,0.25,35,129.29
901,C4,196.5,0.25,35,129.29
902,D3,196.5,0.5,33,129.29
903,F4,196.75,0.25,35,129.29
904,A4,197.0,0.25,49,129.29
905,C5,197.0,1.0,49,129.29
906,E4,197.25,0.25,36,129.29
907,C4,197.5,0.25,36,129.29
908,F3,197.5,0.5,33,129.29
909,E4,197.75,0.25,37,129.29
910,G4,198.0,0.25,49,129.29
911,B-4,198.0,1.0,49,129.29
912,E4,198.25,0.25,35,129.29
913,B-3,198.5,0.25,35,129.29
914,A3,198.5,0.5,33,129.29
915,E4,198.75,0.25,35,129.29
916,G4,199.0,0.25,50,129.29
917,B-4,199.0,1.0,50,129.29
918,D4,199.25,0.25,36,129.29
919,B-3,199.5,0.25,36,129.29
920,C2,199.5,0.5,33,129.29
921,D4,199.75,0.25,36,129.29
922,F4,200.0,0.25,49,129.29
923,A4,200.0,1.0,49,129.29
924,D4,200.25,0.25,36,129.29
925,A3,200.5,0.25,36,129.29
926,D2,200.5,0.5,33,129.29
927,D4,200.75,0.25,36,129.29
928,E4,201.0,0.25,48,129.29
929,A4,201.0,1.0,48,129.29
930,C#4,201.25,0.25,36,129.29
931,A3,201.5,0.25,36,129.29
932,F2,201.5,0.5,33,129.29
933,C#4,201.75,0.25,36,129.29
934,G4,202.0,1.0,47,129.29
935,E4,202.25,0.25,37,129.29
936,A3,202.5,0.25,37,129.29
937,A2,202.5,0.5,33,129.29
938,E4,202.75,0.25,37,129.29
939,G4,203.0,1.0,48,129.29
940,E4,203.25,0.25,38,129.29
941,A3,203.5,0.25,42,129.29
942,C#3,203.5,0.5,33,129.29
943,E4,203.75,0.25,45,129.29
944,F#4,204.0,1.0,52,129.29
945,D4,204.25,0.25,43,129.29
946,A3,204.5,0.25,44,129.29
947,D3,204.5,0.25,33,129.29
948,D4,204.75,0.25,44,129.29
949,E4,205.0,1.0,49,129.29
950,E3,205.0,0.25,33,129.29
951,D4,205.25,0.25,40,129.29
952,B3,205.5,0.25,38,129.29
953,F#3,205.5,0.25,33,129.29
954,D4,205.75,0.25,36,129.29
955,F#4,206.0,1.0,45,129.29
956,G2,206.0,0.5,33,129.29
957,C#4,206.25,0.25,33,129.29
958,A3,206.5,0.25,33,129.29
959,C#4,206.75,0.25,33,129.29
960,D4,207.0,1.0,43,129.29
961,A2,207.0,0.5,33,129.29
962,A3,207.25,0.25,35,129.29
963,F#3,207.5,0.25,35,129.29
964,A3,207.75,0.25,35,129.29
965,E4,208.0,1.0,49,129.29
966,B3,208.25,0.25,35,129.29
967,G3,208.5,0.25,35,129.29
968,D3,208.5,0.5,33,129.29
969,B3,208.75,0.25,35,129.29
970,F#4,209.0,1.0,49,129.29
971,C4,209.25,0.25,35,129.29
972,A3,209.5,0.25,36,129.29
973,G2,209.5,0.5,33,129.29
974,C4,209.75,0.25,36,129.29
975,F#4,210.0,1.0,52,129.29
976,C4,210.25,0.25,38,129.29
977,A3,210.5,0.25,38,129.29
978,D2,210.5,0.5,33,129.29
979,C4,210.75,0.25,39,129.29
980,F#4,211.0,1.0,56,129.29
981,C4,211.25,0.25,39,129.29
982,A3,211.5,0.25,39,129.29
983,D2,211.5,0.5,36,129.29
984,C4,211.75,0.25,38,129.29
985,G4,212.0,1.0,52,129.29
986,D4,212.25,0.25,37,129.29
987,B3,212.5,0.25,36,129.29
988,G1,212.5,0.5,36,129.29
989,D4,212.75,0.25,35,129.29
990,F#4,213.0,1.0,49,129.29
991,D4,213.25,0.25,35,129.29
992,A3,213.5,0.25,35,129.29
993,G1,213.5,0.5,34,129.29
994,D4,213.75,0.25,35,129.29
995,E4,214.0,1.0,49,129.29
996,C#4,214.25,0.25,35,129.29
997,A3,214.5,0.25,35,129.29
998,A1,214.5,0.5,33,129.29
999,C#4,214.75,0.25,35,129.29
1000,F#4,215.0,1.0,47,129.29
1001,D4,215.25,0.25,35,129.29
1002,C4,215.5,0.25,35,129.29
1003,A1,215.5,0.5,33,129.29
1004,D4,215.75,0.25,35,129.29
1005,G4,216.0,1.0,49,129.29
1006,E4,216.25,0.25,35,129.29
1007,C4,216.5,0.25,35,129.29
1008,D2,216.5,0.5,33,129.29
1009,E4,216.75,0.25,35,129.29
1010,A4,217.0,1.0,49,129.29
1011,F#4,217.25,0.25,35,129.29
1012,C4,217.5,0.25,36,129.29
1013,D3,217.5,0.5,33,129.29
1014,F#4,217.75,0.25,36,129.29
1015,A4,218.0,1.0,52,129.29
1016,F#4,218.25,0.25,38,129.29
1017,C4,218.5,0.25,38,129.29
1018,D3,218.5,0.5,33,129.29
1019,F#4,218.75,0.25,39,129.29
1020,A4,219.0,1.0,56,129.29
1021,F#4,219.25,0.25,39,129.29
1022,C4,219.5,0.25,39,129.29
1023,D3,219.5,0.5,36,129.29
1024,F#4,219.75,0.25,38,129.29
1025,B4,220.0,1.0,52,129.29
1026,G4,220.25,0.25,37,129.29
1027,B3,220.5,0.25,36,129.29
1028,G2,220.5,0.5,36,129.29
1029,G4,220.75,0.25,35,129.29
1030,A4,221.0,1.0,49,129.29
1031,F#4,221.25,0.25,35,129.29
1032,D4,221.5,0.25,35,129.29
1033,G2,221.5,0.5,34,129.29
1034,F#4,221.75,0.25,35,129.29
1035,A4,222.0,1.0,49,129.29
1036,E4,222.25,0.25,35,129.29
1037,C#4,222.5,0.25,35,129.29
1038,A2,222.5,0.5,33,129.29
1039,E4,222.75,0.25,35,129.29
1040,A4,223.0,1.0,42,129.29
1041,F#4,223.25,0.25,31,129.29
1042,D4,223.5,0.25,31,129.29
1043,A2,223.5,0.5,33,129.29
1044,F#4,223.75,0.25,31,129.29
1045,D5,224.0,1.0,39,129.29
1046,D3,224.0,2.0,29,129.29
1047,A4,224.25,0.25,31,129.29
1048,D4,224.5,0.25,31,129.29
1049,A4,224.75,0.25,31,129.29
1050,C#5,225.0,1.0,44,129.29
1051,F#3,225.0,1.0,29,129.29
1052,A4,225.25,0.25,31,129.29
1053,E4,225.5,0.25,32,129.29
1054,A4,225.75,0.25,32,129.29
1055,E5,226.0,1.0,40,129.29
1056,A3,226.0,1.0,29,129.29
1057,D3,226.0,2.0,29,129.29
1058,A4,226.25,0.25,34,129.29
1059,E4,226.5,0.25,33,129.29
1060,A4,226.75,0.25,33,129.29
1061,A4,227.0,1.0,39,129.29
1062,G3,227.0,1.0,32,129.29
1063,F#4,227.25,0.25,32,129.29
1064,D4,227.5,0.25,32,129.29
1065,F#4,227.75,0.25,32,129.29
1066,B4,228.0,1.0,39,129.29
1067,F#3,228.0,1.0,32,129.29
1068,D3,228.0,1.0,29,129.29
1069,G4,228.25,0.25,31,129.29
1070,D4,228.5,0.25,31,129.29
1071,G4,228.75,0.25,31,129.29
1072,A4,229.0,1.0,40,129.29
1073,G2,229.0,1.0,30,129.29
1074,D3,229.0,1.0,30,129.29
1075,G4,229.25,0.25,31,129.29
1076,E4,229.5,0.25,31,129.29
1077,G4,229.75,0.25,31,129.29
1078,A4,230.0,1.0,38,129.29
1079,C#3,230.0,1.0,29,129.29
1080,A2,230.0,2.0,29,129.29
1081,G4,230.25,0.25,31,129.29
1082,C#4,230.5,0.25,31,129.29
1083,G4,230.75,0.25,31,129.29
1084,A4,231.0,1.0,42,129.29
1085,E3,231.0,1.0,29,129.29
1086,F#4,231.25,0.25,31,129.29
1087,D4,231.5,0.25,31,129.29
1088,F#4,231.75,0.25,31,129.29
1089,D5,232.0,1.0,39,129.29
1090,D3,232.0,2.0,29,129.29
1091,A4,232.25,0.25,31,129.29
1092,D4,232.5,0.25,31,129.29
1093,A4,232.75,0.25,31,129.29
1094,C#5,233.0,1.0,44,129.29
1095,F#3,233.0,1.0,29,129.29
1096,A4,233.25,0.25,31,129.29
1097,E4,233.5,0.25,32,129.29
1098,A4,233.75,0.25,32,129.29
1099,E5,234.0,1.0,40,129.29
1100,A3,234.0,0.5,29,129.29
1101,D3,234.0,2.0,29,129.29
1102,A4,234.25,0.25,34,129.29
1103,E4,234.5,0.25,33,129.29
1104,B-3,234.5,0.5,26,129.29
1105,A4,234.75,0.25,33,129.29
1106,A4,235.0,1.0,40,129.29
1107,A3,235.0,0.5,29,129.29
1108,F#4,235.25,0.25,32,129.29
1109,D4,235.5,0.25,32,129.29
1110,G3,235.5,0.5,27,129.29
1111,F#4,235.75,0.25,32,129.29
1112,B-4,236.0,1.0,39,129.29
1113,F#3,236.0,1.0,32,129.29
1114,D3,236.0,1.0,29,129.29
1115,G4,236.25,0.25,31,129.29
1116,D4,236.5,0.25,31,129.29
1117,G4,236.75,0.25,31,129.29
1118,A4,237.0,1.0,39,129.29
1119,G2,237.0,1.0,30,129.29
1120,D3,237.0,1.0,30,129.29
1121,G4,237.25,0.25,31,129.29
1122,E4,237.5,0.25,31,129.29
1123,G4,237.75,0.25,31,129.29
1124,A4,238.0,1.0,38,129.29
1125,C#3,238.0,1.0,29,129.29
1126,A2,238.0,2.0,29,129.29
1127,G4,238.25,0.25,31,129.29
1128,C#4,238.5,0.25,31,129.29
1129,G4,238.75,0.25,31,129.29
1130,A4,239.0,1.0,44,129.29
1131,E3,239.0,1.0,29,129.29
1132,F#4,239.25,0.25,31,129.29
1133,D4,239.5,0.25,31,129.29
1134,F#4,239.75,0.25,31,129.29
1135,B-4,240.0,1.0,37,129.29
1136,D3,240.0,2.0,32,129.29
1137,G4,240.25,0.25,29,129.29
1138,D4,240.5,0.25,28,129.29
1139,G4,240.75,0.25,28,129.29
1140,A4,241.0,1.0,36,129.29
1141,G2,241.0,1.0,28,129.29
1142,G4,241.25,0.25,28,129.29
1143,E4,241.5,0.25,28,129.29
1144,G4,241.75,0.25,28,129.29
1145,A4,242.0,1.0,34,129.29
1146,C#3,242.0,1.0,26,129.29
1147,A2,242.0,2.0,26,129.29
1148,G4,242.25,0.25,28,129.29
1149,C#4,242.5,0.25,28,129.29
1150,G4,242.75,0.25,28,129.29
1151,A4,243.0,1.0,36,129.29
1152,E3,243.0,1.0,26,129.29
1153,F4,243.25,0.25,28,129.29
1154,D4,243.5,0.25,28,129.29
1155,F4,243.75,0.25,28,129.29
1156,A4,244.0,1.0,34,129.29
1157,D2,244.0,1.0,26,129.29
1158,F4,244.25,0.25,28,129.29
1159,C4,244.5,0.25,28,129.29
1160,F4,244.75,0.25,28,129.29
1161,A4,245.0,1.0,36,129.29
1162,F2,245.0,1.0,26,129.29
1163,E4,245.25,0.25,28,129.29
1164,C4,245.5,0.25,28,129.29
1165,E4,245.75,0.25,28,129.29
1166,G4,246.0,1.0,34,129.29
1167,A2,246.0,1.0,26,129.29
1168,E4,246.25,0.25,28,129.29
1169,C4,246.5,0.25,28,129.29
1170,E4,246.75,0.25,28,129.29
1171,G4,247.0,1.0,36,129.29
1172,C3,247.0,1.0,26,129.29
1173,E-4,247.25,0.25,28,129.29
1174,C4,247.5,0.25,28,129.29
1175,E-4,247.75,0.25,28,129.29
1176,G4,248.0,1.0,34,129.29
1177,C2,248.0,1.0,26,129.29
1178,E-4,248.25,0.25,28,129.29
1179,B-3,248.5,0.25,28,129.29
1180,E-4,248.75,0.25,28,129.29
1181,G4,249.0,1.0,36,129.29
1182,E-2,249.0,1.0,26,129.29
1183,D4,249.25,0.25,28,129.29
1184,B-3,249.5,0.25,28,129.29
1185,D4,249.75,0.25,28,129.29
1186,F4,250.0,1.0,34,129.29
1187,G2,250.0,1.0,26,129.29
1188,D4,250.25,0.25,28,129.29
1189,B-3,250.5,0.25,28,129.29
1190,D4,250.75,0.25,28,129.29
1191,F4,251.0,1.0,42,129.29
1192,B-2,251.0,1.0,26,129.29
1193,D4,251.25,0.25,32,129.29
1194,B-3,251.5,0.25,32,129.29
1195,D4,251.75,0.25,32,129.29
1196,F4,252.0,1.0,39,129.29
1197,B-1,252.0,1.0,29,129.29
1198,D4,252.25,0.25,33,129.29
1199,A3,252.5,0.25,33,129.29
1200,D4,252.75,0.25,33,129.29
1201,F4,253.0,1.0,44,129.29
1202,D2,253.0,1.0,30,129.29
1203,C4,253.25,0.25,34,129.29
1204,A3,253.5,0.25,34,129.29
1205,C4,253.75,0.25,34,129.29
1206,E4,254.0,1.0,43,129.29
1207,F2,254.0,1.0,31,129.29
1208,C4,254.25,0.25,35,129.29
1209,A3,254.5,0.25,35,129.29
1210,C4,254.75,0.25,35,129.29
1211,E4,255.0,1.0,46,129.29
1212,A2,255.0,1.0,32,129.29
1213,C4,255.25,0.25,34,129.29
1214,A3,255.5,0.25,36,129.29
1215,C4,255.75,0.25,38,129.29
1216,C5,256.0,1.0,50,129.29
1217,A1,256.0,1.0,29,129.29
1218,G4,256.25,0.25,38,129.29
1219,E4,256.5,0.25,38,129.29
1220,G4,256.75,0.25,38,129.29
1221,C5,257.0,1.0,51,129.29
1222,B-1,257.0,1.0,32,129.29
1223,A4,257.25,0.25,38,129.29
1224,F4,257.5,0.25,37,129.29
1225,A4,257.75,0.25,34,129.29
1226,C5,258.0,1.0,43,129.29
1227,A1,258.0,1.0,36,129.29
1228,B-4,258.25,0.25,35,129.29
1229,E4,258.5,0.25,35,129.29
1230,B-4,258.75,0.25,35,129.29
1231,C5,259.0,1.0,52,129.29
1232,G1,259.0,1.0,32,129.29
1233,A4,259.25,0.25,38,129.29
1234,F4,259.5,0.25,38,129.29
1235,A4,259.75,0.25,38,129.29
1236,F5,260.0,1.0,53,129.29
1237,A4,260.25,0.25,43,129.29
1238,F4,260.5,0.25,44,129.29
1239,F1,260.5,0.25,33,129.29
1240,A4,260.75,0.25,44,129.29
1241,C5,261.0,0.25,52,129.29
1242,E5,261.0,1.0,52,129.29
1243,A4,261.25,0.25,38,129.29
1244,E4,261.5,0.25,38,129.29
1245,F2,261.5,0.25,33,129.29
1246,A4,261.75,0.25,38,129.29
1247,B-4,262.0,0.25,51,129.29
1248,D5,262.0,1.0,51,129.29
1249,F4,262.25,0.25,34,129.29
1250,D4,262.5,0.25,34,129.29
1251,A2,262.5,0.25,33,129.29
1252,F4,262.75,0.25,34,129.29
1253,A4,263.0,0.25,50,129.29
1254,D5,263.0,1.0,50,129.29
1255,F4,263.25,0.25,36,129.29
1256,D4,263.5,0.25,36,129.29
1257,B-2,263.5,0.25,33,129.29
1258,F4,263.75,0.25,36,129.29
1259,A4,264.0,0.25,49,129.29
1260,C5,264.0,1.0,49,129.29
1261,F4,264.25,0.25,35,129.29
1262,C4,264.5,0.25,35,129.29
1263,D3,264.5,0.5,33,129.29
1264,F4,264.75,0.25,35,129.29
1265,A4,265.0,0.25,50,129.29
1266,C5,265.0,1.0,50,129.29
1267,E4,265.25,0.25,36,129.29
1268,C4,265.5,0.25,36,129.29
1269,F3,265.5,0.5,33,129.29
1270,E4,265.75,0.25,36,129.29
1271,G4,266.0,0.25,49,129.29
1272,B-4,266.0,1.0,49,129.29
1273,E4,266.25,0.25,35,129.29
1274,B-3,266.5,0.25,35,129.29
1275,A3,266.5,0.5,33,129.29
1276,E4,266.75,0.25,35,129.29
1277,G4,267.0,0.25,50,129.29
1278,B-4,267.0,1.0,50,129.29
1279,D4,267.25,0.25,36,129.29
1280,B-3,267.5,0.25,36,129.29
1281,C2,267.5,0.5,33,129.29
1282,D4,267.75,0.25,36,129.29
1283,F4,268.0,0.25,49,129.29
1284,A4,268.0,1.0,49,129.29
1285,D4,268.25,0.25,36,129.29
1286,A3,268.5,0.25,36,129.29
1287,D2,268.5,0.5,33,129.29
1288,D4,268.75,0.25,36,129.29
1289,E4,269.0,0.25,48,129.29
1290,A4,269.0,1.0,48,129.29
1291,C#4,269.25,0.25,36,129.29
1292,A3,269.5,0.25,36,129.29
1293,F2,269.5,0.5,33,129.29
1294,C#4,269.75,0.25,36,129.29
1295,G4,270.0,1.0,47,129.29
1296,E4,270.25,0.25,37,129.29
1297,A3,270.5,0.25,37,129.29
1298,A2,270.5,0.5,33,129.29
1299,E4,270.75,0.25,37,129.29
1300,G4,271.0,1.0,48,129.29
1301,E4,271.25,0.25,38,129.29
1302,A3,271.5,0.25,42,129.29
1303,C#3,271.5,0.5,33,129.29
1304,E4,271.75,0.25,45,129.29
1305,F4,272.0,1.0,52,129.29
1306,D4,272.25,0.25,43,129.29
1307,A3,272.5,0.25,44,129.29
1308,D3,272.5,0.25,33,129.29
1309,D4,272.75,0.25,44,129.29
1310,G4,273.0,1.0,49,129.29
1311,E3,273.0,0.25,33,129.29
1312,F4,273.25,0.25,35,129.29
1313,D4,273.5,0.25,35,129.29
1314,F3,273.5,0.25,33,129.29
1315,F4,273.75,0.25,35,129.29
1316,A4,274.0,1.0,45,129.29
1317,B-2,274.0,0.5,33,129.29
1318,E4,274.25,0.25,33,129.29
1319,C4,274.5,0.25,33,129.29
1320,E4,274.75,0.25,33,129.29
1321,F4,275.0,1.0,47,129.29
1322,C3,275.0,0.5,33,129.29
1323,C4,275.25,0.25,35,129.29
1324,A3,275.5,0.25,35,129.29
1325,C4,275.75,0.25,35,129.29
1326,G4,276.0,1.0,49,129.29
1327,D4,276.25,0.25,35,129.29
1328,B-3,276.5,0.25,35,129.29
1329,F3,276.5,0.5,33,129.29
1330,D4,276.75,0.25,35,129.29
1331,A4,277.0,1.0,49,129.29
1332,E-4,277.25,0.25,35,129.29
1333,C4,277.5,0.25,36,129.29
1334,B-2,277.5,0.5,33,129.29
1335,E-4,277.75,0.25,36,129.29
1336,A4,278.0,1.0,52,129.29
1337,E-4,278.25,0.25,38,129.29
1338,C4,278.5,0.25,38,129.29
1339,F2,278.5,0.5,33,129.29
1340,E-4,278.75,0.25,39,129.29
1341,A4,279.0,1.0,53,129.29
1342,E-4,279.25,0.25,37,129.29
1343,C4,279.5,0.25,36,129.29
1344,F2,279.5,0.5,36,129.29
1345,E-4,279.75,0.25,36,129.29
1346,B-4,280.0,1.0,49,129.29
1347,F4,280.25,0.25,37,129.29
1348,D4,280.5,0.25,36,129.29
1349,B-1,280.5,0.5,36,129.29
1350,F4,280.75,0.25,35,129.29
1351,A4,281.0,1.0,49,129.29
1352,F4,281.25,0.25,35,129.29
1353,C4,281.5,0.25,35,129.29
1354,B-1,281.5,0.5,34,129.29
1355,F4,281.75,0.25,35,129.29
1356,G4,282.0,1.0,49,129.29
1357,E4,282.25,0.25,35,129.29
1358,C4,282.5,0.25,35,129.29
1359,C2,282.5,0.5,33,129.29
1360,E4,282.75,0.25,35,129.29
1361,A4,283.0,1.0,47,129.29
1362,F4,283.25,0.25,35,129.29
1363,E-4,283.5,0.25,35,129.29
1364,C2,283.5,0.5,33,129.29
1365,F4,283.75,0.25,35,129.29
1366,B-4,284.0,1.0,49,129.29
1367,G4,284.25,0.25,35,129.29
1368,E-4,284.5,0.25,35,129.29
1369,F2,284.5,0.5,33,129.29
1370,G4,284.75,0.25,35,129.29
1371,C5,285.0,1.0,49,129.29
1372,A4,285.25,0.25,35,129.29
1373,E-4,285.5,0.25,36,129.29
1374,F3,285.5,0.5,33,129.29
1375,A4,285.75,0.25,36,129.29
1376,C5,286.0,1.0,52,129.29
1377,A4,286.25,0.25,38,129.29
1378,E-4,286.5,0.25,38,129.29
1379,F3,286.5,0.5,33,129.29
1380,A4,286.75,0.25,39,129.29
1381,C5,287.0,1.0,56,129.29
1382,A4,287.25,0.25,39,129.29
1383,E-4,287.5,0.25,39,129.29
1384,F3,287.5,0.5,36,129.29
1385,A4,287.75,0.25,38,129.29
1386,D5,288.0,1.0,52,129.29
1387,B-4,288.25,0.25,37,129.29
1388,D4,288.5,0.25,36,129.29
1389,B-2,288.5,0.5,36,129.29
1390,B-4,288.75,0.25,35,129.29
1391,C5,289.0,1.0,49,129.29
1392,A4,289.25,0.25,34,129.29
1393,F4,289.5,0.25,34,129.29
1394,B-2,289.5,0.5,32,129.29
1395,A4,289.75,0.25,34,129.29
1396,C5,290.0,1.0,47,129.29
1397,G4,290.25,0.25,34,129.29
1398,E4,290.5,0.25,33,129.29
1399,C3,290.5,0.5,33,129.29
1400,G4,290.75,0.25,32,129.29
1401,C5,291.0,1.0,42,129.29
1402,A4,291.25,0.25,31,129.29
1403,F4,291.5,0.25,31,129.29
1404,C3,291.5,0.5,33,129.29
1405,A4,291.75,0.25,31,129.29
1406,F5,292.0,1.0,39,129.29
1407,F3,292.0,2.0,29,129.29
1408,C5,292.25,0.25,31,129.29
1409,F4,292.5,0.25,31,129.29
1410,C5,292.75,0.25,31,129.29
1411,E5,293.0,1.0,44,129.29
1412,A3,293.0,1.0,29,129.29
1413,C5,293.25,0.25,31,129.29
1414,G4,293.5,0.25,32,129.29
1415,C5,293.75,0.25,32,129.29
1416,G5,294.0,1.0,40,129.29
1417,C4,294.0,1.0,29,129.29
1418,F3,294.0,2.0,29,129.29
1419,C5,294.25,0.25,34,129.29
1420,G4,294.5,0.25,33,129.29
1421,C5,294.75,0.25,33,129.29
1422,C5,295.0,1.0,44,129.29
1423,B-3,295.0,1.0,32,129.29
1424,A4,295.25,0.25,32,129.29
1425,F4,295.5,0.25,32,129.29
1426,A4,295.75,0.25,32,129.29
1427,D5,296.0,1.0,39,129.29
1428,A3,296.0,1.0,32,129.29
1429,F3,296.0,1.0,29,129.29
1430,B-4,296.25,0.25,31,129.29
1431,F4,296.5,0.25,31,129.29
1432,B-4,296.75,0.25,31,129.29
1433,C5,297.0,1.0,40,129.29
1434,B-2,297.0,1.0,30,129.29
1435,F3,297.0,1.0,30,129.29
1436,B-4,297.25,0.25,31,129.29
1437,G4,297.5,0.25,31,129.29
1438,B-4,297.75,0.25,31,129.29
1439,C5,298.0,1.0,38,129.29
1440,E3,298.0,1.0,29,129.29
1441,C3,298.0,2.0,29,129.29
1442,B-4,298.25,0.25,31,129.29
1443,E4,298.5,0.25,31,129.29
1444,B-4,298.75,0.25,31,129.29
1445,C5,299.0,1.0,42,129.29
1446,G3,299.0,1.0,29,129.29
1447,A4,299.25,0.25,31,129.29
1448,F4,299.5,0.25,31,129.29
1449,A4,299.75,0.25,31,129.29
1450,F5,300.0,1.0,39,129.29
1451,F3,300.0,2.0,29,129.29
1452,C5,300.25,0.25,31,129.29
1453,F4,300.5,0.25,31,129.29
1454,C5,300.75,0.25,31,129.29
1455,E5,301.0,1.0,44,129.29
1456,A3,301.0,1.0,29,129.29
1457,C5,301.25,0.25,31,129.29
1458,G4,301.5,0.25,32,129.29
1459,C5,301.75,0.25,32,129.29
1460,G5,302.0,1.0,40,129.29
1461,C4,302.0,0.5,29,129.29
1462,F3,302.0,2.0,29,129.29
1463,C5,302.25,0.25,34,129.29
1464,G4,302.5,0.25,33,129.29
1465,C#4,302.5,0.5,26,129.29
1466,C5,302.75,0.25,33,129.29
1467,C5,303.0,1.0,44,129.29
1468,C4,303.0,0.5,29,129.29
1469,A4,303.25,0.25,32,129.29
1470,F4,303.5,0.25,32,129.29
1471,B-3,303.5,0.5,27,129.29
1472,A4,303.75,0.25,32,129.29
1473,C#5,304.0,1.0,39,129.29
1474,A3,304.0,1.0,32,129.29
1475,F3,304.0,1.0,29,129.29
1476,B-4,304.25,0.25,31,129.29
1477,F4,304.5,0.25,31,129.29
1478,B-4,304.75,0.25,31,129.29
1479,C5,305.0,1.0,39,129.29
1480,B-2,305.0,1.0,30,129.29
1481,F3,305.0,1.0,30,129.29
1482,B-4,305.25,0.25,31,129.29
1483,G4,305.5,0.25,31,129.29
1484,B-4,305.75,0.25,31,129.29
1485,C5,306.0,1.0,38,129.29
1486,E3,306.0,1.0,29,129.29
1487,C3,306.0,2.0,29,129.29
1488,B-4,306.25,0.25,31,129.29
1489,E4,306.5,0.25,31,129.29
1490,B-4,306.75,0.25,31,129.29
1491,G3,307.0,1.0,29,129.29
1492,G#4,311.0,1.75,95,129.29
1493,C5,311.0,1.75,95,129.29
1494,F5,311.0,1.75,95,129.29
1495,F2,312.0,1.75,81,129.29
1496,C3,312.0,1.75,81,129.29
1497,F3,312.0,1.75,81,129.29
1498,G#4,312.75,119/500,82,129.29
1499,C5,312.75,119/500,82,129.29
1500,F5,312.75,119/500,82,129.29
1501,G#4,313.0,0.75,86,129.29
1502,C5,313.0,0.75,86,129.29
1503,G#5,313.0,0.75,86,129.29
1504,G#4,313.75,119/500,81,129.29
1505,C5,313.75,119/500,81,129.29
1506,G#5,313.75,119/500,81,129.29
1507,F2,313.75,119/500,70,129.29
1508,C3,313.75,119/500,70,129.29
1509,F3,313.75,119/500,70,129.29
1510,G#4,314.0,0.75,86,129.29
1511,C5,314.0,0.75,86,129.29
1512,F5,314.0,0.75,86,129.29
1513,F2,314.0,0.75,77,129.29
1514,F3,314.0,0.75,77,129.29
1515,G#4,314.75,119/500,82,129.29
1516,C5,314.75,119/500,82,129.29
1517,F5,314.75,119/500,82,129.29
1518,F2,314.75,119/500,74,129.29
1519,F3,314.75,119/500,74,129.29
1520,F4,315.0,0.75,86,129.29
1521,G#4,315.0,0.75,86,129.29
1522,C5,315.0,0.75,86,129.29
1523,G#2,315.0,0.75,77,129.29
1524,G#3,315.0,0.75,77,129.29
1525,F4,315.75,119/500,82,129.29
1526,G#4,315.75,119/500,82,129.29
1527,C5,315.75,119/500,82,129.29
1528,G#2,315.75,119/500,72,129.29
1529,G#3,315.75,119/500,72,129.29
1530,C4,316.0,0.75,82,129.29
1531,F4,316.0,0.75,82,129.29
1532,G#4,316.0,0.75,82,129.29
1533,F1,316.0,0.75,77,129.29
1534,F2,316.0,0.75,77,129.29
1535,C4,316.75,119/500,77,129.29
1536,F4,316.75,119/500,77,129.29
1537,G#4,316.75,119/500,77,129.29
1538,F1,316.75,119/500,72,129.29
1539,F2,316.75,119/500,72,129.29
1540,G#3,317.0,0.75,82,129.29
1541,C4,317.0,0.75,82,129.29
1542,F4,317.0,0.75,82,129.29
1543,G#1,317.0,0.75,72,129.29
1544,G#2,317.0,0.75,72,129.29
1545,G#3,317.75,119/500,77,129.29
1546,C4,317.75,119/500,77,129.29
1547,F4,317.75,119/500,77,129.29
1548,G#1,317.75,119/500,67,129.29
1549,G#2,317.75,119/500,67,129.29
1550,G#3,318.0,0.75,84,129.29
1551,C4,318.0,0.75,84,129.29
1552,C2,318.0,0.75,72,129.29
1553,C3,318.0,0.75,72,129.29
1554,G#3,318.75,0.25,76,129.29
1555,C4,318.75,0.25,76,129.29
1556,F4,318.75,0.25,76,129.29
1557,C2,318.75,119/500,67,129.29
1558,C3,318.75,119/500,67,129.29
1559,B-3,319.0,0.25,86,129.29
1560,C#4,319.0,0.25,86,129.29
1561,F#4,319.0,0.25,86,129.29
1562,F2,319.0,0.75,72,129.29
1563,F3,319.0,0.75,72,129.29
1564,F#5,319.5,73/250,61,129.29
1565,B-5,319.75,73/250,65,129.29
1566,F2,319.75,0.25,65,129.29
1567,F3,319.75,0.25,65,129.29
1568,C#6,320.0,73/250,68,129.29
1569,B-2,320.0,0.25,75,129.29
1570,C#3,320.0,0.25,75,129.29
1571,F#3,320.0,0.25,75,129.29
1572,B5,320.25,73/250,68,129.29
1573,B-5,320.5,73/250,67,129.29
1574,G#5,320.75,0.25,67,129.29
1575,F#5,321.0,73/250,68,129.29
1576,G#5,321.0,21/500,67,129.29
1577,F5,321.25,73/250,68,129.29
1578,E-5,321.5,73/250,67,129.29
1579,C#5,321.75,73/250,67,129.29
1580,B4,322.0,73/250,67,129.29
1581,B-4,322.25,73/250,67,129.29
1582,G#4,322.5,73/250,67,129.29
1583,F#4,322.75,0.25,67,129.29
1584,G#4,323.0,73/250,67,129.29
1585,F#4,323.0,21/500,67,129.29
1586,F4,323.25,73/250,68,129.29
1587,F#4,323.5,73/250,72,129.29
1588,B-4,323.75,73/250,75,129.29
1589,C#5,324.0,73/250,74,129.29
1590,B4,324.25,73/250,73,129.29
1591,B-4,324.5,73/250,73,129.29
1592,F#3,324.5,73/250,63,129.29
1593,G#4,324.75,0.25,72,129.29
1594,B-3,324.75,73/250,65,129.29
1595,F#4,325.0,73/250,71,129.29
1596,G#4,325.0,21/500,72,129.29
1597,C#4,325.0,73/250,68,129.29
1598,F4,325.25,73/250,71,129.29
1599,B3,325.25,73/250,66,129.29
1600,E-4,325.5,73/250,72,129.29
1601,B-3,325.5,73/250,64,129.29
1602,C#4,325.75,73/250,73,129.29
1603,G#3,325.75,0.25,63,129.29
1604,B3,326.0,73/250,74,129.29
1605,F#3,326.0,73/250,61,129.29
1606,G#3,326.0,21/500,63,129.29
1607,B-3,326.25,73/250,75,129.29
1608,F3,326.25,73/250,61,129.29
1609,G#3,326.5,73/250,76,129.29
1610,E-3,326.5,73/250,63,129.29
1611,F#3,326.75,0.25,79,129.29
1612,C#3,326.75,73/250,64,129.29
1613,B2,327.0,73/250,64,129.29
1614,C#3,327.0,0.5,86,129.29
1615,F#3,327.0,0.5,86,129.29
1616,B-2,327.25,73/250,65,129.29
1617,G#2,327.5,73/250,66,129.29
1618,B-3,327.5,1.0,79,129.29
1619,C#4,327.5,1.0,79,129.29
1620,F#4,327.5,1.0,79,129.29
1621,F#2,327.75,0.25,66,129.29
1622,B-1,328.0,0.5,67,129.29
1623,B-2,328.0,0.5,67,129.29
1624,C#4,328.5,0.5,78,129.29
1625,F#4,328.5,0.5,78,129.29
1626,B-4,328.5,0.5,78,129.29
1627,B-1,329.0,0.5,71,129.29
1628,B-2,329.0,0.5,71,129.29
1629,C#4,329.5,0.5,78,129.29
1630,F#4,329.5,0.5,78,129.29
1631,B-4,329.5,0.5,78,129.29
1632,F#4,330.0,0.25,73,129.29
1633,B-4,330.0,0.25,73,129.29
1634,C#5,330.0,0.25,73,129.29
1635,B-1,330.0,0.5,70,129.29
1636,B-2,330.0,0.5,70,129.29
1637,B-4,330.5,0.25,76,129.29
1638,C#5,330.5,0.25,76,129.29
1639,F#5,330.5,0.25,76,129.29
1640,B-1,330.5,0.25,58,129.29
1641,B-2,330.5,0.25,58,129.29
1642,C#5,331.0,0.25,79,129.29
1643,F#5,331.0,0.25,79,129.29
1644,B-5,331.0,0.25,79,129.29
1645,B-1,331.0,0.25,62,129.29
1646,B-2,331.0,0.25,62,129.29
1647,B-3,331.5,0.5,79,129.29
1648,E4,331.5,0.5,79,129.29
1649,G4,331.5,0.5,79,129.29
1650,B-1,331.5,0.25,66,129.29
1651,B-2,331.5,0.25,66,129.29
1652,E4,332.0,1.0,79,129.29
1653,G4,332.0,1.0,79,129.29
1654,B-4,332.0,1.0,79,129.29
1655,C2,332.0,0.5,67,129.29
1656,C3,332.0,0.5,67,129.29
1657,G4,333.0,0.5,78,129.29
1658,B-4,333.0,0.5,78,129.29
1659,E5,333.0,0.5,78,129.29
1660,C2,333.0,0.5,71,129.29
1661,C3,333.0,0.5,71,129.29
1662,G4,334.0,0.5,78,129.29
1663,B-4,334.0,0.5,78,129.29
1664,E5,334.0,0.5,78,129.29
1665,C2,334.0,0.5,70,129.29
1666,C3,334.0,0.5,70,129.29
1667,B-4,334.5,0.25,73,129.29
1668,E5,334.5,0.25,73,129.29
1669,G5,334.5,0.25,73,129.29
1670,C2,334.5,0.25,58,129.29
1671,C3,334.5,0.25,58,129.29
1672,E5,335.0,0.25,76,129.29
1673,G5,335.0,0.25,76,129.29
1674,B-5,335.0,0.25,76,129.29
1675,C2,335.0,0.25,62,129.29
1676,C3,335.0,0.25,62,129.29
1677,G5,335.5,0.25,79,129.29
1678,B-5,335.5,0.25,79,129.29
1679,E6,335.5,0.25,79,129.29
1680,C2,335.5,0.25,66,129.29
1681,C3,335.5,0.25,66,129.29
1682,F2,336.0,0.25,67,129.29
1683,F5,336.0,1.75,93,129.29
1684,G#5,336.0,1.75,93,129.29
1685,C6,336.0,1.75,93,129.29
1686,F6,336.0,1.75,93,129.29
1687,G#2,336.25,0.25,57,129.29
1688,C3,336.5,0.25,57,129.29
1689,F3,336.75,0.25,57,129.29
1690,F2,337.0,0.25,67,129.29
1691,G#2,337.25,0.25,57,129.29
1692,C3,337.5,0.25,57,129.29
1693,F3,337.75,0.25,57,129.29
1694,F5,337.75,0.25,84,129.29
1695,F6,337.75,0.25,84,129.29
1696,F2,338.0,0.25,67,129.29
1697,G#5,338.0,0.75,88,129.29
1698,G#6,338.0,0.75,88,129.29
1699,G#2,338.25,0.25,56,129.29
1700,C3,338.5,0.25,57,129.29
1701,F3,338.75,0.25,57,129.29
1702,G#5,338.75,0.25,84,129.29
1703,G#6,338.75,0.25,84,129.29
1704,F2,339.0,0.25,67,129.29
1705,F5,339.0,0.75,88,129.29
1706,F6,339.0,0.75,88,129.29
1707,G#2,339.25,0.25,59,129.29
1708,C3,339.5,0.25,59,129.29
1709,F3,339.75,0.25,60,129.29
1710,F5,339.75,0.25,84,129.29
1711,F6,339.75,0.25,84,129.29
1712,F2,340.0,0.25,67,129.29
1713,C#5,340.0,0.75,88,129.29
1714,C#6,340.0,0.75,88,129.29
1715,G#2,340.25,0.25,58,129.29
1716,C#3,340.5,0.25,58,129.29
1717,F3,340.75,0.25,58,129.29
1718,C#5,340.75,0.25,84,129.29
1719,C#6,340.75,0.25,84,129.29
1720,F2,341.0,0.25,67,129.29
1721,G#4,341.0,0.75,84,129.29
1722,G#5,341.0,0.75,84,129.29
1723,G#2,341.25,0.25,60,129.29
1724,C#3,341.5,0.25,60,129.29
1725,F3,341.75,0.25,60,129.29
1726,G#4,341.75,0.25,79,129.29
1727,G#5,341.75,0.25,79,129.29
1728,F2,342.0,0.25,67,129.29
1729,A4,342.0,0.75,84,129.29
1730,A5,342.0,0.75,84,129.29
1731,C3,342.25,0.25,58,129.29
1732,E-3,342.5,0.25,58,129.29
1733,F3,342.75,0.25,58,129.29
1734,A4,342.75,0.25,79,129.29
1735,A5,342.75,0.25,79,129.29
1736,F2,343.0,0.25,67,129.29
1737,F4,343.0,0.75,84,129.29
1738,F5,343.0,0.75,84,129.29
1739,C3,343.25,0.25,57,129.29
1740,E-3,343.5,0.25,57,129.29
1741,F3,343.75,0.25,57,129.29
1742,F4,343.75,0.25,78,129.29
1743,F5,343.75,0.25,78,129.29
1744,F2,344.0,0.25,67,129.29
1745,B-4,344.0,1.75,83,129.29
1746,C#5,344.0,1.75,83,129.29
1747,F5,344.0,1.75,83,129.29
1748,B-5,344.0,1.75,83,129.29
1749,B-2,344.25,0.25,57,129.29
1750,C#3,344.5,0.25,57,129.29
1751,F3,344.75,0.25,57,129.29
1752,F2,345.0,0.25,67,129.29
1753,B-2,345.25,0.25,55,129.29
1754,C#3,345.5,0.25,55,129.29
1755,F3,345.75,0.25,54,129.29
1756,B-5,345.75,0.25,80,129.29
1757,B-6,345.75,0.25,80,129.29
1758,F2,346.0,0.25,63,129.29
1759,C#6,346.0,0.75,84,129.29
1760,C#7,346.0,0.75,84,129.29
1761,B-2,346.25,0.25,53,129.29
1762,C#3,346.5,0.25,54,129.29
1763,F3,346.75,0.25,54,129.29
1764,C#6,346.75,0.25,79,129.29
1765,C#7,346.75,0.25,79,129.29
1766,F2,347.0,0.25,63,129.29
1767,B-5,347.0,0.75,84,129.29
1768,B-6,347.0,0.75,84,129.29
1769,B-2,347.25,0.25,56,129.29
1770,C#3,347.5,0.25,56,129.29
1771,F3,347.75,0.25,57,129.29
1772,B-5,347.75,0.25,80,129.29
1773,B-6,347.75,0.25,80,129.29
1774,F#2,348.0,0.25,63,129.29
1775,F#5,348.0,0.75,84,129.29
1776,F#6,348.0,0.75,84,129.29
1777,B-2,348.25,0.25,55,129.29
1778,C#3,348.5,0.25,55,129.29
1779,F#3,348.75,0.25,55,129.29
1780,F#5,348.75,0.25,80,129.29
1781,F#6,348.75,0.25,80,129.29
1782,F#2,349.0,0.25,63,129.29
1783,F5,349.0,0.75,80,129.29
1784,F6,349.0,0.75,80,129.29
1785,B-2,349.25,0.25,57,129.29
1786,C#3,349.5,0.25,57,129.29
1787,F#3,349.75,0.25,57,129.29
1788,F5,349.75,0.25,74,129.29
1789,F6,349.75,0.25,74,129.29
1790,G2,350.0,0.25,63,129.29
1791,E5,350.0,0.75,80,129.29
1792,E6,350.0,0.75,80,129.29
1793,B-2,350.25,0.25,55,129.29
1794,C3,350.5,0.25,55,129.29
1795,G3,350.75,0.25,55,129.29
1796,E5,350.75,0.25,74,129.29
1797,E6,350.75,0.25,74,129.29
1798,G2,351.0,0.25,63,129.29
1799,C6,351.0,0.75,80,129.29
1800,C7,351.0,0.75,80,129.29
1801,B-2,351.25,0.25,54,129.29
1802,C3,351.5,0.25,54,129.29
1803,G3,351.75,0.25,54,129.29
1804,C6,351.75,0.25,73,129.29
1805,C7,351.75,0.25,73,129.29
1806,G#2,352.0,0.25,63,129.29
1807,F5,352.0,1.75,83,129.29
1808,G#5,352.0,1.75,83,129.29
1809,C6,352.0,1.75,83,129.29
1810,F6,352.0,1.75,83,129.29
1811,C3,352.25,0.25,54,129.29
1812,F3,352.5,0.25,54,129.29
1813,G#3,352.75,0.25,54,129.29
1814,G#2,353.0,0.25,63,129.29
1815,C3,353.25,0.25,54,129.29
1816,F3,353.5,0.25,54,129.29
1817,G#3,353.75,0.25,54,129.29
1818,F5,353.75,0.25,80,129.29
1819,F6,353.75,0.25,80,129.29
1820,G#2,354.0,0.25,63,129.29
1821,G#5,354.0,0.75,84,129.29
1822,G#6,354.0,0.75,84,129.29
1823,C3,354.25,0.25,53,129.29
1824,F3,354.5,0.25,54,129.29
1825,G#3,354.75,0.25,54,129.29
1826,G#5,354.75,0.25,79,129.29
1827,G#6,354.75,0.25,79,129.29
1828,G#2,355.0,0.25,63,129.29
1829,F5,355.0,0.75,84,129.29
1830,F6,355.0,0.75,84,129.29
1831,C3,355.25,0.25,56,129.29
1832,F3,355.5,0.25,56,129.29
1833,G#3,355.75,0.25,57,129.29
1834,F5,355.75,0.25,80,129.29
1835,F6,355.75,0.25,80,129.29
1836,G#2,356.0,0.25,63,129.29
1837,C#5,356.0,0.75,84,129.29
1838,C#6,356.0,0.75,84,129.29
1839,C#3,356.25,0.25,55,129.29
1840,F3,356.5,0.25,55,129.29
1841,G#3,356.75,0.25,55,129.29
1842,C#5,356.75,0.25,80,129.29
1843,C#6,356.75,0.25,80,129.29
1844,G#2,357.0,0.25,63,129.29
1845,G#4,357.0,0.75,80,129.29
1846,G#5,357.0,0.75,80,129.29
1847,C#3,357.25,0.25,57,129.29
1848,F3,357.5,0.25,57,129.29
1849,G#3,357.75,0.25,57,129.29
1850,G#4,357.75,0.25,74,129.29
1851,G#5,357.75,0.25,74,129.29
1852,G#2,358.0,0.25,63,129.29
1853,C5,358.0,0.75,80,129.29
1854,C6,358.0,0.75,80,129.29
1855,E-3,358.25,0.25,55,129.29
1856,F#3,358.5,0.25,55,129.29
1857,G#3,358.75,0.25,55,129.29
1858,C5,358.75,0.25,74,129.29
1859,C6,358.75,0.25,74,129.29
1860,G#2,359.0,0.25,63,129.29
1861,G#4,359.0,0.75,80,129.29
1862,G#5,359.0,0.75,80,129.29
1863,E-3,359.25,0.25,54,129.29
1864,F#3,359.5,0.25,54,129.29
1865,G#3,359.75,0.25,54,129.29
1866,G#4,359.75,0.25,73,129.29
1867,G#5,359.75,0.25,73,129.29
1868,G#2,360.0,0.25,67,129.29
1869,C#5,360.0,1.75,83,129.29
1870,F5,360.0,1.75,83,129.29
1871,G#5,360.0,1.75,83,129.29
1872,C#6,360.0,1.75,83,129.29
1873,C#3,360.25,0.25,57,129.29
1874,F3,360.5,0.25,57,129.29
1875,G#3,360.75,0.25,57,129.29
1876,G#2,361.0,0.25,67,129.29
1877,C#3,361.25,0.25,55,129.29
1878,F3,361.5,0.25,55,129.29
1879,G#3,361.75,0.25,51,129.29
1880,C#5,361.75,0.25,75,129.29
1881,C#6,361.75,0.25,75,129.29
1882,A2,362.0,0.25,59,129.29
1883,F5,362.0,0.75,80,129.29
1884,F6,362.0,0.75,80,129.29
1885,C#3,362.25,0.25,50,129.29
1886,F3,362.5,0.25,51,129.29
1887,A3,362.75,0.25,51,129.29
1888,F5,362.75,0.25,74,129.29
1889,F6,362.75,0.25,74,129.29
1890,B-2,363.0,0.25,59,129.29
1891,C#5,363.0,0.75,80,129.29
1892,C#6,363.0,0.75,80,129.29
1893,C#3,363.25,0.25,53,129.29
1894,F3,363.5,0.25,53,129.29
1895,B-3,363.75,0.25,54,129.29
1896,C#5,363.75,0.25,75,129.29
1897,C#6,363.75,0.25,75,129.29
1898,C3,364.0,0.25,59,129.29
1899,C5,364.0,0.75,80,129.29
1900,C6,364.0,0.75,80,129.29
1901,F3,364.25,0.25,52,129.29
1902,G#3,364.5,0.25,52,129.29
1903,C4,364.75,0.25,52,129.29
1904,C5,364.75,0.25,75,129.29
1905,C6,364.75,0.25,75,129.29
1906,C#3,365.0,0.25,59,129.29
1907,B-4,365.0,0.75,74,129.29
1908,B-5,365.0,0.75,74,129.29
1909,F3,365.25,0.25,54,129.29
1910,G#3,365.5,0.25,54,129.29
1911,C#4,365.75,0.25,54,129.29
1912,B-4,365.75,0.25,70,129.29
1913,B-5,365.75,0.25,70,129.29
1914,C3,366.0,0.25,59,129.29
1915,C5,366.0,0.75,74,129.29
1916,C6,366.0,0.75,74,129.29
1917,F3,366.25,0.25,52,129.29
1918,G#3,366.5,0.25,52,129.29
1919,C4,366.75,0.25,52,129.29
1920,C5,366.75,0.25,70,129.29
1921,C6,366.75,0.25,70,129.29
1922,C3,367.0,0.25,59,129.29
1923,C5,367.0,0.75,74,129.29
1924,C6,367.0,0.75,74,129.29
1925,F3,367.25,0.25,51,129.29
1926,G#3,367.5,0.25,51,129.29
1927,C4,367.75,0.25,51,129.29
1928,C5,367.75,0.25,69,129.29
1929,C6,367.75,0.25,69,129.29
1930,C3,368.0,0.25,56,129.29
1931,C5,368.0,0.75,71,129.29
1932,C6,368.0,0.75,71,129.29
1933,F3,368.25,0.25,49,129.29
1934,G3,368.5,0.25,48,129.29
1935,C4,368.75,0.25,47,129.29
1936,C5,368.75,0.25,62,129.29
1937,C6,368.75,0.25,62,129.29
1938,C3,369.0,0.25,51,129.29
1939,C5,369.0,0.75,66,129.29
1940,C6,369.0,0.75,66,129.29
1941,E3,369.25,0.25,44,129.29
1942,G3,369.5,0.25,43,129.29
1943,C4,369.75,0.25,42,129.29
1944,C5,369.75,0.25,56,129.29
1945,C6,369.75,0.25,56,129.29
1946,F5,370.0,1.0,58,129.29
1947,F2,370.0,333/1000,42,129.29
1948,A3,370.333,333/1000,42,129.29
1949,C4,370.667,333/1000,34,129.29
1950,F3,371.0,333/1000,34,129.29
1951,A3,371.333,333/1000,30,129.29
1952,C4,371.667,333/1000,30,129.29
1953,F5,371.75,0.25,43,129.29
1954,A5,372.0,0.75,48,129.29
1955,F3,372.0,333/1000,34,129.29
1956,A3,372.333,333/1000,29,129.29
1957,C4,372.667,333/1000,29,129.29
1958,A5,372.75,0.25,43,129.29
1959,F5,373.0,0.75,48,129.29
1960,F3,373.0,333/1000,34,129.29
1961,A3,373.333,333/1000,30,129.29
1962,C4,373.667,333/1000,30,129.29
1963,F5,373.75,0.25,42,129.29
1964,C5,374.0,0.75,48,129.29
1965,F3,374.0,333/1000,34,129.29
1966,A3,374.333,333/1000,30,129.29
1967,C4,374.667,333/1000,30,129.29
1968,C5,374.75,0.25,43,129.29
1969,A4,375.0,0.75,48,129.29
1970,E-3,375.0,333/1000,34,129.29
1971,A3,375.333,333/1000,30,129.29
1972,C4,375.667,333/1000,30,129.29
1973,A4,375.75,0.25,43,129.29
1974,B-4,376.0,0.75,48,129.29
1975,D3,376.0,333/1000,34,129.29
1976,B-3,376.333,333/1000,29,129.29
1977,C4,376.667,333/1000,29,129.29
1978,B-4,376.75,0.25,42,129.29
1979,G4,377.0,0.75,48,129.29
1980,E3,377.0,333/1000,34,129.29
1981,B-3,377.333,333/1000,30,129.29
1982,C4,377.667,333/1000,30,129.29
1983,G4,377.75,0.25,42,129.29
1984,C5,378.0,0.75,48,129.29
1985,F3,378.0,333/1000,34,129.29
1986,A3,378.333,333/1000,31,129.29
1987,C4,378.667,333/1000,31,129.29
1988,F5,378.75,0.25,36,129.29
1989,C5,379.0,0.5,45,129.29
1990,F3,379.0,333/1000,34,129.29
1991,A3,379.333,333/1000,30,129.29
1992,C4,379.667,333/1000,30,129.29
1993,F5,379.75,0.25,43,129.29
1994,A5,380.0,0.75,48,129.29
1995,F3,380.0,333/1000,34,129.29
1996,A3,380.333,333/1000,29,129.29
1997,C4,380.667,333/1000,29,129.29
1998,A5,380.75,0.25,45,129.29
1999,C6,381.0,0.75,52,129.29
2000,E3,381.0,333/1000,34,129.29
2001,G3,381.333,333/1000,30,129.29
2002,C4,381.667,333/1000,30,129.29
2003,C6,381.75,0.25,48,129.29
2004,F6,382.0,0.75,52,129.29
2005,D3,382.0,333/1000,34,129.29
2006,F3,382.333,333/1000,30,129.29
2007,A3,382.667,333/1000,30,129.29
2008,F6,382.75,0.25,50,129.29
2009,G6,383.0,0.75,56,129.29
2010,D3,383.0,333/1000,34,129.29
2011,F3,383.333,333/1000,30,129.29
2012,B3,383.667,333/1000,30,129.29
2013,G6,383.75,0.25,49,129.29
2014,A6,384.0,0.75,55,129.29
2015,C3,384.0,333/1000,34,129.29
2016,F3,384.333,333/1000,29,129.29
2017,C4,384.667,333/1000,29,129.29
2018,A6,384.75,0.25,48,129.29
2019,C7,385.0,0.75,54,129.29
2020,C3,385.0,333/1000,34,129.29
2021,E3,385.333,333/1000,30,129.29
2022,C4,385.667,333/1000,30,129.29
2023,C7,385.75,0.25,47,129.29
2024,A6,386.0,0.5,53,129.29
2025,F2,386.0,333/1000,34,129.29
2026,A3,386.333,333/1000,31,129.29
2027,C4,386.667,333/1000,31,129.29
2028,F3,387.0,333/1000,34,129.29
2029,A3,387.333,333/1000,30,129.29
2030,C4,387.667,333/1000,30,129.29
2031,F5,387.75,0.25,43,129.29
2032,A5,388.0,0.75,48,129.29
2033,F3,388.0,333/1000,34,129.29
2034,A3,388.333,333/1000,29,129.29
2035,C4,388.667,333/1000,29,129.29
2036,A5,388.75,0.25,43,129.29
2037,F5,389.0,0.75,48,129.29
2038,F3,389.0,333/1000,34,129.29
2039,A3,389.333,333/1000,30,129.29
2040,C4,389.667,333/1000,30,129.29
2041,F5,389.75,0.25,42,129.29
2042,C5,390.0,0.75,48,129.29
2043,F3,390.0,333/1000,34,129.29
2044,A3,390.333,333/1000,30,129.29
2045,C4,390.667,333/1000,30,129.29
2046,C5,390.75,0.25,43,129.29
2047,A4,391.0,0.75,48,129.29
2048,E-3,391.0,333/1000,34,129.29
2049,A3,391.333,333/1000,30,129.29
2050,C4,391.667,333/1000,30,129.29
2051,A4,391.75,0.25,43,129.29
2052,C5,392.0,0.75,48,129.29
2053,D3,392.0,333/1000,34,129.29
2054,B-3,392.333,333/1000,29,129.29
2055,C4,392.667,333/1000,29,129.29
2056,C5,392.75,0.25,42,129.29
2057,B-4,393.0,0.75,48,129.29
2058,E3,393.0,333/1000,34,129.29
2059,B-3,393.333,333/1000,30,129.29
2060,C4,393.667,333/1000,30,129.29
2061,B-4,393.75,0.25,42,129.29
2062,A4,394.0,0.75,48,129.29
2063,F3,394.0,333/1000,34,129.29
2064,A3,394.333,333/1000,31,129.29
2065,C4,394.667,333/1000,31,129.29
2066,F5,394.75,0.25,36,129.29
2067,C5,395.0,0.5,45,129.29
2068,F3,395.0,333/1000,34,129.29
2069,A3,395.333,333/1000,30,129.29
2070,C4,395.667,333/1000,30,129.29
2071,F5,395.75,0.25,43,129.29
2072,A5,396.0,0.75,48,129.29
2073,F3,396.0,333/1000,34,129.29
2074,A3,396.333,333/1000,29,129.29
2075,C4,396.667,333/1000,29,129.29
2076,A5,396.75,0.25,45,129.29
2077,C6,397.0,0.75,52,129.29
2078,E3,397.0,333/1000,34,129.29
2079,G3,397.333,333/1000,30,129.29
2080,C4,397.667,333/1000,30,129.29
2081,C6,397.75,0.25,48,129.29
2082,F6,398.0,0.75,52,129.29
2083,D3,398.0,333/1000,34,129.29
2084,F3,398.333,333/1000,30,129.29
2085,A3,398.667,333/1000,30,129.29
2086,F6,398.75,0.25,50,129.29
2087,G6,399.0,0.75,56,129.29
2088,D3,399.0,333/1000,34,129.29
2089,F3,399.333,333/1000,30,129.29
2090,B3,399.667,333/1000,30,129.29
2091,G6,399.75,0.25,49,129.29
2092,A6,400.0,0.75,55,129.29
2093,C3,400.0,333/1000,34,129.29
2094,F3,400.333,333/1000,29,129.29
2095,C4,400.667,333/1000,29,129.29
2096,A6,400.75,0.25,48,129.29
2097,C7,401.0,0.75,54,129.29
2098,C3,401.0,333/1000,34,129.29
2099,E3,401.333,333/1000,30,129.29
2100,C4,401.667,333/1000,30,129.29
2101,C7,401.75,0.25,47,129.29
2102,F7,402.0,0.5,53,129.29
2103,F2,402.0,333/1000,34,129.29
2104,A3,402.333,333/1000,31,129.29
2105,C4,402.667,333/1000,31,129.29
2106,F3,403.0,333/1000,34,129.29
2107,A3,403.333,333/1000,30,129.29
2108,C4,403.667,333/1000,30,129.29
2109,E6,403.75,0.25,43,129.29
2110,F6,404.0,0.75,48,129.29
2111,F3,404.0,333/1000,34,129.29
2112,A3,404.333,333/1000,29,129.29
2113,C4,404.667,333/1000,29,129.29
2114,F6,404.75,0.25,45,129.29
2115,E-6,405.0,0.75,52,129.29
2116,F#3,405.0,333/1000,34,129.29
2117,A3,405.333,333/1000,30,129.29
2118,C4,405.667,333/1000,30,129.29
2119,E-6,405.75,0.25,48,129.29
2120,C6,406.0,0.75,52,129.29
2121,F3,406.0,333/1000,34,129.29
2122,A3,406.333,333/1000,30,129.29
2123,C4,406.667,333/1000,30,129.29
2124,C6,406.75,0.25,50,129.29
2125,A5,407.0,0.75,56,129.29
2126,F#3,407.0,333/1000,34,129.29
2127,A3,407.333,333/1000,30,129.29
2128,C4,407.667,333/1000,30,129.29
2129,A5,407.75,0.25,49,129.29
2130,C6,408.0,0.75,55,129.29
2131,F3,408.0,333/1000,34,129.29
2132,A3,408.333,333/1000,29,129.29
2133,C4,408.667,333/1000,29,129.29
2134,C6,408.75,0.25,48,129.29
2135,C#6,409.0,0.75,54,129.29
2136,E-3,409.0,333/1000,34,129.29
2137,G3,409.333,333/1000,30,129.29
2138,C#4,409.667,333/1000,30,129.29
2139,C#6,409.75,0.25,47,129.29
2140,D6,410.0,0.75,55,129.29
2141,D3,410.0,333/1000,34,129.29
2142,F#3,410.333,333/1000,28,129.29
2143,D4,410.667,333/1000,28,129.29
2144,D6,410.75,0.25,47,129.29
2145,D6,411.0,0.75,52,129.29
2146,D3,411.0,333/1000,33,129.29
2147,G3,411.333,333/1000,28,129.29
2148,B-3,411.667,333/1000,28,129.29
2149,D6,411.75,0.25,44,129.29
2150,D6,412.0,0.75,51,129.29
2151,D3,412.0,333/1000,31,129.29
2152,F#3,412.333,333/1000,26,129.29
2153,A3,412.667,333/1000,26,129.29
2154,D6,412.75,0.25,43,129.29
2155,D6,413.0,0.75,48,129.29
2156,D3,413.0,333/1000,30,129.29
2157,G3,413.333,333/1000,26,129.29
2158,B-3,413.667,333/1000,26,129.29
2159,D6,413.75,0.25,40,129.29
2160,D6,414.0,0.5,47,129.29
2161,D3,414.0,333/1000,29,129.29
2162,F#3,414.333,333/1000,27,129.29
2163,A3,414.667,333/1000,28,129.29
2164,D3,415.0,333/1000,34,129.29
2165,G3,415.333,333/1000,30,129.29
2166,B-3,415.667,333/1000,30,129.29
2167,D5,415.75,0.188,48,129.29
2168,E-5,416.0,0.5,53,129.29
2169,D3,416.0,333/1000,34,129.29
2170,F#3,416.333,333/1000,31,129.29
2171,D5,416.5,0.5,49,129.29
2172,A3,416.667,333/1000,31,129.29
2173,D5,417.0,0.25,51,129.29
2174,C3,417.0,333/1000,34,129.29
2175,F#3,417.333,333/1000,31,129.29
2176,D5,417.5,0.25,49,129.29
2177,A3,417.667,333/1000,31,129.29
2178,D5,418.0,0.5,47,129.29
2179,B-2,418.0,167/1000,34,129.29
2180,F3,418.0,167/1000,34,129.29
2181,B-3,418.0,167/1000,34,129.29
2182,D4,418.333,333/1000,30,129.29
2183,F4,418.667,333/1000,30,129.29
2184,B-3,419.0,333/1000,34,129.29
2185,D4,419.333,333/1000,30,129.29
2186,F4,419.667,333/1000,30,129.29
2187,A6,419.75,0.25,43,129.29
2188,B-6,420.0,0.75,48,129.29
2189,B-3,420.0,333/1000,34,129.29
2190,D4,420.333,333/1000,29,129.29
2191,F4,420.667,333/1000,29,129.29
2192,B-6,420.75,0.25,45,129.29
2193,G#6,421.0,0.75,52,129.29
2194,B3,421.0,333/1000,34,129.29
2195,D4,421.333,333/1000,30,129.29
2196,F4,421.667,333/1000,30,129.29
2197,G#6,421.75,0.25,48,129.29
2198,F6,422.0,0.75,52,129.29
2199,B-3,422.0,333/1000,34,129.29
2200,D4,422.333,333/1000,30,129.29
2201,F4,422.667,333/1000,30,129.29
2202,F6,422.75,0.25,48,129.29
2203,D6,423.0,0.75,54,129.29
2204,B3,423.0,333/1000,34,129.29
2205,D4,423.333,333/1000,30,129.29
2206,F4,423.667,333/1000,30,129.29
2207,D6,423.75,0.25,49,129.29
2208,F6,424.0,0.75,54,129.29
2209,B-3,424.0,333/1000,34,129.29
2210,D4,424.333,333/1000,29,129.29
2211,F4,424.667,333/1000,29,129.29
2212,F6,424.75,0.25,48,129.29
2213,F#6,425.0,0.75,54,129.29
2214,G#3,425.0,333/1000,34,129.29
2215,C4,425.333,333/1000,30,129.29
2216,F#4,425.667,333/1000,30,129.29
2217,F#6,425.75,0.25,47,129.29
2218,G6,426.0,0.75,55,129.29
2219,G3,426.0,333/1000,34,129.29
2220,B3,426.333,333/1000,28,129.29
2221,G4,426.667,333/1000,28,129.29
2222,G6,426.75,0.25,47,129.29
2223,G6,427.0,0.75,52,129.29
2224,G3,427.0,333/1000,33,129.29
2225,C4,427.333,333/1000,28,129.29
2226,E-4,427.667,333/1000,28,129.29
2227,G6,427.75,0.25,44,129.29
2228,G6,428.0,0.75,51,129.29
2229,G3,428.0,333/1000,31,129.29
2230,B3,428.333,333/1000,26,129.29
2231,D4,428.667,333/1000,26,129.29
2232,G6,428.75,0.25,43,129.29
2233,G6,429.0,0.75,48,129.29
2234,G3,429.0,333/1000,30,129.29
2235,C4,429.333,333/1000,26,129.29
2236,E-4,429.667,333/1000,26,129.29
2237,G6,429.75,0.25,40,129.29
2238,G6,430.0,0.5,47,129.29
2239,G3,430.0,333/1000,29,129.29
2240,B3,430.333,333/1000,27,129.29
2241,D4,430.667,333/1000,28,129.29
2242,G3,431.0,333/1000,34,129.29
2243,C4,431.333,333/1000,30,129.29
2244,E-4,431.667,333/1000,30,129.29
2245,G5,431.75,0.188,48,129.29
2246,G#5,432.0,0.5,53,129.29
2247,G3,432.0,333/1000,34,129.29
2248,B3,432.333,333/1000,31,129.29
2249,G5,432.5,0.25,49,129.29
2250,D4,432.667,333/1000,31,129.29
2251,G5,433.0,0.25,51,129.29
2252,G3,433.0,333/1000,34,129.29
2253,C4,433.333,333/1000,31,129.29
2254,G5,433.5,0.25,49,129.29
2255,E-4,433.667,333/1000,31,129.29
2256,G5,434.0,0.5,47,129.29
2257,G3,434.0,333/1000,34,129.29
2258,B3,434.333,333/1000,30,129.29
2259,D4,434.667,333/1000,30,129.29
2260,G3,435.0,333/1000,34,129.29
2261,C4,435.333,333/1000,30,129.29
2262,E-4,435.667,333/1000,30,129.29
2263,B-6,435.75,0.188,48,129.29
2264,G#6,436.0,0.5,53,129.29
2265,G3,436.0,333/1000,34,129.29
2266,B3,436.333,333/1000,31,129.29
2267,G6,436.5,0.25,49,129.29
2268,D4,436.667,333/1000,31,129.29
2269,G6,437.0,0.25,51,129.29
2270,G3,437.0,333/1000,34,129.29
2271,C4,437.333,333/1000,31,129.29
2272,G6,437.5,0.25,49,129.29
2273,E-4,437.667,333/1000,31,129.29
2274,G6,438.0,0.5,47,129.29
2275,G3,438.0,333/1000,34,129.29
2276,B3,438.333,333/1000,30,129.29
2277,D4,438.667,333/1000,30,129.29
2278,G3,439.0,333/1000,34,129.29
2279,C4,439.333,333/1000,30,129.29
2280,E-4,439.667,333/1000,30,129.29
2281,G4,439.75,0.188,48,129.29
2282,G#4,440.0,0.5,53,129.29
2283,G3,440.0,333/1000,34,129.29
2284,B3,440.333,333/1000,31,129.29
2285,G4,440.5,0.25,49,129.29
2286,D4,440.667,333/1000,31,129.29
2287,G4,441.0,0.25,51,129.29
2288,G3,441.0,333/1000,34,129.29
2289,C4,441.333,333/1000,31,129.29
2290,G4,441.5,0.25,49,129.29
2291,E-4,441.667,333/1000,31,129.29
2292,G4,442.0,0.5,47,129.29
2293,G3,442.0,333/1000,34,129.29
2294,B3,442.333,333/1000,30,129.29
2295,D4,442.667,333/1000,30,129.29
2296,G3,443.0,333/1000,34,129.29
2297,C4,443.333,333/1000,30,129.29
2298,E-4,443.667,333/1000,30,129.29
2299,B-5,443.75,0.188,48,129.29
2300,G#5,444.0,0.5,53,129.29
2301,G3,444.0,333/1000,34,129.29
2302,B3,444.333,333/1000,31,129.29
2303,G5,444.5,0.25,49,129.29
2304,D4,444.667,333/1000,31,129.29
2305,G5,445.0,0.25,51,129.29
2306,G3,445.0,333/1000,34,129.29
2307,C4,445.333,333/1000,31,129.29
2308,G5,445.5,0.25,49,129.29
2309,E-4,445.667,333/1000,31,129.29
2310,G#5,446.0,0.5,53,129.29
2311,G3,446.0,333/1000,34,129.29
2312,B3,446.333,333/1000,31,129.29
2313,G5,446.5,0.25,49,129.29
2314,D4,446.667,333/1000,31,129.29
2315,G5,447.0,0.25,51,129.29
2316,G3,447.0,333/1000,34,129.29
2317,C4,447.333,333/1000,31,129.29
2318,G5,447.5,0.25,49,129.29
2319,E-4,447.667,333/1000,31,129.29
2320,G5,448.0,0.5,53,129.29
2321,D4,448.0,0.5,34,129.29
2322,B3,448.0,0.5,34,129.29
2323,G3,448.0,0.5,34,129.29
2324,G4,449.0,1.0,86,129.29
2325,G3,449.0,1.0,86,129.29
2326,G4,450.0,2.0,86,129.29
2327,G3,450.0,2.0,86,129.29
2328,D5,451.75,0.188,52,129.29
2329,C5,452.0,0.5,63,129.29
2330,G3,452.0,0.5,42,129.29
2331,B4,452.5,0.25,37,129.29
2332,G4,452.5,0.25,31,129.29
2333,B4,453.0,0.25,43,129.29
2334,F4,453.0,0.25,28,129.29
2335,D4,453.0,0.25,28,129.29
2336,B4,453.5,0.25,37,129.29
2337,G4,453.5,0.25,32,129.29
2338,B4,454.0,0.5,55,129.29
2339,G3,454.0,0.5,44,129.29
2340,C5,454.5,0.25,40,129.29
2341,G4,454.5,0.25,28,129.29
2342,C4,455.0,0.25,32,129.29
2343,E-4,455.0,0.25,32,129.29
2344,G4,455.5,0.25,32,129.29
2345,E-5,455.75,0.188,51,129.29
2346,C5,456.0,0.5,63,129.29
2347,G3,456.0,0.5,42,129.29
2348,B4,456.5,0.25,37,129.29
2349,G4,456.5,0.25,31,129.29
2350,B4,457.0,0.25,44,129.29
2351,F4,457.0,0.25,28,129.29
2352,D4,457.0,0.25,28,129.29
2353,B4,457.5,0.25,37,129.29
2354,G4,457.5,0.25,29,129.29
2355,B4,458.0,0.5,57,129.29
2356,G3,458.0,0.5,44,129.29
2357,C5,458.5,0.25,47,129.29
2358,G4,458.5,0.25,32,129.29
2359,F#3,459.0,0.25,31,129.29
2360,C4,459.0,0.25,31,129.29
2361,E-4,459.0,0.25,31,129.29
2362,F#4,459.5,0.25,35,129.29
2363,E-5,459.75,0.188,54,129.29
2364,C5,460.0,0.5,63,129.29
2365,F3,460.0,0.5,42,129.29
2366,B-4,460.5,0.25,52,129.29
2367,F4,460.5,0.25,35,129.29
2368,B-4,461.0,0.25,54,129.29
2369,D4,461.0,0.25,35,129.29
2370,B-4,461.5,0.25,54,129.29
2371,F4,461.5,0.25,36,129.29
2372,C5,462.0,0.5,63,129.29
2373,G3,462.0,0.5,42,129.29
2374,B-4,462.5,0.25,53,129.29
2375,E4,462.5,0.25,36,129.29
2376,B-4,463.0,0.25,55,129.29
2377,C4,463.0,0.25,36,129.29
2378,B-4,463.5,0.25,55,129.29
2379,E4,463.5,0.25,36,129.29
2380,C5,464.0,0.25,63,129.29
2381,D4,464.0,0.5,38,129.29
2382,F3,464.0,0.5,38,129.29
2383,B-4,464.25,0.25,52,129.29
2384,A4,464.5,0.25,53,129.29
2385,F4,464.5,0.5,33,129.29
2386,B-4,464.75,0.25,53,129.29
2387,C5,465.0,0.25,58,129.29
2388,E-4,465.0,0.25,32,129.29
2389,F3,465.0,0.25,32,129.29
2390,D5,465.5,0.25,54,129.29
2391,F4,465.5,0.25,34,129.29
2392,B-4,466.0,0.5,58,129.29
2393,D4,466.0,0.5,42,129.29
2394,B-3,466.0,0.5,42,129.29
2395,G4,467.0,1.0,86,129.29
2396,G3,467.0,1.0,86,129.29
2397,G4,468.0,2.0,86,129.29
2398,G3,468.0,2.0,86,129.29
2399,D6,469.75,0.188,52,129.29
2400,C6,470.0,0.5,64,129.29
2401,G3,470.0,0.5,42,129.29
2402,B5,470.5,0.25,37,129.29
2403,G4,470.5,0.25,31,129.29
2404,B5,471.0,0.25,43,129.29
2405,F4,471.0,0.25,28,129.29
2406,D4,471.0,0.25,28,129.29
2407,B5,471.5,0.25,37,129.29
2408,G4,471.5,0.25,32,129.29
2409,B5,472.0,0.5,55,129.29
2410,G3,472.0,0.5,44,129.29
2411,C6,472.5,0.25,42,129.29
2412,G4,472.5,0.25,31,129.29
2413,C4,473.0,0.25,32,129.29
2414,E-4,473.0,0.25,32,129.29
2415,G4,473.5,0.25,32,129.29
2416,E-6,473.75,0.188,51,129.29
2417,C6,474.0,0.5,64,129.29
2418,G3,474.0,0.5,42,129.29
2419,B5,474.5,0.25,37,129.29
2420,G4,474.5,0.25,31,129.29
2421,B5,475.0,0.25,44,129.29
2422,F4,475.0,0.25,28,129.29
2423,D4,475.0,0.25,28,129.29
2424,B5,475.5,0.25,37,129.29
2425,G4,475.5,0.25,29,129.29
2426,B5,476.0,0.5,57,129.29
2427,G3,476.0,0.5,44,129.29
2428,C6,476.5,0.25,47,129.29
2429,G4,476.5,0.25,32,129.29
2430,F#3,477.0,0.25,31,129.29
2431,C4,477.0,0.25,31,129.29
2432,E-4,477.0,0.25,31,129.29
2433,F#4,477.5,0.25,35,129.29
2434,E-6,477.75,0.188,54,129.29
2435,C6,478.0,0.5,64,129.29
2436,F3,478.0,0.5,42,129.29
2437,B-5,478.5,0.25,52,129.29
2438,F4,478.5,0.25,35,129.29
2439,B-5,479.0,0.25,54,129.29
2440,D4,479.0,0.25,35,129.29
2441,B-5,479.5,0.25,54,129.29
2442,F4,479.5,0.25,36,129.29
2443,C6,480.0,0.5,64,129.29
2444,G3,480.0,0.5,42,129.29
2445,B-5,480.5,0.25,53,129.29
2446,E4,480.5,0.25,36,129.29
2447,B-5,481.0,0.25,55,129.29
2448,C4,481.0,0.25,36,129.29
2449,B-5,481.5,0.25,55,129.29
2450,E4,481.5,0.25,36,129.29
2451,C6,482.0,0.25,64,129.29
2452,D4,482.0,0.5,38,129.29
2453,F3,482.0,0.5,38,129.29
2454,B-5,482.25,0.25,52,129.29
2455,A5,482.5,0.25,53,129.29
2456,F4,482.5,0.5,33,129.29
2457,B-5,482.75,0.25,53,129.29
2458,C6,483.0,0.25,58,129.29
2459,E-4,483.0,0.25,32,129.29
2460,F3,483.0,0.25,32,129.29
2461,D6,483.5,0.25,54,129.29
2462,F4,483.5,0.25,34,129.29
2463,B-5,484.0,0.5,58,129.29
2464,D4,484.0,0.25,42,129.29
2465,B-3,484.0,0.25,42,129.29
2466,A3,484.5,0.25,38,129.29
2467,G3,485.0,0.25,37,129.29
2468,D5,485.5,0.25,57,129.29
2469,F3,485.5,0.25,36,129.29
2470,G5,486.0,1.0,60,129.29
2471,E-3,486.0,0.25,42,129.29
2472,B-3,486.5,0.25,36,129.29
2473,G3,486.5,0.25,36,129.29
2474,E-5,487.0,1.0,60,129.29
2475,C3,487.0,0.25,36,129.29
2476,C4,487.5,0.25,36,129.29
2477,G3,487.5,0.25,36,129.29
2478,C5,488.0,1.0,60,129.29
2479,F3,488.0,0.25,42,129.29
2480,A3,488.5,0.25,35,129.29
2481,C4,488.5,0.25,35,129.29
2482,D5,489.0,0.25,60,129.29
2483,E-3,489.0,0.25,36,129.29
2484,E-5,489.5,0.25,58,129.29
2485,C4,489.5,0.25,36,129.29
2486,A3,489.5,0.25,36,129.29
2487,F5,490.0,0.25,57,129.29
2488,D3,490.0,0.5,39,129.29
2489,G5,490.25,0.25,53,129.29
2490,F5,490.5,0.25,53,129.29
2491,B-3,490.5,0.5,32,129.29
2492,F3,490.5,0.5,32,129.29
2493,E-5,490.75,0.25,53,129.29
2494,D5,491.0,0.25,59,129.29
2495,B-2,491.0,0.5,34,129.29
2496,E-5,491.25,0.25,52,129.29
2497,D5,491.5,0.25,52,129.29
2498,B-3,491.5,0.5,32,129.29
2499,F3,491.5,0.5,32,129.29
2500,C5,491.75,0.25,53,129.29
2501,B-4,492.0,1.5,60,129.29
2502,E-3,492.0,0.5,40,129.29
2503,B-3,492.5,0.5,32,129.29
2504,G3,492.5,0.5,32,129.29
2505,D3,493.0,0.5,34,129.29
2506,B-4,493.5,0.25,57,129.29
2507,B-3,493.5,0.5,32,129.29
2508,G3,493.5,0.5,32,129.29
2509,E-5,494.0,1.0,60,129.29
2510,C3,494.0,0.5,42,129.29
2511,C4,494.5,0.5,33,129.29
2512,G3,494.5,0.5,33,129.29
2513,C5,495.0,1.0,60,129.29
2514,A2,495.0,0.5,36,129.29
2515,A3,495.5,0.5,33,129.29
2516,E-3,495.5,0.5,33,129.29
2517,A4,496.0,1.0,60,129.29
2518,D3,496.0,0.5,42,129.29
2519,F#3,496.5,0.5,32,129.29
2520,A3,496.5,0.5,32,129.29
2521,F#2,497.0,0.375,42,129.29
2522,D4,497.0,0.25,60,129.29
2523,D5,497.0,0.25,60,129.29
2524,C4,497.5,0.25,54,129.29
2525,C5,497.5,0.25,54,129.29
2526,D3,497.5,0.375,33,129.29
2527,F#3,497.5,0.375,33,129.29
2528,G2,498.0,0.25,47,129.29
2529,C4,498.0,0.5,60,129.29
2530,C5,498.0,0.5,60,129.29
2531,G3,498.5,0.25,39,129.29
2532,B-3,498.5,0.25,56,129.29
2533,B-4,498.5,0.25,56,129.29
2534,E-2,499.0,0.25,49,129.29
2535,A3,499.0,0.25,62,129.29
2536,A4,499.0,0.25,62,129.29
2537,E-3,499.5,0.25,44,129.29
2538,G3,499.5,0.25,56,129.29
2539,G4,499.5,0.25,56,129.29
2540,C2,500.0,0.25,51,129.29
2541,B-3,500.0,0.5,67,129.29
2542,B-4,500.0,0.5,67,129.29
2543,C3,500.5,0.25,46,129.29
2544,A4,500.5,0.25,60,129.29
2545,A3,500.5,0.25,60,129.29
2546,D2,501.0,0.25,54,129.29
2547,G3,501.0,0.25,65,129.29
2548,G4,501.0,0.25,65,129.29
2549,D3,501.5,0.25,45,129.29
2550,F#3,501.5,0.25,60,129.29
2551,F#4,501.5,0.25,60,129.29
2552,G3,502.0,0.5,66,129.29
2553,G4,502.0,0.5,66,129.29
2554,E-2,502.0,0.5,48,129.29
2555,E-3,502.0,0.5,48,129.29
2556,D4,503.0,1.0,75,129.29
2557,D5,503.0,1.0,75,129.29
2558,F#2,503.0,1.0,54,129.29
2559,D3,503.0,1.0,54,129.29
2560,F#3,503.0,1.0,54,129.29
2561,D4,504.0,0.5,75,129.29
2562,D5,504.0,0.5,75,129.29
2563,F#2,504.0,2.0,54,129.29
2564,D3,504.0,2.0,54,129.29
2565,F#3,504.0,2.0,54,129.29
2566,E-4,504.5,0.25,58,129.29
2567,E-5,504.5,0.25,58,129.29
2568,D4,505.0,0.25,62,129.29
2569,D5,505.0,0.25,62,129.29
2570,C4,505.5,0.25,58,129.29
2571,C5,505.5,0.25,58,129.29
2572,G2,506.0,0.5,50,129.29
2573,C4,506.0,0.5,64,129.29
2574,C5,506.0,0.5,64,129.29
2575,G3,506.5,0.5,45,129.29
2576,B-3,506.5,0.25,58,129.29
2577,B-4,506.5,0.25,58,129.29
2578,E-2,507.0,0.5,45,129.29
2579,A3,507.0,0.25,64,129.29
2580,A4,507.0,0.25,64,129.29
2581,E-3,507.5,0.5,45,129.29
2582,G3,507.5,0.25,58,129.29
2583,G4,507.5,0.25,58,129.29
2584,C2,508.0,0.5,56,129.29
2585,G#3,508.0,1.0,66,129.29
2586,G#4,508.0,1.0,66,129.29
2587,C3,508.5,0.5,49,129.29
2588,D2,509.0,0.5,49,129.29
2589,F#3,509.0,1.0,60,129.29
2590,F#4,509.0,1.0,60,129.29
2591,D3,509.5,0.5,49,129.29
2592,G1,510.0,0.5,52,129.29
2593,G3,510.0,0.5,65,129.29
2594,G4,510.0,0.5,65,129.29
2595,G2,510.5,0.5,55,129.29
2596,D3,511.0,1.0,60,129.29
2597,D4,511.0,1.0,60,129.29
2598,B-4,511.5,0.25,70,129.29
2599,B-5,511.5,0.25,70,129.29
2600,A4,512.0,0.5,78,129.29
2601,A5,512.0,0.5,78,129.29
2602,E-3,512.0,1.0,60,129.29
2603,E-4,512.0,1.0,60,129.29
2604,G4,512.5,0.25,60,129.29
2605,G5,512.5,0.25,60,129.29
2606,G4,513.0,0.25,65,129.29
2607,G5,513.0,0.25,65,129.29
2608,C#3,513.0,1.0,52,129.29
2609,C#4,513.0,1.0,52,129.29
2610,G4,513.5,0.25,58,129.29
2611,G5,513.5,0.25,58,129.29
2612,G4,514.0,0.5,76,129.29
2613,G5,514.0,0.5,76,129.29
2614,D3,514.0,1.0,52,129.29
2615,D4,514.0,1.0,52,129.29
2616,F#4,514.5,0.25,70,129.29
2617,F#5,514.5,0.25,70,129.29
2618,B2,515.0,333/1000,61,129.29
2619,B3,515.333,333/1000,52,129.29
2620,G4,515.5,0.25,70,129.29
2621,G5,515.5,0.25,70,129.29
2622,B2,515.667,333/1000,52,129.29
2623,C3,516.0,333/1000,63,129.29
2624,F4,516.0,0.5,78,129.29
2625,F5,516.0,0.5,78,129.29
2626,C4,516.333,333/1000,55,129.29
2627,E4,516.5,0.25,60,129.29
2628,E5,516.5,0.25,60,129.29
2629,C3,516.667,333/1000,54,129.29
2630,A2,517.0,333/1000,59,129.29
2631,E-4,517.0,0.25,65,129.29
2632,E-5,517.0,0.25,65,129.29
2633,A3,517.333,333/1000,52,129.29
2634,E-4,517.5,0.25,58,129.29
2635,E-5,517.5,0.25,58,129.29
2636,A2,517.667,333/1000,52,129.29
2637,B-2,518.0,333/1000,57,129.29
2638,E-4,518.0,0.5,76,129.29
2639,E-5,518.0,0.5,76,129.29
2640,B-3,518.333,333/1000,52,129.29
2641,D4,518.5,0.25,70,129.29
2642,D5,518.5,0.25,70,129.29
2643,B-2,518.667,333/1000,52,129.29
2644,D5,519.0,1.0,72,129.29
2645,D6,519.0,1.0,72,129.29
2646,B-2,519.5,0.25,66,129.29
2647,B-3,519.5,0.25,66,129.29
2648,E-5,520.0,1.0,71,129.29
2649,E-6,520.0,1.0,71,129.29
2650,A2,520.0,0.5,73,129.29
2651,A3,520.0,0.5,73,129.29
2652,G2,520.5,0.25,60,129.29
2653,G3,520.5,0.25,60,129.29
2654,C#5,521.0,1.0,63,129.29
2655,C#6,521.0,1.0,63,129.29
2656,G2,521.0,0.25,65,129.29
2657,G3,521.0,0.25,65,129.29
2658,G2,521.5,0.25,58,129.29
2659,G3,521.5,0.25,58,129.29
2660,D5,522.0,1.0,63,129.29
2661,D6,522.0,1.0,63,129.29
2662,G2,522.0,0.5,72,129.29
2663,G3,522.0,0.5,72,129.29
2664,F#2,522.5,0.25,66,129.29
2665,F#3,522.5,0.25,66,129.29
2666,B5,523.0,333/1000,81,129.29
2667,B4,523.333,333/1000,69,129.29
2668,F2,523.5,0.25,66,129.29
2669,F3,523.5,0.25,66,129.29
2670,B5,523.667,333/1000,69,129.29
2671,C6,524.0,333/1000,78,129.29
2672,F2,524.0,0.5,73,129.29
2673,F3,524.0,0.5,73,129.29
2674,C5,524.333,333/1000,69,129.29
2675,E2,524.5,0.25,56,129.29
2676,E3,524.5,0.25,56,129.29
2677,C6,524.667,333/1000,69,129.29
2678,A5,525.0,333/1000,76,129.29
2679,E-2,525.0,0.25,62,129.29
2680,E-3,525.0,0.25,62,129.29
2681,A4,525.333,333/1000,69,129.29
2682,E-2,525.5,0.25,54,129.29
2683,E-3,525.5,0.25,54,129.29
2684,A5,525.667,333/1000,69,129.29
2685,B-5,526.0,333/1000,77,129.29
2686,E-2,526.0,0.5,72,129.29
2687,E-3,526.0,0.5,72,129.29
2688,B-4,526.333,333/1000,70,129.29
2689,D2,526.5,0.25,66,129.29
2690,D3,526.5,0.25,66,129.29
2691,B-5,526.667,333/1000,70,129.29
2692,E-2,527.0,0.5,78,129.29
2693,G5,527.0,333/1000,69,129.29
2694,A5,527.0,333/1000,69,129.29
2695,A4,527.333,333/1000,70,129.29
2696,E-3,527.5,0.5,70,129.29
2697,G5,527.667,333/1000,62,129.29
2698,A5,527.667,333/1000,62,129.29
2699,D2,528.0,0.5,78,129.29
2700,G5,528.0,333/1000,69,129.29
2701,A5,528.0,333/1000,69,129.29
2702,A4,528.333,333/1000,70,129.29
2703,D3,528.5,0.5,71,129.29
2704,G5,528.667,333/1000,62,129.29
2705,A5,528.667,333/1000,62,129.29
2706,C#2,529.0,0.5,78,129.29
2707,G5,529.0,333/1000,69,129.29
2708,A5,529.0,333/1000,69,129.29
2709,A4,529.333,333/1000,70,129.29
2710,C#3,529.5,0.5,68,129.29
2711,G5,529.667,333/1000,64,129.29
2712,A5,529.667,333/1000,64,129.29
2713,D2,530.0,333/1000,78,129.29
2714,F#5,530.0,1.0,75,129.29
2715,A5,530.0,1.0,75,129.29
2716,F#2,530.333,333/1000,69,129.29
2717,A2,530.667,333/1000,69,129.29
2718,D3,531.0,333/1000,76,129.29
2719,F#3,531.333,333/1000,67,129.29
2720,D5,531.5,0.5,75,129.29
2721,D6,531.5,0.5,75,129.29
2722,A3,531.667,333/1000,67,129.29
2723,D3,532.0,333/1000,73,129.29
2724,E-5,532.0,1.0,74,129.29
2725,E-6,532.0,1.0,74,129.29
2726,G3,532.333,333/1000,61,129.29
2727,B-3,532.667,333/1000,61,129.29
2728,A3,533.0,333/1000,67,129.29
2729,C#5,533.0,1.0,68,129.29
2730,C#6,533.0,1.0,68,129.29
2731,B-3,533.333,333/1000,55,129.29
2732,G3,533.667,333/1000,55,129.29
2733,D3,534.0,333/1000,64,129.29
2734,D5,534.0,1.0,68,129.29
2735,D6,534.0,1.0,68,129.29
2736,F#3,534.333,333/1000,56,129.29
2737,A3,534.667,333/1000,56,129.29
2738,G#3,535.0,333/1000,47,129.29
2739,A3,535.333,333/1000,36,129.29
2740,D5,535.5,0.5,48,129.29
2741,D6,535.5,0.5,48,129.29
2742,F#3,535.667,333/1000,36,129.29
2743,D3,536.0,333/1000,42,129.29
2744,C5,536.0,0.5,58,129.29
2745,C6,536.0,0.5,58,129.29
2746,F3,536.333,333/1000,33,129.29
2747,B4,536.5,0.25,38,129.29
2748,B5,536.5,0.25,38,129.29
2749,G#3,536.667,333/1000,33,129.29
2750,G3,537.0,333/1000,43,129.29
2751,B4,537.0,0.25,44,129.29
2752,B5,537.0,0.25,44,129.29
2753,G#3,537.333,333/1000,35,129.29
2754,B4,537.5,0.25,39,129.29
2755,B5,537.5,0.25,39,129.29
2756,F3,537.667,333/1000,35,129.29
2757,C3,538.0,333/1000,43,129.29
2758,B4,538.0,0.5,51,129.29
2759,B5,538.0,0.5,51,129.29
2760,F3,538.333,333/1000,36,129.29
2761,C5,538.5,0.25,38,129.29
2762,C6,538.5,0.25,38,129.29
2763,G#3,538.667,333/1000,36,129.29
2764,C3,539.0,333/1000,76,129.29
2765,E3,539.333,333/1000,67,129.29
2766,C5,539.5,0.5,75,129.29
2767,C6,539.5,0.5,75,129.29
2768,G3,539.667,333/1000,67,129.29
2769,C3,540.0,333/1000,73,129.29
2770,C#5,540.0,1.0,74,129.29
2771,C#6,540.0,1.0,74,129.29
2772,F3,540.333,333/1000,61,129.29
2773,G#3,540.667,333/1000,61,129.29
2774,G3,541.0,333/1000,67,129.29
2775,B4,541.0,1.0,66,129.29
2776,B5,541.0,1.0,66,129.29
2777,G#3,541.333,333/1000,55,129.29
2778,F3,541.667,333/1000,55,129.29
2779,C3,542.0,333/1000,64,129.29
2780,C5,542.0,1.0,66,129.29
2781,C6,542.0,1.0,66,129.29
2782,E3,542.333,333/1000,56,129.29
2783,G3,542.667,333/1000,56,129.29
2784,F#3,543.0,333/1000,47,129.29
2785,G3,543.333,333/1000,36,129.29
2786,C5,543.5,0.5,48,129.29
2787,C6,543.5,0.5,48,129.29
2788,E3,543.667,333/1000,36,129.29
2789,C3,544.0,333/1000,42,129.29
2790,B-4,544.0,0.5,58,129.29
2791,B-5,544.0,0.5,58,129.29
2792,E-3,544.333,333/1000,33,129.29
2793,A4,544.5,0.25,38,129.29
2794,A5,544.5,0.25,38,129.29
2795,F#3,544.667,333/1000,33,129.29
2796,F3,545.0,333/1000,43,129.29
2797,A4,545.0,0.25,44,129.29
2798,A5,545.0,0.25,44,129.29
2799,F#3,545.333,333/1000,35,129.29
2800,A4,545.5,0.25,39,129.29
2801,A5,545.5,0.25,39,129.29
2802,E-3,545.667,333/1000,35,129.29
2803,B-2,546.0,333/1000,43,129.29
2804,A4,546.0,0.5,51,129.29
2805,A5,546.0,0.5,51,129.29
2806,E-3,546.333,333/1000,36,129.29
2807,B-4,546.5,0.25,38,129.29
2808,B-5,546.5,0.25,38,129.29
2809,F#3,546.667,333/1000,36,129.29
2810,B-2,547.013,333/1000,51,129.29
2811,D3,547.331,333/1000,44,129.29
2812,D5,547.5,0.5,44,129.29
2813,F3,547.669,331/1000,44,129.29
2814,F5,548.0,333/1000,47,129.29
2815,C4,548.0,1.0,60,129.29
2816,F3,548.0,1/500,44,129.29
2817,E-5,548.333,333/1000,40,129.29
2818,F4,548.667,333/1000,40,129.29
2819,F5,549.0,333/1000,47,129.29
2820,A3,549.0,1.0,50,129.29
2821,C5,549.333,333/1000,39,129.29
2822,F4,549.667,333/1000,40,129.29
2823,F5,550.0,333/1000,47,129.29
2824,B-3,550.0,1.5,59,129.29
2825,D5,550.333,333/1000,42,129.29
2826,F4,550.667,333/1000,40,129.29
2827,B-5,551.0,333/1000,47,129.29
2828,F5,551.333,333/1000,38,129.29
2829,D4,551.5,0.25,45,129.29
2830,B-4,551.667,333/1000,38,129.29
2831,C6,552.0,333/1000,47,129.29
2832,B-3,552.0,2.0,51,129.29
2833,F4,552.0,0.5,53,129.29
2834,F5,552.333,333/1000,39,129.29
2835,E-4,552.5,0.25,46,129.29
2836,C5,552.667,333/1000,39,129.29
2837,A5,553.0,333/1000,47,129.29
2838,E-4,553.0,0.25,46,129.29
2839,F5,553.333,333/1000,38,129.29
2840,E-4,553.5,0.25,46,129.29
2841,A4,553.667,333/1000,38,129.29
2842,B-5,554.0,333/1000,47,129.29
2843,B-3,554.0,1.0,51,129.29
2844,E-4,554.0,0.5,53,129.29
2845,F5,554.333,333/1000,39,129.29
2846,D4,554.5,0.25,46,129.29
2847,B-4,554.667,333/1000,40,129.29
2848,F5,555.0,333/1000,44,129.29
2849,D5,555.333,333/1000,37,129.29
2850,B-3,555.5,0.5,53,129.29
2851,F4,555.667,333/1000,37,129.29
2852,F5,556.0,333/1000,47,129.29
2853,C4,556.0,0.5,59,129.29
2854,E-5,556.333,333/1000,40,129.29
2855,D4,556.5,0.5,50,129.29
2856,F4,556.667,333/1000,40,129.29
2857,F5,557.0,333/1000,47,129.29
2858,G3,557.0,0.5,55,129.29
2859,C5,557.333,333/1000,39,129.29
2860,A3,557.5,0.5,50,129.29
2861,F4,557.667,333/1000,40,129.29
2862,F5,558.0,333/1000,47,129.29
2863,B-3,558.0,1.5,59,129.29
2864,D5,558.333,333/1000,42,129.29
2865,F4,558.667,333/1000,40,129.29
2866,B-5,559.0,333/1000,47,129.29
2867,F5,559.333,333/1000,38,129.29
2868,D4,559.5,0.25,45,129.29
2869,B-4,559.667,333/1000,38,129.29
2870,C6,560.0,333/1000,47,129.29
2871,B-3,560.0,2.0,53,129.29
2872,F4,560.0,0.5,53,129.29
2873,F5,560.333,333/1000,39,129.29
2874,E-4,560.5,0.25,46,129.29
2875,C5,560.667,333/1000,39,129.29
2876,A5,561.0,333/1000,47,129.29
2877,E-4,561.0,0.25,46,129.29
2878,F5,561.333,333/1000,38,129.29
2879,E-4,561.5,0.25,46,129.29
2880,A4,561.667,333/1000,38,129.29
2881,B-5,562.0,333/1000,47,129.29
2882,B-3,562.0,1.0,53,129.29
2883,E-4,562.0,0.5,53,129.29
2884,F5,562.333,333/1000,39,129.29
2885,D4,562.5,0.25,46,129.29
2886,B-4,562.667,333/1000,40,129.29
2887,F5,563.0,333/1000,75,129.29
2888,D5,563.333,333/1000,66,129.29
2889,B-2,563.5,0.5,62,129.29
2890,B-3,563.5,0.5,62,129.29
2891,F4,563.667,333/1000,65,129.29
2892,E-5,564.0,0.5,87,129.29
2893,F4,564.0,1.0,73,129.29
2894,G#4,564.0,1.0,73,129.29
2895,B2,564.0,1.0,71,129.29
2896,B3,564.0,1.0,71,129.29
2897,C#5,564.5,0.25,76,129.29
2898,F4,565.0,0.25,76,129.29
2899,B4,565.0,0.25,76,129.29
2900,C#5,565.0,0.25,76,129.29
2901,G#2,565.0,1.0,65,129.29
2902,G#3,565.0,1.0,65,129.29
2903,F4,565.5,0.25,67,129.29
2904,B4,565.5,0.25,67,129.29
2905,C#5,565.5,0.25,67,129.29
2906,C#5,566.0,0.5,77,129.29
2907,F#4,566.0,1.0,65,129.29
2908,B-4,566.0,1.0,65,129.29
2909,B-2,566.0,1.0,71,129.29
2910,B-3,566.0,1.0,71,129.29
2911,F#5,566.5,0.5,71,129.29
2912,B-5,567.0,333/1000,80,129.29
2913,C#6,567.333,333/1000,60,129.29
2914,E-3,567.5,0.25,60,129.29
2915,E-4,567.5,0.25,60,129.29
2916,F#6,567.667,333/1000,60,129.29
2917,C#6,568.0,333/1000,71,129.29
2918,G#6,568.0,333/1000,71,129.29
2919,C#3,568.0,0.5,72,129.29
2920,C#4,568.0,0.5,72,129.29
2921,G#5,568.333,333/1000,61,129.29
2922,B2,568.5,0.25,60,129.29
2923,B3,568.5,0.25,60,129.29
2924,C#6,568.667,333/1000,56,129.29
2925,G#6,568.667,333/1000,56,129.29
2926,C#6,569.0,333/1000,72,129.29
2927,F6,569.0,333/1000,72,129.29
2928,B2,569.0,0.25,60,129.29
2929,B3,569.0,0.25,60,129.29
2930,F5,569.333,333/1000,58,129.29
2931,B2,569.5,0.25,58,129.29
2932,B3,569.5,0.25,58,129.29
2933,C#6,569.667,333/1000,52,129.29
2934,F6,569.667,333/1000,52,129.29
2935,C#6,570.0,333/1000,68,129.29
2936,F#6,570.0,333/1000,68,129.29
2937,B2,570.0,0.5,70,129.29
2938,B3,570.0,0.5,70,129.29
2939,F#5,570.333,333/1000,59,129.29
2940,B-2,570.5,0.25,60,129.29
2941,B-3,570.5,0.25,60,129.29
2942,C#6,570.667,333/1000,54,129.29
2943,F#6,570.667,333/1000,54,129.29
2944,C#3,571.0,333/1000,68,129.29
2945,F#3,571.333,333/1000,61,129.29
2946,F#5,571.5,0.25,75,129.29
2947,B-3,571.667,333/1000,61,129.29
2948,E-5,572.0,0.5,87,129.29
2949,F4,572.0,1.0,73,129.29
2950,G#4,572.0,1.0,73,129.29
2951,B2,572.0,1.0,71,129.29
2952,B3,572.0,1.0,71,129.29
2953,C#5,572.5,0.25,76,129.29
2954,F4,573.0,0.25,76,129.29
2955,B4,573.0,0.25,76,129.29
2956,C#5,573.0,0.25,76,129.29
2957,G#2,573.0,1.0,65,129.29
2958,G#3,573.0,1.0,65,129.29
2959,F4,573.5,0.25,67,129.29
2960,B4,573.5,0.25,67,129.29
2961,C#5,573.5,0.25,67,129.29
2962,C#5,574.0,0.5,77,129.29
2963,F#4,574.0,1.0,65,129.29
2964,B-4,574.0,1.0,65,129.29
2965,B-2,574.0,1.0,71,129.29
2966,B-3,574.0,1.0,71,129.29
2967,F#5,574.5,0.5,71,129.29
2968,B-5,575.0,333/1000,80,129.29
2969,C#6,575.333,333/1000,60,129.29
2970,E-3,575.5,0.25,60,129.29
2971,E-4,575.5,0.25,60,129.29
2972,F#6,575.667,333/1000,60,129.29
2973,C#6,576.0,333/1000,71,129.29
2974,G#6,576.0,333/1000,71,129.29
2975,C#3,576.0,0.5,72,129.29
2976,C#4,576.0,0.5,72,129.29
2977,G#5,576.333,333/1000,61,129.29
2978,B2,576.5,0.25,60,129.29
2979,B3,576.5,0.25,60,129.29
2980,C#6,576.667,333/1000,56,129.29
2981,G#6,576.667,333/1000,56,129.29
2982,C#6,577.0,333/1000,72,129.29
2983,F6,577.0,333/1000,72,129.29
2984,B2,577.0,0.25,60,129.29
2985,B3,577.0,0.25,60,129.29
2986,F5,577.333,333/1000,58,129.29
2987,B2,577.5,0.25,58,129.29
2988,B3,577.5,0.25,58,129.29
2989,C#6,577.667,333/1000,52,129.29
2990,F6,577.667,333/1000,52,129.29
2991,C#6,578.0,333/1000,71,129.29
2992,F#6,578.0,333/1000,71,129.29
2993,B2,578.0,0.5,72,129.29
2994,B3,578.0,0.5,72,129.29
2995,F#5,578.333,333/1000,61,129.29
2996,B-2,578.5,0.25,60,129.29
2997,B-3,578.5,0.25,60,129.29
2998,C#6,578.667,333/1000,56,129.29
2999,F#6,578.667,333/1000,56,129.29
3000,F#5,579.0,333/1000,72,129.29
3001,C#6,579.0,333/1000,72,129.29
3002,B-2,579.0,0.25,60,129.29
3003,B-3,579.0,0.25,60,129.29
3004,C#5,579.333,333/1000,58,129.29
3005,B-2,579.5,0.25,58,129.29
3006,B-3,579.5,0.25,58,129.29
3007,C#6,579.667,333/1000,57,129.29
3008,B-5,580.0,333/1000,71,129.29
3009,F6,580.0,333/1000,71,129.29
3010,B-2,580.0,0.5,72,129.29
3011,B-3,580.0,0.5,72,129.29
3012,F5,580.333,333/1000,61,129.29
3013,G#2,580.5,0.25,60,129.29
3014,G#3,580.5,0.25,60,129.29
3015,B-5,580.667,333/1000,56,129.29
3016,F6,580.667,333/1000,56,129.29
3017,B-5,581.0,333/1000,72,129.29
3018,D6,581.0,333/1000,72,129.29
3019,G#2,581.0,0.25,60,129.29
3020,G#3,581.0,0.25,60,129.29
3021,D5,581.333,333/1000,58,129.29
3022,G#2,581.5,0.25,58,129.29
3023,G#3,581.5,0.25,58,129.29
3024,B-5,581.667,333/1000,52,129.29
3025,D6,581.667,333/1000,52,129.29
3026,B-5,582.0,333/1000,71,129.29
3027,E-6,582.0,333/1000,71,129.29
3028,G#2,582.0,0.5,72,129.29
3029,G#3,582.0,0.5,72,129.29
3030,E-5,582.333,333/1000,61,129.29
3031,F#2,582.5,0.25,60,129.29
3032,F#3,582.5,0.25,60,129.29
3033,B-5,582.667,333/1000,56,129.29
3034,E-6,582.667,333/1000,56,129.29
3035,E-5,583.0,333/1000,72,129.29
3036,B-5,583.0,333/1000,72,129.29
3037,F#2,583.0,0.25,60,129.29
3038,F#3,583.0,0.25,60,129.29
3039,B-4,583.333,333/1000,58,129.29
3040,F#2,583.5,0.25,58,129.29
3041,F#3,583.5,0.25,58,129.29
3042,E-5,583.667,333/1000,55,129.29
3043,B-5,583.667,333/1000,55,129.29
3044,B1,584.0,2.0,96,129.29
3045,B2,584.0,2.0,96,129.29
3046,E-4,584.25,0.25,72,129.29
3047,F#4,584.5,0.25,73,129.29
3048,B4,584.75,0.25,75,129.29
3049,E-5,585.0,0.25,76,129.29
3050,F#5,585.25,0.25,77,129.29
3051,B5,585.5,0.25,79,129.29
3052,E-6,585.75,0.25,80,129.29
3053,E6,586.0,1.0,80,129.29
3054,E5,586.0,1.0,80,129.29
3055,F#5,586.0,1.0,80,129.29
3056,B1,586.0,0.5,82,129.29
3057,B2,586.0,0.5,82,129.29
3058,B-1,586.5,0.25,70,129.29
3059,B-2,586.5,0.25,70,129.29
3060,C#6,587.0,1.0,73,129.29
3061,F#5,587.0,1.0,73,129.29
3062,C#5,587.0,1.0,73,129.29
3063,B-1,587.0,0.25,70,129.29
3064,B-2,587.0,0.25,70,129.29
3065,B-1,587.5,0.25,70,129.29
3066,B-2,587.5,0.25,70,129.29
3067,B1,588.0,2.0,96,129.29
3068,B2,588.0,2.0,96,129.29
3069,E-4,588.25,0.25,72,129.29
3070,F#4,588.5,0.25,73,129.29
3071,B4,588.75,0.25,75,129.29
3072,E-5,589.0,0.25,76,129.29
3073,F#5,589.25,0.25,77,129.29
3074,B5,589.5,0.25,79,129.29
3075,E-6,589.75,0.25,80,129.29
3076,E5,590.0,1.0,80,129.29
3077,F#5,590.0,1.0,80,129.29
3078,E6,590.0,1.0,80,129.29
3079,B1,590.0,0.5,82,129.29
3080,B2,590.0,0.5,82,129.29
3081,B-1,590.5,0.25,70,129.29
3082,B-2,590.5,0.25,70,129.29
3083,C#5,591.0,1.0,73,129.29
3084,C#6,591.0,1.0,73,129.29
3085,F#5,591.0,1.0,73,129.29
3086,B-1,591.0,0.25,70,129.29
3087,B-2,591.0,0.25,70,129.29
3088,B-1,591.5,0.25,70,129.29
3089,B-2,591.5,0.25,70,129.29
3090,B2,592.0,2.0,96,129.29
3091,B1,592.0,2.0,96,129.29
3092,E-4,592.25,0.25,72,129.29
3093,F#4,592.5,0.25,73,129.29
3094,B4,592.75,0.25,75,129.29
3095,E-5,593.0,0.25,76,129.29
3096,F#5,593.25,0.25,77,129.29
3097,B5,593.5,0.25,79,129.29
3098,E-6,593.75,0.25,80,129.29
3099,F6,594.0,0.5,76,129.29
3100,F5,594.0,0.5,76,129.29
3101,B-2,594.0,1.0,82,129.29
3102,B-1,594.0,1.0,82,129.29
3103,E-6,594.5,0.25,70,129.29
3104,F#5,594.5,0.25,70,129.29
3105,F#6,594.5,0.25,70,129.29
3106,F#5,595.0,0.25,70,129.29
3107,E-6,595.0,0.25,70,129.29
3108,F#6,595.0,0.25,70,129.29
3109,A2,595.0,1.0,70,129.29
3110,A1,595.0,1.0,70,129.29
3111,F#5,595.5,0.25,70,129.29
3112,E-6,595.5,0.25,70,129.29
3113,F#6,595.5,0.25,70,129.29
3114,B-1,596.0,2.0,96,129.29
3115,B-2,596.0,2.0,96,129.29
3116,D4,596.25,0.25,72,129.29
3117,F4,596.5,0.25,73,129.29
3118,B-4,596.75,0.25,74,129.29
3119,D5,597.0,0.25,75,129.29
3120,F5,597.25,0.25,75,129.29
3121,B-5,597.5,0.25,77,129.29
3122,D6,597.75,0.25,77,129.29
3123,E-5,598.0,1.0,77,129.29
3124,F5,598.0,1.0,77,129.29
3125,E-6,598.0,1.0,77,129.29
3126,B-1,598.0,0.5,79,129.29
3127,B-2,598.0,0.5,79,129.29
3128,A1,598.5,0.25,66,129.29
3129,A2,598.5,0.25,66,129.29
3130,C5,599.0,1.0,69,129.29
3131,C6,599.0,1.0,69,129.29
3132,F5,599.0,1.0,69,129.29
3133,A1,599.0,0.25,65,129.29
3134,A2,599.0,0.25,65,129.29
3135,A1,599.5,0.25,64,129.29
3136,A2,599.5,0.25,64,129.29
3137,B-1,600.0,2.0,88,129.29
3138,B-2,600.0,2.0,88,129.29
3139,D4,600.25,0.25,67,129.29
3140,F4,600.5,0.25,67,129.29
3141,B-4,600.75,0.25,69,129.29
3142,D5,601.0,0.25,69,129.29
3143,F5,601.25,0.25,70,129.29
3144,B-5,601.5,0.25,71,129.29
3145,D6,601.75,0.25,72,129.29
3146,E-5,602.0,1.0,71,129.29
3147,F5,602.0,1.0,71,129.29
3148,E-6,602.0,1.0,71,129.29
3149,B-1,602.0,0.5,72,129.29
3150,B-2,602.0,0.5,72,129.29
3151,A1,602.5,0.25,60,129.29
3152,A2,602.5,0.25,60,129.29
3153,C5,603.0,1.0,63,129.29
3154,C6,603.0,1.0,63,129.29
3155,F5,603.0,1.0,63,129.29
3156,A1,603.0,0.25,60,129.29
3157,A2,603.0,0.25,60,129.29
3158,A1,603.5,0.25,59,129.29
3159,A2,603.5,0.25,59,129.29
3160,B-1,604.0,2.0,81,129.29
3161,B-2,604.0,2.0,81,129.29
3162,D4,604.25,0.25,60,129.29
3163,F4,604.5,0.25,61,129.29
3164,B-4,604.75,0.25,63,129.29
3165,D5,605.0,0.25,64,129.29
3166,F5,605.25,0.25,64,129.29
3167,B-5,605.5,0.25,66,129.29
3168,D6,605.75,0.25,66,129.29
3169,E-5,606.0,1.0,65,129.29
3170,F5,606.0,1.0,65,129.29
3171,E-6,606.0,1.0,65,129.29
3172,B-1,606.0,0.5,66,129.29
3173,B-2,606.0,0.5,66,129.29
3174,A1,606.5,0.25,56,129.29
3175,A2,606.5,0.25,56,129.29
3176,C5,607.0,1.0,58,129.29
3177,C6,607.0,1.0,58,129.29
3178,F5,607.0,1.0,58,129.29
3179,A1,607.0,0.25,54,129.29
3180,A2,607.0,0.25,54,129.29
3181,A1,607.5,0.25,54,129.29
3182,A2,607.5,0.25,54,129.29
3183,B-2,608.0,1.5,74,129.29
3184,B-1,608.0,1.5,74,129.29
3185,D4,608.25,0.25,55,129.29
3186,F4,608.5,0.25,55,129.29
3187,B-4,608.75,0.25,57,129.29
3188,D5,609.0,0.25,57,129.29
3189,F5,609.25,0.25,58,129.29
3190,B-5,609.5,0.25,59,129.29
3191,B-1,609.5,0.5,72,129.29
3192,B-2,609.5,0.5,72,129.29
3193,D6,609.75,0.25,59,129.29
3194,E6,610.0,0.5,56,129.29
3195,E5,610.0,0.5,56,129.29
3196,A2,610.0,1.0,60,129.29
3197,A1,610.0,1.0,60,129.29
3198,D6,610.5,0.25,50,129.29
3199,F5,610.5,0.25,50,129.29
3200,F6,610.5,0.25,50,129.29
3201,F5,611.0,0.25,50,129.29
3202,D6,611.0,0.25,50,129.29
3203,F6,611.0,0.25,50,129.29
3204,G#2,611.0,1.0,49,129.29
3205,G#1,611.0,1.0,49,129.29
3206,F5,611.5,0.25,49,129.29
3207,D6,611.5,0.25,49,129.29
3208,F6,611.5,0.25,49,129.29
3209,A2,612.0,1.5,62,129.29
3210,A1,612.0,1.5,62,129.29
3211,C#4,612.25,0.25,50,129.29
3212,E4,612.5,0.25,51,129.29
3213,A4,612.75,0.25,52,129.29
3214,C#5,613.0,0.25,53,129.29
3215,E5,613.25,0.25,53,129.29
3216,A5,613.5,0.25,55,129.29
3217,A1,613.5,0.5,56,129.29
3218,A2,613.5,0.5,56,129.29
3219,C#6,613.75,0.25,55,129.29
3220,D6,614.0,0.5,52,129.29
3221,D5,614.0,0.5,52,129.29
3222,G2,614.0,1.0,54,129.29
3223,G1,614.0,1.0,54,129.29
3224,C6,614.5,0.25,49,129.29
3225,E-5,614.5,0.25,49,129.29
3226,E-6,614.5,0.25,49,129.29
3227,E-5,615.0,0.25,49,129.29
3228,C6,615.0,0.25,49,129.29
3229,E-6,615.0,0.25,49,129.29
3230,F#2,615.0,1.0,44,129.29
3231,F#1,615.0,1.0,44,129.29
3232,E-5,615.5,0.25,49,129.29
3233,C6,615.5,0.25,49,129.29
3234,E-6,615.5,0.25,49,129.29
3235,G1,616.0,2.0,62,129.29
3236,G2,616.0,2.0,62,129.29
3237,B3,616.25,0.25,50,129.29
3238,D4,616.5,0.25,51,129.29
3239,G4,616.75,0.25,52,129.29
3240,B4,617.0,0.25,53,129.29
3241,D5,617.25,0.25,53,129.29
3242,G5,617.5,0.25,55,129.29
3243,B5,617.75,0.25,55,129.29
3244,D5,618.0,1.0,55,129.29
3245,F#5,618.0,1.0,55,129.29
3246,D6,618.0,1.0,55,129.29
3247,G1,618.0,0.5,54,129.29
3248,G2,618.0,0.5,54,129.29
3249,G#1,618.5,0.25,44,129.29
3250,G#2,618.5,0.25,44,129.29
3251,C5,619.0,1.0,51,129.29
3252,C6,619.0,1.0,51,129.29
3253,F#5,619.0,1.0,51,129.29
3254,G#1,619.0,0.25,44,129.29
3255,G#2,619.0,0.25,44,129.29
3256,G#1,619.5,0.25,44,129.29
3257,G#2,619.5,0.25,44,129.29
3258,G1,620.0,2.0,62,129.29
3259,G2,620.0,2.0,62,129.29
3260,B3,620.25,0.25,49,129.29
3261,D4,620.5,0.25,48,129.29
3262,G4,620.75,0.25,48,129.29
3263,B4,621.0,0.25,47,129.29
3264,D5,621.25,0.25,46,129.29
3265,G5,621.5,0.25,47,129.29
3266,B5,621.75,0.25,45,129.29
3267,D5,622.0,1.0,44,129.29
3268,F#5,622.0,1.0,44,129.29
3269,D6,622.0,1.0,44,129.29
3270,G1,622.0,0.5,42,129.29
3271,G2,622.0,0.5,42,129.29
3272,G#1,622.5,0.25,35,129.29
3273,G#2,622.5,0.25,35,129.29
3274,C5,623.0,1.0,40,129.29
3275,C6,623.0,1.0,40,129.29
3276,F#5,623.0,1.0,40,129.29
3277,G#1,623.0,0.25,35,129.29
3278,G#2,623.0,0.25,35,129.29
3279,G#1,623.5,0.25,35,129.29
3280,G#2,623.5,0.25,35,129.29
3281,B4,624.0,0.5,40,129.29
3282,G5,624.0,0.5,40,129.29
3283,B5,624.0,0.5,40,129.29
3284,G1,624.0,0.5,42,129.29
3285,G2,624.0,0.5,42,129.29
3286,G3,625.0,1.0,86,129.29
3287,G4,625.0,1.0,86,129.29
3288,G3,626.0,2.0,86,129.29
3289,G4,626.0,2.0,86,129.29
3290,D5,627.5,0.25,52,129.29
3291,C5,628.0,0.5,63,129.29
3292,G3,628.0,0.5,42,129.29
3293,B4,628.5,0.25,37,129.29
3294,G4,628.5,0.25,31,129.29
3295,B4,629.0,0.25,43,129.29
3296,F4,629.0,0.25,28,129.29
3297,D4,629.0,0.25,28,129.29
3298,B4,629.5,0.25,37,129.29
3299,G4,629.5,0.25,32,129.29
3300,B4,630.0,0.25,55,129.29
3301,G3,630.0,0.5,44,129.29
3302,C5,630.25,0.25,49,129.29
3303,G5,630.5,0.5,59,129.29
3304,G4,630.5,0.5,31,129.29
3305,F5,631.0,0.25,50,129.29
3306,C4,631.0,0.5,32,129.29
3307,E-4,631.0,0.5,32,129.29
3308,E-5,631.25,0.25,45,129.29
3309,D5,631.5,0.25,45,129.29
3310,G4,631.5,0.5,32,129.29
3311,C5,631.75,0.25,45,129.29
3312,C5,632.0,0.5,63,129.29
3313,G3,632.0,0.5,42,129.29
3314,B4,632.5,0.25,37,129.29
3315,G4,632.5,0.25,31,129.29
3316,B4,633.0,0.25,44,129.29
3317,F4,633.0,0.25,28,129.29
3318,D4,633.0,0.25,28,129.29
3319,B4,633.5,0.25,37,129.29
3320,G4,633.5,0.25,29,129.29
3321,B4,634.0,0.5,57,129.29
3322,G3,634.0,0.5,44,129.29
3323,C5,634.5,0.25,47,129.29
3324,G4,634.5,0.25,32,129.29
3325,F#3,635.0,0.25,31,129.29
3326,C4,635.0,0.25,31,129.29
3327,E-4,635.0,0.25,31,129.29
3328,E-5,635.5,0.5,54,129.29
3329,F#4,635.5,0.5,35,129.29
3330,C5,636.0,0.5,63,129.29
3331,F3,636.0,0.5,42,129.29
3332,B-4,636.5,0.25,52,129.29
3333,F4,636.5,0.25,35,129.29
3334,B-4,637.0,0.25,54,129.29
3335,D4,637.0,0.25,35,129.29
3336,B-4,637.5,0.25,54,129.29
3337,F4,637.5,0.25,36,129.29
3338,C5,638.0,0.5,63,129.29
3339,G3,638.0,0.5,42,129.29
3340,B-4,638.5,0.25,53,129.29
3341,E4,638.5,0.25,36,129.29
3342,B-4,639.0,0.25,55,129.29
3343,C4,639.0,0.25,36,129.29
3344,B-4,639.5,0.25,55,129.29
3345,E4,639.5,0.25,36,129.29
3346,C5,640.0,0.25,63,129.29
3347,D4,640.0,0.5,38,129.29
3348,F3,640.0,0.5,38,129.29
3349,B-4,640.25,0.25,52,129.29
3350,A4,640.5,0.25,53,129.29
3351,F4,640.5,0.5,33,129.29
3352,B-4,640.75,0.25,53,129.29
3353,C5,641.0,0.25,58,129.29
3354,E-4,641.0,0.25,32,129.29
3355,F3,641.0,0.25,32,129.29
3356,D5,641.5,0.25,54,129.29
3357,F4,641.5,0.25,34,129.29
3358,B-4,642.0,0.5,58,129.29
3359,D4,642.0,0.25,42,129.29
3360,B-3,642.0,0.25,42,129.29
3361,A3,642.5,0.25,38,129.29
3362,G3,643.0,0.25,37,129.29
3363,D5,643.5,0.25,57,129.29
3364,F3,643.5,0.25,36,129.29
3365,G5,644.0,1.0,60,129.29
3366,E-3,644.0,0.25,42,129.29
3367,B-3,644.5,0.25,36,129.29
3368,G3,644.5,0.25,36,129.29
3369,E-5,645.0,1.0,60,129.29
3370,C3,645.0,0.25,36,129.29
3371,C4,645.5,0.25,36,129.29
3372,G3,645.5,0.25,36,129.29
3373,C5,646.0,1.0,60,129.29
3374,F3,646.0,0.25,42,129.29
3375,A3,646.5,0.25,35,129.29
3376,C4,646.5,0.25,35,129.29
3377,D5,647.0,0.25,60,129.29
3378,E-3,647.0,0.25,36,129.29
3379,E-5,647.5,0.25,58,129.29
3380,C4,647.5,0.25,36,129.29
3381,A3,647.5,0.25,36,129.29
3382,F5,648.0,0.25,57,129.29
3383,D3,648.0,0.25,39,129.29
3384,G5,648.25,0.25,53,129.29
3385,F5,648.5,0.25,53,129.29
3386,B-3,648.5,0.25,32,129.29
3387,F3,648.5,0.25,32,129.29
3388,E-5,648.75,0.25,53,129.29
3389,D5,649.0,0.25,59,129.29
3390,B-2,649.0,0.25,34,129.29
3391,E-5,649.25,0.25,52,129.29
3392,D5,649.5,0.25,52,129.29
3393,B-3,649.5,0.25,32,129.29
3394,F3,649.5,0.25,32,129.29
3395,C5,649.75,0.25,53,129.29
3396,B-4,650.0,1.5,60,129.29
3397,E-3,650.0,0.25,40,129.29
3398,B-3,650.5,0.25,32,129.29
3399,G3,650.5,0.25,32,129.29
3400,D3,651.0,0.25,34,129.29
3401,B-4,651.5,0.25,46,129.29
3402,B-3,651.5,0.25,29,129.29
3403,G3,651.5,0.25,29,129.29
3404,E-5,652.0,1.0,48,129.29
3405,C3,652.0,0.25,33,129.29
3406,C4,652.5,0.25,29,129.29
3407,G#3,652.5,0.25,29,129.29
3408,C5,653.0,1.0,48,129.29
3409,E-3,653.0,0.25,29,129.29
3410,C4,653.5,0.25,29,129.29
3411,G#3,653.5,0.25,29,129.29
3412,G#4,654.0,1.0,48,129.29
3413,C3,654.0,0.25,33,129.29
3414,G#3,654.5,0.25,28,129.29
3415,C4,654.5,0.25,28,129.29
3416,B-4,655.0,0.25,48,129.29
3417,E-3,655.0,0.25,29,129.29
3418,C5,655.5,0.25,46,129.29
3419,C4,655.5,0.25,29,129.29
3420,G#3,655.5,0.25,29,129.29
3421,E-5,656.0,1.0,48,129.29
3422,C#3,656.0,0.5,33,129.29
3423,G3,656.5,0.5,29,129.29
3424,B-3,656.5,0.5,29,129.29
3425,C#5,657.0,0.5,48,129.29
3426,E-3,657.0,0.5,29,129.29
3427,C5,657.5,0.5,48,129.29
3428,B-3,657.5,0.5,29,129.29
3429,G3,657.5,0.5,29,129.29
3430,B-4,658.0,1.0,48,129.29
3431,C#3,658.0,0.5,33,129.29
3432,G3,658.5,0.5,28,129.29
3433,B-3,658.5,0.5,28,129.29
3434,C5,659.0,0.25,48,129.29
3435,E-3,659.0,0.375,29,129.29
3436,C#5,659.5,0.25,46,129.29
3437,B-3,659.5,0.375,29,129.29
3438,G3,659.5,0.375,29,129.29
3439,E-5,660.0,0.25,46,129.29
3440,C3,660.0,0.5,31,129.29
3441,F5,660.25,0.25,42,129.29
3442,E-5,660.5,0.25,42,129.29
3443,G#3,660.5,0.5,25,129.29
3444,C4,660.5,0.5,25,129.29
3445,C#5,660.75,0.25,42,129.29
3446,C5,661.0,0.25,47,129.29
3447,E-3,661.0,0.5,27,129.29
3448,C#5,661.25,0.25,42,129.29
3449,C5,661.5,0.25,42,129.29
3450,C4,661.5,0.5,25,129.29
3451,G#3,661.5,0.5,25,129.29
3452,B-4,661.75,0.25,42,129.29
3453,G#4,662.0,1.0,48,129.29
3454,C3,662.0,0.5,32,129.29
3455,C4,662.5,0.5,25,129.29
3456,G#3,662.5,0.5,25,129.29
3457,B-4,663.0,0.25,48,129.29
3458,E-3,663.0,0.25,32,129.29
3459,C5,663.5,0.25,44,129.29
3460,G#3,663.5,0.25,25,129.29
3461,C4,663.5,0.25,25,129.29
3462,E-5,664.0,0.5,48,129.29
3463,C#3,664.0,0.5,32,129.29
3464,C#5,664.5,0.25,48,129.29
3465,B-3,664.5,0.25,29,129.29
3466,G3,664.5,0.25,29,129.29
3467,C#5,665.0,0.25,48,129.29
3468,E-3,665.0,0.5,32,129.29
3469,E-5,665.25,0.25,44,129.29
3470,C#5,665.5,0.25,44,129.29
3471,B-3,665.5,0.5,29,129.29
3472,G3,665.5,0.5,29,129.29
3473,C5,665.75,0.25,44,129.29
3474,B-4,666.0,0.5,48,129.29
3475,C#3,666.0,0.5,34,129.29
3476,E-5,666.5,0.25,49,129.29
3477,B-3,666.5,0.25,29,129.29
3478,G3,666.5,0.25,29,129.29
3479,F5,667.0,0.25,53,129.29
3480,E-3,667.0,0.25,31,129.29
3481,G5,667.5,0.25,56,129.29
3482,B-3,667.5,0.25,34,129.29
3483,G3,667.5,0.25,34,129.29
3484,C3,668.0,0.5,37,129.29
3485,G#5,668.0,2.0,54,129.29
3486,G#4,668.0,2.0,54,129.29
3487,G#3,668.5,0.5,30,129.29
3488,C4,668.5,0.5,30,129.29
3489,E-3,669.0,0.5,32,129.29
3490,G#3,669.5,0.5,30,129.29
3491,C4,669.5,0.5,30,129.29
3492,C3,670.0,0.5,37,129.29
3493,C5,670.0,1.5,56,129.29
3494,C6,670.0,1.5,56,129.29
3495,C4,670.5,0.5,30,129.29
3496,G#3,670.5,0.5,30,129.29
3497,E-3,671.0,0.5,32,129.29
3498,G#5,671.5,0.5,51,129.29
3499,G#4,671.5,0.5,51,129.29
3500,C4,671.5,0.5,30,129.29
3501,G#3,671.5,0.5,30,129.29
3502,C#3,672.0,0.5,37,129.29
3503,G#4,672.0,1.0,54,129.29
3504,G#5,672.0,1.0,54,129.29
3505,B-3,672.5,0.5,30,129.29
3506,G3,672.5,0.5,30,129.29
3507,E3,673.0,0.5,32,129.29
3508,G4,673.0,1.0,51,129.29
3509,G5,673.0,1.0,51,129.29
3510,B-3,673.5,0.5,30,129.29
3511,G3,673.5,0.5,30,129.29
3512,C#3,674.0,0.5,37,129.29
3513,B-3,674.5,0.5,30,129.29
3514,G3,674.5,0.5,30,129.29
3515,E3,675.0,0.5,36,129.29
3516,G4,675.0,1.0,51,129.29
3517,G5,675.0,1.0,51,129.29
3518,B-3,675.5,0.5,36,129.29
3519,G3,675.5,0.5,36,129.29
3520,D3,676.0,0.5,44,129.29
3521,G4,676.0,1.0,52,129.29
3522,G5,676.0,1.0,52,129.29
3523,D4,676.5,0.5,34,129.29
3524,B-3,676.5,0.5,34,129.29
3525,F3,677.0,0.5,38,129.29
3526,G4,677.0,0.5,58,129.29
3527,G5,677.0,0.5,58,129.29
3528,F4,677.5,0.5,54,129.29
3529,F5,677.5,0.5,54,129.29
3530,D4,677.5,0.5,34,129.29
3531,B-3,677.5,0.5,34,129.29
3532,D3,678.0,0.5,48,129.29
3533,B-4,678.0,1.0,54,129.29
3534,B-5,678.0,1.0,54,129.29
3535,D4,678.5,0.5,34,129.29
3536,B-3,678.5,0.5,34,129.29
3537,F3,679.0,0.5,37,129.29
3538,D4,679.5,0.5,34,129.29
3539,B-3,679.5,0.5,34,129.29
3540,E-3,680.0,0.5,50,129.29
3541,B-4,680.0,1.0,54,129.29
3542,B-5,680.0,1.0,54,129.29
3543,E-4,680.5,0.5,37,129.29
3544,C4,680.5,0.5,37,129.29
3545,G3,681.0,0.5,37,129.29
3546,A4,681.0,1.0,56,129.29
3547,A5,681.0,1.0,56,129.29
3548,E-4,681.5,0.5,34,129.29
3549,C4,681.5,0.5,34,129.29
3550,F3,682.0,0.5,44,129.29
3551,A4,682.0,0.5,56,129.29
3552,A5,682.0,0.5,56,129.29
3553,G5,682.5,0.5,50,129.29
3554,G4,682.5,0.5,50,129.29
3555,D4,682.5,0.5,31,129.29
3556,B-3,682.5,0.5,31,129.29
3557,F3,683.0,0.5,34,129.29
3558,E-6,683.0,1.0,65,129.29
3559,E-5,683.0,1.0,65,129.29
3560,E-4,683.5,0.5,31,129.29
3561,A3,683.5,0.5,31,129.29
3562,B-2,684.0,0.5,38,129.29
3563,D6,684.0,1.0,58,129.29
3564,D5,684.0,1.0,58,129.29
3565,D4,684.5,0.5,28,129.29
3566,B-3,684.5,0.5,28,129.29
3567,D3,685.0,0.5,30,129.29
3568,C6,685.0,1.0,49,129.29
3569,C5,685.0,1.0,49,129.29
3570,D4,685.5,0.5,28,129.29
3571,B-3,685.5,0.5,28,129.29
3572,F3,686.0,0.5,36,129.29
3573,B-4,686.0,0.5,48,129.29
3574,B-5,686.0,0.5,48,129.29
3575,D4,686.5,0.5,28,129.29
3576,B-3,686.5,0.5,28,129.29
3577,D5,687.0,0.25,46,129.29
3578,F#3,687.0,0.5,30,129.29
3579,D5,687.333,0.25,48,129.29
3580,D4,687.5,0.5,28,129.29
3581,C4,687.5,0.5,28,129.29
3582,D5,687.667,0.25,50,129.29
3583,D5,688.0,0.25,51,129.29
3584,D4,688.0,0.5,31,129.29
3585,B3,688.0,0.5,31,129.29
3586,G3,688.0,0.5,31,129.29
3587,D5,688.333,0.25,49,129.29
3588,D5,688.667,0.25,47,129.29
3589,D5,689.0,0.25,51,129.29
3590,G3,689.0,1.0,86,129.29
3591,G4,689.0,1.0,86,129.29
3592,C5,689.25,0.25,46,129.29
3593,D5,689.5,0.25,47,129.29
3594,E-5,689.75,0.25,47,129.29
3595,D5,690.0,0.5,53,129.29
3596,G3,690.0,2.0,86,129.29
3597,G4,690.0,2.0,86,129.29
3598,G3,692.0,0.5,42,129.29
3599,G4,692.5,0.25,31,129.29
3600,F4,693.0,0.25,28,129.29
3601,D4,693.0,0.25,28,129.29
3602,D6,693.5,0.25,52,129.29
3603,G4,693.5,0.25,32,129.29
3604,C6,694.0,0.5,63,129.29
3605,G3,694.0,0.5,44,129.29
3606,B5,694.5,0.25,37,129.29
3607,G4,694.5,0.5,31,129.29
3608,B5,695.0,0.25,43,129.29
3609,C4,695.0,0.5,32,129.29
3610,E-4,695.0,0.5,32,129.29
3611,B5,695.5,0.25,37,129.29
3612,G4,695.5,0.5,32,129.29
3613,B5,696.0,0.25,55,129.29
3614,G3,696.0,0.5,42,129.29
3615,C6,696.25,0.25,49,129.29
3616,G6,696.5,0.5,59,129.29
3617,G4,696.5,0.25,31,129.29
3618,F6,697.0,0.25,50,129.29
3619,F4,697.0,0.25,28,129.29
3620,D4,697.0,0.25,28,129.29
3621,E-6,697.25,0.25,45,129.29
3622,D6,697.5,0.25,45,129.29
3623,G4,697.5,0.25,29,129.29
3624,C6,697.75,0.25,45,129.29
3625,C6,698.0,0.5,63,129.29
3626,G3,698.0,0.5,44,129.29
3627,B5,698.5,0.25,37,129.29
3628,G4,698.5,0.25,32,129.29
3629,B5,699.0,0.25,44,129.29
3630,F#3,699.0,0.25,31,129.29
3631,C4,699.0,0.25,31,129.29
3632,E-4,699.0,0.25,31,129.29
3633,B5,699.5,0.25,37,129.29
3634,F#4,699.5,0.5,35,129.29
3635,B5,700.0,0.5,57,129.29
3636,F3,700.0,0.5,42,129.29
3637,C6,700.5,0.25,47,129.29
3638,F4,700.5,0.25,35,129.29
3639,D4,701.0,0.25,35,129.29
3640,E-6,701.5,0.5,54,129.29
3641,F4,701.5,0.25,36,129.29
3642,C6,702.0,0.5,63,129.29
3643,G3,702.0,0.5,42,129.29
3644,B-5,702.5,0.25,52,129.29
3645,E4,702.5,0.25,36,129.29
3646,B-5,703.0,0.25,54,129.29
3647,C4,703.0,0.25,36,129.29
3648,B-5,703.5,0.25,54,129.29
3649,E4,703.5,0.25,36,129.29
3650,C6,704.0,0.5,63,129.29
3651,D4,704.0,0.5,38,129.29
3652,F3,704.0,0.5,38,129.29
3653,B-5,704.5,0.25,53,129.29
3654,F4,704.5,0.5,33,129.29
3655,B-5,705.0,0.25,55,129.29
3656,A3,705.0,0.25,32,129.29
3657,F3,705.0,0.25,32,129.29
3658,B-5,705.5,0.25,55,129.29
3659,E-4,705.5,0.25,34,129.29
3660,G5,706.0,0.25,63,129.29
3661,D4,706.0,0.5,42,129.29
3662,B-3,706.0,0.5,42,129.29
3663,F5,706.25,0.25,52,129.29
3664,E5,706.5,0.25,53,129.29
3665,F4,706.5,0.5,38,129.29
3666,F5,706.75,0.25,53,129.29
3667,E-5,707.0,0.25,58,129.29
3668,D4,707.0,0.5,38,129.29
3669,C5,707.5,0.25,54,129.29
3670,B-3,707.5,0.5,38,129.29
3671,B-4,708.0,0.25,58,129.29
3672,G3,708.0,0.5,43,129.29
3673,D5,708.5,0.25,55,129.29
3674,E4,708.5,0.25,37,129.29
3675,F5,709.0,0.25,55,129.29
3676,B-3,709.0,0.5,39,129.29
3677,B-5,709.5,0.25,55,129.29
3678,E4,709.5,0.5,42,129.29
3679,D6,710.0,0.5,60,129.29
3680,F3,710.0,0.5,35,129.29
3681,C6,710.5,0.25,58,129.29
3682,F4,710.5,0.5,33,129.29
3683,C6,711.0,0.25,61,129.29
3684,A3,711.0,0.25,35,129.29
3685,C6,711.5,0.25,58,129.29
3686,F4,711.5,0.25,34,129.29
3687,G5,712.0,0.25,63,129.29
3688,G3,712.0,0.5,43,129.29
3689,F5,712.25,0.25,52,129.29
3690,E5,712.5,0.25,53,129.29
3691,E4,712.5,0.25,35,129.29
3692,F5,712.75,0.25,53,129.29
3693,C5,713.0,0.25,58,129.29
3694,B-3,713.0,0.5,35,129.29
3695,A4,713.5,0.25,54,129.29
3696,E4,713.5,0.5,36,129.29
3697,D6,714.0,0.5,65,129.29
3698,F3,714.0,1.0,31,129.29
3699,A3,714.0,1.0,31,129.29
3700,F4,714.0,1.0,31,129.29
3701,C6,714.5,0.25,58,129.29
3702,C6,715.0,0.25,61,129.29
3703,C6,715.5,0.25,58,129.29
3704,G5,716.0,0.25,63,129.29
3705,F5,716.25,0.25,52,129.29
3706,E5,716.5,0.25,53,129.29
3707,C4,716.5,0.25,39,129.29
3708,F5,716.75,0.25,53,129.29
3709,C5,717.0,0.25,58,129.29
3710,A3,717.0,0.25,43,129.29
3711,A4,717.5,0.25,54,129.29
3712,G3,717.5,0.25,47,129.29
3713,F4,718.0,0.25,46,129.29
3714,F3,718.0,0.25,50,129.29
3715,E-3,718.5,0.25,46,129.29
3716,D3,719.0,0.25,43,129.29
3717,C3,719.5,0.25,39,129.29
3718,B-1,720.5,0.25,33,129.29
3719,A4,720.5,0.25,52,129.29
3720,C5,720.5,0.25,52,129.29
3721,F5,720.5,0.25,52,129.29
3722,A4,721.0,0.25,52,129.29
3723,D5,721.0,0.25,52,129.29
3724,F5,721.0,0.25,52,129.29
3725,B-2,721.5,0.25,33,129.29
3726,A4,721.5,0.25,52,129.29
3727,E-5,721.5,0.25,52,129.29
3728,F5,721.5,0.25,52,129.29
3729,F5,722.0,1.0,52,129.29
3730,D5,722.25,0.25,34,129.29
3731,B-4,722.5,0.25,33,129.29
3732,D3,722.5,0.25,33,129.29
3733,D5,722.75,0.25,33,129.29
3734,B-5,723.0,1.0,53,129.29
3735,D5,723.25,0.25,39,129.29
3736,B-4,723.5,0.25,39,129.29
3737,E-3,723.5,0.25,33,129.29
3738,D5,723.75,0.25,39,129.29
3739,F5,724.0,0.25,52,129.29
3740,A5,724.0,1.0,52,129.29
3741,D5,724.25,0.25,38,129.29
3742,A4,724.5,0.25,38,129.29
3743,G3,724.5,0.5,33,129.29
3744,D5,724.75,0.25,38,129.29
3745,E-5,725.0,0.25,51,129.29
3746,G5,725.0,1.0,51,129.29
3747,B-4,725.25,0.25,34,129.29
3748,G4,725.5,0.25,34,129.29
3749,B-3,725.5,0.5,33,129.29
3750,B-4,725.75,0.25,34,129.29
3751,D5,726.0,0.25,51,129.29
3752,G5,726.0,1.0,51,129.29
3753,B-4,726.25,0.25,35,129.29
3754,G4,726.5,0.25,35,129.29
3755,D4,726.5,0.5,33,129.29
3756,B-4,726.75,0.25,35,129.29
3757,D5,727.0,0.25,49,129.29
3758,F5,727.0,1.0,49,129.29
3759,B-4,727.25,0.25,35,129.29
3760,F4,727.5,0.25,35,129.29
3761,F2,727.5,0.5,33,129.29
3762,B-4,727.75,0.25,35,129.29
3763,D5,728.0,0.25,50,129.29
3764,F5,728.0,1.0,50,129.29
3765,A4,728.25,0.25,36,129.29
3766,F4,728.5,0.25,36,129.29
3767,G2,728.5,0.5,33,129.29
3768,A4,728.75,0.25,36,129.29
3769,C5,729.0,0.25,49,129.29
3770,E-5,729.0,1.0,49,129.29
3771,A4,729.25,0.25,34,129.29
3772,E-4,729.5,0.25,34,129.29
3773,B-2,729.5,0.5,33,129.29
3774,A4,729.75,0.25,34,129.29
3775,B-4,730.0,0.25,50,129.29
3776,E-5,730.0,1.0,50,129.29
3777,G4,730.25,0.25,35,129.29
3778,E-4,730.5,0.25,35,129.29
3779,D3,730.5,0.5,33,129.29
3780,G4,730.75,0.25,35,129.29
3781,B-4,731.0,0.25,49,129.29
3782,D5,731.0,1.0,49,129.29
3783,G4,731.25,0.25,35,129.29
3784,D4,731.5,0.25,35,129.29
3785,F#3,731.5,0.5,33,129.29
3786,G4,731.75,0.25,35,129.29
3787,A4,732.0,0.25,48,129.29
3788,D5,732.0,1.0,48,129.29
3789,F#4,732.25,0.25,36,129.29
3790,D4,732.5,0.25,36,129.29
3791,G3,732.5,0.25,33,129.29
3792,F#4,732.75,0.25,36,129.29
3793,C5,733.0,1.0,47,129.29
3794,A3,733.0,0.25,33,129.29
3795,A4,733.25,0.25,35,129.29
3796,D4,733.5,0.25,35,129.29
3797,B-3,733.5,0.25,33,129.29
3798,A4,733.75,0.25,35,129.29
3799,C5,734.0,1.0,48,129.29
3800,C4,734.0,0.5,33,129.29
3801,G4,734.25,0.25,38,129.29
3802,F4,734.25,0.25,35,129.29
3803,D4,734.5,0.25,42,129.29
3804,C4,734.5,0.25,35,129.29
3805,G4,734.75,0.25,45,129.29
3806,F4,734.75,0.25,35,129.29
3807,B-4,735.0,1.0,52,129.29
3808,C3,735.0,0.5,33,129.29
3809,G4,735.25,0.25,39,129.29
3810,E4,735.25,0.25,33,129.29
3811,D4,735.5,0.25,39,129.29
3812,B-3,735.5,0.25,33,129.29
3813,G4,735.75,0.25,39,129.29
3814,E4,735.75,0.25,33,129.29
3815,A4,736.0,1.0,49,129.29
3816,A3,736.0,0.25,36,129.29
3817,F2,736.0,0.25,36,129.29
3818,F3,736.0,0.25,36,129.29
3819,F4,736.0,0.25,36,129.29
3820,C4,736.5,0.25,39,129.29
3821,G4,737.0,1.0,47,129.29
3822,A3,737.0,0.25,43,129.29
3823,G3,737.5,0.25,47,129.29
3824,F3,738.0,0.25,50,129.29
3825,E-3,738.5,0.25,46,129.29
3826,D3,739.0,0.25,43,129.29
3827,C3,739.5,0.25,39,129.29
3828,B-1,740.5,0.5,33,129.29
3829,A4,740.5,0.25,52,129.29
3830,C5,740.5,0.25,52,129.29
3831,F5,740.5,0.25,52,129.29
3832,A4,741.0,0.25,52,129.29
3833,D5,741.0,0.25,52,129.29
3834,F5,741.0,0.25,52,129.29
3835,B-2,741.5,0.5,33,129.29
3836,A4,741.5,0.25,52,129.29
3837,E-5,741.5,0.25,52,129.29
3838,F5,741.5,0.25,52,129.29
3839,F5,742.0,1.0,52,129.29
3840,D5,742.25,0.25,37,129.29
3841,B-4,742.5,0.25,37,129.29
3842,D3,742.5,0.5,33,129.29
3843,D5,742.75,0.25,37,129.29
3844,B-5,743.0,1.0,53,129.29
3845,D5,743.25,0.25,40,129.29
3846,B-4,743.5,0.25,40,129.29
3847,E-3,743.5,0.5,33,129.29
3848,D5,743.75,0.25,42,129.29
3849,F5,744.0,0.25,52,129.29
3850,A5,744.0,1.0,52,129.29
3851,D5,744.25,0.25,38,129.29
3852,A4,744.5,0.25,38,129.29
3853,G3,744.5,0.5,33,129.29
3854,D5,744.75,0.25,38,129.29
3855,E-5,745.0,0.25,51,129.29
3856,G5,745.0,1.0,51,129.29
3857,B-4,745.25,0.25,34,129.29
3858,G4,745.5,0.25,34,129.29
3859,B-3,745.5,0.5,33,129.29
3860,B-4,745.75,0.25,34,129.29
3861,D5,746.0,0.25,48,129.29
3862,G5,746.0,1.0,48,129.29
3863,B-4,746.25,0.25,37,129.29
3864,G4,746.5,0.25,37,129.29
3865,D4,746.5,0.5,33,129.29
3866,B-4,746.75,0.25,37,129.29
3867,D5,747.0,0.25,49,129.29
3868,F5,747.0,1.0,49,129.29
3869,B-4,747.25,0.25,35,129.29
3870,F4,747.5,0.25,35,129.29
3871,F2,747.5,0.5,33,129.29
3872,B-4,747.75,0.25,35,129.29
3873,D5,748.0,0.25,49,129.29
3874,F5,748.0,1.0,49,129.29
3875,A4,748.25,0.25,36,129.29
3876,F4,748.5,0.25,36,129.29
3877,G2,748.5,0.5,33,129.29
3878,A4,748.75,0.25,37,129.29
3879,C5,749.0,0.25,49,129.29
3880,E-5,749.0,1.0,49,129.29
3881,A4,749.25,0.25,35,129.29
3882,E-4,749.5,0.25,35,129.29
3883,B-2,749.5,0.5,33,129.29
3884,A4,749.75,0.25,35,129.29
3885,B-4,750.0,0.25,50,129.29
3886,E-5,750.0,1.0,50,129.29
3887,G4,750.25,0.25,36,129.29
3888,E-4,750.5,0.25,36,129.29
3889,D3,750.5,0.5,33,129.29
3890,G4,750.75,0.25,36,129.29
3891,B-4,751.0,0.25,49,129.29
3892,D5,751.0,1.0,49,129.29
3893,G4,751.25,0.25,36,129.29
3894,D4,751.5,0.25,36,129.29
3895,F#3,751.5,0.5,33,129.29
3896,G4,751.75,0.25,36,129.29
3897,A4,752.0,0.25,48,129.29
3898,D5,752.0,1.0,48,129.29
3899,F#4,752.25,0.25,36,129.29
3900,D4,752.5,0.25,36,129.29
3901,G3,752.5,0.25,33,129.29
3902,F#4,752.75,0.25,36,129.29
3903,C5,753.0,1.0,47,129.29
3904,A3,753.0,0.25,33,129.29
3905,A4,753.25,0.25,37,129.29
3906,D4,753.5,0.25,37,129.29
3907,B3,753.5,0.25,33,129.29
3908,A4,753.75,0.25,37,129.29
3909,C5,754.0,1.0,48,129.29
3910,C3,754.0,0.5,33,129.29
3911,A4,754.25,0.25,38,129.29
3912,D4,754.5,0.25,42,129.29
3913,A4,754.75,0.25,45,129.29
3914,B4,755.0,1.0,52,129.29
3915,D3,755.0,0.5,33,129.29
3916,G4,755.25,0.25,43,129.29
3917,D4,755.5,0.25,44,129.29
3918,G4,755.75,0.25,44,129.29
3919,A4,756.0,1.0,49,129.29
3920,G4,756.25,0.25,40,129.29
3921,E4,756.5,0.25,38,129.29
3922,G3,756.5,0.5,33,129.29
3923,G4,756.75,0.25,36,129.29
3924,B4,757.0,1.0,45,129.29
3925,F#4,757.25,0.25,33,129.29
3926,D4,757.5,0.25,33,129.29
3927,C3,757.5,0.5,33,129.29
3928,F#4,757.75,0.25,33,129.29
3929,G4,758.0,1.0,43,129.29
3930,D4,758.25,0.25,35,129.29
3931,B3,758.5,0.25,35,129.29
3932,G2,758.5,0.5,33,129.29
3933,D4,758.75,0.25,35,129.29
3934,A4,759.0,1.0,49,129.29
3935,E4,759.25,0.25,35,129.29
3936,C4,759.5,0.25,35,129.29
3937,G2,759.5,0.5,36,129.29
3938,E4,759.75,0.25,35,129.29
3939,B4,760.0,1.0,49,129.29
3940,F4,760.25,0.25,35,129.29
3941,D4,760.5,0.25,36,129.29
3942,C2,760.5,0.5,36,129.29
3943,F4,760.75,0.25,36,129.29
3944,B4,761.0,1.0,52,129.29
3945,F4,761.25,0.25,38,129.29
3946,D4,761.5,0.25,38,129.29
3947,C2,761.5,0.5,34,129.29
3948,F4,761.75,0.25,39,129.29
3949,B4,762.0,1.0,56,129.29
3950,F4,762.25,0.25,39,129.29
3951,D4,762.5,0.25,39,129.29
3952,D2,762.5,0.5,33,129.29
3953,F4,762.75,0.25,38,129.29
3954,C5,763.0,1.0,52,129.29
3955,G4,763.25,0.25,37,129.29
3956,E4,763.5,0.25,36,129.29
3957,D2,763.5,0.5,33,129.29
3958,G4,763.75,0.25,35,129.29
3959,B4,764.0,1.0,49,129.29
3960,G4,764.25,0.25,35,129.29
3961,D4,764.5,0.25,35,129.29
3962,G2,764.5,0.5,33,129.29
3963,G4,764.75,0.25,35,129.29
3964,A4,765.0,1.0,49,129.29
3965,F#4,765.25,0.25,35,129.29
3966,D4,765.5,0.25,35,129.29
3967,G3,765.5,0.5,33,129.29
3968,F#4,765.75,0.25,35,129.29
3969,B4,766.0,1.0,47,129.29
3970,G4,766.25,0.25,35,129.29
3971,F4,766.5,0.25,35,129.29
3972,G3,766.5,0.5,33,129.29
3973,G4,766.75,0.25,35,129.29
3974,C5,767.0,1.0,49,129.29
3975,A4,767.25,0.25,35,129.29
3976,F4,767.5,0.25,35,129.29
3977,G3,767.5,0.5,36,129.29
3978,A4,767.75,0.25,35,129.29
3979,D5,768.0,1.0,49,129.29
3980,B4,768.25,0.25,35,129.29
3981,F4,768.5,0.25,36,129.29
3982,C3,768.5,0.5,36,129.29
3983,B4,768.75,0.25,36,129.29
3984,D5,769.0,1.0,52,129.29
3985,B4,769.25,0.25,38,129.29
3986,F4,769.5,0.25,38,129.29
3987,C3,769.5,0.5,34,129.29
3988,B4,769.75,0.25,39,129.29
3989,D5,770.0,1.0,56,129.29
3990,B4,770.25,0.25,39,129.29
3991,F4,770.5,0.25,39,129.29
3992,D3,770.5,0.5,33,129.29
3993,B4,770.75,0.25,38,129.29
3994,E5,771.0,1.0,52,129.29
3995,C5,771.25,0.25,37,129.29
3996,E4,771.5,0.25,36,129.29
3997,D3,771.5,0.5,33,129.29
3998,C5,771.75,0.25,35,129.29
3999,D5,772.0,1.0,49,129.29
4000,G3,772.0,2.0,29,129.29
4001,B4,772.25,0.25,35,129.29
4002,G4,772.5,0.25,35,129.29
4003,B4,772.75,0.25,35,129.29
4004,D5,773.0,1.0,49,129.29
4005,B3,773.0,1.0,29,129.29
4006,A4,773.25,0.25,35,129.29
4007,F#4,773.5,0.25,35,129.29
4008,A4,773.75,0.25,35,129.29
4009,D5,774.0,1.0,42,129.29
4010,D4,774.0,1.0,29,129.29
4011,G3,774.0,2.0,29,129.29
4012,B4,774.25,0.25,31,129.29
4013,G4,774.5,0.25,31,129.29
4014,B4,774.75,0.25,31,129.29
4015,G5,775.0,1.0,39,129.29
4016,C4,775.0,1.0,32,129.29
4017,D5,775.25,0.25,31,129.29
4018,G4,775.5,0.25,31,129.29
4019,D5,775.75,0.25,31,129.29
4020,F#5,776.0,1.0,44,129.29
4021,B3,776.0,1.0,32,129.29
4022,G3,776.0,1.0,29,129.29
4023,D5,776.25,0.25,31,129.29
4024,A4,776.5,0.25,32,129.29
4025,D5,776.75,0.25,32,129.29
4026,A5,777.0,1.0,40,129.29
4027,C3,777.0,1.0,30,129.29
4028,G3,777.0,1.0,30,129.29
4029,D5,777.25,0.25,34,129.29
4030,A4,777.5,0.25,33,129.29
4031,D5,777.75,0.25,33,129.29
4032,D5,778.0,1.0,39,129.29
4033,F#3,778.0,1.0,29,129.29
4034,D3,778.0,2.0,29,129.29
4035,B4,778.25,0.25,32,129.29
4036,G4,778.5,0.25,32,129.29
4037,B4,778.75,0.25,32,129.29
4038,E5,779.0,1.0,39,129.29
4039,A3,779.0,1.0,29,129.29
4040,C5,779.25,0.25,31,129.29
4041,G4,779.5,0.25,31,129.29
4042,C5,779.75,0.25,31,129.29
4043,D5,780.0,1.0,40,129.29
4044,G3,780.0,2.0,29,129.29
4045,C5,780.25,0.25,31,129.29
4046,A4,780.5,0.25,31,129.29
4047,C5,780.75,0.25,31,129.29
4048,D5,781.0,1.0,38,129.29
4049,B3,781.0,1.0,29,129.29
4050,C5,781.25,0.25,31,129.29
4051,F#4,781.5,0.25,31,129.29
4052,C5,781.75,0.25,31,129.29
4053,D5,782.0,1.0,42,129.29
4054,D4,782.0,0.5,29,129.29
4055,G3,782.0,2.0,29,129.29
4056,B4,782.25,0.25,31,129.29
4057,G4,782.5,0.25,31,129.29
4058,E-4,782.5,0.5,26,129.29
4059,B4,782.75,0.25,31,129.29
4060,G5,783.0,1.0,39,129.29
4061,D4,783.0,0.5,29,129.29
4062,D5,783.25,0.25,31,129.29
4063,G4,783.5,0.25,31,129.29
4064,C4,783.5,0.5,27,129.29
4065,D5,783.75,0.25,31,129.29
4066,F#5,784.0,1.0,44,129.29
4067,B3,784.0,1.0,32,129.29
4068,G3,784.0,1.0,29,129.29
4069,D5,784.25,0.25,31,129.29
4070,A4,784.5,0.25,32,129.29
4071,D5,784.75,0.25,32,129.29
4072,A5,785.0,1.0,40,129.29
4073,C3,785.0,1.0,30,129.29
4074,G3,785.0,1.0,30,129.29
4075,D5,785.25,0.25,34,129.29
4076,A4,785.5,0.25,33,129.29
4077,D5,785.75,0.25,33,129.29
4078,D5,786.0,1.0,40,129.29
4079,F#3,786.0,1.0,29,129.29
4080,D3,786.0,2.0,29,129.29
4081,B4,786.25,0.25,32,129.29
4082,G4,786.5,0.25,32,129.29
4083,B4,786.75,0.25,32,129.29
4084,E-5,787.0,1.0,39,129.29
4085,A3,787.0,1.0,29,129.29
4086,C5,787.25,0.25,31,129.29
4087,G4,787.5,0.25,31,129.29
4088,C5,787.75,0.25,31,129.29
4089,D5,788.0,1.0,39,129.29
4090,G3,788.0,2.0,32,129.29
4091,C5,788.25,0.25,31,129.29
4092,A4,788.5,0.25,31,129.29
4093,C5,788.75,0.25,31,129.29
4094,D5,789.0,1.0,38,129.29
4095,C3,789.0,1.0,28,129.29
4096,C5,789.25,0.25,31,129.29
4097,F#4,789.5,0.25,31,129.29
4098,C5,789.75,0.25,31,129.29
4099,D5,790.0,1.0,44,129.29
4100,F#3,790.0,1.0,26,129.29
4101,D3,790.0,2.0,26,129.29
4102,B4,790.25,0.25,31,129.29
4103,G4,790.5,0.25,31,129.29
4104,B4,790.75,0.25,31,129.29
4105,E-5,791.0,1.0,37,129.29
4106,A3,791.0,1.0,26,129.29
4107,C5,791.25,0.25,29,129.29
4108,G4,791.5,0.25,28,129.29
4109,C5,791.75,0.25,28,129.29
4110,D5,792.0,1.0,36,129.29
4111,G2,792.0,1.0,26,129.29
4112,C5,792.25,0.25,28,129.29
4113,A4,792.5,0.25,28,129.29
4114,C5,792.75,0.25,28,129.29
4115,D5,793.0,1.0,34,129.29
4116,B-2,793.0,1.0,26,129.29
4117,C5,793.25,0.25,28,129.29
4118,F#4,793.5,0.25,28,129.29
4119,C5,793.75,0.25,28,129.29
4120,D5,794.0,1.0,36,129.29
4121,D3,794.0,1.0,26,129.29
4122,B-4,794.25,0.25,28,129.29
4123,G4,794.5,0.25,28,129.29
4124,B-4,794.75,0.25,28,129.29
4125,D5,795.0,1.0,34,129.29
4126,F3,795.0,1.0,26,129.29
4127,B-4,795.25,0.25,28,129.29
4128,F4,795.5,0.25,28,129.29
4129,B-4,795.75,0.25,28,129.29
4130,D5,796.0,1.0,36,129.29
4131,F2,796.0,1.0,26,129.29
4132,A4,796.25,0.25,28,129.29
4133,F4,796.5,0.25,28,129.29
4134,A4,796.75,0.25,28,129.29
4135,C5,797.0,1.0,34,129.29
4136,G#2,797.0,1.0,26,129.29
4137,A4,797.25,0.25,28,129.29
4138,F4,797.5,0.25,28,129.29
4139,A4,797.75,0.25,28,129.29
4140,C5,798.0,1.0,36,129.29
4141,C3,798.0,1.0,26,129.29
4142,G#4,798.25,0.25,28,129.29
4143,F4,798.5,0.25,28,129.29
4144,G#4,798.75,0.25,28,129.29
4145,C5,799.0,1.0,34,129.29
4146,E-3,799.0,1.0,26,129.29
4147,G#4,799.25,0.25,28,129.29
4148,E-4,799.5,0.25,28,129.29
4149,G#4,799.75,0.25,28,129.29
4150,C5,800.0,1.0,36,129.29
4151,E-2,800.0,1.0,29,129.29
4152,G4,800.25,0.25,28,129.29
4153,E-4,800.5,0.25,28,129.29
4154,G4,800.75,0.25,28,129.29
4155,B-4,801.0,1.0,34,129.29
4156,G2,801.0,1.0,30,129.29
4157,G4,801.25,0.25,28,129.29
4158,E-4,801.5,0.25,28,129.29
4159,G4,801.75,0.25,28,129.29
4160,B-4,802.0,1.0,42,129.29
4161,B-2,802.0,1.0,31,129.29
4162,G4,802.25,0.25,32,129.29
4163,E-4,802.5,0.25,32,129.29
4164,G4,802.75,0.25,32,129.29
4165,B-4,803.0,1.0,39,129.29
4166,D3,803.0,1.0,32,129.29
4167,G4,803.25,0.25,33,129.29
4168,D4,803.5,0.25,33,129.29
4169,G4,803.75,0.25,33,129.29
4170,B-4,804.0,1.0,44,129.29
4171,F2,804.0,1.0,29,129.29
4172,F4,804.25,0.25,34,129.29
4173,D4,804.5,0.25,34,129.29
4174,F4,804.75,0.25,34,129.29
4175,A4,805.0,1.0,43,129.29
4176,E-2,805.0,1.0,32,129.29
4177,F4,805.25,0.25,35,129.29
4178,D4,805.5,0.25,35,129.29
4179,F4,805.75,0.25,35,129.29
4180,A4,806.0,1.0,46,129.29
4181,D2,806.0,1.0,36,129.29
4182,F4,806.25,0.25,34,129.29
4183,C4,806.5,0.25,36,129.29
4184,F4,806.75,0.25,38,129.29
4185,F5,807.0,1.0,50,129.29
4186,C2,807.0,1.0,32,129.29
4187,C5,807.25,0.25,38,129.29
4188,A4,807.5,0.25,38,129.29
4189,C5,807.75,0.25,38,129.29
4190,F5,808.0,1.0,51,129.29
4191,D5,808.25,0.25,38,129.29
4192,B-4,808.5,0.25,37,129.29
4193,B-1,808.5,0.5,33,129.29
4194,D5,808.75,0.25,34,129.29
4195,F5,809.0,1.0,43,129.29
4196,E-5,809.25,0.25,35,129.29
4197,A4,809.5,0.25,35,129.29
4198,B-2,809.5,0.5,33,129.29
4199,E-5,809.75,0.25,35,129.29
4200,F5,810.0,1.0,52,129.29
4201,D5,810.25,0.25,38,129.29
4202,B-4,810.5,0.25,38,129.29
4203,D3,810.5,0.5,33,129.29
4204,D5,810.75,0.25,38,129.29
4205,B-5,811.0,1.0,53,129.29
4206,D5,811.25,0.25,43,129.29
4207,B-4,811.5,0.25,44,129.29
4208,E-3,811.5,0.5,33,129.29
4209,D5,811.75,0.25,44,129.29
4210,F5,812.0,0.25,52,129.29
4211,A5,812.0,1.0,52,129.29
4212,D5,812.25,0.25,38,129.29
4213,A4,812.5,0.25,38,129.29
4214,G3,812.5,0.5,33,129.29
4215,D5,812.75,0.25,38,129.29
4216,E-5,813.0,0.25,51,129.29
4217,G5,813.0,1.0,51,129.29
4218,B-4,813.25,0.25,34,129.29
4219,G4,813.5,0.25,34,129.29
4220,B-3,813.5,0.5,33,129.29
4221,B-4,813.75,0.25,34,129.29
4222,D5,814.0,0.25,50,129.29
4223,G5,814.0,1.0,50,129.29
4224,B-4,814.25,0.25,36,129.29
4225,G4,814.5,0.25,36,129.29
4226,D4,814.5,0.5,33,129.29
4227,B-4,814.75,0.25,36,129.29
4228,D5,815.0,0.25,49,129.29
4229,F5,815.0,1.0,49,129.29
4230,B-4,815.25,0.25,35,129.29
4231,F4,815.5,0.25,35,129.29
4232,F2,815.5,0.5,33,129.29
4233,B-4,815.75,0.25,35,129.29
4234,D5,816.0,0.25,50,129.29
4235,F5,816.0,1.0,50,129.29
4236,A4,816.25,0.25,36,129.29
4237,F4,816.5,0.25,36,129.29
4238,G2,816.5,0.5,33,129.29
4239,A4,816.75,0.25,36,129.29
4240,C5,817.0,0.25,49,129.29
4241,E-5,817.0,1.0,49,129.29
4242,A4,817.25,0.25,35,129.29
4243,E-4,817.5,0.25,35,129.29
4244,B-2,817.5,0.5,33,129.29
4245,A4,817.75,0.25,35,129.29
4246,B-4,818.0,0.25,50,129.29
4247,E-5,818.0,1.0,50,129.29
4248,G4,818.25,0.25,36,129.29
4249,E-4,818.5,0.25,36,129.29
4250,D3,818.5,0.5,33,129.29
4251,G4,818.75,0.25,36,129.29
4252,B-4,819.0,0.25,49,129.29
4253,D5,819.0,1.0,49,129.29
4254,G4,819.25,0.25,36,129.29
4255,D4,819.5,0.25,36,129.29
4256,F#3,819.5,0.5,33,129.29
4257,G4,819.75,0.25,36,129.29
4258,A4,820.0,0.25,48,129.29
4259,D5,820.0,1.0,48,129.29
4260,F#4,820.25,0.25,36,129.29
4261,D4,820.5,0.25,36,129.29
4262,G3,820.5,0.25,33,129.29
4263,F#4,820.75,0.25,36,129.29
4264,C5,821.0,1.0,47,129.29
4265,A3,821.0,0.25,33,129.29
4266,A4,821.25,0.25,37,129.29
4267,D4,821.5,0.25,37,129.29
4268,B-3,821.5,0.25,33,129.29
4269,A4,821.75,0.25,37,129.29
4270,C5,822.0,1.0,48,129.29
4271,E-3,822.0,0.5,33,129.29
4272,G4,822.25,0.25,38,129.29
4273,D4,822.5,0.25,42,129.29
4274,G4,822.75,0.25,45,129.29
4275,B-4,823.0,1.0,52,129.29
4276,F3,823.0,0.5,33,129.29
4277,G4,823.25,0.25,43,129.29
4278,D4,823.5,0.25,44,129.29
4279,G4,823.75,0.25,44,129.29
4280,C5,824.0,1.0,49,129.29
4281,B-4,824.25,0.25,35,129.29
4282,G4,824.5,0.25,35,129.29
4283,B-3,824.5,0.5,33,129.29
4284,B-4,824.75,0.25,35,129.29
4285,D5,825.0,1.0,45,129.29
4286,A4,825.25,0.25,33,129.29
4287,F4,825.5,0.25,33,129.29
4288,E-3,825.5,0.5,33,129.29
4289,A4,825.75,0.25,33,129.29
4290,B-4,826.0,1.0,47,129.29
4291,F4,826.25,0.25,35,129.29
4292,D4,826.5,0.25,35,129.29
4293,B-2,826.5,0.5,33,129.29
4294,F4,826.75,0.25,35,129.29
4295,C5,827.0,1.0,49,129.29
4296,G4,827.25,0.25,35,129.29
4297,E-4,827.5,0.25,35,129.29
4298,B-2,827.5,0.5,36,129.29
4299,G4,827.75,0.25,35,129.29
4300,D5,828.0,1.0,49,129.29
4301,G#4,828.25,0.25,35,129.29
4302,F4,828.5,0.25,36,129.29
4303,E-2,828.5,0.5,36,129.29
4304,G#4,828.75,0.25,36,129.29
4305,D5,829.0,1.0,52,129.29
4306,G#4,829.25,0.25,38,129.29
4307,F4,829.5,0.25,38,129.29
4308,E-2,829.5,0.5,34,129.29
4309,G#4,829.75,0.25,39,129.29
4310,D5,830.0,1.0,53,129.29
4311,G#4,830.25,0.25,37,129.29
4312,F4,830.5,0.25,36,129.29
4313,F2,830.5,0.5,33,129.29
4314,G#4,830.75,0.25,36,129.29
4315,E-5,831.0,1.0,49,129.29
4316,B-4,831.25,0.25,37,129.29
4317,G4,831.5,0.25,36,129.29
4318,F2,831.5,0.5,33,129.29
4319,B-4,831.75,0.25,35,129.29
4320,D5,832.0,1.0,49,129.29
4321,B-4,832.25,0.25,35,129.29
4322,F4,832.5,0.25,35,129.29
4323,B-2,832.5,0.5,33,129.29
4324,B-4,832.75,0.25,35,129.29
4325,C5,833.0,1.0,49,129.29
4326,A4,833.25,0.25,35,129.29
4327,F4,833.5,0.25,35,129.29
4328,B-3,833.5,0.5,33,129.29
4329,A4,833.75,0.25,35,129.29
4330,D5,834.0,1.0,47,129.29
4331,B-4,834.25,0.25,35,129.29
4332,G#4,834.5,0.25,35,129.29
4333,B-3,834.5,0.5,33,129.29
4334,B-4,834.75,0.25,35,129.29
4335,E-5,835.0,1.0,49,129.29
4336,C5,835.25,0.25,35,129.29
4337,G#4,835.5,0.25,35,129.29
4338,B-3,835.5,0.5,36,129.29
4339,C5,835.75,0.25,35,129.29
4340,F5,836.0,1.0,49,129.29
4341,D5,836.25,0.25,35,129.29
4342,G#4,836.5,0.25,36,129.29
4343,E-3,836.5,0.5,36,129.29
4344,D5,836.75,0.25,36,129.29
4345,F5,837.0,1.0,52,129.29
4346,D5,837.25,0.25,38,129.29
4347,G#4,837.5,0.25,38,129.29
4348,E-3,837.5,0.5,32,129.29
4349,D5,837.75,0.25,39,129.29
4350,F5,838.0,1.0,56,129.29
4351,D5,838.25,0.25,39,129.29
4352,G#4,838.5,0.25,39,129.29
4353,F3,838.5,0.5,33,129.29
4354,D5,838.75,0.25,38,129.29
4355,G5,839.0,1.0,52,129.29
4356,E-5,839.25,0.25,37,129.29
4357,G4,839.5,0.25,36,129.29
4358,F3,839.5,0.5,33,129.29
4359,E-5,839.75,0.25,35,129.29
4360,F5,840.0,1.0,49,129.29
4361,B-3,840.0,2.0,29,129.29
4362,D5,840.25,0.25,34,129.29
4363,B-4,840.5,0.25,34,129.29
4364,D5,840.75,0.25,34,129.29
4365,F5,841.0,1.0,47,129.29
4366,D4,841.0,1.0,29,129.29
4367,C5,841.25,0.25,34,129.29
4368,A4,841.5,0.25,33,129.29
4369,C5,841.75,0.25,32,129.29
4370,F5,842.0,1.0,42,129.29
4371,F4,842.0,1.0,29,129.29
4372,B-3,842.0,2.0,29,129.29
4373,D5,842.25,0.25,31,129.29
4374,B-4,842.5,0.25,31,129.29
4375,D5,842.75,0.25,31,129.29
4376,B-5,843.0,1.0,39,129.29
4377,E-4,843.0,1.0,32,129.29
4378,F5,843.25,0.25,31,129.29
4379,B-4,843.5,0.25,31,129.29
4380,F5,843.75,0.25,31,129.29
4381,A5,844.0,1.0,44,129.29
4382,D4,844.0,1.0,32,129.29
4383,B-3,844.0,1.0,29,129.29
4384,F5,844.25,0.25,31,129.29
4385,C5,844.5,0.25,32,129.29
4386,F5,844.75,0.25,32,129.29
4387,C6,845.0,1.0,40,129.29
4388,E-3,845.0,1.0,30,129.29
4389,B-3,845.0,1.0,30,129.29
4390,F5,845.25,0.25,34,129.29
4391,C5,845.5,0.25,33,129.29
4392,F5,845.75,0.25,33,129.29
4393,F5,846.0,1.0,44,129.29
4394,A3,846.0,1.0,29,129.29
4395,F3,846.0,2.0,29,129.29
4396,D5,846.25,0.25,32,129.29
4397,B-4,846.5,0.25,32,129.29
4398,D5,846.75,0.25,32,129.29
4399,G5,847.0,1.0,39,129.29
4400,C4,847.0,1.0,29,129.29
4401,E-5,847.25,0.25,31,129.29
4402,B-4,847.5,0.25,31,129.29
4403,E-5,847.75,0.25,31,129.29
4404,F5,848.0,1.0,40,129.29
4405,B-3,848.0,2.0,29,129.29
4406,E-5,848.25,0.25,31,129.29
4407,C5,848.5,0.25,31,129.29
4408,E-5,848.75,0.25,31,129.29
4409,F5,849.0,1.0,38,129.29
4410,D4,849.0,1.0,29,129.29
4411,E-5,849.25,0.25,31,129.29
4412,A4,849.5,0.25,31,129.29
4413,E-5,849.75,0.25,31,129.29
4414,F5,850.0,1.0,42,129.29
4415,F4,850.0,0.5,29,129.29
4416,B-3,850.0,2.0,29,129.29
4417,D5,850.25,0.25,31,129.29
4418,B-4,850.5,0.25,31,129.29
4419,F#4,850.5,0.5,26,129.29
4420,D5,850.75,0.25,31,129.29
4421,B-5,851.0,1.0,39,129.29
4422,F4,851.0,0.5,29,129.29
4423,F5,851.25,0.25,31,129.29
4424,B-4,851.5,0.25,31,129.29
4425,E-4,851.5,0.5,27,129.29
4426,F5,851.75,0.25,31,129.29
4427,A5,852.0,1.0,44,129.29
4428,D4,852.0,1.0,32,129.29
4429,B-3,852.0,1.0,29,129.29
4430,F5,852.25,0.25,31,129.29
4431,C5,852.5,0.25,32,129.29
4432,F5,852.75,0.25,32,129.29
4433,C6,853.0,1.0,40,129.29
4434,E-3,853.0,1.0,30,129.29
4435,B-3,853.0,1.0,30,129.29
4436,F5,853.25,0.25,34,129.29
4437,C5,853.5,0.25,33,129.29
4438,F5,853.75,0.25,33,129.29
4439,F5,854.0,1.0,44,129.29
4440,A3,854.0,1.0,29,129.29
4441,F3,854.0,2.0,29,129.29
4442,D5,854.25,0.25,32,129.29
4443,B-4,854.5,0.25,32,129.29
4444,D5,854.75,0.25,32,129.29
4445,F#5,855.0,1.0,39,129.29
4446,C4,855.0,1.0,29,129.29
4447,E-5,855.25,0.25,31,129.29
4448,B-4,855.5,0.25,31,129.29
4449,E-5,855.75,0.25,31,129.29
4450,F5,856.0,1.0,39,129.29
4451,E-5,856.25,0.25,31,129.29
4452,C5,856.5,0.25,31,129.29
4453,E-5,856.75,0.25,31,129.29
4454,F5,857.0,1.0,38,129.29
4455,E-5,857.25,0.25,31,129.29
4456,A4,857.5,0.25,31,129.29
4457,E-5,857.75,0.25,31,129.29
4458,B-2,860.0,1.75,81,129.29
4459,F3,860.0,1.75,81,129.29
4460,B-3,860.0,1.75,81,129.29
4461,B-2,861.75,119/500,70,129.29
4462,F3,861.75,119/500,70,129.29
4463,B-3,861.75,119/500,70,129.29
4464,C#5,862.0,1.75,95,129.29
4465,F5,862.0,1.75,95,129.29
4466,B-5,862.0,1.75,95,129.29
4467,B-2,862.0,0.75,77,129.29
4468,B-3,862.0,0.75,77,129.29
4469,B-2,862.75,119/500,74,129.29
4470,B-3,862.75,119/500,74,129.29
4471,C#3,863.0,0.75,77,129.29
4472,C#4,863.0,0.75,77,129.29
4473,C#5,863.75,119/500,82,129.29
4474,F5,863.75,119/500,82,129.29
4475,B-5,863.75,119/500,82,129.29
4476,C#3,863.75,119/500,72,129.29
4477,C#4,863.75,119/500,72,129.29
4478,C#5,864.0,0.75,86,129.29
4479,F5,864.0,0.75,86,129.29
4480,C#6,864.0,0.75,86,129.29
4481,B-1,864.0,0.75,77,129.29
4482,B-2,864.0,0.75,77,129.29
4483,C#5,864.75,119/500,81,129.29
4484,F5,864.75,119/500,81,129.29
4485,C#6,864.75,119/500,81,129.29
4486,B-1,864.75,119/500,72,129.29
4487,B-2,864.75,119/500,72,129.29
4488,C#5,865.0,0.75,86,129.29
4489,F5,865.0,0.75,86,129.29
4490,B-5,865.0,0.75,86,129.29
4491,C#2,865.0,0.75,72,129.29
4492,C#3,865.0,0.75,72,129.29
4493,C#5,865.75,119/500,82,129.29
4494,F5,865.75,119/500,82,129.29
4495,B-5,865.75,119/500,82,129.29
4496,C#2,865.75,119/500,67,129.29
4497,C#3,865.75,119/500,67,129.29
4498,B-4,866.0,0.75,86,129.29
4499,C#5,866.0,0.75,86,129.29
4500,F5,866.0,0.75,86,129.29
4501,F2,866.0,0.75,72,129.29
4502,F3,866.0,0.75,72,129.29
4503,B-4,866.75,119/500,82,129.29
4504,C#5,866.75,119/500,82,129.29
4505,F5,866.75,119/500,82,129.29
4506,F2,866.75,119/500,67,129.29
4507,F3,866.75,119/500,67,129.29
4508,F4,867.0,0.75,82,129.29
4509,B-4,867.0,0.75,82,129.29
4510,C#5,867.0,0.75,82,129.29
4511,B-2,867.0,0.75,72,129.29
4512,B-3,867.0,0.75,72,129.29
4513,F4,867.75,119/500,77,129.29
4514,B-4,867.75,119/500,77,129.29
4515,C#5,867.75,119/500,77,129.29
4516,B-2,867.75,0.25,65,129.29
4517,B-3,867.75,0.25,65,129.29
4518,C#4,868.0,0.75,82,129.29
4519,F4,868.0,0.75,82,129.29
4520,B-4,868.0,0.75,82,129.29
4521,E-2,868.0,0.25,77,129.29
4522,E-3,868.0,0.25,77,129.29
4523,C#4,868.75,119/500,77,129.29
4524,F4,868.75,119/500,77,129.29
4525,B-4,868.75,119/500,77,129.29
4526,C#4,869.0,0.75,84,129.29
4527,F4,869.0,0.75,84,129.29
4528,C#4,869.75,0.25,76,129.29
4529,F4,869.75,0.25,76,129.29
4530,B-4,869.75,0.25,76,129.29
4531,E-4,870.0,0.25,86,129.29
4532,F#4,870.0,0.25,86,129.29
4533,B4,870.0,0.25,86,129.29
4534,B5,870.5,73/250,61,129.29
4535,E-6,870.75,73/250,65,129.29
4536,F#6,871.0,73/250,68,129.29
4537,E6,871.25,73/250,68,129.29
4538,E-6,871.5,73/250,67,129.29
4539,C#6,871.75,0.25,67,129.29
4540,B5,872.0,73/250,68,129.29
4541,C#6,872.0,21/500,67,129.29
4542,B-5,872.25,73/250,68,129.29
4543,G#5,872.5,73/250,67,129.29
4544,B3,872.5,73/250,63,129.29
4545,F#5,872.75,73/250,67,129.29
4546,E-4,872.75,73/250,65,129.29
4547,E5,873.0,73/250,67,129.29
4548,F#4,873.0,73/250,68,129.29
4549,E-5,873.25,73/250,67,129.29
4550,E4,873.25,73/250,66,129.29
4551,C#5,873.5,73/250,67,129.29
4552,E-4,873.5,73/250,64,129.29
4553,B4,873.75,0.25,67,129.29
4554,C#4,873.75,0.25,63,129.29
4555,C#5,874.0,73/250,67,129.29
4556,B4,874.0,21/500,67,129.29
4557,B3,874.0,73/250,61,129.29
4558,C#4,874.0,21/500,63,129.29
4559,B-4,874.25,73/250,68,129.29
4560,B-3,874.25,73/250,61,129.29
4561,B4,874.5,73/250,72,129.29
4562,G#3,874.5,73/250,63,129.29
4563,E-5,874.75,73/250,75,129.29
4564,F#3,874.75,73/250,64,129.29
4565,F#5,875.0,73/250,74,129.29
4566,E3,875.0,73/250,64,129.29
4567,E5,875.25,73/250,73,129.29
4568,E-3,875.25,73/250,65,129.29
4569,E-5,875.5,73/250,73,129.29
4570,C#3,875.5,73/250,66,129.29
4571,C#5,875.75,0.25,72,129.29
4572,B2,875.75,0.25,66,129.29
4573,B4,876.0,73/250,71,129.29
4574,C#5,876.0,21/500,72,129.29
4575,E-2,876.0,0.5,67,129.29
4576,E-3,876.0,0.5,67,129.29
4577,B-4,876.25,73/250,71,129.29
4578,G#4,876.5,73/250,72,129.29
4579,F#4,876.75,73/250,73,129.29
4580,E4,877.0,73/250,74,129.29
4581,E-2,877.0,0.5,71,129.29
4582,E-3,877.0,0.5,71,129.29
4583,E-4,877.25,73/250,75,129.29
4584,C#4,877.5,73/250,76,129.29
4585,B3,877.75,0.25,79,129.29
4586,F#3,878.0,0.5,86,129.29
4587,B3,878.0,0.5,86,129.29
4588,E-2,878.0,19/40,70,129.29
4589,E-3,878.0,19/40,70,129.29
4590,F#3,878.5,1.0,79,129.29
4591,B3,878.5,1.0,79,129.29
4592,E-4,878.5,1.0,79,129.29
4593,E-2,878.5,0.25,58,129.29
4594,E-3,878.5,0.25,58,129.29
4595,E-2,879.0,0.25,62,129.29
4596,E-3,879.0,0.25,62,129.29
4597,B3,879.5,0.5,78,129.29
4598,E-4,879.5,0.5,78,129.29
4599,F#4,879.5,0.5,78,129.29
4600,E-2,879.5,0.25,66,129.29
4601,E-3,879.5,0.25,66,129.29
4602,F2,880.0,0.5,67,129.29
4603,F3,880.0,0.5,67,129.29
4604,B3,880.5,0.5,78,129.29
4605,E-4,880.5,0.5,78,129.29
4606,F#4,880.5,0.5,78,129.29
4607,E-4,881.0,0.25,73,129.29
4608,F#4,881.0,0.25,73,129.29
4609,B4,881.0,0.25,73,129.29
4610,F2,881.0,0.5,71,129.29
4611,F3,881.0,0.5,71,129.29
4612,F#4,881.5,0.25,76,129.29
4613,B4,881.5,0.25,76,129.29
4614,E-5,881.5,0.25,76,129.29
4615,B4,882.0,0.25,79,129.29
4616,E-5,882.0,0.25,79,129.29
4617,F#5,882.0,0.25,79,129.29
4618,F2,882.0,19/40,70,129.29
4619,F3,882.0,19/40,70,129.29
4620,E-4,882.5,0.5,79,129.29
4621,A4,882.5,0.5,79,129.29
4622,C5,882.5,0.5,79,129.29
4623,F2,882.5,0.25,58,129.29
4624,F3,882.5,0.25,58,129.29
4625,A4,883.0,1.0,79,129.29
4626,C5,883.0,1.0,79,129.29
4627,E-5,883.0,1.0,79,129.29
4628,F2,883.0,0.25,62,129.29
4629,F3,883.0,0.25,62,129.29
4630,F2,883.5,0.25,66,129.29
4631,F3,883.5,0.25,66,129.29
4632,B-2,884.0,0.25,67,129.29
4633,C5,884.0,0.5,78,129.29
4634,E-5,884.0,0.5,78,129.29
4635,A5,884.0,0.5,78,129.29
4636,C#3,884.25,0.25,57,129.29
4637,F3,884.5,0.25,57,129.29
4638,B-3,884.75,0.25,57,129.29
4639,B-2,885.0,0.25,67,129.29
4640,C5,885.0,0.5,78,129.29
4641,E-5,885.0,0.5,78,129.29
4642,A5,885.0,0.5,78,129.29
4643,C#3,885.25,0.25,57,129.29
4644,F3,885.5,0.25,57,129.29
4645,E-5,885.5,0.25,73,129.29
4646,A5,885.5,0.25,73,129.29
4647,C6,885.5,0.25,73,129.29
4648,B-3,885.75,0.25,57,129.29
4649,B-2,886.0,0.25,67,129.29
4650,A5,886.0,0.25,76,129.29
4651,C6,886.0,0.25,76,129.29
4652,E-6,886.0,0.25,76,129.29
4653,C#3,886.25,0.25,56,129.29
4654,F3,886.5,0.25,57,129.29
4655,C6,886.5,0.25,79,129.29
4656,E-6,886.5,0.25,79,129.29
4657,A6,886.5,0.25,79,129.29
4658,B-3,886.75,0.25,57,129.29
4659,B-2,887.0,0.25,67,129.29
4660,B-5,887.0,1.75,93,129.29
4661,C#6,887.0,1.75,93,129.29
4662,F6,887.0,1.75,93,129.29
4663,B-6,887.0,1.75,93,129.29
4664,C#3,887.25,0.25,59,129.29
4665,F3,887.5,0.25,59,129.29
4666,B-3,887.75,0.25,60,129.29
4667,B-2,888.0,0.25,67,129.29
4668,C#3,888.25,0.25,58,129.29
4669,F#3,888.5,0.25,58,129.29
4670,B-3,888.75,0.25,58,129.29
4671,B-5,888.75,0.25,84,129.29
4672,B-6,888.75,0.25,84,129.29
4673,B-2,889.0,0.25,67,129.29
4674,C#6,889.0,0.75,88,129.29
4675,C#7,889.0,0.75,88,129.29
4676,C#3,889.25,0.25,60,129.29
4677,F#3,889.5,0.25,60,129.29
4678,B-3,889.75,0.25,60,129.29
4679,C#6,889.75,0.25,84,129.29
4680,C#7,889.75,0.25,84,129.29
4681,B-2,890.0,0.25,67,129.29
4682,B-5,890.0,0.75,88,129.29
4683,B-6,890.0,0.75,88,129.29
4684,F3,890.25,0.25,58,129.29
4685,G#3,890.5,0.25,58,129.29
4686,B-3,890.75,0.25,58,129.29
4687,B-5,890.75,0.25,84,129.29
4688,B-6,890.75,0.25,84,129.29
4689,B-2,891.0,0.25,67,129.29
4690,F#5,891.0,0.75,88,129.29
4691,F#6,891.0,0.75,88,129.29
4692,F3,891.25,0.25,57,129.29
4693,G#3,891.5,0.25,57,129.29
4694,B-3,891.75,0.25,57,129.29
4695,F#5,891.75,0.25,84,129.29
4696,F#6,891.75,0.25,84,129.29
4697,B-2,892.0,0.25,67,129.29
4698,C#5,892.0,0.75,84,129.29
4699,C#6,892.0,0.75,84,129.29
4700,E-3,892.25,0.25,57,129.29
4701,F#3,892.5,0.25,57,129.29
4702,B-3,892.75,0.25,57,129.29
4703,C#5,892.75,0.25,79,129.29
4704,C#6,892.75,0.25,79,129.29
4705,B-2,893.0,0.25,67,129.29
4706,D5,893.0,0.75,84,129.29
4707,D6,893.0,0.75,84,129.29
4708,E-3,893.25,0.25,55,129.29
4709,F#3,893.5,0.25,55,129.29
4710,B-3,893.75,0.25,54,129.29
4711,D5,893.75,0.25,79,129.29
4712,D6,893.75,0.25,79,129.29
4713,B-2,894.0,0.25,63,129.29
4714,B-4,894.0,0.75,84,129.29
4715,B-5,894.0,0.75,84,129.29
4716,E-3,894.25,0.25,53,129.29
4717,F#3,894.5,0.25,54,129.29
4718,B-3,894.75,0.25,54,129.29
4719,B-4,894.75,0.25,78,129.29
4720,B-5,894.75,0.25,78,129.29
4721,B-2,895.0,0.25,63,129.29
4722,E-5,895.0,1.75,83,129.29
4723,F#5,895.0,1.75,83,129.29
4724,B-5,895.0,1.75,83,129.29
4725,E-6,895.0,1.75,83,129.29
4726,E-3,895.25,0.25,56,129.29
4727,F#3,895.5,0.25,56,129.29
4728,B-3,895.75,0.25,57,129.29
4729,B2,896.0,0.25,63,129.29
4730,E-3,896.25,0.25,55,129.29
4731,F#3,896.5,0.25,55,129.29
4732,B3,896.75,0.25,55,129.29
4733,E-5,896.75,0.25,80,129.29
4734,E-6,896.75,0.25,80,129.29
4735,B2,897.0,0.25,63,129.29
4736,F#5,897.0,0.75,84,129.29
4737,F#6,897.0,0.75,84,129.29
4738,E-3,897.25,0.25,57,129.29
4739,F#3,897.5,0.25,57,129.29
4740,B3,897.75,0.25,57,129.29
4741,F#5,897.75,0.25,79,129.29
4742,F#6,897.75,0.25,79,129.29
4743,C3,898.0,0.25,63,129.29
4744,E-5,898.0,0.75,84,129.29
4745,E-6,898.0,0.75,84,129.29
4746,E-3,898.25,0.25,55,129.29
4747,F3,898.5,0.25,55,129.29
4748,C4,898.75,0.25,55,129.29
4749,E-5,898.75,0.25,80,129.29
4750,E-6,898.75,0.25,80,129.29
4751,C3,899.0,0.25,63,129.29
4752,B4,899.0,0.75,84,129.29
4753,B5,899.0,0.75,84,129.29
4754,E-3,899.25,0.25,54,129.29
4755,F3,899.5,0.25,54,129.29
4756,C4,899.75,0.25,54,129.29
4757,B4,899.75,0.25,80,129.29
4758,B5,899.75,0.25,80,129.29
4759,C#3,900.0,0.25,63,129.29
4760,B-4,900.0,0.75,80,129.29
4761,B-5,900.0,0.75,80,129.29
4762,F3,900.25,0.25,54,129.29
4763,B-3,900.5,0.25,54,129.29
4764,C#4,900.75,0.25,54,129.29
4765,B-4,900.75,0.25,74,129.29
4766,B-5,900.75,0.25,74,129.29
4767,C#3,901.0,0.25,63,129.29
4768,A4,901.0,0.75,80,129.29
4769,A5,901.0,0.75,80,129.29
4770,F3,901.25,0.25,54,129.29
4771,B-3,901.5,0.25,54,129.29
4772,C#4,901.75,0.25,54,129.29
4773,A4,901.75,0.25,74,129.29
4774,A5,901.75,0.25,74,129.29
4775,C#3,902.0,0.25,63,129.29
4776,F5,902.0,0.75,80,129.29
4777,F6,902.0,0.75,80,129.29
4778,F3,902.25,0.25,53,129.29
4779,B-3,902.5,0.25,54,129.29
4780,C#4,902.75,0.25,54,129.29
4781,F5,902.75,0.25,73,129.29
4782,F6,902.75,0.25,73,129.29
4783,C#3,903.0,0.25,63,129.29
4784,B-4,903.0,1.75,83,129.29
4785,C#5,903.0,1.75,83,129.29
4786,F5,903.0,1.75,83,129.29
4787,B-5,903.0,1.75,83,129.29
4788,F3,903.25,0.25,56,129.29
4789,B-3,903.5,0.25,56,129.29
4790,C#4,903.75,0.25,57,129.29
4791,C#3,904.0,0.25,63,129.29
4792,F#3,904.25,0.25,55,129.29
4793,B-3,904.5,0.25,55,129.29
4794,C#4,904.75,0.25,55,129.29
4795,B-5,904.75,0.25,80,129.29
4796,B-6,904.75,0.25,80,129.29
4797,C#3,905.0,0.25,63,129.29
4798,C#6,905.0,0.75,84,129.29
4799,C#7,905.0,0.75,84,129.29
4800,F#3,905.25,0.25,57,129.29
4801,B-3,905.5,0.25,57,129.29
4802,C#4,905.75,0.25,57,129.29
4803,C#6,905.75,0.25,79,129.29
4804,C#7,905.75,0.25,79,129.29
4805,C#3,906.0,0.25,63,129.29
4806,B-5,906.0,0.75,84,129.29
4807,B-6,906.0,0.75,84,129.29
4808,G#3,906.25,0.25,55,129.29
4809,B3,906.5,0.25,55,129.29
4810,C#4,906.75,0.25,55,129.29
4811,B-5,906.75,0.25,80,129.29
4812,B-6,906.75,0.25,80,129.29
4813,C#3,907.0,0.25,63,129.29
4814,F#5,907.0,0.75,84,129.29
4815,F#6,907.0,0.75,84,129.29
4816,G#3,907.25,0.25,54,129.29
4817,B3,907.5,0.25,54,129.29
4818,C#4,907.75,0.25,54,129.29
4819,F#5,907.75,0.25,80,129.29
4820,F#6,907.75,0.25,80,129.29
4821,C#3,908.0,0.25,67,129.29
4822,C#5,908.0,0.75,80,129.29
4823,C#6,908.0,0.75,80,129.29
4824,F#3,908.25,0.25,57,129.29
4825,B-3,908.5,0.25,57,129.29
4826,C#4,908.75,0.25,57,129.29
4827,C#5,908.75,0.25,74,129.29
4828,C#6,908.75,0.25,74,129.29
4829,C#3,909.0,0.25,67,129.29
4830,F5,909.0,0.75,80,129.29
4831,F6,909.0,0.75,80,129.29
4832,F#3,909.25,0.25,55,129.29
4833,B-3,909.5,0.25,55,129.29
4834,C#4,909.75,0.25,51,129.29
4835,F5,909.75,0.25,74,129.29
4836,F6,909.75,0.25,74,129.29
4837,D3,910.0,0.25,59,129.29
4838,C#5,910.0,0.75,80,129.29
4839,C#6,910.0,0.75,80,129.29
4840,F#3,910.25,0.25,50,129.29
4841,B-3,910.5,0.25,51,129.29
4842,D4,910.75,0.25,51,129.29
4843,C#5,910.75,0.25,73,129.29
4844,C#6,910.75,0.25,73,129.29
4845,E-3,911.0,0.25,59,129.29
4846,F#5,911.0,1.75,83,129.29
4847,B-5,911.0,1.75,83,129.29
4848,C#6,911.0,1.75,83,129.29
4849,F#6,911.0,1.75,83,129.29
4850,F#3,911.25,0.25,53,129.29
4851,B-3,911.5,0.25,53,129.29
4852,E-4,911.75,0.25,54,129.29
4853,F3,912.0,0.25,59,129.29
4854,B-3,912.25,0.25,52,129.29
4855,C#4,912.5,0.25,52,129.29
4856,F4,912.75,0.25,52,129.29
4857,F#5,912.75,0.25,75,129.29
4858,F#6,912.75,0.25,75,129.29
4859,F#3,913.0,0.25,59,129.29
4860,B-5,913.0,0.75,80,129.29
4861,B-6,913.0,0.75,80,129.29
4862,B-3,913.25,0.25,54,129.29
4863,C#4,913.5,0.25,54,129.29
4864,F#4,913.75,0.25,54,129.29
4865,B-5,913.75,0.25,74,129.29
4866,B-6,913.75,0.25,74,129.29
4867,F3,914.0,0.25,59,129.29
4868,F#5,914.0,0.75,80,129.29
4869,F#6,914.0,0.75,80,129.29
4870,B-3,914.25,0.25,52,129.29
4871,C#4,914.5,0.25,52,129.29
4872,F4,914.75,0.25,52,129.29
4873,F#5,914.75,0.25,75,129.29
4874,F#6,914.75,0.25,75,129.29
4875,F3,915.0,0.25,59,129.29
4876,F5,915.0,0.75,80,129.29
4877,F6,915.0,0.75,80,129.29
4878,B-3,915.25,0.25,51,129.29
4879,C#4,915.5,0.25,51,129.29
4880,F4,915.75,0.25,51,129.29
4881,F5,915.75,0.25,75,129.29
4882,F6,915.75,0.25,75,129.29
4883,F3,916.0,0.25,56,129.29
4884,E-5,916.0,0.75,74,129.29
4885,E-6,916.0,0.75,74,129.29
4886,B-3,916.25,0.25,49,129.29
4887,C4,916.5,0.25,48,129.29
4888,F4,916.75,0.25,47,129.29
4889,E-5,916.75,0.25,70,129.29
4890,E-6,916.75,0.25,70,129.29
4891,F3,917.0,0.25,51,129.29
4892,F5,917.0,0.75,74,129.29
4893,F6,917.0,0.75,74,129.29
4894,A3,917.25,0.25,44,129.29
4895,C4,917.5,0.25,43,129.29
4896,F4,917.75,0.25,42,129.29
4897,F5,917.75,0.25,70,129.29
4898,F6,917.75,0.25,70,129.29
4899,B-2,918.0,167/1000,42,129.29
4900,F5,918.0,0.75,74,129.29
4901,F6,918.0,0.75,74,129.29
4902,D4,918.333,333/1000,42,129.29
4903,F4,918.667,333/1000,34,129.29
4904,F5,918.75,0.25,69,129.29
4905,F6,918.75,0.25,69,129.29
4906,B-3,919.0,333/1000,34,129.29
4907,F5,919.0,0.75,71,129.29
4908,F6,919.0,0.75,71,129.29
4909,D4,919.333,333/1000,30,129.29
4910,F4,919.667,333/1000,30,129.29
4911,F5,919.75,0.25,62,129.29
4912,F6,919.75,0.25,62,129.29
4913,B-3,920.0,333/1000,34,129.29
4914,F5,920.0,0.75,66,129.29
4915,F6,920.0,0.75,66,129.29
4916,D4,920.333,333/1000,29,129.29
4917,F4,920.667,333/1000,29,129.29
4918,F5,920.75,0.25,56,129.29
4919,F6,920.75,0.25,56,129.29
4920,B-5,921.0,1.0,58,129.29
4921,B-3,921.0,333/1000,34,129.29
4922,D4,921.333,333/1000,30,129.29
4923,F4,921.667,333/1000,30,129.29
4924,B-3,922.0,333/1000,34,129.29
4925,D4,922.333,333/1000,30,129.29
4926,F4,922.667,333/1000,30,129.29
4927,B-5,922.75,0.25,43,129.29
4928,D6,923.0,0.75,48,129.29
4929,G#3,923.0,333/1000,34,129.29
4930,D4,923.333,333/1000,30,129.29
4931,F4,923.667,333/1000,30,129.29
4932,D6,923.75,0.25,43,129.29
4933,B-5,924.0,0.75,48,129.29
4934,G3,924.0,333/1000,34,129.29
4935,E-4,924.333,333/1000,29,129.29
4936,F4,924.667,333/1000,29,129.29
4937,B-5,924.75,0.25,42,129.29
4938,F5,925.0,0.75,48,129.29
4939,A3,925.0,333/1000,34,129.29
4940,E-4,925.333,333/1000,30,129.29
4941,F4,925.667,333/1000,30,129.29
4942,F5,925.75,0.25,43,129.29
4943,D5,926.0,0.75,48,129.29
4944,B-3,926.0,333/1000,34,129.29
4945,D4,926.333,333/1000,31,129.29
4946,F4,926.667,333/1000,31,129.29
4947,D5,926.75,0.25,43,129.29
4948,E-5,927.0,0.75,48,129.29
4949,B-3,927.0,333/1000,34,129.29
4950,D4,927.333,333/1000,30,129.29
4951,F4,927.667,333/1000,30,129.29
4952,E-5,927.75,0.25,42,129.29
4953,C5,928.0,0.75,48,129.29
4954,B-3,928.0,333/1000,34,129.29
4955,D4,928.333,333/1000,29,129.29
4956,F4,928.667,333/1000,29,129.29
4957,C5,928.75,0.25,42,129.29
4958,F5,929.0,0.75,48,129.29
4959,A3,929.0,333/1000,34,129.29
4960,C4,929.333,333/1000,30,129.29
4961,F4,929.667,333/1000,30,129.29
4962,B-5,929.75,0.25,36,129.29
4963,F5,930.0,0.5,45,129.29
4964,G3,930.0,333/1000,34,129.29
4965,B-3,930.333,333/1000,30,129.29
4966,D4,930.667,333/1000,30,129.29
4967,B-5,930.75,0.25,43,129.29
4968,D6,931.0,0.75,48,129.29
4969,G3,931.0,333/1000,34,129.29
4970,B-3,931.333,333/1000,30,129.29
4971,E4,931.667,333/1000,30,129.29
4972,D6,931.75,0.25,45,129.29
4973,F6,932.0,0.75,52,129.29
4974,F3,932.0,333/1000,34,129.29
4975,B-3,932.333,333/1000,29,129.29
4976,F4,932.667,333/1000,29,129.29
4977,F6,932.75,0.25,48,129.29
4978,B-6,933.0,0.75,52,129.29
4979,F3,933.0,333/1000,34,129.29
4980,A3,933.333,333/1000,30,129.29
4981,F4,933.667,333/1000,30,129.29
4982,B-6,933.75,0.25,50,129.29
4983,C7,934.0,0.75,56,129.29
4984,B-2,934.0,167/1000,34,129.29
4985,D4,934.333,333/1000,31,129.29
4986,F4,934.667,333/1000,31,129.29
4987,C7,934.75,0.25,49,129.29
4988,D7,935.0,0.75,55,129.29
4989,B-3,935.0,333/1000,34,129.29
4990,D4,935.333,333/1000,30,129.29
4991,F4,935.667,333/1000,30,129.29
4992,D7,935.75,0.25,48,129.29
4993,F7,936.0,0.75,54,129.29
4994,B-3,936.0,333/1000,34,129.29
4995,D4,936.333,333/1000,29,129.29
4996,F4,936.667,333/1000,29,129.29
4997,F7,936.75,0.25,47,129.29
4998,D7,937.0,0.5,53,129.29
4999,B-3,937.0,333/1000,34,129.29
5000,D4,937.333,333/1000,30,129.29
5001,F4,937.667,333/1000,30,129.29
5002,B-3,938.0,333/1000,34,129.29
5003,D4,938.333,333/1000,30,129.29
5004,F4,938.667,333/1000,30,129.29
5005,B-5,938.75,0.25,43,129.29
5006,D6,939.0,0.75,48,129.29
5007,G#3,939.0,333/1000,34,129.29
5008,D4,939.333,333/1000,30,129.29
5009,F4,939.667,333/1000,30,129.29
5010,D6,939.75,0.25,43,129.29
5011,B-5,940.0,0.75,48,129.29
5012,G3,940.0,333/1000,34,129.29
5013,E-4,940.333,333/1000,29,129.29
5014,F4,940.667,333/1000,29,129.29
5015,B-5,940.75,0.25,42,129.29
5016,F5,941.0,0.75,48,129.29
5017,A3,941.0,333/1000,34,129.29
5018,E-4,941.333,333/1000,30,129.29
5019,F4,941.667,333/1000,30,129.29
5020,F5,941.75,0.25,43,129.29
5021,D5,942.0,0.75,48,129.29
5022,B-3,942.0,333/1000,34,129.29
5023,D4,942.333,333/1000,31,129.29
5024,F4,942.667,333/1000,31,129.29
5025,D5,942.75,0.25,43,129.29
5026,F5,943.0,0.75,48,129.29
5027,B-3,943.0,333/1000,34,129.29
5028,D4,943.333,333/1000,30,129.29
5029,F4,943.667,333/1000,30,129.29
5030,F5,943.75,0.25,42,129.29
5031,E-5,944.0,0.75,48,129.29
5032,B-3,944.0,333/1000,34,129.29
5033,D4,944.333,333/1000,29,129.29
5034,F4,944.667,333/1000,29,129.29
5035,E-5,944.75,0.25,42,129.29
5036,D5,945.0,0.75,48,129.29
5037,A3,945.0,333/1000,34,129.29
5038,C4,945.333,333/1000,30,129.29
5039,F4,945.667,333/1000,30,129.29
5040,B-5,945.75,0.25,36,129.29
5041,F5,946.0,0.5,45,129.29
5042,G3,946.0,333/1000,34,129.29
5043,B-3,946.333,333/1000,30,129.29
5044,D4,946.667,333/1000,30,129.29
5045,B-5,946.75,0.25,43,129.29
5046,D6,947.0,0.75,48,129.29
5047,G3,947.0,333/1000,34,129.29
5048,B-3,947.333,333/1000,30,129.29
5049,E4,947.667,333/1000,30,129.29
5050,D6,947.75,0.25,45,129.29
5051,F6,948.0,0.75,52,129.29
5052,F3,948.0,333/1000,34,129.29
5053,B-3,948.333,333/1000,29,129.29
5054,F4,948.667,333/1000,29,129.29
5055,F6,948.75,0.25,48,129.29
5056,B-6,949.0,0.75,52,129.29
5057,F3,949.0,333/1000,34,129.29
5058,A3,949.333,333/1000,30,129.29
5059,F4,949.667,333/1000,30,129.29
5060,B-6,949.75,0.25,50,129.29
5061,C7,950.0,0.75,56,129.29
5062,B-2,950.0,167/1000,34,129.29
5063,D4,950.333,333/1000,31,129.29
5064,F4,950.667,333/1000,31,129.29
5065,C7,950.75,0.25,49,129.29
5066,D7,951.0,0.75,55,129.29
5067,B-3,951.0,333/1000,34,129.29
5068,D4,951.333,333/1000,30,129.29
5069,F4,951.667,333/1000,30,129.29
5070,D7,951.75,0.25,48,129.29
5071,F7,952.0,0.75,54,129.29
5072,B-3,952.0,333/1000,34,129.29
5073,D4,952.333,333/1000,29,129.29
5074,F4,952.667,333/1000,29,129.29
5075,F7,952.75,0.25,47,129.29
5076,B-6,953.0,0.5,53,129.29
5077,B3,953.0,333/1000,34,129.29
5078,D4,953.333,333/1000,30,129.29
5079,F4,953.667,333/1000,30,129.29
5080,B-3,954.0,333/1000,34,129.29
5081,D4,954.333,333/1000,30,129.29
5082,F4,954.667,333/1000,30,129.29
5083,A6,954.75,0.25,43,129.29
5084,B-6,955.0,0.75,48,129.29
5085,B3,955.0,333/1000,34,129.29
5086,D4,955.333,333/1000,30,129.29
5087,F4,955.667,333/1000,30,129.29
5088,B-6,955.75,119/500,45,129.29
5089,G#6,956.0,0.75,52,129.29
5090,B-3,956.0,333/1000,34,129.29
5091,D4,956.333,333/1000,29,129.29
5092,F4,956.667,333/1000,29,129.29
5093,G#6,956.75,119/500,48,129.29
5094,F6,957.0,0.75,52,129.29
5095,G#3,957.0,333/1000,34,129.29
5096,C4,957.333,333/1000,30,129.29
5097,F#4,957.667,333/1000,30,129.29
5098,F6,957.75,119/500,50,129.29
5099,D6,958.0,0.75,56,129.29
5100,G3,958.0,333/1000,34,129.29
5101,B3,958.333,333/1000,28,129.29
5102,G4,958.667,333/1000,28,129.29
5103,D6,958.75,0.25,49,129.29
5104,F6,959.0,0.75,55,129.29
5105,G3,959.0,333/1000,33,129.29
5106,C4,959.333,333/1000,28,129.29
5107,E-4,959.667,333/1000,28,129.29
5108,F6,959.75,0.25,48,129.29
5109,F#6,960.0,0.75,54,129.29
5110,G3,960.0,333/1000,31,129.29
5111,B3,960.333,333/1000,26,129.29
5112,D4,960.667,333/1000,26,129.29
5113,F#6,960.75,0.25,47,129.29
5114,G6,961.0,0.75,55,129.29
5115,G3,961.0,333/1000,30,129.29
5116,C4,961.333,333/1000,26,129.29
5117,E-4,961.667,333/1000,26,129.29
5118,G6,961.75,119/500,47,129.29
5119,G6,962.0,0.75,52,129.29
5120,G3,962.0,333/1000,29,129.29
5121,B3,962.333,333/1000,27,129.29
5122,D4,962.667,333/1000,28,129.29
5123,G6,962.75,119/500,44,129.29
5124,G6,963.0,0.75,51,129.29
5125,G3,963.0,333/1000,34,129.29
5126,C4,963.333,333/1000,30,129.29
5127,E-4,963.667,333/1000,30,129.29
5128,G6,963.75,119/500,43,129.29
5129,G6,964.0,0.75,48,129.29
5130,G3,964.0,333/1000,34,129.29
5131,B3,964.333,333/1000,31,129.29
5132,D4,964.667,333/1000,31,129.29
5133,G6,964.75,119/500,40,129.29
5134,G6,965.0,0.5,47,129.29
5135,G3,965.0,333/1000,34,129.29
5136,C4,965.333,333/1000,31,129.29
5137,E-4,965.667,333/1000,31,129.29
5138,G3,966.0,333/1000,34,129.29
5139,B3,966.333,333/1000,30,129.29
5140,D4,966.667,333/1000,30,129.29
5141,G5,966.75,0.188,48,129.29
5142,G#5,967.0,0.5,53,129.29
5143,G3,967.0,333/1000,34,129.29
5144,C4,967.333,333/1000,30,129.29
5145,G5,967.5,0.25,49,129.29
5146,E-4,967.667,333/1000,30,129.29
5147,G5,968.0,0.25,51,129.29
5148,G3,968.0,333/1000,34,129.29
5149,B3,968.333,333/1000,31,129.29
5150,G5,968.5,0.25,49,129.29
5151,D4,968.667,333/1000,31,129.29
5152,G5,969.0,0.5,47,129.29
5153,G3,969.0,333/1000,34,129.29
5154,C4,969.333,333/1000,31,129.29
5155,E-4,969.667,333/1000,31,129.29
5156,G3,970.0,333/1000,34,129.29
5157,B3,970.333,333/1000,30,129.29
5158,D4,970.667,333/1000,30,129.29
5159,B-6,970.75,0.188,48,129.29
5160,G#6,971.0,0.5,53,129.29
5161,G3,971.0,333/1000,34,129.29
5162,C4,971.333,333/1000,30,129.29
5163,G6,971.5,0.25,49,129.29
5164,E-4,971.667,333/1000,30,129.29
5165,G6,972.0,0.25,51,129.29
5166,G3,972.0,333/1000,34,129.29
5167,B3,972.333,333/1000,31,129.29
5168,G6,972.5,0.25,49,129.29
5169,D4,972.667,333/1000,31,129.29
5170,G6,973.0,0.5,47,129.29
5171,G3,973.0,333/1000,34,129.29
5172,C4,973.333,333/1000,31,129.29
5173,E-4,973.667,333/1000,31,129.29
5174,G3,974.0,333/1000,34,129.29
5175,B3,974.333,333/1000,30,129.29
5176,D4,974.667,333/1000,30,129.29
5177,G4,974.75,0.188,48,129.29
5178,G#4,975.0,0.5,53,129.29
5179,G3,975.0,333/1000,34,129.29
5180,C4,975.333,333/1000,30,129.29
5181,G4,975.5,0.25,49,129.29
5182,E-4,975.667,333/1000,30,129.29
5183,G4,976.0,0.25,51,129.29
5184,G3,976.0,333/1000,34,129.29
5185,B3,976.333,333/1000,31,129.29
5186,G4,976.5,0.25,49,129.29
5187,D4,976.667,333/1000,31,129.29
5188,G4,977.0,0.5,47,129.29
5189,G3,977.0,333/1000,34,129.29
5190,C4,977.333,333/1000,31,129.29
5191,E-4,977.667,333/1000,31,129.29
5192,G3,978.0,333/1000,34,129.29
5193,B3,978.333,333/1000,31,129.29
5194,D4,978.667,333/1000,31,129.29
5195,B-5,978.75,0.188,48,129.29
5196,G#5,979.0,0.5,53,129.29
5197,G3,979.0,333/1000,34,129.29
5198,C4,979.333,333/1000,31,129.29
5199,G5,979.5,0.25,49,129.29
5200,E-4,979.667,333/1000,31,129.29
5201,G5,980.0,0.25,51,129.29
5202,D4,980.0,0.5,34,129.29
5203,B3,980.0,0.5,34,129.29
5204,G3,980.0,0.5,34,129.29
5205,G5,980.5,0.25,49,129.29
5206,G#5,981.0,0.5,53,129.29
5207,G4,981.0,1.0,86,129.29
5208,G3,981.0,1.0,86,129.29
5209,G5,981.5,0.25,49,129.29
5210,G5,982.0,0.25,51,129.29
5211,G4,982.0,2.0,86,129.29
5212,G3,982.0,2.0,86,129.29
5213,G5,982.5,0.25,49,129.29
5214,G5,983.0,0.5,53,129.29
5215,G3,984.0,0.5,37,129.29
5216,G4,984.5,0.25,28,129.29
5217,F4,985.0,0.25,26,129.29
5218,D4,985.0,0.25,26,129.29
5219,G4,985.5,0.25,28,129.29
5220,G3,986.0,0.5,38,129.29
5221,D5,986.5,0.5,47,129.29
5222,G4,986.5,0.25,25,129.29
5223,C5,987.0,0.5,56,129.29
5224,C4,987.0,0.25,28,129.29
5225,E-4,987.0,0.25,28,129.29
5226,B4,987.5,0.25,33,129.29
5227,G4,987.5,0.5,28,129.29
5228,B4,988.0,0.25,37,129.29
5229,G3,988.0,0.5,37,129.29
5230,B4,988.5,0.25,33,129.29
5231,G4,988.5,0.25,28,129.29
5232,B4,989.0,0.5,49,129.29
5233,F4,989.0,0.25,26,129.29
5234,D4,989.0,0.25,26,129.29
5235,C5,989.5,0.25,36,129.29
5236,G4,989.5,0.25,26,129.29
5237,G3,990.0,0.5,38,129.29
5238,E-5,990.5,0.5,46,129.29
5239,G4,990.5,0.25,28,129.29
5240,C5,991.0,0.5,56,129.29
5241,C4,991.0,0.25,28,129.29
5242,E-4,991.0,0.25,28,129.29
5243,B4,991.5,0.25,33,129.29
5244,G4,991.5,0.25,31,129.29
5245,B4,992.0,0.25,38,129.29
5246,F#4,992.0,2.0,61,129.29
5247,F#3,992.0,2.0,61,129.29
5248,B4,992.5,0.25,33,129.29
5249,B4,993.0,0.5,51,129.29
5250,C5,993.5,0.25,42,129.29
5251,F#4,996.0,2.0,61,129.29
5252,F#3,996.0,2.0,61,129.29
5253,F#3,998.0,0.5,37,129.29
5254,E-5,998.5,0.5,47,129.29
5255,F#4,998.5,0.25,27,129.29
5256,C5,999.0,0.5,56,129.29
5257,E-4,999.0,0.25,24,129.29
5258,G#3,999.0,0.25,24,129.29
5259,B4,999.5,0.25,32,129.29
5260,F#4,999.5,0.25,28,129.29
5261,B4,1000.0,0.25,37,129.29
5262,F#3,1000.0,0.5,37,129.29
5263,B4,1000.5,0.25,33,129.29
5264,F#4,1000.5,0.25,24,129.29
5265,B4,1001.0,0.5,47,129.29
5266,A3,1001.0,0.25,26,129.29
5267,E-4,1001.0,0.25,26,129.29
5268,C5,1001.5,0.25,34,129.29
5269,F#4,1001.5,0.5,27,129.29
5270,F#3,1002.0,0.5,35,129.29
5271,E-5,1002.5,0.5,44,129.29
5272,F#4,1002.5,0.25,26,129.29
5273,C5,1003.0,0.5,53,129.29
5274,E-4,1003.0,0.25,23,129.29
5275,G#3,1003.0,0.25,23,129.29
5276,B4,1003.5,0.25,31,129.29
5277,F#4,1003.5,0.25,24,129.29
5278,B4,1004.0,0.25,36,129.29
5279,F#3,1004.0,0.5,36,129.29
5280,B4,1004.5,0.25,30,129.29
5281,F#4,1004.5,0.25,26,129.29
5282,B4,1005.0,0.5,47,129.29
5283,A3,1005.0,0.25,26,129.29
5284,E-4,1005.0,0.25,26,129.29
5285,C5,1005.5,0.25,37,129.29
5286,F#4,1005.5,0.25,28,129.29
5287,F4,1006.0,2.0,54,129.29
5288,F3,1006.0,2.0,54,129.29
5289,F4,1010.0,2.0,54,129.29
5290,F3,1010.0,2.0,54,129.29
5291,E-5,1010.5,0.5,44,129.29
5292,C5,1011.0,0.5,53,129.29
5293,B4,1011.5,0.25,35,129.29
5294,B4,1012.0,0.25,40,129.29
5295,F3,1012.0,0.5,35,129.29
5296,B4,1012.5,0.25,35,129.29
5297,F4,1012.5,0.25,29,129.29
5298,B4,1013.0,0.5,47,129.29
5299,D4,1013.0,0.25,26,129.29
5300,G#3,1013.0,0.25,26,129.29
5301,C5,1013.5,0.25,34,129.29
5302,F4,1013.5,0.25,30,129.29
5303,F3,1014.0,0.5,36,129.29
5304,E-5,1014.5,0.5,43,129.29
5305,F4,1014.5,0.25,23,129.29
5306,C5,1015.0,0.5,53,129.29
5307,A3,1015.0,0.25,26,129.29
5308,E-4,1015.0,0.25,26,129.29
5309,B4,1015.5,0.25,35,129.29
5310,F4,1015.5,0.5,27,129.29
5311,B4,1016.0,0.25,40,129.29
5312,F3,1016.0,0.5,35,129.29
5313,B4,1016.5,0.25,35,129.29
5314,F4,1016.5,0.25,29,129.29
5315,B4,1017.0,0.5,48,129.29
5316,D4,1017.0,0.25,26,129.29
5317,G#3,1017.0,0.25,26,129.29
5318,C5,1017.5,0.25,39,129.29
5319,F4,1017.5,0.25,28,129.29
5320,C5,1018.0,0.5,54,129.29
5321,F3,1018.0,0.5,36,129.29
5322,G5,1018.5,0.5,48,129.29
5323,F4,1018.5,0.25,27,129.29
5324,G5,1019.0,0.5,59,129.29
5325,A3,1019.0,0.5,32,129.29
5326,E-4,1019.0,0.5,32,129.29
5327,F5,1019.5,0.5,51,129.29
5328,F4,1019.5,0.5,35,129.29
5329,F5,1020.0,0.5,55,129.29
5330,F3,1020.0,0.5,44,129.29
5331,D5,1020.5,0.5,52,129.29
5332,F4,1020.5,0.5,33,129.29
5333,B4,1021.0,0.5,57,129.29
5334,D4,1021.0,0.5,35,129.29
5335,B-3,1021.0,0.5,35,129.29
5336,C5,1021.5,0.25,47,129.29
5337,F4,1021.5,0.5,33,129.29
5338,C5,1022.0,0.5,57,129.29
5339,F3,1022.0,0.5,37,129.29
5340,G5,1022.5,0.5,50,129.29
5341,F4,1022.5,0.25,33,129.29
5342,G5,1023.0,0.5,64,129.29
5343,A3,1023.0,0.5,32,129.29
5344,E-4,1023.0,0.5,32,129.29
5345,F5,1023.5,0.5,55,129.29
5346,F4,1023.5,0.5,35,129.29
5347,F5,1024.0,0.5,57,129.29
5348,F3,1024.0,0.5,44,129.29
5349,D5,1024.5,0.5,52,129.29
5350,F4,1024.5,0.5,33,129.29
5351,B4,1025.0,0.5,56,129.29
5352,D4,1025.0,0.5,35,129.29
5353,B-3,1025.0,0.5,35,129.29
5354,C5,1025.5,0.5,44,129.29
5355,F4,1025.5,0.5,33,129.29
5356,E-5,1026.0,0.5,48,129.29
5357,F3,1026.0,0.5,37,129.29
5358,A4,1026.5,0.5,40,129.29
5359,F4,1026.5,0.5,33,129.29
5360,E-4,1027.0,0.5,33,129.29
5361,A3,1027.0,0.5,33,129.29
5362,F4,1027.5,0.5,33,129.29
5363,D6,1028.5,0.5,79,129.29
5364,D5,1028.5,0.5,79,129.29
5365,C6,1029.0,0.5,85,129.29
5366,C5,1029.0,0.5,85,129.29
5367,B-5,1029.5,0.25,79,129.29
5368,B-4,1029.5,0.25,79,129.29
5369,F#4,1029.5,0.5,65,129.29
5370,F#3,1029.5,0.5,65,129.29
5371,B-5,1030.0,0.25,79,129.29
5372,B-4,1030.0,0.25,79,129.29
5373,G3,1030.0,1.0,70,129.29
5374,G4,1030.0,1.0,70,129.29
5375,B-4,1030.5,0.25,79,129.29
5376,B-5,1030.5,0.25,79,129.29
5377,G4,1031.0,0.5,85,129.29
5378,G5,1031.0,0.5,85,129.29
5379,D3,1031.0,1.0,60,129.29
5380,D4,1031.0,1.0,60,129.29
5381,F4,1031.5,0.25,80,129.29
5382,F5,1031.5,0.25,80,129.29
5383,F4,1032.0,0.25,80,129.29
5384,F5,1032.0,0.25,80,129.29
5385,E-3,1032.0,1.0,71,129.29
5386,E-4,1032.0,1.0,71,129.29
5387,F4,1032.5,0.25,80,129.29
5388,F5,1032.5,0.25,80,129.29
5389,F4,1033.0,0.5,85,129.29
5390,E-5,1033.0,0.5,85,129.29
5391,A2,1033.0,0.25,61,129.29
5392,A3,1033.0,0.25,61,129.29
5393,D4,1033.5,0.25,80,129.29
5394,D5,1033.5,0.25,80,129.29
5395,A2,1033.5,0.25,61,129.29
5396,A3,1033.5,0.25,61,129.29
5397,D4,1034.0,0.25,80,129.29
5398,D5,1034.0,0.25,80,129.29
5399,B-2,1034.0,1.0,70,129.29
5400,B-3,1034.0,1.0,70,129.29
5401,D4,1034.5,0.25,80,129.29
5402,D5,1034.5,0.25,80,129.29
5403,C4,1035.0,0.5,84,129.29
5404,C5,1035.0,0.5,84,129.29
5405,F#2,1035.0,1.0,61,129.29
5406,F#3,1035.0,1.0,61,129.29
5407,B-3,1035.5,0.25,80,129.29
5408,B-4,1035.5,0.25,80,129.29
5409,B-3,1036.0,0.25,80,129.29
5410,B-4,1036.0,0.25,80,129.29
5411,G2,1036.0,1.0,70,129.29
5412,G3,1036.0,1.0,70,129.29
5413,B-3,1036.5,0.25,80,129.29
5414,B-4,1036.5,0.25,80,129.29
5415,A3,1037.0,0.5,84,129.29
5416,A4,1037.0,0.5,84,129.29
5417,D2,1037.0,0.25,61,129.29
5418,D3,1037.0,0.25,61,129.29
5419,G3,1037.5,0.25,80,129.29
5420,G4,1037.5,0.25,80,129.29
5421,D2,1037.5,0.25,61,129.29
5422,D3,1037.5,0.25,61,129.29
5423,G3,1038.0,0.25,80,129.29
5424,G4,1038.0,0.25,80,129.29
5425,E-2,1038.0,1.0,70,129.29
5426,E-3,1038.0,1.0,70,129.29
5427,G3,1038.5,0.25,80,129.29
5428,G4,1038.5,0.25,80,129.29
5429,C3,1039.0,0.25,67,129.29
5430,A4,1039.0,0.5,84,129.29
5431,A5,1039.0,0.5,84,129.29
5432,D3,1039.5,0.25,67,129.29
5433,G4,1039.5,0.25,80,129.29
5434,G5,1039.5,0.25,80,129.29
5435,G4,1040.0,0.25,80,129.29
5436,G5,1040.0,0.25,80,129.29
5437,E-2,1040.0,1.0,70,129.29
5438,E-3,1040.0,1.0,70,129.29
5439,G4,1040.5,0.25,80,129.29
5440,G5,1040.5,0.25,80,129.29
5441,C3,1041.0,0.25,67,129.29
5442,A5,1041.0,0.5,84,129.29
5443,A6,1041.0,0.5,84,129.29
5444,D3,1041.5,0.25,67,129.29
5445,G5,1041.5,0.25,80,129.29
5446,G6,1041.5,0.25,80,129.29
5447,G5,1042.0,0.25,80,129.29
5448,G6,1042.0,0.25,80,129.29
5449,E-2,1042.0,1.0,70,129.29
5450,E-3,1042.0,1.0,70,129.29
5451,G5,1042.5,0.25,80,129.29
5452,G6,1042.5,0.25,80,129.29
5453,C3,1043.0,0.25,67,129.29
5454,F#5,1043.0,0.5,84,129.29
5455,F#6,1043.0,0.5,84,129.29
5456,D3,1043.5,0.25,67,129.29
5457,G5,1043.5,0.25,80,129.29
5458,G6,1043.5,0.25,80,129.29
5459,G5,1044.0,0.25,80,129.29
5460,G6,1044.0,0.25,80,129.29
5461,E-2,1044.0,0.5,70,129.29
5462,E-3,1044.0,0.5,70,129.29
5463,E-3,1044.5,0.25,67,129.29
5464,G5,1044.5,0.25,80,129.29
5465,G6,1044.5,0.25,80,129.29
5466,C3,1045.0,0.25,67,129.29
5467,G5,1045.0,1.0,94,129.29
5468,B-5,1045.0,1.0,94,129.29
5469,E-6,1045.0,1.0,94,129.29
5470,G6,1045.0,1.0,94,129.29
5471,D3,1045.5,0.25,67,129.29
5472,E-3,1046.0,1.0,73,129.29
5473,G3,1046.0,1.0,73,129.29
5474,B-3,1046.0,1.0,73,129.29
5475,E-4,1046.0,1.0,73,129.29
5476,A5,1049.0,1.0,96,129.29
5477,E-6,1049.0,1.0,96,129.29
5478,A6,1049.0,1.0,96,129.29
5479,F2,1050.0,1.0,74,129.29
5480,C3,1050.0,1.0,74,129.29
5481,F3,1050.0,1.0,74,129.29
5482,B-5,1053.0,1.0,109,129.29
5483,D6,1053.0,1.0,109,129.29
5484,B-6,1053.0,1.0,109,129.29
5485,B-1,1054.0,333/1000,82,129.29
5486,F2,1054.333,333/1000,52,129.29
5487,D6,1054.5,0.5,50,129.29
5488,E-5,1054.5,0.5,50,129.29
5489,B-2,1054.667,333/1000,52,129.29
5490,C6,1055.0,0.5,58,129.29
5491,F5,1055.0,1.0,49,129.29
5492,B-1,1055.0,333/1000,49,129.29
5493,F2,1055.333,333/1000,45,129.29
5494,B-5,1055.5,0.25,54,129.29
5495,B-2,1055.667,333/1000,45,129.29
5496,B-1,1056.0,333/1000,50,129.29
5497,B-5,1056.0,0.25,50,129.29
5498,D5,1056.0,0.25,50,129.29
5499,F2,1056.333,333/1000,45,129.29
5500,D5,1056.5,0.25,50,129.29
5501,B-5,1056.5,0.25,50,129.29
5502,B-2,1056.667,333/1000,45,129.29
5503,B-1,1057.0,333/1000,49,129.29
5504,E-5,1057.0,0.5,54,129.29
5505,G5,1057.0,0.5,54,129.29
5506,F2,1057.333,333/1000,45,129.29
5507,F5,1057.5,0.25,55,129.29
5508,B-2,1057.667,333/1000,45,129.29
5509,B-1,1058.0,333/1000,49,129.29
5510,A4,1058.0,0.25,50,129.29
5511,F5,1058.0,0.25,50,129.29
5512,F2,1058.333,333/1000,45,129.29
5513,A4,1058.5,0.25,50,129.29
5514,F5,1058.5,0.25,50,129.29
5515,B-2,1058.667,333/1000,45,129.29
5516,B-4,1059.0,1.0,49,129.29
5517,E-5,1059.0,0.5,58,129.29
5518,B-1,1059.0,333/1000,48,129.29
5519,F2,1059.333,333/1000,45,129.29
5520,D5,1059.5,0.25,55,129.29
5521,B-2,1059.667,333/1000,45,129.29
5522,B-1,1060.0,333/1000,49,129.29
5523,E4,1060.0,0.25,50,129.29
5524,D5,1060.0,0.25,50,129.29
5525,F2,1060.333,333/1000,45,129.29
5526,E4,1060.5,0.25,50,129.29
5527,D5,1060.5,0.25,50,129.29
5528,B-2,1060.667,333/1000,45,129.29
5529,F4,1061.0,1.0,49,129.29
5530,C5,1061.0,0.5,58,129.29
5531,B-1,1061.0,333/1000,49,129.29
5532,F2,1061.333,333/1000,45,129.29
5533,B-4,1061.5,0.25,55,129.29
5534,B-2,1061.667,333/1000,45,129.29
5535,B-1,1062.0,333/1000,48,129.29
5536,D4,1062.0,0.25,50,129.29
5537,B-4,1062.0,0.25,50,129.29
5538,F2,1062.333,333/1000,45,129.29
5539,D4,1062.5,0.25,50,129.29
5540,B-4,1062.5,0.25,50,129.29
5541,B-2,1062.667,333/1000,45,129.29
5542,E-4,1063.0,1.0,49,129.29
5543,G4,1063.0,0.5,58,129.29
5544,B-1,1063.0,333/1000,50,129.29
5545,F2,1063.333,333/1000,45,129.29
5546,F4,1063.5,0.25,55,129.29
5547,B-2,1063.667,333/1000,45,129.29
5548,B-1,1064.0,333/1000,49,129.29
5549,A3,1064.0,0.25,51,129.29
5550,F4,1064.0,0.25,51,129.29
5551,F2,1064.333,333/1000,45,129.29
5552,A3,1064.5,0.25,52,129.29
5553,F4,1064.5,0.25,52,129.29
5554,B-2,1064.667,333/1000,45,129.29
5555,E-4,1065.0,1.0,50,129.29
5556,G4,1065.0,0.5,60,129.29
5557,B-1,1065.0,333/1000,50,129.29
5558,F2,1065.333,333/1000,46,129.29
5559,F4,1065.5,0.25,58,129.29
5560,B-2,1065.667,333/1000,46,129.29
5561,B-1,1066.0,333/1000,50,129.29
5562,A3,1066.0,0.25,54,129.29
5563,F4,1066.0,0.25,54,129.29
5564,F2,1066.333,333/1000,47,129.29
5565,A3,1066.5,0.25,54,129.29
5566,F4,1066.5,0.25,54,129.29
5567,B-2,1066.667,333/1000,47,129.29
5568,E-4,1067.0,1.0,52,129.29
5569,G4,1067.0,0.5,63,129.29
5570,B-1,1067.0,333/1000,53,129.29
5571,F2,1067.333,333/1000,48,129.29
5572,F4,1067.5,0.25,60,129.29
5573,B-2,1067.667,333/1000,48,129.29
5574,B-1,1068.0,333/1000,52,129.29
5575,A3,1068.0,0.25,56,129.29
5576,F4,1068.0,0.25,56,129.29
5577,F2,1068.333,333/1000,49,129.29
5578,F4,1068.5,0.25,56,129.29
5579,A3,1068.5,0.25,56,129.29
5580,B-2,1068.667,333/1000,49,129.29
5581,G4,1069.0,0.5,67,129.29
5582,B-1,1069.0,333/1000,55,129.29
5583,A3,1069.0,1.0,47,129.29
5584,E-4,1069.0,1.0,47,129.29
5585,F2,1069.333,333/1000,50,129.29
5586,F4,1069.5,0.25,63,129.29
5587,B-2,1069.667,333/1000,50,129.29
5588,B-4,1070.0,0.5,71,129.29
5589,B-1,1070.0,333/1000,55,129.29
5590,F4,1070.0,1.0,59,129.29
5591,E-4,1070.0,1.0,59,129.29
5592,F2,1070.333,333/1000,51,129.29
5593,A4,1070.5,0.25,67,129.29
5594,B-2,1070.667,333/1000,51,129.29
5595,D5,1071.0,0.5,75,129.29
5596,B-1,1071.0,333/1000,57,129.29
5597,A4,1071.0,1.0,63,129.29
5598,E-4,1071.0,1.0,63,129.29
5599,F2,1071.333,333/1000,52,129.29
5600,C5,1071.5,0.25,71,129.29
5601,B-2,1071.667,333/1000,52,129.29
5602,G5,1072.0,0.5,76,129.29
5603,B-1,1072.0,333/1000,55,129.29
5604,A4,1072.0,1.0,64,129.29
5605,E-5,1072.0,1.0,64,129.29
5606,F2,1072.333,333/1000,51,129.29
5607,F5,1072.5,0.25,73,129.29
5608,B-2,1072.667,333/1000,51,129.29
5609,B-5,1073.0,0.5,80,129.29
5610,B-1,1073.0,333/1000,58,129.29
5611,F5,1073.0,1.0,69,129.29
5612,E-5,1073.0,1.0,69,129.29
5613,F2,1073.333,333/1000,54,129.29
5614,A5,1073.5,0.25,75,129.29
5615,B-2,1073.667,333/1000,54,129.29
5616,D6,1074.0,0.5,84,129.29
5617,B-1,1074.0,333/1000,64,129.29
5618,E-5,1074.0,1.0,70,129.29
5619,A5,1074.0,1.0,70,129.29
5620,F2,1074.333,333/1000,56,129.29
5621,C6,1074.5,0.25,79,129.29
5622,B-2,1074.667,333/1000,56,129.29
5623,G6,1075.0,0.5,90,129.29
5624,B-1,1075.0,333/1000,69,129.29
5625,A5,1075.0,1.0,76,129.29
5626,E-6,1075.0,1.0,76,129.29
5627,F2,1075.333,333/1000,60,129.29
5628,F6,1075.5,0.25,85,129.29
5629,B-2,1075.667,333/1000,60,129.29
5630,B-6,1076.0,0.5,97,129.29
5631,B-1,1076.0,333/1000,74,129.29
5632,E-6,1076.0,1.0,82,129.29
5633,F6,1076.0,1.0,82,129.29
5634,F2,1076.333,333/1000,65,129.29
5635,A6,1076.5,0.25,94,129.29
5636,B-2,1076.667,333/1000,66,129.29
5637,B-1,1077.0,333/1000,75,129.29
5638,B-6,1077.0,1.0,102,129.29
5639,F6,1077.0,1.0,102,129.29
5640,D6,1077.0,1.0,102,129.29
5641,F2,1077.333,333/1000,66,129.29
5642,B-2,1077.667,333/1000,66,129.29
5643,B-1,1078.0,1.0,85,129.29
5644,D7,1079.0,1.0,101,129.29
5645,F6,1079.0,1.0,101,129.29
5646,D6,1079.0,1.0,101,129.29
5647,B-6,1079.0,1.0,101,129.29
5648,B-2,1080.0,1.0,69,129.29
5649,D3,1080.0,1.0,69,129.29
5650,F3,1080.0,1.0,69,129.29
5651,B-3,1080.0,1.0,69,129.29
5652,B-3,1081.0,1.0,116,129.29
5653,B-1,1082.0,1.0,76,129.29
5654,B-2,1082.0,1.0,76,129.29
