,note_name,start_time,duration,velocity,tempo
0,G4,0.0,0.25,84,145.5
1,G3,0.0,0.25,74,145.5
2,G#4,0.25,0.25,70,145.5
3,G#3,0.25,0.25,67,145.5
4,E-4,0.5,0.25,75,145.5
5,E-3,0.5,0.25,70,145.5
6,C4,0.75,0.25,70,145.5
7,C3,0.75,0.25,67,145.5
8,G#3,1.0,0.25,76,145.5
9,G#2,1.0,0.25,70,145.5
10,G4,1.5,0.25,85,145.5
11,G3,1.5,0.25,73,145.5
12,G#4,1.75,0.25,70,145.5
13,G#3,1.75,0.25,67,145.5
14,E-4,2.0,0.25,75,145.5
15,E-3,2.0,0.25,70,145.5
16,C4,2.25,0.25,70,145.5
17,C3,2.25,0.25,67,145.5
18,G#3,2.5,0.25,76,145.5
19,G#2,2.5,0.25,70,145.5
20,E-4,3.0,0.75,80,145.5
21,C5,3.0,0.75,80,145.5
22,E-5,3.0,0.75,80,145.5
23,G#2,3.0,0.75,65,145.5
24,E-3,3.0,0.75,65,145.5
25,G#3,3.0,0.75,65,145.5
26,E-4,3.75,119/500,76,145.5
27,C5,3.75,119/500,76,145.5
28,E-5,3.75,119/500,76,145.5
29,G#2,3.75,119/500,60,145.5
30,E-3,3.75,119/500,60,145.5
31,G#3,3.75,119/500,60,145.5
32,E-4,4.0,0.25,80,145.5
33,C5,4.0,0.25,80,145.5
34,E-5,4.0,0.25,80,145.5
35,G#2,4.0,0.25,66,145.5
36,E-3,4.0,0.25,66,145.5
37,G#3,4.0,0.25,66,145.5
38,E-4,4.5,0.75,80,145.5
39,C5,4.5,0.75,80,145.5
40,E-5,4.5,0.75,80,145.5
41,G#2,4.5,0.75,65,145.5
42,E-3,4.5,0.75,65,145.5
43,G#3,4.5,0.75,65,145.5
44,E-4,5.25,119/500,76,145.5
45,C5,5.25,119/500,76,145.5
46,E-5,5.25,119/500,76,145.5
47,G#2,5.25,119/500,60,145.5
48,E-3,5.25,119/500,60,145.5
49,G#3,5.25,119/500,60,145.5
50,E-4,5.5,0.25,80,145.5
51,C5,5.5,0.25,80,145.5
52,E-5,5.5,0.25,80,145.5
53,G#2,5.5,0.25,66,145.5
54,E-3,5.5,0.25,66,145.5
55,G#3,5.5,0.25,66,145.5
56,E-4,6.0,0.25,72,145.5
57,B4,6.0,0.25,72,145.5
58,E-5,6.0,0.25,72,145.5
59,G#2,6.0,0.5,66,145.5
60,E-3,6.0,0.5,66,145.5
61,G#3,6.0,0.5,66,145.5
62,C5,6.25,0.25,73,145.5
63,G#4,6.5,0.25,73,145.5
64,E-4,6.75,0.25,73,145.5
65,C4,7.0,0.25,80,145.5
66,E-4,7.5,0.25,84,145.5
67,G#4,7.75,0.25,74,145.5
68,C5,8.0,0.25,74,145.5
69,E-5,8.25,0.25,74,145.5
70,G#5,8.5,0.25,79,145.5
71,A5,9.0,0.125,71,145.5
72,A4,9.0,0.125,71,145.5
73,E-4,9.0,0.125,66,145.5
74,C#4,9.0,0.125,66,145.5
75,G3,9.0,0.125,66,145.5
76,B-4,9.5,1.0,80,145.5
77,B-5,9.5,1.0,80,145.5
78,E-4,9.5,1.0,66,145.5
79,C#4,9.5,1.0,66,145.5
80,G3,9.5,1.0,66,145.5
81,D4,10.5,0.25,85,145.5
82,D3,10.5,0.25,73,145.5
83,E-4,10.75,0.25,70,145.5
84,E-3,10.75,0.25,67,145.5
85,B-3,11.0,0.25,75,145.5
86,B-2,11.0,0.25,70,145.5
87,G3,11.25,0.25,70,145.5
88,G2,11.25,0.25,67,145.5
89,E-3,11.5,0.25,76,145.5
90,E-2,11.5,0.25,70,145.5
91,E-4,12.0,0.75,80,145.5
92,C#5,12.0,0.75,80,145.5
93,E-5,12.0,0.75,80,145.5
94,B-2,12.0,0.75,65,145.5
95,E-3,12.0,0.75,65,145.5
96,B-3,12.0,0.75,65,145.5
97,E-4,12.75,119/500,76,145.5
98,C#5,12.75,119/500,76,145.5
99,E-5,12.75,119/500,76,145.5
100,B-2,12.75,119/500,60,145.5
101,E-3,12.75,119/500,60,145.5
102,B-3,12.75,119/500,60,145.5
103,E-4,13.0,0.25,80,145.5
104,C#5,13.0,0.25,80,145.5
105,E-5,13.0,0.25,80,145.5
106,B-2,13.0,0.25,66,145.5
107,E-3,13.0,0.25,66,145.5
108,B-3,13.0,0.25,66,145.5
109,E-4,13.5,0.75,80,145.5
110,C#5,13.5,0.75,80,145.5
111,E-5,13.5,0.75,80,145.5
112,B-2,13.5,0.75,65,145.5
113,E-3,13.5,0.75,65,145.5
114,B-3,13.5,0.75,65,145.5
115,E-4,14.25,119/500,76,145.5
116,C#5,14.25,119/500,76,145.5
117,E-5,14.25,119/500,76,145.5
118,B-2,14.25,119/500,60,145.5
119,E-3,14.25,119/500,60,145.5
120,B-3,14.25,119/500,60,145.5
121,E-4,14.5,0.25,80,145.5
122,C#5,14.5,0.25,80,145.5
123,E-5,14.5,0.25,80,145.5
124,B-2,14.5,0.25,66,145.5
125,E-3,14.5,0.25,66,145.5
126,B-3,14.5,0.25,66,145.5
127,E-4,15.0,0.25,72,145.5
128,C5,15.0,0.25,72,145.5
129,E-5,15.0,0.25,72,145.5
130,B-2,15.0,0.5,66,145.5
131,E-3,15.0,0.5,66,145.5
132,B-3,15.0,0.5,66,145.5
133,C#5,15.25,0.25,73,145.5
134,B-4,15.5,0.25,73,145.5
135,G4,15.75,0.25,73,145.5
136,E-4,16.0,0.25,80,145.5
137,G4,16.5,0.25,84,145.5
138,B-4,16.75,0.25,74,145.5
139,C#5,17.0,0.25,74,145.5
140,E-5,17.25,0.25,74,145.5
141,G5,17.5,0.25,79,145.5
142,B5,18.0,0.125,71,145.5
143,B4,18.0,0.125,71,145.5
144,G4,18.0,0.125,66,145.5
145,E-4,18.0,0.125,66,145.5
146,G#3,18.0,0.125,66,145.5
147,C5,18.5,1.0,80,145.5
148,C6,18.5,1.0,80,145.5
149,G#4,18.5,1.0,66,145.5
150,E-4,18.5,1.0,66,145.5
151,G#3,18.5,1.0,66,145.5
152,G4,19.5,0.25,85,145.5
153,G3,19.5,0.25,73,145.5
154,G#4,19.75,0.25,70,145.5
155,G#3,19.75,0.25,67,145.5
156,E-4,20.0,0.25,75,145.5
157,E-3,20.0,0.25,70,145.5
158,C4,20.25,0.25,70,145.5
159,C3,20.25,0.25,67,145.5
160,G#3,20.5,0.25,76,145.5
161,G#2,20.5,0.25,70,145.5
162,G#2,21.0,0.25,73,145.5
163,F#4,21.0,0.75,78,145.5
164,G#4,21.0,0.75,78,145.5
165,E-5,21.0,0.75,78,145.5
166,F#5,21.0,0.75,78,145.5
167,A2,21.25,0.25,71,145.5
168,B-2,21.5,0.25,75,145.5
169,B2,21.75,0.25,79,145.5
170,F#4,21.75,119/500,75,145.5
171,G#4,21.75,119/500,75,145.5
172,E-5,21.75,119/500,75,145.5
173,F#5,21.75,119/500,75,145.5
174,C3,22.0,0.25,83,145.5
175,F#4,22.0,0.25,78,145.5
176,G#4,22.0,0.25,78,145.5
177,E-5,22.0,0.25,78,145.5
178,F#5,22.0,0.25,78,145.5
179,E5,22.5,0.25,85,145.5
180,C#3,22.5,0.25,73,145.5
181,F5,22.75,0.25,70,145.5
182,C#4,22.75,0.25,67,145.5
183,C#5,23.0,0.25,75,145.5
184,G#3,23.0,0.25,70,145.5
185,G#4,23.25,0.25,70,145.5
186,F3,23.25,0.25,67,145.5
187,F4,23.5,0.25,76,145.5
188,C#3,23.5,0.25,70,145.5
189,F2,24.0,0.25,73,145.5
190,E-4,24.0,0.75,78,145.5
191,F4,24.0,0.75,78,145.5
192,C5,24.0,0.75,78,145.5
193,E-5,24.0,0.75,78,145.5
194,F#2,24.25,0.25,71,145.5
195,G2,24.5,0.25,74,145.5
196,G#2,24.75,0.25,77,145.5
197,E-4,24.75,119/500,75,145.5
198,F4,24.75,119/500,75,145.5
199,C5,24.75,119/500,75,145.5
200,E-5,24.75,119/500,75,145.5
201,A2,25.0,0.25,80,145.5
202,E-4,25.0,0.25,78,145.5
203,F4,25.0,0.25,78,145.5
204,C5,25.0,0.25,78,145.5
205,E-5,25.0,0.25,78,145.5
206,C5,25.5,0.25,85,145.5
207,B-2,25.5,0.25,73,145.5
208,C#5,25.75,0.25,70,145.5
209,B-3,25.75,0.25,67,145.5
210,B-4,26.0,0.25,75,145.5
211,F3,26.0,0.25,70,145.5
212,F4,26.25,0.25,70,145.5
213,C#3,26.25,0.25,67,145.5
214,C#4,26.5,0.25,76,145.5
215,B-2,26.5,0.25,70,145.5
216,C6,27.0,0.25,59,145.5
217,G2,27.0,1.0,41,145.5
218,G3,27.0,1.0,41,145.5
219,C#6,27.25,0.25,49,145.5
220,B-5,27.5,0.25,52,145.5
221,G5,27.75,0.25,49,145.5
222,C#5,28.0,0.25,53,145.5
223,E4,28.0,0.25,32,145.5
224,C#4,28.0,0.25,32,145.5
225,B-3,28.0,0.25,32,145.5
226,G3,28.0,0.25,32,145.5
227,B5,28.5,0.25,59,145.5
228,G#2,28.5,1.0,41,145.5
229,G#3,28.5,1.0,41,145.5
230,C6,28.75,0.25,49,145.5
231,G#5,29.0,0.25,52,145.5
232,E-5,29.25,0.25,49,145.5
233,C5,29.5,0.25,53,145.5
234,E-4,29.5,0.25,33,145.5
235,C4,29.5,0.25,33,145.5
236,G#3,29.5,0.25,33,145.5
237,E-5,30.0,0.25,64,145.5
238,B-1,30.0,1.0,45,145.5
239,B-2,30.0,1.0,45,145.5
240,E5,30.25,0.25,53,145.5
241,C#5,30.5,0.25,57,145.5
242,B-4,30.75,0.25,53,145.5
243,E4,31.0,0.25,58,145.5
244,G3,31.0,0.25,36,145.5
245,C#3,31.0,0.25,36,145.5
246,B-2,31.0,0.25,36,145.5
247,D5,31.5,0.25,70,145.5
248,B1,31.5,1.0,50,145.5
249,B2,31.5,1.0,50,145.5
250,E-5,31.75,0.25,58,145.5
251,B4,32.0,0.25,62,145.5
252,G#4,32.25,0.25,58,145.5
253,E-4,32.5,0.25,63,145.5
254,G#3,32.5,0.25,40,145.5
255,E-3,32.5,0.25,40,145.5
256,B2,32.5,0.25,40,145.5
257,E2,33.0,0.25,32,145.5
258,G#4,33.0,0.25,52,145.5
259,E-5,33.0,0.25,52,145.5
260,G#5,33.25,0.25,58,145.5
261,E3,33.25,0.25,38,145.5
262,E2,33.5,0.25,40,145.5
263,G#4,33.5,0.25,54,145.5
264,E-5,33.5,0.25,54,145.5
265,G#5,33.75,0.25,61,145.5
266,E3,33.75,0.25,41,145.5
267,E2,34.0,0.25,43,145.5
268,G#4,34.0,0.25,58,145.5
269,E-5,34.0,0.25,58,145.5
270,G#5,34.25,0.25,65,145.5
271,E3,34.25,0.25,45,145.5
272,E2,34.5,0.25,47,145.5
273,G#4,34.5,0.25,62,145.5
274,E-5,34.5,0.25,62,145.5
275,G#5,34.75,0.25,68,145.5
276,E3,34.75,0.25,48,145.5
277,E2,35.0,0.25,50,145.5
278,G#4,35.0,0.25,64,145.5
279,E-5,35.0,0.25,64,145.5
280,G#5,35.25,0.25,72,145.5
281,E3,35.25,0.25,52,145.5
282,E2,35.5,0.25,54,145.5
283,G#4,35.5,0.25,68,145.5
284,E-5,35.5,0.25,68,145.5
285,G#5,35.75,0.25,76,145.5
286,E3,35.75,0.25,55,145.5
287,F2,36.0,0.25,57,145.5
288,G#4,36.0,0.25,71,145.5
289,D5,36.0,0.25,71,145.5
290,G#5,36.25,0.25,79,145.5
291,F#2,36.25,0.25,59,145.5
292,G2,36.5,0.25,61,145.5
293,G#4,36.5,0.25,74,145.5
294,D5,36.5,0.25,74,145.5
295,G#5,36.75,0.25,83,145.5
296,G#2,36.75,0.25,62,145.5
297,A2,37.0,0.25,64,145.5
298,G#4,37.0,0.25,78,145.5
299,D5,37.0,0.25,78,145.5
300,G#5,37.25,0.25,86,145.5
301,B-2,37.25,0.25,66,145.5
302,B2,37.5,0.25,68,145.5
303,G#4,37.5,0.25,81,145.5
304,D5,37.5,0.25,81,145.5
305,G#5,37.75,0.25,90,145.5
306,C3,37.75,0.25,70,145.5
307,C#3,38.0,0.25,71,145.5
308,G#4,38.0,0.25,85,145.5
309,D5,38.0,0.25,85,145.5
310,G#5,38.25,0.25,94,145.5
311,D3,38.25,0.25,73,145.5
312,E-3,38.5,0.25,75,145.5
313,G#4,38.5,0.25,88,145.5
314,D5,38.5,0.25,88,145.5
315,G#5,38.75,0.25,97,145.5
316,E3,38.75,0.25,77,145.5
317,G#4,39.0,0.5,95,145.5
318,D5,39.0,0.5,95,145.5
319,G#5,39.0,0.5,95,145.5
320,E3,39.0,0.5,78,145.5
321,E4,39.0,0.5,78,145.5
322,B-4,39.5,0.25,84,145.5
323,D5,39.5,0.25,84,145.5
324,G#5,39.5,0.25,84,145.5
325,B-5,39.5,0.25,84,145.5
326,E3,39.5,0.25,71,145.5
327,E4,39.5,0.25,71,145.5
328,B-4,40.0,0.25,84,145.5
329,D5,40.0,0.25,84,145.5
330,G#5,40.0,0.25,84,145.5
331,B-5,40.0,0.25,84,145.5
332,E3,40.0,0.25,71,145.5
333,E4,40.0,0.25,71,145.5
334,B-4,40.5,0.25,89,145.5
335,D5,40.5,0.25,89,145.5
336,G#5,40.5,0.25,89,145.5
337,B-5,40.5,0.25,89,145.5
338,E3,40.5,0.25,78,145.5
339,E4,40.5,0.25,78,145.5
340,B-4,41.0,0.25,80,145.5
341,D5,41.0,0.25,80,145.5
342,G#5,41.0,0.25,80,145.5
343,B-5,41.0,0.25,80,145.5
344,E3,41.0,0.25,71,145.5
345,E4,41.0,0.25,71,145.5
346,B-4,41.5,0.25,80,145.5
347,D5,41.5,0.25,80,145.5
348,G#5,41.5,0.25,80,145.5
349,B-5,41.5,0.25,80,145.5
350,E3,41.5,0.25,71,145.5
351,E4,41.5,0.25,71,145.5
352,B-4,42.0,0.5,84,145.5
353,E-5,42.0,0.5,84,145.5
354,G5,42.0,0.5,84,145.5
355,B-5,42.0,0.5,84,145.5
356,E-3,42.0,0.5,80,145.5
357,E-4,42.0,0.5,80,145.5
358,E-6,42.5,0.25,84,145.5
359,B-5,42.5,0.25,84,145.5
360,G5,42.5,0.25,84,145.5
361,E-5,42.5,0.25,84,145.5
362,E-2,42.5,0.25,71,145.5
363,E-3,42.5,0.25,71,145.5
364,E-4,43.5,0.25,74,145.5
365,G4,43.5,0.25,74,145.5
366,B-4,43.5,0.25,74,145.5
367,E-2,43.5,0.25,62,145.5
368,E-3,43.5,0.25,62,145.5
369,E-4,44.0,0.25,67,145.5
370,G4,44.0,0.25,67,145.5
371,B-4,44.0,0.25,67,145.5
372,E-5,44.0,0.25,67,145.5
373,E-1,44.0,0.25,56,145.5
374,E-2,44.0,0.25,56,145.5
375,E-4,45.0,0.75,48,145.5
376,C5,45.0,0.75,48,145.5
377,E-5,45.0,0.75,48,145.5
378,G#2,45.0,0.75,38,145.5
379,E-3,45.0,0.75,38,145.5
380,G#3,45.0,0.75,38,145.5
381,E-4,45.75,119/500,46,145.5
382,C5,45.75,119/500,46,145.5
383,E-5,45.75,119/500,46,145.5
384,G#2,45.75,119/500,35,145.5
385,E-3,45.75,119/500,35,145.5
386,G#3,45.75,119/500,35,145.5
387,E-4,46.0,0.25,48,145.5
388,C5,46.0,0.25,48,145.5
389,E-5,46.0,0.25,48,145.5
390,G#2,46.0,0.25,39,145.5
391,E-3,46.0,0.25,39,145.5
392,G#3,46.0,0.25,39,145.5
393,E-4,46.5,0.75,48,145.5
394,C5,46.5,0.75,48,145.5
395,E-5,46.5,0.75,48,145.5
396,G#2,46.5,0.75,38,145.5
397,E-3,46.5,0.75,38,145.5
398,G#3,46.5,0.75,38,145.5
399,E-4,47.25,119/500,46,145.5
400,C5,47.25,119/500,46,145.5
401,E-5,47.25,119/500,46,145.5
402,G#2,47.25,119/500,35,145.5
403,E-3,47.25,119/500,35,145.5
404,G#3,47.25,119/500,35,145.5
405,E-4,47.5,0.25,48,145.5
406,C5,47.5,0.25,48,145.5
407,E-5,47.5,0.25,48,145.5
408,G#2,47.5,0.25,39,145.5
409,E-3,47.5,0.25,39,145.5
410,G#3,47.5,0.25,39,145.5
411,E-4,48.0,0.25,43,145.5
412,B4,48.0,0.25,43,145.5
413,E-5,48.0,0.25,43,145.5
414,G#2,48.0,0.5,39,145.5
415,E-3,48.0,0.5,39,145.5
416,G#3,48.0,0.5,39,145.5
417,C5,48.25,0.25,43,145.5
418,G#4,48.5,0.25,43,145.5
419,E-4,48.75,0.25,43,145.5
420,C4,49.0,0.25,48,145.5
421,E-4,49.5,0.25,50,145.5
422,G#4,49.75,0.25,44,145.5
423,C5,50.0,0.25,44,145.5
424,E-5,50.25,0.25,44,145.5
425,G#5,50.5,0.25,47,145.5
426,A5,51.0,0.125,42,145.5
427,A4,51.0,0.125,42,145.5
428,E-4,51.0,0.125,39,145.5
429,C#4,51.0,0.125,39,145.5
430,G3,51.0,0.125,39,145.5
431,B-4,51.5,1.0,47,145.5
432,B-5,51.5,1.0,47,145.5
433,E-4,51.5,1.0,39,145.5
434,C#4,51.5,1.0,39,145.5
435,G3,51.5,1.0,39,145.5
436,D4,52.5,0.25,51,145.5
437,D3,52.5,0.25,43,145.5
438,E-4,52.75,0.25,42,145.5
439,E-3,52.75,0.25,40,145.5
440,B-3,53.0,0.25,45,145.5
441,B-2,53.0,0.25,42,145.5
442,G3,53.25,0.25,42,145.5
443,G2,53.25,0.25,40,145.5
444,E-3,53.5,0.25,45,145.5
445,E-2,53.5,0.25,42,145.5
446,E-4,54.0,0.75,48,145.5
447,C#5,54.0,0.75,48,145.5
448,E-5,54.0,0.75,48,145.5
449,B-2,54.0,0.75,38,145.5
450,E-3,54.0,0.75,38,145.5
451,B-3,54.0,0.75,38,145.5
452,E-4,54.75,119/500,46,145.5
453,C#5,54.75,119/500,46,145.5
454,E-5,54.75,119/500,46,145.5
455,B-2,54.75,119/500,35,145.5
456,E-3,54.75,119/500,35,145.5
457,B-3,54.75,119/500,35,145.5
458,E-4,55.0,0.25,48,145.5
459,C#5,55.0,0.25,48,145.5
460,E-5,55.0,0.25,48,145.5
461,B-2,55.0,0.25,39,145.5
462,E-3,55.0,0.25,39,145.5
463,B-3,55.0,0.25,39,145.5
464,E-4,55.5,0.75,48,145.5
465,C#5,55.5,0.75,48,145.5
466,E-5,55.5,0.75,48,145.5
467,B-2,55.5,0.75,38,145.5
468,E-3,55.5,0.75,38,145.5
469,B-3,55.5,0.75,38,145.5
470,E-4,56.25,119/500,46,145.5
471,C#5,56.25,119/500,46,145.5
472,E-5,56.25,119/500,46,145.5
473,B-2,56.25,119/500,35,145.5
474,E-3,56.25,119/500,35,145.5
475,B-3,56.25,119/500,35,145.5
476,E-4,56.5,0.25,48,145.5
477,C#5,56.5,0.25,48,145.5
478,E-5,56.5,0.25,48,145.5
479,B-2,56.5,0.25,39,145.5
480,E-3,56.5,0.25,39,145.5
481,B-3,56.5,0.25,39,145.5
482,E-4,57.0,0.25,43,145.5
483,C5,57.0,0.25,43,145.5
484,E-5,57.0,0.25,43,145.5
485,B-2,57.0,0.5,39,145.5
486,E-3,57.0,0.5,39,145.5
487,B-3,57.0,0.5,39,145.5
488,C#5,57.25,0.25,43,145.5
489,B-4,57.5,0.25,43,145.5
490,G4,57.75,0.25,43,145.5
491,E-4,58.0,0.25,48,145.5
492,G4,58.5,0.25,50,145.5
493,B-4,58.75,0.25,44,145.5
494,C#5,59.0,0.25,44,145.5
495,E-5,59.25,0.25,44,145.5
496,G5,59.5,0.25,47,145.5
497,B5,60.0,0.125,42,145.5
498,B4,60.0,0.125,42,145.5
499,G4,60.0,0.125,39,145.5
500,E-4,60.0,0.125,39,145.5
501,G#3,60.0,0.125,39,145.5
502,C5,60.5,1.0,47,145.5
503,C6,60.5,1.0,47,145.5
504,G#4,60.5,1.0,39,145.5
505,E-4,60.5,1.0,39,145.5
506,G#3,60.5,1.0,39,145.5
507,G4,61.5,0.25,51,145.5
508,G3,61.5,0.25,43,145.5
509,G#4,61.75,0.25,42,145.5
510,G#3,61.75,0.25,40,145.5
511,E-4,62.0,0.25,45,145.5
512,E-3,62.0,0.25,42,145.5
513,C4,62.25,0.25,42,145.5
514,C3,62.25,0.25,40,145.5
515,G#3,62.5,0.25,45,145.5
516,G#2,62.5,0.25,42,145.5
517,G#4,63.0,0.25,49,145.5
518,F#3,63.0,0.75,38,145.5
519,G#3,63.0,0.75,38,145.5
520,E-4,63.0,0.75,38,145.5
521,A4,63.25,0.25,48,145.5
522,B-4,63.5,0.25,51,145.5
523,B4,63.75,0.25,54,145.5
524,F#3,63.75,0.25,31,145.5
525,G#3,63.75,0.25,31,145.5
526,E-4,63.75,0.25,31,145.5
527,C5,64.0,0.25,57,145.5
528,F#3,64.0,0.25,34,145.5
529,G#3,64.0,0.25,34,145.5
530,E-4,64.0,0.25,34,145.5
531,C5,64.5,0.25,51,145.5
532,F3,64.5,0.5,35,145.5
533,G#3,64.5,0.5,35,145.5
534,C#4,64.5,0.5,35,145.5
535,C#5,64.75,0.188,49,145.5
536,G#5,65.0,1.0,57,145.5
537,C#3,65.0,1.0,35,145.5
538,F3,65.0,1.0,35,145.5
539,C#4,65.0,1.0,35,145.5
540,F4,66.0,0.25,45,145.5
541,E-3,66.0,0.75,38,145.5
542,F3,66.0,0.75,38,145.5
543,C4,66.0,0.75,38,145.5
544,F#4,66.25,0.25,46,145.5
545,G4,66.5,0.25,47,145.5
546,G#4,66.75,0.25,49,145.5
547,E-3,66.75,0.25,31,145.5
548,F3,66.75,0.25,31,145.5
549,C4,66.75,0.25,31,145.5
550,A4,67.0,0.25,50,145.5
551,E-3,67.0,0.25,34,145.5
552,F3,67.0,0.25,34,145.5
553,C4,67.0,0.25,34,145.5
554,A4,67.5,0.25,51,145.5
555,C#3,67.5,0.5,35,145.5
556,F3,67.5,0.5,35,145.5
557,B-3,67.5,0.5,35,145.5
558,B-4,67.75,0.188,49,145.5
559,F5,68.0,1.0,57,145.5
560,B-2,68.0,1.0,35,145.5
561,C#3,68.0,1.0,35,145.5
562,B-3,68.0,1.0,35,145.5
563,D5,69.0,0.25,56,145.5
564,E-3,69.0,0.5,42,145.5
565,E-5,69.25,0.188,56,145.5
566,D4,69.5,0.25,51,145.5
567,G3,69.5,1.0,43,145.5
568,C#5,69.5,1.0,56,145.5
569,E-5,69.5,1.0,56,145.5
570,C#6,69.5,1.0,56,145.5
571,E-4,69.75,0.25,43,145.5
572,B-4,70.0,0.25,51,145.5
573,B4,70.5,0.25,59,145.5
574,E-3,70.5,0.5,44,145.5
575,C5,70.75,0.188,59,145.5
576,D4,71.0,0.25,54,145.5
577,G#3,71.0,1.0,46,145.5
578,C5,71.0,1.0,60,145.5
579,E-5,71.0,1.0,60,145.5
580,C6,71.0,1.0,60,145.5
581,E-4,71.25,0.25,46,145.5
582,G#4,71.5,0.25,56,145.5
583,D5,72.0,0.25,64,145.5
584,E-3,72.0,0.5,48,145.5
585,E-5,72.25,0.188,64,145.5
586,D4,72.5,0.25,57,145.5
587,G3,72.5,1.0,48,145.5
588,C#5,72.5,1.0,63,145.5
589,E-5,72.5,1.0,63,145.5
590,C#6,72.5,1.0,63,145.5
591,E-4,72.75,0.25,49,145.5
592,B-4,73.0,0.25,59,145.5
593,B4,73.5,0.25,67,145.5
594,E-3,73.5,0.5,51,145.5
595,C5,73.75,0.188,67,145.5
596,D4,74.0,0.25,61,145.5
597,G#3,74.0,1.0,51,145.5
598,C5,74.0,1.0,68,145.5
599,E-5,74.0,1.0,68,145.5
600,C6,74.0,1.0,68,145.5
601,E-4,74.25,0.25,52,145.5
602,G#4,74.5,0.25,63,145.5
603,E-5,75.0,0.75,71,145.5
604,G#4,75.0,0.75,71,145.5
605,G#5,75.0,0.75,71,145.5
606,E3,75.0,0.75,54,145.5
607,E4,75.0,0.75,54,145.5
608,G#4,75.75,119/500,68,145.5
609,E-5,75.75,119/500,68,145.5
610,G#5,75.75,119/500,68,145.5
611,E2,75.75,119/500,50,145.5
612,E3,75.75,119/500,50,145.5
613,E-5,76.0,0.25,68,145.5
614,G#4,76.0,0.25,68,145.5
615,G#5,76.0,0.25,68,145.5
616,E2,76.0,0.25,50,145.5
617,E3,76.0,0.25,50,145.5
618,E-5,76.5,0.25,72,145.5
619,G#4,76.5,0.25,72,145.5
620,G#5,76.5,0.25,72,145.5
621,E2,76.5,0.25,56,145.5
622,E3,76.5,0.25,56,145.5
623,G#4,77.0,0.25,67,145.5
624,E-5,77.0,0.25,67,145.5
625,G#5,77.0,0.25,67,145.5
626,E2,77.0,0.25,50,145.5
627,E3,77.0,0.25,50,145.5
628,E-5,77.5,0.25,67,145.5
629,G#4,77.5,0.25,67,145.5
630,G#5,77.5,0.25,67,145.5
631,E2,77.5,0.25,50,145.5
632,E3,77.5,0.25,50,145.5
633,F2,78.0,0.25,57,145.5
634,G#4,78.0,0.25,71,145.5
635,D5,78.0,0.25,71,145.5
636,G#5,78.25,0.25,79,145.5
637,F#2,78.25,0.25,59,145.5
638,G2,78.5,0.25,61,145.5
639,G#4,78.5,0.25,74,145.5
640,D5,78.5,0.25,74,145.5
641,G#5,78.75,0.25,83,145.5
642,G#2,78.75,0.25,62,145.5
643,A2,79.0,0.25,64,145.5
644,G#4,79.0,0.25,78,145.5
645,D5,79.0,0.25,78,145.5
646,G#5,79.25,0.25,86,145.5
647,B-2,79.25,0.25,66,145.5
648,B2,79.5,0.25,68,145.5
649,G#4,79.5,0.25,81,145.5
650,D5,79.5,0.25,81,145.5
651,G#5,79.75,0.25,90,145.5
652,C3,79.75,0.25,70,145.5
653,C#3,80.0,0.25,71,145.5
654,G#4,80.0,0.25,85,145.5
655,D5,80.0,0.25,85,145.5
656,G#5,80.25,0.25,94,145.5
657,D3,80.25,0.25,73,145.5
658,E-3,80.5,0.25,75,145.5
659,G#4,80.5,0.25,88,145.5
660,D5,80.5,0.25,88,145.5
661,G#5,80.75,0.25,97,145.5
662,E3,80.75,0.25,77,145.5
663,G#4,81.0,0.5,95,145.5
664,D5,81.0,0.5,95,145.5
665,G#5,81.0,0.5,95,145.5
666,E2,81.0,0.5,78,145.5
667,E3,81.0,0.5,78,145.5
668,B-4,81.5,0.25,84,145.5
669,D5,81.5,0.25,84,145.5
670,G#5,81.5,0.25,84,145.5
671,B-5,81.5,0.25,84,145.5
672,E3,81.5,0.25,71,145.5
673,E4,81.5,0.25,71,145.5
674,B-4,82.0,0.25,84,145.5
675,D5,82.0,0.25,84,145.5
676,G#5,82.0,0.25,84,145.5
677,B-5,82.0,0.25,84,145.5
678,E4,82.0,0.25,71,145.5
679,E3,82.0,0.25,71,145.5
680,B-4,82.5,0.25,89,145.5
681,D5,82.5,0.25,89,145.5
682,G#5,82.5,0.25,89,145.5
683,B-5,82.5,0.25,89,145.5
684,E3,82.5,0.25,78,145.5
685,E4,82.5,0.25,78,145.5
686,B-4,83.0,0.25,81,145.5
687,D5,83.0,0.25,81,145.5
688,G#5,83.0,0.25,81,145.5
689,B-5,83.0,0.25,81,145.5
690,E3,83.0,0.25,71,145.5
691,E4,83.0,0.25,71,145.5
692,B-4,83.5,0.25,81,145.5
693,D5,83.5,0.25,81,145.5
694,G#5,83.5,0.25,81,145.5
695,B-5,83.5,0.25,81,145.5
696,E3,83.5,0.25,71,145.5
697,E4,83.5,0.25,71,145.5
698,B-4,84.0,0.25,84,145.5
699,E-5,84.0,0.25,84,145.5
700,G5,84.0,0.25,84,145.5
701,B-5,84.0,0.25,84,145.5
702,E-3,84.0,0.25,80,145.5
703,E-4,84.0,0.25,80,145.5
704,E-6,84.5,0.25,84,145.5
705,B-5,84.5,0.25,84,145.5
706,G5,84.5,0.25,84,145.5
707,E-5,84.5,0.25,84,145.5
708,E-3,84.5,0.25,71,145.5
709,E-2,84.5,0.25,71,145.5
710,E-4,85.5,0.25,74,145.5
711,G4,85.5,0.25,74,145.5
712,B-4,85.5,0.25,74,145.5
713,E-3,85.5,0.25,62,145.5
714,E-2,85.5,0.25,62,145.5
715,E-4,86.0,0.25,68,145.5
716,G4,86.0,0.25,68,145.5
717,E-5,86.0,0.25,68,145.5
718,E-2,86.0,0.25,56,145.5
719,E-1,86.0,0.25,56,145.5
720,C#2,87.0,0.75,80,145.5
721,C#3,87.0,0.75,80,145.5
722,C#2,87.75,0.25,74,145.5
723,C#3,87.75,0.25,74,145.5
724,C#2,88.0,0.5,80,145.5
725,C#3,88.0,0.5,80,145.5
726,C#2,88.5,0.75,80,145.5
727,C#3,88.5,0.75,80,145.5
728,C#2,89.25,0.25,74,145.5
729,C#3,89.25,0.25,74,145.5
730,C#2,89.5,0.5,80,145.5
731,C#3,89.5,0.5,80,145.5
732,G5,90.0,167/1000,71,145.5
733,C#2,90.0,1.5,80,145.5
734,C#3,90.0,1.5,80,145.5
735,E5,90.167,167/1000,69,145.5
736,C#5,90.333,167/1000,66,145.5
737,B-4,90.5,167/1000,64,145.5
738,G4,90.667,167/1000,62,145.5
739,E4,90.833,167/1000,59,145.5
740,C#4,91.0,167/1000,56,145.5
741,B-3,91.167,167/1000,56,145.5
742,G3,91.333,167/1000,56,145.5
743,E3,91.5,167/1000,56,145.5
744,G3,91.667,167/1000,55,145.5
745,B-3,91.833,167/1000,56,145.5
746,C#4,92.0,167/1000,56,145.5
747,E4,92.167,167/1000,57,145.5
748,C#2,92.25,0.75,80,145.5
749,C#3,92.25,0.75,80,145.5
750,G4,92.333,167/1000,58,145.5
751,B-4,92.5,167/1000,60,145.5
752,C#5,92.667,167/1000,63,145.5
753,E5,92.833,167/1000,64,145.5
754,G5,93.0,167/1000,67,145.5
755,C#2,93.0,119/500,74,145.5
756,C#3,93.0,119/500,74,145.5
757,E5,93.167,167/1000,66,145.5
758,C#2,93.25,0.5,80,145.5
759,C#3,93.25,0.5,80,145.5
760,C#5,93.333,167/1000,65,145.5
761,B-4,93.5,167/1000,64,145.5
762,G4,93.667,167/1000,63,145.5
763,C#2,93.75,1.5,80,145.5
764,C#3,93.75,1.5,80,145.5
765,E4,93.833,167/1000,62,145.5
766,C#4,94.0,167/1000,61,145.5
767,B-3,94.167,167/1000,60,145.5
768,G3,94.333,167/1000,59,145.5
769,E3,94.5,167/1000,58,145.5
770,G3,94.667,167/1000,55,145.5
771,B-3,94.833,167/1000,56,145.5
772,C#4,95.0,167/1000,56,145.5
773,E4,95.167,167/1000,57,145.5
774,G4,95.333,167/1000,58,145.5
775,B-4,95.5,167/1000,59,145.5
776,C#5,95.667,167/1000,59,145.5
777,E5,95.833,167/1000,62,145.5
778,G4,96.0,0.75,64,145.5
779,E5,96.0,0.75,64,145.5
780,G5,96.0,0.75,64,145.5
781,C#2,96.0,0.75,80,145.5
782,C#3,96.0,0.75,80,145.5
783,G5,96.75,119/500,68,145.5
784,G4,96.75,119/500,68,145.5
785,E5,96.75,119/500,68,145.5
786,C#2,96.75,119/500,74,145.5
787,C#3,96.75,119/500,74,145.5
788,G4,97.0,0.25,71,145.5
789,E5,97.0,0.25,71,145.5
790,G5,97.0,0.25,71,145.5
791,C#2,97.0,0.5,80,145.5
792,C#3,97.0,0.5,80,145.5
793,G#4,97.5,0.75,71,145.5
794,E5,97.5,0.75,71,145.5
795,G#5,97.5,0.75,71,145.5
796,C#2,97.5,0.75,59,145.5
797,C#3,97.5,0.75,59,145.5
798,G#5,98.25,119/500,68,145.5
799,G#4,98.25,119/500,68,145.5
800,E5,98.25,119/500,68,145.5
801,C#2,98.25,119/500,55,145.5
802,C#3,98.25,119/500,55,145.5
803,G#4,98.5,0.25,71,145.5
804,E5,98.5,0.25,71,145.5
805,G#5,98.5,0.25,71,145.5
806,C#2,98.5,0.25,60,145.5
807,C#3,98.5,0.25,60,145.5
808,G4,99.0,0.75,71,145.5
809,E5,99.0,0.75,71,145.5
810,G5,99.0,0.75,71,145.5
811,C#2,99.0,0.75,59,145.5
812,C#3,99.0,0.75,59,145.5
813,G5,99.75,119/500,68,145.5
814,G4,99.75,119/500,68,145.5
815,E5,99.75,119/500,68,145.5
816,C#2,99.75,119/500,55,145.5
817,C#3,99.75,119/500,55,145.5
818,G4,100.0,0.25,71,145.5
819,E5,100.0,0.25,71,145.5
820,G5,100.0,0.25,71,145.5
821,C#2,100.0,0.25,60,145.5
822,C#3,100.0,0.25,60,145.5
823,G#4,100.5,0.75,71,145.5
824,E5,100.5,0.75,71,145.5
825,G#5,100.5,0.75,71,145.5
826,C#2,100.5,0.75,59,145.5
827,C#3,100.5,0.75,59,145.5
828,G#5,101.25,119/500,68,145.5
829,G#4,101.25,119/500,68,145.5
830,E5,101.25,119/500,68,145.5
831,C#2,101.25,119/500,55,145.5
832,C#3,101.25,119/500,55,145.5
833,G#4,101.5,0.25,71,145.5
834,E5,101.5,0.25,71,145.5
835,G#5,101.5,0.25,71,145.5
836,C#2,101.5,0.25,60,145.5
837,C#3,101.5,0.25,60,145.5
838,F#5,102.0,0.75,70,145.5
839,B-4,102.0,0.75,70,145.5
840,E5,102.0,0.75,70,145.5
841,B-5,102.0,0.75,70,145.5
842,C#2,102.0,0.75,59,145.5
843,C#3,102.0,0.75,59,145.5
844,F#5,102.75,119/500,67,145.5
845,B-5,102.75,119/500,67,145.5
846,B-4,102.75,119/500,67,145.5
847,E5,102.75,119/500,67,145.5
848,C#2,102.75,119/500,55,145.5
849,C#3,102.75,119/500,55,145.5
850,F#5,103.0,0.25,70,145.5
851,B-4,103.0,0.25,70,145.5
852,E5,103.0,0.25,70,145.5
853,B-5,103.0,0.25,70,145.5
854,C#2,103.0,0.25,60,145.5
855,C#3,103.0,0.25,60,145.5
856,B4,103.5,0.75,71,145.5
857,F#5,103.5,0.75,71,145.5
858,B5,103.5,0.75,71,145.5
859,C#3,103.5,0.75,59,145.5
860,C#4,103.5,0.75,59,145.5
861,B5,104.25,119/500,72,145.5
862,B4,104.25,119/500,72,145.5
863,F#5,104.25,119/500,72,145.5
864,C#3,104.25,119/500,55,145.5
865,C#4,104.25,119/500,55,145.5
866,B4,104.5,0.25,78,145.5
867,F#5,104.5,0.25,78,145.5
868,B5,104.5,0.25,78,145.5
869,C#3,104.5,0.25,60,145.5
870,C#4,104.5,0.25,60,145.5
871,E-5,105.0,0.75,81,145.5
872,B5,105.0,0.75,81,145.5
873,F#5,105.0,0.75,81,145.5
874,E-6,105.0,0.75,81,145.5
875,E-3,105.0,0.75,59,145.5
876,E-4,105.0,0.75,59,145.5
877,E-5,105.75,119/500,72,145.5
878,E-6,105.75,119/500,72,145.5
879,B5,105.75,119/500,72,145.5
880,F#5,105.75,119/500,72,145.5
881,E-3,105.75,119/500,58,145.5
882,E-4,105.75,119/500,58,145.5
883,E-5,106.0,0.25,74,145.5
884,B5,106.0,0.25,74,145.5
885,F#5,106.0,0.25,74,145.5
886,E-6,106.0,0.25,74,145.5
887,E-3,106.0,0.25,66,145.5
888,E-4,106.0,0.25,66,145.5
889,B-5,106.5,0.75,70,145.5
890,F#5,106.5,0.75,70,145.5
891,E5,106.5,0.75,70,145.5
892,C#6,106.5,0.75,70,145.5
893,F#3,106.5,0.75,68,145.5
894,F#4,106.5,0.75,68,145.5
895,B-5,107.25,119/500,67,145.5
896,C#6,107.25,119/500,67,145.5
897,F#5,107.25,119/500,67,145.5
898,E5,107.25,119/500,67,145.5
899,F#3,107.25,119/500,59,145.5
900,F#4,107.25,119/500,59,145.5
901,B-5,107.5,0.25,70,145.5
902,F#5,107.5,0.25,70,145.5
903,E5,107.5,0.25,70,145.5
904,C#6,107.5,0.25,70,145.5
905,F#3,107.5,0.25,62,145.5
906,F#4,107.5,0.25,62,145.5
907,E-5,108.0,0.5,79,145.5
908,F#5,108.0,0.5,79,145.5
909,B5,108.0,0.5,79,145.5
910,F#2,108.0,0.75,59,145.5
911,F#3,108.0,0.75,59,145.5
912,F#2,108.75,119/500,55,145.5
913,F#3,108.75,119/500,55,145.5
914,F#2,109.0,0.25,60,145.5
915,F#3,109.0,0.25,60,145.5
916,B1,109.5,0.75,80,145.5
917,B2,109.5,0.75,80,145.5
918,B1,110.25,119/500,74,145.5
919,B2,110.25,119/500,74,145.5
920,B1,110.5,0.5,80,145.5
921,B2,110.5,0.5,80,145.5
922,F5,111.0,167/1000,70,145.5
923,B1,111.0,0.75,80,145.5
924,B2,111.0,0.75,80,145.5
925,D5,111.167,167/1000,68,145.5
926,B4,111.333,167/1000,67,145.5
927,G#4,111.5,167/1000,65,145.5
928,F4,111.667,167/1000,64,145.5
929,B1,111.75,119/500,74,145.5
930,B2,111.75,119/500,74,145.5
931,D4,111.833,167/1000,62,145.5
932,B3,112.0,167/1000,61,145.5
933,B1,112.0,0.5,80,145.5
934,B2,112.0,0.5,80,145.5
935,G#3,112.167,167/1000,59,145.5
936,F3,112.333,167/1000,58,145.5
937,D3,112.5,167/1000,56,145.5
938,B1,112.5,1.5,80,145.5
939,B2,112.5,1.5,80,145.5
940,F3,112.667,167/1000,55,145.5
941,G#3,112.833,167/1000,56,145.5
942,B3,113.0,167/1000,56,145.5
943,D4,113.167,167/1000,57,145.5
944,F4,113.333,167/1000,58,145.5
945,G#4,113.5,167/1000,59,145.5
946,B4,113.667,167/1000,60,145.5
947,D5,113.833,167/1000,63,145.5
948,F5,114.0,167/1000,65,145.5
949,D5,114.167,167/1000,64,145.5
950,B4,114.333,167/1000,63,145.5
951,G#4,114.5,167/1000,62,145.5
952,F4,114.667,167/1000,61,145.5
953,B1,114.75,0.75,80,145.5
954,B2,114.75,0.75,80,145.5
955,D4,114.833,167/1000,59,145.5
956,B3,115.0,167/1000,58,145.5
957,G#3,115.167,167/1000,57,145.5
958,F3,115.333,167/1000,56,145.5
959,D3,115.5,167/1000,56,145.5
960,B1,115.5,119/500,74,145.5
961,B2,115.5,119/500,74,145.5
962,F3,115.667,167/1000,55,145.5
963,B1,115.75,0.5,80,145.5
964,B2,115.75,0.5,80,145.5
965,G#3,115.833,167/1000,56,145.5
966,B3,116.0,167/1000,56,145.5
967,D4,116.167,167/1000,57,145.5
968,B1,116.25,1.5,80,145.5
969,B2,116.25,1.5,80,145.5
970,F4,116.333,167/1000,58,145.5
971,G#4,116.5,0.125,60,145.5
972,B4,116.625,0.125,62,145.5
973,D5,116.75,0.125,63,145.5
974,F5,116.875,0.125,66,145.5
975,F#4,117.0,0.75,71,145.5
976,F#5,117.0,0.75,71,145.5
977,F#5,117.75,119/500,45,145.5
978,F#4,117.75,119/500,45,145.5
979,F#4,118.0,0.5,48,145.5
980,F#5,118.0,0.5,48,145.5
981,B4,118.5,0.75,50,145.5
982,B5,118.5,0.75,50,145.5
983,B1,118.5,0.75,80,145.5
984,B2,118.5,0.75,80,145.5
985,B5,119.25,119/500,45,145.5
986,B4,119.25,119/500,45,145.5
987,B1,119.25,119/500,74,145.5
988,B2,119.25,119/500,74,145.5
989,B4,119.5,0.5,50,145.5
990,B5,119.5,0.5,50,145.5
991,B1,119.5,0.5,80,145.5
992,B2,119.5,0.5,80,145.5
993,B2,120.0,0.375,49,145.5
994,B-4,120.0,0.75,50,145.5
995,B-5,120.0,0.75,50,145.5
996,E-4,120.5,1.0,34,145.5
997,B3,120.5,1.0,34,145.5
998,F#3,120.5,1.0,34,145.5
999,B-5,120.75,119/500,45,145.5
1000,B-4,120.75,119/500,45,145.5
1001,B-4,121.0,0.5,50,145.5
1002,B-5,121.0,0.5,50,145.5
1003,E-3,121.5,0.375,49,145.5
1004,E5,121.5,1.5,50,145.5
1005,E6,121.5,1.5,50,145.5
1006,F#4,122.0,1.0,32,145.5
1007,E-4,122.0,1.0,32,145.5
1008,B3,122.0,1.0,32,145.5
1009,C#3,123.0,0.375,49,145.5
1010,E-5,123.0,0.75,50,145.5
1011,E-6,123.0,0.75,50,145.5
1012,F#4,123.5,1.0,32,145.5
1013,E4,123.5,1.0,32,145.5
1014,B-3,123.5,1.0,32,145.5
1015,E-6,123.75,119/500,45,145.5
1016,E-5,123.75,119/500,45,145.5
1017,B4,124.0,0.5,50,145.5
1018,B5,124.0,0.5,50,145.5
1019,F#2,124.5,0.375,49,145.5
1020,G#4,124.5,0.75,50,145.5
1021,G#5,124.5,0.75,50,145.5
1022,F#4,125.0,1.0,32,145.5
1023,C#4,125.0,1.0,32,145.5
1024,B-3,125.0,1.0,32,145.5
1025,G#5,125.25,119/500,45,145.5
1026,G#4,125.25,119/500,45,145.5
1027,C#5,125.5,0.5,50,145.5
1028,C#6,125.5,0.5,50,145.5
1029,B2,126.0,0.375,49,145.5
1030,B-4,126.0,0.75,50,145.5
1031,B-5,126.0,0.75,50,145.5
1032,F#4,126.5,1.0,32,145.5
1033,E-4,126.5,1.0,32,145.5
1034,B3,126.5,1.0,32,145.5
1035,B-5,126.75,119/500,45,145.5
1036,B-4,126.75,119/500,45,145.5
1037,C#5,127.0,0.5,50,145.5
1038,C#6,127.0,0.5,50,145.5
1039,E2,127.5,0.375,49,145.5
1040,F#4,127.5,0.75,50,145.5
1041,F#5,127.5,0.75,50,145.5
1042,E4,128.0,1.0,32,145.5
1043,C#4,128.0,1.0,32,145.5
1044,G#3,128.0,1.0,32,145.5
1045,E-6,128.25,0.25,53,145.5
1046,E6,128.5,0.25,53,145.5
1047,F6,128.75,0.25,53,145.5
1048,F#2,129.0,0.375,49,145.5
1049,F#5,129.0,0.75,55,145.5
1050,F#6,129.0,0.75,55,145.5
1051,E4,129.5,1.0,32,145.5
1052,B-3,129.5,1.0,32,145.5
1053,F#3,129.5,1.0,32,145.5
1054,F#6,129.75,0.25,49,145.5
1055,F#5,129.75,0.25,49,145.5
1056,F#5,130.0,0.5,52,145.5
1057,F#6,130.0,0.5,52,145.5
1058,B-2,130.5,0.375,49,145.5
1059,B5,130.5,0.75,55,145.5
1060,B6,130.5,0.75,55,145.5
1061,E4,131.0,1.0,32,145.5
1062,C#4,131.0,1.0,32,145.5
1063,F#3,131.0,1.0,32,145.5
1064,B6,131.25,0.25,49,145.5
1065,B5,131.25,0.25,49,145.5
1066,B5,131.5,0.5,54,145.5
1067,B6,131.5,0.5,54,145.5
1068,B2,132.0,0.125,45,145.5
1069,B-5,132.0,0.75,55,145.5
1070,B-6,132.0,0.75,55,145.5
1071,F#3,132.25,0.25,35,145.5
1072,B3,132.5,0.25,35,145.5
1073,E-4,132.75,0.25,35,145.5
1074,B-6,132.75,0.25,49,145.5
1075,B-5,132.75,0.25,49,145.5
1076,B3,133.0,0.25,35,145.5
1077,B-5,133.0,0.5,54,145.5
1078,B-6,133.0,0.5,54,145.5
1079,F#3,133.25,0.25,35,145.5
1080,E-3,133.5,0.125,45,145.5
1081,E6,133.5,1.5,55,145.5
1082,E7,133.5,1.5,55,145.5
1083,B3,133.75,0.25,35,145.5
1084,E-4,134.0,0.25,35,145.5
1085,F#4,134.25,0.25,35,145.5
1086,E-4,134.5,0.25,35,145.5
1087,B3,134.75,0.25,35,145.5
1088,C#3,135.0,0.125,50,145.5
1089,E-6,135.0,0.75,55,145.5
1090,E-7,135.0,0.75,55,145.5
1091,B-3,135.25,0.25,35,145.5
1092,E4,135.5,0.25,35,145.5
1093,F#4,135.75,0.25,35,145.5
1094,E-7,135.75,0.25,49,145.5
1095,E-6,135.75,0.25,49,145.5
1096,E4,136.0,0.25,35,145.5
1097,B5,136.0,0.5,54,145.5
1098,B6,136.0,0.5,54,145.5
1099,B-3,136.25,0.25,35,145.5
1100,F#2,136.5,0.125,47,145.5
1101,G#5,136.5,0.75,55,145.5
1102,G#6,136.5,0.75,55,145.5
1103,B-3,136.75,0.25,35,145.5
1104,C#4,137.0,0.25,35,145.5
1105,F#4,137.25,0.25,35,145.5
1106,G#6,137.25,0.25,49,145.5
1107,G#5,137.25,0.25,49,145.5
1108,C#4,137.5,0.25,35,145.5
1109,C#6,137.5,0.5,54,145.5
1110,C#7,137.5,0.5,54,145.5
1111,B-3,137.75,0.25,35,145.5
1112,B2,138.0,0.125,46,145.5
1113,B-5,138.0,0.75,55,145.5
1114,B-6,138.0,0.75,55,145.5
1115,B3,138.25,0.25,35,145.5
1116,E-4,138.5,0.25,35,145.5
1117,F#4,138.75,0.25,35,145.5
1118,B-6,138.75,0.25,49,145.5
1119,B-5,138.75,0.25,49,145.5
1120,E-4,139.0,0.25,35,145.5
1121,C#6,139.0,0.5,54,145.5
1122,C#7,139.0,0.5,54,145.5
1123,B3,139.25,0.25,35,145.5
1124,E2,139.5,0.125,49,145.5
1125,B5,139.5,1.5,55,145.5
1126,B6,139.5,1.5,55,145.5
1127,G#3,139.75,0.25,35,145.5
1128,C#4,140.0,0.25,35,145.5
1129,E4,140.25,0.25,35,145.5
1130,C#4,140.5,0.25,35,145.5
1131,G#3,140.75,0.25,35,145.5
1132,F#2,141.0,0.125,52,145.5
1133,F#4,141.25,0.25,67,145.5
1134,F#3,141.25,0.25,35,145.5
1135,B-3,141.5,0.25,35,145.5
1136,F#5,141.5,0.25,69,145.5
1137,E-5,141.5,0.25,69,145.5
1138,B4,141.75,0.25,63,145.5
1139,E4,141.75,0.25,35,145.5
1140,B-3,142.0,0.25,35,145.5
1141,E-5,142.0,0.25,62,145.5
1142,B4,142.0,0.25,62,145.5
1143,F#4,142.25,0.25,63,145.5
1144,F#3,142.25,0.25,35,145.5
1145,B2,142.5,0.125,49,145.5
1146,B4,142.75,0.25,67,145.5
1147,F#3,142.75,0.25,35,145.5
1148,B3,143.0,0.25,35,145.5
1149,B5,143.0,0.25,70,145.5
1150,G#5,143.0,0.25,70,145.5
1151,F5,143.25,0.25,64,145.5
1152,E-4,143.25,0.25,35,145.5
1153,B3,143.5,0.25,35,145.5
1154,G#5,143.5,0.25,62,145.5
1155,F5,143.5,0.25,62,145.5
1156,B4,143.75,0.25,63,145.5
1157,F#3,143.75,0.25,35,145.5
1158,B1,144.0,0.75,81,145.5
1159,B2,144.0,0.75,81,145.5
1160,B-4,144.25,0.25,67,145.5
1161,B-5,144.5,0.25,68,145.5
1162,G#5,144.5,0.25,68,145.5
1163,E-5,144.5,0.25,68,145.5
1164,B-4,144.75,0.25,63,145.5
1165,B2,144.75,119/500,71,145.5
1166,B1,144.75,119/500,71,145.5
1167,F#5,145.0,0.25,62,145.5
1168,E-5,145.0,0.25,62,145.5
1169,B1,145.0,0.25,78,145.5
1170,B2,145.0,0.25,78,145.5
1171,B-4,145.25,0.25,63,145.5
1172,D2,145.5,0.75,82,145.5
1173,D3,145.5,0.75,82,145.5
1174,F4,145.75,0.25,67,145.5
1175,F5,146.0,0.25,69,145.5
1176,E-5,146.0,0.25,69,145.5
1177,B-4,146.0,0.25,69,145.5
1178,F4,146.25,0.25,64,145.5
1179,D3,146.25,119/500,71,145.5
1180,D2,146.25,119/500,71,145.5
1181,B-4,146.5,0.25,62,145.5
1182,D5,146.5,0.25,62,145.5
1183,D2,146.5,0.25,74,145.5
1184,D3,146.5,0.25,74,145.5
1185,F4,146.75,0.25,63,145.5
1186,E-2,147.0,0.75,78,145.5
1187,E-3,147.0,0.75,78,145.5
1188,G#4,147.25,0.25,67,145.5
1189,G#5,147.5,0.25,69,145.5
1190,F5,147.5,0.25,69,145.5
1191,C#5,147.75,0.25,63,145.5
1192,E-3,147.75,0.25,75,145.5
1193,E-2,147.75,0.25,75,145.5
1194,F5,148.0,0.25,62,145.5
1195,C#5,148.0,0.25,62,145.5
1196,F#2,148.0,0.25,76,145.5
1197,F#3,148.0,0.25,76,145.5
1198,G#4,148.25,0.25,63,145.5
1199,B-2,148.5,1.5,82,145.5
1200,B-3,148.5,1.5,82,145.5
1201,C#5,148.75,0.25,67,145.5
1202,C#6,149.0,0.25,70,145.5
1203,B-5,149.0,0.25,70,145.5
1204,G5,149.25,0.25,64,145.5
1205,B-5,149.5,0.25,62,145.5
1206,G5,149.5,0.25,62,145.5
1207,C#5,149.75,0.25,63,145.5
1208,C#2,150.0,0.75,81,145.5
1209,C#3,150.0,0.75,81,145.5
1210,C5,150.25,0.25,67,145.5
1211,C6,150.5,0.25,68,145.5
1212,B-5,150.5,0.25,68,145.5
1213,G5,150.5,0.25,68,145.5
1214,C5,150.75,0.25,63,145.5
1215,C#3,150.75,119/500,71,145.5
1216,C#2,150.75,119/500,71,145.5
1217,G#5,151.0,0.25,62,145.5
1218,F5,151.0,0.25,62,145.5
1219,C#2,151.0,0.25,78,145.5
1220,C#3,151.0,0.25,78,145.5
1221,C5,151.25,0.25,63,145.5
1222,E2,151.5,0.75,82,145.5
1223,E3,151.5,0.75,82,145.5
1224,G4,151.75,0.25,67,145.5
1225,G5,152.0,0.25,69,145.5
1226,F5,152.0,0.25,69,145.5
1227,C5,152.0,0.25,69,145.5
1228,G4,152.25,0.25,64,145.5
1229,E3,152.25,119/500,71,145.5
1230,E2,152.25,119/500,71,145.5
1231,C5,152.5,0.25,62,145.5
1232,E5,152.5,0.25,62,145.5
1233,E2,152.5,0.25,74,145.5
1234,E3,152.5,0.25,74,145.5
1235,G4,152.75,0.25,63,145.5
1236,F2,153.0,0.75,78,145.5
1237,F3,153.0,0.75,78,145.5
1238,B-4,153.25,0.25,70,145.5
1239,B-5,153.5,0.25,72,145.5
1240,G5,153.5,0.25,72,145.5
1241,E-5,153.75,0.25,66,145.5
1242,F3,153.75,0.25,75,145.5
1243,F2,153.75,0.25,75,145.5
1244,G5,154.0,0.25,65,145.5
1245,E-5,154.0,0.25,65,145.5
1246,G#2,154.0,0.25,76,145.5
1247,G#3,154.0,0.25,76,145.5
1248,B-4,154.25,0.25,66,145.5
1249,C3,154.5,1.5,82,145.5
1250,C4,154.5,1.5,82,145.5
1251,E5,154.75,0.25,71,145.5
1252,E6,155.0,0.25,74,145.5
1253,C#6,155.0,0.25,74,145.5
1254,B-5,155.25,0.25,68,145.5
1255,C#6,155.5,0.25,65,145.5
1256,B-5,155.5,0.25,65,145.5
1257,E5,155.75,0.25,68,145.5
1258,E-2,156.0,0.75,84,145.5
1259,E-3,156.0,0.75,84,145.5
1260,E-5,156.25,0.25,72,145.5
1261,E-6,156.5,0.25,73,145.5
1262,C#6,156.5,0.25,73,145.5
1263,B-5,156.5,0.25,73,145.5
1264,E-5,156.75,0.25,68,145.5
1265,E-3,156.75,119/500,74,145.5
1266,E-2,156.75,119/500,74,145.5
1267,B5,157.0,0.25,67,145.5
1268,G#5,157.0,0.25,67,145.5
1269,E-2,157.0,0.25,82,145.5
1270,E-3,157.0,0.25,82,145.5
1271,E-5,157.25,0.25,68,145.5
1272,G2,157.5,0.75,86,145.5
1273,G3,157.5,0.75,86,145.5
1274,B-4,157.75,0.25,70,145.5
1275,B-5,158.0,0.25,72,145.5
1276,G#5,158.0,0.25,72,145.5
1277,E-5,158.0,0.25,72,145.5
1278,B-4,158.25,0.25,67,145.5
1279,G3,158.25,119/500,76,145.5
1280,G2,158.25,119/500,76,145.5
1281,E-5,158.5,0.25,64,145.5
1282,G5,158.5,0.25,64,145.5
1283,G2,158.5,0.25,78,145.5
1284,G3,158.5,0.25,78,145.5
1285,B-4,158.75,0.25,66,145.5
1286,E5,159.0,0.75,84,145.5
1287,G5,159.0,0.75,84,145.5
1288,B-5,159.0,0.75,84,145.5
1289,E6,159.0,0.75,84,145.5
1290,G#2,159.0,0.75,84,145.5
1291,G#3,159.0,0.75,84,145.5
1292,E5,159.75,119/500,80,145.5
1293,G5,159.75,119/500,80,145.5
1294,B-5,159.75,119/500,80,145.5
1295,E6,159.75,119/500,80,145.5
1296,G#3,159.75,0.25,82,145.5
1297,G#2,159.75,0.25,82,145.5
1298,E5,160.0,0.5,83,145.5
1299,G5,160.0,0.5,83,145.5
1300,B-5,160.0,0.5,83,145.5
1301,E6,160.0,0.5,83,145.5
1302,B2,160.0,0.25,83,145.5
1303,B3,160.0,0.25,83,145.5
1304,E5,160.5,0.75,84,145.5
1305,G5,160.5,0.75,84,145.5
1306,B-5,160.5,0.75,84,145.5
1307,E6,160.5,0.75,84,145.5
1308,E-3,160.5,1.5,86,145.5
1309,E-4,160.5,1.5,86,145.5
1310,E5,161.25,119/500,80,145.5
1311,G5,161.25,119/500,80,145.5
1312,B-5,161.25,119/500,80,145.5
1313,E6,161.25,119/500,80,145.5
1314,E5,161.5,0.5,83,145.5
1315,G5,161.5,0.5,83,145.5
1316,B-5,161.5,0.5,83,145.5
1317,E6,161.5,0.5,83,145.5
1318,E5,162.0,167/1000,65,145.5
1319,B-5,162.0,167/1000,65,145.5
1320,G5,162.0,167/1000,65,145.5
1321,E6,162.0,167/1000,65,145.5
1322,C#3,162.0,0.75,74,145.5
1323,C#4,162.0,0.75,74,145.5
1324,C#6,162.167,167/1000,67,145.5
1325,B-5,162.333,167/1000,66,145.5
1326,G5,162.5,167/1000,65,145.5
1327,E5,162.667,167/1000,65,145.5
1328,C#3,162.75,119/500,68,145.5
1329,C#4,162.75,119/500,68,145.5
1330,C#5,162.833,167/1000,64,145.5
1331,B-4,163.0,167/1000,63,145.5
1332,C#3,163.0,0.5,76,145.5
1333,C#4,163.0,0.5,76,145.5
1334,G4,163.167,167/1000,63,145.5
1335,E4,163.333,167/1000,63,145.5
1336,C#4,163.5,167/1000,63,145.5
1337,C#3,163.5,0.75,74,145.5
1338,C#4,163.5,0.75,74,145.5
1339,E4,163.667,167/1000,62,145.5
1340,G4,163.833,167/1000,63,145.5
1341,B-4,164.0,167/1000,63,145.5
1342,C#5,164.167,167/1000,64,145.5
1343,C#3,164.25,119/500,66,145.5
1344,C#4,164.25,119/500,66,145.5
1345,E5,164.333,167/1000,65,145.5
1346,G5,164.5,167/1000,66,145.5
1347,C#3,164.5,0.5,73,145.5
1348,C#4,164.5,0.5,73,145.5
1349,B-5,164.667,167/1000,67,145.5
1350,C#6,164.833,167/1000,70,145.5
1351,F5,165.0,0.75,84,145.5
1352,G#5,165.0,0.75,84,145.5
1353,B5,165.0,0.75,84,145.5
1354,F6,165.0,0.75,84,145.5
1355,C#3,165.0,0.75,89,145.5
1356,C#4,165.0,0.75,89,145.5
1357,F5,165.75,119/500,80,145.5
1358,G#5,165.75,119/500,80,145.5
1359,B5,165.75,119/500,80,145.5
1360,F6,165.75,119/500,80,145.5
1361,C#2,165.75,0.25,78,145.5
1362,C#3,165.75,0.25,78,145.5
1363,F5,166.0,0.5,83,145.5
1364,G#5,166.0,0.5,83,145.5
1365,B5,166.0,0.5,83,145.5
1366,F6,166.0,0.5,83,145.5
1367,C#2,166.0,0.5,86,145.5
1368,C#3,166.0,0.5,86,145.5
1369,F5,166.5,0.75,84,145.5
1370,G#5,166.5,0.75,84,145.5
1371,B5,166.5,0.75,84,145.5
1372,F6,166.5,0.75,84,145.5
1373,F5,167.25,119/500,80,145.5
1374,G#5,167.25,119/500,80,145.5
1375,B5,167.25,119/500,80,145.5
1376,F6,167.25,119/500,80,145.5
1377,F5,167.5,0.5,83,145.5
1378,G#5,167.5,0.5,83,145.5
1379,B5,167.5,0.5,83,145.5
1380,F6,167.5,0.5,83,145.5
1381,F5,168.0,167/1000,66,145.5
1382,G#5,168.0,167/1000,66,145.5
1383,F6,168.0,167/1000,66,145.5
1384,C#2,168.0,1.5,86,145.5
1385,C#3,168.0,1.5,86,145.5
1386,B5,168.167,167/1000,67,145.5
1387,G#5,168.333,167/1000,66,145.5
1388,F5,168.5,167/1000,65,145.5
1389,B4,168.667,167/1000,65,145.5
1390,G#4,168.833,167/1000,64,145.5
1391,F4,169.0,167/1000,63,145.5
1392,B3,169.167,167/1000,63,145.5
1393,G#3,169.333,167/1000,63,145.5
1394,F3,169.5,167/1000,63,145.5
1395,D3,169.5,0.75,74,145.5
1396,D4,169.5,0.75,74,145.5
1397,G#3,169.667,167/1000,62,145.5
1398,B3,169.833,167/1000,63,145.5
1399,F4,170.0,167/1000,63,145.5
1400,G#4,170.167,167/1000,64,145.5
1401,D3,170.25,119/500,68,145.5
1402,D4,170.25,119/500,68,145.5
1403,B4,170.333,167/1000,65,145.5
1404,F5,170.5,167/1000,66,145.5
1405,D3,170.5,0.5,76,145.5
1406,D4,170.5,0.5,76,145.5
1407,G#5,170.667,167/1000,67,145.5
1408,B5,170.833,167/1000,70,145.5
1409,G#5,171.0,0.75,84,145.5
1410,B5,171.0,0.75,84,145.5
1411,D6,171.0,0.75,84,145.5
1412,G#6,171.0,0.75,84,145.5
1413,D3,171.0,0.75,74,145.5
1414,D4,171.0,0.75,74,145.5
1415,G#5,171.75,119/500,80,145.5
1416,B5,171.75,119/500,80,145.5
1417,D6,171.75,119/500,80,145.5
1418,G#6,171.75,119/500,80,145.5
1419,D3,171.75,119/500,66,145.5
1420,D4,171.75,119/500,66,145.5
1421,G#5,172.0,0.5,83,145.5
1422,B5,172.0,0.5,83,145.5
1423,D6,172.0,0.5,83,145.5
1424,G#6,172.0,0.5,83,145.5
1425,D3,172.0,0.5,73,145.5
1426,D4,172.0,0.5,73,145.5
1427,G#5,172.5,0.75,84,145.5
1428,B5,172.5,0.75,84,145.5
1429,D6,172.5,0.75,84,145.5
1430,G#6,172.5,0.75,84,145.5
1431,D3,172.5,0.75,89,145.5
1432,D4,172.5,0.75,89,145.5
1433,G#5,173.25,119/500,80,145.5
1434,B5,173.25,119/500,80,145.5
1435,D6,173.25,119/500,80,145.5
1436,G#6,173.25,119/500,80,145.5
1437,D2,173.25,0.25,78,145.5
1438,D3,173.25,0.25,78,145.5
1439,G#5,173.5,0.5,83,145.5
1440,B5,173.5,0.5,83,145.5
1441,D6,173.5,0.5,83,145.5
1442,G#6,173.5,0.5,83,145.5
1443,D2,173.5,0.5,86,145.5
1444,D3,173.5,0.5,86,145.5
1445,G#5,174.0,167/1000,66,145.5
1446,B5,174.0,167/1000,66,145.5
1447,G#6,174.0,167/1000,66,145.5
1448,D6,174.167,167/1000,67,145.5
1449,B5,174.333,167/1000,66,145.5
1450,G#5,174.5,167/1000,65,145.5
1451,D5,174.667,167/1000,65,145.5
1452,B4,174.833,167/1000,64,145.5
1453,G#4,175.0,167/1000,63,145.5
1454,D4,175.167,167/1000,63,145.5
1455,B3,175.333,167/1000,63,145.5
1456,G#3,175.5,167/1000,63,145.5
1457,D2,175.5,1.5,86,145.5
1458,D3,175.5,1.5,86,145.5
1459,B3,175.667,167/1000,62,145.5
1460,D4,175.833,167/1000,63,145.5
1461,G#4,176.0,167/1000,63,145.5
1462,B4,176.167,167/1000,64,145.5
1463,D5,176.333,167/1000,65,145.5
1464,G#5,176.5,167/1000,66,145.5
1465,B5,176.667,167/1000,67,145.5
1466,G#6,176.833,167/1000,70,145.5
1467,E-5,177.0,0.75,84,145.5
1468,G5,177.0,0.75,84,145.5
1469,B-5,177.0,0.75,84,145.5
1470,E-6,177.0,0.75,84,145.5
1471,E3,177.0,0.75,74,145.5
1472,E4,177.0,0.75,74,145.5
1473,E-5,177.75,119/500,90,145.5
1474,E3,177.75,119/500,68,145.5
1475,E4,177.75,119/500,68,145.5
1476,E-5,178.0,0.25,94,145.5
1477,E3,178.0,0.5,76,145.5
1478,E4,178.0,0.5,76,145.5
1479,E-5,178.5,0.75,84,145.5
1480,G#5,178.5,0.75,84,145.5
1481,B5,178.5,0.75,84,145.5
1482,E-6,178.5,0.75,84,145.5
1483,E3,178.5,0.75,74,145.5
1484,E4,178.5,0.75,74,145.5
1485,E-5,179.25,119/500,90,145.5
1486,E3,179.25,119/500,66,145.5
1487,E4,179.25,119/500,66,145.5
1488,E-5,179.5,0.25,94,145.5
1489,E3,179.5,0.5,73,145.5
1490,E4,179.5,0.5,73,145.5
1491,E-5,180.0,0.75,84,145.5
1492,G5,180.0,0.75,84,145.5
1493,B-5,180.0,0.75,84,145.5
1494,E-6,180.0,0.75,84,145.5
1495,E3,180.0,0.75,89,145.5
1496,E4,180.0,0.75,89,145.5
1497,E-5,180.75,119/500,90,145.5
1498,E2,180.75,0.25,78,145.5
1499,E3,180.75,0.25,78,145.5
1500,E-5,181.0,0.25,94,145.5
1501,E2,181.0,0.5,86,145.5
1502,E3,181.0,0.5,86,145.5
1503,E-5,181.5,0.75,84,145.5
1504,G#5,181.5,0.75,84,145.5
1505,B5,181.5,0.75,84,145.5
1506,E-6,181.5,0.75,84,145.5
1507,E-5,182.25,119/500,90,145.5
1508,E-5,182.5,0.25,94,145.5
1509,E-4,183.0,0.75,44,145.5
1510,G4,183.0,0.75,44,145.5
1511,B-4,183.0,0.75,44,145.5
1512,E-5,183.0,0.75,44,145.5
1513,E2,183.0,1.5,86,145.5
1514,E3,183.0,1.5,86,145.5
1515,E-4,183.75,119/500,54,145.5
1516,E-4,184.0,0.25,54,145.5
1517,E-4,184.5,0.75,44,145.5
1518,G#4,184.5,0.75,44,145.5
1519,B4,184.5,0.75,44,145.5
1520,E-5,184.5,0.75,44,145.5
1521,B-3,184.5,0.75,71,145.5
1522,E-3,184.5,0.75,71,145.5
1523,G3,184.5,0.75,71,145.5
1524,E-4,184.5,0.75,71,145.5
1525,E-4,185.25,119/500,53,145.5
1526,E-4,185.25,119/500,73,145.5
1527,E-4,185.5,0.25,55,145.5
1528,E-4,185.5,0.25,82,145.5
1529,E-4,186.0,0.75,44,145.5
1530,G4,186.0,0.75,44,145.5
1531,B-4,186.0,0.75,44,145.5
1532,E-5,186.0,0.75,44,145.5
1533,B3,186.0,0.75,71,145.5
1534,E-3,186.0,0.75,71,145.5
1535,G#3,186.0,0.75,71,145.5
1536,E-4,186.0,0.75,71,145.5
1537,E-4,186.75,119/500,54,145.5
1538,E-4,186.75,119/500,73,145.5
1539,E-4,187.0,0.25,54,145.5
1540,E-4,187.0,0.25,82,145.5
1541,E-4,187.5,0.75,44,145.5
1542,G#4,187.5,0.75,44,145.5
1543,B4,187.5,0.75,44,145.5
1544,E-5,187.5,0.75,44,145.5
1545,B-3,187.5,0.75,71,145.5
1546,E-3,187.5,0.75,71,145.5
1547,G3,187.5,0.75,71,145.5
1548,E-4,187.5,0.75,71,145.5
1549,E-4,188.25,119/500,53,145.5
1550,E-4,188.25,119/500,73,145.5
1551,E-4,188.5,0.25,55,145.5
1552,E-4,188.5,0.25,82,145.5
1553,E-3,189.0,0.75,33,145.5
1554,G3,189.0,0.75,33,145.5
1555,B-3,189.0,0.75,33,145.5
1556,E-4,189.0,0.75,33,145.5
1557,B3,189.0,0.75,71,145.5
1558,E-3,189.0,0.75,71,145.5
1559,G#3,189.0,0.75,71,145.5
1560,E-4,189.0,0.75,71,145.5
1561,E-3,189.75,119/500,41,145.5
1562,E-4,189.75,119/500,73,145.5
1563,E-3,190.0,0.25,41,145.5
1564,E-4,190.0,0.25,82,145.5
1565,E-3,190.5,0.75,31,145.5
1566,G#3,190.5,0.75,31,145.5
1567,B3,190.5,0.75,31,145.5
1568,E-4,190.5,0.75,31,145.5
1569,E-2,190.5,0.75,40,145.5
1570,E-3,190.5,0.75,40,145.5
1571,E-3,191.25,119/500,37,145.5
1572,E-3,191.25,119/500,43,145.5
1573,E-3,191.5,0.25,39,145.5
1574,E-3,191.5,0.25,48,145.5
1575,E-3,192.0,0.75,28,145.5
1576,G#3,192.0,0.75,28,145.5
1577,B-3,192.0,0.75,28,145.5
1578,E-4,192.0,0.75,28,145.5
1579,E-2,192.0,0.75,40,145.5
1580,E-3,192.0,0.75,40,145.5
1581,E-3,192.75,119/500,36,145.5
1582,E-3,192.75,119/500,41,145.5
1583,E-3,193.0,0.25,35,145.5
1584,E-3,193.0,0.25,47,145.5
1585,E-3,193.5,0.75,26,145.5
1586,G3,193.5,0.75,26,145.5
1587,B-3,193.5,0.75,26,145.5
1588,E-4,193.5,0.75,26,145.5
1589,E-2,193.5,0.75,40,145.5
1590,E-3,193.5,0.75,40,145.5
1591,E-3,194.25,119/500,32,145.5
1592,E-3,194.25,119/500,43,145.5
1593,E-3,194.5,0.25,33,145.5
1594,E-3,194.5,0.25,48,145.5
1595,E-4,195.0,0.75,38,145.5
1596,C5,195.0,0.75,38,145.5
1597,E-5,195.0,0.75,38,145.5
1598,E-2,195.0,0.75,40,145.5
1599,E-3,195.0,0.75,40,145.5
1600,E-3,195.75,119/500,41,145.5
1601,E-4,195.75,119/500,36,145.5
1602,C5,195.75,119/500,36,145.5
1603,E-5,195.75,119/500,36,145.5
1604,E-3,196.0,0.25,47,145.5
1605,E-4,196.0,0.25,38,145.5
1606,C5,196.0,0.25,38,145.5
1607,E-5,196.0,0.25,38,145.5
1608,E-2,196.5,0.5,32,145.5
1609,E-4,196.5,0.75,38,145.5
1610,C5,196.5,0.75,38,145.5
1611,E-5,196.5,0.75,38,145.5
1612,E-4,197.25,119/500,36,145.5
1613,C5,197.25,119/500,36,145.5
1614,E-5,197.25,119/500,36,145.5
1615,E-4,197.5,0.25,38,145.5
1616,C5,197.5,0.25,38,145.5
1617,E-5,197.5,0.25,38,145.5
1618,E-2,198.0,0.5,30,145.5
1619,E-4,198.0,0.25,43,145.5
1620,B4,198.0,0.25,43,145.5
1621,E-5,198.0,0.25,43,145.5
1622,C5,198.25,0.25,43,145.5
1623,G#4,198.5,0.25,43,145.5
1624,E-4,198.75,0.25,43,145.5
1625,C4,199.0,0.25,48,145.5
1626,E-4,199.5,0.25,50,145.5
1627,E-2,199.5,0.5,27,145.5
1628,G#4,199.75,0.25,44,145.5
1629,C5,200.0,0.25,44,145.5
1630,E-5,200.25,0.25,44,145.5
1631,G#5,200.5,0.25,47,145.5
1632,E-2,201.0,0.5,25,145.5
1633,A5,201.0,0.125,42,145.5
1634,A4,201.0,0.125,42,145.5
1635,B-4,201.5,1.0,47,145.5
1636,B-5,201.5,1.0,47,145.5
1637,D4,202.5,0.25,51,145.5
1638,G#2,202.5,0.75,30,145.5
1639,E-3,202.5,0.75,30,145.5
1640,G#3,202.5,0.75,30,145.5
1641,E-4,202.75,0.25,42,145.5
1642,B-3,203.0,0.25,45,145.5
1643,G3,203.25,0.25,42,145.5
1644,G#2,203.25,119/500,28,145.5
1645,E-3,203.25,119/500,28,145.5
1646,G#3,203.25,119/500,28,145.5
1647,E-3,203.5,0.25,45,145.5
1648,G#2,203.5,0.25,31,145.5
1649,E-3,203.5,0.25,31,145.5
1650,G#3,203.5,0.25,31,145.5
1651,E-4,204.0,0.75,48,145.5
1652,C#5,204.0,0.75,48,145.5
1653,E-5,204.0,0.75,48,145.5
1654,G#2,204.0,0.75,30,145.5
1655,E-3,204.0,0.75,30,145.5
1656,G#3,204.0,0.75,30,145.5
1657,E-4,204.75,119/500,46,145.5
1658,C#5,204.75,119/500,46,145.5
1659,E-5,204.75,119/500,46,145.5
1660,G#2,204.75,119/500,28,145.5
1661,E-3,204.75,119/500,28,145.5
1662,G#3,204.75,119/500,28,145.5
1663,E-4,205.0,0.25,48,145.5
1664,C#5,205.0,0.25,48,145.5
1665,E-5,205.0,0.25,48,145.5
1666,G#2,205.0,0.25,31,145.5
1667,E-3,205.0,0.25,31,145.5
1668,G#3,205.0,0.25,31,145.5
1669,E-4,205.5,0.75,48,145.5
1670,C#5,205.5,0.75,48,145.5
1671,E-5,205.5,0.75,48,145.5
1672,G#2,205.5,0.5,35,145.5
1673,E-3,205.5,0.5,35,145.5
1674,G#3,205.5,0.5,35,145.5
1675,E-4,206.25,119/500,46,145.5
1676,C#5,206.25,119/500,46,145.5
1677,E-5,206.25,119/500,46,145.5
1678,E-4,206.5,0.25,48,145.5
1679,C#5,206.5,0.25,48,145.5
1680,E-5,206.5,0.25,48,145.5
1681,E-4,207.0,0.25,43,145.5
1682,C5,207.0,0.25,43,145.5
1683,E-5,207.0,0.25,43,145.5
1684,C#5,207.25,0.25,43,145.5
1685,B-4,207.5,0.25,43,145.5
1686,G4,207.75,0.25,43,145.5
1687,E-4,208.0,0.25,48,145.5
1688,G4,208.5,0.25,50,145.5
1689,E-4,208.5,0.125,39,145.5
1690,C#4,208.5,0.125,39,145.5
1691,G3,208.5,0.125,39,145.5
1692,B-4,208.75,0.25,44,145.5
1693,C#5,209.0,0.25,44,145.5
1694,E-4,209.0,1.0,39,145.5
1695,C#4,209.0,1.0,39,145.5
1696,G3,209.0,1.0,39,145.5
1697,E-5,209.25,0.25,44,145.5
1698,G5,209.5,0.25,47,145.5
1699,D3,210.0,0.25,43,145.5
1700,B5,210.0,0.125,42,145.5
1701,B4,210.0,0.125,42,145.5
1702,E-3,210.25,0.25,40,145.5
1703,B-2,210.5,0.25,42,145.5
1704,C5,210.5,1.0,47,145.5
1705,C6,210.5,1.0,47,145.5
1706,G2,210.75,0.25,40,145.5
1707,E-2,211.0,0.25,42,145.5
1708,G4,211.5,0.25,51,145.5
1709,B-2,211.5,0.75,38,145.5
1710,E-3,211.5,0.75,38,145.5
1711,B-3,211.5,0.75,38,145.5
1712,G#4,211.75,0.25,42,145.5
1713,E-4,212.0,0.25,45,145.5
1714,C4,212.25,0.25,42,145.5
1715,B-2,212.25,119/500,35,145.5
1716,E-3,212.25,119/500,35,145.5
1717,B-3,212.25,119/500,35,145.5
1718,G#3,212.5,0.25,45,145.5
1719,B-2,212.5,0.25,39,145.5
1720,E-3,212.5,0.25,39,145.5
1721,B-3,212.5,0.25,39,145.5
1722,F#4,213.0,0.75,78,145.5
1723,G#4,213.0,0.75,78,145.5
1724,E-5,213.0,0.75,78,145.5
1725,F#5,213.0,0.75,78,145.5
1726,B-2,213.0,0.75,38,145.5
1727,E-3,213.0,0.75,38,145.5
1728,B-3,213.0,0.75,38,145.5
1729,F#4,213.75,119/500,75,145.5
1730,G#4,213.75,119/500,75,145.5
1731,E-5,213.75,119/500,75,145.5
1732,F#5,213.75,119/500,75,145.5
1733,B-2,213.75,119/500,35,145.5
1734,E-3,213.75,119/500,35,145.5
1735,B-3,213.75,119/500,35,145.5
1736,F#4,214.0,0.25,78,145.5
1737,G#4,214.0,0.25,78,145.5
1738,E-5,214.0,0.25,78,145.5
1739,F#5,214.0,0.25,78,145.5
1740,B-2,214.0,0.25,39,145.5
1741,E-3,214.0,0.25,39,145.5
1742,B-3,214.0,0.25,39,145.5
1743,E5,214.5,0.25,85,145.5
1744,B-2,214.5,0.5,39,145.5
1745,E-3,214.5,0.5,39,145.5
1746,B-3,214.5,0.5,39,145.5
1747,F5,214.75,0.25,70,145.5
1748,C#5,215.0,0.25,75,145.5
1749,G#4,215.25,0.25,70,145.5
1750,F4,215.5,0.25,76,145.5
1751,E-4,216.0,0.75,78,145.5
1752,F4,216.0,0.75,78,145.5
1753,C5,216.0,0.75,78,145.5
1754,E-5,216.0,0.75,78,145.5
1755,E-4,216.75,119/500,75,145.5
1756,F4,216.75,119/500,75,145.5
1757,C5,216.75,119/500,75,145.5
1758,E-5,216.75,119/500,75,145.5
1759,E-4,217.0,0.25,78,145.5
1760,F4,217.0,0.25,78,145.5
1761,C5,217.0,0.25,78,145.5
1762,E-5,217.0,0.25,78,145.5
1763,C5,217.5,0.25,85,145.5
1764,G4,217.5,0.125,39,145.5
1765,E-4,217.5,0.125,39,145.5
1766,G#3,217.5,0.125,39,145.5
1767,C#5,217.75,0.25,70,145.5
1768,B-4,218.0,0.25,75,145.5
1769,G#4,218.0,1.0,39,145.5
1770,E-4,218.0,1.0,39,145.5
1771,G#3,218.0,1.0,39,145.5
1772,F4,218.25,0.25,70,145.5
1773,C#4,218.5,0.25,76,145.5
1774,C6,219.0,0.25,59,145.5
1775,G3,219.0,0.25,43,145.5
1776,C#6,219.25,0.25,49,145.5
1777,G#3,219.25,0.25,40,145.5
1778,B-5,219.5,0.25,52,145.5
1779,E-3,219.5,0.25,42,145.5
1780,G5,219.75,0.25,49,145.5
1781,C3,219.75,0.25,40,145.5
1782,C#5,220.0,0.25,53,145.5
1783,G#2,220.0,0.25,42,145.5
1784,B5,220.5,0.25,64,145.5
1785,G#2,220.5,0.25,73,145.5
1786,C6,220.75,0.25,53,145.5
1787,A2,220.75,0.25,68,145.5
1788,G#5,221.0,0.25,57,145.5
1789,B-2,221.0,0.25,72,145.5
1790,E-5,221.25,0.25,53,145.5
1791,B2,221.25,0.25,76,145.5
1792,C5,221.5,0.25,58,145.5
1793,C3,221.5,0.25,80,145.5
1794,E-5,222.0,0.25,76,145.5
1795,C#3,222.0,0.25,73,145.5
1796,E5,222.25,0.25,63,145.5
1797,C#4,222.25,0.25,67,145.5
1798,C#5,222.5,0.25,68,145.5
1799,G#3,222.5,0.25,70,145.5
1800,B-4,222.75,0.25,63,145.5
1801,F3,222.75,0.25,67,145.5
1802,E4,223.0,0.25,69,145.5
1803,C#3,223.0,0.25,70,145.5
1804,D5,223.5,0.25,84,145.5
1805,F2,223.5,0.25,73,145.5
1806,E-5,223.75,0.25,69,145.5
1807,F#2,223.75,0.25,70,145.5
1808,B4,224.0,0.25,74,145.5
1809,G2,224.0,0.25,74,145.5
1810,G#4,224.25,0.25,69,145.5
1811,G#2,224.25,0.25,77,145.5
1812,E-4,224.5,0.25,75,145.5
1813,A2,224.5,0.25,81,145.5
1814,B-2,225.0,0.25,73,145.5
1815,E-5,225.0,0.75,85,145.5
1816,G#4,225.0,0.75,85,145.5
1817,G#5,225.0,0.75,85,145.5
1818,B-3,225.25,0.25,67,145.5
1819,F3,225.5,0.25,70,145.5
1820,C#3,225.75,0.25,67,145.5
1821,G#4,225.75,119/500,81,145.5
1822,E-5,225.75,119/500,81,145.5
1823,G#5,225.75,119/500,81,145.5
1824,B-2,226.0,0.25,70,145.5
1825,E-5,226.0,0.5,81,145.5
1826,G#4,226.0,0.5,81,145.5
1827,G#5,226.0,0.5,81,145.5
1828,E-5,226.5,19/40,86,145.5
1829,G#4,226.5,19/40,86,145.5
1830,G#5,226.5,19/40,86,145.5
1831,G2,226.5,1.0,41,145.5
1832,G3,226.5,1.0,41,145.5
1833,G#4,227.0,19/40,80,145.5
1834,E-5,227.0,19/40,80,145.5
1835,G#5,227.0,19/40,80,145.5
1836,E-5,227.5,19/40,80,145.5
1837,G#4,227.5,19/40,80,145.5
1838,G#5,227.5,19/40,80,145.5
1839,E4,227.5,0.25,32,145.5
1840,C#4,227.5,0.25,32,145.5
1841,B-3,227.5,0.25,32,145.5
1842,G3,227.5,0.25,32,145.5
1843,G#4,228.0,0.25,71,145.5
1844,D5,228.0,0.25,71,145.5
1845,G#2,228.0,1.0,44,145.5
1846,G#3,228.0,1.0,44,145.5
1847,G#5,228.25,0.25,79,145.5
1848,G#4,228.5,0.25,74,145.5
1849,D5,228.5,0.25,74,145.5
1850,G#5,228.75,0.25,83,145.5
1851,G#4,229.0,0.25,78,145.5
1852,D5,229.0,0.25,78,145.5
1853,E-4,229.0,0.25,36,145.5
1854,C4,229.0,0.25,36,145.5
1855,G#3,229.0,0.25,36,145.5
1856,G#5,229.25,0.25,86,145.5
1857,G#4,229.5,0.25,81,145.5
1858,D5,229.5,0.25,81,145.5
1859,B-1,229.5,1.0,54,145.5
1860,B-2,229.5,1.0,54,145.5
1861,G#5,229.75,0.25,90,145.5
1862,G#4,230.0,0.25,85,145.5
1863,D5,230.0,0.25,85,145.5
1864,G#5,230.25,0.25,94,145.5
1865,G#4,230.5,0.25,88,145.5
1866,D5,230.5,0.25,88,145.5
1867,G3,230.5,0.25,43,145.5
1868,C#3,230.5,0.25,43,145.5
1869,B-2,230.5,0.25,43,145.5
1870,G#5,230.75,0.25,97,145.5
1871,G#4,231.0,0.5,95,145.5
1872,D5,231.0,0.5,95,145.5
1873,G#5,231.0,0.5,95,145.5
1874,B1,231.0,1.0,59,145.5
1875,B2,231.0,1.0,59,145.5
1876,B-4,231.5,0.25,84,145.5
1877,D5,231.5,0.25,84,145.5
1878,G#5,231.5,0.25,84,145.5
1879,B-5,231.5,0.25,84,145.5
1880,B-4,232.0,0.25,84,145.5
1881,D5,232.0,0.25,84,145.5
1882,G#5,232.0,0.25,84,145.5
1883,B-5,232.0,0.25,84,145.5
1884,G#3,232.0,0.25,47,145.5
1885,E-3,232.0,0.25,47,145.5
1886,B2,232.0,0.25,47,145.5
1887,B-4,232.5,0.25,92,145.5
1888,D5,232.5,0.25,92,145.5
1889,G#5,232.5,0.25,92,145.5
1890,B-5,232.5,0.25,92,145.5
1891,E2,232.5,0.75,65,145.5
1892,E3,232.5,0.75,65,145.5
1893,B-4,233.0,0.25,84,145.5
1894,D5,233.0,0.25,84,145.5
1895,G#5,233.0,0.25,84,145.5
1896,B-5,233.0,0.25,84,145.5
1897,E1,233.25,119/500,59,145.5
1898,E2,233.25,119/500,59,145.5
1899,B-4,233.5,0.25,84,145.5
1900,D5,233.5,0.25,84,145.5
1901,G#5,233.5,0.25,84,145.5
1902,B-5,233.5,0.25,84,145.5
1903,E1,233.5,0.5,59,145.5
1904,E2,233.5,0.5,59,145.5
1905,C5,234.0,0.25,84,145.5
1906,E-5,234.0,0.25,84,145.5
1907,G#5,234.0,0.25,84,145.5
1908,C6,234.0,0.25,84,145.5
1909,E1,234.0,19/40,66,145.5
1910,E2,234.0,19/40,66,145.5
1911,E-6,234.5,0.25,84,145.5
1912,C6,234.5,0.25,84,145.5
1913,G#5,234.5,0.25,84,145.5
1914,E-5,234.5,0.25,84,145.5
1915,E1,234.5,19/40,60,145.5
1916,E2,234.5,19/40,60,145.5
1917,E1,235.0,19/40,60,145.5
1918,E2,235.0,19/40,60,145.5
1919,F2,235.5,0.25,57,145.5
1920,E-5,235.5,0.25,85,145.5
1921,G5,235.5,0.25,85,145.5
1922,B-5,235.5,0.25,85,145.5
1923,F#2,235.75,0.25,59,145.5
1924,G2,236.0,0.25,61,145.5
1925,E-6,236.0,0.25,85,145.5
1926,G5,236.0,0.25,85,145.5
1927,E-5,236.0,0.25,85,145.5
1928,G#2,236.25,0.25,62,145.5
1929,A2,236.5,0.25,64,145.5
1930,B-2,236.75,0.25,66,145.5
1931,B2,237.0,0.25,68,145.5
1932,E-4,237.0,0.188,42,145.5
1933,G#4,237.0,0.188,42,145.5
1934,C5,237.0,0.188,42,145.5
1935,C3,237.25,0.25,70,145.5
1936,C#3,237.5,0.25,71,145.5
1937,E-5,237.5,0.188,42,145.5
1938,C5,237.5,0.188,42,145.5
1939,E-4,237.5,0.188,42,145.5
1940,D3,237.75,0.25,73,145.5
1941,E-3,238.0,0.25,75,145.5
1942,E3,238.25,0.25,77,145.5
1943,E-4,238.5,0.188,42,145.5
1944,G4,238.5,0.188,42,145.5
1945,B-4,238.5,0.188,42,145.5
1946,E2,238.5,0.5,78,145.5
1947,E3,238.5,0.5,78,145.5
1948,E-5,239.0,0.188,42,145.5
1949,G4,239.0,0.188,42,145.5
1950,E-4,239.0,0.188,42,145.5
1951,E3,239.0,0.25,71,145.5
1952,E4,239.0,0.25,71,145.5
1953,E4,239.5,0.25,71,145.5
1954,E3,239.5,0.25,71,145.5
1955,E-4,240.0,0.75,45,145.5
1956,E-5,240.0,0.75,45,145.5
1957,E3,240.0,0.25,78,145.5
1958,E4,240.0,0.25,78,145.5
1959,E3,240.5,0.25,71,145.5
1960,E4,240.5,0.25,71,145.5
1961,E-5,240.75,119/500,40,145.5
1962,E-4,240.75,119/500,40,145.5
1963,E-4,241.0,0.5,42,145.5
1964,E-5,241.0,0.5,42,145.5
1965,E3,241.0,0.25,71,145.5
1966,E4,241.0,0.25,71,145.5
1967,G#4,241.5,0.75,45,145.5
1968,G#5,241.5,0.75,45,145.5
1969,E-3,241.5,0.25,80,145.5
1970,E-4,241.5,0.25,80,145.5
1971,E-3,242.0,0.25,71,145.5
1972,E-2,242.0,0.25,71,145.5
1973,G#5,242.25,119/500,40,145.5
1974,G#4,242.25,119/500,40,145.5
1975,G#4,242.5,0.5,44,145.5
1976,G#5,242.5,0.5,44,145.5
1977,G4,243.0,0.75,45,145.5
1978,G5,243.0,0.75,45,145.5
1979,E-3,243.0,0.25,80,145.5
1980,E-4,243.0,0.25,80,145.5
1981,E-3,243.5,0.25,71,145.5
1982,E-2,243.5,0.25,71,145.5
1983,G5,243.75,119/500,40,145.5
1984,G4,243.75,119/500,40,145.5
1985,G4,244.0,0.5,44,145.5
1986,G5,244.0,0.5,44,145.5
1987,E-3,244.5,0.188,43,145.5
1988,C#5,244.5,1.5,45,145.5
1989,C#6,244.5,1.5,45,145.5
1990,E-2,245.0,0.188,38,145.5
1991,E-3,246.0,0.188,43,145.5
1992,C5,246.0,0.75,45,145.5
1993,C6,246.0,0.75,45,145.5
1994,E-2,246.5,0.188,38,145.5
1995,C6,246.75,0.25,40,145.5
1996,C5,246.75,0.25,40,145.5
1997,G#4,247.0,0.5,44,145.5
1998,G#5,247.0,0.5,44,145.5
1999,G#2,247.5,0.375,35,145.5
2000,F4,247.5,0.75,45,145.5
2001,F5,247.5,0.75,45,145.5
2002,C4,248.0,1.0,27,145.5
2003,G#3,248.0,1.0,27,145.5
2004,E-3,248.0,1.0,27,145.5
2005,F5,248.25,0.25,40,145.5
2006,F4,248.25,0.25,40,145.5
2007,B-4,248.5,0.5,44,145.5
2008,B-5,248.5,0.5,44,145.5
2009,C3,249.0,0.375,35,145.5
2010,G4,249.0,0.75,45,145.5
2011,G5,249.0,0.75,45,145.5
2012,E-4,249.5,1.0,25,145.5
2013,C4,249.5,1.0,25,145.5
2014,G#3,249.5,1.0,25,145.5
2015,G5,249.75,0.25,40,145.5
2016,G4,249.75,0.25,40,145.5
2017,B-4,250.0,0.5,44,145.5
2018,B-5,250.0,0.5,44,145.5
2019,B-2,250.5,0.375,35,145.5
2020,E-4,250.5,0.75,45,145.5
2021,E-5,250.5,0.75,45,145.5
2022,E-4,251.0,1.0,25,145.5
2023,C#4,251.0,1.0,25,145.5
2024,G3,251.0,1.0,25,145.5
2025,C6,251.25,0.25,47,145.5
2026,C#6,251.5,0.25,47,145.5
2027,D6,251.75,0.25,47,145.5
2028,E-2,252.0,0.375,37,145.5
2029,E-5,252.0,0.75,50,145.5
2030,E-6,252.0,0.75,50,145.5
2031,E-4,252.5,1.0,25,145.5
2032,B-3,252.5,1.0,25,145.5
2033,G3,252.5,1.0,25,145.5
2034,E-6,252.75,119/500,44,145.5
2035,E-5,252.75,119/500,44,145.5
2036,E-5,253.0,0.5,47,145.5
2037,E-6,253.0,0.5,47,145.5
2038,G#2,253.5,0.375,36,145.5
2039,G#5,253.5,0.75,50,145.5
2040,G#6,253.5,0.75,50,145.5
2041,E-4,254.0,1.0,25,145.5
2042,C4,254.0,1.0,25,145.5
2043,G#3,254.0,1.0,25,145.5
2044,G#6,254.25,119/500,44,145.5
2045,G#5,254.25,119/500,44,145.5
2046,G#5,254.5,0.5,48,145.5
2047,G#6,254.5,0.5,48,145.5
2048,C#2,255.0,0.375,36,145.5
2049,G5,255.0,0.75,50,145.5
2050,G6,255.0,0.75,50,145.5
2051,C#4,255.5,1.0,25,145.5
2052,B-3,255.5,1.0,25,145.5
2053,F3,255.5,1.0,25,145.5
2054,G6,255.75,119/500,44,145.5
2055,G5,255.75,119/500,44,145.5
2056,G5,256.0,0.5,48,145.5
2057,G6,256.0,0.5,48,145.5
2058,E-2,256.5,0.375,36,145.5
2059,C#6,256.5,1.5,50,145.5
2060,C#7,256.5,1.5,50,145.5
2061,B-3,257.0,1.0,25,145.5
2062,G3,257.0,1.0,25,145.5
2063,E-3,257.0,1.0,25,145.5
2064,G2,258.0,0.375,35,145.5
2065,C6,258.0,0.75,50,145.5
2066,C7,258.0,0.75,50,145.5
2067,C#4,258.5,1.0,25,145.5
2068,B-3,258.5,1.0,25,145.5
2069,E-3,258.5,1.0,25,145.5
2070,C7,258.75,0.25,44,145.5
2071,C6,258.75,0.25,44,145.5
2072,G#5,259.0,0.5,48,145.5
2073,G#6,259.0,0.5,48,145.5
2074,G#2,259.5,0.125,36,145.5
2075,F5,259.5,0.75,50,145.5
2076,F6,259.5,0.75,50,145.5
2077,E-3,259.75,0.25,28,145.5
2078,G#3,260.0,0.25,28,145.5
2079,C4,260.25,0.25,28,145.5
2080,F6,260.25,0.25,44,145.5
2081,F5,260.25,0.25,44,145.5
2082,G#3,260.5,0.25,28,145.5
2083,B-5,260.5,0.5,48,145.5
2084,B-6,260.5,0.5,48,145.5
2085,E-3,260.75,0.25,28,145.5
2086,C3,261.0,0.125,36,145.5
2087,G5,261.0,0.75,50,145.5
2088,G6,261.0,0.75,50,145.5
2089,G#3,261.25,0.25,28,145.5
2090,C4,261.5,0.25,28,145.5
2091,E-4,261.75,0.25,28,145.5
2092,G6,261.75,0.25,44,145.5
2093,G5,261.75,0.25,44,145.5
2094,C4,262.0,0.25,28,145.5
2095,B-5,262.0,0.5,48,145.5
2096,B-6,262.0,0.5,48,145.5
2097,G#3,262.25,0.25,28,145.5
2098,B-2,262.5,0.125,40,145.5
2099,G#5,262.5,1.5,50,145.5
2100,G#6,262.5,1.5,50,145.5
2101,G3,262.75,0.25,28,145.5
2102,C#4,263.0,0.25,28,145.5
2103,E-4,263.25,0.25,28,145.5
2104,C#4,263.5,0.25,28,145.5
2105,G3,263.75,0.25,28,145.5
2106,E-2,264.0,0.125,37,145.5
2107,G4,264.0,0.5,78,145.5
2108,B-4,264.0,0.5,78,145.5
2109,C#5,264.0,0.5,78,145.5
2110,E-5,264.0,0.5,78,145.5
2111,G5,264.0,0.5,78,145.5
2112,G3,264.25,0.25,28,145.5
2113,B-3,264.5,0.25,28,145.5
2114,E-4,264.75,0.25,28,145.5
2115,B-3,265.0,0.25,28,145.5
2116,G3,265.25,0.25,28,145.5
2117,G#2,265.5,0.125,36,145.5
2118,G#4,265.5,0.5,80,145.5
2119,C5,265.5,0.5,80,145.5
2120,E-5,265.5,0.5,80,145.5
2121,G#5,265.5,0.5,80,145.5
2122,G#3,265.75,0.25,28,145.5
2123,C4,266.0,0.25,28,145.5
2124,E-4,266.25,0.25,28,145.5
2125,C4,266.5,0.25,28,145.5
2126,G#3,266.75,0.25,28,145.5
2127,G#4,267.0,1.5,45,145.5
2128,C#2,267.0,0.125,39,145.5
2129,F3,267.25,0.25,28,145.5
2130,B-3,267.5,0.25,28,145.5
2131,C#4,267.75,0.25,28,145.5
2132,B-3,268.0,0.25,28,145.5
2133,F3,268.25,0.25,28,145.5
2134,G#4,268.5,1.5,45,145.5
2135,E-2,268.5,0.125,41,145.5
2136,E-3,268.75,0.25,28,145.5
2137,G3,269.0,0.25,28,145.5
2138,C#4,269.25,0.25,28,145.5
2139,G3,269.5,0.25,28,145.5
2140,E-3,269.75,0.25,28,145.5
2141,G4,270.0,0.5,46,145.5
2142,G#2,270.0,0.125,39,145.5
2143,E-3,270.25,0.25,28,145.5
2144,B-4,270.5,0.5,42,145.5
2145,G#3,270.5,0.25,28,145.5
2146,C4,270.75,0.25,28,145.5
2147,G#4,271.0,0.5,45,145.5
2148,G#3,271.0,0.25,28,145.5
2149,E-3,271.25,0.25,28,145.5
2150,G#4,271.5,0.5,45,145.5
2151,E-2,271.5,0.5,69,145.5
2152,E-3,271.5,0.5,69,145.5
2153,G#4,272.0,229/500,42,145.5
2154,G#4,272.5,229/500,43,145.5
2155,G4,273.0,0.5,46,145.5
2156,G#1,273.0,0.5,74,145.5
2157,G#2,273.0,0.5,74,145.5
2158,B-4,273.5,0.5,42,145.5
2159,G#4,274.0,0.5,45,145.5
2160,G#4,274.5,0.5,45,145.5
2161,G#4,275.0,229/500,43,145.5
2162,G#4,275.5,229/500,43,145.5
2163,G4,276.0,0.5,47,145.5
2164,B-4,276.5,0.5,44,145.5
2165,G#4,277.0,0.5,44,145.5
2166,G4,277.5,0.5,49,145.5
2167,B-4,278.0,0.5,44,145.5
2168,G#4,278.5,0.5,44,145.5
2169,G4,279.0,0.5,48,145.5
2170,B-4,279.5,0.5,45,145.5
2171,G#4,280.0,0.5,45,145.5
2172,C#5,280.5,1.5,48,145.5
2173,E-4,280.5,1.5,36,145.5
2174,C4,280.5,1.5,30,145.5
2175,G4,282.0,0.5,48,145.5
2176,E4,282.0,1.5,36,145.5
2177,C4,282.0,1.5,30,145.5
2178,B-4,282.5,0.5,45,145.5
2179,G#4,283.0,0.5,45,145.5
2180,C#5,283.5,1.5,48,145.5
2181,F4,283.5,1.5,33,145.5
2182,C#4,283.5,1.5,33,145.5
2183,D5,285.0,0.5,48,145.5
2184,E-4,285.0,1.5,33,145.5
2185,G#3,285.0,1.5,33,145.5
2186,F5,285.5,0.5,45,145.5
2187,E-5,286.0,0.5,45,145.5
2188,G#4,286.5,1.5,48,145.5
2189,C#3,286.5,1.5,32,145.5
2190,F3,286.5,1.5,32,145.5
2191,C#4,286.5,1.5,32,145.5
2192,D5,288.0,0.5,48,145.5
2193,F5,288.5,0.5,45,145.5
2194,C#3,288.5,0.5,32,145.5
2195,F3,288.5,0.5,32,145.5
2196,C#4,288.5,0.5,32,145.5
2197,E-5,289.0,0.5,45,145.5
2198,C#4,289.0,0.5,40,145.5
2199,F4,289.0,0.5,40,145.5
2200,G#4,289.5,1.5,48,145.5
2201,G#3,289.5,0.25,30,145.5
2202,C#3,290.0,1.5,32,145.5
2203,F3,290.0,1.5,32,145.5
2204,C#4,290.0,1.5,32,145.5
2205,G#4,291.0,0.5,51,145.5
2206,F#5,291.5,0.5,55,145.5
2207,F5,292.0,0.5,53,145.5
2208,C#3,292.0,0.5,32,145.5
2209,F3,292.0,0.5,32,145.5
2210,C#4,292.0,0.5,32,145.5
2211,E-5,292.5,0.5,59,145.5
2212,C#4,292.5,0.5,40,145.5
2213,F4,292.5,0.5,40,145.5
2214,C#5,293.0,0.5,56,145.5
2215,G#3,293.0,0.25,29,145.5
2216,F4,293.5,0.5,43,145.5
2217,C5,293.5,0.5,51,145.5
2218,C3,293.5,1.5,32,145.5
2219,F#3,293.5,1.5,32,145.5
2220,G#3,293.5,1.5,32,145.5
2221,C#4,294.0,1.5,40,145.5
2222,C5,294.0,0.5,51,145.5
2223,B-4,294.5,0.5,45,145.5
2224,E-5,295.0,0.5,45,145.5
2225,C4,295.5,0.75,44,145.5
2226,G#4,295.5,0.75,44,145.5
2227,C3,295.5,0.5,32,145.5
2228,F#3,295.5,0.5,32,145.5
2229,G#3,295.5,0.5,32,145.5
2230,E-4,296.0,0.5,40,145.5
2231,F#4,296.0,0.5,40,145.5
2232,G#4,296.25,0.25,43,145.5
2233,B-4,296.5,0.25,43,145.5
2234,G#3,296.5,0.25,31,145.5
2235,G#4,296.75,0.25,43,145.5
2236,G4,297.0,0.5,48,145.5
2237,C3,297.0,1.5,32,145.5
2238,F#3,297.0,1.5,32,145.5
2239,G#3,297.0,1.5,32,145.5
2240,B-4,297.5,0.5,45,145.5
2241,G#4,298.0,0.5,45,145.5
2242,C#5,298.5,1.5,48,145.5
2243,C3,299.0,0.5,32,145.5
2244,F#3,299.0,0.5,32,145.5
2245,G#3,299.0,0.5,32,145.5
2246,E-4,299.5,0.5,40,145.5
2247,F#4,299.5,0.5,40,145.5
2248,G4,300.0,0.5,48,145.5
2249,G#3,300.0,0.25,31,145.5
2250,B-4,300.5,0.5,45,145.5
2251,C#3,300.5,1.5,30,145.5
2252,G#3,300.5,1.0,36,145.5
2253,G#4,301.0,0.5,45,145.5
2254,C#5,301.5,1.5,48,145.5
2255,A3,301.5,0.5,45,145.5
2256,B-3,302.0,1.0,48,145.5
2257,C#3,302.0,1.0,30,145.5
2258,D5,303.0,0.5,48,145.5
2259,D3,303.0,0.5,38,145.5
2260,G#3,303.0,0.5,38,145.5
2261,F5,303.5,0.5,45,145.5
2262,E-3,303.5,1.5,30,145.5
2263,G3,303.5,1.5,36,145.5
2264,E-5,304.0,0.5,45,145.5
2265,G#4,304.5,1.5,48,145.5
2266,E-3,305.0,0.75,30,145.5
2267,G#2,305.0,0.75,32,145.5
2268,G#3,305.0,0.75,32,145.5
2269,D5,306.0,0.5,48,145.5
2270,F5,306.5,0.5,45,145.5
2271,C#3,306.5,1.5,32,145.5
2272,F3,306.5,1.5,32,145.5
2273,C#4,306.5,1.5,32,145.5
2274,E-5,307.0,0.5,45,145.5
2275,G#4,307.5,1.5,48,145.5
2276,C#3,308.5,0.5,32,145.5
2277,F3,308.5,0.5,32,145.5
2278,C#4,308.5,0.5,32,145.5
2279,G#4,309.0,0.5,51,145.5
2280,C#4,309.0,0.5,40,145.5
2281,F4,309.0,0.5,40,145.5
2282,F#5,309.5,0.5,55,145.5
2283,F3,309.5,0.25,28,145.5
2284,C#4,309.5,0.25,28,145.5
2285,F5,310.0,0.5,53,145.5
2286,C#3,310.0,1.5,32,145.5
2287,F3,310.0,1.5,32,145.5
2288,C#4,310.0,1.5,32,145.5
2289,E-5,310.5,0.5,59,145.5
2290,C#5,311.0,0.5,56,145.5
2291,F#4,311.5,0.5,47,145.5
2292,C5,311.5,0.5,47,145.5
2293,B-4,312.0,0.5,51,145.5
2294,F4,312.0,1.5,40,145.5
2295,C#3,312.0,0.5,32,145.5
2296,F3,312.0,0.5,32,145.5
2297,C#4,312.0,0.5,32,145.5
2298,E-5,312.5,0.5,55,145.5
2299,C#4,312.5,0.5,40,145.5
2300,F4,312.5,0.5,40,145.5
2301,C#5,313.0,0.5,53,145.5
2302,F3,313.0,0.25,27,145.5
2303,C#4,313.0,0.25,27,145.5
2304,C5,313.5,0.5,52,145.5
2305,F4,313.5,1.5,40,145.5
2306,C3,313.5,1.5,32,145.5
2307,F#3,313.5,1.5,32,145.5
2308,G#3,313.5,1.5,32,145.5
2309,B-4,314.0,0.5,49,145.5
2310,G#4,314.5,0.5,45,145.5
2311,E4,315.0,1.5,42,145.5
2312,G#4,315.0,0.5,45,145.5
2313,G4,315.5,0.5,45,145.5
2314,C3,315.5,0.5,32,145.5
2315,F#3,315.5,0.5,32,145.5
2316,G#3,315.5,0.5,32,145.5
2317,C5,316.0,0.5,45,145.5
2318,E-4,316.0,0.5,40,145.5
2319,F#4,316.0,0.5,40,145.5
2320,G#4,316.5,0.5,45,145.5
2321,C4,316.5,1.5,42,145.5
2322,E-4,316.5,0.25,28,145.5
2323,G#3,316.5,0.25,28,145.5
2324,G4,317.0,0.5,45,145.5
2325,C3,317.0,1.5,32,145.5
2326,F#3,317.0,1.5,32,145.5
2327,G#3,317.0,1.5,32,145.5
2328,C#5,317.5,0.5,45,145.5
2329,G#4,318.0,0.5,45,145.5
2330,E4,318.0,1.5,42,145.5
2331,G4,318.5,0.5,45,145.5
2332,C5,319.0,0.5,45,145.5
2333,C3,319.0,0.5,32,145.5
2334,F#3,319.0,0.5,32,145.5
2335,G#3,319.0,0.5,32,145.5
2336,F4,319.5,0.5,45,145.5
2337,E-4,319.5,0.5,40,145.5
2338,F#4,319.5,0.5,40,145.5
2339,E-4,320.0,0.25,28,145.5
2340,G#3,320.0,0.25,28,145.5
2341,C#3,320.5,1.5,30,145.5
2342,G#3,320.5,1.0,36,145.5
2343,A3,321.5,0.5,45,145.5
2344,B-3,322.0,1.0,48,145.5
2345,C#3,322.0,1.5,30,145.5
2346,A3,323.0,0.5,41,145.5
2347,B-3,323.5,1.0,48,145.5
2348,C#3,323.5,1.5,30,145.5
2349,F3,324.5,0.5,45,145.5
2350,F#4,324.75,0.25,50,145.5
2351,C4,324.75,0.75,42,145.5
2352,E-4,324.75,0.75,42,145.5
2353,G#4,325.0,0.25,55,145.5
2354,C#4,325.0,1.0,48,145.5
2355,C#3,325.0,1.5,30,145.5
2356,F#4,325.25,0.25,51,145.5
2357,F4,325.5,0.5,61,145.5
2358,C4,325.5,0.75,42,145.5
2359,E-4,325.5,0.75,42,145.5
2360,C5,326.0,0.25,55,145.5
2361,B3,326.0,0.5,44,145.5
2362,C3,326.5,1.5,30,145.5
2363,B-3,326.5,1.5,48,145.5
2364,G#3,328.0,1.5,48,145.5
2365,C3,328.0,1.5,30,145.5
2366,B-3,329.5,1.5,48,145.5
2367,C3,329.5,1.5,30,145.5
2368,C#4,330.75,0.75,42,145.5
2369,G4,330.75,0.25,50,145.5
2370,G#4,331.0,0.25,55,145.5
2371,F3,331.0,0.5,38,145.5
2372,G#3,331.0,0.5,38,145.5
2373,G4,331.25,0.25,51,145.5
2374,C4,331.5,0.75,42,145.5
2375,G#4,331.5,0.5,61,145.5
2376,F3,331.75,0.25,51,145.5
2377,E-5,332.0,0.25,55,145.5
2378,F#3,332.0,0.25,51,145.5
2379,F3,332.25,0.25,51,145.5
2380,E-3,332.5,0.5,57,145.5
2381,F#2,333.0,271/500,55,145.5
2382,F#3,333.0,271/500,55,145.5
2383,F2,333.5,0.5,50,145.5
2384,F3,333.5,0.5,50,145.5
2385,E-2,334.0,271/500,56,145.5
2386,E-3,334.0,271/500,56,145.5
2387,F2,334.0,21/500,50,145.5
2388,F3,334.0,21/500,50,145.5
2389,C#2,334.5,271/500,49,145.5
2390,C#3,334.5,271/500,49,145.5
2391,C2,335.0,0.5,53,145.5
2392,C3,335.0,0.5,53,145.5
2393,B-1,335.5,1.5,58,145.5
2394,B-2,335.5,1.5,58,145.5
2395,C2,335.5,21/500,53,145.5
2396,C3,335.5,21/500,53,145.5
2397,C4,336.75,0.75,31,145.5
2398,A4,336.75,0.25,38,145.5
2399,B-4,337.0,0.25,41,145.5
2400,A1,337.0,0.5,64,145.5
2401,A2,337.0,0.5,64,145.5
2402,A4,337.25,0.25,38,145.5
2403,C#4,337.5,1.5,38,145.5
2404,B-4,337.5,1.5,38,145.5
2405,F3,337.75,0.25,51,145.5
2406,F#3,338.0,0.25,51,145.5
2407,F3,338.25,0.25,51,145.5
2408,E-3,338.5,0.5,57,145.5
2409,F#2,339.0,271/500,55,145.5
2410,F#3,339.0,271/500,55,145.5
2411,E-2,339.5,0.5,50,145.5
2412,E-3,339.5,0.5,50,145.5
2413,C4,339.75,0.75,31,145.5
2414,A4,339.75,0.25,38,145.5
2415,B-4,340.0,0.25,41,145.5
2416,C#2,340.0,271/500,56,145.5
2417,C#3,340.0,271/500,56,145.5
2418,E-2,340.0,21/500,50,145.5
2419,E-3,340.0,21/500,50,145.5
2420,A4,340.25,0.25,38,145.5
2421,C#4,340.5,1.5,38,145.5
2422,B-4,340.5,1.5,38,145.5
2423,C2,340.5,271/500,49,145.5
2424,C3,340.5,271/500,49,145.5
2425,B-1,341.0,0.5,53,145.5
2426,B-2,341.0,0.5,53,145.5
2427,A1,341.5,1.5,58,145.5
2428,A2,341.5,1.5,58,145.5
2429,B-1,341.5,21/500,53,145.5
2430,B-2,341.5,21/500,53,145.5
2431,C4,342.75,0.75,31,145.5
2432,A4,342.75,0.25,38,145.5
2433,B-4,343.0,0.25,41,145.5
2434,G#1,343.0,0.5,64,145.5
2435,G#2,343.0,0.5,64,145.5
2436,A4,343.194,0.25,38,145.5
2437,C#4,343.5,1.0,31,145.5
2438,B-4,343.5,1.5,46,145.5
2439,F3,343.75,0.25,51,145.5
2440,F#3,344.0,0.25,51,145.5
2441,F3,344.25,0.25,51,145.5
2442,D4,344.5,0.5,48,145.5
2443,E-3,344.5,0.5,57,145.5
2444,E-4,345.0,1.0,45,145.5
2445,C#5,345.0,0.5,53,145.5
2446,F#2,345.0,271/500,48,145.5
2447,F#3,345.0,271/500,48,145.5
2448,B4,345.5,0.5,47,145.5
2449,E-2,345.5,0.5,43,145.5
2450,E-3,345.5,0.5,43,145.5
2451,C#4,346.0,0.5,40,145.5
2452,B-4,346.0,0.5,48,145.5
2453,C2,346.0,271/500,40,145.5
2454,C3,346.0,271/500,40,145.5
2455,E-2,346.0,21/500,43,145.5
2456,E-3,346.0,21/500,43,145.5
2457,C4,346.5,1.0,41,145.5
2458,B-4,346.5,0.5,48,145.5
2459,A1,346.5,271/500,38,145.5
2460,A2,346.5,271/500,38,145.5
2461,G#4,347.0,0.5,42,145.5
2462,G#1,347.0,0.5,35,145.5
2463,G#2,347.0,0.5,35,145.5
2464,C#4,347.5,0.5,39,145.5
2465,B-4,347.5,0.5,39,145.5
2466,F#1,347.5,1.5,32,145.5
2467,F#2,347.5,1.5,32,145.5
2468,G#1,347.5,21/500,35,145.5
2469,G#2,347.5,21/500,35,145.5
2470,B-3,348.0,1.0,45,145.5
2471,F#4,348.0,1.0,45,145.5
2472,C#4,349.0,0.5,44,145.5
2473,B-4,349.0,0.5,44,145.5
2474,F#1,349.0,1.5,32,145.5
2475,F#2,349.0,1.5,32,145.5
2476,E4,349.5,0.5,45,145.5
2477,C#5,349.5,1.5,53,145.5
2478,G4,350.0,0.5,49,145.5
2479,F#4,350.5,0.5,50,145.5
2480,F#1,350.5,1.5,32,145.5
2481,F#2,350.5,1.5,32,145.5
2482,E4,351.0,0.5,44,145.5
2483,C#5,351.0,0.5,53,145.5
2484,B4,351.5,0.5,40,145.5
2485,E-4,351.5,0.5,40,145.5
2486,B-4,352.0,0.5,44,145.5
2487,C#4,352.0,0.5,37,145.5
2488,F#1,352.0,1.5,32,145.5
2489,F#2,352.0,1.5,32,145.5
2490,C4,352.5,1.0,40,145.5
2491,B-4,352.5,0.5,44,145.5
2492,G#4,353.0,0.5,44,145.5
2493,B-4,353.5,0.5,40,145.5
2494,C#4,353.5,0.5,40,145.5
2495,F#1,353.5,1.5,32,145.5
2496,F#2,353.5,1.5,32,145.5
2497,B-3,354.0,1.5,41,145.5
2498,F#4,354.0,1.0,49,145.5
2499,B-4,355.0,0.5,49,145.5
2500,F#1,355.0,1.5,32,145.5
2501,F#2,355.0,1.5,32,145.5
2502,B3,355.5,1.5,41,145.5
2503,G#4,355.5,1.0,49,145.5
2504,B-4,356.5,0.5,47,145.5
2505,F#1,356.5,1.5,32,145.5
2506,F#2,356.5,1.5,32,145.5
2507,B-3,357.0,1.5,39,145.5
2508,F#4,357.0,1.0,46,145.5
2509,B-4,358.0,0.5,45,145.5
2510,F#1,358.0,1.5,32,145.5
2511,F#2,358.0,1.5,32,145.5
2512,B3,358.5,1.5,37,145.5
2513,G#4,358.5,1.0,44,145.5
2514,B-4,359.5,0.5,42,145.5
2515,F#1,359.5,1.5,32,145.5
2516,F#2,359.5,1.5,32,145.5
2517,B-3,360.0,1.5,37,145.5
2518,F#4,360.0,1.5,40,145.5
2519,F#1,361.0,1.5,32,145.5
2520,F#2,361.0,1.5,32,145.5
2521,F4,361.5,1.5,40,145.5
2522,B-3,361.5,1.5,37,145.5
2523,F#1,362.5,1.5,32,145.5
2524,F#2,362.5,1.5,32,145.5
2525,E4,363.0,1.5,38,145.5
2526,B-3,363.0,1.5,37,145.5
2527,F#1,364.0,1.5,32,145.5
2528,F#2,364.0,1.5,32,145.5
2529,E-4,364.5,1.0,37,145.5
2530,G#4,365.5,0.5,35,145.5
2531,F#2,365.5,1.5,35,145.5
2532,G4,366.0,0.5,47,145.5
2533,B-4,366.5,0.5,44,145.5
2534,G#4,367.0,0.5,44,145.5
2535,D3,367.0,1.5,40,145.5
2536,F#2,367.0,1.5,35,145.5
2537,C#5,367.5,1.5,47,145.5
2538,C#3,368.5,1.5,38,145.5
2539,F#2,368.5,1.5,35,145.5
2540,G4,369.0,0.5,47,145.5
2541,B-4,369.5,0.5,44,145.5
2542,G#4,370.0,0.5,44,145.5
2543,D3,370.0,1.5,36,145.5
2544,F#2,370.0,1.5,35,145.5
2545,C#5,370.5,1.5,47,145.5
2546,F#2,371.5,1.5,32,145.5
2547,C#3,371.5,1.5,36,145.5
2548,D5,372.0,0.5,47,145.5
2549,F5,372.5,0.5,44,145.5
2550,E-5,373.0,0.5,44,145.5
2551,F#2,373.0,1.5,32,145.5
2552,C#3,373.0,1.5,36,145.5
2553,G#4,373.5,1.5,47,145.5
2554,G2,374.5,1.5,34,145.5
2555,C#3,374.5,1.5,36,145.5
2556,D5,375.0,0.5,47,145.5
2557,F5,375.5,0.5,44,145.5
2558,E-5,376.0,0.5,44,145.5
2559,G#2,376.0,1.5,28,145.5
2560,C3,376.0,1.5,28,145.5
2561,F#3,376.0,1.5,28,145.5
2562,G#4,376.5,1.5,47,145.5
2563,C#3,377.5,1.5,31,145.5
2564,F3,377.5,1.5,31,145.5
2565,C#4,377.5,1.5,31,145.5
2566,G#4,378.0,0.5,49,145.5
2567,F#5,378.5,0.5,53,145.5
2568,F5,379.0,0.5,51,145.5
2569,C#5,379.5,0.5,49,145.5
2570,C#3,379.5,0.5,31,145.5
2571,F3,379.5,0.5,31,145.5
2572,C#4,379.5,0.5,31,145.5
2573,B-5,380.0,0.5,53,145.5
2574,C#4,380.0,0.5,38,145.5
2575,F4,380.0,0.5,38,145.5
2576,G#5,380.5,0.5,51,145.5
2577,G#3,380.5,0.25,28,145.5
2578,F#4,381.0,0.5,45,145.5
2579,E-5,381.0,0.5,45,145.5
2580,F3,381.0,1.5,31,145.5
2581,C#3,381.0,1.5,31,145.5
2582,C#4,381.0,1.5,31,145.5
2583,B-4,381.5,0.5,49,145.5
2584,F#5,381.5,0.5,49,145.5
2585,G#4,382.0,0.5,47,145.5
2586,F5,382.0,0.5,47,145.5
2587,C#5,382.5,0.75,49,145.5
2588,F3,383.0,0.5,31,145.5
2589,C#3,383.0,0.5,31,145.5
2590,C#4,383.0,0.5,31,145.5
2591,G#5,383.25,0.25,49,145.5
2592,B-5,383.5,0.25,49,145.5
2593,C#4,383.5,0.5,38,145.5
2594,F4,383.5,0.5,38,145.5
2595,G#5,383.75,0.25,49,145.5
2596,G#3,384.0,0.25,28,145.5
2597,G4,384.0,0.5,43,145.5
2598,G5,384.0,0.5,43,145.5
2599,B-4,384.5,0.5,40,145.5
2600,B-5,384.5,0.5,40,145.5
2601,C3,384.5,1.5,31,145.5
2602,F#3,384.5,1.5,31,145.5
2603,G#3,384.5,1.5,31,145.5
2604,G#4,385.0,0.5,40,145.5
2605,G#5,385.0,0.5,40,145.5
2606,C#5,385.5,1.5,43,145.5
2607,C#6,385.5,1.5,43,145.5
2608,C3,386.5,0.5,31,145.5
2609,F#3,386.5,0.5,31,145.5
2610,G#3,386.5,0.5,31,145.5
2611,G4,387.0,0.5,43,145.5
2612,G5,387.0,0.5,43,145.5
2613,F#4,387.0,0.5,38,145.5
2614,E-4,387.0,0.5,38,145.5
2615,G#3,387.5,0.25,30,145.5
2616,B-4,387.5,0.5,40,145.5
2617,B-5,387.5,0.5,40,145.5
2618,G#4,388.0,0.5,40,145.5
2619,G#5,388.0,0.5,40,145.5
2620,F#3,388.0,1.5,31,145.5
2621,G#3,388.0,1.5,31,145.5
2622,C3,388.0,1.5,31,145.5
2623,C#5,388.5,1.5,43,145.5
2624,C#6,388.5,1.5,43,145.5
2625,D5,390.0,0.5,43,145.5
2626,D6,390.0,0.5,43,145.5
2627,F#3,390.0,0.5,31,145.5
2628,G#3,390.0,0.5,31,145.5
2629,C3,390.0,0.5,31,145.5
2630,F5,390.5,0.5,40,145.5
2631,F6,390.5,0.5,40,145.5
2632,E-4,390.5,0.5,38,145.5
2633,F#4,390.5,0.5,38,145.5
2634,G#3,391.0,0.25,30,145.5
2635,E-5,391.0,0.5,40,145.5
2636,E-6,391.0,0.5,40,145.5
2637,G#4,391.5,1.5,43,145.5
2638,G#5,391.5,1.5,43,145.5
2639,G#3,391.5,1.5,31,145.5
2640,C#3,391.5,1.5,31,145.5
2641,C#4,391.5,1.5,31,145.5
2642,D5,393.0,0.5,43,145.5
2643,D6,393.0,0.5,43,145.5
2644,F3,393.0,1.5,31,145.5
2645,G#3,393.0,1.5,31,145.5
2646,C#4,393.0,1.5,31,145.5
2647,F5,393.5,0.5,40,145.5
2648,F6,393.5,0.5,40,145.5
2649,E-5,394.0,0.5,40,145.5
2650,E-6,394.0,0.5,40,145.5
2651,G#4,394.5,1.5,43,145.5
2652,G#5,394.5,1.5,43,145.5
2653,G#3,394.5,1.5,32,145.5
2654,C4,394.5,1.5,32,145.5
2655,G#4,396.0,0.25,45,145.5
2656,G#5,396.0,0.25,45,145.5
2657,F4,396.0,1.0,32,145.5
2658,C#4,396.0,1.0,32,145.5
2659,F#5,396.5,0.5,49,145.5
2660,F#6,396.5,0.5,49,145.5
2661,F5,397.0,0.5,47,145.5
2662,F6,397.0,0.5,47,145.5
2663,C#5,397.5,0.25,45,145.5
2664,C#6,397.5,0.25,45,145.5
2665,C#3,397.5,1.5,31,145.5
2666,F3,397.5,1.5,31,145.5
2667,C#4,397.5,1.5,31,145.5
2668,B-5,398.0,0.5,49,145.5
2669,B-6,398.0,0.5,49,145.5
2670,G#5,398.5,0.5,47,145.5
2671,G#6,398.5,0.5,47,145.5
2672,E-5,399.0,0.25,45,145.5
2673,E-6,399.0,0.25,45,145.5
2674,F#5,399.5,0.5,49,145.5
2675,F#6,399.5,0.5,49,145.5
2676,C#3,399.5,0.5,31,145.5
2677,F3,399.5,0.5,31,145.5
2678,C#4,399.5,0.5,31,145.5
2679,F5,400.0,0.5,47,145.5
2680,F6,400.0,0.5,47,145.5
2681,C#4,400.0,0.5,38,145.5
2682,F4,400.0,0.5,38,145.5
2683,G#3,400.5,0.25,28,145.5
2684,C#5,400.5,1.0,45,145.5
2685,C#6,400.5,1.0,45,145.5
2686,F3,401.0,1.5,31,145.5
2687,C#3,401.0,1.5,31,145.5
2688,C#4,401.0,1.5,31,145.5
2689,C#5,402.0,0.75,49,145.5
2690,C#5,402.75,119/500,45,145.5
2691,C#5,403.0,0.5,49,145.5
2692,F3,403.0,0.5,31,145.5
2693,C#3,403.0,0.5,31,145.5
2694,C#4,403.0,0.5,31,145.5
2695,C#5,403.5,0.75,49,145.5
2696,C#4,403.5,0.5,38,145.5
2697,F4,403.5,0.5,38,145.5
2698,G#3,404.0,0.25,28,145.5
2699,C#5,404.25,119/500,43,145.5
2700,C#5,404.5,0.5,49,145.5
2701,C3,404.5,1.5,31,145.5
2702,F#3,404.5,1.5,31,145.5
2703,G#3,404.5,1.5,31,145.5
2704,C#5,405.0,0.75,48,145.5
2705,E5,405.0,0.75,48,145.5
2706,C#5,405.75,119/500,45,145.5
2707,E5,405.75,119/500,45,145.5
2708,C#5,406.0,0.5,49,145.5
2709,E5,406.0,0.5,49,145.5
2710,C#5,406.5,0.75,48,145.5
2711,E5,406.5,0.75,48,145.5
2712,C3,406.5,0.5,31,145.5
2713,F#3,406.5,0.5,31,145.5
2714,G#3,406.5,0.5,31,145.5
2715,F#4,407.0,0.5,38,145.5
2716,E-4,407.0,0.5,38,145.5
2717,C#5,407.25,119/500,43,145.5
2718,E5,407.25,119/500,43,145.5
2719,G#3,407.5,0.25,30,145.5
2720,C#5,407.5,0.5,49,145.5
2721,E5,407.5,0.5,49,145.5
2722,C#5,408.0,0.75,50,145.5
2723,E5,408.0,0.75,50,145.5
2724,F#3,408.0,1.5,31,145.5
2725,G#3,408.0,1.5,31,145.5
2726,C3,408.0,1.5,31,145.5
2727,C#5,408.75,119/500,45,145.5
2728,E5,408.75,119/500,45,145.5
2729,C#5,409.0,0.5,50,145.5
2730,E5,409.0,0.5,50,145.5
2731,C#5,409.5,0.75,49,145.5
2732,E5,409.5,0.75,49,145.5
2733,F#3,410.0,0.5,31,145.5
2734,G#3,410.0,0.5,31,145.5
2735,C3,410.0,0.5,31,145.5
2736,C#5,410.25,119/500,45,145.5
2737,E5,410.25,119/500,45,145.5
2738,C#5,410.5,0.5,50,145.5
2739,E5,410.5,0.5,50,145.5
2740,E-4,410.5,0.5,38,145.5
2741,F#4,410.5,0.5,38,145.5
2742,G#3,411.0,0.25,30,145.5
2743,C#5,411.0,0.75,64,145.5
2744,E-5,411.0,0.75,64,145.5
2745,G#3,411.5,1.5,31,145.5
2746,C#3,411.5,1.5,31,145.5
2747,C#4,411.5,1.5,31,145.5
2748,C#5,411.75,119/500,56,145.5
2749,E-5,411.75,119/500,56,145.5
2750,C#5,412.0,0.5,66,145.5
2751,E-5,412.0,0.5,66,145.5
2752,C#5,412.5,0.75,82,145.5
2753,E-5,412.5,0.75,82,145.5
2754,F3,413.0,1.5,31,145.5
2755,G#3,413.0,1.5,31,145.5
2756,C#4,413.0,1.5,31,145.5
2757,C#5,413.25,119/500,75,145.5
2758,E-5,413.25,119/500,75,145.5
2759,C#5,413.5,0.5,80,145.5
2760,E-5,413.5,0.5,80,145.5
2761,E-4,414.0,0.75,80,145.5
2762,C5,414.0,0.75,80,145.5
2763,E-5,414.0,0.75,80,145.5
2764,F#4,414.5,0.25,34,145.5
2765,G#3,414.5,1.5,32,145.5
2766,C4,414.5,1.5,32,145.5
2767,E-4,414.75,119/500,76,145.5
2768,C5,414.75,119/500,76,145.5
2769,E-5,414.75,119/500,76,145.5
2770,B-4,415.0,0.5,38,145.5
2771,C5,415.0,0.25,80,145.5
2772,E-5,415.0,0.25,80,145.5
2773,E-4,415.0,0.25,80,145.5
2774,G#4,415.5,0.5,36,145.5
2775,C5,415.5,0.75,80,145.5
2776,E-5,415.5,0.75,80,145.5
2777,E-4,415.5,0.75,80,145.5
2778,F4,416.0,1.0,32,145.5
2779,C#4,416.0,1.0,32,145.5
2780,E-5,416.25,119/500,76,145.5
2781,E-4,416.25,119/500,76,145.5
2782,C5,416.25,119/500,76,145.5
2783,E-5,416.5,0.25,80,145.5
2784,E-4,416.5,0.25,80,145.5
2785,C5,416.5,0.25,80,145.5
2786,E-4,417.0,0.25,72,145.5
2787,B4,417.0,0.25,72,145.5
2788,E-5,417.0,0.25,72,145.5
2789,C5,417.25,0.25,73,145.5
2790,G#4,417.5,0.25,73,145.5
2791,E-4,417.75,0.25,73,145.5
2792,C4,418.0,0.25,80,145.5
2793,E-4,418.5,0.25,84,145.5
2794,G#4,418.75,0.25,74,145.5
2795,C5,419.0,0.25,74,145.5
2796,E-5,419.25,0.25,74,145.5
2797,G#5,419.5,0.25,79,145.5
2798,A5,420.0,0.125,71,145.5
2799,A4,420.0,0.125,71,145.5
2800,B-4,420.5,1.0,80,145.5
2801,B-5,420.5,1.0,80,145.5
2802,D4,421.5,0.25,85,145.5
2803,E-4,421.75,0.25,70,145.5
2804,B-3,422.0,0.25,75,145.5
2805,G3,422.25,0.25,70,145.5
2806,E-3,422.5,0.25,76,145.5
2807,E-5,423.0,0.75,80,145.5
2808,C#5,423.0,0.75,80,145.5
2809,E-4,423.0,0.75,80,145.5
2810,A4,423.5,0.75,49,145.5
2811,E-4,423.75,119/500,76,145.5
2812,C#5,423.75,119/500,76,145.5
2813,E-5,423.75,119/500,76,145.5
2814,E-4,424.0,0.25,80,145.5
2815,C#5,424.0,0.25,80,145.5
2816,E-5,424.0,0.25,80,145.5
2817,A4,424.25,119/500,44,145.5
2818,A4,424.5,0.5,49,145.5
2819,E-4,424.5,0.75,80,145.5
2820,C#5,424.5,0.75,80,145.5
2821,E-5,424.5,0.75,80,145.5
2822,A4,425.0,0.75,49,145.5
2823,E-4,425.25,119/500,76,145.5
2824,C#5,425.25,119/500,76,145.5
2825,E-5,425.25,119/500,76,145.5
2826,E-4,425.5,0.25,80,145.5
2827,C#5,425.5,0.25,80,145.5
2828,E-5,425.5,0.25,80,145.5
2829,A4,425.75,119/500,45,145.5
2830,A4,426.0,0.5,49,145.5
2831,E-4,426.0,0.25,72,145.5
2832,C5,426.0,0.25,72,145.5
2833,E-5,426.0,0.25,72,145.5
2834,C#5,426.25,0.25,73,145.5
2835,B-4,426.5,0.25,73,145.5
2836,G4,426.5,0.75,55,145.5
2837,B-4,426.5,0.75,55,145.5
2838,G4,426.75,0.25,73,145.5
2839,E-4,427.0,0.25,80,145.5
2840,G4,427.25,119/500,50,145.5
2841,B-4,427.25,119/500,50,145.5
2842,G4,427.5,0.25,84,145.5
2843,G4,427.5,0.5,58,145.5
2844,B-4,427.5,0.5,58,145.5
2845,B-4,427.75,0.25,74,145.5
2846,C#5,428.0,0.25,74,145.5
2847,E-4,428.0,0.75,62,145.5
2848,G4,428.0,0.75,62,145.5
2849,B-4,428.0,0.75,62,145.5
2850,E-5,428.25,0.25,74,145.5
2851,G5,428.5,0.25,79,145.5
2852,E-4,428.75,119/500,57,145.5
2853,G4,428.75,119/500,57,145.5
2854,B-4,428.75,119/500,57,145.5
2855,B5,429.0,0.125,71,145.5
2856,B4,429.0,0.125,71,145.5
2857,E-4,429.0,0.5,63,145.5
2858,G4,429.0,0.5,63,145.5
2859,B-4,429.0,0.5,63,145.5
2860,C5,429.5,1.0,80,145.5
2861,C6,429.5,1.0,80,145.5
2862,G#2,429.5,0.75,65,145.5
2863,E-3,429.5,0.75,65,145.5
2864,G#3,429.5,0.75,65,145.5
2865,G#2,430.25,119/500,60,145.5
2866,E-3,430.25,119/500,60,145.5
2867,G#3,430.25,119/500,60,145.5
2868,G4,430.5,0.25,85,145.5
2869,G#2,430.5,0.25,66,145.5
2870,E-3,430.5,0.25,66,145.5
2871,G#3,430.5,0.25,66,145.5
2872,G#4,430.75,0.25,70,145.5
2873,E-4,431.0,0.25,75,145.5
2874,G#2,431.0,0.75,65,145.5
2875,E-3,431.0,0.75,65,145.5
2876,G#3,431.0,0.75,65,145.5
2877,C4,431.25,0.25,70,145.5
2878,G#3,431.5,0.25,76,145.5
2879,G#2,431.75,119/500,60,145.5
2880,E-3,431.75,119/500,60,145.5
2881,G#3,431.75,119/500,60,145.5
2882,E-5,432.0,0.75,80,145.5
2883,B4,432.0,0.75,80,145.5
2884,E-4,432.0,0.75,80,145.5
2885,G#2,432.0,0.25,66,145.5
2886,E-3,432.0,0.25,66,145.5
2887,G#3,432.0,0.25,66,145.5
2888,G#2,432.5,0.5,66,145.5
2889,E-3,432.5,0.5,66,145.5
2890,G#3,432.5,0.5,66,145.5
2891,E-4,432.75,119/500,76,145.5
2892,B4,432.75,119/500,76,145.5
2893,E-5,432.75,119/500,76,145.5
2894,E-4,433.0,0.25,80,145.5
2895,B4,433.0,0.25,80,145.5
2896,E-5,433.0,0.25,80,145.5
2897,B4,433.5,0.75,78,145.5
2898,E4,433.5,0.75,78,145.5
2899,D5,433.5,0.75,78,145.5
2900,E5,433.5,0.75,78,145.5
2901,B4,434.25,119/500,75,145.5
2902,E4,434.25,119/500,75,145.5
2903,D5,434.25,119/500,75,145.5
2904,E5,434.25,119/500,75,145.5
2905,B4,434.5,0.25,78,145.5
2906,E4,434.5,0.25,78,145.5
2907,D5,434.5,0.25,78,145.5
2908,E5,434.5,0.25,78,145.5
2909,E4,435.0,0.25,72,145.5
2910,B4,435.0,0.25,72,145.5
2911,E5,435.0,0.25,72,145.5
2912,C5,435.25,0.25,73,145.5
2913,A4,435.5,0.25,73,145.5
2914,E-4,435.5,0.125,66,145.5
2915,C#4,435.5,0.125,66,145.5
2916,G3,435.5,0.125,66,145.5
2917,E4,435.75,0.25,73,145.5
2918,C4,436.0,0.25,80,145.5
2919,E-4,436.0,1.0,66,145.5
2920,C#4,436.0,1.0,66,145.5
2921,G3,436.0,1.0,66,145.5
2922,A4,436.5,0.25,84,145.5
2923,C5,436.75,0.25,74,145.5
2924,E5,437.0,0.25,76,145.5
2925,D3,437.0,0.25,73,145.5
2926,A5,437.25,0.25,77,145.5
2927,E-3,437.25,0.25,67,145.5
2928,C6,437.5,0.25,83,145.5
2929,B-2,437.5,0.25,70,145.5
2930,G2,437.75,0.25,67,145.5
2931,E-2,438.0,0.25,70,145.5
2932,E5,438.0,0.75,80,145.5
2933,C5,438.0,0.75,80,145.5
2934,E4,438.0,0.75,80,145.5
2935,B-2,438.5,0.75,65,145.5
2936,E-3,438.5,0.75,65,145.5
2937,B-3,438.5,0.75,65,145.5
2938,E4,438.75,119/500,76,145.5
2939,C5,438.75,119/500,76,145.5
2940,E5,438.75,119/500,76,145.5
2941,E4,439.0,0.25,80,145.5
2942,C5,439.0,0.25,80,145.5
2943,E5,439.0,0.25,80,145.5
2944,B-2,439.25,119/500,60,145.5
2945,E-3,439.25,119/500,60,145.5
2946,B-3,439.25,119/500,60,145.5
2947,C5,439.5,0.75,78,145.5
2948,F4,439.5,0.75,78,145.5
2949,E-5,439.5,0.75,78,145.5
2950,F5,439.5,0.75,78,145.5
2951,B-2,439.5,0.25,66,145.5
2952,E-3,439.5,0.25,66,145.5
2953,B-3,439.5,0.25,66,145.5
2954,B-2,440.0,0.75,65,145.5
2955,E-3,440.0,0.75,65,145.5
2956,B-3,440.0,0.75,65,145.5
2957,C5,440.25,119/500,75,145.5
2958,F4,440.25,119/500,75,145.5
2959,E-5,440.25,119/500,75,145.5
2960,F5,440.25,119/500,75,145.5
2961,C5,440.5,0.25,78,145.5
2962,F4,440.5,0.25,78,145.5
2963,E-5,440.5,0.25,78,145.5
2964,F5,440.5,0.25,78,145.5
2965,B-2,440.75,119/500,60,145.5
2966,E-3,440.75,119/500,60,145.5
2967,B-3,440.75,119/500,60,145.5
2968,F4,441.0,0.25,72,145.5
2969,C5,441.0,0.25,72,145.5
2970,F5,441.0,0.25,72,145.5
2971,B-2,441.0,0.25,66,145.5
2972,E-3,441.0,0.25,66,145.5
2973,B-3,441.0,0.25,66,145.5
2974,C#5,441.25,0.25,73,145.5
2975,B-4,441.5,0.25,73,145.5
2976,B-2,441.5,0.5,66,145.5
2977,E-3,441.5,0.5,66,145.5
2978,B-3,441.5,0.5,66,145.5
2979,F4,441.75,0.25,73,145.5
2980,C#4,442.0,0.25,80,145.5
2981,B-4,442.5,0.25,84,145.5
2982,C#5,442.75,0.25,75,145.5
2983,F5,443.0,0.25,76,145.5
2984,B-5,443.25,0.25,78,145.5
2985,C#6,443.5,0.25,85,145.5
2986,E5,444.0,0.75,78,145.5
2987,F#5,444.0,0.75,78,145.5
2988,C#5,444.0,0.75,78,145.5
2989,F#4,444.0,0.75,78,145.5
2990,G4,444.5,0.125,66,145.5
2991,E-4,444.5,0.125,66,145.5
2992,G#3,444.5,0.125,66,145.5
2993,E5,444.75,119/500,75,145.5
2994,F#4,444.75,119/500,75,145.5
2995,C#5,444.75,119/500,75,145.5
2996,F#5,444.75,119/500,75,145.5
2997,E5,445.0,0.25,78,145.5
2998,F#4,445.0,0.25,78,145.5
2999,C#5,445.0,0.25,78,145.5
3000,F#5,445.0,0.25,78,145.5
3001,G#4,445.0,1.0,66,145.5
3002,E-4,445.0,1.0,66,145.5
3003,G#3,445.0,1.0,66,145.5
3004,F#4,445.5,0.25,72,145.5
3005,C#5,445.5,0.25,72,145.5
3006,F#5,445.5,0.25,72,145.5
3007,D5,445.75,0.25,73,145.5
3008,B4,446.0,0.25,73,145.5
3009,G3,446.0,0.25,73,145.5
3010,F#4,446.25,0.25,73,145.5
3011,G#3,446.25,0.25,67,145.5
3012,D4,446.5,0.25,80,145.5
3013,E-3,446.5,0.25,70,145.5
3014,C3,446.75,0.25,67,145.5
3015,G#2,447.0,0.25,70,145.5
3016,F5,447.0,0.75,78,145.5
3017,G5,447.0,0.75,78,145.5
3018,D5,447.0,0.75,78,145.5
3019,G4,447.0,0.75,78,145.5
3020,G#2,447.5,0.75,65,145.5
3021,E-3,447.5,0.75,65,145.5
3022,G#3,447.5,0.75,65,145.5
3023,F5,447.75,119/500,75,145.5
3024,G4,447.75,119/500,75,145.5
3025,D5,447.75,119/500,75,145.5
3026,G5,447.75,119/500,75,145.5
3027,F5,448.0,0.25,78,145.5
3028,G4,448.0,0.25,78,145.5
3029,D5,448.0,0.25,78,145.5
3030,G5,448.0,0.25,78,145.5
3031,G#2,448.25,119/500,60,145.5
3032,E-3,448.25,119/500,60,145.5
3033,G#3,448.25,119/500,60,145.5
3034,G4,448.5,0.25,72,145.5
3035,D5,448.5,0.25,72,145.5
3036,G5,448.5,0.25,72,145.5
3037,G#2,448.5,0.25,66,145.5
3038,E-3,448.5,0.25,66,145.5
3039,G#3,448.5,0.25,66,145.5
3040,E-5,448.75,0.25,73,145.5
3041,C5,449.0,0.25,73,145.5
3042,G#2,449.0,0.75,65,145.5
3043,E3,449.0,0.75,65,145.5
3044,G#3,449.0,0.75,65,145.5
3045,G4,449.25,0.25,73,145.5
3046,E-4,449.5,0.25,80,145.5
3047,G#2,449.75,119/500,60,145.5
3048,E3,449.75,119/500,60,145.5
3049,G#3,449.75,119/500,60,145.5
3050,C5,450.0,0.25,49,145.5
3051,G5,450.0,0.25,49,145.5
3052,G#2,450.0,0.25,66,145.5
3053,E3,450.0,0.25,66,145.5
3054,G#3,450.0,0.25,66,145.5
3055,C6,450.25,0.25,55,145.5
3056,C5,450.5,0.25,52,145.5
3057,G5,450.5,0.25,52,145.5
3058,A2,450.5,0.5,66,145.5
3059,E3,450.5,0.5,66,145.5
3060,A3,450.5,0.5,66,145.5
3061,C6,450.75,0.25,58,145.5
3062,C5,451.0,0.25,54,145.5
3063,G5,451.0,0.25,54,145.5
3064,C6,451.25,0.25,60,145.5
3065,C5,451.5,0.25,56,145.5
3066,G5,451.5,0.25,56,145.5
3067,C6,451.75,0.25,63,145.5
3068,C3,452.0,0.25,63,145.5
3069,C5,452.0,0.25,59,145.5
3070,G5,452.0,0.25,59,145.5
3071,C6,452.25,0.25,65,145.5
3072,A2,452.25,0.25,55,145.5
3073,E2,452.5,0.25,56,145.5
3074,C5,452.5,0.25,61,145.5
3075,G5,452.5,0.25,61,145.5
3076,C6,452.75,0.25,67,145.5
3077,C2,452.75,0.25,57,145.5
3078,A1,453.0,0.25,62,145.5
3079,C5,453.0,0.25,64,145.5
3080,F#5,453.0,0.25,64,145.5
3081,C6,453.25,0.25,71,145.5
3082,C5,453.5,0.25,66,145.5
3083,F#5,453.5,0.25,66,145.5
3084,A2,453.5,0.75,65,145.5
3085,E3,453.5,0.75,65,145.5
3086,A3,453.5,0.75,65,145.5
3087,C6,453.75,0.25,74,145.5
3088,C5,454.0,0.25,70,145.5
3089,F#5,454.0,0.25,70,145.5
3090,C6,454.25,0.25,77,145.5
3091,A2,454.25,119/500,60,145.5
3092,E3,454.25,119/500,60,145.5
3093,A3,454.25,119/500,60,145.5
3094,F#5,454.5,0.25,72,145.5
3095,C5,454.5,0.25,72,145.5
3096,A2,454.5,0.25,66,145.5
3097,E3,454.5,0.25,66,145.5
3098,A3,454.5,0.25,66,145.5
3099,C6,454.75,0.25,81,145.5
3100,C5,455.0,0.25,76,145.5
3101,F#5,455.0,0.25,76,145.5
3102,A2,455.0,0.75,65,145.5
3103,F3,455.0,0.75,65,145.5
3104,A3,455.0,0.75,65,145.5
3105,C6,455.25,0.25,84,145.5
3106,F#5,455.5,0.25,78,145.5
3107,C5,455.5,0.25,78,145.5
3108,C6,455.75,0.25,87,145.5
3109,A2,455.75,119/500,60,145.5
3110,F3,455.75,119/500,60,145.5
3111,A3,455.75,119/500,60,145.5
3112,F#5,456.0,0.5,86,145.5
3113,C6,456.0,0.5,86,145.5
3114,C5,456.0,0.5,86,145.5
3115,A2,456.0,0.25,66,145.5
3116,F3,456.0,0.25,66,145.5
3117,A3,456.0,0.25,66,145.5
3118,D5,456.5,0.25,75,145.5
3119,F#5,456.5,0.25,75,145.5
3120,C6,456.5,0.25,75,145.5
3121,D6,456.5,0.25,75,145.5
3122,B-2,456.5,0.5,66,145.5
3123,F3,456.5,0.5,66,145.5
3124,B-3,456.5,0.5,66,145.5
3125,F#5,457.0,0.25,75,145.5
3126,C6,457.0,0.25,75,145.5
3127,D6,457.0,0.25,75,145.5
3128,D5,457.0,0.25,75,145.5
3129,D5,457.5,0.25,82,145.5
3130,F#5,457.5,0.25,82,145.5
3131,C6,457.5,0.25,82,145.5
3132,D6,457.5,0.25,82,145.5
3133,C#3,458.0,0.25,63,145.5
3134,F#5,458.0,0.25,75,145.5
3135,C6,458.0,0.25,75,145.5
3136,D5,458.0,0.25,75,145.5
3137,D6,458.0,0.25,75,145.5
3138,B-2,458.25,0.25,56,145.5
3139,F2,458.5,0.25,57,145.5
3140,D5,458.5,0.25,75,145.5
3141,F#5,458.5,0.25,75,145.5
3142,D6,458.5,0.25,75,145.5
3143,C6,458.5,0.25,75,145.5
3144,C#2,458.75,0.25,58,145.5
3145,B-1,459.0,0.25,63,145.5
3146,D5,459.0,0.5,75,145.5
3147,G5,459.0,0.5,75,145.5
3148,B5,459.0,0.5,75,145.5
3149,D6,459.0,0.5,75,145.5
3150,G6,459.5,0.25,75,145.5
3151,B5,459.5,0.25,75,145.5
3152,G5,459.5,0.25,75,145.5
3153,D6,459.5,0.25,75,145.5
3154,B-2,459.5,0.75,65,145.5
3155,F#3,459.5,0.75,65,145.5
3156,B-3,459.5,0.75,65,145.5
3157,B-2,460.25,119/500,60,145.5
3158,F#3,460.25,119/500,60,145.5
3159,B-3,460.25,119/500,60,145.5
3160,G4,460.5,0.5,75,145.5
3161,D4,460.5,0.5,75,145.5
3162,B4,460.5,0.5,75,145.5
3163,D5,460.5,0.5,75,145.5
3164,B-2,460.5,0.25,66,145.5
3165,F#3,460.5,0.25,66,145.5
3166,B-3,460.5,0.25,66,145.5
3167,G5,461.0,0.25,75,145.5
3168,D5,461.0,0.25,75,145.5
3169,G4,461.0,0.25,75,145.5
3170,B4,461.0,0.25,75,145.5
3171,B2,461.0,0.5,66,145.5
3172,F#3,461.0,0.5,66,145.5
3173,B3,461.0,0.5,66,145.5
3174,B4,462.0,0.5,75,145.5
3175,G#4,462.0,0.5,75,145.5
3176,D5,462.0,0.5,75,145.5
3177,G#5,462.0,0.5,75,145.5
3178,B5,462.5,0.25,75,145.5
3179,G#5,462.5,0.25,75,145.5
3180,B4,462.5,0.25,75,145.5
3181,D5,462.5,0.25,75,145.5
3182,B2,462.5,0.75,65,145.5
3183,G3,462.5,0.75,65,145.5
3184,B3,462.5,0.75,65,145.5
3185,B2,463.25,119/500,60,145.5
3186,G3,463.25,119/500,60,145.5
3187,B3,463.25,119/500,60,145.5
3188,C5,463.5,0.5,76,145.5
3189,A4,463.5,0.5,76,145.5
3190,E5,463.5,0.5,76,145.5
3191,A5,463.5,0.5,76,145.5
3192,B2,463.5,0.25,66,145.5
3193,G3,463.5,0.25,66,145.5
3194,B3,463.5,0.25,66,145.5
3195,C6,464.0,0.25,76,145.5
3196,A5,464.0,0.25,76,145.5
3197,C5,464.0,0.25,76,145.5
3198,E5,464.0,0.25,76,145.5
3199,C3,464.0,0.5,66,145.5
3200,G3,464.0,0.5,66,145.5
3201,C4,464.0,0.5,66,145.5
3202,A5,465.0,0.5,77,145.5
3203,C5,465.0,0.5,77,145.5
3204,A4,465.0,0.5,77,145.5
3205,E5,465.0,0.5,77,145.5
3206,G#1,465.5,0.25,39,145.5
3207,C6,465.5,0.25,78,145.5
3208,A5,465.5,0.25,78,145.5
3209,C5,465.5,0.25,78,145.5
3210,E5,465.5,0.25,78,145.5
3211,G#2,465.75,0.25,41,145.5
3212,G#1,466.0,0.25,42,145.5
3213,G#2,466.25,0.25,43,145.5
3214,G#1,466.5,0.25,44,145.5
3215,C#5,466.5,0.5,78,145.5
3216,E5,466.5,0.5,78,145.5
3217,B-5,466.5,0.5,78,145.5
3218,B-4,466.5,0.5,78,145.5
3219,G#2,466.75,0.25,46,145.5
3220,G#1,467.0,0.25,47,145.5
3221,C#6,467.0,0.25,78,145.5
3222,B-5,467.0,0.25,78,145.5
3223,C#5,467.0,0.25,78,145.5
3224,E5,467.0,0.25,78,145.5
3225,G#2,467.25,0.25,49,145.5
3226,G#1,467.5,0.25,49,145.5
3227,G#2,467.75,0.25,51,145.5
3228,G#1,468.0,0.25,52,145.5
3229,D5,468.0,0.5,80,145.5
3230,B4,468.0,0.5,80,145.5
3231,F#5,468.0,0.5,80,145.5
3232,B5,468.0,0.5,80,145.5
3233,G#2,468.25,0.25,53,145.5
3234,A2,468.5,0.25,51,145.5
3235,B5,468.5,0.25,80,145.5
3236,D5,468.5,0.25,80,145.5
3237,F#5,468.5,0.25,80,145.5
3238,D6,468.5,0.25,80,145.5
3239,B-2,468.75,0.25,53,145.5
3240,B2,469.0,0.25,54,145.5
3241,C3,469.25,0.25,55,145.5
3242,C#3,469.5,0.25,57,145.5
3243,D5,469.5,0.5,80,145.5
3244,B4,469.5,0.5,80,145.5
3245,B5,469.5,0.5,80,145.5
3246,F#5,469.5,0.5,80,145.5
3247,D3,469.75,0.25,59,145.5
3248,E-3,470.0,0.25,61,145.5
3249,D6,470.0,0.25,80,145.5
3250,B5,470.0,0.25,80,145.5
3251,D5,470.0,0.25,80,145.5
3252,F#5,470.0,0.25,80,145.5
3253,E3,470.25,0.25,63,145.5
3254,F3,470.5,0.25,63,145.5
3255,F#3,470.75,0.25,65,145.5
3256,G3,471.0,0.25,67,145.5
3257,E-5,471.0,0.5,80,145.5
3258,F#5,471.0,0.5,80,145.5
3259,C5,471.0,0.5,80,145.5
3260,C6,471.0,0.5,80,145.5
3261,G#3,471.25,0.25,69,145.5
3262,E-5,471.5,0.25,82,145.5
3263,F#5,471.5,0.25,82,145.5
3264,C6,471.5,0.25,82,145.5
3265,E-6,471.5,0.25,82,145.5
3266,G#3,471.5,0.5,70,145.5
3267,G#2,471.5,0.5,70,145.5
3268,G#4,472.0,0.25,64,145.5
3269,G#3,472.0,0.25,64,145.5
3270,C#5,472.5,0.5,82,145.5
3271,G#5,472.5,0.5,82,145.5
3272,E5,472.5,0.5,82,145.5
3273,C#6,472.5,0.5,82,145.5
3274,G#4,472.5,0.25,64,145.5
3275,G#3,472.5,0.25,64,145.5
3276,E6,473.0,0.25,82,145.5
3277,C#6,473.0,0.25,82,145.5
3278,E5,473.0,0.25,82,145.5
3279,G#5,473.0,0.25,82,145.5
3280,G#3,473.0,0.25,70,145.5
3281,G#4,473.0,0.25,70,145.5
3282,G#4,473.5,0.25,64,145.5
3283,G#3,473.5,0.25,64,145.5
3284,E5,474.0,0.5,83,145.5
3285,C#6,474.0,0.5,83,145.5
3286,G#5,474.0,0.5,83,145.5
3287,C#5,474.0,0.5,83,145.5
3288,G#3,474.0,0.25,64,145.5
3289,G#4,474.0,0.25,64,145.5
3290,C#6,474.5,0.25,83,145.5
3291,E5,474.5,0.25,83,145.5
3292,G#5,474.5,0.25,83,145.5
3293,E6,474.5,0.25,83,145.5
3294,G3,474.5,0.5,72,145.5
3295,G4,474.5,0.5,72,145.5
3296,G2,475.0,0.25,64,145.5
3297,G3,475.0,0.25,64,145.5
3298,E5,475.5,0.5,84,145.5
3299,C#5,475.5,0.5,84,145.5
3300,C#6,475.5,0.5,84,145.5
3301,A5,475.5,0.5,84,145.5
3302,G1,475.5,0.25,57,145.5
3303,G2,475.5,0.25,57,145.5
3304,E6,476.0,0.25,84,145.5
3305,C#6,476.0,0.25,84,145.5
3306,A5,476.0,0.25,84,145.5
3307,E5,476.0,0.25,84,145.5
3308,F4,476.5,0.25,64,145.5
3309,F3,476.5,0.25,64,145.5
3310,A5,477.0,0.5,85,145.5
3311,D6,477.0,0.5,85,145.5
3312,D5,477.0,0.5,85,145.5
3313,F5,477.0,0.5,85,145.5
3314,F3,477.0,0.25,57,145.5
3315,F2,477.0,0.25,57,145.5
3316,F6,477.5,0.25,86,145.5
3317,A5,477.5,0.25,86,145.5
3318,D6,477.5,0.25,86,145.5
3319,F5,477.5,0.25,86,145.5
3320,E4,478.0,0.25,64,145.5
3321,E3,478.0,0.25,64,145.5
3322,C6,478.5,167/1000,65,145.5
3323,A5,478.5,167/1000,65,145.5
3324,F#5,478.5,167/1000,65,145.5
3325,F#6,478.5,167/1000,65,145.5
3326,E3,478.5,0.25,58,145.5
3327,E2,478.5,0.25,58,145.5
3328,E-6,478.667,167/1000,67,145.5
3329,C6,478.833,167/1000,66,145.5
3330,A5,479.0,167/1000,65,145.5
3331,F#5,479.167,167/1000,65,145.5
3332,E-5,479.333,167/1000,64,145.5
3333,C5,479.5,167/1000,63,145.5
3334,A4,479.5,0.25,64,145.5
3335,A3,479.5,0.25,64,145.5
3336,A4,479.667,167/1000,63,145.5
3337,F#4,479.833,167/1000,63,145.5
3338,E-4,480.0,167/1000,63,145.5
3339,A3,480.0,0.25,58,145.5
3340,A2,480.0,0.25,58,145.5
3341,F#4,480.167,167/1000,62,145.5
3342,A4,480.333,167/1000,63,145.5
3343,C5,480.5,167/1000,63,145.5
3344,E-5,480.667,167/1000,64,145.5
3345,F#5,480.833,167/1000,65,145.5
3346,A5,481.0,167/1000,66,145.5
3347,G4,481.0,0.25,66,145.5
3348,G3,481.0,0.25,66,145.5
3349,C6,481.167,167/1000,67,145.5
3350,E-6,481.333,167/1000,70,145.5
3351,F#6,481.5,167/1000,74,145.5
3352,G2,481.5,0.25,59,145.5
3353,G3,481.5,0.25,59,145.5
3354,E-6,481.667,167/1000,67,145.5
3355,C6,481.833,167/1000,66,145.5
3356,A5,482.0,167/1000,65,145.5
3357,F#5,482.167,167/1000,65,145.5
3358,E-5,482.333,167/1000,64,145.5
3359,C5,482.5,167/1000,63,145.5
3360,F#3,482.5,0.25,66,145.5
3361,F#4,482.5,0.25,66,145.5
3362,A4,482.667,167/1000,63,145.5
3363,F#4,482.833,167/1000,63,145.5
3364,E-4,483.0,167/1000,63,145.5
3365,F#3,483.0,0.25,60,145.5
3366,F#2,483.0,0.25,60,145.5
3367,F#4,483.167,167/1000,62,145.5
3368,A4,483.333,167/1000,63,145.5
3369,C5,483.5,167/1000,63,145.5
3370,E-5,483.667,167/1000,64,145.5
3371,F#5,483.833,167/1000,65,145.5
3372,A5,484.0,167/1000,66,145.5
3373,B3,484.0,0.25,67,145.5
3374,B2,484.0,0.25,67,145.5
3375,C6,484.167,167/1000,67,145.5
3376,E-6,484.333,167/1000,70,145.5
3377,F#6,484.5,167/1000,74,145.5
3378,B1,484.5,0.25,60,145.5
3379,B2,484.5,0.25,60,145.5
3380,E-6,484.667,167/1000,67,145.5
3381,B-5,484.833,167/1000,66,145.5
3382,F#5,485.0,167/1000,65,145.5
3383,E-5,485.167,167/1000,65,145.5
3384,B-4,485.333,167/1000,64,145.5
3385,F#4,485.5,167/1000,63,145.5
3386,A2,485.5,0.25,68,145.5
3387,A3,485.5,0.25,68,145.5
3388,E-4,485.667,167/1000,63,145.5
3389,B-3,485.833,167/1000,63,145.5
3390,F#3,486.0,167/1000,63,145.5
3391,A2,486.0,0.25,61,145.5
3392,A1,486.0,0.25,61,145.5
3393,B-3,486.167,167/1000,62,145.5
3394,E-4,486.333,167/1000,63,145.5
3395,F#4,486.5,167/1000,63,145.5
3396,B-4,486.667,167/1000,64,145.5
3397,E-5,486.833,167/1000,65,145.5
3398,F#5,487.0,167/1000,66,145.5
3399,G#3,487.0,0.25,69,145.5
3400,G#2,487.0,0.25,69,145.5
3401,B-5,487.167,167/1000,67,145.5
3402,E-6,487.333,167/1000,70,145.5
3403,F#6,487.5,167/1000,74,145.5
3404,G#2,487.5,0.25,62,145.5
3405,G#1,487.5,0.25,62,145.5
3406,E-6,487.667,167/1000,67,145.5
3407,B-5,487.833,167/1000,66,145.5
3408,F#5,488.0,167/1000,65,145.5
3409,E-5,488.167,167/1000,65,145.5
3410,B-4,488.333,167/1000,64,145.5
3411,F#4,488.5,167/1000,63,145.5
3412,C#4,488.5,0.25,69,145.5
3413,C#3,488.5,0.25,69,145.5
3414,E-4,488.667,167/1000,63,145.5
3415,B-3,488.833,167/1000,63,145.5
3416,F#3,489.0,167/1000,63,145.5
3417,C#2,489.0,0.25,62,145.5
3418,C#3,489.0,0.25,62,145.5
3419,B-3,489.167,167/1000,62,145.5
3420,E-4,489.333,167/1000,63,145.5
3421,F#4,489.5,167/1000,63,145.5
3422,B-4,489.667,167/1000,64,145.5
3423,E-5,489.833,167/1000,65,145.5
3424,F#5,490.0,167/1000,66,145.5
3425,B3,490.0,0.25,70,145.5
3426,B2,490.0,0.25,70,145.5
3427,B-5,490.167,167/1000,67,145.5
3428,E-6,490.333,167/1000,70,145.5
3429,F#6,490.5,167/1000,74,145.5
3430,B2,490.5,0.25,64,145.5
3431,B1,490.5,0.25,64,145.5
3432,E-6,490.667,167/1000,67,145.5
3433,A5,490.833,167/1000,66,145.5
3434,F#5,491.0,167/1000,65,145.5
3435,E-5,491.167,167/1000,65,145.5
3436,A4,491.333,167/1000,64,145.5
3437,F#4,491.5,167/1000,63,145.5
3438,A3,491.5,0.25,70,145.5
3439,A2,491.5,0.25,70,145.5
3440,E-4,491.667,167/1000,63,145.5
3441,A3,491.833,167/1000,63,145.5
3442,F#3,492.0,167/1000,63,145.5
3443,A1,492.0,0.25,64,145.5
3444,A2,492.0,0.25,64,145.5
3445,A3,492.167,167/1000,62,145.5
3446,E-4,492.333,167/1000,63,145.5
3447,F#4,492.5,167/1000,63,145.5
3448,A4,492.667,167/1000,64,145.5
3449,E-5,492.833,167/1000,65,145.5
3450,F#5,493.0,167/1000,66,145.5
3451,A3,493.0,0.25,72,145.5
3452,A2,493.0,0.25,72,145.5
3453,A5,493.167,167/1000,67,145.5
3454,E-6,493.333,167/1000,70,145.5
3455,F#6,493.5,167/1000,74,145.5
3456,A2,493.5,0.25,78,145.5
3457,A1,493.5,0.25,78,145.5
3458,D6,493.667,167/1000,67,145.5
3459,A5,493.833,167/1000,66,145.5
3460,F#5,494.0,167/1000,65,145.5
3461,A1,494.0,1.5,85,145.5
3462,A2,494.0,1.5,85,145.5
3463,D5,494.167,167/1000,65,145.5
3464,A4,494.333,167/1000,64,145.5
3465,F#4,494.5,167/1000,63,145.5
3466,D4,494.667,167/1000,63,145.5
3467,A3,494.833,167/1000,63,145.5
3468,F#3,495.0,167/1000,63,145.5
3469,A3,495.167,167/1000,62,145.5
3470,D4,495.333,167/1000,63,145.5
3471,F#4,495.5,167/1000,63,145.5
3472,A4,495.667,167/1000,64,145.5
3473,D5,495.833,167/1000,65,145.5
3474,F#5,496.0,167/1000,66,145.5
3475,A5,496.167,167/1000,67,145.5
3476,A1,496.25,0.75,85,145.5
3477,A2,496.25,0.75,85,145.5
3478,D6,496.333,167/1000,70,145.5
3479,A6,496.5,167/1000,74,145.5
3480,F#6,496.667,167/1000,67,145.5
3481,C#6,496.833,167/1000,66,145.5
3482,A5,497.0,167/1000,65,145.5
3483,A2,497.0,119/500,78,145.5
3484,A3,497.0,119/500,78,145.5
3485,F#5,497.167,167/1000,65,145.5
3486,A2,497.25,0.5,84,145.5
3487,A3,497.25,0.5,84,145.5
3488,C#5,497.333,167/1000,64,145.5
3489,A4,497.5,167/1000,63,145.5
3490,F#4,497.667,167/1000,63,145.5
3491,A1,497.75,1.5,83,145.5
3492,A2,497.75,1.5,83,145.5
3493,C#4,497.833,167/1000,63,145.5
3494,A3,498.0,167/1000,63,145.5
3495,C#4,498.167,167/1000,62,145.5
3496,F#4,498.333,167/1000,63,145.5
3497,A4,498.5,167/1000,63,145.5
3498,C#5,498.667,167/1000,64,145.5
3499,F#5,498.833,167/1000,65,145.5
3500,A5,499.0,167/1000,66,145.5
3501,C#6,499.167,167/1000,67,145.5
3502,F#6,499.333,167/1000,70,145.5
3503,A6,499.5,167/1000,74,145.5
3504,G6,499.667,167/1000,67,145.5
3505,E6,499.833,167/1000,66,145.5
3506,A5,500.0,167/1000,65,145.5
3507,A1,500.0,0.75,83,145.5
3508,A2,500.0,0.75,83,145.5
3509,G5,500.167,167/1000,65,145.5
3510,E5,500.333,167/1000,64,145.5
3511,A4,500.5,167/1000,63,145.5
3512,G4,500.667,167/1000,63,145.5
3513,A2,500.75,0.25,78,145.5
3514,A3,500.75,0.25,78,145.5
3515,E4,500.833,167/1000,63,145.5
3516,A3,501.0,167/1000,63,145.5
3517,A2,501.0,0.5,84,145.5
3518,A3,501.0,0.5,84,145.5
3519,E4,501.167,167/1000,62,145.5
3520,G4,501.333,167/1000,63,145.5
3521,A4,501.5,167/1000,63,145.5
3522,B-1,501.5,1.5,83,145.5
3523,B-2,501.5,1.5,83,145.5
3524,E5,501.667,167/1000,64,145.5
3525,G5,501.833,167/1000,65,145.5
3526,A5,502.0,167/1000,66,145.5
3527,C#6,502.167,167/1000,67,145.5
3528,E6,502.333,167/1000,70,145.5
3529,A6,502.5,167/1000,74,145.5
3530,F6,502.667,167/1000,67,145.5
3531,D6,502.833,167/1000,66,145.5
3532,A5,503.0,167/1000,65,145.5
3533,F5,503.167,167/1000,65,145.5
3534,D5,503.333,167/1000,64,145.5
3535,A4,503.5,167/1000,63,145.5
3536,F4,503.667,167/1000,63,145.5
3537,B-1,503.75,0.75,83,145.5
3538,B-2,503.75,0.75,83,145.5
3539,D4,503.833,167/1000,63,145.5
3540,G6,504.0,167/1000,74,145.5
3541,F6,504.167,167/1000,67,145.5
3542,D6,504.333,167/1000,66,145.5
3543,G5,504.5,167/1000,65,145.5
3544,B-2,504.5,119/500,78,145.5
3545,B-3,504.5,119/500,78,145.5
3546,F5,504.667,167/1000,65,145.5
3547,B-2,504.75,0.5,84,145.5
3548,B-3,504.75,0.5,84,145.5
3549,D5,504.833,167/1000,64,145.5
3550,G4,505.0,167/1000,63,145.5
3551,F4,505.167,167/1000,63,145.5
3552,B-1,505.25,1.5,83,145.5
3553,B-2,505.25,1.5,83,145.5
3554,D4,505.333,167/1000,63,145.5
3555,G6,505.5,167/1000,74,145.5
3556,E6,505.667,167/1000,67,145.5
3557,C6,505.833,167/1000,66,145.5
3558,G5,506.0,167/1000,65,145.5
3559,E5,506.167,167/1000,65,145.5
3560,C5,506.333,167/1000,64,145.5
3561,G4,506.5,167/1000,63,145.5
3562,E4,506.667,167/1000,63,145.5
3563,C4,506.833,167/1000,63,145.5
3564,C7,507.0,167/1000,74,145.5
3565,A6,507.167,167/1000,67,145.5
3566,E6,507.333,167/1000,66,145.5
3567,C6,507.5,167/1000,65,145.5
3568,B-1,507.5,0.75,83,145.5
3569,B-2,507.5,0.75,83,145.5
3570,A5,507.667,167/1000,65,145.5
3571,E5,507.833,167/1000,64,145.5
3572,C5,508.0,167/1000,63,145.5
3573,A4,508.167,167/1000,63,145.5
3574,B-2,508.25,119/500,78,145.5
3575,B-3,508.25,119/500,78,145.5
3576,E4,508.333,167/1000,63,145.5
3577,A6,508.5,167/1000,74,145.5
3578,B-2,508.5,0.5,84,145.5
3579,B-3,508.5,0.5,84,145.5
3580,D6,508.667,167/1000,67,145.5
3581,C6,508.833,167/1000,66,145.5
3582,A5,509.0,167/1000,65,145.5
3583,B1,509.0,1.5,86,145.5
3584,B2,509.0,1.5,86,145.5
3585,D5,509.167,167/1000,65,145.5
3586,C5,509.333,167/1000,64,145.5
3587,A4,509.5,167/1000,63,145.5
3588,D4,509.667,167/1000,63,145.5
3589,C4,509.833,167/1000,63,145.5
3590,G6,510.0,167/1000,74,145.5
3591,D6,510.167,167/1000,67,145.5
3592,B5,510.333,167/1000,66,145.5
3593,G5,510.5,167/1000,65,145.5
3594,D5,510.667,167/1000,65,145.5
3595,B4,510.833,167/1000,64,145.5
3596,G4,511.0,167/1000,63,145.5
3597,D4,511.167,167/1000,63,145.5
3598,B1,511.25,0.75,86,145.5
3599,B2,511.25,0.75,86,145.5
3600,B3,511.333,167/1000,63,145.5
3601,E-5,511.5,0.75,80,145.5
3602,F#5,511.5,0.75,80,145.5
3603,C6,511.5,0.75,80,145.5
3604,E-6,511.5,0.75,80,145.5
3605,B2,512.0,119/500,78,145.5
3606,B3,512.0,119/500,78,145.5
3607,E-5,512.25,119/500,74,145.5
3608,F#5,512.25,119/500,74,145.5
3609,C6,512.25,119/500,74,145.5
3610,E-6,512.25,119/500,74,145.5
3611,B2,512.25,0.5,84,145.5
3612,B3,512.25,0.5,84,145.5
3613,E-5,512.5,0.5,80,145.5
3614,F#5,512.5,0.5,80,145.5
3615,C6,512.5,0.5,80,145.5
3616,E-6,512.5,0.5,80,145.5
3617,C2,512.75,1.5,84,145.5
3618,C3,512.75,1.5,84,145.5
3619,E-5,513.0,0.75,80,145.5
3620,F#5,513.0,0.75,80,145.5
3621,C6,513.0,0.75,80,145.5
3622,E-6,513.0,0.75,80,145.5
3623,E-5,513.75,119/500,74,145.5
3624,F#5,513.75,119/500,74,145.5
3625,C6,513.75,119/500,74,145.5
3626,E-6,513.75,119/500,74,145.5
3627,E-5,514.0,0.5,80,145.5
3628,F#5,514.0,0.5,80,145.5
3629,C6,514.0,0.5,80,145.5
3630,E-6,514.0,0.5,80,145.5
3631,E-5,514.5,0.75,80,145.5
3632,F#5,514.5,0.75,80,145.5
3633,C6,514.5,0.75,80,145.5
3634,E-6,514.5,0.75,80,145.5
3635,C2,515.0,0.75,84,145.5
3636,C3,515.0,0.75,84,145.5
3637,E-5,515.25,119/500,74,145.5
3638,F#5,515.25,119/500,74,145.5
3639,C6,515.25,119/500,74,145.5
3640,E-6,515.25,119/500,74,145.5
3641,E-5,515.5,0.5,80,145.5
3642,F#5,515.5,0.5,80,145.5
3643,C6,515.5,0.5,80,145.5
3644,E-6,515.5,0.5,80,145.5
3645,C3,515.75,119/500,78,145.5
3646,C4,515.75,119/500,78,145.5
3647,E-5,516.0,0.75,80,145.5
3648,F#5,516.0,0.75,80,145.5
3649,C6,516.0,0.75,80,145.5
3650,E-6,516.0,0.75,80,145.5
3651,C3,516.0,0.5,84,145.5
3652,C4,516.0,0.5,84,145.5
3653,C#2,516.5,1.5,83,145.5
3654,C#3,516.5,1.5,83,145.5
3655,E-5,516.75,119/500,74,145.5
3656,F#5,516.75,119/500,74,145.5
3657,C6,516.75,119/500,74,145.5
3658,E-6,516.75,119/500,74,145.5
3659,E-5,517.0,0.5,80,145.5
3660,F#5,517.0,0.5,80,145.5
3661,C6,517.0,0.5,80,145.5
3662,E-6,517.0,0.5,80,145.5
3663,E-5,517.5,19/40,74,145.5
3664,F#5,517.5,19/40,74,145.5
3665,C6,517.5,19/40,74,145.5
3666,E-6,517.5,19/40,74,145.5
3667,F#5,518.0,19/40,70,145.5
3668,E-5,518.0,19/40,70,145.5
3669,C6,518.0,19/40,70,145.5
3670,E-6,518.0,19/40,70,145.5
3671,E-5,518.5,19/40,72,145.5
3672,F#5,518.5,19/40,72,145.5
3673,C6,518.5,19/40,72,145.5
3674,E-6,518.5,19/40,72,145.5
3675,C#2,518.75,0.75,83,145.5
3676,C#3,518.75,0.75,83,145.5
3677,E-5,519.0,19/40,79,145.5
3678,F#5,519.0,19/40,79,145.5
3679,C6,519.0,19/40,79,145.5
3680,E-6,519.0,19/40,79,145.5
3681,E-5,519.5,19/40,76,145.5
3682,F#5,519.5,19/40,76,145.5
3683,C6,519.5,19/40,76,145.5
3684,E-6,519.5,19/40,76,145.5
3685,C#3,519.5,119/500,78,145.5
3686,C#4,519.5,119/500,78,145.5
3687,C#3,519.75,0.5,84,145.5
3688,C#4,519.75,0.5,84,145.5
3689,E-5,520.0,19/40,76,145.5
3690,F#5,520.0,19/40,76,145.5
3691,C6,520.0,19/40,76,145.5
3692,E-6,520.0,19/40,76,145.5
3693,C#2,520.25,1.5,83,145.5
3694,C#3,520.25,1.5,83,145.5
3695,E-6,520.5,19/40,82,145.5
3696,F#5,520.5,19/40,82,145.5
3697,C6,520.5,19/40,82,145.5
3698,F#6,520.5,19/40,82,145.5
3699,F#5,521.0,19/40,76,145.5
3700,E-6,521.0,19/40,76,145.5
3701,C6,521.0,19/40,76,145.5
3702,F#6,521.0,19/40,76,145.5
3703,E-6,521.5,19/40,81,145.5
3704,F#5,521.5,19/40,81,145.5
3705,C6,521.5,19/40,81,145.5
3706,F#6,521.5,19/40,81,145.5
3707,E-6,522.0,19/40,88,145.5
3708,F#5,522.0,19/40,88,145.5
3709,C6,522.0,19/40,88,145.5
3710,F#6,522.0,19/40,88,145.5
3711,E-6,522.5,19/40,83,145.5
3712,F#5,522.5,19/40,83,145.5
3713,C6,522.5,19/40,83,145.5
3714,F#6,522.5,19/40,83,145.5
3715,C#2,522.5,0.75,83,145.5
3716,C#3,522.5,0.75,83,145.5
3717,E-6,523.0,19/40,86,145.5
3718,F#5,523.0,19/40,86,145.5
3719,C6,523.0,19/40,86,145.5
3720,F#6,523.0,19/40,86,145.5
3721,C#3,523.25,119/500,78,145.5
3722,C#4,523.25,119/500,78,145.5
3723,G5,523.5,0.5,91,145.5
3724,C6,523.5,0.5,91,145.5
3725,E6,523.5,0.5,91,145.5
3726,G6,523.5,0.5,91,145.5
3727,C#3,523.5,0.5,84,145.5
3728,C#4,523.5,0.5,84,145.5
3729,D2,524.0,0.75,83,145.5
3730,D3,524.0,0.75,83,145.5
3731,D3,524.75,119/500,78,145.5
3732,D4,524.75,119/500,78,145.5
3733,D3,525.0,0.5,84,145.5
3734,D4,525.0,0.5,84,145.5
3735,B1,525.5,0.75,83,145.5
3736,B2,525.5,0.75,83,145.5
3737,B2,526.25,119/500,78,145.5
3738,B3,526.25,119/500,78,145.5
3739,G6,526.5,0.5,95,145.5
3740,G5,526.5,0.5,95,145.5
3741,D6,526.5,0.5,95,145.5
3742,B5,526.5,0.5,95,145.5
3743,B2,526.5,0.5,84,145.5
3744,B3,526.5,0.5,84,145.5
3745,C2,527.0,0.75,83,145.5
3746,C3,527.0,0.75,83,145.5
3747,C3,527.75,119/500,78,145.5
3748,C4,527.75,119/500,78,145.5
3749,C3,528.0,0.5,84,145.5
3750,C4,528.0,0.5,84,145.5
3751,A1,528.5,0.75,83,145.5
3752,A2,528.5,0.75,83,145.5
3753,A2,529.25,119/500,78,145.5
3754,A3,529.25,119/500,78,145.5
3755,A2,529.5,0.5,84,145.5
3756,A3,529.5,0.5,84,145.5
3757,F1,530.0,0.75,83,145.5
3758,F2,530.0,0.75,83,145.5
3759,F2,530.75,119/500,78,145.5
3760,F3,530.75,119/500,78,145.5
3761,F2,531.0,0.5,84,145.5
3762,F3,531.0,0.5,84,145.5
3763,G1,531.5,0.75,83,145.5
3764,G2,531.5,0.75,83,145.5
3765,G2,532.25,119/500,78,145.5
3766,G3,532.25,119/500,78,145.5
3767,G2,532.5,0.5,84,145.5
3768,G3,532.5,0.5,84,145.5
3769,G#1,533.0,0.25,81,145.5
3770,G#2,533.25,0.25,72,145.5
3771,C2,533.5,0.25,81,145.5
3772,C3,533.75,0.25,69,145.5
3773,G#1,534.0,0.25,81,145.5
3774,G#2,534.25,0.25,69,145.5
3775,E-2,534.5,0.25,81,145.5
3776,E-3,534.75,0.25,72,145.5
3777,C2,535.0,0.25,81,145.5
3778,C3,535.25,0.25,69,145.5
3779,G#2,535.5,0.25,81,145.5
3780,G#3,535.75,0.25,69,145.5
3781,G#1,536.0,0.25,81,145.5
3782,G#2,536.25,0.25,72,145.5
3783,E-2,536.5,0.25,81,145.5
3784,E-3,536.75,0.25,69,145.5
3785,C2,537.0,0.25,81,145.5
3786,C3,537.25,0.25,69,145.5
3787,G#2,537.5,0.25,81,145.5
3788,G#3,537.75,0.25,72,145.5
3789,E-2,538.0,0.25,81,145.5
3790,E-3,538.25,0.25,69,145.5
3791,C3,538.5,0.25,81,145.5
3792,C4,538.75,0.25,69,145.5
3793,G#2,539.0,0.25,83,145.5
3794,G#3,539.25,0.25,73,145.5
3795,E-3,539.5,0.25,81,145.5
3796,E-4,539.75,0.25,71,145.5
3797,C3,540.0,0.25,81,145.5
3798,C4,540.25,0.25,70,145.5
3799,G#2,540.5,0.25,80,145.5
3800,G#3,540.75,0.25,72,145.5
3801,E-2,541.0,0.25,82,145.5
3802,E-3,541.25,0.25,71,145.5
3803,C2,541.5,0.25,84,145.5
3804,C3,541.75,0.25,72,145.5
3805,E-2,542.0,0.25,82,145.5
3806,E-3,542.25,0.25,74,145.5
3807,C3,542.5,0.25,84,145.5
3808,C4,542.75,0.25,72,145.5
3809,G#2,543.0,0.25,87,145.5
3810,G#3,543.25,0.25,73,145.5
3811,E-2,543.5,0.25,90,145.5
3812,E-3,543.75,0.25,80,145.5
3813,C2,544.0,0.25,92,145.5
3814,C3,544.25,0.25,79,145.5
3815,G#1,544.5,0.25,94,145.5
3816,G#2,544.75,0.25,81,145.5
3817,G1,545.0,0.5,83,145.5
3818,G2,545.0,0.5,83,145.5
3819,D3,548.0,0.5,83,145.5
3820,B2,548.0,0.5,83,145.5
3821,G2,548.0,0.5,83,145.5
3822,G3,548.0,0.5,83,145.5
