,note_name,start_time,duration,velocity,tempo
0,C#2,0.0,0.5,26,48.67
1,E4,0.0,2.0,36,48.67
2,G#4,0.0,2.0,36,48.67
3,C#3,0.875,0.125,22,48.67
4,C#4,1.0,0.5,27,48.67
5,C#5,1.5,0.5,26,48.67
6,E4,2.0,0.75,32,48.67
7,G#4,2.0,0.75,32,48.67
8,F#4,2.75,0.25,31,48.67
9,E-4,2.75,0.25,31,48.67
10,C#2,3.0,0.5,26,48.67
11,E-4,3.0,2.0,38,48.67
12,F#4,3.0,2.0,38,48.67
13,C#3,3.875,0.125,22,48.67
14,C#4,4.0,0.5,27,48.67
15,C#5,4.5,0.5,26,48.67
16,F#4,5.0,1.0,34,48.67
17,E-4,5.0,1.0,34,48.67
18,C#2,6.0,0.5,26,48.67
19,A4,6.0,2.0,38,48.67
20,F#4,6.0,2.0,38,48.67
21,C#3,6.875,0.125,22,48.67
22,C#4,7.0,0.5,27,48.67
23,C#5,7.5,0.5,28,48.67
24,F#4,8.0,0.5,30,48.67
25,A4,8.0,0.5,30,48.67
26,G#4,8.5,0.25,28,48.67
27,E4,8.5,0.25,28,48.67
28,E-4,8.75,0.25,26,48.67
29,F#4,8.75,0.25,26,48.67
30,C#2,9.0,0.5,26,48.67
31,G#4,9.0,2.0,36,48.67
32,E4,9.0,2.0,36,48.67
33,C#3,9.875,0.125,22,48.67
34,C#4,10.0,0.5,27,48.67
35,C#5,10.5,0.5,28,48.67
36,E4,11.0,1.0,32,48.67
37,G#4,11.0,1.0,32,48.67
38,C#2,12.0,0.5,26,48.67
39,F4,12.0,2.0,38,48.67
40,B4,12.0,2.0,38,48.67
41,C#3,12.875,0.125,22,48.67
42,C#4,13.0,0.5,27,48.67
43,C#5,13.5,0.5,34,48.67
44,F4,14.0,0.25,28,48.67
45,B4,14.0,0.5,33,48.67
46,G#4,14.25,0.25,28,48.67
47,A4,14.5,0.25,28,48.67
48,F#4,14.5,0.25,28,48.67
49,G#4,14.75,0.25,26,48.67
50,F4,14.75,0.25,26,48.67
51,C#2,15.0,0.5,26,48.67
52,F#4,15.0,1.5,38,48.67
53,A4,15.0,1.5,38,48.67
54,C#3,15.875,0.125,22,48.67
55,C#4,16.0,0.5,27,48.67
56,C#5,16.5,19/40,28,48.67
57,F#4,16.5,19/40,28,48.67
58,A4,16.5,19/40,28,48.67
59,F#4,17.0,19/40,37,48.67
60,A4,17.0,19/40,37,48.67
61,A4,17.5,19/40,38,48.67
62,F#4,17.5,19/40,38,48.67
63,C#2,18.0,0.5,31,48.67
64,C#5,18.0,2.0,45,48.67
65,A4,18.0,2.0,45,48.67
66,C#3,18.875,0.125,25,48.67
67,C#4,19.0,0.5,30,48.67
68,C#5,19.5,0.5,38,48.67
69,A4,20.0,0.75,36,48.67
70,C#5,20.0,0.75,36,48.67
71,A4,20.75,0.25,26,48.67
72,F#4,20.75,0.25,26,48.67
73,C#2,21.0,0.5,26,48.67
74,E4,21.0,2.5,34,48.67
75,G#4,21.0,2.5,34,48.67
76,C#3,21.875,0.125,22,48.67
77,C#4,22.0,0.5,27,48.67
78,C#5,22.5,0.5,28,48.67
79,E4,23.5,0.5,38,48.67
80,G#4,23.5,0.5,38,48.67
81,E4,24.0,0.75,45,48.67
82,A4,24.0,0.75,45,48.67
83,C#5,24.0,0.75,45,48.67
84,G#1,24.0,0.5,31,48.67
85,G#2,24.0,0.5,31,48.67
86,C5,24.75,0.25,39,48.67
87,E-4,24.75,0.25,39,48.67
88,G#4,24.75,0.25,39,48.67
89,G#2,24.875,0.125,36,48.67
90,G#3,25.0,0.5,41,48.67
91,E-4,25.0,1.5,44,48.67
92,G#4,25.0,1.5,44,48.67
93,C5,25.0,1.5,44,48.67
94,G#5,25.5,0.5,43,48.67
95,C5,26.5,0.5,50,48.67
96,G#4,26.5,0.5,50,48.67
97,G4,27.0,0.75,54,48.67
98,C#5,27.0,0.75,54,48.67
99,E5,27.0,0.75,54,48.67
100,G#1,27.0,0.5,38,48.67
101,G#2,27.0,0.5,38,48.67
102,C5,27.75,0.25,48,48.67
103,G#4,27.75,0.25,48,48.67
104,E-5,27.75,0.25,48,48.67
105,G#2,27.875,0.125,43,48.67
106,G#3,28.0,0.5,50,48.67
107,G#4,28.0,1.5,53,48.67
108,E-5,28.0,1.5,53,48.67
109,C5,28.0,1.5,53,48.67
110,G#5,28.5,0.5,53,48.67
111,G#4,29.5,0.5,56,48.67
112,C5,29.5,0.5,56,48.67
113,E-5,29.5,0.5,56,48.67
114,G#5,30.0,0.75,62,48.67
115,G#4,30.0,0.75,62,48.67
116,E5,30.0,0.75,62,48.67
117,G#2,30.0,0.5,43,48.67
118,G#1,30.0,0.5,43,48.67
119,A4,30.75,0.25,55,48.67
120,E-5,30.75,0.25,55,48.67
121,F#5,30.75,0.25,55,48.67
122,G#2,30.875,0.125,49,48.67
123,G#3,31.0,0.5,57,48.67
124,F#5,31.0,1.5,62,48.67
125,E-5,31.0,1.5,62,48.67
126,A4,31.0,1.5,62,48.67
127,G#5,31.5,0.5,61,48.67
128,A4,32.5,0.5,64,48.67
129,F#5,32.5,0.5,64,48.67
130,E-5,32.5,0.5,64,48.67
131,C#5,33.0,0.75,72,48.67
132,E5,33.0,0.75,72,48.67
133,A5,33.0,0.75,72,48.67
134,G#2,33.0,0.5,50,48.67
135,G#1,33.0,0.5,50,48.67
136,G#5,33.75,0.25,61,48.67
137,E-5,33.75,0.25,61,48.67
138,C5,33.75,0.25,61,48.67
139,G#2,33.875,0.125,50,48.67
140,G#3,34.0,0.5,58,48.67
141,C5,34.0,2.0,69,48.67
142,E-5,34.0,2.0,69,48.67
143,G#5,34.0,2.0,69,48.67
144,G#4,34.5,0.5,56,48.67
145,G#1,36.0,0.5,36,48.67
146,G#2,36.0,0.5,36,48.67
147,G#2,36.875,0.125,34,48.67
148,G#3,37.0,0.5,39,48.67
149,G#4,37.5,0.5,35,48.67
150,C5,39.0,3.0,69,48.67
151,E-5,39.0,3.0,69,48.67
152,G#5,39.0,3.0,69,48.67
153,G#1,39.0,0.5,24,48.67
154,G#2,39.0,0.5,24,48.67
155,B2,39.875,0.125,22,48.67
156,B3,40.0,0.5,27,48.67
157,E5,42.0,2.5,36,48.67
158,G#5,42.0,2.5,36,48.67
159,B4,42.0,2.5,36,48.67
160,G#4,42.0,2.5,36,48.67
161,A2,42.0,0.5,24,48.67
162,A1,42.0,0.5,24,48.67
163,C#3,42.875,0.125,22,48.67
164,C#4,43.0,0.5,27,48.67
165,E6,43.5,0.5,35,48.67
166,E5,44.5,0.5,32,48.67
167,B4,44.5,0.5,32,48.67
168,E4,44.5,0.5,32,48.67
169,E-5,45.0,0.75,41,48.67
170,E4,45.0,1.0,34,48.67
171,A4,45.0,1.0,34,48.67
172,B2,45.0,0.5,24,48.67
173,B1,45.0,0.5,24,48.67
174,C#5,45.75,0.25,41,48.67
175,B2,45.875,0.125,22,48.67
176,B3,46.0,0.5,27,48.67
177,A4,46.0,1.5,36,48.67
178,E4,46.0,1.5,36,48.67
179,C#5,46.0,1.5,36,48.67
180,C#6,46.5,0.5,34,48.67
181,C#5,47.5,0.5,32,48.67
182,A4,47.5,0.5,32,48.67
183,E4,47.5,0.5,32,48.67
184,F#4,48.0,1.0,34,48.67
185,E2,48.0,0.5,26,48.67
186,E4,48.0,0.75,38,48.67
187,C#5,48.0,0.75,38,48.67
188,B4,48.75,0.25,40,48.67
189,E-4,48.75,0.25,40,48.67
190,B2,48.875,0.125,22,48.67
191,E3,49.0,0.5,27,48.67
192,E-4,49.0,1.5,36,48.67
193,F#4,49.0,1.5,36,48.67
194,B4,49.0,1.5,36,48.67
195,B5,49.5,0.5,30,48.67
196,A4,50.5,0.5,30,48.67
197,E4,50.5,0.5,30,48.67
198,C#4,50.5,0.5,30,48.67
199,E2,51.0,0.5,26,48.67
200,B3,51.0,1.0,30,48.67
201,E4,51.0,1.0,30,48.67
202,G#4,51.0,1.0,30,48.67
203,B2,51.875,0.125,22,48.67
204,B3,52.0,0.5,27,48.67
205,B3,52.0,2.0,27,48.67
206,G#3,52.0,2.0,27,48.67
207,E4,52.0,2.0,27,48.67
208,E5,52.5,0.5,27,48.67
209,E2,54.0,0.5,26,48.67
210,G#4,54.0,2.0,36,48.67
211,E4,54.0,2.0,36,48.67
212,B2,54.875,0.125,22,48.67
213,B3,55.0,0.5,27,48.67
214,B4,55.5,0.5,27,48.67
215,E4,56.0,0.75,32,48.67
216,G#4,56.0,0.75,32,48.67
217,E-4,56.75,0.25,31,48.67
218,F#4,56.75,0.25,31,48.67
219,E2,57.0,0.5,26,48.67
220,F#4,57.0,2.0,38,48.67
221,E-4,57.0,2.0,38,48.67
222,B2,57.875,0.125,22,48.67
223,B3,58.0,0.5,27,48.67
224,B4,58.5,0.5,27,48.67
225,E-4,59.0,1.0,34,48.67
226,F#4,59.0,1.0,34,48.67
227,E2,60.0,0.5,26,48.67
228,C#4,60.0,2.0,38,48.67
229,A4,60.0,2.0,38,48.67
230,B2,60.875,0.125,22,48.67
231,B3,61.0,0.5,27,48.67
232,B4,61.5,0.5,27,48.67
233,E-4,62.0,0.25,28,48.67
234,A4,62.0,0.5,33,48.67
235,F#4,62.25,0.25,24,48.67
236,G#4,62.5,0.25,28,48.67
237,E4,62.5,0.25,28,48.67
238,E-4,62.75,0.25,26,48.67
239,F#4,62.75,0.25,26,48.67
240,E2,63.0,0.5,31,48.67
241,G#4,63.0,2.0,36,48.67
242,E4,63.0,2.0,36,48.67
243,E3,63.875,0.125,30,48.67
244,E4,64.0,0.5,36,48.67
245,B4,64.5,0.5,26,48.67
246,E4,65.0,1.0,35,48.67
247,G#4,65.0,1.0,35,48.67
248,E2,66.0,0.5,31,48.67
249,D4,66.0,2.0,45,48.67
250,B4,66.0,2.0,45,48.67
251,G#4,66.0,2.0,45,48.67
252,E3,66.875,0.125,30,48.67
253,E4,67.0,0.5,36,48.67
254,E5,67.5,0.5,42,48.67
255,D4,68.0,0.75,35,48.67
256,G#4,68.0,0.75,35,48.67
257,B4,68.0,0.75,35,48.67
258,C#4,68.75,0.25,32,48.67
259,A4,68.75,0.25,32,48.67
260,E2,69.0,0.5,37,48.67
261,A4,69.0,1.5,46,48.67
262,C#4,69.0,1.5,46,48.67
263,E3,69.875,0.125,33,48.67
264,E4,70.0,0.5,40,48.67
265,C#4,70.5,0.5,35,48.67
266,A4,70.5,0.5,35,48.67
267,E5,70.5,0.5,35,48.67
268,A4,71.0,0.5,45,48.67
269,C#4,71.0,0.5,45,48.67
270,C#4,71.5,0.5,46,48.67
271,A4,71.5,0.5,46,48.67
272,E2,72.0,0.5,31,48.67
273,C#5,72.0,2.0,53,48.67
274,A4,72.0,2.0,53,48.67
275,E-4,72.0,2.0,53,48.67
276,E3,72.875,0.125,30,48.67
277,E4,73.0,0.5,36,48.67
278,E5,73.5,0.5,43,48.67
279,E-4,74.0,0.75,39,48.67
280,A4,74.0,0.75,39,48.67
281,C#5,74.0,0.75,39,48.67
282,G#4,74.75,119/500,30,48.67
283,E4,74.75,119/500,30,48.67
284,B4,74.75,119/500,30,48.67
285,G#4,75.0,2.5,44,48.67
286,B4,75.0,2.5,44,48.67
287,E4,75.0,2.5,44,48.67
288,B1,75.0,0.5,38,48.67
289,B2,75.0,0.5,38,48.67
290,B2,75.875,0.125,44,48.67
291,B3,76.0,0.5,50,48.67
292,E5,76.5,0.5,34,48.67
293,G#4,77.5,0.5,45,48.67
294,E4,77.5,0.5,45,48.67
295,B4,77.5,0.5,45,48.67
296,E5,78.0,0.75,55,48.67
297,G#4,78.0,0.75,55,48.67
298,B4,78.0,0.75,55,48.67
299,B1,78.0,0.5,45,48.67
300,B2,78.0,0.5,45,48.67
301,F#4,78.75,0.25,49,48.67
302,B4,78.75,0.25,49,48.67
303,E-5,78.75,0.25,49,48.67
304,B2,78.875,0.125,51,48.67
305,B3,79.0,0.5,59,48.67
306,E-5,79.0,1.5,54,48.67
307,B4,79.0,1.5,54,48.67
308,F#4,79.0,1.5,54,48.67
309,B5,79.5,0.5,53,48.67
310,F#4,80.5,0.5,58,48.67
311,E-5,80.5,0.5,58,48.67
312,B4,80.5,0.5,58,48.67
313,B4,81.0,1.0,60,48.67
314,E5,81.0,0.75,66,48.67
315,G#5,81.0,0.75,66,48.67
316,B1,81.0,0.5,50,48.67
317,B2,81.0,0.5,50,48.67
318,F#5,81.75,119/500,58,48.67
319,E-5,81.75,119/500,58,48.67
320,B2,81.875,0.125,52,48.67
321,B3,82.0,0.5,60,48.67
322,E-5,82.0,1.5,64,48.67
323,B4,82.0,1.5,64,48.67
324,F#5,82.0,1.5,64,48.67
325,B5,82.5,0.5,62,48.67
326,G#5,83.5,0.5,65,48.67
327,B4,83.5,0.5,65,48.67
328,E5,83.5,0.5,65,48.67
329,B1,84.0,0.5,36,48.67
330,E5,84.0,0.75,72,48.67
331,G#5,84.0,0.75,72,48.67
332,C#6,84.0,0.75,72,48.67
333,B5,84.75,119/500,63,48.67
334,F#5,84.75,119/500,63,48.67
335,E-5,84.75,119/500,63,48.67
336,B2,84.875,0.125,39,48.67
337,B5,85.0,2.0,79,48.67
338,B3,85.0,0.5,44,48.67
339,E-5,85.0,2.0,67,48.67
340,F#5,85.0,2.0,67,48.67
341,B4,85.5,0.5,59,48.67
342,B5,87.0,2.5,79,48.67
343,C#2,87.0,0.5,26,48.67
344,E-5,87.0,3.0,67,48.67
345,F#5,87.0,3.0,67,48.67
346,C#3,87.875,0.125,25,48.67
347,C#4,88.0,0.5,30,48.67
348,B4,88.5,0.5,37,48.67
349,A5,89.5,0.5,41,48.67
350,G#4,90.0,2.5,36,48.67
351,G#5,90.0,2.5,36,48.67
352,E5,90.0,2.5,36,48.67
353,F#2,90.0,0.5,20,48.67
354,F#1,90.0,0.5,20,48.67
355,F#2,90.875,0.125,25,48.67
356,F#3,91.0,0.5,30,48.67
357,C#5,91.5,0.5,32,48.67
358,E4,92.5,0.5,32,48.67
359,G#4,92.5,0.5,32,48.67
360,E5,92.5,0.5,32,48.67
361,E-5,93.0,0.75,41,48.67
362,F#4,93.0,1.0,34,48.67
363,A4,93.0,1.0,34,48.67
364,G#1,93.0,0.5,24,48.67
365,G#2,93.0,0.5,24,48.67
366,C#5,93.75,0.25,41,48.67
367,G#2,93.875,0.125,22,48.67
368,G#3,94.0,0.5,27,48.67
369,F#4,94.0,1.5,36,48.67
370,C#5,94.0,1.5,36,48.67
371,A4,94.0,1.5,36,48.67
372,A5,94.5,0.5,30,48.67
373,E-4,95.5,0.5,32,48.67
374,A4,95.5,0.5,32,48.67
375,C#5,95.5,0.5,32,48.67
376,C#5,96.0,1.0,41,48.67
377,E4,96.0,2.0,34,48.67
378,G#4,96.0,2.5,34,48.67
379,C#2,96.0,0.5,26,48.67
380,C#2,96.875,0.125,22,48.67
381,B4,97.0,1.5,41,48.67
382,C#3,97.0,0.5,27,48.67
383,G#5,97.5,0.5,32,48.67
384,C4,98.0,1.0,27,48.67
385,F#4,98.5,0.5,31,48.67
386,A4,98.5,0.5,31,48.67
387,C#4,99.0,1.0,30,48.67
388,E4,99.0,1.0,30,48.67
389,G#4,99.0,1.0,30,48.67
390,A1,99.0,0.5,26,48.67
391,A2,99.0,0.5,26,48.67
392,E4,100.0,1.5,27,48.67
393,G#3,100.0,1.5,27,48.67
394,C#4,100.0,1.5,27,48.67
395,C#5,100.5,0.5,27,48.67
396,G#3,101.5,0.5,27,48.67
397,E4,101.5,0.5,27,48.67
398,C#4,101.5,0.5,27,48.67
399,E4,102.0,0.75,34,48.67
400,C#4,102.0,1.0,28,48.67
401,G3,102.0,1.0,28,48.67
402,A1,102.0,0.5,26,48.67
403,A2,102.0,0.5,26,48.67
404,E-4,102.75,0.25,34,48.67
405,A4,103.0,0.5,29,48.67
406,C#4,103.0,1.5,27,48.67
407,E-4,103.0,1.5,27,48.67
408,G3,103.0,1.5,27,48.67
409,A5,103.5,0.5,27,48.67
410,E-4,104.5,0.5,30,48.67
411,C#4,104.5,0.5,30,48.67
412,G3,104.5,0.5,30,48.67
413,E4,105.0,0.75,37,48.67
414,F#3,105.0,1.0,31,48.67
415,C#4,105.0,1.0,31,48.67
416,G#2,105.0,0.5,26,48.67
417,G#1,105.0,0.5,26,48.67
418,E-4,105.75,0.25,34,48.67
419,A4,106.0,0.5,29,48.67
420,F#3,106.0,1.5,27,48.67
421,E-4,106.0,1.5,27,48.67
422,C#4,106.0,1.5,27,48.67
423,A5,106.5,0.5,27,48.67
424,E-4,107.5,0.5,27,48.67
425,C#4,107.5,0.5,27,48.67
426,F#3,107.5,0.5,27,48.67
427,C#2,108.0,0.5,26,48.67
428,F#3,108.0,1.5,30,48.67
429,C4,108.0,1.5,30,48.67
430,E-4,108.0,1.5,30,48.67
431,G#4,109.0,0.5,29,48.67
432,C#3,109.0,0.5,27,48.67
433,E4,109.5,0.25,29,48.67
434,G#5,109.5,0.5,29,48.67
435,F#4,109.75,0.25,29,48.67
436,G#4,110.0,0.5,29,48.67
437,E-4,110.5,0.5,27,48.67
438,C4,110.5,0.5,27,48.67
439,A3,110.5,0.5,27,48.67
440,A1,111.0,0.5,23,48.67
441,G#3,111.0,2.5,30,48.67
442,C#4,111.0,2.5,30,48.67
443,E4,111.0,2.5,30,48.67
444,A2,112.0,0.5,26,48.67
445,C#5,112.5,0.5,28,48.67
446,G#3,113.5,0.5,27,48.67
447,C#4,113.5,0.5,27,48.67
448,E4,113.5,0.5,27,48.67
449,E4,114.0,0.75,30,48.67
450,A1,114.0,0.5,23,48.67
451,C#4,114.0,1.0,25,48.67
452,G3,114.0,1.0,25,48.67
453,E-4,114.75,0.25,30,48.67
454,A2,115.0,0.5,26,48.67
455,G3,115.0,1.5,24,48.67
456,C#4,115.0,1.5,24,48.67
457,E-4,115.0,1.5,24,48.67
458,A4,115.5,0.5,26,48.67
459,G3,116.5,0.5,26,48.67
460,C#4,116.5,0.5,26,48.67
461,E-4,116.5,0.5,26,48.67
462,E4,117.0,0.75,33,48.67
463,G#1,117.0,0.5,19,48.67
464,C#4,117.0,1.0,27,48.67
465,F#3,117.0,1.0,27,48.67
466,E-4,117.75,0.25,30,48.67
467,G#2,118.0,0.5,21,48.67
468,F#3,118.0,1.5,24,48.67
469,C#4,118.0,1.5,24,48.67
470,E-4,118.0,1.5,24,48.67
471,A4,118.5,0.5,26,48.67
472,G#3,118.5,0.5,21,48.67
473,F#3,119.5,0.5,24,48.67
474,C#4,119.5,0.5,24,48.67
475,E-4,119.5,0.5,24,48.67
476,C#2,120.0,0.5,23,48.67
477,E-4,120.0,1.5,22,48.67
478,C4,120.0,1.5,22,48.67
479,F#3,120.0,1.5,22,48.67
480,C#4,120.0,3.0,24,48.67
481,E3,120.0,3.0,24,48.67
482,G#3,120.0,3.0,24,48.67
483,C#3,121.0,0.5,24,48.67
484,E4,121.5,0.25,21,48.67
485,F#4,121.75,0.25,21,48.67
486,G#4,122.0,0.5,21,48.67
487,C4,122.5,0.5,19,48.67
488,F#3,122.5,0.5,19,48.67
489,A3,122.5,0.5,19,48.67
490,C#5,124.5,0.5,26,48.67
491,C#2,126.0,0.5,23,48.67
492,C#4,126.0,3.0,24,48.67
493,E3,126.0,3.0,24,48.67
494,G#3,126.0,3.0,24,48.67
495,C#3,127.0,0.5,24,48.67
496,C#5,127.5,0.5,26,48.67
497,G#1,128.529,471/1000,37,48.67
498,A1,129.0,0.25,34,48.67
499,G#1,129.0,29/1000,37,48.67
500,C#3,129.0,1.0,40,48.67
501,E3,129.0,1.0,40,48.67
502,A3,129.0,1.0,40,48.67
503,A2,129.25,0.125,28,48.67
504,A2,129.5,0.125,28,48.67
505,A2,129.75,0.125,28,48.67
506,A1,130.0,0.25,33,48.67
507,C#3,130.0,1.0,42,48.67
508,A3,130.0,1.0,42,48.67
509,A2,130.25,0.125,28,48.67
510,A2,130.5,0.125,28,48.67
511,A2,130.75,0.125,28,48.67
512,A1,131.0,0.25,32,48.67
513,D3,131.0,1.0,40,48.67
514,A3,131.0,1.0,40,48.67
515,B3,131.0,1.0,40,48.67
516,A2,131.25,0.125,28,48.67
517,A2,131.5,0.125,28,48.67
518,A2,131.75,0.125,28,48.67
519,A1,132.0,0.25,34,48.67
520,E3,132.0,0.75,41,48.67
521,C#4,132.0,0.75,41,48.67
522,A3,132.0,0.75,41,48.67
523,A2,132.25,0.125,29,48.67
524,A2,132.5,0.125,29,48.67
525,A2,132.75,0.125,29,48.67
526,D3,132.75,271/1000,38,48.67
527,A3,132.75,271/1000,38,48.67
528,B3,132.75,271/1000,38,48.67
529,A2,133.0,0.125,29,48.67
530,C#3,133.0,1.5,39,48.67
531,A3,133.0,1.5,39,48.67
532,A2,133.25,0.125,29,48.67
533,A2,133.5,0.125,29,48.67
534,A2,133.75,0.125,29,48.67
535,A1,134.0,0.25,34,48.67
536,A2,134.25,0.125,26,48.67
537,A2,134.5,0.125,29,48.67
538,E3,134.5,0.5,41,48.67
539,A3,134.5,0.5,41,48.67
540,C#4,134.5,0.5,41,48.67
541,A2,134.75,0.125,31,48.67
542,A1,135.0,0.25,34,48.67
543,F#3,135.0,771/1000,43,48.67
544,A3,135.0,771/1000,43,48.67
545,D4,135.0,771/1000,43,48.67
546,A2,135.25,0.125,31,48.67
547,A2,135.5,0.125,31,48.67
548,A2,135.75,0.125,31,48.67
549,E3,135.75,271/1000,40,48.67
550,A3,135.75,271/1000,40,48.67
551,C#4,135.75,271/1000,40,48.67
552,A2,136.0,0.125,31,48.67
553,D3,136.0,0.5,42,48.67
554,A3,136.0,0.5,42,48.67
555,B3,136.0,0.5,42,48.67
556,A2,136.25,0.125,30,48.67
557,A1,136.5,0.25,31,48.67
558,F#3,136.5,0.5,40,48.67
559,A3,136.5,0.5,40,48.67
560,D4,136.5,0.5,40,48.67
561,A2,136.75,0.25,31,48.67
562,A1,137.0,0.25,31,48.67
563,E3,137.0,0.5,40,48.67
564,A3,137.0,0.5,40,48.67
565,C#4,137.0,0.5,40,48.67
566,A2,137.25,0.25,31,48.67
567,C#2,137.5,0.25,31,48.67
568,C#3,137.5,0.5,40,48.67
569,E3,137.5,0.5,40,48.67
570,A3,137.5,0.5,40,48.67
571,C#3,137.75,0.25,31,48.67
572,E2,138.0,0.25,34,48.67
573,B2,138.0,1.5,42,48.67
574,E3,138.0,1.5,42,48.67
575,G#3,138.0,1.5,42,48.67
576,E2,138.25,0.25,33,48.67
577,E2,138.5,0.25,36,48.67
578,E2,138.75,0.25,39,48.67
579,E2,139.0,0.125,37,48.67
580,E2,139.25,0.125,35,48.67
581,D2,139.5,0.125,33,48.67
582,B2,139.5,0.5,41,48.67
583,F#3,139.5,0.5,41,48.67
584,G#3,139.5,0.5,41,48.67
585,D2,139.75,0.125,31,48.67
586,C#2,140.0,0.125,30,48.67
587,C#3,140.0,0.5,44,48.67
588,E3,140.0,0.5,44,48.67
589,G#3,140.0,0.5,44,48.67
590,C#2,140.25,0.125,30,48.67
591,B1,140.5,0.125,29,48.67
592,D3,140.5,0.5,44,48.67
593,E3,140.5,0.5,44,48.67
594,G#3,140.5,0.5,44,48.67
595,B1,140.75,0.125,29,48.67
596,A1,141.0,0.25,34,48.67
597,C#3,141.0,1.0,40,48.67
598,E3,141.0,1.0,40,48.67
599,A3,141.0,1.0,40,48.67
600,A2,141.25,0.125,28,48.67
601,A2,141.5,0.125,28,48.67
602,A2,141.75,0.125,28,48.67
603,A1,142.0,0.25,33,48.67
604,C#3,142.0,1.0,42,48.67
605,A3,142.0,1.0,42,48.67
606,A2,142.25,0.125,28,48.67
607,A2,142.5,0.125,28,48.67
608,A2,142.75,0.125,28,48.67
609,A1,143.0,0.25,32,48.67
610,D3,143.0,1.0,40,48.67
611,A3,143.0,1.0,40,48.67
612,B3,143.0,1.0,40,48.67
613,A2,143.25,0.125,28,48.67
614,A2,143.5,0.125,28,48.67
615,A2,143.75,0.125,28,48.67
616,A1,144.0,0.25,34,48.67
617,E3,144.0,0.75,41,48.67
618,C#4,144.0,0.75,41,48.67
619,A3,144.0,0.75,41,48.67
620,A2,144.25,0.125,29,48.67
621,A2,144.5,0.125,29,48.67
622,A2,144.75,0.125,29,48.67
623,D3,144.75,271/1000,38,48.67
624,A3,144.75,271/1000,38,48.67
625,B3,144.75,271/1000,38,48.67
626,A2,145.0,0.125,29,48.67
627,C#3,145.0,1.5,34,48.67
628,A3,145.0,1.5,34,48.67
629,A2,145.25,0.125,29,48.67
630,A1,145.5,0.125,29,48.67
631,A2,145.75,0.125,30,48.67
632,G1,146.0,0.25,42,48.67
633,G2,146.25,0.25,36,48.67
634,E1,146.5,0.188,39,48.67
635,F#3,146.5,0.5,43,48.67
636,E3,146.5,0.5,43,48.67
637,B-3,146.5,0.5,43,48.67
638,C#4,146.5,0.5,43,48.67
639,F#2,146.75,0.188,43,48.67
640,B1,147.0,0.25,47,48.67
641,D3,147.0,771/1000,47,48.67
642,F#3,147.0,771/1000,47,48.67
643,B3,147.0,771/1000,47,48.67
644,D4,147.0,771/1000,47,48.67
645,B2,147.25,0.25,36,48.67
646,B2,147.5,0.25,34,48.67
647,C#3,147.75,0.25,32,48.67
648,F#3,147.75,271/1000,40,48.67
649,E3,147.75,271/1000,40,48.67
650,B-3,147.75,271/1000,40,48.67
651,C#4,147.75,271/1000,40,48.67
652,D3,148.0,0.25,31,48.67
653,D3,148.0,0.5,42,48.67
654,A3,148.0,0.5,42,48.67
655,B3,148.0,0.5,42,48.67
656,B2,148.25,0.25,30,48.67
657,F#3,148.5,0.25,41,48.67
658,B1,148.5,0.25,34,48.67
659,D3,148.5,0.5,45,48.67
660,D4,148.5,0.5,45,48.67
661,G#3,148.75,0.25,40,48.67
662,B2,148.75,0.25,33,48.67
663,C#2,149.0,0.25,32,48.67
664,E3,149.0,0.5,41,48.67
665,A3,149.0,0.5,41,48.67
666,C#4,149.0,0.5,41,48.67
667,C#3,149.25,0.25,31,48.67
668,E2,149.5,0.25,31,48.67
669,D3,149.5,0.5,40,48.67
670,E3,149.5,0.5,40,48.67
671,G#3,149.5,0.5,40,48.67
672,B3,149.5,0.5,40,48.67
673,E3,149.75,0.25,31,48.67
674,E3,150.0,1.5,39,48.67
675,D3,150.0,1.0,42,48.67
676,G#3,150.0,1.0,42,48.67
677,B3,150.0,1.0,42,48.67
678,E2,150.25,0.25,29,48.67
679,G#2,150.5,0.25,31,48.67
680,E2,150.75,0.25,33,48.67
681,A2,151.0,0.188,35,48.67
682,C#3,151.0,1.0,43,48.67
683,A3,151.0,1.0,43,48.67
684,C#2,151.25,0.125,32,48.67
685,D2,151.5,0.125,32,48.67
686,E2,151.75,0.125,32,48.67
687,F#2,152.0,0.125,32,48.67
688,E2,152.25,0.125,32,48.67
689,F#2,152.5,0.125,31,48.67
690,G#2,152.75,0.125,31,48.67
691,A4,153.0,1.0,62,48.67
692,A2,153.0,0.25,36,48.67
693,E4,153.167,167/1000,31,48.67
694,C#4,153.333,167/1000,31,48.67
695,E4,153.5,167/1000,31,48.67
696,C#3,153.5,0.25,25,48.67
697,E3,153.5,0.25,25,48.67
698,C#4,153.667,167/1000,31,48.67
699,A3,153.833,167/1000,31,48.67
700,A4,154.0,1.0,63,48.67
701,A2,154.0,0.25,36,48.67
702,E4,154.167,167/1000,31,48.67
703,C#4,154.333,167/1000,31,48.67
704,E4,154.5,167/1000,31,48.67
705,C#3,154.5,0.25,26,48.67
706,E3,154.5,0.25,26,48.67
707,C#4,154.667,167/1000,31,48.67
708,A3,154.833,167/1000,31,48.67
709,B4,155.0,1.0,62,48.67
710,A2,155.0,0.25,36,48.67
711,G#4,155.167,167/1000,31,48.67
712,E4,155.333,167/1000,32,48.67
713,G#4,155.5,167/1000,32,48.67
714,D3,155.5,0.25,27,48.67
715,E3,155.5,0.25,27,48.67
716,E4,155.667,167/1000,32,48.67
717,B3,155.833,167/1000,32,48.67
718,C#5,156.0,0.875,63,48.67
719,A2,156.0,0.25,36,48.67
720,A4,156.167,167/1000,32,48.67
721,E4,156.333,167/1000,32,48.67
722,A4,156.5,167/1000,32,48.67
723,E3,156.5,0.25,30,48.67
724,E4,156.667,167/1000,32,48.67
725,D4,156.833,0.125,46,48.67
726,B4,156.833,0.125,46,48.67
727,A4,157.0,1.5,59,48.67
728,A2,157.0,0.25,36,48.67
729,E4,157.167,167/1000,31,48.67
730,C#4,157.333,167/1000,31,48.67
731,E4,157.5,167/1000,31,48.67
732,E3,157.5,0.25,27,48.67
733,C#3,157.5,0.25,27,48.67
734,C#4,157.667,167/1000,31,48.67
735,A3,157.833,167/1000,31,48.67
736,A2,158.0,0.25,36,48.67
737,C#4,158.167,167/1000,32,48.67
738,E4,158.333,167/1000,32,48.67
739,C#4,158.5,167/1000,32,48.67
740,C#5,158.5,0.5,63,48.67
741,E3,158.5,0.25,29,48.67
742,A3,158.5,0.25,29,48.67
743,E4,158.667,167/1000,32,48.67
744,A4,158.833,167/1000,32,48.67
745,D5,159.0,0.875,67,48.67
746,A2,159.0,0.25,36,48.67
747,A4,159.167,167/1000,34,48.67
748,F#4,159.333,167/1000,34,48.67
749,A4,159.5,167/1000,34,48.67
750,A3,159.5,0.25,26,48.67
751,F#3,159.5,0.25,26,48.67
752,F#4,159.667,167/1000,34,48.67
753,E4,159.833,0.125,47,48.67
754,C#5,159.833,0.125,47,48.67
755,B4,160.0,0.5,66,48.67
756,A2,160.0,0.25,36,48.67
757,D4,160.167,167/1000,32,48.67
758,A4,160.333,167/1000,32,48.67
759,D5,160.5,0.5,62,48.67
760,F#3,160.5,0.5,30,48.67
761,A3,160.5,0.5,30,48.67
762,F#4,160.667,167/1000,30,48.67
763,A4,160.833,167/1000,30,48.67
764,C#5,161.0,0.5,62,48.67
765,E3,161.0,0.5,30,48.67
766,A3,161.0,0.5,30,48.67
767,A4,161.167,167/1000,32,48.67
768,E4,161.333,167/1000,32,48.67
769,A4,161.5,0.5,62,48.67
770,C#3,161.5,0.5,30,48.67
771,A3,161.5,0.5,30,48.67
772,E4,161.667,167/1000,32,48.67
773,C#4,161.833,167/1000,32,48.67
774,G#4,162.0,1.5,66,48.67
775,E2,162.0,0.25,36,48.67
776,E4,162.167,167/1000,31,48.67
777,B3,162.333,167/1000,31,48.67
778,E4,162.5,167/1000,31,48.67
779,E3,162.5,0.25,33,48.67
780,B3,162.667,167/1000,31,48.67
781,G#3,162.833,167/1000,31,48.67
782,E4,163.0,167/1000,31,48.67
783,E2,163.0,0.25,33,48.67
784,B3,163.167,167/1000,31,48.67
785,G#3,163.333,167/1000,31,48.67
786,G#4,163.5,0.5,63,48.67
787,D3,163.5,0.375,30,48.67
788,E3,163.5,0.375,30,48.67
789,F#4,163.667,167/1000,32,48.67
790,B3,163.833,167/1000,32,48.67
791,G#4,164.0,0.5,68,48.67
792,C#3,164.0,0.375,33,48.67
793,E3,164.0,0.375,33,48.67
794,E4,164.167,167/1000,34,48.67
795,C#4,164.333,167/1000,34,48.67
796,G#4,164.5,0.5,68,48.67
797,B2,164.5,0.375,30,48.67
798,E3,164.5,0.375,30,48.67
799,E4,164.667,167/1000,32,48.67
800,D4,164.833,167/1000,32,48.67
801,A4,165.0,1.0,62,48.67
802,A2,165.0,0.25,36,48.67
803,E4,165.167,167/1000,31,48.67
804,C#4,165.333,167/1000,31,48.67
805,E4,165.5,167/1000,31,48.67
806,C#3,165.5,0.25,25,48.67
807,E3,165.5,0.25,25,48.67
808,C#4,165.667,167/1000,31,48.67
809,A3,165.833,167/1000,31,48.67
810,A4,166.0,1.0,63,48.67
811,A2,166.0,0.25,36,48.67
812,E4,166.167,167/1000,31,48.67
813,C#4,166.333,167/1000,31,48.67
814,E4,166.5,167/1000,31,48.67
815,C#3,166.5,0.25,26,48.67
816,E3,166.5,0.25,26,48.67
817,C#4,166.667,167/1000,31,48.67
818,A3,166.833,167/1000,31,48.67
819,B4,167.0,1.0,62,48.67
820,A2,167.0,0.25,36,48.67
821,G#4,167.167,167/1000,31,48.67
822,E4,167.333,167/1000,32,48.67
823,G#4,167.5,167/1000,32,48.67
824,D3,167.5,0.25,27,48.67
825,E3,167.5,0.25,27,48.67
826,E4,167.667,167/1000,32,48.67
827,B3,167.833,167/1000,32,48.67
828,C#5,168.0,0.875,63,48.67
829,A2,168.0,0.25,36,48.67
830,A4,168.167,167/1000,32,48.67
831,E4,168.333,167/1000,32,48.67
832,A4,168.5,167/1000,32,48.67
833,E3,168.5,0.25,30,48.67
834,E4,168.667,167/1000,32,48.67
835,D4,168.833,0.125,46,48.67
836,B4,168.833,0.125,46,48.67
837,A4,169.0,1.5,59,48.67
838,A2,169.0,0.25,36,48.67
839,E4,169.167,167/1000,31,48.67
840,C#4,169.333,167/1000,31,48.67
841,E4,169.5,167/1000,31,48.67
842,A2,169.5,0.25,27,48.67
843,E3,169.5,0.25,27,48.67
844,C#3,169.5,0.25,27,48.67
845,C#4,169.667,167/1000,31,48.67
846,A3,169.833,167/1000,31,48.67
847,G2,170.0,0.25,28,48.67
848,C#3,170.0,0.25,28,48.67
849,E3,170.0,0.25,28,48.67
850,C#4,170.167,167/1000,32,48.67
851,E4,170.333,167/1000,32,48.67
852,B-4,170.5,167/1000,32,48.67
853,C#5,170.5,0.5,63,48.67
854,F#2,170.5,0.25,32,48.67
855,C#3,170.5,0.25,32,48.67
856,F#3,170.5,0.25,32,48.67
857,F#4,170.667,167/1000,32,48.67
858,E4,170.833,167/1000,32,48.67
859,D5,171.0,0.875,67,48.67
860,B2,171.0,0.25,40,48.67
861,B4,171.167,167/1000,34,48.67
862,F#4,171.333,167/1000,34,48.67
863,B4,171.5,167/1000,34,48.67
864,F#3,171.5,0.375,28,48.67
865,F#4,171.667,167/1000,34,48.67
866,E4,171.833,0.125,47,48.67
867,C#5,171.833,0.125,47,48.67
868,B-3,171.875,0.125,28,48.67
869,B4,172.0,0.5,66,48.67
870,B3,172.0,0.5,36,48.67
871,D4,172.167,167/1000,32,48.67
872,F#4,172.333,167/1000,32,48.67
873,D5,172.5,0.5,62,48.67
874,B2,172.5,0.5,27,48.67
875,F#3,172.5,0.375,32,48.67
876,F#4,172.667,167/1000,30,48.67
877,G#4,172.833,167/1000,30,48.67
878,G#3,172.875,0.125,32,48.67
879,C#5,173.0,0.5,62,48.67
880,C#3,173.0,0.5,30,48.67
881,A3,173.0,0.5,30,48.67
882,A4,173.167,167/1000,32,48.67
883,E4,173.333,167/1000,32,48.67
884,B4,173.5,0.5,62,48.67
885,E3,173.5,0.5,30,48.67
886,G#3,173.5,0.5,30,48.67
887,E4,173.667,167/1000,32,48.67
888,D4,173.875,0.125,32,48.67
889,B4,174.0,1.0,66,48.67
890,D4,174.0,21/500,32,48.67
891,A2,174.0,0.25,36,48.67
892,G#4,174.167,167/1000,31,48.67
893,E4,174.333,167/1000,31,48.67
894,G#4,174.5,167/1000,31,48.67
895,E3,174.5,0.25,33,48.67
896,G#3,174.5,0.25,33,48.67
897,E4,174.667,167/1000,31,48.67
898,D4,174.833,167/1000,31,48.67
899,A4,175.0,0.5,48,48.67
900,C#4,175.0,0.5,48,48.67
901,E3,175.0,0.188,31,48.67
902,A3,175.0,0.188,31,48.67
903,A2,175.0,0.188,31,48.67
904,A2,175.25,0.125,38,48.67
905,B2,175.5,0.125,37,48.67
906,C#3,175.75,0.125,35,48.67
907,B2,176.0,0.125,34,48.67
908,A2,176.25,0.125,32,48.67
909,G#2,176.5,0.125,31,48.67
910,F#2,176.75,0.125,31,48.67
911,E2,177.0,0.25,34,48.67
912,G#3,177.0,1.0,42,48.67
913,B3,177.0,1.0,42,48.67
914,E3,177.25,0.125,28,48.67
915,E3,177.5,0.125,28,48.67
916,E3,177.75,0.125,28,48.67
917,E2,178.0,0.25,33,48.67
918,G#3,178.0,1.0,42,48.67
919,B3,178.0,1.0,42,48.67
920,E3,178.25,0.125,28,48.67
921,E3,178.5,0.125,28,48.67
922,E3,178.75,0.125,28,48.67
923,C#2,179.0,0.25,32,48.67
924,E3,179.0,1.0,40,48.67
925,B-3,179.0,1.0,40,48.67
926,C#4,179.0,1.0,40,48.67
927,C#3,179.25,0.125,28,48.67
928,C#3,179.5,0.125,28,48.67
929,C#3,179.75,0.125,28,48.67
930,F#3,180.0,2.0,38,48.67
931,B1,180.0,0.25,34,48.67
932,D4,180.0,771/1000,42,48.67
933,B3,180.0,771/1000,42,48.67
934,B2,180.25,0.125,29,48.67
935,B2,180.5,0.125,29,48.67
936,B2,180.75,0.125,29,48.67
937,C#4,180.75,271/1000,39,48.67
938,E4,180.75,271/1000,39,48.67
939,B1,181.0,0.188,29,48.67
940,D4,181.0,1.5,39,48.67
941,F#4,181.0,1.5,39,48.67
942,B2,181.25,0.125,29,48.67
943,B2,181.5,0.125,29,48.67
944,B2,181.75,0.125,29,48.67
945,F#3,182.0,0.5,38,48.67
946,B1,182.0,0.25,34,48.67
947,B2,182.25,0.25,32,48.67
948,B1,182.5,0.188,35,48.67
949,G#3,182.5,0.5,48,48.67
950,D4,182.5,0.5,48,48.67
951,F#4,182.5,0.5,48,48.67
952,B2,182.75,0.188,39,48.67
953,A1,183.0,0.25,42,48.67
954,A3,183.0,0.75,52,48.67
955,D4,183.0,0.75,52,48.67
956,F#4,183.0,0.75,52,48.67
957,A2,183.25,0.25,38,48.67
958,A2,183.5,0.25,40,48.67
959,G2,183.75,0.25,41,48.67
960,B3,183.75,0.25,51,48.67
961,D4,183.75,0.25,51,48.67
962,G4,183.75,0.25,51,48.67
963,F#1,184.0,0.25,43,48.67
964,A3,184.0,0.5,53,48.67
965,D4,184.0,0.5,53,48.67
966,A4,184.0,0.5,53,48.67
967,F#2,184.25,0.25,37,48.67
968,G1,184.5,0.25,39,48.67
969,B3,184.5,0.5,51,48.67
970,D4,184.5,0.5,51,48.67
971,G4,184.5,0.5,51,48.67
972,G2,184.75,0.25,37,48.67
973,A1,185.0,0.25,37,48.67
974,A3,185.0,0.5,49,48.67
975,D4,185.0,0.5,49,48.67
976,F#4,185.0,0.5,49,48.67
977,A2,185.25,0.25,36,48.67
978,A1,185.5,0.25,35,48.67
979,G3,185.5,0.5,46,48.67
980,A3,185.5,0.5,46,48.67
981,C#4,185.5,0.5,46,48.67
982,E4,185.5,0.5,46,48.67
983,A2,185.75,0.25,34,48.67
984,A1,186.0,0.25,31,48.67
985,G3,186.0,1.0,41,48.67
986,A3,186.0,1.0,41,48.67
987,C#4,186.0,1.0,41,48.67
988,E4,186.0,1.0,41,48.67
989,A2,186.25,0.25,29,48.67
990,C#3,186.5,0.25,31,48.67
991,A2,186.75,0.25,33,48.67
992,D2,187.0,0.188,35,48.67
993,F#3,187.0,2.0,42,48.67
994,A3,187.0,2.0,42,48.67
995,D4,187.0,2.0,42,48.67
996,D3,187.25,0.125,29,48.67
997,D3,187.5,0.125,28,48.67
998,D3,187.75,0.125,28,48.67
999,D3,188.0,0.125,27,48.67
1000,D3,188.25,0.125,26,48.67
1001,D3,188.5,0.125,25,48.67
1002,D3,188.75,0.188,24,48.67
1003,D2,189.0,0.25,25,48.67
1004,F3,189.0,1.0,31,48.67
1005,B-3,189.0,1.0,31,48.67
1006,D3,189.25,0.125,21,48.67
1007,D3,189.5,0.125,21,48.67
1008,D3,189.75,0.125,21,48.67
1009,D2,190.0,0.25,24,48.67
1010,F3,190.0,1.0,31,48.67
1011,B-3,190.0,1.0,31,48.67
1012,D3,190.25,0.125,21,48.67
1013,D3,190.5,0.125,21,48.67
1014,D3,190.75,0.125,21,48.67
1015,D2,191.0,0.25,23,48.67
1016,F3,191.0,1.0,31,48.67
1017,B-3,191.0,1.0,31,48.67
1018,D3,191.25,0.125,21,48.67
1019,D3,191.5,0.125,21,48.67
1020,D3,191.75,0.125,21,48.67
1021,E-2,192.0,0.25,25,48.67
1022,B-3,192.0,0.75,31,48.67
1023,G3,192.0,0.75,31,48.67
1024,E-3,192.25,0.125,22,48.67
1025,E-3,192.5,0.125,22,48.67
1026,A3,192.75,83/1000,27,48.67
1027,E-3,192.75,0.125,22,48.67
1028,B-3,192.812,83/1000,27,48.67
1029,C4,192.875,83/1000,27,48.67
1030,B-3,192.938,83/1000,27,48.67
1031,G3,193.0,0.5,31,48.67
1032,E-2,193.0,0.188,22,48.67
1033,E-3,193.25,0.188,22,48.67
1034,C2,193.5,0.188,22,48.67
1035,G3,193.5,0.5,30,48.67
1036,E-4,193.5,0.5,30,48.67
1037,G4,193.5,0.5,30,48.67
1038,C3,193.75,0.188,22,48.67
1039,D2,194.0,0.25,25,48.67
1040,G3,194.0,0.5,30,48.67
1041,B3,194.0,0.5,30,48.67
1042,F4,194.0,0.5,30,48.67
1043,D3,194.25,0.25,19,48.67
1044,E-2,194.5,0.188,22,48.67
1045,G3,194.5,0.5,27,48.67
1046,C4,194.5,0.5,27,48.67
1047,E-4,194.5,0.5,27,48.67
1048,E-3,194.75,0.188,22,48.67
1049,F1,195.0,0.25,26,48.67
1050,F3,195.0,2.0,32,48.67
1051,B-3,195.0,2.0,32,48.67
1052,D4,195.0,2.0,32,48.67
1053,F2,195.25,0.125,22,48.67
1054,F2,195.5,0.125,22,48.67
1055,F2,195.75,0.125,22,48.67
1056,F1,196.0,0.25,22,48.67
1057,F2,196.25,0.125,22,48.67
1058,F2,196.5,0.125,22,48.67
1059,F2,196.75,0.125,22,48.67
1060,E-4,197.0,771/1000,36,48.67
1061,F1,197.0,0.25,22,48.67
1062,E-3,197.0,1.0,30,48.67
1063,A3,197.0,1.0,30,48.67
1064,F2,197.25,0.125,22,48.67
1065,F2,197.5,0.125,22,48.67
1066,C4,197.75,0.25,34,48.67
1067,F2,197.75,0.125,22,48.67
1068,C4,198.0,21/1000,34,48.67
1069,F1,198.0,0.25,26,48.67
1070,D3,198.0,3.0,31,48.67
1071,G#3,198.0,3.0,31,48.67
1072,B3,198.0,3.0,31,48.67
1073,F2,198.25,0.125,23,48.67
1074,F2,198.5,0.125,23,48.67
1075,F2,198.75,0.125,24,48.67
1076,F1,199.0,0.25,24,48.67
1077,F2,199.25,0.125,23,48.67
1078,F2,199.5,0.125,23,48.67
1079,F2,199.75,0.125,23,48.67
1080,F1,200.0,0.25,24,48.67
1081,F2,200.25,0.125,23,48.67
1082,F2,200.5,0.125,23,48.67
1083,F2,200.75,0.125,22,48.67
1084,B3,201.0,1.5,44,48.67
1085,E2,201.0,0.25,31,48.67
1086,D3,201.0,2.0,36,48.67
1087,G#3,201.0,2.0,36,48.67
1088,E3,201.25,0.125,28,48.67
1089,E3,201.5,0.125,28,48.67
1090,E3,201.75,0.125,29,48.67
1091,E2,202.0,0.25,29,48.67
1092,E3,202.25,0.125,29,48.67
1093,C#4,202.5,271/1000,46,48.67
1094,E3,202.5,0.125,31,48.67
1095,D4,202.75,271/1000,46,48.67
1096,E3,202.75,0.125,30,48.67
1097,E4,203.0,0.5,45,48.67
1098,E2,203.0,0.25,30,48.67
1099,E3,203.25,0.25,29,48.67
1100,E2,203.5,0.25,30,48.67
1101,D3,203.5,0.5,44,48.67
1102,E3,203.5,0.5,44,48.67
1103,G#3,203.5,0.5,44,48.67
1104,E2,203.75,0.25,29,48.67
1105,A1,204.0,0.25,34,48.67
1106,C#3,204.0,1.0,40,48.67
1107,E3,204.0,1.0,40,48.67
1108,A3,204.0,1.0,40,48.67
1109,A2,204.25,0.125,28,48.67
1110,A2,204.5,0.125,28,48.67
1111,A2,204.75,0.125,28,48.67
1112,A1,205.0,0.25,33,48.67
1113,C#3,205.0,1.0,42,48.67
1114,A3,205.0,1.0,42,48.67
1115,A2,205.25,0.125,28,48.67
1116,A2,205.5,0.125,28,48.67
1117,A2,205.75,0.125,28,48.67
1118,A1,206.0,0.25,32,48.67
1119,D3,206.0,1.0,40,48.67
1120,A3,206.0,1.0,40,48.67
1121,B3,206.0,1.0,40,48.67
1122,A2,206.25,0.125,28,48.67
1123,A2,206.5,0.125,28,48.67
1124,A2,206.75,0.125,28,48.67
1125,A1,207.0,0.25,34,48.67
1126,E3,207.0,0.75,41,48.67
1127,C#4,207.0,0.75,41,48.67
1128,A3,207.0,0.75,41,48.67
1129,A2,207.25,0.125,29,48.67
1130,A2,207.5,0.125,29,48.67
1131,A2,207.75,0.125,29,48.67
1132,D3,207.75,271/1000,38,48.67
1133,A3,207.75,271/1000,38,48.67
1134,B3,207.75,271/1000,38,48.67
1135,A2,208.0,0.125,29,48.67
1136,C#3,208.0,1.5,39,48.67
1137,A3,208.0,1.5,39,48.67
1138,A2,208.25,0.125,29,48.67
1139,A2,208.5,0.125,29,48.67
1140,A2,208.75,0.125,29,48.67
1141,A2,209.0,0.125,37,48.67
1142,A2,209.25,0.125,28,48.67
1143,A2,209.5,0.125,31,48.67
1144,E3,209.5,0.5,44,48.67
1145,A3,209.5,0.5,44,48.67
1146,C#4,209.5,0.5,44,48.67
1147,A2,209.75,0.125,34,48.67
1148,A1,210.0,0.25,37,48.67
1149,F3,210.0,771/1000,47,48.67
1150,A3,210.0,771/1000,47,48.67
1151,D4,210.0,771/1000,47,48.67
1152,A2,210.25,0.125,34,48.67
1153,A2,210.5,0.125,34,48.67
1154,A2,210.75,0.125,34,48.67
1155,E3,210.75,271/1000,44,48.67
1156,A3,210.75,271/1000,44,48.67
1157,C#4,210.75,271/1000,44,48.67
1158,A1,211.0,0.125,34,48.67
1159,D3,211.0,0.5,45,48.67
1160,A3,211.0,0.5,45,48.67
1161,B3,211.0,0.5,45,48.67
1162,A2,211.25,0.125,33,48.67
1163,A2,211.5,0.125,34,48.67
1164,F3,211.5,0.5,44,48.67
1165,A3,211.5,0.5,44,48.67
1166,D4,211.5,0.5,44,48.67
1167,A2,211.75,0.125,34,48.67
1168,A1,212.0,0.25,34,48.67
1169,E3,212.0,0.5,44,48.67
1170,A3,212.0,0.5,44,48.67
1171,C#4,212.0,0.5,44,48.67
1172,A2,212.25,0.25,34,48.67
1173,C#2,212.5,0.25,34,48.67
1174,C#3,212.5,0.5,44,48.67
1175,E3,212.5,0.5,44,48.67
1176,A3,212.5,0.5,44,48.67
1177,C#3,212.75,0.25,34,48.67
1178,E1,213.0,0.25,37,48.67
1179,B2,213.0,1.5,45,48.67
1180,E3,213.0,1.5,45,48.67
1181,G#3,213.0,1.5,45,48.67
1182,E2,213.25,0.25,31,48.67
1183,E2,213.5,0.25,34,48.67
1184,E2,213.75,0.25,36,48.67
1185,E2,214.0,0.125,40,48.67
1186,E2,214.25,0.125,41,48.67
1187,D2,214.5,0.125,46,48.67
1188,B2,214.5,0.5,53,48.67
1189,F3,214.5,0.5,53,48.67
1190,G#3,214.5,0.5,53,48.67
1191,D2,214.75,0.125,47,48.67
1192,C2,215.0,0.125,48,48.67
1193,C3,215.0,0.5,59,48.67
1194,E3,215.0,0.5,59,48.67
1195,G#3,215.0,0.5,59,48.67
1196,C2,215.25,0.125,49,48.67
1197,B1,215.5,0.125,51,48.67
1198,D3,215.5,0.5,62,48.67
1199,E3,215.5,0.5,62,48.67
1200,G#3,215.5,0.5,62,48.67
1201,B1,215.75,0.125,53,48.67
1202,A1,216.0,0.25,57,48.67
1203,C3,216.0,1.0,67,48.67
1204,E3,216.0,1.0,67,48.67
1205,A3,216.0,1.0,67,48.67
1206,A2,216.25,0.125,46,48.67
1207,A2,216.5,0.125,46,48.67
1208,A2,216.75,0.125,46,48.67
1209,A1,217.0,0.25,57,48.67
1210,E3,217.0,1.0,68,48.67
1211,C3,217.0,1.0,68,48.67
1212,A3,217.0,1.0,68,48.67
1213,A2,217.25,0.125,46,48.67
1214,A2,217.5,0.125,47,48.67
1215,A2,217.75,0.125,47,48.67
1216,G1,218.0,0.25,55,48.67
1217,D3,218.0,1.0,70,48.67
1218,F3,218.0,1.0,70,48.67
1219,B3,218.0,1.0,70,48.67
1220,G2,218.25,0.125,47,48.67
1221,G2,218.5,0.125,48,48.67
1222,G2,218.75,0.125,48,48.67
1223,C4,219.0,1.0,84,48.67
1224,C2,219.0,0.25,60,48.67
1225,E3,219.0,771/1000,69,48.67
1226,G3,219.0,771/1000,69,48.67
1227,C3,219.25,0.125,49,48.67
1228,C3,219.5,0.125,50,48.67
1229,C3,219.75,0.125,50,48.67
1230,F3,219.75,271/1000,66,48.67
1231,A3,219.75,271/1000,66,48.67
1232,C2,220.0,0.188,50,48.67
1233,G3,220.0,1.5,70,48.67
1234,E3,220.0,1.5,70,48.67
1235,C4,220.0,1.5,70,48.67
1236,C3,220.25,0.125,50,48.67
1237,C3,220.5,0.125,51,48.67
1238,C3,220.75,0.125,51,48.67
1239,C2,221.0,0.25,57,48.67
1240,C3,221.25,0.25,51,48.67
1241,F2,221.5,0.188,54,48.67
1242,A3,221.5,0.5,73,48.67
1243,D4,221.5,0.5,73,48.67
1244,F3,221.75,0.188,57,48.67
1245,E4,222.0,771/1000,85,48.67
1246,E2,222.0,0.25,60,48.67
1247,G#3,222.0,1.0,71,48.67
1248,B3,222.0,1.0,71,48.67
1249,E3,222.25,0.125,50,48.67
1250,E3,222.5,0.125,50,48.67
1251,D4,222.75,271/1000,59,48.67
1252,E3,222.75,0.125,48,48.67
1253,F#2,223.0,0.25,41,48.67
1254,A3,223.0,0.5,58,48.67
1255,C#4,223.0,0.5,58,48.67
1256,F#3,223.25,0.25,39,48.67
1257,D2,223.5,0.25,34,48.67
1258,F#3,223.5,0.25,37,48.67
1259,A3,223.5,0.25,37,48.67
1260,E4,223.5,0.25,37,48.67
1261,D4,223.75,0.25,41,48.67
1262,D3,223.75,0.25,34,48.67
1263,E2,224.0,0.25,34,48.67
1264,E3,224.0,0.5,44,48.67
1265,A3,224.0,0.5,44,48.67
1266,C#4,224.0,0.5,44,48.67
1267,E3,224.25,0.25,34,48.67
1268,E2,224.5,0.25,31,48.67
1269,D3,224.5,0.5,40,48.67
1270,E3,224.5,0.5,40,48.67
1271,G#3,224.5,0.5,40,48.67
1272,B3,224.5,0.5,40,48.67
1273,E3,224.75,0.25,31,48.67
1274,E3,225.0,1.5,39,48.67
1275,D3,225.0,1.0,42,48.67
1276,G#3,225.0,1.0,42,48.67
1277,B3,225.0,1.0,42,48.67
1278,E2,225.25,0.25,29,48.67
1279,G#2,225.5,0.25,31,48.67
1280,E2,225.75,0.25,33,48.67
1281,A2,226.0,0.188,35,48.67
1282,C#3,226.0,1.0,43,48.67
1283,A3,226.0,1.0,43,48.67
1284,A2,226.25,0.125,32,48.67
1285,B2,226.5,0.125,32,48.67
1286,C#3,226.75,0.125,32,48.67
1287,B2,227.0,0.125,32,48.67
1288,A2,227.25,0.125,32,48.67
1289,G#2,227.5,0.125,31,48.67
1290,F#2,227.75,0.125,31,48.67
1291,B4,228.0,1.0,62,48.67
1292,E2,228.0,0.25,36,48.67
1293,G#4,228.167,167/1000,31,48.67
1294,E4,228.333,167/1000,31,48.67
1295,G#4,228.5,167/1000,31,48.67
1296,E3,228.5,0.25,25,48.67
1297,G#3,228.5,0.25,25,48.67
1298,E4,228.667,167/1000,31,48.67
1299,B3,228.833,167/1000,31,48.67
1300,B4,229.0,1.0,63,48.67
1301,E2,229.0,0.25,36,48.67
1302,G#4,229.167,167/1000,31,48.67
1303,E4,229.333,167/1000,31,48.67
1304,G#4,229.5,167/1000,31,48.67
1305,E3,229.5,0.25,26,48.67
1306,G#3,229.5,0.25,26,48.67
1307,E4,229.667,167/1000,31,48.67
1308,B3,229.833,167/1000,31,48.67
1309,C#5,230.0,1.0,62,48.67
1310,C#3,230.0,0.25,36,48.67
1311,B-4,230.167,167/1000,31,48.67
1312,F#4,230.333,167/1000,32,48.67
1313,B-4,230.5,167/1000,32,48.67
1314,F#3,230.5,0.25,27,48.67
1315,B-3,230.5,0.25,27,48.67
1316,F#4,230.667,167/1000,32,48.67
1317,E4,230.833,167/1000,32,48.67
1318,D5,231.0,0.875,63,48.67
1319,B2,231.0,0.25,36,48.67
1320,B4,231.167,167/1000,32,48.67
1321,F#4,231.333,167/1000,32,48.67
1322,B4,231.5,167/1000,32,48.67
1323,F#3,231.5,0.25,28,48.67
1324,B3,231.5,0.25,28,48.67
1325,F#4,231.667,167/1000,32,48.67
1326,C#5,231.833,0.125,40,48.67
1327,E5,231.833,0.125,40,48.67
1328,F#5,232.0,1.5,59,48.67
1329,B2,232.0,0.25,36,48.67
1330,D5,232.167,167/1000,31,48.67
1331,B4,232.333,167/1000,31,48.67
1332,D5,232.5,167/1000,31,48.67
1333,B3,232.5,0.25,27,48.67
1334,F#3,232.5,0.25,27,48.67
1335,B4,232.667,167/1000,31,48.67
1336,F#4,232.833,167/1000,31,48.67
1337,B2,233.0,0.25,36,48.67
1338,D5,233.167,167/1000,32,48.67
1339,B4,233.333,167/1000,32,48.67
1340,D5,233.5,167/1000,32,48.67
1341,F#5,233.5,0.5,63,48.67
1342,D4,233.5,0.25,26,48.67
1343,G#3,233.5,0.25,26,48.67
1344,B3,233.5,0.25,26,48.67
1345,B4,233.667,167/1000,32,48.67
1346,G#4,233.833,167/1000,32,48.67
1347,F#5,234.0,0.875,67,48.67
1348,A2,234.0,0.25,36,48.67
1349,D5,234.167,167/1000,34,48.67
1350,A4,234.333,167/1000,34,48.67
1351,D5,234.5,167/1000,34,48.67
1352,D4,234.5,0.5,28,48.67
1353,A3,234.5,0.375,24,48.67
1354,A4,234.667,167/1000,34,48.67
1355,B4,234.833,0.125,47,48.67
1356,G5,234.833,0.125,47,48.67
1357,G3,234.875,0.125,24,48.67
1358,A5,235.0,0.5,66,48.67
1359,F#3,235.0,0.5,32,48.67
1360,D4,235.0,0.5,32,48.67
1361,A4,235.167,167/1000,32,48.67
1362,D5,235.333,167/1000,32,48.67
1363,G5,235.5,0.5,62,48.67
1364,G3,235.5,0.5,30,48.67
1365,D4,235.5,0.5,30,48.67
1366,B4,235.667,167/1000,30,48.67
1367,D5,235.833,167/1000,30,48.67
1368,F#5,236.0,0.5,62,48.67
1369,A3,236.0,0.5,30,48.67
1370,D4,236.0,0.5,30,48.67
1371,A4,236.167,167/1000,32,48.67
1372,D5,236.333,167/1000,32,48.67
1373,E5,236.5,0.5,62,48.67
1374,A3,236.5,0.5,30,48.67
1375,C#4,236.5,0.5,30,48.67
1376,G4,236.667,167/1000,32,48.67
1377,A4,236.833,167/1000,32,48.67
1378,E5,237.0,1.0,66,48.67
1379,D3,237.0,0.25,36,48.67
1380,C#5,237.167,167/1000,31,48.67
1381,A4,237.333,167/1000,31,48.67
1382,C#5,237.5,167/1000,31,48.67
1383,A3,237.5,0.25,30,48.67
1384,C#4,237.5,0.25,30,48.67
1385,A4,237.667,167/1000,31,48.67
1386,G4,237.833,167/1000,31,48.67
1387,D5,238.0,2.0,66,48.67
1388,D3,238.0,0.25,33,48.67
1389,A4,238.167,167/1000,31,48.67
1390,F#4,238.333,167/1000,31,48.67
1391,A4,238.5,167/1000,34,48.67
1392,A3,238.5,0.375,30,48.67
1393,D4,238.5,0.375,30,48.67
1394,F#4,238.667,167/1000,32,48.67
1395,D4,238.833,167/1000,32,48.67
1396,D3,239.0,0.375,36,48.67
1397,F#4,239.167,167/1000,33,48.67
1398,D4,239.333,167/1000,32,48.67
1399,A4,239.5,167/1000,32,48.67
1400,F#3,239.5,0.375,28,48.67
1401,A3,239.5,0.375,28,48.67
1402,F#4,239.667,167/1000,28,48.67
1403,D4,239.833,167/1000,27,48.67
1404,B-4,240.0,1.0,44,48.67
1405,D2,240.0,0.25,25,48.67
1406,F4,240.167,167/1000,24,48.67
1407,D4,240.333,167/1000,24,48.67
1408,F4,240.5,167/1000,24,48.67
1409,D3,240.5,0.25,17,48.67
1410,F3,240.5,0.25,17,48.67
1411,D4,240.667,167/1000,24,48.67
1412,B-3,240.833,167/1000,24,48.67
1413,B-4,241.0,1.0,45,48.67
1414,D2,241.0,0.25,25,48.67
1415,F4,241.167,167/1000,24,48.67
1416,D4,241.333,167/1000,24,48.67
1417,F4,241.5,167/1000,24,48.67
1418,D3,241.5,0.25,18,48.67
1419,F3,241.5,0.25,18,48.67
1420,D4,241.667,167/1000,24,48.67
1421,B-3,241.833,167/1000,24,48.67
1422,B-4,242.0,1.0,44,48.67
1423,D2,242.0,0.25,25,48.67
1424,F4,242.167,167/1000,24,48.67
1425,D4,242.333,167/1000,25,48.67
1426,F4,242.5,167/1000,25,48.67
1427,D3,242.5,0.25,18,48.67
1428,F3,242.5,0.25,18,48.67
1429,D4,242.667,167/1000,25,48.67
1430,B-3,242.833,167/1000,25,48.67
1431,B-4,243.0,1.0,45,48.67
1432,E-2,243.0,0.25,25,48.67
1433,G4,243.167,167/1000,25,48.67
1434,E-4,243.333,167/1000,25,48.67
1435,G4,243.5,167/1000,25,48.67
1436,E-3,243.5,0.25,19,48.67
1437,G3,243.5,0.25,19,48.67
1438,E-4,243.667,167/1000,25,48.67
1439,B-3,243.833,167/1000,25,48.67
1440,G4,244.0,0.5,39,48.67
1441,E-2,244.0,0.5,25,48.67
1442,E-4,244.167,167/1000,24,48.67
1443,B-3,244.333,167/1000,24,48.67
1444,G5,244.5,0.5,42,48.67
1445,E-3,244.5,0.5,18,48.67
1446,G3,244.5,0.5,18,48.67
1447,B-3,244.5,0.5,18,48.67
1448,E-5,244.667,167/1000,24,48.67
1449,G4,244.833,167/1000,24,48.67
1450,F5,245.0,0.5,42,48.67
1451,D3,245.0,0.5,18,48.67
1452,G3,245.0,0.5,18,48.67
1453,B3,245.0,0.5,18,48.67
1454,B4,245.167,167/1000,25,48.67
1455,G4,245.333,167/1000,25,48.67
1456,E-5,245.5,0.5,45,48.67
1457,C3,245.5,0.5,18,48.67
1458,G3,245.5,0.5,18,48.67
1459,C4,245.5,0.5,18,48.67
1460,C5,245.667,167/1000,25,48.67
1461,G4,245.833,167/1000,25,48.67
1462,D5,246.0,2.0,45,48.67
1463,F2,246.0,0.25,25,48.67
1464,B-4,246.167,167/1000,27,48.67
1465,F4,246.333,167/1000,27,48.67
1466,B-4,246.5,167/1000,27,48.67
1467,B-3,246.5,0.25,18,48.67
1468,F3,246.5,0.25,18,48.67
1469,F4,246.667,167/1000,27,48.67
1470,D4,246.833,167/1000,25,48.67
1471,F2,247.0,0.25,25,48.67
1472,B-4,247.167,167/1000,27,48.67
1473,F4,247.333,167/1000,27,48.67
1474,B-4,247.5,167/1000,27,48.67
1475,F3,247.5,0.25,18,48.67
1476,B-3,247.5,0.25,18,48.67
1477,F4,247.667,167/1000,25,48.67
1478,D4,247.833,167/1000,25,48.67
1479,E-5,248.0,0.875,44,48.67
1480,F2,248.0,0.25,25,48.67
1481,C5,248.167,167/1000,25,48.67
1482,A4,248.333,167/1000,25,48.67
1483,C5,248.5,0.5,27,48.67
1484,F3,248.5,0.25,18,48.67
1485,A3,248.5,0.25,18,48.67
1486,A4,248.667,167/1000,25,48.67
1487,E-4,248.833,0.125,32,48.67
1488,C5,248.833,0.125,32,48.67
1489,B4,249.0,3.0,43,48.67
1490,F2,249.0,0.25,25,48.67
1491,G#4,249.167,167/1000,24,48.67
1492,D4,249.333,167/1000,24,48.67
1493,G#4,249.5,167/1000,24,48.67
1494,F3,249.5,0.25,23,48.67
1495,D4,249.667,167/1000,24,48.67
1496,B3,249.833,167/1000,24,48.67
1497,F2,250.0,0.25,23,48.67
1498,G#4,250.167,167/1000,24,48.67
1499,D4,250.333,167/1000,24,48.67
1500,G#4,250.5,167/1000,27,48.67
1501,F3,250.5,0.375,22,48.67
1502,D4,250.667,167/1000,25,48.67
1503,B3,250.833,167/1000,25,48.67
1504,F2,251.0,0.375,25,48.67
1505,G#4,251.167,167/1000,27,48.67
1506,D4,251.333,167/1000,27,48.67
1507,G#4,251.5,167/1000,28,48.67
1508,F3,251.5,0.375,23,48.67
1509,D4,251.667,167/1000,25,48.67
1510,B3,251.833,167/1000,25,48.67
1511,B4,252.0,2.0,42,48.67
1512,F2,252.0,0.25,25,48.67
1513,G#4,252.167,167/1000,24,48.67
1514,C#4,252.333,167/1000,24,48.67
1515,G#4,252.5,167/1000,24,48.67
1516,F3,252.5,0.25,23,48.67
1517,C#4,252.667,167/1000,24,48.67
1518,B3,252.833,167/1000,24,48.67
1519,F2,253.0,0.25,23,48.67
1520,G#4,253.167,167/1000,24,48.67
1521,C#4,253.333,167/1000,24,48.67
1522,G#4,253.5,167/1000,27,48.67
1523,F3,253.5,0.375,22,48.67
1524,C#4,253.667,167/1000,25,48.67
1525,B3,253.833,167/1000,25,48.67
1526,B4,254.0,1.0,43,48.67
1527,F2,254.0,0.375,25,48.67
1528,G#4,254.167,167/1000,27,48.67
1529,D4,254.333,167/1000,27,48.67
1530,G#4,254.5,167/1000,28,48.67
1531,F3,254.5,0.375,24,48.67
1532,D4,254.667,167/1000,26,48.67
1533,B3,254.833,167/1000,27,48.67
1534,B4,255.0,0.875,44,48.67
1535,F#2,255.0,0.25,28,48.67
1536,F#4,255.167,167/1000,26,48.67
1537,D4,255.333,167/1000,26,48.67
1538,F#4,255.5,167/1000,25,48.67
1539,F#3,255.5,0.25,24,48.67
1540,D4,255.667,167/1000,25,48.67
1541,C#4,255.833,13/125,32,48.67
1542,A4,255.833,13/125,32,48.67
1543,A4,256.0,2.0,42,48.67
1544,F#2,256.0,0.25,23,48.67
1545,F#4,256.167,167/1000,24,48.67
1546,C#4,256.333,167/1000,24,48.67
1547,F#4,256.5,167/1000,27,48.67
1548,F#3,256.5,0.375,22,48.67
1549,C#4,256.667,167/1000,25,48.67
1550,A3,256.833,167/1000,25,48.67
1551,F#2,257.0,0.375,25,48.67
1552,F#4,257.167,167/1000,27,48.67
1553,C#4,257.333,167/1000,27,48.67
1554,F#4,257.5,167/1000,28,48.67
1555,F#3,257.5,0.375,23,48.67
1556,C#4,257.667,167/1000,25,48.67
1557,A3,257.833,167/1000,25,48.67
1558,A4,258.0,2.0,43,48.67
1559,F#1,258.0,0.25,25,48.67
1560,F#4,258.167,167/1000,24,48.67
1561,C#4,258.333,167/1000,24,48.67
1562,F#4,258.5,167/1000,24,48.67
1563,F#2,258.5,0.25,23,48.67
1564,C#4,258.667,167/1000,24,48.67
1565,A3,258.833,167/1000,24,48.67
1566,F#1,259.0,0.25,23,48.67
1567,F#4,259.167,167/1000,24,48.67
1568,C#4,259.333,167/1000,24,48.67
1569,F#4,259.5,167/1000,27,48.67
1570,F#2,259.5,0.375,22,48.67
1571,C#4,259.667,167/1000,25,48.67
1572,A3,259.833,167/1000,25,48.67
1573,A4,260.0,1.0,41,48.67
1574,F#1,260.0,0.375,25,48.67
1575,F#4,260.167,167/1000,27,48.67
1576,D4,260.333,167/1000,27,48.67
1577,F#4,260.5,167/1000,28,48.67
1578,F#2,260.5,0.375,24,48.67
1579,D4,260.667,167/1000,26,48.67
1580,A3,260.833,167/1000,27,48.67
1581,A4,261.0,0.875,45,48.67
1582,G#1,261.0,0.25,28,48.67
1583,F#4,261.167,167/1000,26,48.67
1584,C#4,261.333,167/1000,26,48.67
1585,F#4,261.5,167/1000,25,48.67
1586,G#2,261.5,0.25,24,48.67
1587,C#4,261.667,167/1000,25,48.67
1588,E4,261.833,11/100,34,48.67
1589,G#4,261.833,11/100,34,48.67
1590,G#4,262.0,2.0,41,48.67
1591,G#1,262.0,0.25,23,48.67
1592,E4,262.167,167/1000,24,48.67
1593,C#4,262.333,167/1000,24,48.67
1594,E4,262.5,167/1000,27,48.67
1595,G#2,262.5,0.375,22,48.67
1596,C#4,262.667,167/1000,25,48.67
1597,G#3,262.833,167/1000,25,48.67
1598,G#1,263.0,0.375,25,48.67
1599,E4,263.167,167/1000,27,48.67
1600,C#4,263.333,167/1000,27,48.67
1601,E4,263.5,167/1000,28,48.67
1602,G#2,263.5,0.375,23,48.67
1603,C#4,263.667,167/1000,25,48.67
1604,G#3,263.833,167/1000,25,48.67
1605,G#4,264.0,2.0,40,48.67
1606,G#1,264.0,0.25,25,48.67
1607,E-4,264.167,167/1000,23,48.67
1608,C#4,264.333,167/1000,23,48.67
1609,E-4,264.5,167/1000,23,48.67
1610,G#2,264.5,0.25,22,48.67
1611,C#4,264.667,167/1000,22,48.67
1612,G#3,264.833,167/1000,22,48.67
1613,G#1,265.0,0.25,22,48.67
1614,E-4,265.167,167/1000,22,48.67
1615,C#4,265.333,167/1000,22,48.67
1616,E-4,265.5,167/1000,23,48.67
1617,G#2,265.5,0.375,20,48.67
1618,C#4,265.667,167/1000,22,48.67
1619,G#3,265.833,167/1000,22,48.67
1620,G#4,266.0,1.0,37,48.67
1621,G#1,266.0,0.375,22,48.67
1622,E-4,266.167,167/1000,22,48.67
1623,C4,266.333,167/1000,22,48.67
1624,E-4,266.5,167/1000,23,48.67
1625,G#2,266.5,0.375,20,48.67
1626,C4,266.667,167/1000,21,48.67
1627,G#3,266.833,167/1000,22,48.67
1628,C#2,270.0,0.25,26,48.67
1629,E4,270.0,2.0,36,48.67
1630,G#4,270.0,2.0,36,48.67
1631,C#3,270.5,0.5,22,48.67
1632,C#4,271.0,0.5,27,48.67
1633,C#5,271.5,0.5,26,48.67
1634,E4,272.0,0.875,32,48.67
1635,G#4,272.0,0.875,32,48.67
1636,C#2,272.25,0.125,25,48.67
1637,C#2,272.5,0.125,25,48.67
1638,C2,272.75,0.125,25,48.67
1639,E-4,272.875,119/1000,28,48.67
1640,F#4,272.875,119/1000,28,48.67
1641,C#2,273.0,0.25,26,48.67
1642,E-4,273.0,2.0,34,48.67
1643,F#4,273.0,2.0,34,48.67
1644,C#3,273.5,0.5,22,48.67
1645,C#4,274.0,0.5,27,48.67
1646,C#5,274.5,0.5,28,48.67
1647,E-4,275.0,1.0,34,48.67
1648,F#4,275.0,1.0,34,48.67
1649,C#2,275.25,0.125,26,48.67
1650,C#2,275.5,0.125,26,48.67
1651,C2,275.75,0.125,27,48.67
1652,C#2,276.0,0.25,26,48.67
1653,F#4,276.0,2.0,38,48.67
1654,A4,276.0,2.0,38,48.67
1655,C#3,276.5,0.5,22,48.67
1656,C#4,277.0,0.5,27,48.67
1657,C#5,277.5,0.5,28,48.67
1658,F#4,278.0,0.5,30,48.67
1659,A4,278.0,0.5,30,48.67
1660,C#2,278.25,0.125,27,48.67
1661,C#2,278.5,0.125,26,48.67
1662,E4,278.5,0.25,28,48.67
1663,G#4,278.5,0.25,28,48.67
1664,C2,278.75,0.125,26,48.67
1665,E-4,278.75,0.25,26,48.67
1666,F#4,278.75,0.25,26,48.67
1667,C#2,279.0,0.25,26,48.67
1668,E4,279.0,2.0,36,48.67
1669,G#4,279.0,2.0,36,48.67
1670,C#3,279.5,0.5,22,48.67
1671,C#4,280.0,0.5,27,48.67
1672,C#5,280.5,0.5,27,48.67
1673,E4,281.0,1.0,32,48.67
1674,G#4,281.0,1.0,32,48.67
1675,C#2,281.25,0.125,28,48.67
1676,C#2,281.5,0.125,27,48.67
1677,C2,281.75,0.125,26,48.67
1678,C#2,282.0,0.25,26,48.67
1679,F4,282.0,2.0,38,48.67
1680,B4,282.0,2.0,38,48.67
1681,C#3,282.5,0.5,22,48.67
1682,C#4,283.0,0.5,27,48.67
1683,C#5,283.5,0.5,31,48.67
1684,F4,284.0,0.25,28,48.67
1685,B4,284.0,0.5,33,48.67
1686,G#4,284.25,0.25,28,48.67
1687,C#2,284.25,0.125,25,48.67
1688,C#2,284.5,0.125,25,48.67
1689,F#4,284.5,0.25,28,48.67
1690,A4,284.5,0.25,28,48.67
1691,C2,284.75,0.125,26,48.67
1692,F4,284.75,0.25,26,48.67
1693,G#4,284.75,0.25,26,48.67
1694,C#2,285.0,0.25,26,48.67
1695,F#4,285.0,1.5,38,48.67
1696,A4,285.0,1.5,38,48.67
1697,C#3,285.5,0.5,22,48.67
1698,C#4,286.0,0.5,27,48.67
1699,F#4,286.5,19/40,28,48.67
1700,A4,286.5,19/40,28,48.67
1701,C#5,286.5,19/40,28,48.67
1702,F#4,287.0,19/40,37,48.67
1703,A4,287.0,19/40,37,48.67
1704,C#2,287.25,0.125,26,48.67
1705,C#2,287.5,0.125,26,48.67
1706,F#4,287.5,19/40,38,48.67
1707,A4,287.5,19/40,38,48.67
1708,C2,287.75,0.125,27,48.67
1709,C#2,288.0,0.25,31,48.67
1710,A4,288.0,2.0,45,48.67
1711,C#5,288.0,2.0,45,48.67
1712,C#3,288.5,0.5,25,48.67
1713,C#4,289.0,0.5,30,48.67
1714,C#5,289.5,0.5,38,48.67
1715,A4,290.0,0.75,36,48.67
1716,C#5,290.0,0.75,36,48.67
1717,C#2,290.25,0.125,26,48.67
1718,C#2,290.5,0.125,26,48.67
1719,C2,290.75,0.125,26,48.67
1720,F#4,290.75,0.25,26,48.67
1721,A4,290.75,0.25,26,48.67
1722,C#2,291.0,0.25,26,48.67
1723,E4,291.0,2.5,34,48.67
1724,G#4,291.0,2.5,34,48.67
1725,C#3,291.5,0.5,22,48.67
1726,C#4,292.0,0.5,27,48.67
1727,C#5,292.5,0.5,28,48.67
1728,C#2,293.25,0.125,27,48.67
1729,C#2,293.5,0.125,27,48.67
1730,E4,293.5,0.5,38,48.67
1731,G#4,293.5,0.5,38,48.67
1732,E2,293.75,0.125,27,48.67
1733,G#1,294.0,0.25,28,48.67
1734,E4,294.0,0.75,45,48.67
1735,A4,294.0,0.75,45,48.67
1736,C#5,294.0,0.75,45,48.67
1737,G#2,294.5,0.5,35,48.67
1738,E-4,294.75,119/500,39,48.67
1739,G#4,294.75,119/500,39,48.67
1740,C5,294.75,119/500,39,48.67
1741,G#3,295.0,0.5,41,48.67
1742,E-4,295.0,1.5,44,48.67
1743,G#4,295.0,1.5,44,48.67
1744,C5,295.0,1.5,44,48.67
1745,G#5,295.5,0.5,43,48.67
1746,G#1,296.25,0.125,31,48.67
1747,G#1,296.5,0.125,32,48.67
1748,G#4,296.5,0.5,50,48.67
1749,C5,296.5,0.5,50,48.67
1750,G1,296.75,0.125,32,48.67
1751,G#1,297.0,0.25,35,48.67
1752,G4,297.0,0.75,54,48.67
1753,C#5,297.0,0.75,54,48.67
1754,E5,297.0,0.75,54,48.67
1755,G#2,297.5,0.5,43,48.67
1756,G#4,297.75,119/500,48,48.67
1757,C5,297.75,119/500,48,48.67
1758,E-5,297.75,119/500,48,48.67
1759,G#3,298.0,0.5,50,48.67
1760,G#4,298.0,1.5,53,48.67
1761,C5,298.0,1.5,53,48.67
1762,E-5,298.0,1.5,53,48.67
1763,G#5,298.5,0.5,53,48.67
1764,G#1,299.25,0.125,35,48.67
1765,G#1,299.5,0.125,35,48.67
1766,G#4,299.5,0.5,56,48.67
1767,C5,299.5,0.5,56,48.67
1768,E-5,299.5,0.5,56,48.67
1769,G1,299.75,0.125,35,48.67
1770,G#1,300.0,0.25,39,48.67
1771,G#4,300.0,0.75,62,48.67
1772,E5,300.0,0.75,62,48.67
1773,G#5,300.0,0.75,62,48.67
1774,G#2,300.5,0.5,49,48.67
1775,A4,300.75,119/500,55,48.67
1776,E-5,300.75,119/500,55,48.67
1777,F#5,300.75,119/500,55,48.67
1778,G#3,301.0,0.5,57,48.67
1779,A4,301.0,1.5,62,48.67
1780,E-5,301.0,1.5,62,48.67
1781,F#5,301.0,1.5,62,48.67
1782,G#5,301.5,0.5,61,48.67
1783,G#1,302.25,0.125,42,48.67
1784,G#1,302.5,0.125,42,48.67
1785,A4,302.5,0.5,64,48.67
1786,E-5,302.5,0.5,64,48.67
1787,F#5,302.5,0.5,64,48.67
1788,G1,302.75,0.125,42,48.67
1789,G#1,303.0,0.25,46,48.67
1790,C#5,303.0,0.75,72,48.67
1791,E5,303.0,0.75,72,48.67
1792,A5,303.0,0.75,72,48.67
1793,G#2,303.5,0.5,52,48.67
1794,C5,303.75,119/500,63,48.67
1795,E-5,303.75,119/500,63,48.67
1796,G#5,303.75,119/500,63,48.67
1797,G#3,304.0,0.5,60,48.67
1798,C5,304.0,2.0,71,48.67
1799,E-5,304.0,2.0,71,48.67
1800,G#5,304.0,2.0,71,48.67
1801,G#4,304.5,0.25,59,48.67
1802,G#1,305.25,0.125,36,48.67
1803,G#1,305.5,0.125,36,48.67
1804,G1,305.75,0.125,36,48.67
1805,G#1,306.0,0.25,36,48.67
1806,C5,306.0,3.0,71,48.67
1807,E-5,306.0,3.0,71,48.67
1808,G#5,306.0,3.0,71,48.67
1809,G#2,306.5,0.5,38,48.67
1810,G#3,307.0,0.5,41,48.67
1811,G#4,307.5,0.25,38,48.67
1812,C2,309.0,0.5,26,48.67
1813,C5,309.0,2.5,36,48.67
1814,E5,309.0,2.5,36,48.67
1815,G5,309.0,2.5,36,48.67
1816,C3,309.5,0.5,22,48.67
1817,C4,310.0,0.5,24,48.67
1818,E4,310.5,0.25,25,48.67
1819,C2,311.25,0.125,25,48.67
1820,D2,311.5,0.125,25,48.67
1821,C5,311.5,0.5,32,48.67
1822,G5,311.5,0.5,32,48.67
1823,C6,311.5,0.5,32,48.67
1824,E2,311.75,0.125,25,48.67
1825,B5,312.0,0.75,41,48.67
1826,F1,312.0,0.5,26,48.67
1827,C5,312.0,1.0,34,48.67
1828,F5,312.0,1.0,34,48.67
1829,F2,312.5,0.5,22,48.67
1830,A5,312.75,119/500,41,48.67
1831,F3,313.0,0.5,26,48.67
1832,C5,313.0,1.5,36,48.67
1833,F5,313.0,1.5,36,48.67
1834,A5,313.0,1.5,36,48.67
1835,F4,313.5,0.25,25,48.67
1836,D2,314.25,0.125,25,48.67
1837,E2,314.5,0.125,25,48.67
1838,A5,314.5,0.5,32,48.67
1839,C5,314.5,0.5,32,48.67
1840,E5,314.5,0.5,32,48.67
1841,F2,314.75,0.125,25,48.67
1842,D5,315.0,1.0,34,48.67
1843,G1,315.0,0.5,26,48.67
1844,C5,315.0,0.75,38,48.67
1845,A5,315.0,0.75,38,48.67
1846,G2,315.5,0.5,22,48.67
1847,B4,315.75,119/500,40,48.67
1848,G5,315.75,119/500,40,48.67
1849,G3,316.0,0.5,27,48.67
1850,B4,316.0,1.5,36,48.67
1851,D5,316.0,1.5,36,48.67
1852,G5,316.0,1.5,36,48.67
1853,G4,316.5,0.25,28,48.67
1854,G1,317.25,0.125,25,48.67
1855,A1,317.5,0.125,25,48.67
1856,A4,317.5,0.5,30,48.67
1857,C5,317.5,0.5,30,48.67
1858,F5,317.5,0.5,30,48.67
1859,B1,317.75,0.125,25,48.67
1860,C2,318.0,0.5,26,48.67
1861,G4,318.0,1.0,30,48.67
1862,C5,318.0,1.0,30,48.67
1863,E5,318.0,1.0,30,48.67
1864,C3,318.5,0.5,22,48.67
1865,C4,319.0,0.5,27,48.67
1866,E4,319.0,2.0,27,48.67
1867,G4,319.0,2.0,27,48.67
1868,C5,319.0,2.0,27,48.67
1869,C6,319.5,0.25,29,48.67
1870,C2,320.25,0.125,25,48.67
1871,C2,320.5,0.125,25,48.67
1872,D2,320.75,0.125,25,48.67
1873,C2,321.0,0.5,26,48.67
1874,C4,321.0,2.0,36,48.67
1875,E4,321.0,2.0,36,48.67
1876,G3,321.5,0.5,22,48.67
1877,G4,322.0,0.5,27,48.67
1878,G5,322.5,0.25,28,48.67
1879,C4,323.0,0.75,32,48.67
1880,E4,323.0,0.75,32,48.67
1881,C2,323.25,0.125,25,48.67
1882,C2,323.5,0.125,25,48.67
1883,D2,323.75,0.125,25,48.67
1884,B3,323.75,119/500,31,48.67
1885,D4,323.75,119/500,31,48.67
1886,C2,324.0,0.5,26,48.67
1887,B3,324.0,2.0,38,48.67
1888,D4,324.0,2.0,38,48.67
1889,G3,324.5,0.5,22,48.67
1890,G4,325.0,0.5,27,48.67
1891,G5,325.5,0.25,28,48.67
1892,B3,326.0,1.0,34,48.67
1893,D4,326.0,1.0,34,48.67
1894,C2,326.25,0.125,25,48.67
1895,C2,326.5,0.125,25,48.67
1896,D2,326.75,0.125,25,48.67
1897,C2,327.0,0.5,26,48.67
1898,A3,327.0,2.0,38,48.67
1899,F4,327.0,2.0,38,48.67
1900,G3,327.5,0.5,22,48.67
1901,G4,328.0,0.5,27,48.67
1902,G5,328.5,0.25,28,48.67
1903,B3,329.0,0.25,28,48.67
1904,F4,329.0,0.5,33,48.67
1905,D4,329.25,0.25,24,48.67
1906,C2,329.25,0.125,25,48.67
1907,C2,329.5,0.125,25,48.67
1908,C4,329.5,0.25,28,48.67
1909,E4,329.5,0.25,28,48.67
1910,D2,329.75,0.125,25,48.67
1911,B3,329.75,0.25,26,48.67
1912,D4,329.75,0.25,26,48.67
1913,C2,330.0,0.5,26,48.67
1914,C4,330.0,1.5,36,48.67
1915,E4,330.0,1.5,36,48.67
1916,G3,330.5,0.5,22,48.67
1917,G4,331.0,0.5,27,48.67
1918,C4,331.5,0.25,31,48.67
1919,E4,331.5,0.25,31,48.67
1920,G5,331.5,0.25,31,48.67
1921,B3,332.0,0.25,32,48.67
1922,E4,332.0,0.25,32,48.67
1923,C2,332.25,0.125,25,48.67
1924,C2,332.5,0.125,25,48.67
1925,B-3,332.5,0.25,32,48.67
1926,F#4,332.5,0.25,32,48.67
1927,D2,332.75,0.125,25,48.67
1928,B3,333.0,0.5,33,48.67
1929,G#4,333.0,2.0,39,48.67
1930,B1,333.0,0.5,26,48.67
1931,E4,333.5,1.5,33,48.67
1932,B2,333.5,0.5,22,48.67
1933,B3,334.0,0.5,27,48.67
1934,B4,334.5,0.25,27,48.67
1935,E4,335.0,0.75,32,48.67
1936,G#4,335.0,0.75,32,48.67
1937,B1,335.25,0.125,25,48.67
1938,B1,335.5,0.125,25,48.67
1939,C#2,335.75,0.125,25,48.67
1940,E-4,335.75,119/500,31,48.67
1941,F#4,335.75,119/500,31,48.67
1942,B1,336.0,0.25,26,48.67
1943,E-4,336.0,2.0,38,48.67
1944,F#4,336.0,2.0,38,48.67
1945,B2,336.5,0.5,22,48.67
1946,B3,337.0,0.5,27,48.67
1947,B4,337.5,0.25,27,48.67
1948,E-4,338.0,1.0,34,48.67
1949,F#4,338.0,1.0,34,48.67
1950,B1,338.25,0.125,25,48.67
1951,B1,338.5,0.125,25,48.67
1952,C#2,338.75,0.125,25,48.67
1953,B1,339.0,0.25,26,48.67
1954,C#4,339.0,2.0,38,48.67
1955,A4,339.0,2.0,38,48.67
1956,B2,339.5,0.5,22,48.67
1957,B3,340.0,0.5,27,48.67
1958,B4,340.5,0.25,28,48.67
1959,E-4,341.0,0.25,28,48.67
1960,A4,341.0,0.5,33,48.67
1961,F#4,341.25,0.25,24,48.67
1962,B1,341.25,0.125,25,48.67
1963,B1,341.5,0.125,25,48.67
1964,E4,341.5,0.25,28,48.67
1965,G#4,341.5,0.25,28,48.67
1966,C#2,341.75,0.125,25,48.67
1967,E-4,341.75,0.25,26,48.67
1968,F#4,341.75,0.25,26,48.67
1969,B1,342.0,0.25,26,48.67
1970,E4,342.0,2.5,36,48.67
1971,G#4,342.0,2.5,36,48.67
1972,B2,342.5,0.5,22,48.67
1973,B3,343.0,0.5,27,48.67
1974,B4,343.5,0.25,28,48.67
1975,B1,344.25,0.125,26,48.67
1976,B1,344.5,0.125,26,48.67
1977,G#4,344.5,0.5,34,48.67
1978,B4,344.5,0.5,34,48.67
1979,C#2,344.75,0.125,26,48.67
1980,B1,345.0,0.25,29,48.67
1981,G#4,345.0,0.75,46,48.67
1982,B4,345.0,0.75,46,48.67
1983,E5,345.0,0.75,46,48.67
1984,B2,345.5,0.5,37,48.67
1985,F#4,345.75,119/500,42,48.67
1986,B4,345.75,119/500,42,48.67
1987,E-5,345.75,119/500,42,48.67
1988,B3,346.0,0.5,43,48.67
1989,F#4,346.0,1.5,47,48.67
1990,B4,346.0,1.5,47,48.67
1991,E-5,346.0,1.5,47,48.67
1992,B5,346.5,0.5,46,48.67
1993,B1,347.25,0.125,32,48.67
1994,B1,347.5,0.125,33,48.67
1995,F#4,347.5,0.5,53,48.67
1996,B4,347.5,0.5,53,48.67
1997,E-5,347.5,0.5,53,48.67
1998,C#2,347.75,0.125,33,48.67
1999,B4,348.0,1.0,55,48.67
2000,B1,348.0,0.25,37,48.67
2001,E5,348.0,0.75,60,48.67
2002,G#5,348.0,0.75,60,48.67
2003,B2,348.5,0.5,47,48.67
2004,E-5,348.75,119/500,54,48.67
2005,F#5,348.75,119/500,54,48.67
2006,B3,349.0,0.5,56,48.67
2007,B4,349.0,1.5,60,48.67
2008,E-5,349.0,1.5,60,48.67
2009,F#5,349.0,1.5,60,48.67
2010,B5,349.5,0.5,60,48.67
2011,B1,350.25,0.125,40,48.67
2012,B1,350.5,0.125,41,48.67
2013,B4,350.5,0.5,63,48.67
2014,E5,350.5,0.5,63,48.67
2015,G#5,350.5,0.5,63,48.67
2016,C#2,350.75,0.125,43,48.67
2017,B1,351.0,0.25,46,48.67
2018,E5,351.0,0.75,72,48.67
2019,G#5,351.0,0.75,72,48.67
2020,C#6,351.0,0.75,72,48.67
2021,B2,351.5,0.5,52,48.67
2022,E-5,351.75,119/500,63,48.67
2023,F#5,351.75,119/500,63,48.67
2024,B5,351.75,119/500,63,48.67
2025,B5,352.0,2.0,79,48.67
2026,B3,352.0,0.5,60,48.67
2027,E-5,352.0,2.0,67,48.67
2028,F#5,352.0,2.0,67,48.67
2029,B4,352.5,0.5,59,48.67
2030,B1,353.25,0.125,33,48.67
2031,B1,353.5,0.125,32,48.67
2032,C#2,353.75,0.125,33,48.67
2033,B5,354.0,2.5,79,48.67
2034,B1,354.0,0.25,34,48.67
2035,E-5,354.0,3.0,67,48.67
2036,F#5,354.0,3.0,67,48.67
2037,B2,354.5,0.5,30,48.67
2038,B3,355.0,0.5,31,48.67
2039,B4,355.5,0.5,33,48.67
2040,A5,356.5,0.5,42,48.67
2041,C#2,357.0,0.25,26,48.67
2042,G#4,357.0,2.5,36,48.67
2043,E5,357.0,2.5,36,48.67
2044,G#5,357.0,2.5,36,48.67
2045,C#3,357.5,0.5,22,48.67
2046,C#4,358.0,0.5,26,48.67
2047,C#5,358.5,0.5,31,48.67
2048,C#2,359.25,0.125,25,48.67
2049,E-2,359.5,0.125,25,48.67
2050,G#4,359.5,0.5,32,48.67
2051,C#5,359.5,0.5,32,48.67
2052,E5,359.5,0.5,32,48.67
2053,E2,359.75,0.125,25,48.67
2054,E-5,360.0,0.75,41,48.67
2055,F#1,360.0,0.25,24,48.67
2056,F#4,360.0,1.0,34,48.67
2057,A4,360.0,1.0,34,48.67
2058,F#2,360.5,0.5,24,48.67
2059,C#5,360.75,0.25,41,48.67
2060,F#4,361.0,123/250,34,48.67
2061,F#3,361.0,0.5,27,48.67
2062,A4,361.0,1.5,38,48.67
2063,C#5,361.0,1.5,38,48.67
2064,F#4,361.494,0.5,30,48.67
2065,F#1,362.25,0.125,25,48.67
2066,F1,362.5,0.125,25,48.67
2067,E-4,362.5,0.5,32,48.67
2068,A4,362.5,0.5,32,48.67
2069,C#5,362.5,0.5,32,48.67
2070,F#1,362.75,0.125,25,48.67
2071,E4,363.0,2.0,34,48.67
2072,G#4,363.0,2.5,34,48.67
2073,C#5,363.0,1.0,41,48.67
2074,G#1,363.0,0.25,24,48.67
2075,G#2,363.5,0.5,22,48.67
2076,B4,364.0,1.5,41,48.67
2077,G#3,364.0,0.5,27,48.67
2078,G#5,364.5,0.5,29,48.67
2079,C4,365.0,1.0,25,48.67
2080,G#1,365.25,0.125,25,48.67
2081,G1,365.5,0.125,25,48.67
2082,F#4,365.5,0.5,31,48.67
2083,A4,365.5,0.5,31,48.67
2084,G#1,365.75,0.125,25,48.67
2085,C#2,366.0,0.25,26,48.67
2086,C#4,366.0,1.0,30,48.67
2087,E4,366.0,1.0,30,48.67
2088,G#4,366.0,1.0,30,48.67
2089,G#2,366.5,0.5,22,48.67
2090,C#3,367.0,0.5,27,48.67
2091,G#3,367.0,1.5,27,48.67
2092,C#4,367.0,1.5,27,48.67
2093,E4,367.0,1.5,27,48.67
2094,C#5,367.5,0.5,29,48.67
2095,C#2,368.25,0.125,25,48.67
2096,C#2,368.5,0.125,25,48.67
2097,C2,368.75,0.125,25,48.67
2098,C#2,369.0,0.5,20,48.67
2099,C#4,369.0,2.5,29,48.67
2100,F4,369.0,2.5,29,48.67
2101,G#4,369.0,2.5,29,48.67
2102,C#3,369.5,0.5,20,48.67
2103,C#4,370.0,0.5,23,48.67
2104,C#5,370.5,0.5,28,48.67
2105,C#2,371.25,0.125,20,48.67
2106,E-2,371.5,0.125,20,48.67
2107,C#4,371.5,0.5,25,48.67
2108,G#4,371.5,0.5,25,48.67
2109,C#5,371.5,0.5,25,48.67
2110,F2,371.75,0.125,20,48.67
2111,C5,372.0,1.0,33,48.67
2112,F#1,372.0,0.5,19,48.67
2113,C#4,372.0,2.0,27,48.67
2114,F#4,372.0,2.0,27,48.67
2115,F#2,372.5,0.5,20,48.67
2116,B-4,373.0,1.5,33,48.67
2117,F#3,373.0,0.5,23,48.67
2118,B-5,373.5,0.5,27,48.67
2119,E-2,374.25,0.125,20,48.67
2120,F2,374.5,0.125,20,48.67
2121,C#4,374.5,0.5,25,48.67
2122,F4,374.5,0.5,25,48.67
2123,B-4,374.5,0.5,25,48.67
2124,F#2,374.75,0.125,20,48.67
2125,G#1,375.0,0.5,19,48.67
2126,C#4,375.0,1.0,29,48.67
2127,E-4,375.0,1.0,29,48.67
2128,B-4,375.0,1.0,29,48.67
2129,G#2,375.5,0.5,17,48.67
2130,G#3,376.0,0.5,21,48.67
2131,C4,376.0,1.5,25,48.67
2132,E-4,376.0,1.5,25,48.67
2133,G#4,376.0,1.5,25,48.67
2134,G#5,376.5,0.5,24,48.67
2135,G#1,377.25,0.125,20,48.67
2136,B-1,377.5,0.125,22,48.67
2137,B-3,377.5,0.5,26,48.67
2138,C#4,377.5,0.5,26,48.67
2139,F#4,377.5,0.5,26,48.67
2140,C2,377.75,0.125,22,48.67
2141,C#2,378.0,0.5,22,48.67
2142,G#3,378.0,1.0,26,48.67
2143,C#4,378.0,1.0,26,48.67
2144,F4,378.0,1.0,26,48.67
2145,G#2,378.5,0.5,19,48.67
2146,C#3,379.0,0.5,22,48.67
2147,F3,379.0,1.5,23,48.67
2148,G#3,379.0,1.5,23,48.67
2149,C#4,379.0,1.5,23,48.67
2150,C#5,379.5,0.5,25,48.67
2151,C#3,380.25,0.125,25,48.67
2152,C3,380.5,0.125,25,48.67
2153,G#3,380.5,0.5,26,48.67
2154,C#4,380.5,0.5,26,48.67
2155,F4,380.5,0.5,26,48.67
2156,C#3,380.75,0.125,25,48.67
2157,F4,381.0,0.75,34,48.67
2158,B-2,381.0,0.5,26,48.67
2159,G3,381.0,1.0,28,48.67
2160,C#4,381.0,1.0,28,48.67
2161,B-4,381.5,0.25,29,48.67
2162,E-4,381.75,0.25,34,48.67
2163,B-5,382.0,0.5,29,48.67
2164,G3,382.0,1.5,27,48.67
2165,C#4,382.0,1.5,27,48.67
2166,E-4,382.0,1.5,27,48.67
2167,B-2,383.25,0.125,25,48.67
2168,B-2,383.5,0.125,25,48.67
2169,G3,383.5,0.5,30,48.67
2170,C#4,383.5,0.5,30,48.67
2171,E-4,383.5,0.5,30,48.67
2172,C#3,383.75,0.125,25,48.67
2173,E4,384.0,0.75,37,48.67
2174,A2,384.0,0.5,26,48.67
2175,F#3,384.0,1.0,31,48.67
2176,C#4,384.0,1.0,31,48.67
2177,A4,384.5,0.25,29,48.67
2178,E-4,384.75,0.25,34,48.67
2179,A5,385.0,0.5,29,48.67
2180,F#3,385.0,1.5,27,48.67
2181,C#4,385.0,1.5,27,48.67
2182,E-4,385.0,1.5,27,48.67
2183,A2,386.25,0.125,25,48.67
2184,A2,386.5,0.125,25,48.67
2185,F#3,386.5,0.5,27,48.67
2186,C#4,386.5,0.5,27,48.67
2187,E-4,386.5,0.5,27,48.67
2188,C#3,386.75,0.125,25,48.67
2189,G#2,387.0,0.5,26,48.67
2190,F#3,387.0,1.5,30,48.67
2191,C4,387.0,1.5,30,48.67
2192,E-4,387.0,1.5,30,48.67
2193,G#4,387.5,0.25,27,48.67
2194,G#5,388.0,0.5,28,48.67
2195,F4,388.5,0.25,29,48.67
2196,F#4,388.75,0.25,29,48.67
2197,G#4,389.0,0.5,29,48.67
2198,G#2,389.25,0.125,25,48.67
2199,G2,389.5,0.125,25,48.67
2200,G#3,389.5,0.5,27,48.67
2201,C4,389.5,0.5,27,48.67
2202,E4,389.5,0.5,27,48.67
2203,G#2,389.75,0.125,25,48.67
2204,C#2,390.0,0.5,26,48.67
2205,G#3,390.0,2.5,30,48.67
2206,C#4,390.0,2.5,30,48.67
2207,F4,390.0,2.5,30,48.67
2208,C#3,390.5,0.25,27,48.67
2209,C#5,391.0,1.0,29,48.67
2210,C#2,392.25,0.125,22,48.67
2211,C2,392.5,0.125,22,48.67
2212,G#3,392.5,0.5,27,48.67
2213,C#4,392.5,0.5,27,48.67
2214,F4,392.5,0.5,27,48.67
2215,C#2,392.75,0.125,22,48.67
2216,F4,393.0,0.75,28,48.67
2217,B-1,393.0,0.25,22,48.67
2218,G3,393.0,1.0,23,48.67
2219,C#4,393.0,1.0,23,48.67
2220,B-2,393.5,0.25,24,48.67
2221,E-4,393.75,0.25,28,48.67
2222,B-4,394.0,1.0,24,48.67
2223,G3,394.0,1.5,22,48.67
2224,C#4,394.0,1.5,22,48.67
2225,E-4,394.0,1.5,22,48.67
2226,B-1,395.25,0.125,21,48.67
2227,B-1,395.5,0.125,21,48.67
2228,G3,395.5,0.5,25,48.67
2229,C#4,395.5,0.5,25,48.67
2230,E-4,395.5,0.5,25,48.67
2231,C#2,395.75,0.125,21,48.67
2232,E4,396.0,0.75,31,48.67
2233,A1,396.0,0.25,22,48.67
2234,F#3,396.0,1.0,26,48.67
2235,C#4,396.0,1.0,26,48.67
2236,A2,396.5,0.25,24,48.67
2237,E-4,396.75,0.25,28,48.67
2238,A4,397.0,0.5,24,48.67
2239,F#3,397.0,1.5,22,48.67
2240,C#4,397.0,1.5,22,48.67
2241,E-4,397.0,1.5,22,48.67
2242,A1,398.25,0.125,21,48.67
2243,A1,398.5,0.125,21,48.67
2244,F#3,398.5,0.5,22,48.67
2245,C#4,398.5,0.5,22,48.67
2246,E-4,398.5,0.5,22,48.67
2247,B1,398.75,0.125,21,48.67
2248,G#1,399.0,0.25,22,48.67
2249,F#3,399.0,1.5,25,48.67
2250,C4,399.0,1.5,25,48.67
2251,E-4,399.0,1.5,25,48.67
2252,G#2,399.5,0.25,24,48.67
2253,G#3,400.0,1.0,24,48.67
2254,F4,400.5,0.25,24,48.67
2255,F#4,400.75,0.25,24,48.67
2256,G#4,401.0,0.5,24,48.67
2257,G#1,401.25,0.125,21,48.67
2258,G1,401.5,0.125,21,48.67
2259,F#3,401.5,0.5,22,48.67
2260,A3,401.5,0.5,22,48.67
2261,C4,401.5,0.5,22,48.67
2262,G#1,401.75,0.125,21,48.67
2263,C#2,402.0,0.25,22,48.67
2264,C#4,402.0,2.5,22,48.67
2265,G#3,402.0,2.5,22,48.67
2266,F3,402.0,2.5,22,48.67
2267,C#3,402.5,0.25,22,48.67
2268,C#5,403.0,1.0,24,48.67
2269,C#2,404.25,0.125,21,48.67
2270,C#2,404.5,0.125,21,48.67
2271,C2,404.75,0.125,21,48.67
2272,C#2,405.0,0.25,22,48.67
2273,C#4,405.0,2.5,22,48.67
2274,B-3,405.0,2.5,22,48.67
2275,F#3,405.0,2.5,22,48.67
2276,C#3,405.5,0.25,22,48.67
2277,C#5,406.0,1.0,24,48.67
2278,C#2,407.25,0.125,21,48.67
2279,C#2,407.5,0.125,21,48.67
2280,C2,407.75,0.125,21,48.67
2281,C#2,408.0,0.25,22,48.67
2282,C#4,408.0,2.5,22,48.67
2283,F#3,408.0,2.5,22,48.67
2284,E-3,408.0,2.5,22,48.67
2285,C#3,408.5,0.25,22,48.67
2286,C#5,409.0,1.0,24,48.67
2287,C#2,410.25,0.125,21,48.67
2288,C#2,410.5,0.125,21,48.67
2289,C2,410.75,0.125,21,48.67
2290,C#2,411.0,0.5,22,48.67
2291,F3,411.0,1.0,22,48.67
2292,G#3,411.0,1.0,22,48.67
2293,C#4,411.0,1.0,22,48.67
2294,G#4,411.5,0.125,22,48.67
2295,C#5,412.0,0.125,23,48.67
2296,F3,412.0,1.0,19,48.67
2297,G#3,412.0,1.0,19,48.67
2298,C#4,412.0,1.0,19,48.67
2299,G#5,412.5,0.125,23,48.67
2300,C#6,413.0,0.125,23,48.67
2301,F3,413.0,1.0,19,48.67
2302,G#3,413.0,1.0,19,48.67
2303,C#4,413.0,1.0,19,48.67
2304,G#1,413.5,0.125,18,48.67
2305,C#2,414.0,3.0,19,48.67
2306,F3,414.0,3.0,19,48.67
2307,G#3,414.0,3.0,19,48.67
2308,C#4,414.0,3.0,19,48.67
