,note_name,start_time,duration,velocity,tempo
0,G4,0.0,2.938,90,79.0
1,G5,0.0,2.938,90,79.0
2,G2,0.0,2.938,65,79.0
3,G1,0.0,2.938,65,79.0
4,B4,3.0,0.75,44,79.0
5,C5,3.75,0.25,38,79.0
6,D5,4.0,88/125,51,79.0
7,D5,5.0,88/125,42,79.0
8,D5,6.0,88/125,42,79.0
9,C5,7.0,0.75,46,79.0
10,D5,7.75,0.25,47,79.0
11,E-5,8.0,1.5,53,79.0
12,D5,9.5,0.5,44,79.0
13,C5,10.0,1.0,39,79.0
14,D5,11.0,0.75,49,79.0
15,C5,11.75,0.25,42,79.0
16,B4,12.0,1.0,46,79.0
17,A4,13.0,0.75,44,79.0
18,B4,13.75,0.25,36,79.0
19,C5,14.0,1.0,48,79.0
20,D5,15.0,0.75,43,79.0
21,E-5,15.75,0.25,44,79.0
22,D5,16.0,3.0,51,79.0
23,G3,19.0,0.5,35,79.0
24,D4,19.0,251/500,39,79.0
25,G4,19.0,251/500,39,79.0
26,B4,19.0,251/500,39,79.0
27,G3,19.75,0.125,33,79.0
28,E-4,19.75,0.125,37,79.0
29,G4,19.75,0.125,37,79.0
30,C5,19.75,0.125,37,79.0
31,G3,20.0,0.5,40,79.0
32,F4,20.0,251/500,46,79.0
33,G4,20.0,251/500,46,79.0
34,D5,20.0,251/500,46,79.0
35,G3,21.0,0.5,33,79.0
36,F4,21.0,251/500,37,79.0
37,G4,21.0,251/500,37,79.0
38,D5,21.0,251/500,37,79.0
39,G3,22.0,0.5,33,79.0
40,F4,22.0,251/500,37,79.0
41,G4,22.0,251/500,37,79.0
42,D5,22.0,251/500,37,79.0
43,G3,23.0,0.5,46,79.0
44,E-4,23.0,251/500,39,79.0
45,G4,23.0,251/500,39,79.0
46,C5,23.0,251/500,39,79.0
47,G3,23.75,0.125,47,79.0
48,F4,23.75,0.125,42,79.0
49,G4,23.75,0.125,42,79.0
50,D5,23.75,0.125,42,79.0
51,G3,24.0,0.25,53,79.0
52,G4,24.0,1.75,49,79.0
53,E-5,24.0,1.75,49,79.0
54,A3,25.0,0.25,53,79.0
55,B3,25.75,0.125,43,79.0
56,F4,25.75,0.125,39,79.0
57,G4,25.75,0.125,39,79.0
58,D5,25.75,0.125,39,79.0
59,C4,26.0,0.5,49,79.0
60,E-4,26.0,0.5,35,79.0
61,G4,26.0,0.5,35,79.0
62,C5,26.0,0.5,35,79.0
63,F3,27.0,0.5,45,79.0
64,F4,27.0,251/500,44,79.0
65,G#4,27.0,251/500,44,79.0
66,D5,27.0,251/500,44,79.0
67,F3,27.75,0.125,36,79.0
68,E-4,27.75,0.125,40,79.0
69,G#4,27.75,0.125,40,79.0
70,C5,27.75,0.125,40,79.0
71,G3,28.0,1.75,44,79.0
72,D4,28.0,0.5,41,79.0
73,G4,28.0,0.5,41,79.0
74,B4,28.0,0.5,41,79.0
75,C4,29.0,251/500,39,79.0
76,G4,29.0,251/500,39,79.0
77,A4,29.0,251/500,39,79.0
78,D4,29.75,0.125,32,79.0
79,G4,29.75,0.125,32,79.0
80,B4,29.75,0.125,32,79.0
81,G3,29.75,0.125,33,79.0
82,F3,29.75,0.125,33,79.0
83,E-4,30.0,0.5,43,79.0
84,G4,30.0,0.5,43,79.0
85,C5,30.0,0.5,43,79.0
86,E-3,30.0,0.5,44,79.0
87,G3,30.0,0.5,44,79.0
88,G4,31.0,251/500,49,79.0
89,E-5,31.0,251/500,49,79.0
90,G2,31.0,0.5,49,79.0
91,G3,31.0,0.5,49,79.0
92,F4,31.75,0.125,39,79.0
93,G4,31.75,0.125,39,79.0
94,D5,31.75,0.125,39,79.0
95,G3,31.75,0.125,40,79.0
96,G2,31.75,0.125,40,79.0
97,E-4,32.0,3.0,46,79.0
98,G4,32.0,3.0,46,79.0
99,C5,32.0,3.0,46,79.0
100,C3,32.0,3.0,50,79.0
101,G3,32.0,3.0,50,79.0
102,D5,35.0,0.75,44,79.0
103,E-5,35.75,0.25,38,79.0
104,F5,36.0,88/125,51,79.0
105,F5,37.0,88/125,42,79.0
106,F5,38.0,88/125,42,79.0
107,E-5,39.0,0.75,46,79.0
108,D5,39.75,0.25,47,79.0
109,G5,40.0,1.5,53,79.0
110,F5,41.5,0.5,44,79.0
111,E-5,42.0,1.0,39,79.0
112,D5,43.0,0.75,49,79.0
113,C5,43.75,0.25,42,79.0
114,B4,44.0,1.0,46,79.0
115,A4,45.0,0.75,44,79.0
116,B4,45.75,0.25,36,79.0
117,C5,46.0,1.0,48,79.0
118,F5,47.0,0.75,43,79.0
119,E-5,47.75,0.25,44,79.0
120,D5,48.0,3.0,51,79.0
121,B-3,51.0,0.5,35,79.0
122,F4,51.0,251/500,39,79.0
123,B-4,51.0,251/500,39,79.0
124,D5,51.0,251/500,39,79.0
125,B-3,51.75,0.125,33,79.0
126,G4,51.75,0.125,37,79.0
127,B-4,51.75,0.125,37,79.0
128,E-5,51.75,0.125,37,79.0
129,B-3,52.0,0.5,40,79.0
130,G#4,52.0,251/500,46,79.0
131,B-4,52.0,251/500,46,79.0
132,F5,52.0,251/500,46,79.0
133,B-3,53.0,0.5,33,79.0
134,G#4,53.0,251/500,37,79.0
135,B-4,53.0,251/500,37,79.0
136,F5,53.0,251/500,37,79.0
137,B-3,54.0,0.5,33,79.0
138,G#4,54.0,251/500,37,79.0
139,B-4,54.0,251/500,37,79.0
140,F5,54.0,251/500,37,79.0
141,B-3,55.0,0.5,46,79.0
142,G4,55.0,251/500,41,79.0
143,B-4,55.0,251/500,41,79.0
144,E-5,55.0,251/500,41,79.0
145,B-3,55.75,0.125,47,79.0
146,F4,55.75,0.125,42,79.0
147,B-4,55.75,0.125,42,79.0
148,D5,55.75,0.125,42,79.0
149,B-3,56.0,0.25,53,79.0
150,B-4,56.0,1.75,52,79.0
151,G5,56.0,1.75,52,79.0
152,C4,57.0,0.25,53,79.0
153,D4,57.75,0.125,43,79.0
154,G#4,57.75,0.125,44,79.0
155,B-4,57.75,0.125,44,79.0
156,F5,57.75,0.125,44,79.0
157,E-4,58.0,0.5,49,79.0
158,G4,58.0,0.5,37,79.0
159,B-4,58.0,0.5,37,79.0
160,E-5,58.0,0.5,37,79.0
161,F3,59.0,0.5,45,79.0
162,F4,59.0,251/500,47,79.0
163,G#4,59.0,251/500,47,79.0
164,D5,59.0,251/500,47,79.0
165,F3,59.75,0.125,36,79.0
166,E-4,59.75,0.125,37,79.0
167,G#4,59.75,0.125,37,79.0
168,C5,59.75,0.125,37,79.0
169,G3,60.0,1.75,44,79.0
170,D4,60.0,0.5,41,79.0
171,G4,60.0,0.5,41,79.0
172,B4,60.0,0.5,41,79.0
173,C4,61.0,251/500,39,79.0
174,G4,61.0,251/500,39,79.0
175,A4,61.0,251/500,39,79.0
176,D4,61.75,0.125,32,79.0
177,G4,61.75,0.125,32,79.0
178,B4,61.75,0.125,32,79.0
179,F3,61.75,0.125,33,79.0
180,G3,61.75,0.125,33,79.0
181,E-4,62.0,0.5,43,79.0
182,G4,62.0,0.5,43,79.0
183,C5,62.0,0.5,43,79.0
184,E-3,62.0,0.5,44,79.0
185,G3,62.0,0.5,44,79.0
186,G4,63.0,251/500,49,79.0
187,E-5,63.0,251/500,49,79.0
188,G3,63.0,0.5,49,79.0
189,G2,63.0,0.5,49,79.0
190,F4,63.75,0.125,39,79.0
191,G4,63.75,0.125,39,79.0
192,D5,63.75,0.125,39,79.0
193,G3,63.75,0.125,40,79.0
194,G2,63.75,0.125,40,79.0
195,E-4,64.0,3.0,46,79.0
196,G4,64.0,3.0,46,79.0
197,C5,64.0,3.0,46,79.0
198,C3,64.0,3.0,50,79.0
199,G3,64.0,3.0,50,79.0
200,B4,67.0,0.75,48,79.0
201,C5,67.75,0.25,41,79.0
202,D5,68.0,88/125,56,79.0
203,F4,69.0,0.75,36,79.0
204,G#4,69.0,88/125,44,79.0
205,B4,69.0,88/125,44,79.0
206,D5,69.0,88/125,44,79.0
207,F#4,70.0,0.75,36,79.0
208,A4,70.0,88/125,41,79.0
209,C5,70.0,88/125,41,79.0
210,D5,70.0,88/125,41,79.0
211,A4,71.0,1.0,39,79.0
212,C5,71.0,0.75,50,79.0
213,F#4,71.0,1.0,33,79.0
214,D4,71.0,1.0,33,79.0
215,D5,71.75,0.25,51,79.0
216,C5,72.0,0.125,50,79.0
217,A4,72.0,3.0,49,79.0
218,F#4,72.0,3.0,39,79.0
219,C4,72.0,1.5,46,79.0
220,D5,72.125,0.125,53,79.0
221,E-5,72.25,1.25,58,79.0
222,D5,73.5,0.5,48,79.0
223,D4,73.5,0.5,46,79.0
224,C5,74.0,1.0,42,79.0
225,E-4,74.0,1.0,46,79.0
226,A4,75.0,1.0,40,79.0
227,D5,75.0,0.75,55,79.0
228,F#3,75.0,1.0,34,79.0
229,D4,75.0,1.0,34,79.0
230,C5,75.75,0.25,48,79.0
231,G4,76.0,1.0,48,79.0
232,B4,76.0,1.0,48,79.0
233,G3,76.0,1.0,38,79.0
234,D4,76.0,1.0,38,79.0
235,G4,77.0,0.75,50,79.0
236,A4,77.0,0.75,50,79.0
237,F3,77.0,0.75,38,79.0
238,D4,77.0,0.75,38,79.0
239,G3,77.0,0.75,38,79.0
240,G4,77.75,0.25,40,79.0
241,B4,77.75,0.25,40,79.0
242,G3,77.75,0.25,31,79.0
243,F3,77.75,0.25,31,79.0
244,D4,77.75,0.25,31,79.0
245,G4,78.0,1.0,54,79.0
246,C5,78.0,1.0,54,79.0
247,G3,78.0,1.0,42,79.0
248,E-3,78.0,1.0,42,79.0
249,C4,78.0,1.0,42,79.0
250,G4,79.0,0.75,56,79.0
251,D5,79.0,0.75,56,79.0
252,B3,79.0,0.75,43,79.0
253,G3,79.0,0.75,43,79.0
254,D3,79.0,0.75,43,79.0
255,G4,79.75,0.25,57,79.0
256,E-5,79.75,0.25,57,79.0
257,C3,79.75,0.25,44,79.0
258,C4,79.75,0.25,44,79.0
259,G3,79.75,0.25,44,79.0
260,G4,80.0,3.0,67,79.0
261,D5,80.0,3.0,67,79.0
262,B3,80.0,3.0,52,79.0
263,G3,80.0,3.0,52,79.0
264,D4,83.0,251/500,68,79.0
265,G4,83.0,251/500,68,79.0
266,B4,83.0,251/500,68,79.0
267,G3,83.0,0.5,56,79.0
268,G2,83.0,0.5,56,79.0
269,E-4,83.75,0.125,65,79.0
270,G4,83.75,0.125,65,79.0
271,C5,83.75,0.125,65,79.0
272,G3,83.75,0.125,52,79.0
273,G2,83.75,0.125,52,79.0
274,F4,84.0,251/500,79,79.0
275,G4,84.0,251/500,79,79.0
276,D5,84.0,251/500,79,79.0
277,G3,84.0,0.5,64,79.0
278,G2,84.0,0.5,64,79.0
279,F4,85.0,251/500,72,79.0
280,G4,85.0,251/500,72,79.0
281,D5,85.0,251/500,72,79.0
282,G3,85.0,0.5,60,79.0
283,G2,85.0,0.5,60,79.0
284,F4,86.0,251/500,72,79.0
285,G4,86.0,251/500,72,79.0
286,D5,86.0,251/500,72,79.0
287,G3,86.0,0.5,61,79.0
288,G2,86.0,0.5,61,79.0
289,E-4,87.0,251/500,72,79.0
290,G4,87.0,251/500,72,79.0
291,C5,87.0,251/500,72,79.0
292,G3,87.0,0.5,74,79.0
293,G2,87.0,0.5,74,79.0
294,F4,87.75,0.125,73,79.0
295,G4,87.75,0.125,73,79.0
296,D5,87.75,0.125,73,79.0
297,G2,87.75,0.125,61,79.0
298,G3,87.75,0.125,61,79.0
299,G4,88.0,1.75,85,79.0
300,E-5,88.0,1.75,85,79.0
301,G3,88.0,0.25,67,79.0
302,G2,88.0,0.25,67,79.0
303,A3,89.0,0.25,77,79.0
304,A2,89.0,0.25,77,79.0
305,F4,89.75,0.25,68,79.0
306,G4,89.75,0.25,68,79.0
307,D5,89.75,0.25,68,79.0
308,B2,89.75,0.25,62,79.0
309,B3,89.75,0.25,62,79.0
310,E-4,90.0,0.5,61,79.0
311,G4,90.0,0.5,61,79.0
312,C5,90.0,0.5,61,79.0
313,C3,90.0,0.5,71,79.0
314,C4,90.0,0.5,71,79.0
315,F4,91.0,251/500,76,79.0
316,G#4,91.0,251/500,76,79.0
317,D5,91.0,251/500,76,79.0
318,F3,91.0,0.5,57,79.0
319,F2,91.0,0.5,57,79.0
320,E-4,91.75,0.125,65,79.0
321,G#4,91.75,0.125,65,79.0
322,C5,91.75,0.125,65,79.0
323,F3,91.75,0.125,45,79.0
324,F2,91.75,0.125,45,79.0
325,D4,92.0,0.5,72,79.0
326,G4,92.0,0.5,72,79.0
327,B4,92.0,0.5,72,79.0
328,G2,92.0,0.5,56,79.0
329,G3,92.0,0.5,56,79.0
330,G3,93.0,0.5,61,79.0
331,C4,93.0,251/500,68,79.0
332,G4,93.0,251/500,68,79.0
333,A4,93.0,251/500,68,79.0
334,D4,93.75,0.125,55,79.0
335,G4,93.75,0.125,55,79.0
336,B4,93.75,0.125,55,79.0
337,G3,93.75,0.125,45,79.0
338,F3,93.75,0.125,45,79.0
339,E-4,94.0,0.5,74,79.0
340,G4,94.0,0.5,74,79.0
341,C5,94.0,0.5,74,79.0
342,E-3,94.0,0.5,61,79.0
343,G3,94.0,0.5,61,79.0
344,G4,95.0,251/500,85,79.0
345,E-5,95.0,251/500,85,79.0
346,G1,95.0,0.5,67,79.0
347,G2,95.0,0.5,67,79.0
348,F4,95.75,0.125,68,79.0
349,G4,95.75,0.125,68,79.0
350,D5,95.75,0.125,68,79.0
351,G2,95.75,0.125,56,79.0
352,G1,95.75,0.125,56,79.0
353,E-4,96.0,3.0,79,79.0
354,G4,96.0,3.0,79,79.0
355,C5,96.0,3.0,79,79.0
356,G2,96.0,3.0,70,79.0
357,C2,96.0,3.0,70,79.0
358,D5,99.0,0.75,55,79.0
359,E-5,99.75,0.25,47,79.0
360,F5,100.0,88/125,64,79.0
361,F4,101.0,0.75,41,79.0
362,B4,101.0,88/125,46,79.0
363,G#4,101.0,88/125,46,79.0
364,D5,101.0,88/125,46,79.0
365,F5,101.0,88/125,46,79.0
366,G#4,102.0,88/125,47,79.0
367,B-4,102.0,88/125,47,79.0
368,F5,102.0,88/125,47,79.0
369,D4,102.0,0.75,38,79.0
370,F4,102.0,0.75,38,79.0
371,E-5,103.0,0.125,47,79.0
372,B-4,103.0,1.0,39,79.0
373,G#4,103.0,1.0,39,79.0
374,B-3,103.0,1.0,38,79.0
375,F4,103.0,1.0,38,79.0
376,F5,103.125,0.125,47,79.0
377,E-5,103.25,0.5,70,79.0
378,D5,103.75,0.25,58,79.0
379,G5,104.0,1.75,66,79.0
380,E-4,104.0,1.0,52,79.0
381,B-4,104.0,1.0,56,79.0
382,G4,104.0,1.0,56,79.0
383,D5,105.0,1.0,40,79.0
384,G#4,105.0,1.0,40,79.0
385,B3,105.0,1.0,32,79.0
386,F4,105.0,1.0,32,79.0
387,D4,105.0,1.0,32,79.0
388,F5,105.75,0.25,55,79.0
389,G4,106.0,1.0,52,79.0
390,E-5,106.0,1.0,52,79.0
391,C4,106.0,1.0,48,79.0
392,E-4,106.0,1.0,48,79.0
393,G#4,107.0,1.0,46,79.0
394,F3,107.0,1.0,43,79.0
395,F4,107.0,0.75,58,79.0
396,D5,107.0,0.75,58,79.0
397,E-4,107.75,0.25,50,79.0
398,C5,107.75,0.25,50,79.0
399,G3,108.0,1.0,48,79.0
400,D4,108.0,1.0,53,79.0
401,G4,108.0,1.0,53,79.0
402,B4,108.0,1.0,53,79.0
403,G3,109.0,0.75,49,79.0
404,C4,109.0,0.75,55,79.0
405,G4,109.0,0.75,55,79.0
406,A4,109.0,0.75,55,79.0
407,D4,109.75,0.25,45,79.0
408,G4,109.75,0.25,45,79.0
409,B4,109.75,0.25,45,79.0
410,F3,109.75,0.25,37,79.0
411,G3,109.75,0.25,37,79.0
412,E-4,110.0,1.0,61,79.0
413,G4,110.0,1.0,61,79.0
414,C5,110.0,1.0,61,79.0
415,E-3,110.0,1.0,49,79.0
416,G3,110.0,1.0,49,79.0
417,G4,111.0,0.75,68,79.0
418,F5,111.0,0.75,68,79.0
419,D3,111.0,0.75,49,79.0
420,G3,111.0,0.75,49,79.0
421,B3,111.0,0.75,49,79.0
422,G4,111.75,0.25,66,79.0
423,E-5,111.75,0.25,66,79.0
424,C4,111.75,0.25,50,79.0
425,G3,111.75,0.25,50,79.0
426,C3,111.75,0.25,50,79.0
427,G4,112.0,3.0,78,79.0
428,D5,112.0,3.0,78,79.0
429,G3,112.0,3.0,60,79.0
430,B3,112.0,3.0,60,79.0
431,F4,115.0,251/500,74,79.0
432,B-4,115.0,251/500,74,79.0
433,D5,115.0,251/500,74,79.0
434,B-1,115.0,0.5,61,79.0
435,B-2,115.0,0.5,61,79.0
436,G4,115.75,0.125,71,79.0
437,B-4,115.75,0.125,71,79.0
438,E-5,115.75,0.125,71,79.0
439,B-2,115.75,0.125,56,79.0
440,B-1,115.75,0.125,56,79.0
441,G#4,116.0,251/500,80,79.0
442,B-4,116.0,251/500,80,79.0
443,F5,116.0,251/500,80,79.0
444,B-2,116.0,0.5,70,79.0
445,B-1,116.0,0.5,70,79.0
446,G#4,117.0,251/500,74,79.0
447,B-4,117.0,251/500,74,79.0
448,F5,117.0,251/500,74,79.0
449,B-1,117.0,0.5,63,79.0
450,B-2,117.0,0.5,63,79.0
451,G#4,118.0,251/500,74,79.0
452,B-4,118.0,251/500,74,79.0
453,F5,118.0,251/500,74,79.0
454,B-2,118.0,0.5,65,79.0
455,B-1,118.0,0.5,65,79.0
456,G4,119.0,251/500,72,79.0
457,B-4,119.0,251/500,72,79.0
458,E-5,119.0,251/500,72,79.0
459,B-2,119.0,0.5,80,79.0
460,B-1,119.0,0.5,80,79.0
461,F4,119.75,0.125,75,79.0
462,B-4,119.75,0.125,75,79.0
463,D5,119.75,0.125,75,79.0
464,B-1,119.75,0.125,65,79.0
465,B-2,119.75,0.125,65,79.0
466,B-4,120.0,1.75,92,79.0
467,G5,120.0,1.75,92,79.0
468,B-1,120.0,0.25,73,79.0
469,B-2,120.0,0.25,73,79.0
470,C2,121.0,0.25,84,79.0
471,C3,121.0,0.25,84,79.0
472,G#4,121.75,0.25,74,79.0
473,B-4,121.75,0.25,74,79.0
474,F5,121.75,0.25,74,79.0
475,D2,121.75,0.25,67,79.0
476,D3,121.75,0.25,67,79.0
477,G4,122.0,0.5,66,79.0
478,B-4,122.0,0.5,66,79.0
479,E-5,122.0,0.5,66,79.0
480,E-2,122.0,0.5,78,79.0
481,E-3,122.0,0.5,78,79.0
482,F4,123.0,251/500,82,79.0
483,G#4,123.0,251/500,82,79.0
484,D5,123.0,251/500,82,79.0
485,F2,123.0,0.5,62,79.0
486,F3,123.0,0.5,62,79.0
487,E-4,123.75,0.125,71,79.0
488,G#4,123.75,0.125,71,79.0
489,C5,123.75,0.125,71,79.0
490,F2,123.75,0.125,48,79.0
491,F3,123.75,0.125,48,79.0
492,D4,124.0,0.5,77,79.0
493,G4,124.0,0.5,77,79.0
494,B4,124.0,0.5,77,79.0
495,G3,124.0,0.5,61,79.0
496,G2,124.0,0.5,61,79.0
497,G3,125.0,0.5,66,79.0
498,C4,125.0,251/500,74,79.0
499,G4,125.0,251/500,74,79.0
500,A4,125.0,251/500,74,79.0
501,D4,125.75,0.125,60,79.0
502,G4,125.75,0.125,60,79.0
503,B4,125.75,0.125,60,79.0
504,G3,125.75,0.125,48,79.0
505,F3,125.75,0.125,48,79.0
506,E-4,126.0,0.5,81,79.0
507,G4,126.0,0.5,81,79.0
508,C5,126.0,0.5,81,79.0
509,E-3,126.0,0.5,65,79.0
510,G3,126.0,0.5,65,79.0
511,G4,127.0,251/500,92,79.0
512,E-5,127.0,251/500,92,79.0
513,G2,127.0,0.5,73,79.0
514,G1,127.0,0.5,73,79.0
515,F4,127.75,0.125,74,79.0
516,G4,127.75,0.125,74,79.0
517,D5,127.75,0.125,74,79.0
518,G2,127.75,0.125,61,79.0
519,G1,127.75,0.125,61,79.0
520,E-4,128.0,3.0,86,79.0
521,G4,128.0,3.0,86,79.0
522,C5,128.0,3.0,86,79.0
523,G2,128.0,3.0,76,79.0
524,C2,128.0,3.0,76,79.0
525,E-5,131.0,0.75,78,79.0
526,D5,131.75,0.25,70,79.0
527,E-4,132.0,3.0,75,79.0
528,G#4,132.0,3.0,75,79.0
529,C5,132.0,3.0,75,79.0
530,G#2,132.0,3.0,65,79.0
531,E-3,132.0,3.0,65,79.0
532,G#3,132.0,3.0,65,79.0
533,C5,135.0,0.125,69,79.0
534,E-5,135.125,0.625,78,79.0
535,D5,135.75,0.25,70,79.0
536,G4,136.0,3.0,77,79.0
537,C5,136.0,3.0,77,79.0
538,C3,136.0,3.0,65,79.0
539,E-2,136.0,3.0,65,79.0
540,E-3,136.0,3.0,65,79.0
541,D5,139.0,0.75,78,79.0
542,C3,139.0,1.0,52,79.0
543,C4,139.0,1.0,52,79.0
544,E-5,139.75,0.25,67,79.0
545,G#4,140.0,1.0,66,79.0
546,C5,140.0,1.0,66,79.0
547,F5,140.0,1.0,66,79.0
548,F3,140.0,1.0,52,79.0
549,F2,140.0,1.0,52,79.0
550,G4,141.0,251/500,63,79.0
551,C5,141.0,251/500,63,79.0
552,E-5,141.0,251/500,63,79.0
553,G2,141.0,0.5,52,79.0
554,G3,141.0,0.5,52,79.0
555,F4,141.75,0.125,52,79.0
556,D5,141.75,0.125,52,79.0
557,G#2,141.75,0.125,42,79.0
558,G#3,141.75,0.125,42,79.0
559,E-4,142.0,1.0,70,79.0
560,C5,142.0,1.0,70,79.0
561,G3,142.0,1.0,56,79.0
562,G2,142.0,1.0,56,79.0
563,G4,143.0,1.0,64,79.0
564,D4,143.0,1.0,64,79.0
565,B4,143.0,1.0,64,79.0
566,G2,143.0,1.0,52,79.0
567,G1,143.0,1.0,52,79.0
568,E-4,144.0,3.0,61,79.0
569,G4,144.0,3.0,61,79.0
570,C5,144.0,3.0,61,79.0
571,G4,144.0,1/250,64,79.0
572,D4,144.0,1/250,64,79.0
573,B4,144.0,1/250,64,79.0
574,C3,144.0,3.0,53,79.0
575,G2,144.0,3.0,53,79.0
576,C2,144.0,3.0,53,79.0
577,E-5,147.0,0.75,60,79.0
578,D5,147.75,0.25,54,79.0
579,E-4,148.0,3.0,58,79.0
580,G#4,148.0,3.0,58,79.0
581,C5,148.0,3.0,58,79.0
582,G#2,148.0,3.0,50,79.0
583,E-3,148.0,3.0,50,79.0
584,G#3,148.0,3.0,50,79.0
585,E-5,151.0,0.75,59,79.0
586,D5,151.75,0.25,52,79.0
587,G4,152.0,3.0,56,79.0
588,C5,152.0,3.0,56,79.0
589,E-2,152.0,3.0,53,79.0
590,C3,152.0,3.0,53,79.0
591,E-3,152.0,3.0,53,79.0
592,C#5,155.0,0.75,54,79.0
593,E-5,155.75,0.25,46,79.0
594,C#5,156.0,0.125,40,79.0
595,G#4,156.0,1.0,40,79.0
596,C#3,156.0,1.0,39,79.0
597,E-5,156.125,0.125,43,79.0
598,F5,156.25,0.75,51,79.0
599,E-3,157.0,0.5,39,79.0
600,G#4,157.0,251/500,45,79.0
601,E-5,157.0,251/500,45,79.0
602,F3,157.75,0.125,31,79.0
603,G#4,157.75,0.125,36,79.0
604,C#5,157.75,0.125,36,79.0
605,E-3,158.0,0.5,42,79.0
606,G#4,158.0,0.5,48,79.0
607,C5,158.0,0.5,48,79.0
608,E-4,159.0,251/500,39,79.0
609,G4,159.0,251/500,39,79.0
610,C#4,159.0,251/500,39,79.0
611,B-4,159.0,251/500,39,79.0
612,E-3,159.0,0.5,32,79.0
613,E-2,159.0,0.5,32,79.0
614,G#2,160.0,333/1000,40,79.0
615,C4,160.0,2.0,42,79.0
616,E-4,160.0,2.0,42,79.0
617,G#4,160.0,2.0,42,79.0
618,C3,160.333,333/1000,33,79.0
619,E-3,160.667,333/1000,33,79.0
620,C3,161.0,333/1000,40,79.0
621,E-3,161.333,333/1000,29,79.0
622,G#3,161.667,333/1000,30,79.0
623,B2,162.0,333/1000,40,79.0
624,D3,162.333,333/1000,33,79.0
625,G#3,162.667,333/1000,33,79.0
626,G#4,163.0,0.75,53,79.0
627,C3,163.0,333/1000,40,79.0
628,E-3,163.333,333/1000,35,79.0
629,G#3,163.667,333/1000,35,79.0
630,C5,163.75,0.25,47,79.0
631,E-5,164.0,0.75,57,79.0
632,G#2,164.0,333/1000,40,79.0
633,C3,164.333,333/1000,33,79.0
634,G#3,164.667,333/1000,33,79.0
635,E-5,165.0,0.75,51,79.0
636,C3,165.0,333/1000,40,79.0
637,E-3,165.333,333/1000,29,79.0
638,G#3,165.667,333/1000,30,79.0
639,E-5,166.0,0.75,53,79.0
640,B2,166.0,333/1000,40,79.0
641,D3,166.333,333/1000,33,79.0
642,G#3,166.667,333/1000,33,79.0
643,E-5,167.0,0.75,52,79.0
644,C3,167.0,333/1000,40,79.0
645,E-3,167.333,333/1000,35,79.0
646,G#3,167.667,333/1000,35,79.0
647,F5,168.0,2.0,58,79.0
648,C#3,168.0,333/1000,40,79.0
649,F3,168.333,333/1000,33,79.0
650,G#3,168.667,333/1000,33,79.0
651,C#3,169.0,333/1000,40,79.0
652,G3,169.333,333/1000,29,79.0
653,B-3,169.667,333/1000,30,79.0
654,E-5,170.0,2.0,55,79.0
655,C3,170.0,333/1000,40,79.0
656,G#3,170.333,333/1000,33,79.0
657,C4,170.667,333/1000,33,79.0
658,C3,171.0,333/1000,40,79.0
659,E-3,171.333,333/1000,35,79.0
660,G#3,171.667,333/1000,35,79.0
661,C#5,172.0,2.0,58,79.0
662,B-2,172.0,333/1000,40,79.0
663,E-3,172.333,333/1000,33,79.0
664,G#3,172.667,333/1000,33,79.0
665,B-2,173.0,333/1000,40,79.0
666,E-3,173.333,333/1000,29,79.0
667,G3,173.667,333/1000,30,79.0
668,C5,174.0,2.0,52,79.0
669,G#2,174.0,333/1000,35,79.0
670,E-3,174.333,333/1000,28,79.0
671,B-3,174.667,333/1000,28,79.0
672,G#2,175.0,333/1000,35,79.0
673,E-3,175.333,333/1000,27,79.0
674,G#3,175.667,333/1000,35,79.0
675,B-4,176.0,1.0,40,79.0
676,C#3,176.0,333/1000,30,79.0
677,G#3,176.333,333/1000,24,79.0
678,B-3,176.667,333/1000,24,79.0
679,C#5,177.0,1.0,34,79.0
680,F3,177.0,333/1000,32,79.0
681,G#3,177.333,333/1000,23,79.0
682,C#4,177.667,333/1000,24,79.0
683,C5,178.0,1.0,40,79.0
684,E-3,178.0,333/1000,30,79.0
685,G#3,178.333,333/1000,23,79.0
686,C4,178.667,333/1000,23,79.0
687,B-4,179.0,1.0,37,79.0
688,E-3,179.0,333/1000,29,79.0
689,G3,179.333,333/1000,23,79.0
690,B-3,179.667,333/1000,23,79.0
691,G#4,180.0,2.0,48,79.0
692,G#2,180.0,333/1000,33,79.0
693,C3,180.333,333/1000,23,79.0
694,G#3,180.667,333/1000,23,79.0
695,C3,181.0,333/1000,31,79.0
696,E-3,181.333,333/1000,25,79.0
697,G#3,181.667,333/1000,26,79.0
698,B2,182.0,333/1000,40,79.0
699,D3,182.333,333/1000,31,79.0
700,G#3,182.667,333/1000,31,79.0
701,G#4,183.0,0.75,53,79.0
702,C3,183.0,333/1000,40,79.0
703,E-3,183.333,333/1000,35,79.0
704,G#3,183.667,333/1000,35,79.0
705,C5,183.75,0.25,47,79.0
706,E-5,184.0,88/125,57,79.0
707,G#2,184.0,333/1000,40,79.0
708,C3,184.333,333/1000,33,79.0
709,G#3,184.667,333/1000,33,79.0
710,C3,185.0,333/1000,40,79.0
711,E-4,185.0,0.75,46,79.0
712,E-5,185.0,0.75,46,79.0
713,E-3,185.333,333/1000,29,79.0
714,G#3,185.667,333/1000,30,79.0
715,B2,186.0,333/1000,40,79.0
716,E-4,186.0,0.75,49,79.0
717,E-5,186.0,0.75,49,79.0
718,D3,186.333,333/1000,33,79.0
719,G#3,186.667,333/1000,33,79.0
720,C3,187.0,333/1000,40,79.0
721,E-4,187.0,0.75,48,79.0
722,E-5,187.0,0.75,48,79.0
723,E-3,187.333,333/1000,35,79.0
724,G#3,187.667,333/1000,35,79.0
725,C#3,188.0,333/1000,40,79.0
726,E4,188.0,2.0,54,79.0
727,E5,188.0,2.0,54,79.0
728,E3,188.333,333/1000,33,79.0
729,G#3,188.667,333/1000,33,79.0
730,C#3,189.0,333/1000,40,79.0
731,E3,189.333,333/1000,29,79.0
732,B-3,189.667,333/1000,30,79.0
733,B2,190.0,333/1000,40,79.0
734,E-4,190.0,2.0,50,79.0
735,E-5,190.0,2.0,50,79.0
736,F#3,190.333,333/1000,33,79.0
737,B3,190.667,333/1000,33,79.0
738,B2,191.0,333/1000,40,79.0
739,F#3,191.333,333/1000,35,79.0
740,B3,191.667,333/1000,35,79.0
741,C#5,192.0,2.0,58,79.0
742,E3,192.0,333/1000,40,79.0
743,G#3,192.333,333/1000,33,79.0
744,C#4,192.667,333/1000,33,79.0
745,E3,193.0,333/1000,40,79.0
746,F#3,193.333,333/1000,29,79.0
747,B-3,193.667,333/1000,30,79.0
748,B4,194.0,1.5,52,79.0
749,E-3,194.0,333/1000,35,79.0
750,F#3,194.333,333/1000,28,79.0
751,B3,194.667,333/1000,28,79.0
752,E-3,195.0,333/1000,35,79.0
753,G3,195.333,333/1000,27,79.0
754,B-4,195.5,0.5,45,79.0
755,C#4,195.667,333/1000,35,79.0
756,G#4,196.0,1.0,40,79.0
757,E3,196.0,333/1000,30,79.0
758,G#3,196.333,333/1000,24,79.0
759,B3,196.667,333/1000,24,79.0
760,G#4,197.0,0.125,33,79.0
761,G#3,197.0,333/1000,32,79.0
762,E5,197.125,0.875,52,79.0
763,B3,197.333,333/1000,23,79.0
764,E4,197.667,333/1000,24,79.0
765,E-5,198.0,1.0,46,79.0
766,F#3,198.0,333/1000,30,79.0
767,B3,198.333,333/1000,23,79.0
768,E-4,198.667,333/1000,23,79.0
769,C#5,199.0,1.0,42,79.0
770,F#3,199.0,333/1000,29,79.0
771,B-3,199.333,333/1000,23,79.0
772,C#4,199.667,333/1000,23,79.0
773,B4,200.0,3.0,48,79.0
774,B2,200.0,333/1000,33,79.0
775,E-3,200.333,333/1000,23,79.0
776,B3,200.667,333/1000,23,79.0
777,E-3,201.0,333/1000,31,79.0
778,F#3,201.333,333/1000,25,79.0
779,B3,201.667,333/1000,27,79.0
780,D3,202.0,333/1000,42,79.0
781,F3,202.333,333/1000,32,79.0
782,B3,202.667,333/1000,32,79.0
783,B4,203.0,0.75,57,79.0
784,E-3,203.0,333/1000,42,79.0
785,F#3,203.333,333/1000,37,79.0
786,B3,203.667,333/1000,38,79.0
787,E-5,203.75,0.25,50,79.0
788,B2,204.0,333/1000,44,79.0
789,F#4,204.0,499/500,54,79.0
790,F#5,204.0,499/500,54,79.0
791,E-3,204.333,333/1000,36,79.0
792,F#3,204.667,333/1000,37,79.0
793,B2,205.0,333/1000,47,79.0
794,F#4,205.0,499/500,54,79.0
795,F#5,205.0,499/500,54,79.0
796,E-3,205.333,333/1000,34,79.0
797,F#3,205.667,333/1000,36,79.0
798,B-2,206.0,333/1000,51,79.0
799,G4,206.0,499/500,62,79.0
800,G5,206.0,499/500,62,79.0
801,C#3,206.333,333/1000,48,79.0
802,E-3,206.667,333/1000,49,79.0
803,G#2,207.0,333/1000,62,79.0
804,G#4,207.0,499/500,65,79.0
805,G#5,207.0,499/500,65,79.0
806,C#3,207.333,333/1000,55,79.0
807,E-3,207.667,333/1000,56,79.0
808,G2,208.0,333/1000,72,79.0
809,B-4,208.0,499/500,72,79.0
810,B-5,208.0,499/500,72,79.0
811,C#3,208.333,333/1000,58,79.0
812,E-3,208.667,333/1000,62,79.0
813,G2,209.0,333/1000,69,79.0
814,C#5,209.0,499/500,70,79.0
815,C#6,209.0,499/500,70,79.0
816,B-2,209.333,333/1000,48,79.0
817,E-3,209.667,333/1000,55,79.0
818,G#2,210.0,333/1000,62,79.0
819,B4,210.0,499/500,68,79.0
820,B5,210.0,499/500,68,79.0
821,B2,210.333,333/1000,49,79.0
822,E-3,210.667,333/1000,48,79.0
823,C#3,211.0,333/1000,44,79.0
824,B-4,211.0,0.75,54,79.0
825,B-5,211.0,0.75,54,79.0
826,E3,211.333,333/1000,38,79.0
827,B-3,211.667,333/1000,38,79.0
828,G#4,211.75,0.25,46,79.0
829,G#5,211.75,0.25,46,79.0
830,E-3,212.0,333/1000,33,79.0
831,G4,212.0,1.0,54,79.0
832,G5,212.0,1.0,54,79.0
833,B-3,212.333,333/1000,27,79.0
834,C#4,212.667,333/1000,27,79.0
835,E-3,213.0,333/1000,34,79.0
836,G4,213.0,1.0,50,79.0
837,G5,213.0,1.0,50,79.0
838,B-3,213.333,333/1000,25,79.0
839,C#4,213.667,333/1000,26,79.0
840,E-3,214.0,333/1000,36,79.0
841,G#4,214.0,0.5,49,79.0
842,G#5,214.0,0.5,49,79.0
843,B-3,214.333,333/1000,29,79.0
844,G4,214.5,0.5,41,79.0
845,G5,214.5,0.5,41,79.0
846,C#4,214.667,333/1000,29,79.0
847,E-3,215.0,333/1000,35,79.0
848,F4,215.0,0.5,42,79.0
849,F5,215.0,0.5,42,79.0
850,B-3,215.333,333/1000,28,79.0
851,G4,215.5,0.5,41,79.0
852,G5,215.5,0.5,41,79.0
853,C#4,215.667,333/1000,28,79.0
854,G#3,216.0,333/1000,33,79.0
855,G#4,216.0,3.0,44,79.0
856,G#5,216.0,3.0,44,79.0
857,C4,216.333,333/1000,23,79.0
858,E-4,216.667,333/1000,23,79.0
859,C4,217.0,333/1000,31,79.0
860,E-4,217.333,333/1000,25,79.0
861,G#4,217.667,333/1000,27,79.0
862,B3,218.0,333/1000,38,79.0
863,D4,218.333,333/1000,32,79.0
864,G#4,218.667,333/1000,32,79.0
865,G#5,219.0,0.75,57,79.0
866,C4,219.0,333/1000,42,79.0
867,E-4,219.333,333/1000,37,79.0
868,G#4,219.667,333/1000,38,79.0
869,C6,219.75,0.25,50,79.0
870,G#3,220.0,333/1000,44,79.0
871,E-5,220.0,0.75,62,79.0
872,E-6,220.0,0.75,62,79.0
873,C4,220.333,333/1000,36,79.0
874,G#4,220.667,333/1000,37,79.0
875,C4,221.0,333/1000,47,79.0
876,E-5,221.0,0.75,57,79.0
877,E-6,221.0,0.75,57,79.0
878,E-4,221.333,333/1000,34,79.0
879,G#4,221.667,333/1000,36,79.0
880,B3,222.0,333/1000,50,79.0
881,E-5,222.0,0.75,62,79.0
882,E-6,222.0,0.75,62,79.0
883,D4,222.333,333/1000,42,79.0
884,G#4,222.667,333/1000,43,79.0
885,C4,223.0,333/1000,55,79.0
886,E-5,223.0,0.75,66,79.0
887,E-6,223.0,0.75,66,79.0
888,E-4,223.333,333/1000,47,79.0
889,G#4,223.667,333/1000,45,79.0
890,C#4,224.0,333/1000,61,79.0
891,F5,224.0,499/500,64,79.0
892,F6,224.0,499/500,64,79.0
893,F4,224.333,333/1000,46,79.0
894,G#4,224.667,333/1000,51,79.0
895,C#4,225.0,333/1000,61,79.0
896,G5,225.0,499/500,64,79.0
897,G6,225.0,499/500,64,79.0
898,E-4,225.333,333/1000,49,79.0
899,B-4,225.667,333/1000,49,79.0
900,C4,226.0,333/1000,57,79.0
901,G#5,226.0,499/500,64,79.0
902,G#6,226.0,499/500,64,79.0
903,E-4,226.333,333/1000,45,79.0
904,G#4,226.667,333/1000,44,79.0
905,C4,227.0,333/1000,44,79.0
906,E-5,227.0,0.75,56,79.0
907,E-6,227.0,0.75,56,79.0
908,E-4,227.333,333/1000,38,79.0
909,G#4,227.667,333/1000,38,79.0
910,B-3,228.0,333/1000,44,79.0
911,E-5,228.0,1.0,61,79.0
912,E-6,228.0,1.0,61,79.0
913,E-4,228.333,333/1000,36,79.0
914,B-4,228.667,333/1000,37,79.0
915,B-3,229.0,333/1000,47,79.0
916,C#5,229.0,0.5,50,79.0
917,C#6,229.0,0.5,50,79.0
918,E-4,229.333,333/1000,34,79.0
919,G4,229.667,333/1000,36,79.0
920,G#3,230.0,333/1000,45,79.0
921,C#5,230.0,1.0,57,79.0
922,C#6,230.0,1.0,57,79.0
923,E-4,230.333,333/1000,36,79.0
924,G#4,230.667,333/1000,36,79.0
925,G#3,231.0,333/1000,46,79.0
926,C5,231.0,0.5,50,79.0
927,C6,231.0,0.5,50,79.0
928,E-4,231.333,333/1000,37,79.0
929,G#4,231.667,333/1000,36,79.0
930,B-5,232.0,1.0,56,79.0
931,C#4,232.0,333/1000,30,79.0
932,G#4,232.333,333/1000,24,79.0
933,B-4,232.667,333/1000,24,79.0
934,C#6,233.0,1.0,50,79.0
935,F4,233.0,333/1000,32,79.0
936,G#4,233.333,333/1000,23,79.0
937,C#5,233.667,333/1000,24,79.0
938,C6,234.0,1.0,57,79.0
939,E-4,234.0,333/1000,30,79.0
940,G#4,234.333,333/1000,23,79.0
941,C5,234.667,333/1000,23,79.0
942,B-5,235.0,1.0,49,79.0
943,E-4,235.0,333/1000,29,79.0
944,G4,235.333,333/1000,23,79.0
945,B-4,235.667,333/1000,23,79.0
946,G#5,236.0,333/1000,53,79.0
947,C4,236.0,0.5,27,79.0
948,G#3,236.0,0.5,27,79.0
949,G#4,236.0,0.5,27,79.0
950,E-4,236.333,333/1000,48,79.0
951,G#4,236.667,333/1000,48,79.0
952,C5,237.0,333/1000,59,79.0
953,G#4,237.333,333/1000,48,79.0
954,E-4,237.667,333/1000,49,79.0
955,E-5,238.0,333/1000,59,79.0
956,C5,238.333,333/1000,53,79.0
957,G#4,238.667,333/1000,54,79.0
958,G#4,239.0,333/1000,59,79.0
959,G#3,239.0,0.75,58,79.0
960,C5,239.333,333/1000,53,79.0
961,E-5,239.667,333/1000,53,79.0
962,C4,239.75,0.25,51,79.0
963,E-5,240.0,333/1000,59,79.0
964,E-4,240.0,0.75,62,79.0
965,B-4,240.333,333/1000,53,79.0
966,G4,240.667,333/1000,53,79.0
967,E-5,241.0,333/1000,59,79.0
968,E-4,241.0,0.75,56,79.0
969,B-4,241.333,333/1000,52,79.0
970,G4,241.667,333/1000,52,79.0
971,E-5,242.0,333/1000,59,79.0
972,E-4,242.0,0.75,58,79.0
973,C5,242.333,333/1000,51,79.0
974,G#4,242.667,333/1000,51,79.0
975,B-4,243.0,333/1000,62,79.0
976,E-4,243.0,0.75,57,79.0
977,E-5,243.333,333/1000,55,79.0
978,G5,243.667,333/1000,57,79.0
979,G#5,244.0,333/1000,66,79.0
980,F4,244.0,2.0,63,79.0
981,E-5,244.333,333/1000,59,79.0
982,G#4,244.667,333/1000,59,79.0
983,G#5,245.0,333/1000,67,79.0
984,D5,245.333,333/1000,59,79.0
985,G#4,245.667,333/1000,59,79.0
986,G#5,246.0,333/1000,65,79.0
987,E-4,246.0,2.0,60,79.0
988,E-5,246.333,333/1000,54,79.0
989,B-4,246.667,0.312,54,79.0
990,B-4,247.0,333/1000,61,79.0
991,E-5,247.333,333/1000,52,79.0
992,G5,247.667,333/1000,52,79.0
993,F5,248.0,333/1000,59,79.0
994,C#4,248.0,2.0,63,79.0
995,B-4,248.333,333/1000,51,79.0
996,G4,248.667,333/1000,52,79.0
997,F5,249.0,333/1000,59,79.0
998,B4,249.333,333/1000,53,79.0
999,G4,249.667,333/1000,53,79.0
1000,F5,250.0,333/1000,57,79.0
1001,C4,250.0,2.0,57,79.0
1002,C5,250.333,333/1000,51,79.0
1003,G#4,250.667,0.312,51,79.0
1004,G#4,251.0,333/1000,59,79.0
1005,C5,251.333,333/1000,52,79.0
1006,E-5,251.667,333/1000,52,79.0
1007,C#4,252.0,333/1000,59,79.0
1008,B-3,252.0,1.0,57,79.0
1009,G#4,252.333,333/1000,54,79.0
1010,C#5,252.667,333/1000,54,79.0
1011,F4,253.0,333/1000,59,79.0
1012,C#4,253.0,1.0,55,79.0
1013,G#4,253.333,333/1000,55,79.0
1014,B-4,253.667,333/1000,56,79.0
1015,E-4,254.0,333/1000,59,79.0
1016,C4,254.0,1.0,61,79.0
1017,G#4,254.333,333/1000,54,79.0
1018,C5,254.667,333/1000,54,79.0
1019,E-4,255.0,1.0,64,79.0
1020,G4,255.0,1.0,64,79.0
1021,E-3,255.0,1.0,50,79.0
1022,B-3,255.0,1.0,50,79.0
1023,E-5,255.333,333/1000,63,79.0
1024,C#5,255.667,333/1000,67,79.0
1025,E-4,256.0,333/1000,64,79.0
1026,G#4,256.0,333/1000,64,79.0
1027,C5,256.0,333/1000,64,79.0
1028,G#3,256.0,1.0,54,79.0
1029,E-3,256.0,1.0,54,79.0
1030,G#2,256.0,1.0,54,79.0
1031,E-4,256.333,333/1000,59,79.0
1032,G#4,256.667,333/1000,59,79.0
1033,C5,257.0,333/1000,67,79.0
1034,G#4,257.333,333/1000,56,79.0
1035,E-4,257.667,333/1000,56,79.0
1036,E-5,258.0,333/1000,66,79.0
1037,C5,258.333,333/1000,57,79.0
1038,G#4,258.667,0.312,57,79.0
1039,G#4,259.0,333/1000,68,79.0
1040,G#3,259.0,0.75,63,79.0
1041,G#2,259.0,0.75,63,79.0
1042,C5,259.333,333/1000,60,79.0
1043,E-5,259.667,333/1000,60,79.0
1044,C3,259.75,0.25,56,79.0
1045,C4,259.75,0.25,56,79.0
1046,E-5,260.0,333/1000,69,79.0
1047,E-3,260.0,88/125,68,79.0
1048,E-4,260.0,88/125,68,79.0
1049,B-4,260.333,333/1000,59,79.0
1050,G4,260.667,333/1000,59,79.0
1051,E-5,261.0,333/1000,70,79.0
1052,E-4,261.0,0.75,56,79.0
1053,E-3,261.0,0.75,56,79.0
1054,B-4,261.333,333/1000,57,79.0
1055,G4,261.667,333/1000,57,79.0
1056,E-5,262.0,333/1000,71,79.0
1057,E-3,262.0,0.75,58,79.0
1058,E-4,262.0,0.75,58,79.0
1059,B4,262.333,333/1000,61,79.0
1060,G#4,262.667,333/1000,59,79.0
1061,B-4,263.0,333/1000,68,79.0
1062,E-3,263.0,0.75,57,79.0
1063,E-4,263.0,0.75,57,79.0
1064,E-5,263.333,333/1000,62,79.0
1065,G5,263.667,333/1000,63,79.0
1066,G#5,264.0,333/1000,68,79.0
1067,E3,264.0,2.0,64,79.0
1068,E4,264.0,2.0,64,79.0
1069,E-5,264.333,333/1000,58,79.0
1070,G#4,264.667,333/1000,58,79.0
1071,G#5,265.0,333/1000,67,79.0
1072,C#5,265.333,333/1000,59,79.0
1073,B-4,265.667,333/1000,59,79.0
1074,G#5,266.0,333/1000,67,79.0
1075,E-3,266.0,2.0,60,79.0
1076,E-4,266.0,2.0,60,79.0
1077,E-5,266.333,333/1000,57,79.0
1078,B4,266.667,0.312,57,79.0
1079,B4,267.0,333/1000,65,79.0
1080,E-5,267.333,333/1000,57,79.0
1081,F#5,267.667,333/1000,57,79.0
1082,E5,268.0,333/1000,65,79.0
1083,C#3,268.0,2.0,64,79.0
1084,C#4,268.0,2.0,64,79.0
1085,B4,268.333,333/1000,55,79.0
1086,G4,268.667,333/1000,55,79.0
1087,E5,269.0,333/1000,62,79.0
1088,B-4,269.333,333/1000,53,79.0
1089,G4,269.667,333/1000,53,79.0
1090,E5,270.0,333/1000,64,79.0
1091,B3,270.0,1.5,62,79.0
1092,B2,270.0,2.0,52,79.0
1093,B4,270.333,333/1000,55,79.0
1094,G#4,270.667,0.312,55,79.0
1095,G#4,271.0,333/1000,65,79.0
1096,B4,271.333,333/1000,56,79.0
1097,B-3,271.5,0.5,68,79.0
1098,E-5,271.667,333/1000,56,79.0
1099,G#4,272.0,333/1000,66,79.0
1100,G#3,272.0,1.0,56,79.0
1101,E3,272.0,1.0,56,79.0
1102,B4,272.333,333/1000,59,79.0
1103,C#5,272.667,333/1000,57,79.0
1104,G#4,273.0,333/1000,67,79.0
1105,C#3,273.0,1.0,49,79.0
1106,G#3,273.0,1.0,49,79.0
1107,E4,273.0,1.0,49,79.0
1108,B4,273.333,333/1000,56,79.0
1109,E5,273.667,333/1000,56,79.0
1110,F#4,274.0,333/1000,66,79.0
1111,E-4,274.0,1.0,52,79.0
1112,F#3,274.0,1.0,52,79.0
1113,B4,274.333,333/1000,56,79.0
1114,E-5,274.667,333/1000,56,79.0
1115,F#4,275.0,1.0,62,79.0
1116,B-4,275.0,1.0,62,79.0
1117,F#3,275.0,1.0,46,79.0
1118,C#4,275.0,1.0,46,79.0
1119,F#5,275.333,333/1000,57,79.0
1120,E5,275.667,333/1000,57,79.0
1121,F#4,276.0,333/1000,53,79.0
1122,B4,276.0,333/1000,53,79.0
1123,E-5,276.0,333/1000,53,79.0
1124,B2,276.0,1.0,53,79.0
1125,F#3,276.0,1.0,53,79.0
1126,B3,276.0,1.0,53,79.0
1127,E-4,276.333,333/1000,48,79.0
1128,F#4,276.667,333/1000,48,79.0
1129,B4,277.0,333/1000,59,79.0
1130,F#4,277.333,333/1000,48,79.0
1131,E-4,277.667,333/1000,49,79.0
1132,E-5,278.0,333/1000,59,79.0
1133,B4,278.333,333/1000,53,79.0
1134,F#4,278.667,333/1000,54,79.0
1135,B4,279.0,333/1000,59,79.0
1136,E-5,279.333,333/1000,53,79.0
1137,F#5,279.667,333/1000,53,79.0
1138,B2,280.0,333/1000,44,79.0
1139,F#4,280.0,0.75,54,79.0
1140,F#5,280.0,0.75,54,79.0
1141,E-3,280.333,333/1000,36,79.0
1142,F#3,280.667,333/1000,37,79.0
1143,B2,281.0,333/1000,47,79.0
1144,F#4,281.0,499/500,54,79.0
1145,F#5,281.0,499/500,54,79.0
1146,E-3,281.333,333/1000,34,79.0
1147,F#3,281.667,333/1000,36,79.0
1148,B-2,282.0,333/1000,51,79.0
1149,G4,282.0,499/500,62,79.0
1150,G5,282.0,499/500,62,79.0
1151,C#3,282.333,333/1000,48,79.0
1152,E-3,282.667,333/1000,49,79.0
1153,G#2,283.0,333/1000,62,79.0
1154,G#4,283.0,499/500,66,79.0
1155,G#5,283.0,499/500,66,79.0
1156,C#3,283.333,333/1000,55,79.0
1157,E-3,283.667,333/1000,56,79.0
1158,G2,284.0,333/1000,72,79.0
1159,B-4,284.0,499/500,72,79.0
1160,B-5,284.0,499/500,72,79.0
1161,C#3,284.333,333/1000,58,79.0
1162,E-3,284.667,333/1000,62,79.0
1163,G2,285.0,333/1000,69,79.0
1164,C#5,285.0,499/500,70,79.0
1165,C#6,285.0,499/500,70,79.0
1166,B-2,285.333,333/1000,48,79.0
1167,E-3,285.667,333/1000,55,79.0
1168,G#2,286.0,333/1000,62,79.0
1169,B4,286.0,499/500,68,79.0
1170,B5,286.0,499/500,68,79.0
1171,B2,286.333,333/1000,49,79.0
1172,E-3,286.667,333/1000,48,79.0
1173,C#3,287.0,333/1000,44,79.0
1174,B-4,287.0,0.75,54,79.0
1175,B-5,287.0,0.75,54,79.0
1176,E3,287.333,333/1000,38,79.0
1177,B-3,287.667,333/1000,38,79.0
1178,G#4,287.75,0.25,46,79.0
1179,G#5,287.75,0.25,46,79.0
1180,E-3,288.0,333/1000,33,79.0
1181,G4,288.0,1.0,54,79.0
1182,G5,288.0,1.0,54,79.0
1183,B-3,288.333,333/1000,27,79.0
1184,C#4,288.667,333/1000,27,79.0
1185,E-3,289.0,333/1000,34,79.0
1186,G4,289.0,1.0,50,79.0
1187,G5,289.0,1.0,50,79.0
1188,B-3,289.333,333/1000,25,79.0
1189,C#4,289.667,333/1000,26,79.0
1190,E-3,290.0,333/1000,36,79.0
1191,G#4,290.0,0.5,49,79.0
1192,G#5,290.0,0.5,49,79.0
1193,B-3,290.333,333/1000,29,79.0
1194,G4,290.5,0.5,41,79.0
1195,G5,290.5,0.5,41,79.0
1196,C#4,290.667,333/1000,29,79.0
1197,E-3,291.0,333/1000,35,79.0
1198,F4,291.0,0.5,42,79.0
1199,F5,291.0,0.5,42,79.0
1200,B-3,291.333,333/1000,28,79.0
1201,G4,291.5,0.5,41,79.0
1202,G5,291.5,0.5,41,79.0
1203,C#4,291.667,333/1000,28,79.0
1204,G#2,292.0,0.25,33,79.0
1205,G#4,292.0,2.0,44,79.0
1206,G#5,292.0,2.0,44,79.0
1207,E-3,292.333,0.25,20,79.0
1208,G#3,292.333,0.25,20,79.0
1209,C4,292.333,0.25,20,79.0
1210,E-3,292.667,0.25,20,79.0
1211,G#3,292.667,0.25,20,79.0
1212,C4,292.667,0.25,20,79.0
1213,E-3,293.0,0.25,22,79.0
1214,G#3,293.0,0.25,22,79.0
1215,C4,293.0,0.25,22,79.0
1216,E-3,293.333,0.25,22,79.0
1217,C4,293.333,0.25,22,79.0
1218,G#3,293.333,0.25,22,79.0
1219,C4,293.667,0.25,22,79.0
1220,G#3,293.667,0.25,22,79.0
1221,E-3,293.667,0.25,22,79.0
1222,C#5,294.0,21/40,53,79.0
1223,C4,294.0,0.25,29,79.0
1224,E-3,294.0,0.25,29,79.0
1225,G#3,294.0,0.25,29,79.0
1226,C4,294.333,0.25,21,79.0
1227,E-3,294.333,0.25,21,79.0
1228,G#3,294.333,0.25,21,79.0
1229,C5,294.5,21/40,53,79.0
1230,E-3,294.667,0.25,22,79.0
1231,C4,294.667,0.25,22,79.0
1232,G#3,294.667,0.25,22,79.0
1233,B4,295.0,21/40,53,79.0
1234,C4,295.0,0.25,30,79.0
1235,G#3,295.0,0.25,30,79.0
1236,E-3,295.0,0.25,30,79.0
1237,G#3,295.333,0.25,22,79.0
1238,C4,295.333,0.25,22,79.0
1239,E-3,295.333,0.25,22,79.0
1240,C5,295.5,0.5,53,79.0
1241,C4,295.667,0.25,22,79.0
1242,G#3,295.667,0.25,22,79.0
1243,E-3,295.667,0.25,22,79.0
1244,C5,296.0,0.25,48,79.0
1245,C#2,296.0,0.25,33,79.0
1246,F5,296.25,1.75,48,79.0
1247,F3,296.333,0.25,20,79.0
1248,C4,296.333,0.25,20,79.0
1249,C#3,296.333,0.25,20,79.0
1250,C4,296.667,0.25,20,79.0
1251,F3,296.667,0.25,20,79.0
1252,C#3,296.667,0.25,20,79.0
1253,A3,297.0,0.25,27,79.0
1254,C#3,297.0,0.25,27,79.0
1255,F3,297.0,0.25,27,79.0
1256,F3,297.333,0.25,22,79.0
1257,C#3,297.333,0.25,22,79.0
1258,A3,297.333,0.25,22,79.0
1259,C#3,297.667,0.25,22,79.0
1260,A3,297.667,0.25,22,79.0
1261,F3,297.667,0.25,22,79.0
1262,C5,298.0,21/40,53,79.0
1263,C#3,298.0,0.25,29,79.0
1264,B-3,298.0,0.25,29,79.0
1265,F3,298.0,0.25,29,79.0
1266,C#3,298.333,0.25,21,79.0
1267,F3,298.333,0.25,21,79.0
1268,B-3,298.333,0.25,21,79.0
1269,B-4,298.5,21/40,53,79.0
1270,B-3,298.667,0.25,22,79.0
1271,C#3,298.667,0.25,22,79.0
1272,F3,298.667,0.25,22,79.0
1273,A4,299.0,21/40,53,79.0
1274,C#3,299.0,0.25,30,79.0
1275,B-3,299.0,0.25,30,79.0
1276,F3,299.0,0.25,30,79.0
1277,C#3,299.333,0.25,22,79.0
1278,F3,299.333,0.25,22,79.0
1279,B-3,299.333,0.25,22,79.0
1280,B-4,299.5,0.5,53,79.0
1281,F3,299.667,0.25,22,79.0
1282,C#3,299.667,0.25,22,79.0
1283,B-3,299.667,0.25,22,79.0
1284,B-4,300.0,0.25,48,79.0
1285,C2,300.0,0.25,33,79.0
1286,E-5,300.25,1.75,48,79.0
1287,C3,300.333,0.25,20,79.0
1288,E-3,300.333,0.25,20,79.0
1289,B-3,300.333,0.25,20,79.0
1290,E-3,300.667,0.25,20,79.0
1291,C3,300.667,0.25,20,79.0
1292,B-3,300.667,0.25,20,79.0
1293,C3,301.0,0.25,27,79.0
1294,G3,301.0,0.25,27,79.0
1295,E-3,301.0,0.25,27,79.0
1296,G3,301.333,0.25,22,79.0
1297,E-3,301.333,0.25,22,79.0
1298,C3,301.333,0.25,22,79.0
1299,C3,301.667,0.25,22,79.0
1300,E-3,301.667,0.25,22,79.0
1301,G3,301.667,0.25,22,79.0
1302,C#5,302.0,21/40,58,79.0
1303,G#3,302.0,0.25,31,79.0
1304,E-3,302.0,0.25,31,79.0
1305,C3,302.0,0.25,31,79.0
1306,E-3,302.333,0.25,24,79.0
1307,C3,302.333,0.25,24,79.0
1308,G#3,302.333,0.25,24,79.0
1309,C5,302.5,21/40,60,79.0
1310,E-3,302.667,0.25,26,79.0
1311,G#3,302.667,0.25,26,79.0
1312,C3,302.667,0.25,26,79.0
1313,B-4,303.0,21/40,63,79.0
1314,C3,303.0,0.25,35,79.0
1315,G#3,303.0,0.25,35,79.0
1316,E-3,303.0,0.25,35,79.0
1317,C3,303.333,0.25,27,79.0
1318,G#3,303.333,0.25,27,79.0
1319,E-3,303.333,0.25,27,79.0
1320,G#4,303.5,0.5,66,79.0
1321,E-3,303.667,0.25,28,79.0
1322,C3,303.667,0.25,28,79.0
1323,G#3,303.667,0.25,28,79.0
1324,C#2,304.0,0.25,42,79.0
1325,G4,304.0,0.5,62,79.0
1326,E-5,304.0,0.5,62,79.0
1327,F3,304.333,0.25,28,79.0
1328,C#3,304.333,0.25,28,79.0
1329,F4,304.5,0.5,61,79.0
1330,C#5,304.5,0.5,61,79.0
1331,F3,304.667,0.25,28,79.0
1332,C#3,304.667,0.25,28,79.0
1333,E-4,305.0,0.5,58,79.0
1334,C5,305.0,0.5,58,79.0
1335,C#3,305.0,0.25,36,79.0
1336,F3,305.0,0.25,36,79.0
1337,C#3,305.333,0.25,26,79.0
1338,F3,305.333,0.25,26,79.0
1339,C#4,305.5,0.5,56,79.0
1340,B-4,305.5,0.5,56,79.0
1341,F3,305.667,0.25,26,79.0
1342,C#3,305.667,0.25,26,79.0
1343,E-2,306.0,0.25,36,79.0
1344,C4,306.0,1.0,54,79.0
1345,G#4,306.0,1.0,54,79.0
1346,E-3,306.333,0.25,24,79.0
1347,G#3,306.333,0.25,24,79.0
1348,G#3,306.667,0.25,24,79.0
1349,E-3,306.667,0.25,24,79.0
1350,E-2,307.0,0.25,34,79.0
1351,E-4,307.0,0.75,55,79.0
1352,C5,307.0,0.75,55,79.0
1353,E-3,307.333,0.25,24,79.0
1354,G3,307.333,0.25,24,79.0
1355,E-3,307.667,0.25,23,79.0
1356,G3,307.667,0.25,23,79.0
1357,C#4,307.75,0.25,54,79.0
1358,B-4,307.75,0.25,54,79.0
1359,G#2,308.0,0.25,33,79.0
1360,C4,308.0,1.0,44,79.0
1361,G#4,308.0,1.0,44,79.0
1362,C4,308.333,0.25,20,79.0
1363,E-3,308.333,0.25,20,79.0
1364,G#3,308.333,0.25,20,79.0
1365,G#3,308.667,0.25,20,79.0
1366,C4,308.667,0.25,20,79.0
1367,E-3,308.667,0.25,20,79.0
1368,C4,309.0,0.25,22,79.0
1369,E-3,309.0,0.25,22,79.0
1370,G#3,309.0,0.25,22,79.0
1371,C4,309.333,0.25,22,79.0
1372,G#3,309.333,0.25,22,79.0
1373,E-3,309.333,0.25,22,79.0
1374,C4,309.667,0.25,22,79.0
1375,E-3,309.667,0.25,22,79.0
1376,G#3,309.667,0.25,22,79.0
1377,C#5,310.0,21/40,53,79.0
1378,C4,310.0,0.25,29,79.0
1379,E-3,310.0,0.25,29,79.0
1380,G#3,310.0,0.25,29,79.0
1381,G#3,310.333,0.25,21,79.0
1382,C4,310.333,0.25,21,79.0
1383,E-3,310.333,0.25,21,79.0
1384,C5,310.5,21/40,53,79.0
1385,E-3,310.667,0.25,22,79.0
1386,G#3,310.667,0.25,22,79.0
1387,C4,310.667,0.25,22,79.0
1388,B4,311.0,21/40,53,79.0
1389,C4,311.0,0.25,30,79.0
1390,G#3,311.0,0.25,30,79.0
1391,E-3,311.0,0.25,30,79.0
1392,E-3,311.333,0.25,22,79.0
1393,G#3,311.333,0.25,22,79.0
1394,C4,311.333,0.25,22,79.0
1395,C5,311.5,0.5,53,79.0
1396,E-3,311.667,0.25,22,79.0
1397,C4,311.667,0.25,22,79.0
1398,G#3,311.667,0.25,22,79.0
1399,C6,312.0,21/40,53,79.0
1400,F5,312.0,2.0,48,79.0
1401,C#2,312.0,0.25,33,79.0
1402,C#3,312.333,0.25,20,79.0
1403,F3,312.333,0.25,20,79.0
1404,C4,312.333,0.25,20,79.0
1405,B-5,312.5,21/40,53,79.0
1406,C4,312.667,0.25,20,79.0
1407,F3,312.667,0.25,20,79.0
1408,C#3,312.667,0.25,20,79.0
1409,A5,313.0,21/40,53,79.0
1410,C#3,313.0,0.25,27,79.0
1411,C4,313.0,0.25,27,79.0
1412,F3,313.0,0.25,27,79.0
1413,F3,313.333,0.25,22,79.0
1414,C4,313.333,0.25,22,79.0
1415,C#3,313.333,0.25,22,79.0
1416,B-5,313.5,0.5,53,79.0
1417,F3,313.667,0.25,22,79.0
1418,C#3,313.667,0.25,22,79.0
1419,C4,313.667,0.25,22,79.0
1420,C5,314.0,21/40,53,79.0
1421,B-3,314.0,0.25,29,79.0
1422,F3,314.0,0.25,29,79.0
1423,C#3,314.0,0.25,29,79.0
1424,F3,314.333,0.25,21,79.0
1425,B-3,314.333,0.25,21,79.0
1426,C#3,314.333,0.25,21,79.0
1427,B-4,314.5,21/40,53,79.0
1428,F3,314.667,0.25,22,79.0
1429,B-3,314.667,0.25,22,79.0
1430,C#3,314.667,0.25,22,79.0
1431,A4,315.0,21/40,53,79.0
1432,F3,315.0,0.25,30,79.0
1433,B-3,315.0,0.25,30,79.0
1434,C#3,315.0,0.25,30,79.0
1435,F3,315.333,0.25,22,79.0
1436,C#3,315.333,0.25,22,79.0
1437,B-3,315.333,0.25,22,79.0
1438,B-4,315.5,0.5,53,79.0
1439,C#3,315.667,0.25,22,79.0
1440,B-3,315.667,0.25,22,79.0
1441,F3,315.667,0.25,22,79.0
1442,B-5,316.0,0.5,58,79.0
1443,E-5,316.0,2.0,48,79.0
1444,C2,316.0,0.25,33,79.0
1445,B-3,316.333,0.25,20,79.0
1446,E-3,316.333,0.25,20,79.0
1447,C3,316.333,0.25,20,79.0
1448,G#5,316.5,0.5,60,79.0
1449,B-3,316.667,0.25,20,79.0
1450,C3,316.667,0.25,20,79.0
1451,E-3,316.667,0.25,20,79.0
1452,G5,317.0,0.5,63,79.0
1453,E-3,317.0,0.25,27,79.0
1454,B-3,317.0,0.25,27,79.0
1455,C3,317.0,0.25,27,79.0
1456,E-3,317.333,0.25,22,79.0
1457,C3,317.333,0.25,22,79.0
1458,B-3,317.333,0.25,22,79.0
1459,G#5,317.5,0.5,66,79.0
1460,B-3,317.667,0.25,22,79.0
1461,C3,317.667,0.25,22,79.0
1462,E-3,317.667,0.25,22,79.0
1463,C#5,318.0,21/40,58,79.0
1464,E-3,318.0,0.25,31,79.0
1465,C3,318.0,0.25,31,79.0
1466,G#3,318.0,0.25,31,79.0
1467,G#3,318.333,0.25,24,79.0
1468,C3,318.333,0.25,24,79.0
1469,E-3,318.333,0.25,24,79.0
1470,C5,318.5,21/40,60,79.0
1471,E-3,318.667,0.25,26,79.0
1472,C3,318.667,0.25,26,79.0
1473,G#3,318.667,0.25,26,79.0
1474,B-4,319.0,21/40,63,79.0
1475,E-3,319.0,0.25,35,79.0
1476,G#3,319.0,0.25,35,79.0
1477,C3,319.0,0.25,35,79.0
1478,E-3,319.333,0.25,27,79.0
1479,C3,319.333,0.25,27,79.0
1480,G#3,319.333,0.25,27,79.0
1481,G#4,319.5,0.5,66,79.0
1482,E-3,319.667,0.25,28,79.0
1483,G#3,319.667,0.25,28,79.0
1484,C3,319.667,0.25,28,79.0
1485,C#2,320.0,0.25,42,79.0
1486,E-5,320.0,0.5,61,79.0
1487,G4,320.0,0.5,61,79.0
1488,G5,320.0,0.5,61,79.0
1489,G#3,320.333,0.25,27,79.0
1490,C#3,320.333,0.25,27,79.0
1491,F3,320.333,0.25,27,79.0
1492,C#5,320.5,0.5,59,79.0
1493,F4,320.5,0.5,59,79.0
1494,F5,320.5,0.5,59,79.0
1495,F3,320.667,0.25,28,79.0
1496,G#3,320.667,0.25,28,79.0
1497,C#3,320.667,0.25,28,79.0
1498,C5,321.0,0.5,56,79.0
1499,E-4,321.0,0.5,56,79.0
1500,E-5,321.0,0.5,56,79.0
1501,F3,321.0,0.25,35,79.0
1502,A3,321.0,0.25,35,79.0
1503,C#3,321.0,0.25,35,79.0
1504,F3,321.333,0.25,26,79.0
1505,C#3,321.333,0.25,26,79.0
1506,A3,321.333,0.25,26,79.0
1507,B-4,321.5,0.5,54,79.0
1508,C#4,321.5,0.5,54,79.0
1509,C#5,321.5,0.5,54,79.0
1510,B-3,321.667,0.25,25,79.0
1511,C#3,321.667,0.25,25,79.0
1512,F3,321.667,0.25,25,79.0
1513,E-2,322.0,0.25,36,79.0
1514,C5,322.0,1.0,52,79.0
1515,C4,322.0,1.0,52,79.0
1516,G#4,322.0,1.0,52,79.0
1517,E-3,322.333,0.25,24,79.0
1518,G#3,322.333,0.25,24,79.0
1519,E-3,322.667,0.25,24,79.0
1520,G#3,322.667,0.25,24,79.0
1521,C#5,323.0,0.75,55,79.0
1522,E-2,323.0,0.25,34,79.0
1523,C#4,323.0,1.0,46,79.0
1524,G4,323.0,1.0,46,79.0
1525,B-3,323.333,0.25,23,79.0
1526,G3,323.333,0.25,23,79.0
1527,E-3,323.333,0.25,23,79.0
1528,B-3,323.667,0.25,22,79.0
1529,G3,323.667,0.25,22,79.0
1530,E-3,323.667,0.25,22,79.0
1531,B-4,323.75,0.25,54,79.0
1532,G#1,324.0,3.0,33,79.0
1533,G#2,324.0,0.25,33,79.0
1534,G#3,324.0,3.0,42,79.0
1535,E-4,324.0,3.0,42,79.0
1536,C4,324.0,3.0,42,79.0
1537,G#4,324.0,3.0,42,79.0
1538,E-3,324.333,0.25,21,79.0
1539,G#2,324.333,0.25,21,79.0
1540,C3,324.333,0.25,21,79.0
1541,C3,324.667,0.25,20,79.0
1542,G#2,324.667,0.25,20,79.0
1543,E-3,324.667,0.25,20,79.0
1544,G#2,325.0,0.25,22,79.0
1545,C3,325.0,0.25,22,79.0
1546,E-3,325.0,0.25,22,79.0
1547,C3,325.333,0.25,22,79.0
1548,E-3,325.333,0.25,22,79.0
1549,G#2,325.333,0.25,22,79.0
1550,E-3,325.667,0.25,22,79.0
1551,C3,325.667,0.25,22,79.0
1552,G#2,325.667,0.25,22,79.0
1553,G#2,326.0,0.25,29,79.0
1554,E-3,326.0,0.25,29,79.0
1555,C3,326.0,0.25,29,79.0
1556,G#2,326.333,0.25,24,79.0
1557,E-3,326.333,0.25,24,79.0
1558,C3,326.333,0.25,24,79.0
1559,G#2,326.667,0.25,22,79.0
1560,C3,326.667,0.25,22,79.0
1561,E-3,326.667,0.25,22,79.0
1562,C4,327.0,0.75,40,79.0
1563,E-3,327.0,0.25,30,79.0
1564,C3,327.0,0.25,30,79.0
1565,G#2,327.0,0.25,30,79.0
1566,G#2,327.333,0.25,22,79.0
1567,C3,327.333,0.25,22,79.0
1568,E-3,327.333,0.25,22,79.0
1569,G#2,327.667,0.25,22,79.0
1570,C3,327.667,0.25,22,79.0
1571,E-3,327.667,0.25,22,79.0
1572,E-4,327.75,0.25,37,79.0
1573,G#2,328.0,0.25,33,79.0
1574,G#1,328.0,2.0,33,79.0
1575,G#3,328.0,0.75,40,79.0
1576,G#4,328.0,0.75,40,79.0
1577,E-3,328.333,0.25,21,79.0
1578,G#2,328.333,0.25,21,79.0
1579,C3,328.333,0.25,21,79.0
1580,C3,328.667,0.25,20,79.0
1581,G#2,328.667,0.25,20,79.0
1582,E-3,328.667,0.25,20,79.0
1583,G#3,329.0,0.75,37,79.0
1584,G#4,329.0,0.75,37,79.0
1585,G#2,329.0,0.25,22,79.0
1586,C3,329.0,0.25,22,79.0
1587,E-3,329.0,0.25,22,79.0
1588,C3,329.333,0.25,22,79.0
1589,E-3,329.333,0.25,22,79.0
1590,G#2,329.333,0.25,22,79.0
1591,C3,329.667,0.25,22,79.0
1592,G#2,329.667,0.25,22,79.0
1593,E-3,329.667,0.25,22,79.0
1594,G#3,330.0,0.75,37,79.0
1595,G#4,330.0,0.75,37,79.0
1596,E-3,330.0,0.25,29,79.0
1597,C3,330.0,0.25,29,79.0
1598,G#2,330.0,0.25,29,79.0
1599,C3,330.333,0.25,24,79.0
1600,G#2,330.333,0.25,24,79.0
1601,E-3,330.333,0.25,24,79.0
1602,E-3,330.667,0.25,22,79.0
1603,G#2,330.667,0.25,22,79.0
1604,C3,330.667,0.25,22,79.0
1605,G#3,331.0,0.75,37,79.0
1606,G#4,331.0,0.75,37,79.0
1607,G#2,331.0,0.25,30,79.0
1608,E-3,331.0,0.25,30,79.0
1609,C3,331.0,0.25,30,79.0
1610,E-3,331.333,0.25,22,79.0
1611,C3,331.333,0.25,22,79.0
1612,G#2,331.333,0.25,22,79.0
1613,G#2,331.667,0.25,22,79.0
1614,E-3,331.667,0.25,22,79.0
1615,C3,331.667,0.25,22,79.0
1616,G1,332.0,2.0,33,79.0
1617,G2,332.0,0.25,33,79.0
1618,G3,332.0,3.0,44,79.0
1619,G4,332.0,3.0,44,79.0
1620,G2,332.333,0.25,21,79.0
1621,E-3,332.333,0.25,21,79.0
1622,C3,332.333,0.25,21,79.0
1623,C3,332.667,0.25,20,79.0
1624,E-3,332.667,0.25,20,79.0
1625,G2,332.667,0.25,20,79.0
1626,C3,333.0,0.25,22,79.0
1627,E-3,333.0,0.25,22,79.0
1628,G2,333.0,0.25,22,79.0
1629,G2,333.333,0.25,22,79.0
1630,C3,333.333,0.25,22,79.0
1631,E-3,333.333,0.25,22,79.0
1632,C3,333.667,0.25,22,79.0
1633,G2,333.667,0.25,22,79.0
1634,E-3,333.667,0.25,22,79.0
1635,G2,334.0,0.25,29,79.0
1636,E-3,334.0,0.25,29,79.0
1637,C3,334.0,0.25,29,79.0
1638,E-3,334.333,0.25,24,79.0
1639,C3,334.333,0.25,24,79.0
1640,G2,334.333,0.25,24,79.0
1641,C3,334.667,0.25,22,79.0
1642,E-3,334.667,0.25,22,79.0
1643,G2,334.667,0.25,22,79.0
1644,C4,335.0,0.75,40,79.0
1645,G2,335.0,0.25,30,79.0
1646,E-3,335.0,0.25,30,79.0
1647,C3,335.0,0.25,30,79.0
1648,E-3,335.333,0.25,22,79.0
1649,G2,335.333,0.25,22,79.0
1650,C3,335.333,0.25,22,79.0
1651,C3,335.667,0.25,22,79.0
1652,G2,335.667,0.25,22,79.0
1653,E-3,335.667,0.25,22,79.0
1654,E-4,335.75,0.25,37,79.0
1655,G1,336.0,2.0,33,79.0
1656,G2,336.0,0.25,33,79.0
1657,G3,336.0,0.75,40,79.0
1658,G4,336.0,0.75,40,79.0
1659,E-3,336.333,0.25,21,79.0
1660,G2,336.333,0.25,21,79.0
1661,C3,336.333,0.25,21,79.0
1662,E-3,336.667,0.25,21,79.0
1663,C3,336.667,0.25,21,79.0
1664,G2,336.667,0.25,21,79.0
1665,G4,337.0,0.75,40,79.0
1666,G3,337.0,0.75,40,79.0
1667,G2,337.0,0.25,23,79.0
1668,C3,337.0,0.25,23,79.0
1669,E-3,337.0,0.25,23,79.0
1670,C3,337.333,0.25,25,79.0
1671,G2,337.333,0.25,25,79.0
1672,E-3,337.333,0.25,25,79.0
1673,E-3,337.667,0.25,26,79.0
1674,C3,337.667,0.25,26,79.0
1675,G2,337.667,0.25,26,79.0
1676,G3,338.0,0.75,46,79.0
1677,G4,338.0,0.75,46,79.0
1678,E-3,338.0,0.25,35,79.0
1679,C3,338.0,0.25,35,79.0
1680,G2,338.0,0.25,35,79.0
1681,E-3,338.333,0.25,30,79.0
1682,G2,338.333,0.25,30,79.0
1683,C3,338.333,0.25,30,79.0
1684,E-3,338.667,0.25,30,79.0
1685,C3,338.667,0.25,30,79.0
1686,G2,338.667,0.25,30,79.0
1687,G3,339.0,0.75,52,79.0
1688,G4,339.0,0.75,52,79.0
1689,G2,339.0,0.25,41,79.0
1690,C3,339.0,0.25,41,79.0
1691,E-3,339.0,0.25,41,79.0
1692,G2,339.333,0.25,33,79.0
1693,E-3,339.333,0.25,33,79.0
1694,C3,339.333,0.25,33,79.0
1695,E-3,339.667,0.25,33,79.0
1696,C3,339.667,0.25,33,79.0
1697,G2,339.667,0.25,33,79.0
1698,F1,340.0,2.0,55,79.0
1699,F2,340.0,0.25,55,79.0
1700,F3,340.0,2.0,66,79.0
1701,F4,340.0,2.0,66,79.0
1702,F2,340.333,0.25,32,79.0
1703,E-3,340.333,0.25,32,79.0
1704,C3,340.333,0.25,32,79.0
1705,F2,340.667,0.25,30,79.0
1706,E-3,340.667,0.25,30,79.0
1707,C3,340.667,0.25,30,79.0
1708,F2,341.0,0.25,34,79.0
1709,C3,341.0,0.25,34,79.0
1710,E-3,341.0,0.25,34,79.0
1711,C3,341.333,0.25,34,79.0
1712,F2,341.333,0.25,34,79.0
1713,E-3,341.333,0.25,34,79.0
1714,E-3,341.667,0.25,34,79.0
1715,C3,341.667,0.25,34,79.0
1716,F2,341.667,0.25,34,79.0
1717,F#1,342.0,2.0,55,79.0
1718,F#2,342.0,0.25,55,79.0
1719,F#3,342.0,2.0,66,79.0
1720,F#4,342.0,2.0,66,79.0
1721,C3,342.333,0.25,32,79.0
1722,F#2,342.333,0.25,32,79.0
1723,E-3,342.333,0.25,32,79.0
1724,E-3,342.667,0.25,30,79.0
1725,F#2,342.667,0.25,30,79.0
1726,C3,342.667,0.25,30,79.0
1727,E-3,343.0,0.25,34,79.0
1728,C3,343.0,0.25,34,79.0
1729,F#2,343.0,0.25,34,79.0
1730,E-3,343.333,0.25,34,79.0
1731,C3,343.333,0.25,34,79.0
1732,F#2,343.333,0.25,34,79.0
1733,F#2,343.667,0.25,34,79.0
1734,C3,343.667,0.25,34,79.0
1735,E-3,343.667,0.25,34,79.0
1736,G4,344.0,0.25,39,79.0
1737,G3,344.0,0.25,39,79.0
1738,G2,344.0,3.0,48,79.0
1739,B2,344.0,3.0,48,79.0
1740,D3,344.0,3.0,48,79.0
1741,G3,344.333,0.25,24,79.0
1742,G4,344.333,0.25,24,79.0
1743,G3,344.667,0.25,24,79.0
1744,G4,344.667,0.25,24,79.0
1745,G3,345.0,0.25,28,79.0
1746,G4,345.0,0.25,28,79.0
1747,G3,345.333,0.25,28,79.0
1748,G4,345.333,0.25,28,79.0
1749,G3,345.667,0.25,28,79.0
1750,G4,345.667,0.25,28,79.0
1751,G3,346.0,0.25,35,79.0
1752,G4,346.0,0.25,35,79.0
1753,G3,346.333,0.25,26,79.0
1754,G4,346.333,0.25,26,79.0
1755,G3,346.667,0.25,28,79.0
1756,G4,346.667,0.25,28,79.0
1757,B2,347.0,0.75,35,79.0
1758,G3,347.0,0.25,36,79.0
1759,G4,347.0,0.25,36,79.0
1760,G3,347.333,0.25,28,79.0
1761,G4,347.333,0.25,28,79.0
1762,G3,347.667,0.25,28,79.0
1763,G4,347.667,0.25,28,79.0
1764,C3,347.75,0.25,30,79.0
1765,D3,348.0,88/125,40,79.0
1766,G4,348.0,0.25,39,79.0
1767,G3,348.0,0.25,39,79.0
1768,G3,348.333,0.25,24,79.0
1769,G4,348.333,0.25,24,79.0
1770,G3,348.667,0.25,24,79.0
1771,G4,348.667,0.25,24,79.0
1772,D3,349.0,88/125,33,79.0
1773,G3,349.0,0.25,28,79.0
1774,G4,349.0,0.25,28,79.0
1775,G3,349.333,0.25,28,79.0
1776,G4,349.333,0.25,28,79.0
1777,G3,349.667,0.25,28,79.0
1778,G4,349.667,0.25,28,79.0
1779,D3,350.0,88/125,33,79.0
1780,G3,350.0,0.25,35,79.0
1781,G4,350.0,0.25,35,79.0
1782,G3,350.333,0.25,26,79.0
1783,G4,350.333,0.25,26,79.0
1784,G3,350.667,0.25,28,79.0
1785,G4,350.667,0.25,28,79.0
1786,C3,351.0,0.75,36,79.0
1787,G3,351.0,0.25,36,79.0
1788,G4,351.0,0.25,36,79.0
1789,G3,351.333,0.25,28,79.0
1790,G4,351.333,0.25,28,79.0
1791,G3,351.667,0.25,28,79.0
1792,G4,351.667,0.25,28,79.0
1793,D3,351.75,0.25,37,79.0
1794,E-3,352.0,1.5,42,79.0
1795,G4,352.0,0.25,39,79.0
1796,G3,352.0,0.25,39,79.0
1797,G3,352.333,0.25,24,79.0
1798,G4,352.333,0.25,24,79.0
1799,G3,352.667,0.25,24,79.0
1800,G4,352.667,0.25,24,79.0
1801,G3,353.0,0.25,28,79.0
1802,G4,353.0,0.25,28,79.0
1803,G3,353.333,0.25,28,79.0
1804,G4,353.333,0.25,28,79.0
1805,D3,353.5,0.5,35,79.0
1806,G3,353.667,0.25,28,79.0
1807,G4,353.667,0.25,28,79.0
1808,C3,354.0,1.0,31,79.0
1809,G3,354.0,0.25,35,79.0
1810,G4,354.0,0.25,35,79.0
1811,G3,354.333,0.25,26,79.0
1812,G4,354.333,0.25,26,79.0
1813,G3,354.667,0.25,28,79.0
1814,G4,354.667,0.25,28,79.0
1815,B-2,355.0,0.75,39,79.0
1816,G3,355.0,0.25,36,79.0
1817,G4,355.0,0.25,36,79.0
1818,G3,355.333,0.25,28,79.0
1819,G4,355.333,0.25,28,79.0
1820,F3,355.667,0.25,28,79.0
1821,F4,355.667,0.25,28,79.0
1822,G#2,355.75,0.25,33,79.0
1823,G2,356.0,1.0,36,79.0
1824,E-4,356.0,0.25,39,79.0
1825,C4,356.0,0.25,39,79.0
1826,G4,356.0,0.25,39,79.0
1827,G3,356.0,0.25,39,79.0
1828,E-4,356.333,0.25,23,79.0
1829,C4,356.333,0.25,23,79.0
1830,G3,356.333,0.25,23,79.0
1831,G4,356.333,0.25,23,79.0
1832,E-4,356.667,0.25,23,79.0
1833,C4,356.667,0.25,23,79.0
1834,G3,356.667,0.25,23,79.0
1835,G4,356.667,0.25,23,79.0
1836,G2,357.0,1.0,36,79.0
1837,E-4,357.0,0.25,25,79.0
1838,C4,357.0,0.25,25,79.0
1839,G3,357.0,0.25,25,79.0
1840,G4,357.0,0.25,25,79.0
1841,E-4,357.333,0.25,25,79.0
1842,C4,357.333,0.25,25,79.0
1843,G3,357.333,0.25,25,79.0
1844,G4,357.333,0.25,25,79.0
1845,E-4,357.667,0.25,25,79.0
1846,C4,357.667,0.25,25,79.0
1847,G3,357.667,0.25,25,79.0
1848,G4,357.667,0.25,25,79.0
1849,G2,358.0,1.0,36,79.0
1850,D4,358.0,0.25,34,79.0
1851,B3,358.0,0.25,34,79.0
1852,G3,358.0,0.25,34,79.0
1853,G4,358.0,0.25,34,79.0
1854,D4,358.333,0.25,29,79.0
1855,B3,358.333,0.25,29,79.0
1856,G3,358.333,0.25,29,79.0
1857,G4,358.333,0.25,29,79.0
1858,D4,358.667,0.25,30,79.0
1859,B3,358.667,0.25,30,79.0
1860,G3,358.667,0.25,30,79.0
1861,G4,358.667,0.25,30,79.0
1862,G2,359.0,1.0,36,79.0
1863,D4,359.0,0.25,34,79.0
1864,B3,359.0,0.25,34,79.0
1865,G3,359.0,0.25,34,79.0
1866,G4,359.0,0.25,34,79.0
1867,D4,359.333,0.25,26,79.0
1868,B3,359.333,0.25,26,79.0
1869,G3,359.333,0.25,26,79.0
1870,G4,359.333,0.25,26,79.0
1871,D4,359.667,0.25,26,79.0
1872,B3,359.667,0.25,26,79.0
1873,G3,359.667,0.25,26,79.0
1874,G4,359.667,0.25,26,79.0
1875,C3,360.0,2.0,48,79.0
1876,E-4,360.0,0.25,39,79.0
1877,C4,360.0,0.25,39,79.0
1878,G4,360.0,0.25,39,79.0
1879,G3,360.0,0.25,39,79.0
1880,G3,360.333,0.25,24,79.0
1881,G4,360.333,0.25,24,79.0
1882,G3,360.667,0.25,24,79.0
1883,G4,360.667,0.25,24,79.0
1884,G3,361.0,0.25,31,79.0
1885,G4,361.0,0.25,31,79.0
1886,G3,361.333,0.25,32,79.0
1887,G4,361.333,0.25,32,79.0
1888,G3,361.667,0.25,33,79.0
1889,G4,361.667,0.25,33,79.0
1890,G3,362.0,0.25,44,79.0
1891,G4,362.0,0.25,44,79.0
1892,G3,362.333,0.25,34,79.0
1893,G4,362.333,0.25,34,79.0
1894,G3,362.667,0.25,38,79.0
1895,G4,362.667,0.25,38,79.0
1896,G3,363.0,0.25,52,79.0
1897,G4,363.0,0.25,52,79.0
1898,B1,363.0,0.75,46,79.0
1899,B2,363.0,0.75,46,79.0
1900,G3,363.333,0.25,40,79.0
1901,G4,363.333,0.25,40,79.0
1902,G3,363.667,0.25,40,79.0
1903,G4,363.667,0.25,40,79.0
1904,C2,363.75,0.25,40,79.0
1905,C3,363.75,0.25,40,79.0
1906,G4,364.0,0.25,59,79.0
1907,G3,364.0,0.25,59,79.0
1908,D3,364.0,0.75,56,79.0
1909,D2,364.0,0.75,56,79.0
1910,G3,364.333,0.25,37,79.0
1911,G4,364.333,0.25,37,79.0
1912,G3,364.667,0.25,37,79.0
1913,G4,364.667,0.25,37,79.0
1914,G3,365.0,0.25,42,79.0
1915,G4,365.0,0.25,42,79.0
1916,D2,365.0,88/125,46,79.0
1917,D3,365.0,88/125,46,79.0
1918,G3,365.333,0.25,42,79.0
1919,G4,365.333,0.25,42,79.0
1920,G3,365.667,0.25,42,79.0
1921,G4,365.667,0.25,42,79.0
1922,G3,366.0,0.25,54,79.0
1923,G4,366.0,0.25,54,79.0
1924,D2,366.0,88/125,46,79.0
1925,D3,366.0,88/125,46,79.0
1926,G3,366.333,0.25,39,79.0
1927,G4,366.333,0.25,39,79.0
1928,G3,366.667,0.25,42,79.0
1929,G4,366.667,0.25,42,79.0
1930,G#3,367.0,0.25,60,79.0
1931,G#4,367.0,0.25,60,79.0
1932,C2,367.0,0.75,54,79.0
1933,C3,367.0,0.75,54,79.0
1934,G#3,367.333,0.25,47,79.0
1935,G#4,367.333,0.25,47,79.0
1936,G#3,367.667,0.25,50,79.0
1937,G#4,367.667,0.25,50,79.0
1938,D2,367.75,0.25,62,79.0
1939,D3,367.75,0.25,62,79.0
1940,G4,368.0,0.25,70,79.0
1941,G3,368.0,0.25,70,79.0
1942,E-2,368.0,1.5,70,79.0
1943,E-3,368.0,1.5,70,79.0
1944,G3,368.333,0.25,45,79.0
1945,G4,368.333,0.25,45,79.0
1946,G3,368.667,0.25,45,79.0
1947,G4,368.667,0.25,45,79.0
1948,G3,369.0,0.25,50,79.0
1949,G4,369.0,0.25,50,79.0
1950,G3,369.333,0.25,50,79.0
1951,G4,369.333,0.25,50,79.0
1952,D2,369.5,0.5,59,79.0
1953,D3,369.5,0.5,59,79.0
1954,G3,369.667,0.25,49,79.0
1955,G4,369.667,0.25,49,79.0
1956,G3,370.0,0.25,63,79.0
1957,G4,370.0,0.25,63,79.0
1958,C2,370.0,1.0,50,79.0
1959,C3,370.0,1.0,50,79.0
1960,G3,370.333,0.25,46,79.0
1961,G4,370.333,0.25,46,79.0
1962,G3,370.667,0.25,47,79.0
1963,G4,370.667,0.25,47,79.0
1964,G3,371.0,0.25,62,79.0
1965,G4,371.0,0.25,62,79.0
1966,B-1,371.0,0.75,62,79.0
1967,B-2,371.0,0.75,62,79.0
1968,G3,371.333,0.25,46,79.0
1969,G4,371.333,0.25,46,79.0
1970,F3,371.667,0.25,46,79.0
1971,F4,371.667,0.25,46,79.0
1972,G#2,371.75,0.25,50,79.0
1973,G#1,371.75,0.25,50,79.0
1974,E-4,372.0,0.25,59,79.0
1975,C4,372.0,0.25,59,79.0
1976,G4,372.0,0.25,59,79.0
1977,G3,372.0,0.25,59,79.0
1978,G1,372.0,1.0,50,79.0
1979,G2,372.0,1.0,50,79.0
1980,E-4,372.333,0.25,35,79.0
1981,C4,372.333,0.25,35,79.0
1982,G3,372.333,0.25,35,79.0
1983,G4,372.333,0.25,35,79.0
1984,E-4,372.667,0.25,35,79.0
1985,C4,372.667,0.25,35,79.0
1986,G3,372.667,0.25,35,79.0
1987,G4,372.667,0.25,35,79.0
1988,E-4,373.0,0.25,37,79.0
1989,C4,373.0,0.25,37,79.0
1990,G3,373.0,0.25,37,79.0
1991,G4,373.0,0.25,37,79.0
1992,G1,373.0,1.0,50,79.0
1993,G2,373.0,1.0,50,79.0
1994,E-4,373.333,0.25,37,79.0
1995,C4,373.333,0.25,37,79.0
1996,G3,373.333,0.25,37,79.0
1997,G4,373.333,0.25,37,79.0
1998,E-4,373.667,0.25,37,79.0
1999,C4,373.667,0.25,37,79.0
2000,G3,373.667,0.25,37,79.0
2001,G4,373.667,0.25,37,79.0
2002,D4,374.0,0.25,51,79.0
2003,B3,374.0,0.25,51,79.0
2004,G3,374.0,0.25,51,79.0
2005,G4,374.0,0.25,51,79.0
2006,G2,374.0,1.0,50,79.0
2007,G1,374.0,1.0,50,79.0
2008,D4,374.333,0.25,44,79.0
2009,B3,374.333,0.25,44,79.0
2010,G3,374.333,0.25,44,79.0
2011,G4,374.333,0.25,44,79.0
2012,D4,374.667,0.25,45,79.0
2013,B3,374.667,0.25,45,79.0
2014,G3,374.667,0.25,45,79.0
2015,G4,374.667,0.25,45,79.0
2016,D4,375.0,0.25,52,79.0
2017,B3,375.0,0.25,52,79.0
2018,G3,375.0,0.25,52,79.0
2019,G4,375.0,0.25,52,79.0
2020,G2,375.0,1.0,50,79.0
2021,G1,375.0,1.0,50,79.0
2022,D4,375.333,0.25,39,79.0
2023,B3,375.333,0.25,39,79.0
2024,G3,375.333,0.25,39,79.0
2025,G4,375.333,0.25,39,79.0
2026,D4,375.667,0.25,39,79.0
2027,B3,375.667,0.25,39,79.0
2028,G3,375.667,0.25,39,79.0
2029,G4,375.667,0.25,39,79.0
2030,G3,376.0,2.0,42,79.0
2031,C4,376.0,2.0,42,79.0
2032,E-4,376.0,2.0,42,79.0
2033,G4,376.0,2.0,42,79.0
2034,C2,376.0,333/1000,40,79.0
2035,C3,376.0,333/1000,40,79.0
2036,G3,376.333,0.25,31,79.0
2037,G3,376.667,0.25,31,79.0
2038,G3,377.0,0.25,31,79.0
2039,G3,377.333,0.25,29,79.0
2040,G3,377.667,0.25,29,79.0
2041,G3,378.0,0.25,29,79.0
2042,G3,378.333,0.25,28,79.0
2043,G3,378.667,0.25,28,79.0
2044,B4,379.0,0.75,44,79.0
2045,G3,379.0,0.25,31,79.0
2046,G3,379.333,0.25,30,79.0
2047,G3,379.667,0.25,30,79.0
2048,C5,379.75,0.25,38,79.0
2049,D5,380.0,88/125,51,79.0
2050,G3,380.0,0.25,31,79.0
2051,G3,380.333,0.25,27,79.0
2052,G3,380.667,0.25,27,79.0
2053,G3,381.0,0.25,31,79.0
2054,F4,381.0,88/125,38,79.0
2055,D5,381.0,88/125,38,79.0
2056,G3,381.333,0.25,28,79.0
2057,G3,381.667,0.25,28,79.0
2058,G3,382.0,0.25,31,79.0
2059,G#4,382.0,88/125,38,79.0
2060,D5,382.0,88/125,38,79.0
2061,G3,382.333,0.25,31,79.0
2062,G3,382.667,0.25,31,79.0
2063,C5,383.0,0.75,46,79.0
2064,G3,383.0,0.25,31,79.0
2065,G3,383.333,0.25,31,79.0
2066,G3,383.667,0.25,32,79.0
2067,D5,383.75,0.25,47,79.0
2068,E-5,384.0,1.5,53,79.0
2069,G3,384.0,0.25,40,79.0
2070,G3,384.333,0.25,31,79.0
2071,G3,384.667,0.25,26,79.0
2072,E-4,385.0,1.0,39,79.0
2073,G3,385.0,0.25,33,79.0
2074,G3,385.333,0.25,29,79.0
2075,D5,385.5,0.5,44,79.0
2076,G3,385.667,0.25,26,79.0
2077,G3,386.0,0.25,33,79.0
2078,G4,386.0,1.0,36,79.0
2079,C5,386.0,1.0,36,79.0
2080,G3,386.333,0.25,30,79.0
2081,G3,386.667,0.25,29,79.0
2082,D5,387.0,0.75,49,79.0
2083,G3,387.0,0.25,33,79.0
2084,G3,387.333,0.25,30,79.0
2085,G3,387.667,0.25,30,79.0
2086,C5,387.75,0.25,42,79.0
2087,B4,388.0,1.0,46,79.0
2088,G3,388.0,0.25,31,79.0
2089,G3,388.333,0.25,28,79.0
2090,G3,388.667,0.25,28,79.0
2091,F4,389.0,1.0,37,79.0
2092,A4,389.0,0.75,44,79.0
2093,G3,389.0,0.25,31,79.0
2094,G3,389.333,0.25,28,79.0
2095,G3,389.667,0.25,31,79.0
2096,B4,389.75,0.25,36,79.0
2097,G3,390.0,0.25,36,79.0
2098,E-4,390.0,1.0,42,79.0
2099,C5,390.0,1.0,42,79.0
2100,G3,390.333,0.25,29,79.0
2101,G3,390.667,0.25,29,79.0
2102,C4,391.0,1.0,37,79.0
2103,D5,391.0,0.75,43,79.0
2104,G3,391.0,0.25,36,79.0
2105,G3,391.333,0.25,31,79.0
2106,G3,391.667,0.25,31,79.0
2107,E-5,391.75,0.25,44,79.0
2108,G#4,392.0,0.25,47,79.0
2109,D5,392.0,3.0,51,79.0
2110,G3,392.0,0.25,37,79.0
2111,G4,392.25,2.75,43,79.0
2112,G3,392.333,0.25,29,79.0
2113,G3,392.667,0.25,29,79.0
2114,G3,393.0,0.25,44,79.0
2115,G3,393.333,0.25,37,79.0
2116,G3,393.667,0.25,39,79.0
2117,G3,394.0,0.25,53,79.0
2118,G3,394.333,0.25,39,79.0
2119,G3,394.667,0.25,40,79.0
2120,G3,395.0,0.25,52,79.0
2121,B3,395.0,0.75,55,79.0
2122,G4,395.0,0.75,55,79.0
2123,B4,395.0,0.75,55,79.0
2124,G3,395.333,0.25,45,79.0
2125,G3,395.667,0.25,52,79.0
2126,C4,395.75,0.25,53,79.0
2127,A4,395.75,0.25,53,79.0
2128,C5,395.75,0.25,53,79.0
2129,G3,396.0,0.25,59,79.0
2130,D4,396.0,1.0,65,79.0
2131,B4,396.0,1.0,65,79.0
2132,D5,396.0,1.0,65,79.0
2133,G3,396.333,0.25,47,79.0
2134,G3,396.667,0.25,47,79.0
2135,D4,397.0,1.0,59,79.0
2136,B4,397.0,1.0,59,79.0
2137,D5,397.0,1.0,59,79.0
2138,G3,397.0,0.25,52,79.0
2139,F#3,397.0,0.25,52,79.0
2140,G3,397.333,0.25,43,79.0
2141,F#3,397.333,0.25,43,79.0
2142,G3,397.667,0.25,43,79.0
2143,F#3,397.667,0.25,43,79.0
2144,D4,398.0,1.0,59,79.0
2145,B4,398.0,1.0,59,79.0
2146,D5,398.0,1.0,59,79.0
2147,F3,398.0,0.25,54,79.0
2148,G3,398.0,0.25,54,79.0
2149,G3,398.333,0.25,45,79.0
2150,F3,398.333,0.25,45,79.0
2151,G3,398.667,0.25,45,79.0
2152,F3,398.667,0.25,45,79.0
2153,C4,399.0,0.75,64,79.0
2154,G4,399.0,0.75,64,79.0
2155,C5,399.0,0.75,64,79.0
2156,G3,399.0,0.25,53,79.0
2157,E-3,399.0,0.25,53,79.0
2158,D3,399.333,0.25,43,79.0
2159,G3,399.333,0.25,43,79.0
2160,C3,399.667,0.25,44,79.0
2161,G3,399.667,0.25,44,79.0
2162,D4,399.75,0.25,59,79.0
2163,G4,399.75,0.25,59,79.0
2164,D5,399.75,0.25,59,79.0
2165,G4,400.0,2.0,64,79.0
2166,E-4,400.0,1.75,70,79.0
2167,E-5,400.0,1.75,70,79.0
2168,C3,400.0,0.25,57,79.0
2169,G3,400.0,0.25,57,79.0
2170,C3,400.333,0.25,45,79.0
2171,G3,400.333,0.25,45,79.0
2172,G3,400.667,0.25,45,79.0
2173,C3,400.667,0.25,45,79.0
2174,G3,401.0,0.25,54,79.0
2175,B-2,401.0,0.25,54,79.0
2176,G3,401.333,0.25,45,79.0
2177,B-2,401.333,0.25,45,79.0
2178,B-2,401.667,0.25,45,79.0
2179,G3,401.667,0.25,45,79.0
2180,D4,401.75,0.25,69,79.0
2181,D5,401.75,0.25,69,79.0
2182,C4,402.0,1.0,67,79.0
2183,G4,402.0,1.0,67,79.0
2184,C5,402.0,1.0,67,79.0
2185,A2,402.0,0.25,55,79.0
2186,G3,402.0,0.25,55,79.0
2187,A2,402.333,0.25,43,79.0
2188,G3,402.333,0.25,43,79.0
2189,A2,402.667,0.25,43,79.0
2190,G3,402.667,0.25,43,79.0
2191,D5,403.0,0.75,69,79.0
2192,F#4,403.0,1.0,58,79.0
2193,D4,403.0,1.0,58,79.0
2194,G#2,403.0,0.25,52,79.0
2195,F#3,403.0,0.25,52,79.0
2196,G#2,403.333,0.25,43,79.0
2197,F#3,403.333,0.25,43,79.0
2198,F#3,403.667,0.25,42,79.0
2199,G#2,403.667,0.25,42,79.0
2200,C5,403.75,0.25,60,79.0
2201,D4,404.0,1.0,59,79.0
2202,F4,404.0,1.0,59,79.0
2203,B4,404.0,1.0,59,79.0
2204,G2,404.0,0.25,54,79.0
2205,F3,404.0,0.25,54,79.0
2206,G2,404.333,0.25,45,79.0
2207,F3,404.333,0.25,45,79.0
2208,G2,404.667,0.25,45,79.0
2209,F3,404.667,0.25,45,79.0
2210,G4,405.0,0.75,52,79.0
2211,D4,405.0,1.0,57,79.0
2212,B4,405.0,1.0,57,79.0
2213,G2,405.0,0.25,54,79.0
2214,F2,405.0,0.25,54,79.0
2215,F2,405.333,0.25,43,79.0
2216,G2,405.333,0.25,43,79.0
2217,G2,405.667,0.25,43,79.0
2218,F2,405.667,0.25,43,79.0
2219,G#4,405.75,0.25,51,79.0
2220,C4,406.0,1.0,63,79.0
2221,G4,406.0,1.0,63,79.0
2222,C5,406.0,1.0,63,79.0
2223,E-2,406.0,0.25,55,79.0
2224,G2,406.0,0.25,55,79.0
2225,G2,406.333,0.25,43,79.0
2226,E-2,406.333,0.25,43,79.0
2227,E-2,406.667,0.25,43,79.0
2228,G2,406.667,0.25,43,79.0
2229,E-5,407.0,0.75,75,79.0
2230,F4,407.0,1.0,64,79.0
2231,B4,407.0,1.0,64,79.0
2232,G1,407.0,0.25,57,79.0
2233,G2,407.0,0.25,57,79.0
2234,G2,407.333,0.25,43,79.0
2235,G1,407.333,0.25,43,79.0
2236,G2,407.667,0.25,43,79.0
2237,G1,407.667,0.25,43,79.0
2238,D5,407.75,0.25,62,79.0
2239,E-4,408.0,3.0,67,79.0
2240,C5,408.0,3.0,67,79.0
2241,C2,408.0,333/1000,40,79.0
2242,C3,408.0,333/1000,40,79.0
2243,G3,408.333,0.25,31,79.0
2244,G3,408.667,0.25,31,79.0
2245,G3,409.0,0.25,31,79.0
2246,G3,409.333,0.25,29,79.0
2247,G3,409.667,0.25,29,79.0
2248,G3,410.0,0.25,29,79.0
2249,G3,410.333,0.25,28,79.0
2250,G3,410.667,0.25,28,79.0
2251,D5,411.0,0.75,44,79.0
2252,G3,411.0,0.25,31,79.0
2253,G3,411.333,0.25,30,79.0
2254,G3,411.667,0.25,30,79.0
2255,E-5,411.75,0.25,38,79.0
2256,F5,412.0,1.0,51,79.0
2257,G#3,412.0,0.25,31,79.0
2258,G#3,412.333,0.25,27,79.0
2259,G#3,412.667,0.25,27,79.0
2260,A3,413.0,0.25,31,79.0
2261,F4,413.0,1.0,38,79.0
2262,F5,413.0,1.0,38,79.0
2263,A3,413.333,0.25,28,79.0
2264,A3,413.667,0.25,28,79.0
2265,B-3,414.0,0.25,31,79.0
2266,G#4,414.0,1.0,38,79.0
2267,F5,414.0,1.0,38,79.0
2268,B-3,414.333,0.25,31,79.0
2269,B-3,414.667,0.25,31,79.0
2270,E-5,415.0,0.75,46,79.0
2271,B-3,415.0,0.25,31,79.0
2272,B-3,415.333,0.25,31,79.0
2273,B-3,415.667,0.25,32,79.0
2274,D5,415.75,0.25,47,79.0
2275,G5,416.0,1.5,53,79.0
2276,B-3,416.0,0.25,40,79.0
2277,B-3,416.333,0.25,31,79.0
2278,B-3,416.667,0.25,26,79.0
2279,G4,417.0,0.75,50,79.0
2280,B3,417.0,0.25,33,79.0
2281,B3,417.333,0.25,29,79.0
2282,F5,417.5,0.5,44,79.0
2283,B3,417.667,0.25,26,79.0
2284,G#4,417.75,0.25,53,79.0
2285,E-5,418.0,1.0,39,79.0
2286,C4,418.0,0.25,33,79.0
2287,G3,418.333,0.25,30,79.0
2288,G3,418.667,0.25,29,79.0
2289,D5,419.0,0.75,49,79.0
2290,G3,419.0,0.25,33,79.0
2291,G3,419.333,0.25,30,79.0
2292,G3,419.667,0.25,30,79.0
2293,C5,419.75,0.25,42,79.0
2294,B4,420.0,1.0,46,79.0
2295,G3,420.0,0.25,31,79.0
2296,G3,420.333,0.25,28,79.0
2297,G3,420.667,0.25,28,79.0
2298,G#4,421.0,0.5,41,79.0
2299,B4,421.0,1.0,44,79.0
2300,G3,421.0,0.25,31,79.0
2301,G3,421.333,0.25,28,79.0
2302,G4,421.5,0.5,40,79.0
2303,G3,421.667,0.25,31,79.0
2304,F4,422.0,0.5,41,79.0
2305,C5,422.0,1.0,48,79.0
2306,G3,422.0,0.25,36,79.0
2307,G3,422.333,0.25,29,79.0
2308,E-4,422.5,0.5,41,79.0
2309,G3,422.667,0.25,29,79.0
2310,D4,423.0,0.5,41,79.0
2311,F5,423.0,0.75,43,79.0
2312,G3,423.0,0.25,36,79.0
2313,G3,423.333,0.25,31,79.0
2314,C4,423.5,0.5,41,79.0
2315,G3,423.667,0.25,31,79.0
2316,E-5,423.75,0.25,44,79.0
2317,G#4,424.0,0.25,41,79.0
2318,D5,424.0,3.0,51,79.0
2319,G3,424.0,0.25,37,79.0
2320,G4,424.25,2.75,47,79.0
2321,G3,424.333,0.25,29,79.0
2322,G3,424.667,0.25,29,79.0
2323,G3,425.0,0.25,42,79.0
2324,G3,425.333,0.25,35,79.0
2325,G3,425.667,0.25,37,79.0
2326,G3,426.0,333/1000,49,79.0
2327,G#3,426.333,333/1000,36,79.0
2328,A3,426.667,333/1000,36,79.0
2329,D5,427.0,0.75,62,79.0
2330,B-3,427.0,0.25,52,79.0
2331,B-3,427.333,0.25,45,79.0
2332,B-3,427.667,0.25,52,79.0
2333,E-5,427.75,0.25,60,79.0
2334,B-3,428.0,0.25,59,79.0
2335,F4,428.0,1.0,65,79.0
2336,D5,428.0,1.0,65,79.0
2337,F5,428.0,1.0,65,79.0
2338,B-3,428.333,0.25,47,79.0
2339,B-3,428.667,0.25,47,79.0
2340,F4,429.0,1.0,53,79.0
2341,D5,429.0,1.0,53,79.0
2342,F5,429.0,1.0,53,79.0
2343,A3,429.0,0.25,48,79.0
2344,B-3,429.0,0.25,48,79.0
2345,B-3,429.333,0.25,40,79.0
2346,A3,429.333,0.25,40,79.0
2347,B-3,429.667,0.25,40,79.0
2348,A3,429.667,0.25,40,79.0
2349,F4,430.0,1.0,53,79.0
2350,D5,430.0,1.0,53,79.0
2351,F5,430.0,1.0,53,79.0
2352,B-3,430.0,0.25,50,79.0
2353,G#3,430.0,0.25,50,79.0
2354,G#3,430.333,0.25,42,79.0
2355,B-3,430.333,0.25,42,79.0
2356,G#3,430.667,0.25,42,79.0
2357,B-3,430.667,0.25,42,79.0
2358,G4,431.0,0.75,63,79.0
2359,E-5,431.0,0.75,63,79.0
2360,G5,431.0,0.75,63,79.0
2361,B-3,431.0,0.25,49,79.0
2362,G3,431.0,0.25,49,79.0
2363,B-3,431.333,0.25,40,79.0
2364,G3,431.333,0.25,40,79.0
2365,F3,431.667,0.25,39,79.0
2366,B-3,431.667,0.25,39,79.0
2367,G#3,431.667,0.25,39,79.0
2368,G#4,431.75,0.25,59,79.0
2369,F5,431.75,0.25,59,79.0
2370,G#5,431.75,0.25,59,79.0
2371,G5,432.0,1.0,68,79.0
2372,B-4,432.0,1.0,68,79.0
2373,B-5,432.0,1.0,68,79.0
2374,E-3,432.0,0.25,54,79.0
2375,B-3,432.0,0.25,54,79.0
2376,G3,432.0,0.25,54,79.0
2377,E-3,432.333,0.25,43,79.0
2378,G3,432.333,0.25,43,79.0
2379,B-3,432.333,0.25,43,79.0
2380,E-3,432.667,0.25,43,79.0
2381,B-3,432.667,0.25,43,79.0
2382,G3,432.667,0.25,43,79.0
2383,G#4,433.0,1.0,69,79.0
2384,G#5,433.0,1.0,69,79.0
2385,B2,433.0,0.25,48,79.0
2386,F3,433.0,0.25,48,79.0
2387,G#3,433.0,0.25,48,79.0
2388,B2,433.333,0.25,43,79.0
2389,F3,433.333,0.25,43,79.0
2390,G#3,433.333,0.25,43,79.0
2391,B2,433.667,0.25,43,79.0
2392,F3,433.667,0.25,43,79.0
2393,G#3,433.667,0.25,43,79.0
2394,E-5,434.0,1.0,70,79.0
2395,G5,434.0,1.0,70,79.0
2396,C3,434.0,0.25,49,79.0
2397,G3,434.0,0.25,49,79.0
2398,E-3,434.0,0.25,49,79.0
2399,C3,434.333,0.25,38,79.0
2400,E-3,434.333,0.25,38,79.0
2401,G3,434.333,0.25,38,79.0
2402,C3,434.667,0.25,38,79.0
2403,E-3,434.667,0.25,38,79.0
2404,G3,434.667,0.25,38,79.0
2405,F4,435.0,1.0,58,79.0
2406,F5,435.0,0.75,69,79.0
2407,G#2,435.0,0.25,48,79.0
2408,F3,435.0,0.25,48,79.0
2409,F3,435.333,0.25,40,79.0
2410,B-2,435.333,0.25,40,79.0
2411,F3,435.667,0.25,38,79.0
2412,G#2,435.667,0.25,38,79.0
2413,D5,435.75,0.25,60,79.0
2414,D4,436.0,1.0,59,79.0
2415,F4,436.0,1.0,59,79.0
2416,B4,436.0,1.0,59,79.0
2417,G2,436.0,0.25,52,79.0
2418,F3,436.0,0.25,52,79.0
2419,G#2,436.333,0.25,44,79.0
2420,F3,436.333,0.25,44,79.0
2421,G2,436.667,0.25,44,79.0
2422,F3,436.667,0.25,44,79.0
2423,G4,437.0,0.75,52,79.0
2424,D4,437.0,1.0,57,79.0
2425,B4,437.0,1.0,57,79.0
2426,G2,437.0,0.25,53,79.0
2427,F2,437.0,0.25,53,79.0
2428,G2,437.333,0.25,47,79.0
2429,G2,437.667,0.25,43,79.0
2430,F2,437.667,0.25,43,79.0
2431,G#4,437.75,0.25,51,79.0
2432,C4,438.0,1.0,63,79.0
2433,G4,438.0,1.0,63,79.0
2434,C5,438.0,1.0,63,79.0
2435,E-2,438.0,0.25,56,79.0
2436,G2,438.0,0.25,56,79.0
2437,F2,438.333,0.25,45,79.0
2438,G2,438.333,0.25,45,79.0
2439,G2,438.667,0.25,45,79.0
2440,E-2,438.667,0.25,45,79.0
2441,E-5,439.0,0.75,75,79.0
2442,F4,439.0,1.0,64,79.0
2443,B4,439.0,1.0,64,79.0
2444,G1,439.0,0.25,60,79.0
2445,G2,439.0,0.25,60,79.0
2446,G2,439.333,0.25,46,79.0
2447,G#1,439.333,0.25,46,79.0
2448,G2,439.667,0.25,46,79.0
2449,G1,439.667,0.25,46,79.0
2450,D5,439.75,0.25,62,79.0
2451,E-4,440.0,3.0,70,79.0
2452,C5,440.0,3.0,70,79.0
2453,C2,440.0,333/1000,56,79.0
2454,G2,440.0,333/1000,56,79.0
2455,C3,440.0,333/1000,56,79.0
2456,D3,440.333,333/1000,60,79.0
2457,C3,440.667,333/1000,60,79.0
2458,B-2,441.0,333/1000,68,79.0
2459,C3,441.333,333/1000,62,79.0
2460,B-2,441.667,333/1000,62,79.0
2461,G#2,442.0,3/10,68,79.0
2462,C3,442.0,3/10,68,79.0
2463,B-2,442.333,3/10,58,79.0
2464,C3,442.333,3/10,58,79.0
2465,G#2,442.667,3/10,59,79.0
2466,C3,442.667,3/10,59,79.0
2467,C4,443.0,3/10,79,79.0
2468,C5,443.0,3/10,79,79.0
2469,G2,443.0,3/10,72,79.0
2470,C3,443.0,3/10,72,79.0
2471,C4,443.333,3/10,79,79.0
2472,C5,443.333,3/10,79,79.0
2473,G#2,443.333,3/10,60,79.0
2474,C3,443.333,3/10,60,79.0
2475,C4,443.667,3/10,79,79.0
2476,C5,443.667,3/10,79,79.0
2477,G2,443.667,3/10,60,79.0
2478,C3,443.667,3/10,60,79.0
2479,C6,444.0,3.0,83,79.0
2480,G#5,444.0,3.0,83,79.0
2481,D5,444.0,3.0,83,79.0
2482,C5,444.0,3.0,83,79.0
2483,F2,444.0,333/1000,72,79.0
2484,C3,444.0,333/1000,72,79.0
2485,G2,444.333,333/1000,60,79.0
2486,C3,444.333,333/1000,60,79.0
2487,F2,444.667,333/1000,60,79.0
2488,C3,444.667,333/1000,60,79.0
2489,G#2,445.0,333/1000,72,79.0
2490,C3,445.0,333/1000,72,79.0
2491,B-2,445.333,333/1000,60,79.0
2492,C3,445.333,333/1000,60,79.0
2493,G#2,445.667,333/1000,60,79.0
2494,C3,445.667,333/1000,60,79.0
2495,G2,446.0,3/10,68,79.0
2496,C3,446.0,3/10,68,79.0
2497,G#2,446.333,3/10,60,79.0
2498,C3,446.333,3/10,60,79.0
2499,G2,446.667,3/10,60,79.0
2500,C3,446.667,3/10,60,79.0
2501,C4,447.0,3/10,77,79.0
2502,C5,447.0,3/10,77,79.0
2503,F2,447.0,3/10,68,79.0
2504,C3,447.0,3/10,68,79.0
2505,C4,447.333,3/10,77,79.0
2506,C5,447.333,3/10,77,79.0
2507,G2,447.333,3/10,60,79.0
2508,C3,447.333,3/10,60,79.0
2509,C4,447.667,3/10,77,79.0
2510,C5,447.667,3/10,77,79.0
2511,F2,447.667,3/10,60,79.0
2512,C3,447.667,3/10,60,79.0
2513,C6,448.0,3.0,84,79.0
2514,G5,448.0,3.0,84,79.0
2515,E-5,448.0,3.0,84,79.0
2516,C5,448.0,3.0,84,79.0
2517,E-2,448.0,3/10,72,79.0
2518,C3,448.0,3/10,72,79.0
2519,F2,448.333,3/10,60,79.0
2520,C3,448.333,3/10,60,79.0
2521,E-2,448.667,3/10,60,79.0
2522,C3,448.667,3/10,60,79.0
2523,G2,449.0,3/10,70,79.0
2524,C3,449.0,3/10,70,79.0
2525,G#2,449.333,3/10,60,79.0
2526,C3,449.333,3/10,60,79.0
2527,G2,449.667,3/10,60,79.0
2528,C3,449.667,3/10,60,79.0
2529,F2,450.0,3/10,70,79.0
2530,C3,450.0,3/10,70,79.0
2531,G2,450.333,3/10,60,79.0
2532,C3,450.333,3/10,60,79.0
2533,F2,450.667,3/10,60,79.0
2534,C3,450.667,3/10,60,79.0
2535,C4,451.0,3/10,77,79.0
2536,C5,451.0,3/10,77,79.0
2537,E-2,451.0,3/10,68,79.0
2538,C3,451.0,3/10,68,79.0
2539,C4,451.333,3/10,77,79.0
2540,C5,451.333,3/10,77,79.0
2541,F2,451.333,3/10,61,79.0
2542,C3,451.333,3/10,61,79.0
2543,C4,451.667,3/10,77,79.0
2544,C5,451.667,3/10,77,79.0
2545,E-2,451.667,3/10,61,79.0
2546,C3,451.667,3/10,61,79.0
2547,C#5,452.0,1.0,81,79.0
2548,F4,452.0,1.0,81,79.0
2549,C#4,452.0,1.0,81,79.0
2550,C#2,452.0,3/10,70,79.0
2551,G#2,452.0,3/10,70,79.0
2552,E-2,452.333,3/10,59,79.0
2553,G#2,452.333,3/10,59,79.0
2554,C2,452.667,3/10,59,79.0
2555,G#2,452.667,3/10,59,79.0
2556,F4,453.0,0.75,81,79.0
2557,F5,453.0,0.75,81,79.0
2558,C#2,453.0,3/10,66,79.0
2559,G#2,453.0,3/10,66,79.0
2560,E-2,453.333,3/10,58,79.0
2561,G#2,453.333,3/10,58,79.0
2562,F2,453.667,3/10,58,79.0
2563,G#2,453.667,3/10,58,79.0
2564,G#4,453.75,0.25,72,79.0
2565,G#5,453.75,0.25,72,79.0
2566,G4,454.0,1.0,78,79.0
2567,C5,454.0,1.0,78,79.0
2568,E-5,454.0,1.0,78,79.0
2569,G5,454.0,1.0,78,79.0
2570,G1,454.0,3/10,68,79.0
2571,G2,454.0,3/10,68,79.0
2572,G2,454.333,3/10,65,79.0
2573,G2,454.667,3/10,60,79.0
2574,G4,455.0,1.0,74,79.0
2575,B4,455.0,1.0,74,79.0
2576,D5,455.0,1.0,74,79.0
2577,G5,455.0,1.0,74,79.0
2578,G1,455.0,3/10,65,79.0
2579,G2,455.0,3/10,65,79.0
2580,G2,455.333,3/10,63,79.0
2581,G2,455.667,3/10,63,79.0
2582,G4,456.0,3.0,67,79.0
2583,C4,456.0,3.0,67,79.0
2584,E-4,456.0,3.0,67,79.0
2585,C5,456.0,3.0,67,79.0
2586,C2,456.0,333/1000,56,79.0
2587,G2,456.0,333/1000,56,79.0
2588,C3,456.0,333/1000,56,79.0
2589,E-3,456.333,333/1000,60,79.0
2590,D3,456.667,333/1000,60,79.0
2591,C3,457.0,333/1000,68,79.0
2592,D3,457.333,333/1000,62,79.0
2593,C3,457.667,333/1000,62,79.0
2594,B2,458.0,333/1000,73,79.0
2595,C3,458.333,333/1000,63,79.0
2596,B2,458.667,333/1000,64,79.0
2597,B-2,459.0,333/1000,78,79.0
2598,C4,459.0,3/10,79,79.0
2599,C5,459.0,3/10,79,79.0
2600,C3,459.333,333/1000,65,79.0
2601,C4,459.333,3/10,79,79.0
2602,C5,459.333,3/10,79,79.0
2603,B-2,459.667,333/1000,65,79.0
2604,C4,459.667,3/10,79,79.0
2605,C5,459.667,3/10,79,79.0
2606,C6,460.0,3.0,84,79.0
2607,D5,460.0,3.0,84,79.0
2608,C5,460.0,3.0,84,79.0
2609,A2,460.0,3/10,72,79.0
2610,C3,460.0,3/10,72,79.0
2611,B-2,460.333,3/10,60,79.0
2612,C3,460.333,3/10,60,79.0
2613,A2,460.667,3/10,60,79.0
2614,C3,460.667,3/10,60,79.0
2615,G#2,461.0,3/10,72,79.0
2616,C3,461.0,3/10,72,79.0
2617,B-2,461.333,3/10,60,79.0
2618,C3,461.333,3/10,60,79.0
2619,G#2,461.667,3/10,60,79.0
2620,C3,461.667,3/10,60,79.0
2621,G2,462.0,3/10,68,79.0
2622,C3,462.0,3/10,68,79.0
2623,G#2,462.333,3/10,60,79.0
2624,C3,462.333,3/10,60,79.0
2625,G2,462.667,3/10,60,79.0
2626,C3,462.667,3/10,60,79.0
2627,C4,463.0,3/10,77,79.0
2628,C5,463.0,3/10,77,79.0
2629,F2,463.0,3/10,68,79.0
2630,C3,463.0,3/10,68,79.0
2631,C4,463.333,3/10,77,79.0
2632,C5,463.333,3/10,77,79.0
2633,G2,463.333,3/10,60,79.0
2634,C3,463.333,3/10,60,79.0
2635,C4,463.667,3/10,77,79.0
2636,C5,463.667,3/10,77,79.0
2637,F2,463.667,3/10,60,79.0
2638,C3,463.667,3/10,60,79.0
2639,C6,464.0,3.0,85,79.0
2640,G5,464.0,3.0,85,79.0
2641,C5,464.0,3.0,85,79.0
2642,E2,464.0,3/10,72,79.0
2643,C3,464.0,3/10,72,79.0
2644,F2,464.333,3/10,60,79.0
2645,C3,464.333,3/10,60,79.0
2646,E2,464.667,3/10,60,79.0
2647,C3,464.667,3/10,60,79.0
2648,E-2,465.0,3/10,70,79.0
2649,C3,465.0,3/10,70,79.0
2650,F2,465.333,3/10,60,79.0
2651,C3,465.333,3/10,60,79.0
2652,E-2,465.667,3/10,60,79.0
2653,C3,465.667,3/10,60,79.0
2654,D2,466.0,3/10,70,79.0
2655,C3,466.0,3/10,70,79.0
2656,E-2,466.333,3/10,60,79.0
2657,C3,466.333,3/10,60,79.0
2658,D2,466.667,3/10,60,79.0
2659,C3,466.667,3/10,60,79.0
2660,C4,467.0,3/10,77,79.0
2661,C5,467.0,3/10,77,79.0
2662,C2,467.0,3/10,68,79.0
2663,C3,467.0,3/10,68,79.0
2664,C4,467.333,3/10,77,79.0
2665,C5,467.333,3/10,77,79.0
2666,D2,467.333,3/10,61,79.0
2667,C3,467.333,3/10,61,79.0
2668,C4,467.667,3/10,77,79.0
2669,C5,467.667,3/10,77,79.0
2670,E-2,467.667,3/10,61,79.0
2671,C3,467.667,3/10,61,79.0
2672,C#5,468.0,1.0,81,79.0
2673,F4,468.0,1.0,81,79.0
2674,C#4,468.0,1.0,81,79.0
2675,F2,468.0,3/10,70,79.0
2676,G#2,468.0,3/10,70,79.0
2677,E-2,468.333,3/10,59,79.0
2678,G#2,468.333,3/10,59,79.0
2679,C#2,468.667,0.281,59,79.0
2680,G#2,468.667,0.281,59,79.0
2681,F4,469.0,0.75,81,79.0
2682,F5,469.0,0.75,81,79.0
2683,C#2,469.0,3/10,66,79.0
2684,G#2,469.0,3/10,66,79.0
2685,E-2,469.333,3/10,58,79.0
2686,G#2,469.333,3/10,58,79.0
2687,F2,469.667,3/10,58,79.0
2688,G#2,469.667,3/10,58,79.0
2689,G#4,469.75,0.25,72,79.0
2690,G#5,469.75,0.25,72,79.0
2691,G4,470.0,1.0,78,79.0
2692,C5,470.0,1.0,78,79.0
2693,E-5,470.0,1.0,78,79.0
2694,G5,470.0,1.0,78,79.0
2695,G1,470.0,3/10,68,79.0
2696,G2,470.0,3/10,68,79.0
2697,G2,470.333,3/10,65,79.0
2698,G2,470.667,3/10,60,79.0
2699,G4,471.0,1.0,74,79.0
2700,B4,471.0,1.0,74,79.0
2701,D5,471.0,1.0,74,79.0
2702,G5,471.0,1.0,74,79.0
2703,G1,471.0,3/10,65,79.0
2704,G2,471.0,3/10,65,79.0
2705,G2,471.333,3/10,63,79.0
2706,G2,471.667,3/10,63,79.0
2707,G4,472.0,3.0,67,79.0
2708,C4,472.0,3.0,67,79.0
2709,E-4,472.0,3.0,67,79.0
2710,C5,472.0,3.0,67,79.0
2711,C2,472.0,0.25,68,79.0
2712,C3,472.0,0.25,68,79.0
2713,C2,472.333,0.25,62,79.0
2714,C3,472.333,0.25,62,79.0
2715,C2,472.667,0.25,62,79.0
2716,C3,472.667,0.25,62,79.0
2717,D2,473.0,0.25,68,79.0
2718,C3,473.0,0.25,68,79.0
2719,D2,473.333,0.25,64,79.0
2720,C3,473.333,0.25,64,79.0
2721,D2,473.667,0.25,60,79.0
2722,C3,473.667,0.25,60,79.0
2723,E-2,474.0,0.25,68,79.0
2724,C3,474.0,0.25,68,79.0
2725,E-2,474.333,0.25,62,79.0
2726,C3,474.333,0.25,62,79.0
2727,E-2,474.667,0.25,62,79.0
2728,C3,474.667,0.25,62,79.0
2729,C4,475.0,0.25,62,79.0
2730,C5,475.0,0.25,62,79.0
2731,E2,475.0,0.25,68,79.0
2732,C3,475.0,0.25,68,79.0
2733,C4,475.333,0.25,58,79.0
2734,C5,475.333,0.25,58,79.0
2735,E2,475.333,0.25,61,79.0
2736,C3,475.333,0.25,61,79.0
2737,C4,475.667,0.25,58,79.0
2738,C5,475.667,0.25,58,79.0
2739,E2,475.667,0.25,61,79.0
2740,C3,475.667,0.25,61,79.0
2741,C#4,476.0,0.25,57,79.0
2742,C5,476.0,0.25,57,79.0
2743,F2,476.0,0.25,66,79.0
2744,C3,476.0,0.25,66,79.0
2745,C5,476.333,0.25,50,79.0
2746,C#4,476.333,0.25,50,79.0
2747,F2,476.333,0.25,62,79.0
2748,C3,476.333,0.25,62,79.0
2749,C#4,476.667,0.25,50,79.0
2750,C5,476.667,0.25,50,79.0
2751,F2,476.667,0.25,62,79.0
2752,C3,476.667,0.25,62,79.0
2753,D4,477.0,0.25,54,79.0
2754,C5,477.0,0.25,54,79.0
2755,F#2,477.0,0.25,64,79.0
2756,B-2,477.0,0.25,64,79.0
2757,C5,477.333,0.25,46,79.0
2758,D4,477.333,0.25,46,79.0
2759,F#2,477.333,0.25,58,79.0
2760,B-2,477.333,0.25,58,79.0
2761,D4,477.667,0.25,46,79.0
2762,C5,477.667,0.25,46,79.0
2763,F#2,477.667,0.25,58,79.0
2764,B-2,477.667,0.25,58,79.0
2765,C5,478.0,0.25,50,79.0
2766,E-4,478.0,0.25,50,79.0
2767,G2,478.0,0.25,61,79.0
2768,C3,478.0,0.25,61,79.0
2769,C5,478.333,0.25,46,79.0
2770,E-4,478.333,0.25,46,79.0
2771,G2,478.333,0.25,56,79.0
2772,C3,478.333,0.25,56,79.0
2773,E-4,478.667,0.25,50,79.0
2774,C5,478.667,0.25,50,79.0
2775,G2,478.667,0.25,61,79.0
2776,C3,478.667,0.25,61,79.0
2777,E4,479.0,0.25,52,79.0
2778,C5,479.0,0.25,52,79.0
2779,G#2,479.0,0.25,65,79.0
2780,C3,479.0,0.25,65,79.0
2781,C5,479.333,0.25,40,79.0
2782,E4,479.333,0.25,40,79.0
2783,G#2,479.333,0.25,52,79.0
2784,C3,479.333,0.25,52,79.0
2785,C5,479.667,0.25,40,79.0
2786,E4,479.667,0.25,40,79.0
2787,G#2,479.667,0.25,52,79.0
2788,C3,479.667,0.25,52,79.0
2789,E4,480.0,0.25,43,79.0
2790,C5,480.0,0.25,43,79.0
2791,G#2,480.0,0.25,50,79.0
2792,C3,480.0,0.25,50,79.0
2793,E4,480.333,0.25,34,79.0
2794,C5,480.333,0.25,34,79.0
2795,G#2,480.333,0.25,48,79.0
2796,C3,480.333,0.25,48,79.0
2797,E4,480.667,0.25,34,79.0
2798,C5,480.667,0.25,34,79.0
2799,G#2,480.667,0.25,47,79.0
2800,C3,480.667,0.25,47,79.0
2801,E4,481.0,0.25,42,79.0
2802,C5,481.0,0.25,42,79.0
2803,G#2,481.0,0.25,49,79.0
2804,C3,481.0,0.25,49,79.0
2805,E4,481.333,0.25,34,79.0
2806,C5,481.333,0.25,34,79.0
2807,G#2,481.333,0.25,44,79.0
2808,C3,481.333,0.25,44,79.0
2809,E4,481.667,0.25,33,79.0
2810,C5,481.667,0.25,33,79.0
2811,G#2,481.667,0.25,42,79.0
2812,C3,481.667,0.25,42,79.0
2813,F4,482.0,0.25,42,79.0
2814,C5,482.0,0.25,42,79.0
2815,G#2,482.0,0.25,47,79.0
2816,C3,482.0,0.25,47,79.0
2817,F4,482.333,0.25,32,79.0
2818,C5,482.333,0.25,32,79.0
2819,G#2,482.333,0.25,42,79.0
2820,C3,482.333,0.25,42,79.0
2821,F4,482.667,0.25,32,79.0
2822,C5,482.667,0.25,32,79.0
2823,G#2,482.667,0.25,42,79.0
2824,C3,482.667,0.25,42,79.0
2825,E-4,483.0,0.25,33,79.0
2826,F#4,483.0,0.25,33,79.0
2827,C5,483.0,0.25,33,79.0
2828,A2,483.0,0.25,34,79.0
2829,C3,483.0,0.25,34,79.0
2830,E-4,483.333,0.25,28,79.0
2831,F#4,483.333,0.25,28,79.0
2832,C5,483.333,0.25,28,79.0
2833,A2,483.333,0.25,28,79.0
2834,C3,483.333,0.25,28,79.0
2835,E-4,483.667,0.25,28,79.0
2836,F#4,483.667,0.25,28,79.0
2837,C5,483.667,0.25,28,79.0
2838,A2,483.667,0.25,28,79.0
2839,C3,483.667,0.25,28,79.0
2840,E-4,484.0,0.25,33,79.0
2841,F#4,484.0,0.25,33,79.0
2842,C5,484.0,0.25,33,79.0
2843,A2,484.0,0.25,37,79.0
2844,C3,484.0,0.25,37,79.0
2845,D4,484.333,0.25,29,79.0
2846,F#4,484.333,0.25,29,79.0
2847,C5,484.333,0.25,29,79.0
2848,A2,484.333,0.25,30,79.0
2849,D3,484.333,0.25,30,79.0
2850,D4,484.667,0.25,29,79.0
2851,F#4,484.667,0.25,29,79.0
2852,C5,484.667,0.25,29,79.0
2853,A2,484.667,0.25,30,79.0
2854,D3,484.667,0.25,30,79.0
2855,D4,485.0,0.25,33,79.0
2856,F#4,485.0,0.25,33,79.0
2857,C5,485.0,0.25,33,79.0
2858,A2,485.0,0.25,34,79.0
2859,D3,485.0,0.25,34,79.0
2860,D4,485.333,0.25,28,79.0
2861,F#4,485.333,0.25,28,79.0
2862,C5,485.333,0.25,28,79.0
2863,A2,485.333,0.25,30,79.0
2864,D3,485.333,0.25,30,79.0
2865,D4,485.667,0.25,28,79.0
2866,F#4,485.667,0.25,28,79.0
2867,C5,485.667,0.25,28,79.0
2868,A2,485.667,0.25,30,79.0
2869,D3,485.667,0.25,30,79.0
2870,D4,486.0,0.25,33,79.0
2871,G4,486.0,0.25,33,79.0
2872,C5,486.0,0.25,33,79.0
2873,B-2,486.0,0.25,35,79.0
2874,D3,486.0,0.25,35,79.0
2875,D4,486.333,0.25,29,79.0
2876,G4,486.333,0.25,29,79.0
2877,C5,486.333,0.25,29,79.0
2878,B-2,486.333,0.25,31,79.0
2879,D3,486.333,0.25,31,79.0
2880,D4,486.667,0.25,29,79.0
2881,G4,486.667,0.25,29,79.0
2882,C5,486.667,0.25,29,79.0
2883,B-2,486.667,0.25,31,79.0
2884,D3,486.667,0.25,31,79.0
2885,D4,487.0,0.25,33,79.0
2886,G4,487.0,0.25,33,79.0
2887,B-4,487.0,0.25,33,79.0
2888,B-2,487.0,0.25,34,79.0
2889,D3,487.0,0.25,34,79.0
2890,D4,487.333,0.25,29,79.0
2891,G4,487.333,0.25,29,79.0
2892,B-4,487.333,0.25,29,79.0
2893,B-2,487.333,0.25,30,79.0
2894,D3,487.333,0.25,30,79.0
2895,D4,487.667,0.25,29,79.0
2896,G4,487.667,0.25,29,79.0
2897,B-4,487.667,0.25,29,79.0
2898,B-2,487.667,0.25,30,79.0
2899,D3,487.667,0.25,30,79.0
2900,C4,488.0,0.25,33,79.0
2901,E-4,488.0,0.25,33,79.0
2902,B-4,488.0,0.25,33,79.0
2903,C3,488.0,0.25,34,79.0
2904,E-3,488.0,0.25,34,79.0
2905,C4,488.333,0.25,28,79.0
2906,E-4,488.333,0.25,28,79.0
2907,B-4,488.333,0.25,28,79.0
2908,C3,488.333,0.25,30,79.0
2909,E-3,488.333,0.25,30,79.0
2910,C4,488.667,0.25,28,79.0
2911,E-4,488.667,0.25,28,79.0
2912,B-4,488.667,0.25,28,79.0
2913,C3,488.667,0.25,30,79.0
2914,E-3,488.667,0.25,30,79.0
2915,C4,489.0,0.25,33,79.0
2916,E-4,489.0,0.25,33,79.0
2917,A4,489.0,0.25,33,79.0
2918,C3,489.0,0.25,34,79.0
2919,E-3,489.0,0.25,34,79.0
2920,C4,489.333,0.25,29,79.0
2921,E-4,489.333,0.25,29,79.0
2922,A4,489.333,0.25,29,79.0
2923,C3,489.333,0.25,28,79.0
2924,E-3,489.333,0.25,28,79.0
2925,C4,489.667,0.25,29,79.0
2926,E-4,489.667,0.25,29,79.0
2927,A4,489.667,0.25,29,79.0
2928,C3,489.667,0.25,28,79.0
2929,E-3,489.667,0.25,28,79.0
2930,D3,490.0,0.25,37,79.0
2931,B-3,490.0,0.25,33,79.0
2932,D4,490.0,0.25,33,79.0
2933,G4,490.0,0.25,33,79.0
2934,D3,490.333,0.25,32,79.0
2935,B-3,490.333,0.25,28,79.0
2936,D4,490.333,0.25,28,79.0
2937,G4,490.333,0.25,28,79.0
2938,D3,490.667,0.25,32,79.0
2939,B-3,490.667,0.25,28,79.0
2940,D4,490.667,0.25,28,79.0
2941,G4,490.667,0.25,28,79.0
2942,D3,491.0,0.25,37,79.0
2943,A3,491.0,0.25,33,79.0
2944,D4,491.0,0.25,33,79.0
2945,F#4,491.0,0.25,33,79.0
2946,D3,491.333,0.25,32,79.0
2947,A3,491.333,0.25,29,79.0
2948,D4,491.333,0.25,29,79.0
2949,F#4,491.333,0.25,29,79.0
2950,D3,491.667,0.25,32,79.0
2951,A3,491.667,0.25,29,79.0
2952,D4,491.667,0.25,29,79.0
2953,F#4,491.667,0.25,29,79.0
2954,D3,492.0,0.25,37,79.0
2955,G2,492.0,2.0,31,79.0
2956,B-3,492.0,2.0,33,79.0
2957,D4,492.0,2.0,33,79.0
2958,G4,492.0,2.0,33,79.0
2959,D3,492.333,0.25,29,79.0
2960,D3,492.667,0.25,29,79.0
2961,D3,493.0,0.25,32,79.0
2962,D3,493.333,0.25,29,79.0
2963,D3,493.667,0.25,29,79.0
2964,D3,494.0,0.25,31,79.0
2965,D3,494.333,0.25,29,79.0
2966,D3,494.667,0.25,29,79.0
2967,G4,495.0,0.75,39,79.0
2968,D3,495.0,0.25,32,79.0
2969,D3,495.333,0.25,29,79.0
2970,D3,495.667,0.25,29,79.0
2971,B-4,495.75,0.25,39,79.0
2972,D5,496.0,1.0,44,79.0
2973,D4,496.25,11/40,29,79.0
2974,G4,496.5,11/40,30,79.0
2975,G2,496.5,0.25,32,79.0
2976,B-4,496.75,0.25,28,79.0
2977,D5,497.0,1.0,40,79.0
2978,D4,497.25,11/40,28,79.0
2979,G4,497.5,11/40,30,79.0
2980,G2,497.5,0.25,32,79.0
2981,B-4,497.75,0.25,28,79.0
2982,D5,498.0,1.0,45,79.0
2983,D4,498.25,11/40,27,79.0
2984,F#4,498.5,11/40,30,79.0
2985,D2,498.5,0.25,36,79.0
2986,A4,498.75,0.25,28,79.0
2987,D5,499.0,1.0,46,79.0
2988,D4,499.25,11/40,27,79.0
2989,G4,499.5,11/40,30,79.0
2990,G2,499.5,0.25,32,79.0
2991,B-4,499.75,0.25,26,79.0
2992,E-5,500.0,2.0,51,79.0
2993,E-4,500.25,11/40,31,79.0
2994,G4,500.5,11/40,33,79.0
2995,C2,500.5,0.25,38,79.0
2996,C5,500.75,11/40,31,79.0
2997,F#4,501.0,11/40,36,79.0
2998,C5,501.25,11/40,27,79.0
2999,A4,501.5,11/40,30,79.0
3000,C2,501.5,0.25,35,79.0
3001,F#4,501.75,0.25,27,79.0
3002,D5,502.0,2.0,41,79.0
3003,D4,502.25,11/40,27,79.0
3004,G4,502.5,11/40,30,79.0
3005,G2,502.5,0.25,37,79.0
3006,B-4,502.75,11/40,26,79.0
3007,D4,503.0,11/40,30,79.0
3008,B-4,503.25,11/40,28,79.0
3009,G4,503.5,11/40,30,79.0
3010,G2,503.5,0.25,32,79.0
3011,D4,503.75,0.25,27,79.0
3012,C5,504.0,2.0,50,79.0
3013,C4,504.25,11/40,28,79.0
3014,E-4,504.5,11/40,30,79.0
3015,G#2,504.5,0.25,36,79.0
3016,F#4,504.75,11/40,28,79.0
3017,C4,505.0,11/40,30,79.0
3018,F#4,505.25,11/40,30,79.0
3019,E-4,505.5,11/40,30,79.0
3020,A2,505.5,0.25,32,79.0
3021,C4,505.75,0.25,27,79.0
3022,B-4,506.0,2.0,45,79.0
3023,B-3,506.25,11/40,27,79.0
3024,D4,506.5,11/40,30,79.0
3025,B-2,506.5,0.25,32,79.0
3026,G4,506.75,11/40,27,79.0
3027,B-3,507.0,11/40,30,79.0
3028,G4,507.25,11/40,28,79.0
3029,D4,507.5,11/40,30,79.0
3030,D3,507.5,0.25,32,79.0
3031,B-3,507.75,0.25,28,79.0
3032,A4,508.0,1.0,50,79.0
3033,A3,508.25,11/40,28,79.0
3034,C4,508.5,11/40,30,79.0
3035,E-3,508.5,0.25,39,79.0
3036,G4,508.75,0.25,28,79.0
3037,C5,509.0,1.0,46,79.0
3038,E-4,509.25,11/40,29,79.0
3039,G4,509.5,11/40,30,79.0
3040,C3,509.5,0.25,32,79.0
3041,A4,509.75,0.25,28,79.0
3042,B-4,510.0,1.0,49,79.0
3043,B-3,510.25,11/40,27,79.0
3044,D4,510.5,11/40,30,79.0
3045,D3,510.5,0.25,32,79.0
3046,G4,510.75,0.25,27,79.0
3047,A4,511.0,1.0,45,79.0
3048,C4,511.25,11/40,26,79.0
3049,D4,511.5,11/40,30,79.0
3050,D2,511.5,0.25,32,79.0
3051,F#4,511.75,0.25,27,79.0
3052,G4,512.0,3.0,50,79.0
3053,G3,512.25,11/40,28,79.0
3054,B-3,512.5,11/40,32,79.0
3055,G2,512.5,0.25,30,79.0
3056,D4,512.75,11/40,34,79.0
3057,E-4,513.0,11/40,35,79.0
3058,A2,513.0,0.25,37,79.0
3059,C4,513.25,11/40,37,79.0
3060,A3,513.5,11/40,39,79.0
3061,C3,513.5,0.25,40,79.0
3062,E-4,513.75,11/40,44,79.0
3063,D4,514.0,11/40,44,79.0
3064,D3,514.0,0.25,44,79.0
3065,B-3,514.25,11/40,33,79.0
3066,D4,514.5,11/40,37,79.0
3067,G3,514.5,0.25,35,79.0
3068,F#4,514.75,11/40,28,79.0
3069,G4,515.0,11/40,34,79.0
3070,D3,515.0,0.25,39,79.0
3071,D4,515.25,11/40,26,79.0
3072,G4,515.5,11/40,30,79.0
3073,B-2,515.5,0.25,32,79.0
3074,B-4,515.75,0.25,26,79.0
3075,D5,516.0,1.0,44,79.0
3076,D4,516.25,11/40,29,79.0
3077,G4,516.5,11/40,30,79.0
3078,G2,516.5,0.25,32,79.0
3079,B-4,516.75,0.25,28,79.0
3080,D5,517.0,1.0,40,79.0
3081,D4,517.25,11/40,28,79.0
3082,G4,517.5,11/40,30,79.0
3083,G2,517.5,0.25,32,79.0
3084,B-4,517.75,0.25,28,79.0
3085,D5,518.0,1.0,45,79.0
3086,D4,518.25,11/40,27,79.0
3087,F#4,518.5,11/40,30,79.0
3088,D2,518.5,0.25,36,79.0
3089,A4,518.75,0.25,28,79.0
3090,D5,519.0,1.0,46,79.0
3091,D4,519.25,11/40,27,79.0
3092,G4,519.5,11/40,30,79.0
3093,G2,519.5,0.25,32,79.0
3094,B-4,519.75,0.25,26,79.0
3095,E-5,520.0,2.0,51,79.0
3096,E-4,520.25,11/40,31,79.0
3097,G4,520.5,11/40,33,79.0
3098,C2,520.5,0.25,38,79.0
3099,C5,520.75,11/40,31,79.0
3100,A4,521.0,11/40,41,79.0
3101,C5,521.25,11/40,33,79.0
3102,A4,521.5,11/40,41,79.0
3103,F2,521.5,0.25,43,79.0
3104,F4,521.75,0.25,34,79.0
3105,D5,522.0,2.0,57,79.0
3106,D4,522.25,11/40,34,79.0
3107,F4,522.5,11/40,40,79.0
3108,B-1,522.5,0.25,45,79.0
3109,B-4,522.75,11/40,33,79.0
3110,F4,523.0,11/40,41,79.0
3111,B-4,523.25,11/40,28,79.0
3112,F4,523.5,11/40,35,79.0
3113,B-2,523.5,0.25,43,79.0
3114,D4,523.75,0.25,27,79.0
3115,C5,524.0,2.0,60,79.0
3116,C4,524.25,11/40,35,79.0
3117,E-4,524.5,11/40,39,79.0
3118,A2,524.5,0.25,50,79.0
3119,A4,524.75,11/40,28,79.0
3120,F#4,525.0,11/40,40,79.0
3121,A4,525.25,11/40,27,79.0
3122,F#4,525.5,11/40,30,79.0
3123,D2,525.5,0.25,42,79.0
3124,D4,525.75,0.25,27,79.0
3125,B-4,526.0,2.0,45,79.0
3126,B-3,526.25,11/40,27,79.0
3127,D4,526.5,11/40,30,79.0
3128,G2,526.5,0.25,42,79.0
3129,G4,526.75,11/40,27,79.0
3130,B-3,527.0,11/40,30,79.0
3131,G4,527.25,11/40,28,79.0
3132,D4,527.5,11/40,30,79.0
3133,G1,527.5,0.25,41,79.0
3134,B-3,527.75,0.25,28,79.0
3135,G4,528.0,1.0,50,79.0
3136,E-4,528.25,11/40,28,79.0
3137,D4,528.5,11/40,30,79.0
3138,E-2,528.5,0.25,39,79.0
3139,C4,528.75,0.25,28,79.0
3140,E-5,529.0,1.0,46,79.0
3141,E-4,529.25,11/40,29,79.0
3142,G4,529.5,11/40,30,79.0
3143,C2,529.5,0.25,32,79.0
3144,C5,529.75,0.25,28,79.0
3145,D5,530.0,1.0,49,79.0
3146,D4,530.25,11/40,27,79.0
3147,F4,530.5,11/40,30,79.0
3148,F2,530.5,0.25,32,79.0
3149,B-4,530.75,0.25,27,79.0
3150,C5,531.0,1.0,45,79.0
3151,E-4,531.25,11/40,26,79.0
3152,F4,531.5,11/40,30,79.0
3153,F1,531.5,0.25,32,79.0
3154,A4,531.75,0.25,27,79.0
3155,B-4,532.0,3.0,50,79.0
3156,B-3,532.25,11/40,28,79.0
3157,D4,532.5,11/40,32,79.0
3158,B-2,532.5,0.25,30,79.0
3159,F4,532.75,11/40,34,79.0
3160,F#4,533.0,11/40,35,79.0
3161,C3,533.0,0.25,37,79.0
3162,E-4,533.25,11/40,37,79.0
3163,C4,533.5,11/40,39,79.0
3164,E-3,533.5,0.25,40,79.0
3165,F#4,533.75,11/40,44,79.0
3166,F4,534.0,11/40,44,79.0
3167,D3,534.0,0.25,44,79.0
3168,D4,534.25,11/40,33,79.0
3169,F4,534.5,11/40,37,79.0
3170,B-3,534.5,0.25,35,79.0
3171,A4,534.75,11/40,34,79.0
3172,B-4,535.0,11/40,40,79.0
3173,F3,535.0,0.25,39,79.0
3174,F4,535.25,11/40,43,79.0
3175,B-4,535.5,11/40,46,79.0
3176,D3,535.5,0.25,32,79.0
3177,D5,535.75,0.25,49,79.0
3178,B-2,536.0,0.25,44,79.0
3179,F4,536.0,0.75,48,79.0
3180,F5,536.0,0.75,48,79.0
3181,D3,536.25,0.25,36,79.0
3182,F3,536.5,0.25,36,79.0
3183,D3,536.75,0.25,36,79.0
3184,B-2,537.0,0.25,45,79.0
3185,F4,537.0,499/500,49,79.0
3186,F5,537.0,499/500,49,79.0
3187,D3,537.25,0.25,38,79.0
3188,F3,537.5,0.25,38,79.0
3189,D3,537.75,0.25,46,79.0
3190,A2,538.0,0.25,55,79.0
3191,F#4,538.0,499/500,59,79.0
3192,F#5,538.0,499/500,59,79.0
3193,C3,538.25,0.25,46,79.0
3194,D3,538.5,0.25,47,79.0
3195,C3,538.75,0.25,50,79.0
3196,G2,539.0,0.25,60,79.0
3197,G4,539.0,499/500,66,79.0
3198,G5,539.0,499/500,66,79.0
3199,C3,539.25,0.25,52,79.0
3200,D3,539.5,0.25,49,79.0
3201,C3,539.75,0.25,50,79.0
3202,F#2,540.0,0.25,72,79.0
3203,A4,540.0,499/500,68,79.0
3204,A5,540.0,499/500,68,79.0
3205,C3,540.25,0.25,55,79.0
3206,D3,540.5,0.25,59,79.0
3207,C3,540.75,0.25,59,79.0
3208,F#2,541.0,0.25,68,79.0
3209,C5,541.0,499/500,71,79.0
3210,C6,541.0,499/500,71,79.0
3211,A2,541.25,0.25,53,79.0
3212,D3,541.5,0.25,53,79.0
3213,A2,541.75,0.25,53,79.0
3214,G2,542.0,0.25,63,79.0
3215,B-4,542.0,499/500,70,79.0
3216,B-5,542.0,499/500,70,79.0
3217,B-2,542.25,0.25,48,79.0
3218,D3,542.5,0.25,48,79.0
3219,B-2,542.75,0.25,48,79.0
3220,C3,543.0,0.25,48,79.0
3221,A4,543.0,0.75,54,79.0
3222,A5,543.0,0.75,54,79.0
3223,E-3,543.25,0.25,35,79.0
3224,A3,543.5,0.25,35,79.0
3225,E-3,543.75,0.25,36,79.0
3226,G4,543.75,0.25,46,79.0
3227,G5,543.75,0.25,46,79.0
3228,D3,544.0,0.25,50,79.0
3229,F#4,544.0,1.0,54,79.0
3230,F#5,544.0,1.0,54,79.0
3231,A3,544.25,0.25,39,79.0
3232,C4,544.5,0.25,39,79.0
3233,A3,544.75,0.25,39,79.0
3234,D3,545.0,0.25,47,79.0
3235,F#4,545.0,1.0,50,79.0
3236,F#5,545.0,1.0,50,79.0
3237,A3,545.25,0.25,39,79.0
3238,C4,545.5,0.25,39,79.0
3239,A3,545.75,0.25,39,79.0
3240,D3,546.0,0.25,47,79.0
3241,G4,546.0,0.5,49,79.0
3242,G5,546.0,0.5,49,79.0
3243,A3,546.25,0.25,40,79.0
3244,C4,546.5,0.25,40,79.0
3245,F#4,546.5,0.5,41,79.0
3246,F#5,546.5,0.5,41,79.0
3247,A3,546.75,0.25,40,79.0
3248,D3,547.0,0.25,44,79.0
3249,E4,547.0,0.5,42,79.0
3250,E5,547.0,0.5,42,79.0
3251,A3,547.25,0.25,36,79.0
3252,C4,547.5,0.25,36,79.0
3253,F#4,547.5,0.5,41,79.0
3254,F#5,547.5,0.5,41,79.0
3255,A3,547.75,0.25,36,79.0
3256,G3,548.0,0.25,44,79.0
3257,G4,548.0,2.0,44,79.0
3258,G5,548.0,2.0,44,79.0
3259,B-3,548.25,0.25,37,79.0
3260,G3,548.5,0.25,37,79.0
3261,D3,548.75,0.25,37,79.0
3262,B-2,549.0,0.25,44,79.0
3263,G3,549.25,0.25,38,79.0
3264,D3,549.5,0.25,38,79.0
3265,B-2,549.75,0.25,38,79.0
3266,G2,550.0,0.25,44,79.0
3267,G4,550.25,0.25,53,79.0
3268,B-4,550.5,0.25,55,79.0
3269,D5,550.75,0.25,57,79.0
3270,G5,551.0,0.25,59,79.0
3271,G2,551.0,0.75,64,79.0
3272,G3,551.0,0.75,64,79.0
3273,B-4,551.25,0.25,61,79.0
3274,D5,551.5,0.25,63,79.0
3275,G5,551.75,0.25,65,79.0
3276,B-2,551.75,0.25,56,79.0
3277,B-3,551.75,0.25,56,79.0
3278,D3,552.0,0.75,68,79.0
3279,D4,552.0,0.75,68,79.0
3280,A4,552.5,0.25,67,79.0
3281,D5,552.5,0.25,67,79.0
3282,F#5,552.5,0.25,67,79.0
3283,D3,553.0,0.75,62,79.0
3284,D4,553.0,0.75,62,79.0
3285,A5,553.5,0.25,67,79.0
3286,C5,553.5,0.25,67,79.0
3287,D5,553.5,0.25,67,79.0
3288,D3,554.0,0.75,64,79.0
3289,D4,554.0,0.75,64,79.0
3290,B-4,554.5,0.25,67,79.0
3291,D5,554.5,0.25,67,79.0
3292,G5,554.5,0.25,67,79.0
3293,D3,555.0,0.75,62,79.0
3294,D4,555.0,0.75,62,79.0
3295,A4,555.5,0.25,67,79.0
3296,D5,555.5,0.25,67,79.0
3297,F#5,555.5,0.25,67,79.0
3298,E-3,556.0,2.0,69,79.0
3299,E-4,556.0,2.0,69,79.0
3300,G4,556.5,0.25,69,79.0
3301,D5,556.5,0.25,69,79.0
3302,G5,556.5,0.25,69,79.0
3303,G4,557.0,0.25,70,79.0
3304,C5,557.0,0.25,70,79.0
3305,G5,557.0,0.25,70,79.0
3306,C#6,557.5,0.25,75,79.0
3307,G5,557.5,0.25,75,79.0
3308,C#5,557.5,0.25,75,79.0
3309,D3,558.0,2.0,66,79.0
3310,D4,558.0,2.0,66,79.0
3311,D6,558.5,0.25,77,79.0
3312,A5,558.5,0.25,77,79.0
3313,G5,558.5,0.25,77,79.0
3314,D5,558.5,0.25,77,79.0
3315,D5,559.0,0.25,72,79.0
3316,F#5,559.0,0.25,72,79.0
3317,A5,559.0,0.25,72,79.0
3318,D6,559.0,0.25,72,79.0
3319,F#4,559.5,0.25,70,79.0
3320,A4,559.5,0.25,70,79.0
3321,D5,559.5,0.25,70,79.0
3322,C3,560.0,2.0,69,79.0
3323,C4,560.0,2.0,69,79.0
3324,E-4,560.5,0.25,67,79.0
3325,B-4,560.5,0.25,67,79.0
3326,E-5,560.5,0.25,67,79.0
3327,E-4,561.0,0.25,73,79.0
3328,A4,561.0,0.25,73,79.0
3329,E-5,561.0,0.25,73,79.0
3330,A5,561.5,0.25,67,79.0
3331,E-5,561.5,0.25,67,79.0
3332,A4,561.5,0.25,67,79.0
3333,B-2,562.0,2.0,62,79.0
3334,B-3,562.0,2.0,62,79.0
3335,B-5,562.5,0.25,66,79.0
3336,F5,562.5,0.25,66,79.0
3337,E-5,562.5,0.25,66,79.0
3338,B-4,562.5,0.25,66,79.0
3339,B-4,563.0,0.25,69,79.0
3340,D5,563.0,0.25,69,79.0
3341,F5,563.0,0.25,69,79.0
3342,B-5,563.0,0.25,69,79.0
3343,D4,563.5,0.25,67,79.0
3344,F4,563.5,0.25,67,79.0
3345,B-4,563.5,0.25,67,79.0
3346,A2,564.0,1.0,62,79.0
3347,A3,564.0,1.0,62,79.0
3348,E-4,564.5,0.25,67,79.0
3349,G4,564.5,0.25,67,79.0
3350,C5,564.5,0.25,67,79.0
3351,C3,565.0,1.0,61,79.0
3352,C4,565.0,1.0,61,79.0
3353,F#4,565.5,0.25,67,79.0
3354,A4,565.5,0.25,67,79.0
3355,E-5,565.5,0.25,67,79.0
3356,B-2,566.0,1.0,68,79.0
3357,B-3,566.0,1.0,68,79.0
3358,G4,566.5,0.25,69,79.0
3359,B-4,566.5,0.25,69,79.0
3360,D5,566.5,0.25,69,79.0
3361,A2,567.0,1.0,54,79.0
3362,A3,567.0,1.0,54,79.0
3363,C5,567.5,0.25,70,79.0
3364,D5,567.5,0.25,70,79.0
3365,F#5,567.5,0.25,70,79.0
3366,G3,568.0,3.0,62,79.0
3367,G2,568.0,3.0,62,79.0
3368,B-4,568.5,0.5,73,79.0
3369,D5,568.5,0.5,73,79.0
3370,G5,568.5,0.5,73,79.0
3371,D4,569.0,0.5,71,79.0
3372,B-4,569.0,0.5,71,79.0
3373,D5,569.0,0.5,71,79.0
3374,D4,569.5,0.5,69,79.0
3375,A4,569.5,0.5,69,79.0
3376,C5,569.5,0.5,69,79.0
3377,D4,570.0,0.5,64,79.0
3378,G4,570.0,0.5,64,79.0
3379,B-4,570.0,0.5,64,79.0
3380,G4,570.5,0.5,67,79.0
3381,B-4,570.5,0.5,67,79.0
3382,D5,570.5,0.5,67,79.0
3383,B-4,571.0,0.5,67,79.0
3384,D5,571.0,0.5,67,79.0
3385,G5,571.0,0.5,67,79.0
3386,G3,571.0,0.75,69,79.0
3387,G2,571.0,0.75,69,79.0
3388,G4,571.5,0.5,67,79.0
3389,B-4,571.5,0.5,67,79.0
3390,D5,571.5,0.5,67,79.0
3391,B-2,571.75,0.25,61,79.0
3392,B-3,571.75,0.25,61,79.0
3393,D3,572.0,88/125,74,79.0
3394,D4,572.0,88/125,74,79.0
3395,F#4,572.5,0.25,67,79.0
3396,A4,572.5,0.25,67,79.0
3397,D5,572.5,0.25,67,79.0
3398,D4,573.0,0.75,61,79.0
3399,D3,573.0,0.75,61,79.0
3400,A5,573.5,0.25,67,79.0
3401,C5,573.5,0.25,67,79.0
3402,D5,573.5,0.25,67,79.0
3403,D3,574.0,0.75,64,79.0
3404,D4,574.0,0.75,64,79.0
3405,B-4,574.5,0.25,67,79.0
3406,D5,574.5,0.25,67,79.0
3407,G5,574.5,0.25,67,79.0
3408,D3,575.0,0.75,62,79.0
3409,D4,575.0,0.75,62,79.0
3410,A4,575.5,0.25,67,79.0
3411,D5,575.5,0.25,67,79.0
3412,F#5,575.5,0.25,67,79.0
3413,E-3,576.0,2.0,69,79.0
3414,E-4,576.0,2.0,69,79.0
3415,G4,576.5,0.25,69,79.0
3416,D5,576.5,0.25,69,79.0
3417,G5,576.5,0.25,69,79.0
3418,G4,577.0,0.25,70,79.0
3419,C5,577.0,0.25,70,79.0
3420,G5,577.0,0.25,70,79.0
3421,C#6,577.5,0.25,75,79.0
3422,G5,577.5,0.25,75,79.0
3423,C#5,577.5,0.25,75,79.0
3424,D3,578.0,2.0,66,79.0
3425,D4,578.0,2.0,66,79.0
3426,D6,578.5,0.25,77,79.0
3427,A5,578.5,0.25,77,79.0
3428,G5,578.5,0.25,77,79.0
3429,D5,578.5,0.25,77,79.0
3430,D5,579.0,0.25,72,79.0
3431,F5,579.0,0.25,72,79.0
3432,A5,579.0,0.25,72,79.0
3433,D6,579.0,0.25,72,79.0
3434,F4,579.5,0.25,70,79.0
3435,A4,579.5,0.25,70,79.0
3436,D5,579.5,0.25,70,79.0
3437,C3,580.0,2.0,69,79.0
3438,C4,580.0,2.0,69,79.0
3439,E-4,580.5,0.25,67,79.0
3440,B-4,580.5,0.25,67,79.0
3441,E-5,580.5,0.25,67,79.0
3442,E-4,581.0,0.25,73,79.0
3443,A4,581.0,0.25,73,79.0
3444,E-5,581.0,0.25,73,79.0
3445,A5,581.5,0.25,67,79.0
3446,E-5,581.5,0.25,67,79.0
3447,A4,581.5,0.25,67,79.0
3448,B-3,582.0,1.5,62,79.0
3449,B-2,582.0,1.5,62,79.0
3450,B-5,582.5,0.25,66,79.0
3451,F5,582.5,0.25,66,79.0
3452,E-5,582.5,0.25,66,79.0
3453,B-4,582.5,0.25,66,79.0
3454,B-4,583.0,0.25,69,79.0
3455,D5,583.0,0.25,69,79.0
3456,F5,583.0,0.25,69,79.0
3457,B-5,583.0,0.25,69,79.0
3458,F4,583.5,0.25,68,79.0
3459,C5,583.5,0.25,68,79.0
3460,A2,583.5,0.5,63,79.0
3461,A3,583.5,0.5,63,79.0
3462,G3,584.0,1.0,65,79.0
3463,G2,584.0,1.0,65,79.0
3464,E-4,584.5,0.25,67,79.0
3465,B-4,584.5,0.25,67,79.0
3466,E-5,584.5,0.25,67,79.0
3467,E-3,585.0,1.0,60,79.0
3468,E-4,585.0,1.0,60,79.0
3469,G4,585.5,0.25,67,79.0
3470,B-4,585.5,0.25,67,79.0
3471,C5,585.5,0.25,67,79.0
3472,D4,586.0,1.0,62,79.0
3473,D3,586.0,1.0,62,79.0
3474,F4,586.5,0.25,69,79.0
3475,B-4,586.5,0.25,69,79.0
3476,F5,586.5,0.25,69,79.0
3477,C3,587.0,1.0,55,79.0
3478,C4,587.0,1.0,55,79.0
3479,A4,587.5,0.25,65,79.0
3480,E-5,587.5,0.25,65,79.0
3481,F5,587.5,0.25,65,79.0
3482,A5,587.5,0.25,65,79.0
3483,B-2,588.0,3.0,65,79.0
3484,B-3,588.0,3.0,65,79.0
3485,E-5,588.5,0.5,72,79.0
3486,B-4,588.5,0.5,72,79.0
3487,F5,588.5,0.5,72,79.0
3488,B-5,588.5,0.5,72,79.0
3489,D5,589.0,0.5,70,79.0
3490,B-4,589.0,0.5,70,79.0
3491,F5,589.0,0.5,70,79.0
3492,B-5,589.0,0.5,70,79.0
3493,B-4,589.5,0.5,69,79.0
3494,D5,589.5,0.5,69,79.0
3495,F5,589.5,0.5,69,79.0
3496,F4,590.0,0.5,57,79.0
3497,B-4,590.0,0.5,57,79.0
3498,D5,590.0,0.5,57,79.0
3499,D4,590.5,0.5,56,79.0
3500,F4,590.5,0.5,56,79.0
3501,B-4,590.5,0.5,56,79.0
3502,B-3,591.0,0.75,50,79.0
3503,B-4,591.0,0.75,50,79.0
3504,D4,591.75,0.25,50,79.0
3505,D5,591.75,0.25,50,79.0
3506,B-2,592.0,0.25,44,79.0
3507,F4,592.0,0.75,48,79.0
3508,F5,592.0,0.75,48,79.0
3509,D3,592.25,0.25,36,79.0
3510,F3,592.5,0.25,36,79.0
3511,D3,592.75,0.25,36,79.0
3512,B-2,593.0,0.25,45,79.0
3513,F4,593.0,499/500,49,79.0
3514,F5,593.0,499/500,49,79.0
3515,D3,593.25,0.25,38,79.0
3516,F3,593.5,0.25,38,79.0
3517,D3,593.75,0.25,46,79.0
3518,A2,594.0,0.25,54,79.0
3519,F#4,594.0,499/500,58,79.0
3520,F#5,594.0,499/500,58,79.0
3521,C3,594.25,0.25,45,79.0
3522,D3,594.5,0.25,45,79.0
3523,C3,594.75,0.25,48,79.0
3524,G2,595.0,0.25,57,79.0
3525,G4,595.0,499/500,62,79.0
3526,G5,595.0,499/500,62,79.0
3527,C3,595.25,0.25,49,79.0
3528,D3,595.5,0.25,46,79.0
3529,C3,595.75,0.25,46,79.0
3530,F#2,596.0,0.25,66,79.0
3531,A4,596.0,499/500,64,79.0
3532,A5,596.0,499/500,64,79.0
3533,C3,596.25,0.25,50,79.0
3534,D3,596.5,0.25,54,79.0
3535,C3,596.75,0.25,54,79.0
3536,F#2,597.0,0.25,62,79.0
3537,C5,597.0,499/500,66,79.0
3538,C6,597.0,499/500,66,79.0
3539,A2,597.25,0.25,49,79.0
3540,D3,597.5,0.25,49,79.0
3541,A2,597.75,0.25,49,79.0
3542,G2,598.0,0.25,58,79.0
3543,B-4,598.0,499/500,64,79.0
3544,B-5,598.0,499/500,64,79.0
3545,B-2,598.25,0.25,44,79.0
3546,D3,598.5,0.25,44,79.0
3547,B-2,598.75,0.25,44,79.0
3548,C3,599.0,0.25,48,79.0
3549,A4,599.0,0.75,54,79.0
3550,A5,599.0,0.75,54,79.0
3551,E-3,599.25,0.25,35,79.0
3552,A3,599.5,0.25,35,79.0
3553,E-3,599.75,0.25,36,79.0
3554,G4,599.75,0.25,46,79.0
3555,G5,599.75,0.25,46,79.0
3556,D3,600.0,0.25,50,79.0
3557,F#4,600.0,1.0,54,79.0
3558,F#5,600.0,1.0,54,79.0
3559,A3,600.25,0.25,39,79.0
3560,C4,600.5,0.25,39,79.0
3561,A3,600.75,0.25,39,79.0
3562,D3,601.0,0.25,47,79.0
3563,F#4,601.0,1.0,50,79.0
3564,F#5,601.0,1.0,50,79.0
3565,A3,601.25,0.25,39,79.0
3566,C4,601.5,0.25,39,79.0
3567,A3,601.75,0.25,39,79.0
3568,D3,602.0,0.25,47,79.0
3569,G4,602.0,0.5,49,79.0
3570,G5,602.0,0.5,49,79.0
3571,A3,602.25,0.25,40,79.0
3572,C4,602.5,0.25,40,79.0
3573,F#4,602.5,0.5,41,79.0
3574,F#5,602.5,0.5,41,79.0
3575,A3,602.75,0.25,40,79.0
3576,D3,603.0,0.25,44,79.0
3577,E4,603.0,0.5,42,79.0
3578,E5,603.0,0.5,42,79.0
3579,A3,603.25,0.25,36,79.0
3580,C4,603.5,0.25,36,79.0
3581,F#4,603.5,0.5,41,79.0
3582,F#5,603.5,0.5,41,79.0
3583,A3,603.75,0.25,36,79.0
3584,G2,604.0,0.25,33,79.0
3585,G4,604.0,2.0,44,79.0
3586,G5,604.0,2.0,44,79.0
3587,D3,604.333,0.25,20,79.0
3588,G3,604.333,0.25,20,79.0
3589,B3,604.333,0.25,20,79.0
3590,D3,604.667,0.25,20,79.0
3591,G3,604.667,0.25,20,79.0
3592,B3,604.667,0.25,20,79.0
3593,D3,605.0,0.25,22,79.0
3594,G3,605.0,0.25,22,79.0
3595,B3,605.0,0.25,22,79.0
3596,D3,605.333,0.25,22,79.0
3597,B3,605.333,0.25,22,79.0
3598,G3,605.333,0.25,22,79.0
3599,B3,605.667,0.25,22,79.0
3600,G3,605.667,0.25,22,79.0
3601,D3,605.667,0.25,22,79.0
3602,C5,606.0,21/40,53,79.0
3603,B3,606.0,0.25,29,79.0
3604,D3,606.0,0.25,29,79.0
3605,G3,606.0,0.25,29,79.0
3606,B3,606.333,0.25,21,79.0
3607,D3,606.333,0.25,21,79.0
3608,G3,606.333,0.25,21,79.0
3609,B4,606.5,21/40,53,79.0
3610,D3,606.667,0.25,22,79.0
3611,B3,606.667,0.25,22,79.0
3612,G3,606.667,0.25,22,79.0
3613,B-4,607.0,21/40,53,79.0
3614,B3,607.0,0.25,30,79.0
3615,G3,607.0,0.25,30,79.0
3616,D3,607.0,0.25,30,79.0
3617,G3,607.333,0.25,22,79.0
3618,B3,607.333,0.25,22,79.0
3619,D3,607.333,0.25,22,79.0
3620,B4,607.5,0.5,53,79.0
3621,B3,607.667,0.25,22,79.0
3622,G3,607.667,0.25,22,79.0
3623,D3,607.667,0.25,22,79.0
3624,B4,608.0,0.25,48,79.0
3625,C2,608.0,0.25,33,79.0
3626,E5,608.25,1.75,48,79.0
3627,E3,608.333,0.25,20,79.0
3628,B3,608.333,0.25,20,79.0
3629,C3,608.333,0.25,20,79.0
3630,B3,608.667,0.25,20,79.0
3631,E3,608.667,0.25,20,79.0
3632,C3,608.667,0.25,20,79.0
3633,G#3,609.0,0.25,27,79.0
3634,C3,609.0,0.25,27,79.0
3635,E3,609.0,0.25,27,79.0
3636,E3,609.333,0.25,22,79.0
3637,C3,609.333,0.25,22,79.0
3638,G#3,609.333,0.25,22,79.0
3639,C3,609.667,0.25,22,79.0
3640,G#3,609.667,0.25,22,79.0
3641,E3,609.667,0.25,22,79.0
3642,B4,610.0,21/40,53,79.0
3643,C3,610.0,0.25,29,79.0
3644,A3,610.0,0.25,29,79.0
3645,E3,610.0,0.25,29,79.0
3646,C3,610.333,0.25,21,79.0
3647,E3,610.333,0.25,21,79.0
3648,A3,610.333,0.25,21,79.0
3649,A4,610.5,21/40,53,79.0
3650,A3,610.667,0.25,22,79.0
3651,C3,610.667,0.25,22,79.0
3652,E3,610.667,0.25,22,79.0
3653,G#4,611.0,21/40,53,79.0
3654,C3,611.0,0.25,30,79.0
3655,A3,611.0,0.25,30,79.0
3656,E3,611.0,0.25,30,79.0
3657,C3,611.333,0.25,22,79.0
3658,E3,611.333,0.25,22,79.0
3659,A3,611.333,0.25,22,79.0
3660,A4,611.5,0.5,53,79.0
3661,E3,611.667,0.25,22,79.0
3662,C3,611.667,0.25,22,79.0
3663,A3,611.667,0.25,22,79.0
3664,A4,612.0,0.25,48,79.0
3665,B1,612.0,0.25,33,79.0
3666,D5,612.25,1.75,48,79.0
3667,B2,612.333,0.25,20,79.0
3668,D3,612.333,0.25,20,79.0
3669,A3,612.333,0.25,20,79.0
3670,D3,612.667,0.25,20,79.0
3671,B2,612.667,0.25,20,79.0
3672,A3,612.667,0.25,20,79.0
3673,B2,613.0,0.25,27,79.0
3674,F#3,613.0,0.25,27,79.0
3675,D3,613.0,0.25,27,79.0
3676,F#3,613.333,0.25,22,79.0
3677,D3,613.333,0.25,22,79.0
3678,B2,613.333,0.25,22,79.0
3679,B2,613.667,0.25,22,79.0
3680,D3,613.667,0.25,22,79.0
3681,F#3,613.667,0.25,22,79.0
3682,C5,614.0,21/40,58,79.0
3683,G3,614.0,0.25,31,79.0
3684,D3,614.0,0.25,31,79.0
3685,B2,614.0,0.25,31,79.0
3686,D3,614.333,0.25,24,79.0
3687,B2,614.333,0.25,24,79.0
3688,G3,614.333,0.25,24,79.0
3689,B4,614.5,21/40,60,79.0
3690,D3,614.667,0.25,26,79.0
3691,G3,614.667,0.25,26,79.0
3692,B2,614.667,0.25,26,79.0
3693,A4,615.0,21/40,63,79.0
3694,B2,615.0,0.25,35,79.0
3695,G3,615.0,0.25,35,79.0
3696,D3,615.0,0.25,35,79.0
3697,B2,615.333,0.25,27,79.0
3698,G3,615.333,0.25,27,79.0
3699,D3,615.333,0.25,27,79.0
3700,G4,615.5,0.5,66,79.0
3701,D3,615.667,0.25,28,79.0
3702,B2,615.667,0.25,28,79.0
3703,G3,615.667,0.25,28,79.0
3704,C2,616.0,0.25,42,79.0
3705,F#4,616.0,0.5,62,79.0
3706,D5,616.0,0.5,62,79.0
3707,E3,616.333,0.25,28,79.0
3708,C3,616.333,0.25,28,79.0
3709,E4,616.5,0.5,61,79.0
3710,C5,616.5,0.5,61,79.0
3711,E3,616.667,0.25,28,79.0
3712,C3,616.667,0.25,28,79.0
3713,D4,617.0,0.5,58,79.0
3714,B4,617.0,0.5,58,79.0
3715,C3,617.0,0.25,36,79.0
3716,E3,617.0,0.25,36,79.0
3717,C3,617.333,0.25,26,79.0
3718,E3,617.333,0.25,26,79.0
3719,C4,617.5,0.5,56,79.0
3720,A4,617.5,0.5,56,79.0
3721,E3,617.667,0.25,26,79.0
3722,C3,617.667,0.25,26,79.0
3723,D2,618.0,0.25,36,79.0
3724,B3,618.0,1.0,54,79.0
3725,G4,618.0,1.0,54,79.0
3726,D3,618.333,0.25,24,79.0
3727,G3,618.333,0.25,24,79.0
3728,G3,618.667,0.25,24,79.0
3729,D3,618.667,0.25,24,79.0
3730,D2,619.0,0.25,34,79.0
3731,D4,619.0,0.75,55,79.0
3732,B4,619.0,0.75,55,79.0
3733,D3,619.333,0.25,24,79.0
3734,F#3,619.333,0.25,24,79.0
3735,D3,619.667,0.25,23,79.0
3736,F#3,619.667,0.25,23,79.0
3737,C4,619.75,0.25,54,79.0
3738,A4,619.75,0.25,54,79.0
3739,G2,620.0,0.25,33,79.0
3740,B3,620.0,1.0,44,79.0
3741,G4,620.0,1.0,44,79.0
3742,B3,620.333,0.25,20,79.0
3743,D3,620.333,0.25,20,79.0
3744,G3,620.333,0.25,20,79.0
3745,G3,620.667,0.25,20,79.0
3746,B3,620.667,0.25,20,79.0
3747,D3,620.667,0.25,20,79.0
3748,B3,621.0,0.25,22,79.0
3749,D3,621.0,0.25,22,79.0
3750,G3,621.0,0.25,22,79.0
3751,B3,621.333,0.25,22,79.0
3752,G3,621.333,0.25,22,79.0
3753,D3,621.333,0.25,22,79.0
3754,B3,621.667,0.25,22,79.0
3755,D3,621.667,0.25,22,79.0
3756,G3,621.667,0.25,22,79.0
3757,C5,622.0,21/40,53,79.0
3758,B3,622.0,0.25,29,79.0
3759,D3,622.0,0.25,29,79.0
3760,G3,622.0,0.25,29,79.0
3761,G3,622.333,0.25,21,79.0
3762,B3,622.333,0.25,21,79.0
3763,D3,622.333,0.25,21,79.0
3764,B4,622.5,21/40,53,79.0
3765,D3,622.667,0.25,22,79.0
3766,G3,622.667,0.25,22,79.0
3767,B3,622.667,0.25,22,79.0
3768,B-4,623.0,21/40,53,79.0
3769,B3,623.0,0.25,30,79.0
3770,G3,623.0,0.25,30,79.0
3771,D3,623.0,0.25,30,79.0
3772,D3,623.333,0.25,22,79.0
3773,G3,623.333,0.25,22,79.0
3774,B3,623.333,0.25,22,79.0
3775,B4,623.5,0.5,53,79.0
3776,D3,623.667,0.25,22,79.0
3777,B3,623.667,0.25,22,79.0
3778,G3,623.667,0.25,22,79.0
3779,B5,624.0,21/40,53,79.0
3780,E5,624.0,2.0,48,79.0
3781,C2,624.0,0.25,33,79.0
3782,C3,624.333,0.25,20,79.0
3783,E3,624.333,0.25,20,79.0
3784,B3,624.333,0.25,20,79.0
3785,A5,624.5,21/40,53,79.0
3786,B3,624.667,0.25,20,79.0
3787,E3,624.667,0.25,20,79.0
3788,C3,624.667,0.25,20,79.0
3789,G#5,625.0,21/40,53,79.0
3790,C3,625.0,0.25,27,79.0
3791,B3,625.0,0.25,27,79.0
3792,E3,625.0,0.25,27,79.0
3793,E3,625.333,0.25,22,79.0
3794,B3,625.333,0.25,22,79.0
3795,C3,625.333,0.25,22,79.0
3796,A5,625.5,0.5,53,79.0
3797,E3,625.667,0.25,22,79.0
3798,C3,625.667,0.25,22,79.0
3799,B3,625.667,0.25,22,79.0
3800,B4,626.0,21/40,53,79.0
3801,A3,626.0,0.25,29,79.0
3802,E3,626.0,0.25,29,79.0
3803,C3,626.0,0.25,29,79.0
3804,E3,626.333,0.25,21,79.0
3805,A3,626.333,0.25,21,79.0
3806,C3,626.333,0.25,21,79.0
3807,A4,626.5,21/40,53,79.0
3808,E3,626.667,0.25,22,79.0
3809,A3,626.667,0.25,22,79.0
3810,C3,626.667,0.25,22,79.0
3811,G#4,627.0,21/40,53,79.0
3812,E3,627.0,0.25,30,79.0
3813,A3,627.0,0.25,30,79.0
3814,C3,627.0,0.25,30,79.0
3815,E3,627.333,0.25,22,79.0
3816,C3,627.333,0.25,22,79.0
3817,A3,627.333,0.25,22,79.0
3818,A4,627.5,0.5,53,79.0
3819,C3,627.667,0.25,22,79.0
3820,A3,627.667,0.25,22,79.0
3821,E3,627.667,0.25,22,79.0
3822,A5,628.0,0.5,58,79.0
3823,D5,628.0,2.0,48,79.0
3824,B1,628.0,0.25,33,79.0
3825,A3,628.333,0.25,20,79.0
3826,D3,628.333,0.25,20,79.0
3827,B2,628.333,0.25,20,79.0
3828,G5,628.5,0.5,60,79.0
3829,A3,628.667,0.25,20,79.0
3830,B2,628.667,0.25,20,79.0
3831,D3,628.667,0.25,20,79.0
3832,F#5,629.0,0.5,63,79.0
3833,D3,629.0,0.25,27,79.0
3834,A3,629.0,0.25,27,79.0
3835,B2,629.0,0.25,27,79.0
3836,D3,629.333,0.25,22,79.0
3837,B2,629.333,0.25,22,79.0
3838,A3,629.333,0.25,22,79.0
3839,G5,629.5,0.5,66,79.0
3840,A3,629.667,0.25,22,79.0
3841,B2,629.667,0.25,22,79.0
3842,D3,629.667,0.25,22,79.0
3843,C5,630.0,21/40,58,79.0
3844,D3,630.0,0.25,31,79.0
3845,B2,630.0,0.25,31,79.0
3846,G3,630.0,0.25,31,79.0
3847,G3,630.333,0.25,24,79.0
3848,B2,630.333,0.25,24,79.0
3849,D3,630.333,0.25,24,79.0
3850,B4,630.5,21/40,60,79.0
3851,D3,630.667,0.25,26,79.0
3852,B2,630.667,0.25,26,79.0
3853,G3,630.667,0.25,26,79.0
3854,A4,631.0,21/40,63,79.0
3855,D3,631.0,0.25,35,79.0
3856,G3,631.0,0.25,35,79.0
3857,B2,631.0,0.25,35,79.0
3858,D3,631.333,0.25,27,79.0
3859,B2,631.333,0.25,27,79.0
3860,G3,631.333,0.25,27,79.0
3861,G4,631.5,0.5,66,79.0
3862,D3,631.667,0.25,28,79.0
3863,G3,631.667,0.25,28,79.0
3864,B2,631.667,0.25,28,79.0
3865,C2,632.0,0.25,42,79.0
3866,D5,632.0,0.5,61,79.0
3867,F#4,632.0,0.5,61,79.0
3868,F#5,632.0,0.5,61,79.0
3869,G3,632.333,0.25,27,79.0
3870,C3,632.333,0.25,27,79.0
3871,E3,632.333,0.25,27,79.0
3872,C5,632.5,0.5,59,79.0
3873,E4,632.5,0.5,59,79.0
3874,E5,632.5,0.5,59,79.0
3875,E3,632.667,0.25,28,79.0
3876,G3,632.667,0.25,28,79.0
3877,C3,632.667,0.25,28,79.0
3878,B4,633.0,0.5,56,79.0
3879,D4,633.0,0.5,56,79.0
3880,D5,633.0,0.5,56,79.0
3881,E3,633.0,0.25,35,79.0
3882,G#3,633.0,0.25,35,79.0
3883,C3,633.0,0.25,35,79.0
3884,E3,633.333,0.25,26,79.0
3885,C3,633.333,0.25,26,79.0
3886,G#3,633.333,0.25,26,79.0
3887,A4,633.5,0.5,54,79.0
3888,C4,633.5,0.5,54,79.0
3889,C5,633.5,0.5,54,79.0
3890,A3,633.667,0.25,25,79.0
3891,C3,633.667,0.25,25,79.0
3892,E3,633.667,0.25,25,79.0
3893,D2,634.0,0.25,36,79.0
3894,B4,634.0,1.0,52,79.0
3895,B3,634.0,1.0,52,79.0
3896,G4,634.0,1.0,52,79.0
3897,D3,634.333,0.25,24,79.0
3898,G3,634.333,0.25,24,79.0
3899,D3,634.667,0.25,24,79.0
3900,G3,634.667,0.25,24,79.0
3901,C5,635.0,0.75,55,79.0
3902,D2,635.0,0.25,34,79.0
3903,C4,635.0,1.0,46,79.0
3904,F#4,635.0,1.0,46,79.0
3905,F#3,635.333,0.25,23,79.0
3906,A3,635.333,0.25,23,79.0
3907,D3,635.333,0.25,23,79.0
3908,F#3,635.667,0.25,22,79.0
3909,A3,635.667,0.25,22,79.0
3910,D3,635.667,0.25,22,79.0
3911,A4,635.75,0.25,54,79.0
3912,G4,636.0,0.25,39,79.0
3913,G3,636.0,0.25,39,79.0
3914,G2,636.0,1.0,48,79.0
3915,D3,636.0,1.0,48,79.0
3916,G3,636.0,1.0,48,79.0
3917,G3,636.333,0.25,24,79.0
3918,G4,636.333,0.25,24,79.0
3919,G3,636.667,0.25,24,79.0
3920,G4,636.667,0.25,24,79.0
3921,G3,637.0,0.25,28,79.0
3922,G4,637.0,0.25,28,79.0
3923,G3,637.333,0.25,28,79.0
3924,G4,637.333,0.25,28,79.0
3925,G3,637.667,0.25,28,79.0
3926,G4,637.667,0.25,28,79.0
3927,G3,638.0,0.25,35,79.0
3928,G4,638.0,0.25,35,79.0
3929,G3,638.333,0.25,26,79.0
3930,G4,638.333,0.25,26,79.0
3931,G3,638.667,0.25,28,79.0
3932,G4,638.667,0.25,28,79.0
3933,B2,639.0,0.75,35,79.0
3934,G3,639.0,0.25,36,79.0
3935,G4,639.0,0.25,36,79.0
3936,G3,639.333,0.25,28,79.0
3937,G4,639.333,0.25,28,79.0
3938,G3,639.667,0.25,28,79.0
3939,G4,639.667,0.25,28,79.0
3940,C3,639.75,0.25,30,79.0
3941,D3,640.0,88/125,40,79.0
3942,G4,640.0,0.25,39,79.0
3943,G3,640.0,0.25,39,79.0
3944,G3,640.333,0.25,24,79.0
3945,G4,640.333,0.25,24,79.0
3946,G3,640.667,0.25,24,79.0
3947,G4,640.667,0.25,24,79.0
3948,D3,641.0,88/125,33,79.0
3949,G3,641.0,0.25,28,79.0
3950,G4,641.0,0.25,28,79.0
3951,G3,641.333,0.25,28,79.0
3952,G4,641.333,0.25,28,79.0
3953,G3,641.667,0.25,28,79.0
3954,G4,641.667,0.25,28,79.0
3955,D3,642.0,88/125,33,79.0
3956,G3,642.0,0.25,35,79.0
3957,G4,642.0,0.25,35,79.0
3958,G3,642.333,0.25,26,79.0
3959,G4,642.333,0.25,26,79.0
3960,G3,642.667,0.25,28,79.0
3961,G4,642.667,0.25,28,79.0
3962,C3,643.0,0.75,36,79.0
3963,G3,643.0,0.25,36,79.0
3964,G4,643.0,0.25,36,79.0
3965,G3,643.333,0.25,28,79.0
3966,G4,643.333,0.25,28,79.0
3967,G3,643.667,0.25,28,79.0
3968,G4,643.667,0.25,28,79.0
3969,D3,643.75,0.25,37,79.0
3970,E-3,644.0,1.5,42,79.0
3971,G4,644.0,0.25,39,79.0
3972,G3,644.0,0.25,39,79.0
3973,G3,644.333,0.25,24,79.0
3974,G4,644.333,0.25,24,79.0
3975,G3,644.667,0.25,24,79.0
3976,G4,644.667,0.25,24,79.0
3977,G3,645.0,0.25,28,79.0
3978,G4,645.0,0.25,28,79.0
3979,G3,645.333,0.25,28,79.0
3980,G4,645.333,0.25,28,79.0
3981,D3,645.5,0.5,35,79.0
3982,G3,645.667,0.25,28,79.0
3983,G4,645.667,0.25,28,79.0
3984,C3,646.0,1.0,31,79.0
3985,G3,646.0,0.25,35,79.0
3986,G4,646.0,0.25,35,79.0
3987,G3,646.333,0.25,26,79.0
3988,G4,646.333,0.25,26,79.0
3989,G3,646.667,0.25,28,79.0
3990,G4,646.667,0.25,28,79.0
3991,B-2,647.0,0.75,39,79.0
3992,G3,647.0,0.25,36,79.0
3993,G4,647.0,0.25,36,79.0
3994,G3,647.333,0.25,28,79.0
3995,G4,647.333,0.25,28,79.0
3996,F3,647.667,0.25,28,79.0
3997,F4,647.667,0.25,28,79.0
3998,G#2,647.75,0.25,33,79.0
3999,G2,648.0,1.0,36,79.0
4000,E-4,648.0,0.25,39,79.0
4001,C4,648.0,0.25,39,79.0
4002,G4,648.0,0.25,39,79.0
4003,G3,648.0,0.25,39,79.0
4004,E-4,648.333,0.25,23,79.0
4005,C4,648.333,0.25,23,79.0
4006,G3,648.333,0.25,23,79.0
4007,G4,648.333,0.25,23,79.0
4008,E-4,648.667,0.25,23,79.0
4009,C4,648.667,0.25,23,79.0
4010,G3,648.667,0.25,23,79.0
4011,G4,648.667,0.25,23,79.0
4012,G2,649.0,1.0,36,79.0
4013,E-4,649.0,0.25,25,79.0
4014,C4,649.0,0.25,25,79.0
4015,G3,649.0,0.25,25,79.0
4016,G4,649.0,0.25,25,79.0
4017,E-4,649.333,0.25,25,79.0
4018,C4,649.333,0.25,25,79.0
4019,G3,649.333,0.25,25,79.0
4020,G4,649.333,0.25,25,79.0
4021,E-4,649.667,0.25,25,79.0
4022,C4,649.667,0.25,25,79.0
4023,G3,649.667,0.25,25,79.0
4024,G4,649.667,0.25,25,79.0
4025,G2,650.0,1.0,36,79.0
4026,D4,650.0,0.25,34,79.0
4027,B3,650.0,0.25,34,79.0
4028,G3,650.0,0.25,34,79.0
4029,G4,650.0,0.25,34,79.0
4030,D4,650.333,0.25,29,79.0
4031,B3,650.333,0.25,29,79.0
4032,G3,650.333,0.25,29,79.0
4033,G4,650.333,0.25,29,79.0
4034,D4,650.667,0.25,30,79.0
4035,B3,650.667,0.25,30,79.0
4036,G3,650.667,0.25,30,79.0
4037,G4,650.667,0.25,30,79.0
4038,G2,651.0,1.0,36,79.0
4039,D4,651.0,0.25,34,79.0
4040,B3,651.0,0.25,34,79.0
4041,G3,651.0,0.25,34,79.0
4042,G4,651.0,0.25,34,79.0
4043,D4,651.333,0.25,26,79.0
4044,B3,651.333,0.25,26,79.0
4045,G3,651.333,0.25,26,79.0
4046,G4,651.333,0.25,26,79.0
4047,D4,651.667,0.25,26,79.0
4048,B3,651.667,0.25,26,79.0
4049,G3,651.667,0.25,26,79.0
4050,G4,651.667,0.25,26,79.0
4051,C3,652.0,2.0,48,79.0
4052,E-4,652.0,0.25,39,79.0
4053,C4,652.0,0.25,39,79.0
4054,G4,652.0,0.25,39,79.0
4055,G3,652.0,0.25,39,79.0
4056,G3,652.333,0.25,24,79.0
4057,G4,652.333,0.25,24,79.0
4058,G3,652.667,0.25,24,79.0
4059,G4,652.667,0.25,24,79.0
4060,G3,653.0,0.25,31,79.0
4061,G4,653.0,0.25,31,79.0
4062,G3,653.333,0.25,32,79.0
4063,G4,653.333,0.25,32,79.0
4064,G3,653.667,0.25,33,79.0
4065,G4,653.667,0.25,33,79.0
4066,G3,654.0,0.25,44,79.0
4067,G4,654.0,0.25,44,79.0
4068,G3,654.333,0.25,34,79.0
4069,G4,654.333,0.25,34,79.0
4070,G3,654.667,0.25,38,79.0
4071,G4,654.667,0.25,38,79.0
4072,G3,655.0,0.25,52,79.0
4073,G4,655.0,0.25,52,79.0
4074,B1,655.0,0.75,46,79.0
4075,B2,655.0,0.75,46,79.0
4076,G3,655.333,0.25,40,79.0
4077,G4,655.333,0.25,40,79.0
4078,G3,655.667,0.25,40,79.0
4079,G4,655.667,0.25,40,79.0
4080,C2,655.75,0.25,40,79.0
4081,C3,655.75,0.25,40,79.0
4082,G4,656.0,0.25,59,79.0
4083,G3,656.0,0.25,59,79.0
4084,D3,656.0,0.75,56,79.0
4085,D2,656.0,0.75,56,79.0
4086,G3,656.333,0.25,37,79.0
4087,G4,656.333,0.25,37,79.0
4088,G3,656.667,0.25,37,79.0
4089,G4,656.667,0.25,37,79.0
4090,G3,657.0,0.25,42,79.0
4091,G4,657.0,0.25,42,79.0
4092,D2,657.0,88/125,46,79.0
4093,D3,657.0,88/125,46,79.0
4094,G3,657.333,0.25,42,79.0
4095,G4,657.333,0.25,42,79.0
4096,G3,657.667,0.25,42,79.0
4097,G4,657.667,0.25,42,79.0
4098,G3,658.0,0.25,54,79.0
4099,G4,658.0,0.25,54,79.0
4100,D2,658.0,88/125,46,79.0
4101,D3,658.0,88/125,46,79.0
4102,G3,658.333,0.25,39,79.0
4103,G4,658.333,0.25,39,79.0
4104,G3,658.667,0.25,42,79.0
4105,G4,658.667,0.25,42,79.0
4106,G#3,659.0,0.25,60,79.0
4107,G#4,659.0,0.25,60,79.0
4108,C2,659.0,0.75,54,79.0
4109,C3,659.0,0.75,54,79.0
4110,G#3,659.333,0.25,47,79.0
4111,G#4,659.333,0.25,47,79.0
4112,G#3,659.667,0.25,50,79.0
4113,G#4,659.667,0.25,50,79.0
4114,D2,659.75,0.25,62,79.0
4115,D3,659.75,0.25,62,79.0
4116,G4,660.0,0.25,70,79.0
4117,G3,660.0,0.25,70,79.0
4118,E-2,660.0,1.5,70,79.0
4119,E-3,660.0,1.5,70,79.0
4120,G3,660.333,0.25,45,79.0
4121,G4,660.333,0.25,45,79.0
4122,G3,660.667,0.25,45,79.0
4123,G4,660.667,0.25,45,79.0
4124,G3,661.0,0.25,50,79.0
4125,G4,661.0,0.25,50,79.0
4126,G3,661.333,0.25,50,79.0
4127,G4,661.333,0.25,50,79.0
4128,D2,661.5,0.5,59,79.0
4129,D3,661.5,0.5,59,79.0
4130,G3,661.667,0.25,49,79.0
4131,G4,661.667,0.25,49,79.0
4132,G3,662.0,0.25,63,79.0
4133,G4,662.0,0.25,63,79.0
4134,C2,662.0,1.0,50,79.0
4135,C3,662.0,1.0,50,79.0
4136,G3,662.333,0.25,46,79.0
4137,G4,662.333,0.25,46,79.0
4138,G3,662.667,0.25,47,79.0
4139,G4,662.667,0.25,47,79.0
4140,G3,663.0,0.25,62,79.0
4141,G4,663.0,0.25,62,79.0
4142,B-1,663.0,0.75,62,79.0
4143,B-2,663.0,0.75,62,79.0
4144,G3,663.333,0.25,46,79.0
4145,G4,663.333,0.25,46,79.0
4146,F3,663.667,0.25,46,79.0
4147,F4,663.667,0.25,46,79.0
4148,G#2,663.75,0.25,50,79.0
4149,G#1,663.75,0.25,50,79.0
4150,E4,664.0,0.25,59,79.0
4151,C4,664.0,0.25,59,79.0
4152,G4,664.0,0.25,59,79.0
4153,G3,664.0,0.25,59,79.0
4154,G1,664.0,1.0,50,79.0
4155,G2,664.0,1.0,50,79.0
4156,E4,664.333,0.25,35,79.0
4157,C4,664.333,0.25,35,79.0
4158,G3,664.333,0.25,35,79.0
4159,G4,664.333,0.25,35,79.0
4160,E4,664.667,0.25,35,79.0
4161,C4,664.667,0.25,35,79.0
4162,G3,664.667,0.25,35,79.0
4163,G4,664.667,0.25,35,79.0
4164,E4,665.0,0.25,37,79.0
4165,C4,665.0,0.25,37,79.0
4166,G3,665.0,0.25,37,79.0
4167,G4,665.0,0.25,37,79.0
4168,G1,665.0,1.0,50,79.0
4169,G2,665.0,1.0,50,79.0
4170,E4,665.333,0.25,37,79.0
4171,C4,665.333,0.25,37,79.0
4172,G3,665.333,0.25,37,79.0
4173,G4,665.333,0.25,37,79.0
4174,E4,665.667,0.25,37,79.0
4175,C4,665.667,0.25,37,79.0
4176,G3,665.667,0.25,37,79.0
4177,G4,665.667,0.25,37,79.0
4178,D4,666.0,0.25,51,79.0
4179,B3,666.0,0.25,51,79.0
4180,G3,666.0,0.25,51,79.0
4181,G4,666.0,0.25,51,79.0
4182,G2,666.0,1.0,50,79.0
4183,G1,666.0,1.0,50,79.0
4184,D4,666.333,0.25,44,79.0
4185,B3,666.333,0.25,44,79.0
4186,G3,666.333,0.25,44,79.0
4187,G4,666.333,0.25,44,79.0
4188,D4,666.667,0.25,45,79.0
4189,B3,666.667,0.25,45,79.0
4190,G3,666.667,0.25,45,79.0
4191,G4,666.667,0.25,45,79.0
4192,D4,667.0,0.25,52,79.0
4193,B3,667.0,0.25,52,79.0
4194,G3,667.0,0.25,52,79.0
4195,G4,667.0,0.25,52,79.0
4196,G2,667.0,1.0,50,79.0
4197,G1,667.0,1.0,50,79.0
4198,D4,667.333,0.25,39,79.0
4199,B3,667.333,0.25,39,79.0
4200,G3,667.333,0.25,39,79.0
4201,G4,667.333,0.25,39,79.0
4202,D4,667.667,0.25,39,79.0
4203,B3,667.667,0.25,39,79.0
4204,G3,667.667,0.25,39,79.0
4205,G4,667.667,0.25,39,79.0
4206,G3,668.0,2.0,42,79.0
4207,C4,668.0,2.0,42,79.0
4208,E4,668.0,2.0,42,79.0
4209,G4,668.0,2.0,42,79.0
4210,C2,668.0,333/1000,40,79.0
4211,C3,668.0,333/1000,40,79.0
4212,G3,668.333,0.25,31,79.0
4213,G3,668.667,0.25,31,79.0
4214,G3,669.0,0.25,31,79.0
4215,G3,669.333,0.25,29,79.0
4216,G3,669.667,0.25,29,79.0
4217,G3,670.0,0.25,29,79.0
4218,G3,670.333,0.25,28,79.0
4219,G3,670.667,0.25,28,79.0
4220,G3,671.0,0.25,31,79.0
4221,D4,671.0,0.75,39,79.0
4222,G4,671.0,0.75,39,79.0
4223,B4,671.0,0.75,39,79.0
4224,G3,671.333,0.25,30,79.0
4225,G3,671.667,0.25,30,79.0
4226,E4,671.75,0.25,34,79.0
4227,G4,671.75,0.25,34,79.0
4228,C5,671.75,0.25,34,79.0
4229,G3,672.0,0.25,31,79.0
4230,F4,672.0,88/125,40,79.0
4231,G4,672.0,88/125,40,79.0
4232,D5,672.0,88/125,40,79.0
4233,G3,672.333,0.25,27,79.0
4234,G3,672.667,0.25,27,79.0
4235,G3,673.0,0.25,31,79.0
4236,G4,673.0,88/125,37,79.0
4237,F4,673.0,88/125,37,79.0
4238,D5,673.0,88/125,37,79.0
4239,G3,673.333,0.25,28,79.0
4240,G3,673.667,0.25,28,79.0
4241,G3,674.0,0.25,31,79.0
4242,F4,674.0,88/125,37,79.0
4243,G4,674.0,88/125,37,79.0
4244,D5,674.0,88/125,37,79.0
4245,G3,674.333,0.25,31,79.0
4246,G3,674.667,0.25,31,79.0
4247,G3,675.0,0.25,31,79.0
4248,E4,675.0,0.75,41,79.0
4249,G4,675.0,0.75,41,79.0
4250,C5,675.0,0.75,41,79.0
4251,G3,675.333,0.25,31,79.0
4252,G3,675.667,0.25,32,79.0
4253,F4,675.75,0.25,42,79.0
4254,G4,675.75,0.25,42,79.0
4255,D5,675.75,0.25,42,79.0
4256,G3,676.0,0.25,40,79.0
4257,G4,676.0,1.5,49,79.0
4258,E5,676.0,1.5,49,79.0
4259,G3,676.333,0.25,31,79.0
4260,G3,676.667,0.25,26,79.0
4261,G3,677.0,0.25,33,79.0
4262,G3,677.333,0.25,29,79.0
4263,F4,677.5,0.5,39,79.0
4264,G4,677.5,0.5,39,79.0
4265,D5,677.5,0.5,39,79.0
4266,G3,677.667,0.25,26,79.0
4267,G3,678.0,0.25,33,79.0
4268,E4,678.0,1.0,35,79.0
4269,G4,678.0,1.0,35,79.0
4270,C5,678.0,1.0,35,79.0
4271,G3,678.333,0.25,30,79.0
4272,G3,678.667,0.25,29,79.0
4273,G3,679.0,0.25,33,79.0
4274,F4,679.0,0.75,44,79.0
4275,G4,679.0,0.75,44,79.0
4276,D5,679.0,0.75,44,79.0
4277,G3,679.333,0.25,30,79.0
4278,G3,679.667,0.25,30,79.0
4279,E4,679.75,0.25,37,79.0
4280,G4,679.75,0.25,37,79.0
4281,C5,679.75,0.25,37,79.0
4282,G3,680.0,0.25,31,79.0
4283,D4,680.0,1.0,41,79.0
4284,G4,680.0,1.0,41,79.0
4285,B4,680.0,1.0,41,79.0
4286,G3,680.333,0.25,28,79.0
4287,G3,680.667,0.25,28,79.0
4288,G3,681.0,0.25,31,79.0
4289,C4,681.0,0.75,39,79.0
4290,G4,681.0,0.75,39,79.0
4291,A4,681.0,0.75,39,79.0
4292,G3,681.333,0.25,28,79.0
4293,F3,681.667,0.25,28,79.0
4294,G3,681.667,0.25,28,79.0
4295,D4,681.75,0.25,32,79.0
4296,G4,681.75,0.25,32,79.0
4297,B4,681.75,0.25,32,79.0
4298,E4,682.0,1.0,43,79.0
4299,G4,682.0,1.0,43,79.0
4300,C5,682.0,1.0,43,79.0
4301,E3,682.0,0.25,33,79.0
4302,G3,682.0,0.25,33,79.0
4303,G3,682.333,0.25,29,79.0
4304,G3,682.667,0.25,29,79.0
4305,G4,683.0,0.75,38,79.0
4306,B4,683.0,0.75,38,79.0
4307,D5,683.0,0.75,38,79.0
4308,C3,683.0,0.25,33,79.0
4309,G3,683.0,0.25,33,79.0
4310,G3,683.333,0.25,31,79.0
4311,G3,683.667,0.25,31,79.0
4312,G4,683.75,0.25,39,79.0
4313,C5,683.75,0.25,39,79.0
4314,E5,683.75,0.25,39,79.0
4315,B4,684.0,3.0,46,79.0
4316,G4,684.0,3.0,46,79.0
4317,D5,684.0,3.0,46,79.0
4318,G2,684.0,0.25,36,79.0
4319,G3,684.0,0.25,36,79.0
4320,G3,684.333,0.25,29,79.0
4321,G3,684.667,0.25,29,79.0
4322,G3,685.0,0.25,44,79.0
4323,G3,685.333,0.25,37,79.0
4324,G3,685.667,0.25,39,79.0
4325,G3,686.0,0.25,53,79.0
4326,G3,686.333,0.25,39,79.0
4327,G3,686.667,0.25,40,79.0
4328,G3,687.0,0.25,52,79.0
4329,B3,687.0,0.75,55,79.0
4330,G4,687.0,0.75,55,79.0
4331,B4,687.0,0.75,55,79.0
4332,G3,687.333,0.25,45,79.0
4333,G3,687.667,0.25,52,79.0
4334,C4,687.75,0.25,53,79.0
4335,A4,687.75,0.25,53,79.0
4336,C5,687.75,0.25,53,79.0
4337,G3,688.0,0.25,59,79.0
4338,D4,688.0,1.0,65,79.0
4339,B4,688.0,1.0,65,79.0
4340,D5,688.0,1.0,65,79.0
4341,G3,688.333,0.25,47,79.0
4342,G3,688.667,0.25,47,79.0
4343,D4,689.0,1.0,53,79.0
4344,B4,689.0,1.0,53,79.0
4345,D5,689.0,1.0,53,79.0
4346,G3,689.0,0.25,52,79.0
4347,F#3,689.0,0.25,52,79.0
4348,G3,689.333,0.25,43,79.0
4349,F#3,689.333,0.25,43,79.0
4350,G3,689.667,0.25,43,79.0
4351,F#3,689.667,0.25,43,79.0
4352,D4,690.0,1.0,53,79.0
4353,B4,690.0,1.0,53,79.0
4354,D5,690.0,1.0,53,79.0
4355,F3,690.0,0.25,54,79.0
4356,G3,690.0,0.25,54,79.0
4357,G3,690.333,0.25,45,79.0
4358,F3,690.333,0.25,45,79.0
4359,G3,690.667,0.25,45,79.0
4360,F3,690.667,0.25,45,79.0
4361,E4,691.0,0.75,54,79.0
4362,C5,691.0,0.75,54,79.0
4363,E5,691.0,0.75,54,79.0
4364,G3,691.0,0.25,53,79.0
4365,E3,691.0,0.25,53,79.0
4366,E3,691.333,0.25,43,79.0
4367,G3,691.333,0.25,43,79.0
4368,F3,691.667,0.25,44,79.0
4369,D3,691.667,0.25,44,79.0
4370,G3,691.667,0.25,44,79.0
4371,F4,691.75,0.25,53,79.0
4372,D5,691.75,0.25,53,79.0
4373,F5,691.75,0.25,53,79.0
4374,E5,692.0,1.0,61,79.0
4375,G4,692.0,1.0,61,79.0
4376,G5,692.0,1.0,61,79.0
4377,E3,692.0,0.25,57,79.0
4378,C3,692.0,0.25,57,79.0
4379,G3,692.0,0.25,57,79.0
4380,E3,692.333,0.25,45,79.0
4381,C3,692.333,0.25,45,79.0
4382,G3,692.333,0.25,45,79.0
4383,E3,692.667,0.25,45,79.0
4384,G3,692.667,0.25,45,79.0
4385,C3,692.667,0.25,45,79.0
4386,D5,693.0,1.0,62,79.0
4387,B4,693.0,1.0,62,79.0
4388,F5,693.0,1.0,62,79.0
4389,G#2,693.0,0.25,54,79.0
4390,F3,693.0,0.25,54,79.0
4391,D3,693.0,0.25,54,79.0
4392,G#2,693.333,0.25,45,79.0
4393,F3,693.333,0.25,45,79.0
4394,D3,693.333,0.25,45,79.0
4395,G#2,693.667,0.25,45,79.0
4396,D3,693.667,0.25,45,79.0
4397,F3,693.667,0.25,45,79.0
4398,C5,694.0,1.0,65,79.0
4399,E5,694.0,1.0,65,79.0
4400,C3,694.0,0.25,55,79.0
4401,A2,694.0,0.25,55,79.0
4402,E3,694.0,0.25,55,79.0
4403,C3,694.333,0.25,43,79.0
4404,A2,694.333,0.25,43,79.0
4405,E3,694.333,0.25,43,79.0
4406,C3,694.667,0.25,43,79.0
4407,A2,694.667,0.25,43,79.0
4408,E3,694.667,0.25,43,79.0
4409,F2,695.0,333/1000,52,79.0
4410,A4,695.0,0.75,64,79.0
4411,F5,695.0,0.75,64,79.0
4412,F3,695.333,0.25,43,79.0
4413,A3,695.333,0.25,43,79.0
4414,A3,695.667,0.25,42,79.0
4415,F3,695.667,0.25,42,79.0
4416,F4,695.75,0.25,54,79.0
4417,A4,695.75,0.25,54,79.0
4418,D5,695.75,0.25,54,79.0
4419,G2,696.0,333/1000,54,79.0
4420,D4,696.0,1.0,59,79.0
4421,F4,696.0,1.0,59,79.0
4422,B4,696.0,1.0,59,79.0
4423,G3,696.333,0.25,45,79.0
4424,G3,696.667,0.25,45,79.0
4425,G2,697.0,333/1000,54,79.0
4426,F4,697.0,1.0,59,79.0
4427,B4,697.0,1.0,59,79.0
4428,D4,697.0,1.0,59,79.0
4429,G3,697.333,0.25,45,79.0
4430,G3,697.667,0.25,45,79.0
4431,G2,698.0,333/1000,54,79.0
4432,B4,698.0,1.0,59,79.0
4433,F4,698.0,1.0,59,79.0
4434,D4,698.0,1.0,59,79.0
4435,G3,698.333,0.25,45,79.0
4436,G3,698.667,0.25,45,79.0
4437,G3,699.0,0.25,57,79.0
4438,E5,699.0,0.75,70,79.0
4439,G4,699.0,0.75,70,79.0
4440,A3,699.333,0.25,43,79.0
4441,G3,699.333,0.25,43,79.0
4442,B3,699.667,0.25,43,79.0
4443,G3,699.667,0.25,43,79.0
4444,F4,699.75,0.25,55,79.0
4445,G4,699.75,0.25,55,79.0
4446,D5,699.75,0.25,55,79.0
4447,G4,700.0,2.0,65,79.0
4448,E4,700.0,2.0,65,79.0
4449,C5,700.0,2.0,65,79.0
4450,G3,700.0,333/1000,40,79.0
4451,C3,700.0,333/1000,40,79.0
4452,C4,700.0,333/1000,40,79.0
4453,G3,700.333,0.25,31,79.0
4454,G3,700.667,0.25,31,79.0
4455,G3,701.0,0.25,31,79.0
4456,G3,701.333,0.25,29,79.0
4457,G3,701.667,0.25,29,79.0
4458,G3,702.0,0.25,29,79.0
4459,G3,702.333,0.25,28,79.0
4460,G3,702.667,0.25,28,79.0
4461,B5,703.0,0.75,52,79.0
4462,G3,703.0,0.25,31,79.0
4463,G3,703.333,0.25,30,79.0
4464,G3,703.667,0.25,30,79.0
4465,C6,703.75,0.25,45,79.0
4466,D6,704.0,1.0,61,79.0
4467,G3,704.0,0.25,31,79.0
4468,G3,704.333,0.25,27,79.0
4469,G3,704.667,0.25,27,79.0
4470,G3,705.0,0.25,31,79.0
4471,F5,705.0,1.0,39,79.0
4472,G#5,705.0,1.0,39,79.0
4473,B5,705.0,1.0,39,79.0
4474,D6,705.0,1.0,39,79.0
4475,G3,705.333,0.25,28,79.0
4476,G3,705.667,0.25,28,79.0
4477,G3,706.0,0.25,31,79.0
4478,F#5,706.0,1.0,39,79.0
4479,A5,706.0,1.0,39,79.0
4480,C6,706.0,1.0,39,79.0
4481,D6,706.0,1.0,39,79.0
4482,G3,706.333,0.25,31,79.0
4483,G3,706.667,0.25,31,79.0
4484,C6,707.0,0.75,55,79.0
4485,G3,707.0,0.25,31,79.0
4486,F#5,707.0,1.0,35,79.0
4487,A5,707.0,1.0,35,79.0
4488,G3,707.333,0.25,31,79.0
4489,G3,707.667,0.25,32,79.0
4490,D6,707.75,0.25,56,79.0
4491,E-6,708.0,1.5,63,79.0
4492,C4,708.0,1.5,53,79.0
4493,G3,708.0,0.25,40,79.0
4494,F#5,708.0,3.0,35,79.0
4495,A5,708.0,3.0,35,79.0
4496,G3,708.333,0.25,31,79.0
4497,G3,708.667,0.25,26,79.0
4498,G3,709.0,0.25,33,79.0
4499,G3,709.333,0.25,29,79.0
4500,D6,709.5,0.5,52,79.0
4501,D4,709.5,0.5,44,79.0
4502,G3,709.667,0.25,26,79.0
4503,C6,710.0,1.0,46,79.0
4504,E-4,710.0,1.0,39,79.0
4505,G3,710.0,0.25,33,79.0
4506,G3,710.333,0.25,30,79.0
4507,G3,710.667,0.25,29,79.0
4508,D6,711.0,0.75,58,79.0
4509,F#4,711.0,1.0,39,79.0
4510,G3,711.0,0.25,33,79.0
4511,D5,711.0,1.0,35,79.0
4512,A5,711.0,1.0,35,79.0
4513,G3,711.333,0.25,30,79.0
4514,G3,711.667,0.25,30,79.0
4515,C6,711.75,0.25,50,79.0
4516,G4,712.0,1.0,39,79.0
4517,G3,712.0,0.25,31,79.0
4518,D5,712.0,1.0,42,79.0
4519,G5,712.0,1.0,42,79.0
4520,B5,712.0,1.0,42,79.0
4521,G3,712.333,0.25,28,79.0
4522,G3,712.667,0.25,28,79.0
4523,A5,713.0,0.75,52,79.0
4524,F4,713.0,1.0,39,79.0
4525,G3,713.0,0.25,31,79.0
4526,D5,713.0,1.0,35,79.0
4527,G5,713.0,1.0,35,79.0
4528,G3,713.333,0.25,28,79.0
4529,G3,713.667,0.25,31,79.0
4530,B5,713.75,0.25,52,79.0
4531,E-4,714.0,1.0,37,79.0
4532,G3,714.0,0.25,36,79.0
4533,C5,714.0,1.0,42,79.0
4534,G5,714.0,1.0,42,79.0
4535,C6,714.0,1.0,42,79.0
4536,G3,714.333,0.25,29,79.0
4537,G3,714.667,0.25,29,79.0
4538,G5,715.0,1.0,35,79.0
4539,C4,715.0,1.0,35,79.0
4540,G3,715.0,0.25,36,79.0
4541,B5,715.0,0.75,45,79.0
4542,D6,715.0,0.75,45,79.0
4543,G3,715.333,0.25,31,79.0
4544,G3,715.667,0.25,31,79.0
4545,C6,715.75,0.25,46,79.0
4546,E-6,715.75,0.25,46,79.0
4547,G4,716.0,2.0,35,79.0
4548,G3,716.0,0.25,37,79.0
4549,G5,716.0,3.0,43,79.0
4550,B5,716.0,3.0,43,79.0
4551,D6,716.0,3.0,43,79.0
4552,G3,716.333,0.25,29,79.0
4553,G3,716.667,0.25,29,79.0
4554,G3,717.0,0.25,42,79.0
4555,G3,717.333,0.25,35,79.0
4556,G3,717.667,0.25,37,79.0
4557,G3,718.0,333/1000,49,79.0
4558,G#3,718.333,333/1000,36,79.0
4559,A3,718.667,333/1000,36,79.0
4560,D5,719.0,0.75,55,79.0
4561,B-3,719.0,0.25,52,79.0
4562,B-3,719.333,0.25,45,79.0
4563,B-3,719.667,0.25,52,79.0
4564,E-5,719.75,0.25,47,79.0
4565,F5,720.0,88/125,64,79.0
4566,B-3,720.0,0.25,52,79.0
4567,B-3,720.333,0.25,46,79.0
4568,B-3,720.667,0.25,46,79.0
4569,B4,721.0,88/125,46,79.0
4570,G#4,721.0,88/125,46,79.0
4571,D5,721.0,88/125,46,79.0
4572,F5,721.0,88/125,46,79.0
4573,B-3,721.0,0.25,48,79.0
4574,F4,721.0,0.25,48,79.0
4575,B-3,721.333,0.25,42,79.0
4576,F4,721.333,0.25,42,79.0
4577,B-3,721.667,0.25,42,79.0
4578,F4,721.667,0.25,42,79.0
4579,G#4,722.0,88/125,47,79.0
4580,B-4,722.0,88/125,47,79.0
4581,F5,722.0,88/125,47,79.0
4582,B-3,722.0,0.25,48,79.0
4583,D4,722.0,0.25,48,79.0
4584,B-3,722.333,0.25,42,79.0
4585,D4,722.333,0.25,42,79.0
4586,B-3,722.667,0.25,45,79.0
4587,D4,722.667,0.25,45,79.0
4588,E-5,723.0,0.125,47,79.0
4589,B-3,723.0,0.25,52,79.0
4590,B-4,723.0,1.0,39,79.0
4591,G#4,723.0,1.0,39,79.0
4592,F5,723.125,0.125,47,79.0
4593,E-5,723.25,0.5,70,79.0
4594,B-3,723.333,0.25,47,79.0
4595,B-3,723.667,0.25,47,79.0
4596,D5,723.75,0.25,58,79.0
4597,G5,724.0,1.5,66,79.0
4598,E-4,724.0,0.25,56,79.0
4599,B-4,724.0,1.0,56,79.0
4600,G4,724.0,1.0,56,79.0
4601,E-4,724.333,0.25,39,79.0
4602,E-4,724.667,0.25,39,79.0
4603,D5,725.0,1.0,40,79.0
4604,G#4,725.0,1.0,40,79.0
4605,B3,725.0,0.25,40,79.0
4606,D4,725.0,0.25,40,79.0
4607,F4,725.0,0.25,40,79.0
4608,B3,725.333,0.25,34,79.0
4609,D4,725.333,0.25,34,79.0
4610,F4,725.333,0.25,34,79.0
4611,F5,725.5,0.5,55,79.0
4612,B3,725.667,0.25,34,79.0
4613,D4,725.667,0.25,34,79.0
4614,F4,725.667,0.25,34,79.0
4615,G4,726.0,1.0,52,79.0
4616,E-5,726.0,1.0,52,79.0
4617,E-4,726.0,0.25,43,79.0
4618,C4,726.0,0.25,43,79.0
4619,E-4,726.333,0.25,38,79.0
4620,C4,726.333,0.25,38,79.0
4621,E-4,726.667,0.25,38,79.0
4622,C4,726.667,0.25,38,79.0
4623,G#4,727.0,1.0,46,79.0
4624,F4,727.0,0.75,58,79.0
4625,D5,727.0,0.75,58,79.0
4626,F3,727.0,0.25,48,79.0
4627,G#3,727.0,0.25,48,79.0
4628,F3,727.333,0.25,42,79.0
4629,G#3,727.333,0.25,42,79.0
4630,F3,727.667,0.25,42,79.0
4631,G#3,727.667,0.25,42,79.0
4632,E-4,727.75,0.25,50,79.0
4633,C5,727.75,0.25,50,79.0
4634,G3,728.0,0.25,50,79.0
4635,D4,728.0,1.0,53,79.0
4636,G4,728.0,1.0,53,79.0
4637,B4,728.0,1.0,53,79.0
4638,G3,728.333,0.25,40,79.0
4639,G3,728.667,0.25,40,79.0
4640,A4,729.0,0.75,61,79.0
4641,D4,729.0,1.0,48,79.0
4642,G4,729.0,1.0,48,79.0
4643,F3,729.0,0.25,46,79.0
4644,G3,729.0,0.25,46,79.0
4645,G3,729.333,0.25,39,79.0
4646,G3,729.667,0.25,39,79.0
4647,B4,729.75,0.25,50,79.0
4648,C4,730.0,1.0,63,79.0
4649,G4,730.0,1.0,63,79.0
4650,C5,730.0,1.0,63,79.0
4651,E-3,730.0,0.25,43,79.0
4652,G3,730.0,0.25,43,79.0
4653,G3,730.333,0.25,38,79.0
4654,G3,730.667,0.25,38,79.0
4655,G4,731.0,1.0,53,79.0
4656,F5,731.0,0.75,63,79.0
4657,C3,731.0,0.25,44,79.0
4658,G3,731.0,0.25,44,79.0
4659,G3,731.333,0.25,38,79.0
4660,G3,731.667,0.25,38,79.0
4661,C5,731.75,0.25,50,79.0
4662,E-5,731.75,0.25,50,79.0
4663,B4,732.0,3.0,46,79.0
4664,G4,732.0,3.0,46,79.0
4665,D5,732.0,3.0,46,79.0
4666,G2,732.0,0.25,45,79.0
4667,G3,732.0,0.25,45,79.0
4668,G3,732.333,0.25,36,79.0
4669,G3,732.667,0.25,36,79.0
4670,G3,733.0,0.25,42,79.0
4671,G3,733.333,0.25,35,79.0
4672,G3,733.667,0.25,37,79.0
4673,G3,734.0,0.25,49,79.0
4674,G3,734.333,0.25,36,79.0
4675,G3,734.667,0.25,36,79.0
4676,G3,735.0,0.25,57,79.0
4677,B3,735.0,0.75,61,79.0
4678,G4,735.0,0.75,61,79.0
4679,B4,735.0,0.75,61,79.0
4680,G3,735.333,0.25,49,79.0
4681,G3,735.667,0.25,57,79.0
4682,C4,735.75,0.25,59,79.0
4683,A4,735.75,0.25,59,79.0
4684,C5,735.75,0.25,59,79.0
4685,G3,736.0,0.25,64,79.0
4686,D4,736.0,1.0,71,79.0
4687,B4,736.0,1.0,71,79.0
4688,D5,736.0,1.0,71,79.0
4689,G3,736.333,0.25,51,79.0
4690,G3,736.667,0.25,51,79.0
4691,D4,737.0,1.0,59,79.0
4692,B4,737.0,1.0,59,79.0
4693,D5,737.0,1.0,59,79.0
4694,G3,737.0,0.25,57,79.0
4695,F#3,737.0,0.25,57,79.0
4696,G3,737.333,0.25,47,79.0
4697,F#3,737.333,0.25,47,79.0
4698,G3,737.667,0.25,47,79.0
4699,F#3,737.667,0.25,47,79.0
4700,D4,738.0,1.0,60,79.0
4701,B4,738.0,1.0,60,79.0
4702,D5,738.0,1.0,60,79.0
4703,F3,738.0,0.25,60,79.0
4704,G3,738.0,0.25,60,79.0
4705,G3,738.333,0.25,50,79.0
4706,E3,738.333,0.25,50,79.0
4707,G3,738.667,0.25,51,79.0
4708,D3,738.667,0.25,51,79.0
4709,E4,739.0,0.75,56,79.0
4710,C5,739.0,0.75,56,79.0
4711,E5,739.0,0.75,56,79.0
4712,G3,739.0,0.25,61,79.0
4713,C3,739.0,0.25,61,79.0
4714,B2,739.333,0.25,50,79.0
4715,G3,739.333,0.25,50,79.0
4716,G3,739.667,0.25,52,79.0
4717,B-2,739.667,0.25,52,79.0
4718,F4,739.75,0.25,62,79.0
4719,D5,739.75,0.25,62,79.0
4720,F5,739.75,0.25,62,79.0
4721,E5,740.0,1.5,76,79.0
4722,G4,740.0,1.5,76,79.0
4723,G5,740.0,1.5,76,79.0
4724,A2,740.0,0.25,71,79.0
4725,G3,740.0,0.25,71,79.0
4726,A2,740.333,0.25,54,79.0
4727,G3,740.333,0.25,54,79.0
4728,G3,740.667,0.25,53,79.0
4729,A2,740.667,0.25,53,79.0
4730,A2,741.0,0.25,61,79.0
4731,G3,741.0,0.25,61,79.0
4732,A2,741.333,0.25,49,79.0
4733,G3,741.333,0.25,49,79.0
4734,D5,741.5,0.5,66,79.0
4735,F4,741.5,0.5,66,79.0
4736,F5,741.5,0.5,66,79.0
4737,A2,741.667,0.25,47,79.0
4738,G3,741.667,0.25,47,79.0
4739,E4,742.0,1.0,62,79.0
4740,C#5,742.0,1.0,62,79.0
4741,E5,742.0,1.0,62,79.0
4742,A2,742.0,0.25,56,79.0
4743,G3,742.0,0.25,56,79.0
4744,A2,742.333,0.25,43,79.0
4745,A2,742.667,0.25,43,79.0
4746,A2,743.0,0.25,54,79.0
4747,A2,743.333,0.25,46,79.0
4748,A2,743.667,0.25,46,79.0
4749,E4,744.0,1.5,60,79.0
4750,B-2,744.0,0.25,50,79.0
4751,G3,744.0,3.0,51,79.0
4752,C#4,744.0,3.0,51,79.0
4753,A2,744.333,0.25,41,79.0
4754,A2,744.667,0.25,41,79.0
4755,A2,745.0,0.25,48,79.0
4756,A2,745.333,0.25,41,79.0
4757,F4,745.5,0.5,54,79.0
4758,A2,745.667,0.25,41,79.0
4759,E4,746.0,1.0,50,79.0
4760,A2,746.0,0.25,49,79.0
4761,A2,746.333,0.25,41,79.0
4762,A2,746.667,0.25,41,79.0
4763,A2,747.0,0.25,41,79.0
4764,A2,747.333,0.25,41,79.0
4765,A2,747.667,0.25,41,79.0
4766,G#2,748.0,0.25,71,79.0
4767,D5,748.0,1.5,76,79.0
4768,F4,748.0,1.5,76,79.0
4769,F5,748.0,1.5,76,79.0
4770,G#2,748.333,0.25,54,79.0
4771,G#2,748.667,0.25,53,79.0
4772,G#2,749.0,0.25,61,79.0
4773,G#2,749.333,0.25,49,79.0
4774,C5,749.5,0.5,66,79.0
4775,E-4,749.5,0.5,66,79.0
4776,E-5,749.5,0.5,66,79.0
4777,G#2,749.667,0.25,47,79.0
4778,G#2,750.0,0.25,56,79.0
4779,D4,750.0,1.0,62,79.0
4780,B4,750.0,1.0,62,79.0
4781,D5,750.0,1.0,62,79.0
4782,G#2,750.333,0.25,43,79.0
4783,G#2,750.667,0.25,43,79.0
4784,G#2,751.0,0.25,54,79.0
4785,G#2,751.333,0.25,46,79.0
4786,G#2,751.667,0.25,46,79.0
4787,D4,752.0,1.5,60,79.0
4788,G2,752.0,0.25,50,79.0
4789,F3,752.0,3.0,51,79.0
4790,B3,752.0,3.0,51,79.0
4791,G#2,752.333,0.25,41,79.0
4792,G#2,752.667,0.25,41,79.0
4793,G#2,753.0,0.25,48,79.0
4794,G#2,753.333,0.25,41,79.0
4795,E-4,753.5,0.5,54,79.0
4796,G#2,753.667,0.25,41,79.0
4797,D4,754.0,1.0,50,79.0
4798,G#2,754.0,0.25,49,79.0
4799,G#2,754.333,0.25,41,79.0
4800,G#2,754.667,0.25,41,79.0
4801,G2,755.0,0.25,41,79.0
4802,G2,755.333,0.25,41,79.0
4803,G2,755.667,0.25,41,79.0
4804,A4,756.0,4.0,43,79.0
4805,E-5,756.0,2.0,60,79.0
4806,F#2,756.0,0.25,34,79.0
4807,C3,756.0,2.0,53,79.0
4808,F#2,756.333,0.25,34,79.0
4809,F#2,756.667,0.25,34,79.0
4810,F#2,757.0,0.25,41,79.0
4811,F#2,757.333,0.25,33,79.0
4812,F#2,757.667,0.25,33,79.0
4813,D5,758.0,1.0,53,79.0
4814,F#2,758.0,0.25,34,79.0
4815,D3,758.0,1.0,43,79.0
4816,F#2,758.333,0.25,32,79.0
4817,F#2,758.667,0.25,32,79.0
4818,C5,759.0,1.0,50,79.0
4819,F#2,759.0,0.25,34,79.0
4820,E-3,759.0,1.0,44,79.0
4821,F#2,759.333,0.25,33,79.0
4822,F#2,759.667,0.25,33,79.0
4823,G4,760.0,2.0,51,79.0
4824,G2,760.0,0.25,34,79.0
4825,E3,760.0,2.0,46,79.0
4826,G2,760.333,0.25,34,79.0
4827,G2,760.667,0.25,34,79.0
4828,G2,761.0,0.25,34,79.0
4829,G2,761.333,0.25,34,79.0
4830,G2,761.667,0.25,34,79.0
4831,C5,762.0,0.5,51,79.0
4832,F4,762.0,2.0,36,79.0
4833,G2,762.0,0.25,34,79.0
4834,D3,762.0,2.0,45,79.0
4835,G2,762.333,0.25,34,79.0
4836,B4,762.5,0.5,46,79.0
4837,G2,762.667,0.25,35,79.0
4838,A4,763.0,0.5,49,79.0
4839,G2,763.0,0.25,35,79.0
4840,G2,763.333,0.25,30,79.0
4841,B4,763.5,0.5,41,79.0
4842,G2,763.667,0.25,30,79.0
4843,E4,764.0,4.0,34,79.0
4844,C5,764.0,4.0,48,79.0
4845,C2,764.0,0.25,32,79.0
4846,C3,764.0,4.0,38,79.0
4847,C2,764.333,0.25,38,79.0
4848,C2,764.667,0.25,37,79.0
4849,C2,765.0,0.25,37,79.0
4850,C2,765.333,0.25,36,79.0
4851,C2,765.667,0.25,35,79.0
4852,C2,766.0,0.25,35,79.0
4853,C2,766.333,0.25,34,79.0
4854,C2,766.667,0.25,34,79.0
4855,C2,767.0,0.25,33,79.0
4856,C2,767.333,0.25,33,79.0
4857,C2,767.667,0.25,32,79.0
4858,E4,768.0,2.0,34,79.0
4859,C5,768.0,3.0,48,79.0
4860,C2,768.0,0.25,31,79.0
4861,C3,768.0,2.0,38,79.0
4862,C2,768.333,0.25,31,79.0
4863,C2,768.667,0.25,30,79.0
4864,C2,769.0,0.25,30,79.0
4865,C2,769.333,0.25,29,79.0
4866,C2,769.667,0.25,28,79.0
4867,C2,770.0,1.0,34,79.0
4868,B4,771.0,0.75,37,79.0
4869,C5,771.75,0.25,32,79.0
4870,D5,772.0,88/125,43,79.0
4871,D5,773.0,88/125,35,79.0
4872,G4,773.0,2.0,26,79.0
4873,G3,773.0,2.0,26,79.0
4874,D5,774.0,88/125,35,79.0
4875,C5,775.0,0.5,39,79.0
4876,B4,775.5,0.5,39,79.0
4877,E-5,776.0,1.5,45,79.0
4878,G3,777.0,2.0,26,79.0
4879,G4,777.0,2.0,26,79.0
4880,D5,777.5,0.5,37,79.0
4881,C5,778.0,0.5,33,79.0
4882,G4,778.5,0.5,33,79.0
4883,C5,779.0,0.5,35,79.0
4884,C4,779.0,0.5,29,79.0
4885,D5,779.5,0.5,40,79.0
4886,D4,779.5,0.5,35,79.0
4887,E-5,780.0,1.0,45,79.0
4888,E-4,780.0,1.0,40,79.0
4889,D5,781.0,0.5,45,79.0
4890,D4,781.0,0.5,33,79.0
4891,C5,781.5,0.5,42,79.0
4892,C4,781.5,0.5,30,79.0
4893,G4,782.0,0.75,46,79.0
4894,E4,782.0,0.75,30,79.0
4895,G3,782.0,0.75,30,79.0
4896,B4,783.0,0.75,35,79.0
4897,F4,783.0,0.75,35,79.0
4898,D4,783.0,0.75,28,79.0
4899,G3,783.0,0.75,28,79.0
4900,E4,784.0,3.0,40,79.0
4901,C5,784.0,3.0,40,79.0
4902,C3,784.0,3.0,28,79.0
4903,G3,784.0,3.0,28,79.0
4904,C4,784.0,3.0,28,79.0
4905,B3,787.0,0.75,33,79.0
4906,C4,787.75,0.25,28,79.0
4907,D4,788.0,88/125,38,79.0
4908,D4,789.0,88/125,31,79.0
4909,G4,789.0,2.0,33,79.0
4910,G5,789.0,2.0,33,79.0
4911,D4,790.0,88/125,31,79.0
4912,C4,791.0,0.75,35,79.0
4913,D4,791.75,0.25,35,79.0
4914,E-4,792.0,1.5,40,79.0
4915,G4,793.0,2.0,32,79.0
4916,G5,793.0,2.0,32,79.0
4917,D4,793.5,0.5,33,79.0
4918,C4,794.0,0.5,29,79.0
4919,G3,794.5,0.5,29,79.0
4920,E-5,795.0,0.5,35,79.0
4921,C4,795.0,0.5,29,79.0
4922,F5,795.5,0.5,40,79.0
4923,D4,795.5,0.5,35,79.0
4924,G5,796.0,0.5,45,79.0
4925,E-4,796.0,1.0,40,79.0
4926,E-5,796.5,0.5,40,79.0
4927,B4,797.0,0.5,45,79.0
4928,D4,797.0,0.5,33,79.0
4929,C5,797.5,0.5,42,79.0
4930,C4,797.5,0.5,30,79.0
4931,G4,798.0,0.75,46,79.0
4932,E4,798.0,0.75,30,79.0
4933,G3,798.0,0.75,30,79.0
4934,B4,799.0,0.75,35,79.0
4935,F4,799.0,0.75,35,79.0
4936,D4,799.0,0.75,28,79.0
4937,G3,799.0,0.75,28,79.0
4938,E4,800.0,2.0,40,79.0
4939,C5,800.0,2.0,40,79.0
4940,C3,800.0,2.0,27,79.0
4941,G3,800.0,2.0,27,79.0
4942,C4,800.0,2.0,27,79.0
4943,G4,802.0,0.75,46,79.0
4944,E4,802.0,0.75,30,79.0
4945,G3,802.0,0.75,30,79.0
4946,B4,803.0,0.75,35,79.0
4947,F4,803.0,0.75,35,79.0
4948,D4,803.0,0.75,28,79.0
4949,G3,803.0,0.75,28,79.0
4950,E4,804.0,2.0,40,79.0
4951,C5,804.0,2.0,40,79.0
4952,C3,804.0,2.0,27,79.0
4953,G3,804.0,2.0,27,79.0
4954,C4,804.0,2.0,27,79.0
4955,G3,806.0,1.0,48,79.0
4956,E3,806.0,1.0,32,79.0
4957,G2,806.0,1.0,32,79.0
4958,B3,807.0,1.0,38,79.0
4959,F3,807.0,1.0,38,79.0
4960,D3,807.0,1.0,30,79.0
4961,G2,807.0,1.0,30,79.0
4962,E3,808.0,2.0,44,79.0
4963,C4,808.0,2.0,44,79.0
4964,C2,808.0,2.0,31,79.0
4965,G2,808.0,2.0,31,79.0
4966,C3,808.0,2.0,31,79.0
4967,G3,810.0,2.0,41,79.0
4968,E3,810.0,2.0,41,79.0
4969,C4,810.0,2.0,41,79.0
4970,C2,810.0,2.0,30,79.0
4971,G2,810.0,2.0,30,79.0
4972,C3,810.0,2.0,30,79.0
4973,G3,812.0,4.0,41,79.0
4974,E3,812.0,4.0,41,79.0
4975,C4,812.0,4.0,41,79.0
4976,C2,812.0,4.0,30,79.0
4977,G2,812.0,4.0,30,79.0
4978,C3,812.0,4.0,30,79.0
