,note_name,start_time,duration,velocity,tempo
0,C2,0.0,1.0,78,145.5
1,C3,0.0,1.0,78,145.5
2,C2,1.0,0.188,73,145.5
3,C3,1.0,0.188,73,145.5
4,C2,1.5,0.188,73,145.5
5,C3,1.5,0.188,73,145.5
6,C2,2.0,1.0,73,145.5
7,C3,2.0,1.0,73,145.5
8,C2,3.0,0.188,74,145.5
9,C3,3.0,0.188,74,145.5
10,C2,3.5,0.188,75,145.5
11,C3,3.5,0.188,75,145.5
12,C#2,4.0,0.188,83,145.5
13,C#3,4.0,0.188,83,145.5
14,D2,5.0,1.5,82,145.5
15,D3,5.0,1.5,82,145.5
16,E2,6.5,0.188,74,145.5
17,E3,6.5,0.188,74,145.5
18,F2,7.0,0.188,73,145.5
19,F3,7.0,0.188,73,145.5
20,E2,7.5,0.188,74,145.5
21,E3,7.5,0.188,74,145.5
22,D2,8.0,1.0,78,145.5
23,D3,8.0,1.0,78,145.5
24,D2,9.0,0.188,78,145.5
25,D3,9.0,0.188,78,145.5
26,D2,9.5,0.188,74,145.5
27,D3,9.5,0.188,74,145.5
28,D2,10.0,1.0,74,145.5
29,D3,10.0,1.0,74,145.5
30,D2,11.0,0.188,75,145.5
31,D3,11.0,0.188,75,145.5
32,D2,11.5,0.188,75,145.5
33,D3,11.5,0.188,75,145.5
34,E-2,12.0,0.188,83,145.5
35,E-3,12.0,0.188,83,145.5
36,E2,13.0,1.5,82,145.5
37,E3,13.0,1.5,82,145.5
38,F#2,14.5,0.188,80,145.5
39,F#3,14.5,0.188,80,145.5
40,G2,15.0,0.188,74,145.5
41,G3,15.0,0.188,74,145.5
42,A2,15.5,0.188,76,145.5
43,A3,15.5,0.188,76,145.5
44,B-2,16.0,1.0,86,145.5
45,B-3,16.0,1.0,86,145.5
46,B-2,17.0,0.188,78,145.5
47,B-3,17.0,0.188,78,145.5
48,B-2,17.5,0.188,78,145.5
49,B-3,17.5,0.188,78,145.5
50,C#2,18.0,1.5,86,145.5
51,C#3,18.0,1.5,86,145.5
52,C#2,19.5,0.188,80,145.5
53,C#3,19.5,0.188,80,145.5
54,A2,20.0,1.0,86,145.5
55,A3,20.0,1.0,86,145.5
56,A2,21.0,0.188,78,145.5
57,A3,21.0,0.188,78,145.5
58,A2,21.5,0.188,78,145.5
59,A3,21.5,0.188,78,145.5
60,C2,22.0,1.5,86,145.5
61,C3,22.0,1.5,86,145.5
62,C2,23.5,0.188,78,145.5
63,C3,23.5,0.188,78,145.5
64,B1,24.0,0.188,78,145.5
65,B2,24.0,0.188,78,145.5
66,D2,24.5,0.188,79,145.5
67,D3,24.5,0.188,79,145.5
68,G2,25.0,0.188,82,145.5
69,G3,25.0,0.188,82,145.5
70,F2,25.5,0.188,78,145.5
71,F3,25.5,0.188,78,145.5
72,E2,26.0,0.188,80,145.5
73,E3,26.0,0.188,80,145.5
74,C2,26.5,0.188,76,145.5
75,C3,26.5,0.188,76,145.5
76,B1,27.0,0.188,76,145.5
77,B2,27.0,0.188,76,145.5
78,A1,27.5,0.188,75,145.5
79,A2,27.5,0.188,75,145.5
80,F2,28.0,1.0,78,145.5
81,F3,28.0,1.0,78,145.5
82,E2,29.0,1.0,75,145.5
83,E3,29.0,1.0,75,145.5
84,D2,30.0,2.0,78,145.5
85,D3,30.0,2.0,78,145.5
86,G3,32.0,1.0,78,145.5
87,G4,32.0,1.0,78,145.5
88,C2,32.0,2.5,71,145.5
89,C3,32.0,2.5,71,145.5
90,G3,33.0,0.188,73,145.5
91,G4,33.0,0.188,73,145.5
92,G3,33.5,0.188,73,145.5
93,G4,33.5,0.188,73,145.5
94,G3,34.0,1.0,73,145.5
95,G4,34.0,1.0,73,145.5
96,D2,34.5,0.188,67,145.5
97,D3,34.5,0.188,67,145.5
98,G3,35.0,0.188,74,145.5
99,G4,35.0,0.188,74,145.5
100,E2,35.0,0.188,67,145.5
101,E3,35.0,0.188,67,145.5
102,G3,35.5,0.188,75,145.5
103,G4,35.5,0.188,75,145.5
104,F2,35.5,0.188,67,145.5
105,F3,35.5,0.188,67,145.5
106,G#3,36.0,0.188,83,145.5
107,G#4,36.0,0.188,83,145.5
108,E2,36.0,0.188,71,145.5
109,E3,36.0,0.188,71,145.5
110,D2,36.5,0.188,68,145.5
111,D3,36.5,0.188,68,145.5
112,A3,37.0,1.5,82,145.5
113,A4,37.0,1.5,82,145.5
114,C2,37.0,0.188,68,145.5
115,C3,37.0,0.188,68,145.5
116,B1,37.5,0.188,68,145.5
117,B2,37.5,0.188,68,145.5
118,A1,38.0,1.5,73,145.5
119,A2,38.0,1.5,73,145.5
120,B3,38.5,0.188,74,145.5
121,B4,38.5,0.188,74,145.5
122,C4,39.0,0.188,73,145.5
123,C5,39.0,0.188,73,145.5
124,B3,39.5,0.188,74,145.5
125,B4,39.5,0.188,74,145.5
126,E2,39.5,0.188,70,145.5
127,E3,39.5,0.188,70,145.5
128,A3,40.0,1.0,78,145.5
129,A4,40.0,1.0,78,145.5
130,F2,40.0,2.5,71,145.5
131,F3,40.0,2.5,71,145.5
132,A3,41.0,0.188,78,145.5
133,A4,41.0,0.188,78,145.5
134,A3,41.5,0.188,74,145.5
135,A4,41.5,0.188,74,145.5
136,A3,42.0,1.0,74,145.5
137,A4,42.0,1.0,74,145.5
138,E2,42.5,0.188,67,145.5
139,E3,42.5,0.188,67,145.5
140,A3,43.0,0.188,75,145.5
141,A4,43.0,0.188,75,145.5
142,F2,43.0,0.188,67,145.5
143,F3,43.0,0.188,67,145.5
144,A3,43.5,0.188,75,145.5
145,A4,43.5,0.188,75,145.5
146,G2,43.5,0.188,67,145.5
147,G3,43.5,0.188,67,145.5
148,B-3,44.0,0.188,83,145.5
149,B-4,44.0,0.188,83,145.5
150,F#2,44.0,0.188,71,145.5
151,F#3,44.0,0.188,71,145.5
152,E2,44.5,0.188,68,145.5
153,E3,44.5,0.188,68,145.5
154,B3,45.0,1.5,82,145.5
155,B4,45.0,1.5,82,145.5
156,D2,45.0,0.188,68,145.5
157,D3,45.0,0.188,68,145.5
158,C#2,45.5,0.188,68,145.5
159,C#3,45.5,0.188,68,145.5
160,B1,46.0,1.5,73,145.5
161,B2,46.0,1.5,73,145.5
162,C#4,46.5,0.188,76,145.5
163,C#5,46.5,0.188,76,145.5
164,D4,47.0,0.188,69,145.5
165,D5,47.0,0.188,69,145.5
166,E4,47.5,0.188,70,145.5
167,E5,47.5,0.188,70,145.5
168,A1,47.5,0.188,65,145.5
169,A2,47.5,0.188,65,145.5
170,F4,48.0,1.0,78,145.5
171,F5,48.0,1.0,78,145.5
172,G#1,48.0,0.188,66,145.5
173,G#2,48.0,0.188,66,145.5
174,B1,48.5,0.188,62,145.5
175,B2,48.5,0.188,62,145.5
176,F4,49.0,0.188,70,145.5
177,F5,49.0,0.188,70,145.5
178,G#1,49.0,0.188,66,145.5
179,G#2,49.0,0.188,66,145.5
180,F4,49.5,0.188,70,145.5
181,F5,49.5,0.188,70,145.5
182,B1,49.5,0.188,60,145.5
183,B2,49.5,0.188,60,145.5
184,G#3,50.0,1.5,83,145.5
185,G#4,50.0,1.5,83,145.5
186,F2,50.0,0.188,71,145.5
187,F3,50.0,0.188,71,145.5
188,F2,50.5,1.5,70,145.5
189,F3,50.5,1.5,70,145.5
190,G#3,51.5,0.188,76,145.5
191,G#4,51.5,0.188,76,145.5
192,E4,52.0,1.0,78,145.5
193,E5,52.0,1.0,78,145.5
194,G1,52.0,0.188,66,145.5
195,G2,52.0,0.188,66,145.5
196,B-1,52.5,0.188,62,145.5
197,B-2,52.5,0.188,62,145.5
198,E4,53.0,0.188,70,145.5
199,E5,53.0,0.188,70,145.5
200,G1,53.0,0.188,66,145.5
201,G2,53.0,0.188,66,145.5
202,E4,53.5,0.188,71,145.5
203,E5,53.5,0.188,71,145.5
204,B-1,53.5,0.188,60,145.5
205,B-2,53.5,0.188,60,145.5
206,G3,54.0,1.5,83,145.5
207,G4,54.0,1.5,83,145.5
208,E2,54.0,0.188,71,145.5
209,E3,54.0,0.188,71,145.5
210,E2,54.5,1.5,70,145.5
211,E3,54.5,1.5,70,145.5
212,G3,55.5,0.188,75,145.5
213,G4,55.5,0.188,75,145.5
214,F#3,56.0,0.188,75,145.5
215,F#4,56.0,0.188,75,145.5
216,D2,56.0,1.0,70,145.5
217,D3,56.0,1.0,70,145.5
218,A3,56.5,0.188,76,145.5
219,A4,56.5,0.188,76,145.5
220,D4,57.0,0.188,80,145.5
221,D5,57.0,0.188,80,145.5
222,F#1,57.0,1.0,65,145.5
223,F#2,57.0,1.0,65,145.5
224,C4,57.5,0.188,76,145.5
225,C5,57.5,0.188,76,145.5
226,B3,58.0,0.188,78,145.5
227,B4,58.0,0.188,78,145.5
228,G1,58.0,0.188,64,145.5
229,G2,58.0,0.188,64,145.5
230,G3,58.5,0.188,75,145.5
231,G4,58.5,0.188,75,145.5
232,A1,58.5,0.188,65,145.5
233,A2,58.5,0.188,65,145.5
234,F#3,59.0,0.188,75,145.5
235,F#4,59.0,0.188,75,145.5
236,B1,59.0,0.188,67,145.5
237,B2,59.0,0.188,67,145.5
238,E3,59.5,0.188,75,145.5
239,E4,59.5,0.188,75,145.5
240,C2,59.5,0.188,70,145.5
241,C3,59.5,0.188,70,145.5
242,C4,60.0,1.0,78,145.5
243,C5,60.0,1.0,78,145.5
244,D2,60.0,0.188,71,145.5
245,D3,60.0,0.188,71,145.5
246,F#2,60.5,0.188,70,145.5
247,F#3,60.5,0.188,70,145.5
248,B3,61.0,1.0,75,145.5
249,B4,61.0,1.0,75,145.5
250,G2,61.0,2.0,70,145.5
251,G3,61.0,2.0,70,145.5
252,A3,62.0,2.0,78,145.5
253,A4,62.0,2.0,78,145.5
254,F#2,63.0,1.0,70,145.5
255,F#3,63.0,1.0,70,145.5
256,B3,64.0,0.188,75,145.5
257,B4,64.0,0.188,75,145.5
258,F2,64.0,1.0,70,145.5
259,F3,64.0,1.0,70,145.5
260,G3,64.5,0.188,70,145.5
261,G4,64.5,0.188,70,145.5
262,C4,65.0,2.0,74,145.5
263,C5,65.0,2.0,74,145.5
264,E2,65.0,1.0,68,145.5
265,E3,65.0,1.0,68,145.5
266,D2,66.0,2.0,66,145.5
267,D3,66.0,2.0,66,145.5
268,B3,67.0,1.0,71,145.5
269,B4,67.0,1.0,71,145.5
270,C4,68.0,1.0,78,145.5
271,C5,68.0,1.0,78,145.5
272,C3,68.0,2.5,71,145.5
273,E3,68.0,2.5,71,145.5
274,C4,69.0,0.188,73,145.5
275,C5,69.0,0.188,73,145.5
276,C4,69.5,0.188,73,145.5
277,C5,69.5,0.188,73,145.5
278,C4,70.0,1.0,73,145.5
279,C5,70.0,1.0,73,145.5
280,E3,70.5,0.188,67,145.5
281,G3,70.5,0.188,67,145.5
282,C4,71.0,0.188,74,145.5
283,C5,71.0,0.188,74,145.5
284,F3,71.0,0.188,67,145.5
285,A3,71.0,0.188,67,145.5
286,C4,71.5,0.188,75,145.5
287,C5,71.5,0.188,75,145.5
288,G3,71.5,0.188,67,145.5
289,B-3,71.5,0.188,67,145.5
290,C#4,72.0,0.188,83,145.5
291,C#5,72.0,0.188,83,145.5
292,F3,72.0,0.188,71,145.5
293,A3,72.0,0.188,71,145.5
294,E3,72.5,0.188,68,145.5
295,G3,72.5,0.188,68,145.5
296,D4,73.0,1.5,82,145.5
297,D5,73.0,1.5,82,145.5
298,D3,73.0,0.188,68,145.5
299,F3,73.0,0.188,68,145.5
300,A2,73.5,0.188,68,145.5
301,E3,73.5,0.188,68,145.5
302,F2,74.0,1.5,73,145.5
303,D3,74.0,1.5,73,145.5
304,E4,74.5,0.188,74,145.5
305,E5,74.5,0.188,74,145.5
306,F4,75.0,0.188,73,145.5
307,F5,75.0,0.188,73,145.5
308,E4,75.5,0.188,74,145.5
309,E5,75.5,0.188,74,145.5
310,A2,75.5,0.188,70,145.5
311,C#3,75.5,0.188,70,145.5
312,D4,76.0,1.0,78,145.5
313,D5,76.0,1.0,78,145.5
314,B-2,76.0,2.5,71,145.5
315,D3,76.0,2.5,71,145.5
316,D4,77.0,0.188,78,145.5
317,D5,77.0,0.188,78,145.5
318,D4,77.5,0.188,74,145.5
319,D5,77.5,0.188,74,145.5
320,D4,78.0,1.0,74,145.5
321,D5,78.0,1.0,74,145.5
322,D3,78.5,0.188,67,145.5
323,B-3,78.5,0.188,67,145.5
324,D4,79.0,0.188,75,145.5
325,D5,79.0,0.188,75,145.5
326,B-3,79.0,0.188,67,145.5
327,D4,79.0,0.188,67,145.5
328,D4,79.5,0.188,75,145.5
329,D5,79.5,0.188,75,145.5
330,A3,79.5,0.188,67,145.5
331,C4,79.5,0.188,67,145.5
332,E-4,80.0,0.188,83,145.5
333,E-5,80.0,0.188,83,145.5
334,G3,80.0,0.188,71,145.5
335,B3,80.0,0.188,71,145.5
336,F#3,80.5,0.188,68,145.5
337,A3,80.5,0.188,68,145.5
338,E4,81.0,1.5,82,145.5
339,E5,81.0,1.5,82,145.5
340,E3,81.0,0.188,68,145.5
341,G3,81.0,0.188,68,145.5
342,B2,81.5,0.188,68,145.5
343,F#3,81.5,0.188,68,145.5
344,G2,82.0,1.5,73,145.5
345,E3,82.0,1.5,73,145.5
346,F#4,82.5,0.188,72,145.5
347,F#5,82.5,0.188,72,145.5
348,G4,83.0,0.188,65,145.5
349,G5,83.0,0.188,65,145.5
350,A4,83.5,0.188,66,145.5
351,A5,83.5,0.188,66,145.5
352,F2,83.5,0.188,62,145.5
353,D3,83.5,0.188,62,145.5
354,B-4,84.0,1.0,74,145.5
355,B-5,84.0,1.0,74,145.5
356,E2,84.0,0.188,63,145.5
357,C#3,84.0,0.188,63,145.5
358,G2,84.5,0.188,60,145.5
359,E3,84.5,0.188,60,145.5
360,B-4,85.0,0.188,66,145.5
361,B-5,85.0,0.188,66,145.5
362,E2,85.0,0.188,63,145.5
363,C#3,85.0,0.188,63,145.5
364,B-4,85.5,0.188,66,145.5
365,B-5,85.5,0.188,66,145.5
366,G2,85.5,0.188,58,145.5
367,E3,85.5,0.188,58,145.5
368,C#4,86.0,1.5,78,145.5
369,C#5,86.0,1.5,78,145.5
370,G3,86.0,0.188,66,145.5
371,B-3,86.0,0.188,66,145.5
372,G3,86.5,1.5,64,145.5
373,B-3,86.5,1.5,64,145.5
374,C#4,87.5,0.188,72,145.5
375,C#5,87.5,0.188,72,145.5
376,A4,88.0,1.0,74,145.5
377,A5,88.0,1.0,74,145.5
378,E-2,88.0,0.188,63,145.5
379,C3,88.0,0.188,63,145.5
380,F#2,88.5,0.188,60,145.5
381,E-3,88.5,0.188,60,145.5
382,A4,89.0,0.188,66,145.5
383,A5,89.0,0.188,66,145.5
384,E-2,89.0,0.188,63,145.5
385,C3,89.0,0.188,63,145.5
386,A4,89.5,0.188,67,145.5
387,A5,89.5,0.188,67,145.5
388,F#2,89.5,0.188,58,145.5
389,E-3,89.5,0.188,58,145.5
390,C4,90.0,1.5,78,145.5
391,C5,90.0,1.5,78,145.5
392,F#3,90.0,0.188,66,145.5
393,A3,90.0,0.188,66,145.5
394,F#3,90.5,1.5,64,145.5
395,A3,90.5,1.5,64,145.5
396,C4,91.5,0.188,67,145.5
397,C5,91.5,0.188,67,145.5
398,G3,92.0,1.0,71,145.5
399,B3,92.0,0.188,68,145.5
400,B4,92.0,0.188,68,145.5
401,D4,92.5,0.188,70,145.5
402,D5,92.5,0.188,70,145.5
403,G4,93.0,0.188,74,145.5
404,G5,93.0,0.188,74,145.5
405,B2,93.0,1.0,60,145.5
406,D3,93.0,1.0,60,145.5
407,F4,93.5,0.188,71,145.5
408,F5,93.5,0.188,71,145.5
409,E4,94.0,0.188,73,145.5
410,E5,94.0,0.188,73,145.5
411,C3,94.0,0.188,60,145.5
412,E3,94.0,0.188,60,145.5
413,C4,94.5,0.188,72,145.5
414,C5,94.5,0.188,72,145.5
415,D3,94.5,0.188,62,145.5
416,F3,94.5,0.188,62,145.5
417,B3,95.0,0.188,72,145.5
418,B4,95.0,0.188,72,145.5
419,E3,95.0,0.188,64,145.5
420,G3,95.0,0.188,64,145.5
421,A3,95.5,0.188,73,145.5
422,A4,95.5,0.188,73,145.5
423,F3,95.5,0.188,67,145.5
424,A3,95.5,0.188,67,145.5
425,D3,96.0,1.0,65,145.5
426,G3,96.0,0.188,77,145.5
427,F4,96.0,1.0,78,145.5
428,F5,96.0,1.0,78,145.5
429,B3,96.5,0.188,75,145.5
430,C3,97.0,0.188,77,145.5
431,C4,97.0,2.0,76,145.5
432,E4,97.0,1.0,75,145.5
433,E5,97.0,1.0,75,145.5
434,E3,97.5,0.188,75,145.5
435,G3,98.0,2.0,65,145.5
436,D4,98.0,2.0,78,145.5
437,D5,98.0,2.0,78,145.5
438,B3,99.0,1.0,75,145.5
439,E5,100.0,2.5,79,145.5
440,C5,100.0,2.5,79,145.5
441,C6,100.0,2.5,79,145.5
442,C2,100.0,1.0,88,145.5
443,C3,100.0,1.0,88,145.5
444,C2,101.0,0.188,84,145.5
445,C3,101.0,0.188,84,145.5
446,C2,101.5,0.188,84,145.5
447,C3,101.5,0.188,84,145.5
448,C2,102.0,1.0,84,145.5
449,C3,102.0,1.0,84,145.5
450,G4,102.5,0.188,75,145.5
451,E5,102.5,0.188,75,145.5
452,G5,102.5,0.188,75,145.5
453,A4,103.0,0.188,75,145.5
454,F5,103.0,0.188,75,145.5
455,A5,103.0,0.188,75,145.5
456,C2,103.0,0.188,85,145.5
457,C3,103.0,0.188,85,145.5
458,B-4,103.5,0.188,75,145.5
459,G5,103.5,0.188,75,145.5
460,B-5,103.5,0.188,75,145.5
461,C2,103.5,0.188,86,145.5
462,C3,103.5,0.188,86,145.5
463,A4,104.0,0.188,79,145.5
464,F5,104.0,0.188,79,145.5
465,A5,104.0,0.188,79,145.5
466,C#2,104.0,0.188,92,145.5
467,C#3,104.0,0.188,92,145.5
468,G4,104.5,0.188,74,145.5
469,E5,104.5,0.188,74,145.5
470,G5,104.5,0.188,74,145.5
471,F4,105.0,0.188,74,145.5
472,D5,105.0,0.188,74,145.5
473,F5,105.0,0.188,74,145.5
474,D2,105.0,1.5,90,145.5
475,D3,105.0,1.5,90,145.5
476,E4,105.5,0.188,74,145.5
477,A4,105.5,0.188,74,145.5
478,E5,105.5,0.188,74,145.5
479,D4,106.0,1.5,80,145.5
480,F4,106.0,1.5,80,145.5
481,D5,106.0,1.5,80,145.5
482,E2,106.5,0.188,85,145.5
483,E3,106.5,0.188,85,145.5
484,F2,107.0,0.188,84,145.5
485,F3,107.0,0.188,84,145.5
486,C#5,107.5,0.188,77,145.5
487,E5,107.5,0.188,77,145.5
488,C#6,107.5,0.188,77,145.5
489,E2,107.5,0.188,85,145.5
490,E3,107.5,0.188,85,145.5
491,D5,108.0,2.5,79,145.5
492,F5,108.0,2.5,79,145.5
493,D6,108.0,2.5,79,145.5
494,D2,108.0,1.0,88,145.5
495,D3,108.0,1.0,88,145.5
496,D2,109.0,0.188,88,145.5
497,D3,109.0,0.188,88,145.5
498,D2,109.5,0.188,85,145.5
499,D3,109.5,0.188,85,145.5
500,D2,110.0,1.0,85,145.5
501,D3,110.0,1.0,85,145.5
502,A4,110.5,0.188,75,145.5
503,F5,110.5,0.188,75,145.5
504,A5,110.5,0.188,75,145.5
505,G5,111.0,0.188,75,145.5
506,B4,111.0,0.188,75,145.5
507,B5,111.0,0.188,75,145.5
508,D2,111.0,0.188,86,145.5
509,D3,111.0,0.188,86,145.5
510,C5,111.5,0.188,75,145.5
511,A5,111.5,0.188,75,145.5
512,C6,111.5,0.188,75,145.5
513,D2,111.5,0.188,86,145.5
514,D3,111.5,0.188,86,145.5
515,B4,112.0,0.188,79,145.5
516,G5,112.0,0.188,79,145.5
517,B5,112.0,0.188,79,145.5
518,E-2,112.0,0.188,92,145.5
519,E-3,112.0,0.188,92,145.5
520,A4,112.5,0.188,74,145.5
521,F#5,112.5,0.188,74,145.5
522,A5,112.5,0.188,74,145.5
523,G4,113.0,0.188,74,145.5
524,E5,113.0,0.188,74,145.5
525,G5,113.0,0.188,74,145.5
526,E2,113.0,1.5,90,145.5
527,E3,113.0,1.5,90,145.5
528,F#4,113.5,0.188,74,145.5
529,B4,113.5,0.188,74,145.5
530,F#5,113.5,0.188,74,145.5
531,E4,114.0,1.5,80,145.5
532,G4,114.0,1.5,80,145.5
533,E5,114.0,1.5,80,145.5
534,F#2,114.5,0.188,92,145.5
535,F#3,114.5,0.188,92,145.5
536,G2,115.0,0.188,84,145.5
537,G3,115.0,0.188,84,145.5
538,D4,115.5,0.188,77,145.5
539,F4,115.5,0.188,77,145.5
540,D5,115.5,0.188,77,145.5
541,A2,115.5,0.188,85,145.5
542,A3,115.5,0.188,85,145.5
543,C#4,116.0,0.188,79,145.5
544,E4,116.0,0.188,79,145.5
545,C#5,116.0,0.188,79,145.5
546,B-2,116.0,1.0,95,145.5
547,B-3,116.0,1.0,95,145.5
548,E4,116.5,0.188,73,145.5
549,G4,116.5,0.188,73,145.5
550,E5,116.5,0.188,73,145.5
551,C#4,117.0,0.188,79,145.5
552,E4,117.0,0.188,79,145.5
553,C#5,117.0,0.188,79,145.5
554,B-2,117.0,0.188,85,145.5
555,B-3,117.0,0.188,85,145.5
556,E4,117.5,0.188,71,145.5
557,G4,117.5,0.188,71,145.5
558,E5,117.5,0.188,71,145.5
559,B-2,117.5,0.188,85,145.5
560,B-3,117.5,0.188,85,145.5
561,B-4,118.0,0.188,79,145.5
562,G5,118.0,0.188,79,145.5
563,B-5,118.0,0.188,79,145.5
564,C#2,118.0,1.5,92,145.5
565,C#3,118.0,1.5,92,145.5
566,B-4,118.5,1.5,77,145.5
567,G5,118.5,1.5,77,145.5
568,B-5,118.5,1.5,77,145.5
569,C#2,119.5,0.188,87,145.5
570,C#3,119.5,0.188,87,145.5
571,C4,120.0,0.188,77,145.5
572,E-4,120.0,0.188,77,145.5
573,C5,120.0,0.188,77,145.5
574,A2,120.0,1.0,92,145.5
575,A3,120.0,1.0,92,145.5
576,E-4,120.5,0.188,71,145.5
577,F#4,120.5,0.188,71,145.5
578,E-5,120.5,0.188,71,145.5
579,C4,121.0,0.188,77,145.5
580,E-4,121.0,0.188,77,145.5
581,C5,121.0,0.188,77,145.5
582,A2,121.0,0.188,83,145.5
583,A3,121.0,0.188,83,145.5
584,E-4,121.5,0.188,69,145.5
585,F#4,121.5,0.188,69,145.5
586,E-5,121.5,0.188,69,145.5
587,A2,121.5,0.188,84,145.5
588,A3,121.5,0.188,84,145.5
589,A4,122.0,0.188,77,145.5
590,F#5,122.0,0.188,77,145.5
591,A5,122.0,0.188,77,145.5
592,C2,122.0,1.5,90,145.5
593,C3,122.0,1.5,90,145.5
594,A4,122.5,1.5,75,145.5
595,F#5,122.5,1.5,75,145.5
596,A5,122.5,1.5,75,145.5
597,C2,123.5,0.188,84,145.5
598,C3,123.5,0.188,84,145.5
599,G4,124.0,1.0,87,145.5
600,G5,124.0,1.0,87,145.5
601,B1,124.0,0.188,86,145.5
602,B2,124.0,0.188,86,145.5
603,D2,124.5,0.188,87,145.5
604,D3,124.5,0.188,87,145.5
605,D4,125.0,1.0,72,145.5
606,B4,125.0,1.0,72,145.5
607,D5,125.0,1.0,72,145.5
608,G2,125.0,0.188,92,145.5
609,G3,125.0,0.188,92,145.5
610,F2,125.5,0.188,87,145.5
611,F3,125.5,0.188,87,145.5
612,E4,126.0,0.188,71,145.5
613,C5,126.0,0.188,71,145.5
614,E5,126.0,0.188,71,145.5
615,E2,126.0,0.188,88,145.5
616,E3,126.0,0.188,88,145.5
617,F4,126.5,0.188,72,145.5
618,D5,126.5,0.188,72,145.5
619,F5,126.5,0.188,72,145.5
620,C2,126.5,0.188,86,145.5
621,C3,126.5,0.188,86,145.5
622,G4,127.0,0.188,75,145.5
623,E5,127.0,0.188,75,145.5
624,G5,127.0,0.188,75,145.5
625,B1,127.0,0.188,86,145.5
626,B2,127.0,0.188,86,145.5
627,A4,127.5,0.188,77,145.5
628,F5,127.5,0.188,77,145.5
629,A5,127.5,0.188,77,145.5
630,A1,127.5,0.188,86,145.5
631,A2,127.5,0.188,86,145.5
632,B4,128.0,1.0,79,145.5
633,D5,128.0,1.0,79,145.5
634,G5,128.0,1.0,79,145.5
635,F2,128.0,1.0,88,145.5
636,F3,128.0,1.0,88,145.5
637,C5,129.0,1.0,79,145.5
638,G5,129.0,1.0,79,145.5
639,C6,129.0,1.0,79,145.5
640,E2,129.0,1.0,86,145.5
641,E3,129.0,1.0,86,145.5
642,B5,130.0,1.0,82,145.5
643,F5,130.0,2.0,90,145.5
644,F6,130.0,2.0,90,145.5
645,D2,130.0,2.0,88,145.5
646,D3,130.0,2.0,88,145.5
647,B5,131.0,1.0,94,145.5
648,C#3,132.0,1.0,88,145.5
649,C#4,132.0,1.0,88,145.5
650,G4,132.25,0.25,74,145.5
651,B-4,132.5,0.25,75,145.5
652,C#5,132.75,0.25,75,145.5
653,E5,133.0,73/250,76,145.5
654,C#3,133.0,0.25,84,145.5
655,C#4,133.0,0.25,84,145.5
656,G5,133.25,73/250,77,145.5
657,B-5,133.5,73/250,78,145.5
658,C#3,133.5,0.25,81,145.5
659,C#4,133.5,0.25,81,145.5
660,C#6,133.75,73/250,79,145.5
661,G6,134.0,0.25,79,145.5
662,E2,134.0,2.0,84,145.5
663,E3,134.0,2.0,84,145.5
664,E6,134.25,0.25,78,145.5
665,C#6,134.5,0.25,77,145.5
666,B-5,134.75,0.25,76,145.5
667,G5,135.0,0.25,75,145.5
668,E5,135.25,0.25,74,145.5
669,C#5,135.5,0.25,73,145.5
670,B-4,135.75,0.25,72,145.5
671,D4,136.0,1.0,88,145.5
672,D3,136.0,1.0,88,145.5
673,G4,136.25,0.25,74,145.5
674,B4,136.5,0.25,75,145.5
675,F5,136.75,0.25,75,145.5
676,G5,137.0,73/250,76,145.5
677,D3,137.0,0.25,84,145.5
678,D4,137.0,0.25,84,145.5
679,B5,137.25,73/250,77,145.5
680,F6,137.5,73/250,78,145.5
681,D3,137.5,0.25,81,145.5
682,D4,137.5,0.25,81,145.5
683,B5,137.75,73/250,79,145.5
684,G6,138.0,0.25,79,145.5
685,F2,138.0,2.0,84,145.5
686,F3,138.0,2.0,84,145.5
687,D6,138.25,0.25,78,145.5
688,B5,138.5,0.25,77,145.5
689,G5,138.75,0.25,76,145.5
690,D5,139.0,0.25,75,145.5
691,B4,139.25,0.25,74,145.5
692,G4,139.5,0.25,73,145.5
693,B4,139.75,0.25,72,145.5
694,C#3,140.0,1.0,88,145.5
695,C#4,140.0,1.0,88,145.5
696,G4,140.25,0.25,74,145.5
697,B-4,140.5,0.25,75,145.5
698,C#5,140.75,0.25,75,145.5
699,E5,141.0,73/250,76,145.5
700,C#3,141.0,0.25,84,145.5
701,C#4,141.0,0.25,84,145.5
702,G5,141.25,73/250,77,145.5
703,B-5,141.5,73/250,78,145.5
704,C#3,141.5,0.25,81,145.5
705,C#4,141.5,0.25,81,145.5
706,C#6,141.75,73/250,79,145.5
707,G6,142.0,0.25,79,145.5
708,E2,142.0,2.0,84,145.5
709,E3,142.0,2.0,84,145.5
710,E6,142.25,0.25,78,145.5
711,C#6,142.5,0.25,77,145.5
712,B-5,142.75,0.25,76,145.5
713,G5,143.0,0.25,75,145.5
714,E5,143.25,0.25,74,145.5
715,C#5,143.5,0.25,73,145.5
716,B-4,143.75,0.25,72,145.5
717,D4,144.0,1.0,88,145.5
718,D3,144.0,1.0,88,145.5
719,G4,144.25,0.25,74,145.5
720,B4,144.5,0.25,75,145.5
721,F5,144.75,0.25,75,145.5
722,G5,145.0,73/250,76,145.5
723,D3,145.0,0.188,84,145.5
724,D4,145.0,0.188,84,145.5
725,B5,145.25,73/250,77,145.5
726,F6,145.5,73/250,78,145.5
727,D3,145.5,0.188,81,145.5
728,D4,145.5,0.188,81,145.5
729,B5,145.75,73/250,79,145.5
730,G6,146.0,0.25,79,145.5
731,F2,146.0,2.0,84,145.5
732,F3,146.0,2.0,84,145.5
733,D6,146.25,0.25,78,145.5
734,B5,146.5,0.25,77,145.5
735,G5,146.75,0.25,76,145.5
736,D5,147.0,0.25,75,145.5
737,B4,147.25,0.25,74,145.5
738,G4,147.5,0.25,73,145.5
739,B4,147.75,0.25,72,145.5
740,C#5,148.0,73/250,71,145.5
741,E2,148.0,1.0,64,145.5
742,E3,148.0,1.0,64,145.5
743,G5,148.25,73/250,65,145.5
744,B-5,148.5,73/250,65,145.5
745,C#6,148.75,73/250,65,145.5
746,D5,149.0,73/250,74,145.5
747,D2,149.0,1.0,68,145.5
748,D3,149.0,1.0,68,145.5
749,G5,149.25,73/250,70,145.5
750,B5,149.5,73/250,70,145.5
751,D6,149.75,73/250,70,145.5
752,E5,150.0,73/250,79,145.5
753,C#2,150.0,1.0,72,145.5
754,C#3,150.0,1.0,72,145.5
755,G5,150.25,73/250,72,145.5
756,B-5,150.5,73/250,72,145.5
757,E6,150.75,73/250,72,145.5
758,F#5,151.0,73/250,83,145.5
759,D2,151.0,1.0,77,145.5
760,D3,151.0,1.0,77,145.5
761,A5,151.25,73/250,73,145.5
762,C6,151.5,73/250,73,145.5
763,F#6,151.75,0.25,73,145.5
764,F#6,152.0,21/500,73,145.5
765,B3,152.0,1.0,81,145.5
766,G3,152.0,1.0,81,145.5
767,G4,152.25,0.25,74,145.5
768,B4,152.5,0.25,75,145.5
769,E5,152.75,0.25,75,145.5
770,G5,153.0,0.25,76,145.5
771,G3,153.0,0.5,81,145.5
772,B3,153.0,0.5,81,145.5
773,B5,153.25,0.25,77,145.5
774,E6,153.5,0.25,78,145.5
775,G3,153.5,0.5,78,145.5
776,B3,153.5,0.5,78,145.5
777,G6,153.75,0.25,79,145.5
778,B6,154.0,0.25,79,145.5
779,G2,154.0,2.0,81,145.5
780,E3,154.0,2.0,81,145.5
781,G6,154.25,0.25,78,145.5
782,E6,154.5,0.25,77,145.5
783,B5,154.75,0.25,76,145.5
784,G5,155.0,0.25,75,145.5
785,E5,155.25,0.25,74,145.5
786,B4,155.5,0.25,73,145.5
787,G4,155.75,0.25,72,145.5
788,B3,156.0,1.0,81,145.5
789,G3,156.0,1.0,81,145.5
790,G4,156.25,0.25,74,145.5
791,B4,156.5,0.25,75,145.5
792,E-5,156.75,0.25,75,145.5
793,G5,157.0,0.25,76,145.5
794,G3,157.0,0.5,81,145.5
795,B3,157.0,0.5,81,145.5
796,B5,157.25,0.25,77,145.5
797,E-6,157.5,0.25,78,145.5
798,G3,157.5,0.5,78,145.5
799,B3,157.5,0.5,78,145.5
800,G6,157.75,0.25,79,145.5
801,B6,158.0,0.25,79,145.5
802,G2,158.0,2.0,81,145.5
803,E-3,158.0,2.0,81,145.5
804,G6,158.25,0.25,78,145.5
805,E-6,158.5,0.25,77,145.5
806,B5,158.75,0.25,76,145.5
807,G5,159.0,0.25,75,145.5
808,E-5,159.25,0.25,74,145.5
809,B4,159.5,0.25,73,145.5
810,G4,159.75,0.25,72,145.5
811,B3,160.0,1.0,81,145.5
812,G3,160.0,1.0,81,145.5
813,G4,160.25,0.25,74,145.5
814,B4,160.5,0.25,75,145.5
815,E5,160.75,0.25,75,145.5
816,G5,161.0,0.25,76,145.5
817,G3,161.0,0.5,81,145.5
818,B3,161.0,0.5,81,145.5
819,B5,161.25,0.25,77,145.5
820,E6,161.5,0.25,78,145.5
821,G3,161.5,0.5,78,145.5
822,B3,161.5,0.5,78,145.5
823,G6,161.75,0.25,79,145.5
824,B6,162.0,0.25,79,145.5
825,G2,162.0,2.0,81,145.5
826,E3,162.0,2.0,81,145.5
827,G6,162.25,0.25,78,145.5
828,E6,162.5,0.25,77,145.5
829,B5,162.75,0.25,76,145.5
830,G5,163.0,0.25,75,145.5
831,E5,163.25,0.25,74,145.5
832,B4,163.5,0.25,73,145.5
833,G4,163.75,0.25,72,145.5
834,B3,164.0,1.0,84,145.5
835,G3,164.0,1.0,84,145.5
836,G4,164.25,0.25,77,145.5
837,B4,164.5,0.25,78,145.5
838,D5,164.75,0.25,78,145.5
839,F5,165.0,0.25,79,145.5
840,G3,165.0,0.5,84,145.5
841,B3,165.0,0.5,84,145.5
842,B5,165.25,0.25,80,145.5
843,D6,165.5,0.25,81,145.5
844,G3,165.5,0.5,81,145.5
845,B3,165.5,0.5,81,145.5
846,F6,165.75,0.25,82,145.5
847,B6,166.0,0.25,82,145.5
848,G2,166.0,2.0,84,145.5
849,F3,166.0,2.0,84,145.5
850,F6,166.25,0.25,81,145.5
851,D6,166.5,0.25,80,145.5
852,B5,166.75,0.25,79,145.5
853,F5,167.0,0.25,78,145.5
854,D5,167.25,0.25,77,145.5
855,B4,167.5,0.25,76,145.5
856,F4,167.75,0.25,75,145.5
857,F5,168.0,0.25,80,145.5
858,G2,168.0,1.0,78,145.5
859,G3,168.0,1.0,78,145.5
860,B5,168.25,0.25,73,145.5
861,D6,168.5,0.25,73,145.5
862,F6,168.75,0.25,73,145.5
863,F#5,169.0,0.25,78,145.5
864,F#2,169.0,1.0,70,145.5
865,F#3,169.0,1.0,70,145.5
866,B5,169.25,0.25,74,145.5
867,D6,169.5,0.25,74,145.5
868,F#6,169.75,0.25,75,145.5
869,G#5,170.0,0.25,85,145.5
870,F2,170.0,1.0,84,145.5
871,F3,170.0,1.0,84,145.5
872,B5,170.25,0.25,78,145.5
873,D6,170.5,0.25,79,145.5
874,G#6,170.75,0.25,79,145.5
875,B-5,171.0,0.25,91,145.5
876,F#2,171.0,1.0,79,145.5
877,F#3,171.0,1.0,79,145.5
878,C#6,171.25,0.25,81,145.5
879,E6,171.5,0.25,81,145.5
880,B-6,171.75,0.25,81,145.5
881,B2,172.0,0.25,78,145.5
882,D5,172.0,1.0,81,145.5
883,F#5,172.0,1.0,81,145.5
884,B5,172.0,1.0,81,145.5
885,D6,172.0,1.0,81,145.5
886,B3,172.25,0.25,68,145.5
887,D4,172.5,0.25,69,145.5
888,B3,172.75,0.25,69,145.5
889,F#3,173.0,0.25,79,145.5
890,D5,173.0,0.5,81,145.5
891,F#5,173.0,0.5,81,145.5
892,B5,173.0,0.5,81,145.5
893,D6,173.0,0.5,81,145.5
894,B3,173.25,0.25,71,145.5
895,D3,173.5,0.25,75,145.5
896,D5,173.5,0.5,78,145.5
897,F#5,173.5,0.5,78,145.5
898,B5,173.5,0.5,78,145.5
899,D6,173.5,0.5,78,145.5
900,F#3,173.75,0.25,71,145.5
901,F#2,174.0,0.25,78,145.5
902,F#5,174.0,2.0,81,145.5
903,B-5,174.0,2.0,81,145.5
904,C#6,174.0,2.0,81,145.5
905,F#6,174.0,2.0,81,145.5
906,F#3,174.25,0.25,68,145.5
907,B-3,174.5,0.25,73,145.5
908,F#3,174.75,0.25,67,145.5
909,C#3,175.0,0.25,74,145.5
910,F#3,175.25,0.25,65,145.5
911,B-2,175.5,0.25,71,145.5
912,C#3,175.75,0.25,65,145.5
913,A2,176.0,0.25,78,145.5
914,C#5,176.0,1.0,81,145.5
915,E5,176.0,1.0,81,145.5
916,A5,176.0,1.0,81,145.5
917,C#6,176.0,1.0,81,145.5
918,A3,176.25,0.25,68,145.5
919,C#4,176.5,0.25,69,145.5
920,A3,176.75,0.25,69,145.5
921,E3,177.0,0.25,79,145.5
922,C#5,177.0,0.5,81,145.5
923,E5,177.0,0.5,81,145.5
924,A5,177.0,0.5,81,145.5
925,C#6,177.0,0.5,81,145.5
926,A3,177.25,0.25,71,145.5
927,C#3,177.5,0.25,75,145.5
928,C#5,177.5,0.5,78,145.5
929,E5,177.5,0.5,78,145.5
930,A5,177.5,0.5,78,145.5
931,C#6,177.5,0.5,78,145.5
932,E3,177.75,0.25,71,145.5
933,E2,178.0,0.25,78,145.5
934,E5,178.0,2.0,81,145.5
935,G#5,178.0,2.0,81,145.5
936,B5,178.0,2.0,81,145.5
937,E6,178.0,2.0,81,145.5
938,E3,178.25,0.25,68,145.5
939,G#3,178.5,0.25,73,145.5
940,E3,178.75,0.25,67,145.5
941,B2,179.0,0.25,74,145.5
942,E3,179.25,0.25,65,145.5
943,G#2,179.5,0.25,71,145.5
944,B2,179.75,0.25,65,145.5
945,G2,180.0,0.25,71,145.5
946,B4,180.0,1.0,73,145.5
947,D5,180.0,1.0,73,145.5
948,G5,180.0,1.0,73,145.5
949,B5,180.0,1.0,73,145.5
950,G3,180.25,0.25,61,145.5
951,B3,180.5,0.25,62,145.5
952,G3,180.75,0.25,62,145.5
953,D3,181.0,0.25,71,145.5
954,B4,181.0,0.5,72,145.5
955,D5,181.0,0.5,72,145.5
956,G5,181.0,0.5,72,145.5
957,B5,181.0,0.5,72,145.5
958,G3,181.25,0.25,63,145.5
959,B2,181.5,0.25,66,145.5
960,B4,181.5,0.5,69,145.5
961,D5,181.5,0.5,69,145.5
962,G5,181.5,0.5,69,145.5
963,B5,181.5,0.5,69,145.5
964,D3,181.75,0.25,62,145.5
965,D2,182.0,0.25,69,145.5
966,D5,182.0,1.0,71,145.5
967,F#5,182.0,1.0,71,145.5
968,A5,182.0,1.0,71,145.5
969,D6,182.0,1.0,71,145.5
970,D3,182.25,0.25,59,145.5
971,F#3,182.5,0.25,58,145.5
972,A3,182.75,0.25,57,145.5
973,G2,183.0,0.25,63,145.5
974,B4,183.0,1.0,66,145.5
975,D5,183.0,1.0,66,145.5
976,G5,183.0,1.0,66,145.5
977,B5,183.0,1.0,66,145.5
978,B2,183.25,0.25,55,145.5
979,G3,183.5,0.25,55,145.5
980,B3,183.75,0.25,54,145.5
981,D2,184.0,0.25,66,145.5
982,A4,184.0,1.0,68,145.5
983,D5,184.0,1.0,68,145.5
984,G5,184.0,1.0,68,145.5
985,A5,184.0,1.0,68,145.5
986,D3,184.25,0.25,57,145.5
987,G3,184.5,0.25,57,145.5
988,A3,184.75,0.25,57,145.5
989,D2,185.0,0.25,65,145.5
990,A4,185.0,1.0,66,145.5
991,D5,185.0,1.0,66,145.5
992,F#5,185.0,1.0,66,145.5
993,A5,185.0,1.0,66,145.5
994,D3,185.25,0.25,58,145.5
995,F#3,185.5,0.25,61,145.5
996,A3,185.75,0.25,57,145.5
997,G1,186.0,0.25,63,145.5
998,B4,186.0,2.0,65,145.5
999,D5,186.0,2.0,65,145.5
1000,G5,186.0,2.0,65,145.5
1001,B5,186.0,2.0,65,145.5
1002,G2,186.25,0.25,54,145.5
1003,B2,186.5,0.25,53,145.5
1004,D3,186.75,0.25,53,145.5
1005,G3,187.0,0.25,58,145.5
1006,D3,187.25,0.25,50,145.5
1007,B2,187.5,0.25,50,145.5
1008,G2,187.75,0.25,50,145.5
1009,G1,188.0,0.25,63,145.5
1010,B4,188.0,1.0,65,145.5
1011,D5,188.0,1.0,65,145.5
1012,G5,188.0,1.0,65,145.5
1013,B5,188.0,1.0,65,145.5
1014,G3,188.25,0.25,55,145.5
1015,B3,188.5,0.25,56,145.5
1016,G3,188.75,0.25,56,145.5
1017,D3,189.0,0.25,64,145.5
1018,B4,189.0,0.5,65,145.5
1019,D5,189.0,0.5,65,145.5
1020,G5,189.0,0.5,65,145.5
1021,B5,189.0,0.5,65,145.5
1022,G3,189.25,0.25,57,145.5
1023,B2,189.5,0.25,61,145.5
1024,B4,189.5,0.5,63,145.5
1025,D5,189.5,0.5,63,145.5
1026,G5,189.5,0.5,63,145.5
1027,B5,189.5,0.5,63,145.5
1028,D3,189.75,0.25,57,145.5
1029,D2,190.0,0.25,63,145.5
1030,D5,190.0,2.0,65,145.5
1031,F#5,190.0,2.0,65,145.5
1032,A5,190.0,2.0,65,145.5
1033,D6,190.0,2.0,65,145.5
1034,D3,190.25,0.25,55,145.5
1035,F#3,190.5,0.25,59,145.5
1036,D3,190.75,0.25,54,145.5
1037,A2,191.0,0.25,60,145.5
1038,D3,191.25,0.25,52,145.5
1039,F#2,191.5,0.25,57,145.5
1040,A2,191.75,0.25,52,145.5
1041,F2,192.0,0.25,63,145.5
1042,A4,192.0,1.0,65,145.5
1043,C5,192.0,1.0,65,145.5
1044,F5,192.0,1.0,65,145.5
1045,A5,192.0,1.0,65,145.5
1046,F3,192.25,0.25,55,145.5
1047,A3,192.5,0.25,56,145.5
1048,F3,192.75,0.25,56,145.5
1049,C3,193.0,0.25,64,145.5
1050,A4,193.0,0.5,65,145.5
1051,C5,193.0,0.5,65,145.5
1052,F5,193.0,0.5,65,145.5
1053,A5,193.0,0.5,65,145.5
1054,F3,193.25,0.25,57,145.5
1055,A2,193.5,0.25,61,145.5
1056,A4,193.5,0.5,63,145.5
1057,C5,193.5,0.5,63,145.5
1058,F5,193.5,0.5,63,145.5
1059,A5,193.5,0.5,63,145.5
1060,C3,193.75,0.25,57,145.5
1061,C2,194.0,0.25,63,145.5
1062,C5,194.0,2.0,65,145.5
1063,E5,194.0,2.0,65,145.5
1064,G5,194.0,2.0,65,145.5
1065,C6,194.0,2.0,65,145.5
1066,C3,194.25,0.25,55,145.5
1067,E3,194.5,0.25,59,145.5
1068,C3,194.75,0.25,54,145.5
1069,G2,195.0,0.25,60,145.5
1070,C3,195.25,0.25,52,145.5
1071,E2,195.5,0.25,57,145.5
1072,G2,195.75,0.25,52,145.5
1073,E2,196.0,0.25,60,145.5
1074,G4,196.0,1.0,62,145.5
1075,B4,196.0,1.0,62,145.5
1076,E5,196.0,1.0,62,145.5
1077,G5,196.0,1.0,62,145.5
1078,E3,196.25,0.25,51,145.5
1079,G3,196.5,0.25,52,145.5
1080,E3,196.75,0.25,52,145.5
1081,B2,197.0,0.25,60,145.5
1082,G4,197.0,0.5,61,145.5
1083,B4,197.0,0.5,61,145.5
1084,E5,197.0,0.5,61,145.5
1085,G5,197.0,0.5,61,145.5
1086,E3,197.25,0.25,53,145.5
1087,G2,197.5,0.25,56,145.5
1088,G4,197.5,0.5,58,145.5
1089,B4,197.5,0.5,58,145.5
1090,E5,197.5,0.5,58,145.5
1091,G5,197.5,0.5,58,145.5
1092,B2,197.75,0.25,52,145.5
1093,B1,198.0,0.25,58,145.5
1094,B4,198.0,1.0,60,145.5
1095,E-5,198.0,1.0,60,145.5
1096,F#5,198.0,1.0,60,145.5
1097,B5,198.0,1.0,60,145.5
1098,B2,198.25,0.25,50,145.5
1099,E-3,198.5,0.25,49,145.5
1100,F#3,198.75,0.25,48,145.5
1101,E2,199.0,0.25,53,145.5
1102,G4,199.0,1.0,56,145.5
1103,B4,199.0,1.0,56,145.5
1104,E5,199.0,1.0,56,145.5
1105,G5,199.0,1.0,56,145.5
1106,B2,199.25,0.25,46,145.5
1107,E3,199.5,0.25,46,145.5
1108,G3,199.75,0.25,45,145.5
1109,B1,200.0,0.25,56,145.5
1110,F#4,200.0,1.0,58,145.5
1111,B4,200.0,1.0,58,145.5
1112,E5,200.0,1.0,58,145.5
1113,F#5,200.0,1.0,58,145.5
1114,B2,200.25,0.25,48,145.5
1115,E3,200.5,0.25,48,145.5
1116,F#3,200.75,0.25,48,145.5
1117,B1,201.0,0.25,55,145.5
1118,F#4,201.0,1.0,56,145.5
1119,B4,201.0,1.0,56,145.5
1120,E-5,201.0,1.0,56,145.5
1121,F#5,201.0,1.0,56,145.5
1122,B2,201.25,0.25,49,145.5
1123,E-3,201.5,0.25,51,145.5
1124,F#3,201.75,0.25,48,145.5
1125,E2,202.0,0.25,53,145.5
1126,G4,202.0,2.0,54,145.5
1127,B4,202.0,2.0,54,145.5
1128,E5,202.0,2.0,54,145.5
1129,G5,202.0,2.0,54,145.5
1130,E3,202.25,0.25,45,145.5
1131,G3,202.5,0.25,45,145.5
1132,B3,202.75,0.25,45,145.5
1133,E4,203.0,0.25,49,145.5
1134,B3,203.25,0.25,42,145.5
1135,G3,203.5,0.25,42,145.5
1136,E3,203.75,0.25,42,145.5
1137,G#4,204.0,0.188,59,145.5
1138,G#5,204.0,0.188,59,145.5
1139,C4,204.0,0.188,54,145.5
1140,E4,204.0,0.188,54,145.5
1141,B3,204.5,0.188,52,145.5
1142,D4,204.5,0.188,52,145.5
1143,A4,205.0,1.5,62,145.5
1144,A5,205.0,1.5,62,145.5
1145,A3,205.0,0.188,52,145.5
1146,C4,205.0,0.188,52,145.5
1147,E3,205.5,0.188,52,145.5
1148,B3,205.5,0.188,52,145.5
1149,C3,206.0,1.5,56,145.5
1150,A3,206.0,1.5,56,145.5
1151,B4,206.5,0.188,56,145.5
1152,B5,206.5,0.188,56,145.5
1153,C5,207.0,0.188,56,145.5
1154,C6,207.0,0.188,56,145.5
1155,B4,207.5,0.188,56,145.5
1156,B5,207.5,0.188,56,145.5
1157,G3,207.5,0.188,52,145.5
1158,F4,207.5,0.188,52,145.5
1159,B-4,208.0,0.188,59,145.5
1160,B-5,208.0,0.188,59,145.5
1161,F#3,208.0,0.188,54,145.5
1162,F#4,208.0,0.188,54,145.5
1163,C#4,208.5,0.188,52,145.5
1164,E4,208.5,0.188,52,145.5
1165,B4,209.0,1.5,62,145.5
1166,B5,209.0,1.5,62,145.5
1167,B3,209.0,0.188,52,145.5
1168,D4,209.0,0.188,52,145.5
1169,F#3,209.5,0.188,52,145.5
1170,C#4,209.5,0.188,52,145.5
1171,D3,210.0,1.5,56,145.5
1172,B3,210.0,1.5,56,145.5
1173,C#5,210.5,0.188,61,145.5
1174,C#6,210.5,0.188,61,145.5
1175,D5,211.0,0.188,56,145.5
1176,D6,211.0,0.188,56,145.5
1177,E5,211.5,0.188,56,145.5
1178,E6,211.5,0.188,56,145.5
1179,C3,211.5,0.188,52,145.5
1180,A3,211.5,0.188,52,145.5
1181,F5,212.0,1.0,59,145.5
1182,F6,212.0,1.0,59,145.5
1183,B2,212.0,0.188,54,145.5
1184,G#3,212.0,0.188,54,145.5
1185,D3,212.5,0.188,50,145.5
1186,B3,212.5,0.188,50,145.5
1187,F5,213.0,0.188,56,145.5
1188,F6,213.0,0.188,56,145.5
1189,B2,213.0,0.188,54,145.5
1190,G#3,213.0,0.188,54,145.5
1191,F5,213.5,0.188,56,145.5
1192,F6,213.5,0.188,56,145.5
1193,D3,213.5,0.188,48,145.5
1194,B3,213.5,0.188,48,145.5
1195,G#4,214.0,0.188,70,145.5
1196,G#5,214.0,0.188,70,145.5
1197,D4,214.0,0.188,64,145.5
1198,F4,214.0,0.188,64,145.5
1199,B4,214.5,0.188,62,145.5
1200,B5,214.5,0.188,62,145.5
1201,D4,214.5,1.5,62,145.5
1202,F4,214.5,1.5,62,145.5
1203,G#4,215.0,0.188,62,145.5
1204,G#5,215.0,0.188,62,145.5
1205,B4,215.5,0.188,62,145.5
1206,B5,215.5,0.188,62,145.5
1207,E5,216.0,1.0,59,145.5
1208,E6,216.0,1.0,59,145.5
1209,B-2,216.0,0.188,54,145.5
1210,G3,216.0,0.188,54,145.5
1211,C#3,216.5,0.188,50,145.5
1212,B-3,216.5,0.188,50,145.5
1213,E5,217.0,0.188,56,145.5
1214,E6,217.0,0.188,56,145.5
1215,B-2,217.0,0.188,54,145.5
1216,G3,217.0,0.188,54,145.5
1217,E5,217.5,0.188,57,145.5
1218,E6,217.5,0.188,57,145.5
1219,C#3,217.5,0.188,48,145.5
1220,B-3,217.5,0.188,48,145.5
1221,G4,218.0,0.188,67,145.5
1222,G5,218.0,0.188,67,145.5
1223,C#4,218.0,0.188,64,145.5
1224,E4,218.0,0.188,64,145.5
1225,B-4,218.5,0.188,62,145.5
1226,B-5,218.5,0.188,62,145.5
1227,C#4,218.5,1.5,62,145.5
1228,E4,218.5,1.5,62,145.5
1229,G4,219.0,0.188,62,145.5
1230,G5,219.0,0.188,62,145.5
1231,B-4,219.5,0.188,62,145.5
1232,B-5,219.5,0.188,62,145.5
1233,E-5,220.0,1.0,59,145.5
1234,E-6,220.0,1.0,59,145.5
1235,A2,220.0,0.188,54,145.5
1236,F#3,220.0,0.188,54,145.5
1237,C3,220.5,0.188,50,145.5
1238,A3,220.5,0.188,50,145.5
1239,F#4,221.0,0.188,56,145.5
1240,F#5,221.0,0.188,56,145.5
1241,C4,221.0,1.0,56,145.5
1242,E-4,221.0,1.0,56,145.5
1243,A4,221.5,0.188,57,145.5
1244,A5,221.5,0.188,57,145.5
1245,D5,222.0,1.0,59,145.5
1246,D6,222.0,1.0,59,145.5
1247,G#2,222.0,0.188,54,145.5
1248,F3,222.0,0.188,54,145.5
1249,B2,222.5,0.188,50,145.5
1250,G#3,222.5,0.188,50,145.5
1251,F4,223.0,0.188,56,145.5
1252,F5,223.0,0.188,56,145.5
1253,B3,223.0,1.0,56,145.5
1254,D4,223.0,1.0,56,145.5
1255,G#4,223.5,0.188,57,145.5
1256,G#5,223.5,0.188,57,145.5
1257,C#5,224.0,1.0,56,145.5
1258,C#6,224.0,1.0,56,145.5
1259,G2,224.0,0.188,51,145.5
1260,E3,224.0,0.188,51,145.5
1261,B-2,224.5,0.188,47,145.5
1262,G3,224.5,0.188,47,145.5
1263,E4,225.0,0.188,52,145.5
1264,E5,225.0,0.188,52,145.5
1265,B-3,225.0,1.0,50,145.5
1266,C#4,225.0,1.0,50,145.5
1267,G4,225.5,0.188,50,145.5
1268,G5,225.5,0.188,50,145.5
1269,C5,226.0,1.0,52,145.5
1270,C6,226.0,1.0,52,145.5
1271,F#2,226.0,0.188,47,145.5
1272,E-3,226.0,0.188,47,145.5
1273,A2,226.5,0.188,43,145.5
1274,F#3,226.5,0.188,43,145.5
1275,E-4,227.0,0.188,47,145.5
1276,E-5,227.0,0.188,47,145.5
1277,A3,227.0,1.0,46,145.5
1278,C4,227.0,1.0,46,145.5
1279,F#4,227.5,0.188,46,145.5
1280,F#5,227.5,0.188,46,145.5
1281,G#1,228.0,0.25,38,145.5
1282,C4,228.0,0.25,38,145.5
1283,F#4,228.0,0.25,38,145.5
1284,C5,228.25,0.25,38,145.5
1285,G#2,228.25,0.25,36,145.5
1286,G#1,228.5,0.25,39,145.5
1287,C4,228.5,0.25,38,145.5
1288,F#4,228.5,0.25,38,145.5
1289,C5,228.75,0.25,40,145.5
1290,G#2,228.75,0.25,36,145.5
1291,G#1,229.0,0.25,41,145.5
1292,C4,229.0,0.25,42,145.5
1293,F#4,229.0,0.25,42,145.5
1294,C5,229.25,0.25,41,145.5
1295,G#2,229.25,0.25,38,145.5
1296,G#1,229.5,0.25,42,145.5
1297,C4,229.5,0.25,44,145.5
1298,F#4,229.5,0.25,44,145.5
1299,C5,229.75,0.25,43,145.5
1300,G#2,229.75,0.25,39,145.5
1301,G#1,230.0,0.25,44,145.5
1302,C4,230.0,0.25,45,145.5
1303,F#4,230.0,0.25,45,145.5
1304,C5,230.25,0.25,45,145.5
1305,G#2,230.25,0.25,41,145.5
1306,G#1,230.5,0.25,45,145.5
1307,C4,230.5,0.25,47,145.5
1308,F#4,230.5,0.25,47,145.5
1309,C5,230.75,0.25,46,145.5
1310,G#2,230.75,0.25,44,145.5
1311,G#1,231.0,0.25,47,145.5
1312,C4,231.0,0.25,48,145.5
1313,F#4,231.0,0.25,48,145.5
1314,C5,231.25,0.25,48,145.5
1315,G#2,231.25,0.25,44,145.5
1316,G#1,231.5,0.25,48,145.5
1317,C4,231.5,0.25,49,145.5
1318,F#4,231.5,0.25,49,145.5
1319,C5,231.75,0.25,52,145.5
1320,G#2,231.75,0.25,47,145.5
1321,A2,232.0,0.25,56,145.5
1322,C5,232.0,0.25,56,145.5
1323,F#5,232.0,0.25,56,145.5
1324,C6,232.25,0.25,56,145.5
1325,B-2,232.25,0.25,53,145.5
1326,B2,232.5,0.25,54,145.5
1327,C5,232.5,0.25,57,145.5
1328,F#5,232.5,0.25,57,145.5
1329,C6,232.75,0.25,59,145.5
1330,C3,232.75,0.25,55,145.5
1331,C#3,233.0,0.25,57,145.5
1332,C5,233.0,0.25,62,145.5
1333,F#5,233.0,0.25,62,145.5
1334,C6,233.25,0.25,62,145.5
1335,D3,233.25,0.25,59,145.5
1336,E-3,233.5,0.25,60,145.5
1337,C5,233.5,0.25,64,145.5
1338,F#5,233.5,0.25,64,145.5
1339,C6,233.75,0.25,66,145.5
1340,E3,233.75,0.25,61,145.5
1341,F3,234.0,0.25,63,145.5
1342,C5,234.0,0.25,68,145.5
1343,F#5,234.0,0.25,68,145.5
1344,C6,234.25,0.25,69,145.5
1345,F#3,234.25,0.25,65,145.5
1346,G3,234.5,0.25,67,145.5
1347,C5,234.5,0.25,70,145.5
1348,F#5,234.5,0.25,70,145.5
1349,C6,234.75,0.25,70,145.5
1350,G#3,234.75,0.25,68,145.5
1351,C6,235.0,0.25,70,145.5
1352,C5,235.0,0.25,70,145.5
1353,F#5,235.0,0.25,70,145.5
1354,G#2,235.0,0.25,66,145.5
1355,G#3,235.0,0.25,66,145.5
1356,C6,235.5,0.25,69,145.5
1357,C5,235.5,0.25,69,145.5
1358,F#5,235.5,0.25,69,145.5
1359,G#2,235.5,0.25,68,145.5
1360,G#3,235.5,0.25,68,145.5
1361,C5,236.0,0.25,80,145.5
1362,F#5,236.0,0.25,80,145.5
1363,C6,236.0,0.25,80,145.5
1364,G#2,236.0,0.25,69,145.5
1365,G#3,236.0,0.25,69,145.5
1366,D5,236.5,0.5,83,145.5
1367,F#5,236.5,0.5,83,145.5
1368,C6,236.5,0.5,83,145.5
1369,D6,236.5,0.5,83,145.5
1370,G#3,236.5,0.5,71,145.5
1371,G#4,236.5,0.5,71,145.5
1372,D5,237.0,0.5,85,145.5
1373,F#5,237.0,0.5,85,145.5
1374,C6,237.0,0.5,85,145.5
1375,D6,237.0,0.5,85,145.5
1376,G#3,237.0,0.5,74,145.5
1377,G#4,237.0,0.5,74,145.5
1378,D5,237.5,0.5,87,145.5
1379,F#5,237.5,0.5,87,145.5
1380,C6,237.5,0.5,87,145.5
1381,D6,237.5,0.5,87,145.5
1382,G#3,237.5,0.5,76,145.5
1383,G#4,237.5,0.5,76,145.5
1384,D5,238.0,0.5,90,145.5
1385,F#5,238.0,0.5,90,145.5
1386,C6,238.0,0.5,90,145.5
1387,D6,238.0,0.5,90,145.5
1388,G#3,238.0,0.5,80,145.5
1389,G#4,238.0,0.5,80,145.5
1390,D5,238.5,0.5,90,145.5
1391,F#5,238.5,0.5,90,145.5
1392,C6,238.5,0.5,90,145.5
1393,D6,238.5,0.5,90,145.5
1394,G#3,238.5,0.5,82,145.5
1395,G#4,238.5,0.5,82,145.5
1396,D5,239.0,0.25,92,145.5
1397,F#5,239.0,0.25,92,145.5
1398,C6,239.0,0.25,92,145.5
1399,D6,239.0,0.25,92,145.5
1400,G#3,239.0,0.25,86,145.5
1401,G#4,239.0,0.25,86,145.5
1402,D5,239.5,0.25,94,145.5
1403,F#5,239.5,0.25,94,145.5
1404,C6,239.5,0.25,94,145.5
1405,D6,239.5,0.25,94,145.5
1406,G#3,239.5,0.25,88,145.5
1407,G#4,239.5,0.25,88,145.5
1408,E5,240.0,19/40,92,145.5
1409,G5,240.0,19/40,92,145.5
1410,C6,240.0,19/40,92,145.5
1411,E6,240.0,19/40,92,145.5
1412,G3,240.0,19/40,94,145.5
1413,G4,240.0,19/40,94,145.5
1414,F5,240.5,19/40,85,145.5
1415,B5,240.5,19/40,85,145.5
1416,D6,240.5,19/40,85,145.5
1417,G6,240.5,19/40,85,145.5
1418,G1,240.5,19/40,89,145.5
1419,G2,240.5,19/40,89,145.5
1420,F5,241.0,19/40,87,145.5
1421,B5,241.0,19/40,87,145.5
1422,D6,241.0,19/40,87,145.5
1423,G6,241.0,19/40,87,145.5
1424,G1,241.0,19/40,89,145.5
1425,G2,241.0,19/40,89,145.5
1426,F5,241.5,19/40,87,145.5
1427,B5,241.5,19/40,87,145.5
1428,D6,241.5,19/40,87,145.5
1429,G6,241.5,19/40,87,145.5
1430,G1,241.5,19/40,89,145.5
1431,G2,241.5,19/40,89,145.5
1432,F5,242.0,19/40,87,145.5
1433,B5,242.0,19/40,87,145.5
1434,D6,242.0,19/40,87,145.5
1435,G6,242.0,19/40,87,145.5
1436,G1,242.0,19/40,89,145.5
1437,G2,242.0,19/40,89,145.5
1438,F5,242.5,19/40,85,145.5
1439,B5,242.5,19/40,85,145.5
1440,D6,242.5,19/40,85,145.5
1441,G6,242.5,19/40,85,145.5
1442,G1,242.5,19/40,89,145.5
1443,G2,242.5,19/40,89,145.5
1444,F5,243.0,19/40,85,145.5
1445,B5,243.0,19/40,85,145.5
1446,D6,243.0,19/40,85,145.5
1447,G6,243.0,19/40,85,145.5
1448,G1,243.0,19/40,89,145.5
1449,G2,243.0,19/40,89,145.5
1450,F5,243.5,19/40,85,145.5
1451,B5,243.5,19/40,85,145.5
1452,D6,243.5,19/40,85,145.5
1453,G6,243.5,19/40,85,145.5
1454,G1,243.5,19/40,89,145.5
1455,G2,243.5,19/40,89,145.5
1456,C6,244.0,0.25,83,145.5
1457,E6,244.0,0.25,83,145.5
1458,C2,244.0,1.0,92,145.5
1459,C3,244.0,1.0,92,145.5
1460,C7,244.25,0.25,95,145.5
1461,G6,244.5,0.25,95,145.5
1462,E6,244.75,0.25,94,145.5
1463,C6,245.0,0.25,93,145.5
1464,C2,245.0,0.188,87,145.5
1465,C3,245.0,0.188,87,145.5
1466,G5,245.25,0.25,92,145.5
1467,E5,245.5,0.25,91,145.5
1468,C2,245.5,0.188,87,145.5
1469,C3,245.5,0.188,87,145.5
1470,G5,245.75,0.25,90,145.5
1471,C5,246.0,0.5,90,145.5
1472,C2,246.0,1.0,87,145.5
1473,C3,246.0,1.0,87,145.5
1474,E6,246.5,0.25,83,145.5
1475,G6,246.5,0.25,83,145.5
1476,G5,246.75,0.25,86,145.5
1477,F6,247.0,0.25,86,145.5
1478,A6,247.0,0.25,86,145.5
1479,C2,247.0,0.188,88,145.5
1480,C3,247.0,0.188,88,145.5
1481,A5,247.25,0.25,86,145.5
1482,G6,247.5,0.25,86,145.5
1483,B-6,247.5,0.25,86,145.5
1484,C2,247.5,0.188,90,145.5
1485,C3,247.5,0.188,90,145.5
1486,B-5,247.75,0.25,89,145.5
1487,F6,248.0,0.25,90,145.5
1488,A6,248.0,0.25,90,145.5
1489,C#2,248.0,0.188,97,145.5
1490,C#3,248.0,0.188,97,145.5
1491,A5,248.25,0.25,89,145.5
1492,E6,248.5,0.25,86,145.5
1493,G6,248.5,0.25,86,145.5
1494,G5,248.75,0.25,87,145.5
1495,D6,249.0,0.25,86,145.5
1496,F6,249.0,0.25,86,145.5
1497,D2,249.0,1.5,94,145.5
1498,D3,249.0,1.5,94,145.5
1499,F5,249.25,0.25,86,145.5
1500,A5,249.5,0.25,84,145.5
1501,E6,249.5,0.25,84,145.5
1502,E5,249.75,0.25,77,145.5
1503,F5,250.0,0.25,80,145.5
1504,D6,250.0,0.25,80,145.5
1505,D5,250.25,0.25,76,145.5
1506,A5,250.5,0.25,80,145.5
1507,C#6,250.5,0.25,80,145.5
1508,E2,250.5,0.188,88,145.5
1509,E3,250.5,0.188,88,145.5
1510,C#5,250.75,0.25,79,145.5
1511,A5,251.0,0.25,85,145.5
1512,D6,251.0,0.25,85,145.5
1513,F2,251.0,0.188,87,145.5
1514,F3,251.0,0.188,87,145.5
1515,D5,251.25,0.25,81,145.5
1516,E6,251.5,0.25,88,145.5
1517,C#7,251.5,0.25,88,145.5
1518,E2,251.5,0.188,88,145.5
1519,E3,251.5,0.188,88,145.5
1520,C#6,251.75,0.25,86,145.5
1521,D6,252.0,0.25,90,145.5
1522,D2,252.0,1.0,92,145.5
1523,D3,252.0,1.0,92,145.5
1524,D7,252.25,0.25,95,145.5
1525,A6,252.5,0.25,95,145.5
1526,F6,252.75,0.25,94,145.5
1527,D6,253.0,0.25,93,145.5
1528,D2,253.0,0.188,92,145.5
1529,D3,253.0,0.188,92,145.5
1530,A5,253.25,0.25,92,145.5
1531,F5,253.5,0.25,91,145.5
1532,D2,253.5,0.188,88,145.5
1533,D3,253.5,0.188,88,145.5
1534,A5,253.75,0.25,90,145.5
1535,D5,254.0,0.5,90,145.5
1536,D2,254.0,1.0,88,145.5
1537,D3,254.0,1.0,88,145.5
1538,F6,254.5,0.25,83,145.5
1539,A6,254.5,0.25,83,145.5
1540,A5,254.75,0.25,86,145.5
1541,G6,255.0,0.25,86,145.5
1542,B6,255.0,0.25,86,145.5
1543,D2,255.0,0.188,90,145.5
1544,D3,255.0,0.188,90,145.5
1545,B5,255.25,0.25,86,145.5
1546,A6,255.5,0.25,86,145.5
1547,C7,255.5,0.25,86,145.5
1548,D2,255.5,0.188,90,145.5
1549,D3,255.5,0.188,90,145.5
1550,C6,255.75,0.25,89,145.5
1551,G6,256.0,0.25,90,145.5
1552,B6,256.0,0.25,90,145.5
1553,E-2,256.0,0.188,97,145.5
1554,E-3,256.0,0.188,97,145.5
1555,B5,256.25,0.25,89,145.5
1556,F#6,256.5,0.25,86,145.5
1557,A6,256.5,0.25,86,145.5
1558,A5,256.75,0.25,87,145.5
1559,E6,257.0,0.25,86,145.5
1560,G6,257.0,0.25,86,145.5
1561,E2,257.0,1.5,94,145.5
1562,E3,257.0,1.5,94,145.5
1563,G5,257.25,0.25,86,145.5
1564,B5,257.5,0.25,84,145.5
1565,F#6,257.5,0.25,84,145.5
1566,F#5,257.75,0.25,77,145.5
1567,G5,258.0,0.25,80,145.5
1568,E6,258.0,0.25,80,145.5
1569,E5,258.25,0.25,76,145.5
1570,B5,258.5,0.25,80,145.5
1571,E-6,258.5,0.25,80,145.5
1572,F#2,258.5,0.188,93,145.5
1573,F#3,258.5,0.188,93,145.5
1574,E-5,258.75,0.25,79,145.5
1575,B5,259.0,0.25,85,145.5
1576,E6,259.0,0.25,85,145.5
1577,G2,259.0,0.188,84,145.5
1578,G3,259.0,0.188,84,145.5
1579,E5,259.25,0.25,81,145.5
1580,F5,259.5,0.25,88,145.5
1581,D6,259.5,0.25,88,145.5
1582,A2,259.5,0.188,86,145.5
1583,A3,259.5,0.188,86,145.5
1584,D5,259.75,0.25,86,145.5
1585,C#5,260.0,0.25,93,145.5
1586,E5,260.0,0.25,93,145.5
1587,B-2,260.0,1.0,94,145.5
1588,B-3,260.0,1.0,94,145.5
1589,C#6,260.25,0.25,87,145.5
1590,E5,260.5,0.25,87,145.5
1591,G5,260.5,0.25,87,145.5
1592,E6,260.75,0.25,87,145.5
1593,C#5,261.0,0.25,93,145.5
1594,E5,261.0,0.25,93,145.5
1595,B-2,261.0,0.188,86,145.5
1596,B-3,261.0,0.188,86,145.5
1597,C#6,261.25,0.25,86,145.5
1598,E5,261.5,0.25,88,145.5
1599,G5,261.5,0.25,88,145.5
1600,B-2,261.5,0.188,86,145.5
1601,B-3,261.5,0.188,86,145.5
1602,E6,261.75,0.25,88,145.5
1603,B-5,262.0,0.25,95,145.5
1604,C#2,262.0,2.0,90,145.5
1605,C#3,262.0,2.0,90,145.5
1606,B-6,262.25,0.25,90,145.5
1607,G6,262.5,0.25,88,145.5
1608,E6,262.75,0.25,86,145.5
1609,B-5,263.0,0.25,85,145.5
1610,G5,263.25,0.25,85,145.5
1611,E5,263.5,0.25,84,145.5
1612,B-4,263.75,0.25,83,145.5
1613,C5,264.0,0.25,91,145.5
1614,E-5,264.0,0.25,91,145.5
1615,A2,264.0,1.0,91,145.5
1616,A3,264.0,1.0,91,145.5
1617,C6,264.25,0.25,85,145.5
1618,E-5,264.5,0.25,85,145.5
1619,F#5,264.5,0.25,85,145.5
1620,E-6,264.75,0.25,85,145.5
1621,C5,265.0,0.25,91,145.5
1622,E-5,265.0,0.25,91,145.5
1623,A2,265.0,0.188,84,145.5
1624,A3,265.0,0.188,84,145.5
1625,C6,265.25,0.25,84,145.5
1626,E-5,265.5,0.25,86,145.5
1627,F#5,265.5,0.25,86,145.5
1628,A2,265.5,0.188,85,145.5
1629,A3,265.5,0.188,85,145.5
1630,E-6,265.75,0.25,86,145.5
1631,A5,266.0,0.25,93,145.5
1632,C2,266.0,2.0,88,145.5
1633,C3,266.0,2.0,88,145.5
1634,A6,266.25,0.25,88,145.5
1635,F#6,266.5,0.25,86,145.5
1636,E-6,266.75,0.25,84,145.5
1637,A5,267.0,0.25,83,145.5
1638,F#5,267.25,0.25,83,145.5
1639,E-5,267.5,0.25,82,145.5
1640,A4,267.75,0.25,81,145.5
1641,G4,268.0,0.25,84,145.5
1642,B1,268.0,0.188,86,145.5
1643,B2,268.0,0.188,86,145.5
1644,G5,268.25,0.25,75,145.5
1645,D5,268.5,0.25,75,145.5
1646,D2,268.5,0.188,87,145.5
1647,D3,268.5,0.188,87,145.5
1648,B4,268.75,0.25,74,145.5
1649,D5,269.0,0.25,80,145.5
1650,G2,269.0,0.188,92,145.5
1651,G3,269.0,0.188,92,145.5
1652,D6,269.25,0.25,75,145.5
1653,B5,269.5,0.25,75,145.5
1654,F2,269.5,0.188,87,145.5
1655,F3,269.5,0.188,87,145.5
1656,G5,269.75,0.25,75,145.5
1657,C6,270.0,0.25,68,145.5
1658,E6,270.0,0.25,68,145.5
1659,E2,270.0,0.188,88,145.5
1660,E3,270.0,0.188,88,145.5
1661,E5,270.25,0.25,74,145.5
1662,D6,270.5,0.25,70,145.5
1663,F6,270.5,0.25,70,145.5
1664,C2,270.5,0.188,86,145.5
1665,C3,270.5,0.188,86,145.5
1666,F5,270.75,0.25,78,145.5
1667,E6,271.0,0.25,73,145.5
1668,G6,271.0,0.25,73,145.5
1669,B1,271.0,0.188,86,145.5
1670,B2,271.0,0.188,86,145.5
1671,G5,271.25,0.25,81,145.5
1672,F6,271.5,0.25,76,145.5
1673,A6,271.5,0.25,76,145.5
1674,A1,271.5,0.188,86,145.5
1675,A2,271.5,0.188,86,145.5
1676,A5,271.75,0.25,84,145.5
1677,F2,272.0,0.188,87,145.5
1678,D6,272.0,0.25,76,145.5
1679,G6,272.0,0.25,76,145.5
1680,B6,272.0,0.25,76,145.5
1681,B5,272.25,0.25,86,145.5
1682,F3,272.25,0.188,88,145.5
1683,F2,272.5,0.188,89,145.5
1684,D6,272.5,0.25,78,145.5
1685,G6,272.5,0.25,78,145.5
1686,B6,272.5,0.25,78,145.5
1687,B5,272.75,0.25,89,145.5
1688,F3,272.75,0.188,91,145.5
1689,E2,273.0,0.188,92,145.5
1690,C7,273.0,0.25,83,145.5
1691,G6,273.0,0.25,83,145.5
1692,C6,273.25,0.25,92,145.5
1693,E3,273.25,0.188,93,145.5
1694,E2,273.5,0.188,94,145.5
1695,C7,273.5,0.25,86,145.5
1696,G6,273.5,0.25,86,145.5
1697,C6,273.75,0.25,94,145.5
1698,E3,273.75,0.188,96,145.5
1699,D2,274.0,0.188,97,145.5
1700,F7,274.0,0.25,86,145.5
1701,C7,274.0,0.25,86,145.5
1702,F6,274.25,0.25,94,145.5
1703,D3,274.25,0.188,94,145.5
1704,D2,274.5,0.188,97,145.5
1705,F7,274.5,0.25,86,145.5
1706,C7,274.5,0.25,86,145.5
1707,F6,274.75,0.25,94,145.5
1708,D3,274.75,0.188,92,145.5
1709,G2,275.0,0.188,97,145.5
1710,B6,275.0,0.25,86,145.5
1711,F7,275.0,0.25,86,145.5
1712,F6,275.25,0.25,94,145.5
1713,G3,275.25,0.188,92,145.5
1714,G2,275.5,0.188,92,145.5
1715,B6,275.5,0.25,86,145.5
1716,F7,275.5,0.25,86,145.5
1717,F6,275.75,0.25,94,145.5
1718,G3,275.75,0.188,92,145.5
1719,E6,276.0,0.688,88,145.5
1720,B6,276.0,0.688,88,145.5
1721,E7,276.0,0.688,88,145.5
1722,G#2,276.0,0.688,92,145.5
1723,G#3,276.0,0.688,92,145.5
1724,E3,276.75,0.188,84,145.5
1725,B3,276.75,0.188,84,145.5
1726,E4,276.75,0.188,84,145.5
1727,G#1,276.75,0.188,85,145.5
1728,G#2,276.75,0.188,85,145.5
1729,E4,277.0,2.0,88,145.5
1730,E3,277.0,3.0,74,145.5
1731,B3,277.0,3.0,74,145.5
1732,G#1,277.0,3.0,80,145.5
1733,G#2,277.0,3.0,80,145.5
1734,D4,279.0,1.0,65,145.5
1735,G1,280.0,0.25,34,145.5
1736,B-3,280.0,0.25,38,145.5
1737,C#4,280.0,0.25,38,145.5
1738,E3,280.25,0.25,42,145.5
1739,G2,280.25,0.25,34,145.5
1740,G1,280.5,0.25,35,145.5
1741,B-3,280.5,0.25,40,145.5
1742,C#4,280.5,0.25,40,145.5
1743,E3,280.75,0.25,43,145.5
1744,G2,280.75,0.25,35,145.5
1745,G1,281.0,0.25,36,145.5
1746,C#4,281.0,0.25,40,145.5
1747,B-3,281.0,0.25,40,145.5
1748,E3,281.25,0.25,45,145.5
1749,G2,281.25,0.25,36,145.5
1750,G1,281.5,0.25,37,145.5
1751,B-3,281.5,0.25,42,145.5
1752,C#4,281.5,0.25,42,145.5
1753,E3,281.75,0.25,46,145.5
1754,G2,281.75,0.25,37,145.5
1755,G1,282.0,0.25,38,145.5
1756,C#4,282.0,0.25,42,145.5
1757,E4,282.0,0.25,42,145.5
1758,B-3,282.25,0.25,47,145.5
1759,G2,282.25,0.25,38,145.5
1760,G1,282.5,0.25,39,145.5
1761,C#4,282.5,0.25,43,145.5
1762,E4,282.5,0.25,43,145.5
1763,B-3,282.75,0.25,48,145.5
1764,G2,282.75,0.25,39,145.5
1765,G1,283.0,0.25,40,145.5
1766,C#4,283.0,0.25,44,145.5
1767,E4,283.0,0.25,44,145.5
1768,B-3,283.25,0.25,49,145.5
1769,G2,283.25,0.25,40,145.5
1770,G1,283.5,0.25,41,145.5
1771,C#4,283.5,0.25,46,145.5
1772,E4,283.5,0.25,46,145.5
1773,B-3,283.75,0.25,50,145.5
1774,G2,283.75,0.25,41,145.5
1775,G2,284.0,0.25,46,145.5
1776,E4,284.0,0.25,46,145.5
1777,B-4,284.0,0.25,46,145.5
1778,C#4,284.25,0.25,52,145.5
1779,G3,284.25,0.25,43,145.5
1780,G2,284.5,0.25,45,145.5
1781,E4,284.5,0.25,50,145.5
1782,B-4,284.5,0.25,50,145.5
1783,C#4,284.75,0.25,56,145.5
1784,G3,284.75,0.25,47,145.5
1785,G2,285.0,0.25,49,145.5
1786,B-4,285.0,0.25,56,145.5
1787,C#5,285.0,0.25,56,145.5
1788,E4,285.25,0.25,64,145.5
1789,G3,285.25,0.25,51,145.5
1790,G2,285.5,0.25,53,145.5
1791,B-4,285.5,0.25,61,145.5
1792,C#5,285.5,0.25,61,145.5
1793,E4,285.75,0.25,70,145.5
1794,G3,285.75,0.25,56,145.5
1795,G3,286.0,0.25,57,145.5
1796,C#5,286.0,0.25,66,145.5
1797,E5,286.0,0.25,66,145.5
1798,B-4,286.25,0.25,75,145.5
1799,G4,286.25,0.25,59,145.5
1800,G3,286.5,0.25,61,145.5
1801,E5,286.5,0.25,72,145.5
1802,B-5,286.5,0.25,72,145.5
1803,C#5,286.75,0.25,81,145.5
1804,G4,286.75,0.25,63,145.5
1805,G3,287.0,0.25,65,145.5
1806,B-5,287.0,0.25,76,145.5
1807,C#6,287.0,0.25,76,145.5
1808,E5,287.25,0.25,87,145.5
1809,G4,287.25,0.25,68,145.5
1810,G3,287.5,0.25,70,145.5
1811,E6,287.5,0.25,82,145.5
1812,C#6,287.5,0.25,82,145.5
1813,B-5,287.75,0.25,92,145.5
1814,G4,287.75,0.25,72,145.5
1815,F6,288.0,1.0,93,145.5
1816,D6,288.0,1.0,93,145.5
1817,A5,288.0,1.0,93,145.5
1818,F4,288.0,1.0,78,145.5
1819,F3,288.0,1.0,78,145.5
1820,A6,289.0,1.0,87,145.5
1821,F6,289.0,1.0,87,145.5
1822,D6,289.0,1.0,87,145.5
1823,A5,289.0,1.0,87,145.5
1824,D4,289.0,1.0,77,145.5
1825,D3,289.0,1.0,77,145.5
1826,E6,290.0,1.0,92,145.5
1827,C6,290.0,1.0,92,145.5
1828,G5,290.0,1.0,92,145.5
1829,E5,290.0,1.0,92,145.5
1830,G4,290.0,1.0,80,145.5
1831,G3,290.0,1.0,80,145.5
1832,D6,291.0,1.0,88,145.5
1833,B5,291.0,1.0,88,145.5
1834,G5,291.0,1.0,88,145.5
1835,D5,291.0,1.0,88,145.5
1836,G2,291.0,1.0,76,145.5
1837,G3,291.0,1.0,76,145.5
1838,E5,292.0,0.688,96,145.5
1839,B5,292.0,0.688,96,145.5
1840,E6,292.0,0.688,96,145.5
1841,G#2,292.0,0.688,90,145.5
1842,G#3,292.0,0.688,90,145.5
1843,E3,292.75,0.188,90,145.5
1844,B3,292.75,0.188,90,145.5
1845,E4,292.75,0.188,90,145.5
1846,G#1,292.75,0.188,86,145.5
1847,G#2,292.75,0.188,86,145.5
1848,E4,293.0,2.0,94,145.5
1849,E3,293.0,3.0,79,145.5
1850,B3,293.0,3.0,79,145.5
1851,G#1,293.0,3.0,76,145.5
1852,G#2,293.0,3.0,76,145.5
1853,D4,295.0,1.0,65,145.5
1854,G1,296.0,0.25,34,145.5
1855,B-3,296.0,0.25,38,145.5
1856,C#4,296.0,0.25,38,145.5
1857,E3,296.25,0.25,42,145.5
1858,G2,296.25,0.25,34,145.5
1859,G1,296.5,0.25,35,145.5
1860,B-3,296.5,0.25,40,145.5
1861,C#4,296.5,0.25,40,145.5
1862,E3,296.75,0.25,43,145.5
1863,G2,296.75,0.25,35,145.5
1864,G1,297.0,0.25,36,145.5
1865,C#4,297.0,0.25,40,145.5
1866,B-3,297.0,0.25,40,145.5
1867,E3,297.25,0.25,45,145.5
1868,G2,297.25,0.25,36,145.5
1869,G1,297.5,0.25,37,145.5
1870,B-3,297.5,0.25,42,145.5
1871,C#4,297.5,0.25,42,145.5
1872,E3,297.75,0.25,46,145.5
1873,G2,297.75,0.25,37,145.5
1874,G1,298.0,0.25,38,145.5
1875,C#4,298.0,0.25,42,145.5
1876,E4,298.0,0.25,42,145.5
1877,B-3,298.25,0.25,47,145.5
1878,G2,298.25,0.25,38,145.5
1879,G1,298.5,0.25,39,145.5
1880,C#4,298.5,0.25,43,145.5
1881,E4,298.5,0.25,43,145.5
1882,B-3,298.75,0.25,48,145.5
1883,G2,298.75,0.25,39,145.5
1884,G1,299.0,0.25,40,145.5
1885,C#4,299.0,0.25,44,145.5
1886,E4,299.0,0.25,44,145.5
1887,B-3,299.25,0.25,49,145.5
1888,G2,299.25,0.25,40,145.5
1889,G1,299.5,0.25,41,145.5
1890,C#4,299.5,0.25,46,145.5
1891,E4,299.5,0.25,46,145.5
1892,B-3,299.75,0.25,50,145.5
1893,G2,299.75,0.25,41,145.5
1894,G2,300.0,0.25,46,145.5
1895,E4,300.0,0.25,46,145.5
1896,B-4,300.0,0.25,46,145.5
1897,C#4,300.25,0.25,52,145.5
1898,G3,300.25,0.25,43,145.5
1899,G2,300.5,0.25,45,145.5
1900,E4,300.5,0.25,50,145.5
1901,B-4,300.5,0.25,50,145.5
1902,C#4,300.75,0.25,56,145.5
1903,G3,300.75,0.25,47,145.5
1904,G2,301.0,0.25,49,145.5
1905,B-4,301.0,0.25,56,145.5
1906,C#5,301.0,0.25,56,145.5
1907,E4,301.25,0.25,64,145.5
1908,G3,301.25,0.25,51,145.5
1909,G2,301.5,0.25,53,145.5
1910,B-4,301.5,0.25,61,145.5
1911,C#5,301.5,0.25,61,145.5
1912,E4,301.75,0.25,70,145.5
1913,G3,301.75,0.25,56,145.5
1914,G3,302.0,0.25,57,145.5
1915,C#5,302.0,0.25,66,145.5
1916,E5,302.0,0.25,66,145.5
1917,B-4,302.25,0.25,75,145.5
1918,G4,302.25,0.25,59,145.5
1919,G3,302.5,0.25,61,145.5
1920,E5,302.5,0.25,72,145.5
1921,B-5,302.5,0.25,72,145.5
1922,C#5,302.75,0.25,81,145.5
1923,G4,302.75,0.25,63,145.5
1924,G3,303.0,0.25,65,145.5
1925,B-5,303.0,0.25,76,145.5
1926,C#6,303.0,0.25,76,145.5
1927,E5,303.25,0.25,87,145.5
1928,G4,303.25,0.25,68,145.5
1929,G3,303.5,0.25,70,145.5
1930,E6,303.5,0.25,82,145.5
1931,C#6,303.5,0.25,82,145.5
1932,B-5,303.75,0.25,92,145.5
1933,G4,303.75,0.25,72,145.5
1934,B-5,304.0,0.75,86,145.5
1935,F5,304.0,0.75,86,145.5
1936,D6,304.0,0.75,86,145.5
1937,F6,304.0,0.75,86,145.5
1938,F1,304.0,0.75,79,145.5
1939,F2,304.0,0.75,79,145.5
1940,B-4,304.75,0.188,78,145.5
1941,F4,304.75,0.188,78,145.5
1942,D5,304.75,0.188,78,145.5
1943,F5,304.75,0.188,78,145.5
1944,F2,304.75,0.188,70,145.5
1945,F3,304.75,0.188,70,145.5
1946,F4,305.0,1.0,81,145.5
1947,B-4,305.0,1.0,81,145.5
1948,F5,305.0,1.0,81,145.5
1949,D5,305.0,1.0,81,145.5
1950,F2,305.0,1.0,70,145.5
1951,F3,305.0,1.0,70,145.5
1952,B-5,306.0,0.75,86,145.5
1953,E5,306.0,0.75,86,145.5
1954,C#6,306.0,0.75,86,145.5
1955,E6,306.0,0.75,86,145.5
1956,G1,306.0,0.75,79,145.5
1957,G2,306.0,0.75,79,145.5
1958,B-4,306.75,0.188,78,145.5
1959,E4,306.75,0.188,78,145.5
1960,C#5,306.75,0.188,78,145.5
1961,E5,306.75,0.188,78,145.5
1962,G2,306.75,0.188,68,145.5
1963,G3,306.75,0.188,68,145.5
1964,E4,307.0,1.0,80,145.5
1965,B-4,307.0,1.0,80,145.5
1966,E5,307.0,1.0,80,145.5
1967,C#5,307.0,1.0,80,145.5
1968,G2,307.0,1.0,68,145.5
1969,G3,307.0,1.0,68,145.5
1970,F#5,308.0,0.75,91,145.5
1971,E-5,308.0,0.75,91,145.5
1972,C6,308.0,0.75,91,145.5
1973,E-6,308.0,0.75,91,145.5
1974,A1,308.0,0.75,83,145.5
1975,A2,308.0,0.75,83,145.5
1976,F#4,308.75,0.188,81,145.5
1977,E-4,308.75,0.188,81,145.5
1978,C5,308.75,0.188,81,145.5
1979,E-5,308.75,0.188,81,145.5
1980,A2,308.75,0.188,70,145.5
1981,A3,308.75,0.188,70,145.5
1982,E-4,309.0,1.0,81,145.5
1983,F#4,309.0,1.0,81,145.5
1984,E-5,309.0,1.0,81,145.5
1985,C5,309.0,1.0,81,145.5
1986,A2,309.0,1.0,70,145.5
1987,A3,309.0,1.0,70,145.5
1988,F5,310.0,0.75,93,145.5
1989,D5,310.0,0.75,93,145.5
1990,B-5,310.0,0.75,93,145.5
1991,D6,310.0,0.75,93,145.5
1992,B-1,310.0,0.75,84,145.5
1993,B-2,310.0,0.75,84,145.5
1994,F4,310.75,0.188,84,145.5
1995,D4,310.75,0.188,84,145.5
1996,B-4,310.75,0.188,84,145.5
1997,D5,310.75,0.188,84,145.5
1998,B-2,310.75,0.188,71,145.5
1999,B-3,310.75,0.188,71,145.5
2000,D4,311.0,1.0,84,145.5
2001,F4,311.0,1.0,84,145.5
2002,D5,311.0,1.0,84,145.5
2003,B-4,311.0,1.0,84,145.5
2004,B-2,311.0,1.0,73,145.5
2005,B-3,311.0,1.0,73,145.5
2006,F#4,312.0,0.75,90,145.5
2007,D4,312.0,0.75,90,145.5
2008,C5,312.0,0.75,90,145.5
2009,D5,312.0,0.75,90,145.5
2010,G#2,312.0,0.75,82,145.5
2011,G#3,312.0,0.75,82,145.5
2012,F#5,312.75,0.188,81,145.5
2013,D5,312.75,0.188,81,145.5
2014,C6,312.75,0.188,81,145.5
2015,D6,312.75,0.188,81,145.5
2016,G#1,312.75,0.188,70,145.5
2017,G#2,312.75,0.188,70,145.5
2018,D5,313.0,1.0,91,145.5
2019,F#5,313.0,1.0,91,145.5
2020,D6,313.0,1.0,91,145.5
2021,C6,313.0,1.0,91,145.5
2022,G#1,313.0,1.0,80,145.5
2023,G#2,313.0,1.0,80,145.5
2024,G4,314.0,0.75,86,145.5
2025,D4,314.0,0.75,86,145.5
2026,B4,314.0,0.75,86,145.5
2027,D5,314.0,0.75,86,145.5
2028,G2,314.0,0.75,79,145.5
2029,G3,314.0,0.75,79,145.5
2030,G5,314.75,0.188,83,145.5
2031,D5,314.75,0.188,83,145.5
2032,B5,314.75,0.188,83,145.5
2033,D6,314.75,0.188,83,145.5
2034,G1,314.75,0.188,68,145.5
2035,G2,314.75,0.188,68,145.5
2036,D5,315.0,1.0,88,145.5
2037,G5,315.0,1.0,88,145.5
2038,D6,315.0,1.0,88,145.5
2039,B5,315.0,1.0,88,145.5
2040,G1,315.0,1.0,79,145.5
2041,G2,315.0,1.0,79,145.5
2042,G4,316.0,0.75,86,145.5
2043,E4,316.0,0.75,86,145.5
2044,C5,316.0,0.75,86,145.5
2045,E5,316.0,0.75,86,145.5
2046,G2,316.0,0.75,76,145.5
2047,G3,316.0,0.75,76,145.5
2048,G5,316.75,0.188,78,145.5
2049,E5,316.75,0.188,78,145.5
2050,C6,316.75,0.188,78,145.5
2051,E6,316.75,0.188,78,145.5
2052,G1,316.75,0.188,70,145.5
2053,G2,316.75,0.188,70,145.5
2054,E5,317.0,1.0,90,145.5
2055,G5,317.0,1.0,90,145.5
2056,E6,317.0,1.0,90,145.5
2057,C6,317.0,1.0,90,145.5
2058,G1,317.0,1.0,81,145.5
2059,G2,317.0,1.0,81,145.5
2060,B4,318.0,0.75,90,145.5
2061,G4,318.0,0.75,90,145.5
2062,F5,318.0,0.75,90,145.5
2063,G5,318.0,0.75,90,145.5
2064,G2,318.0,0.75,78,145.5
2065,G3,318.0,0.75,78,145.5
2066,B5,318.75,0.188,84,145.5
2067,G5,318.75,0.188,84,145.5
2068,F6,318.75,0.188,84,145.5
2069,G6,318.75,0.188,84,145.5
2070,G1,318.75,0.188,72,145.5
2071,G2,318.75,0.188,72,145.5
2072,G5,319.0,1.0,90,145.5
2073,B5,319.0,1.0,90,145.5
2074,G6,319.0,1.0,90,145.5
2075,F6,319.0,1.0,90,145.5
2076,G1,319.0,1.0,84,145.5
2077,G2,319.0,1.0,84,145.5
2078,G3,320.0,73/250,50,145.5
2079,B1,320.0,0.188,46,145.5
2080,B2,320.0,0.188,46,145.5
2081,G4,320.25,73/250,46,145.5
2082,D4,320.5,73/250,46,145.5
2083,D2,320.5,0.188,47,145.5
2084,D3,320.5,0.188,47,145.5
2085,B3,320.75,73/250,46,145.5
2086,D4,321.0,73/250,50,145.5
2087,G2,321.0,0.188,49,145.5
2088,G3,321.0,0.188,49,145.5
2089,D5,321.25,73/250,46,145.5
2090,B4,321.5,73/250,46,145.5
2091,F2,321.5,0.188,47,145.5
2092,F3,321.5,0.188,47,145.5
2093,G4,321.75,73/250,46,145.5
2094,C5,322.0,73/250,51,145.5
2095,E5,322.0,73/250,51,145.5
2096,E2,322.0,0.188,48,145.5
2097,E3,322.0,0.188,48,145.5
2098,E4,322.25,73/250,47,145.5
2099,D5,322.5,73/250,51,145.5
2100,F5,322.5,73/250,51,145.5
2101,C2,322.5,0.188,46,145.5
2102,C3,322.5,0.188,46,145.5
2103,F4,322.75,73/250,47,145.5
2104,E5,323.0,73/250,53,145.5
2105,G5,323.0,73/250,53,145.5
2106,B1,323.0,0.188,46,145.5
2107,B2,323.0,0.188,46,145.5
2108,G4,323.25,73/250,47,145.5
2109,F5,323.5,73/250,53,145.5
2110,A5,323.5,73/250,53,145.5
2111,A1,323.5,0.188,46,145.5
2112,A2,323.5,0.188,46,145.5
2113,A4,323.75,0.25,48,145.5
2114,A4,324.0,21/500,48,145.5
2115,F2,324.0,0.25,54,145.5
2116,D5,324.0,0.25,51,145.5
2117,G5,324.0,0.25,51,145.5
2118,B5,324.0,0.25,51,145.5
2119,B4,324.25,0.25,53,145.5
2120,F3,324.25,0.25,56,145.5
2121,F2,324.5,0.25,57,145.5
2122,D5,324.5,0.25,55,145.5
2123,G5,324.5,0.25,55,145.5
2124,B5,324.5,0.25,55,145.5
2125,B4,324.75,0.25,56,145.5
2126,F3,324.75,0.25,59,145.5
2127,E2,325.0,0.25,60,145.5
2128,G5,325.0,0.25,58,145.5
2129,C6,325.0,0.25,58,145.5
2130,C5,325.25,0.25,60,145.5
2131,E3,325.25,0.25,62,145.5
2132,E2,325.5,0.25,63,145.5
2133,C6,325.5,0.25,62,145.5
2134,G5,325.5,0.25,62,145.5
2135,C5,325.75,0.25,63,145.5
2136,E3,325.75,0.25,65,145.5
2137,D2,326.0,0.25,66,145.5
2138,F6,326.0,0.25,65,145.5
2139,C6,326.0,0.25,65,145.5
2140,F5,326.25,0.25,65,145.5
2141,D3,326.25,0.25,66,145.5
2142,D2,326.5,0.25,67,145.5
2143,F6,326.5,0.25,66,145.5
2144,C6,326.5,0.25,66,145.5
2145,F5,326.75,0.25,66,145.5
2146,D3,326.75,0.25,68,145.5
2147,G#1,327.0,0.25,69,145.5
2148,F6,327.0,0.25,67,145.5
2149,B5,327.0,0.25,67,145.5
2150,F5,327.25,0.25,67,145.5
2151,G#2,327.25,0.25,69,145.5
2152,G#1,327.5,0.25,70,145.5
2153,F6,327.5,0.25,68,145.5
2154,B5,327.5,0.25,68,145.5
2155,F5,327.75,0.25,68,145.5
2156,G#2,327.75,0.25,71,145.5
2157,A3,328.0,73/250,60,145.5
2158,A1,328.0,0.188,55,145.5
2159,A2,328.0,0.188,55,145.5
2160,A4,328.25,73/250,55,145.5
2161,E4,328.5,73/250,55,145.5
2162,E2,328.5,0.188,56,145.5
2163,E3,328.5,0.188,56,145.5
2164,C#4,328.75,73/250,55,145.5
2165,E4,329.0,73/250,60,145.5
2166,A2,329.0,0.188,58,145.5
2167,A3,329.0,0.188,58,145.5
2168,E5,329.25,73/250,55,145.5
2169,C#5,329.5,73/250,55,145.5
2170,G2,329.5,0.188,56,145.5
2171,G3,329.5,0.188,56,145.5
2172,A4,329.75,73/250,55,145.5
2173,D5,330.0,73/250,56,145.5
2174,F5,330.0,73/250,56,145.5
2175,F2,330.0,0.188,57,145.5
2176,F3,330.0,0.188,57,145.5
2177,F4,330.25,73/250,56,145.5
2178,E5,330.5,73/250,56,145.5
2179,G5,330.5,73/250,56,145.5
2180,D2,330.5,0.188,55,145.5
2181,D3,330.5,0.188,55,145.5
2182,G4,330.75,73/250,56,145.5
2183,F5,331.0,73/250,58,145.5
2184,A5,331.0,73/250,58,145.5
2185,C2,331.0,0.188,55,145.5
2186,C3,331.0,0.188,55,145.5
2187,A4,331.25,73/250,56,145.5
2188,G5,331.5,73/250,58,145.5
2189,B-5,331.5,73/250,58,145.5
2190,B-1,331.5,0.188,55,145.5
2191,B-2,331.5,0.188,55,145.5
2192,B-4,331.75,0.25,57,145.5
2193,B-4,332.0,21/500,57,145.5
2194,G2,332.0,0.25,61,145.5
2195,E5,332.0,0.25,54,145.5
2196,A5,332.0,0.25,54,145.5
2197,C#6,332.0,0.25,54,145.5
2198,C#5,332.25,0.25,62,145.5
2199,G3,332.25,0.25,62,145.5
2200,G2,332.5,0.25,64,145.5
2201,E5,332.5,0.25,57,145.5
2202,A5,332.5,0.25,57,145.5
2203,C#6,332.5,0.25,57,145.5
2204,C#5,332.75,0.25,66,145.5
2205,G3,332.75,0.25,66,145.5
2206,F2,333.0,0.25,67,145.5
2207,A5,333.0,0.25,62,145.5
2208,D6,333.0,0.25,62,145.5
2209,D5,333.25,0.25,69,145.5
2210,F3,333.25,0.25,69,145.5
2211,F2,333.5,0.25,71,145.5
2212,D6,333.5,0.25,64,145.5
2213,A5,333.5,0.25,64,145.5
2214,D5,333.75,0.25,72,145.5
2215,F3,333.75,0.25,73,145.5
2216,E2,334.0,0.25,76,145.5
2217,G6,334.0,0.25,68,145.5
2218,D6,334.0,0.25,68,145.5
2219,G5,334.25,0.25,70,145.5
2220,E3,334.25,0.25,72,145.5
2221,E2,334.5,0.25,76,145.5
2222,G6,334.5,0.25,68,145.5
2223,D6,334.5,0.25,68,145.5
2224,G5,334.75,0.25,70,145.5
2225,E3,334.75,0.25,71,145.5
2226,A1,335.0,0.25,76,145.5
2227,G6,335.0,0.25,68,145.5
2228,C#6,335.0,0.25,68,145.5
2229,G5,335.25,0.25,70,145.5
2230,A2,335.25,0.25,72,145.5
2231,A1,335.5,0.25,76,145.5
2232,G6,335.5,0.25,68,145.5
2233,C#6,335.5,0.25,68,145.5
2234,G5,335.75,0.25,70,145.5
2235,A2,335.75,0.25,71,145.5
2236,D4,336.0,0.25,79,145.5
2237,D2,336.0,0.5,78,145.5
2238,D3,336.0,0.5,78,145.5
2239,D5,336.25,0.25,70,145.5
2240,A4,336.5,0.25,70,145.5
2241,A2,336.5,0.5,71,145.5
2242,A3,336.5,0.5,71,145.5
2243,F#4,336.75,0.25,70,145.5
2244,A4,337.0,0.25,79,145.5
2245,D3,337.0,0.188,78,145.5
2246,D4,337.0,0.188,78,145.5
2247,A5,337.25,0.25,70,145.5
2248,F#5,337.5,0.25,70,145.5
2249,C3,337.5,0.188,70,145.5
2250,C4,337.5,0.188,70,145.5
2251,D5,337.75,0.25,71,145.5
2252,G5,338.0,0.25,73,145.5
2253,B5,338.0,0.25,73,145.5
2254,B2,338.0,0.5,76,145.5
2255,B3,338.0,0.5,76,145.5
2256,B4,338.25,0.25,72,145.5
2257,A5,338.5,0.25,73,145.5
2258,C6,338.5,0.25,73,145.5
2259,G2,338.5,0.5,68,145.5
2260,G3,338.5,0.5,68,145.5
2261,C5,338.75,0.25,73,145.5
2262,B5,339.0,0.25,74,145.5
2263,D6,339.0,0.25,74,145.5
2264,F#2,339.0,0.188,69,145.5
2265,F#3,339.0,0.188,69,145.5
2266,D5,339.25,0.25,71,145.5
2267,C6,339.5,0.25,73,145.5
2268,E6,339.5,0.25,73,145.5
2269,E2,339.5,0.188,69,145.5
2270,E3,339.5,0.188,69,145.5
2271,E5,339.75,0.25,72,145.5
2272,C3,340.0,0.25,66,145.5
2273,A5,340.0,0.25,64,145.5
2274,D6,340.0,0.25,64,145.5
2275,F#6,340.0,0.25,64,145.5
2276,F#5,340.25,0.25,72,145.5
2277,C4,340.25,0.25,67,145.5
2278,C3,340.5,0.25,68,145.5
2279,A5,340.5,0.25,66,145.5
2280,D6,340.5,0.25,66,145.5
2281,F#6,340.5,0.25,66,145.5
2282,F#5,340.75,0.25,74,145.5
2283,C4,340.75,0.25,69,145.5
2284,B2,341.0,0.25,71,145.5
2285,D6,341.0,0.25,69,145.5
2286,G6,341.0,0.25,69,145.5
2287,G5,341.25,0.25,76,145.5
2288,B3,341.25,0.25,72,145.5
2289,B2,341.5,0.25,73,145.5
2290,G6,341.5,0.25,71,145.5
2291,D6,341.5,0.25,71,145.5
2292,G5,341.75,0.25,78,145.5
2293,B3,341.75,0.25,74,145.5
2294,A2,342.0,0.25,75,145.5
2295,C7,342.0,0.25,76,145.5
2296,G6,342.0,0.25,76,145.5
2297,C6,342.25,0.25,75,145.5
2298,A3,342.25,0.25,73,145.5
2299,A2,342.5,0.25,78,145.5
2300,C7,342.5,0.25,74,145.5
2301,G6,342.5,0.25,74,145.5
2302,C6,342.75,0.25,74,145.5
2303,A3,342.75,0.25,71,145.5
2304,D2,343.0,0.25,78,145.5
2305,C7,343.0,0.25,74,145.5
2306,F#6,343.0,0.25,74,145.5
2307,C6,343.25,0.25,75,145.5
2308,D3,343.25,0.25,70,145.5
2309,D2,343.5,0.25,76,145.5
2310,C7,343.5,0.25,73,145.5
2311,F#6,343.5,0.25,73,145.5
2312,C6,343.75,0.25,74,145.5
2313,D3,343.75,0.25,70,145.5
2314,G4,344.0,0.25,79,145.5
2315,G2,344.0,0.5,78,145.5
2316,G3,344.0,0.5,78,145.5
2317,G5,344.25,0.25,70,145.5
2318,D5,344.5,0.25,70,145.5
2319,D3,344.5,0.5,71,145.5
2320,D4,344.5,0.5,71,145.5
2321,B4,344.75,0.25,70,145.5
2322,D5,345.0,0.25,79,145.5
2323,G3,345.0,0.5,78,145.5
2324,G4,345.0,0.5,78,145.5
2325,D6,345.25,0.25,70,145.5
2326,B5,345.5,0.25,70,145.5
2327,F3,345.5,0.5,70,145.5
2328,F4,345.5,0.5,70,145.5
2329,G5,345.75,0.25,71,145.5
2330,C6,346.0,0.25,73,145.5
2331,E6,346.0,0.25,73,145.5
2332,E3,346.0,0.5,76,145.5
2333,E4,346.0,0.5,76,145.5
2334,E5,346.25,0.25,72,145.5
2335,D6,346.5,0.25,73,145.5
2336,F6,346.5,0.25,73,145.5
2337,C3,346.5,0.5,68,145.5
2338,C4,346.5,0.5,68,145.5
2339,F5,346.75,0.25,73,145.5
2340,E6,347.0,0.25,74,145.5
2341,G6,347.0,0.25,74,145.5
2342,B2,347.0,0.5,69,145.5
2343,B3,347.0,0.5,69,145.5
2344,G5,347.25,0.25,71,145.5
2345,F6,347.5,0.25,73,145.5
2346,A6,347.5,0.25,73,145.5
2347,A2,347.5,0.5,69,145.5
2348,A3,347.5,0.5,69,145.5
2349,A5,347.75,0.25,72,145.5
2350,F3,348.0,0.25,66,145.5
2351,D6,348.0,0.25,64,145.5
2352,G6,348.0,0.25,64,145.5
2353,B6,348.0,0.25,64,145.5
2354,B5,348.25,0.25,72,145.5
2355,F4,348.25,0.25,67,145.5
2356,F3,348.5,0.25,68,145.5
2357,D6,348.5,0.25,66,145.5
2358,G6,348.5,0.25,66,145.5
2359,B6,348.5,0.25,66,145.5
2360,B5,348.75,0.25,74,145.5
2361,F4,348.75,0.25,69,145.5
2362,E3,349.0,0.25,71,145.5
2363,G6,349.0,0.25,69,145.5
2364,C7,349.0,0.25,69,145.5
2365,C6,349.25,0.25,76,145.5
2366,E4,349.25,0.25,72,145.5
2367,E3,349.5,0.25,73,145.5
2368,C7,349.5,0.25,71,145.5
2369,G6,349.5,0.25,71,145.5
2370,C6,349.75,0.25,78,145.5
2371,E4,349.75,0.25,74,145.5
2372,D3,350.0,0.25,75,145.5
2373,F7,350.0,0.25,76,145.5
2374,C7,350.0,0.25,76,145.5
2375,F6,350.25,0.25,75,145.5
2376,D4,350.25,0.25,73,145.5
2377,D3,350.5,0.25,80,145.5
2378,F7,350.5,0.25,76,145.5
2379,C7,350.5,0.25,76,145.5
2380,F6,350.75,0.25,77,145.5
2381,D4,350.75,0.25,74,145.5
2382,G2,351.0,0.25,83,145.5
2383,F7,351.0,0.25,78,145.5
2384,B6,351.0,0.25,78,145.5
2385,F6,351.25,0.25,81,145.5
2386,G3,351.25,0.25,75,145.5
2387,G2,351.5,0.25,83,145.5
2388,F7,351.5,0.25,80,145.5
2389,B6,351.5,0.25,80,145.5
2390,F6,351.75,0.25,82,145.5
2391,G3,351.75,0.25,78,145.5
2392,C3,352.0,0.25,64,145.5
2393,E7,352.0,0.25,72,145.5
2394,B6,352.0,0.25,72,145.5
2395,E6,352.25,0.25,70,145.5
2396,C4,352.25,0.25,54,145.5
2397,C3,352.5,0.25,64,145.5
2398,E7,352.5,0.25,71,145.5
2399,B6,352.5,0.25,71,145.5
2400,E6,352.75,0.25,70,145.5
2401,C4,352.75,0.25,53,145.5
2402,F2,353.0,0.25,64,145.5
2403,E7,353.0,0.25,70,145.5
2404,A6,353.0,0.25,70,145.5
2405,E6,353.25,0.25,68,145.5
2406,F3,353.25,0.25,55,145.5
2407,F2,353.5,0.25,64,145.5
2408,E7,353.5,0.25,66,145.5
2409,A6,353.5,0.25,66,145.5
2410,E6,353.75,0.25,67,145.5
2411,F3,353.75,0.25,54,145.5
2412,B2,354.0,0.25,64,145.5
2413,D7,354.0,0.25,68,145.5
2414,A6,354.0,0.25,68,145.5
2415,D6,354.25,0.25,68,145.5
2416,B3,354.25,0.25,54,145.5
2417,B2,354.5,0.25,64,145.5
2418,D7,354.5,0.25,68,145.5
2419,A6,354.5,0.25,68,145.5
2420,D6,354.75,0.25,67,145.5
2421,B3,354.75,0.25,54,145.5
2422,E2,355.0,0.25,64,145.5
2423,D7,355.0,0.25,68,145.5
2424,G#6,355.0,0.25,68,145.5
2425,D6,355.25,0.25,66,145.5
2426,E3,355.25,0.25,53,145.5
2427,E2,355.5,0.25,64,145.5
2428,D7,355.5,0.25,68,145.5
2429,G#6,355.5,0.25,68,145.5
2430,D6,355.75,0.25,68,145.5
2431,E3,355.75,0.25,55,145.5
2432,F2,356.0,0.25,64,145.5
2433,C7,356.0,0.25,68,145.5
2434,A6,356.0,0.25,68,145.5
2435,C6,356.25,0.25,68,145.5
2436,F3,356.25,0.25,56,145.5
2437,F2,356.5,0.25,64,145.5
2438,C7,356.5,0.25,68,145.5
2439,A6,356.5,0.25,68,145.5
2440,C6,356.75,0.25,67,145.5
2441,F3,356.75,0.25,54,145.5
2442,F6,357.0,0.25,69,145.5
2443,A6,357.0,0.25,69,145.5
2444,D7,357.0,0.25,69,145.5
2445,D3,357.0,0.25,60,145.5
2446,A2,357.0,0.25,60,145.5
2447,F2,357.0,0.25,60,145.5
2448,D6,357.25,0.25,70,145.5
2449,F3,357.25,0.25,59,145.5
2450,D7,357.5,0.25,69,145.5
2451,A6,357.5,0.25,69,145.5
2452,F6,357.5,0.25,69,145.5
2453,F2,357.5,0.25,60,145.5
2454,A2,357.5,0.25,60,145.5
2455,D3,357.5,0.25,60,145.5
2456,D6,357.75,0.25,70,145.5
2457,F3,357.75,0.25,57,145.5
2458,C7,358.0,0.25,67,145.5
2459,G6,358.0,0.25,67,145.5
2460,E6,358.0,0.25,67,145.5
2461,G2,358.0,0.25,57,145.5
2462,C3,358.0,0.25,57,145.5
2463,E3,358.0,0.25,57,145.5
2464,C6,358.25,0.25,68,145.5
2465,G3,358.25,0.25,57,145.5
2466,C7,358.5,0.25,67,145.5
2467,G6,358.5,0.25,67,145.5
2468,E6,358.5,0.25,67,145.5
2469,G2,358.5,0.25,57,145.5
2470,C3,358.5,0.25,57,145.5
2471,E3,358.5,0.25,57,145.5
2472,C6,358.75,0.25,68,145.5
2473,G3,358.75,0.25,56,145.5
2474,B6,359.0,0.25,67,145.5
2475,G6,359.0,0.25,67,145.5
2476,D6,359.0,0.25,67,145.5
2477,G2,359.0,0.25,57,145.5
2478,B2,359.0,0.25,57,145.5
2479,D3,359.0,0.25,57,145.5
2480,B5,359.25,0.25,69,145.5
2481,G3,359.25,0.25,57,145.5
2482,B6,359.5,0.25,67,145.5
2483,G6,359.5,0.25,67,145.5
2484,D6,359.5,0.25,67,145.5
2485,G2,359.5,0.25,57,145.5
2486,B2,359.5,0.25,57,145.5
2487,D3,359.5,0.25,57,145.5
2488,B5,359.75,0.25,68,145.5
2489,G3,359.75,0.25,57,145.5
2490,C6,360.0,0.25,67,145.5
2491,E6,360.0,0.25,67,145.5
2492,G6,360.0,0.25,67,145.5
2493,C4,360.0,0.25,57,145.5
2494,G3,360.0,0.25,57,145.5
2495,E3,360.0,0.25,57,145.5
2496,G5,360.25,0.25,66,145.5
2497,E4,360.25,0.25,55,145.5
2498,G6,360.5,0.25,67,145.5
2499,E6,360.5,0.25,67,145.5
2500,C6,360.5,0.25,67,145.5
2501,C4,360.5,0.25,57,145.5
2502,G3,360.5,0.25,57,145.5
2503,E3,360.5,0.25,57,145.5
2504,G5,360.75,0.25,66,145.5
2505,E4,360.75,0.25,55,145.5
2506,A5,361.0,0.25,69,145.5
2507,D6,361.0,0.25,69,145.5
2508,F6,361.0,0.25,69,145.5
2509,D4,361.0,0.25,60,145.5
2510,A3,361.0,0.25,60,145.5
2511,F3,361.0,0.25,60,145.5
2512,F5,361.25,0.25,69,145.5
2513,F4,361.25,0.25,58,145.5
2514,F6,361.5,0.25,69,145.5
2515,D6,361.5,0.25,69,145.5
2516,A5,361.5,0.25,69,145.5
2517,D4,361.5,0.25,60,145.5
2518,A3,361.5,0.25,60,145.5
2519,F3,361.5,0.25,60,145.5
2520,F5,361.75,0.25,70,145.5
2521,F4,361.75,0.25,56,145.5
2522,G5,362.0,0.25,70,145.5
2523,C6,362.0,0.25,70,145.5
2524,E6,362.0,0.25,70,145.5
2525,E4,362.0,0.25,63,145.5
2526,C4,362.0,0.25,63,145.5
2527,G3,362.0,0.25,63,145.5
2528,E5,362.25,0.25,71,145.5
2529,G4,362.25,0.25,61,145.5
2530,G5,362.5,0.25,71,145.5
2531,C6,362.5,0.25,71,145.5
2532,E6,362.5,0.25,71,145.5
2533,E4,362.5,0.25,62,145.5
2534,C4,362.5,0.25,62,145.5
2535,G3,362.5,0.25,62,145.5
2536,E5,362.75,0.25,70,145.5
2537,G4,362.75,0.25,59,145.5
2538,G5,363.0,0.25,71,145.5
2539,B5,363.0,0.25,71,145.5
2540,D6,363.0,0.25,71,145.5
2541,F4,363.0,0.25,63,145.5
2542,D4,363.0,0.25,63,145.5
2543,G3,363.0,0.25,63,145.5
2544,D5,363.25,0.25,74,145.5
2545,G4,363.25,0.25,64,145.5
2546,G5,363.5,0.25,72,145.5
2547,B5,363.5,0.25,72,145.5
2548,D6,363.5,0.25,72,145.5
2549,F4,363.5,0.25,67,145.5
2550,D4,363.5,0.25,67,145.5
2551,G3,363.5,0.25,67,145.5
2552,D5,363.75,0.25,74,145.5
2553,G4,363.75,0.25,63,145.5
2554,E6,364.0,0.25,78,145.5
2555,C2,364.0,1.0,76,145.5
2556,C3,364.0,1.0,76,145.5
2557,C7,364.25,0.25,76,145.5
2558,G6,364.5,0.25,76,145.5
2559,E6,364.75,0.25,75,145.5
2560,C6,365.0,73/250,74,145.5
2561,E2,365.0,0.188,66,145.5
2562,E3,365.0,0.188,66,145.5
2563,G5,365.25,73/250,73,145.5
2564,E5,365.5,73/250,72,145.5
2565,E2,365.5,0.188,66,145.5
2566,E3,365.5,0.188,66,145.5
2567,C5,365.75,73/250,72,145.5
2568,D6,366.0,0.25,72,145.5
2569,G2,366.0,1.0,72,145.5
2570,G3,366.0,1.0,72,145.5
2571,B6,366.25,0.25,76,145.5
2572,G6,366.5,0.25,72,145.5
2573,F6,366.75,0.25,68,145.5
2574,B5,367.0,73/250,74,145.5
2575,G1,367.0,0.188,68,145.5
2576,G2,367.0,0.188,68,145.5
2577,G5,367.25,73/250,68,145.5
2578,F5,367.5,73/250,74,145.5
2579,G1,367.5,0.188,68,145.5
2580,G2,367.5,0.188,68,145.5
2581,B4,367.75,0.25,71,145.5
2582,D6,368.0,0.25,72,145.5
2583,B4,368.0,21/500,71,145.5
2584,D2,368.0,1.0,73,145.5
2585,D3,368.0,1.0,73,145.5
2586,D7,368.25,0.25,76,145.5
2587,A6,368.5,0.25,76,145.5
2588,F6,368.75,0.25,75,145.5
2589,D6,369.0,73/250,74,145.5
2590,F2,369.0,0.188,66,145.5
2591,F3,369.0,0.188,66,145.5
2592,A5,369.25,73/250,73,145.5
2593,F5,369.5,73/250,72,145.5
2594,F2,369.5,0.188,66,145.5
2595,F3,369.5,0.188,66,145.5
2596,D5,369.75,73/250,72,145.5
2597,C#6,370.0,0.25,72,145.5
2598,A2,370.0,1.0,72,145.5
2599,A3,370.0,1.0,72,145.5
2600,C#7,370.25,0.25,76,145.5
2601,A6,370.5,0.25,72,145.5
2602,G6,370.75,0.25,68,145.5
2603,C#6,371.0,73/250,74,145.5
2604,A1,371.0,0.188,68,145.5
2605,A2,371.0,0.188,68,145.5
2606,A5,371.25,73/250,68,145.5
2607,G5,371.5,73/250,74,145.5
2608,A1,371.5,0.188,68,145.5
2609,A2,371.5,0.188,68,145.5
2610,C#5,371.75,0.25,71,145.5
2611,F6,372.0,0.25,72,145.5
2612,C#5,372.0,21/500,71,145.5
2613,F2,372.0,1.0,73,145.5
2614,F3,372.0,1.0,73,145.5
2615,F7,372.25,0.25,76,145.5
2616,C7,372.5,0.25,76,145.5
2617,A6,372.75,0.25,75,145.5
2618,F6,373.0,73/250,74,145.5
2619,A2,373.0,0.188,66,145.5
2620,A3,373.0,0.188,66,145.5
2621,C6,373.25,73/250,73,145.5
2622,A5,373.5,73/250,72,145.5
2623,A2,373.5,0.188,66,145.5
2624,A3,373.5,0.188,66,145.5
2625,F5,373.75,73/250,72,145.5
2626,E6,374.0,0.25,72,145.5
2627,C3,374.0,1.0,72,145.5
2628,C4,374.0,1.0,72,145.5
2629,E7,374.25,0.25,76,145.5
2630,C7,374.5,0.25,72,145.5
2631,G6,374.75,0.25,68,145.5
2632,E6,375.0,73/250,74,145.5
2633,C2,375.0,0.188,68,145.5
2634,C3,375.0,0.188,68,145.5
2635,C6,375.25,73/250,68,145.5
2636,G5,375.5,73/250,74,145.5
2637,C2,375.5,0.188,68,145.5
2638,C3,375.5,0.188,68,145.5
2639,E5,375.75,0.25,71,145.5
2640,E5,376.0,21/500,71,145.5
2641,E2,376.0,73/250,71,145.5
2642,C#6,376.0,1.0,76,145.5
2643,B-5,376.0,1.0,76,145.5
2644,G5,376.0,1.0,76,145.5
2645,G6,376.0,1.0,76,145.5
2646,B-2,376.25,73/250,64,145.5
2647,C#3,376.5,73/250,64,145.5
2648,E3,376.75,73/250,64,145.5
2649,E3,377.0,73/250,71,145.5
2650,C#5,377.0,0.5,63,145.5
2651,B-4,377.0,0.5,63,145.5
2652,G4,377.0,0.5,63,145.5
2653,G5,377.0,0.5,63,145.5
2654,B-3,377.25,73/250,66,145.5
2655,C#4,377.5,73/250,66,145.5
2656,C#5,377.5,0.5,63,145.5
2657,B-4,377.5,0.5,63,145.5
2658,G4,377.5,0.5,63,145.5
2659,G5,377.5,0.5,63,145.5
2660,E4,377.75,73/250,66,145.5
2661,F2,378.0,73/250,71,145.5
2662,D6,378.0,1.0,72,145.5
2663,B5,378.0,1.0,72,145.5
2664,G5,378.0,1.0,72,145.5
2665,G6,378.0,1.0,72,145.5
2666,B2,378.25,73/250,65,145.5
2667,D3,378.5,73/250,66,145.5
2668,F3,378.75,73/250,66,145.5
2669,F3,379.0,73/250,71,145.5
2670,D5,379.0,0.5,65,145.5
2671,B4,379.0,0.5,65,145.5
2672,G4,379.0,0.5,65,145.5
2673,G5,379.0,0.5,65,145.5
2674,B3,379.25,73/250,65,145.5
2675,D4,379.5,73/250,65,145.5
2676,D5,379.5,0.5,66,145.5
2677,B4,379.5,0.5,66,145.5
2678,G4,379.5,0.5,66,145.5
2679,G5,379.5,0.5,66,145.5
2680,F4,379.75,0.25,65,145.5
2681,E2,380.0,73/250,71,145.5
2682,F4,380.0,21/500,65,145.5
2683,C#6,380.0,1.0,76,145.5
2684,B-5,380.0,1.0,76,145.5
2685,G5,380.0,1.0,76,145.5
2686,G6,380.0,1.0,76,145.5
2687,B-2,380.25,73/250,64,145.5
2688,C#3,380.5,73/250,64,145.5
2689,E3,380.75,73/250,64,145.5
2690,E3,381.0,73/250,71,145.5
2691,C#5,381.0,0.5,63,145.5
2692,B-4,381.0,0.5,63,145.5
2693,G4,381.0,0.5,63,145.5
2694,G5,381.0,0.5,63,145.5
2695,B-3,381.25,73/250,66,145.5
2696,C#4,381.5,73/250,66,145.5
2697,C#5,381.5,0.5,63,145.5
2698,B-4,381.5,0.5,63,145.5
2699,G4,381.5,0.5,63,145.5
2700,G5,381.5,0.5,63,145.5
2701,E4,381.75,73/250,66,145.5
2702,F2,382.0,73/250,71,145.5
2703,D6,382.0,1.0,72,145.5
2704,B5,382.0,1.0,72,145.5
2705,G5,382.0,1.0,72,145.5
2706,G6,382.0,1.0,72,145.5
2707,B2,382.25,73/250,65,145.5
2708,D3,382.5,73/250,66,145.5
2709,F3,382.75,73/250,66,145.5
2710,F3,383.0,73/250,71,145.5
2711,D5,383.0,0.5,65,145.5
2712,B4,383.0,0.5,65,145.5
2713,G4,383.0,0.5,65,145.5
2714,G5,383.0,0.5,65,145.5
2715,B3,383.25,73/250,65,145.5
2716,D4,383.5,73/250,65,145.5
2717,D5,383.5,0.5,66,145.5
2718,B4,383.5,0.5,66,145.5
2719,G4,383.5,0.5,66,145.5
2720,G5,383.5,0.5,66,145.5
2721,F4,383.75,0.25,65,145.5
2722,F4,384.0,21/500,65,145.5
2723,G6,384.0,0.25,70,145.5
2724,C7,384.0,0.25,70,145.5
2725,C4,384.0,0.25,60,145.5
2726,G3,384.0,0.25,60,145.5
2727,E3,384.0,0.25,60,145.5
2728,C6,384.25,0.25,71,145.5
2729,E4,384.25,0.25,58,145.5
2730,C7,384.5,0.25,70,145.5
2731,G6,384.5,0.25,70,145.5
2732,C4,384.5,0.25,60,145.5
2733,G3,384.5,0.25,60,145.5
2734,E3,384.5,0.25,60,145.5
2735,C6,384.75,0.25,69,145.5
2736,E4,384.75,0.25,57,145.5
2737,C6,385.0,0.25,67,145.5
2738,F6,385.0,0.25,67,145.5
2739,A6,385.0,0.25,67,145.5
2740,C4,385.0,0.25,59,145.5
2741,A3,385.0,0.25,59,145.5
2742,F3,385.0,0.25,59,145.5
2743,A5,385.25,0.25,68,145.5
2744,F4,385.25,0.25,57,145.5
2745,A6,385.5,0.25,66,145.5
2746,F6,385.5,0.25,66,145.5
2747,C6,385.5,0.25,66,145.5
2748,C4,385.5,0.25,59,145.5
2749,A3,385.5,0.25,59,145.5
2750,F3,385.5,0.25,59,145.5
2751,A5,385.75,0.25,67,145.5
2752,F4,385.75,0.25,55,145.5
2753,C6,386.0,0.25,66,145.5
2754,E6,386.0,0.25,66,145.5
2755,G6,386.0,0.25,66,145.5
2756,E4,386.0,0.25,58,145.5
2757,C4,386.0,0.25,58,145.5
2758,G3,386.0,0.25,58,145.5
2759,G5,386.25,0.25,67,145.5
2760,G4,386.25,0.25,55,145.5
2761,C6,386.5,0.25,66,145.5
2762,E6,386.5,0.25,66,145.5
2763,G6,386.5,0.25,66,145.5
2764,E4,386.5,0.25,58,145.5
2765,C4,386.5,0.25,58,145.5
2766,G3,386.5,0.25,58,145.5
2767,G5,386.75,0.25,66,145.5
2768,G4,386.75,0.25,56,145.5
2769,B5,387.0,0.25,65,145.5
2770,D6,387.0,0.25,65,145.5
2771,G6,387.0,0.25,65,145.5
2772,F4,387.0,0.25,57,145.5
2773,D4,387.0,0.25,57,145.5
2774,G3,387.0,0.25,57,145.5
2775,G5,387.25,0.25,65,145.5
2776,G4,387.25,0.25,55,145.5
2777,B5,387.5,0.25,64,145.5
2778,D6,387.5,0.25,64,145.5
2779,G6,387.5,0.25,64,145.5
2780,F4,387.5,0.25,56,145.5
2781,D4,387.5,0.25,56,145.5
2782,G3,387.5,0.25,56,145.5
2783,G5,387.75,0.25,65,145.5
2784,G4,387.75,0.25,54,145.5
2785,E6,388.0,0.25,46,145.5
2786,C2,388.0,1.0,49,145.5
2787,C7,388.25,0.25,49,145.5
2788,G6,388.5,0.25,49,145.5
2789,E6,388.75,0.25,48,145.5
2790,C6,389.0,73/250,48,145.5
2791,E3,389.0,0.188,42,145.5
2792,C4,389.0,0.188,42,145.5
2793,G5,389.25,73/250,47,145.5
2794,E5,389.5,73/250,46,145.5
2795,E3,389.5,0.188,42,145.5
2796,C4,389.5,0.188,42,145.5
2797,C5,389.75,73/250,46,145.5
2798,D6,390.0,0.25,46,145.5
2799,G3,390.0,1.0,42,145.5
2800,D4,390.0,1.0,42,145.5
2801,B6,390.25,0.25,49,145.5
2802,G6,390.5,0.25,46,145.5
2803,F6,390.75,0.25,44,145.5
2804,B5,391.0,73/250,48,145.5
2805,G2,391.0,0.188,47,145.5
2806,G5,391.25,73/250,44,145.5
2807,F5,391.5,73/250,48,145.5
2808,G2,391.5,0.188,48,145.5
2809,B4,391.75,0.25,46,145.5
2810,D6,392.0,0.25,46,145.5
2811,B4,392.0,21/500,46,145.5
2812,D2,392.0,1.0,49,145.5
2813,D7,392.25,0.25,49,145.5
2814,A6,392.5,0.25,49,145.5
2815,F6,392.75,0.25,48,145.5
2816,D6,393.0,73/250,48,145.5
2817,F3,393.0,0.188,42,145.5
2818,D4,393.0,0.188,42,145.5
2819,A5,393.25,73/250,47,145.5
2820,F5,393.5,73/250,46,145.5
2821,F3,393.5,0.188,42,145.5
2822,D4,393.5,0.188,42,145.5
2823,D5,393.75,73/250,46,145.5
2824,C#6,394.0,0.25,46,145.5
2825,A3,394.0,1.0,42,145.5
2826,E4,394.0,1.0,42,145.5
2827,C#7,394.25,0.25,49,145.5
2828,A6,394.5,0.25,46,145.5
2829,G6,394.75,0.25,44,145.5
2830,C#6,395.0,73/250,48,145.5
2831,A2,395.0,0.188,47,145.5
2832,A5,395.25,73/250,44,145.5
2833,G5,395.5,73/250,48,145.5
2834,A2,395.5,0.188,48,145.5
2835,C#5,395.75,0.25,46,145.5
2836,F6,396.0,0.25,50,145.5
2837,C#5,396.0,21/500,46,145.5
2838,F2,396.0,1.0,53,145.5
2839,F7,396.25,0.25,55,145.5
2840,C7,396.5,0.25,56,145.5
2841,A6,396.75,0.25,57,145.5
2842,F6,397.0,73/250,58,145.5
2843,A3,397.0,0.188,52,145.5
2844,F4,397.0,0.188,52,145.5
2845,C6,397.25,73/250,58,145.5
2846,A5,397.5,73/250,58,145.5
2847,A3,397.5,0.188,54,145.5
2848,F4,397.5,0.188,54,145.5
2849,F5,397.75,73/250,60,145.5
2850,E6,398.0,0.25,62,145.5
2851,C4,398.0,1.0,57,145.5
2852,G4,398.0,1.0,57,145.5
2853,E7,398.25,0.25,67,145.5
2854,C7,398.5,0.25,64,145.5
2855,G6,398.75,0.25,63,145.5
2856,E6,399.0,73/250,70,145.5
2857,C3,399.0,0.188,69,145.5
2858,C6,399.25,73/250,66,145.5
2859,G5,399.5,73/250,73,145.5
2860,C3,399.5,0.188,73,145.5
2861,E5,399.75,0.25,71,145.5
2862,E5,400.0,21/500,71,145.5
2863,E2,400.0,0.25,71,145.5
2864,C#6,400.0,1.0,76,145.5
2865,B-5,400.0,1.0,76,145.5
2866,G5,400.0,1.0,76,145.5
2867,G6,400.0,1.0,76,145.5
2868,B-2,400.25,0.25,64,145.5
2869,C#3,400.5,0.25,64,145.5
2870,E3,400.75,0.25,64,145.5
2871,E3,401.0,0.25,71,145.5
2872,C#5,401.0,0.5,63,145.5
2873,B-4,401.0,0.5,63,145.5
2874,G4,401.0,0.5,63,145.5
2875,G5,401.0,0.5,63,145.5
2876,B-3,401.25,0.25,66,145.5
2877,C#4,401.5,0.25,66,145.5
2878,C#5,401.5,0.5,63,145.5
2879,B-4,401.5,0.5,63,145.5
2880,G4,401.5,0.5,63,145.5
2881,G5,401.5,0.5,63,145.5
2882,E4,401.75,0.25,66,145.5
2883,F2,402.0,0.25,71,145.5
2884,D6,402.0,1.0,76,145.5
2885,B5,402.0,1.0,76,145.5
2886,G#5,402.0,1.0,76,145.5
2887,G#6,402.0,1.0,76,145.5
2888,B2,402.25,0.25,65,145.5
2889,D3,402.5,0.25,66,145.5
2890,F3,402.75,0.25,66,145.5
2891,F3,403.0,0.25,71,145.5
2892,D5,403.0,0.5,65,145.5
2893,B4,403.0,0.5,65,145.5
2894,G#4,403.0,0.5,65,145.5
2895,G#5,403.0,0.5,65,145.5
2896,B3,403.25,0.25,65,145.5
2897,D4,403.5,0.25,65,145.5
2898,D5,403.5,0.5,66,145.5
2899,B4,403.5,0.5,66,145.5
2900,G#4,403.5,0.5,66,145.5
2901,G#5,403.5,0.5,66,145.5
2902,F4,403.75,0.25,65,145.5
2903,F#2,404.0,0.25,71,145.5
2904,E-6,404.0,1.0,76,145.5
2905,C6,404.0,1.0,76,145.5
2906,A5,404.0,1.0,76,145.5
2907,A6,404.0,1.0,76,145.5
2908,C3,404.25,0.25,64,145.5
2909,E-3,404.5,0.25,64,145.5
2910,F#3,404.75,0.25,64,145.5
2911,F#3,405.0,0.25,71,145.5
2912,E-5,405.0,0.5,63,145.5
2913,C5,405.0,0.5,63,145.5
2914,A4,405.0,0.5,63,145.5
2915,A5,405.0,0.5,63,145.5
2916,C4,405.25,0.25,66,145.5
2917,E-4,405.5,0.25,66,145.5
2918,E-5,405.5,0.5,63,145.5
2919,C5,405.5,0.5,63,145.5
2920,A4,405.5,0.5,63,145.5
2921,A5,405.5,0.5,63,145.5
2922,F#4,405.75,0.25,66,145.5
2923,G2,406.0,0.25,71,145.5
2924,E6,406.0,1.0,78,145.5
2925,C#6,406.0,1.0,78,145.5
2926,B-5,406.0,1.0,78,145.5
2927,B-6,406.0,1.0,78,145.5
2928,C#3,406.25,0.25,65,145.5
2929,E3,406.5,0.25,66,145.5
2930,G3,406.75,0.25,66,145.5
2931,G3,407.0,0.25,71,145.5
2932,E5,407.0,0.5,66,145.5
2933,C#5,407.0,0.5,66,145.5
2934,B-4,407.0,0.5,66,145.5
2935,B-5,407.0,0.5,66,145.5
2936,C#4,407.25,0.25,65,145.5
2937,E4,407.5,0.25,65,145.5
2938,E5,407.5,0.5,67,145.5
2939,C#5,407.5,0.5,67,145.5
2940,B-4,407.5,0.5,67,145.5
2941,B-5,407.5,0.5,67,145.5
2942,G4,407.75,0.25,65,145.5
2943,G#2,408.0,0.25,63,145.5
2944,F5,408.0,1.0,74,145.5
2945,D5,408.0,1.0,74,145.5
2946,B4,408.0,1.0,74,145.5
2947,B5,408.0,1.0,74,145.5
2948,D3,408.25,0.25,57,145.5
2949,F3,408.5,0.25,58,145.5
2950,G#3,408.75,0.25,58,145.5
2951,A3,409.0,0.25,66,145.5
2952,F#5,409.0,0.5,64,145.5
2953,E-5,409.0,0.5,64,145.5
2954,C5,409.0,0.5,64,145.5
2955,C6,409.0,0.5,64,145.5
2956,E-4,409.25,0.25,62,145.5
2957,F#4,409.5,0.25,62,145.5
2958,E-5,409.5,0.5,66,145.5
2959,F#5,409.5,0.5,66,145.5
2960,C5,409.5,0.5,66,145.5
2961,C6,409.5,0.5,66,145.5
2962,A4,409.75,0.25,63,145.5
2963,B-2,410.0,0.25,68,145.5
2964,G5,410.0,1.0,76,145.5
2965,E5,410.0,1.0,76,145.5
2966,C#5,410.0,1.0,76,145.5
2967,C#6,410.0,1.0,76,145.5
2968,E3,410.25,0.25,63,145.5
2969,G3,410.5,0.25,65,145.5
2970,B-3,410.75,0.25,66,145.5
2971,B3,411.0,0.25,71,145.5
2972,G#5,411.0,0.5,65,145.5
2973,F5,411.0,0.5,65,145.5
2974,D5,411.0,0.5,65,145.5
2975,D6,411.0,0.5,65,145.5
2976,F4,411.25,0.25,66,145.5
2977,G#4,411.5,0.25,66,145.5
2978,G#5,411.5,0.5,67,145.5
2979,F5,411.5,0.5,67,145.5
2980,D5,411.5,0.5,67,145.5
2981,D6,411.5,0.5,67,145.5
2982,B4,411.75,0.25,67,145.5
2983,C3,412.0,0.25,74,145.5
2984,E-5,412.0,0.5,74,145.5
2985,F#5,412.0,0.5,74,145.5
2986,A5,412.0,0.5,74,145.5
2987,E-6,412.0,0.5,74,145.5
2988,F#3,412.25,0.25,67,145.5
2989,A3,412.5,0.25,67,145.5
2990,E-5,412.5,0.5,74,145.5
2991,F#5,412.5,0.5,74,145.5
2992,A5,412.5,0.5,74,145.5
2993,E-6,412.5,0.5,74,145.5
2994,C4,412.75,0.25,68,145.5
2995,C#3,413.0,0.25,76,145.5
2996,E5,413.0,0.5,76,145.5
2997,G5,413.0,0.5,76,145.5
2998,B-5,413.0,0.5,76,145.5
2999,E6,413.0,0.5,76,145.5
3000,G3,413.25,0.25,71,145.5
3001,B-3,413.5,0.25,72,145.5
3002,E5,413.5,0.5,77,145.5
3003,G5,413.5,0.5,77,145.5
3004,B-5,413.5,0.5,77,145.5
3005,E6,413.5,0.5,77,145.5
3006,C#4,413.75,0.25,73,145.5
3007,D3,414.0,0.25,79,145.5
3008,F5,414.0,0.5,78,145.5
3009,G#5,414.0,0.5,78,145.5
3010,B5,414.0,0.5,78,145.5
3011,F6,414.0,0.5,78,145.5
3012,G#3,414.25,0.25,73,145.5
3013,B3,414.5,0.25,75,145.5
3014,F5,414.5,0.5,79,145.5
3015,G#5,414.5,0.5,79,145.5
3016,B5,414.5,0.5,79,145.5
3017,F6,414.5,0.5,79,145.5
3018,D4,414.75,0.25,75,145.5
3019,F4,415.0,0.25,82,145.5
3020,F5,415.0,0.5,81,145.5
3021,G#5,415.0,0.5,81,145.5
3022,B5,415.0,0.5,81,145.5
3023,F6,415.0,0.5,81,145.5
3024,B3,415.25,0.25,76,145.5
3025,D4,415.5,0.25,76,145.5
3026,F5,415.5,0.5,82,145.5
3027,G#5,415.5,0.5,82,145.5
3028,B5,415.5,0.5,82,145.5
3029,F6,415.5,0.5,82,145.5
3030,F4,415.75,0.25,77,145.5
3031,F5,416.0,1.0,88,145.5
3032,B5,416.0,1.0,88,145.5
3033,D6,416.0,1.0,88,145.5
3034,F6,416.0,1.0,88,145.5
3035,G#3,416.0,1.0,72,145.5
3036,G#4,416.0,1.0,72,145.5
3037,E5,418.0,1.0,88,145.5
3038,A5,418.0,1.0,88,145.5
3039,C6,418.0,1.0,88,145.5
3040,E6,418.0,1.0,88,145.5
3041,A3,418.0,1.0,72,145.5
3042,A4,418.0,1.0,72,145.5
3043,D5,420.0,1.0,88,145.5
3044,A5,420.0,1.0,88,145.5
3045,C6,420.0,1.0,88,145.5
3046,D6,420.0,1.0,88,145.5
3047,F2,420.0,1.0,68,145.5
3048,A2,420.0,1.0,68,145.5
3049,D3,420.0,1.0,68,145.5
3050,F3,420.0,1.0,68,145.5
3051,D5,422.0,1.0,88,145.5
3052,G5,422.0,1.0,88,145.5
3053,B5,422.0,1.0,88,145.5
3054,D6,422.0,1.0,88,145.5
3055,G2,422.0,1.0,68,145.5
3056,B2,422.0,1.0,68,145.5
3057,D3,422.0,1.0,68,145.5
3058,G3,422.0,1.0,68,145.5
3059,E3,424.0,0.25,50,145.5
3060,C2,424.0,0.25,32,145.5
3061,E4,424.25,0.25,32,145.5
3062,C3,424.25,0.25,26,145.5
3063,G2,424.5,0.25,26,145.5
3064,C4,424.5,0.25,32,145.5
3065,G3,424.5,0.25,32,145.5
3066,E4,424.75,0.25,32,145.5
3067,C3,424.75,0.25,26,145.5
3068,F#3,425.0,0.25,50,145.5
3069,G#2,425.0,0.25,32,145.5
3070,F#4,425.25,0.25,32,145.5
3071,E-3,425.25,0.25,26,145.5
3072,C3,425.5,0.25,25,145.5
3073,C4,425.5,0.25,32,145.5
3074,E-4,425.5,0.25,32,145.5
3075,F#4,425.75,0.25,32,145.5
3076,E-3,425.75,0.25,25,145.5
3077,G3,426.0,0.25,51,145.5
3078,G2,426.0,0.25,32,145.5
3079,G4,426.25,0.25,32,145.5
3080,E3,426.25,0.25,26,145.5
3081,C3,426.5,0.25,26,145.5
3082,C4,426.5,0.25,32,145.5
3083,E4,426.5,0.25,32,145.5
3084,G4,426.75,0.25,32,145.5
3085,E3,426.75,0.25,27,145.5
3086,G3,427.0,0.25,50,145.5
3087,G2,427.0,0.25,33,145.5
3088,G4,427.25,0.25,33,145.5
3089,F3,427.25,0.25,27,145.5
3090,D3,427.5,0.25,27,145.5
3091,B3,427.5,0.25,33,145.5
3092,D4,427.5,0.25,33,145.5
3093,G4,427.75,0.25,33,145.5
3094,F3,427.75,0.25,27,145.5
3095,C4,428.0,0.25,59,145.5
3096,C3,428.0,0.25,33,145.5
3097,C5,428.25,0.25,33,145.5
3098,G3,428.25,0.25,27,145.5
3099,E3,428.5,0.25,27,145.5
3100,G4,428.5,0.25,33,145.5
3101,E4,428.5,0.25,33,145.5
3102,C5,428.75,0.25,33,145.5
3103,G3,428.75,0.25,27,145.5
3104,C4,429.0,0.25,55,145.5
3105,G#2,429.0,0.25,33,145.5
3106,C5,429.25,0.25,33,145.5
3107,F#3,429.25,0.25,27,145.5
3108,E-3,429.5,0.25,26,145.5
3109,E-4,429.5,0.25,33,145.5
3110,F#4,429.5,0.25,33,145.5
3111,C5,429.75,0.25,34,145.5
3112,F#3,429.75,0.25,26,145.5
3113,C4,430.0,0.25,55,145.5
3114,G2,430.0,0.25,34,145.5
3115,C5,430.25,0.25,34,145.5
3116,G3,430.25,0.25,27,145.5
3117,E4,430.5,0.25,34,145.5
3118,G4,430.5,0.25,34,145.5
3119,C3,430.5,0.25,28,145.5
3120,E3,430.5,0.25,28,145.5
3121,C5,430.75,0.25,34,145.5
3122,G3,430.75,0.25,29,145.5
3123,B3,431.0,0.25,53,145.5
3124,G2,431.0,0.25,35,145.5
3125,B4,431.25,0.25,34,145.5
3126,G3,431.25,0.25,28,145.5
3127,D4,431.5,0.25,34,145.5
3128,G4,431.5,0.25,34,145.5
3129,B2,431.5,0.25,28,145.5
3130,D3,431.5,0.25,28,145.5
3131,B4,431.75,0.25,34,145.5
3132,G3,431.75,0.25,28,145.5
3133,E4,432.0,0.25,61,145.5
3134,C3,432.0,0.25,41,145.5
3135,E5,432.25,0.25,41,145.5
3136,C4,432.25,0.25,33,145.5
3137,G3,432.5,0.25,33,145.5
3138,C5,432.5,0.25,41,145.5
3139,G4,432.5,0.25,41,145.5
3140,E5,432.75,0.25,41,145.5
3141,C4,432.75,0.25,33,145.5
3142,F#4,433.0,0.25,63,145.5
3143,G#3,433.0,0.25,42,145.5
3144,F#5,433.25,0.25,42,145.5
3145,E-4,433.25,0.25,34,145.5
3146,C4,433.5,0.25,33,145.5
3147,C5,433.5,0.25,42,145.5
3148,E-5,433.5,0.25,42,145.5
3149,F#5,433.75,0.25,42,145.5
3150,E-4,433.75,0.25,33,145.5
3151,G4,434.0,0.25,66,145.5
3152,G3,434.0,0.25,43,145.5
3153,G5,434.25,0.25,43,145.5
3154,E4,434.25,0.25,35,145.5
3155,C4,434.5,0.25,35,145.5
3156,C5,434.5,0.25,43,145.5
3157,E5,434.5,0.25,43,145.5
3158,G5,434.75,0.25,44,145.5
3159,E4,434.75,0.25,37,145.5
3160,G4,435.0,0.25,67,145.5
3161,G3,435.0,0.25,46,145.5
3162,G5,435.25,0.25,44,145.5
3163,F4,435.25,0.25,36,145.5
3164,D4,435.5,0.25,37,145.5
3165,B4,435.5,0.25,45,145.5
3166,D5,435.5,0.25,45,145.5
3167,G5,435.75,0.25,46,145.5
3168,F4,435.75,0.25,37,145.5
3169,C5,436.0,0.25,73,145.5
3170,C4,436.0,0.25,47,145.5
3171,C6,436.25,0.25,47,145.5
3172,G4,436.25,0.25,37,145.5
3173,E4,436.5,0.25,38,145.5
3174,G5,436.5,0.25,47,145.5
3175,E5,436.5,0.25,47,145.5
3176,C6,436.75,0.25,47,145.5
3177,G4,436.75,0.25,38,145.5
3178,C5,437.0,0.25,72,145.5
3179,G#3,437.0,0.25,48,145.5
3180,C6,437.25,0.25,48,145.5
3181,F#4,437.25,0.25,39,145.5
3182,E-4,437.5,0.25,38,145.5
3183,E-5,437.5,0.25,48,145.5
3184,F#5,437.5,0.25,48,145.5
3185,C6,437.75,0.25,48,145.5
3186,F#4,437.75,0.25,38,145.5
3187,C5,438.0,0.25,74,145.5
3188,G3,438.0,0.25,50,145.5
3189,C6,438.25,0.25,49,145.5
3190,G4,438.25,0.25,40,145.5
3191,E5,438.5,0.25,49,145.5
3192,G5,438.5,0.25,49,145.5
3193,C4,438.5,0.25,40,145.5
3194,E4,438.5,0.25,40,145.5
3195,C6,438.75,0.25,50,145.5
3196,G4,438.75,0.25,42,145.5
3197,B4,439.0,0.25,69,145.5
3198,G3,439.0,0.25,52,145.5
3199,B5,439.25,0.25,50,145.5
3200,G4,439.25,0.25,41,145.5
3201,D5,439.5,0.25,51,145.5
3202,G5,439.5,0.25,51,145.5
3203,B3,439.5,0.25,42,145.5
3204,D4,439.5,0.25,42,145.5
3205,B5,439.75,0.25,52,145.5
3206,G4,439.75,0.25,42,145.5
3207,E5,440.0,0.25,71,145.5
3208,C4,440.0,0.25,49,145.5
3209,E6,440.25,0.25,49,145.5
3210,C5,440.25,0.25,39,145.5
3211,G4,440.5,0.25,39,145.5
3212,C6,440.5,0.25,49,145.5
3213,G5,440.5,0.25,49,145.5
3214,E6,440.75,0.25,50,145.5
3215,C5,440.75,0.25,40,145.5
3216,F#5,441.0,0.25,72,145.5
3217,G#4,441.0,0.25,50,145.5
3218,F#6,441.25,0.25,50,145.5
3219,E-5,441.25,0.25,40,145.5
3220,C5,441.5,0.25,40,145.5
3221,C6,441.5,0.25,50,145.5
3222,E-6,441.5,0.25,50,145.5
3223,F#6,441.75,0.25,50,145.5
3224,E-5,441.75,0.25,40,145.5
3225,G5,442.0,0.25,74,145.5
3226,G4,442.0,0.25,52,145.5
3227,G6,442.25,0.25,51,145.5
3228,E5,442.25,0.25,42,145.5
3229,C5,442.5,0.25,42,145.5
3230,C6,442.5,0.25,51,145.5
3231,E6,442.5,0.25,51,145.5
3232,G6,442.75,0.25,52,145.5
3233,E5,442.75,0.25,44,145.5
3234,G5,443.0,0.25,75,145.5
3235,G4,443.0,0.25,55,145.5
3236,G6,443.25,0.25,52,145.5
3237,D5,443.25,0.25,43,145.5
3238,B4,443.5,0.25,43,145.5
3239,B5,443.5,0.25,53,145.5
3240,D6,443.5,0.25,53,145.5
3241,G6,443.75,0.25,54,145.5
3242,D5,443.75,0.25,44,145.5
3243,G5,444.0,0.25,79,145.5
3244,G3,444.0,0.25,60,145.5
3245,G6,444.25,0.25,60,145.5
3246,G4,444.25,0.25,48,145.5
3247,E6,444.5,0.25,61,145.5
3248,C6,444.5,0.25,61,145.5
3249,C4,444.5,0.25,48,145.5
3250,E4,444.5,0.25,48,145.5
3251,G6,444.75,0.25,62,145.5
3252,G4,444.75,0.25,49,145.5
3253,G5,445.0,0.25,84,145.5
3254,G3,445.0,0.25,62,145.5
3255,G6,445.25,0.25,63,145.5
3256,G4,445.25,0.25,50,145.5
3257,B5,445.5,0.25,63,145.5
3258,D6,445.5,0.25,63,145.5
3259,B3,445.5,0.25,49,145.5
3260,D4,445.5,0.25,49,145.5
3261,G6,445.75,0.25,64,145.5
3262,G4,445.75,0.25,52,145.5
3263,G5,446.0,0.25,90,145.5
3264,G2,446.0,0.25,67,145.5
3265,G6,446.25,0.25,66,145.5
3266,G3,446.25,0.25,55,145.5
3267,C6,446.5,0.25,67,145.5
3268,E6,446.5,0.25,67,145.5
3269,C3,446.5,0.25,55,145.5
3270,E3,446.5,0.25,55,145.5
3271,G6,446.75,0.25,69,145.5
3272,G3,446.75,0.25,57,145.5
3273,G5,447.0,0.25,93,145.5
3274,G2,447.0,0.25,73,145.5
3275,G6,447.25,0.25,70,145.5
3276,G3,447.25,0.25,58,145.5
3277,B5,447.5,0.25,71,145.5
3278,D6,447.5,0.25,71,145.5
3279,B2,447.5,0.25,58,145.5
3280,D3,447.5,0.25,58,145.5
3281,G6,447.75,0.25,74,145.5
3282,G3,447.75,0.25,60,145.5
3283,E6,448.0,0.25,87,145.5
3284,C6,448.0,0.25,87,145.5
3285,G5,448.0,0.25,87,145.5
3286,C2,448.0,0.5,70,145.5
3287,C3,448.0,0.5,70,145.5
3288,G6,448.25,0.25,89,145.5
3289,D6,448.5,0.25,87,145.5
3290,B5,448.5,0.25,87,145.5
3291,G5,448.5,0.25,87,145.5
3292,G1,448.5,0.5,64,145.5
3293,G2,448.5,0.5,64,145.5
3294,G6,448.75,0.25,91,145.5
3295,E6,449.0,0.25,90,145.5
3296,C6,449.0,0.25,90,145.5
3297,G5,449.0,0.25,90,145.5
3298,C2,449.0,0.5,72,145.5
3299,C3,449.0,0.5,72,145.5
3300,G6,449.25,0.25,93,145.5
3301,D6,449.5,0.25,91,145.5
3302,B5,449.5,0.25,91,145.5
3303,G5,449.5,0.25,91,145.5
3304,G1,449.5,0.5,66,145.5
3305,G2,449.5,0.5,66,145.5
3306,G6,449.75,0.25,94,145.5
3307,E6,450.0,0.25,92,145.5
3308,C6,450.0,0.25,92,145.5
3309,G5,450.0,0.25,92,145.5
3310,C2,450.0,0.5,75,145.5
3311,C3,450.0,0.5,75,145.5
3312,G6,450.25,0.25,96,145.5
3313,D6,450.5,0.25,94,145.5
3314,B5,450.5,0.25,94,145.5
3315,G5,450.5,0.25,94,145.5
3316,G1,450.5,0.5,69,145.5
3317,G2,450.5,0.5,69,145.5
3318,G6,450.75,0.25,101,145.5
3319,E6,451.0,0.25,96,145.5
3320,C6,451.0,0.25,96,145.5
3321,G5,451.0,0.25,96,145.5
3322,C2,451.0,0.5,78,145.5
3323,C3,451.0,0.5,78,145.5
3324,G6,451.25,0.25,99,145.5
3325,D6,451.5,0.25,97,145.5
3326,B5,451.5,0.25,97,145.5
3327,G5,451.5,0.25,97,145.5
3328,G1,451.5,0.5,70,145.5
3329,G2,451.5,0.5,70,145.5
3330,G6,451.75,0.25,100,145.5
3331,C5,452.0,0.25,92,145.5
3332,E5,452.0,0.25,92,145.5
3333,G5,452.0,0.25,92,145.5
3334,C6,452.0,0.25,92,145.5
3335,C2,452.0,0.25,78,145.5
3336,E2,452.0,0.25,78,145.5
3337,G2,452.0,0.25,78,145.5
3338,C3,452.0,0.25,78,145.5
3339,C6,452.5,0.25,83,145.5
3340,C5,452.5,0.25,68,145.5
3341,G5,452.75,0.25,81,145.5
3342,G4,452.75,0.25,67,145.5
3343,E5,453.0,0.25,81,145.5
3344,E4,453.0,0.25,65,145.5
3345,C5,453.25,0.25,80,145.5
3346,C4,453.25,0.25,64,145.5
3347,G4,453.5,0.25,78,145.5
3348,G3,453.5,0.25,63,145.5
3349,E4,453.75,0.25,76,145.5
3350,E3,453.75,0.25,63,145.5
3351,C4,454.0,0.25,73,145.5
3352,C3,454.0,0.25,60,145.5
3353,G3,454.25,0.25,74,145.5
3354,G2,454.25,0.25,61,145.5
3355,C4,454.5,0.25,75,145.5
3356,C3,454.5,0.25,62,145.5
3357,E4,454.75,0.25,76,145.5
3358,E3,454.75,0.25,63,145.5
3359,G4,455.0,0.25,77,145.5
3360,G3,455.0,0.25,64,145.5
3361,C5,455.25,0.25,78,145.5
3362,C4,455.25,0.25,65,145.5
3363,E5,455.5,0.25,79,145.5
3364,E4,455.5,0.25,66,145.5
3365,G5,455.75,0.25,80,145.5
3366,G4,455.75,0.25,67,145.5
3367,C5,456.0,0.25,89,145.5
3368,E5,456.0,0.25,89,145.5
3369,G5,456.0,0.25,89,145.5
3370,C6,456.0,0.25,89,145.5
3371,C4,456.0,0.25,71,145.5
3372,E4,456.0,0.25,71,145.5
3373,G4,456.0,0.25,71,145.5
3374,C5,456.0,0.25,71,145.5
3375,E6,456.5,0.25,83,145.5
3376,E5,456.5,0.25,68,145.5
3377,C6,456.75,0.25,81,145.5
3378,C5,456.75,0.25,67,145.5
3379,G5,457.0,0.25,81,145.5
3380,G4,457.0,0.25,65,145.5
3381,E5,457.25,0.25,80,145.5
3382,E4,457.25,0.25,64,145.5
3383,C5,457.5,0.25,78,145.5
3384,C4,457.5,0.25,63,145.5
3385,G4,457.75,0.25,76,145.5
3386,G3,457.75,0.25,63,145.5
3387,E4,458.0,0.25,73,145.5
3388,E3,458.0,0.25,60,145.5
3389,C4,458.25,0.25,74,145.5
3390,C3,458.25,0.25,61,145.5
3391,E4,458.5,0.25,75,145.5
3392,E3,458.5,0.25,62,145.5
3393,G4,458.75,0.25,76,145.5
3394,G3,458.75,0.25,63,145.5
3395,C5,459.0,0.25,77,145.5
3396,C4,459.0,0.25,64,145.5
3397,E5,459.25,0.25,78,145.5
3398,E4,459.25,0.25,65,145.5
3399,G5,459.5,0.25,79,145.5
3400,G4,459.5,0.25,66,145.5
3401,C6,459.75,0.25,80,145.5
3402,C5,459.75,0.25,67,145.5
3403,E5,460.0,0.25,89,145.5
3404,G5,460.0,0.25,89,145.5
3405,C6,460.0,0.25,89,145.5
3406,E6,460.0,0.25,89,145.5
3407,E4,460.0,0.25,71,145.5
3408,G4,460.0,0.25,71,145.5
3409,C5,460.0,0.25,71,145.5
3410,E5,460.0,0.25,71,145.5
3411,G6,460.5,0.25,83,145.5
3412,G5,460.5,0.25,68,145.5
3413,E6,460.75,0.25,81,145.5
3414,E5,460.75,0.25,67,145.5
3415,C6,461.0,0.25,81,145.5
3416,C5,461.0,0.25,65,145.5
3417,G5,461.25,0.25,80,145.5
3418,G4,461.25,0.25,64,145.5
3419,E5,461.5,0.25,78,145.5
3420,E4,461.5,0.25,63,145.5
3421,C5,461.75,0.25,76,145.5
3422,C4,461.75,0.25,63,145.5
3423,G4,462.0,0.25,73,145.5
3424,G3,462.0,0.25,60,145.5
3425,E4,462.25,0.25,74,145.5
3426,E3,462.25,0.25,61,145.5
3427,G4,462.5,0.25,75,145.5
3428,G3,462.5,0.25,62,145.5
3429,C5,462.75,0.25,76,145.5
3430,C4,462.75,0.25,63,145.5
3431,E5,463.0,0.25,77,145.5
3432,E4,463.0,0.25,64,145.5
3433,G5,463.25,0.25,78,145.5
3434,G4,463.25,0.25,65,145.5
3435,C6,463.5,0.25,79,145.5
3436,C5,463.5,0.25,66,145.5
3437,E6,463.75,0.25,80,145.5
3438,E5,463.75,0.25,67,145.5
3439,G5,464.0,0.25,89,145.5
3440,C6,464.0,0.25,89,145.5
3441,E6,464.0,0.25,89,145.5
3442,G6,464.0,0.25,89,145.5
3443,G4,464.0,0.25,71,145.5
3444,C5,464.0,0.25,71,145.5
3445,E5,464.0,0.25,71,145.5
3446,G5,464.0,0.25,71,145.5
3447,C7,464.5,0.25,83,145.5
3448,C6,464.5,0.25,68,145.5
3449,G6,464.75,0.25,81,145.5
3450,G5,464.75,0.25,67,145.5
3451,E6,465.0,0.25,81,145.5
3452,E5,465.0,0.25,65,145.5
3453,C6,465.25,0.25,80,145.5
3454,C5,465.25,0.25,64,145.5
3455,G5,465.5,0.25,78,145.5
3456,G4,465.5,0.25,63,145.5
3457,E5,465.75,0.25,76,145.5
3458,E4,465.75,0.25,63,145.5
3459,C5,466.0,0.25,73,145.5
3460,C4,466.0,0.25,60,145.5
3461,G4,466.25,0.25,74,145.5
3462,G3,466.25,0.25,61,145.5
3463,C5,466.5,0.25,75,145.5
3464,C4,466.5,0.25,62,145.5
3465,E5,466.75,0.25,76,145.5
3466,E4,466.75,0.25,63,145.5
3467,G5,467.0,0.25,77,145.5
3468,G4,467.0,0.25,64,145.5
3469,C6,467.25,0.25,78,145.5
3470,C5,467.25,0.25,65,145.5
3471,E6,467.5,0.25,79,145.5
3472,E5,467.5,0.25,66,145.5
3473,G6,467.75,0.25,80,145.5
3474,G5,467.75,0.25,67,145.5
3475,C6,468.0,0.25,89,145.5
3476,E6,468.0,0.25,89,145.5
3477,G6,468.0,0.25,89,145.5
3478,C7,468.0,0.25,89,145.5
3479,C5,468.0,0.25,71,145.5
3480,E5,468.0,0.25,71,145.5
3481,G5,468.0,0.25,71,145.5
3482,C6,468.0,0.25,71,145.5
3483,E7,468.5,0.25,89,145.5
3484,C4,468.5,0.25,73,145.5
3485,C7,468.75,0.25,87,145.5
3486,G3,468.75,0.25,71,145.5
3487,G6,469.0,0.25,84,145.5
3488,E3,469.0,0.25,69,145.5
3489,E6,469.25,0.25,81,145.5
3490,C3,469.25,0.25,67,145.5
3491,C6,469.5,0.25,79,145.5
3492,G2,469.5,0.25,65,145.5
3493,G5,469.75,0.25,76,145.5
3494,E2,469.75,0.25,63,145.5
3495,E5,470.0,0.25,73,145.5
3496,C2,470.0,0.25,60,145.5
3497,C5,470.25,0.25,74,145.5
3498,G1,470.25,0.25,61,145.5
3499,E5,470.5,0.25,75,145.5
3500,C2,470.5,0.25,62,145.5
3501,G5,470.75,0.25,76,145.5
3502,E2,470.75,0.25,63,145.5
3503,C6,471.0,0.25,77,145.5
3504,G2,471.0,0.25,64,145.5
3505,E6,471.25,0.25,78,145.5
3506,C3,471.25,0.25,65,145.5
3507,G6,471.5,0.25,79,145.5
3508,E3,471.5,0.25,66,145.5
3509,C7,471.75,0.25,80,145.5
3510,G3,471.75,0.25,67,145.5
3511,E6,472.0,1.0,91,145.5
3512,G6,472.0,1.0,91,145.5
3513,C7,472.0,1.0,91,145.5
3514,E7,472.0,1.0,91,145.5
3515,C3,472.0,1.0,74,145.5
3516,E3,472.0,1.0,74,145.5
3517,G3,472.0,1.0,74,145.5
3518,C4,472.0,1.0,74,145.5
3519,G5,474.0,1.0,93,145.5
3520,B5,474.0,1.0,93,145.5
3521,D6,474.0,1.0,93,145.5
3522,G6,474.0,1.0,93,145.5
3523,G2,474.0,1.0,74,145.5
3524,B2,474.0,1.0,74,145.5
3525,D3,474.0,1.0,74,145.5
3526,G3,474.0,1.0,74,145.5
3527,E5,476.0,1.0,93,145.5
3528,G5,476.0,1.0,93,145.5
3529,C6,476.0,1.0,93,145.5
3530,E6,476.0,1.0,93,145.5
3531,C3,476.0,1.0,74,145.5
3532,E3,476.0,1.0,74,145.5
3533,G3,476.0,1.0,74,145.5
3534,C4,476.0,1.0,74,145.5
3535,G5,478.0,1.0,93,145.5
3536,B5,478.0,1.0,93,145.5
3537,D6,478.0,1.0,93,145.5
3538,G6,478.0,1.0,93,145.5
3539,G2,478.0,1.0,74,145.5
3540,B2,478.0,1.0,74,145.5
3541,D3,478.0,1.0,74,145.5
3542,G3,478.0,1.0,74,145.5
3543,C5,480.0,0.25,56,145.5
3544,C3,480.0,0.25,45,145.5
3545,C6,480.25,0.25,57,145.5
3546,C4,480.25,0.25,48,145.5
3547,F#5,480.5,0.25,53,145.5
3548,E-5,480.5,0.25,53,145.5
3549,C5,480.5,0.25,53,145.5
3550,F#3,480.5,0.25,45,145.5
3551,E-3,480.5,0.25,45,145.5
3552,C3,480.5,0.25,45,145.5
3553,C6,480.75,0.25,63,145.5
3554,C4,480.75,0.25,53,145.5
3555,C5,481.0,0.25,58,145.5
3556,E5,481.0,0.25,58,145.5
3557,G5,481.0,0.25,58,145.5
3558,C3,481.0,0.25,50,145.5
3559,E3,481.0,0.25,50,145.5
3560,G3,481.0,0.25,50,145.5
3561,C6,481.25,0.25,67,145.5
3562,C4,481.25,0.25,59,145.5
3563,F#5,481.5,0.25,63,145.5
3564,E-5,481.5,0.25,63,145.5
3565,C5,481.5,0.25,63,145.5
3566,F#3,481.5,0.25,55,145.5
3567,E-3,481.5,0.25,55,145.5
3568,C3,481.5,0.25,55,145.5
3569,C6,481.75,0.25,72,145.5
3570,C4,481.75,0.25,64,145.5
3571,C5,482.0,0.25,66,145.5
3572,E5,482.0,0.25,66,145.5
3573,G5,482.0,0.25,66,145.5
3574,C3,482.0,0.25,59,145.5
3575,E3,482.0,0.25,59,145.5
3576,G3,482.0,0.25,59,145.5
3577,C6,482.25,0.25,77,145.5
3578,C4,482.25,0.25,70,145.5
3579,F#5,482.5,0.25,71,145.5
3580,E-5,482.5,0.25,71,145.5
3581,C5,482.5,0.25,71,145.5
3582,F#3,482.5,0.25,65,145.5
3583,E-3,482.5,0.25,65,145.5
3584,C3,482.5,0.25,65,145.5
3585,C6,482.75,0.25,83,145.5
3586,C4,482.75,0.25,75,145.5
3587,C5,483.0,0.25,76,145.5
3588,E5,483.0,0.25,76,145.5
3589,G5,483.0,0.25,76,145.5
3590,C3,483.0,0.25,69,145.5
3591,E3,483.0,0.25,69,145.5
3592,G3,483.0,0.25,69,145.5
3593,C6,483.25,0.25,82,145.5
3594,C4,483.25,0.25,74,145.5
3595,F#5,483.5,0.25,72,145.5
3596,E-5,483.5,0.25,72,145.5
3597,C5,483.5,0.25,72,145.5
3598,F#3,483.5,0.25,64,145.5
3599,E-3,483.5,0.25,64,145.5
3600,C3,483.5,0.25,64,145.5
3601,C6,483.75,0.25,78,145.5
3602,C4,483.75,0.25,70,145.5
3603,C5,484.0,1.0,85,145.5
3604,E5,484.0,1.0,85,145.5
3605,G5,484.0,1.0,85,145.5
3606,C6,484.0,1.0,85,145.5
3607,C3,484.0,1.0,67,145.5
3608,E3,484.0,1.0,67,145.5
3609,G3,484.0,1.0,67,145.5
3610,C4,484.0,1.0,67,145.5
3611,C6,486.0,1.0,93,145.5
3612,E6,486.0,1.0,93,145.5
3613,G6,486.0,1.0,93,145.5
3614,C7,486.0,1.0,93,145.5
3615,C4,486.0,1.0,74,145.5
3616,E4,486.0,1.0,74,145.5
3617,G4,486.0,1.0,74,145.5
3618,C5,486.0,1.0,74,145.5
3619,E3,488.0,2.0,95,145.5
3620,G3,488.0,2.0,95,145.5
3621,C4,488.0,2.0,95,145.5
3622,C2,488.0,2.0,74,145.5
3623,E2,488.0,2.0,74,145.5
3624,G2,488.0,2.0,74,145.5
3625,C3,488.0,2.0,74,145.5
