,note_name,start_time,duration,velocity,tempo
0,G#3,2.0,1.0,40,128.98
1,C5,2.0,1.0,49,128.98
2,E-4,2.0,1.0,49,128.98
3,G#4,2.0,1.0,49,128.98
4,C5,3.0,3.0,59,128.98
5,C#4,3.0,3.0,42,128.98
6,F4,3.0,3.0,47,128.98
7,G#4,3.0,3.0,47,128.98
8,C#4,6.0,1.0,42,128.98
9,B-4,7.0,1.0,56,128.98
10,F4,7.0,1.0,47,128.98
11,G#4,7.0,1.0,47,128.98
12,F4,8.0,1.0,42,128.98
13,C#4,8.0,1.0,42,128.98
14,C4,9.0,3.0,40,128.98
15,F4,9.0,3.0,45,128.98
16,F5,9.0,1.0,54,128.98
17,G4,9.0,1.0,54,128.98
18,B-4,9.0,1.0,54,128.98
19,F5,10.0,3.0,65,128.98
20,C5,10.0,3.0,52,128.98
21,G#4,10.0,3.0,52,128.98
22,E-4,12.0,1.0,43,128.98
23,C4,12.0,1.0,40,128.98
24,G#3,13.5,0.5,42,128.98
25,E-5,14.0,1.0,60,128.98
26,E-3,14.0,0.5,44,128.98
27,C5,14.0,1.0,52,128.98
28,G#4,14.0,1.0,52,128.98
29,C3,14.5,0.5,45,128.98
30,B-2,15.0,2.0,39,128.98
31,G3,15.0,2.0,39,128.98
32,E-3,15.0,2.0,39,128.98
33,C4,15.5,1.5,43,128.98
34,E-4,15.5,0.5,54,128.98
35,G#4,16.0,0.5,56,128.98
36,C5,16.5,0.5,58,128.98
37,G4,17.0,2.0,51,128.98
38,C#5,17.0,2.0,51,128.98
39,C#4,17.0,2.0,51,128.98
40,E-4,17.0,2.0,51,128.98
41,G#2,17.0,1.0,42,128.98
42,G#3,17.0,1.0,42,128.98
43,E-3,17.0,1.0,42,128.98
44,G2,18.0,2.0,43,128.98
45,E-3,18.0,2.0,43,128.98
46,G3,18.0,2.0,43,128.98
47,C4,19.0,1.0,53,128.98
48,C5,19.0,1.0,53,128.98
49,G#4,19.0,1.0,53,128.98
50,E-4,19.0,1.0,53,128.98
51,B-3,20.0,2.0,55,128.98
52,B-4,20.0,2.0,55,128.98
53,E-4,20.0,2.0,55,128.98
54,F2,20.0,1.0,45,128.98
55,B-2,20.0,1.0,45,128.98
56,F3,20.0,1.0,45,128.98
57,B-2,21.0,3.0,47,128.98
58,E-3,21.0,3.0,47,128.98
59,E-2,21.0,3.0,47,128.98
60,G#4,22.0,1.0,57,128.98
61,B-4,22.0,1.0,57,128.98
62,D4,22.0,1.0,57,128.98
63,D5,22.0,1.0,57,128.98
64,B-4,23.0,3.0,56,128.98
65,G#4,23.0,3.0,61,128.98
66,D4,23.0,3.0,61,128.98
67,D5,23.0,3.0,61,128.98
68,B-2,25.0,1.0,47,128.98
69,E-3,25.0,1.0,47,128.98
70,E-2,25.0,1.0,47,128.98
71,B-4,26.0,1.0,56,128.98
72,E-5,26.0,1.0,44,128.98
73,G4,26.0,1.0,44,128.98
74,E-4,26.0,1.0,44,128.98
75,G#3,27.0,1.0,37,128.98
76,C#4,28.0,3.0,41,128.98
77,C5,28.0,1.0,46,128.98
78,G#4,28.0,1.0,46,128.98
79,E-4,28.0,1.0,46,128.98
80,C5,29.0,3.0,58,128.98
81,G#4,29.0,3.0,46,128.98
82,F4,29.0,3.0,46,128.98
83,C#4,31.0,1.0,41,128.98
84,B-4,33.0,1.0,50,128.98
85,G#4,33.0,1.0,46,128.98
86,F4,33.0,1.0,46,128.98
87,C#2,33.0,1.0,42,128.98
88,C#3,33.0,1.0,42,128.98
89,C2,34.0,3.0,46,128.98
90,C3,34.0,3.0,46,128.98
91,G4,35.0,1.0,68,128.98
92,F5,35.0,1.0,68,128.98
93,B4,35.0,1.0,68,128.98
94,F5,36.0,3.0,85,128.98
95,G4,36.0,3.0,68,128.98
96,C5,36.0,3.0,68,128.98
97,C2,38.0,1.0,46,128.98
98,C3,38.0,1.0,46,128.98
99,E5,40.0,1.0,51,128.98
100,G4,40.0,1.0,68,128.98
101,C5,40.0,1.0,68,128.98
102,E4,40.0,1.0,34,128.98
103,C4,40.0,1.0,34,128.98
104,B-3,41.0,2.0,40,128.98
105,E-4,41.0,2.0,40,128.98
106,G4,42.0,1.0,46,128.98
107,C5,42.0,1.0,46,128.98
108,E5,42.0,1.0,46,128.98
109,E-5,43.0,2.0,49,128.98
110,C#5,43.0,2.0,49,128.98
111,G4,43.0,2.0,49,128.98
112,E-4,43.0,1.0,42,128.98
113,G#3,43.0,1.0,42,128.98
114,C#3,44.0,2.0,45,128.98
115,G#4,45.0,1.0,51,128.98
116,C5,45.0,1.0,51,128.98
117,E-5,45.0,1.0,51,128.98
118,E-3,46.0,1.0,38,128.98
119,C#5,46.0,2.0,55,128.98
120,B-4,46.0,2.0,55,128.98
121,F4,46.0,2.0,55,128.98
122,E-3,47.0,3.0,30,128.98
123,G#2,47.0,3.0,30,128.98
124,C5,48.0,0.5,53,128.98
125,G4,48.0,1.0,44,128.98
126,C#4,48.0,1.0,44,128.98
127,B-4,48.5,0.5,51,128.98
128,C#4,49.0,3.0,37,128.98
129,G4,49.0,3.0,37,128.98
130,B-4,49.0,3.0,37,128.98
131,E-3,51.0,1.0,30,128.98
132,G#2,51.0,1.0,30,128.98
133,C4,52.0,1.0,29,128.98
134,G#4,52.0,1.0,29,128.98
135,E3,53.0,1.0,26,128.98
136,G#3,53.0,1.0,26,128.98
137,B3,53.0,1.0,26,128.98
138,E3,54.0,3.0,25,128.98
139,D4,54.0,1.0,35,128.98
140,G#4,54.0,1.0,35,128.98
141,B4,54.0,1.0,35,128.98
142,G#3,54.0,3.0,26,128.98
143,B3,54.0,3.0,26,128.98
144,D4,55.0,3.0,32,128.98
145,G#4,55.0,3.0,36,128.98
146,B4,55.0,3.0,36,128.98
147,E-3,58.0,1.0,22,128.98
148,G#3,58.0,1.0,26,128.98
149,B3,58.0,1.0,26,128.98
150,E-4,59.0,1.0,28,128.98
151,G#4,59.0,1.0,36,128.98
152,B4,59.0,1.0,36,128.98
153,C#3,60.0,1.0,28,128.98
154,G#3,60.0,1.0,28,128.98
155,B3,60.0,1.0,28,128.98
156,C#3,61.0,3.0,28,128.98
157,E4,61.0,1.0,39,128.98
158,G#4,61.0,1.0,39,128.98
159,B4,61.0,1.0,39,128.98
160,G#3,61.0,3.0,30,128.98
161,B3,61.0,3.0,30,128.98
162,E4,62.0,3.0,39,128.98
163,G#4,62.0,3.0,44,128.98
164,B4,62.0,3.0,44,128.98
165,B2,65.0,1.0,21,128.98
166,G#3,65.0,1.0,30,128.98
167,B3,65.0,1.0,30,128.98
168,E-4,66.0,1.0,29,128.98
169,G#4,66.0,1.0,44,128.98
170,B4,66.0,1.0,44,128.98
171,B2,67.0,1.0,32,128.98
172,G#3,67.0,1.0,32,128.98
173,B3,67.0,1.0,32,128.98
174,C#3,68.0,3.0,35,128.98
175,E-4,68.0,1.0,45,128.98
176,G#4,68.0,1.0,45,128.98
177,B4,68.0,1.0,45,128.98
178,B-3,68.0,3.0,37,128.98
179,G#3,68.0,3.0,37,128.98
180,B-4,69.0,1.0,58,128.98
181,E4,69.0,3.0,46,128.98
182,G#4,69.0,3.0,46,128.98
183,E5,70.0,1.5,65,128.98
184,B-4,71.5,0.5,51,128.98
185,B-2,73.0,1.0,36,128.98
186,B-3,73.0,2.0,37,128.98
187,G#3,73.0,2.0,37,128.98
188,E-5,74.0,0.5,57,128.98
189,B2,74.0,1.0,37,128.98
190,E4,74.0,2.0,46,128.98
191,G#4,74.0,2.0,46,128.98
192,C#5,74.5,0.5,55,128.98
193,B4,75.0,1.0,55,128.98
194,C#3,75.0,1.0,35,128.98
195,E-3,76.0,3.0,35,128.98
196,C#4,76.0,1.0,45,128.98
197,E4,76.0,1.0,45,128.98
198,B-4,76.0,1.0,45,128.98
199,E-4,77.0,3.0,39,128.98
200,B3,77.0,3.0,44,128.98
201,G#4,77.0,3.0,44,128.98
202,E-3,79.0,1.0,35,128.98
203,E-4,80.0,1.0,39,128.98
204,B-3,80.0,1.0,31,128.98
205,G4,80.0,1.0,31,128.98
206,E3,81.0,1.0,23,128.98
207,G#3,81.0,1.0,23,128.98
208,B3,81.0,1.0,23,128.98
209,E3,82.0,3.0,22,128.98
210,D4,82.0,1.0,31,128.98
211,G#4,82.0,1.0,31,128.98
212,B4,82.0,1.0,31,128.98
213,G#3,82.0,3.0,24,128.98
214,B3,82.0,3.0,24,128.98
215,D4,83.0,3.0,28,128.98
216,G#4,83.0,3.0,32,128.98
217,B4,83.0,3.0,32,128.98
218,E-3,86.0,1.0,19,128.98
219,G#3,86.0,1.0,24,128.98
220,B3,86.0,1.0,24,128.98
221,E-4,87.0,1.0,25,128.98
222,G#4,87.0,1.0,32,128.98
223,B4,87.0,1.0,32,128.98
224,C#3,88.0,1.0,29,128.98
225,G#3,88.0,1.0,29,128.98
226,B3,88.0,1.0,29,128.98
227,C#3,89.0,3.0,27,128.98
228,E4,89.0,1.0,41,128.98
229,G#4,89.0,1.0,41,128.98
230,B4,89.0,1.0,41,128.98
231,G#3,89.0,3.0,29,128.98
232,B3,89.0,3.0,29,128.98
233,E4,90.0,3.0,35,128.98
234,G#4,90.0,3.0,40,128.98
235,B4,90.0,3.0,40,128.98
236,B2,93.0,1.0,18,128.98
237,G#3,93.0,1.0,29,128.98
238,B3,93.0,1.0,29,128.98
239,E-4,94.0,1.0,30,128.98
240,G#4,94.0,1.0,40,128.98
241,B4,94.0,1.0,40,128.98
242,E3,95.0,1.0,35,128.98
243,B2,95.0,1.0,35,128.98
244,G#3,95.0,1.0,35,128.98
245,B3,95.0,1.0,35,128.98
246,E4,96.0,1.0,43,128.98
247,G#4,96.0,1.0,43,128.98
248,B4,96.0,1.0,43,128.98
249,B2,96.0,3.0,40,128.98
250,E3,96.0,3.0,40,128.98
251,G#3,96.0,3.0,40,128.98
252,B3,96.0,3.0,40,128.98
253,B4,97.0,1.0,56,128.98
254,E4,97.0,3.0,45,128.98
255,G#4,97.0,3.0,45,128.98
256,E5,98.0,1.5,70,128.98
257,B2,99.0,3.0,38,128.98
258,E3,99.0,3.0,38,128.98
259,G#3,99.0,3.0,38,128.98
260,B3,99.0,3.0,38,128.98
261,B4,99.5,0.25,60,128.98
262,B4,99.75,0.25,55,128.98
263,E-5,100.0,0.5,73,128.98
264,E4,100.0,3.0,45,128.98
265,C#5,100.5,0.5,70,128.98
266,B4,101.0,1.0,67,128.98
267,G#4,102.0,1.0,65,128.98
268,B2,102.0,3.0,36,128.98
269,F3,102.0,3.0,36,128.98
270,G#3,102.0,3.0,36,128.98
271,F4,103.0,1.0,62,128.98
272,C#4,103.0,3.0,49,128.98
273,C#5,104.0,1.5,70,128.98
274,B2,105.0,3.0,38,128.98
275,F#3,105.0,1.0,40,128.98
276,A3,105.0,1.0,40,128.98
277,F4,105.5,0.5,58,128.98
278,C#5,106.0,0.5,70,128.98
279,C#4,106.0,1.0,56,128.98
280,F#4,106.0,1.0,56,128.98
281,G#3,106.0,1.0,40,128.98
282,B3,106.0,1.0,40,128.98
283,A4,106.5,0.5,70,128.98
284,E4,107.0,1.0,63,128.98
285,G#4,107.0,1.0,63,128.98
286,A3,107.0,1.0,40,128.98
287,B3,107.0,1.0,40,128.98
288,E-4,108.0,1.0,60,128.98
289,F#4,108.0,1.0,60,128.98
290,E2,108.0,3.0,43,128.98
291,B2,108.0,3.0,43,128.98
292,E3,108.0,3.0,43,128.98
293,G#3,109.0,2.0,57,128.98
294,B3,109.0,2.0,57,128.98
295,E4,109.0,2.0,57,128.98
296,E4,111.0,333/1000,51,128.98
297,E2,111.0,3.0,46,128.98
298,G#4,111.333,333/1000,55,128.98
299,B4,111.667,333/1000,59,128.98
300,B-4,112.0,2.0,58,128.98
301,G4,112.0,2.0,58,128.98
302,E4,112.0,2.0,58,128.98
303,C#4,112.0,2.0,58,128.98
304,E2,114.0,3.0,33,128.98
305,A2,114.0,1.5,37,128.98
306,B4,114.0,0.5,48,128.98
307,G#4,114.0,0.5,48,128.98
308,E4,114.0,0.5,48,128.98
309,B3,114.0,0.5,48,128.98
310,F#4,114.5,0.25,44,128.98
311,G#4,114.75,0.25,44,128.98
312,E-4,115.0,3.0,49,128.98
313,C4,115.0,1.5,46,128.98
314,A4,115.0,1.5,46,128.98
315,B2,115.5,0.5,35,128.98
316,C3,116.0,1.0,33,128.98
317,B3,116.5,0.5,44,128.98
318,G#4,116.5,0.5,44,128.98
319,A3,117.0,1.0,42,128.98
320,F#4,117.0,1.0,42,128.98
321,B2,117.0,3.0,26,128.98
322,E2,117.0,3.0,26,128.98
323,G#3,118.0,2.0,36,128.98
324,E4,118.0,2.0,36,128.98
325,E4,120.0,333/1000,51,128.98
326,E2,120.0,3.0,46,128.98
327,G#4,120.333,333/1000,55,128.98
328,B4,120.667,333/1000,59,128.98
329,B-4,121.0,2.0,60,128.98
330,G4,121.0,2.0,60,128.98
331,E4,121.0,2.0,60,128.98
332,C#4,121.0,2.0,60,128.98
333,E2,123.0,3.0,31,128.98
334,A2,123.0,1.5,35,128.98
335,B4,123.0,0.5,43,128.98
336,G#4,123.0,0.5,43,128.98
337,E4,123.0,0.5,43,128.98
338,B3,123.0,0.5,43,128.98
339,F#4,123.5,0.25,43,128.98
340,G#4,123.75,0.25,43,128.98
341,E-4,124.0,3.0,41,128.98
342,C4,124.0,1.5,44,128.98
343,A4,124.0,1.5,44,128.98
344,B2,124.5,0.5,32,128.98
345,C3,125.0,1.0,29,128.98
346,B3,125.5,0.5,38,128.98
347,G#4,125.5,0.5,38,128.98
348,A3,126.0,1.0,37,128.98
349,F#4,126.0,1.0,37,128.98
350,B2,126.0,3.0,24,128.98
351,E2,126.0,3.0,24,128.98
352,G#3,127.0,2.0,33,128.98
353,E4,127.0,2.0,33,128.98
354,G#4,129.0,1.0,43,128.98
355,E3,129.0,2.0,30,128.98
356,B3,129.0,2.0,30,128.98
357,E4,130.0,2.0,44,128.98
358,G#4,130.0,2.0,44,128.98
359,E3,131.0,1.0,24,128.98
360,B3,131.0,1.0,24,128.98
361,E4,132.0,1.0,40,128.98
362,G#4,132.0,1.0,40,128.98
363,E3,132.0,2.0,30,128.98
364,B3,132.0,2.0,30,128.98
365,E4,133.0,1.5,50,128.98
366,G#4,133.0,2.0,50,128.98
367,E3,134.0,1.0,24,128.98
368,G#3,134.0,1.0,24,128.98
369,E-4,134.5,0.5,45,128.98
370,D4,135.0,1.0,42,128.98
371,G#4,135.0,1.0,42,128.98
372,E-3,135.0,3.0,30,128.98
373,B-3,135.0,3.0,30,128.98
374,E-4,136.0,3.0,35,128.98
375,G#4,136.0,3.0,44,128.98
376,G4,139.0,1.5,39,128.98
377,E-4,139.0,2.0,35,128.98
378,E-3,140.0,2.0,30,128.98
379,B-3,140.0,2.0,30,128.98
380,G#4,140.5,0.5,39,128.98
381,B-4,141.0,0.5,42,128.98
382,C5,141.5,0.5,45,128.98
383,F4,142.0,2.0,41,128.98
384,G#4,142.0,2.0,41,128.98
385,C#5,142.0,2.0,41,128.98
386,E-3,143.0,2.0,29,128.98
387,F3,143.0,2.0,29,128.98
388,G#3,143.0,2.0,29,128.98
389,C#4,143.0,2.0,29,128.98
390,F4,144.0,1.0,42,128.98
391,G#4,144.0,1.0,42,128.98
392,C#5,144.0,1.0,42,128.98
393,E-5,145.0,0.25,55,128.98
394,G4,145.0,2.0,40,128.98
395,B-4,145.0,2.0,40,128.98
396,E-3,145.0,1.0,29,128.98
397,F3,145.0,1.0,29,128.98
398,G#3,145.0,1.0,29,128.98
399,C#4,145.0,1.0,29,128.98
400,C#5,145.25,0.25,50,128.98
401,C5,145.5,0.25,50,128.98
402,C#5,145.75,0.25,50,128.98
403,E-5,146.0,1.0,51,128.98
404,C#4,146.0,2.0,33,128.98
405,B-3,146.0,2.0,33,128.98
406,G3,146.0,2.0,33,128.98
407,E-3,146.0,2.0,33,128.98
408,G4,147.0,1.0,44,128.98
409,B-4,147.0,1.0,44,128.98
410,G4,148.0,3.0,43,128.98
411,B-4,148.0,3.0,43,128.98
412,C#5,148.0,3.0,43,128.98
413,E-4,148.0,1.0,29,128.98
414,E-3,148.0,1.0,29,128.98
415,E-4,149.0,3.0,31,128.98
416,G#3,149.0,3.0,31,128.98
417,G#4,151.0,1.0,40,128.98
418,C5,151.0,1.0,40,128.98
419,G#4,153.0,1.0,69,128.98
420,C5,153.0,1.0,69,128.98
421,F5,153.0,1.0,69,128.98
422,E-4,153.0,1.0,31,128.98
423,G#3,153.0,1.0,31,128.98
424,G#4,154.0,2.0,69,128.98
425,C5,154.0,2.0,69,128.98
426,F5,154.0,2.0,69,128.98
427,G#3,155.0,1.0,53,128.98
428,C4,155.0,1.0,53,128.98
429,F4,155.0,1.0,53,128.98
430,G#4,156.0,1.0,69,128.98
431,C5,156.0,1.0,69,128.98
432,F5,156.0,1.0,69,128.98
433,G#3,156.0,2.0,53,128.98
434,C4,156.0,2.0,53,128.98
435,F4,156.0,2.0,53,128.98
436,G#5,157.0,1.5,86,128.98
437,G#4,157.0,2.0,69,128.98
438,C5,157.0,2.0,69,128.98
439,G#3,158.0,1.0,53,128.98
440,C4,158.0,1.0,53,128.98
441,F4,158.0,1.0,53,128.98
442,G4,158.5,0.5,72,128.98
443,G5,158.5,0.5,72,128.98
444,F5,159.0,1.0,64,128.98
445,C5,159.0,1.0,64,128.98
446,G#4,159.0,1.0,64,128.98
447,F4,159.0,1.0,64,128.98
448,G#3,159.0,2.0,58,128.98
449,C4,159.0,2.0,58,128.98
450,F5,160.0,3.0,80,128.98
451,C#5,160.0,3.0,64,128.98
452,B-4,160.0,3.0,64,128.98
453,G4,160.0,3.0,64,128.98
454,G#3,161.0,1.0,51,128.98
455,C4,161.0,1.0,51,128.98
456,F4,162.0,3.0,57,128.98
457,C#4,162.0,3.0,51,128.98
458,B-3,162.0,3.0,51,128.98
459,G3,162.0,3.0,51,128.98
460,F5,166.0,2.0,80,128.98
461,C#5,166.0,3.0,64,128.98
462,B-4,166.0,3.0,64,128.98
463,G4,166.0,3.0,64,128.98
464,E5,168.0,1.0,54,128.98
465,F4,168.0,2.0,57,128.98
466,C#4,168.0,3.0,51,128.98
467,B-3,168.0,3.0,51,128.98
468,G3,168.0,3.0,51,128.98
469,B-4,169.0,3.0,42,128.98
470,E-5,169.0,2.0,47,128.98
471,E4,170.0,1.0,44,128.98
472,D5,171.0,1.0,43,128.98
473,E-4,171.0,3.0,34,128.98
474,G3,171.0,3.0,34,128.98
475,C#5,172.0,2.0,37,128.98
476,B-4,172.0,2.0,42,128.98
477,E-4,174.0,1.0,39,128.98
478,G#4,174.0,1.0,39,128.98
479,C5,174.0,1.0,39,128.98
480,C5,175.0,3.0,47,128.98
481,F4,175.0,3.0,37,128.98
482,G#4,175.0,3.0,37,128.98
483,E-4,176.0,2.0,34,128.98
484,G3,176.0,2.0,34,128.98
485,G#3,178.0,1.0,32,128.98
486,B-4,179.0,1.0,44,128.98
487,C#4,179.0,3.0,33,128.98
488,F4,179.0,1.0,37,128.98
489,G#4,179.0,1.0,37,128.98
490,F5,181.0,1.0,43,128.98
491,B-4,181.0,1.0,43,128.98
492,G4,181.0,1.0,43,128.98
493,F5,182.0,3.0,52,128.98
494,C#4,182.0,1.0,33,128.98
495,G#4,182.0,3.0,41,128.98
496,C5,182.0,3.0,41,128.98
497,F4,184.0,1.0,34,128.98
498,C#4,184.0,1.0,34,128.98
499,F4,185.0,3.0,36,128.98
500,C4,185.0,3.0,32,128.98
501,E-5,186.0,1.0,48,128.98
502,G#4,186.0,1.0,41,128.98
503,C5,186.0,1.0,41,128.98
504,C4,187.5,1.5,38,128.98
505,E-4,187.5,0.5,48,128.98
506,G#4,188.0,0.5,50,128.98
507,E-4,188.0,1.0,34,128.98
508,C4,188.0,1.0,32,128.98
509,C5,188.5,0.5,52,128.98
510,C#4,189.0,2.0,46,128.98
511,E-4,189.0,2.0,46,128.98
512,G4,189.0,2.0,46,128.98
513,C#5,189.0,2.0,46,128.98
514,G#3,189.5,1.5,37,128.98
515,E-3,190.0,0.5,39,128.98
516,C3,190.5,0.5,40,128.98
517,C4,191.0,1.0,48,128.98
518,E-4,191.0,1.0,48,128.98
519,G#4,191.0,1.0,48,128.98
520,C5,191.0,1.0,48,128.98
521,B-2,191.0,2.0,34,128.98
522,E-3,191.0,2.0,34,128.98
523,G3,191.0,2.0,34,128.98
524,B-3,192.0,2.0,49,128.98
525,E-4,192.0,2.0,49,128.98
526,B-4,192.0,2.0,49,128.98
527,G#2,193.0,1.0,37,128.98
528,E-3,193.0,1.0,37,128.98
529,G#3,193.0,1.0,37,128.98
530,D4,194.0,1.0,52,128.98
531,B-4,194.0,1.0,52,128.98
532,G#4,194.0,1.0,52,128.98
533,D5,194.0,1.0,52,128.98
534,G2,194.0,2.0,38,128.98
535,E-3,194.0,2.0,38,128.98
536,G3,194.0,2.0,38,128.98
537,B-4,195.0,3.0,55,128.98
538,D4,195.0,3.0,60,128.98
539,G#4,195.0,3.0,60,128.98
540,D5,195.0,3.0,60,128.98
541,F2,196.0,1.0,42,128.98
542,B-2,196.0,1.0,42,128.98
543,F3,196.0,1.0,42,128.98
544,E-2,197.0,3.0,45,128.98
545,B-2,197.0,3.0,45,128.98
546,E-3,197.0,3.0,45,128.98
547,B-4,198.0,1.0,55,128.98
548,G4,198.0,1.0,39,128.98
549,E-4,198.0,1.0,39,128.98
550,E-5,198.0,1.0,39,128.98
551,E-4,200.0,1.0,63,128.98
552,G#4,200.0,1.0,63,128.98
553,C5,200.0,1.0,63,128.98
554,C5,201.0,2.5,81,128.98
555,E4,201.0,3.0,64,128.98
556,G#4,201.0,3.0,64,128.98
557,E-2,201.0,1.0,45,128.98
558,B-2,201.0,1.0,45,128.98
559,E-3,201.0,1.0,45,128.98
560,G#1,203.0,1.0,48,128.98
561,G#2,203.0,1.0,48,128.98
562,B4,203.5,0.5,53,128.98
563,C#2,204.0,3.0,54,128.98
564,C#3,204.0,3.0,54,128.98
565,B-4,205.0,1.0,50,128.98
566,E4,205.0,1.0,64,128.98
567,G#4,205.0,1.0,64,128.98
568,E-4,207.0,1.0,63,128.98
569,G#4,207.0,1.0,63,128.98
570,C5,207.0,1.0,63,128.98
571,C5,208.0,2.5,81,128.98
572,E4,208.0,3.0,64,128.98
573,G#4,208.0,3.0,64,128.98
574,C#2,208.0,1.0,54,128.98
575,C#3,208.0,1.0,54,128.98
576,G#1,210.0,1.0,48,128.98
577,G#2,210.0,1.0,48,128.98
578,B4,210.5,0.5,54,128.98
579,C#2,211.0,3.0,54,128.98
580,C#3,211.0,3.0,54,128.98
581,B-4,212.0,1.0,51,128.98
582,E4,212.0,1.0,64,128.98
583,G#4,212.0,1.0,64,128.98
584,E4,214.0,1.0,78,128.98
585,G#4,214.0,1.0,78,128.98
586,B4,214.0,1.0,78,128.98
587,E4,215.0,981/1000,78,128.98
588,G#4,215.0,981/1000,78,128.98
589,B4,215.0,981/1000,78,128.98
590,C#2,215.0,1.0,54,128.98
591,C#3,215.0,1.0,54,128.98
592,E4,216.0,19/20,78,128.98
593,G#4,216.0,19/20,78,128.98
594,B4,216.0,19/20,78,128.98
595,E4,217.0,19/20,77,128.98
596,G#4,217.0,19/20,77,128.98
597,B4,217.0,19/20,77,128.98
598,D2,217.0,1.0,58,128.98
599,D3,217.0,1.0,58,128.98
600,E4,218.0,19/20,73,128.98
601,G#4,218.0,19/20,73,128.98
602,B4,218.0,19/20,73,128.98
603,D2,218.0,981/1000,58,128.98
604,D3,218.0,981/1000,58,128.98
605,E4,219.0,1.0,79,128.98
606,A4,219.0,1.0,79,128.98
607,C#5,219.0,1.0,79,128.98
608,D2,219.0,19/20,60,128.98
609,D3,219.0,19/20,60,128.98
610,E4,220.0,1.0,83,128.98
611,B4,220.0,1.0,83,128.98
612,D5,220.0,1.0,83,128.98
613,D2,220.0,19/20,60,128.98
614,D3,220.0,19/20,60,128.98
615,E4,221.0,1.0,86,128.98
616,C#5,221.0,1.0,86,128.98
617,E5,221.0,1.0,86,128.98
618,D2,221.0,19/20,58,128.98
619,D3,221.0,19/20,58,128.98
620,E4,222.0,1.0,79,128.98
621,B4,222.0,1.0,79,128.98
622,D5,222.0,1.0,79,128.98
623,C#2,222.0,1.0,64,128.98
624,C#3,222.0,1.0,64,128.98
625,E4,223.0,1.0,67,128.98
626,A4,223.0,1.0,67,128.98
627,C#5,223.0,1.0,67,128.98
628,B1,223.0,1.0,66,128.98
629,B2,223.0,1.0,66,128.98
630,E-4,224.0,3.0,46,128.98
631,G#4,224.0,3.0,52,128.98
632,B4,224.0,3.0,52,128.98
633,A1,224.0,1.0,66,128.98
634,A2,224.0,1.0,66,128.98
635,B2,225.0,1.0,62,128.98
636,B1,225.0,1.0,62,128.98
637,C#2,226.0,1.0,54,128.98
638,C#3,226.0,1.0,54,128.98
639,E-4,227.0,2.0,46,128.98
640,G4,227.0,2.0,44,128.98
641,B-4,227.0,2.0,44,128.98
642,E-2,227.0,3.0,37,128.98
643,E-3,227.0,3.0,37,128.98
644,E-2,232.0,2.0,37,128.98
645,E-3,232.0,2.0,37,128.98
646,E3,234.0,1.0,51,128.98
647,D3,234.0,1.0,51,128.98
648,G#3,234.0,1.0,51,128.98
649,B3,234.0,1.0,51,128.98
650,E3,235.96,24/25,51,128.98
651,D3,235.96,24/25,51,128.98
652,G#3,235.96,24/25,51,128.98
653,B3,235.96,24/25,51,128.98
654,D3,236.96,19/20,37,128.98
655,E3,236.96,19/20,37,128.98
656,G#3,236.96,19/20,37,128.98
657,B3,236.96,19/20,37,128.98
658,D3,237.96,19/20,37,128.98
659,E3,237.96,19/20,37,128.98
660,G#3,237.96,19/20,37,128.98
661,B3,237.96,19/20,37,128.98
662,D3,238.96,1.0,34,128.98
663,E3,238.96,1.0,34,128.98
664,G#3,238.96,1.0,34,128.98
665,B3,238.96,1.0,34,128.98
666,C#3,239.96,1.0,37,128.98
667,E3,239.96,1.0,37,128.98
668,A3,239.96,1.0,37,128.98
669,C#4,239.96,1.0,37,128.98
670,B2,240.96,0.75,37,128.98
671,E3,240.96,0.75,37,128.98
672,D4,240.96,0.75,37,128.98
673,B3,240.96,0.75,37,128.98
674,F#4,241.71,0.25,48,128.98
675,A2,241.96,1.0,40,128.98
676,E3,241.96,1.0,40,128.98
677,C#4,241.96,1.0,40,128.98
678,E4,241.96,1.0,40,128.98
679,B2,242.96,1.0,37,128.98
680,E3,242.96,1.0,37,128.98
681,B3,242.96,1.0,37,128.98
682,D4,242.96,1.0,37,128.98
683,C#3,243.96,1.0,33,128.98
684,E3,243.96,1.0,33,128.98
685,A3,243.96,1.0,33,128.98
686,C#4,243.96,1.0,33,128.98
687,E-3,244.96,3.0,30,128.98
688,G#3,244.96,3.0,32,128.98
689,B3,244.96,3.0,32,128.98
690,E-3,247.96,3.0,30,128.98
691,E-2,247.96,3.0,26,128.98
692,G3,247.96,3.0,26,128.98
693,B-3,247.96,3.0,26,128.98
694,F4,250.0,1.0,45,128.98
695,G#1,250.96,3.0,26,128.98
696,G#2,250.96,3.0,26,128.98
697,G#3,250.96,3.0,26,128.98
698,F4,251.0,2.0,45,128.98
699,F#4,253.0,0.5,47,128.98
700,F4,253.5,0.5,45,128.98
701,E-4,254.0,2.0,46,128.98
702,G#1,255.96,2.0,26,128.98
703,G#2,255.96,2.0,26,128.98
704,G#3,255.96,2.0,26,128.98
705,F4,256.0,0.5,44,128.98
706,E-4,256.5,0.5,42,128.98
707,C#2,257.96,1.0,28,128.98
708,G#2,257.96,1.0,28,128.98
709,C#3,257.96,1.0,28,128.98
710,F3,257.96,1.0,28,128.98
711,G#3,257.96,1.0,28,128.98
712,C#2,258.96,3.0,28,128.98
713,G#2,258.96,3.0,28,128.98
714,C#3,258.96,3.0,28,128.98
715,F3,258.96,3.0,28,128.98
716,G#3,258.96,3.0,28,128.98
717,E-2,261.96,3.0,29,128.98
718,G#2,261.96,3.0,29,128.98
719,C3,261.96,3.0,29,128.98
720,G#3,261.96,3.0,29,128.98
721,F#3,261.96,3.0,29,128.98
722,G#3,262.0,19/20,43,128.98
723,C#4,262.0,19/20,43,128.98
724,G#4,262.0,19/20,43,128.98
725,G#3,263.0,2.0,43,128.98
726,C#4,263.0,2.0,43,128.98
727,G#4,263.0,2.0,43,128.98
728,F2,264.96,0.75,30,128.98
729,G#2,264.96,0.75,30,128.98
730,C#3,264.96,0.75,30,128.98
731,C#4,264.96,0.75,30,128.98
732,F3,264.96,0.75,30,128.98
733,G#3,264.96,0.75,30,128.98
734,C#4,265.0,1.0,44,128.98
735,B-3,265.0,0.5,50,128.98
736,B-4,265.0,0.5,50,128.98
737,G#3,265.5,0.5,46,128.98
738,G#4,265.5,0.5,46,128.98
739,F#2,265.96,0.75,29,128.98
740,B-2,265.96,0.75,29,128.98
741,C#3,265.96,0.75,29,128.98
742,C#4,265.96,0.75,29,128.98
743,B-3,265.96,0.75,29,128.98
744,F#3,265.96,0.75,29,128.98
745,G#3,266.0,1.0,44,128.98
746,C#4,266.0,1.0,44,128.98
747,G#4,266.0,1.0,44,128.98
748,C#3,266.96,1.0,30,128.98
749,G2,266.96,0.75,32,128.98
750,B-2,266.96,0.75,32,128.98
751,E-4,266.96,0.75,32,128.98
752,C#4,266.96,0.75,32,128.98
753,B-3,266.96,0.75,32,128.98
754,E-3,266.96,0.75,32,128.98
755,C#4,267.0,1.0,50,128.98
756,C#5,267.0,1.0,50,128.98
757,G#2,267.96,2.0,32,128.98
758,C3,267.96,2.0,32,128.98
759,E-3,267.96,2.0,32,128.98
760,G#3,267.96,2.0,32,128.98
761,B-3,268.0,1.0,48,128.98
762,B-4,268.0,1.0,48,128.98
763,F#3,269.0,1.0,45,128.98
764,F#4,269.0,1.0,45,128.98
765,F2,269.96,19/20,30,128.98
766,C#3,269.96,19/20,30,128.98
767,F3,269.96,19/20,30,128.98
768,A3,270.0,1.0,45,128.98
769,E-4,270.0,1.0,45,128.98
770,F#4,270.0,1.0,45,128.98
771,A4,270.0,1.0,45,128.98
772,F2,270.96,2.0,30,128.98
773,C#3,270.96,2.0,30,128.98
774,F3,270.96,2.0,30,128.98
775,G#3,271.0,1.0,42,128.98
776,C4,271.0,1.0,42,128.98
777,E-4,271.0,1.0,42,128.98
778,F#4,271.0,1.0,42,128.98
779,G#4,271.0,1.0,42,128.98
780,G#3,272.0,2.0,41,128.98
781,C#4,272.0,2.0,41,128.98
782,F4,272.0,2.0,41,128.98
783,C#3,272.96,1.0,32,128.98
784,F#2,272.96,0.5,34,128.98
785,F#3,272.96,0.5,34,128.98
786,F2,273.46,0.5,30,128.98
787,F3,273.46,0.5,30,128.98
788,F2,273.96,1.0,29,128.98
789,C#3,273.96,1.0,29,128.98
790,F3,273.96,1.0,29,128.98
791,F4,274.0,19/20,38,128.98
792,G#4,274.0,19/20,38,128.98
793,F5,274.0,19/20,38,128.98
794,B-2,274.96,1.0,37,128.98
795,B-3,274.96,1.0,37,128.98
796,F5,275.0,2.0,45,128.98
797,F4,275.0,3.0,34,128.98
798,G#4,275.0,3.0,34,128.98
799,F#2,275.96,1.0,34,128.98
800,F#3,275.96,1.0,34,128.98
801,E-2,276.96,1.0,32,128.98
802,E-3,276.96,1.0,32,128.98
803,F#5,277.0,0.5,47,128.98
804,F5,277.5,0.5,45,128.98
805,C2,277.96,1.0,36,128.98
806,C3,277.96,1.0,36,128.98
807,E-5,278.0,2.0,46,128.98
808,F#4,278.0,3.0,34,128.98
809,G#4,278.0,3.0,34,128.98
810,G#1,278.96,1.0,34,128.98
811,G#2,278.96,1.0,34,128.98
812,C#2,279.96,2.0,34,128.98
813,C#3,279.96,2.0,34,128.98
814,F5,280.0,0.5,44,128.98
815,E-5,280.5,0.5,42,128.98
816,F4,281.0,0.75,37,128.98
817,C#5,281.0,0.75,37,128.98
818,G#4,281.0,0.75,37,128.98
819,C#3,281.96,19/20,28,128.98
820,G#3,281.96,19/20,28,128.98
821,C#4,281.96,19/20,28,128.98
822,C#5,282.0,0.75,39,128.98
823,B-4,282.0,0.75,39,128.98
824,F#4,282.0,0.75,39,128.98
825,C#3,282.96,3.0,28,128.98
826,G#3,282.96,3.0,28,128.98
827,C#4,282.96,3.0,28,128.98
828,E-5,283.0,0.75,41,128.98
829,C#5,283.0,0.75,41,128.98
830,B-4,283.0,0.75,41,128.98
831,G#4,284.0,2.0,44,128.98
832,E-3,285.96,3.0,28,128.98
833,G#3,285.96,3.0,28,128.98
834,C4,285.96,3.0,28,128.98
835,G#4,286.0,19/20,51,128.98
836,C#5,286.0,19/20,51,128.98
837,G#5,286.0,19/20,51,128.98
838,G#4,287.0,2.0,51,128.98
839,C#5,287.0,2.0,51,128.98
840,G#5,287.0,2.0,51,128.98
841,F3,288.96,0.75,28,128.98
842,G#3,288.96,0.75,28,128.98
843,C#4,288.96,0.75,28,128.98
844,C#5,289.0,1.0,53,128.98
845,B-4,289.0,0.5,60,128.98
846,B-5,289.0,0.5,60,128.98
847,G#4,289.5,0.5,56,128.98
848,G#5,289.5,0.5,56,128.98
849,F#3,289.96,0.75,29,128.98
850,B-3,289.96,0.75,29,128.98
851,C#4,289.96,0.75,29,128.98
852,G#4,290.0,1.0,53,128.98
853,C#5,290.0,1.0,53,128.98
854,G#5,290.0,1.0,53,128.98
855,G3,290.96,0.75,31,128.98
856,B-3,290.96,0.75,31,128.98
857,C#4,290.96,0.75,31,128.98
858,E-4,290.96,0.75,31,128.98
859,C#5,291.0,1.0,68,128.98
860,C#6,291.0,1.0,68,128.98
861,G#3,291.96,2.0,32,128.98
862,C4,291.96,2.0,32,128.98
863,E-4,291.96,2.0,32,128.98
864,B-4,292.0,1.0,62,128.98
865,B-5,292.0,1.0,62,128.98
866,F#4,293.0,1.0,58,128.98
867,F#5,293.0,1.0,58,128.98
868,F3,293.96,19/20,40,128.98
869,C#4,293.96,19/20,40,128.98
870,F4,293.96,19/20,40,128.98
871,A4,294.0,1.0,64,128.98
872,E-5,294.0,1.0,64,128.98
873,F#5,294.0,1.0,64,128.98
874,A5,294.0,1.0,64,128.98
875,F3,294.96,2.0,40,128.98
876,C#4,294.96,2.0,40,128.98
877,F4,294.96,2.0,40,128.98
878,G#4,295.0,1.0,59,128.98
879,C5,295.0,1.0,59,128.98
880,E-5,295.0,1.0,59,128.98
881,F#5,295.0,1.0,59,128.98
882,G#5,295.0,1.0,59,128.98
883,G#4,296.0,2.0,55,128.98
884,C#5,296.0,2.0,55,128.98
885,F5,296.0,2.0,55,128.98
886,C#4,296.96,1.0,41,128.98
887,F#3,296.96,0.5,44,128.98
888,F#4,296.96,0.5,44,128.98
889,F3,297.46,0.5,38,128.98
890,F4,297.46,0.5,38,128.98
891,F3,297.96,1.0,38,128.98
892,C#4,297.96,1.0,38,128.98
893,F4,297.96,1.0,38,128.98
894,E-4,298.0,19/20,69,128.98
895,E-5,298.0,19/20,69,128.98
896,G#4,298.0,19/20,69,128.98
897,B-3,298.96,1.0,49,128.98
898,B-4,298.96,1.0,49,128.98
899,E-4,299.0,2.0,69,128.98
900,G#4,299.0,2.0,69,128.98
901,E-5,299.0,2.0,69,128.98
902,F#3,299.96,1.0,44,128.98
903,F#4,299.96,1.0,44,128.98
904,E-3,300.96,1.0,40,128.98
905,E-4,300.96,1.0,40,128.98
906,G#4,301.0,1.0,64,128.98
907,C#4,301.0,0.5,72,128.98
908,C#5,301.0,0.5,72,128.98
909,E-4,301.5,0.5,72,128.98
910,E-5,301.5,0.5,72,128.98
911,C3,301.96,1.0,48,128.98
912,C4,301.96,1.0,48,128.98
913,C4,302.0,1.0,71,128.98
914,G#4,302.0,1.0,71,128.98
915,C5,302.0,1.0,71,128.98
916,G#2,302.96,1.0,48,128.98
917,G#3,302.96,1.0,48,128.98
918,E-4,303.0,1.0,74,128.98
919,G#4,303.0,1.0,74,128.98
920,E-5,303.0,1.0,74,128.98
921,C#3,303.96,2.0,42,128.98
922,C#4,303.96,2.0,42,128.98
923,F4,304.0,1.0,76,128.98
924,G#4,304.0,1.0,76,128.98
925,F5,304.0,1.0,76,128.98
926,F#4,305.0,1.0,78,128.98
927,G#4,305.0,1.0,78,128.98
928,F#5,305.0,1.0,78,128.98
929,C3,305.96,19/20,53,128.98
930,G#3,305.96,19/20,53,128.98
931,C4,305.96,19/20,53,128.98
932,G#5,306.0,1.0,81,128.98
933,G#4,306.0,1.0,81,128.98
934,C3,306.96,2.0,53,128.98
935,G#3,306.96,2.0,53,128.98
936,C4,306.96,2.0,53,128.98
937,B-5,307.0,1.0,82,128.98
938,B-4,307.0,1.0,82,128.98
939,G#4,307.0,1.0,82,128.98
940,E-4,308.0,2.0,57,128.98
941,E-5,308.0,2.0,57,128.98
942,G#4,308.0,2.0,57,128.98
943,G#3,308.96,1.0,56,128.98
944,B-2,308.96,0.5,53,128.98
945,B-3,308.96,0.5,53,128.98
946,C3,309.46,0.5,53,128.98
947,C4,309.46,0.5,53,128.98
948,G#2,309.96,1.0,54,128.98
949,G#3,309.96,1.0,54,128.98
950,E4,310.0,1.0,43,128.98
951,G#4,310.0,1.0,43,128.98
952,E5,310.0,1.0,43,128.98
953,C3,310.96,1.0,56,128.98
954,C4,310.96,1.0,56,128.98
955,G#3,310.96,1.0,56,128.98
956,F5,311.0,2.0,56,128.98
957,F4,311.0,3.0,45,128.98
958,G#4,311.0,3.0,45,128.98
959,C#4,311.96,1.0,56,128.98
960,G#3,311.96,1.0,56,128.98
961,C#3,311.96,1.0,56,128.98
962,E-4,312.96,1.0,58,128.98
963,G#3,312.96,1.0,58,128.98
964,E-3,312.96,1.0,58,128.98
965,F#5,313.0,0.5,53,128.98
966,F5,313.5,0.5,53,128.98
967,F4,313.96,1.0,61,128.98
968,G#3,313.96,1.0,61,128.98
969,F3,313.96,1.0,61,128.98
970,G#4,314.0,3.0,43,128.98
971,E-4,314.0,2.0,48,128.98
972,E-5,314.0,2.0,48,128.98
973,F#3,314.96,1.0,56,128.98
974,G#3,314.96,1.0,56,128.98
975,F#4,314.96,1.0,56,128.98
976,C3,315.96,3.0,46,128.98
977,C4,315.96,3.0,46,128.98
978,G#3,315.96,3.0,46,128.98
979,D4,316.0,1.0,46,128.98
980,D5,316.0,1.0,46,128.98
981,C#4,317.0,2.0,47,128.98
982,G4,317.0,2.0,47,128.98
983,C#5,317.0,2.0,47,128.98
984,C#3,318.96,3.0,36,128.98
985,G#3,318.96,3.0,36,128.98
986,C#4,318.96,3.0,36,128.98
987,C5,319.0,0.5,50,128.98
988,C#4,319.0,1.0,42,128.98
989,G4,319.0,1.0,42,128.98
990,B-4,319.5,0.5,49,128.98
991,F#4,320.0,2.0,46,128.98
992,E-4,320.0,2.0,46,128.98
993,E-5,320.0,2.0,46,128.98
994,G#3,321.96,3.0,35,128.98
995,C3,321.96,2.0,37,128.98
996,C4,321.96,2.0,37,128.98
997,C#5,322.0,0.5,48,128.98
998,E-4,322.0,1.0,38,128.98
999,F#4,322.0,1.0,38,128.98
1000,C5,322.5,0.5,48,128.98
1001,C#4,323.0,2.0,45,128.98
1002,G4,323.0,2.0,45,128.98
1003,C#5,323.0,2.0,45,128.98
1004,B2,323.96,1.0,34,128.98
1005,B3,323.96,1.0,34,128.98
1006,B-2,324.96,2.0,34,128.98
1007,E-3,324.96,2.0,34,128.98
1008,B-3,324.96,2.0,34,128.98
1009,C5,325.0,0.5,47,128.98
1010,C#4,325.0,1.0,40,128.98
1011,G4,325.0,1.0,40,128.98
1012,B-4,325.5,0.5,47,128.98
1013,C4,326.0,3.0,36,128.98
1014,G#4,326.0,1.0,45,128.98
1015,E-3,326.96,1.0,36,128.98
1016,G4,327.0,1.0,40,128.98
1017,A2,327.96,2.0,35,128.98
1018,E-3,327.96,2.0,35,128.98
1019,A3,327.96,2.0,35,128.98
1020,F#4,328.0,1.0,36,128.98
1021,F4,329.0,2.0,38,128.98
1022,E-3,329.96,1.0,31,128.98
1023,A3,329.96,1.0,31,128.98
1024,B-2,330.96,2.0,33,128.98
1025,E-3,330.96,2.0,33,128.98
1026,B-3,330.96,2.0,33,128.98
1027,F#4,331.0,0.5,39,128.98
1028,F4,331.5,0.5,38,128.98
1029,E-4,332.0,2.0,39,128.98
1030,E-3,332.96,1.0,31,128.98
1031,E-3,333.96,2.0,30,128.98
1032,G#2,333.96,3.0,27,128.98
1033,F4,334.0,0.5,37,128.98
1034,E-4,334.5,0.5,35,128.98
1035,G#3,335.96,1.0,29,128.98
1036,F3,336.96,3.0,23,128.98
1037,C#2,336.96,3.0,23,128.98
1038,G#2,336.96,3.0,23,128.98
1039,C#3,336.96,3.0,23,128.98
1040,G#3,336.96,3.0,23,128.98
1041,G#2,339.96,3.0,23,128.98
1042,E-2,339.96,3.0,23,128.98
1043,G#3,339.96,3.0,23,128.98
1044,C3,339.96,3.0,23,128.98
1045,F#3,339.96,3.0,23,128.98
1046,G#3,340.0,19/20,52,128.98
1047,C#4,340.0,19/20,52,128.98
1048,G#4,340.0,19/20,52,128.98
1049,G#3,341.0,2.0,52,128.98
1050,C#4,341.0,2.0,52,128.98
1051,G#4,341.0,2.0,52,128.98
1052,G#3,342.96,0.75,23,128.98
1053,F2,342.96,0.75,23,128.98
1054,G#2,342.96,0.75,23,128.98
1055,C#3,342.96,0.75,23,128.98
1056,C#4,342.96,0.75,23,128.98
1057,F3,342.96,0.75,23,128.98
1058,C#4,343.0,1.0,54,128.98
1059,B-3,343.0,0.5,61,128.98
1060,B-4,343.0,0.5,61,128.98
1061,G#3,343.5,0.5,54,128.98
1062,G#4,343.5,0.5,54,128.98
1063,C#4,343.96,0.75,25,128.98
1064,F#2,343.96,0.75,25,128.98
1065,B-2,343.96,0.75,25,128.98
1066,C#3,343.96,0.75,25,128.98
1067,F#3,343.96,0.75,25,128.98
1068,B-3,343.96,0.75,25,128.98
1069,G#3,344.0,1.0,51,128.98
1070,C#4,344.0,1.0,51,128.98
1071,G#4,344.0,1.0,51,128.98
1072,C#3,344.96,0.75,26,128.98
1073,G2,344.96,0.75,26,128.98
1074,B-2,344.96,0.75,26,128.98
1075,E-3,344.96,0.75,26,128.98
1076,E-4,344.96,0.75,26,128.98
1077,C#4,344.96,0.75,26,128.98
1078,B-3,344.96,0.75,26,128.98
1079,F4,345.0,1.0,67,128.98
1080,G#4,345.0,1.0,67,128.98
1081,F5,345.0,1.0,67,128.98
1082,G#3,345.96,2.0,24,128.98
1083,G#2,345.96,2.0,24,128.98
1084,C3,345.96,2.0,24,128.98
1085,E-3,345.96,2.0,24,128.98
1086,E-4,346.0,1.0,61,128.98
1087,G#4,346.0,1.0,61,128.98
1088,E-5,346.0,1.0,61,128.98
1089,C#4,347.0,2.0,69,128.98
1090,F4,347.0,2.0,69,128.98
1091,C#5,347.0,2.0,69,128.98
1092,F2,347.96,19/20,40,128.98
1093,F3,347.96,19/20,40,128.98
1094,C#3,347.96,19/20,40,128.98
1095,C#3,348.96,2.0,40,128.98
1096,F2,348.96,2.0,40,128.98
1097,F3,348.96,2.0,40,128.98
1098,C4,349.0,1.0,65,128.98
1099,E-4,349.0,1.0,65,128.98
1100,G#4,349.0,1.0,65,128.98
1101,C5,349.0,1.0,65,128.98
1102,C#4,350.0,2.0,68,128.98
1103,F4,350.0,2.0,68,128.98
1104,G#4,350.0,2.0,68,128.98
1105,C#5,350.0,2.0,68,128.98
1106,C#3,350.96,1.0,38,128.98
1107,F#2,350.96,0.5,40,128.98
1108,F#3,350.96,0.5,40,128.98
1109,F3,351.46,0.5,39,128.98
1110,F2,351.46,0.5,39,128.98
1111,C#3,351.96,1.0,38,128.98
1112,F2,351.96,1.0,38,128.98
1113,F3,351.96,1.0,38,128.98
1114,G#4,352.0,19/20,72,128.98
1115,G#5,352.0,19/20,72,128.98
1116,C#5,352.0,19/20,72,128.98
1117,C#4,352.96,1.0,52,128.98
1118,G#3,352.96,1.0,52,128.98
1119,C#3,352.96,1.0,52,128.98
1120,G#4,353.0,2.0,72,128.98
1121,C#5,353.0,2.0,72,128.98
1122,G#5,353.0,2.0,72,128.98
1123,G#3,353.96,1.0,47,128.98
1124,C4,353.96,1.0,47,128.98
1125,C3,353.96,1.0,47,128.98
1126,F3,354.96,2.0,53,128.98
1127,B-2,354.96,2.0,53,128.98
1128,B-3,354.96,2.0,53,128.98
1129,C#5,355.0,1.0,71,128.98
1130,B-4,355.0,0.5,80,128.98
1131,B-5,355.0,0.5,80,128.98
1132,G#4,355.5,0.5,74,128.98
1133,G#5,355.5,0.5,74,128.98
1134,G#4,356.0,1.0,72,128.98
1135,C#5,356.0,1.0,72,128.98
1136,G#5,356.0,1.0,72,128.98
1137,F#3,356.96,1.0,50,128.98
1138,G#2,356.96,1.0,50,128.98
1139,G#3,356.96,1.0,50,128.98
1140,C#4,357.0,1.0,76,128.98
1141,G#4,357.0,1.0,76,128.98
1142,C#5,357.0,1.0,76,128.98
1143,F6,357.0,1.0,76,128.98
1144,G#5,357.0,1.0,76,128.98
1145,F5,357.0,1.0,76,128.98
1146,C#3,357.96,2.0,53,128.98
1147,G#3,357.96,2.0,53,128.98
1148,F3,357.96,2.0,53,128.98
1149,C4,358.0,1.0,75,128.98
1150,G#4,358.0,1.0,75,128.98
1151,C5,358.0,1.0,75,128.98
1152,E-5,358.0,1.0,75,128.98
1153,G#5,358.0,1.0,75,128.98
1154,E-6,358.0,1.0,75,128.98
1155,B-3,359.0,2.0,75,128.98
1156,F4,359.0,2.0,75,128.98
1157,B-4,359.0,2.0,75,128.98
1158,C#5,359.0,2.0,75,128.98
1159,F5,359.0,2.0,75,128.98
1160,C#6,359.0,2.0,75,128.98
1161,C#4,359.96,19/20,55,128.98
1162,F4,359.96,19/20,55,128.98
1163,F3,359.96,19/20,55,128.98
1164,F4,360.96,2.0,53,128.98
1165,F3,360.96,2.0,53,128.98
1166,C#4,360.96,2.0,53,128.98
1167,G#3,361.0,1.0,73,128.98
1168,F#4,361.0,1.0,73,128.98
1169,G#4,361.0,1.0,73,128.98
1170,C5,361.0,1.0,73,128.98
1171,E-5,361.0,1.0,73,128.98
1172,G#5,361.0,1.0,73,128.98
1173,C6,361.0,1.0,73,128.98
1174,C#4,362.0,2.0,73,128.98
1175,F4,362.0,2.0,73,128.98
1176,G#4,362.0,2.0,73,128.98
1177,C#5,362.0,2.0,73,128.98
1178,F5,362.0,2.0,73,128.98
1179,G#5,362.0,2.0,73,128.98
1180,C#6,362.0,2.0,73,128.98
1181,C#4,362.96,1.0,54,128.98
1182,F#3,362.96,0.5,58,128.98
1183,F#4,362.96,0.5,58,128.98
1184,F4,363.46,0.5,54,128.98
1185,F3,363.46,0.5,54,128.98
1186,F4,363.96,1.0,55,128.98
1187,F3,363.96,1.0,55,128.98
1188,C#4,363.96,1.0,55,128.98
1189,E-4,364.0,19/20,69,128.98
1190,E-5,364.0,19/20,69,128.98
1191,G#4,364.0,19/20,69,128.98
1192,E-4,365.0,2.0,69,128.98
1193,G#4,365.0,2.0,69,128.98
1194,E-5,365.0,2.0,69,128.98
1195,G#4,367.0,1.0,64,128.98
1196,C#4,367.0,0.5,72,128.98
1197,C#5,367.0,0.5,72,128.98
1198,E-4,367.5,0.5,72,128.98
1199,E-5,367.5,0.5,72,128.98
1200,C4,368.0,1.0,71,128.98
1201,G#4,368.0,1.0,71,128.98
1202,C5,368.0,1.0,71,128.98
1203,E-4,369.0,1.0,74,128.98
1204,G#4,369.0,1.0,74,128.98
1205,E-5,369.0,1.0,74,128.98
1206,F4,370.0,1.0,76,128.98
1207,G#4,370.0,1.0,76,128.98
1208,F5,370.0,1.0,76,128.98
1209,F#4,371.0,1.0,78,128.98
1210,G#4,371.0,1.0,78,128.98
1211,F#5,371.0,1.0,78,128.98
1212,C4,371.96,19/20,53,128.98
1213,C3,371.96,19/20,53,128.98
1214,G#3,371.96,19/20,53,128.98
1215,G#5,372.0,1.0,81,128.98
1216,G#4,372.0,1.0,81,128.98
1217,C3,372.96,2.0,53,128.98
1218,G#3,372.96,2.0,53,128.98
1219,C4,372.96,2.0,53,128.98
1220,B-5,373.0,1.0,82,128.98
1221,B-4,373.0,1.0,82,128.98
1222,G#4,373.0,1.0,82,128.98
1223,E-4,374.0,2.0,57,128.98
1224,E-5,374.0,2.0,57,128.98
1225,G#4,374.0,2.0,57,128.98
1226,G#3,374.96,1.0,50,128.98
1227,B-2,374.96,0.5,53,128.98
1228,B-3,374.96,0.5,53,128.98
1229,C3,375.46,0.5,53,128.98
1230,C4,375.46,0.5,53,128.98
1231,G#2,375.96,1.0,54,128.98
1232,G#3,375.96,1.0,54,128.98
1233,E4,376.0,1.0,43,128.98
1234,G#4,376.0,1.0,43,128.98
1235,E5,376.0,1.0,43,128.98
1236,C3,376.96,1.0,56,128.98
1237,C4,376.96,1.0,56,128.98
1238,G#3,376.96,1.0,56,128.98
1239,F5,377.0,2.0,56,128.98
1240,F4,377.0,3.0,45,128.98
1241,G#4,377.0,3.0,45,128.98
1242,C#4,377.96,1.0,56,128.98
1243,G#3,377.96,1.0,56,128.98
1244,C#3,377.96,1.0,56,128.98
1245,E-4,378.96,1.0,58,128.98
1246,G#3,378.96,1.0,58,128.98
1247,E-3,378.96,1.0,58,128.98
1248,F#5,379.0,0.5,53,128.98
1249,F5,379.5,0.5,53,128.98
1250,F4,379.96,1.0,61,128.98
1251,G#3,379.96,1.0,61,128.98
1252,F3,379.96,1.0,61,128.98
1253,G#4,380.0,3.0,43,128.98
1254,E-4,380.0,2.0,48,128.98
1255,E-5,380.0,2.0,48,128.98
1256,F#3,380.96,1.0,56,128.98
1257,G#3,380.96,1.0,56,128.98
1258,F#4,380.96,1.0,56,128.98
1259,C3,381.96,3.0,46,128.98
1260,C4,381.96,3.0,46,128.98
1261,G#3,381.96,3.0,46,128.98
1262,D4,382.0,1.0,46,128.98
1263,D5,382.0,1.0,46,128.98
1264,C#4,383.0,2.0,46,128.98
1265,G4,383.0,2.0,46,128.98
1266,C#5,383.0,2.0,46,128.98
1267,C#3,384.96,3.0,36,128.98
1268,G#3,384.96,3.0,36,128.98
1269,C#4,384.96,3.0,36,128.98
1270,C5,385.0,0.5,50,128.98
1271,C#4,385.0,1.0,42,128.98
1272,G4,385.0,1.0,42,128.98
1273,B-4,385.5,0.5,49,128.98
1274,F#4,386.0,2.0,46,128.98
1275,E-4,386.0,2.0,46,128.98
1276,E-5,386.0,2.0,46,128.98
1277,G#3,387.96,3.0,35,128.98
1278,C3,387.96,2.0,37,128.98
1279,C4,387.96,2.0,37,128.98
1280,C#5,388.0,0.5,48,128.98
1281,E-4,388.0,1.0,38,128.98
1282,F#4,388.0,1.0,38,128.98
1283,C5,388.5,0.5,48,128.98
1284,C#4,389.0,2.0,48,128.98
1285,G4,389.0,2.0,48,128.98
1286,C#5,389.0,2.0,48,128.98
1287,B2,389.96,1.0,34,128.98
1288,B3,389.96,1.0,34,128.98
1289,B-2,390.96,2.0,34,128.98
1290,E-3,390.96,2.0,34,128.98
1291,B-3,390.96,2.0,34,128.98
1292,C5,391.0,0.5,47,128.98
1293,C#4,391.0,1.0,37,128.98
1294,G4,391.0,1.0,37,128.98
1295,B-4,391.5,0.5,47,128.98
1296,C4,392.0,3.0,36,128.98
1297,G#4,392.0,1.0,45,128.98
1298,E-3,392.96,1.0,36,128.98
1299,G4,393.0,1.0,40,128.98
1300,A2,393.96,2.0,35,128.98
1301,E-3,393.96,2.0,35,128.98
1302,A3,393.96,2.0,35,128.98
1303,F#4,394.0,1.0,36,128.98
1304,F4,395.0,2.0,38,128.98
1305,E-3,395.96,1.0,31,128.98
1306,A3,395.96,1.0,31,128.98
1307,B-2,396.96,2.0,33,128.98
1308,E-3,396.96,2.0,33,128.98
1309,B-3,396.96,2.0,33,128.98
1310,F#4,397.0,0.5,39,128.98
1311,F4,397.5,0.5,38,128.98
1312,E-4,398.0,2.0,39,128.98
1313,E-3,398.96,1.0,31,128.98
1314,E-3,399.96,2.0,30,128.98
1315,G#2,399.96,3.0,27,128.98
1316,F4,400.0,0.5,37,128.98
1317,E-4,400.5,0.5,35,128.98
1318,G#3,401.96,1.0,29,128.98
1319,C#2,402.96,3.0,23,128.98
1320,G#2,402.96,3.0,23,128.98
1321,C#3,402.96,3.0,23,128.98
1322,F3,402.96,3.0,23,128.98
1323,G#3,402.96,3.0,23,128.98
1324,E-2,405.96,3.0,23,128.98
1325,G#2,405.96,3.0,23,128.98
1326,C3,405.96,3.0,23,128.98
1327,G#3,405.96,3.0,23,128.98
1328,F#3,405.96,3.0,23,128.98
1329,G#3,406.0,19/20,52,128.98
1330,C#4,406.0,19/20,52,128.98
1331,G#4,406.0,19/20,52,128.98
1332,G#3,407.0,2.0,52,128.98
1333,C#4,407.0,2.0,52,128.98
1334,G#4,407.0,2.0,52,128.98
1335,C#3,408.96,0.75,23,128.98
1336,F2,408.96,0.75,23,128.98
1337,G#2,408.96,0.75,23,128.98
1338,C#4,408.96,0.75,23,128.98
1339,F3,408.96,0.75,23,128.98
1340,G#3,408.96,0.75,23,128.98
1341,C#4,409.0,1.0,54,128.98
1342,B-3,409.0,0.5,61,128.98
1343,B-4,409.0,0.5,61,128.98
1344,G#3,409.5,0.5,54,128.98
1345,G#4,409.5,0.5,54,128.98
1346,C#3,409.96,0.75,25,128.98
1347,F#2,409.96,0.75,25,128.98
1348,B-2,409.96,0.75,25,128.98
1349,C#4,409.96,0.75,25,128.98
1350,B-3,409.96,0.75,25,128.98
1351,F#3,409.96,0.75,25,128.98
1352,G#3,410.0,1.0,51,128.98
1353,C#4,410.0,1.0,51,128.98
1354,G#4,410.0,1.0,51,128.98
1355,G2,410.96,0.75,26,128.98
1356,B-2,410.96,0.75,26,128.98
1357,C#3,410.96,0.75,26,128.98
1358,E-4,410.96,0.75,26,128.98
1359,C#4,410.96,0.75,26,128.98
1360,B-3,410.96,0.75,26,128.98
1361,E-3,410.96,0.75,26,128.98
1362,F4,411.0,1.0,67,128.98
1363,G#4,411.0,1.0,67,128.98
1364,F5,411.0,1.0,67,128.98
1365,G#2,411.96,2.0,24,128.98
1366,C3,411.96,2.0,24,128.98
1367,E-3,411.96,2.0,24,128.98
1368,G#3,411.96,2.0,24,128.98
1369,E-4,412.0,1.0,61,128.98
1370,G#4,412.0,1.0,61,128.98
1371,E-5,412.0,1.0,61,128.98
1372,C#4,413.0,2.0,69,128.98
1373,F4,413.0,2.0,69,128.98
1374,C#5,413.0,2.0,69,128.98
1375,F2,413.96,19/20,40,128.98
1376,C#3,413.96,19/20,40,128.98
1377,F3,413.96,19/20,40,128.98
1378,F2,414.96,2.0,40,128.98
1379,C#3,414.96,2.0,40,128.98
1380,F3,414.96,2.0,40,128.98
1381,C4,415.0,1.0,65,128.98
1382,E-4,415.0,1.0,65,128.98
1383,G#4,415.0,1.0,65,128.98
1384,C5,415.0,1.0,65,128.98
1385,C#4,416.0,2.0,68,128.98
1386,F4,416.0,2.0,68,128.98
1387,G#4,416.0,2.0,68,128.98
1388,C#5,416.0,2.0,68,128.98
1389,C#3,416.96,1.0,38,128.98
1390,F#2,416.96,0.5,40,128.98
1391,F#3,416.96,0.5,40,128.98
1392,F2,417.46,0.5,37,128.98
1393,F3,417.46,0.5,37,128.98
1394,F2,417.96,1.0,36,128.98
1395,C#3,417.96,1.0,36,128.98
1396,F3,417.96,1.0,36,128.98
1397,G#4,418.0,19/20,72,128.98
1398,G#5,418.0,19/20,72,128.98
1399,C#5,418.0,19/20,72,128.98
1400,G#3,418.96,1.0,50,128.98
1401,C#3,418.96,1.0,50,128.98
1402,C#4,418.96,1.0,50,128.98
1403,G#4,419.0,2.0,72,128.98
1404,C#5,419.0,2.0,72,128.98
1405,G#5,419.0,2.0,72,128.98
1406,G#3,419.96,1.0,47,128.98
1407,C3,419.96,1.0,47,128.98
1408,C4,419.96,1.0,47,128.98
1409,B-2,420.96,2.0,53,128.98
1410,F3,420.96,2.0,53,128.98
1411,B-3,420.96,2.0,53,128.98
1412,C#5,421.0,1.0,71,128.98
1413,B-4,421.0,0.5,80,128.98
1414,B-5,421.0,0.5,80,128.98
1415,G#4,421.5,0.5,74,128.98
1416,G#5,421.5,0.5,74,128.98
1417,G#4,422.0,1.0,72,128.98
1418,C#5,422.0,1.0,72,128.98
1419,G#5,422.0,1.0,72,128.98
1420,G#2,422.96,1.0,50,128.98
1421,G#3,422.96,1.0,50,128.98
1422,F#3,422.96,1.0,50,128.98
1423,C#4,423.0,1.0,76,128.98
1424,G#4,423.0,1.0,76,128.98
1425,C#5,423.0,1.0,76,128.98
1426,F6,423.0,1.0,76,128.98
1427,G#5,423.0,1.0,76,128.98
1428,F5,423.0,1.0,76,128.98
1429,C#3,423.96,2.0,53,128.98
1430,F3,423.96,2.0,53,128.98
1431,G#3,423.96,2.0,53,128.98
1432,C4,424.0,1.0,75,128.98
1433,G#4,424.0,1.0,75,128.98
1434,C5,424.0,1.0,75,128.98
1435,E-5,424.0,1.0,75,128.98
1436,G#5,424.0,1.0,75,128.98
1437,E-6,424.0,1.0,75,128.98
1438,B-3,425.0,2.0,75,128.98
1439,F4,425.0,2.0,75,128.98
1440,B-4,425.0,2.0,75,128.98
1441,C#5,425.0,2.0,75,128.98
1442,F5,425.0,2.0,75,128.98
1443,C#6,425.0,2.0,75,128.98
1444,F4,425.96,19/20,55,128.98
1445,C#4,425.96,19/20,55,128.98
1446,F3,425.96,19/20,55,128.98
1447,F3,426.96,2.0,53,128.98
1448,C#4,426.96,2.0,53,128.98
1449,F4,426.96,2.0,53,128.98
1450,G#3,427.0,1.0,73,128.98
1451,F#4,427.0,1.0,73,128.98
1452,G#4,427.0,1.0,73,128.98
1453,C5,427.0,1.0,73,128.98
1454,E-5,427.0,1.0,73,128.98
1455,G#5,427.0,1.0,73,128.98
1456,C6,427.0,1.0,73,128.98
1457,C#4,428.0,1.5,73,128.98
1458,F4,428.0,1.5,73,128.98
1459,G#4,428.0,1.5,73,128.98
1460,C#5,428.0,1.5,73,128.98
1461,F5,428.0,1.5,73,128.98
1462,G#5,428.0,1.5,73,128.98
1463,C#6,428.0,1.5,73,128.98
1464,C#4,428.96,1.0,54,128.98
1465,F#4,428.96,0.5,58,128.98
1466,F#3,428.96,0.5,58,128.98
1467,F4,429.46,0.5,54,128.98
1468,F3,429.46,0.5,54,128.98
1469,F4,429.96,1.0,55,128.98
1470,C#4,429.96,1.0,55,128.98
1471,F3,429.96,1.0,55,128.98
1472,E-4,430.0,1.0,41,128.98
1473,G#4,430.0,1.0,41,128.98
1474,C5,430.0,1.0,41,128.98
1475,C5,431.0,3.0,54,128.98
1476,F4,431.0,3.0,43,128.98
1477,G#4,431.0,3.0,43,128.98
1478,B-4,435.0,1.0,51,128.98
1479,F4,435.0,1.0,43,128.98
1480,G#4,435.0,1.0,43,128.98
1481,F5,437.0,1.0,54,128.98
1482,B-4,437.0,1.0,54,128.98
1483,G4,437.0,1.0,54,128.98
1484,G#3,437.96,1.0,36,128.98
1485,F5,438.0,3.0,65,128.98
1486,G#4,438.0,3.0,52,128.98
1487,C5,438.0,3.0,52,128.98
1488,C#4,438.96,3.0,38,128.98
1489,C#4,441.96,1.0,38,128.98
1490,E-5,442.0,1.0,60,128.98
1491,G#4,442.0,1.0,52,128.98
1492,C5,442.0,1.0,52,128.98
1493,C4,443.5,1.5,43,128.98
1494,E-4,443.5,0.5,48,128.98
1495,F4,443.96,1.0,42,128.98
1496,C#4,443.96,1.0,42,128.98
1497,G#4,444.0,0.5,56,128.98
1498,C5,444.5,0.5,58,128.98
1499,F4,444.96,3.0,45,128.98
1500,C4,444.96,3.0,40,128.98
1501,C#4,445.0,2.0,51,128.98
1502,E-4,445.0,2.0,51,128.98
1503,G4,445.0,2.0,51,128.98
1504,C#5,445.0,2.0,51,128.98
1505,C4,447.0,1.0,53,128.98
1506,E-4,447.0,1.0,53,128.98
1507,G#4,447.0,1.0,53,128.98
1508,C5,447.0,1.0,53,128.98
1509,E-4,447.96,1.0,43,128.98
1510,C4,447.96,1.0,40,128.98
1511,B-3,448.0,2.0,55,128.98
1512,E-4,448.0,2.0,55,128.98
1513,B-4,448.0,2.0,55,128.98
1514,G#3,449.46,0.5,42,128.98
1515,E-3,449.96,0.5,44,128.98
1516,D4,450.0,1.0,55,128.98
1517,B-4,450.0,1.0,55,128.98
1518,G#4,450.0,1.0,55,128.98
1519,D5,450.0,1.0,55,128.98
1520,C3,450.46,0.5,45,128.98
1521,B-2,450.96,2.0,39,128.98
1522,E-3,450.96,2.0,39,128.98
1523,G3,450.96,2.0,39,128.98
1524,B-4,451.0,3.0,55,128.98
1525,D4,451.0,3.0,60,128.98
1526,G#4,451.0,3.0,60,128.98
1527,D5,451.0,3.0,60,128.98
1528,G#2,452.96,1.0,42,128.98
1529,E-3,452.96,1.0,42,128.98
1530,G#3,452.96,1.0,42,128.98
1531,G2,453.96,2.0,43,128.98
1532,E-3,453.96,2.0,43,128.98
1533,G3,453.96,2.0,43,128.98
1534,B-4,454.0,1.0,55,128.98
1535,G4,454.0,1.0,44,128.98
1536,E-4,454.0,1.0,44,128.98
1537,E-5,454.0,1.0,44,128.98
1538,F2,455.96,1.0,45,128.98
1539,B-2,455.96,1.0,45,128.98
1540,F3,455.96,1.0,45,128.98
1541,E-4,456.0,1.0,46,128.98
1542,G#4,456.0,1.0,46,128.98
1543,C5,456.0,1.0,46,128.98
1544,E-2,456.96,3.0,47,128.98
1545,B-2,456.96,3.0,47,128.98
1546,E-3,456.96,3.0,47,128.98
1547,C5,457.0,3.0,58,128.98
1548,F4,457.0,3.0,46,128.98
1549,G#4,457.0,3.0,46,128.98
1550,E-2,460.96,1.0,47,128.98
1551,B-2,460.96,1.0,47,128.98
1552,E-3,460.96,1.0,47,128.98
1553,B-4,461.0,1.0,50,128.98
1554,F4,461.0,1.0,46,128.98
1555,G#4,461.0,1.0,46,128.98
1556,G#3,462.96,1.0,37,128.98
1557,F5,463.0,1.0,71,128.98
1558,B4,463.0,1.0,71,128.98
1559,G4,463.0,1.0,71,128.98
1560,C#4,463.96,3.0,41,128.98
1561,F5,464.0,3.0,85,128.98
1562,G4,464.0,3.0,68,128.98
1563,C5,464.0,3.0,68,128.98
1564,C#4,466.96,1.0,41,128.98
1565,E5,468.0,1.0,51,128.98
1566,G4,468.0,1.0,68,128.98
1567,C5,468.0,1.0,68,128.98
1568,C#2,468.96,1.0,42,128.98
1569,C#3,468.96,1.0,42,128.98
1570,C2,469.96,3.0,46,128.98
1571,C3,469.96,3.0,46,128.98
1572,G4,470.0,1.0,45,128.98
1573,C5,470.0,1.0,45,128.98
1574,E5,470.0,1.0,45,128.98
1575,G4,471.0,2.0,53,128.98
1576,C#5,471.0,2.0,53,128.98
1577,E-5,471.0,2.0,53,128.98
1578,G#4,473.0,1.0,51,128.98
1579,C5,473.0,1.0,51,128.98
1580,E-5,473.0,1.0,51,128.98
1581,C2,473.96,1.0,46,128.98
1582,C3,473.96,1.0,46,128.98
1583,F4,474.0,2.0,55,128.98
1584,B-4,474.0,2.0,55,128.98
1585,C#5,474.0,2.0,55,128.98
1586,E4,475.96,1.0,34,128.98
1587,C4,475.96,1.0,34,128.98
1588,C5,476.0,0.5,53,128.98
1589,C#4,476.0,1.0,47,128.98
1590,G4,476.0,1.0,47,128.98
1591,B-4,476.5,0.5,51,128.98
1592,E-4,476.96,2.0,38,128.98
1593,B-3,476.96,2.0,38,128.98
1594,C#4,477.0,3.0,41,128.98
1595,G4,477.0,3.0,41,128.98
1596,B-4,477.0,3.0,41,128.98
1597,E-4,478.96,1.0,40,128.98
1598,G#3,478.96,1.0,40,128.98
1599,C#3,479.96,2.0,51,128.98
1600,C4,480.0,1.0,30,128.98
1601,G#4,480.0,1.0,30,128.98
1602,E-3,481.96,1.0,43,128.98
1603,D4,482.0,19/20,35,128.98
1604,G#4,482.0,19/20,35,128.98
1605,B4,482.0,19/20,35,128.98
1606,G#2,482.96,3.0,33,128.98
1607,E-3,482.96,3.0,33,128.98
1608,D4,483.0,3.0,32,128.98
1609,G#4,483.0,3.0,36,128.98
1610,B4,483.0,3.0,36,128.98
1611,G#2,486.96,1.0,33,128.98
1612,E-3,486.96,1.0,33,128.98
1613,E-4,487.0,1.0,28,128.98
1614,G#4,487.0,1.0,36,128.98
1615,B4,487.0,1.0,36,128.98
1616,E3,488.96,19/20,26,128.98
1617,G#3,488.96,19/20,26,128.98
1618,B3,488.96,19/20,26,128.98
1619,E4,489.0,19/20,39,128.98
1620,G#4,489.0,19/20,39,128.98
1621,B4,489.0,19/20,39,128.98
1622,E3,489.96,3.0,25,128.98
1623,G#3,489.96,3.0,26,128.98
1624,B3,489.96,3.0,26,128.98
1625,E4,490.0,3.0,39,128.98
1626,G#4,490.0,3.0,44,128.98
1627,B4,490.0,3.0,44,128.98
1628,E-3,493.96,1.0,22,128.98
1629,G#3,493.96,1.0,26,128.98
1630,B3,493.96,1.0,26,128.98
1631,E-4,494.0,1.0,29,128.98
1632,G#4,494.0,1.0,44,128.98
1633,B4,494.0,1.0,44,128.98
1634,C#3,495.96,19/20,28,128.98
1635,G#3,495.96,19/20,28,128.98
1636,B3,495.96,19/20,28,128.98
1637,E-4,496.0,1.0,46,128.98
1638,G#4,496.0,1.0,46,128.98
1639,B4,496.0,1.0,46,128.98
1640,C#3,496.96,3.0,28,128.98
1641,G#3,496.96,3.0,30,128.98
1642,B3,496.96,3.0,30,128.98
1643,B-4,497.0,1.0,58,128.98
1644,E4,497.0,3.0,49,128.98
1645,G#4,497.0,3.0,49,128.98
1646,E5,498.0,1.5,65,128.98
1647,B-4,499.5,0.5,51,128.98
1648,B2,500.96,1.0,21,128.98
1649,G#3,500.96,1.0,30,128.98
1650,B3,500.96,1.0,30,128.98
1651,E-5,502.0,0.5,57,128.98
1652,E4,502.0,2.0,49,128.98
1653,G#4,502.0,2.0,49,128.98
1654,C#5,502.5,0.5,55,128.98
1655,B2,502.96,1.0,30,128.98
1656,G#3,502.96,1.0,30,128.98
1657,B3,502.96,1.0,30,128.98
1658,B4,503.0,1.0,55,128.98
1659,C#3,503.96,3.0,35,128.98
1660,B-3,503.96,3.0,37,128.98
1661,G#3,503.96,3.0,37,128.98
1662,E4,504.0,1.0,45,128.98
1663,C#4,504.0,1.0,45,128.98
1664,B-4,504.0,1.0,45,128.98
1665,E-4,505.0,3.0,39,128.98
1666,B3,505.0,3.0,44,128.98
1667,G#4,505.0,3.0,44,128.98
1668,E-4,508.0,1.0,39,128.98
1669,B-3,508.0,1.0,31,128.98
1670,G4,508.0,1.0,31,128.98
1671,B-2,508.96,1.0,40,128.98
1672,B-3,508.96,2.0,37,128.98
1673,G#3,508.96,2.0,37,128.98
1674,B2,509.96,1.0,37,128.98
1675,D4,510.0,19/20,31,128.98
1676,G#4,510.0,19/20,31,128.98
1677,B4,510.0,19/20,31,128.98
1678,C#3,510.96,1.0,35,128.98
1679,D4,511.0,3.0,28,128.98
1680,G#4,511.0,3.0,32,128.98
1681,B4,511.0,3.0,32,128.98
1682,E-3,511.96,3.0,35,128.98
1683,E-3,514.96,1.0,35,128.98
1684,E-4,515.0,1.0,25,128.98
1685,G#4,515.0,1.0,32,128.98
1686,B4,515.0,1.0,32,128.98
1687,E3,516.96,19/20,23,128.98
1688,G#3,516.96,19/20,23,128.98
1689,B3,516.96,19/20,23,128.98
1690,E4,517.0,19/20,41,128.98
1691,G#4,517.0,19/20,41,128.98
1692,B4,517.0,19/20,41,128.98
1693,E3,517.96,3.0,22,128.98
1694,G#3,517.96,3.0,24,128.98
1695,B3,517.96,3.0,24,128.98
1696,E4,518.0,3.0,35,128.98
1697,G#4,518.0,3.0,40,128.98
1698,B4,518.0,3.0,40,128.98
1699,E-3,521.96,1.0,19,128.98
1700,G#3,521.96,1.0,24,128.98
1701,B3,521.96,1.0,24,128.98
1702,E-4,522.0,1.0,30,128.98
1703,G#4,522.0,1.0,40,128.98
1704,B4,522.0,1.0,40,128.98
1705,C#3,523.96,19/20,29,128.98
1706,G#3,523.96,19/20,29,128.98
1707,B3,523.96,19/20,29,128.98
1708,E4,524.0,1.0,42,128.98
1709,G#4,524.0,1.0,42,128.98
1710,B4,524.0,1.0,42,128.98
1711,C#3,524.96,3.0,27,128.98
1712,G#3,524.96,3.0,29,128.98
1713,B3,524.96,3.0,29,128.98
1714,B4,525.0,1.0,50,128.98
1715,E4,525.0,3.0,45,128.98
1716,G#4,525.0,3.0,45,128.98
1717,E5,526.0,1.5,70,128.98
1718,B4,527.5,0.25,60,128.98
1719,B4,527.75,0.25,55,128.98
1720,E-5,528.0,0.5,73,128.98
1721,E4,528.0,3.0,45,128.98
1722,C#5,528.5,0.5,70,128.98
1723,B2,528.96,1.0,18,128.98
1724,G#3,528.96,1.0,29,128.98
1725,B3,528.96,1.0,29,128.98
1726,B4,529.0,1.0,67,128.98
1727,G#4,530.0,1.0,65,128.98
1728,E3,530.96,1.0,35,128.98
1729,B2,530.96,1.0,35,128.98
1730,G#3,530.96,1.0,35,128.98
1731,B3,530.96,1.0,35,128.98
1732,F4,531.0,1.0,62,128.98
1733,C#4,531.0,3.0,55,128.98
1734,B2,531.96,3.0,40,128.98
1735,E3,531.96,3.0,40,128.98
1736,G#3,531.96,3.0,40,128.98
1737,B3,531.96,3.0,40,128.98
1738,C#5,532.0,1.5,70,128.98
1739,F4,533.5,0.5,58,128.98
1740,C#5,534.0,0.5,70,128.98
1741,C#4,534.0,1.0,56,128.98
1742,F#4,534.0,1.0,56,128.98
1743,A4,534.5,0.5,70,128.98
1744,B2,534.96,3.0,38,128.98
1745,E3,534.96,3.0,38,128.98
1746,G#3,534.96,3.0,38,128.98
1747,B3,534.96,3.0,38,128.98
1748,E4,535.0,1.0,63,128.98
1749,G#4,535.0,1.0,63,128.98
1750,E-4,536.0,1.0,64,128.98
1751,F#4,536.0,1.0,64,128.98
1752,G#3,537.0,2.0,57,128.98
1753,B3,537.0,2.0,57,128.98
1754,E4,537.0,2.0,57,128.98
1755,B2,537.96,3.0,36,128.98
1756,F3,537.96,3.0,36,128.98
1757,G#3,537.96,3.0,36,128.98
1758,E4,539.0,333/1000,51,128.98
1759,G#4,539.333,333/1000,55,128.98
1760,B4,539.667,333/1000,59,128.98
1761,B-4,540.0,2.0,58,128.98
1762,G4,540.0,2.0,58,128.98
1763,E4,540.0,2.0,58,128.98
1764,C#4,540.0,2.0,58,128.98
1765,B2,540.96,3.0,43,128.98
1766,F#3,540.96,1.0,40,128.98
1767,A3,540.96,1.0,40,128.98
1768,G#3,541.96,1.0,40,128.98
1769,B3,541.96,1.0,40,128.98
1770,B4,542.0,0.5,48,128.98
1771,G#4,542.0,0.5,48,128.98
1772,E4,542.0,0.5,48,128.98
1773,B3,542.0,0.5,48,128.98
1774,F#4,542.5,0.25,44,128.98
1775,G#4,542.75,0.25,44,128.98
1776,A3,542.96,1.0,40,128.98
1777,B3,542.96,1.0,40,128.98
1778,E-4,543.0,3.0,44,128.98
1779,C4,543.0,1.5,44,128.98
1780,A4,543.0,1.5,44,128.98
1781,E2,543.96,3.0,43,128.98
1782,B2,543.96,3.0,43,128.98
1783,E3,543.96,3.0,43,128.98
1784,B3,544.5,0.5,44,128.98
1785,G#4,544.5,0.5,44,128.98
1786,A3,545.0,1.0,42,128.98
1787,F#4,545.0,1.0,42,128.98
1788,G#3,546.0,2.0,36,128.98
1789,E4,546.0,2.0,36,128.98
1790,E2,546.96,3.0,46,128.98
1791,E4,548.0,333/1000,51,128.98
1792,G#4,548.333,333/1000,55,128.98
1793,B4,548.667,333/1000,59,128.98
1794,B-4,549.0,2.0,60,128.98
1795,G4,549.0,2.0,60,128.98
1796,E4,549.0,2.0,60,128.98
1797,C#4,549.0,2.0,60,128.98
1798,E2,549.96,3.0,33,128.98
1799,A2,549.96,1.5,37,128.98
1800,B4,551.0,0.5,44,128.98
1801,G#4,551.0,0.5,44,128.98
1802,E4,551.0,0.5,44,128.98
1803,B3,551.0,0.5,44,128.98
1804,B2,551.46,0.5,35,128.98
1805,F#4,551.5,0.25,43,128.98
1806,G#4,551.75,0.25,43,128.98
1807,C3,551.96,1.0,33,128.98
1808,E-4,552.0,3.0,36,128.98
1809,C4,552.0,1.5,44,128.98
1810,A4,552.0,1.5,44,128.98
1811,B2,552.96,3.0,26,128.98
1812,E2,552.96,3.0,26,128.98
1813,B3,553.5,0.5,38,128.98
1814,G#4,553.5,0.5,38,128.98
1815,A3,554.0,1.0,35,128.98
1816,F#4,554.0,1.0,35,128.98
1817,G#3,555.0,2.0,33,128.98
1818,E4,555.0,2.0,33,128.98
1819,E2,555.96,3.0,46,128.98
1820,G#4,557.0,1.0,43,128.98
1821,E4,558.0,2.0,44,128.98
1822,G#4,558.0,2.0,44,128.98
1823,E2,558.96,3.0,27,128.98
1824,A2,558.96,1.5,35,128.98
1825,E4,560.0,1.0,40,128.98
1826,G#4,560.0,1.0,40,128.98
1827,B2,560.46,0.5,32,128.98
1828,C3,560.96,1.0,29,128.98
1829,E4,561.0,1.5,45,128.98
1830,G#4,561.0,2.0,50,128.98
1831,B2,561.96,3.0,22,128.98
1832,E2,561.96,3.0,22,128.98
1833,E-4,562.5,0.5,40,128.98
1834,D4,563.0,1.0,38,128.98
1835,G#4,563.0,1.0,38,128.98
1836,E-4,564.0,3.0,35,128.98
1837,G#4,564.0,3.0,44,128.98
1838,E3,564.96,2.0,30,128.98
1839,B3,564.96,2.0,30,128.98
1840,E3,566.96,1.0,24,128.98
1841,B3,566.96,1.0,24,128.98
1842,G4,567.0,1.5,39,128.98
1843,E-4,567.0,2.0,35,128.98
1844,E3,567.96,2.0,30,128.98
1845,B3,567.96,2.0,30,128.98
1846,G#4,568.5,0.5,39,128.98
1847,B-4,569.0,0.5,42,128.98
1848,C5,569.5,0.5,45,128.98
1849,E3,569.96,1.0,25,128.98
1850,G#3,569.96,1.0,25,128.98
1851,F4,570.0,2.0,41,128.98
1852,G#4,570.0,2.0,41,128.98
1853,C#5,570.0,2.0,41,128.98
1854,E-3,570.96,3.0,30,128.98
1855,B-3,570.96,3.0,30,128.98
1856,F4,572.0,1.0,42,128.98
1857,G#4,572.0,1.0,42,128.98
1858,C#5,572.0,1.0,42,128.98
1859,E-5,573.0,0.25,55,128.98
1860,G4,573.0,2.0,42,128.98
1861,B-4,573.0,2.0,42,128.98
1862,C#5,573.25,0.25,50,128.98
1863,C5,573.5,0.25,50,128.98
1864,C#5,573.75,0.25,50,128.98
1865,E-5,574.0,1.0,51,128.98
1866,G4,575.0,1.0,44,128.98
1867,B-4,575.0,1.0,44,128.98
1868,E-3,575.96,2.0,30,128.98
1869,B-3,575.96,2.0,30,128.98
1870,G4,576.0,3.0,43,128.98
1871,B-4,576.0,3.0,43,128.98
1872,C#5,576.0,3.0,43,128.98
1873,E-3,578.96,2.0,29,128.98
1874,F3,578.96,2.0,29,128.98
1875,G#3,578.96,2.0,29,128.98
1876,C#4,578.96,2.0,29,128.98
1877,G#4,579.0,1.0,40,128.98
1878,C5,579.0,1.0,40,128.98
1879,E-3,580.96,1.0,29,128.98
1880,F3,580.96,1.0,29,128.98
1881,G#3,580.96,1.0,29,128.98
1882,C#4,580.96,1.0,29,128.98
1883,G#4,581.0,19/20,69,128.98
1884,C5,581.0,19/20,69,128.98
1885,F5,581.0,19/20,69,128.98
1886,C#4,581.96,2.0,33,128.98
1887,B-3,581.96,2.0,33,128.98
1888,G3,581.96,2.0,33,128.98
1889,E-3,581.96,2.0,33,128.98
1890,G#4,582.0,2.0,69,128.98
1891,C5,582.0,2.0,69,128.98
1892,F5,582.0,2.0,69,128.98
1893,E-4,583.96,1.0,29,128.98
1894,E-3,583.96,1.0,29,128.98
1895,G#4,584.0,1.0,69,128.98
1896,C5,584.0,1.0,69,128.98
1897,F5,584.0,1.0,69,128.98
1898,E-4,584.96,3.0,31,128.98
1899,G#3,584.96,3.0,31,128.98
1900,G#5,585.0,1.5,86,128.98
1901,G#4,585.0,2.0,69,128.98
1902,C5,585.0,2.0,69,128.98
1903,G4,586.5,0.5,72,128.98
1904,G5,586.5,0.5,72,128.98
1905,F5,587.0,1.0,64,128.98
1906,C5,587.0,1.0,64,128.98
1907,G#4,587.0,1.0,64,128.98
1908,F4,587.0,1.0,64,128.98
1909,F5,588.0,3.0,80,128.98
1910,C#5,588.0,3.0,65,128.98
1911,B-4,588.0,3.0,65,128.98
1912,G4,588.0,3.0,65,128.98
1913,E-4,588.96,1.0,31,128.98
1914,G#3,588.96,1.0,31,128.98
1915,G#3,590.96,19/20,53,128.98
1916,C4,590.96,19/20,53,128.98
1917,F4,590.96,19/20,53,128.98
1918,G#3,591.96,2.0,53,128.98
1919,C4,591.96,2.0,53,128.98
1920,F4,591.96,2.0,53,128.98
1921,G#3,593.96,1.0,53,128.98
1922,C4,593.96,1.0,53,128.98
1923,F4,593.96,1.0,53,128.98
1924,F5,594.0,2.0,80,128.98
1925,C#5,594.0,3.0,65,128.98
1926,B-4,594.0,3.0,65,128.98
1927,G4,594.0,3.0,65,128.98
1928,G#3,594.96,2.0,58,128.98
1929,C4,594.96,2.0,58,128.98
1930,E5,596.0,1.0,54,128.98
1931,G#3,596.96,1.0,51,128.98
1932,C4,596.96,1.0,51,128.98
1933,B-4,597.0,3.0,37,128.98
1934,E-5,597.0,2.0,47,128.98
1935,F4,597.96,3.0,57,128.98
1936,C#4,597.96,3.0,51,128.98
1937,B-3,597.96,3.0,51,128.98
1938,G3,597.96,3.0,51,128.98
1939,D5,599.0,1.0,43,128.98
1940,C#5,600.0,2.0,37,128.98
1941,B-4,600.0,2.0,37,128.98
1942,E-4,602.0,1.0,39,128.98
1943,G#4,602.0,1.0,39,128.98
1944,C5,602.0,1.0,39,128.98
1945,C5,603.0,3.0,47,128.98
1946,F4,603.0,3.0,37,128.98
1947,G#4,603.0,3.0,37,128.98
1948,F4,603.96,2.0,57,128.98
1949,C#4,603.96,3.0,51,128.98
1950,B-3,603.96,3.0,51,128.98
1951,G3,603.96,3.0,51,128.98
1952,E4,605.96,1.0,44,128.98
1953,E-4,606.96,3.0,30,128.98
1954,G3,606.96,3.0,30,128.98
1955,B-4,607.0,1.0,44,128.98
1956,F4,607.0,1.0,37,128.98
1957,G#4,607.0,1.0,37,128.98
1958,F5,609.0,1.0,43,128.98
1959,B-4,609.0,1.0,43,128.98
1960,G4,609.0,1.0,43,128.98
1961,F5,610.0,3.0,52,128.98
1962,G#4,610.0,3.0,41,128.98
1963,C5,610.0,3.0,41,128.98
1964,E-4,611.96,2.0,30,128.98
1965,G3,611.96,2.0,30,128.98
1966,G#3,613.96,1.0,32,128.98
1967,E-5,614.0,1.0,48,128.98
1968,G#4,614.0,1.0,41,128.98
1969,C5,614.0,1.0,41,128.98
1970,C#4,614.96,3.0,33,128.98
1971,C4,615.5,1.5,38,128.98
1972,E-4,615.5,0.5,43,128.98
1973,G#4,616.0,0.5,50,128.98
1974,C5,616.5,0.5,52,128.98
1975,C#4,617.0,2.0,46,128.98
1976,E-4,617.0,2.0,46,128.98
1977,G4,617.0,2.0,46,128.98
1978,C#5,617.0,2.0,46,128.98
1979,C#4,617.96,1.0,33,128.98
1980,C4,619.0,1.0,48,128.98
1981,E-4,619.0,1.0,48,128.98
1982,G#4,619.0,1.0,48,128.98
1983,C5,619.0,1.0,48,128.98
1984,F4,619.96,1.0,34,128.98
1985,C#4,619.96,1.0,34,128.98
1986,B-3,620.0,2.0,49,128.98
1987,E-4,620.0,2.0,49,128.98
1988,B-4,620.0,2.0,49,128.98
1989,F4,620.96,3.0,36,128.98
1990,C4,620.96,3.0,32,128.98
1991,D4,622.0,1.0,52,128.98
1992,B-4,622.0,1.0,52,128.98
1993,G#4,622.0,1.0,52,128.98
1994,D5,622.0,1.0,52,128.98
1995,B-4,623.0,3.0,55,128.98
1996,D4,623.0,3.0,60,128.98
1997,G#4,623.0,3.0,60,128.98
1998,D5,623.0,3.0,60,128.98
1999,E-4,623.96,1.0,34,128.98
2000,C4,623.96,1.0,32,128.98
2001,G#3,625.46,1.5,37,128.98
2002,E-3,625.96,0.5,39,128.98
2003,B-4,626.0,1.0,55,128.98
2004,G4,626.0,1.0,39,128.98
2005,E-4,626.0,1.0,39,128.98
2006,E-5,626.0,1.0,39,128.98
2007,C3,626.46,0.5,40,128.98
2008,B-2,626.96,2.0,34,128.98
2009,E-3,626.96,2.0,34,128.98
2010,G3,626.96,2.0,34,128.98
2011,E-4,628.0,1.0,63,128.98
2012,G#4,628.0,1.0,63,128.98
2013,C5,628.0,1.0,63,128.98
2014,G#2,628.96,1.0,37,128.98
2015,E-3,628.96,1.0,37,128.98
2016,G#3,628.96,1.0,37,128.98
2017,C5,629.0,2.5,81,128.98
2018,E4,629.0,3.0,64,128.98
2019,G#4,629.0,3.0,64,128.98
2020,G2,629.96,2.0,38,128.98
2021,E-3,629.96,2.0,38,128.98
2022,G3,629.96,2.0,38,128.98
2023,B4,631.5,0.5,53,128.98
2024,F2,631.96,1.0,42,128.98
2025,B-2,631.96,1.0,42,128.98
2026,F3,631.96,1.0,42,128.98
2027,E-2,632.96,3.0,45,128.98
2028,B-2,632.96,3.0,45,128.98
2029,E-3,632.96,3.0,45,128.98
2030,B-4,633.0,1.0,50,128.98
2031,E4,633.0,1.0,64,128.98
2032,G#4,633.0,1.0,64,128.98
2033,E-4,635.0,1.0,63,128.98
2034,G#4,635.0,1.0,63,128.98
2035,C5,635.0,1.0,63,128.98
2036,C5,636.0,2.5,81,128.98
2037,E4,636.0,3.0,64,128.98
2038,G#4,636.0,3.0,64,128.98
2039,E-2,636.96,1.0,45,128.98
2040,B-2,636.96,1.0,45,128.98
2041,E-3,636.96,1.0,45,128.98
2042,B4,638.5,0.5,54,128.98
2043,G#1,638.96,1.0,48,128.98
2044,G#2,638.96,1.0,48,128.98
2045,C#2,639.96,3.0,54,128.98
2046,C#3,639.96,3.0,54,128.98
2047,B-4,640.0,1.0,51,128.98
2048,E4,640.0,1.0,64,128.98
2049,G#4,640.0,1.0,64,128.98
2050,E4,642.0,1.0,78,128.98
2051,G#4,642.0,1.0,78,128.98
2052,B4,642.0,1.0,78,128.98
2053,E4,643.0,981/1000,78,128.98
2054,G#4,643.0,981/1000,78,128.98
2055,B4,643.0,981/1000,78,128.98
2056,C#2,643.96,1.0,54,128.98
2057,C#3,643.96,1.0,54,128.98
2058,E4,644.0,19/20,78,128.98
2059,G#4,644.0,19/20,78,128.98
2060,B4,644.0,19/20,78,128.98
2061,E4,645.0,19/20,77,128.98
2062,G#4,645.0,19/20,77,128.98
2063,B4,645.0,19/20,77,128.98
2064,G#1,645.96,1.0,48,128.98
2065,G#2,645.96,1.0,48,128.98
2066,E4,646.0,19/20,74,128.98
2067,G#4,646.0,19/20,74,128.98
2068,B4,646.0,19/20,74,128.98
2069,C#2,646.96,3.0,54,128.98
2070,C#3,646.96,3.0,54,128.98
2071,E4,647.0,1.0,80,128.98
2072,A4,647.0,1.0,80,128.98
2073,C#5,647.0,1.0,80,128.98
2074,E4,648.0,1.0,83,128.98
2075,B4,648.0,1.0,83,128.98
2076,D5,648.0,1.0,83,128.98
2077,E4,649.0,1.0,84,128.98
2078,C#5,649.0,1.0,84,128.98
2079,E5,649.0,1.0,84,128.98
2080,E4,650.0,1.0,77,128.98
2081,B4,650.0,1.0,77,128.98
2082,D5,650.0,1.0,77,128.98
2083,C#2,650.96,1.0,54,128.98
2084,C#3,650.96,1.0,54,128.98
2085,E4,651.0,1.0,66,128.98
2086,A4,651.0,1.0,66,128.98
2087,C#5,651.0,1.0,66,128.98
2088,E-4,652.0,3.0,46,128.98
2089,G#4,652.0,3.0,52,128.98
2090,B4,652.0,3.0,52,128.98
2091,D2,652.96,1.0,58,128.98
2092,D3,652.96,1.0,58,128.98
2093,D2,653.96,981/1000,58,128.98
2094,D3,653.96,981/1000,58,128.98
2095,D2,654.96,19/20,60,128.98
2096,D3,654.96,19/20,60,128.98
2097,E-4,655.0,2.0,46,128.98
2098,G4,655.0,2.0,42,128.98
2099,B-4,655.0,2.0,42,128.98
2100,D2,655.96,19/20,60,128.98
2101,D3,655.96,19/20,60,128.98
2102,D2,656.96,19/20,58,128.98
2103,D3,656.96,19/20,58,128.98
2104,C#2,657.96,1.0,64,128.98
2105,C#3,657.96,1.0,64,128.98
2106,B1,658.96,1.0,66,128.98
2107,B2,658.96,1.0,66,128.98
2108,A1,659.96,1.0,68,128.98
2109,A2,659.96,1.0,68,128.98
2110,B2,660.96,1.0,62,128.98
2111,B1,660.96,1.0,62,128.98
2112,C#2,661.96,1.0,54,128.98
2113,C#3,661.96,1.0,54,128.98
2114,E-2,662.96,3.0,37,128.98
2115,E-3,662.96,3.0,37,128.98
2116,E-2,667.96,2.0,37,128.98
2117,E-3,667.96,2.0,37,128.98
2118,E3,669.96,1.0,51,128.98
2119,D3,669.96,1.0,51,128.98
2120,G#3,669.96,1.0,51,128.98
2121,B3,669.96,1.0,51,128.98
2122,E3,671.942,981/1000,51,128.98
2123,D3,671.942,981/1000,51,128.98
2124,G#3,671.942,981/1000,51,128.98
2125,B3,671.942,981/1000,51,128.98
2126,D3,672.942,19/20,37,128.98
2127,E3,672.942,19/20,37,128.98
2128,G#3,672.942,19/20,37,128.98
2129,B3,672.942,19/20,37,128.98
2130,D3,673.942,19/20,37,128.98
2131,E3,673.942,19/20,37,128.98
2132,G#3,673.942,19/20,37,128.98
2133,B3,673.942,19/20,37,128.98
2134,D3,674.942,19/20,34,128.98
2135,E3,674.942,19/20,34,128.98
2136,G#3,674.942,19/20,34,128.98
2137,B3,674.942,19/20,34,128.98
2138,C#3,675.942,1.0,37,128.98
2139,E3,675.942,1.0,37,128.98
2140,A3,675.942,1.0,37,128.98
2141,C#4,675.942,1.0,37,128.98
2142,B2,676.942,0.75,37,128.98
2143,E3,676.942,0.75,37,128.98
2144,D4,676.942,0.75,37,128.98
2145,B3,676.942,0.75,37,128.98
2146,F#4,677.692,0.25,48,128.98
2147,A2,677.942,1.0,35,128.98
2148,E3,677.942,1.0,35,128.98
2149,C#4,677.942,1.0,35,128.98
2150,E4,677.942,1.0,35,128.98
2151,B2,678.942,1.0,34,128.98
2152,E3,678.942,1.0,34,128.98
2153,B3,678.942,1.0,34,128.98
2154,D4,678.942,1.0,34,128.98
2155,C#3,679.942,1.0,30,128.98
2156,E3,679.942,1.0,30,128.98
2157,A3,679.942,1.0,30,128.98
2158,C#4,679.942,1.0,30,128.98
2159,E-3,680.942,3.0,27,128.98
2160,G#3,680.942,3.0,29,128.98
2161,B3,680.942,3.0,29,128.98
2162,E-3,683.942,3.0,27,128.98
2163,E-2,683.942,3.0,27,128.98
2164,G3,683.942,3.0,27,128.98
2165,B-3,683.942,3.0,27,128.98
2166,G#1,686.942,3.0,26,128.98
2167,G#2,686.942,3.0,26,128.98
2168,G#3,686.942,3.0,26,128.98
2169,G#1,691.942,2.0,26,128.98
2170,G#2,691.942,2.0,26,128.98
2171,G#3,691.942,2.0,26,128.98
