,note_name,start_time,duration,velocity,tempo
0,C#5,0.0,0.125,40,132.7
1,F3,0.0,0.125,35,132.7
2,C5,0.125,0.125,51,132.7
3,C5,0.5,0.25,45,132.7
4,G#3,0.5,0.125,27,132.7
5,C4,0.5,0.125,27,132.7
6,F4,0.5,0.125,27,132.7
7,C#5,0.75,0.25,39,132.7
8,C5,1.0,0.125,46,132.7
9,F3,1.0,0.125,30,132.7
10,C#5,1.5,0.125,40,132.7
11,C4,1.5,0.125,31,132.7
12,G#3,1.5,0.125,31,132.7
13,F4,1.5,0.125,31,132.7
14,C5,1.625,0.125,49,132.7
15,C5,2.0,0.25,44,132.7
16,F3,2.0,0.125,31,132.7
17,C#5,2.25,0.25,36,132.7
18,C5,2.5,0.125,42,132.7
19,G#3,2.5,0.125,28,132.7
20,F4,2.5,0.125,28,132.7
21,C4,2.5,0.125,28,132.7
22,C5,3.0,0.125,40,132.7
23,F3,3.0,0.125,35,132.7
24,B4,3.125,0.125,52,132.7
25,B4,3.5,0.25,47,132.7
26,D4,3.5,0.125,28,132.7
27,B3,3.5,0.125,28,132.7
28,G#3,3.5,0.125,28,132.7
29,D5,3.75,0.25,40,132.7
30,C5,4.0,0.25,45,132.7
31,F3,4.0,0.125,31,132.7
32,B4,4.25,0.25,36,132.7
33,C5,4.5,0.125,46,132.7
34,C3,4.5,0.125,35,132.7
35,G4,5.0,1.0,39,132.7
36,C4,5.0,0.125,29,132.7
37,G3,5.0,0.125,29,132.7
38,E3,5.0,0.125,29,132.7
39,C3,5.5,0.125,32,132.7
40,C5,6.0,0.125,46,132.7
41,C4,6.0,0.125,31,132.7
42,E3,6.0,0.125,31,132.7
43,G3,6.0,0.125,31,132.7
44,G4,6.5,0.125,39,132.7
45,C3,6.5,0.125,31,132.7
46,C5,7.0,0.125,46,132.7
47,E3,7.0,0.125,28,132.7
48,C4,7.0,0.125,28,132.7
49,G3,7.0,0.125,28,132.7
50,B-4,7.5,0.5,46,132.7
51,C#3,7.5,0.125,35,132.7
52,G#4,8.0,0.25,39,132.7
53,C#4,8.0,0.125,28,132.7
54,F3,8.0,0.125,28,132.7
55,G4,8.25,0.25,39,132.7
56,F4,8.5,0.5,43,132.7
57,C#3,8.5,0.125,31,132.7
58,G4,9.0,0.25,46,132.7
59,B-2,9.0,0.5,35,132.7
60,B-4,9.25,0.25,38,132.7
61,G4,9.5,0.25,46,132.7
62,B-3,9.5,0.5,30,132.7
63,G3,9.5,0.5,30,132.7
64,B-4,9.75,0.25,40,132.7
65,E4,10.0,0.25,46,132.7
66,C3,10.0,0.25,30,132.7
67,B-3,10.0,0.25,30,132.7
68,G3,10.0,0.25,30,132.7
69,G4,10.25,0.25,40,132.7
70,F4,10.5,0.25,46,132.7
71,F3,10.5,1.0,37,132.7
72,G#3,10.5,1.0,37,132.7
73,G#4,10.75,0.25,37,132.7
74,C5,11.0,0.25,42,132.7
75,F5,11.25,0.25,47,132.7
76,G#5,11.5,0.25,52,132.7
77,B-5,11.75,0.25,57,132.7
78,C6,12.0,0.125,65,132.7
79,F3,12.0,0.125,35,132.7
80,C6,12.5,0.25,54,132.7
81,C4,12.5,0.125,27,132.7
82,F4,12.5,0.125,27,132.7
83,G#3,12.5,0.125,27,132.7
84,C#6,12.75,0.25,46,132.7
85,C6,13.0,0.125,55,132.7
86,F3,13.0,0.125,30,132.7
87,C#6,13.5,0.125,48,132.7
88,C4,13.5,0.125,31,132.7
89,F4,13.5,0.125,31,132.7
90,G#3,13.5,0.125,31,132.7
91,C6,13.625,0.125,64,132.7
92,C6,14.0,0.25,52,132.7
93,F3,14.0,0.125,31,132.7
94,C#6,14.25,0.25,43,132.7
95,C6,14.5,0.125,50,132.7
96,G#3,14.5,0.125,28,132.7
97,F4,14.5,0.125,28,132.7
98,C4,14.5,0.125,28,132.7
99,C6,15.0,0.25,61,132.7
100,F3,15.0,0.125,35,132.7
101,B5,15.25,0.25,48,132.7
102,F6,15.5,0.25,56,132.7
103,G#3,15.5,0.125,28,132.7
104,B3,15.5,0.125,28,132.7
105,D4,15.5,0.125,28,132.7
106,B5,15.75,0.25,48,132.7
107,F6,16.0,0.25,54,132.7
108,F3,16.0,0.125,31,132.7
109,B5,16.25,0.25,43,132.7
110,C6,16.5,0.125,55,132.7
111,C3,16.5,0.125,35,132.7
112,G5,17.0,1.0,46,132.7
113,E3,17.0,0.125,29,132.7
114,G3,17.0,0.125,29,132.7
115,C4,17.0,0.125,29,132.7
116,C3,17.5,0.125,32,132.7
117,C6,18.0,0.125,57,132.7
118,C4,18.0,0.125,31,132.7
119,G3,18.0,0.125,31,132.7
120,E3,18.0,0.125,31,132.7
121,G5,18.5,0.125,46,132.7
122,C3,18.5,0.125,31,132.7
123,C6,19.0,0.125,55,132.7
124,E3,19.0,0.125,28,132.7
125,C4,19.0,0.125,28,132.7
126,G3,19.0,0.125,28,132.7
127,B-5,19.5,0.5,55,132.7
128,C#3,19.5,0.125,35,132.7
129,G#5,20.0,0.25,46,132.7
130,C#4,20.0,0.125,28,132.7
131,F3,20.0,0.125,28,132.7
132,G5,20.25,0.25,46,132.7
133,F5,20.5,0.5,51,132.7
134,C#3,20.5,0.125,31,132.7
135,G5,21.0,0.25,55,132.7
136,B-2,21.0,0.5,35,132.7
137,B-5,21.25,0.25,45,132.7
138,G5,21.5,0.25,55,132.7
139,G3,21.5,0.5,30,132.7
140,B-3,21.5,0.5,30,132.7
141,B-5,21.75,0.25,48,132.7
142,E5,22.0,0.25,55,132.7
143,B-3,22.0,0.5,30,132.7
144,C3,22.0,0.5,30,132.7
145,G3,22.0,0.5,30,132.7
146,G5,22.25,0.25,48,132.7
147,F5,22.5,0.5,55,132.7
148,G#3,22.5,0.5,37,132.7
149,F3,22.5,0.5,37,132.7
150,F4,23.0,0.25,68,132.7
151,G4,23.25,0.25,69,132.7
152,G#4,23.5,0.25,71,132.7
153,B-4,23.75,0.25,73,132.7
154,C5,24.0,0.125,74,132.7
155,C2,24.0,0.125,60,132.7
156,C4,24.5,0.125,68,132.7
157,C3,24.5,0.125,55,132.7
158,C5,25.0,0.125,75,132.7
159,C2,25.0,0.125,60,132.7
160,C4,25.5,0.125,60,132.7
161,C3,25.5,0.125,53,132.7
162,C5,26.0,0.125,74,132.7
163,C2,26.0,0.125,60,132.7
164,C4,26.5,0.125,60,132.7
165,C3,26.5,0.125,52,132.7
166,C2,27.0,0.125,49,132.7
167,B-4,27.0,0.125,59,132.7
168,G4,27.0,0.125,59,132.7
169,C3,27.5,0.125,43,132.7
170,F4,27.5,0.25,46,132.7
171,G#4,27.5,0.25,46,132.7
172,E4,27.75,0.25,46,132.7
173,G4,27.75,0.25,46,132.7
174,C2,28.0,0.125,43,132.7
175,G#4,28.0,0.25,46,132.7
176,F4,28.0,0.25,46,132.7
177,B-4,28.25,0.25,46,132.7
178,G4,28.25,0.25,46,132.7
179,C3,28.5,0.125,43,132.7
180,G4,28.5,1.5,52,132.7
181,E4,28.5,1.5,52,132.7
182,C2,29.0,0.125,41,132.7
183,C3,29.5,0.125,43,132.7
184,C5,30.0,0.125,74,132.7
185,C2,30.0,0.125,60,132.7
186,C4,30.5,0.125,68,132.7
187,C3,30.5,0.125,55,132.7
188,C5,31.0,0.5,75,132.7
189,C2,31.0,0.5,60,132.7
190,C#5,31.5,0.5,77,132.7
191,C#2,31.5,0.5,60,132.7
192,C#4,32.0,0.125,62,132.7
193,C#3,32.0,0.125,49,132.7
194,C#5,32.5,0.125,74,132.7
195,C#2,32.5,0.125,57,132.7
196,C2,33.0,0.125,49,132.7
197,G#4,33.0,0.25,52,132.7
198,C5,33.0,0.25,52,132.7
199,B-4,33.25,0.25,46,132.7
200,G4,33.25,0.25,46,132.7
201,C3,33.5,0.125,43,132.7
202,G#4,33.5,0.25,44,132.7
203,F4,33.5,0.25,44,132.7
204,G4,33.75,0.25,42,132.7
205,B-4,33.75,0.25,42,132.7
206,C2,34.0,0.125,43,132.7
207,G#4,34.0,0.25,40,132.7
208,F4,34.0,0.25,40,132.7
209,E4,34.25,0.25,38,132.7
210,G4,34.25,0.25,38,132.7
211,F4,34.5,0.5,49,132.7
212,F2,34.5,0.5,43,132.7
213,F5,35.0,0.25,74,132.7
214,G5,35.25,0.25,75,132.7
215,G#5,35.5,0.25,78,132.7
216,B-5,35.75,0.25,80,132.7
217,C6,36.0,0.125,81,132.7
218,C3,36.0,0.125,60,132.7
219,C5,36.5,0.125,74,132.7
220,C4,36.5,0.125,55,132.7
221,C6,37.0,0.125,82,132.7
222,C3,37.0,0.125,60,132.7
223,C5,37.5,0.125,66,132.7
224,C4,37.5,0.125,53,132.7
225,C6,38.0,0.125,81,132.7
226,C3,38.0,0.125,60,132.7
227,C5,38.5,0.125,66,132.7
228,C4,38.5,0.125,52,132.7
229,B2,39.0,0.125,49,132.7
230,B-5,39.0,0.125,64,132.7
231,G5,39.0,0.125,64,132.7
232,B3,39.5,0.125,43,132.7
233,G#5,39.5,0.25,50,132.7
234,F5,39.5,0.25,50,132.7
235,G5,39.75,0.25,50,132.7
236,E5,39.75,0.25,50,132.7
237,B2,40.0,0.125,43,132.7
238,G#5,40.0,0.25,50,132.7
239,F5,40.0,0.25,50,132.7
240,B-5,40.25,0.25,50,132.7
241,G5,40.25,0.25,50,132.7
242,C4,40.5,0.125,43,132.7
243,G5,40.5,1.5,57,132.7
244,E5,40.5,1.5,57,132.7
245,C3,41.0,0.125,41,132.7
246,C4,41.5,0.125,43,132.7
247,C6,42.0,0.125,81,132.7
248,C3,42.0,0.125,60,132.7
249,C5,42.5,0.125,74,132.7
250,C4,42.5,0.125,55,132.7
251,C6,43.0,0.5,82,132.7
252,C3,43.0,0.5,60,132.7
253,C#6,43.5,0.5,84,132.7
254,C#3,43.5,0.5,60,132.7
255,C#5,44.0,0.125,68,132.7
256,C#4,44.0,0.125,49,132.7
257,C#6,44.5,0.125,81,132.7
258,C#3,44.5,0.125,57,132.7
259,C#3,45.0,0.125,49,132.7
260,C#5,45.0,0.25,52,132.7
261,B-4,45.0,0.25,52,132.7
262,B4,45.25,0.25,46,132.7
263,G#4,45.25,0.25,46,132.7
264,C#4,45.5,0.125,43,132.7
265,B-4,45.5,0.25,44,132.7
266,F#4,45.5,0.25,44,132.7
267,G#4,45.75,0.25,42,132.7
268,B4,45.75,0.25,42,132.7
269,C#3,46.0,0.125,43,132.7
270,B-4,46.0,0.25,40,132.7
271,F#4,46.0,0.25,40,132.7
272,F4,46.25,0.25,38,132.7
273,G#4,46.25,0.25,38,132.7
274,C#4,46.5,0.25,43,132.7
275,F#4,46.5,0.25,46,132.7
276,B-4,46.5,0.25,46,132.7
277,C#3,47.0,0.25,43,132.7
278,B-4,47.0,0.25,38,132.7
279,F#4,47.0,0.25,38,132.7
280,C#4,47.5,0.25,43,132.7
281,B-4,47.5,0.25,38,132.7
282,F#4,47.5,0.25,38,132.7
283,C#3,48.0,0.25,43,132.7
284,B4,48.0,0.25,47,132.7
285,F4,48.0,0.25,47,132.7
286,G#4,48.0,0.25,47,132.7
287,C#4,48.5,0.25,43,132.7
288,G#4,48.5,0.25,48,132.7
289,F4,48.5,0.25,48,132.7
290,B4,48.5,0.25,48,132.7
291,C#3,49.0,0.25,44,132.7
292,G#4,49.0,0.25,53,132.7
293,B4,49.0,0.25,53,132.7
294,F4,49.0,0.25,53,132.7
295,C#4,49.5,0.25,45,132.7
296,G#5,49.5,0.25,56,132.7
297,B5,49.5,0.25,56,132.7
298,F5,49.5,0.25,56,132.7
299,C#3,50.0,0.25,50,132.7
300,F5,50.0,0.25,61,132.7
301,G#5,50.0,0.25,61,132.7
302,B5,50.0,0.25,61,132.7
303,C#4,50.5,0.25,51,132.7
304,B5,50.5,0.25,66,132.7
305,G#5,50.5,0.25,66,132.7
306,F5,50.5,0.25,66,132.7
307,C3,51.0,0.25,51,132.7
308,G#6,51.0,0.25,68,132.7
309,C7,51.0,0.25,68,132.7
310,B-6,51.25,0.25,61,132.7
311,G6,51.25,0.25,61,132.7
312,C4,51.5,0.25,53,132.7
313,G#6,51.5,0.25,67,132.7
314,F6,51.5,0.25,67,132.7
315,G6,51.75,0.25,60,132.7
316,B-6,51.75,0.25,60,132.7
317,C3,52.0,0.25,57,132.7
318,G#6,52.0,0.25,67,132.7
319,F6,52.0,0.25,67,132.7
320,G6,52.25,0.25,60,132.7
321,E6,52.25,0.25,60,132.7
322,F6,52.5,0.25,73,132.7
323,F3,52.5,0.25,60,132.7
324,F4,53.0,0.25,68,132.7
325,G4,53.25,0.25,69,132.7
326,G#4,53.5,0.25,71,132.7
327,B-4,53.75,0.25,73,132.7
328,C5,54.0,0.125,74,132.7
329,C2,54.0,0.125,60,132.7
330,C4,54.5,0.125,68,132.7
331,C3,54.5,0.125,55,132.7
332,C5,55.0,0.125,75,132.7
333,C2,55.0,0.125,60,132.7
334,C4,55.5,0.125,60,132.7
335,C3,55.5,0.125,53,132.7
336,C5,56.0,0.125,74,132.7
337,C2,56.0,0.125,60,132.7
338,C4,56.5,0.125,60,132.7
339,C3,56.5,0.125,52,132.7
340,C2,57.0,0.125,49,132.7
341,G4,57.0,0.125,59,132.7
342,B-4,57.0,0.125,59,132.7
343,C3,57.5,0.125,43,132.7
344,F4,57.5,0.25,46,132.7
345,G#4,57.5,0.25,46,132.7
346,G4,57.75,0.25,46,132.7
347,E4,57.75,0.25,46,132.7
348,C2,58.0,0.125,43,132.7
349,G#4,58.0,0.25,46,132.7
350,F4,58.0,0.25,46,132.7
351,G4,58.25,0.25,46,132.7
352,B-4,58.25,0.25,46,132.7
353,C3,58.5,0.125,43,132.7
354,E4,58.5,1.5,52,132.7
355,G4,58.5,1.5,52,132.7
356,C2,59.0,0.125,41,132.7
357,C3,59.5,0.125,43,132.7
358,C5,60.0,0.125,74,132.7
359,C2,60.0,0.125,60,132.7
360,C4,60.5,0.125,68,132.7
361,C3,60.5,0.125,55,132.7
362,C5,61.0,0.5,75,132.7
363,C2,61.0,0.5,60,132.7
364,C#5,61.5,0.5,77,132.7
365,C#2,61.5,0.5,60,132.7
366,C#4,62.0,0.125,62,132.7
367,C#3,62.0,0.125,49,132.7
368,C#5,62.5,0.125,74,132.7
369,C#2,62.5,0.125,57,132.7
370,C2,63.0,0.125,49,132.7
371,G#4,63.0,0.25,52,132.7
372,C5,63.0,0.25,52,132.7
373,B-4,63.25,0.25,46,132.7
374,G4,63.25,0.25,46,132.7
375,C3,63.5,0.125,43,132.7
376,G#4,63.5,0.25,44,132.7
377,F4,63.5,0.25,44,132.7
378,G4,63.75,0.25,42,132.7
379,B-4,63.75,0.25,42,132.7
380,C2,64.0,0.125,43,132.7
381,F4,64.0,0.25,40,132.7
382,G#4,64.0,0.25,40,132.7
383,G4,64.25,0.25,38,132.7
384,E4,64.25,0.25,38,132.7
385,F4,64.5,0.5,49,132.7
386,F2,64.5,0.5,43,132.7
387,F5,65.0,0.25,74,132.7
388,G5,65.25,0.25,75,132.7
389,G#5,65.5,0.25,78,132.7
390,B-5,65.75,0.25,80,132.7
391,C6,66.0,0.125,81,132.7
392,C3,66.0,0.125,60,132.7
393,C5,66.5,0.125,74,132.7
394,C4,66.5,0.125,55,132.7
395,C6,67.0,0.125,82,132.7
396,C3,67.0,0.125,60,132.7
397,C5,67.5,0.125,66,132.7
398,C4,67.5,0.125,53,132.7
399,C6,68.0,0.125,81,132.7
400,C3,68.0,0.125,60,132.7
401,C5,68.5,0.125,66,132.7
402,C4,68.5,0.125,52,132.7
403,B2,69.0,0.125,49,132.7
404,B-5,69.0,0.125,64,132.7
405,G5,69.0,0.125,64,132.7
406,B3,69.5,0.125,43,132.7
407,F5,69.5,0.25,50,132.7
408,G#5,69.5,0.25,50,132.7
409,G5,69.75,0.25,50,132.7
410,E5,69.75,0.25,50,132.7
411,B2,70.0,0.125,43,132.7
412,F5,70.0,0.25,50,132.7
413,G#5,70.0,0.25,50,132.7
414,G5,70.25,0.25,50,132.7
415,B-5,70.25,0.25,50,132.7
416,C4,70.5,0.125,43,132.7
417,G5,70.5,1.5,57,132.7
418,E5,70.5,1.5,57,132.7
419,C3,71.0,0.125,41,132.7
420,C4,71.5,0.125,43,132.7
421,C6,72.0,0.125,81,132.7
422,C3,72.0,0.125,60,132.7
423,C5,72.5,0.125,74,132.7
424,C4,72.5,0.125,55,132.7
425,C6,73.0,0.5,82,132.7
426,C3,73.0,0.5,60,132.7
427,C#6,73.5,0.5,84,132.7
428,C#3,73.5,0.5,60,132.7
429,C#5,74.0,0.125,68,132.7
430,C#4,74.0,0.125,49,132.7
431,C#6,74.5,0.125,81,132.7
432,C#3,74.5,0.125,57,132.7
433,C#3,75.0,0.125,49,132.7
434,C#5,75.0,0.25,52,132.7
435,B-4,75.0,0.25,52,132.7
436,G#4,75.25,0.25,46,132.7
437,B4,75.25,0.25,46,132.7
438,C#4,75.5,0.125,43,132.7
439,F#4,75.5,0.25,44,132.7
440,B-4,75.5,0.25,44,132.7
441,G#4,75.75,0.25,42,132.7
442,B4,75.75,0.25,42,132.7
443,C#3,76.0,0.125,43,132.7
444,F#4,76.0,0.25,40,132.7
445,B-4,76.0,0.25,40,132.7
446,G#4,76.25,0.25,38,132.7
447,F4,76.25,0.25,38,132.7
448,C#4,76.5,0.25,43,132.7
449,F#4,76.5,0.25,46,132.7
450,B-4,76.5,0.25,46,132.7
451,C#3,77.0,0.25,43,132.7
452,F#4,77.0,0.25,38,132.7
453,B-4,77.0,0.25,38,132.7
454,C#4,77.5,0.25,43,132.7
455,B-4,77.5,0.25,38,132.7
456,F#4,77.5,0.25,38,132.7
457,C#3,78.0,0.25,43,132.7
458,B4,78.0,0.25,47,132.7
459,G#4,78.0,0.25,47,132.7
460,F4,78.0,0.25,47,132.7
461,C#4,78.5,0.25,43,132.7
462,G#4,78.5,0.25,48,132.7
463,B4,78.5,0.25,48,132.7
464,F4,78.5,0.25,48,132.7
465,C#3,79.0,0.25,44,132.7
466,G#4,79.0,0.25,53,132.7
467,B4,79.0,0.25,53,132.7
468,F4,79.0,0.25,53,132.7
469,C#4,79.5,0.25,45,132.7
470,B5,79.5,0.25,56,132.7
471,G#5,79.5,0.25,56,132.7
472,F5,79.5,0.25,56,132.7
473,C#3,80.0,0.25,50,132.7
474,B5,80.0,0.25,61,132.7
475,G#5,80.0,0.25,61,132.7
476,F5,80.0,0.25,61,132.7
477,C#4,80.5,0.25,51,132.7
478,F5,80.5,0.25,66,132.7
479,G#5,80.5,0.25,66,132.7
480,B5,80.5,0.25,66,132.7
481,C3,81.0,0.25,51,132.7
482,C7,81.0,0.25,68,132.7
483,G#6,81.0,0.25,68,132.7
484,B-6,81.25,0.25,61,132.7
485,G6,81.25,0.25,61,132.7
486,C4,81.5,0.25,53,132.7
487,G#6,81.5,0.25,67,132.7
488,F6,81.5,0.25,67,132.7
489,G6,81.75,0.25,60,132.7
490,B-6,81.75,0.25,60,132.7
491,C3,82.0,0.25,57,132.7
492,F6,82.0,0.25,67,132.7
493,G#6,82.0,0.25,67,132.7
494,G6,82.25,0.25,60,132.7
495,E6,82.25,0.25,60,132.7
496,F6,82.5,0.25,73,132.7
497,F3,82.5,0.25,60,132.7
498,G6,83.0,0.125,73,132.7
499,C#4,83.0,1.0,54,132.7
500,F3,83.0,1.0,54,132.7
501,B-3,83.0,1.0,54,132.7
502,E4,83.0,1.0,54,132.7
503,G#6,83.125,0.125,67,132.7
504,G6,83.25,0.125,58,132.7
505,G#6,83.375,0.125,54,132.7
506,G6,83.5,0.125,58,132.7
507,G#6,83.625,0.125,52,132.7
508,G6,83.75,0.125,58,132.7
509,G#6,83.875,0.125,52,132.7
510,G6,84.0,0.125,58,132.7
511,C#4,84.0,1.5,54,132.7
512,F3,84.0,1.5,54,132.7
513,B-3,84.0,1.5,54,132.7
514,E4,84.0,1.5,54,132.7
515,G#6,84.125,0.125,52,132.7
516,G6,84.25,167/1000,58,132.7
517,G#6,84.417,167/1000,54,132.7
518,G6,84.583,167/1000,58,132.7
519,F#6,84.75,0.125,54,132.7
520,G6,84.875,0.125,56,132.7
521,G#6,85.0,0.25,69,132.7
522,G6,85.25,0.25,61,132.7
523,F6,85.5,0.25,81,132.7
524,C4,85.5,0.25,54,132.7
525,F3,85.5,0.25,54,132.7
526,F4,85.5,0.25,54,132.7
527,G#3,85.5,0.25,54,132.7
528,G5,86.0,0.125,73,132.7
529,F3,86.0,1.0,54,132.7
530,E4,86.0,1.0,54,132.7
531,C#4,86.0,1.0,54,132.7
532,B-3,86.0,1.0,54,132.7
533,G#5,86.125,0.125,67,132.7
534,G5,86.25,0.125,58,132.7
535,G#5,86.375,0.125,54,132.7
536,G5,86.5,0.125,58,132.7
537,G#5,86.625,0.125,52,132.7
538,G5,86.75,0.125,58,132.7
539,G#5,86.875,0.125,52,132.7
540,G5,87.0,0.125,58,132.7
541,F3,87.0,1.5,54,132.7
542,E4,87.0,1.5,54,132.7
543,C#4,87.0,1.5,54,132.7
544,B-3,87.0,1.5,54,132.7
545,G#5,87.125,0.125,52,132.7
546,G5,87.25,167/1000,58,132.7
547,G#5,87.417,167/1000,54,132.7
548,G5,87.583,167/1000,58,132.7
549,F#5,87.75,0.125,54,132.7
550,G5,87.875,0.125,56,132.7
551,G#5,88.0,0.25,69,132.7
552,G5,88.25,0.25,63,132.7
553,F5,88.5,0.25,81,132.7
554,F3,88.5,0.25,54,132.7
555,C4,88.5,0.25,54,132.7
556,F4,88.5,0.25,54,132.7
557,G#3,88.5,0.25,54,132.7
558,G6,89.0,0.125,73,132.7
559,C#4,89.0,1.0,54,132.7
560,B-3,89.0,1.0,54,132.7
561,E4,89.0,1.0,54,132.7
562,F3,89.0,1.0,54,132.7
563,G#6,89.125,0.125,67,132.7
564,G6,89.25,0.125,58,132.7
565,G#6,89.375,0.125,54,132.7
566,G6,89.5,0.125,58,132.7
567,G#6,89.625,0.125,52,132.7
568,G6,89.75,0.125,58,132.7
569,G#6,89.875,0.125,52,132.7
570,F#6,90.0,0.125,58,132.7
571,C#4,90.0,1.5,54,132.7
572,B-3,90.0,1.5,54,132.7
573,E4,90.0,1.5,54,132.7
574,F3,90.0,1.5,54,132.7
575,G6,90.125,0.125,53,132.7
576,G#6,90.25,0.125,54,132.7
577,B-6,90.375,0.125,56,132.7
578,C7,90.5,0.125,57,132.7
579,C#7,90.625,0.125,58,132.7
580,E7,90.75,0.125,60,132.7
581,F7,90.875,0.125,62,132.7
582,E7,91.0,83/1000,63,132.7
583,C#7,91.083,83/1000,62,132.7
584,C7,91.169,83/1000,61,132.7
585,B-6,91.252,83/1000,61,132.7
586,G#6,91.333,83/1000,60,132.7
587,G6,91.417,83/1000,59,132.7
588,F6,91.5,0.25,81,132.7
589,G#3,91.5,0.25,54,132.7
590,F3,91.5,0.25,54,132.7
591,C4,91.5,0.25,54,132.7
592,F4,91.5,0.25,54,132.7
593,G5,92.0,0.125,73,132.7
594,F3,92.0,1.0,54,132.7
595,B-3,92.0,1.0,54,132.7
596,C#4,92.0,1.0,54,132.7
597,E4,92.0,1.0,54,132.7
598,G#5,92.125,0.125,53,132.7
599,G5,92.25,0.125,58,132.7
600,G#5,92.375,0.125,54,132.7
601,G5,92.5,0.125,58,132.7
602,G#5,92.625,0.125,52,132.7
603,G5,92.75,0.125,58,132.7
604,G#5,92.875,0.125,52,132.7
605,F#5,93.0,1/10,58,132.7
606,F3,93.0,1.5,54,132.7
607,B-3,93.0,1.5,54,132.7
608,C#4,93.0,1.5,54,132.7
609,E4,93.0,1.5,54,132.7
610,G5,93.1,1/10,53,132.7
611,G#5,93.2,1/10,54,132.7
612,B-5,93.3,1/10,56,132.7
613,C6,93.4,1/10,57,132.7
614,C#6,93.5,1/10,58,132.7
615,E6,93.6,1/10,60,132.7
616,F6,93.7,1/10,62,132.7
617,G6,93.8,1/10,62,132.7
618,F6,93.9,1/10,62,132.7
619,E6,94.0,69/1000,63,132.7
620,C#6,94.069,69/1000,63,132.7
621,C6,94.138,69/1000,62,132.7
622,B-5,94.206,69/1000,61,132.7
623,G#5,94.275,69/1000,61,132.7
624,G5,94.344,69/1000,60,132.7
625,F5,94.412,11/125,59,132.7
626,E5,94.5,0.125,58,132.7
627,C#5,94.625,0.125,55,132.7
628,C5,94.75,0.125,53,132.7
629,B-4,94.875,0.125,51,132.7
630,G#4,95.0,0.125,49,132.7
631,G4,95.125,0.125,47,132.7
632,F#4,95.25,0.125,45,132.7
633,G4,95.375,0.125,42,132.7
634,G#4,95.5,83/1000,40,132.7
635,A4,95.583,83/1000,40,132.7
636,B-4,95.667,83/1000,39,132.7
637,B4,95.75,83/1000,39,132.7
638,C5,95.833,83/1000,37,132.7
639,C#5,95.917,83/1000,37,132.7
640,C5,96.0,0.125,56,132.7
641,F3,96.0,1.5,54,132.7
642,B-3,96.0,1.5,54,132.7
643,C#4,96.0,1.5,54,132.7
644,E4,96.0,1.5,54,132.7
645,C5,96.5,0.25,45,132.7
646,C#5,96.75,0.25,39,132.7
647,C5,97.0,0.125,46,132.7
648,C#5,97.5,0.125,40,132.7
649,F3,97.5,0.125,35,132.7
650,C5,97.625,0.125,49,132.7
651,C5,98.0,0.25,44,132.7
652,G#3,98.0,0.125,27,132.7
653,F4,98.0,0.125,27,132.7
654,C4,98.0,0.125,27,132.7
655,C#5,98.25,0.25,36,132.7
656,C5,98.5,0.125,42,132.7
657,F3,98.5,0.125,30,132.7
658,C5,99.0,0.25,40,132.7
659,G#3,99.0,0.125,31,132.7
660,C4,99.0,0.125,31,132.7
661,F4,99.0,0.125,31,132.7
662,B4,99.25,0.125,52,132.7
663,B4,99.5,0.25,47,132.7
664,F3,99.5,0.125,31,132.7
665,D5,99.75,0.25,40,132.7
666,C5,100.0,0.25,45,132.7
667,G#3,100.0,0.125,28,132.7
668,F4,100.0,0.125,28,132.7
669,C4,100.0,0.125,28,132.7
670,B4,100.25,0.25,36,132.7
671,C5,100.5,0.125,46,132.7
672,F3,100.5,0.125,35,132.7
673,G4,101.0,1.0,39,132.7
674,D4,101.0,0.125,28,132.7
675,G#3,101.0,0.125,28,132.7
676,B3,101.0,0.125,28,132.7
677,F3,101.5,0.125,31,132.7
678,C5,102.0,0.125,46,132.7
679,C3,102.0,0.125,35,132.7
680,G4,102.5,0.125,39,132.7
681,E3,102.5,0.125,29,132.7
682,C4,102.5,0.125,29,132.7
683,G3,102.5,0.125,29,132.7
684,C5,103.0,0.125,46,132.7
685,C3,103.0,0.125,32,132.7
686,B-4,103.5,0.5,46,132.7
687,E3,103.5,0.125,31,132.7
688,C4,103.5,0.125,31,132.7
689,G3,103.5,0.125,31,132.7
690,G#4,104.0,0.25,39,132.7
691,C3,104.0,0.125,31,132.7
692,G4,104.25,0.25,39,132.7
693,F4,104.5,0.5,43,132.7
694,E3,104.5,0.125,28,132.7
695,G3,104.5,0.125,28,132.7
696,C4,104.5,0.125,28,132.7
697,G4,105.0,0.25,46,132.7
698,C#3,105.0,0.125,35,132.7
699,B-4,105.25,0.25,38,132.7
700,G4,105.5,0.25,46,132.7
701,F3,105.5,0.125,28,132.7
702,C#4,105.5,0.125,28,132.7
703,B-4,105.75,0.25,40,132.7
704,E4,106.0,0.25,46,132.7
705,C#3,106.0,0.125,31,132.7
706,G4,106.25,0.25,40,132.7
707,F4,106.5,0.25,46,132.7
708,B-2,106.5,0.5,35,132.7
709,G#4,106.75,0.25,37,132.7
710,C5,107.0,0.25,42,132.7
711,B-3,107.0,0.5,30,132.7
712,G3,107.0,0.5,30,132.7
713,F5,107.25,0.25,47,132.7
714,G#5,107.5,0.25,52,132.7
715,C3,107.5,0.25,30,132.7
716,G3,107.5,0.25,30,132.7
717,B-3,107.5,0.25,30,132.7
718,B-5,107.75,0.25,57,132.7
719,C6,108.0,0.125,65,132.7
720,F3,108.0,1.0,37,132.7
721,G#3,108.0,1.0,37,132.7
722,C6,108.5,0.25,54,132.7
723,C#6,108.75,0.25,46,132.7
724,C6,109.0,0.125,55,132.7
725,C#6,109.5,0.125,48,132.7
726,F3,109.5,0.125,35,132.7
727,C6,109.625,0.125,64,132.7
728,C6,110.0,0.25,52,132.7
729,C4,110.0,0.125,27,132.7
730,F4,110.0,0.125,27,132.7
731,G#3,110.0,0.125,27,132.7
732,C#6,110.25,0.25,43,132.7
733,C6,110.5,0.125,50,132.7
734,F3,110.5,0.125,30,132.7
735,C6,111.0,0.25,61,132.7
736,C4,111.0,0.125,31,132.7
737,F4,111.0,0.125,31,132.7
738,G#3,111.0,0.125,31,132.7
739,B5,111.25,0.25,48,132.7
740,F6,111.5,0.25,56,132.7
741,F3,111.5,0.125,31,132.7
742,B5,111.75,0.25,48,132.7
743,F6,112.0,0.25,54,132.7
744,C4,112.0,0.125,28,132.7
745,F4,112.0,0.125,28,132.7
746,G#3,112.0,0.125,28,132.7
747,B5,112.25,0.25,43,132.7
748,C6,112.5,0.125,55,132.7
749,F3,112.5,0.125,35,132.7
750,G5,113.0,1.0,46,132.7
751,G#3,113.0,0.125,28,132.7
752,B3,113.0,0.125,28,132.7
753,D4,113.0,0.125,28,132.7
754,F3,113.5,0.125,31,132.7
755,C6,114.0,0.125,57,132.7
756,C3,114.0,0.125,35,132.7
757,G5,114.5,0.125,46,132.7
758,C4,114.5,0.125,29,132.7
759,E3,114.5,0.125,29,132.7
760,G3,114.5,0.125,29,132.7
761,C6,115.0,0.125,55,132.7
762,C3,115.0,0.125,32,132.7
763,B-5,115.5,0.5,62,132.7
764,G3,115.5,0.125,31,132.7
765,C4,115.5,0.125,31,132.7
766,E3,115.5,0.125,31,132.7
767,G#5,116.0,0.25,49,132.7
768,C3,116.0,0.125,31,132.7
769,G5,116.25,0.25,49,132.7
770,F5,116.5,0.5,57,132.7
771,C4,116.5,0.125,28,132.7
772,E3,116.5,0.125,28,132.7
773,G3,116.5,0.125,28,132.7
774,B-5,117.0,0.125,61,132.7
775,C#3,117.0,0.125,35,132.7
776,F5,117.5,0.125,48,132.7
777,C#4,117.5,0.125,28,132.7
778,F3,117.5,0.125,28,132.7
779,B-5,118.0,0.125,57,132.7
780,C#3,118.0,0.125,31,132.7
781,G#5,118.5,0.5,63,132.7
782,D3,118.5,0.125,35,132.7
783,G5,119.0,0.25,50,132.7
784,D4,119.0,0.125,31,132.7
785,B-3,119.0,0.125,31,132.7
786,F5,119.25,0.25,50,132.7
787,E-5,119.5,0.5,55,132.7
788,D3,119.5,0.125,31,132.7
789,G#5,120.0,0.125,64,132.7
790,E-3,120.0,0.125,39,132.7
791,E-5,120.5,0.125,49,132.7
792,E-4,120.5,0.125,33,132.7
793,B-3,120.5,0.125,33,132.7
794,G#5,121.0,0.125,58,132.7
795,E-3,121.0,0.125,33,132.7
796,A5,121.5,0.125,63,132.7
797,C3,121.5,0.125,41,132.7
798,E-5,122.0,0.125,53,132.7
799,C4,122.0,0.125,32,132.7
800,A5,122.5,0.125,61,132.7
801,C3,122.5,0.125,31,132.7
802,B-5,123.0,0.125,75,132.7
803,B2,123.0,0.125,40,132.7
804,B3,123.5,0.125,36,132.7
805,D5,123.5,0.125,69,132.7
806,F5,123.5,0.125,69,132.7
807,D6,124.0,0.125,80,132.7
808,B2,124.0,0.125,36,132.7
809,B-2,124.5,0.125,51,132.7
810,B-5,124.5,0.125,71,132.7
811,F5,124.5,0.125,71,132.7
812,F6,125.0,0.125,83,132.7
813,B-3,125.0,0.125,38,132.7
814,F3,125.0,0.125,38,132.7
815,D4,125.0,0.125,38,132.7
816,B-2,125.5,0.125,57,132.7
817,B-5,125.5,0.125,73,132.7
818,D6,125.5,0.125,73,132.7
819,G#6,126.0,0.25,78,132.7
820,B-3,126.0,0.125,41,132.7
821,F3,126.0,0.125,41,132.7
822,D4,126.0,0.125,41,132.7
823,F#6,126.25,0.25,66,132.7
824,F6,126.5,0.25,77,132.7
825,B-2,126.5,0.125,55,132.7
826,F#6,126.75,0.25,62,132.7
827,E-6,127.0,0.25,71,132.7
828,F3,127.0,0.125,43,132.7
829,D4,127.0,0.125,43,132.7
830,B-3,127.0,0.125,43,132.7
831,C6,127.5,0.25,66,132.7
832,B-2,127.5,0.125,61,132.7
833,A5,128.0,0.25,61,132.7
834,A3,128.0,0.125,42,132.7
835,E-4,128.0,0.125,42,132.7
836,F#3,128.0,0.125,42,132.7
837,F#5,128.5,0.25,52,132.7
838,B-2,128.5,0.125,60,132.7
839,B-5,129.0,0.125,75,132.7
840,E-4,129.0,0.125,51,132.7
841,F#3,129.0,0.125,51,132.7
842,A3,129.0,0.125,51,132.7
843,B-2,129.5,0.125,46,132.7
844,F5,129.5,0.125,69,132.7
845,D5,129.5,0.125,69,132.7
846,D6,130.0,0.125,80,132.7
847,A3,130.0,0.125,40,132.7
848,E-4,130.0,0.125,40,132.7
849,F#3,130.0,0.125,40,132.7
850,B-2,130.5,0.125,51,132.7
851,F5,130.5,0.125,71,132.7
852,B-5,130.5,0.125,71,132.7
853,F6,131.0,0.125,83,132.7
854,B-3,131.0,0.125,38,132.7
855,D4,131.0,0.125,38,132.7
856,F3,131.0,0.125,38,132.7
857,B-2,131.5,0.125,57,132.7
858,D6,131.5,0.125,73,132.7
859,B-5,131.5,0.125,73,132.7
860,G#6,132.0,0.25,78,132.7
861,F3,132.0,0.125,41,132.7
862,D4,132.0,0.125,41,132.7
863,B-3,132.0,0.125,41,132.7
864,F#6,132.25,0.25,66,132.7
865,F6,132.5,0.25,77,132.7
866,B-2,132.5,0.125,55,132.7
867,F#6,132.75,0.25,62,132.7
868,E-6,133.0,0.25,69,132.7
869,D4,133.0,0.125,43,132.7
870,F3,133.0,0.125,43,132.7
871,B-3,133.0,0.125,43,132.7
872,C6,133.5,0.25,66,132.7
873,B-2,133.5,0.125,61,132.7
874,A5,134.0,0.25,61,132.7
875,E-4,134.0,0.125,42,132.7
876,F#3,134.0,0.125,42,132.7
877,A3,134.0,0.125,42,132.7
878,F#5,134.5,0.25,52,132.7
879,B-2,134.5,0.125,60,132.7
880,B-5,135.0,0.125,75,132.7
881,A3,135.0,0.125,51,132.7
882,F#3,135.0,0.125,51,132.7
883,E-4,135.0,0.125,51,132.7
884,B-2,135.5,0.125,46,132.7
885,F5,135.5,0.125,69,132.7
886,D5,135.5,0.125,69,132.7
887,B5,136.0,0.125,77,132.7
888,F#3,136.0,0.125,40,132.7
889,E-4,136.0,0.125,40,132.7
890,A3,136.0,0.125,40,132.7
891,B-2,136.5,0.125,51,132.7
892,D5,136.5,0.125,71,132.7
893,F5,136.5,0.125,71,132.7
894,D6,137.0,0.125,83,132.7
895,B-3,137.0,0.125,38,132.7
896,D4,137.0,0.125,38,132.7
897,F3,137.0,0.125,38,132.7
898,G#2,137.5,0.125,57,132.7
899,B5,137.5,0.125,73,132.7
900,F5,137.5,0.125,73,132.7
901,C6,138.0,0.125,75,132.7
902,G#3,138.0,0.125,46,132.7
903,G2,138.5,0.125,55,132.7
904,E5,138.5,0.125,69,132.7
905,G5,138.5,0.125,69,132.7
906,E6,139.0,0.125,77,132.7
907,G3,139.0,0.125,48,132.7
908,C3,139.5,0.125,51,132.7
909,G5,139.5,0.125,71,132.7
910,C#6,139.5,0.125,71,132.7
911,G6,140.0,0.125,83,132.7
912,C4,140.0,0.125,43,132.7
913,B-2,140.5,0.125,57,132.7
914,C#6,140.5,0.125,73,132.7
915,B-5,140.5,0.125,73,132.7
916,E6,140.5,0.125,73,132.7
917,F6,141.0,0.125,75,132.7
918,B-3,141.0,0.125,46,132.7
919,G2,141.5,0.125,55,132.7
920,F5,141.5,0.125,69,132.7
921,C6,141.5,0.125,69,132.7
922,B-6,142.0,0.125,77,132.7
923,G3,142.0,0.125,48,132.7
924,B-5,142.5,0.125,71,132.7
925,G#2,142.5,0.125,57,132.7
926,C7,143.0,0.125,83,132.7
927,G#3,143.0,0.125,49,132.7
928,C6,143.5,0.125,73,132.7
929,B-1,143.5,0.125,57,132.7
930,B-2,144.0,0.125,46,132.7
931,F7,144.0,0.25,80,132.7
932,F6,144.0,0.25,80,132.7
933,G6,144.5,0.125,73,132.7
934,C2,144.5,0.125,64,132.7
935,G#6,144.625,0.125,67,132.7
936,G6,144.75,0.125,58,132.7
937,G#6,144.875,0.125,54,132.7
938,G6,145.0,0.125,58,132.7
939,C3,145.0,0.125,58,132.7
940,G#6,145.125,0.125,52,132.7
941,G6,145.25,0.125,58,132.7
942,G#6,145.375,0.125,52,132.7
943,G6,145.5,0.125,58,132.7
944,F1,145.5,0.25,62,132.7
945,F2,145.5,0.25,62,132.7
946,G#6,145.625,0.125,52,132.7
947,G6,145.75,167/1000,58,132.7
948,G#6,145.917,167/1000,54,132.7
949,C#4,146.0,1.0,54,132.7
950,B-3,146.0,1.0,54,132.7
951,F3,146.0,1.0,54,132.7
952,E4,146.0,1.0,54,132.7
953,G6,146.083,167/1000,58,132.7
954,F#6,146.25,0.125,54,132.7
955,G6,146.375,0.125,56,132.7
956,G#6,146.5,0.25,64,132.7
957,G6,146.75,0.25,58,132.7
958,F6,147.0,0.25,81,132.7
959,C#4,147.0,1.5,54,132.7
960,B-3,147.0,1.5,54,132.7
961,F3,147.0,1.5,54,132.7
962,E4,147.0,1.5,54,132.7
963,G5,147.5,0.125,73,132.7
964,G#5,147.625,0.125,67,132.7
965,G5,147.75,0.125,58,132.7
966,G#5,147.875,0.125,54,132.7
967,G5,148.0,0.125,58,132.7
968,G#5,148.125,0.125,52,132.7
969,G5,148.25,0.125,58,132.7
970,G#5,148.375,0.125,52,132.7
971,G5,148.5,0.125,58,132.7
972,F3,148.5,0.25,54,132.7
973,C4,148.5,0.25,54,132.7
974,F4,148.5,0.25,54,132.7
975,G#3,148.5,0.25,54,132.7
976,G#5,148.625,0.125,52,132.7
977,G5,148.75,167/1000,58,132.7
978,G#5,148.917,167/1000,54,132.7
979,C#4,149.0,1.0,54,132.7
980,E4,149.0,1.0,54,132.7
981,B-3,149.0,1.0,54,132.7
982,F3,149.0,1.0,54,132.7
983,G5,149.083,167/1000,58,132.7
984,F#5,149.25,0.125,54,132.7
985,G5,149.375,0.125,56,132.7
986,G#5,149.5,0.25,64,132.7
987,G5,149.75,0.25,58,132.7
988,F5,150.0,0.25,81,132.7
989,C#4,150.0,1.5,54,132.7
990,E4,150.0,1.5,54,132.7
991,B-3,150.0,1.5,54,132.7
992,F3,150.0,1.5,54,132.7
993,G6,150.5,0.125,73,132.7
994,G#6,150.625,0.125,67,132.7
995,G6,150.75,0.125,58,132.7
996,G#6,150.875,0.125,54,132.7
997,G6,151.0,0.125,58,132.7
998,G#6,151.125,0.125,52,132.7
999,G6,151.25,0.125,58,132.7
1000,G#6,151.375,0.125,52,132.7
1001,F#6,151.5,0.125,58,132.7
1002,G#3,151.5,0.25,54,132.7
1003,C4,151.5,0.25,54,132.7
1004,F3,151.5,0.25,54,132.7
1005,F4,151.5,0.25,54,132.7
1006,G6,151.625,0.125,53,132.7
1007,G#6,151.75,0.125,54,132.7
1008,B-6,151.875,0.125,56,132.7
1009,C7,152.0,0.125,57,132.7
1010,B-3,152.0,1.0,54,132.7
1011,C#4,152.0,1.0,54,132.7
1012,E4,152.0,1.0,54,132.7
1013,F3,152.0,1.0,54,132.7
1014,C#7,152.125,0.125,58,132.7
1015,E7,152.25,0.125,60,132.7
1016,F7,152.375,0.125,62,132.7
1017,E7,152.5,83/1000,63,132.7
1018,C#7,152.583,83/1000,62,132.7
1019,C7,152.669,83/1000,61,132.7
1020,B-6,152.752,83/1000,61,132.7
1021,G#6,152.833,83/1000,60,132.7
1022,G6,152.917,83/1000,59,132.7
1023,F6,153.0,0.25,81,132.7
1024,B-3,153.0,1.5,54,132.7
1025,C#4,153.0,1.5,54,132.7
1026,E4,153.0,1.5,54,132.7
1027,F3,153.0,1.5,54,132.7
1028,G5,153.5,0.125,73,132.7
1029,G#5,153.625,0.125,67,132.7
1030,G5,153.75,0.125,58,132.7
1031,G#5,153.875,0.125,54,132.7
1032,G5,154.0,0.125,58,132.7
1033,G#5,154.125,0.125,52,132.7
1034,G5,154.25,0.125,58,132.7
1035,G#5,154.375,0.125,52,132.7
1036,F#5,154.5,1/10,58,132.7
1037,G#3,154.5,0.25,54,132.7
1038,C4,154.5,0.25,54,132.7
1039,F4,154.5,0.25,54,132.7
1040,F3,154.5,0.25,54,132.7
1041,G5,154.6,1/10,53,132.7
1042,G#5,154.7,1/10,54,132.7
1043,B-5,154.8,1/10,56,132.7
1044,C6,154.9,1/10,57,132.7
1045,D6,155.0,1/10,58,132.7
1046,E4,155.0,1.0,54,132.7
1047,F3,155.0,1.0,54,132.7
1048,C#4,155.0,1.0,54,132.7
1049,B-3,155.0,1.0,54,132.7
1050,E6,155.1,1/10,60,132.7
1051,F6,155.2,1/10,62,132.7
1052,G6,155.3,1/10,62,132.7
1053,F6,155.4,1/10,62,132.7
1054,E6,155.5,7/200,60,132.7
1055,D6,155.5,7/200,60,132.7
1056,C6,155.571,7/200,56,132.7
1057,B-5,155.571,7/200,56,132.7
1058,G#5,155.64,7/200,54,132.7
1059,G5,155.64,7/200,54,132.7
1060,F5,155.71,7/200,50,132.7
1061,E5,155.71,7/200,50,132.7
1062,C#5,155.781,23/500,48,132.7
1063,C5,155.781,23/500,48,132.7
1064,B-4,155.86,23/500,45,132.7
1065,G#4,155.86,23/500,45,132.7
1066,G4,155.952,6/125,42,132.7
1067,F4,156.0,0.5,70,132.7
1068,E4,156.0,1.5,54,132.7
1069,F3,156.0,1.5,54,132.7
1070,C#4,156.0,1.5,54,132.7
1071,B-3,156.0,1.5,54,132.7
1072,C#5,157.5,0.5,69,132.7
1073,B-4,157.5,0.5,69,132.7
1074,E-5,157.5,0.5,69,132.7
1075,G4,157.5,0.5,69,132.7
1076,G5,157.5,0.5,69,132.7
1077,F3,157.5,0.5,71,132.7
1078,G#3,157.5,0.5,71,132.7
1079,C4,157.5,0.5,71,132.7
1080,G#5,159.0,0.25,40,132.7
1081,E-3,159.0,0.5,70,132.7
1082,E-4,159.0,0.5,70,132.7
1083,B-3,159.0,0.5,70,132.7
1084,C#4,159.0,0.5,70,132.7
1085,B-5,159.25,0.25,39,132.7
1086,C6,159.5,0.25,41,132.7
1087,C#6,159.75,0.25,43,132.7
1088,E-6,160.0,0.25,46,132.7
1089,C#6,160.25,0.25,46,132.7
1090,C6,160.5,0.25,46,132.7
1091,C4,160.5,9/20,30,132.7
1092,G#3,160.5,9/20,30,132.7
1093,E-4,160.5,9/20,30,132.7
1094,B-5,160.75,0.25,45,132.7
1095,G#5,161.0,0.25,44,132.7
1096,E-4,161.0,9/20,27,132.7
1097,G#3,161.0,9/20,27,132.7
1098,C4,161.0,9/20,27,132.7
1099,G5,161.25,0.25,43,132.7
1100,F5,161.5,0.25,42,132.7
1101,G#3,161.5,0.5,24,132.7
1102,E-4,161.5,0.5,29,132.7
1103,C4,161.5,0.5,29,132.7
1104,E-5,161.75,0.25,41,132.7
1105,C#5,162.0,0.25,41,132.7
1106,G#3,162.0,1.5,24,132.7
1107,E-4,162.0,1.5,29,132.7
1108,C4,162.0,1.5,29,132.7
1109,C5,162.25,0.25,39,132.7
1110,B-4,162.5,0.25,38,132.7
1111,G#4,162.75,0.25,38,132.7
1112,G4,163.0,0.25,36,132.7
1113,G#4,163.25,0.25,35,132.7
1114,B-4,163.5,0.25,33,132.7
1115,G#3,163.5,1.5,24,132.7
1116,F4,163.5,1.5,28,132.7
1117,C#4,163.5,1.5,28,132.7
1118,C5,163.75,0.25,33,132.7
1119,C#5,164.0,0.25,34,132.7
1120,E-5,164.25,0.25,36,132.7
1121,F5,164.5,0.25,37,132.7
1122,G5,164.75,0.25,39,132.7
1123,G#5,165.0,0.25,40,132.7
1124,G#3,165.0,1.5,24,132.7
1125,F4,165.0,1.5,28,132.7
1126,C#4,165.0,1.5,28,132.7
1127,B-5,165.25,0.25,39,132.7
1128,C6,165.5,0.25,41,132.7
1129,C#6,165.75,0.25,43,132.7
1130,F6,165.985,0.25,46,132.7
1131,E-6,166.25,0.25,46,132.7
1132,C#6,166.5,0.25,46,132.7
1133,G#3,166.5,9/20,29,132.7
1134,E-4,166.5,9/20,29,132.7
1135,C4,166.5,9/20,29,132.7
1136,C6,166.75,0.25,45,132.7
1137,B-5,167.0,0.25,44,132.7
1138,C4,167.0,9/20,26,132.7
1139,G#3,167.0,9/20,26,132.7
1140,E-4,167.0,9/20,26,132.7
1141,G#5,167.25,0.25,43,132.7
1142,G5,167.5,0.25,42,132.7
1143,C4,167.5,0.5,24,132.7
1144,E-4,167.5,0.5,26,132.7
1145,G#3,167.5,0.5,26,132.7
1146,F5,167.75,0.25,41,132.7
1147,E-5,168.0,0.25,41,132.7
1148,C4,168.0,1.5,24,132.7
1149,E-4,168.0,1.5,26,132.7
1150,G#3,168.0,1.5,26,132.7
1151,F5,168.25,0.25,33,132.7
1152,C#5,168.5,0.25,38,132.7
1153,E-5,168.75,0.25,32,132.7
1154,C5,169.0,0.25,36,132.7
1155,E-5,169.25,0.25,29,132.7
1156,B-4,169.5,0.25,33,132.7
1157,C#4,169.5,0.5,31,132.7
1158,E-4,169.5,1.5,26,132.7
1159,G#3,169.5,1.5,26,132.7
1160,E-5,169.75,0.25,30,132.7
1161,G#4,170.0,0.25,38,132.7
1162,B-3,170.0,0.5,30,132.7
1163,E-5,170.25,0.25,31,132.7
1164,G4,170.5,0.25,40,132.7
1165,C4,170.5,0.5,30,132.7
1166,E-5,170.75,0.25,33,132.7
1167,G#5,171.0,0.25,40,132.7
1168,C#4,171.0,0.5,31,132.7
1169,E-4,171.0,1.5,26,132.7
1170,G#3,171.0,1.5,26,132.7
1171,B-5,171.25,0.25,39,132.7
1172,B5,171.5,0.25,41,132.7
1173,C4,171.5,0.5,28,132.7
1174,C#6,171.75,0.25,43,132.7
1175,E-6,172.0,0.25,46,132.7
1176,B-3,172.0,0.5,31,132.7
1177,C#6,172.25,0.25,46,132.7
1178,B5,172.5,0.25,46,132.7
1179,B3,172.5,9/20,29,132.7
1180,G#3,172.5,9/20,29,132.7
1181,E-4,172.5,9/20,29,132.7
1182,B-5,172.75,0.25,45,132.7
1183,G#5,173.0,0.25,44,132.7
1184,E-4,173.0,9/20,26,132.7
1185,B3,173.0,9/20,26,132.7
1186,G#3,173.0,9/20,26,132.7
1187,F#5,173.25,0.25,43,132.7
1188,E5,173.5,0.25,42,132.7
1189,G#3,173.5,0.5,24,132.7
1190,B3,173.5,0.5,26,132.7
1191,E-4,173.5,0.5,26,132.7
1192,E-5,173.75,0.25,41,132.7
1193,C#5,174.0,0.25,41,132.7
1194,G#3,174.0,1.5,24,132.7
1195,B3,174.0,1.5,26,132.7
1196,E-4,174.0,1.5,26,132.7
1197,B4,174.25,0.25,39,132.7
1198,B-4,174.5,0.25,38,132.7
1199,G#4,174.75,0.25,38,132.7
1200,G4,175.0,0.25,36,132.7
1201,G#4,175.25,0.25,35,132.7
1202,B-4,175.5,0.25,33,132.7
1203,G#3,175.5,1.5,24,132.7
1204,C#4,175.5,1.5,28,132.7
1205,E4,175.5,1.5,28,132.7
1206,B4,175.75,0.25,33,132.7
1207,C#5,176.0,0.25,34,132.7
1208,E-5,176.25,0.25,36,132.7
1209,E5,176.5,0.25,37,132.7
1210,G5,176.75,0.25,39,132.7
1211,G#5,177.0,0.25,40,132.7
1212,G#3,177.0,1.5,24,132.7
1213,C#4,177.0,1.5,28,132.7
1214,E4,177.0,1.5,28,132.7
1215,B-5,177.25,0.25,39,132.7
1216,B5,177.5,0.25,41,132.7
1217,C#6,177.75,0.25,43,132.7
1218,E6,178.0,0.25,46,132.7
1219,E-6,178.25,0.25,46,132.7
1220,C#6,178.5,0.25,46,132.7
1221,B3,178.5,9/20,29,132.7
1222,E-4,178.5,9/20,29,132.7
1223,G#3,178.5,9/20,29,132.7
1224,B5,178.75,0.25,45,132.7
1225,B-5,179.0,0.25,44,132.7
1226,B3,179.0,9/20,26,132.7
1227,E-4,179.0,9/20,26,132.7
1228,G#3,179.0,9/20,26,132.7
1229,G#5,179.25,0.25,43,132.7
1230,F#5,179.5,0.25,42,132.7
1231,B3,179.5,0.5,24,132.7
1232,G#3,179.5,0.5,26,132.7
1233,E-4,179.5,0.5,26,132.7
1234,E5,179.75,0.25,41,132.7
1235,E-5,180.0,0.5,46,132.7
1236,B3,180.0,1.5,24,132.7
1237,G#3,180.0,1.5,26,132.7
1238,E-4,180.0,1.5,26,132.7
1239,C#5,180.5,0.25,38,132.7
1240,E-5,180.75,0.25,32,132.7
1241,B4,181.0,0.25,36,132.7
1242,E-5,181.25,0.25,29,132.7
1243,B-4,181.5,0.25,33,132.7
1244,C#4,181.5,0.5,31,132.7
1245,G#3,181.5,1.5,26,132.7
1246,E-4,181.5,1.5,26,132.7
1247,E-5,181.75,0.25,30,132.7
1248,G#4,182.0,0.25,38,132.7
1249,B-3,182.0,0.5,30,132.7
1250,E-5,182.25,0.25,31,132.7
1251,G4,182.5,0.25,40,132.7
1252,B3,182.5,0.5,30,132.7
1253,G#5,183.0,0.25,46,132.7
1254,C#4,183.0,0.5,31,132.7
1255,G#3,183.0,1.5,26,132.7
1256,E-4,183.0,1.5,26,132.7
1257,B-5,183.25,0.25,44,132.7
1258,C6,183.5,0.25,47,132.7
1259,B3,183.5,0.5,28,132.7
1260,C#6,183.75,0.25,49,132.7
1261,E-6,184.0,0.25,52,132.7
1262,B-3,184.0,0.25,31,132.7
1263,C#6,184.25,0.25,52,132.7
1264,C6,184.5,0.25,52,132.7
1265,C4,184.5,9/20,29,132.7
1266,G#3,184.5,9/20,29,132.7
1267,E-4,184.5,9/20,29,132.7
1268,B-5,184.75,0.25,51,132.7
1269,G#5,185.0,0.25,50,132.7
1270,G#3,185.0,9/20,26,132.7
1271,C4,185.0,9/20,26,132.7
1272,E-4,185.0,9/20,26,132.7
1273,G5,185.25,0.25,49,132.7
1274,F5,185.5,0.25,48,132.7
1275,G#3,185.5,0.5,24,132.7
1276,C4,185.5,0.5,26,132.7
1277,E-4,185.5,0.5,26,132.7
1278,E-5,185.75,0.25,47,132.7
1279,C#5,186.0,0.25,47,132.7
1280,G#3,186.0,1.5,24,132.7
1281,C4,186.0,1.5,26,132.7
1282,E-4,186.0,1.5,26,132.7
1283,C5,186.25,0.25,44,132.7
1284,B-4,186.5,0.25,43,132.7
1285,G#4,186.75,0.25,43,132.7
1286,G4,187.0,0.25,41,132.7
1287,G#4,187.25,0.25,40,132.7
1288,B-4,187.5,0.25,37,132.7
1289,G#3,187.5,1.5,24,132.7
1290,F4,187.5,1.5,28,132.7
1291,C#4,187.5,1.5,28,132.7
1292,C5,187.75,0.25,37,132.7
1293,C#5,188.0,0.25,39,132.7
1294,E-5,188.25,0.25,41,132.7
1295,F5,188.5,0.25,42,132.7
1296,G5,188.75,0.25,44,132.7
1297,G#5,189.0,0.25,46,132.7
1298,G#3,189.0,1.5,24,132.7
1299,F4,189.0,1.5,28,132.7
1300,C#4,189.0,1.5,28,132.7
1301,B-5,189.25,0.25,47,132.7
1302,C6,189.5,0.25,49,132.7
1303,C#6,189.75,0.25,52,132.7
1304,E-6,190.0,0.25,54,132.7
1305,F6,190.25,0.25,56,132.7
1306,G6,190.5,0.25,59,132.7
1307,G#3,190.5,9/20,34,132.7
1308,C4,190.5,9/20,34,132.7
1309,E-4,190.5,9/20,34,132.7
1310,G#6,190.75,0.25,61,132.7
1311,B-6,191.0,0.25,63,132.7
1312,E-4,191.0,9/20,31,132.7
1313,G#3,191.0,9/20,31,132.7
1314,C4,191.0,9/20,31,132.7
1315,C7,191.25,0.25,66,132.7
1316,C#7,191.5,0.25,68,132.7
1317,E-4,191.5,0.5,36,132.7
1318,C4,191.5,0.5,30,132.7
1319,G#3,191.5,0.5,30,132.7
1320,E-7,191.75,0.25,70,132.7
1321,F7,192.0,0.25,73,132.7
1322,E-4,192.0,1.5,36,132.7
1323,C4,192.0,1.5,30,132.7
1324,G#3,192.0,1.5,30,132.7
1325,E-7,192.25,0.25,73,132.7
1326,C#7,192.5,0.25,72,132.7
1327,C7,192.75,0.25,71,132.7
1328,B-6,193.0,0.25,70,132.7
1329,G#6,193.25,0.25,69,132.7
1330,G6,193.5,0.25,68,132.7
1331,E-4,193.5,1.5,36,132.7
1332,B-3,193.5,1.5,33,132.7
1333,G3,193.5,1.5,33,132.7
1334,C#4,193.5,1.5,33,132.7
1335,F6,193.75,0.25,67,132.7
1336,E-6,194.0,0.25,66,132.7
1337,C#6,194.25,0.25,66,132.7
1338,C6,194.5,0.25,65,132.7
1339,B-5,194.75,0.25,64,132.7
1340,G#5,195.0,0.25,67,132.7
1341,E-4,195.0,1.5,36,132.7
1342,B-3,195.0,1.5,33,132.7
1343,G3,195.0,1.5,33,132.7
1344,C#4,195.0,1.5,33,132.7
1345,B-5,195.25,0.25,68,132.7
1346,B5,195.5,0.25,69,132.7
1347,C#6,195.75,0.25,71,132.7
1348,E-6,196.0,0.25,72,132.7
1349,C#6,196.25,0.25,73,132.7
1350,B5,196.5,0.25,74,132.7
1351,B3,196.5,9/20,43,132.7
1352,G#3,196.5,9/20,43,132.7
1353,E-4,196.5,9/20,43,132.7
1354,B-5,196.75,0.25,73,132.7
1355,G#5,197.0,0.25,71,132.7
1356,B3,197.0,9/20,38,132.7
1357,E-4,197.0,9/20,38,132.7
1358,G#3,197.0,9/20,38,132.7
1359,F#5,197.25,0.25,70,132.7
1360,E5,197.5,0.25,68,132.7
1361,G#3,197.5,0.5,36,132.7
1362,E-4,197.5,0.5,40,132.7
1363,B3,197.5,0.5,40,132.7
1364,E-5,197.75,0.25,67,132.7
1365,C#5,198.0,0.25,65,132.7
1366,G#3,198.0,1.5,36,132.7
1367,E-4,198.0,1.5,40,132.7
1368,B3,198.0,1.5,40,132.7
1369,B4,198.25,0.25,64,132.7
1370,B-4,198.5,0.25,62,132.7
1371,G#4,198.75,0.25,61,132.7
1372,G4,199.0,0.25,59,132.7
1373,G#4,199.25,0.25,58,132.7
1374,B-4,199.5,0.25,56,132.7
1375,G#3,199.5,1.5,36,132.7
1376,C#4,199.5,1.5,42,132.7
1377,E4,199.5,1.5,42,132.7
1378,B4,199.75,0.25,55,132.7
1379,C#5,200.0,0.25,56,132.7
1380,E-5,200.25,0.25,58,132.7
1381,E5,200.5,0.25,60,132.7
1382,G5,200.75,0.25,62,132.7
1383,G#5,201.0,0.25,65,132.7
1384,G#3,201.0,1.5,36,132.7
1385,C#4,201.0,1.5,42,132.7
1386,E4,201.0,1.5,42,132.7
1387,B-5,201.25,0.25,63,132.7
1388,B5,201.5,0.25,65,132.7
1389,C#6,201.75,0.25,66,132.7
1390,E-6,202.0,0.25,67,132.7
1391,F6,202.25,0.25,68,132.7
1392,G6,202.5,0.25,69,132.7
1393,B3,202.5,9/20,43,132.7
1394,G#3,202.5,9/20,43,132.7
1395,E-4,202.5,9/20,43,132.7
1396,G#6,202.75,0.25,70,132.7
1397,B-6,203.0,0.25,72,132.7
1398,G#3,203.0,9/20,38,132.7
1399,E-4,203.0,9/20,38,132.7
1400,B3,203.0,9/20,38,132.7
1401,B6,203.25,0.25,73,132.7
1402,C#7,203.5,0.25,74,132.7
1403,E-4,203.5,0.5,38,132.7
1404,B3,203.5,0.5,38,132.7
1405,G#3,203.5,0.5,38,132.7
1406,E-7,203.75,0.25,75,132.7
1407,E7,204.0,0.25,76,132.7
1408,E-4,204.0,1.5,38,132.7
1409,B3,204.0,1.5,38,132.7
1410,G#3,204.0,1.5,38,132.7
1411,E-7,204.25,0.25,77,132.7
1412,C#7,204.5,0.25,72,132.7
1413,B6,204.75,0.25,71,132.7
1414,B-6,205.0,0.25,70,132.7
1415,G#6,205.25,0.25,69,132.7
1416,G6,205.5,0.25,71,132.7
1417,E4,205.5,1.5,43,132.7
1418,B-3,205.5,1.5,36,132.7
1419,C#4,205.5,1.5,36,132.7
1420,G3,205.5,1.5,36,132.7
1421,E6,205.75,0.25,68,132.7
1422,E-6,206.0,0.25,65,132.7
1423,C#6,206.25,0.25,62,132.7
1424,B5,206.5,0.25,60,132.7
1425,B-5,206.75,0.25,57,132.7
1426,E-6,207.0,0.25,63,132.7
1427,C#6,207.25,0.25,62,132.7
1428,B5,207.5,0.25,60,132.7
1429,B-5,207.75,0.25,58,132.7
1430,G#5,208.0,0.25,57,132.7
1431,F#5,208.25,0.25,55,132.7
1432,E5,208.5,0.25,53,132.7
1433,E-4,208.5,1.5,43,132.7
1434,B-3,208.5,1.5,36,132.7
1435,C#4,208.5,1.5,36,132.7
1436,G3,208.5,1.5,36,132.7
1437,E-5,208.75,0.25,52,132.7
1438,C#5,209.0,0.25,50,132.7
1439,B4,209.25,0.25,48,132.7
1440,B-4,209.5,0.25,46,132.7
1441,G#4,209.75,0.25,45,132.7
1442,A4,210.0,0.25,46,132.7
1443,E-4,210.0,1.5,36,132.7
1444,B3,210.0,1.5,36,132.7
1445,G#3,210.0,1.5,36,132.7
1446,C#5,210.25,0.25,43,132.7
1447,A4,210.5,0.25,48,132.7
1448,C#5,210.75,0.25,42,132.7
1449,E5,211.0,0.25,53,132.7
1450,G4,211.5,0.25,46,132.7
1451,G#3,211.5,1.5,31,132.7
1452,E-3,211.5,1.5,31,132.7
1453,B2,211.5,1.5,31,132.7
1454,B-4,211.75,0.25,43,132.7
1455,G4,212.0,0.25,48,132.7
1456,B-4,212.25,0.25,42,132.7
1457,E-5,212.5,0.25,53,132.7
1458,E-7,213.0,0.25,70,132.7
1459,C#3,213.0,1.5,36,132.7
1460,C#7,213.25,0.25,69,132.7
1461,B6,213.5,0.25,67,132.7
1462,B-6,213.75,0.25,65,132.7
1463,G#6,214.0,0.25,63,132.7
1464,C#4,214.0,0.25,29,132.7
1465,A3,214.0,0.25,29,132.7
1466,F#6,214.25,0.25,62,132.7
1467,E6,214.5,0.25,60,132.7
1468,E-3,214.5,1.5,36,132.7
1469,E-6,214.75,0.25,58,132.7
1470,C#6,215.0,0.25,57,132.7
1471,B5,215.25,0.25,55,132.7
1472,B-5,215.5,0.25,53,132.7
1473,C#4,215.5,0.25,29,132.7
1474,B-3,215.5,0.25,29,132.7
1475,G#5,215.75,0.25,52,132.7
1476,A5,216.0,0.25,50,132.7
1477,B2,216.0,1.5,41,132.7
1478,C#6,216.25,0.25,45,132.7
1479,A5,216.5,0.25,52,132.7
1480,C#6,216.75,0.25,46,132.7
1481,E6,217.0,0.25,54,132.7
1482,E-3,217.0,0.5,31,132.7
1483,B3,217.0,0.5,31,132.7
1484,G#3,217.0,0.5,31,132.7
1485,G5,217.5,0.25,51,132.7
1486,B2,217.5,1.5,41,132.7
1487,E-3,217.5,1.5,31,132.7
1488,B3,217.5,1.5,31,132.7
1489,G#3,217.5,1.5,31,132.7
1490,B-5,217.75,0.25,44,132.7
1491,G5,218.0,0.25,51,132.7
1492,B-5,218.25,0.25,45,132.7
1493,E-6,218.5,0.25,53,132.7
1494,G#6,219.0,0.25,70,132.7
1495,C#3,219.0,1.5,36,132.7
1496,E-6,219.25,0.25,68,132.7
1497,C#6,219.5,0.25,66,132.7
1498,B5,219.75,0.25,64,132.7
1499,B-5,220.0,167/1000,62,132.7
1500,A3,220.0,0.25,26,132.7
1501,C#4,220.0,0.25,26,132.7
1502,G#5,220.167,167/1000,60,132.7
1503,F#5,220.333,167/1000,59,132.7
1504,E5,220.5,0.25,57,132.7
1505,E-3,220.5,1.5,36,132.7
1506,E-5,220.75,0.25,55,132.7
1507,C#5,221.0,0.25,53,132.7
1508,B4,221.25,0.25,51,132.7
1509,B-4,221.5,0.25,49,132.7
1510,B-3,221.5,0.25,26,132.7
1511,C#4,221.5,0.25,26,132.7
1512,G#4,221.75,0.25,47,132.7
1513,A4,222.0,0.25,51,132.7
1514,B2,222.0,1.5,41,132.7
1515,C#5,222.25,0.25,45,132.7
1516,A4,222.5,0.25,50,132.7
1517,C#5,222.75,0.25,45,132.7
1518,E5,223.0,0.5,50,132.7
1519,E-3,223.0,0.5,31,132.7
1520,B3,223.0,0.5,31,132.7
1521,G#3,223.0,0.5,31,132.7
1522,E5,223.5,0.5,50,132.7
1523,B2,223.5,1.5,41,132.7
1524,E-3,223.5,1.5,31,132.7
1525,B3,223.5,1.5,31,132.7
1526,G#3,223.5,1.5,31,132.7
1527,E-5,224.0,0.5,39,132.7
1528,G4,224.5,0.5,34,132.7
1529,G#4,225.0,0.25,42,132.7
1530,C#3,225.0,1.5,36,132.7
1531,B4,225.25,0.25,35,132.7
1532,G#4,225.5,0.25,42,132.7
1533,B4,225.75,0.25,35,132.7
1534,G#5,226.0,0.25,53,132.7
1535,C#4,226.0,0.5,26,132.7
1536,A3,226.0,0.5,26,132.7
1537,B-4,226.5,0.25,42,132.7
1538,E-3,226.5,1.5,35,132.7
1539,C#5,226.75,0.25,35,132.7
1540,B-4,227.0,0.25,42,132.7
1541,C#5,227.25,0.25,35,132.7
1542,B-5,227.5,0.25,53,132.7
1543,B-3,227.5,0.5,28,132.7
1544,C#4,227.5,0.5,28,132.7
1545,B4,228.0,0.25,42,132.7
1546,G#2,228.0,0.5,44,132.7
1547,E-5,228.25,0.25,35,132.7
1548,B4,228.5,0.25,42,132.7
1549,E-5,228.75,0.25,35,132.7
1550,B5,229.0,0.25,53,132.7
1551,G#3,229.0,0.25,26,132.7
1552,B3,229.0,0.25,26,132.7
1553,G#2,229.5,0.5,44,132.7
1554,B-4,229.5,0.125,41,132.7
1555,C#5,229.5,0.125,41,132.7
1556,B-5,229.5,0.125,41,132.7
1557,C#5,230.0,0.125,38,132.7
1558,B-4,230.0,0.125,38,132.7
1559,B-5,230.0,0.125,38,132.7
1560,G#4,230.5,0.125,38,132.7
1561,B4,230.5,0.125,38,132.7
1562,G#5,230.5,0.125,38,132.7
1563,B-3,230.5,0.25,26,132.7
1564,C#4,230.5,0.25,26,132.7
1565,G4,231.0,0.25,42,132.7
1566,G#2,231.0,0.5,44,132.7
1567,B-4,231.25,0.25,35,132.7
1568,G4,231.5,0.25,42,132.7
1569,B-4,231.75,0.25,35,132.7
1570,G5,232.0,0.25,53,132.7
1571,E-4,232.0,0.25,26,132.7
1572,B3,232.0,0.25,26,132.7
1573,G#4,232.5,0.25,42,132.7
1574,E-4,232.5,0.125,28,132.7
1575,B-3,232.5,0.125,28,132.7
1576,C#4,232.5,0.125,28,132.7
1577,B4,232.75,0.25,35,132.7
1578,G#4,233.0,0.25,42,132.7
1579,B-3,233.0,0.125,26,132.7
1580,E-4,233.0,0.125,26,132.7
1581,C#4,233.0,0.125,26,132.7
1582,B4,233.25,0.25,35,132.7
1583,G#5,233.5,0.25,53,132.7
1584,B3,233.5,0.125,26,132.7
1585,G#3,233.5,0.125,26,132.7
1586,E-4,233.5,0.125,26,132.7
1587,B-4,234.0,0.25,42,132.7
1588,E-3,234.0,1.0,44,132.7
1589,C#5,234.25,0.25,35,132.7
1590,B-4,234.5,0.25,42,132.7
1591,C#5,234.75,0.25,35,132.7
1592,B-5,235.0,0.25,53,132.7
1593,G3,235.0,0.25,26,132.7
1594,B-3,235.0,0.25,26,132.7
1595,E-3,235.5,1.0,44,132.7
1596,B4,235.5,0.125,41,132.7
1597,G#4,235.5,0.125,41,132.7
1598,G#5,235.5,0.125,41,132.7
1599,G#4,236.0,0.125,38,132.7
1600,G#5,236.0,0.125,38,132.7
1601,B4,236.0,0.125,38,132.7
1602,B-4,236.5,0.125,38,132.7
1603,G5,236.5,0.125,38,132.7
1604,G4,236.5,0.125,38,132.7
1605,G#3,236.5,0.25,26,132.7
1606,B3,236.5,0.25,26,132.7
1607,G#4,237.0,0.25,46,132.7
1608,E-3,237.0,1.0,44,132.7
1609,B4,237.25,0.25,38,132.7
1610,G#4,237.5,0.25,46,132.7
1611,B4,237.75,0.25,38,132.7
1612,G#5,238.0,0.25,58,132.7
1613,B-3,238.0,0.25,26,132.7
1614,C#4,238.0,0.25,26,132.7
1615,B-4,238.5,0.25,46,132.7
1616,G#3,238.5,0.125,28,132.7
1617,E-3,238.5,0.125,28,132.7
1618,B3,238.5,0.125,28,132.7
1619,C#5,238.75,0.25,38,132.7
1620,B-4,239.0,0.25,46,132.7
1621,B3,239.0,0.125,26,132.7
1622,E-3,239.0,0.125,26,132.7
1623,G#3,239.0,0.125,26,132.7
1624,C#5,239.25,0.25,38,132.7
1625,B-5,239.5,0.25,58,132.7
1626,E-3,239.5,0.125,26,132.7
1627,B-3,239.5,0.125,26,132.7
1628,G3,239.5,0.125,26,132.7
1629,B4,240.0,0.25,46,132.7
1630,G#2,240.0,1.0,48,132.7
1631,E-5,240.25,0.25,38,132.7
1632,B4,240.5,0.25,46,132.7
1633,E-5,240.75,0.25,38,132.7
1634,B5,241.0,0.25,58,132.7
1635,G#3,241.0,0.25,28,132.7
1636,B3,241.0,0.25,28,132.7
1637,G#2,241.5,1.0,48,132.7
1638,E5,241.5,0.125,53,132.7
1639,C#6,241.5,0.125,53,132.7
1640,C#5,241.5,0.125,53,132.7
1641,E5,242.0,0.125,49,132.7
1642,C#5,242.0,0.125,49,132.7
1643,C#6,242.0,0.125,49,132.7
1644,F#5,242.5,0.125,49,132.7
1645,E-5,242.5,0.125,49,132.7
1646,E-6,242.5,0.125,49,132.7
1647,B-3,242.5,0.25,28,132.7
1648,C#4,242.5,0.25,28,132.7
1649,B4,243.0,0.25,46,132.7
1650,G#2,243.0,1.0,48,132.7
1651,E-5,243.25,0.25,38,132.7
1652,B4,243.5,0.25,46,132.7
1653,E-5,243.75,0.25,38,132.7
1654,B5,244.0,0.25,58,132.7
1655,B3,244.0,0.25,28,132.7
1656,E-4,244.0,0.25,28,132.7
1657,C#6,244.5,0.125,53,132.7
1658,C#5,244.5,0.125,53,132.7
1659,E5,244.5,0.125,53,132.7
1660,E4,244.5,0.125,35,132.7
1661,F#3,244.5,0.125,35,132.7
1662,C#4,244.5,0.125,35,132.7
1663,E5,245.0,0.125,49,132.7
1664,C#5,245.0,0.125,49,132.7
1665,C#6,245.0,0.125,49,132.7
1666,E4,245.0,0.125,33,132.7
1667,C#4,245.0,0.125,33,132.7
1668,F#3,245.0,0.125,33,132.7
1669,E-5,245.5,0.125,49,132.7
1670,F#5,245.5,0.125,49,132.7
1671,E-6,245.5,0.125,49,132.7
1672,F#3,245.5,0.125,33,132.7
1673,B-3,245.5,0.125,33,132.7
1674,F#4,245.5,0.125,33,132.7
1675,B-4,246.0,0.25,52,132.7
1676,F#3,246.0,1.5,48,132.7
1677,E-5,246.25,0.25,43,132.7
1678,B-4,246.5,0.25,52,132.7
1679,E-5,246.75,0.25,43,132.7
1680,B-5,247.0,0.375,66,132.7
1681,B3,247.0,0.25,28,132.7
1682,E-4,247.0,0.25,28,132.7
1683,B4,247.5,0.25,52,132.7
1684,E4,247.5,0.125,35,132.7
1685,C#4,247.5,0.125,35,132.7
1686,F#3,247.5,0.125,35,132.7
1687,E-5,247.75,0.25,43,132.7
1688,B4,248.0,0.25,52,132.7
1689,E4,248.0,0.125,33,132.7
1690,C#4,248.0,0.125,33,132.7
1691,F#3,248.0,0.125,33,132.7
1692,E-5,248.25,0.25,43,132.7
1693,B5,248.5,0.375,66,132.7
1694,B-3,248.5,0.125,33,132.7
1695,F#3,248.5,0.125,33,132.7
1696,F#4,248.5,0.125,33,132.7
1697,C#5,249.0,0.25,52,132.7
1698,G3,249.0,1.5,69,132.7
1699,E5,249.25,0.25,43,132.7
1700,C#5,249.5,0.25,52,132.7
1701,E5,249.75,0.25,43,132.7
1702,C#6,250.0,0.375,66,132.7
1703,E-4,250.0,0.375,32,132.7
1704,B-3,250.0,0.375,32,132.7
1705,G#3,250.5,1.5,68,132.7
1706,E-5,250.5,0.125,60,132.7
1707,B5,250.5,0.125,60,132.7
1708,G#5,250.5,0.125,60,132.7
1709,B4,250.5,0.125,60,132.7
1710,E-5,251.0,0.125,55,132.7
1711,B5,251.0,0.125,55,132.7
1712,B4,251.0,0.125,55,132.7
1713,G#5,251.0,0.125,55,132.7
1714,B-4,251.5,0.125,55,132.7
1715,B-5,251.5,0.125,55,132.7
1716,E-5,251.5,0.125,55,132.7
1717,G5,251.5,0.125,55,132.7
1718,B3,251.5,0.375,32,132.7
1719,E-4,251.5,0.375,32,132.7
1720,B-4,252.0,0.25,57,132.7
1721,C#3,252.0,1.0,65,132.7
1722,E-5,252.25,0.25,47,132.7
1723,B-4,252.5,0.25,57,132.7
1724,E-5,252.75,0.25,47,132.7
1725,B-5,253.0,0.375,72,132.7
1726,C#4,253.0,0.375,32,132.7
1727,E4,253.0,0.375,32,132.7
1728,B4,253.5,0.25,57,132.7
1729,E-4,253.5,0.125,40,132.7
1730,B3,253.5,0.125,40,132.7
1731,E-3,253.5,0.125,40,132.7
1732,E-5,253.75,0.25,47,132.7
1733,B4,254.0,0.25,57,132.7
1734,E-4,254.0,0.125,37,132.7
1735,E-3,254.0,0.125,37,132.7
1736,B3,254.0,0.125,37,132.7
1737,E-5,254.25,0.25,47,132.7
1738,B5,254.5,0.375,72,132.7
1739,E-3,254.5,0.125,37,132.7
1740,B-3,254.5,0.125,37,132.7
1741,E-4,254.5,0.125,37,132.7
1742,C#5,255.0,0.25,57,132.7
1743,G3,255.0,1.5,69,132.7
1744,E5,255.25,0.25,47,132.7
1745,C#5,255.5,0.25,57,132.7
1746,E5,255.75,0.25,47,132.7
1747,C#6,256.0,0.375,72,132.7
1748,B-3,256.0,0.375,32,132.7
1749,E-4,256.0,0.375,32,132.7
1750,G#3,256.5,1.5,68,132.7
1751,B5,256.5,0.125,60,132.7
1752,G#5,256.5,0.125,60,132.7
1753,B4,256.5,0.125,60,132.7
1754,E-5,256.5,0.125,60,132.7
1755,B5,257.0,0.125,55,132.7
1756,B4,257.0,0.125,55,132.7
1757,G#5,257.0,0.125,55,132.7
1758,E-5,257.0,0.125,55,132.7
1759,G5,257.5,0.125,55,132.7
1760,B-4,257.5,0.125,55,132.7
1761,B-5,257.5,0.125,55,132.7
1762,E-5,257.5,0.125,55,132.7
1763,B3,257.5,0.375,32,132.7
1764,E-4,257.5,0.375,32,132.7
1765,C#5,258.0,0.25,62,132.7
1766,C#3,258.0,1.0,65,132.7
1767,B-5,258.25,0.25,51,132.7
1768,C#5,258.5,0.25,62,132.7
1769,B-5,258.75,0.25,51,132.7
1770,C#6,259.0,0.375,79,132.7
1771,E4,259.0,0.375,32,132.7
1772,C#4,259.0,0.375,32,132.7
1773,E-5,259.5,0.25,62,132.7
1774,E-3,259.5,0.125,40,132.7
1775,E-4,259.5,0.125,40,132.7
1776,B3,259.5,0.125,40,132.7
1777,B5,259.75,0.25,51,132.7
1778,E-5,260.0,0.25,62,132.7
1779,E-4,260.0,0.125,37,132.7
1780,E-3,260.0,0.125,37,132.7
1781,B3,260.0,0.125,37,132.7
1782,B5,260.25,0.25,51,132.7
1783,E-6,260.5,0.375,79,132.7
1784,E-3,260.5,0.125,37,132.7
1785,E-4,260.5,0.125,37,132.7
1786,B-3,260.5,0.125,37,132.7
1787,E5,261.0,0.25,62,132.7
1788,E-3,261.0,1.0,75,132.7
1789,C#6,261.25,0.25,51,132.7
1790,E5,261.5,0.25,62,132.7
1791,C#6,261.75,0.25,51,132.7
1792,E6,262.0,0.375,79,132.7
1793,B-3,262.0,0.375,34,132.7
1794,C#4,262.0,0.375,34,132.7
1795,E-3,262.5,1.0,74,132.7
1796,C#6,262.5,0.125,66,132.7
1797,B-5,262.5,0.125,66,132.7
1798,C#5,262.5,0.125,66,132.7
1799,B-5,263.0,0.125,61,132.7
1800,C#5,263.0,0.125,61,132.7
1801,C#6,263.0,0.125,61,132.7
1802,B-4,263.5,0.125,61,132.7
1803,B-5,263.5,0.125,61,132.7
1804,G5,263.5,0.125,61,132.7
1805,E-4,263.5,0.375,34,132.7
1806,B3,263.5,0.375,34,132.7
1807,E5,264.0,0.25,62,132.7
1808,E-3,264.0,1.0,71,132.7
1809,C#6,264.25,0.25,51,132.7
1810,E5,264.5,0.25,62,132.7
1811,C#6,264.75,0.25,51,132.7
1812,E6,265.0,0.375,79,132.7
1813,E4,265.0,0.375,34,132.7
1814,C#4,265.0,0.375,34,132.7
1815,C#5,265.5,0.125,66,132.7
1816,B-5,265.5,0.125,66,132.7
1817,C#6,265.5,0.125,66,132.7
1818,E-3,265.5,0.125,43,132.7
1819,B-3,265.5,0.125,43,132.7
1820,C#4,265.5,0.125,43,132.7
1821,C#6,266.0,0.125,61,132.7
1822,C#5,266.0,0.125,61,132.7
1823,B-5,266.0,0.125,61,132.7
1824,B-3,266.0,0.125,41,132.7
1825,E-3,266.0,0.125,41,132.7
1826,C#4,266.0,0.125,41,132.7
1827,B-4,266.5,0.125,61,132.7
1828,G5,266.5,0.125,61,132.7
1829,B-5,266.5,0.125,61,132.7
1830,B-3,266.5,0.125,41,132.7
1831,G3,266.5,0.125,41,132.7
1832,E-3,266.5,0.125,41,132.7
1833,E5,267.0,0.25,62,132.7
1834,E-3,267.0,1.0,71,132.7
1835,C#6,267.25,0.25,51,132.7
1836,E5,267.5,0.25,62,132.7
1837,C#6,267.75,0.25,51,132.7
1838,E6,268.0,0.375,79,132.7
1839,C#4,268.0,0.375,34,132.7
1840,E4,268.0,0.375,34,132.7
1841,G5,268.5,0.25,68,132.7
1842,B-3,268.5,0.125,43,132.7
1843,E-3,268.5,0.125,43,132.7
1844,C#4,268.5,0.125,43,132.7
1845,E6,268.75,0.25,56,132.7
1846,G5,269.0,0.25,68,132.7
1847,E-3,269.0,0.125,41,132.7
1848,C#4,269.0,0.125,41,132.7
1849,B-3,269.0,0.125,41,132.7
1850,E6,269.25,0.25,57,132.7
1851,G6,269.5,0.375,89,132.7
1852,E-3,269.5,0.125,41,132.7
1853,G3,269.5,0.125,41,132.7
1854,B-3,269.5,0.125,41,132.7
1855,B-5,270.0,0.25,71,132.7
1856,E-3,270.0,1.0,71,132.7
1857,G6,270.25,0.25,58,132.7
1858,B-5,270.5,0.25,71,132.7
1859,G6,270.75,0.25,59,132.7
1860,B-6,271.0,0.375,93,132.7
1861,E4,271.0,0.375,34,132.7
1862,C#4,271.0,0.375,34,132.7
1863,C#6,271.5,0.25,74,132.7
1864,E-3,271.5,1.0,68,132.7
1865,B-6,271.75,0.25,61,132.7
1866,C#6,272.0,0.25,75,132.7
1867,B-6,272.25,0.25,62,132.7
1868,C#7,272.5,0.375,97,132.7
1869,C#4,272.5,0.375,38,132.7
1870,E4,272.5,0.375,38,132.7
1871,E6,273.0,0.25,77,132.7
1872,E-3,273.0,1.0,72,132.7
1873,C#7,273.25,0.25,63,132.7
1874,E6,273.5,0.25,78,132.7
1875,C#7,273.75,0.25,64,132.7
1876,E7,274.0,0.375,101,132.7
1877,C#4,274.0,0.375,40,132.7
1878,E4,274.0,0.375,40,132.7
1879,E-3,274.5,1.0,75,132.7
1880,E4,275.5,0.375,42,132.7
1881,C#4,275.5,0.375,42,132.7
1882,E5,276.0,0.25,42,132.7
1883,E-3,276.0,1.0,76,132.7
1884,C#6,276.25,0.25,35,132.7
1885,E5,276.5,0.25,42,132.7
1886,C#6,276.75,0.25,35,132.7
1887,E6,277.0,0.25,53,132.7
1888,C#4,277.0,0.375,44,132.7
1889,E4,277.0,0.375,44,132.7
1890,E5,277.5,0.25,42,132.7
1891,C#6,277.75,0.25,35,132.7
1892,E5,278.0,0.25,42,132.7
1893,C#6,278.25,0.25,35,132.7
1894,E6,278.5,0.25,53,132.7
1895,E5,279.0,0.25,42,132.7
1896,E3,279.0,1.0,44,132.7
1897,C#6,279.25,0.25,35,132.7
1898,E5,279.5,0.25,42,132.7
1899,C#6,279.75,0.25,35,132.7
1900,E6,280.0,0.25,53,132.7
1901,C#4,280.0,0.25,26,132.7
1902,E4,280.0,0.25,26,132.7
1903,E3,280.5,1.0,44,132.7
1904,B5,280.5,0.125,41,132.7
1905,D5,280.5,0.125,41,132.7
1906,D6,280.5,0.125,41,132.7
1907,B5,281.0,0.125,38,132.7
1908,D6,281.0,0.125,38,132.7
1909,D5,281.0,0.125,38,132.7
1910,C#6,281.5,0.125,38,132.7
1911,C#5,281.5,0.125,38,132.7
1912,A5,281.5,0.125,38,132.7
1913,E4,281.5,0.25,26,132.7
1914,C#4,281.5,0.25,26,132.7
1915,D5,282.0,0.25,42,132.7
1916,E3,282.0,1.0,44,132.7
1917,B5,282.25,0.25,35,132.7
1918,D5,282.5,0.25,42,132.7
1919,B5,282.75,0.25,35,132.7
1920,D6,283.0,0.25,53,132.7
1921,E4,283.0,0.25,26,132.7
1922,C#4,283.0,0.25,26,132.7
1923,D5,283.5,0.25,42,132.7
1924,E3,283.5,0.125,28,132.7
1925,B3,283.5,0.125,28,132.7
1926,D4,283.5,0.125,28,132.7
1927,B5,283.75,0.25,35,132.7
1928,D5,284.0,0.25,42,132.7
1929,D4,284.0,0.125,26,132.7
1930,E3,284.0,0.125,26,132.7
1931,B3,284.0,0.125,26,132.7
1932,B5,284.25,0.25,35,132.7
1933,D6,284.5,0.25,53,132.7
1934,A3,284.5,0.125,26,132.7
1935,C#4,284.5,0.125,26,132.7
1936,E3,284.5,0.125,26,132.7
1937,D5,285.0,0.25,42,132.7
1938,E3,285.0,1.0,44,132.7
1939,B5,285.25,0.25,35,132.7
1940,D5,285.5,0.25,42,132.7
1941,B5,285.75,0.25,35,132.7
1942,D6,286.0,0.25,53,132.7
1943,D4,286.0,0.25,26,132.7
1944,B3,286.0,0.25,26,132.7
1945,E3,286.5,1.0,44,132.7
1946,A5,286.5,0.125,41,132.7
1947,C#6,286.5,0.125,41,132.7
1948,C#5,286.5,0.125,41,132.7
1949,C#5,287.0,0.125,38,132.7
1950,C#6,287.0,0.125,38,132.7
1951,A5,287.0,0.125,38,132.7
1952,G#5,287.5,0.125,38,132.7
1953,B5,287.5,0.125,38,132.7
1954,B4,287.5,0.125,38,132.7
1955,B3,287.5,0.25,26,132.7
1956,D4,287.5,0.25,26,132.7
1957,E5,288.0,0.25,42,132.7
1958,E3,288.0,1.0,44,132.7
1959,C#6,288.25,0.25,35,132.7
1960,E5,288.5,0.25,42,132.7
1961,C#6,288.75,0.25,35,132.7
1962,E6,289.0,0.25,53,132.7
1963,D4,289.0,0.25,26,132.7
1964,B3,289.0,0.25,26,132.7
1965,E5,289.5,0.25,42,132.7
1966,E3,289.5,0.125,28,132.7
1967,A3,289.5,0.125,28,132.7
1968,C#4,289.5,0.125,28,132.7
1969,C#6,289.75,0.25,35,132.7
1970,E5,290.0,0.25,42,132.7
1971,E3,290.0,0.125,26,132.7
1972,A3,290.0,0.125,26,132.7
1973,C#4,290.0,0.125,26,132.7
1974,C#6,290.25,0.25,35,132.7
1975,E6,290.5,0.25,53,132.7
1976,E3,290.5,0.125,26,132.7
1977,B3,290.5,0.125,26,132.7
1978,G#3,290.5,0.125,26,132.7
1979,E5,291.0,0.25,42,132.7
1980,E3,291.0,1.0,44,132.7
1981,C#6,291.25,0.25,35,132.7
1982,E5,291.5,0.25,42,132.7
1983,C#6,291.75,0.25,35,132.7
1984,E6,292.0,0.25,53,132.7
1985,C#4,292.0,0.25,26,132.7
1986,E4,292.0,0.25,26,132.7
1987,E3,292.5,1.0,44,132.7
1988,G#6,292.5,0.125,53,132.7
1989,G#5,292.5,0.125,53,132.7
1990,E6,292.5,0.125,53,132.7
1991,G#5,293.0,0.125,49,132.7
1992,G#6,293.0,0.125,49,132.7
1993,E6,293.0,0.125,49,132.7
1994,A5,293.5,0.125,49,132.7
1995,E6,293.5,0.125,49,132.7
1996,A6,293.5,0.125,49,132.7
1997,C#4,293.5,0.25,26,132.7
1998,E4,293.5,0.25,26,132.7
1999,D5,294.0,0.25,42,132.7
2000,E3,294.0,1.0,44,132.7
2001,B5,294.25,0.25,35,132.7
2002,D5,294.5,0.25,42,132.7
2003,B5,294.75,0.25,35,132.7
2004,D6,295.0,0.25,53,132.7
2005,E4,295.0,0.25,26,132.7
2006,C#4,295.0,0.25,26,132.7
2007,D5,295.5,0.25,42,132.7
2008,D4,295.5,0.125,32,132.7
2009,B3,295.5,0.125,32,132.7
2010,E3,295.5,0.125,32,132.7
2011,B5,295.75,0.25,35,132.7
2012,D5,296.0,0.25,42,132.7
2013,E3,296.0,0.125,30,132.7
2014,D4,296.0,0.125,30,132.7
2015,B3,296.0,0.125,30,132.7
2016,B5,296.25,0.25,35,132.7
2017,D6,296.5,0.25,53,132.7
2018,A3,296.5,0.125,30,132.7
2019,E3,296.5,0.125,30,132.7
2020,C#4,296.5,0.125,30,132.7
2021,D5,297.0,0.25,42,132.7
2022,E3,297.0,1.0,44,132.7
2023,B5,297.25,0.25,35,132.7
2024,D5,297.5,0.25,42,132.7
2025,B5,297.75,0.25,35,132.7
2026,D6,298.0,0.25,53,132.7
2027,D4,298.0,0.25,26,132.7
2028,B3,298.0,0.25,26,132.7
2029,E3,298.5,1.0,44,132.7
2030,A5,298.5,0.125,53,132.7
2031,C#6,298.5,0.125,53,132.7
2032,A6,298.5,0.125,53,132.7
2033,A5,299.0,0.125,49,132.7
2034,A6,299.0,0.125,49,132.7
2035,C#6,299.0,0.125,49,132.7
2036,B5,299.5,0.125,49,132.7
2037,D6,299.5,0.125,49,132.7
2038,B6,299.5,0.125,49,132.7
2039,D4,299.5,0.25,26,132.7
2040,B3,299.5,0.25,26,132.7
2041,C#5,300.0,0.25,46,132.7
2042,E3,300.0,1.0,44,132.7
2043,A5,300.25,0.25,38,132.7
2044,C#5,300.5,0.25,47,132.7
2045,A5,300.75,0.25,39,132.7
2046,C#6,301.0,0.25,60,132.7
2047,B3,301.0,0.25,26,132.7
2048,D4,301.0,0.25,26,132.7
2049,B4,301.5,0.25,49,132.7
2050,C#4,301.5,0.125,32,132.7
2051,E3,301.5,0.125,32,132.7
2052,A3,301.5,0.125,32,132.7
2053,G#5,301.75,0.25,41,132.7
2054,B4,302.0,0.25,50,132.7
2055,A3,302.0,0.125,30,132.7
2056,C#4,302.0,0.125,30,132.7
2057,E3,302.0,0.125,30,132.7
2058,G#5,302.25,0.25,42,132.7
2059,B5,302.5,0.25,64,132.7
2060,E3,302.5,0.125,30,132.7
2061,B3,302.5,0.125,30,132.7
2062,G#3,302.5,0.125,30,132.7
2063,C#5,303.0,0.25,52,132.7
2064,E3,303.0,1.0,48,132.7
2065,A5,303.25,0.25,44,132.7
2066,C#5,303.5,0.25,53,132.7
2067,A5,303.75,0.25,44,132.7
2068,C#6,304.0,0.25,68,132.7
2069,C#4,304.0,0.25,30,132.7
2070,A3,304.0,0.25,30,132.7
2071,D5,304.5,0.25,55,132.7
2072,E3,304.5,1.0,51,132.7
2073,B5,304.75,0.25,46,132.7
2074,D5,305.0,0.25,56,132.7
2075,B5,305.25,0.25,47,132.7
2076,D6,305.5,0.25,72,132.7
2077,B3,305.5,0.25,32,132.7
2078,G#3,305.5,0.25,32,132.7
2079,C6,306.0,0.25,74,132.7
2080,E3,306.0,1.0,55,132.7
2081,E-6,306.25,0.25,66,132.7
2082,C6,306.5,0.25,71,132.7
2083,E-6,306.75,0.25,62,132.7
2084,G#6,307.0,0.25,74,132.7
2085,C#4,307.0,0.25,34,132.7
2086,A3,307.0,0.25,34,132.7
2087,G6,307.25,0.25,65,132.7
2088,F6,307.5,0.25,73,132.7
2089,E3,307.5,1.0,58,132.7
2090,E-6,307.75,0.25,60,132.7
2091,C#6,308.0,0.25,66,132.7
2092,C6,308.25,0.25,64,132.7
2093,B-5,308.5,0.25,62,132.7
2094,D4,308.5,0.25,36,132.7
2095,B3,308.5,0.25,36,132.7
2096,G#5,308.75,0.25,60,132.7
2097,G5,309.0,0.25,58,132.7
2098,E-4,309.0,9/20,59,132.7
2099,C4,309.0,9/20,59,132.7
2100,E-3,309.0,9/20,59,132.7
2101,G#3,309.0,9/20,59,132.7
2102,F5,309.25,0.25,56,132.7
2103,E-5,309.5,0.25,54,132.7
2104,C4,309.5,9/20,36,132.7
2105,E-4,309.5,9/20,36,132.7
2106,E-3,309.5,9/20,36,132.7
2107,G#3,309.5,9/20,36,132.7
2108,C#5,309.75,0.25,52,132.7
2109,C5,310.0,0.25,50,132.7
2110,E-4,310.0,0.5,38,132.7
2111,E-3,310.0,0.5,38,132.7
2112,C4,310.0,0.5,34,132.7
2113,G#3,310.0,0.5,34,132.7
2114,B-4,310.25,0.25,48,132.7
2115,G#4,310.5,0.25,45,132.7
2116,E-4,310.5,1.5,38,132.7
2117,E-3,310.5,1.5,38,132.7
2118,C4,310.5,1.5,34,132.7
2119,G#3,310.5,1.5,34,132.7
2120,G4,310.75,0.25,44,132.7
2121,F4,311.0,0.25,41,132.7
2122,E4,311.25,0.25,39,132.7
2123,E-4,311.5,0.5,37,132.7
2124,E-6,312.0,0.25,74,132.7
2125,C#4,312.0,1.5,38,132.7
2126,B-3,312.0,1.5,38,132.7
2127,E-4,312.0,1.5,38,132.7
2128,E-3,312.0,1.5,38,132.7
2129,G#6,312.25,0.25,66,132.7
2130,E-6,312.5,0.25,71,132.7
2131,G#6,312.75,0.25,62,132.7
2132,C7,313.0,0.25,74,132.7
2133,B-6,313.25,0.25,65,132.7
2134,G#6,313.5,0.25,73,132.7
2135,C#4,313.5,1.5,38,132.7
2136,B-3,313.5,1.5,38,132.7
2137,E-4,313.5,1.5,38,132.7
2138,E-3,313.5,1.5,38,132.7
2139,G6,313.75,0.25,60,132.7
2140,F6,314.0,0.25,66,132.7
2141,E-6,314.25,0.25,64,132.7
2142,C#6,314.5,0.25,62,132.7
2143,C6,314.75,0.25,60,132.7
2144,B-5,315.0,0.25,58,132.7
2145,C4,315.0,9/20,59,132.7
2146,E-4,315.0,9/20,59,132.7
2147,E-3,315.0,9/20,59,132.7
2148,G#3,315.0,9/20,59,132.7
2149,G#5,315.25,0.25,56,132.7
2150,G5,315.5,0.25,54,132.7
2151,C4,315.5,9/20,36,132.7
2152,E-4,315.5,9/20,36,132.7
2153,E-3,315.5,9/20,36,132.7
2154,G#3,315.5,9/20,36,132.7
2155,F5,315.75,0.25,52,132.7
2156,E-5,316.0,0.25,50,132.7
2157,G#3,316.0,0.5,34,132.7
2158,C4,316.0,0.5,34,132.7
2159,E-4,316.0,0.5,38,132.7
2160,E-3,316.0,0.5,38,132.7
2161,C#5,316.25,0.25,48,132.7
2162,C5,316.5,0.25,45,132.7
2163,G#3,316.5,1.5,34,132.7
2164,C4,316.5,1.5,34,132.7
2165,E-4,316.5,1.5,38,132.7
2166,E-3,316.5,1.5,38,132.7
2167,B-4,316.75,0.25,44,132.7
2168,G#4,317.0,0.25,41,132.7
2169,G4,317.25,0.25,39,132.7
2170,F4,317.5,0.25,37,132.7
2171,E-4,317.75,0.25,37,132.7
2172,G#6,318.0,0.25,76,132.7
2173,G3,318.0,1.5,38,132.7
2174,C#4,318.0,1.5,38,132.7
2175,E-4,318.0,1.5,38,132.7
2176,E-3,318.0,1.5,38,132.7
2177,C7,318.25,0.25,66,132.7
2178,G#6,318.5,0.25,71,132.7
2179,C7,318.75,0.25,62,132.7
2180,E-7,319.0,0.25,77,132.7
2181,C#7,319.25,0.25,69,132.7
2182,C7,319.5,0.25,79,132.7
2183,G3,319.5,1.5,38,132.7
2184,C#4,319.5,1.5,38,132.7
2185,E-4,319.5,1.5,38,132.7
2186,E-3,319.5,1.5,38,132.7
2187,B-6,319.75,0.25,71,132.7
2188,G#6,320.0,0.25,74,132.7
2189,G6,320.25,0.25,72,132.7
2190,F6,320.5,0.25,70,132.7
2191,E-6,320.75,0.25,68,132.7
2192,C#6,321.0,0.25,65,132.7
2193,E-3,321.0,9/20,59,132.7
2194,C4,321.0,9/20,59,132.7
2195,E-4,321.0,9/20,59,132.7
2196,G#3,321.0,9/20,59,132.7
2197,C6,321.25,0.25,63,132.7
2198,B-5,321.5,0.25,61,132.7
2199,C4,321.5,9/20,36,132.7
2200,E-3,321.5,9/20,36,132.7
2201,E-4,321.5,9/20,36,132.7
2202,G#3,321.5,9/20,36,132.7
2203,G#5,321.75,0.25,59,132.7
2204,G5,322.0,0.25,57,132.7
2205,E-3,322.0,0.5,38,132.7
2206,E-4,322.0,0.5,38,132.7
2207,G#3,322.0,0.5,34,132.7
2208,C4,322.0,0.5,34,132.7
2209,F5,322.25,0.25,54,132.7
2210,E-5,322.5,167/1000,52,132.7
2211,E-3,322.5,1.5,38,132.7
2212,E-4,322.5,1.5,38,132.7
2213,G#3,322.5,1.5,34,132.7
2214,C4,322.5,1.5,34,132.7
2215,C#5,322.667,167/1000,52,132.7
2216,C5,322.833,167/1000,53,132.7
2217,B-4,323.0,0.125,53,132.7
2218,G#4,323.125,0.125,54,132.7
2219,G4,323.25,0.125,55,132.7
2220,F4,323.375,0.125,56,132.7
2221,E-4,323.5,0.125,57,132.7
2222,C#4,323.625,0.125,58,132.7
2223,C4,323.75,0.125,60,132.7
2224,B-3,323.875,0.125,61,132.7
2225,G#3,324.0,0.5,70,132.7
2226,G3,324.0,1.5,38,132.7
2227,C#4,324.0,1.5,38,132.7
2228,E-3,324.0,1.5,38,132.7
2229,E-4,324.0,1.5,38,132.7
2230,G#3,324.5,11/40,70,132.7
2231,C4,324.75,11/40,62,132.7
2232,E-4,325.0,11/40,70,132.7
2233,C#4,325.25,0.25,68,132.7
2234,C4,325.5,11/40,68,132.7
2235,C#4,325.5,1/40,68,132.7
2236,G3,325.5,0.5,38,132.7
2237,C#4,325.5,0.5,38,132.7
2238,E-3,325.5,0.5,38,132.7
2239,E-4,325.5,0.5,38,132.7
2240,B-3,325.75,11/40,67,132.7
2241,G#3,326.0,11/40,66,132.7
2242,G3,326.25,11/40,65,132.7
2243,F3,326.5,11/40,64,132.7
2244,E-3,326.75,0.25,63,132.7
2245,C#3,327.0,11/40,62,132.7
2246,E-3,327.0,1/40,63,132.7
2247,C3,327.25,11/40,61,132.7
2248,B-2,327.5,11/40,60,132.7
2249,G#2,327.5,11/40,56,132.7
2250,G#2,327.75,11/40,59,132.7
2251,C3,327.75,11/40,49,132.7
2252,G2,328.0,11/40,58,132.7
2253,E-3,328.0,11/40,56,132.7
2254,G#2,328.25,0.25,57,132.7
2255,C#3,328.25,0.25,54,132.7
2256,B-2,328.5,11/40,56,132.7
2257,G#2,328.5,1/40,57,132.7
2258,C3,328.5,11/40,54,132.7
2259,C#3,328.5,1/40,54,132.7
2260,C3,328.75,11/40,58,132.7
2261,B-2,328.75,11/40,53,132.7
2262,C#3,329.0,11/40,59,132.7
2263,G#2,329.0,11/40,52,132.7
2264,E-3,329.25,11/40,60,132.7
2265,G2,329.25,11/40,52,132.7
2266,F3,329.5,11/40,61,132.7
2267,F2,329.5,11/40,51,132.7
2268,G3,329.75,0.25,62,132.7
2269,E-2,329.75,0.25,50,132.7
2270,G#3,330.0,11/40,63,132.7
2271,G3,330.0,1/40,62,132.7
2272,C#2,330.0,11/40,49,132.7
2273,E-2,330.0,1/40,50,132.7
2274,B-3,330.25,11/40,64,132.7
2275,C2,330.25,11/40,48,132.7
2276,C4,330.5,11/40,65,132.7
2277,B-1,330.5,11/40,48,132.7
2278,C#4,330.75,11/40,66,132.7
2279,G#1,330.75,11/40,47,132.7
2280,E-4,331.0,11/40,67,132.7
2281,G1,331.0,11/40,46,132.7
2282,F4,331.25,0.25,68,132.7
2283,G#1,331.25,0.25,45,132.7
2284,G4,331.5,11/40,70,132.7
2285,F4,331.5,1/40,68,132.7
2286,B-1,331.5,11/40,44,132.7
2287,G#1,331.5,1/40,45,132.7
2288,G#4,331.75,11/40,71,132.7
2289,C2,331.75,11/40,46,132.7
2290,B-4,332.0,11/40,73,132.7
2291,C#2,332.0,11/40,47,132.7
2292,C5,332.25,11/40,74,132.7
2293,E-2,332.25,11/40,48,132.7
2294,C#5,332.5,11/40,76,132.7
2295,F2,332.5,11/40,48,132.7
2296,E-5,332.75,0.25,78,132.7
2297,G2,332.75,0.25,49,132.7
2298,F5,333.0,11/40,79,132.7
2299,E-5,333.0,1/40,78,132.7
2300,G#2,333.0,11/40,50,132.7
2301,G2,333.0,1/40,49,132.7
2302,E-5,333.25,11/40,79,132.7
2303,B-2,333.25,11/40,51,132.7
2304,C#5,333.5,11/40,77,132.7
2305,C3,333.5,11/40,52,132.7
2306,C5,333.75,11/40,75,132.7
2307,C#3,333.75,11/40,52,132.7
2308,B-4,334.0,11/40,73,132.7
2309,E-3,334.0,11/40,53,132.7
2310,G#4,334.25,0.25,71,132.7
2311,F3,334.25,0.25,54,132.7
2312,G4,334.5,11/40,69,132.7
2313,G#4,334.5,1/40,71,132.7
2314,G3,334.5,11/40,56,132.7
2315,F3,334.5,1/40,54,132.7
2316,F4,334.75,11/40,67,132.7
2317,G#3,334.75,11/40,56,132.7
2318,E-4,335.0,11/40,65,132.7
2319,B-3,335.0,11/40,58,132.7
2320,C#4,335.25,11/40,63,132.7
2321,C4,335.25,11/40,59,132.7
2322,C4,335.5,11/40,61,132.7
2323,C#4,335.5,11/40,60,132.7
2324,B-3,335.75,0.25,59,132.7
2325,E-4,335.75,0.25,62,132.7
2326,G#3,336.0,0.5,62,132.7
2327,B-3,336.0,1/40,59,132.7
2328,F4,336.0,11/40,63,132.7
2329,E-4,336.0,1/40,62,132.7
2330,E-4,336.25,11/40,63,132.7
2331,G#4,336.5,11/40,49,132.7
2332,C#4,336.5,11/40,61,132.7
2333,C5,336.75,11/40,43,132.7
2334,C4,336.75,11/40,60,132.7
2335,E-5,337.0,11/40,49,132.7
2336,B-3,337.0,11/40,58,132.7
2337,C#5,337.25,0.25,47,132.7
2338,G#3,337.25,0.25,56,132.7
2339,C5,337.5,11/40,47,132.7
2340,C#5,337.5,1/40,47,132.7
2341,G3,337.5,11/40,55,132.7
2342,G#3,337.5,1/40,56,132.7
2343,B-4,337.75,11/40,46,132.7
2344,F3,337.75,11/40,53,132.7
2345,G#4,338.0,11/40,46,132.7
2346,E-3,338.0,11/40,52,132.7
2347,G4,338.25,11/40,45,132.7
2348,C#3,338.25,11/40,50,132.7
2349,F4,338.5,11/40,44,132.7
2350,C3,338.5,11/40,48,132.7
2351,E-4,338.75,0.25,44,132.7
2352,B-2,338.75,0.25,47,132.7
2353,C#4,339.0,11/40,43,132.7
2354,E-4,339.0,1/40,44,132.7
2355,G#2,339.0,0.5,49,132.7
2356,B-2,339.0,1/40,47,132.7
2357,C4,339.25,11/40,42,132.7
2358,B-3,339.5,11/40,42,132.7
2359,G#3,339.5,11/40,39,132.7
2360,G#3,339.75,11/40,41,132.7
2361,C4,339.75,11/40,34,132.7
2362,G3,340.0,11/40,40,132.7
2363,E-4,340.0,11/40,39,132.7
2364,G#3,340.25,0.25,39,132.7
2365,C#4,340.25,0.25,37,132.7
2366,B-3,340.5,11/40,39,132.7
2367,G#3,340.5,1/40,39,132.7
2368,C4,340.5,11/40,37,132.7
2369,C#4,340.5,1/40,37,132.7
2370,C4,340.75,11/40,40,132.7
2371,B-3,340.75,11/40,37,132.7
2372,C#4,341.0,11/40,41,132.7
2373,G#3,341.0,11/40,36,132.7
2374,E-4,341.25,11/40,42,132.7
2375,G3,341.25,11/40,36,132.7
2376,F4,341.5,11/40,42,132.7
2377,F3,341.5,11/40,35,132.7
2378,G4,341.75,0.25,43,132.7
2379,E-3,341.75,0.25,35,132.7
2380,G#4,342.0,11/40,44,132.7
2381,G4,342.0,1/40,43,132.7
2382,C#3,342.0,11/40,34,132.7
2383,E-3,342.0,1/40,35,132.7
2384,B-4,342.25,11/40,44,132.7
2385,C3,342.25,11/40,33,132.7
2386,C5,342.5,11/40,45,132.7
2387,B-2,342.5,11/40,33,132.7
2388,C#5,342.75,11/40,46,132.7
2389,G#2,342.75,11/40,32,132.7
2390,E-5,343.0,11/40,46,132.7
2391,G2,343.0,11/40,32,132.7
2392,F5,343.25,0.25,47,132.7
2393,G#2,343.25,0.25,31,132.7
2394,G5,343.5,11/40,49,132.7
2395,F5,343.5,1/40,47,132.7
2396,B-2,343.5,11/40,30,132.7
2397,G#2,343.5,1/40,31,132.7
2398,G#5,343.75,11/40,49,132.7
2399,C3,343.75,11/40,32,132.7
2400,B-5,344.0,11/40,51,132.7
2401,C#3,344.0,11/40,32,132.7
2402,C6,344.25,11/40,51,132.7
2403,E-3,344.25,11/40,33,132.7
2404,C#6,344.5,11/40,53,132.7
2405,F3,344.5,11/40,33,132.7
2406,E-6,344.75,0.25,54,132.7
2407,G3,344.75,0.25,34,132.7
2408,F6,345.0,11/40,55,132.7
2409,E-6,345.0,1/40,54,132.7
2410,G#3,345.0,11/40,35,132.7
2411,G3,345.0,1/40,34,132.7
2412,E-6,345.25,11/40,55,132.7
2413,B-3,345.25,11/40,35,132.7
2414,C#6,345.5,11/40,53,132.7
2415,C4,345.5,11/40,36,132.7
2416,C6,345.75,11/40,52,132.7
2417,C#4,345.75,11/40,36,132.7
2418,B-5,346.0,11/40,51,132.7
2419,E-4,346.0,11/40,37,132.7
2420,G#5,346.25,0.25,49,132.7
2421,F4,346.25,0.25,37,132.7
2422,G5,346.5,11/40,48,132.7
2423,G#5,346.5,1/40,49,132.7
2424,G4,346.5,11/40,39,132.7
2425,F4,346.5,1/40,37,132.7
2426,F5,346.75,11/40,46,132.7
2427,G#4,346.75,11/40,39,132.7
2428,E-5,347.0,11/40,45,132.7
2429,B-4,347.0,11/40,40,132.7
2430,C#5,347.25,11/40,44,132.7
2431,C5,347.25,11/40,41,132.7
2432,C5,347.5,11/40,42,132.7
2433,C#5,347.5,11/40,42,132.7
2434,B-4,347.75,0.25,41,132.7
2435,E-5,347.75,0.25,43,132.7
2436,G#4,348.0,0.5,43,132.7
2437,B-4,348.0,1/40,41,132.7
2438,F5,348.0,11/40,44,132.7
2439,E-5,348.0,1/40,43,132.7
2440,E-5,348.25,11/40,44,132.7
2441,G#4,348.5,11/40,70,132.7
2442,C#5,348.5,11/40,42,132.7
2443,B4,348.75,11/40,62,132.7
2444,C5,348.75,11/40,42,132.7
2445,E-5,349.0,11/40,70,132.7
2446,B-4,349.0,11/40,40,132.7
2447,C#5,349.25,0.25,68,132.7
2448,G#4,349.25,0.25,39,132.7
2449,B4,349.5,11/40,68,132.7
2450,C#5,349.5,1/40,68,132.7
2451,G4,349.5,11/40,38,132.7
2452,G#4,349.5,1/40,39,132.7
2453,B-4,349.75,11/40,67,132.7
2454,F4,349.75,11/40,37,132.7
2455,G#4,350.0,11/40,66,132.7
2456,E-4,350.0,11/40,36,132.7
2457,F#4,350.25,11/40,65,132.7
2458,C#4,350.25,11/40,35,132.7
2459,E4,350.5,11/40,64,132.7
2460,C4,350.5,11/40,33,132.7
2461,E-4,350.75,0.25,63,132.7
2462,B-3,350.75,0.25,32,132.7
2463,C#4,351.0,11/40,62,132.7
2464,E-4,351.0,1/40,63,132.7
2465,G#3,351.0,0.5,34,132.7
2466,B-3,351.0,1/40,32,132.7
2467,B3,351.25,11/40,61,132.7
2468,B-3,351.5,11/40,60,132.7
2469,G#3,351.5,11/40,56,132.7
2470,G#3,351.75,11/40,59,132.7
2471,B3,351.75,11/40,49,132.7
2472,G3,352.0,11/40,58,132.7
2473,E-4,352.0,11/40,56,132.7
2474,G#3,352.25,0.25,57,132.7
2475,C#4,352.25,0.25,54,132.7
2476,B-3,352.5,11/40,56,132.7
2477,G#3,352.5,1/40,57,132.7
2478,B3,352.5,11/40,54,132.7
2479,C#4,352.5,1/40,54,132.7
2480,B3,352.75,11/40,58,132.7
2481,B-3,352.75,11/40,53,132.7
2482,C#4,353.0,11/40,59,132.7
2483,G#3,353.0,11/40,52,132.7
2484,E-4,353.25,11/40,60,132.7
2485,F#3,353.25,11/40,52,132.7
2486,F4,353.5,11/40,61,132.7
2487,E3,353.5,11/40,51,132.7
2488,G4,353.75,0.25,62,132.7
2489,E-3,353.75,0.25,50,132.7
2490,G#4,354.0,11/40,63,132.7
2491,G4,354.0,1/40,62,132.7
2492,C#3,354.0,11/40,49,132.7
2493,E-3,354.0,1/40,50,132.7
2494,B-4,354.25,11/40,65,132.7
2495,B2,354.25,11/40,48,132.7
2496,B4,354.5,11/40,67,132.7
2497,B-2,354.5,11/40,48,132.7
2498,C#5,354.75,11/40,68,132.7
2499,G#2,354.75,11/40,47,132.7
2500,E-5,355.0,11/40,70,132.7
2501,G2,355.0,11/40,46,132.7
2502,F5,355.25,0.25,72,132.7
2503,G#2,355.25,0.25,45,132.7
2504,G5,355.5,11/40,74,132.7
2505,F5,355.5,1/40,72,132.7
2506,B-2,355.5,11/40,44,132.7
2507,G#2,355.5,1/40,45,132.7
2508,G#5,355.75,11/40,76,132.7
2509,B2,355.75,11/40,46,132.7
2510,B-5,356.0,11/40,78,132.7
2511,C#3,356.0,11/40,47,132.7
2512,B5,356.25,11/40,80,132.7
2513,E-3,356.25,11/40,48,132.7
2514,C#6,356.5,11/40,83,132.7
2515,F3,356.5,11/40,48,132.7
2516,E-6,356.75,0.25,85,132.7
2517,G3,356.75,0.25,49,132.7
2518,E6,357.0,11/40,90,132.7
2519,E-6,357.0,1/40,85,132.7
2520,G#3,357.0,11/40,50,132.7
2521,G3,357.0,1/40,49,132.7
2522,D6,357.25,11/40,89,132.7
2523,B-3,357.25,11/40,55,132.7
2524,C#6,357.5,11/40,88,132.7
2525,B3,357.5,11/40,56,132.7
2526,B5,357.75,11/40,86,132.7
2527,C#4,357.75,11/40,57,132.7
2528,A5,358.0,11/40,85,132.7
2529,E-4,358.0,11/40,59,132.7
2530,G#5,358.25,0.25,83,132.7
2531,F4,358.25,0.25,60,132.7
2532,F#5,358.5,11/40,82,132.7
2533,G#5,358.5,1/40,83,132.7
2534,G4,358.5,11/40,62,132.7
2535,F4,358.5,1/40,60,132.7
2536,E5,358.75,11/40,81,132.7
2537,G#4,358.75,11/40,60,132.7
2538,D5,359.0,11/40,79,132.7
2539,B-4,359.0,11/40,63,132.7
2540,C#5,359.25,11/40,78,132.7
2541,B4,359.25,11/40,65,132.7
2542,B4,359.5,11/40,76,132.7
2543,C#5,359.5,11/40,68,132.7
2544,A4,359.75,0.25,75,132.7
2545,E-5,359.75,0.25,71,132.7
2546,G#4,360.0,11/40,74,132.7
2547,A4,360.0,1/40,75,132.7
2548,E5,360.0,11/40,73,132.7
2549,E-5,360.0,1/40,71,132.7
2550,F#4,360.25,11/40,72,132.7
2551,D5,360.25,11/40,74,132.7
2552,E4,360.5,11/40,71,132.7
2553,C#5,360.5,11/40,73,132.7
2554,D4,360.75,11/40,69,132.7
2555,B4,360.75,11/40,72,132.7
2556,C#4,361.0,11/40,68,132.7
2557,A4,361.0,11/40,70,132.7
2558,B3,361.25,0.25,67,132.7
2559,G#4,361.25,0.25,69,132.7
2560,A3,361.5,11/40,69,132.7
2561,B3,361.5,1/40,67,132.7
2562,F#4,361.5,11/40,68,132.7
2563,G#4,361.5,1/40,69,132.7
2564,G#3,361.75,11/40,71,132.7
2565,E4,361.75,11/40,66,132.7
2566,F#3,362.0,11/40,73,132.7
2567,D4,362.0,11/40,65,132.7
2568,E3,362.25,11/40,75,132.7
2569,C#4,362.25,11/40,64,132.7
2570,D3,362.5,37/200,77,132.7
2571,B3,362.5,11/40,62,132.7
2572,C#3,362.669,183/1000,78,132.7
2573,A3,362.75,0.25,61,132.7
2574,B2,362.833,167/1000,79,132.7
2575,A2,363.0,0.25,78,132.7
2576,G#3,363.0,11/40,60,132.7
2577,A3,363.0,1/40,61,132.7
2578,C#3,363.25,0.25,67,132.7
2579,F#3,363.25,11/40,58,132.7
2580,A2,363.5,0.25,78,132.7
2581,E3,363.5,11/40,57,132.7
2582,C#3,363.75,0.25,65,132.7
2583,D3,363.75,11/40,56,132.7
2584,E3,364.0,0.5,73,132.7
2585,C#3,364.0,11/40,54,132.7
2586,B2,364.25,0.25,53,132.7
2587,C#3,364.5,0.25,62,132.7
2588,A2,364.5,11/40,58,132.7
2589,B2,364.5,1/40,53,132.7
2590,E3,364.75,0.25,53,132.7
2591,G#2,364.75,11/40,60,132.7
2592,C#3,365.0,0.25,62,132.7
2593,F#2,365.0,11/40,62,132.7
2594,E3,365.25,0.25,52,132.7
2595,E2,365.25,11/40,64,132.7
2596,A3,365.5,0.5,58,132.7
2597,D2,365.5,37/200,66,132.7
2598,C#2,365.669,183/1000,67,132.7
2599,B1,365.833,167/1000,68,132.7
2600,E3,366.0,0.25,62,132.7
2601,A1,366.0,1.5,66,132.7
2602,A3,366.25,0.25,53,132.7
2603,E3,366.5,0.25,62,132.7
2604,A3,366.75,0.25,52,132.7
2605,C#4,367.0,0.5,58,132.7
2606,A3,367.5,0.25,62,132.7
2607,A1,367.5,1.5,61,132.7
2608,A2,367.5,1.5,61,132.7
2609,C#4,367.75,0.25,53,132.7
2610,A3,368.0,0.25,62,132.7
2611,C#4,368.25,0.25,52,132.7
2612,E4,368.5,0.5,58,132.7
2613,C#4,369.0,0.25,62,132.7
2614,A2,369.0,1.5,57,132.7
2615,A1,369.0,1.5,57,132.7
2616,E4,369.25,0.25,53,132.7
2617,C#4,369.5,0.25,62,132.7
2618,E4,369.75,0.25,52,132.7
2619,A4,370.0,0.5,58,132.7
2620,E4,370.5,0.25,62,132.7
2621,A2,370.5,1.5,57,132.7
2622,A1,370.5,1.5,57,132.7
2623,A4,370.75,0.25,53,132.7
2624,E4,371.0,0.25,62,132.7
2625,A4,371.25,0.25,52,132.7
2626,C#5,371.5,0.5,58,132.7
2627,A4,372.0,0.25,58,132.7
2628,A1,372.0,1.5,59,132.7
2629,A2,372.0,1.5,59,132.7
2630,C#5,372.25,0.25,46,132.7
2631,A4,372.5,0.25,56,132.7
2632,C#5,372.75,0.25,45,132.7
2633,E5,373.0,0.5,58,132.7
2634,B4,373.5,0.25,49,132.7
2635,C#3,373.5,1.5,57,132.7
2636,E3,373.5,1.5,57,132.7
2637,A2,373.5,1.5,57,132.7
2638,D5,373.75,0.25,42,132.7
2639,B4,374.0,0.25,49,132.7
2640,D5,374.25,0.25,41,132.7
2641,B5,374.5,0.5,54,132.7
2642,C5,375.0,0.25,49,132.7
2643,A3,375.0,1.5,56,132.7
2644,E3,375.0,1.5,56,132.7
2645,C#3,375.0,1.5,56,132.7
2646,A2,375.0,1.5,56,132.7
2647,E-5,375.25,0.25,42,132.7
2648,C5,375.5,0.25,49,132.7
2649,E-5,375.75,0.25,41,132.7
2650,C6,376.0,0.25,54,132.7
2651,E-5,376.5,0.25,49,132.7
2652,E3,376.5,1.5,46,132.7
2653,G#3,376.5,1.5,46,132.7
2654,B3,376.5,1.5,46,132.7
2655,C6,376.75,0.25,42,132.7
2656,E-5,377.0,0.25,49,132.7
2657,C6,377.25,0.25,41,132.7
2658,E-6,377.5,0.25,56,132.7
2659,C#5,378.0,0.25,49,132.7
2660,E-3,378.0,1.5,43,132.7
2661,B-5,378.25,0.25,42,132.7
2662,C#5,378.5,0.25,49,132.7
2663,B-5,378.75,0.25,41,132.7
2664,C#6,379.0,0.25,55,132.7
2665,G#3,379.0,0.25,31,132.7
2666,C4,379.0,0.25,31,132.7
2667,B-4,379.5,0.25,49,132.7
2668,E-3,379.5,1.5,43,132.7
2669,G5,379.75,0.25,42,132.7
2670,B-4,380.0,0.25,49,132.7
2671,G5,380.25,0.25,41,132.7
2672,B-5,380.5,0.25,55,132.7
2673,E-4,380.5,0.25,31,132.7
2674,C4,380.5,0.25,31,132.7
2675,C5,381.0,0.25,49,132.7
2676,E-3,381.0,1.5,43,132.7
2677,E-5,381.25,0.25,42,132.7
2678,C5,381.5,0.25,49,132.7
2679,E-5,381.75,0.25,41,132.7
2680,C6,382.0,0.25,56,132.7
2681,B-3,382.0,0.25,31,132.7
2682,C#4,382.0,0.25,31,132.7
2683,G#5,382.5,0.25,57,132.7
2684,E-3,382.5,1.5,43,132.7
2685,E-6,382.75,0.25,47,132.7
2686,G#5,383.0,0.25,56,132.7
2687,E-6,383.25,0.25,49,132.7
2688,G#6,383.5,0.25,59,132.7
2689,G3,383.5,0.25,31,132.7
2690,B-3,383.5,0.25,31,132.7
2691,G5,384.0,0.25,58,132.7
2692,E-3,384.0,1.5,43,132.7
2693,C#6,384.25,0.25,50,132.7
2694,G5,384.5,0.25,58,132.7
2695,C#6,384.75,0.25,49,132.7
2696,G6,385.0,0.25,65,132.7
2697,G#3,385.0,0.25,31,132.7
2698,C4,385.0,0.25,31,132.7
2699,C#5,385.5,0.25,58,132.7
2700,E-3,385.5,1.5,43,132.7
2701,G5,385.75,0.25,50,132.7
2702,C#5,386.0,0.25,58,132.7
2703,G5,386.25,0.25,49,132.7
2704,C#6,386.5,0.25,66,132.7
2705,C4,386.5,0.25,31,132.7
2706,E-4,386.5,0.25,31,132.7
2707,C5,387.0,0.25,58,132.7
2708,E-3,387.0,1.5,56,132.7
2709,G#5,387.25,0.25,50,132.7
2710,C5,387.5,0.25,58,132.7
2711,G#5,387.75,0.25,49,132.7
2712,C6,388.0,0.25,66,132.7
2713,C#4,388.0,0.25,40,132.7
2714,B-3,388.0,0.25,40,132.7
2715,E-6,388.5,0.25,72,132.7
2716,E-3,388.5,1.5,56,132.7
2717,C7,388.75,0.25,64,132.7
2718,E-6,389.0,0.25,73,132.7
2719,C7,389.25,0.25,64,132.7
2720,E-7,389.5,0.25,78,132.7
2721,G3,389.5,0.25,40,132.7
2722,B-3,389.5,0.25,40,132.7
2723,C#6,390.0,0.25,70,132.7
2724,E-3,390.0,1.5,56,132.7
2725,B-6,390.25,0.25,61,132.7
2726,C#6,390.5,0.25,71,132.7
2727,B-6,390.75,0.25,61,132.7
2728,C#7,391.0,0.25,78,132.7
2729,C4,391.0,0.25,40,132.7
2730,G#3,391.0,0.25,40,132.7
2731,B-5,391.5,0.25,69,132.7
2732,C3,391.5,1.5,56,132.7
2733,G6,391.75,0.25,60,132.7
2734,B-5,392.0,0.25,67,132.7
2735,G6,392.25,0.25,61,132.7
2736,B-6,392.5,0.25,75,132.7
2737,E-3,392.5,0.25,39,132.7
2738,A3,392.5,0.25,39,132.7
2739,F#3,392.5,0.25,39,132.7
2740,C4,392.5,0.25,39,132.7
2741,C5,393.0,0.25,49,132.7
2742,C#3,393.0,1.5,56,132.7
2743,G5,393.25,0.25,42,132.7
2744,C5,393.5,0.25,49,132.7
2745,G5,393.75,0.25,41,132.7
2746,C6,394.0,0.25,46,132.7
2747,F3,394.0,0.25,39,132.7
2748,B-3,394.0,0.25,39,132.7
2749,C#4,394.0,0.25,39,132.7
2750,C5,394.5,0.25,49,132.7
2751,E-3,394.5,1.5,56,132.7
2752,G5,394.75,0.25,42,132.7
2753,C5,395.0,0.25,49,132.7
2754,G5,395.25,0.25,41,132.7
2755,C6,395.5,0.25,46,132.7
2756,G3,395.5,0.25,40,132.7
2757,B-3,395.5,0.25,40,132.7
2758,G5,396.0,0.25,49,132.7
2759,E2,396.0,1.0,40,132.7
2760,C6,396.25,0.25,42,132.7
2761,G5,396.5,0.25,49,132.7
2762,C6,396.75,0.25,41,132.7
2763,G6,397.0,0.25,46,132.7
2764,E3,397.0,0.25,29,132.7
2765,C4,397.0,0.25,29,132.7
2766,G3,397.0,0.25,29,132.7
2767,C6,397.5,0.25,49,132.7
2768,E2,397.5,1.0,40,132.7
2769,G6,397.75,0.25,42,132.7
2770,C6,398.0,0.25,49,132.7
2771,G6,398.25,0.25,41,132.7
2772,C7,398.5,0.25,46,132.7
2773,C4,398.5,0.25,29,132.7
2774,G3,398.5,0.25,29,132.7
2775,E3,398.5,0.25,29,132.7
2776,C6,399.0,0.25,53,132.7
2777,E2,399.0,1.0,40,132.7
2778,E-6,399.25,0.25,46,132.7
2779,C6,399.5,0.25,58,132.7
2780,E-6,399.75,0.25,50,132.7
2781,G#6,400.0,0.25,61,132.7
2782,C4,400.0,0.25,29,132.7
2783,E3,400.0,0.25,29,132.7
2784,G3,400.0,0.25,29,132.7
2785,G6,400.25,0.25,49,132.7
2786,F6,400.5,0.25,64,132.7
2787,E2,400.5,1.0,40,132.7
2788,E-6,400.75,0.25,51,132.7
2789,C#6,401.0,0.25,52,132.7
2790,C6,401.25,0.25,51,132.7
2791,B-5,401.5,0.25,50,132.7
2792,G3,401.5,0.25,29,132.7
2793,E3,401.5,0.25,29,132.7
2794,C4,401.5,0.25,29,132.7
2795,G#5,401.75,0.25,49,132.7
2796,G5,402.0,0.25,47,132.7
2797,E-2,402.0,1.0,43,132.7
2798,F5,402.25,0.25,46,132.7
2799,E-5,402.5,0.25,45,132.7
2800,C#5,402.75,0.25,44,132.7
2801,C5,403.0,0.25,42,132.7
2802,E-3,403.0,0.5,27,132.7
2803,C4,403.0,0.5,27,132.7
2804,G#3,403.0,0.5,27,132.7
2805,B-4,403.25,0.25,41,132.7
2806,G#4,403.5,0.25,40,132.7
2807,E-3,403.5,1.5,27,132.7
2808,C4,403.5,1.5,27,132.7
2809,G#3,403.5,1.5,27,132.7
2810,G4,403.75,0.25,38,132.7
2811,F4,404.0,0.25,37,132.7
2812,E4,404.25,0.25,36,132.7
2813,E-4,404.5,0.5,34,132.7
2814,C5,405.0,0.25,58,132.7
2815,E-3,405.0,1.5,27,132.7
2816,C#4,405.0,1.5,30,132.7
2817,B-3,405.0,1.5,30,132.7
2818,G5,405.25,0.25,50,132.7
2819,C5,405.5,0.25,58,132.7
2820,G5,405.75,0.25,49,132.7
2821,C6,406.0,0.25,55,132.7
2822,C5,406.5,0.25,58,132.7
2823,E-3,406.5,1.5,27,132.7
2824,C#4,406.5,1.5,30,132.7
2825,B-3,406.5,1.5,30,132.7
2826,G5,406.75,0.25,50,132.7
2827,C5,407.0,0.25,58,132.7
2828,G5,407.25,0.25,49,132.7
2829,C6,407.5,0.25,55,132.7
2830,G5,408.0,0.25,58,132.7
2831,E2,408.0,0.5,48,132.7
2832,C6,408.25,0.25,50,132.7
2833,G5,408.5,0.25,58,132.7
2834,C6,408.75,0.25,49,132.7
2835,G6,409.0,0.25,55,132.7
2836,C4,409.0,0.25,34,132.7
2837,E3,409.0,0.25,34,132.7
2838,G3,409.0,0.25,34,132.7
2839,C6,409.5,0.25,58,132.7
2840,E2,409.5,0.5,48,132.7
2841,G6,409.75,0.25,50,132.7
2842,C6,410.0,0.25,58,132.7
2843,G6,410.25,0.25,49,132.7
2844,C7,410.5,0.25,55,132.7
2845,G3,410.5,0.25,34,132.7
2846,E3,410.5,0.25,34,132.7
2847,C4,410.5,0.25,34,132.7
2848,E-6,411.0,0.25,63,132.7
2849,E2,411.0,0.5,48,132.7
2850,G#6,411.25,0.25,55,132.7
2851,E-6,411.5,0.25,69,132.7
2852,G#6,411.75,0.25,60,132.7
2853,C7,412.0,0.25,73,132.7
2854,C4,412.0,0.25,34,132.7
2855,E3,412.0,0.25,34,132.7
2856,G3,412.0,0.25,34,132.7
2857,B-6,412.25,0.25,58,132.7
2858,G#6,412.5,0.25,76,132.7
2859,E2,412.5,0.5,48,132.7
2860,G6,412.75,0.25,61,132.7
2861,F6,413.0,0.25,62,132.7
2862,E-6,413.25,0.25,61,132.7
2863,C#6,413.5,0.25,60,132.7
2864,C4,413.5,0.25,34,132.7
2865,E3,413.5,0.25,34,132.7
2866,G3,413.5,0.25,34,132.7
2867,C6,413.75,0.25,58,132.7
2868,B-5,414.0,0.25,56,132.7
2869,E-2,414.0,0.5,51,132.7
2870,G#5,414.25,0.25,55,132.7
2871,G5,414.5,0.25,54,132.7
2872,F5,414.75,0.25,52,132.7
2873,E-5,415.0,0.25,50,132.7
2874,E-3,415.0,0.5,32,132.7
2875,G#3,415.0,0.5,32,132.7
2876,C4,415.0,0.5,32,132.7
2877,C#5,415.25,0.25,49,132.7
2878,C5,415.5,0.25,48,132.7
2879,E-3,415.5,1.5,32,132.7
2880,G#3,415.5,1.5,32,132.7
2881,C4,415.5,1.5,32,132.7
2882,B-4,415.75,0.25,45,132.7
2883,G#4,416.0,167/1000,44,132.7
2884,G4,416.167,167/1000,43,132.7
2885,F4,416.333,167/1000,42,132.7
2886,E-4,416.5,0.5,40,132.7
2887,C5,417.0,0.25,69,132.7
2888,E-3,417.0,1.5,32,132.7
2889,G3,417.0,1.5,35,132.7
2890,C#4,417.0,1.5,35,132.7
2891,G5,417.25,0.25,60,132.7
2892,C5,417.5,0.25,69,132.7
2893,G5,417.75,0.25,58,132.7
2894,C6,418.0,0.25,66,132.7
2895,C5,418.5,0.25,69,132.7
2896,E-3,418.5,1.5,32,132.7
2897,G3,418.5,1.5,35,132.7
2898,C#4,418.5,1.5,35,132.7
2899,G5,418.75,0.25,60,132.7
2900,C5,419.0,0.25,69,132.7
2901,G5,419.25,0.25,58,132.7
2902,C6,419.5,0.25,66,132.7
2903,G5,420.0,0.25,69,132.7
2904,E2,420.0,1.0,57,132.7
2905,C6,420.25,0.25,60,132.7
2906,G5,420.5,0.25,69,132.7
2907,C6,420.75,0.25,58,132.7
2908,G6,421.0,0.25,66,132.7
2909,E3,421.0,0.25,40,132.7
2910,C4,421.0,0.25,40,132.7
2911,G3,421.0,0.25,40,132.7
2912,C6,421.5,0.25,69,132.7
2913,E2,421.5,1.0,57,132.7
2914,G6,421.75,0.25,60,132.7
2915,C6,422.0,0.25,69,132.7
2916,G6,422.25,0.25,58,132.7
2917,C7,422.5,0.25,66,132.7
2918,G3,422.5,0.25,40,132.7
2919,C4,422.5,0.25,40,132.7
2920,E3,422.5,0.25,40,132.7
2921,G6,423.0,0.25,75,132.7
2922,E2,423.0,1.0,57,132.7
2923,C7,423.25,0.25,66,132.7
2924,G6,423.5,0.25,82,132.7
2925,C7,423.75,0.25,72,132.7
2926,E7,424.0,0.25,87,132.7
2927,C4,424.0,0.25,40,132.7
2928,E3,424.0,0.25,40,132.7
2929,G3,424.0,0.25,40,132.7
2930,D7,424.25,0.25,69,132.7
2931,C7,424.5,0.25,87,132.7
2932,E2,424.5,1.0,57,132.7
2933,B6,424.75,0.25,73,132.7
2934,A6,425.0,0.25,74,132.7
2935,G6,425.25,0.25,73,132.7
2936,F6,425.5,0.25,72,132.7
2937,C4,425.5,0.25,40,132.7
2938,E3,425.5,0.25,40,132.7
2939,G3,425.5,0.25,40,132.7
2940,E6,425.75,0.25,69,132.7
2941,D6,426.0,0.25,67,132.7
2942,G2,426.0,1.0,61,132.7
2943,C6,426.25,0.25,66,132.7
2944,B5,426.5,0.25,64,132.7
2945,A5,426.75,0.25,62,132.7
2946,G5,427.0,169/1000,60,132.7
2947,C4,427.0,0.5,38,132.7
2948,E3,427.0,0.5,38,132.7
2949,G3,427.0,0.5,38,132.7
2950,F5,427.169,167/1000,58,132.7
2951,E5,427.333,167/1000,57,132.7
2952,D5,427.5,0.25,54,132.7
2953,C5,427.75,0.25,52,132.7
2954,B4,428.0,0.25,51,132.7
2955,A4,428.25,0.25,51,132.7
2956,G4,428.5,0.5,48,132.7
2957,G#6,429.0,0.25,76,132.7
2958,C4,429.0,1.5,38,132.7
2959,E3,429.0,1.5,38,132.7
2960,G3,429.0,1.5,38,132.7
2961,C7,429.25,0.25,66,132.7
2962,G#6,429.5,0.25,71,132.7
2963,C7,429.75,0.25,68,132.7
2964,E-7,430.0,0.25,77,132.7
2965,C#7,430.25,0.25,69,132.7
2966,C7,430.5,0.25,82,132.7
2967,F3,430.5,1.5,40,132.7
2968,B3,430.5,1.5,40,132.7
2969,G3,430.5,1.5,40,132.7
2970,B-6,430.75,0.25,71,132.7
2971,G#6,431.0,0.25,80,132.7
2972,G6,431.25,0.25,78,132.7
2973,F6,431.5,0.25,77,132.7
2974,E-6,431.75,0.25,75,132.7
2975,C#6,432.0,0.25,74,132.7
2976,C6,432.25,0.25,72,132.7
2977,B-5,432.5,0.25,70,132.7
2978,G#5,432.75,0.25,69,132.7
2979,G5,433.0,0.25,67,132.7
2980,F5,433.25,0.25,66,132.7
2981,E-5,433.5,167/1000,64,132.7
2982,F3,433.5,1.5,40,132.7
2983,B3,433.5,1.5,40,132.7
2984,G3,433.5,1.5,40,132.7
2985,C#5,433.667,167/1000,61,132.7
2986,C5,433.833,167/1000,63,132.7
2987,B-4,434.0,169/1000,65,132.7
2988,G#4,434.169,167/1000,66,132.7
2989,G4,434.333,167/1000,68,132.7
2990,F4,434.5,1/10,69,132.7
2991,E-4,434.6,1/10,70,132.7
2992,C#4,434.7,1/10,71,132.7
2993,C4,434.8,1/10,72,132.7
2994,B-3,434.9,1/10,73,132.7
2995,G#3,435.0,0.5,90,132.7
2996,E-2,435.0,0.5,67,132.7
2997,G#4,435.5,11/40,77,132.7
2998,C5,435.75,11/40,68,132.7
2999,E-5,436.0,11/40,77,132.7
3000,E-3,436.0,0.5,51,132.7
3001,C4,436.0,0.5,56,132.7
3002,G#3,436.0,0.5,56,132.7
3003,C#5,436.25,0.25,74,132.7
3004,C5,436.5,11/40,74,132.7
3005,C#5,436.5,1/40,74,132.7
3006,E-3,436.5,1.5,51,132.7
3007,C4,436.5,1.5,56,132.7
3008,G#3,436.5,1.5,56,132.7
3009,B-4,436.75,11/40,73,132.7
3010,G#4,437.0,11/40,72,132.7
3011,G4,437.25,11/40,71,132.7
3012,F4,437.5,11/40,70,132.7
3013,E-4,437.75,0.25,69,132.7
3014,C#4,438.0,11/40,68,132.7
3015,E-4,438.0,1/40,69,132.7
3016,G3,438.0,1.5,51,132.7
3017,E-3,438.0,2.5,51,132.7
3018,C#4,438.0,1.5,56,132.7
3019,B-3,438.0,1.5,56,132.7
3020,C4,438.25,11/40,67,132.7
3021,B-3,438.5,11/40,66,132.7
3022,G#3,438.75,11/40,64,132.7
3023,G3,439.0,11/40,63,132.7
3024,F3,439.25,0.25,62,132.7
3025,E-3,439.5,11/40,61,132.7
3026,F3,439.5,1/40,62,132.7
3027,F3,439.75,11/40,65,132.7
3028,E-3,440.0,11/40,67,132.7
3029,C#3,440.25,11/40,69,132.7
3030,C3,440.5,11/40,71,132.7
3031,G3,440.5,1.5,51,132.7
3032,C#4,440.5,1.0,56,132.7
3033,B-3,440.5,1.0,56,132.7
3034,B-2,440.75,0.25,73,132.7
3035,G#2,441.0,0.25,78,132.7
3036,B-2,441.0,1/40,73,132.7
3037,C3,441.25,0.25,67,132.7
3038,G#2,441.5,0.25,78,132.7
3039,C3,441.75,0.25,65,132.7
3040,E-3,442.0,0.25,73,132.7
3041,G#2,442.0,0.5,83,132.7
3042,G#2,442.5,0.25,78,132.7
3043,G#3,442.5,11/40,61,132.7
3044,C3,442.75,0.25,67,132.7
3045,C4,442.75,11/40,53,132.7
3046,G#2,443.0,0.25,78,132.7
3047,E-4,443.0,11/40,61,132.7
3048,C3,443.25,0.25,65,132.7
3049,C#4,443.25,0.25,59,132.7
3050,E-3,443.5,0.25,73,132.7
3051,C4,443.5,11/40,59,132.7
3052,C#4,443.5,1/40,59,132.7
3053,B-3,443.75,11/40,58,132.7
3054,G#2,444.0,0.25,78,132.7
3055,G#3,444.0,11/40,57,132.7
3056,C3,444.25,0.25,67,132.7
3057,G3,444.25,11/40,57,132.7
3058,G#2,444.5,0.25,78,132.7
3059,F3,444.5,11/40,56,132.7
3060,C3,444.75,0.25,65,132.7
3061,E-3,444.75,0.25,55,132.7
3062,E-3,445.0,0.25,73,132.7
3063,C#3,445.0,11/40,53,132.7
3064,E-3,445.0,1/40,55,132.7
3065,C3,445.25,11/40,52,132.7
3066,G#2,445.5,0.25,78,132.7
3067,B-2,445.5,11/40,52,132.7
3068,C3,445.75,0.25,67,132.7
3069,G#2,445.75,11/40,51,132.7
3070,G#2,446.0,0.25,78,132.7
3071,G2,446.0,11/40,50,132.7
3072,C3,446.25,0.25,65,132.7
3073,F2,446.25,0.25,49,132.7
3074,E-3,446.5,0.25,73,132.7
3075,E-2,446.5,11/40,48,132.7
3076,F2,446.5,1/40,49,132.7
3077,F2,446.75,11/40,50,132.7
3078,G#2,447.0,0.25,70,132.7
3079,E-2,447.0,11/40,53,132.7
3080,C3,447.25,0.25,59,132.7
3081,C#2,447.25,11/40,55,132.7
3082,G#2,447.5,0.25,67,132.7
3083,C2,447.5,11/40,57,132.7
3084,C3,447.75,0.25,55,132.7
3085,B-1,447.75,0.25,59,132.7
3086,E-3,448.0,0.25,61,132.7
3087,G#1,448.0,0.25,62,132.7
3088,B-1,448.0,1/40,59,132.7
3089,C2,448.25,0.25,53,132.7
3090,C3,448.5,0.25,62,132.7
3091,G#1,448.5,0.25,62,132.7
3092,E-3,448.75,0.25,52,132.7
3093,C2,448.75,0.25,52,132.7
3094,C3,449.0,0.25,60,132.7
3095,E-2,449.0,0.25,58,132.7
3096,E-3,449.25,0.25,48,132.7
3097,G#3,449.5,0.25,54,132.7
3098,G#1,449.5,0.25,62,132.7
3099,C2,449.75,0.25,53,132.7
3100,E-3,450.0,0.25,54,132.7
3101,G#1,450.0,0.25,62,132.7
3102,G#3,450.25,0.25,46,132.7
3103,C2,450.25,0.25,52,132.7
3104,E-3,450.5,0.25,52,132.7
3105,E-2,450.5,0.25,58,132.7
3106,G#3,450.75,0.25,42,132.7
3107,C4,451.0,0.25,46,132.7
3108,G#1,451.0,0.25,62,132.7
3109,C2,451.25,0.25,53,132.7
3110,G#3,451.5,0.25,46,132.7
3111,G#1,451.5,0.25,62,132.7
3112,C4,451.75,0.25,39,132.7
3113,C2,451.75,0.25,52,132.7
3114,G#3,452.0,0.25,44,132.7
3115,E-2,452.0,0.25,58,132.7
3116,C4,452.25,0.25,35,132.7
3117,E-4,452.5,0.25,39,132.7
3118,G#1,452.5,0.25,62,132.7
3119,C2,452.75,0.25,53,132.7
3120,G#3,453.0,0.25,46,132.7
3121,G#1,453.0,0.25,62,132.7
3122,C4,453.25,0.25,39,132.7
3123,C2,453.25,0.25,52,132.7
3124,G#3,453.5,0.25,46,132.7
3125,E-2,453.5,0.25,58,132.7
3126,C4,453.75,0.25,39,132.7
3127,E-4,454.0,0.25,46,132.7
3128,G#1,454.0,0.5,55,132.7
3129,C#4,454.25,0.25,46,132.7
3130,C4,454.5,11/40,42,132.7
3131,C4,459.5,11/40,47,132.7
3132,C#4,459.75,11/40,50,132.7
3133,E-4,460.0,11/40,52,132.7
3134,E4,460.25,229/1000,55,132.7
3135,B-3,460.5,1.5,58,132.7
3136,C#4,460.5,1.5,58,132.7
3137,E4,460.5,1.5,58,132.7
3138,B-3,461.75,11/40,45,132.7
3139,G#3,462.0,11/40,45,132.7
3140,G3,462.25,11/40,44,132.7
3141,F3,462.5,11/40,44,132.7
3142,E-3,462.75,0.25,43,132.7
3143,C#3,463.0,11/40,43,132.7
3144,E-3,463.0,1/40,43,132.7
3145,C3,463.25,11/40,42,132.7
3146,B-2,463.5,11/40,41,132.7
3147,G#2,463.75,11/40,41,132.7
3148,G2,464.0,11/40,40,132.7
3149,G#2,464.25,0.25,40,132.7
3150,B-2,464.5,11/40,40,132.7
3151,G#2,464.5,1/40,40,132.7
3152,C3,464.75,11/40,41,132.7
3153,C#3,465.0,11/40,41,132.7
3154,E-3,465.25,11/40,42,132.7
3155,F3,465.5,11/40,43,132.7
3156,G3,465.75,0.25,44,132.7
3157,G#3,466.0,11/40,45,132.7
3158,G3,466.0,1/40,44,132.7
3159,B-3,466.25,0.25,46,132.7
3160,B-3,466.5,1.5,58,132.7
3161,C#4,466.5,1.5,58,132.7
3162,E4,466.5,1.5,58,132.7
3163,G2,469.0,0.25,70,132.7
3164,B-2,469.25,0.25,55,132.7
3165,G2,469.5,0.25,65,132.7
3166,B-2,469.75,0.25,56,132.7
3167,C#3,470.0,0.25,65,132.7
3168,G2,470.5,0.25,71,132.7
3169,B-2,470.75,0.25,54,132.7
3170,G2,471.0,0.25,63,132.7
3171,B-3,471.0,1.5,58,132.7
3172,C#4,471.0,1.5,58,132.7
3173,E4,471.0,1.5,58,132.7
3174,B-2,471.25,0.25,54,132.7
3175,C#3,471.5,0.25,66,132.7
3176,G2,472.0,0.25,71,132.7
3177,B-2,472.25,0.25,62,132.7
3178,G2,472.5,0.25,66,132.7
3179,B-2,472.75,0.25,54,132.7
3180,C#3,473.0,0.25,65,132.7
3181,B-3,474.0,1.5,58,132.7
3182,C#4,474.0,1.5,58,132.7
3183,E4,474.0,1.5,58,132.7
3184,G#4,477.0,0.25,46,132.7
3185,C5,477.25,0.25,39,132.7
3186,G#4,477.5,0.25,46,132.7
3187,C5,477.75,0.25,39,132.7
3188,E-5,478.0,0.25,46,132.7
3189,C#5,478.25,0.25,43,132.7
3190,C5,478.5,11/40,45,132.7
3191,B-4,478.75,0.25,45,132.7
3192,G#4,479.0,0.25,44,132.7
3193,G4,479.25,0.25,44,132.7
3194,F4,479.5,0.25,43,132.7
3195,E-4,479.75,0.25,42,132.7
3196,C#4,480.0,0.25,42,132.7
3197,C4,480.25,0.25,41,132.7
3198,B-3,480.5,0.25,41,132.7
3199,G#3,480.75,0.25,40,132.7
3200,G3,481.0,0.25,40,132.7
3201,G#3,481.25,0.25,40,132.7
3202,B-3,481.5,0.25,41,132.7
3203,C4,481.75,0.25,41,132.7
3204,C#4,482.0,0.25,42,132.7
3205,E-4,482.25,0.25,42,132.7
3206,F4,482.5,0.25,43,132.7
3207,G4,482.75,0.25,44,132.7
3208,G#4,483.0,0.25,44,132.7
3209,B-4,483.25,0.25,47,132.7
3210,C5,483.5,11/40,47,132.7
3211,C#5,483.75,11/40,50,132.7
3212,E-5,484.0,11/40,52,132.7
3213,G3,484.0,0.25,70,132.7
3214,E5,484.25,0.25,55,132.7
3215,B-3,484.25,0.25,55,132.7
3216,G3,484.5,0.25,65,132.7
3217,E5,484.5,1.5,58,132.7
3218,B-4,484.5,1.5,58,132.7
3219,C#5,484.5,1.5,58,132.7
3220,B-3,484.75,0.25,56,132.7
3221,C#4,485.0,0.25,65,132.7
3222,G3,485.5,0.25,71,132.7
3223,B-3,485.75,0.25,54,132.7
3224,G3,486.0,0.25,63,132.7
3225,B-3,486.25,0.25,54,132.7
3226,C#4,486.5,0.25,66,132.7
3227,G3,487.0,0.25,71,132.7
3228,B-3,487.25,0.25,62,132.7
3229,G3,487.5,0.25,66,132.7
3230,B-3,487.75,0.25,54,132.7
3231,C#4,488.0,0.25,65,132.7
3232,E5,490.5,1.5,58,132.7
3233,B-4,490.5,1.5,58,132.7
3234,C#5,490.5,1.5,58,132.7
3235,E5,495.0,1.5,58,132.7
3236,B-4,495.0,1.5,58,132.7
3237,C#5,495.0,1.5,58,132.7
3238,E4,496.0,0.25,42,132.7
3239,G4,496.25,0.25,33,132.7
3240,E4,496.5,0.25,39,132.7
3241,G4,496.75,0.25,33,132.7
3242,B-4,497.0,0.25,39,132.7
3243,E4,497.5,0.25,42,132.7
3244,G4,497.75,0.25,32,132.7
3245,E4,498.0,0.25,37,132.7
3246,E5,498.0,1.5,58,132.7
3247,B-4,498.0,1.5,58,132.7
3248,C#5,498.0,1.5,58,132.7
3249,G4,498.25,0.25,32,132.7
3250,B-4,498.5,0.25,39,132.7
3251,G5,501.0,0.25,42,132.7
3252,B-5,501.25,0.25,43,132.7
3253,C#6,501.5,0.25,45,132.7
3254,C6,501.75,0.25,46,132.7
3255,B-5,502.0,0.25,47,132.7
3256,G#5,502.25,0.25,46,132.7
3257,G5,502.5,0.25,45,132.7
3258,F5,502.75,0.25,45,132.7
3259,E5,503.0,0.25,44,132.7
3260,C#5,503.25,0.25,43,132.7
3261,C5,503.5,0.25,42,132.7
3262,C#5,503.75,0.25,41,132.7
3263,E5,504.0,0.25,43,132.7
3264,F5,504.25,0.25,45,132.7
3265,G5,504.5,0.25,47,132.7
3266,G#5,504.75,0.25,48,132.7
3267,B-5,505.0,0.25,49,132.7
3268,C6,505.25,0.25,49,132.7
3269,C#6,505.5,1.5,53,132.7
3270,B-5,505.5,1.5,53,132.7
3271,G5,505.5,1.5,53,132.7
3272,C5,506.5,0.25,42,132.7
3273,G5,506.75,0.25,33,132.7
3274,C5,507.0,0.25,39,132.7
3275,G5,507.25,0.25,33,132.7
3276,B-5,507.5,0.25,39,132.7
3277,C5,508.0,0.25,42,132.7
3278,G5,508.25,0.25,32,132.7
3279,C5,508.5,0.25,37,132.7
3280,G5,508.75,0.25,32,132.7
3281,B-5,509.0,0.25,39,132.7
3282,C#6,510.0,1.5,53,132.7
3283,B-5,510.0,1.5,53,132.7
3284,G5,510.0,1.5,53,132.7
3285,C4,512.5,0.25,35,132.7
3286,G#4,512.75,0.25,28,132.7
3287,C4,513.0,0.25,33,132.7
3288,C#6,513.0,1.5,53,132.7
3289,B-5,513.0,1.5,53,132.7
3290,G5,513.0,1.5,53,132.7
3291,G#4,513.25,0.25,28,132.7
3292,B4,513.5,0.25,33,132.7
3293,C4,514.0,0.25,35,132.7
3294,G#4,514.25,0.25,27,132.7
3295,C4,514.5,0.25,31,132.7
3296,G#4,514.75,0.25,27,132.7
3297,B4,515.0,0.25,33,132.7
3298,E6,516.0,0.25,42,132.7
3299,G6,516.25,0.25,43,132.7
3300,B-6,516.5,0.25,45,132.7
3301,G#6,516.75,0.25,46,132.7
3302,G6,517.0,0.25,47,132.7
3303,F6,517.25,0.25,46,132.7
3304,E6,517.5,0.25,45,132.7
3305,C#6,517.75,0.25,45,132.7
3306,C6,518.0,0.25,44,132.7
3307,B-5,518.25,0.25,43,132.7
3308,A5,518.5,0.25,42,132.7
3309,C3,518.5,0.25,28,132.7
3310,B-5,518.75,0.25,41,132.7
3311,G3,518.75,0.25,22,132.7
3312,C6,519.0,0.25,43,132.7
3313,C3,519.0,0.25,26,132.7
3314,C#6,519.25,0.25,45,132.7
3315,G3,519.25,0.25,22,132.7
3316,E6,519.5,0.25,47,132.7
3317,C4,519.5,0.5,26,132.7
3318,F6,519.75,0.25,48,132.7
3319,G6,520.0,0.25,49,132.7
3320,C3,520.0,0.25,28,132.7
3321,G#6,520.25,0.25,49,132.7
3322,G3,520.25,0.25,21,132.7
3323,C3,520.5,0.25,24,132.7
3324,E6,520.5,1.5,53,132.7
3325,G6,520.5,1.5,53,132.7
3326,B-6,520.5,1.5,53,132.7
3327,G3,520.75,0.25,21,132.7
3328,C4,521.0,0.5,26,132.7
3329,C3,524.5,0.125,47,132.7
3330,C4,525.0,0.125,39,132.7
3331,E6,525.0,1.5,53,132.7
3332,G6,525.0,1.5,53,132.7
3333,B-6,525.0,1.5,53,132.7
3334,C3,525.5,0.125,47,132.7
3335,C4,526.0,0.125,39,132.7
3336,C3,526.5,0.125,47,132.7
3337,C4,527.0,0.125,43,132.7
3338,E3,527.5,0.125,32,132.7
3339,C3,527.5,0.125,32,132.7
3340,C4,528.0,0.125,30,132.7
3341,E6,528.0,1.5,53,132.7
3342,G6,528.0,1.5,53,132.7
3343,B-6,528.0,1.5,53,132.7
3344,E3,528.5,0.125,28,132.7
3345,C3,528.5,0.125,28,132.7
3346,C4,529.0,0.125,35,132.7
3347,E3,529.5,0.125,28,132.7
3348,C3,529.5,0.125,28,132.7
3349,C4,530.0,0.125,31,132.7
3350,C#3,530.5,0.125,32,132.7
3351,F3,530.5,0.125,32,132.7
3352,C4,531.0,0.125,30,132.7
3353,F5,531.0,1.5,48,132.7
3354,G#5,531.0,1.5,48,132.7
3355,B5,531.0,1.5,48,132.7
3356,F3,531.5,0.125,28,132.7
3357,C#3,531.5,0.125,28,132.7
3358,C4,532.0,0.125,35,132.7
3359,C#3,532.5,0.125,28,132.7
3360,F3,532.5,0.125,28,132.7
3361,C4,533.0,0.125,31,132.7
3362,G3,533.5,0.125,32,132.7
3363,E3,533.5,0.125,32,132.7
3364,C4,534.0,0.125,30,132.7
3365,E3,534.5,0.125,28,132.7
3366,G3,534.5,0.125,28,132.7
3367,G#3,535.0,0.125,32,132.7
3368,F3,535.0,0.125,32,132.7
3369,C4,535.5,0.125,30,132.7
3370,F5,535.5,1.5,48,132.7
3371,G#5,535.5,1.5,48,132.7
3372,B5,535.5,1.5,48,132.7
3373,F3,536.0,0.125,28,132.7
3374,G#3,536.0,0.125,28,132.7
3375,B-3,536.5,0.125,30,132.7
3376,G3,536.5,0.125,30,132.7
3377,G3,537.0,0.125,32,132.7
3378,B-3,537.0,0.125,32,132.7
3379,C4,537.0,0.125,32,132.7
3380,G3,537.5,0.125,36,132.7
3381,C#4,537.5,0.125,36,132.7
3382,B-3,537.5,0.125,36,132.7
3383,G3,538.0,0.125,38,132.7
3384,B-3,538.0,0.125,38,132.7
3385,D4,538.0,0.125,38,132.7
3386,F5,538.5,1.5,48,132.7
3387,G#5,538.5,1.5,48,132.7
3388,B5,538.5,1.5,48,132.7
3389,E-4,538.5,0.125,36,132.7
3390,G3,538.5,0.125,36,132.7
3391,B-3,538.5,0.125,36,132.7
3392,G3,539.0,0.125,34,132.7
3393,E4,539.0,0.125,34,132.7
3394,B-3,539.0,0.125,34,132.7
3395,F3,539.5,0.125,35,132.7
3396,C4,540.0,0.125,27,132.7
3397,F4,540.0,0.125,27,132.7
3398,G#3,540.0,0.125,27,132.7
3399,F3,540.5,0.125,30,132.7
3400,C4,541.0,0.125,31,132.7
3401,F4,541.0,0.125,31,132.7
3402,G#3,541.0,0.125,31,132.7
3403,F3,541.5,0.125,31,132.7
3404,C5,541.5,1.5,38,132.7
3405,G4,541.5,1.5,38,132.7
3406,E4,541.5,1.5,38,132.7
3407,F4,542.0,0.125,28,132.7
3408,C4,542.0,0.125,28,132.7
3409,G#3,542.0,0.125,28,132.7
3410,F3,542.5,0.125,35,132.7
3411,D4,543.0,0.125,28,132.7
3412,B3,543.0,0.125,28,132.7
3413,G#3,543.0,0.125,28,132.7
3414,F3,543.5,0.125,31,132.7
3415,C3,544.0,0.125,35,132.7
3416,C4,544.5,0.125,29,132.7
3417,E3,544.5,0.125,29,132.7
3418,G3,544.5,0.125,29,132.7
3419,C3,545.0,0.125,32,132.7
3420,C4,545.5,0.125,31,132.7
3421,G3,545.5,0.125,31,132.7
3422,E3,545.5,0.125,31,132.7
3423,C3,546.0,0.125,31,132.7
3424,C5,546.0,1.5,38,132.7
3425,G4,546.0,1.5,38,132.7
3426,E4,546.0,1.5,38,132.7
3427,G3,546.5,0.125,28,132.7
3428,E3,546.5,0.125,28,132.7
3429,C4,546.5,0.125,28,132.7
3430,C#3,547.0,0.125,35,132.7
3431,F3,547.5,0.125,28,132.7
3432,C#4,547.5,0.125,28,132.7
3433,C#3,548.0,0.125,31,132.7
3434,B-2,548.5,0.5,35,132.7
3435,C5,549.0,1.5,38,132.7
3436,G4,549.0,1.5,38,132.7
3437,E4,549.0,1.5,38,132.7
3438,G3,549.0,0.5,30,132.7
3439,B-3,549.0,0.5,30,132.7
3440,C3,549.5,0.25,30,132.7
3441,B-3,549.5,0.25,30,132.7
3442,G3,549.5,0.25,30,132.7
3443,F3,550.0,1.0,37,132.7
3444,G#3,550.0,1.0,37,132.7
3445,C5,550.5,0.125,51,132.7
3446,C4,551.0,0.125,43,132.7
3447,C5,551.5,0.125,51,132.7
3448,F3,551.5,0.125,35,132.7
3449,C4,552.0,0.125,44,132.7
3450,C4,552.0,0.125,27,132.7
3451,G#3,552.0,0.125,27,132.7
3452,F4,552.0,0.125,27,132.7
3453,C5,552.5,0.125,51,132.7
3454,F3,552.5,0.125,30,132.7
3455,C4,553.0,0.125,42,132.7
3456,F4,553.0,0.125,31,132.7
3457,G#3,553.0,0.125,31,132.7
3458,C4,553.0,0.125,31,132.7
3459,F3,553.5,0.125,31,132.7
3460,G#3,554.0,0.125,28,132.7
3461,C4,554.0,0.125,28,132.7
3462,F4,554.0,0.125,28,132.7
3463,F3,554.5,0.125,35,132.7
3464,B3,555.0,0.125,28,132.7
3465,D4,555.0,0.125,28,132.7
3466,G#3,555.0,0.125,28,132.7
3467,F3,555.5,0.125,31,132.7
3468,C3,556.0,0.125,35,132.7
3469,C#5,556.5,0.125,40,132.7
3470,E3,556.5,0.125,29,132.7
3471,C4,556.5,0.125,29,132.7
3472,G3,556.5,0.125,29,132.7
3473,C5,556.625,0.125,51,132.7
3474,C5,557.0,0.25,45,132.7
3475,C3,557.0,0.125,32,132.7
3476,C#5,557.25,0.25,39,132.7
3477,C5,557.5,0.125,46,132.7
3478,E3,557.5,0.125,31,132.7
3479,C4,557.5,0.125,31,132.7
3480,G3,557.5,0.125,31,132.7
3481,C5,558.0,0.125,49,132.7
3482,C3,558.0,0.125,31,132.7
3483,C5,558.5,0.125,44,132.7
3484,C4,558.5,0.125,28,132.7
3485,E3,558.5,0.125,28,132.7
3486,G3,558.5,0.125,28,132.7
3487,C5,559.0,0.125,42,132.7
3488,C#3,559.0,0.125,35,132.7
3489,C#5,559.5,0.125,40,132.7
3490,C#4,559.5,0.125,28,132.7
3491,F3,559.5,0.125,28,132.7
3492,C5,559.625,0.125,51,132.7
3493,C5,560.0,0.25,45,132.7
3494,C#3,560.0,0.125,31,132.7
3495,C#5,560.25,0.25,39,132.7
3496,C5,560.5,0.125,46,132.7
3497,B-2,560.5,0.5,35,132.7
3498,C5,561.0,0.125,49,132.7
3499,B-3,561.0,0.5,30,132.7
3500,G3,561.0,0.5,30,132.7
3501,C5,561.5,0.125,44,132.7
3502,G3,561.5,0.5,30,132.7
3503,C3,561.5,0.5,30,132.7
3504,B-3,561.5,0.5,30,132.7
3505,C5,562.0,0.125,42,132.7
3506,G#3,562.0,1.0,37,132.7
3507,F3,562.0,1.0,37,132.7
3508,C#5,562.5,0.125,40,132.7
3509,C5,562.625,0.125,51,132.7
3510,C5,563.0,0.25,45,132.7
3511,C#5,563.25,0.25,39,132.7
3512,C5,563.5,0.125,46,132.7
3513,C2,563.5,0.125,60,132.7
3514,C#5,564.0,0.125,40,132.7
3515,C3,564.0,0.125,55,132.7
3516,C5,564.125,0.125,51,132.7
3517,C5,564.5,0.25,45,132.7
3518,C2,564.5,0.125,60,132.7
3519,C#5,564.75,0.25,39,132.7
3520,C5,565.0,0.125,46,132.7
3521,C3,565.0,0.125,53,132.7
3522,C5,565.5,0.125,51,132.7
3523,C2,565.5,0.125,60,132.7
3524,C5,566.0,0.125,52,132.7
3525,C3,566.0,0.125,52,132.7
3526,C5,566.5,0.125,54,132.7
3527,C2,566.5,0.125,49,132.7
3528,C5,567.0,0.125,56,132.7
3529,C3,567.0,0.125,43,132.7
3530,C5,567.5,0.125,56,132.7
3531,C2,567.5,0.125,43,132.7
3532,C5,568.0,0.125,53,132.7
3533,C3,568.0,0.125,43,132.7
3534,C#5,568.5,0.125,40,132.7
3535,C2,568.5,0.125,41,132.7
3536,C5,568.625,0.125,51,132.7
3537,C5,569.0,0.25,45,132.7
3538,C3,569.0,0.125,43,132.7
3539,C#5,569.25,0.25,39,132.7
3540,C5,569.5,0.125,46,132.7
3541,C2,569.5,0.125,60,132.7
3542,C#5,570.0,0.125,40,132.7
3543,C3,570.0,0.125,55,132.7
3544,C5,570.125,0.125,49,132.7
3545,C5,570.5,0.25,44,132.7
3546,C2,570.5,0.5,60,132.7
3547,C#5,570.75,0.25,36,132.7
3548,C5,571.0,0.125,42,132.7
3549,C#2,571.0,0.5,60,132.7
3550,C5,571.5,0.25,40,132.7
3551,C#3,571.5,0.125,49,132.7
3552,B4,571.75,229/1000,52,132.7
3553,B4,572.0,0.25,47,132.7
3554,C#2,572.0,0.125,57,132.7
3555,D5,572.25,0.25,40,132.7
3556,C5,572.5,0.25,45,132.7
3557,C2,572.5,0.125,49,132.7
3558,B4,572.75,0.25,36,132.7
3559,C5,573.0,0.125,46,132.7
3560,C3,573.0,0.125,43,132.7
3561,G4,573.5,1.0,39,132.7
3562,C2,573.5,0.125,43,132.7
3563,F2,574.0,0.5,43,132.7
3564,C5,574.5,0.125,46,132.7
3565,G4,575.0,0.125,39,132.7
3566,C5,575.5,0.125,46,132.7
3567,C3,575.5,0.125,60,132.7
3568,B-4,576.0,0.5,46,132.7
3569,C4,576.0,0.125,55,132.7
3570,G#4,576.5,0.25,39,132.7
3571,C3,576.5,0.125,60,132.7
3572,G4,576.75,0.25,39,132.7
3573,F4,577.0,0.5,43,132.7
3574,C4,577.0,0.125,53,132.7
3575,G4,577.5,0.25,46,132.7
3576,C3,577.5,0.125,60,132.7
3577,B-4,577.75,0.25,38,132.7
3578,G4,578.0,0.25,46,132.7
3579,C4,578.0,0.125,52,132.7
3580,B-4,578.25,0.25,40,132.7
3581,E4,578.5,0.25,46,132.7
3582,B3,578.5,0.125,49,132.7
3583,G4,578.75,0.25,40,132.7
3584,F4,579.0,0.25,46,132.7
3585,B2,579.0,0.125,43,132.7
3586,G#4,579.25,0.25,37,132.7
3587,C5,579.5,0.25,42,132.7
3588,B3,579.5,0.125,43,132.7
3589,F5,579.75,0.25,47,132.7
3590,G#5,580.0,0.25,52,132.7
3591,C4,580.0,0.125,43,132.7
3592,B-5,580.25,0.25,57,132.7
3593,C6,580.5,0.125,65,132.7
3594,C3,580.5,0.125,41,132.7
3595,C6,581.0,0.25,54,132.7
3596,C4,581.0,0.125,43,132.7
3597,C#6,581.25,0.25,46,132.7
3598,C6,581.5,0.125,55,132.7
3599,C3,581.5,0.125,60,132.7
3600,C#6,582.0,0.125,48,132.7
3601,C4,582.0,0.125,55,132.7
3602,C6,582.125,0.125,64,132.7
3603,C6,582.5,0.25,52,132.7
3604,C3,582.5,0.5,60,132.7
3605,C#6,582.75,0.25,43,132.7
3606,C6,583.0,0.125,50,132.7
3607,C#3,583.0,0.5,60,132.7
3608,C6,583.5,0.25,61,132.7
3609,C#4,583.5,0.125,49,132.7
3610,B5,583.75,0.25,48,132.7
3611,F6,584.0,0.25,56,132.7
3612,C#3,584.0,0.125,57,132.7
3613,B5,584.25,0.25,48,132.7
3614,F6,584.5,0.25,54,132.7
3615,C#4,584.5,0.125,49,132.7
3616,B5,584.75,0.25,43,132.7
3617,C6,585.0,0.125,55,132.7
3618,C#3,585.0,0.125,43,132.7
3619,G5,585.5,0.5,46,132.7
3620,C#4,585.5,0.125,43,132.7
3621,C#3,586.0,0.25,43,132.7
3622,C6,586.5,0.125,57,132.7
3623,C#4,586.5,0.25,43,132.7
3624,G5,587.0,0.125,46,132.7
3625,C#3,587.0,0.25,43,132.7
3626,C6,587.5,0.125,55,132.7
3627,C#4,587.5,0.25,43,132.7
3628,B-5,588.0,0.5,55,132.7
3629,C#3,588.0,0.25,43,132.7
3630,G#5,588.5,0.25,46,132.7
3631,C#4,588.5,0.25,44,132.7
3632,G5,588.75,0.25,46,132.7
3633,F5,589.0,0.5,51,132.7
3634,C#3,589.0,0.25,45,132.7
3635,G5,589.5,0.25,55,132.7
3636,C#4,589.5,0.25,50,132.7
3637,B-5,589.75,0.25,45,132.7
3638,G5,590.0,0.25,55,132.7
3639,C#3,590.0,0.25,51,132.7
3640,B-5,590.25,0.25,48,132.7
3641,E5,590.5,0.25,55,132.7
3642,C3,590.5,0.25,51,132.7
3643,G5,590.75,0.25,48,132.7
3644,F5,591.0,0.5,55,132.7
3645,C4,591.0,0.25,53,132.7
3646,F4,591.5,0.25,68,132.7
3647,C3,591.5,0.25,57,132.7
3648,G4,591.75,0.25,69,132.7
3649,G#4,592.0,0.25,71,132.7
3650,F3,592.0,0.25,60,132.7
3651,B-4,592.25,0.25,73,132.7
3652,C5,592.5,0.125,74,132.7
3653,F3,592.5,1.0,54,132.7
3654,E4,592.5,1.0,54,132.7
3655,C#4,592.5,1.0,54,132.7
3656,B-3,592.5,1.0,54,132.7
3657,C4,593.0,0.125,68,132.7
3658,C5,593.5,0.125,75,132.7
3659,F3,593.5,1.5,54,132.7
3660,E4,593.5,1.5,54,132.7
3661,C#4,593.5,1.5,54,132.7
3662,B-3,593.5,1.5,54,132.7
3663,C4,594.0,0.125,60,132.7
3664,C5,594.5,0.125,74,132.7
3665,C4,595.0,0.125,60,132.7
3666,C4,595.0,0.25,54,132.7
3667,F3,595.0,0.25,54,132.7
3668,F4,595.0,0.25,54,132.7
3669,G#3,595.0,0.25,54,132.7
3670,G4,595.5,0.125,59,132.7
3671,B-4,595.5,0.125,59,132.7
3672,C#4,595.5,1.0,54,132.7
3673,F3,595.5,1.0,54,132.7
3674,B-3,595.5,1.0,54,132.7
3675,E4,595.5,1.0,54,132.7
3676,G#4,596.0,0.25,46,132.7
3677,F4,596.0,0.25,46,132.7
3678,G4,596.25,0.25,46,132.7
3679,E4,596.25,0.25,46,132.7
3680,G#4,596.5,0.25,46,132.7
3681,F4,596.5,0.25,46,132.7
3682,C#4,596.5,1.5,54,132.7
3683,F3,596.5,1.5,54,132.7
3684,B-3,596.5,1.5,54,132.7
3685,E4,596.5,1.5,54,132.7
3686,G4,596.75,0.25,46,132.7
3687,B-4,596.75,0.25,46,132.7
3688,G4,597.0,1.5,52,132.7
3689,E4,597.0,1.5,52,132.7
3690,G#3,598.0,0.25,54,132.7
3691,F3,598.0,0.25,54,132.7
3692,F4,598.0,0.25,54,132.7
3693,C4,598.0,0.25,54,132.7
3694,C5,598.5,0.125,74,132.7
3695,E4,598.5,1.0,54,132.7
3696,B-3,598.5,1.0,54,132.7
3697,F3,598.5,1.0,54,132.7
3698,C#4,598.5,1.0,54,132.7
3699,C4,599.0,0.125,68,132.7
3700,C5,599.5,0.5,75,132.7
3701,E4,599.5,1.5,54,132.7
3702,B-3,599.5,1.5,54,132.7
3703,F3,599.5,1.5,54,132.7
3704,C#4,599.5,1.5,54,132.7
3705,C#5,600.0,0.5,77,132.7
3706,C#4,600.5,0.125,62,132.7
3707,C#5,601.0,0.125,74,132.7
3708,C4,601.0,0.25,54,132.7
3709,F3,601.0,0.25,54,132.7
3710,F4,601.0,0.25,54,132.7
3711,G#3,601.0,0.25,54,132.7
3712,G#4,601.5,0.25,52,132.7
3713,C5,601.5,0.25,52,132.7
3714,C#4,601.5,1.0,54,132.7
3715,E4,601.5,1.0,54,132.7
3716,F3,601.5,1.0,54,132.7
3717,B-3,601.5,1.0,54,132.7
3718,B-4,601.75,0.25,46,132.7
3719,G4,601.75,0.25,46,132.7
3720,G#4,602.0,0.25,44,132.7
3721,F4,602.0,0.25,44,132.7
3722,B-4,602.25,0.25,42,132.7
3723,G4,602.25,0.25,42,132.7
3724,F4,602.5,0.25,40,132.7
3725,G#4,602.5,0.25,40,132.7
3726,C#4,602.5,1.5,54,132.7
3727,E4,602.5,1.5,54,132.7
3728,F3,602.5,1.5,54,132.7
3729,B-3,602.5,1.5,54,132.7
3730,E4,602.75,0.25,38,132.7
3731,G4,602.75,0.25,38,132.7
3732,F4,603.0,0.5,49,132.7
3733,F5,603.5,0.25,74,132.7
3734,G5,603.75,0.25,75,132.7
3735,G#5,604.0,0.25,78,132.7
3736,B-5,604.25,0.25,80,132.7
3737,C6,604.5,0.125,81,132.7
3738,C5,605.0,0.125,74,132.7
3739,C6,605.5,0.125,82,132.7
3740,C#4,605.5,1.5,54,132.7
3741,E4,605.5,1.5,54,132.7
3742,F3,605.5,1.5,54,132.7
3743,B-3,605.5,1.5,54,132.7
3744,C5,606.0,0.125,66,132.7
3745,C6,606.5,0.125,81,132.7
3746,C5,607.0,0.125,66,132.7
3747,F3,607.0,0.125,35,132.7
3748,B-5,607.5,0.125,64,132.7
3749,G5,607.5,0.125,64,132.7
3750,G#3,607.5,0.125,27,132.7
3751,C4,607.5,0.125,27,132.7
3752,F4,607.5,0.125,27,132.7
3753,F3,608.0,0.125,30,132.7
3754,F5,608.0,0.25,50,132.7
3755,G#5,608.0,0.25,50,132.7
3756,E5,608.25,0.25,50,132.7
3757,G5,608.25,0.25,50,132.7
3758,F5,608.5,0.25,50,132.7
3759,G#5,608.5,0.25,50,132.7
3760,F4,608.5,0.125,31,132.7
3761,C4,608.5,0.125,31,132.7
3762,G#3,608.5,0.125,31,132.7
3763,G5,608.75,0.25,50,132.7
3764,B-5,608.75,0.25,50,132.7
3765,F3,609.0,0.125,31,132.7
3766,G5,609.0,1.5,57,132.7
3767,E5,609.0,1.5,57,132.7
3768,F4,609.5,0.125,28,132.7
3769,G#3,609.5,0.125,28,132.7
3770,C4,609.5,0.125,28,132.7
3771,F3,610.0,0.125,35,132.7
3772,C6,610.5,0.125,81,132.7
3773,D4,610.5,0.125,28,132.7
3774,B3,610.5,0.125,28,132.7
3775,G#3,610.5,0.125,28,132.7
3776,C5,611.0,0.125,74,132.7
3777,F3,611.0,0.125,31,132.7
3778,C6,611.5,0.5,82,132.7
3779,C3,611.5,0.125,35,132.7
3780,C#6,612.0,0.5,84,132.7
3781,E3,612.0,0.125,29,132.7
3782,C4,612.0,0.125,29,132.7
3783,G3,612.0,0.125,29,132.7
3784,C#5,612.5,0.125,68,132.7
3785,C3,612.5,0.125,32,132.7
3786,C#6,613.0,0.125,81,132.7
3787,C4,613.0,0.125,31,132.7
3788,E3,613.0,0.125,31,132.7
3789,G3,613.0,0.125,31,132.7
3790,C3,613.5,0.125,31,132.7
3791,C#5,613.5,0.25,52,132.7
3792,B-4,613.5,0.25,52,132.7
3793,G#4,613.75,0.25,46,132.7
3794,B4,613.75,0.25,46,132.7
3795,F#4,614.0,0.25,44,132.7
3796,B-4,614.0,0.25,44,132.7
3797,C4,614.0,0.125,28,132.7
3798,E3,614.0,0.125,28,132.7
3799,G3,614.0,0.125,28,132.7
3800,G#4,614.25,0.25,42,132.7
3801,B4,614.25,0.25,42,132.7
3802,C#3,614.5,0.125,35,132.7
3803,F#4,614.5,0.25,40,132.7
3804,B-4,614.5,0.25,40,132.7
3805,F4,614.75,0.25,38,132.7
3806,G#4,614.75,0.25,38,132.7
3807,F#4,615.0,0.25,46,132.7
3808,B-4,615.0,0.25,46,132.7
3809,C#4,615.0,0.125,28,132.7
3810,F3,615.0,0.125,28,132.7
3811,C#3,615.5,0.125,31,132.7
3812,B-4,615.5,0.25,38,132.7
3813,F#4,615.5,0.25,38,132.7
3814,B-2,616.0,0.5,35,132.7
3815,B-4,616.0,0.25,38,132.7
3816,F#4,616.0,0.25,38,132.7
3817,F4,616.5,0.25,47,132.7
3818,G#4,616.5,0.25,47,132.7
3819,B4,616.5,0.25,47,132.7
3820,B-3,616.5,0.5,30,132.7
3821,G3,616.5,0.5,30,132.7
3822,B4,617.0,0.25,48,132.7
3823,G#4,617.0,0.25,48,132.7
3824,F4,617.0,0.25,48,132.7
3825,C3,617.0,0.25,30,132.7
3826,B-3,617.0,0.25,30,132.7
3827,G3,617.0,0.25,30,132.7
3828,G#4,617.5,0.25,53,132.7
3829,F4,617.5,0.25,53,132.7
3830,B4,617.5,0.25,53,132.7
3831,G#3,617.5,1.0,37,132.7
3832,F3,617.5,1.0,37,132.7
3833,F5,618.0,0.25,56,132.7
3834,B5,618.0,0.25,56,132.7
3835,G#5,618.0,0.25,56,132.7
3836,G#5,618.5,0.25,61,132.7
3837,F5,618.5,0.25,61,132.7
3838,B5,618.5,0.25,61,132.7
3839,F3,619.0,0.125,35,132.7
3840,B5,619.0,0.25,66,132.7
3841,F5,619.0,0.25,66,132.7
3842,G#5,619.0,0.25,66,132.7
3843,C7,619.5,0.25,68,132.7
3844,G#6,619.5,0.25,68,132.7
3845,F4,619.5,0.125,27,132.7
3846,G#3,619.5,0.125,27,132.7
3847,C4,619.5,0.125,27,132.7
3848,B-6,619.75,0.25,61,132.7
3849,G6,619.75,0.25,61,132.7
3850,F3,620.0,0.125,30,132.7
3851,F6,620.0,0.25,67,132.7
3852,G#6,620.0,0.25,67,132.7
3853,G6,620.25,0.25,60,132.7
3854,B-6,620.25,0.25,60,132.7
3855,G#6,620.5,0.25,67,132.7
3856,F6,620.5,0.25,67,132.7
3857,F4,620.5,0.125,31,132.7
3858,G#3,620.5,0.125,31,132.7
3859,C4,620.5,0.125,31,132.7
3860,G6,620.75,0.25,60,132.7
3861,E6,620.75,0.25,60,132.7
3862,F6,621.0,0.25,73,132.7
3863,F3,621.0,0.125,31,132.7
3864,G6,621.5,0.125,73,132.7
3865,F4,621.5,0.125,28,132.7
3866,C4,621.5,0.125,28,132.7
3867,G#3,621.5,0.125,28,132.7
3868,G#6,621.625,0.125,67,132.7
3869,G6,621.75,0.125,58,132.7
3870,G#6,621.875,0.125,54,132.7
3871,G6,622.0,0.125,58,132.7
3872,F3,622.0,0.125,35,132.7
3873,G#6,622.125,0.125,52,132.7
3874,G6,622.25,0.125,58,132.7
3875,G#6,622.375,0.125,52,132.7
3876,G6,622.5,0.125,58,132.7
3877,D4,622.5,0.125,28,132.7
3878,G#3,622.5,0.125,28,132.7
3879,B3,622.5,0.125,28,132.7
3880,G#6,622.625,0.125,52,132.7
3881,G6,622.75,167/1000,58,132.7
3882,G#6,622.917,167/1000,54,132.7
3883,F3,623.0,0.125,31,132.7
3884,G6,623.083,167/1000,58,132.7
3885,F#6,623.25,0.125,54,132.7
3886,G6,623.375,0.125,56,132.7
3887,G#6,623.5,0.25,64,132.7
3888,C3,623.5,0.125,35,132.7
3889,G6,623.75,0.25,58,132.7
3890,F6,624.0,0.25,81,132.7
3891,G3,624.0,0.125,29,132.7
3892,E3,624.0,0.125,29,132.7
3893,C4,624.0,0.125,29,132.7
3894,G5,624.5,0.125,73,132.7
3895,C3,624.5,0.125,32,132.7
3896,G#5,624.625,0.125,67,132.7
3897,G5,624.75,0.125,58,132.7
3898,G#5,624.875,0.125,54,132.7
3899,G5,625.0,0.125,58,132.7
3900,E3,625.0,0.125,31,132.7
3901,G3,625.0,0.125,31,132.7
3902,C4,625.0,0.125,31,132.7
3903,G#5,625.125,0.125,52,132.7
3904,G5,625.25,0.125,58,132.7
3905,G#5,625.375,0.125,52,132.7
3906,G5,625.5,0.125,58,132.7
3907,C3,625.5,0.125,31,132.7
3908,G#5,625.625,0.125,52,132.7
3909,G5,625.75,167/1000,58,132.7
3910,G#5,625.917,167/1000,54,132.7
3911,E3,626.0,0.125,28,132.7
3912,G3,626.0,0.125,28,132.7
3913,C4,626.0,0.125,28,132.7
3914,G5,626.083,167/1000,58,132.7
3915,F#5,626.25,0.125,54,132.7
3916,G5,626.375,0.125,56,132.7
3917,G#5,626.5,0.25,64,132.7
3918,C#3,626.5,0.125,35,132.7
3919,G5,626.75,0.25,58,132.7
3920,F5,627.0,0.25,81,132.7
3921,F3,627.0,0.125,28,132.7
3922,C#4,627.0,0.125,28,132.7
3923,G6,627.5,0.125,73,132.7
3924,C#3,627.5,0.125,31,132.7
3925,G#6,627.625,0.125,67,132.7
3926,G6,627.75,0.125,58,132.7
3927,G#6,627.875,0.125,54,132.7
3928,G6,628.0,0.125,58,132.7
3929,D3,628.0,0.125,35,132.7
3930,G#6,628.125,0.125,52,132.7
3931,G6,628.25,0.125,58,132.7
3932,G#6,628.375,0.125,52,132.7
3933,F#6,628.5,0.125,58,132.7
3934,D4,628.5,0.125,31,132.7
3935,B-3,628.5,0.125,31,132.7
3936,G6,628.625,0.125,53,132.7
3937,G#6,628.75,0.125,54,132.7
3938,B-6,628.875,0.125,56,132.7
3939,C7,629.0,0.125,57,132.7
3940,D3,629.0,0.125,31,132.7
3941,C#7,629.125,0.125,58,132.7
3942,E7,629.25,0.125,60,132.7
3943,F7,629.375,0.125,62,132.7
3944,E7,629.5,83/1000,63,132.7
3945,E-3,629.5,0.125,39,132.7
3946,C#7,629.583,83/1000,62,132.7
3947,C7,629.669,83/1000,61,132.7
3948,B-6,629.752,83/1000,61,132.7
3949,G#6,629.833,83/1000,60,132.7
3950,G6,629.917,83/1000,59,132.7
3951,F6,630.0,0.25,81,132.7
3952,B-3,630.0,0.125,33,132.7
3953,E-4,630.0,0.125,33,132.7
3954,G5,630.5,0.125,73,132.7
3955,E-3,630.5,0.125,33,132.7
3956,G#5,630.625,0.125,67,132.7
3957,G5,630.75,0.125,58,132.7
3958,G#5,630.875,0.125,54,132.7
3959,G5,631.0,0.125,58,132.7
3960,C3,631.0,0.125,41,132.7
3961,G#5,631.125,0.125,52,132.7
3962,G5,631.25,0.125,58,132.7
3963,G#5,631.375,0.125,52,132.7
3964,F#5,631.5,1/10,58,132.7
3965,C4,631.5,0.125,32,132.7
3966,G5,631.6,1/10,53,132.7
3967,G#5,631.7,1/10,54,132.7
3968,B-5,631.8,1/10,56,132.7
3969,C6,631.9,1/10,57,132.7
3970,D6,632.0,1/10,58,132.7
3971,C3,632.0,0.125,31,132.7
3972,E6,632.1,1/10,60,132.7
3973,F6,632.2,1/10,62,132.7
3974,G6,632.3,1/10,62,132.7
3975,F6,632.4,1/10,62,132.7
3976,E6,632.5,69/1000,63,132.7
3977,B2,632.5,0.125,40,132.7
3978,D6,632.569,69/1000,63,132.7
3979,C6,632.638,69/1000,62,132.7
3980,B-5,632.706,69/1000,61,132.7
3981,G#5,632.775,69/1000,61,132.7
3982,G5,632.844,69/1000,60,132.7
3983,F5,632.913,11/125,59,132.7
3984,E5,633.0,0.125,58,132.7
3985,B3,633.0,0.125,36,132.7
3986,C#5,633.125,0.125,56,132.7
3987,C5,633.25,0.125,54,132.7
3988,B-4,633.375,0.125,52,132.7
3989,G#4,633.5,0.125,49,132.7
3990,B2,633.5,0.125,36,132.7
3991,G4,633.625,0.125,48,132.7
3992,F#4,633.75,0.125,45,132.7
3993,G4,633.875,0.125,42,132.7
3994,G#4,634.0,83/1000,39,132.7
3995,B-2,634.0,0.125,51,132.7
3996,A4,634.083,83/1000,40,132.7
3997,B-4,634.167,83/1000,38,132.7
3998,B4,634.25,83/1000,36,132.7
3999,C5,634.333,83/1000,34,132.7
4000,C#5,634.417,83/1000,33,132.7
4001,C5,634.5,0.125,56,132.7
4002,F3,634.5,0.125,38,132.7
4003,B-3,634.5,0.125,38,132.7
4004,D4,634.5,0.125,38,132.7
4005,C5,635.0,0.25,45,132.7
4006,B-2,635.0,0.125,57,132.7
4007,C#5,635.25,0.25,39,132.7
4008,C5,635.5,0.125,46,132.7
4009,F3,635.5,0.125,41,132.7
4010,D4,635.5,0.125,41,132.7
4011,B-3,635.5,0.125,41,132.7
4012,C#5,636.0,0.125,40,132.7
4013,B-2,636.0,0.125,55,132.7
4014,C5,636.125,0.125,49,132.7
4015,C5,636.5,0.25,44,132.7
4016,F3,636.5,0.125,43,132.7
4017,B-3,636.5,0.125,43,132.7
4018,D4,636.5,0.125,43,132.7
4019,C#5,636.75,0.25,36,132.7
4020,C5,637.0,0.125,42,132.7
4021,B-2,637.0,0.125,61,132.7
4022,C5,637.5,0.25,40,132.7
4023,F#3,637.5,0.125,42,132.7
4024,A3,637.5,0.125,42,132.7
4025,E-4,637.5,0.125,42,132.7
4026,B4,637.75,229/1000,52,132.7
4027,B4,638.0,0.25,47,132.7
4028,B-2,638.0,0.125,60,132.7
4029,D5,638.25,0.25,40,132.7
4030,C5,638.5,0.25,45,132.7
4031,A3,638.5,0.125,51,132.7
4032,E-4,638.5,0.125,51,132.7
4033,F#3,638.5,0.125,51,132.7
4034,B4,638.75,0.25,36,132.7
4035,C5,639.0,0.125,46,132.7
4036,B-2,639.0,0.125,46,132.7
4037,G4,639.5,0.5,39,132.7
4038,E-4,639.5,0.125,40,132.7
4039,A3,639.5,0.125,40,132.7
4040,F#3,639.5,0.125,40,132.7
4041,B-2,640.0,0.125,51,132.7
4042,C5,640.5,0.125,46,132.7
4043,B-3,640.5,0.125,38,132.7
4044,F3,640.5,0.125,38,132.7
4045,D4,640.5,0.125,38,132.7
4046,G4,641.0,0.125,39,132.7
4047,B-2,641.0,0.125,57,132.7
4048,C5,641.5,0.125,46,132.7
4049,D4,641.5,0.125,41,132.7
4050,B-3,641.5,0.125,41,132.7
4051,F3,641.5,0.125,41,132.7
4052,B-4,642.0,0.5,46,132.7
4053,B-2,642.0,0.125,55,132.7
4054,G#4,642.5,0.25,39,132.7
4055,B-3,642.5,0.125,43,132.7
4056,F3,642.5,0.125,43,132.7
4057,D4,642.5,0.125,43,132.7
4058,G4,642.75,0.25,39,132.7
4059,F4,643.0,0.5,43,132.7
4060,B-2,643.0,0.125,61,132.7
4061,G4,643.5,0.25,46,132.7
4062,A3,643.5,0.125,42,132.7
4063,F#3,643.5,0.125,42,132.7
4064,E-4,643.5,0.125,42,132.7
4065,B-4,643.75,0.25,38,132.7
4066,G4,644.0,0.25,46,132.7
4067,B-2,644.0,0.125,60,132.7
4068,B-4,644.25,0.25,40,132.7
4069,E4,644.5,0.25,46,132.7
4070,F#3,644.5,0.125,51,132.7
4071,A3,644.5,0.125,51,132.7
4072,E-4,644.5,0.125,51,132.7
4073,G4,644.75,0.25,40,132.7
4074,F4,645.0,0.25,46,132.7
4075,B-2,645.0,0.125,46,132.7
4076,G#4,645.25,0.25,37,132.7
4077,C5,645.5,0.25,42,132.7
4078,A3,645.5,0.125,40,132.7
4079,F#3,645.5,0.125,40,132.7
4080,E-4,645.5,0.125,40,132.7
4081,F5,645.75,0.25,47,132.7
4082,G#5,646.0,0.25,52,132.7
4083,B-2,646.0,0.125,51,132.7
4084,B-5,646.25,0.25,57,132.7
4085,C6,646.5,0.125,65,132.7
4086,F3,646.5,0.125,38,132.7
4087,B-3,646.5,0.125,38,132.7
4088,D4,646.5,0.125,38,132.7
4089,C6,647.0,0.25,54,132.7
4090,G#2,647.0,0.125,57,132.7
4091,C#6,647.25,0.25,46,132.7
4092,C6,647.5,0.125,55,132.7
4093,G#3,647.5,0.125,46,132.7
4094,C#6,648.0,0.125,48,132.7
4095,G2,648.0,0.125,55,132.7
4096,C6,648.125,0.125,64,132.7
4097,C6,648.5,0.25,52,132.7
4098,G3,648.5,0.125,48,132.7
4099,C#6,648.75,0.25,43,132.7
4100,C6,649.0,0.125,50,132.7
4101,C3,649.0,0.125,51,132.7
4102,C6,649.5,0.25,61,132.7
4103,C4,649.5,0.125,43,132.7
4104,B5,649.75,0.25,48,132.7
4105,F6,650.0,0.25,56,132.7
4106,B-2,650.0,0.125,57,132.7
4107,B5,650.25,0.25,48,132.7
4108,F6,650.5,0.25,54,132.7
4109,B-3,650.5,0.125,46,132.7
4110,B5,650.75,0.25,43,132.7
4111,C6,651.0,0.125,55,132.7
4112,G2,651.0,0.125,55,132.7
4113,G5,651.5,1.0,46,132.7
4114,G3,651.5,0.125,48,132.7
4115,G#2,652.0,0.125,57,132.7
4116,C6,652.5,0.125,57,132.7
4117,G#3,652.5,0.125,49,132.7
4118,G5,653.0,0.125,46,132.7
4119,B-1,653.0,0.125,57,132.7
4120,C6,653.5,0.125,55,132.7
4121,B-2,653.5,0.125,46,132.7
4122,B-5,654.0,0.5,62,132.7
4123,C2,654.0,0.125,64,132.7
4124,G#5,654.5,0.25,49,132.7
4125,C3,654.5,0.125,58,132.7
4126,G5,654.75,0.25,49,132.7
4127,F5,655.0,0.5,57,132.7
4128,F1,655.0,0.25,62,132.7
4129,F2,655.0,0.25,62,132.7
4130,B-5,655.5,0.125,61,132.7
4131,C#4,655.5,1.0,54,132.7
4132,F3,655.5,1.0,54,132.7
4133,E4,655.5,1.0,54,132.7
4134,B-3,655.5,1.0,54,132.7
4135,F5,656.0,0.125,48,132.7
4136,B-5,656.5,0.125,57,132.7
4137,C#4,656.5,1.5,54,132.7
4138,F3,656.5,1.5,54,132.7
4139,E4,656.5,1.5,54,132.7
4140,B-3,656.5,1.5,54,132.7
4141,G#5,657.0,0.5,63,132.7
4142,G5,657.5,0.25,50,132.7
4143,F5,657.75,0.25,50,132.7
4144,E-5,658.0,0.5,55,132.7
4145,G#3,658.0,0.25,54,132.7
4146,C4,658.0,0.25,54,132.7
4147,F3,658.0,0.25,54,132.7
4148,F4,658.0,0.25,54,132.7
4149,G#5,658.5,0.125,64,132.7
4150,B-3,658.5,1.0,54,132.7
4151,F3,658.5,1.0,54,132.7
4152,E4,658.5,1.0,54,132.7
4153,C#4,658.5,1.0,54,132.7
4154,E-5,659.0,0.125,49,132.7
4155,G#5,659.5,0.125,58,132.7
4156,B-3,659.5,1.5,54,132.7
4157,F3,659.5,1.5,54,132.7
4158,E4,659.5,1.5,54,132.7
4159,C#4,659.5,1.5,54,132.7
4160,A5,660.0,0.125,63,132.7
4161,E-5,660.5,0.125,53,132.7
4162,A5,661.0,0.125,61,132.7
4163,C4,661.0,0.25,54,132.7
4164,G#3,661.0,0.25,54,132.7
4165,F4,661.0,0.25,54,132.7
4166,F3,661.0,0.25,54,132.7
4167,B-5,661.5,0.125,75,132.7
4168,E4,661.5,1.0,54,132.7
4169,B-3,661.5,1.0,54,132.7
4170,F3,661.5,1.0,54,132.7
4171,C#4,661.5,1.0,54,132.7
4172,D5,662.0,0.125,69,132.7
4173,F5,662.0,0.125,69,132.7
4174,D6,662.5,0.125,77,132.7
4175,E4,662.5,1.5,54,132.7
4176,B-3,662.5,1.5,54,132.7
4177,F3,662.5,1.5,54,132.7
4178,C#4,662.5,1.5,54,132.7
4179,F5,663.0,0.125,71,132.7
4180,B-5,663.0,0.125,71,132.7
4181,F6,663.5,0.125,83,132.7
4182,D6,664.0,0.125,73,132.7
4183,B-5,664.0,0.125,73,132.7
4184,G#3,664.0,0.25,54,132.7
4185,F4,664.0,0.25,54,132.7
4186,F3,664.0,0.25,54,132.7
4187,C4,664.0,0.25,54,132.7
4188,G#6,664.5,0.25,78,132.7
4189,B-3,664.5,1.0,54,132.7
4190,E4,664.5,1.0,54,132.7
4191,F3,664.5,1.0,54,132.7
4192,C#4,664.5,1.0,54,132.7
4193,F#6,664.75,0.25,66,132.7
4194,F6,665.0,0.25,77,132.7
4195,F#6,665.25,0.25,62,132.7
4196,E-6,665.5,0.25,69,132.7
4197,B-3,665.5,1.5,54,132.7
4198,E4,665.5,1.5,54,132.7
4199,F3,665.5,1.5,54,132.7
4200,C#4,665.5,1.5,54,132.7
4201,C6,666.0,0.25,66,132.7
4202,A5,666.5,0.25,61,132.7
4203,F#5,667.0,0.25,52,132.7
4204,C4,667.0,0.125,65,132.7
4205,F3,667.0,0.125,65,132.7
4206,G#3,667.0,0.125,65,132.7
4207,B-5,667.5,0.125,75,132.7
4208,F5,668.0,0.125,69,132.7
4209,D5,668.0,0.125,69,132.7
4210,D6,668.5,0.125,77,132.7
4211,B-5,669.0,0.125,71,132.7
4212,F5,669.0,0.125,71,132.7
4213,F6,669.5,0.125,83,132.7
4214,D6,670.0,0.125,73,132.7
4215,B-5,670.0,0.125,73,132.7
4216,G#6,670.5,0.25,78,132.7
4217,F#6,670.75,0.25,66,132.7
4218,F6,671.0,0.25,77,132.7
4219,F#6,671.25,0.25,62,132.7
4220,E-6,671.5,0.25,69,132.7
4221,C6,672.0,0.25,66,132.7
4222,A5,672.5,0.25,61,132.7
4223,F#5,673.0,0.25,52,132.7
4224,B-5,673.5,0.125,75,132.7
4225,F5,674.0,0.125,69,132.7
4226,D5,674.0,0.125,69,132.7
4227,B5,674.5,0.125,77,132.7
4228,F5,675.0,0.125,71,132.7
4229,D5,675.0,0.125,71,132.7
4230,D6,675.5,0.125,85,132.7
4231,B5,676.0,0.125,73,132.7
4232,F5,676.0,0.125,73,132.7
4233,C6,676.5,0.125,75,132.7
4234,E5,677.0,0.125,69,132.7
4235,G5,677.0,0.125,69,132.7
4236,E6,677.5,0.125,77,132.7
4237,C#6,678.0,0.125,71,132.7
4238,G5,678.0,0.125,71,132.7
4239,G6,678.5,0.125,83,132.7
4240,B-5,679.0,0.125,73,132.7
4241,C#6,679.0,0.125,73,132.7
4242,E6,679.0,0.125,73,132.7
4243,G#2,679.0,1.5,35,132.7
4244,C#3,679.0,1.5,35,132.7
4245,C#2,679.0,1.5,35,132.7
4246,F6,679.5,0.125,75,132.7
4247,F5,680.0,0.125,69,132.7
4248,C6,680.0,0.125,69,132.7
4249,B-6,680.5,0.125,77,132.7
4250,B-5,681.0,0.125,71,132.7
4251,C7,681.5,0.125,83,132.7
4252,C6,682.0,0.125,73,132.7
4253,F6,682.5,0.25,80,132.7
4254,F7,682.5,0.25,80,132.7
4255,G6,683.0,0.125,73,132.7
4256,G#6,683.125,0.125,53,132.7
4257,G6,683.25,0.125,58,132.7
4258,G#6,683.375,0.125,54,132.7
4259,G6,683.5,0.125,58,132.7
4260,G#6,683.625,0.125,52,132.7
4261,G6,683.75,0.125,58,132.7
4262,G#6,683.875,0.125,52,132.7
4263,G6,684.0,0.125,58,132.7
4264,G#6,684.125,0.125,52,132.7
4265,G6,684.25,167/1000,58,132.7
4266,G#6,684.417,167/1000,54,132.7
4267,G6,684.583,167/1000,58,132.7
4268,F#6,684.75,0.125,54,132.7
4269,G6,684.875,0.125,56,132.7
4270,G#6,685.0,0.25,64,132.7
4271,G#2,685.0,1.5,35,132.7
4272,C#3,685.0,1.5,35,132.7
4273,C#2,685.0,1.5,35,132.7
4274,G6,685.25,0.25,58,132.7
4275,F6,685.5,0.25,81,132.7
4276,G5,686.0,0.125,73,132.7
4277,G#5,686.125,0.125,67,132.7
4278,G5,686.25,0.125,58,132.7
4279,G#5,686.375,0.125,54,132.7
4280,G5,686.5,0.125,58,132.7
4281,G#5,686.625,0.125,52,132.7
4282,G5,686.75,0.125,58,132.7
4283,G#5,686.875,0.125,52,132.7
4284,G5,687.0,0.125,58,132.7
4285,G#5,687.125,0.125,52,132.7
4286,G5,687.25,167/1000,58,132.7
4287,G#5,687.417,167/1000,54,132.7
4288,G5,687.583,167/1000,58,132.7
4289,F#5,687.75,0.125,54,132.7
4290,G5,687.875,0.125,56,132.7
4291,G#5,688.0,0.25,64,132.7
4292,G5,688.25,0.25,58,132.7
4293,F5,688.5,0.25,81,132.7
4294,G6,689.0,0.125,73,132.7
4295,G#6,689.125,0.125,67,132.7
4296,G6,689.25,0.125,58,132.7
4297,G#6,689.375,0.125,54,132.7
4298,G6,689.5,0.125,58,132.7
4299,G#2,689.5,1.5,35,132.7
4300,C#3,689.5,1.5,35,132.7
4301,C#2,689.5,1.5,35,132.7
4302,G#6,689.625,0.125,52,132.7
4303,G6,689.75,0.125,58,132.7
4304,G#6,689.875,0.125,52,132.7
4305,F#6,690.0,0.125,58,132.7
4306,G6,690.125,0.125,53,132.7
4307,G#6,690.25,0.125,54,132.7
4308,B-6,690.375,0.125,56,132.7
4309,C7,690.5,0.125,57,132.7
4310,C#7,690.625,0.125,58,132.7
4311,E7,690.75,0.125,60,132.7
4312,F7,690.875,0.125,62,132.7
4313,E7,691.0,83/1000,63,132.7
4314,C#7,691.083,83/1000,62,132.7
4315,C7,691.169,83/1000,61,132.7
4316,B-6,691.252,83/1000,61,132.7
4317,G#6,691.333,83/1000,60,132.7
4318,G6,691.417,83/1000,59,132.7
4319,F6,691.5,0.25,81,132.7
4320,G5,692.0,0.125,73,132.7
4321,G#5,692.125,0.125,67,132.7
4322,G5,692.25,0.125,58,132.7
4323,G#5,692.375,0.125,54,132.7
4324,G5,692.5,0.125,58,132.7
4325,G#2,692.5,1.5,35,132.7
4326,C#3,692.5,1.5,35,132.7
4327,C#2,692.5,1.5,35,132.7
4328,G#5,692.625,0.125,52,132.7
4329,G5,692.75,0.125,58,132.7
4330,G#5,692.875,0.125,52,132.7
4331,F#5,693.0,67/1000,55,132.7
4332,G5,693.067,13/200,55,132.7
4333,G#5,693.133,13/200,57,132.7
4334,B-5,693.198,67/1000,57,132.7
4335,C6,693.265,13/200,60,132.7
4336,C#6,693.329,13/200,62,132.7
4337,E6,693.396,67/1000,64,132.7
4338,F6,693.462,67/1000,67,132.7
4339,G6,693.529,13/200,68,132.7
4340,F6,693.594,67/1000,68,132.7
4341,E6,693.66,13/200,65,132.7
4342,C#6,693.723,13/200,63,132.7
4343,C6,693.79,13/200,61,132.7
4344,B-5,693.854,13/200,59,132.7
4345,G#5,693.917,13/200,57,132.7
4346,G5,693.981,13/200,57,132.7
4347,C2,694.0,1.5,35,132.7
4348,G#2,694.0,1.5,35,132.7
4349,C3,694.0,1.5,35,132.7
4350,F5,694.046,13/200,54,132.7
4351,E5,694.11,13/200,50,132.7
4352,C#5,694.175,13/200,49,132.7
4353,C5,694.237,13/200,47,132.7
4354,B-4,694.302,13/200,46,132.7
4355,G#4,694.367,13/200,44,132.7
4356,G4,694.429,71/1000,42,132.7
4357,F4,694.5,0.125,64,132.7
4358,C4,695.0,0.125,43,132.7
4359,F4,695.5,0.125,51,132.7
4360,C4,696.0,0.125,44,132.7
4361,F4,696.5,0.125,51,132.7
4362,C4,697.0,0.125,42,132.7
4363,F4,697.5,0.125,52,132.7
4364,C4,698.0,0.125,43,132.7
4365,F4,698.5,0.125,51,132.7
4366,C4,699.0,0.125,44,132.7
4367,F4,699.5,0.125,51,132.7
4368,C4,700.0,0.125,42,132.7
4369,C2,700.0,1.5,35,132.7
4370,G#2,700.0,1.5,35,132.7
4371,C3,700.0,1.5,35,132.7
4372,G#4,700.5,0.125,52,132.7
4373,F4,700.5,0.125,52,132.7
4374,C4,701.0,0.125,42,132.7
4375,F4,701.0,0.125,42,132.7
4376,G#4,701.5,0.125,49,132.7
4377,F4,701.5,0.125,49,132.7
4378,C4,702.0,0.125,41,132.7
4379,F4,702.0,0.125,41,132.7
4380,F4,702.5,0.125,44,132.7
4381,G#4,702.5,0.125,44,132.7
4382,C4,703.0,0.125,39,132.7
4383,F4,703.0,0.125,39,132.7
4384,G#4,703.5,0.125,46,132.7
4385,F4,703.5,0.125,46,132.7
4386,F4,704.0,0.125,38,132.7
4387,C4,704.0,0.125,38,132.7
4388,F4,704.5,0.125,44,132.7
4389,G#4,704.5,0.125,44,132.7
4390,C2,704.5,1.5,35,132.7
4391,G#2,704.5,1.5,35,132.7
4392,C3,704.5,1.5,35,132.7
4393,F4,705.0,0.125,37,132.7
4394,C4,705.0,0.125,37,132.7
4395,F4,705.5,0.125,39,132.7
4396,G#4,705.5,0.125,39,132.7
4397,F4,706.0,0.125,35,132.7
4398,C4,706.0,0.125,35,132.7
4399,G#4,706.5,0.125,41,132.7
4400,F4,706.5,0.125,41,132.7
4401,F4,707.0,0.125,34,132.7
4402,C#4,707.0,0.125,34,132.7
4403,G#4,707.5,0.125,40,132.7
4404,F4,707.5,0.125,40,132.7
4405,C2,707.5,1.5,35,132.7
4406,G#2,707.5,1.5,35,132.7
4407,C3,707.5,1.5,35,132.7
4408,C#4,708.0,0.125,35,132.7
4409,F4,708.0,0.125,35,132.7
4410,F4,708.5,0.125,38,132.7
4411,G#4,708.5,0.125,38,132.7
4412,F4,709.0,0.125,34,132.7
4413,C#4,709.0,0.125,34,132.7
4414,G#2,709.0,1.5,35,132.7
4415,C#2,709.0,1.5,35,132.7
4416,C#3,709.0,1.5,35,132.7
4417,F4,709.5,0.125,41,132.7
4418,G#4,709.5,0.125,41,132.7
4419,C#4,710.0,0.125,34,132.7
4420,F4,710.0,0.125,34,132.7
4421,G#4,710.5,0.125,40,132.7
4422,F4,710.5,0.125,40,132.7
4423,F4,711.0,0.125,35,132.7
4424,C#4,711.0,0.125,35,132.7
4425,G#4,711.5,0.125,38,132.7
4426,F4,711.5,0.125,38,132.7
4427,C#4,712.0,0.125,34,132.7
4428,F4,712.0,0.125,34,132.7
4429,G#4,712.5,0.125,41,132.7
4430,F#4,712.5,0.125,41,132.7
4431,F#4,713.0,0.125,34,132.7
4432,E-4,713.0,0.125,34,132.7
4433,G#4,713.5,0.125,40,132.7
4434,F#4,713.5,0.125,40,132.7
4435,F#4,714.0,0.125,35,132.7
4436,E-4,714.0,0.125,35,132.7
4437,G#4,714.5,0.125,38,132.7
4438,F#4,714.5,0.125,38,132.7
4439,F#4,715.0,0.125,34,132.7
4440,E-4,715.0,0.125,34,132.7
4441,G#2,715.0,1.5,35,132.7
4442,C#2,715.0,1.5,35,132.7
4443,C#3,715.0,1.5,35,132.7
4444,G#4,715.5,0.125,41,132.7
4445,F#4,715.5,0.125,41,132.7
4446,G#4,716.0,0.125,43,132.7
4447,E-5,716.0,0.125,43,132.7
4448,F#5,716.5,0.125,45,132.7
4449,E-5,716.5,0.125,45,132.7
4450,F#5,717.0,0.125,48,132.7
4451,G#5,717.0,0.125,48,132.7
4452,G#5,717.5,0.125,50,132.7
4453,E-6,717.5,0.125,50,132.7
4454,F#6,718.0,0.125,53,132.7
4455,E-6,718.0,0.125,53,132.7
4456,C#6,718.5,0.125,55,132.7
4457,F6,718.5,0.125,55,132.7
4458,G#5,719.0,0.125,53,132.7
4459,F5,719.0,0.125,53,132.7
4460,F6,719.5,0.125,57,132.7
4461,C#6,719.5,0.125,57,132.7
4462,G#2,719.5,1.5,35,132.7
4463,C#2,719.5,1.5,35,132.7
4464,C#3,719.5,1.5,35,132.7
4465,F5,720.0,0.125,49,132.7
4466,G#5,720.0,0.125,49,132.7
4467,F6,720.5,0.125,56,132.7
4468,C#6,720.5,0.125,56,132.7
4469,F5,721.0,0.125,50,132.7
4470,G#5,721.0,0.125,50,132.7
4471,F6,721.5,0.125,56,132.7
4472,C#6,721.5,0.125,56,132.7
4473,G#5,722.0,0.125,54,132.7
4474,C#6,722.0,0.125,54,132.7
4475,F5,722.5,0.125,51,132.7
4476,G#5,722.5,0.125,51,132.7
4477,G#2,722.5,1.5,35,132.7
4478,C#2,722.5,1.5,35,132.7
4479,C#3,722.5,1.5,35,132.7
4480,F5,723.0,0.125,47,132.7
4481,C#5,723.0,0.125,47,132.7
4482,C#5,723.5,0.125,44,132.7
4483,G#4,723.5,0.125,44,132.7
4484,G#2,724.0,1.5,35,132.7
4485,G#4,724.0,0.125,41,132.7
4486,F4,724.0,0.125,41,132.7
4487,C3,724.0,1.5,35,132.7
4488,C2,724.0,1.5,35,132.7
4489,G#4,724.5,0.125,41,132.7
4490,F#4,724.5,0.125,41,132.7
4491,E-4,725.0,0.125,34,132.7
4492,F#4,725.0,0.125,34,132.7
4493,G#4,725.5,0.125,40,132.7
4494,F#4,725.5,0.125,40,132.7
4495,F#4,726.0,0.125,44,132.7
4496,A4,726.0,0.125,44,132.7
4497,F#4,726.5,0.125,38,132.7
4498,E-4,726.5,0.125,38,132.7
4499,A4,727.0,0.125,34,132.7
4500,F#4,727.0,0.125,34,132.7
4501,F#4,727.5,0.125,41,132.7
4502,G#4,727.5,0.125,41,132.7
4503,G#4,728.0,0.125,43,132.7
4504,E-5,728.0,0.125,43,132.7
4505,F#5,728.5,0.125,45,132.7
4506,E-5,728.5,0.125,45,132.7
4507,G#5,729.0,0.125,48,132.7
4508,F#5,729.0,0.125,48,132.7
4509,G#5,729.5,0.125,50,132.7
4510,E-6,729.5,0.125,50,132.7
4511,A2,730.0,1.5,41,132.7
4512,F#6,730.0,0.125,53,132.7
4513,E-6,730.0,0.125,53,132.7
4514,C3,730.0,1.5,35,132.7
4515,C2,730.0,1.5,35,132.7
4516,C#6,730.5,0.125,55,132.7
4517,F6,730.5,0.125,55,132.7
4518,F5,731.0,0.125,53,132.7
4519,G#5,731.0,0.125,53,132.7
4520,G#2,731.5,1.5,35,132.7
4521,F6,731.5,0.125,57,132.7
4522,C#6,731.5,0.125,57,132.7
4523,C3,731.5,1.5,35,132.7
4524,C2,731.5,1.5,35,132.7
4525,B-5,732.0,0.125,49,132.7
4526,F5,732.0,0.125,49,132.7
4527,C#6,732.5,0.125,56,132.7
4528,F6,732.5,0.125,56,132.7
4529,G#2,733.0,1.5,35,132.7
4530,F5,733.0,0.125,50,132.7
4531,B-5,733.0,0.125,50,132.7
4532,C3,733.0,1.5,35,132.7
4533,C2,733.0,1.5,35,132.7
4534,C#6,733.5,0.125,56,132.7
4535,F6,733.5,0.125,56,132.7
4536,G#5,734.0,0.125,54,132.7
4537,C#6,734.0,0.125,54,132.7
4538,G#2,734.5,1.5,35,132.7
4539,F5,734.5,0.125,51,132.7
4540,G#5,734.5,0.125,51,132.7
4541,C#2,734.5,1.5,35,132.7
4542,C#3,734.5,1.5,35,132.7
4543,C#5,735.0,0.125,47,132.7
4544,F5,735.0,0.125,47,132.7
4545,C#5,735.5,0.125,44,132.7
4546,G#4,735.5,0.125,44,132.7
4547,G#4,736.0,0.125,41,132.7
4548,F4,736.0,0.125,41,132.7
4549,E-5,736.5,0.125,41,132.7
4550,F5,736.5,0.125,41,132.7
4551,A4,737.0,0.125,34,132.7
4552,F4,737.0,0.125,34,132.7
4553,E-5,737.5,0.125,40,132.7
4554,F5,737.5,0.125,40,132.7
4555,A4,738.0,0.125,35,132.7
4556,F#4,738.0,0.125,35,132.7
4557,F#5,738.5,0.125,38,132.7
4558,E-5,738.5,0.125,38,132.7
4559,F#4,739.0,0.125,34,132.7
4560,A4,739.0,0.125,34,132.7
4561,E-5,739.5,0.125,41,132.7
4562,F5,739.5,0.125,41,132.7
4563,F4,740.0,0.125,43,132.7
4564,A4,740.0,0.125,43,132.7
4565,B-2,740.5,1.5,43,132.7
4566,E-5,740.5,0.125,45,132.7
4567,F5,740.5,0.125,45,132.7
4568,C#2,740.5,1.5,35,132.7
4569,C#3,740.5,1.5,35,132.7
4570,F5,741.0,0.125,48,132.7
4571,A5,741.0,0.125,48,132.7
4572,E-6,741.5,0.125,50,132.7
4573,A5,741.5,0.125,50,132.7
4574,G#2,742.0,1.5,35,132.7
4575,E-6,742.0,0.125,53,132.7
4576,F6,742.0,0.125,53,132.7
4577,C#2,742.0,1.5,35,132.7
4578,C#3,742.0,1.5,35,132.7
4579,C#6,742.5,0.125,55,132.7
4580,F6,742.5,0.125,55,132.7
4581,B-5,743.0,0.125,53,132.7
4582,F5,743.0,0.125,53,132.7
4583,G#2,743.5,1.5,35,132.7
4584,F6,743.5,0.125,57,132.7
4585,C#6,743.5,0.125,57,132.7
4586,C#2,743.5,1.5,35,132.7
4587,C#3,743.5,1.5,35,132.7
4588,B-5,744.0,0.125,49,132.7
4589,F#5,744.0,0.125,49,132.7
4590,C#6,744.5,0.125,56,132.7
4591,F#6,744.5,0.125,56,132.7
4592,F2,745.0,1.5,35,132.7
4593,B-5,745.0,0.125,50,132.7
4594,F#5,745.0,0.125,50,132.7
4595,C2,745.0,1.5,35,132.7
4596,C3,745.0,1.5,35,132.7
4597,F6,745.5,0.125,56,132.7
4598,C#6,745.5,0.125,56,132.7
4599,C#6,746.0,0.125,54,132.7
4600,B-5,746.0,0.125,54,132.7
4601,F5,746.5,0.125,51,132.7
4602,B-5,746.5,0.125,51,132.7
4603,F5,747.0,0.125,47,132.7
4604,C#5,747.0,0.125,47,132.7
4605,B-4,747.5,0.125,44,132.7
4606,C#5,747.5,0.125,44,132.7
4607,B-4,748.0,0.125,41,132.7
4608,F4,748.0,0.125,41,132.7
4609,F4,748.5,0.125,41,132.7
4610,C#5,748.5,0.125,41,132.7
4611,F4,749.0,0.125,34,132.7
4612,C#4,749.0,0.125,34,132.7
4613,C#5,749.5,0.125,40,132.7
4614,F4,749.5,0.125,40,132.7
4615,F4,750.0,0.125,35,132.7
4616,C#4,750.0,0.125,35,132.7
4617,F4,750.5,0.125,38,132.7
4618,C#5,750.5,0.125,38,132.7
4619,F#2,751.0,1.5,41,132.7
4620,F4,751.0,0.125,34,132.7
4621,C#4,751.0,0.125,34,132.7
4622,C2,751.0,1.5,35,132.7
4623,C3,751.0,1.5,35,132.7
4624,C5,751.5,0.125,45,132.7
4625,F4,751.5,0.125,45,132.7
4626,F4,752.0,0.125,40,132.7
4627,C4,752.0,0.125,40,132.7
4628,F2,752.5,1.5,35,132.7
4629,F4,752.5,0.125,45,132.7
4630,C5,752.5,0.125,45,132.7
4631,C2,752.5,1.5,35,132.7
4632,C3,752.5,1.5,35,132.7
4633,F4,753.0,0.125,43,132.7
4634,C4,753.0,0.125,43,132.7
4635,C5,753.5,0.125,43,132.7
4636,F4,753.5,0.125,43,132.7
4637,F2,754.0,1.5,35,132.7
4638,F4,754.0,0.125,34,132.7
4639,C4,754.0,0.125,34,132.7
4640,C2,754.0,1.5,35,132.7
4641,C3,754.0,1.5,35,132.7
4642,B4,754.5,0.125,55,132.7
4643,G#4,754.5,0.125,55,132.7
4644,G#4,755.0,0.125,43,132.7
4645,F4,755.0,0.125,43,132.7
4646,F2,755.5,1.5,35,132.7
4647,G#4,755.5,0.125,45,132.7
4648,B4,755.5,0.125,45,132.7
4649,B-2,755.5,1.5,35,132.7
4650,B-1,755.5,1.5,35,132.7
4651,G#4,756.0,0.125,48,132.7
4652,F4,756.0,0.125,48,132.7
4653,G#4,756.5,0.125,50,132.7
4654,B4,756.5,0.125,50,132.7
4655,F5,757.0,0.125,53,132.7
4656,B4,757.0,0.125,53,132.7
4657,G#5,757.5,0.125,56,132.7
4658,F5,757.5,0.125,56,132.7
4659,G#5,758.0,0.125,54,132.7
4660,B5,758.0,0.125,54,132.7
4661,F5,758.5,0.125,51,132.7
4662,G#5,758.5,0.125,51,132.7
4663,B4,759.0,0.125,47,132.7
4664,F5,759.0,0.125,47,132.7
4665,G#4,759.5,0.125,44,132.7
4666,B4,759.5,0.125,44,132.7
4667,G#4,760.0,0.125,41,132.7
4668,F4,760.0,0.125,41,132.7
4669,B-4,760.5,0.125,41,132.7
4670,G4,760.5,0.125,41,132.7
4671,G4,761.0,0.125,34,132.7
4672,C#4,761.0,0.125,34,132.7
4673,F#2,761.5,1.5,42,132.7
4674,G4,761.5,0.125,40,132.7
4675,B-4,761.5,0.125,40,132.7
4676,B-2,761.5,1.5,35,132.7
4677,B-1,761.5,1.5,35,132.7
4678,G4,762.0,0.125,35,132.7
4679,C#4,762.0,0.125,35,132.7
4680,B-4,762.5,0.125,38,132.7
4681,G4,762.5,0.125,38,132.7
4682,F2,763.0,1.5,35,132.7
4683,G4,763.0,0.125,34,132.7
4684,C#4,763.0,0.125,34,132.7
4685,B-2,763.0,1.5,35,132.7
4686,B-1,763.0,1.5,35,132.7
4687,F4,763.5,0.125,45,132.7
4688,A4,763.5,0.125,45,132.7
4689,F4,764.0,0.125,40,132.7
4690,C4,764.0,0.125,40,132.7
4691,F2,764.5,1.5,35,132.7
4692,F4,764.5,0.125,45,132.7
4693,A4,764.5,0.125,45,132.7
4694,B-2,764.5,1.5,35,132.7
4695,B-1,764.5,1.5,35,132.7
4696,F4,765.0,0.125,43,132.7
4697,C4,765.0,0.125,43,132.7
4698,F4,765.5,0.125,43,132.7
4699,A4,765.5,0.125,43,132.7
4700,F4,766.0,0.125,34,132.7
4701,C4,766.0,0.125,34,132.7
4702,B-2,766.0,1.5,35,132.7
4703,B-3,766.0,1.5,35,132.7
4704,F4,766.5,0.125,55,132.7
4705,G#4,766.5,0.125,55,132.7
4706,F4,767.0,0.125,43,132.7
4707,D4,767.0,0.125,43,132.7
4708,F4,767.5,0.125,45,132.7
4709,G#4,767.5,0.125,45,132.7
4710,D4,768.0,0.125,48,132.7
4711,F4,768.0,0.125,48,132.7
4712,G#4,768.5,0.125,46,132.7
4713,F4,768.5,0.125,46,132.7
4714,F4,769.0,0.125,44,132.7
4715,D4,769.0,0.125,44,132.7
4716,B-2,769.0,1.5,35,132.7
4717,B-3,769.0,1.5,35,132.7
4718,G4,769.5,0.125,45,132.7
4719,D4,769.5,0.125,45,132.7
4720,G3,770.0,0.125,38,132.7
4721,D4,770.0,0.125,38,132.7
4722,D4,770.5,0.125,45,132.7
4723,G4,770.5,0.125,45,132.7
4724,G#2,770.5,1.5,35,132.7
4725,G#3,770.5,1.5,35,132.7
4726,F4,771.0,0.125,38,132.7
4727,D4,771.0,0.125,38,132.7
4728,D4,771.5,0.125,44,132.7
4729,G#3,771.5,0.125,44,132.7
4730,D4,772.0,0.125,40,132.7
4731,F4,772.0,0.125,40,132.7
4732,C4,772.5,0.125,39,132.7
4733,F4,772.5,0.125,39,132.7
4734,G#3,773.0,0.125,35,132.7
4735,C4,773.0,0.125,35,132.7
4736,C4,773.5,0.125,41,132.7
4737,F4,773.5,0.125,41,132.7
4738,G#2,773.5,1.5,35,132.7
4739,G#3,773.5,1.5,35,132.7
4740,C4,774.0,0.125,35,132.7
4741,G#3,774.0,0.125,35,132.7
4742,C4,774.5,0.125,41,132.7
4743,F4,774.5,0.125,41,132.7
4744,G#3,775.0,0.125,35,132.7
4745,C4,775.0,0.125,35,132.7
4746,D3,775.0,1.5,44,132.7
4747,D2,775.0,1.5,44,132.7
4748,C4,775.5,0.125,40,132.7
4749,F4,775.5,0.125,40,132.7
4750,G3,776.0,0.125,31,132.7
4751,C4,776.0,0.125,31,132.7
4752,F4,776.5,0.125,45,132.7
4753,C4,776.5,0.125,45,132.7
4754,C4,777.0,0.125,40,132.7
4755,G3,777.0,0.125,40,132.7
4756,C4,777.5,0.125,48,132.7
4757,E4,777.5,0.125,48,132.7
4758,E4,778.0,0.125,42,132.7
4759,G#4,778.0,0.125,42,132.7
4760,G#4,778.5,0.125,56,132.7
4761,F4,778.5,0.125,56,132.7
4762,F4,779.0,0.125,44,132.7
4763,C#4,779.0,0.125,44,132.7
4764,G#4,779.5,0.125,51,132.7
4765,F4,779.5,0.125,51,132.7
4766,C#4,780.0,0.125,35,132.7
4767,F4,780.0,0.125,35,132.7
4768,F4,780.5,0.125,44,132.7
4769,G#4,780.5,0.125,44,132.7
4770,C#4,781.0,0.125,35,132.7
4771,F4,781.0,0.125,35,132.7
4772,D3,781.0,1.5,44,132.7
4773,D2,781.0,1.5,44,132.7
4774,F4,781.5,0.125,43,132.7
4775,G4,781.5,0.125,43,132.7
4776,C#4,782.0,0.125,34,132.7
4777,F4,782.0,0.125,34,132.7
4778,F4,782.5,0.125,43,132.7
4779,G4,782.5,0.125,43,132.7
4780,D4,783.0,0.125,34,132.7
4781,F4,783.0,0.125,34,132.7
4782,D4,783.5,0.125,41,132.7
4783,G3,783.5,0.125,41,132.7
4784,F4,784.0,0.125,36,132.7
4785,D4,784.0,0.125,36,132.7
4786,F4,784.5,0.125,39,132.7
4787,C4,784.5,0.125,39,132.7
4788,G#3,785.0,0.125,35,132.7
4789,C4,785.0,0.125,35,132.7
4790,C4,785.5,0.125,41,132.7
4791,F4,785.5,0.125,41,132.7
4792,D3,785.5,1.5,44,132.7
4793,D2,785.5,1.5,44,132.7
4794,G#3,786.0,0.125,35,132.7
4795,C4,786.0,0.125,35,132.7
4796,F4,786.5,0.125,41,132.7
4797,C4,786.5,0.125,41,132.7
4798,G#3,787.0,0.125,35,132.7
4799,C4,787.0,0.125,35,132.7
4800,F4,787.5,0.125,40,132.7
4801,C4,787.5,0.125,40,132.7
4802,G#3,788.0,0.125,31,132.7
4803,C4,788.0,0.125,31,132.7
4804,C4,788.5,0.125,38,132.7
4805,F4,788.5,0.125,38,132.7
4806,D3,788.5,1.5,44,132.7
4807,D2,788.5,1.5,44,132.7
4808,C4,789.0,0.125,30,132.7
4809,G#3,789.0,0.125,30,132.7
4810,C4,789.5,0.125,39,132.7
4811,F4,789.5,0.125,39,132.7
4812,G#3,790.0,0.125,32,132.7
4813,C4,790.0,0.125,32,132.7
4814,E3,790.0,1.5,35,132.7
4815,E2,790.0,1.5,35,132.7
4816,F4,790.5,0.125,39,132.7
4817,C4,790.5,0.125,39,132.7
4818,C4,791.0,0.125,34,132.7
4819,G3,791.0,0.125,34,132.7
4820,F4,791.5,0.125,38,132.7
4821,C4,791.5,0.125,38,132.7
4822,G3,792.0,0.125,32,132.7
4823,C4,792.0,0.125,32,132.7
4824,F4,792.5,0.125,36,132.7
4825,C4,792.5,0.125,36,132.7
4826,G3,793.0,0.125,30,132.7
4827,C4,793.0,0.125,30,132.7
4828,E3,793.0,1.5,35,132.7
4829,E2,793.0,1.5,35,132.7
4830,E4,793.5,0.125,34,132.7
4831,C4,793.5,0.125,34,132.7
4832,C4,794.0,0.125,25,132.7
4833,G3,794.0,0.125,25,132.7
4834,E4,794.5,0.125,30,132.7
4835,C4,794.5,0.125,30,132.7
4836,F3,794.5,1.5,35,132.7
4837,F2,794.5,1.5,35,132.7
4838,C4,795.0,0.125,23,132.7
4839,G3,795.0,0.125,23,132.7
4840,C4,795.5,0.125,29,132.7
4841,E4,795.5,0.125,29,132.7
4842,G3,796.0,0.125,23,132.7
4843,C4,796.0,0.125,23,132.7
4844,F3,797.5,1.5,35,132.7
4845,F2,797.5,1.5,35,132.7
4846,B2,799.0,1.5,44,132.7
4847,B1,799.0,1.5,44,132.7
4848,F5,799.5,0.5,88,132.7
4849,F4,800.0,0.5,80,132.7
4850,F5,800.5,0.125,80,132.7
4851,G#5,801.0,0.5,88,132.7
4852,G#4,801.5,0.5,80,132.7
4853,G#5,802.0,0.125,80,132.7
4854,C6,802.5,0.5,88,132.7
4855,C5,803.0,0.5,80,132.7
4856,C6,803.5,0.125,80,132.7
4857,G5,804.0,0.5,88,132.7
4858,G4,804.5,0.5,80,132.7
4859,G5,805.0,0.125,80,132.7
4860,B2,805.0,1.5,44,132.7
4861,B1,805.0,1.5,44,132.7
4862,B-5,805.5,0.5,88,132.7
4863,B-4,806.0,0.5,80,132.7
4864,B-5,806.5,0.125,80,132.7
4865,F5,807.0,0.5,88,132.7
4866,F4,807.5,0.5,80,132.7
4867,F5,808.0,0.125,80,132.7
4868,G#5,808.5,0.5,81,132.7
4869,F5,808.5,0.5,81,132.7
4870,G#4,809.0,0.5,80,132.7
4871,F5,809.5,0.125,74,132.7
4872,G#5,809.5,0.125,74,132.7
4873,B2,809.5,1.5,44,132.7
4874,B1,809.5,1.5,44,132.7
4875,G5,810.0,0.5,74,132.7
4876,E5,810.0,0.5,74,132.7
4877,G4,810.5,0.5,80,132.7
4878,G5,811.0,0.125,74,132.7
4879,E5,811.0,0.125,74,132.7
4880,F5,811.5,0.5,88,132.7
4881,F4,812.0,0.5,80,132.7
4882,F5,812.5,0.125,80,132.7
4883,B2,812.5,1.5,44,132.7
4884,B1,812.5,1.5,44,132.7
4885,G#5,813.0,0.5,81,132.7
4886,F5,813.0,0.5,81,132.7
4887,G#4,813.5,0.5,80,132.7
4888,F5,814.0,0.125,74,132.7
4889,G#5,814.0,0.125,74,132.7
4890,C2,814.0,1.5,36,132.7
4891,C3,814.0,1.5,36,132.7
4892,E-5,814.5,0.5,74,132.7
4893,C6,814.5,0.5,74,132.7
4894,C5,815.0,0.5,80,132.7
4895,E-5,815.5,0.125,74,132.7
4896,C6,815.5,0.125,74,132.7
4897,E-5,816.0,0.5,81,132.7
4898,G5,816.0,0.5,81,132.7
4899,B-4,816.5,0.5,80,132.7
4900,G5,817.0,0.125,74,132.7
4901,E-5,817.0,0.125,74,132.7
4902,F5,817.5,0.5,79,132.7
4903,B-5,817.5,0.5,79,132.7
4904,C#5,817.5,0.5,79,132.7
4905,B-4,818.0,0.5,80,132.7
4906,F5,818.5,0.125,72,132.7
4907,C#5,818.5,0.125,72,132.7
4908,B-5,818.5,0.125,72,132.7
4909,G#4,819.0,0.5,74,132.7
4910,F5,819.0,0.5,74,132.7
4911,F4,819.5,0.5,80,132.7
4912,G#4,820.0,0.125,74,132.7
4913,F5,820.0,0.125,74,132.7
4914,C2,820.0,1.5,36,132.7
4915,C3,820.0,1.5,36,132.7
4916,F5,820.5,0.5,81,132.7
4917,G#5,820.5,0.5,81,132.7
4918,G#4,821.0,0.5,80,132.7
4919,F5,821.5,0.125,74,132.7
4920,G#5,821.5,0.125,74,132.7
4921,E5,822.0,0.5,81,132.7
4922,G5,822.0,0.5,81,132.7
4923,G4,822.5,0.5,80,132.7
4924,G5,823.0,0.125,74,132.7
4925,E5,823.0,0.125,74,132.7
4926,F6,823.5,0.5,88,132.7
4927,F5,824.0,0.25,72,132.7
4928,F6,824.25,0.25,72,132.7
4929,F5,824.5,0.125,80,132.7
4930,C2,824.5,1.5,36,132.7
4931,C3,824.5,1.5,36,132.7
4932,G#6,825.0,0.5,81,132.7
4933,F6,825.0,0.5,81,132.7
4934,G#5,825.5,0.25,72,132.7
4935,G#6,825.75,0.25,54,132.7
4936,F6,825.75,0.25,54,132.7
4937,G#5,826.0,0.125,80,132.7
4938,C7,826.5,0.5,81,132.7
4939,E-6,826.5,0.5,81,132.7
4940,C6,827.0,0.25,72,132.7
4941,E-6,827.25,0.25,57,132.7
4942,C7,827.25,0.25,57,132.7
4943,C6,827.5,0.125,80,132.7
4944,C2,827.5,1.5,36,132.7
4945,C3,827.5,1.5,36,132.7
4946,E-6,828.0,0.5,81,132.7
4947,G6,828.0,0.5,81,132.7
4948,B-5,828.5,0.25,72,132.7
4949,G6,828.75,0.25,59,132.7
4950,E-6,828.75,0.25,59,132.7
4951,B-5,829.0,0.125,80,132.7
4952,B-2,829.0,1.5,36,132.7
4953,B-1,829.0,1.5,36,132.7
4954,F6,829.5,0.5,79,132.7
4955,C#6,829.5,0.5,79,132.7
4956,B-6,829.5,0.5,79,132.7
4957,B-5,830.0,0.25,72,132.7
4958,B-6,830.25,0.25,57,132.7
4959,C#6,830.25,0.25,57,132.7
4960,F6,830.25,0.25,57,132.7
4961,B-5,830.5,0.125,80,132.7
4962,G#5,831.0,0.5,81,132.7
4963,F6,831.0,0.5,81,132.7
4964,F5,831.5,0.25,72,132.7
4965,G#5,831.75,0.25,58,132.7
4966,F6,831.75,0.25,58,132.7
4967,F5,832.0,0.125,80,132.7
4968,F6,832.5,0.5,81,132.7
4969,G#6,832.5,0.5,81,132.7
4970,G#5,833.0,0.25,72,132.7
4971,F6,833.25,0.25,58,132.7
4972,G#6,833.25,0.25,58,132.7
4973,G#5,833.5,0.125,80,132.7
4974,B-2,833.5,1.5,36,132.7
4975,B-1,833.5,1.5,36,132.7
4976,E6,834.0,0.5,74,132.7
4977,G6,834.0,0.5,74,132.7
4978,G5,834.5,0.25,72,132.7
4979,E6,834.75,0.25,57,132.7
4980,G6,834.75,0.25,57,132.7
4981,G5,835.0,0.125,80,132.7
4982,G#6,835.5,0.5,81,132.7
4983,F6,835.5,0.5,81,132.7
4984,G#5,836.0,0.25,72,132.7
4985,G#6,836.25,0.25,59,132.7
4986,F6,836.25,0.25,59,132.7
4987,G#5,836.5,0.125,81,132.7
4988,B-2,836.5,1.5,36,132.7
4989,B-1,836.5,1.5,36,132.7
4990,E6,837.0,0.5,82,132.7
4991,C7,837.0,0.5,82,132.7
4992,G6,837.0,0.5,82,132.7
4993,C6,837.5,0.25,75,132.7
4994,C7,837.75,0.25,63,132.7
4995,E6,837.75,0.25,63,132.7
4996,G6,837.75,0.25,63,132.7
4997,C6,838.0,0.125,84,132.7
4998,B2,838.0,1.5,31,132.7
4999,B1,838.0,1.5,31,132.7
5000,C7,838.5,0.5,74,132.7
5001,G#6,838.5,0.5,74,132.7
5002,F6,838.5,0.5,74,132.7
5003,C6,839.0,0.25,78,132.7
5004,C7,839.25,0.25,62,132.7
5005,F6,839.25,0.25,62,132.7
5006,G#6,839.25,0.25,62,132.7
5007,C6,839.5,0.125,88,132.7
5008,C2,839.5,1.5,36,132.7
5009,C3,839.5,1.5,36,132.7
5010,G6,840.0,0.5,88,132.7
5011,C7,840.0,0.5,88,132.7
5012,E7,840.0,0.5,88,132.7
5013,E6,840.5,0.25,81,132.7
5014,C7,840.75,0.25,65,132.7
5015,G6,840.75,0.25,65,132.7
5016,E7,840.75,0.25,65,132.7
5017,E6,841.0,0.125,91,132.7
5018,F6,841.25,83/1000,85,132.7
5019,G#6,841.333,83/1000,90,132.7
5020,C7,841.417,83/1000,96,132.7
5021,F7,841.5,0.25,105,132.7
5022,E-7,841.75,0.25,103,132.7
5023,C#7,842.0,0.25,101,132.7
5024,C7,842.25,0.25,98,132.7
5025,B-6,842.5,0.25,96,132.7
5026,G#6,842.75,0.25,94,132.7
5027,G6,843.0,0.25,92,132.7
5028,F6,843.25,0.25,89,132.7
5029,E-6,843.5,0.25,87,132.7
5030,C#6,843.75,0.25,85,132.7
5031,C6,844.0,0.25,82,132.7
5032,B-5,844.25,0.25,80,132.7
5033,G#5,844.5,0.25,80,132.7
5034,G5,844.75,0.25,79,132.7
5035,F5,845.0,0.25,78,132.7
5036,E-5,845.25,0.25,78,132.7
5037,C#5,845.5,0.25,77,132.7
5038,C2,845.5,1.5,36,132.7
5039,C3,845.5,1.5,36,132.7
5040,C5,845.75,0.25,76,132.7
5041,B-4,846.0,0.25,75,132.7
5042,G#4,846.25,0.25,74,132.7
5043,G4,846.5,0.25,73,132.7
5044,F4,846.75,0.25,72,132.7
5045,E-4,847.0,0.25,71,132.7
5046,C#4,847.25,0.25,70,132.7
5047,C2,850.0,1.5,36,132.7
5048,C3,850.0,1.5,36,132.7
5049,C2,853.0,1.5,36,132.7
5050,C3,853.0,1.5,36,132.7
5051,C2,854.5,1.5,36,132.7
5052,C3,854.5,1.5,36,132.7
5053,C2,860.5,1.5,36,132.7
5054,C3,860.5,1.5,36,132.7
5055,C2,865.0,1.5,36,132.7
5056,C3,865.0,1.5,36,132.7
5057,C2,868.0,1.5,36,132.7
5058,C3,868.0,1.5,36,132.7
5059,F2,872.5,0.5,80,132.7
5060,F3,873.0,0.5,71,132.7
5061,F2,873.5,0.125,71,132.7
5062,G#2,874.0,0.5,80,132.7
5063,G#3,874.5,0.5,75,132.7
5064,G#2,875.0,0.125,80,132.7
5065,C3,875.5,0.5,80,132.7
5066,C4,876.0,0.5,74,132.7
5067,C3,876.5,0.125,74,132.7
5068,G2,877.0,0.5,80,132.7
5069,G3,877.5,0.5,71,132.7
5070,G2,878.0,0.125,71,132.7
5071,B-2,878.5,0.5,80,132.7
5072,B-3,879.0,0.5,75,132.7
5073,B-2,879.5,0.125,80,132.7
5074,F2,880.0,0.5,80,132.7
5075,F3,880.5,0.5,74,132.7
5076,F2,881.0,0.125,74,132.7
5077,C2,881.5,0.5,80,132.7
5078,C3,882.0,0.5,71,132.7
5079,C2,882.5,0.125,71,132.7
5080,C2,883.0,0.5,80,132.7
5081,C3,883.5,0.5,75,132.7
5082,C2,884.0,0.125,80,132.7
5083,F2,884.5,0.5,80,132.7
5084,F3,885.0,0.5,74,132.7
5085,F2,885.5,0.125,74,132.7
5086,C#2,886.0,0.5,80,132.7
5087,C#3,886.5,0.5,71,132.7
5088,C#2,887.0,0.125,71,132.7
5089,G#1,887.5,0.5,80,132.7
5090,G#2,888.0,0.5,75,132.7
5091,G#1,888.5,0.125,80,132.7
5092,E-2,889.0,0.5,80,132.7
5093,E-3,889.5,0.5,74,132.7
5094,E-2,890.0,0.125,74,132.7
5095,B-1,890.5,0.5,80,132.7
5096,B-2,891.0,0.5,71,132.7
5097,B-1,891.5,0.125,71,132.7
5098,C#2,892.0,0.5,80,132.7
5099,C#3,892.5,0.5,75,132.7
5100,C#2,893.0,0.125,80,132.7
5101,C2,893.5,0.5,80,132.7
5102,C3,894.0,0.5,74,132.7
5103,C2,894.5,0.125,74,132.7
5104,C2,895.0,0.5,80,132.7
5105,C3,895.5,0.5,74,132.7
5106,C2,896.0,0.125,74,132.7
5107,F3,896.5,0.5,80,132.7
5108,F4,897.0,0.25,63,132.7
5109,F3,897.25,0.25,54,132.7
5110,F4,897.5,0.125,71,132.7
5111,C#3,898.0,0.5,80,132.7
5112,C#4,898.5,0.25,67,132.7
5113,C#3,898.75,0.25,57,132.7
5114,C#4,899.0,0.125,80,132.7
5115,G#2,899.5,0.5,80,132.7
5116,G#3,900.0,0.25,66,132.7
5117,G#2,900.25,0.25,56,132.7
5118,G#3,900.5,0.125,74,132.7
5119,E-3,901.0,0.5,80,132.7
5120,E-4,901.5,0.25,63,132.7
5121,E-3,901.75,0.25,56,132.7
5122,E-4,902.0,0.125,71,132.7
5123,B-2,902.5,0.5,80,132.7
5124,B-3,903.0,0.25,67,132.7
5125,B-2,903.25,0.25,59,132.7
5126,B-3,903.5,0.125,80,132.7
5127,C#3,904.0,0.5,80,132.7
5128,C#4,904.5,0.25,66,132.7
5129,C#3,904.75,0.25,59,132.7
5130,C#4,905.0,0.125,74,132.7
5131,C3,905.5,0.5,80,132.7
5132,C4,906.0,0.25,63,132.7
5133,C3,906.25,0.25,54,132.7
5134,C4,906.5,0.125,71,132.7
5135,C3,907.0,0.5,80,132.7
5136,C4,907.5,0.25,67,132.7
5137,C3,907.75,0.25,59,132.7
5138,C4,908.0,0.125,80,132.7
5139,C3,908.5,0.5,80,132.7
5140,C4,909.0,0.25,66,132.7
5141,C3,909.25,0.25,58,132.7
5142,C4,909.5,0.125,75,132.7
5143,C3,910.0,0.5,83,132.7
5144,C4,910.5,0.25,66,132.7
5145,C3,910.75,0.25,58,132.7
5146,C4,911.0,0.125,75,132.7
5147,C3,911.5,0.5,86,132.7
5148,C4,912.0,0.25,73,132.7
5149,C3,912.25,0.25,64,132.7
5150,C4,912.5,0.125,88,132.7
5151,C3,913.0,0.5,89,132.7
5152,C4,913.5,0.25,74,132.7
5153,C3,913.75,0.25,64,132.7
5154,C4,914.0,0.125,84,132.7
5155,F4,914.5,9/20,59,132.7
5156,C4,914.5,9/20,59,132.7
5157,G#3,914.5,9/20,59,132.7
5158,F3,914.5,9/20,59,132.7
5159,F4,915.0,9/20,50,132.7
5160,C4,915.0,9/20,50,132.7
5161,G#3,915.0,9/20,50,132.7
5162,F3,915.0,9/20,50,132.7
5163,F4,915.5,0.5,50,132.7
5164,C4,915.5,0.5,50,132.7
5165,G#3,915.5,0.5,50,132.7
5166,F3,915.5,0.5,50,132.7
5167,F4,916.0,1.5,50,132.7
5168,C4,916.0,1.5,50,132.7
5169,G#3,916.0,1.5,50,132.7
5170,F3,916.0,1.5,50,132.7
5171,F4,919.5,1.5,50,132.7
5172,C4,919.5,1.5,50,132.7
5173,G#3,919.5,1.5,50,132.7
5174,F3,919.5,1.5,50,132.7
5175,F4,921.5,0.5,50,132.7
5176,C4,921.5,0.5,50,132.7
5177,G#3,921.5,0.5,50,132.7
5178,F3,921.5,0.5,50,132.7
5179,C4,923.0,0.25,68,132.7
5180,B-3,923.25,0.25,67,132.7
5181,G#3,923.5,0.25,67,132.7
5182,G3,923.75,0.25,66,132.7
5183,F3,924.0,0.25,65,132.7
5184,E-3,924.25,0.25,64,132.7
5185,C#3,924.5,0.25,63,132.7
5186,C3,924.75,0.25,63,132.7
5187,B-2,925.0,0.25,64,132.7
5188,G#2,925.25,0.25,65,132.7
5189,G2,925.5,0.25,66,132.7
5190,F2,925.75,0.25,67,132.7
5191,E-2,926.0,0.25,68,132.7
5192,C#2,926.25,0.25,69,132.7
5193,C2,926.5,0.25,70,132.7
5194,B-1,926.75,0.25,74,132.7
5195,G#1,927.0,0.25,79,132.7
5196,G1,927.25,0.25,83,132.7
5197,F1,927.5,0.5,102,132.7
