,note_name,start_time,duration,velocity,tempo
0,G#4,1.5,0.5,60,102.5
1,E4,2.0,0.25,66,102.5
2,C#3,2.0,0.25,54,102.5
3,C#4,2.25,0.25,60,102.5
4,E4,2.5,0.25,60,102.5
5,G#3,2.5,0.25,50,102.5
6,G#4,2.75,0.25,60,102.5
7,E4,3.0,0.25,64,102.5
8,C#3,3.0,0.25,54,102.5
9,C#4,3.25,0.25,60,102.5
10,E4,3.5,0.25,60,102.5
11,A3,3.5,0.25,50,102.5
12,A4,3.75,0.25,60,102.5
13,E-4,4.0,0.25,63,102.5
14,C3,4.0,0.25,54,102.5
15,C4,4.25,0.25,60,102.5
16,E-4,4.5,0.25,60,102.5
17,A3,4.5,0.25,51,102.5
18,A4,4.75,0.25,60,102.5
19,E-4,5.0,0.25,63,102.5
20,C3,5.0,0.25,54,102.5
21,C4,5.25,0.25,60,102.5
22,E-4,5.5,0.25,60,102.5
23,G#3,5.5,0.25,50,102.5
24,G#4,5.75,0.25,60,102.5
25,G#4,6.0,0.25,66,102.5
26,C#3,6.0,0.25,55,102.5
27,E4,6.25,0.25,63,102.5
28,G#4,6.5,0.25,63,102.5
29,G#3,6.5,0.25,51,102.5
30,E5,6.75,0.25,63,102.5
31,G#4,7.0,0.25,66,102.5
32,E3,7.0,0.25,55,102.5
33,E4,7.25,0.25,63,102.5
34,G#4,7.5,0.25,63,102.5
35,G#3,7.5,0.25,52,102.5
36,C#5,7.75,0.25,63,102.5
37,A4,8.0,0.25,67,102.5
38,E-3,8.0,0.25,56,102.5
39,G#4,8.25,0.25,60,102.5
40,F#4,8.5,0.25,61,102.5
41,A3,8.5,0.25,52,102.5
42,C#5,8.75,0.25,62,102.5
43,C5,9.0,0.25,68,102.5
44,E-3,9.0,0.25,55,102.5
45,F#4,9.25,0.25,65,102.5
46,G#4,9.5,0.25,66,102.5
47,G#3,9.5,0.25,52,102.5
48,C5,9.75,0.25,67,102.5
49,C#5,10.0,0.25,72,102.5
50,C#3,10.0,0.25,56,102.5
51,E4,10.25,0.25,63,102.5
52,G#4,10.5,0.25,65,102.5
53,C#4,10.5,0.25,50,102.5
54,C#5,10.75,0.25,67,102.5
55,E5,11.0,0.25,69,102.5
56,C#3,11.0,0.25,55,102.5
57,G#4,11.25,0.25,64,102.5
58,E5,11.5,0.25,66,102.5
59,B3,11.5,0.25,51,102.5
60,G#5,11.75,0.25,68,102.5
61,E5,12.0,0.25,73,102.5
62,F#3,12.0,0.25,57,102.5
63,A4,12.25,0.25,64,102.5
64,E5,12.5,0.25,66,102.5
65,A3,12.5,0.25,56,102.5
66,G#5,12.75,0.25,68,102.5
67,D5,13.0,0.25,70,102.5
68,F#3,13.0,0.25,57,102.5
69,F#5,13.25,0.25,67,102.5
70,C#5,13.5,0.25,70,102.5
71,A3,13.5,0.25,54,102.5
72,E5,13.75,0.25,67,102.5
73,C5,14.0,0.25,68,102.5
74,A2,14.0,0.25,58,102.5
75,E-5,14.25,0.25,65,102.5
76,C#5,14.5,0.25,67,102.5
77,F#3,14.5,0.25,54,102.5
78,E5,14.75,0.25,65,102.5
79,E-5,15.0,0.25,68,102.5
80,G#2,15.0,0.25,56,102.5
81,F#5,15.25,0.25,64,102.5
82,C5,15.5,0.25,69,102.5
83,G#3,15.5,0.25,54,102.5
84,E-5,15.75,0.25,64,102.5
85,E5,16.0,0.25,68,102.5
86,C#3,16.0,0.25,54,102.5
87,C#5,16.25,0.25,67,102.5
88,B4,16.5,0.25,66,102.5
89,E-3,16.5,0.25,54,102.5
90,A4,16.75,0.25,64,102.5
91,G#4,17.0,0.25,63,102.5
92,E3,17.0,0.25,55,102.5
93,F#4,17.25,0.25,62,102.5
94,E4,17.5,0.25,60,102.5
95,G#3,17.5,0.25,56,102.5
96,E-4,17.75,0.25,59,102.5
97,E4,18.0,0.25,62,102.5
98,C#3,18.0,0.25,51,102.5
99,C#4,18.25,0.25,57,102.5
100,E4,18.5,0.25,57,102.5
101,G#3,18.5,0.25,47,102.5
102,G#4,18.75,0.25,57,102.5
103,E4,19.0,0.25,60,102.5
104,C#3,19.0,0.25,51,102.5
105,C#4,19.25,0.25,57,102.5
106,E4,19.5,0.25,57,102.5
107,A3,19.5,0.25,47,102.5
108,A4,19.75,0.25,57,102.5
109,E-4,20.0,0.25,59,102.5
110,B2,20.0,0.25,51,102.5
111,B3,20.25,0.25,57,102.5
112,E-4,20.5,0.25,57,102.5
113,A3,20.5,0.25,48,102.5
114,A4,20.75,0.25,57,102.5
115,E-4,21.0,0.25,59,102.5
116,B2,21.0,0.25,51,102.5
117,B3,21.25,0.25,57,102.5
118,E-4,21.5,0.25,57,102.5
119,G#3,21.5,0.25,47,102.5
120,G#4,21.75,0.25,57,102.5
121,G#4,22.0,0.25,62,102.5
122,E3,22.0,0.25,52,102.5
123,C#4,22.25,0.25,59,102.5
124,G#4,22.5,0.25,59,102.5
125,G#3,22.5,0.25,48,102.5
126,C#5,22.75,0.25,59,102.5
127,F#4,23.0,0.25,62,102.5
128,A2,23.0,0.25,52,102.5
129,E-4,23.25,0.25,59,102.5
130,F#4,23.5,0.25,59,102.5
131,A3,23.5,0.25,49,102.5
132,C#5,23.75,0.25,59,102.5
133,G#4,24.0,0.25,63,102.5
134,G#2,24.0,0.25,51,102.5
135,E4,24.25,0.25,59,102.5
136,G#4,24.5,0.25,59,102.5
137,B3,24.5,0.25,49,102.5
138,C#5,24.75,0.25,59,102.5
139,G#4,25.0,0.25,62,102.5
140,G#3,25.0,0.25,52,102.5
141,E4,25.25,0.25,60,102.5
142,G#4,25.5,0.25,60,102.5
143,B3,25.5,0.25,49,102.5
144,B4,25.75,0.25,60,102.5
145,G4,26.0,0.25,68,102.5
146,C#3,26.0,0.25,52,102.5
147,E4,26.25,0.25,59,102.5
148,G4,26.5,0.25,61,102.5
149,E3,26.5,0.25,47,102.5
150,B-4,26.75,0.25,63,102.5
151,E5,27.0,0.25,65,102.5
152,C3,27.0,0.25,52,102.5
153,B-4,27.25,0.25,60,102.5
154,E5,27.5,0.25,62,102.5
155,B-3,27.5,0.25,44,102.5
156,G5,27.75,0.25,64,102.5
157,E-5,28.0,0.25,64,102.5
158,B2,28.0,0.25,48,102.5
159,G5,28.25,0.25,62,102.5
160,E-5,28.5,0.25,63,102.5
161,B3,28.5,0.25,45,102.5
162,F#5,28.75,0.25,61,102.5
163,A4,29.0,0.25,62,102.5
164,C3,29.0,0.25,48,102.5
165,E5,29.25,0.25,61,102.5
166,A4,29.5,0.25,62,102.5
167,F#3,29.5,0.25,43,102.5
168,E-5,29.75,0.25,60,102.5
169,A4,30.0,0.25,59,102.5
170,C#3,30.0,0.25,45,102.5
171,F#5,30.25,0.25,56,102.5
172,G#4,30.5,0.25,59,102.5
173,E3,30.5,0.25,39,102.5
174,E5,30.75,0.25,56,102.5
175,E4,31.0,0.25,58,102.5
176,A2,31.0,0.25,46,102.5
177,C#5,31.25,0.25,55,102.5
178,C#4,31.5,0.25,57,102.5
179,F#3,31.5,0.25,40,102.5
180,A4,31.75,0.25,55,102.5
181,B3,32.0,0.25,57,102.5
182,B2,32.0,0.25,46,102.5
183,G#4,32.25,0.25,55,102.5
184,E4,32.5,0.25,57,102.5
185,G#3,32.5,0.25,43,102.5
186,B4,32.75,0.25,56,102.5
187,B3,33.0,0.25,57,102.5
188,B2,33.0,0.25,45,102.5
189,A4,33.25,0.25,56,102.5
190,E-4,33.5,0.25,57,102.5
191,A3,33.5,0.25,41,102.5
192,B4,33.75,0.25,56,102.5
193,A4,34.0,0.75,57,102.5
194,B2,34.0,0.25,46,102.5
195,E-4,34.25,0.25,54,102.5
196,B3,34.5,0.25,54,102.5
197,F#3,34.5,0.25,39,102.5
198,A4,34.75,0.25,57,102.5
199,G#4,35.0,0.25,57,102.5
200,E3,35.0,0.25,47,102.5
201,E4,35.25,0.25,53,102.5
202,G#4,35.5,0.25,55,102.5
203,F#3,35.5,0.25,41,102.5
204,A4,35.75,0.25,57,102.5
205,B4,36.0,0.25,59,102.5
206,G#3,36.0,0.25,45,102.5
207,G#4,36.25,0.25,50,102.5
208,B4,36.5,0.25,53,102.5
209,B3,36.5,0.25,36,102.5
210,G#5,36.75,0.25,46,102.5
211,B4,37.0,0.25,49,102.5
212,G#3,37.0,0.25,34,102.5
213,F#5,37.25,0.25,44,102.5
214,C5,37.5,0.25,49,102.5
215,E4,37.5,0.25,31,102.5
216,E5,37.75,0.25,46,102.5
217,C#5,38.0,0.25,53,102.5
218,A3,38.0,0.25,45,102.5
219,E4,38.25,0.25,56,102.5
220,C#5,38.5,0.25,54,102.5
221,A2,38.5,0.25,40,102.5
222,E5,38.75,0.25,55,102.5
223,B4,39.0,0.25,59,102.5
224,B2,39.0,0.25,41,102.5
225,E-5,39.25,0.25,54,102.5
226,A4,39.5,0.25,57,102.5
227,C#3,39.5,0.25,42,102.5
228,C#5,39.75,0.25,54,102.5
229,G#4,40.0,0.25,57,102.5
230,B2,40.0,0.25,45,102.5
231,B3,40.25,0.25,54,102.5
232,G#4,40.5,0.25,54,102.5
233,E3,40.5,0.25,39,102.5
234,B4,40.75,0.25,54,102.5
235,E4,41.0,0.25,57,102.5
236,B2,41.0,0.25,43,102.5
237,B-3,41.25,0.25,51,102.5
238,E4,41.5,0.25,52,102.5
239,G3,41.5,0.25,41,102.5
240,C#5,41.75,0.25,52,102.5
241,F#4,42.0,0.25,54,102.5
242,B2,42.0,0.25,41,102.5
243,A3,42.25,0.25,49,102.5
244,F#4,42.5,0.25,49,102.5
245,E3,42.5,0.25,39,102.5
246,B4,42.75,0.25,49,102.5
247,F#4,43.0,0.25,53,102.5
248,B2,43.0,0.25,41,102.5
249,A3,43.25,0.25,48,102.5
250,F#4,43.5,0.25,48,102.5
251,E-3,43.5,0.25,37,102.5
252,B4,43.75,0.25,48,102.5
253,E4,44.0,0.25,48,102.5
254,E3,44.0,0.5,48,102.5
255,G#3,44.25,0.25,44,102.5
256,E4,44.5,0.25,44,102.5
257,G#4,44.75,0.25,44,102.5
258,B2,45.0,0.25,48,102.5
259,E2,45.25,0.25,44,102.5
260,B2,45.5,0.25,44,102.5
261,E3,45.75,0.25,45,102.5
262,E-4,46.0,0.25,48,102.5
263,A3,46.25,0.25,43,102.5
264,E-4,46.5,0.25,43,102.5
265,B4,46.75,0.25,43,102.5
266,B2,47.0,0.25,48,102.5
267,E2,47.25,0.25,44,102.5
268,B2,47.5,0.25,44,102.5
269,F#3,47.75,0.25,44,102.5
270,E4,48.0,0.25,48,102.5
271,G#3,48.25,0.25,45,102.5
272,E4,48.5,0.25,45,102.5
273,G#4,48.75,0.25,45,102.5
274,G#4,49.0,0.25,44,102.5
275,E3,49.0,0.25,46,102.5
276,B4,49.25,0.25,49,102.5
277,G#3,49.25,0.25,47,102.5
278,E5,49.5,0.25,53,102.5
279,B3,49.5,0.25,52,102.5
280,G#5,49.75,0.25,58,102.5
281,E4,49.75,0.25,56,102.5
282,G#5,50.0,0.5,62,102.5
283,E4,50.0,0.5,58,102.5
284,G#4,50.25,0.25,46,102.5
285,E5,50.5,0.5,56,102.5
286,C#4,50.5,0.5,55,102.5
287,G#4,50.75,0.25,47,102.5
288,E-5,51.0,0.5,53,102.5
289,C4,51.0,0.5,52,102.5
290,G#4,51.25,0.25,44,102.5
291,D5,51.5,0.5,50,102.5
292,B3,51.5,0.5,49,102.5
293,G#4,51.75,0.25,44,102.5
294,C#5,52.0,0.25,48,102.5
295,A3,52.0,0.5,46,102.5
296,C#4,52.25,0.25,43,102.5
297,A4,52.5,0.25,43,102.5
298,C#5,52.75,0.25,43,102.5
299,E3,53.0,0.25,48,102.5
300,A2,53.25,0.25,44,102.5
301,E3,53.5,0.25,44,102.5
302,A3,53.75,0.25,44,102.5
303,G#4,54.0,0.25,48,102.5
304,D4,54.25,0.25,42,102.5
305,G#4,54.5,0.25,42,102.5
306,E5,54.75,0.25,42,102.5
307,E3,55.0,0.25,48,102.5
308,A2,55.25,0.25,41,102.5
309,E3,55.5,0.25,41,102.5
310,B3,55.75,0.25,41,102.5
311,A4,56.0,0.25,48,102.5
312,C#4,56.25,0.25,42,102.5
313,A4,56.5,0.25,42,102.5
314,C#5,56.75,0.25,43,102.5
315,C#5,57.0,0.25,43,102.5
316,A3,57.0,0.25,44,102.5
317,E5,57.25,0.25,48,102.5
318,C#4,57.25,0.25,49,102.5
319,A5,57.5,0.25,53,102.5
320,E4,57.5,0.25,54,102.5
321,C#6,57.75,0.25,59,102.5
322,A4,57.75,0.25,59,102.5
323,C#6,58.0,0.25,64,102.5
324,A4,58.0,0.5,62,102.5
325,C#5,58.25,0.25,56,102.5
326,A5,58.5,0.25,61,102.5
327,F#4,58.5,0.5,51,102.5
328,C#5,58.75,0.25,56,102.5
329,G#5,59.0,0.25,61,102.5
330,B4,59.0,0.5,51,102.5
331,E5,59.25,0.25,56,102.5
332,F#5,59.5,0.25,61,102.5
333,A4,59.5,0.5,51,102.5
334,B3,59.5,0.5,51,102.5
335,E-5,59.75,0.25,55,102.5
336,E4,60.0,0.25,66,102.5
337,G#4,60.0,0.25,66,102.5
338,E5,60.0,0.25,66,102.5
339,G#4,60.25,0.25,61,102.5
340,F#4,60.5,0.25,61,102.5
341,F#3,60.5,0.5,62,102.5
342,G#3,60.5,1.5,62,102.5
343,G#4,60.75,0.25,61,102.5
344,E4,61.0,0.25,58,102.5
345,E3,61.0,0.5,71,102.5
346,G#4,61.25,0.25,62,102.5
347,E-4,61.5,0.25,66,102.5
348,E-3,61.5,0.5,78,102.5
349,G#4,61.75,0.25,69,102.5
350,E4,62.0,0.25,80,102.5
351,C#3,62.0,0.25,85,102.5
352,C#4,62.25,0.25,74,102.5
353,E4,62.5,0.25,74,102.5
354,C3,62.5,0.25,77,102.5
355,G#4,62.75,0.25,74,102.5
356,E4,63.0,0.25,78,102.5
357,C#3,63.0,0.25,76,102.5
358,C#4,63.25,0.25,74,102.5
359,E4,63.5,0.25,74,102.5
360,E3,63.5,0.25,76,102.5
361,A4,63.75,0.25,74,102.5
362,E-4,64.0,0.25,76,102.5
363,C3,64.0,0.25,82,102.5
364,C4,64.25,0.25,74,102.5
365,E-4,64.5,0.25,74,102.5
366,E-3,64.5,0.25,76,102.5
367,A4,64.75,0.25,74,102.5
368,E-4,65.0,0.25,76,102.5
369,G#3,65.0,0.25,76,102.5
370,C4,65.25,0.25,74,102.5
371,E-4,65.5,0.25,74,102.5
372,C3,65.5,0.25,76,102.5
373,G#4,65.75,0.25,74,102.5
374,G#4,66.0,0.25,80,102.5
375,C#3,66.0,0.25,80,102.5
376,E4,66.25,0.25,76,102.5
377,G#4,66.5,0.25,76,102.5
378,E-3,66.5,0.25,76,102.5
379,E5,66.75,0.25,76,102.5
380,G#4,67.0,0.25,80,102.5
381,E3,67.0,0.25,76,102.5
382,E4,67.25,0.25,76,102.5
383,G#4,67.5,0.25,76,102.5
384,C#3,67.5,0.25,76,102.5
385,C#5,67.75,0.25,76,102.5
386,A4,68.0,0.25,82,102.5
387,E-3,68.0,0.25,76,102.5
388,G#4,68.25,0.25,74,102.5
389,F#4,68.5,0.25,75,102.5
390,A3,68.5,0.25,83,102.5
391,C#5,68.75,0.25,76,102.5
392,C5,69.0,0.25,83,102.5
393,G#3,69.0,0.25,81,102.5
394,E-4,69.25,0.25,79,102.5
395,G#4,69.5,0.25,80,102.5
396,F#3,69.5,0.25,76,102.5
397,C5,69.75,0.25,82,102.5
398,C#5,70.0,0.25,88,102.5
399,E3,70.0,0.25,74,102.5
400,G#4,70.25,0.25,76,102.5
401,C#5,70.5,0.25,79,102.5
402,E-3,70.5,0.25,76,102.5
403,E5,70.75,0.25,82,102.5
404,E5,71.0,0.25,84,102.5
405,C#3,71.0,0.25,79,102.5
406,G#4,71.25,0.25,82,102.5
407,E5,71.5,0.25,86,102.5
408,B2,71.5,0.25,80,102.5
409,G#5,71.75,0.25,90,102.5
410,E5,72.0,0.25,93,102.5
411,A2,72.0,0.25,84,102.5
412,A4,72.25,0.25,90,102.5
413,E5,72.5,0.25,88,102.5
414,F#2,72.5,0.125,78,102.5
415,G#5,72.75,0.25,85,102.5
416,G#2,72.75,0.125,78,102.5
417,D5,73.0,0.25,86,102.5
418,A2,73.0,0.25,83,102.5
419,F#5,73.25,0.25,82,102.5
420,C#5,73.5,0.25,86,102.5
421,F#2,73.5,0.25,79,102.5
422,E5,73.75,0.25,82,102.5
423,C5,74.0,0.25,83,102.5
424,G#2,74.0,0.25,85,102.5
425,E-5,74.25,0.25,79,102.5
426,C#5,74.5,0.25,82,102.5
427,F#2,74.5,0.125,80,102.5
428,E5,74.75,0.25,76,102.5
429,E2,74.75,0.125,80,102.5
430,E-5,75.0,0.25,81,102.5
431,E-2,75.0,0.25,85,102.5
432,F#5,75.25,0.25,75,102.5
433,C5,75.5,0.25,79,102.5
434,G#2,75.5,0.25,80,102.5
435,E-5,75.75,0.25,72,102.5
436,E5,76.0,0.25,79,102.5
437,C#2,76.0,0.25,88,102.5
438,C#5,76.25,0.25,74,102.5
439,B4,76.5,0.25,69,102.5
440,G#2,76.5,0.5,70,102.5
441,A4,76.75,0.25,65,102.5
442,G#4,77.0,0.25,61,102.5
443,B-2,77.0,0.5,58,102.5
444,F#4,77.25,0.25,57,102.5
445,E4,77.5,0.25,53,102.5
446,C3,77.5,0.5,48,102.5
447,E-4,77.75,0.25,48,102.5
448,E4,78.0,0.25,42,102.5
449,C#3,78.0,0.5,40,102.5
450,C#4,78.25,0.25,45,102.5
451,E4,78.5,0.25,45,102.5
452,E3,78.5,0.5,37,102.5
453,G#4,78.75,0.25,45,102.5
454,E4,79.0,0.25,48,102.5
455,E-3,79.0,0.5,38,102.5
456,C#4,79.25,0.25,45,102.5
457,E4,79.5,0.25,45,102.5
458,C#3,79.5,0.5,37,102.5
459,A4,79.75,0.25,45,102.5
460,E-4,80.0,0.25,47,102.5
461,B2,80.0,0.5,40,102.5
462,B3,80.25,0.25,45,102.5
463,E-4,80.5,0.25,45,102.5
464,E-3,80.5,0.5,38,102.5
465,A4,80.75,0.25,45,102.5
466,E-4,81.0,0.25,47,102.5
467,G#3,81.0,0.5,40,102.5
468,B3,81.25,0.25,45,102.5
469,E-4,81.5,0.25,45,102.5
470,B2,81.5,0.5,37,102.5
471,G#4,81.75,0.25,45,102.5
472,G#4,82.0,0.25,49,102.5
473,A2,82.0,0.5,41,102.5
474,C#4,82.25,0.25,47,102.5
475,G#4,82.5,0.25,47,102.5
476,C#3,82.5,0.5,38,102.5
477,C#5,82.75,0.25,47,102.5
478,F#4,83.0,0.25,49,102.5
479,B2,83.0,0.5,38,102.5
480,E-4,83.25,0.25,47,102.5
481,F#4,83.5,0.25,47,102.5
482,A2,83.5,0.5,39,102.5
483,C#5,83.75,0.25,47,102.5
484,G#4,84.0,0.25,50,102.5
485,G#2,84.0,0.5,40,102.5
486,E4,84.25,0.25,47,102.5
487,G#4,84.5,0.25,47,102.5
488,B2,84.5,0.5,39,102.5
489,C#5,84.75,0.25,47,102.5
490,G#4,85.0,0.25,49,102.5
491,E3,85.0,0.5,41,102.5
492,E4,85.25,0.25,48,102.5
493,G#4,85.5,0.25,48,102.5
494,G#2,85.5,0.5,39,102.5
495,B4,85.75,0.25,48,102.5
496,G4,86.0,0.25,54,102.5
497,E2,86.0,0.5,41,102.5
498,E4,86.25,0.25,47,102.5
499,G4,86.5,0.25,48,102.5
500,E3,86.5,0.25,37,102.5
501,B-4,86.75,0.25,50,102.5
502,E-3,86.75,0.25,37,102.5
503,E5,87.0,0.25,52,102.5
504,C#3,87.0,0.5,36,102.5
505,B-4,87.25,0.25,48,102.5
506,E5,87.5,0.25,49,102.5
507,C3,87.5,0.5,38,102.5
508,G5,87.75,0.25,51,102.5
509,E-5,88.0,0.25,51,102.5
510,B2,88.0,0.5,43,102.5
511,G5,88.25,0.25,49,102.5
512,E-5,88.5,0.25,50,102.5
513,F#3,88.5,0.5,39,102.5
514,F#5,88.75,0.25,48,102.5
515,A4,89.0,0.25,49,102.5
516,B3,89.0,0.5,47,102.5
517,E5,89.25,0.25,48,102.5
518,A4,89.5,0.25,49,102.5
519,B2,89.5,0.5,34,102.5
520,E-5,89.75,0.25,48,102.5
521,A4,90.0,0.25,47,102.5
522,C3,90.0,0.5,36,102.5
523,F#5,90.25,0.25,44,102.5
524,G#4,90.5,0.25,47,102.5
525,C#3,90.5,0.5,31,102.5
526,E5,90.75,0.25,44,102.5
527,E4,91.0,0.25,46,102.5
528,G#2,91.0,0.5,36,102.5
529,C#5,91.25,0.25,44,102.5
530,C#4,91.5,0.25,45,102.5
531,A2,91.5,0.5,32,102.5
532,A4,91.75,0.25,44,102.5
533,B3,92.0,0.25,45,102.5
534,B2,92.0,0.5,36,102.5
535,G#4,92.25,0.25,44,102.5
536,E4,92.5,0.25,45,102.5
537,G#3,92.5,0.5,34,102.5
538,B4,92.75,0.25,44,102.5
539,B3,93.0,0.25,45,102.5
540,B2,93.0,0.5,36,102.5
541,A4,93.25,0.25,44,102.5
542,E-4,93.5,0.25,45,102.5
543,A3,93.5,0.5,32,102.5
544,B4,93.75,0.25,44,102.5
545,A4,94.0,0.75,45,102.5
546,B2,94.0,0.5,36,102.5
547,E-4,94.25,0.25,43,102.5
548,B3,94.5,0.25,43,102.5
549,F#3,94.5,0.5,31,102.5
550,A4,94.75,0.25,45,102.5
551,G#4,95.0,0.25,45,102.5
552,E3,95.0,0.5,37,102.5
553,B3,95.25,0.25,42,102.5
554,E4,95.5,0.25,44,102.5
555,C#3,95.5,0.25,32,102.5
556,F#4,95.75,0.25,45,102.5
557,E-3,95.75,0.25,32,102.5
558,G#4,96.0,0.25,47,102.5
559,E3,96.0,0.5,36,102.5
560,E4,96.25,0.25,43,102.5
561,G#4,96.5,0.25,45,102.5
562,G#3,96.5,0.5,33,102.5
563,E5,96.75,0.25,44,102.5
564,G#4,97.0,0.25,47,102.5
565,F3,97.0,0.5,36,102.5
566,E-5,97.25,0.25,44,102.5
567,G#4,97.5,0.25,48,102.5
568,C#4,97.5,0.5,33,102.5
569,C#5,97.75,0.25,44,102.5
570,A4,98.0,0.25,48,102.5
571,F#3,98.0,0.5,36,102.5
572,C#4,98.25,0.25,44,102.5
573,A4,98.5,0.25,46,102.5
574,F#2,98.5,0.5,32,102.5
575,C#5,98.75,0.25,46,102.5
576,G#4,99.0,0.25,47,102.5
577,G#2,99.0,0.5,32,102.5
578,B4,99.25,0.25,43,102.5
579,F#4,99.5,0.25,45,102.5
580,A2,99.5,0.5,33,102.5
581,A4,99.75,0.25,43,102.5
582,E4,100.0,0.25,45,102.5
583,G#2,100.0,0.5,36,102.5
584,G#3,100.25,0.25,43,102.5
585,E4,100.5,0.25,43,102.5
586,C#3,100.5,0.5,31,102.5
587,G#4,100.75,0.25,43,102.5
588,C#4,101.0,0.25,45,102.5
589,G#2,101.0,0.5,34,102.5
590,G3,101.25,0.25,40,102.5
591,C#4,101.5,0.25,41,102.5
592,E3,101.5,0.5,32,102.5
593,A4,101.75,0.25,41,102.5
594,E-4,102.0,0.25,43,102.5
595,G#2,102.0,0.5,32,102.5
596,F#3,102.25,0.25,39,102.5
597,E-4,102.5,0.25,39,102.5
598,C#3,102.5,0.5,31,102.5
599,G#4,102.75,0.25,39,102.5
600,E-4,103.0,0.25,42,102.5
601,G#2,103.0,0.5,32,102.5
602,F#3,103.25,0.25,38,102.5
603,E-4,103.5,0.25,38,102.5
604,C3,103.5,0.5,29,102.5
605,G#4,103.75,0.25,38,102.5
606,C#4,104.0,0.25,38,102.5
607,C#3,104.0,0.5,38,102.5
608,E3,104.25,0.25,35,102.5
609,C#4,104.5,0.25,35,102.5
610,E4,104.75,0.25,35,102.5
611,G#2,105.0,0.25,38,102.5
612,C#2,105.25,0.25,35,102.5
613,G#2,105.5,0.25,35,102.5
614,C#3,105.75,0.25,36,102.5
615,C#4,106.0,0.25,38,102.5
616,A2,106.0,0.5,38,102.5
617,E3,106.25,0.25,34,102.5
618,C#4,106.5,0.25,34,102.5
619,E4,106.75,0.25,34,102.5
620,E2,107.0,0.25,38,102.5
621,A1,107.25,0.25,35,102.5
622,E2,107.5,0.25,35,102.5
623,A2,107.75,0.25,35,102.5
624,D4,108.0,0.25,38,102.5
625,F#2,108.0,0.5,38,102.5
626,A3,108.25,0.25,36,102.5
627,D4,108.5,0.25,36,102.5
628,F#4,108.75,0.25,36,102.5
629,F#4,109.0,0.25,35,102.5
630,D3,109.0,0.25,36,102.5
631,A4,109.25,0.25,39,102.5
632,F#3,109.25,0.25,37,102.5
633,D5,109.5,0.25,42,102.5
634,A3,109.5,0.25,41,102.5
635,F#5,109.75,0.25,46,102.5
636,D4,109.75,0.25,44,102.5
637,A5,110.0,0.5,49,102.5
638,F#4,110.0,0.5,46,102.5
639,D5,110.25,0.25,36,102.5
640,A4,110.5,0.25,37,102.5
641,F#5,110.5,0.5,44,102.5
642,F#3,110.5,0.5,44,102.5
643,D4,110.5,0.5,44,102.5
644,B4,110.75,0.25,37,102.5
645,C#5,111.0,0.25,35,102.5
646,E5,111.0,0.5,42,102.5
647,G#3,111.0,0.5,41,102.5
648,E4,111.0,0.5,41,102.5
649,G#4,111.25,0.25,35,102.5
650,C5,111.5,0.25,35,102.5
651,E-5,111.5,0.5,40,102.5
652,G#3,111.5,0.5,39,102.5
653,F#4,111.5,0.5,39,102.5
654,G#4,111.75,0.25,35,102.5
655,C#5,112.0,0.25,38,102.5
656,E4,112.0,6/25,36,102.5
657,C#4,112.0,0.5,36,102.5
658,E4,112.25,0.25,34,102.5
659,C#5,112.5,0.25,34,102.5
660,E5,112.75,0.25,34,102.5
661,G#3,113.0,0.25,38,102.5
662,C#3,113.25,0.25,35,102.5
663,G#3,113.5,0.25,35,102.5
664,C#4,113.75,0.25,35,102.5
665,C#5,114.0,0.25,38,102.5
666,A3,114.0,0.5,36,102.5
667,E4,114.25,0.25,33,102.5
668,C#5,114.5,0.25,33,102.5
669,E5,114.75,0.25,33,102.5
670,E3,115.0,0.25,38,102.5
671,A2,115.25,0.25,32,102.5
672,E3,115.5,0.25,32,102.5
673,A3,115.75,0.25,32,102.5
674,D5,116.0,0.25,38,102.5
675,F#3,116.0,0.5,38,102.5
676,A4,116.25,0.25,39,102.5
677,D5,116.5,0.25,44,102.5
678,A3,116.5,0.25,41,102.5
679,F#5,116.75,0.25,49,102.5
680,D4,116.75,0.25,47,102.5
681,A5,117.0,0.25,55,102.5
682,F#4,117.0,0.25,53,102.5
683,F#5,117.25,0.25,53,102.5
684,D4,117.25,0.25,50,102.5
685,D5,117.5,0.25,50,102.5
686,A3,117.5,0.25,48,102.5
687,A4,117.75,0.25,47,102.5
688,F#3,117.75,0.25,46,102.5
689,G#4,118.0,0.25,44,102.5
690,G#3,118.0,0.5,44,102.5
691,E5,118.25,0.25,44,102.5
692,E4,118.5,0.25,48,102.5
693,G#3,118.5,0.5,40,102.5
694,C#5,118.75,0.25,44,102.5
695,F#4,119.0,0.25,48,102.5
696,G#3,119.0,0.5,40,102.5
697,E-5,119.25,0.25,44,102.5
698,E-4,119.5,0.25,48,102.5
699,G#3,119.5,0.5,40,102.5
700,C5,119.75,0.25,44,102.5
701,E4,120.0,0.25,51,102.5
702,G#3,120.0,0.5,39,102.5
703,C#5,120.25,0.25,42,102.5
704,G#2,120.5,0.5,37,102.5
705,C#4,120.5,0.25,43,102.5
706,E4,120.5,0.25,43,102.5
707,G#4,120.75,0.25,35,102.5
708,G#2,121.0,0.5,32,102.5
709,E-4,121.0,0.25,38,102.5
710,F#4,121.0,0.25,38,102.5
711,G#4,121.25,0.25,31,102.5
712,G#2,121.5,0.5,29,102.5
713,C4,121.5,0.25,34,102.5
714,E-4,121.5,0.25,34,102.5
715,G#4,121.75,0.25,30,102.5
716,F4,124.0,0.25,36,102.5
717,C#3,124.0,0.5,22,102.5
718,G#3,124.0,0.5,22,102.5
719,C#4,124.0,0.5,22,102.5
720,G#4,124.25,0.25,36,102.5
721,F#4,124.5,1.0,32,102.5
722,B-4,124.5,1.0,32,102.5
723,C#3,124.5,1.0,20,102.5
724,G#3,124.5,1.0,20,102.5
725,C#4,124.5,1.0,20,102.5
726,F4,125.5,0.375,28,102.5
727,G#4,125.5,0.375,28,102.5
728,C#3,125.5,0.375,18,102.5
729,G#3,125.5,0.375,18,102.5
730,C#4,125.5,0.375,18,102.5
731,F4,126.0,0.25,36,102.5
732,C#3,126.0,0.5,19,102.5
733,G#3,126.0,0.5,19,102.5
734,C#4,126.0,0.5,19,102.5
735,G#4,126.25,0.25,36,102.5
736,F#4,126.5,1.0,33,102.5
737,B-4,126.5,1.0,33,102.5
738,C#5,126.5,1.0,33,102.5
739,C#3,126.5,1.0,20,102.5
740,G#3,126.5,1.0,20,102.5
741,C#4,126.5,1.0,20,102.5
742,F4,127.5,0.375,30,102.5
743,G#4,127.5,0.375,30,102.5
744,C#3,127.5,0.375,18,102.5
745,G#3,127.5,0.375,18,102.5
746,C#4,127.5,0.375,18,102.5
747,F4,128.0,0.25,37,102.5
748,G#4,128.0,0.25,37,102.5
749,G#3,128.0,0.5,19,102.5
750,C4,128.0,0.5,19,102.5
751,D4,128.25,0.25,37,102.5
752,E-4,128.5,1.0,39,102.5
753,F#4,128.5,1.0,39,102.5
754,G#3,128.5,1.0,19,102.5
755,C4,128.5,1.0,19,102.5
756,F#4,129.5,0.5,36,102.5
757,E-5,129.5,0.5,36,102.5
758,G#3,129.5,0.5,25,102.5
759,C4,129.5,0.5,25,102.5
760,G#4,130.0,0.25,39,102.5
761,F5,130.0,0.25,39,102.5
762,C#3,130.0,0.5,25,102.5
763,G#3,130.0,0.5,25,102.5
764,C#4,130.0,0.5,25,102.5
765,F#4,130.25,0.25,37,102.5
766,E-5,130.25,0.25,37,102.5
767,F4,130.5,1.0,38,102.5
768,C#5,130.5,1.0,38,102.5
769,C#3,130.5,1.0,26,102.5
770,G#3,130.5,1.0,26,102.5
771,C#4,130.5,1.0,26,102.5
772,F4,131.5,0.375,31,102.5
773,G#4,131.5,0.375,31,102.5
774,C#3,131.5,0.375,22,102.5
775,G#3,131.5,0.375,22,102.5
776,C#4,131.5,0.375,22,102.5
777,F4,132.0,0.25,36,102.5
778,C#3,132.0,0.5,22,102.5
779,G#3,132.0,0.5,22,102.5
780,C#4,132.0,0.5,22,102.5
781,G#4,132.25,0.25,36,102.5
782,F#4,132.5,1.0,32,102.5
783,B-4,132.5,1.0,32,102.5
784,C#3,132.5,1.0,21,102.5
785,G#3,132.5,1.0,21,102.5
786,C#4,132.5,1.0,21,102.5
787,F4,133.5,0.375,30,102.5
788,G#4,133.5,0.375,30,102.5
789,C#3,133.5,0.375,21,102.5
790,G#3,133.5,0.375,21,102.5
791,C#4,133.5,0.375,21,102.5
792,F4,134.0,0.25,36,102.5
793,C#3,134.0,0.5,23,102.5
794,G#3,134.0,0.5,23,102.5
795,C#4,134.0,0.5,23,102.5
796,G#4,134.25,0.25,36,102.5
797,F#4,134.5,1.0,32,102.5
798,B-4,134.5,1.0,32,102.5
799,C#5,134.5,1.0,32,102.5
800,C#3,134.5,1.0,21,102.5
801,G#3,134.5,1.0,21,102.5
802,C#4,134.5,1.0,21,102.5
803,F4,135.5,0.375,28,102.5
804,G#4,135.5,0.375,28,102.5
805,C#3,135.5,0.375,19,102.5
806,G#3,135.5,0.375,19,102.5
807,C#4,135.5,0.375,19,102.5
808,F4,136.0,0.25,37,102.5
809,G#4,136.0,0.25,37,102.5
810,G#3,136.0,0.5,25,102.5
811,C4,136.0,0.5,25,102.5
812,D4,136.25,0.25,37,102.5
813,E-4,136.5,0.75,39,102.5
814,F#4,136.5,0.75,39,102.5
815,G#3,136.5,1.0,28,102.5
816,C4,136.5,1.0,28,102.5
817,F#4,137.25,0.25,36,102.5
818,E-5,137.25,0.25,36,102.5
819,G#4,137.5,0.25,37,102.5
820,F5,137.5,0.25,37,102.5
821,G#3,137.5,0.5,24,102.5
822,C4,137.5,0.5,24,102.5
823,F#4,137.75,0.25,36,102.5
824,E-5,137.75,0.25,36,102.5
825,F4,138.0,0.25,37,102.5
826,C#5,138.0,0.25,37,102.5
827,C#3,138.0,0.5,25,102.5
828,G#3,138.0,0.5,25,102.5
829,C#4,138.0,0.5,25,102.5
830,F#4,138.25,0.25,37,102.5
831,E-5,138.25,0.25,37,102.5
832,F4,138.5,1.5,40,102.5
833,C#5,138.5,1.5,40,102.5
834,C#3,138.5,1.5,25,102.5
835,G#3,138.5,1.5,25,102.5
836,C#4,138.5,1.5,25,102.5
837,G#3,140.0,0.25,43,102.5
838,G#1,140.0,0.5,40,102.5
839,G#2,140.0,0.5,40,102.5
840,C4,140.25,0.25,43,102.5
841,E3,140.5,1.0,47,102.5
842,G#3,140.5,1.0,47,102.5
843,C#4,140.5,1.0,47,102.5
844,C#2,140.5,1.0,42,102.5
845,G#2,140.5,1.0,42,102.5
846,E-3,141.5,0.5,38,102.5
847,G#3,141.5,0.5,38,102.5
848,C4,141.5,0.5,38,102.5
849,G#1,141.5,0.5,36,102.5
850,G#2,141.5,0.5,36,102.5
851,G#3,142.0,0.25,48,102.5
852,G#1,142.0,0.5,37,102.5
853,G#2,142.0,0.5,37,102.5
854,C4,142.25,0.25,48,102.5
855,G#3,142.5,1.0,53,102.5
856,E4,142.5,1.0,53,102.5
857,C#4,142.5,1.0,53,102.5
858,C#2,142.5,1.0,45,102.5
859,G#2,142.5,1.0,45,102.5
860,G#3,143.5,0.5,45,102.5
861,E-4,143.5,0.5,45,102.5
862,C4,143.5,0.5,45,102.5
863,G#1,143.5,0.5,40,102.5
864,G#2,143.5,0.5,40,102.5
865,C4,144.0,0.25,53,102.5
866,E-4,144.0,0.25,53,102.5
867,G#1,144.0,0.5,46,102.5
868,G#2,144.0,0.5,46,102.5
869,A4,144.25,0.25,53,102.5
870,C#4,144.5,1.0,56,102.5
871,E4,144.5,1.0,56,102.5
872,G#4,144.5,1.0,56,102.5
873,C#2,144.5,1.0,49,102.5
874,G#2,144.5,1.0,49,102.5
875,C4,145.5,0.5,38,102.5
876,E-4,145.5,0.5,38,102.5
877,G#4,145.5,0.5,38,102.5
878,G#1,145.5,0.5,36,102.5
879,G#2,145.5,0.5,36,102.5
880,A4,146.0,0.25,27,102.5
881,B3,146.0,0.5,25,102.5
882,E-4,146.0,0.5,25,102.5
883,F#2,146.0,0.5,21,102.5
884,B2,146.0,0.5,21,102.5
885,B4,146.25,0.25,27,102.5
886,B3,146.5,1.5,25,102.5
887,E4,146.5,1.5,25,102.5
888,G#4,146.5,1.5,25,102.5
889,E2,146.5,1.5,21,102.5
890,B2,146.5,1.5,21,102.5
891,F4,148.0,0.25,32,102.5
892,C#3,148.0,0.5,18,102.5
893,G#3,148.0,0.5,18,102.5
894,C#4,148.0,0.5,18,102.5
895,G#4,148.25,0.25,32,102.5
896,F#4,148.5,1.0,25,102.5
897,B-4,148.5,1.0,25,102.5
898,C#3,148.5,1.0,18,102.5
899,G#3,148.5,1.0,18,102.5
900,C#4,148.5,1.0,18,102.5
901,F4,149.5,0.375,23,102.5
902,G#4,149.5,0.375,23,102.5
903,C#3,149.5,0.375,15,102.5
904,G#3,149.5,0.375,15,102.5
905,C#4,149.5,0.375,15,102.5
906,F4,150.0,0.25,32,102.5
907,C#3,150.0,0.5,18,102.5
908,G#3,150.0,0.5,18,102.5
909,C#4,150.0,0.5,18,102.5
910,G#4,150.25,0.25,32,102.5
911,F#4,150.5,1.0,27,102.5
912,B-4,150.5,1.0,27,102.5
913,C#5,150.5,1.0,27,102.5
914,C#3,150.5,1.0,18,102.5
915,G#3,150.5,1.0,18,102.5
916,C#4,150.5,1.0,18,102.5
917,F4,151.5,0.375,22,102.5
918,G#4,151.5,0.375,22,102.5
919,C#3,151.5,0.375,15,102.5
920,G#3,151.5,0.375,15,102.5
921,C#4,151.5,0.375,15,102.5
922,F4,152.0,0.25,30,102.5
923,G#4,152.0,0.25,30,102.5
924,G#3,152.0,0.5,18,102.5
925,C4,152.0,0.5,18,102.5
926,D4,152.25,0.25,33,102.5
927,E-4,152.5,1.0,35,102.5
928,F#4,152.5,1.0,35,102.5
929,G#3,152.5,1.0,18,102.5
930,C4,152.5,1.0,18,102.5
931,F#4,153.5,0.5,28,102.5
932,E-5,153.5,0.5,28,102.5
933,G#3,153.5,0.5,18,102.5
934,C4,153.5,0.5,18,102.5
935,G#4,154.0,0.25,34,102.5
936,F5,154.0,0.25,34,102.5
937,C#3,154.0,0.5,20,102.5
938,G#3,154.0,0.5,20,102.5
939,C#4,154.0,0.5,20,102.5
940,F#4,154.25,0.25,30,102.5
941,E-5,154.25,0.25,30,102.5
942,F4,154.5,1.0,37,102.5
943,C#5,154.5,1.0,37,102.5
944,C#3,154.5,1.0,21,102.5
945,G#3,154.5,1.0,21,102.5
946,C#4,154.5,1.0,21,102.5
947,F4,155.5,0.375,28,102.5
948,G#4,155.5,0.375,28,102.5
949,C#3,155.5,0.375,18,102.5
950,G#3,155.5,0.375,18,102.5
951,C#4,155.5,0.375,18,102.5
952,F4,156.0,0.25,32,102.5
953,C#3,156.0,0.5,18,102.5
954,G#3,156.0,0.5,18,102.5
955,C#4,156.0,0.5,18,102.5
956,G#4,156.25,0.25,32,102.5
957,F#4,156.5,1.0,28,102.5
958,B-4,156.5,1.0,28,102.5
959,C#3,156.5,1.0,18,102.5
960,G#3,156.5,1.0,18,102.5
961,C#4,156.5,1.0,18,102.5
962,F4,157.5,0.375,28,102.5
963,G#4,157.5,0.375,28,102.5
964,C#3,157.5,0.375,18,102.5
965,G#3,157.5,0.375,18,102.5
966,C#4,157.5,0.375,18,102.5
967,F4,158.0,0.25,32,102.5
968,C#3,158.0,0.5,18,102.5
969,G#3,158.0,0.5,18,102.5
970,C#4,158.0,0.5,18,102.5
971,G#4,158.25,0.25,32,102.5
972,F#4,158.5,1.0,28,102.5
973,B-4,158.5,1.0,28,102.5
974,C#5,158.5,1.0,28,102.5
975,C#3,158.5,1.0,18,102.5
976,G#3,158.5,1.0,18,102.5
977,C#4,158.5,1.0,18,102.5
978,F4,159.5,0.375,24,102.5
979,G#4,159.5,0.375,24,102.5
980,C#3,159.5,0.375,17,102.5
981,G#3,159.5,0.375,17,102.5
982,C#4,159.5,0.375,17,102.5
983,F4,160.0,0.25,30,102.5
984,G#4,160.0,0.25,30,102.5
985,G#3,160.0,0.5,20,102.5
986,C4,160.0,0.5,20,102.5
987,D4,160.25,0.25,33,102.5
988,E-4,160.5,0.75,37,102.5
989,F#4,160.5,0.75,37,102.5
990,G#3,160.5,1.0,22,102.5
991,C4,160.5,1.0,22,102.5
992,F#4,161.25,0.25,30,102.5
993,E-5,161.25,0.25,30,102.5
994,G#4,161.5,0.25,30,102.5
995,F5,161.5,0.25,30,102.5
996,G#3,161.5,0.5,19,102.5
997,C4,161.5,0.5,19,102.5
998,F#4,161.75,0.25,30,102.5
999,E-5,161.75,0.25,30,102.5
1000,F4,162.0,0.25,30,102.5
1001,C#5,162.0,0.25,30,102.5
1002,C#3,162.0,0.5,20,102.5
1003,G#3,162.0,0.5,20,102.5
1004,C#4,162.0,0.5,20,102.5
1005,F#4,162.25,0.25,30,102.5
1006,E-5,162.25,0.25,30,102.5
1007,F4,162.5,1.5,33,102.5
1008,C#5,162.5,1.5,33,102.5
1009,C#3,162.5,1.5,21,102.5
1010,G#3,162.5,1.5,21,102.5
1011,C#4,162.5,1.5,21,102.5
1012,G#3,164.0,0.25,36,102.5
1013,G#1,164.0,0.5,30,102.5
1014,G#2,164.0,0.5,30,102.5
1015,C4,164.25,0.25,36,102.5
1016,E3,164.5,1.0,37,102.5
1017,G#3,164.5,1.0,37,102.5
1018,C#4,164.5,1.0,37,102.5
1019,C#2,164.5,1.0,32,102.5
1020,G#2,164.5,1.0,32,102.5
1021,E-3,165.5,0.5,30,102.5
1022,G#3,165.5,0.5,30,102.5
1023,C4,165.5,0.5,30,102.5
1024,G#1,165.5,0.5,27,102.5
1025,G#2,165.5,0.5,27,102.5
1026,G#3,166.0,0.25,39,102.5
1027,G#1,166.0,0.5,30,102.5
1028,G#2,166.0,0.5,30,102.5
1029,C4,166.25,0.25,39,102.5
1030,G#3,166.5,1.0,41,102.5
1031,E4,166.5,1.0,41,102.5
1032,C#4,166.5,1.0,41,102.5
1033,C#2,166.5,1.0,34,102.5
1034,G#2,166.5,1.0,34,102.5
1035,G#3,167.5,0.5,35,102.5
1036,E-4,167.5,0.5,35,102.5
1037,C4,167.5,0.5,35,102.5
1038,G#1,167.5,0.5,30,102.5
1039,G#2,167.5,0.5,30,102.5
1040,C4,168.0,0.25,42,102.5
1041,E-4,168.0,0.25,42,102.5
1042,G#1,168.0,0.5,34,102.5
1043,G#2,168.0,0.5,34,102.5
1044,A4,168.25,0.25,44,102.5
1045,C#4,168.5,1.0,45,102.5
1046,E4,168.5,1.0,45,102.5
1047,G#4,168.5,1.0,45,102.5
1048,C#2,168.5,1.0,36,102.5
1049,G#2,168.5,1.0,36,102.5
1050,C4,169.5,0.5,36,102.5
1051,E-4,169.5,0.5,36,102.5
1052,G#4,169.5,0.5,36,102.5
1053,G#1,169.5,0.5,31,102.5
1054,G#2,169.5,0.5,31,102.5
1055,A4,170.0,0.25,26,102.5
1056,B3,170.0,0.5,24,102.5
1057,E-4,170.0,0.5,24,102.5
1058,F#2,170.0,0.5,19,102.5
1059,B2,170.0,0.5,19,102.5
1060,B4,170.25,0.25,26,102.5
1061,B3,170.5,1.5,25,102.5
1062,E4,170.5,1.5,25,102.5
1063,G#4,170.5,1.5,25,102.5
1064,E2,170.5,1.5,19,102.5
1065,B2,170.5,1.5,19,102.5
1066,G#4,172.0,0.25,47,102.5
1067,B3,172.0,0.5,47,102.5
1068,E4,172.0,0.5,47,102.5
1069,E2,172.0,0.5,45,102.5
1070,E3,172.0,0.5,45,102.5
1071,A4,172.25,0.25,47,102.5
1072,B3,172.5,1.0,51,102.5
1073,E-4,172.5,1.0,51,102.5
1074,F#4,172.5,1.0,51,102.5
1075,B1,172.5,1.0,48,102.5
1076,B2,172.5,1.0,48,102.5
1077,B3,173.5,0.5,44,102.5
1078,E4,173.5,0.5,44,102.5
1079,G#4,173.5,0.5,44,102.5
1080,E2,173.5,0.5,46,102.5
1081,E3,173.5,0.5,46,102.5
1082,G#4,174.0,0.25,49,102.5
1083,B3,174.0,0.5,49,102.5
1084,E4,174.0,0.5,49,102.5
1085,E2,174.0,0.5,50,102.5
1086,E3,174.0,0.5,50,102.5
1087,A4,174.25,0.25,49,102.5
1088,B3,174.5,1.0,53,102.5
1089,E-4,174.5,1.0,53,102.5
1090,F#4,174.5,1.0,53,102.5
1091,B1,174.5,1.0,53,102.5
1092,B2,174.5,1.0,53,102.5
1093,B3,175.5,0.5,48,102.5
1094,E4,175.5,0.5,48,102.5
1095,G#4,175.5,0.5,48,102.5
1096,E2,175.5,0.5,50,102.5
1097,E3,175.5,0.5,50,102.5
1098,F#4,176.0,0.25,53,102.5
1099,B3,176.0,0.5,53,102.5
1100,E-4,176.0,0.5,53,102.5
1101,B1,176.0,0.5,54,102.5
1102,B2,176.0,0.5,54,102.5
1103,G#4,176.25,0.25,53,102.5
1104,G#3,176.5,1.0,56,102.5
1105,C#4,176.5,1.0,56,102.5
1106,E4,176.5,1.0,56,102.5
1107,C#2,176.5,1.0,58,102.5
1108,C#3,176.5,1.0,58,102.5
1109,A3,177.5,0.5,60,102.5
1110,C#4,177.5,0.5,60,102.5
1111,F#4,177.5,0.5,60,102.5
1112,A1,177.5,0.5,60,102.5
1113,A2,177.5,0.5,60,102.5
1114,A3,178.0,0.5,56,102.5
1115,E-4,178.0,0.25,56,102.5
1116,B1,178.0,0.5,57,102.5
1117,B2,178.0,0.5,57,102.5
1118,F#4,178.25,0.25,56,102.5
1119,G#3,178.5,917/1000,52,102.5
1120,E4,178.5,917/1000,52,102.5
1121,E2,178.5,917/1000,54,102.5
1122,B2,178.5,917/1000,54,102.5
1123,B3,179.5,0.5,45,102.5
1124,G#4,179.5,0.5,45,102.5
1125,E5,179.5,0.5,45,102.5
1126,A4,180.0,0.5,48,102.5
1127,E5,180.0,0.25,48,102.5
1128,E-4,180.0,0.5,39,102.5
1129,B3,180.0,0.5,39,102.5
1130,G#5,180.25,0.25,48,102.5
1131,A4,180.5,1.0,51,102.5
1132,F#5,180.5,1.0,51,102.5
1133,B3,180.5,1.0,48,102.5
1134,E-4,180.5,1.0,48,102.5
1135,F#4,181.5,0.5,47,102.5
1136,A4,181.5,0.5,47,102.5
1137,B3,181.5,0.5,48,102.5
1138,E-4,181.5,0.5,48,102.5
1139,E4,182.0,0.25,53,102.5
1140,G#4,182.0,0.25,53,102.5
1141,E4,182.0,0.5,53,102.5
1142,B3,182.0,0.5,53,102.5
1143,F#4,182.25,0.25,53,102.5
1144,A4,182.25,0.25,53,102.5
1145,G#4,182.5,1.0,54,102.5
1146,B4,182.5,1.0,54,102.5
1147,B3,182.5,1.0,54,102.5
1148,E4,182.5,1.0,54,102.5
1149,G#4,183.5,0.5,48,102.5
1150,E5,183.5,0.5,48,102.5
1151,B3,183.5,0.5,47,102.5
1152,E4,183.5,0.5,47,102.5
1153,A4,184.0,0.5,54,102.5
1154,E5,184.0,0.25,54,102.5
1155,E-4,184.0,0.5,51,102.5
1156,B3,184.0,0.5,51,102.5
1157,G#5,184.25,0.25,54,102.5
1158,A4,184.5,1.0,55,102.5
1159,F#5,184.5,1.0,55,102.5
1160,B3,184.5,1.0,54,102.5
1161,E-4,184.5,1.0,54,102.5
1162,E-5,185.5,0.5,51,102.5
1163,A4,185.5,0.5,51,102.5
1164,B3,185.5,0.5,51,102.5
1165,F#4,185.5,0.5,51,102.5
1166,G#4,186.0,0.25,51,102.5
1167,E5,186.0,0.25,51,102.5
1168,E4,186.0,0.5,53,102.5
1169,B3,186.0,0.5,53,102.5
1170,E3,186.0,0.5,53,102.5
1171,A4,186.25,0.25,51,102.5
1172,C#5,186.25,0.25,51,102.5
1173,G#4,186.5,1.0,50,102.5
1174,B4,186.5,1.0,50,102.5
1175,B3,186.5,1.0,53,102.5
1176,E4,186.5,1.0,53,102.5
1177,E3,186.5,1.0,53,102.5
1178,B3,187.5,0.5,47,102.5
1179,G#4,187.5,0.5,47,102.5
1180,E4,187.5,0.5,47,102.5
1181,E2,187.5,0.5,47,102.5
1182,E3,187.5,0.5,47,102.5
1183,G#4,188.0,0.25,60,102.5
1184,B3,188.0,0.5,60,102.5
1185,E4,188.0,0.5,60,102.5
1186,E2,188.0,0.5,56,102.5
1187,E3,188.0,0.5,56,102.5
1188,A4,188.25,0.25,60,102.5
1189,B3,188.5,1.0,65,102.5
1190,E-4,188.5,1.0,65,102.5
1191,F#4,188.5,1.0,65,102.5
1192,B1,188.5,1.0,61,102.5
1193,B2,188.5,1.0,61,102.5
1194,B3,189.5,0.5,55,102.5
1195,E4,189.5,0.5,55,102.5
1196,G#4,189.5,0.5,55,102.5
1197,E2,189.5,0.5,59,102.5
1198,E3,189.5,0.5,59,102.5
1199,G#4,190.0,0.25,62,102.5
1200,B3,190.0,0.5,62,102.5
1201,E4,190.0,0.5,62,102.5
1202,E2,190.0,0.5,64,102.5
1203,E3,190.0,0.5,64,102.5
1204,A4,190.25,0.25,62,102.5
1205,B3,190.5,1.0,67,102.5
1206,E-4,190.5,1.0,67,102.5
1207,F#4,190.5,1.0,67,102.5
1208,B1,190.5,1.0,67,102.5
1209,B2,190.5,1.0,67,102.5
1210,B3,191.5,0.5,61,102.5
1211,E4,191.5,0.5,61,102.5
1212,G#4,191.5,0.5,61,102.5
1213,E2,191.5,0.5,64,102.5
1214,E3,191.5,0.5,64,102.5
1215,F#4,192.0,0.25,67,102.5
1216,B3,192.0,0.5,67,102.5
1217,E-4,192.0,0.5,67,102.5
1218,B1,192.0,0.5,69,102.5
1219,B2,192.0,0.5,69,102.5
1220,G#4,192.25,0.25,67,102.5
1221,G#3,192.5,1.0,72,102.5
1222,C#4,192.5,1.0,72,102.5
1223,E4,192.5,1.0,72,102.5
1224,C#2,192.5,1.0,73,102.5
1225,C#3,192.5,1.0,73,102.5
1226,E-4,193.5,0.25,72,102.5
1227,A3,193.5,0.5,64,102.5
1228,F#3,193.5,0.5,64,102.5
1229,F#1,193.5,0.5,64,102.5
1230,F#2,193.5,0.5,64,102.5
1231,C#4,193.75,0.25,70,102.5
1232,C4,194.0,0.25,72,102.5
1233,F#3,194.0,0.5,65,102.5
1234,G#1,194.0,0.5,65,102.5
1235,G#2,194.0,0.5,65,102.5
1236,E-4,194.25,0.25,70,102.5
1237,C#4,194.5,917/1000,66,102.5
1238,F3,194.5,917/1000,62,102.5
1239,C#2,194.5,917/1000,62,102.5
1240,G#2,194.5,917/1000,62,102.5
1241,F4,195.5,0.5,40,102.5
1242,C#5,195.5,0.5,40,102.5
1243,G#3,195.5,0.5,28,102.5
1244,C#4,195.5,0.5,28,102.5
1245,F#4,196.0,0.5,42,102.5
1246,D5,196.0,0.25,42,102.5
1247,C4,196.0,0.5,29,102.5
1248,G#3,196.0,0.5,29,102.5
1249,F5,196.25,0.25,42,102.5
1250,F#4,196.5,1.0,40,102.5
1251,E-5,196.5,1.0,40,102.5
1252,C4,196.5,1.0,28,102.5
1253,G#3,196.5,1.0,28,102.5
1254,E-4,197.5,0.5,34,102.5
1255,F#4,197.5,0.5,34,102.5
1256,C4,197.5,0.5,24,102.5
1257,G#3,197.5,0.5,24,102.5
1258,F4,198.0,0.25,37,102.5
1259,C#4,198.0,0.5,26,102.5
1260,G#3,198.0,0.5,26,102.5
1261,E-4,198.25,0.25,37,102.5
1262,F#4,198.25,0.25,37,102.5
1263,F4,198.5,1.0,40,102.5
1264,G#4,198.5,1.0,40,102.5
1265,C#4,198.5,1.0,28,102.5
1266,G#3,198.5,1.0,28,102.5
1267,C#5,199.5,0.5,38,102.5
1268,F4,199.5,0.5,38,102.5
1269,C#4,199.5,0.5,26,102.5
1270,G#3,199.5,0.5,26,102.5
1271,F#4,200.0,0.5,40,102.5
1272,D5,200.0,0.25,40,102.5
1273,C4,200.0,0.5,28,102.5
1274,G#3,200.0,0.5,28,102.5
1275,F5,200.25,0.25,40,102.5
1276,F#4,200.5,1.0,38,102.5
1277,E-5,200.5,1.0,38,102.5
1278,C4,200.5,1.0,25,102.5
1279,G#3,200.5,1.0,25,102.5
1280,B4,201.5,0.5,32,102.5
1281,F5,201.5,0.5,32,102.5
1282,D4,201.5,0.5,25,102.5
1283,G#3,201.5,0.5,25,102.5
1284,C5,202.0,0.5,35,102.5
1285,F5,202.0,0.25,35,102.5
1286,E-4,202.0,0.5,26,102.5
1287,G#3,202.0,0.5,26,102.5
1288,G#5,202.25,0.25,35,102.5
1289,C5,202.5,1.5,32,102.5
1290,F#5,202.5,1.5,32,102.5
1291,E-4,202.5,1.5,23,102.5
1292,G#3,202.5,1.5,23,102.5
1293,F4,204.0,0.25,31,102.5
1294,C#3,204.0,0.5,16,102.5
1295,G#3,204.0,0.5,16,102.5
1296,C#4,204.0,0.5,16,102.5
1297,G#4,204.25,0.25,31,102.5
1298,F#4,204.5,1.0,28,102.5
1299,B-4,204.5,1.0,28,102.5
1300,C#3,204.5,1.0,18,102.5
1301,G#3,204.5,1.0,18,102.5
1302,C#4,204.5,1.0,18,102.5
1303,F4,205.5,0.375,26,102.5
1304,G#4,205.5,0.375,26,102.5
1305,C#3,205.5,0.375,15,102.5
1306,G#3,205.5,0.375,15,102.5
1307,C#4,205.5,0.375,15,102.5
1308,F4,206.0,0.25,31,102.5
1309,C#3,206.0,0.5,18,102.5
1310,G#3,206.0,0.5,18,102.5
1311,C#4,206.0,0.5,18,102.5
1312,G#4,206.25,0.25,31,102.5
1313,F#4,206.5,1.0,27,102.5
1314,B-4,206.5,1.0,27,102.5
1315,C#5,206.5,1.0,27,102.5
1316,C#3,206.5,1.0,18,102.5
1317,G#3,206.5,1.0,18,102.5
1318,C#4,206.5,1.0,18,102.5
1319,F4,207.5,0.375,25,102.5
1320,G#4,207.5,0.375,25,102.5
1321,C#3,207.5,0.375,16,102.5
1322,G#3,207.5,0.375,16,102.5
1323,C#4,207.5,0.375,16,102.5
1324,F4,208.0,0.25,32,102.5
1325,G#4,208.0,0.25,32,102.5
1326,G#3,208.0,0.5,20,102.5
1327,C4,208.0,0.5,20,102.5
1328,D4,208.25,0.25,33,102.5
1329,E-4,208.5,1.0,32,102.5
1330,F#4,208.5,1.0,32,102.5
1331,G#3,208.5,1.0,22,102.5
1332,C4,208.5,1.0,22,102.5
1333,F#4,209.5,0.5,30,102.5
1334,E-5,209.5,0.5,30,102.5
1335,G#3,209.5,0.5,20,102.5
1336,C4,209.5,0.5,20,102.5
1337,G#4,210.0,0.25,34,102.5
1338,F5,210.0,0.25,34,102.5
1339,C#3,210.0,0.5,20,102.5
1340,G#3,210.0,0.5,20,102.5
1341,C#4,210.0,0.5,20,102.5
1342,F#4,210.25,0.25,32,102.5
1343,E-5,210.25,0.25,32,102.5
1344,F4,210.5,1.0,34,102.5
1345,C#5,210.5,1.0,34,102.5
1346,C#3,210.5,1.0,21,102.5
1347,G#3,210.5,1.0,21,102.5
1348,C#4,210.5,1.0,21,102.5
1349,F4,211.5,0.375,28,102.5
1350,G#4,211.5,0.375,28,102.5
1351,C#3,211.5,0.375,18,102.5
1352,G#3,211.5,0.375,18,102.5
1353,C#4,211.5,0.375,18,102.5
1354,F4,212.0,0.25,31,102.5
1355,C#3,212.0,0.5,18,102.5
1356,G#3,212.0,0.5,18,102.5
1357,C#4,212.0,0.5,18,102.5
1358,G#4,212.25,0.25,31,102.5
1359,F#4,212.5,1.0,27,102.5
1360,B-4,212.5,1.0,27,102.5
1361,C#3,212.5,1.0,19,102.5
1362,G#3,212.5,1.0,19,102.5
1363,C#4,212.5,1.0,19,102.5
1364,F4,213.5,0.375,27,102.5
1365,G#4,213.5,0.375,27,102.5
1366,C#3,213.5,0.375,17,102.5
1367,G#3,213.5,0.375,17,102.5
1368,C#4,213.5,0.375,17,102.5
1369,F4,214.0,0.25,31,102.5
1370,C#3,214.0,0.5,18,102.5
1371,G#3,214.0,0.5,18,102.5
1372,C#4,214.0,0.5,18,102.5
1373,G#4,214.25,0.25,31,102.5
1374,F#4,214.5,1.0,28,102.5
1375,B-4,214.5,1.0,28,102.5
1376,C#5,214.5,1.0,28,102.5
1377,C#3,214.5,1.0,18,102.5
1378,G#3,214.5,1.0,18,102.5
1379,C#4,214.5,1.0,18,102.5
1380,F4,215.5,0.375,25,102.5
1381,G#4,215.5,0.375,25,102.5
1382,C#3,215.5,0.375,17,102.5
1383,G#3,215.5,0.375,17,102.5
1384,C#4,215.5,0.375,17,102.5
1385,F4,216.0,0.25,32,102.5
1386,G#4,216.0,0.25,32,102.5
1387,G#3,216.0,0.5,20,102.5
1388,C4,216.0,0.5,20,102.5
1389,D4,216.25,0.25,33,102.5
1390,E-4,216.5,0.75,38,102.5
1391,F#4,216.5,0.75,38,102.5
1392,G#3,216.5,1.0,22,102.5
1393,C4,216.5,1.0,22,102.5
1394,F#4,217.25,0.25,30,102.5
1395,E-5,217.25,0.25,30,102.5
1396,G#4,217.5,0.25,32,102.5
1397,F5,217.5,0.25,32,102.5
1398,G#3,217.5,0.5,19,102.5
1399,C4,217.5,0.5,19,102.5
1400,F#4,217.75,0.25,30,102.5
1401,E-5,217.75,0.25,30,102.5
1402,F4,218.0,0.25,32,102.5
1403,C#5,218.0,0.25,32,102.5
1404,C#3,218.0,0.5,20,102.5
1405,G#3,218.0,0.5,20,102.5
1406,C#4,218.0,0.5,20,102.5
1407,F#4,218.25,0.25,32,102.5
1408,E-5,218.25,0.25,32,102.5
1409,F4,218.5,1.5,34,102.5
1410,C#5,218.5,1.5,34,102.5
1411,C#3,218.5,1.5,21,102.5
1412,G#3,218.5,1.5,21,102.5
1413,C#4,218.5,1.5,21,102.5
1414,F3,220.0,0.25,35,102.5
1415,F1,220.0,0.5,32,102.5
1416,F2,220.0,0.5,32,102.5
1417,A3,220.25,0.25,35,102.5
1418,C#3,220.5,1.0,36,102.5
1419,F3,220.5,1.0,36,102.5
1420,B-3,220.5,1.0,36,102.5
1421,B-1,220.5,1.0,36,102.5
1422,F2,220.5,1.0,36,102.5
1423,C3,221.5,0.5,30,102.5
1424,F3,221.5,0.5,30,102.5
1425,A3,221.5,0.5,30,102.5
1426,F1,221.5,0.5,30,102.5
1427,F2,221.5,0.5,30,102.5
1428,F3,222.0,0.25,39,102.5
1429,F1,222.0,0.5,32,102.5
1430,F2,222.0,0.5,32,102.5
1431,A3,222.25,0.25,39,102.5
1432,C#4,222.5,1.0,40,102.5
1433,B-3,222.5,1.0,40,102.5
1434,F3,222.5,1.0,40,102.5
1435,B-1,222.5,1.0,40,102.5
1436,F2,222.5,1.0,40,102.5
1437,C4,223.5,0.5,34,102.5
1438,A3,223.5,0.5,34,102.5
1439,F3,223.5,0.5,34,102.5
1440,F1,223.5,0.5,34,102.5
1441,F2,223.5,0.5,34,102.5
1442,C4,224.0,0.25,42,102.5
1443,A3,224.0,0.25,42,102.5
1444,F1,224.0,0.5,36,102.5
1445,F2,224.0,0.5,36,102.5
1446,F#4,224.25,0.25,42,102.5
1447,B-3,224.5,1.0,46,102.5
1448,C#4,224.5,1.0,46,102.5
1449,F4,224.5,1.0,46,102.5
1450,B-1,224.5,1.0,38,102.5
1451,F2,224.5,1.0,38,102.5
1452,A3,225.5,0.5,36,102.5
1453,C4,225.5,0.5,36,102.5
1454,F4,225.5,0.5,36,102.5
1455,F1,225.5,0.5,33,102.5
1456,F2,225.5,0.5,33,102.5
1457,F#4,226.0,0.25,27,102.5
1458,G#3,226.0,0.5,25,102.5
1459,C4,226.0,0.5,25,102.5
1460,E-2,226.0,0.5,21,102.5
1461,G#2,226.0,0.5,21,102.5
1462,G#4,226.25,0.25,27,102.5
1463,G#3,226.5,1.5,26,102.5
1464,C#4,226.5,1.5,26,102.5
1465,F4,226.5,1.5,26,102.5
1466,C#2,226.5,1.5,21,102.5
1467,G#2,226.5,1.5,21,102.5
1468,G#4,227.5,0.5,47,102.5
1469,E4,227.5,0.5,47,102.5
1470,B3,227.5,0.5,47,102.5
1471,E2,227.5,0.5,45,102.5
1472,E3,227.5,0.5,45,102.5
1473,G#4,228.0,0.25,47,102.5
1474,B3,228.0,0.5,47,102.5
1475,E4,228.0,0.5,47,102.5
1476,E2,228.0,0.5,45,102.5
1477,E3,228.0,0.5,45,102.5
1478,A4,228.25,0.25,47,102.5
1479,B3,228.5,1.0,51,102.5
1480,E-4,228.5,1.0,51,102.5
1481,F#4,228.5,1.0,51,102.5
1482,B1,228.5,1.0,48,102.5
1483,B2,228.5,1.0,48,102.5
1484,B3,229.5,0.5,44,102.5
1485,E4,229.5,0.5,44,102.5
1486,G#4,229.5,0.5,44,102.5
1487,E2,229.5,0.5,46,102.5
1488,E3,229.5,0.5,46,102.5
1489,G#4,230.0,0.25,49,102.5
1490,B3,230.0,0.5,49,102.5
1491,E4,230.0,0.5,49,102.5
1492,E2,230.0,0.5,50,102.5
1493,E3,230.0,0.5,50,102.5
1494,A4,230.25,0.25,49,102.5
1495,B3,230.5,1.0,53,102.5
1496,E-4,230.5,1.0,53,102.5
1497,F#4,230.5,1.0,53,102.5
1498,B1,230.5,1.0,53,102.5
1499,B2,230.5,1.0,53,102.5
1500,B3,231.5,0.5,48,102.5
1501,E4,231.5,0.5,48,102.5
1502,G#4,231.5,0.5,48,102.5
1503,E2,231.5,0.5,50,102.5
1504,E3,231.5,0.5,50,102.5
1505,F#4,232.0,0.25,53,102.5
1506,B3,232.0,0.5,53,102.5
1507,E-4,232.0,0.5,53,102.5
1508,B1,232.0,0.5,54,102.5
1509,B2,232.0,0.5,54,102.5
1510,G#4,232.25,0.25,53,102.5
1511,G#3,232.5,1.0,56,102.5
1512,C#4,232.5,1.0,56,102.5
1513,E4,232.5,1.0,56,102.5
1514,C#2,232.5,1.0,58,102.5
1515,C#3,232.5,1.0,58,102.5
1516,A3,233.5,0.5,60,102.5
1517,C#4,233.5,0.5,60,102.5
1518,F#4,233.5,0.5,60,102.5
1519,A1,233.5,0.5,60,102.5
1520,A2,233.5,0.5,60,102.5
1521,A3,234.0,0.5,56,102.5
1522,E-4,234.0,0.25,56,102.5
1523,B1,234.0,0.5,57,102.5
1524,B2,234.0,0.5,57,102.5
1525,F#4,234.25,0.25,56,102.5
1526,G#3,234.5,917/1000,52,102.5
1527,E4,234.5,917/1000,52,102.5
1528,E2,234.5,917/1000,54,102.5
1529,B2,234.5,917/1000,54,102.5
1530,B3,235.5,0.5,45,102.5
1531,G#4,235.5,0.5,45,102.5
1532,E5,235.5,0.5,45,102.5
1533,A4,236.0,0.5,48,102.5
1534,E5,236.0,0.25,48,102.5
1535,E-4,236.0,0.5,39,102.5
1536,B3,236.0,0.5,39,102.5
1537,G#5,236.25,0.25,48,102.5
1538,A4,236.5,1.0,51,102.5
1539,F#5,236.5,1.0,51,102.5
1540,B3,236.5,1.0,48,102.5
1541,E-4,236.5,1.0,48,102.5
1542,F#4,237.5,0.5,47,102.5
1543,A4,237.5,0.5,47,102.5
1544,B3,237.5,0.5,48,102.5
1545,E-4,237.5,0.5,48,102.5
1546,G#4,238.0,0.25,53,102.5
1547,E4,238.0,0.5,53,102.5
1548,B3,238.0,0.5,53,102.5
1549,F#4,238.25,0.25,53,102.5
1550,A4,238.25,0.25,53,102.5
1551,G#4,238.5,1.0,54,102.5
1552,B4,238.5,1.0,54,102.5
1553,B3,238.5,1.0,54,102.5
1554,E4,238.5,1.0,54,102.5
1555,G#4,239.5,0.5,48,102.5
1556,E5,239.5,0.5,48,102.5
1557,B3,239.5,0.5,47,102.5
1558,E4,239.5,0.5,47,102.5
1559,A4,240.0,0.5,54,102.5
1560,E5,240.0,0.25,54,102.5
1561,E-4,240.0,0.5,51,102.5
1562,B3,240.0,0.5,51,102.5
1563,G#5,240.25,0.25,54,102.5
1564,A4,240.5,1.0,55,102.5
1565,F#5,240.5,1.0,55,102.5
1566,B3,240.5,1.0,54,102.5
1567,E-4,240.5,1.0,54,102.5
1568,E-5,241.5,0.5,51,102.5
1569,A4,241.5,0.5,51,102.5
1570,B3,241.5,0.5,51,102.5
1571,F#4,241.5,0.5,51,102.5
1572,G#4,242.0,0.25,51,102.5
1573,E5,242.0,0.25,51,102.5
1574,E4,242.0,0.5,53,102.5
1575,B3,242.0,0.5,53,102.5
1576,E3,242.0,0.5,53,102.5
1577,A4,242.25,0.25,51,102.5
1578,C#5,242.25,0.25,51,102.5
1579,G#4,242.5,1.0,50,102.5
1580,B4,242.5,1.0,50,102.5
1581,B3,242.5,1.0,53,102.5
1582,E4,242.5,1.0,53,102.5
1583,E3,242.5,1.0,53,102.5
1584,B3,243.5,0.5,47,102.5
1585,G#4,243.5,0.5,47,102.5
1586,E4,243.5,0.5,47,102.5
1587,E2,243.5,0.5,47,102.5
1588,E3,243.5,0.5,47,102.5
1589,G#4,244.0,0.25,67,102.5
1590,B3,244.0,0.5,67,102.5
1591,E4,244.0,0.5,67,102.5
1592,E2,244.0,0.5,63,102.5
1593,E3,244.0,0.5,63,102.5
1594,A4,244.25,0.25,67,102.5
1595,B3,244.5,1.0,73,102.5
1596,E-4,244.5,1.0,73,102.5
1597,F#4,244.5,1.0,73,102.5
1598,B1,244.5,1.0,68,102.5
1599,B2,244.5,1.0,68,102.5
1600,B3,245.5,0.5,62,102.5
1601,E4,245.5,0.5,62,102.5
1602,G#4,245.5,0.5,62,102.5
1603,E2,245.5,0.5,66,102.5
1604,E3,245.5,0.5,66,102.5
1605,G#4,246.0,0.25,69,102.5
1606,B3,246.0,0.5,69,102.5
1607,E4,246.0,0.5,69,102.5
1608,E2,246.0,0.5,72,102.5
1609,E3,246.0,0.5,72,102.5
1610,A4,246.25,0.25,69,102.5
1611,B3,246.5,1.0,75,102.5
1612,E-4,246.5,1.0,75,102.5
1613,F#4,246.5,1.0,75,102.5
1614,B1,246.5,1.0,75,102.5
1615,B2,246.5,1.0,75,102.5
1616,B3,247.5,0.5,68,102.5
1617,E4,247.5,0.5,68,102.5
1618,G#4,247.5,0.5,68,102.5
1619,E2,247.5,0.5,72,102.5
1620,E3,247.5,0.5,72,102.5
1621,F#4,248.0,0.25,75,102.5
1622,B3,248.0,0.5,75,102.5
1623,E-4,248.0,0.5,75,102.5
1624,B1,248.0,0.5,77,102.5
1625,B2,248.0,0.5,77,102.5
1626,G#4,248.25,0.25,75,102.5
1627,G#3,248.5,1.0,80,102.5
1628,C#4,248.5,1.0,80,102.5
1629,E4,248.5,1.0,80,102.5
1630,C#2,248.5,1.0,82,102.5
1631,C#3,248.5,1.0,82,102.5
1632,E-4,249.5,0.25,81,102.5
1633,A3,249.5,0.5,72,102.5
1634,F#3,249.5,0.5,72,102.5
1635,F#1,249.5,0.5,72,102.5
1636,F#2,249.5,0.5,72,102.5
1637,C#4,249.75,0.25,78,102.5
1638,C4,250.0,0.25,80,102.5
1639,F#3,250.0,0.5,74,102.5
1640,G#1,250.0,0.5,74,102.5
1641,G#2,250.0,0.5,74,102.5
1642,E-4,250.25,0.25,78,102.5
1643,C#4,250.5,917/1000,74,102.5
1644,F3,250.5,917/1000,72,102.5
1645,C#2,250.5,917/1000,72,102.5
1646,G#2,250.5,917/1000,72,102.5
1647,F4,251.5,0.5,40,102.5
1648,C#5,251.5,0.5,40,102.5
1649,G#3,251.5,0.5,28,102.5
1650,C#4,251.5,0.5,28,102.5
1651,F#4,252.0,0.5,42,102.5
1652,D5,252.0,0.25,42,102.5
1653,C4,252.0,0.5,29,102.5
1654,G#3,252.0,0.5,29,102.5
1655,F5,252.25,0.25,42,102.5
1656,F#4,252.5,1.0,40,102.5
1657,E-5,252.5,1.0,40,102.5
1658,C4,252.5,1.0,28,102.5
1659,G#3,252.5,1.0,28,102.5
1660,E-4,253.5,0.5,34,102.5
1661,F#4,253.5,0.5,34,102.5
1662,C4,253.5,0.5,24,102.5
1663,G#3,253.5,0.5,24,102.5
1664,F4,254.0,0.25,37,102.5
1665,C#4,254.0,0.5,26,102.5
1666,G#3,254.0,0.5,26,102.5
1667,E-4,254.25,0.25,37,102.5
1668,F#4,254.25,0.25,37,102.5
1669,F4,254.5,1.0,40,102.5
1670,G#4,254.5,1.0,40,102.5
1671,C#4,254.5,1.0,28,102.5
1672,G#3,254.5,1.0,28,102.5
1673,C#5,255.5,0.5,38,102.5
1674,F4,255.5,0.5,38,102.5
1675,C#4,255.5,0.5,26,102.5
1676,G#3,255.5,0.5,26,102.5
1677,F#4,256.0,0.5,40,102.5
1678,D5,256.0,0.25,40,102.5
1679,C4,256.0,0.5,28,102.5
1680,G#3,256.0,0.5,28,102.5
1681,F5,256.25,0.25,40,102.5
1682,F#4,256.5,1.0,38,102.5
1683,E-5,256.5,1.0,38,102.5
1684,C4,256.5,1.0,25,102.5
1685,G#3,256.5,1.0,25,102.5
1686,B4,257.5,0.5,32,102.5
1687,F5,257.5,0.5,32,102.5
1688,D4,257.5,0.5,25,102.5
1689,G#3,257.5,0.5,25,102.5
1690,C5,258.0,0.5,35,102.5
1691,F5,258.0,0.25,35,102.5
1692,E-4,258.0,0.5,26,102.5
1693,G#3,258.0,0.5,26,102.5
1694,G#5,258.25,0.25,35,102.5
1695,C5,258.5,1.5,32,102.5
1696,F#5,258.5,1.5,32,102.5
1697,E-4,258.5,1.5,23,102.5
1698,G#3,258.5,1.5,23,102.5
1699,F4,260.0,0.25,31,102.5
1700,C#3,260.0,0.5,16,102.5
1701,G#3,260.0,0.5,16,102.5
1702,C#4,260.0,0.5,16,102.5
1703,G#4,260.25,0.25,31,102.5
1704,F#4,260.5,1.0,27,102.5
1705,B-4,260.5,1.0,27,102.5
1706,C#3,260.5,1.0,18,102.5
1707,G#3,260.5,1.0,18,102.5
1708,C#4,260.5,1.0,18,102.5
1709,F4,261.5,0.375,26,102.5
1710,G#4,261.5,0.375,26,102.5
1711,C#3,261.5,0.375,15,102.5
1712,G#3,261.5,0.375,15,102.5
1713,C#4,261.5,0.375,15,102.5
1714,F4,262.0,0.25,31,102.5
1715,C#3,262.0,0.5,18,102.5
1716,G#3,262.0,0.5,18,102.5
1717,C#4,262.0,0.5,18,102.5
1718,G#4,262.25,0.25,31,102.5
1719,F#4,262.5,1.0,29,102.5
1720,B-4,262.5,1.0,29,102.5
1721,C#5,262.5,1.0,29,102.5
1722,C#3,262.5,1.0,18,102.5
1723,G#3,262.5,1.0,18,102.5
1724,C#4,262.5,1.0,18,102.5
1725,F4,263.5,0.375,25,102.5
1726,G#4,263.5,0.375,25,102.5
1727,C#3,263.5,0.375,16,102.5
1728,G#3,263.5,0.375,16,102.5
1729,C#4,263.5,0.375,16,102.5
1730,F4,264.0,0.25,32,102.5
1731,G#4,264.0,0.25,32,102.5
1732,G#3,264.0,0.5,20,102.5
1733,C4,264.0,0.5,20,102.5
1734,D4,264.25,0.25,33,102.5
1735,E-4,264.5,1.0,32,102.5
1736,F#4,264.5,1.0,32,102.5
1737,G#3,264.5,1.0,22,102.5
1738,C4,264.5,1.0,22,102.5
1739,F#4,265.5,0.5,30,102.5
1740,E-5,265.5,0.5,30,102.5
1741,G#3,265.5,0.5,20,102.5
1742,C4,265.5,0.5,20,102.5
1743,G#4,266.0,0.25,34,102.5
1744,F5,266.0,0.25,34,102.5
1745,C#3,266.0,0.5,20,102.5
1746,G#3,266.0,0.5,20,102.5
1747,C#4,266.0,0.5,20,102.5
1748,F#4,266.25,0.25,32,102.5
1749,E-5,266.25,0.25,32,102.5
1750,F4,266.5,1.0,34,102.5
1751,C#5,266.5,1.0,34,102.5
1752,C#3,266.5,1.0,21,102.5
1753,G#3,266.5,1.0,21,102.5
1754,C#4,266.5,1.0,21,102.5
1755,F4,267.5,0.375,28,102.5
1756,G#4,267.5,0.375,28,102.5
1757,C#3,267.5,0.375,18,102.5
1758,G#3,267.5,0.375,18,102.5
1759,C#4,267.5,0.375,18,102.5
1760,F4,268.0,0.25,31,102.5
1761,C#3,268.0,0.5,18,102.5
1762,G#3,268.0,0.5,18,102.5
1763,C#4,268.0,0.5,18,102.5
1764,G#4,268.25,0.25,31,102.5
1765,F#4,268.5,1.0,26,102.5
1766,B-4,268.5,1.0,26,102.5
1767,C#3,268.5,1.0,19,102.5
1768,G#3,268.5,1.0,19,102.5
1769,C#4,268.5,1.0,19,102.5
1770,F4,269.5,0.375,27,102.5
1771,G#4,269.5,0.375,27,102.5
1772,C#3,269.5,0.375,17,102.5
1773,G#3,269.5,0.375,17,102.5
1774,C#4,269.5,0.375,17,102.5
1775,F4,270.0,0.25,31,102.5
1776,C#3,270.0,0.5,18,102.5
1777,G#3,270.0,0.5,18,102.5
1778,C#4,270.0,0.5,18,102.5
1779,G#4,270.25,0.25,31,102.5
1780,F#4,270.5,1.0,27,102.5
1781,B-4,270.5,1.0,27,102.5
1782,C#5,270.5,1.0,27,102.5
1783,C#3,270.5,1.0,18,102.5
1784,G#3,270.5,1.0,18,102.5
1785,C#4,270.5,1.0,18,102.5
1786,F4,271.5,0.375,25,102.5
1787,G#4,271.5,0.375,25,102.5
1788,C#3,271.5,0.375,17,102.5
1789,G#3,271.5,0.375,17,102.5
1790,C#4,271.5,0.375,17,102.5
1791,F4,272.0,0.25,32,102.5
1792,G#4,272.0,0.25,32,102.5
1793,G#3,272.0,0.5,20,102.5
1794,C4,272.0,0.5,20,102.5
1795,D4,272.25,0.25,33,102.5
1796,E-4,272.5,0.75,38,102.5
1797,F#4,272.5,0.75,38,102.5
1798,G#3,272.5,1.0,22,102.5
1799,C4,272.5,1.0,22,102.5
1800,F#4,273.25,0.25,30,102.5
1801,E-5,273.25,0.25,30,102.5
1802,G#4,273.5,0.25,32,102.5
1803,F5,273.5,0.25,32,102.5
1804,G#3,273.5,0.5,19,102.5
1805,C4,273.5,0.5,19,102.5
1806,F#4,273.75,0.25,30,102.5
1807,E-5,273.75,0.25,30,102.5
1808,F4,274.0,0.25,32,102.5
1809,C#5,274.0,0.25,32,102.5
1810,C#3,274.0,0.5,20,102.5
1811,G#3,274.0,0.5,20,102.5
1812,C#4,274.0,0.5,20,102.5
1813,F#4,274.25,0.25,32,102.5
1814,E-5,274.25,0.25,32,102.5
1815,F4,274.5,1.5,34,102.5
1816,C#5,274.5,1.5,34,102.5
1817,C#3,274.5,1.5,21,102.5
1818,G#3,274.5,1.5,21,102.5
1819,C#4,274.5,1.5,21,102.5
1820,F3,276.0,0.25,35,102.5
1821,F1,276.0,0.5,32,102.5
1822,F2,276.0,0.5,32,102.5
1823,A3,276.25,0.25,35,102.5
1824,C#3,276.5,1.0,36,102.5
1825,F3,276.5,1.0,36,102.5
1826,B-3,276.5,1.0,36,102.5
1827,B-1,276.5,1.0,36,102.5
1828,F2,276.5,1.0,36,102.5
1829,C3,277.5,0.5,30,102.5
1830,F3,277.5,0.5,30,102.5
1831,A3,277.5,0.5,30,102.5
1832,F1,277.5,0.5,30,102.5
1833,F2,277.5,0.5,30,102.5
1834,F3,278.0,0.25,39,102.5
1835,F1,278.0,0.5,32,102.5
1836,F2,278.0,0.5,32,102.5
1837,A3,278.25,0.25,39,102.5
1838,C#4,278.5,1.0,40,102.5
1839,B-3,278.5,1.0,40,102.5
1840,F3,278.5,1.0,40,102.5
1841,B-1,278.5,1.0,40,102.5
1842,F2,278.5,1.0,40,102.5
1843,C4,279.5,0.5,31,102.5
1844,F3,279.5,0.5,31,102.5
1845,A3,279.5,0.5,31,102.5
1846,F1,279.5,0.5,31,102.5
1847,F2,279.5,0.5,31,102.5
1848,C4,280.0,0.25,29,102.5
1849,A3,280.0,0.25,29,102.5
1850,F1,280.0,0.5,24,102.5
1851,F2,280.0,0.5,24,102.5
1852,F#4,280.25,0.25,29,102.5
1853,B-3,280.5,1.0,33,102.5
1854,C#4,280.5,1.0,33,102.5
1855,F4,280.5,1.0,33,102.5
1856,B-1,280.5,1.0,24,102.5
1857,F2,280.5,1.0,24,102.5
1858,A3,281.5,0.5,25,102.5
1859,C4,281.5,0.5,25,102.5
1860,F4,281.5,0.5,25,102.5
1861,F1,281.5,0.5,20,102.5
1862,F2,281.5,0.5,20,102.5
1863,F#4,282.0,0.25,22,102.5
1864,G#3,282.0,0.5,18,102.5
1865,C4,282.0,0.5,18,102.5
1866,E-2,282.0,0.5,17,102.5
1867,G#2,282.0,0.5,17,102.5
1868,G#4,282.25,0.25,22,102.5
1869,G#3,282.5,1.5,19,102.5
1870,C#4,282.5,1.5,19,102.5
1871,F4,282.5,1.5,19,102.5
1872,C#2,282.5,1.5,17,102.5
1873,G#2,282.5,1.5,17,102.5
1874,G#4,283.5,0.5,60,102.5
1875,E4,284.0,0.25,66,102.5
1876,C#3,284.0,0.25,54,102.5
1877,C#4,284.25,0.25,60,102.5
1878,E4,284.5,0.25,60,102.5
1879,G#3,284.5,0.25,50,102.5
1880,G#4,284.75,0.25,60,102.5
1881,E4,285.0,0.25,64,102.5
1882,C#3,285.0,0.25,54,102.5
1883,C#4,285.25,0.25,60,102.5
1884,E4,285.5,0.25,60,102.5
1885,A3,285.5,0.25,50,102.5
1886,A4,285.75,0.25,60,102.5
1887,E-4,286.0,0.25,63,102.5
1888,C3,286.0,0.25,54,102.5
1889,C4,286.25,0.25,60,102.5
1890,E-4,286.5,0.25,60,102.5
1891,A3,286.5,0.25,51,102.5
1892,A4,286.75,0.25,60,102.5
1893,E-4,287.0,0.25,63,102.5
1894,C3,287.0,0.25,54,102.5
1895,C4,287.25,0.25,60,102.5
1896,E-4,287.5,0.25,60,102.5
1897,G#3,287.5,0.25,50,102.5
1898,G#4,287.75,0.25,60,102.5
1899,G#4,288.0,0.25,66,102.5
1900,C#3,288.0,0.25,55,102.5
1901,E4,288.25,0.25,63,102.5
1902,G#4,288.5,0.25,63,102.5
1903,G#3,288.5,0.25,51,102.5
1904,E5,288.75,0.25,63,102.5
1905,G#4,289.0,0.25,66,102.5
1906,E3,289.0,0.25,55,102.5
1907,E4,289.25,0.25,63,102.5
1908,G#4,289.5,0.25,63,102.5
1909,G#3,289.5,0.25,52,102.5
1910,C#5,289.75,0.25,63,102.5
1911,A4,290.0,0.25,67,102.5
1912,E-3,290.0,0.25,56,102.5
1913,G#4,290.25,0.25,60,102.5
1914,F#4,290.5,0.25,61,102.5
1915,A3,290.5,0.25,52,102.5
1916,C#5,290.75,0.25,62,102.5
1917,C5,291.0,0.25,68,102.5
1918,E-3,291.0,0.25,55,102.5
1919,F#4,291.25,0.25,65,102.5
1920,G#4,291.5,0.25,66,102.5
1921,G#3,291.5,0.25,52,102.5
1922,C5,291.75,0.25,67,102.5
1923,C#5,292.0,0.25,72,102.5
1924,C#3,292.0,0.25,56,102.5
1925,E4,292.25,0.25,63,102.5
1926,G#4,292.5,0.25,65,102.5
1927,C#4,292.5,0.25,50,102.5
1928,C#5,292.75,0.25,67,102.5
1929,E5,293.0,0.25,69,102.5
1930,C#3,293.0,0.25,55,102.5
1931,G#4,293.25,0.25,64,102.5
1932,E5,293.5,0.25,66,102.5
1933,B3,293.5,0.25,51,102.5
1934,G#5,293.75,0.25,68,102.5
1935,E5,294.0,0.25,73,102.5
1936,F#3,294.0,0.25,57,102.5
1937,A4,294.25,0.25,64,102.5
1938,E5,294.5,0.25,66,102.5
1939,A3,294.5,0.25,56,102.5
1940,G#5,294.75,0.25,68,102.5
1941,D5,295.0,0.25,70,102.5
1942,F#3,295.0,0.25,57,102.5
1943,F#5,295.25,0.25,67,102.5
1944,C#5,295.5,0.25,70,102.5
1945,A3,295.5,0.25,54,102.5
1946,E5,295.75,0.25,67,102.5
1947,C5,296.0,0.25,68,102.5
1948,A2,296.0,0.25,58,102.5
1949,E-5,296.25,0.25,65,102.5
1950,C#5,296.5,0.25,67,102.5
1951,F#3,296.5,0.25,54,102.5
1952,E5,296.75,0.25,65,102.5
1953,E-5,297.0,0.25,68,102.5
1954,G#2,297.0,0.25,56,102.5
1955,F#5,297.25,0.25,64,102.5
1956,C5,297.5,0.25,69,102.5
1957,G#3,297.5,0.25,54,102.5
1958,E-5,297.75,0.25,64,102.5
1959,E5,298.0,0.25,68,102.5
1960,C#3,298.0,0.25,54,102.5
1961,C#5,298.25,0.25,67,102.5
1962,B4,298.5,0.25,66,102.5
1963,E-3,298.5,0.25,54,102.5
1964,A4,298.75,0.25,64,102.5
1965,G#4,299.0,0.25,63,102.5
1966,E3,299.0,0.25,55,102.5
1967,F#4,299.25,0.25,62,102.5
1968,E4,299.5,0.25,60,102.5
1969,G#3,299.5,0.25,56,102.5
1970,E-4,299.75,0.25,59,102.5
1971,E4,300.0,0.25,62,102.5
1972,C#3,300.0,0.25,51,102.5
1973,C#4,300.25,0.25,57,102.5
1974,E4,300.5,0.25,57,102.5
1975,G#3,300.5,0.25,47,102.5
1976,G#4,300.75,0.25,57,102.5
1977,E4,301.0,0.25,60,102.5
1978,C#3,301.0,0.25,51,102.5
1979,C#4,301.25,0.25,57,102.5
1980,E4,301.5,0.25,57,102.5
1981,A3,301.5,0.25,47,102.5
1982,A4,301.75,0.25,57,102.5
1983,E-4,302.0,0.25,59,102.5
1984,B2,302.0,0.25,51,102.5
1985,B3,302.25,0.25,57,102.5
1986,E-4,302.5,0.25,57,102.5
1987,A3,302.5,0.25,48,102.5
1988,A4,302.75,0.25,57,102.5
1989,E-4,303.0,0.25,59,102.5
1990,B2,303.0,0.25,51,102.5
1991,B3,303.25,0.25,57,102.5
1992,E-4,303.5,0.25,57,102.5
1993,G#3,303.5,0.25,47,102.5
1994,G#4,303.75,0.25,57,102.5
1995,G#4,304.0,0.25,62,102.5
1996,E3,304.0,0.25,52,102.5
1997,C#4,304.25,0.25,59,102.5
1998,G#4,304.5,0.25,59,102.5
1999,G#3,304.5,0.25,48,102.5
2000,C#5,304.75,0.25,59,102.5
2001,F#4,305.0,0.25,62,102.5
2002,A2,305.0,0.25,52,102.5
2003,E-4,305.25,0.25,59,102.5
2004,F#4,305.5,0.25,59,102.5
2005,A3,305.5,0.25,49,102.5
2006,C#5,305.75,0.25,59,102.5
2007,G#4,306.0,0.25,63,102.5
2008,G#2,306.0,0.25,51,102.5
2009,E4,306.25,0.25,59,102.5
2010,G#4,306.5,0.25,59,102.5
2011,B3,306.5,0.25,49,102.5
2012,C#5,306.75,0.25,59,102.5
2013,G#4,307.0,0.25,62,102.5
2014,G#3,307.0,0.25,52,102.5
2015,E4,307.25,0.25,60,102.5
2016,G#4,307.5,0.25,60,102.5
2017,B3,307.5,0.25,49,102.5
2018,B4,307.75,0.25,60,102.5
2019,G4,308.0,0.25,68,102.5
2020,C#3,308.0,0.25,52,102.5
2021,E4,308.25,0.25,59,102.5
2022,G4,308.5,0.25,61,102.5
2023,E3,308.5,0.25,47,102.5
2024,B-4,308.75,0.25,63,102.5
2025,E5,309.0,0.25,65,102.5
2026,C3,309.0,0.25,52,102.5
2027,B-4,309.25,0.25,60,102.5
2028,E5,309.5,0.25,62,102.5
2029,B-3,309.5,0.25,44,102.5
2030,G5,309.75,0.25,64,102.5
2031,E-5,310.0,0.25,64,102.5
2032,B2,310.0,0.25,48,102.5
2033,G5,310.25,0.25,62,102.5
2034,E-5,310.5,0.25,63,102.5
2035,B3,310.5,0.25,45,102.5
2036,F#5,310.75,0.25,61,102.5
2037,A4,311.0,0.25,62,102.5
2038,C3,311.0,0.25,48,102.5
2039,E5,311.25,0.25,61,102.5
2040,A4,311.5,0.25,62,102.5
2041,F#3,311.5,0.25,43,102.5
2042,E-5,311.75,0.25,60,102.5
2043,A4,312.0,0.25,59,102.5
2044,C#3,312.0,0.25,45,102.5
2045,F#5,312.25,0.25,56,102.5
2046,G#4,312.5,0.25,59,102.5
2047,E3,312.5,0.25,39,102.5
2048,E5,312.75,0.25,56,102.5
2049,E4,313.0,0.25,58,102.5
2050,A2,313.0,0.25,46,102.5
2051,C#5,313.25,0.25,55,102.5
2052,C#4,313.5,0.25,57,102.5
2053,F#3,313.5,0.25,40,102.5
2054,A4,313.75,0.25,55,102.5
2055,B3,314.0,0.25,57,102.5
2056,B2,314.0,0.25,46,102.5
2057,G#4,314.25,0.25,55,102.5
2058,E4,314.5,0.25,57,102.5
2059,G#3,314.5,0.25,43,102.5
2060,B4,314.75,0.25,56,102.5
2061,B3,315.0,0.25,57,102.5
2062,B2,315.0,0.25,45,102.5
2063,A4,315.25,0.25,56,102.5
2064,E-4,315.5,0.25,57,102.5
2065,A3,315.5,0.25,41,102.5
2066,B4,315.75,0.25,56,102.5
2067,A4,316.0,0.75,57,102.5
2068,B2,316.0,0.25,46,102.5
2069,E-4,316.25,0.25,54,102.5
2070,B3,316.5,0.25,54,102.5
2071,F#3,316.5,0.25,39,102.5
2072,A4,316.75,0.25,57,102.5
2073,G#4,317.0,0.25,57,102.5
2074,E3,317.0,0.25,47,102.5
2075,E4,317.25,0.25,53,102.5
2076,G#4,317.5,0.25,55,102.5
2077,F#3,317.5,0.25,41,102.5
2078,A4,317.75,0.25,57,102.5
2079,B4,318.0,0.25,59,102.5
2080,G#3,318.0,0.25,45,102.5
2081,G#4,318.25,0.25,50,102.5
2082,B4,318.5,0.25,53,102.5
2083,B3,318.5,0.25,36,102.5
2084,G#5,318.75,0.25,46,102.5
2085,B4,319.0,0.25,49,102.5
2086,G#3,319.0,0.25,34,102.5
2087,F#5,319.25,0.25,44,102.5
2088,C5,319.5,0.25,49,102.5
2089,E4,319.5,0.25,31,102.5
2090,E5,319.75,0.25,46,102.5
2091,C#5,320.0,0.25,53,102.5
2092,A3,320.0,0.25,45,102.5
2093,E4,320.25,0.25,56,102.5
2094,C#5,320.5,0.25,54,102.5
2095,A2,320.5,0.25,40,102.5
2096,E5,320.75,0.25,55,102.5
2097,B4,321.0,0.25,59,102.5
2098,B2,321.0,0.25,41,102.5
2099,E-5,321.25,0.25,54,102.5
2100,A4,321.5,0.25,57,102.5
2101,C#3,321.5,0.25,42,102.5
2102,C#5,321.75,0.25,54,102.5
2103,G#4,322.0,0.25,57,102.5
2104,B2,322.0,0.25,45,102.5
2105,B3,322.25,0.25,54,102.5
2106,G#4,322.5,0.25,54,102.5
2107,E3,322.5,0.25,39,102.5
2108,B4,322.75,0.25,54,102.5
2109,E4,323.0,0.25,57,102.5
2110,B2,323.0,0.25,43,102.5
2111,B-3,323.25,0.25,51,102.5
2112,E4,323.5,0.25,52,102.5
2113,G3,323.5,0.25,41,102.5
2114,C#5,323.75,0.25,52,102.5
2115,F#4,324.0,0.25,54,102.5
2116,B2,324.0,0.25,41,102.5
2117,A3,324.25,0.25,49,102.5
2118,F#4,324.5,0.25,49,102.5
2119,E3,324.5,0.25,39,102.5
2120,B4,324.75,0.25,49,102.5
2121,F#4,325.0,0.25,53,102.5
2122,B2,325.0,0.25,41,102.5
2123,A3,325.25,0.25,48,102.5
2124,F#4,325.5,0.25,48,102.5
2125,E-3,325.5,0.25,37,102.5
2126,B4,325.75,0.25,48,102.5
2127,E4,326.0,0.25,48,102.5
2128,E3,326.0,0.5,48,102.5
2129,G#3,326.25,0.25,44,102.5
2130,E4,326.5,0.25,44,102.5
2131,G#4,326.75,0.25,44,102.5
2132,B2,327.0,0.25,48,102.5
2133,E2,327.25,0.25,44,102.5
2134,B2,327.5,0.25,44,102.5
2135,E3,327.75,0.25,45,102.5
2136,E-4,328.0,0.25,48,102.5
2137,A3,328.25,0.25,43,102.5
2138,E-4,328.5,0.25,43,102.5
2139,B4,328.75,0.25,43,102.5
2140,B2,329.0,0.25,48,102.5
2141,E2,329.25,0.25,44,102.5
2142,B2,329.5,0.25,44,102.5
2143,F#3,329.75,0.25,44,102.5
2144,E4,330.0,0.25,48,102.5
2145,G#3,330.25,0.25,45,102.5
2146,E4,330.5,0.25,45,102.5
2147,G#4,330.75,0.25,45,102.5
2148,G#4,331.0,0.25,44,102.5
2149,E3,331.0,0.25,46,102.5
2150,B4,331.25,0.25,49,102.5
2151,G#3,331.25,0.25,47,102.5
2152,E5,331.5,0.25,53,102.5
2153,B3,331.5,0.25,52,102.5
2154,G#5,331.75,0.25,58,102.5
2155,E4,331.75,0.25,56,102.5
2156,G#5,332.0,0.5,62,102.5
2157,E4,332.0,0.5,58,102.5
2158,G#4,332.25,0.25,46,102.5
2159,E5,332.5,0.5,56,102.5
2160,C#4,332.5,0.5,55,102.5
2161,G#4,332.75,0.25,47,102.5
2162,E-5,333.0,0.5,53,102.5
2163,C4,333.0,0.5,52,102.5
2164,G#4,333.25,0.25,44,102.5
2165,D5,333.5,0.5,50,102.5
2166,B3,333.5,0.5,49,102.5
2167,G#4,333.75,0.25,44,102.5
2168,C#5,334.0,0.25,48,102.5
2169,A3,334.0,0.5,46,102.5
2170,C#4,334.25,0.25,43,102.5
2171,A4,334.5,0.25,43,102.5
2172,C#5,334.75,0.25,43,102.5
2173,E3,335.0,0.25,48,102.5
2174,A2,335.25,0.25,44,102.5
2175,E3,335.5,0.25,44,102.5
2176,A3,335.75,0.25,44,102.5
2177,G#4,336.0,0.25,48,102.5
2178,D4,336.25,0.25,42,102.5
2179,G#4,336.5,0.25,42,102.5
2180,E5,336.75,0.25,42,102.5
2181,E3,337.0,0.25,48,102.5
2182,A2,337.25,0.25,41,102.5
2183,E3,337.5,0.25,41,102.5
2184,B3,337.75,0.25,41,102.5
2185,A4,338.0,0.25,48,102.5
2186,C#4,338.25,0.25,42,102.5
2187,A4,338.5,0.25,42,102.5
2188,C#5,338.75,0.25,43,102.5
2189,C#5,339.0,0.25,43,102.5
2190,A3,339.0,0.25,44,102.5
2191,E5,339.25,0.25,48,102.5
2192,C#4,339.25,0.25,49,102.5
2193,A5,339.5,0.25,53,102.5
2194,E4,339.5,0.25,54,102.5
2195,C#6,339.75,0.25,59,102.5
2196,A4,339.75,0.25,59,102.5
2197,C#6,340.0,0.25,64,102.5
2198,A4,340.0,0.5,62,102.5
2199,C#5,340.25,0.25,56,102.5
2200,A5,340.5,0.25,61,102.5
2201,F#4,340.5,0.5,51,102.5
2202,C#5,340.75,0.25,56,102.5
2203,G#5,341.0,0.25,61,102.5
2204,B4,341.0,0.5,51,102.5
2205,E5,341.25,0.25,56,102.5
2206,F#5,341.5,0.25,61,102.5
2207,B3,341.5,0.5,51,102.5
2208,A4,341.5,0.5,51,102.5
2209,E-5,341.75,0.25,55,102.5
2210,E4,342.0,0.25,66,102.5
2211,G#4,342.0,0.25,66,102.5
2212,E5,342.0,0.25,66,102.5
2213,G#4,342.25,0.25,61,102.5
2214,F#4,342.5,0.25,61,102.5
2215,G#3,342.5,1.5,62,102.5
2216,F#3,342.5,0.5,62,102.5
2217,G#4,342.75,0.25,61,102.5
2218,E4,343.0,0.25,58,102.5
2219,E3,343.0,0.5,71,102.5
2220,G#4,343.25,0.25,62,102.5
2221,E-4,343.5,0.25,66,102.5
2222,E-3,343.5,0.5,78,102.5
2223,G#4,343.75,0.25,69,102.5
2224,E4,344.0,0.25,80,102.5
2225,C#3,344.0,0.25,85,102.5
2226,C#4,344.25,0.25,74,102.5
2227,E4,344.5,0.25,74,102.5
2228,C3,344.5,0.25,77,102.5
2229,G#4,344.75,0.25,74,102.5
2230,E4,345.0,0.25,78,102.5
2231,C#3,345.0,0.25,76,102.5
2232,C#4,345.25,0.25,74,102.5
2233,E4,345.5,0.25,74,102.5
2234,E3,345.5,0.25,76,102.5
2235,A4,345.75,0.25,74,102.5
2236,E-4,346.0,0.25,76,102.5
2237,C3,346.0,0.25,82,102.5
2238,C4,346.25,0.25,74,102.5
2239,E-4,346.5,0.25,74,102.5
2240,E-3,346.5,0.25,76,102.5
2241,A4,346.75,0.25,74,102.5
2242,E-4,347.0,0.25,76,102.5
2243,G#3,347.0,0.25,76,102.5
2244,C4,347.25,0.25,74,102.5
2245,E-4,347.5,0.25,74,102.5
2246,C3,347.5,0.25,76,102.5
2247,G#4,347.75,0.25,74,102.5
2248,G#4,348.0,0.25,80,102.5
2249,C#3,348.0,0.25,80,102.5
2250,E4,348.25,0.25,76,102.5
2251,G#4,348.5,0.25,76,102.5
2252,E-3,348.5,0.25,76,102.5
2253,E5,348.75,0.25,76,102.5
2254,G#4,349.0,0.25,80,102.5
2255,E3,349.0,0.25,76,102.5
2256,E4,349.25,0.25,76,102.5
2257,G#4,349.5,0.25,76,102.5
2258,C#3,349.5,0.25,76,102.5
2259,C#5,349.75,0.25,76,102.5
2260,A4,350.0,0.25,82,102.5
2261,E-3,350.0,0.25,76,102.5
2262,G#4,350.25,0.25,74,102.5
2263,F#4,350.5,0.25,75,102.5
2264,A3,350.5,0.25,83,102.5
2265,C#5,350.75,0.25,76,102.5
2266,C5,351.0,0.25,83,102.5
2267,G#3,351.0,0.25,81,102.5
2268,E-4,351.25,0.25,79,102.5
2269,G#4,351.5,0.25,80,102.5
2270,F#3,351.5,0.25,76,102.5
2271,C5,351.75,0.25,82,102.5
2272,C#5,352.0,0.25,88,102.5
2273,E3,352.0,0.25,74,102.5
2274,G#4,352.25,0.25,76,102.5
2275,C#5,352.5,0.25,79,102.5
2276,E-3,352.5,0.25,76,102.5
2277,E5,352.75,0.25,82,102.5
2278,E5,353.0,0.25,84,102.5
2279,C#3,353.0,0.25,79,102.5
2280,G#4,353.25,0.25,82,102.5
2281,E5,353.5,0.25,86,102.5
2282,B2,353.5,0.25,80,102.5
2283,G#5,353.75,0.25,90,102.5
2284,E5,354.0,0.25,93,102.5
2285,A2,354.0,0.25,84,102.5
2286,A4,354.25,0.25,90,102.5
2287,E5,354.5,0.25,88,102.5
2288,F#2,354.5,0.125,78,102.5
2289,G#5,354.75,0.25,85,102.5
2290,G#2,354.75,0.125,78,102.5
2291,D5,355.0,0.25,86,102.5
2292,A2,355.0,0.25,83,102.5
2293,F#5,355.25,0.25,82,102.5
2294,C#5,355.5,0.25,86,102.5
2295,F#2,355.5,0.25,79,102.5
2296,E5,355.75,0.25,82,102.5
2297,C5,356.0,0.25,83,102.5
2298,G#2,356.0,0.25,85,102.5
2299,E-5,356.25,0.25,79,102.5
2300,C#5,356.5,0.25,82,102.5
2301,F#2,356.5,0.125,80,102.5
2302,E5,356.75,0.25,76,102.5
2303,E2,356.75,0.125,80,102.5
2304,E-5,357.0,0.25,81,102.5
2305,E-2,357.0,0.25,85,102.5
2306,F#5,357.25,0.25,75,102.5
2307,C5,357.5,0.25,79,102.5
2308,G#2,357.5,0.25,80,102.5
2309,E-5,357.75,0.25,72,102.5
2310,E5,358.0,0.25,79,102.5
2311,C#2,358.0,0.25,88,102.5
2312,C#5,358.25,0.25,74,102.5
2313,B4,358.5,0.25,69,102.5
2314,G#2,358.5,0.5,70,102.5
2315,A4,358.75,0.25,65,102.5
2316,G#4,359.0,0.25,61,102.5
2317,B-2,359.0,0.5,58,102.5
2318,F#4,359.25,0.25,57,102.5
2319,E4,359.5,0.25,53,102.5
2320,C3,359.5,0.5,48,102.5
2321,E-4,359.75,0.25,48,102.5
2322,E4,360.0,0.25,42,102.5
2323,C#3,360.0,0.5,40,102.5
2324,C#4,360.25,0.25,45,102.5
2325,E4,360.5,0.25,45,102.5
2326,E3,360.5,0.5,37,102.5
2327,G#4,360.75,0.25,45,102.5
2328,E4,361.0,0.25,48,102.5
2329,E-3,361.0,0.5,38,102.5
2330,C#4,361.25,0.25,45,102.5
2331,E4,361.5,0.25,45,102.5
2332,C#3,361.5,0.5,37,102.5
2333,A4,361.75,0.25,45,102.5
2334,E-4,362.0,0.25,47,102.5
2335,B2,362.0,0.5,40,102.5
2336,B3,362.25,0.25,45,102.5
2337,E-4,362.5,0.25,45,102.5
2338,E-3,362.5,0.5,38,102.5
2339,A4,362.75,0.25,45,102.5
2340,E-4,363.0,0.25,47,102.5
2341,G#3,363.0,0.5,40,102.5
2342,B3,363.25,0.25,45,102.5
2343,E-4,363.5,0.25,45,102.5
2344,B2,363.5,0.5,37,102.5
2345,G#4,363.75,0.25,45,102.5
2346,G#4,364.0,0.25,49,102.5
2347,A2,364.0,0.5,41,102.5
2348,C#4,364.25,0.25,47,102.5
2349,G#4,364.5,0.25,47,102.5
2350,C#3,364.5,0.5,38,102.5
2351,C#5,364.75,0.25,47,102.5
2352,F#4,365.0,0.25,49,102.5
2353,B2,365.0,0.5,38,102.5
2354,E-4,365.25,0.25,47,102.5
2355,F#4,365.5,0.25,47,102.5
2356,A2,365.5,0.5,39,102.5
2357,C#5,365.75,0.25,47,102.5
2358,G#4,366.0,0.25,50,102.5
2359,G#2,366.0,0.5,40,102.5
2360,E4,366.25,0.25,47,102.5
2361,G#4,366.5,0.25,47,102.5
2362,B2,366.5,0.5,39,102.5
2363,C#5,366.75,0.25,47,102.5
2364,G#4,367.0,0.25,49,102.5
2365,E3,367.0,0.5,41,102.5
2366,E4,367.25,0.25,48,102.5
2367,G#4,367.5,0.25,48,102.5
2368,G#2,367.5,0.5,39,102.5
2369,B4,367.75,0.25,48,102.5
2370,G4,368.0,0.25,54,102.5
2371,E2,368.0,0.5,41,102.5
2372,E4,368.25,0.25,47,102.5
2373,G4,368.5,0.25,48,102.5
2374,E3,368.5,0.25,37,102.5
2375,B-4,368.75,0.25,50,102.5
2376,E-3,368.75,0.25,37,102.5
2377,E5,369.0,0.25,52,102.5
2378,C#3,369.0,0.5,36,102.5
2379,B-4,369.25,0.25,48,102.5
2380,E5,369.5,0.25,49,102.5
2381,C3,369.5,0.5,38,102.5
2382,G5,369.75,0.25,51,102.5
2383,E-5,370.0,0.25,51,102.5
2384,B2,370.0,0.5,43,102.5
2385,G5,370.25,0.25,49,102.5
2386,E-5,370.5,0.25,50,102.5
2387,F#3,370.5,0.5,39,102.5
2388,F#5,370.75,0.25,48,102.5
2389,A4,371.0,0.25,49,102.5
2390,B3,371.0,0.5,47,102.5
2391,E5,371.25,0.25,48,102.5
2392,A4,371.5,0.25,49,102.5
2393,B2,371.5,0.5,34,102.5
2394,E-5,371.75,0.25,48,102.5
2395,A4,372.0,0.25,47,102.5
2396,C3,372.0,0.5,36,102.5
2397,F#5,372.25,0.25,44,102.5
2398,G#4,372.5,0.25,47,102.5
2399,C#3,372.5,0.5,31,102.5
2400,E5,372.75,0.25,44,102.5
2401,E4,373.0,0.25,46,102.5
2402,G#2,373.0,0.5,36,102.5
2403,C#5,373.25,0.25,44,102.5
2404,C#4,373.5,0.25,45,102.5
2405,A2,373.5,0.5,32,102.5
2406,A4,373.75,0.25,44,102.5
2407,B3,374.0,0.25,45,102.5
2408,B2,374.0,0.5,36,102.5
2409,G#4,374.25,0.25,44,102.5
2410,E4,374.5,0.25,45,102.5
2411,G#3,374.5,0.5,34,102.5
2412,B4,374.75,0.25,44,102.5
2413,B3,375.0,0.25,45,102.5
2414,B2,375.0,0.5,36,102.5
2415,A4,375.25,0.25,44,102.5
2416,E-4,375.5,0.25,45,102.5
2417,A3,375.5,0.5,32,102.5
2418,B4,375.75,0.25,44,102.5
2419,A4,376.0,0.75,45,102.5
2420,B2,376.0,0.5,36,102.5
2421,E-4,376.25,0.25,43,102.5
2422,B3,376.5,0.25,43,102.5
2423,F#3,376.5,0.5,31,102.5
2424,A4,376.75,0.25,45,102.5
2425,G#4,377.0,0.25,45,102.5
2426,E3,377.0,0.5,37,102.5
2427,B3,377.25,0.25,42,102.5
2428,E4,377.5,0.25,44,102.5
2429,C#3,377.5,0.25,32,102.5
2430,F#4,377.75,0.25,45,102.5
2431,E-3,377.75,0.25,32,102.5
2432,G#4,378.0,0.25,47,102.5
2433,E3,378.0,0.5,36,102.5
2434,E4,378.25,0.25,43,102.5
2435,G#4,378.5,0.25,45,102.5
2436,G#3,378.5,0.5,33,102.5
2437,E5,378.75,0.25,44,102.5
2438,G#4,379.0,0.25,47,102.5
2439,F3,379.0,0.5,36,102.5
2440,E-5,379.25,0.25,44,102.5
2441,G#4,379.5,0.25,48,102.5
2442,C#4,379.5,0.5,33,102.5
2443,C#5,379.75,0.25,44,102.5
2444,A4,380.0,0.25,48,102.5
2445,F#3,380.0,0.5,36,102.5
2446,C#4,380.25,0.25,44,102.5
2447,A4,380.5,0.25,46,102.5
2448,F#2,380.5,0.5,32,102.5
2449,C#5,380.75,0.25,46,102.5
2450,G#4,381.0,0.25,47,102.5
2451,G#2,381.0,0.5,32,102.5
2452,B4,381.25,0.25,43,102.5
2453,F#4,381.5,0.25,45,102.5
2454,A2,381.5,0.5,33,102.5
2455,A4,381.75,0.25,43,102.5
2456,E4,382.0,0.25,45,102.5
2457,G#2,382.0,0.5,36,102.5
2458,G#3,382.25,0.25,43,102.5
2459,E4,382.5,0.25,43,102.5
2460,C#3,382.5,0.5,31,102.5
2461,G#4,382.75,0.25,43,102.5
2462,C#4,383.0,0.25,45,102.5
2463,G#2,383.0,0.5,34,102.5
2464,G3,383.25,0.25,40,102.5
2465,C#4,383.5,0.25,41,102.5
2466,E3,383.5,0.5,32,102.5
2467,A4,383.75,0.25,41,102.5
2468,E-4,384.0,0.25,43,102.5
2469,G#2,384.0,0.5,32,102.5
2470,F#3,384.25,0.25,39,102.5
2471,E-4,384.5,0.25,39,102.5
2472,C#3,384.5,0.5,31,102.5
2473,G#4,384.75,0.25,39,102.5
2474,E-4,385.0,0.25,42,102.5
2475,G#2,385.0,0.5,32,102.5
2476,F#3,385.25,0.25,38,102.5
2477,E-4,385.5,0.25,38,102.5
2478,C3,385.5,0.5,29,102.5
2479,G#4,385.75,0.25,38,102.5
2480,C#4,386.0,0.25,38,102.5
2481,C#3,386.0,0.5,38,102.5
2482,E3,386.25,0.25,35,102.5
2483,C#4,386.5,0.25,35,102.5
2484,E4,386.75,0.25,35,102.5
2485,G#2,387.0,0.25,38,102.5
2486,C#2,387.25,0.25,35,102.5
2487,G#2,387.5,0.25,35,102.5
2488,C#3,387.75,0.25,36,102.5
2489,C#4,388.0,0.25,38,102.5
2490,A2,388.0,0.5,38,102.5
2491,E3,388.25,0.25,34,102.5
2492,C#4,388.5,0.25,34,102.5
2493,E4,388.75,0.25,34,102.5
2494,E2,389.0,0.25,38,102.5
2495,A1,389.25,0.25,35,102.5
2496,E2,389.5,0.25,35,102.5
2497,A2,389.75,0.25,35,102.5
2498,D4,390.0,0.25,38,102.5
2499,F#2,390.0,0.5,38,102.5
2500,A3,390.25,0.25,36,102.5
2501,D4,390.5,0.25,36,102.5
2502,F#4,390.75,0.25,36,102.5
2503,F#4,391.0,0.25,35,102.5
2504,D3,391.0,0.25,36,102.5
2505,A4,391.25,0.25,39,102.5
2506,F#3,391.25,0.25,37,102.5
2507,D5,391.5,0.25,42,102.5
2508,A3,391.5,0.25,41,102.5
2509,F#5,391.75,0.25,46,102.5
2510,D4,391.75,0.25,44,102.5
2511,A5,392.0,0.5,49,102.5
2512,F#4,392.0,0.5,46,102.5
2513,D5,392.25,0.25,36,102.5
2514,A4,392.5,0.25,37,102.5
2515,F#5,392.5,0.5,44,102.5
2516,F#3,392.5,0.5,44,102.5
2517,D4,392.5,0.5,44,102.5
2518,B4,392.75,0.25,37,102.5
2519,C#5,393.0,0.25,35,102.5
2520,E5,393.0,0.5,42,102.5
2521,G#3,393.0,0.5,41,102.5
2522,E4,393.0,0.5,41,102.5
2523,G#4,393.25,0.25,35,102.5
2524,C5,393.5,0.25,35,102.5
2525,E-5,393.5,0.5,40,102.5
2526,G#3,393.5,0.5,39,102.5
2527,F#4,393.5,0.5,39,102.5
2528,G#4,393.75,0.25,35,102.5
2529,C#5,394.0,0.25,38,102.5
2530,E4,394.0,6/25,36,102.5
2531,C#4,394.0,0.5,36,102.5
2532,E4,394.25,0.25,34,102.5
2533,C#5,394.5,0.25,34,102.5
2534,E5,394.75,0.25,34,102.5
2535,G#3,395.0,0.25,38,102.5
2536,C#3,395.25,0.25,35,102.5
2537,G#3,395.5,0.25,35,102.5
2538,C#4,395.75,0.25,35,102.5
2539,C#5,396.0,0.25,38,102.5
2540,A3,396.0,0.5,36,102.5
2541,E4,396.25,0.25,33,102.5
2542,C#5,396.5,0.25,33,102.5
2543,E5,396.75,0.25,33,102.5
2544,E3,397.0,0.25,38,102.5
2545,A2,397.25,0.25,32,102.5
2546,E3,397.5,0.25,32,102.5
2547,A3,397.75,0.25,32,102.5
2548,D5,398.0,0.25,38,102.5
2549,F#3,398.0,0.5,38,102.5
2550,A4,398.25,0.25,39,102.5
2551,D5,398.5,0.25,44,102.5
2552,A3,398.5,0.25,41,102.5
2553,F#5,398.75,0.25,49,102.5
2554,D4,398.75,0.25,47,102.5
2555,A5,399.0,0.25,55,102.5
2556,F#4,399.0,0.25,53,102.5
2557,F#5,399.25,0.25,53,102.5
2558,D4,399.25,0.25,50,102.5
2559,D5,399.5,0.25,50,102.5
2560,A3,399.5,0.25,48,102.5
2561,A4,399.75,0.25,47,102.5
2562,F#3,399.75,0.25,46,102.5
2563,G#4,400.0,0.25,44,102.5
2564,G#3,400.0,0.5,44,102.5
2565,E5,400.25,0.25,43,102.5
2566,E4,400.5,0.25,47,102.5
2567,G#3,400.5,0.5,39,102.5
2568,C#5,400.75,0.25,42,102.5
2569,F#4,401.0,0.25,46,102.5
2570,G#3,401.0,0.5,38,102.5
2571,E-5,401.25,0.25,41,102.5
2572,E-4,401.5,0.25,44,102.5
2573,G#3,401.5,0.5,37,102.5
2574,C5,401.75,0.25,40,102.5
2575,E4,402.0,0.25,46,102.5
2576,G#3,402.0,1.0,35,102.5
2577,C#5,402.25,0.25,37,102.5
2578,G#2,402.5,0.5,32,102.5
2579,C#4,402.5,0.25,37,102.5
2580,E4,402.5,0.25,37,102.5
2581,G#4,402.75,0.25,30,102.5
2582,G#2,403.0,0.5,27,102.5
2583,E-4,403.0,0.25,32,102.5
2584,F#4,403.0,0.25,32,102.5
2585,G#4,403.25,0.25,26,102.5
2586,G#2,403.5,0.5,24,102.5
2587,C4,403.5,0.25,28,102.5
2588,E-4,403.5,0.25,28,102.5
2589,G#4,403.75,0.25,24,102.5
2590,F4,406.0,0.25,25,102.5
2591,C#3,406.0,0.5,14,102.5
2592,G#3,406.0,0.5,14,102.5
2593,C#4,406.0,0.5,14,102.5
2594,G#4,406.25,0.25,25,102.5
2595,F#4,406.5,1.0,20,102.5
2596,B-4,406.5,1.0,20,102.5
2597,C#3,406.5,1.0,14,102.5
2598,G#3,406.5,1.0,14,102.5
2599,C#4,406.5,1.0,14,102.5
2600,F4,407.5,0.5,18,102.5
2601,G#4,407.5,0.5,18,102.5
2602,C#3,407.5,0.5,12,102.5
2603,G#3,407.5,0.5,12,102.5
2604,C#4,407.5,0.5,12,102.5
2605,F4,408.0,0.25,25,102.5
2606,C#3,408.0,0.5,14,102.5
2607,G#3,408.0,0.5,14,102.5
2608,C#4,408.0,0.5,14,102.5
2609,G#4,408.25,0.25,25,102.5
2610,F#4,408.5,1.0,21,102.5
2611,B-4,408.5,1.0,21,102.5
2612,C#5,408.5,1.0,21,102.5
2613,C#3,408.5,1.0,14,102.5
2614,G#3,408.5,1.0,14,102.5
2615,C#4,408.5,1.0,14,102.5
2616,F4,409.5,0.5,19,102.5
2617,G#4,409.5,0.5,19,102.5
2618,C#3,409.5,0.5,14,102.5
2619,G#3,409.5,0.5,14,102.5
2620,C#4,409.5,0.5,14,102.5
2621,F4,410.0,1.0,19,102.5
2622,G#4,410.0,1.0,19,102.5
2623,C#3,410.0,1.0,12,102.5
2624,G#3,410.0,1.0,12,102.5
2625,C#4,410.0,1.0,12,102.5
2626,F#3,411.0,0.25,24,102.5
2627,G#2,411.0,0.5,24,102.5
2628,E-4,411.25,0.25,20,102.5
2629,E-3,411.5,0.25,24,102.5
2630,G#2,411.5,0.5,24,102.5
2631,C4,411.75,0.25,19,102.5
2632,E3,412.0,0.25,27,102.5
2633,G#2,412.0,0.5,27,102.5
2634,C#4,412.25,0.25,22,102.5
2635,G#3,412.5,0.25,28,102.5
2636,G#2,412.5,0.5,28,102.5
2637,E4,412.75,0.25,25,102.5
2638,F#3,413.0,0.25,23,102.5
2639,G#2,413.0,0.5,23,102.5
2640,E-4,413.25,0.25,19,102.5
2641,E-3,413.5,0.25,22,102.5
2642,G#2,413.5,0.5,22,102.5
2643,C4,413.75,0.25,17,102.5
2644,C#2,414.0,2.0,14,102.5
2645,G#2,414.0,2.0,14,102.5
2646,C#3,414.0,2.0,14,102.5
2647,E3,414.0,2.0,14,102.5
2648,G#3,414.0,2.0,14,102.5
2649,C#4,414.0,2.0,14,102.5
