,note_name,start_time,duration,velocity,tempo
0,E3,0.0,1.0,78,145.51
1,G3,0.0,1.0,78,145.51
2,C4,0.0,1.0,78,145.51
3,E4,0.0,1.0,78,145.51
4,C2,0.0,1.0,58,145.51
5,G2,0.0,1.0,58,145.51
6,C3,0.0,1.0,58,145.51
7,E3,1.0,0.25,73,145.51
8,G3,1.0,0.25,73,145.51
9,C4,1.0,0.25,73,145.51
10,E4,1.0,0.25,73,145.51
11,C2,1.0,0.25,52,145.51
12,G2,1.0,0.25,52,145.51
13,C3,1.0,0.25,52,145.51
14,E3,1.5,0.25,73,145.51
15,G3,1.5,0.25,73,145.51
16,C4,1.5,0.25,73,145.51
17,E4,1.5,0.25,73,145.51
18,C2,1.5,0.25,52,145.51
19,G2,1.5,0.25,52,145.51
20,C3,1.5,0.25,52,145.51
21,E3,2.0,1.0,78,145.51
22,G3,2.0,1.0,78,145.51
23,C4,2.0,1.0,78,145.51
24,E4,2.0,1.0,78,145.51
25,C2,2.0,1.0,59,145.51
26,G2,2.0,1.0,59,145.51
27,C3,2.0,1.0,59,145.51
28,E3,3.0,0.25,72,145.51
29,G3,3.0,0.25,72,145.51
30,C4,3.0,0.25,72,145.51
31,E4,3.0,0.25,72,145.51
32,C2,3.0,0.25,53,145.51
33,G2,3.0,0.25,53,145.51
34,C3,3.0,0.25,53,145.51
35,E3,3.5,0.25,72,145.51
36,G3,3.5,0.25,72,145.51
37,C4,3.5,0.25,72,145.51
38,E4,3.5,0.25,72,145.51
39,C2,3.5,0.25,53,145.51
40,G2,3.5,0.25,53,145.51
41,C3,3.5,0.25,53,145.51
42,E3,4.0,0.5,78,145.51
43,G3,4.0,0.5,78,145.51
44,C4,4.0,0.5,78,145.51
45,E4,4.0,0.5,78,145.51
46,C2,4.0,0.5,59,145.51
47,G2,4.0,0.5,59,145.51
48,C3,4.0,0.5,59,145.51
49,C3,4.5,0.25,79,145.51
50,E3,4.75,0.25,81,145.51
51,G3,5.0,0.25,83,145.51
52,C4,5.25,0.25,85,145.51
53,E4,5.5,0.25,89,145.51
54,G4,5.75,0.25,91,145.51
55,B3,6.0,1.0,88,145.51
56,B4,6.0,1.0,88,145.51
57,C4,7.0,0.25,77,145.51
58,C5,7.0,0.25,77,145.51
59,C4,7.5,0.25,77,145.51
60,C5,7.5,0.25,77,145.51
61,F4,8.0,0.5,84,145.51
62,G4,8.0,0.5,84,145.51
63,B4,8.0,0.5,84,145.51
64,C#5,8.0,0.5,84,145.51
65,G1,8.0,0.5,62,145.51
66,G2,8.0,0.5,62,145.51
67,G4,9.0,0.5,78,145.51
68,F4,9.0,0.5,78,145.51
69,B4,9.0,0.5,78,145.51
70,D5,9.0,0.5,78,145.51
71,G2,9.0,0.5,62,145.51
72,G3,9.0,0.5,62,145.51
73,F3,12.0,1.0,67,145.51
74,G3,12.0,1.0,67,145.51
75,B3,12.0,1.0,67,145.51
76,D4,12.0,1.0,67,145.51
77,G1,12.0,1.0,52,145.51
78,G2,12.0,1.0,52,145.51
79,F3,13.0,0.25,63,145.51
80,G3,13.0,0.25,63,145.51
81,B3,13.0,0.25,63,145.51
82,D4,13.0,0.25,63,145.51
83,G1,13.0,0.25,46,145.51
84,G2,13.0,0.25,46,145.51
85,F3,13.5,0.25,63,145.51
86,G3,13.5,0.25,63,145.51
87,B3,13.5,0.25,63,145.51
88,D4,13.5,0.25,63,145.51
89,G1,13.5,0.25,46,145.51
90,G2,13.5,0.25,46,145.51
91,F3,14.0,1.0,67,145.51
92,G3,14.0,1.0,67,145.51
93,B3,14.0,1.0,67,145.51
94,D4,14.0,1.0,67,145.51
95,G1,14.0,1.0,52,145.51
96,G2,14.0,1.0,52,145.51
97,F3,15.0,0.25,62,145.51
98,G3,15.0,0.25,62,145.51
99,B3,15.0,0.25,62,145.51
100,D4,15.0,0.25,62,145.51
101,G1,15.0,0.25,48,145.51
102,G2,15.0,0.25,48,145.51
103,F3,15.5,0.25,62,145.51
104,G3,15.5,0.25,62,145.51
105,B3,15.5,0.25,62,145.51
106,D4,15.5,0.25,62,145.51
107,G1,15.5,0.25,48,145.51
108,G2,15.5,0.25,48,145.51
109,F3,16.0,0.5,67,145.51
110,G3,16.0,0.5,67,145.51
111,B3,16.0,0.5,67,145.51
112,D4,16.0,0.5,67,145.51
113,G1,16.0,0.5,52,145.51
114,G2,16.0,0.5,52,145.51
115,G3,16.5,0.25,68,145.51
116,B3,16.75,0.25,70,145.51
117,D4,17.0,0.25,72,145.51
118,F4,17.25,0.25,74,145.51
119,G4,17.5,0.25,76,145.51
120,B4,17.75,0.25,78,145.51
121,C#4,18.0,1.0,88,145.51
122,C#5,18.0,1.0,88,145.51
123,D4,19.0,0.25,76,145.51
124,D5,19.0,0.25,76,145.51
125,D4,19.5,0.25,76,145.51
126,D5,19.5,0.25,76,145.51
127,E-4,20.0,0.5,84,145.51
128,G4,20.0,0.5,84,145.51
129,C5,20.0,0.5,84,145.51
130,E-5,20.0,0.5,84,145.51
131,G2,20.0,0.5,55,145.51
132,C2,20.0,0.5,55,145.51
133,C3,20.0,0.5,55,145.51
134,G4,21.0,0.5,78,145.51
135,E4,21.0,0.5,78,145.51
136,C5,21.0,0.5,78,145.51
137,E5,21.0,0.5,78,145.51
138,G3,21.0,0.5,53,145.51
139,C3,21.0,0.5,53,145.51
140,C4,21.0,0.5,53,145.51
141,G3,22.5,0.25,64,145.51
142,C4,22.75,0.25,66,145.51
143,E4,23.0,0.25,68,145.51
144,G4,23.25,0.25,70,145.51
145,C5,23.5,0.25,72,145.51
146,E5,23.75,0.25,74,145.51
147,G4,24.0,1.0,70,145.51
148,E5,24.0,1.0,70,145.51
149,G5,24.0,1.0,70,145.51
150,C2,24.0,2.0,55,145.51
151,C3,24.0,2.0,55,145.51
152,G4,25.0,19/40,62,145.51
153,E5,25.0,19/40,62,145.51
154,G5,25.0,19/40,62,145.51
155,G4,25.5,19/40,62,145.51
156,E5,25.5,19/40,62,145.51
157,G5,25.5,19/40,62,145.51
158,G4,26.0,1.5,69,145.51
159,D5,26.0,1.5,69,145.51
160,G5,26.0,1.5,69,145.51
161,B1,26.0,1.0,48,145.51
162,B2,26.0,1.0,48,145.51
163,B2,27.0,0.5,64,145.51
164,B3,27.0,0.5,64,145.51
165,G4,27.5,0.5,71,145.51
166,D5,27.5,0.5,71,145.51
167,G5,27.5,0.5,71,145.51
168,B2,27.5,0.5,59,145.51
169,B3,27.5,0.5,59,145.51
170,C5,28.0,99/100,79,145.51
171,G5,28.0,99/100,79,145.51
172,C6,28.0,99/100,79,145.51
173,A2,28.0,99/100,68,145.51
174,A3,28.0,99/100,68,145.51
175,C5,29.0,19/40,67,145.51
176,F#5,29.0,19/40,67,145.51
177,C6,29.0,19/40,67,145.51
178,D2,29.0,1.0,56,145.51
179,D3,29.0,1.0,56,145.51
180,C5,29.5,19/40,65,145.51
181,F#5,29.5,19/40,65,145.51
182,C6,29.5,19/40,65,145.51
183,B4,30.0,0.5,68,145.51
184,G5,30.0,0.5,68,145.51
185,B5,30.0,0.5,68,145.51
186,G2,30.0,62/125,54,145.51
187,G3,30.0,62/125,54,145.51
188,G3,30.5,0.25,64,145.51
189,C4,30.75,0.25,66,145.51
190,E4,31.0,0.25,68,145.51
191,G4,31.25,0.25,70,145.51
192,C5,31.5,0.25,72,145.51
193,E5,31.75,0.25,74,145.51
194,G4,32.0,99/100,70,145.51
195,E5,32.0,99/100,70,145.51
196,G5,32.0,99/100,70,145.51
197,C2,32.0,2.0,55,145.51
198,C3,32.0,2.0,55,145.51
199,G4,33.0,0.5,62,145.51
200,E5,33.0,0.5,62,145.51
201,G5,33.0,0.5,62,145.51
202,G4,33.5,0.5,62,145.51
203,E5,33.5,0.5,62,145.51
204,G5,33.5,0.5,62,145.51
205,G4,34.0,1.5,69,145.51
206,D5,34.0,1.5,69,145.51
207,G5,34.0,1.5,69,145.51
208,B1,34.0,1.0,48,145.51
209,B2,34.0,1.0,48,145.51
210,B2,35.0,19/40,61,145.51
211,B3,35.0,19/40,61,145.51
212,G4,35.5,0.5,71,145.51
213,D5,35.5,0.5,71,145.51
214,G5,35.5,0.5,71,145.51
215,B2,35.5,19/40,59,145.51
216,B3,35.5,19/40,59,145.51
217,C5,36.0,99/100,79,145.51
218,G5,36.0,99/100,79,145.51
219,C6,36.0,99/100,79,145.51
220,A2,36.0,99/100,68,145.51
221,A3,36.0,99/100,68,145.51
222,C5,37.0,19/40,67,145.51
223,F#5,37.0,19/40,67,145.51
224,C6,37.0,19/40,67,145.51
225,D2,37.0,1.0,56,145.51
226,D3,37.0,1.0,56,145.51
227,C5,37.5,19/40,65,145.51
228,F#5,37.5,19/40,65,145.51
229,C6,37.5,19/40,65,145.51
230,B4,38.0,0.5,68,145.51
231,G5,38.0,0.5,68,145.51
232,B5,38.0,0.5,68,145.51
233,G2,38.0,0.5,54,145.51
234,G3,38.0,0.5,54,145.51
235,C4,38.5,0.25,64,145.51
236,F4,38.75,0.25,66,145.51
237,A4,39.0,0.25,68,145.51
238,C5,39.25,0.25,70,145.51
239,F5,39.5,0.25,72,145.51
240,A5,39.75,0.25,74,145.51
241,C5,40.0,99/100,76,145.51
242,A5,40.0,99/100,76,145.51
243,C6,40.0,99/100,76,145.51
244,F2,40.0,2.0,55,145.51
245,F3,40.0,2.0,55,145.51
246,C5,41.0,19/40,68,145.51
247,A5,41.0,19/40,68,145.51
248,C6,41.0,19/40,68,145.51
249,C5,41.5,19/40,68,145.51
250,A5,41.5,19/40,68,145.51
251,C6,41.5,19/40,68,145.51
252,C5,42.0,1.5,76,145.51
253,G5,42.0,1.5,76,145.51
254,C6,42.0,1.5,76,145.51
255,E2,42.0,1.0,48,145.51
256,E3,42.0,1.0,48,145.51
257,E3,43.0,19/40,64,145.51
258,E4,43.0,19/40,64,145.51
259,C5,43.5,0.5,78,145.51
260,G5,43.5,0.5,78,145.51
261,C6,43.5,0.5,78,145.51
262,E3,43.5,19/40,59,145.51
263,E4,43.5,19/40,59,145.51
264,F5,44.0,99/100,86,145.51
265,C6,44.0,99/100,86,145.51
266,F6,44.0,99/100,86,145.51
267,D3,44.0,99/100,68,145.51
268,D4,44.0,99/100,68,145.51
269,F5,45.0,19/40,80,145.51
270,B5,45.0,19/40,80,145.51
271,F6,45.0,19/40,80,145.51
272,G2,45.0,1.0,60,145.51
273,G3,45.0,1.0,60,145.51
274,F5,45.5,19/40,78,145.51
275,B5,45.5,19/40,78,145.51
276,F6,45.5,19/40,78,145.51
277,E5,46.0,99/100,81,145.51
278,B5,46.0,99/100,81,145.51
279,E6,46.0,99/100,81,145.51
280,C3,46.0,1.0,58,145.51
281,C4,46.0,1.0,58,145.51
282,E6,47.0,99/100,78,145.51
283,A5,47.0,99/100,78,145.51
284,E5,47.0,99/100,78,145.51
285,F2,47.0,19/40,64,145.51
286,F3,47.0,19/40,64,145.51
287,F2,47.5,19/40,59,145.51
288,F3,47.5,19/40,59,145.51
289,D5,48.0,1.0,86,145.51
290,A5,48.0,1.0,86,145.51
291,D6,48.0,1.0,86,145.51
292,B2,48.0,1.0,66,145.51
293,B3,48.0,1.0,66,145.51
294,D5,49.0,19/40,79,145.51
295,G#5,49.0,19/40,79,145.51
296,D6,49.0,19/40,79,145.51
297,E2,49.0,1.0,59,145.51
298,E3,49.0,1.0,59,145.51
299,D5,49.5,19/40,76,145.51
300,G#5,49.5,19/40,76,145.51
301,D6,49.5,19/40,76,145.51
302,C5,50.0,1.0,79,145.51
303,A5,50.0,1.0,79,145.51
304,C6,50.0,1.0,79,145.51
305,A2,50.0,1.0,57,145.51
306,A3,50.0,1.0,57,145.51
307,A5,51.0,1.0,60,145.51
308,C5,51.0,1.0,60,145.51
309,A4,51.0,1.0,60,145.51
310,A1,51.0,0.25,48,145.51
311,A2,51.0,0.25,48,145.51
312,G1,51.5,0.25,44,145.51
313,G2,51.5,0.25,44,145.51
314,F1,52.0,0.25,34,145.51
315,A4,52.0,0.25,38,145.51
316,E5,52.0,0.25,38,145.51
317,A5,52.25,0.25,44,145.51
318,F2,52.25,0.25,35,145.51
319,F1,52.5,0.25,37,145.51
320,A4,52.5,0.25,42,145.51
321,E5,52.5,0.25,42,145.51
322,A5,52.75,0.25,47,145.51
323,F2,52.75,0.25,38,145.51
324,F1,53.0,0.25,39,145.51
325,A4,53.0,0.25,45,145.51
326,E5,53.0,0.25,45,145.51
327,A5,53.25,0.25,51,145.51
328,F2,53.25,0.25,41,145.51
329,F1,53.5,0.25,42,145.51
330,A4,53.5,0.25,49,145.51
331,E5,53.5,0.25,49,145.51
332,A5,53.75,0.25,54,145.51
333,F2,53.75,0.25,44,145.51
334,F1,54.0,0.25,45,145.51
335,A4,54.0,0.25,52,145.51
336,E5,54.0,0.25,52,145.51
337,A5,54.25,0.25,58,145.51
338,F2,54.25,0.25,47,145.51
339,F1,54.5,0.25,48,145.51
340,A4,54.5,0.25,56,145.51
341,E5,54.5,0.25,56,145.51
342,A5,54.75,0.25,62,145.51
343,F2,54.75,0.25,50,145.51
344,F1,55.0,0.25,51,145.51
345,A4,55.0,0.25,58,145.51
346,E5,55.0,0.25,58,145.51
347,A5,55.25,0.25,65,145.51
348,F2,55.25,0.25,52,145.51
349,F1,55.5,0.25,54,145.51
350,A4,55.5,0.25,62,145.51
351,E5,55.5,0.25,62,145.51
352,A5,55.75,0.25,69,145.51
353,F2,55.75,0.25,55,145.51
354,F#2,56.0,0.25,61,145.51
355,A4,56.0,0.25,68,145.51
356,E-5,56.0,0.25,68,145.51
357,A5,56.25,0.25,74,145.51
358,G2,56.25,0.25,62,145.51
359,G#2,56.5,0.25,63,145.51
360,A4,56.5,0.25,69,145.51
361,E-5,56.5,0.25,69,145.51
362,A5,56.75,0.25,76,145.51
363,A2,56.75,0.25,64,145.51
364,B-2,57.0,0.25,66,145.51
365,A4,57.0,0.25,72,145.51
366,E-5,57.0,0.25,72,145.51
367,A5,57.25,0.25,80,145.51
368,B2,57.25,0.25,67,145.51
369,C3,57.5,0.25,69,145.51
370,A4,57.5,0.25,75,145.51
371,E-5,57.5,0.25,75,145.51
372,A5,57.75,0.25,83,145.51
373,C#3,57.75,0.25,70,145.51
374,D3,58.0,0.25,72,145.51
375,A4,58.0,0.25,78,145.51
376,E-5,58.0,0.25,78,145.51
377,A5,58.25,0.25,86,145.51
378,E-3,58.25,0.25,73,145.51
379,E3,58.5,0.25,75,145.51
380,A4,58.5,0.25,80,145.51
381,E-5,58.5,0.25,80,145.51
382,A5,58.75,0.25,89,145.51
383,F3,58.75,0.25,76,145.51
384,A4,59.0,0.5,86,145.51
385,E-5,59.0,0.5,86,145.51
386,A5,59.0,0.5,86,145.51
387,F2,59.0,0.5,72,145.51
388,F3,59.0,0.5,72,145.51
389,A4,59.5,0.5,88,145.51
390,E-5,59.5,0.5,88,145.51
391,A5,59.5,0.5,88,145.51
392,F2,59.5,0.5,72,145.51
393,F3,59.5,0.5,72,145.51
394,A4,60.0,0.25,89,145.51
395,E-5,60.0,0.25,89,145.51
396,A5,60.0,0.25,89,145.51
397,F2,60.0,0.25,81,145.51
398,F3,60.0,0.25,81,145.51
399,B4,60.5,0.25,82,145.51
400,E-5,60.5,0.25,82,145.51
401,B5,60.5,0.25,82,145.51
402,A5,60.5,0.25,82,145.51
403,F3,60.5,0.25,74,145.51
404,F4,60.5,0.25,74,145.51
405,B4,61.0,0.25,82,145.51
406,E-5,61.0,0.25,82,145.51
407,A5,61.0,0.25,82,145.51
408,B5,61.0,0.25,82,145.51
409,F3,61.0,0.25,74,145.51
410,F4,61.0,0.25,74,145.51
411,B4,61.5,0.25,82,145.51
412,E-5,61.5,0.25,82,145.51
413,A5,61.5,0.25,82,145.51
414,B5,61.5,0.25,82,145.51
415,F3,61.5,0.25,74,145.51
416,F4,61.5,0.25,74,145.51
417,B4,62.0,0.25,82,145.51
418,E-5,62.0,0.25,82,145.51
419,A5,62.0,0.25,82,145.51
420,B5,62.0,0.25,82,145.51
421,F3,62.0,0.25,74,145.51
422,F4,62.0,0.25,74,145.51
423,B4,62.5,0.25,82,145.51
424,E-5,62.5,0.25,82,145.51
425,A5,62.5,0.25,82,145.51
426,B5,62.5,0.25,82,145.51
427,F3,62.5,0.25,74,145.51
428,F4,62.5,0.25,74,145.51
429,B4,63.0,0.25,82,145.51
430,E-5,63.0,0.25,82,145.51
431,A5,63.0,0.25,82,145.51
432,B5,63.0,0.25,82,145.51
433,F3,63.0,0.25,74,145.51
434,F4,63.0,0.25,74,145.51
435,B4,63.5,0.25,82,145.51
436,E-5,63.5,0.25,82,145.51
437,A5,63.5,0.25,82,145.51
438,B5,63.5,0.25,82,145.51
439,F3,63.5,0.25,74,145.51
440,F4,63.5,0.25,74,145.51
441,B4,64.0,0.5,89,145.51
442,E5,64.0,0.5,89,145.51
443,G#5,64.0,0.5,89,145.51
444,B5,64.0,0.5,89,145.51
445,E4,64.0,0.5,84,145.51
446,E3,64.0,0.5,84,145.51
447,E6,65.0,0.5,90,145.51
448,B5,65.0,0.5,90,145.51
449,G#5,65.0,0.5,90,145.51
450,E5,65.0,0.5,90,145.51
451,E2,65.0,0.5,81,145.51
452,E3,65.0,0.5,81,145.51
453,E3,68.0,99/100,31,145.51
454,G3,68.0,99/100,31,145.51
455,C4,68.0,99/100,31,145.51
456,E4,68.0,99/100,31,145.51
457,C2,68.0,99/100,23,145.51
458,G2,68.0,99/100,23,145.51
459,C3,68.0,99/100,23,145.51
460,E3,69.0,0.25,30,145.51
461,G3,69.0,0.25,30,145.51
462,C4,69.0,0.25,30,145.51
463,E4,69.0,0.25,30,145.51
464,C2,69.0,0.25,20,145.51
465,G2,69.0,0.25,20,145.51
466,C3,69.0,0.25,20,145.51
467,E3,69.5,0.25,30,145.51
468,G3,69.5,0.25,30,145.51
469,C4,69.5,0.25,30,145.51
470,E4,69.5,0.25,30,145.51
471,C2,69.5,0.25,20,145.51
472,G2,69.5,0.25,20,145.51
473,C3,69.5,0.25,20,145.51
474,E3,70.0,99/100,31,145.51
475,G3,70.0,99/100,31,145.51
476,C4,70.0,99/100,31,145.51
477,E4,70.0,99/100,31,145.51
478,C2,70.0,99/100,23,145.51
479,G2,70.0,99/100,23,145.51
480,C3,70.0,99/100,23,145.51
481,E3,71.0,0.25,28,145.51
482,G3,71.0,0.25,28,145.51
483,C4,71.0,0.25,28,145.51
484,E4,71.0,0.25,28,145.51
485,C2,71.0,0.25,21,145.51
486,G2,71.0,0.25,21,145.51
487,C3,71.0,0.25,21,145.51
488,E3,71.5,0.25,28,145.51
489,G3,71.5,0.25,28,145.51
490,C4,71.5,0.25,28,145.51
491,E4,71.5,0.25,28,145.51
492,C2,71.5,0.25,21,145.51
493,G2,71.5,0.25,21,145.51
494,C3,71.5,0.25,21,145.51
495,E3,72.0,0.5,31,145.51
496,G3,72.0,0.5,31,145.51
497,C4,72.0,0.5,31,145.51
498,E4,72.0,0.5,31,145.51
499,C2,72.0,0.5,23,145.51
500,G2,72.0,0.5,23,145.51
501,C3,72.0,0.5,23,145.51
502,C3,72.5,0.25,32,145.51
503,E3,72.75,0.25,33,145.51
504,G3,73.0,0.25,34,145.51
505,C4,73.25,0.25,35,145.51
506,E4,73.5,0.25,36,145.51
507,G4,73.75,0.25,37,145.51
508,B3,74.0,1.0,36,145.51
509,B4,74.0,1.0,36,145.51
510,C4,75.0,0.25,31,145.51
511,C5,75.0,0.25,31,145.51
512,C4,75.5,0.25,31,145.51
513,C5,75.5,0.25,31,145.51
514,F4,76.0,0.5,34,145.51
515,G4,76.0,0.5,34,145.51
516,B4,76.0,0.5,34,145.51
517,C#5,76.0,0.5,34,145.51
518,G1,76.0,0.5,24,145.51
519,G2,76.0,0.5,24,145.51
520,G4,77.0,0.5,32,145.51
521,F4,77.0,0.5,32,145.51
522,B4,77.0,0.5,32,145.51
523,D5,77.0,0.5,32,145.51
524,G2,77.0,0.5,24,145.51
525,G3,77.0,0.5,24,145.51
526,F5,78.0,2.0,35,145.51
527,G5,78.0,2.0,35,145.51
528,D6,78.0,2.0,35,145.51
529,B5,78.0,2.0,35,145.51
530,D5,78.0,2.0,24,145.51
531,B4,78.0,2.0,24,145.51
532,G4,78.0,2.0,24,145.51
533,F3,80.0,99/100,26,145.51
534,G3,80.0,99/100,26,145.51
535,B3,80.0,99/100,26,145.51
536,D4,80.0,99/100,26,145.51
537,G1,80.0,99/100,20,145.51
538,G2,80.0,99/100,20,145.51
539,F3,81.0,0.25,25,145.51
540,G3,81.0,0.25,25,145.51
541,B3,81.0,0.25,25,145.51
542,D4,81.0,0.25,25,145.51
543,G1,81.0,0.25,18,145.51
544,G2,81.0,0.25,18,145.51
545,F3,81.5,0.25,25,145.51
546,G3,81.5,0.25,25,145.51
547,B3,81.5,0.25,25,145.51
548,D4,81.5,0.25,25,145.51
549,G1,81.5,0.25,18,145.51
550,G2,81.5,0.25,18,145.51
551,F3,82.0,99/100,26,145.51
552,G3,82.0,99/100,26,145.51
553,B3,82.0,99/100,26,145.51
554,D4,82.0,99/100,26,145.51
555,G1,82.0,99/100,20,145.51
556,G2,82.0,99/100,20,145.51
557,F3,83.0,0.25,24,145.51
558,G3,83.0,0.25,24,145.51
559,B3,83.0,0.25,24,145.51
560,D4,83.0,0.25,24,145.51
561,G1,83.0,0.25,18,145.51
562,G2,83.0,0.25,18,145.51
563,F3,83.5,0.25,24,145.51
564,G3,83.5,0.25,24,145.51
565,B3,83.5,0.25,24,145.51
566,D4,83.5,0.25,24,145.51
567,G1,83.5,0.25,18,145.51
568,G2,83.5,0.25,18,145.51
569,F3,84.0,0.5,26,145.51
570,G3,84.0,0.5,26,145.51
571,B3,84.0,0.5,26,145.51
572,D4,84.0,0.5,26,145.51
573,G1,84.0,0.5,20,145.51
574,G2,84.0,0.5,20,145.51
575,G3,84.5,0.25,27,145.51
576,B3,84.75,0.25,28,145.51
577,D4,85.0,0.25,28,145.51
578,F4,85.25,0.25,29,145.51
579,G4,85.5,0.25,31,145.51
580,B4,85.75,0.25,32,145.51
581,C#4,86.0,1.0,36,145.51
582,C#5,86.0,1.0,36,145.51
583,D4,87.0,0.25,31,145.51
584,D5,87.0,0.25,31,145.51
585,D4,87.5,0.25,31,145.51
586,D5,87.5,0.25,31,145.51
587,E-4,88.0,0.5,34,145.51
588,G4,88.0,0.5,34,145.51
589,C5,88.0,0.5,34,145.51
590,E-5,88.0,0.5,34,145.51
591,G2,88.0,0.5,21,145.51
592,C2,88.0,0.5,21,145.51
593,C3,88.0,0.5,21,145.51
594,G4,89.0,0.5,31,145.51
595,E4,89.0,0.5,31,145.51
596,C5,89.0,0.5,31,145.51
597,E5,89.0,0.5,31,145.51
598,G3,89.0,0.5,21,145.51
599,C3,89.0,0.5,21,145.51
600,C4,89.0,0.5,21,145.51
601,E5,90.0,2.0,35,145.51
602,G5,90.0,2.0,35,145.51
603,E6,90.0,2.0,35,145.51
604,C6,90.0,2.0,35,145.51
605,C5,90.0,2.0,24,145.51
606,G4,90.0,2.0,24,145.51
607,C4,90.0,2.0,24,145.51
608,G3,92.5,0.25,27,145.51
609,C4,92.75,0.25,28,145.51
610,E4,93.0,0.25,28,145.51
611,G4,93.25,0.25,29,145.51
612,C5,93.5,0.25,31,145.51
613,E5,93.75,0.25,32,145.51
614,C5,94.0,0.75,32,145.51
615,G4,94.0,0.75,32,145.51
616,G5,94.0,0.75,32,145.51
617,A1,94.0,0.75,32,145.51
618,A2,94.0,0.75,32,145.51
619,F4,95.0,0.5,31,145.51
620,C5,95.0,0.5,31,145.51
621,F5,95.0,0.5,31,145.51
622,A3,95.0,0.5,29,145.51
623,C4,95.0,0.5,29,145.51
624,C6,96.0,2.0,32,145.51
625,F5,96.0,2.0,32,145.51
626,C5,96.0,2.0,22,145.51
627,A4,96.0,2.0,22,145.51
628,A3,98.5,0.25,24,145.51
629,C4,98.75,0.25,25,145.51
630,F4,99.0,0.25,25,145.51
631,A4,99.25,0.25,26,145.51
632,C5,99.5,0.25,27,145.51
633,F5,99.75,0.25,27,145.51
634,C5,100.0,0.75,28,145.51
635,A4,100.0,0.75,28,145.51
636,A5,100.0,0.75,28,145.51
637,E2,100.0,0.75,27,145.51
638,E3,100.0,0.75,27,145.51
639,G4,101.0,0.5,28,145.51
640,C5,101.0,0.5,28,145.51
641,G5,101.0,0.5,28,145.51
642,E3,101.0,0.5,25,145.51
643,G3,101.0,0.5,25,145.51
644,C5,102.0,2.0,27,145.51
645,C6,102.0,2.0,27,145.51
646,G5,102.0,2.0,27,145.51
647,G4,102.0,2.0,20,145.51
648,E4,102.0,2.0,20,145.51
649,C5,104.0,2.0,27,145.51
650,C6,104.0,2.0,27,145.51
651,G5,104.0,2.0,27,145.51
652,G4,104.0,2.0,20,145.51
653,E4,104.0,2.0,20,145.51
654,C4,106.5,0.25,76,145.51
655,E4,106.75,0.25,78,145.51
656,G4,107.0,0.25,80,145.51
657,C5,107.25,0.25,82,145.51
658,E5,107.5,0.25,84,145.51
659,G5,107.75,0.25,86,145.51
660,C5,108.0,2.0,82,145.51
661,F5,108.0,2.0,82,145.51
662,G#5,108.0,2.0,82,145.51
663,C6,108.0,2.0,82,145.51
664,D2,108.5,0.25,72,145.51
665,F2,108.75,0.25,74,145.51
666,G#2,109.0,0.25,76,145.51
667,D3,109.25,0.25,78,145.51
668,F3,109.5,0.25,80,145.51
669,G#3,109.75,0.25,82,145.51
670,B4,110.0,2.0,80,145.51
671,F5,110.0,2.0,80,145.51
672,B5,110.0,2.0,80,145.51
673,G5,110.0,2.0,80,145.51
674,D3,110.0,2.0,78,145.51
675,D4,110.0,2.0,78,145.51
676,C5,112.0,1.0,83,145.51
677,C6,112.0,1.0,83,145.51
678,G5,112.0,1.0,83,145.51
679,E3,112.0,1.0,74,145.51
680,E4,112.0,1.0,74,145.51
681,E5,113.0,1.0,80,145.51
682,E6,113.0,1.0,80,145.51
683,A5,113.0,1.0,80,145.51
684,F#5,113.0,1.0,80,145.51
685,C3,113.0,1.0,70,145.51
686,C4,113.0,1.0,70,145.51
687,D5,114.0,0.5,83,145.51
688,D6,114.0,0.5,83,145.51
689,B5,114.0,0.5,83,145.51
690,G5,114.0,0.5,83,145.51
691,G2,114.0,0.5,74,145.51
692,G3,114.0,0.5,74,145.51
693,D4,114.5,0.25,76,145.51
694,G4,114.75,0.25,79,145.51
695,B4,115.0,0.25,82,145.51
696,D5,115.25,0.25,85,145.51
697,G5,115.5,0.25,88,145.51
698,B5,115.75,0.25,91,145.51
699,C5,116.0,2.0,82,145.51
700,F5,116.0,2.0,82,145.51
701,G#5,116.0,2.0,82,145.51
702,C6,116.0,2.0,82,145.51
703,D2,116.5,0.25,72,145.51
704,F2,116.75,0.25,74,145.51
705,G#2,117.0,0.25,76,145.51
706,D3,117.25,0.25,78,145.51
707,F3,117.5,0.25,80,145.51
708,G#3,117.75,0.25,82,145.51
709,B4,118.0,2.0,80,145.51
710,F5,118.0,2.0,80,145.51
711,B5,118.0,2.0,80,145.51
712,G5,118.0,2.0,80,145.51
713,D3,118.0,2.0,78,145.51
714,D4,118.0,2.0,78,145.51
715,C5,120.0,1.0,83,145.51
716,C6,120.0,1.0,83,145.51
717,G5,120.0,1.0,83,145.51
718,E3,120.0,1.0,74,145.51
719,E4,120.0,1.0,74,145.51
720,E5,121.0,1.0,80,145.51
721,E6,121.0,1.0,80,145.51
722,A5,121.0,1.0,80,145.51
723,F#5,121.0,1.0,80,145.51
724,C3,121.0,1.0,70,145.51
725,C4,121.0,1.0,70,145.51
726,D5,122.0,0.5,83,145.51
727,D6,122.0,0.5,83,145.51
728,B5,122.0,0.5,83,145.51
729,G5,122.0,0.5,83,145.51
730,G2,122.0,0.5,74,145.51
731,G3,122.0,0.5,74,145.51
732,G4,122.5,0.25,76,145.51
733,B4,122.75,0.25,79,145.51
734,D5,123.0,0.25,82,145.51
735,G5,123.25,0.25,85,145.51
736,B5,123.5,0.25,88,145.51
737,D6,123.75,0.25,91,145.51
738,G5,124.0,2.0,82,145.51
739,B-5,124.0,2.0,82,145.51
740,C#6,124.0,2.0,82,145.51
741,G6,124.0,2.0,82,145.51
742,E3,124.5,0.25,73,145.51
743,G3,124.75,0.25,75,145.51
744,B-3,125.0,0.25,77,145.51
745,C#4,125.25,0.25,79,145.51
746,G4,125.5,0.25,80,145.51
747,B-4,125.75,0.25,82,145.51
748,C#5,126.0,0.25,88,145.51
749,E5,126.25,0.25,82,145.51
750,C#5,126.5,0.25,81,145.51
751,B-4,126.75,0.25,80,145.51
752,G4,127.0,0.25,76,145.51
753,E4,127.25,0.25,78,145.51
754,C#4,127.5,0.25,78,145.51
755,B-3,127.75,0.25,76,145.51
756,E6,128.0,0.25,89,145.51
757,C#4,128.0,0.25,76,145.51
758,G6,128.25,0.25,82,145.51
759,E4,128.25,0.25,68,145.51
760,E6,128.5,0.25,82,145.51
761,C#4,128.5,0.25,69,145.51
762,C#6,128.75,0.25,82,145.51
763,B-3,128.75,0.25,69,145.51
764,B-5,129.0,0.25,86,145.51
765,G3,129.0,0.25,73,145.51
766,G5,129.25,0.25,75,145.51
767,E3,129.25,0.25,66,145.51
768,E5,129.5,0.25,75,145.51
769,C#3,129.5,0.25,66,145.51
770,C#5,129.75,0.25,75,145.51
771,B-2,129.75,0.25,66,145.51
772,E5,130.0,0.25,81,145.51
773,C#3,130.0,0.25,66,145.51
774,G5,130.25,0.25,73,145.51
775,E3,130.25,0.25,60,145.51
776,E5,130.5,0.25,73,145.51
777,C#3,130.5,0.25,60,145.51
778,C#5,130.75,0.25,73,145.51
779,B-2,130.75,0.25,60,145.51
780,B-4,131.0,0.25,80,145.51
781,G2,131.0,0.25,67,145.51
782,G4,131.25,0.25,74,145.51
783,E2,131.25,0.25,59,145.51
784,E4,131.5,0.25,74,145.51
785,C#2,131.5,0.25,60,145.51
786,C#4,131.75,0.25,74,145.51
787,B-1,131.75,0.25,60,145.51
788,E4,132.0,0.25,77,145.51
789,C#2,132.0,0.25,68,145.51
790,G4,132.25,0.25,58,145.51
791,E2,132.25,0.25,47,145.51
792,E4,132.5,0.25,58,145.51
793,C#2,132.5,0.25,47,145.51
794,C#4,132.75,0.25,58,145.51
795,B-1,132.75,0.25,47,145.51
796,E4,133.0,0.25,64,145.51
797,C#2,133.0,0.25,58,145.51
798,G4,133.25,0.25,53,145.51
799,E2,133.25,0.25,45,145.51
800,E4,133.5,0.25,52,145.51
801,C#2,133.5,0.25,45,145.51
802,C#4,133.75,0.25,52,145.51
803,B-1,133.75,0.25,45,145.51
804,E4,134.0,0.25,57,145.51
805,C#2,134.0,0.25,53,145.51
806,G4,134.25,0.25,48,145.51
807,E2,134.25,0.25,39,145.51
808,E4,134.5,0.25,48,145.51
809,C#2,134.5,0.25,39,145.51
810,C#4,134.75,0.25,48,145.51
811,B-1,134.75,0.25,39,145.51
812,E4,135.0,0.25,54,145.51
813,C#2,135.0,0.25,51,145.51
814,G4,135.25,0.25,46,145.51
815,E2,135.25,0.25,34,145.51
816,E4,135.5,0.25,46,145.51
817,C#2,135.5,0.25,34,145.51
818,C#4,135.75,0.25,46,145.51
819,B-1,135.75,0.25,34,145.51
820,D4,136.0,0.25,50,145.51
821,B1,136.0,0.25,37,145.51
822,G4,136.25,0.25,41,145.51
823,D2,136.25,0.25,30,145.51
824,D4,136.5,0.25,41,145.51
825,G2,136.5,0.25,30,145.51
826,G3,136.75,0.25,41,145.51
827,D2,136.75,0.25,30,145.51
828,D4,137.0,0.25,49,145.51
829,B1,137.0,0.25,35,145.51
830,G4,137.25,0.25,41,145.51
831,D2,137.25,0.25,30,145.51
832,D4,137.5,0.25,41,145.51
833,G2,137.5,0.25,30,145.51
834,G3,137.75,0.25,41,145.51
835,D2,137.75,0.25,30,145.51
836,D4,138.0,0.25,48,145.51
837,B1,138.0,0.25,35,145.51
838,G4,138.25,0.25,41,145.51
839,D2,138.25,0.25,30,145.51
840,D4,138.5,0.25,41,145.51
841,G2,138.5,0.25,30,145.51
842,G3,138.75,0.25,41,145.51
843,D2,138.75,0.25,30,145.51
844,D4,139.0,0.25,48,145.51
845,B1,139.0,0.25,35,145.51
846,G4,139.25,0.25,41,145.51
847,D2,139.25,0.25,30,145.51
848,D4,139.5,0.25,40,145.51
849,G2,139.5,0.25,30,145.51
850,G3,139.75,0.25,40,145.51
851,D2,139.75,0.25,30,145.51
852,B3,140.0,1.0,55,145.51
853,C2,140.0,0.25,37,145.51
854,E4,140.25,0.25,41,145.51
855,E2,140.25,0.25,30,145.51
856,B4,140.5,0.25,41,145.51
857,A2,140.5,0.25,30,145.51
858,E4,140.75,0.25,41,145.51
859,E2,140.75,0.25,30,145.51
860,B3,141.0,1.0,53,145.51
861,C2,141.0,0.25,35,145.51
862,E4,141.25,0.25,41,145.51
863,E2,141.25,0.25,30,145.51
864,B4,141.5,0.25,41,145.51
865,A2,141.5,0.25,30,145.51
866,E4,141.75,0.25,41,145.51
867,E2,141.75,0.25,30,145.51
868,B3,142.0,1.0,52,145.51
869,C2,142.0,0.25,35,145.51
870,E4,142.25,0.25,41,145.51
871,E2,142.25,0.25,30,145.51
872,B4,142.5,0.25,41,145.51
873,A2,142.5,0.25,30,145.51
874,E4,142.75,0.25,41,145.51
875,E2,142.75,0.25,30,145.51
876,A3,143.0,1.0,52,145.51
877,C2,143.0,0.25,35,145.51
878,E4,143.25,0.25,41,145.51
879,E2,143.25,0.25,30,145.51
880,A4,143.5,0.25,40,145.51
881,A2,143.5,0.25,30,145.51
882,E4,143.75,0.25,40,145.51
883,E2,143.75,0.25,30,145.51
884,B3,144.0,0.25,50,145.51
885,D2,144.0,0.25,37,145.51
886,D4,144.25,0.25,41,145.51
887,G2,144.25,0.25,30,145.51
888,A4,144.5,0.25,41,145.51
889,B2,144.5,0.25,30,145.51
890,D4,144.75,0.25,41,145.51
891,G2,144.75,0.25,30,145.51
892,B3,145.0,0.25,49,145.51
893,D2,145.0,0.25,35,145.51
894,D4,145.25,0.25,41,145.51
895,G2,145.25,0.25,30,145.51
896,G4,145.5,0.25,41,145.51
897,B2,145.5,0.25,30,145.51
898,D4,145.75,0.25,41,145.51
899,G2,145.75,0.25,30,145.51
900,C4,146.0,0.25,48,145.51
901,D2,146.0,0.25,35,145.51
902,D4,146.25,0.25,41,145.51
903,A2,146.25,0.25,30,145.51
904,G4,146.5,0.25,41,145.51
905,C3,146.5,0.25,30,145.51
906,D4,146.75,0.25,41,145.51
907,A2,146.75,0.25,30,145.51
908,C4,147.0,0.25,48,145.51
909,D2,147.0,0.25,35,145.51
910,D4,147.25,0.25,41,145.51
911,A2,147.25,0.25,30,145.51
912,F#4,147.5,0.25,40,145.51
913,C3,147.5,0.25,30,145.51
914,D4,147.75,0.25,40,145.51
915,A2,147.75,0.25,30,145.51
916,G5,148.0,2.0,82,145.51
917,B-5,148.0,2.0,82,145.51
918,C#6,148.0,2.0,82,145.51
919,G6,148.0,2.0,82,145.51
920,E3,148.5,0.25,73,145.51
921,G3,148.75,0.25,75,145.51
922,B-3,149.0,0.25,77,145.51
923,C#4,149.25,0.25,79,145.51
924,G4,149.5,0.25,80,145.51
925,B-4,149.75,0.25,82,145.51
926,C#5,150.0,0.25,88,145.51
927,E5,150.25,0.25,82,145.51
928,C#5,150.5,0.25,81,145.51
929,B-4,150.75,0.25,80,145.51
930,G4,151.0,0.25,76,145.51
931,E4,151.25,0.25,78,145.51
932,C#4,151.5,0.25,78,145.51
933,B-3,151.75,0.25,76,145.51
934,E6,152.0,0.25,89,145.51
935,C#4,152.0,0.25,76,145.51
936,G6,152.25,0.25,82,145.51
937,E4,152.25,0.25,68,145.51
938,E6,152.5,0.25,82,145.51
939,C#4,152.5,0.25,69,145.51
940,C#6,152.75,0.25,82,145.51
941,B-3,152.75,0.25,69,145.51
942,B-5,153.0,0.25,86,145.51
943,G3,153.0,0.25,73,145.51
944,G5,153.25,0.25,75,145.51
945,E3,153.25,0.25,66,145.51
946,E5,153.5,0.25,75,145.51
947,C#3,153.5,0.25,66,145.51
948,C#5,153.75,0.25,75,145.51
949,B-2,153.75,0.25,66,145.51
950,E5,154.0,0.25,81,145.51
951,C#3,154.0,0.25,66,145.51
952,G5,154.25,0.25,73,145.51
953,E3,154.25,0.25,60,145.51
954,E5,154.5,0.25,73,145.51
955,C#3,154.5,0.25,60,145.51
956,C#5,154.75,0.25,73,145.51
957,B-2,154.75,0.25,60,145.51
958,B-4,155.0,0.25,80,145.51
959,G2,155.0,0.25,67,145.51
960,G4,155.25,0.25,74,145.51
961,E2,155.25,0.25,59,145.51
962,E4,155.5,0.25,74,145.51
963,C#2,155.5,0.25,60,145.51
964,C#4,155.75,0.25,74,145.51
965,B-1,155.75,0.25,60,145.51
966,E4,156.0,0.25,77,145.51
967,C#2,156.0,0.25,68,145.51
968,G4,156.25,0.25,58,145.51
969,E2,156.25,0.25,47,145.51
970,E4,156.5,0.25,58,145.51
971,C#2,156.5,0.25,47,145.51
972,C#4,156.75,0.25,58,145.51
973,B-1,156.75,0.25,47,145.51
974,E4,157.0,0.25,64,145.51
975,C#2,157.0,0.25,58,145.51
976,G4,157.25,0.25,53,145.51
977,E2,157.25,0.25,45,145.51
978,E4,157.5,0.25,52,145.51
979,C#2,157.5,0.25,45,145.51
980,C#4,157.75,0.25,52,145.51
981,B-1,157.75,0.25,45,145.51
982,E4,158.0,0.25,57,145.51
983,C#2,158.0,0.25,53,145.51
984,G4,158.25,0.25,48,145.51
985,E2,158.25,0.25,39,145.51
986,E4,158.5,0.25,48,145.51
987,C#2,158.5,0.25,39,145.51
988,C#4,158.75,0.25,48,145.51
989,B-1,158.75,0.25,39,145.51
990,E4,159.0,0.25,54,145.51
991,C#2,159.0,0.25,51,145.51
992,G4,159.25,0.25,46,145.51
993,E2,159.25,0.25,34,145.51
994,E4,159.5,0.25,46,145.51
995,C#2,159.5,0.25,34,145.51
996,C#4,159.75,0.25,46,145.51
997,B-1,159.75,0.25,34,145.51
998,E4,160.0,0.25,50,145.51
999,B1,160.0,0.25,37,145.51
1000,G4,160.25,0.25,41,145.51
1001,E2,160.25,0.25,30,145.51
1002,E4,160.5,0.25,41,145.51
1003,G2,160.5,0.25,30,145.51
1004,G3,160.75,0.25,41,145.51
1005,E2,160.75,0.25,30,145.51
1006,E4,161.0,0.25,49,145.51
1007,B1,161.0,0.25,35,145.51
1008,G4,161.25,0.25,41,145.51
1009,E2,161.25,0.25,30,145.51
1010,E4,161.5,0.25,41,145.51
1011,G2,161.5,0.25,30,145.51
1012,G3,161.75,0.25,41,145.51
1013,E2,161.75,0.25,30,145.51
1014,E4,162.0,0.25,48,145.51
1015,B1,162.0,0.25,35,145.51
1016,G4,162.25,0.25,41,145.51
1017,E2,162.25,0.25,30,145.51
1018,E4,162.5,0.25,41,145.51
1019,G2,162.5,0.25,30,145.51
1020,G3,162.75,0.25,41,145.51
1021,E2,162.75,0.25,30,145.51
1022,E4,163.0,0.25,48,145.51
1023,B1,163.0,0.25,35,145.51
1024,G4,163.25,0.25,41,145.51
1025,E2,163.25,0.25,30,145.51
1026,E4,163.5,0.25,40,145.51
1027,G2,163.5,0.25,30,145.51
1028,G3,163.75,0.25,40,145.51
1029,E2,163.75,0.25,30,145.51
1030,B3,164.0,1.0,55,145.51
1031,C2,164.0,0.25,37,145.51
1032,E4,164.25,0.25,41,145.51
1033,E2,164.25,0.25,30,145.51
1034,B4,164.5,0.25,41,145.51
1035,A2,164.5,0.25,30,145.51
1036,E4,164.75,0.25,41,145.51
1037,E2,164.75,0.25,30,145.51
1038,B3,165.0,1.0,53,145.51
1039,C2,165.0,0.25,35,145.51
1040,E4,165.25,0.25,41,145.51
1041,E2,165.25,0.25,30,145.51
1042,B4,165.5,0.25,41,145.51
1043,A2,165.5,0.25,30,145.51
1044,E4,165.75,0.25,41,145.51
1045,E2,165.75,0.25,30,145.51
1046,B3,166.0,1.0,52,145.51
1047,C2,166.0,0.25,35,145.51
1048,E4,166.25,0.25,41,145.51
1049,E2,166.25,0.25,30,145.51
1050,B4,166.5,0.25,41,145.51
1051,A2,166.5,0.25,30,145.51
1052,E4,166.75,0.25,41,145.51
1053,E2,166.75,0.25,30,145.51
1054,A3,167.0,1.0,52,145.51
1055,C2,167.0,0.25,35,145.51
1056,E4,167.25,0.25,41,145.51
1057,E2,167.25,0.25,30,145.51
1058,A4,167.5,0.25,40,145.51
1059,A2,167.5,0.25,30,145.51
1060,E4,167.75,0.25,40,145.51
1061,E2,167.75,0.25,30,145.51
1062,B3,168.0,0.25,34,145.51
1063,D2,168.0,0.25,27,145.51
1064,D4,168.25,0.25,34,145.51
1065,G2,168.25,0.25,28,145.51
1066,A4,168.5,1.0,40,145.51
1067,B2,168.5,0.25,28,145.51
1068,D4,168.75,0.25,34,145.51
1069,G2,168.75,0.25,28,145.51
1070,B3,169.0,0.25,32,145.51
1071,D2,169.0,0.25,28,145.51
1072,D4,169.25,0.25,34,145.51
1073,G2,169.25,0.25,28,145.51
1074,A4,169.5,1.0,40,145.51
1075,B2,169.5,0.25,28,145.51
1076,D4,169.75,0.25,33,145.51
1077,G2,169.75,0.25,28,145.51
1078,B3,170.0,0.25,32,145.51
1079,D2,170.0,0.25,28,145.51
1080,D4,170.25,0.25,33,145.51
1081,G2,170.25,0.25,28,145.51
1082,A4,170.5,1.0,39,145.51
1083,B2,170.5,0.25,28,145.51
1084,D4,170.75,0.25,33,145.51
1085,G2,170.75,0.25,28,145.51
1086,B3,171.0,0.25,32,145.51
1087,D2,171.0,0.25,29,145.51
1088,D4,171.25,0.25,33,145.51
1089,G2,171.25,0.25,28,145.51
1090,G4,171.5,0.5,39,145.51
1091,B2,171.5,0.25,28,145.51
1092,D4,171.75,0.25,33,145.51
1093,G2,171.75,0.25,28,145.51
1094,C4,172.0,0.25,33,145.51
1095,G4,172.0,0.5,39,145.51
1096,D2,172.0,0.25,29,145.51
1097,D4,172.25,0.25,33,145.51
1098,A2,172.25,0.25,28,145.51
1099,G4,172.5,1.0,39,145.51
1100,C3,172.5,0.25,28,145.51
1101,D4,172.75,0.25,33,145.51
1102,A2,172.75,0.25,28,145.51
1103,C4,173.0,0.25,31,145.51
1104,D2,173.0,0.25,29,145.51
1105,D4,173.25,0.25,33,145.51
1106,A2,173.25,0.25,28,145.51
1107,F#4,173.5,1.0,39,145.51
1108,C3,173.5,0.25,28,145.51
1109,D4,173.75,0.25,33,145.51
1110,A2,173.75,0.25,28,145.51
1111,C4,174.0,0.25,34,145.51
1112,D2,174.0,0.25,29,145.51
1113,D4,174.25,0.25,35,145.51
1114,A2,174.25,0.25,28,145.51
1115,E4,174.5,1.0,40,145.51
1116,C3,174.5,0.25,28,145.51
1117,D4,174.75,0.25,34,145.51
1118,A2,174.75,0.25,28,145.51
1119,C4,175.0,0.25,35,145.51
1120,D2,175.0,0.25,28,145.51
1121,D4,175.25,0.25,34,145.51
1122,A2,175.25,0.25,28,145.51
1123,F#4,175.5,0.5,40,145.51
1124,C3,175.5,0.25,28,145.51
1125,D4,175.75,0.25,34,145.51
1126,A2,175.75,0.25,28,145.51
1127,G2,176.0,0.5,28,145.51
1128,B3,176.0,0.5,40,145.51
1129,B4,176.0,0.5,40,145.51
1130,B4,176.5,19/20,47,145.51
1131,B4,177.5,19/20,47,145.51
1132,B4,178.5,19/20,47,145.51
1133,B4,179.5,0.5,44,145.51
1134,B4,180.0,9/20,44,145.51
1135,C5,180.5,1.0,50,145.51
1136,B4,181.5,1.0,48,145.51
1137,B-4,182.5,1.0,48,145.51
1138,A4,183.5,0.5,45,145.51
1139,E2,184.0,2.0,33,145.51
1140,G#3,184.0,99/100,33,145.51
1141,G#4,184.0,99/100,33,145.51
1142,B2,184.5,1.5,27,145.51
1143,G#3,185.0,19/40,30,145.51
1144,G#4,185.0,19/40,30,145.51
1145,G#3,185.5,19/40,30,145.51
1146,G#4,185.5,19/40,30,145.51
1147,E2,186.0,2.0,31,145.51
1148,G#3,186.0,99/100,33,145.51
1149,G#4,186.0,99/100,33,145.51
1150,B2,186.5,1.5,27,145.51
1151,G#3,187.0,19/40,30,145.51
1152,G#4,187.0,19/40,30,145.51
1153,G#3,187.5,19/40,30,145.51
1154,G#4,187.5,19/40,30,145.51
1155,F#2,188.0,4.0,32,145.51
1156,G#3,188.0,0.5,33,145.51
1157,G#4,188.0,0.5,33,145.51
1158,B2,188.5,19/40,27,145.51
1159,B3,188.5,0.5,30,145.51
1160,B4,188.5,0.5,30,145.51
1161,B2,189.0,19/40,27,145.51
1162,A3,189.0,1.0,30,145.51
1163,A4,189.0,1.0,30,145.51
1164,B2,189.5,19/40,27,145.51
1165,B2,190.0,0.5,32,145.51
1166,C#3,190.5,0.5,35,145.51
1167,B2,191.0,0.25,31,145.51
1168,B2,191.5,0.25,31,145.51
1169,F#2,192.0,2.0,33,145.51
1170,A3,192.0,99/100,33,145.51
1171,A4,192.0,99/100,33,145.51
1172,B2,192.5,1.5,27,145.51
1173,A3,193.0,19/40,30,145.51
1174,A4,193.0,19/40,30,145.51
1175,A3,193.5,19/40,30,145.51
1176,A4,193.5,19/40,30,145.51
1177,F#2,194.0,2.0,31,145.51
1178,A3,194.0,99/100,33,145.51
1179,A4,194.0,99/100,33,145.51
1180,B2,194.5,1.5,27,145.51
1181,A3,195.0,19/40,30,145.51
1182,A4,195.0,19/40,30,145.51
1183,A3,195.5,19/40,30,145.51
1184,A4,195.5,19/40,30,145.51
1185,G#2,196.0,4.0,32,145.51
1186,B-3,196.0,0.5,33,145.51
1187,B-4,196.0,0.5,33,145.51
1188,B2,196.5,19/40,27,145.51
1189,C#4,196.5,0.5,30,145.51
1190,C#5,196.5,0.5,30,145.51
1191,B2,197.0,19/40,27,145.51
1192,B3,197.0,1.5,30,145.51
1193,B4,197.0,1.5,30,145.51
1194,B2,197.5,19/40,27,145.51
1195,B2,198.0,0.5,32,145.51
1196,C#3,198.5,0.5,39,145.51
1197,E4,198.5,0.5,36,145.51
1198,E5,198.5,0.5,36,145.51
1199,B2,199.0,0.25,41,145.51
1200,F#4,199.0,0.5,40,145.51
1201,F#5,199.0,0.5,40,145.51
1202,E5,199.5,0.5,52,145.51
1203,B2,199.5,0.25,46,145.51
1204,G#4,199.5,0.5,44,145.51
1205,G#5,199.5,0.5,44,145.51
1206,E5,200.0,0.5,52,145.51
1207,F#3,200.0,2.0,54,145.51
1208,A4,200.0,2.5,50,145.51
1209,A5,200.0,2.5,50,145.51
1210,E-5,200.5,0.5,54,145.51
1211,B3,200.5,0.5,43,145.51
1212,C#5,201.0,0.5,51,145.51
1213,C#4,201.0,0.5,41,145.51
1214,B4,201.5,0.5,50,145.51
1215,E-4,201.5,0.5,40,145.51
1216,B4,202.0,2.0,46,145.51
1217,E3,202.0,1.0,38,145.51
1218,E4,202.0,1.0,38,145.51
1219,G#4,202.5,0.5,34,145.51
1220,G#5,202.5,0.5,34,145.51
1221,A4,203.0,0.5,34,145.51
1222,F#5,203.0,0.5,34,145.51
1223,F#3,203.0,0.5,33,145.51
1224,E-4,203.0,0.5,33,145.51
1225,B4,203.5,0.5,34,145.51
1226,E5,203.5,0.5,34,145.51
1227,G#3,203.5,0.5,32,145.51
1228,E4,203.5,0.5,32,145.51
1229,B4,204.0,1.0,34,145.51
1230,E5,204.0,0.5,47,145.51
1231,F#4,204.0,1.0,38,145.51
1232,F#3,204.0,1.0,38,145.51
1233,E-5,204.5,0.5,41,145.51
1234,B-4,205.0,1.0,29,145.51
1235,E-5,205.0,0.5,44,145.51
1236,E4,205.0,1.0,30,145.51
1237,F#3,205.0,1.0,30,145.51
1238,C#5,205.5,0.5,36,145.51
1239,B4,206.0,0.5,36,145.51
1240,E-4,206.0,0.5,30,145.51
1241,B3,206.0,0.5,30,145.51
1242,B5,206.5,0.5,33,145.51
1243,B4,206.5,0.5,33,145.51
1244,B-4,207.0,0.5,31,145.51
1245,B-5,207.0,0.5,31,145.51
1246,A4,207.5,0.5,30,145.51
1247,A5,207.5,0.5,30,145.51
1248,E3,208.0,2.0,33,145.51
1249,G#4,208.0,99/100,33,145.51
1250,G#5,208.0,99/100,33,145.51
1251,B3,208.5,1.5,27,145.51
1252,G#4,209.0,19/40,30,145.51
1253,G#5,209.0,19/40,30,145.51
1254,G#4,209.5,19/40,30,145.51
1255,G#5,209.5,19/40,30,145.51
1256,E3,210.0,2.0,31,145.51
1257,G#4,210.0,99/100,33,145.51
1258,G#5,210.0,99/100,33,145.51
1259,B3,210.5,1.5,27,145.51
1260,G#4,211.0,19/40,30,145.51
1261,G#5,211.0,19/40,30,145.51
1262,G#4,211.5,19/40,30,145.51
1263,G#5,211.5,19/40,30,145.51
1264,F#3,212.0,4.0,32,145.51
1265,G#4,212.0,0.5,33,145.51
1266,G#5,212.0,0.5,33,145.51
1267,B3,212.5,19/40,27,145.51
1268,B4,212.5,0.5,30,145.51
1269,B5,212.5,0.5,30,145.51
1270,B3,213.0,19/40,27,145.51
1271,A4,213.0,1.0,30,145.51
1272,A5,213.0,1.0,30,145.51
1273,B3,213.5,19/40,27,145.51
1274,B-3,214.0,0.25,32,145.51
1275,B3,214.25,0.25,27,145.51
1276,C#4,214.5,0.25,27,145.51
1277,B3,214.75,0.25,29,145.51
1278,B3,215.0,0.25,31,145.51
1279,B3,215.5,0.25,31,145.51
1280,F#3,216.0,2.0,33,145.51
1281,A4,216.0,99/100,33,145.51
1282,A5,216.0,99/100,33,145.51
1283,B3,216.5,1.5,27,145.51
1284,A4,217.0,19/40,30,145.51
1285,A5,217.0,19/40,30,145.51
1286,A4,217.5,19/40,30,145.51
1287,A5,217.5,19/40,30,145.51
1288,F#3,218.0,2.0,31,145.51
1289,A4,218.0,99/100,33,145.51
1290,A5,218.0,99/100,33,145.51
1291,B3,218.5,1.5,27,145.51
1292,A4,219.0,19/40,30,145.51
1293,A5,219.0,19/40,30,145.51
1294,A4,219.5,19/40,30,145.51
1295,A5,219.5,19/40,30,145.51
1296,G3,220.0,4.0,32,145.51
1297,B-4,220.0,0.5,33,145.51
1298,B-5,220.0,0.5,33,145.51
1299,B3,220.5,19/40,27,145.51
1300,C5,220.5,0.5,30,145.51
1301,C6,220.5,0.5,30,145.51
1302,B3,221.0,19/40,27,145.51
1303,B4,221.0,1.5,30,145.51
1304,B5,221.0,1.5,30,145.51
1305,B3,221.5,19/40,27,145.51
1306,B-3,222.0,0.25,32,145.51
1307,B3,222.25,0.25,27,145.51
1308,C4,222.5,0.25,27,145.51
1309,B3,222.75,0.25,27,145.51
1310,B3,223.0,0.25,31,145.51
1311,B3,223.5,0.25,31,145.51
1312,A3,224.0,4.0,32,145.51
1313,B4,224.0,0.5,45,145.51
1314,B5,224.0,0.5,45,145.51
1315,E4,224.5,19/40,27,145.51
1316,D5,224.5,0.5,40,145.51
1317,D6,224.5,0.5,40,145.51
1318,E4,225.0,19/40,27,145.51
1319,C5,225.0,1.0,41,145.51
1320,C6,225.0,1.0,41,145.51
1321,E4,225.5,19/40,27,145.51
1322,B3,226.0,0.25,36,145.51
1323,E5,226.0,1.5,54,145.51
1324,E6,226.0,1.5,54,145.51
1325,C4,226.25,0.25,32,145.51
1326,D4,226.5,0.25,35,145.51
1327,C4,226.75,0.25,37,145.51
1328,D4,227.0,0.5,35,145.51
1329,E4,227.5,0.5,34,145.51
1330,C5,227.5,0.5,43,145.51
1331,C6,227.5,0.5,43,145.51
1332,G3,228.0,4.0,32,145.51
1333,B-4,228.0,0.5,45,145.51
1334,B-5,228.0,0.5,45,145.51
1335,E4,228.5,19/40,27,145.51
1336,C5,228.5,0.5,40,145.51
1337,C6,228.5,0.5,40,145.51
1338,E4,229.0,19/40,27,145.51
1339,B4,229.0,1.0,41,145.51
1340,B5,229.0,1.0,41,145.51
1341,E4,229.5,19/40,27,145.51
1342,B-3,230.0,0.25,36,145.51
1343,E5,230.0,1.5,54,145.51
1344,E6,230.0,1.5,54,145.51
1345,B3,230.25,0.25,33,145.51
1346,C4,230.5,0.25,35,145.51
1347,B3,230.75,0.25,38,145.51
1348,E4,231.0,0.5,40,145.51
1349,G4,231.5,0.5,34,145.51
1350,B4,231.5,0.5,43,145.51
1351,B5,231.5,0.5,43,145.51
1352,F#3,232.0,0.5,33,145.51
1353,A4,232.0,0.5,42,145.51
1354,A5,232.0,0.5,42,145.51
1355,G3,232.5,0.5,36,145.51
1356,B4,232.5,0.5,45,145.51
1357,B5,232.5,0.5,45,145.51
1358,C5,233.0,0.5,51,145.51
1359,C6,233.0,0.5,51,145.51
1360,B3,233.0,0.5,36,145.51
1361,A3,233.0,0.5,36,145.51
1362,A4,233.5,0.5,42,145.51
1363,A5,233.5,0.5,42,145.51
1364,B3,233.5,0.5,32,145.51
1365,F#3,233.5,0.5,32,145.51
1366,E3,234.0,0.5,33,145.51
1367,G4,234.0,0.5,41,145.51
1368,G5,234.0,0.5,41,145.51
1369,F#3,234.5,0.5,36,145.51
1370,B-4,234.5,0.5,42,145.51
1371,B-5,234.5,0.5,42,145.51
1372,B4,235.0,0.5,45,145.51
1373,B5,235.0,0.5,45,145.51
1374,B3,235.0,0.5,38,145.51
1375,G3,235.0,0.5,38,145.51
1376,G4,235.5,0.5,41,145.51
1377,G5,235.5,0.5,41,145.51
1378,B3,235.5,0.5,33,145.51
1379,E3,235.5,0.5,33,145.51
1380,B3,236.0,0.5,43,145.51
1381,B2,236.0,2.0,36,145.51
1382,F#4,236.0,2.0,38,145.51
1383,E-5,236.0,2.0,38,145.51
1384,F#5,236.0,2.0,38,145.51
1385,B-3,236.5,0.5,39,145.51
1386,B3,237.0,0.5,42,145.51
1387,C4,237.5,0.5,44,145.51
1388,B3,238.0,0.5,47,145.51
1389,A3,238.5,0.5,44,145.51
1390,F#3,239.0,0.5,44,145.51
1391,E-3,239.5,0.5,43,145.51
1392,F#2,240.0,0.5,33,145.51
1393,A3,240.0,0.5,42,145.51
1394,A4,240.0,0.5,42,145.51
1395,G2,240.5,0.5,36,145.51
1396,B3,240.5,0.5,45,145.51
1397,B4,240.5,0.5,45,145.51
1398,C4,241.0,0.5,51,145.51
1399,C5,241.0,0.5,51,145.51
1400,B2,241.0,0.5,36,145.51
1401,A2,241.0,0.5,36,145.51
1402,A3,241.5,0.5,42,145.51
1403,A4,241.5,0.5,42,145.51
1404,B2,241.5,0.5,32,145.51
1405,F#2,241.5,0.5,32,145.51
1406,E2,242.0,0.5,33,145.51
1407,G3,242.0,0.5,41,145.51
1408,G4,242.0,0.5,41,145.51
1409,F#2,242.5,0.5,36,145.51
1410,B-3,242.5,0.5,42,145.51
1411,B-4,242.5,0.5,42,145.51
1412,B3,243.0,0.5,45,145.51
1413,B4,243.0,0.5,45,145.51
1414,B2,243.0,0.5,38,145.51
1415,G2,243.0,0.5,38,145.51
1416,G3,243.5,0.5,41,145.51
1417,G4,243.5,0.5,41,145.51
1418,B2,243.5,0.5,33,145.51
1419,E2,243.5,0.5,33,145.51
1420,F#3,244.0,2.0,38,145.51
1421,E-4,244.0,2.0,38,145.51
1422,F#4,244.0,2.0,38,145.51
1423,B1,244.0,99/100,43,145.51
1424,B2,244.0,99/100,43,145.51
1425,B1,245.0,19/40,36,145.51
1426,B2,245.0,19/40,36,145.51
1427,B1,245.5,19/40,36,145.51
1428,B2,245.5,19/40,36,145.51
1429,B1,246.0,99/100,43,145.51
1430,B2,246.0,99/100,43,145.51
1431,D4,246.5,0.5,40,145.51
1432,F#4,246.5,0.5,40,145.51
1433,C#4,247.0,0.5,42,145.51
1434,E4,247.0,0.5,42,145.51
1435,F#4,247.0,0.5,42,145.51
1436,B1,247.0,19/40,36,145.51
1437,B2,247.0,19/40,36,145.51
1438,B3,247.5,0.5,44,145.51
1439,D4,247.5,0.5,44,145.51
1440,F#4,247.5,0.5,44,145.51
1441,B1,247.5,19/40,37,145.51
1442,B2,247.5,19/40,37,145.51
1443,G#3,248.0,1.5,45,145.51
1444,F#4,248.0,1.0,45,145.51
1445,B1,248.0,0.5,43,145.51
1446,B2,248.0,0.5,43,145.51
1447,D2,248.5,0.5,36,145.51
1448,D3,248.5,0.5,36,145.51
1449,F4,249.0,0.5,44,145.51
1450,C#2,249.0,1.5,36,145.51
1451,C#3,249.0,1.5,36,145.51
1452,A3,249.5,0.5,45,145.51
1453,C#4,249.5,0.5,45,145.51
1454,F#4,249.5,0.5,45,145.51
1455,C#4,250.0,1.0,47,145.51
1456,F4,250.0,1.0,47,145.51
1457,G#4,250.0,1.0,47,145.51
1458,B1,250.5,0.5,36,145.51
1459,B2,250.5,0.5,36,145.51
1460,C#4,251.0,0.5,47,145.51
1461,F#4,251.0,0.5,47,145.51
1462,A4,251.0,0.5,47,145.51
1463,A1,251.0,0.5,36,145.51
1464,A2,251.0,0.5,36,145.51
1465,C#4,251.5,0.5,47,145.51
1466,F4,251.5,0.5,47,145.51
1467,C#5,251.5,0.5,47,145.51
1468,G#1,251.5,0.5,36,145.51
1469,G#2,251.5,0.5,36,145.51
1470,B4,252.0,1.0,51,145.51
1471,C#4,252.0,1.5,51,145.51
1472,F#4,252.0,1.5,51,145.51
1473,F#1,252.0,2.5,40,145.51
1474,F#2,252.0,2.5,40,145.51
1475,A4,253.0,0.5,45,145.51
1476,B3,253.5,0.5,45,145.51
1477,C#4,253.5,0.5,45,145.51
1478,G#4,253.5,0.5,45,145.51
1479,A3,254.0,1.5,49,145.51
1480,C#4,254.0,1.5,49,145.51
1481,F#4,254.0,1.5,49,145.51
1482,G#1,254.5,0.5,36,145.51
1483,G#2,254.5,0.5,36,145.51
1484,A1,255.0,0.5,36,145.51
1485,A2,255.0,0.5,36,145.51
1486,G#3,255.5,0.5,45,145.51
1487,E4,255.5,0.5,45,145.51
1488,B-1,255.5,0.5,36,145.51
1489,B-2,255.5,0.5,36,145.51
1490,F#3,256.0,1.5,46,145.51
1491,E4,256.0,1.0,46,145.51
1492,B-1,256.0,0.5,43,145.51
1493,B-2,256.0,0.5,43,145.51
1494,C#2,256.5,0.5,35,145.51
1495,C#3,256.5,0.5,35,145.51
1496,E-4,257.0,0.5,45,145.51
1497,B1,257.0,1.5,35,145.51
1498,B2,257.0,1.5,35,145.51
1499,G#3,257.5,0.5,45,145.51
1500,B3,257.5,0.5,45,145.51
1501,E4,257.5,0.5,45,145.51
1502,B3,258.0,1.0,49,145.51
1503,E-4,258.0,1.0,49,145.51
1504,F#4,258.0,1.0,49,145.51
1505,A1,258.5,0.5,35,145.51
1506,A2,258.5,0.5,35,145.51
1507,B3,259.0,0.5,43,145.51
1508,E4,259.0,0.5,43,145.51
1509,G#4,259.0,0.5,43,145.51
1510,G#1,259.0,0.5,36,145.51
1511,G#2,259.0,0.5,36,145.51
1512,B3,259.5,0.5,43,145.51
1513,E-4,259.5,0.5,43,145.51
1514,B4,259.5,0.5,43,145.51
1515,F#1,259.5,0.5,36,145.51
1516,F#2,259.5,0.5,36,145.51
1517,A4,260.0,1.0,47,145.51
1518,E2,260.0,3.0,37,145.51
1519,B3,260.0,1.5,47,145.51
1520,E4,260.0,1.5,47,145.51
1521,G#4,261.0,0.5,39,145.51
1522,A3,261.5,0.5,37,145.51
1523,B3,261.5,0.5,37,145.51
1524,F#4,261.5,0.5,37,145.51
1525,G#3,262.0,1.0,43,145.51
1526,B3,262.0,1.0,43,145.51
1527,E4,262.0,1.0,43,145.51
1528,D2,263.0,1.0,34,145.51
1529,G#3,263.0,1.0,36,145.51
1530,B3,263.0,1.0,36,145.51
1531,E4,263.0,1.0,36,145.51
1532,C2,264.0,0.25,31,145.51
1533,C4,264.0,0.25,33,145.51
1534,E4,264.0,0.25,33,145.51
1535,G3,264.25,0.25,30,145.51
1536,G2,264.25,0.25,27,145.51
1537,C2,264.5,0.25,32,145.51
1538,C4,264.5,0.25,34,145.51
1539,E4,264.5,0.25,34,145.51
1540,G3,264.75,0.25,32,145.51
1541,G2,264.75,0.25,29,145.51
1542,C2,265.0,0.25,33,145.51
1543,C4,265.0,0.25,35,145.51
1544,E4,265.0,0.25,35,145.51
1545,G3,265.25,0.25,33,145.51
1546,G2,265.25,0.25,30,145.51
1547,C2,265.5,0.25,35,145.51
1548,C4,265.5,0.25,37,145.51
1549,E4,265.5,0.25,37,145.51
1550,G3,265.75,0.25,34,145.51
1551,G2,265.75,0.25,31,145.51
1552,C2,266.0,0.25,36,145.51
1553,C4,266.0,0.25,38,145.51
1554,E4,266.0,0.25,38,145.51
1555,G3,266.25,0.25,34,145.51
1556,G2,266.25,0.25,31,145.51
1557,C2,266.5,0.25,38,145.51
1558,C4,266.5,0.25,40,145.51
1559,E4,266.5,0.25,40,145.51
1560,G3,266.75,0.25,37,145.51
1561,G2,266.75,0.25,32,145.51
1562,C2,267.0,0.25,39,145.51
1563,C4,267.0,0.25,42,145.51
1564,E4,267.0,0.25,42,145.51
1565,G3,267.25,0.25,37,145.51
1566,G2,267.25,0.25,34,145.51
1567,C2,267.5,0.25,41,145.51
1568,C4,267.5,0.25,42,145.51
1569,E4,267.5,0.25,42,145.51
1570,G3,267.75,0.25,40,145.51
1571,G2,267.75,0.25,36,145.51
1572,C2,268.0,0.25,42,145.51
1573,E4,268.0,0.25,45,145.51
1574,G4,268.0,0.25,45,145.51
1575,C4,268.25,0.25,41,145.51
1576,G2,268.25,0.25,38,145.51
1577,C2,268.5,0.25,43,145.51
1578,E4,268.5,0.25,46,145.51
1579,G4,268.5,0.25,46,145.51
1580,C4,268.75,0.25,43,145.51
1581,G2,268.75,0.25,39,145.51
1582,C2,269.0,0.25,46,145.51
1583,E4,269.0,0.25,48,145.51
1584,G4,269.0,0.25,48,145.51
1585,C4,269.25,0.25,44,145.51
1586,G2,269.25,0.25,41,145.51
1587,C2,269.5,0.25,47,145.51
1588,E4,269.5,0.25,50,145.51
1589,G4,269.5,0.25,50,145.51
1590,C4,269.75,0.25,44,145.51
1591,G2,269.75,0.25,41,145.51
1592,C2,270.0,0.25,49,145.51
1593,G4,270.0,0.25,52,145.51
1594,C5,270.0,0.25,52,145.51
1595,E4,270.25,0.25,48,145.51
1596,G2,270.25,0.25,44,145.51
1597,C2,270.5,0.25,50,145.51
1598,G4,270.5,0.25,53,145.51
1599,C5,270.5,0.25,53,145.51
1600,E4,270.75,0.25,48,145.51
1601,G2,270.75,0.25,43,145.51
1602,C2,271.0,0.25,52,145.51
1603,G4,271.0,0.25,54,145.51
1604,C5,271.0,0.25,54,145.51
1605,E4,271.25,0.25,49,145.51
1606,G2,271.25,0.25,46,145.51
1607,C2,271.5,0.25,53,145.51
1608,G4,271.5,0.25,56,145.51
1609,C5,271.5,0.25,56,145.51
1610,E4,271.75,0.25,51,145.51
1611,G2,271.75,0.25,45,145.51
1612,C2,272.0,0.25,55,145.51
1613,C5,272.0,0.25,58,145.51
1614,E5,272.0,0.25,58,145.51
1615,G4,272.25,0.25,52,145.51
1616,G2,272.25,0.25,49,145.51
1617,C2,272.5,0.25,57,145.51
1618,C5,272.5,0.25,60,145.51
1619,E5,272.5,0.25,60,145.51
1620,G4,272.75,0.25,53,145.51
1621,G2,272.75,0.25,51,145.51
1622,C2,273.0,0.25,59,145.51
1623,E5,273.0,0.25,62,145.51
1624,G5,273.0,0.25,62,145.51
1625,C5,273.25,0.25,56,145.51
1626,G2,273.25,0.25,52,145.51
1627,C2,273.5,0.25,60,145.51
1628,E5,273.5,0.25,63,145.51
1629,G5,273.5,0.25,63,145.51
1630,C5,273.75,0.25,57,145.51
1631,G2,273.75,0.25,52,145.51
1632,C2,274.0,0.25,62,145.51
1633,C6,274.0,0.25,66,145.51
1634,G5,274.0,0.25,66,145.51
1635,E5,274.25,0.25,59,145.51
1636,G2,274.25,0.25,55,145.51
1637,C2,274.5,0.25,63,145.51
1638,G5,274.5,0.25,66,145.51
1639,C6,274.5,0.25,66,145.51
1640,E5,274.75,0.25,62,145.51
1641,G2,274.75,0.25,56,145.51
1642,C2,275.0,0.25,65,145.51
1643,E6,275.0,0.25,69,145.51
1644,C6,275.0,0.25,69,145.51
1645,G5,275.25,0.25,62,145.51
1646,G2,275.25,0.25,56,145.51
1647,C2,275.5,0.25,67,145.51
1648,E6,275.5,0.25,71,145.51
1649,C6,275.5,0.25,71,145.51
1650,G5,275.75,0.25,64,145.51
1651,G2,275.75,0.25,58,145.51
1652,E5,276.0,99/100,78,145.51
1653,G5,276.0,99/100,78,145.51
1654,C6,276.0,99/100,78,145.51
1655,E6,276.0,99/100,78,145.51
1656,C4,276.0,99/100,58,145.51
1657,G4,276.0,99/100,58,145.51
1658,C5,276.0,99/100,58,145.51
1659,E5,277.0,19/40,73,145.51
1660,G5,277.0,19/40,73,145.51
1661,C6,277.0,19/40,73,145.51
1662,E6,277.0,19/40,73,145.51
1663,C4,277.0,19/40,52,145.51
1664,G4,277.0,19/40,52,145.51
1665,C5,277.0,19/40,52,145.51
1666,E5,277.5,19/40,73,145.51
1667,G5,277.5,19/40,73,145.51
1668,C6,277.5,19/40,73,145.51
1669,E6,277.5,19/40,73,145.51
1670,C4,277.5,19/40,52,145.51
1671,G4,277.5,19/40,52,145.51
1672,C5,277.5,19/40,52,145.51
1673,E5,278.0,99/100,78,145.51
1674,G5,278.0,99/100,78,145.51
1675,C6,278.0,99/100,78,145.51
1676,E6,278.0,99/100,78,145.51
1677,C4,278.0,99/100,59,145.51
1678,G4,278.0,99/100,59,145.51
1679,C5,278.0,99/100,59,145.51
1680,E5,279.0,19/40,72,145.51
1681,G5,279.0,19/40,72,145.51
1682,C6,279.0,19/40,72,145.51
1683,E6,279.0,19/40,72,145.51
1684,C4,279.0,19/40,53,145.51
1685,G4,279.0,19/40,53,145.51
1686,C5,279.0,19/40,53,145.51
1687,E5,279.5,19/40,72,145.51
1688,G5,279.5,19/40,72,145.51
1689,C6,279.5,19/40,72,145.51
1690,E6,279.5,19/40,72,145.51
1691,C4,279.5,19/40,53,145.51
1692,G4,279.5,19/40,53,145.51
1693,C5,279.5,19/40,53,145.51
1694,E5,280.0,0.5,78,145.51
1695,G5,280.0,0.5,78,145.51
1696,C6,280.0,0.5,78,145.51
1697,E6,280.0,0.5,78,145.51
1698,E4,280.0,0.5,58,145.51
1699,C4,280.0,0.5,58,145.51
1700,G4,280.0,0.5,58,145.51
1701,C5,280.0,0.5,58,145.51
1702,G4,280.5,0.25,79,145.51
1703,E4,280.75,0.25,81,145.51
1704,C4,281.0,0.25,83,145.51
1705,G3,281.25,0.25,85,145.51
1706,E3,281.5,0.25,89,145.51
1707,C3,281.75,0.25,91,145.51
1708,B2,282.0,1.0,96,145.51
1709,B1,282.0,1.0,96,145.51
1710,C3,283.0,0.25,84,145.51
1711,C2,283.0,0.25,84,145.51
1712,C3,283.5,0.25,84,145.51
1713,C2,283.5,0.25,84,145.51
1714,G4,284.0,0.5,84,145.51
1715,B4,284.0,0.5,84,145.51
1716,F5,284.0,0.5,84,145.51
1717,G5,284.0,0.5,84,145.51
1718,C#2,284.0,0.5,62,145.51
1719,C#3,284.0,0.5,62,145.51
1720,B3,285.0,0.5,78,145.51
1721,G3,285.0,0.5,78,145.51
1722,F4,285.0,0.5,78,145.51
1723,G4,285.0,0.5,78,145.51
1724,D2,285.0,0.5,62,145.51
1725,D3,285.0,0.5,62,145.51
1726,F5,288.0,99/100,78,145.51
1727,G5,288.0,99/100,78,145.51
1728,B5,288.0,99/100,78,145.51
1729,D6,288.0,99/100,78,145.51
1730,G3,288.0,99/100,60,145.51
1731,G4,288.0,99/100,60,145.51
1732,F5,289.0,19/40,73,145.51
1733,G5,289.0,19/40,73,145.51
1734,B5,289.0,19/40,73,145.51
1735,D6,289.0,19/40,73,145.51
1736,G3,289.0,19/40,54,145.51
1737,G4,289.0,19/40,54,145.51
1738,F5,289.5,19/40,73,145.51
1739,G5,289.5,19/40,73,145.51
1740,B5,289.5,19/40,73,145.51
1741,D6,289.5,19/40,73,145.51
1742,G3,289.5,19/40,54,145.51
1743,G4,289.5,19/40,54,145.51
1744,F5,290.0,99/100,78,145.51
1745,G5,290.0,99/100,78,145.51
1746,B5,290.0,99/100,78,145.51
1747,D6,290.0,99/100,78,145.51
1748,G3,290.0,99/100,61,145.51
1749,G4,290.0,99/100,61,145.51
1750,F5,291.0,19/40,72,145.51
1751,G5,291.0,19/40,72,145.51
1752,B5,291.0,19/40,72,145.51
1753,D6,291.0,19/40,72,145.51
1754,G3,291.0,19/40,55,145.51
1755,G4,291.0,19/40,55,145.51
1756,F5,291.5,19/40,72,145.51
1757,G5,291.5,19/40,72,145.51
1758,B5,291.5,19/40,72,145.51
1759,D6,291.5,19/40,72,145.51
1760,G3,291.5,19/40,55,145.51
1761,G4,291.5,19/40,55,145.51
1762,F5,292.0,0.5,78,145.51
1763,G5,292.0,0.5,78,145.51
1764,B5,292.0,0.5,78,145.51
1765,D6,292.0,0.5,78,145.51
1766,G3,292.0,0.5,61,145.51
1767,G4,292.0,0.5,61,145.51
1768,F4,292.5,0.25,79,145.51
1769,D4,292.75,0.25,81,145.51
1770,B3,293.0,0.25,83,145.51
1771,G3,293.25,0.25,85,145.51
1772,F3,293.5,0.25,89,145.51
1773,D3,293.75,0.25,91,145.51
1774,C#3,294.0,1.0,96,145.51
1775,C#2,294.0,1.0,96,145.51
1776,D3,295.0,0.25,84,145.51
1777,D2,295.0,0.25,84,145.51
1778,D3,295.5,0.25,84,145.51
1779,D2,295.5,0.25,84,145.51
1780,G4,296.0,0.5,84,145.51
1781,C5,296.0,0.5,84,145.51
1782,G5,296.0,0.5,84,145.51
1783,E-2,296.0,0.5,65,145.51
1784,E-3,296.0,0.5,65,145.51
1785,C4,297.0,0.5,79,145.51
1786,G3,297.0,0.5,79,145.51
1787,G4,297.0,0.5,79,145.51
1788,E2,297.0,0.5,65,145.51
1789,E3,297.0,0.5,65,145.51
1790,G3,298.5,0.25,64,145.51
1791,C4,298.75,0.25,66,145.51
1792,E4,299.0,0.25,68,145.51
1793,G4,299.25,0.25,70,145.51
1794,C5,299.5,0.25,72,145.51
1795,E5,299.75,0.25,74,145.51
1796,G4,300.0,99/100,70,145.51
1797,E5,300.0,99/100,70,145.51
1798,G5,300.0,99/100,70,145.51
1799,C2,300.0,2.0,55,145.51
1800,C3,300.0,2.0,55,145.51
1801,G4,301.0,19/40,62,145.51
1802,E5,301.0,19/40,62,145.51
1803,G5,301.0,19/40,62,145.51
1804,G4,301.5,19/40,62,145.51
1805,E5,301.5,19/40,62,145.51
1806,G5,301.5,19/40,62,145.51
1807,G4,302.0,1.5,69,145.51
1808,D5,302.0,1.5,69,145.51
1809,G5,302.0,1.5,69,145.51
1810,B1,302.0,1.0,48,145.51
1811,B2,302.0,1.0,48,145.51
1812,B2,303.0,19/40,64,145.51
1813,B3,303.0,19/40,64,145.51
1814,G4,303.5,0.5,71,145.51
1815,D5,303.5,0.5,71,145.51
1816,G5,303.5,0.5,71,145.51
1817,B2,303.5,19/40,59,145.51
1818,B3,303.5,19/40,59,145.51
1819,C5,304.0,1.0,79,145.51
1820,G5,304.0,1.0,79,145.51
1821,C6,304.0,1.0,79,145.51
1822,A2,304.0,1.0,68,145.51
1823,A3,304.0,1.0,68,145.51
1824,C5,305.0,0.5,67,145.51
1825,F#5,305.0,0.5,67,145.51
1826,C6,305.0,0.5,67,145.51
1827,D2,305.0,1.0,56,145.51
1828,D3,305.0,1.0,56,145.51
1829,C5,305.5,0.5,65,145.51
1830,F#5,305.5,0.5,65,145.51
1831,C6,305.5,0.5,65,145.51
1832,B4,306.0,0.5,68,145.51
1833,G5,306.0,0.5,68,145.51
1834,B5,306.0,0.5,68,145.51
1835,G2,306.0,62/125,54,145.51
1836,G3,306.0,62/125,54,145.51
1837,G3,306.5,0.25,64,145.51
1838,C4,306.75,0.25,66,145.51
1839,E4,307.0,0.25,68,145.51
1840,G4,307.25,0.25,70,145.51
1841,C5,307.5,0.25,72,145.51
1842,E5,307.75,0.25,74,145.51
1843,G4,308.0,99/100,70,145.51
1844,E5,308.0,99/100,70,145.51
1845,G5,308.0,99/100,70,145.51
1846,C2,308.0,2.0,55,145.51
1847,C3,308.0,2.0,55,145.51
1848,G4,309.0,19/40,62,145.51
1849,E5,309.0,19/40,62,145.51
1850,G5,309.0,19/40,62,145.51
1851,G4,309.5,19/40,62,145.51
1852,E5,309.5,19/40,62,145.51
1853,G5,309.5,19/40,62,145.51
1854,G4,310.0,1.5,69,145.51
1855,D5,310.0,1.5,69,145.51
1856,G5,310.0,1.5,69,145.51
1857,B1,310.0,1.0,48,145.51
1858,B2,310.0,1.0,48,145.51
1859,B2,311.0,19/40,64,145.51
1860,B3,311.0,19/40,64,145.51
1861,G4,311.5,0.5,71,145.51
1862,D5,311.5,0.5,71,145.51
1863,G5,311.5,0.5,71,145.51
1864,B2,311.5,19/40,59,145.51
1865,B3,311.5,19/40,59,145.51
1866,C5,312.0,1.0,79,145.51
1867,G5,312.0,1.0,79,145.51
1868,C6,312.0,1.0,79,145.51
1869,A2,312.0,1.0,68,145.51
1870,A3,312.0,1.0,68,145.51
1871,C5,313.0,1.0,67,145.51
1872,F#5,313.0,1.0,67,145.51
1873,C6,313.0,1.0,67,145.51
1874,D2,313.0,1.0,56,145.51
1875,D3,313.0,1.0,56,145.51
1876,B4,314.0,0.5,68,145.51
1877,G5,314.0,0.5,68,145.51
1878,B5,314.0,0.5,68,145.51
1879,G2,314.0,0.5,54,145.51
1880,G3,314.0,0.5,54,145.51
1881,C4,314.5,0.25,64,145.51
1882,F4,314.75,0.25,66,145.51
1883,A4,315.0,0.25,68,145.51
1884,C5,315.25,0.25,70,145.51
1885,F5,315.5,0.25,72,145.51
1886,A5,315.75,0.25,74,145.51
1887,C5,316.0,99/100,76,145.51
1888,A5,316.0,99/100,76,145.51
1889,C6,316.0,99/100,76,145.51
1890,F2,316.0,2.0,55,145.51
1891,F3,316.0,2.0,55,145.51
1892,C5,317.0,19/40,68,145.51
1893,A5,317.0,19/40,68,145.51
1894,C6,317.0,19/40,68,145.51
1895,C5,317.5,19/40,68,145.51
1896,A5,317.5,19/40,68,145.51
1897,C6,317.5,19/40,68,145.51
1898,C5,318.0,1.5,76,145.51
1899,G5,318.0,1.5,76,145.51
1900,C6,318.0,1.5,76,145.51
1901,E2,318.0,1.0,48,145.51
1902,E3,318.0,1.0,48,145.51
1903,E3,319.0,19/40,64,145.51
1904,E4,319.0,19/40,64,145.51
1905,C5,319.5,0.5,78,145.51
1906,G5,319.5,0.5,78,145.51
1907,C6,319.5,0.5,78,145.51
1908,E3,319.5,19/40,59,145.51
1909,E4,319.5,19/40,59,145.51
1910,F5,320.0,99/100,86,145.51
1911,C6,320.0,99/100,86,145.51
1912,F6,320.0,99/100,86,145.51
1913,D3,320.0,99/100,68,145.51
1914,D4,320.0,99/100,68,145.51
1915,F5,321.0,19/40,80,145.51
1916,B5,321.0,19/40,80,145.51
1917,F6,321.0,19/40,80,145.51
1918,G2,321.0,1.0,60,145.51
1919,G3,321.0,1.0,60,145.51
1920,F5,321.5,19/40,70,145.51
1921,B5,321.5,19/40,70,145.51
1922,F6,321.5,19/40,70,145.51
1923,E5,322.0,99/100,81,145.51
1924,B5,322.0,99/100,81,145.51
1925,E6,322.0,99/100,81,145.51
1926,C3,322.0,99/100,58,145.51
1927,C4,322.0,99/100,58,145.51
1928,E6,323.0,1.0,75,145.51
1929,A5,323.0,1.0,75,145.51
1930,E5,323.0,1.0,75,145.51
1931,F2,323.0,19/40,61,145.51
1932,F3,323.0,19/40,61,145.51
1933,F2,323.5,19/40,56,145.51
1934,F3,323.5,19/40,56,145.51
1935,D5,324.0,0.5,83,145.51
1936,A5,324.0,0.5,83,145.51
1937,D6,324.0,0.5,83,145.51
1938,B2,324.0,1.0,64,145.51
1939,B3,324.0,1.0,64,145.51
1940,D5,324.5,0.5,78,145.51
1941,G#5,324.5,0.5,78,145.51
1942,D6,324.5,0.5,78,145.51
1943,C5,325.0,1.0,78,145.51
1944,A5,325.0,1.0,78,145.51
1945,C6,325.0,1.0,78,145.51
1946,C3,325.0,1.0,59,145.51
1947,C4,325.0,1.0,59,145.51
1948,A5,326.0,1.0,80,145.51
1949,B4,326.0,1.0,80,145.51
1950,F5,326.0,1.0,80,145.51
1951,B5,326.0,1.0,80,145.51
1952,D3,326.0,19/40,58,145.51
1953,D4,326.0,19/40,58,145.51
1954,D3,326.5,19/40,55,145.51
1955,D4,326.5,19/40,55,145.51
1956,G#5,327.0,0.875,78,145.51
1957,B5,327.0,0.875,78,145.51
1958,E5,327.0,0.875,78,145.51
1959,B4,327.0,0.875,78,145.51
1960,E3,327.0,1.0,64,145.51
1961,E4,327.0,1.0,64,145.51
1962,A5,327.875,0.125,82,145.51
1963,A6,328.0,0.5,92,145.51
1964,A1,328.0,99/100,88,145.51
1965,A2,328.0,99/100,88,145.51
1966,G6,328.5,0.25,82,145.51
1967,F6,328.75,0.25,82,145.51
1968,E6,329.0,0.25,81,145.51
1969,A1,329.0,19/40,82,145.51
1970,A2,329.0,19/40,82,145.51
1971,D6,329.25,0.25,81,145.51
1972,C6,329.5,0.25,80,145.51
1973,A1,329.5,19/40,82,145.51
1974,A2,329.5,19/40,82,145.51
1975,B5,329.75,0.25,79,145.51
1976,A5,330.0,0.25,79,145.51
1977,A1,330.0,99/100,88,145.51
1978,A2,330.0,99/100,88,145.51
1979,G5,330.25,0.25,78,145.51
1980,F5,330.5,0.25,78,145.51
1981,E5,330.75,0.25,77,145.51
1982,D5,331.0,0.25,77,145.51
1983,A1,331.0,19/40,82,145.51
1984,A2,331.0,19/40,82,145.51
1985,C5,331.25,0.25,75,145.51
1986,B4,331.5,0.25,74,145.51
1987,A1,331.5,19/40,81,145.51
1988,A2,331.5,19/40,81,145.51
1989,A4,331.75,0.25,74,145.51
1990,G#4,332.0,0.25,71,145.51
1991,A1,332.0,0.5,88,145.51
1992,A2,332.0,0.5,88,145.51
1993,F4,332.25,0.25,64,145.51
1994,E4,332.5,0.25,64,145.51
1995,C2,332.5,0.5,82,145.51
1996,C3,332.5,0.5,82,145.51
1997,D4,332.75,0.25,64,145.51
1998,G#4,333.0,0.25,63,145.51
1999,B1,333.0,1.0,86,145.51
2000,B2,333.0,1.0,86,145.51
2001,F4,333.25,0.25,57,145.51
2002,E4,333.5,0.25,57,145.51
2003,D4,333.75,0.25,57,145.51
2004,G#4,334.0,0.25,67,145.51
2005,D5,334.0,2.0,86,145.51
2006,F5,334.0,2.0,86,145.51
2007,F4,334.25,0.25,58,145.51
2008,E4,334.5,0.25,58,145.51
2009,D4,334.75,0.25,58,145.51
2010,G#4,335.0,0.25,64,145.51
2011,F4,335.25,0.25,59,145.51
2012,E4,335.5,0.25,59,145.51
2013,D4,335.75,0.125,59,145.51
2014,B5,335.875,0.125,81,145.51
2015,B6,336.0,0.5,92,145.51
2016,B1,336.0,99/100,88,145.51
2017,B2,336.0,99/100,88,145.51
2018,A6,336.5,0.25,82,145.51
2019,G#6,336.75,0.25,82,145.51
2020,F6,337.0,0.25,81,145.51
2021,B1,337.0,19/40,82,145.51
2022,B2,337.0,19/40,82,145.51
2023,E6,337.25,0.25,81,145.51
2024,D6,337.5,0.25,80,145.51
2025,B1,337.5,19/40,82,145.51
2026,B2,337.5,19/40,82,145.51
2027,C6,337.75,0.25,79,145.51
2028,B5,338.0,0.25,79,145.51
2029,B1,338.0,99/100,88,145.51
2030,B2,338.0,99/100,88,145.51
2031,A5,338.25,0.25,78,145.51
2032,G#5,338.5,0.25,78,145.51
2033,F5,338.75,0.25,77,145.51
2034,E5,339.0,0.25,77,145.51
2035,B1,339.0,19/40,82,145.51
2036,B2,339.0,19/40,82,145.51
2037,D5,339.25,0.25,75,145.51
2038,C5,339.5,0.25,74,145.51
2039,B1,339.5,19/40,81,145.51
2040,B2,339.5,19/40,81,145.51
2041,B4,339.75,0.25,74,145.51
2042,A4,340.0,0.25,71,145.51
2043,B1,340.0,0.5,88,145.51
2044,B2,340.0,0.5,88,145.51
2045,E-4,340.25,0.25,64,145.51
2046,E4,340.5,0.25,64,145.51
2047,D2,340.5,0.5,82,145.51
2048,D3,340.5,0.5,82,145.51
2049,A3,340.75,0.25,64,145.51
2050,A4,341.0,0.25,63,145.51
2051,C2,341.0,1.0,86,145.51
2052,C3,341.0,1.0,86,145.51
2053,E-4,341.25,0.25,57,145.51
2054,E4,341.5,0.25,57,145.51
2055,A3,341.75,0.25,57,145.51
2056,A4,342.0,0.25,67,145.51
2057,C5,342.0,2.0,84,145.51
2058,E5,342.0,2.0,84,145.51
2059,A5,342.0,2.0,84,145.51
2060,E-4,342.25,0.25,58,145.51
2061,E4,342.5,0.25,58,145.51
2062,A3,342.75,0.25,58,145.51
2063,A4,343.0,0.25,64,145.51
2064,E-4,343.25,0.25,59,145.51
2065,E4,343.5,0.25,59,145.51
2066,A3,343.75,0.25,59,145.51
2067,B-4,344.0,0.25,67,145.51
2068,C#2,344.0,0.5,84,145.51
2069,C#3,344.0,0.5,84,145.51
2070,E4,344.25,0.25,61,145.51
2071,F4,344.5,0.25,61,145.51
2072,E2,344.5,0.5,78,145.51
2073,E3,344.5,0.5,78,145.51
2074,B-3,344.75,0.25,61,145.51
2075,B-4,345.0,0.25,60,145.51
2076,D2,345.0,1.0,81,145.51
2077,D3,345.0,1.0,81,145.51
2078,E4,345.25,0.25,53,145.51
2079,F4,345.5,0.25,53,145.51
2080,B-3,345.75,0.25,53,145.51
2081,B-4,346.0,0.25,59,145.51
2082,D5,346.0,2.0,76,145.51
2083,F5,346.0,2.0,76,145.51
2084,B-5,346.0,2.0,76,145.51
2085,E4,346.25,0.25,51,145.51
2086,F4,346.5,0.25,51,145.51
2087,B-3,346.75,0.25,51,145.51
2088,B-4,347.0,0.25,58,145.51
2089,E4,347.25,0.25,52,145.51
2090,F4,347.5,0.25,52,145.51
2091,B-3,347.75,0.25,52,145.51
2092,C#5,348.0,0.25,53,145.51
2093,E2,348.0,1.0,52,145.51
2094,E3,348.0,1.0,52,145.51
2095,F#4,348.25,0.25,47,145.51
2096,G4,348.5,0.25,47,145.51
2097,C#4,348.75,0.25,48,145.51
2098,D5,349.0,0.25,54,145.51
2099,F2,349.0,1.0,55,145.51
2100,F3,349.0,1.0,55,145.51
2101,G#4,349.25,0.25,48,145.51
2102,A4,349.5,0.25,48,145.51
2103,D4,349.75,0.25,49,145.51
2104,E5,350.0,0.25,55,145.51
2105,G#2,350.0,1.0,58,145.51
2106,G#3,350.0,1.0,58,145.51
2107,B-4,350.25,0.25,49,145.51
2108,B4,350.5,0.25,49,145.51
2109,E4,350.75,0.25,49,145.51
2110,F5,351.0,0.25,56,145.51
2111,A2,351.0,1.0,60,145.51
2112,A3,351.0,1.0,60,145.51
2113,B4,351.25,0.25,49,145.51
2114,C5,351.5,0.25,49,145.51
2115,F4,351.75,0.25,50,145.51
2116,G#5,352.0,0.25,57,145.51
2117,B2,352.0,1.0,63,145.51
2118,B3,352.0,1.0,63,145.51
2119,E-5,352.25,0.25,52,145.51
2120,E5,352.5,0.25,53,145.51
2121,G#4,352.75,0.25,54,145.51
2122,A5,353.0,0.25,59,145.51
2123,C3,353.0,1.0,66,145.51
2124,C4,353.0,1.0,66,145.51
2125,E-5,353.25,0.25,52,145.51
2126,E5,353.5,0.25,53,145.51
2127,A4,353.75,0.25,53,145.51
2128,B5,354.0,0.25,66,145.51
2129,F4,354.0,1.0,68,145.51
2130,F3,354.0,1.0,68,145.51
2131,E-5,354.25,0.25,54,145.51
2132,A5,354.5,0.25,53,145.51
2133,B4,354.75,0.25,52,145.51
2134,C6,355.0,0.25,57,145.51
2135,E3,355.0,1.0,65,145.51
2136,E4,355.0,1.0,65,145.51
2137,E5,355.25,0.25,49,145.51
2138,G#5,355.5,0.25,48,145.51
2139,C5,355.75,0.25,48,145.51
2140,A1,356.0,0.5,75,145.51
2141,A5,356.0,99/100,72,145.51
2142,A6,356.0,99/100,72,145.51
2143,B1,356.5,0.25,67,145.51
2144,C2,356.75,0.25,67,145.51
2145,D2,357.0,0.25,66,145.51
2146,A5,357.0,19/40,68,145.51
2147,A6,357.0,19/40,68,145.51
2148,E2,357.25,0.25,66,145.51
2149,F#2,357.5,0.25,65,145.51
2150,A5,357.5,19/40,68,145.51
2151,A6,357.5,19/40,68,145.51
2152,G#2,357.75,0.25,64,145.51
2153,A2,358.0,0.25,64,145.51
2154,A5,358.0,99/100,72,145.51
2155,A6,358.0,99/100,72,145.51
2156,B2,358.25,0.25,63,145.51
2157,C3,358.5,0.25,63,145.51
2158,D3,358.75,0.25,63,145.51
2159,E3,359.0,0.25,63,145.51
2160,A5,359.0,19/40,68,145.51
2161,A6,359.0,19/40,68,145.51
2162,F#3,359.25,0.25,62,145.51
2163,G#3,359.5,0.25,61,145.51
2164,A5,359.5,19/40,66,145.51
2165,A6,359.5,19/40,66,145.51
2166,A3,359.75,0.25,61,145.51
2167,B-3,360.0,0.25,58,145.51
2168,A5,360.0,0.5,72,145.51
2169,A6,360.0,0.5,72,145.51
2170,C#4,360.25,0.25,53,145.51
2171,D4,360.5,0.25,53,145.51
2172,F#5,360.5,0.5,68,145.51
2173,F#6,360.5,0.5,68,145.51
2174,E4,360.75,0.25,53,145.51
2175,B-3,361.0,0.25,52,145.51
2176,G5,361.0,1.0,70,145.51
2177,G6,361.0,1.0,70,145.51
2178,C#4,361.25,0.25,46,145.51
2179,D4,361.5,0.25,46,145.51
2180,E4,361.75,0.25,46,145.51
2181,A2,362.0,2.0,97,145.51
2182,B-3,362.0,0.25,54,145.51
2183,C#4,362.25,0.25,47,145.51
2184,D4,362.5,0.25,47,145.51
2185,E4,362.75,0.25,47,145.51
2186,B-3,363.0,0.25,53,145.51
2187,C#4,363.25,0.25,48,145.51
2188,D4,363.5,0.25,48,145.51
2189,E4,363.75,0.25,48,145.51
2190,C#2,364.0,0.5,75,145.51
2191,G5,364.0,99/100,72,145.51
2192,G6,364.0,99/100,72,145.51
2193,D2,364.5,0.25,67,145.51
2194,E2,364.75,0.25,67,145.51
2195,F2,365.0,0.25,66,145.51
2196,G5,365.0,19/40,68,145.51
2197,G6,365.0,19/40,68,145.51
2198,G2,365.25,0.25,66,145.51
2199,A2,365.5,0.25,65,145.51
2200,G5,365.5,19/40,68,145.51
2201,G6,365.5,19/40,68,145.51
2202,B2,365.75,0.25,64,145.51
2203,C#3,366.0,0.25,64,145.51
2204,G5,366.0,99/100,72,145.51
2205,G6,366.0,99/100,72,145.51
2206,D3,366.25,0.25,63,145.51
2207,E3,366.5,0.25,63,145.51
2208,F3,366.75,0.25,63,145.51
2209,G3,367.0,0.25,63,145.51
2210,G5,367.0,19/40,68,145.51
2211,G6,367.0,19/40,68,145.51
2212,A3,367.25,0.25,62,145.51
2213,B3,367.5,0.25,61,145.51
2214,G5,367.5,19/40,66,145.51
2215,G6,367.5,19/40,66,145.51
2216,C#4,367.75,0.25,61,145.51
2217,D4,368.0,0.25,58,145.51
2218,G5,368.0,0.5,72,145.51
2219,G6,368.0,0.5,72,145.51
2220,F4,368.25,0.25,53,145.51
2221,G#4,368.5,0.25,53,145.51
2222,E5,368.5,0.5,68,145.51
2223,E6,368.5,0.5,68,145.51
2224,A4,368.75,0.25,53,145.51
2225,D4,369.0,0.25,52,145.51
2226,F5,369.0,1.0,70,145.51
2227,F6,369.0,1.0,70,145.51
2228,F4,369.25,0.25,46,145.51
2229,G#4,369.5,0.25,46,145.51
2230,A4,369.75,0.25,46,145.51
2231,A2,370.0,2.0,97,145.51
2232,D4,370.0,0.25,54,145.51
2233,F4,370.25,0.25,47,145.51
2234,G#4,370.5,0.25,47,145.51
2235,A4,370.75,0.25,47,145.51
2236,D4,371.0,0.25,53,145.51
2237,F4,371.25,0.25,48,145.51
2238,G#4,371.5,0.25,48,145.51
2239,A4,371.75,0.25,48,145.51
2240,C4,372.0,0.25,55,145.51
2241,F5,372.0,0.5,68,145.51
2242,F6,372.0,0.5,68,145.51
2243,E4,372.25,0.25,50,145.51
2244,G#4,372.5,0.25,49,145.51
2245,E-5,372.5,0.5,63,145.51
2246,E-6,372.5,0.5,63,145.51
2247,A4,372.75,0.25,49,145.51
2248,C4,373.0,0.25,47,145.51
2249,E5,373.0,1.0,64,145.51
2250,E6,373.0,1.0,64,145.51
2251,E4,373.25,0.25,42,145.51
2252,G#4,373.5,0.25,41,145.51
2253,A4,373.75,0.25,41,145.51
2254,A2,374.0,2.0,86,145.51
2255,C4,374.0,0.25,48,145.51
2256,E4,374.25,0.25,41,145.51
2257,G#4,374.5,0.25,41,145.51
2258,A4,374.75,0.25,40,145.51
2259,C4,375.0,0.25,45,145.51
2260,E4,375.25,0.25,40,145.51
2261,G#4,375.5,0.25,40,145.51
2262,A4,375.75,0.25,40,145.51
2263,B3,376.0,0.25,48,145.51
2264,E5,376.0,0.5,60,145.51
2265,E6,376.0,0.5,60,145.51
2266,D4,376.25,0.25,43,145.51
2267,G#4,376.5,0.25,42,145.51
2268,C#5,376.5,0.5,54,145.51
2269,C#6,376.5,0.5,54,145.51
2270,A4,376.75,0.25,42,145.51
2271,B3,377.0,0.25,41,145.51
2272,D5,377.0,1.0,56,145.51
2273,D6,377.0,1.0,56,145.51
2274,D4,377.25,0.25,36,145.51
2275,G#4,377.5,0.25,35,145.51
2276,A4,377.75,0.25,35,145.51
2277,A2,378.0,2.0,74,145.51
2278,B3,378.0,0.25,41,145.51
2279,D4,378.25,0.25,35,145.51
2280,G#4,378.5,0.25,35,145.51
2281,A4,378.75,0.25,34,145.51
2282,B3,379.0,0.25,39,145.51
2283,D4,379.25,0.25,35,145.51
2284,G#4,379.5,0.25,34,145.51
2285,A4,379.75,0.25,34,145.51
2286,A3,380.0,0.25,43,145.51
2287,D5,380.0,0.5,53,145.51
2288,D6,380.0,0.5,53,145.51
2289,C4,380.25,0.25,35,145.51
2290,G#4,380.5,0.25,35,145.51
2291,B4,380.5,0.5,49,145.51
2292,B5,380.5,0.5,49,145.51
2293,A4,380.75,0.25,35,145.51
2294,A3,381.0,0.25,35,145.51
2295,C5,381.0,1.0,50,145.51
2296,C6,381.0,1.0,50,145.51
2297,C4,381.25,0.25,35,145.51
2298,G#4,381.5,0.25,31,145.51
2299,A4,381.75,0.25,31,145.51
2300,C3,382.0,0.25,40,145.51
2301,A5,382.0,0.5,52,145.51
2302,A4,382.0,0.5,52,145.51
2303,A3,382.25,0.25,36,145.51
2304,D3,382.5,0.25,37,145.51
2305,B4,382.5,0.5,54,145.51
2306,B5,382.5,0.5,54,145.51
2307,A3,382.75,0.25,38,145.51
2308,A2,383.0,0.25,46,145.51
2309,C5,383.0,0.5,57,145.51
2310,C6,383.0,0.5,57,145.51
2311,A3,383.25,0.25,40,145.51
2312,B2,383.5,0.25,41,145.51
2313,D5,383.5,0.5,60,145.51
2314,D6,383.5,0.5,60,145.51
2315,A3,383.75,0.25,42,145.51
2316,C3,384.0,0.25,50,145.51
2317,E6,384.0,1.0,62,145.51
2318,E5,384.0,1.0,62,145.51
2319,A3,384.25,0.25,43,145.51
2320,E3,384.5,0.25,43,145.51
2321,A3,384.75,0.25,43,145.51
2322,D3,385.0,0.25,47,145.51
2323,D5,385.0,0.75,61,145.51
2324,D6,385.0,0.75,61,145.51
2325,A3,385.25,0.25,39,145.51
2326,F3,385.5,0.25,39,145.51
2327,A3,385.75,0.25,39,145.51
2328,C5,385.75,0.25,50,145.51
2329,C6,385.75,0.25,50,145.51
2330,E3,386.0,0.25,45,145.51
2331,C6,386.0,1.0,56,145.51
2332,C5,386.0,1.0,56,145.51
2333,C4,386.25,0.25,35,145.51
2334,A3,386.5,0.25,35,145.51
2335,C4,386.75,0.25,35,145.51
2336,E3,387.0,0.25,46,145.51
2337,B4,387.0,1.0,52,145.51
2338,B5,387.0,1.0,52,145.51
2339,D4,387.25,0.25,35,145.51
2340,G#3,387.5,0.25,35,145.51
2341,D4,387.75,0.25,35,145.51
2342,F3,388.0,0.25,41,145.51
2343,G#4,388.0,1.0,54,145.51
2344,G#5,388.0,1.0,54,145.51
2345,C4,388.25,0.25,32,145.51
2346,A3,388.5,0.25,33,145.51
2347,C4,388.75,0.25,33,145.51
2348,F3,389.0,0.25,41,145.51
2349,A4,389.0,0.5,52,145.51
2350,A5,389.0,0.5,52,145.51
2351,C4,389.25,0.25,35,145.51
2352,A3,389.5,0.25,35,145.51
2353,C4,389.75,0.25,35,145.51
2354,C3,390.021,0.25,40,145.51
2355,A5,390.021,0.5,52,145.51
2356,A4,390.021,0.5,52,145.51
2357,A3,390.271,0.25,36,145.51
2358,D3,390.521,0.25,37,145.51
2359,B4,390.521,0.5,54,145.51
2360,B5,390.521,0.5,54,145.51
2361,A3,390.771,0.25,38,145.51
2362,A2,391.021,0.25,46,145.51
2363,C5,391.021,0.5,57,145.51
2364,C6,391.021,0.5,57,145.51
2365,A3,391.271,0.25,40,145.51
2366,B2,391.521,0.25,41,145.51
2367,D5,391.521,479/1000,60,145.51
2368,D6,391.521,479/1000,60,145.51
2369,A3,391.771,229/1000,42,145.51
2370,A3,392.0,21/1000,42,145.51
2371,D5,392.0,21/1000,60,145.51
2372,D6,392.0,21/1000,60,145.51
2373,C3,392.021,0.25,50,145.51
2374,E6,392.021,1.0,62,145.51
2375,E5,392.021,1.0,62,145.51
2376,A3,392.271,0.25,43,145.51
2377,E3,392.521,0.25,43,145.51
2378,A3,392.771,0.25,43,145.51
2379,D3,393.021,0.25,47,145.51
2380,D5,393.021,0.75,61,145.51
2381,D6,393.021,0.75,61,145.51
2382,A3,393.271,0.25,39,145.51
2383,F3,393.521,0.25,39,145.51
2384,A3,393.771,0.25,39,145.51
2385,C5,393.771,0.25,50,145.51
2386,C6,393.771,0.25,50,145.51
2387,E3,394.021,0.25,45,145.51
2388,C6,394.021,1.0,56,145.51
2389,C5,394.021,1.0,56,145.51
2390,C4,394.271,0.25,35,145.51
2391,A3,394.521,0.25,35,145.51
2392,C4,394.771,0.25,35,145.51
2393,E3,395.021,0.25,46,145.51
2394,B4,395.021,979/1000,52,145.51
2395,B5,395.021,979/1000,52,145.51
2396,D4,395.271,0.25,35,145.51
2397,G#3,395.521,0.25,35,145.51
2398,D4,395.771,229/1000,35,145.51
2399,D4,396.0,21/1000,35,145.51
2400,B1,396.0,0.25,74,145.51
2401,B2,396.0,0.25,74,145.51
2402,A5,396.021,0.25,69,145.51
2403,B4,396.021,21/1000,52,145.51
2404,B5,396.021,21/1000,52,145.51
2405,E-5,396.271,0.25,61,145.51
2406,D2,396.5,0.25,70,145.51
2407,D3,396.5,0.25,70,145.51
2408,E5,396.521,0.25,61,145.51
2409,A4,396.771,0.25,61,145.51
2410,C2,397.0,1.0,76,145.51
2411,C3,397.0,1.0,76,145.51
2412,A4,397.021,0.25,66,145.51
2413,E-4,397.271,0.25,61,145.51
2414,E4,397.521,0.25,61,145.51
2415,A3,397.771,0.25,61,145.51
2416,C#2,398.0,0.25,75,145.51
2417,C#3,398.0,0.25,75,145.51
2418,B-5,398.021,0.25,69,145.51
2419,E5,398.271,0.25,62,145.51
2420,E2,398.5,0.25,70,145.51
2421,E3,398.5,0.25,70,145.51
2422,F5,398.521,0.25,62,145.51
2423,B-4,398.771,0.25,62,145.51
2424,D2,399.0,1.0,76,145.51
2425,D3,399.0,1.0,76,145.51
2426,B-4,399.021,0.25,66,145.51
2427,E4,399.271,0.25,62,145.51
2428,F4,399.521,0.25,62,145.51
2429,B-3,399.771,0.25,63,145.51
2430,E-2,400.0,0.25,76,145.51
2431,E-3,400.0,0.25,76,145.51
2432,C#6,400.021,0.25,72,145.51
2433,F#5,400.271,0.25,63,145.51
2434,F2,400.5,0.25,71,145.51
2435,F3,400.5,0.25,71,145.51
2436,G5,400.521,0.25,64,145.51
2437,C#5,400.771,0.25,64,145.51
2438,E2,401.0,1.0,78,145.51
2439,E3,401.0,1.0,78,145.51
2440,C#5,401.021,0.25,70,145.51
2441,F#4,401.271,0.25,64,145.51
2442,G4,401.521,0.25,63,145.51
2443,C#4,401.771,0.25,63,145.51
2444,E2,402.0,0.25,78,145.51
2445,E3,402.0,0.25,78,145.51
2446,D6,402.021,0.25,75,145.51
2447,G#5,402.271,0.25,63,145.51
2448,G2,402.5,0.25,72,145.51
2449,G3,402.5,0.25,72,145.51
2450,A5,402.521,0.25,64,145.51
2451,D5,402.771,0.25,64,145.51
2452,F2,403.0,1.0,78,145.51
2453,F3,403.0,1.0,78,145.51
2454,D5,403.021,0.25,69,145.51
2455,G#4,403.271,0.25,64,145.51
2456,A4,403.521,0.25,64,145.51
2457,D4,403.771,0.25,64,145.51
2458,G#2,404.0,0.25,80,145.51
2459,G#3,404.0,0.25,80,145.51
2460,F6,404.021,0.25,76,145.51
2461,C#6,404.271,0.25,65,145.51
2462,D4,404.5,0.25,74,145.51
2463,B3,404.5,0.25,74,145.51
2464,D6,404.521,0.25,65,145.51
2465,F5,404.771,0.25,65,145.51
2466,F4,405.0,2.0,78,145.51
2467,D4,405.0,2.0,78,145.51
2468,B3,405.0,2.0,78,145.51
2469,G#3,405.0,2.0,78,145.51
2470,F6,405.021,0.25,71,145.51
2471,C#6,405.271,0.25,66,145.51
2472,D6,405.521,0.25,66,145.51
2473,F5,405.771,0.25,66,145.51
2474,F6,406.021,0.25,70,145.51
2475,C#6,406.271,0.25,61,145.51
2476,D6,406.521,0.25,61,145.51
2477,F5,406.771,0.25,61,145.51
2478,E3,407.0,1.0,40,145.51
2479,G#3,407.0,1.0,40,145.51
2480,B3,407.0,1.0,40,145.51
2481,G#5,407.021,0.25,64,145.51
2482,B5,407.271,0.25,58,145.51
2483,D6,407.521,0.25,58,145.51
2484,F6,407.771,0.25,58,145.51
2485,C3,408.0,0.25,45,145.51
2486,E6,408.021,1.0,56,145.51
2487,E5,408.021,1.0,56,145.51
2488,A3,408.25,0.25,38,145.51
2489,E3,408.5,0.25,38,145.51
2490,A3,408.75,0.25,38,145.51
2491,D3,409.0,0.25,42,145.51
2492,D5,409.021,0.75,54,145.51
2493,D6,409.021,0.75,54,145.51
2494,A3,409.25,0.25,35,145.51
2495,F3,409.5,0.25,35,145.51
2496,A3,409.75,0.25,35,145.51
2497,C5,409.771,0.25,45,145.51
2498,C6,409.771,0.25,45,145.51
2499,E3,410.0,0.25,40,145.51
2500,C6,410.021,1.0,50,145.51
2501,C5,410.021,1.0,50,145.51
2502,C4,410.25,0.25,31,145.51
2503,A3,410.5,0.25,31,145.51
2504,C4,410.75,0.25,31,145.51
2505,E3,411.0,0.25,41,145.51
2506,B4,411.021,1.0,46,145.51
2507,B5,411.021,1.0,46,145.51
2508,D4,411.25,0.25,31,145.51
2509,G#3,411.5,0.25,31,145.51
2510,D4,411.75,0.25,31,145.51
2511,C3,412.0,0.25,32,145.51
2512,E6,412.021,1.0,40,145.51
2513,E5,412.021,1.0,40,145.51
2514,A3,412.25,0.25,27,145.51
2515,E3,412.5,0.25,27,145.51
2516,A3,412.75,0.25,27,145.51
2517,D3,413.0,0.25,29,145.51
2518,D5,413.021,0.75,39,145.51
2519,D6,413.021,0.75,39,145.51
2520,A3,413.25,0.25,25,145.51
2521,F3,413.5,0.25,25,145.51
2522,A3,413.75,0.25,25,145.51
2523,C5,413.771,0.25,32,145.51
2524,C6,413.771,0.25,32,145.51
2525,E3,414.0,0.25,28,145.51
2526,C6,414.021,1.0,35,145.51
2527,C5,414.021,1.0,35,145.51
2528,C4,414.25,0.25,21,145.51
2529,A3,414.5,0.25,21,145.51
2530,C4,414.75,0.25,21,145.51
2531,E3,415.0,0.25,28,145.51
2532,B4,415.021,1.0,32,145.51
2533,B5,415.021,1.0,32,145.51
2534,D4,415.25,0.25,21,145.51
2535,G#3,415.5,0.25,21,145.51
2536,D4,415.75,0.25,21,145.51
2537,B1,416.0,0.25,74,145.51
2538,B2,416.0,0.25,74,145.51
2539,A5,416.021,0.25,69,145.51
2540,E-5,416.271,0.25,61,145.51
2541,D2,416.5,0.25,70,145.51
2542,D3,416.5,0.25,70,145.51
2543,E5,416.521,0.25,61,145.51
2544,A4,416.771,47/200,61,145.51
2545,C2,417.0,1.0,76,145.51
2546,C3,417.0,1.0,76,145.51
2547,A4,417.021,0.25,66,145.51
2548,E-4,417.271,0.25,61,145.51
2549,E4,417.521,0.25,61,145.51
2550,A3,417.771,0.25,61,145.51
2551,C#2,418.0,0.25,74,145.51
2552,C#3,418.0,0.25,74,145.51
2553,B-5,418.021,0.25,68,145.51
2554,E5,418.271,0.25,61,145.51
2555,E2,418.5,0.25,70,145.51
2556,E3,418.5,0.25,70,145.51
2557,F5,418.521,0.25,62,145.51
2558,B-4,418.771,233/1000,62,145.51
2559,D2,419.0,1.0,75,145.51
2560,D3,419.0,1.0,75,145.51
2561,B-4,419.021,0.25,66,145.51
2562,E4,419.271,0.25,62,145.51
2563,F4,419.521,0.25,62,145.51
2564,B-3,419.771,0.25,62,145.51
2565,E-2,420.0,0.25,76,145.51
2566,E-3,420.0,0.25,76,145.51
2567,C#6,420.021,0.25,72,145.51
2568,F#5,420.271,0.25,62,145.51
2569,F2,420.5,0.25,70,145.51
2570,F3,420.5,0.25,70,145.51
2571,G5,420.521,0.25,62,145.51
2572,C#5,420.771,47/200,62,145.51
2573,E2,421.0,1.0,76,145.51
2574,E3,421.0,1.0,76,145.51
2575,C#5,421.021,0.25,69,145.51
2576,F#4,421.271,0.25,63,145.51
2577,G4,421.521,0.25,62,145.51
2578,C#4,421.771,0.25,62,145.51
2579,E2,422.0,0.25,78,145.51
2580,E3,422.0,0.25,78,145.51
2581,D6,422.021,0.25,74,145.51
2582,G#5,422.271,0.25,63,145.51
2583,G2,422.5,0.25,71,145.51
2584,G3,422.5,0.25,71,145.51
2585,A5,422.521,0.25,63,145.51
2586,D5,422.771,47/200,63,145.51
2587,F2,423.0,1.0,78,145.51
2588,F3,423.0,1.0,78,145.51
2589,D5,423.021,0.25,68,145.51
2590,G#4,423.271,0.25,63,145.51
2591,A4,423.521,0.25,63,145.51
2592,D4,423.771,0.25,63,145.51
2593,F#2,424.0,0.25,78,145.51
2594,F#3,424.0,0.25,78,145.51
2595,E6,424.021,0.25,74,145.51
2596,B-5,424.271,0.25,64,145.51
2597,A2,424.5,0.25,72,145.51
2598,A3,424.5,0.25,72,145.51
2599,B5,424.521,0.25,65,145.51
2600,E5,424.771,231/1000,65,145.51
2601,G#2,425.0,1.0,78,145.51
2602,G#3,425.0,1.0,78,145.51
2603,E5,425.021,0.25,71,145.51
2604,B-4,425.271,0.25,65,145.51
2605,B4,425.521,0.25,64,145.51
2606,E4,425.771,0.25,64,145.51
2607,G#2,426.0,0.25,80,145.51
2608,G#3,426.0,0.25,80,145.51
2609,F6,426.021,0.25,76,145.51
2610,B5,426.271,0.25,64,145.51
2611,B2,426.5,0.25,72,145.51
2612,B3,426.5,0.25,72,145.51
2613,C6,426.521,0.25,64,145.51
2614,F5,426.771,227/1000,64,145.51
2615,A2,427.0,1.0,80,145.51
2616,A3,427.0,1.0,80,145.51
2617,F5,427.021,0.25,70,145.51
2618,B4,427.271,0.25,65,145.51
2619,C5,427.521,0.25,65,145.51
2620,F4,427.771,0.25,65,145.51
2621,B-3,428.0,999/500,81,145.51
2622,D4,428.0,999/500,81,145.51
2623,F4,428.0,999/500,81,145.51
2624,G#4,428.0,999/500,81,145.51
2625,G#5,428.021,0.5,84,145.51
2626,G#6,428.021,0.5,84,145.51
2627,G6,428.521,0.25,81,145.51
2628,F6,428.771,0.25,80,145.51
2629,E-6,429.021,0.25,79,145.51
2630,D6,429.271,0.25,78,145.51
2631,C6,429.521,0.25,77,145.51
2632,B-5,429.771,0.25,76,145.51
2633,G#5,430.021,0.25,75,145.51
2634,G5,430.271,0.25,74,145.51
2635,F5,430.521,0.25,73,145.51
2636,E-5,430.771,0.25,72,145.51
2637,D5,431.021,0.25,72,145.51
2638,C5,431.271,0.25,71,145.51
2639,B-4,431.521,0.25,70,145.51
2640,A4,431.771,0.25,69,145.51
2641,G#4,432.021,0.25,68,145.51
2642,G4,432.271,0.25,66,145.51
2643,F4,432.521,0.25,65,145.51
2644,E-4,432.771,0.25,64,145.51
2645,D4,433.021,0.25,63,145.51
2646,C4,433.271,0.25,62,145.51
2647,B-3,433.521,0.25,61,145.51
2648,G#3,433.771,0.25,60,145.51
2649,A3,434.021,0.25,59,145.51
2650,B-3,434.271,0.25,59,145.51
2651,C4,434.521,0.25,58,145.51
2652,B-3,434.771,0.25,57,145.51
2653,A3,435.021,0.25,56,145.51
2654,B-3,435.271,0.25,55,145.51
2655,C4,435.521,0.25,54,145.51
2656,B-3,435.771,0.25,53,145.51
2657,A3,436.021,333/1000,53,145.51
2658,C4,436.354,333/1000,46,145.51
2659,B-3,436.688,333/1000,46,145.51
2660,A3,437.021,333/1000,51,145.51
2661,C4,437.354,333/1000,45,145.51
2662,B-3,437.688,333/1000,45,145.51
2663,A3,438.021,333/1000,53,145.51
2664,C4,438.354,333/1000,42,145.51
2665,B-3,438.688,333/1000,42,145.51
2666,A3,439.021,333/1000,49,145.51
2667,C4,439.354,333/1000,38,145.51
2668,B-3,439.688,333/1000,38,145.51
2669,A3,440.021,0.5,40,145.51
2670,A4,440.021,0.5,40,145.51
2671,C4,440.521,0.5,33,145.51
2672,C5,440.521,0.5,33,145.51
2673,B-3,441.021,1.0,33,145.51
2674,B-4,441.021,1.0,33,145.51
2675,A3,442.021,0.5,38,145.51
2676,A4,442.021,0.5,38,145.51
2677,C4,442.521,0.5,32,145.51
2678,C5,442.521,0.5,32,145.51
2679,B-3,443.021,1.0,32,145.51
2680,B-4,443.021,1.0,32,145.51
2681,E-3,444.0,0.25,36,145.51
2682,A4,444.021,0.5,44,145.51
2683,B-3,444.25,0.25,30,145.51
2684,G3,444.5,0.25,31,145.51
2685,C5,444.521,0.5,39,145.51
2686,B-3,444.75,0.25,31,145.51
2687,E-4,445.0,0.25,36,145.51
2688,B-4,445.021,1.5,50,145.51
2689,B-3,445.25,0.25,31,145.51
2690,G3,445.5,0.25,31,145.51
2691,B-3,445.75,0.25,31,145.51
2692,E-3,446.0,0.25,36,145.51
2693,B-3,446.25,0.25,31,145.51
2694,G3,446.5,0.25,31,145.51
2695,C5,446.521,0.5,46,145.51
2696,B-3,446.75,0.25,32,145.51
2697,E-4,447.0,0.25,36,145.51
2698,D5,447.021,0.5,48,145.51
2699,B-3,447.25,0.25,31,145.51
2700,G3,447.5,0.25,31,145.51
2701,E-5,447.521,0.5,50,145.51
2702,B-3,447.75,0.25,31,145.51
2703,E-3,448.0,0.25,36,145.51
2704,A4,448.021,0.5,52,145.51
2705,B-3,448.25,0.25,30,145.51
2706,G3,448.5,0.25,31,145.51
2707,C5,448.521,0.5,49,145.51
2708,B-3,448.75,0.25,31,145.51
2709,E-4,449.0,0.25,36,145.51
2710,B-4,449.021,1.5,53,145.51
2711,B-3,449.25,0.25,31,145.51
2712,G3,449.5,0.25,31,145.51
2713,B-3,449.75,0.25,31,145.51
2714,E-3,450.0,0.25,36,145.51
2715,B-3,450.25,0.25,31,145.51
2716,G3,450.5,0.25,31,145.51
2717,C5,450.521,0.5,47,145.51
2718,B-3,450.75,0.25,32,145.51
2719,E-4,451.0,0.25,36,145.51
2720,D5,451.021,0.5,49,145.51
2721,B-3,451.25,0.25,31,145.51
2722,G3,451.5,0.25,31,145.51
2723,E-5,451.521,0.5,52,145.51
2724,B-3,451.75,0.25,31,145.51
2725,B-2,452.0,0.25,40,145.51
2726,E5,452.021,0.5,57,145.51
2727,B-3,452.25,0.25,33,145.51
2728,G#3,452.5,0.25,34,145.51
2729,G5,452.521,0.5,55,145.51
2730,B-3,452.75,0.25,34,145.51
2731,D4,453.0,0.25,40,145.51
2732,F5,453.021,1.5,58,145.51
2733,B-3,453.25,0.25,34,145.51
2734,G#3,453.5,0.25,34,145.51
2735,B-3,453.75,0.25,34,145.51
2736,B-2,454.0,0.25,40,145.51
2737,B-3,454.25,0.25,34,145.51
2738,G#3,454.5,0.25,34,145.51
2739,D5,454.521,0.5,55,145.51
2740,B-3,454.75,0.25,35,145.51
2741,D4,455.0,0.25,40,145.51
2742,C5,455.021,0.5,53,145.51
2743,B-3,455.25,0.25,34,145.51
2744,G#3,455.5,0.25,34,145.51
2745,B-4,455.521,0.5,53,145.51
2746,B-3,455.75,0.25,34,145.51
2747,B-2,456.0,0.25,40,145.51
2748,E5,456.021,0.5,57,145.51
2749,B-3,456.25,0.25,33,145.51
2750,G#3,456.5,0.25,34,145.51
2751,G5,456.521,0.5,53,145.51
2752,B-3,456.75,0.25,34,145.51
2753,D4,457.0,0.25,40,145.51
2754,F5,457.021,1.5,58,145.51
2755,B-3,457.25,0.25,34,145.51
2756,G#3,457.5,0.25,34,145.51
2757,B-3,457.75,0.25,34,145.51
2758,B-2,458.0,0.25,40,145.51
2759,B-3,458.25,0.25,34,145.51
2760,G#3,458.5,0.25,34,145.51
2761,D5,458.521,0.5,55,145.51
2762,B-3,458.75,0.25,35,145.51
2763,D4,459.0,0.25,40,145.51
2764,C5,459.021,0.5,53,145.51
2765,B-3,459.25,0.25,34,145.51
2766,G#3,459.5,0.25,34,145.51
2767,B-4,459.521,0.5,53,145.51
2768,B-3,459.75,0.25,34,145.51
2769,E-3,460.0,0.25,40,145.51
2770,A5,460.021,0.5,50,145.51
2771,A4,460.021,0.5,50,145.51
2772,B-3,460.25,0.25,33,145.51
2773,G3,460.5,0.25,34,145.51
2774,C6,460.521,0.5,46,145.51
2775,C5,460.521,0.5,46,145.51
2776,B-3,460.75,0.25,34,145.51
2777,E-4,461.0,0.25,40,145.51
2778,B-5,461.021,1.5,54,145.51
2779,B-4,461.021,1.5,54,145.51
2780,B-3,461.25,0.25,34,145.51
2781,G3,461.5,0.25,34,145.51
2782,B-3,461.75,0.25,34,145.51
2783,E-3,462.0,0.25,40,145.51
2784,B-3,462.25,0.25,34,145.51
2785,G3,462.5,0.25,34,145.51
2786,C6,462.521,0.5,46,145.51
2787,C5,462.521,0.5,46,145.51
2788,B-3,462.75,0.25,35,145.51
2789,E-4,463.0,0.25,40,145.51
2790,D6,463.021,0.5,48,145.51
2791,D5,463.021,0.5,48,145.51
2792,B-3,463.25,0.25,34,145.51
2793,G3,463.5,0.25,34,145.51
2794,E-6,463.521,0.5,50,145.51
2795,E-5,463.521,0.5,50,145.51
2796,B-3,463.75,0.25,34,145.51
2797,E-3,464.0,0.25,40,145.51
2798,A5,464.021,0.5,52,145.51
2799,A4,464.021,0.5,52,145.51
2800,B-3,464.25,0.25,33,145.51
2801,G3,464.5,0.25,34,145.51
2802,C6,464.521,0.5,49,145.51
2803,C5,464.521,0.5,49,145.51
2804,B-3,464.75,0.25,34,145.51
2805,E-4,465.0,0.25,40,145.51
2806,B-5,465.021,1.5,54,145.51
2807,B-4,465.021,1.5,54,145.51
2808,B-3,465.25,0.25,34,145.51
2809,G3,465.5,0.25,34,145.51
2810,B-3,465.75,0.25,34,145.51
2811,E-3,466.0,0.25,40,145.51
2812,B-3,466.25,0.25,34,145.51
2813,G3,466.5,0.25,34,145.51
2814,C6,466.521,0.5,46,145.51
2815,C5,466.521,0.5,46,145.51
2816,B-3,466.75,0.25,35,145.51
2817,E-4,467.0,0.25,40,145.51
2818,D6,467.021,0.5,49,145.51
2819,D5,467.021,0.5,49,145.51
2820,B-3,467.25,0.25,34,145.51
2821,G3,467.5,0.25,34,145.51
2822,E-6,467.521,0.5,52,145.51
2823,E-5,467.521,0.5,52,145.51
2824,B-3,467.75,0.25,34,145.51
2825,B-2,468.0,0.25,44,145.51
2826,E6,468.021,0.5,57,145.51
2827,E5,468.021,0.5,57,145.51
2828,B-3,468.25,0.25,36,145.51
2829,G#3,468.5,0.25,36,145.51
2830,G6,468.521,0.5,52,145.51
2831,G5,468.521,0.5,52,145.51
2832,B-3,468.75,0.25,36,145.51
2833,D4,469.0,0.25,44,145.51
2834,F6,469.021,1.5,56,145.51
2835,F5,469.021,1.5,56,145.51
2836,B-3,469.25,0.25,36,145.51
2837,G#3,469.5,0.25,36,145.51
2838,B-3,469.75,0.25,36,145.51
2839,B-2,470.0,0.25,44,145.51
2840,B-3,470.25,0.25,36,145.51
2841,G#3,470.5,0.25,36,145.51
2842,D6,470.521,0.5,55,145.51
2843,D5,470.521,0.5,55,145.51
2844,B-3,470.75,0.25,37,145.51
2845,D4,471.0,0.25,44,145.51
2846,C6,471.021,0.5,54,145.51
2847,C5,471.021,0.5,54,145.51
2848,B-3,471.25,0.25,36,145.51
2849,G#3,471.5,0.25,36,145.51
2850,B-5,471.521,0.5,54,145.51
2851,B-4,471.521,0.5,54,145.51
2852,B-3,471.75,0.25,36,145.51
2853,B-2,472.0,0.25,44,145.51
2854,E6,472.021,0.5,57,145.51
2855,E5,472.021,0.5,57,145.51
2856,B-3,472.25,0.25,36,145.51
2857,G#3,472.5,0.25,36,145.51
2858,G6,472.521,0.5,52,145.51
2859,G5,472.521,0.5,52,145.51
2860,B-3,472.75,0.25,36,145.51
2861,D4,473.0,0.25,44,145.51
2862,F6,473.021,1.5,57,145.51
2863,F5,473.021,1.5,57,145.51
2864,B-3,473.25,0.25,36,145.51
2865,G#3,473.5,0.25,36,145.51
2866,B-3,473.75,0.25,36,145.51
2867,B-2,474.0,0.25,44,145.51
2868,B-3,474.25,0.25,36,145.51
2869,G#3,474.5,0.25,36,145.51
2870,D6,474.521,0.5,55,145.51
2871,D5,474.521,0.5,55,145.51
2872,B-3,474.75,0.25,37,145.51
2873,D4,475.0,0.25,44,145.51
2874,C6,475.021,0.5,54,145.51
2875,C5,475.021,0.5,54,145.51
2876,B-3,475.25,0.25,36,145.51
2877,G#3,475.5,0.25,36,145.51
2878,B-5,475.521,0.5,54,145.51
2879,B-4,475.521,0.5,54,145.51
2880,B-3,475.75,0.25,36,145.51
2881,E-3,476.0,0.25,44,145.51
2882,B-5,476.021,0.5,57,145.51
2883,B-4,476.021,0.5,57,145.51
2884,B-3,476.25,0.25,36,145.51
2885,G3,476.5,0.25,36,145.51
2886,G#6,476.521,0.5,52,145.51
2887,G#5,476.521,0.5,52,145.51
2888,B-3,476.75,0.25,36,145.51
2889,E-4,477.0,0.25,44,145.51
2890,G6,477.021,1.5,57,145.51
2891,G5,477.021,1.5,57,145.51
2892,B-3,477.25,0.25,36,145.51
2893,G3,477.5,0.25,36,145.51
2894,B-3,477.75,0.25,36,145.51
2895,G2,478.0,0.25,44,145.51
2896,B3,478.25,0.25,36,145.51
2897,G3,478.5,0.25,36,145.51
2898,F6,478.521,0.5,55,145.51
2899,F5,478.521,0.5,55,145.51
2900,B3,478.75,0.25,37,145.51
2901,F4,479.0,0.25,44,145.51
2902,D6,479.021,0.5,54,145.51
2903,D5,479.021,0.5,54,145.51
2904,B3,479.25,0.25,36,145.51
2905,G3,479.5,0.25,36,145.51
2906,B5,479.521,0.5,54,145.51
2907,B4,479.521,0.5,54,145.51
2908,B3,479.75,0.25,36,145.51
2909,C3,480.0,0.25,44,145.51
2910,G5,480.021,0.5,57,145.51
2911,G4,480.021,0.5,57,145.51
2912,G3,480.25,0.25,36,145.51
2913,E-3,480.5,0.25,36,145.51
2914,F6,480.521,0.5,52,145.51
2915,F5,480.521,0.5,52,145.51
2916,G3,480.75,0.25,36,145.51
2917,C4,481.0,0.25,44,145.51
2918,E-6,481.021,1.5,57,145.51
2919,E-5,481.021,1.5,57,145.51
2920,G3,481.25,0.25,36,145.51
2921,E-3,481.5,0.25,36,145.51
2922,G3,481.75,0.25,36,145.51
2923,E-2,482.0,0.25,44,145.51
2924,G3,482.25,0.25,36,145.51
2925,E-3,482.5,0.25,36,145.51
2926,C#6,482.521,0.5,55,145.51
2927,C#5,482.521,0.5,55,145.51
2928,G3,482.75,0.25,37,145.51
2929,C#4,483.0,0.25,44,145.51
2930,B-5,483.021,0.5,54,145.51
2931,B-4,483.021,0.5,54,145.51
2932,G3,483.25,0.25,36,145.51
2933,E-3,483.5,0.25,36,145.51
2934,G5,483.521,0.5,54,145.51
2935,G4,483.521,0.5,54,145.51
2936,G3,483.75,0.25,36,145.51
2937,G#2,484.0,0.25,44,145.51
2938,E-5,484.021,0.5,57,145.51
2939,E-4,484.021,0.5,57,145.51
2940,E-3,484.25,0.25,36,145.51
2941,C3,484.5,0.25,36,145.51
2942,C#6,484.521,0.5,52,145.51
2943,C#5,484.521,0.5,52,145.51
2944,E-3,484.75,0.25,36,145.51
2945,G#3,485.0,0.25,42,145.51
2946,C6,485.021,1.5,55,145.51
2947,C5,485.021,1.5,55,145.51
2948,E-3,485.25,0.25,35,145.51
2949,C3,485.5,0.25,34,145.51
2950,E-3,485.75,0.25,34,145.51
2951,C#2,486.0,0.25,40,145.51
2952,F3,486.25,0.25,33,145.51
2953,C#3,486.5,0.25,33,145.51
2954,B-5,486.521,0.5,50,145.51
2955,B-4,486.521,0.5,50,145.51
2956,F3,486.75,0.25,33,145.51
2957,B-3,487.0,0.25,38,145.51
2958,C6,487.021,0.5,47,145.51
2959,C5,487.021,0.5,47,145.51
2960,F3,487.25,0.25,32,145.51
2961,C#3,487.5,0.25,31,145.51
2962,C#6,487.521,0.5,46,145.51
2963,C#5,487.521,0.5,46,145.51
2964,F3,487.75,0.25,31,145.51
2965,E-2,488.0,0.25,36,145.51
2966,E-5,488.021,0.5,48,145.51
2967,E-4,488.021,0.5,48,145.51
2968,E-3,488.25,0.25,30,145.51
2969,C3,488.5,0.25,30,145.51
2970,B-5,488.521,0.5,44,145.51
2971,B-4,488.521,0.5,44,145.51
2972,E-3,488.75,0.25,30,145.51
2973,G#3,489.0,0.25,36,145.51
2974,G#5,489.021,1.5,46,145.51
2975,G#4,489.021,1.5,46,145.51
2976,E-3,489.25,0.25,29,145.51
2977,C3,489.5,0.25,28,145.51
2978,E-3,489.75,0.25,28,145.51
2979,E-2,490.0,0.25,34,145.51
2980,E-3,490.25,0.25,27,145.51
2981,C#3,490.5,0.25,27,145.51
2982,G5,490.521,0.5,42,145.51
2983,G4,490.521,0.5,42,145.51
2984,E-3,490.75,0.25,27,145.51
2985,B-3,491.0,0.25,32,145.51
2986,G#5,491.021,0.5,39,145.51
2987,G#4,491.021,0.5,39,145.51
2988,E-3,491.25,0.25,26,145.51
2989,C#3,491.5,0.25,26,145.51
2990,B-5,491.521,0.5,38,145.51
2991,B-4,491.521,0.5,38,145.51
2992,E-3,491.75,0.25,26,145.51
2993,G#3,492.0,0.25,26,145.51
2994,D5,492.021,0.5,44,145.51
2995,E-4,492.25,0.25,25,145.51
2996,C4,492.5,0.25,26,145.51
2997,F5,492.521,0.5,40,145.51
2998,E-4,492.75,0.25,26,145.51
2999,G#4,493.0,0.25,29,145.51
3000,E-5,493.021,1.375,46,145.51
3001,E-4,493.25,0.25,26,145.51
3002,C4,493.5,0.25,26,145.51
3003,E-4,493.75,0.25,26,145.51
3004,G#3,494.0,0.25,29,145.51
3005,E-4,494.25,0.25,26,145.51
3006,C5,494.396,0.125,41,145.51
3007,C4,494.5,0.25,26,145.51
3008,E-6,494.521,0.375,55,145.51
3009,E-4,494.75,0.25,26,145.51
3010,B-4,494.896,0.125,38,145.51
3011,G4,495.0,0.25,29,145.51
3012,C#6,495.021,0.375,52,145.51
3013,E-4,495.25,0.25,26,145.51
3014,G#4,495.396,0.125,38,145.51
3015,G#4,495.5,0.25,26,145.51
3016,C6,495.521,0.5,52,145.51
3017,E-4,495.75,0.25,26,145.51
3018,G#3,496.0,0.25,29,145.51
3019,D5,496.021,0.5,44,145.51
3020,E-4,496.25,0.25,25,145.51
3021,C4,496.5,0.25,26,145.51
3022,F5,496.521,0.5,40,145.51
3023,E-4,496.75,0.25,26,145.51
3024,G#4,497.0,0.25,29,145.51
3025,E-5,497.021,1.375,46,145.51
3026,E-4,497.25,0.25,26,145.51
3027,C4,497.5,0.25,26,145.51
3028,E-4,497.75,0.25,26,145.51
3029,G#3,498.0,0.25,29,145.51
3030,E-4,498.25,0.25,26,145.51
3031,C5,498.396,0.125,41,145.51
3032,C4,498.5,0.25,26,145.51
3033,E-6,498.521,0.375,55,145.51
3034,E-4,498.75,0.25,26,145.51
3035,B-4,498.896,0.125,38,145.51
3036,G4,499.0,0.25,29,145.51
3037,C#6,499.021,0.375,52,145.51
3038,E-4,499.25,0.25,26,145.51
3039,G#4,499.396,0.125,38,145.51
3040,G#4,499.5,0.25,26,145.51
3041,C6,499.521,0.5,52,145.51
3042,E-4,499.75,0.25,26,145.51
3043,E-3,500.0,0.25,31,145.51
3044,A4,500.021,0.5,44,145.51
3045,E-4,500.25,0.25,26,145.51
3046,C#4,500.5,0.25,27,145.51
3047,C5,500.521,0.5,40,145.51
3048,E-4,500.75,0.25,27,145.51
3049,G4,501.0,0.25,31,145.51
3050,B-4,501.021,1.375,46,145.51
3051,E-4,501.25,0.25,27,145.51
3052,C#4,501.5,0.25,27,145.51
3053,E-4,501.75,0.25,27,145.51
3054,E-3,502.0,0.25,31,145.51
3055,E-4,502.25,0.25,27,145.51
3056,E-4,502.396,0.125,41,145.51
3057,F4,502.5,0.25,27,145.51
3058,G5,502.521,0.375,55,145.51
3059,E-4,502.75,0.25,27,145.51
3060,F4,502.896,0.125,38,145.51
3061,D4,503.0,0.25,31,145.51
3062,G#5,503.021,0.375,52,145.51
3063,E-4,503.25,0.25,27,145.51
3064,G4,503.396,0.125,38,145.51
3065,C#4,503.5,0.25,27,145.51
3066,B-5,503.521,0.5,52,145.51
3067,E-4,503.75,0.25,27,145.51
3068,E-3,504.0,0.25,31,145.51
3069,A4,504.021,0.5,44,145.51
3070,E-4,504.25,0.25,26,145.51
3071,C#4,504.5,0.25,27,145.51
3072,C5,504.521,0.5,40,145.51
3073,E-4,504.75,0.25,27,145.51
3074,G4,505.0,0.25,31,145.51
3075,B-4,505.021,1.375,46,145.51
3076,E-4,505.25,0.25,27,145.51
3077,C#4,505.5,0.25,27,145.51
3078,E-4,505.75,0.25,27,145.51
3079,E-3,506.0,0.25,31,145.51
3080,E-4,506.25,0.25,27,145.51
3081,E-4,506.396,0.125,41,145.51
3082,F4,506.5,0.25,27,145.51
3083,G5,506.521,0.375,55,145.51
3084,E-4,506.75,0.25,27,145.51
3085,F4,506.896,0.125,38,145.51
3086,D4,507.0,0.25,31,145.51
3087,G#5,507.021,0.375,52,145.51
3088,E-4,507.25,0.25,27,145.51
3089,G4,507.396,0.125,38,145.51
3090,C#4,507.5,0.25,27,145.51
3091,B-5,507.521,0.5,52,145.51
3092,E-4,507.75,0.25,27,145.51
3093,G#3,508.0,0.25,46,145.51
3094,E-5,508.021,0.5,54,145.51
3095,E-4,508.021,0.5,54,145.51
3096,E-4,508.25,0.25,38,145.51
3097,C4,508.5,0.25,38,145.51
3098,C#6,508.521,0.5,50,145.51
3099,C#5,508.521,0.5,50,145.51
3100,E-4,508.75,0.25,38,145.51
3101,G#4,509.0,0.25,46,145.51
3102,C6,509.021,1.5,54,145.51
3103,C5,509.021,1.5,54,145.51
3104,E-4,509.25,0.25,38,145.51
3105,C4,509.5,0.25,38,145.51
3106,E-4,509.75,0.25,38,145.51
3107,C3,510.0,0.25,46,145.51
3108,C4,510.25,0.25,38,145.51
3109,G3,510.5,0.25,38,145.51
3110,B-5,510.521,0.5,52,145.51
3111,B-4,510.521,0.5,52,145.51
3112,C4,510.75,0.25,39,145.51
3113,E4,511.0,0.25,46,145.51
3114,G5,511.021,0.5,50,145.51
3115,G4,511.021,0.5,50,145.51
3116,C4,511.25,0.25,38,145.51
3117,G3,511.5,0.25,38,145.51
3118,E5,511.521,0.5,50,145.51
3119,E4,511.521,0.5,50,145.51
3120,C4,511.75,0.25,38,145.51
3121,F3,512.0,0.25,46,145.51
3122,C6,512.021,0.5,54,145.51
3123,C5,512.021,0.5,54,145.51
3124,C4,512.25,0.25,38,145.51
3125,G#3,512.5,0.25,38,145.51
3126,B-6,512.521,0.5,50,145.51
3127,B-5,512.521,0.5,50,145.51
3128,C4,512.75,0.25,38,145.51
3129,F4,513.0,0.25,46,145.51
3130,G#6,513.021,1.5,54,145.51
3131,G#5,513.021,1.5,54,145.51
3132,C4,513.25,0.25,38,145.51
3133,G#3,513.5,0.25,38,145.51
3134,C4,513.75,0.25,38,145.51
3135,G#2,514.0,0.25,46,145.51
3136,G#3,514.25,0.25,38,145.51
3137,E-3,514.5,0.25,38,145.51
3138,F#6,514.521,0.5,52,145.51
3139,F#5,514.521,0.5,52,145.51
3140,G#3,514.75,0.25,39,145.51
3141,C4,515.0,0.25,46,145.51
3142,E-6,515.021,0.5,50,145.51
3143,E-5,515.021,0.5,50,145.51
3144,G#3,515.25,0.25,38,145.51
3145,E-3,515.5,0.25,38,145.51
3146,C6,515.521,0.5,50,145.51
3147,C5,515.521,0.5,50,145.51
3148,G#3,515.75,0.25,38,145.51
3149,C#3,516.0,0.25,49,145.51
3150,G#5,516.021,0.5,57,145.51
3151,G#4,516.021,0.5,57,145.51
3152,G#3,516.25,0.25,40,145.51
3153,F3,516.5,0.25,40,145.51
3154,F#6,516.521,0.5,52,145.51
3155,F#5,516.521,0.5,52,145.51
3156,G#3,516.75,0.25,40,145.51
3157,C#4,517.0,0.25,47,145.51
3158,F6,517.021,1.5,55,145.51
3159,F5,517.021,1.5,55,145.51
3160,G#3,517.25,0.25,39,145.51
3161,F3,517.5,0.25,38,145.51
3162,G#3,517.75,0.25,38,145.51
3163,F#2,518.0,0.25,45,145.51
3164,B-3,518.25,0.25,37,145.51
3165,F#3,518.5,0.25,37,145.51
3166,E-6,518.521,0.5,50,145.51
3167,E-5,518.521,0.5,50,145.51
3168,B-3,518.75,0.25,37,145.51
3169,E-4,519.0,0.25,43,145.51
3170,F6,519.021,0.5,47,145.51
3171,F5,519.021,0.5,47,145.51
3172,B-3,519.25,0.25,36,145.51
3173,F#3,519.5,0.25,35,145.51
3174,F#6,519.521,0.5,46,145.51
3175,F#5,519.521,0.5,46,145.51
3176,B-3,519.75,0.25,35,145.51
3177,G#2,520.0,0.25,41,145.51
3178,G#5,520.021,0.5,48,145.51
3179,G#4,520.021,0.5,48,145.51
3180,G#3,520.25,0.25,34,145.51
3181,F3,520.5,0.25,34,145.51
3182,E-6,520.521,0.5,44,145.51
3183,E-5,520.521,0.5,44,145.51
3184,G#3,520.75,0.25,34,145.51
3185,C#4,521.0,0.25,40,145.51
3186,C#6,521.021,1.5,46,145.51
3187,C#5,521.021,1.5,46,145.51
3188,G#3,521.25,0.25,33,145.51
3189,F3,521.5,0.25,32,145.51
3190,G#3,521.75,0.25,32,145.51
3191,G#2,522.0,0.25,38,145.51
3192,G#3,522.25,0.25,31,145.51
3193,F#3,522.5,0.25,31,145.51
3194,C6,522.521,0.5,42,145.51
3195,C5,522.521,0.5,42,145.51
3196,G#3,522.75,0.25,31,145.51
3197,E-4,523.0,0.25,36,145.51
3198,C#6,523.021,0.5,39,145.51
3199,C#5,523.021,0.5,39,145.51
3200,G#3,523.25,0.25,29,145.51
3201,F#3,523.5,0.25,29,145.51
3202,E-6,523.521,0.5,38,145.51
3203,E-5,523.521,0.5,38,145.51
3204,G#3,523.75,0.25,29,145.51
3205,F3,524.0,99/100,60,145.51
3206,C#3,524.0,99/100,60,145.51
3207,G#3,524.0,99/100,60,145.51
3208,C#4,524.0,99/100,60,145.51
3209,F5,524.021,99/100,81,145.51
3210,G#5,524.021,99/100,81,145.51
3211,C#6,524.021,99/100,81,145.51
3212,F6,524.021,99/100,81,145.51
3213,F3,525.0,0.25,54,145.51
3214,C#3,525.0,0.25,54,145.51
3215,G#3,525.0,0.25,54,145.51
3216,C#4,525.0,0.25,54,145.51
3217,F5,525.021,0.25,76,145.51
3218,G#5,525.021,0.25,76,145.51
3219,C#6,525.021,0.25,76,145.51
3220,F6,525.021,0.25,76,145.51
3221,F3,525.5,0.25,54,145.51
3222,C#3,525.5,0.25,54,145.51
3223,G#3,525.5,0.25,54,145.51
3224,C#4,525.5,0.25,54,145.51
3225,F5,525.521,0.25,76,145.51
3226,G#5,525.521,0.25,76,145.51
3227,C#6,525.521,0.25,76,145.51
3228,F6,525.521,0.25,76,145.51
3229,F3,526.0,99/100,61,145.51
3230,C#3,526.0,99/100,61,145.51
3231,G#3,526.0,99/100,61,145.51
3232,C#4,526.0,99/100,61,145.51
3233,F5,526.021,99/100,81,145.51
3234,G#5,526.021,99/100,81,145.51
3235,C#6,526.021,99/100,81,145.51
3236,F6,526.021,99/100,81,145.51
3237,C#3,527.0,0.25,55,145.51
3238,G#3,527.0,0.25,55,145.51
3239,C#4,527.0,0.25,55,145.51
3240,F3,527.0,0.25,55,145.51
3241,F5,527.021,0.25,76,145.51
3242,G#5,527.021,0.25,76,145.51
3243,C#6,527.021,0.25,76,145.51
3244,F6,527.021,0.25,76,145.51
3245,F3,527.5,0.25,55,145.51
3246,C#3,527.5,0.25,55,145.51
3247,G#3,527.5,0.25,55,145.51
3248,C#4,527.5,0.25,55,145.51
3249,F5,527.521,0.25,76,145.51
3250,G#5,527.521,0.25,76,145.51
3251,C#6,527.521,0.25,76,145.51
3252,F6,527.521,0.25,76,145.51
3253,F3,528.0,0.375,61,145.51
3254,C#3,528.0,0.375,61,145.51
3255,G#3,528.0,0.375,61,145.51
3256,C#4,528.0,0.375,61,145.51
3257,F5,528.021,0.375,81,145.51
3258,G#5,528.021,0.375,81,145.51
3259,C#6,528.021,0.375,81,145.51
3260,F6,528.021,0.375,81,145.51
3261,C#4,528.5,0.25,52,145.51
3262,F6,528.521,0.25,70,145.51
3263,G#3,528.75,0.25,54,145.51
3264,C#6,528.771,0.25,72,145.51
3265,F3,529.0,0.25,56,145.51
3266,G#5,529.021,0.25,73,145.51
3267,C#3,529.25,0.25,58,145.51
3268,F5,529.271,0.25,75,145.51
3269,G#2,529.5,0.25,59,145.51
3270,C#5,529.521,0.25,77,145.51
3271,F2,529.75,0.25,61,145.51
3272,G#4,529.771,0.25,78,145.51
3273,C#2,530.0,0.25,62,145.51
3274,F4,530.021,0.25,81,145.51
3275,G#1,530.25,0.25,61,145.51
3276,C#4,530.271,0.25,80,145.51
3277,C#2,530.5,0.25,60,145.51
3278,F4,530.521,0.25,79,145.51
3279,F2,530.75,0.25,59,145.51
3280,G#4,530.771,0.25,78,145.51
3281,G#2,531.0,0.25,58,145.51
3282,C#5,531.021,0.25,78,145.51
3283,C#3,531.25,0.25,57,145.51
3284,F5,531.271,0.25,77,145.51
3285,F3,531.5,0.25,57,145.51
3286,G#5,531.521,0.25,76,145.51
3287,G#3,531.75,0.25,56,145.51
3288,C#6,531.771,0.25,75,145.51
3289,F3,532.0,99/100,60,145.51
3290,C#3,532.0,99/100,60,145.51
3291,B-2,532.0,99/100,60,145.51
3292,B-3,532.0,99/100,60,145.51
3293,F5,532.021,99/100,81,145.51
3294,B-5,532.021,99/100,81,145.51
3295,C#6,532.021,99/100,81,145.51
3296,F6,532.021,99/100,81,145.51
3297,F3,533.0,0.25,54,145.51
3298,C#3,533.0,0.25,54,145.51
3299,B-2,533.0,0.25,54,145.51
3300,B-3,533.0,0.25,54,145.51
3301,F5,533.021,0.25,76,145.51
3302,B-5,533.021,0.25,76,145.51
3303,C#6,533.021,0.25,76,145.51
3304,F6,533.021,0.25,76,145.51
3305,F3,533.5,0.25,54,145.51
3306,C#3,533.5,0.25,54,145.51
3307,B-2,533.5,0.25,54,145.51
3308,B-3,533.5,0.25,54,145.51
3309,F5,533.521,0.25,76,145.51
3310,B-5,533.521,0.25,76,145.51
3311,C#6,533.521,0.25,76,145.51
3312,F6,533.521,0.25,76,145.51
3313,F3,534.0,99/100,61,145.51
3314,C#3,534.0,99/100,61,145.51
3315,B-2,534.0,99/100,61,145.51
3316,B-3,534.0,99/100,61,145.51
3317,F5,534.021,99/100,81,145.51
3318,B-5,534.021,99/100,81,145.51
3319,C#6,534.021,99/100,81,145.51
3320,F6,534.021,99/100,81,145.51
3321,C#3,535.0,0.25,55,145.51
3322,B-2,535.0,0.25,55,145.51
3323,B-3,535.0,0.25,55,145.51
3324,F3,535.0,0.25,55,145.51
3325,F5,535.021,0.25,76,145.51
3326,B-5,535.021,0.25,76,145.51
3327,C#6,535.021,0.25,76,145.51
3328,F6,535.021,0.25,76,145.51
3329,F3,535.5,0.25,55,145.51
3330,C#3,535.5,0.25,55,145.51
3331,B-2,535.5,0.25,55,145.51
3332,B-3,535.5,0.25,55,145.51
3333,F5,535.521,0.25,76,145.51
3334,B-5,535.521,0.25,76,145.51
3335,C#6,535.521,0.25,76,145.51
3336,F6,535.521,0.25,76,145.51
3337,F3,536.0,0.375,61,145.51
3338,C#3,536.0,0.375,61,145.51
3339,B-2,536.0,0.375,61,145.51
3340,B-3,536.0,0.375,61,145.51
3341,F5,536.021,0.375,81,145.51
3342,B-5,536.021,0.375,81,145.51
3343,C#6,536.021,0.375,81,145.51
3344,F6,536.021,0.375,81,145.51
3345,C#4,536.5,0.25,53,145.51
3346,F6,536.521,0.25,71,145.51
3347,B-3,536.75,0.25,55,145.51
3348,C#6,536.771,0.25,72,145.51
3349,F3,537.0,0.25,57,145.51
3350,B-5,537.021,0.25,73,145.51
3351,C#3,537.25,0.25,58,145.51
3352,F5,537.271,0.25,74,145.51
3353,B-2,537.5,0.25,60,145.51
3354,C#5,537.521,0.25,75,145.51
3355,F2,537.75,0.25,62,145.51
3356,B-4,537.771,0.25,75,145.51
3357,C#2,538.0,0.25,64,145.51
3358,F4,538.021,0.25,76,145.51
3359,B-1,538.25,0.25,64,145.51
3360,C#4,538.271,0.25,77,145.51
3361,C#2,538.5,0.25,63,145.51
3362,F4,538.521,0.25,76,145.51
3363,F2,538.75,0.25,62,145.51
3364,B-4,538.771,0.25,75,145.51
3365,B-2,539.0,0.25,61,145.51
3366,C#5,539.021,0.25,74,145.51
3367,C#3,539.25,0.25,60,145.51
3368,F5,539.271,0.25,73,145.51
3369,F3,539.5,0.25,59,145.51
3370,B-5,539.521,0.25,73,145.51
3371,B-3,539.75,0.25,60,145.51
3372,C#6,539.771,0.25,72,145.51
3373,F#3,540.0,99/100,54,145.51
3374,B-3,540.0,99/100,54,145.51
3375,C#4,540.0,99/100,54,145.51
3376,F#5,540.021,99/100,72,145.51
3377,B-5,540.021,99/100,72,145.51
3378,C#6,540.021,99/100,72,145.51
3379,F#6,540.021,99/100,72,145.51
3380,F#3,541.0,0.25,49,145.51
3381,B-3,541.0,0.25,49,145.51
3382,C#4,541.0,0.25,49,145.51
3383,F#5,541.021,0.25,69,145.51
3384,B-5,541.021,0.25,69,145.51
3385,C#6,541.021,0.25,69,145.51
3386,F#6,541.021,0.25,69,145.51
3387,F#3,541.5,0.25,49,145.51
3388,B-3,541.5,0.25,49,145.51
3389,C#4,541.5,0.25,49,145.51
3390,F#5,541.521,0.25,69,145.51
3391,B-5,541.521,0.25,69,145.51
3392,C#6,541.521,0.25,69,145.51
3393,F#6,541.521,0.25,69,145.51
3394,D3,542.0,99/100,60,145.51
3395,F#3,542.0,99/100,60,145.51
3396,A3,542.0,99/100,60,145.51
3397,D4,542.0,99/100,60,145.51
3398,F#5,542.021,99/100,79,145.51
3399,A5,542.021,99/100,79,145.51
3400,D6,542.021,99/100,79,145.51
3401,F#6,542.021,99/100,79,145.51
3402,D3,543.0,0.25,54,145.51
3403,A3,543.0,0.25,54,145.51
3404,D4,543.0,0.25,54,145.51
3405,F#3,543.0,0.25,54,145.51
3406,F#5,543.021,0.25,74,145.51
3407,A5,543.021,0.25,74,145.51
3408,D6,543.021,0.25,74,145.51
3409,F#6,543.021,0.25,74,145.51
3410,D3,543.5,0.25,54,145.51
3411,F#3,543.5,0.25,54,145.51
3412,A3,543.5,0.25,54,145.51
3413,D4,543.5,0.25,54,145.51
3414,F#5,543.521,0.25,74,145.51
3415,A5,543.521,0.25,74,145.51
3416,D6,543.521,0.25,74,145.51
3417,F#6,543.521,0.25,74,145.51
3418,C3,544.0,0.375,60,145.51
3419,E-3,544.0,0.375,60,145.51
3420,G#3,544.0,0.375,60,145.51
3421,C4,544.0,0.375,60,145.51
3422,F#5,544.021,0.375,79,145.51
3423,G#5,544.021,0.375,79,145.51
3424,E-6,544.021,0.375,79,145.51
3425,F#6,544.021,0.375,79,145.51
3426,E-4,544.5,0.25,47,145.51
3427,F#5,544.521,0.25,60,145.51
3428,C#4,544.75,0.25,48,145.51
3429,F5,544.771,0.25,62,145.51
3430,C4,545.0,0.25,50,145.51
3431,E-5,545.021,0.25,63,145.51
3432,C#4,545.25,0.25,51,145.51
3433,F5,545.271,0.25,64,145.51
3434,C4,545.5,0.25,52,145.51
3435,E-5,545.521,0.25,66,145.51
3436,B-3,545.75,0.25,54,145.51
3437,C#5,545.771,0.25,67,145.51
3438,G#3,546.0,0.25,55,145.51
3439,C5,546.021,0.25,70,145.51
3440,B-3,546.25,0.25,53,145.51
3441,C#5,546.271,0.25,70,145.51
3442,G#3,546.5,0.25,52,145.51
3443,C5,546.521,0.25,69,145.51
3444,B-3,546.75,0.25,52,145.51
3445,C#5,546.771,0.25,68,145.51
3446,C4,547.0,0.25,51,145.51
3447,E-5,547.021,0.25,67,145.51
3448,C#4,547.25,0.25,51,145.51
3449,F5,547.271,0.25,66,145.51
3450,E-4,547.5,0.25,50,145.51
3451,F#5,547.521,0.25,65,145.51
3452,F4,547.75,0.25,50,145.51
3453,G#5,547.771,0.25,64,145.51
3454,F#3,548.0,99/100,54,145.51
3455,B-3,548.0,99/100,54,145.51
3456,C#4,548.0,99/100,54,145.51
3457,F#5,548.021,99/100,72,145.51
3458,B-5,548.021,99/100,72,145.51
3459,C#6,548.021,99/100,72,145.51
3460,F#6,548.021,99/100,72,145.51
3461,F#3,549.0,0.25,49,145.51
3462,B-3,549.0,0.25,49,145.51
3463,C#4,549.0,0.25,49,145.51
3464,F#5,549.021,0.25,69,145.51
3465,B-5,549.021,0.25,69,145.51
3466,C#6,549.021,0.25,69,145.51
3467,F#6,549.021,0.25,69,145.51
3468,F#3,549.5,0.25,49,145.51
3469,B-3,549.5,0.25,49,145.51
3470,C#4,549.5,0.25,49,145.51
3471,F#5,549.521,0.25,69,145.51
3472,B-5,549.521,0.25,69,145.51
3473,C#6,549.521,0.25,69,145.51
3474,F#6,549.521,0.25,69,145.51
3475,D3,550.0,99/100,60,145.51
3476,F#3,550.0,99/100,60,145.51
3477,A3,550.0,99/100,60,145.51
3478,D4,550.0,99/100,60,145.51
3479,F#5,550.021,99/100,79,145.51
3480,A5,550.021,99/100,79,145.51
3481,D6,550.021,99/100,79,145.51
3482,F#6,550.021,99/100,79,145.51
3483,D3,551.0,0.25,54,145.51
3484,A3,551.0,0.25,54,145.51
3485,D4,551.0,0.25,54,145.51
3486,F#3,551.0,0.25,54,145.51
3487,F#5,551.021,0.25,74,145.51
3488,A5,551.021,0.25,74,145.51
3489,D6,551.021,0.25,74,145.51
3490,F#6,551.021,0.25,74,145.51
3491,D3,551.5,0.25,54,145.51
3492,F#3,551.5,0.25,54,145.51
3493,A3,551.5,0.25,54,145.51
3494,D4,551.5,0.25,54,145.51
3495,F#5,551.521,0.25,74,145.51
3496,A5,551.521,0.25,74,145.51
3497,D6,551.521,0.25,74,145.51
3498,F#6,551.521,0.25,74,145.51
3499,C3,552.0,0.375,60,145.51
3500,E-3,552.0,0.375,60,145.51
3501,G#3,552.0,0.375,60,145.51
3502,C4,552.0,0.375,60,145.51
3503,F#5,552.021,0.375,79,145.51
3504,G#5,552.021,0.375,79,145.51
3505,E-6,552.021,0.375,79,145.51
3506,F#6,552.021,0.375,79,145.51
3507,E-4,552.5,0.25,47,145.51
3508,F#5,552.521,0.25,61,145.51
3509,C#4,552.75,0.25,48,145.51
3510,F5,552.771,0.25,62,145.51
3511,C4,553.0,0.25,50,145.51
3512,E-5,553.021,0.25,63,145.51
3513,C#4,553.25,0.25,51,145.51
3514,F5,553.271,0.25,64,145.51
3515,C4,553.5,0.25,51,145.51
3516,E-5,553.521,0.25,65,145.51
3517,B-3,553.75,0.25,53,145.51
3518,C#5,553.771,0.25,67,145.51
3519,G#3,554.0,0.25,55,145.51
3520,C5,554.021,0.25,68,145.51
3521,B-3,554.25,0.25,55,145.51
3522,C#5,554.271,0.25,68,145.51
3523,G#3,554.5,0.25,53,145.51
3524,C5,554.521,0.25,68,145.51
3525,B-3,554.75,0.25,52,145.51
3526,C#5,554.771,0.25,67,145.51
3527,C4,555.0,0.25,50,145.51
3528,E-5,555.021,0.25,66,145.51
3529,C#4,555.25,0.25,49,145.51
3530,F5,555.271,0.25,66,145.51
3531,E-4,555.5,0.25,48,145.51
3532,F#5,555.521,0.25,65,145.51
3533,F4,555.75,0.25,47,145.51
3534,G#5,555.771,0.25,65,145.51
3535,F#3,556.0,99/100,58,145.51
3536,A3,556.0,99/100,58,145.51
3537,C#4,556.0,99/100,58,145.51
3538,F#4,556.0,99/100,58,145.51
3539,A4,556.021,99/100,71,145.51
3540,C#5,556.021,99/100,71,145.51
3541,F#5,556.021,99/100,71,145.51
3542,A5,556.021,99/100,71,145.51
3543,F#3,557.0,0.25,42,145.51
3544,A3,557.0,0.25,42,145.51
3545,C#4,557.0,0.25,42,145.51
3546,F#4,557.0,0.25,42,145.51
3547,A4,557.021,0.25,66,145.51
3548,C#5,557.021,0.25,66,145.51
3549,F#5,557.021,0.25,66,145.51
3550,A5,557.021,0.25,66,145.51
3551,F#3,557.5,0.25,48,145.51
3552,A3,557.5,0.25,48,145.51
3553,C#4,557.5,0.25,48,145.51
3554,F#4,557.5,0.25,48,145.51
3555,A4,557.521,0.25,66,145.51
3556,F#5,557.521,0.25,66,145.51
3557,C#5,557.521,0.25,66,145.51
3558,A5,557.521,0.25,66,145.51
3559,D3,558.0,99/100,53,145.51
3560,F#3,558.0,99/100,53,145.51
3561,A3,558.0,99/100,53,145.51
3562,D4,558.0,99/100,53,145.51
3563,D5,558.021,99/100,72,145.51
3564,F#5,558.021,99/100,72,145.51
3565,A5,558.021,99/100,72,145.51
3566,D6,558.021,99/100,72,145.51
3567,F#3,559.0,0.25,49,145.51
3568,D3,559.0,0.25,49,145.51
3569,A3,559.0,0.25,49,145.51
3570,D4,559.0,0.25,49,145.51
3571,D5,559.021,0.25,68,145.51
3572,F#5,559.021,0.25,68,145.51
3573,A5,559.021,0.25,68,145.51
3574,D6,559.021,0.25,68,145.51
3575,D3,559.5,0.25,50,145.51
3576,F#3,559.5,0.25,50,145.51
3577,A3,559.5,0.25,50,145.51
3578,D4,559.5,0.25,50,145.51
3579,D5,559.521,0.25,68,145.51
3580,F#5,559.521,0.25,68,145.51
3581,A5,559.521,0.25,68,145.51
3582,D6,559.521,0.25,68,145.51
3583,E3,560.0,1.0,57,145.51
3584,G3,560.0,1.0,57,145.51
3585,B3,560.0,1.0,57,145.51
3586,E4,560.0,1.0,57,145.51
3587,B4,560.021,1.0,66,145.51
3588,G5,560.021,1.0,66,145.51
3589,B5,560.021,1.0,66,145.51
3590,C3,561.0,1.0,49,145.51
3591,E3,561.0,1.0,49,145.51
3592,A3,561.0,1.0,49,145.51
3593,C4,561.0,1.0,49,145.51
3594,C5,561.021,1.0,67,145.51
3595,E5,561.021,1.0,67,145.51
3596,A5,561.021,1.0,67,145.51
3597,C6,561.021,1.0,67,145.51
3598,D3,562.0,1.0,56,145.51
3599,A3,562.0,1.0,56,145.51
3600,D4,562.0,1.0,56,145.51
3601,A4,562.021,1.0,71,145.51
3602,D5,562.021,1.0,71,145.51
3603,G5,562.021,1.0,71,145.51
3604,A5,562.021,1.0,71,145.51
3605,D2,563.0,1.0,56,145.51
3606,D3,563.0,1.0,56,145.51
3607,D5,563.021,1.0,73,145.51
3608,F#5,563.021,1.0,73,145.51
3609,A5,563.021,1.0,73,145.51
3610,D6,563.021,1.0,73,145.51
3611,E2,564.0,1.0,56,145.51
3612,E3,564.0,1.0,56,145.51
3613,B4,564.021,1.0,73,145.51
3614,G5,564.021,1.0,73,145.51
3615,B5,564.021,1.0,73,145.51
3616,C3,565.0,1.0,49,145.51
3617,E3,565.0,1.0,49,145.51
3618,A3,565.0,1.0,49,145.51
3619,C4,565.0,1.0,49,145.51
3620,C5,565.021,1.0,71,145.51
3621,E5,565.021,1.0,71,145.51
3622,A5,565.021,1.0,71,145.51
3623,C6,565.021,1.0,71,145.51
3624,D3,566.0,1.0,58,145.51
3625,A3,566.0,1.0,58,145.51
3626,D4,566.0,1.0,58,145.51
3627,A4,566.021,1.0,75,145.51
3628,D5,566.021,1.0,75,145.51
3629,G5,566.021,1.0,75,145.51
3630,A5,566.021,1.0,75,145.51
3631,D2,567.0,1.0,62,145.51
3632,D3,567.0,1.0,62,145.51
3633,D5,567.021,1.0,78,145.51
3634,F#5,567.021,1.0,78,145.51
3635,A5,567.021,1.0,78,145.51
3636,D6,567.021,1.0,78,145.51
3637,G2,568.0,0.25,61,145.51
3638,G4,568.021,99/100,79,145.51
3639,B4,568.021,99/100,79,145.51
3640,G5,568.021,99/100,79,145.51
3641,A2,568.25,0.25,57,145.51
3642,G2,568.5,0.25,57,145.51
3643,A2,568.75,0.25,57,145.51
3644,B2,569.0,0.25,61,145.51
3645,G4,569.021,0.25,71,145.51
3646,B4,569.021,0.25,71,145.51
3647,G5,569.021,0.25,71,145.51
3648,C3,569.25,0.25,57,145.51
3649,B2,569.5,0.25,57,145.51
3650,G4,569.521,0.25,71,145.51
3651,B4,569.521,0.25,71,145.51
3652,G5,569.521,0.25,71,145.51
3653,C3,569.75,0.25,57,145.51
3654,D3,570.0,0.25,63,145.51
3655,G4,570.021,99/100,77,145.51
3656,B4,570.021,99/100,77,145.51
3657,G5,570.021,99/100,77,145.51
3658,E-3,570.25,0.25,57,145.51
3659,D3,570.5,0.25,57,145.51
3660,E-3,570.75,0.25,57,145.51
3661,F3,571.0,0.25,61,145.51
3662,G4,571.021,0.25,71,145.51
3663,B4,571.021,0.25,71,145.51
3664,G5,571.021,0.25,71,145.51
3665,G3,571.25,0.25,57,145.51
3666,F3,571.5,0.25,57,145.51
3667,G4,571.521,0.25,71,145.51
3668,B4,571.521,0.25,71,145.51
3669,G5,571.521,0.25,71,145.51
3670,G3,571.75,0.25,57,145.51
3671,G#2,572.0,2.0,67,145.51
3672,G#3,572.0,2.0,67,145.51
3673,G4,572.021,1.0,78,145.51
3674,C5,572.021,1.0,78,145.51
3675,G5,572.021,1.0,78,145.51
3676,F4,573.021,1.0,71,145.51
3677,C5,573.021,1.0,71,145.51
3678,F5,573.021,1.0,71,145.51
3679,G#1,574.0,2.0,66,145.51
3680,G#2,574.0,2.0,66,145.51
3681,F5,574.021,0.5,75,145.51
3682,C6,574.021,0.5,75,145.51
3683,F6,574.021,0.5,75,145.51
3684,F4,574.521,119/500,62,145.51
3685,C5,574.521,119/500,62,145.51
3686,F5,574.521,119/500,62,145.51
3687,F4,574.771,119/500,62,145.51
3688,C5,574.771,119/500,62,145.51
3689,F5,574.771,119/500,62,145.51
3690,F4,575.021,19/40,69,145.51
3691,C5,575.021,19/40,69,145.51
3692,F5,575.021,19/40,69,145.51
3693,F4,575.521,19/40,68,145.51
3694,C5,575.521,19/40,68,145.51
3695,F5,575.521,19/40,68,145.51
3696,F2,576.0,0.25,61,145.51
3697,G#4,576.021,99/100,79,145.51
3698,C5,576.021,99/100,79,145.51
3699,F5,576.021,99/100,79,145.51
3700,G2,576.25,0.25,57,145.51
3701,F2,576.5,0.25,57,145.51
3702,G2,576.75,0.25,57,145.51
3703,G#2,577.0,0.25,61,145.51
3704,G#4,577.021,0.25,71,145.51
3705,C5,577.021,0.25,71,145.51
3706,F5,577.021,0.25,71,145.51
3707,B-2,577.25,0.25,57,145.51
3708,G#2,577.5,0.25,57,145.51
3709,G#4,577.521,0.25,71,145.51
3710,C5,577.521,0.25,71,145.51
3711,F5,577.521,0.25,71,145.51
3712,B-2,577.75,0.25,57,145.51
3713,C3,578.0,0.25,63,145.51
3714,G#4,578.021,99/100,77,145.51
3715,C5,578.021,99/100,77,145.51
3716,F5,578.021,99/100,77,145.51
3717,D3,578.25,0.25,57,145.51
3718,C3,578.5,0.25,57,145.51
3719,D3,578.75,0.25,57,145.51
3720,E-3,579.0,0.25,61,145.51
3721,G#4,579.021,0.25,71,145.51
3722,C5,579.021,0.25,71,145.51
3723,F5,579.021,0.25,71,145.51
3724,F3,579.25,0.25,57,145.51
3725,E-3,579.5,0.25,57,145.51
3726,G#4,579.521,0.25,71,145.51
3727,C5,579.521,0.25,71,145.51
3728,F5,579.521,0.25,71,145.51
3729,F3,579.75,0.25,57,145.51
3730,G2,580.0,2.0,67,145.51
3731,G3,580.0,2.0,67,145.51
3732,G4,580.021,1.0,78,145.51
3733,B-4,580.021,1.0,78,145.51
3734,F5,580.021,1.0,78,145.51
3735,G4,581.021,1.0,71,145.51
3736,B-4,581.021,1.0,71,145.51
3737,E-5,581.021,1.0,71,145.51
3738,G1,582.0,2.0,66,145.51
3739,G2,582.0,2.0,66,145.51
3740,E-5,582.021,0.5,78,145.51
3741,B-5,582.021,0.5,78,145.51
3742,E-6,582.021,0.5,78,145.51
3743,E-4,582.521,119/500,62,145.51
3744,B-4,582.521,119/500,62,145.51
3745,E-5,582.521,119/500,62,145.51
3746,E-4,582.771,119/500,62,145.51
3747,B-4,582.771,119/500,62,145.51
3748,E-5,582.771,119/500,62,145.51
3749,E-4,583.021,19/40,69,145.51
3750,B-4,583.021,19/40,69,145.51
3751,E-5,583.021,19/40,69,145.51
3752,E-4,583.521,19/40,68,145.51
3753,B-4,583.521,19/40,68,145.51
3754,E-5,583.521,19/40,68,145.51
3755,E-2,584.0,0.25,61,145.51
3756,G4,584.021,1.0,79,145.51
3757,B-4,584.021,1.0,79,145.51
3758,E-5,584.021,1.0,79,145.51
3759,F2,584.25,0.25,57,145.51
3760,E-2,584.5,0.25,57,145.51
3761,F2,584.75,0.25,57,145.51
3762,G2,585.0,0.25,61,145.51
3763,G4,585.021,0.25,71,145.51
3764,B-4,585.021,0.25,71,145.51
3765,E-5,585.021,0.25,71,145.51
3766,G#2,585.25,0.25,57,145.51
3767,G2,585.5,0.25,57,145.51
3768,G4,585.521,0.25,71,145.51
3769,B-4,585.521,0.25,71,145.51
3770,E-5,585.521,0.25,71,145.51
3771,G#2,585.75,0.25,57,145.51
3772,B-2,586.0,0.25,63,145.51
3773,G4,586.021,1.0,77,145.51
3774,B-4,586.021,1.0,77,145.51
3775,E-5,586.021,1.0,77,145.51
3776,C3,586.25,0.25,57,145.51
3777,B-2,586.5,0.25,57,145.51
3778,C3,586.75,0.25,57,145.51
3779,D3,587.0,0.25,61,145.51
3780,G4,587.021,0.25,71,145.51
3781,B-4,587.021,0.25,71,145.51
3782,E-5,587.021,0.25,71,145.51
3783,E-3,587.25,0.25,57,145.51
3784,D3,587.5,0.25,57,145.51
3785,G4,587.521,0.25,71,145.51
3786,B-4,587.521,0.25,71,145.51
3787,E-5,587.521,0.25,71,145.51
3788,E-3,587.75,0.25,57,145.51
3789,F2,588.0,2.0,67,145.51
3790,F3,588.0,2.0,67,145.51
3791,F4,588.021,1.0,78,145.51
3792,G#4,588.021,1.0,78,145.51
3793,E-5,588.021,1.0,78,145.51
3794,F4,589.021,1.0,71,145.51
3795,G#4,589.021,1.0,71,145.51
3796,C#5,589.021,1.0,71,145.51
3797,F1,590.0,2.0,66,145.51
3798,F2,590.0,2.0,66,145.51
3799,C#5,590.021,19/40,78,145.51
3800,G#5,590.021,19/40,78,145.51
3801,C#6,590.021,19/40,78,145.51
3802,C#4,590.521,119/500,62,145.51
3803,G#4,590.521,119/500,62,145.51
3804,C#5,590.521,119/500,62,145.51
3805,C#4,590.771,119/500,62,145.51
3806,G#4,590.771,119/500,62,145.51
3807,C#5,590.771,119/500,62,145.51
3808,C#4,591.021,19/40,69,145.51
3809,G#4,591.021,19/40,69,145.51
3810,C#5,591.021,19/40,69,145.51
3811,C#4,591.521,19/40,68,145.51
3812,G#4,591.521,19/40,68,145.51
3813,C#5,591.521,19/40,68,145.51
3814,E-2,592.0,2.0,67,145.51
3815,E-3,592.0,2.0,67,145.51
3816,C#4,592.021,1.0,78,145.51
3817,G4,592.021,1.0,78,145.51
3818,C#5,592.021,1.0,78,145.51
3819,C4,593.021,1.0,71,145.51
3820,G4,593.021,1.0,71,145.51
3821,C5,593.021,1.0,71,145.51
3822,E-1,594.0,2.0,66,145.51
3823,E-2,594.0,2.0,66,145.51
3824,C5,594.021,19/40,78,145.51
3825,G5,594.021,19/40,78,145.51
3826,C6,594.021,19/40,78,145.51
3827,C4,594.521,119/500,62,145.51
3828,G4,594.521,119/500,62,145.51
3829,C5,594.521,119/500,62,145.51
3830,C4,594.771,119/500,62,145.51
3831,G4,594.771,119/500,62,145.51
3832,C5,594.771,119/500,62,145.51
3833,C4,595.021,19/40,69,145.51
3834,G4,595.021,19/40,69,145.51
3835,C5,595.021,19/40,69,145.51
3836,C4,595.521,19/40,68,145.51
3837,G4,595.521,19/40,68,145.51
3838,C5,595.521,19/40,68,145.51
3839,C#3,596.0,0.75,67,145.51
3840,C#4,596.0,0.75,67,145.51
3841,C4,596.021,1.0,78,145.51
3842,F4,596.021,1.0,78,145.51
3843,C5,596.021,1.0,78,145.51
3844,C#2,596.75,119/500,60,145.51
3845,C#3,596.75,119/500,60,145.51
3846,C#2,597.0,1.0,67,145.51
3847,C#3,597.0,1.0,67,145.51
3848,B-3,597.021,1.0,71,145.51
3849,F4,597.021,1.0,71,145.51
3850,B-4,597.021,1.0,71,145.51
3851,C3,598.0,0.75,70,145.51
3852,C4,598.0,0.75,70,145.51
3853,B-4,598.021,1.0,81,145.51
3854,E-5,598.021,1.0,81,145.51
3855,B-5,598.021,1.0,81,145.51
3856,C2,598.75,119/500,63,145.51
3857,C3,598.75,119/500,63,145.51
3858,C2,599.0,1.0,70,145.51
3859,C3,599.0,1.0,70,145.51
3860,G#4,599.021,1.0,75,145.51
3861,E-5,599.021,1.0,75,145.51
3862,G#5,599.021,1.0,75,145.51
3863,B-2,600.0,0.75,70,145.51
3864,B-3,600.0,0.75,70,145.51
3865,G#3,600.021,1.0,81,145.51
3866,D4,600.021,1.0,81,145.51
3867,G#4,600.021,1.0,81,145.51
3868,B-1,600.75,119/500,63,145.51
3869,B-2,600.75,119/500,63,145.51
3870,B-1,601.0,1.0,70,145.51
3871,B-2,601.0,1.0,70,145.51
3872,G3,601.021,1.0,75,145.51
3873,D4,601.021,1.0,75,145.51
3874,G4,601.021,1.0,75,145.51
3875,G#2,602.0,0.75,73,145.51
3876,G#3,602.0,0.75,73,145.51
3877,G4,602.021,1.0,85,145.51
3878,C5,602.021,1.0,85,145.51
3879,G5,602.021,1.0,85,145.51
3880,G#1,602.75,119/500,65,145.51
3881,G#2,602.75,119/500,65,145.51
3882,G#1,603.0,1.0,73,145.51
3883,G#2,603.0,1.0,73,145.51
3884,F#4,603.021,1.0,78,145.51
3885,C5,603.021,1.0,78,145.51
3886,F#5,603.021,1.0,78,145.51
3887,G1,604.0,1.0,75,145.51
3888,G2,604.0,1.0,75,145.51
3889,G4,604.021,0.25,73,145.51
3890,G5,604.021,0.25,73,145.51
3891,A5,604.271,0.25,74,145.51
3892,G5,604.521,0.25,75,145.51
3893,A5,604.771,0.25,76,145.51
3894,G4,605.0,0.25,70,145.51
3895,G3,605.0,0.25,70,145.51
3896,B5,605.021,0.25,77,145.51
3897,C6,605.271,0.25,78,145.51
3898,G3,605.5,0.25,70,145.51
3899,G4,605.5,0.25,70,145.51
3900,B5,605.521,0.25,79,145.51
3901,C6,605.771,0.25,80,145.51
3902,G4,606.0,99/100,73,145.51
3903,G3,606.0,99/100,73,145.51
3904,D6,606.021,0.25,81,145.51
3905,E-6,606.271,0.25,82,145.51
3906,D6,606.521,0.25,84,145.51
3907,E-6,606.771,0.25,85,145.51
3908,G4,607.0,0.25,70,145.51
3909,G3,607.0,0.25,70,145.51
3910,F6,607.021,0.25,86,145.51
3911,G6,607.271,0.25,87,145.51
3912,G4,607.5,0.5,70,145.51
3913,G3,607.5,0.5,70,145.51
3914,F6,607.521,0.25,88,145.51
3915,G6,607.771,0.25,89,145.51
3916,G4,608.0,0.5,70,145.51
3917,G3,608.0,0.5,70,145.51
3918,G#5,608.021,2.0,90,145.51
3919,G#6,608.021,2.0,90,145.51
3920,F3,608.5,0.188,70,145.51
3921,F4,608.5,0.188,70,145.51
3922,E3,608.75,0.188,70,145.51
3923,E4,608.75,0.188,70,145.51
3924,F3,609.0,0.25,73,145.51
3925,F4,609.0,0.25,73,145.51
3926,F2,609.5,0.375,67,145.51
3927,F3,609.5,0.375,67,145.51
3928,G#2,610.0,0.375,68,145.51
3929,G#3,610.0,0.375,68,145.51
3930,G#4,610.021,2.0,77,145.51
3931,G#5,610.021,2.0,77,145.51
3932,C3,610.5,0.375,68,145.51
3933,C4,610.5,0.375,68,145.51
3934,D3,611.0,0.375,68,145.51
3935,D4,611.0,0.375,68,145.51
3936,E3,611.5,0.375,68,145.51
3937,E4,611.5,0.375,68,145.51
3938,F3,612.0,99/100,75,145.51
3939,F4,612.0,99/100,75,145.51
3940,F5,612.021,0.25,73,145.51
3941,G5,612.271,0.25,74,145.51
3942,F5,612.521,0.25,75,145.51
3943,G5,612.771,0.25,76,145.51
3944,F4,613.0,0.25,70,145.51
3945,F3,613.0,0.25,70,145.51
3946,G#5,613.021,0.25,77,145.51
3947,B-5,613.271,0.25,78,145.51
3948,F3,613.5,0.25,70,145.51
3949,F4,613.5,0.25,70,145.51
3950,G#5,613.521,0.25,79,145.51
3951,B-5,613.771,0.25,80,145.51
3952,F4,614.0,99/100,73,145.51
3953,F3,614.0,99/100,73,145.51
3954,C6,614.021,0.25,81,145.51
3955,D6,614.271,0.25,82,145.51
3956,C6,614.521,0.25,84,145.51
3957,D6,614.771,0.25,85,145.51
3958,F4,615.0,0.25,70,145.51
3959,F3,615.0,0.25,70,145.51
3960,E-6,615.021,0.25,86,145.51
3961,F6,615.271,0.25,87,145.51
3962,F4,615.5,0.5,70,145.51
3963,F3,615.5,0.5,70,145.51
3964,E-6,615.521,0.25,88,145.51
3965,F6,615.771,0.25,89,145.51
3966,F4,616.0,0.5,70,145.51
3967,F3,616.0,0.5,70,145.51
3968,G5,616.021,2.0,90,145.51
3969,G6,616.021,2.0,90,145.51
3970,E-3,616.5,0.188,70,145.51
3971,E-4,616.5,0.188,70,145.51
3972,D3,616.75,0.188,70,145.51
3973,D4,616.75,0.188,70,145.51
3974,E-3,617.0,0.25,73,145.51
3975,E-4,617.0,0.25,73,145.51
3976,E-2,617.5,0.375,67,145.51
3977,E-3,617.5,0.375,67,145.51
3978,G2,618.0,0.375,68,145.51
3979,G3,618.0,0.375,68,145.51
3980,G4,618.021,2.0,77,145.51
3981,G5,618.021,2.0,77,145.51
3982,B-2,618.5,0.375,68,145.51
3983,B-3,618.5,0.375,68,145.51
3984,C3,619.0,0.375,68,145.51
3985,C4,619.0,0.375,68,145.51
3986,D3,619.5,0.375,68,145.51
3987,D4,619.5,0.375,68,145.51
3988,E-3,620.0,99/100,75,145.51
3989,E-4,620.0,99/100,75,145.51
3990,E-5,620.021,0.25,73,145.51
3991,F5,620.271,0.25,74,145.51
3992,E-5,620.521,0.25,75,145.51
3993,F5,620.771,0.25,76,145.51
3994,E-4,621.0,0.25,70,145.51
3995,E-3,621.0,0.25,70,145.51
3996,G5,621.021,0.25,77,145.51
3997,G#5,621.271,0.25,78,145.51
3998,E-3,621.5,0.25,70,145.51
3999,E-4,621.5,0.25,70,145.51
4000,G5,621.521,0.25,79,145.51
4001,G#5,621.771,0.25,80,145.51
4002,E-4,622.0,99/100,73,145.51
4003,E-3,622.0,99/100,73,145.51
4004,B-5,622.021,0.25,81,145.51
4005,C6,622.271,0.25,82,145.51
4006,B-5,622.521,0.25,84,145.51
4007,C6,622.771,0.25,85,145.51
4008,E-4,623.0,0.25,70,145.51
4009,E-3,623.0,0.25,70,145.51
4010,D6,623.021,0.25,86,145.51
4011,E-6,623.271,0.25,87,145.51
4012,E-4,623.5,0.5,70,145.51
4013,E-3,623.5,0.5,70,145.51
4014,D6,623.521,0.25,88,145.51
4015,E-6,623.771,0.25,89,145.51
4016,E-4,624.0,0.5,70,145.51
4017,E-3,624.0,0.5,70,145.51
4018,F5,624.021,2.0,90,145.51
4019,F6,624.021,2.0,90,145.51
4020,C#3,624.5,0.188,70,145.51
4021,C#4,624.5,0.188,70,145.51
4022,C3,624.75,0.188,70,145.51
4023,C4,624.75,0.188,70,145.51
4024,C#3,625.0,0.25,73,145.51
4025,C#4,625.0,0.25,73,145.51
4026,C#3,625.5,0.375,67,145.51
4027,C#4,625.5,0.375,67,145.51
4028,G#2,626.0,0.375,68,145.51
4029,G#3,626.0,0.375,68,145.51
4030,F4,626.021,2.0,77,145.51
4031,F5,626.021,2.0,77,145.51
4032,F2,626.5,0.375,68,145.51
4033,F3,626.5,0.375,68,145.51
4034,G#2,627.0,0.375,68,145.51
4035,G#3,627.0,0.375,68,145.51
4036,C#3,627.5,0.5,68,145.51
4037,C#4,627.5,0.5,68,145.51
4038,C#3,628.0,0.5,68,145.51
4039,C#4,628.0,0.5,68,145.51
4040,E-5,628.021,2.0,90,145.51
4041,E-6,628.021,2.0,90,145.51
4042,C3,628.5,0.188,70,145.51
4043,C4,628.5,0.188,70,145.51
4044,B2,628.75,0.188,70,145.51
4045,B3,628.75,0.188,70,145.51
4046,C3,629.0,0.25,73,145.51
4047,C4,629.0,0.25,73,145.51
4048,C3,629.5,0.375,67,145.51
4049,C4,629.5,0.375,67,145.51
4050,G2,630.0,0.375,68,145.51
4051,G3,630.0,0.375,68,145.51
4052,E-4,630.021,2.0,77,145.51
4053,E-5,630.021,2.0,77,145.51
4054,E-2,630.5,0.375,68,145.51
4055,E-3,630.5,0.375,68,145.51
4056,G2,631.0,0.375,68,145.51
4057,G3,631.0,0.375,68,145.51
4058,C3,631.5,0.5,68,145.51
4059,C4,631.5,0.5,68,145.51
4060,C3,632.0,0.5,68,145.51
4061,C4,632.0,0.5,68,145.51
4062,C#5,632.021,0.75,83,145.51
4063,C#6,632.021,0.75,83,145.51
4064,B-2,632.5,0.188,56,145.51
4065,B-3,632.5,0.188,56,145.51
4066,A2,632.75,0.188,58,145.51
4067,A3,632.75,0.188,58,145.51
4068,C#4,632.771,119/500,73,145.51
4069,C#5,632.771,119/500,73,145.51
4070,B-2,633.0,0.25,64,145.51
4071,B-3,633.0,0.25,64,145.51
4072,C#4,633.021,1.0,73,145.51
4073,C#5,633.021,1.0,73,145.51
4074,B-1,633.5,0.375,56,145.51
4075,B-2,633.5,0.375,56,145.51
4076,B-2,634.0,0.25,68,145.51
4077,B-3,634.0,0.25,68,145.51
4078,C5,634.021,0.75,83,145.51
4079,C6,634.021,0.75,83,145.51
4080,G#2,634.5,0.188,56,145.51
4081,G#3,634.5,0.188,56,145.51
4082,G2,634.75,0.188,58,145.51
4083,G3,634.75,0.188,58,145.51
4084,C4,634.771,119/500,73,145.51
4085,C5,634.771,119/500,73,145.51
4086,G#2,635.0,0.25,64,145.51
4087,G#3,635.0,0.25,64,145.51
4088,C4,635.021,1.0,73,145.51
4089,C5,635.021,1.0,73,145.51
4090,G#1,635.5,0.375,56,145.51
4091,G#2,635.5,0.375,56,145.51
4092,G#2,636.0,0.25,68,145.51
4093,G#3,636.0,0.25,68,145.51
4094,B-4,636.021,0.75,83,145.51
4095,B-5,636.021,0.75,83,145.51
4096,G2,636.5,0.188,56,145.51
4097,G3,636.5,0.188,56,145.51
4098,F#2,636.75,0.188,58,145.51
4099,F#3,636.75,0.188,58,145.51
4100,B-3,636.771,119/500,73,145.51
4101,B-4,636.771,119/500,73,145.51
4102,G2,637.0,0.25,64,145.51
4103,G3,637.0,0.25,64,145.51
4104,B-3,637.021,1.0,73,145.51
4105,B-4,637.021,1.0,73,145.51
4106,G1,637.5,0.375,56,145.51
4107,G2,637.5,0.375,56,145.51
4108,G2,638.0,0.25,68,145.51
4109,G3,638.0,0.25,68,145.51
4110,E-5,638.021,93/125,80,145.51
4111,C5,638.021,93/125,80,145.51
4112,G#4,638.021,93/125,80,145.51
4113,G#5,638.021,93/125,80,145.51
4114,F2,638.5,0.188,56,145.51
4115,F3,638.5,0.188,56,145.51
4116,E2,638.75,0.188,58,145.51
4117,E3,638.75,0.188,58,145.51
4118,E-4,638.771,119/500,70,145.51
4119,C4,638.771,119/500,70,145.51
4120,G#3,638.771,119/500,70,145.51
4121,G#4,638.771,119/500,70,145.51
4122,F2,639.0,0.25,64,145.51
4123,F3,639.0,0.25,64,145.51
4124,E-4,639.021,1.0,70,145.51
4125,C4,639.021,1.0,70,145.51
4126,G#3,639.021,1.0,70,145.51
4127,G#4,639.021,1.0,70,145.51
4128,F#2,639.5,0.25,66,145.51
4129,F#3,639.5,0.25,66,145.51
4130,G2,640.0,99/100,61,145.51
4131,B2,640.0,99/100,61,145.51
4132,D3,640.0,99/100,61,145.51
4133,G3,640.0,99/100,61,145.51
4134,B3,640.021,1.0,78,145.51
4135,D4,640.021,1.0,78,145.51
4136,G4,640.021,1.0,78,145.51
4137,G2,641.0,19/40,58,145.51
4138,B2,641.0,19/40,58,145.51
4139,D3,641.0,19/40,58,145.51
4140,G3,641.0,19/40,58,145.51
4141,D4,641.021,0.188,72,145.51
4142,D5,641.021,0.188,72,145.51
4143,E-4,641.271,0.188,74,145.51
4144,E-5,641.271,0.188,74,145.51
4145,G2,641.5,19/40,58,145.51
4146,B2,641.5,19/40,58,145.51
4147,D3,641.5,19/40,58,145.51
4148,G3,641.5,19/40,58,145.51
4149,F4,641.521,0.188,76,145.51
4150,F5,641.521,0.188,76,145.51
4151,G4,641.771,0.188,79,145.51
4152,G5,641.771,0.188,79,145.51
4153,C2,642.0,99/100,61,145.51
4154,E-2,642.0,99/100,61,145.51
4155,G#2,642.0,99/100,61,145.51
4156,C3,642.0,99/100,61,145.51
4157,G#4,642.021,99/100,81,145.51
4158,G#5,642.021,99/100,81,145.51
4159,C2,643.0,0.188,62,145.51
4160,C3,643.0,0.188,62,145.51
4161,C5,643.021,0.5,72,145.51
4162,E-5,643.021,0.5,72,145.51
4163,G#5,643.021,0.5,72,145.51
4164,D2,643.25,0.188,66,145.51
4165,D3,643.25,0.188,66,145.51
4166,E-2,643.5,0.188,69,145.51
4167,E-3,643.5,0.188,69,145.51
4168,C5,643.521,0.5,70,145.51
4169,E-5,643.521,0.5,70,145.51
4170,G#5,643.521,0.5,70,145.51
4171,F2,643.75,0.188,72,145.51
4172,F3,643.75,0.188,72,145.51
4173,G2,644.0,99/100,64,145.51
4174,G3,644.0,99/100,64,145.51
4175,B4,644.021,99/100,78,145.51
4176,D5,644.021,99/100,78,145.51
4177,G5,644.021,99/100,78,145.51
4178,G3,645.0,19/40,58,145.51
4179,B3,645.0,19/40,58,145.51
4180,D4,645.0,19/40,58,145.51
4181,G4,645.0,19/40,58,145.51
4182,D5,645.021,0.188,72,145.51
4183,D6,645.021,0.188,72,145.51
4184,E-5,645.271,0.188,74,145.51
4185,E-6,645.271,0.188,74,145.51
4186,G3,645.5,19/40,58,145.51
4187,B3,645.5,19/40,58,145.51
4188,D4,645.5,19/40,58,145.51
4189,G4,645.5,19/40,58,145.51
4190,F5,645.521,0.188,76,145.51
4191,F6,645.521,0.188,76,145.51
4192,G5,645.771,0.188,79,145.51
4193,G6,645.771,0.188,79,145.51
4194,C3,646.0,1.0,61,145.51
4195,E-3,646.0,1.0,61,145.51
4196,G#3,646.0,1.0,61,145.51
4197,C4,646.0,1.0,61,145.51
4198,G#5,646.021,1.0,81,145.51
4199,G#6,646.021,1.0,81,145.51
4200,C3,647.0,0.188,62,145.51
4201,C4,647.0,0.188,62,145.51
4202,C6,647.021,0.5,72,145.51
4203,E-6,647.021,0.5,72,145.51
4204,G#6,647.021,0.5,72,145.51
4205,D3,647.25,0.188,66,145.51
4206,D4,647.25,0.188,66,145.51
4207,E-3,647.5,0.188,69,145.51
4208,E-4,647.5,0.188,69,145.51
4209,C6,647.521,0.5,70,145.51
4210,E-6,647.521,0.5,70,145.51
4211,G#6,647.521,0.5,70,145.51
4212,F3,647.75,0.188,72,145.51
4213,F4,647.75,0.188,72,145.51
4214,G3,648.0,1.0,58,145.51
4215,B3,648.0,1.0,58,145.51
4216,D4,648.0,1.0,58,145.51
4217,G4,648.0,1.0,58,145.51
4218,D5,648.021,0.188,72,145.51
4219,D6,648.021,0.188,72,145.51
4220,E-5,648.271,0.188,74,145.51
4221,E-6,648.271,0.188,74,145.51
4222,F5,648.521,0.188,76,145.51
4223,F6,648.521,0.188,76,145.51
4224,G5,648.771,0.188,79,145.51
4225,G6,648.771,0.188,79,145.51
4226,C3,649.0,0.188,62,145.51
4227,C4,649.0,0.188,62,145.51
4228,E-6,649.021,1.0,78,145.51
4229,C6,649.021,1.0,78,145.51
4230,G#5,649.021,1.0,78,145.51
4231,G#6,649.021,1.0,78,145.51
4232,D3,649.25,0.188,66,145.51
4233,D4,649.25,0.188,66,145.51
4234,E-3,649.5,0.188,69,145.51
4235,E-4,649.5,0.188,69,145.51
4236,F3,649.75,0.188,72,145.51
4237,F4,649.75,0.188,72,145.51
4238,G3,650.0,1.0,58,145.51
4239,B3,650.0,1.0,58,145.51
4240,D4,650.0,1.0,58,145.51
4241,G4,650.0,1.0,58,145.51
4242,D5,650.021,0.188,72,145.51
4243,D6,650.021,0.188,72,145.51
4244,E-5,650.271,0.188,74,145.51
4245,E-6,650.271,0.188,74,145.51
4246,F5,650.521,0.188,76,145.51
4247,F6,650.521,0.188,76,145.51
4248,G5,650.771,0.188,79,145.51
4249,G6,650.771,0.188,79,145.51
4250,C3,651.0,0.188,62,145.51
4251,C4,651.0,0.188,62,145.51
4252,E-6,651.021,1.0,78,145.51
4253,C6,651.021,1.0,78,145.51
4254,G#5,651.021,1.0,78,145.51
4255,G#6,651.021,1.0,78,145.51
4256,D3,651.25,0.188,66,145.51
4257,D4,651.25,0.188,66,145.51
4258,E-3,651.5,0.188,69,145.51
4259,E-4,651.5,0.188,69,145.51
4260,F3,651.75,0.188,72,145.51
4261,F4,651.75,0.188,72,145.51
4262,G3,652.0,1.0,58,145.51
4263,B3,652.0,1.0,58,145.51
4264,D4,652.0,1.0,58,145.51
4265,G4,652.0,1.0,58,145.51
4266,D5,652.021,0.188,78,145.51
4267,E-5,652.271,0.188,80,145.51
4268,F5,652.521,0.188,82,145.51
4269,G5,652.771,0.188,87,145.51
4270,C2,653.0,0.188,64,145.51
4271,C3,653.0,0.188,64,145.51
4272,E-5,653.021,1.0,80,145.51
4273,C5,653.021,1.0,80,145.51
4274,G#4,653.021,1.0,80,145.51
4275,G#5,653.021,1.0,80,145.51
4276,D2,653.25,0.188,68,145.51
4277,D3,653.25,0.188,68,145.51
4278,E-2,653.5,0.188,72,145.51
4279,E-3,653.5,0.188,72,145.51
4280,F2,653.75,0.188,76,145.51
4281,F3,653.75,0.188,76,145.51
4282,G2,654.0,1.0,61,145.51
4283,B2,654.0,1.0,61,145.51
4284,D3,654.0,1.0,61,145.51
4285,G3,654.0,1.0,61,145.51
4286,D4,654.021,0.188,77,145.51
4287,D5,654.021,0.188,77,145.51
4288,E-4,654.271,0.188,80,145.51
4289,E-5,654.271,0.188,80,145.51
4290,F4,654.521,0.188,83,145.51
4291,F5,654.521,0.188,83,145.51
4292,G4,654.771,0.188,86,145.51
4293,G5,654.771,0.188,86,145.51
4294,C2,655.0,0.188,70,145.51
4295,C3,655.0,0.188,70,145.51
4296,E-5,655.021,1.0,85,145.51
4297,C5,655.021,1.0,85,145.51
4298,G#4,655.021,1.0,85,145.51
4299,G#5,655.021,1.0,85,145.51
4300,D2,655.25,0.188,74,145.51
4301,D3,655.25,0.188,74,145.51
4302,E-2,655.5,0.188,78,145.51
4303,E-3,655.5,0.188,78,145.51
4304,F2,655.75,0.188,82,145.51
4305,F3,655.75,0.188,82,145.51
4306,G2,656.0,99/100,62,145.51
4307,B2,656.0,99/100,62,145.51
4308,D3,656.0,99/100,62,145.51
4309,G3,656.0,99/100,62,145.51
4310,G4,656.021,99/100,84,145.51
4311,B4,656.021,99/100,84,145.51
4312,D5,656.021,99/100,84,145.51
4313,G5,656.021,99/100,84,145.51
4314,G4,657.021,0.25,50,145.51
4315,G4,657.521,0.25,51,145.51
4316,G4,658.021,99/100,53,145.51
4317,G4,659.021,0.25,50,145.51
4318,G4,659.521,0.25,50,145.51
4319,G4,660.021,99/100,53,145.51
4320,G4,661.021,0.25,50,145.51
4321,G4,661.521,0.25,50,145.51
4322,G4,662.021,99/100,53,145.51
4323,G4,663.021,0.25,49,145.51
4324,G4,663.521,0.25,49,145.51
4325,F2,664.0,99/100,62,145.51
4326,B2,664.0,99/100,62,145.51
4327,D3,664.0,99/100,62,145.51
4328,F3,664.0,99/100,62,145.51
4329,G#4,664.021,99/100,84,145.51
4330,B4,664.021,99/100,84,145.51
4331,D5,664.021,99/100,84,145.51
4332,G#5,664.021,99/100,84,145.51
4333,G#4,665.021,0.25,51,145.51
4334,G#4,665.521,0.25,52,145.51
4335,G#4,666.021,99/100,53,145.51
4336,G#4,667.021,0.125,45,145.51
4337,B4,667.021,0.125,45,145.51
4338,G#4,667.521,0.125,46,145.51
4339,B4,667.521,0.125,46,145.51
4340,G#4,668.021,99/100,49,145.51
4341,B4,668.021,99/100,49,145.51
4342,G#4,669.021,0.125,44,145.51
4343,B4,669.021,0.125,44,145.51
4344,G#4,669.521,0.125,44,145.51
4345,B4,669.521,0.125,44,145.51
4346,G#4,670.021,99/100,49,145.51
4347,B4,670.021,99/100,49,145.51
4348,G#4,671.021,0.125,44,145.51
4349,B4,671.021,0.125,44,145.51
4350,G#4,671.521,0.125,44,145.51
4351,B4,671.521,0.125,44,145.51
4352,F2,672.0,99/100,62,145.51
4353,B2,672.0,99/100,62,145.51
4354,C#3,672.0,99/100,62,145.51
4355,F3,672.0,99/100,62,145.51
4356,G#4,672.021,99/100,84,145.51
4357,B4,672.021,99/100,84,145.51
4358,C#5,672.021,99/100,84,145.51
4359,G#5,672.021,99/100,84,145.51
4360,G#4,673.021,0.125,45,145.51
4361,B4,673.021,0.125,45,145.51
4362,G#4,673.521,0.125,45,145.51
4363,B4,673.521,0.125,45,145.51
4364,G#4,674.021,99/100,48,145.51
4365,B4,674.021,99/100,48,145.51
4366,C#5,674.021,99/100,48,145.51
4367,G#4,675.021,0.125,43,145.51
4368,B4,675.021,0.125,43,145.51
4369,C#5,675.021,0.125,43,145.51
4370,G#4,675.521,0.125,43,145.51
4371,B4,675.521,0.125,43,145.51
4372,C#5,675.521,0.125,43,145.51
4373,F#2,676.0,99/100,62,145.51
4374,B2,676.0,99/100,62,145.51
4375,D3,676.0,99/100,62,145.51
4376,F#3,676.0,99/100,62,145.51
4377,G#4,676.021,99/100,84,145.51
4378,B4,676.021,99/100,84,145.51
4379,D5,676.021,99/100,84,145.51
4380,G#5,676.021,99/100,84,145.51
4381,G#4,677.021,0.125,45,145.51
4382,B4,677.021,0.125,45,145.51
4383,G#4,677.521,0.125,45,145.51
4384,B4,677.521,0.125,45,145.51
4385,G#4,678.021,99/100,48,145.51
4386,B4,678.021,99/100,48,145.51
4387,D5,678.021,99/100,48,145.51
4388,G#4,679.021,0.125,44,145.51
4389,B4,679.021,0.125,44,145.51
4390,D5,679.021,0.125,44,145.51
4391,G#4,679.521,0.125,44,145.51
4392,B4,679.521,0.125,44,145.51
4393,D5,679.521,0.125,44,145.51
4394,F2,680.0,99/100,62,145.51
4395,G#2,680.0,99/100,62,145.51
4396,C#3,680.0,99/100,62,145.51
4397,F3,680.0,99/100,62,145.51
4398,G#4,680.021,99/100,84,145.51
4399,B4,680.021,99/100,84,145.51
4400,C#5,680.021,99/100,84,145.51
4401,G#5,680.021,99/100,84,145.51
4402,G#4,681.021,0.125,38,145.51
4403,B4,681.021,0.125,38,145.51
4404,G#4,681.521,0.125,38,145.51
4405,B4,681.521,0.125,38,145.51
4406,G#4,682.021,99/100,42,145.51
4407,B4,682.021,99/100,42,145.51
4408,C#5,682.021,99/100,42,145.51
4409,G#4,683.021,0.125,37,145.51
4410,B4,683.021,0.125,37,145.51
4411,C#5,683.021,0.125,37,145.51
4412,G#4,683.521,0.125,37,145.51
4413,B4,683.521,0.125,37,145.51
4414,C#5,683.521,0.125,37,145.51
4415,F#2,684.0,99/100,62,145.51
4416,B2,684.0,99/100,62,145.51
4417,D3,684.0,99/100,62,145.51
4418,F#3,684.0,99/100,62,145.51
4419,G#4,684.021,99/100,84,145.51
4420,B4,684.021,99/100,84,145.51
4421,D5,684.021,99/100,84,145.51
4422,G#5,684.021,99/100,84,145.51
4423,G#4,685.021,0.125,40,145.51
4424,B4,685.021,0.125,40,145.51
4425,G#4,685.521,0.125,40,145.51
4426,B4,685.521,0.125,40,145.51
4427,G#4,686.021,99/100,41,145.51
4428,B4,686.021,99/100,41,145.51
4429,D5,686.021,99/100,41,145.51
4430,G#4,687.021,0.125,36,145.51
4431,B4,687.021,0.125,36,145.51
4432,D5,687.021,0.125,36,145.51
4433,G#4,687.521,0.125,36,145.51
4434,B4,687.521,0.125,36,145.51
4435,D5,687.521,0.125,36,145.51
4436,F2,688.0,99/100,62,145.51
4437,B2,688.0,99/100,62,145.51
4438,D3,688.0,99/100,62,145.51
4439,F3,688.0,99/100,62,145.51
4440,G#4,688.021,99/100,84,145.51
4441,B4,688.021,99/100,84,145.51
4442,D5,688.021,99/100,84,145.51
4443,G#5,688.021,99/100,84,145.51
4444,B4,689.021,0.125,48,145.51
4445,D5,689.021,0.125,48,145.51
4446,B4,689.521,0.125,48,145.51
4447,D5,689.521,0.125,48,145.51
4448,F1,690.0,99/100,66,145.51
4449,F2,690.0,99/100,66,145.51
4450,G#4,690.021,99/100,84,145.51
4451,B4,690.021,99/100,84,145.51
4452,C#5,690.021,99/100,84,145.51
4453,G#5,690.021,99/100,84,145.51
4454,B4,691.021,0.125,48,145.51
4455,C#5,691.021,0.125,48,145.51
4456,B4,691.521,0.125,48,145.51
4457,C#5,691.521,0.125,48,145.51
4458,F#1,692.0,99/100,58,145.51
4459,F#2,692.0,99/100,58,145.51
4460,G#4,692.021,99/100,74,145.51
4461,B4,692.021,99/100,74,145.51
4462,C#5,692.021,99/100,74,145.51
4463,G#5,692.021,99/100,74,145.51
4464,B4,693.021,0.125,48,145.51
4465,C#5,693.021,0.125,48,145.51
4466,B4,693.521,0.125,48,145.51
4467,C#5,693.521,0.125,48,145.51
4468,A1,694.0,99/100,54,145.51
4469,A2,694.0,99/100,54,145.51
4470,F#4,694.021,99/100,68,145.51
4471,A4,694.021,99/100,68,145.51
4472,C#5,694.021,99/100,68,145.51
4473,F#5,694.021,99/100,68,145.51
4474,A4,695.021,0.125,48,145.51
4475,C#5,695.021,0.125,48,145.51
4476,A4,695.521,0.125,48,145.51
4477,C#5,695.521,0.125,48,145.51
4478,C#2,696.0,99/100,52,145.51
4479,C#3,696.0,99/100,52,145.51
4480,F#4,696.021,99/100,66,145.51
4481,G#4,696.021,99/100,66,145.51
4482,C#5,696.021,99/100,66,145.51
4483,F#5,696.021,99/100,66,145.51
4484,F#4,697.021,0.125,48,145.51
4485,G#4,697.021,0.125,48,145.51
4486,F#4,697.521,0.125,48,145.51
4487,G#4,697.521,0.125,48,145.51
4488,E2,698.0,99/100,50,145.51
4489,E3,698.0,99/100,50,145.51
4490,E4,698.021,99/100,64,145.51
4491,G#4,698.021,99/100,64,145.51
4492,C#5,698.021,99/100,64,145.51
4493,E5,698.021,99/100,64,145.51
4494,E4,699.021,0.125,48,145.51
4495,G#4,699.021,0.125,48,145.51
4496,E4,699.521,0.125,48,145.51
4497,G#4,699.521,0.125,48,145.51
4498,G#2,700.0,99/100,48,145.51
4499,G#3,700.0,99/100,48,145.51
4500,E-4,700.021,99/100,62,145.51
4501,G#4,700.021,99/100,62,145.51
4502,C5,700.021,99/100,62,145.51
4503,E-5,700.021,99/100,62,145.51
4504,E-4,701.021,0.125,48,145.51
4505,C5,701.021,0.125,48,145.51
4506,E-4,701.521,0.125,48,145.51
4507,C5,701.521,0.125,48,145.51
4508,A2,702.0,99/100,52,145.51
4509,A3,702.0,99/100,52,145.51
4510,E-4,702.021,99/100,65,145.51
4511,G4,702.021,99/100,65,145.51
4512,C#5,702.021,99/100,65,145.51
4513,E-5,702.021,99/100,65,145.51
4514,E-4,703.021,0.125,48,145.51
4515,C#5,703.021,0.125,48,145.51
4516,E-4,703.521,0.125,48,145.51
4517,C#5,703.521,0.125,48,145.51
4518,G#2,704.0,99/100,48,145.51
4519,G#3,704.0,99/100,48,145.51
4520,E-4,704.021,99/100,62,145.51
4521,G#4,704.021,99/100,62,145.51
4522,C5,704.021,99/100,62,145.51
4523,E-5,704.021,99/100,62,145.51
4524,C4,705.021,0.125,35,145.51
4525,E-4,705.021,0.125,35,145.51
4526,C4,705.521,0.125,34,145.51
4527,E-4,705.521,0.125,34,145.51
4528,C4,706.021,99/100,42,145.51
4529,E-4,706.021,99/100,42,145.51
4530,G#1,707.0,0.25,32,145.51
4531,C4,707.021,0.125,34,145.51
4532,E-4,707.021,0.125,34,145.51
4533,C2,707.25,0.25,35,145.51
4534,E-2,707.5,0.25,38,145.51
4535,C4,707.521,0.125,34,145.51
4536,E-4,707.521,0.125,34,145.51
4537,G#2,707.75,0.25,41,145.51
4538,A2,708.0,0.5,44,145.51
4539,C#4,708.021,99/100,42,145.51
4540,E-4,708.021,99/100,42,145.51
4541,C#4,709.021,0.125,31,145.51
4542,E-4,709.021,0.125,31,145.51
4543,C#4,709.521,0.125,30,145.51
4544,E-4,709.521,0.125,30,145.51
4545,C#4,710.021,99/100,36,145.51
4546,E-4,710.021,99/100,36,145.51
4547,G1,711.0,0.25,27,145.51
4548,C#4,711.021,0.125,30,145.51
4549,E-4,711.021,0.125,30,145.51
4550,B-1,711.25,0.25,29,145.51
4551,E-2,711.5,0.25,31,145.51
4552,C#4,711.521,0.125,30,145.51
4553,E-4,711.521,0.125,30,145.51
4554,G2,711.75,0.25,34,145.51
4555,G#2,712.0,0.5,33,145.51
4556,C4,712.021,99/100,31,145.51
4557,E-4,712.021,99/100,31,145.51
4558,C4,713.021,0.125,26,145.51
4559,E-4,713.021,0.125,26,145.51
4560,C4,713.521,0.125,25,145.51
4561,E-4,713.521,0.125,25,145.51
4562,C4,714.021,99/100,31,145.51
4563,E-4,714.021,99/100,31,145.51
4564,G#1,715.0,0.25,24,145.51
4565,C4,715.021,0.125,25,145.51
4566,E-4,715.021,0.125,25,145.51
4567,C2,715.25,0.25,26,145.51
4568,E-2,715.5,0.25,28,145.51
4569,C4,715.521,0.125,25,145.51
4570,E-4,715.521,0.125,25,145.51
4571,G#2,715.75,0.25,30,145.51
4572,A2,716.0,62/125,33,145.51
4573,C#4,716.021,99/100,31,145.51
4574,E-4,716.021,99/100,31,145.51
4575,C#4,717.021,0.125,24,145.51
4576,E-4,717.021,0.125,24,145.51
4577,C#4,717.521,0.125,24,145.51
4578,E-4,717.521,0.125,24,145.51
4579,C#4,718.021,99/100,30,145.51
4580,E-4,718.021,99/100,30,145.51
4581,G1,719.0,0.25,24,145.51
4582,C#4,719.021,0.125,26,145.51
4583,E-4,719.021,0.125,26,145.51
4584,B-1,719.25,0.25,26,145.51
4585,E-2,719.5,0.25,27,145.51
4586,C#4,719.521,0.125,26,145.51
4587,E-4,719.521,0.125,26,145.51
4588,G2,719.75,0.25,30,145.51
4589,G#2,720.0,62/125,33,145.51
4590,C4,720.021,99/100,31,145.51
4591,E-4,720.021,99/100,31,145.51
4592,G#3,721.021,0.25,26,145.51
4593,G#4,721.021,0.25,26,145.51
4594,G#3,721.521,0.25,26,145.51
4595,G#4,721.521,0.25,26,145.51
4596,G#3,722.021,1.0,28,145.51
4597,G#4,722.021,1.0,28,145.51
4598,G#2,723.0,0.25,26,145.51
4599,C3,723.0,0.25,26,145.51
4600,G#2,723.5,0.25,26,145.51
4601,C3,723.5,0.25,26,145.51
4602,G#2,724.0,1.0,30,145.51
4603,C3,724.0,1.0,30,145.51
4604,G#3,725.021,0.25,26,145.51
4605,G#4,725.021,0.25,26,145.51
4606,G#3,725.521,0.25,26,145.51
4607,G#4,725.521,0.25,26,145.51
4608,G#3,726.021,1.0,28,145.51
4609,G#4,726.021,1.0,28,145.51
4610,G#2,727.0,0.25,26,145.51
4611,C3,727.0,0.25,26,145.51
4612,G#2,727.5,0.25,26,145.51
4613,C3,727.5,0.25,26,145.51
4614,G#2,728.0,1.0,30,145.51
4615,C3,728.0,1.0,30,145.51
4616,G#3,729.021,0.25,26,145.51
4617,G#4,729.021,0.25,26,145.51
4618,G#3,729.521,0.25,26,145.51
4619,G#4,729.521,0.25,26,145.51
4620,G#3,730.021,1.0,28,145.51
4621,G#4,730.021,1.0,28,145.51
4622,A2,731.0,0.25,26,145.51
4623,C#3,731.0,0.25,26,145.51
4624,A2,731.5,0.25,26,145.51
4625,C#3,731.5,0.25,26,145.51
4626,A2,732.0,1.0,30,145.51
4627,C#3,732.0,1.0,30,145.51
4628,G#3,733.021,0.25,26,145.51
4629,G#4,733.021,0.25,26,145.51
4630,G#3,733.521,0.25,26,145.51
4631,G#4,733.521,0.25,26,145.51
4632,G#3,734.021,1.0,28,145.51
4633,G#4,734.021,1.0,28,145.51
4634,A2,735.0,0.25,26,145.51
4635,C#3,735.0,0.25,26,145.51
4636,A2,735.5,0.25,26,145.51
4637,C#3,735.5,0.25,26,145.51
4638,C3,736.0,1.0,30,145.51
4639,E-3,736.0,1.0,30,145.51
4640,F#4,737.021,0.25,25,145.51
4641,G#3,737.021,0.25,25,145.51
4642,G#4,737.021,0.25,25,145.51
4643,F#4,737.521,0.25,25,145.51
4644,G#3,737.521,0.25,25,145.51
4645,G#4,737.521,0.25,25,145.51
4646,F#4,738.021,1.0,28,145.51
4647,G#3,738.021,1.0,28,145.51
4648,G#4,738.021,1.0,28,145.51
4649,C3,739.0,0.25,26,145.51
4650,E-3,739.0,0.25,26,145.51
4651,C3,739.5,0.25,26,145.51
4652,E-3,739.5,0.25,26,145.51
4653,C3,740.0,1.0,30,145.51
4654,E-3,740.0,1.0,30,145.51
4655,F#4,741.021,0.25,25,145.51
4656,G#3,741.021,0.25,25,145.51
4657,G#4,741.021,0.25,25,145.51
4658,F#4,741.521,0.25,25,145.51
4659,G#3,741.521,0.25,25,145.51
4660,G#4,741.521,0.25,25,145.51
4661,C3,742.0,1.0,30,145.51
4662,E-3,742.0,1.0,30,145.51
4663,F#4,743.021,0.25,25,145.51
4664,G#3,743.021,0.25,25,145.51
4665,G#4,743.021,0.25,25,145.51
4666,F#4,743.521,0.25,25,145.51
4667,G#3,743.521,0.25,25,145.51
4668,G#4,743.521,0.25,25,145.51
4669,C3,744.0,1.0,30,145.51
4670,E-3,744.0,1.0,30,145.51
4671,F#4,745.021,1.0,24,145.51
4672,G#3,745.021,1.0,24,145.51
4673,G#4,745.021,1.0,24,145.51
4674,C3,746.0,1.0,30,145.51
4675,E-3,746.0,1.0,30,145.51
4676,F#4,747.021,1.0,23,145.51
4677,G#3,747.021,1.0,23,145.51
4678,G#4,747.021,1.0,23,145.51
4679,C3,748.0,1.0,28,145.51
4680,E-3,748.0,1.0,28,145.51
4681,F#4,749.021,1.0,22,145.51
4682,A3,749.021,1.0,22,145.51
4683,A4,749.021,1.0,22,145.51
4684,C3,750.0,1.0,27,145.51
4685,E-3,750.0,1.0,27,145.51
4686,F#4,751.021,1.0,21,145.51
4687,G#3,751.021,1.0,21,145.51
4688,G#4,751.021,1.0,21,145.51
