,note_name,start_time,duration,velocity,tempo
0,D3,3.0,0.5,33,210.88
1,B-2,3.0,1.0,27,210.88
2,F4,3.0,1.0,41,210.88
3,B-4,3.0,1.0,41,210.88
4,B-3,3.0,1.0,41,210.88
5,F3,3.5,0.5,28,210.88
6,B-2,4.0,1.0,28,210.88
7,D3,4.0,0.5,34,210.88
8,B-4,4.0,1.0,43,210.88
9,B-3,4.0,1.0,43,210.88
10,F4,4.0,1.0,43,210.88
11,F3,4.5,0.5,28,210.88
12,C3,5.0,0.5,31,210.88
13,B-2,5.0,1.0,24,210.88
14,A4,5.0,1.0,40,210.88
15,A3,5.0,1.0,40,210.88
16,F4,5.0,1.0,40,210.88
17,F3,5.5,0.5,27,210.88
18,B-2,6.0,1.0,28,210.88
19,D3,6.0,0.5,34,210.88
20,B-4,6.0,1.0,43,210.88
21,B-3,6.0,1.0,43,210.88
22,F4,6.0,1.0,43,210.88
23,F3,6.5,0.5,27,210.88
24,E-3,7.0,0.5,33,210.88
25,B-2,7.0,1.0,27,210.88
26,C5,7.0,1.0,41,210.88
27,C4,7.0,1.0,41,210.88
28,F4,7.0,1.0,41,210.88
29,F3,7.5,0.5,26,210.88
30,B-2,8.0,3.0,28,210.88
31,E3,8.0,0.5,34,210.88
32,D4,8.0,3.0,46,210.88
33,F4,8.0,3.0,46,210.88
34,D5,8.0,3.0,46,210.88
35,F3,8.5,0.25,26,210.88
36,F3,9.0,0.25,26,210.88
37,F3,9.5,0.25,26,210.88
38,F3,10.0,0.25,26,210.88
39,F3,10.5,0.25,26,210.88
40,B-2,11.0,1.0,27,210.88
41,E-3,11.0,0.5,33,210.88
42,C4,11.0,0.5,43,210.88
43,F4,11.0,0.5,43,210.88
44,C5,11.0,0.5,43,210.88
45,D3,11.5,0.5,27,210.88
46,B-3,11.5,0.5,40,210.88
47,F4,11.5,0.5,40,210.88
48,B-4,11.5,0.5,40,210.88
49,F2,12.0,1.0,26,210.88
50,E-3,12.0,0.5,31,210.88
51,C4,12.0,471/500,40,210.88
52,C5,12.0,471/500,40,210.88
53,F4,12.0,471/500,40,210.88
54,F3,12.5,0.5,25,210.88
55,E-3,13.0,0.5,29,210.88
56,F2,13.0,1.0,26,210.88
57,F4,13.0,471/500,39,210.88
58,C4,13.0,471/500,39,210.88
59,C5,13.0,471/500,39,210.88
60,F3,13.5,0.5,25,210.88
61,F2,14.0,1.0,26,210.88
62,E-3,14.0,0.5,29,210.88
63,F4,14.0,471/500,39,210.88
64,C4,14.0,471/500,39,210.88
65,C5,14.0,471/500,39,210.88
66,F3,14.5,0.5,26,210.88
67,D3,15.0,0.5,33,210.88
68,F2,15.0,1.0,27,210.88
69,F4,15.0,0.5,43,210.88
70,B-3,15.0,0.5,43,210.88
71,B-4,15.0,0.5,43,210.88
72,C3,15.5,0.5,25,210.88
73,F4,15.5,0.5,38,210.88
74,A3,15.5,0.5,38,210.88
75,A4,15.5,0.5,38,210.88
76,F4,16.0,1.0,52,210.88
77,B-2,16.0,3.0,28,210.88
78,D3,16.0,0.5,34,210.88
79,B-3,16.0,3.0,44,210.88
80,B-4,16.0,3.0,44,210.88
81,F3,16.5,0.5,30,210.88
82,E-3,17.0,0.5,33,210.88
83,E-4,17.0,1.0,46,210.88
84,G4,17.0,1.0,46,210.88
85,G3,17.5,0.5,28,210.88
86,D3,18.0,0.5,29,210.88
87,D4,18.0,1.0,40,210.88
88,F4,18.0,1.0,40,210.88
89,F3,18.5,0.5,30,210.88
90,B-4,19.0,1.0,61,210.88
91,B-2,19.0,1.0,28,210.88
92,D3,19.0,0.5,39,210.88
93,B-3,19.5,0.5,34,210.88
94,E-4,20.0,3.0,52,210.88
95,B-4,20.0,3.0,52,210.88
96,E-5,20.0,3.0,52,210.88
97,G3,20.0,3.0,33,210.88
98,B-2,20.0,3.0,33,210.88
99,B-3,20.5,0.25,32,210.88
100,B-3,21.0,0.25,33,210.88
101,B-3,21.5,0.25,30,210.88
102,B-3,22.0,0.25,34,210.88
103,B-3,22.5,0.25,31,210.88
104,B-2,23.0,1.0,27,210.88
105,F3,23.0,0.5,33,210.88
106,D4,23.0,0.5,47,210.88
107,D5,23.0,0.5,47,210.88
108,B-4,23.0,0.5,47,210.88
109,E-3,23.5,0.5,31,210.88
110,B-4,23.5,0.5,43,210.88
111,C4,23.5,0.5,43,210.88
112,C5,23.5,0.5,43,210.88
113,F3,24.0,0.5,33,210.88
114,B-2,24.0,1.0,27,210.88
115,B-4,24.0,1.0,48,210.88
116,D4,24.0,1.0,48,210.88
117,D5,24.0,1.0,48,210.88
118,D3,24.5,0.5,28,210.88
119,F2,25.0,1.0,27,210.88
120,C3,25.0,0.5,33,210.88
121,F4,25.0,1.0,43,210.88
122,A3,25.0,1.0,43,210.88
123,A4,25.0,1.0,43,210.88
124,F3,25.5,0.5,28,210.88
125,D3,26.0,0.5,33,210.88
126,F2,26.0,1.0,27,210.88
127,F4,26.0,1.0,45,210.88
128,B-3,26.0,1.0,45,210.88
129,B-4,26.0,1.0,45,210.88
130,F3,26.5,0.5,30,210.88
131,E-3,27.0,0.5,32,210.88
132,F2,27.0,1.0,27,210.88
133,F4,27.0,1.0,43,210.88
134,C5,27.0,1.0,43,210.88
135,C4,27.0,1.0,43,210.88
136,F3,27.5,0.5,29,210.88
137,D3,28.0,0.5,32,210.88
138,F2,28.0,2.0,27,210.88
139,B-4,28.0,1.0,45,210.88
140,B-3,28.0,1.0,45,210.88
141,F4,28.0,1.0,45,210.88
142,F3,28.5,0.5,29,210.88
143,D3,29.0,0.5,32,210.88
144,B-4,29.0,1.0,45,210.88
145,D5,29.0,1.0,45,210.88
146,D4,29.0,1.0,45,210.88
147,F4,29.0,1.0,45,210.88
148,B-2,29.5,0.5,29,210.88
149,F2,30.0,1.0,32,210.88
150,F4,30.0,2.0,43,210.88
151,C4,30.0,2.0,43,210.88
152,C5,30.0,2.0,43,210.88
153,A4,30.0,2.0,43,210.88
154,F1,31.5,26/125,27,210.88
155,F#1,31.667,26/125,22,210.88
156,G#1,31.833,167/1000,22,210.88
157,F#1,32.0,26/125,27,210.88
158,G#1,32.0,21/500,22,210.88
159,G#1,32.125,26/125,23,210.88
160,F#1,32.25,26/125,24,210.88
161,G#1,32.375,26/125,22,210.88
162,F#1,32.5,26/125,24,210.88
163,G#1,32.625,26/125,22,210.88
164,F#1,32.75,26/125,25,210.88
165,G#1,32.875,26/125,24,210.88
166,F#1,33.0,26/125,26,210.88
167,G#1,33.125,26/125,23,210.88
168,F#1,33.25,26/125,26,210.88
169,G#1,33.375,26/125,22,210.88
170,F#1,33.5,26/125,25,210.88
171,G#1,33.625,26/125,23,210.88
172,F#1,33.75,26/125,24,210.88
173,G#1,33.875,26/125,22,210.88
174,F#1,34.0,26/125,26,210.88
175,G#1,34.125,26/125,23,210.88
176,F#1,34.25,26/125,25,210.88
177,G#1,34.375,26/125,23,210.88
178,F#1,34.5,26/125,25,210.88
179,G#1,34.625,26/125,22,210.88
180,F#1,34.75,26/125,25,210.88
181,G#1,34.875,26/125,22,210.88
182,F#1,35.0,26/125,27,210.88
183,G#1,35.125,26/125,23,210.88
184,F#1,35.25,26/125,26,210.88
185,G#1,35.375,26/125,22,210.88
186,F1,35.5,73/250,22,210.88
187,F#1,35.75,0.25,18,210.88
188,F1,36.0,0.25,23,210.88
189,F#1,36.0,21/500,18,210.88
190,F4,36.5,4.0,43,210.88
191,C4,36.5,4.0,43,210.88
192,C5,36.5,4.0,43,210.88
193,A4,36.5,4.0,43,210.88
194,B-2,39.0,1.0,27,210.88
195,D3,39.0,0.5,33,210.88
196,F3,39.5,0.5,28,210.88
197,D3,40.0,0.5,34,210.88
198,B-2,40.0,1.0,28,210.88
199,F3,40.5,0.5,28,210.88
200,B-2,41.0,1.0,24,210.88
201,C3,41.0,0.5,31,210.88
202,F4,41.0,0.5,43,210.88
203,C4,41.0,0.5,43,210.88
204,C5,41.0,0.5,43,210.88
205,A4,41.0,0.5,43,210.88
206,F3,41.5,0.5,27,210.88
207,B-2,42.0,1.0,28,210.88
208,D3,42.0,0.5,34,210.88
209,F3,42.5,0.5,27,210.88
210,E-3,43.0,0.5,33,210.88
211,B-2,43.0,1.0,27,210.88
212,F3,43.5,0.5,26,210.88
213,E3,44.0,0.5,34,210.88
214,B-2,44.0,3.0,28,210.88
215,F4,44.0,1.0,41,210.88
216,B-3,44.0,1.0,41,210.88
217,B-4,44.0,1.0,41,210.88
218,F3,44.5,0.25,26,210.88
219,F3,45.0,0.25,26,210.88
220,F4,45.0,1.0,43,210.88
221,B-3,45.0,1.0,43,210.88
222,B-4,45.0,1.0,43,210.88
223,F3,45.5,0.25,26,210.88
224,F3,46.0,0.25,26,210.88
225,F4,46.0,1.0,40,210.88
226,A3,46.0,1.0,40,210.88
227,A4,46.0,1.0,40,210.88
228,F3,46.5,0.25,26,210.88
229,B-2,47.0,1.0,27,210.88
230,E-3,47.0,0.5,33,210.88
231,F4,47.0,1.0,43,210.88
232,B-3,47.0,1.0,43,210.88
233,B-4,47.0,1.0,43,210.88
234,D3,47.5,0.5,27,210.88
235,E-3,48.0,0.5,31,210.88
236,F2,48.0,1.0,26,210.88
237,F4,48.0,1.0,41,210.88
238,C5,48.0,1.0,41,210.88
239,C4,48.0,1.0,41,210.88
240,F3,48.5,0.5,25,210.88
241,E-3,49.0,0.5,29,210.88
242,F2,49.0,1.0,26,210.88
243,D5,49.0,3.0,46,210.88
244,D4,49.0,3.0,46,210.88
245,F4,49.0,3.0,46,210.88
246,F3,49.5,0.5,25,210.88
247,E-3,50.0,0.5,29,210.88
248,F2,50.0,1.0,26,210.88
249,F3,50.5,0.5,28,210.88
250,F2,51.0,1.0,27,210.88
251,D3,51.0,0.5,33,210.88
252,C3,51.5,0.5,25,210.88
253,B-2,52.0,3.0,28,210.88
254,D3,52.0,0.5,34,210.88
255,C5,52.0,0.5,43,210.88
256,C4,52.0,0.5,43,210.88
257,F4,52.0,0.5,43,210.88
258,F3,52.5,0.5,30,210.88
259,B-4,52.5,0.5,40,210.88
260,B-3,52.5,0.5,40,210.88
261,F4,52.5,0.5,40,210.88
262,E-3,53.0,0.5,33,210.88
263,C5,53.0,99/100,40,210.88
264,F4,53.0,99/100,40,210.88
265,C4,53.0,99/100,40,210.88
266,G3,53.5,0.5,28,210.88
267,D3,54.0,0.5,29,210.88
268,F4,54.0,99/100,39,210.88
269,C4,54.0,99/100,39,210.88
270,C5,54.0,99/100,39,210.88
271,F3,54.5,0.5,30,210.88
272,D3,55.0,0.5,39,210.88
273,G#2,55.0,1.0,28,210.88
274,F4,55.0,99/100,39,210.88
275,C4,55.0,99/100,39,210.88
276,C5,55.0,99/100,39,210.88
277,F3,55.5,0.5,34,210.88
278,F4,56.0,0.5,43,210.88
279,B-3,56.0,0.5,43,210.88
280,B-4,56.0,0.5,43,210.88
281,F3,56.0,3.0,33,210.88
282,G2,56.0,3.0,33,210.88
283,G3,56.5,0.25,32,210.88
284,F4,56.5,0.5,38,210.88
285,A3,56.5,0.5,38,210.88
286,A4,56.5,0.5,38,210.88
287,F4,57.0,1.0,52,210.88
288,G3,57.0,0.25,33,210.88
289,B-3,57.0,3.0,44,210.88
290,B-4,57.0,3.0,44,210.88
291,G3,57.5,0.25,30,210.88
292,G3,58.0,0.25,34,210.88
293,E-4,58.0,1.0,46,210.88
294,G4,58.0,1.0,46,210.88
295,G3,58.5,0.25,31,210.88
296,D4,59.0,1.0,40,210.88
297,F4,59.0,1.0,40,210.88
298,G2,59.0,0.5,28,210.88
299,E-3,59.0,0.5,28,210.88
300,G3,59.0,0.5,28,210.88
301,D3,59.5,0.5,27,210.88
302,G3,59.5,0.5,27,210.88
303,G2,59.5,0.5,27,210.88
304,C3,60.0,0.5,34,210.88
305,G2,60.0,1.0,28,210.88
306,F4,60.0,1.0,52,210.88
307,D4,60.0,1.0,52,210.88
308,D5,60.0,1.0,52,210.88
309,G3,60.5,0.5,30,210.88
310,F3,61.0,0.5,33,210.88
311,G2,61.0,1.0,28,210.88
312,G4,61.0,3.0,52,210.88
313,D4,61.0,3.0,52,210.88
314,D5,61.0,3.0,52,210.88
315,G3,61.5,0.5,28,210.88
316,E-3,62.0,0.5,28,210.88
317,G2,62.0,1.0,27,210.88
318,G3,62.5,0.5,29,210.88
319,F#2,63.0,1.0,28,210.88
320,E-3,63.0,0.5,39,210.88
321,F#3,63.5,0.5,34,210.88
322,G4,64.0,0.5,47,210.88
323,C5,64.0,0.5,47,210.88
324,C4,64.0,0.5,47,210.88
325,F2,64.0,3.0,33,210.88
326,E-3,64.0,3.0,33,210.88
327,F3,64.5,0.25,32,210.88
328,B4,64.5,0.5,43,210.88
329,B3,64.5,0.5,43,210.88
330,G4,64.5,0.5,43,210.88
331,F3,65.0,0.25,33,210.88
332,E-5,65.0,1.0,57,210.88
333,E-4,65.0,1.0,57,210.88
334,G4,65.0,1.0,57,210.88
335,F3,65.5,0.25,30,210.88
336,F3,66.0,0.25,34,210.88
337,D5,66.0,1.0,53,210.88
338,D4,66.0,1.0,53,210.88
339,G4,66.0,1.0,53,210.88
340,F3,66.5,0.25,31,210.88
341,C5,67.0,1.0,51,210.88
342,C4,67.0,1.0,51,210.88
343,G4,67.0,1.0,51,210.88
344,F2,67.0,0.5,28,210.88
345,F3,67.0,0.5,28,210.88
346,D3,67.0,0.5,28,210.88
347,F2,67.5,0.5,27,210.88
348,F3,67.5,0.5,27,210.88
349,C3,67.5,0.5,27,210.88
350,F2,68.0,1.0,28,210.88
351,B-2,68.0,0.5,34,210.88
352,C4,68.0,1.0,52,210.88
353,A4,68.0,1.0,52,210.88
354,C5,68.0,1.0,52,210.88
355,F3,68.5,0.5,30,210.88
356,C3,69.0,0.5,31,210.88
357,F2,69.0,1.0,26,210.88
358,F4,69.0,3.0,50,210.88
359,C5,69.0,3.0,50,210.88
360,C4,69.0,3.0,50,210.88
361,A4,69.0,3.0,50,210.88
362,F3,69.5,0.5,26,210.88
363,D3,70.0,0.5,29,210.88
364,F2,70.0,1.0,28,210.88
365,F3,70.5,0.5,27,210.88
366,F2,71.0,1.0,25,210.88
367,E-3,71.0,0.5,35,210.88
368,F3,71.5,0.5,30,210.88
369,F3,72.0,2.5,32,210.88
370,B-4,72.0,0.5,47,210.88
371,B-3,72.0,0.5,47,210.88
372,F4,72.0,0.5,47,210.88
373,F2,72.0,2.0,30,210.88
374,E-3,72.0,2.0,30,210.88
375,A4,72.5,0.5,43,210.88
376,A3,72.5,0.5,43,210.88
377,F4,72.5,0.5,43,210.88
378,D4,73.0,1.0,57,210.88
379,F4,73.0,1.0,57,210.88
380,D5,73.0,1.0,57,210.88
381,A3,74.0,1.0,50,210.88
382,F4,74.0,1.0,50,210.88
383,A4,74.0,1.0,50,210.88
384,D3,74.0,0.5,28,210.88
385,B-2,74.0,0.5,28,210.88
386,B-1,75.0,0.5,30,210.88
387,B-3,75.0,1.0,53,210.88
388,F4,75.0,1.0,53,210.88
389,B-4,75.0,1.0,53,210.88
390,B-1,76.0,0.188,30,210.88
391,F4,76.0,1.0,46,210.88
392,C5,76.0,1.0,46,210.88
393,C4,76.0,1.0,46,210.88
394,A4,76.0,1.0,46,210.88
395,B1,76.125,0.188,26,210.88
396,B-1,76.25,0.188,27,210.88
397,B1,76.375,0.188,25,210.88
398,B-1,76.5,0.188,27,210.88
399,B1,76.625,0.188,25,210.88
400,B-1,76.75,0.188,28,210.88
401,B1,76.875,0.188,27,210.88
402,F4,77.0,2.5,40,210.88
403,B-1,77.0,0.188,29,210.88
404,C5,77.0,2.0,46,210.88
405,C4,77.0,2.0,46,210.88
406,A4,77.0,2.0,46,210.88
407,B1,77.125,0.188,26,210.88
408,B-1,77.25,0.188,29,210.88
409,B1,77.375,0.188,25,210.88
410,B-1,77.5,0.188,28,210.88
411,B1,77.625,0.188,26,210.88
412,B-1,77.75,0.188,27,210.88
413,B1,77.875,0.188,25,210.88
414,B-1,78.0,0.188,29,210.88
415,B1,78.125,0.188,26,210.88
416,B-1,78.25,0.188,28,210.88
417,B1,78.375,0.188,26,210.88
418,B-1,78.5,0.188,28,210.88
419,B1,78.625,0.188,25,210.88
420,B-1,78.75,0.188,28,210.88
421,B1,78.875,0.188,25,210.88
422,B-1,79.0,73/250,30,210.88
423,B-3,79.0,0.5,48,210.88
424,B-4,79.0,0.5,48,210.88
425,A1,79.25,73/250,26,210.88
426,G#1,79.5,73/250,30,210.88
427,G1,79.75,0.25,26,210.88
428,F#1,80.0,0.25,30,210.88
429,G1,80.0,21/500,26,210.88
430,C#3,80.25,0.25,26,210.88
431,F#3,80.5,0.25,26,210.88
432,C#3,80.75,0.25,26,210.88
433,F#2,81.0,0.25,31,210.88
434,C#3,81.25,0.25,26,210.88
435,F3,81.5,0.25,26,210.88
436,C#3,81.75,0.25,25,210.88
437,F#2,82.0,0.25,30,210.88
438,C#3,82.25,0.25,27,210.88
439,F#3,82.5,0.25,27,210.88
440,C#3,82.75,0.25,27,210.88
441,F#2,83.0,0.25,30,210.88
442,C#3,83.25,0.25,27,210.88
443,G#3,83.5,0.25,27,210.88
444,C#3,83.75,0.25,27,210.88
445,B-4,84.0,1.0,51,210.88
446,F#2,84.0,0.25,33,210.88
447,C#3,84.25,0.25,27,210.88
448,B-3,84.5,0.25,27,210.88
449,C#3,84.75,0.25,27,210.88
450,B-4,85.0,1.0,52,210.88
451,F#2,85.0,0.25,31,210.88
452,C#3,85.25,0.25,27,210.88
453,B-3,85.5,0.25,27,210.88
454,C#3,85.75,0.25,27,210.88
455,G#4,86.0,1.0,51,210.88
456,F#2,86.0,0.25,30,210.88
457,C#3,86.25,0.25,27,210.88
458,B-3,86.5,0.25,27,210.88
459,C#3,86.75,0.25,27,210.88
460,B-4,87.0,1.0,52,210.88
461,F#2,87.0,0.25,31,210.88
462,C#3,87.25,0.25,25,210.88
463,F#3,87.5,0.25,28,210.88
464,C#3,87.75,0.25,27,210.88
465,B4,88.0,1.0,50,210.88
466,F#2,88.0,0.25,33,210.88
467,E-3,88.25,0.25,27,210.88
468,B3,88.5,0.25,27,210.88
469,E-3,88.75,0.25,27,210.88
470,C#5,89.0,3.0,52,210.88
471,F#2,89.0,0.25,32,210.88
472,E-3,89.25,0.25,27,210.88
473,B3,89.5,0.25,27,210.88
474,E-3,89.75,0.25,27,210.88
475,F#2,90.0,0.25,32,210.88
476,E-3,90.25,0.25,27,210.88
477,B3,90.5,0.25,27,210.88
478,E-3,90.75,0.25,27,210.88
479,F#2,91.0,0.25,33,210.88
480,E-3,91.25,0.25,27,210.88
481,B3,91.5,0.25,31,210.88
482,E-3,91.75,0.25,27,210.88
483,B4,92.0,0.5,56,210.88
484,F#2,92.0,0.25,33,210.88
485,C#3,92.25,0.25,28,210.88
486,B-4,92.5,0.5,53,210.88
487,B-3,92.5,0.25,28,210.88
488,C#3,92.75,0.25,28,210.88
489,E-5,93.0,0.5,58,210.88
490,F#2,93.0,0.25,33,210.88
491,C#3,93.25,0.25,27,210.88
492,B-3,93.5,0.25,28,210.88
493,C#3,93.75,0.25,27,210.88
494,E-5,94.0,0.5,54,210.88
495,F#2,94.0,0.25,33,210.88
496,C#3,94.25,0.25,28,210.88
497,B-3,94.5,0.25,29,210.88
498,C#3,94.75,0.25,29,210.88
499,E-5,95.0,0.5,54,210.88
500,F#2,95.0,0.25,33,210.88
501,C#3,95.25,0.25,27,210.88
502,F#3,95.5,0.25,31,210.88
503,C#3,95.75,0.25,27,210.88
504,F5,96.0,0.5,56,210.88
505,F#2,96.0,0.25,33,210.88
506,E-3,96.25,0.25,28,210.88
507,F#5,96.5,0.5,51,210.88
508,B3,96.5,0.25,28,210.88
509,E-3,96.75,0.25,28,210.88
510,C#5,97.0,3.0,54,210.88
511,F#2,97.0,0.25,33,210.88
512,E-3,97.25,0.25,29,210.88
513,B3,97.5,0.25,29,210.88
514,E-3,97.75,0.25,29,210.88
515,F#2,98.0,0.25,33,210.88
516,C#3,98.25,0.25,28,210.88
517,F3,98.5,0.25,28,210.88
518,C#3,98.75,0.25,27,210.88
519,F#2,99.0,0.25,31,210.88
520,C#3,99.25,0.25,27,210.88
521,G#3,99.5,0.25,28,210.88
522,C#3,99.75,0.25,28,210.88
523,B4,100.0,0.5,52,210.88
524,F#2,100.0,0.25,33,210.88
525,C#3,100.25,0.25,28,210.88
526,B-4,100.5,0.5,51,210.88
527,B-3,100.5,0.25,28,210.88
528,C#3,100.75,0.25,28,210.88
529,B4,101.0,1.0,52,210.88
530,F#2,101.0,0.25,33,210.88
531,C#3,101.25,0.25,27,210.88
532,B-3,101.5,0.25,28,210.88
533,C#3,101.75,0.25,27,210.88
534,E-5,102.0,1.0,52,210.88
535,F#2,102.0,0.25,33,210.88
536,C#3,102.25,0.25,28,210.88
537,B-3,102.5,0.25,29,210.88
538,C#3,102.75,0.25,29,210.88
539,G#4,103.0,1.0,52,210.88
540,F#2,103.0,0.25,33,210.88
541,C#3,103.25,0.25,27,210.88
542,B-3,103.5,0.25,31,210.88
543,C#3,103.75,0.25,27,210.88
544,B4,104.0,1.0,52,210.88
545,F#2,104.0,0.25,33,210.88
546,E-3,104.25,0.25,28,210.88
547,F#3,104.5,0.25,28,210.88
548,E-3,104.75,0.25,28,210.88
549,B-4,105.0,1.0,54,210.88
550,F#2,105.0,0.25,33,210.88
551,E-3,105.25,0.25,29,210.88
552,B3,105.5,0.25,29,210.88
553,E-3,105.75,0.25,29,210.88
554,F#2,106.0,0.25,33,210.88
555,F#4,106.0,1.5,56,210.88
556,F#5,106.0,1.5,56,210.88
557,C#3,106.25,0.25,28,210.88
558,F3,106.5,0.25,28,210.88
559,C#3,106.75,0.25,27,210.88
560,F#2,107.0,0.25,31,210.88
561,C#3,107.25,0.25,27,210.88
562,G#3,107.5,0.25,28,210.88
563,F4,107.5,0.5,49,210.88
564,F5,107.5,0.5,49,210.88
565,C#3,107.75,0.25,28,210.88
566,F#2,108.0,0.25,33,210.88
567,E-5,108.0,0.5,52,210.88
568,E-4,108.0,0.5,52,210.88
569,B-3,108.25,0.25,28,210.88
570,F#3,108.5,0.25,28,210.88
571,C#4,108.5,0.5,47,210.88
572,C#5,108.5,0.5,47,210.88
573,B-3,108.75,0.25,28,210.88
574,F#3,109.0,0.25,33,210.88
575,B3,109.0,1.0,50,210.88
576,B4,109.0,1.0,50,210.88
577,B-3,109.25,0.25,29,210.88
578,F#3,109.5,0.25,29,210.88
579,B-3,109.75,0.25,29,210.88
580,E-5,110.0,1.0,56,210.88
581,F#2,110.0,0.25,33,210.88
582,B-3,110.25,0.25,28,210.88
583,F#3,110.5,0.25,28,210.88
584,B-3,110.75,0.25,27,210.88
585,G#4,111.0,1.0,54,210.88
586,F#3,111.0,0.25,31,210.88
587,B-3,111.25,0.25,27,210.88
588,F#3,111.5,0.25,28,210.88
589,B-3,111.75,0.25,28,210.88
590,B-4,112.0,0.5,52,210.88
591,F#2,112.0,0.25,33,210.88
592,B3,112.25,0.25,28,210.88
593,B4,112.5,0.5,52,210.88
594,F#3,112.5,0.25,28,210.88
595,B3,112.75,0.25,28,210.88
596,B-4,113.0,0.5,55,210.88
597,F#3,113.0,0.25,33,210.88
598,B3,113.25,0.25,29,210.88
599,C#5,113.5,0.5,52,210.88
600,F#3,113.5,0.25,29,210.88
601,B3,113.75,0.25,29,210.88
602,B-5,114.0,0.5,56,210.88
603,F#2,114.0,0.25,33,210.88
604,B3,114.25,0.25,28,210.88
605,F#5,114.5,0.5,52,210.88
606,F#3,114.5,0.25,28,210.88
607,B3,114.75,0.25,27,210.88
608,C#5,115.0,0.5,56,210.88
609,F#3,115.0,0.25,31,210.88
610,B3,115.25,0.25,27,210.88
611,B-4,115.5,0.5,52,210.88
612,F#3,115.5,0.25,28,210.88
613,B3,115.75,0.25,28,210.88
614,F#5,116.0,0.5,55,210.88
615,F#2,116.0,0.125,33,210.88
616,B-3,116.25,0.25,28,210.88
617,D5,116.5,0.5,52,210.88
618,F#3,116.5,0.25,28,210.88
619,B-3,116.75,0.25,28,210.88
620,E-5,117.0,0.5,55,210.88
621,F#3,117.0,0.25,33,210.88
622,B-3,117.25,0.25,29,210.88
623,B4,117.5,0.5,52,210.88
624,F#3,117.5,0.25,29,210.88
625,B-3,117.75,0.25,29,210.88
626,B5,118.0,0.5,56,210.88
627,F#2,118.0,0.125,33,210.88
628,B-3,118.25,0.25,28,210.88
629,G#5,118.5,0.5,54,210.88
630,F#3,118.5,0.25,28,210.88
631,B-3,118.75,0.25,27,210.88
632,F5,119.0,0.5,58,210.88
633,F#3,119.0,0.25,31,210.88
634,B-3,119.25,0.25,27,210.88
635,G#5,119.5,0.5,56,210.88
636,F#3,119.5,0.25,28,210.88
637,B-3,119.75,0.25,28,210.88
638,C#6,120.0,0.5,58,210.88
639,F#2,120.0,0.125,33,210.88
640,B3,120.25,0.25,28,210.88
641,A5,120.5,0.5,54,210.88
642,F#3,120.5,0.25,28,210.88
643,B3,120.75,0.25,28,210.88
644,B-5,121.0,0.5,57,210.88
645,F#3,121.0,0.25,33,210.88
646,B3,121.25,0.25,29,210.88
647,F#5,121.5,0.5,54,210.88
648,F#3,121.5,0.25,29,210.88
649,B3,121.75,0.25,29,210.88
650,B-5,122.0,0.25,57,210.88
651,F#2,122.0,0.125,33,210.88
652,F#5,122.25,0.25,51,210.88
653,B3,122.25,0.25,28,210.88
654,B-5,122.5,0.25,56,210.88
655,F#3,122.5,0.25,28,210.88
656,F#5,122.75,0.25,50,210.88
657,B3,122.75,0.25,27,210.88
658,C#5,123.0,0.25,56,210.88
659,F#3,123.0,0.25,31,210.88
660,B-4,123.25,0.25,52,210.88
661,B3,123.25,0.25,27,210.88
662,C#5,123.5,0.25,56,210.88
663,F#3,123.5,0.25,28,210.88
664,B-4,123.75,0.25,53,210.88
665,B3,123.75,0.25,28,210.88
666,F#5,124.0,0.25,58,210.88
667,F#2,124.0,0.125,33,210.88
668,D5,124.25,0.25,53,210.88
669,B-3,124.25,0.25,28,210.88
670,F#5,124.5,0.25,57,210.88
671,F#3,124.5,0.25,28,210.88
672,D5,124.75,0.25,52,210.88
673,B-3,124.75,0.25,28,210.88
674,E-5,125.0,0.25,57,210.88
675,F#3,125.0,0.25,33,210.88
676,B4,125.25,0.25,52,210.88
677,B-3,125.25,0.25,29,210.88
678,E-5,125.5,0.25,54,210.88
679,F#3,125.5,0.25,29,210.88
680,B4,125.75,0.25,52,210.88
681,B-3,125.75,0.25,29,210.88
682,B5,126.0,0.25,57,210.88
683,F#3,126.0,0.25,33,210.88
684,G#5,126.25,0.25,51,210.88
685,B-3,126.25,0.25,28,210.88
686,B5,126.5,0.25,56,210.88
687,F#3,126.5,0.25,28,210.88
688,G#5,126.75,0.25,50,210.88
689,B-3,126.75,0.25,27,210.88
690,F5,127.0,0.25,56,210.88
691,F#3,127.0,0.25,31,210.88
692,G#5,127.25,0.25,52,210.88
693,B-3,127.25,0.25,27,210.88
694,F5,127.5,0.25,56,210.88
695,F#3,127.5,0.25,28,210.88
696,G#5,127.75,0.25,53,210.88
697,B-3,127.75,0.25,28,210.88
698,C#6,128.0,0.25,58,210.88
699,F#2,128.0,0.125,33,210.88
700,A5,128.25,0.25,53,210.88
701,B-3,128.25,0.25,28,210.88
702,C#6,128.5,0.25,57,210.88
703,F#3,128.5,0.25,28,210.88
704,A5,128.75,0.25,52,210.88
705,B-3,128.75,0.25,28,210.88
706,B-5,129.0,0.25,57,210.88
707,F#3,129.0,0.25,33,210.88
708,A5,129.25,0.25,53,210.88
709,B-3,129.25,0.25,29,210.88
710,B-5,129.5,0.25,52,210.88
711,F#3,129.5,0.25,29,210.88
712,F5,129.75,0.25,52,210.88
713,B-3,129.75,0.25,29,210.88
714,F#5,130.0,0.25,57,210.88
715,F#3,130.0,0.25,33,210.88
716,F5,130.25,0.25,51,210.88
717,B-3,130.25,0.25,28,210.88
718,F#5,130.5,0.25,51,210.88
719,F#3,130.5,0.25,28,210.88
720,C5,130.75,0.25,50,210.88
721,B-3,130.75,0.25,27,210.88
722,C#5,131.0,0.25,55,210.88
723,F#3,131.0,0.25,31,210.88
724,C5,131.25,0.25,51,210.88
725,B-3,131.25,0.25,27,210.88
726,C#5,131.5,0.25,51,210.88
727,F#3,131.5,0.25,28,210.88
728,A4,131.75,0.25,51,210.88
729,B-3,131.75,0.25,28,210.88
730,B-4,132.0,0.25,54,210.88
731,F#3,132.0,0.25,33,210.88
732,A4,132.25,0.25,47,210.88
733,B-3,132.25,0.25,28,210.88
734,B-4,132.5,0.25,49,210.88
735,F#3,132.5,0.25,28,210.88
736,F4,132.75,0.25,47,210.88
737,B-3,132.75,0.25,28,210.88
738,F#4,133.0,0.25,57,210.88
739,F#3,133.0,0.25,33,210.88
740,A5,133.25,0.25,53,210.88
741,B-3,133.25,0.25,29,210.88
742,B-5,133.5,0.25,52,210.88
743,F#3,133.5,0.25,29,210.88
744,F5,133.75,0.25,52,210.88
745,B-3,133.75,0.25,30,210.88
746,F#5,134.0,0.25,57,210.88
747,F#3,134.0,0.25,34,210.88
748,F5,134.25,0.25,51,210.88
749,B-3,134.25,0.25,29,210.88
750,F#5,134.5,0.25,51,210.88
751,F#3,134.5,0.25,29,210.88
752,C5,134.75,0.25,50,210.88
753,B-3,134.75,0.25,28,210.88
754,C#5,135.0,0.25,55,210.88
755,F#3,135.0,0.25,33,210.88
756,C5,135.25,0.25,51,210.88
757,B-3,135.25,0.25,29,210.88
758,C#5,135.5,0.25,51,210.88
759,F#3,135.5,0.25,30,210.88
760,A4,135.75,0.25,51,210.88
761,B-3,135.75,0.25,30,210.88
762,B-4,136.0,0.25,54,210.88
763,F#2,136.0,333/1000,34,210.88
764,A4,136.25,0.25,47,210.88
765,F#3,136.333,317/1000,31,210.88
766,B-4,136.5,0.25,49,210.88
767,F#3,136.667,317/1000,28,210.88
768,F#2,136.667,317/1000,28,210.88
769,F4,136.75,0.25,47,210.88
770,F#4,137.0,0.25,53,210.88
771,F#2,137.0,317/1000,32,210.88
772,F#3,137.0,317/1000,32,210.88
773,F4,137.25,0.25,49,210.88
774,F#2,137.333,317/1000,28,210.88
775,F#3,137.333,317/1000,28,210.88
776,F#4,137.5,0.25,49,210.88
777,F#2,137.667,317/1000,30,210.88
778,F#3,137.667,317/1000,30,210.88
779,G#4,137.75,0.25,49,210.88
780,B-4,138.0,0.25,55,210.88
781,F#3,138.0,317/1000,34,210.88
782,F#2,138.0,317/1000,34,210.88
783,B4,138.25,0.25,49,210.88
784,F#2,138.333,317/1000,32,210.88
785,F#3,138.333,317/1000,32,210.88
786,B-4,138.5,0.25,49,210.88
787,F#2,138.667,317/1000,32,210.88
788,F#3,138.667,317/1000,32,210.88
789,G#4,138.75,0.25,49,210.88
790,F#4,139.0,0.25,55,210.88
791,C#3,139.0,317/1000,34,210.88
792,F#3,139.0,317/1000,34,210.88
793,F#2,139.0,317/1000,34,210.88
794,G#4,139.25,0.25,50,210.88
795,F#2,139.333,317/1000,32,210.88
796,F#3,139.333,317/1000,32,210.88
797,C#3,139.333,317/1000,32,210.88
798,B-4,139.5,0.25,50,210.88
799,F#2,139.667,317/1000,32,210.88
800,C#3,139.667,317/1000,32,210.88
801,F#3,139.667,317/1000,32,210.88
802,G#4,139.75,0.25,50,210.88
803,F#4,140.0,0.25,55,210.88
804,F#2,140.0,317/1000,35,210.88
805,C#3,140.0,317/1000,35,210.88
806,F#3,140.0,317/1000,35,210.88
807,G#4,140.25,0.25,50,210.88
808,F#2,140.333,317/1000,33,210.88
809,F#3,140.333,317/1000,33,210.88
810,C#3,140.333,317/1000,33,210.88
811,F#4,140.5,0.25,52,210.88
812,C#3,140.667,317/1000,34,210.88
813,F#3,140.667,317/1000,34,210.88
814,F#2,140.667,317/1000,34,210.88
815,F4,140.75,0.25,51,210.88
816,E4,141.0,333/1000,57,210.88
817,F#2,141.0,317/1000,39,210.88
818,C#3,141.0,317/1000,39,210.88
819,F#3,141.0,317/1000,39,210.88
820,B-4,141.333,317/1000,52,210.88
821,F#2,141.333,317/1000,37,210.88
822,F#3,141.333,317/1000,37,210.88
823,C#3,141.333,317/1000,37,210.88
824,B-3,141.667,317/1000,48,210.88
825,E4,141.667,317/1000,48,210.88
826,B-4,141.667,317/1000,48,210.88
827,C#3,141.667,317/1000,38,210.88
828,F#3,141.667,317/1000,38,210.88
829,F#2,141.667,317/1000,38,210.88
830,B-3,142.0,317/1000,53,210.88
831,B-4,142.0,317/1000,53,210.88
832,E4,142.0,317/1000,53,210.88
833,F#2,142.0,317/1000,43,210.88
834,C#3,142.0,317/1000,43,210.88
835,F#3,142.0,317/1000,43,210.88
836,E4,142.333,317/1000,50,210.88
837,B-4,142.333,317/1000,50,210.88
838,B-3,142.333,317/1000,50,210.88
839,F#2,142.333,317/1000,41,210.88
840,F#3,142.333,317/1000,41,210.88
841,C#3,142.333,317/1000,41,210.88
842,B-4,142.667,317/1000,51,210.88
843,B-3,142.667,317/1000,51,210.88
844,E4,142.667,317/1000,51,210.88
845,C#3,142.667,317/1000,42,210.88
846,F#3,142.667,317/1000,42,210.88
847,F#2,142.667,317/1000,42,210.88
848,B-4,143.0,317/1000,55,210.88
849,B-3,143.0,317/1000,55,210.88
850,E4,143.0,317/1000,55,210.88
851,F2,143.0,317/1000,51,210.88
852,D3,143.0,317/1000,51,210.88
853,F3,143.0,317/1000,51,210.88
854,B-4,143.333,317/1000,50,210.88
855,B-3,143.333,317/1000,50,210.88
856,E4,143.333,317/1000,50,210.88
857,F2,143.333,317/1000,47,210.88
858,D3,143.333,317/1000,47,210.88
859,F3,143.333,317/1000,47,210.88
860,B-4,143.667,317/1000,50,210.88
861,B-3,143.667,317/1000,50,210.88
862,E4,143.667,317/1000,50,210.88
863,F3,143.667,317/1000,47,210.88
864,D3,143.667,317/1000,47,210.88
865,F2,143.667,317/1000,47,210.88
866,D3,144.0,333/1000,63,210.88
867,F2,144.0,1.0,63,210.88
868,B-3,144.0,317/1000,58,210.88
869,E4,144.0,317/1000,58,210.88
870,B-4,144.0,317/1000,58,210.88
871,F3,144.333,333/1000,58,210.88
872,B-3,144.333,317/1000,54,210.88
873,E4,144.333,317/1000,54,210.88
874,B-4,144.333,317/1000,54,210.88
875,F3,144.667,167/1000,58,210.88
876,B-3,144.667,317/1000,55,210.88
877,E4,144.667,317/1000,55,210.88
878,B-4,144.667,317/1000,55,210.88
879,C3,145.0,333/1000,62,210.88
880,F2,145.0,1.0,62,210.88
881,B-3,145.0,317/1000,60,210.88
882,B-4,145.0,317/1000,60,210.88
883,E4,145.0,317/1000,60,210.88
884,F3,145.333,333/1000,58,210.88
885,E4,145.333,317/1000,57,210.88
886,B-3,145.333,317/1000,57,210.88
887,B-4,145.333,317/1000,57,210.88
888,F3,145.667,167/1000,58,210.88
889,E4,145.667,317/1000,58,210.88
890,B-3,145.667,317/1000,58,210.88
891,B-4,145.667,317/1000,58,210.88
892,F2,146.0,1.0,60,210.88
893,D3,146.0,333/1000,60,210.88
894,E4,146.0,317/1000,63,210.88
895,B-3,146.0,317/1000,63,210.88
896,B-4,146.0,317/1000,63,210.88
897,F3,146.333,333/1000,58,210.88
898,E4,146.333,317/1000,60,210.88
899,B-3,146.333,317/1000,60,210.88
900,B-4,146.333,317/1000,60,210.88
901,F3,146.667,167/1000,58,210.88
902,E4,146.667,317/1000,61,210.88
903,B-4,146.667,317/1000,61,210.88
904,B-3,146.667,317/1000,61,210.88
905,F2,147.0,1.0,61,210.88
906,E-3,147.0,333/1000,61,210.88
907,B-4,147.0,317/1000,66,210.88
908,B-3,147.0,317/1000,66,210.88
909,E4,147.0,317/1000,66,210.88
910,F3,147.333,333/1000,58,210.88
911,B-4,147.333,317/1000,63,210.88
912,B-3,147.333,317/1000,63,210.88
913,E4,147.333,317/1000,63,210.88
914,F3,147.667,167/1000,58,210.88
915,B-4,147.667,317/1000,64,210.88
916,B-3,147.667,317/1000,64,210.88
917,E4,147.667,317/1000,64,210.88
918,F2,148.0,3.0,60,210.88
919,E3,148.0,333/1000,60,210.88
920,B-4,148.0,317/1000,76,210.88
921,F4,148.0,317/1000,76,210.88
922,B-3,148.0,317/1000,76,210.88
923,F3,148.333,333/1000,58,210.88
924,F4,148.333,317/1000,71,210.88
925,B-3,148.333,317/1000,71,210.88
926,B-4,148.333,317/1000,71,210.88
927,F3,148.667,167/1000,58,210.88
928,F4,148.667,317/1000,71,210.88
929,B-3,148.667,317/1000,71,210.88
930,B-4,148.667,317/1000,71,210.88
931,F3,149.0,333/1000,60,210.88
932,B-3,149.0,1.0,77,210.88
933,F4,149.0,1.0,77,210.88
934,B-4,149.0,1.0,77,210.88
935,F3,149.333,333/1000,58,210.88
936,F3,149.667,167/1000,58,210.88
937,F3,150.0,317/1000,62,210.88
938,A3,150.0,1.0,72,210.88
939,A4,150.0,1.0,72,210.88
940,F4,150.0,1.0,72,210.88
941,F3,150.333,317/1000,58,210.88
942,F3,150.667,317/1000,58,210.88
943,E-3,151.0,333/1000,61,210.88
944,F2,151.0,1.0,55,210.88
945,F4,151.0,1.0,72,210.88
946,B-3,151.0,1.0,72,210.88
947,B-4,151.0,1.0,72,210.88
948,F3,151.333,333/1000,53,210.88
949,D3,151.667,333/1000,53,210.88
950,E-3,152.0,333/1000,60,210.88
951,F2,152.0,1.0,60,210.88
952,F4,152.0,1.0,72,210.88
953,C4,152.0,1.0,72,210.88
954,C5,152.0,1.0,72,210.88
955,F3,152.333,317/1000,55,210.88
956,F3,152.667,317/1000,55,210.88
957,F2,153.0,1.0,60,210.88
958,E-3,153.0,333/1000,60,210.88
959,F4,153.0,3.0,78,210.88
960,D4,153.0,3.0,78,210.88
961,D5,153.0,3.0,78,210.88
962,F3,153.333,317/1000,56,210.88
963,F3,153.667,317/1000,56,210.88
964,F2,154.0,1.0,62,210.88
965,E-3,154.0,333/1000,62,210.88
966,F3,154.333,317/1000,58,210.88
967,F3,154.667,317/1000,58,210.88
968,F2,155.0,1.0,62,210.88
969,D3,155.0,333/1000,62,210.88
970,F3,155.333,333/1000,59,210.88
971,C3,155.667,333/1000,59,210.88
972,D3,156.0,333/1000,62,210.88
973,B-2,156.0,3.0,62,210.88
974,F4,156.0,0.5,75,210.88
975,C4,156.0,0.5,75,210.88
976,C5,156.0,0.5,75,210.88
977,F3,156.333,317/1000,56,210.88
978,F4,156.5,0.5,70,210.88
979,B-4,156.5,0.5,70,210.88
980,B-3,156.5,0.5,70,210.88
981,F3,156.667,317/1000,56,210.88
982,E-3,157.0,333/1000,60,210.88
983,C5,157.0,99/100,74,210.88
984,C4,157.0,99/100,74,210.88
985,F4,157.0,99/100,74,210.88
986,G3,157.333,317/1000,56,210.88
987,G3,157.667,317/1000,56,210.88
988,D3,158.0,333/1000,60,210.88
989,C5,158.0,99/100,71,210.88
990,C4,158.0,99/100,71,210.88
991,F4,158.0,99/100,71,210.88
992,F3,158.333,317/1000,56,210.88
993,F3,158.667,317/1000,57,210.88
994,G#2,159.0,1.0,59,210.88
995,D3,159.0,333/1000,59,210.88
996,C5,159.0,99/100,71,210.88
997,C4,159.0,99/100,71,210.88
998,F4,159.0,99/100,71,210.88
999,F3,159.333,317/1000,54,210.88
1000,F3,159.667,317/1000,54,210.88
1001,G2,160.0,3.0,59,210.88
1002,F3,160.0,333/1000,59,210.88
1003,B-4,160.0,0.5,74,210.88
1004,B-3,160.0,0.5,74,210.88
1005,F4,160.0,0.5,74,210.88
1006,G3,160.333,317/1000,53,210.88
1007,A3,160.5,0.5,70,210.88
1008,F4,160.5,0.5,70,210.88
1009,A4,160.5,0.5,70,210.88
1010,G3,160.667,317/1000,53,210.88
1011,F4,161.0,1.0,82,210.88
1012,F3,161.0,333/1000,56,210.88
1013,B-3,161.0,3.0,82,210.88
1014,B-4,161.0,3.0,82,210.88
1015,G3,161.333,317/1000,53,210.88
1016,G3,161.667,317/1000,53,210.88
1017,F3,162.0,333/1000,57,210.88
1018,E-4,162.0,1.0,80,210.88
1019,G4,162.0,1.0,80,210.88
1020,G3,162.333,317/1000,51,210.88
1021,G3,162.667,317/1000,51,210.88
1022,E-3,163.0,333/1000,56,210.88
1023,G2,163.0,1.0,56,210.88
1024,F4,163.0,1.0,76,210.88
1025,D4,163.0,1.0,76,210.88
1026,G3,163.333,333/1000,51,210.88
1027,D3,163.667,333/1000,51,210.88
1028,G2,164.0,1.0,54,210.88
1029,C3,164.0,333/1000,54,210.88
1030,D5,164.0,1.0,76,210.88
1031,F4,164.0,1.0,76,210.88
1032,D4,164.0,1.0,76,210.88
1033,G3,164.333,317/1000,50,210.88
1034,G3,164.667,317/1000,50,210.88
1035,G2,165.0,1.0,54,210.88
1036,F3,165.0,333/1000,54,210.88
1037,G4,165.0,3.0,76,210.88
1038,D5,165.0,3.0,76,210.88
1039,D4,165.0,3.0,76,210.88
1040,G3,165.333,317/1000,50,210.88
1041,G3,165.667,317/1000,50,210.88
1042,G2,166.0,1.0,55,210.88
1043,E-3,166.0,333/1000,55,210.88
1044,G3,166.333,317/1000,50,210.88
1045,G3,166.667,317/1000,50,210.88
1046,F#2,167.0,1.0,57,210.88
1047,E-3,167.0,333/1000,57,210.88
1048,F#3,167.333,317/1000,52,210.88
1049,F#3,167.667,317/1000,52,210.88
1050,E-3,168.0,333/1000,58,210.88
1051,F2,168.0,3.0,58,210.88
1052,C5,168.0,0.5,71,210.88
1053,C4,168.0,0.5,71,210.88
1054,G4,168.0,0.5,71,210.88
1055,F3,168.333,317/1000,52,210.88
1056,B4,168.5,0.5,67,210.88
1057,B3,168.5,0.5,67,210.88
1058,G4,168.5,0.5,67,210.88
1059,F3,168.667,317/1000,52,210.88
1060,E-3,169.0,333/1000,56,210.88
1061,E-5,169.0,1.0,80,210.88
1062,E-4,169.0,1.0,80,210.88
1063,G4,169.0,1.0,80,210.88
1064,F3,169.333,317/1000,52,210.88
1065,F3,169.667,317/1000,53,210.88
1066,E-3,170.0,333/1000,57,210.88
1067,D5,170.0,1.0,77,210.88
1068,D4,170.0,1.0,77,210.88
1069,G4,170.0,1.0,77,210.88
1070,F3,170.333,317/1000,52,210.88
1071,F3,170.667,317/1000,52,210.88
1072,D3,171.0,333/1000,57,210.88
1073,F2,171.0,1.0,57,210.88
1074,C4,171.0,1.0,75,210.88
1075,G4,171.0,1.0,75,210.88
1076,C5,171.0,1.0,75,210.88
1077,F3,171.333,333/1000,54,210.88
1078,C3,171.667,333/1000,51,210.88
1079,B-2,172.0,333/1000,58,210.88
1080,F2,172.0,1.0,58,210.88
1081,C4,172.0,1.0,73,210.88
1082,A4,172.0,1.0,73,210.88
1083,C5,172.0,1.0,73,210.88
1084,F3,172.333,317/1000,53,210.88
1085,F3,172.667,317/1000,53,210.88
1086,C3,173.0,333/1000,58,210.88
1087,F2,173.0,1.0,58,210.88
1088,F4,173.0,3.0,77,210.88
1089,C5,173.0,3.0,77,210.88
1090,C4,173.0,3.0,77,210.88
1091,A4,173.0,3.0,77,210.88
1092,F3,173.333,317/1000,52,210.88
1093,F3,173.667,317/1000,52,210.88
1094,F2,174.0,1.0,56,210.88
1095,D3,174.0,333/1000,56,210.88
1096,F3,174.333,317/1000,52,210.88
1097,F3,174.667,317/1000,52,210.88
1098,F2,175.0,1.0,56,210.88
1099,E-3,175.0,333/1000,56,210.88
1100,F3,175.333,317/1000,52,210.88
1101,F3,175.667,317/1000,52,210.88
1102,B-4,176.0,0.5,75,210.88
1103,B-3,176.0,0.5,75,210.88
1104,F4,176.0,0.5,75,210.88
1105,F2,176.0,2.0,51,210.88
1106,E-3,176.0,2.0,51,210.88
1107,F3,176.333,317/1000,50,210.88
1108,A3,176.5,0.5,68,210.88
1109,F4,176.5,0.5,68,210.88
1110,A4,176.5,0.5,68,210.88
1111,F3,176.667,317/1000,50,210.88
1112,F3,177.0,317/1000,50,210.88
1113,D4,177.0,1.0,78,210.88
1114,F4,177.0,1.0,78,210.88
1115,D5,177.0,1.0,78,210.88
1116,F3,177.333,317/1000,50,210.88
1117,F3,177.667,317/1000,49,210.88
1118,F3,178.0,317/1000,49,210.88
1119,A3,178.0,1.0,74,210.88
1120,F4,178.0,1.0,74,210.88
1121,A4,178.0,1.0,74,210.88
1122,F3,178.333,317/1000,49,210.88
1123,F3,178.667,317/1000,49,210.88
1124,F3,179.0,317/1000,48,210.88
1125,B-3,179.0,1.0,78,210.88
1126,B-4,179.0,1.0,78,210.88
1127,F4,179.0,1.0,78,210.88
1128,F3,179.333,317/1000,48,210.88
1129,F3,179.667,317/1000,48,210.88
1130,C4,180.0,1.0,70,210.88
1131,C5,180.0,1.0,70,210.88
1132,A4,180.0,1.0,70,210.88
1133,F4,180.0,1.0,70,210.88
1134,D3,180.0,4.0,46,210.88
1135,F2,180.0,4.0,46,210.88
1136,F3,180.333,317/1000,42,210.88
1137,F3,180.667,317/1000,39,210.88
1138,F4,181.0,4.0,75,210.88
1139,F3,181.0,317/1000,38,210.88
1140,C5,181.0,4.0,76,210.88
1141,C4,181.0,4.0,76,210.88
1142,A4,181.0,4.0,76,210.88
1143,F3,181.333,317/1000,38,210.88
1144,F3,181.667,317/1000,37,210.88
1145,F3,182.0,317/1000,37,210.88
1146,F3,182.333,317/1000,36,210.88
1147,F3,182.667,317/1000,35,210.88
1148,F3,183.0,317/1000,36,210.88
1149,F3,183.333,317/1000,40,210.88
1150,F3,183.667,317/1000,44,210.88
1151,F3,184.0,333/1000,50,210.88
1152,G#2,184.333,317/1000,42,210.88
1153,G#2,184.667,317/1000,42,210.88
1154,F4,185.0,2.0,75,210.88
1155,G#2,185.0,317/1000,42,210.88
1156,B4,185.0,3.0,65,210.88
1157,B3,185.0,3.0,65,210.88
1158,G#4,185.0,3.0,65,210.88
1159,G#2,185.333,317/1000,42,210.88
1160,G#2,185.667,317/1000,42,210.88
1161,G#2,186.0,317/1000,42,210.88
1162,G#2,186.333,317/1000,42,210.88
1163,G#2,186.667,317/1000,42,210.88
1164,G#2,187.0,317/1000,42,210.88
1165,G#2,187.333,317/1000,42,210.88
1166,G#2,187.667,317/1000,42,210.88
1167,G#2,188.0,333/1000,46,210.88
1168,G#4,188.0,1.0,58,210.88
1169,B4,188.0,1.0,58,210.88
1170,D4,188.0,1.0,58,210.88
1171,F4,188.0,1.0,58,210.88
1172,C#2,188.333,317/1000,46,210.88
1173,C#2,188.667,317/1000,46,210.88
1174,C#2,189.0,317/1000,53,210.88
1175,G#4,189.0,3.0,58,210.88
1176,D4,189.0,3.0,58,210.88
1177,F4,189.0,3.0,58,210.88
1178,B4,189.0,3.0,58,210.88
1179,C#2,189.333,317/1000,53,210.88
1180,C#2,189.667,317/1000,53,210.88
1181,C#2,190.0,317/1000,53,210.88
1182,C#2,190.333,317/1000,52,210.88
1183,C#2,190.667,317/1000,52,210.88
1184,C#2,191.0,0.25,65,210.88
1185,B1,191.25,0.25,59,210.88
1186,A1,191.5,0.25,61,210.88
1187,G#1,191.75,0.25,59,210.88
1188,F#1,192.0,0.25,65,210.88
1189,G#4,192.0,1.0,69,210.88
1190,D5,192.0,1.0,69,210.88
1191,B4,192.0,1.0,69,210.88
1192,F4,192.0,1.0,69,210.88
1193,D5,193.0,2.0,86,210.88
1194,F4,193.0,2.5,72,210.88
1195,G#4,193.0,2.5,72,210.88
1196,B4,193.0,2.5,72,210.88
1197,C#5,195.0,0.5,86,210.88
1198,C#4,195.0,1.0,42,210.88
1199,F#3,195.0,1.0,42,210.88
1200,F#3,196.0,2.5,42,210.88
1201,C#4,196.0,1.5,42,210.88
1202,C#5,196.0,0.5,84,210.88
1203,G#4,196.0,0.5,84,210.88
1204,B4,196.0,0.5,84,210.88
1205,F5,196.0,0.5,84,210.88
1206,C#5,197.0,333/1000,82,210.88
1207,A4,197.0,333/1000,82,210.88
1208,F#5,197.0,333/1000,82,210.88
1209,C#5,197.333,317/1000,31,210.88
1210,A4,197.333,317/1000,31,210.88
1211,B3,197.5,0.5,38,210.88
1212,C#5,197.667,317/1000,33,210.88
1213,A4,197.667,317/1000,33,210.88
1214,A3,198.0,0.5,41,210.88
1215,C#5,198.0,317/1000,35,210.88
1216,A4,198.0,317/1000,35,210.88
1217,A4,198.333,317/1000,32,210.88
1218,C#5,198.333,317/1000,32,210.88
1219,A4,198.667,317/1000,32,210.88
1220,C#5,198.667,317/1000,32,210.88
1221,C#5,199.0,317/1000,35,210.88
1222,A4,199.0,317/1000,35,210.88
1223,A3,199.0,1.0,38,210.88
1224,F#3,199.0,1.0,38,210.88
1225,A4,199.333,317/1000,32,210.88
1226,C#5,199.333,317/1000,32,210.88
1227,A4,199.667,317/1000,32,210.88
1228,C#5,199.667,317/1000,32,210.88
1229,F#5,200.0,1.0,54,210.88
1230,A3,200.0,1.5,41,210.88
1231,F#3,200.0,2.0,41,210.88
1232,C#5,200.333,317/1000,30,210.88
1233,A4,200.333,317/1000,30,210.88
1234,A4,200.667,317/1000,30,210.88
1235,C#5,200.667,317/1000,30,210.88
1236,F#5,201.0,1.0,53,210.88
1237,A4,201.333,317/1000,30,210.88
1238,C#5,201.333,317/1000,30,210.88
1239,G#3,201.5,0.5,41,210.88
1240,A4,201.667,317/1000,30,210.88
1241,C#5,201.667,317/1000,30,210.88
1242,A5,202.0,1.0,53,210.88
1243,F#3,202.0,0.5,44,210.88
1244,A4,202.333,317/1000,28,210.88
1245,C#5,202.333,317/1000,28,210.88
1246,A4,202.667,317/1000,28,210.88
1247,C#5,202.667,317/1000,28,210.88
1248,F#5,203.0,1.0,53,210.88
1249,F#3,203.0,1.0,34,210.88
1250,A4,203.333,317/1000,30,210.88
1251,C#5,203.333,317/1000,30,210.88
1252,C#5,203.667,317/1000,30,210.88
1253,A4,203.667,317/1000,30,210.88
1254,A5,204.0,1.0,53,210.88
1255,F#3,204.0,1.0,41,210.88
1256,C#5,204.333,317/1000,28,210.88
1257,A4,204.333,317/1000,28,210.88
1258,A4,204.667,317/1000,28,210.88
1259,C#5,204.667,317/1000,28,210.88
1260,A5,205.0,1.0,56,210.88
1261,G#3,205.0,1.0,42,210.88
1262,F#5,205.333,317/1000,30,210.88
1263,C#5,205.333,317/1000,30,210.88
1264,F#5,205.667,317/1000,30,210.88
1265,C#5,205.667,317/1000,30,210.88
1266,C#6,206.0,1.0,55,210.88
1267,A3,206.0,1.0,47,210.88
1268,F#5,206.333,317/1000,30,210.88
1269,C#5,206.333,317/1000,30,210.88
1270,C#5,206.667,317/1000,30,210.88
1271,F#5,206.667,317/1000,30,210.88
1272,A5,207.0,1.0,55,210.88
1273,E3,207.0,1.0,34,210.88
1274,B3,207.0,1.0,34,210.88
1275,C#5,207.333,317/1000,30,210.88
1276,F#5,207.333,317/1000,30,210.88
1277,C#5,207.667,317/1000,30,210.88
1278,F#5,207.667,317/1000,30,210.88
1279,C#6,208.0,1.0,56,210.88
1280,C#4,208.0,1.0,43,210.88
1281,A3,208.0,1.0,43,210.88
1282,F#5,208.333,317/1000,30,210.88
1283,C#5,208.333,317/1000,30,210.88
1284,C#5,208.667,317/1000,30,210.88
1285,F#5,208.667,317/1000,30,210.88
1286,C#5,209.0,1.0,56,210.88
1287,G#3,209.0,1.0,42,210.88
1288,C#4,209.0,1.0,42,210.88
1289,F#4,209.333,317/1000,30,210.88
1290,A4,209.333,317/1000,30,210.88
1291,F#4,209.667,317/1000,30,210.88
1292,A4,209.667,317/1000,30,210.88
1293,F5,210.0,1.0,56,210.88
1294,C#4,210.0,1.0,42,210.88
1295,F#3,210.0,1.0,42,210.88
1296,C#5,210.333,317/1000,31,210.88
1297,B4,210.333,317/1000,31,210.88
1298,F4,210.333,317/1000,31,210.88
1299,F4,210.667,317/1000,32,210.88
1300,C#5,210.667,317/1000,32,210.88
1301,B4,210.667,317/1000,32,210.88
1302,F#5,211.0,1.0,58,210.88
1303,D4,211.0,1.0,36,210.88
1304,E3,211.0,1.0,36,210.88
1305,C#5,211.333,317/1000,32,210.88
1306,F#4,211.333,317/1000,32,210.88
1307,A4,211.333,317/1000,32,210.88
1308,C#5,211.667,317/1000,33,210.88
1309,F#4,211.667,317/1000,33,210.88
1310,A4,211.667,317/1000,33,210.88
1311,G#5,212.0,1.0,62,210.88
1312,D4,212.0,2.0,36,210.88
1313,E3,212.0,2.0,36,210.88
1314,D5,212.333,317/1000,34,210.88
1315,E5,212.333,317/1000,34,210.88
1316,G#4,212.333,317/1000,34,210.88
1317,E5,212.667,317/1000,34,210.88
1318,G#4,212.667,317/1000,34,210.88
1319,D5,212.667,317/1000,34,210.88
1320,A5,213.0,1.0,61,210.88
1321,E5,213.333,317/1000,32,210.88
1322,A4,213.333,317/1000,32,210.88
1323,C#5,213.333,317/1000,32,210.88
1324,E5,213.667,317/1000,31,210.88
1325,A4,213.667,317/1000,31,210.88
1326,C#5,213.667,317/1000,31,210.88
1327,B5,214.0,1.0,60,210.88
1328,F3,214.0,1.0,34,210.88
1329,C#4,214.0,1.0,34,210.88
1330,B4,214.333,317/1000,33,210.88
1331,C#5,214.333,317/1000,33,210.88
1332,F5,214.333,317/1000,33,210.88
1333,C#5,214.667,317/1000,32,210.88
1334,F5,214.667,317/1000,32,210.88
1335,B4,214.667,317/1000,32,210.88
1336,A5,215.0,1.0,57,210.88
1337,F#3,215.0,1.0,33,210.88
1338,C#4,215.0,1.0,33,210.88
1339,A4,215.333,317/1000,31,210.88
1340,F#5,215.333,317/1000,31,210.88
1341,C#5,215.333,317/1000,31,210.88
1342,A4,215.667,317/1000,30,210.88
1343,F#5,215.667,317/1000,30,210.88
1344,C#5,215.667,317/1000,30,210.88
1345,G#5,216.0,1.0,56,210.88
1346,F#3,216.0,2.5,32,210.88
1347,C#4,216.0,1.5,42,210.88
1348,G#4,216.333,317/1000,30,210.88
1349,E5,216.333,317/1000,30,210.88
1350,B4,216.333,317/1000,30,210.88
1351,G#4,216.667,317/1000,30,210.88
1352,E5,216.667,317/1000,30,210.88
1353,B4,216.667,317/1000,30,210.88
1354,G#5,217.0,2.0,54,210.88
1355,G#4,217.333,317/1000,28,210.88
1356,B4,217.333,317/1000,28,210.88
1357,E5,217.333,317/1000,28,210.88
1358,B3,217.5,0.5,38,210.88
1359,G#4,217.667,317/1000,28,210.88
1360,E5,217.667,317/1000,28,210.88
1361,B4,217.667,317/1000,28,210.88
1362,A3,218.0,0.5,41,210.88
1363,B4,218.0,317/1000,28,210.88
1364,G#4,218.0,317/1000,28,210.88
1365,E5,218.0,317/1000,28,210.88
1366,B4,218.333,317/1000,28,210.88
1367,G#4,218.333,317/1000,28,210.88
1368,E5,218.333,317/1000,28,210.88
1369,B4,218.667,317/1000,29,210.88
1370,G#4,218.667,317/1000,29,210.88
1371,E5,218.667,317/1000,29,210.88
1372,G#5,219.0,1.0,55,210.88
1373,A3,219.0,1.0,35,210.88
1374,F#3,219.0,1.0,35,210.88
1375,G#4,219.333,317/1000,26,210.88
1376,C#5,219.333,317/1000,26,210.88
1377,B4,219.333,317/1000,26,210.88
1378,B4,219.667,317/1000,27,210.88
1379,C#5,219.667,317/1000,27,210.88
1380,G#4,219.667,317/1000,27,210.88
1381,A5,220.0,1.0,54,210.88
1382,A3,220.0,1.5,41,210.88
1383,F#3,220.0,2.0,34,210.88
1384,C#5,220.333,317/1000,27,210.88
1385,A4,220.333,317/1000,27,210.88
1386,A4,220.667,333/1000,27,210.88
1387,C#5,220.667,333/1000,27,210.88
1388,F#5,221.0,1.0,53,210.88
1389,A4,221.333,317/1000,30,210.88
1390,C#5,221.333,317/1000,30,210.88
1391,G#3,221.5,0.5,41,210.88
1392,A4,221.667,317/1000,30,210.88
1393,C#5,221.667,317/1000,30,210.88
1394,A5,222.0,1.0,53,210.88
1395,F#3,222.0,0.5,44,210.88
1396,C#5,222.333,317/1000,28,210.88
1397,A4,222.333,317/1000,28,210.88
1398,A4,222.667,317/1000,28,210.88
1399,C#5,222.667,317/1000,28,210.88
1400,F#5,223.0,1.0,53,210.88
1401,F#3,223.0,1.0,34,210.88
1402,A4,223.333,317/1000,30,210.88
1403,C#5,223.333,317/1000,30,210.88
1404,A4,223.667,317/1000,30,210.88
1405,C#5,223.667,317/1000,30,210.88
1406,A5,224.0,1.0,53,210.88
1407,F#3,224.0,1.0,41,210.88
1408,A4,224.333,317/1000,28,210.88
1409,C#5,224.333,317/1000,28,210.88
1410,C#5,224.667,317/1000,28,210.88
1411,A4,224.667,317/1000,28,210.88
1412,A5,225.0,1.0,56,210.88
1413,G#3,225.0,1.0,42,210.88
1414,C#5,225.333,317/1000,30,210.88
1415,F#5,225.333,317/1000,30,210.88
1416,C#5,225.667,317/1000,30,210.88
1417,F#5,225.667,317/1000,30,210.88
1418,C#6,226.0,1.0,55,210.88
1419,A3,226.0,1.0,47,210.88
1420,C#5,226.333,317/1000,30,210.88
1421,F#5,226.333,317/1000,30,210.88
1422,F#5,226.667,317/1000,30,210.88
1423,C#5,226.667,317/1000,30,210.88
1424,A5,227.0,1.0,55,210.88
1425,E3,227.0,1.0,34,210.88
1426,B3,227.0,1.0,34,210.88
1427,F#5,227.333,317/1000,30,210.88
1428,C#5,227.333,317/1000,30,210.88
1429,C#5,227.667,317/1000,30,210.88
1430,F#5,227.667,317/1000,30,210.88
1431,C#6,228.0,1.0,56,210.88
1432,A3,228.0,1.0,43,210.88
1433,C#4,228.0,1.0,43,210.88
1434,C#5,228.333,317/1000,30,210.88
1435,F#5,228.333,317/1000,30,210.88
1436,F#5,228.667,317/1000,30,210.88
1437,C#5,228.667,317/1000,30,210.88
1438,C#5,229.0,1.0,56,210.88
1439,C#4,229.0,1.0,42,210.88
1440,G#3,229.0,1.0,42,210.88
1441,A4,229.333,317/1000,30,210.88
1442,F#4,229.333,317/1000,30,210.88
1443,A4,229.667,317/1000,30,210.88
1444,F#4,229.667,317/1000,30,210.88
1445,F5,230.0,1.0,56,210.88
1446,F#3,230.0,1.0,42,210.88
1447,C#4,230.0,1.0,42,210.88
1448,C#5,230.333,317/1000,31,210.88
1449,F4,230.333,317/1000,31,210.88
1450,B4,230.333,317/1000,31,210.88
1451,C#5,230.667,317/1000,32,210.88
1452,F4,230.667,317/1000,32,210.88
1453,B4,230.667,317/1000,32,210.88
1454,F#5,231.0,1.0,58,210.88
1455,E3,231.0,1.0,36,210.88
1456,D4,231.0,1.0,36,210.88
1457,A4,231.333,317/1000,32,210.88
1458,C#5,231.333,317/1000,32,210.88
1459,F#4,231.333,317/1000,32,210.88
1460,A4,231.667,317/1000,33,210.88
1461,C#5,231.667,317/1000,33,210.88
1462,F#4,231.667,317/1000,33,210.88
1463,G#5,232.0,1.0,62,210.88
1464,E3,232.0,2.0,36,210.88
1465,D4,232.0,2.0,36,210.88
1466,D5,232.333,317/1000,34,210.88
1467,E5,232.333,317/1000,34,210.88
1468,G#4,232.333,317/1000,34,210.88
1469,D5,232.667,317/1000,34,210.88
1470,E5,232.667,317/1000,34,210.88
1471,G#4,232.667,317/1000,34,210.88
1472,A5,233.0,1.0,61,210.88
1473,C#5,233.333,317/1000,32,210.88
1474,A4,233.333,317/1000,32,210.88
1475,E5,233.333,317/1000,32,210.88
1476,C#5,233.667,317/1000,31,210.88
1477,E5,233.667,317/1000,31,210.88
1478,A4,233.667,317/1000,31,210.88
1479,B5,234.0,1.0,60,210.88
1480,C#4,234.0,333/1000,37,210.88
1481,A3,234.0,333/1000,37,210.88
1482,E4,234.333,317/1000,29,210.88
1483,B4,234.333,317/1000,33,210.88
1484,F5,234.333,317/1000,33,210.88
1485,C#5,234.333,317/1000,33,210.88
1486,E4,234.667,317/1000,29,210.88
1487,B4,234.667,317/1000,32,210.88
1488,F5,234.667,317/1000,32,210.88
1489,C#5,234.667,317/1000,32,210.88
1490,A5,235.0,1.0,57,210.88
1491,E4,235.0,317/1000,33,210.88
1492,E4,235.333,317/1000,29,210.88
1493,F#5,235.333,317/1000,31,210.88
1494,C#5,235.333,317/1000,31,210.88
1495,A4,235.333,317/1000,31,210.88
1496,E4,235.667,317/1000,29,210.88
1497,A4,235.667,317/1000,30,210.88
1498,F#5,235.667,317/1000,30,210.88
1499,C#5,235.667,317/1000,30,210.88
1500,G#5,236.0,1.0,56,210.88
1501,B-3,236.0,0.25,33,210.88
1502,E4,236.25,0.25,27,210.88
1503,E5,236.333,317/1000,30,210.88
1504,G#4,236.333,317/1000,30,210.88
1505,B4,236.333,317/1000,30,210.88
1506,C#4,236.5,0.25,27,210.88
1507,E5,236.667,317/1000,30,210.88
1508,G#4,236.667,317/1000,30,210.88
1509,B4,236.667,317/1000,30,210.88
1510,E4,236.75,0.25,27,210.88
1511,G#5,237.0,2.0,54,210.88
1512,B-3,237.0,0.25,33,210.88
1513,E4,237.25,0.25,28,210.88
1514,E5,237.333,317/1000,28,210.88
1515,B4,237.333,317/1000,28,210.88
1516,G#4,237.333,317/1000,28,210.88
1517,C#4,237.5,0.25,28,210.88
1518,B4,237.667,317/1000,28,210.88
1519,G#4,237.667,317/1000,28,210.88
1520,E5,237.667,317/1000,28,210.88
1521,E4,237.75,0.25,29,210.88
1522,B-3,238.0,0.25,33,210.88
1523,B4,238.0,317/1000,28,210.88
1524,G#4,238.0,317/1000,28,210.88
1525,E5,238.0,317/1000,28,210.88
1526,E4,238.25,0.25,29,210.88
1527,B4,238.333,317/1000,28,210.88
1528,G#4,238.333,317/1000,28,210.88
1529,E5,238.333,317/1000,28,210.88
1530,C#4,238.5,0.25,29,210.88
1531,B4,238.667,317/1000,29,210.88
1532,G#4,238.667,317/1000,29,210.88
1533,E5,238.667,317/1000,29,210.88
1534,E4,238.75,0.25,29,210.88
1535,A3,239.0,0.25,33,210.88
1536,C#5,239.0,0.5,43,210.88
1537,E5,239.0,0.5,43,210.88
1538,A4,239.0,0.5,43,210.88
1539,A5,239.0,0.5,43,210.88
1540,E4,239.25,0.25,29,210.88
1541,C#4,239.5,0.25,29,210.88
1542,E4,239.75,0.25,29,210.88
1543,E5,240.0,1.0,52,210.88
1544,G3,240.0,0.25,33,210.88
1545,E4,240.25,0.25,27,210.88
1546,C#4,240.5,0.25,27,210.88
1547,E4,240.75,0.25,27,210.88
1548,E5,241.0,1.5,54,210.88
1549,G3,241.0,0.25,33,210.88
1550,E4,241.25,0.25,28,210.88
1551,C#4,241.5,0.25,28,210.88
1552,E4,241.75,0.25,29,210.88
1553,G3,242.0,0.25,33,210.88
1554,E4,242.25,0.25,29,210.88
1555,D5,242.5,0.5,51,210.88
1556,C#4,242.5,0.25,29,210.88
1557,E4,242.75,0.25,29,210.88
1558,C#5,243.0,0.5,51,210.88
1559,F#3,243.0,0.25,33,210.88
1560,E4,243.25,0.25,29,210.88
1561,C#4,243.5,0.25,29,210.88
1562,E4,243.75,0.25,29,210.88
1563,C#5,244.0,1.0,52,210.88
1564,F#3,244.0,0.25,33,210.88
1565,E4,244.25,0.25,28,210.88
1566,C#4,244.5,0.25,28,210.88
1567,E4,244.75,0.25,28,210.88
1568,C#5,245.0,1.5,54,210.88
1569,F#3,245.0,0.25,34,210.88
1570,D4,245.25,0.25,28,210.88
1571,B3,245.5,0.25,28,210.88
1572,D4,245.75,0.25,29,210.88
1573,F#3,246.0,0.25,35,210.88
1574,C#4,246.25,0.25,29,210.88
1575,B4,246.5,0.5,51,210.88
1576,B-3,246.5,0.25,29,210.88
1577,C#4,246.75,0.25,29,210.88
1578,B-4,247.0,0.5,51,210.88
1579,F#3,247.0,0.25,36,210.88
1580,D4,247.25,0.25,31,210.88
1581,B3,247.5,0.25,31,210.88
1582,D4,247.75,0.25,31,210.88
1583,F#3,248.0,0.25,37,210.88
1584,B-4,248.0,1.0,52,210.88
1585,F#4,248.0,1.0,52,210.88
1586,E4,248.25,0.25,31,210.88
1587,C#4,248.5,0.25,32,210.88
1588,E4,248.75,0.25,32,210.88
1589,G3,249.0,0.25,37,210.88
1590,B-4,249.0,1.0,48,210.88
1591,F#4,249.0,1.0,48,210.88
1592,E4,249.25,0.25,31,210.88
1593,C#4,249.5,0.25,31,210.88
1594,E4,249.75,0.25,31,210.88
1595,G#3,250.0,0.25,38,210.88
1596,F#4,250.0,1.0,51,210.88
1597,B4,250.0,1.0,51,210.88
1598,E4,250.25,0.25,32,210.88
1599,C#4,250.5,0.25,32,210.88
1600,E4,250.75,0.25,33,210.88
1601,A3,251.0,0.25,39,210.88
1602,F#4,251.0,1.0,50,210.88
1603,B-4,251.0,1.0,50,210.88
1604,C#5,251.0,1.0,50,210.88
1605,E4,251.25,0.25,32,210.88
1606,C#4,251.5,0.25,34,210.88
1607,E4,251.75,0.25,34,210.88
1608,A3,252.0,0.25,33,210.88
1609,F#4,252.0,1.0,51,210.88
1610,B4,252.0,1.0,51,210.88
1611,D5,252.0,1.0,51,210.88
1612,E4,252.25,0.25,27,210.88
1613,C#4,252.5,0.25,27,210.88
1614,E4,252.75,0.25,27,210.88
1615,B-3,253.0,0.25,33,210.88
1616,F#4,253.0,1.0,53,210.88
1617,E5,253.0,1.0,53,210.88
1618,C#5,253.0,1.0,53,210.88
1619,E4,253.25,0.25,28,210.88
1620,C#4,253.5,0.25,28,210.88
1621,E4,253.75,0.25,29,210.88
1622,B-3,254.0,0.25,33,210.88
1623,C#5,254.0,1.0,54,210.88
1624,G4,254.0,1.0,54,210.88
1625,E5,254.0,1.0,54,210.88
1626,E4,254.25,0.25,29,210.88
1627,C#4,254.5,0.25,29,210.88
1628,E4,254.75,0.25,29,210.88
1629,A3,255.0,0.25,33,210.88
1630,C#5,255.0,1.0,55,210.88
1631,G#4,255.0,1.0,55,210.88
1632,E5,255.0,1.0,55,210.88
1633,E4,255.25,0.25,29,210.88
1634,C#4,255.5,0.25,29,210.88
1635,E4,255.75,0.25,29,210.88
1636,G3,256.0,0.25,33,210.88
1637,C#5,256.0,1.0,56,210.88
1638,A4,256.0,1.0,56,210.88
1639,E5,256.0,1.0,56,210.88
1640,E4,256.25,0.25,27,210.88
1641,C#4,256.5,0.25,27,210.88
1642,E4,256.75,0.25,27,210.88
1643,E5,257.0,1.25,59,210.88
1644,G3,257.0,0.25,33,210.88
1645,E4,257.25,0.25,28,210.88
1646,C#4,257.5,0.25,28,210.88
1647,E4,257.75,0.25,29,210.88
1648,G3,258.0,0.25,33,210.88
1649,F5,258.25,0.25,51,210.88
1650,E4,258.25,0.25,29,210.88
1651,E5,258.5,0.25,53,210.88
1652,C#4,258.5,0.25,29,210.88
1653,D5,258.75,0.25,51,210.88
1654,E4,258.75,0.25,31,210.88
1655,C#5,259.0,0.5,56,210.88
1656,F#3,259.0,0.25,36,210.88
1657,E4,259.25,0.25,31,210.88
1658,C#4,259.5,0.25,31,210.88
1659,E4,259.75,0.25,31,210.88
1660,C#5,260.0,1.0,57,210.88
1661,F#3,260.0,0.25,36,210.88
1662,E4,260.25,0.25,30,210.88
1663,C#4,260.5,0.25,30,210.88
1664,E4,260.75,0.25,30,210.88
1665,C#5,261.0,1.25,59,210.88
1666,F#3,261.0,0.25,37,210.88
1667,D4,261.25,0.25,30,210.88
1668,B3,261.5,0.25,30,210.88
1669,D4,261.75,0.25,31,210.88
1670,F#3,262.0,0.25,38,210.88
1671,D5,262.25,0.25,53,210.88
1672,C#4,262.25,0.25,31,210.88
1673,C#5,262.5,0.25,53,210.88
1674,B-3,262.5,0.25,31,210.88
1675,B4,262.75,0.25,53,210.88
1676,C#4,262.75,0.25,31,210.88
1677,B-4,263.0,0.5,56,210.88
1678,F#3,263.0,0.25,39,210.88
1679,D4,263.25,0.25,34,210.88
1680,B3,263.5,0.25,34,210.88
1681,D4,263.75,0.25,34,210.88
1682,F#3,264.0,0.25,40,210.88
1683,F#4,264.0,1.0,57,210.88
1684,B-4,264.0,1.0,57,210.88
1685,E4,264.25,0.25,34,210.88
1686,C#4,264.5,0.25,35,210.88
1687,E4,264.75,0.25,35,210.88
1688,G3,265.0,0.25,40,210.88
1689,B-4,265.0,0.75,52,210.88
1690,F#4,265.0,0.75,52,210.88
1691,E4,265.25,0.25,34,210.88
1692,C#4,265.5,0.25,34,210.88
1693,E4,265.75,0.25,34,210.88
1694,B-4,265.75,0.25,52,210.88
1695,F#4,265.75,0.25,52,210.88
1696,G#3,266.0,0.25,41,210.88
1697,B4,266.0,0.75,56,210.88
1698,F#4,266.0,0.75,56,210.88
1699,E4,266.25,0.25,35,210.88
1700,C#4,266.5,0.25,35,210.88
1701,E4,266.75,0.25,36,210.88
1702,F#4,266.75,0.25,56,210.88
1703,B4,266.75,0.25,56,210.88
1704,A3,267.0,0.25,42,210.88
1705,F#4,267.0,0.75,54,210.88
1706,B-4,267.0,0.75,54,210.88
1707,C#5,267.0,0.75,54,210.88
1708,E4,267.25,0.25,35,210.88
1709,C#4,267.5,0.25,37,210.88
1710,E4,267.75,0.25,37,210.88
1711,F#4,267.75,0.25,54,210.88
1712,B-4,267.75,0.25,54,210.88
1713,C#5,267.75,0.25,54,210.88
1714,A3,268.0,0.25,36,210.88
1715,F#4,268.0,0.75,55,210.88
1716,D5,268.0,0.75,55,210.88
1717,B4,268.0,0.75,55,210.88
1718,E4,268.25,0.25,29,210.88
1719,C#4,268.5,0.25,29,210.88
1720,E4,268.75,0.25,29,210.88
1721,B4,268.75,0.25,55,210.88
1722,F#4,268.75,0.25,55,210.88
1723,D5,268.75,0.25,55,210.88
1724,B-3,269.0,0.25,36,210.88
1725,C#5,269.0,0.75,58,210.88
1726,F#4,269.0,0.75,58,210.88
1727,E5,269.0,0.75,58,210.88
1728,E4,269.25,0.25,30,210.88
1729,C#4,269.5,0.25,30,210.88
1730,E4,269.75,0.25,31,210.88
1731,C#5,269.75,0.25,58,210.88
1732,F#4,269.75,0.25,58,210.88
1733,E5,269.75,0.25,58,210.88
1734,A3,270.0,0.25,36,210.88
1735,C#5,270.0,0.75,59,210.88
1736,G4,270.0,0.75,59,210.88
1737,E5,270.0,0.75,59,210.88
1738,E4,270.25,0.25,31,210.88
1739,C#4,270.5,0.25,31,210.88
1740,E4,270.75,0.25,31,210.88
1741,C#5,270.75,0.25,59,210.88
1742,E5,270.75,0.25,59,210.88
1743,G4,270.75,0.25,59,210.88
1744,G3,271.0,0.25,36,210.88
1745,E5,271.0,0.75,60,210.88
1746,G#4,271.0,0.75,60,210.88
1747,C#5,271.0,0.75,60,210.88
1748,E4,271.25,0.25,31,210.88
1749,C#4,271.5,0.25,31,210.88
1750,E4,271.75,0.25,31,210.88
1751,E5,271.75,0.25,60,210.88
1752,G#4,271.75,0.25,60,210.88
1753,C#5,271.75,0.25,60,210.88
1754,F3,272.0,0.25,36,210.88
1755,E5,272.0,1.0,62,210.88
1756,A4,272.0,1.0,62,210.88
1757,C#5,272.0,1.0,62,210.88
1758,D4,272.25,0.25,29,210.88
1759,A3,272.5,0.25,29,210.88
1760,D4,272.75,0.25,29,210.88
1761,E5,273.0,1.75,59,210.88
1762,E3,273.0,0.25,36,210.88
1763,D4,273.25,0.25,30,210.88
1764,G3,273.5,0.25,30,210.88
1765,D4,273.75,0.25,31,210.88
1766,D3,274.0,0.25,36,210.88
1767,D4,274.25,0.25,31,210.88
1768,F3,274.5,0.25,31,210.88
1769,D5,274.75,0.25,56,210.88
1770,D4,274.75,0.25,31,210.88
1771,C#5,275.0,0.5,56,210.88
1772,F3,275.0,0.25,36,210.88
1773,D4,275.25,0.25,31,210.88
1774,A3,275.5,0.25,31,210.88
1775,D4,275.75,0.25,31,210.88
1776,C#5,276.0,1.0,57,210.88
1777,A3,276.0,0.25,36,210.88
1778,E4,276.25,0.25,29,210.88
1779,C#4,276.5,0.25,29,210.88
1780,E4,276.75,0.25,29,210.88
1781,E5,276.875,0.125,49,210.88
1782,D5,277.0,0.25,60,210.88
1783,B-3,277.0,0.25,36,210.88
1784,C#5,277.25,0.25,57,210.88
1785,E4,277.25,0.25,30,210.88
1786,D5,277.5,0.25,57,210.88
1787,C#4,277.5,0.25,30,210.88
1788,E5,277.75,0.25,57,210.88
1789,E4,277.75,0.25,31,210.88
1790,G5,277.875,0.125,49,210.88
1791,F5,278.0,0.25,60,210.88
1792,A3,278.0,0.25,36,210.88
1793,E5,278.25,0.25,57,210.88
1794,E4,278.25,0.25,31,210.88
1795,F5,278.5,0.25,57,210.88
1796,C#4,278.5,0.25,31,210.88
1797,G5,278.75,0.25,57,210.88
1798,E4,278.75,0.25,31,210.88
1799,A5,279.0,0.5,59,210.88
1800,G3,279.0,0.25,37,210.88
1801,E4,279.25,0.25,32,210.88
1802,C#4,279.5,0.25,32,210.88
1803,E4,279.75,0.25,32,210.88
1804,A5,280.0,0.5,59,210.88
1805,F3,280.0,0.25,37,210.88
1806,F4,280.25,0.25,31,210.88
1807,F5,280.5,0.5,57,210.88
1808,D4,280.5,0.25,32,210.88
1809,F4,280.75,0.25,32,210.88
1810,E5,281.0,1.75,59,210.88
1811,F3,281.0,0.25,39,210.88
1812,F4,281.25,0.25,34,210.88
1813,D4,281.5,0.25,34,210.88
1814,F4,281.75,0.25,35,210.88
1815,F3,282.0,0.25,42,210.88
1816,F4,282.25,0.25,37,210.88
1817,D4,282.5,0.25,37,210.88
1818,D5,282.75,0.25,56,210.88
1819,F4,282.75,0.25,37,210.88
1820,C#5,283.0,0.5,56,210.88
1821,F3,283.0,0.25,44,210.88
1822,G4,283.25,0.25,39,210.88
1823,E-4,283.5,0.25,40,210.88
1824,G4,283.75,0.25,40,210.88
1825,F3,284.0,0.25,48,210.88
1826,C#6,284.0,1.0,63,210.88
1827,C#5,284.0,1.0,63,210.88
1828,F4,284.25,0.25,38,210.88
1829,D4,284.5,0.25,38,210.88
1830,F4,284.75,0.25,38,210.88
1831,F3,285.0,0.25,47,210.88
1832,D5,285.0,0.5,63,210.88
1833,D6,285.0,0.5,63,210.88
1834,E-4,285.25,0.25,39,210.88
1835,C4,285.5,0.25,39,210.88
1836,F5,285.5,0.5,64,210.88
1837,F6,285.5,0.5,64,210.88
1838,E-4,285.75,0.25,39,210.88
1839,F3,286.0,0.25,42,210.88
1840,G5,286.0,0.5,64,210.88
1841,G6,286.0,0.5,64,210.88
1842,D4,286.25,0.25,36,210.88
1843,B-3,286.5,0.25,36,210.88
1844,A5,286.5,0.5,65,210.88
1845,A6,286.5,0.5,65,210.88
1846,D4,286.75,0.25,37,210.88
1847,F3,287.0,0.25,42,210.88
1848,B-5,287.0,1.0,66,210.88
1849,B-6,287.0,1.0,66,210.88
1850,C4,287.25,0.25,35,210.88
1851,G#3,287.5,0.25,35,210.88
1852,C4,287.75,0.25,35,210.88
1853,F3,288.0,0.25,35,210.88
1854,G6,288.0,1.0,69,210.88
1855,G5,288.0,1.0,69,210.88
1856,B3,288.25,0.25,29,210.88
1857,G#3,288.5,0.25,29,210.88
1858,B3,288.75,0.25,29,210.88
1859,F3,289.0,0.25,34,210.88
1860,F6,289.0,1.0,70,210.88
1861,F5,289.0,1.0,70,210.88
1862,B3,289.25,0.25,29,210.88
1863,G#3,289.5,0.25,29,210.88
1864,B3,289.75,0.25,29,210.88
1865,F3,290.0,0.25,33,210.88
1866,E-6,290.0,1.0,69,210.88
1867,E-5,290.0,1.0,69,210.88
1868,B3,290.25,0.25,29,210.88
1869,G#3,290.5,0.25,29,210.88
1870,B3,290.75,0.25,29,210.88
1871,F3,291.0,0.25,33,210.88
1872,D6,291.0,1.0,66,210.88
1873,D5,291.0,1.0,66,210.88
1874,B3,291.25,0.25,29,210.88
1875,G#3,291.5,0.25,29,210.88
1876,B3,291.75,0.25,29,210.88
1877,F3,292.0,0.25,31,210.88
1878,C6,292.0,1.0,65,210.88
1879,C5,292.0,1.0,65,210.88
1880,B3,292.25,0.25,27,210.88
1881,G#3,292.5,0.25,27,210.88
1882,B3,292.75,0.25,27,210.88
1883,F3,293.0,0.25,32,210.88
1884,B4,293.0,4.0,61,210.88
1885,B5,293.0,4.0,61,210.88
1886,B3,293.25,0.25,27,210.88
1887,G#3,293.5,0.25,27,210.88
1888,B3,293.75,0.25,27,210.88
1889,E3,294.0,0.25,32,210.88
1890,B3,294.25,0.25,26,210.88
1891,G#3,294.5,0.25,26,210.88
1892,B3,294.75,0.25,26,210.88
1893,D3,295.0,0.25,31,210.88
1894,B3,295.25,0.25,26,210.88
1895,G#3,295.5,0.25,26,210.88
1896,B3,295.75,0.25,26,210.88
1897,C3,296.0,0.25,31,210.88
1898,C4,296.25,0.25,24,210.88
1899,A3,296.5,0.25,24,210.88
1900,C4,296.75,0.25,24,210.88
1901,C3,297.0,0.25,30,210.88
1902,D4,297.25,0.25,25,210.88
1903,B-3,297.5,0.25,25,210.88
1904,B4,297.5,0.5,61,210.88
1905,B5,297.5,0.5,61,210.88
1906,D4,297.75,0.25,26,210.88
1907,B4,298.0,19/40,51,210.88
1908,C3,298.0,0.25,29,210.88
1909,C4,298.25,0.25,26,210.88
1910,B4,298.5,19/40,51,210.88
1911,A3,298.5,0.25,26,210.88
1912,C4,298.75,0.25,26,210.88
1913,B4,299.0,19/40,51,210.88
1914,C3,299.0,0.25,30,210.88
1915,D4,299.25,0.25,26,210.88
1916,B4,299.5,19/40,50,210.88
1917,B-3,299.5,0.25,26,210.88
1918,D4,299.75,0.25,26,210.88
1919,B4,300.0,19/40,50,210.88
1920,C3,300.0,0.25,31,210.88
1921,C4,300.25,0.25,24,210.88
1922,B4,300.5,19/40,50,210.88
1923,A3,300.5,0.25,24,210.88
1924,C4,300.75,0.25,24,210.88
1925,B4,301.0,19/40,50,210.88
1926,C3,301.0,0.25,30,210.88
1927,D4,301.25,0.25,25,210.88
1928,C5,301.5,1.75,53,210.88
1929,B-3,301.5,0.25,25,210.88
1930,D4,301.75,0.25,26,210.88
1931,C3,302.0,0.25,29,210.88
1932,C4,302.25,0.25,26,210.88
1933,A3,302.5,0.25,26,210.88
1934,C4,302.75,0.25,26,210.88
1935,C3,303.0,0.25,30,210.88
1936,D5,303.25,0.25,47,210.88
1937,D4,303.25,0.25,26,210.88
1938,C5,303.5,0.5,52,210.88
1939,B-3,303.5,0.25,26,210.88
1940,D4,303.75,0.25,26,210.88
1941,C3,304.0,0.25,31,210.88
1942,C4,304.25,0.25,24,210.88
1943,F5,304.5,0.125,49,210.88
1944,A3,304.5,0.25,24,210.88
1945,G5,304.625,0.125,43,210.88
1946,F5,304.75,0.125,44,210.88
1947,C4,304.75,0.25,24,210.88
1948,G5,304.875,0.125,44,210.88
1949,F5,305.0,0.125,44,210.88
1950,C3,305.0,0.25,30,210.88
1951,G5,305.125,0.125,46,210.88
1952,E5,305.25,0.125,51,210.88
1953,D4,305.25,0.25,26,210.88
1954,F5,305.375,0.125,44,210.88
1955,B-3,305.5,0.25,26,210.88
1956,A5,305.5,1.75,52,210.88
1957,A4,305.5,1.75,52,210.88
1958,D4,305.75,0.25,27,210.88
1959,C3,306.0,0.25,30,210.88
1960,C4,306.25,0.25,27,210.88
1961,A3,306.5,0.25,28,210.88
1962,C4,306.75,0.25,28,210.88
1963,C3,307.0,0.25,33,210.88
1964,D4,307.25,0.25,28,210.88
1965,G4,307.25,0.25,46,210.88
1966,G5,307.25,0.25,46,210.88
1967,B-3,307.5,0.25,28,210.88
1968,F4,307.5,0.5,48,210.88
1969,F5,307.5,0.5,48,210.88
1970,D4,307.75,0.25,28,210.88
1971,C3,308.0,0.25,34,210.88
1972,C4,308.25,0.25,26,210.88
1973,D5,308.5,1.0,54,210.88
1974,A3,308.5,0.25,26,210.88
1975,C4,308.75,0.25,26,210.88
1976,C3,309.0,0.25,33,210.88
1977,D4,309.25,0.25,27,210.88
1978,C5,309.5,1.75,58,210.88
1979,B-3,309.5,0.25,27,210.88
1980,D4,309.75,0.25,28,210.88
1981,C3,310.0,0.25,31,210.88
1982,C4,310.25,0.25,28,210.88
1983,A3,310.5,0.25,28,210.88
1984,C4,310.75,0.25,28,210.88
1985,C3,311.0,0.25,36,210.88
1986,D5,311.25,0.25,53,210.88
1987,D4,311.25,0.25,30,210.88
1988,C5,311.5,0.5,60,210.88
1989,B-3,311.5,0.25,30,210.88
1990,D4,311.75,0.25,30,210.88
1991,C3,312.0,0.25,42,210.88
1992,C4,312.25,0.25,35,210.88
1993,F6,312.5,0.125,53,210.88
1994,A3,312.5,0.25,35,210.88
1995,G6,312.625,0.125,47,210.88
1996,F6,312.75,0.125,48,210.88
1997,C4,312.75,0.25,35,210.88
1998,G6,312.875,0.125,48,210.88
1999,F6,313.0,0.125,48,210.88
2000,C3,313.0,0.25,44,210.88
2001,G6,313.125,0.125,50,210.88
2002,E6,313.25,0.125,55,210.88
2003,D4,313.25,0.25,37,210.88
2004,F6,313.375,0.125,48,210.88
2005,B-3,313.5,0.25,38,210.88
2006,A6,313.5,1.75,66,210.88
2007,A5,313.5,1.75,66,210.88
2008,D4,313.75,0.25,37,210.88
2009,C3,314.0,0.25,47,210.88
2010,C4,314.25,0.25,37,210.88
2011,A3,314.5,0.25,38,210.88
2012,C4,314.75,0.25,38,210.88
2013,C3,315.0,0.25,49,210.88
2014,C4,315.25,0.25,40,210.88
2015,G5,315.25,0.25,62,210.88
2016,G6,315.25,0.25,62,210.88
2017,B-3,315.5,0.25,40,210.88
2018,F5,315.5,0.5,67,210.88
2019,F6,315.5,0.5,67,210.88
2020,C4,315.75,0.25,40,210.88
2021,C3,316.0,4.0,44,210.88
2022,C4,316.0,4.0,44,210.88
2023,B-3,316.0,4.0,44,210.88
2024,D5,316.5,1.0,58,210.88
2025,F5,316.5,1.0,58,210.88
2026,B-5,316.5,1.0,58,210.88
2027,D6,316.5,1.0,58,210.88
2028,C5,317.5,1.0,64,210.88
2029,F5,317.5,1.0,64,210.88
2030,A5,317.5,1.0,64,210.88
2031,C6,317.5,1.0,64,210.88
2032,D5,318.5,1.0,66,210.88
2033,F5,318.5,1.0,66,210.88
2034,B-5,318.5,1.0,66,210.88
2035,D6,318.5,1.0,66,210.88
2036,F5,319.5,1.0,68,210.88
2037,A5,319.5,1.0,68,210.88
2038,C6,319.5,1.0,68,210.88
2039,F6,319.5,1.0,68,210.88
2040,F3,320.0,1.0,34,210.88
2041,A3,320.0,1.0,34,210.88
2042,C4,320.0,1.0,34,210.88
2043,G5,320.5,1.0,72,210.88
2044,C6,320.5,1.0,72,210.88
2045,E6,320.5,1.0,72,210.88
2046,G6,320.5,1.0,72,210.88
2047,G5,321.5,2.0,69,210.88
2048,C6,321.5,2.0,69,210.88
2049,E6,321.5,2.0,69,210.88
2050,G6,321.5,2.0,69,210.88
2051,F3,322.0,0.5,31,210.88
2052,A3,322.0,0.5,31,210.88
2053,C4,322.0,0.5,31,210.88
2054,F3,323.0,0.5,31,210.88
2055,C4,323.0,0.5,31,210.88
2056,E-4,323.0,0.5,31,210.88
2057,E6,323.5,333/1000,63,210.88
2058,C6,323.833,333/1000,54,210.88
2059,F3,324.0,1.0,34,210.88
2060,B-3,324.0,1.0,34,210.88
2061,D4,324.0,1.0,34,210.88
2062,G5,324.167,333/1000,54,210.88
2063,E5,324.5,333/1000,54,210.88
2064,G5,324.833,333/1000,52,210.88
2065,C6,325.167,333/1000,51,210.88
2066,F5,325.5,333/1000,53,210.88
2067,C6,325.833,333/1000,49,210.88
2068,F3,326.0,0.5,31,210.88
2069,B-3,326.0,0.5,31,210.88
2070,D4,326.0,0.5,31,210.88
2071,A5,326.167,167/1000,49,210.88
2072,F5,326.5,167/1000,53,210.88
2073,C5,326.833,167/1000,48,210.88
2074,F3,327.0,0.5,31,210.88
2075,D4,327.0,0.5,31,210.88
2076,F4,327.0,0.5,31,210.88
2077,A4,327.167,167/1000,46,210.88
2078,F4,327.5,167/1000,51,210.88
2079,A4,327.833,167/1000,46,210.88
2080,F3,328.0,1.0,34,210.88
2081,A3,328.0,1.0,34,210.88
2082,C4,328.0,1.0,34,210.88
2083,C5,328.167,167/1000,46,210.88
2084,A4,328.5,167/1000,53,210.88
2085,C5,328.833,167/1000,50,210.88
2086,F5,329.167,167/1000,50,210.88
2087,F5,329.5,333/1000,53,210.88
2088,D6,329.833,333/1000,49,210.88
2089,F3,330.0,0.5,32,210.88
2090,A3,330.0,0.5,32,210.88
2091,B-5,330.167,167/1000,49,210.88
2092,F5,330.5,167/1000,53,210.88
2093,D5,330.833,167/1000,48,210.88
2094,A3,331.0,0.5,32,210.88
2095,C4,331.0,0.5,32,210.88
2096,B-4,331.167,167/1000,46,210.88
2097,F4,331.5,167/1000,51,210.88
2098,B-4,331.833,167/1000,46,210.88
2099,C3,332.0,0.5,31,210.88
2100,A3,332.0,0.5,31,210.88
2101,C4,332.0,0.5,31,210.88
2102,D5,332.167,167/1000,46,210.88
2103,B-4,332.5,167/1000,53,210.88
2104,D5,332.833,167/1000,50,210.88
2105,C3,333.0,0.5,30,210.88
2106,D4,333.0,0.5,30,210.88
2107,B-3,333.0,0.5,30,210.88
2108,F5,333.167,167/1000,50,210.88
2109,F5,333.5,333/1000,53,210.88
2110,F6,333.833,333/1000,49,210.88
2111,C3,334.0,0.5,30,210.88
2112,A3,334.0,0.5,30,210.88
2113,C4,334.0,0.5,30,210.88
2114,C6,334.167,167/1000,49,210.88
2115,A5,334.5,167/1000,53,210.88
2116,F5,334.833,167/1000,48,210.88
2117,C3,335.0,0.5,30,210.88
2118,G3,335.0,0.5,30,210.88
2119,B-3,335.0,0.5,30,210.88
2120,C5,335.167,167/1000,46,210.88
2121,A4,335.5,167/1000,51,210.88
2122,F4,335.833,167/1000,46,210.88
2123,C3,336.0,0.5,31,210.88
2124,F#3,336.0,0.5,31,210.88
2125,A3,336.0,0.5,31,210.88
2126,C4,336.167,167/1000,46,210.88
2127,F4,336.5,167/1000,53,210.88
2128,A4,336.833,167/1000,50,210.88
2129,C3,337.0,0.5,30,210.88
2130,A3,337.0,0.5,30,210.88
2131,F#3,337.0,0.5,30,210.88
2132,C5,337.167,167/1000,50,210.88
2133,C5,337.5,333/1000,51,210.88
2134,F5,337.833,333/1000,47,210.88
2135,C3,338.0,0.5,31,210.88
2136,F#3,338.0,0.5,31,210.88
2137,A3,338.0,0.5,31,210.88
2138,F5,338.167,167/1000,47,210.88
2139,D5,338.5,333/1000,51,210.88
2140,G5,338.833,333/1000,48,210.88
2141,C3,339.0,0.5,33,210.88
2142,F#3,339.0,0.5,33,210.88
2143,A3,339.0,0.5,33,210.88
2144,G5,339.167,167/1000,48,210.88
2145,C5,339.5,333/1000,51,210.88
2146,F5,339.833,333/1000,47,210.88
2147,B-2,340.0,0.5,35,210.88
2148,F3,340.0,0.5,35,210.88
2149,B-3,340.0,0.5,35,210.88
2150,F5,340.167,167/1000,47,210.88
2151,C5,340.5,333/1000,51,210.88
2152,E5,340.833,333/1000,47,210.88
2153,B-2,341.0,0.5,33,210.88
2154,B-3,341.0,0.5,33,210.88
2155,F3,341.0,0.5,33,210.88
2156,E5,341.167,167/1000,47,210.88
2157,C5,341.5,333/1000,51,210.88
2158,E-5,341.833,333/1000,47,210.88
2159,C3,342.0,0.5,33,210.88
2160,F3,342.0,0.5,33,210.88
2161,A3,342.0,0.5,33,210.88
2162,E-5,342.167,167/1000,47,210.88
2163,C5,342.5,333/1000,52,210.88
2164,D5,342.833,333/1000,50,210.88
2165,C3,343.0,0.5,33,210.88
2166,G3,343.0,0.5,33,210.88
2167,B-3,343.0,0.5,33,210.88
2168,D5,343.167,167/1000,50,210.88
2169,F#4,343.5,333/1000,50,210.88
2170,A4,343.5,333/1000,50,210.88
2171,E-5,343.833,333/1000,50,210.88
2172,F3,344.0,333/1000,47,210.88
2173,E-5,344.167,167/1000,51,210.88
2174,C4,344.333,333/1000,44,210.88
2175,F#4,344.5,333/1000,52,210.88
2176,A4,344.5,333/1000,52,210.88
2177,A3,344.667,167/1000,44,210.88
2178,D5,344.833,333/1000,52,210.88
2179,F3,345.0,167/1000,47,210.88
2180,D5,345.167,167/1000,53,210.88
2181,C3,345.333,167/1000,43,210.88
2182,F4,345.5,333/1000,54,210.88
2183,B-4,345.5,333/1000,54,210.88
2184,A2,345.667,167/1000,41,210.88
2185,E-5,345.833,333/1000,54,210.88
2186,F2,346.0,167/1000,45,210.88
2187,E-5,346.167,167/1000,54,210.88
2188,A2,346.333,167/1000,41,210.88
2189,F4,346.5,333/1000,54,210.88
2190,B-4,346.5,333/1000,54,210.88
2191,C3,346.667,167/1000,41,210.88
2192,D5,346.833,333/1000,54,210.88
2193,A2,347.0,167/1000,47,210.88
2194,D5,347.167,167/1000,54,210.88
2195,C3,347.333,167/1000,45,210.88
2196,F4,347.5,333/1000,52,210.88
2197,A4,347.5,333/1000,52,210.88
2198,F3,347.667,167/1000,45,210.88
2199,C5,347.833,333/1000,53,210.88
2200,F3,348.0,333/1000,47,210.88
2201,C5,348.167,167/1000,52,210.88
2202,D4,348.333,333/1000,44,210.88
2203,E4,348.5,333/1000,52,210.88
2204,G4,348.5,333/1000,52,210.88
2205,B-3,348.667,167/1000,44,210.88
2206,C5,348.833,333/1000,52,210.88
2207,F3,349.0,167/1000,47,210.88
2208,C5,349.167,167/1000,52,210.88
2209,D3,349.333,167/1000,43,210.88
2210,F4,349.5,1.0,44,210.88
2211,A4,349.5,1.0,44,210.88
2212,C5,349.5,1.0,44,210.88
2213,B-2,349.667,167/1000,41,210.88
2214,F2,350.0,167/1000,45,210.88
2215,B-2,350.333,167/1000,41,210.88
2216,D3,350.667,167/1000,41,210.88
2217,B-2,351.0,167/1000,47,210.88
2218,D3,351.333,167/1000,45,210.88
2219,F5,351.5,0.5,43,210.88
2220,A4,351.5,0.5,43,210.88
2221,C5,351.5,0.5,43,210.88
2222,F3,351.667,167/1000,45,210.88
2223,F3,352.0,333/1000,47,210.88
2224,F4,352.333,333/1000,44,210.88
2225,C5,352.5,0.5,43,210.88
2226,E-5,352.5,0.5,43,210.88
2227,F5,352.5,0.5,43,210.88
2228,C4,352.667,167/1000,44,210.88
2229,A3,353.0,167/1000,47,210.88
2230,F3,353.333,167/1000,43,210.88
2231,B-4,353.5,1.0,48,210.88
2232,D5,353.5,1.0,48,210.88
2233,F5,353.5,1.0,48,210.88
2234,C3,353.667,167/1000,41,210.88
2235,A2,354.0,167/1000,45,210.88
2236,F2,354.333,167/1000,41,210.88
2237,C2,354.667,167/1000,41,210.88
2238,F2,355.0,167/1000,47,210.88
2239,A2,355.333,167/1000,45,210.88
2240,B-4,355.5,0.5,43,210.88
2241,D5,355.5,0.5,43,210.88
2242,F5,355.5,0.5,43,210.88
2243,C3,355.667,167/1000,45,210.88
2244,C3,356.0,0.5,31,210.88
2245,A3,356.0,0.5,31,210.88
2246,C4,356.0,0.5,31,210.88
2247,D5,356.5,0.5,44,210.88
2248,F5,356.5,0.5,44,210.88
2249,C4,357.0,0.5,30,210.88
2250,D5,357.0,0.5,30,210.88
2251,B-4,357.0,0.5,30,210.88
2252,A4,357.5,1.0,48,210.88
2253,C5,357.5,1.0,48,210.88
2254,F5,357.5,1.0,48,210.88
2255,C4,358.0,0.5,30,210.88
2256,A4,358.0,0.5,30,210.88
2257,C5,358.0,0.5,30,210.88
2258,C4,359.0,0.5,30,210.88
2259,G4,359.0,0.5,30,210.88
2260,B-4,359.0,0.5,30,210.88
2261,C5,359.5,0.5,47,210.88
2262,F5,359.5,0.5,47,210.88
2263,A5,359.5,0.5,47,210.88
2264,C4,360.0,0.5,31,210.88
2265,F#4,360.0,0.5,31,210.88
2266,A4,360.0,0.5,31,210.88
2267,C5,360.5,0.5,47,210.88
2268,A5,360.5,0.5,47,210.88
2269,C6,360.5,0.5,47,210.88
2270,C4,361.0,0.5,30,210.88
2271,A4,361.0,0.5,30,210.88
2272,F#4,361.0,0.5,30,210.88
2273,C6,361.5,333/1000,56,210.88
2274,F6,361.833,333/1000,51,210.88
2275,C4,362.0,0.5,31,210.88
2276,F#4,362.0,0.5,31,210.88
2277,A4,362.0,0.5,31,210.88
2278,F6,362.167,167/1000,51,210.88
2279,D6,362.5,333/1000,56,210.88
2280,G6,362.833,333/1000,52,210.88
2281,C4,363.0,0.5,33,210.88
2282,F#4,363.0,0.5,33,210.88
2283,A4,363.0,0.5,33,210.88
2284,G6,363.167,167/1000,52,210.88
2285,C6,363.5,333/1000,56,210.88
2286,F6,363.833,333/1000,51,210.88
2287,B-3,364.0,0.5,35,210.88
2288,F4,364.0,0.5,35,210.88
2289,B-4,364.0,0.5,35,210.88
2290,F6,364.167,167/1000,51,210.88
2291,C6,364.5,333/1000,56,210.88
2292,E6,364.833,333/1000,51,210.88
2293,B-3,365.0,0.5,33,210.88
2294,B-4,365.0,0.5,33,210.88
2295,F4,365.0,0.5,33,210.88
2296,E6,365.167,167/1000,51,210.88
2297,C6,365.5,333/1000,56,210.88
2298,E-6,365.833,333/1000,51,210.88
2299,C4,366.0,0.5,33,210.88
2300,F4,366.0,0.5,33,210.88
2301,A4,366.0,0.5,33,210.88
2302,E-6,366.167,167/1000,51,210.88
2303,C6,366.5,333/1000,57,210.88
2304,D6,366.833,333/1000,55,210.88
2305,C4,367.0,0.5,33,210.88
2306,G4,367.0,0.5,33,210.88
2307,B-4,367.0,0.5,33,210.88
2308,D6,367.167,167/1000,55,210.88
2309,F#5,367.5,333/1000,58,210.88
2310,A5,367.5,333/1000,58,210.88
2311,E-6,367.833,333/1000,53,210.88
2312,B-2,368.0,0.5,28,210.88
2313,E3,368.0,0.5,28,210.88
2314,G3,368.0,0.5,28,210.88
2315,E-6,368.167,167/1000,53,210.88
2316,F#5,368.5,333/1000,52,210.88
2317,A5,368.5,333/1000,52,210.88
2318,D6,368.833,333/1000,54,210.88
2319,B-2,369.0,0.5,27,210.88
2320,G3,369.0,0.5,27,210.88
2321,E3,369.0,0.5,27,210.88
2322,D6,369.167,167/1000,54,210.88
2323,F5,369.5,333/1000,52,210.88
2324,B-5,369.5,333/1000,52,210.88
2325,E-6,369.833,333/1000,52,210.88
2326,B-2,370.0,0.5,28,210.88
2327,E3,370.0,0.5,28,210.88
2328,G3,370.0,0.5,28,210.88
2329,E-6,370.167,167/1000,52,210.88
2330,F5,370.5,333/1000,52,210.88
2331,B-5,370.5,333/1000,52,210.88
2332,D6,370.833,333/1000,53,210.88
2333,B-2,371.0,0.5,29,210.88
2334,E3,371.0,0.5,29,210.88
2335,G3,371.0,0.5,29,210.88
2336,D6,371.167,167/1000,52,210.88
2337,F5,371.5,333/1000,52,210.88
2338,A5,371.5,333/1000,52,210.88
2339,C6,371.833,333/1000,53,210.88
2340,G#2,372.0,0.5,31,210.88
2341,E-3,372.0,0.5,31,210.88
2342,G#3,372.0,0.5,31,210.88
2343,C6,372.167,167/1000,49,210.88
2344,E5,372.5,333/1000,50,210.88
2345,G5,372.5,333/1000,50,210.88
2346,C6,372.833,333/1000,48,210.88
2347,G#2,373.0,0.5,29,210.88
2348,G#3,373.0,0.5,29,210.88
2349,E-3,373.0,0.5,29,210.88
2350,C6,373.167,167/1000,48,210.88
2351,B-4,373.5,333/1000,45,210.88
2352,C#5,373.833,333/1000,42,210.88
2353,B-2,374.0,0.5,29,210.88
2354,E-3,374.0,0.5,29,210.88
2355,G3,374.0,0.5,29,210.88
2356,C#5,374.167,167/1000,42,210.88
2357,B-4,374.5,333/1000,46,210.88
2358,C5,374.833,333/1000,45,210.88
2359,B-2,375.0,0.5,29,210.88
2360,F3,375.0,0.5,29,210.88
2361,G#3,375.0,0.5,29,210.88
2362,C5,375.167,167/1000,45,210.88
2363,E4,375.5,333/1000,44,210.88
2364,G4,375.5,333/1000,44,210.88
2365,C#5,375.833,333/1000,45,210.88
2366,C#5,376.167,167/1000,45,210.88
2367,E4,376.5,333/1000,46,210.88
2368,G4,376.5,333/1000,46,210.88
2369,C5,376.833,333/1000,46,210.88
2370,C5,377.167,167/1000,47,210.88
2371,E-4,377.5,333/1000,48,210.88
2372,G#4,377.5,333/1000,48,210.88
2373,C#5,377.833,333/1000,48,210.88
2374,F#4,378.0,0.5,31,210.88
2375,C#5,378.167,167/1000,48,210.88
2376,E-4,378.5,333/1000,48,210.88
2377,G#4,378.5,333/1000,48,210.88
2378,C5,378.833,333/1000,48,210.88
2379,E-4,379.0,0.5,33,210.88
2380,C5,379.167,167/1000,48,210.88
2381,E-4,379.5,333/1000,47,210.88
2382,G4,379.5,333/1000,47,210.88
2383,B-4,379.833,333/1000,47,210.88
2384,G#4,380.0,0.5,33,210.88
2385,B-4,380.167,167/1000,46,210.88
2386,D4,380.5,333/1000,47,210.88
2387,F4,380.5,333/1000,47,210.88
2388,B-4,380.833,333/1000,46,210.88
2389,G#4,381.0,0.5,31,210.88
2390,B-4,381.167,167/1000,46,210.88
2391,G#2,383.0,0.5,29,210.88
2392,C#5,383.5,333/1000,44,210.88
2393,F#5,383.5,333/1000,44,210.88
2394,B-5,383.833,333/1000,45,210.88
2395,G#2,384.0,0.5,29,210.88
2396,B-5,384.167,167/1000,45,210.88
2397,C#5,384.5,333/1000,45,210.88
2398,F#5,384.5,333/1000,45,210.88
2399,A5,384.833,333/1000,44,210.88
2400,A5,385.167,167/1000,44,210.88
2401,C#5,385.5,333/1000,46,210.88
2402,F5,385.5,333/1000,46,210.88
2403,G#5,385.833,333/1000,46,210.88
2404,A2,386.0,0.5,26,210.88
2405,G#5,386.167,167/1000,46,210.88
2406,C5,386.5,333/1000,44,210.88
2407,E-5,386.5,333/1000,44,210.88
2408,G#5,386.833,333/1000,44,210.88
2409,A2,387.0,0.5,26,210.88
2410,G#5,387.167,167/1000,44,210.88
2411,C#4,388.5,333/1000,40,210.88
2412,E4,388.5,333/1000,40,210.88
2413,G#4,388.833,333/1000,39,210.88
2414,A3,389.0,0.5,26,210.88
2415,G#4,389.167,167/1000,39,210.88
2416,C4,389.5,333/1000,42,210.88
2417,E-4,389.5,333/1000,42,210.88
2418,G#4,389.833,333/1000,41,210.88
2419,B-3,390.0,0.5,27,210.88
2420,G#4,390.167,167/1000,41,210.88
2421,B-2,391.0,0.5,30,210.88
2422,C4,391.5,333/1000,36,210.88
2423,E-4,391.5,333/1000,36,210.88
2424,F#4,391.833,333/1000,35,210.88
2425,C3,392.0,0.5,33,210.88
2426,F#4,392.167,167/1000,35,210.88
2427,C4,392.5,333/1000,37,210.88
2428,E-4,392.5,333/1000,37,210.88
2429,F4,392.833,333/1000,36,210.88
2430,C3,393.0,0.5,35,210.88
2431,F4,393.167,167/1000,36,210.88
2432,B-3,394.0,0.5,37,210.88
2433,G3,394.0,0.5,37,210.88
2434,C3,394.0,0.5,37,210.88
2435,C5,394.5,333/1000,40,210.88
2436,E-5,394.5,333/1000,40,210.88
2437,F5,394.833,333/1000,36,210.88
2438,C3,395.0,0.5,38,210.88
2439,G3,395.0,0.5,38,210.88
2440,B-3,395.0,0.5,38,210.88
2441,F5,395.167,167/1000,36,210.88
2442,B-4,395.5,333/1000,45,210.88
2443,E-5,395.5,333/1000,45,210.88
2444,G5,395.833,333/1000,37,210.88
2445,F2,396.0,0.25,39,210.88
2446,F3,396.0,0.25,39,210.88
2447,G5,396.167,167/1000,37,210.88
2448,B-4,396.5,333/1000,45,210.88
2449,D5,396.5,333/1000,45,210.88
2450,F5,396.833,333/1000,39,210.88
2451,F5,397.167,167/1000,39,210.88
2452,B-3,397.5,333/1000,43,210.88
2453,D4,397.5,333/1000,43,210.88
2454,F4,397.833,333/1000,40,210.88
2455,A3,398.0,1.5,36,210.88
2456,C4,398.0,2.0,44,210.88
2457,F4,398.167,167/1000,40,210.88
2458,A3,398.5,333/1000,47,210.88
2459,C4,398.5,333/1000,47,210.88
2460,F4,398.833,333/1000,46,210.88
2461,F4,399.167,167/1000,46,210.88
2462,C4,399.5,333/1000,54,210.88
2463,F4,399.5,333/1000,54,210.88
2464,G3,399.5,0.5,33,210.88
2465,B-3,399.5,0.5,33,210.88
2466,C5,399.833,333/1000,50,210.88
2467,F3,400.0,1.0,40,210.88
2468,A3,400.0,1.0,40,210.88
2469,C5,400.167,167/1000,50,210.88
2470,C4,400.5,333/1000,55,210.88
2471,E4,400.5,333/1000,55,210.88
2472,C5,400.833,333/1000,53,210.88
2473,E-3,401.0,1.0,42,210.88
2474,A3,401.0,1.0,42,210.88
2475,C5,401.167,167/1000,53,210.88
2476,A3,401.5,0.25,58,210.88
2477,C4,401.5,0.25,58,210.88
2478,F4,401.5,0.25,58,210.88
2479,C4,401.833,333/1000,47,210.88
2480,D3,402.0,1.0,44,210.88
2481,A3,402.0,1.0,44,210.88
2482,A3,402.167,333/1000,47,210.88
2483,C4,402.5,333/1000,47,210.88
2484,F4,402.833,333/1000,51,210.88
2485,G2,403.0,1.0,39,210.88
2486,D3,403.0,1.0,39,210.88
2487,G3,403.0,1.0,39,210.88
2488,A4,403.167,333/1000,55,210.88
2489,C5,403.5,1.5,68,210.88
2490,C3,404.0,2.0,45,210.88
2491,B-3,404.0,2.0,45,210.88
2492,D4,404.5,0.5,48,210.88
2493,E4,405.0,0.5,50,210.88
2494,B-4,405.0,0.5,50,210.88
2495,C4,405.5,1.0,50,210.88
2496,F4,405.5,1.0,50,210.88
2497,A4,405.5,1.0,50,210.88
2498,F3,406.0,0.25,35,210.88
2499,A3,406.0,0.25,35,210.88
2500,C#4,406.5,1.0,55,210.88
2501,G4,406.5,1.0,55,210.88
2502,A4,406.5,1.0,55,210.88
2503,F3,407.0,0.25,31,210.88
2504,A3,407.0,0.25,31,210.88
2505,D4,407.5,1.0,56,210.88
2506,C4,407.5,1.0,56,210.88
2507,F#4,407.5,1.0,56,210.88
2508,A4,407.5,1.0,56,210.88
2509,B-4,408.5,0.75,65,210.88
2510,B-3,408.5,1.0,55,210.88
2511,D4,408.5,1.0,55,210.88
2512,G4,408.5,1.0,55,210.88
2513,A4,409.25,0.25,55,210.88
2514,C4,409.5,2.25,44,210.88
2515,E4,409.5,2.0,44,210.88
2516,G4,409.5,1.5,52,210.88
2517,A2,410.0,1.5,35,210.88
2518,C3,410.0,247/500,42,210.88
2519,G#4,411.0,0.5,47,210.88
2520,F4,411.5,0.25,47,210.88
2521,A4,411.5,0.25,47,210.88
2522,G2,411.5,0.5,33,210.88
2523,B-2,411.5,0.5,33,210.88
2524,F2,412.0,1.0,40,210.88
2525,A2,412.0,1.0,40,210.88
2526,C4,412.5,0.25,41,210.88
2527,F4,412.5,0.25,41,210.88
2528,A4,412.5,0.25,41,210.88
2529,E-2,413.0,1.0,42,210.88
2530,A2,413.0,1.0,42,210.88
2531,C3,413.833,333/1000,47,210.88
2532,D2,414.0,1.0,44,210.88
2533,A2,414.0,1.0,44,210.88
2534,A2,414.167,333/1000,47,210.88
2535,C3,414.5,333/1000,47,210.88
2536,F3,414.833,333/1000,51,210.88
2537,G1,415.0,0.5,43,210.88
2538,D2,415.0,0.5,43,210.88
2539,G2,415.0,0.5,43,210.88
2540,A3,415.167,333/1000,55,210.88
2541,C4,415.5,1.5,65,210.88
2542,C3,416.0,1.0,46,210.88
2543,D3,416.5,0.5,48,210.88
2544,C3,417.0,0.5,48,210.88
2545,E3,417.0,0.5,48,210.88
2546,B-3,417.0,0.5,48,210.88
2547,F3,417.0,1.0,49,210.88
2548,B-3,417.0,1.0,49,210.88
2549,C3,417.5,1.0,50,210.88
2550,F3,417.5,1.0,50,210.88
2551,A3,417.5,1.0,50,210.88
2552,E-3,418.0,1.0,54,210.88
2553,B-3,418.0,1.0,54,210.88
2554,C#3,418.5,1.0,55,210.88
2555,G3,418.5,1.0,55,210.88
2556,A3,418.5,1.0,55,210.88
2557,G#2,419.0,0.5,53,210.88
2558,E-3,419.0,0.5,53,210.88
2559,G#3,419.0,0.5,53,210.88
2560,D3,419.5,1.0,56,210.88
2561,C3,419.5,1.0,56,210.88
2562,F#3,419.5,1.0,56,210.88
2563,A3,419.5,1.0,56,210.88
2564,B-3,420.5,0.5,63,210.88
2565,B-2,420.5,0.5,63,210.88
2566,D3,420.5,0.5,63,210.88
2567,G3,420.5,0.5,63,210.88
2568,E2,421.0,1.0,75,210.88
2569,B2,421.0,1.0,75,210.88
2570,E3,421.0,1.0,75,210.88
2571,A1,422.0,0.5,75,210.88
2572,E2,422.0,0.5,75,210.88
2573,A2,422.0,0.5,75,210.88
2574,D4,422.5,1.0,66,210.88
2575,G#4,422.5,1.0,66,210.88
2576,B-4,422.5,1.0,66,210.88
2577,E-4,423.5,1.0,67,210.88
2578,C#4,423.5,1.0,67,210.88
2579,G4,423.5,1.0,67,210.88
2580,B-4,423.5,1.0,67,210.88
2581,F4,424.0,2.0,54,210.88
2582,E-5,424.0,2.0,54,210.88
2583,B4,424.5,0.5,75,210.88
2584,B3,424.5,0.5,75,210.88
2585,E-4,424.5,0.5,75,210.88
2586,G#4,424.5,0.5,75,210.88
2587,B-4,426.0,0.25,42,210.88
2588,D5,426.0,0.25,42,210.88
2589,D5,426.5,1.0,90,210.88
2590,E5,426.5,1.0,90,210.88
2591,B5,426.5,1.0,90,210.88
2592,G#5,426.5,1.0,90,210.88
2593,B-4,427.0,0.25,36,210.88
2594,D5,427.0,0.25,36,210.88
2595,C5,427.5,0.5,96,210.88
2596,E5,427.5,0.5,96,210.88
2597,A5,427.5,0.5,96,210.88
2598,C6,427.5,0.5,96,210.88
2599,B-4,428.0,3.0,42,210.88
2600,D5,428.0,3.0,42,210.88
2601,F5,429.5,2.25,52,210.88
2602,A5,429.5,2.0,52,210.88
2603,C6,429.5,1.5,62,210.88
2604,C#6,431.0,0.5,56,210.88
2605,B-5,431.5,0.25,56,210.88
2606,D6,431.5,0.25,56,210.88
2607,F5,432.5,0.25,49,210.88
2608,B-5,432.5,0.25,49,210.88
2609,D6,432.5,0.25,49,210.88
2610,F5,433.5,3.0,58,210.88
2611,D6,433.5,3.0,58,210.88
2612,F6,433.5,3.0,58,210.88
2613,C3,436.0,2.0,36,210.88
2614,B-3,436.0,2.0,36,210.88
2615,F5,437.5,2.5,54,210.88
2616,F3,438.0,0.25,33,210.88
2617,A3,438.0,0.25,33,210.88
2618,F3,439.0,0.25,28,210.88
2619,A3,439.0,0.25,28,210.88
2620,D5,440.0,0.5,45,210.88
2621,F3,440.0,3.0,33,210.88
2622,C4,440.0,3.0,33,210.88
2623,B-4,440.5,0.5,50,210.88
2624,A4,441.0,0.5,45,210.88
2625,C4,441.5,2.25,34,210.88
2626,E4,441.5,2.0,34,210.88
2627,A4,441.5,1.0,49,210.88
2628,G4,442.5,0.75,44,210.88
2629,G#4,443.25,0.25,44,210.88
2630,F4,443.5,0.25,44,210.88
2631,A4,443.5,0.25,44,210.88
2632,F4,444.0,2.0,54,210.88
2633,E-5,444.0,2.0,54,210.88
2634,C4,444.5,0.25,37,210.88
2635,F4,444.5,0.25,37,210.88
2636,A4,444.5,0.25,37,210.88
2637,A4,445.5,3.0,48,210.88
2638,C5,445.5,3.0,48,210.88
2639,B-4,446.0,0.25,42,210.88
2640,D5,446.0,0.25,42,210.88
2641,B-4,447.0,0.25,44,210.88
2642,D5,447.0,0.25,44,210.88
2643,F5,449.5,2.25,52,210.88
2644,A5,449.5,2.0,52,210.88
2645,C6,449.5,1.5,62,210.88
2646,C#6,451.0,0.5,56,210.88
2647,B-5,451.5,0.25,56,210.88
2648,D6,451.5,0.25,56,210.88
2649,F5,452.5,0.25,59,210.88
2650,B-5,452.5,0.25,59,210.88
2651,D6,452.5,0.25,59,210.88
2652,B-4,453.5,0.125,80,210.88
2653,D5,453.625,0.125,79,210.88
2654,F5,453.75,0.125,77,210.88
2655,B-5,453.875,0.125,74,210.88
2656,D6,454.0,0.125,71,210.88
2657,F6,454.125,0.125,68,210.88
2658,B-6,454.25,0.125,65,210.88
2659,D7,454.375,0.125,61,210.88
2660,F7,454.5,0.125,58,210.88
2661,F5,457.5,3.5,62,210.88
2662,C3,460.0,2.0,32,210.88
2663,B-3,460.0,2.0,32,210.88
2664,E5,461.0,0.5,50,210.88
2665,E5,461.5,1.0,53,210.88
2666,F3,462.0,0.25,30,210.88
2667,A3,462.0,0.25,30,210.88
2668,D5,462.5,0.75,51,210.88
2669,F3,463.0,0.25,24,210.88
2670,A3,463.0,0.25,24,210.88
2671,C5,463.25,0.25,47,210.88
2672,C5,463.5,1.0,51,210.88
2673,F3,464.0,3.0,30,210.88
2674,C4,464.0,3.0,30,210.88
2675,B-4,464.5,0.75,48,210.88
2676,A4,465.25,0.25,41,210.88
2677,C4,465.5,2.25,30,210.88
2678,E4,465.5,2.0,30,210.88
2679,A4,465.5,1.0,44,210.88
2680,G4,466.5,0.75,39,210.88
2681,G#4,467.25,0.25,39,210.88
2682,F4,467.5,0.25,40,210.88
2683,A4,467.5,0.25,40,210.88
2684,F3,468.0,0.25,42,210.88
2685,F#3,468.25,0.25,47,210.88
2686,C4,468.5,0.25,33,210.88
2687,F4,468.5,0.25,33,210.88
2688,A4,468.5,0.25,33,210.88
2689,E-3,469.0,0.25,43,210.88
2690,F#3,469.25,0.25,49,210.88
2691,A4,469.5,3.0,43,210.88
2692,C5,469.5,3.0,43,210.88
2693,F3,470.0,0.25,33,210.88
2694,F#3,470.25,0.25,37,210.88
2695,E-3,471.0,0.25,33,210.88
2696,F#3,471.25,0.25,39,210.88
2697,C4,472.0,0.25,30,210.88
2698,A4,472.0,0.25,30,210.88
2699,C4,473.0,0.25,24,210.88
2700,A4,473.0,0.25,24,210.88
2701,A4,474.0,2.0,30,210.88
2702,C5,474.0,2.0,30,210.88
2703,F4,475.5,0.25,48,210.88
2704,F#4,475.75,0.25,53,210.88
2705,F2,476.0,0.25,35,210.88
2706,F#2,476.25,0.25,40,210.88
2707,E-4,476.5,0.25,48,210.88
2708,F#4,476.75,0.25,52,210.88
2709,E-2,477.0,0.25,36,210.88
2710,F#2,477.25,0.25,40,210.88
2711,C5,477.5,0.25,40,210.88
2712,A5,477.5,0.25,40,210.88
2713,F2,478.0,0.25,31,210.88
2714,F#2,478.25,0.25,35,210.88
2715,C5,478.5,0.25,36,210.88
2716,A5,478.5,0.25,36,210.88
2717,E-2,479.0,0.25,30,210.88
2718,F#2,479.25,0.25,35,210.88
2719,A5,479.5,2.0,43,210.88
2720,C6,479.5,2.0,43,210.88
2721,C3,480.0,0.25,26,210.88
2722,A3,480.0,0.25,26,210.88
2723,C3,481.0,0.25,22,210.88
2724,A3,481.0,0.25,22,210.88
2725,A3,482.0,2.0,26,210.88
2726,C4,482.0,2.0,26,210.88
2727,F3,483.5,0.25,42,210.88
2728,F#3,483.75,0.25,48,210.88
2729,F3,484.0,0.25,47,210.88
2730,F#3,484.25,0.25,52,210.88
2731,E-3,484.5,0.25,41,210.88
2732,F#3,484.75,0.25,48,210.88
2733,E-3,485.0,0.25,42,210.88
2734,F#3,485.25,0.25,47,210.88
2735,C4,485.5,0.25,35,210.88
2736,A4,485.5,0.25,35,210.88
2737,F2,486.0,0.25,48,210.88
2738,F#2,486.25,0.25,52,210.88
2739,C4,486.5,0.25,32,210.88
2740,A4,486.5,0.25,32,210.88
2741,E-2,487.0,0.25,43,210.88
2742,F#2,487.25,0.25,47,210.88
2743,A4,487.5,2.0,38,210.88
2744,C5,487.5,2.0,38,210.88
2745,D2,488.0,0.25,68,210.88
2746,F#2,488.25,0.25,75,210.88
2747,E-2,489.0,0.25,61,210.88
2748,F#2,489.25,0.25,69,210.88
2749,B1,490.0,0.25,66,210.88
2750,F#2,490.25,0.25,72,210.88
2751,E-4,490.5,0.25,54,210.88
2752,F#4,490.75,0.25,61,210.88
2753,B-1,491.0,0.25,70,210.88
2754,F#2,491.25,0.25,75,210.88
2755,A1,492.0,0.25,72,210.88
2756,F2,492.25,0.25,78,210.88
2757,E-4,492.5,0.25,55,210.88
2758,F#4,492.75,0.25,62,210.88
2759,A1,493.0,167/1000,66,210.88
2760,F2,493.0,167/1000,66,210.88
2761,A2,493.0,167/1000,66,210.88
2762,A1,493.333,167/1000,66,210.88
2763,F2,493.333,167/1000,66,210.88
2764,A2,493.333,167/1000,66,210.88
2765,A1,493.667,167/1000,66,210.88
2766,F2,493.667,167/1000,66,210.88
2767,A2,493.667,167/1000,66,210.88
2768,A1,494.0,0.25,74,210.88
2769,F2,494.0,0.25,74,210.88
2770,A2,494.0,0.25,74,210.88
2771,E-4,494.5,0.25,77,210.88
2772,F#4,494.75,0.25,83,210.88
2773,B3,495.5,0.25,81,210.88
2774,F1,495.5,26/125,86,210.88
2775,F#1,495.667,26/125,70,210.88
2776,F#4,495.75,0.25,88,210.88
2777,G#1,495.833,167/1000,70,210.88
2778,F#1,496.0,0.188,86,210.88
2779,G#1,496.0,21/500,70,210.88
2780,G#1,496.125,0.188,73,210.88
2781,F#1,496.25,0.188,76,210.88
2782,G#1,496.375,0.188,70,210.88
2783,B-3,496.5,0.25,88,210.88
2784,F#1,496.5,0.188,76,210.88
2785,G#1,496.625,0.188,70,210.88
2786,F#4,496.75,0.25,94,210.88
2787,F#1,496.75,0.188,80,210.88
2788,G#1,496.875,0.188,76,210.88
2789,F#1,497.0,0.188,83,210.88
2790,G#1,497.125,0.188,73,210.88
2791,F#1,497.25,0.188,83,210.88
2792,G#1,497.375,0.188,70,210.88
2793,A3,497.5,0.25,95,210.88
2794,F#1,497.5,0.188,80,210.88
2795,G#1,497.625,0.188,73,210.88
2796,F4,497.75,0.25,103,210.88
2797,F#1,497.75,0.188,76,210.88
2798,G#1,497.875,0.188,70,210.88
2799,F#1,498.0,0.188,83,210.88
2800,G#1,498.125,0.188,72,210.88
2801,F#1,498.25,0.188,77,210.88
2802,G#1,498.375,0.188,69,210.88
2803,F#1,498.5,0.188,74,210.88
2804,F4,498.5,167/1000,93,210.88
2805,C5,498.5,167/1000,93,210.88
2806,E-5,498.5,167/1000,93,210.88
2807,F5,498.5,167/1000,93,210.88
2808,G#1,498.625,0.188,63,210.88
2809,F#1,498.75,0.188,72,210.88
2810,F4,498.833,167/1000,93,210.88
2811,C5,498.833,167/1000,93,210.88
2812,E-5,498.833,167/1000,93,210.88
2813,F5,498.833,167/1000,93,210.88
2814,G#1,498.875,0.188,61,210.88
2815,F#1,499.0,0.188,73,210.88
2816,G#1,499.125,0.188,61,210.88
2817,F4,499.167,167/1000,93,210.88
2818,C5,499.167,167/1000,93,210.88
2819,E-5,499.167,167/1000,93,210.88
2820,F5,499.167,167/1000,93,210.88
2821,F#1,499.25,0.188,68,210.88
2822,G#1,499.375,0.188,56,210.88
2823,F1,499.5,73/250,67,210.88
2824,F5,499.5,0.25,103,210.88
2825,C6,499.5,0.25,103,210.88
2826,E-6,499.5,0.25,103,210.88
2827,F6,499.5,0.25,103,210.88
2828,F#1,499.75,0.25,61,210.88
2829,F1,500.0,0.25,75,210.88
2830,F#1,500.0,21/500,61,210.88
2831,B-2,503.0,1.0,27,210.88
2832,D3,503.0,0.5,33,210.88
2833,F3,503.5,0.5,28,210.88
2834,B-2,504.0,1.0,28,210.88
2835,D3,504.0,0.5,34,210.88
2836,F3,504.5,0.5,28,210.88
2837,B-2,505.0,1.0,24,210.88
2838,C3,505.0,0.5,31,210.88
2839,F3,505.5,0.5,27,210.88
2840,B-2,506.0,1.0,28,210.88
2841,D3,506.0,0.5,34,210.88
2842,F3,506.5,0.5,27,210.88
2843,B-2,507.0,1.0,27,210.88
2844,E-3,507.0,0.5,33,210.88
2845,F3,507.5,0.5,26,210.88
2846,E3,508.0,0.5,34,210.88
2847,B-2,508.0,3.0,28,210.88
2848,F3,508.5,0.25,26,210.88
2849,B-3,508.5,1.0,41,210.88
2850,F4,508.5,1.0,41,210.88
2851,B-4,508.5,1.0,41,210.88
2852,F3,509.0,0.25,26,210.88
2853,F3,509.5,0.25,26,210.88
2854,B-3,509.5,1.0,43,210.88
2855,F4,509.5,1.0,43,210.88
2856,B-4,509.5,1.0,43,210.88
2857,F3,510.0,0.25,26,210.88
2858,F3,510.5,0.25,26,210.88
2859,A3,510.5,1.0,40,210.88
2860,F4,510.5,1.0,40,210.88
2861,A4,510.5,1.0,40,210.88
2862,B-2,511.0,1.0,27,210.88
2863,E-3,511.0,0.5,33,210.88
2864,D3,511.5,0.5,27,210.88
2865,B-3,511.5,1.0,43,210.88
2866,F4,511.5,1.0,43,210.88
2867,B-4,511.5,1.0,43,210.88
2868,F2,512.0,1.0,26,210.88
2869,E-3,512.0,0.5,31,210.88
2870,F3,512.5,0.5,25,210.88
2871,C4,512.5,1.0,41,210.88
2872,F4,512.5,1.0,41,210.88
2873,C5,512.5,1.0,41,210.88
2874,F2,513.0,1.0,26,210.88
2875,E-3,513.0,0.5,29,210.88
2876,F3,513.5,0.5,25,210.88
2877,D4,513.5,3.0,46,210.88
2878,F4,513.5,3.0,46,210.88
2879,D5,513.5,3.0,46,210.88
2880,F2,514.0,1.0,26,210.88
2881,E-3,514.0,0.5,29,210.88
2882,F3,514.5,0.5,26,210.88
2883,F2,515.0,1.0,27,210.88
2884,D3,515.0,0.5,33,210.88
2885,C3,515.5,0.5,25,210.88
2886,B-2,516.0,3.0,28,210.88
2887,D3,516.0,0.5,34,210.88
2888,F3,516.5,0.5,30,210.88
2889,C4,516.5,0.5,43,210.88
2890,F4,516.5,0.5,43,210.88
2891,C5,516.5,0.5,43,210.88
2892,E-3,517.0,0.5,33,210.88
2893,B-3,517.0,0.5,40,210.88
2894,F4,517.0,0.5,40,210.88
2895,B-4,517.0,0.5,40,210.88
2896,G3,517.5,0.5,28,210.88
2897,C4,517.5,99/100,40,210.88
2898,F4,517.5,99/100,40,210.88
2899,C5,517.5,99/100,40,210.88
2900,D3,518.0,0.5,29,210.88
2901,F3,518.5,0.5,30,210.88
2902,C4,518.5,99/100,39,210.88
2903,F4,518.5,99/100,39,210.88
2904,C5,518.5,99/100,39,210.88
2905,B-2,519.0,1.0,28,210.88
2906,D3,519.0,0.5,39,210.88
2907,B-3,519.5,0.5,34,210.88
2908,C4,519.5,99/100,39,210.88
2909,F4,519.5,99/100,39,210.88
2910,C5,519.5,99/100,39,210.88
2911,B-2,520.0,3.0,33,210.88
2912,G3,520.0,3.0,33,210.88
2913,B-3,520.5,0.25,32,210.88
2914,B-3,520.5,0.5,43,210.88
2915,F4,520.5,0.5,43,210.88
2916,B-4,520.5,0.5,43,210.88
2917,B-3,521.0,0.25,33,210.88
2918,A3,521.0,0.5,38,210.88
2919,F4,521.0,0.5,38,210.88
2920,A4,521.0,0.5,38,210.88
2921,F4,521.5,1.0,52,210.88
2922,B-3,521.5,0.25,30,210.88
2923,B-3,521.5,3.0,44,210.88
2924,B-4,521.5,3.0,44,210.88
2925,B-3,522.0,0.25,34,210.88
2926,B-3,522.5,0.25,31,210.88
2927,E-4,522.5,1.0,46,210.88
2928,G4,522.5,1.0,46,210.88
2929,B-2,523.0,1.0,27,210.88
2930,F3,523.0,0.5,33,210.88
2931,E-3,523.5,0.5,31,210.88
2932,D4,523.5,1.0,40,210.88
2933,F4,523.5,1.0,40,210.88
2934,B-2,524.0,1.0,27,210.88
2935,F3,524.0,0.5,33,210.88
2936,B-4,524.5,1.0,61,210.88
2937,D3,524.5,0.5,28,210.88
2938,F2,525.0,1.0,27,210.88
2939,C3,525.0,0.5,33,210.88
2940,F3,525.5,0.5,28,210.88
2941,E-4,525.5,3.0,52,210.88
2942,B-4,525.5,3.0,52,210.88
2943,E-5,525.5,3.0,52,210.88
2944,F2,526.0,1.0,27,210.88
2945,D3,526.0,0.5,33,210.88
2946,F3,526.5,0.5,30,210.88
2947,F2,527.0,1.0,27,210.88
2948,E-3,527.0,0.5,32,210.88
2949,F3,527.5,0.5,29,210.88
2950,F2,528.0,2.0,27,210.88
2951,D3,528.0,0.5,32,210.88
2952,F3,528.5,0.5,29,210.88
2953,D4,528.5,0.5,47,210.88
2954,B-4,528.5,0.5,47,210.88
2955,D5,528.5,0.5,47,210.88
2956,D3,529.0,0.5,32,210.88
2957,C4,529.0,0.5,43,210.88
2958,B-4,529.0,0.5,43,210.88
2959,C5,529.0,0.5,43,210.88
2960,B-2,529.5,0.5,29,210.88
2961,D4,529.5,1.0,48,210.88
2962,B-4,529.5,1.0,48,210.88
2963,D5,529.5,1.0,48,210.88
2964,F2,530.0,1.0,32,210.88
2965,A3,530.5,1.0,43,210.88
2966,F4,530.5,1.0,43,210.88
2967,A4,530.5,1.0,43,210.88
2968,F1,531.5,26/125,27,210.88
2969,B-3,531.5,1.0,45,210.88
2970,F4,531.5,1.0,45,210.88
2971,B-4,531.5,1.0,45,210.88
2972,F#1,531.667,26/125,22,210.88
2973,G#1,531.833,167/1000,22,210.88
2974,F#1,532.0,26/125,27,210.88
2975,G#1,532.0,21/500,22,210.88
2976,G#1,532.125,26/125,23,210.88
2977,F#1,532.25,26/125,24,210.88
2978,G#1,532.375,26/125,22,210.88
2979,F#1,532.5,26/125,24,210.88
2980,C4,532.5,1.0,43,210.88
2981,F4,532.5,1.0,43,210.88
2982,C5,532.5,1.0,43,210.88
2983,G#1,532.625,26/125,22,210.88
2984,F#1,532.75,26/125,25,210.88
2985,G#1,532.875,26/125,24,210.88
2986,F#1,533.0,26/125,26,210.88
2987,G#1,533.125,26/125,23,210.88
2988,F#1,533.25,26/125,26,210.88
2989,G#1,533.375,26/125,22,210.88
2990,F#1,533.5,26/125,25,210.88
2991,B-3,533.5,1.0,45,210.88
2992,F4,533.5,1.0,45,210.88
2993,B-4,533.5,1.0,45,210.88
2994,G#1,533.625,26/125,23,210.88
2995,F#1,533.75,26/125,24,210.88
2996,G#1,533.875,26/125,22,210.88
2997,F#1,534.0,26/125,26,210.88
2998,G#1,534.125,26/125,23,210.88
2999,F#1,534.25,26/125,25,210.88
3000,G#1,534.375,26/125,23,210.88
3001,F#1,534.5,26/125,25,210.88
3002,F4,534.5,1.0,45,210.88
3003,D4,534.5,1.0,45,210.88
3004,B-4,534.5,1.0,45,210.88
3005,D5,534.5,1.0,45,210.88
3006,G#1,534.625,26/125,22,210.88
3007,F#1,534.75,26/125,25,210.88
3008,G#1,534.875,26/125,22,210.88
3009,F#1,535.0,26/125,27,210.88
3010,G#1,535.125,26/125,23,210.88
3011,F#1,535.25,26/125,26,210.88
3012,G#1,535.375,26/125,22,210.88
3013,F1,535.5,73/250,22,210.88
3014,C4,535.5,2.0,43,210.88
3015,F4,535.5,2.0,43,210.88
3016,A4,535.5,2.0,43,210.88
3017,C5,535.5,2.0,43,210.88
3018,F#1,535.75,0.25,18,210.88
3019,F1,536.0,0.25,23,210.88
3020,F#1,536.0,21/500,18,210.88
3021,B-2,539.0,1.0,27,210.88
3022,D3,539.0,0.5,33,210.88
3023,F3,539.5,0.5,28,210.88
3024,B-2,540.0,1.0,28,210.88
3025,D3,540.0,0.5,34,210.88
3026,F3,540.5,0.5,28,210.88
3027,B-2,541.0,1.0,24,210.88
3028,C3,541.0,0.5,31,210.88
3029,F3,541.5,0.5,27,210.88
3030,B-2,542.0,1.0,28,210.88
3031,D3,542.0,0.5,34,210.88
3032,C4,542.0,4.0,43,210.88
3033,F4,542.0,4.0,43,210.88
3034,A4,542.0,4.0,43,210.88
3035,C5,542.0,4.0,43,210.88
3036,F3,542.5,0.5,27,210.88
3037,B-2,543.0,1.0,27,210.88
3038,E-3,543.0,0.5,33,210.88
3039,F3,543.5,0.5,26,210.88
3040,E3,544.0,0.5,34,210.88
3041,B-2,544.0,3.0,28,210.88
3042,F3,544.5,0.25,26,210.88
3043,F3,545.0,0.25,26,210.88
3044,F3,545.5,0.25,26,210.88
3045,F3,546.0,0.25,26,210.88
3046,F3,546.5,0.25,26,210.88
3047,C4,546.5,0.5,43,210.88
3048,F4,546.5,0.5,43,210.88
3049,A4,546.5,0.5,43,210.88
3050,C5,546.5,0.5,43,210.88
3051,B-2,547.0,1.0,27,210.88
3052,E-3,547.0,0.5,33,210.88
3053,D3,547.5,0.5,27,210.88
3054,F2,548.0,1.0,26,210.88
3055,E-3,548.0,0.5,31,210.88
3056,F3,548.5,0.5,25,210.88
3057,F2,549.0,1.0,26,210.88
3058,E-3,549.0,0.5,29,210.88
3059,F3,549.5,0.5,25,210.88
3060,B-3,549.5,1.0,41,210.88
3061,F4,549.5,1.0,41,210.88
3062,B-4,549.5,1.0,41,210.88
3063,F2,550.0,1.0,26,210.88
3064,E-3,550.0,0.5,29,210.88
3065,F3,550.5,0.5,28,210.88
3066,B-3,550.5,1.0,43,210.88
3067,F4,550.5,1.0,43,210.88
3068,B-4,550.5,1.0,43,210.88
3069,F2,551.0,1.0,27,210.88
3070,D3,551.0,0.5,33,210.88
3071,C3,551.5,0.5,25,210.88
3072,A3,551.5,1.0,40,210.88
3073,F4,551.5,1.0,40,210.88
3074,A4,551.5,1.0,40,210.88
3075,B-2,552.0,3.0,28,210.88
3076,D3,552.0,0.5,34,210.88
3077,F3,552.5,0.5,30,210.88
3078,B-3,552.5,1.0,43,210.88
3079,F4,552.5,1.0,43,210.88
3080,B-4,552.5,1.0,43,210.88
3081,E-3,553.0,0.5,33,210.88
3082,G3,553.5,0.5,28,210.88
3083,C4,553.5,1.0,41,210.88
3084,F4,553.5,1.0,41,210.88
3085,C5,553.5,1.0,41,210.88
3086,D3,554.0,0.5,29,210.88
3087,F3,554.5,0.5,30,210.88
3088,D4,554.5,3.0,46,210.88
3089,F4,554.5,3.0,46,210.88
3090,D5,554.5,3.0,46,210.88
3091,G#2,555.0,1.0,28,210.88
3092,D3,555.0,0.5,39,210.88
3093,F3,555.5,0.5,34,210.88
3094,G2,556.0,3.0,33,210.88
3095,F3,556.0,3.0,33,210.88
3096,G3,556.5,0.25,32,210.88
3097,G3,557.0,0.25,33,210.88
3098,G3,557.5,0.25,30,210.88
3099,C4,557.5,0.5,43,210.88
3100,F4,557.5,0.5,43,210.88
3101,C5,557.5,0.5,43,210.88
3102,G3,558.0,0.25,34,210.88
3103,B-3,558.0,0.5,40,210.88
3104,F4,558.0,0.5,40,210.88
3105,B-4,558.0,0.5,40,210.88
3106,G3,558.5,0.25,31,210.88
3107,C4,558.5,99/100,40,210.88
3108,F4,558.5,99/100,40,210.88
3109,C5,558.5,99/100,40,210.88
3110,G2,559.0,0.5,28,210.88
3111,E-3,559.0,0.5,28,210.88
3112,G3,559.0,0.5,28,210.88
3113,C4,559.5,99/100,39,210.88
3114,F4,559.5,99/100,39,210.88
3115,C5,559.5,99/100,39,210.88
3116,G2,559.5,0.5,27,210.88
3117,D3,559.5,0.5,27,210.88
3118,G3,559.5,0.5,27,210.88
3119,G2,560.0,1.0,28,210.88
3120,C3,560.0,0.5,34,210.88
3121,G3,560.5,0.5,30,210.88
3122,C4,560.5,99/100,39,210.88
3123,F4,560.5,99/100,39,210.88
3124,C5,560.5,99/100,39,210.88
3125,G2,561.0,1.0,28,210.88
3126,F3,561.0,0.5,33,210.88
3127,G3,561.5,0.5,28,210.88
3128,B-3,561.5,0.5,43,210.88
3129,F4,561.5,0.5,43,210.88
3130,B-4,561.5,0.5,43,210.88
3131,G2,562.0,1.0,27,210.88
3132,E-3,562.0,0.5,28,210.88
3133,A3,562.0,0.5,38,210.88
3134,F4,562.0,0.5,38,210.88
3135,A4,562.0,0.5,38,210.88
3136,F4,562.5,1.0,52,210.88
3137,G3,562.5,0.5,29,210.88
3138,B-3,562.5,3.0,44,210.88
3139,B-4,562.5,3.0,44,210.88
3140,F#2,563.0,1.0,28,210.88
3141,E-3,563.0,0.5,39,210.88
3142,F#3,563.5,0.5,34,210.88
3143,E-4,563.5,1.0,46,210.88
3144,G4,563.5,1.0,46,210.88
3145,F2,564.0,3.0,33,210.88
3146,E-3,564.0,3.0,33,210.88
3147,F3,564.5,0.25,32,210.88
3148,D4,564.5,1.0,40,210.88
3149,F4,564.5,1.0,40,210.88
3150,F3,565.0,0.25,33,210.88
3151,F3,565.5,0.25,30,210.88
3152,D4,565.5,1.0,52,210.88
3153,F4,565.5,1.0,52,210.88
3154,D5,565.5,1.0,52,210.88
3155,F3,566.0,0.25,34,210.88
3156,F3,566.5,0.25,31,210.88
3157,D4,566.5,3.0,52,210.88
3158,G4,566.5,3.0,52,210.88
3159,D5,566.5,3.0,52,210.88
3160,F2,567.0,0.5,28,210.88
3161,D3,567.0,0.5,28,210.88
3162,F3,567.0,0.5,28,210.88
3163,F2,567.5,0.5,27,210.88
3164,C3,567.5,0.5,27,210.88
3165,F3,567.5,0.5,27,210.88
3166,F2,568.0,1.0,28,210.88
3167,B-2,568.0,0.5,34,210.88
3168,F3,568.5,0.5,30,210.88
3169,F2,569.0,1.0,26,210.88
3170,C3,569.0,0.5,31,210.88
3171,F3,569.5,0.5,26,210.88
3172,C4,569.5,0.5,47,210.88
3173,G4,569.5,0.5,47,210.88
3174,C5,569.5,0.5,47,210.88
3175,F2,570.0,1.0,28,210.88
3176,D3,570.0,0.5,29,210.88
3177,B3,570.0,0.5,43,210.88
3178,G4,570.0,0.5,43,210.88
3179,B4,570.0,0.5,43,210.88
3180,F3,570.5,0.5,27,210.88
3181,E-4,570.5,1.0,57,210.88
3182,G4,570.5,1.0,57,210.88
3183,E-5,570.5,1.0,57,210.88
3184,F2,571.0,1.0,25,210.88
3185,E-3,571.0,0.5,35,210.88
3186,F3,571.5,0.5,30,210.88
3187,D4,571.5,1.0,53,210.88
3188,G4,571.5,1.0,53,210.88
3189,D5,571.5,1.0,53,210.88
3190,F3,572.0,2.5,32,210.88
3191,F2,572.0,2.0,30,210.88
3192,E-3,572.0,2.0,30,210.88
3193,C4,572.5,1.0,51,210.88
3194,G4,572.5,1.0,51,210.88
3195,C5,572.5,1.0,51,210.88
3196,C4,573.5,1.0,52,210.88
3197,A4,573.5,1.0,52,210.88
3198,C5,573.5,1.0,52,210.88
3199,B-2,574.0,0.5,28,210.88
3200,D3,574.0,0.5,28,210.88
3201,F4,574.5,3.0,50,210.88
3202,C4,574.5,3.0,50,210.88
3203,A4,574.5,3.0,50,210.88
3204,C5,574.5,3.0,50,210.88
3205,B-1,575.0,0.5,30,210.88
3206,B-1,576.0,0.188,30,210.88
3207,B1,576.125,0.188,26,210.88
3208,B-1,576.25,0.188,27,210.88
3209,B1,576.375,0.188,25,210.88
3210,B-1,576.5,0.188,27,210.88
3211,B1,576.625,0.188,25,210.88
3212,B-1,576.75,0.188,28,210.88
3213,B1,576.875,0.188,27,210.88
3214,B-1,577.0,0.188,29,210.88
3215,B1,577.125,0.188,26,210.88
3216,B-1,577.25,0.188,29,210.88
3217,B1,577.375,0.188,25,210.88
3218,B-1,577.5,0.188,28,210.88
3219,B-3,577.5,0.5,47,210.88
3220,F4,577.5,0.5,47,210.88
3221,B-4,577.5,0.5,47,210.88
3222,B1,577.625,0.188,26,210.88
3223,B-1,577.75,0.188,27,210.88
3224,B1,577.875,0.188,25,210.88
3225,B-1,578.0,0.188,29,210.88
3226,A3,578.0,0.5,43,210.88
3227,F4,578.0,0.5,43,210.88
3228,A4,578.0,0.5,43,210.88
3229,B1,578.125,0.188,26,210.88
3230,B-1,578.25,0.188,28,210.88
3231,B1,578.375,0.188,26,210.88
3232,B-1,578.5,0.188,28,210.88
3233,D4,578.5,1.0,57,210.88
3234,F4,578.5,1.0,57,210.88
3235,D5,578.5,1.0,57,210.88
3236,B1,578.625,0.188,25,210.88
3237,B-1,578.75,0.188,28,210.88
3238,B1,578.875,0.188,25,210.88
3239,B-1,579.0,73/250,30,210.88
3240,A1,579.25,73/250,26,210.88
3241,G#1,579.5,73/250,30,210.88
3242,A3,579.5,1.0,50,210.88
3243,F4,579.5,1.0,50,210.88
3244,A4,579.5,1.0,50,210.88
3245,G1,579.75,0.25,26,210.88
3246,F#1,580.0,0.25,30,210.88
3247,G1,580.0,21/500,26,210.88
3248,C#3,580.25,0.25,26,210.88
3249,F#3,580.5,0.25,26,210.88
3250,B-3,580.5,1.0,53,210.88
3251,F4,580.5,1.0,53,210.88
3252,B-4,580.5,1.0,53,210.88
3253,C#3,580.75,0.25,26,210.88
3254,F#2,581.0,0.25,31,210.88
3255,C#3,581.25,0.25,26,210.88
3256,F3,581.5,0.25,26,210.88
3257,F4,581.5,1.0,46,210.88
3258,C4,581.5,1.0,46,210.88
3259,A4,581.5,1.0,46,210.88
3260,C5,581.5,1.0,46,210.88
3261,C#3,581.75,0.25,25,210.88
3262,F#2,582.0,0.25,30,210.88
3263,C#3,582.25,0.25,27,210.88
3264,F4,582.5,2.5,40,210.88
3265,F#3,582.5,0.25,27,210.88
3266,C4,582.5,2.0,46,210.88
3267,A4,582.5,2.0,46,210.88
3268,C5,582.5,2.0,46,210.88
3269,C#3,582.75,0.25,27,210.88
3270,F#2,583.0,0.25,30,210.88
3271,C#3,583.25,0.25,27,210.88
3272,G#3,583.5,0.25,27,210.88
3273,C#3,583.75,0.25,27,210.88
3274,F#2,584.0,0.25,33,210.88
3275,C#3,584.25,0.25,27,210.88
3276,B-3,584.5,0.25,27,210.88
3277,B-3,584.5,0.5,48,210.88
3278,B-4,584.5,0.5,48,210.88
3279,C#3,584.75,0.25,27,210.88
3280,F#2,585.0,0.25,31,210.88
3281,C#3,585.25,0.25,27,210.88
3282,B-3,585.5,0.25,27,210.88
3283,C#3,585.75,0.25,27,210.88
3284,F#2,586.0,0.25,30,210.88
3285,C#3,586.25,0.25,27,210.88
3286,B-3,586.5,0.25,27,210.88
3287,C#3,586.75,0.25,27,210.88
3288,F#2,587.0,0.25,31,210.88
3289,C#3,587.25,0.25,25,210.88
3290,F#3,587.5,0.25,28,210.88
3291,C#3,587.75,0.25,27,210.88
3292,F#2,588.0,0.25,33,210.88
3293,E-3,588.25,0.25,27,210.88
3294,B3,588.5,0.25,27,210.88
3295,E-3,588.75,0.25,27,210.88
3296,F#2,589.0,0.25,32,210.88
3297,E-3,589.25,0.25,27,210.88
3298,B-4,589.5,1.0,51,210.88
3299,B3,589.5,0.25,27,210.88
3300,E-3,589.75,0.25,27,210.88
3301,F#2,590.0,0.25,32,210.88
3302,E-3,590.25,0.25,27,210.88
3303,B-4,590.5,1.0,52,210.88
3304,B3,590.5,0.25,27,210.88
3305,E-3,590.75,0.25,27,210.88
3306,F#2,591.0,0.25,33,210.88
3307,E-3,591.25,0.25,27,210.88
3308,G#4,591.5,1.0,51,210.88
3309,B3,591.5,0.25,31,210.88
3310,E-3,591.75,0.25,27,210.88
3311,F#2,592.0,0.25,33,210.88
3312,C#3,592.25,0.25,28,210.88
3313,B-4,592.5,1.0,52,210.88
3314,B-3,592.5,0.25,28,210.88
3315,C#3,592.75,0.25,28,210.88
3316,F#2,593.0,0.25,33,210.88
3317,C#3,593.25,0.25,27,210.88
3318,B4,593.5,1.0,50,210.88
3319,B-3,593.5,0.25,28,210.88
3320,C#3,593.75,0.25,27,210.88
3321,F#2,594.0,0.25,33,210.88
3322,C#3,594.25,0.25,28,210.88
3323,C#5,594.5,3.0,52,210.88
3324,B-3,594.5,0.25,29,210.88
3325,C#3,594.75,0.25,29,210.88
3326,F#2,595.0,0.25,33,210.88
3327,C#3,595.25,0.25,27,210.88
3328,F#3,595.5,0.25,31,210.88
3329,C#3,595.75,0.25,27,210.88
3330,F#2,596.0,0.25,33,210.88
3331,E-3,596.25,0.25,28,210.88
3332,B3,596.5,0.25,28,210.88
3333,E-3,596.75,0.25,28,210.88
3334,F#2,597.0,0.25,33,210.88
3335,E-3,597.25,0.25,29,210.88
3336,B4,597.5,0.5,55,210.88
3337,B3,597.5,0.25,29,210.88
3338,E-3,597.75,0.25,29,210.88
3339,B-4,598.0,0.5,52,210.88
3340,F#2,598.0,0.25,33,210.88
3341,C#3,598.25,0.25,28,210.88
3342,E-5,598.5,0.5,58,210.88
3343,F3,598.5,0.25,28,210.88
3344,C#3,598.75,0.25,27,210.88
3345,F#2,599.0,0.25,31,210.88
3346,C#3,599.25,0.25,27,210.88
3347,E-5,599.5,0.5,54,210.88
3348,G#3,599.5,0.25,28,210.88
3349,C#3,599.75,0.25,28,210.88
3350,F#2,600.0,0.25,33,210.88
3351,C#3,600.25,0.25,28,210.88
3352,E-5,600.5,0.5,54,210.88
3353,B-3,600.5,0.25,28,210.88
3354,C#3,600.75,0.25,28,210.88
3355,F#2,601.0,0.25,33,210.88
3356,C#3,601.25,0.25,27,210.88
3357,F5,601.5,0.5,56,210.88
3358,B-3,601.5,0.25,28,210.88
3359,C#3,601.75,0.25,27,210.88
3360,F#5,602.0,0.5,51,210.88
3361,F#2,602.0,0.25,33,210.88
3362,C#3,602.25,0.25,28,210.88
3363,C#5,602.5,3.0,54,210.88
3364,B-3,602.5,0.25,29,210.88
3365,C#3,602.75,0.25,29,210.88
3366,F#2,603.0,0.25,33,210.88
3367,C#3,603.25,0.25,27,210.88
3368,B-3,603.5,0.25,31,210.88
3369,C#3,603.75,0.25,27,210.88
3370,F#2,604.0,0.25,33,210.88
3371,E-3,604.25,0.25,28,210.88
3372,F#3,604.5,0.25,28,210.88
3373,E-3,604.75,0.25,28,210.88
3374,F#2,605.0,0.25,33,210.88
3375,E-3,605.25,0.25,29,210.88
3376,B4,605.5,0.5,52,210.88
3377,B3,605.5,0.25,29,210.88
3378,E-3,605.75,0.25,29,210.88
3379,B-4,606.0,0.5,51,210.88
3380,F#2,606.0,0.25,33,210.88
3381,C#3,606.25,0.25,28,210.88
3382,B4,606.5,1.0,52,210.88
3383,F3,606.5,0.25,28,210.88
3384,C#3,606.75,0.25,27,210.88
3385,F#2,607.0,0.25,31,210.88
3386,C#3,607.25,0.25,27,210.88
3387,E-5,607.5,1.0,52,210.88
3388,G#3,607.5,0.25,28,210.88
3389,C#3,607.75,0.25,28,210.88
3390,F#2,608.0,0.125,33,210.88
3391,B-3,608.25,0.25,28,210.88
3392,G#4,608.5,1.0,52,210.88
3393,F#3,608.5,0.25,28,210.88
3394,B-3,608.75,0.25,28,210.88
3395,F#3,609.0,0.25,33,210.88
3396,B-3,609.25,0.25,29,210.88
3397,B4,609.5,1.0,52,210.88
3398,F#3,609.5,0.25,29,210.88
3399,B-3,609.75,0.25,29,210.88
3400,F#2,610.0,0.125,33,210.88
3401,B-3,610.25,0.25,28,210.88
3402,B-4,610.5,1.0,54,210.88
3403,F#3,610.5,0.25,28,210.88
3404,B-3,610.75,0.25,27,210.88
3405,F#3,611.0,0.25,31,210.88
3406,B-3,611.25,0.25,27,210.88
3407,F#3,611.5,0.25,28,210.88
3408,F#4,611.5,1.5,56,210.88
3409,F#5,611.5,1.5,56,210.88
3410,B-3,611.75,0.25,28,210.88
3411,F#2,612.0,0.125,33,210.88
3412,B3,612.25,0.25,28,210.88
3413,F#3,612.5,0.25,28,210.88
3414,B3,612.75,0.25,28,210.88
3415,F#3,613.0,0.25,33,210.88
3416,F4,613.0,0.5,49,210.88
3417,F5,613.0,0.5,49,210.88
3418,B3,613.25,0.25,29,210.88
3419,F#3,613.5,0.25,29,210.88
3420,E-4,613.5,0.5,52,210.88
3421,E-5,613.5,0.5,52,210.88
3422,B3,613.75,0.25,29,210.88
3423,F#2,614.0,0.125,33,210.88
3424,C#4,614.0,0.5,47,210.88
3425,C#5,614.0,0.5,47,210.88
3426,B3,614.25,0.25,28,210.88
3427,F#3,614.5,0.25,28,210.88
3428,B3,614.5,1.0,50,210.88
3429,B4,614.5,1.0,50,210.88
3430,B3,614.75,0.25,27,210.88
3431,F#3,615.0,0.25,31,210.88
3432,B3,615.25,0.25,27,210.88
3433,E-5,615.5,1.0,56,210.88
3434,F#3,615.5,0.25,28,210.88
3435,B3,615.75,0.25,28,210.88
3436,F#2,616.0,0.125,33,210.88
3437,B-3,616.25,0.25,28,210.88
3438,G#4,616.5,1.0,54,210.88
3439,F#3,616.5,0.25,28,210.88
3440,B-3,616.75,0.25,28,210.88
3441,F#3,617.0,0.25,33,210.88
3442,B-3,617.25,0.25,29,210.88
3443,B-4,617.5,0.5,52,210.88
3444,F#3,617.5,0.25,29,210.88
3445,B-3,617.75,0.25,29,210.88
3446,B4,618.0,0.5,52,210.88
3447,F#2,618.0,0.125,33,210.88
3448,B-3,618.25,0.25,28,210.88
3449,B-4,618.5,0.5,55,210.88
3450,F#3,618.5,0.25,28,210.88
3451,B-3,618.75,0.25,27,210.88
3452,C#5,619.0,0.5,52,210.88
3453,F#3,619.0,0.25,31,210.88
3454,B-3,619.25,0.25,27,210.88
3455,B-5,619.5,0.5,56,210.88
3456,F#3,619.5,0.25,28,210.88
3457,B-3,619.75,0.25,28,210.88
3458,F#5,620.0,0.5,52,210.88
3459,F#2,620.0,0.125,33,210.88
3460,B3,620.25,0.25,28,210.88
3461,C#5,620.5,0.5,56,210.88
3462,F#3,620.5,0.25,28,210.88
3463,B3,620.75,0.25,28,210.88
3464,B-4,621.0,0.5,52,210.88
3465,F#3,621.0,0.25,33,210.88
3466,B3,621.25,0.25,29,210.88
3467,F#5,621.5,0.5,55,210.88
3468,F#3,621.5,0.25,29,210.88
3469,B3,621.75,0.25,29,210.88
3470,D5,622.0,0.5,52,210.88
3471,F#2,622.0,0.125,33,210.88
3472,B3,622.25,0.25,28,210.88
3473,E-5,622.5,0.5,55,210.88
3474,F#3,622.5,0.25,28,210.88
3475,B3,622.75,0.25,27,210.88
3476,B4,623.0,0.5,52,210.88
3477,F#3,623.0,0.25,31,210.88
3478,B3,623.25,0.25,27,210.88
3479,B5,623.5,0.5,56,210.88
3480,F#3,623.5,0.25,28,210.88
3481,B3,623.75,0.25,28,210.88
3482,G#5,624.0,0.5,54,210.88
3483,F#2,624.0,0.125,33,210.88
3484,B-3,624.25,0.25,28,210.88
3485,F5,624.5,0.5,58,210.88
3486,F#3,624.5,0.25,28,210.88
3487,B-3,624.75,0.25,28,210.88
3488,G#5,625.0,0.5,56,210.88
3489,F#3,625.0,0.25,33,210.88
3490,B-3,625.25,0.25,29,210.88
3491,C#6,625.5,0.5,58,210.88
3492,F#3,625.5,0.25,29,210.88
3493,B-3,625.75,0.25,29,210.88
3494,A5,626.0,0.5,54,210.88
3495,F#3,626.0,0.25,33,210.88
3496,B-3,626.25,0.25,28,210.88
3497,B-5,626.5,0.5,57,210.88
3498,F#3,626.5,0.25,28,210.88
3499,B-3,626.75,0.25,27,210.88
3500,F#5,627.0,0.5,54,210.88
3501,F#3,627.0,0.25,31,210.88
3502,B-3,627.25,0.25,27,210.88
3503,B-5,627.5,0.25,57,210.88
3504,F#3,627.5,0.25,28,210.88
3505,F#5,627.75,0.25,51,210.88
3506,B-3,627.75,0.25,28,210.88
3507,B-5,628.0,0.25,56,210.88
3508,F#2,628.0,0.125,33,210.88
3509,F#5,628.25,0.25,50,210.88
3510,B-3,628.25,0.25,28,210.88
3511,C#5,628.5,0.25,56,210.88
3512,F#3,628.5,0.25,28,210.88
3513,B-4,628.75,0.25,52,210.88
3514,B-3,628.75,0.25,28,210.88
3515,C#5,629.0,0.25,56,210.88
3516,F#3,629.0,0.25,33,210.88
3517,B-4,629.25,0.25,53,210.88
3518,B-3,629.25,0.25,29,210.88
3519,F#5,629.5,0.25,58,210.88
3520,F#3,629.5,0.25,29,210.88
3521,D5,629.75,0.25,53,210.88
3522,B-3,629.75,0.25,29,210.88
3523,F#5,630.0,0.25,57,210.88
3524,F#3,630.0,0.25,33,210.88
3525,D5,630.25,0.25,52,210.88
3526,B-3,630.25,0.25,28,210.88
3527,E-5,630.5,0.25,57,210.88
3528,F#3,630.5,0.25,28,210.88
3529,B4,630.75,0.25,52,210.88
3530,B-3,630.75,0.25,27,210.88
3531,E-5,631.0,0.25,54,210.88
3532,F#3,631.0,0.25,31,210.88
3533,B4,631.25,0.25,52,210.88
3534,B-3,631.25,0.25,27,210.88
3535,B5,631.5,0.25,57,210.88
3536,F#3,631.5,0.25,28,210.88
3537,G#5,631.75,0.25,51,210.88
3538,B-3,631.75,0.25,28,210.88
3539,B5,632.0,0.25,56,210.88
3540,F#3,632.0,0.25,33,210.88
3541,G#5,632.25,0.25,50,210.88
3542,B-3,632.25,0.25,28,210.88
3543,F5,632.5,0.25,56,210.88
3544,F#3,632.5,0.25,28,210.88
3545,G#5,632.75,0.25,52,210.88
3546,B-3,632.75,0.25,28,210.88
3547,F5,633.0,0.25,56,210.88
3548,F#3,633.0,0.25,33,210.88
3549,G#5,633.25,0.25,53,210.88
3550,B-3,633.25,0.25,29,210.88
3551,C#6,633.5,0.25,58,210.88
3552,F#3,633.5,0.25,29,210.88
3553,A5,633.75,0.25,53,210.88
3554,B-3,633.75,0.25,30,210.88
3555,C#6,634.0,0.25,57,210.88
3556,F#3,634.0,0.25,34,210.88
3557,A5,634.25,0.25,52,210.88
3558,B-3,634.25,0.25,29,210.88
3559,B-5,634.5,0.25,57,210.88
3560,F#3,634.5,0.25,29,210.88
3561,A5,634.75,0.25,53,210.88
3562,B-3,634.75,0.25,28,210.88
3563,B-5,635.0,0.25,52,210.88
3564,F#3,635.0,0.25,33,210.88
3565,F5,635.25,0.25,52,210.88
3566,B-3,635.25,0.25,29,210.88
3567,F#5,635.5,0.25,57,210.88
3568,F#3,635.5,0.25,30,210.88
3569,F5,635.75,0.25,51,210.88
3570,B-3,635.75,0.25,30,210.88
3571,F#5,636.0,0.25,51,210.88
3572,F#2,636.0,333/1000,34,210.88
3573,C5,636.25,0.25,50,210.88
3574,F#3,636.333,317/1000,31,210.88
3575,C#5,636.5,0.25,55,210.88
3576,F#3,636.667,317/1000,28,210.88
3577,F#2,636.667,317/1000,28,210.88
3578,C5,636.75,0.25,51,210.88
3579,C#5,637.0,0.25,51,210.88
3580,F#2,637.0,317/1000,32,210.88
3581,F#3,637.0,317/1000,32,210.88
3582,A4,637.25,0.25,51,210.88
3583,F#2,637.333,317/1000,28,210.88
3584,F#3,637.333,317/1000,28,210.88
3585,B-4,637.5,0.25,54,210.88
3586,F#2,637.667,317/1000,30,210.88
3587,F#3,637.667,317/1000,30,210.88
3588,A4,637.75,0.25,47,210.88
3589,B-4,638.0,0.25,49,210.88
3590,F#2,638.0,317/1000,34,210.88
3591,F#3,638.0,317/1000,34,210.88
3592,F4,638.25,0.25,47,210.88
3593,F#2,638.333,317/1000,32,210.88
3594,F#3,638.333,317/1000,32,210.88
3595,F#4,638.5,0.25,57,210.88
3596,F#2,638.667,317/1000,32,210.88
3597,F#3,638.667,317/1000,32,210.88
3598,A5,638.75,0.25,53,210.88
3599,B-5,639.0,0.25,52,210.88
3600,C#3,639.0,317/1000,34,210.88
3601,F#2,639.0,317/1000,34,210.88
3602,F#3,639.0,317/1000,34,210.88
3603,F5,639.25,0.25,52,210.88
3604,C#3,639.333,317/1000,32,210.88
3605,F#2,639.333,317/1000,32,210.88
3606,F#3,639.333,317/1000,32,210.88
3607,F#5,639.5,0.25,57,210.88
3608,C#3,639.667,317/1000,32,210.88
3609,F#2,639.667,317/1000,32,210.88
3610,F#3,639.667,317/1000,32,210.88
3611,F5,639.75,0.25,51,210.88
3612,F#5,640.0,0.25,51,210.88
3613,C#3,640.0,317/1000,35,210.88
3614,F#2,640.0,317/1000,35,210.88
3615,F#3,640.0,317/1000,35,210.88
3616,C5,640.25,0.25,50,210.88
3617,C#3,640.333,317/1000,33,210.88
3618,F#2,640.333,317/1000,33,210.88
3619,F#3,640.333,317/1000,33,210.88
3620,C#5,640.5,0.25,55,210.88
3621,C#3,640.667,317/1000,34,210.88
3622,F#2,640.667,317/1000,34,210.88
3623,F#3,640.667,317/1000,34,210.88
3624,C5,640.75,0.25,51,210.88
3625,C#5,641.0,0.25,51,210.88
3626,C#3,641.0,317/1000,39,210.88
3627,F#2,641.0,317/1000,39,210.88
3628,F#3,641.0,317/1000,39,210.88
3629,A4,641.25,0.25,51,210.88
3630,C#3,641.333,317/1000,37,210.88
3631,F#2,641.333,317/1000,37,210.88
3632,F#3,641.333,317/1000,37,210.88
3633,B-4,641.5,0.25,54,210.88
3634,C#3,641.667,317/1000,38,210.88
3635,F#2,641.667,317/1000,38,210.88
3636,F#3,641.667,317/1000,38,210.88
3637,A4,641.75,0.25,47,210.88
3638,B-4,642.0,0.25,49,210.88
3639,C#3,642.0,317/1000,43,210.88
3640,F#2,642.0,317/1000,43,210.88
3641,F#3,642.0,317/1000,43,210.88
3642,F4,642.25,0.25,47,210.88
3643,C#3,642.333,317/1000,41,210.88
3644,F#2,642.333,317/1000,41,210.88
3645,F#3,642.333,317/1000,41,210.88
3646,F#4,642.5,0.25,53,210.88
3647,C#3,642.667,317/1000,42,210.88
3648,F#2,642.667,317/1000,42,210.88
3649,F#3,642.667,317/1000,42,210.88
3650,F4,642.75,0.25,49,210.88
3651,F#4,643.0,0.25,49,210.88
3652,F3,643.0,317/1000,51,210.88
3653,F2,643.0,317/1000,51,210.88
3654,D3,643.0,317/1000,51,210.88
3655,G#4,643.25,0.25,49,210.88
3656,F3,643.333,317/1000,47,210.88
3657,F2,643.333,317/1000,47,210.88
3658,D3,643.333,317/1000,47,210.88
3659,B-4,643.5,0.25,55,210.88
3660,F3,643.667,317/1000,47,210.88
3661,F2,643.667,317/1000,47,210.88
3662,D3,643.667,317/1000,47,210.88
3663,B4,643.75,0.25,49,210.88
3664,B-4,644.0,0.25,49,210.88
3665,D3,644.0,333/1000,63,210.88
3666,F2,644.0,1.0,63,210.88
3667,G#4,644.25,0.25,49,210.88
3668,F3,644.333,333/1000,58,210.88
3669,F#4,644.5,0.25,55,210.88
3670,F3,644.667,167/1000,58,210.88
3671,G#4,644.75,0.25,50,210.88
3672,B-4,645.0,0.25,50,210.88
3673,C3,645.0,333/1000,62,210.88
3674,F2,645.0,1.0,62,210.88
3675,G#4,645.25,0.25,50,210.88
3676,F3,645.333,333/1000,58,210.88
3677,F#4,645.5,0.25,55,210.88
3678,F3,645.667,167/1000,58,210.88
3679,G#4,645.75,0.25,50,210.88
3680,F#4,646.0,0.25,52,210.88
3681,D3,646.0,333/1000,60,210.88
3682,F2,646.0,1.0,60,210.88
3683,F4,646.25,0.25,51,210.88
3684,F3,646.333,333/1000,58,210.88
3685,E4,646.5,333/1000,57,210.88
3686,F3,646.667,167/1000,58,210.88
3687,B-4,646.833,317/1000,52,210.88
3688,E-3,647.0,333/1000,61,210.88
3689,F2,647.0,1.0,61,210.88
3690,B-3,647.167,317/1000,48,210.88
3691,E4,647.167,317/1000,48,210.88
3692,B-4,647.167,317/1000,48,210.88
3693,F3,647.333,333/1000,58,210.88
3694,B-3,647.5,317/1000,53,210.88
3695,E4,647.5,317/1000,53,210.88
3696,B-4,647.5,317/1000,53,210.88
3697,F3,647.667,167/1000,58,210.88
3698,B-3,647.833,317/1000,50,210.88
3699,E4,647.833,317/1000,50,210.88
3700,B-4,647.833,317/1000,50,210.88
3701,E3,648.0,333/1000,60,210.88
3702,F2,648.0,3.0,60,210.88
3703,B-3,648.167,317/1000,51,210.88
3704,E4,648.167,317/1000,51,210.88
3705,B-4,648.167,317/1000,51,210.88
3706,F3,648.333,333/1000,58,210.88
3707,B-3,648.5,317/1000,55,210.88
3708,E4,648.5,317/1000,55,210.88
3709,B-4,648.5,317/1000,55,210.88
3710,F3,648.667,167/1000,58,210.88
3711,B-3,648.833,317/1000,50,210.88
3712,E4,648.833,317/1000,50,210.88
3713,B-4,648.833,317/1000,50,210.88
3714,F3,649.0,333/1000,60,210.88
3715,B-3,649.167,317/1000,50,210.88
3716,E4,649.167,317/1000,50,210.88
3717,B-4,649.167,317/1000,50,210.88
3718,F3,649.333,333/1000,58,210.88
3719,B-3,649.5,317/1000,58,210.88
3720,E4,649.5,317/1000,58,210.88
3721,B-4,649.5,317/1000,58,210.88
3722,F3,649.667,167/1000,58,210.88
3723,B-3,649.833,317/1000,54,210.88
3724,E4,649.833,317/1000,54,210.88
3725,B-4,649.833,317/1000,54,210.88
3726,F3,650.0,317/1000,62,210.88
3727,B-3,650.167,317/1000,55,210.88
3728,E4,650.167,317/1000,55,210.88
3729,B-4,650.167,317/1000,55,210.88
3730,F3,650.333,317/1000,58,210.88
3731,B-3,650.5,317/1000,60,210.88
3732,E4,650.5,317/1000,60,210.88
3733,B-4,650.5,317/1000,60,210.88
3734,F3,650.667,317/1000,58,210.88
3735,B-3,650.833,317/1000,57,210.88
3736,E4,650.833,317/1000,57,210.88
3737,B-4,650.833,317/1000,57,210.88
3738,E-3,651.0,333/1000,61,210.88
3739,F2,651.0,1.0,53,210.88
3740,B-3,651.167,317/1000,58,210.88
3741,E4,651.167,317/1000,58,210.88
3742,B-4,651.167,317/1000,58,210.88
3743,F3,651.333,333/1000,53,210.88
3744,B-3,651.5,317/1000,63,210.88
3745,E4,651.5,317/1000,63,210.88
3746,B-4,651.5,317/1000,63,210.88
3747,D3,651.667,333/1000,53,210.88
3748,B-3,651.833,317/1000,60,210.88
3749,E4,651.833,317/1000,60,210.88
3750,B-4,651.833,317/1000,60,210.88
3751,E-3,652.0,333/1000,60,210.88
3752,F2,652.0,1.0,60,210.88
3753,B-3,652.167,317/1000,61,210.88
3754,E4,652.167,317/1000,61,210.88
3755,B-4,652.167,317/1000,61,210.88
3756,F3,652.333,317/1000,55,210.88
3757,B-3,652.5,317/1000,66,210.88
3758,E4,652.5,317/1000,66,210.88
3759,B-4,652.5,317/1000,66,210.88
3760,F3,652.667,317/1000,55,210.88
3761,B-3,652.833,317/1000,63,210.88
3762,E4,652.833,317/1000,63,210.88
3763,B-4,652.833,317/1000,63,210.88
3764,E-3,653.0,333/1000,60,210.88
3765,F2,653.0,1.0,60,210.88
3766,B-3,653.167,317/1000,64,210.88
3767,E4,653.167,317/1000,64,210.88
3768,B-4,653.167,317/1000,64,210.88
3769,F3,653.333,317/1000,56,210.88
3770,F4,653.5,317/1000,76,210.88
3771,B-3,653.5,317/1000,76,210.88
3772,B-4,653.5,317/1000,76,210.88
3773,F3,653.667,317/1000,56,210.88
3774,F4,653.833,317/1000,71,210.88
3775,B-3,653.833,317/1000,71,210.88
3776,B-4,653.833,317/1000,71,210.88
3777,E-3,654.0,333/1000,62,210.88
3778,F2,654.0,1.0,62,210.88
3779,F4,654.167,317/1000,71,210.88
3780,B-3,654.167,317/1000,71,210.88
3781,B-4,654.167,317/1000,71,210.88
3782,F3,654.333,317/1000,58,210.88
3783,B-3,654.5,1.0,77,210.88
3784,F4,654.5,1.0,77,210.88
3785,B-4,654.5,1.0,77,210.88
3786,F3,654.667,317/1000,58,210.88
3787,D3,655.0,333/1000,62,210.88
3788,F2,655.0,1.0,62,210.88
3789,F3,655.333,333/1000,59,210.88
3790,A3,655.5,1.0,72,210.88
3791,F4,655.5,1.0,72,210.88
3792,A4,655.5,1.0,72,210.88
3793,C3,655.667,333/1000,59,210.88
3794,D3,656.0,333/1000,62,210.88
3795,B-2,656.0,3.0,62,210.88
3796,F3,656.333,331/1000,56,210.88
3797,B-3,656.5,1.0,72,210.88
3798,F4,656.5,1.0,72,210.88
3799,B-4,656.5,1.0,72,210.88
3800,F3,656.667,331/1000,56,210.88
3801,E-3,657.0,333/1000,60,210.88
3802,G3,657.333,331/1000,56,210.88
3803,C4,657.5,1.0,72,210.88
3804,F4,657.5,1.0,72,210.88
3805,C5,657.5,1.0,72,210.88
3806,G3,657.667,331/1000,56,210.88
3807,D3,658.0,333/1000,60,210.88
3808,F3,658.333,331/1000,56,210.88
3809,D4,658.5,3.0,78,210.88
3810,F4,658.5,3.0,78,210.88
3811,D5,658.5,3.0,78,210.88
3812,F3,658.667,331/1000,57,210.88
3813,D3,659.0,333/1000,59,210.88
3814,G#2,659.0,1.0,59,210.88
3815,F3,659.333,331/1000,54,210.88
3816,F3,659.667,331/1000,54,210.88
3817,F3,660.0,333/1000,59,210.88
3818,G2,660.0,3.0,59,210.88
3819,G3,660.333,331/1000,53,210.88
3820,G3,660.667,331/1000,53,210.88
3821,F3,661.0,333/1000,56,210.88
3822,G3,661.333,331/1000,53,210.88
3823,C4,661.5,0.5,75,210.88
3824,F4,661.5,0.5,75,210.88
3825,C5,661.5,0.5,75,210.88
3826,G3,661.667,331/1000,53,210.88
3827,F3,662.0,333/1000,57,210.88
3828,B-3,662.0,0.5,70,210.88
3829,F4,662.0,0.5,70,210.88
3830,B-4,662.0,0.5,70,210.88
3831,G3,662.333,331/1000,51,210.88
3832,C4,662.5,99/100,74,210.88
3833,F4,662.5,99/100,74,210.88
3834,C5,662.5,99/100,74,210.88
3835,G3,662.667,333/1000,51,210.88
3836,E-3,663.0,333/1000,56,210.88
3837,G2,663.0,1.0,56,210.88
3838,G3,663.333,333/1000,51,210.88
3839,C4,663.5,99/100,71,210.88
3840,F4,663.5,99/100,71,210.88
3841,C5,663.5,99/100,71,210.88
3842,D3,663.667,333/1000,51,210.88
3843,C3,664.0,333/1000,54,210.88
3844,G2,664.0,1.0,54,210.88
3845,G3,664.333,331/1000,50,210.88
3846,C4,664.5,99/100,71,210.88
3847,F4,664.5,99/100,71,210.88
3848,C5,664.5,99/100,71,210.88
3849,G3,664.667,331/1000,50,210.88
3850,F3,665.0,333/1000,54,210.88
3851,G2,665.0,1.0,54,210.88
3852,G3,665.333,331/1000,50,210.88
3853,B-3,665.5,0.5,74,210.88
3854,F4,665.5,0.5,74,210.88
3855,B-4,665.5,0.5,74,210.88
3856,G3,665.667,331/1000,50,210.88
3857,E-3,666.0,333/1000,55,210.88
3858,G2,666.0,1.0,55,210.88
3859,A3,666.0,0.5,70,210.88
3860,F4,666.0,0.5,70,210.88
3861,A4,666.0,0.5,70,210.88
3862,G3,666.333,331/1000,50,210.88
3863,F4,666.5,1.0,77,210.88
3864,B-3,666.5,3.0,82,210.88
3865,B-4,666.5,3.0,82,210.88
3866,G3,666.667,331/1000,50,210.88
3867,E-3,667.0,333/1000,57,210.88
3868,F#2,667.0,1.0,57,210.88
3869,F#3,667.333,331/1000,52,210.88
3870,E-4,667.5,1.0,80,210.88
3871,G4,667.5,1.0,80,210.88
3872,F#3,667.667,331/1000,52,210.88
3873,E-3,668.0,333/1000,58,210.88
3874,F2,668.0,3.0,58,210.88
3875,F3,668.333,317/1000,52,210.88
3876,D4,668.5,1.0,76,210.88
3877,F4,668.5,1.0,76,210.88
3878,F3,668.667,317/1000,52,210.88
3879,E-3,669.0,333/1000,56,210.88
3880,F3,669.333,317/1000,52,210.88
3881,D4,669.5,1.0,76,210.88
3882,F4,669.5,1.0,76,210.88
3883,D5,669.5,1.0,76,210.88
3884,F3,669.667,317/1000,53,210.88
3885,E-3,670.0,333/1000,57,210.88
3886,F3,670.333,317/1000,52,210.88
3887,D4,670.5,3.0,76,210.88
3888,G4,670.5,3.0,76,210.88
3889,D5,670.5,3.0,76,210.88
3890,F3,670.667,317/1000,52,210.88
3891,D3,671.0,333/1000,57,210.88
3892,F2,671.0,1.0,57,210.88
3893,F3,671.333,333/1000,54,210.88
3894,C3,671.667,333/1000,51,210.88
3895,B-2,672.0,333/1000,58,210.88
3896,F2,672.0,1.0,58,210.88
3897,F3,672.333,317/1000,53,210.88
3898,F3,672.667,317/1000,53,210.88
3899,C3,673.0,333/1000,58,210.88
3900,F2,673.0,1.0,58,210.88
3901,F3,673.333,317/1000,52,210.88
3902,C4,673.5,0.5,71,210.88
3903,G4,673.5,0.5,71,210.88
3904,C5,673.5,0.5,71,210.88
3905,F3,673.667,317/1000,52,210.88
3906,D3,674.0,333/1000,56,210.88
3907,F2,674.0,1.0,56,210.88
3908,B3,674.0,0.5,67,210.88
3909,G4,674.0,0.5,67,210.88
3910,B4,674.0,0.5,67,210.88
3911,F3,674.333,317/1000,52,210.88
3912,E-4,674.5,1.0,80,210.88
3913,G4,674.5,1.0,80,210.88
3914,E-5,674.5,1.0,80,210.88
3915,F3,674.667,317/1000,52,210.88
3916,E-3,675.0,333/1000,56,210.88
3917,F2,675.0,1.0,56,210.88
3918,F3,675.333,317/1000,52,210.88
3919,D4,675.5,1.0,77,210.88
3920,G4,675.5,1.0,77,210.88
3921,D5,675.5,1.0,77,210.88
3922,F3,675.667,317/1000,52,210.88
3923,F2,676.0,2.0,51,210.88
3924,E-3,676.0,2.0,51,210.88
3925,F3,676.333,317/1000,50,210.88
3926,C4,676.5,1.0,75,210.88
3927,G4,676.5,1.0,75,210.88
3928,C5,676.5,1.0,75,210.88
3929,F3,676.667,317/1000,50,210.88
3930,F3,677.0,317/1000,50,210.88
3931,F3,677.333,317/1000,50,210.88
3932,C4,677.5,1.0,73,210.88
3933,A4,677.5,1.0,73,210.88
3934,C5,677.5,1.0,73,210.88
3935,F3,677.667,317/1000,49,210.88
3936,F3,678.0,317/1000,49,210.88
3937,F3,678.333,317/1000,49,210.88
3938,F4,678.5,3.0,77,210.88
3939,C4,678.5,3.0,77,210.88
3940,A4,678.5,3.0,77,210.88
3941,C5,678.5,3.0,77,210.88
3942,F3,678.667,317/1000,49,210.88
3943,F3,679.0,317/1000,48,210.88
3944,F3,679.333,317/1000,48,210.88
3945,F3,679.667,317/1000,48,210.88
3946,F2,680.0,4.0,46,210.88
3947,D3,680.0,4.0,46,210.88
3948,F3,680.333,333/1000,42,210.88
3949,F3,680.667,317/1000,39,210.88
3950,F3,681.0,317/1000,38,210.88
3951,F3,681.333,317/1000,38,210.88
3952,B-3,681.5,0.5,75,210.88
3953,F4,681.5,0.5,75,210.88
3954,B-4,681.5,0.5,75,210.88
3955,F3,681.667,317/1000,37,210.88
3956,F3,682.0,317/1000,37,210.88
3957,A3,682.0,0.5,68,210.88
3958,F4,682.0,0.5,68,210.88
3959,A4,682.0,0.5,68,210.88
3960,F3,682.333,317/1000,36,210.88
3961,D4,682.5,1.0,78,210.88
3962,F4,682.5,1.0,78,210.88
3963,D5,682.5,1.0,78,210.88
3964,F3,682.667,317/1000,35,210.88
3965,F3,683.0,317/1000,36,210.88
3966,F3,683.333,317/1000,40,210.88
3967,A3,683.5,1.0,74,210.88
3968,F4,683.5,1.0,74,210.88
3969,A4,683.5,1.0,74,210.88
3970,F3,683.667,317/1000,44,210.88
3971,F3,684.0,333/1000,50,210.88
3972,G#2,684.333,317/1000,42,210.88
3973,B-3,684.5,1.0,78,210.88
3974,F4,684.5,1.0,78,210.88
3975,B-4,684.5,1.0,78,210.88
3976,G#2,684.667,317/1000,42,210.88
3977,G#2,685.0,317/1000,42,210.88
3978,G#2,685.333,317/1000,42,210.88
3979,F4,685.5,1.0,70,210.88
3980,C4,685.5,1.0,70,210.88
3981,A4,685.5,1.0,70,210.88
3982,C5,685.5,1.0,70,210.88
3983,G#2,685.667,317/1000,42,210.88
3984,G#2,686.0,317/1000,42,210.88
3985,G#2,686.333,317/1000,42,210.88
3986,F4,686.5,4.0,75,210.88
3987,C4,686.5,4.0,76,210.88
3988,A4,686.5,4.0,76,210.88
3989,C5,686.5,4.0,76,210.88
3990,G#2,686.667,317/1000,42,210.88
3991,G#2,687.0,317/1000,42,210.88
3992,G#2,687.333,317/1000,42,210.88
3993,G#2,687.667,317/1000,42,210.88
3994,G#2,688.0,333/1000,46,210.88
3995,C#2,688.333,317/1000,46,210.88
3996,C#2,688.667,317/1000,46,210.88
3997,C#2,689.0,317/1000,53,210.88
3998,C#2,689.333,317/1000,53,210.88
3999,C#2,689.667,317/1000,53,210.88
4000,C#2,690.0,317/1000,53,210.88
4001,C#2,690.333,317/1000,52,210.88
4002,F4,690.5,2.0,75,210.88
4003,B3,690.5,3.0,65,210.88
4004,G#4,690.5,3.0,65,210.88
4005,B4,690.5,3.0,65,210.88
4006,C#2,690.667,317/1000,52,210.88
4007,C#2,691.0,0.25,65,210.88
4008,B1,691.25,0.25,59,210.88
4009,A1,691.5,0.25,61,210.88
4010,G#1,691.75,0.25,59,210.88
4011,F#1,692.0,0.25,65,210.88
4012,D4,693.5,1.0,58,210.88
4013,F4,693.5,1.0,58,210.88
4014,G#4,693.5,1.0,58,210.88
4015,B4,693.5,1.0,58,210.88
4016,D4,694.5,3.0,58,210.88
4017,F4,694.5,3.0,58,210.88
4018,G#4,694.5,3.0,58,210.88
4019,B4,694.5,3.0,58,210.88
4020,F#3,695.0,1.0,42,210.88
4021,C#4,695.0,1.0,42,210.88
4022,F#3,696.0,2.5,42,210.88
4023,C#4,696.0,1.5,42,210.88
4024,B3,697.5,0.5,38,210.88
4025,F4,697.5,1.0,69,210.88
4026,G#4,697.5,1.0,69,210.88
4027,B4,697.5,1.0,69,210.88
4028,D5,697.5,1.0,69,210.88
4029,A3,698.0,0.5,41,210.88
4030,D5,698.5,2.0,86,210.88
4031,F4,698.5,2.5,72,210.88
4032,G#4,698.5,2.5,72,210.88
4033,B4,698.5,2.5,72,210.88
4034,F#3,699.0,1.0,38,210.88
4035,A3,699.0,1.0,38,210.88
4036,F#3,700.0,2.0,41,210.88
4037,A3,700.0,1.5,41,210.88
4038,C#5,700.5,0.5,86,210.88
4039,G#3,701.5,0.5,41,210.88
4040,G#4,701.5,0.5,84,210.88
4041,B4,701.5,0.5,84,210.88
4042,C#5,701.5,0.5,84,210.88
4043,F5,701.5,0.5,84,210.88
4044,F#3,702.0,0.5,44,210.88
4045,A4,702.5,317/1000,82,210.88
4046,C#5,702.5,317/1000,82,210.88
4047,F#5,702.5,317/1000,82,210.88
4048,A4,702.833,317/1000,31,210.88
4049,C#5,702.833,317/1000,31,210.88
4050,F#3,703.0,1.0,34,210.88
4051,A4,703.167,317/1000,33,210.88
4052,C#5,703.167,317/1000,33,210.88
4053,A4,703.5,317/1000,35,210.88
4054,C#5,703.5,317/1000,35,210.88
4055,A4,703.833,317/1000,32,210.88
4056,C#5,703.833,317/1000,32,210.88
4057,F#3,704.0,1.0,41,210.88
4058,A4,704.167,317/1000,32,210.88
4059,C#5,704.167,317/1000,32,210.88
4060,A4,704.5,317/1000,35,210.88
4061,C#5,704.5,317/1000,35,210.88
4062,A4,704.833,317/1000,32,210.88
4063,C#5,704.833,317/1000,32,210.88
4064,G#3,705.0,1.0,42,210.88
4065,A4,705.167,333/1000,32,210.88
4066,C#5,705.167,333/1000,32,210.88
4067,F#5,705.5,1.0,54,210.88
4068,A4,705.833,317/1000,30,210.88
4069,C#5,705.833,317/1000,30,210.88
4070,A3,706.0,1.0,47,210.88
4071,A4,706.167,317/1000,30,210.88
4072,C#5,706.167,317/1000,30,210.88
4073,F#5,706.5,1.0,53,210.88
4074,A4,706.833,317/1000,30,210.88
4075,C#5,706.833,317/1000,30,210.88
4076,E3,707.0,1.0,34,210.88
4077,B3,707.0,1.0,34,210.88
4078,A4,707.167,317/1000,30,210.88
4079,C#5,707.167,317/1000,30,210.88
4080,A5,707.5,1.0,53,210.88
4081,A4,707.833,317/1000,28,210.88
4082,C#5,707.833,317/1000,28,210.88
4083,A3,708.0,1.0,43,210.88
4084,C#4,708.0,1.0,43,210.88
4085,A4,708.167,317/1000,28,210.88
4086,C#5,708.167,317/1000,28,210.88
4087,F#5,708.5,1.0,53,210.88
4088,A4,708.833,317/1000,30,210.88
4089,C#5,708.833,317/1000,30,210.88
4090,G#3,709.0,1.0,42,210.88
4091,C#4,709.0,1.0,42,210.88
4092,A4,709.167,317/1000,30,210.88
4093,C#5,709.167,317/1000,30,210.88
4094,A5,709.5,1.0,53,210.88
4095,A4,709.833,317/1000,28,210.88
4096,C#5,709.833,317/1000,28,210.88
4097,F#3,710.0,1.0,42,210.88
4098,C#4,710.0,1.0,42,210.88
4099,A4,710.167,317/1000,28,210.88
4100,C#5,710.167,317/1000,28,210.88
4101,A5,710.5,1.0,56,210.88
4102,C#5,710.833,317/1000,30,210.88
4103,F#5,710.833,317/1000,30,210.88
4104,E3,711.0,1.0,36,210.88
4105,D4,711.0,1.0,36,210.88
4106,C#5,711.167,317/1000,30,210.88
4107,F#5,711.167,317/1000,30,210.88
4108,C#6,711.5,1.0,55,210.88
4109,C#5,711.833,317/1000,30,210.88
4110,F#5,711.833,317/1000,30,210.88
4111,E3,712.0,2.0,36,210.88
4112,D4,712.0,2.0,36,210.88
4113,C#5,712.167,317/1000,30,210.88
4114,F#5,712.167,317/1000,30,210.88
4115,A5,712.5,1.0,55,210.88
4116,C#5,712.833,317/1000,30,210.88
4117,F#5,712.833,317/1000,30,210.88
4118,C#5,713.167,317/1000,30,210.88
4119,F#5,713.167,317/1000,30,210.88
4120,C#6,713.5,1.0,56,210.88
4121,C#5,713.833,317/1000,30,210.88
4122,F#5,713.833,317/1000,30,210.88
4123,F3,714.0,1.0,34,210.88
4124,C#4,714.0,1.0,34,210.88
4125,C#5,714.167,317/1000,30,210.88
4126,F#5,714.167,317/1000,30,210.88
4127,C#5,714.5,1.0,56,210.88
4128,F#4,714.833,317/1000,30,210.88
4129,A4,714.833,317/1000,30,210.88
4130,F#3,715.0,1.0,33,210.88
4131,C#4,715.0,1.0,33,210.88
4132,F#4,715.167,317/1000,30,210.88
4133,A4,715.167,317/1000,30,210.88
4134,F5,715.5,1.0,56,210.88
4135,C#5,715.833,317/1000,31,210.88
4136,F4,715.833,317/1000,31,210.88
4137,B4,715.833,317/1000,31,210.88
4138,F#3,716.0,2.5,32,210.88
4139,C#4,716.0,1.5,42,210.88
4140,C#5,716.167,317/1000,32,210.88
4141,F4,716.167,317/1000,32,210.88
4142,B4,716.167,317/1000,32,210.88
4143,F#5,716.5,1.0,58,210.88
4144,C#5,716.833,317/1000,32,210.88
4145,F#4,716.833,317/1000,32,210.88
4146,A4,716.833,317/1000,32,210.88
4147,C#5,717.167,317/1000,33,210.88
4148,F#4,717.167,317/1000,33,210.88
4149,A4,717.167,317/1000,33,210.88
4150,G#5,717.5,1.0,62,210.88
4151,B3,717.5,0.5,38,210.88
4152,E5,717.833,317/1000,34,210.88
4153,G#4,717.833,317/1000,34,210.88
4154,D5,717.833,317/1000,34,210.88
4155,A3,718.0,0.5,41,210.88
4156,E5,718.167,317/1000,34,210.88
4157,G#4,718.167,317/1000,34,210.88
4158,D5,718.167,317/1000,34,210.88
4159,A5,718.5,1.0,61,210.88
4160,A4,718.833,317/1000,32,210.88
4161,C#5,718.833,317/1000,32,210.88
4162,E5,718.833,317/1000,32,210.88
4163,F#3,719.0,1.0,35,210.88
4164,A3,719.0,1.0,35,210.88
4165,A4,719.167,317/1000,31,210.88
4166,C#5,719.167,317/1000,31,210.88
4167,E5,719.167,317/1000,31,210.88
4168,B5,719.5,1.0,60,210.88
4169,F5,719.833,317/1000,33,210.88
4170,B4,719.833,317/1000,33,210.88
4171,C#5,719.833,317/1000,33,210.88
4172,F#3,720.0,2.0,34,210.88
4173,A3,720.0,1.5,41,210.88
4174,F5,720.167,317/1000,32,210.88
4175,B4,720.167,317/1000,32,210.88
4176,C#5,720.167,317/1000,32,210.88
4177,A5,720.5,1.0,57,210.88
4178,F#5,720.833,317/1000,31,210.88
4179,A4,720.833,317/1000,31,210.88
4180,C#5,720.833,317/1000,31,210.88
4181,F#5,721.167,317/1000,30,210.88
4182,A4,721.167,317/1000,30,210.88
4183,C#5,721.167,317/1000,30,210.88
4184,G#5,721.5,1.0,56,210.88
4185,G#3,721.5,0.5,41,210.88
4186,E5,721.833,317/1000,30,210.88
4187,G#4,721.833,317/1000,30,210.88
4188,B4,721.833,317/1000,30,210.88
4189,F#3,722.0,0.5,44,210.88
4190,E5,722.167,317/1000,30,210.88
4191,G#4,722.167,317/1000,30,210.88
4192,B4,722.167,317/1000,30,210.88
4193,G#5,722.5,2.0,54,210.88
4194,G#4,722.833,317/1000,28,210.88
4195,B4,722.833,317/1000,28,210.88
4196,E5,722.833,317/1000,28,210.88
4197,F#3,723.0,1.0,34,210.88
4198,G#4,723.167,317/1000,28,210.88
4199,B4,723.167,317/1000,28,210.88
4200,E5,723.167,317/1000,28,210.88
4201,G#4,723.5,317/1000,28,210.88
4202,B4,723.5,317/1000,28,210.88
4203,E5,723.5,317/1000,28,210.88
4204,G#4,723.833,317/1000,28,210.88
4205,B4,723.833,317/1000,28,210.88
4206,E5,723.833,317/1000,28,210.88
4207,F#3,724.0,1.0,41,210.88
4208,G#4,724.167,317/1000,29,210.88
4209,B4,724.167,317/1000,29,210.88
4210,E5,724.167,317/1000,29,210.88
4211,G#5,724.5,1.0,55,210.88
4212,G#4,724.833,317/1000,26,210.88
4213,B4,724.833,317/1000,26,210.88
4214,C#5,724.833,317/1000,26,210.88
4215,G#3,725.0,1.0,42,210.88
4216,G#4,725.167,317/1000,27,210.88
4217,B4,725.167,317/1000,27,210.88
4218,C#5,725.167,317/1000,27,210.88
4219,A5,725.5,1.0,54,210.88
4220,A4,725.833,317/1000,27,210.88
4221,C#5,725.833,317/1000,27,210.88
4222,A3,726.0,1.0,47,210.88
4223,A4,726.167,317/1000,27,210.88
4224,C#5,726.167,317/1000,27,210.88
4225,F#5,726.5,1.0,53,210.88
4226,A4,726.833,317/1000,30,210.88
4227,C#5,726.833,317/1000,30,210.88
4228,E3,727.0,1.0,34,210.88
4229,B3,727.0,1.0,34,210.88
4230,A4,727.167,317/1000,30,210.88
4231,C#5,727.167,317/1000,30,210.88
4232,A5,727.5,1.0,53,210.88
4233,A4,727.833,317/1000,28,210.88
4234,C#5,727.833,317/1000,28,210.88
4235,A3,728.0,1.0,43,210.88
4236,C#4,728.0,1.0,43,210.88
4237,A4,728.167,317/1000,28,210.88
4238,C#5,728.167,317/1000,28,210.88
4239,F#5,728.5,1.0,53,210.88
4240,A4,728.833,317/1000,30,210.88
4241,C#5,728.833,317/1000,30,210.88
4242,G#3,729.0,1.0,42,210.88
4243,C#4,729.0,1.0,42,210.88
4244,A4,729.167,317/1000,30,210.88
4245,C#5,729.167,317/1000,30,210.88
4246,A5,729.5,1.0,53,210.88
4247,A4,729.833,317/1000,28,210.88
4248,C#5,729.833,317/1000,28,210.88
4249,F#3,730.0,1.0,42,210.88
4250,C#4,730.0,1.0,42,210.88
4251,A4,730.167,317/1000,28,210.88
4252,C#5,730.167,317/1000,28,210.88
4253,A5,730.5,1.0,56,210.88
4254,C#5,730.833,317/1000,30,210.88
4255,F#5,730.833,317/1000,30,210.88
4256,E3,731.0,1.0,36,210.88
4257,D4,731.0,1.0,36,210.88
4258,C#5,731.167,317/1000,30,210.88
4259,F#5,731.167,317/1000,30,210.88
4260,C#6,731.5,1.0,55,210.88
4261,C#5,731.833,317/1000,30,210.88
4262,F#5,731.833,317/1000,30,210.88
4263,E3,732.0,2.0,36,210.88
4264,D4,732.0,2.0,36,210.88
4265,C#5,732.167,317/1000,30,210.88
4266,F#5,732.167,317/1000,30,210.88
4267,A5,732.5,1.0,55,210.88
4268,C#5,732.833,317/1000,30,210.88
4269,F#5,732.833,317/1000,30,210.88
4270,C#5,733.167,317/1000,30,210.88
4271,F#5,733.167,317/1000,30,210.88
4272,C#6,733.5,1.0,56,210.88
4273,C#5,733.833,317/1000,30,210.88
4274,F#5,733.833,317/1000,30,210.88
4275,A3,734.0,333/1000,37,210.88
4276,C#4,734.0,333/1000,37,210.88
4277,C#5,734.167,317/1000,30,210.88
4278,F#5,734.167,317/1000,30,210.88
4279,E4,734.333,317/1000,29,210.88
4280,C#5,734.5,1.0,56,210.88
4281,E4,734.667,317/1000,29,210.88
4282,F#4,734.833,317/1000,30,210.88
4283,A4,734.833,317/1000,30,210.88
4284,E4,735.0,317/1000,33,210.88
4285,F#4,735.167,333/1000,30,210.88
4286,A4,735.167,333/1000,30,210.88
4287,E4,735.333,317/1000,29,210.88
4288,F5,735.5,1.0,56,210.88
4289,E4,735.667,317/1000,29,210.88
4290,C#5,735.833,317/1000,31,210.88
4291,F4,735.833,317/1000,31,210.88
4292,B4,735.833,317/1000,31,210.88
4293,B-3,736.0,0.25,33,210.88
4294,C#5,736.167,317/1000,32,210.88
4295,F4,736.167,317/1000,32,210.88
4296,B4,736.167,317/1000,32,210.88
4297,E4,736.25,0.25,27,210.88
4298,F#5,736.5,1.0,58,210.88
4299,C#4,736.5,0.25,27,210.88
4300,E4,736.75,0.25,27,210.88
4301,C#5,736.833,317/1000,32,210.88
4302,F#4,736.833,317/1000,32,210.88
4303,A4,736.833,317/1000,32,210.88
4304,B-3,737.0,0.25,33,210.88
4305,C#5,737.167,317/1000,33,210.88
4306,F#4,737.167,317/1000,33,210.88
4307,A4,737.167,317/1000,33,210.88
4308,E4,737.25,0.25,28,210.88
4309,G#5,737.5,1.0,62,210.88
4310,C#4,737.5,0.25,28,210.88
4311,E4,737.75,0.25,29,210.88
4312,E5,737.833,317/1000,34,210.88
4313,G#4,737.833,317/1000,34,210.88
4314,D5,737.833,317/1000,34,210.88
4315,B-3,738.0,0.25,33,210.88
4316,E5,738.167,317/1000,34,210.88
4317,G#4,738.167,317/1000,34,210.88
4318,D5,738.167,317/1000,34,210.88
4319,E4,738.25,0.25,29,210.88
4320,A5,738.5,1.0,61,210.88
4321,C#4,738.5,0.25,29,210.88
4322,E4,738.75,0.25,29,210.88
4323,A4,738.833,317/1000,32,210.88
4324,C#5,738.833,317/1000,32,210.88
4325,E5,738.833,317/1000,32,210.88
4326,A3,739.0,0.25,33,210.88
4327,A4,739.167,317/1000,31,210.88
4328,C#5,739.167,317/1000,31,210.88
4329,E5,739.167,317/1000,31,210.88
4330,E4,739.25,0.25,29,210.88
4331,B5,739.5,1.0,60,210.88
4332,C#4,739.5,0.25,29,210.88
4333,E4,739.75,0.25,29,210.88
4334,F5,739.833,317/1000,33,210.88
4335,B4,739.833,317/1000,33,210.88
4336,C#5,739.833,317/1000,33,210.88
4337,G3,740.0,0.25,33,210.88
4338,F5,740.167,317/1000,32,210.88
4339,B4,740.167,317/1000,32,210.88
4340,C#5,740.167,317/1000,32,210.88
4341,E4,740.25,0.25,27,210.88
4342,A5,740.5,1.0,57,210.88
4343,C#4,740.5,0.25,27,210.88
4344,E4,740.75,0.25,27,210.88
4345,F#5,740.833,317/1000,31,210.88
4346,A4,740.833,317/1000,31,210.88
4347,C#5,740.833,317/1000,31,210.88
4348,G3,741.0,0.25,33,210.88
4349,F#5,741.167,317/1000,30,210.88
4350,A4,741.167,317/1000,30,210.88
4351,C#5,741.167,317/1000,30,210.88
4352,E4,741.25,0.25,28,210.88
4353,G#5,741.5,1.0,56,210.88
4354,C#4,741.5,0.25,28,210.88
4355,E4,741.75,0.25,29,210.88
4356,E5,741.833,317/1000,30,210.88
4357,G#4,741.833,317/1000,30,210.88
4358,B4,741.833,317/1000,30,210.88
4359,G3,742.0,0.25,33,210.88
4360,E5,742.167,317/1000,30,210.88
4361,G#4,742.167,317/1000,30,210.88
4362,B4,742.167,317/1000,30,210.88
4363,E4,742.25,0.25,29,210.88
4364,G#5,742.5,2.0,54,210.88
4365,C#4,742.5,0.25,29,210.88
4366,E4,742.75,0.25,29,210.88
4367,G#4,742.833,317/1000,28,210.88
4368,B4,742.833,317/1000,28,210.88
4369,E5,742.833,317/1000,28,210.88
4370,F#3,743.0,0.25,33,210.88
4371,G#4,743.167,317/1000,28,210.88
4372,B4,743.167,317/1000,28,210.88
4373,E5,743.167,317/1000,28,210.88
4374,E4,743.25,0.25,29,210.88
4375,C#4,743.5,0.25,29,210.88
4376,G#4,743.5,317/1000,28,210.88
4377,B4,743.5,317/1000,28,210.88
4378,E5,743.5,317/1000,28,210.88
4379,E4,743.75,0.25,29,210.88
4380,G#4,743.833,317/1000,28,210.88
4381,B4,743.833,317/1000,28,210.88
4382,E5,743.833,317/1000,28,210.88
4383,F#3,744.0,0.25,33,210.88
4384,G#4,744.167,317/1000,29,210.88
4385,B4,744.167,317/1000,29,210.88
4386,E5,744.167,317/1000,29,210.88
4387,E4,744.25,0.25,28,210.88
4388,C#4,744.5,0.25,28,210.88
4389,A4,744.5,0.5,43,210.88
4390,C#5,744.5,0.5,43,210.88
4391,E5,744.5,0.5,43,210.88
4392,A5,744.5,0.5,43,210.88
4393,E4,744.75,0.25,28,210.88
4394,F#3,745.0,0.25,34,210.88
4395,D4,745.25,0.25,28,210.88
4396,E5,745.5,1.0,52,210.88
4397,B3,745.5,0.25,28,210.88
4398,D4,745.75,0.25,29,210.88
4399,F#3,746.0,0.25,35,210.88
4400,C#4,746.25,0.25,29,210.88
4401,E5,746.5,1.5,54,210.88
4402,B-3,746.5,0.25,29,210.88
4403,C#4,746.75,0.25,29,210.88
4404,F#3,747.0,0.25,36,210.88
4405,D4,747.25,0.25,31,210.88
4406,B3,747.5,0.25,31,210.88
4407,D4,747.75,0.25,31,210.88
4408,D5,748.0,0.5,51,210.88
4409,F#3,748.0,0.25,37,210.88
4410,E4,748.25,0.25,31,210.88
4411,C#5,748.5,0.5,51,210.88
4412,C#4,748.5,0.25,32,210.88
4413,E4,748.75,0.25,32,210.88
4414,G3,749.0,0.25,37,210.88
4415,E4,749.25,0.25,31,210.88
4416,C#5,749.5,1.0,52,210.88
4417,C#4,749.5,0.25,31,210.88
4418,E4,749.75,0.25,31,210.88
4419,G#3,750.0,0.25,38,210.88
4420,E4,750.25,0.25,32,210.88
4421,C#5,750.5,1.5,54,210.88
4422,C#4,750.5,0.25,32,210.88
4423,E4,750.75,0.25,33,210.88
4424,A3,751.0,0.25,39,210.88
4425,E4,751.25,0.25,32,210.88
4426,C#4,751.5,0.25,34,210.88
4427,E4,751.75,0.25,34,210.88
4428,B4,752.0,0.5,51,210.88
4429,A3,752.0,0.25,33,210.88
4430,E4,752.25,0.25,27,210.88
4431,B-4,752.5,0.5,51,210.88
4432,C#4,752.5,0.25,27,210.88
4433,E4,752.75,0.25,27,210.88
4434,B-3,753.0,0.25,33,210.88
4435,E4,753.25,0.25,28,210.88
4436,C#4,753.5,0.25,28,210.88
4437,F#4,753.5,1.0,52,210.88
4438,B-4,753.5,1.0,52,210.88
4439,E4,753.75,0.25,29,210.88
4440,B-3,754.0,0.25,33,210.88
4441,E4,754.25,0.25,29,210.88
4442,C#4,754.5,0.25,29,210.88
4443,F#4,754.5,1.0,48,210.88
4444,B-4,754.5,1.0,48,210.88
4445,E4,754.75,0.25,29,210.88
4446,A3,755.0,0.25,33,210.88
4447,E4,755.25,0.25,29,210.88
4448,C#4,755.5,0.25,29,210.88
4449,F#4,755.5,1.0,51,210.88
4450,B4,755.5,1.0,51,210.88
4451,E4,755.75,0.25,29,210.88
4452,G3,756.0,0.25,33,210.88
4453,E4,756.25,0.25,27,210.88
4454,C#4,756.5,0.25,27,210.88
4455,F#4,756.5,1.0,50,210.88
4456,B-4,756.5,1.0,50,210.88
4457,C#5,756.5,1.0,50,210.88
4458,E4,756.75,0.25,27,210.88
4459,G3,757.0,0.25,33,210.88
4460,E4,757.25,0.25,28,210.88
4461,C#4,757.5,0.25,28,210.88
4462,F#4,757.5,1.0,51,210.88
4463,B4,757.5,1.0,51,210.88
4464,D5,757.5,1.0,51,210.88
4465,E4,757.75,0.25,29,210.88
4466,G3,758.0,0.25,33,210.88
4467,E4,758.25,0.25,29,210.88
4468,C#4,758.5,0.25,29,210.88
4469,F#4,758.5,1.0,53,210.88
4470,C#5,758.5,1.0,53,210.88
4471,E5,758.5,1.0,53,210.88
4472,E4,758.75,0.25,31,210.88
4473,F#3,759.0,0.25,36,210.88
4474,E4,759.25,0.25,31,210.88
4475,C#4,759.5,0.25,31,210.88
4476,G4,759.5,1.0,54,210.88
4477,C#5,759.5,1.0,54,210.88
4478,E5,759.5,1.0,54,210.88
4479,E4,759.75,0.25,31,210.88
4480,F#3,760.0,0.25,36,210.88
4481,E4,760.25,0.25,30,210.88
4482,C#4,760.5,0.25,30,210.88
4483,G#4,760.5,1.0,55,210.88
4484,C#5,760.5,1.0,55,210.88
4485,E5,760.5,1.0,55,210.88
4486,E4,760.75,0.25,30,210.88
4487,F#3,761.0,0.25,37,210.88
4488,D4,761.25,0.25,30,210.88
4489,B3,761.5,0.25,30,210.88
4490,A4,761.5,1.0,56,210.88
4491,C#5,761.5,1.0,56,210.88
4492,E5,761.5,1.0,56,210.88
4493,D4,761.75,0.25,31,210.88
4494,F#3,762.0,0.25,38,210.88
4495,C#4,762.25,0.25,31,210.88
4496,E5,762.5,1.25,59,210.88
4497,B-3,762.5,0.25,31,210.88
4498,C#4,762.75,0.25,31,210.88
4499,F#3,763.0,0.25,39,210.88
4500,D4,763.25,0.25,34,210.88
4501,B3,763.5,0.25,34,210.88
4502,F5,763.75,0.25,51,210.88
4503,D4,763.75,0.25,34,210.88
4504,E5,764.0,0.25,53,210.88
4505,F#3,764.0,0.25,40,210.88
4506,D5,764.25,0.25,51,210.88
4507,E4,764.25,0.25,34,210.88
4508,C#5,764.5,0.5,56,210.88
4509,C#4,764.5,0.25,35,210.88
4510,E4,764.75,0.25,35,210.88
4511,G3,765.0,0.25,40,210.88
4512,E4,765.25,0.25,34,210.88
4513,C#5,765.5,1.0,57,210.88
4514,C#4,765.5,0.25,34,210.88
4515,E4,765.75,0.25,34,210.88
4516,G#3,766.0,0.25,41,210.88
4517,E4,766.25,0.25,35,210.88
4518,C#5,766.5,1.25,59,210.88
4519,C#4,766.5,0.25,35,210.88
4520,E4,766.75,0.25,36,210.88
4521,A3,767.0,0.25,42,210.88
4522,E4,767.25,0.25,35,210.88
4523,C#4,767.5,0.25,37,210.88
4524,D5,767.75,0.25,53,210.88
4525,E4,767.75,0.25,37,210.88
4526,C#5,768.0,0.25,53,210.88
4527,A3,768.0,0.25,36,210.88
4528,B4,768.25,0.25,53,210.88
4529,E4,768.25,0.25,29,210.88
4530,B-4,768.5,0.5,56,210.88
4531,C#4,768.5,0.25,29,210.88
4532,E4,768.75,0.25,29,210.88
4533,B-3,769.0,0.25,36,210.88
4534,E4,769.25,0.25,30,210.88
4535,C#4,769.5,0.25,30,210.88
4536,F#4,769.5,1.0,57,210.88
4537,B-4,769.5,1.0,57,210.88
4538,E4,769.75,0.25,31,210.88
4539,A3,770.0,0.25,36,210.88
4540,E4,770.25,0.25,31,210.88
4541,C#4,770.5,0.25,31,210.88
4542,F#4,770.5,0.75,52,210.88
4543,B-4,770.5,0.75,52,210.88
4544,E4,770.75,0.25,31,210.88
4545,G3,771.0,0.25,36,210.88
4546,E4,771.25,0.25,31,210.88
4547,F#4,771.25,0.25,52,210.88
4548,B-4,771.25,0.25,52,210.88
4549,C#4,771.5,0.25,31,210.88
4550,F#4,771.5,0.75,56,210.88
4551,B4,771.5,0.75,56,210.88
4552,E4,771.75,0.25,31,210.88
4553,F3,772.0,0.25,36,210.88
4554,D4,772.25,0.25,29,210.88
4555,F#4,772.25,0.25,56,210.88
4556,B4,772.25,0.25,56,210.88
4557,A3,772.5,0.25,29,210.88
4558,F#4,772.5,0.75,54,210.88
4559,B-4,772.5,0.75,54,210.88
4560,C#5,772.5,0.75,54,210.88
4561,D4,772.75,0.25,29,210.88
4562,E3,773.0,0.25,36,210.88
4563,D4,773.25,0.25,30,210.88
4564,F#4,773.25,0.25,54,210.88
4565,B-4,773.25,0.25,54,210.88
4566,C#5,773.25,0.25,54,210.88
4567,G3,773.5,0.25,30,210.88
4568,F#4,773.5,0.75,55,210.88
4569,B4,773.5,0.75,55,210.88
4570,D5,773.5,0.75,55,210.88
4571,D4,773.75,0.25,31,210.88
4572,D3,774.0,0.25,36,210.88
4573,D4,774.25,0.25,31,210.88
4574,F#4,774.25,0.25,55,210.88
4575,B4,774.25,0.25,55,210.88
4576,D5,774.25,0.25,55,210.88
4577,F3,774.5,0.25,31,210.88
4578,F#4,774.5,0.75,58,210.88
4579,C#5,774.5,0.75,58,210.88
4580,E5,774.5,0.75,58,210.88
4581,D4,774.75,0.25,31,210.88
4582,F3,775.0,0.25,36,210.88
4583,D4,775.25,0.25,31,210.88
4584,F#4,775.25,0.25,58,210.88
4585,C#5,775.25,0.25,58,210.88
4586,E5,775.25,0.25,58,210.88
4587,A3,775.5,0.25,31,210.88
4588,G4,775.5,0.75,59,210.88
4589,C#5,775.5,0.75,59,210.88
4590,E5,775.5,0.75,59,210.88
4591,D4,775.75,0.25,31,210.88
4592,A3,776.0,0.25,36,210.88
4593,E4,776.25,0.25,29,210.88
4594,G4,776.25,0.25,59,210.88
4595,C#5,776.25,0.25,59,210.88
4596,E5,776.25,0.25,59,210.88
4597,C#4,776.5,0.25,29,210.88
4598,G#4,776.5,0.75,60,210.88
4599,C#5,776.5,0.75,60,210.88
4600,E5,776.5,0.75,60,210.88
4601,E4,776.75,0.25,29,210.88
4602,B-3,777.0,0.25,36,210.88
4603,E4,777.25,0.25,30,210.88
4604,G#4,777.25,0.25,60,210.88
4605,C#5,777.25,0.25,60,210.88
4606,E5,777.25,0.25,60,210.88
4607,C#4,777.5,0.25,30,210.88
4608,A4,777.5,1.0,62,210.88
4609,C#5,777.5,1.0,62,210.88
4610,E5,777.5,1.0,62,210.88
4611,E4,777.75,0.25,31,210.88
4612,A3,778.0,0.25,36,210.88
4613,E4,778.25,0.25,31,210.88
4614,E5,778.5,1.75,59,210.88
4615,C#4,778.5,0.25,31,210.88
4616,E4,778.75,0.25,31,210.88
4617,G3,779.0,0.25,37,210.88
4618,E4,779.25,0.25,32,210.88
4619,C#4,779.5,0.25,32,210.88
4620,E4,779.75,0.25,32,210.88
4621,F3,780.0,0.25,37,210.88
4622,D5,780.25,0.25,56,210.88
4623,F4,780.25,0.25,31,210.88
4624,C#5,780.5,0.5,56,210.88
4625,D4,780.5,0.25,32,210.88
4626,F4,780.75,0.25,32,210.88
4627,F3,781.0,0.25,39,210.88
4628,F4,781.25,0.25,34,210.88
4629,C#5,781.5,1.0,57,210.88
4630,D4,781.5,0.25,34,210.88
4631,F4,781.75,0.25,35,210.88
4632,F3,782.0,0.25,42,210.88
4633,F4,782.25,0.25,37,210.88
4634,E5,782.375,0.125,49,210.88
4635,D5,782.5,0.25,60,210.88
4636,D4,782.5,0.25,37,210.88
4637,C#5,782.75,0.25,57,210.88
4638,F4,782.75,0.25,37,210.88
4639,D5,783.0,0.25,57,210.88
4640,F3,783.0,0.25,44,210.88
4641,E5,783.25,0.25,57,210.88
4642,G4,783.25,0.25,39,210.88
4643,G5,783.375,0.125,49,210.88
4644,F5,783.5,0.25,60,210.88
4645,E-4,783.5,0.25,40,210.88
4646,E5,783.75,0.25,57,210.88
4647,G4,783.75,0.25,40,210.88
4648,F5,784.0,0.25,57,210.88
4649,F3,784.0,0.25,48,210.88
4650,G5,784.25,0.25,57,210.88
4651,F4,784.25,0.25,38,210.88
4652,A5,784.5,0.5,59,210.88
4653,D4,784.5,0.25,38,210.88
4654,F4,784.75,0.25,38,210.88
4655,F3,785.0,0.25,47,210.88
4656,E-4,785.25,0.25,39,210.88
4657,A5,785.5,0.5,59,210.88
4658,C4,785.5,0.25,39,210.88
4659,E-4,785.75,0.25,39,210.88
4660,F5,786.0,0.5,57,210.88
4661,F3,786.0,0.25,42,210.88
4662,D4,786.25,0.25,36,210.88
4663,E5,786.5,1.75,59,210.88
4664,B-3,786.5,0.25,36,210.88
4665,D4,786.75,0.25,37,210.88
4666,F3,787.0,0.25,42,210.88
4667,C4,787.25,0.25,35,210.88
4668,G#3,787.5,0.25,35,210.88
4669,C4,787.75,0.25,35,210.88
4670,F3,788.0,0.25,35,210.88
4671,D5,788.25,0.25,56,210.88
4672,B3,788.25,0.25,29,210.88
4673,C#5,788.5,0.5,56,210.88
4674,G#3,788.5,0.25,29,210.88
4675,B3,788.75,0.25,29,210.88
4676,F3,789.0,0.25,34,210.88
4677,B3,789.25,0.25,29,210.88
4678,G#3,789.5,0.25,29,210.88
4679,C#6,789.5,1.0,63,210.88
4680,C#5,789.5,1.0,63,210.88
4681,B3,789.75,0.25,29,210.88
4682,F3,790.0,0.25,33,210.88
4683,B3,790.25,0.25,29,210.88
4684,G#3,790.5,0.25,29,210.88
4685,D5,790.5,0.5,63,210.88
4686,D6,790.5,0.5,63,210.88
4687,B3,790.75,0.25,29,210.88
4688,F3,791.0,0.25,33,210.88
4689,F5,791.0,0.5,64,210.88
4690,F6,791.0,0.5,64,210.88
4691,B3,791.25,0.25,29,210.88
4692,G#3,791.5,0.25,29,210.88
4693,G5,791.5,0.5,64,210.88
4694,G6,791.5,0.5,64,210.88
4695,B3,791.75,0.25,29,210.88
4696,F3,792.0,0.25,31,210.88
4697,A5,792.0,0.5,65,210.88
4698,A6,792.0,0.5,65,210.88
4699,B3,792.25,0.25,27,210.88
4700,G#3,792.5,0.25,27,210.88
4701,B-5,792.5,1.0,66,210.88
4702,B-6,792.5,1.0,66,210.88
4703,B3,792.75,0.25,27,210.88
4704,F3,793.0,0.25,32,210.88
4705,B3,793.25,0.25,27,210.88
4706,G#3,793.5,0.25,27,210.88
4707,G6,793.5,1.0,69,210.88
4708,G5,793.5,1.0,69,210.88
4709,B3,793.75,0.25,27,210.88
4710,E3,794.0,0.25,32,210.88
4711,B3,794.25,0.25,26,210.88
4712,G#3,794.5,0.25,26,210.88
4713,F6,794.5,1.0,70,210.88
4714,F5,794.5,1.0,70,210.88
4715,B3,794.75,0.25,26,210.88
4716,D3,795.0,0.25,31,210.88
4717,B3,795.25,0.25,26,210.88
4718,G#3,795.5,0.25,26,210.88
4719,E-6,795.5,1.0,69,210.88
4720,E-5,795.5,1.0,69,210.88
4721,B3,795.75,0.25,26,210.88
4722,C3,796.0,0.25,31,210.88
4723,C4,796.25,0.25,24,210.88
4724,A3,796.5,0.25,24,210.88
4725,D6,796.5,1.0,66,210.88
4726,D5,796.5,1.0,66,210.88
4727,C4,796.75,0.25,24,210.88
4728,C3,797.0,0.25,30,210.88
4729,D4,797.25,0.25,25,210.88
4730,B-3,797.5,0.25,25,210.88
4731,C6,797.5,1.0,65,210.88
4732,C5,797.5,1.0,65,210.88
4733,D4,797.75,0.25,26,210.88
4734,C3,798.0,0.25,29,210.88
4735,C4,798.25,0.25,26,210.88
4736,A3,798.5,0.25,26,210.88
4737,B4,798.5,4.0,61,210.88
4738,B5,798.5,4.0,61,210.88
4739,C4,798.75,0.25,26,210.88
4740,C3,799.0,0.25,30,210.88
4741,D4,799.25,0.25,26,210.88
4742,B-3,799.5,0.25,26,210.88
4743,D4,799.75,0.25,26,210.88
4744,C3,800.0,0.25,31,210.88
4745,C4,800.25,0.25,24,210.88
4746,A3,800.5,0.25,24,210.88
4747,C4,800.75,0.25,24,210.88
4748,C3,801.0,0.25,30,210.88
4749,D4,801.25,0.25,25,210.88
4750,B-3,801.5,0.25,25,210.88
4751,D4,801.75,0.25,26,210.88
4752,C3,802.0,0.25,29,210.88
4753,C4,802.25,0.25,26,210.88
4754,A3,802.5,0.25,26,210.88
4755,C4,802.75,0.25,26,210.88
4756,C3,803.0,0.25,30,210.88
4757,B4,803.0,0.5,61,210.88
4758,B5,803.0,0.5,61,210.88
4759,D4,803.25,0.25,26,210.88
4760,B4,803.5,19/40,51,210.88
4761,B-3,803.5,0.25,26,210.88
4762,D4,803.75,0.25,26,210.88
4763,B4,804.0,19/40,51,210.88
4764,C3,804.0,0.25,31,210.88
4765,C4,804.25,0.25,24,210.88
4766,B4,804.5,19/40,51,210.88
4767,A3,804.5,0.25,24,210.88
4768,C4,804.75,0.25,24,210.88
4769,B4,805.0,19/40,50,210.88
4770,C3,805.0,0.25,30,210.88
4771,D4,805.25,0.25,26,210.88
4772,B4,805.5,19/40,50,210.88
4773,B-3,805.5,0.25,26,210.88
4774,D4,805.75,0.25,27,210.88
4775,B4,806.0,19/40,50,210.88
4776,C3,806.0,0.25,30,210.88
4777,C4,806.25,0.25,27,210.88
4778,B4,806.5,19/40,50,210.88
4779,A3,806.5,0.25,28,210.88
4780,C4,806.75,0.25,28,210.88
4781,C5,807.0,1.75,53,210.88
4782,C3,807.0,0.25,33,210.88
4783,D4,807.25,0.25,28,210.88
4784,B-3,807.5,0.25,28,210.88
4785,D4,807.75,0.25,28,210.88
4786,C3,808.0,0.25,34,210.88
4787,C4,808.25,0.25,26,210.88
4788,A3,808.5,0.25,26,210.88
4789,D5,808.75,0.25,47,210.88
4790,C4,808.75,0.25,26,210.88
4791,C5,809.0,0.5,52,210.88
4792,C3,809.0,0.25,33,210.88
4793,D4,809.25,0.25,27,210.88
4794,B-3,809.5,0.25,27,210.88
4795,D4,809.75,0.25,28,210.88
4796,F5,810.0,0.125,49,210.88
4797,C3,810.0,0.25,31,210.88
4798,G5,810.125,0.125,43,210.88
4799,F5,810.25,0.125,44,210.88
4800,C4,810.25,0.25,28,210.88
4801,G5,810.375,0.125,44,210.88
4802,F5,810.5,0.125,44,210.88
4803,A3,810.5,0.25,28,210.88
4804,G5,810.625,0.125,46,210.88
4805,E5,810.75,0.125,51,210.88
4806,C4,810.75,0.25,28,210.88
4807,F5,810.875,0.125,44,210.88
4808,C3,811.0,0.25,36,210.88
4809,A5,811.0,1.75,52,210.88
4810,A4,811.0,1.75,52,210.88
4811,D4,811.25,0.25,30,210.88
4812,B-3,811.5,0.25,30,210.88
4813,D4,811.75,0.25,30,210.88
4814,C3,812.0,0.25,42,210.88
4815,C4,812.25,0.25,35,210.88
4816,A3,812.5,0.25,35,210.88
4817,C4,812.75,0.25,35,210.88
4818,G4,812.75,0.25,46,210.88
4819,G5,812.75,0.25,46,210.88
4820,C3,813.0,0.25,44,210.88
4821,F4,813.0,0.5,48,210.88
4822,F5,813.0,0.5,48,210.88
4823,D4,813.25,0.25,37,210.88
4824,B-3,813.5,0.25,38,210.88
4825,D4,813.75,0.25,37,210.88
4826,D5,814.0,1.0,54,210.88
4827,C3,814.0,0.25,47,210.88
4828,C4,814.25,0.25,37,210.88
4829,A3,814.5,0.25,38,210.88
4830,C4,814.75,0.25,38,210.88
4831,C5,815.0,1.75,58,210.88
4832,C3,815.0,0.25,49,210.88
4833,C4,815.25,0.25,40,210.88
4834,B-3,815.5,0.25,40,210.88
4835,C4,815.75,0.25,40,210.88
4836,C3,816.0,4.0,44,210.88
4837,C4,816.0,4.0,44,210.88
4838,B-3,816.0,4.0,44,210.88
4839,D5,816.75,0.25,53,210.88
4840,C5,817.0,0.5,60,210.88
4841,F6,818.0,0.125,53,210.88
4842,G6,818.125,0.125,47,210.88
4843,F6,818.25,0.125,48,210.88
4844,G6,818.375,0.125,48,210.88
4845,F6,818.5,0.125,48,210.88
4846,G6,818.625,0.125,50,210.88
4847,E6,818.75,0.125,55,210.88
4848,F6,818.875,0.125,48,210.88
4849,A6,819.0,1.75,66,210.88
4850,A5,819.0,1.75,66,210.88
4851,F3,820.0,1.0,34,210.88
4852,A3,820.0,1.0,34,210.88
4853,C4,820.0,1.0,34,210.88
4854,G5,820.75,0.25,62,210.88
4855,G6,820.75,0.25,62,210.88
4856,F5,821.0,0.5,67,210.88
4857,F6,821.0,0.5,67,210.88
4858,D5,822.0,1.0,58,210.88
4859,F5,822.0,1.0,58,210.88
4860,B-5,822.0,1.0,58,210.88
4861,D6,822.0,1.0,58,210.88
4862,F3,822.0,0.5,31,210.88
4863,A3,822.0,0.5,31,210.88
4864,C4,822.0,0.5,31,210.88
4865,C5,823.0,1.0,64,210.88
4866,F5,823.0,1.0,64,210.88
4867,A5,823.0,1.0,64,210.88
4868,C6,823.0,1.0,64,210.88
4869,F3,823.0,0.5,31,210.88
4870,C4,823.0,0.5,31,210.88
4871,E-4,823.0,0.5,31,210.88
4872,D5,824.0,1.0,66,210.88
4873,F5,824.0,1.0,66,210.88
4874,B-5,824.0,1.0,66,210.88
4875,D6,824.0,1.0,66,210.88
4876,F3,824.0,1.0,34,210.88
4877,B-3,824.0,1.0,34,210.88
4878,D4,824.0,1.0,34,210.88
4879,F5,825.0,1.0,68,210.88
4880,A5,825.0,1.0,68,210.88
4881,C6,825.0,1.0,68,210.88
4882,F6,825.0,1.0,68,210.88
4883,G5,826.0,1.0,72,210.88
4884,C6,826.0,1.0,72,210.88
4885,E6,826.0,1.0,72,210.88
4886,G6,826.0,1.0,72,210.88
4887,F3,826.0,0.5,31,210.88
4888,B-3,826.0,0.5,31,210.88
4889,D4,826.0,0.5,31,210.88
4890,G5,827.0,2.0,69,210.88
4891,C6,827.0,2.0,69,210.88
4892,E6,827.0,2.0,69,210.88
4893,G6,827.0,2.0,69,210.88
4894,F3,827.0,0.5,31,210.88
4895,D4,827.0,0.5,31,210.88
4896,F4,827.0,0.5,31,210.88
4897,F3,828.0,1.0,34,210.88
4898,A3,828.0,1.0,34,210.88
4899,C4,828.0,1.0,34,210.88
4900,E6,829.0,333/1000,63,210.88
4901,C6,829.333,333/1000,54,210.88
4902,G5,829.667,333/1000,54,210.88
4903,E5,830.0,333/1000,54,210.88
4904,F3,830.0,0.5,32,210.88
4905,A3,830.0,0.5,32,210.88
4906,G5,830.333,333/1000,52,210.88
4907,C6,830.667,333/1000,51,210.88
4908,F5,831.0,333/1000,53,210.88
4909,A3,831.0,0.5,32,210.88
4910,C4,831.0,0.5,32,210.88
4911,C6,831.333,333/1000,49,210.88
4912,A5,831.667,167/1000,49,210.88
4913,F5,832.0,167/1000,53,210.88
4914,C3,832.0,0.5,31,210.88
4915,A3,832.0,0.5,31,210.88
4916,C4,832.0,0.5,31,210.88
4917,C5,832.333,167/1000,48,210.88
4918,A4,832.667,167/1000,46,210.88
4919,F4,833.0,167/1000,51,210.88
4920,C3,833.0,0.5,30,210.88
4921,D4,833.0,0.5,30,210.88
4922,B-3,833.0,0.5,30,210.88
4923,A4,833.333,167/1000,46,210.88
4924,C5,833.667,167/1000,46,210.88
4925,A4,834.0,167/1000,53,210.88
4926,C3,834.0,0.5,30,210.88
4927,A3,834.0,0.5,30,210.88
4928,C4,834.0,0.5,30,210.88
4929,C5,834.333,167/1000,50,210.88
4930,F5,834.667,167/1000,50,210.88
4931,F5,835.0,333/1000,53,210.88
4932,C3,835.0,0.5,30,210.88
4933,G3,835.0,0.5,30,210.88
4934,B-3,835.0,0.5,30,210.88
4935,D6,835.333,333/1000,49,210.88
4936,B-5,835.667,167/1000,49,210.88
4937,F5,836.0,167/1000,53,210.88
4938,C3,836.0,0.5,31,210.88
4939,F#3,836.0,0.5,31,210.88
4940,A3,836.0,0.5,31,210.88
4941,D5,836.333,167/1000,48,210.88
4942,B-4,836.667,167/1000,46,210.88
4943,F4,837.0,167/1000,51,210.88
4944,C3,837.0,0.5,30,210.88
4945,A3,837.0,0.5,30,210.88
4946,F#3,837.0,0.5,30,210.88
4947,B-4,837.333,167/1000,46,210.88
4948,D5,837.667,167/1000,46,210.88
4949,B-4,838.0,167/1000,53,210.88
4950,C3,838.0,0.5,31,210.88
4951,F#3,838.0,0.5,31,210.88
4952,A3,838.0,0.5,31,210.88
4953,D5,838.333,167/1000,50,210.88
4954,F5,838.667,167/1000,50,210.88
4955,F5,839.0,333/1000,53,210.88
4956,C3,839.0,0.5,33,210.88
4957,F#3,839.0,0.5,33,210.88
4958,A3,839.0,0.5,33,210.88
4959,F6,839.333,333/1000,49,210.88
4960,C6,839.667,167/1000,49,210.88
4961,A5,840.0,167/1000,53,210.88
4962,B-2,840.0,0.5,35,210.88
4963,F3,840.0,0.5,35,210.88
4964,B-3,840.0,0.5,35,210.88
4965,F5,840.333,167/1000,48,210.88
4966,C5,840.667,167/1000,46,210.88
4967,A4,841.0,167/1000,51,210.88
4968,B-2,841.0,0.5,33,210.88
4969,B-3,841.0,0.5,33,210.88
4970,F3,841.0,0.5,33,210.88
4971,F4,841.333,167/1000,46,210.88
4972,C4,841.667,167/1000,46,210.88
4973,F4,842.0,167/1000,53,210.88
4974,C3,842.0,0.5,33,210.88
4975,F3,842.0,0.5,33,210.88
4976,A3,842.0,0.5,33,210.88
4977,A4,842.333,167/1000,50,210.88
4978,C5,842.667,167/1000,50,210.88
4979,C5,843.0,333/1000,51,210.88
4980,C3,843.0,0.5,33,210.88
4981,G3,843.0,0.5,33,210.88
4982,B-3,843.0,0.5,33,210.88
4983,F5,843.333,333/1000,47,210.88
4984,F5,843.667,167/1000,47,210.88
4985,D5,844.0,333/1000,51,210.88
4986,F3,844.0,333/1000,47,210.88
4987,G5,844.333,333/1000,48,210.88
4988,C4,844.333,333/1000,44,210.88
4989,G5,844.667,167/1000,48,210.88
4990,A3,844.667,167/1000,44,210.88
4991,C5,845.0,333/1000,51,210.88
4992,F3,845.0,167/1000,47,210.88
4993,F5,845.333,333/1000,47,210.88
4994,C3,845.333,167/1000,43,210.88
4995,F5,845.667,167/1000,47,210.88
4996,A2,845.667,167/1000,41,210.88
4997,C5,846.0,333/1000,51,210.88
4998,F2,846.0,167/1000,45,210.88
4999,E5,846.333,333/1000,47,210.88
5000,A2,846.333,167/1000,41,210.88
5001,E5,846.667,167/1000,47,210.88
5002,C3,846.667,167/1000,41,210.88
5003,C5,847.0,333/1000,51,210.88
5004,A2,847.0,167/1000,47,210.88
5005,E-5,847.333,333/1000,47,210.88
5006,C3,847.333,167/1000,45,210.88
5007,E-5,847.667,167/1000,47,210.88
5008,F3,847.667,167/1000,45,210.88
5009,C5,848.0,333/1000,52,210.88
5010,F3,848.0,333/1000,47,210.88
5011,D5,848.333,333/1000,50,210.88
5012,D4,848.333,333/1000,44,210.88
5013,D5,848.667,167/1000,50,210.88
5014,B-3,848.667,167/1000,44,210.88
5015,F3,849.0,167/1000,47,210.88
5016,F#4,849.0,333/1000,50,210.88
5017,A4,849.0,333/1000,50,210.88
5018,E-5,849.333,333/1000,50,210.88
5019,D3,849.333,167/1000,43,210.88
5020,E-5,849.667,167/1000,51,210.88
5021,B-2,849.667,167/1000,41,210.88
5022,F2,850.0,167/1000,45,210.88
5023,F#4,850.0,333/1000,52,210.88
5024,A4,850.0,333/1000,52,210.88
5025,D5,850.333,333/1000,52,210.88
5026,B-2,850.333,167/1000,41,210.88
5027,D5,850.667,167/1000,53,210.88
5028,D3,850.667,167/1000,41,210.88
5029,B-2,851.0,167/1000,47,210.88
5030,F4,851.0,333/1000,54,210.88
5031,B-4,851.0,333/1000,54,210.88
5032,E-5,851.333,333/1000,54,210.88
5033,D3,851.333,167/1000,45,210.88
5034,E-5,851.667,167/1000,54,210.88
5035,F3,851.667,167/1000,45,210.88
5036,F3,852.0,333/1000,47,210.88
5037,F4,852.0,333/1000,54,210.88
5038,B-4,852.0,333/1000,54,210.88
5039,D5,852.333,333/1000,54,210.88
5040,F4,852.333,333/1000,44,210.88
5041,D5,852.667,167/1000,54,210.88
5042,C4,852.667,167/1000,44,210.88
5043,A3,853.0,167/1000,47,210.88
5044,F4,853.0,333/1000,52,210.88
5045,A4,853.0,333/1000,52,210.88
5046,C5,853.333,333/1000,53,210.88
5047,F3,853.333,167/1000,43,210.88
5048,C5,853.667,167/1000,52,210.88
5049,C3,853.667,167/1000,41,210.88
5050,A2,854.0,167/1000,45,210.88
5051,E4,854.0,333/1000,52,210.88
5052,G4,854.0,333/1000,52,210.88
5053,C5,854.333,333/1000,52,210.88
5054,F2,854.333,167/1000,41,210.88
5055,C5,854.667,167/1000,52,210.88
5056,C2,854.667,167/1000,41,210.88
5057,F2,855.0,167/1000,47,210.88
5058,F4,855.0,1.0,44,210.88
5059,A4,855.0,1.0,44,210.88
5060,C5,855.0,1.0,44,210.88
5061,A2,855.333,167/1000,45,210.88
5062,C3,855.667,167/1000,45,210.88
5063,C3,856.0,0.5,31,210.88
5064,A3,856.0,0.5,31,210.88
5065,C4,856.0,0.5,31,210.88
5066,F5,857.0,0.5,43,210.88
5067,A4,857.0,0.5,43,210.88
5068,C5,857.0,0.5,43,210.88
5069,C4,857.0,0.5,30,210.88
5070,D5,857.0,0.5,30,210.88
5071,B-4,857.0,0.5,30,210.88
5072,C5,858.0,0.5,43,210.88
5073,E-5,858.0,0.5,43,210.88
5074,F5,858.0,0.5,43,210.88
5075,C4,858.0,0.5,30,210.88
5076,A4,858.0,0.5,30,210.88
5077,C5,858.0,0.5,30,210.88
5078,B-4,859.0,1.0,48,210.88
5079,D5,859.0,1.0,48,210.88
5080,F5,859.0,1.0,48,210.88
5081,C4,859.0,0.5,30,210.88
5082,G4,859.0,0.5,30,210.88
5083,B-4,859.0,0.5,30,210.88
5084,C4,860.0,0.5,31,210.88
5085,F#4,860.0,0.5,31,210.88
5086,A4,860.0,0.5,31,210.88
5087,B-4,861.0,0.5,43,210.88
5088,D5,861.0,0.5,43,210.88
5089,F5,861.0,0.5,43,210.88
5090,C4,861.0,0.5,30,210.88
5091,A4,861.0,0.5,30,210.88
5092,F#4,861.0,0.5,30,210.88
5093,D5,862.0,0.5,44,210.88
5094,F5,862.0,0.5,44,210.88
5095,C4,862.0,0.5,31,210.88
5096,F#4,862.0,0.5,31,210.88
5097,A4,862.0,0.5,31,210.88
5098,A4,863.0,1.0,48,210.88
5099,C5,863.0,1.0,48,210.88
5100,F5,863.0,1.0,48,210.88
5101,C4,863.0,0.5,33,210.88
5102,F#4,863.0,0.5,33,210.88
5103,A4,863.0,0.5,33,210.88
5104,B-3,864.0,0.5,35,210.88
5105,F4,864.0,0.5,35,210.88
5106,B-4,864.0,0.5,35,210.88
5107,C5,865.0,0.5,47,210.88
5108,F5,865.0,0.5,47,210.88
5109,A5,865.0,0.5,47,210.88
5110,B-3,865.0,0.5,33,210.88
5111,B-4,865.0,0.5,33,210.88
5112,F4,865.0,0.5,33,210.88
5113,C5,866.0,0.5,47,210.88
5114,A5,866.0,0.5,47,210.88
5115,C6,866.0,0.5,47,210.88
5116,C4,866.0,0.5,33,210.88
5117,F4,866.0,0.5,33,210.88
5118,A4,866.0,0.5,33,210.88
5119,C6,867.0,333/1000,56,210.88
5120,C4,867.0,0.5,33,210.88
5121,G4,867.0,0.5,33,210.88
5122,B-4,867.0,0.5,33,210.88
5123,F6,867.333,333/1000,51,210.88
5124,F6,867.667,167/1000,51,210.88
5125,D6,868.0,333/1000,56,210.88
5126,B-2,868.0,0.5,28,210.88
5127,E-3,868.0,0.5,28,210.88
5128,G3,868.0,0.5,28,210.88
5129,G6,868.333,333/1000,52,210.88
5130,G6,868.667,167/1000,52,210.88
5131,C6,869.0,333/1000,56,210.88
5132,B-2,869.0,0.5,27,210.88
5133,G3,869.0,0.5,27,210.88
5134,E-3,869.0,0.5,27,210.88
5135,F6,869.333,333/1000,51,210.88
5136,F6,869.667,167/1000,51,210.88
5137,C6,870.0,333/1000,56,210.88
5138,B-2,870.0,0.5,28,210.88
5139,E-3,870.0,0.5,28,210.88
5140,G3,870.0,0.5,28,210.88
5141,E6,870.333,333/1000,51,210.88
5142,E6,870.667,167/1000,51,210.88
5143,C6,871.0,333/1000,56,210.88
5144,B-2,871.0,0.5,29,210.88
5145,E-3,871.0,0.5,29,210.88
5146,G3,871.0,0.5,29,210.88
5147,E-6,871.333,333/1000,51,210.88
5148,E-6,871.667,167/1000,51,210.88
5149,C6,872.0,333/1000,57,210.88
5150,G#2,872.0,0.5,31,210.88
5151,E-3,872.0,0.5,31,210.88
5152,G#3,872.0,0.5,31,210.88
5153,D6,872.333,333/1000,55,210.88
5154,D6,872.667,167/1000,55,210.88
5155,F#5,873.0,333/1000,58,210.88
5156,A5,873.0,333/1000,58,210.88
5157,G#2,873.0,0.5,29,210.88
5158,G#3,873.0,0.5,29,210.88
5159,E-3,873.0,0.5,29,210.88
5160,E-6,873.333,333/1000,53,210.88
5161,E-6,873.667,167/1000,53,210.88
5162,F#5,874.0,333/1000,52,210.88
5163,A5,874.0,333/1000,52,210.88
5164,B-2,874.0,0.5,29,210.88
5165,E-3,874.0,0.5,29,210.88
5166,G3,874.0,0.5,29,210.88
5167,D6,874.333,333/1000,54,210.88
5168,D6,874.667,167/1000,54,210.88
5169,F5,875.0,333/1000,52,210.88
5170,B-5,875.0,333/1000,52,210.88
5171,B-2,875.0,0.5,29,210.88
5172,F3,875.0,0.5,29,210.88
5173,G#3,875.0,0.5,29,210.88
5174,E-6,875.333,333/1000,52,210.88
5175,E-6,875.667,167/1000,52,210.88
5176,F5,876.0,333/1000,52,210.88
5177,B-5,876.0,333/1000,52,210.88
5178,D6,876.333,333/1000,53,210.88
5179,D6,876.667,167/1000,52,210.88
5180,F5,877.0,333/1000,52,210.88
5181,A5,877.0,333/1000,52,210.88
5182,C6,877.333,333/1000,53,210.88
5183,C6,877.667,167/1000,49,210.88
5184,F#4,878.0,0.5,31,210.88
5185,E5,878.0,333/1000,50,210.88
5186,G5,878.0,333/1000,50,210.88
5187,C6,878.333,333/1000,48,210.88
5188,C6,878.667,167/1000,48,210.88
5189,B-4,879.0,333/1000,45,210.88
5190,E-4,879.0,0.5,33,210.88
5191,C#5,879.333,333/1000,42,210.88
5192,C#5,879.667,167/1000,42,210.88
5193,B-4,880.0,333/1000,46,210.88
5194,G#4,880.0,0.5,33,210.88
5195,C5,880.333,333/1000,45,210.88
5196,C5,880.667,167/1000,45,210.88
5197,G#4,881.0,0.5,31,210.88
5198,E4,881.0,333/1000,44,210.88
5199,G4,881.0,333/1000,44,210.88
5200,C#5,881.333,333/1000,45,210.88
5201,C#5,881.667,167/1000,45,210.88
5202,E4,882.0,333/1000,46,210.88
5203,G4,882.0,333/1000,46,210.88
5204,C5,882.333,333/1000,46,210.88
5205,C5,882.667,167/1000,47,210.88
5206,G#2,883.0,0.5,29,210.88
5207,E-4,883.0,333/1000,48,210.88
5208,G#4,883.0,333/1000,48,210.88
5209,C#5,883.333,333/1000,48,210.88
5210,C#5,883.667,167/1000,48,210.88
5211,G#2,884.0,0.5,29,210.88
5212,E-4,884.0,333/1000,48,210.88
5213,G#4,884.0,333/1000,48,210.88
5214,C5,884.333,333/1000,48,210.88
5215,C5,884.667,167/1000,48,210.88
5216,E-4,885.0,333/1000,47,210.88
5217,G4,885.0,333/1000,47,210.88
5218,B-4,885.333,333/1000,47,210.88
5219,B-4,885.667,167/1000,46,210.88
5220,A2,886.0,0.5,26,210.88
5221,D4,886.0,333/1000,47,210.88
5222,F4,886.0,333/1000,47,210.88
5223,B-4,886.333,333/1000,46,210.88
5224,B-4,886.667,167/1000,46,210.88
5225,A2,887.0,0.5,26,210.88
5226,A3,889.0,0.5,26,210.88
5227,C#5,889.0,333/1000,44,210.88
5228,F#5,889.0,333/1000,44,210.88
5229,B-5,889.333,333/1000,45,210.88
5230,B-5,889.667,167/1000,45,210.88
5231,B-3,890.0,0.5,27,210.88
5232,C#5,890.0,333/1000,45,210.88
5233,F#5,890.0,333/1000,45,210.88
5234,A5,890.333,333/1000,44,210.88
5235,A5,890.667,167/1000,44,210.88
5236,B-2,891.0,0.5,30,210.88
5237,C#5,891.0,333/1000,46,210.88
5238,F5,891.0,333/1000,46,210.88
5239,G#5,891.333,333/1000,46,210.88
5240,G#5,891.667,167/1000,46,210.88
5241,C3,892.0,0.5,33,210.88
5242,C5,892.0,333/1000,44,210.88
5243,E-5,892.0,333/1000,44,210.88
5244,G#5,892.333,333/1000,44,210.88
5245,G#5,892.667,167/1000,44,210.88
5246,C3,893.0,0.5,35,210.88
5247,C#4,894.0,333/1000,40,210.88
5248,E4,894.0,333/1000,40,210.88
5249,B-3,894.0,0.5,37,210.88
5250,G3,894.0,0.5,37,210.88
5251,C3,894.0,0.5,37,210.88
5252,G#4,894.333,333/1000,39,210.88
5253,G#4,894.667,167/1000,39,210.88
5254,C4,895.0,333/1000,42,210.88
5255,E-4,895.0,333/1000,42,210.88
5256,C3,895.0,0.5,38,210.88
5257,G3,895.0,0.5,38,210.88
5258,B-3,895.0,0.5,38,210.88
5259,G#4,895.333,333/1000,41,210.88
5260,G#4,895.667,167/1000,41,210.88
5261,F2,896.0,0.25,39,210.88
5262,F3,896.0,0.25,39,210.88
5263,C4,897.0,333/1000,36,210.88
5264,E-4,897.0,333/1000,36,210.88
5265,F#4,897.333,333/1000,35,210.88
5266,F#4,897.667,167/1000,35,210.88
5267,A3,898.0,1.5,36,210.88
5268,C4,898.0,2.0,44,210.88
5269,C4,898.0,333/1000,37,210.88
5270,E-4,898.0,333/1000,37,210.88
5271,F4,898.333,333/1000,36,210.88
5272,F4,898.667,167/1000,36,210.88
5273,G3,899.5,0.5,33,210.88
5274,B-3,899.5,0.5,33,210.88
5275,C5,900.0,333/1000,40,210.88
5276,E-5,900.0,333/1000,40,210.88
5277,F3,900.0,1.0,40,210.88
5278,A3,900.0,1.0,40,210.88
5279,F5,900.333,333/1000,36,210.88
5280,F5,900.667,167/1000,36,210.88
5281,B-4,901.0,333/1000,45,210.88
5282,E-5,901.0,333/1000,45,210.88
5283,E-3,901.0,1.0,42,210.88
5284,A3,901.0,1.0,42,210.88
5285,G5,901.333,333/1000,37,210.88
5286,G5,901.667,167/1000,37,210.88
5287,B-4,902.0,333/1000,45,210.88
5288,D5,902.0,333/1000,45,210.88
5289,D3,902.0,1.0,44,210.88
5290,A3,902.0,1.0,44,210.88
5291,F5,902.333,333/1000,39,210.88
5292,F5,902.667,167/1000,39,210.88
5293,B-3,903.0,333/1000,43,210.88
5294,D4,903.0,333/1000,43,210.88
5295,G2,903.0,1.0,39,210.88
5296,D3,903.0,1.0,39,210.88
5297,G3,903.0,1.0,39,210.88
5298,F4,903.333,333/1000,40,210.88
5299,F4,903.667,167/1000,40,210.88
5300,A3,904.0,333/1000,47,210.88
5301,C4,904.0,333/1000,47,210.88
5302,C3,904.0,2.0,45,210.88
5303,B-3,904.0,2.0,45,210.88
5304,F4,904.333,333/1000,46,210.88
5305,F4,904.667,167/1000,46,210.88
5306,C4,905.0,333/1000,54,210.88
5307,F4,905.0,333/1000,54,210.88
5308,C5,905.333,333/1000,50,210.88
5309,C5,905.667,167/1000,50,210.88
5310,C4,906.0,333/1000,55,210.88
5311,E4,906.0,333/1000,55,210.88
5312,F3,906.0,0.25,35,210.88
5313,A3,906.0,0.25,35,210.88
5314,C5,906.333,333/1000,53,210.88
5315,C5,906.667,167/1000,53,210.88
5316,A3,907.0,0.25,58,210.88
5317,C4,907.0,0.25,58,210.88
5318,F4,907.0,0.25,58,210.88
5319,F3,907.0,0.25,31,210.88
5320,A3,907.0,0.25,31,210.88
5321,C4,907.333,333/1000,47,210.88
5322,A3,907.667,333/1000,47,210.88
5323,C4,908.0,333/1000,47,210.88
5324,F4,908.333,333/1000,51,210.88
5325,A4,908.667,333/1000,55,210.88
5326,C5,909.0,1.5,68,210.88
5327,D4,910.0,0.5,48,210.88
5328,A2,910.0,1.5,35,210.88
5329,C3,910.0,247/500,42,210.88
5330,E4,910.5,0.5,50,210.88
5331,B-4,910.5,0.5,50,210.88
5332,C4,911.0,1.0,50,210.88
5333,F4,911.0,1.0,50,210.88
5334,A4,911.0,1.0,50,210.88
5335,G2,911.5,0.5,33,210.88
5336,B-2,911.5,0.5,33,210.88
5337,C#4,912.0,1.0,55,210.88
5338,G4,912.0,1.0,55,210.88
5339,A4,912.0,1.0,55,210.88
5340,F2,912.0,1.0,40,210.88
5341,A2,912.0,1.0,40,210.88
5342,D4,913.0,1.0,56,210.88
5343,C4,913.0,1.0,56,210.88
5344,F#4,913.0,1.0,56,210.88
5345,A4,913.0,1.0,56,210.88
5346,E-2,913.0,1.0,42,210.88
5347,A2,913.0,1.0,42,210.88
5348,B-4,914.0,0.75,65,210.88
5349,B-3,914.0,1.0,55,210.88
5350,D4,914.0,1.0,55,210.88
5351,G4,914.0,1.0,55,210.88
5352,D2,914.0,1.0,44,210.88
5353,A2,914.0,1.0,44,210.88
5354,A4,914.75,0.25,55,210.88
5355,C4,915.0,2.25,44,210.88
5356,E4,915.0,2.0,44,210.88
5357,G4,915.0,1.5,52,210.88
5358,G1,915.0,0.5,43,210.88
5359,D2,915.0,0.5,43,210.88
5360,G2,915.0,0.5,43,210.88
5361,G#4,916.5,0.5,47,210.88
5362,F4,917.0,0.25,47,210.88
5363,A4,917.0,0.25,47,210.88
5364,F3,917.0,1.0,49,210.88
5365,B-3,917.0,1.0,49,210.88
5366,C4,918.0,0.25,41,210.88
5367,F4,918.0,0.25,41,210.88
5368,A4,918.0,0.25,41,210.88
5369,E-3,918.0,1.0,54,210.88
5370,B-3,918.0,1.0,54,210.88
5371,G#2,919.0,0.5,53,210.88
5372,E-3,919.0,0.5,53,210.88
5373,G#3,919.0,0.5,53,210.88
5374,C3,919.333,333/1000,47,210.88
5375,A2,919.667,333/1000,47,210.88
5376,C3,920.0,333/1000,47,210.88
5377,F3,920.333,333/1000,51,210.88
5378,A3,920.667,333/1000,55,210.88
5379,C4,921.0,1.5,65,210.88
5380,E2,921.0,1.0,75,210.88
5381,B2,921.0,1.0,75,210.88
5382,E3,921.0,1.0,75,210.88
5383,C3,921.5,1.0,46,210.88
5384,D3,922.0,0.5,48,210.88
5385,A1,922.0,0.5,75,210.88
5386,E2,922.0,0.5,75,210.88
5387,A2,922.0,0.5,75,210.88
5388,C3,922.5,0.5,48,210.88
5389,E3,922.5,0.5,48,210.88
5390,B-3,922.5,0.5,48,210.88
5391,C3,923.0,1.0,50,210.88
5392,F3,923.0,1.0,50,210.88
5393,A3,923.0,1.0,50,210.88
5394,C#3,924.0,1.0,55,210.88
5395,G3,924.0,1.0,55,210.88
5396,A3,924.0,1.0,55,210.88
5397,F4,924.0,2.0,54,210.88
5398,E-5,924.0,2.0,54,210.88
5399,D3,925.0,1.0,56,210.88
5400,C3,925.0,1.0,56,210.88
5401,F#3,925.0,1.0,56,210.88
5402,A3,925.0,1.0,56,210.88
5403,B-3,926.0,0.5,63,210.88
5404,B-2,926.0,0.5,63,210.88
5405,D3,926.0,0.5,63,210.88
5406,G3,926.0,0.5,63,210.88
5407,B-4,926.0,0.25,42,210.88
5408,D5,926.0,0.25,42,210.88
5409,B-4,927.0,0.25,36,210.88
5410,D5,927.0,0.25,36,210.88
5411,D4,928.0,1.0,66,210.88
5412,G#4,928.0,1.0,66,210.88
5413,B-4,928.0,1.0,66,210.88
5414,B-4,928.0,3.0,42,210.88
5415,D5,928.0,3.0,42,210.88
5416,E-4,929.0,1.0,67,210.88
5417,C#4,929.0,1.0,67,210.88
5418,G4,929.0,1.0,67,210.88
5419,B-4,929.0,1.0,67,210.88
5420,B4,930.0,0.5,75,210.88
5421,B3,930.0,0.5,75,210.88
5422,E-4,930.0,0.5,75,210.88
5423,G#4,930.0,0.5,75,210.88
5424,D5,932.0,1.0,90,210.88
5425,E5,932.0,1.0,90,210.88
5426,B5,932.0,1.0,90,210.88
5427,G#5,932.0,1.0,90,210.88
5428,C5,933.0,0.5,96,210.88
5429,E5,933.0,0.5,96,210.88
5430,A5,933.0,0.5,96,210.88
5431,C6,933.0,0.5,96,210.88
5432,F5,935.0,2.25,52,210.88
5433,A5,935.0,2.0,52,210.88
5434,C6,935.0,1.5,62,210.88
5435,C3,936.0,2.0,36,210.88
5436,B-3,936.0,2.0,36,210.88
5437,C#6,936.5,0.5,56,210.88
5438,B-5,937.0,0.25,56,210.88
5439,D6,937.0,0.25,56,210.88
5440,F5,938.0,0.25,49,210.88
5441,B-5,938.0,0.25,49,210.88
5442,D6,938.0,0.25,49,210.88
5443,F3,938.0,0.25,33,210.88
5444,A3,938.0,0.25,33,210.88
5445,F5,939.0,3.0,58,210.88
5446,D6,939.0,3.0,58,210.88
5447,F6,939.0,3.0,58,210.88
5448,F3,939.0,0.25,28,210.88
5449,A3,939.0,0.25,28,210.88
5450,F3,940.0,3.0,33,210.88
5451,C4,940.0,3.0,33,210.88
5452,F5,943.0,2.5,54,210.88
5453,F4,944.0,2.0,54,210.88
5454,E-5,944.0,2.0,54,210.88
5455,D5,945.5,0.5,45,210.88
5456,B-4,946.0,0.5,50,210.88
5457,B-4,946.0,0.25,42,210.88
5458,D5,946.0,0.25,42,210.88
5459,A4,946.5,0.5,45,210.88
5460,C4,947.0,2.25,34,210.88
5461,E4,947.0,2.0,34,210.88
5462,A4,947.0,1.0,49,210.88
5463,B-4,947.0,0.25,44,210.88
5464,D5,947.0,0.25,44,210.88
5465,G4,948.0,0.75,44,210.88
5466,G#4,948.75,0.25,44,210.88
5467,F4,949.0,0.25,44,210.88
5468,A4,949.0,0.25,44,210.88
5469,C4,950.0,0.25,37,210.88
5470,F4,950.0,0.25,37,210.88
5471,A4,950.0,0.25,37,210.88
5472,A4,951.0,3.0,48,210.88
5473,C5,951.0,3.0,48,210.88
5474,F5,955.0,2.25,52,210.88
5475,A5,955.0,2.0,52,210.88
5476,C6,955.0,1.5,62,210.88
5477,C#6,956.5,0.5,56,210.88
5478,B-5,957.0,0.25,56,210.88
5479,D6,957.0,0.25,56,210.88
5480,F5,958.0,0.25,59,210.88
5481,B-5,958.0,0.25,59,210.88
5482,D6,958.0,0.25,59,210.88
5483,B-4,959.0,0.125,79,210.88
5484,D5,959.125,0.125,77,210.88
5485,F5,959.25,0.125,76,210.88
5486,B-5,959.375,0.125,74,210.88
5487,D6,959.5,0.125,71,210.88
5488,F6,959.625,0.125,65,210.88
5489,B-6,959.75,0.125,61,210.88
5490,D7,959.875,0.125,61,210.88
5491,F7,960.0,0.125,57,210.88
5492,C3,960.0,2.0,32,210.88
5493,B-3,960.0,2.0,32,210.88
5494,F3,962.0,0.25,30,210.88
5495,A3,962.0,0.25,30,210.88
5496,F5,963.0,3.5,62,210.88
5497,F3,963.0,0.25,24,210.88
5498,A3,963.0,0.25,24,210.88
5499,F3,964.0,3.0,30,210.88
5500,C4,964.0,3.0,30,210.88
5501,E5,966.5,0.5,50,210.88
5502,E5,967.0,1.0,53,210.88
5503,D5,968.0,0.75,51,210.88
5504,E3,968.0,0.25,25,210.88
5505,G#3,968.0,0.25,25,210.88
5506,C#4,968.0,0.25,25,210.88
5507,C5,968.75,0.25,47,210.88
5508,C5,969.0,1.0,51,210.88
5509,E3,969.0,0.25,20,210.88
5510,G#3,969.0,0.25,20,210.88
5511,C#4,969.0,0.25,20,210.88
5512,B-4,970.0,0.75,48,210.88
5513,C#3,970.0,1.0,25,210.88
5514,G#3,970.0,1.0,25,210.88
5515,C#4,970.0,1.0,25,210.88
5516,A4,970.75,0.25,41,210.88
5517,C4,971.0,2.25,30,210.88
5518,E4,971.0,2.0,30,210.88
5519,A4,971.0,1.0,44,210.88
5520,C#3,971.0,0.5,34,210.88
5521,G#3,971.5,0.5,29,210.88
5522,G4,972.0,0.75,39,210.88
5523,C#3,972.0,0.5,33,210.88
5524,G#3,972.5,0.5,28,210.88
5525,G#4,972.75,0.25,39,210.88
5526,C3,973.0,0.5,33,210.88
5527,F4,973.0,0.25,40,210.88
5528,A4,973.0,0.25,40,210.88
5529,G#3,973.5,0.5,28,210.88
5530,C#3,974.0,0.5,33,210.88
5531,C4,974.0,0.25,33,210.88
5532,F4,974.0,0.25,33,210.88
5533,A4,974.0,0.25,33,210.88
5534,G#3,974.5,0.5,28,210.88
5535,E-3,975.0,0.5,34,210.88
5536,A4,975.0,3.0,43,210.88
5537,C5,975.0,3.0,43,210.88
5538,G#3,975.5,0.5,28,210.88
5539,E3,976.0,0.5,33,210.88
5540,G#3,976.5,0.5,27,210.88
5541,C#4,977.0,0.5,30,210.88
5542,G#3,977.5,0.5,27,210.88
5543,E3,978.0,0.5,33,210.88
5544,G#3,978.5,0.5,28,210.88
5545,E-3,979.0,0.5,34,210.88
5546,E4,979.0,0.25,34,210.88
5547,G#4,979.0,0.25,34,210.88
5548,C#5,979.0,0.25,34,210.88
5549,G#3,979.5,0.5,29,210.88
5550,E3,980.0,0.5,33,210.88
5551,E4,980.0,0.25,29,210.88
5552,G#4,980.0,0.25,29,210.88
5553,C#5,980.0,0.25,29,210.88
5554,G#3,980.5,0.5,28,210.88
5555,C#4,981.0,0.5,31,210.88
5556,E4,981.0,1.0,38,210.88
5557,G#4,981.0,1.0,38,210.88
5558,E5,981.0,1.0,38,210.88
5559,G#3,981.5,0.5,28,210.88
5560,E4,982.0,1.0,50,210.88
5561,F3,982.0,0.5,31,210.88
5562,G#3,982.5,0.5,25,210.88
5563,E4,983.0,1.0,54,210.88
5564,F3,983.0,0.5,34,210.88
5565,C#4,983.5,0.5,28,210.88
5566,E-4,984.0,1.0,52,210.88
5567,F#3,984.0,0.5,37,210.88
5568,C#4,984.5,0.5,27,210.88
5569,E4,985.0,1.0,54,210.88
5570,F#3,985.0,0.5,31,210.88
5571,D4,985.5,0.5,27,210.88
5572,F#4,986.0,1.0,51,210.88
5573,F#3,986.0,0.5,31,210.88
5574,C#4,986.5,0.5,25,210.88
5575,G#4,987.0,3.0,54,210.88
5576,F#3,987.0,0.5,34,210.88
5577,C4,987.5,0.5,29,210.88
5578,F#3,988.0,0.5,33,210.88
5579,C#4,988.5,0.5,28,210.88
5580,F3,989.0,0.5,33,210.88
5581,C#4,989.5,0.5,28,210.88
5582,G#4,990.0,1.0,52,210.88
5583,F#3,990.0,0.5,33,210.88
5584,C#4,990.5,0.5,28,210.88
5585,G#4,991.0,0.5,55,210.88
5586,G#3,991.0,0.5,34,210.88
5587,F#4,991.5,0.5,52,210.88
5588,C#4,991.5,0.5,28,210.88
5589,G#4,992.0,0.5,55,210.88
5590,A3,992.0,0.5,33,210.88
5591,A4,992.5,0.5,51,210.88
5592,C#4,992.5,0.5,27,210.88
5593,B4,993.0,0.5,55,210.88
5594,F#4,993.0,0.5,31,210.88
5595,D5,993.5,0.5,57,210.88
5596,C#4,993.5,0.5,27,210.88
5597,C#5,994.0,0.5,55,210.88
5598,A3,994.0,0.5,33,210.88
5599,G#4,994.5,0.5,53,210.88
5600,C#4,994.5,0.5,28,210.88
5601,A4,995.0,3.0,54,210.88
5602,G#3,995.0,0.5,34,210.88
5603,C#4,995.5,0.5,29,210.88
5604,A3,996.0,0.5,33,210.88
5605,C#4,996.5,0.5,28,210.88
5606,F#4,997.0,0.5,33,210.88
5607,C#4,997.5,0.5,28,210.88
5608,B-3,998.0,0.5,35,210.88
5609,A4,998.0,1.0,46,210.88
5610,A5,998.0,1.0,46,210.88
5611,C#4,998.5,0.5,29,210.88
5612,B-3,999.0,0.5,35,210.88
5613,A4,999.0,1.0,50,210.88
5614,A5,999.0,1.0,50,210.88
5615,F#4,999.5,0.5,28,210.88
5616,B3,1000.0,0.5,37,210.88
5617,G#4,1000.0,1.0,48,210.88
5618,G#5,1000.0,1.0,48,210.88
5619,F#4,1000.5,0.5,40,210.88
5620,B3,1001.0,0.5,33,210.88
5621,A4,1001.0,1.0,50,210.88
5622,A5,1001.0,1.0,50,210.88
5623,G4,1001.5,0.5,39,210.88
5624,B3,1002.0,0.5,33,210.88
5625,B4,1002.0,1.0,47,210.88
5626,B5,1002.0,1.0,47,210.88
5627,F#4,1002.5,0.5,36,210.88
5628,B3,1003.0,0.5,33,210.88
5629,C#5,1003.0,3.0,50,210.88
5630,C#6,1003.0,3.0,50,210.88
5631,F4,1003.5,0.5,29,210.88
5632,A3,1004.0,0.5,35,210.88
5633,F#4,1004.5,0.5,31,210.88
5634,G#3,1005.0,0.5,33,210.88
5635,F4,1005.5,0.5,30,210.88
5636,F#3,1006.0,0.5,33,210.88
5637,C#5,1006.0,1.0,48,210.88
5638,C#6,1006.0,1.0,48,210.88
5639,F#4,1006.5,0.5,30,210.88
5640,E-3,1007.0,0.5,33,210.88
5641,C#5,1007.0,0.5,50,210.88
5642,C#6,1007.0,0.5,50,210.88
5643,C4,1007.5,0.5,29,210.88
5644,B4,1007.5,0.5,48,210.88
5645,B5,1007.5,0.5,48,210.88
5646,E3,1008.0,0.5,36,210.88
5647,C#5,1008.0,0.5,50,210.88
5648,C#6,1008.0,0.5,50,210.88
5649,C#4,1008.5,0.5,30,210.88
5650,D5,1008.5,0.5,47,210.88
5651,D6,1008.5,0.5,47,210.88
5652,C3,1009.0,0.5,33,210.88
5653,E5,1009.0,0.5,50,210.88
5654,E6,1009.0,0.5,50,210.88
5655,A3,1009.5,0.5,29,210.88
5656,G5,1009.5,0.5,52,210.88
5657,G6,1009.5,0.5,52,210.88
5658,C#3,1010.0,0.5,33,210.88
5659,F#5,1010.0,0.5,50,210.88
5660,F#6,1010.0,0.5,50,210.88
5661,G#3,1010.5,0.5,29,210.88
5662,C#5,1010.5,0.5,49,210.88
5663,C#6,1010.5,0.5,49,210.88
5664,E3,1011.0,0.5,33,210.88
5665,D5,1011.0,3.0,50,210.88
5666,D6,1011.0,3.0,50,210.88
5667,G#3,1011.5,0.5,30,210.88
5668,F#3,1012.0,0.5,33,210.88
5669,A3,1012.5,0.5,30,210.88
5670,F#3,1013.0,0.5,34,210.88
5671,A3,1013.5,0.5,30,210.88
5672,D5,1014.0,1.0,54,210.88
5673,D6,1014.0,1.0,54,210.88
5674,G#2,1014.0,0.5,35,210.88
5675,E3,1014.0,0.5,35,210.88
5676,G#3,1014.5,0.5,31,210.88
5677,C#5,1015.0,1.5,58,210.88
5678,C#6,1015.0,1.5,58,210.88
5679,G#2,1015.0,0.5,35,210.88
5680,E-3,1015.0,0.5,35,210.88
5681,G#3,1015.5,0.5,33,210.88
5682,F#2,1016.0,0.5,39,210.88
5683,D3,1016.0,0.5,39,210.88
5684,A3,1016.5,0.5,29,210.88
5685,B4,1016.5,0.5,54,210.88
5686,B5,1016.5,0.5,54,210.88
5687,F#3,1017.0,0.5,35,210.88
5688,A4,1017.0,0.5,54,210.88
5689,A5,1017.0,0.5,54,210.88
5690,A3,1017.5,0.5,31,210.88
5691,F#3,1018.0,0.5,36,210.88
5692,A4,1018.0,1.0,54,210.88
5693,A5,1018.0,1.0,54,210.88
5694,A3,1018.5,0.5,33,210.88
5695,D3,1019.0,0.5,31,210.88
5696,G#4,1019.0,1.5,57,210.88
5697,G#5,1019.0,1.5,57,210.88
5698,A3,1019.5,0.5,27,210.88
5699,E3,1020.0,0.5,33,210.88
5700,G#3,1020.5,0.5,28,210.88
5701,F#4,1020.5,0.5,52,210.88
5702,F#5,1020.5,0.5,52,210.88
5703,F#3,1021.0,0.5,33,210.88
5704,E4,1021.0,0.5,54,210.88
5705,E5,1021.0,0.5,54,210.88
5706,G#3,1021.5,0.5,28,210.88
5707,E4,1022.0,1.0,51,210.88
5708,E5,1022.0,1.0,51,210.88
5709,G#2,1022.0,0.5,33,210.88
5710,E3,1022.0,0.5,33,210.88
5711,G#3,1022.5,0.5,28,210.88
5712,D4,1023.0,1.0,54,210.88
5713,D5,1023.0,1.0,54,210.88
5714,G#2,1023.0,0.5,33,210.88
5715,F#3,1023.0,0.5,33,210.88
5716,G#3,1023.5,0.5,29,210.88
5717,F#4,1024.0,1.0,50,210.88
5718,F#5,1024.0,1.0,50,210.88
5719,A2,1024.0,2.0,34,210.88
5720,E3,1024.0,2.0,34,210.88
5721,A3,1024.0,2.0,34,210.88
5722,C#4,1025.0,1.0,54,210.88
5723,C#5,1025.0,1.0,54,210.88
5724,C#3,1026.0,0.5,35,210.88
5725,C4,1026.0,1.0,52,210.88
5726,C5,1026.0,1.0,52,210.88
5727,E3,1027.0,0.5,35,210.88
5728,D4,1027.0,3.0,62,210.88
5729,D5,1027.0,3.0,62,210.88
5730,A2,1028.0,2.0,34,210.88
5731,E3,1028.0,2.0,34,210.88
5732,A3,1028.0,2.0,34,210.88
5733,C#3,1030.0,0.5,35,210.88
5734,E4,1030.0,0.5,54,210.88
5735,E5,1030.0,0.5,54,210.88
5736,F#4,1030.5,0.5,49,210.88
5737,F#5,1030.5,0.5,49,210.88
5738,E3,1031.0,0.5,35,210.88
5739,G#4,1031.0,1.0,57,210.88
5740,G#5,1031.0,1.0,57,210.88
5741,A2,1032.0,0.5,35,210.88
5742,A4,1032.0,1.0,55,210.88
5743,A5,1032.0,1.0,55,210.88
5744,E3,1033.0,3.0,28,210.88
5745,C#4,1033.0,1.0,33,210.88
5746,C#4,1033.0,1.0,54,210.88
5747,C#5,1033.0,1.0,54,210.88
5748,B3,1034.0,1.0,35,210.88
5749,C4,1034.0,1.0,52,210.88
5750,C5,1034.0,1.0,52,210.88
5751,C#5,1035.0,333/1000,60,210.88
5752,D4,1035.0,1.0,32,210.88
5753,C#6,1035.333,333/1000,49,210.88
5754,A5,1035.667,167/1000,49,210.88
5755,E5,1036.0,167/1000,53,210.88
5756,A2,1036.0,0.5,35,210.88
5757,C#5,1036.333,167/1000,48,210.88
5758,A4,1036.667,167/1000,46,210.88
5759,E4,1037.0,333/1000,51,210.88
5760,E3,1037.0,3.0,28,210.88
5761,C#4,1037.0,1.0,33,210.88
5762,C#4,1037.333,333/1000,46,210.88
5763,A3,1037.667,333/1000,46,210.88
5764,C#4,1038.0,333/1000,53,210.88
5765,B3,1038.0,1.0,35,210.88
5766,E4,1038.333,333/1000,50,210.88
5767,A4,1038.667,333/1000,50,210.88
5768,C#5,1039.0,333/1000,57,210.88
5769,D4,1039.0,1.0,32,210.88
5770,C#6,1039.333,333/1000,49,210.88
5771,A5,1039.667,167/1000,49,210.88
5772,E5,1040.0,167/1000,53,210.88
5773,A2,1040.0,2.0,40,210.88
5774,E3,1040.0,2.0,40,210.88
5775,A3,1040.0,2.0,40,210.88
5776,C#5,1040.333,167/1000,48,210.88
5777,A4,1040.667,167/1000,46,210.88
5778,E4,1041.0,333/1000,51,210.88
5779,C#4,1041.333,333/1000,46,210.88
5780,A3,1041.667,333/1000,46,210.88
5781,C#4,1042.0,333/1000,53,210.88
5782,C#3,1042.0,0.5,37,210.88
5783,E4,1042.333,333/1000,50,210.88
5784,A4,1042.667,333/1000,50,210.88
5785,C#5,1043.0,333/1000,53,210.88
5786,E3,1043.0,0.5,37,210.88
5787,A4,1043.333,333/1000,48,210.88
5788,E4,1043.667,333/1000,48,210.88
5789,E5,1044.0,1.0,53,210.88
5790,B-2,1044.0,0.5,37,210.88
5791,A4,1044.333,333/1000,47,210.88
5792,E4,1044.667,333/1000,45,210.88
5793,F5,1045.0,1.0,55,210.88
5794,D5,1045.0,333/1000,46,210.88
5795,C#3,1045.0,0.5,37,210.88
5796,G#4,1045.333,333/1000,42,210.88
5797,F4,1045.667,333/1000,41,210.88
5798,E5,1046.0,1.0,55,210.88
5799,B4,1046.0,333/1000,46,210.88
5800,G2,1046.0,0.5,42,210.88
5801,G#4,1046.333,333/1000,42,210.88
5802,E4,1046.667,333/1000,42,210.88
5803,C#5,1047.0,1.0,53,210.88
5804,E-3,1047.0,0.5,37,210.88
5805,A4,1047.333,333/1000,48,210.88
5806,E4,1047.667,333/1000,48,210.88
5807,E5,1048.0,1.0,53,210.88
5808,G#2,1048.0,2.0,34,210.88
5809,E-3,1048.0,2.0,34,210.88
5810,G#3,1048.0,2.0,34,210.88
5811,A4,1048.333,333/1000,47,210.88
5812,E4,1048.667,333/1000,45,210.88
5813,F5,1049.0,1.0,55,210.88
5814,D5,1049.0,333/1000,46,210.88
5815,G#4,1049.333,333/1000,42,210.88
5816,F4,1049.667,333/1000,41,210.88
5817,E5,1050.0,1.0,55,210.88
5818,B4,1050.0,333/1000,46,210.88
5819,B2,1050.0,0.5,35,210.88
5820,G#4,1050.333,333/1000,42,210.88
5821,E4,1050.667,333/1000,42,210.88
5822,C#5,1051.0,333/1000,77,210.88
5823,E-3,1051.0,0.5,35,210.88
5824,C#6,1051.333,333/1000,68,210.88
5825,A5,1051.667,167/1000,58,210.88
5826,E5,1052.0,167/1000,63,210.88
5827,G#2,1052.0,2.0,34,210.88
5828,E-3,1052.0,2.0,34,210.88
5829,G#3,1052.0,2.0,34,210.88
5830,C#5,1052.333,167/1000,57,210.88
5831,A4,1052.667,167/1000,55,210.88
5832,E4,1053.0,333/1000,61,210.88
5833,C#4,1053.333,333/1000,55,210.88
5834,A3,1053.667,333/1000,55,210.88
5835,C#4,1054.0,333/1000,63,210.88
5836,B2,1054.0,0.5,35,210.88
5837,E4,1054.333,333/1000,56,210.88
5838,A4,1054.667,333/1000,57,210.88
5839,C#5,1055.0,333/1000,59,210.88
5840,E-3,1055.0,0.5,35,210.88
5841,G4,1055.333,333/1000,56,210.88
5842,E4,1055.667,333/1000,56,210.88
5843,E5,1056.0,333/1000,63,210.88
5844,G#2,1056.0,0.5,36,210.88
5845,B-4,1056.333,333/1000,58,210.88
5846,G4,1056.667,333/1000,58,210.88
5847,B-5,1057.0,333/1000,66,210.88
5848,B2,1057.0,0.5,40,210.88
5849,E5,1057.333,333/1000,58,210.88
5850,C#5,1057.667,333/1000,60,210.88
5851,G5,1058.0,333/1000,63,210.88
5852,F2,1058.0,0.5,44,210.88
5853,E-5,1058.333,333/1000,58,210.88
5854,C#5,1058.667,333/1000,58,210.88
5855,B4,1059.0,333/1000,69,210.88
5856,F#2,1059.0,0.5,48,210.88
5857,B5,1059.333,333/1000,49,210.88
5858,G#5,1059.667,167/1000,49,210.88
5859,E-5,1060.0,167/1000,53,210.88
5860,B1,1060.0,2.0,50,210.88
5861,F#2,1060.0,2.0,50,210.88
5862,B2,1060.0,2.0,50,210.88
5863,B4,1060.333,167/1000,48,210.88
5864,G#4,1060.667,167/1000,46,210.88
5865,E-4,1061.0,333/1000,51,210.88
5866,B3,1061.333,333/1000,46,210.88
5867,G#3,1061.667,333/1000,46,210.88
5868,B3,1062.0,333/1000,53,210.88
5869,E-2,1062.0,0.5,35,210.88
5870,E-4,1062.333,333/1000,50,210.88
5871,G#4,1062.667,333/1000,50,210.88
5872,B4,1063.0,333/1000,67,210.88
5873,F#2,1063.0,0.5,35,210.88
5874,B5,1063.333,333/1000,49,210.88
5875,G#5,1063.667,167/1000,49,210.88
5876,E-5,1064.0,167/1000,53,210.88
5877,B1,1064.0,2.0,50,210.88
5878,F#2,1064.0,2.0,50,210.88
5879,B2,1064.0,2.0,50,210.88
5880,B4,1064.333,167/1000,48,210.88
5881,G#4,1064.667,167/1000,46,210.88
5882,E-4,1065.0,333/1000,51,210.88
5883,B3,1065.333,333/1000,46,210.88
5884,G#3,1065.667,333/1000,46,210.88
5885,B3,1066.0,333/1000,53,210.88
5886,E-2,1066.0,0.5,35,210.88
5887,E-4,1066.333,333/1000,50,210.88
5888,G#4,1066.667,333/1000,50,210.88
5889,B4,1067.0,333/1000,55,210.88
5890,F#2,1067.0,0.5,35,210.88
5891,G#4,1067.333,333/1000,52,210.88
5892,E-4,1067.667,333/1000,52,210.88
5893,E-5,1068.0,333/1000,60,210.88
5894,B1,1068.0,0.5,35,210.88
5895,B4,1068.333,333/1000,56,210.88
5896,G#4,1068.667,333/1000,56,210.88
5897,G#5,1069.0,333/1000,65,210.88
5898,F#3,1069.0,3.0,28,210.88
5899,E-4,1069.0,1.0,33,210.88
5900,D5,1069.333,333/1000,59,210.88
5901,B4,1069.667,333/1000,59,210.88
5902,C#4,1070.0,1.0,35,210.88
5903,B-5,1070.0,333/1000,70,210.88
5904,F#5,1070.0,333/1000,70,210.88
5905,E5,1070.333,333/1000,63,210.88
5906,C#5,1070.667,333/1000,63,210.88
5907,E-5,1071.0,333/1000,86,210.88
5908,E4,1071.0,1.0,32,210.88
5909,E-6,1071.333,333/1000,78,210.88
5910,B5,1071.667,333/1000,57,210.88
5911,F#5,1072.0,333/1000,65,210.88
5912,B2,1072.0,0.5,35,210.88
5913,E-5,1072.333,333/1000,56,210.88
5914,B4,1072.667,333/1000,50,210.88
5915,F#4,1073.0,333/1000,51,210.88
5916,F#3,1073.0,3.0,28,210.88
5917,E-4,1073.0,1.0,33,210.88
5918,E-4,1073.333,333/1000,46,210.88
5919,B3,1073.667,333/1000,46,210.88
5920,E-4,1074.0,333/1000,53,210.88
5921,C#4,1074.0,1.0,35,210.88
5922,F#4,1074.333,333/1000,50,210.88
5923,B4,1074.667,333/1000,50,210.88
5924,E-5,1075.0,333/1000,79,210.88
5925,E4,1075.0,1.0,32,210.88
5926,E-6,1075.333,333/1000,66,210.88
5927,B5,1075.667,333/1000,57,210.88
5928,F#5,1076.0,333/1000,65,210.88
5929,B2,1076.0,2.0,48,210.88
5930,F#3,1076.0,2.0,48,210.88
5931,B3,1076.0,2.0,48,210.88
5932,E-5,1076.333,333/1000,56,210.88
5933,B4,1076.667,333/1000,50,210.88
5934,F#4,1077.0,333/1000,51,210.88
5935,E-4,1077.333,333/1000,46,210.88
5936,B3,1077.667,333/1000,46,210.88
5937,E-4,1078.0,333/1000,53,210.88
5938,E-3,1078.0,0.5,42,210.88
5939,F#4,1078.333,333/1000,50,210.88
5940,B4,1078.667,333/1000,50,210.88
5941,E-5,1079.0,333/1000,53,210.88
5942,F#3,1079.0,0.5,42,210.88
5943,B4,1079.333,333/1000,48,210.88
5944,F#4,1079.667,333/1000,48,210.88
5945,F#5,1080.0,1.0,53,210.88
5946,C3,1080.0,0.5,50,210.88
5947,B4,1080.333,333/1000,47,210.88
5948,F#4,1080.667,333/1000,45,210.88
5949,G5,1081.0,1.0,55,210.88
5950,E5,1081.0,333/1000,46,210.88
5951,E-3,1081.0,0.5,41,210.88
5952,B-4,1081.333,333/1000,42,210.88
5953,G4,1081.667,333/1000,41,210.88
5954,F#5,1082.0,1.0,55,210.88
5955,C#5,1082.0,333/1000,46,210.88
5956,A2,1082.0,0.5,50,210.88
5957,B-4,1082.333,333/1000,42,210.88
5958,F#4,1082.667,333/1000,42,210.88
5959,E-5,1083.0,1.0,53,210.88
5960,F3,1083.0,0.5,40,210.88
5961,B4,1083.333,333/1000,48,210.88
5962,F#4,1083.667,333/1000,48,210.88
5963,F#5,1084.0,1.0,53,210.88
5964,E-5,1084.0,333/1000,46,210.88
5965,B-2,1084.0,2.0,34,210.88
5966,F3,1084.0,2.0,34,210.88
5967,B-3,1084.0,2.0,34,210.88
5968,B4,1084.333,333/1000,47,210.88
5969,F#4,1084.667,333/1000,45,210.88
5970,G5,1085.0,1.0,55,210.88
5971,E5,1085.0,333/1000,46,210.88
5972,B-4,1085.333,333/1000,42,210.88
5973,G4,1085.667,333/1000,41,210.88
5974,F#5,1086.0,1.0,55,210.88
5975,C#5,1086.0,333/1000,46,210.88
5976,C#3,1086.0,0.5,35,210.88
5977,B-4,1086.333,333/1000,42,210.88
5978,F#4,1086.667,333/1000,42,210.88
5979,E-5,1087.0,333/1000,79,210.88
5980,F3,1087.0,0.5,35,210.88
5981,E-6,1087.333,333/1000,70,210.88
5982,B5,1087.667,333/1000,62,210.88
5983,F#5,1088.0,333/1000,69,210.88
5984,B-2,1088.0,2.0,34,210.88
5985,F3,1088.0,2.0,34,210.88
5986,B-3,1088.0,2.0,34,210.88
5987,E-5,1088.333,333/1000,64,210.88
5988,B4,1088.667,333/1000,63,210.88
5989,F#4,1089.0,333/1000,73,210.88
5990,E-4,1089.333,333/1000,66,210.88
5991,B3,1089.667,333/1000,66,210.88
5992,E-4,1090.0,333/1000,70,210.88
5993,C#3,1090.0,0.5,35,210.88
5994,F#4,1090.333,333/1000,67,210.88
5995,B4,1090.667,333/1000,68,210.88
5996,E-5,1091.0,333/1000,70,210.88
5997,F3,1091.0,0.5,35,210.88
5998,A4,1091.333,333/1000,67,210.88
5999,F#4,1091.667,333/1000,67,210.88
6000,F#5,1092.0,333/1000,75,210.88
6001,B-2,1092.0,0.5,39,210.88
6002,C5,1092.333,333/1000,69,210.88
6003,A4,1092.667,333/1000,69,210.88
6004,C6,1093.0,333/1000,76,210.88
6005,C#3,1093.0,0.5,47,210.88
6006,F#5,1093.333,333/1000,69,210.88
6007,E-5,1093.667,333/1000,72,210.88
6008,A5,1094.0,333/1000,75,210.88
6009,G2,1094.0,0.5,53,210.88
6010,F5,1094.333,333/1000,67,210.88
6011,E-5,1094.667,333/1000,61,210.88
6012,C#5,1095.0,333/1000,66,210.88
6013,G#2,1095.0,0.5,58,210.88
6014,C#6,1095.333,333/1000,49,210.88
6015,B-5,1095.667,333/1000,49,210.88
6016,F5,1096.0,333/1000,53,210.88
6017,C#2,1096.0,3.0,62,210.88
6018,G#2,1096.0,3.0,62,210.88
6019,C#3,1096.0,3.0,62,210.88
6020,C#5,1096.333,333/1000,48,210.88
6021,B-4,1096.667,333/1000,46,210.88
6022,F4,1097.0,333/1000,51,210.88
6023,C#4,1097.333,333/1000,46,210.88
6024,B-3,1097.667,333/1000,46,210.88
6025,C#4,1098.0,333/1000,57,210.88
6026,F4,1098.333,333/1000,50,210.88
6027,B-4,1098.667,333/1000,50,210.88
6028,C#5,1099.0,333/1000,53,210.88
6029,G#3,1099.0,333/1000,50,210.88
6030,C#6,1099.333,333/1000,49,210.88
6031,F3,1099.333,333/1000,44,210.88
6032,B-5,1099.667,333/1000,49,210.88
6033,C#3,1099.667,333/1000,37,210.88
6034,F5,1100.0,333/1000,53,210.88
6035,C#2,1100.0,19/40,36,210.88
6036,C#5,1100.333,333/1000,48,210.88
6037,C#2,1100.5,19/40,30,210.88
6038,B-4,1100.667,333/1000,46,210.88
6039,F4,1101.0,333/1000,51,210.88
6040,C#2,1101.0,19/40,31,210.88
6041,C#4,1101.333,333/1000,46,210.88
6042,C#2,1101.5,19/40,31,210.88
6043,B-3,1101.667,333/1000,46,210.88
6044,C#4,1102.0,333/1000,53,210.88
6045,C#2,1102.0,19/40,30,210.88
6046,F4,1102.333,333/1000,50,210.88
6047,C#2,1102.5,19/40,30,210.88
6048,B-4,1102.667,333/1000,50,210.88
6049,C#5,1103.0,333/1000,60,210.88
6050,C#2,1103.0,19/40,29,210.88
6051,B-4,1103.333,333/1000,57,210.88
6052,C#2,1103.5,19/40,29,210.88
6053,F4,1103.667,333/1000,57,210.88
6054,F5,1104.0,333/1000,66,210.88
6055,C#2,1104.0,19/40,26,210.88
6056,C#5,1104.333,333/1000,61,210.88
6057,C#2,1104.5,19/40,26,210.88
6058,B-4,1104.667,333/1000,61,210.88
6059,B-5,1105.0,333/1000,71,210.88
6060,C#2,1105.0,19/40,26,210.88
6061,E5,1105.333,333/1000,64,210.88
6062,C#2,1105.5,19/40,26,210.88
6063,C#5,1105.667,333/1000,64,210.88
6064,C#2,1106.0,19/40,26,210.88
6065,C6,1106.0,333/1000,77,210.88
6066,G#5,1106.0,333/1000,77,210.88
6067,F#5,1106.333,333/1000,69,210.88
6068,C#2,1106.5,19/40,26,210.88
6069,E-5,1106.667,333/1000,69,210.88
6070,F5,1107.0,333/1000,86,210.88
6071,C#2,1107.0,19/40,26,210.88
6072,F6,1107.333,333/1000,77,210.88
6073,C#2,1107.5,19/40,26,210.88
6074,C#6,1107.667,333/1000,72,210.88
6075,G#5,1108.0,333/1000,75,210.88
6076,C#2,1108.0,19/40,26,210.88
6077,F5,1108.333,333/1000,68,210.88
6078,C#2,1108.5,19/40,26,210.88
6079,C#5,1108.667,333/1000,60,210.88
6080,G#4,1109.0,333/1000,57,210.88
6081,C#2,1109.0,19/40,26,210.88
6082,F4,1109.333,333/1000,49,210.88
6083,C#2,1109.5,19/40,26,210.88
6084,C#4,1109.667,333/1000,47,210.88
6085,C#2,1110.0,19/40,26,210.88
6086,C#2,1110.5,19/40,26,210.88
6087,C#2,1111.0,19/40,26,210.88
6088,C#2,1111.5,19/40,26,210.88
6089,C#2,1112.0,19/40,26,210.88
6090,C#2,1112.5,19/40,26,210.88
6091,E-2,1113.0,1.0,26,210.88
6092,C#2,1113.0,19/40,26,210.88
6093,C#2,1113.5,19/40,26,210.88
6094,G#2,1114.0,1.0,26,210.88
6095,C#2,1114.0,19/40,26,210.88
6096,C#2,1114.5,19/40,26,210.88
6097,A2,1115.0,1.0,26,210.88
6098,C#2,1115.0,19/40,26,210.88
6099,F3,1115.0,2.0,42,210.88
6100,G#3,1115.0,2.0,42,210.88
6101,C#4,1115.0,2.0,42,210.88
6102,C#2,1115.5,19/40,26,210.88
6103,G#2,1116.0,333/1000,31,210.88
6104,C#2,1116.0,3.0,26,210.88
6105,G2,1116.333,333/1000,28,210.88
6106,G#2,1116.667,333/1000,28,210.88
6107,F4,1117.0,0.5,46,210.88
6108,A2,1117.0,333/1000,31,210.88
6109,G#2,1117.333,333/1000,27,210.88
6110,G2,1117.667,333/1000,27,210.88
6111,G#4,1118.0,0.5,46,210.88
6112,G#2,1118.0,333/1000,32,210.88
6113,F2,1118.333,333/1000,28,210.88
6114,E2,1118.667,333/1000,28,210.88
6115,F2,1119.0,333/1000,32,210.88
6116,F#3,1119.0,2.0,42,210.88
6117,B-3,1119.0,2.0,42,210.88
6118,E-4,1119.0,2.0,42,210.88
6119,C#2,1119.333,333/1000,27,210.88
6120,D2,1119.667,333/1000,28,210.88
6121,C#2,1120.0,19/40,26,210.88
6122,C#2,1120.5,19/40,26,210.88
6123,F#4,1121.0,0.5,45,210.88
6124,C#2,1121.0,19/40,26,210.88
6125,C#2,1121.5,19/40,26,210.88
6126,B-4,1122.0,0.5,45,210.88
6127,C#2,1122.0,19/40,26,210.88
6128,C#2,1122.5,19/40,26,210.88
6129,B-4,1123.0,0.5,48,210.88
6130,C#2,1123.0,19/40,26,210.88
6131,G#4,1123.5,0.5,45,210.88
6132,C#2,1123.5,19/40,26,210.88
6133,C4,1124.0,99/100,40,210.88
6134,G#4,1124.0,0.5,48,210.88
6135,C2,1124.0,19/40,26,210.88
6136,F#4,1124.5,0.5,45,210.88
6137,C2,1124.5,19/40,26,210.88
6138,C4,1125.0,99/100,42,210.88
6139,F#4,1125.0,0.5,50,210.88
6140,C2,1125.0,19/40,26,210.88
6141,F4,1125.5,0.5,45,210.88
6142,C2,1125.5,19/40,26,210.88
6143,C4,1126.0,99/100,41,210.88
6144,F4,1126.0,0.5,49,210.88
6145,C2,1126.0,19/40,26,210.88
6146,E4,1126.5,0.5,45,210.88
6147,C2,1126.5,19/40,26,210.88
6148,C2,1127.0,19/40,26,210.88
6149,C#4,1127.0,4.0,45,210.88
6150,F4,1127.0,4.0,45,210.88
6151,C2,1127.5,19/40,26,210.88
6152,B1,1128.0,19/40,26,210.88
6153,B1,1128.5,19/40,26,210.88
6154,F#2,1129.0,1.0,26,210.88
6155,B1,1129.0,19/40,26,210.88
6156,B1,1129.5,19/40,26,210.88
6157,B2,1130.0,1.0,26,210.88
6158,B1,1130.0,19/40,26,210.88
6159,B1,1130.5,19/40,26,210.88
6160,C3,1131.0,1.0,26,210.88
6161,B1,1131.0,19/40,26,210.88
6162,F3,1131.0,2.0,42,210.88
6163,G#3,1131.0,2.0,42,210.88
6164,C#4,1131.0,2.0,42,210.88
6165,B1,1131.5,19/40,26,210.88
6166,B2,1132.0,333/1000,31,210.88
6167,E2,1132.0,3.0,26,210.88
6168,B-2,1132.333,333/1000,28,210.88
6169,B2,1132.667,333/1000,28,210.88
6170,F4,1133.0,0.5,46,210.88
6171,C3,1133.0,333/1000,31,210.88
6172,B2,1133.333,333/1000,27,210.88
6173,B-2,1133.667,333/1000,27,210.88
6174,G#4,1134.0,0.5,46,210.88
6175,B2,1134.0,333/1000,32,210.88
6176,G#2,1134.333,333/1000,28,210.88
6177,G2,1134.667,333/1000,28,210.88
6178,G#2,1135.0,333/1000,32,210.88
6179,F#3,1135.0,2.0,42,210.88
6180,A3,1135.0,2.0,42,210.88
6181,E-4,1135.0,2.0,42,210.88
6182,E2,1135.333,333/1000,27,210.88
6183,F2,1135.667,333/1000,28,210.88
6184,E2,1136.0,2.0,38,210.88
6185,F#4,1137.0,0.5,45,210.88
6186,A4,1138.0,0.5,45,210.88
6187,G#2,1138.0,0.5,37,210.88
6188,A4,1139.0,0.5,48,210.88
6189,B2,1139.0,0.5,37,210.88
6190,G#4,1139.5,0.5,45,210.88
6191,E-4,1140.0,1.0,40,210.88
6192,B4,1140.0,0.5,48,210.88
6193,E2,1140.0,2.0,38,210.88
6194,A4,1140.5,0.5,45,210.88
6195,E-4,1141.0,1.0,42,210.88
6196,A4,1141.0,0.5,50,210.88
6197,G#4,1141.5,0.5,45,210.88
6198,E-4,1142.0,1.0,41,210.88
6199,G#4,1142.0,0.5,49,210.88
6200,A2,1142.0,0.5,37,210.88
6201,G4,1142.5,0.5,45,210.88
6202,C3,1143.0,0.5,37,210.88
6203,E4,1143.0,4.0,45,210.88
6204,G#4,1143.0,4.0,45,210.88
6205,D3,1144.0,0.5,41,210.88
6206,C3,1144.5,19/40,42,210.88
6207,C3,1145.0,0.5,44,210.88
6208,B2,1145.5,19/40,46,210.88
6209,B2,1146.0,0.5,47,210.88
6210,A2,1146.5,19/40,49,210.88
6211,E4,1147.0,19/40,35,210.88
6212,A2,1147.0,0.5,51,210.88
6213,E4,1147.5,19/40,35,210.88
6214,G2,1147.5,19/40,53,210.88
6215,E4,1148.0,19/40,35,210.88
6216,G2,1148.0,0.5,53,210.88
6217,E4,1148.5,19/40,35,210.88
6218,F2,1148.5,19/40,52,210.88
6219,E4,1149.0,19/40,35,210.88
6220,F2,1149.0,0.5,50,210.88
6221,E4,1149.5,19/40,35,210.88
6222,E2,1149.5,19/40,48,210.88
6223,E4,1150.0,19/40,35,210.88
6224,E2,1150.0,0.5,47,210.88
6225,E4,1150.5,19/40,35,210.88
6226,D2,1150.5,19/40,45,210.88
6227,D2,1151.0,0.5,44,210.88
6228,F4,1151.0,19/40,35,210.88
6229,E4,1151.0,19/40,35,210.88
6230,C2,1151.5,19/40,42,210.88
6231,F4,1151.5,19/40,35,210.88
6232,E4,1151.5,19/40,35,210.88
6233,F4,1152.0,19/40,35,210.88
6234,E4,1152.0,19/40,35,210.88
6235,C2,1152.0,2.0,44,210.88
6236,C3,1152.0,2.0,44,210.88
6237,F4,1152.5,19/40,35,210.88
6238,E4,1152.5,19/40,35,210.88
6239,F4,1153.0,19/40,35,210.88
6240,E4,1153.0,19/40,35,210.88
6241,F4,1153.5,19/40,35,210.88
6242,E4,1153.5,19/40,35,210.88
6243,E3,1154.0,0.5,44,210.88
6244,F4,1154.0,19/40,35,210.88
6245,E4,1154.0,19/40,35,210.88
6246,F4,1154.5,19/40,35,210.88
6247,E4,1154.5,19/40,35,210.88
6248,G3,1155.0,0.5,45,210.88
6249,E4,1155.0,19/40,36,210.88
6250,F4,1155.0,19/40,36,210.88
6251,E4,1155.5,19/40,38,210.88
6252,F4,1155.5,19/40,38,210.88
6253,C3,1156.0,2.0,49,210.88
6254,E4,1156.0,19/40,39,210.88
6255,F4,1156.0,19/40,39,210.88
6256,E4,1156.5,19/40,41,210.88
6257,F4,1156.5,19/40,41,210.88
6258,D4,1157.0,19/40,43,210.88
6259,F4,1157.0,19/40,43,210.88
6260,D4,1157.5,19/40,45,210.88
6261,F4,1157.5,19/40,45,210.88
6262,F3,1158.0,0.5,50,210.88
6263,C4,1158.0,19/40,47,210.88
6264,D4,1158.0,19/40,47,210.88
6265,F#4,1158.0,19/40,47,210.88
6266,C4,1158.5,19/40,48,210.88
6267,D4,1158.5,19/40,48,210.88
6268,F#4,1158.5,19/40,48,210.88
6269,G#3,1159.0,0.5,50,210.88
6270,B3,1159.0,19/40,49,210.88
6271,D4,1159.0,19/40,49,210.88
6272,G4,1159.0,19/40,49,210.88
6273,B3,1159.5,19/40,48,210.88
6274,D4,1159.5,19/40,48,210.88
6275,G4,1159.5,19/40,48,210.88
6276,B-3,1160.0,0.5,59,210.88
6277,B3,1160.0,19/40,46,210.88
6278,D4,1160.0,19/40,46,210.88
6279,G4,1160.0,19/40,46,210.88
6280,G#3,1160.5,19/40,60,210.88
6281,B3,1160.5,19/40,44,210.88
6282,D4,1160.5,19/40,44,210.88
6283,G4,1160.5,19/40,44,210.88
6284,G#3,1161.0,0.5,62,210.88
6285,C4,1161.0,19/40,42,210.88
6286,E4,1161.0,19/40,42,210.88
6287,G4,1161.0,19/40,42,210.88
6288,G3,1161.5,19/40,64,210.88
6289,C4,1161.5,19/40,40,210.88
6290,E4,1161.5,19/40,40,210.88
6291,G4,1161.5,19/40,40,210.88
6292,G3,1162.0,0.5,68,210.88
6293,B3,1162.0,19/40,38,210.88
6294,F4,1162.0,19/40,38,210.88
6295,G4,1162.0,19/40,38,210.88
6296,F3,1162.5,19/40,70,210.88
6297,B3,1162.5,19/40,36,210.88
6298,F4,1162.5,19/40,36,210.88
6299,G4,1162.5,19/40,36,210.88
6300,C5,1163.0,19/40,41,210.88
6301,F3,1163.0,0.5,72,210.88
6302,C5,1163.5,19/40,41,210.88
6303,E-3,1163.5,19/40,75,210.88
6304,C5,1164.0,19/40,42,210.88
6305,E-3,1164.0,0.5,75,210.88
6306,C5,1164.5,19/40,42,210.88
6307,C#3,1164.5,19/40,73,210.88
6308,C5,1165.0,19/40,42,210.88
6309,C#3,1165.0,0.5,71,210.88
6310,C5,1165.5,19/40,43,210.88
6311,B2,1165.5,19/40,69,210.88
6312,C5,1166.0,19/40,43,210.88
6313,B2,1166.0,0.5,68,210.88
6314,C5,1166.5,19/40,44,210.88
6315,B-2,1166.5,19/40,63,210.88
6316,G#2,1167.0,0.5,62,210.88
6317,C#5,1167.0,19/40,45,210.88
6318,C5,1167.0,19/40,45,210.88
6319,B3,1167.5,19/40,60,210.88
6320,C#5,1167.5,19/40,45,210.88
6321,C5,1167.5,19/40,45,210.88
6322,C#4,1168.0,0.5,72,210.88
6323,C#5,1168.0,19/40,45,210.88
6324,C5,1168.0,19/40,45,210.88
6325,B3,1168.5,19/40,63,210.88
6326,C#5,1168.5,19/40,45,210.88
6327,C5,1168.5,19/40,45,210.88
6328,B3,1169.0,0.5,70,210.88
6329,C#5,1169.0,19/40,47,210.88
6330,C5,1169.0,19/40,47,210.88
6331,B-3,1169.5,19/40,63,210.88
6332,C#5,1169.5,19/40,47,210.88
6333,C5,1169.5,19/40,47,210.88
6334,B-3,1170.0,0.5,70,210.88
6335,C#5,1170.0,19/40,47,210.88
6336,C5,1170.0,19/40,47,210.88
6337,G#3,1170.5,19/40,64,210.88
6338,C#5,1170.5,19/40,47,210.88
6339,C5,1170.5,19/40,47,210.88
6340,G#3,1171.0,0.5,70,210.88
6341,C5,1171.0,19/40,51,210.88
6342,C#5,1171.0,19/40,51,210.88
6343,F#3,1171.5,19/40,64,210.88
6344,C5,1171.5,19/40,53,210.88
6345,C#5,1171.5,19/40,53,210.88
6346,F#3,1172.0,0.5,72,210.88
6347,C5,1172.0,19/40,55,210.88
6348,C#5,1172.0,19/40,55,210.88
6349,E3,1172.5,19/40,64,210.88
6350,C5,1172.5,19/40,59,210.88
6351,C#5,1172.5,19/40,59,210.88
6352,E3,1173.0,0.5,73,210.88
6353,B-4,1173.0,19/40,61,210.88
6354,C#5,1173.0,19/40,61,210.88
6355,D3,1173.5,19/40,67,210.88
6356,B-4,1173.5,19/40,63,210.88
6357,C#5,1173.5,19/40,63,210.88
6358,D3,1174.0,0.5,73,210.88
6359,G#4,1174.0,19/40,68,210.88
6360,B-4,1174.0,19/40,68,210.88
6361,D5,1174.0,19/40,68,210.88
6362,C#3,1174.5,0.5,67,210.88
6363,G#4,1174.5,19/40,69,210.88
6364,B-4,1174.5,19/40,69,210.88
6365,D5,1174.5,19/40,69,210.88
6366,B2,1175.0,0.5,72,210.88
6367,G4,1175.0,19/40,63,210.88
6368,B-4,1175.0,19/40,63,210.88
6369,E-5,1175.0,19/40,63,210.88
6370,G4,1175.5,19/40,67,210.88
6371,B-4,1175.5,19/40,67,210.88
6372,E-5,1175.5,19/40,67,210.88
6373,D4,1175.5,0.5,60,210.88
6374,D3,1175.5,0.5,60,210.88
6375,G#4,1176.0,19/40,59,210.88
6376,B4,1176.0,19/40,59,210.88
6377,E-5,1176.0,19/40,59,210.88
6378,E4,1176.0,0.5,72,210.88
6379,E3,1176.0,0.5,72,210.88
6380,G#4,1176.5,19/40,58,210.88
6381,B4,1176.5,19/40,58,210.88
6382,E-5,1176.5,19/40,58,210.88
6383,D4,1176.5,19/40,58,210.88
6384,D3,1176.5,19/40,58,210.88
6385,G4,1177.0,19/40,56,210.88
6386,C#5,1177.0,19/40,56,210.88
6387,E-5,1177.0,19/40,56,210.88
6388,D4,1177.0,0.5,66,210.88
6389,D3,1177.0,0.5,66,210.88
6390,G4,1177.5,19/40,55,210.88
6391,C#5,1177.5,19/40,55,210.88
6392,E-5,1177.5,19/40,55,210.88
6393,C#4,1177.5,19/40,58,210.88
6394,C#3,1177.5,19/40,58,210.88
6395,G#4,1178.0,19/40,54,210.88
6396,B4,1178.0,19/40,54,210.88
6397,E-5,1178.0,19/40,54,210.88
6398,C#4,1178.0,0.5,67,210.88
6399,C#3,1178.0,0.5,67,210.88
6400,E-5,1178.5,19/40,60,210.88
6401,B3,1178.5,19/40,62,210.88
6402,B2,1178.5,19/40,62,210.88
6403,E-5,1179.0,333/1000,74,210.88
6404,E5,1179.0,333/1000,74,210.88
6405,B3,1179.0,0.5,69,210.88
6406,B2,1179.0,0.5,69,210.88
6407,E4,1179.333,333/1000,70,210.88
6408,A3,1179.5,19/40,64,210.88
6409,A2,1179.5,19/40,64,210.88
6410,E-5,1179.667,0.25,65,210.88
6411,E5,1179.667,0.25,65,210.88
6412,E-5,1180.0,333/1000,73,210.88
6413,E5,1180.0,333/1000,73,210.88
6414,A3,1180.0,0.5,73,210.88
6415,A2,1180.0,0.5,73,210.88
6416,E4,1180.333,333/1000,72,210.88
6417,G3,1180.5,19/40,64,210.88
6418,G2,1180.5,19/40,64,210.88
6419,E-5,1180.667,0.25,66,210.88
6420,E5,1180.667,0.25,66,210.88
6421,C#5,1181.0,333/1000,73,210.88
6422,E5,1181.0,333/1000,73,210.88
6423,G3,1181.0,0.5,73,210.88
6424,G2,1181.0,0.5,73,210.88
6425,E4,1181.333,333/1000,70,210.88
6426,F3,1181.5,19/40,65,210.88
6427,F2,1181.5,19/40,65,210.88
6428,C#5,1181.667,0.25,65,210.88
6429,E5,1181.667,0.25,65,210.88
6430,B4,1182.0,333/1000,71,210.88
6431,C#5,1182.0,333/1000,71,210.88
6432,F5,1182.0,333/1000,71,210.88
6433,F3,1182.0,0.5,74,210.88
6434,F2,1182.0,0.5,74,210.88
6435,F4,1182.333,333/1000,69,210.88
6436,E3,1182.5,19/40,68,210.88
6437,E2,1182.5,19/40,68,210.88
6438,B4,1182.667,0.25,63,210.88
6439,C#5,1182.667,0.25,63,210.88
6440,F5,1182.667,0.25,63,210.88
6441,B-4,1183.0,333/1000,71,210.88
6442,C#5,1183.0,333/1000,71,210.88
6443,F#5,1183.0,333/1000,71,210.88
6444,E3,1183.0,0.5,76,210.88
6445,E2,1183.0,0.5,76,210.88
6446,F#4,1183.333,333/1000,70,210.88
6447,D3,1183.5,19/40,69,210.88
6448,D2,1183.5,19/40,69,210.88
6449,B-4,1183.667,333/1000,67,210.88
6450,C#5,1183.667,333/1000,67,210.88
6451,F#5,1183.667,333/1000,67,210.88
6452,D2,1184.0,1.0,86,210.88
6453,B4,1184.0,333/1000,71,210.88
6454,D5,1184.0,333/1000,71,210.88
6455,F#5,1184.0,333/1000,71,210.88
6456,F#4,1184.333,333/1000,75,210.88
6457,D3,1184.5,0.5,69,210.88
6458,A2,1184.5,0.5,69,210.88
6459,B4,1184.667,333/1000,68,210.88
6460,D5,1184.667,333/1000,68,210.88
6461,F#5,1184.667,333/1000,68,210.88
6462,D2,1185.0,1.0,84,210.88
6463,B-4,1185.0,333/1000,73,210.88
6464,E5,1185.0,333/1000,73,210.88
6465,F#5,1185.0,333/1000,73,210.88
6466,F#4,1185.333,333/1000,73,210.88
6467,E3,1185.5,0.5,69,210.88
6468,A2,1185.5,0.5,69,210.88
6469,B-4,1185.667,333/1000,67,210.88
6470,E5,1185.667,333/1000,67,210.88
6471,F#5,1185.667,333/1000,67,210.88
6472,D2,1186.0,1.0,84,210.88
6473,B4,1186.0,333/1000,71,210.88
6474,D5,1186.0,333/1000,71,210.88
6475,F#5,1186.0,333/1000,71,210.88
6476,F#4,1186.333,333/1000,70,210.88
6477,D3,1186.5,0.5,70,210.88
6478,A2,1186.5,0.5,70,210.88
6479,B4,1186.667,333/1000,63,210.88
6480,D5,1186.667,333/1000,63,210.88
6481,F#5,1186.667,333/1000,63,210.88
6482,D2,1187.0,1.0,84,210.88
6483,F#5,1187.0,333/1000,74,210.88
6484,G5,1187.0,333/1000,74,210.88
6485,G4,1187.333,333/1000,70,210.88
6486,E3,1187.5,0.5,70,210.88
6487,A2,1187.5,0.5,70,210.88
6488,F#5,1187.667,0.25,65,210.88
6489,G5,1187.667,0.25,65,210.88
6490,D2,1188.0,1.0,86,210.88
6491,F#5,1188.0,333/1000,74,210.88
6492,G5,1188.0,333/1000,74,210.88
6493,G4,1188.333,333/1000,73,210.88
6494,D3,1188.5,0.5,70,210.88
6495,A2,1188.5,0.5,70,210.88
6496,F#5,1188.667,0.25,68,210.88
6497,G5,1188.667,0.25,68,210.88
6498,D2,1189.0,1.0,85,210.88
6499,E5,1189.0,333/1000,76,210.88
6500,G5,1189.0,333/1000,76,210.88
6501,G4,1189.333,333/1000,73,210.88
6502,E3,1189.5,0.5,72,210.88
6503,A2,1189.5,0.5,72,210.88
6504,E5,1189.667,0.25,68,210.88
6505,G5,1189.667,0.25,68,210.88
6506,D2,1190.0,1.0,88,210.88
6507,D5,1190.0,333/1000,75,210.88
6508,E5,1190.0,333/1000,75,210.88
6509,G#5,1190.0,333/1000,75,210.88
6510,G#4,1190.333,333/1000,74,210.88
6511,D3,1190.5,0.5,74,210.88
6512,A2,1190.5,0.5,74,210.88
6513,D5,1190.667,0.25,68,210.88
6514,E5,1190.667,0.25,68,210.88
6515,G#5,1190.667,0.25,68,210.88
6516,D2,1191.0,1.0,89,210.88
6517,C#5,1191.0,333/1000,79,210.88
6518,E5,1191.0,333/1000,79,210.88
6519,A5,1191.0,333/1000,79,210.88
6520,A4,1191.333,333/1000,77,210.88
6521,E3,1191.5,0.5,76,210.88
6522,A2,1191.5,0.5,76,210.88
6523,C#5,1191.667,0.25,73,210.88
6524,E5,1191.667,0.25,73,210.88
6525,A5,1191.667,0.25,73,210.88
6526,C#5,1192.0,333/1000,76,210.88
6527,E5,1192.0,333/1000,76,210.88
6528,A5,1192.0,333/1000,76,210.88
6529,D2,1192.0,0.5,82,210.88
6530,A2,1192.0,0.5,82,210.88
6531,D3,1192.0,0.5,82,210.88
6532,A4,1192.333,333/1000,80,210.88
6533,A4,1192.5,19/40,24,210.88
6534,F4,1192.5,19/40,24,210.88
6535,D4,1192.5,19/40,24,210.88
6536,C#5,1192.667,0.25,72,210.88
6537,E5,1192.667,0.25,72,210.88
6538,A5,1192.667,0.25,72,210.88
6539,D5,1193.0,333/1000,77,210.88
6540,F5,1193.0,333/1000,77,210.88
6541,A5,1193.0,333/1000,77,210.88
6542,A4,1193.0,19/40,25,210.88
6543,F4,1193.0,19/40,25,210.88
6544,D4,1193.0,19/40,25,210.88
6545,A4,1193.333,333/1000,80,210.88
6546,A4,1193.5,19/40,25,210.88
6547,F4,1193.5,19/40,25,210.88
6548,D4,1193.5,19/40,25,210.88
6549,D5,1193.667,0.25,72,210.88
6550,F5,1193.667,0.25,72,210.88
6551,A5,1193.667,0.25,72,210.88
6552,C#5,1194.0,333/1000,83,210.88
6553,G5,1194.0,333/1000,83,210.88
6554,A5,1194.0,333/1000,83,210.88
6555,A4,1194.0,19/40,24,210.88
6556,F4,1194.0,19/40,24,210.88
6557,D4,1194.0,19/40,24,210.88
6558,A4,1194.333,333/1000,81,210.88
6559,A4,1194.5,19/40,24,210.88
6560,F4,1194.5,19/40,24,210.88
6561,D4,1194.5,19/40,24,210.88
6562,C#5,1194.667,0.25,75,210.88
6563,G5,1194.667,0.25,75,210.88
6564,A5,1194.667,0.25,75,210.88
6565,D5,1195.0,333/1000,86,210.88
6566,F5,1195.0,333/1000,86,210.88
6567,A5,1195.0,333/1000,86,210.88
6568,A4,1195.0,19/40,23,210.88
6569,F4,1195.0,19/40,23,210.88
6570,D4,1195.0,19/40,23,210.88
6571,A4,1195.333,333/1000,84,210.88
6572,A4,1195.5,19/40,23,210.88
6573,F4,1195.5,19/40,23,210.88
6574,D4,1195.5,19/40,23,210.88
6575,D5,1195.667,0.25,78,210.88
6576,F5,1195.667,0.25,78,210.88
6577,A5,1195.667,0.25,78,210.88
6578,C#5,1196.0,333/1000,82,210.88
6579,G5,1196.0,333/1000,82,210.88
6580,A5,1196.0,333/1000,82,210.88
6581,A4,1196.0,19/40,24,210.88
6582,F4,1196.0,19/40,24,210.88
6583,D4,1196.0,19/40,24,210.88
6584,A4,1196.333,333/1000,86,210.88
6585,A4,1196.5,19/40,21,210.88
6586,F4,1196.5,19/40,21,210.88
6587,D4,1196.5,19/40,21,210.88
6588,C#5,1196.667,0.25,77,210.88
6589,G5,1196.667,0.25,77,210.88
6590,A5,1196.667,0.25,77,210.88
6591,D5,1197.0,333/1000,81,210.88
6592,F5,1197.0,333/1000,81,210.88
6593,A5,1197.0,333/1000,81,210.88
6594,A4,1197.0,19/40,21,210.88
6595,F4,1197.0,19/40,21,210.88
6596,D4,1197.0,19/40,21,210.88
6597,A4,1197.333,333/1000,84,210.88
6598,A4,1197.5,19/40,21,210.88
6599,F4,1197.5,19/40,21,210.88
6600,D4,1197.5,19/40,21,210.88
6601,D5,1197.667,0.25,75,210.88
6602,F5,1197.667,0.25,75,210.88
6603,A5,1197.667,0.25,75,210.88
6604,C#5,1198.0,333/1000,85,210.88
6605,G5,1198.0,333/1000,85,210.88
6606,A5,1198.0,333/1000,85,210.88
6607,A4,1198.0,19/40,21,210.88
6608,F4,1198.0,19/40,21,210.88
6609,D4,1198.0,19/40,21,210.88
6610,A4,1198.333,333/1000,82,210.88
6611,A4,1198.5,19/40,21,210.88
6612,F4,1198.5,19/40,21,210.88
6613,D4,1198.5,19/40,21,210.88
6614,C#5,1198.667,0.25,75,210.88
6615,G5,1198.667,0.25,75,210.88
6616,A5,1198.667,0.25,75,210.88
6617,D6,1199.0,333/1000,86,210.88
6618,F5,1199.0,333/1000,86,210.88
6619,A5,1199.0,333/1000,86,210.88
6620,A4,1199.0,19/40,21,210.88
6621,F4,1199.0,19/40,21,210.88
6622,D4,1199.0,19/40,21,210.88
6623,D5,1199.333,333/1000,84,210.88
6624,A4,1199.5,19/40,21,210.88
6625,F4,1199.5,19/40,21,210.88
6626,D4,1199.5,19/40,21,210.88
6627,D6,1199.667,0.25,80,210.88
6628,F5,1199.667,0.25,80,210.88
6629,A5,1199.667,0.25,80,210.88
6630,C#6,1200.0,333/1000,83,210.88
6631,G5,1200.0,333/1000,83,210.88
6632,A5,1200.0,333/1000,83,210.88
6633,C#4,1200.0,19/40,22,210.88
6634,F4,1200.0,19/40,22,210.88
6635,C#5,1200.333,333/1000,88,210.88
6636,C#4,1200.5,19/40,19,210.88
6637,F4,1200.5,19/40,19,210.88
6638,C#6,1200.667,0.25,79,210.88
6639,G5,1200.667,0.25,79,210.88
6640,A5,1200.667,0.25,79,210.88
6641,D6,1201.0,333/1000,83,210.88
6642,F5,1201.0,333/1000,83,210.88
6643,A5,1201.0,333/1000,83,210.88
6644,C#4,1201.0,19/40,19,210.88
6645,F4,1201.0,19/40,19,210.88
6646,D5,1201.333,333/1000,88,210.88
6647,C#4,1201.5,19/40,19,210.88
6648,F4,1201.5,19/40,19,210.88
6649,D6,1201.667,0.25,79,210.88
6650,F5,1201.667,0.25,79,210.88
6651,A5,1201.667,0.25,79,210.88
6652,C#6,1202.0,333/1000,89,210.88
6653,G5,1202.0,333/1000,89,210.88
6654,A5,1202.0,333/1000,89,210.88
6655,C#4,1202.0,19/40,21,210.88
6656,F4,1202.0,19/40,21,210.88
6657,A4,1202.0,19/40,21,210.88
6658,C#5,1202.333,333/1000,89,210.88
6659,C#4,1202.5,19/40,21,210.88
6660,F4,1202.5,19/40,21,210.88
6661,A4,1202.5,19/40,21,210.88
6662,C#6,1202.667,0.25,82,210.88
6663,G5,1202.667,0.25,82,210.88
6664,A5,1202.667,0.25,82,210.88
6665,D5,1203.0,0.5,92,210.88
6666,F5,1203.0,0.5,92,210.88
6667,A5,1203.0,0.5,92,210.88
6668,D6,1203.0,0.5,92,210.88
6669,C#4,1203.0,19/40,21,210.88
6670,F4,1203.0,19/40,21,210.88
6671,A4,1203.0,19/40,21,210.88
6672,C#4,1203.5,19/40,21,210.88
6673,F4,1203.5,19/40,21,210.88
6674,A4,1203.5,19/40,21,210.88
6675,F4,1204.0,19/40,24,210.88
6676,D4,1204.0,19/40,24,210.88
6677,A4,1204.0,19/40,24,210.88
6678,F4,1204.5,19/40,21,210.88
6679,D4,1204.5,19/40,21,210.88
6680,A4,1204.5,19/40,21,210.88
6681,F4,1205.0,19/40,21,210.88
6682,D4,1205.0,19/40,21,210.88
6683,A4,1205.0,19/40,21,210.88
6684,D4,1205.5,19/40,21,210.88
6685,A4,1205.5,19/40,21,210.88
6686,F4,1205.5,19/40,21,210.88
6687,A4,1206.0,19/40,21,210.88
6688,F4,1206.0,19/40,21,210.88
6689,D4,1206.0,19/40,21,210.88
6690,A4,1206.5,19/40,21,210.88
6691,F4,1206.5,19/40,21,210.88
6692,D4,1206.5,19/40,21,210.88
6693,D5,1207.0,2.0,71,210.88
6694,A4,1207.0,19/40,21,210.88
6695,F4,1207.0,19/40,21,210.88
6696,C#4,1207.0,19/40,21,210.88
6697,A4,1207.5,19/40,22,210.88
6698,F4,1207.5,19/40,22,210.88
6699,C#4,1207.5,19/40,22,210.88
6700,C4,1208.0,19/40,28,210.88
6701,F4,1208.0,19/40,28,210.88
6702,A4,1208.0,19/40,28,210.88
6703,C4,1208.5,19/40,28,210.88
6704,F4,1208.5,19/40,28,210.88
6705,A4,1208.5,19/40,28,210.88
6706,F5,1209.0,0.5,61,210.88
6707,C4,1209.0,19/40,27,210.88
6708,F4,1209.0,19/40,27,210.88
6709,A4,1209.0,19/40,27,210.88
6710,C4,1209.5,19/40,27,210.88
6711,F4,1209.5,19/40,27,210.88
6712,A4,1209.5,19/40,27,210.88
6713,A5,1210.0,0.5,61,210.88
6714,C4,1210.0,19/40,26,210.88
6715,F4,1210.0,19/40,26,210.88
6716,A4,1210.0,19/40,26,210.88
6717,C4,1210.5,19/40,26,210.88
6718,F4,1210.5,19/40,26,210.88
6719,A4,1210.5,19/40,26,210.88
6720,A4,1211.0,249/125,71,210.88
6721,C#4,1211.0,19/40,25,210.88
6722,F4,1211.0,19/40,25,210.88
6723,A4,1211.0,19/40,25,210.88
6724,C#4,1211.5,19/40,25,210.88
6725,F4,1211.5,19/40,25,210.88
6726,A4,1211.5,19/40,25,210.88
6727,D4,1212.0,19/40,29,210.88
6728,F4,1212.0,19/40,29,210.88
6729,A4,1212.0,19/40,29,210.88
6730,D4,1212.5,19/40,29,210.88
6731,F4,1212.5,19/40,29,210.88
6732,A4,1212.5,19/40,29,210.88
6733,F5,1213.0,0.5,59,210.88
6734,F4,1213.0,19/40,28,210.88
6735,A4,1213.0,19/40,28,210.88
6736,F4,1213.5,19/40,28,210.88
6737,A4,1213.5,19/40,28,210.88
6738,A5,1214.0,0.5,59,210.88
6739,A4,1214.0,19/40,31,210.88
6740,A4,1214.5,19/40,31,210.88
6741,D5,1215.0,2.0,71,210.88
6742,C4,1215.0,19/40,29,210.88
6743,E4,1215.0,19/40,29,210.88
6744,B-4,1215.0,19/40,29,210.88
6745,C4,1215.5,19/40,29,210.88
6746,E4,1215.5,19/40,29,210.88
6747,B-4,1215.5,19/40,29,210.88
6748,F5,1217.0,0.5,60,210.88
6749,A5,1218.0,0.5,60,210.88
6750,C6,1219.0,0.5,66,210.88
6751,A5,1219.5,19/40,57,210.88
6752,A5,1220.0,0.5,60,210.88
6753,D3,1220.0,2.0,56,210.88
6754,G5,1220.5,19/40,55,210.88
6755,G5,1221.0,0.5,58,210.88
6756,F5,1221.5,19/40,54,210.88
6757,F5,1222.0,0.5,56,210.88
6758,F3,1222.0,0.5,48,210.88
6759,E5,1222.5,19/40,52,210.88
6760,E5,1223.0,0.5,55,210.88
6761,A3,1223.0,0.5,48,210.88
6762,F5,1223.5,19/40,51,210.88
6763,F5,1224.0,0.5,56,210.88
6764,A2,1224.0,2.0,56,210.88
6765,D5,1224.5,19/40,52,210.88
6766,D5,1225.0,0.5,55,210.88
6767,C5,1225.5,19/40,50,210.88
6768,D5,1226.0,0.5,55,210.88
6769,F3,1226.0,0.5,47,210.88
6770,C5,1226.5,19/40,51,210.88
6771,A4,1227.0,19/40,52,210.88
6772,A3,1227.0,0.5,47,210.88
6773,A4,1227.5,19/40,26,210.88
6774,F4,1227.5,19/40,26,210.88
6775,D4,1227.5,19/40,26,210.88
6776,D3,1228.0,2.0,56,210.88
6777,A4,1228.0,19/40,27,210.88
6778,F4,1228.0,19/40,27,210.88
6779,D4,1228.0,19/40,27,210.88
6780,A4,1228.5,19/40,27,210.88
6781,F4,1228.5,19/40,27,210.88
6782,D4,1228.5,19/40,27,210.88
6783,A4,1229.0,19/40,26,210.88
6784,F4,1229.0,19/40,26,210.88
6785,D4,1229.0,19/40,26,210.88
6786,A4,1229.5,19/40,26,210.88
6787,F4,1229.5,19/40,26,210.88
6788,D4,1229.5,19/40,26,210.88
6789,F3,1230.0,0.5,48,210.88
6790,A4,1230.0,19/40,24,210.88
6791,F4,1230.0,19/40,24,210.88
6792,D4,1230.0,19/40,24,210.88
6793,A4,1230.5,19/40,24,210.88
6794,F4,1230.5,19/40,24,210.88
6795,D4,1230.5,19/40,24,210.88
6796,A3,1231.0,0.5,48,210.88
6797,D5,1231.0,19/40,27,210.88
6798,A4,1231.0,19/40,27,210.88
6799,F4,1231.0,19/40,27,210.88
6800,D5,1231.5,19/40,27,210.88
6801,A4,1231.5,19/40,27,210.88
6802,F4,1231.5,19/40,27,210.88
6803,C4,1232.0,0.5,52,210.88
6804,D5,1232.0,19/40,27,210.88
6805,A4,1232.0,19/40,27,210.88
6806,F4,1232.0,19/40,27,210.88
6807,A3,1232.5,19/40,45,210.88
6808,D5,1232.5,19/40,27,210.88
6809,A4,1232.5,19/40,27,210.88
6810,F4,1232.5,19/40,27,210.88
6811,A3,1233.0,0.5,48,210.88
6812,D5,1233.0,19/40,27,210.88
6813,A4,1233.0,19/40,27,210.88
6814,F4,1233.0,19/40,27,210.88
6815,G3,1233.5,19/40,44,210.88
6816,D5,1233.5,19/40,27,210.88
6817,A4,1233.5,19/40,27,210.88
6818,F4,1233.5,19/40,27,210.88
6819,G3,1234.0,0.5,46,210.88
6820,D5,1234.0,19/40,27,210.88
6821,A4,1234.0,19/40,27,210.88
6822,F4,1234.0,19/40,27,210.88
6823,F3,1234.5,19/40,43,210.88
6824,D5,1234.5,19/40,27,210.88
6825,A4,1234.5,19/40,27,210.88
6826,F4,1234.5,19/40,27,210.88
6827,F3,1235.0,0.5,44,210.88
6828,F4,1235.0,19/40,27,210.88
6829,A4,1235.0,19/40,27,210.88
6830,C#5,1235.0,19/40,27,210.88
6831,E3,1235.5,19/40,41,210.88
6832,F4,1235.5,19/40,27,210.88
6833,A4,1235.5,19/40,27,210.88
6834,C#5,1235.5,19/40,27,210.88
6835,E3,1236.0,0.5,44,210.88
6836,F4,1236.0,19/40,27,210.88
6837,A4,1236.0,19/40,27,210.88
6838,C#5,1236.0,19/40,27,210.88
6839,F3,1236.5,19/40,40,210.88
6840,F4,1236.5,19/40,27,210.88
6841,A4,1236.5,19/40,27,210.88
6842,C#5,1236.5,19/40,27,210.88
6843,F3,1237.0,0.5,44,210.88
6844,F4,1237.0,19/40,27,210.88
6845,A4,1237.0,19/40,27,210.88
6846,C#5,1237.0,19/40,27,210.88
6847,D3,1237.5,19/40,41,210.88
6848,F4,1237.5,19/40,27,210.88
6849,A4,1237.5,19/40,27,210.88
6850,C#5,1237.5,19/40,27,210.88
6851,D3,1238.0,0.5,44,210.88
6852,F4,1238.0,19/40,27,210.88
6853,A4,1238.0,19/40,27,210.88
6854,C#5,1238.0,19/40,27,210.88
6855,C3,1238.5,19/40,40,210.88
6856,F4,1238.5,19/40,27,210.88
6857,A4,1238.5,19/40,27,210.88
6858,C#5,1238.5,19/40,27,210.88
6859,D3,1239.0,0.5,44,210.88
6860,A4,1239.0,19/40,27,210.88
6861,F4,1239.0,19/40,27,210.88
6862,D5,1239.0,19/40,27,210.88
6863,C3,1239.5,19/40,40,210.88
6864,A4,1239.5,19/40,27,210.88
6865,F4,1239.5,19/40,27,210.88
6866,D5,1239.5,19/40,27,210.88
6867,D3,1240.0,1.0,44,210.88
6868,A4,1240.0,19/40,27,210.88
6869,F4,1240.0,19/40,27,210.88
6870,D5,1240.0,19/40,27,210.88
6871,F4,1240.5,19/40,27,210.88
6872,D5,1240.5,19/40,27,210.88
6873,A4,1240.5,19/40,27,210.88
6874,D5,1241.0,19/40,27,210.88
6875,A4,1241.0,19/40,27,210.88
6876,F4,1241.0,19/40,27,210.88
6877,D5,1241.5,19/40,27,210.88
6878,A4,1241.5,19/40,27,210.88
6879,F4,1241.5,19/40,27,210.88
6880,C#5,1242.0,19/40,27,210.88
6881,A4,1242.0,19/40,27,210.88
6882,F4,1242.0,19/40,27,210.88
6883,C#5,1242.5,19/40,28,210.88
6884,A4,1242.5,19/40,28,210.88
6885,F4,1242.5,19/40,28,210.88
6886,F4,1243.0,19/40,33,210.88
6887,A4,1243.0,19/40,33,210.88
6888,C5,1243.0,19/40,33,210.88
6889,F4,1243.5,19/40,33,210.88
6890,A4,1243.5,19/40,33,210.88
6891,C5,1243.5,19/40,33,210.88
6892,E2,1243.875,0.125,27,210.88
6893,D2,1244.0,0.188,27,210.88
6894,F4,1244.0,19/40,31,210.88
6895,A4,1244.0,19/40,31,210.88
6896,C5,1244.0,19/40,31,210.88
6897,E2,1244.125,0.188,23,210.88
6898,D2,1244.25,0.188,24,210.88
6899,E2,1244.375,0.188,22,210.88
6900,D2,1244.5,0.188,24,210.88
6901,F4,1244.5,19/40,31,210.88
6902,A4,1244.5,19/40,31,210.88
6903,C5,1244.5,19/40,31,210.88
6904,E2,1244.625,0.188,22,210.88
6905,D2,1244.75,0.188,25,210.88
6906,E2,1244.875,0.188,24,210.88
6907,D2,1245.0,0.188,26,210.88
6908,F4,1245.0,19/40,29,210.88
6909,A4,1245.0,19/40,29,210.88
6910,C5,1245.0,19/40,29,210.88
6911,E2,1245.125,0.188,23,210.88
6912,D2,1245.25,0.188,26,210.88
6913,E2,1245.375,0.188,22,210.88
6914,D2,1245.5,0.188,25,210.88
6915,F4,1245.5,19/40,29,210.88
6916,A4,1245.5,19/40,29,210.88
6917,C5,1245.5,19/40,29,210.88
6918,E2,1245.625,0.188,23,210.88
6919,D2,1245.75,0.188,24,210.88
6920,E2,1245.875,0.188,22,210.88
6921,D2,1246.0,0.188,26,210.88
6922,F4,1246.0,19/40,28,210.88
6923,A4,1246.0,19/40,28,210.88
6924,C#5,1246.0,19/40,28,210.88
6925,E2,1246.125,0.188,23,210.88
6926,D2,1246.25,0.188,25,210.88
6927,E2,1246.375,0.188,23,210.88
6928,D2,1246.5,0.188,25,210.88
6929,F4,1246.5,19/40,28,210.88
6930,A4,1246.5,19/40,28,210.88
6931,C#5,1246.5,19/40,28,210.88
6932,E2,1246.625,0.188,22,210.88
6933,D2,1246.75,0.188,25,210.88
6934,E2,1246.875,0.188,22,210.88
6935,D2,1247.0,0.188,27,210.88
6936,F4,1247.0,19/40,36,210.88
6937,A4,1247.0,19/40,36,210.88
6938,D5,1247.0,19/40,36,210.88
6939,E2,1247.125,0.188,23,210.88
6940,D2,1247.25,0.188,26,210.88
6941,E2,1247.375,0.188,22,210.88
6942,C#2,1247.5,26/125,28,210.88
6943,F4,1247.5,19/40,36,210.88
6944,A4,1247.5,19/40,36,210.88
6945,D5,1247.5,19/40,36,210.88
6946,D2,1247.667,26/125,31,210.88
6947,E2,1247.833,167/1000,32,210.88
6948,D2,1248.0,0.25,34,210.88
6949,E2,1248.0,21/500,32,210.88
6950,F5,1248.0,19/40,36,210.88
6951,F4,1248.0,19/40,36,210.88
6952,A4,1248.0,19/40,36,210.88
6953,F5,1248.5,19/40,36,210.88
6954,F4,1248.5,19/40,36,210.88
6955,A4,1248.5,19/40,36,210.88
6956,A5,1249.0,19/40,35,210.88
6957,A4,1249.0,19/40,35,210.88
6958,A5,1249.5,19/40,35,210.88
6959,A4,1249.5,19/40,35,210.88
6960,B-4,1250.0,19/40,36,210.88
6961,E5,1250.0,19/40,36,210.88
6962,B-5,1250.0,19/40,36,210.88
6963,A4,1250.0,19/40,23,210.88
6964,F4,1250.0,19/40,23,210.88
6965,D4,1250.0,19/40,23,210.88
6966,B-4,1250.5,19/40,36,210.88
6967,E5,1250.5,19/40,36,210.88
6968,B-5,1250.5,19/40,36,210.88
6969,A4,1250.5,19/40,23,210.88
6970,F4,1250.5,19/40,23,210.88
6971,D4,1250.5,19/40,23,210.88
6972,A4,1251.0,0.5,34,210.88
6973,F5,1251.0,0.5,34,210.88
6974,A5,1251.0,0.5,34,210.88
6975,A4,1251.0,19/40,20,210.88
6976,F4,1251.0,19/40,20,210.88
6977,D4,1251.0,19/40,20,210.88
6978,A4,1251.5,19/40,23,210.88
6979,F4,1251.5,19/40,23,210.88
6980,D4,1251.5,19/40,23,210.88
6981,A4,1251.5,19/40,20,210.88
6982,F4,1251.5,19/40,20,210.88
6983,D4,1251.5,19/40,20,210.88
6984,A4,1252.0,19/40,23,210.88
6985,F4,1252.0,19/40,23,210.88
6986,D4,1252.0,19/40,23,210.88
6987,A4,1252.0,19/40,20,210.88
6988,F4,1252.0,19/40,20,210.88
6989,D4,1252.0,19/40,20,210.88
6990,A4,1252.5,19/40,23,210.88
6991,F4,1252.5,19/40,23,210.88
6992,D4,1252.5,19/40,23,210.88
6993,A4,1252.5,19/40,20,210.88
6994,F4,1252.5,19/40,20,210.88
6995,D4,1252.5,19/40,20,210.88
6996,A4,1253.0,19/40,23,210.88
6997,F4,1253.0,19/40,23,210.88
6998,D4,1253.0,19/40,23,210.88
6999,A4,1253.0,19/40,20,210.88
7000,F4,1253.0,19/40,20,210.88
7001,D4,1253.0,19/40,20,210.88
7002,A4,1253.5,19/40,23,210.88
7003,F4,1253.5,19/40,23,210.88
7004,D4,1253.5,19/40,23,210.88
7005,A4,1253.5,19/40,20,210.88
7006,F4,1253.5,19/40,20,210.88
7007,D4,1253.5,19/40,20,210.88
7008,A4,1254.0,19/40,23,210.88
7009,F4,1254.0,19/40,23,210.88
7010,D4,1254.0,19/40,23,210.88
7011,A4,1254.0,19/40,20,210.88
7012,F4,1254.0,19/40,20,210.88
7013,D4,1254.0,19/40,20,210.88
7014,A4,1254.5,19/40,23,210.88
7015,F4,1254.5,19/40,23,210.88
7016,D4,1254.5,19/40,23,210.88
7017,A4,1254.5,19/40,20,210.88
7018,F4,1254.5,19/40,20,210.88
7019,D4,1254.5,19/40,20,210.88
7020,D4,1255.0,19/40,23,210.88
7021,F4,1255.0,19/40,23,210.88
7022,A4,1255.0,19/40,23,210.88
7023,A4,1255.0,19/40,20,210.88
7024,F4,1255.0,19/40,20,210.88
7025,D4,1255.0,19/40,20,210.88
7026,A4,1255.5,19/40,23,210.88
7027,F4,1255.5,19/40,23,210.88
7028,D4,1255.5,19/40,23,210.88
7029,A4,1255.5,19/40,20,210.88
7030,F4,1255.5,19/40,20,210.88
7031,D4,1255.5,19/40,20,210.88
7032,A4,1256.0,19/40,23,210.88
7033,F4,1256.0,19/40,23,210.88
7034,D4,1256.0,19/40,23,210.88
7035,A4,1256.0,19/40,20,210.88
7036,F4,1256.0,19/40,20,210.88
7037,D4,1256.0,19/40,20,210.88
7038,A4,1256.5,19/40,23,210.88
7039,F4,1256.5,19/40,23,210.88
7040,D4,1256.5,19/40,23,210.88
7041,A4,1256.5,19/40,20,210.88
7042,F4,1256.5,19/40,20,210.88
7043,D4,1256.5,19/40,20,210.88
7044,A4,1257.0,19/40,23,210.88
7045,F4,1257.0,19/40,23,210.88
7046,D4,1257.0,19/40,23,210.88
7047,A4,1257.0,19/40,21,210.88
7048,F4,1257.0,19/40,21,210.88
7049,C#4,1257.0,19/40,21,210.88
7050,A4,1257.5,19/40,23,210.88
7051,F4,1257.5,19/40,23,210.88
7052,D4,1257.5,19/40,23,210.88
7053,A4,1257.5,19/40,21,210.88
7054,F4,1257.5,19/40,21,210.88
7055,C#4,1257.5,19/40,21,210.88
7056,A4,1258.0,19/40,23,210.88
7057,F4,1258.0,19/40,23,210.88
7058,D4,1258.0,19/40,23,210.88
7059,A4,1258.0,19/40,21,210.88
7060,F4,1258.0,19/40,21,210.88
7061,C4,1258.0,19/40,21,210.88
7062,A4,1258.5,19/40,23,210.88
7063,F4,1258.5,19/40,23,210.88
7064,D4,1258.5,19/40,23,210.88
7065,A4,1258.5,19/40,21,210.88
7066,F4,1258.5,19/40,21,210.88
7067,C4,1258.5,19/40,21,210.88
7068,A4,1259.0,19/40,23,210.88
7069,F4,1259.0,19/40,23,210.88
7070,D4,1259.0,19/40,23,210.88
7071,A4,1259.0,19/40,24,210.88
7072,F4,1259.0,19/40,24,210.88
7073,B3,1259.0,19/40,24,210.88
7074,A4,1259.5,19/40,23,210.88
7075,F4,1259.5,19/40,23,210.88
7076,D4,1259.5,19/40,23,210.88
7077,A4,1259.5,19/40,24,210.88
7078,F4,1259.5,19/40,24,210.88
7079,B3,1259.5,19/40,24,210.88
7080,A4,1260.0,19/40,23,210.88
7081,F4,1260.0,19/40,23,210.88
7082,D4,1260.0,19/40,23,210.88
7083,B-3,1260.0,19/40,24,210.88
7084,F4,1260.0,19/40,24,210.88
7085,G4,1260.0,19/40,24,210.88
7086,A4,1260.5,19/40,23,210.88
7087,F4,1260.5,19/40,23,210.88
7088,D4,1260.5,19/40,23,210.88
7089,B-3,1260.5,19/40,24,210.88
7090,F4,1260.5,19/40,24,210.88
7091,G4,1260.5,19/40,24,210.88
7092,B-3,1261.0,19/40,24,210.88
7093,D4,1261.0,19/40,24,210.88
7094,G4,1261.0,19/40,24,210.88
7095,B-3,1261.5,19/40,24,210.88
7096,D4,1261.5,19/40,24,210.88
7097,G4,1261.5,19/40,24,210.88
7098,F5,1262.0,1.0,50,210.88
7099,B-3,1262.0,19/40,24,210.88
7100,E4,1262.0,19/40,24,210.88
7101,G4,1262.0,19/40,24,210.88
7102,B-3,1262.5,19/40,24,210.88
7103,E4,1262.5,19/40,24,210.88
7104,G4,1262.5,19/40,24,210.88
7105,F5,1263.0,1.0,54,210.88
7106,A3,1263.0,19/40,24,210.88
7107,C#4,1263.0,19/40,24,210.88
7108,G4,1263.0,19/40,24,210.88
7109,A3,1263.5,19/40,24,210.88
7110,C#4,1263.5,19/40,24,210.88
7111,G4,1263.5,19/40,24,210.88
7112,E5,1264.0,1.0,52,210.88
7113,D4,1264.0,19/40,26,210.88
7114,F4,1264.0,19/40,26,210.88
7115,D4,1264.5,19/40,26,210.88
7116,F4,1264.5,19/40,26,210.88
7117,F5,1265.0,1.0,54,210.88
7118,D4,1265.0,19/40,26,210.88
7119,F4,1265.0,19/40,26,210.88
7120,D4,1265.5,19/40,26,210.88
7121,F4,1265.5,19/40,26,210.88
7122,G5,1266.0,1.0,51,210.88
7123,A5,1267.0,3.0,54,210.88
7124,E2,1267.875,0.125,27,210.88
7125,D2,1268.0,0.188,27,210.88
7126,E2,1268.125,0.188,23,210.88
7127,D2,1268.25,0.188,24,210.88
7128,E2,1268.375,0.188,22,210.88
7129,D2,1268.5,0.188,24,210.88
7130,E2,1268.625,0.188,22,210.88
7131,D2,1268.75,0.188,25,210.88
7132,E2,1268.875,0.188,24,210.88
7133,D2,1269.0,0.188,26,210.88
7134,E2,1269.125,0.188,23,210.88
7135,D2,1269.25,0.188,26,210.88
7136,E2,1269.375,0.188,22,210.88
7137,D2,1269.5,0.188,25,210.88
7138,E2,1269.625,0.188,23,210.88
7139,D2,1269.75,0.188,24,210.88
7140,E2,1269.875,0.188,22,210.88
7141,G5,1270.0,0.5,54,210.88
7142,D2,1270.0,0.188,26,210.88
7143,E2,1270.125,0.188,23,210.88
7144,D2,1270.25,0.188,25,210.88
7145,E2,1270.375,0.188,23,210.88
7146,F5,1270.5,0.5,54,210.88
7147,D2,1270.5,0.188,25,210.88
7148,E2,1270.625,0.188,22,210.88
7149,D2,1270.75,0.188,25,210.88
7150,E2,1270.875,0.188,22,210.88
7151,G5,1271.0,1.0,54,210.88
7152,D2,1271.0,0.188,27,210.88
7153,E2,1271.125,0.188,23,210.88
7154,D2,1271.25,0.188,26,210.88
7155,E2,1271.375,0.188,22,210.88
7156,D2,1271.5,0.188,26,210.88
7157,E2,1271.625,0.188,22,210.88
7158,C2,1271.75,0.25,28,210.88
7159,G5,1272.0,1.0,54,210.88
7160,B-1,1272.0,0.25,34,210.88
7161,G5,1273.0,1.0,54,210.88
7162,F5,1274.0,0.5,54,210.88
7163,B-4,1274.0,19/40,20,210.88
7164,F4,1274.0,19/40,20,210.88
7165,D4,1274.0,19/40,20,210.88
7166,E5,1274.5,0.5,54,210.88
7167,B-4,1274.5,19/40,20,210.88
7168,F4,1274.5,19/40,20,210.88
7169,D4,1274.5,19/40,20,210.88
7170,F5,1275.0,1.0,54,210.88
7171,B-4,1275.0,19/40,18,210.88
7172,F4,1275.0,19/40,18,210.88
7173,D4,1275.0,19/40,18,210.88
7174,B-4,1275.5,19/40,18,210.88
7175,F4,1275.5,19/40,18,210.88
7176,D4,1275.5,19/40,18,210.88
7177,B-4,1276.0,19/40,18,210.88
7178,F4,1276.0,19/40,18,210.88
7179,D4,1276.0,19/40,18,210.88
7180,B-4,1276.5,19/40,18,210.88
7181,F4,1276.5,19/40,18,210.88
7182,D4,1276.5,19/40,18,210.88
7183,A4,1277.0,19/40,23,210.88
7184,F4,1277.0,19/40,23,210.88
7185,D4,1277.0,19/40,23,210.88
7186,C5,1277.0,19/40,18,210.88
7187,F4,1277.0,19/40,18,210.88
7188,D4,1277.0,19/40,18,210.88
7189,A4,1277.5,19/40,23,210.88
7190,F4,1277.5,19/40,23,210.88
7191,D4,1277.5,19/40,23,210.88
7192,C5,1277.5,19/40,18,210.88
7193,F4,1277.5,19/40,18,210.88
7194,D4,1277.5,19/40,18,210.88
7195,A4,1278.0,19/40,23,210.88
7196,F4,1278.0,19/40,23,210.88
7197,D4,1278.0,19/40,23,210.88
7198,D5,1278.0,19/40,18,210.88
7199,F4,1278.0,19/40,18,210.88
7200,D4,1278.0,19/40,18,210.88
7201,A4,1278.5,19/40,23,210.88
7202,F4,1278.5,19/40,23,210.88
7203,D4,1278.5,19/40,23,210.88
7204,D5,1278.5,19/40,18,210.88
7205,F4,1278.5,19/40,18,210.88
7206,D4,1278.5,19/40,18,210.88
7207,D4,1279.0,19/40,23,210.88
7208,F4,1279.0,19/40,23,210.88
7209,A4,1279.0,19/40,23,210.88
7210,A4,1279.0,19/40,18,210.88
7211,F4,1279.0,19/40,18,210.88
7212,D4,1279.0,19/40,18,210.88
7213,A4,1279.5,19/40,23,210.88
7214,F4,1279.5,19/40,23,210.88
7215,D4,1279.5,19/40,23,210.88
7216,A4,1279.5,19/40,18,210.88
7217,F4,1279.5,19/40,18,210.88
7218,D4,1279.5,19/40,18,210.88
7219,A4,1280.0,19/40,23,210.88
7220,F4,1280.0,19/40,23,210.88
7221,D4,1280.0,19/40,23,210.88
7222,B-4,1280.0,19/40,18,210.88
7223,F4,1280.0,19/40,18,210.88
7224,D4,1280.0,19/40,18,210.88
7225,A4,1280.5,19/40,23,210.88
7226,F4,1280.5,19/40,23,210.88
7227,D4,1280.5,19/40,23,210.88
7228,B-4,1280.5,19/40,18,210.88
7229,F4,1280.5,19/40,18,210.88
7230,D4,1280.5,19/40,18,210.88
7231,A4,1281.0,19/40,23,210.88
7232,F4,1281.0,19/40,23,210.88
7233,D4,1281.0,19/40,23,210.88
7234,B-4,1281.0,19/40,18,210.88
7235,F4,1281.0,19/40,18,210.88
7236,D4,1281.0,19/40,18,210.88
7237,A4,1281.5,19/40,23,210.88
7238,F4,1281.5,19/40,23,210.88
7239,D4,1281.5,19/40,23,210.88
7240,B-4,1281.5,19/40,18,210.88
7241,F4,1281.5,19/40,18,210.88
7242,D4,1281.5,19/40,18,210.88
7243,A4,1282.0,19/40,23,210.88
7244,F4,1282.0,19/40,23,210.88
7245,D4,1282.0,19/40,23,210.88
7246,B-4,1282.0,19/40,18,210.88
7247,F4,1282.0,19/40,18,210.88
7248,D4,1282.0,19/40,18,210.88
7249,A4,1282.5,19/40,23,210.88
7250,F4,1282.5,19/40,23,210.88
7251,D4,1282.5,19/40,23,210.88
7252,B-4,1282.5,19/40,18,210.88
7253,F4,1282.5,19/40,18,210.88
7254,D4,1282.5,19/40,18,210.88
7255,B-4,1283.0,19/40,23,210.88
7256,F4,1283.0,19/40,23,210.88
7257,D4,1283.0,19/40,23,210.88
7258,B-4,1283.0,19/40,18,210.88
7259,F4,1283.0,19/40,18,210.88
7260,D4,1283.0,19/40,18,210.88
7261,B-4,1283.5,19/40,23,210.88
7262,F4,1283.5,19/40,23,210.88
7263,D4,1283.5,19/40,23,210.88
7264,B-4,1283.5,19/40,18,210.88
7265,F4,1283.5,19/40,18,210.88
7266,D4,1283.5,19/40,18,210.88
7267,B-4,1284.0,19/40,23,210.88
7268,F4,1284.0,19/40,23,210.88
7269,D4,1284.0,19/40,23,210.88
7270,E-4,1284.0,19/40,18,210.88
7271,F#4,1284.0,19/40,18,210.88
7272,B-4,1284.0,19/40,18,210.88
7273,B-4,1284.5,19/40,23,210.88
7274,F4,1284.5,19/40,23,210.88
7275,D4,1284.5,19/40,23,210.88
7276,E-4,1284.5,19/40,18,210.88
7277,F#4,1284.5,19/40,18,210.88
7278,B-4,1284.5,19/40,18,210.88
7279,E-4,1285.0,19/40,18,210.88
7280,F#4,1285.0,19/40,18,210.88
7281,B-4,1285.0,19/40,18,210.88
7282,E-4,1285.5,19/40,18,210.88
7283,F#4,1285.5,19/40,18,210.88
7284,B-4,1285.5,19/40,18,210.88
7285,B-5,1286.0,1.0,52,210.88
7286,E-4,1286.0,19/40,18,210.88
7287,F#4,1286.0,19/40,18,210.88
7288,B-4,1286.0,19/40,18,210.88
7289,E-4,1286.5,19/40,18,210.88
7290,F#4,1286.5,19/40,18,210.88
7291,B-4,1286.5,19/40,18,210.88
7292,B-5,1287.0,1.0,56,210.88
7293,E-4,1287.0,19/40,18,210.88
7294,F#4,1287.0,19/40,18,210.88
7295,B-4,1287.0,19/40,18,210.88
7296,E-4,1287.5,19/40,18,210.88
7297,F#4,1287.5,19/40,18,210.88
7298,B-4,1287.5,19/40,18,210.88
7299,A5,1288.0,1.0,54,210.88
7300,F4,1288.0,19/40,18,210.88
7301,D4,1288.0,19/40,18,210.88
7302,B-4,1288.0,19/40,18,210.88
7303,F4,1288.5,19/40,18,210.88
7304,D4,1288.5,19/40,18,210.88
7305,B-4,1288.5,19/40,18,210.88
7306,B-5,1289.0,1.0,56,210.88
7307,F4,1289.0,19/40,18,210.88
7308,D4,1289.0,19/40,18,210.88
7309,B-4,1289.0,19/40,18,210.88
7310,F4,1289.5,19/40,18,210.88
7311,D4,1289.5,19/40,18,210.88
7312,B-4,1289.5,19/40,18,210.88
7313,C6,1290.0,1.0,53,210.88
7314,D6,1291.0,3.0,60,210.88
7315,C2,1291.875,0.125,27,210.88
7316,B-1,1292.0,0.188,27,210.88
7317,C2,1292.125,0.188,23,210.88
7318,B-1,1292.25,0.188,24,210.88
7319,C2,1292.375,0.188,22,210.88
7320,B-1,1292.5,0.188,24,210.88
7321,C2,1292.625,0.188,22,210.88
7322,B-1,1292.75,0.188,26,210.88
7323,C2,1292.875,0.188,25,210.88
7324,B-1,1293.0,0.188,27,210.88
7325,C2,1293.125,0.188,24,210.88
7326,B-1,1293.25,0.188,28,210.88
7327,C2,1293.375,0.188,23,210.88
7328,B-1,1293.5,0.188,27,210.88
7329,C2,1293.625,0.188,25,210.88
7330,B-1,1293.75,0.188,26,210.88
7331,C2,1293.875,0.188,24,210.88
7332,C6,1294.0,0.5,56,210.88
7333,B-1,1294.0,0.188,29,210.88
7334,C2,1294.125,0.188,26,210.88
7335,B-1,1294.25,0.188,28,210.88
7336,C2,1294.375,0.188,26,210.88
7337,B-5,1294.5,0.5,56,210.88
7338,B-1,1294.5,0.188,29,210.88
7339,C2,1294.625,0.188,25,210.88
7340,B-1,1294.75,0.188,29,210.88
7341,C2,1294.875,0.188,26,210.88
7342,C6,1295.0,1.0,56,210.88
7343,B-1,1295.0,0.188,32,210.88
7344,C2,1295.125,0.188,27,210.88
7345,B-1,1295.25,0.188,31,210.88
7346,C2,1295.375,0.188,26,210.88
7347,A1,1295.5,26/125,34,210.88
7348,B-1,1295.667,26/125,38,210.88
7349,C2,1295.833,167/1000,40,210.88
7350,C6,1296.0,1.0,56,210.88
7351,D2,1296.0,0.25,42,210.88
7352,C2,1296.0,21/500,40,210.88
7353,C6,1297.0,1.0,56,210.88
7354,B-5,1298.0,0.5,56,210.88
7355,A4,1298.0,19/40,23,210.88
7356,F4,1298.0,19/40,23,210.88
7357,D4,1298.0,19/40,23,210.88
7358,A5,1298.5,0.5,56,210.88
7359,A4,1298.5,19/40,23,210.88
7360,F4,1298.5,19/40,23,210.88
7361,D4,1298.5,19/40,23,210.88
7362,B-5,1299.0,1.0,56,210.88
7363,A4,1299.0,19/40,20,210.88
7364,F4,1299.0,19/40,20,210.88
7365,D4,1299.0,19/40,20,210.88
7366,A4,1299.5,19/40,20,210.88
7367,F4,1299.5,19/40,20,210.88
7368,D4,1299.5,19/40,20,210.88
7369,A4,1300.0,19/40,20,210.88
7370,F4,1300.0,19/40,20,210.88
7371,D4,1300.0,19/40,20,210.88
7372,A4,1300.5,19/40,20,210.88
7373,F4,1300.5,19/40,20,210.88
7374,D4,1300.5,19/40,20,210.88
7375,B-4,1301.0,19/40,20,210.88
7376,F4,1301.0,19/40,20,210.88
7377,D4,1301.0,19/40,20,210.88
7378,A4,1301.0,19/40,20,210.88
7379,F4,1301.0,19/40,20,210.88
7380,D4,1301.0,19/40,20,210.88
7381,B-4,1301.5,19/40,20,210.88
7382,F4,1301.5,19/40,20,210.88
7383,D4,1301.5,19/40,20,210.88
7384,A4,1301.5,19/40,20,210.88
7385,F4,1301.5,19/40,20,210.88
7386,D4,1301.5,19/40,20,210.88
7387,B-4,1302.0,19/40,20,210.88
7388,F4,1302.0,19/40,20,210.88
7389,D4,1302.0,19/40,20,210.88
7390,A4,1302.0,19/40,20,210.88
7391,F4,1302.0,19/40,20,210.88
7392,D4,1302.0,19/40,20,210.88
7393,B-4,1302.5,19/40,20,210.88
7394,F4,1302.5,19/40,20,210.88
7395,D4,1302.5,19/40,20,210.88
7396,A4,1302.5,19/40,20,210.88
7397,F4,1302.5,19/40,20,210.88
7398,D4,1302.5,19/40,20,210.88
7399,D4,1303.0,19/40,23,210.88
7400,F4,1303.0,19/40,23,210.88
7401,B-4,1303.0,19/40,23,210.88
7402,A4,1303.0,19/40,20,210.88
7403,F4,1303.0,19/40,20,210.88
7404,D4,1303.0,19/40,20,210.88
7405,B-4,1303.5,19/40,23,210.88
7406,F4,1303.5,19/40,23,210.88
7407,D4,1303.5,19/40,23,210.88
7408,A4,1303.5,19/40,20,210.88
7409,F4,1303.5,19/40,20,210.88
7410,D4,1303.5,19/40,20,210.88
7411,B-4,1304.0,19/40,24,210.88
7412,F4,1304.0,19/40,24,210.88
7413,D4,1304.0,19/40,24,210.88
7414,A4,1304.0,19/40,20,210.88
7415,F4,1304.0,19/40,20,210.88
7416,D4,1304.0,19/40,20,210.88
7417,B-4,1304.5,19/40,25,210.88
7418,F4,1304.5,19/40,25,210.88
7419,D4,1304.5,19/40,25,210.88
7420,A4,1304.5,19/40,20,210.88
7421,F4,1304.5,19/40,20,210.88
7422,D4,1304.5,19/40,20,210.88
7423,B-4,1305.0,19/40,25,210.88
7424,F4,1305.0,19/40,25,210.88
7425,D4,1305.0,19/40,25,210.88
7426,A4,1305.0,19/40,21,210.88
7427,F4,1305.0,19/40,21,210.88
7428,C#4,1305.0,19/40,21,210.88
7429,B-4,1305.5,19/40,26,210.88
7430,F4,1305.5,19/40,26,210.88
7431,D4,1305.5,19/40,26,210.88
7432,A4,1305.5,19/40,21,210.88
7433,F4,1305.5,19/40,21,210.88
7434,C#4,1305.5,19/40,21,210.88
7435,B-4,1306.0,19/40,27,210.88
7436,F4,1306.0,19/40,27,210.88
7437,D4,1306.0,19/40,27,210.88
7438,A4,1306.0,19/40,21,210.88
7439,F4,1306.0,19/40,21,210.88
7440,C4,1306.0,19/40,21,210.88
7441,B-4,1306.5,19/40,28,210.88
7442,F4,1306.5,19/40,28,210.88
7443,D4,1306.5,19/40,28,210.88
7444,A4,1306.5,19/40,21,210.88
7445,F4,1306.5,19/40,21,210.88
7446,C4,1306.5,19/40,21,210.88
7447,A4,1307.0,19/40,28,210.88
7448,F4,1307.0,19/40,28,210.88
7449,D4,1307.0,19/40,28,210.88
7450,A4,1307.0,19/40,21,210.88
7451,F4,1307.0,19/40,21,210.88
7452,B3,1307.0,19/40,21,210.88
7453,A4,1307.5,19/40,23,210.88
7454,F4,1307.5,19/40,23,210.88
7455,D4,1307.5,19/40,23,210.88
7456,A4,1307.5,19/40,21,210.88
7457,F4,1307.5,19/40,21,210.88
7458,B3,1307.5,19/40,21,210.88
7459,A4,1308.0,19/40,23,210.88
7460,F4,1308.0,19/40,23,210.88
7461,D4,1308.0,19/40,23,210.88
7462,B-3,1308.0,19/40,21,210.88
7463,F4,1308.0,19/40,21,210.88
7464,G4,1308.0,19/40,21,210.88
7465,A4,1308.5,19/40,23,210.88
7466,F4,1308.5,19/40,23,210.88
7467,D4,1308.5,19/40,23,210.88
7468,B-3,1308.5,19/40,21,210.88
7469,F4,1308.5,19/40,21,210.88
7470,G4,1308.5,19/40,21,210.88
7471,B-3,1309.0,19/40,21,210.88
7472,D4,1309.0,19/40,21,210.88
7473,G4,1309.0,19/40,21,210.88
7474,B-3,1309.5,19/40,21,210.88
7475,D4,1309.5,19/40,21,210.88
7476,G4,1309.5,19/40,21,210.88
7477,F5,1310.0,1.0,50,210.88
7478,B-3,1310.0,19/40,21,210.88
7479,E4,1310.0,19/40,21,210.88
7480,G4,1310.0,19/40,21,210.88
7481,B-3,1310.5,19/40,21,210.88
7482,E4,1310.5,19/40,21,210.88
7483,G4,1310.5,19/40,21,210.88
7484,F5,1311.0,1.0,54,210.88
7485,B-3,1311.0,19/40,21,210.88
7486,C4,1311.0,19/40,21,210.88
7487,G4,1311.0,19/40,21,210.88
7488,B-3,1311.5,19/40,21,210.88
7489,C4,1311.5,19/40,21,210.88
7490,G4,1311.5,19/40,21,210.88
7491,E5,1312.0,1.0,52,210.88
7492,A3,1312.0,19/40,31,210.88
7493,C4,1312.0,19/40,31,210.88
7494,E-4,1312.0,19/40,31,210.88
7495,F4,1312.0,19/40,31,210.88
7496,A3,1312.5,19/40,24,210.88
7497,C4,1312.5,19/40,24,210.88
7498,E-4,1312.5,19/40,24,210.88
7499,F4,1312.5,19/40,24,210.88
7500,F5,1313.0,1.0,54,210.88
7501,A3,1313.0,19/40,24,210.88
7502,C4,1313.0,19/40,24,210.88
7503,E-4,1313.0,19/40,24,210.88
7504,F4,1313.0,19/40,24,210.88
7505,A3,1313.5,19/40,24,210.88
7506,C4,1313.5,19/40,24,210.88
7507,E-4,1313.5,19/40,24,210.88
7508,F4,1313.5,19/40,24,210.88
7509,G5,1314.0,1.0,51,210.88
7510,A3,1314.0,19/40,24,210.88
7511,C4,1314.0,19/40,24,210.88
7512,E-4,1314.0,19/40,24,210.88
7513,F4,1314.0,19/40,24,210.88
7514,A3,1314.5,19/40,24,210.88
7515,C4,1314.5,19/40,24,210.88
7516,E-4,1314.5,19/40,24,210.88
7517,F4,1314.5,19/40,24,210.88
7518,A5,1315.0,3.0,54,210.88
7519,A3,1315.0,19/40,24,210.88
7520,C4,1315.0,19/40,24,210.88
7521,E-4,1315.0,19/40,24,210.88
7522,F4,1315.0,19/40,24,210.88
7523,A3,1315.5,19/40,24,210.88
7524,C4,1315.5,19/40,24,210.88
7525,E-4,1315.5,19/40,24,210.88
7526,F4,1315.5,19/40,24,210.88
7527,A3,1316.0,19/20,26,210.88
7528,C4,1316.0,19/20,26,210.88
7529,E-4,1316.0,19/20,26,210.88
7530,F4,1316.0,19/20,26,210.88
7531,G5,1318.0,0.5,54,210.88
7532,F5,1318.5,0.5,53,210.88
7533,G5,1319.0,1.0,54,210.88
7534,G5,1320.0,1.0,54,210.88
7535,G5,1321.0,1.0,54,210.88
7536,F5,1322.0,0.5,54,210.88
7537,E5,1322.5,0.5,50,210.88
7538,F5,1323.0,4.0,66,210.88
7539,A3,1324.0,19/40,28,210.88
7540,C4,1324.0,19/40,28,210.88
7541,E-4,1324.0,19/40,28,210.88
7542,F#4,1324.0,19/40,28,210.88
7543,A3,1324.5,19/40,21,210.88
7544,C4,1324.5,19/40,21,210.88
7545,E-4,1324.5,19/40,21,210.88
7546,F#4,1324.5,19/40,21,210.88
7547,A3,1325.0,19/40,21,210.88
7548,C4,1325.0,19/40,21,210.88
7549,E-4,1325.0,19/40,21,210.88
7550,F#4,1325.0,19/40,21,210.88
7551,A3,1325.5,19/40,21,210.88
7552,C4,1325.5,19/40,21,210.88
7553,E-4,1325.5,19/40,21,210.88
7554,F#4,1325.5,19/40,21,210.88
7555,A3,1326.0,19/40,21,210.88
7556,C4,1326.0,19/40,21,210.88
7557,E-4,1326.0,19/40,21,210.88
7558,F#4,1326.0,19/40,21,210.88
7559,A3,1326.5,19/40,21,210.88
7560,C4,1326.5,19/40,21,210.88
7561,E-4,1326.5,19/40,21,210.88
7562,F#4,1326.5,19/40,21,210.88
7563,F5,1327.0,0.5,66,210.88
7564,A3,1327.0,19/40,21,210.88
7565,C4,1327.0,19/40,21,210.88
7566,E-4,1327.0,19/40,21,210.88
7567,F#4,1327.0,19/40,21,210.88
7568,A5,1327.5,0.5,50,210.88
7569,A3,1327.5,19/40,21,210.88
7570,C4,1327.5,19/40,21,210.88
7571,E-4,1327.5,19/40,21,210.88
7572,F#4,1327.5,19/40,21,210.88
7573,G5,1328.0,0.5,50,210.88
7574,A3,1328.0,19/20,24,210.88
7575,C4,1328.0,19/20,24,210.88
7576,E-4,1328.0,19/20,24,210.88
7577,F#4,1328.0,19/20,24,210.88
7578,F5,1328.5,0.5,48,210.88
7579,C6,1329.0,0.5,54,210.88
7580,B-5,1329.5,0.5,50,210.88
7581,A5,1330.0,0.5,50,210.88
7582,E-6,1330.5,0.5,54,210.88
7583,D6,1331.0,0.5,54,210.88
7584,C6,1331.5,0.5,50,210.88
7585,G6,1332.0,0.5,54,210.88
7586,A3,1332.0,19/40,21,210.88
7587,C4,1332.0,19/40,21,210.88
7588,E-4,1332.0,19/40,21,210.88
7589,F4,1332.0,19/40,21,210.88
7590,F6,1332.5,0.5,52,210.88
7591,A3,1332.5,19/40,22,210.88
7592,C4,1332.5,19/40,22,210.88
7593,E-4,1332.5,19/40,22,210.88
7594,F4,1332.5,19/40,22,210.88
7595,E-6,1333.0,0.5,52,210.88
7596,A3,1333.0,19/40,23,210.88
7597,C4,1333.0,19/40,23,210.88
7598,E-4,1333.0,19/40,23,210.88
7599,F4,1333.0,19/40,23,210.88
7600,D6,1333.5,0.5,51,210.88
7601,A3,1333.5,19/40,23,210.88
7602,C4,1333.5,19/40,23,210.88
7603,E-4,1333.5,19/40,23,210.88
7604,F4,1333.5,19/40,23,210.88
7605,C6,1334.0,0.5,54,210.88
7606,A3,1334.0,19/40,23,210.88
7607,C4,1334.0,19/40,23,210.88
7608,E-4,1334.0,19/40,23,210.88
7609,F4,1334.0,19/40,23,210.88
7610,D6,1334.5,0.5,57,210.88
7611,A3,1334.5,19/40,23,210.88
7612,C4,1334.5,19/40,23,210.88
7613,E-4,1334.5,19/40,23,210.88
7614,F4,1334.5,19/40,23,210.88
7615,E-6,1335.0,4.0,66,210.88
7616,A3,1335.0,19/40,23,210.88
7617,C4,1335.0,19/40,23,210.88
7618,E-4,1335.0,19/40,23,210.88
7619,F4,1335.0,19/40,23,210.88
7620,A3,1335.5,19/40,23,210.88
7621,C4,1335.5,19/40,23,210.88
7622,E-4,1335.5,19/40,23,210.88
7623,F4,1335.5,19/40,23,210.88
7624,A3,1336.0,1.0,24,210.88
7625,C4,1336.0,1.0,24,210.88
7626,E-4,1336.0,1.0,24,210.88
7627,F4,1336.0,1.0,24,210.88
7628,E-6,1339.0,0.5,66,210.88
7629,C6,1339.5,0.5,53,210.88
7630,F#6,1340.0,0.5,58,210.88
7631,F6,1340.5,0.5,54,210.88
7632,E-6,1341.0,0.5,56,210.88
7633,D6,1341.5,0.5,51,210.88
7634,C6,1342.0,0.5,51,210.88
7635,D6,1342.5,0.5,51,210.88
7636,E-6,1343.0,4.0,53,210.88
7637,B3,1346.0,333/1000,33,210.88
7638,B-3,1346.333,333/1000,32,210.88
7639,A3,1346.667,333/1000,31,210.88
7640,E-6,1347.0,0.5,53,210.88
7641,G#3,1347.0,333/1000,30,210.88
7642,G3,1347.333,333/1000,29,210.88
7643,C6,1347.5,0.5,53,210.88
7644,F#3,1347.667,333/1000,27,210.88
7645,G6,1348.0,0.25,56,210.88
7646,G#3,1348.0,0.188,22,210.88
7647,F#3,1348.125,0.188,19,210.88
7648,G#3,1348.25,0.188,20,210.88
7649,F#3,1348.375,0.188,18,210.88
7650,F6,1348.5,0.25,53,210.88
7651,G#3,1348.5,0.188,20,210.88
7652,F#3,1348.625,0.188,18,210.88
7653,G#3,1348.75,0.188,21,210.88
7654,F#3,1348.875,0.188,20,210.88
7655,E-6,1349.0,0.25,53,210.88
7656,G#3,1349.0,0.188,22,210.88
7657,F#3,1349.125,0.188,19,210.88
7658,G#3,1349.25,0.188,22,210.88
7659,F#3,1349.375,0.188,18,210.88
7660,D6,1349.5,0.25,51,210.88
7661,G#3,1349.5,0.188,21,210.88
7662,F#3,1349.625,0.188,19,210.88
7663,G#3,1349.75,0.188,20,210.88
7664,F#3,1349.875,0.188,18,210.88
7665,C6,1350.0,0.25,53,210.88
7666,G#3,1350.0,0.188,22,210.88
7667,F#3,1350.125,0.188,19,210.88
7668,G#3,1350.25,0.188,21,210.88
7669,F#3,1350.375,0.188,19,210.88
7670,B-5,1350.5,0.25,52,210.88
7671,G#3,1350.5,0.188,21,210.88
7672,F#3,1350.625,0.188,18,210.88
7673,G#3,1350.75,0.188,21,210.88
7674,F#3,1350.875,0.188,18,210.88
7675,A5,1351.0,0.25,53,210.88
7676,G#3,1351.0,0.188,22,210.88
7677,F#3,1351.125,0.188,19,210.88
7678,G#3,1351.25,0.188,22,210.88
7679,F#3,1351.375,0.188,18,210.88
7680,G5,1351.5,0.25,49,210.88
7681,F3,1351.5,73/250,20,210.88
7682,F#3,1351.75,0.25,23,210.88
7683,F5,1352.0,0.25,53,210.88
7684,F3,1352.0,0.25,25,210.88
7685,F#3,1352.0,21/500,23,210.88
7686,E5,1352.5,0.25,49,210.88
7687,E-5,1353.0,333/1000,44,210.88
7688,D5,1353.333,333/1000,44,210.88
7689,C5,1353.667,333/1000,43,210.88
7690,B-4,1354.0,333/1000,42,210.88
7691,A4,1354.333,333/1000,42,210.88
7692,G4,1354.667,333/1000,41,210.88
7693,F4,1355.0,333/1000,40,210.88
7694,E4,1355.333,333/1000,40,210.88
7695,F1,1355.5,26/125,27,210.88
7696,E-4,1355.667,333/1000,39,210.88
7697,F#1,1355.667,26/125,22,210.88
7698,G#1,1355.833,167/1000,22,210.88
7699,D4,1356.0,333/1000,38,210.88
7700,F#1,1356.0,0.188,27,210.88
7701,G#1,1356.0,21/500,22,210.88
7702,G#1,1356.125,0.188,23,210.88
7703,F#1,1356.25,0.188,24,210.88
7704,C#4,1356.333,333/1000,38,210.88
7705,G#1,1356.375,0.188,22,210.88
7706,F#1,1356.5,0.188,24,210.88
7707,G#1,1356.625,0.188,22,210.88
7708,C4,1356.667,333/1000,37,210.88
7709,F#1,1356.75,0.188,25,210.88
7710,G#1,1356.875,0.188,24,210.88
7711,F#1,1357.0,0.188,26,210.88
7712,G#1,1357.125,0.188,23,210.88
7713,F#1,1357.25,0.188,26,210.88
7714,G#1,1357.375,0.188,22,210.88
7715,F#1,1357.5,0.188,25,210.88
7716,G#1,1357.625,0.188,23,210.88
7717,F#1,1357.75,0.188,24,210.88
7718,G#1,1357.875,0.188,22,210.88
7719,F#1,1358.0,0.188,26,210.88
7720,G#1,1358.125,0.188,23,210.88
7721,F#1,1358.25,0.188,25,210.88
7722,G#1,1358.375,0.188,23,210.88
7723,F#1,1358.5,0.188,25,210.88
7724,G#1,1358.625,0.188,22,210.88
7725,F#1,1358.75,0.188,25,210.88
7726,G#1,1358.875,0.188,22,210.88
7727,F#1,1359.0,0.188,27,210.88
7728,G#1,1359.125,0.188,23,210.88
7729,F#1,1359.25,0.188,26,210.88
7730,G#1,1359.375,0.188,22,210.88
7731,F1,1359.5,73/250,22,210.88
7732,F#1,1359.75,0.25,18,210.88
7733,F1,1360.0,0.25,23,210.88
7734,F#1,1360.0,21/500,18,210.88
7735,B-2,1363.0,1.0,24,210.88
7736,D3,1363.0,0.5,29,210.88
7737,F3,1363.5,0.5,25,210.88
7738,B-2,1364.0,1.0,25,210.88
7739,D3,1364.0,0.5,30,210.88
7740,F3,1364.5,0.5,25,210.88
7741,B-2,1365.0,1.0,21,210.88
7742,C3,1365.0,0.5,27,210.88
7743,F3,1365.5,0.5,24,210.88
7744,B-2,1366.0,1.0,25,210.88
7745,D3,1366.0,0.5,30,210.88
7746,F3,1366.5,0.5,24,210.88
7747,B-2,1367.0,1.0,24,210.88
7748,E-3,1367.0,0.5,29,210.88
7749,F3,1367.5,0.5,23,210.88
7750,E3,1368.0,0.5,30,210.88
7751,B-2,1368.0,3.0,25,210.88
7752,F3,1368.5,0.25,23,210.88
7753,F3,1369.0,0.25,23,210.88
7754,F3,1369.5,0.25,23,210.88
7755,F3,1370.0,0.25,23,210.88
7756,F3,1370.5,0.25,23,210.88
7757,B-2,1371.0,1.0,24,210.88
7758,E-3,1371.0,0.5,29,210.88
7759,D3,1371.5,0.5,24,210.88
7760,F2,1372.0,1.0,23,210.88
7761,E-3,1372.0,0.5,27,210.88
7762,F3,1372.5,0.5,22,210.88
7763,F2,1373.0,1.0,23,210.88
7764,E-3,1373.0,0.5,26,210.88
7765,F3,1373.5,0.5,22,210.88
7766,F2,1374.0,1.0,23,210.88
7767,E-3,1374.0,0.5,26,210.88
7768,B-3,1374.0,1.0,37,210.88
7769,F4,1374.0,1.0,37,210.88
7770,B-4,1374.0,1.0,37,210.88
7771,F3,1374.5,0.5,23,210.88
7772,F2,1375.0,1.0,24,210.88
7773,D3,1375.0,0.5,29,210.88
7774,B-3,1375.0,1.0,38,210.88
7775,F4,1375.0,1.0,38,210.88
7776,B-4,1375.0,1.0,38,210.88
7777,C3,1375.5,0.5,22,210.88
7778,B-2,1376.0,3.0,25,210.88
7779,D3,1376.0,0.5,30,210.88
7780,A3,1376.0,1.0,35,210.88
7781,F4,1376.0,1.0,35,210.88
7782,A4,1376.0,1.0,35,210.88
7783,F3,1376.5,0.5,27,210.88
7784,E-3,1377.0,0.5,29,210.88
7785,B-3,1377.0,1.0,38,210.88
7786,F4,1377.0,1.0,38,210.88
7787,B-4,1377.0,1.0,38,210.88
7788,G3,1377.5,0.5,25,210.88
7789,D3,1378.0,0.5,26,210.88
7790,C4,1378.0,1.0,37,210.88
7791,F4,1378.0,1.0,37,210.88
7792,C5,1378.0,1.0,37,210.88
7793,F3,1378.5,0.5,27,210.88
7794,B-2,1379.0,1.0,25,210.88
7795,D3,1379.0,0.5,35,210.88
7796,D4,1379.0,3.0,41,210.88
7797,F4,1379.0,3.0,41,210.88
7798,D5,1379.0,3.0,41,210.88
7799,B-3,1379.5,0.5,30,210.88
7800,B-2,1380.0,3.0,30,210.88
7801,G3,1380.0,3.0,30,210.88
7802,B-3,1380.5,0.25,28,210.88
7803,B-3,1381.0,0.25,29,210.88
7804,B-3,1381.5,0.25,27,210.88
7805,F4,1382.0,1.0,37,210.88
7806,B-3,1382.0,0.25,30,210.88
7807,C4,1382.0,0.5,39,210.88
7808,C5,1382.0,0.5,39,210.88
7809,B-3,1382.5,0.25,27,210.88
7810,B-3,1382.5,0.5,36,210.88
7811,B-4,1382.5,0.5,36,210.88
7812,B-2,1383.0,1.0,24,210.88
7813,F3,1383.0,0.5,29,210.88
7814,C4,1383.0,99/100,36,210.88
7815,F4,1383.0,99/100,36,210.88
7816,C5,1383.0,99/100,36,210.88
7817,E-3,1383.5,0.5,27,210.88
7818,B-2,1384.0,1.0,24,210.88
7819,F3,1384.0,0.5,29,210.88
7820,C4,1384.0,99/100,35,210.88
7821,F4,1384.0,99/100,35,210.88
7822,C5,1384.0,99/100,35,210.88
7823,D3,1384.5,0.5,25,210.88
7824,B-2,1385.0,1.0,24,210.88
7825,C3,1385.0,0.5,29,210.88
7826,C4,1385.0,99/100,35,210.88
7827,F4,1385.0,99/100,35,210.88
7828,C5,1385.0,99/100,35,210.88
7829,F3,1385.5,0.5,25,210.88
7830,F4,1386.0,1.0,37,210.88
7831,B-2,1386.0,1.0,24,210.88
7832,D3,1386.0,0.5,29,210.88
7833,B-3,1386.0,0.5,39,210.88
7834,B-4,1386.0,0.5,39,210.88
7835,F3,1386.5,0.5,27,210.88
7836,A3,1386.5,0.5,34,210.88
7837,A4,1386.5,0.5,34,210.88
7838,F4,1387.0,1.0,46,210.88
7839,B-2,1387.0,1.0,24,210.88
7840,E-3,1387.0,0.5,28,210.88
7841,B-3,1387.0,3.0,40,210.88
7842,B-4,1387.0,3.0,40,210.88
7843,F3,1387.5,0.5,26,210.88
7844,B-2,1388.0,1.0,24,210.88
7845,D3,1388.0,0.5,28,210.88
7846,E-4,1388.0,1.0,41,210.88
7847,G4,1388.0,1.0,41,210.88
7848,F3,1388.5,0.5,26,210.88
7849,B-2,1389.0,1.0,28,210.88
7850,D4,1389.0,1.0,36,210.88
7851,F4,1389.0,1.0,36,210.88
7852,F3,1389.5,0.5,26,210.88
7853,B-4,1390.0,1.0,54,210.88
7854,F2,1390.0,1.0,28,210.88
7855,E-4,1391.0,3.0,46,210.88
7856,B-4,1391.0,3.0,46,210.88
7857,E-5,1391.0,3.0,46,210.88
7858,F1,1391.5,26/125,24,210.88
7859,F#1,1391.667,26/125,19,210.88
7860,G#1,1391.833,167/1000,19,210.88
7861,F#1,1392.0,26/125,24,210.88
7862,G#1,1392.0,21/500,19,210.88
7863,G#1,1392.125,26/125,20,210.88
7864,F#1,1392.25,26/125,21,210.88
7865,G#1,1392.375,26/125,19,210.88
7866,F#1,1392.5,26/125,21,210.88
7867,G#1,1392.625,26/125,19,210.88
7868,F#1,1392.75,26/125,22,210.88
7869,G#1,1392.875,26/125,21,210.88
7870,F#1,1393.0,26/125,23,210.88
7871,G#1,1393.125,26/125,20,210.88
7872,F#1,1393.25,26/125,23,210.88
7873,G#1,1393.375,26/125,19,210.88
7874,F#1,1393.5,26/125,22,210.88
7875,G#1,1393.625,26/125,20,210.88
7876,F#1,1393.75,26/125,21,210.88
7877,G#1,1393.875,26/125,19,210.88
7878,F#1,1394.0,26/125,23,210.88
7879,D4,1394.0,0.5,42,210.88
7880,B-4,1394.0,0.5,42,210.88
7881,D5,1394.0,0.5,42,210.88
7882,G#1,1394.125,26/125,20,210.88
7883,F#1,1394.25,26/125,22,210.88
7884,G#1,1394.375,26/125,20,210.88
7885,F#1,1394.5,26/125,22,210.88
7886,C4,1394.5,0.5,38,210.88
7887,B-4,1394.5,0.5,38,210.88
7888,C5,1394.5,0.5,38,210.88
7889,G#1,1394.625,26/125,19,210.88
7890,F#1,1394.75,26/125,22,210.88
7891,G#1,1394.875,26/125,19,210.88
7892,F#1,1395.0,26/125,24,210.88
7893,D4,1395.0,1.0,42,210.88
7894,B-4,1395.0,1.0,42,210.88
7895,D5,1395.0,1.0,42,210.88
7896,G#1,1395.125,26/125,20,210.88
7897,F#1,1395.25,26/125,23,210.88
7898,G#1,1395.375,26/125,19,210.88
7899,F1,1395.5,73/250,19,210.88
7900,F#1,1395.75,0.25,16,210.88
7901,F1,1396.0,0.25,20,210.88
7902,F#1,1396.0,21/500,16,210.88
7903,A3,1396.0,1.0,38,210.88
7904,F4,1396.0,1.0,38,210.88
7905,A4,1396.0,1.0,38,210.88
7906,B-3,1397.0,1.0,40,210.88
7907,F4,1397.0,1.0,40,210.88
7908,B-4,1397.0,1.0,40,210.88
7909,C4,1398.0,1.0,38,210.88
7910,F4,1398.0,1.0,38,210.88
7911,C5,1398.0,1.0,38,210.88
7912,B-2,1399.0,1.0,24,210.88
7913,D3,1399.0,0.5,29,210.88
7914,B-3,1399.0,1.0,40,210.88
7915,F4,1399.0,1.0,40,210.88
7916,B-4,1399.0,1.0,40,210.88
7917,F3,1399.5,0.5,25,210.88
7918,B-2,1400.0,1.0,25,210.88
7919,D3,1400.0,0.5,30,210.88
7920,F4,1400.0,1.0,40,210.88
7921,D4,1400.0,1.0,40,210.88
7922,B-4,1400.0,1.0,40,210.88
7923,D5,1400.0,1.0,40,210.88
7924,F3,1400.5,0.5,25,210.88
7925,B-2,1401.0,1.0,21,210.88
7926,C3,1401.0,0.5,27,210.88
7927,C4,1401.0,2.0,38,210.88
7928,F4,1401.0,2.0,38,210.88
7929,A4,1401.0,2.0,38,210.88
7930,C5,1401.0,2.0,38,210.88
7931,F3,1401.5,0.5,24,210.88
7932,B-2,1402.0,1.0,25,210.88
7933,D3,1402.0,0.5,30,210.88
7934,F3,1402.5,0.5,24,210.88
7935,B-2,1403.0,1.0,24,210.88
7936,E-3,1403.0,0.5,29,210.88
7937,F3,1403.5,0.5,23,210.88
7938,E3,1404.0,0.5,30,210.88
7939,B-2,1404.0,3.0,25,210.88
7940,F3,1404.5,0.25,23,210.88
7941,F3,1405.0,0.25,23,210.88
7942,F3,1405.5,0.25,23,210.88
7943,F3,1406.0,0.25,23,210.88
7944,F3,1406.5,0.25,23,210.88
7945,B-2,1407.0,1.0,24,210.88
7946,E-3,1407.0,0.5,29,210.88
7947,D3,1407.5,0.5,24,210.88
7948,C4,1407.5,4.0,38,210.88
7949,F4,1407.5,4.0,38,210.88
7950,A4,1407.5,4.0,38,210.88
7951,C5,1407.5,4.0,38,210.88
7952,F2,1408.0,1.0,23,210.88
7953,E-3,1408.0,0.5,27,210.88
7954,F3,1408.5,0.5,22,210.88
7955,F2,1409.0,1.0,23,210.88
7956,E-3,1409.0,0.5,26,210.88
7957,F3,1409.5,0.5,22,210.88
7958,F2,1410.0,1.0,23,210.88
7959,E-3,1410.0,0.5,26,210.88
7960,F3,1410.5,0.5,25,210.88
7961,F2,1411.0,1.0,24,210.88
7962,D3,1411.0,0.5,29,210.88
7963,C3,1411.5,0.5,22,210.88
7964,B-2,1412.0,3.0,25,210.88
7965,D3,1412.0,0.5,30,210.88
7966,C4,1412.0,0.5,38,210.88
7967,F4,1412.0,0.5,38,210.88
7968,A4,1412.0,0.5,38,210.88
7969,C5,1412.0,0.5,38,210.88
7970,F3,1412.5,0.5,27,210.88
7971,E-3,1413.0,0.5,29,210.88
7972,G3,1413.5,0.5,25,210.88
7973,D3,1414.0,0.5,26,210.88
7974,F3,1414.5,0.5,27,210.88
7975,G#2,1415.0,1.0,25,210.88
7976,D3,1415.0,0.5,35,210.88
7977,B-3,1415.0,1.0,37,210.88
7978,F4,1415.0,1.0,37,210.88
7979,B-4,1415.0,1.0,37,210.88
7980,F3,1415.5,0.5,30,210.88
7981,B-3,1416.0,1.0,38,210.88
7982,F4,1416.0,1.0,38,210.88
7983,B-4,1416.0,1.0,38,210.88
7984,G2,1416.0,3.0,30,210.88
7985,F3,1416.0,3.0,30,210.88
7986,G3,1416.5,0.25,28,210.88
7987,G3,1417.0,0.25,29,210.88
7988,A3,1417.0,1.0,35,210.88
7989,F4,1417.0,1.0,35,210.88
7990,A4,1417.0,1.0,35,210.88
7991,G3,1417.5,0.25,27,210.88
7992,G3,1418.0,0.25,30,210.88
7993,B-3,1418.0,1.0,38,210.88
7994,F4,1418.0,1.0,38,210.88
7995,B-4,1418.0,1.0,38,210.88
7996,G3,1418.5,0.25,27,210.88
7997,C4,1419.0,1.0,37,210.88
7998,F4,1419.0,1.0,37,210.88
7999,C5,1419.0,1.0,37,210.88
8000,G2,1419.0,0.5,25,210.88
8001,E-3,1419.0,0.5,25,210.88
8002,G3,1419.0,0.5,25,210.88
8003,G2,1419.5,0.5,24,210.88
8004,D3,1419.5,0.5,24,210.88
8005,G3,1419.5,0.5,24,210.88
8006,G2,1420.0,1.0,25,210.88
8007,C3,1420.0,0.5,30,210.88
8008,D4,1420.0,3.0,41,210.88
8009,F4,1420.0,3.0,41,210.88
8010,D5,1420.0,3.0,41,210.88
8011,G3,1420.5,0.5,27,210.88
8012,G2,1421.0,1.0,25,210.88
8013,F3,1421.0,0.5,29,210.88
8014,G3,1421.5,0.5,25,210.88
8015,G2,1422.0,1.0,24,210.88
8016,E-3,1422.0,0.5,25,210.88
8017,G3,1422.5,0.5,26,210.88
8018,F4,1423.0,1.0,37,210.88
8019,F#2,1423.0,1.0,25,210.88
8020,E-3,1423.0,0.5,35,210.88
8021,C4,1423.0,0.5,39,210.88
8022,C5,1423.0,0.5,39,210.88
8023,F#3,1423.5,0.5,30,210.88
8024,B-3,1423.5,0.5,36,210.88
8025,B-4,1423.5,0.5,36,210.88
8026,C4,1424.0,99/100,36,210.88
8027,F4,1424.0,99/100,36,210.88
8028,C5,1424.0,99/100,36,210.88
8029,F2,1424.0,3.0,30,210.88
8030,E-3,1424.0,3.0,30,210.88
8031,F3,1424.5,0.25,28,210.88
8032,F3,1425.0,0.25,29,210.88
8033,C4,1425.0,99/100,35,210.88
8034,F4,1425.0,99/100,35,210.88
8035,C5,1425.0,99/100,35,210.88
8036,F3,1425.5,0.25,27,210.88
8037,F3,1426.0,0.25,30,210.88
8038,C4,1426.0,99/100,35,210.88
8039,F4,1426.0,99/100,35,210.88
8040,C5,1426.0,99/100,35,210.88
8041,F3,1426.5,0.25,27,210.88
8042,F4,1427.0,1.0,37,210.88
8043,B-3,1427.0,0.5,39,210.88
8044,B-4,1427.0,0.5,39,210.88
8045,F2,1427.0,0.5,25,210.88
8046,D3,1427.0,0.5,25,210.88
8047,F3,1427.0,0.5,25,210.88
8048,A3,1427.5,0.5,34,210.88
8049,A4,1427.5,0.5,34,210.88
8050,F2,1427.5,0.5,24,210.88
8051,C3,1427.5,0.5,24,210.88
8052,F3,1427.5,0.5,24,210.88
8053,F4,1428.0,1.0,46,210.88
8054,F2,1428.0,1.0,25,210.88
8055,B-2,1428.0,0.5,30,210.88
8056,B-3,1428.0,3.0,40,210.88
8057,B-4,1428.0,3.0,40,210.88
8058,F3,1428.5,0.5,27,210.88
8059,F2,1429.0,1.0,23,210.88
8060,C3,1429.0,0.5,27,210.88
8061,E-4,1429.0,1.0,41,210.88
8062,G4,1429.0,1.0,41,210.88
8063,F3,1429.5,0.5,23,210.88
8064,F2,1430.0,1.0,25,210.88
8065,D3,1430.0,0.5,26,210.88
8066,D4,1430.0,1.0,36,210.88
8067,F4,1430.0,1.0,36,210.88
8068,F3,1430.5,0.5,24,210.88
8069,F2,1431.0,1.0,22,210.88
8070,E-3,1431.0,0.5,31,210.88
8071,D4,1431.0,1.0,46,210.88
8072,F4,1431.0,1.0,46,210.88
8073,D5,1431.0,1.0,46,210.88
8074,F3,1431.5,0.5,27,210.88
8075,F3,1432.0,2.5,28,210.88
8076,D4,1432.0,3.0,46,210.88
8077,G4,1432.0,3.0,46,210.88
8078,D5,1432.0,3.0,46,210.88
8079,F2,1432.0,2.0,26,210.88
8080,E-3,1432.0,2.0,26,210.88
8081,B-2,1434.0,0.5,25,210.88
8082,D3,1434.0,0.5,25,210.88
8083,B-1,1435.0,0.5,30,210.88
8084,C4,1435.0,0.5,42,210.88
8085,G4,1435.0,0.5,42,210.88
8086,C5,1435.0,0.5,42,210.88
8087,B3,1435.5,0.5,38,210.88
8088,G4,1435.5,0.5,38,210.88
8089,B4,1435.5,0.5,38,210.88
8090,B-1,1436.0,0.188,30,210.88
8091,E-4,1436.0,1.0,51,210.88
8092,G4,1436.0,1.0,51,210.88
8093,E-5,1436.0,1.0,51,210.88
8094,B1,1436.125,0.188,26,210.88
8095,B-1,1436.25,0.188,27,210.88
8096,B1,1436.375,0.188,25,210.88
8097,B-1,1436.5,0.188,27,210.88
8098,B1,1436.625,0.188,25,210.88
8099,B-1,1436.75,0.188,28,210.88
8100,B1,1436.875,0.188,27,210.88
8101,B-1,1437.0,0.188,29,210.88
8102,D4,1437.0,1.0,48,210.88
8103,G4,1437.0,1.0,48,210.88
8104,D5,1437.0,1.0,48,210.88
8105,B1,1437.125,0.188,26,210.88
8106,B-1,1437.25,0.188,29,210.88
8107,B1,1437.375,0.188,25,210.88
8108,B-1,1437.5,0.188,28,210.88
8109,B1,1437.625,0.188,26,210.88
8110,B-1,1437.75,0.188,27,210.88
8111,B1,1437.875,0.188,25,210.88
8112,B-1,1438.0,0.188,29,210.88
8113,C4,1438.0,1.0,46,210.88
8114,G4,1438.0,1.0,46,210.88
8115,C5,1438.0,1.0,46,210.88
8116,B1,1438.125,0.188,26,210.88
8117,B-1,1438.25,0.188,28,210.88
8118,B1,1438.375,0.188,26,210.88
8119,B-1,1438.5,0.188,28,210.88
8120,B1,1438.625,0.188,25,210.88
8121,B-1,1438.75,0.188,28,210.88
8122,B1,1438.875,0.188,25,210.88
8123,B-1,1439.0,73/250,30,210.88
8124,C4,1439.0,1.0,46,210.88
8125,A4,1439.0,1.0,46,210.88
8126,C5,1439.0,1.0,46,210.88
8127,A1,1439.25,73/250,26,210.88
8128,G#1,1439.5,73/250,30,210.88
8129,G1,1439.75,0.25,26,210.88
8130,F#1,1440.0,0.125,30,210.88
8131,G1,1440.0,21/500,26,210.88
8132,F4,1440.0,3.0,45,210.88
8133,C4,1440.0,3.0,45,210.88
8134,A4,1440.0,3.0,45,210.88
8135,C5,1440.0,3.0,45,210.88
8136,C#3,1440.25,0.25,26,210.88
8137,F#3,1440.5,0.25,26,210.88
8138,C#3,1440.75,0.25,26,210.88
8139,F#2,1441.0,0.25,31,210.88
8140,C#3,1441.25,0.25,26,210.88
8141,F3,1441.5,0.25,26,210.88
8142,C#3,1441.75,0.25,25,210.88
8143,F#2,1442.0,0.25,30,210.88
8144,C#3,1442.25,0.25,27,210.88
8145,F#3,1442.5,0.25,27,210.88
8146,C#3,1442.75,0.25,27,210.88
8147,F#2,1443.0,0.25,30,210.88
8148,B-3,1443.0,0.5,42,210.88
8149,F4,1443.0,0.5,42,210.88
8150,B-4,1443.0,0.5,42,210.88
8151,C#3,1443.25,0.25,27,210.88
8152,G#3,1443.5,0.25,27,210.88
8153,A3,1443.5,0.5,38,210.88
8154,F4,1443.5,0.5,38,210.88
8155,A4,1443.5,0.5,38,210.88
8156,C#3,1443.75,0.25,27,210.88
8157,F#2,1444.0,0.25,33,210.88
8158,D4,1444.0,1.0,51,210.88
8159,F4,1444.0,1.0,51,210.88
8160,D5,1444.0,1.0,51,210.88
8161,C#3,1444.25,0.25,27,210.88
8162,B-3,1444.5,0.25,27,210.88
8163,C#3,1444.75,0.25,27,210.88
8164,F#2,1445.0,0.25,31,210.88
8165,A3,1445.0,1.0,45,210.88
8166,F4,1445.0,1.0,45,210.88
8167,A4,1445.0,1.0,45,210.88
8168,C#3,1445.25,0.25,27,210.88
8169,B-3,1445.5,0.25,27,210.88
8170,C#3,1445.75,0.25,27,210.88
8171,F#2,1446.0,0.25,30,210.88
8172,B-3,1446.0,1.0,48,210.88
8173,F4,1446.0,1.0,48,210.88
8174,B-4,1446.0,1.0,48,210.88
8175,C#3,1446.25,0.25,27,210.88
8176,B-3,1446.5,0.25,27,210.88
8177,C#3,1446.75,0.25,27,210.88
8178,F#2,1447.0,0.25,31,210.88
8179,F4,1447.0,1.0,41,210.88
8180,C4,1447.0,1.0,41,210.88
8181,A4,1447.0,1.0,41,210.88
8182,C5,1447.0,1.0,41,210.88
8183,C#3,1447.25,0.25,25,210.88
8184,F#3,1447.5,0.25,28,210.88
8185,C#3,1447.75,0.25,27,210.88
8186,F4,1448.0,2.5,36,210.88
8187,F#2,1448.0,0.25,33,210.88
8188,C4,1448.0,2.0,41,210.88
8189,A4,1448.0,2.0,41,210.88
8190,C5,1448.0,2.0,41,210.88
8191,E-3,1448.25,0.25,27,210.88
8192,B3,1448.5,0.25,27,210.88
8193,E-3,1448.75,0.25,27,210.88
8194,F#2,1449.0,0.25,32,210.88
8195,E-3,1449.25,0.25,27,210.88
8196,B3,1449.5,0.25,27,210.88
8197,E-3,1449.75,0.25,27,210.88
8198,F#2,1450.0,0.25,32,210.88
8199,B-3,1450.0,0.5,43,210.88
8200,B-4,1450.0,0.5,43,210.88
8201,E-3,1450.25,0.25,27,210.88
8202,B3,1450.5,0.25,27,210.88
8203,E-3,1450.75,0.25,27,210.88
8204,F#2,1451.0,0.25,33,210.88
8205,E-3,1451.25,0.25,27,210.88
8206,B3,1451.5,0.25,31,210.88
8207,E-3,1451.75,0.25,27,210.88
8208,F#2,1452.0,0.25,33,210.88
8209,C#3,1452.25,0.25,28,210.88
8210,B-3,1452.5,0.25,28,210.88
8211,C#3,1452.75,0.25,28,210.88
8212,F#2,1453.0,0.25,33,210.88
8213,C#3,1453.25,0.25,27,210.88
8214,B-3,1453.5,0.25,28,210.88
8215,C#3,1453.75,0.25,27,210.88
8216,F#2,1454.0,0.25,33,210.88
8217,C#3,1454.25,0.25,28,210.88
8218,B-3,1454.5,0.25,29,210.88
8219,C#3,1454.75,0.25,29,210.88
8220,B-4,1455.0,1.0,51,210.88
8221,F#2,1455.0,0.25,33,210.88
8222,C#3,1455.25,0.25,28,210.88
8223,F#3,1455.5,0.25,28,210.88
8224,C#3,1455.75,0.25,28,210.88
8225,B-4,1456.0,1.0,52,210.88
8226,F#2,1456.0,0.25,30,210.88
8227,C#3,1456.25,0.25,26,210.88
8228,F#3,1456.5,0.25,26,210.88
8229,C#3,1456.75,0.25,26,210.88
8230,G#4,1457.0,1.0,51,210.88
8231,F#2,1457.0,0.25,31,210.88
8232,C#3,1457.25,0.25,26,210.88
8233,F3,1457.5,0.25,26,210.88
8234,C#3,1457.75,0.25,25,210.88
8235,B-4,1458.0,1.0,52,210.88
8236,F#2,1458.0,0.25,30,210.88
8237,C#3,1458.25,0.25,27,210.88
8238,F#3,1458.5,0.25,27,210.88
8239,C#3,1458.75,0.25,27,210.88
8240,B4,1459.0,1.0,50,210.88
8241,F#2,1459.0,0.25,30,210.88
8242,C#3,1459.25,0.25,27,210.88
8243,G#3,1459.5,0.25,27,210.88
8244,C#3,1459.75,0.25,27,210.88
8245,C#5,1460.0,3.0,52,210.88
8246,F#2,1460.0,0.25,33,210.88
8247,C#3,1460.25,0.25,27,210.88
8248,A3,1460.5,0.25,27,210.88
8249,C#3,1460.75,0.25,27,210.88
8250,G#2,1461.0,0.25,31,210.88
8251,C#3,1461.25,0.25,27,210.88
8252,A3,1461.5,0.25,27,210.88
8253,C#3,1461.75,0.25,27,210.88
8254,A2,1462.0,0.25,30,210.88
8255,C#3,1462.25,0.25,27,210.88
8256,A3,1462.5,0.25,27,210.88
8257,C#3,1462.75,0.25,27,210.88
8258,B4,1463.0,0.5,56,210.88
8259,A2,1463.0,0.25,31,210.88
8260,C#3,1463.25,0.25,25,210.88
8261,B-4,1463.5,0.5,53,210.88
8262,A3,1463.5,0.25,28,210.88
8263,C#3,1463.75,0.25,27,210.88
8264,E-5,1464.0,0.5,58,210.88
8265,A2,1464.0,0.25,33,210.88
8266,F#3,1464.25,0.25,27,210.88
8267,D4,1464.5,0.25,27,210.88
8268,F#3,1464.75,0.25,27,210.88
8269,E-5,1465.0,0.5,54,210.88
8270,A2,1465.0,0.25,32,210.88
8271,F#3,1465.25,0.25,27,210.88
8272,D4,1465.5,0.25,27,210.88
8273,F#3,1465.75,0.25,27,210.88
8274,E-5,1466.0,0.5,54,210.88
8275,A2,1466.0,0.25,32,210.88
8276,F#3,1466.25,0.25,27,210.88
8277,D4,1466.5,0.25,27,210.88
8278,F#3,1466.75,0.25,27,210.88
8279,F5,1467.0,0.5,56,210.88
8280,A2,1467.0,0.25,33,210.88
8281,F#3,1467.25,0.25,27,210.88
8282,F#5,1467.5,0.5,51,210.88
8283,D4,1467.5,0.25,31,210.88
8284,F#3,1467.75,0.25,27,210.88
8285,C#5,1468.0,3.0,54,210.88
8286,A2,1468.0,0.25,33,210.88
8287,E3,1468.25,0.25,28,210.88
8288,C#4,1468.5,0.25,28,210.88
8289,E3,1468.75,0.25,28,210.88
8290,A2,1469.0,0.25,33,210.88
8291,E3,1469.25,0.25,27,210.88
8292,C#4,1469.5,0.25,28,210.88
8293,E3,1469.75,0.25,27,210.88
8294,A2,1470.0,0.25,33,210.88
8295,E3,1470.25,0.25,28,210.88
8296,C#4,1470.5,0.25,29,210.88
8297,E3,1470.75,0.25,29,210.88
8298,A4,1471.0,1.0,51,210.88
8299,A2,1471.0,0.25,33,210.88
8300,E3,1471.25,0.25,27,210.88
8301,A3,1471.5,0.25,31,210.88
8302,E3,1471.75,0.25,27,210.88
8303,A4,1472.0,1.0,52,210.88
8304,A2,1472.0,0.25,33,210.88
8305,F#3,1472.25,0.25,28,210.88
8306,D4,1472.5,0.25,28,210.88
8307,F#3,1472.75,0.25,28,210.88
8308,G#4,1473.0,1.0,51,210.88
8309,A2,1473.0,0.25,33,210.88
8310,F#3,1473.25,0.25,29,210.88
8311,D4,1473.5,0.25,29,210.88
8312,F#3,1473.75,0.25,29,210.88
8313,A4,1474.0,1.0,52,210.88
8314,A2,1474.0,0.25,33,210.88
8315,E3,1474.25,0.25,28,210.88
8316,G#3,1474.5,0.25,28,210.88
8317,E3,1474.75,0.25,27,210.88
8318,B4,1475.0,1.0,50,210.88
8319,A2,1475.0,0.25,31,210.88
8320,E3,1475.25,0.25,27,210.88
8321,B3,1475.5,0.25,28,210.88
8322,E3,1475.75,0.25,28,210.88
8323,C#5,1476.0,3.0,52,210.88
8324,A2,1476.0,0.25,33,210.88
8325,E3,1476.25,0.25,28,210.88
8326,A3,1476.5,0.25,28,210.88
8327,E3,1476.75,0.25,28,210.88
8328,A2,1477.0,0.25,33,210.88
8329,E3,1477.25,0.25,27,210.88
8330,C#4,1477.5,0.25,28,210.88
8331,E3,1477.75,0.25,27,210.88
8332,A2,1478.0,0.25,33,210.88
8333,E3,1478.25,0.25,28,210.88
8334,C#4,1478.5,0.25,29,210.88
8335,E3,1478.75,0.25,29,210.88
8336,D5,1479.0,0.5,56,210.88
8337,A2,1479.0,0.25,33,210.88
8338,E3,1479.25,0.25,27,210.88
8339,E5,1479.5,0.5,53,210.88
8340,C#4,1479.5,0.25,31,210.88
8341,E3,1479.75,0.25,27,210.88
8342,F#5,1480.0,0.5,58,210.88
8343,A2,1480.0,0.25,33,210.88
8344,F#3,1480.25,0.25,28,210.88
8345,D4,1480.5,0.25,28,210.88
8346,F#3,1480.75,0.25,28,210.88
8347,F#5,1481.0,0.5,54,210.88
8348,A2,1481.0,0.25,33,210.88
8349,F#3,1481.25,0.25,29,210.88
8350,D4,1481.5,0.25,29,210.88
8351,F#3,1481.75,0.25,29,210.88
8352,F#5,1482.0,0.5,54,210.88
8353,A2,1482.0,0.25,33,210.88
8354,E3,1482.25,0.25,28,210.88
8355,G#3,1482.5,0.25,28,210.88
8356,E3,1482.75,0.25,27,210.88
8357,G#5,1483.0,0.5,56,210.88
8358,A2,1483.0,0.25,31,210.88
8359,E3,1483.25,0.25,27,210.88
8360,A5,1483.5,0.5,51,210.88
8361,B3,1483.5,0.25,28,210.88
8362,E3,1483.75,0.25,28,210.88
8363,E5,1484.0,3.0,54,210.88
8364,A2,1484.0,0.125,33,210.88
8365,C#4,1484.25,0.25,28,210.88
8366,A3,1484.5,0.25,28,210.88
8367,C#4,1484.75,0.25,28,210.88
8368,A3,1485.0,0.25,33,210.88
8369,C#4,1485.25,0.25,29,210.88
8370,A3,1485.5,0.25,29,210.88
8371,C#4,1485.75,0.25,29,210.88
8372,A2,1486.0,0.125,33,210.88
8373,C#4,1486.25,0.25,28,210.88
8374,A3,1486.5,0.25,28,210.88
8375,C#4,1486.75,0.25,27,210.88
8376,D5,1487.0,0.5,53,210.88
8377,A3,1487.0,0.25,31,210.88
8378,C#4,1487.25,0.25,27,210.88
8379,C#5,1487.5,0.5,51,210.88
8380,A3,1487.5,0.25,28,210.88
8381,C#4,1487.75,0.25,28,210.88
8382,D5,1488.0,1.0,54,210.88
8383,A2,1488.0,0.125,33,210.88
8384,D4,1488.25,0.25,28,210.88
8385,A3,1488.5,0.25,28,210.88
8386,D4,1488.75,0.25,28,210.88
8387,F#5,1489.0,1.0,52,210.88
8388,A3,1489.0,0.25,33,210.88
8389,D4,1489.25,0.25,29,210.88
8390,A3,1489.5,0.25,29,210.88
8391,D4,1489.75,0.25,29,210.88
8392,B4,1490.0,1.0,52,210.88
8393,A2,1490.0,0.125,33,210.88
8394,D4,1490.25,0.25,28,210.88
8395,A3,1490.5,0.25,28,210.88
8396,D4,1490.75,0.25,27,210.88
8397,D5,1491.0,1.0,52,210.88
8398,A3,1491.0,0.25,31,210.88
8399,D4,1491.25,0.25,27,210.88
8400,A3,1491.5,0.25,28,210.88
8401,D4,1491.75,0.25,28,210.88
8402,C#5,1492.0,1.0,54,210.88
8403,A2,1492.0,0.125,33,210.88
8404,C#4,1492.25,0.25,28,210.88
8405,A3,1492.5,0.25,28,210.88
8406,C#4,1492.75,0.25,28,210.88
8407,A3,1493.0,0.25,33,210.88
8408,A4,1493.0,1.5,56,210.88
8409,A5,1493.0,1.5,56,210.88
8410,C#4,1493.25,0.25,29,210.88
8411,A3,1493.5,0.25,29,210.88
8412,C#4,1493.75,0.25,29,210.88
8413,A2,1494.0,0.125,33,210.88
8414,C#4,1494.25,0.25,28,210.88
8415,A3,1494.5,0.25,28,210.88
8416,G#4,1494.5,0.5,49,210.88
8417,G#5,1494.5,0.5,49,210.88
8418,C#4,1494.75,0.25,27,210.88
8419,A3,1495.0,0.25,31,210.88
8420,F#4,1495.0,0.5,52,210.88
8421,F#5,1495.0,0.5,52,210.88
8422,C#4,1495.25,0.25,27,210.88
8423,A3,1495.5,0.25,28,210.88
8424,E4,1495.5,0.5,47,210.88
8425,E5,1495.5,0.5,47,210.88
8426,C#4,1495.75,0.25,28,210.88
8427,A2,1496.0,0.125,33,210.88
8428,D4,1496.0,1.0,50,210.88
8429,D5,1496.0,1.0,50,210.88
8430,D4,1496.25,0.25,28,210.88
8431,A3,1496.5,0.25,28,210.88
8432,D4,1496.75,0.25,28,210.88
8433,F#5,1497.0,1.0,56,210.88
8434,A3,1497.0,0.25,33,210.88
8435,D4,1497.25,0.25,29,210.88
8436,A3,1497.5,0.25,29,210.88
8437,D4,1497.75,0.25,29,210.88
8438,B4,1498.0,1.0,54,210.88
8439,A2,1498.0,0.125,33,210.88
8440,D4,1498.25,0.25,28,210.88
8441,A3,1498.5,0.25,28,210.88
8442,D4,1498.75,0.25,27,210.88
8443,C#5,1499.0,0.5,52,210.88
8444,A3,1499.0,0.25,31,210.88
8445,D4,1499.25,0.25,27,210.88
8446,D5,1499.5,0.5,52,210.88
8447,A3,1499.5,0.25,28,210.88
8448,D4,1499.75,0.25,28,210.88
8449,C#5,1500.0,0.5,55,210.88
8450,A2,1500.0,0.125,33,210.88
8451,C#4,1500.25,0.25,28,210.88
8452,E5,1500.5,0.5,52,210.88
8453,A3,1500.5,0.25,28,210.88
8454,C#4,1500.75,0.25,28,210.88
8455,C#6,1501.0,0.5,56,210.88
8456,A3,1501.0,0.25,33,210.88
8457,C#4,1501.25,0.25,29,210.88
8458,A5,1501.5,0.5,52,210.88
8459,A3,1501.5,0.25,29,210.88
8460,C#4,1501.75,0.25,29,210.88
8461,E5,1502.0,0.5,56,210.88
8462,A3,1502.0,0.25,33,210.88
8463,C#4,1502.25,0.25,28,210.88
8464,C#5,1502.5,0.5,52,210.88
8465,A3,1502.5,0.25,28,210.88
8466,C#4,1502.75,0.25,27,210.88
8467,A5,1503.0,0.5,55,210.88
8468,A3,1503.0,0.25,31,210.88
8469,C#4,1503.25,0.25,27,210.88
8470,F5,1503.5,0.5,52,210.88
8471,A3,1503.5,0.25,28,210.88
8472,C#4,1503.75,0.25,28,210.88
8473,F#5,1504.0,0.5,55,210.88
8474,A2,1504.0,0.125,33,210.88
8475,C#4,1504.25,0.25,28,210.88
8476,D5,1504.5,0.5,52,210.88
8477,A3,1504.5,0.25,28,210.88
8478,C#4,1504.75,0.25,28,210.88
8479,D6,1505.0,0.5,56,210.88
8480,A3,1505.0,0.25,33,210.88
8481,C#4,1505.25,0.25,29,210.88
8482,B5,1505.5,0.5,54,210.88
8483,A3,1505.5,0.25,29,210.88
8484,C#4,1505.75,0.25,29,210.88
8485,G#5,1506.0,0.5,58,210.88
8486,A3,1506.0,0.25,33,210.88
8487,C#4,1506.25,0.25,28,210.88
8488,B5,1506.5,0.5,56,210.88
8489,A3,1506.5,0.25,28,210.88
8490,C#4,1506.75,0.25,27,210.88
8491,E6,1507.0,0.5,58,210.88
8492,A3,1507.0,0.25,31,210.88
8493,C#4,1507.25,0.25,27,210.88
8494,C6,1507.5,0.5,54,210.88
8495,A3,1507.5,0.25,28,210.88
8496,C#4,1507.75,0.25,28,210.88
8497,C#6,1508.0,0.5,57,210.88
8498,A3,1508.0,0.25,33,210.88
8499,C#4,1508.25,0.25,28,210.88
8500,A5,1508.5,0.5,54,210.88
8501,A3,1508.5,0.25,28,210.88
8502,C#4,1508.75,0.25,28,210.88
8503,C#6,1509.0,0.25,57,210.88
8504,A3,1509.0,0.25,33,210.88
8505,A5,1509.25,0.25,51,210.88
8506,C#4,1509.25,0.25,29,210.88
8507,C#6,1509.5,0.25,56,210.88
8508,A3,1509.5,0.25,29,210.88
8509,A5,1509.75,0.25,50,210.88
8510,C#4,1509.75,0.25,30,210.88
8511,E5,1510.0,0.25,56,210.88
8512,A3,1510.0,0.25,34,210.88
8513,C#5,1510.25,0.25,52,210.88
8514,C#4,1510.25,0.25,29,210.88
8515,E5,1510.5,0.25,56,210.88
8516,A3,1510.5,0.25,29,210.88
8517,C#5,1510.75,0.25,53,210.88
8518,C#4,1510.75,0.25,28,210.88
8519,A5,1511.0,0.25,58,210.88
8520,A3,1511.0,0.25,33,210.88
8521,F5,1511.25,0.25,53,210.88
8522,C#4,1511.25,0.25,29,210.88
8523,A5,1511.5,0.25,57,210.88
8524,A3,1511.5,0.25,30,210.88
8525,F5,1511.75,0.25,52,210.88
8526,C#4,1511.75,0.25,30,210.88
8527,F#5,1512.0,0.25,57,210.88
8528,A2,1512.0,333/1000,34,210.88
8529,D5,1512.25,0.25,52,210.88
8530,A3,1512.333,317/1000,31,210.88
8531,F#5,1512.5,0.25,54,210.88
8532,A3,1512.667,317/1000,28,210.88
8533,A2,1512.667,317/1000,28,210.88
8534,D5,1512.75,0.25,52,210.88
8535,D6,1513.0,0.25,57,210.88
8536,A2,1513.0,317/1000,32,210.88
8537,A3,1513.0,317/1000,32,210.88
8538,B5,1513.25,0.25,51,210.88
8539,A2,1513.333,317/1000,28,210.88
8540,A3,1513.333,317/1000,28,210.88
8541,D6,1513.5,0.25,56,210.88
8542,A2,1513.667,317/1000,30,210.88
8543,A3,1513.667,317/1000,30,210.88
8544,B5,1513.75,0.25,50,210.88
8545,G#5,1514.0,0.25,56,210.88
8546,A2,1514.0,317/1000,34,210.88
8547,A3,1514.0,317/1000,34,210.88
8548,B5,1514.25,0.25,52,210.88
8549,A2,1514.333,317/1000,32,210.88
8550,A3,1514.333,317/1000,32,210.88
8551,G#5,1514.5,0.25,56,210.88
8552,A2,1514.667,317/1000,32,210.88
8553,A3,1514.667,317/1000,32,210.88
8554,B5,1514.75,0.25,53,210.88
8555,E6,1515.0,0.25,58,210.88
8556,G3,1515.0,317/1000,34,210.88
8557,E3,1515.0,317/1000,34,210.88
8558,A2,1515.0,317/1000,34,210.88
8559,A3,1515.0,317/1000,34,210.88
8560,C6,1515.25,0.25,53,210.88
8561,G3,1515.333,317/1000,32,210.88
8562,E3,1515.333,317/1000,32,210.88
8563,A2,1515.333,317/1000,32,210.88
8564,A3,1515.333,317/1000,32,210.88
8565,E6,1515.5,0.25,57,210.88
8566,G3,1515.667,317/1000,32,210.88
8567,E3,1515.667,317/1000,32,210.88
8568,A2,1515.667,317/1000,32,210.88
8569,A3,1515.667,317/1000,32,210.88
8570,C6,1515.75,0.25,52,210.88
8571,C#6,1516.0,0.25,57,210.88
8572,G3,1516.0,317/1000,35,210.88
8573,E3,1516.0,317/1000,35,210.88
8574,A2,1516.0,317/1000,35,210.88
8575,A3,1516.0,317/1000,35,210.88
8576,C6,1516.25,0.25,53,210.88
8577,G3,1516.333,317/1000,33,210.88
8578,E3,1516.333,317/1000,33,210.88
8579,A2,1516.333,317/1000,33,210.88
8580,A3,1516.333,317/1000,33,210.88
8581,C#6,1516.5,0.25,52,210.88
8582,G3,1516.667,317/1000,34,210.88
8583,E3,1516.667,317/1000,34,210.88
8584,A2,1516.667,317/1000,34,210.88
8585,A3,1516.667,317/1000,34,210.88
8586,G#5,1516.75,0.25,52,210.88
8587,A5,1517.0,0.25,57,210.88
8588,G3,1517.0,317/1000,40,210.88
8589,E3,1517.0,317/1000,40,210.88
8590,A2,1517.0,317/1000,40,210.88
8591,A3,1517.0,317/1000,40,210.88
8592,G#5,1517.25,0.25,51,210.88
8593,G3,1517.333,317/1000,38,210.88
8594,E3,1517.333,317/1000,38,210.88
8595,A2,1517.333,317/1000,38,210.88
8596,A3,1517.333,317/1000,38,210.88
8597,A5,1517.5,0.25,51,210.88
8598,G3,1517.667,317/1000,40,210.88
8599,E3,1517.667,317/1000,40,210.88
8600,A2,1517.667,317/1000,40,210.88
8601,A3,1517.667,317/1000,40,210.88
8602,E-5,1517.75,0.25,50,210.88
8603,E5,1518.0,0.25,55,210.88
8604,G3,1518.0,317/1000,44,210.88
8605,E3,1518.0,317/1000,44,210.88
8606,A2,1518.0,317/1000,44,210.88
8607,A3,1518.0,317/1000,44,210.88
8608,E-5,1518.25,0.25,51,210.88
8609,G3,1518.333,317/1000,43,210.88
8610,E3,1518.333,317/1000,43,210.88
8611,A2,1518.333,317/1000,43,210.88
8612,A3,1518.333,317/1000,43,210.88
8613,E5,1518.5,0.25,51,210.88
8614,G3,1518.667,317/1000,44,210.88
8615,E3,1518.667,317/1000,44,210.88
8616,A2,1518.667,317/1000,44,210.88
8617,A3,1518.667,317/1000,44,210.88
8618,C5,1518.75,0.25,51,210.88
8619,C#5,1519.0,0.25,54,210.88
8620,D3,1519.0,317/1000,50,210.88
8621,B-3,1519.0,317/1000,50,210.88
8622,B-2,1519.0,317/1000,50,210.88
8623,F3,1519.0,317/1000,50,210.88
8624,C5,1519.25,0.25,47,210.88
8625,D3,1519.333,317/1000,48,210.88
8626,B-3,1519.333,317/1000,48,210.88
8627,B-2,1519.333,317/1000,48,210.88
8628,F3,1519.333,317/1000,48,210.88
8629,C#5,1519.5,0.25,49,210.88
8630,D3,1519.667,317/1000,48,210.88
8631,B-3,1519.667,317/1000,48,210.88
8632,B-2,1519.667,317/1000,48,210.88
8633,F3,1519.667,317/1000,48,210.88
8634,G#4,1519.75,0.25,47,210.88
8635,A4,1520.0,0.25,57,210.88
8636,B-3,1520.0,333/1000,63,210.88
8637,B-2,1520.0,1.0,63,210.88
8638,F2,1520.0,1.0,63,210.88
8639,C6,1520.25,0.25,53,210.88
8640,F3,1520.333,333/1000,58,210.88
8641,C#6,1520.5,0.25,52,210.88
8642,F3,1520.667,167/1000,58,210.88
8643,G#5,1520.75,0.25,52,210.88
8644,A5,1521.0,0.25,57,210.88
8645,E-3,1521.0,333/1000,62,210.88
8646,B-2,1521.0,1.0,62,210.88
8647,G#5,1521.25,0.25,51,210.88
8648,F3,1521.333,333/1000,58,210.88
8649,A5,1521.5,0.25,51,210.88
8650,F3,1521.667,167/1000,58,210.88
8651,E-5,1521.75,0.25,50,210.88
8652,E5,1522.0,0.25,55,210.88
8653,D3,1522.0,333/1000,60,210.88
8654,B-2,1522.0,1.0,60,210.88
8655,E-5,1522.25,0.25,51,210.88
8656,F3,1522.333,333/1000,58,210.88
8657,E5,1522.5,0.25,51,210.88
8658,F3,1522.667,167/1000,58,210.88
8659,C5,1522.75,0.25,51,210.88
8660,C#5,1523.0,0.25,54,210.88
8661,E-3,1523.0,333/1000,61,210.88
8662,B-2,1523.0,1.0,61,210.88
8663,C5,1523.25,0.25,47,210.88
8664,F3,1523.333,333/1000,58,210.88
8665,C#5,1523.5,0.25,49,210.88
8666,F3,1523.667,167/1000,58,210.88
8667,G#4,1523.75,0.25,47,210.88
8668,A4,1524.0,0.25,53,210.88
8669,E3,1524.0,333/1000,60,210.88
8670,B-2,1524.0,3.0,60,210.88
8671,G#4,1524.25,0.25,49,210.88
8672,F3,1524.333,333/1000,58,210.88
8673,A4,1524.5,0.25,49,210.88
8674,F3,1524.667,167/1000,58,210.88
8675,B4,1524.75,0.25,49,210.88
8676,C#5,1525.0,0.25,55,210.88
8677,F3,1525.0,333/1000,60,210.88
8678,D5,1525.25,0.25,49,210.88
8679,F3,1525.333,333/1000,58,210.88
8680,C#5,1525.5,0.25,49,210.88
8681,F3,1525.667,167/1000,58,210.88
8682,B4,1525.75,0.25,49,210.88
8683,A4,1526.0,0.25,55,210.88
8684,F3,1526.0,333/1000,62,210.88
8685,B4,1526.25,0.25,50,210.88
8686,F3,1526.333,333/1000,58,210.88
8687,C#5,1526.5,0.25,50,210.88
8688,F3,1526.667,333/1000,58,210.88
8689,B4,1526.75,0.25,50,210.88
8690,A4,1527.0,0.25,55,210.88
8691,E-3,1527.0,333/1000,61,210.88
8692,B-2,1527.0,1.0,61,210.88
8693,B4,1527.25,0.25,50,210.88
8694,F3,1527.333,333/1000,53,210.88
8695,A4,1527.5,0.25,52,210.88
8696,D3,1527.667,333/1000,53,210.88
8697,G#4,1527.75,0.25,51,210.88
8698,G4,1528.0,333/1000,57,210.88
8699,E-3,1528.0,333/1000,60,210.88
8700,F2,1528.0,1.0,60,210.88
8701,C#5,1528.333,317/1000,52,210.88
8702,F3,1528.333,317/1000,55,210.88
8703,F3,1528.667,317/1000,55,210.88
8704,C#4,1528.667,317/1000,48,210.88
8705,G4,1528.667,317/1000,48,210.88
8706,C#5,1528.667,317/1000,48,210.88
8707,E-3,1529.0,333/1000,60,210.88
8708,F2,1529.0,1.0,60,210.88
8709,C#4,1529.0,317/1000,53,210.88
8710,G4,1529.0,317/1000,53,210.88
8711,C#5,1529.0,317/1000,53,210.88
8712,F3,1529.333,317/1000,56,210.88
8713,C#4,1529.333,317/1000,50,210.88
8714,G4,1529.333,317/1000,50,210.88
8715,C#5,1529.333,317/1000,50,210.88
8716,F3,1529.667,317/1000,56,210.88
8717,C#4,1529.667,317/1000,51,210.88
8718,G4,1529.667,317/1000,51,210.88
8719,C#5,1529.667,317/1000,51,210.88
8720,E-3,1530.0,333/1000,62,210.88
8721,F2,1530.0,1.0,62,210.88
8722,C#4,1530.0,317/1000,55,210.88
8723,G4,1530.0,317/1000,55,210.88
8724,C#5,1530.0,317/1000,55,210.88
8725,F3,1530.333,317/1000,58,210.88
8726,C#4,1530.333,317/1000,50,210.88
8727,G4,1530.333,317/1000,50,210.88
8728,C#5,1530.333,317/1000,50,210.88
8729,F3,1530.667,317/1000,58,210.88
8730,C#4,1530.667,317/1000,50,210.88
8731,G4,1530.667,317/1000,50,210.88
8732,C#5,1530.667,317/1000,50,210.88
8733,D3,1531.0,333/1000,62,210.88
8734,F2,1531.0,1.0,62,210.88
8735,C#4,1531.0,317/1000,58,210.88
8736,G4,1531.0,317/1000,58,210.88
8737,C#5,1531.0,317/1000,58,210.88
8738,F3,1531.333,333/1000,59,210.88
8739,C#4,1531.333,317/1000,54,210.88
8740,G4,1531.333,317/1000,54,210.88
8741,C#5,1531.333,317/1000,54,210.88
8742,C3,1531.667,333/1000,59,210.88
8743,C#4,1531.667,317/1000,55,210.88
8744,G4,1531.667,317/1000,55,210.88
8745,C#5,1531.667,317/1000,55,210.88
8746,D3,1532.0,333/1000,62,210.88
8747,B-2,1532.0,3.0,62,210.88
8748,C#4,1532.0,317/1000,60,210.88
8749,G4,1532.0,317/1000,60,210.88
8750,C#5,1532.0,317/1000,60,210.88
8751,F3,1532.333,317/1000,56,210.88
8752,C#4,1532.333,317/1000,57,210.88
8753,G4,1532.333,317/1000,57,210.88
8754,C#5,1532.333,317/1000,57,210.88
8755,F3,1532.667,317/1000,56,210.88
8756,C#4,1532.667,317/1000,58,210.88
8757,G4,1532.667,317/1000,58,210.88
8758,C#5,1532.667,317/1000,58,210.88
8759,E-3,1533.0,333/1000,60,210.88
8760,C#4,1533.0,317/1000,63,210.88
8761,G4,1533.0,317/1000,63,210.88
8762,C#5,1533.0,317/1000,63,210.88
8763,G3,1533.333,317/1000,56,210.88
8764,C#4,1533.333,317/1000,60,210.88
8765,G4,1533.333,317/1000,60,210.88
8766,C#5,1533.333,317/1000,60,210.88
8767,G3,1533.667,317/1000,56,210.88
8768,C#4,1533.667,317/1000,61,210.88
8769,G4,1533.667,317/1000,61,210.88
8770,C#5,1533.667,317/1000,61,210.88
8771,D3,1534.0,333/1000,60,210.88
8772,C#4,1534.0,317/1000,66,210.88
8773,G4,1534.0,317/1000,66,210.88
8774,C#5,1534.0,317/1000,66,210.88
8775,F3,1534.333,317/1000,56,210.88
8776,C#4,1534.333,317/1000,63,210.88
8777,G4,1534.333,317/1000,63,210.88
8778,C#5,1534.333,317/1000,63,210.88
8779,F3,1534.667,317/1000,57,210.88
8780,C#4,1534.667,317/1000,64,210.88
8781,G4,1534.667,317/1000,64,210.88
8782,C#5,1534.667,317/1000,64,210.88
8783,D3,1535.0,333/1000,59,210.88
8784,G#2,1535.0,1.0,59,210.88
8785,F4,1535.0,317/1000,76,210.88
8786,D4,1535.0,317/1000,76,210.88
8787,D5,1535.0,317/1000,76,210.88
8788,F3,1535.333,317/1000,54,210.88
8789,F4,1535.333,317/1000,71,210.88
8790,D4,1535.333,317/1000,71,210.88
8791,D5,1535.333,317/1000,71,210.88
8792,F3,1535.667,317/1000,54,210.88
8793,F4,1535.667,317/1000,71,210.88
8794,D4,1535.667,317/1000,71,210.88
8795,D5,1535.667,317/1000,71,210.88
8796,F3,1536.0,333/1000,59,210.88
8797,G2,1536.0,3.0,59,210.88
8798,D4,1536.0,1.0,77,210.88
8799,F4,1536.0,1.0,77,210.88
8800,D5,1536.0,1.0,77,210.88
8801,G3,1536.333,317/1000,53,210.88
8802,G3,1536.667,317/1000,53,210.88
8803,F3,1537.0,333/1000,56,210.88
8804,C4,1537.0,1.0,72,210.88
8805,A4,1537.0,1.0,72,210.88
8806,C5,1537.0,1.0,72,210.88
8807,G3,1537.333,317/1000,53,210.88
8808,G3,1537.667,317/1000,53,210.88
8809,F3,1538.0,333/1000,57,210.88
8810,B-3,1538.0,1.0,72,210.88
8811,F4,1538.0,1.0,72,210.88
8812,B-4,1538.0,1.0,72,210.88
8813,G3,1538.333,317/1000,51,210.88
8814,G3,1538.667,317/1000,51,210.88
8815,E-3,1539.0,333/1000,56,210.88
8816,G2,1539.0,1.0,56,210.88
8817,C4,1539.0,1.0,72,210.88
8818,F4,1539.0,1.0,72,210.88
8819,C5,1539.0,1.0,72,210.88
8820,G3,1539.333,333/1000,51,210.88
8821,D3,1539.667,333/1000,51,210.88
8822,C3,1540.0,333/1000,54,210.88
8823,G2,1540.0,1.0,54,210.88
8824,D4,1540.0,3.0,78,210.88
8825,F4,1540.0,3.0,78,210.88
8826,D5,1540.0,3.0,78,210.88
8827,G3,1540.333,317/1000,50,210.88
8828,G3,1540.667,317/1000,50,210.88
8829,F3,1541.0,333/1000,54,210.88
8830,G2,1541.0,1.0,54,210.88
8831,G3,1541.333,317/1000,50,210.88
8832,G3,1541.667,317/1000,50,210.88
8833,E-3,1542.0,333/1000,55,210.88
8834,G2,1542.0,1.0,55,210.88
8835,G3,1542.333,317/1000,50,210.88
8836,G3,1542.667,317/1000,50,210.88
8837,E-3,1543.0,333/1000,57,210.88
8838,F#2,1543.0,1.0,57,210.88
8839,C4,1543.0,0.5,75,210.88
8840,F4,1543.0,0.5,75,210.88
8841,C5,1543.0,0.5,75,210.88
8842,F#3,1543.333,317/1000,52,210.88
8843,B-3,1543.5,0.5,70,210.88
8844,F4,1543.5,0.5,70,210.88
8845,B-4,1543.5,0.5,70,210.88
8846,F#3,1543.667,317/1000,52,210.88
8847,E-3,1544.0,333/1000,58,210.88
8848,F2,1544.0,3.0,58,210.88
8849,C4,1544.0,99/100,74,210.88
8850,F4,1544.0,99/100,74,210.88
8851,C5,1544.0,99/100,74,210.88
8852,F3,1544.333,317/1000,52,210.88
8853,F3,1544.667,317/1000,52,210.88
8854,E-3,1545.0,333/1000,56,210.88
8855,C4,1545.0,99/100,71,210.88
8856,F4,1545.0,99/100,71,210.88
8857,C5,1545.0,99/100,71,210.88
8858,F3,1545.333,317/1000,52,210.88
8859,F3,1545.667,317/1000,53,210.88
8860,E-3,1546.0,333/1000,57,210.88
8861,C4,1546.0,99/100,71,210.88
8862,F4,1546.0,99/100,71,210.88
8863,C5,1546.0,99/100,71,210.88
8864,F3,1546.333,317/1000,52,210.88
8865,F3,1546.667,317/1000,52,210.88
8866,D3,1547.0,333/1000,57,210.88
8867,F2,1547.0,1.0,57,210.88
8868,B-3,1547.0,0.5,74,210.88
8869,F4,1547.0,0.5,74,210.88
8870,B-4,1547.0,0.5,74,210.88
8871,F3,1547.333,333/1000,54,210.88
8872,A3,1547.5,0.5,70,210.88
8873,F4,1547.5,0.5,70,210.88
8874,A4,1547.5,0.5,70,210.88
8875,C3,1547.667,333/1000,51,210.88
8876,F4,1548.0,1.0,75,210.88
8877,B-2,1548.0,333/1000,58,210.88
8878,F2,1548.0,1.0,58,210.88
8879,B-3,1548.0,3.0,82,210.88
8880,B-4,1548.0,3.0,82,210.88
8881,F3,1548.333,317/1000,53,210.88
8882,F3,1548.667,317/1000,53,210.88
8883,C3,1549.0,333/1000,58,210.88
8884,F2,1549.0,1.0,58,210.88
8885,E-4,1549.0,1.0,80,210.88
8886,G4,1549.0,1.0,80,210.88
8887,F3,1549.333,317/1000,52,210.88
8888,F3,1549.667,317/1000,52,210.88
8889,D3,1550.0,333/1000,56,210.88
8890,F2,1550.0,1.0,56,210.88
8891,D4,1550.0,1.0,76,210.88
8892,F4,1550.0,1.0,76,210.88
8893,F3,1550.333,317/1000,52,210.88
8894,F3,1550.667,317/1000,52,210.88
8895,E-3,1551.0,333/1000,56,210.88
8896,F2,1551.0,1.0,56,210.88
8897,D4,1551.0,1.0,76,210.88
8898,F4,1551.0,1.0,76,210.88
8899,D5,1551.0,1.0,76,210.88
8900,F3,1551.333,317/1000,52,210.88
8901,F3,1551.667,317/1000,52,210.88
8902,D4,1552.0,3.0,76,210.88
8903,G4,1552.0,3.0,76,210.88
8904,D5,1552.0,3.0,76,210.88
8905,F2,1552.0,2.0,51,210.88
8906,E-3,1552.0,2.0,51,210.88
8907,F3,1552.333,317/1000,50,210.88
8908,F3,1552.667,317/1000,50,210.88
8909,F3,1553.0,317/1000,50,210.88
8910,F3,1553.333,317/1000,50,210.88
8911,F3,1553.667,317/1000,49,210.88
8912,F3,1554.0,317/1000,49,210.88
8913,F3,1554.333,317/1000,49,210.88
8914,F3,1554.667,317/1000,49,210.88
8915,F3,1555.0,317/1000,48,210.88
8916,C4,1555.0,0.5,71,210.88
8917,G4,1555.0,0.5,71,210.88
8918,C5,1555.0,0.5,71,210.88
8919,F3,1555.333,317/1000,48,210.88
8920,B3,1555.5,0.5,67,210.88
8921,G4,1555.5,0.5,67,210.88
8922,B4,1555.5,0.5,67,210.88
8923,F3,1555.667,317/1000,48,210.88
8924,E-4,1556.0,1.0,80,210.88
8925,G4,1556.0,1.0,80,210.88
8926,E-5,1556.0,1.0,80,210.88
8927,F2,1556.0,4.0,46,210.88
8928,D3,1556.0,4.0,46,210.88
8929,F3,1556.333,317/1000,42,210.88
8930,F3,1556.667,317/1000,39,210.88
8931,F3,1557.0,317/1000,38,210.88
8932,D4,1557.0,1.0,77,210.88
8933,G4,1557.0,1.0,77,210.88
8934,D5,1557.0,1.0,77,210.88
8935,F3,1557.333,317/1000,38,210.88
8936,F3,1557.667,317/1000,37,210.88
8937,F3,1558.0,317/1000,37,210.88
8938,C4,1558.0,1.0,75,210.88
8939,G4,1558.0,1.0,75,210.88
8940,C5,1558.0,1.0,75,210.88
8941,F3,1558.333,317/1000,36,210.88
8942,F3,1558.667,317/1000,35,210.88
8943,F3,1559.0,317/1000,36,210.88
8944,C4,1559.0,1.0,73,210.88
8945,A4,1559.0,1.0,73,210.88
8946,C5,1559.0,1.0,73,210.88
8947,F3,1559.333,317/1000,40,210.88
8948,F3,1559.667,317/1000,44,210.88
8949,F3,1560.0,333/1000,50,210.88
8950,F4,1560.0,3.0,77,210.88
8951,C4,1560.0,3.0,77,210.88
8952,A4,1560.0,3.0,77,210.88
8953,C5,1560.0,3.0,77,210.88
8954,G#2,1560.333,317/1000,42,210.88
8955,G#2,1560.667,317/1000,42,210.88
8956,G#2,1561.0,317/1000,42,210.88
8957,G#2,1561.333,317/1000,42,210.88
8958,G#2,1561.667,317/1000,42,210.88
8959,G#2,1562.0,317/1000,42,210.88
8960,G#2,1562.333,317/1000,42,210.88
8961,G#2,1562.667,317/1000,42,210.88
8962,G#2,1563.0,317/1000,44,210.88
8963,B-3,1563.0,0.5,75,210.88
8964,F4,1563.0,0.5,75,210.88
8965,B-4,1563.0,0.5,75,210.88
8966,G#2,1563.333,317/1000,44,210.88
8967,A3,1563.5,0.5,68,210.88
8968,F4,1563.5,0.5,68,210.88
8969,A4,1563.5,0.5,68,210.88
8970,G#2,1563.667,317/1000,44,210.88
8971,G#2,1564.0,333/1000,49,210.88
8972,D4,1564.0,1.0,78,210.88
8973,F4,1564.0,1.0,78,210.88
8974,D5,1564.0,1.0,78,210.88
8975,F#2,1564.333,317/1000,49,210.88
8976,F#2,1564.667,317/1000,49,210.88
8977,F#2,1565.0,317/1000,55,210.88
8978,A3,1565.0,1.0,74,210.88
8979,F4,1565.0,1.0,74,210.88
8980,A4,1565.0,1.0,74,210.88
8981,F#2,1565.333,317/1000,55,210.88
8982,F#2,1565.667,317/1000,56,210.88
8983,F#2,1566.0,0.5,63,210.88
8984,B-3,1566.0,1.0,78,210.88
8985,F4,1566.0,1.0,78,210.88
8986,B-4,1566.0,1.0,78,210.88
8987,F#2,1567.0,0.75,65,210.88
8988,F4,1567.0,1.0,70,210.88
8989,C4,1567.0,1.0,70,210.88
8990,A4,1567.0,1.0,70,210.88
8991,C5,1567.0,1.0,70,210.88
8992,E-2,1567.75,83/1000,59,210.88
8993,D2,1567.833,83/1000,61,210.88
8994,C#2,1567.917,83/1000,59,210.88
8995,F4,1568.0,4.0,75,210.88
8996,B1,1568.0,0.25,65,210.88
8997,C4,1568.0,4.0,76,210.88
8998,A4,1568.0,4.0,76,210.88
8999,C5,1568.0,4.0,76,210.88
9000,B3,1571.0,1.0,42,210.88
9001,F#4,1571.0,1.0,42,210.88
9002,F4,1572.0,2.0,75,210.88
9003,B3,1572.0,2.5,42,210.88
9004,F#4,1572.0,1.5,42,210.88
9005,B3,1572.0,3.0,65,210.88
9006,G#4,1572.0,3.0,65,210.88
9007,B4,1572.0,3.0,65,210.88
9008,E4,1573.5,0.5,38,210.88
9009,D4,1574.0,0.5,41,210.88
9010,D4,1575.0,1.0,58,210.88
9011,F4,1575.0,1.0,58,210.88
9012,G#4,1575.0,1.0,58,210.88
9013,B4,1575.0,1.0,58,210.88
9014,B3,1575.0,1.0,38,210.88
9015,D4,1575.0,1.0,38,210.88
9016,B3,1576.0,2.0,41,210.88
9017,D4,1576.0,1.5,41,210.88
9018,D4,1576.0,3.0,58,210.88
9019,F4,1576.0,3.0,58,210.88
9020,G#4,1576.0,3.0,58,210.88
9021,B4,1576.0,3.0,58,210.88
9022,C#4,1577.5,0.5,41,210.88
9023,B3,1578.0,0.5,44,210.88
9024,B3,1579.0,1.0,34,210.88
9025,F4,1579.0,1.0,70,210.88
9026,B4,1579.0,1.0,70,210.88
9027,D5,1579.0,1.0,70,210.88
9028,F#4,1580.0,2.5,72,210.88
9029,B3,1580.0,1.0,41,210.88
9030,B4,1580.0,2.0,79,210.88
9031,D5,1580.0,2.0,79,210.88
9032,C#4,1581.0,1.0,42,210.88
9033,D4,1582.0,1.0,47,210.88
9034,B-4,1582.0,0.5,80,210.88
9035,C#5,1582.0,0.5,80,210.88
9036,C#5,1583.0,0.5,84,210.88
9037,E5,1583.0,0.5,84,210.88
9038,F#5,1583.0,0.5,84,210.88
9039,B-5,1583.0,0.5,84,210.88
9040,A3,1583.0,1.0,34,210.88
9041,E4,1583.0,1.0,34,210.88
9042,F#5,1584.0,317/1000,82,210.88
9043,D5,1584.0,317/1000,82,210.88
9044,B5,1584.0,317/1000,82,210.88
9045,D4,1584.0,1.0,43,210.88
9046,F#4,1584.0,1.0,43,210.88
9047,D5,1584.333,317/1000,31,210.88
9048,F#5,1584.333,317/1000,31,210.88
9049,D5,1584.667,317/1000,33,210.88
9050,F#5,1584.667,317/1000,33,210.88
9051,D5,1585.0,317/1000,35,210.88
9052,F#5,1585.0,317/1000,35,210.88
9053,C#4,1585.0,1.0,42,210.88
9054,F#4,1585.0,1.0,42,210.88
9055,D5,1585.333,317/1000,32,210.88
9056,F#5,1585.333,317/1000,32,210.88
9057,D5,1585.667,317/1000,32,210.88
9058,F#5,1585.667,317/1000,32,210.88
9059,D5,1586.0,317/1000,35,210.88
9060,F#5,1586.0,317/1000,35,210.88
9061,B3,1586.0,1.0,42,210.88
9062,F#4,1586.0,1.0,42,210.88
9063,D5,1586.333,317/1000,32,210.88
9064,F#5,1586.333,317/1000,32,210.88
9065,D5,1586.667,333/1000,32,210.88
9066,F#5,1586.667,333/1000,32,210.88
9067,B5,1587.0,1.0,54,210.88
9068,A3,1587.0,1.0,36,210.88
9069,G4,1587.0,1.0,36,210.88
9070,D5,1587.333,317/1000,30,210.88
9071,F#5,1587.333,317/1000,30,210.88
9072,D5,1587.667,317/1000,30,210.88
9073,F#5,1587.667,317/1000,30,210.88
9074,B5,1588.0,1.0,53,210.88
9075,A3,1588.0,2.0,36,210.88
9076,G4,1588.0,2.0,36,210.88
9077,D5,1588.333,317/1000,30,210.88
9078,F#5,1588.333,317/1000,30,210.88
9079,D5,1588.667,317/1000,30,210.88
9080,F#5,1588.667,317/1000,30,210.88
9081,D6,1589.0,1.0,53,210.88
9082,D5,1589.333,317/1000,28,210.88
9083,F#5,1589.333,317/1000,28,210.88
9084,D5,1589.667,317/1000,28,210.88
9085,F#5,1589.667,317/1000,28,210.88
9086,B5,1590.0,1.0,53,210.88
9087,B-3,1590.0,1.0,34,210.88
9088,F#4,1590.0,1.0,34,210.88
9089,D5,1590.333,317/1000,30,210.88
9090,F#5,1590.333,317/1000,30,210.88
9091,D5,1590.667,317/1000,30,210.88
9092,F#5,1590.667,317/1000,30,210.88
9093,D6,1591.0,1.0,53,210.88
9094,B3,1591.0,1.0,33,210.88
9095,F#4,1591.0,1.0,33,210.88
9096,D5,1591.333,317/1000,28,210.88
9097,F#5,1591.333,317/1000,28,210.88
9098,D5,1591.667,317/1000,28,210.88
9099,F#5,1591.667,317/1000,28,210.88
9100,D6,1592.0,1.0,56,210.88
9101,B3,1592.0,2.5,32,210.88
9102,F#4,1592.0,1.5,42,210.88
9103,F#5,1592.333,333/1000,30,210.88
9104,B5,1592.333,333/1000,30,210.88
9105,F#5,1592.667,317/1000,30,210.88
9106,B5,1592.667,317/1000,30,210.88
9107,F#6,1593.0,1.0,55,210.88
9108,F#5,1593.333,317/1000,30,210.88
9109,B5,1593.333,317/1000,30,210.88
9110,E4,1593.5,0.5,38,210.88
9111,F#5,1593.667,317/1000,30,210.88
9112,B5,1593.667,317/1000,30,210.88
9113,D6,1594.0,1.0,55,210.88
9114,D4,1594.0,0.5,41,210.88
9115,F#5,1594.333,317/1000,30,210.88
9116,B5,1594.333,317/1000,30,210.88
9117,F#5,1594.667,317/1000,30,210.88
9118,B5,1594.667,317/1000,30,210.88
9119,F#6,1595.0,1.0,56,210.88
9120,B3,1595.0,1.0,35,210.88
9121,D4,1595.0,1.0,35,210.88
9122,F#5,1595.333,317/1000,30,210.88
9123,B5,1595.333,317/1000,30,210.88
9124,F#5,1595.667,317/1000,30,210.88
9125,B5,1595.667,317/1000,30,210.88
9126,F#5,1596.0,1.0,56,210.88
9127,B3,1596.0,2.0,34,210.88
9128,D4,1596.0,1.5,41,210.88
9129,B4,1596.333,317/1000,30,210.88
9130,D5,1596.333,317/1000,30,210.88
9131,B4,1596.667,317/1000,30,210.88
9132,D5,1596.667,317/1000,30,210.88
9133,B-5,1597.0,1.0,56,210.88
9134,F#5,1597.333,317/1000,31,210.88
9135,B-4,1597.333,317/1000,31,210.88
9136,E5,1597.333,317/1000,31,210.88
9137,C#4,1597.5,0.5,41,210.88
9138,F#5,1597.667,333/1000,32,210.88
9139,B-4,1597.667,333/1000,32,210.88
9140,E5,1597.667,333/1000,32,210.88
9141,B5,1598.0,1.0,58,210.88
9142,B3,1598.0,0.5,44,210.88
9143,F#5,1598.333,317/1000,32,210.88
9144,B4,1598.333,317/1000,32,210.88
9145,D5,1598.333,317/1000,32,210.88
9146,F#5,1598.667,333/1000,33,210.88
9147,B4,1598.667,333/1000,33,210.88
9148,D5,1598.667,333/1000,33,210.88
9149,C#6,1599.0,1.0,62,210.88
9150,B3,1599.0,1.0,34,210.88
9151,A5,1599.333,317/1000,34,210.88
9152,C#5,1599.333,317/1000,34,210.88
9153,G5,1599.333,317/1000,34,210.88
9154,A5,1599.667,317/1000,34,210.88
9155,C#5,1599.667,317/1000,34,210.88
9156,G5,1599.667,317/1000,34,210.88
9157,D6,1600.0,1.0,61,210.88
9158,B3,1600.0,1.0,41,210.88
9159,D5,1600.333,317/1000,32,210.88
9160,F#5,1600.333,317/1000,32,210.88
9161,A5,1600.333,317/1000,32,210.88
9162,D5,1600.667,317/1000,31,210.88
9163,F#5,1600.667,317/1000,31,210.88
9164,A5,1600.667,317/1000,31,210.88
9165,E6,1601.0,1.0,60,210.88
9166,C#4,1601.0,1.0,42,210.88
9167,B-5,1601.333,317/1000,33,210.88
9168,E5,1601.333,317/1000,33,210.88
9169,F#5,1601.333,317/1000,33,210.88
9170,B-5,1601.667,317/1000,32,210.88
9171,E5,1601.667,317/1000,32,210.88
9172,F#5,1601.667,317/1000,32,210.88
9173,D6,1602.0,1.0,57,210.88
9174,D4,1602.0,1.0,47,210.88
9175,D5,1602.333,317/1000,31,210.88
9176,B5,1602.333,317/1000,31,210.88
9177,F#5,1602.333,317/1000,31,210.88
9178,D5,1602.667,317/1000,30,210.88
9179,B5,1602.667,317/1000,30,210.88
9180,F#5,1602.667,317/1000,30,210.88
9181,C#6,1603.0,1.0,56,210.88
9182,A3,1603.0,1.0,34,210.88
9183,E4,1603.0,1.0,34,210.88
9184,A5,1603.333,317/1000,30,210.88
9185,C#5,1603.333,317/1000,30,210.88
9186,E5,1603.333,317/1000,30,210.88
9187,A5,1603.667,317/1000,30,210.88
9188,C#5,1603.667,317/1000,30,210.88
9189,E5,1603.667,317/1000,30,210.88
9190,C#6,1604.0,2.0,54,210.88
9191,D4,1604.0,1.0,43,210.88
9192,F#4,1604.0,1.0,43,210.88
9193,C#5,1604.333,317/1000,28,210.88
9194,E5,1604.333,317/1000,28,210.88
9195,A5,1604.333,317/1000,28,210.88
9196,C#5,1604.667,317/1000,28,210.88
9197,E5,1604.667,317/1000,28,210.88
9198,A5,1604.667,317/1000,28,210.88
9199,C#5,1605.0,317/1000,28,210.88
9200,E5,1605.0,317/1000,28,210.88
9201,A5,1605.0,317/1000,28,210.88
9202,C#4,1605.0,1.0,42,210.88
9203,F#4,1605.0,1.0,42,210.88
9204,C#5,1605.333,317/1000,28,210.88
9205,E5,1605.333,317/1000,28,210.88
9206,A5,1605.333,317/1000,28,210.88
9207,C#5,1605.667,333/1000,29,210.88
9208,E5,1605.667,333/1000,29,210.88
9209,A5,1605.667,333/1000,29,210.88
9210,C#6,1606.0,1.0,55,210.88
9211,B3,1606.0,1.0,42,210.88
9212,F#4,1606.0,1.0,42,210.88
9213,C#5,1606.333,317/1000,26,210.88
9214,E5,1606.333,317/1000,26,210.88
9215,F#5,1606.333,317/1000,26,210.88
9216,C#5,1606.667,317/1000,27,210.88
9217,E5,1606.667,317/1000,27,210.88
9218,F#5,1606.667,317/1000,27,210.88
9219,D6,1607.0,1.0,54,210.88
9220,A3,1607.0,1.0,36,210.88
9221,G4,1607.0,1.0,36,210.88
9222,D5,1607.333,317/1000,27,210.88
9223,F#5,1607.333,317/1000,27,210.88
9224,D5,1607.667,317/1000,27,210.88
9225,F#5,1607.667,317/1000,27,210.88
9226,B5,1608.0,1.0,53,210.88
9227,A3,1608.0,2.0,36,210.88
9228,G4,1608.0,2.0,36,210.88
9229,D5,1608.333,317/1000,30,210.88
9230,F#5,1608.333,317/1000,30,210.88
9231,D5,1608.667,317/1000,30,210.88
9232,F#5,1608.667,317/1000,30,210.88
9233,D6,1609.0,1.0,53,210.88
9234,D5,1609.333,317/1000,28,210.88
9235,F#5,1609.333,317/1000,28,210.88
9236,D5,1609.667,317/1000,28,210.88
9237,F#5,1609.667,317/1000,28,210.88
9238,B5,1610.0,1.0,53,210.88
9239,D4,1610.0,333/1000,37,210.88
9240,F#4,1610.0,333/1000,37,210.88
9241,A4,1610.333,317/1000,29,210.88
9242,D5,1610.333,317/1000,30,210.88
9243,F#5,1610.333,317/1000,30,210.88
9244,A4,1610.667,317/1000,29,210.88
9245,D5,1610.667,317/1000,30,210.88
9246,F#5,1610.667,317/1000,30,210.88
9247,D6,1611.0,1.0,53,210.88
9248,A4,1611.0,317/1000,33,210.88
9249,A4,1611.333,317/1000,29,210.88
9250,D5,1611.333,317/1000,28,210.88
9251,F#5,1611.333,317/1000,28,210.88
9252,A4,1611.667,317/1000,29,210.88
9253,D5,1611.667,317/1000,28,210.88
9254,F#5,1611.667,317/1000,28,210.88
9255,D6,1612.0,1.0,56,210.88
9256,E-4,1612.0,0.25,33,210.88
9257,A4,1612.25,0.25,27,210.88
9258,F#5,1612.333,317/1000,30,210.88
9259,B5,1612.333,317/1000,30,210.88
9260,F#4,1612.5,0.25,27,210.88
9261,F#5,1612.667,317/1000,30,210.88
9262,B5,1612.667,317/1000,30,210.88
9263,A4,1612.75,0.25,27,210.88
9264,F#6,1613.0,1.0,55,210.88
9265,E-4,1613.0,0.25,33,210.88
9266,A4,1613.25,0.25,28,210.88
9267,F#5,1613.333,317/1000,30,210.88
9268,B5,1613.333,317/1000,30,210.88
9269,F#4,1613.5,0.25,28,210.88
9270,F#5,1613.667,317/1000,30,210.88
9271,B5,1613.667,317/1000,30,210.88
9272,A4,1613.75,0.25,29,210.88
9273,D6,1614.0,1.0,55,210.88
9274,E-4,1614.0,0.25,33,210.88
9275,A4,1614.25,0.25,29,210.88
9276,F#5,1614.333,317/1000,30,210.88
9277,B5,1614.333,317/1000,30,210.88
9278,F#4,1614.5,0.25,29,210.88
9279,F#5,1614.667,317/1000,30,210.88
9280,B5,1614.667,317/1000,30,210.88
9281,A4,1614.75,0.25,29,210.88
9282,F#6,1615.0,1.0,56,210.88
9283,D4,1615.0,0.25,33,210.88
9284,A4,1615.25,0.25,29,210.88
9285,F#5,1615.333,317/1000,30,210.88
9286,B5,1615.333,317/1000,30,210.88
9287,F#4,1615.5,0.25,29,210.88
9288,F#5,1615.667,317/1000,30,210.88
9289,B5,1615.667,317/1000,30,210.88
9290,A4,1615.75,0.25,29,210.88
9291,F#5,1616.0,1.0,56,210.88
9292,C4,1616.0,0.25,33,210.88
9293,A4,1616.25,0.25,27,210.88
9294,B4,1616.333,317/1000,30,210.88
9295,D5,1616.333,317/1000,30,210.88
9296,F#4,1616.5,0.25,27,210.88
9297,B4,1616.667,333/1000,30,210.88
9298,D5,1616.667,333/1000,30,210.88
9299,A4,1616.75,0.25,27,210.88
9300,B-5,1617.0,1.0,56,210.88
9301,C4,1617.0,0.25,33,210.88
9302,A4,1617.25,0.25,28,210.88
9303,F#5,1617.333,317/1000,31,210.88
9304,B-4,1617.333,317/1000,31,210.88
9305,E5,1617.333,317/1000,31,210.88
9306,F#4,1617.5,0.25,28,210.88
9307,F#5,1617.667,317/1000,32,210.88
9308,B-4,1617.667,317/1000,32,210.88
9309,E5,1617.667,317/1000,32,210.88
9310,A4,1617.75,0.25,29,210.88
9311,B5,1618.0,1.0,58,210.88
9312,C4,1618.0,0.25,33,210.88
9313,A4,1618.25,0.25,29,210.88
9314,F#5,1618.333,317/1000,32,210.88
9315,B4,1618.333,317/1000,32,210.88
9316,D5,1618.333,317/1000,32,210.88
9317,F#4,1618.5,0.25,29,210.88
9318,F#5,1618.667,317/1000,33,210.88
9319,B4,1618.667,317/1000,33,210.88
9320,D5,1618.667,317/1000,33,210.88
9321,A4,1618.75,0.25,29,210.88
9322,C#6,1619.0,1.0,62,210.88
9323,B3,1619.0,0.25,33,210.88
9324,A4,1619.25,0.25,29,210.88
9325,A5,1619.333,317/1000,34,210.88
9326,C#5,1619.333,317/1000,34,210.88
9327,G5,1619.333,317/1000,34,210.88
9328,F#4,1619.5,0.25,29,210.88
9329,A5,1619.667,317/1000,34,210.88
9330,C#5,1619.667,317/1000,34,210.88
9331,G5,1619.667,317/1000,34,210.88
9332,A4,1619.75,0.25,29,210.88
9333,D6,1620.0,1.0,61,210.88
9334,B3,1620.0,0.25,33,210.88
9335,A4,1620.25,0.25,28,210.88
9336,D5,1620.333,317/1000,32,210.88
9337,F#5,1620.333,317/1000,32,210.88
9338,A5,1620.333,317/1000,32,210.88
9339,F#4,1620.5,0.25,28,210.88
9340,D5,1620.667,317/1000,31,210.88
9341,F#5,1620.667,317/1000,31,210.88
9342,A5,1620.667,317/1000,31,210.88
9343,A4,1620.75,0.25,28,210.88
9344,E6,1621.0,1.0,60,210.88
9345,B3,1621.0,0.25,34,210.88
9346,G4,1621.25,0.25,28,210.88
9347,B-5,1621.333,317/1000,33,210.88
9348,E5,1621.333,317/1000,33,210.88
9349,F#5,1621.333,317/1000,33,210.88
9350,E4,1621.5,0.25,28,210.88
9351,B-5,1621.667,317/1000,32,210.88
9352,E5,1621.667,317/1000,32,210.88
9353,F#5,1621.667,317/1000,32,210.88
9354,G4,1621.75,0.25,29,210.88
9355,D6,1622.0,1.0,57,210.88
9356,B3,1622.0,0.25,35,210.88
9357,F#4,1622.25,0.25,29,210.88
9358,B5,1622.333,317/1000,31,210.88
9359,D5,1622.333,317/1000,31,210.88
9360,F#5,1622.333,317/1000,31,210.88
9361,E-4,1622.5,0.25,29,210.88
9362,B5,1622.667,317/1000,30,210.88
9363,D5,1622.667,317/1000,30,210.88
9364,F#5,1622.667,317/1000,30,210.88
9365,F#4,1622.75,0.25,29,210.88
9366,C#6,1623.0,1.0,56,210.88
9367,B3,1623.0,0.25,36,210.88
9368,G4,1623.25,0.25,31,210.88
9369,A5,1623.333,317/1000,30,210.88
9370,C#5,1623.333,317/1000,30,210.88
9371,E5,1623.333,317/1000,30,210.88
9372,E4,1623.5,0.25,31,210.88
9373,A5,1623.667,317/1000,30,210.88
9374,C#5,1623.667,317/1000,30,210.88
9375,E5,1623.667,317/1000,30,210.88
9376,G4,1623.75,0.25,31,210.88
9377,C#6,1624.0,2.0,54,210.88
9378,B3,1624.0,0.25,37,210.88
9379,A4,1624.25,0.25,31,210.88
9380,C#5,1624.333,317/1000,28,210.88
9381,E5,1624.333,317/1000,28,210.88
9382,A5,1624.333,317/1000,28,210.88
9383,F#4,1624.5,0.25,32,210.88
9384,C#5,1624.667,317/1000,28,210.88
9385,E5,1624.667,317/1000,28,210.88
9386,A5,1624.667,317/1000,28,210.88
9387,A4,1624.75,0.25,32,210.88
9388,C4,1625.0,0.25,37,210.88
9389,C#5,1625.0,317/1000,28,210.88
9390,E5,1625.0,317/1000,28,210.88
9391,A5,1625.0,317/1000,28,210.88
9392,A4,1625.25,0.25,31,210.88
9393,C#5,1625.333,317/1000,28,210.88
9394,E5,1625.333,317/1000,28,210.88
9395,A5,1625.333,317/1000,28,210.88
9396,F#4,1625.5,0.25,31,210.88
9397,C#5,1625.667,317/1000,29,210.88
9398,E5,1625.667,317/1000,29,210.88
9399,A5,1625.667,317/1000,29,210.88
9400,A4,1625.75,0.25,31,210.88
9401,C#4,1626.0,0.25,38,210.88
9402,D5,1626.0,0.5,43,210.88
9403,F#5,1626.0,0.5,43,210.88
9404,A5,1626.0,0.5,43,210.88
9405,D6,1626.0,0.5,43,210.88
9406,A4,1626.25,0.25,32,210.88
9407,F#4,1626.5,0.25,32,210.88
9408,A4,1626.75,0.25,33,210.88
9409,A5,1627.0,1.0,52,210.88
9410,D4,1627.0,0.25,39,210.88
9411,A4,1627.25,0.25,32,210.88
9412,F#4,1627.5,0.25,34,210.88
9413,A4,1627.75,0.25,34,210.88
9414,A5,1628.0,1.5,54,210.88
9415,D4,1628.0,0.25,33,210.88
9416,A4,1628.25,0.25,27,210.88
9417,F#4,1628.5,0.25,27,210.88
9418,A4,1628.75,0.25,27,210.88
9419,E-4,1629.0,0.25,33,210.88
9420,A4,1629.25,0.25,28,210.88
9421,G5,1629.5,0.5,51,210.88
9422,F#4,1629.5,0.25,28,210.88
9423,A4,1629.75,0.25,29,210.88
9424,F#5,1630.0,0.5,51,210.88
9425,E-4,1630.0,0.25,33,210.88
9426,A4,1630.25,0.25,29,210.88
9427,F#4,1630.5,0.25,29,210.88
9428,A4,1630.75,0.25,29,210.88
9429,F#5,1631.0,1.0,52,210.88
9430,D4,1631.0,0.25,33,210.88
9431,A4,1631.25,0.25,29,210.88
9432,F#4,1631.5,0.25,29,210.88
9433,A4,1631.75,0.25,29,210.88
9434,F#5,1632.0,1.5,54,210.88
9435,C4,1632.0,0.25,33,210.88
9436,A4,1632.25,0.25,27,210.88
9437,F#4,1632.5,0.25,27,210.88
9438,A4,1632.75,0.25,27,210.88
9439,C4,1633.0,0.25,33,210.88
9440,A4,1633.25,0.25,28,210.88
9441,E5,1633.5,0.5,51,210.88
9442,F#4,1633.5,0.25,28,210.88
9443,A4,1633.75,0.25,29,210.88
9444,E-5,1634.0,0.5,51,210.88
9445,C4,1634.0,0.25,33,210.88
9446,A4,1634.25,0.25,29,210.88
9447,F#4,1634.5,0.25,29,210.88
9448,A4,1634.75,0.25,31,210.88
9449,B3,1635.0,0.25,36,210.88
9450,B4,1635.0,1.0,52,210.88
9451,E-5,1635.0,1.0,52,210.88
9452,A4,1635.25,0.25,31,210.88
9453,F#4,1635.5,0.25,31,210.88
9454,A4,1635.75,0.25,31,210.88
9455,B3,1636.0,0.25,36,210.88
9456,B4,1636.0,1.0,48,210.88
9457,E-5,1636.0,1.0,48,210.88
9458,A4,1636.25,0.25,30,210.88
9459,F#4,1636.5,0.25,30,210.88
9460,A4,1636.75,0.25,30,210.88
9461,B3,1637.0,0.25,37,210.88
9462,B4,1637.0,1.0,51,210.88
9463,E5,1637.0,1.0,51,210.88
9464,G4,1637.25,0.25,30,210.88
9465,E4,1637.5,0.25,30,210.88
9466,G4,1637.75,0.25,31,210.88
9467,B3,1638.0,0.25,38,210.88
9468,B4,1638.0,1.0,50,210.88
9469,E-5,1638.0,1.0,50,210.88
9470,F#5,1638.0,1.0,50,210.88
9471,F#4,1638.25,0.25,31,210.88
9472,E-4,1638.5,0.25,31,210.88
9473,F#4,1638.75,0.25,31,210.88
9474,B3,1639.0,0.25,39,210.88
9475,B4,1639.0,1.0,51,210.88
9476,E5,1639.0,1.0,51,210.88
9477,G5,1639.0,1.0,51,210.88
9478,G4,1639.25,0.25,34,210.88
9479,E4,1639.5,0.25,34,210.88
9480,G4,1639.75,0.25,34,210.88
9481,B3,1640.0,0.25,40,210.88
9482,B4,1640.0,1.0,53,210.88
9483,F#5,1640.0,1.0,53,210.88
9484,A5,1640.0,1.0,53,210.88
9485,A4,1640.25,0.25,34,210.88
9486,F#4,1640.5,0.25,35,210.88
9487,A4,1640.75,0.25,35,210.88
9488,C4,1641.0,0.25,40,210.88
9489,C5,1641.0,1.0,54,210.88
9490,F#5,1641.0,1.0,54,210.88
9491,A5,1641.0,1.0,54,210.88
9492,A4,1641.25,0.25,34,210.88
9493,F#4,1641.5,0.25,34,210.88
9494,A4,1641.75,0.25,34,210.88
9495,C#4,1642.0,0.25,41,210.88
9496,C#5,1642.0,1.0,55,210.88
9497,F#5,1642.0,1.0,55,210.88
9498,A5,1642.0,1.0,55,210.88
9499,A4,1642.25,0.25,35,210.88
9500,F#4,1642.5,0.25,35,210.88
9501,A4,1642.75,0.25,36,210.88
9502,D4,1643.0,0.25,42,210.88
9503,D5,1643.0,1.0,56,210.88
9504,F#5,1643.0,1.0,56,210.88
9505,A5,1643.0,1.0,56,210.88
9506,A4,1643.25,0.25,35,210.88
9507,F#4,1643.5,0.25,37,210.88
9508,A4,1643.75,0.25,37,210.88
9509,A5,1644.0,1.25,59,210.88
9510,D4,1644.0,0.25,36,210.88
9511,A4,1644.25,0.25,29,210.88
9512,F#4,1644.5,0.25,29,210.88
9513,A4,1644.75,0.25,29,210.88
9514,E-4,1645.0,0.25,36,210.88
9515,B-5,1645.25,0.25,51,210.88
9516,A4,1645.25,0.25,30,210.88
9517,A5,1645.5,0.25,53,210.88
9518,F#4,1645.5,0.25,30,210.88
9519,G5,1645.75,0.25,51,210.88
9520,A4,1645.75,0.25,31,210.88
9521,F#5,1646.0,0.5,56,210.88
9522,D4,1646.0,0.25,36,210.88
9523,A4,1646.25,0.25,31,210.88
9524,F#4,1646.5,0.25,31,210.88
9525,A4,1646.75,0.25,31,210.88
9526,F#5,1647.0,1.0,57,210.88
9527,C4,1647.0,0.25,36,210.88
9528,A4,1647.25,0.25,31,210.88
9529,F#4,1647.5,0.25,31,210.88
9530,A4,1647.75,0.25,31,210.88
9531,F#5,1648.0,1.25,59,210.88
9532,B-3,1648.0,0.25,36,210.88
9533,G4,1648.25,0.25,29,210.88
9534,D4,1648.5,0.25,29,210.88
9535,G4,1648.75,0.25,29,210.88
9536,A3,1649.0,0.25,36,210.88
9537,G5,1649.25,0.25,53,210.88
9538,G4,1649.25,0.25,30,210.88
9539,F#5,1649.5,0.25,53,210.88
9540,C4,1649.5,0.25,30,210.88
9541,E5,1649.75,0.25,53,210.88
9542,G4,1649.75,0.25,31,210.88
9543,E-5,1650.0,0.5,56,210.88
9544,G3,1650.0,0.25,36,210.88
9545,G4,1650.25,0.25,31,210.88
9546,B-3,1650.5,0.25,31,210.88
9547,G4,1650.75,0.25,31,210.88
9548,B-3,1651.0,0.25,36,210.88
9549,B4,1651.0,1.0,57,210.88
9550,E-5,1651.0,1.0,57,210.88
9551,G4,1651.25,0.25,31,210.88
9552,D4,1651.5,0.25,31,210.88
9553,G4,1651.75,0.25,31,210.88
9554,D4,1652.0,0.25,36,210.88
9555,B4,1652.0,0.75,52,210.88
9556,E-5,1652.0,0.75,52,210.88
9557,A4,1652.25,0.25,29,210.88
9558,F#4,1652.5,0.25,29,210.88
9559,A4,1652.75,0.25,29,210.88
9560,B4,1652.75,0.25,52,210.88
9561,E-5,1652.75,0.25,52,210.88
9562,E-4,1653.0,0.25,36,210.88
9563,B4,1653.0,0.75,56,210.88
9564,E5,1653.0,0.75,56,210.88
9565,A4,1653.25,0.25,30,210.88
9566,F#4,1653.5,0.25,30,210.88
9567,A4,1653.75,0.25,31,210.88
9568,B4,1653.75,0.25,56,210.88
9569,E5,1653.75,0.25,56,210.88
9570,D4,1654.0,0.25,36,210.88
9571,B4,1654.0,0.75,54,210.88
9572,E-5,1654.0,0.75,54,210.88
9573,F#5,1654.0,0.75,54,210.88
9574,A4,1654.25,0.25,31,210.88
9575,F#4,1654.5,0.25,31,210.88
9576,A4,1654.75,0.25,31,210.88
9577,B4,1654.75,0.25,54,210.88
9578,E-5,1654.75,0.25,54,210.88
9579,F#5,1654.75,0.25,54,210.88
9580,C4,1655.0,0.25,37,210.88
9581,B4,1655.0,0.75,55,210.88
9582,E5,1655.0,0.75,55,210.88
9583,G5,1655.0,0.75,55,210.88
9584,A4,1655.25,0.25,32,210.88
9585,F#4,1655.5,0.25,32,210.88
9586,A4,1655.75,0.25,32,210.88
9587,B4,1655.75,0.25,55,210.88
9588,E5,1655.75,0.25,55,210.88
9589,G5,1655.75,0.25,55,210.88
9590,B-3,1656.0,0.25,37,210.88
9591,B4,1656.0,0.75,58,210.88
9592,F#5,1656.0,0.75,58,210.88
9593,A5,1656.0,0.75,58,210.88
9594,B-4,1656.25,0.25,31,210.88
9595,G4,1656.5,0.25,32,210.88
9596,B-4,1656.75,0.25,32,210.88
9597,B4,1656.75,0.25,58,210.88
9598,F#5,1656.75,0.25,58,210.88
9599,A5,1656.75,0.25,58,210.88
9600,B-3,1657.0,0.25,39,210.88
9601,C5,1657.0,0.75,59,210.88
9602,F#5,1657.0,0.75,59,210.88
9603,A5,1657.0,0.75,59,210.88
9604,B-4,1657.25,0.25,34,210.88
9605,G4,1657.5,0.25,34,210.88
9606,B-4,1657.75,0.25,35,210.88
9607,C5,1657.75,0.25,59,210.88
9608,F#5,1657.75,0.25,59,210.88
9609,A5,1657.75,0.25,59,210.88
9610,B-3,1658.0,0.25,42,210.88
9611,C#5,1658.0,0.75,60,210.88
9612,F#5,1658.0,0.75,60,210.88
9613,A5,1658.0,0.75,60,210.88
9614,B-4,1658.25,0.25,37,210.88
9615,G4,1658.5,0.25,37,210.88
9616,B-4,1658.75,0.25,37,210.88
9617,C#5,1658.75,0.25,60,210.88
9618,F#5,1658.75,0.25,60,210.88
9619,A5,1658.75,0.25,60,210.88
9620,B-3,1659.0,0.25,44,210.88
9621,D5,1659.0,1.0,62,210.88
9622,F#5,1659.0,1.0,62,210.88
9623,A5,1659.0,1.0,62,210.88
9624,C5,1659.25,0.25,39,210.88
9625,G#4,1659.5,0.25,40,210.88
9626,C5,1659.75,0.25,40,210.88
9627,A5,1660.0,1.75,59,210.88
9628,B-3,1660.0,0.25,48,210.88
9629,B-4,1660.25,0.25,38,210.88
9630,G4,1660.5,0.25,38,210.88
9631,B-4,1660.75,0.25,38,210.88
9632,B-3,1661.0,0.25,47,210.88
9633,G#4,1661.25,0.25,39,210.88
9634,F4,1661.5,0.25,39,210.88
9635,G5,1661.75,0.25,56,210.88
9636,G#4,1661.75,0.25,39,210.88
9637,F#5,1662.0,0.5,56,210.88
9638,B-3,1662.0,0.25,42,210.88
9639,G4,1662.25,0.25,36,210.88
9640,E-4,1662.5,0.25,36,210.88
9641,G4,1662.75,0.25,37,210.88
9642,F#5,1663.0,1.0,57,210.88
9643,B-3,1663.0,0.25,42,210.88
9644,F4,1663.25,0.25,35,210.88
9645,C#4,1663.5,0.25,35,210.88
9646,F4,1663.75,0.25,35,210.88
9647,A5,1663.875,0.125,49,210.88
9648,G5,1664.0,0.25,60,210.88
9649,B-3,1664.0,0.25,35,210.88
9650,F#5,1664.25,0.25,57,210.88
9651,E4,1664.25,0.25,29,210.88
9652,G5,1664.5,0.25,57,210.88
9653,C#4,1664.5,0.25,29,210.88
9654,A5,1664.75,0.25,57,210.88
9655,E4,1664.75,0.25,29,210.88
9656,C6,1664.875,0.125,49,210.88
9657,B-5,1665.0,0.25,60,210.88
9658,B-3,1665.0,0.25,34,210.88
9659,A5,1665.25,0.25,57,210.88
9660,E4,1665.25,0.25,29,210.88
9661,B-5,1665.5,0.25,57,210.88
9662,C#4,1665.5,0.25,29,210.88
9663,C6,1665.75,0.25,57,210.88
9664,E4,1665.75,0.25,29,210.88
9665,D6,1666.0,0.5,59,210.88
9666,B-3,1666.0,0.25,33,210.88
9667,E4,1666.25,0.25,29,210.88
9668,C#4,1666.5,0.25,29,210.88
9669,E4,1666.75,0.25,29,210.88
9670,D6,1667.0,0.5,59,210.88
9671,B-3,1667.0,0.25,33,210.88
9672,E4,1667.25,0.25,29,210.88
9673,B-5,1667.5,0.5,57,210.88
9674,C#4,1667.5,0.25,29,210.88
9675,E4,1667.75,0.25,29,210.88
9676,A5,1668.0,1.75,59,210.88
9677,B-3,1668.0,0.25,31,210.88
9678,E4,1668.25,0.25,27,210.88
9679,C#4,1668.5,0.25,27,210.88
9680,E4,1668.75,0.25,27,210.88
9681,B-3,1669.0,0.25,32,210.88
9682,E4,1669.25,0.25,27,210.88
9683,C#4,1669.5,0.25,27,210.88
9684,G5,1669.75,0.25,56,210.88
9685,E4,1669.75,0.25,27,210.88
9686,F#5,1670.0,0.5,56,210.88
9687,A3,1670.0,0.25,32,210.88
9688,E4,1670.25,0.25,26,210.88
9689,C#4,1670.5,0.25,26,210.88
9690,E4,1670.75,0.25,26,210.88
9691,G3,1671.0,0.25,31,210.88
9692,F#6,1671.0,1.0,63,210.88
9693,F#5,1671.0,1.0,63,210.88
9694,E4,1671.25,0.25,26,210.88
9695,C#4,1671.5,0.25,26,210.88
9696,E4,1671.75,0.25,26,210.88
9697,F3,1672.0,0.25,31,210.88
9698,G5,1672.0,0.5,63,210.88
9699,G6,1672.0,0.5,63,210.88
9700,F4,1672.25,0.25,24,210.88
9701,D4,1672.5,0.25,24,210.88
9702,B-5,1672.5,0.5,64,210.88
9703,B-6,1672.5,0.5,64,210.88
9704,F4,1672.75,0.25,24,210.88
9705,F3,1673.0,0.25,30,210.88
9706,C6,1673.0,0.5,64,210.88
9707,C7,1673.0,0.5,64,210.88
9708,G4,1673.25,0.25,25,210.88
9709,E-4,1673.5,0.25,25,210.88
9710,D6,1673.5,0.5,65,210.88
9711,D7,1673.5,0.5,65,210.88
9712,G4,1673.75,0.25,26,210.88
9713,F3,1674.0,0.25,29,210.88
9714,E-6,1674.0,1.0,66,210.88
9715,E-7,1674.0,1.0,66,210.88
9716,F4,1674.25,0.25,26,210.88
9717,D4,1674.5,0.25,26,210.88
9718,F4,1674.75,0.25,26,210.88
9719,F3,1675.0,0.25,30,210.88
9720,C7,1675.0,1.0,69,210.88
9721,C6,1675.0,1.0,69,210.88
9722,G4,1675.25,0.25,26,210.88
9723,E-4,1675.5,0.25,26,210.88
9724,G4,1675.75,0.25,26,210.88
9725,F3,1676.0,0.25,31,210.88
9726,B-6,1676.0,1.0,70,210.88
9727,B-5,1676.0,1.0,70,210.88
9728,F4,1676.25,0.25,24,210.88
9729,D4,1676.5,0.25,24,210.88
9730,F4,1676.75,0.25,24,210.88
9731,F3,1677.0,0.25,30,210.88
9732,G#6,1677.0,1.0,69,210.88
9733,G#5,1677.0,1.0,69,210.88
9734,G4,1677.25,0.25,25,210.88
9735,E-4,1677.5,0.25,25,210.88
9736,G4,1677.75,0.25,26,210.88
9737,F3,1678.0,0.25,29,210.88
9738,G6,1678.0,1.0,66,210.88
9739,G5,1678.0,1.0,66,210.88
9740,F4,1678.25,0.25,26,210.88
9741,D4,1678.5,0.25,26,210.88
9742,F4,1678.75,0.25,26,210.88
9743,F3,1679.0,0.25,30,210.88
9744,F6,1679.0,1.0,65,210.88
9745,F5,1679.0,1.0,65,210.88
9746,G4,1679.25,0.25,26,210.88
9747,E-4,1679.5,0.25,26,210.88
9748,G4,1679.75,0.25,26,210.88
9749,F3,1680.0,0.25,31,210.88
9750,E5,1680.0,4.0,61,210.88
9751,E6,1680.0,4.0,61,210.88
9752,F4,1680.25,0.25,24,210.88
9753,D4,1680.5,0.25,24,210.88
9754,F4,1680.75,0.25,24,210.88
9755,F3,1681.0,0.25,30,210.88
9756,G4,1681.25,0.25,26,210.88
9757,E-4,1681.5,0.25,26,210.88
9758,G4,1681.75,0.25,27,210.88
9759,F3,1682.0,0.25,30,210.88
9760,F4,1682.25,0.25,27,210.88
9761,D4,1682.5,0.25,28,210.88
9762,F4,1682.75,0.25,28,210.88
9763,F3,1683.0,0.25,33,210.88
9764,G4,1683.25,0.25,28,210.88
9765,E-4,1683.5,0.25,28,210.88
9766,G4,1683.75,0.25,28,210.88
9767,F3,1684.0,0.25,34,210.88
9768,F4,1684.25,0.25,26,210.88
9769,D4,1684.5,0.25,26,210.88
9770,E5,1684.5,0.5,61,210.88
9771,E6,1684.5,0.5,61,210.88
9772,F4,1684.75,0.25,26,210.88
9773,E5,1685.0,19/40,51,210.88
9774,F3,1685.0,0.25,33,210.88
9775,G4,1685.25,0.25,27,210.88
9776,E5,1685.5,19/40,51,210.88
9777,E-4,1685.5,0.25,27,210.88
9778,G4,1685.75,0.25,28,210.88
9779,E5,1686.0,19/40,51,210.88
9780,F3,1686.0,0.25,31,210.88
9781,F4,1686.25,0.25,28,210.88
9782,E5,1686.5,19/40,50,210.88
9783,D4,1686.5,0.25,28,210.88
9784,F4,1686.75,0.25,28,210.88
9785,E5,1687.0,19/40,50,210.88
9786,F3,1687.0,0.25,36,210.88
9787,G4,1687.25,0.25,30,210.88
9788,E5,1687.5,19/40,50,210.88
9789,E-4,1687.5,0.25,30,210.88
9790,G4,1687.75,0.25,30,210.88
9791,E5,1688.0,19/40,50,210.88
9792,F3,1688.0,0.25,42,210.88
9793,F4,1688.25,0.25,35,210.88
9794,F5,1688.5,1.75,53,210.88
9795,D4,1688.5,0.25,35,210.88
9796,F4,1688.75,0.25,35,210.88
9797,F3,1689.0,0.25,44,210.88
9798,G4,1689.25,0.25,37,210.88
9799,E-4,1689.5,0.25,38,210.88
9800,G4,1689.75,0.25,37,210.88
9801,F3,1690.0,0.25,47,210.88
9802,G5,1690.25,0.25,47,210.88
9803,F4,1690.25,0.25,37,210.88
9804,F5,1690.5,0.5,52,210.88
9805,D4,1690.5,0.25,38,210.88
9806,F4,1690.75,0.25,38,210.88
9807,F3,1691.0,0.25,49,210.88
9808,F4,1691.25,0.25,40,210.88
9809,B-5,1691.5,0.125,49,210.88
9810,E-4,1691.5,0.25,40,210.88
9811,C6,1691.625,0.125,43,210.88
9812,B-5,1691.75,0.125,44,210.88
9813,F4,1691.75,0.25,40,210.88
9814,C6,1691.875,0.125,44,210.88
9815,B-5,1692.0,0.125,44,210.88
9816,F3,1692.0,4.0,44,210.88
9817,F4,1692.0,4.0,44,210.88
9818,E-4,1692.0,4.0,44,210.88
9819,C6,1692.125,0.125,46,210.88
9820,A5,1692.25,0.125,51,210.88
9821,B-5,1692.375,0.125,44,210.88
9822,D6,1692.5,1.75,60,210.88
9823,D5,1692.5,1.75,60,210.88
9824,C5,1694.25,0.25,52,210.88
9825,C6,1694.25,0.25,52,210.88
9826,B-4,1694.5,0.5,54,210.88
9827,B-5,1694.5,0.5,54,210.88
9828,G5,1695.5,1.0,54,210.88
9829,B-3,1696.0,1.0,34,210.88
9830,D4,1696.0,1.0,34,210.88
9831,F4,1696.0,1.0,34,210.88
9832,F5,1696.5,1.75,58,210.88
9833,B-3,1698.0,0.5,31,210.88
9834,D4,1698.0,0.5,31,210.88
9835,F4,1698.0,0.5,31,210.88
9836,G5,1698.25,0.25,53,210.88
9837,F5,1698.5,0.5,60,210.88
9838,B-3,1699.0,0.5,31,210.88
9839,F4,1699.0,0.5,31,210.88
9840,G#4,1699.0,0.5,31,210.88
9841,B-5,1699.5,0.125,53,210.88
9842,C6,1699.625,0.125,47,210.88
9843,B-5,1699.75,0.125,48,210.88
9844,C6,1699.875,0.125,48,210.88
9845,B-5,1700.0,0.125,48,210.88
9846,B-3,1700.0,1.0,34,210.88
9847,E-4,1700.0,1.0,34,210.88
9848,G4,1700.0,1.0,34,210.88
9849,C6,1700.125,0.125,50,210.88
9850,A5,1700.25,0.125,55,210.88
9851,B-5,1700.375,0.125,48,210.88
9852,D6,1700.5,1.75,66,210.88
9853,D5,1700.5,1.75,66,210.88
9854,B-3,1702.0,0.5,31,210.88
9855,E-4,1702.0,0.5,31,210.88
9856,G4,1702.0,0.5,31,210.88
9857,C5,1702.25,0.25,62,210.88
9858,C6,1702.25,0.25,62,210.88
9859,B-4,1702.5,0.5,67,210.88
9860,B-5,1702.5,0.5,67,210.88
9861,B-3,1703.0,0.5,31,210.88
9862,G4,1703.0,0.5,31,210.88
9863,B-4,1703.0,0.5,31,210.88
9864,B-4,1703.5,1.0,62,210.88
9865,E-5,1703.5,1.0,62,210.88
9866,G5,1703.5,1.0,62,210.88
9867,B-3,1704.0,1.0,34,210.88
9868,D4,1704.0,1.0,34,210.88
9869,F4,1704.0,1.0,34,210.88
9870,B-4,1704.5,1.0,65,210.88
9871,D5,1704.5,1.0,65,210.88
9872,F5,1704.5,1.0,65,210.88
9873,B-4,1705.5,1.0,68,210.88
9874,E-5,1705.5,1.0,68,210.88
9875,G5,1705.5,1.0,68,210.88
9876,B-3,1706.0,0.5,32,210.88
9877,D4,1706.0,0.5,32,210.88
9878,B-4,1706.5,1.0,68,210.88
9879,D5,1706.5,1.0,68,210.88
9880,F5,1706.5,1.0,68,210.88
9881,B-5,1706.5,1.0,68,210.88
9882,D4,1707.0,0.5,32,210.88
9883,F4,1707.0,0.5,32,210.88
9884,C5,1707.5,1.0,72,210.88
9885,F5,1707.5,1.0,72,210.88
9886,A5,1707.5,1.0,72,210.88
9887,C6,1707.5,1.0,72,210.88
9888,F3,1708.0,0.5,31,210.88
9889,D4,1708.0,0.5,31,210.88
9890,F4,1708.0,0.5,31,210.88
9891,C5,1708.5,2.0,69,210.88
9892,F5,1708.5,2.0,69,210.88
9893,A5,1708.5,2.0,69,210.88
9894,C6,1708.5,2.0,69,210.88
9895,F3,1709.0,0.5,30,210.88
9896,G4,1709.0,0.5,30,210.88
9897,E-4,1709.0,0.5,30,210.88
9898,F3,1710.0,0.5,30,210.88
9899,D4,1710.0,0.5,30,210.88
9900,F4,1710.0,0.5,30,210.88
9901,A5,1710.5,333/1000,63,210.88
9902,F5,1710.833,333/1000,54,210.88
9903,F3,1711.0,0.5,30,210.88
9904,C4,1711.0,0.5,30,210.88
9905,E-4,1711.0,0.5,30,210.88
9906,C5,1711.167,333/1000,54,210.88
9907,F5,1711.5,333/1000,54,210.88
9908,A5,1711.833,333/1000,52,210.88
9909,F3,1712.0,0.5,31,210.88
9910,B3,1712.0,0.5,31,210.88
9911,D4,1712.0,0.5,31,210.88
9912,C6,1712.167,333/1000,51,210.88
9913,B-5,1712.5,333/1000,53,210.88
9914,F6,1712.833,333/1000,49,210.88
9915,F3,1713.0,0.5,30,210.88
9916,D4,1713.0,0.5,30,210.88
9917,B3,1713.0,0.5,30,210.88
9918,D6,1713.167,167/1000,49,210.88
9919,B-5,1713.5,167/1000,53,210.88
9920,F5,1713.833,167/1000,48,210.88
9921,F3,1714.0,0.5,31,210.88
9922,B3,1714.0,0.5,31,210.88
9923,D4,1714.0,0.5,31,210.88
9924,D5,1714.167,167/1000,46,210.88
9925,B-4,1714.5,167/1000,51,210.88
9926,D5,1714.833,167/1000,46,210.88
9927,F3,1715.0,0.5,33,210.88
9928,B3,1715.0,0.5,33,210.88
9929,D4,1715.0,0.5,33,210.88
9930,F5,1715.167,167/1000,46,210.88
9931,D5,1715.5,167/1000,53,210.88
9932,F5,1715.833,167/1000,50,210.88
9933,E-3,1716.0,0.5,35,210.88
9934,B-3,1716.0,0.5,35,210.88
9935,E-4,1716.0,0.5,35,210.88
9936,B-5,1716.167,167/1000,50,210.88
9937,B-5,1716.5,333/1000,53,210.88
9938,G6,1716.833,333/1000,49,210.88
9939,E-3,1717.0,0.5,33,210.88
9940,E-4,1717.0,0.5,33,210.88
9941,B-3,1717.0,0.5,33,210.88
9942,E-6,1717.167,167/1000,49,210.88
9943,B-5,1717.5,167/1000,53,210.88
9944,G5,1717.833,167/1000,48,210.88
9945,F3,1718.0,0.5,33,210.88
9946,B-3,1718.0,0.5,33,210.88
9947,D4,1718.0,0.5,33,210.88
9948,E-5,1718.167,167/1000,46,210.88
9949,B-4,1718.5,167/1000,51,210.88
9950,E-5,1718.833,167/1000,46,210.88
9951,F3,1719.0,0.5,33,210.88
9952,C4,1719.0,0.5,33,210.88
9953,E-4,1719.0,0.5,33,210.88
9954,G5,1719.167,167/1000,46,210.88
9955,E-5,1719.5,167/1000,53,210.88
9956,G5,1719.833,167/1000,50,210.88
9957,B-3,1720.0,333/1000,47,210.88
9958,B-5,1720.167,167/1000,50,210.88
9959,F4,1720.333,333/1000,44,210.88
9960,B-5,1720.5,333/1000,53,210.88
9961,D4,1720.667,167/1000,44,210.88
9962,B-6,1720.833,333/1000,49,210.88
9963,B-3,1721.0,167/1000,47,210.88
9964,F6,1721.167,167/1000,49,210.88
9965,F3,1721.333,167/1000,43,210.88
9966,D6,1721.5,167/1000,53,210.88
9967,D3,1721.667,167/1000,41,210.88
9968,B-5,1721.833,167/1000,48,210.88
9969,B-2,1722.0,167/1000,45,210.88
9970,F5,1722.167,167/1000,46,210.88
9971,D3,1722.333,167/1000,41,210.88
9972,D5,1722.5,167/1000,51,210.88
9973,F3,1722.667,167/1000,41,210.88
9974,B-4,1722.833,167/1000,46,210.88
9975,D3,1723.0,167/1000,47,210.88
9976,F4,1723.167,167/1000,46,210.88
9977,F3,1723.333,167/1000,45,210.88
9978,B-4,1723.5,167/1000,53,210.88
9979,B-3,1723.667,167/1000,45,210.88
9980,D5,1723.833,167/1000,50,210.88
9981,B-3,1724.0,333/1000,47,210.88
9982,F5,1724.167,167/1000,50,210.88
9983,G4,1724.333,333/1000,44,210.88
9984,F5,1724.5,333/1000,51,210.88
9985,E-4,1724.667,167/1000,44,210.88
9986,B-5,1724.833,333/1000,47,210.88
9987,B-3,1725.0,167/1000,47,210.88
9988,B-5,1725.167,167/1000,47,210.88
9989,G3,1725.333,167/1000,43,210.88
9990,G5,1725.5,333/1000,51,210.88
9991,E-3,1725.667,167/1000,41,210.88
9992,C6,1725.833,333/1000,48,210.88
9993,B-2,1726.0,167/1000,45,210.88
9994,C6,1726.167,167/1000,48,210.88
9995,E-3,1726.333,167/1000,41,210.88
9996,F5,1726.5,333/1000,51,210.88
9997,G3,1726.667,167/1000,41,210.88
9998,B-5,1726.833,333/1000,47,210.88
9999,E-3,1727.0,167/1000,47,210.88
10000,B-5,1727.167,167/1000,47,210.88
10001,G3,1727.333,167/1000,45,210.88
10002,F5,1727.5,333/1000,51,210.88
10003,B-3,1727.667,167/1000,45,210.88
10004,A5,1727.833,333/1000,47,210.88
10005,B-3,1728.0,333/1000,47,210.88
10006,A5,1728.167,167/1000,47,210.88
10007,B-4,1728.333,333/1000,44,210.88
10008,F5,1728.5,333/1000,51,210.88
10009,F4,1728.667,167/1000,44,210.88
10010,G#5,1728.833,333/1000,47,210.88
10011,D4,1729.0,167/1000,47,210.88
10012,G#5,1729.167,167/1000,47,210.88
10013,B-3,1729.333,167/1000,43,210.88
10014,F5,1729.5,333/1000,52,210.88
10015,F3,1729.667,167/1000,41,210.88
10016,G5,1729.833,333/1000,50,210.88
10017,D3,1730.0,167/1000,45,210.88
10018,G5,1730.167,167/1000,50,210.88
10019,B-2,1730.333,167/1000,41,210.88
10020,B4,1730.5,333/1000,50,210.88
10021,D5,1730.5,333/1000,50,210.88
10022,F2,1730.667,167/1000,41,210.88
10023,G#5,1730.833,333/1000,50,210.88
10024,B-2,1731.0,167/1000,47,210.88
10025,G#5,1731.167,167/1000,51,210.88
10026,D3,1731.333,167/1000,45,210.88
10027,B4,1731.5,333/1000,52,210.88
10028,D5,1731.5,333/1000,52,210.88
10029,F3,1731.667,167/1000,45,210.88
10030,G5,1731.833,333/1000,52,210.88
10031,F3,1732.0,0.5,31,210.88
10032,D4,1732.0,0.5,31,210.88
10033,F4,1732.0,0.5,31,210.88
10034,G5,1732.167,167/1000,53,210.88
10035,B-4,1732.5,333/1000,54,210.88
10036,E-5,1732.5,333/1000,54,210.88
10037,G#5,1732.833,333/1000,54,210.88
10038,F4,1733.0,0.5,30,210.88
10039,G5,1733.0,0.5,30,210.88
10040,E-5,1733.0,0.5,30,210.88
10041,G#5,1733.167,167/1000,54,210.88
10042,B-4,1733.5,333/1000,54,210.88
10043,E-5,1733.5,333/1000,54,210.88
10044,G5,1733.833,333/1000,54,210.88
10045,F4,1734.0,0.5,30,210.88
10046,D5,1734.0,0.5,30,210.88
10047,F5,1734.0,0.5,30,210.88
10048,G5,1734.167,167/1000,54,210.88
10049,B-4,1734.5,333/1000,52,210.88
10050,D5,1734.5,333/1000,52,210.88
10051,F5,1734.833,333/1000,53,210.88
10052,F4,1735.0,0.5,30,210.88
10053,C5,1735.0,0.5,30,210.88
10054,E-5,1735.0,0.5,30,210.88
10055,F5,1735.167,167/1000,52,210.88
10056,A4,1735.5,333/1000,52,210.88
10057,C5,1735.5,333/1000,52,210.88
10058,F5,1735.833,333/1000,52,210.88
10059,F4,1736.0,0.5,31,210.88
10060,B4,1736.0,0.5,31,210.88
10061,D5,1736.0,0.5,31,210.88
10062,F5,1736.167,167/1000,52,210.88
10063,B-4,1736.5,1.0,44,210.88
10064,D5,1736.5,1.0,44,210.88
10065,F5,1736.5,1.0,44,210.88
10066,F4,1737.0,0.5,30,210.88
10067,D5,1737.0,0.5,30,210.88
10068,B4,1737.0,0.5,30,210.88
10069,F4,1738.0,0.5,31,210.88
10070,B4,1738.0,0.5,31,210.88
10071,D5,1738.0,0.5,31,210.88
10072,B-5,1738.5,0.5,43,210.88
10073,D5,1738.5,0.5,43,210.88
10074,F5,1738.5,0.5,43,210.88
10075,F4,1739.0,0.5,33,210.88
10076,B4,1739.0,0.5,33,210.88
10077,D5,1739.0,0.5,33,210.88
10078,F5,1739.5,0.5,43,210.88
10079,G#5,1739.5,0.5,43,210.88
10080,B-5,1739.5,0.5,43,210.88
10081,E-4,1740.0,0.5,35,210.88
10082,B-4,1740.0,0.5,35,210.88
10083,E-5,1740.0,0.5,35,210.88
10084,E-5,1740.5,1.0,48,210.88
10085,G5,1740.5,1.0,48,210.88
10086,B-5,1740.5,1.0,48,210.88
10087,E-4,1741.0,0.5,33,210.88
10088,E-5,1741.0,0.5,33,210.88
10089,B-4,1741.0,0.5,33,210.88
10090,F4,1742.0,0.5,33,210.88
10091,B-4,1742.0,0.5,33,210.88
10092,D5,1742.0,0.5,33,210.88
10093,E-5,1742.5,0.5,43,210.88
10094,G5,1742.5,0.5,43,210.88
10095,B-5,1742.5,0.5,43,210.88
10096,F4,1743.0,0.5,33,210.88
10097,C5,1743.0,0.5,33,210.88
10098,E-5,1743.0,0.5,33,210.88
10099,G5,1743.5,0.5,44,210.88
10100,B-5,1743.5,0.5,44,210.88
10101,E-3,1744.0,0.5,28,210.88
10102,A3,1744.0,0.5,28,210.88
10103,C4,1744.0,0.5,28,210.88
10104,D5,1744.5,1.0,48,210.88
10105,F5,1744.5,1.0,48,210.88
10106,B-5,1744.5,1.0,48,210.88
10107,E-3,1745.0,0.5,27,210.88
10108,C4,1745.0,0.5,27,210.88
10109,A3,1745.0,0.5,27,210.88
10110,E-3,1746.0,0.5,28,210.88
10111,A3,1746.0,0.5,28,210.88
10112,C4,1746.0,0.5,28,210.88
10113,F5,1746.5,0.5,47,210.88
10114,B-5,1746.5,0.5,47,210.88
10115,D6,1746.5,0.5,47,210.88
10116,E-3,1747.0,0.5,29,210.88
10117,A3,1747.0,0.5,29,210.88
10118,C4,1747.0,0.5,29,210.88
10119,F5,1747.5,0.5,47,210.88
10120,D6,1747.5,0.5,47,210.88
10121,F6,1747.5,0.5,47,210.88
10122,C#3,1748.0,0.5,31,210.88
10123,G#3,1748.0,0.5,31,210.88
10124,C#4,1748.0,0.5,31,210.88
10125,F6,1748.5,333/1000,56,210.88
10126,B-6,1748.833,333/1000,51,210.88
10127,C#3,1749.0,0.5,29,210.88
10128,C#4,1749.0,0.5,29,210.88
10129,G#3,1749.0,0.5,29,210.88
10130,B-6,1749.167,167/1000,51,210.88
10131,G6,1749.5,333/1000,56,210.88
10132,C7,1749.833,333/1000,52,210.88
10133,E-3,1750.0,0.5,29,210.88
10134,G#3,1750.0,0.5,29,210.88
10135,C4,1750.0,0.5,29,210.88
10136,C7,1750.167,167/1000,52,210.88
10137,F6,1750.5,333/1000,56,210.88
10138,B-6,1750.833,333/1000,51,210.88
10139,E-3,1751.0,0.5,29,210.88
10140,B-3,1751.0,0.5,29,210.88
10141,C#4,1751.0,0.5,29,210.88
10142,B-6,1751.167,167/1000,51,210.88
10143,F6,1751.5,333/1000,56,210.88
10144,A6,1751.833,333/1000,51,210.88
10145,A6,1752.167,167/1000,51,210.88
10146,F6,1752.5,333/1000,56,210.88
10147,G#6,1752.833,333/1000,51,210.88
10148,G#6,1753.167,167/1000,51,210.88
10149,F6,1753.5,333/1000,57,210.88
10150,G6,1753.833,333/1000,55,210.88
10151,B4,1754.0,0.5,31,210.88
10152,G6,1754.167,167/1000,55,210.88
10153,B5,1754.5,333/1000,58,210.88
10154,D6,1754.5,333/1000,58,210.88
10155,G#6,1754.833,333/1000,53,210.88
10156,G#4,1755.0,0.5,33,210.88
10157,G#6,1755.167,167/1000,53,210.88
10158,B5,1755.5,333/1000,52,210.88
10159,D6,1755.5,333/1000,52,210.88
10160,G6,1755.833,333/1000,54,210.88
10161,C#5,1756.0,0.5,33,210.88
10162,G6,1756.167,167/1000,54,210.88
10163,B-5,1756.5,333/1000,52,210.88
10164,E-6,1756.5,333/1000,52,210.88
10165,G#6,1756.833,333/1000,52,210.88
10166,C#5,1757.0,0.5,31,210.88
10167,G#6,1757.167,167/1000,52,210.88
10168,B-5,1757.5,333/1000,52,210.88
10169,E-6,1757.5,333/1000,52,210.88
10170,G6,1757.833,333/1000,53,210.88
10171,G6,1758.167,167/1000,52,210.88
10172,B-5,1758.5,333/1000,52,210.88
10173,D6,1758.5,333/1000,52,210.88
10174,F6,1758.833,333/1000,53,210.88
10175,C#3,1759.0,0.5,29,210.88
10176,F6,1759.167,167/1000,49,210.88
10177,A5,1759.5,333/1000,50,210.88
10178,C6,1759.5,333/1000,50,210.88
10179,F6,1759.833,333/1000,48,210.88
10180,C#3,1760.0,0.5,29,210.88
10181,F6,1760.167,167/1000,48,210.88
10182,E-5,1760.5,333/1000,45,210.88
10183,F#5,1760.833,333/1000,42,210.88
10184,F#5,1761.167,167/1000,42,210.88
10185,E-5,1761.5,333/1000,46,210.88
10186,F5,1761.833,333/1000,45,210.88
10187,D3,1762.0,0.5,26,210.88
10188,F5,1762.167,167/1000,45,210.88
10189,A4,1762.5,333/1000,44,210.88
10190,C5,1762.5,333/1000,44,210.88
10191,F#5,1762.833,333/1000,45,210.88
10192,D3,1763.0,0.5,26,210.88
10193,F#5,1763.167,167/1000,45,210.88
10194,A4,1763.5,333/1000,46,210.88
10195,C5,1763.5,333/1000,46,210.88
10196,F5,1763.833,333/1000,46,210.88
10197,F5,1764.167,167/1000,47,210.88
10198,G#4,1764.5,333/1000,48,210.88
10199,C#5,1764.5,333/1000,48,210.88
10200,F#5,1764.833,333/1000,48,210.88
10201,D4,1765.0,0.5,26,210.88
10202,F#5,1765.167,167/1000,48,210.88
10203,G#4,1765.5,333/1000,48,210.88
10204,C#5,1765.5,333/1000,48,210.88
10205,F5,1765.833,333/1000,48,210.88
10206,E-4,1766.0,0.5,27,210.88
10207,F5,1766.167,167/1000,48,210.88
10208,G#4,1766.5,333/1000,47,210.88
10209,C5,1766.5,333/1000,47,210.88
10210,E-5,1766.833,333/1000,47,210.88
10211,E-3,1767.0,0.5,30,210.88
10212,E-5,1767.167,167/1000,46,210.88
10213,G4,1767.5,333/1000,47,210.88
10214,B-4,1767.5,333/1000,47,210.88
10215,E-5,1767.833,333/1000,46,210.88
10216,F3,1768.0,0.5,33,210.88
10217,E-5,1768.167,167/1000,46,210.88
10218,F3,1769.0,0.5,35,210.88
10219,E-4,1770.0,0.5,37,210.88
10220,C4,1770.0,0.5,37,210.88
10221,F3,1770.0,0.5,37,210.88
10222,F#5,1770.5,333/1000,44,210.88
10223,B5,1770.5,333/1000,44,210.88
10224,E-6,1770.833,333/1000,45,210.88
10225,F3,1771.0,0.5,38,210.88
10226,C4,1771.0,0.5,38,210.88
10227,E-4,1771.0,0.5,38,210.88
10228,E-6,1771.167,167/1000,45,210.88
10229,F#5,1771.5,333/1000,45,210.88
10230,B5,1771.5,333/1000,45,210.88
10231,D6,1771.833,333/1000,44,210.88
10232,F3,1772.0,0.25,38,210.88
10233,B-2,1772.0,0.25,38,210.88
10234,B-3,1772.0,0.25,38,210.88
10235,D6,1772.167,167/1000,44,210.88
10236,F#5,1772.5,333/1000,46,210.88
10237,B-5,1772.5,333/1000,46,210.88
10238,C#6,1772.833,333/1000,46,210.88
10239,C#6,1773.167,167/1000,46,210.88
10240,F5,1773.5,333/1000,44,210.88
10241,G#5,1773.5,333/1000,44,210.88
10242,C#6,1773.833,333/1000,44,210.88
10243,D4,1774.0,1.5,36,210.88
10244,F4,1774.0,2.0,44,210.88
10245,C#6,1774.167,167/1000,44,210.88
10246,F#4,1775.5,333/1000,40,210.88
10247,A4,1775.5,333/1000,40,210.88
10248,C4,1775.5,0.5,33,210.88
10249,E-4,1775.5,0.5,33,210.88
10250,C#5,1775.833,333/1000,39,210.88
10251,B-3,1776.0,1.0,40,210.88
10252,D4,1776.0,1.0,40,210.88
10253,C#5,1776.167,167/1000,39,210.88
10254,F4,1776.5,333/1000,42,210.88
10255,G#4,1776.5,333/1000,42,210.88
10256,C#5,1776.833,333/1000,41,210.88
10257,G#3,1777.0,1.0,42,210.88
10258,D4,1777.0,1.0,42,210.88
10259,C#5,1777.167,167/1000,41,210.88
10260,G3,1778.0,1.0,44,210.88
10261,D4,1778.0,1.0,44,210.88
10262,F4,1778.5,333/1000,36,210.88
10263,G#4,1778.5,333/1000,36,210.88
10264,B4,1778.833,333/1000,35,210.88
10265,C3,1779.0,1.0,39,210.88
10266,G3,1779.0,1.0,39,210.88
10267,C4,1779.0,1.0,39,210.88
10268,B4,1779.167,167/1000,35,210.88
10269,F4,1779.5,333/1000,37,210.88
10270,G#4,1779.5,333/1000,37,210.88
10271,B-4,1779.833,333/1000,36,210.88
10272,F3,1780.0,2.0,45,210.88
10273,E-4,1780.0,2.0,45,210.88
10274,B-4,1780.167,167/1000,36,210.88
10275,F5,1781.5,333/1000,40,210.88
10276,G#5,1781.5,333/1000,40,210.88
10277,B-5,1781.833,333/1000,36,210.88
10278,B-3,1782.0,0.25,35,210.88
10279,D4,1782.0,0.25,35,210.88
10280,B-5,1782.167,167/1000,36,210.88
10281,E-5,1782.5,333/1000,45,210.88
10282,G#5,1782.5,333/1000,45,210.88
10283,C6,1782.833,333/1000,37,210.88
10284,B-3,1783.0,0.25,31,210.88
10285,D4,1783.0,0.25,31,210.88
10286,C6,1783.167,167/1000,37,210.88
10287,E-5,1783.5,333/1000,45,210.88
10288,G5,1783.5,333/1000,45,210.88
10289,B-5,1783.833,333/1000,39,210.88
10290,B-5,1784.167,167/1000,39,210.88
10291,E-4,1784.5,333/1000,43,210.88
10292,G4,1784.5,333/1000,43,210.88
10293,B-4,1784.833,333/1000,40,210.88
10294,B-4,1785.167,167/1000,40,210.88
10295,D4,1785.5,333/1000,47,210.88
10296,F4,1785.5,333/1000,47,210.88
10297,B-4,1785.833,333/1000,46,210.88
10298,D3,1786.0,1.5,35,210.88
10299,F3,1786.0,247/500,42,210.88
10300,B-4,1786.167,167/1000,46,210.88
10301,F4,1786.5,333/1000,54,210.88
10302,B-4,1786.5,333/1000,54,210.88
10303,F5,1786.833,333/1000,50,210.88
10304,F5,1787.167,167/1000,50,210.88
10305,F4,1787.5,333/1000,55,210.88
10306,A4,1787.5,333/1000,55,210.88
10307,C3,1787.5,0.5,33,210.88
10308,E-3,1787.5,0.5,33,210.88
10309,F5,1787.833,333/1000,53,210.88
10310,B-2,1788.0,1.0,40,210.88
10311,D3,1788.0,1.0,40,210.88
10312,F5,1788.167,167/1000,53,210.88
10313,D4,1788.5,0.25,58,210.88
10314,F4,1788.5,0.25,58,210.88
10315,B-4,1788.5,0.25,58,210.88
10316,F4,1788.833,333/1000,47,210.88
10317,G#2,1789.0,1.0,42,210.88
10318,D3,1789.0,1.0,42,210.88
10319,D4,1789.167,333/1000,47,210.88
10320,F4,1789.5,333/1000,47,210.88
10321,B-4,1789.833,333/1000,51,210.88
10322,G2,1790.0,0.812,44,210.88
10323,D3,1790.0,0.812,44,210.88
10324,D5,1790.167,333/1000,55,210.88
10325,F5,1790.5,1.5,68,210.88
10326,C2,1790.812,0.656,36,210.88
10327,G2,1790.812,0.656,36,210.88
10328,C3,1790.875,0.625,40,210.88
10329,G4,1791.5,0.5,48,210.88
10330,A4,1792.0,0.5,50,210.88
10331,E-5,1792.0,0.5,50,210.88
10332,F4,1792.5,1.0,50,210.88
10333,B-4,1792.5,1.0,50,210.88
10334,D5,1792.5,1.0,50,210.88
10335,B-3,1793.0,1.0,49,210.88
10336,E-4,1793.0,1.0,49,210.88
10337,F#4,1793.5,1.0,55,210.88
10338,C5,1793.5,1.0,55,210.88
10339,D5,1793.5,1.0,55,210.88
10340,G#3,1794.0,0.812,54,210.88
10341,E-4,1794.0,0.812,54,210.88
10342,G4,1794.5,1.0,56,210.88
10343,F4,1794.5,1.0,56,210.88
10344,B4,1794.5,1.0,56,210.88
10345,D5,1794.5,1.0,56,210.88
10346,C#3,1794.812,127/200,50,210.88
10347,G#3,1794.812,127/200,50,210.88
10348,C#4,1794.875,0.625,56,210.88
10349,E-5,1795.5,0.75,65,210.88
10350,E-4,1795.5,1.0,55,210.88
10351,G4,1795.5,1.0,55,210.88
10352,C5,1795.5,1.0,55,210.88
10353,D5,1796.25,0.25,55,210.88
10354,F4,1796.5,2.25,44,210.88
10355,A4,1796.5,2.0,44,210.88
10356,C5,1796.5,1.5,52,210.88
10357,A2,1797.0,0.812,75,210.88
10358,C#3,1797.0,0.812,75,210.88
10359,E3,1797.0,0.812,75,210.88
10360,D2,1797.812,0.656,72,210.88
10361,A2,1797.812,0.656,72,210.88
10362,D3,1797.875,0.625,77,210.88
10363,C#5,1798.0,0.5,47,210.88
10364,B-4,1798.5,0.25,47,210.88
10365,D5,1798.5,0.25,47,210.88
10366,F4,1799.5,0.25,41,210.88
10367,B-4,1799.5,0.25,41,210.88
10368,D5,1799.5,0.25,41,210.88
10369,B-3,1800.0,2.0,54,210.88
10370,G#4,1800.0,2.0,54,210.88
10371,F3,1800.833,333/1000,47,210.88
10372,D3,1801.167,333/1000,47,210.88
10373,F3,1801.5,333/1000,47,210.88
10374,B-3,1801.833,333/1000,51,210.88
10375,E-4,1802.0,0.25,42,210.88
10376,G4,1802.0,0.25,42,210.88
10377,D4,1802.167,333/1000,55,210.88
10378,F4,1802.5,1.5,65,210.88
10379,F3,1803.0,1.0,46,210.88
10380,E-4,1803.0,0.25,36,210.88
10381,G4,1803.0,0.25,36,210.88
10382,G3,1803.5,0.5,48,210.88
10383,F3,1804.0,0.5,48,210.88
10384,A3,1804.0,0.5,48,210.88
10385,E-4,1804.0,0.5,48,210.88
10386,E-4,1804.0,3.0,42,210.88
10387,B-4,1804.0,3.0,42,210.88
10388,F3,1804.5,1.0,50,210.88
10389,B-3,1804.5,1.0,50,210.88
10390,D4,1804.5,1.0,50,210.88
10391,F#3,1805.5,1.0,55,210.88
10392,C4,1805.5,1.0,55,210.88
10393,D4,1805.5,1.0,55,210.88
10394,F3,1806.5,1.0,54,210.88
10395,G3,1806.5,0.812,57,210.88
10396,B3,1806.5,0.812,57,210.88
10397,D4,1806.5,0.812,57,210.88
10398,E-3,1807.406,0.562,53,210.88
10399,G3,1807.406,0.562,53,210.88
10400,C4,1807.469,0.5,67,210.88
10401,E-4,1807.469,0.5,67,210.88
10402,G4,1809.5,1.0,66,210.88
10403,C#5,1809.5,1.0,66,210.88
10404,E-5,1809.5,1.0,66,210.88
10405,G#4,1810.5,0.812,67,210.88
10406,F#4,1810.5,0.812,67,210.88
10407,C5,1810.5,0.812,67,210.88
10408,E-5,1810.5,0.812,67,210.88
10409,E4,1811.406,0.562,68,210.88
10410,G#4,1811.406,0.562,68,210.88
10411,C#5,1811.469,0.5,78,210.88
10412,E5,1811.469,0.5,78,210.88
10413,F2,1812.0,2.0,36,210.88
10414,E-3,1812.0,2.0,36,210.88
10415,G5,1813.5,0.812,90,210.88
10416,A5,1813.5,0.812,90,210.88
10417,E6,1813.5,0.812,90,210.88
10418,C#6,1813.5,0.812,90,210.88
10419,B-2,1814.0,0.25,33,210.88
10420,D3,1814.0,0.25,33,210.88
10421,F5,1814.406,0.562,88,210.88
10422,A5,1814.406,0.562,88,210.88
10423,D6,1814.469,0.5,98,210.88
10424,F6,1814.469,0.5,98,210.88
10425,B-2,1815.0,0.25,28,210.88
10426,D3,1815.0,0.25,28,210.88
10427,B-2,1816.0,3.0,33,210.88
10428,F3,1816.0,3.0,33,210.88
10429,B-4,1816.5,2.25,52,210.88
10430,D5,1816.5,2.0,52,210.88
10431,F5,1816.5,1.5,62,210.88
10432,F#5,1818.0,0.5,56,210.88
10433,E-5,1818.5,0.25,56,210.88
10434,G5,1818.5,0.25,56,210.88
10435,B-4,1819.5,0.25,49,210.88
10436,E-5,1819.5,0.25,49,210.88
10437,G5,1819.5,0.25,49,210.88
10438,B-3,1820.0,2.0,54,210.88
10439,G#4,1820.0,2.0,54,210.88
10440,G5,1820.5,3.0,61,210.88
10441,B-5,1820.5,3.0,61,210.88
10442,E-4,1822.0,0.25,42,210.88
10443,G4,1822.0,0.25,42,210.88
10444,E-4,1823.0,0.25,44,210.88
10445,G4,1823.0,0.25,44,210.88
10446,B-4,1824.5,2.5,54,210.88
10447,G4,1827.0,0.5,45,210.88
10448,E-4,1827.5,0.5,50,210.88
10449,D4,1828.0,0.5,45,210.88
10450,F3,1828.5,2.25,34,210.88
10451,A3,1828.5,2.0,34,210.88
10452,D4,1828.5,1.0,49,210.88
10453,C4,1829.5,0.75,44,210.88
10454,C#4,1830.25,0.25,44,210.88
10455,B-3,1830.5,0.25,44,210.88
10456,D4,1830.5,0.25,44,210.88
10457,F3,1831.5,0.25,37,210.88
10458,B-3,1831.5,0.25,37,210.88
10459,D4,1831.5,0.25,37,210.88
10460,D4,1832.5,3.0,48,210.88
10461,F4,1832.5,3.0,48,210.88
10462,F3,1836.0,2.0,28,210.88
10463,E-4,1836.0,2.0,28,210.88
10464,B-4,1836.5,2.25,52,210.88
10465,D5,1836.5,2.0,52,210.88
10466,F5,1836.5,1.5,62,210.88
10467,F#5,1838.0,0.5,56,210.88
10468,B-3,1838.0,0.25,30,210.88
10469,D4,1838.0,0.25,30,210.88
10470,E-5,1838.5,0.25,56,210.88
10471,G5,1838.5,0.25,56,210.88
10472,B-3,1839.0,0.25,24,210.88
10473,D4,1839.0,0.25,24,210.88
10474,B-4,1839.5,0.25,59,210.88
10475,E-5,1839.5,0.25,59,210.88
10476,G5,1839.5,0.25,59,210.88
10477,B-3,1840.0,3.0,30,210.88
10478,F4,1840.0,3.0,30,210.88
10479,E-4,1840.5,0.125,79,210.88
10480,G4,1840.625,0.125,78,210.88
10481,B-4,1840.75,0.125,72,210.88
10482,E-5,1840.875,0.125,68,210.88
10483,G5,1841.0,0.125,66,210.88
10484,B-5,1841.125,0.125,64,210.88
10485,E-6,1841.25,0.125,61,210.88
10486,G6,1841.375,0.125,59,210.88
10487,B-6,1841.5,0.125,58,210.88
10488,G#3,1844.0,3.0,37,210.88
10489,D4,1844.0,3.0,37,210.88
10490,F4,1844.0,3.0,37,210.88
10491,B-5,1844.5,3.5,62,210.88
10492,A5,1848.0,0.5,50,210.88
10493,F4,1848.0,4.0,36,210.88
10494,D4,1848.0,4.0,36,210.88
10495,G3,1848.0,4.0,36,210.88
10496,A5,1848.5,1.0,53,210.88
10497,G5,1849.5,0.75,51,210.88
10498,F5,1850.25,0.25,47,210.88
10499,F5,1850.5,1.0,51,210.88
10500,E-5,1851.5,0.75,48,210.88
10501,E-4,1852.0,1.0,31,210.88
10502,C4,1852.0,1.0,31,210.88
10503,D5,1852.25,0.25,41,210.88
10504,F4,1852.5,2.25,30,210.88
10505,A4,1852.5,2.0,30,210.88
10506,D5,1852.5,1.0,44,210.88
10507,C5,1853.5,0.75,39,210.88
10508,C#5,1854.25,0.25,39,210.88
10509,B-4,1854.5,0.25,40,210.88
10510,D5,1854.5,0.25,40,210.88
10511,F4,1855.5,0.25,33,210.88
10512,B-4,1855.5,0.25,33,210.88
10513,D5,1855.5,0.25,33,210.88
10514,C4,1856.0,0.5,36,210.88
10515,D5,1856.5,3.0,43,210.88
10516,F5,1856.5,3.0,43,210.88
10517,F3,1857.0,1.0,30,210.88
10518,C4,1857.0,0.75,36,210.88
10519,D4,1857.75,0.25,31,210.88
10520,F3,1858.0,1.0,30,210.88
10521,E-4,1858.0,1.0,30,210.88
10522,F3,1859.0,1.0,30,210.88
10523,C4,1859.0,1.0,30,210.88
10524,B-2,1860.0,0.5,33,210.88
10525,B-3,1860.0,0.5,33,210.88
10526,D5,1860.5,3.0,55,210.88
10527,C5,1860.5,3.0,55,210.88
10528,F5,1860.5,3.0,55,210.88
10529,B-2,1861.0,3.0,30,210.88
10530,F3,1861.0,3.0,30,210.88
10531,B4,1864.5,4.0,54,210.88
10532,D5,1864.5,4.0,54,210.88
10533,G#4,1864.5,3.0,59,210.88
10534,G#5,1864.5,3.0,59,210.88
10535,G#2,1865.0,3.0,38,210.88
10536,F3,1865.0,3.0,38,210.88
10537,G4,1867.5,1.0,48,210.88
10538,G5,1867.5,1.0,48,210.88
10539,F3,1868.0,4.0,36,210.88
10540,D3,1868.0,4.0,36,210.88
10541,G2,1868.0,4.0,36,210.88
10542,G4,1868.5,1.0,50,210.88
10543,C5,1868.5,1.0,50,210.88
10544,F5,1868.5,1.0,50,210.88
10545,E-5,1869.5,0.5,52,210.88
10546,F#4,1870.0,0.5,44,210.88
10547,D5,1870.0,0.5,44,210.88
10548,G4,1870.5,1.5,46,210.88
10549,F5,1870.5,1.0,55,210.88
10550,E-5,1871.5,0.5,52,210.88
10551,E-4,1872.0,0.5,43,210.88
10552,C5,1872.0,0.5,43,210.88
10553,E-3,1872.0,1.0,28,210.88
10554,C3,1872.0,1.0,28,210.88
10555,B-4,1872.5,0.75,53,210.88
10556,A4,1873.25,0.25,50,210.88
10557,F4,1873.5,1.0,44,210.88
10558,A4,1873.5,1.0,44,210.88
10559,F#4,1874.5,1.0,46,210.88
10560,A4,1874.5,1.0,46,210.88
10561,F4,1875.5,0.5,44,210.88
10562,A4,1875.5,1.0,52,210.88
10563,E-4,1876.0,0.5,48,210.88
10564,C3,1876.0,0.5,32,210.88
10565,D4,1876.5,0.5,50,210.88
10566,B-4,1876.5,0.5,50,210.88
10567,F2,1877.0,1.0,27,210.88
10568,C3,1877.0,0.75,32,210.88
10569,D4,1877.5,3.0,43,210.88
10570,F4,1877.5,3.0,43,210.88
10571,D3,1877.75,0.25,27,210.88
10572,F2,1878.0,1.0,26,210.88
10573,E-3,1878.0,1.0,26,210.88
10574,F2,1879.0,1.0,26,210.88
10575,C3,1879.0,1.0,26,210.88
10576,D3,1880.0,0.5,34,210.88
10577,B-2,1880.0,1.0,28,210.88
10578,F3,1880.5,0.25,26,210.88
10579,F3,1881.0,0.25,26,210.88
10580,F3,1881.5,0.25,26,210.88
10581,D4,1881.5,3.0,55,210.88
10582,C4,1881.5,3.0,55,210.88
10583,F4,1881.5,3.0,55,210.88
10584,F3,1882.0,0.25,26,210.88
10585,F3,1882.5,0.25,26,210.88
10586,D3,1883.0,0.5,26,210.88
10587,F2,1883.0,1.0,21,210.88
10588,F3,1883.5,0.5,22,210.88
10589,F2,1884.0,1.0,22,210.88
10590,D3,1884.0,0.5,27,210.88
10591,F3,1884.5,0.5,22,210.88
10592,B3,1884.5,4.0,56,210.88
10593,D4,1884.5,4.0,56,210.88
10594,G#3,1884.5,3.0,62,210.88
10595,G#4,1884.5,3.0,62,210.88
10596,F2,1885.0,1.0,18,210.88
10597,C3,1885.0,0.5,24,210.88
10598,F3,1885.5,0.5,21,210.88
10599,F2,1886.0,1.0,22,210.88
10600,D3,1886.0,0.5,27,210.88
10601,F3,1886.5,0.5,21,210.88
10602,E-3,1887.0,0.5,26,210.88
10603,F2,1887.0,1.0,21,210.88
10604,F3,1887.5,0.5,20,210.88
10605,G3,1887.5,1.0,42,210.88
10606,G4,1887.5,1.0,42,210.88
10607,B-2,1888.0,2.0,22,210.88
10608,D3,1888.0,0.5,27,210.88
10609,F3,1888.5,0.25,20,210.88
10610,G3,1888.5,1.0,45,210.88
10611,C4,1888.5,1.0,45,210.88
10612,F4,1888.5,1.0,45,210.88
10613,F3,1889.0,0.25,20,210.88
10614,E-4,1889.5,0.5,46,210.88
10615,F3,1889.5,0.25,20,210.88
10616,F3,1890.0,0.25,20,210.88
10617,F#3,1890.0,0.5,40,210.88
10618,D4,1890.0,0.5,40,210.88
10619,G3,1890.5,1.5,41,210.88
10620,F4,1890.5,1.0,49,210.88
10621,F3,1890.5,0.25,20,210.88
10622,B-2,1891.0,0.5,26,210.88
10623,F2,1891.0,1.0,21,210.88
10624,E-4,1891.5,0.5,46,210.88
10625,F3,1891.5,0.5,22,210.88
10626,F2,1892.0,1.0,22,210.88
10627,B-2,1892.0,0.5,27,210.88
10628,E-3,1892.0,0.5,38,210.88
10629,C4,1892.0,0.5,38,210.88
10630,B-3,1892.5,0.75,47,210.88
10631,F3,1892.5,0.5,23,210.88
10632,F2,1893.0,1.0,19,210.88
10633,A2,1893.0,0.5,25,210.88
10634,A3,1893.25,0.25,45,210.88
10635,F3,1893.5,0.5,22,210.88
10636,F3,1893.5,1.0,40,210.88
10637,A3,1893.5,1.0,40,210.88
10638,F2,1894.0,1.0,24,210.88
10639,B-2,1894.0,0.5,28,210.88
10640,F3,1894.5,0.5,23,210.88
10641,F#3,1894.5,1.0,41,210.88
10642,A3,1894.5,1.0,41,210.88
10643,C3,1895.0,0.5,28,210.88
10644,F2,1895.0,1.0,23,210.88
10645,F3,1895.5,0.5,39,210.88
10646,A3,1895.5,1.0,46,210.88
10647,F3,1895.5,0.5,22,210.88
10648,E-3,1896.0,0.5,43,210.88
10649,B-2,1896.0,2.0,22,210.88
10650,B-3,1896.5,0.5,48,210.88
10651,F3,1896.5,0.25,20,210.88
10652,F3,1897.0,0.25,20,210.88
10653,F3,1897.5,0.25,20,210.88
10654,F3,1898.0,0.25,20,210.88
10655,F3,1898.5,0.25,20,210.88
10656,D3,1899.0,0.5,26,210.88
10657,F2,1899.0,1.0,21,210.88
10658,F3,1899.5,0.5,22,210.88
10659,B-3,1899.5,1.0,33,210.88
10660,F4,1899.5,1.0,33,210.88
10661,B-4,1899.5,1.0,33,210.88
10662,F2,1900.0,1.0,22,210.88
10663,D3,1900.0,0.5,27,210.88
10664,F3,1900.5,0.5,22,210.88
10665,B-3,1900.5,1.0,34,210.88
10666,F4,1900.5,1.0,34,210.88
10667,B-4,1900.5,1.0,34,210.88
10668,F2,1901.0,1.0,18,210.88
10669,C3,1901.0,0.5,24,210.88
10670,F3,1901.5,0.5,21,210.88
10671,A3,1901.5,1.0,31,210.88
10672,F4,1901.5,1.0,31,210.88
10673,A4,1901.5,1.0,31,210.88
10674,F2,1902.0,1.0,22,210.88
10675,D3,1902.0,0.5,27,210.88
10676,F3,1902.5,0.5,21,210.88
10677,B-3,1902.5,1.0,34,210.88
10678,F4,1902.5,1.0,34,210.88
10679,B-4,1902.5,1.0,34,210.88
10680,E-3,1903.0,0.5,26,210.88
10681,F2,1903.0,1.0,21,210.88
10682,F3,1903.5,0.5,20,210.88
10683,F4,1903.5,1.0,32,210.88
10684,C4,1903.5,1.0,32,210.88
10685,A4,1903.5,1.0,32,210.88
10686,C5,1903.5,1.0,32,210.88
10687,F2,1904.0,3.5,24,210.88
10688,E-3,1904.0,3.5,24,210.88
10689,F3,1904.0,3.5,24,210.88
10690,B-3,1904.5,2.0,37,210.88
10691,F4,1904.5,2.0,37,210.88
10692,B-4,1904.5,2.0,37,210.88
10693,F1,1907.5,0.25,20,210.88
10694,D5,1907.5,1.0,33,210.88
10695,D4,1907.5,1.0,33,210.88
10696,F4,1907.5,1.0,33,210.88
10697,F#1,1907.667,0.25,16,210.88
10698,G#1,1907.833,167/1000,16,210.88
10699,F#1,1908.0,26/125,20,210.88
10700,G#1,1908.0,83/1000,16,210.88
10701,G#1,1908.125,26/125,17,210.88
10702,F#1,1908.25,26/125,18,210.88
10703,G#1,1908.375,26/125,16,210.88
10704,F#1,1908.5,26/125,18,210.88
10705,D4,1908.5,1.0,35,210.88
10706,F4,1908.5,1.0,35,210.88
10707,D5,1908.5,1.0,35,210.88
10708,G#1,1908.625,26/125,16,210.88
10709,F#1,1908.75,26/125,18,210.88
10710,G#1,1908.875,26/125,18,210.88
10711,F#1,1909.0,26/125,19,210.88
10712,G#1,1909.125,26/125,17,210.88
10713,F#1,1909.25,26/125,19,210.88
10714,G#1,1909.375,26/125,16,210.88
10715,F#1,1909.5,26/125,18,210.88
10716,C4,1909.5,1.0,33,210.88
10717,C5,1909.5,1.0,33,210.88
10718,F4,1909.5,1.0,33,210.88
10719,G#1,1909.625,26/125,17,210.88
10720,F#1,1909.75,26/125,17,210.88
10721,G#1,1909.875,26/125,16,210.88
10722,F#1,1910.0,26/125,18,210.88
10723,G#1,1910.125,26/125,17,210.88
10724,F#1,1910.25,26/125,18,210.88
10725,G#1,1910.375,26/125,16,210.88
10726,F#1,1910.5,26/125,18,210.88
10727,D5,1910.5,1.0,37,210.88
10728,D4,1910.5,1.0,37,210.88
10729,F4,1910.5,1.0,37,210.88
10730,G#1,1910.625,26/125,15,210.88
10731,F#1,1910.75,26/125,18,210.88
10732,G#1,1910.875,26/125,15,210.88
10733,F#1,1911.0,26/125,19,210.88
10734,G#1,1911.125,26/125,16,210.88
10735,F#1,1911.25,26/125,18,210.88
10736,G#1,1911.375,26/125,15,210.88
10737,F1,1911.5,333/1000,18,210.88
10738,E-5,1911.5,1.0,38,210.88
10739,E-4,1911.5,1.0,38,210.88
10740,A4,1911.5,1.0,38,210.88
10741,F#1,1911.75,0.25,14,210.88
10742,F1,1912.0,0.25,18,210.88
10743,F#1,1912.0,83/1000,14,210.88
10744,D4,1912.5,2.0,37,210.88
10745,B-4,1912.5,2.0,37,210.88
10746,D5,1912.5,2.0,37,210.88
10747,F2,1914.0,1.0,26,210.88
10748,C3,1914.0,1.0,26,210.88
10749,F3,1914.0,1.0,26,210.88
10750,B-3,1915.5,1.0,33,210.88
10751,F4,1915.5,1.0,33,210.88
10752,B-4,1915.5,1.0,33,210.88
10753,B-2,1916.0,1.0,28,210.88
10754,F3,1916.0,1.0,28,210.88
10755,B-3,1916.5,1.0,34,210.88
10756,F4,1916.5,1.0,34,210.88
10757,B-4,1916.5,1.0,34,210.88
10758,A3,1917.5,1.0,31,210.88
10759,F4,1917.5,1.0,31,210.88
10760,A4,1917.5,1.0,31,210.88
10761,B-3,1918.5,1.0,34,210.88
10762,F4,1918.5,1.0,34,210.88
10763,B-4,1918.5,1.0,34,210.88
10764,F4,1919.5,1.0,32,210.88
10765,C4,1919.5,1.0,32,210.88
10766,A4,1919.5,1.0,32,210.88
10767,C5,1919.5,1.0,32,210.88
10768,B-1,1920.0,1.0,25,210.88
10769,B-2,1920.0,1.0,25,210.88
10770,D3,1920.0,1.0,25,210.88
10771,F3,1920.0,1.0,25,210.88
10772,B-3,1920.0,1.0,25,210.88
10773,A4,1920.5,4.0,36,210.88
10774,C4,1920.5,4.0,36,210.88
10775,F4,1920.5,4.0,36,210.88
10776,C5,1920.5,4.0,36,210.88
10777,B-1,1924.0,4.0,25,210.88
10778,B-2,1924.0,4.0,25,210.88
10779,D3,1924.0,4.0,25,210.88
10780,F3,1924.0,4.0,25,210.88
10781,B-3,1924.0,4.0,25,210.88
10782,B-1,1929.0,1.0,25,210.88
10783,B-2,1929.0,1.0,25,210.88
10784,D3,1929.0,1.0,25,210.88
10785,F3,1929.0,1.0,25,210.88
10786,B-3,1929.0,1.0,25,210.88
10787,A4,1929.5,4.0,36,210.88
10788,C4,1929.5,4.0,36,210.88
10789,F4,1929.5,4.0,36,210.88
10790,C5,1929.5,4.0,36,210.88
10791,A4,1934.5,1.0,36,210.88
10792,C4,1934.5,1.0,36,210.88
10793,F4,1934.5,1.0,36,210.88
10794,C5,1934.5,1.0,36,210.88
10795,E-4,1936.5,1.0,32,210.88
10796,A4,1936.5,1.0,32,210.88
10797,F5,1936.5,1.0,32,210.88
10798,D4,1938.5,1.0,33,210.88
10799,B-4,1938.5,1.0,33,210.88
