,note_name,start_time,duration,velocity,tempo
0,F3,0.0,0.188,34,99.66
1,F4,0.5,0.188,24,99.66
2,C4,0.5,0.188,24,99.66
3,F3,1.0,0.188,34,99.66
4,F4,1.5,0.188,24,99.66
5,C4,1.5,0.188,24,99.66
6,F3,2.0,0.188,34,99.66
7,F4,2.5,0.188,24,99.66
8,C4,2.5,0.188,24,99.66
9,F3,3.0,0.188,34,99.66
10,F4,3.5,0.188,22,99.66
11,C4,3.5,0.188,22,99.66
12,B-4,3.875,0.125,48,99.66
13,G#4,4.0,0.25,56,99.66
14,F3,4.0,0.188,34,99.66
15,G#4,4.5,0.25,50,99.66
16,F4,4.5,0.188,25,99.66
17,C4,4.5,0.188,25,99.66
18,B-4,4.75,0.25,50,99.66
19,G#4,5.0,0.25,55,99.66
20,F3,5.0,0.188,34,99.66
21,G4,5.5,0.25,52,99.66
22,E4,5.5,0.188,24,99.66
23,C4,5.5,0.188,24,99.66
24,G#4,5.75,0.125,48,99.66
25,B-4,5.875,0.125,48,99.66
26,F3,6.0,0.188,37,99.66
27,G#4,6.0,0.75,54,99.66
28,C5,6.0,0.75,54,99.66
29,F4,6.5,0.188,25,99.66
30,C4,6.5,0.188,25,99.66
31,G#4,6.75,0.125,48,99.66
32,B-4,6.875,0.125,48,99.66
33,F3,7.0,0.188,37,99.66
34,G#4,7.0,0.875,53,99.66
35,C5,7.0,0.875,53,99.66
36,F4,7.5,0.188,26,99.66
37,C4,7.5,0.188,26,99.66
38,B-4,7.875,0.125,48,99.66
39,G#4,8.0,0.25,56,99.66
40,F3,8.0,0.188,34,99.66
41,G#4,8.5,0.25,51,99.66
42,F4,8.5,0.188,26,99.66
43,C4,8.5,0.188,26,99.66
44,B-4,8.75,0.25,51,99.66
45,G#4,9.0,0.25,55,99.66
46,F3,9.0,0.188,34,99.66
47,G4,9.5,0.25,48,99.66
48,C5,9.5,0.25,48,99.66
49,E4,9.5,0.188,26,99.66
50,C4,9.5,0.188,26,99.66
51,C5,9.875,0.125,48,99.66
52,F3,10.0,0.188,38,99.66
53,F5,10.0,0.875,57,99.66
54,G#4,10.0,0.875,57,99.66
55,F4,10.5,0.188,27,99.66
56,C4,10.5,0.188,27,99.66
57,C5,10.875,0.125,48,99.66
58,F3,11.0,0.188,38,99.66
59,G#4,11.0,1.0,55,99.66
60,F5,11.0,1.0,55,99.66
61,F4,11.5,0.188,27,99.66
62,C4,11.5,0.188,27,99.66
63,F#5,11.875,0.125,43,99.66
64,C#3,12.0,0.25,32,99.66
65,G#4,12.0,0.5,52,99.66
66,F5,12.0,0.5,52,99.66
67,G#4,12.5,0.5,40,99.66
68,F5,12.5,0.25,45,99.66
69,F4,12.5,0.25,24,99.66
70,C#4,12.5,0.25,24,99.66
71,F#5,12.75,0.25,45,99.66
72,C3,13.0,0.25,32,99.66
73,A4,13.0,0.5,46,99.66
74,F5,13.0,0.5,46,99.66
75,A4,13.5,0.5,42,99.66
76,F5,13.5,0.5,42,99.66
77,F4,13.5,0.25,24,99.66
78,E-4,13.5,0.25,24,99.66
79,C4,13.5,0.25,24,99.66
80,B-4,14.0,0.75,43,99.66
81,F5,14.0,0.5,48,99.66
82,B-2,14.0,0.5,32,99.66
83,B-5,14.5,0.25,43,99.66
84,F4,14.5,0.25,22,99.66
85,C#4,14.5,0.25,22,99.66
86,B-3,14.5,0.25,22,99.66
87,F3,15.0,0.5,30,99.66
88,G#4,15.0,1.0,40,99.66
89,F5,15.0,1.0,40,99.66
90,F4,15.5,0.5,22,99.66
91,C4,15.5,0.5,22,99.66
92,C3,16.0,0.188,30,99.66
93,G#4,16.0,11/40,40,99.66
94,C5,16.0,11/40,40,99.66
95,G4,16.25,11/40,37,99.66
96,B-4,16.25,11/40,37,99.66
97,F4,16.5,11/40,37,99.66
98,G#4,16.5,11/40,37,99.66
99,F4,16.5,0.188,24,99.66
100,C4,16.5,0.188,24,99.66
101,G4,16.75,11/40,37,99.66
102,B-4,16.75,11/40,37,99.66
103,G#4,17.0,0.5,37,99.66
104,C5,17.0,0.25,42,99.66
105,C3,17.0,0.188,29,99.66
106,C#5,17.25,0.25,39,99.66
107,C5,17.5,0.25,39,99.66
108,B-4,17.5,0.5,37,99.66
109,G4,17.5,0.5,37,99.66
110,E4,17.5,0.188,22,99.66
111,C4,17.5,0.188,22,99.66
112,E5,17.75,0.25,39,99.66
113,F3,18.0,0.25,32,99.66
114,F5,18.0,1.0,40,99.66
115,C5,18.0,1.0,40,99.66
116,G#4,18.0,1.0,40,99.66
117,F4,18.5,0.25,24,99.66
118,C4,18.5,0.25,24,99.66
119,F3,19.0,0.25,29,99.66
120,G#4,19.0,833/1000,40,99.66
121,C5,19.0,833/1000,40,99.66
122,F5,19.0,833/1000,40,99.66
123,F4,19.5,0.25,25,99.66
124,C4,19.5,0.25,25,99.66
125,B-4,19.875,0.125,48,99.66
126,G#4,20.0,0.25,56,99.66
127,F3,20.0,0.188,34,99.66
128,G#4,20.5,0.25,50,99.66
129,F4,20.5,0.188,25,99.66
130,C4,20.5,0.188,25,99.66
131,B-4,20.75,0.25,50,99.66
132,G#4,21.0,0.25,55,99.66
133,F3,21.0,0.188,34,99.66
134,G4,21.5,0.25,52,99.66
135,E4,21.5,0.188,24,99.66
136,C4,21.5,0.188,24,99.66
137,G#4,21.75,0.125,48,99.66
138,B-4,21.875,0.125,48,99.66
139,F3,22.0,0.188,36,99.66
140,G#4,22.0,0.75,54,99.66
141,C5,22.0,0.75,54,99.66
142,F4,22.5,0.188,27,99.66
143,C4,22.5,0.188,27,99.66
144,G#4,22.75,0.125,48,99.66
145,B-4,22.875,0.125,48,99.66
146,F3,23.0,0.188,32,99.66
147,G#4,23.0,0.875,54,99.66
148,C5,23.0,0.875,54,99.66
149,F4,23.5,0.188,26,99.66
150,C4,23.5,0.188,26,99.66
151,B-4,23.875,0.125,48,99.66
152,G#4,24.0,0.25,56,99.66
153,F3,24.0,0.188,34,99.66
154,G#4,24.5,0.25,51,99.66
155,F4,24.5,0.188,26,99.66
156,C4,24.5,0.188,26,99.66
157,B-4,24.75,0.25,51,99.66
158,G#4,25.0,0.25,55,99.66
159,F3,25.0,0.188,32,99.66
160,G4,25.5,0.25,48,99.66
161,C5,25.5,0.25,48,99.66
162,E4,25.5,0.188,26,99.66
163,C4,25.5,0.188,26,99.66
164,C5,25.875,0.125,48,99.66
165,F3,26.0,0.188,38,99.66
166,F5,26.0,0.875,57,99.66
167,G#4,26.0,0.875,57,99.66
168,F4,26.5,0.188,27,99.66
169,C4,26.5,0.188,27,99.66
170,C5,26.875,0.125,48,99.66
171,F3,27.0,0.188,38,99.66
172,G#4,27.0,1.0,55,99.66
173,F5,27.0,1.0,55,99.66
174,F4,27.5,0.188,27,99.66
175,C4,27.5,0.188,27,99.66
176,F#5,27.875,0.125,43,99.66
177,C#3,28.0,0.25,32,99.66
178,G#4,28.0,0.5,49,99.66
179,F5,28.0,0.5,49,99.66
180,G#4,28.5,0.5,40,99.66
181,F5,28.5,0.25,45,99.66
182,F4,28.5,0.25,24,99.66
183,C#4,28.5,0.25,24,99.66
184,F#5,28.75,0.25,45,99.66
185,C3,29.0,0.25,32,99.66
186,A4,29.0,0.5,46,99.66
187,F5,29.0,0.5,46,99.66
188,A4,29.5,0.5,42,99.66
189,F5,29.5,0.5,42,99.66
190,F4,29.5,0.25,24,99.66
191,E-4,29.5,0.25,24,99.66
192,C4,29.5,0.25,24,99.66
193,B-4,30.0,0.75,43,99.66
194,F5,30.0,0.5,48,99.66
195,B-2,30.0,0.5,32,99.66
196,B-5,30.5,0.25,43,99.66
197,F4,30.5,0.25,22,99.66
198,C#4,30.5,0.25,22,99.66
199,B-3,30.5,0.25,22,99.66
200,F3,31.0,0.5,29,99.66
201,G#4,31.0,1.0,40,99.66
202,F5,31.0,1.0,40,99.66
203,F4,31.5,0.5,22,99.66
204,C4,31.5,0.5,22,99.66
205,C3,32.0,0.188,30,99.66
206,G#4,32.0,11/40,40,99.66
207,C5,32.0,11/40,40,99.66
208,G4,32.25,11/40,37,99.66
209,B-4,32.25,11/40,37,99.66
210,F4,32.5,11/40,37,99.66
211,G#4,32.5,11/40,37,99.66
212,F4,32.5,0.188,24,99.66
213,C4,32.5,0.188,24,99.66
214,G4,32.75,11/40,37,99.66
215,B-4,32.75,11/40,37,99.66
216,G#4,33.0,0.5,42,99.66
217,C5,33.0,0.25,42,99.66
218,C3,33.0,0.188,29,99.66
219,C#5,33.25,0.25,39,99.66
220,C5,33.5,0.25,39,99.66
221,B-4,33.5,0.5,37,99.66
222,G4,33.5,0.5,37,99.66
223,E4,33.5,0.188,22,99.66
224,C4,33.5,0.188,22,99.66
225,E5,33.75,0.25,39,99.66
226,F3,34.0,0.25,32,99.66
227,F5,34.0,1.0,40,99.66
228,C5,34.0,1.0,40,99.66
229,G#4,34.0,1.0,40,99.66
230,F4,34.5,0.25,24,99.66
231,C4,34.5,0.25,24,99.66
232,F3,35.0,0.25,29,99.66
233,G#4,35.0,1.0,40,99.66
234,C5,35.0,1.0,40,99.66
235,F5,35.0,1.0,40,99.66
236,F4,35.5,0.25,25,99.66
237,C4,35.5,0.25,25,99.66
238,C5,36.0,1.0,57,99.66
239,G#3,36.0,0.25,30,99.66
240,C4,36.5,0.25,24,99.66
241,E-4,36.5,0.25,24,99.66
242,G#4,36.5,0.25,24,99.66
243,C5,37.0,1.0,57,99.66
244,G#3,37.0,0.25,29,99.66
245,C4,37.5,0.25,24,99.66
246,E-4,37.5,0.25,24,99.66
247,G#4,37.5,0.25,24,99.66
248,C5,38.0,11/40,50,99.66
249,G#3,38.0,0.25,32,99.66
250,C#5,38.25,11/40,51,99.66
251,E-5,38.5,11/40,55,99.66
252,G4,38.5,0.25,24,99.66
253,E-4,38.5,0.25,24,99.66
254,B-3,38.5,0.25,24,99.66
255,C#5,38.75,0.25,52,99.66
256,C#5,39.0,0.75,52,99.66
257,G#3,39.0,0.25,28,99.66
258,G4,39.5,0.25,24,99.66
259,E-4,39.5,0.25,24,99.66
260,B-3,39.5,0.25,24,99.66
261,C5,39.75,0.125,49,99.66
262,C5,39.938,0.062,43,99.66
263,B-4,40.0,0.25,52,99.66
264,G#3,40.0,0.25,29,99.66
265,B-4,40.5,0.25,48,99.66
266,G4,40.5,0.25,24,99.66
267,E-4,40.5,0.25,24,99.66
268,C#4,40.5,0.25,24,99.66
269,C5,41.0,0.25,51,99.66
270,G#3,41.0,0.25,29,99.66
271,B-4,41.25,0.25,49,99.66
272,G#4,41.5,0.25,46,99.66
273,G4,41.5,0.25,24,99.66
274,E-4,41.5,0.25,24,99.66
275,C#4,41.5,0.25,24,99.66
276,B-4,41.75,0.25,50,99.66
277,B-4,42.0,1.0,54,99.66
278,G#3,42.0,0.25,32,99.66
279,G#4,42.5,0.25,24,99.66
280,E-4,42.5,0.25,24,99.66
281,C4,42.5,0.25,24,99.66
282,C5,43.0,0.875,54,99.66
283,G#3,43.0,0.25,29,99.66
284,G#4,43.5,0.25,24,99.66
285,E-4,43.5,0.25,24,99.66
286,C4,43.5,0.25,24,99.66
287,E-5,43.875,0.125,46,99.66
288,G#3,44.0,0.5,34,99.66
289,G#5,44.0,0.875,54,99.66
290,C5,44.0,0.875,54,99.66
291,G#4,44.5,0.5,25,99.66
292,C4,44.5,0.5,25,99.66
293,E-4,44.5,0.5,25,99.66
294,E-5,44.875,0.125,45,99.66
295,G#3,45.0,0.5,32,99.66
296,C5,45.0,1.0,56,99.66
297,G#5,45.0,1.0,56,99.66
298,G#4,45.5,0.5,26,99.66
299,E-4,45.5,0.5,26,99.66
300,C4,45.5,0.5,26,99.66
301,C#3,46.0,0.188,29,99.66
302,E-5,46.0,11/40,48,99.66
303,G5,46.0,11/40,48,99.66
304,C#5,46.25,11/40,48,99.66
305,F5,46.25,11/40,48,99.66
306,C5,46.5,11/40,42,99.66
307,E5,46.5,11/40,42,99.66
308,F4,46.5,0.188,25,99.66
309,C#4,46.5,0.188,25,99.66
310,C#5,46.75,0.25,42,99.66
311,F5,46.75,0.25,42,99.66
312,C#3,47.0,0.188,30,99.66
313,C#5,47.0,1.0,48,99.66
314,F5,47.0,1.0,48,99.66
315,F4,47.5,0.188,25,99.66
316,C#4,47.5,0.188,25,99.66
317,F5,48.0,0.25,55,99.66
318,E-3,48.0,0.188,29,99.66
319,G4,48.0,0.5,49,99.66
320,C#5,48.0,0.5,49,99.66
321,E-5,48.25,0.25,46,99.66
322,G4,48.5,0.25,46,99.66
323,E-5,48.5,1.0,46,99.66
324,C#5,48.5,1.0,46,99.66
325,E-4,48.5,0.188,24,99.66
326,C#4,48.5,0.188,24,99.66
327,B-3,48.5,0.188,24,99.66
328,G#4,48.75,0.25,46,99.66
329,B-4,49.0,0.5,52,99.66
330,E-3,49.0,0.188,29,99.66
331,G#4,49.5,0.25,42,99.66
332,C#5,49.5,0.5,42,99.66
333,E-5,49.5,0.5,42,99.66
334,C#4,49.5,0.188,24,99.66
335,E-4,49.5,0.188,24,99.66
336,B-3,49.5,0.188,24,99.66
337,G4,49.75,0.25,42,99.66
338,G#3,50.0,0.5,29,99.66
339,G#4,50.0,1.0,36,99.66
340,C5,50.0,1.0,36,99.66
341,E-5,50.0,1.0,36,99.66
342,E-4,50.5,0.5,22,99.66
343,C4,50.5,0.5,22,99.66
344,G#3,51.0,0.5,28,99.66
345,E-5,51.0,1.0,36,99.66
346,C5,51.0,1.0,36,99.66
347,G#4,51.0,1.0,36,99.66
348,E-4,51.5,0.5,22,99.66
349,C4,51.5,0.5,22,99.66
350,C5,52.0,1.0,57,99.66
351,G#3,52.0,0.25,30,99.66
352,C4,52.5,0.25,24,99.66
353,E-4,52.5,0.25,24,99.66
354,G#4,52.5,0.25,24,99.66
355,C5,53.0,1.0,57,99.66
356,G#3,53.0,0.25,29,99.66
357,C4,53.5,0.25,24,99.66
358,E-4,53.5,0.25,24,99.66
359,G#4,53.5,0.25,24,99.66
360,C5,54.0,11/40,50,99.66
361,G#3,54.0,0.25,32,99.66
362,C#5,54.25,11/40,51,99.66
363,E-5,54.5,11/40,55,99.66
364,G4,54.5,0.25,24,99.66
365,E-4,54.5,0.25,24,99.66
366,B-3,54.5,0.25,24,99.66
367,C#5,54.75,0.25,52,99.66
368,C#5,55.0,0.75,52,99.66
369,G#3,55.0,0.25,28,99.66
370,G4,55.5,0.25,24,99.66
371,E-4,55.5,0.25,24,99.66
372,B-3,55.5,0.25,24,99.66
373,C5,55.75,0.125,49,99.66
374,C5,55.938,0.062,43,99.66
375,B-4,56.0,0.5,52,99.66
376,G#3,56.0,0.25,29,99.66
377,B-4,56.5,0.5,48,99.66
378,G4,56.5,0.25,24,99.66
379,E-4,56.5,0.25,24,99.66
380,C#4,56.5,0.25,24,99.66
381,C5,57.0,0.25,51,99.66
382,G#3,57.0,0.25,29,99.66
383,B-4,57.25,0.25,49,99.66
384,G#4,57.5,0.25,46,99.66
385,G4,57.5,0.25,24,99.66
386,E-4,57.5,0.25,24,99.66
387,C#4,57.5,0.25,24,99.66
388,B-4,57.75,0.25,50,99.66
389,B-4,58.0,1.0,54,99.66
390,G#3,58.0,0.25,32,99.66
391,G#4,58.5,0.25,24,99.66
392,E-4,58.5,0.25,24,99.66
393,C4,58.5,0.25,24,99.66
394,C5,59.0,0.875,54,99.66
395,G#3,59.0,0.25,29,99.66
396,G#4,59.5,0.25,24,99.66
397,E-4,59.5,0.25,24,99.66
398,C4,59.5,0.25,24,99.66
399,E-5,59.875,0.125,46,99.66
400,G#3,60.0,0.5,34,99.66
401,G#5,60.0,0.875,54,99.66
402,C5,60.0,0.875,54,99.66
403,G#4,60.5,0.5,25,99.66
404,C4,60.5,0.5,25,99.66
405,E-4,60.5,0.5,25,99.66
406,E-5,60.875,0.125,45,99.66
407,G#3,61.0,0.5,32,99.66
408,C5,61.0,1.0,56,99.66
409,G#5,61.0,1.0,56,99.66
410,G#4,61.5,0.5,26,99.66
411,E-4,61.5,0.5,26,99.66
412,C4,61.5,0.5,26,99.66
413,C#3,62.0,0.188,29,99.66
414,E-5,62.0,11/40,48,99.66
415,G5,62.0,11/40,48,99.66
416,C#5,62.25,11/40,48,99.66
417,F5,62.25,11/40,48,99.66
418,C5,62.5,11/40,42,99.66
419,E5,62.5,11/40,42,99.66
420,F4,62.5,0.188,25,99.66
421,C#4,62.5,0.188,25,99.66
422,C#5,62.75,0.25,42,99.66
423,F5,62.75,0.25,42,99.66
424,C#3,63.0,0.188,30,99.66
425,C#5,63.0,1.0,48,99.66
426,F5,63.0,1.0,48,99.66
427,F4,63.5,0.188,25,99.66
428,C#4,63.5,0.188,25,99.66
429,F5,64.0,0.25,55,99.66
430,E-3,64.0,0.188,29,99.66
431,G4,64.0,0.5,49,99.66
432,C#5,64.0,0.5,49,99.66
433,E-5,64.25,0.25,46,99.66
434,G4,64.5,0.25,46,99.66
435,E-5,64.5,1.0,46,99.66
436,C#5,64.5,1.0,46,99.66
437,E-4,64.5,0.188,24,99.66
438,C#4,64.5,0.188,24,99.66
439,B-3,64.5,0.188,24,99.66
440,G#4,64.75,0.25,46,99.66
441,B-4,65.0,0.5,52,99.66
442,E-3,65.0,0.188,29,99.66
443,G#4,65.5,0.25,42,99.66
444,C#5,65.5,0.5,42,99.66
445,E-5,65.5,0.5,42,99.66
446,C#4,65.5,0.188,24,99.66
447,E-4,65.5,0.188,24,99.66
448,B-3,65.5,0.188,24,99.66
449,G4,65.75,0.25,42,99.66
450,G#3,66.0,0.5,29,99.66
451,G#4,66.0,1.0,36,99.66
452,C5,66.0,1.0,36,99.66
453,E-5,66.0,1.0,36,99.66
454,E-4,66.5,0.5,22,99.66
455,C4,66.5,0.5,22,99.66
456,G#3,67.0,0.5,28,99.66
457,E-5,67.0,1.0,36,99.66
458,C5,67.0,1.0,36,99.66
459,G#4,67.0,1.0,36,99.66
460,E-4,67.5,0.5,22,99.66
461,C4,67.5,0.5,22,99.66
462,C3,68.0,0.25,51,99.66
463,E5,68.0,1.0,59,99.66
464,C5,68.0,1.0,59,99.66
465,B-4,68.0,1.0,59,99.66
466,G4,68.0,1.0,59,99.66
467,E4,68.5,0.25,42,99.66
468,C4,68.5,0.25,42,99.66
469,C3,69.0,0.25,51,99.66
470,E5,69.0,0.875,59,99.66
471,C5,69.0,0.875,59,99.66
472,B-4,69.0,0.875,59,99.66
473,G4,69.0,0.875,59,99.66
474,E4,69.5,0.25,42,99.66
475,C4,69.5,0.25,42,99.66
476,F5,69.875,0.125,56,99.66
477,C3,70.0,0.25,46,99.66
478,G#4,70.0,0.5,59,99.66
479,C5,70.0,0.5,59,99.66
480,G#5,70.0,0.5,59,99.66
481,G#5,70.5,0.25,66,99.66
482,G#4,70.5,1.5,48,99.66
483,C5,70.5,1.5,48,99.66
484,F4,70.5,0.25,34,99.66
485,C4,70.5,0.25,34,99.66
486,G5,70.75,0.25,67,99.66
487,F5,71.0,0.5,67,99.66
488,C3,71.0,0.25,46,99.66
489,E-5,71.5,0.25,63,99.66
490,F4,71.5,0.25,34,99.66
491,C4,71.5,0.25,34,99.66
492,C#5,71.75,0.25,63,99.66
493,C3,72.0,0.25,52,99.66
494,G4,72.0,1.0,59,99.66
495,B-4,72.0,1.0,59,99.66
496,C5,72.0,1.0,59,99.66
497,E4,72.5,0.25,44,99.66
498,C4,72.5,0.25,44,99.66
499,C3,73.0,0.25,52,99.66
500,G4,73.0,0.875,59,99.66
501,B-4,73.0,0.875,59,99.66
502,C5,73.0,0.875,59,99.66
503,E5,73.0,0.875,59,99.66
504,E4,73.5,0.25,44,99.66
505,C4,73.5,0.25,44,99.66
506,F5,73.875,0.125,57,99.66
507,C3,74.0,0.25,45,99.66
508,G#4,74.0,0.5,61,99.66
509,C5,74.0,0.5,61,99.66
510,G#5,74.0,0.5,61,99.66
511,G#5,74.5,0.25,62,99.66
512,G#4,74.5,1.5,46,99.66
513,C5,74.5,1.5,46,99.66
514,F4,74.5,0.25,35,99.66
515,C4,74.5,0.25,35,99.66
516,G5,74.75,0.25,62,99.66
517,F5,75.0,0.5,62,99.66
518,F3,75.0,0.25,45,99.66
519,E-5,75.5,0.25,56,99.66
520,F4,75.5,0.25,35,99.66
521,C4,75.5,0.25,35,99.66
522,C#5,75.75,0.25,56,99.66
523,G#2,76.0,0.25,46,99.66
524,G#4,76.0,1.0,48,99.66
525,C5,76.0,1.0,48,99.66
526,C4,76.5,0.25,37,99.66
527,G#3,76.5,0.25,37,99.66
528,A2,77.0,0.25,45,99.66
529,F#4,77.0,1.0,52,99.66
530,C5,77.0,1.0,52,99.66
531,F#3,77.5,0.25,36,99.66
532,C4,77.5,0.25,36,99.66
533,C5,78.0,11/40,57,99.66
534,F4,78.0,1.0,51,99.66
535,B-2,78.0,0.25,38,99.66
536,C#5,78.25,11/40,60,99.66
537,E-5,78.5,11/40,62,99.66
538,B-3,78.5,0.25,30,99.66
539,F3,78.5,0.25,30,99.66
540,C#5,78.75,0.25,58,99.66
541,C#2,79.0,0.25,38,99.66
542,F4,79.0,0.5,55,99.66
543,C#5,79.0,0.5,55,99.66
544,E-4,79.5,0.25,49,99.66
545,C5,79.5,0.25,49,99.66
546,C#3,79.5,0.25,30,99.66
547,F3,79.5,0.25,30,99.66
548,C#4,79.75,0.25,48,99.66
549,B-4,79.75,0.25,48,99.66
550,E-2,80.0,0.25,29,99.66
551,C4,80.0,0.5,46,99.66
552,G#4,80.0,0.5,46,99.66
553,C4,80.5,0.5,46,99.66
554,G#4,80.5,0.5,46,99.66
555,G#3,80.5,0.25,22,99.66
556,E-3,80.5,0.25,22,99.66
557,E-2,81.0,0.25,29,99.66
558,C4,81.0,11/40,40,99.66
559,G#4,81.0,11/40,40,99.66
560,C#4,81.25,11/40,42,99.66
561,B-4,81.25,11/40,42,99.66
562,E-4,81.5,11/40,42,99.66
563,C5,81.5,11/40,42,99.66
564,G3,81.5,0.25,22,99.66
565,E-3,81.5,0.25,22,99.66
566,C#4,81.75,0.25,42,99.66
567,B-4,81.75,0.25,42,99.66
568,G#2,82.0,0.5,27,99.66
569,C4,82.0,1.0,40,99.66
570,G#4,82.0,1.0,40,99.66
571,C#4,82.0,1/40,42,99.66
572,B-4,82.0,1/40,42,99.66
573,G#3,82.5,0.5,20,99.66
574,E-3,82.5,0.5,20,99.66
575,G#2,83.0,0.5,27,99.66
576,C4,83.0,1.0,40,99.66
577,G#4,83.0,1.0,40,99.66
578,G#3,83.5,0.5,20,99.66
579,E-3,83.5,0.5,20,99.66
580,C3,84.0,0.25,51,99.66
581,E5,84.0,1.0,59,99.66
582,C5,84.0,1.0,59,99.66
583,B-4,84.0,1.0,59,99.66
584,G4,84.0,1.0,59,99.66
585,E4,84.5,0.25,42,99.66
586,C4,84.5,0.25,42,99.66
587,C3,85.0,0.25,51,99.66
588,E5,85.0,0.875,59,99.66
589,C5,85.0,0.875,59,99.66
590,B-4,85.0,0.875,59,99.66
591,G4,85.0,0.875,59,99.66
592,E4,85.5,0.25,42,99.66
593,C4,85.5,0.25,42,99.66
594,F5,85.875,0.125,56,99.66
595,C3,86.0,0.25,46,99.66
596,G#4,86.0,0.5,59,99.66
597,C5,86.0,0.5,59,99.66
598,G#5,86.0,0.5,59,99.66
599,G#5,86.5,0.25,66,99.66
600,G#4,86.5,1.5,48,99.66
601,C5,86.5,1.5,48,99.66
602,F4,86.5,0.25,34,99.66
603,C4,86.5,0.25,34,99.66
604,G5,86.75,0.25,67,99.66
605,F5,87.0,0.5,67,99.66
606,C3,87.0,0.25,46,99.66
607,E-5,87.5,0.25,63,99.66
608,F4,87.5,0.25,34,99.66
609,C4,87.5,0.25,34,99.66
610,C#5,87.75,0.25,63,99.66
611,C3,88.0,0.25,52,99.66
612,G4,88.0,1.0,59,99.66
613,B-4,88.0,1.0,59,99.66
614,C5,88.0,1.0,59,99.66
615,E4,88.5,0.25,44,99.66
616,C4,88.5,0.25,44,99.66
617,C3,89.0,0.25,52,99.66
618,G4,89.0,0.875,59,99.66
619,B-4,89.0,0.875,59,99.66
620,C5,89.0,0.875,59,99.66
621,E5,89.0,0.875,59,99.66
622,E4,89.5,0.25,44,99.66
623,C4,89.5,0.25,44,99.66
624,F5,89.875,0.125,57,99.66
625,C3,90.0,0.25,45,99.66
626,G#4,90.0,0.5,61,99.66
627,C5,90.0,0.5,61,99.66
628,G#5,90.0,0.5,61,99.66
629,G#5,90.5,0.25,62,99.66
630,G#4,90.5,1.5,46,99.66
631,C5,90.5,1.5,46,99.66
632,F4,90.5,0.25,35,99.66
633,C4,90.5,0.25,35,99.66
634,G5,90.75,0.25,62,99.66
635,F5,91.0,0.5,62,99.66
636,F3,91.0,0.25,45,99.66
637,E-5,91.5,0.25,56,99.66
638,F4,91.5,0.25,35,99.66
639,C4,91.5,0.25,35,99.66
640,C#5,91.75,0.25,56,99.66
641,G#2,92.0,0.25,46,99.66
642,G#4,92.0,1.0,48,99.66
643,C5,92.0,1.0,48,99.66
644,C4,92.5,0.25,37,99.66
645,G#3,92.5,0.25,37,99.66
646,A2,93.0,0.25,45,99.66
647,F#4,93.0,1.0,52,99.66
648,C5,93.0,1.0,52,99.66
649,F#3,93.5,0.25,36,99.66
650,C4,93.5,0.25,36,99.66
651,C5,94.0,11/40,57,99.66
652,F4,94.0,1.0,51,99.66
653,B-2,94.0,0.25,38,99.66
654,C#5,94.25,11/40,60,99.66
655,E-5,94.5,11/40,62,99.66
656,B-3,94.5,0.25,30,99.66
657,F3,94.5,0.25,30,99.66
658,C#5,94.75,0.25,58,99.66
659,C#2,95.0,0.25,38,99.66
660,F4,95.0,0.5,55,99.66
661,C#5,95.0,0.5,55,99.66
662,E-4,95.5,11/40,49,99.66
663,C5,95.5,11/40,49,99.66
664,C#3,95.5,0.25,30,99.66
665,F3,95.5,0.25,30,99.66
666,C#4,95.75,0.25,48,99.66
667,B-4,95.75,0.25,48,99.66
668,E-2,96.0,0.25,29,99.66
669,C4,96.0,0.5,46,99.66
670,G#4,96.0,0.5,46,99.66
671,C#4,96.0,1/40,48,99.66
672,B-4,96.0,1/40,48,99.66
673,C4,96.5,0.5,46,99.66
674,G#4,96.5,0.5,46,99.66
675,G#3,96.5,0.25,22,99.66
676,E-3,96.5,0.25,22,99.66
677,E-2,97.0,0.25,29,99.66
678,C4,97.0,11/40,40,99.66
679,G#4,97.0,11/40,40,99.66
680,C#4,97.25,11/40,42,99.66
681,B-4,97.25,11/40,42,99.66
682,E-4,97.5,11/40,42,99.66
683,C5,97.5,11/40,42,99.66
684,G3,97.5,0.25,22,99.66
685,E-3,97.5,0.25,22,99.66
686,C#4,97.75,0.25,42,99.66
687,B-4,97.75,0.25,42,99.66
688,G#2,98.0,0.5,27,99.66
689,C4,98.0,1.0,40,99.66
690,G#4,98.0,1.0,40,99.66
691,C#4,98.0,1/40,42,99.66
692,B-4,98.0,1/40,42,99.66
693,G#3,98.5,0.5,20,99.66
694,E-3,98.5,0.5,20,99.66
695,G#2,99.0,0.5,27,99.66
696,C4,99.0,0.875,40,99.66
697,G#4,99.0,0.875,40,99.66
698,G#3,99.5,0.375,20,99.66
699,E-3,99.5,0.375,20,99.66
700,B-4,99.875,0.125,48,99.66
701,G#4,100.0,0.25,46,99.66
702,F3,100.0,0.188,27,99.66
703,G#4,100.5,0.25,40,99.66
704,F4,100.5,0.188,20,99.66
705,C4,100.5,0.188,20,99.66
706,B-4,100.75,0.25,40,99.66
707,G#4,101.0,0.25,45,99.66
708,F3,101.0,0.188,27,99.66
709,G4,101.5,0.25,43,99.66
710,E4,101.5,0.188,20,99.66
711,C4,101.5,0.188,20,99.66
712,G#4,101.75,0.125,39,99.66
713,B-4,101.875,0.125,39,99.66
714,F3,102.0,0.188,29,99.66
715,G#4,102.0,0.75,42,99.66
716,C5,102.0,0.75,42,99.66
717,F4,102.5,0.188,20,99.66
718,C4,102.5,0.188,20,99.66
719,G#4,102.75,0.125,39,99.66
720,B-4,102.875,0.125,39,99.66
721,F3,103.0,0.188,29,99.66
722,G#4,103.0,0.875,42,99.66
723,C5,103.0,0.875,42,99.66
724,F4,103.5,0.188,21,99.66
725,C4,103.5,0.188,21,99.66
726,B-4,103.875,0.125,39,99.66
727,G#4,104.0,0.25,46,99.66
728,F3,104.0,0.188,27,99.66
729,G#4,104.5,0.25,42,99.66
730,F4,104.5,0.188,21,99.66
731,C4,104.5,0.188,21,99.66
732,B-4,104.75,0.25,42,99.66
733,G#4,105.0,0.25,45,99.66
734,F3,105.0,0.188,27,99.66
735,G4,105.5,0.25,40,99.66
736,C5,105.5,0.25,40,99.66
737,E4,105.5,0.188,21,99.66
738,C4,105.5,0.188,21,99.66
739,C5,105.875,0.125,39,99.66
740,F3,106.0,0.188,30,99.66
741,F5,106.0,0.875,46,99.66
742,G#4,106.0,0.875,46,99.66
743,F4,106.5,0.188,22,99.66
744,C4,106.5,0.188,22,99.66
745,C5,106.875,0.125,39,99.66
746,F3,107.0,0.188,30,99.66
747,G#4,107.0,1.0,46,99.66
748,F5,107.0,1.0,46,99.66
749,F4,107.5,0.188,22,99.66
750,C4,107.5,0.188,22,99.66
751,F#5,107.875,0.125,34,99.66
752,C#3,108.0,0.5,27,99.66
753,G#4,108.0,0.5,40,99.66
754,F5,108.0,0.5,40,99.66
755,G#4,108.5,0.5,33,99.66
756,F5,108.5,0.25,37,99.66
757,F4,108.5,0.5,20,99.66
758,C#4,108.5,0.5,20,99.66
759,F#5,108.75,0.25,37,99.66
760,C3,109.0,0.5,27,99.66
761,A4,109.0,0.5,37,99.66
762,F5,109.0,0.5,37,99.66
763,A4,109.5,0.5,35,99.66
764,F5,109.5,0.5,35,99.66
765,F4,109.5,0.5,19,99.66
766,E-4,109.5,0.5,19,99.66
767,C4,109.5,0.5,19,99.66
768,B-4,110.0,0.75,35,99.66
769,F5,110.0,0.5,39,99.66
770,B-2,110.0,0.5,27,99.66
771,B-5,110.5,0.25,34,99.66
772,F4,110.5,0.5,17,99.66
773,C#4,110.5,0.5,17,99.66
774,B-3,110.5,0.5,17,99.66
775,F3,111.0,0.5,25,99.66
776,G#4,111.0,1.0,31,99.66
777,F5,111.0,1.0,31,99.66
778,F4,111.5,0.5,18,99.66
779,C4,111.5,0.5,18,99.66
780,C3,112.0,0.25,25,99.66
781,G#4,112.0,11/40,31,99.66
782,C5,112.0,11/40,31,99.66
783,G4,112.25,11/40,29,99.66
784,B-4,112.25,11/40,29,99.66
785,F4,112.5,11/40,29,99.66
786,G#4,112.5,11/40,29,99.66
787,F4,112.5,0.25,20,99.66
788,C4,112.5,0.25,20,99.66
789,G4,112.75,0.25,29,99.66
790,B-4,112.75,0.25,29,99.66
791,G#4,113.0,0.5,29,99.66
792,C5,113.0,0.25,33,99.66
793,C3,113.0,0.25,24,99.66
794,C#5,113.25,0.25,31,99.66
795,C5,113.5,0.25,31,99.66
796,B-4,113.5,0.5,27,99.66
797,G4,113.5,0.5,27,99.66
798,E4,113.5,0.25,18,99.66
799,C4,113.5,0.25,18,99.66
800,E5,113.75,0.25,31,99.66
801,F3,114.0,0.25,27,99.66
802,F5,114.0,1.0,31,99.66
803,C5,114.0,1.0,31,99.66
804,G#4,114.0,1.0,31,99.66
805,F4,114.5,0.25,20,99.66
806,C4,114.5,0.25,20,99.66
807,F3,115.0,0.25,24,99.66
808,G#4,115.0,833/1000,31,99.66
809,C5,115.0,833/1000,31,99.66
810,F5,115.0,833/1000,31,99.66
811,F4,115.5,0.25,20,99.66
812,C4,115.5,0.25,20,99.66
813,G#5,115.875,0.125,34,99.66
814,B-2,116.0,0.25,24,99.66
815,E5,116.0,0.5,37,99.66
816,G5,116.0,0.5,37,99.66
817,E5,116.5,1.0,33,99.66
818,G5,116.5,0.25,37,99.66
819,C#4,116.5,0.25,20,99.66
820,B-3,116.5,0.25,20,99.66
821,G#5,116.75,0.25,37,99.66
822,G5,117.0,0.5,39,99.66
823,B-2,117.0,0.25,24,99.66
824,G5,117.5,0.5,38,99.66
825,E5,117.5,0.5,38,99.66
826,C#4,117.5,0.25,22,99.66
827,B-3,117.5,0.25,22,99.66
828,F5,118.0,1.5,40,99.66
829,B-5,118.0,0.5,45,99.66
830,B2,118.0,0.5,29,99.66
831,G#5,118.5,1.0,43,99.66
832,D4,118.5,0.5,25,99.66
833,B3,118.5,0.5,25,99.66
834,B2,119.0,0.5,24,99.66
835,G5,119.5,0.25,39,99.66
836,D4,119.5,0.25,22,99.66
837,B3,119.5,0.25,22,99.66
838,F5,119.75,0.125,39,99.66
839,C#5,119.875,0.125,34,99.66
840,C3,120.0,0.25,27,99.66
841,G#4,120.0,0.25,40,99.66
842,C5,120.0,0.25,40,99.66
843,G#4,120.5,1.0,35,99.66
844,C5,120.5,0.25,39,99.66
845,F4,120.5,0.25,22,99.66
846,C4,120.5,0.25,22,99.66
847,C#5,120.75,0.25,39,99.66
848,C5,121.0,0.5,39,99.66
849,C3,121.0,0.25,27,99.66
850,G4,121.5,0.25,33,99.66
851,B-4,121.5,0.25,33,99.66
852,C5,121.5,0.25,33,99.66
853,E5,121.5,0.25,33,99.66
854,E4,121.5,0.25,22,99.66
855,C4,121.5,0.25,22,99.66
856,F3,122.0,0.5,27,99.66
857,G#4,122.0,1.0,39,99.66
858,C5,122.0,1.0,39,99.66
859,F5,122.0,1.0,39,99.66
860,F4,122.5,0.5,21,99.66
861,C4,122.5,0.5,21,99.66
862,F3,123.0,0.5,27,99.66
863,G#4,123.0,0.875,39,99.66
864,C5,123.0,0.875,39,99.66
865,F5,123.0,0.875,39,99.66
866,F4,123.5,0.5,22,99.66
867,C4,123.5,0.5,22,99.66
868,G#5,123.875,0.125,30,99.66
869,B-2,124.0,0.188,21,99.66
870,E5,124.0,0.5,32,99.66
871,G5,124.0,0.5,32,99.66
872,E5,124.5,1.0,28,99.66
873,G5,124.5,0.25,32,99.66
874,C#4,124.5,0.188,16,99.66
875,B-3,124.5,0.188,16,99.66
876,G#5,124.75,0.25,32,99.66
877,G5,125.0,0.5,34,99.66
878,B-2,125.0,0.188,21,99.66
879,G5,125.5,0.5,34,99.66
880,E5,125.5,0.5,34,99.66
881,C#4,125.5,0.188,20,99.66
882,B-3,125.5,0.188,20,99.66
883,F5,126.0,1.5,34,99.66
884,B-5,126.0,0.5,38,99.66
885,B2,126.0,0.5,27,99.66
886,G#5,126.5,1.0,36,99.66
887,D4,126.5,0.5,22,99.66
888,B3,126.5,0.5,22,99.66
889,B2,127.0,0.5,21,99.66
890,G5,127.5,0.25,34,99.66
891,D4,127.5,0.25,20,99.66
892,B3,127.5,0.25,20,99.66
893,F5,127.75,0.125,34,99.66
894,D5,127.875,0.125,31,99.66
895,C3,128.0,0.25,24,99.66
896,A4,128.0,0.25,36,99.66
897,C5,128.0,0.25,36,99.66
898,A4,128.5,1.0,30,99.66
899,C5,128.5,0.25,34,99.66
900,F4,128.5,0.25,20,99.66
901,C4,128.5,0.25,20,99.66
902,D5,128.75,0.25,34,99.66
903,C5,129.0,0.5,34,99.66
904,C3,129.0,0.25,24,99.66
905,B-4,129.5,0.375,32,99.66
906,D5,129.5,0.375,32,99.66
907,E4,129.5,0.25,20,99.66
908,C4,129.5,0.25,20,99.66
909,D5,129.875,0.125,31,99.66
910,C3,130.0,0.25,24,99.66
911,A4,130.0,0.25,36,99.66
912,C5,130.0,0.25,36,99.66
913,A4,130.5,1.0,30,99.66
914,C5,130.5,0.25,34,99.66
915,F4,130.5,0.25,20,99.66
916,C4,130.5,0.25,20,99.66
917,D5,130.75,0.25,34,99.66
918,C5,131.0,0.5,34,99.66
919,C3,131.0,0.25,24,99.66
920,B-4,131.5,0.375,32,99.66
921,D5,131.5,0.375,32,99.66
922,E4,131.5,0.25,20,99.66
923,C4,131.5,0.25,20,99.66
924,D5,131.875,0.125,31,99.66
925,C3,132.0,0.25,24,99.66
926,A4,132.0,0.25,36,99.66
927,C5,132.0,0.25,36,99.66
928,A4,132.5,1.0,30,99.66
929,C5,132.5,0.25,34,99.66
930,F4,132.5,0.25,20,99.66
931,C4,132.5,0.25,20,99.66
932,D5,132.75,0.25,34,99.66
933,C5,133.0,0.5,34,99.66
934,C3,133.0,0.25,24,99.66
935,B-4,133.5,0.5,36,99.66
936,E5,133.5,0.5,36,99.66
937,G4,133.5,0.25,20,99.66
938,C4,133.5,0.25,20,99.66
939,F2,134.0,0.5,27,99.66
940,A4,134.0,1.0,40,99.66
941,F5,134.0,1.0,40,99.66
942,F3,134.5,0.5,20,99.66
943,C3,134.5,0.5,20,99.66
944,F2,135.0,0.5,27,99.66
945,A4,135.0,0.875,40,99.66
946,F5,135.0,0.875,40,99.66
947,F3,135.5,0.5,20,99.66
948,C3,135.5,0.5,20,99.66
949,D5,135.875,0.125,38,99.66
950,F2,136.0,0.25,27,99.66
951,A4,136.0,0.5,40,99.66
952,C5,136.0,0.5,40,99.66
953,A4,136.5,1.0,35,99.66
954,C5,136.5,0.25,39,99.66
955,F3,136.5,0.25,20,99.66
956,C3,136.5,0.25,20,99.66
957,D5,136.75,0.25,39,99.66
958,C5,137.0,0.5,42,99.66
959,F2,137.0,0.25,27,99.66
960,F4,137.5,0.5,34,99.66
961,A4,137.5,0.5,34,99.66
962,F3,137.5,0.25,21,99.66
963,C3,137.5,0.25,21,99.66
964,F2,138.0,0.5,27,99.66
965,E4,138.0,1.0,37,99.66
966,B-4,138.0,1.0,37,99.66
967,G3,138.5,0.5,21,99.66
968,C3,138.5,0.5,21,99.66
969,F2,139.0,0.5,27,99.66
970,E4,139.0,0.875,37,99.66
971,B-4,139.0,0.875,37,99.66
972,G3,139.5,0.5,21,99.66
973,C3,139.5,0.5,21,99.66
974,C5,139.875,0.125,37,99.66
975,F2,140.0,0.25,27,99.66
976,E4,140.0,0.5,40,99.66
977,B-4,140.0,0.5,40,99.66
978,B-4,140.5,0.25,38,99.66
979,E4,140.5,1.0,34,99.66
980,G3,140.5,0.25,20,99.66
981,C3,140.5,0.25,20,99.66
982,C5,140.75,0.25,39,99.66
983,B-4,141.0,0.5,42,99.66
984,F2,141.0,0.25,27,99.66
985,B-3,141.5,0.5,35,99.66
986,E4,141.5,0.5,35,99.66
987,G3,141.5,0.25,20,99.66
988,C3,141.5,0.25,20,99.66
989,F2,142.0,0.5,21,99.66
990,A3,142.0,1.0,29,99.66
991,F4,142.0,1.0,29,99.66
992,F3,142.5,0.5,16,99.66
993,C3,142.5,0.5,16,99.66
994,F2,143.0,0.5,21,99.66
995,A3,143.0,0.875,29,99.66
996,F4,143.0,0.875,29,99.66
997,F3,143.5,0.5,16,99.66
998,C3,143.5,0.5,16,99.66
999,D5,143.875,0.125,30,99.66
1000,F2,144.0,0.5,21,99.66
1001,A4,144.0,0.5,31,99.66
1002,C5,144.0,0.5,31,99.66
1003,A4,144.5,1.0,27,99.66
1004,C5,144.5,0.25,31,99.66
1005,F3,144.5,0.5,16,99.66
1006,C3,144.5,0.5,16,99.66
1007,D5,144.75,0.25,31,99.66
1008,C5,145.0,0.5,33,99.66
1009,F2,145.0,0.25,21,99.66
1010,E-4,145.5,0.5,26,99.66
1011,A4,145.5,0.5,26,99.66
1012,F#3,145.5,0.25,16,99.66
1013,C3,145.5,0.25,16,99.66
1014,F2,146.0,0.5,21,99.66
1015,E4,146.0,1.0,29,99.66
1016,B-4,146.0,1.0,29,99.66
1017,G3,146.5,0.5,16,99.66
1018,C3,146.5,0.5,16,99.66
1019,F2,147.0,0.5,21,99.66
1020,E4,147.0,0.875,29,99.66
1021,B-4,147.0,0.875,29,99.66
1022,G3,147.5,0.5,16,99.66
1023,C3,147.5,0.5,16,99.66
1024,C5,147.875,0.125,28,99.66
1025,F2,148.0,0.5,21,99.66
1026,E4,148.0,0.5,31,99.66
1027,B-4,148.0,0.5,31,99.66
1028,B-4,148.5,0.25,30,99.66
1029,E4,148.5,1.0,27,99.66
1030,G3,148.5,0.5,16,99.66
1031,C3,148.5,0.5,16,99.66
1032,C5,148.75,0.25,31,99.66
1033,B-4,149.0,0.5,33,99.66
1034,F2,149.0,0.5,21,99.66
1035,B-3,149.5,0.5,24,99.66
1036,E4,149.5,0.5,24,99.66
1037,G3,149.5,0.5,16,99.66
1038,C#3,149.5,0.5,16,99.66
1039,F2,150.0,0.5,18,99.66
1040,A3,150.0,1.0,22,99.66
1041,F4,150.0,1.0,22,99.66
1042,F3,150.5,0.5,12,99.66
1043,C3,150.5,0.5,12,99.66
1044,F2,151.0,0.5,16,99.66
1045,A3,151.0,1.0,20,99.66
1046,F4,151.0,1.0,20,99.66
1047,F3,151.5,0.5,12,99.66
1048,C3,151.5,0.5,12,99.66
1049,F2,152.0,0.5,14,99.66
1050,A3,152.0,1.0,20,99.66
1051,F4,152.0,1.0,20,99.66
1052,F3,152.5,0.5,10,99.66
1053,C3,152.5,0.5,10,99.66
1054,F2,153.0,0.5,13,99.66
1055,A3,153.0,1.0,18,99.66
1056,F4,153.0,1.0,18,99.66
1057,F3,153.5,0.5,10,99.66
1058,C3,153.5,0.5,10,99.66
1059,A3,154.0,2.0,17,99.66
1060,F4,154.0,2.0,17,99.66
1061,F3,154.0,2.0,9,99.66
1062,C3,154.0,2.0,9,99.66
1063,F2,154.0,2.0,9,99.66
