,note_name,start_time,duration,velocity,tempo
0,G4,0.002,0.875,60,110.66
1,G3,0.002,0.875,54,110.66
2,A4,0.875,0.125,50,110.66
3,A3,0.875,0.125,44,110.66
4,G4,1.0,333/1000,60,110.66
5,G3,1.0,333/1000,54,110.66
6,E4,1.333,333/1000,57,110.66
7,E3,1.333,333/1000,50,110.66
8,C4,1.667,333/1000,53,110.66
9,C3,1.667,333/1000,47,110.66
10,G4,2.0,0.75,60,110.66
11,G3,2.0,0.75,54,110.66
12,E5,2.75,0.25,56,110.66
13,E4,2.75,0.25,51,110.66
14,E5,3.0,2.0,60,110.66
15,E4,3.0,2.0,54,110.66
16,C5,5.0,0.5,44,110.66
17,C4,5.0,0.5,40,110.66
18,G4,6.0,0.875,59,110.66
19,F4,6.875,0.125,50,110.66
20,E4,7.0,333/1000,60,110.66
21,C4,7.333,333/1000,56,110.66
22,G3,7.667,333/1000,52,110.66
23,C4,8.0,333/1000,60,110.66
24,E4,8.333,333/1000,57,110.66
25,G4,8.667,333/1000,54,110.66
26,G2,9.0,0.25,51,110.66
27,G3,9.0,0.25,56,110.66
28,E4,9.0,0.25,56,110.66
29,G4,9.0,0.25,56,110.66
30,A2,9.5,0.25,46,110.66
31,F4,9.5,0.25,53,110.66
32,D4,9.5,0.25,53,110.66
33,G3,9.5,0.25,53,110.66
34,B2,9.75,0.25,46,110.66
35,C3,10.0,0.188,51,110.66
36,G3,10.0,0.188,56,110.66
37,C4,10.0,0.188,56,110.66
38,E4,10.0,0.188,56,110.66
39,G2,10.5,0.188,45,110.66
40,B3,10.5,0.188,50,110.66
41,G3,10.5,0.188,50,110.66
42,D4,10.5,0.188,50,110.66
43,C3,11.0,0.188,51,110.66
44,G3,11.0,0.188,56,110.66
45,E4,11.0,0.188,56,110.66
46,C4,11.0,0.188,56,110.66
47,G2,12.0,0.5,36,110.66
48,G3,12.0,0.25,41,110.66
49,E-4,12.0,0.25,41,110.66
50,G4,12.0,0.25,41,110.66
51,A2,12.5,0.25,34,110.66
52,F4,12.5,0.25,37,110.66
53,G3,12.5,0.25,37,110.66
54,D4,12.5,0.25,37,110.66
55,B2,12.75,0.25,35,110.66
56,C3,13.0,0.188,36,110.66
57,G3,13.0,0.188,41,110.66
58,C4,13.0,0.188,41,110.66
59,E-4,13.0,0.188,41,110.66
60,G2,13.5,0.188,33,110.66
61,D4,13.5,0.188,38,110.66
62,G3,13.5,0.188,38,110.66
63,B3,13.5,0.188,38,110.66
64,C3,14.0,0.188,36,110.66
65,G3,14.0,0.188,43,110.66
66,C4,14.0,0.188,43,110.66
67,E-4,14.0,0.188,43,110.66
68,B-2,14.5,0.188,33,110.66
69,F4,14.5,0.188,38,110.66
70,B-3,14.5,0.188,38,110.66
71,D4,14.5,0.188,38,110.66
72,B-2,15.0,0.5,49,110.66
73,B-3,15.0,0.5,53,110.66
74,D4,15.0,0.5,53,110.66
75,F4,15.0,0.5,53,110.66
76,E-3,15.5,0.375,43,110.66
77,E-4,15.5,0.375,49,110.66
78,B-3,15.5,0.375,49,110.66
79,G4,15.5,0.375,49,110.66
80,E-3,16.0,0.5,50,110.66
81,B-3,16.0,0.5,58,110.66
82,G4,16.0,0.5,58,110.66
83,E-4,16.0,0.5,58,110.66
84,D3,16.5,0.375,47,110.66
85,D4,16.5,0.375,53,110.66
86,F#4,16.5,0.375,53,110.66
87,A4,16.5,0.375,53,110.66
88,D3,17.0,0.5,56,110.66
89,A4,17.0,0.5,63,110.66
90,F#4,17.0,0.5,63,110.66
91,D4,17.0,0.5,63,110.66
92,G3,17.5,0.375,54,110.66
93,D4,17.5,0.375,58,110.66
94,G4,17.5,0.375,58,110.66
95,B-4,17.5,0.375,58,110.66
96,G3,18.0,0.5,59,110.66
97,B-4,18.0,0.5,68,110.66
98,D4,18.0,0.5,68,110.66
99,G4,18.0,0.5,68,110.66
100,D4,18.5,0.5,66,110.66
101,G4,18.5,0.5,66,110.66
102,B4,18.5,0.5,66,110.66
103,G2,18.5,0.5,57,110.66
104,G3,18.5,0.5,57,110.66
105,F3,18.5,0.5,57,110.66
106,G4,19.0,1.5,71,110.66
107,D4,19.0,1.5,71,110.66
108,B4,19.0,1.5,71,110.66
109,F3,19.0,1.5,61,110.66
110,G2,19.0,1.5,61,110.66
111,G3,19.0,1.5,61,110.66
112,F4,20.5,0.5,54,110.66
113,F5,20.5,0.5,54,110.66
114,B4,20.5,0.5,54,110.66
115,D3,20.5,0.5,48,110.66
116,G2,20.5,0.5,48,110.66
117,G3,20.5,0.5,48,110.66
118,E4,21.0,3.0,54,110.66
119,C5,21.0,3.0,54,110.66
120,E5,21.0,3.0,54,110.66
121,G3,21.0,3.0,48,110.66
122,C3,21.0,3.0,48,110.66
123,G4,24.0,0.875,60,110.66
124,G3,24.0,0.875,54,110.66
125,A4,24.875,0.125,50,110.66
126,A3,24.875,0.125,44,110.66
127,G4,25.0,333/1000,60,110.66
128,G3,25.0,333/1000,54,110.66
129,E4,25.333,333/1000,57,110.66
130,E3,25.333,333/1000,50,110.66
131,C4,25.667,333/1000,53,110.66
132,C3,25.667,333/1000,47,110.66
133,G4,26.0,0.75,60,110.66
134,G3,26.0,0.75,54,110.66
135,E5,26.75,0.25,56,110.66
136,E4,26.75,0.25,51,110.66
137,E5,27.0,2.0,60,110.66
138,E4,27.0,2.0,54,110.66
139,C5,29.0,0.5,44,110.66
140,C4,29.0,0.5,40,110.66
141,G4,30.0,0.875,59,110.66
142,F4,30.875,0.125,50,110.66
143,E4,31.0,333/1000,60,110.66
144,C4,31.333,333/1000,56,110.66
145,G3,31.667,333/1000,52,110.66
146,C4,32.0,333/1000,60,110.66
147,E4,32.333,333/1000,57,110.66
148,G4,32.667,333/1000,57,110.66
149,G2,33.0,0.25,51,110.66
150,G3,33.0,0.25,56,110.66
151,E4,33.0,0.25,56,110.66
152,G4,33.0,0.25,56,110.66
153,A2,33.5,0.25,46,110.66
154,G3,33.5,0.25,53,110.66
155,D4,33.5,0.25,53,110.66
156,F4,33.5,0.25,53,110.66
157,B2,33.75,0.25,46,110.66
158,C3,34.0,0.188,51,110.66
159,G3,34.0,0.188,56,110.66
160,C4,34.0,0.188,56,110.66
161,E4,34.0,0.188,56,110.66
162,G2,34.5,0.188,45,110.66
163,G3,34.5,0.188,50,110.66
164,B3,34.5,0.188,50,110.66
165,D4,34.5,0.188,50,110.66
166,C3,35.0,0.188,51,110.66
167,G3,35.0,0.188,56,110.66
168,C4,35.0,0.188,56,110.66
169,E4,35.0,0.188,56,110.66
170,G2,36.0,0.5,36,110.66
171,G3,36.0,0.25,41,110.66
172,E-4,36.0,0.25,41,110.66
173,G4,36.0,0.25,41,110.66
174,A2,36.5,0.25,34,110.66
175,G3,36.5,0.25,37,110.66
176,D4,36.5,0.25,37,110.66
177,F4,36.5,0.25,37,110.66
178,B2,36.75,0.25,35,110.66
179,C3,37.0,0.188,36,110.66
180,G3,37.0,0.188,41,110.66
181,C4,37.0,0.188,41,110.66
182,E-4,37.0,0.188,41,110.66
183,G2,37.5,0.188,33,110.66
184,G3,37.5,0.188,38,110.66
185,B3,37.5,0.188,38,110.66
186,D4,37.5,0.188,38,110.66
187,C3,38.0,0.188,38,110.66
188,G3,38.0,0.188,45,110.66
189,C4,38.0,0.188,45,110.66
190,E-4,38.0,0.188,45,110.66
191,B-2,38.5,0.25,36,110.66
192,B-3,38.5,0.25,41,110.66
193,D4,38.5,0.25,41,110.66
194,F4,38.5,0.25,41,110.66
195,B-2,39.0,0.5,47,110.66
196,B-3,39.0,0.5,51,110.66
197,D4,39.0,0.5,51,110.66
198,F4,39.0,0.5,51,110.66
199,E-3,39.5,0.375,43,110.66
200,B-3,39.5,0.375,48,110.66
201,E-4,39.5,0.375,48,110.66
202,G4,39.5,0.375,48,110.66
203,E-3,40.0,0.5,50,110.66
204,B-3,40.0,0.5,57,110.66
205,E-4,40.0,0.5,57,110.66
206,G4,40.0,0.5,57,110.66
207,D3,40.5,0.375,48,110.66
208,D4,40.5,0.375,54,110.66
209,F#4,40.5,0.375,54,110.66
210,A4,40.5,0.375,54,110.66
211,D3,41.0,0.5,56,110.66
212,D4,41.0,0.5,64,110.66
213,F#4,41.0,0.5,64,110.66
214,A4,41.0,0.5,64,110.66
215,G3,41.5,0.375,52,110.66
216,D4,41.5,0.375,57,110.66
217,G4,41.5,0.375,57,110.66
218,B-4,41.5,0.375,57,110.66
219,G3,42.0,0.5,59,110.66
220,D4,42.0,0.5,66,110.66
221,G4,42.0,0.5,66,110.66
222,B-4,42.0,0.5,66,110.66
223,D4,42.5,0.5,66,110.66
224,G4,42.5,0.5,66,110.66
225,B4,42.5,0.5,66,110.66
226,G2,42.5,0.5,56,110.66
227,F3,42.5,0.5,56,110.66
228,G3,42.5,0.5,56,110.66
229,D4,43.0,1.5,69,110.66
230,G4,43.0,1.5,69,110.66
231,B4,43.0,1.5,69,110.66
232,G2,43.0,1.5,63,110.66
233,F3,43.0,1.5,63,110.66
234,G3,43.0,1.5,63,110.66
235,F4,44.5,0.5,54,110.66
236,B4,44.5,0.5,54,110.66
237,F5,44.5,0.5,54,110.66
238,G2,44.5,0.5,48,110.66
239,D3,44.5,0.5,48,110.66
240,G3,44.5,0.5,48,110.66
241,E4,45.0,3.0,54,110.66
242,C5,45.0,3.0,54,110.66
243,E5,45.0,3.0,54,110.66
244,C3,45.0,3.0,48,110.66
245,G3,45.0,3.0,48,110.66
246,E5,48.0,0.875,54,110.66
247,F5,48.875,0.125,44,110.66
248,E5,49.0,333/1000,54,110.66
249,C5,49.333,333/1000,50,110.66
250,A4,49.667,26/125,47,110.66
251,D5,49.875,0.125,44,110.66
252,C5,50.0,333/1000,54,110.66
253,A4,50.333,333/1000,51,110.66
254,E4,50.667,333/1000,47,110.66
255,E4,51.0,1.0,54,110.66
256,E3,51.0,0.875,52,110.66
257,A4,51.0,0.5,54,110.66
258,C5,51.0,0.5,54,110.66
259,G#4,51.5,0.5,47,110.66
260,B4,51.5,0.5,47,110.66
261,F3,51.875,0.125,44,110.66
262,E3,52.0,333/1000,58,110.66
263,G#4,52.0,0.5,48,110.66
264,E4,52.0,0.5,48,110.66
265,B4,52.0,0.5,48,110.66
266,B2,52.333,333/1000,57,110.66
267,F#4,52.5,0.5,46,110.66
268,E4,52.5,0.5,46,110.66
269,A4,52.5,0.5,46,110.66
270,E2,52.667,333/1000,54,110.66
271,E3,53.0,1.0,59,110.66
272,E4,53.0,1.0,48,110.66
273,G#4,53.0,1.0,48,110.66
274,B4,53.0,1.0,48,110.66
275,C5,54.0,0.5,54,110.66
276,E3,54.0,0.875,52,110.66
277,E4,54.0,1.0,45,110.66
278,G4,54.0,1.0,45,110.66
279,B4,54.5,0.5,51,110.66
280,F3,54.875,0.125,44,110.66
281,E3,55.0,333/1000,59,110.66
282,E4,55.0,0.5,48,110.66
283,G4,55.0,0.5,48,110.66
284,B4,55.0,0.5,48,110.66
285,G3,55.333,333/1000,55,110.66
286,E4,55.5,0.5,47,110.66
287,G4,55.5,0.5,47,110.66
288,C5,55.5,0.5,47,110.66
289,C4,55.667,333/1000,53,110.66
290,G4,56.0,1.0,45,110.66
291,B4,56.0,0.5,54,110.66
292,F4,56.0,1.0,49,110.66
293,D4,56.0,1.0,49,110.66
294,F5,56.5,0.5,53,110.66
295,E5,57.0,0.875,54,110.66
296,E4,57.0,1.0,48,110.66
297,C4,57.0,1.0,48,110.66
298,D5,57.875,0.125,43,110.66
299,C5,58.0,333/1000,53,110.66
300,F#4,58.0,0.5,50,110.66
301,D4,58.0,0.5,50,110.66
302,B4,58.333,333/1000,51,110.66
303,F#4,58.5,0.5,49,110.66
304,D4,58.5,0.5,49,110.66
305,A4,58.667,333/1000,52,110.66
306,B4,59.0,1.0,55,110.66
307,D4,59.0,1.0,50,110.66
308,G3,59.0,1.0,50,110.66
309,G4,59.0,1.0,50,110.66
310,B4,60.0,0.875,68,110.66
311,B3,60.0,0.875,61,110.66
312,C5,60.875,0.125,58,110.66
313,C4,60.875,0.125,51,110.66
314,B4,61.0,333/1000,68,110.66
315,B3,61.0,333/1000,61,110.66
316,G4,61.333,333/1000,66,110.66
317,G3,61.333,333/1000,59,110.66
318,E4,61.667,0.25,64,110.66
319,E3,61.667,0.25,56,110.66
320,G5,62.0,0.5,82,110.66
321,G4,62.0,0.5,74,110.66
322,E5,62.5,0.188,72,110.66
323,E4,62.5,0.188,64,110.66
324,B4,63.0,0.875,70,110.66
325,B3,63.0,0.875,62,110.66
326,C5,63.875,0.125,60,110.66
327,C4,63.875,0.125,53,110.66
328,B4,64.0,333/1000,71,110.66
329,B3,64.0,333/1000,64,110.66
330,G4,64.333,333/1000,69,110.66
331,G3,64.333,333/1000,61,110.66
332,E4,64.667,0.25,66,110.66
333,E3,64.667,0.25,57,110.66
334,G5,65.0,0.5,85,110.66
335,G4,65.0,0.5,76,110.66
336,E5,65.5,0.188,74,110.66
337,E4,65.5,0.188,66,110.66
338,B2,66.0,0.5,77,110.66
339,B5,66.0,0.5,90,110.66
340,E-5,66.0,0.5,90,110.66
341,F#5,66.0,0.5,90,110.66
342,B4,66.5,0.188,87,110.66
343,B3,66.5,0.188,72,110.66
344,A5,66.875,0.125,70,110.66
345,E-4,66.875,0.125,57,110.66
346,G5,67.0,333/1000,87,110.66
347,E4,67.0,333/1000,73,110.66
348,F#5,67.333,333/1000,83,110.66
349,F#4,67.333,333/1000,67,110.66
350,E5,67.667,333/1000,78,110.66
351,G4,67.667,333/1000,78,110.66
352,B2,68.0,0.5,79,110.66
353,B5,68.0,0.5,93,110.66
354,E-5,68.0,0.5,93,110.66
355,F#5,68.0,0.5,93,110.66
356,B4,68.5,0.188,86,110.66
357,B3,68.5,0.188,73,110.66
358,A5,68.875,0.125,74,110.66
359,E-4,68.875,0.125,57,110.66
360,G5,69.0,333/1000,89,110.66
361,E4,69.0,333/1000,75,110.66
362,F#5,69.333,333/1000,85,110.66
363,F#4,69.333,333/1000,68,110.66
364,E5,69.667,333/1000,82,110.66
365,G4,69.667,333/1000,66,110.66
366,B2,70.0,0.5,80,110.66
367,B5,70.0,0.5,95,110.66
368,E-5,70.0,0.5,95,110.66
369,F#5,70.0,0.5,95,110.66
370,B4,70.5,0.188,89,110.66
371,B3,70.5,0.188,75,110.66
372,B6,71.0,0.5,117,110.66
373,B1,71.0,0.5,81,110.66
374,B5,71.5,0.188,93,110.66
375,B2,71.5,0.188,70,110.66
376,G5,75.0,0.5,45,110.66
377,E4,75.0,0.5,36,110.66
378,E5,75.5,0.25,30,110.66
379,G4,75.5,0.25,25,110.66
380,G5,76.0,0.5,43,110.66
381,E4,76.0,0.5,34,110.66
382,E5,76.5,0.25,31,110.66
383,G4,76.5,0.25,25,110.66
384,G5,77.0,0.5,42,110.66
385,E4,77.0,0.5,33,110.66
386,E5,77.5,0.25,31,110.66
387,G4,77.5,0.25,26,110.66
388,G5,78.0,0.5,41,110.66
389,E4,78.0,0.5,33,110.66
390,E5,78.5,0.25,29,110.66
391,G4,78.5,0.25,24,110.66
392,G5,79.0,0.5,38,110.66
393,E4,79.0,0.5,31,110.66
394,E5,79.5,0.25,27,110.66
395,G4,79.5,0.25,23,110.66
396,G5,80.0,0.5,37,110.66
397,E4,80.0,0.5,30,110.66
398,E5,80.5,0.25,26,110.66
399,G4,80.5,0.25,21,110.66
400,G3,81.0,0.875,48,110.66
401,G5,81.0,0.5,36,110.66
402,E5,81.0,0.5,36,110.66
403,G4,81.5,0.25,27,110.66
404,A3,81.875,0.125,40,110.66
405,G3,82.0,333/1000,48,110.66
406,E5,82.0,0.5,36,110.66
407,G5,82.0,0.5,36,110.66
408,E3,82.333,333/1000,45,110.66
409,G4,82.5,0.25,27,110.66
410,C3,82.667,333/1000,39,110.66
411,G3,83.0,0.75,48,110.66
412,E5,83.0,0.5,36,110.66
413,G5,83.0,0.5,36,110.66
414,G4,83.5,0.25,27,110.66
415,E4,83.75,0.25,45,110.66
416,E4,84.0,2.0,48,110.66
417,E5,84.0,0.5,38,110.66
418,G5,84.0,0.5,38,110.66
419,G4,84.5,0.25,29,110.66
420,E5,85.0,0.5,38,110.66
421,G5,85.0,0.5,38,110.66
422,G4,85.5,0.25,27,110.66
423,C4,86.0,0.5,36,110.66
424,E5,86.0,0.5,34,110.66
425,G5,86.0,0.5,34,110.66
426,G4,86.5,0.25,26,110.66
427,G4,87.0,0.875,51,110.66
428,A4,87.875,0.125,48,110.66
429,G4,88.0,333/1000,57,110.66
430,E4,88.333,333/1000,53,110.66
431,C4,88.667,333/1000,46,110.66
432,G4,89.0,0.75,57,110.66
433,E5,89.75,0.25,52,110.66
434,E5,90.0,2.0,57,110.66
435,G3,90.0,0.875,48,110.66
436,A3,90.875,0.125,40,110.66
437,G3,91.0,333/1000,48,110.66
438,E3,91.333,333/1000,45,110.66
439,C3,91.667,333/1000,41,110.66
440,C5,92.0,0.5,35,110.66
441,G3,92.0,0.75,48,110.66
442,E4,92.75,0.25,45,110.66
443,G5,93.0,0.875,72,110.66
444,E4,93.0,2.0,48,110.66
445,F5,93.875,0.125,56,110.66
446,E5,94.0,333/1000,68,110.66
447,C5,94.333,333/1000,63,110.66
448,G4,94.667,333/1000,59,110.66
449,C5,95.0,333/1000,69,110.66
450,C4,95.0,0.5,38,110.66
451,E5,95.333,333/1000,65,110.66
452,G5,95.667,333/1000,61,110.66
453,G2,96.0,0.25,61,110.66
454,G4,96.0,0.25,70,110.66
455,E5,96.0,0.25,70,110.66
456,G5,96.0,0.25,70,110.66
457,A2,96.5,0.25,55,110.66
458,G4,96.5,0.25,66,110.66
459,D5,96.5,0.25,66,110.66
460,F5,96.5,0.25,66,110.66
461,B2,96.75,0.25,55,110.66
462,C3,97.0,0.188,61,110.66
463,G4,97.0,0.188,70,110.66
464,C5,97.0,0.188,70,110.66
465,E5,97.0,0.188,70,110.66
466,G2,97.5,0.188,53,110.66
467,G4,97.5,0.188,63,110.66
468,B4,97.5,0.188,63,110.66
469,D5,97.5,0.188,63,110.66
470,C3,98.0,0.188,61,110.66
471,G4,98.0,0.188,70,110.66
472,C5,98.0,0.188,70,110.66
473,E5,98.0,0.188,70,110.66
474,G4,99.0,0.5,45,110.66
475,E-3,99.0,0.25,38,110.66
476,G3,99.0,0.25,38,110.66
477,A4,99.5,0.25,41,110.66
478,D3,99.5,0.25,35,110.66
479,F3,99.5,0.25,35,110.66
480,G3,99.5,0.25,35,110.66
481,B4,99.75,0.25,41,110.66
482,C5,100.0,0.188,45,110.66
483,C3,100.0,0.188,38,110.66
484,E-3,100.0,0.188,38,110.66
485,G3,100.0,0.188,38,110.66
486,G4,100.5,0.188,39,110.66
487,B2,100.5,0.188,35,110.66
488,D3,100.5,0.188,35,110.66
489,G3,100.5,0.188,35,110.66
490,C5,101.0,0.188,48,110.66
491,C3,101.0,0.188,42,110.66
492,E-3,101.0,0.188,42,110.66
493,G3,101.0,0.188,42,110.66
494,B-4,101.5,0.25,67,110.66
495,B-5,101.5,0.25,67,110.66
496,D3,101.5,0.25,51,110.66
497,F3,101.5,0.25,51,110.66
498,B-3,101.5,0.25,51,110.66
499,B-4,102.0,0.25,68,110.66
500,B-5,102.0,0.25,68,110.66
501,F3,102.0,0.25,55,110.66
502,G#3,102.0,0.25,55,110.66
503,B-3,102.0,0.25,55,110.66
504,E-6,102.5,0.25,73,110.66
505,E-5,102.5,0.25,73,110.66
506,E-3,102.5,0.25,50,110.66
507,G3,102.5,0.25,50,110.66
508,B-3,102.5,0.25,50,110.66
509,E-6,103.0,0.25,78,110.66
510,E-5,103.0,0.25,78,110.66
511,E-3,103.0,0.25,55,110.66
512,G3,103.0,0.25,55,110.66
513,B-3,103.0,0.25,55,110.66
514,D6,103.5,0.25,74,110.66
515,D5,103.5,0.25,74,110.66
516,F#3,103.5,0.25,51,110.66
517,A3,103.5,0.25,51,110.66
518,D4,103.5,0.25,51,110.66
519,D5,104.0,0.25,81,110.66
520,D6,104.0,0.25,81,110.66
521,A3,104.0,0.25,64,110.66
522,C4,104.0,0.25,64,110.66
523,D4,104.0,0.25,64,110.66
524,G6,104.5,0.25,79,110.66
525,G5,104.5,0.25,79,110.66
526,G3,104.5,0.25,60,110.66
527,B-3,104.5,0.25,60,110.66
528,D4,104.5,0.25,60,110.66
529,G5,105.0,0.25,83,110.66
530,G6,105.0,0.25,83,110.66
531,G3,105.0,0.25,65,110.66
532,B-3,105.0,0.25,65,110.66
533,D4,105.0,0.25,65,110.66
534,F6,105.5,0.25,70,110.66
535,F5,105.5,0.25,70,110.66
536,G2,105.5,0.25,49,110.66
537,D3,105.5,0.25,49,110.66
538,B3,105.5,0.25,49,110.66
539,F6,106.0,1.5,66,110.66
540,F5,106.0,1.5,66,110.66
541,G2,106.0,1.5,47,110.66
542,D3,106.0,1.5,47,110.66
543,B3,106.0,1.5,47,110.66
544,B4,107.5,0.5,50,110.66
545,B5,107.5,0.5,50,110.66
546,F4,107.5,0.5,37,110.66
547,G4,107.5,0.5,37,110.66
548,G3,107.5,0.5,37,110.66
549,C6,108.0,3.0,45,110.66
550,C5,108.0,3.0,45,110.66
551,G4,108.0,3.0,35,110.66
552,E4,108.0,3.0,35,110.66
553,C4,108.0,3.0,35,110.66
554,E5,111.0,0.875,54,110.66
555,F5,111.875,0.125,44,110.66
556,E5,112.0,333/1000,54,110.66
557,C5,112.333,333/1000,50,110.66
558,A4,112.667,26/125,47,110.66
559,D5,112.875,0.125,44,110.66
560,C5,113.0,333/1000,54,110.66
561,A4,113.333,333/1000,51,110.66
562,E4,113.667,333/1000,47,110.66
563,E4,114.0,1.0,45,110.66
564,E3,114.0,0.875,52,110.66
565,A4,114.0,0.5,50,110.66
566,C5,114.0,0.5,50,110.66
567,G#4,114.5,0.5,47,110.66
568,B4,114.5,0.5,47,110.66
569,F3,114.875,0.125,44,110.66
570,E3,115.0,333/1000,58,110.66
571,G#4,115.0,0.5,48,110.66
572,E4,115.0,0.5,48,110.66
573,B4,115.0,0.5,48,110.66
574,B2,115.333,333/1000,57,110.66
575,F#4,115.5,0.5,46,110.66
576,E4,115.5,0.5,46,110.66
577,A4,115.5,0.5,46,110.66
578,E2,115.667,333/1000,54,110.66
579,E3,116.0,1.0,59,110.66
580,E4,116.0,1.0,48,110.66
581,G#4,116.0,1.0,48,110.66
582,B4,116.0,1.0,48,110.66
583,C5,117.0,0.5,54,110.66
584,E3,117.0,0.875,52,110.66
585,E4,117.0,1.0,45,110.66
586,G4,117.0,1.0,45,110.66
587,B4,117.5,0.5,51,110.66
588,F3,117.875,0.125,44,110.66
589,E3,118.0,333/1000,59,110.66
590,E4,118.0,0.5,48,110.66
591,G4,118.0,0.5,48,110.66
592,B4,118.0,0.5,48,110.66
593,G3,118.333,333/1000,55,110.66
594,E4,118.5,0.5,47,110.66
595,G4,118.5,0.5,47,110.66
596,C5,118.5,0.5,47,110.66
597,C4,118.667,333/1000,53,110.66
598,G4,119.0,1.0,45,110.66
599,B4,119.0,0.5,54,110.66
600,F4,119.0,1.0,49,110.66
601,D4,119.0,1.0,49,110.66
602,F5,119.5,0.5,53,110.66
603,E5,120.0,0.875,54,110.66
604,E4,120.0,1.0,48,110.66
605,C4,120.0,1.0,48,110.66
606,D5,120.875,0.125,43,110.66
607,C5,121.0,333/1000,53,110.66
608,F#4,121.0,0.5,50,110.66
609,D4,121.0,0.5,50,110.66
610,B4,121.333,333/1000,51,110.66
611,F#4,121.5,0.5,49,110.66
612,D4,121.5,0.5,49,110.66
613,A4,121.667,333/1000,52,110.66
614,B4,122.0,1.0,55,110.66
615,D4,122.0,1.0,50,110.66
616,G3,122.0,1.0,50,110.66
617,G4,122.0,1.0,50,110.66
618,B4,123.0,0.875,68,110.66
619,B3,123.0,0.875,61,110.66
620,C5,123.875,0.125,58,110.66
621,C4,123.875,0.125,51,110.66
622,B4,124.0,333/1000,68,110.66
623,B3,124.0,333/1000,61,110.66
624,G4,124.333,333/1000,66,110.66
625,G3,124.333,333/1000,59,110.66
626,E4,124.667,0.25,64,110.66
627,E3,124.667,0.25,56,110.66
628,G5,125.0,0.5,82,110.66
629,G4,125.0,0.5,76,110.66
630,E5,125.5,0.188,72,110.66
631,E4,125.5,0.188,64,110.66
632,B4,126.0,0.875,70,110.66
633,B3,126.0,0.875,62,110.66
634,C5,126.875,0.125,56,110.66
635,C4,126.875,0.125,53,110.66
636,B4,127.0,333/1000,71,110.66
637,B3,127.0,333/1000,64,110.66
638,G4,127.333,333/1000,69,110.66
639,G3,127.333,333/1000,61,110.66
640,E4,127.667,0.25,66,110.66
641,E3,127.667,0.25,57,110.66
642,G5,128.0,0.5,85,110.66
643,G4,128.0,0.5,76,110.66
644,E5,128.5,0.188,74,110.66
645,E4,128.5,0.188,66,110.66
646,B2,129.0,0.5,77,110.66
647,B5,129.0,0.5,90,110.66
648,E-5,129.0,0.5,90,110.66
649,F#5,129.0,0.5,90,110.66
650,B4,129.5,0.188,87,110.66
651,B3,129.5,0.188,72,110.66
652,A5,129.875,0.125,71,110.66
653,E-4,129.875,0.125,58,110.66
654,G5,130.0,333/1000,87,110.66
655,E4,130.0,333/1000,73,110.66
656,F#5,130.333,333/1000,83,110.66
657,F#4,130.333,333/1000,67,110.66
658,E5,130.667,333/1000,78,110.66
659,G4,130.667,333/1000,78,110.66
660,B2,131.0,0.5,79,110.66
661,B5,131.0,0.5,93,110.66
662,E-5,131.0,0.5,93,110.66
663,F#5,131.0,0.5,93,110.66
664,B4,131.5,0.188,86,110.66
665,B3,131.5,0.188,73,110.66
666,A5,131.875,0.125,74,110.66
667,E-4,131.875,0.125,58,110.66
668,G5,132.0,333/1000,89,110.66
669,E4,132.0,333/1000,75,110.66
670,F#5,132.333,333/1000,85,110.66
671,F#4,132.333,333/1000,68,110.66
672,E5,132.667,333/1000,82,110.66
673,G4,132.667,333/1000,66,110.66
674,B2,133.0,0.5,80,110.66
675,B5,133.0,0.5,95,110.66
676,E-5,133.0,0.5,95,110.66
677,F#5,133.0,0.5,95,110.66
678,B4,133.5,0.188,89,110.66
679,B3,133.5,0.188,75,110.66
680,B6,134.0,0.5,114,110.66
681,B1,134.0,0.5,81,110.66
682,B5,134.5,0.188,93,110.66
683,B2,134.5,0.188,70,110.66
684,G5,138.0,0.5,45,110.66
685,E4,138.0,0.5,36,110.66
686,E5,138.5,0.25,30,110.66
687,G4,138.5,0.25,25,110.66
688,G5,139.0,0.5,43,110.66
689,E4,139.0,0.5,34,110.66
690,E5,139.5,0.25,31,110.66
691,G4,139.5,0.25,25,110.66
692,G5,140.0,0.5,42,110.66
693,E4,140.0,0.5,33,110.66
694,E5,140.5,0.25,31,110.66
695,G4,140.5,0.25,26,110.66
696,G5,141.0,0.5,41,110.66
697,E4,141.0,0.5,33,110.66
698,E5,141.5,0.25,29,110.66
699,G4,141.5,0.25,24,110.66
700,G5,142.0,0.5,38,110.66
701,E4,142.0,0.5,31,110.66
702,E5,142.5,0.25,27,110.66
703,G4,142.5,0.25,23,110.66
704,G5,143.0,0.5,37,110.66
705,E4,143.0,0.5,30,110.66
706,E5,143.5,0.25,26,110.66
707,G4,143.5,0.25,21,110.66
708,G3,144.0,0.875,48,110.66
709,G5,144.0,0.5,36,110.66
710,E5,144.0,0.5,36,110.66
711,G4,144.5,0.25,27,110.66
712,A3,144.875,0.125,40,110.66
713,G3,145.0,333/1000,48,110.66
714,E5,145.0,0.5,36,110.66
715,G5,145.0,0.5,36,110.66
716,E3,145.333,333/1000,45,110.66
717,G4,145.5,0.25,27,110.66
718,C3,145.667,333/1000,39,110.66
719,G3,146.0,0.75,48,110.66
720,E5,146.0,0.5,36,110.66
721,G5,146.0,0.5,36,110.66
722,G4,146.5,0.25,27,110.66
723,E4,146.75,0.25,45,110.66
724,E4,147.0,2.0,48,110.66
725,E5,147.0,0.5,38,110.66
726,G5,147.0,0.5,38,110.66
727,G4,147.5,0.25,29,110.66
728,E5,148.0,0.5,38,110.66
729,G5,148.0,0.5,38,110.66
730,G4,148.5,0.25,27,110.66
731,C4,149.0,0.5,36,110.66
732,E5,149.0,0.5,34,110.66
733,G5,149.0,0.5,34,110.66
734,G4,149.5,0.25,26,110.66
735,G4,150.0,0.875,51,110.66
736,A4,150.875,0.125,48,110.66
737,G4,151.0,333/1000,57,110.66
738,E4,151.333,333/1000,53,110.66
739,C4,151.667,333/1000,46,110.66
740,G4,152.0,0.75,57,110.66
741,E5,152.75,0.25,52,110.66
742,E5,153.0,2.0,57,110.66
743,G3,153.0,0.875,48,110.66
744,A3,153.875,0.125,40,110.66
745,G3,154.0,333/1000,48,110.66
746,E3,154.333,333/1000,45,110.66
747,C3,154.667,333/1000,41,110.66
748,C5,155.0,0.5,35,110.66
749,G3,155.0,0.75,48,110.66
750,E4,155.75,0.25,45,110.66
751,G5,156.0,0.875,72,110.66
752,E4,156.0,2.0,48,110.66
753,F5,156.875,0.125,56,110.66
754,E5,157.0,333/1000,68,110.66
755,C5,157.333,333/1000,63,110.66
756,G4,157.667,333/1000,59,110.66
757,C5,158.0,333/1000,69,110.66
758,C4,158.0,0.5,38,110.66
759,E5,158.333,333/1000,65,110.66
760,G5,158.667,333/1000,61,110.66
761,G2,159.0,0.25,61,110.66
762,G4,159.0,0.25,70,110.66
763,E5,159.0,0.25,70,110.66
764,G5,159.0,0.25,70,110.66
765,A2,159.5,0.25,55,110.66
766,G4,159.5,0.25,66,110.66
767,D5,159.5,0.25,66,110.66
768,F5,159.5,0.25,66,110.66
769,B2,159.75,0.25,55,110.66
770,C3,160.0,0.188,61,110.66
771,G4,160.0,0.188,70,110.66
772,C5,160.0,0.188,70,110.66
773,E5,160.0,0.188,70,110.66
774,G2,160.5,0.188,53,110.66
775,G4,160.5,0.188,63,110.66
776,B4,160.5,0.188,63,110.66
777,D5,160.5,0.188,63,110.66
778,C3,161.0,0.188,61,110.66
779,G4,161.0,0.188,70,110.66
780,C5,161.0,0.188,70,110.66
781,E5,161.0,0.188,70,110.66
782,G4,162.0,0.5,45,110.66
783,E-3,162.0,0.25,38,110.66
784,G3,162.0,0.25,38,110.66
785,A4,162.5,0.25,41,110.66
786,D3,162.5,0.25,35,110.66
787,F3,162.5,0.25,35,110.66
788,G3,162.5,0.25,35,110.66
789,B4,162.75,0.25,41,110.66
790,C5,163.0,0.188,45,110.66
791,C3,163.0,0.188,38,110.66
792,E-3,163.0,0.188,38,110.66
793,G3,163.0,0.188,38,110.66
794,G4,163.5,0.188,39,110.66
795,B2,163.5,0.188,35,110.66
796,D3,163.5,0.188,35,110.66
797,G3,163.5,0.188,35,110.66
798,C5,164.0,0.188,48,110.66
799,C3,164.0,0.188,42,110.66
800,E-3,164.0,0.188,42,110.66
801,G3,164.0,0.188,42,110.66
802,B-4,164.5,0.25,64,110.66
803,B-5,164.5,0.25,64,110.66
804,D3,164.5,0.25,49,110.66
805,F3,164.5,0.25,49,110.66
806,B-3,164.5,0.25,49,110.66
807,B-4,165.0,0.25,66,110.66
808,B-5,165.0,0.25,66,110.66
809,F3,165.0,0.25,52,110.66
810,G#3,165.0,0.25,52,110.66
811,B-3,165.0,0.25,52,110.66
812,E-6,165.5,0.25,71,110.66
813,E-5,165.5,0.25,71,110.66
814,E-3,165.5,0.25,52,110.66
815,G3,165.5,0.25,52,110.66
816,B-3,165.5,0.25,52,110.66
817,E-6,166.0,0.25,74,110.66
818,E-5,166.0,0.25,74,110.66
819,E-3,166.0,0.25,56,110.66
820,G3,166.0,0.25,56,110.66
821,B-3,166.0,0.25,56,110.66
822,D6,166.5,0.25,70,110.66
823,D5,166.5,0.25,70,110.66
824,F#3,166.5,0.25,54,110.66
825,A3,166.5,0.25,54,110.66
826,D4,166.5,0.25,54,110.66
827,D5,167.0,0.25,79,110.66
828,D6,167.0,0.25,79,110.66
829,A3,167.0,0.25,59,110.66
830,C4,167.0,0.25,59,110.66
831,D4,167.0,0.25,59,110.66
832,G6,167.5,0.25,81,110.66
833,G5,167.5,0.25,81,110.66
834,G3,167.5,0.25,56,110.66
835,B-3,167.5,0.25,56,110.66
836,D4,167.5,0.25,56,110.66
837,G5,168.0,0.25,85,110.66
838,G6,168.0,0.25,85,110.66
839,G3,168.0,0.25,64,110.66
840,B-3,168.0,0.25,64,110.66
841,D4,168.0,0.25,64,110.66
842,F6,168.5,0.25,70,110.66
843,F5,168.5,0.25,70,110.66
844,G2,168.5,0.25,49,110.66
845,D3,168.5,0.25,49,110.66
846,B3,168.5,0.25,49,110.66
847,F6,169.0,1.5,66,110.66
848,F5,169.0,1.5,66,110.66
849,G2,169.0,1.5,47,110.66
850,D3,169.0,1.5,47,110.66
851,B3,169.0,1.5,47,110.66
852,B4,170.5,0.5,50,110.66
853,B5,170.5,0.5,50,110.66
854,F4,170.5,0.5,37,110.66
855,G4,170.5,0.5,37,110.66
856,G3,170.5,0.5,37,110.66
857,C6,171.0,2.938,45,110.66
858,C5,171.0,2.938,45,110.66
859,G4,171.0,2.938,35,110.66
860,E4,171.0,2.938,35,110.66
861,C4,171.0,2.938,35,110.66
862,G4,174.0,333/1000,50,110.66
863,B2,174.0,333/1000,45,110.66
864,G2,174.0,3.0,31,110.66
865,D4,174.333,333/1000,40,110.66
866,D3,174.333,333/1000,36,110.66
867,B3,174.667,333/1000,34,110.66
868,G3,174.667,333/1000,31,110.66
869,G4,175.0,333/1000,47,110.66
870,B2,175.0,333/1000,42,110.66
871,D4,175.333,333/1000,37,110.66
872,D3,175.333,333/1000,33,110.66
873,B3,175.667,333/1000,32,110.66
874,G3,175.667,333/1000,27,110.66
875,F#4,176.0,333/1000,47,110.66
876,A2,176.0,333/1000,41,110.66
877,D4,176.333,333/1000,38,110.66
878,D3,176.333,333/1000,33,110.66
879,A3,176.667,333/1000,33,110.66
880,F#3,176.667,333/1000,27,110.66
881,A4,177.0,333/1000,50,110.66
882,C3,177.0,333/1000,45,110.66
883,G2,177.0,3.0,31,110.66
884,D4,177.333,333/1000,41,110.66
885,D3,177.333,333/1000,36,110.66
886,C4,177.667,333/1000,33,110.66
887,A3,177.667,333/1000,29,110.66
888,A4,178.0,333/1000,48,110.66
889,C3,178.0,333/1000,43,110.66
890,D4,178.333,333/1000,38,110.66
891,D3,178.333,333/1000,33,110.66
892,C4,178.667,333/1000,30,110.66
893,A3,178.667,333/1000,28,110.66
894,G4,179.0,333/1000,48,110.66
895,B2,179.0,333/1000,43,110.66
896,D4,179.333,333/1000,38,110.66
897,D3,179.333,333/1000,33,110.66
898,B3,179.667,333/1000,31,110.66
899,G3,179.667,333/1000,28,110.66
900,G4,180.0,333/1000,47,110.66
901,B2,180.0,333/1000,42,110.66
902,D4,180.333,333/1000,38,110.66
903,D3,180.333,333/1000,33,110.66
904,B3,180.667,333/1000,31,110.66
905,G3,180.667,333/1000,28,110.66
906,D4,181.0,0.5,50,110.66
907,F#4,181.0,0.5,50,110.66
908,A4,181.0,0.5,50,110.66
909,D3,181.0,0.5,45,110.66
910,F#3,181.0,0.5,45,110.66
911,A3,181.0,0.5,45,110.66
912,D4,181.5,0.5,54,110.66
913,G4,181.5,0.5,54,110.66
914,B4,181.5,0.5,54,110.66
915,D3,181.5,0.5,48,110.66
916,G3,181.5,0.5,48,110.66
917,B3,181.5,0.5,48,110.66
918,D4,182.0,0.75,58,110.66
919,A4,182.0,0.75,58,110.66
920,C5,182.0,0.75,58,110.66
921,D3,182.0,0.75,51,110.66
922,A3,182.0,0.75,51,110.66
923,C4,182.0,0.75,51,110.66
924,D4,182.75,0.25,52,110.66
925,G4,182.75,0.25,52,110.66
926,B4,182.75,0.25,52,110.66
927,D3,182.75,0.25,45,110.66
928,G3,182.75,0.25,45,110.66
929,B3,182.75,0.25,45,110.66
930,D4,183.0,1.0,48,110.66
931,G4,183.0,1.0,48,110.66
932,B4,183.0,1.0,48,110.66
933,D3,183.0,1.0,40,110.66
934,G3,183.0,1.0,40,110.66
935,B3,183.0,1.0,40,110.66
936,D4,184.0,0.5,33,110.66
937,F#4,184.0,0.5,33,110.66
938,A4,184.0,0.5,33,110.66
939,D3,184.0,0.5,29,110.66
940,F#3,184.0,0.5,29,110.66
941,A3,184.0,0.5,29,110.66
942,D4,184.5,0.5,31,110.66
943,E4,184.5,0.5,31,110.66
944,G4,184.5,0.5,31,110.66
945,D3,184.5,0.5,28,110.66
946,E3,184.5,0.5,28,110.66
947,G3,184.5,0.5,28,110.66
948,D4,185.0,1.0,33,110.66
949,F#4,185.0,1.0,33,110.66
950,A4,185.0,1.0,33,110.66
951,D3,185.0,1.0,30,110.66
952,F#3,185.0,1.0,30,110.66
953,A3,185.0,1.0,30,110.66
954,D5,186.0,3.0,53,110.66
955,G4,186.0,333/1000,50,110.66
956,B2,186.0,333/1000,45,110.66
957,G2,186.0,3.0,31,110.66
958,D4,186.333,333/1000,40,110.66
959,D3,186.333,333/1000,36,110.66
960,B4,186.667,333/1000,34,110.66
961,G3,186.667,333/1000,31,110.66
962,G4,187.0,333/1000,47,110.66
963,B2,187.0,333/1000,42,110.66
964,D4,187.333,333/1000,37,110.66
965,D3,187.333,333/1000,33,110.66
966,B4,187.667,333/1000,32,110.66
967,G3,187.667,333/1000,27,110.66
968,F#4,188.0,333/1000,47,110.66
969,A2,188.0,333/1000,41,110.66
970,D4,188.333,333/1000,38,110.66
971,D3,188.333,333/1000,33,110.66
972,A4,188.667,333/1000,33,110.66
973,F#3,188.667,333/1000,27,110.66
974,D5,189.0,3.0,53,110.66
975,A4,189.0,333/1000,50,110.66
976,C3,189.0,333/1000,45,110.66
977,G2,189.0,3.0,31,110.66
978,D4,189.333,333/1000,41,110.66
979,D3,189.333,333/1000,36,110.66
980,C5,189.667,333/1000,33,110.66
981,A3,189.667,333/1000,29,110.66
982,A4,190.0,333/1000,48,110.66
983,C3,190.0,333/1000,43,110.66
984,D4,190.333,333/1000,38,110.66
985,D3,190.333,333/1000,33,110.66
986,C5,190.667,333/1000,30,110.66
987,A3,190.667,333/1000,28,110.66
988,G4,191.0,333/1000,48,110.66
989,B2,191.0,333/1000,43,110.66
990,D4,191.333,333/1000,38,110.66
991,D3,191.333,333/1000,33,110.66
992,B4,191.667,333/1000,31,110.66
993,G3,191.667,333/1000,28,110.66
994,D4,192.0,0.5,70,110.66
995,D3,192.0,1.0,41,110.66
996,B2,192.0,1.0,41,110.66
997,G2,192.0,1.0,41,110.66
998,D5,192.5,0.5,68,110.66
999,E4,193.0,0.5,61,110.66
1000,E5,193.0,0.5,61,110.66
1001,G2,193.0,0.5,49,110.66
1002,C3,193.0,0.5,49,110.66
1003,E3,193.0,0.5,49,110.66
1004,F#4,193.5,0.5,66,110.66
1005,F#5,193.5,0.5,66,110.66
1006,G2,193.5,0.5,52,110.66
1007,A2,193.5,0.5,52,110.66
1008,F#3,193.5,0.5,52,110.66
1009,G4,194.0,0.75,76,110.66
1010,G5,194.0,0.75,76,110.66
1011,G2,194.0,0.75,61,110.66
1012,G3,194.0,0.75,61,110.66
1013,B2,194.0,0.75,61,110.66
1014,D4,194.75,0.25,49,110.66
1015,G4,194.75,0.25,49,110.66
1016,B4,194.75,0.25,49,110.66
1017,D3,194.75,0.25,44,110.66
1018,G3,194.75,0.25,44,110.66
1019,B3,194.75,0.25,44,110.66
1020,D4,195.0,1.0,54,110.66
1021,B4,195.0,1.0,54,110.66
1022,D5,195.0,1.0,54,110.66
1023,D3,195.0,1.0,48,110.66
1024,D4,195.0,1.0,48,110.66
1025,B3,195.0,1.0,48,110.66
1026,D4,196.0,0.75,45,110.66
1027,F#4,196.0,0.75,45,110.66
1028,C5,196.0,0.75,45,110.66
1029,D3,196.0,0.75,41,110.66
1030,A3,196.0,0.75,41,110.66
1031,C4,196.0,0.75,41,110.66
1032,D4,196.75,0.25,39,110.66
1033,G4,196.75,0.25,39,110.66
1034,B4,196.75,0.25,39,110.66
1035,G3,196.75,0.25,34,110.66
1036,B3,196.75,0.25,34,110.66
1037,D4,197.0,1.0,36,110.66
1038,G4,197.0,1.0,36,110.66
1039,B4,197.0,1.0,36,110.66
1040,G3,197.0,1.0,31,110.66
1041,B3,197.0,1.0,31,110.66
1042,G4,198.0,333/1000,50,110.66
1043,B2,198.0,333/1000,45,110.66
1044,G2,198.0,3.0,31,110.66
1045,D4,198.333,333/1000,40,110.66
1046,D3,198.333,333/1000,36,110.66
1047,B3,198.667,333/1000,34,110.66
1048,G3,198.667,333/1000,31,110.66
1049,G4,199.0,333/1000,47,110.66
1050,B2,199.0,333/1000,42,110.66
1051,D4,199.333,333/1000,37,110.66
1052,D3,199.333,333/1000,33,110.66
1053,B3,199.667,333/1000,32,110.66
1054,G3,199.667,333/1000,27,110.66
1055,F#4,200.0,333/1000,47,110.66
1056,A2,200.0,333/1000,41,110.66
1057,D4,200.333,333/1000,38,110.66
1058,D3,200.333,333/1000,33,110.66
1059,A3,200.667,333/1000,33,110.66
1060,F#3,200.667,333/1000,27,110.66
1061,A4,201.0,333/1000,50,110.66
1062,C3,201.0,333/1000,45,110.66
1063,G2,201.0,3.0,31,110.66
1064,D4,201.333,333/1000,41,110.66
1065,D3,201.333,333/1000,36,110.66
1066,C4,201.667,333/1000,33,110.66
1067,A3,201.667,333/1000,29,110.66
1068,A4,202.0,333/1000,48,110.66
1069,C3,202.0,333/1000,43,110.66
1070,D4,202.333,333/1000,38,110.66
1071,D3,202.333,333/1000,33,110.66
1072,C4,202.667,333/1000,30,110.66
1073,A3,202.667,333/1000,28,110.66
1074,G4,203.0,333/1000,48,110.66
1075,B2,203.0,333/1000,43,110.66
1076,D4,203.333,333/1000,38,110.66
1077,D3,203.333,333/1000,33,110.66
1078,B3,203.667,333/1000,31,110.66
1079,G3,203.667,333/1000,28,110.66
1080,G4,204.0,333/1000,47,110.66
1081,B2,204.0,333/1000,42,110.66
1082,D4,204.333,333/1000,38,110.66
1083,D3,204.333,333/1000,33,110.66
1084,B3,204.667,333/1000,31,110.66
1085,G3,204.667,333/1000,28,110.66
1086,D4,205.0,0.5,52,110.66
1087,F#4,205.0,0.5,52,110.66
1088,A4,205.0,0.5,52,110.66
1089,D3,205.0,0.5,45,110.66
1090,F#3,205.0,0.5,45,110.66
1091,A3,205.0,0.5,45,110.66
1092,D4,205.5,0.5,54,110.66
1093,G4,205.5,0.5,54,110.66
1094,B4,205.5,0.5,54,110.66
1095,D3,205.5,0.5,48,110.66
1096,G3,205.5,0.5,48,110.66
1097,B3,205.5,0.5,48,110.66
1098,D4,206.0,0.75,56,110.66
1099,A4,206.0,0.75,56,110.66
1100,C5,206.0,0.75,56,110.66
1101,D3,206.0,0.75,54,110.66
1102,A3,206.0,0.75,54,110.66
1103,C4,206.0,0.75,54,110.66
1104,D4,206.75,0.25,52,110.66
1105,G4,206.75,0.25,52,110.66
1106,B4,206.75,0.25,52,110.66
1107,D3,206.75,0.25,45,110.66
1108,G3,206.75,0.25,45,110.66
1109,B3,206.75,0.25,45,110.66
1110,D4,207.0,1.0,48,110.66
1111,G4,207.0,1.0,48,110.66
1112,B4,207.0,1.0,48,110.66
1113,D3,207.0,1.0,40,110.66
1114,G3,207.0,1.0,40,110.66
1115,B3,207.0,1.0,40,110.66
1116,D4,208.0,0.5,33,110.66
1117,F#4,208.0,0.5,33,110.66
1118,A4,208.0,0.5,33,110.66
1119,D3,208.0,0.5,29,110.66
1120,F#3,208.0,0.5,29,110.66
1121,A3,208.0,0.5,29,110.66
1122,D4,208.5,0.5,29,110.66
1123,E4,208.5,0.5,29,110.66
1124,G4,208.5,0.5,29,110.66
1125,D3,208.5,0.5,28,110.66
1126,E3,208.5,0.5,28,110.66
1127,G3,208.5,0.5,28,110.66
1128,D4,209.0,1.0,33,110.66
1129,F#4,209.0,1.0,33,110.66
1130,A4,209.0,1.0,33,110.66
1131,D3,209.0,1.0,30,110.66
1132,F#3,209.0,1.0,30,110.66
1133,A3,209.0,1.0,30,110.66
1134,D5,210.0,3.0,53,110.66
1135,G4,210.0,333/1000,50,110.66
1136,B2,210.0,333/1000,45,110.66
1137,G2,210.0,3.0,31,110.66
1138,D4,210.333,333/1000,40,110.66
1139,D3,210.333,333/1000,36,110.66
1140,B4,210.667,333/1000,34,110.66
1141,G3,210.667,333/1000,31,110.66
1142,G4,211.0,333/1000,47,110.66
1143,B2,211.0,333/1000,42,110.66
1144,D4,211.333,333/1000,37,110.66
1145,D3,211.333,333/1000,33,110.66
1146,B4,211.667,333/1000,32,110.66
1147,G3,211.667,333/1000,27,110.66
1148,F#4,212.0,333/1000,47,110.66
1149,A2,212.0,333/1000,41,110.66
1150,D4,212.333,333/1000,38,110.66
1151,D3,212.333,333/1000,33,110.66
1152,A4,212.667,333/1000,33,110.66
1153,F#3,212.667,333/1000,27,110.66
1154,D5,213.0,3.0,53,110.66
1155,A4,213.0,333/1000,50,110.66
1156,C3,213.0,333/1000,45,110.66
1157,G2,213.0,3.0,31,110.66
1158,D4,213.333,333/1000,41,110.66
1159,D3,213.333,333/1000,36,110.66
1160,C5,213.667,333/1000,33,110.66
1161,A3,213.667,333/1000,29,110.66
1162,A4,214.0,333/1000,48,110.66
1163,C3,214.0,333/1000,43,110.66
1164,D4,214.333,333/1000,38,110.66
1165,D3,214.333,333/1000,33,110.66
1166,C5,214.667,333/1000,30,110.66
1167,A3,214.667,333/1000,28,110.66
1168,G4,215.0,333/1000,48,110.66
1169,B2,215.0,333/1000,43,110.66
1170,D4,215.333,333/1000,38,110.66
1171,D3,215.333,333/1000,33,110.66
1172,B4,215.667,333/1000,31,110.66
1173,G3,215.667,333/1000,28,110.66
1174,D4,216.0,0.5,70,110.66
1175,D3,216.0,1.0,41,110.66
1176,B2,216.0,1.0,41,110.66
1177,G2,216.0,1.0,41,110.66
1178,D5,216.5,0.5,68,110.66
1179,E4,217.0,0.5,61,110.66
1180,E5,217.0,0.5,61,110.66
1181,G2,217.0,0.5,49,110.66
1182,C3,217.0,0.5,49,110.66
1183,E3,217.0,0.5,49,110.66
1184,F#4,217.5,0.5,66,110.66
1185,F#5,217.5,0.5,66,110.66
1186,G2,217.5,0.5,52,110.66
1187,A2,217.5,0.5,52,110.66
1188,F#3,217.5,0.5,52,110.66
1189,G4,218.0,0.75,74,110.66
1190,G5,218.0,0.75,74,110.66
1191,G2,218.0,0.75,61,110.66
1192,G3,218.0,0.75,61,110.66
1193,B2,218.0,0.75,61,110.66
1194,D4,218.75,0.25,49,110.66
1195,G4,218.75,0.25,49,110.66
1196,B4,218.75,0.25,49,110.66
1197,D3,218.75,0.25,44,110.66
1198,G3,218.75,0.25,44,110.66
1199,B3,218.75,0.25,44,110.66
1200,D4,219.0,1.0,54,110.66
1201,B4,219.0,1.0,54,110.66
1202,D5,219.0,1.0,54,110.66
1203,D3,219.0,1.0,48,110.66
1204,D4,219.0,1.0,48,110.66
1205,B3,219.0,1.0,48,110.66
1206,D4,220.0,0.75,45,110.66
1207,F#4,220.0,0.75,45,110.66
1208,C5,220.0,0.75,45,110.66
1209,D3,220.0,0.75,41,110.66
1210,A3,220.0,0.75,41,110.66
1211,C4,220.0,0.75,41,110.66
1212,D4,220.75,0.25,39,110.66
1213,G4,220.75,0.25,39,110.66
1214,B4,220.75,0.25,39,110.66
1215,G3,220.75,0.25,34,110.66
1216,B3,220.75,0.25,34,110.66
1217,D4,221.0,979/1000,36,110.66
1218,G4,221.0,979/1000,36,110.66
1219,B4,221.0,979/1000,36,110.66
1220,G3,221.0,979/1000,31,110.66
1221,B3,221.0,979/1000,31,110.66
1222,D2,222.0,333/1000,30,110.66
1223,A3,222.0,1.0,39,110.66
1224,F#4,222.0,1.0,39,110.66
1225,A4,222.0,1.0,39,110.66
1226,A2,222.333,333/1000,26,110.66
1227,D2,222.667,333/1000,27,110.66
1228,A1,223.0,333/1000,30,110.66
1229,A3,223.0,0.75,34,110.66
1230,E4,223.0,0.75,34,110.66
1231,G4,223.0,0.75,34,110.66
1232,D2,223.333,333/1000,26,110.66
1233,A1,223.667,333/1000,26,110.66
1234,A3,223.75,0.25,32,110.66
1235,D4,223.75,0.25,32,110.66
1236,F#4,223.75,0.25,32,110.66
1237,D2,224.0,333/1000,30,110.66
1238,A3,224.0,1.0,34,110.66
1239,D4,224.0,1.0,34,110.66
1240,F#4,224.0,1.0,34,110.66
1241,A2,224.333,333/1000,26,110.66
1242,D2,224.667,333/1000,26,110.66
1243,A1,225.0,333/1000,32,110.66
1244,F#4,225.0,0.75,40,110.66
1245,D5,225.0,0.75,40,110.66
1246,D2,225.333,333/1000,27,110.66
1247,A1,225.667,333/1000,27,110.66
1248,G4,225.75,0.25,38,110.66
1249,E5,225.75,0.25,38,110.66
1250,D2,226.0,333/1000,33,110.66
1251,F#4,226.0,1.0,44,110.66
1252,D5,226.0,1.0,44,110.66
1253,A2,226.333,333/1000,29,110.66
1254,D2,226.667,333/1000,29,110.66
1255,A1,227.0,333/1000,34,110.66
1256,A4,227.0,0.5,40,110.66
1257,E5,227.0,0.5,40,110.66
1258,C#2,227.333,333/1000,29,110.66
1259,A1,227.667,333/1000,29,110.66
1260,C#2,228.0,333/1000,30,110.66
1261,A3,228.0,1.0,50,110.66
1262,G4,228.0,1.0,50,110.66
1263,B4,228.0,1.0,50,110.66
1264,A2,228.333,333/1000,27,110.66
1265,C#2,228.667,333/1000,27,110.66
1266,A1,229.0,333/1000,30,110.66
1267,A3,229.0,0.75,43,110.66
1268,F#4,229.0,0.75,43,110.66
1269,A4,229.0,0.75,43,110.66
1270,C#2,229.333,333/1000,27,110.66
1271,A1,229.667,333/1000,27,110.66
1272,A3,229.75,0.25,34,110.66
1273,E4,229.75,0.25,34,110.66
1274,G4,229.75,0.25,34,110.66
1275,C#2,230.0,333/1000,33,110.66
1276,A3,230.0,1.0,37,110.66
1277,E4,230.0,1.0,37,110.66
1278,G4,230.0,1.0,37,110.66
1279,A2,230.333,333/1000,29,110.66
1280,C#2,230.667,333/1000,29,110.66
1281,A1,231.0,333/1000,34,110.66
1282,A4,231.0,0.75,46,110.66
1283,E5,231.0,0.75,46,110.66
1284,C#2,231.333,333/1000,30,110.66
1285,A1,231.667,333/1000,30,110.66
1286,D5,231.75,0.25,43,110.66
1287,F#5,231.75,0.25,43,110.66
1288,C#2,232.0,333/1000,35,110.66
1289,A4,232.0,1.0,48,110.66
1290,E5,232.0,1.0,48,110.66
1291,A2,232.333,333/1000,30,110.66
1292,C#2,232.667,333/1000,30,110.66
1293,A1,233.0,333/1000,35,110.66
1294,D5,233.0,0.5,45,110.66
1295,F#5,233.0,0.5,45,110.66
1296,D2,233.333,333/1000,30,110.66
1297,A1,233.667,333/1000,30,110.66
1298,D2,234.0,333/1000,34,110.66
1299,F#4,234.0,1.0,62,110.66
1300,D5,234.0,1.0,62,110.66
1301,A2,234.333,333/1000,29,110.66
1302,D2,234.667,333/1000,31,110.66
1303,A1,235.0,333/1000,34,110.66
1304,A4,235.0,0.5,42,110.66
1305,C#5,235.0,0.5,42,110.66
1306,D2,235.333,333/1000,29,110.66
1307,G4,235.5,0.5,42,110.66
1308,B4,235.5,0.5,42,110.66
1309,A1,235.667,333/1000,29,110.66
1310,D2,236.0,333/1000,39,110.66
1311,A3,236.0,1.0,51,110.66
1312,F#4,236.0,1.0,51,110.66
1313,A4,236.0,1.0,51,110.66
1314,A2,236.333,333/1000,34,110.66
1315,D2,236.667,333/1000,34,110.66
1316,A1,237.0,333/1000,36,110.66
1317,A3,237.0,0.5,40,110.66
1318,E4,237.0,0.5,40,110.66
1319,G4,237.0,0.5,40,110.66
1320,D2,237.333,333/1000,31,110.66
1321,A3,237.5,0.5,40,110.66
1322,D4,237.5,0.5,40,110.66
1323,F#4,237.5,0.5,40,110.66
1324,A1,237.667,333/1000,31,110.66
1325,C#2,238.0,333/1000,37,110.66
1326,A3,238.0,1.0,52,110.66
1327,G4,238.0,1.0,52,110.66
1328,B4,238.0,1.0,52,110.66
1329,A2,238.333,333/1000,33,110.66
1330,C#2,238.667,333/1000,33,110.66
1331,A1,239.0,333/1000,35,110.66
1332,A3,239.0,0.5,45,110.66
1333,F#4,239.0,0.5,45,110.66
1334,A4,239.0,0.5,45,110.66
1335,C#2,239.333,333/1000,31,110.66
1336,A3,239.5,0.5,44,110.66
1337,E4,239.5,0.5,44,110.66
1338,G4,239.5,0.5,44,110.66
1339,A1,239.667,333/1000,30,110.66
1340,D2,240.0,333/1000,36,110.66
1341,D4,240.0,0.5,48,110.66
1342,F#4,240.0,0.5,48,110.66
1343,A2,240.333,333/1000,29,110.66
1344,A3,240.5,0.5,44,110.66
1345,E4,240.5,0.5,44,110.66
1346,D2,240.667,333/1000,31,110.66
1347,A1,241.0,333/1000,37,110.66
1348,F#3,241.0,2.0,49,110.66
1349,D4,241.0,2.0,49,110.66
1350,D2,241.333,333/1000,30,110.66
1351,A1,241.667,333/1000,30,110.66
1352,D2,242.0,333/1000,36,110.66
1353,A2,242.333,333/1000,32,110.66
1354,D2,242.667,333/1000,32,110.66
1355,A1,243.0,333/1000,42,110.66
1356,A3,243.0,1.0,45,110.66
1357,F#4,243.0,1.0,45,110.66
1358,A4,243.0,1.0,45,110.66
1359,D2,243.333,333/1000,39,110.66
1360,A1,243.667,333/1000,39,110.66
1361,B1,244.0,333/1000,43,110.66
1362,A3,244.0,0.75,42,110.66
1363,E4,244.0,0.75,42,110.66
1364,G4,244.0,0.75,42,110.66
1365,D2,244.333,333/1000,39,110.66
1366,C2,244.667,327/1000,40,110.66
1367,A3,244.75,0.25,41,110.66
1368,D4,244.75,0.25,41,110.66
1369,F#4,244.75,0.25,41,110.66
1370,C2,245.0,333/1000,46,110.66
1371,A3,245.0,1.0,43,110.66
1372,D4,245.0,1.0,43,110.66
1373,F#4,245.0,1.0,43,110.66
1374,D2,245.333,333/1000,42,110.66
1375,C2,245.667,333/1000,42,110.66
1376,A1,246.0,333/1000,48,110.66
1377,A3,246.0,1.0,51,110.66
1378,F#4,246.0,1.0,51,110.66
1379,A4,246.0,1.0,51,110.66
1380,D2,246.333,333/1000,43,110.66
1381,A1,246.667,333/1000,43,110.66
1382,B1,247.0,333/1000,49,110.66
1383,A3,247.0,0.75,48,110.66
1384,E4,247.0,0.75,48,110.66
1385,G4,247.0,0.75,48,110.66
1386,D2,247.333,333/1000,44,110.66
1387,C2,247.667,333/1000,44,110.66
1388,A3,247.75,0.25,45,110.66
1389,D4,247.75,0.25,45,110.66
1390,F#4,247.75,0.25,45,110.66
1391,C2,248.0,333/1000,54,110.66
1392,A3,248.0,1.0,50,110.66
1393,D4,248.0,1.0,50,110.66
1394,F#4,248.0,1.0,50,110.66
1395,D2,248.333,333/1000,44,110.66
1396,C2,248.667,333/1000,46,110.66
1397,A1,249.0,333/1000,57,110.66
1398,C5,249.0,1.0,63,110.66
1399,D4,249.0,1.0,63,110.66
1400,F#4,249.0,1.0,63,110.66
1401,D2,249.333,333/1000,51,110.66
1402,A1,249.667,333/1000,51,110.66
1403,B1,250.0,333/1000,64,110.66
1404,G4,250.0,0.75,57,110.66
1405,D4,250.0,0.75,57,110.66
1406,B4,250.0,0.75,57,110.66
1407,D2,250.333,333/1000,54,110.66
1408,C2,250.667,327/1000,54,110.66
1409,A4,250.75,0.25,53,110.66
1410,D4,250.75,0.25,53,110.66
1411,F#4,250.75,0.25,53,110.66
1412,C2,251.0,333/1000,71,110.66
1413,A4,251.0,1.0,54,110.66
1414,D4,251.0,1.0,54,110.66
1415,F#4,251.0,1.0,54,110.66
1416,D2,251.333,333/1000,55,110.66
1417,C2,251.667,333/1000,55,110.66
1418,D2,252.0,333/1000,72,110.66
1419,D4,252.0,1.0,66,110.66
1420,C5,252.0,1.0,66,110.66
1421,E5,252.0,1.0,66,110.66
1422,D3,252.333,333/1000,62,110.66
1423,D2,252.667,333/1000,62,110.66
1424,E2,253.0,333/1000,69,110.66
1425,D4,253.0,0.75,63,110.66
1426,B4,253.0,0.75,63,110.66
1427,D5,253.0,0.75,63,110.66
1428,D3,253.333,333/1000,57,110.66
1429,F#2,253.667,333/1000,60,110.66
1430,D4,253.75,0.25,60,110.66
1431,A4,253.75,0.25,60,110.66
1432,C5,253.75,0.25,60,110.66
1433,F#2,254.0,333/1000,66,110.66
1434,D4,254.0,1.0,63,110.66
1435,C5,254.0,1.0,63,110.66
1436,A4,254.0,1.0,63,110.66
1437,D3,254.333,333/1000,60,110.66
1438,F#2,254.667,333/1000,60,110.66
1439,F#2,255.0,333/1000,43,110.66
1440,A3,255.0,1.0,47,110.66
1441,D4,255.0,1.0,47,110.66
1442,C5,255.0,1.0,47,110.66
1443,D3,255.333,333/1000,36,110.66
1444,F#2,255.667,333/1000,37,110.66
1445,D3,256.0,333/1000,37,110.66
1446,B3,256.0,0.75,41,110.66
1447,D4,256.0,0.75,41,110.66
1448,B4,256.0,0.75,41,110.66
1449,F#2,256.333,333/1000,33,110.66
1450,D3,256.667,333/1000,33,110.66
1451,C4,256.75,0.25,37,110.66
1452,D4,256.75,0.25,37,110.66
1453,A4,256.75,0.25,37,110.66
1454,F#2,257.0,333/1000,37,110.66
1455,C4,257.0,1.0,37,110.66
1456,D4,257.0,1.0,37,110.66
1457,A4,257.0,1.0,37,110.66
1458,D3,257.333,333/1000,31,110.66
1459,F#2,257.667,333/1000,31,110.66
1460,D3,258.0,333/1000,35,110.66
1461,F#2,258.333,333/1000,30,110.66
1462,D3,258.667,333/1000,30,110.66
1463,F#2,259.0,333/1000,35,110.66
1464,D3,259.333,333/1000,30,110.66
1465,F#2,259.667,333/1000,30,110.66
1466,D3,260.0,333/1000,35,110.66
1467,F#2,260.333,333/1000,29,110.66
1468,D3,260.667,333/1000,29,110.66
1469,B-2,261.0,333/1000,45,110.66
1470,G2,261.0,3.0,31,110.66
1471,C4,261.0,3.0,37,110.66
1472,D4,261.0,3.0,37,110.66
1473,A4,261.0,3.0,37,110.66
1474,D3,261.333,333/1000,36,110.66
1475,G3,261.667,333/1000,31,110.66
1476,B-2,262.0,333/1000,42,110.66
1477,D3,262.333,333/1000,33,110.66
1478,G3,262.667,333/1000,27,110.66
1479,A2,263.0,333/1000,41,110.66
1480,D3,263.333,333/1000,33,110.66
1481,F#3,263.667,333/1000,27,110.66
1482,G4,264.0,333/1000,50,110.66
1483,C3,264.0,333/1000,45,110.66
1484,G2,264.0,3.0,31,110.66
1485,D4,264.333,333/1000,40,110.66
1486,D3,264.333,333/1000,36,110.66
1487,B-3,264.667,333/1000,34,110.66
1488,A3,264.667,333/1000,29,110.66
1489,G4,265.0,333/1000,47,110.66
1490,C3,265.0,333/1000,43,110.66
1491,D4,265.333,333/1000,37,110.66
1492,D3,265.333,333/1000,33,110.66
1493,B-3,265.667,333/1000,32,110.66
1494,A3,265.667,333/1000,28,110.66
1495,F#4,266.0,333/1000,47,110.66
1496,B-2,266.0,333/1000,43,110.66
1497,D4,266.333,333/1000,38,110.66
1498,D3,266.333,333/1000,33,110.66
1499,A3,266.667,333/1000,33,110.66
1500,G3,266.667,333/1000,28,110.66
1501,A4,267.0,333/1000,50,110.66
1502,B-2,267.0,333/1000,42,110.66
1503,D4,267.333,333/1000,41,110.66
1504,D3,267.333,333/1000,33,110.66
1505,C4,267.667,333/1000,33,110.66
1506,G3,267.667,333/1000,28,110.66
1507,A4,268.0,333/1000,48,110.66
1508,D3,268.0,0.5,39,110.66
1509,F#3,268.0,0.5,39,110.66
1510,A3,268.0,0.5,39,110.66
1511,D4,268.333,333/1000,38,110.66
1512,D3,268.5,0.5,44,110.66
1513,G3,268.5,0.5,44,110.66
1514,B-3,268.5,0.5,44,110.66
1515,C4,268.667,333/1000,30,110.66
1516,G4,269.0,333/1000,48,110.66
1517,D3,269.0,0.75,47,110.66
1518,A3,269.0,0.75,47,110.66
1519,C4,269.0,0.75,47,110.66
1520,D4,269.333,333/1000,38,110.66
1521,B-3,269.667,333/1000,31,110.66
1522,D3,269.75,0.25,42,110.66
1523,G3,269.75,0.25,42,110.66
1524,B-3,269.75,0.25,42,110.66
1525,G4,270.0,333/1000,47,110.66
1526,D3,270.0,1.0,40,110.66
1527,G3,270.0,1.0,40,110.66
1528,B-3,270.0,1.0,40,110.66
1529,D4,270.333,333/1000,38,110.66
1530,B-3,270.667,333/1000,31,110.66
1531,D4,271.0,0.5,48,110.66
1532,F#4,271.0,0.5,48,110.66
1533,A4,271.0,0.5,48,110.66
1534,D3,271.0,0.5,29,110.66
1535,F#3,271.0,0.5,29,110.66
1536,A3,271.0,0.5,29,110.66
1537,D4,271.5,0.5,50,110.66
1538,G4,271.5,0.5,50,110.66
1539,B-4,271.5,0.5,50,110.66
1540,D3,271.5,0.5,28,110.66
1541,E3,271.5,0.5,28,110.66
1542,G3,271.5,0.5,28,110.66
1543,D4,272.0,0.75,52,110.66
1544,A4,272.0,0.75,52,110.66
1545,C5,272.0,0.75,52,110.66
1546,D3,272.0,1.0,30,110.66
1547,F#3,272.0,1.0,30,110.66
1548,A3,272.0,1.0,30,110.66
1549,D4,272.75,0.25,48,110.66
1550,G4,272.75,0.25,48,110.66
1551,B-4,272.75,0.25,48,110.66
1552,B2,273.0,333/1000,45,110.66
1553,G2,273.0,3.0,31,110.66
1554,D4,273.0,1.0,48,110.66
1555,G4,273.0,1.0,48,110.66
1556,B-4,273.0,1.0,48,110.66
1557,D3,273.333,333/1000,36,110.66
1558,G3,273.667,333/1000,31,110.66
1559,B2,274.0,333/1000,42,110.66
1560,D4,274.0,0.5,33,110.66
1561,F#4,274.0,0.5,33,110.66
1562,A4,274.0,0.5,33,110.66
1563,D3,274.333,333/1000,33,110.66
1564,D4,274.5,0.5,31,110.66
1565,E4,274.5,0.5,31,110.66
1566,G4,274.5,0.5,31,110.66
1567,G3,274.667,333/1000,27,110.66
1568,A2,275.0,333/1000,41,110.66
1569,D4,275.0,1.0,33,110.66
1570,F#4,275.0,1.0,33,110.66
1571,A4,275.0,1.0,33,110.66
1572,D3,275.333,333/1000,33,110.66
1573,F#3,275.667,333/1000,27,110.66
1574,D5,276.0,3.0,53,110.66
1575,G4,276.0,333/1000,50,110.66
1576,C3,276.0,333/1000,45,110.66
1577,G2,276.0,3.0,31,110.66
1578,D4,276.333,333/1000,40,110.66
1579,D3,276.333,333/1000,36,110.66
1580,B4,276.667,333/1000,34,110.66
1581,A3,276.667,333/1000,29,110.66
1582,G4,277.0,333/1000,47,110.66
1583,C3,277.0,333/1000,43,110.66
1584,D4,277.333,333/1000,37,110.66
1585,D3,277.333,333/1000,33,110.66
1586,B4,277.667,333/1000,32,110.66
1587,A3,277.667,333/1000,28,110.66
1588,F#4,278.0,333/1000,47,110.66
1589,B2,278.0,333/1000,43,110.66
1590,D4,278.333,333/1000,38,110.66
1591,D3,278.333,333/1000,33,110.66
1592,A4,278.667,333/1000,33,110.66
1593,G3,278.667,333/1000,28,110.66
1594,D5,279.0,3.0,53,110.66
1595,A4,279.0,333/1000,50,110.66
1596,D3,279.0,1.0,41,110.66
1597,B2,279.0,1.0,41,110.66
1598,G2,279.0,1.0,41,110.66
1599,D4,279.333,333/1000,41,110.66
1600,C5,279.667,333/1000,33,110.66
1601,A4,280.0,333/1000,48,110.66
1602,G2,280.0,0.5,49,110.66
1603,C3,280.0,0.5,49,110.66
1604,E3,280.0,0.5,49,110.66
1605,D4,280.333,333/1000,38,110.66
1606,G2,280.5,0.5,52,110.66
1607,A2,280.5,0.5,52,110.66
1608,F#3,280.5,0.5,52,110.66
1609,C5,280.667,333/1000,30,110.66
1610,G4,281.0,333/1000,48,110.66
1611,G2,281.0,0.75,61,110.66
1612,G3,281.0,0.75,61,110.66
1613,B2,281.0,0.75,61,110.66
1614,D4,281.333,333/1000,38,110.66
1615,B4,281.667,333/1000,31,110.66
1616,D3,281.75,0.25,44,110.66
1617,G3,281.75,0.25,44,110.66
1618,B3,281.75,0.25,44,110.66
1619,D4,282.0,0.5,70,110.66
1620,D3,282.0,1.0,45,110.66
1621,B3,282.0,1.0,45,110.66
1622,D5,282.5,0.5,68,110.66
1623,E4,283.0,0.5,61,110.66
1624,E5,283.0,0.5,61,110.66
1625,D3,283.0,0.75,41,110.66
1626,A3,283.0,0.75,41,110.66
1627,C4,283.0,0.75,41,110.66
1628,F#4,283.5,0.5,68,110.66
1629,F#5,283.5,0.5,68,110.66
1630,G3,283.75,0.25,34,110.66
1631,B3,283.75,0.25,34,110.66
1632,G4,284.0,0.75,76,110.66
1633,G5,284.0,0.75,76,110.66
1634,G3,284.0,1.0,31,110.66
1635,B3,284.0,1.0,31,110.66
1636,D4,284.75,0.25,49,110.66
1637,G4,284.75,0.25,49,110.66
1638,B4,284.75,0.25,49,110.66
1639,D2,285.0,333/1000,30,110.66
1640,D4,285.0,1.0,54,110.66
1641,B4,285.0,1.0,54,110.66
1642,D5,285.0,1.0,54,110.66
1643,A2,285.333,333/1000,26,110.66
1644,D2,285.667,333/1000,27,110.66
1645,A1,286.0,333/1000,30,110.66
1646,D4,286.0,0.75,45,110.66
1647,F#4,286.0,0.75,45,110.66
1648,C5,286.0,0.75,45,110.66
1649,D2,286.333,333/1000,26,110.66
1650,A1,286.667,333/1000,26,110.66
1651,D4,286.75,0.25,39,110.66
1652,G4,286.75,0.25,39,110.66
1653,B4,286.75,0.25,39,110.66
1654,D2,287.0,333/1000,30,110.66
1655,D4,287.0,1.0,36,110.66
1656,G4,287.0,1.0,36,110.66
1657,B4,287.0,1.0,36,110.66
1658,A2,287.333,333/1000,26,110.66
1659,D2,287.667,333/1000,26,110.66
1660,A1,288.0,333/1000,32,110.66
1661,A3,288.0,1.0,39,110.66
1662,F#4,288.0,1.0,39,110.66
1663,A4,288.0,1.0,39,110.66
1664,D2,288.333,333/1000,27,110.66
1665,A1,288.667,333/1000,27,110.66
1666,D2,289.0,333/1000,33,110.66
1667,A3,289.0,0.75,34,110.66
1668,E4,289.0,0.75,34,110.66
1669,G4,289.0,0.75,34,110.66
1670,A2,289.333,333/1000,29,110.66
1671,D2,289.667,333/1000,29,110.66
1672,A3,289.75,0.25,32,110.66
1673,D4,289.75,0.25,32,110.66
1674,F#4,289.75,0.25,32,110.66
1675,A1,290.0,333/1000,34,110.66
1676,A3,290.0,1.0,34,110.66
1677,D4,290.0,1.0,34,110.66
1678,F#4,290.0,1.0,34,110.66
1679,C#2,290.333,333/1000,29,110.66
1680,A1,290.667,333/1000,29,110.66
1681,C#2,291.0,333/1000,30,110.66
1682,F#4,291.0,0.75,40,110.66
1683,D5,291.0,0.75,40,110.66
1684,A2,291.333,333/1000,27,110.66
1685,C#2,291.667,333/1000,27,110.66
1686,G4,291.75,0.25,38,110.66
1687,E5,291.75,0.25,38,110.66
1688,A1,292.0,333/1000,30,110.66
1689,F#4,292.0,1.0,44,110.66
1690,D5,292.0,1.0,44,110.66
1691,C#2,292.333,333/1000,27,110.66
1692,A1,292.667,333/1000,27,110.66
1693,C#2,293.0,333/1000,33,110.66
1694,A4,293.0,0.5,40,110.66
1695,E5,293.0,0.5,40,110.66
1696,A2,293.333,333/1000,29,110.66
1697,C#2,293.667,333/1000,29,110.66
1698,A1,294.0,333/1000,34,110.66
1699,A3,294.0,1.0,49,110.66
1700,G4,294.0,1.0,49,110.66
1701,B4,294.0,1.0,49,110.66
1702,C#2,294.333,333/1000,30,110.66
1703,A1,294.667,333/1000,30,110.66
1704,C#2,295.0,333/1000,35,110.66
1705,A3,295.0,0.75,42,110.66
1706,F#4,295.0,0.75,42,110.66
1707,A4,295.0,0.75,42,110.66
1708,A2,295.333,333/1000,30,110.66
1709,C#2,295.667,333/1000,30,110.66
1710,A3,295.75,0.25,34,110.66
1711,E4,295.75,0.25,34,110.66
1712,G4,295.75,0.25,34,110.66
1713,A1,296.0,333/1000,35,110.66
1714,A3,296.0,1.0,37,110.66
1715,E4,296.0,1.0,37,110.66
1716,G4,296.0,1.0,37,110.66
1717,D2,296.333,333/1000,30,110.66
1718,A1,296.667,333/1000,30,110.66
1719,D2,297.0,333/1000,34,110.66
1720,A4,297.0,0.75,46,110.66
1721,E5,297.0,0.75,46,110.66
1722,A2,297.333,333/1000,29,110.66
1723,D2,297.667,333/1000,31,110.66
1724,D5,297.75,0.25,43,110.66
1725,F#5,297.75,0.25,43,110.66
1726,A1,298.0,333/1000,34,110.66
1727,A4,298.0,1.0,48,110.66
1728,E5,298.0,1.0,48,110.66
1729,D2,298.333,333/1000,29,110.66
1730,A1,298.667,333/1000,29,110.66
1731,D2,299.0,333/1000,39,110.66
1732,D5,299.0,0.5,45,110.66
1733,F#5,299.0,0.5,45,110.66
1734,A2,299.333,333/1000,34,110.66
1735,D2,299.667,333/1000,34,110.66
1736,A1,300.0,333/1000,36,110.66
1737,F#4,300.0,1.0,56,110.66
1738,D5,300.0,1.0,56,110.66
1739,D2,300.333,333/1000,31,110.66
1740,A1,300.667,333/1000,31,110.66
1741,C#2,301.0,333/1000,37,110.66
1742,A4,301.0,0.5,42,110.66
1743,C#5,301.0,0.5,42,110.66
1744,A2,301.333,333/1000,33,110.66
1745,G4,301.5,0.5,42,110.66
1746,B4,301.5,0.5,42,110.66
1747,C#2,301.667,333/1000,33,110.66
1748,A1,302.0,333/1000,35,110.66
1749,A3,302.0,1.0,51,110.66
1750,F#4,302.0,1.0,51,110.66
1751,A4,302.0,1.0,51,110.66
1752,C#2,302.333,333/1000,31,110.66
1753,A1,302.667,333/1000,30,110.66
1754,D2,303.0,333/1000,36,110.66
1755,A3,303.0,0.5,40,110.66
1756,E4,303.0,0.5,40,110.66
1757,G4,303.0,0.5,40,110.66
1758,A2,303.333,333/1000,29,110.66
1759,A3,303.5,0.5,38,110.66
1760,D4,303.5,0.5,38,110.66
1761,F#4,303.5,0.5,38,110.66
1762,D2,303.667,333/1000,31,110.66
1763,A1,304.0,333/1000,37,110.66
1764,A3,304.0,1.0,52,110.66
1765,G4,304.0,1.0,52,110.66
1766,B4,304.0,1.0,52,110.66
1767,D2,304.333,333/1000,30,110.66
1768,A1,304.667,333/1000,30,110.66
1769,D2,305.0,333/1000,36,110.66
1770,A3,305.0,0.5,45,110.66
1771,F#4,305.0,0.5,45,110.66
1772,A4,305.0,0.5,45,110.66
1773,A2,305.333,333/1000,32,110.66
1774,A3,305.5,0.5,44,110.66
1775,E4,305.5,0.5,44,110.66
1776,G4,305.5,0.5,44,110.66
1777,D2,305.667,333/1000,32,110.66
1778,A1,306.0,333/1000,42,110.66
1779,D4,306.0,0.5,48,110.66
1780,F#4,306.0,0.5,48,110.66
1781,D2,306.333,333/1000,39,110.66
1782,A3,306.5,0.5,44,110.66
1783,E4,306.5,0.5,44,110.66
1784,A1,306.667,333/1000,39,110.66
1785,B1,307.0,333/1000,43,110.66
1786,F#3,307.0,2.0,49,110.66
1787,D4,307.0,2.0,49,110.66
1788,D2,307.333,333/1000,39,110.66
1789,C2,307.667,333/1000,40,110.66
1790,C2,308.0,333/1000,46,110.66
1791,D2,308.333,333/1000,42,110.66
1792,C2,308.667,333/1000,42,110.66
1793,A1,309.0,333/1000,48,110.66
1794,A3,309.0,1.0,47,110.66
1795,F#4,309.0,1.0,47,110.66
1796,A4,309.0,1.0,47,110.66
1797,D2,309.333,333/1000,43,110.66
1798,A1,309.667,333/1000,43,110.66
1799,B1,310.0,333/1000,49,110.66
1800,A3,310.0,0.75,44,110.66
1801,E4,310.0,0.75,44,110.66
1802,G4,310.0,0.75,44,110.66
1803,D2,310.333,333/1000,44,110.66
1804,C2,310.667,333/1000,44,110.66
1805,A3,310.75,0.25,41,110.66
1806,D4,310.75,0.25,41,110.66
1807,F#4,310.75,0.25,41,110.66
1808,C2,311.0,333/1000,54,110.66
1809,A3,311.0,1.0,43,110.66
1810,D4,311.0,1.0,43,110.66
1811,F#4,311.0,1.0,43,110.66
1812,D2,311.333,333/1000,44,110.66
1813,C2,311.667,333/1000,46,110.66
1814,A1,312.0,333/1000,57,110.66
1815,A3,312.0,1.0,54,110.66
1816,F#4,312.0,1.0,54,110.66
1817,A4,312.0,1.0,54,110.66
1818,D2,312.333,333/1000,51,110.66
1819,A1,312.667,333/1000,51,110.66
1820,B1,313.0,333/1000,64,110.66
1821,A3,313.0,0.75,48,110.66
1822,E4,313.0,0.75,48,110.66
1823,G4,313.0,0.75,48,110.66
1824,D2,313.333,333/1000,54,110.66
1825,C2,313.667,333/1000,54,110.66
1826,A3,313.75,0.25,48,110.66
1827,D4,313.75,0.25,48,110.66
1828,F#4,313.75,0.25,48,110.66
1829,C2,314.0,333/1000,71,110.66
1830,A3,314.0,1.0,50,110.66
1831,D4,314.0,1.0,50,110.66
1832,F#4,314.0,1.0,50,110.66
1833,D2,314.333,333/1000,55,110.66
1834,C2,314.667,333/1000,55,110.66
1835,D2,315.0,333/1000,72,110.66
1836,C5,315.0,1.0,63,110.66
1837,D4,315.0,1.0,63,110.66
1838,F#4,315.0,1.0,63,110.66
1839,D3,315.333,333/1000,62,110.66
1840,D2,315.667,333/1000,62,110.66
1841,E2,316.0,333/1000,69,110.66
1842,G4,316.0,0.75,63,110.66
1843,D4,316.0,0.75,63,110.66
1844,B4,316.0,0.75,63,110.66
1845,D3,316.333,333/1000,57,110.66
1846,F#2,316.667,333/1000,60,110.66
1847,A4,316.75,0.25,53,110.66
1848,D4,316.75,0.25,53,110.66
1849,F#4,316.75,0.25,53,110.66
1850,F#2,317.0,333/1000,66,110.66
1851,A4,317.0,1.0,54,110.66
1852,D4,317.0,1.0,54,110.66
1853,F#4,317.0,1.0,54,110.66
1854,D3,317.333,333/1000,60,110.66
1855,F#2,317.667,321/1000,60,110.66
1856,F#2,318.0,333/1000,43,110.66
1857,D4,318.0,1.0,65,110.66
1858,C5,318.0,1.0,65,110.66
1859,E5,318.0,1.0,65,110.66
1860,D3,318.333,333/1000,36,110.66
1861,F#2,318.667,333/1000,37,110.66
1862,D3,319.0,333/1000,37,110.66
1863,D4,319.0,0.75,63,110.66
1864,B4,319.0,0.75,63,110.66
1865,D5,319.0,0.75,63,110.66
1866,F#2,319.333,333/1000,33,110.66
1867,D3,319.667,333/1000,33,110.66
1868,D4,319.75,0.25,60,110.66
1869,A4,319.75,0.25,60,110.66
1870,C5,319.75,0.25,60,110.66
1871,F#2,320.0,333/1000,37,110.66
1872,D4,320.0,1.0,63,110.66
1873,C5,320.0,1.0,63,110.66
1874,A4,320.0,1.0,63,110.66
1875,D3,320.333,333/1000,31,110.66
1876,F#2,320.667,333/1000,31,110.66
1877,D3,321.0,333/1000,35,110.66
1878,A3,321.0,1.0,47,110.66
1879,D4,321.0,1.0,47,110.66
1880,C5,321.0,1.0,47,110.66
1881,F#2,321.333,333/1000,30,110.66
1882,D3,321.667,333/1000,30,110.66
1883,F#2,322.0,333/1000,35,110.66
1884,B3,322.0,0.75,41,110.66
1885,D4,322.0,0.75,41,110.66
1886,B4,322.0,0.75,41,110.66
1887,D3,322.333,333/1000,30,110.66
1888,F#2,322.667,333/1000,30,110.66
1889,C4,322.75,0.25,37,110.66
1890,D4,322.75,0.25,37,110.66
1891,A4,322.75,0.25,37,110.66
1892,D3,323.0,333/1000,35,110.66
1893,C4,323.0,1.0,37,110.66
1894,D4,323.0,1.0,37,110.66
1895,A4,323.0,1.0,37,110.66
1896,F#2,323.333,333/1000,29,110.66
1897,D3,323.667,333/1000,29,110.66
1898,B-2,324.0,333/1000,45,110.66
1899,G2,324.0,3.0,31,110.66
1900,D3,324.333,333/1000,36,110.66
1901,G3,324.667,333/1000,31,110.66
1902,B-2,325.0,333/1000,42,110.66
1903,D3,325.333,333/1000,33,110.66
1904,G3,325.667,333/1000,27,110.66
1905,A2,326.0,333/1000,41,110.66
1906,D3,326.333,333/1000,33,110.66
1907,F#3,326.667,333/1000,27,110.66
1908,C3,327.0,333/1000,45,110.66
1909,G2,327.0,3.0,31,110.66
1910,C4,327.0,3.0,37,110.66
1911,D4,327.0,3.0,37,110.66
1912,A4,327.0,3.0,37,110.66
1913,D3,327.333,333/1000,36,110.66
1914,A3,327.667,333/1000,29,110.66
1915,C3,328.0,333/1000,43,110.66
1916,D3,328.333,333/1000,33,110.66
1917,A3,328.667,333/1000,28,110.66
1918,B-2,329.0,333/1000,43,110.66
1919,D3,329.333,333/1000,33,110.66
1920,G3,329.667,333/1000,28,110.66
1921,G4,330.0,333/1000,50,110.66
1922,B-2,330.0,333/1000,42,110.66
1923,D4,330.333,333/1000,40,110.66
1924,D3,330.333,333/1000,33,110.66
1925,B-3,330.667,333/1000,34,110.66
1926,G3,330.667,333/1000,28,110.66
1927,G4,331.0,333/1000,47,110.66
1928,D3,331.0,0.5,41,110.66
1929,F#3,331.0,0.5,41,110.66
1930,A3,331.0,0.5,41,110.66
1931,D4,331.333,333/1000,37,110.66
1932,D3,331.5,0.5,44,110.66
1933,G3,331.5,0.5,44,110.66
1934,B-3,331.5,0.5,44,110.66
1935,B-3,331.667,333/1000,32,110.66
1936,F#4,332.0,333/1000,47,110.66
1937,D3,332.0,0.75,47,110.66
1938,A3,332.0,0.75,47,110.66
1939,C4,332.0,0.75,47,110.66
1940,D4,332.333,333/1000,38,110.66
1941,A3,332.667,333/1000,33,110.66
1942,D3,332.75,0.25,42,110.66
1943,G3,332.75,0.25,42,110.66
1944,B-3,332.75,0.25,42,110.66
1945,A4,333.0,333/1000,50,110.66
1946,D3,333.0,1.0,40,110.66
1947,G3,333.0,1.0,40,110.66
1948,B-3,333.0,1.0,40,110.66
1949,D4,333.333,333/1000,41,110.66
1950,C4,333.667,333/1000,33,110.66
1951,A4,334.0,333/1000,48,110.66
1952,D3,334.0,0.5,29,110.66
1953,F#3,334.0,0.5,29,110.66
1954,A3,334.0,0.5,29,110.66
1955,D4,334.333,333/1000,38,110.66
1956,D3,334.5,0.5,26,110.66
1957,E3,334.5,0.5,26,110.66
1958,G3,334.5,0.5,26,110.66
1959,C4,334.667,333/1000,30,110.66
1960,G4,335.0,333/1000,48,110.66
1961,D3,335.0,1.0,30,110.66
1962,F#3,335.0,1.0,30,110.66
1963,A3,335.0,1.0,30,110.66
1964,D4,335.333,333/1000,38,110.66
1965,B-3,335.667,333/1000,31,110.66
1966,G4,336.0,333/1000,47,110.66
1967,B2,336.0,333/1000,45,110.66
1968,G2,336.0,3.0,31,110.66
1969,D4,336.333,333/1000,38,110.66
1970,D3,336.333,333/1000,36,110.66
1971,B-3,336.667,333/1000,31,110.66
1972,G3,336.667,333/1000,31,110.66
1973,B2,337.0,333/1000,42,110.66
1974,D4,337.0,0.5,48,110.66
1975,F#4,337.0,0.5,48,110.66
1976,A4,337.0,0.5,48,110.66
1977,D3,337.333,333/1000,33,110.66
1978,D4,337.5,0.5,49,110.66
1979,G4,337.5,0.5,49,110.66
1980,B-4,337.5,0.5,49,110.66
1981,G3,337.667,333/1000,27,110.66
1982,A2,338.0,333/1000,41,110.66
1983,D4,338.0,0.75,56,110.66
1984,A4,338.0,0.75,56,110.66
1985,C5,338.0,0.75,56,110.66
1986,D3,338.333,333/1000,33,110.66
1987,F#3,338.667,333/1000,27,110.66
1988,D4,338.75,0.25,48,110.66
1989,G4,338.75,0.25,48,110.66
1990,B-4,338.75,0.25,48,110.66
1991,C3,339.0,333/1000,45,110.66
1992,G2,339.0,3.0,31,110.66
1993,D4,339.0,1.0,48,110.66
1994,G4,339.0,1.0,48,110.66
1995,B-4,339.0,1.0,48,110.66
1996,D3,339.333,333/1000,36,110.66
1997,A3,339.667,333/1000,29,110.66
1998,C3,340.0,333/1000,43,110.66
1999,D4,340.0,0.5,33,110.66
2000,F#4,340.0,0.5,33,110.66
2001,A4,340.0,0.5,33,110.66
2002,D3,340.333,333/1000,33,110.66
2003,D4,340.5,0.5,31,110.66
2004,E4,340.5,0.5,31,110.66
2005,G4,340.5,0.5,31,110.66
2006,A3,340.667,333/1000,28,110.66
2007,B2,341.0,333/1000,43,110.66
2008,D4,341.0,1.0,33,110.66
2009,F#4,341.0,1.0,33,110.66
2010,A4,341.0,1.0,33,110.66
2011,D3,341.333,333/1000,33,110.66
2012,G3,341.667,333/1000,28,110.66
2013,D5,342.0,3.0,53,110.66
2014,G4,342.0,333/1000,50,110.66
2015,D3,342.0,1.0,41,110.66
2016,B2,342.0,1.0,41,110.66
2017,G2,342.0,1.0,41,110.66
2018,D4,342.333,333/1000,40,110.66
2019,B4,342.667,333/1000,34,110.66
2020,G4,343.0,333/1000,47,110.66
2021,G2,343.0,0.5,49,110.66
2022,C3,343.0,0.5,49,110.66
2023,E3,343.0,0.5,49,110.66
2024,D4,343.333,333/1000,37,110.66
2025,G2,343.5,0.5,52,110.66
2026,A2,343.5,0.5,52,110.66
2027,F#3,343.5,0.5,52,110.66
2028,B4,343.667,333/1000,32,110.66
2029,F#4,344.0,333/1000,47,110.66
2030,G2,344.0,0.75,61,110.66
2031,G3,344.0,0.75,61,110.66
2032,B2,344.0,0.75,61,110.66
2033,D4,344.333,333/1000,38,110.66
2034,A4,344.667,333/1000,33,110.66
2035,D3,344.75,0.25,44,110.66
2036,G3,344.75,0.25,44,110.66
2037,B3,344.75,0.25,44,110.66
2038,D5,345.0,3.0,53,110.66
2039,A4,345.0,333/1000,50,110.66
2040,D3,345.0,1.0,48,110.66
2041,D4,345.0,1.0,48,110.66
2042,B3,345.0,1.0,48,110.66
2043,D4,345.333,333/1000,41,110.66
2044,C5,345.667,333/1000,33,110.66
2045,A4,346.0,333/1000,48,110.66
2046,D3,346.0,0.75,41,110.66
2047,A3,346.0,0.75,41,110.66
2048,C4,346.0,0.75,41,110.66
2049,D4,346.333,333/1000,38,110.66
2050,C5,346.667,333/1000,30,110.66
2051,G3,346.75,0.25,34,110.66
2052,B3,346.75,0.25,34,110.66
2053,G4,347.0,333/1000,48,110.66
2054,G3,347.0,1.0,31,110.66
2055,B3,347.0,1.0,31,110.66
2056,D4,347.333,333/1000,38,110.66
2057,B4,347.667,333/1000,31,110.66
2058,D4,348.0,0.5,70,110.66
2059,G2,348.0,333/1000,30,110.66
2060,G3,348.333,333/1000,26,110.66
2061,D5,348.5,0.5,68,110.66
2062,G2,348.667,333/1000,27,110.66
2063,G3,349.0,333/1000,30,110.66
2064,E4,349.0,0.5,61,110.66
2065,E5,349.0,0.5,61,110.66
2066,G2,349.333,333/1000,26,110.66
2067,F#4,349.5,0.5,68,110.66
2068,F#5,349.5,0.5,68,110.66
2069,G3,349.667,333/1000,26,110.66
2070,G2,350.0,333/1000,30,110.66
2071,G4,350.0,0.75,76,110.66
2072,G5,350.0,0.75,76,110.66
2073,G3,350.333,333/1000,26,110.66
2074,G2,350.667,327/1000,26,110.66
2075,D4,350.75,0.25,49,110.66
2076,G4,350.75,0.25,49,110.66
2077,B4,350.75,0.25,49,110.66
2078,G2,351.0,333/1000,30,110.66
2079,B4,351.0,1.0,61,110.66
2080,D5,351.0,1.0,61,110.66
2081,G3,351.333,333/1000,26,110.66
2082,G2,351.667,333/1000,27,110.66
2083,G3,352.0,333/1000,30,110.66
2084,D4,352.0,0.75,45,110.66
2085,F#4,352.0,0.75,45,110.66
2086,C5,352.0,0.75,45,110.66
2087,G2,352.333,333/1000,26,110.66
2088,G3,352.667,333/1000,26,110.66
2089,D4,352.75,0.25,39,110.66
2090,G4,352.75,0.25,39,110.66
2091,B4,352.75,0.25,39,110.66
2092,G2,353.0,333/1000,30,110.66
2093,D4,353.0,1.0,36,110.66
2094,G4,353.0,1.0,36,110.66
2095,B4,353.0,1.0,36,110.66
2096,G3,353.333,333/1000,26,110.66
2097,G2,353.667,333/1000,26,110.66
2098,G1,354.0,333/1000,30,110.66
2099,E4,354.0,1.0,40,110.66
2100,G4,354.0,1.0,40,110.66
2101,C5,354.0,1.0,40,110.66
2102,G2,354.333,333/1000,26,110.66
2103,G1,354.667,333/1000,27,110.66
2104,G2,355.0,333/1000,30,110.66
2105,D4,355.0,0.75,38,110.66
2106,G4,355.0,0.75,38,110.66
2107,B4,355.0,0.75,38,110.66
2108,G1,355.333,333/1000,26,110.66
2109,G2,355.667,333/1000,26,110.66
2110,C4,355.75,0.25,36,110.66
2111,G4,355.75,0.25,36,110.66
2112,A4,355.75,0.25,36,110.66
2113,G1,356.0,333/1000,30,110.66
2114,C4,356.0,1.0,38,110.66
2115,G4,356.0,1.0,38,110.66
2116,A4,356.0,1.0,38,110.66
2117,G2,356.333,333/1000,26,110.66
2118,G1,356.667,327/1000,26,110.66
2119,G1,357.0,333/1000,30,110.66
2120,D4,357.0,1.0,40,110.66
2121,B4,357.0,1.0,40,110.66
2122,G2,357.333,333/1000,26,110.66
2123,G1,357.667,333/1000,27,110.66
2124,G2,358.0,333/1000,30,110.66
2125,C4,358.0,0.75,38,110.66
2126,D4,358.0,0.75,38,110.66
2127,A4,358.0,0.75,38,110.66
2128,G1,358.333,333/1000,26,110.66
2129,G2,358.667,333/1000,26,110.66
2130,B3,358.75,0.25,36,110.66
2131,D4,358.75,0.25,36,110.66
2132,G4,358.75,0.25,36,110.66
2133,G1,359.0,333/1000,30,110.66
2134,B3,359.0,1.0,38,110.66
2135,D4,359.0,1.0,38,110.66
2136,G4,359.0,1.0,38,110.66
2137,G2,359.333,333/1000,26,110.66
2138,G1,359.667,327/1000,26,110.66
2139,G1,360.0,333/1000,28,110.66
2140,C4,360.0,1.0,40,110.66
2141,D4,360.0,1.0,40,110.66
2142,A4,360.0,1.0,40,110.66
2143,G2,360.333,333/1000,24,110.66
2144,G1,360.667,333/1000,25,110.66
2145,G2,361.0,333/1000,28,110.66
2146,B3,361.0,0.75,38,110.66
2147,D4,361.0,0.75,38,110.66
2148,G4,361.0,0.75,38,110.66
2149,G1,361.333,333/1000,24,110.66
2150,G2,361.667,333/1000,24,110.66
2151,A3,361.75,0.25,36,110.66
2152,C4,361.75,0.25,36,110.66
2153,F#4,361.75,0.25,36,110.66
2154,G1,362.0,333/1000,28,110.66
2155,A3,362.0,1.0,38,110.66
2156,C4,362.0,1.0,38,110.66
2157,F#4,362.0,1.0,38,110.66
2158,G2,362.333,333/1000,24,110.66
2159,G1,362.667,327/1000,24,110.66
2160,G1,363.0,333/1000,28,110.66
2161,B3,363.0,1.0,40,110.66
2162,G4,363.0,1.0,40,110.66
2163,G2,363.333,333/1000,24,110.66
2164,G1,363.667,333/1000,24,110.66
2165,G2,364.0,333/1000,27,110.66
2166,A3,364.0,0.75,38,110.66
2167,D4,364.0,0.75,38,110.66
2168,G1,364.333,333/1000,23,110.66
2169,G2,364.667,333/1000,22,110.66
2170,G3,364.75,0.25,36,110.66
2171,B3,364.75,0.25,36,110.66
2172,G1,365.0,333/1000,25,110.66
2173,G3,365.0,1.0,38,110.66
2174,B3,365.0,1.0,38,110.66
2175,G2,365.333,333/1000,21,110.66
2176,G1,365.667,327/1000,21,110.66
2177,G1,366.0,333/1000,27,110.66
2178,G3,366.0,1.0,38,110.66
2179,D4,366.0,1.0,38,110.66
2180,F4,366.0,1.0,38,110.66
2181,G2,366.333,333/1000,23,110.66
2182,G1,366.667,333/1000,24,110.66
2183,G2,367.0,333/1000,27,110.66
2184,G3,367.0,0.75,36,110.66
2185,C4,367.0,0.75,36,110.66
2186,E4,367.0,0.75,36,110.66
2187,G1,367.333,333/1000,23,110.66
2188,G2,367.667,333/1000,23,110.66
2189,G3,367.75,0.25,34,110.66
2190,B3,367.75,0.25,34,110.66
2191,D4,367.75,0.25,34,110.66
2192,G1,368.0,333/1000,27,110.66
2193,G3,368.0,1.0,36,110.66
2194,B3,368.0,1.0,36,110.66
2195,D4,368.0,1.0,36,110.66
2196,G2,368.333,333/1000,23,110.66
2197,G1,368.667,333/1000,23,110.66
2198,B3,369.0,1.0,38,110.66
2199,A4,369.0,1.0,38,110.66
2200,F4,369.0,1.0,38,110.66
2201,G2,369.0,3.0,23,110.66
2202,D3,369.0,3.0,23,110.66
2203,B3,370.0,0.75,34,110.66
2204,G4,370.0,0.75,34,110.66
2205,E4,370.0,0.75,34,110.66
2206,D4,370.75,0.25,31,110.66
2207,B3,370.75,0.25,31,110.66
2208,F4,370.75,0.25,31,110.66
2209,F4,371.0,1.0,32,110.66
2210,B3,371.0,1.0,32,110.66
2211,D4,371.0,1.0,32,110.66
2212,A4,372.0,1.5,36,110.66
2213,B3,372.0,3.0,36,110.66
2214,F4,372.0,3.0,36,110.66
2215,G3,372.002,0.875,54,110.66
2216,A3,372.875,0.125,44,110.66
2217,G3,373.0,333/1000,54,110.66
2218,E3,373.333,333/1000,50,110.66
2219,G#4,373.5,0.5,36,110.66
2220,C3,373.667,333/1000,47,110.66
2221,G4,374.0,0.5,36,110.66
2222,G3,374.0,0.75,54,110.66
2223,A4,374.5,0.5,36,110.66
2224,E4,374.75,0.25,51,110.66
2225,A4,375.0,1.0,36,110.66
2226,E4,375.0,2.0,54,110.66
2227,B3,375.0,3.0,36,110.66
2228,F4,375.0,3.0,36,110.66
2229,G4,376.0,2.0,36,110.66
2230,C4,377.0,0.5,40,110.66
2231,G4,378.002,0.875,60,110.66
2232,A4,378.875,0.125,50,110.66
2233,G4,379.0,333/1000,60,110.66
2234,E4,379.333,333/1000,57,110.66
2235,C4,379.667,333/1000,53,110.66
2236,G4,380.0,0.75,60,110.66
2237,E5,380.75,0.25,56,110.66
2238,E5,381.0,2.0,60,110.66
2239,G2,381.0,0.25,51,110.66
2240,A2,381.5,0.25,46,110.66
2241,B2,381.75,0.25,46,110.66
2242,C3,382.0,0.188,51,110.66
2243,G2,382.5,0.188,45,110.66
2244,C5,383.0,0.5,44,110.66
2245,C3,383.0,0.25,51,110.66
2246,G4,384.0,0.875,59,110.66
2247,G2,384.0,0.5,36,110.66
2248,A2,384.5,0.25,34,110.66
2249,B2,384.75,0.25,35,110.66
2250,F4,384.875,0.125,50,110.66
2251,E4,385.0,333/1000,60,110.66
2252,C3,385.0,0.25,36,110.66
2253,C4,385.333,333/1000,56,110.66
2254,G2,385.5,0.188,33,110.66
2255,G3,385.667,333/1000,52,110.66
2256,C4,386.0,333/1000,60,110.66
2257,C3,386.0,0.188,36,110.66
2258,E4,386.333,333/1000,57,110.66
2259,B-2,386.5,0.188,33,110.66
2260,G4,386.667,333/1000,54,110.66
2261,B-2,387.0,0.5,46,110.66
2262,G3,387.0,0.25,56,110.66
2263,E4,387.0,0.25,56,110.66
2264,G4,387.0,0.25,56,110.66
2265,E-3,387.5,0.375,43,110.66
2266,G3,387.5,0.25,53,110.66
2267,D4,387.5,0.25,53,110.66
2268,F4,387.5,0.25,53,110.66
2269,E-3,388.0,0.5,48,110.66
2270,G3,388.0,0.188,56,110.66
2271,C4,388.0,0.188,56,110.66
2272,E4,388.0,0.188,56,110.66
2273,D3,388.5,0.375,46,110.66
2274,G3,388.5,0.188,50,110.66
2275,B3,388.5,0.188,50,110.66
2276,D4,388.5,0.188,50,110.66
2277,D3,389.0,0.5,54,110.66
2278,G3,389.0,0.25,56,110.66
2279,C4,389.0,0.25,56,110.66
2280,E4,389.0,0.25,56,110.66
2281,G3,389.5,0.375,51,110.66
2282,G3,390.0,0.5,59,110.66
2283,G3,390.0,0.25,41,110.66
2284,E-4,390.0,0.25,41,110.66
2285,G4,390.0,0.25,41,110.66
2286,G3,390.5,0.25,37,110.66
2287,D4,390.5,0.25,37,110.66
2288,F4,390.5,0.25,37,110.66
2289,G2,390.5,0.5,55,110.66
2290,F3,390.5,0.5,55,110.66
2291,G3,390.5,0.5,55,110.66
2292,G3,391.0,0.188,41,110.66
2293,C4,391.0,0.188,41,110.66
2294,E-4,391.0,0.188,41,110.66
2295,G2,391.0,1.5,61,110.66
2296,F3,391.0,1.5,61,110.66
2297,G3,391.0,1.5,61,110.66
2298,G3,391.5,0.188,38,110.66
2299,B3,391.5,0.188,38,110.66
2300,D4,391.5,0.188,38,110.66
2301,G3,392.0,0.188,41,110.66
2302,C4,392.0,0.188,41,110.66
2303,E-4,392.0,0.188,41,110.66
2304,B-3,392.5,0.188,38,110.66
2305,D4,392.5,0.188,38,110.66
2306,F4,392.5,0.188,38,110.66
2307,G2,392.5,0.5,48,110.66
2308,D3,392.5,0.5,48,110.66
2309,G3,392.5,0.5,48,110.66
2310,B-3,393.0,0.5,50,110.66
2311,D4,393.0,0.5,50,110.66
2312,F4,393.0,0.5,50,110.66
2313,C3,393.0,3.0,48,110.66
2314,G3,393.0,3.0,48,110.66
2315,B-3,393.5,0.375,48,110.66
2316,E-4,393.5,0.375,48,110.66
2317,G4,393.5,0.375,48,110.66
2318,B-3,394.0,0.5,52,110.66
2319,E-4,394.0,0.5,52,110.66
2320,G4,394.0,0.5,52,110.66
2321,D4,394.5,0.375,54,110.66
2322,F#4,394.5,0.375,54,110.66
2323,A4,394.5,0.375,54,110.66
2324,D4,395.0,0.5,60,110.66
2325,F#4,395.0,0.5,60,110.66
2326,A4,395.0,0.5,60,110.66
2327,D4,395.5,0.375,57,110.66
2328,G4,395.5,0.375,57,110.66
2329,B-4,395.5,0.375,57,110.66
2330,D4,396.0,0.5,66,110.66
2331,G4,396.0,0.5,66,110.66
2332,B-4,396.0,0.5,66,110.66
2333,D4,396.5,0.5,64,110.66
2334,G4,396.5,0.5,64,110.66
2335,B4,396.5,0.5,64,110.66
2336,D4,397.0,1.5,70,110.66
2337,G4,397.0,1.5,70,110.66
2338,B4,397.0,1.5,70,110.66
2339,F4,398.5,0.5,54,110.66
2340,B4,398.5,0.5,54,110.66
2341,F5,398.5,0.5,54,110.66
2342,E3,399.0,0.875,52,110.66
2343,E4,399.0,3.0,54,110.66
2344,C5,399.0,3.0,54,110.66
2345,E5,399.0,3.0,54,110.66
2346,F3,399.875,0.125,44,110.66
2347,E3,400.0,333/1000,58,110.66
2348,B2,400.333,333/1000,57,110.66
2349,E2,400.667,333/1000,54,110.66
2350,E3,401.0,1.0,59,110.66
2351,E5,402.0,0.875,54,110.66
2352,E3,402.0,0.875,52,110.66
2353,F5,402.875,0.125,44,110.66
2354,F3,402.875,0.125,44,110.66
2355,E5,403.0,333/1000,54,110.66
2356,E3,403.0,333/1000,59,110.66
2357,C5,403.333,333/1000,50,110.66
2358,G3,403.333,333/1000,55,110.66
2359,A4,403.667,26/125,47,110.66
2360,C4,403.667,333/1000,53,110.66
2361,D5,403.875,0.125,44,110.66
2362,C5,404.0,333/1000,54,110.66
2363,F4,404.0,1.0,49,110.66
2364,D4,404.0,1.0,49,110.66
2365,A4,404.333,333/1000,51,110.66
2366,E4,404.667,333/1000,47,110.66
2367,E4,405.0,1.0,45,110.66
2368,A4,405.0,0.5,50,110.66
2369,C5,405.0,0.5,50,110.66
2370,E4,405.0,1.0,48,110.66
2371,C4,405.0,1.0,48,110.66
2372,G#4,405.5,0.5,47,110.66
2373,B4,405.5,0.5,47,110.66
2374,G#4,406.0,0.5,51,110.66
2375,E4,406.0,0.5,51,110.66
2376,B4,406.0,0.5,51,110.66
2377,F#4,406.0,0.5,50,110.66
2378,D4,406.0,0.5,50,110.66
2379,F#4,406.5,0.5,46,110.66
2380,E4,406.5,0.5,46,110.66
2381,A4,406.5,0.5,46,110.66
2382,F#4,406.5,0.5,49,110.66
2383,D4,406.5,0.5,49,110.66
2384,E4,407.0,1.0,48,110.66
2385,G#4,407.0,1.0,48,110.66
2386,B4,407.0,1.0,48,110.66
2387,D4,407.0,1.0,50,110.66
2388,G3,407.0,1.0,50,110.66
2389,G4,407.0,1.0,50,110.66
2390,C5,408.0,0.5,54,110.66
2391,B3,408.0,0.875,61,110.66
2392,E4,408.0,1.0,45,110.66
2393,G4,408.0,1.0,45,110.66
2394,B4,408.5,0.5,51,110.66
2395,C4,408.875,0.125,51,110.66
2396,B3,409.0,333/1000,61,110.66
2397,E4,409.0,0.5,48,110.66
2398,G4,409.0,0.5,48,110.66
2399,B4,409.0,0.5,48,110.66
2400,G3,409.333,333/1000,59,110.66
2401,E4,409.5,0.5,47,110.66
2402,G4,409.5,0.5,47,110.66
2403,C5,409.5,0.5,47,110.66
2404,E3,409.667,0.25,56,110.66
2405,G4,410.0,1.0,45,110.66
2406,B4,410.0,0.5,54,110.66
2407,G4,410.0,0.5,76,110.66
2408,F5,410.5,0.5,53,110.66
2409,E4,410.5,0.188,64,110.66
2410,E5,411.0,0.875,54,110.66
2411,B3,411.0,0.875,62,110.66
2412,D5,411.875,0.125,43,110.66
2413,C4,411.875,0.125,53,110.66
2414,C5,412.0,333/1000,53,110.66
2415,B3,412.0,333/1000,64,110.66
2416,B4,412.333,333/1000,51,110.66
2417,G3,412.333,333/1000,61,110.66
2418,A4,412.667,333/1000,52,110.66
2419,E3,412.667,0.25,57,110.66
2420,B4,413.0,1.0,55,110.66
2421,G4,413.0,0.5,76,110.66
2422,E4,413.5,0.188,66,110.66
2423,B4,414.0,0.875,68,110.66
2424,B2,414.0,0.5,77,110.66
2425,B3,414.5,0.188,72,110.66
2426,C5,414.875,0.125,58,110.66
2427,E-4,414.875,0.125,55,110.66
2428,B4,415.0,333/1000,68,110.66
2429,E4,415.0,333/1000,73,110.66
2430,G4,415.333,333/1000,66,110.66
2431,F#4,415.333,333/1000,67,110.66
2432,E4,415.667,0.25,64,110.66
2433,G4,415.667,333/1000,78,110.66
2434,G5,416.0,0.5,82,110.66
2435,B2,416.0,0.5,79,110.66
2436,E5,416.5,0.188,72,110.66
2437,B3,416.5,0.188,73,110.66
2438,E-4,416.875,0.125,58,110.66
2439,B4,417.0,0.875,70,110.66
2440,E4,417.0,333/1000,75,110.66
2441,F#4,417.333,333/1000,68,110.66
2442,G4,417.667,333/1000,66,110.66
2443,C5,417.875,0.125,60,110.66
2444,B4,418.0,333/1000,71,110.66
2445,B2,418.0,0.5,80,110.66
2446,G4,418.333,333/1000,69,110.66
2447,B3,418.5,0.188,75,110.66
2448,E4,418.667,0.25,66,110.66
2449,G5,419.0,0.5,85,110.66
2450,B1,419.0,0.5,81,110.66
2451,E5,419.5,0.188,74,110.66
2452,B2,419.5,0.188,70,110.66
2453,B5,420.0,0.5,90,110.66
2454,E-5,420.0,0.5,90,110.66
2455,F#5,420.0,0.5,90,110.66
2456,B4,420.5,0.188,87,110.66
2457,A5,420.875,0.125,70,110.66
2458,G5,421.0,333/1000,87,110.66
2459,F#5,421.333,333/1000,83,110.66
2460,E5,421.667,333/1000,78,110.66
2461,B5,422.0,0.5,93,110.66
2462,E-5,422.0,0.5,93,110.66
2463,F#5,422.0,0.5,93,110.66
2464,B4,422.5,0.188,86,110.66
2465,A5,422.875,0.125,72,110.66
2466,G5,423.0,333/1000,89,110.66
2467,E4,423.0,0.5,36,110.66
2468,F#5,423.333,333/1000,85,110.66
2469,G4,423.5,0.25,25,110.66
2470,E5,423.667,333/1000,82,110.66
2471,E4,424.0,0.5,34,110.66
2472,B5,424.0,0.5,95,110.66
2473,E-5,424.0,0.5,95,110.66
2474,F#5,424.0,0.5,95,110.66
2475,B4,424.5,0.188,89,110.66
2476,G4,424.5,0.25,25,110.66
2477,B6,425.0,0.5,115,110.66
2478,E4,425.0,0.5,33,110.66
2479,B5,425.5,0.188,93,110.66
2480,G4,425.5,0.25,26,110.66
2481,E4,426.0,0.5,33,110.66
2482,G4,426.5,0.25,24,110.66
2483,E4,427.0,0.5,31,110.66
2484,G4,427.5,0.25,23,110.66
2485,E4,428.0,0.5,30,110.66
2486,G4,428.5,0.25,21,110.66
2487,G5,429.0,0.5,45,110.66
2488,G3,429.0,0.875,48,110.66
2489,E5,429.5,0.25,30,110.66
2490,A3,429.875,0.125,40,110.66
2491,G5,430.0,0.5,43,110.66
2492,G3,430.0,333/1000,48,110.66
2493,E3,430.333,333/1000,45,110.66
2494,E5,430.5,0.25,31,110.66
2495,C3,430.667,333/1000,39,110.66
2496,G5,431.0,0.5,42,110.66
2497,G3,431.0,0.75,48,110.66
2498,E5,431.5,0.25,31,110.66
2499,E4,431.75,0.25,45,110.66
2500,G5,432.0,0.5,41,110.66
2501,E4,432.0,2.0,48,110.66
2502,E5,432.5,0.25,29,110.66
2503,G5,433.0,0.5,38,110.66
2504,E5,433.5,0.25,27,110.66
2505,G5,434.0,0.5,37,110.66
2506,C4,434.0,0.5,36,110.66
2507,E5,434.5,0.25,26,110.66
2508,G5,435.0,0.5,36,110.66
2509,E5,435.0,0.5,36,110.66
2510,G4,435.5,0.25,27,110.66
2511,E5,436.0,0.5,36,110.66
2512,G5,436.0,0.5,36,110.66
2513,G4,436.5,0.25,27,110.66
2514,E5,437.0,0.5,36,110.66
2515,G5,437.0,0.5,36,110.66
2516,G4,437.5,0.25,27,110.66
2517,G3,438.0,0.875,48,110.66
2518,E5,438.0,0.5,38,110.66
2519,G5,438.0,0.5,38,110.66
2520,G4,438.5,0.25,29,110.66
2521,A3,438.875,0.125,40,110.66
2522,G3,439.0,333/1000,48,110.66
2523,E5,439.0,0.5,38,110.66
2524,G5,439.0,0.5,38,110.66
2525,E3,439.333,333/1000,45,110.66
2526,G4,439.5,0.25,27,110.66
2527,C3,439.667,333/1000,41,110.66
2528,G3,440.0,0.75,48,110.66
2529,E5,440.0,0.5,34,110.66
2530,G5,440.0,0.5,34,110.66
2531,G4,440.5,0.25,26,110.66
2532,E4,440.75,0.25,45,110.66
2533,G4,441.0,0.875,47,110.66
2534,E4,441.0,2.0,48,110.66
2535,A4,441.875,0.125,44,110.66
2536,G4,442.0,333/1000,52,110.66
2537,E4,442.333,333/1000,49,110.66
2538,C4,442.667,333/1000,42,110.66
2539,G4,443.0,0.75,52,110.66
2540,C4,443.0,0.5,38,110.66
2541,E5,443.75,0.25,48,110.66
2542,E5,444.0,2.0,52,110.66
2543,G2,444.0,0.25,61,110.66
2544,A2,444.5,0.25,55,110.66
2545,B2,444.75,0.25,55,110.66
2546,C3,445.0,0.188,61,110.66
2547,G2,445.5,0.188,53,110.66
2548,C5,446.0,0.5,35,110.66
2549,C3,446.0,0.25,61,110.66
2550,G5,447.0,0.875,70,110.66
2551,E-3,447.0,0.25,38,110.66
2552,G3,447.0,0.25,38,110.66
2553,D3,447.5,0.25,35,110.66
2554,F3,447.5,0.25,35,110.66
2555,G3,447.5,0.25,35,110.66
2556,F5,447.875,0.125,51,110.66
2557,E5,448.0,333/1000,61,110.66
2558,C3,448.0,0.188,38,110.66
2559,E-3,448.0,0.188,38,110.66
2560,G3,448.0,0.188,38,110.66
2561,C5,448.333,333/1000,57,110.66
2562,B2,448.5,0.188,35,110.66
2563,D3,448.5,0.188,35,110.66
2564,G3,448.5,0.188,35,110.66
2565,G4,448.667,333/1000,55,110.66
2566,C5,449.0,333/1000,63,110.66
2567,C3,449.0,0.188,42,110.66
2568,E-3,449.0,0.188,42,110.66
2569,G3,449.0,0.188,42,110.66
2570,E5,449.333,333/1000,59,110.66
2571,D3,449.5,0.25,49,110.66
2572,F3,449.5,0.25,49,110.66
2573,B-3,449.5,0.25,49,110.66
2574,G5,449.667,333/1000,56,110.66
2575,G4,450.0,0.25,70,110.66
2576,E5,450.0,0.25,70,110.66
2577,G5,450.0,0.25,70,110.66
2578,F3,450.0,0.25,52,110.66
2579,G#3,450.0,0.25,52,110.66
2580,B-3,450.0,0.25,52,110.66
2581,G4,450.5,0.25,66,110.66
2582,D5,450.5,0.25,66,110.66
2583,F5,450.5,0.25,66,110.66
2584,E-3,450.5,0.25,49,110.66
2585,G3,450.5,0.25,49,110.66
2586,B-3,450.5,0.25,49,110.66
2587,G4,451.0,0.188,70,110.66
2588,C5,451.0,0.188,70,110.66
2589,E5,451.0,0.188,70,110.66
2590,E-3,451.0,0.25,53,110.66
2591,G3,451.0,0.25,53,110.66
2592,B-3,451.0,0.25,53,110.66
2593,G4,451.5,0.188,63,110.66
2594,B4,451.5,0.188,63,110.66
2595,D5,451.5,0.188,63,110.66
2596,F#3,451.5,0.25,51,110.66
2597,A3,451.5,0.25,51,110.66
2598,D4,451.5,0.25,51,110.66
2599,G4,452.0,0.25,70,110.66
2600,C5,452.0,0.25,70,110.66
2601,E5,452.0,0.25,70,110.66
2602,A3,452.0,0.25,57,110.66
2603,C4,452.0,0.25,57,110.66
2604,D4,452.0,0.25,57,110.66
2605,G3,452.5,0.25,55,110.66
2606,B-3,452.5,0.25,55,110.66
2607,D4,452.5,0.25,55,110.66
2608,G4,453.0,0.5,45,110.66
2609,G3,453.0,0.25,62,110.66
2610,B-3,453.0,0.25,62,110.66
2611,D4,453.0,0.25,62,110.66
2612,A4,453.5,0.25,41,110.66
2613,G2,453.5,0.25,49,110.66
2614,D3,453.5,0.25,49,110.66
2615,B3,453.5,0.25,49,110.66
2616,B4,453.75,0.25,41,110.66
2617,C5,454.0,0.188,45,110.66
2618,G2,454.0,1.5,47,110.66
2619,D3,454.0,1.5,47,110.66
2620,B3,454.0,1.5,47,110.66
2621,G4,454.5,0.188,39,110.66
2622,C5,455.0,0.188,48,110.66
2623,B-4,455.5,0.25,65,110.66
2624,B-5,455.5,0.25,65,110.66
2625,F4,455.5,0.5,37,110.66
2626,G4,455.5,0.5,37,110.66
2627,G3,455.5,0.5,37,110.66
2628,B-4,456.0,0.25,67,110.66
2629,B-5,456.0,0.25,67,110.66
2630,G4,456.0,3.0,35,110.66
2631,E4,456.0,3.0,35,110.66
2632,C4,456.0,3.0,35,110.66
2633,E-6,456.5,0.25,70,110.66
2634,E-5,456.5,0.25,70,110.66
2635,E-6,457.0,0.25,73,110.66
2636,E-5,457.0,0.25,73,110.66
2637,D6,457.5,0.25,71,110.66
2638,D5,457.5,0.25,71,110.66
2639,D5,458.0,0.25,78,110.66
2640,D6,458.0,0.25,78,110.66
2641,G6,458.5,0.25,77,110.66
2642,G5,458.5,0.25,77,110.66
2643,G5,459.0,0.25,84,110.66
2644,G6,459.0,0.25,84,110.66
2645,F6,459.5,0.25,70,110.66
2646,F5,459.5,0.25,70,110.66
2647,F6,460.0,1.5,66,110.66
2648,F5,460.0,1.5,66,110.66
2649,B4,461.5,0.5,48,110.66
2650,B5,461.5,0.5,48,110.66
2651,C6,462.0,3.0,45,110.66
2652,C5,462.0,3.0,45,110.66
