,note_name,start_time,duration,velocity,tempo
0,D5,0.0,1.0,50,91.09
1,B-2,0.0,0.25,35,91.09
2,D4,0.5,0.5,24,91.09
3,D5,1.0,9/20,45,91.09
4,F3,1.0,0.5,24,91.09
5,B-3,1.0,0.5,24,91.09
6,D5,1.5,9/20,45,91.09
7,D4,1.5,0.5,25,91.09
8,B-4,2.0,1.0,50,91.09
9,D3,2.0,0.25,35,91.09
10,F4,2.5,0.5,27,91.09
11,B-4,3.0,1.0,45,91.09
12,B-3,3.0,0.5,28,91.09
13,F3,3.0,0.5,28,91.09
14,F4,3.5,0.5,27,91.09
15,A4,4.0,1.0,50,91.09
16,C3,4.0,0.25,35,91.09
17,E-4,4.5,0.5,26,91.09
18,A4,5.0,0.5,47,91.09
19,F3,5.0,0.5,26,91.09
20,A3,5.0,0.5,26,91.09
21,A4,5.5,0.375,47,91.09
22,E-4,5.5,0.5,26,91.09
23,A4,5.875,0.125,40,91.09
24,E-5,6.0,2.0,50,91.09
25,F2,6.0,0.25,35,91.09
26,C4,6.5,0.5,23,91.09
27,A3,7.0,0.5,21,91.09
28,F3,7.0,0.5,21,91.09
29,C4,7.5,0.5,23,91.09
30,D5,8.0,1.0,50,91.09
31,B-2,8.0,0.25,35,91.09
32,D4,8.5,0.5,24,91.09
33,D5,9.0,9/20,45,91.09
34,F3,9.0,0.5,24,91.09
35,B-3,9.0,0.5,24,91.09
36,D5,9.5,9/20,45,91.09
37,D4,9.5,0.5,25,91.09
38,D5,10.0,0.5,50,91.09
39,E-2,10.0,0.25,35,91.09
40,G4,10.5,0.25,50,91.09
41,C4,10.5,0.5,27,91.09
42,G4,11.0,1.0,45,91.09
43,G3,11.0,0.5,27,91.09
44,B-3,11.0,0.5,27,91.09
45,E-3,11.0,0.5,27,91.09
46,C4,11.5,0.5,27,91.09
47,C5,12.0,0.5,50,91.09
48,E2,12.0,0.25,35,91.09
49,B4,12.5,0.25,44,91.09
50,C4,12.5,0.5,26,91.09
51,C5,12.75,0.25,44,91.09
52,B4,13.0,0.25,44,91.09
53,B-3,13.0,0.5,26,91.09
54,G3,13.0,0.5,26,91.09
55,E3,13.0,0.5,26,91.09
56,C5,13.25,0.25,47,91.09
57,D5,13.5,0.25,49,91.09
58,C4,13.5,0.5,26,91.09
59,C5,13.75,0.25,44,91.09
60,F4,14.0,2.0,50,91.09
61,F2,14.0,0.25,35,91.09
62,F3,14.5,1.5,20,91.09
63,A3,14.5,0.5,25,91.09
64,C4,14.512,0.5,32,91.09
65,D4,15.0,0.5,31,91.09
66,B-3,15.0,0.5,23,91.09
67,E-4,15.5,0.5,29,91.09
68,C4,15.5,0.5,21,91.09
69,B-2,16.0,0.5,35,91.09
70,D6,16.0,1.0,46,91.09
71,D5,16.0,1.0,46,91.09
72,D4,16.5,0.5,24,91.09
73,D6,17.0,9/20,42,91.09
74,D5,17.0,9/20,42,91.09
75,B-3,17.0,0.5,24,91.09
76,F3,17.0,0.5,24,91.09
77,D4,17.5,0.5,25,91.09
78,D6,17.5,9/20,42,91.09
79,D5,17.5,9/20,42,91.09
80,D3,18.0,0.5,35,91.09
81,B-5,18.0,1.0,46,91.09
82,B-4,18.0,1.0,46,91.09
83,F4,18.5,0.5,27,91.09
84,B-5,19.0,1.0,42,91.09
85,B-4,19.0,1.0,42,91.09
86,F3,19.0,0.5,28,91.09
87,B-3,19.0,0.5,28,91.09
88,F4,19.5,0.5,27,91.09
89,C3,20.0,0.5,35,91.09
90,A4,20.0,1.0,46,91.09
91,A5,20.0,1.0,46,91.09
92,E-4,20.5,0.5,26,91.09
93,A5,21.0,0.5,43,91.09
94,A4,21.0,0.5,43,91.09
95,A3,21.0,0.5,26,91.09
96,F3,21.0,0.5,26,91.09
97,E-4,21.5,0.5,26,91.09
98,A5,21.5,0.375,43,91.09
99,A4,21.5,0.375,43,91.09
100,A5,21.875,0.125,40,91.09
101,F2,22.0,0.5,35,91.09
102,E-5,22.0,2.0,46,91.09
103,E-6,22.0,2.0,46,91.09
104,C4,22.5,0.5,23,91.09
105,A3,23.0,0.5,21,91.09
106,F3,23.0,0.5,21,91.09
107,C4,23.5,0.5,23,91.09
108,B-2,24.0,0.5,35,91.09
109,D5,24.0,1.0,46,91.09
110,D6,24.0,1.0,46,91.09
111,D4,24.5,0.5,24,91.09
112,D6,25.0,9/20,44,91.09
113,D5,25.0,9/20,44,91.09
114,F3,25.0,0.5,24,91.09
115,B-3,25.0,0.5,24,91.09
116,D4,25.5,0.5,25,91.09
117,D6,25.5,9/20,48,91.09
118,D5,25.5,9/20,48,91.09
119,E2,26.0,0.5,35,91.09
120,G6,26.0,1.0,52,91.09
121,G5,26.0,1.0,52,91.09
122,C#4,26.5,0.5,27,91.09
123,G5,27.0,0.5,38,91.09
124,G6,27.0,1.0,45,91.09
125,E3,27.0,0.5,27,91.09
126,G3,27.0,0.5,27,91.09
127,B-3,27.0,0.5,27,91.09
128,B-5,27.5,0.5,43,91.09
129,C#4,27.5,0.5,27,91.09
130,C6,28.0,1.5,39,91.09
131,B-5,28.0,0.5,47,91.09
132,B-3,28.0,0.5,35,91.09
133,F3,28.0,1.5,32,91.09
134,C4,28.0,1.5,32,91.09
135,A5,28.5,0.25,38,91.09
136,A3,28.5,0.25,24,91.09
137,G5,28.75,0.25,38,91.09
138,G3,28.75,0.25,24,91.09
139,A5,29.0,0.5,43,91.09
140,A3,29.0,0.5,31,91.09
141,E-5,29.5,0.5,39,91.09
142,A5,29.5,0.5,39,91.09
143,F6,29.5,0.5,39,91.09
144,F3,29.5,0.5,26,91.09
145,C4,29.5,0.5,26,91.09
146,B-2,30.0,0.25,30,91.09
147,B-5,30.0,2.0,40,91.09
148,D5,30.0,2.0,40,91.09
149,B-3,30.5,0.5,25,91.09
150,F3,31.0,0.5,20,91.09
151,D3,31.0,0.5,20,91.09
152,B-3,31.5,0.5,21,91.09
153,D5,32.0,1.0,50,91.09
154,B-2,32.0,0.25,35,91.09
155,D4,32.5,0.5,24,91.09
156,D5,33.0,9/20,45,91.09
157,B-3,33.0,0.5,24,91.09
158,F3,33.0,0.5,24,91.09
159,D5,33.5,9/20,45,91.09
160,D4,33.5,0.5,25,91.09
161,B-4,34.0,1.0,50,91.09
162,D3,34.0,0.25,35,91.09
163,F4,34.5,0.5,27,91.09
164,B-4,35.0,1.0,45,91.09
165,B-3,35.0,0.5,28,91.09
166,F3,35.0,0.5,28,91.09
167,F4,35.5,0.5,27,91.09
168,A4,36.0,1.0,50,91.09
169,C3,36.0,0.25,35,91.09
170,E-4,36.5,0.5,26,91.09
171,A4,37.0,0.5,47,91.09
172,A3,37.0,0.5,26,91.09
173,F3,37.0,0.5,26,91.09
174,A4,37.5,0.375,47,91.09
175,E-4,37.5,0.5,26,91.09
176,A4,37.875,0.125,40,91.09
177,E-5,38.0,2.0,50,91.09
178,F2,38.0,0.25,35,91.09
179,C4,38.5,0.5,23,91.09
180,F3,39.0,0.5,21,91.09
181,A3,39.0,0.5,21,91.09
182,C4,39.5,0.5,23,91.09
183,D5,40.0,1.0,50,91.09
184,B-2,40.0,0.25,35,91.09
185,D4,40.5,0.5,24,91.09
186,D5,41.0,9/20,45,91.09
187,F3,41.0,0.5,24,91.09
188,B-3,41.0,0.5,24,91.09
189,D5,41.5,9/20,45,91.09
190,D4,41.5,0.5,25,91.09
191,D5,42.0,0.5,50,91.09
192,E-2,42.0,0.25,35,91.09
193,G4,42.5,0.25,50,91.09
194,C4,42.5,0.5,27,91.09
195,G4,43.0,1.0,45,91.09
196,E-3,43.0,0.5,27,91.09
197,B-3,43.0,0.5,27,91.09
198,G3,43.0,0.5,27,91.09
199,C4,43.5,0.5,27,91.09
200,C5,44.0,0.5,50,91.09
201,E2,44.0,0.25,35,91.09
202,B4,44.5,0.25,44,91.09
203,C4,44.5,0.5,26,91.09
204,C5,44.75,0.25,44,91.09
205,B4,45.0,0.25,44,91.09
206,B-3,45.0,0.5,26,91.09
207,G3,45.0,0.5,26,91.09
208,E3,45.0,0.5,26,91.09
209,C5,45.25,0.25,47,91.09
210,D5,45.5,0.25,49,91.09
211,C4,45.5,0.5,26,91.09
212,C5,45.75,0.25,44,91.09
213,F4,46.0,2.0,50,91.09
214,F2,46.0,0.25,35,91.09
215,F3,46.5,1.5,20,91.09
216,A3,46.5,0.5,25,91.09
217,C4,46.513,0.5,32,91.09
218,D4,47.0,0.5,31,91.09
219,B-3,47.0,0.5,23,91.09
220,E-4,47.5,0.5,29,91.09
221,C4,47.5,0.5,21,91.09
222,B-2,48.0,0.5,35,91.09
223,D5,48.0,1.0,46,91.09
224,D6,48.0,1.0,46,91.09
225,D4,48.5,0.5,24,91.09
226,D6,49.0,9/20,42,91.09
227,D5,49.0,9/20,42,91.09
228,F3,49.0,0.5,24,91.09
229,B-3,49.0,0.5,24,91.09
230,D4,49.5,0.5,25,91.09
231,D6,49.5,9/20,42,91.09
232,D5,49.5,9/20,42,91.09
233,D3,50.0,0.5,35,91.09
234,B-5,50.0,1.0,46,91.09
235,B-4,50.0,1.0,46,91.09
236,F4,50.5,0.5,27,91.09
237,B-4,51.0,1.0,42,91.09
238,B-5,51.0,1.0,42,91.09
239,F3,51.0,0.5,28,91.09
240,B-3,51.0,0.5,28,91.09
241,F4,51.5,0.5,27,91.09
242,C3,52.0,0.5,35,91.09
243,A4,52.0,1.0,46,91.09
244,A5,52.0,1.0,46,91.09
245,E-4,52.5,0.5,26,91.09
246,A5,53.0,0.5,43,91.09
247,A4,53.0,0.5,43,91.09
248,F3,53.0,0.5,26,91.09
249,A3,53.0,0.5,26,91.09
250,E-4,53.5,0.5,26,91.09
251,A4,53.5,0.375,43,91.09
252,A5,53.5,0.375,43,91.09
253,A5,53.875,0.125,40,91.09
254,F2,54.0,0.5,35,91.09
255,E-5,54.0,2.0,46,91.09
256,E-6,54.0,2.0,46,91.09
257,C4,54.5,0.5,23,91.09
258,A3,55.0,0.5,21,91.09
259,F3,55.0,0.5,21,91.09
260,C4,55.5,0.5,23,91.09
261,B-2,56.0,0.5,35,91.09
262,D5,56.0,1.0,46,91.09
263,D6,56.0,1.0,46,91.09
264,D4,56.5,0.5,24,91.09
265,D5,57.0,9/20,44,91.09
266,D6,57.0,9/20,44,91.09
267,F3,57.0,0.5,24,91.09
268,B-3,57.0,0.5,24,91.09
269,D4,57.5,0.5,25,91.09
270,D6,57.5,9/20,48,91.09
271,D5,57.5,9/20,48,91.09
272,E2,58.0,0.5,35,91.09
273,G5,58.0,1.0,52,91.09
274,G6,58.0,1.0,52,91.09
275,C#4,58.5,0.5,27,91.09
276,G5,59.0,0.5,38,91.09
277,G6,59.0,1.0,45,91.09
278,B-3,59.0,0.5,27,91.09
279,G3,59.0,0.5,27,91.09
280,E3,59.0,0.5,27,91.09
281,B-5,59.5,0.5,44,91.09
282,C#4,59.5,0.5,27,91.09
283,C6,60.0,1.5,39,91.09
284,B-5,60.0,0.5,47,91.09
285,B-3,60.0,0.5,35,91.09
286,C4,60.0,1.5,32,91.09
287,F3,60.0,1.5,32,91.09
288,A5,60.5,0.25,38,91.09
289,A3,60.5,0.25,24,91.09
290,G5,60.75,0.25,38,91.09
291,G3,60.75,0.25,24,91.09
292,A5,61.0,0.5,43,91.09
293,A3,61.0,0.5,31,91.09
294,F6,61.5,0.5,39,91.09
295,E-5,61.5,0.5,39,91.09
296,A5,61.5,0.5,39,91.09
297,F3,61.5,0.5,26,91.09
298,C4,61.5,0.5,26,91.09
299,B-2,62.0,0.25,30,91.09
300,B-5,62.0,2.0,40,91.09
301,D5,62.0,2.0,40,91.09
302,B-3,62.5,0.5,25,91.09
303,D3,63.0,0.5,20,91.09
304,F3,63.0,0.5,20,91.09
305,B-3,63.5,0.5,21,91.09
306,A4,64.0,1.0,53,91.09
307,D5,64.0,1.0,53,91.09
308,F#4,64.0,1.0,53,91.09
309,D3,64.0,0.5,42,91.09
310,D2,64.0,0.5,42,91.09
311,D4,64.5,0.5,28,91.09
312,D5,65.0,9/20,48,91.09
313,A4,65.0,9/20,48,91.09
314,F#4,65.0,9/20,48,91.09
315,A3,65.0,0.5,29,91.09
316,F#3,65.0,0.5,29,91.09
317,D4,65.5,0.5,30,91.09
318,A4,65.5,9/20,48,91.09
319,F#4,65.5,9/20,48,91.09
320,D5,65.5,9/20,48,91.09
321,G2,66.0,0.5,42,91.09
322,D4,66.0,1.0,53,91.09
323,G4,66.0,1.0,53,91.09
324,B-4,66.0,1.0,53,91.09
325,B-3,66.5,0.5,32,91.09
326,D4,67.0,1.0,48,91.09
327,G4,67.0,1.0,48,91.09
328,B-4,67.0,1.0,48,91.09
329,G3,67.0,0.5,33,91.09
330,D3,67.0,0.5,33,91.09
331,B-3,67.5,0.5,32,91.09
332,B-4,68.0,0.75,60,91.09
333,G2,68.0,0.5,42,91.09
334,G4,68.0,1.0,50,91.09
335,D4,68.0,1.0,50,91.09
336,B-3,68.5,0.5,31,91.09
337,C5,68.75,0.125,60,91.09
338,B-4,68.875,0.125,60,91.09
339,D4,69.0,0.5,51,91.09
340,A4,69.0,0.5,51,91.09
341,G3,69.0,0.5,31,91.09
342,D3,69.0,0.5,31,91.09
343,B-3,69.5,0.5,31,91.09
344,G4,69.5,0.5,51,91.09
345,D4,69.5,0.5,51,91.09
346,C5,70.0,1.5,60,91.09
347,C2,70.0,0.5,42,91.09
348,E4,70.0,2.0,50,91.09
349,G4,70.0,2.0,50,91.09
350,G3,70.5,0.5,27,91.09
351,C3,71.0,0.5,24,91.09
352,E3,71.0,0.5,24,91.09
353,B-4,71.5,0.5,60,91.09
354,G3,71.5,0.5,27,91.09
355,F2,72.0,0.5,42,91.09
356,F4,72.0,1.0,53,91.09
357,A4,72.0,1.0,53,91.09
358,C4,72.0,1.0,53,91.09
359,A3,72.5,0.5,28,91.09
360,F4,73.0,9/20,46,91.09
361,C4,73.0,9/20,46,91.09
362,A4,73.0,9/20,46,91.09
363,C3,73.0,0.5,28,91.09
364,F3,73.0,0.5,28,91.09
365,A3,73.5,0.5,28,91.09
366,C4,73.5,9/20,45,91.09
367,F4,73.5,9/20,45,91.09
368,A4,73.5,9/20,45,91.09
369,B-1,74.0,0.5,38,91.09
370,G4,74.0,1.0,49,91.09
371,D4,74.0,1.0,49,91.09
372,F4,74.0,1.0,49,91.09
373,G3,74.5,0.5,29,91.09
374,F4,75.0,1.0,42,91.09
375,D4,75.0,1.0,42,91.09
376,G4,75.0,1.0,42,91.09
377,D3,75.0,0.5,28,91.09
378,F3,75.0,0.5,28,91.09
379,G3,75.5,0.5,27,91.09
380,G4,76.0,0.5,50,91.09
381,C4,76.0,2.0,42,91.09
382,E4,76.0,1.0,42,91.09
383,C2,76.0,0.5,35,91.09
384,A4,76.5,0.25,44,91.09
385,C3,76.5,1.5,26,91.09
386,G3,76.5,0.5,26,91.09
387,B-4,76.75,0.25,44,91.09
388,A3,77.0,0.5,29,91.09
389,F4,77.0,0.5,40,91.09
390,A4,77.0,0.5,40,91.09
391,B-3,77.5,0.5,26,91.09
392,G4,77.5,0.5,45,91.09
393,E4,77.5,0.5,45,91.09
394,F4,78.0,2.0,50,91.09
395,F2,78.0,0.5,35,91.09
396,C4,78.5,0.5,32,91.09
397,F3,78.5,1.5,20,91.09
398,A3,78.5,0.5,25,91.09
399,D4,79.0,0.5,31,91.09
400,B-3,79.0,0.5,23,91.09
401,E-4,79.5,0.5,29,91.09
402,C4,79.5,0.5,21,91.09
403,B-2,80.0,0.5,35,91.09
404,D5,80.0,1.0,46,91.09
405,D6,80.0,1.0,46,91.09
406,D4,80.5,0.5,24,91.09
407,D5,81.0,9/20,42,91.09
408,D6,81.0,9/20,42,91.09
409,B-3,81.0,0.5,24,91.09
410,F3,81.0,0.5,24,91.09
411,D4,81.5,0.5,25,91.09
412,D5,81.5,9/20,42,91.09
413,D6,81.5,9/20,42,91.09
414,D3,82.0,0.5,35,91.09
415,B-5,82.0,1.0,46,91.09
416,B-4,82.0,1.0,46,91.09
417,F4,82.5,0.5,27,91.09
418,B-5,83.0,1.0,42,91.09
419,B-4,83.0,1.0,42,91.09
420,G#3,83.0,0.5,28,91.09
421,B-3,83.0,0.5,28,91.09
422,F4,83.5,0.5,27,91.09
423,B-5,84.0,0.75,50,91.09
424,C3,84.0,0.5,35,91.09
425,E-4,84.5,0.5,26,91.09
426,C6,84.75,0.125,41,91.09
427,B-5,84.875,0.125,40,91.09
428,A5,85.0,0.25,47,91.09
429,G3,85.0,0.5,26,91.09
430,B-3,85.0,0.5,26,91.09
431,B-5,85.25,0.125,47,91.09
432,C6,85.375,0.062,40,91.09
433,D6,85.438,0.062,40,91.09
434,C6,85.5,0.25,47,91.09
435,E-4,85.5,0.5,26,91.09
436,B-5,85.75,0.25,47,91.09
437,E3,86.0,0.5,35,91.09
438,G5,86.0,2.0,46,91.09
439,G6,86.0,2.0,46,91.09
440,G4,86.5,0.5,23,91.09
441,C#4,87.0,0.5,21,91.09
442,B-3,87.0,0.5,21,91.09
443,G4,87.5,0.5,23,91.09
444,G2,88.0,0.5,35,91.09
445,C5,88.0,1.0,45,91.09
446,E4,88.0,1.0,45,91.09
447,B-4,88.0,1.0,45,91.09
448,C4,88.5,0.5,24,91.09
449,B-4,89.0,9/20,43,91.09
450,E4,89.0,9/20,43,91.09
451,C5,89.0,9/20,43,91.09
452,G3,89.0,0.5,24,91.09
453,B-3,89.0,0.5,24,91.09
454,C4,89.5,0.5,25,91.09
455,B-4,89.5,9/20,47,91.09
456,C5,89.5,9/20,47,91.09
457,E4,89.5,9/20,47,91.09
458,F2,90.0,0.5,35,91.09
459,B-4,90.0,1.0,50,91.09
460,F5,90.0,1.0,50,91.09
461,D5,90.0,1.0,50,91.09
462,F4,90.0,1.0,50,91.09
463,D4,90.5,0.5,27,91.09
464,F4,91.0,1.0,41,91.09
465,B-4,91.0,1.0,41,91.09
466,D5,91.0,1.0,41,91.09
467,F5,91.0,1.0,41,91.09
468,F3,91.0,0.5,28,91.09
469,B-3,91.0,0.5,28,91.09
470,D4,91.5,0.5,27,91.09
471,C5,92.0,1.5,39,91.09
472,B-4,92.0,0.5,47,91.09
473,F2,92.0,0.5,35,91.09
474,A4,92.5,0.25,38,91.09
475,C4,92.5,0.5,24,91.09
476,G4,92.75,0.25,38,91.09
477,A4,93.0,0.5,43,91.09
478,F3,93.0,0.5,31,91.09
479,C4,93.5,0.5,26,91.09
480,E-4,93.5,0.5,39,91.09
481,A4,93.5,0.5,39,91.09
482,F5,93.5,0.5,39,91.09
483,B-2,94.0,0.5,30,91.09
484,B-4,94.0,2.0,40,91.09
485,D4,94.0,2.0,40,91.09
486,B-3,94.5,0.5,25,91.09
487,F3,95.0,0.5,23,91.09
488,D3,95.0,0.5,23,91.09
489,B-3,95.5,0.5,21,91.09
490,A4,96.0,1.0,53,91.09
491,D5,96.0,1.0,53,91.09
492,F#4,96.0,1.0,53,91.09
493,D2,96.0,0.5,42,91.09
494,D3,96.0,0.5,42,91.09
495,D4,96.5,0.5,28,91.09
496,D5,97.0,9/20,48,91.09
497,F#4,97.0,9/20,48,91.09
498,A4,97.0,9/20,48,91.09
499,F#3,97.0,0.5,29,91.09
500,A3,97.0,0.5,29,91.09
501,D4,97.5,0.5,30,91.09
502,D5,97.5,9/20,48,91.09
503,F#4,97.5,9/20,48,91.09
504,A4,97.5,9/20,48,91.09
505,G2,98.0,0.5,42,91.09
506,B-4,98.0,1.0,53,91.09
507,G4,98.0,1.0,53,91.09
508,D4,98.0,1.0,53,91.09
509,B-3,98.5,0.5,32,91.09
510,G4,99.0,1.0,48,91.09
511,B-4,99.0,1.0,48,91.09
512,D4,99.0,1.0,48,91.09
513,D3,99.0,0.5,33,91.09
514,G3,99.0,0.5,33,91.09
515,B-3,99.5,0.5,32,91.09
516,B-4,100.0,0.75,60,91.09
517,G2,100.0,0.5,42,91.09
518,G4,100.0,1.0,50,91.09
519,D4,100.0,1.0,50,91.09
520,B-3,100.5,0.5,31,91.09
521,C5,100.75,0.125,60,91.09
522,B-4,100.875,0.125,60,91.09
523,A4,101.0,0.5,51,91.09
524,D4,101.0,0.5,51,91.09
525,G3,101.0,0.5,31,91.09
526,D3,101.0,0.5,31,91.09
527,B-3,101.5,0.5,31,91.09
528,G4,101.5,0.5,51,91.09
529,D4,101.5,0.5,51,91.09
530,C5,102.0,1.5,60,91.09
531,C2,102.0,0.5,42,91.09
532,E4,102.0,2.0,50,91.09
533,G4,102.0,2.0,50,91.09
534,G3,102.5,0.5,27,91.09
535,E3,103.0,0.5,24,91.09
536,C3,103.0,0.5,24,91.09
537,B-4,103.5,0.5,60,91.09
538,G3,103.5,0.5,27,91.09
539,F2,104.0,0.5,42,91.09
540,F4,104.0,1.0,53,91.09
541,C4,104.0,1.0,53,91.09
542,A4,104.0,1.0,53,91.09
543,A3,104.5,0.5,28,91.09
544,C4,105.0,9/20,46,91.09
545,F4,105.0,9/20,46,91.09
546,A4,105.0,9/20,46,91.09
547,F3,105.0,0.5,28,91.09
548,C3,105.0,0.5,28,91.09
549,A3,105.5,0.5,28,91.09
550,A4,105.5,9/20,45,91.09
551,C4,105.5,9/20,45,91.09
552,F4,105.5,9/20,45,91.09
553,B-1,106.0,0.5,38,91.09
554,G4,106.0,1.0,49,91.09
555,D4,106.0,1.0,49,91.09
556,F4,106.0,1.0,49,91.09
557,G3,106.5,0.5,29,91.09
558,F4,107.0,1.0,42,91.09
559,G4,107.0,1.0,42,91.09
560,D4,107.0,1.0,42,91.09
561,F3,107.0,0.5,28,91.09
562,D3,107.0,0.5,28,91.09
563,G3,107.5,0.5,27,91.09
564,C4,108.0,2.0,42,91.09
565,E4,108.0,1.0,42,91.09
566,G4,108.0,0.5,50,91.09
567,C2,108.0,0.5,35,91.09
568,A4,108.5,0.25,44,91.09
569,G3,108.5,0.5,26,91.09
570,C3,108.5,1.5,26,91.09
571,B-4,108.75,0.25,44,91.09
572,A3,109.0,0.5,29,91.09
573,A4,109.0,0.5,40,91.09
574,F4,109.0,0.5,40,91.09
575,B-3,109.5,0.5,26,91.09
576,G4,109.5,0.5,45,91.09
577,E4,109.5,0.5,45,91.09
578,F4,110.0,2.0,50,91.09
579,F2,110.0,0.5,35,91.09
580,C4,110.5,0.5,32,91.09
581,F3,110.5,1.5,20,91.09
582,A3,110.5,0.5,25,91.09
583,D4,111.0,0.5,31,91.09
584,B-3,111.0,0.5,23,91.09
585,E-4,111.5,0.5,29,91.09
586,C4,111.5,0.5,21,91.09
587,B-2,112.0,0.5,35,91.09
588,D5,112.0,1.0,46,91.09
589,D6,112.0,1.0,46,91.09
590,D4,112.5,0.5,24,91.09
591,D6,113.0,9/20,42,91.09
592,D5,113.0,9/20,42,91.09
593,B-3,113.0,0.5,24,91.09
594,F3,113.0,0.5,24,91.09
595,D4,113.5,0.5,25,91.09
596,D5,113.5,9/20,42,91.09
597,D6,113.5,9/20,42,91.09
598,D3,114.0,0.5,35,91.09
599,B-4,114.0,1.0,46,91.09
600,B-5,114.0,1.0,46,91.09
601,F4,114.5,0.5,27,91.09
602,B-5,115.0,1.0,42,91.09
603,B-4,115.0,1.0,42,91.09
604,G#3,115.0,0.5,28,91.09
605,B-3,115.0,0.5,28,91.09
606,F4,115.5,0.5,27,91.09
607,B-5,116.0,0.75,50,91.09
608,C3,116.0,0.5,35,91.09
609,E-4,116.5,0.5,26,91.09
610,C6,116.75,0.125,41,91.09
611,B-5,116.875,0.125,40,91.09
612,A5,117.0,0.25,47,91.09
613,B-3,117.0,0.5,26,91.09
614,G3,117.0,0.5,26,91.09
615,B-5,117.25,0.125,47,91.09
616,C6,117.375,0.062,40,91.09
617,D6,117.438,0.062,40,91.09
618,C6,117.5,0.25,47,91.09
619,E-4,117.5,0.5,26,91.09
620,B-5,117.75,0.25,47,91.09
621,E3,118.0,0.5,35,91.09
622,G5,118.0,2.0,46,91.09
623,G6,118.0,2.0,46,91.09
624,G4,118.5,0.5,23,91.09
625,B-3,119.0,0.5,21,91.09
626,C#4,119.0,0.5,21,91.09
627,G4,119.5,0.5,23,91.09
628,G2,120.0,0.5,35,91.09
629,E4,120.0,1.0,45,91.09
630,B-4,120.0,1.0,45,91.09
631,C5,120.0,1.0,45,91.09
632,C4,120.5,0.5,24,91.09
633,B-4,121.0,9/20,43,91.09
634,C5,121.0,9/20,43,91.09
635,E4,121.0,9/20,43,91.09
636,G3,121.0,0.5,24,91.09
637,B-3,121.0,0.5,24,91.09
638,C4,121.5,0.5,25,91.09
639,E4,121.5,9/20,47,91.09
640,B-4,121.5,9/20,47,91.09
641,C5,121.5,9/20,47,91.09
642,F2,122.0,0.5,35,91.09
643,B-4,122.0,1.0,50,91.09
644,F4,122.0,1.0,50,91.09
645,D5,122.0,1.0,50,91.09
646,F5,122.0,1.0,50,91.09
647,D4,122.5,0.5,27,91.09
648,B-4,123.0,1.0,41,91.09
649,F4,123.0,1.0,41,91.09
650,F5,123.0,1.0,41,91.09
651,D5,123.0,1.0,41,91.09
652,F3,123.0,0.5,28,91.09
653,B-3,123.0,0.5,28,91.09
654,D4,123.5,0.5,27,91.09
655,B-4,124.0,0.5,47,91.09
656,C5,124.0,1.5,39,91.09
657,F2,124.0,0.5,35,91.09
658,A4,124.5,0.25,38,91.09
659,C4,124.5,0.5,24,91.09
660,G4,124.75,0.25,38,91.09
661,A4,125.0,0.5,43,91.09
662,F3,125.0,0.5,31,91.09
663,C4,125.5,0.5,26,91.09
664,A4,125.5,0.5,39,91.09
665,F5,125.5,0.5,39,91.09
666,E-4,125.5,0.5,39,91.09
667,B-2,126.0,0.5,30,91.09
668,B-4,126.0,2.0,40,91.09
669,D4,126.0,2.0,40,91.09
670,B-3,126.5,0.5,25,91.09
671,D3,127.0,0.5,23,91.09
672,F3,127.0,0.5,23,91.09
673,B-3,127.5,0.5,21,91.09
674,C5,128.0,1.5,31,91.09
675,B-4,128.0,0.5,37,91.09
676,F2,128.0,0.5,28,91.09
677,A4,128.5,0.25,30,91.09
678,C4,128.5,0.5,19,91.09
679,G4,128.75,0.25,30,91.09
680,A4,129.0,0.5,34,91.09
681,F3,129.0,0.5,24,91.09
682,C4,129.5,0.5,20,91.09
683,E-4,129.5,0.5,31,91.09
684,F5,129.5,0.5,31,91.09
685,A4,129.5,0.5,31,91.09
686,B-2,130.0,0.25,24,91.09
687,D4,130.0,1.5,32,91.09
688,B-4,130.0,1.5,32,91.09
689,B-3,130.5,0.5,20,91.09
690,F3,131.0,0.5,18,91.09
691,B-3,131.5,0.5,29,91.09
692,D3,131.5,0.5,21,91.09
693,C4,132.0,1.5,26,91.09
694,B-3,132.0,0.5,31,91.09
695,F1,132.0,0.5,23,91.09
696,A3,132.5,0.25,25,91.09
697,C3,132.5,0.5,16,91.09
698,G3,132.75,0.25,25,91.09
699,A3,133.0,0.5,28,91.09
700,F2,133.0,0.5,20,91.09
701,C3,133.5,0.5,17,91.09
702,E-3,133.5,0.5,26,91.09
703,F4,133.5,0.5,26,91.09
704,A3,133.5,0.5,26,91.09
705,D3,134.0,1.5,26,91.09
706,B-3,134.0,1.5,26,91.09
707,B-2,134.0,1.5,20,91.09
708,B-1,134.0,1.5,20,91.09
709,F2,134.0,1.5,20,91.09
710,D5,136.0,0.75,50,91.09
711,B-2,136.0,2.0,30,91.09
712,D4,136.25,0.25,26,91.09
713,F4,136.5,0.25,26,91.09
714,F3,136.5,1.0,24,91.09
715,D5,136.75,0.25,45,91.09
716,D5,137.0,0.75,50,91.09
717,D4,137.25,0.25,26,91.09
718,F4,137.5,0.25,26,91.09
719,F3,137.5,0.5,24,91.09
720,D5,137.75,0.25,47,91.09
721,C5,138.0,0.75,50,91.09
722,D3,138.0,2.0,30,91.09
723,D4,138.25,0.25,26,91.09
724,F4,138.5,0.25,26,91.09
725,F3,138.5,1.0,24,91.09
726,B-4,138.75,0.25,45,91.09
727,B-4,139.0,0.75,50,91.09
728,D4,139.25,0.25,26,91.09
729,F4,139.5,0.25,26,91.09
730,F3,139.5,0.5,24,91.09
731,C5,139.75,0.25,46,91.09
732,B-4,140.0,0.75,50,91.09
733,C3,140.0,2.0,30,91.09
734,E-4,140.25,0.25,28,91.09
735,F4,140.5,0.25,28,91.09
736,F3,140.5,1.0,24,91.09
737,A4,140.75,0.25,48,91.09
738,C5,141.0,0.75,52,91.09
739,F4,141.25,0.25,28,91.09
740,A4,141.5,0.25,29,91.09
741,F3,141.5,0.5,24,91.09
742,D5,141.75,0.25,50,91.09
743,E-5,142.0,0.75,55,91.09
744,F2,142.0,2.0,30,91.09
745,A4,142.25,0.25,32,91.09
746,C5,142.5,0.25,32,91.09
747,F3,142.5,1.0,24,91.09
748,F#5,142.75,0.25,52,91.09
749,G5,143.0,0.75,57,91.09
750,A4,143.25,0.25,34,91.09
751,C5,143.5,0.25,34,91.09
752,F3,143.5,0.5,24,91.09
753,E-5,143.75,0.25,50,91.09
754,D5,144.0,0.75,50,91.09
755,D3,144.0,2.0,30,91.09
756,F#4,144.25,0.25,26,91.09
757,A4,144.5,0.25,26,91.09
758,A3,144.5,1.0,24,91.09
759,E-5,144.75,0.25,45,91.09
760,D5,145.0,0.75,50,91.09
761,F#4,145.25,0.25,26,91.09
762,A4,145.5,0.25,26,91.09
763,A3,145.5,0.5,24,91.09
764,C5,145.75,0.25,47,91.09
765,C5,146.0,0.75,50,91.09
766,D3,146.0,2.0,30,91.09
767,F4,146.25,0.25,26,91.09
768,G#4,146.5,0.25,26,91.09
769,G#3,146.5,1.0,24,91.09
770,C5,146.75,0.25,45,91.09
771,B4,147.0,0.75,50,91.09
772,F4,147.25,0.25,26,91.09
773,G#4,147.5,0.25,26,91.09
774,G#3,147.5,0.5,24,91.09
775,B4,147.75,0.25,46,91.09
776,B4,148.0,0.75,50,91.09
777,E-3,148.0,2.0,30,91.09
778,E-4,148.25,0.25,28,91.09
779,G4,148.5,0.25,28,91.09
780,G3,148.5,1.0,24,91.09
781,C5,148.75,0.25,48,91.09
782,E-5,149.0,0.75,52,91.09
783,E-4,149.25,0.25,28,91.09
784,F#4,149.5,0.25,29,91.09
785,F#3,149.5,0.5,24,91.09
786,C5,149.75,0.25,45,91.09
787,B-4,150.0,0.75,51,91.09
788,F2,150.0,2.0,30,91.09
789,D4,150.25,0.25,29,91.09
790,F4,150.5,0.25,26,91.09
791,F3,150.5,1.0,24,91.09
792,B-4,150.75,0.25,35,91.09
793,A4,151.0,0.75,40,91.09
794,C4,151.25,0.25,24,91.09
795,F4,151.5,0.25,24,91.09
796,F3,151.5,0.5,24,91.09
797,A4,151.75,0.25,42,91.09
798,D5,152.0,0.75,50,91.09
799,B-2,152.0,2.0,30,91.09
800,D4,152.25,0.25,26,91.09
801,F4,152.5,0.25,26,91.09
802,F3,152.5,1.0,24,91.09
803,D5,152.75,0.25,45,91.09
804,D5,153.0,0.75,50,91.09
805,D4,153.25,0.25,26,91.09
806,F4,153.5,0.25,26,91.09
807,F3,153.5,0.5,24,91.09
808,D5,153.75,0.25,47,91.09
809,C5,154.0,0.75,50,91.09
810,D3,154.0,2.0,30,91.09
811,D4,154.25,0.25,26,91.09
812,F4,154.5,0.25,26,91.09
813,F3,154.5,1.0,24,91.09
814,B-4,154.75,0.25,45,91.09
815,B-4,155.0,0.75,50,91.09
816,D4,155.25,0.25,26,91.09
817,F4,155.5,0.25,26,91.09
818,F3,155.5,0.5,24,91.09
819,C5,155.75,0.25,46,91.09
820,B-4,156.0,0.75,50,91.09
821,C3,156.0,2.0,30,91.09
822,E-4,156.25,0.25,28,91.09
823,F4,156.5,0.25,28,91.09
824,F3,156.5,1.0,24,91.09
825,A4,156.75,0.25,48,91.09
826,C5,157.0,0.75,52,91.09
827,F4,157.25,0.25,28,91.09
828,A4,157.5,0.25,29,91.09
829,F3,157.5,0.5,24,91.09
830,D5,157.75,0.25,50,91.09
831,E-5,158.0,0.75,55,91.09
832,F2,158.0,2.0,30,91.09
833,A4,158.25,0.25,32,91.09
834,C5,158.5,0.25,32,91.09
835,F3,158.5,1.0,24,91.09
836,F#5,158.75,0.25,52,91.09
837,G5,159.0,0.75,57,91.09
838,A4,159.25,0.25,34,91.09
839,C5,159.5,0.25,34,91.09
840,F3,159.5,0.5,24,91.09
841,E-5,159.75,0.25,50,91.09
842,D5,160.0,0.75,50,91.09
843,D3,160.0,2.0,30,91.09
844,D4,160.25,0.25,26,91.09
845,F4,160.5,0.25,26,91.09
846,F3,160.5,1.0,24,91.09
847,A4,160.75,0.25,45,91.09
848,B-4,161.0,0.75,50,91.09
849,D4,161.25,0.25,26,91.09
850,F4,161.5,0.25,26,91.09
851,B-3,161.5,0.5,24,91.09
852,C5,161.75,0.25,53,91.09
853,C#5,162.0,0.75,58,91.09
854,E3,162.0,2.0,34,91.09
855,G4,162.24,0.25,38,91.09
856,B-4,162.5,0.25,38,91.09
857,B-3,162.5,1.0,29,91.09
858,C#4,162.5,1.0,29,91.09
859,G5,162.74,0.25,45,91.09
860,A5,163.0,0.75,55,91.09
861,B-4,163.25,0.25,35,91.09
862,C#5,163.5,0.25,35,91.09
863,B-3,163.5,0.5,24,91.09
864,C#4,163.5,0.5,24,91.09
865,B-5,163.74,0.25,46,91.09
866,C5,164.0,0.75,50,91.09
867,F3,164.0,2.0,30,91.09
868,F4,164.25,0.25,28,91.09
869,B-4,164.5,0.25,28,91.09
870,C4,164.5,1.0,24,91.09
871,D5,164.75,0.25,43,91.09
872,E-5,165.0,0.75,49,91.09
873,F4,165.25,0.25,28,91.09
874,A4,165.5,0.25,29,91.09
875,E-4,165.5,0.5,24,91.09
876,F5,165.75,0.25,43,91.09
877,B-4,166.0,0.75,50,91.09
878,D4,166.0,1.0,30,91.09
879,B-3,166.0,1.0,30,91.09
880,D4,166.25,0.25,29,91.09
881,F4,166.5,0.25,26,91.09
882,A4,166.75,0.25,32,91.09
883,B-4,166.99,0.75,38,91.09
884,D4,167.25,0.25,24,91.09
885,F4,167.5,0.25,24,91.09
886,C5,167.75,0.25,39,91.09
887,D5,168.0,0.75,50,91.09
888,B-2,168.0,2.0,30,91.09
889,D4,168.25,0.25,26,91.09
890,F4,168.5,0.25,26,91.09
891,F3,168.5,1.0,24,91.09
892,D5,168.75,0.25,45,91.09
893,D5,169.0,0.75,50,91.09
894,D4,169.25,0.25,26,91.09
895,F4,169.5,0.25,26,91.09
896,F3,169.5,0.5,24,91.09
897,D5,169.75,0.25,47,91.09
898,C5,170.0,0.75,50,91.09
899,D3,170.0,2.0,30,91.09
900,D4,170.25,0.25,26,91.09
901,F4,170.5,0.25,26,91.09
902,F3,170.5,1.0,24,91.09
903,B-4,170.75,0.25,45,91.09
904,B-4,171.0,0.75,50,91.09
905,D4,171.25,0.25,26,91.09
906,F4,171.5,0.25,26,91.09
907,F3,171.5,0.5,24,91.09
908,C5,171.75,0.25,46,91.09
909,B-4,172.0,0.75,50,91.09
910,C3,172.0,2.0,30,91.09
911,E-4,172.25,0.25,28,91.09
912,F4,172.5,0.25,28,91.09
913,F3,172.5,1.0,24,91.09
914,A4,172.75,0.25,48,91.09
915,C5,173.0,0.75,52,91.09
916,F4,173.25,0.25,28,91.09
917,A4,173.5,0.25,29,91.09
918,F3,173.5,0.5,24,91.09
919,D5,173.75,0.25,50,91.09
920,E-5,174.0,0.75,55,91.09
921,F2,174.0,2.0,30,91.09
922,A4,174.25,0.25,32,91.09
923,C5,174.5,0.25,32,91.09
924,F3,174.5,1.0,24,91.09
925,F#5,174.75,0.25,52,91.09
926,G5,175.0,0.75,57,91.09
927,A4,175.25,0.25,34,91.09
928,C5,175.5,0.25,34,91.09
929,F3,175.5,0.5,24,91.09
930,E-5,175.75,0.25,50,91.09
931,D5,176.0,0.75,50,91.09
932,D3,176.0,2.0,30,91.09
933,F#4,176.25,0.25,26,91.09
934,A4,176.5,0.25,26,91.09
935,A3,176.5,1.0,24,91.09
936,E-5,176.75,0.25,45,91.09
937,D5,177.0,0.75,50,91.09
938,F#4,177.25,0.25,26,91.09
939,A4,177.5,0.25,26,91.09
940,A3,177.5,0.5,24,91.09
941,C5,177.75,0.25,47,91.09
942,C5,178.0,0.75,50,91.09
943,D3,178.0,2.0,30,91.09
944,F4,178.25,0.25,26,91.09
945,G#4,178.5,0.25,26,91.09
946,G#3,178.5,1.0,24,91.09
947,C5,178.75,0.25,45,91.09
948,B4,179.0,0.75,50,91.09
949,F4,179.25,0.25,26,91.09
950,G#4,179.5,0.25,26,91.09
951,G#3,179.5,0.5,24,91.09
952,B4,179.75,0.25,46,91.09
953,B4,180.0,0.75,50,91.09
954,E-3,180.0,2.0,30,91.09
955,E-4,180.25,0.25,28,91.09
956,G4,180.5,0.25,28,91.09
957,G3,180.5,1.0,24,91.09
958,C5,180.75,0.25,48,91.09
959,E-5,181.0,0.75,52,91.09
960,E-4,181.25,0.25,28,91.09
961,F#4,181.5,0.25,29,91.09
962,F#3,181.5,0.5,24,91.09
963,C5,181.75,0.25,45,91.09
964,B-4,182.0,0.75,51,91.09
965,F2,182.0,2.0,30,91.09
966,D4,182.25,0.25,29,91.09
967,F4,182.5,0.25,26,91.09
968,F3,182.5,1.0,24,91.09
969,B-4,182.75,0.25,35,91.09
970,A4,183.0,0.75,40,91.09
971,C4,183.25,0.25,24,91.09
972,F4,183.5,0.25,24,91.09
973,F3,183.5,0.5,24,91.09
974,A4,183.75,0.25,42,91.09
975,D5,184.0,0.75,50,91.09
976,B-2,184.0,2.0,30,91.09
977,D4,184.25,0.25,26,91.09
978,F4,184.5,0.25,26,91.09
979,F3,184.5,1.0,24,91.09
980,D5,184.75,0.25,45,91.09
981,D5,185.0,0.75,50,91.09
982,D4,185.25,0.25,26,91.09
983,F4,185.5,0.25,26,91.09
984,F3,185.5,0.5,24,91.09
985,D5,185.75,0.25,47,91.09
986,C5,186.0,0.75,50,91.09
987,D3,186.0,2.0,30,91.09
988,D4,186.25,0.25,26,91.09
989,F4,186.5,0.25,26,91.09
990,F3,186.5,1.0,24,91.09
991,B-4,186.75,0.25,45,91.09
992,B-4,187.0,0.75,50,91.09
993,D4,187.25,0.25,26,91.09
994,F4,187.5,0.25,26,91.09
995,F3,187.5,0.5,24,91.09
996,C5,187.75,0.25,46,91.09
997,B-4,188.0,0.75,50,91.09
998,C3,188.0,2.0,30,91.09
999,E-4,188.25,0.25,28,91.09
1000,F4,188.5,0.25,28,91.09
1001,F3,188.5,1.0,24,91.09
1002,A4,188.75,0.25,48,91.09
1003,C5,189.0,0.75,52,91.09
1004,F4,189.25,0.25,28,91.09
1005,A4,189.5,0.25,29,91.09
1006,F3,189.5,0.5,24,91.09
1007,D5,189.75,0.25,50,91.09
1008,E-5,190.0,0.75,55,91.09
1009,F2,190.0,2.0,30,91.09
1010,A4,190.25,0.25,32,91.09
1011,C5,190.5,0.25,32,91.09
1012,F3,190.5,1.0,24,91.09
1013,F#5,190.75,0.25,52,91.09
1014,G5,191.0,0.75,57,91.09
1015,A4,191.25,0.25,34,91.09
1016,C5,191.5,0.25,34,91.09
1017,F3,191.5,0.5,24,91.09
1018,E-5,191.75,0.25,50,91.09
1019,D5,192.0,0.75,50,91.09
1020,D3,192.0,2.0,30,91.09
1021,D4,192.25,0.25,26,91.09
1022,F4,192.5,0.25,26,91.09
1023,F3,192.5,1.0,24,91.09
1024,A4,192.75,0.25,45,91.09
1025,B-4,193.0,0.75,50,91.09
1026,D4,193.25,0.25,33,91.09
1027,F4,193.5,0.25,33,91.09
1028,B-3,193.5,0.5,24,91.09
1029,C5,193.75,0.25,53,91.09
1030,C#5,194.0,0.75,58,91.09
1031,E3,194.0,2.0,34,91.09
1032,G4,194.24,0.25,38,91.09
1033,B-4,194.5,0.25,38,91.09
1034,C#4,194.5,1.0,29,91.09
1035,B-3,194.5,1.0,29,91.09
1036,G5,194.74,0.25,45,91.09
1037,A5,195.0,0.75,58,91.09
1038,B-4,195.25,0.25,38,91.09
1039,C#5,195.5,0.25,35,91.09
1040,C#4,195.5,0.5,24,91.09
1041,B-3,195.5,0.5,24,91.09
1042,B-5,195.74,0.25,46,91.09
1043,C5,196.0,0.75,54,91.09
1044,F3,196.0,2.0,30,91.09
1045,F4,196.25,0.25,35,91.09
1046,B-4,196.5,0.25,37,91.09
1047,C4,196.5,1.0,24,91.09
1048,D5,196.75,0.25,43,91.09
1049,E-5,197.0,0.75,53,91.09
1050,F4,197.25,0.25,31,91.09
1051,A4,197.5,0.25,31,91.09
1052,E-4,197.5,0.5,24,91.09
1053,F5,197.75,0.25,43,91.09
1054,B-4,198.0,0.75,54,91.09
1055,B-3,198.0,1.0,30,91.09
1056,D4,198.0,1.0,30,91.09
1057,D4,198.25,0.25,29,91.09
1058,F4,198.5,0.25,26,91.09
1059,A4,198.75,0.25,32,91.09
1060,B-4,198.99,0.75,46,91.09
1061,D4,199.25,0.25,28,91.09
1062,F4,199.5,0.25,28,91.09
1063,C5,199.75,0.25,45,91.09
1064,D5,200.0,0.75,57,91.09
1065,D3,200.0,2.0,34,91.09
1066,F#4,200.25,0.25,29,91.09
1067,A4,200.5,0.25,29,91.09
1068,C4,200.5,1.0,27,91.09
1069,E-5,200.75,0.25,51,91.09
1070,D5,201.0,0.75,57,91.09
1071,F#4,201.25,0.25,29,91.09
1072,A4,201.5,0.25,29,91.09
1073,A3,201.5,0.5,27,91.09
1074,C5,201.75,0.25,54,91.09
1075,C5,202.0,0.75,57,91.09
1076,G2,202.0,0.5,34,91.09
1077,F4,202.25,0.25,29,91.09
1078,G4,202.5,0.25,29,91.09
1079,D4,202.5,0.5,36,91.09
1080,G3,202.5,0.5,36,91.09
1081,B4,202.75,0.25,51,91.09
1082,C5,203.0,0.75,57,91.09
1083,G#3,203.0,0.5,44,91.09
1084,C4,203.0,0.5,44,91.09
1085,F4,203.25,0.25,40,91.09
1086,G4,203.5,0.25,48,91.09
1087,G3,203.5,0.5,34,91.09
1088,B3,203.5,0.5,34,91.09
1089,D5,203.75,0.25,52,91.09
1090,G5,204.0,0.75,68,91.09
1091,G2,204.0,0.5,34,91.09
1092,B4,204.25,0.25,47,91.09
1093,D5,204.5,0.25,47,91.09
1094,F4,204.5,1.0,46,91.09
1095,G3,204.5,1.5,37,91.09
1096,G#5,204.75,0.25,66,91.09
1097,G5,205.0,0.75,72,91.09
1098,B4,205.25,0.25,47,91.09
1099,D5,205.5,0.25,47,91.09
1100,D4,205.5,0.5,35,91.09
1101,F5,205.75,0.25,63,91.09
1102,F5,206.0,0.75,70,91.09
1103,C3,206.0,1.5,42,91.09
1104,G4,206.25,0.25,36,91.09
1105,B-4,206.5,0.25,41,91.09
1106,C4,206.5,1.5,33,91.09
1107,E5,206.75,0.25,59,91.09
1108,D5,207.0,0.75,65,91.09
1109,E4,207.25,0.25,39,91.09
1110,B-4,207.5,0.25,39,91.09
1111,G3,207.5,0.5,27,91.09
1112,C5,207.75,0.25,57,91.09
1113,C5,208.0,0.75,66,91.09
1114,A3,208.0,1.0,34,91.09
1115,F4,208.25,0.25,43,91.09
1116,A4,208.5,0.25,43,91.09
1117,C4,208.5,1.0,27,91.09
1118,D5,208.75,0.25,58,91.09
1119,E5,209.0,0.75,67,91.09
1120,F3,209.0,1.0,37,91.09
1121,A4,209.25,0.25,41,91.09
1122,C5,209.5,0.25,46,91.09
1123,C4,209.5,0.5,27,91.09
1124,F5,209.75,0.25,65,91.09
1125,F5,210.0,0.75,73,91.09
1126,B-2,210.0,0.5,41,91.09
1127,F4,210.25,0.25,36,91.09
1128,B-4,210.5,0.25,36,91.09
1129,B-3,210.5,0.5,32,91.09
1130,D4,210.5,0.5,32,91.09
1131,D5,210.75,0.25,57,91.09
1132,C5,211.0,0.75,65,91.09
1133,C4,211.0,0.5,30,91.09
1134,A3,211.0,0.5,30,91.09
1135,F#4,211.25,0.25,29,91.09
1136,G4,211.5,0.25,29,91.09
1137,G3,211.5,0.5,28,91.09
1138,B-3,211.5,0.5,28,91.09
1139,B-4,211.75,0.25,52,91.09
1140,A4,212.0,0.75,57,91.09
1141,C3,212.0,1.0,34,91.09
1142,C4,212.25,0.25,32,91.09
1143,F4,212.5,0.25,32,91.09
1144,A3,212.5,0.5,27,91.09
1145,B-4,212.75,0.25,55,91.09
1146,G4,213.0,0.75,59,91.09
1147,C3,213.0,1.0,34,91.09
1148,C4,213.25,0.25,32,91.09
1149,E4,213.5,0.25,33,91.09
1150,B-3,213.5,0.5,27,91.09
1151,C5,213.75,0.25,51,91.09
1152,F4,214.0,0.75,58,91.09
1153,A3,214.0,2.0,34,91.09
1154,F3,214.0,2.0,34,91.09
1155,C4,214.25,0.25,33,91.09
1156,F4,214.5,0.25,29,91.09
1157,A4,214.75,0.25,35,91.09
1158,C5,215.0,0.5,40,91.09
1159,F4,215.25,0.25,24,91.09
1160,C#5,215.5,0.5,42,91.09
1161,F4,215.75,0.25,24,91.09
1162,D5,216.0,0.75,50,91.09
1163,B-2,216.0,2.0,30,91.09
1164,D4,216.25,0.25,26,91.09
1165,F4,216.5,0.25,26,91.09
1166,F3,216.5,1.0,24,91.09
1167,D5,216.75,0.25,45,91.09
1168,D5,217.0,0.75,50,91.09
1169,D4,217.25,0.25,26,91.09
1170,F4,217.5,0.25,26,91.09
1171,F3,217.5,0.5,24,91.09
1172,D5,217.75,0.25,47,91.09
1173,C5,218.0,0.75,50,91.09
1174,D3,218.0,2.0,30,91.09
1175,F4,218.25,0.25,26,91.09
1176,G#4,218.5,0.25,26,91.09
1177,B-3,218.5,1.0,24,91.09
1178,B-4,218.75,0.25,45,91.09
1179,B-4,219.0,0.75,50,91.09
1180,F4,219.25,0.25,26,91.09
1181,G#4,219.5,0.25,26,91.09
1182,B-3,219.5,0.5,24,91.09
1183,C5,219.75,0.25,46,91.09
1184,B-4,220.0,0.75,50,91.09
1185,E-3,220.0,2.0,30,91.09
1186,F#4,220.25,0.25,32,91.09
1187,G4,220.5,0.25,33,91.09
1188,B-3,220.5,1.0,28,91.09
1189,C5,220.75,0.25,48,91.09
1190,D5,221.0,0.75,57,91.09
1191,G4,221.25,0.25,41,91.09
1192,B-4,221.5,0.25,43,91.09
1193,B-3,221.5,0.5,28,91.09
1194,E-5,221.75,0.25,61,91.09
1195,F#5,222.0,0.75,70,91.09
1196,E3,222.0,2.0,37,91.09
1197,B-4,222.25,0.25,41,91.09
1198,C#5,222.5,0.25,41,91.09
1199,B-3,222.5,1.0,28,91.09
1200,C#4,222.5,1.0,28,91.09
1201,G5,222.75,0.25,56,91.09
1202,A5,223.0,0.75,63,91.09
1203,B-4,223.25,0.25,34,91.09
1204,C#5,223.5,0.25,34,91.09
1205,C#4,223.5,0.5,28,91.09
1206,B-3,223.5,0.5,28,91.09
1207,B-5,223.75,0.25,46,91.09
1208,C5,224.0,0.75,50,91.09
1209,G3,224.0,2.0,37,91.09
1210,E4,224.25,0.25,26,91.09
1211,B-4,224.5,0.25,26,91.09
1212,C4,224.5,1.0,24,91.09
1213,B-3,224.5,1.0,24,91.09
1214,D5,224.75,0.25,45,91.09
1215,C5,225.0,0.75,50,91.09
1216,E4,225.25,0.25,26,91.09
1217,B-4,225.5,0.25,26,91.09
1218,C#4,225.5,0.5,24,91.09
1219,B-3,225.5,0.5,24,91.09
1220,C#5,225.75,0.25,53,91.09
1221,D5,226.0,0.75,58,91.09
1222,F3,226.0,2.0,34,91.09
1223,F4,226.25,0.25,38,91.09
1224,B-4,226.5,0.25,38,91.09
1225,B-3,226.5,0.5,29,91.09
1226,D4,226.5,0.5,29,91.09
1227,D5,226.75,0.25,45,91.09
1228,E-5,227.0,0.5,55,91.09
1229,E-4,227.0,0.5,26,91.09
1230,C4,227.0,0.5,26,91.09
1231,F4,227.25,0.25,35,91.09
1232,D5,227.5,0.25,62,91.09
1233,D4,227.5,0.5,22,91.09
1234,F4,227.5,0.5,22,91.09
1235,F5,227.75,0.25,59,91.09
1236,F5,228.0,0.75,64,91.09
1237,F3,228.0,1.5,30,91.09
1238,F4,228.25,0.25,28,91.09
1239,C5,228.5,0.25,28,91.09
1240,C4,228.5,0.5,24,91.09
1241,E-4,228.5,0.5,24,91.09
1242,E-5,228.75,0.25,43,91.09
1243,D5,229.0,0.75,49,91.09
1244,D4,229.0,0.5,24,91.09
1245,B-3,229.0,0.5,24,91.09
1246,F4,229.25,0.25,28,91.09
1247,A4,229.5,0.25,29,91.09
1248,C4,229.5,0.5,24,91.09
1249,F3,229.5,0.5,24,91.09
1250,C5,229.75,0.25,43,91.09
1251,B-4,230.0,0.75,50,91.09
1252,B-2,230.0,1.0,27,91.09
1253,B-3,230.0,1.0,27,91.09
1254,D3,230.0,1.0,27,91.09
1255,D4,230.25,0.25,29,91.09
1256,F4,230.5,0.25,26,91.09
1257,A4,230.75,0.25,32,91.09
1258,B-4,230.99,0.75,38,91.09
1259,D4,231.25,0.25,24,91.09
1260,F4,231.5,0.25,24,91.09
1261,D3,231.5,0.25,30,91.09
1262,C5,231.75,0.25,39,91.09
1263,D5,232.0,0.75,57,91.09
1264,D3,232.0,2.0,34,91.09
1265,F#4,232.25,0.25,29,91.09
1266,A4,232.5,0.25,29,91.09
1267,C4,232.5,1.0,27,91.09
1268,E-5,232.75,0.25,51,91.09
1269,D5,233.0,0.75,57,91.09
1270,F#4,233.25,0.25,29,91.09
1271,A4,233.5,0.25,29,91.09
1272,A3,233.5,0.5,27,91.09
1273,C5,233.75,0.25,54,91.09
1274,C5,234.0,0.75,57,91.09
1275,G2,234.0,0.5,34,91.09
1276,F4,234.25,0.25,29,91.09
1277,G4,234.5,0.25,29,91.09
1278,D4,234.5,0.5,36,91.09
1279,G3,234.5,0.5,36,91.09
1280,B4,234.75,0.25,51,91.09
1281,C5,235.0,0.75,57,91.09
1282,G#3,235.0,0.5,44,91.09
1283,C4,235.0,0.5,44,91.09
1284,F4,235.25,0.25,40,91.09
1285,G4,235.5,0.25,48,91.09
1286,B3,235.5,0.5,34,91.09
1287,G3,235.5,0.5,34,91.09
1288,D5,235.75,0.25,52,91.09
1289,G5,236.0,0.75,66,91.09
1290,G2,236.0,0.5,34,91.09
1291,B4,236.25,0.25,47,91.09
1292,D5,236.5,0.25,47,91.09
1293,G3,236.5,1.5,37,91.09
1294,F4,236.5,1.0,46,91.09
1295,G#5,236.75,0.25,64,91.09
1296,G5,237.0,0.75,73,91.09
1297,B4,237.25,0.25,47,91.09
1298,D5,237.5,0.25,47,91.09
1299,D4,237.5,0.5,35,91.09
1300,F5,237.75,0.25,63,91.09
1301,F5,238.0,0.75,70,91.09
1302,C3,238.0,1.5,42,91.09
1303,G4,238.25,0.25,36,91.09
1304,B-4,238.5,0.25,41,91.09
1305,C4,238.5,1.5,33,91.09
1306,E5,238.75,0.25,59,91.09
1307,D5,239.0,0.75,65,91.09
1308,E4,239.25,0.25,39,91.09
1309,B-4,239.5,0.25,39,91.09
1310,G3,239.5,0.5,27,91.09
1311,C5,239.75,0.25,57,91.09
1312,C5,240.0,0.75,66,91.09
1313,A3,240.0,1.0,34,91.09
1314,F4,240.25,0.25,43,91.09
1315,A4,240.5,0.25,43,91.09
1316,C4,240.5,1.0,27,91.09
1317,D5,240.75,0.25,58,91.09
1318,E5,241.0,0.75,67,91.09
1319,F3,241.0,1.0,37,91.09
1320,A4,241.25,0.25,41,91.09
1321,C5,241.5,0.25,46,91.09
1322,C4,241.5,0.5,27,91.09
1323,F5,241.75,0.25,65,91.09
1324,F5,242.0,0.75,73,91.09
1325,B-2,242.0,0.5,41,91.09
1326,F4,242.25,0.25,36,91.09
1327,B-4,242.5,0.25,36,91.09
1328,D4,242.5,0.5,32,91.09
1329,B-3,242.5,0.5,32,91.09
1330,D5,242.75,0.25,57,91.09
1331,C5,243.0,0.75,65,91.09
1332,C4,243.0,0.5,30,91.09
1333,A3,243.0,0.5,30,91.09
1334,F#4,243.25,0.25,29,91.09
1335,G4,243.5,0.25,29,91.09
1336,G3,243.5,0.5,28,91.09
1337,B-3,243.5,0.5,28,91.09
1338,B-4,243.75,0.25,52,91.09
1339,A4,244.0,0.75,57,91.09
1340,C3,244.0,1.0,34,91.09
1341,C4,244.25,0.25,32,91.09
1342,F4,244.5,0.25,32,91.09
1343,A3,244.5,0.5,27,91.09
1344,B-4,244.75,0.25,55,91.09
1345,G4,245.0,0.75,59,91.09
1346,C3,245.0,1.0,34,91.09
1347,C4,245.25,0.25,32,91.09
1348,E4,245.5,0.25,33,91.09
1349,B-3,245.5,0.5,27,91.09
1350,C5,245.75,0.25,51,91.09
1351,F4,246.0,0.75,58,91.09
1352,A3,246.0,2.0,34,91.09
1353,F3,246.0,2.0,34,91.09
1354,C4,246.25,0.25,33,91.09
1355,F4,246.5,0.25,29,91.09
1356,A4,246.75,0.25,40,91.09
1357,C5,247.0,0.5,40,91.09
1358,F4,247.25,0.25,24,91.09
1359,C#5,247.5,0.5,42,91.09
1360,F4,247.75,0.25,24,91.09
1361,D5,248.0,0.75,50,91.09
1362,B-2,248.0,2.0,30,91.09
1363,D4,248.25,0.25,26,91.09
1364,F4,248.5,0.25,26,91.09
1365,F3,248.5,1.0,24,91.09
1366,D5,248.75,0.25,45,91.09
1367,D5,249.0,0.75,50,91.09
1368,D4,249.25,0.25,26,91.09
1369,F4,249.5,0.25,26,91.09
1370,F3,249.5,0.5,24,91.09
1371,D5,249.75,0.25,47,91.09
1372,C5,250.0,0.75,50,91.09
1373,D3,250.0,2.0,30,91.09
1374,F4,250.25,0.25,26,91.09
1375,G#4,250.5,0.25,26,91.09
1376,B-3,250.5,1.0,24,91.09
1377,B-4,250.75,0.25,45,91.09
1378,B-4,251.0,0.75,50,91.09
1379,F4,251.25,0.25,26,91.09
1380,G#4,251.5,0.25,26,91.09
1381,B-3,251.5,0.5,24,91.09
1382,C5,251.75,0.25,46,91.09
1383,B-4,252.0,0.75,50,91.09
1384,E-3,252.0,2.0,30,91.09
1385,F#4,252.25,0.25,32,91.09
1386,G4,252.5,0.25,33,91.09
1387,B-3,252.5,1.0,28,91.09
1388,C5,252.75,0.25,48,91.09
1389,D5,253.0,0.75,57,91.09
1390,G4,253.25,0.25,41,91.09
1391,B-4,253.5,0.25,43,91.09
1392,B-3,253.5,0.5,28,91.09
1393,E-5,253.75,0.25,61,91.09
1394,F#5,254.0,0.75,70,91.09
1395,E3,254.0,2.0,37,91.09
1396,B-4,254.25,0.25,41,91.09
1397,C#5,254.5,0.25,41,91.09
1398,B-3,254.5,1.0,28,91.09
1399,C#4,254.5,1.0,28,91.09
1400,G5,254.75,0.25,56,91.09
1401,A5,255.0,0.75,63,91.09
1402,B-4,255.25,0.25,34,91.09
1403,C#5,255.5,0.25,34,91.09
1404,C#4,255.5,0.5,28,91.09
1405,B-3,255.5,0.5,28,91.09
1406,B-5,255.75,0.25,46,91.09
1407,C5,256.0,0.75,50,91.09
1408,G3,256.0,2.0,37,91.09
1409,E4,256.25,0.25,26,91.09
1410,B-4,256.5,0.25,26,91.09
1411,C4,256.5,1.0,24,91.09
1412,B-3,256.5,1.0,24,91.09
1413,D5,256.75,0.25,45,91.09
1414,C5,257.0,0.75,50,91.09
1415,E4,257.25,0.25,26,91.09
1416,B-4,257.5,0.25,26,91.09
1417,C#4,257.5,0.5,24,91.09
1418,B-3,257.5,0.5,24,91.09
1419,C#5,257.75,0.25,53,91.09
1420,D5,258.0,0.75,58,91.09
1421,F3,258.0,2.0,34,91.09
1422,F4,258.25,0.25,38,91.09
1423,B-4,258.5,0.25,38,91.09
1424,B-3,258.5,0.5,29,91.09
1425,D4,258.5,0.5,29,91.09
1426,D5,258.75,0.25,45,91.09
1427,E-5,259.0,0.5,55,91.09
1428,E-4,259.0,0.5,26,91.09
1429,C4,259.0,0.5,26,91.09
1430,F4,259.25,0.25,35,91.09
1431,D5,259.5,0.25,62,91.09
1432,D4,259.5,0.5,22,91.09
1433,F4,259.5,0.5,22,91.09
1434,F5,259.75,0.25,59,91.09
1435,F5,260.0,0.75,64,91.09
1436,F3,260.0,1.5,30,91.09
1437,F4,260.25,0.25,28,91.09
1438,C5,260.5,0.25,28,91.09
1439,C4,260.5,0.5,24,91.09
1440,E-4,260.5,0.5,24,91.09
1441,E-5,260.75,0.25,43,91.09
1442,D5,261.0,0.75,49,91.09
1443,D4,261.0,0.5,24,91.09
1444,B-3,261.0,0.5,24,91.09
1445,F4,261.25,0.25,28,91.09
1446,A4,261.5,0.25,29,91.09
1447,C4,261.5,0.5,24,91.09
1448,F3,261.5,0.5,24,91.09
1449,C5,261.75,0.25,43,91.09
1450,B-4,262.0,0.75,50,91.09
1451,B-2,262.0,1.0,27,91.09
1452,D3,262.0,1.0,27,91.09
1453,B-3,262.0,1.0,27,91.09
1454,D4,262.25,0.25,29,91.09
1455,F4,262.5,0.25,26,91.09
1456,C5,262.75,0.25,32,91.09
1457,B-4,262.99,0.75,38,91.09
1458,D4,263.25,0.25,24,91.09
1459,F4,263.5,0.25,24,91.09
1460,B-3,263.5,0.5,30,91.09
1461,D5,263.75,0.25,39,91.09
1462,F5,264.0,0.75,47,91.09
1463,F3,264.0,1.5,27,91.09
1464,F4,264.25,0.25,28,91.09
1465,C5,264.5,0.25,28,91.09
1466,E-4,264.5,0.5,21,91.09
1467,C4,264.5,0.5,21,91.09
1468,E-5,264.75,0.25,37,91.09
1469,D5,265.0,0.75,43,91.09
1470,D4,265.0,0.5,21,91.09
1471,B-3,265.0,0.5,21,91.09
1472,F4,265.25,0.25,28,91.09
1473,A4,265.5,0.25,29,91.09
1474,C4,265.5,0.5,21,91.09
1475,F3,265.5,0.5,21,91.09
1476,C5,265.75,0.25,38,91.09
1477,B-4,266.0,0.75,43,91.09
1478,D3,266.0,1.0,24,91.09
1479,B-2,266.0,1.0,24,91.09
1480,B-3,266.0,1.0,24,91.09
1481,D4,266.25,0.25,27,91.09
1482,F4,266.5,0.25,26,91.09
1483,D5,266.75,0.25,32,91.09
1484,B-4,266.99,0.75,38,91.09
1485,D4,267.25,0.25,24,91.09
1486,F4,267.5,0.25,24,91.09
1487,F3,267.5,0.5,24,91.09
1488,D3,267.5,0.5,24,91.09
1489,G4,267.75,0.25,39,91.09
1490,F4,268.0,0.75,47,91.09
1491,F2,268.0,1.5,27,91.09
1492,F3,268.25,0.25,28,91.09
1493,C4,268.5,0.25,28,91.09
1494,E-3,268.5,0.5,21,91.09
1495,C3,268.5,0.5,21,91.09
1496,E-4,268.75,0.25,37,91.09
1497,D4,269.0,0.75,43,91.09
1498,B-2,269.0,0.5,21,91.09
1499,D3,269.0,0.5,21,91.09
1500,F3,269.25,0.25,28,91.09
1501,A3,269.5,0.25,29,91.09
1502,C3,269.5,0.5,21,91.09
1503,F2,269.5,0.5,21,91.09
1504,C4,269.75,0.25,34,91.09
1505,B-3,270.0,0.25,33,91.09
1506,B-2,270.0,2.0,27,91.09
1507,F2,270.0,2.0,27,91.09
1508,B-1,270.0,2.0,27,91.09
1509,D3,270.25,1.75,25,91.09
1510,F3,270.5,1.5,25,91.09
1511,A3,270.75,0.25,25,91.09
1512,B-3,271.0,1.0,30,91.09
1513,D5,276.0,0.5,50,91.09
1514,B-2,276.0,0.25,35,91.09
1515,C#5,276.5,0.25,50,91.09
1516,D4,276.5,1.0,21,91.09
1517,B-3,276.5,1.0,21,91.09
1518,F3,276.5,1.0,21,91.09
1519,D5,276.75,0.25,45,91.09
1520,C#5,277.0,0.25,53,91.09
1521,D5,277.25,0.25,45,91.09
1522,B-4,277.5,0.25,45,91.09
1523,F3,277.5,0.5,22,91.09
1524,B-3,277.5,0.5,22,91.09
1525,D4,277.5,0.5,22,91.09
1526,G4,277.75,9/40,45,91.09
1527,G4,278.0,1.0,56,91.09
1528,D3,278.0,0.25,35,91.09
1529,B-3,278.5,1.0,25,91.09
1530,F3,278.5,1.0,25,91.09
1531,D4,278.5,1.0,25,91.09
1532,F4,279.0,0.5,50,91.09
1533,B-3,279.5,0.5,24,91.09
1534,D4,279.5,0.5,24,91.09
1535,F3,279.5,0.5,24,91.09
1536,B-4,279.875,0.125,46,91.09
1537,A4,280.0,0.25,52,91.09
1538,C3,280.0,0.25,35,91.09
1539,B-4,280.25,83/1000,43,91.09
1540,A4,280.333,83/1000,43,91.09
1541,G4,280.417,83/1000,43,91.09
1542,A4,280.5,0.25,51,91.09
1543,F3,280.5,1.0,21,91.09
1544,A3,280.5,1.0,21,91.09
1545,E-4,280.5,1.0,21,91.09
1546,B-4,280.75,0.25,45,91.09
1547,B4,281.0,0.25,51,91.09
1548,C5,281.25,0.25,42,91.09
1549,C#5,281.5,0.25,46,91.09
1550,F3,281.5,0.5,22,91.09
1551,E-4,281.5,0.5,22,91.09
1552,A3,281.5,0.5,22,91.09
1553,D5,281.75,0.25,49,91.09
1554,F5,282.0,1.0,63,91.09
1555,F2,282.0,0.25,35,91.09
1556,F3,282.5,1.0,25,91.09
1557,C4,282.5,1.0,25,91.09
1558,A3,282.5,1.0,25,91.09
1559,E-5,283.0,0.5,59,91.09
1560,A3,283.5,0.5,24,91.09
1561,F3,283.5,0.5,24,91.09
1562,C4,283.5,0.5,24,91.09
1563,D5,284.0,0.5,59,91.09
1564,B-2,284.0,0.25,35,91.09
1565,E5,284.5,0.25,53,91.09
1566,D4,284.5,1.0,21,91.09
1567,F3,284.5,1.0,21,91.09
1568,B-3,284.5,1.0,21,91.09
1569,F5,284.75,0.25,53,91.09
1570,A5,285.0,0.25,59,91.09
1571,B-5,285.25,0.25,52,91.09
1572,F5,285.5,0.25,52,91.09
1573,B-3,285.5,0.5,22,91.09
1574,D4,285.5,0.5,22,91.09
1575,F3,285.5,0.5,22,91.09
1576,D5,285.75,0.25,52,91.09
1577,C5,286.0,0.5,59,91.09
1578,E-2,286.0,0.25,35,91.09
1579,F#5,286.5,0.25,52,91.09
1580,B-3,286.5,1.0,24,91.09
1581,G3,286.5,1.0,24,91.09
1582,E-3,286.5,1.0,24,91.09
1583,C4,286.5,1.0,24,91.09
1584,G5,286.75,0.25,52,91.09
1585,A5,287.0,0.25,59,91.09
1586,B-5,287.25,0.25,52,91.09
1587,G5,287.5,0.25,52,91.09
1588,B-3,287.5,0.5,23,91.09
1589,E-3,287.5,0.5,23,91.09
1590,C4,287.5,0.5,23,91.09
1591,G3,287.5,0.5,23,91.09
1592,C5,287.75,0.25,52,91.09
1593,C5,288.0,0.25,59,91.09
1594,E-2,288.0,0.5,42,91.09
1595,C6,288.25,0.25,65,91.09
1596,B5,288.5,0.25,63,91.09
1597,G3,288.5,0.5,29,91.09
1598,C4,288.5,1.0,32,91.09
1599,E3,288.5,1.0,32,91.09
1600,B-5,288.75,0.25,59,91.09
1601,A5,289.0,0.25,59,91.09
1602,A3,289.0,0.5,35,91.09
1603,C5,289.25,0.25,51,91.09
1604,B-4,289.5,0.25,51,91.09
1605,C4,289.5,0.5,35,91.09
1606,E3,289.5,0.5,35,91.09
1607,B-3,289.5,0.5,35,91.09
1608,G5,289.75,0.25,59,91.09
1609,A4,290.0,0.25,59,91.09
1610,F2,290.0,0.5,44,91.09
1611,F5,290.25,0.25,49,91.09
1612,C5,290.5,0.25,56,91.09
1613,F3,290.5,1.5,32,91.09
1614,C4,290.5,0.5,35,91.09
1615,A3,290.5,0.5,35,91.09
1616,E-5,290.75,0.25,46,91.09
1617,B-4,291.0,0.25,59,91.09
1618,D4,291.0,0.5,34,91.09
1619,B-3,291.0,0.5,34,91.09
1620,D5,291.25,0.25,49,91.09
1621,A4,291.5,0.25,59,91.09
1622,E-4,291.5,0.5,33,91.09
1623,C4,291.5,0.5,33,91.09
1624,C5,291.75,0.25,46,91.09
1625,B-4,292.0,0.125,50,91.09
1626,B-2,292.0,0.25,35,91.09
1627,D6,292.25,0.25,57,91.09
1628,C#6,292.5,0.25,57,91.09
1629,B-3,292.5,1.0,21,91.09
1630,D4,292.5,1.0,21,91.09
1631,F3,292.5,1.0,21,91.09
1632,D6,292.75,0.25,51,91.09
1633,C#6,293.0,0.25,60,91.09
1634,D6,293.25,0.25,51,91.09
1635,B-5,293.5,0.25,51,91.09
1636,D4,293.5,0.5,22,91.09
1637,F3,293.5,0.5,22,91.09
1638,B-3,293.5,0.5,22,91.09
1639,G5,293.75,9/40,51,91.09
1640,G5,294.0,1.0,64,91.09
1641,D3,294.0,0.25,35,91.09
1642,F4,294.5,1.0,25,91.09
1643,F3,294.5,1.0,25,91.09
1644,B-3,294.5,1.0,25,91.09
1645,F5,295.0,0.5,57,91.09
1646,F4,295.5,0.5,24,91.09
1647,F3,295.5,0.5,24,91.09
1648,B-3,295.5,0.5,24,91.09
1649,B-5,295.875,0.125,52,91.09
1650,A5,296.0,0.25,59,91.09
1651,C3,296.0,0.25,35,91.09
1652,B-5,296.25,83/1000,49,91.09
1653,A5,296.333,83/1000,49,91.09
1654,G5,296.417,83/1000,49,91.09
1655,A5,296.5,0.25,58,91.09
1656,F3,296.5,1.0,21,91.09
1657,E-4,296.5,1.0,21,91.09
1658,A3,296.5,1.0,21,91.09
1659,B-5,296.75,0.25,51,91.09
1660,B5,297.0,0.25,58,91.09
1661,C6,297.25,0.25,48,91.09
1662,C#6,297.5,0.25,52,91.09
1663,A3,297.5,0.5,22,91.09
1664,E-4,297.5,0.5,22,91.09
1665,F3,297.5,0.5,22,91.09
1666,D6,297.75,0.25,56,91.09
1667,F6,298.0,0.75,69,91.09
1668,F2,298.0,0.25,35,91.09
1669,A3,298.5,1.0,25,91.09
1670,C4,298.5,1.0,25,91.09
1671,F3,298.5,1.0,25,91.09
1672,E6,298.75,0.25,65,91.09
1673,E-6,299.0,0.5,67,91.09
1674,C4,299.5,0.5,24,91.09
1675,F3,299.5,0.5,24,91.09
1676,A3,299.5,0.5,24,91.09
1677,D6,300.0,0.5,67,91.09
1678,B-2,300.0,0.25,35,91.09
1679,E6,300.5,0.25,60,91.09
1680,D4,300.5,1.0,21,91.09
1681,B-3,300.5,1.0,21,91.09
1682,F3,300.5,1.0,21,91.09
1683,F6,300.75,0.25,60,91.09
1684,A6,301.0,0.25,67,91.09
1685,B-6,301.25,0.25,62,91.09
1686,F6,301.5,0.25,64,91.09
1687,B-3,301.5,0.5,22,91.09
1688,F3,301.5,0.5,22,91.09
1689,D4,301.5,0.5,22,91.09
1690,D6,301.75,0.25,66,91.09
1691,C#6,302.0,0.5,74,91.09
1692,E2,302.0,0.25,35,91.09
1693,G6,302.5,0.25,59,91.09
1694,C#4,302.5,1.0,24,91.09
1695,B-3,302.5,1.0,24,91.09
1696,G3,302.5,1.0,24,91.09
1697,E3,302.5,1.0,24,91.09
1698,B-6,302.75,0.25,59,91.09
1699,C7,303.0,0.25,73,91.09
1700,C#7,303.25,0.25,59,91.09
1701,B-6,303.5,0.25,59,91.09
1702,C#4,303.5,0.5,23,91.09
1703,G3,303.5,0.5,23,91.09
1704,E3,303.5,0.5,23,91.09
1705,B-3,303.5,0.5,23,91.09
1706,C#6,303.75,0.25,59,91.09
1707,C6,304.0,0.25,50,91.09
1708,F3,304.0,2.0,42,91.09
1709,C4,304.0,1.5,42,91.09
1710,B-3,304.0,0.5,39,91.09
1711,D6,304.25,0.25,54,91.09
1712,E-6,304.5,0.25,58,91.09
1713,A3,304.5,0.25,39,91.09
1714,E6,304.75,0.25,61,91.09
1715,G3,304.75,0.25,42,91.09
1716,F6,305.0,0.25,59,91.09
1717,A3,305.0,0.5,48,91.09
1718,G6,305.25,0.25,51,91.09
1719,E-6,305.5,0.25,51,91.09
1720,E-4,305.5,0.5,36,91.09
1721,C4,305.5,0.5,36,91.09
1722,C6,305.75,0.25,48,91.09
1723,B-5,306.0,0.25,59,91.09
1724,B-3,306.0,2.0,44,91.09
1725,D4,306.0,2.0,44,91.09
1726,F5,306.25,0.25,49,91.09
1727,D5,306.5,0.25,50,91.09
1728,B-4,306.75,0.25,46,91.09
1729,A4,307.0,0.25,52,91.09
1730,B-4,307.25,0.25,49,91.09
1731,C5,307.5,0.25,47,91.09
1732,C#5,307.75,0.25,44,91.09
1733,D5,308.0,0.5,50,91.09
1734,B-2,308.0,0.25,35,91.09
1735,C#5,308.5,0.25,50,91.09
1736,F3,308.5,1.0,21,91.09
1737,B-3,308.5,1.0,21,91.09
1738,D4,308.5,1.0,21,91.09
1739,D5,308.75,0.25,45,91.09
1740,C#5,309.0,0.25,53,91.09
1741,D5,309.25,0.25,45,91.09
1742,B-4,309.5,0.25,45,91.09
1743,B-3,309.5,0.5,22,91.09
1744,D4,309.5,0.5,22,91.09
1745,F3,309.5,0.5,22,91.09
1746,G4,309.75,9/40,45,91.09
1747,G4,310.0,1.0,56,91.09
1748,D3,310.0,0.25,35,91.09
1749,D4,310.5,1.0,25,91.09
1750,B-3,310.5,1.0,25,91.09
1751,F3,310.5,1.0,25,91.09
1752,F4,311.0,0.5,50,91.09
1753,B-3,311.5,0.5,24,91.09
1754,F3,311.5,0.5,24,91.09
1755,D4,311.5,0.5,24,91.09
1756,B-4,311.875,0.125,46,91.09
1757,A4,312.0,0.25,52,91.09
1758,C3,312.0,0.25,35,91.09
1759,B-4,312.25,83/1000,43,91.09
1760,A4,312.333,83/1000,43,91.09
1761,G4,312.417,83/1000,43,91.09
1762,A4,312.5,0.25,51,91.09
1763,A3,312.5,1.0,21,91.09
1764,F3,312.5,1.0,21,91.09
1765,E-4,312.5,1.0,21,91.09
1766,B-4,312.75,0.25,45,91.09
1767,B4,313.0,0.25,51,91.09
1768,C5,313.25,0.25,42,91.09
1769,C#5,313.5,0.25,46,91.09
1770,A3,313.5,0.5,22,91.09
1771,F3,313.5,0.5,22,91.09
1772,E-4,313.5,0.5,22,91.09
1773,D5,313.75,0.25,49,91.09
1774,F5,314.0,1.0,63,91.09
1775,F2,314.0,0.25,35,91.09
1776,C4,314.5,1.0,25,91.09
1777,A3,314.5,1.0,25,91.09
1778,F3,314.5,1.0,25,91.09
1779,E-5,315.0,0.5,59,91.09
1780,A3,315.5,0.5,24,91.09
1781,F3,315.5,0.5,24,91.09
1782,C4,315.5,0.5,24,91.09
1783,D5,316.0,0.5,59,91.09
1784,B-2,316.0,0.25,35,91.09
1785,E5,316.5,0.25,53,91.09
1786,B-3,316.5,1.0,21,91.09
1787,F3,316.5,1.0,21,91.09
1788,D4,316.5,1.0,21,91.09
1789,F5,316.75,0.25,53,91.09
1790,A5,317.0,0.25,59,91.09
1791,B-5,317.25,0.25,52,91.09
1792,F5,317.5,0.25,52,91.09
1793,B-3,317.5,0.5,22,91.09
1794,F3,317.5,0.5,22,91.09
1795,D4,317.5,0.5,22,91.09
1796,D5,317.75,0.25,52,91.09
1797,C5,318.0,0.5,59,91.09
1798,E-2,318.0,0.25,35,91.09
1799,F#5,318.5,0.25,52,91.09
1800,B-3,318.5,1.0,24,91.09
1801,E-3,318.5,1.0,24,91.09
1802,C4,318.5,1.0,24,91.09
1803,G3,318.5,1.0,24,91.09
1804,G5,318.75,0.25,52,91.09
1805,A5,319.0,0.25,59,91.09
1806,B-5,319.25,0.25,52,91.09
1807,G5,319.5,0.25,52,91.09
1808,E-3,319.5,0.5,23,91.09
1809,C4,319.5,0.5,23,91.09
1810,B-3,319.5,0.5,23,91.09
1811,G3,319.5,0.5,23,91.09
1812,C5,319.75,0.25,52,91.09
1813,C5,320.0,0.25,59,91.09
1814,E-2,320.0,0.5,42,91.09
1815,C6,320.25,0.25,65,91.09
1816,B5,320.5,0.25,63,91.09
1817,G3,320.5,0.5,29,91.09
1818,C4,320.5,1.0,32,91.09
1819,E3,320.5,1.0,32,91.09
1820,B-5,320.75,0.25,59,91.09
1821,A5,321.0,0.25,59,91.09
1822,A3,321.0,0.5,35,91.09
1823,C5,321.25,0.25,51,91.09
1824,B-4,321.5,0.25,51,91.09
1825,E3,321.5,0.5,35,91.09
1826,C4,321.5,0.5,35,91.09
1827,B-3,321.5,0.5,35,91.09
1828,G5,321.75,0.25,59,91.09
1829,A4,322.0,0.25,59,91.09
1830,F2,322.0,0.5,44,91.09
1831,F5,322.25,0.25,49,91.09
1832,C5,322.5,0.25,56,91.09
1833,F3,322.5,1.5,32,91.09
1834,A3,322.5,0.5,35,91.09
1835,C4,322.5,0.5,35,91.09
1836,E-5,322.75,0.25,46,91.09
1837,B-4,323.0,0.25,59,91.09
1838,B-3,323.0,0.5,34,91.09
1839,D4,323.0,0.5,34,91.09
1840,D5,323.25,0.25,49,91.09
1841,A4,323.5,0.25,59,91.09
1842,E-4,323.5,0.5,33,91.09
1843,C4,323.5,0.5,33,91.09
1844,C5,323.75,0.25,46,91.09
1845,B-4,324.0,0.125,50,91.09
1846,B-2,324.0,0.25,35,91.09
1847,D6,324.25,0.25,57,91.09
1848,C#6,324.5,0.25,57,91.09
1849,F3,324.5,1.0,21,91.09
1850,D4,324.5,1.0,21,91.09
1851,B-3,324.5,1.0,21,91.09
1852,D6,324.75,0.25,51,91.09
1853,C#6,325.0,0.25,60,91.09
1854,D6,325.25,0.25,51,91.09
1855,B-5,325.5,0.25,51,91.09
1856,D4,325.5,0.5,22,91.09
1857,B-3,325.5,0.5,22,91.09
1858,F3,325.5,0.5,22,91.09
1859,G5,325.75,9/40,51,91.09
1860,G5,326.0,1.0,64,91.09
1861,D3,326.0,0.25,35,91.09
1862,B-3,326.5,1.0,25,91.09
1863,F4,326.5,1.0,25,91.09
1864,F3,326.5,1.0,25,91.09
1865,F5,327.0,0.5,57,91.09
1866,B-3,327.5,0.5,24,91.09
1867,F3,327.5,0.5,24,91.09
1868,F4,327.5,0.5,24,91.09
1869,B-5,327.875,0.125,52,91.09
1870,A5,328.0,0.25,59,91.09
1871,C3,328.0,0.25,35,91.09
1872,B-5,328.25,83/1000,49,91.09
1873,A5,328.333,83/1000,49,91.09
1874,G5,328.417,83/1000,49,91.09
1875,A5,328.5,0.25,58,91.09
1876,A3,328.5,1.0,21,91.09
1877,F3,328.5,1.0,21,91.09
1878,E-4,328.5,1.0,21,91.09
1879,B-5,328.75,0.25,51,91.09
1880,B5,329.0,0.25,58,91.09
1881,C6,329.25,0.25,48,91.09
1882,C#6,329.5,0.25,52,91.09
1883,A3,329.5,0.5,22,91.09
1884,E-4,329.5,0.5,22,91.09
1885,F3,329.5,0.5,22,91.09
1886,D6,329.75,0.25,56,91.09
1887,F6,330.0,0.75,69,91.09
1888,F2,330.0,0.25,35,91.09
1889,C4,330.5,1.0,25,91.09
1890,F3,330.5,1.0,25,91.09
1891,A3,330.5,1.0,25,91.09
1892,E6,330.75,0.25,65,91.09
1893,E-6,331.0,0.5,67,91.09
1894,A3,331.5,0.5,24,91.09
1895,C4,331.5,0.5,24,91.09
1896,F3,331.5,0.5,24,91.09
1897,D6,332.0,0.5,67,91.09
1898,B-2,332.0,0.25,35,91.09
1899,E6,332.5,0.25,60,91.09
1900,B-3,332.5,1.0,21,91.09
1901,F3,332.5,1.0,21,91.09
1902,D4,332.5,1.0,21,91.09
1903,F6,332.75,0.25,60,91.09
1904,A6,333.0,0.25,67,91.09
1905,B-6,333.25,0.25,62,91.09
1906,F6,333.5,0.25,64,91.09
1907,B-3,333.5,0.5,22,91.09
1908,F3,333.5,0.5,22,91.09
1909,D4,333.5,0.5,22,91.09
1910,D6,333.75,0.25,66,91.09
1911,C#6,334.0,0.5,74,91.09
1912,E2,334.0,0.25,35,91.09
1913,G6,334.5,0.25,59,91.09
1914,E3,334.5,1.0,24,91.09
1915,B-3,334.5,1.0,24,91.09
1916,G3,334.5,1.0,24,91.09
1917,C#4,334.5,1.0,24,91.09
1918,B-6,334.75,0.25,59,91.09
1919,C7,335.0,0.25,73,91.09
1920,C#7,335.25,0.25,59,91.09
1921,B-6,335.5,0.25,59,91.09
1922,C#4,335.5,0.5,23,91.09
1923,B-3,335.5,0.5,23,91.09
1924,E3,335.5,0.5,23,91.09
1925,G3,335.5,0.5,23,91.09
1926,C#6,335.75,0.25,59,91.09
1927,C6,336.0,0.25,50,91.09
1928,F3,336.0,2.0,42,91.09
1929,C4,336.0,1.5,42,91.09
1930,B-3,336.0,0.5,39,91.09
1931,D6,336.25,0.25,54,91.09
1932,E-6,336.5,0.25,58,91.09
1933,A3,336.5,0.25,39,91.09
1934,E6,336.75,0.25,61,91.09
1935,G3,336.75,0.25,42,91.09
1936,F6,337.0,0.25,59,91.09
1937,A3,337.0,0.5,48,91.09
1938,G6,337.25,0.25,51,91.09
1939,E-6,337.5,0.25,51,91.09
1940,C4,337.5,0.5,36,91.09
1941,E-4,337.5,0.5,36,91.09
1942,C6,337.75,0.25,48,91.09
1943,B-5,338.0,0.25,59,91.09
1944,D4,338.0,2.0,44,91.09
1945,B-3,338.0,2.0,44,91.09
1946,F5,338.25,0.25,49,91.09
1947,D5,338.5,0.25,50,91.09
1948,B-4,338.75,0.25,46,91.09
1949,A4,339.0,0.25,52,91.09
1950,B-4,339.25,0.25,49,91.09
1951,C5,339.5,0.25,47,91.09
1952,C#5,339.75,0.25,44,91.09
1953,D5,340.0,0.25,63,91.09
1954,D3,340.0,0.5,63,91.09
1955,F#3,340.5,0.25,52,91.09
1956,F#4,340.5,1.0,60,91.09
1957,A4,340.5,1.0,60,91.09
1958,D5,340.5,1.0,60,91.09
1959,C5,340.5,1.0,60,91.09
1960,A3,340.75,0.25,56,91.09
1961,C#4,341.0,0.25,62,91.09
1962,D4,341.25,0.25,52,91.09
1963,D3,341.5,0.25,61,91.09
1964,F#4,341.5,0.5,50,91.09
1965,D5,341.5,0.5,50,91.09
1966,A4,341.5,0.5,50,91.09
1967,C5,341.5,0.5,50,91.09
1968,D4,341.75,0.25,53,91.09
1969,B-2,342.0,0.25,63,91.09
1970,B-3,342.25,0.25,54,91.09
1971,A2,342.5,0.25,62,91.09
1972,D5,342.5,1.0,66,91.09
1973,G4,342.5,1.0,66,91.09
1974,G5,342.5,1.0,66,91.09
1975,B-4,342.5,1.0,66,91.09
1976,A3,342.75,0.25,57,91.09
1977,G2,343.0,0.25,65,91.09
1978,G3,343.25,0.25,60,91.09
1979,F#2,343.5,0.25,68,91.09
1980,D5,343.5,0.5,50,91.09
1981,B-4,343.5,0.5,50,91.09
1982,G4,343.5,0.5,50,91.09
1983,G5,343.5,0.5,50,91.09
1984,F#3,343.75,0.25,64,91.09
1985,G2,344.0,0.25,77,91.09
1986,G3,344.25,0.25,65,91.09
1987,F#4,344.5,0.5,57,91.09
1988,D5,344.5,1.0,68,91.09
1989,A2,344.5,0.25,73,91.09
1990,A3,344.75,0.25,62,91.09
1991,G4,345.0,0.5,70,91.09
1992,B-2,345.0,0.25,70,91.09
1993,B-3,345.25,0.25,62,91.09
1994,B2,345.5,0.25,67,91.09
1995,F5,345.5,0.5,59,91.09
1996,F4,345.5,0.5,59,91.09
1997,D5,345.5,0.5,59,91.09
1998,G4,345.5,0.5,59,91.09
1999,B3,345.75,0.25,61,91.09
2000,C5,346.0,1.5,67,91.09
2001,C3,346.0,0.5,68,91.09
2002,G4,346.0,2.0,72,91.09
2003,E4,346.0,2.0,72,91.09
2004,E5,346.0,2.0,72,91.09
2005,E3,346.5,0.25,51,91.09
2006,G3,346.75,0.25,57,91.09
2007,B3,347.0,0.25,57,91.09
2008,C4,347.25,0.25,53,91.09
2009,B-4,347.5,0.5,57,91.09
2010,C3,347.5,0.25,57,91.09
2011,C4,347.75,0.25,51,91.09
2012,F2,348.0,0.5,62,91.09
2013,A2,348.5,0.25,51,91.09
2014,C5,348.5,1.0,66,91.09
2015,A4,348.5,1.0,66,91.09
2016,F5,348.5,1.0,66,91.09
2017,A5,348.5,1.0,66,91.09
2018,C3,348.75,0.25,51,91.09
2019,E3,349.0,0.25,64,91.09
2020,F3,349.25,0.25,57,91.09
2021,A3,349.5,0.25,61,91.09
2022,C5,349.5,0.5,50,91.09
2023,A4,349.5,0.5,50,91.09
2024,F5,349.5,0.5,50,91.09
2025,A5,349.5,0.5,50,91.09
2026,C4,349.75,0.25,64,91.09
2027,D5,350.0,0.5,69,91.09
2028,B-2,350.0,0.5,63,91.09
2029,G5,350.5,0.25,57,91.09
2030,D4,350.5,1.0,55,91.09
2031,F4,350.5,1.0,55,91.09
2032,G3,350.5,1.0,55,91.09
2033,B-5,350.75,0.25,57,91.09
2034,C#6,351.0,0.25,65,91.09
2035,D6,351.25,0.25,57,91.09
2036,G6,351.5,0.25,65,91.09
2037,F4,351.5,0.5,54,91.09
2038,G3,351.5,0.5,54,91.09
2039,D4,351.5,0.5,54,91.09
2040,B-6,351.75,0.25,68,91.09
2041,E6,352.0,0.25,76,91.09
2042,C3,352.0,0.5,63,91.09
2043,C7,352.25,0.25,70,91.09
2044,B-6,352.5,0.25,71,91.09
2045,C4,352.5,1.0,53,91.09
2046,G3,352.5,1.0,53,91.09
2047,E4,352.5,1.0,53,91.09
2048,B-3,352.5,1.0,53,91.09
2049,G6,352.75,0.25,66,91.09
2050,E6,353.0,0.25,74,91.09
2051,C6,353.25,0.25,72,91.09
2052,B-5,353.5,0.25,69,91.09
2053,C4,353.5,0.5,56,91.09
2054,E4,353.5,0.5,56,91.09
2055,G5,353.75,0.25,67,91.09
2056,F5,354.0,0.5,60,91.09
2057,F3,354.0,0.25,54,91.09
2058,E-4,354.25,0.25,61,91.09
2059,C4,354.5,0.25,61,91.09
2060,E-5,354.5,1.5,53,91.09
2061,F5,354.5,1.5,53,91.09
2062,C5,354.5,1.5,53,91.09
2063,A4,354.5,1.5,53,91.09
2064,A3,354.75,0.25,60,91.09
2065,F3,355.0,0.25,58,91.09
2066,E-3,355.25,0.25,57,91.09
2067,C3,355.5,0.25,55,91.09
2068,F3,355.75,0.25,54,91.09
2069,D6,356.0,0.5,70,91.09
2070,B-2,356.0,0.5,35,91.09
2071,C#6,356.5,0.25,57,91.09
2072,D4,356.5,1.0,21,91.09
2073,F3,356.5,1.0,21,91.09
2074,B-3,356.5,1.0,21,91.09
2075,D6,356.75,0.25,51,91.09
2076,C#6,357.0,0.25,60,91.09
2077,D6,357.25,0.25,51,91.09
2078,F6,357.5,0.25,51,91.09
2079,D4,357.5,0.5,22,91.09
2080,B-3,357.5,0.5,22,91.09
2081,F3,357.5,0.5,22,91.09
2082,D6,357.75,0.25,51,91.09
2083,C6,358.0,1.0,64,91.09
2084,D3,358.0,0.5,35,91.09
2085,F4,358.5,1.0,25,91.09
2086,B-3,358.5,1.0,25,91.09
2087,G#3,358.5,1.0,25,91.09
2088,B-5,359.0,0.5,57,91.09
2089,B-3,359.5,0.5,24,91.09
2090,G#3,359.5,0.5,24,91.09
2091,F4,359.5,0.5,24,91.09
2092,B-5,359.875,0.125,52,91.09
2093,A5,360.0,0.25,59,91.09
2094,E-3,360.0,0.5,35,91.09
2095,B-5,360.25,0.25,49,91.09
2096,C6,360.5,0.25,58,91.09
2097,B-3,360.5,1.0,21,91.09
2098,G3,360.5,1.0,21,91.09
2099,E-4,360.5,1.0,21,91.09
2100,D6,360.75,0.25,51,91.09
2101,E-6,361.0,0.25,58,91.09
2102,E6,361.25,0.25,48,91.09
2103,F6,361.5,0.25,52,91.09
2104,E-4,361.5,0.5,22,91.09
2105,B-3,361.5,0.5,22,91.09
2106,G3,361.5,0.5,22,91.09
2107,F#6,361.75,0.25,56,91.09
2108,G6,362.0,0.125,69,91.09
2109,E3,362.0,0.5,35,91.09
2110,A6,362.125,0.125,58,91.09
2111,G6,362.25,0.125,63,91.09
2112,A6,362.375,0.125,58,91.09
2113,G6,362.5,0.125,63,91.09
2114,B-3,362.5,1.0,25,91.09
2115,C#4,362.5,1.0,25,91.09
2116,G4,362.5,1.0,25,91.09
2117,F#6,362.625,0.125,62,91.09
2118,G6,362.75,0.125,66,91.09
2119,A6,362.875,0.125,70,91.09
2120,B-6,363.0,0.25,74,91.09
2121,G4,363.5,0.5,24,91.09
2122,B-3,363.5,0.5,24,91.09
2123,C#4,363.5,0.5,24,91.09
2124,C5,363.875,0.062,41,91.09
2125,D5,363.938,0.062,41,91.09
2126,C5,364.0,0.5,51,91.09
2127,G3,364.0,0.5,31,91.09
2128,B4,364.5,0.25,40,91.09
2129,E4,364.5,1.0,19,91.09
2130,B-3,364.5,1.0,19,91.09
2131,C4,364.5,1.0,19,91.09
2132,C5,364.75,0.25,43,91.09
2133,E5,365.0,0.25,54,91.09
2134,B-5,365.25,0.25,42,91.09
2135,G5,365.5,0.25,42,91.09
2136,B-3,365.5,0.5,19,91.09
2137,E4,365.5,0.5,19,91.09
2138,C4,365.5,0.5,19,91.09
2139,E5,365.75,0.125,42,91.09
2140,F5,365.875,0.062,33,91.09
2141,G5,365.938,0.062,34,91.09
2142,F5,366.0,0.5,52,91.09
2143,F3,366.0,0.5,31,91.09
2144,E5,366.5,0.25,42,91.09
2145,D4,366.5,1.0,22,91.09
2146,F4,366.5,1.0,22,91.09
2147,B-3,366.5,1.0,22,91.09
2148,F5,366.75,0.25,42,91.09
2149,B-5,367.0,0.25,58,91.09
2150,F6,367.25,0.25,43,91.09
2151,D6,367.5,0.25,43,91.09
2152,F4,367.5,0.5,21,91.09
2153,D4,367.5,0.5,21,91.09
2154,B-3,367.5,0.5,21,91.09
2155,B-5,367.75,0.25,37,91.09
2156,A5,368.0,0.188,38,91.09
2157,F3,368.0,0.5,31,91.09
2158,B-5,368.25,0.188,32,91.09
2159,C6,368.5,0.188,35,91.09
2160,E-4,368.5,1.0,19,91.09
2161,C4,368.5,1.0,19,91.09
2162,F4,368.5,1.0,19,91.09
2163,D6,368.75,0.188,38,91.09
2164,E-6,369.0,0.188,41,91.09
2165,F6,369.25,0.188,44,91.09
2166,G6,369.5,0.188,48,91.09
2167,E-4,369.5,0.5,19,91.09
2168,F4,369.5,0.5,19,91.09
2169,C4,369.5,0.5,19,91.09
2170,A6,369.75,0.125,51,91.09
2171,C7,369.875,0.125,51,91.09
2172,B-6,370.0,0.188,54,91.09
2173,B-2,370.0,0.5,31,91.09
2174,F6,370.25,0.188,50,91.09
2175,D6,370.5,0.188,48,91.09
2176,D4,370.5,1.5,22,91.09
2177,B-3,370.5,1.5,22,91.09
2178,F4,370.5,1.5,22,91.09
2179,B-5,370.75,0.188,45,91.09
2180,F5,371.0,0.188,42,91.09
2181,D5,371.25,0.188,40,91.09
2182,B-4,371.5,0.188,37,91.09
2183,C5,371.75,0.188,34,91.09
2184,D5,372.0,0.25,63,91.09
2185,D3,372.0,0.5,63,91.09
2186,F#3,372.5,0.25,52,91.09
2187,A4,372.5,1.0,60,91.09
2188,D5,372.5,1.0,60,91.09
2189,C5,372.5,1.0,60,91.09
2190,F#4,372.5,1.0,60,91.09
2191,A3,372.75,0.25,56,91.09
2192,C#4,373.0,0.25,62,91.09
2193,D4,373.25,0.25,52,91.09
2194,D3,373.5,0.25,61,91.09
2195,A4,373.5,0.5,50,91.09
2196,D5,373.5,0.5,50,91.09
2197,C5,373.5,0.5,50,91.09
2198,F#4,373.5,0.5,50,91.09
2199,D4,373.75,0.25,53,91.09
2200,B-2,374.0,0.25,63,91.09
2201,B-3,374.25,0.25,54,91.09
2202,A2,374.5,0.25,62,91.09
2203,B-4,374.5,1.0,66,91.09
2204,G4,374.5,1.0,66,91.09
2205,D5,374.5,1.0,66,91.09
2206,G5,374.5,1.0,66,91.09
2207,A3,374.75,0.25,57,91.09
2208,G2,375.0,0.25,65,91.09
2209,G3,375.25,0.25,60,91.09
2210,F#2,375.5,0.25,68,91.09
2211,G4,375.5,0.5,50,91.09
2212,G5,375.5,0.5,50,91.09
2213,D5,375.5,0.5,50,91.09
2214,B-4,375.5,0.5,50,91.09
2215,F#3,375.75,0.25,64,91.09
2216,G2,376.0,0.25,77,91.09
2217,G3,376.25,0.25,65,91.09
2218,F#4,376.5,0.5,57,91.09
2219,D5,376.5,1.0,68,91.09
2220,A2,376.5,0.25,73,91.09
2221,A3,376.75,0.25,62,91.09
2222,G4,377.0,0.5,70,91.09
2223,B-2,377.0,0.25,70,91.09
2224,B-3,377.25,0.25,62,91.09
2225,B2,377.5,0.25,67,91.09
2226,D5,377.5,0.5,59,91.09
2227,G4,377.5,0.5,59,91.09
2228,F4,377.5,0.5,59,91.09
2229,F5,377.5,0.5,59,91.09
2230,B3,377.75,0.25,61,91.09
2231,C5,378.0,1.5,67,91.09
2232,C3,378.0,0.5,68,91.09
2233,G4,378.0,2.0,72,91.09
2234,E5,378.0,2.0,72,91.09
2235,E4,378.0,2.0,72,91.09
2236,E3,378.5,0.25,51,91.09
2237,G3,378.75,0.25,57,91.09
2238,B3,379.0,0.25,57,91.09
2239,C4,379.25,0.25,53,91.09
2240,B-4,379.5,0.5,57,91.09
2241,C3,379.5,0.25,57,91.09
2242,C4,379.75,0.25,51,91.09
2243,F2,380.0,0.5,62,91.09
2244,A2,380.5,0.25,51,91.09
2245,C5,380.5,1.0,66,91.09
2246,F5,380.5,1.0,66,91.09
2247,A4,380.5,1.0,66,91.09
2248,A5,380.5,1.0,66,91.09
2249,C3,380.75,0.25,51,91.09
2250,E3,381.0,0.25,64,91.09
2251,F3,381.25,0.25,57,91.09
2252,A3,381.5,0.25,61,91.09
2253,A4,381.5,0.5,50,91.09
2254,F5,381.5,0.5,50,91.09
2255,A5,381.5,0.5,50,91.09
2256,C5,381.5,0.5,50,91.09
2257,C4,381.75,0.25,64,91.09
2258,D5,382.0,0.5,69,91.09
2259,B-2,382.0,0.5,63,91.09
2260,G5,382.5,0.25,57,91.09
2261,D4,382.5,1.0,55,91.09
2262,F4,382.5,1.0,55,91.09
2263,G3,382.5,1.0,55,91.09
2264,B-5,382.75,0.25,57,91.09
2265,C#6,383.0,0.25,65,91.09
2266,D6,383.25,0.25,57,91.09
2267,G6,383.5,0.25,65,91.09
2268,D4,383.5,0.5,54,91.09
2269,F4,383.5,0.5,54,91.09
2270,G3,383.5,0.5,54,91.09
2271,B-6,383.75,0.25,68,91.09
2272,E6,384.0,0.25,76,91.09
2273,C3,384.0,0.5,63,91.09
2274,C7,384.25,0.25,70,91.09
2275,B-6,384.5,0.25,71,91.09
2276,B-3,384.5,1.0,53,91.09
2277,E4,384.5,1.0,53,91.09
2278,C4,384.5,1.0,53,91.09
2279,G3,384.5,1.0,53,91.09
2280,G6,384.75,0.25,66,91.09
2281,E6,385.0,0.25,74,91.09
2282,C6,385.25,0.25,72,91.09
2283,B-5,385.5,0.25,69,91.09
2284,C4,385.5,0.5,56,91.09
2285,E4,385.5,0.5,56,91.09
2286,G5,385.75,0.25,67,91.09
2287,F5,386.0,0.5,60,91.09
2288,F3,386.0,0.25,54,91.09
2289,E-4,386.25,0.25,61,91.09
2290,C4,386.5,0.25,61,91.09
2291,E-5,386.5,1.5,53,91.09
2292,A4,386.5,1.5,53,91.09
2293,F5,386.5,1.5,53,91.09
2294,C5,386.5,1.5,53,91.09
2295,A3,386.75,0.25,60,91.09
2296,F3,387.0,0.25,58,91.09
2297,E-3,387.25,0.25,57,91.09
2298,C3,387.5,0.25,55,91.09
2299,F3,387.75,0.25,54,91.09
2300,D6,388.0,0.5,70,91.09
2301,B-2,388.0,0.5,35,91.09
2302,C#6,388.5,0.25,57,91.09
2303,D4,388.5,1.0,21,91.09
2304,B-3,388.5,1.0,21,91.09
2305,F3,388.5,1.0,21,91.09
2306,D6,388.75,0.25,51,91.09
2307,C#6,389.0,0.25,60,91.09
2308,D6,389.25,0.25,51,91.09
2309,F6,389.5,0.25,51,91.09
2310,F3,389.5,0.5,22,91.09
2311,D4,389.5,0.5,22,91.09
2312,B-3,389.5,0.5,22,91.09
2313,D6,389.75,0.25,51,91.09
2314,C6,390.0,1.0,64,91.09
2315,D3,390.0,0.5,35,91.09
2316,F4,390.5,1.0,25,91.09
2317,B-3,390.5,1.0,25,91.09
2318,G#3,390.5,1.0,25,91.09
2319,B-5,391.0,0.5,57,91.09
2320,B-3,391.5,0.5,24,91.09
2321,G#3,391.5,0.5,24,91.09
2322,F4,391.5,0.5,24,91.09
2323,B-5,391.875,0.125,52,91.09
2324,A5,392.0,0.25,59,91.09
2325,E-3,392.0,0.5,35,91.09
2326,B-5,392.25,0.25,49,91.09
2327,C6,392.5,0.25,58,91.09
2328,G3,392.5,1.0,21,91.09
2329,B-3,392.5,1.0,21,91.09
2330,E-4,392.5,1.0,21,91.09
2331,D6,392.75,0.25,51,91.09
2332,E-6,393.0,0.25,58,91.09
2333,E6,393.25,0.25,48,91.09
2334,F6,393.5,0.25,52,91.09
2335,B-3,393.5,0.5,22,91.09
2336,E-4,393.5,0.5,22,91.09
2337,G3,393.5,0.5,22,91.09
2338,F#6,393.75,0.25,56,91.09
2339,G6,394.0,0.125,69,91.09
2340,E3,394.0,0.5,35,91.09
2341,A6,394.125,0.125,58,91.09
2342,G6,394.25,0.125,63,91.09
2343,A6,394.375,0.125,58,91.09
2344,G6,394.5,0.125,63,91.09
2345,B-3,394.5,1.0,25,91.09
2346,G4,394.5,1.0,25,91.09
2347,C#4,394.5,1.0,25,91.09
2348,F#6,394.625,0.125,62,91.09
2349,G6,394.75,0.125,66,91.09
2350,A6,394.875,0.125,70,91.09
2351,B-6,395.0,0.25,74,91.09
2352,C#4,395.5,0.5,24,91.09
2353,B-3,395.5,0.5,24,91.09
2354,G4,395.5,0.5,24,91.09
2355,C5,395.875,0.062,41,91.09
2356,D5,395.938,0.062,41,91.09
2357,C5,396.0,0.5,51,91.09
2358,G3,396.0,0.5,31,91.09
2359,B4,396.5,0.25,40,91.09
2360,C4,396.5,1.0,19,91.09
2361,B-3,396.5,1.0,19,91.09
2362,E4,396.5,1.0,19,91.09
2363,C5,396.75,0.25,43,91.09
2364,E5,397.0,0.25,54,91.09
2365,B-5,397.25,0.25,42,91.09
2366,G5,397.5,0.25,42,91.09
2367,B-3,397.5,0.5,19,91.09
2368,C4,397.5,0.5,19,91.09
2369,E4,397.5,0.5,19,91.09
2370,E5,397.75,0.125,42,91.09
2371,F5,397.875,0.062,33,91.09
2372,G5,397.938,0.062,34,91.09
2373,F5,398.0,0.5,52,91.09
2374,F3,398.0,0.5,31,91.09
2375,E5,398.5,0.25,42,91.09
2376,B-3,398.5,1.0,22,91.09
2377,D4,398.5,1.0,22,91.09
2378,F4,398.5,1.0,22,91.09
2379,F5,398.75,0.25,42,91.09
2380,B-5,399.0,0.25,58,91.09
2381,F6,399.25,0.25,43,91.09
2382,D6,399.5,0.25,43,91.09
2383,B-3,399.5,0.5,21,91.09
2384,D4,399.5,0.5,21,91.09
2385,F4,399.5,0.5,21,91.09
2386,B-5,399.75,0.25,37,91.09
2387,A5,400.0,0.188,38,91.09
2388,F3,400.0,0.5,31,91.09
2389,B-5,400.25,0.188,32,91.09
2390,C6,400.5,0.188,35,91.09
2391,C4,400.5,1.0,19,91.09
2392,E-4,400.5,1.0,19,91.09
2393,F4,400.5,1.0,19,91.09
2394,D6,400.75,0.188,38,91.09
2395,E-6,401.0,0.188,41,91.09
2396,F6,401.25,0.188,44,91.09
2397,G6,401.5,0.188,48,91.09
2398,F4,401.5,0.5,19,91.09
2399,C4,401.5,0.5,19,91.09
2400,E-4,401.5,0.5,19,91.09
2401,A6,401.75,0.125,51,91.09
2402,C7,401.875,0.125,51,91.09
2403,B-6,402.0,0.188,54,91.09
2404,F3,402.0,0.5,31,91.09
2405,A6,402.25,0.188,50,91.09
2406,G6,402.5,0.188,48,91.09
2407,F4,402.5,1.0,19,91.09
2408,D4,402.5,1.0,19,91.09
2409,B-3,402.5,1.0,19,91.09
2410,F6,402.75,0.188,45,91.09
2411,E-6,403.0,0.188,42,91.09
2412,D6,403.25,0.188,40,91.09
2413,C6,403.5,0.188,37,91.09
2414,F4,403.5,0.5,19,91.09
2415,B-3,403.5,0.5,19,91.09
2416,D4,403.5,0.5,19,91.09
2417,B5,403.75,0.125,34,91.09
2418,D6,403.875,0.125,51,91.09
2419,C6,404.0,0.188,54,91.09
2420,F2,404.0,0.5,31,91.09
2421,B-5,404.25,0.188,50,91.09
2422,A5,404.5,0.188,48,91.09
2423,C4,404.5,1.0,19,91.09
2424,E-4,404.5,1.0,19,91.09
2425,F3,404.5,1.0,19,91.09
2426,G5,404.75,0.188,45,91.09
2427,F5,405.0,0.188,42,91.09
2428,E-5,405.25,0.188,40,91.09
2429,D5,405.5,0.188,37,91.09
2430,F3,405.5,0.5,19,91.09
2431,E-4,405.5,0.5,19,91.09
2432,C4,405.5,0.5,19,91.09
2433,C#5,405.75,0.125,34,91.09
2434,C6,405.875,0.125,51,91.09
2435,F2,406.0,0.5,31,91.09
2436,D5,406.0,0.188,52,91.09
2437,B-5,406.0,0.188,52,91.09
2438,A5,406.25,0.188,50,91.09
2439,G5,406.5,0.188,48,91.09
2440,F3,406.5,1.0,19,91.09
2441,B-3,406.5,1.0,19,91.09
2442,D4,406.5,1.0,19,91.09
2443,F5,406.75,0.188,45,91.09
2444,E-5,407.0,0.188,42,91.09
2445,D5,407.25,0.188,40,91.09
2446,C5,407.5,0.188,37,91.09
2447,D4,407.5,0.375,19,91.09
2448,B-3,407.5,0.375,19,91.09
2449,F3,407.5,0.375,19,91.09
2450,B4,407.75,0.125,34,91.09
2451,D5,407.875,0.125,45,91.09
2452,C5,408.0,0.188,48,91.09
2453,F2,408.0,0.5,31,91.09
2454,B-4,408.25,0.188,45,91.09
2455,A4,408.5,0.188,43,91.09
2456,F3,408.5,1.0,19,91.09
2457,C4,408.5,1.0,19,91.09
2458,E-3,408.5,1.0,19,91.09
2459,G4,408.75,0.188,40,91.09
2460,F4,409.0,0.188,37,91.09
2461,E-4,409.25,0.188,36,91.09
2462,D4,409.5,0.188,33,91.09
2463,F3,409.5,0.5,19,91.09
2464,E-3,409.5,0.5,19,91.09
2465,A3,409.5,0.5,19,91.09
2466,C4,409.75,0.188,30,91.09
2467,B-3,410.0,1.5,34,91.09
2468,F3,410.25,1.25,31,91.09
2469,D3,410.5,1.0,29,91.09
2470,B-2,410.75,0.75,28,91.09
2471,B-1,411.0,0.5,26,91.09
2472,F4,411.5,0.5,46,91.09
2473,C#4,412.0,1.5,46,91.09
2474,F4,412.0,1.5,46,91.09
2475,C#5,412.0,1.5,46,91.09
2476,B-2,412.0,333/1000,33,91.09
2477,B-1,412.0,333/1000,33,91.09
2478,B-2,412.333,0.25,26,91.09
2479,F3,412.333,0.25,26,91.09
2480,C#3,412.333,0.25,26,91.09
2481,E3,412.667,0.25,26,91.09
2482,C#3,412.667,0.25,26,91.09
2483,B-2,412.667,0.25,26,91.09
2484,C#3,413.0,0.25,32,91.09
2485,F3,413.0,0.25,32,91.09
2486,B-2,413.0,0.25,32,91.09
2487,C#3,413.333,0.25,26,91.09
2488,B-2,413.333,0.25,26,91.09
2489,F#3,413.333,0.25,26,91.09
2490,F4,413.5,0.5,42,91.09
2491,C#5,413.5,0.5,42,91.09
2492,C#4,413.5,0.5,42,91.09
2493,C#3,413.667,0.25,26,91.09
2494,F3,413.667,0.25,26,91.09
2495,B-2,413.667,0.25,26,91.09
2496,F4,414.0,1.5,42,91.09
2497,C4,414.0,1.0,48,91.09
2498,C5,414.0,1.0,48,91.09
2499,C#2,414.0,333/1000,33,91.09
2500,C#3,414.0,333/1000,33,91.09
2501,F3,414.333,0.25,26,91.09
2502,C#3,414.333,0.25,26,91.09
2503,C#3,414.667,0.25,27,91.09
2504,E3,414.667,0.25,27,91.09
2505,B-4,415.0,0.5,38,91.09
2506,B-3,415.0,0.5,38,91.09
2507,C#3,415.0,0.25,28,91.09
2508,F3,415.0,0.25,28,91.09
2509,C#3,415.333,0.25,27,91.09
2510,F#3,415.333,0.25,27,91.09
2511,F4,415.5,0.5,41,91.09
2512,B-4,415.5,0.5,41,91.09
2513,B-3,415.5,0.5,41,91.09
2514,F3,415.667,0.25,27,91.09
2515,C#3,415.667,0.25,27,91.09
2516,F4,416.0,1.0,53,91.09
2517,C2,416.0,333/1000,36,91.09
2518,B-3,416.0,0.75,52,91.09
2519,B-4,416.0,0.75,52,91.09
2520,C3,416.333,333/1000,26,91.09
2521,F3,416.333,333/1000,26,91.09
2522,E-3,416.333,333/1000,26,91.09
2523,C3,416.667,333/1000,26,91.09
2524,E-3,416.667,333/1000,26,91.09
2525,E3,416.667,333/1000,26,91.09
2526,A3,416.75,0.25,48,91.09
2527,A4,416.75,0.25,48,91.09
2528,C4,417.0,333/1000,52,91.09
2529,C5,417.0,333/1000,52,91.09
2530,F3,417.0,333/1000,28,91.09
2531,E-3,417.0,333/1000,28,91.09
2532,C3,417.0,333/1000,28,91.09
2533,E-4,417.333,333/1000,54,91.09
2534,E-5,417.333,333/1000,54,91.09
2535,C3,417.333,333/1000,31,91.09
2536,E-3,417.333,333/1000,31,91.09
2537,F#4,417.667,333/1000,52,91.09
2538,E-5,417.667,333/1000,52,91.09
2539,C5,417.667,333/1000,52,91.09
2540,F#5,417.667,333/1000,52,91.09
2541,C3,417.667,333/1000,32,91.09
2542,F#3,417.667,333/1000,32,91.09
2543,E-3,417.667,333/1000,32,91.09
2544,A1,418.0,333/1000,45,91.09
2545,E-5,418.0,1.5,54,91.09
2546,C5,418.0,1.5,54,91.09
2547,F4,418.0,1.5,54,91.09
2548,F5,418.0,1.5,54,91.09
2549,F3,418.333,333/1000,31,91.09
2550,C3,418.333,333/1000,31,91.09
2551,A2,418.333,333/1000,31,91.09
2552,E3,418.667,333/1000,31,91.09
2553,C3,418.667,333/1000,31,91.09
2554,A2,418.667,333/1000,31,91.09
2555,F3,419.0,333/1000,33,91.09
2556,A2,419.0,333/1000,33,91.09
2557,C3,419.0,333/1000,33,91.09
2558,C3,419.333,333/1000,27,91.09
2559,F#3,419.333,333/1000,27,91.09
2560,A2,419.333,333/1000,27,91.09
2561,E-5,419.5,0.5,55,91.09
2562,E-4,419.5,0.5,55,91.09
2563,F3,419.667,333/1000,27,91.09
2564,A2,419.667,333/1000,27,91.09
2565,C3,419.667,333/1000,27,91.09
2566,B-1,420.0,333/1000,39,91.09
2567,E-4,420.0,0.75,63,91.09
2568,E-5,420.0,0.75,63,91.09
2569,F3,420.333,333/1000,28,91.09
2570,C#3,420.333,333/1000,28,91.09
2571,B-2,420.333,333/1000,28,91.09
2572,E3,420.667,333/1000,28,91.09
2573,B-2,420.667,333/1000,28,91.09
2574,C#3,420.667,333/1000,28,91.09
2575,C#4,420.75,0.25,59,91.09
2576,C#5,420.75,0.25,59,91.09
2577,B-3,421.0,0.25,64,91.09
2578,B-4,421.0,0.25,64,91.09
2579,C#3,421.0,0.25,35,91.09
2580,F3,421.0,0.25,35,91.09
2581,B-2,421.0,0.25,35,91.09
2582,C5,421.333,0.25,62,91.09
2583,C4,421.333,0.25,62,91.09
2584,B-2,421.333,0.25,28,91.09
2585,F#3,421.333,0.25,28,91.09
2586,C#3,421.333,0.25,28,91.09
2587,C#4,421.667,0.25,62,91.09
2588,C#5,421.667,0.25,62,91.09
2589,F3,421.667,0.25,28,91.09
2590,C#3,421.667,0.25,28,91.09
2591,B-2,421.667,0.25,28,91.09
2592,F#1,422.0,333/1000,39,91.09
2593,F4,422.0,0.75,71,91.09
2594,F5,422.0,0.75,71,91.09
2595,F#2,422.333,333/1000,27,91.09
2596,B-2,422.333,333/1000,27,91.09
2597,E-3,422.333,333/1000,27,91.09
2598,E-3,422.667,333/1000,28,91.09
2599,A2,422.667,333/1000,28,91.09
2600,F#2,422.667,333/1000,28,91.09
2601,E-4,422.75,9/40,60,91.09
2602,E-5,422.75,9/40,60,91.09
2603,E-4,423.0,0.25,68,91.09
2604,E-5,423.0,0.25,68,91.09
2605,B-2,423.0,0.25,30,91.09
2606,E-3,423.0,0.25,30,91.09
2607,F#2,423.0,0.25,30,91.09
2608,C#5,423.333,0.25,60,91.09
2609,C#4,423.333,0.25,60,91.09
2610,F3,423.333,0.25,29,91.09
2611,F#2,423.333,0.25,29,91.09
2612,B-2,423.333,0.25,29,91.09
2613,C5,423.667,0.25,60,91.09
2614,C4,423.667,0.25,60,91.09
2615,B-2,423.667,0.25,29,91.09
2616,F#2,423.667,0.25,29,91.09
2617,E-3,423.667,0.25,29,91.09
2618,B-4,424.0,0.75,66,91.09
2619,B-3,424.0,0.75,66,91.09
2620,F2,424.0,333/1000,44,91.09
2621,F1,424.0,333/1000,44,91.09
2622,F2,424.333,333/1000,31,91.09
2623,C#3,424.333,333/1000,31,91.09
2624,B-2,424.333,333/1000,31,91.09
2625,B-2,424.667,333/1000,31,91.09
2626,C3,424.667,333/1000,31,91.09
2627,F2,424.667,333/1000,31,91.09
2628,A4,424.75,0.25,56,91.09
2629,A3,424.75,0.25,56,91.09
2630,B-4,425.0,333/1000,66,91.09
2631,B-3,425.0,333/1000,66,91.09
2632,F2,425.0,333/1000,33,91.09
2633,B-2,425.0,333/1000,33,91.09
2634,C#3,425.0,333/1000,33,91.09
2635,C#5,425.333,333/1000,57,91.09
2636,C#4,425.333,333/1000,57,91.09
2637,B-2,425.333,333/1000,36,91.09
2638,E-3,425.333,333/1000,36,91.09
2639,F2,425.333,333/1000,36,91.09
2640,C4,425.667,3/10,57,91.09
2641,C5,425.667,3/10,57,91.09
2642,E3,425.667,333/1000,38,91.09
2643,F2,425.667,333/1000,38,91.09
2644,B-2,425.667,333/1000,38,91.09
2645,C4,426.0,1.5,66,91.09
2646,C5,426.0,1.5,66,91.09
2647,F1,426.0,333/1000,48,91.09
2648,F2,426.0,333/1000,48,91.09
2649,F2,426.333,333/1000,39,91.09
2650,F3,426.333,333/1000,39,91.09
2651,A2,426.333,333/1000,39,91.09
2652,E3,426.667,333/1000,39,91.09
2653,A2,426.667,333/1000,39,91.09
2654,F2,426.667,333/1000,39,91.09
2655,F2,427.0,333/1000,46,91.09
2656,F3,427.0,333/1000,46,91.09
2657,A2,427.0,333/1000,46,91.09
2658,F#3,427.333,333/1000,39,91.09
2659,F2,427.333,333/1000,39,91.09
2660,A2,427.333,333/1000,39,91.09
2661,F4,427.5,0.5,70,91.09
2662,F2,427.667,333/1000,39,91.09
2663,F3,427.667,333/1000,39,91.09
2664,A2,427.667,333/1000,39,91.09
2665,C#4,428.0,1.5,71,91.09
2666,C#5,428.0,1.5,71,91.09
2667,F4,428.0,1.5,71,91.09
2668,B-2,428.0,333/1000,46,91.09
2669,B-1,428.0,333/1000,46,91.09
2670,F3,428.333,0.25,37,91.09
2671,C#3,428.333,0.25,37,91.09
2672,B-2,428.333,0.25,37,91.09
2673,C#3,428.667,0.25,37,91.09
2674,B-2,428.667,0.25,37,91.09
2675,E3,428.667,0.25,37,91.09
2676,B-2,429.0,0.25,45,91.09
2677,C#3,429.0,0.25,45,91.09
2678,F3,429.0,0.25,45,91.09
2679,F#3,429.333,0.25,37,91.09
2680,B-2,429.333,0.25,37,91.09
2681,C#3,429.333,0.25,37,91.09
2682,C#5,429.5,0.5,66,91.09
2683,F4,429.5,0.5,66,91.09
2684,C#4,429.5,0.5,66,91.09
2685,F3,429.667,0.25,37,91.09
2686,B-2,429.667,0.25,37,91.09
2687,C#3,429.667,0.25,37,91.09
2688,F4,430.0,1.5,66,91.09
2689,C5,430.0,1.0,72,91.09
2690,C4,430.0,1.0,72,91.09
2691,C#3,430.0,333/1000,46,91.09
2692,C#2,430.0,333/1000,46,91.09
2693,C#3,430.333,0.25,36,91.09
2694,F3,430.333,0.25,36,91.09
2695,E3,430.667,0.25,38,91.09
2696,C#3,430.667,0.25,38,91.09
2697,B-3,431.0,0.5,60,91.09
2698,B-4,431.0,0.5,60,91.09
2699,C#3,431.0,0.25,40,91.09
2700,F3,431.0,0.25,40,91.09
2701,C#3,431.333,0.25,38,91.09
2702,F#3,431.333,0.25,38,91.09
2703,F4,431.5,0.5,64,91.09
2704,B-4,431.5,0.5,64,91.09
2705,B-3,431.5,0.5,64,91.09
2706,F3,431.667,0.25,38,91.09
2707,C#3,431.667,0.25,38,91.09
2708,F4,432.0,1.0,68,91.09
2709,C2,432.0,333/1000,50,91.09
2710,B-4,432.0,0.75,66,91.09
2711,B-3,432.0,0.75,66,91.09
2712,C3,432.333,333/1000,37,91.09
2713,E-3,432.333,333/1000,37,91.09
2714,F3,432.333,333/1000,37,91.09
2715,E-3,432.667,333/1000,37,91.09
2716,C3,432.667,333/1000,37,91.09
2717,E3,432.667,333/1000,37,91.09
2718,A4,432.75,0.25,62,91.09
2719,A3,432.75,0.25,62,91.09
2720,C5,433.0,333/1000,67,91.09
2721,C4,433.0,333/1000,67,91.09
2722,C3,433.0,333/1000,39,91.09
2723,F3,433.0,333/1000,39,91.09
2724,E-3,433.0,333/1000,39,91.09
2725,E-4,433.333,333/1000,70,91.09
2726,E-5,433.333,333/1000,70,91.09
2727,E-3,433.333,333/1000,44,91.09
2728,C3,433.333,333/1000,44,91.09
2729,C5,433.667,333/1000,66,91.09
2730,F#4,433.667,333/1000,66,91.09
2731,F#5,433.667,333/1000,66,91.09
2732,E-5,433.667,333/1000,66,91.09
2733,F#3,433.667,333/1000,45,91.09
2734,C3,433.667,333/1000,45,91.09
2735,E-3,433.667,333/1000,45,91.09
2736,A1,434.0,333/1000,63,91.09
2737,F4,434.0,1.5,70,91.09
2738,F5,434.0,1.5,70,91.09
2739,E-5,434.0,1.5,70,91.09
2740,C5,434.0,1.5,70,91.09
2741,A2,434.333,333/1000,43,91.09
2742,F3,434.333,333/1000,43,91.09
2743,C3,434.333,333/1000,43,91.09
2744,C3,434.667,333/1000,43,91.09
2745,A2,434.667,333/1000,43,91.09
2746,E3,434.667,333/1000,43,91.09
2747,C3,435.0,333/1000,47,91.09
2748,F3,435.0,333/1000,47,91.09
2749,A2,435.0,333/1000,47,91.09
2750,A2,435.333,333/1000,36,91.09
2751,F#3,435.333,333/1000,36,91.09
2752,C3,435.333,333/1000,36,91.09
2753,E-4,435.5,0.5,60,91.09
2754,E-5,435.5,0.5,60,91.09
2755,A2,435.667,333/1000,30,91.09
2756,F3,435.667,333/1000,30,91.09
2757,C3,435.667,333/1000,30,91.09
2758,B-1,436.0,333/1000,42,91.09
2759,E-4,436.0,0.75,69,91.09
2760,E-5,436.0,0.75,69,91.09
2761,B-2,436.333,333/1000,31,91.09
2762,F3,436.333,333/1000,31,91.09
2763,C#3,436.333,333/1000,31,91.09
2764,E3,436.667,333/1000,31,91.09
2765,B-2,436.667,333/1000,31,91.09
2766,C#3,436.667,333/1000,31,91.09
2767,C#4,436.75,0.25,59,91.09
2768,C#5,436.75,0.25,59,91.09
2769,B-3,437.0,0.25,64,91.09
2770,B-4,437.0,0.25,64,91.09
2771,F3,437.0,0.25,38,91.09
2772,C#3,437.0,0.25,38,91.09
2773,B-2,437.0,0.25,38,91.09
2774,C5,437.333,0.25,62,91.09
2775,C4,437.333,0.25,62,91.09
2776,C#3,437.333,0.25,31,91.09
2777,F#3,437.333,0.25,31,91.09
2778,B-2,437.333,0.25,31,91.09
2779,C#4,437.667,0.25,62,91.09
2780,C#5,437.667,0.25,62,91.09
2781,C#3,437.667,0.25,31,91.09
2782,F3,437.667,0.25,31,91.09
2783,B-2,437.667,0.25,31,91.09
2784,E2,438.0,333/1000,42,91.09
2785,C4,438.0,0.75,68,91.09
2786,C5,438.0,0.75,68,91.09
2787,G3,438.333,333/1000,30,91.09
2788,C3,438.333,333/1000,30,91.09
2789,B-2,438.333,333/1000,30,91.09
2790,G3,438.667,333/1000,26,91.09
2791,B-2,438.667,333/1000,26,91.09
2792,C#3,438.667,333/1000,26,91.09
2793,B-3,438.75,0.25,51,91.09
2794,B-4,438.75,0.25,51,91.09
2795,C#4,439.0,0.25,58,91.09
2796,C#5,439.0,0.25,58,91.09
2797,G3,439.0,0.25,28,91.09
2798,B-2,439.0,0.25,28,91.09
2799,C4,439.333,0.25,50,91.09
2800,C5,439.333,0.25,50,91.09
2801,C3,439.333,0.25,26,91.09
2802,B-2,439.333,0.25,26,91.09
2803,G3,439.333,0.25,26,91.09
2804,B-3,439.667,0.25,50,91.09
2805,B-4,439.667,0.25,50,91.09
2806,C#3,439.667,0.25,26,91.09
2807,G3,439.667,0.25,26,91.09
2808,B-2,439.667,0.25,26,91.09
2809,F2,440.0,333/1000,41,91.09
2810,F#3,440.0,0.75,55,91.09
2811,F#4,440.0,0.75,55,91.09
2812,B-2,440.333,333/1000,27,91.09
2813,C#3,440.333,333/1000,27,91.09
2814,B-2,440.667,333/1000,25,91.09
2815,C#3,440.667,333/1000,25,91.09
2816,F3,440.75,0.25,44,91.09
2817,F4,440.75,0.25,44,91.09
2818,F2,441.0,0.25,28,91.09
2819,F3,441.0,0.25,52,91.09
2820,F4,441.0,0.25,52,91.09
2821,F#3,441.333,0.25,44,91.09
2822,F#4,441.333,0.25,44,91.09
2823,C3,441.333,0.25,24,91.09
2824,A2,441.333,0.25,24,91.09
2825,F3,441.667,0.25,44,91.09
2826,F4,441.667,0.25,44,91.09
2827,C3,441.667,0.25,24,91.09
2828,A2,441.667,0.25,24,91.09
2829,B-3,442.0,1.5,55,91.09
2830,B-1,442.0,333/1000,31,91.09
2831,B-2,442.333,333/1000,20,91.09
2832,F3,442.333,333/1000,20,91.09
2833,C#3,442.333,333/1000,20,91.09
2834,B-2,442.667,333/1000,23,91.09
2835,C3,442.667,333/1000,23,91.09
2836,E-3,442.667,333/1000,23,91.09
2837,B-2,443.0,1.0,33,91.09
2838,C#3,443.0,1.0,33,91.09
2839,F5,443.5,0.5,50,91.09
2840,C#6,444.0,1.5,51,91.09
2841,F5,444.0,1.5,51,91.09
2842,C#5,444.0,1.5,51,91.09
2843,B-3,444.0,333/1000,33,91.09
2844,B-2,444.0,333/1000,33,91.09
2845,C#4,444.333,0.25,26,91.09
2846,B-3,444.333,0.25,26,91.09
2847,F4,444.333,0.25,26,91.09
2848,E4,444.667,0.25,26,91.09
2849,B-3,444.667,0.25,26,91.09
2850,C#4,444.667,0.25,26,91.09
2851,F4,445.0,0.25,32,91.09
2852,C#4,445.0,0.25,32,91.09
2853,B-3,445.0,0.25,32,91.09
2854,C#4,445.333,0.25,26,91.09
2855,F#4,445.333,0.25,26,91.09
2856,B-3,445.333,0.25,26,91.09
2857,F5,445.5,0.5,46,91.09
2858,C#5,445.5,0.5,46,91.09
2859,C#6,445.5,0.5,46,91.09
2860,C#4,445.667,0.25,26,91.09
2861,F4,445.667,0.25,26,91.09
2862,B-3,445.667,0.25,26,91.09
2863,F5,446.0,1.5,46,91.09
2864,C#3,446.0,333/1000,36,91.09
2865,C5,446.0,1.0,53,91.09
2866,C6,446.0,1.0,53,91.09
2867,F4,446.333,0.25,26,91.09
2868,C#4,446.333,0.25,26,91.09
2869,C#4,446.667,0.25,27,91.09
2870,E4,446.667,0.25,27,91.09
2871,B-4,447.0,0.5,42,91.09
2872,B-5,447.0,0.5,42,91.09
2873,C#4,447.0,0.25,28,91.09
2874,F4,447.0,0.25,28,91.09
2875,C#4,447.333,0.25,27,91.09
2876,F#4,447.333,0.25,27,91.09
2877,B-5,447.5,0.5,44,91.09
2878,B-4,447.5,0.5,44,91.09
2879,F5,447.5,0.5,44,91.09
2880,C#4,447.667,0.25,27,91.09
2881,F4,447.667,0.25,27,91.09
2882,F5,448.0,1.0,58,91.09
2883,C3,448.0,333/1000,36,91.09
2884,B-4,448.0,0.75,56,91.09
2885,B-5,448.0,0.75,56,91.09
2886,E-4,448.333,333/1000,26,91.09
2887,F4,448.333,333/1000,26,91.09
2888,C4,448.333,333/1000,26,91.09
2889,E4,448.667,333/1000,26,91.09
2890,C4,448.667,333/1000,26,91.09
2891,E-4,448.667,333/1000,26,91.09
2892,A4,448.75,0.25,53,91.09
2893,A5,448.75,0.25,53,91.09
2894,C5,449.0,333/1000,56,91.09
2895,C6,449.0,333/1000,56,91.09
2896,C4,449.0,333/1000,28,91.09
2897,E-4,449.0,333/1000,28,91.09
2898,F4,449.0,333/1000,28,91.09
2899,E-6,449.333,333/1000,59,91.09
2900,E-5,449.333,333/1000,59,91.09
2901,C4,449.333,333/1000,31,91.09
2902,E-4,449.333,333/1000,31,91.09
2903,E-6,449.667,333/1000,56,91.09
2904,C6,449.667,333/1000,56,91.09
2905,F#6,449.667,333/1000,56,91.09
2906,F#5,449.667,333/1000,56,91.09
2907,C4,449.667,333/1000,32,91.09
2908,E-4,449.667,333/1000,32,91.09
2909,F#4,449.667,333/1000,32,91.09
2910,A2,450.0,333/1000,45,91.09
2911,C6,450.0,1.5,59,91.09
2912,F5,450.0,1.5,59,91.09
2913,F6,450.0,1.5,59,91.09
2914,E-6,450.0,1.5,59,91.09
2915,F4,450.333,333/1000,31,91.09
2916,C4,450.333,333/1000,31,91.09
2917,A3,450.333,333/1000,31,91.09
2918,C4,450.667,333/1000,31,91.09
2919,E4,450.667,333/1000,31,91.09
2920,A3,450.667,333/1000,31,91.09
2921,C4,451.0,333/1000,36,91.09
2922,F4,451.0,333/1000,36,91.09
2923,A3,451.0,333/1000,36,91.09
2924,A3,451.333,333/1000,27,91.09
2925,F#4,451.333,333/1000,27,91.09
2926,C4,451.333,333/1000,27,91.09
2927,E-5,451.5,0.5,62,91.09
2928,E-6,451.5,0.5,62,91.09
2929,A3,451.667,333/1000,27,91.09
2930,F4,451.667,333/1000,27,91.09
2931,C4,451.667,333/1000,27,91.09
2932,B-2,452.0,333/1000,40,91.09
2933,E-5,452.0,0.75,72,91.09
2934,E-6,452.0,0.75,72,91.09
2935,F4,452.333,333/1000,30,91.09
2936,B-3,452.333,333/1000,30,91.09
2937,C#4,452.333,333/1000,30,91.09
2938,B-3,452.667,333/1000,30,91.09
2939,C#4,452.667,333/1000,30,91.09
2940,E4,452.667,333/1000,30,91.09
2941,C#5,452.75,0.25,64,91.09
2942,C#6,452.75,0.25,64,91.09
2943,B-4,453.0,0.25,70,91.09
2944,B-5,453.0,0.25,70,91.09
2945,B-3,453.0,0.25,36,91.09
2946,F4,453.0,0.25,36,91.09
2947,C#4,453.0,0.25,36,91.09
2948,C5,453.333,0.25,67,91.09
2949,C6,453.333,0.25,67,91.09
2950,F#4,453.333,0.25,30,91.09
2951,C#4,453.333,0.25,30,91.09
2952,B-3,453.333,0.25,30,91.09
2953,C#5,453.667,0.156,67,91.09
2954,C#6,453.667,0.156,67,91.09
2955,C#4,453.667,0.25,30,91.09
2956,F4,453.667,0.25,30,91.09
2957,B-3,453.667,0.25,30,91.09
2958,C#6,453.875,0.125,62,91.09
2959,F#2,454.0,333/1000,40,91.09
2960,F5,454.0,0.75,78,91.09
2961,F6,454.0,0.75,78,91.09
2962,F#3,454.333,333/1000,28,91.09
2963,E-4,454.333,333/1000,28,91.09
2964,B-3,454.333,333/1000,28,91.09
2965,A3,454.667,333/1000,30,91.09
2966,F#3,454.667,333/1000,30,91.09
2967,E-4,454.667,333/1000,30,91.09
2968,E-5,454.75,0.25,66,91.09
2969,E-6,454.75,0.25,66,91.09
2970,E-6,455.0,0.25,75,91.09
2971,E-5,455.0,0.25,75,91.09
2972,E-4,455.0,0.25,31,91.09
2973,B-3,455.0,0.25,31,91.09
2974,F#3,455.0,0.25,31,91.09
2975,C#5,455.333,0.25,65,91.09
2976,C#6,455.333,0.25,65,91.09
2977,B-3,455.333,0.25,30,91.09
2978,F4,455.333,0.25,30,91.09
2979,F#3,455.333,0.25,30,91.09
2980,C5,455.667,0.25,65,91.09
2981,C6,455.667,0.25,65,91.09
2982,E-4,455.667,0.25,30,91.09
2983,B-3,455.667,0.25,30,91.09
2984,F#3,455.667,0.25,30,91.09
2985,B-4,456.0,0.75,72,91.09
2986,B-5,456.0,0.75,72,91.09
2987,F3,456.0,333/1000,46,91.09
2988,F2,456.0,333/1000,46,91.09
2989,B-3,456.333,333/1000,32,91.09
2990,F3,456.333,333/1000,32,91.09
2991,C#4,456.333,333/1000,32,91.09
2992,B-3,456.667,333/1000,32,91.09
2993,F3,456.667,333/1000,32,91.09
2994,C4,456.667,333/1000,32,91.09
2995,A4,456.75,0.25,61,91.09
2996,A5,456.75,0.25,61,91.09
2997,B-5,457.0,333/1000,72,91.09
2998,B-4,457.0,333/1000,72,91.09
2999,C#4,457.0,333/1000,35,91.09
3000,F3,457.0,333/1000,35,91.09
3001,B-3,457.0,333/1000,35,91.09
3002,C#6,457.333,333/1000,62,91.09
3003,C#5,457.333,333/1000,62,91.09
3004,F3,457.333,333/1000,37,91.09
3005,B-3,457.333,333/1000,37,91.09
3006,E-4,457.333,333/1000,37,91.09
3007,C6,457.667,333/1000,62,91.09
3008,C5,457.667,333/1000,62,91.09
3009,F3,457.667,333/1000,36,91.09
3010,E4,457.667,333/1000,36,91.09
3011,B-3,457.667,333/1000,36,91.09
3012,C6,458.0,1.5,72,91.09
3013,C5,458.0,1.5,72,91.09
3014,F3,458.0,333/1000,46,91.09
3015,F2,458.0,333/1000,46,91.09
3016,F3,458.333,333/1000,37,91.09
3017,F4,458.333,333/1000,37,91.09
3018,A3,458.333,333/1000,37,91.09
3019,A3,458.667,333/1000,37,91.09
3020,E4,458.667,333/1000,37,91.09
3021,F3,458.667,333/1000,37,91.09
3022,A3,459.0,333/1000,44,91.09
3023,F3,459.0,333/1000,44,91.09
3024,F4,459.0,333/1000,44,91.09
3025,F3,459.333,333/1000,37,91.09
3026,A3,459.333,333/1000,37,91.09
3027,F#4,459.333,333/1000,37,91.09
3028,F5,459.5,0.5,77,91.09
3029,F4,459.667,333/1000,37,91.09
3030,F3,459.667,333/1000,37,91.09
3031,A3,459.667,333/1000,37,91.09
3032,F5,460.0,1.5,77,91.09
3033,C#6,460.0,1.5,77,91.09
3034,C#5,460.0,1.5,77,91.09
3035,B-2,460.0,333/1000,44,91.09
3036,B-3,460.0,333/1000,44,91.09
3037,B-3,460.333,333/1000,35,91.09
3038,C#4,460.333,333/1000,35,91.09
3039,F4,460.333,333/1000,35,91.09
3040,C#4,460.667,333/1000,35,91.09
3041,E4,460.667,333/1000,35,91.09
3042,B-3,460.667,333/1000,35,91.09
3043,F4,461.0,333/1000,43,91.09
3044,C#4,461.0,333/1000,43,91.09
3045,B-3,461.0,333/1000,43,91.09
3046,B-3,461.333,333/1000,35,91.09
3047,C#4,461.333,333/1000,35,91.09
3048,F#4,461.333,333/1000,35,91.09
3049,C#5,461.5,0.5,72,91.09
3050,C#6,461.5,0.5,72,91.09
3051,F5,461.5,0.5,72,91.09
3052,B-3,461.667,333/1000,35,91.09
3053,F4,461.667,333/1000,35,91.09
3054,C#4,461.667,333/1000,35,91.09
3055,F5,462.0,1.5,72,91.09
3056,C5,462.0,1.0,78,91.09
3057,C6,462.0,1.0,78,91.09
3058,C#3,462.0,333/1000,44,91.09
3059,C#4,462.0,333/1000,44,91.09
3060,F4,462.333,333/1000,34,91.09
3061,C#4,462.333,333/1000,34,91.09
3062,C#4,462.667,333/1000,36,91.09
3063,E4,462.667,333/1000,36,91.09
3064,B-4,463.0,0.5,66,91.09
3065,B-5,463.0,0.5,66,91.09
3066,F4,463.0,333/1000,38,91.09
3067,C#4,463.0,333/1000,38,91.09
3068,F#4,463.333,333/1000,36,91.09
3069,C#4,463.333,333/1000,36,91.09
3070,B-5,463.5,0.5,70,91.09
3071,F5,463.5,0.5,70,91.09
3072,B-4,463.5,0.5,70,91.09
3073,C#4,463.667,333/1000,36,91.09
3074,F4,463.667,333/1000,36,91.09
3075,F5,464.0,1.0,74,91.09
3076,C3,464.0,333/1000,48,91.09
3077,B-5,464.0,0.75,72,91.09
3078,B-4,464.0,0.75,72,91.09
3079,C4,464.333,333/1000,35,91.09
3080,F4,464.333,333/1000,35,91.09
3081,E-4,464.333,333/1000,35,91.09
3082,E4,464.667,333/1000,35,91.09
3083,C4,464.667,333/1000,35,91.09
3084,E-4,464.667,333/1000,35,91.09
3085,A4,464.75,0.25,68,91.09
3086,A5,464.75,0.25,68,91.09
3087,C6,465.0,333/1000,73,91.09
3088,C5,465.0,333/1000,73,91.09
3089,C4,465.0,333/1000,37,91.09
3090,F4,465.0,333/1000,37,91.09
3091,E-4,465.0,333/1000,37,91.09
3092,E-5,465.333,333/1000,76,91.09
3093,E-6,465.333,333/1000,76,91.09
3094,E-4,465.333,333/1000,42,91.09
3095,C4,465.333,333/1000,42,91.09
3096,F#5,465.667,333/1000,73,91.09
3097,F#6,465.667,333/1000,73,91.09
3098,C6,465.667,333/1000,73,91.09
3099,E-6,465.667,333/1000,73,91.09
3100,C4,465.667,333/1000,43,91.09
3101,F#4,465.667,333/1000,43,91.09
3102,E-4,465.667,333/1000,43,91.09
3103,A2,466.0,333/1000,60,91.09
3104,C6,466.0,1.5,76,91.09
3105,E-6,466.0,1.5,76,91.09
3106,F6,466.0,1.5,76,91.09
3107,F5,466.0,1.5,76,91.09
3108,F4,466.333,333/1000,41,91.09
3109,A3,466.333,333/1000,41,91.09
3110,C4,466.333,333/1000,41,91.09
3111,E4,466.667,333/1000,41,91.09
3112,A3,466.667,333/1000,41,91.09
3113,C4,466.667,333/1000,41,91.09
3114,C4,467.0,333/1000,45,91.09
3115,A3,467.0,333/1000,45,91.09
3116,F4,467.0,333/1000,45,91.09
3117,F#4,467.333,333/1000,37,91.09
3118,A3,467.333,333/1000,37,91.09
3119,C4,467.333,333/1000,37,91.09
3120,E-5,467.5,0.5,70,91.09
3121,E-6,467.5,0.5,70,91.09
3122,F4,467.667,333/1000,30,91.09
3123,C4,467.667,333/1000,30,91.09
3124,A3,467.667,333/1000,30,91.09
3125,B-2,468.0,333/1000,42,91.09
3126,E-5,468.0,0.75,72,91.09
3127,E-6,468.0,0.75,72,91.09
3128,B-3,468.333,333/1000,31,91.09
3129,F4,468.333,333/1000,31,91.09
3130,C#4,468.333,333/1000,31,91.09
3131,B-3,468.667,333/1000,31,91.09
3132,C#4,468.667,333/1000,31,91.09
3133,E4,468.667,333/1000,31,91.09
3134,C#5,468.75,0.25,61,91.09
3135,C#6,468.75,0.25,61,91.09
3136,B-5,469.0,0.25,66,91.09
3137,B-4,469.0,0.25,66,91.09
3138,C#4,469.0,0.25,38,91.09
3139,F4,469.0,0.25,38,91.09
3140,B-3,469.0,0.25,38,91.09
3141,C6,469.333,0.25,64,91.09
3142,C5,469.333,0.25,64,91.09
3143,C#4,469.333,0.25,31,91.09
3144,F#4,469.333,0.25,31,91.09
3145,B-3,469.333,0.25,31,91.09
3146,C#6,469.667,0.25,64,91.09
3147,C#5,469.667,0.25,64,91.09
3148,B-3,469.667,0.25,31,91.09
3149,C#4,469.667,0.25,31,91.09
3150,F4,469.667,0.25,31,91.09
3151,E3,470.0,333/1000,42,91.09
3152,C6,470.0,0.75,69,91.09
3153,C5,470.0,0.75,69,91.09
3154,G4,470.333,333/1000,30,91.09
3155,B-3,470.333,333/1000,30,91.09
3156,C4,470.333,333/1000,30,91.09
3157,B-3,470.667,333/1000,26,91.09
3158,G4,470.667,333/1000,26,91.09
3159,C#4,470.667,333/1000,26,91.09
3160,B-5,470.75,0.25,52,91.09
3161,B-4,470.75,0.25,52,91.09
3162,C#6,471.0,0.25,60,91.09
3163,C#5,471.0,0.25,60,91.09
3164,G4,471.0,0.25,28,91.09
3165,B-3,471.0,0.25,28,91.09
3166,C5,471.333,0.25,51,91.09
3167,C6,471.333,0.25,51,91.09
3168,B-3,471.333,0.25,26,91.09
3169,C4,471.333,0.25,26,91.09
3170,G4,471.333,0.25,26,91.09
3171,B-4,471.667,0.25,51,91.09
3172,B-5,471.667,0.25,51,91.09
3173,B-3,471.667,0.25,26,91.09
3174,G4,471.667,0.25,26,91.09
3175,C#4,471.667,0.25,26,91.09
3176,F3,472.0,333/1000,41,91.09
3177,F#4,472.0,0.75,56,91.09
3178,F#5,472.0,0.75,56,91.09
3179,C#4,472.333,333/1000,27,91.09
3180,B-3,472.333,333/1000,27,91.09
3181,C#4,472.667,333/1000,25,91.09
3182,B-3,472.667,333/1000,25,91.09
3183,F5,472.75,0.25,45,91.09
3184,F4,472.75,0.25,45,91.09
3185,F3,473.0,0.25,28,91.09
3186,F4,473.0,0.25,52,91.09
3187,F5,473.0,0.25,52,91.09
3188,F#4,473.333,0.25,46,91.09
3189,F#5,473.333,0.25,46,91.09
3190,C4,473.333,0.25,24,91.09
3191,A3,473.333,0.25,24,91.09
3192,F4,473.667,0.25,44,91.09
3193,F5,473.667,0.25,44,91.09
3194,A3,473.667,0.25,24,91.09
3195,C4,473.667,0.25,24,91.09
3196,B-2,474.0,333/1000,31,91.09
3197,B-3,474.0,1.5,57,91.09
3198,B-4,474.0,1.5,57,91.09
3199,F3,474.333,333/1000,20,91.09
3200,C#3,474.333,333/1000,20,91.09
3201,C3,474.667,333/1000,24,91.09
3202,E-3,474.667,333/1000,24,91.09
3203,C#3,475.0,0.5,30,91.09
3204,B-2,475.0,0.5,30,91.09
3205,C#4,475.5,0.5,72,91.09
3206,C#5,475.5,0.5,72,91.09
3207,C#2,476.0,167/1000,50,91.09
3208,C#4,476.0,1.0,80,91.09
3209,C#5,476.0,1.0,80,91.09
3210,G#3,476.333,3/10,37,91.09
3211,F3,476.333,3/10,37,91.09
3212,C#3,476.333,3/10,37,91.09
3213,G#3,476.667,3/10,37,91.09
3214,F3,476.667,3/10,37,91.09
3215,C#3,476.667,3/10,37,91.09
3216,C#4,477.0,333/1000,78,91.09
3217,C#5,477.0,333/1000,78,91.09
3218,C#3,477.0,3/10,40,91.09
3219,A3,477.0,3/10,40,91.09
3220,F3,477.0,3/10,40,91.09
3221,E-4,477.333,333/1000,73,91.09
3222,E-5,477.333,333/1000,73,91.09
3223,C#3,477.333,3/10,37,91.09
3224,A3,477.333,3/10,37,91.09
3225,F3,477.333,3/10,37,91.09
3226,C#4,477.667,333/1000,74,91.09
3227,C#5,477.667,333/1000,74,91.09
3228,F3,477.667,3/10,37,91.09
3229,A3,477.667,3/10,37,91.09
3230,C#3,477.667,3/10,37,91.09
3231,F#2,478.0,167/1000,50,91.09
3232,C#4,478.0,1.0,80,91.09
3233,C#5,478.0,1.0,80,91.09
3234,F#3,478.333,3/10,36,91.09
3235,B-3,478.333,3/10,36,91.09
3236,C#3,478.333,3/10,36,91.09
3237,F#3,478.667,3/10,37,91.09
3238,B-3,478.667,3/10,37,91.09
3239,C#3,478.667,3/10,37,91.09
3240,B-3,479.0,0.25,70,91.09
3241,B-4,479.0,0.75,70,91.09
3242,D2,479.0,167/1000,44,91.09
3243,G#3,479.333,3/10,38,91.09
3244,F3,479.333,3/10,38,91.09
3245,B-3,479.333,3/10,38,91.09
3246,D3,479.333,3/10,38,91.09
3247,D3,479.667,3/10,42,91.09
3248,G#3,479.667,3/10,42,91.09
3249,F3,479.667,3/10,42,91.09
3250,B-3,479.667,3/10,42,91.09
3251,B-4,479.75,0.25,77,91.09
3252,B-5,479.75,0.25,77,91.09
3253,E-2,480.0,167/1000,62,91.09
3254,B-4,480.0,0.75,83,91.09
3255,B-5,480.0,0.75,83,91.09
3256,E-3,480.333,333/1000,45,91.09
3257,B-3,480.333,333/1000,45,91.09
3258,F#3,480.333,333/1000,45,91.09
3259,F#3,480.667,333/1000,45,91.09
3260,B3,480.667,333/1000,45,91.09
3261,E-3,480.667,333/1000,45,91.09
3262,B5,480.75,583/1000,86,91.09
3263,B4,480.75,583/1000,86,91.09
3264,E2,481.0,167/1000,55,91.09
3265,C6,481.333,333/1000,83,91.09
3266,C5,481.333,333/1000,83,91.09
3267,B-3,481.333,333/1000,51,91.09
3268,E3,481.333,333/1000,51,91.09
3269,F#3,481.333,333/1000,51,91.09
3270,C4,481.333,333/1000,51,91.09
3271,C#6,481.667,26/125,85,91.09
3272,C#5,481.667,26/125,85,91.09
3273,F#3,481.667,333/1000,54,91.09
3274,B-3,481.667,333/1000,54,91.09
3275,C#4,481.667,333/1000,54,91.09
3276,E3,481.667,333/1000,54,91.09
3277,C#6,481.875,0.125,80,91.09
3278,F2,482.0,167/1000,78,91.09
3279,F5,482.0,0.75,90,91.09
3280,F6,482.0,0.75,90,91.09
3281,C#4,482.333,3/10,50,91.09
3282,B-3,482.333,3/10,50,91.09
3283,F3,482.333,3/10,50,91.09
3284,F3,482.667,3/10,46,91.09
3285,C#4,482.667,3/10,46,91.09
3286,B-3,482.667,3/10,46,91.09
3287,C#5,482.75,0.25,83,91.09
3288,C#6,482.75,0.25,83,91.09
3289,C6,483.0,0.5,78,91.09
3290,C5,483.0,0.5,78,91.09
3291,A3,483.0,3/10,47,91.09
3292,F3,483.0,3/10,47,91.09
3293,C4,483.0,3/10,47,91.09
3294,C4,483.333,3/10,36,91.09
3295,A3,483.333,3/10,36,91.09
3296,F3,483.333,3/10,36,91.09
3297,F3,483.667,3/10,30,91.09
3298,C4,483.667,3/10,30,91.09
3299,A3,483.667,3/10,30,91.09
3300,A2,484.0,333/1000,52,91.09
3301,C4,484.0,0.5,46,91.09
3302,C5,484.0,0.5,46,91.09
3303,C4,484.333,333/1000,27,91.09
3304,F3,484.333,333/1000,27,91.09
3305,A3,484.333,333/1000,27,91.09
3306,F5,484.5,0.5,40,91.09
3307,F4,484.5,0.5,40,91.09
3308,C4,484.667,333/1000,27,91.09
3309,A3,484.667,333/1000,27,91.09
3310,E3,484.667,333/1000,27,91.09
3311,A5,485.0,0.5,43,91.09
3312,A4,485.0,0.5,43,91.09
3313,F3,485.0,333/1000,27,91.09
3314,C4,485.0,333/1000,27,91.09
3315,A3,485.0,333/1000,27,91.09
3316,A3,485.333,333/1000,27,91.09
3317,F3,485.333,333/1000,27,91.09
3318,D4,485.333,333/1000,27,91.09
3319,C6,485.5,0.5,43,91.09
3320,C5,485.5,0.5,43,91.09
3321,A3,485.667,333/1000,27,91.09
3322,F3,485.667,333/1000,27,91.09
3323,C4,485.667,333/1000,27,91.09
3324,B-2,486.0,333/1000,44,91.09
3325,C6,486.0,1.0,50,91.09
3326,C5,486.0,1.0,50,91.09
3327,A3,486.333,333/1000,27,91.09
3328,E-4,486.333,333/1000,27,91.09
3329,F#3,486.333,333/1000,27,91.09
3330,D4,486.667,333/1000,27,91.09
3331,A3,486.667,333/1000,27,91.09
3332,F#3,486.667,333/1000,27,91.09
3333,B-4,487.0,333/1000,46,91.09
3334,B-5,487.0,333/1000,46,91.09
3335,B-3,487.0,333/1000,27,91.09
3336,D4,487.0,333/1000,27,91.09
3337,G3,487.0,333/1000,27,91.09
3338,A4,487.333,333/1000,40,91.09
3339,A5,487.333,333/1000,40,91.09
3340,D4,487.333,333/1000,27,91.09
3341,C4,487.333,333/1000,27,91.09
3342,A3,487.333,333/1000,27,91.09
3343,G4,487.667,333/1000,40,91.09
3344,G5,487.667,333/1000,40,91.09
3345,D4,487.667,333/1000,28,91.09
3346,B-3,487.667,333/1000,28,91.09
3347,C3,488.0,333/1000,40,91.09
3348,G4,488.0,333/1000,46,91.09
3349,G5,488.0,333/1000,46,91.09
3350,A5,488.333,3/10,40,91.09
3351,A4,488.333,3/10,40,91.09
3352,A3,488.333,3/10,30,91.09
3353,C4,488.333,3/10,30,91.09
3354,F4,488.667,3/10,40,91.09
3355,F5,488.667,3/10,40,91.09
3356,A3,488.667,3/10,30,91.09
3357,C4,488.667,3/10,30,91.09
3358,C3,489.0,333/1000,39,91.09
3359,F4,489.0,333/1000,46,91.09
3360,F5,489.0,333/1000,46,91.09
3361,G4,489.333,3/10,40,91.09
3362,G5,489.333,3/10,40,91.09
3363,C4,489.333,3/10,29,91.09
3364,B-3,489.333,3/10,29,91.09
3365,G3,489.333,3/10,29,91.09
3366,E5,489.667,3/10,40,91.09
3367,E4,489.667,3/10,40,91.09
3368,C4,489.667,3/10,29,91.09
3369,B-3,489.667,3/10,29,91.09
3370,G3,489.667,3/10,29,91.09
3371,F2,490.0,333/1000,40,91.09
3372,F5,490.0,1.0,45,91.09
3373,F4,490.0,1.0,45,91.09
3374,F3,490.333,333/1000,29,91.09
3375,A3,490.333,333/1000,29,91.09
3376,C4,490.333,333/1000,29,91.09
3377,F3,490.667,0.25,32,91.09
3378,E-3,491.0,333/1000,40,91.09
3379,F3,491.0,0.25,34,91.09
3380,E-5,491.0,333/1000,52,91.09
3381,E-4,491.0,333/1000,52,91.09
3382,F3,491.333,0.25,37,91.09
3383,C#3,491.333,333/1000,44,91.09
3384,C#5,491.333,333/1000,54,91.09
3385,C#4,491.333,333/1000,54,91.09
3386,F3,491.667,0.25,40,91.09
3387,C3,491.667,333/1000,48,91.09
3388,C5,491.667,333/1000,58,91.09
3389,C4,491.667,333/1000,58,91.09
3390,C4,492.0,1.0,61,91.09
3391,C5,492.0,1.0,61,91.09
3392,F#2,492.0,167/1000,46,91.09
3393,F#1,492.0,167/1000,46,91.09
3394,F#2,492.333,333/1000,39,91.09
3395,C#3,492.333,333/1000,39,91.09
3396,B-2,492.333,333/1000,39,91.09
3397,F#2,492.667,333/1000,39,91.09
3398,C3,492.667,333/1000,39,91.09
3399,B-2,492.667,333/1000,39,91.09
3400,B-4,493.0,0.5,56,91.09
3401,B-3,493.0,0.5,56,91.09
3402,F#2,493.0,333/1000,46,91.09
3403,C#3,493.0,333/1000,46,91.09
3404,B-2,493.0,333/1000,46,91.09
3405,F#2,493.333,333/1000,40,91.09
3406,B-2,493.333,333/1000,40,91.09
3407,E-3,493.333,333/1000,40,91.09
3408,B-3,493.5,0.5,56,91.09
3409,B-4,493.5,0.5,56,91.09
3410,C#3,493.667,333/1000,40,91.09
3411,B-2,493.667,333/1000,40,91.09
3412,F#2,493.667,333/1000,40,91.09
3413,C4,494.0,1.0,64,91.09
3414,C5,494.0,1.0,64,91.09
3415,F1,494.0,167/1000,47,91.09
3416,F2,494.0,167/1000,47,91.09
3417,B-2,494.333,333/1000,38,91.09
3418,C#3,494.333,333/1000,38,91.09
3419,F2,494.333,333/1000,38,91.09
3420,F2,494.667,333/1000,38,91.09
3421,C3,494.667,333/1000,38,91.09
3422,B-2,494.667,333/1000,38,91.09
3423,B-3,495.0,0.5,58,91.09
3424,B-4,495.0,0.5,58,91.09
3425,F2,495.0,333/1000,46,91.09
3426,B-2,495.0,333/1000,46,91.09
3427,C#3,495.0,333/1000,46,91.09
3428,F2,495.333,333/1000,41,91.09
3429,E-3,495.333,333/1000,41,91.09
3430,B-2,495.333,333/1000,41,91.09
3431,B-4,495.5,0.5,62,91.09
3432,B-3,495.5,0.5,62,91.09
3433,C#3,495.667,333/1000,41,91.09
3434,F2,495.667,333/1000,41,91.09
3435,B-2,495.667,333/1000,41,91.09
3436,D2,496.0,167/1000,51,91.09
3437,B3,496.0,333/1000,64,91.09
3438,B4,496.0,333/1000,64,91.09
3439,B-3,496.333,333/1000,58,91.09
3440,B-4,496.333,333/1000,58,91.09
3441,D3,496.333,333/1000,36,91.09
3442,G#3,496.333,333/1000,36,91.09
3443,F3,496.333,333/1000,36,91.09
3444,D4,496.667,333/1000,59,91.09
3445,D5,496.667,333/1000,59,91.09
3446,D3,496.667,333/1000,37,91.09
3447,A3,496.667,333/1000,37,91.09
3448,F3,496.667,333/1000,37,91.09
3449,F5,497.0,333/1000,64,91.09
3450,F4,497.0,333/1000,64,91.09
3451,B-3,497.0,333/1000,42,91.09
3452,D3,497.0,333/1000,42,91.09
3453,F3,497.0,333/1000,42,91.09
3454,G#4,497.333,333/1000,68,91.09
3455,G#5,497.333,333/1000,68,91.09
3456,D3,497.333,333/1000,47,91.09
3457,F3,497.333,333/1000,47,91.09
3458,G#3,497.333,333/1000,47,91.09
3459,F5,497.667,333/1000,70,91.09
3460,B5,497.667,333/1000,70,91.09
3461,B4,497.667,333/1000,70,91.09
3462,G#5,497.667,333/1000,70,91.09
3463,G#3,497.667,333/1000,50,91.09
3464,D3,497.667,333/1000,50,91.09
3465,F3,497.667,333/1000,50,91.09
3466,B3,497.667,333/1000,50,91.09
3467,E-2,498.0,167/1000,62,91.09
3468,B-4,498.0,1.5,78,91.09
3469,B-5,498.0,1.5,78,91.09
3470,F5,498.0,1.0,71,91.09
3471,G#5,498.0,1.0,71,91.09
3472,E-3,498.333,333/1000,36,91.09
3473,B-3,498.333,333/1000,36,91.09
3474,F#3,498.333,333/1000,36,91.09
3475,E-3,498.667,333/1000,36,91.09
3476,F#3,498.667,333/1000,36,91.09
3477,A3,498.667,333/1000,36,91.09
3478,E-5,499.0,0.5,59,91.09
3479,F#5,499.0,0.5,59,91.09
3480,E-3,499.0,333/1000,44,91.09
3481,F#3,499.0,333/1000,44,91.09
3482,B-3,499.0,333/1000,44,91.09
3483,F#3,499.333,333/1000,36,91.09
3484,E-3,499.333,333/1000,36,91.09
3485,B3,499.333,333/1000,36,91.09
3486,E-5,499.5,0.5,52,91.09
3487,E-4,499.5,0.5,52,91.09
3488,F#3,499.667,333/1000,36,91.09
3489,B-3,499.667,333/1000,36,91.09
3490,E-3,499.667,333/1000,36,91.09
3491,B-2,500.0,333/1000,40,91.09
3492,C#4,500.0,0.75,57,91.09
3493,C#5,500.0,0.75,57,91.09
3494,F#3,500.333,3/10,28,91.09
3495,B-3,500.333,3/10,28,91.09
3496,F#3,500.667,3/10,28,91.09
3497,B-3,500.667,3/10,28,91.09
3498,C4,500.75,0.25,52,91.09
3499,C5,500.75,0.25,52,91.09
3500,C4,501.0,333/1000,55,91.09
3501,C5,501.0,333/1000,55,91.09
3502,B-3,501.0,3/10,34,91.09
3503,F#3,501.0,3/10,34,91.09
3504,C#4,501.333,333/1000,52,91.09
3505,C#5,501.333,333/1000,52,91.09
3506,B-3,501.333,3/10,28,91.09
3507,F#3,501.333,3/10,28,91.09
3508,E-5,501.667,26/125,52,91.09
3509,E-4,501.667,26/125,52,91.09
3510,C4,501.667,333/1000,26,91.09
3511,B-3,501.667,333/1000,26,91.09
3512,F#3,501.667,333/1000,26,91.09
3513,E-5,501.875,0.125,46,91.09
3514,F2,502.0,333/1000,40,91.09
3515,F#4,502.0,0.75,57,91.09
3516,F#5,502.0,0.75,57,91.09
3517,B-3,502.333,3/10,25,91.09
3518,C#4,502.333,3/10,25,91.09
3519,F3,502.333,3/10,25,91.09
3520,C#4,502.667,3/10,26,91.09
3521,B-3,502.667,3/10,26,91.09
3522,F3,502.667,3/10,26,91.09
3523,F4,502.75,0.25,52,91.09
3524,F5,502.75,0.25,52,91.09
3525,F5,503.0,333/1000,52,91.09
3526,F4,503.0,333/1000,52,91.09
3527,C#4,503.0,3/10,28,91.09
3528,B-3,503.0,3/10,28,91.09
3529,F3,503.0,3/10,28,91.09
3530,B-4,503.333,333/1000,55,91.09
3531,B-5,503.333,333/1000,55,91.09
3532,B-3,503.333,3/10,27,91.09
3533,E3,503.333,3/10,27,91.09
3534,C#4,503.333,3/10,27,91.09
3535,C#5,503.667,333/1000,57,91.09
3536,C#6,503.667,333/1000,57,91.09
3537,F3,503.667,3/10,27,91.09
3538,B-3,503.667,3/10,27,91.09
3539,C#4,503.667,3/10,27,91.09
3540,E2,504.0,333/1000,45,91.09
3541,C#5,504.0,0.75,60,91.09
3542,C#6,504.0,0.75,60,91.09
3543,B-3,504.333,3/10,34,91.09
3544,C#4,504.333,3/10,34,91.09
3545,F#3,504.333,3/10,34,91.09
3546,E3,504.333,3/10,34,91.09
3547,B-3,504.667,3/10,30,91.09
3548,F#3,504.667,3/10,30,91.09
3549,C4,504.667,3/10,30,91.09
3550,E3,504.667,3/10,30,91.09
3551,C6,504.75,0.25,49,91.09
3552,C5,504.75,0.25,49,91.09
3553,F2,505.0,333/1000,39,91.09
3554,C5,505.0,333/1000,50,91.09
3555,C6,505.0,333/1000,50,91.09
3556,E-5,505.333,333/1000,42,91.09
3557,E-6,505.333,333/1000,42,91.09
3558,A3,505.333,333/1000,29,91.09
3559,F3,505.333,333/1000,29,91.09
3560,C4,505.333,333/1000,29,91.09
3561,F#4,505.333,333/1000,29,91.09
3562,A4,505.667,333/1000,42,91.09
3563,A5,505.667,333/1000,42,91.09
3564,F3,505.667,333/1000,29,91.09
3565,C4,505.667,333/1000,29,91.09
3566,E-4,505.667,333/1000,29,91.09
3567,F4,505.667,333/1000,29,91.09
3568,B-2,506.0,333/1000,42,91.09
3569,B-4,506.0,1.5,50,91.09
3570,B-5,506.0,1.5,50,91.09
3571,F3,506.333,3/10,30,91.09
3572,F4,506.333,3/10,30,91.09
3573,C#4,506.333,3/10,30,91.09
3574,F3,506.667,3/10,30,91.09
3575,E-4,506.667,3/10,30,91.09
3576,C4,506.667,3/10,30,91.09
3577,C#4,507.0,0.5,36,91.09
3578,F3,507.0,0.5,36,91.09
3579,B-3,507.0,0.5,36,91.09
3580,C#5,507.5,9/20,72,91.09
3581,C#4,507.5,9/20,72,91.09
3582,C#2,508.0,167/1000,50,91.09
3583,C#5,508.0,1.0,80,91.09
3584,C#4,508.0,1.0,80,91.09
3585,F3,508.333,3/10,37,91.09
3586,C#3,508.333,3/10,37,91.09
3587,G#3,508.333,3/10,37,91.09
3588,C#3,508.667,3/10,37,91.09
3589,G#3,508.667,3/10,37,91.09
3590,F3,508.667,3/10,37,91.09
3591,C#5,509.0,333/1000,78,91.09
3592,C#4,509.0,333/1000,78,91.09
3593,C#3,509.0,3/10,40,91.09
3594,F3,509.0,3/10,40,91.09
3595,A3,509.0,3/10,40,91.09
3596,E-4,509.333,333/1000,73,91.09
3597,E-5,509.333,333/1000,73,91.09
3598,F3,509.333,3/10,37,91.09
3599,C#3,509.333,3/10,37,91.09
3600,A3,509.333,3/10,37,91.09
3601,C#4,509.667,333/1000,74,91.09
3602,C#5,509.667,333/1000,74,91.09
3603,A3,509.667,3/10,37,91.09
3604,C#3,509.667,3/10,37,91.09
3605,F3,509.667,3/10,37,91.09
3606,F#2,510.0,167/1000,50,91.09
3607,C#4,510.0,1.0,80,91.09
3608,C#5,510.0,1.0,80,91.09
3609,C#3,510.333,3/10,36,91.09
3610,F#3,510.333,3/10,36,91.09
3611,B-3,510.333,3/10,36,91.09
3612,C#3,510.667,3/10,37,91.09
3613,B-3,510.667,3/10,37,91.09
3614,F#3,510.667,3/10,37,91.09
3615,B-4,511.0,0.75,70,91.09
3616,B-3,511.0,0.25,70,91.09
3617,D2,511.0,167/1000,44,91.09
3618,D3,511.333,3/10,38,91.09
3619,F3,511.333,3/10,38,91.09
3620,B-3,511.333,3/10,38,91.09
3621,G#3,511.333,3/10,38,91.09
3622,F3,511.667,3/10,42,91.09
3623,G#3,511.667,3/10,42,91.09
3624,D3,511.667,3/10,42,91.09
3625,B-3,511.667,3/10,42,91.09
3626,B-5,511.75,0.25,77,91.09
3627,B-4,511.75,0.25,77,91.09
3628,E-2,512.0,167/1000,62,91.09
3629,B-5,512.0,0.75,83,91.09
3630,B-4,512.0,0.75,83,91.09
3631,B-3,512.333,333/1000,45,91.09
3632,F#3,512.333,333/1000,45,91.09
3633,E-3,512.333,333/1000,45,91.09
3634,E-3,512.667,333/1000,45,91.09
3635,F#3,512.667,333/1000,45,91.09
3636,B3,512.667,333/1000,45,91.09
3637,B4,512.75,583/1000,86,91.09
3638,B5,512.75,583/1000,86,91.09
3639,E2,513.0,167/1000,55,91.09
3640,C5,513.333,333/1000,83,91.09
3641,C6,513.333,333/1000,83,91.09
3642,B-3,513.333,333/1000,51,91.09
3643,C4,513.333,333/1000,51,91.09
3644,E3,513.333,333/1000,51,91.09
3645,F#3,513.333,333/1000,51,91.09
3646,C#6,513.667,26/125,85,91.09
3647,C#5,513.667,26/125,85,91.09
3648,C#4,513.667,333/1000,54,91.09
3649,E3,513.667,333/1000,54,91.09
3650,F#3,513.667,333/1000,54,91.09
3651,B-3,513.667,333/1000,54,91.09
3652,C#6,513.875,0.125,80,91.09
3653,F2,514.0,167/1000,78,91.09
3654,F5,514.0,0.75,90,91.09
3655,F6,514.0,0.75,90,91.09
3656,C#4,514.333,3/10,50,91.09
3657,F3,514.333,3/10,50,91.09
3658,B-3,514.333,3/10,50,91.09
3659,F3,514.667,3/10,46,91.09
3660,C#4,514.667,3/10,46,91.09
3661,B-3,514.667,3/10,46,91.09
3662,C#5,514.75,0.25,83,91.09
3663,C#6,514.75,0.25,83,91.09
3664,C6,515.0,0.5,78,91.09
3665,C5,515.0,0.5,78,91.09
3666,A3,515.0,3/10,47,91.09
3667,F3,515.0,3/10,47,91.09
3668,C4,515.0,3/10,47,91.09
3669,A3,515.333,3/10,36,91.09
3670,C4,515.333,3/10,36,91.09
3671,F3,515.333,3/10,36,91.09
3672,F3,515.667,3/10,30,91.09
3673,C4,515.667,3/10,30,91.09
3674,A3,515.667,3/10,30,91.09
3675,C4,516.0,331/1000,42,91.09
3676,C5,516.0,0.5,50,91.09
3677,A2,516.0,333/1000,52,91.09
3678,F3,516.333,3/10,27,91.09
3679,A3,516.333,3/10,27,91.09
3680,C4,516.333,3/10,27,91.09
3681,F4,516.5,0.5,40,91.09
3682,F5,516.5,0.5,40,91.09
3683,E3,516.667,3/10,27,91.09
3684,A3,516.667,3/10,27,91.09
3685,C4,516.667,3/10,27,91.09
3686,A4,517.0,0.5,43,91.09
3687,A5,517.0,0.5,43,91.09
3688,C4,517.0,3/10,27,91.09
3689,A3,517.0,3/10,27,91.09
3690,F3,517.0,3/10,27,91.09
3691,F3,517.333,3/10,27,91.09
3692,A3,517.333,3/10,27,91.09
3693,D4,517.333,3/10,27,91.09
3694,C5,517.5,0.5,43,91.09
3695,C6,517.5,0.5,43,91.09
3696,A3,517.667,3/10,27,91.09
3697,C4,517.667,3/10,27,91.09
3698,F3,517.667,3/10,27,91.09
3699,B-2,518.0,333/1000,44,91.09
3700,C6,518.0,1.0,50,91.09
3701,C5,518.0,1.0,50,91.09
3702,F#3,518.333,3/10,27,91.09
3703,E-4,518.333,3/10,27,91.09
3704,A3,518.333,3/10,27,91.09
3705,D4,518.667,3/10,27,91.09
3706,F#3,518.667,3/10,27,91.09
3707,A3,518.667,3/10,27,91.09
3708,B-4,519.0,333/1000,46,91.09
3709,B-5,519.0,333/1000,46,91.09
3710,B-3,519.0,3/10,27,91.09
3711,G3,519.0,3/10,27,91.09
3712,D4,519.0,3/10,27,91.09
3713,A4,519.333,333/1000,40,91.09
3714,A5,519.333,333/1000,40,91.09
3715,C4,519.333,3/10,27,91.09
3716,D4,519.333,3/10,27,91.09
3717,A3,519.333,3/10,27,91.09
3718,G4,519.667,333/1000,40,91.09
3719,G5,519.667,333/1000,40,91.09
3720,B-3,519.667,3/10,28,91.09
3721,D4,519.667,3/10,28,91.09
3722,C3,520.0,333/1000,40,91.09
3723,G5,520.0,333/1000,46,91.09
3724,G4,520.0,333/1000,46,91.09
3725,A4,520.333,3/10,40,91.09
3726,A5,520.333,3/10,40,91.09
3727,A3,520.333,3/10,30,91.09
3728,C4,520.333,3/10,30,91.09
3729,F4,520.667,3/10,40,91.09
3730,F5,520.667,3/10,40,91.09
3731,A3,520.667,3/10,30,91.09
3732,C4,520.667,3/10,30,91.09
3733,C3,521.0,333/1000,39,91.09
3734,F4,521.0,333/1000,46,91.09
3735,F5,521.0,333/1000,46,91.09
3736,G4,521.333,3/10,40,91.09
3737,G5,521.333,3/10,40,91.09
3738,C4,521.333,3/10,29,91.09
3739,G3,521.333,3/10,29,91.09
3740,B-3,521.333,3/10,29,91.09
3741,E4,521.667,3/10,40,91.09
3742,E5,521.667,3/10,40,91.09
3743,C4,521.667,3/10,29,91.09
3744,B-3,521.667,3/10,29,91.09
3745,G3,521.667,3/10,29,91.09
3746,F2,522.0,333/1000,40,91.09
3747,F5,522.0,1.0,45,91.09
3748,F4,522.0,1.0,45,91.09
3749,F3,522.333,333/1000,29,91.09
3750,A3,522.333,333/1000,29,91.09
3751,C4,522.333,333/1000,29,91.09
3752,F3,522.667,333/1000,32,91.09
3753,E-3,523.0,333/1000,40,91.09
3754,F3,523.0,0.25,34,91.09
3755,E-5,523.0,333/1000,52,91.09
3756,E-4,523.0,333/1000,52,91.09
3757,F3,523.333,0.25,37,91.09
3758,C#3,523.333,333/1000,44,91.09
3759,C#5,523.333,333/1000,54,91.09
3760,C#4,523.333,333/1000,54,91.09
3761,C3,523.667,333/1000,48,91.09
3762,F3,523.667,0.25,40,91.09
3763,C5,523.667,333/1000,58,91.09
3764,C4,523.667,333/1000,58,91.09
3765,C5,524.0,1.0,61,91.09
3766,C4,524.0,1.0,61,91.09
3767,F#1,524.0,167/1000,46,91.09
3768,F#2,524.0,167/1000,46,91.09
3769,C#3,524.333,3/10,39,91.09
3770,B-2,524.333,3/10,39,91.09
3771,F#2,524.333,3/10,39,91.09
3772,C3,524.667,3/10,39,91.09
3773,F#2,524.667,3/10,39,91.09
3774,B-2,524.667,3/10,39,91.09
3775,B-3,525.0,9/20,56,91.09
3776,B-4,525.0,9/20,56,91.09
3777,C#3,525.0,3/10,46,91.09
3778,B-2,525.0,3/10,46,91.09
3779,F#2,525.0,3/10,46,91.09
3780,E-3,525.333,3/10,40,91.09
3781,F#2,525.333,3/10,40,91.09
3782,B-2,525.333,3/10,40,91.09
3783,B-4,525.5,9/20,56,91.09
3784,B-3,525.5,9/20,56,91.09
3785,F#2,525.667,3/10,40,91.09
3786,C#3,525.667,3/10,40,91.09
3787,B-2,525.667,3/10,40,91.09
3788,C4,526.0,1.0,64,91.09
3789,C5,526.0,1.0,64,91.09
3790,F2,526.0,167/1000,47,91.09
3791,F1,526.0,167/1000,47,91.09
3792,F2,526.333,3/10,38,91.09
3793,B-2,526.333,3/10,38,91.09
3794,C#3,526.333,3/10,38,91.09
3795,F2,526.667,3/10,38,91.09
3796,B-2,526.667,3/10,38,91.09
3797,C3,526.667,3/10,38,91.09
3798,B-4,527.0,9/20,58,91.09
3799,B-3,527.0,9/20,58,91.09
3800,C#3,527.0,3/10,46,91.09
3801,B-2,527.0,3/10,46,91.09
3802,F2,527.0,3/10,46,91.09
3803,E-3,527.333,3/10,41,91.09
3804,F2,527.333,3/10,41,91.09
3805,B-2,527.333,3/10,41,91.09
3806,B-4,527.5,9/20,62,91.09
3807,B-3,527.5,9/20,62,91.09
3808,F2,527.667,3/10,41,91.09
3809,B-2,527.667,3/10,41,91.09
3810,C#3,527.667,3/10,41,91.09
3811,D2,528.0,167/1000,51,91.09
3812,B3,528.0,333/1000,64,91.09
3813,B4,528.0,333/1000,64,91.09
3814,B-3,528.333,333/1000,58,91.09
3815,B-4,528.333,333/1000,58,91.09
3816,F3,528.333,3/10,36,91.09
3817,D3,528.333,3/10,36,91.09
3818,G#3,528.333,3/10,36,91.09
3819,D4,528.667,333/1000,59,91.09
3820,D5,528.667,333/1000,59,91.09
3821,F3,528.667,3/10,37,91.09
3822,A3,528.667,3/10,37,91.09
3823,D3,528.667,3/10,37,91.09
3824,F4,529.0,333/1000,64,91.09
3825,F5,529.0,333/1000,64,91.09
3826,F3,529.0,3/10,42,91.09
3827,D3,529.0,3/10,42,91.09
3828,B-3,529.0,3/10,42,91.09
3829,G#5,529.333,333/1000,68,91.09
3830,G#4,529.333,333/1000,68,91.09
3831,G#3,529.333,3/10,47,91.09
3832,D3,529.333,3/10,47,91.09
3833,F3,529.333,3/10,47,91.09
3834,F5,529.667,333/1000,70,91.09
3835,B4,529.667,333/1000,70,91.09
3836,G#5,529.667,333/1000,70,91.09
3837,B5,529.667,333/1000,70,91.09
3838,G#3,529.667,3/10,50,91.09
3839,D3,529.667,3/10,50,91.09
3840,B3,529.667,3/10,50,91.09
3841,F3,529.667,3/10,50,91.09
3842,E-2,530.0,167/1000,62,91.09
3843,G#5,530.0,1.0,71,91.09
3844,F5,530.0,1.0,71,91.09
3845,B-5,530.0,1.5,78,91.09
3846,B-4,530.0,1.5,78,91.09
3847,E-3,530.333,3/10,36,91.09
3848,F#3,530.333,3/10,36,91.09
3849,B-3,530.333,3/10,36,91.09
3850,E-3,530.667,3/10,36,91.09
3851,F#3,530.667,3/10,36,91.09
3852,A3,530.667,3/10,36,91.09
3853,F#5,531.0,0.5,60,91.09
3854,E-5,531.0,0.5,60,91.09
3855,E-3,531.0,3/10,44,91.09
3856,B-3,531.0,3/10,44,91.09
3857,F#3,531.0,3/10,44,91.09
3858,B3,531.333,3/10,36,91.09
3859,F#3,531.333,3/10,36,91.09
3860,E-3,531.333,3/10,36,91.09
3861,E-4,531.5,0.5,52,91.09
3862,E-5,531.5,0.5,52,91.09
3863,F#3,531.667,3/10,36,91.09
3864,B-3,531.667,3/10,36,91.09
3865,E-3,531.667,3/10,36,91.09
3866,B-2,532.0,333/1000,40,91.09
3867,C#4,532.0,0.75,57,91.09
3868,C#5,532.0,0.75,57,91.09
3869,F#3,532.333,3/10,28,91.09
3870,B-3,532.333,3/10,28,91.09
3871,B-3,532.667,3/10,28,91.09
3872,F#3,532.667,3/10,28,91.09
3873,C5,532.75,9/40,52,91.09
3874,C4,532.75,9/40,52,91.09
3875,C4,533.0,333/1000,55,91.09
3876,C5,533.0,333/1000,55,91.09
3877,B-3,533.0,3/10,34,91.09
3878,F#3,533.0,3/10,34,91.09
3879,C#4,533.333,333/1000,52,91.09
3880,C#5,533.333,333/1000,52,91.09
3881,F#3,533.333,3/10,28,91.09
3882,B-3,533.333,3/10,28,91.09
3883,E-5,533.667,26/125,52,91.09
3884,E-4,533.667,26/125,52,91.09
3885,C4,533.667,3/10,26,91.09
3886,B-3,533.667,3/10,26,91.09
3887,F#3,533.667,3/10,26,91.09
3888,E-5,533.875,0.125,46,91.09
3889,F2,534.0,333/1000,40,91.09
3890,F#5,534.0,0.75,57,91.09
3891,F#4,534.0,0.75,57,91.09
3892,B-3,534.333,3/10,25,91.09
3893,F3,534.333,3/10,25,91.09
3894,C#4,534.333,3/10,25,91.09
3895,B-3,534.667,3/10,26,91.09
3896,C#4,534.667,3/10,26,91.09
3897,F3,534.667,3/10,26,91.09
3898,F4,534.75,9/40,52,91.09
3899,F5,534.75,9/40,52,91.09
3900,F4,535.0,333/1000,52,91.09
3901,F5,535.0,333/1000,52,91.09
3902,F3,535.0,3/10,28,91.09
3903,B-3,535.0,3/10,28,91.09
3904,C#4,535.0,3/10,28,91.09
3905,B-5,535.333,333/1000,55,91.09
3906,B-4,535.333,333/1000,55,91.09
3907,C#4,535.333,3/10,27,91.09
3908,E3,535.333,3/10,27,91.09
3909,B-3,535.333,3/10,27,91.09
3910,C#6,535.667,333/1000,57,91.09
3911,C#5,535.667,333/1000,57,91.09
3912,B-3,535.667,3/10,27,91.09
3913,C#4,535.667,3/10,27,91.09
3914,F3,535.667,3/10,27,91.09
3915,E2,536.0,333/1000,45,91.09
3916,C#6,536.0,0.75,60,91.09
3917,C#5,536.0,0.75,60,91.09
3918,F#3,536.333,3/10,34,91.09
3919,C#4,536.333,3/10,34,91.09
3920,E3,536.333,3/10,34,91.09
3921,B-3,536.333,3/10,34,91.09
3922,F#3,536.667,3/10,30,91.09
3923,B-3,536.667,3/10,30,91.09
3924,C4,536.667,3/10,30,91.09
3925,E3,536.667,3/10,30,91.09
3926,C6,536.75,0.25,49,91.09
3927,C5,536.75,0.25,49,91.09
3928,F2,537.0,333/1000,39,91.09
3929,C6,537.0,333/1000,50,91.09
3930,C5,537.0,333/1000,50,91.09
3931,E-5,537.333,333/1000,42,91.09
3932,E-6,537.333,333/1000,42,91.09
3933,F#4,537.333,3/10,29,91.09
3934,A3,537.333,3/10,29,91.09
3935,F3,537.333,3/10,29,91.09
3936,C4,537.333,3/10,29,91.09
3937,A5,537.667,333/1000,42,91.09
3938,A4,537.667,333/1000,42,91.09
3939,E-4,537.667,3/10,29,91.09
3940,F3,537.667,3/10,29,91.09
3941,F4,537.667,3/10,29,91.09
3942,C4,537.667,3/10,29,91.09
3943,B-2,538.0,333/1000,42,91.09
3944,B-5,538.0,1.0,50,91.09
3945,B-4,538.0,1.0,50,91.09
3946,F3,538.333,3/10,30,91.09
3947,B-3,538.333,3/10,30,91.09
3948,C#4,538.333,3/10,30,91.09
3949,A3,538.667,3/10,30,91.09
3950,F3,538.667,3/10,30,91.09
3951,C4,538.667,3/10,30,91.09
3952,F3,539.0,3/10,38,91.09
3953,B-3,539.0,3/10,38,91.09
3954,C#4,539.0,3/10,38,91.09
3955,C#4,539.333,3/10,26,91.09
3956,F3,539.333,3/10,26,91.09
3957,F4,539.333,3/10,26,91.09
3958,C#5,539.5,9/20,51,91.09
3959,F3,539.667,3/10,22,91.09
3960,B-3,539.667,3/10,22,91.09
3961,C#4,539.667,3/10,22,91.09
3962,C#5,540.0,0.75,59,91.09
3963,E2,540.0,333/1000,40,91.09
3964,B-3,540.333,3/10,26,91.09
3965,E3,540.333,3/10,26,91.09
3966,C#4,540.333,3/10,26,91.09
3967,G3,540.333,3/10,26,91.09
3968,B-3,540.667,333/1000,27,91.09
3969,C4,540.667,333/1000,27,91.09
3970,G3,540.667,333/1000,27,91.09
3971,E3,540.667,333/1000,27,91.09
3972,C5,540.75,9/40,50,91.09
3973,C5,541.0,333/1000,56,91.09
3974,F2,541.0,333/1000,31,91.09
3975,E-5,541.333,333/1000,42,91.09
3976,F#4,541.333,333/1000,42,91.09
3977,A3,541.333,3/10,23,91.09
3978,F3,541.333,3/10,23,91.09
3979,C4,541.333,3/10,23,91.09
3980,F4,541.667,3/10,42,91.09
3981,A4,541.667,3/10,42,91.09
3982,F3,541.667,3/10,23,91.09
3983,E-4,541.667,3/10,23,91.09
3984,C4,541.667,3/10,23,91.09
3985,B-4,542.0,1333/1000,55,91.09
3986,F4,542.0,1.0,46,91.09
3987,F2,542.0,333/1000,35,91.09
3988,F3,542.333,3/10,26,91.09
3989,B-3,542.333,3/10,26,91.09
3990,C#4,542.333,3/10,26,91.09
3991,C4,542.667,3/10,26,91.09
3992,F3,542.667,3/10,26,91.09
3993,A3,542.667,3/10,26,91.09
3994,B-3,543.0,3/10,25,91.09
3995,F3,543.0,3/10,25,91.09
3996,C#4,543.0,3/10,25,91.09
3997,C#5,543.333,333/1000,41,91.09
3998,F3,543.333,3/10,27,91.09
3999,F4,543.333,3/10,27,91.09
4000,C#4,543.333,3/10,27,91.09
4001,F5,543.667,333/1000,41,91.09
4002,B-3,543.667,3/10,27,91.09
4003,F3,543.667,3/10,27,91.09
4004,C#4,543.667,3/10,27,91.09
4005,F#2,544.0,333/1000,31,91.09
4006,C#5,544.0,0.75,46,91.09
4007,F5,544.0,0.75,46,91.09
4008,B-3,544.333,3/10,28,91.09
4009,F#3,544.333,3/10,28,91.09
4010,B-3,544.667,3/10,29,91.09
4011,F#3,544.667,3/10,29,91.09
4012,C4,544.667,3/10,29,91.09
4013,C5,544.75,9/40,38,91.09
4014,E-5,544.75,9/40,38,91.09
4015,F2,545.0,333/1000,38,91.09
4016,E-5,545.0,3/10,48,91.09
4017,C5,545.0,3/10,48,91.09
4018,F#5,545.333,3/10,33,91.09
4019,E-5,545.333,3/10,33,91.09
4020,C4,545.333,3/10,25,91.09
4021,F3,545.333,3/10,25,91.09
4022,A3,545.333,3/10,25,91.09
4023,A4,545.667,3/10,32,91.09
4024,C5,545.667,3/10,32,91.09
4025,F5,545.667,3/10,32,91.09
4026,A5,545.667,3/10,32,91.09
4027,F3,545.667,3/10,24,91.09
4028,E-4,545.667,3/10,24,91.09
4029,C4,545.667,3/10,24,91.09
4030,B-1,546.0,333/1000,35,91.09
4031,B-4,546.0,1.5,43,91.09
4032,F5,546.0,1.5,43,91.09
4033,B-5,546.0,1.5,43,91.09
4034,C#5,546.0,1.5,43,91.09
4035,B-3,546.333,3/10,19,91.09
4036,F3,546.333,3/10,19,91.09
4037,C#4,546.333,3/10,19,91.09
4038,F4,546.667,3/10,19,91.09
4039,C#4,546.667,3/10,19,91.09
4040,F3,546.667,3/10,19,91.09
4041,B-3,547.0,0.5,20,91.09
4042,F3,547.0,0.5,20,91.09
4043,C#4,547.0,0.5,20,91.09
4044,C#5,547.5,0.5,34,91.09
4045,C#4,548.0,0.25,34,91.09
4046,F#2,548.0,0.375,38,91.09
4047,C#5,548.25,0.25,25,91.09
4048,C#3,548.375,0.125,31,91.09
4049,B-3,548.5,0.875,42,91.09
4050,F#4,548.5,0.25,23,91.09
4051,B-4,548.5,0.25,23,91.09
4052,C#5,548.75,0.25,25,91.09
4053,C#4,549.0,0.25,32,91.09
4054,C#5,549.25,0.25,24,91.09
4055,F#3,549.375,0.125,29,91.09
4056,B-3,549.5,1.0,39,91.09
4057,B-4,549.5,0.25,22,91.09
4058,F#4,549.5,0.25,22,91.09
4059,C#5,549.75,0.25,24,91.09
4060,C#4,550.0,0.25,32,91.09
4061,C#5,550.25,0.25,25,91.09
4062,F#3,550.5,0.5,34,91.09
4063,B-4,550.5,0.25,22,91.09
4064,F#4,550.5,0.25,22,91.09
4065,C#5,550.75,0.25,24,91.09
4066,C#4,551.0,0.25,33,91.09
4067,C#3,551.0,0.5,34,91.09
4068,C#5,551.25,0.25,27,91.09
4069,B-2,551.5,0.5,34,91.09
4070,F#4,551.5,0.25,23,91.09
4071,B-4,551.5,0.25,23,91.09
4072,C#5,551.75,0.25,25,91.09
4073,C#4,552.0,0.25,36,91.09
4074,F2,552.0,0.375,45,91.09
4075,C#5,552.25,0.25,27,91.09
4076,C#3,552.375,0.125,36,91.09
4077,B3,552.5,0.875,45,91.09
4078,G#4,552.5,0.25,24,91.09
4079,B4,552.5,0.25,24,91.09
4080,C#5,552.75,0.25,27,91.09
4081,C#4,553.0,0.25,34,91.09
4082,C#5,553.25,0.25,26,91.09
4083,G#3,553.375,0.125,37,91.09
4084,B3,553.5,1.0,46,91.09
4085,G#4,553.5,0.25,24,91.09
4086,B4,553.5,0.25,24,91.09
4087,C#5,553.75,0.25,27,91.09
4088,C#4,554.0,0.25,36,91.09
4089,C#5,554.25,0.25,29,91.09
4090,G#3,554.5,0.5,38,91.09
4091,B4,554.5,0.25,25,91.09
4092,G#4,554.5,0.25,25,91.09
4093,C#5,554.75,0.25,27,91.09
4094,C#4,555.0,0.25,37,91.09
4095,F3,555.0,0.5,38,91.09
4096,C#5,555.25,0.25,30,91.09
4097,C#3,555.5,0.5,39,91.09
4098,B4,555.5,0.25,26,91.09
4099,G#4,555.5,0.25,26,91.09
4100,C#5,555.75,0.25,29,91.09
4101,C#4,556.0,0.25,40,91.09
4102,F#2,556.0,0.375,50,91.09
4103,C#5,556.25,0.25,30,91.09
4104,C#3,556.375,0.125,40,91.09
4105,B-3,556.5,0.875,50,91.09
4106,F#4,556.5,0.25,28,91.09
4107,B-4,556.5,0.25,28,91.09
4108,C#5,556.75,0.25,30,91.09
4109,C#4,557.0,0.25,38,91.09
4110,C#5,557.25,0.25,29,91.09
4111,F#3,557.375,0.125,40,91.09
4112,B-3,557.5,1.0,50,91.09
4113,F#4,557.5,0.25,26,91.09
4114,B-4,557.5,0.25,26,91.09
4115,C#5,557.75,0.25,29,91.09
4116,E-4,558.0,0.25,38,91.09
4117,B2,558.0,2.0,40,91.09
4118,E-5,558.25,0.25,30,91.09
4119,G#3,558.5,0.5,40,91.09
4120,G#4,558.5,0.25,26,91.09
4121,B4,558.5,0.25,26,91.09
4122,E-5,558.75,0.25,29,91.09
4123,E-4,559.0,0.25,39,91.09
4124,E-3,559.0,0.5,40,91.09
4125,E-5,559.25,0.25,32,91.09
4126,G#3,559.5,0.5,40,91.09
4127,B4,559.5,0.25,28,91.09
4128,G#4,559.5,0.25,28,91.09
4129,E-5,559.75,0.25,30,91.09
4130,G#4,560.0,0.25,43,91.09
4131,C3,560.0,1.0,44,91.09
4132,G#3,560.0,0.5,52,91.09
4133,G#5,560.25,0.25,39,91.09
4134,C4,560.5,0.5,44,91.09
4135,E-5,560.5,0.25,43,91.09
4136,F#5,560.5,0.25,43,91.09
4137,G#5,560.75,0.25,40,91.09
4138,E-4,561.0,0.5,49,91.09
4139,G#3,561.0,1.0,41,91.09
4140,C5,561.0,0.25,53,91.09
4141,F#5,561.0,0.25,53,91.09
4142,G#5,561.25,0.25,43,91.09
4143,F#4,561.5,0.5,55,91.09
4144,E-5,561.5,0.25,47,91.09
4145,C5,561.5,0.25,47,91.09
4146,G#5,561.75,0.25,41,91.09
4147,C#4,562.0,2.0,48,91.09
4148,F4,562.0,0.5,57,91.09
4149,C#5,562.0,0.25,50,91.09
4150,F5,562.0,0.25,50,91.09
4151,G#5,562.25,0.25,51,91.09
4152,G#4,562.5,0.5,53,91.09
4153,B5,562.5,0.25,54,91.09
4154,F5,562.5,0.25,54,91.09
4155,C#6,562.75,0.25,53,91.09
4156,B-4,563.0,0.5,58,91.09
4157,B-5,563.0,0.25,57,91.09
4158,F#5,563.0,0.25,57,91.09
4159,C#6,563.25,0.25,57,91.09
4160,B4,563.5,0.5,62,91.09
4161,F5,563.5,0.25,60,91.09
4162,G#5,563.5,0.25,60,91.09
4163,C#6,563.75,0.25,60,91.09
4164,F#5,564.0,0.375,71,91.09
4165,F#2,564.0,0.25,55,91.09
4166,B-3,564.25,0.25,50,91.09
4167,C#6,564.375,0.125,72,91.09
4168,C#3,564.5,0.25,50,91.09
4169,B-5,564.5,0.875,78,91.09
4170,B-6,564.5,0.875,78,91.09
4171,B-3,564.75,0.25,50,91.09
4172,F#3,565.0,0.25,59,91.09
4173,B-3,565.25,0.25,50,91.09
4174,F#6,565.375,0.125,70,91.09
4175,C#3,565.5,0.25,50,91.09
4176,B-5,565.5,1.0,78,91.09
4177,B-6,565.5,1.0,78,91.09
4178,B-3,565.75,0.25,50,91.09
4179,F#2,566.0,0.25,59,91.09
4180,B-3,566.25,0.25,50,91.09
4181,C#3,566.5,0.25,50,91.09
4182,F#5,566.5,0.5,72,91.09
4183,F#6,566.5,0.5,72,91.09
4184,B-3,566.75,0.25,50,91.09
4185,F#3,567.0,0.25,59,91.09
4186,C#6,567.0,0.5,72,91.09
4187,C#5,567.0,0.5,72,91.09
4188,B-3,567.25,0.25,49,91.09
4189,C#3,567.5,0.25,49,91.09
4190,B-5,567.5,0.5,72,91.09
4191,B-4,567.5,0.5,72,91.09
4192,B-3,567.75,0.25,49,91.09
4193,F2,568.0,0.25,55,91.09
4194,B3,568.25,0.25,50,91.09
4195,C#6,568.375,0.125,72,91.09
4196,C#3,568.5,0.25,50,91.09
4197,B5,568.5,0.875,78,91.09
4198,B6,568.5,0.875,78,91.09
4199,B3,568.75,0.25,50,91.09
4200,G#3,569.0,0.25,59,91.09
4201,B3,569.25,0.25,50,91.09
4202,G#6,569.375,0.125,71,91.09
4203,C#3,569.5,0.25,50,91.09
4204,B5,569.5,1.0,78,91.09
4205,B6,569.5,1.0,78,91.09
4206,B3,569.75,0.25,50,91.09
4207,F2,570.0,0.25,59,91.09
4208,B3,570.25,0.25,50,91.09
4209,C#3,570.5,0.25,50,91.09
4210,G#6,570.5,0.5,72,91.09
4211,G#5,570.5,0.5,72,91.09
4212,B3,570.75,0.25,50,91.09
4213,G#3,571.0,0.25,59,91.09
4214,F6,571.0,0.5,72,91.09
4215,F5,571.0,0.5,72,91.09
4216,B3,571.25,0.25,49,91.09
4217,C#3,571.5,0.25,49,91.09
4218,B4,571.5,0.5,72,91.09
4219,B5,571.5,0.5,72,91.09
4220,B3,571.75,0.25,49,91.09
4221,F#2,572.0,0.25,50,91.09
4222,B-3,572.25,0.25,42,91.09
4223,C#5,572.375,0.125,59,91.09
4224,C#3,572.5,0.25,42,91.09
4225,B-4,572.5,0.875,63,91.09
4226,B-5,572.5,0.875,63,91.09
4227,B-3,572.75,0.25,42,91.09
4228,F#3,573.0,0.25,54,91.09
4229,B-3,573.25,0.25,46,91.09
4230,F#5,573.375,0.125,57,91.09
4231,C#3,573.5,0.25,42,91.09
4232,B-5,573.5,1.0,63,91.09
4233,B-4,573.5,1.0,63,91.09
4234,B-3,573.75,0.25,42,91.09
4235,C2,574.0,0.25,52,91.09
4236,C3,574.25,0.25,39,91.09
4237,E-3,574.5,0.25,39,91.09
4238,A5,574.5,0.5,53,91.09
4239,A4,574.5,0.5,53,91.09
4240,C3,574.75,0.25,39,91.09
4241,G#3,575.0,0.25,51,91.09
4242,G#4,575.0,0.5,50,91.09
4243,G#5,575.0,0.5,50,91.09
4244,C3,575.25,0.25,33,91.09
4245,A3,575.5,0.25,33,91.09
4246,F#5,575.5,0.5,47,91.09
4247,F#4,575.5,0.5,47,91.09
4248,C3,575.75,0.25,33,91.09
4249,C#2,576.0,0.25,44,91.09
4250,F5,576.0,0.5,39,91.09
4251,F4,576.0,0.5,39,91.09
4252,C#3,576.25,0.25,34,91.09
4253,F3,576.5,0.25,35,91.09
4254,C#6,576.5,0.5,44,91.09
4255,C#5,576.5,0.5,44,91.09
4256,C#3,576.75,0.25,35,91.09
4257,G#3,577.0,0.25,35,91.09
4258,B4,577.0,0.5,40,91.09
4259,B5,577.0,0.5,40,91.09
4260,C#3,577.25,0.25,31,91.09
4261,B3,577.5,0.25,31,91.09
4262,G#5,577.5,0.5,40,91.09
4263,G#4,577.5,0.5,40,91.09
4264,C#3,577.75,0.25,31,91.09
4265,F#2,578.0,0.25,35,91.09
4266,F#5,578.0,2.0,47,91.09
4267,F#4,578.0,2.0,47,91.09
4268,C#3,578.25,0.25,29,91.09
4269,B-3,578.5,0.25,29,91.09
4270,F#3,578.75,0.25,29,91.09
4271,C#3,579.0,0.25,35,91.09
4272,F#3,579.25,0.25,31,91.09
4273,C#3,579.5,0.25,31,91.09
4274,B-2,579.75,0.25,31,91.09
4275,C#4,580.0,0.25,40,91.09
4276,F#2,580.0,0.375,45,91.09
4277,C#5,580.25,0.25,30,91.09
4278,C#3,580.375,0.125,37,91.09
4279,B-3,580.5,0.875,50,91.09
4280,B-4,580.5,0.25,28,91.09
4281,F#4,580.5,0.25,28,91.09
4282,C#5,580.75,0.25,30,91.09
4283,C#4,581.0,0.25,38,91.09
4284,C#5,581.25,0.25,28,91.09
4285,F#3,581.375,0.125,34,91.09
4286,B-3,581.5,1.0,46,91.09
4287,F#4,581.5,0.25,26,91.09
4288,B-4,581.5,0.25,26,91.09
4289,C#5,581.75,0.25,28,91.09
4290,C#4,582.0,0.25,38,91.09
4291,C#5,582.25,0.25,30,91.09
4292,F#3,582.5,0.5,40,91.09
4293,F#4,582.5,0.25,26,91.09
4294,B-4,582.5,0.25,26,91.09
4295,C#5,582.75,0.25,28,91.09
4296,C#4,583.0,0.25,39,91.09
4297,C#3,583.0,0.5,40,91.09
4298,C#5,583.25,0.25,32,91.09
4299,B-2,583.5,0.5,40,91.09
4300,B-4,583.5,0.25,28,91.09
4301,F#4,583.5,0.25,28,91.09
4302,C#5,583.75,0.25,30,91.09
4303,C#4,584.0,0.25,43,91.09
4304,F2,584.0,0.375,54,91.09
4305,C#5,584.25,0.25,32,91.09
4306,C#3,584.375,0.125,43,91.09
4307,B3,584.5,0.875,54,91.09
4308,B4,584.5,0.25,29,91.09
4309,G#4,584.5,0.25,29,91.09
4310,C#5,584.75,0.25,32,91.09
4311,C#4,585.0,0.25,40,91.09
4312,C#5,585.25,0.25,31,91.09
4313,G#3,585.375,0.125,44,91.09
4314,B3,585.5,1.0,55,91.09
4315,G#4,585.5,0.25,28,91.09
4316,B4,585.5,0.25,28,91.09
4317,C#5,585.75,0.25,32,91.09
4318,C#4,586.0,0.25,43,91.09
4319,C#5,586.25,0.25,34,91.09
4320,G#3,586.5,0.5,45,91.09
4321,G#4,586.5,0.25,30,91.09
4322,B4,586.5,0.25,30,91.09
4323,C#5,586.75,0.25,32,91.09
4324,C#4,587.0,0.25,44,91.09
4325,F3,587.0,0.5,45,91.09
4326,C#5,587.25,0.25,36,91.09
4327,C#3,587.5,0.5,46,91.09
4328,B4,587.5,0.25,31,91.09
4329,G#4,587.5,0.25,31,91.09
4330,C#5,587.75,0.25,34,91.09
4331,C#4,588.0,0.25,48,91.09
4332,F#2,588.0,0.375,60,91.09
4333,C#5,588.25,0.25,36,91.09
4334,C#3,588.375,0.125,48,91.09
4335,B-3,588.5,0.875,60,91.09
4336,F#4,588.5,0.25,33,91.09
4337,B-4,588.5,0.25,33,91.09
4338,C#5,588.75,0.25,36,91.09
4339,C#4,589.0,0.25,45,91.09
4340,C#5,589.25,0.25,34,91.09
4341,F#3,589.375,0.125,48,91.09
4342,B-3,589.5,1.0,60,91.09
4343,B-4,589.5,0.25,31,91.09
4344,F#4,589.5,0.25,31,91.09
4345,C#5,589.75,0.25,34,91.09
4346,E-4,590.0,0.25,45,91.09
4347,B2,590.0,2.0,48,91.09
4348,E-5,590.25,0.25,36,91.09
4349,G#3,590.5,0.5,48,91.09
4350,B4,590.5,0.25,31,91.09
4351,G#4,590.5,0.25,31,91.09
4352,E-5,590.75,0.25,34,91.09
4353,E-4,591.0,0.25,46,91.09
4354,E-3,591.0,0.5,48,91.09
4355,E-5,591.25,0.25,38,91.09
4356,G#3,591.5,0.5,48,91.09
4357,B4,591.5,0.25,33,91.09
4358,G#4,591.5,0.25,33,91.09
4359,E-5,591.75,0.25,36,91.09
4360,G#4,592.0,0.25,47,91.09
4361,C3,592.0,1.0,48,91.09
4362,G#3,592.0,0.5,57,91.09
4363,G#5,592.25,0.25,42,91.09
4364,C4,592.5,0.5,48,91.09
4365,E-5,592.5,0.25,46,91.09
4366,F#5,592.5,0.25,46,91.09
4367,G#5,592.75,0.25,44,91.09
4368,E-4,593.0,0.5,53,91.09
4369,G#3,593.0,1.0,45,91.09
4370,C5,593.0,0.25,58,91.09
4371,F#5,593.0,0.25,58,91.09
4372,G#5,593.25,0.25,47,91.09
4373,F#4,593.5,0.5,60,91.09
4374,E-5,593.5,0.25,51,91.09
4375,C5,593.5,0.25,51,91.09
4376,G#5,593.75,0.25,45,91.09
4377,C#4,594.0,2.0,52,91.09
4378,F4,594.0,0.5,62,91.09
4379,C#5,594.0,0.25,55,91.09
4380,F5,594.0,0.25,55,91.09
4381,G#5,594.25,0.25,56,91.09
4382,G#4,594.5,0.5,58,91.09
4383,B5,594.5,0.25,58,91.09
4384,F5,594.5,0.25,58,91.09
4385,C#6,594.75,0.25,58,91.09
4386,B-4,595.0,0.5,63,91.09
4387,F#5,595.0,0.25,62,91.09
4388,B-5,595.0,0.25,62,91.09
4389,C#6,595.25,0.25,62,91.09
4390,B4,595.5,0.5,68,91.09
4391,G#5,595.5,0.25,66,91.09
4392,F5,595.5,0.25,66,91.09
4393,C#6,595.75,0.25,66,91.09
4394,F#5,596.0,0.375,78,91.09
4395,F#2,596.0,0.25,60,91.09
4396,B-3,596.25,0.25,55,91.09
4397,C#6,596.375,0.125,79,91.09
4398,C#3,596.5,0.25,55,91.09
4399,B-5,596.5,0.875,85,91.09
4400,B-6,596.5,0.875,85,91.09
4401,B-3,596.75,0.25,55,91.09
4402,F#3,597.0,0.25,64,91.09
4403,B-3,597.25,0.25,55,91.09
4404,F#6,597.375,0.125,77,91.09
4405,C#3,597.5,0.25,55,91.09
4406,B-5,597.5,1.0,85,91.09
4407,B-6,597.5,1.0,85,91.09
4408,B-3,597.75,0.25,55,91.09
4409,F#2,598.0,0.25,64,91.09
4410,B-3,598.25,0.25,55,91.09
4411,C#3,598.5,0.25,55,91.09
4412,F#5,598.5,0.5,79,91.09
4413,F#6,598.5,0.5,79,91.09
4414,B-3,598.75,0.25,55,91.09
4415,F#3,599.0,0.25,64,91.09
4416,C#6,599.0,0.5,79,91.09
4417,C#5,599.0,0.5,79,91.09
4418,B-3,599.25,0.25,53,91.09
4419,C#3,599.5,0.25,53,91.09
4420,B-4,599.5,0.5,79,91.09
4421,B-5,599.5,0.5,79,91.09
4422,B-3,599.75,0.25,53,91.09
4423,F2,600.0,0.25,60,91.09
4424,B3,600.25,0.25,55,91.09
4425,C#6,600.375,0.125,79,91.09
4426,C#3,600.5,0.25,55,91.09
4427,B6,600.5,0.875,85,91.09
4428,B5,600.5,0.875,85,91.09
4429,B3,600.75,0.25,55,91.09
4430,G#3,601.0,0.25,64,91.09
4431,B3,601.25,0.25,55,91.09
4432,G#6,601.375,0.125,78,91.09
4433,C#3,601.5,0.25,55,91.09
4434,B6,601.5,1.0,85,91.09
4435,B5,601.5,1.0,85,91.09
4436,B3,601.75,0.25,55,91.09
4437,F2,602.0,0.25,64,91.09
4438,B3,602.25,0.25,55,91.09
4439,C#3,602.5,0.25,55,91.09
4440,G#5,602.5,0.5,79,91.09
4441,G#6,602.5,0.5,79,91.09
4442,B3,602.75,0.25,55,91.09
4443,G#3,603.0,0.25,64,91.09
4444,F5,603.0,0.5,79,91.09
4445,F6,603.0,0.5,79,91.09
4446,B3,603.25,0.25,53,91.09
4447,C#3,603.5,0.25,53,91.09
4448,B5,603.5,0.5,79,91.09
4449,B4,603.5,0.5,79,91.09
4450,B3,603.75,0.25,53,91.09
4451,F#2,604.0,0.25,55,91.09
4452,B-3,604.25,0.25,46,91.09
4453,C#5,604.375,0.125,64,91.09
4454,C#3,604.5,0.25,45,91.09
4455,B-5,604.5,0.875,68,91.09
4456,B-4,604.5,0.875,68,91.09
4457,B-3,604.75,0.25,45,91.09
4458,F#3,605.0,0.25,52,91.09
4459,B-3,605.25,0.25,44,91.09
4460,F#5,605.375,0.125,60,91.09
4461,C#3,605.5,0.25,40,91.09
4462,B-4,605.5,1.0,67,91.09
4463,B-5,605.5,1.0,67,91.09
4464,B-3,605.75,0.25,40,91.09
4465,C2,606.0,0.25,54,91.09
4466,C3,606.25,0.25,40,91.09
4467,E-3,606.5,0.25,40,91.09
4468,A5,606.5,0.5,55,91.09
4469,A4,606.5,0.5,55,91.09
4470,C3,606.75,0.25,40,91.09
4471,G#3,607.0,0.25,52,91.09
4472,G#5,607.0,0.5,51,91.09
4473,G#4,607.0,0.5,51,91.09
4474,C3,607.25,0.25,33,91.09
4475,A3,607.5,0.25,33,91.09
4476,F#5,607.5,0.5,47,91.09
4477,F#4,607.5,0.5,47,91.09
4478,C3,607.75,0.25,33,91.09
4479,C#2,608.0,0.25,44,91.09
4480,F5,608.0,0.5,39,91.09
4481,F4,608.0,0.5,39,91.09
4482,C#3,608.25,0.25,34,91.09
4483,F3,608.5,0.25,35,91.09
4484,C#5,608.5,0.5,44,91.09
4485,C#6,608.5,0.5,44,91.09
4486,C#3,608.75,0.25,35,91.09
4487,G#3,609.0,0.25,35,91.09
4488,B4,609.0,0.5,40,91.09
4489,B5,609.0,0.5,40,91.09
4490,C#3,609.25,0.25,31,91.09
4491,B3,609.5,0.25,31,91.09
4492,G#4,609.5,0.5,40,91.09
4493,G#5,609.5,0.5,40,91.09
4494,C#3,609.75,0.25,31,91.09
4495,F#2,610.0,0.25,35,91.09
4496,F#5,610.0,2.0,47,91.09
4497,F#4,610.0,2.0,47,91.09
4498,C#3,610.25,0.25,29,91.09
4499,B-3,610.5,0.25,29,91.09
4500,F#3,610.75,0.25,29,91.09
4501,C#3,611.0,0.25,35,91.09
4502,F#3,611.25,0.25,31,91.09
4503,C#3,611.5,0.25,31,91.09
4504,B-2,611.75,0.25,31,91.09
4505,D4,612.0,0.25,62,91.09
4506,D5,612.25,0.25,46,91.09
4507,B-2,612.375,1.0,60,91.09
4508,B-3,612.5,0.875,72,91.09
4509,F4,612.5,0.25,42,91.09
4510,B-4,612.5,0.25,42,91.09
4511,D5,612.75,0.25,46,91.09
4512,D4,613.0,0.25,63,91.09
4513,D5,613.25,0.25,44,91.09
4514,B-2,613.375,1.125,63,91.09
4515,B-3,613.5,1.0,73,91.09
4516,F4,613.5,0.25,40,91.09
4517,B-4,613.5,0.25,40,91.09
4518,D5,613.75,0.25,44,91.09
4519,E-4,614.0,0.25,63,91.09
4520,E-5,614.25,0.25,44,91.09
4521,F#4,614.5,0.25,40,91.09
4522,B-4,614.5,0.25,40,91.09
4523,F#3,614.5,0.375,50,91.09
4524,F#2,614.5,0.375,50,91.09
4525,E-5,614.75,0.25,44,91.09
4526,B-4,615.0,0.25,70,91.09
4527,E-2,615.0,0.375,54,91.09
4528,E-3,615.0,0.375,54,91.09
4529,B-5,615.25,0.25,51,91.09
4530,F#5,615.5,0.25,51,91.09
4531,E-5,615.5,0.25,51,91.09
4532,B-1,615.5,0.375,48,91.09
4533,B-2,615.5,0.375,48,91.09
4534,B-5,615.75,0.25,51,91.09
4535,E-4,616.0,0.25,62,91.09
4536,E-5,616.25,0.25,46,91.09
4537,B-2,616.375,1.0,60,91.09
4538,B-3,616.5,0.875,72,91.09
4539,F#4,616.5,0.25,42,91.09
4540,B-4,616.5,0.25,42,91.09
4541,E-5,616.75,0.25,46,91.09
4542,E-4,617.0,0.25,63,91.09
4543,E-5,617.25,0.25,44,91.09
4544,A2,617.375,0.625,63,91.09
4545,A3,617.5,0.5,73,91.09
4546,C#5,617.5,0.25,40,91.09
4547,G4,617.5,0.25,40,91.09
4548,E-5,617.75,0.25,44,91.09
4549,E-4,618.0,0.25,66,91.09
4550,G#2,618.0,0.5,66,91.09
4551,G#3,618.0,0.5,66,91.09
4552,E-5,618.25,0.25,49,91.09
4553,C5,618.5,0.25,49,91.09
4554,G#4,618.5,0.25,49,91.09
4555,E-2,618.5,0.375,50,91.09
4556,E-3,618.5,0.375,50,91.09
4557,E-5,618.75,0.25,51,91.09
4558,C5,619.0,0.25,64,91.09
4559,C2,619.0,0.375,54,91.09
4560,C3,619.0,0.375,54,91.09
4561,C6,619.25,0.25,49,91.09
4562,G#5,619.5,0.25,50,91.09
4563,E-5,619.5,0.25,50,91.09
4564,F#1,619.5,0.375,48,91.09
4565,F#2,619.5,0.375,48,91.09
4566,C6,619.75,0.25,50,91.09
4567,F2,620.0,0.25,57,91.09
4568,F3,620.25,0.25,34,91.09
4569,C#5,620.375,1.0,51,91.09
4570,C#6,620.5,0.875,65,91.09
4571,C#3,620.5,0.25,32,91.09
4572,G#2,620.5,0.25,32,91.09
4573,F3,620.75,0.25,35,91.09
4574,G2,621.0,0.25,39,91.09
4575,F3,621.25,0.25,35,91.09
4576,C#5,621.375,1.125,54,91.09
4577,C#6,621.5,1.0,67,91.09
4578,G#2,621.5,0.25,32,91.09
4579,C#3,621.5,0.25,32,91.09
4580,F3,621.75,0.25,35,91.09
4581,F#2,622.0,0.25,39,91.09
4582,E-3,622.25,0.25,34,91.09
4583,B-4,622.5,0.5,48,91.09
4584,B-5,622.5,0.5,48,91.09
4585,C#3,622.5,0.25,31,91.09
4586,B-2,622.5,0.25,31,91.09
4587,E-3,622.75,0.25,34,91.09
4588,A2,623.0,0.25,38,91.09
4589,F#4,623.0,0.5,51,91.09
4590,F#5,623.0,0.5,51,91.09
4591,F#3,623.25,0.25,34,91.09
4592,B-5,623.5,0.5,47,91.09
4593,B-4,623.5,0.5,47,91.09
4594,B-2,623.5,0.25,31,91.09
4595,C#3,623.5,0.25,31,91.09
4596,F#3,623.75,0.25,34,91.09
4597,G#2,624.0,0.25,44,91.09
4598,C#5,624.0,0.5,39,91.09
4599,C#4,624.0,0.5,39,91.09
4600,G#3,624.25,0.25,34,91.09
4601,G#5,624.5,0.5,40,91.09
4602,G#4,624.5,0.5,40,91.09
4603,C#3,624.5,0.25,32,91.09
4604,F3,624.5,0.25,32,91.09
4605,G#3,624.75,0.25,35,91.09
4606,G#2,625.0,0.25,35,91.09
4607,F#5,625.0,0.5,37,91.09
4608,F#4,625.0,0.5,37,91.09
4609,G#3,625.25,0.25,31,91.09
4610,E-5,625.5,0.5,37,91.09
4611,E-4,625.5,0.5,37,91.09
4612,C3,625.5,0.25,28,91.09
4613,F#3,625.5,0.25,28,91.09
4614,G#3,625.75,0.25,31,91.09
4615,C#5,626.0,2.0,44,91.09
4616,C#4,626.0,0.5,37,91.09
4617,C#2,626.0,0.25,35,91.09
4618,C#3,626.25,0.25,26,91.09
4619,G#4,626.5,0.5,37,91.09
4620,B4,626.5,0.5,37,91.09
4621,G#3,626.5,0.25,24,91.09
4622,F3,626.5,0.25,24,91.09
4623,C#3,626.75,0.25,26,91.09
4624,F#4,627.0,0.5,31,91.09
4625,B-4,627.0,0.5,31,91.09
4626,B-3,627.0,0.25,34,91.09
4627,F#3,627.0,0.25,34,91.09
4628,C#3,627.25,0.25,30,91.09
4629,F4,627.5,0.5,31,91.09
4630,G#4,627.5,0.5,31,91.09
4631,B3,627.5,0.25,28,91.09
4632,G#3,627.5,0.25,28,91.09
4633,C#3,627.75,0.25,30,91.09
4634,C#4,628.0,0.25,40,91.09
4635,F#2,628.0,0.375,45,91.09
4636,C#5,628.25,0.25,30,91.09
4637,C#3,628.375,0.125,37,91.09
4638,B-3,628.5,0.875,50,91.09
4639,B-4,628.5,0.25,28,91.09
4640,F#4,628.5,0.25,28,91.09
4641,C#5,628.75,0.25,30,91.09
4642,C#4,629.0,0.25,38,91.09
4643,C#5,629.25,0.25,28,91.09
4644,F#3,629.375,0.125,34,91.09
4645,B-3,629.5,1.0,46,91.09
4646,B-4,629.5,0.25,26,91.09
4647,F#4,629.5,0.25,26,91.09
4648,C#5,629.75,0.25,28,91.09
4649,E4,630.0,0.25,46,91.09
4650,E5,630.25,0.25,34,91.09
4651,F#3,630.5,0.5,45,91.09
4652,C#5,630.5,0.25,34,91.09
4653,F#4,630.5,0.25,34,91.09
4654,E5,630.75,0.25,34,91.09
4655,E4,631.0,0.25,48,91.09
4656,C#3,631.0,0.5,49,91.09
4657,E5,631.25,0.25,38,91.09
4658,B-2,631.5,0.5,52,91.09
4659,C#5,631.5,0.25,39,91.09
4660,F#4,631.5,0.25,39,91.09
4661,E5,631.75,0.25,40,91.09
4662,E-4,632.0,0.25,54,91.09
4663,B1,632.0,0.281,54,91.09
4664,E-5,632.25,0.25,45,91.09
4665,B2,632.375,0.125,60,91.09
4666,E-3,632.5,0.875,66,91.09
4667,F#4,632.5,0.25,45,91.09
4668,B4,632.5,0.25,45,91.09
4669,E-5,632.75,0.25,47,91.09
4670,E-4,633.0,0.25,55,91.09
4671,E-5,633.25,0.25,47,91.09
4672,B2,633.375,0.125,59,91.09
4673,E-3,633.5,1.0,70,91.09
4674,F#4,633.5,0.25,48,91.09
4675,B4,633.5,0.25,48,91.09
4676,E-5,633.75,0.25,48,91.09
4677,A4,634.0,0.25,59,91.09
4678,A5,634.25,0.25,52,91.09
4679,C3,634.5,0.375,62,91.09
4680,E-5,634.5,0.25,52,91.09
4681,F#5,634.5,0.25,52,91.09
4682,A5,634.75,0.25,52,91.09
4683,A4,635.0,0.25,63,91.09
4684,A2,635.0,0.375,53,91.09
4685,A5,635.25,0.25,55,91.09
4686,C2,635.5,0.375,51,91.09
4687,E-5,635.5,0.25,58,91.09
4688,F#5,635.5,0.25,58,91.09
4689,A5,635.75,0.25,59,91.09
4690,E-3,636.0,0.25,50,91.09
4691,C4,636.25,0.25,42,91.09
4692,C6,636.375,1.0,59,91.09
4693,C7,636.5,0.875,63,91.09
4694,F#3,636.5,0.25,42,91.09
4695,A3,636.5,0.25,42,91.09
4696,C4,636.75,0.25,42,91.09
4697,F3,637.0,0.25,54,91.09
4698,C4,637.25,0.25,46,91.09
4699,C6,637.375,0.625,57,91.09
4700,C7,637.5,0.5,63,91.09
4701,F#3,637.5,0.25,42,91.09
4702,A3,637.5,0.25,42,91.09
4703,C4,637.75,0.25,42,91.09
4704,C#3,638.0,0.25,52,91.09
4705,E-6,638.0,0.5,63,91.09
4706,E-7,638.0,0.5,63,91.09
4707,C#4,638.25,0.25,39,91.09
4708,C#6,638.5,0.5,53,91.09
4709,C#7,638.5,0.5,53,91.09
4710,F#3,638.5,0.25,39,91.09
4711,B-3,638.5,0.25,39,91.09
4712,C#4,638.75,0.25,39,91.09
4713,F3,639.0,0.25,51,91.09
4714,B-6,639.0,0.5,50,91.09
4715,B-5,639.0,0.5,50,91.09
4716,C#4,639.25,0.25,33,91.09
4717,F#5,639.5,0.5,47,91.09
4718,F#6,639.5,0.5,47,91.09
4719,B-3,639.5,0.25,33,91.09
4720,F#3,639.5,0.25,33,91.09
4721,C#4,639.75,0.25,33,91.09
4722,C#2,640.0,0.188,44,91.09
4723,F5,640.0,0.5,39,91.09
4724,F6,640.0,0.5,39,91.09
4725,C#3,640.25,0.25,34,91.09
4726,F3,640.5,0.25,35,91.09
4727,C#7,640.5,0.5,44,91.09
4728,C#6,640.5,0.5,44,91.09
4729,C#3,640.75,0.25,35,91.09
4730,G#3,641.0,0.25,35,91.09
4731,B6,641.0,0.5,40,91.09
4732,B5,641.0,0.5,40,91.09
4733,C#3,641.25,0.25,31,91.09
4734,B3,641.5,0.25,31,91.09
4735,G#5,641.5,0.5,40,91.09
4736,G#6,641.5,0.5,40,91.09
4737,C#3,641.75,0.25,31,91.09
4738,F#2,642.0,0.188,35,91.09
4739,F#6,642.0,2.0,47,91.09
4740,F#5,642.0,2.0,47,91.09
4741,C#3,642.25,0.25,29,91.09
4742,B-3,642.5,0.25,29,91.09
4743,F#3,642.75,0.25,29,91.09
4744,C#3,643.0,0.25,35,91.09
4745,F#3,643.25,0.25,31,91.09
4746,C#3,643.5,0.25,31,91.09
4747,B-2,643.75,0.25,31,91.09
4748,D4,644.0,0.25,62,91.09
4749,D5,644.25,0.25,46,91.09
4750,B-2,644.375,1.0,60,91.09
4751,B-3,644.5,0.875,72,91.09
4752,B-4,644.5,0.25,42,91.09
4753,F4,644.5,0.25,42,91.09
4754,D5,644.75,0.25,46,91.09
4755,D4,645.0,0.25,63,91.09
4756,D5,645.25,0.25,44,91.09
4757,B-2,645.375,1.125,63,91.09
4758,B-3,645.5,1.0,73,91.09
4759,F4,645.5,0.25,40,91.09
4760,B-4,645.5,0.25,40,91.09
4761,D5,645.75,0.25,44,91.09
4762,E-4,646.0,0.25,63,91.09
4763,E-5,646.25,0.25,44,91.09
4764,B-4,646.5,0.25,40,91.09
4765,F#4,646.5,0.25,40,91.09
4766,F#2,646.5,0.375,50,91.09
4767,F#3,646.5,0.375,50,91.09
4768,E-5,646.75,0.25,44,91.09
4769,B-4,647.0,0.25,70,91.09
4770,E-2,647.0,0.375,54,91.09
4771,E-3,647.0,0.375,54,91.09
4772,B-5,647.25,0.25,51,91.09
4773,E-5,647.5,0.25,51,91.09
4774,F#5,647.5,0.25,51,91.09
4775,B-1,647.5,0.375,48,91.09
4776,B-2,647.5,0.375,48,91.09
4777,B-5,647.75,0.25,51,91.09
4778,E-4,648.0,0.25,62,91.09
4779,E-5,648.25,0.25,46,91.09
4780,B-2,648.375,1.0,60,91.09
4781,B-3,648.5,0.875,72,91.09
4782,F#4,648.5,0.25,42,91.09
4783,B-4,648.5,0.25,42,91.09
4784,E-5,648.75,0.25,46,91.09
4785,E-4,649.0,0.25,63,91.09
4786,E-5,649.25,0.25,44,91.09
4787,A2,649.375,0.625,63,91.09
4788,A3,649.5,0.5,73,91.09
4789,C#5,649.5,0.25,40,91.09
4790,G4,649.5,0.25,40,91.09
4791,E-5,649.75,0.25,44,91.09
4792,E-4,650.0,0.25,66,91.09
4793,G#2,650.0,0.5,69,91.09
4794,G#3,650.0,0.5,69,91.09
4795,E-5,650.25,0.25,49,91.09
4796,C5,650.5,0.25,49,91.09
4797,G#4,650.5,0.25,49,91.09
4798,E-2,650.5,0.375,50,91.09
4799,E-3,650.5,0.375,50,91.09
4800,E-5,650.75,0.25,51,91.09
4801,C5,651.0,0.25,64,91.09
4802,C2,651.0,0.375,54,91.09
4803,C3,651.0,0.375,54,91.09
4804,C6,651.25,0.25,49,91.09
4805,G#5,651.5,0.25,50,91.09
4806,E-5,651.5,0.25,50,91.09
4807,F#2,651.5,0.375,48,91.09
4808,F#1,651.5,0.375,48,91.09
4809,C6,651.75,0.25,50,91.09
4810,F2,652.0,0.25,57,91.09
4811,F3,652.25,0.25,34,91.09
4812,C#5,652.375,1.0,51,91.09
4813,C#6,652.5,0.875,65,91.09
4814,C#3,652.5,0.25,32,91.09
4815,G#2,652.5,0.25,32,91.09
4816,F3,652.75,0.25,35,91.09
4817,G2,653.0,0.25,39,91.09
4818,F3,653.25,0.25,35,91.09
4819,C#5,653.375,1.125,54,91.09
4820,C#6,653.5,1.0,67,91.09
4821,C#3,653.5,0.25,32,91.09
4822,G#2,653.5,0.25,32,91.09
4823,F3,653.75,0.25,35,91.09
4824,F#2,654.0,0.25,39,91.09
4825,E-3,654.25,0.25,34,91.09
4826,B-5,654.5,0.5,48,91.09
4827,B-4,654.5,0.5,48,91.09
4828,B-2,654.5,0.25,31,91.09
4829,C#3,654.5,0.25,31,91.09
4830,E-3,654.75,0.25,34,91.09
4831,A2,655.0,0.25,38,91.09
4832,F#5,655.0,0.5,51,91.09
4833,F#4,655.0,0.5,51,91.09
4834,F#3,655.25,0.25,34,91.09
4835,B-5,655.5,0.5,47,91.09
4836,B-4,655.5,0.5,47,91.09
4837,B-2,655.5,0.25,31,91.09
4838,C#3,655.5,0.25,31,91.09
4839,F#3,655.75,0.25,34,91.09
4840,G#2,656.0,0.25,44,91.09
4841,C#5,656.0,0.5,39,91.09
4842,C#4,656.0,0.5,39,91.09
4843,G#3,656.25,0.25,34,91.09
4844,G#5,656.5,0.5,40,91.09
4845,G#4,656.5,0.5,40,91.09
4846,F3,656.5,0.25,32,91.09
4847,C#3,656.5,0.25,32,91.09
4848,G#3,656.75,0.25,35,91.09
4849,G#2,657.0,0.25,35,91.09
4850,F#5,657.0,0.5,37,91.09
4851,F#4,657.0,0.5,37,91.09
4852,G#3,657.25,0.25,31,91.09
4853,E-5,657.5,0.5,37,91.09
4854,E-4,657.5,0.5,37,91.09
4855,C3,657.5,0.25,28,91.09
4856,F#3,657.5,0.25,28,91.09
4857,G#3,657.75,0.25,31,91.09
4858,C#5,658.0,2.0,44,91.09
4859,C#4,658.0,0.5,37,91.09
4860,C#2,658.0,0.25,35,91.09
4861,C#3,658.25,0.25,26,91.09
4862,G#4,658.5,0.5,37,91.09
4863,B4,658.5,0.5,37,91.09
4864,G#3,658.5,0.25,24,91.09
4865,F3,658.5,0.25,24,91.09
4866,C#3,658.75,0.25,26,91.09
4867,B-4,659.0,0.5,31,91.09
4868,F#4,659.0,0.5,31,91.09
4869,F#3,659.0,0.25,34,91.09
4870,B-3,659.0,0.25,34,91.09
4871,C#3,659.25,0.25,30,91.09
4872,F4,659.5,0.5,31,91.09
4873,G#4,659.5,0.5,31,91.09
4874,B3,659.5,0.25,28,91.09
4875,G#3,659.5,0.25,28,91.09
4876,C#3,659.75,0.25,30,91.09
4877,C#4,660.0,0.25,40,91.09
4878,F#2,660.0,0.375,45,91.09
4879,C#5,660.25,0.25,30,91.09
4880,C#3,660.375,0.125,37,91.09
4881,B-3,660.5,0.875,50,91.09
4882,F#4,660.5,0.25,28,91.09
4883,B-4,660.5,0.25,28,91.09
4884,C#5,660.75,0.25,30,91.09
4885,C#4,661.0,0.25,38,91.09
4886,C#5,661.25,0.25,28,91.09
4887,F#3,661.375,0.125,34,91.09
4888,B-3,661.5,1.0,46,91.09
4889,B-4,661.5,0.25,26,91.09
4890,F#4,661.5,0.25,26,91.09
4891,C#5,661.75,0.25,28,91.09
4892,E4,662.0,0.25,46,91.09
4893,E5,662.25,0.25,34,91.09
4894,F#3,662.5,0.5,45,91.09
4895,C#5,662.5,0.25,34,91.09
4896,F#4,662.5,0.25,34,91.09
4897,E5,662.75,0.25,34,91.09
4898,E4,663.0,0.25,48,91.09
4899,C#3,663.0,0.5,49,91.09
4900,E5,663.25,0.25,38,91.09
4901,B-2,663.5,0.5,52,91.09
4902,C#5,663.5,0.25,39,91.09
4903,F#4,663.5,0.25,39,91.09
4904,E5,663.75,0.25,40,91.09
4905,E-4,664.0,0.25,54,91.09
4906,B1,664.0,0.375,54,91.09
4907,E-5,664.25,0.25,45,91.09
4908,B2,664.375,0.125,60,91.09
4909,E-3,664.5,0.875,66,91.09
4910,B4,664.5,0.25,45,91.09
4911,F#4,664.5,0.25,45,91.09
4912,E-5,664.75,0.25,47,91.09
4913,E-4,665.0,0.25,55,91.09
4914,E-5,665.25,0.25,47,91.09
4915,B2,665.375,0.125,59,91.09
4916,E-3,665.5,1.0,70,91.09
4917,F#4,665.5,0.25,48,91.09
4918,B4,665.5,0.25,48,91.09
4919,E-5,665.75,0.25,48,91.09
4920,A4,666.0,0.25,59,91.09
4921,A5,666.25,0.25,52,91.09
4922,C3,666.5,0.5,62,91.09
4923,F#5,666.5,0.25,52,91.09
4924,E-5,666.5,0.25,52,91.09
4925,A5,666.75,0.25,52,91.09
4926,A4,667.0,0.25,63,91.09
4927,A2,667.0,0.5,53,91.09
4928,A5,667.25,0.25,55,91.09
4929,C2,667.5,0.5,51,91.09
4930,F#5,667.5,0.25,58,91.09
4931,E-5,667.5,0.25,58,91.09
4932,A5,667.75,0.25,59,91.09
4933,E-3,668.0,0.25,50,91.09
4934,C4,668.25,0.25,42,91.09
4935,C6,668.375,1.0,59,91.09
4936,C7,668.5,0.875,63,91.09
4937,F#3,668.5,0.25,42,91.09
4938,A3,668.5,0.25,42,91.09
4939,C4,668.75,0.25,42,91.09
4940,F3,669.0,0.25,54,91.09
4941,C4,669.25,0.25,46,91.09
4942,C6,669.375,0.625,57,91.09
4943,C7,669.5,0.5,63,91.09
4944,A3,669.5,0.25,42,91.09
4945,F#3,669.5,0.25,42,91.09
4946,C4,669.75,0.25,42,91.09
4947,C#3,670.0,0.25,52,91.09
4948,E-6,670.0,0.5,63,91.09
4949,E-7,670.0,0.5,63,91.09
4950,C#4,670.25,0.25,39,91.09
4951,C#7,670.5,0.5,53,91.09
4952,C#6,670.5,0.5,53,91.09
4953,F#3,670.5,0.25,39,91.09
4954,B-3,670.5,0.25,39,91.09
4955,C#4,670.75,0.25,39,91.09
4956,F3,671.0,0.25,51,91.09
4957,B-5,671.0,0.5,50,91.09
4958,B-6,671.0,0.5,50,91.09
4959,C#4,671.25,0.25,33,91.09
4960,F#5,671.5,0.5,47,91.09
4961,F#6,671.5,0.5,47,91.09
4962,F#3,671.5,0.25,33,91.09
4963,B-3,671.5,0.25,33,91.09
4964,C#4,671.75,0.25,33,91.09
4965,C#2,672.0,0.188,44,91.09
4966,F6,672.0,0.5,39,91.09
4967,F5,672.0,0.5,39,91.09
4968,C#3,672.25,0.25,34,91.09
4969,F3,672.5,0.25,35,91.09
4970,C#7,672.5,0.5,44,91.09
4971,C#6,672.5,0.5,44,91.09
4972,C#3,672.75,0.25,35,91.09
4973,G#3,673.0,0.25,35,91.09
4974,B5,673.0,0.5,40,91.09
4975,B6,673.0,0.5,40,91.09
4976,C#3,673.25,0.25,31,91.09
4977,B3,673.5,0.25,31,91.09
4978,G#6,673.5,0.5,40,91.09
4979,G#5,673.5,0.5,40,91.09
4980,C#3,673.75,0.25,31,91.09
4981,F#2,674.0,0.188,35,91.09
4982,F#6,674.0,1.5,47,91.09
4983,F#5,674.0,1.5,47,91.09
4984,B-3,674.25,0.25,29,91.09
4985,C#3,674.5,0.25,29,91.09
4986,B-3,674.75,0.25,29,91.09
4987,F#3,675.0,0.25,35,91.09
4988,B-3,675.25,0.25,31,91.09
4989,C#3,675.5,0.25,31,91.09
4990,F#5,675.5,0.5,40,91.09
4991,F#4,675.5,0.5,40,91.09
4992,B-3,675.75,0.25,31,91.09
4993,C#2,676.0,0.188,44,91.09
4994,F5,676.0,0.5,31,91.09
4995,F4,676.0,0.5,31,91.09
4996,B3,676.25,0.25,32,91.09
4997,C#5,676.5,0.5,40,91.09
4998,C#6,676.5,0.5,40,91.09
4999,C#3,676.5,0.25,30,91.09
5000,F3,676.5,0.25,30,91.09
5001,B3,676.75,0.25,32,91.09
5002,B4,677.0,0.5,37,91.09
5003,B5,677.0,0.5,37,91.09
5004,F3,677.0,0.25,32,91.09
5005,D3,677.0,0.25,32,91.09
5006,B3,677.25,0.25,31,91.09
5007,G#5,677.5,0.5,32,91.09
5008,G#4,677.5,0.5,32,91.09
5009,C#3,677.5,0.25,28,91.09
5010,F3,677.5,0.25,28,91.09
5011,B3,677.75,0.25,31,91.09
5012,F#2,678.0,0.188,35,91.09
5013,F#4,678.0,1.5,40,91.09
5014,F#5,678.0,1.5,40,91.09
5015,B-3,678.25,0.25,29,91.09
5016,C#3,678.5,0.25,29,91.09
5017,B-3,678.75,0.25,29,91.09
5018,F#3,679.0,0.25,35,91.09
5019,B-3,679.25,0.25,30,91.09
5020,F#4,679.5,0.5,44,91.09
5021,C#3,679.5,0.25,30,91.09
5022,B-3,679.75,0.25,30,91.09
5023,F4,680.0,0.5,34,91.09
5024,C#2,680.0,0.188,44,91.09
5025,B3,680.25,0.25,30,91.09
5026,C#5,680.5,0.5,44,91.09
5027,C#3,680.5,0.25,30,91.09
5028,F3,680.5,0.25,30,91.09
5029,B3,680.75,0.25,30,91.09
5030,B4,681.0,0.5,40,91.09
5031,D3,681.0,0.25,32,91.09
5032,F3,681.0,0.25,32,91.09
5033,B3,681.25,0.25,29,91.09
5034,G#4,681.5,0.5,35,91.09
5035,F3,681.5,0.25,29,91.09
5036,C#3,681.5,0.25,29,91.09
5037,B3,681.75,0.25,31,91.09
5038,F#4,682.0,2.0,44,91.09
5039,F#2,682.0,0.188,35,91.09
5040,B-3,682.25,0.25,29,91.09
5041,C#3,682.5,0.25,29,91.09
5042,B-3,682.75,0.25,29,91.09
5043,F#3,683.0,0.25,35,91.09
5044,B-3,683.25,0.25,29,91.09
5045,C#3,683.5,0.25,29,91.09
5046,B-3,683.75,0.25,29,91.09
5047,F#4,684.0,1.0,46,91.09
5048,F#2,684.0,0.188,35,91.09
5049,B-3,684.25,0.25,28,91.09
5050,C#3,684.5,0.25,28,91.09
5051,B-3,684.75,0.25,28,91.09
5052,F#4,685.0,1.5,46,91.09
5053,F#3,685.0,0.25,35,91.09
5054,B-3,685.25,0.25,31,91.09
5055,C#3,685.5,0.25,31,91.09
5056,B-3,685.75,0.25,31,91.09
5057,F#2,686.0,0.188,40,91.09
5058,B-3,686.25,0.25,36,91.09
5059,F#4,686.5,0.5,51,91.09
5060,C#3,686.5,0.25,36,91.09
5061,B-3,686.75,0.25,36,91.09
5062,F4,687.0,0.5,44,91.09
5063,F#3,687.0,0.25,35,91.09
5064,B-3,687.25,0.25,31,91.09
5065,E4,687.5,0.5,44,91.09
5066,C#3,687.5,0.25,31,91.09
5067,B-3,687.75,0.25,31,91.09
5068,F4,688.0,3.0,46,91.09
5069,F2,688.0,0.188,35,91.09
5070,B-3,688.25,0.25,28,91.09
5071,D3,688.5,0.25,28,91.09
5072,B-3,688.75,0.25,28,91.09
5073,F3,689.0,0.25,35,91.09
5074,B-3,689.25,0.25,31,91.09
5075,D3,689.5,0.25,31,91.09
5076,B-3,689.75,0.25,31,91.09
5077,F2,690.0,0.188,40,91.09
5078,B-3,690.25,0.25,36,91.09
5079,D3,690.5,0.25,36,91.09
5080,B-3,690.75,0.25,36,91.09
5081,B-4,691.0,1.0,39,91.09
5082,F3,691.0,0.25,35,91.09
5083,B-3,691.25,0.25,29,91.09
5084,D3,691.5,0.25,29,91.09
5085,B-3,691.75,0.25,29,91.09
5086,A4,692.0,1.0,43,91.09
5087,F2,692.0,0.188,35,91.09
5088,A3,692.25,0.25,28,91.09
5089,E-3,692.5,0.25,28,91.09
5090,A3,692.75,0.25,28,91.09
5091,F5,693.0,1.0,38,91.09
5092,F3,693.0,0.25,35,91.09
5093,A3,693.25,0.25,29,91.09
5094,E-3,693.5,0.25,29,91.09
5095,A3,693.75,0.25,29,91.09
5096,E-5,694.0,1.0,38,91.09
5097,F2,694.0,0.188,36,91.09
5098,A3,694.25,0.25,30,91.09
5099,E-3,694.5,0.25,30,91.09
5100,A3,694.75,0.25,26,91.09
5101,C5,695.0,0.75,38,91.09
5102,F3,695.0,0.75,33,91.09
5103,A3,695.25,0.5,23,91.09
5104,E-3,695.5,0.25,23,91.09
5105,F6,695.75,0.25,46,91.09
5106,E6,696.0,167/1000,51,91.09
5107,B-2,696.0,0.25,40,91.09
5108,G6,696.167,167/1000,46,91.09
5109,F6,696.333,167/1000,46,91.09
5110,E-6,696.5,167/1000,50,91.09
5111,D4,696.5,1.0,30,91.09
5112,B-3,696.5,1.0,30,91.09
5113,F3,696.5,1.0,30,91.09
5114,D6,696.667,167/1000,46,91.09
5115,C6,696.833,167/1000,46,91.09
5116,B-5,697.0,167/1000,50,91.09
5117,A5,697.167,167/1000,46,91.09
5118,G5,697.333,167/1000,46,91.09
5119,F5,697.5,167/1000,46,91.09
5120,F3,697.5,0.5,30,91.09
5121,B-3,697.5,0.5,30,91.09
5122,D4,697.5,0.5,30,91.09
5123,E-5,697.667,167/1000,46,91.09
5124,D5,697.833,167/1000,46,91.09
5125,C5,698.0,1.0,43,91.09
5126,D3,698.0,0.25,40,91.09
5127,F3,698.5,1.0,26,91.09
5128,B-3,698.5,1.0,26,91.09
5129,F4,698.5,1.0,26,91.09
5130,B-4,699.0,0.5,38,91.09
5131,F3,699.5,0.5,26,91.09
5132,B-3,699.5,0.5,26,91.09
5133,F4,699.5,0.5,26,91.09
5134,B-4,699.75,0.25,46,91.09
5135,A4,700.0,167/1000,36,91.09
5136,C3,700.0,0.25,40,91.09
5137,B-4,700.167,167/1000,37,91.09
5138,C5,700.333,167/1000,38,91.09
5139,D5,700.5,167/1000,40,91.09
5140,E-4,700.5,1.0,30,91.09
5141,A3,700.5,1.0,30,91.09
5142,F3,700.5,1.0,30,91.09
5143,E-5,700.667,167/1000,41,91.09
5144,F5,700.833,167/1000,42,91.09
5145,G5,701.0,167/1000,44,91.09
5146,A5,701.167,167/1000,45,91.09
5147,B-5,701.333,167/1000,46,91.09
5148,B5,701.5,167/1000,48,91.09
5149,F3,701.5,0.5,30,91.09
5150,A3,701.5,0.5,30,91.09
5151,E-4,701.5,0.5,30,91.09
5152,C6,701.667,167/1000,49,91.09
5153,D6,701.833,167/1000,51,91.09
5154,F6,702.0,1.0,65,91.09
5155,F2,702.0,0.25,40,91.09
5156,F3,702.5,1.0,26,91.09
5157,A3,702.5,1.0,26,91.09
5158,C4,702.5,1.0,26,91.09
5159,E-6,703.0,0.5,61,91.09
5160,F3,703.5,0.5,26,91.09
5161,A3,703.5,0.5,26,91.09
5162,C4,703.5,0.5,26,91.09
5163,E-6,703.75,0.25,46,91.09
5164,D6,704.0,167/1000,51,91.09
5165,B-2,704.0,0.25,40,91.09
5166,D7,704.167,167/1000,46,91.09
5167,C7,704.333,167/1000,46,91.09
5168,B-6,704.5,167/1000,50,91.09
5169,D4,704.5,1.0,30,91.09
5170,B-3,704.5,1.0,30,91.09
5171,F3,704.5,1.0,30,91.09
5172,A6,704.667,167/1000,46,91.09
5173,G6,704.833,167/1000,46,91.09
5174,F6,705.0,167/1000,50,91.09
5175,E-6,705.167,167/1000,46,91.09
5176,D6,705.333,167/1000,46,91.09
5177,C6,705.5,167/1000,46,91.09
5178,F3,705.5,0.5,30,91.09
5179,B-3,705.5,0.5,30,91.09
5180,D4,705.5,0.5,30,91.09
5181,B-5,705.667,167/1000,46,91.09
5182,A5,705.833,167/1000,46,91.09
5183,G5,706.0,167/1000,51,91.09
5184,E-2,706.0,0.25,40,91.09
5185,G6,706.167,167/1000,46,91.09
5186,F6,706.333,167/1000,46,91.09
5187,E-6,706.5,167/1000,50,91.09
5188,B-3,706.5,1.0,25,91.09
5189,E-3,706.5,1.0,25,91.09
5190,G3,706.5,1.0,25,91.09
5191,C4,706.5,1.0,25,91.09
5192,D6,706.667,167/1000,46,91.09
5193,C6,706.833,167/1000,46,91.09
5194,B-5,707.0,167/1000,50,91.09
5195,A5,707.167,167/1000,49,91.09
5196,G5,707.333,167/1000,50,91.09
5197,F5,707.5,167/1000,52,91.09
5198,B-3,707.5,0.5,25,91.09
5199,E-3,707.5,0.5,25,91.09
5200,G3,707.5,0.5,25,91.09
5201,C4,707.5,0.5,25,91.09
5202,E-5,707.667,167/1000,53,91.09
5203,D5,707.833,167/1000,54,91.09
5204,C5,708.0,167/1000,56,91.09
5205,E2,708.0,0.25,40,91.09
5206,E5,708.167,167/1000,56,91.09
5207,G5,708.333,167/1000,55,91.09
5208,B-5,708.5,167/1000,54,91.09
5209,B-3,708.5,1.0,30,91.09
5210,C4,708.5,1.0,30,91.09
5211,G3,708.5,1.0,30,91.09
5212,E3,708.5,1.0,30,91.09
5213,G5,708.667,167/1000,53,91.09
5214,B-5,708.833,167/1000,52,91.09
5215,C6,709.0,167/1000,51,91.09
5216,E6,709.167,167/1000,50,91.09
5217,G6,709.333,167/1000,49,91.09
5218,B-6,709.5,167/1000,47,91.09
5219,C3,709.5,0.5,34,91.09
5220,G6,709.667,167/1000,46,91.09
5221,E6,709.833,167/1000,45,91.09
5222,F6,710.0,0.5,53,91.09
5223,F2,710.0,0.25,40,91.09
5224,F6,710.5,167/1000,49,91.09
5225,F3,710.5,1.5,31,91.09
5226,C4,710.5,0.5,31,91.09
5227,A3,710.5,0.5,31,91.09
5228,G6,710.667,167/1000,43,91.09
5229,F6,710.833,167/1000,43,91.09
5230,E6,711.0,167/1000,48,91.09
5231,D4,711.0,0.5,31,91.09
5232,B-3,711.0,0.5,31,91.09
5233,G6,711.167,167/1000,42,91.09
5234,F6,711.333,167/1000,42,91.09
5235,E6,711.5,167/1000,43,91.09
5236,A3,711.5,0.5,31,91.09
5237,E-4,711.5,0.5,31,91.09
5238,G6,711.667,167/1000,42,91.09
5239,F6,711.833,167/1000,40,91.09
5240,E6,712.0,167/1000,51,91.09
5241,B-2,712.0,0.25,40,91.09
5242,G6,712.167,167/1000,46,91.09
5243,F6,712.333,167/1000,46,91.09
5244,E-6,712.5,167/1000,50,91.09
5245,D4,712.5,1.0,30,91.09
5246,B-3,712.5,1.0,30,91.09
5247,F3,712.5,1.0,30,91.09
5248,D6,712.667,167/1000,46,91.09
5249,C6,712.833,167/1000,46,91.09
5250,B-5,713.0,167/1000,50,91.09
5251,A5,713.167,167/1000,46,91.09
5252,G5,713.333,167/1000,46,91.09
5253,F5,713.5,167/1000,46,91.09
5254,F3,713.5,0.5,30,91.09
5255,B-3,713.5,0.5,30,91.09
5256,D4,713.5,0.5,30,91.09
5257,E-5,713.667,167/1000,46,91.09
5258,D5,713.833,167/1000,46,91.09
5259,C5,714.0,1.0,43,91.09
5260,D3,714.0,0.25,40,91.09
5261,F3,714.5,1.0,26,91.09
5262,B-3,714.5,1.0,26,91.09
5263,F4,714.5,1.0,26,91.09
5264,B-4,715.0,0.5,38,91.09
5265,F3,715.5,0.5,26,91.09
5266,B-3,715.5,0.5,26,91.09
5267,F4,715.5,0.5,26,91.09
5268,B-4,715.75,0.25,46,91.09
5269,A4,716.0,167/1000,36,91.09
5270,C3,716.0,0.25,40,91.09
5271,B-4,716.167,167/1000,37,91.09
5272,C5,716.333,167/1000,38,91.09
5273,D5,716.5,167/1000,40,91.09
5274,E-4,716.5,1.0,30,91.09
5275,A3,716.5,1.0,30,91.09
5276,F3,716.5,1.0,30,91.09
5277,E-5,716.667,167/1000,41,91.09
5278,F5,716.833,167/1000,42,91.09
5279,G5,717.0,167/1000,44,91.09
5280,A5,717.167,167/1000,45,91.09
5281,B-5,717.333,167/1000,46,91.09
5282,B5,717.5,167/1000,48,91.09
5283,F3,717.5,0.5,30,91.09
5284,A3,717.5,0.5,30,91.09
5285,E-4,717.5,0.5,30,91.09
5286,C6,717.667,167/1000,49,91.09
5287,D6,717.833,167/1000,51,91.09
5288,F6,718.0,0.75,65,91.09
5289,F2,718.0,0.25,40,91.09
5290,A3,718.5,1.0,26,91.09
5291,F3,718.5,1.0,26,91.09
5292,C4,718.5,1.0,26,91.09
5293,E6,718.75,0.25,59,91.09
5294,E-6,719.0,0.5,61,91.09
5295,C4,719.5,0.5,26,91.09
5296,F3,719.5,0.5,26,91.09
5297,A3,719.5,0.5,26,91.09
5298,E-6,719.75,0.25,46,91.09
5299,D6,720.0,167/1000,51,91.09
5300,B-2,720.0,0.25,40,91.09
5301,D7,720.167,167/1000,46,91.09
5302,C7,720.333,167/1000,46,91.09
5303,B-6,720.5,167/1000,50,91.09
5304,D4,720.5,1.0,30,91.09
5305,B-3,720.5,1.0,30,91.09
5306,F3,720.5,1.0,30,91.09
5307,A6,720.667,167/1000,46,91.09
5308,G6,720.833,167/1000,46,91.09
5309,F6,721.0,167/1000,50,91.09
5310,E-6,721.167,167/1000,46,91.09
5311,D6,721.333,167/1000,49,91.09
5312,C6,721.5,167/1000,52,91.09
5313,F3,721.5,0.5,30,91.09
5314,B-3,721.5,0.5,30,91.09
5315,D4,721.5,0.5,30,91.09
5316,B-5,721.667,167/1000,54,91.09
5317,A5,721.833,167/1000,57,91.09
5318,G5,722.0,167/1000,60,91.09
5319,E3,722.0,0.25,40,91.09
5320,B-6,722.167,167/1000,60,91.09
5321,G6,722.333,167/1000,58,91.09
5322,E6,722.5,167/1000,56,91.09
5323,C#4,722.5,1.0,26,91.09
5324,B-3,722.5,1.0,26,91.09
5325,G4,722.5,1.0,26,91.09
5326,C#6,722.667,167/1000,54,91.09
5327,B-5,722.833,167/1000,52,91.09
5328,G5,723.0,167/1000,56,91.09
5329,E5,723.167,167/1000,51,91.09
5330,C#5,723.333,167/1000,50,91.09
5331,B-4,723.5,167/1000,49,91.09
5332,B-3,723.5,0.5,26,91.09
5333,G3,723.5,0.5,26,91.09
5334,C#4,723.5,0.5,26,91.09
5335,G4,723.667,167/1000,49,91.09
5336,E4,723.833,167/1000,48,91.09
5337,F4,724.0,167/1000,49,91.09
5338,F2,724.0,0.25,40,91.09
5339,E4,724.167,167/1000,45,91.09
5340,F4,724.333,167/1000,45,91.09
5341,G4,724.5,167/1000,44,91.09
5342,B-3,724.5,0.5,31,91.09
5343,F3,724.5,1.5,31,91.09
5344,C4,724.5,1.0,31,91.09
5345,A4,724.667,167/1000,44,91.09
5346,B-4,724.833,167/1000,44,91.09
5347,C5,725.0,167/1000,44,91.09
5348,A3,725.0,0.5,31,91.09
5349,D5,725.167,167/1000,43,91.09
5350,E-5,725.333,167/1000,44,91.09
5351,F5,725.5,167/1000,45,91.09
5352,E-4,725.5,0.5,31,91.09
5353,C4,725.5,0.5,31,91.09
5354,G5,725.667,167/1000,46,91.09
5355,A5,725.833,167/1000,47,91.09
5356,B-5,726.0,167/1000,48,91.09
5357,B-2,726.0,0.25,40,91.09
5358,D6,726.167,167/1000,49,91.09
5359,F6,726.333,167/1000,51,91.09
5360,B-6,726.5,167/1000,52,91.09
5361,D4,726.5,1.5,31,91.09
5362,B-3,726.5,1.5,31,91.09
5363,D7,726.667,167/1000,54,91.09
5364,C7,726.833,167/1000,54,91.09
5365,B-6,727.0,167/1000,53,91.09
5366,F6,727.167,167/1000,52,91.09
5367,D6,727.333,167/1000,50,91.09
5368,B-5,727.5,167/1000,48,91.09
5369,D6,727.667,167/1000,47,91.09
5370,F6,727.833,167/1000,45,91.09
5371,E6,728.0,167/1000,51,91.09
5372,B-2,728.0,0.25,40,91.09
5373,G6,728.167,167/1000,46,91.09
5374,F6,728.333,167/1000,46,91.09
5375,E-6,728.5,167/1000,50,91.09
5376,D4,728.5,1.0,30,91.09
5377,B-3,728.5,1.0,30,91.09
5378,F3,728.5,1.0,30,91.09
5379,D6,728.667,167/1000,46,91.09
5380,C6,728.833,167/1000,46,91.09
5381,B-5,729.0,167/1000,50,91.09
5382,A5,729.167,167/1000,46,91.09
5383,G5,729.333,167/1000,46,91.09
5384,F5,729.5,167/1000,46,91.09
5385,F3,729.5,0.5,30,91.09
5386,B-3,729.5,0.5,30,91.09
5387,D4,729.5,0.5,30,91.09
5388,E-5,729.667,167/1000,46,91.09
5389,D5,729.833,167/1000,46,91.09
5390,C5,730.0,1.0,43,91.09
5391,D3,730.0,0.25,40,91.09
5392,F3,730.5,1.0,26,91.09
5393,B-3,730.5,1.0,26,91.09
5394,F4,730.5,1.0,26,91.09
5395,B-4,731.0,0.5,38,91.09
5396,F3,731.5,0.5,26,91.09
5397,B-3,731.5,0.5,26,91.09
5398,F4,731.5,0.5,26,91.09
5399,B-4,731.75,0.25,46,91.09
5400,A4,732.0,167/1000,36,91.09
5401,C3,732.0,0.25,40,91.09
5402,B-4,732.167,167/1000,37,91.09
5403,C5,732.333,167/1000,38,91.09
5404,D5,732.5,167/1000,40,91.09
5405,E-4,732.5,1.0,30,91.09
5406,A3,732.5,1.0,30,91.09
5407,F3,732.5,1.0,30,91.09
5408,E-5,732.667,167/1000,41,91.09
5409,F5,732.833,167/1000,42,91.09
5410,G5,733.0,167/1000,44,91.09
5411,A5,733.167,167/1000,45,91.09
5412,B-5,733.333,167/1000,46,91.09
5413,B5,733.5,167/1000,48,91.09
5414,E-4,733.5,0.5,30,91.09
5415,F3,733.5,0.5,30,91.09
5416,A3,733.5,0.5,30,91.09
5417,C6,733.667,167/1000,49,91.09
5418,D6,733.833,167/1000,51,91.09
5419,F6,734.0,1.0,65,91.09
5420,F2,734.0,0.25,40,91.09
5421,C4,734.5,1.0,26,91.09
5422,F3,734.5,1.0,26,91.09
5423,A3,734.5,1.0,26,91.09
5424,E-6,735.0,0.5,61,91.09
5425,A3,735.5,0.5,26,91.09
5426,C4,735.5,0.5,26,91.09
5427,F3,735.5,0.5,26,91.09
5428,E-6,735.75,0.25,46,91.09
5429,D6,736.0,167/1000,51,91.09
5430,B-2,736.0,0.25,40,91.09
5431,D7,736.167,167/1000,46,91.09
5432,C7,736.333,167/1000,46,91.09
5433,B-6,736.5,167/1000,50,91.09
5434,D4,736.5,1.0,30,91.09
5435,F3,736.5,1.0,30,91.09
5436,B-3,736.5,1.0,30,91.09
5437,A6,736.667,167/1000,46,91.09
5438,G6,736.833,167/1000,46,91.09
5439,F6,737.0,167/1000,50,91.09
5440,E-6,737.167,167/1000,46,91.09
5441,D6,737.333,167/1000,46,91.09
5442,C6,737.5,167/1000,46,91.09
5443,F3,737.5,0.5,30,91.09
5444,B-3,737.5,0.5,30,91.09
5445,D4,737.5,0.5,30,91.09
5446,B-5,737.667,167/1000,46,91.09
5447,A5,737.833,167/1000,46,91.09
5448,G5,738.0,167/1000,51,91.09
5449,E-2,738.0,0.25,40,91.09
5450,G6,738.167,167/1000,46,91.09
5451,F6,738.333,167/1000,46,91.09
5452,E-6,738.5,167/1000,50,91.09
5453,E-3,738.5,1.0,25,91.09
5454,B-3,738.5,1.0,25,91.09
5455,G3,738.5,1.0,25,91.09
5456,C4,738.5,1.0,25,91.09
5457,D6,738.667,167/1000,46,91.09
5458,C6,738.833,167/1000,46,91.09
5459,B-5,739.0,167/1000,50,91.09
5460,A5,739.167,167/1000,49,91.09
5461,G5,739.333,167/1000,50,91.09
5462,F5,739.5,167/1000,52,91.09
5463,E-3,739.5,0.5,25,91.09
5464,G3,739.5,0.5,25,91.09
5465,B-3,739.5,0.5,25,91.09
5466,C4,739.5,0.5,25,91.09
5467,E-5,739.667,167/1000,53,91.09
5468,D5,739.833,167/1000,54,91.09
5469,C5,740.0,167/1000,56,91.09
5470,E2,740.0,0.25,40,91.09
5471,E5,740.167,167/1000,56,91.09
5472,G5,740.333,167/1000,55,91.09
5473,B-5,740.5,167/1000,54,91.09
5474,C4,740.5,1.0,30,91.09
5475,B-3,740.5,1.0,30,91.09
5476,E3,740.5,1.0,30,91.09
5477,G3,740.5,1.0,30,91.09
5478,G5,740.667,167/1000,53,91.09
5479,B-5,740.833,167/1000,52,91.09
5480,C6,741.0,167/1000,51,91.09
5481,E6,741.167,167/1000,50,91.09
5482,G6,741.333,167/1000,49,91.09
5483,B-6,741.5,167/1000,47,91.09
5484,C3,741.5,0.5,34,91.09
5485,G6,741.667,167/1000,46,91.09
5486,E6,741.833,167/1000,45,91.09
5487,F6,742.0,0.5,53,91.09
5488,F2,742.0,0.25,40,91.09
5489,F6,742.5,167/1000,49,91.09
5490,F3,742.5,1.5,31,91.09
5491,A3,742.5,0.5,31,91.09
5492,C4,742.5,0.5,31,91.09
5493,G6,742.667,167/1000,43,91.09
5494,F6,742.833,167/1000,43,91.09
5495,E6,743.0,167/1000,48,91.09
5496,B-3,743.0,0.5,31,91.09
5497,D4,743.0,0.5,31,91.09
5498,G6,743.167,167/1000,42,91.09
5499,F6,743.333,167/1000,42,91.09
5500,E6,743.5,167/1000,42,91.09
5501,E-4,743.5,0.5,31,91.09
5502,A3,743.5,0.5,31,91.09
5503,G6,743.667,167/1000,39,91.09
5504,F6,743.833,167/1000,36,91.09
5505,E6,744.0,167/1000,51,91.09
5506,B-2,744.0,0.25,40,91.09
5507,G6,744.167,167/1000,46,91.09
5508,F6,744.333,167/1000,46,91.09
5509,E-6,744.5,167/1000,50,91.09
5510,D4,744.5,1.0,30,91.09
5511,B-3,744.5,1.0,30,91.09
5512,F3,744.5,1.0,30,91.09
5513,D6,744.667,167/1000,46,91.09
5514,C6,744.833,167/1000,46,91.09
5515,B-5,745.0,167/1000,50,91.09
5516,A5,745.167,167/1000,46,91.09
5517,G5,745.333,167/1000,46,91.09
5518,F5,745.5,167/1000,46,91.09
5519,F3,745.5,0.5,30,91.09
5520,B-3,745.5,0.5,30,91.09
5521,D4,745.5,0.5,30,91.09
5522,E-5,745.667,167/1000,46,91.09
5523,D5,745.833,167/1000,46,91.09
5524,C5,746.0,1.0,43,91.09
5525,D3,746.0,0.25,40,91.09
5526,B-3,746.5,1.0,26,91.09
5527,F3,746.5,1.0,26,91.09
5528,F4,746.5,1.0,26,91.09
5529,B-4,747.0,0.5,38,91.09
5530,B-3,747.5,0.5,26,91.09
5531,F3,747.5,0.5,26,91.09
5532,F4,747.5,0.5,26,91.09
5533,B-4,747.75,0.25,46,91.09
5534,A4,748.0,167/1000,36,91.09
5535,C3,748.0,0.25,40,91.09
5536,B-4,748.167,167/1000,37,91.09
5537,C5,748.333,167/1000,38,91.09
5538,D5,748.5,167/1000,40,91.09
5539,A3,748.5,1.0,30,91.09
5540,F3,748.5,1.0,30,91.09
5541,E-4,748.5,1.0,30,91.09
5542,E-5,748.667,167/1000,41,91.09
5543,F5,748.833,167/1000,42,91.09
5544,G5,749.0,167/1000,44,91.09
5545,A5,749.167,167/1000,45,91.09
5546,B-5,749.333,167/1000,46,91.09
5547,B5,749.5,167/1000,48,91.09
5548,A3,749.5,0.5,30,91.09
5549,F3,749.5,0.5,30,91.09
5550,E-4,749.5,0.5,30,91.09
5551,C6,749.667,167/1000,49,91.09
5552,D6,749.833,167/1000,51,91.09
5553,F6,750.0,0.75,65,91.09
5554,F2,750.0,0.25,40,91.09
5555,A3,750.5,1.0,26,91.09
5556,F3,750.5,1.0,26,91.09
5557,C4,750.5,1.0,26,91.09
5558,E6,750.75,0.25,59,91.09
5559,E-6,751.0,0.5,61,91.09
5560,A3,751.5,0.5,26,91.09
5561,C4,751.5,0.5,26,91.09
5562,F3,751.5,0.5,26,91.09
5563,E-6,751.75,0.25,46,91.09
5564,D6,752.0,167/1000,51,91.09
5565,B-2,752.0,0.25,40,91.09
5566,D7,752.167,167/1000,46,91.09
5567,C7,752.333,167/1000,46,91.09
5568,B-6,752.5,167/1000,50,91.09
5569,B-3,752.5,1.0,30,91.09
5570,D4,752.5,1.0,30,91.09
5571,F3,752.5,1.0,30,91.09
5572,A6,752.667,167/1000,46,91.09
5573,G6,752.833,167/1000,46,91.09
5574,F6,753.0,167/1000,50,91.09
5575,E-6,753.167,167/1000,46,91.09
5576,D6,753.333,167/1000,49,91.09
5577,C6,753.5,167/1000,52,91.09
5578,F3,753.5,0.5,30,91.09
5579,B-3,753.5,0.5,30,91.09
5580,D4,753.5,0.5,30,91.09
5581,B-5,753.667,167/1000,54,91.09
5582,A5,753.833,167/1000,57,91.09
5583,G5,754.0,167/1000,60,91.09
5584,E3,754.0,0.25,40,91.09
5585,B-6,754.167,167/1000,60,91.09
5586,G6,754.333,167/1000,58,91.09
5587,E6,754.5,167/1000,56,91.09
5588,C#4,754.5,1.0,26,91.09
5589,B-3,754.5,1.0,26,91.09
5590,G4,754.5,1.0,26,91.09
5591,C#6,754.667,167/1000,54,91.09
5592,B-5,754.833,167/1000,52,91.09
5593,G5,755.0,167/1000,56,91.09
5594,E5,755.167,167/1000,51,91.09
5595,C#5,755.333,167/1000,50,91.09
5596,B-4,755.5,167/1000,49,91.09
5597,B-3,755.5,0.5,26,91.09
5598,G3,755.5,0.5,26,91.09
5599,C#4,755.5,0.5,26,91.09
5600,G4,755.667,167/1000,49,91.09
5601,E4,755.833,167/1000,48,91.09
5602,F4,756.0,167/1000,49,91.09
5603,F2,756.0,0.25,40,91.09
5604,E4,756.167,167/1000,45,91.09
5605,F4,756.333,167/1000,45,91.09
5606,G4,756.5,167/1000,44,91.09
5607,B-3,756.5,0.5,31,91.09
5608,F3,756.5,1.5,31,91.09
5609,C4,756.5,1.0,31,91.09
5610,A4,756.667,167/1000,44,91.09
5611,B-4,756.833,167/1000,44,91.09
5612,C5,757.0,167/1000,44,91.09
5613,A3,757.0,0.5,31,91.09
5614,D5,757.167,167/1000,43,91.09
5615,E-5,757.333,167/1000,44,91.09
5616,F5,757.5,167/1000,45,91.09
5617,C4,757.5,0.5,31,91.09
5618,E-4,757.5,0.5,31,91.09
5619,G5,757.667,167/1000,46,91.09
5620,A5,757.833,167/1000,47,91.09
5621,B-5,758.0,167/1000,48,91.09
5622,B-2,758.0,0.25,40,91.09
5623,D6,758.167,167/1000,49,91.09
5624,F6,758.333,167/1000,51,91.09
5625,B-6,758.5,167/1000,52,91.09
5626,B-3,758.5,1.5,31,91.09
5627,D4,758.5,1.5,31,91.09
5628,D7,758.667,167/1000,54,91.09
5629,C7,758.833,167/1000,54,91.09
5630,B-6,759.0,167/1000,53,91.09
5631,F6,759.167,167/1000,52,91.09
5632,D6,759.333,167/1000,50,91.09
5633,B-5,759.5,167/1000,48,91.09
5634,C6,759.667,167/1000,47,91.09
5635,C#6,759.833,167/1000,45,91.09
5636,D6,760.0,0.25,75,91.09
5637,D2,760.0,167/1000,51,91.09
5638,E2,760.167,167/1000,48,91.09
5639,F#2,760.333,167/1000,46,91.09
5640,G2,760.5,167/1000,53,91.09
5641,D5,760.5,1.0,71,91.09
5642,F#5,760.5,1.0,71,91.09
5643,C6,760.5,1.0,71,91.09
5644,D6,760.5,1.0,71,91.09
5645,A2,760.667,167/1000,54,91.09
5646,B-2,760.833,167/1000,49,91.09
5647,C3,761.0,167/1000,55,91.09
5648,D3,761.167,167/1000,52,91.09
5649,E3,761.333,167/1000,53,91.09
5650,F#3,761.5,167/1000,57,91.09
5651,D5,761.5,0.5,62,91.09
5652,F#5,761.5,0.5,62,91.09
5653,C6,761.5,0.5,62,91.09
5654,D6,761.5,0.5,62,91.09
5655,G3,761.667,167/1000,54,91.09
5656,A3,761.833,167/1000,54,91.09
5657,B-3,762.0,167/1000,63,91.09
5658,D4,762.167,167/1000,54,91.09
5659,B-3,762.333,167/1000,54,91.09
5660,G3,762.5,167/1000,62,91.09
5661,D6,762.5,1.0,70,91.09
5662,B-5,762.5,1.0,70,91.09
5663,G5,762.5,1.0,70,91.09
5664,D5,762.5,1.0,70,91.09
5665,B-3,762.667,167/1000,53,91.09
5666,G3,762.833,167/1000,53,91.09
5667,D3,763.0,167/1000,65,91.09
5668,G3,763.167,167/1000,53,91.09
5669,D3,763.333,167/1000,53,91.09
5670,B-2,763.5,167/1000,65,91.09
5671,G6,763.5,0.5,65,91.09
5672,D6,763.5,0.5,65,91.09
5673,B-5,763.5,0.5,65,91.09
5674,G5,763.5,0.5,65,91.09
5675,D3,763.667,167/1000,51,91.09
5676,B-2,763.833,167/1000,51,91.09
5677,G2,764.0,167/1000,51,91.09
5678,A2,764.167,167/1000,48,91.09
5679,B-2,764.333,167/1000,46,91.09
5680,C3,764.5,167/1000,53,91.09
5681,B-5,764.5,1.0,79,91.09
5682,D6,764.5,1.0,79,91.09
5683,B-6,764.5,1.0,79,91.09
5684,D3,764.667,167/1000,54,91.09
5685,E3,764.833,167/1000,49,91.09
5686,F#3,765.0,167/1000,55,91.09
5687,G3,765.167,167/1000,52,91.09
5688,G#3,765.333,167/1000,53,91.09
5689,A3,765.5,167/1000,57,91.09
5690,G5,765.5,0.5,68,91.09
5691,D6,765.5,0.5,68,91.09
5692,G6,765.5,0.5,68,91.09
5693,B-3,765.667,167/1000,54,91.09
5694,B3,765.833,167/1000,54,91.09
5695,C4,766.0,167/1000,63,91.09
5696,E5,766.0,2.0,70,91.09
5697,G5,766.0,2.0,70,91.09
5698,C6,766.0,2.0,70,91.09
5699,E6,766.0,2.0,70,91.09
5700,E4,766.167,167/1000,54,91.09
5701,C4,766.333,167/1000,54,91.09
5702,G3,766.5,167/1000,62,91.09
5703,C4,766.667,167/1000,53,91.09
5704,G3,766.833,167/1000,53,91.09
5705,E3,767.0,167/1000,65,91.09
5706,G3,767.167,167/1000,53,91.09
5707,E3,767.333,167/1000,53,91.09
5708,C3,767.5,0.5,65,91.09
5709,A2,768.0,167/1000,51,91.09
5710,C3,768.167,167/1000,41,91.09
5711,F3,768.333,167/1000,44,91.09
5712,F6,768.5,667/1000,88,91.09
5713,A3,768.5,167/1000,47,91.09
5714,F5,768.5,0.5,74,91.09
5715,C6,768.5,0.5,74,91.09
5716,C4,768.667,167/1000,50,91.09
5717,F4,768.833,167/1000,53,91.09
5718,A4,769.0,0.5,56,91.09
5719,C6,769.167,167/1000,64,91.09
5720,A5,769.333,167/1000,61,91.09
5721,F5,769.5,167/1000,59,91.09
5722,C5,769.667,167/1000,57,91.09
5723,A4,769.833,167/1000,54,91.09
5724,G4,770.0,0.25,52,91.09
5725,B-2,770.0,167/1000,51,91.09
5726,D3,770.167,167/1000,41,91.09
5727,G3,770.333,167/1000,44,91.09
5728,F6,770.5,667/1000,88,91.09
5729,B-3,770.5,167/1000,47,91.09
5730,F5,770.5,0.5,74,91.09
5731,D6,770.5,0.5,74,91.09
5732,D4,770.667,167/1000,50,91.09
5733,G4,770.833,167/1000,53,91.09
5734,B-4,771.0,0.5,56,91.09
5735,D6,771.167,167/1000,60,91.09
5736,B-5,771.333,167/1000,58,91.09
5737,F5,771.5,167/1000,56,91.09
5738,D5,771.667,167/1000,55,91.09
5739,B-4,771.833,167/1000,53,91.09
5740,A4,772.0,167/1000,51,91.09
5741,C3,772.0,0.25,59,91.09
5742,C6,772.167,167/1000,70,91.09
5743,B-5,772.333,167/1000,67,91.09
5744,A5,772.5,167/1000,65,91.09
5745,F4,772.5,0.25,36,91.09
5746,C4,772.5,0.25,36,91.09
5747,A3,772.5,0.25,36,91.09
5748,G5,772.667,167/1000,63,91.09
5749,F5,772.833,167/1000,61,91.09
5750,E5,773.0,167/1000,59,91.09
5751,C3,773.0,0.25,46,91.09
5752,D5,773.167,167/1000,57,91.09
5753,C5,773.333,167/1000,55,91.09
5754,B-4,773.5,167/1000,53,91.09
5755,E4,773.5,0.25,37,91.09
5756,C4,773.5,0.25,37,91.09
5757,B-3,773.5,0.25,37,91.09
5758,A4,773.667,167/1000,51,91.09
5759,G4,773.833,167/1000,49,91.09
5760,F4,774.0,0.5,53,91.09
5761,F2,774.0,0.25,40,91.09
5762,F5,774.5,167/1000,49,91.09
5763,F3,774.5,1.5,31,91.09
5764,C4,774.5,0.5,31,91.09
5765,A3,774.5,0.5,31,91.09
5766,G5,774.667,167/1000,43,91.09
5767,F5,774.833,167/1000,43,91.09
5768,E5,775.0,167/1000,48,91.09
5769,D4,775.0,0.5,31,91.09
5770,B-3,775.0,0.5,31,91.09
5771,G5,775.167,167/1000,44,91.09
5772,F5,775.333,167/1000,42,91.09
5773,E5,775.5,167/1000,41,91.09
5774,A3,775.5,0.5,31,91.09
5775,E-4,775.5,0.5,31,91.09
5776,G6,775.667,167/1000,39,91.09
5777,F6,775.833,167/1000,38,91.09
5778,E6,776.0,167/1000,51,91.09
5779,B-2,776.0,0.25,40,91.09
5780,G6,776.167,167/1000,46,91.09
5781,F6,776.333,167/1000,46,91.09
5782,E-6,776.5,167/1000,50,91.09
5783,D4,776.5,1.0,30,91.09
5784,B-3,776.5,1.0,30,91.09
5785,F3,776.5,1.0,30,91.09
5786,D6,776.667,167/1000,46,91.09
5787,C6,776.833,167/1000,46,91.09
5788,B-5,777.0,167/1000,50,91.09
5789,A5,777.167,167/1000,46,91.09
5790,G5,777.333,167/1000,46,91.09
5791,F5,777.5,167/1000,46,91.09
5792,F3,777.5,0.5,30,91.09
5793,B-3,777.5,0.5,30,91.09
5794,D4,777.5,0.5,30,91.09
5795,E-5,777.667,167/1000,46,91.09
5796,D5,777.833,167/1000,46,91.09
5797,C5,778.0,1.0,43,91.09
5798,D3,778.0,0.25,40,91.09
5799,G#3,778.5,1.0,26,91.09
5800,B-3,778.5,1.0,26,91.09
5801,F4,778.5,1.0,26,91.09
5802,B-4,779.0,0.5,38,91.09
5803,G#3,779.5,0.5,26,91.09
5804,B-3,779.5,0.5,26,91.09
5805,F4,779.5,0.5,26,91.09
5806,A4,779.75,0.25,46,91.09
5807,B-4,780.0,167/1000,36,91.09
5808,E-3,780.0,0.25,40,91.09
5809,C5,780.167,167/1000,37,91.09
5810,D5,780.333,167/1000,38,91.09
5811,E-5,780.5,167/1000,40,91.09
5812,E-4,780.5,1.0,30,91.09
5813,B-3,780.5,1.0,30,91.09
5814,G3,780.5,1.0,30,91.09
5815,F5,780.667,167/1000,41,91.09
5816,G5,780.833,167/1000,42,91.09
5817,A5,781.0,167/1000,45,91.09
5818,B-5,781.167,167/1000,47,91.09
5819,C6,781.333,167/1000,50,91.09
5820,D6,781.5,167/1000,52,91.09
5821,G3,781.5,0.5,30,91.09
5822,B-3,781.5,0.5,30,91.09
5823,E-4,781.5,0.5,30,91.09
5824,E-6,781.667,167/1000,55,91.09
5825,F6,781.833,167/1000,57,91.09
5826,G6,782.0,83/1000,60,91.09
5827,E3,782.0,0.25,40,91.09
5828,A6,782.083,83/1000,50,91.09
5829,G6,782.167,83/1000,51,91.09
5830,A6,782.25,83/1000,52,91.09
5831,G6,782.333,83/1000,53,91.09
5832,A6,782.417,83/1000,55,91.09
5833,G6,782.5,83/1000,54,91.09
5834,B-3,782.5,1.0,26,91.09
5835,C#4,782.5,1.0,26,91.09
5836,G4,782.5,1.0,26,91.09
5837,F#6,782.583,83/1000,53,91.09
5838,G6,782.667,83/1000,52,91.09
5839,B-6,782.75,0.25,51,91.09
5840,C#7,783.0,0.5,68,91.09
5841,B-3,783.5,0.5,26,91.09
5842,C#4,783.5,0.5,26,91.09
5843,G4,783.5,0.5,26,91.09
5844,C5,783.75,0.25,46,91.09
5845,B4,784.0,167/1000,51,91.09
5846,G3,784.0,0.25,40,91.09
5847,C5,784.167,167/1000,46,91.09
5848,D5,784.333,167/1000,46,91.09
5849,E5,784.5,167/1000,50,91.09
5850,E4,784.5,1.0,30,91.09
5851,C4,784.5,1.0,30,91.09
5852,B-3,784.5,1.0,30,91.09
5853,F5,784.667,167/1000,46,91.09
5854,G5,784.833,167/1000,46,91.09
5855,A5,785.0,167/1000,50,91.09
5856,B-5,785.167,167/1000,48,91.09
5857,C6,785.333,167/1000,51,91.09
5858,D6,785.5,167/1000,54,91.09
5859,E4,785.5,0.5,30,91.09
5860,B-3,785.5,0.5,30,91.09
5861,C4,785.5,0.5,30,91.09
5862,E-6,785.667,167/1000,57,91.09
5863,E6,785.833,167/1000,60,91.09
5864,F6,786.0,167/1000,65,91.09
5865,F3,786.0,0.25,40,91.09
5866,F7,786.167,167/1000,67,91.09
5867,E7,786.333,167/1000,65,91.09
5868,E-7,786.5,167/1000,63,91.09
5869,D4,786.5,1.0,26,91.09
5870,B-3,786.5,1.0,26,91.09
5871,F4,786.5,1.0,26,91.09
5872,D7,786.667,167/1000,61,91.09
5873,C7,786.833,167/1000,60,91.09
5874,B-6,787.0,167/1000,58,91.09
5875,A6,787.167,167/1000,56,91.09
5876,G6,787.333,167/1000,54,91.09
5877,F6,787.5,167/1000,52,91.09
5878,D4,787.5,0.5,26,91.09
5879,B-3,787.5,0.5,26,91.09
5880,F4,787.5,0.5,26,91.09
5881,E-6,787.667,167/1000,50,91.09
5882,D6,787.833,167/1000,48,91.09
5883,C6,788.0,167/1000,46,91.09
5884,F2,788.0,0.25,40,91.09
5885,A6,788.167,167/1000,45,91.09
5886,G6,788.333,167/1000,45,91.09
5887,E-6,788.5,167/1000,44,91.09
5888,A3,788.5,1.0,31,91.09
5889,F3,788.5,1.0,31,91.09
5890,E-4,788.5,1.0,31,91.09
5891,C6,788.667,167/1000,44,91.09
5892,B-5,788.833,167/1000,44,91.09
5893,A5,789.0,167/1000,44,91.09
5894,G5,789.167,167/1000,43,91.09
5895,F5,789.333,167/1000,43,91.09
5896,E-5,789.5,167/1000,43,91.09
5897,F3,789.5,0.5,31,91.09
5898,A3,789.5,0.5,31,91.09
5899,E-4,789.5,0.5,31,91.09
5900,D5,789.667,167/1000,43,91.09
5901,C5,789.833,167/1000,43,91.09
5902,B-4,790.0,167/1000,45,91.09
5903,B-2,790.0,0.25,40,91.09
5904,D5,790.167,167/1000,46,91.09
5905,F5,790.333,167/1000,46,91.09
5906,B-5,790.5,167/1000,47,91.09
5907,B-3,790.5,1.5,31,91.09
5908,D4,790.5,1.5,31,91.09
5909,D6,790.667,167/1000,48,91.09
5910,C6,790.833,167/1000,49,91.09
5911,B-5,791.0,167/1000,51,91.09
5912,A5,791.167,167/1000,55,91.09
5913,B-5,791.333,167/1000,58,91.09
5914,B5,791.5,167/1000,62,91.09
5915,C6,791.667,167/1000,65,91.09
5916,C#6,791.833,167/1000,68,91.09
5917,D6,792.0,0.25,75,91.09
5918,D2,792.0,167/1000,51,91.09
5919,E2,792.167,167/1000,48,91.09
5920,F#2,792.333,167/1000,46,91.09
5921,G2,792.5,167/1000,53,91.09
5922,D5,792.5,1.0,71,91.09
5923,F#5,792.5,1.0,71,91.09
5924,C6,792.5,1.0,71,91.09
5925,D6,792.5,1.0,71,91.09
5926,A2,792.667,167/1000,54,91.09
5927,B-2,792.833,167/1000,49,91.09
5928,C3,793.0,167/1000,55,91.09
5929,D3,793.167,167/1000,52,91.09
5930,E3,793.333,167/1000,53,91.09
5931,F#3,793.5,167/1000,57,91.09
5932,D5,793.5,0.5,62,91.09
5933,F#5,793.5,0.5,62,91.09
5934,C6,793.5,0.5,62,91.09
5935,D6,793.5,0.5,62,91.09
5936,G3,793.667,167/1000,54,91.09
5937,A3,793.833,167/1000,54,91.09
5938,B-3,794.0,167/1000,63,91.09
5939,D4,794.167,167/1000,54,91.09
5940,B-3,794.333,167/1000,54,91.09
5941,G3,794.5,167/1000,62,91.09
5942,D6,794.5,1.0,70,91.09
5943,B-5,794.5,1.0,70,91.09
5944,G5,794.5,1.0,70,91.09
5945,D5,794.5,1.0,70,91.09
5946,B-3,794.667,167/1000,53,91.09
5947,G3,794.833,167/1000,53,91.09
5948,D3,795.0,167/1000,65,91.09
5949,G3,795.167,167/1000,53,91.09
5950,D3,795.333,167/1000,53,91.09
5951,B-2,795.5,167/1000,65,91.09
5952,G6,795.5,0.5,65,91.09
5953,D6,795.5,0.5,65,91.09
5954,B-5,795.5,0.5,65,91.09
5955,G5,795.5,0.5,65,91.09
5956,D3,795.667,167/1000,51,91.09
5957,B-2,795.833,167/1000,51,91.09
5958,G2,796.0,167/1000,51,91.09
5959,A2,796.167,167/1000,48,91.09
5960,B-2,796.333,167/1000,46,91.09
5961,C3,796.5,167/1000,53,91.09
5962,B-5,796.5,1.0,79,91.09
5963,D6,796.5,1.0,79,91.09
5964,B-6,796.5,1.0,79,91.09
5965,D3,796.667,167/1000,54,91.09
5966,E3,796.833,167/1000,49,91.09
5967,F#3,797.0,167/1000,55,91.09
5968,G3,797.167,167/1000,52,91.09
5969,G#3,797.333,167/1000,53,91.09
5970,A3,797.5,167/1000,57,91.09
5971,G5,797.5,0.5,68,91.09
5972,D6,797.5,0.5,68,91.09
5973,G6,797.5,0.5,68,91.09
5974,B-3,797.667,167/1000,54,91.09
5975,B3,797.833,167/1000,54,91.09
5976,C4,798.0,167/1000,63,91.09
5977,E5,798.0,2.0,70,91.09
5978,G5,798.0,2.0,70,91.09
5979,C6,798.0,2.0,70,91.09
5980,E6,798.0,2.0,70,91.09
5981,E4,798.167,167/1000,54,91.09
5982,C4,798.333,167/1000,54,91.09
5983,G3,798.5,167/1000,62,91.09
5984,C4,798.667,167/1000,53,91.09
5985,G3,798.833,167/1000,53,91.09
5986,E3,799.0,167/1000,65,91.09
5987,G3,799.167,167/1000,53,91.09
5988,E3,799.333,167/1000,53,91.09
5989,C3,799.5,0.5,65,91.09
5990,A2,800.0,167/1000,51,91.09
5991,C3,800.167,167/1000,41,91.09
5992,F3,800.333,167/1000,44,91.09
5993,F6,800.5,667/1000,88,91.09
5994,A3,800.5,167/1000,47,91.09
5995,F5,800.5,0.5,74,91.09
5996,C6,800.5,0.5,74,91.09
5997,C4,800.667,167/1000,50,91.09
5998,F4,800.833,167/1000,53,91.09
5999,A4,801.0,0.5,56,91.09
6000,C6,801.167,167/1000,63,91.09
6001,A5,801.333,167/1000,61,91.09
6002,F5,801.5,167/1000,59,91.09
6003,C5,801.667,167/1000,56,91.09
6004,A4,801.833,167/1000,54,91.09
6005,G4,802.0,0.25,52,91.09
6006,B-2,802.0,167/1000,51,91.09
6007,D3,802.167,167/1000,41,91.09
6008,G3,802.333,167/1000,44,91.09
6009,F6,802.5,667/1000,88,91.09
6010,B-3,802.5,167/1000,47,91.09
6011,F5,802.5,0.5,74,91.09
6012,D6,802.5,0.5,74,91.09
6013,D4,802.667,167/1000,50,91.09
6014,G4,802.833,167/1000,53,91.09
6015,B-4,803.0,0.5,56,91.09
6016,D6,803.167,167/1000,65,91.09
6017,B-5,803.333,167/1000,63,91.09
6018,F5,803.5,167/1000,61,91.09
6019,D5,803.667,167/1000,59,91.09
6020,B-4,803.833,167/1000,57,91.09
6021,A4,804.0,167/1000,55,91.09
6022,C3,804.0,0.25,59,91.09
6023,C6,804.167,167/1000,70,91.09
6024,B-5,804.333,167/1000,67,91.09
6025,A5,804.5,167/1000,65,91.09
6026,F4,804.5,0.25,36,91.09
6027,C4,804.5,0.25,36,91.09
6028,A3,804.5,0.25,36,91.09
6029,G5,804.667,167/1000,63,91.09
6030,F5,804.833,167/1000,61,91.09
6031,E5,805.0,167/1000,59,91.09
6032,C3,805.0,0.25,46,91.09
6033,D5,805.167,167/1000,57,91.09
6034,C5,805.333,167/1000,55,91.09
6035,B-4,805.5,167/1000,53,91.09
6036,E4,805.5,0.25,37,91.09
6037,C4,805.5,0.25,37,91.09
6038,B-3,805.5,0.25,37,91.09
6039,A4,805.667,167/1000,51,91.09
6040,G4,805.833,167/1000,49,91.09
6041,F4,806.0,0.5,53,91.09
6042,F2,806.0,0.25,40,91.09
6043,F5,806.5,167/1000,49,91.09
6044,F3,806.5,1.5,31,91.09
6045,C4,806.5,0.5,31,91.09
6046,A3,806.5,0.5,31,91.09
6047,G5,806.667,167/1000,43,91.09
6048,F5,806.833,167/1000,43,91.09
6049,E5,807.0,167/1000,48,91.09
6050,D4,807.0,0.5,31,91.09
6051,B-3,807.0,0.5,31,91.09
6052,G5,807.167,167/1000,42,91.09
6053,F5,807.333,167/1000,42,91.09
6054,E5,807.5,167/1000,43,91.09
6055,A3,807.5,0.5,31,91.09
6056,E-4,807.5,0.5,31,91.09
6057,G6,807.667,167/1000,40,91.09
6058,F6,807.833,167/1000,38,91.09
6059,E6,808.0,167/1000,51,91.09
6060,B-2,808.0,0.25,40,91.09
6061,G6,808.167,167/1000,46,91.09
6062,F6,808.333,167/1000,46,91.09
6063,E-6,808.5,167/1000,50,91.09
6064,F3,808.5,1.0,30,91.09
6065,D4,808.5,1.0,30,91.09
6066,B-3,808.5,1.0,30,91.09
6067,D6,808.667,167/1000,46,91.09
6068,C6,808.833,167/1000,46,91.09
6069,B-5,809.0,167/1000,50,91.09
6070,A5,809.167,167/1000,46,91.09
6071,G5,809.333,167/1000,46,91.09
6072,F5,809.5,167/1000,46,91.09
6073,F3,809.5,0.5,30,91.09
6074,B-3,809.5,0.5,30,91.09
6075,D4,809.5,0.5,30,91.09
6076,E-5,809.667,167/1000,46,91.09
6077,D5,809.833,167/1000,46,91.09
6078,C5,810.0,1.0,43,91.09
6079,D3,810.0,0.25,40,91.09
6080,G#3,810.5,1.0,26,91.09
6081,B-3,810.5,1.0,26,91.09
6082,F4,810.5,1.0,26,91.09
6083,B-4,811.0,0.5,38,91.09
6084,G#3,811.5,0.5,26,91.09
6085,B-3,811.5,0.5,26,91.09
6086,F4,811.5,0.5,26,91.09
6087,A4,811.75,0.25,46,91.09
6088,B-4,812.0,167/1000,36,91.09
6089,E-3,812.0,0.25,40,91.09
6090,C5,812.167,167/1000,37,91.09
6091,D5,812.333,167/1000,38,91.09
6092,E-5,812.5,167/1000,40,91.09
6093,E-4,812.5,1.0,30,91.09
6094,B-3,812.5,1.0,30,91.09
6095,G3,812.5,1.0,30,91.09
6096,F5,812.667,167/1000,41,91.09
6097,G5,812.833,167/1000,42,91.09
6098,A5,813.0,167/1000,45,91.09
6099,B-5,813.167,167/1000,47,91.09
6100,C6,813.333,167/1000,50,91.09
6101,D6,813.5,167/1000,52,91.09
6102,G3,813.5,0.5,30,91.09
6103,B-3,813.5,0.5,30,91.09
6104,E-4,813.5,0.5,30,91.09
6105,E-6,813.667,167/1000,55,91.09
6106,F6,813.833,167/1000,57,91.09
6107,G6,814.0,83/1000,51,91.09
6108,E3,814.0,0.25,40,91.09
6109,A6,814.083,83/1000,52,91.09
6110,G6,814.167,83/1000,53,91.09
6111,A6,814.25,83/1000,54,91.09
6112,G6,814.333,83/1000,55,91.09
6113,A6,814.417,83/1000,56,91.09
6114,G6,814.5,83/1000,54,91.09
6115,B-3,814.5,1.0,26,91.09
6116,C#4,814.5,1.0,26,91.09
6117,G4,814.5,1.0,26,91.09
6118,F#6,814.583,83/1000,53,91.09
6119,G6,814.667,83/1000,52,91.09
6120,B-6,814.75,0.25,51,91.09
6121,C#7,815.0,0.5,68,91.09
6122,B-3,815.5,0.5,26,91.09
6123,C#4,815.5,0.5,26,91.09
6124,G4,815.5,0.5,26,91.09
6125,C5,815.75,0.25,46,91.09
6126,B4,816.0,167/1000,51,91.09
6127,G3,816.0,0.25,40,91.09
6128,C5,816.167,167/1000,46,91.09
6129,D5,816.333,167/1000,46,91.09
6130,E5,816.5,167/1000,50,91.09
6131,C4,816.5,1.0,30,91.09
6132,E4,816.5,1.0,30,91.09
6133,B-3,816.5,1.0,30,91.09
6134,F5,816.667,167/1000,46,91.09
6135,G5,816.833,167/1000,46,91.09
6136,A5,817.0,167/1000,50,91.09
6137,B-5,817.167,167/1000,49,91.09
6138,C6,817.333,167/1000,51,91.09
6139,D6,817.5,167/1000,54,91.09
6140,B-3,817.5,0.5,30,91.09
6141,C4,817.5,0.5,30,91.09
6142,E4,817.5,0.5,30,91.09
6143,E-6,817.667,167/1000,56,91.09
6144,E6,817.833,167/1000,59,91.09
6145,F6,818.0,167/1000,61,91.09
6146,F3,818.0,0.25,40,91.09
6147,F7,818.167,167/1000,65,91.09
6148,E7,818.333,167/1000,63,91.09
6149,E-7,818.5,167/1000,61,91.09
6150,D4,818.5,1.0,26,91.09
6151,B-3,818.5,1.0,26,91.09
6152,F4,818.5,1.0,26,91.09
6153,D7,818.667,167/1000,60,91.09
6154,C7,818.833,167/1000,58,91.09
6155,B-6,819.0,167/1000,56,91.09
6156,A6,819.167,167/1000,55,91.09
6157,G6,819.333,167/1000,53,91.09
6158,F6,819.5,167/1000,51,91.09
6159,D4,819.5,0.5,26,91.09
6160,B-3,819.5,0.5,26,91.09
6161,F4,819.5,0.5,26,91.09
6162,E-6,819.667,167/1000,50,91.09
6163,D6,819.833,167/1000,48,91.09
6164,C6,820.0,167/1000,49,91.09
6165,F2,820.0,0.25,40,91.09
6166,A6,820.167,167/1000,45,91.09
6167,G6,820.333,167/1000,45,91.09
6168,E-6,820.5,167/1000,44,91.09
6169,A3,820.5,1.0,31,91.09
6170,F3,820.5,1.0,31,91.09
6171,E-4,820.5,1.0,31,91.09
6172,C6,820.667,167/1000,44,91.09
6173,B-5,820.833,167/1000,44,91.09
6174,A5,821.0,167/1000,44,91.09
6175,G5,821.167,167/1000,43,91.09
6176,F5,821.333,167/1000,43,91.09
6177,E-5,821.5,167/1000,43,91.09
6178,F3,821.5,0.5,31,91.09
6179,A3,821.5,0.5,31,91.09
6180,E-4,821.5,0.5,31,91.09
6181,D5,821.667,167/1000,43,91.09
6182,C5,821.833,167/1000,43,91.09
6183,B-4,822.0,167/1000,45,91.09
6184,F2,822.0,0.25,40,91.09
6185,D5,822.167,167/1000,46,91.09
6186,F5,822.333,167/1000,46,91.09
6187,B-5,822.5,167/1000,48,91.09
6188,D4,822.5,1.0,31,91.09
6189,F3,822.5,1.0,31,91.09
6190,B-3,822.5,1.0,31,91.09
6191,D6,822.667,167/1000,48,91.09
6192,C6,822.833,167/1000,47,91.09
6193,B-5,823.0,167/1000,47,91.09
6194,A5,823.167,167/1000,45,91.09
6195,G5,823.333,167/1000,44,91.09
6196,F5,823.5,167/1000,42,91.09
6197,F3,823.5,0.5,31,91.09
6198,B-3,823.5,0.5,31,91.09
6199,D4,823.5,0.5,31,91.09
6200,E-5,823.667,167/1000,40,91.09
6201,D5,823.833,167/1000,38,91.09
6202,C5,824.0,167/1000,42,91.09
6203,F2,824.0,0.25,34,91.09
6204,A5,824.167,167/1000,45,91.09
6205,G5,824.333,167/1000,44,91.09
6206,E-5,824.5,167/1000,43,91.09
6207,F3,824.5,1.0,26,91.09
6208,E-3,824.5,1.0,26,91.09
6209,A3,824.5,1.0,26,91.09
6210,C5,824.667,167/1000,41,91.09
6211,B-4,824.833,167/1000,40,91.09
6212,A4,825.0,167/1000,39,91.09
6213,G4,825.167,167/1000,37,91.09
6214,F4,825.333,167/1000,36,91.09
6215,E-4,825.5,167/1000,37,91.09
6216,E-3,825.5,0.5,26,91.09
6217,F3,825.5,0.5,26,91.09
6218,A3,825.5,0.5,26,91.09
6219,D4,825.667,167/1000,36,91.09
6220,C4,825.833,167/1000,35,91.09
6221,B-3,826.0,167/1000,34,91.09
6222,F2,826.0,0.25,34,91.09
6223,D4,826.167,167/1000,39,91.09
6224,F4,826.333,167/1000,38,91.09
6225,B-4,826.5,167/1000,37,91.09
6226,D3,826.5,1.0,26,91.09
6227,F3,826.5,1.0,26,91.09
6228,B-3,826.5,1.0,26,91.09
6229,D5,826.667,167/1000,36,91.09
6230,C5,826.833,167/1000,35,91.09
6231,B-4,827.0,167/1000,34,91.09
6232,A4,827.167,167/1000,33,91.09
6233,G4,827.333,167/1000,32,91.09
6234,F4,827.5,167/1000,31,91.09
6235,D3,827.5,0.5,26,91.09
6236,F3,827.5,0.5,26,91.09
6237,B-3,827.5,0.5,26,91.09
6238,E-4,827.667,167/1000,30,91.09
6239,D4,827.833,167/1000,29,91.09
6240,C4,828.0,167/1000,27,91.09
6241,F1,828.0,0.25,28,91.09
6242,A4,828.167,167/1000,31,91.09
6243,G4,828.333,167/1000,31,91.09
6244,E-4,828.5,167/1000,30,91.09
6245,C3,828.5,1.0,22,91.09
6246,F2,828.5,1.0,22,91.09
6247,E-3,828.5,1.0,22,91.09
6248,C4,828.667,167/1000,29,91.09
6249,B-3,828.833,167/1000,29,91.09
6250,A3,829.0,83/1000,28,91.09
6251,G3,829.167,83/1000,27,91.09
6252,F3,829.333,83/1000,27,91.09
6253,E-3,829.5,83/1000,26,91.09
6254,D3,829.667,83/1000,25,91.09
6255,C3,829.833,83/1000,25,91.09
6256,F3,831.5,0.5,36,91.09
6257,F2,831.5,0.5,30,91.09
6258,D3,832.0,9/10,36,91.09
6259,F3,832.0,9/10,36,91.09
6260,D4,832.0,9/10,36,91.09
6261,B-1,832.0,9/10,33,91.09
6262,F2,832.0,9/10,33,91.09
6263,B-2,832.0,9/10,33,91.09
6264,D3,833.0,9/20,36,91.09
6265,F3,833.0,9/20,36,91.09
6266,D4,833.0,9/20,36,91.09
6267,B-1,833.0,9/20,31,91.09
6268,F2,833.0,9/20,31,91.09
6269,B-2,833.0,9/20,31,91.09
6270,D3,833.5,9/20,32,91.09
6271,F3,833.5,9/20,32,91.09
6272,D4,833.5,9/20,32,91.09
6273,B-1,833.5,9/20,31,91.09
6274,F2,833.5,9/20,31,91.09
6275,B-2,833.5,9/20,31,91.09
6276,D3,834.0,9/10,36,91.09
6277,F3,834.0,9/10,36,91.09
6278,B-3,834.0,9/10,36,91.09
6279,D2,834.0,9/10,34,91.09
6280,F2,834.0,9/10,34,91.09
6281,D3,835.0,9/10,32,91.09
6282,F3,835.0,9/10,32,91.09
6283,B-3,835.0,9/10,32,91.09
6284,D2,835.0,9/10,31,91.09
6285,F2,835.0,9/10,31,91.09
6286,F3,836.0,9/10,36,91.09
6287,E-3,836.0,9/10,36,91.09
6288,A3,836.0,9/10,36,91.09
6289,C2,836.0,9/10,32,91.09
6290,F2,836.0,9/10,32,91.09
6291,C3,836.0,9/10,32,91.09
6292,E-3,837.0,9/20,32,91.09
6293,F3,837.0,9/20,32,91.09
6294,A3,837.0,9/20,32,91.09
6295,C2,837.0,9/20,29,91.09
6296,F2,837.0,9/20,29,91.09
6297,C3,837.0,9/20,29,91.09
6298,E-3,837.5,9/20,35,91.09
6299,F3,837.5,9/20,35,91.09
6300,A3,837.5,9/20,35,91.09
6301,C2,837.5,9/20,33,91.09
6302,F2,837.5,9/20,33,91.09
6303,C3,837.5,9/20,33,91.09
6304,E-4,838.0,2.0,42,91.09
6305,C4,838.0,2.0,42,91.09
6306,F#3,838.0,1.0,41,91.09
6307,F#2,838.0,1.0,41,91.09
6308,A1,838.0,2.0,41,91.09
6309,A2,838.0,2.0,41,91.09
6310,F3,839.0,1.0,35,91.09
6311,F2,839.0,1.0,35,91.09
6312,B-3,840.0,9/10,36,91.09
6313,F3,840.0,9/10,36,91.09
6314,D4,840.0,9/10,36,91.09
6315,B-1,840.0,9/10,32,91.09
6316,F2,840.0,9/10,32,91.09
6317,B-2,840.0,9/10,32,91.09
6318,G3,841.0,9/20,32,91.09
6319,F3,841.0,9/20,32,91.09
6320,B3,841.0,9/20,32,91.09
6321,D4,841.0,9/20,32,91.09
6322,G1,841.0,9/20,30,91.09
6323,G2,841.0,9/20,30,91.09
6324,G3,841.5,9/20,34,91.09
6325,F3,841.5,9/20,34,91.09
6326,B3,841.5,9/20,34,91.09
6327,D4,841.5,9/20,34,91.09
6328,G1,841.5,9/20,34,91.09
6329,G2,841.5,9/20,34,91.09
6330,E-3,842.0,2.0,38,91.09
6331,D4,842.0,1.0,46,91.09
6332,G3,842.0,1.0,46,91.09
6333,G2,842.0,2.0,40,91.09
6334,C2,842.0,2.0,40,91.09
6335,C3,842.0,2.0,40,91.09
6336,G3,843.0,1.0,38,91.09
6337,C4,844.0,0.5,37,91.09
6338,E-3,844.0,2.0,38,91.09
6339,A3,844.0,2.0,38,91.09
6340,F1,844.0,2.0,38,91.09
6341,F2,844.0,2.0,38,91.09
6342,B3,844.5,0.25,33,91.09
6343,C4,844.75,0.25,25,91.09
6344,B3,845.0,0.25,32,91.09
6345,C4,845.25,0.25,24,91.09
6346,D4,845.5,0.375,37,91.09
6347,C4,845.875,0.125,34,91.09
6348,D3,846.0,2.0,28,91.09
6349,B-3,846.0,2.0,28,91.09
6350,B-1,846.0,2.0,29,91.09
6351,F2,846.0,2.0,29,91.09
6352,B-2,846.0,2.0,29,91.09
6353,D4,848.0,9/10,36,91.09
6354,B-4,848.0,9/10,36,91.09
6355,F4,848.0,9/10,36,91.09
6356,D5,848.0,9/10,36,91.09
6357,B-2,848.0,9/10,32,91.09
6358,F3,848.0,9/10,32,91.09
6359,B-3,848.0,9/10,32,91.09
6360,G4,849.0,9/20,32,91.09
6361,F4,849.0,9/20,32,91.09
6362,B4,849.0,9/20,32,91.09
6363,D5,849.0,9/20,32,91.09
6364,G2,849.0,9/20,30,91.09
6365,G3,849.0,9/20,30,91.09
6366,G4,849.5,9/20,34,91.09
6367,F4,849.5,9/20,34,91.09
6368,B4,849.5,9/20,34,91.09
6369,D5,849.5,9/20,34,91.09
6370,G2,849.5,9/20,34,91.09
6371,G3,849.5,9/20,34,91.09
6372,E-4,850.0,2.0,38,91.09
6373,D5,850.0,1.0,46,91.09
6374,G4,850.0,1.0,46,91.09
6375,G3,850.0,2.0,40,91.09
6376,C3,850.0,2.0,40,91.09
6377,C4,850.0,2.0,40,91.09
6378,G4,851.0,1.0,38,91.09
6379,C5,852.0,0.5,37,91.09
6380,E-4,852.0,2.0,38,91.09
6381,A4,852.0,2.0,38,91.09
6382,F2,852.0,2.0,38,91.09
6383,F3,852.0,2.0,38,91.09
6384,B4,852.5,0.25,37,91.09
6385,C5,852.75,0.25,28,91.09
6386,B4,853.0,0.25,36,91.09
6387,C5,853.25,0.25,28,91.09
6388,D5,853.5,0.375,37,91.09
6389,C5,853.875,0.125,34,91.09
6390,D4,854.0,2.0,28,91.09
6391,B-4,854.0,2.0,28,91.09
6392,B-2,854.0,2.0,29,91.09
6393,F3,854.0,2.0,29,91.09
6394,B-3,854.0,2.0,29,91.09
6395,F4,856.0,4.0,42,91.09
6396,E-5,856.0,2.5,38,91.09
6397,A5,856.0,2.5,38,91.09
6398,C6,856.0,2.5,38,91.09
6399,F3,856.0,4.0,35,91.09
6400,C4,856.0,4.0,35,91.09
6401,E-4,856.0,4.0,35,91.09
6402,B5,858.5,0.25,37,91.09
6403,C6,858.75,0.25,30,91.09
6404,B5,859.0,0.25,37,91.09
6405,C6,859.25,0.25,32,91.09
6406,E-6,859.5,0.375,43,91.09
6407,A5,859.875,0.125,34,91.09
6408,F4,860.0,1.0,42,91.09
6409,D5,860.0,1.0,28,91.09
6410,B-5,860.0,1.0,28,91.09
6411,D4,860.0,1.0,25,91.09
6412,B-3,860.0,1.0,25,91.09
6413,D4,862.0,1.0,26,91.09
6414,F4,862.0,1.0,26,91.09
6415,B-4,862.0,1.0,26,91.09
6416,D5,862.0,1.0,26,91.09
6417,B-2,862.0,1.0,25,91.09
6418,F3,862.0,1.0,25,91.09
6419,B-3,862.0,1.0,25,91.09
6420,D4,864.0,4.0,27,91.09
6421,F4,864.0,4.0,27,91.09
6422,B-4,864.0,4.0,27,91.09
6423,B-2,864.0,4.0,22,91.09
6424,F3,864.0,4.0,22,91.09
6425,B-3,864.0,4.0,22,91.09
