,note_name,start_time,duration,velocity,tempo
0,D4,0.0,0.375,37,112.5
1,F#4,0.0,0.375,37,112.5
2,F#4,1.0,0.375,30,112.5
3,A3,1.0,0.375,30,112.5
4,D4,2.0,0.375,37,112.5
5,F#4,2.0,0.375,37,112.5
6,F#4,3.0,0.375,31,112.5
7,A3,3.0,0.375,31,112.5
8,D4,4.0,0.375,37,112.5
9,F#4,4.0,0.375,37,112.5
10,F#4,5.0,0.375,31,112.5
11,A3,5.0,0.375,31,112.5
12,A5,6.0,0.75,55,112.5
13,F#4,6.0,0.5,37,112.5
14,D4,6.0,0.5,37,112.5
15,B5,6.75,0.25,51,112.5
16,A5,7.0,0.75,55,112.5
17,F#4,7.0,0.5,34,112.5
18,A3,7.0,0.5,34,112.5
19,F#5,7.75,0.25,48,112.5
20,D5,8.0,0.5,55,112.5
21,D4,8.0,0.5,37,112.5
22,F#4,8.0,0.5,37,112.5
23,D5,9.0,0.5,49,112.5
24,A3,9.0,0.5,32,112.5
25,F#4,9.0,0.5,32,112.5
26,D5,9.875,0.125,50,112.5
27,C#5,10.0,0.75,57,112.5
28,E4,10.0,0.5,37,112.5
29,G4,10.0,0.5,37,112.5
30,B4,10.75,0.25,51,112.5
31,C#5,11.0,0.75,55,112.5
32,G4,11.0,0.5,32,112.5
33,A3,11.0,0.5,32,112.5
34,E5,11.75,0.25,55,112.5
35,A4,12.0,1.0,60,112.5
36,D4,12.0,0.5,37,112.5
37,F#4,12.0,0.5,37,112.5
38,D5,13.0,0.5,55,112.5
39,F#4,13.0,0.5,31,112.5
40,A3,13.0,0.5,31,112.5
41,E5,14.0,0.75,59,112.5
42,G4,14.0,0.5,37,112.5
43,C#4,14.0,0.5,37,112.5
44,G5,14.75,13/125,57,112.5
45,G5,14.875,0.125,45,112.5
46,B5,15.0,0.75,66,112.5
47,A3,15.0,0.5,33,112.5
48,G4,15.0,0.5,33,112.5
49,A5,15.75,231/1000,56,112.5
50,A5,16.0,0.5,63,112.5
51,D4,16.0,0.5,37,112.5
52,F#4,16.0,0.5,37,112.5
53,A5,17.0,0.5,52,112.5
54,A3,17.0,0.5,32,112.5
55,F#4,17.0,0.5,32,112.5
56,C#6,17.875,0.125,53,112.5
57,B5,18.0,0.75,68,112.5
58,G4,18.0,0.5,36,112.5
59,D4,18.0,0.5,36,112.5
60,G3,18.0,0.5,36,112.5
61,B-5,18.75,0.25,57,112.5
62,B5,19.0,0.75,68,112.5
63,G4,19.0,0.5,31,112.5
64,B3,19.0,0.5,31,112.5
65,D4,19.0,0.5,31,112.5
66,D6,19.75,0.25,64,112.5
67,A5,20.0,2.0,67,112.5
68,D4,20.0,0.5,37,112.5
69,F#4,20.0,0.5,37,112.5
70,F#4,21.0,0.5,31,112.5
71,A3,21.0,0.5,31,112.5
72,A5,22.0,0.75,55,112.5
73,F#4,22.0,0.5,37,112.5
74,D4,22.0,0.5,37,112.5
75,B5,22.75,0.25,49,112.5
76,A5,23.0,0.75,60,112.5
77,A3,23.0,0.5,33,112.5
78,F#4,23.0,0.5,33,112.5
79,F#5,23.75,0.25,57,112.5
80,D5,24.0,0.5,55,112.5
81,F#4,24.0,0.5,37,112.5
82,D4,24.0,0.5,37,112.5
83,D5,25.0,0.5,49,112.5
84,A3,25.0,0.5,32,112.5
85,F#4,25.0,0.5,32,112.5
86,C#5,26.0,0.75,57,112.5
87,E4,26.0,0.5,37,112.5
88,G4,26.0,0.5,37,112.5
89,B4,26.75,0.25,51,112.5
90,C#5,27.0,0.75,62,112.5
91,G4,27.0,0.5,32,112.5
92,A3,27.0,0.5,32,112.5
93,F#5,27.75,229/1000,59,112.5
94,F#5,28.0,2.0,69,112.5
95,F#4,28.0,0.5,37,112.5
96,B-3,28.0,0.5,37,112.5
97,B-3,29.0,0.5,31,112.5
98,C#4,29.0,0.5,31,112.5
99,G5,30.0,333/1000,69,112.5
100,B3,30.0,0.5,37,112.5
101,D4,30.0,0.5,37,112.5
102,B5,30.333,333/1000,61,112.5
103,E6,30.667,333/1000,61,112.5
104,D4,31.0,0.5,32,112.5
105,G3,31.0,0.5,32,112.5
106,G4,31.0,0.5,32,112.5
107,D6,31.002,333/1000,69,112.5
108,B5,31.333,333/1000,65,112.5
109,G5,31.667,333/1000,58,112.5
110,F#5,32.0,0.5,61,112.5
111,F#4,32.0,0.5,37,112.5
112,D4,32.0,0.5,37,112.5
113,F#5,33.0,0.5,58,112.5
114,A3,33.0,0.5,32,112.5
115,F#4,33.0,0.5,32,112.5
116,E5,34.0,333/1000,60,112.5
117,G4,34.0,0.5,37,112.5
118,C#4,34.0,0.5,37,112.5
119,G5,34.333,333/1000,56,112.5
120,B5,34.667,333/1000,55,112.5
121,A5,35.0,333/1000,64,112.5
122,G4,35.0,0.5,32,112.5
123,A3,35.0,0.5,32,112.5
124,G5,35.333,333/1000,55,112.5
125,C#5,35.667,333/1000,56,112.5
126,D5,36.0,2.0,67,112.5
127,D4,36.0,2.0,37,112.5
128,F#4,36.0,2.0,37,112.5
129,D4,38.0,333/1000,68,112.5
130,D3,38.0,333/1000,58,112.5
131,F#4,38.333,333/1000,58,112.5
132,F#3,38.333,333/1000,52,112.5
133,B4,38.667,333/1000,58,112.5
134,B3,38.667,333/1000,52,112.5
135,A4,39.0,333/1000,68,112.5
136,A3,39.0,333/1000,58,112.5
137,F#4,39.333,333/1000,58,112.5
138,F#3,39.333,333/1000,52,112.5
139,D4,39.667,333/1000,58,112.5
140,D3,39.667,333/1000,52,112.5
141,E4,40.0,0.5,64,112.5
142,A3,40.0,0.5,64,112.5
143,C#3,40.0,0.5,54,112.5
144,G3,40.0,0.5,54,112.5
145,E4,41.0,0.5,59,112.5
146,A3,41.0,0.5,59,112.5
147,A2,41.0,0.5,52,112.5
148,G3,41.0,0.5,52,112.5
149,E4,42.0,333/1000,68,112.5
150,C#3,42.0,0.5,52,112.5
151,G3,42.0,0.5,52,112.5
152,G4,42.333,333/1000,58,112.5
153,C#5,42.667,333/1000,58,112.5
154,B4,43.0,333/1000,68,112.5
155,A2,43.0,0.5,52,112.5
156,G3,43.0,0.5,52,112.5
157,G4,43.333,333/1000,58,112.5
158,E4,43.667,333/1000,58,112.5
159,A3,44.0,2.0,55,112.5
160,D4,44.0,2.0,55,112.5
161,F#4,44.0,2.0,55,112.5
162,D3,44.0,0.5,54,112.5
163,F#3,44.0,0.5,54,112.5
164,A2,45.0,0.5,52,112.5
165,F#3,45.0,0.5,52,112.5
166,D5,46.0,333/1000,75,112.5
167,F#3,46.0,0.5,52,112.5
168,D3,46.0,0.5,52,112.5
169,F#5,46.333,333/1000,58,112.5
170,B5,46.667,333/1000,58,112.5
171,A5,47.0,333/1000,68,112.5
172,A3,47.0,0.5,52,112.5
173,F#3,47.0,0.5,52,112.5
174,F#5,47.333,333/1000,58,112.5
175,D5,47.667,333/1000,58,112.5
176,C#5,48.0,333/1000,75,112.5
177,E3,48.0,0.5,52,112.5
178,C#4,48.0,0.5,52,112.5
179,A4,48.333,333/1000,58,112.5
180,F#5,48.667,333/1000,58,112.5
181,E5,49.0,333/1000,68,112.5
182,C#4,49.0,0.5,52,112.5
183,A3,49.0,0.5,52,112.5
184,C#5,49.333,333/1000,58,112.5
185,A4,49.667,333/1000,58,112.5
186,G#4,50.0,333/1000,75,112.5
187,B3,50.0,0.5,52,112.5
188,D4,50.0,0.5,52,112.5
189,E4,50.333,333/1000,58,112.5
190,G#4,50.667,333/1000,58,112.5
191,E5,51.0,333/1000,68,112.5
192,D4,51.0,0.5,52,112.5
193,E3,51.0,0.5,52,112.5
194,D5,51.333,333/1000,58,112.5
195,B4,51.667,333/1000,58,112.5
196,A4,52.0,1.0,68,112.5
197,A3,52.0,2.0,60,112.5
198,C#4,52.0,2.0,60,112.5
199,C#5,53.0,0.5,56,112.5
200,E5,53.0,0.5,56,112.5
201,A3,54.0,333/1000,68,112.5
202,C#5,54.0,0.5,54,112.5
203,E5,54.0,0.5,54,112.5
204,A4,54.0,0.5,54,112.5
205,C#4,54.333,333/1000,58,112.5
206,F#4,54.667,333/1000,58,112.5
207,E4,55.0,333/1000,68,112.5
208,C#5,55.0,0.5,56,112.5
209,E5,55.0,0.5,56,112.5
210,C#4,55.333,333/1000,58,112.5
211,A3,55.667,333/1000,58,112.5
212,A3,56.0,1.0,72,112.5
213,D5,56.0,0.5,60,112.5
214,F#5,56.0,0.5,60,112.5
215,G#3,57.0,0.5,64,112.5
216,D5,57.0,0.5,50,112.5
217,B4,57.0,0.5,50,112.5
218,E5,57.0,0.5,50,112.5
219,B3,58.0,333/1000,68,112.5
220,G#4,58.0,0.5,54,112.5
221,B4,58.0,0.5,54,112.5
222,E5,58.0,0.5,54,112.5
223,D4,58.333,333/1000,58,112.5
224,F#4,58.667,333/1000,58,112.5
225,E4,59.0,333/1000,68,112.5
226,D5,59.0,0.5,54,112.5
227,B4,59.0,0.5,54,112.5
228,E5,59.0,0.5,54,112.5
229,D4,59.333,333/1000,58,112.5
230,B3,59.667,333/1000,58,112.5
231,C#4,60.0,1.0,72,112.5
232,F#5,60.0,0.5,58,112.5
233,C#5,60.0,0.5,58,112.5
234,A4,60.0,0.5,58,112.5
235,A3,61.0,0.5,64,112.5
236,A4,61.0,0.5,50,112.5
237,E5,61.0,0.5,50,112.5
238,C#5,61.0,0.5,50,112.5
239,G3,62.0,333/1000,63,112.5
240,C#5,62.0,0.5,49,112.5
241,A5,62.0,0.5,49,112.5
242,E5,62.0,0.5,49,112.5
243,A4,62.0,0.5,49,112.5
244,C#4,62.333,333/1000,54,112.5
245,F#4,62.667,333/1000,54,112.5
246,E4,63.0,333/1000,61,112.5
247,C#5,63.0,0.5,54,112.5
248,E5,63.0,0.5,54,112.5
249,A5,63.0,0.5,54,112.5
250,A4,63.0,0.5,54,112.5
251,C#4,63.333,333/1000,59,112.5
252,G3,63.667,333/1000,62,112.5
253,F#3,64.0,333/1000,67,112.5
254,D5,64.0,0.5,63,112.5
255,A5,64.0,0.5,63,112.5
256,A4,64.0,0.5,63,112.5
257,A3,64.333,333/1000,58,112.5
258,D4,64.667,333/1000,58,112.5
259,F3,65.0,333/1000,65,112.5
260,B4,65.0,0.5,54,112.5
261,B5,65.0,0.5,54,112.5
262,D5,65.0,0.5,54,112.5
263,A3,65.333,333/1000,52,112.5
264,D4,65.667,333/1000,52,112.5
265,E3,66.0,333/1000,63,112.5
266,C#5,66.0,0.5,68,112.5
267,E5,66.0,0.5,68,112.5
268,A3,66.333,333/1000,52,112.5
269,C#4,66.667,333/1000,52,112.5
270,E4,67.0,333/1000,60,112.5
271,G#5,67.0,0.5,49,112.5
272,G#4,67.0,0.5,49,112.5
273,E5,67.0,0.5,49,112.5
274,D5,67.0,0.5,49,112.5
275,D4,67.333,333/1000,52,112.5
276,B3,67.667,333/1000,52,112.5
277,A4,68.0,249/250,51,112.5
278,A3,68.0,249/250,62,112.5
279,C#5,68.0,2.0,54,112.5
280,A5,68.0,2.0,54,112.5
281,E5,68.0,2.0,54,112.5
282,A4,69.0,1.0,48,112.5
283,C#4,69.0,1.0,48,112.5
284,A3,69.0,1.0,48,112.5
285,B3,70.0,1.0,44,112.5
286,G#4,70.0,1.0,44,112.5
287,D4,70.0,1.0,44,112.5
288,E4,71.0,1.0,42,112.5
289,G4,71.0,1.0,42,112.5
290,C#4,71.0,1.0,42,112.5
291,F#4,72.0,0.375,37,112.5
292,D4,72.0,0.375,37,112.5
293,F#4,73.0,0.375,31,112.5
294,A3,73.0,0.375,31,112.5
295,A5,74.0,0.75,55,112.5
296,F#4,74.0,0.5,37,112.5
297,D4,74.0,0.5,37,112.5
298,B5,74.75,0.25,51,112.5
299,A5,75.0,0.75,55,112.5
300,F#4,75.0,0.5,34,112.5
301,A3,75.0,0.5,34,112.5
302,F#5,75.75,0.25,48,112.5
303,D5,76.0,0.5,55,112.5
304,D4,76.0,0.5,37,112.5
305,F#4,76.0,0.5,37,112.5
306,D5,77.0,0.5,49,112.5
307,A3,77.0,0.5,32,112.5
308,F#4,77.0,0.5,32,112.5
309,D5,77.875,0.125,50,112.5
310,C#5,78.0,0.75,57,112.5
311,G4,78.0,0.5,37,112.5
312,E4,78.0,0.5,37,112.5
313,B4,78.75,0.25,51,112.5
314,C#5,79.0,0.75,55,112.5
315,A3,79.0,0.5,32,112.5
316,G4,79.0,0.5,32,112.5
317,E5,79.75,0.25,55,112.5
318,A4,80.0,1.0,60,112.5
319,D4,80.0,0.5,37,112.5
320,F#4,80.0,0.5,37,112.5
321,D5,81.0,0.5,55,112.5
322,A3,81.0,0.5,31,112.5
323,F#4,81.0,0.5,31,112.5
324,E5,82.0,0.75,59,112.5
325,C#4,82.0,0.5,37,112.5
326,G4,82.0,0.5,37,112.5
327,G5,82.75,13/125,57,112.5
328,G5,82.875,0.125,45,112.5
329,B5,83.0,0.75,66,112.5
330,A3,83.0,0.5,33,112.5
331,G4,83.0,0.5,33,112.5
332,A5,83.75,229/1000,56,112.5
333,A5,84.0,0.5,66,112.5
334,F#4,84.0,0.5,37,112.5
335,D4,84.0,0.5,37,112.5
336,A5,85.0,0.5,54,112.5
337,A3,85.0,0.5,32,112.5
338,F#4,85.0,0.5,32,112.5
339,C#6,85.875,0.125,53,112.5
340,B5,86.0,0.75,68,112.5
341,G4,86.0,0.5,36,112.5
342,G3,86.0,0.5,36,112.5
343,D4,86.0,0.5,36,112.5
344,B-5,86.75,0.25,57,112.5
345,B5,87.0,0.75,68,112.5
346,G4,87.0,0.5,31,112.5
347,D4,87.0,0.5,31,112.5
348,B3,87.0,0.5,31,112.5
349,D6,87.75,0.25,66,112.5
350,A5,88.0,2.0,70,112.5
351,D4,88.0,0.5,37,112.5
352,F#4,88.0,0.5,37,112.5
353,A3,89.0,0.5,31,112.5
354,F#4,89.0,0.5,31,112.5
355,A5,90.0,0.75,49,112.5
356,F4,90.0,0.5,33,112.5
357,D4,90.0,0.5,33,112.5
358,B-5,90.75,0.25,44,112.5
359,A5,91.0,0.75,53,112.5
360,F4,91.0,0.5,30,112.5
361,A3,91.0,0.5,30,112.5
362,F5,91.75,0.25,50,112.5
363,D5,92.0,0.5,49,112.5
364,D4,92.0,0.5,33,112.5
365,F4,92.0,0.5,33,112.5
366,D5,93.0,0.5,44,112.5
367,F4,93.0,0.5,28,112.5
368,A3,93.0,0.5,28,112.5
369,D5,93.875,0.125,52,112.5
370,F5,94.0,0.75,52,112.5
371,A4,94.0,0.75,52,112.5
372,F4,94.0,0.5,38,112.5
373,C4,94.0,0.5,38,112.5
374,E-4,94.0,0.5,38,112.5
375,F5,95.0,0.75,57,112.5
376,A4,95.0,0.75,57,112.5
377,F3,95.0,0.5,30,112.5
378,E-4,95.0,0.5,30,112.5
379,C4,95.0,0.5,30,112.5
380,F4,95.0,0.5,30,112.5
381,F5,96.0,1.0,60,112.5
382,B-4,96.0,1.0,60,112.5
383,F4,96.0,0.5,36,112.5
384,D4,96.0,0.5,36,112.5
385,B-3,96.0,0.5,36,112.5
386,B-5,97.0,0.5,65,112.5
387,D4,97.0,0.5,31,112.5
388,F4,97.0,0.5,31,112.5
389,D6,98.0,333/1000,71,112.5
390,B-3,98.0,0.5,42,112.5
391,D4,98.0,0.5,42,112.5
392,F4,98.0,0.5,42,112.5
393,E6,98.333,333/1000,59,112.5
394,C#6,98.667,333/1000,70,112.5
395,D4,99.0,0.5,42,112.5
396,B-3,99.0,0.5,42,112.5
397,G#4,99.0,0.5,42,112.5
398,D6,99.002,333/1000,73,112.5
399,E6,99.333,333/1000,76,112.5
400,F6,99.667,333/1000,63,112.5
401,A5,100.0,0.5,72,112.5
402,D4,100.0,0.5,46,112.5
403,A4,100.0,0.5,46,112.5
404,F#4,100.0,0.5,46,112.5
405,A5,101.0,1.0,65,112.5
406,A4,101.0,0.5,36,112.5
407,F#4,101.0,0.5,36,112.5
408,A3,101.0,0.5,36,112.5
409,E5,102.0,333/1000,70,112.5
410,C#4,102.0,0.5,43,112.5
411,G4,102.0,0.5,43,112.5
412,A4,102.0,0.5,43,112.5
413,G5,102.333,333/1000,63,112.5
414,B5,102.667,333/1000,53,112.5
415,A5,103.0,333/1000,70,112.5
416,G4,103.0,0.5,38,112.5
417,A4,103.0,0.5,38,112.5
418,A3,103.0,0.5,38,112.5
419,G5,103.333,333/1000,60,112.5
420,C#5,103.667,333/1000,60,112.5
421,A5,104.0,2.0,70,112.5
422,A4,104.0,0.5,49,112.5
423,F#4,104.0,0.5,49,112.5
424,D4,105.0,0.5,37,112.5
425,A4,105.0,0.5,37,112.5
426,F#4,105.0,0.5,37,112.5
427,G5,106.0,333/1000,66,112.5
428,G4,106.0,0.5,46,112.5
429,D4,106.0,0.5,46,112.5
430,B3,106.0,0.5,46,112.5
431,B5,106.333,333/1000,59,112.5
432,E6,106.667,333/1000,59,112.5
433,G3,107.0,0.5,39,112.5
434,D4,107.0,0.5,39,112.5
435,G4,107.0,0.5,39,112.5
436,D6,107.002,333/1000,66,112.5
437,B5,107.333,333/1000,62,112.5
438,G5,107.667,333/1000,56,112.5
439,F#5,108.0,0.25,61,112.5
440,D4,108.0,0.5,47,112.5
441,F#4,108.0,0.5,47,112.5
442,A5,108.25,0.5,66,112.5
443,A5,109.0,1.0,67,112.5
444,F#4,109.0,0.5,42,112.5
445,A3,109.0,0.5,42,112.5
446,E5,110.0,333/1000,64,112.5
447,G4,110.0,0.5,49,112.5
448,C#4,110.0,0.5,49,112.5
449,G5,110.333,333/1000,59,112.5
450,B5,110.667,333/1000,53,112.5
451,A5,111.0,333/1000,67,112.5
452,A3,111.0,0.5,42,112.5
453,G4,111.0,0.5,42,112.5
454,G5,111.333,333/1000,59,112.5
455,C#5,111.667,333/1000,59,112.5
456,D5,112.0,2.0,67,112.5
457,F#4,112.0,1979/1000,54,112.5
458,D4,112.0,1979/1000,54,112.5
459,D4,114.0,333/1000,68,112.5
460,D3,114.0,333/1000,58,112.5
461,F#4,114.333,333/1000,58,112.5
462,F#3,114.333,333/1000,52,112.5
463,B4,114.667,333/1000,58,112.5
464,B3,114.667,333/1000,52,112.5
465,A4,115.0,333/1000,68,112.5
466,A3,115.0,333/1000,58,112.5
467,F#4,115.333,333/1000,58,112.5
468,F#3,115.333,333/1000,52,112.5
469,D4,115.667,333/1000,58,112.5
470,D3,115.667,333/1000,52,112.5
471,E4,116.0,0.5,64,112.5
472,A3,116.0,0.5,64,112.5
473,C#3,116.0,0.5,54,112.5
474,G3,116.0,0.5,54,112.5
475,E4,117.0,0.5,59,112.5
476,A3,117.0,0.5,59,112.5
477,A2,117.0,0.5,52,112.5
478,G3,117.0,0.5,52,112.5
479,E4,118.0,333/1000,68,112.5
480,C#3,118.0,0.5,52,112.5
481,G3,118.0,0.5,52,112.5
482,G4,118.333,333/1000,58,112.5
483,C#5,118.667,333/1000,58,112.5
484,B4,119.0,333/1000,68,112.5
485,A2,119.0,0.5,52,112.5
486,G3,119.0,0.5,52,112.5
487,G4,119.333,333/1000,58,112.5
488,E4,119.667,333/1000,58,112.5
489,F#4,120.0,2.0,55,112.5
490,A3,120.0,2.0,55,112.5
491,D4,120.0,2.0,55,112.5
492,D3,120.0,0.5,54,112.5
493,F#3,120.0,0.5,54,112.5
494,F#3,121.0,0.5,52,112.5
495,A2,121.0,0.5,52,112.5
496,D5,122.0,333/1000,75,112.5
497,F#3,122.0,0.5,52,112.5
498,D3,122.0,0.5,52,112.5
499,F#5,122.333,333/1000,58,112.5
500,B5,122.667,333/1000,58,112.5
501,A5,123.0,333/1000,68,112.5
502,A3,123.0,0.5,52,112.5
503,F#3,123.0,0.5,52,112.5
504,F#5,123.333,333/1000,58,112.5
505,D5,123.667,333/1000,58,112.5
506,C#5,124.0,333/1000,75,112.5
507,E3,124.0,0.5,52,112.5
508,C#4,124.0,0.5,52,112.5
509,A4,124.333,333/1000,58,112.5
510,F#5,124.667,333/1000,58,112.5
511,E5,125.0,333/1000,68,112.5
512,C#4,125.0,0.5,52,112.5
513,A3,125.0,0.5,52,112.5
514,C#5,125.333,333/1000,58,112.5
515,A4,125.667,333/1000,58,112.5
516,G#4,126.0,333/1000,75,112.5
517,D4,126.0,0.5,52,112.5
518,B3,126.0,0.5,52,112.5
519,E4,126.333,333/1000,58,112.5
520,G#4,126.667,333/1000,58,112.5
521,E5,127.0,333/1000,68,112.5
522,E3,127.0,0.5,52,112.5
523,D4,127.0,0.5,52,112.5
524,D5,127.333,333/1000,58,112.5
525,B4,127.667,333/1000,58,112.5
526,A4,128.0,1.0,68,112.5
527,C#4,128.0,499/250,60,112.5
528,A3,128.0,499/250,60,112.5
529,C#5,129.0,0.5,56,112.5
530,E5,129.0,0.5,56,112.5
531,A3,130.0,333/1000,68,112.5
532,A4,130.0,0.5,54,112.5
533,E5,130.0,0.5,54,112.5
534,C#5,130.0,0.5,54,112.5
535,C#4,130.333,333/1000,58,112.5
536,F#4,130.667,333/1000,58,112.5
537,E4,131.0,333/1000,68,112.5
538,C#5,131.0,0.5,56,112.5
539,E5,131.0,0.5,56,112.5
540,C#4,131.333,333/1000,58,112.5
541,A3,131.667,329/1000,58,112.5
542,A3,132.0,1.0,72,112.5
543,F#5,132.0,0.5,60,112.5
544,D5,132.0,0.5,60,112.5
545,G#3,133.0,0.5,64,112.5
546,B4,133.0,0.5,50,112.5
547,E5,133.0,0.5,50,112.5
548,D5,133.0,0.5,50,112.5
549,B3,134.0,333/1000,68,112.5
550,B4,134.0,0.5,54,112.5
551,E5,134.0,0.5,54,112.5
552,G#4,134.0,0.5,54,112.5
553,D4,134.333,333/1000,58,112.5
554,F#4,134.667,333/1000,58,112.5
555,E4,135.0,333/1000,68,112.5
556,B4,135.0,0.5,54,112.5
557,E5,135.0,0.5,54,112.5
558,D5,135.0,0.5,54,112.5
559,D4,135.333,333/1000,58,112.5
560,B3,135.667,333/1000,58,112.5
561,C#4,136.0,1.0,72,112.5
562,F#5,136.0,0.5,58,112.5
563,A4,136.0,0.5,58,112.5
564,C#5,136.0,0.5,58,112.5
565,A3,137.0,0.5,64,112.5
566,C#5,137.0,0.5,50,112.5
567,E5,137.0,0.5,50,112.5
568,A4,137.0,0.5,50,112.5
569,G3,138.0,333/1000,63,112.5
570,A5,138.0,0.5,49,112.5
571,E5,138.0,0.5,49,112.5
572,A4,138.0,0.5,49,112.5
573,C#5,138.0,0.5,49,112.5
574,C#4,138.333,333/1000,54,112.5
575,F#4,138.667,333/1000,54,112.5
576,E4,139.0,333/1000,61,112.5
577,C#5,139.0,0.5,54,112.5
578,A5,139.0,0.5,54,112.5
579,A4,139.0,0.5,54,112.5
580,E5,139.0,0.5,54,112.5
581,C#4,139.333,333/1000,59,112.5
582,G3,139.667,333/1000,62,112.5
583,F#3,140.0,333/1000,67,112.5
584,D5,140.0,0.5,63,112.5
585,A4,140.0,0.5,63,112.5
586,A5,140.0,0.5,63,112.5
587,A3,140.333,333/1000,58,112.5
588,D4,140.667,333/1000,58,112.5
589,F3,141.0,333/1000,65,112.5
590,D5,141.0,0.5,54,112.5
591,B4,141.0,0.5,54,112.5
592,B5,141.0,0.5,54,112.5
593,A3,141.333,333/1000,52,112.5
594,D4,141.667,333/1000,52,112.5
595,E3,142.0,333/1000,63,112.5
596,E5,142.0,0.5,68,112.5
597,C#5,142.0,0.5,68,112.5
598,A3,142.333,333/1000,52,112.5
599,C#4,142.667,333/1000,52,112.5
600,E4,143.0,333/1000,60,112.5
601,D5,143.0,0.5,49,112.5
602,G#5,143.0,0.5,49,112.5
603,G#4,143.0,0.5,49,112.5
604,E5,143.0,0.5,49,112.5
605,D4,143.333,333/1000,52,112.5
606,B3,143.667,333/1000,52,112.5
607,A4,144.0,249/250,51,112.5
608,A3,144.0,249/250,62,112.5
609,A5,144.0,2.0,54,112.5
610,E5,144.0,2.0,54,112.5
611,C#5,144.0,2.0,54,112.5
612,C#4,145.0,1.0,48,112.5
613,A4,145.0,1.0,48,112.5
614,A3,145.0,1.0,48,112.5
615,D4,146.0,1.0,44,112.5
616,G#4,146.0,1.0,44,112.5
617,B3,146.0,1.0,44,112.5
618,C#4,147.0,1.0,42,112.5
619,E4,147.0,1.0,42,112.5
620,G4,147.0,1.0,42,112.5
621,D4,148.0,0.375,37,112.5
622,F#4,148.0,0.375,37,112.5
623,F#4,149.0,0.375,31,112.5
624,A3,149.0,0.375,31,112.5
625,A5,150.0,0.75,55,112.5
626,D4,150.0,0.5,37,112.5
627,F#4,150.0,0.5,37,112.5
628,B5,150.75,0.25,51,112.5
629,A5,151.0,0.75,55,112.5
630,F#4,151.0,0.5,34,112.5
631,A3,151.0,0.5,34,112.5
632,F#5,151.75,0.25,48,112.5
633,D5,152.0,0.5,55,112.5
634,F#4,152.0,0.5,37,112.5
635,D4,152.0,0.5,37,112.5
636,D5,153.0,0.5,49,112.5
637,A3,153.0,0.5,32,112.5
638,F#4,153.0,0.5,32,112.5
639,D5,153.875,0.125,50,112.5
640,C#5,154.0,0.75,57,112.5
641,E4,154.0,0.5,37,112.5
642,G4,154.0,0.5,37,112.5
643,B4,154.75,0.25,51,112.5
644,C#5,155.0,0.75,55,112.5
645,A3,155.0,0.5,32,112.5
646,G4,155.0,0.5,32,112.5
647,E5,155.75,0.25,55,112.5
648,A4,156.0,1.0,60,112.5
649,D4,156.0,0.5,37,112.5
650,F#4,156.0,0.5,37,112.5
651,D5,157.0,0.5,55,112.5
652,A3,157.0,0.5,31,112.5
653,F#4,157.0,0.5,31,112.5
654,E5,158.0,0.75,59,112.5
655,C#4,158.0,0.5,37,112.5
656,G4,158.0,0.5,37,112.5
657,G5,158.75,13/125,57,112.5
658,G5,158.875,0.125,45,112.5
659,B5,159.0,373/500,66,112.5
660,G4,159.0,0.5,33,112.5
661,A3,159.0,0.5,33,112.5
662,A5,159.75,229/1000,56,112.5
663,A5,160.0,0.5,66,112.5
664,D4,160.0,0.5,37,112.5
665,F#4,160.0,0.5,37,112.5
666,A5,161.0,0.5,54,112.5
667,A3,161.0,0.5,32,112.5
668,F#4,161.0,0.5,32,112.5
669,C#6,161.875,0.125,53,112.5
670,B5,162.0,0.75,68,112.5
671,G4,162.0,0.5,36,112.5
672,D4,162.0,0.5,36,112.5
673,G3,162.0,0.5,36,112.5
674,B-5,162.75,0.25,57,112.5
675,B5,163.0,0.75,68,112.5
676,D4,163.0,0.5,31,112.5
677,B3,163.0,0.5,31,112.5
678,G4,163.0,0.5,31,112.5
679,D6,163.75,0.25,66,112.5
680,A5,164.0,2.0,70,112.5
681,F#4,164.0,0.5,37,112.5
682,D4,164.0,0.5,37,112.5
683,F#4,165.0,0.5,31,112.5
684,A3,165.0,0.5,31,112.5
685,A5,166.0,0.75,49,112.5
686,D4,166.0,0.5,33,112.5
687,F4,166.0,0.5,33,112.5
688,B-5,166.75,0.25,44,112.5
689,A5,167.0,0.75,53,112.5
690,F4,167.0,0.5,30,112.5
691,A3,167.0,0.5,30,112.5
692,F5,167.75,0.25,50,112.5
693,D5,168.0,0.5,49,112.5
694,D4,168.0,0.5,33,112.5
695,F4,168.0,0.5,33,112.5
696,D5,169.0,0.5,44,112.5
697,F4,169.0,0.5,28,112.5
698,A3,169.0,0.5,28,112.5
699,D5,169.875,0.125,52,112.5
700,F5,170.0,0.75,52,112.5
701,A4,170.0,0.75,52,112.5
702,E-4,170.0,0.5,38,112.5
703,F4,170.0,0.5,38,112.5
704,C4,170.0,0.5,38,112.5
705,A4,171.0,0.75,57,112.5
706,F5,171.0,0.75,57,112.5
707,C4,171.0,0.5,30,112.5
708,F4,171.0,0.5,30,112.5
709,F3,171.0,0.5,30,112.5
710,E-4,171.0,0.5,30,112.5
711,F5,172.0,1.0,60,112.5
712,B-4,172.0,1.0,60,112.5
713,F4,172.0,0.5,36,112.5
714,D4,172.0,0.5,36,112.5
715,B-3,172.0,0.5,36,112.5
716,B-5,173.0,0.5,65,112.5
717,D4,173.0,0.5,31,112.5
718,F4,173.0,0.5,31,112.5
719,D6,174.0,333/1000,71,112.5
720,F4,174.0,0.5,42,112.5
721,D4,174.0,0.5,42,112.5
722,B-3,174.0,0.5,42,112.5
723,E6,174.333,333/1000,59,112.5
724,C#6,174.667,333/1000,70,112.5
725,G#4,175.0,0.5,42,112.5
726,D4,175.0,0.5,42,112.5
727,B-3,175.0,0.5,42,112.5
728,D6,175.002,333/1000,73,112.5
729,E6,175.333,333/1000,76,112.5
730,F6,175.667,333/1000,63,112.5
731,A5,176.0,0.5,72,112.5
732,D4,176.0,0.5,46,112.5
733,F#4,176.0,0.5,46,112.5
734,A4,176.0,0.5,46,112.5
735,A5,177.0,1.0,65,112.5
736,F#4,177.0,0.5,36,112.5
737,A3,177.0,0.5,36,112.5
738,A4,177.0,0.5,36,112.5
739,E5,178.0,333/1000,70,112.5
740,G4,178.0,0.5,43,112.5
741,A4,178.0,0.5,43,112.5
742,C#4,178.0,0.5,43,112.5
743,G5,178.333,333/1000,63,112.5
744,B5,178.667,333/1000,53,112.5
745,A5,179.0,333/1000,70,112.5
746,G4,179.0,0.5,38,112.5
747,A4,179.0,0.5,38,112.5
748,A3,179.0,0.5,38,112.5
749,G5,179.333,333/1000,60,112.5
750,C#5,179.667,333/1000,60,112.5
751,A5,180.0,2.0,70,112.5
752,A4,180.0,0.5,49,112.5
753,F#4,180.0,0.5,49,112.5
754,D4,181.0,0.5,37,112.5
755,F#4,181.0,0.5,37,112.5
756,A4,181.0,0.5,37,112.5
757,G5,182.0,333/1000,66,112.5
758,B3,182.0,0.5,46,112.5
759,D4,182.0,0.5,46,112.5
760,G4,182.0,0.5,46,112.5
761,B5,182.333,333/1000,59,112.5
762,E6,182.667,333/1000,59,112.5
763,G4,183.0,0.5,39,112.5
764,D4,183.0,0.5,39,112.5
765,G3,183.0,0.5,39,112.5
766,D6,183.002,333/1000,66,112.5
767,B5,183.333,333/1000,62,112.5
768,G5,183.667,333/1000,56,112.5
769,F#5,184.0,0.25,61,112.5
770,D4,184.0,0.5,47,112.5
771,F#4,184.0,0.5,47,112.5
772,A5,184.25,0.5,66,112.5
773,A5,185.0,1.0,67,112.5
774,A3,185.0,0.5,42,112.5
775,F#4,185.0,0.5,42,112.5
776,E5,186.0,333/1000,64,112.5
777,C#4,186.0,0.5,49,112.5
778,G4,186.0,0.5,49,112.5
779,G5,186.333,333/1000,59,112.5
780,B5,186.667,333/1000,53,112.5
781,A5,187.0,333/1000,67,112.5
782,A3,187.0,0.5,42,112.5
783,G4,187.0,0.5,42,112.5
784,G5,187.333,333/1000,59,112.5
785,C#5,187.667,333/1000,59,112.5
786,D5,188.0,499/250,67,112.5
787,F#4,188.0,499/250,54,112.5
788,D4,188.0,499/250,54,112.5
789,D4,190.0,0.25,57,112.5
790,D3,190.0,0.25,45,112.5
791,E4,190.25,0.25,52,112.5
792,E3,190.25,0.25,41,112.5
793,F#4,190.5,0.25,57,112.5
794,F#3,190.5,0.25,45,112.5
795,G4,190.75,0.25,53,112.5
796,G3,190.75,0.25,42,112.5
797,G#4,191.0,0.25,57,112.5
798,G#3,191.0,0.25,45,112.5
799,A4,191.25,0.25,52,112.5
800,A3,191.25,0.25,41,112.5
801,G#4,191.5,0.25,54,112.5
802,G#3,191.5,0.25,43,112.5
803,A4,191.75,0.25,57,112.5
804,A3,191.75,0.25,45,112.5
805,B4,192.0,1.0,60,112.5
806,G4,192.0,1.0,60,112.5
807,B3,192.0,1.0,48,112.5
808,G3,192.0,1.0,48,112.5
809,A4,193.0,0.5,44,112.5
810,D4,193.0,0.5,44,112.5
811,F#4,193.0,0.5,44,112.5
812,A3,193.0,0.5,39,112.5
813,D3,193.0,0.5,39,112.5
814,D5,194.0,333/1000,64,112.5
815,F#3,194.0,333/1000,51,112.5
816,C#5,194.333,333/1000,58,112.5
817,A3,194.333,333/1000,45,112.5
818,B4,194.667,333/1000,58,112.5
819,G3,194.667,333/1000,45,112.5
820,A4,195.0,333/1000,64,112.5
821,F#3,195.0,333/1000,54,112.5
822,G4,195.333,333/1000,58,112.5
823,A3,195.333,333/1000,43,112.5
824,F#4,195.667,333/1000,58,112.5
825,D4,195.667,333/1000,43,112.5
826,A4,196.0,0.75,64,112.5
827,E4,196.0,249/250,57,112.5
828,G4,196.75,0.25,55,112.5
829,E4,197.0,0.5,61,112.5
830,A3,197.0,0.5,50,112.5
831,A4,198.0,0.25,64,112.5
832,G4,198.0,0.25,51,112.5
833,B4,198.25,0.25,58,112.5
834,C#5,198.5,0.25,64,112.5
835,F#4,198.5,0.25,45,112.5
836,D5,198.75,0.25,59,112.5
837,E-5,199.0,0.25,69,112.5
838,G4,199.0,0.25,45,112.5
839,E5,199.25,0.25,58,112.5
840,E-5,199.5,0.25,61,112.5
841,A4,199.5,0.25,45,112.5
842,E5,199.75,0.25,64,112.5
843,D5,200.0,0.25,69,112.5
844,F#4,200.0,0.25,51,112.5
845,E5,200.25,0.25,58,112.5
846,F#5,200.5,0.25,64,112.5
847,D4,200.5,0.25,47,112.5
848,G5,200.75,0.25,59,112.5
849,G#5,201.0,0.25,70,112.5
850,E4,201.0,0.25,47,112.5
851,A5,201.25,0.25,58,112.5
852,G#5,201.5,0.25,61,112.5
853,F#4,201.5,0.25,47,112.5
854,A5,201.75,0.25,64,112.5
855,B5,202.0,0.25,72,112.5
856,G4,202.0,0.25,51,112.5
857,A5,202.25,0.25,66,112.5
858,G5,202.5,0.25,64,112.5
859,E4,202.5,0.25,46,112.5
860,F#5,202.75,0.25,63,112.5
861,A5,203.0,0.25,67,112.5
862,F#4,203.0,0.25,46,112.5
863,G5,203.25,0.25,64,112.5
864,F#5,203.5,0.25,61,112.5
865,A4,203.5,0.25,46,112.5
866,E5,203.75,0.25,59,112.5
867,D5,204.0,2.0,67,112.5
868,D4,204.0,0.25,55,112.5
869,F#4,204.0,0.25,55,112.5
870,A3,204.5,0.25,48,112.5
871,F#3,205.0,0.25,54,112.5
872,D3,205.5,0.25,51,112.5
873,G4,206.0,0.25,73,112.5
874,G3,206.0,0.25,58,112.5
875,A4,206.25,0.25,66,112.5
876,A3,206.25,0.25,52,112.5
877,B4,206.5,0.25,73,112.5
878,B3,206.5,0.25,58,112.5
879,C5,206.75,0.25,67,112.5
880,C4,206.75,0.25,53,112.5
881,C#5,207.0,0.25,79,112.5
882,C#4,207.0,0.25,63,112.5
883,D5,207.25,0.25,74,112.5
884,D4,207.25,0.25,59,112.5
885,C#5,207.5,0.25,76,112.5
886,C#4,207.5,0.25,60,112.5
887,D5,207.75,0.25,73,112.5
888,D4,207.75,0.25,58,112.5
889,F#5,208.0,0.25,84,112.5
890,F#4,208.0,0.25,67,112.5
891,E5,208.25,0.25,77,112.5
892,E4,208.25,0.25,61,112.5
893,D5,208.5,0.25,74,112.5
894,D4,208.5,0.25,59,112.5
895,C#5,208.75,0.25,71,112.5
896,C#4,208.75,0.25,56,112.5
897,E5,209.0,0.25,80,112.5
898,E4,209.0,0.25,64,112.5
899,D5,209.25,0.25,75,112.5
900,D4,209.25,0.25,60,112.5
901,C#5,209.5,0.25,71,112.5
902,C#4,209.5,0.25,56,112.5
903,B4,209.75,0.25,73,112.5
904,B3,209.75,0.25,58,112.5
905,A4,210.0,0.25,82,112.5
906,A3,210.0,0.25,65,112.5
907,G#4,210.25,0.25,75,112.5
908,G#3,210.25,0.25,60,112.5
909,F#4,210.5,0.25,73,112.5
910,F#3,210.5,0.25,58,112.5
911,E4,210.75,0.25,72,112.5
912,E3,210.75,0.25,57,112.5
913,E-4,211.0,0.25,77,112.5
914,E-3,211.0,0.25,61,112.5
915,E4,211.25,0.25,73,112.5
916,E3,211.25,0.25,58,112.5
917,F#4,211.5,0.25,70,112.5
918,F#3,211.5,0.25,56,112.5
919,G#4,211.75,0.25,67,112.5
920,G#3,211.75,0.25,53,112.5
921,C#5,212.0,0.25,76,112.5
922,A3,212.0,61/250,61,112.5
923,A3,212.25,0.25,51,112.5
924,B3,212.5,0.25,57,112.5
925,A3,212.75,0.25,49,112.5
926,B3,213.0,0.25,56,112.5
927,A3,213.25,0.25,48,112.5
928,B3,213.5,0.25,47,112.5
929,C#4,213.75,0.25,45,112.5
930,D4,214.0,0.25,57,112.5
931,D3,214.0,0.25,45,112.5
932,E4,214.25,0.25,52,112.5
933,E3,214.25,0.25,41,112.5
934,F#4,214.5,0.25,57,112.5
935,F#3,214.5,0.25,45,112.5
936,G4,214.75,0.25,53,112.5
937,G3,214.75,0.25,42,112.5
938,G#4,215.0,0.25,57,112.5
939,G#3,215.0,0.25,45,112.5
940,A4,215.25,0.25,52,112.5
941,A3,215.25,0.25,41,112.5
942,G#4,215.5,0.25,54,112.5
943,G#3,215.5,0.25,43,112.5
944,A4,215.75,0.25,57,112.5
945,A3,215.75,0.25,45,112.5
946,B4,216.0,1.0,60,112.5
947,G4,216.0,1.0,60,112.5
948,B3,216.0,1.0,48,112.5
949,G3,216.0,1.0,48,112.5
950,F#4,217.0,0.5,44,112.5
951,A4,217.0,0.5,44,112.5
952,D4,217.0,0.5,44,112.5
953,D3,217.0,0.5,39,112.5
954,A3,217.0,0.5,39,112.5
955,D5,218.0,333/1000,64,112.5
956,F#3,218.0,333/1000,51,112.5
957,C#5,218.333,333/1000,58,112.5
958,A3,218.333,333/1000,45,112.5
959,B4,218.667,333/1000,58,112.5
960,G3,218.667,333/1000,45,112.5
961,A4,219.0,333/1000,64,112.5
962,F#3,219.0,333/1000,54,112.5
963,G4,219.333,333/1000,58,112.5
964,A3,219.333,333/1000,43,112.5
965,F#4,219.667,333/1000,58,112.5
966,D4,219.667,333/1000,43,112.5
967,A4,220.0,0.75,64,112.5
968,E4,220.0,249/250,57,112.5
969,G4,220.75,0.25,55,112.5
970,E4,221.0,0.5,61,112.5
971,A3,221.0,0.5,50,112.5
972,A4,222.0,0.25,64,112.5
973,G4,222.0,0.25,51,112.5
974,B4,222.25,0.25,58,112.5
975,C#5,222.5,0.25,64,112.5
976,F#4,222.5,0.25,45,112.5
977,D5,222.75,0.25,59,112.5
978,E-5,223.0,0.25,69,112.5
979,G4,223.0,0.25,45,112.5
980,E5,223.25,0.25,58,112.5
981,E-5,223.5,0.25,61,112.5
982,A4,223.5,0.25,45,112.5
983,E5,223.75,0.25,64,112.5
984,D5,224.0,0.25,69,112.5
985,F#4,224.0,0.25,51,112.5
986,E5,224.25,0.25,58,112.5
987,F#5,224.5,0.25,64,112.5
988,A4,224.5,0.25,47,112.5
989,G5,224.75,0.25,59,112.5
990,G#5,225.0,0.25,70,112.5
991,F#4,225.0,0.25,47,112.5
992,A5,225.25,0.25,63,112.5
993,G#5,225.5,0.25,66,112.5
994,E4,225.5,0.25,47,112.5
995,A5,225.75,0.25,68,112.5
996,F#6,226.0,0.25,75,112.5
997,D4,226.0,0.25,51,112.5
998,E6,226.25,0.25,71,112.5
999,D6,226.5,0.25,67,112.5
1000,B3,226.5,0.25,46,112.5
1001,C#6,226.75,0.25,64,112.5
1002,E6,227.0,0.25,73,112.5
1003,C#4,227.0,0.25,46,112.5
1004,D6,227.25,0.25,67,112.5
1005,C#6,227.5,0.25,64,112.5
1006,E4,227.5,0.25,46,112.5
1007,B5,227.75,0.25,61,112.5
1008,A5,228.0,2.0,76,112.5
1009,A3,228.0,0.25,55,112.5
1010,C#4,228.0,0.25,55,112.5
1011,E3,228.5,0.25,48,112.5
1012,C#3,229.0,0.25,54,112.5
1013,A2,229.5,0.25,51,112.5
1014,D4,230.0,0.25,73,112.5
1015,D3,230.0,0.25,58,112.5
1016,E4,230.25,0.25,66,112.5
1017,E3,230.25,0.25,52,112.5
1018,F#4,230.5,0.25,73,112.5
1019,F#3,230.5,0.25,58,112.5
1020,G4,230.75,0.25,67,112.5
1021,G3,230.75,0.25,53,112.5
1022,G#4,231.0,0.25,79,112.5
1023,G#3,231.0,0.25,63,112.5
1024,A4,231.25,0.25,74,112.5
1025,A3,231.25,0.25,59,112.5
1026,G#4,231.5,0.25,76,112.5
1027,G#3,231.5,0.25,60,112.5
1028,A4,231.75,0.25,73,112.5
1029,A3,231.75,0.25,58,112.5
1030,C#5,232.0,0.25,84,112.5
1031,C#4,232.0,0.25,67,112.5
1032,B4,232.25,0.25,77,112.5
1033,B3,232.25,0.25,61,112.5
1034,A4,232.5,0.25,74,112.5
1035,A3,232.5,0.25,59,112.5
1036,G#4,232.75,0.25,71,112.5
1037,G#3,232.75,0.25,56,112.5
1038,B4,233.0,0.25,80,112.5
1039,B3,233.0,0.25,64,112.5
1040,A4,233.25,0.25,75,112.5
1041,A3,233.25,0.25,60,112.5
1042,G#4,233.5,0.25,71,112.5
1043,G#3,233.5,0.25,56,112.5
1044,F#4,233.75,0.25,73,112.5
1045,F#3,233.75,0.25,58,112.5
1046,E4,234.0,0.25,82,112.5
1047,E3,234.0,0.25,65,112.5
1048,F#4,234.25,0.25,75,112.5
1049,F#3,234.25,0.25,60,112.5
1050,E4,234.5,0.25,73,112.5
1051,E3,234.5,0.25,58,112.5
1052,F#4,234.75,0.25,72,112.5
1053,F#3,234.75,0.25,57,112.5
1054,E4,235.0,0.25,77,112.5
1055,E3,235.0,0.25,61,112.5
1056,D4,235.25,0.25,73,112.5
1057,D3,235.25,0.25,58,112.5
1058,C#4,235.5,0.25,70,112.5
1059,C#3,235.5,0.25,56,112.5
1060,B3,235.75,0.25,67,112.5
1061,B2,235.75,0.25,53,112.5
1062,A3,236.0,0.25,76,112.5
1063,A2,236.0,0.5,61,112.5
1064,C#4,236.25,0.25,51,112.5
1065,E4,236.5,0.25,57,112.5
1066,G#4,236.75,0.25,49,112.5
1067,A4,237.0,0.25,56,112.5
1068,B4,237.25,0.25,48,112.5
1069,C#5,237.5,0.25,47,112.5
1070,D5,237.75,229/1000,45,112.5
1071,E5,238.0,0.25,69,112.5
1072,D5,238.0,0.25,51,112.5
1073,F#5,238.25,0.25,58,112.5
1074,G#5,238.5,0.25,64,112.5
1075,B4,238.5,0.25,47,112.5
1076,A5,238.75,0.25,59,112.5
1077,B-5,239.0,0.25,70,112.5
1078,G#4,239.0,0.25,47,112.5
1079,B5,239.25,0.25,63,112.5
1080,B-5,239.5,0.25,66,112.5
1081,E4,239.5,0.25,47,112.5
1082,B5,239.75,0.25,68,112.5
1083,A5,240.0,0.25,69,112.5
1084,C#5,240.0,0.25,51,112.5
1085,B5,240.25,0.25,58,112.5
1086,C#6,240.5,0.25,64,112.5
1087,A4,240.5,0.25,47,112.5
1088,D6,240.75,0.25,59,112.5
1089,E-6,241.0,0.25,70,112.5
1090,E4,241.0,0.25,47,112.5
1091,E6,241.25,0.25,63,112.5
1092,E-6,241.5,0.25,66,112.5
1093,C#4,241.5,0.25,47,112.5
1094,E6,241.75,0.25,68,112.5
1095,F#6,242.0,0.25,75,112.5
1096,D4,242.0,0.25,51,112.5
1097,E6,242.25,0.25,65,112.5
1098,E4,242.25,0.25,42,112.5
1099,F#6,242.5,0.25,67,112.5
1100,D4,242.5,0.25,46,112.5
1101,E6,242.75,0.25,64,112.5
1102,E4,242.75,0.25,42,112.5
1103,B5,243.0,0.25,75,112.5
1104,G#4,243.0,0.25,51,112.5
1105,G#5,243.25,0.25,67,112.5
1106,B4,243.25,0.25,41,112.5
1107,B5,243.5,0.25,70,112.5
1108,G#4,243.5,0.25,45,112.5
1109,G#5,243.75,0.25,65,112.5
1110,B4,243.75,0.25,41,112.5
1111,F#6,244.0,0.25,75,112.5
1112,C#4,244.0,0.25,51,112.5
1113,E6,244.25,0.25,65,112.5
1114,E4,244.25,0.25,42,112.5
1115,F#6,244.5,0.25,67,112.5
1116,C#4,244.5,0.25,46,112.5
1117,E6,244.75,0.25,64,112.5
1118,E4,244.75,0.25,42,112.5
1119,C#6,245.0,0.25,75,112.5
1120,A4,245.0,0.25,51,112.5
1121,A5,245.25,0.25,67,112.5
1122,C#5,245.25,0.25,41,112.5
1123,C#6,245.5,0.25,70,112.5
1124,A4,245.5,0.25,45,112.5
1125,A5,245.75,0.25,65,112.5
1126,C#5,245.75,0.25,41,112.5
1127,D6,246.0,0.25,77,112.5
1128,E4,246.0,0.25,69,112.5
1129,F#4,246.25,0.25,58,112.5
1130,B5,246.5,0.25,64,112.5
1131,G#4,246.5,0.25,64,112.5
1132,A4,246.75,0.25,59,112.5
1133,G#5,247.0,0.25,64,112.5
1134,B-4,247.0,0.25,69,112.5
1135,B4,247.25,0.25,56,112.5
1136,E5,247.5,0.25,64,112.5
1137,B-4,247.5,0.25,65,112.5
1138,B4,247.75,0.25,59,112.5
1139,C#6,248.0,0.25,78,112.5
1140,A4,248.0,0.25,69,112.5
1141,B4,248.25,0.25,58,112.5
1142,A5,248.5,0.25,67,112.5
1143,C#5,248.5,0.25,64,112.5
1144,D5,248.75,0.25,59,112.5
1145,C#7,249.0,0.25,81,112.5
1146,E-5,249.0,0.25,70,112.5
1147,E5,249.25,0.25,57,112.5
1148,A6,249.5,0.25,75,112.5
1149,E-5,249.5,0.25,62,112.5
1150,E5,249.75,0.25,49,112.5
1151,G#6,250.0,0.25,75,112.5
1152,D4,250.0,0.25,58,112.5
1153,F#6,250.25,0.25,65,112.5
1154,B4,250.25,0.25,42,112.5
1155,G#6,250.5,0.25,67,112.5
1156,D4,250.5,0.25,46,112.5
1157,F#6,250.75,0.25,64,112.5
1158,B4,250.75,0.25,42,112.5
1159,D6,251.0,0.25,75,112.5
1160,E4,251.0,0.25,51,112.5
1161,B5,251.25,0.25,67,112.5
1162,E-5,251.25,0.25,41,112.5
1163,D6,251.5,0.25,70,112.5
1164,E4,251.5,0.25,45,112.5
1165,B5,251.75,123/500,65,112.5
1166,E-5,251.75,0.25,41,112.5
1167,B5,252.0,0.25,71,112.5
1168,A4,252.0,0.25,51,112.5
1169,A5,252.25,0.25,61,112.5
1170,C#5,252.25,0.25,42,112.5
1171,B5,252.5,0.25,65,112.5
1172,A4,252.5,0.25,46,112.5
1173,A5,252.75,0.25,61,112.5
1174,C#5,252.75,0.25,42,112.5
1175,A6,253.0,0.25,79,112.5
1176,A3,253.0,0.25,51,112.5
1177,A5,253.5,0.25,69,112.5
1178,A4,253.5,0.25,45,112.5
1179,E3,254.0,0.25,75,112.5
1180,D5,254.0,0.25,80,112.5
1181,E5,254.0,0.25,80,112.5
1182,F#3,254.25,0.25,58,112.5
1183,G#3,254.5,0.25,64,112.5
1184,B4,254.5,0.25,61,112.5
1185,E5,254.5,0.25,61,112.5
1186,A3,254.75,0.25,59,112.5
1187,B-3,255.0,0.25,70,112.5
1188,G#4,255.0,0.25,70,112.5
1189,E5,255.0,0.25,70,112.5
1190,B3,255.25,0.25,61,112.5
1191,B-3,255.5,0.25,68,112.5
1192,E4,255.5,0.25,60,112.5
1193,E5,255.5,0.25,60,112.5
1194,B3,255.75,0.25,59,112.5
1195,E3,256.0,0.25,75,112.5
1196,D5,256.0,0.25,80,112.5
1197,E5,256.0,0.25,80,112.5
1198,F#3,256.25,0.25,58,112.5
1199,G#3,256.5,0.25,64,112.5
1200,B4,256.5,0.25,61,112.5
1201,E5,256.5,0.25,61,112.5
1202,A3,256.75,0.25,59,112.5
1203,B-3,257.0,0.25,70,112.5
1204,E5,257.0,0.25,70,112.5
1205,G#4,257.0,0.25,70,112.5
1206,B3,257.25,0.25,61,112.5
1207,B-3,257.5,0.25,68,112.5
1208,E5,257.5,0.25,60,112.5
1209,E4,257.5,0.25,60,112.5
1210,B3,257.75,0.25,59,112.5
1211,E2,258.0,0.25,75,112.5
1212,D4,258.0,0.25,80,112.5
1213,E4,258.0,0.25,80,112.5
1214,F#2,258.25,0.25,58,112.5
1215,G#2,258.5,0.25,64,112.5
1216,B3,258.5,0.25,61,112.5
1217,E4,258.5,0.25,61,112.5
1218,A2,258.75,0.25,59,112.5
1219,B-2,259.0,0.25,70,112.5
1220,G#3,259.0,0.25,70,112.5
1221,E4,259.0,0.25,70,112.5
1222,B2,259.25,0.25,61,112.5
1223,B-2,259.5,0.25,68,112.5
1224,E4,259.5,0.25,60,112.5
1225,E3,259.5,0.25,60,112.5
1226,B2,259.75,0.25,59,112.5
1227,B-2,260.0,0.25,75,112.5
1228,B2,260.25,0.25,62,112.5
1229,C#3,260.5,0.25,66,112.5
1230,D3,260.75,0.25,62,112.5
1231,E-3,261.0,0.25,74,112.5
1232,E3,261.25,0.25,63,112.5
1233,F#3,261.5,0.25,64,112.5
1234,G#3,261.75,0.25,65,112.5
1235,A4,262.0,0.25,76,112.5
1236,A3,262.0,0.25,60,112.5
1237,B4,262.25,0.25,70,112.5
1238,B3,262.25,0.25,55,112.5
1239,C5,262.5,0.25,76,112.5
1240,C4,262.5,0.25,60,112.5
1241,D5,262.75,0.25,71,112.5
1242,D4,262.75,0.25,56,112.5
1243,E-5,263.0,0.25,76,112.5
1244,E-4,263.0,0.25,60,112.5
1245,E5,263.25,0.25,75,112.5
1246,E4,263.25,0.25,55,112.5
1247,E-5,263.5,0.25,79,112.5
1248,E-4,263.5,0.25,58,112.5
1249,E5,263.75,0.25,82,112.5
1250,E4,263.75,0.25,60,112.5
1251,A4,264.0,1.5,75,112.5
1252,F5,264.0,1.0,82,112.5
1253,D5,264.0,1.0,82,112.5
1254,D4,264.0,1.0,64,112.5
1255,F4,264.0,1.0,64,112.5
1256,C5,265.0,0.5,73,112.5
1257,E5,265.0,0.5,73,112.5
1258,E4,265.0,0.5,52,112.5
1259,A3,265.0,0.5,52,112.5
1260,C5,266.0,1.5,75,112.5
1261,A4,266.0,1.0,80,112.5
1262,A5,266.0,1.0,80,112.5
1263,F5,266.0,1.0,80,112.5
1264,F3,266.0,1.0,63,112.5
1265,C4,266.0,1.0,63,112.5
1266,F4,266.0,1.0,63,112.5
1267,E5,267.0,0.5,71,112.5
1268,G5,267.0,0.5,71,112.5
1269,G4,267.0,0.5,71,112.5
1270,C3,267.0,0.5,52,112.5
1271,C4,267.0,0.5,52,112.5
1272,E5,268.0,0.25,77,112.5
1273,C5,268.0,0.25,77,112.5
1274,C6,268.0,0.25,77,112.5
1275,A3,268.0,0.25,60,112.5
1276,A2,268.0,0.25,60,112.5
1277,B5,268.5,0.25,65,112.5
1278,E5,268.5,0.25,65,112.5
1279,B4,268.5,0.25,65,112.5
1280,G2,268.5,0.25,50,112.5
1281,G3,268.5,0.25,50,112.5
1282,A4,269.0,0.25,70,112.5
1283,A5,269.0,0.25,70,112.5
1284,C5,269.0,0.25,70,112.5
1285,F2,269.0,0.25,54,112.5
1286,F3,269.0,0.25,54,112.5
1287,G5,269.5,0.25,63,112.5
1288,C5,269.5,0.25,63,112.5
1289,G4,269.5,0.25,63,112.5
1290,E2,269.5,0.25,49,112.5
1291,E3,269.5,0.25,49,112.5
1292,A4,270.0,0.25,77,112.5
1293,F5,270.0,0.25,77,112.5
1294,F4,270.0,0.25,77,112.5
1295,D3,270.0,0.25,60,112.5
1296,D2,270.0,0.25,60,112.5
1297,E5,270.5,0.25,63,112.5
1298,E4,270.5,0.25,63,112.5
1299,A4,270.5,0.25,63,112.5
1300,C3,270.5,0.25,49,112.5
1301,C2,270.5,0.25,49,112.5
1302,F4,271.0,0.25,72,112.5
1303,A4,271.0,0.25,72,112.5
1304,D5,271.0,0.25,72,112.5
1305,D3,271.0,0.25,56,112.5
1306,D2,271.0,0.25,56,112.5
1307,C5,271.5,0.25,63,112.5
1308,A4,271.5,0.25,63,112.5
1309,F#4,271.5,0.25,63,112.5
1310,E-2,271.5,0.25,49,112.5
1311,E-3,271.5,0.25,49,112.5
1312,E5,272.0,1.0,76,112.5
1313,G#4,272.0,1.0,76,112.5
1314,E4,272.0,1.0,76,112.5
1315,B4,272.0,1.0,76,112.5
1316,E3,272.0,0.25,69,112.5
1317,E2,272.0,0.25,69,112.5
1318,G#2,272.25,0.25,63,112.5
1319,B2,272.5,0.25,63,112.5
1320,E3,272.75,0.25,63,112.5
1321,G#3,273.0,0.25,65,112.5
1322,A3,273.25,0.25,61,112.5
1323,B3,273.5,0.25,61,112.5
1324,C4,273.75,0.25,61,112.5
1325,E4,274.0,0.25,65,112.5
1326,D3,274.0,0.25,75,112.5
1327,D4,274.0,0.25,75,112.5
1328,F#4,274.25,0.25,59,112.5
1329,G#4,274.5,0.25,59,112.5
1330,C#4,274.5,0.25,50,112.5
1331,C#3,274.5,0.25,50,112.5
1332,A4,274.75,0.25,61,112.5
1333,B-4,275.0,0.25,64,112.5
1334,D3,275.0,0.25,56,112.5
1335,D4,275.0,0.25,56,112.5
1336,B4,275.25,0.25,59,112.5
1337,B-4,275.5,0.25,65,112.5
1338,E3,275.5,0.25,52,112.5
1339,E4,275.5,0.25,52,112.5
1340,B4,275.75,0.25,59,112.5
1341,A4,276.0,0.25,70,112.5
1342,C3,276.0,0.25,74,112.5
1343,C4,276.0,0.25,74,112.5
1344,B4,276.25,0.25,64,112.5
1345,C5,276.5,0.25,64,112.5
1346,A2,276.5,0.25,52,112.5
1347,A3,276.5,0.25,52,112.5
1348,D5,276.75,0.25,64,112.5
1349,E-5,277.0,0.25,69,112.5
1350,B3,277.0,0.25,54,112.5
1351,B2,277.0,0.25,54,112.5
1352,E5,277.25,0.25,64,112.5
1353,E-5,277.5,0.25,68,112.5
1354,C3,277.5,0.25,52,112.5
1355,C4,277.5,0.25,52,112.5
1356,E5,277.75,0.25,64,112.5
1357,F5,278.0,0.25,76,112.5
1358,D4,278.0,0.25,75,112.5
1359,D3,278.0,0.25,75,112.5
1360,E5,278.25,0.25,69,112.5
1361,D5,278.5,0.25,67,112.5
1362,B3,278.5,0.25,52,112.5
1363,B2,278.5,0.25,52,112.5
1364,C5,278.75,0.25,66,112.5
1365,E5,279.0,0.25,77,112.5
1366,C4,279.0,0.25,56,112.5
1367,C3,279.0,0.25,56,112.5
1368,D5,279.25,0.25,69,112.5
1369,C5,279.5,0.25,67,112.5
1370,E4,279.5,0.25,52,112.5
1371,E3,279.5,0.25,52,112.5
1372,B4,279.75,0.25,65,112.5
1373,A4,280.0,0.25,73,112.5
1374,A3,280.0,0.25,75,112.5
1375,A2,280.0,0.25,75,112.5
1376,B4,280.25,0.25,65,112.5
1377,C5,280.5,0.25,66,112.5
1378,E3,280.5,0.25,55,112.5
1379,D5,280.75,0.25,68,112.5
1380,E5,281.0,0.25,69,112.5
1381,C3,281.0,0.25,61,112.5
1382,F#5,281.25,0.25,70,112.5
1383,G#5,281.5,0.25,72,112.5
1384,A2,281.5,0.25,57,112.5
1385,A5,281.75,0.25,73,112.5
1386,C3,282.0,11/40,63,112.5
1387,B-4,282.0,0.25,88,112.5
1388,B-5,282.0,0.25,88,112.5
1389,D3,282.25,11/40,57,112.5
1390,E3,282.5,11/40,57,112.5
1391,A5,282.5,0.25,62,112.5
1392,A4,282.5,0.25,62,112.5
1393,F3,282.75,11/40,57,112.5
1394,F#3,283.0,11/40,62,112.5
1395,B-5,283.0,0.25,65,112.5
1396,B-4,283.0,0.25,65,112.5
1397,G3,283.25,11/40,57,112.5
1398,F#3,283.5,11/40,61,112.5
1399,C6,283.5,0.25,62,112.5
1400,C5,283.5,0.25,62,112.5
1401,G3,283.75,0.25,57,112.5
1402,F3,284.0,11/40,63,112.5
1403,A4,284.0,0.25,88,112.5
1404,A5,284.0,0.25,88,112.5
1405,G3,284.25,11/40,57,112.5
1406,A3,284.5,11/40,57,112.5
1407,F4,284.5,0.25,62,112.5
1408,F5,284.5,0.25,62,112.5
1409,B-3,284.75,11/40,57,112.5
1410,B3,285.0,11/40,62,112.5
1411,G5,285.0,0.25,65,112.5
1412,G4,285.0,0.25,65,112.5
1413,C4,285.25,11/40,57,112.5
1414,B3,285.5,11/40,61,112.5
1415,A4,285.5,0.25,62,112.5
1416,A5,285.5,0.25,62,112.5
1417,C4,285.75,0.25,57,112.5
1418,D4,286.0,11/40,63,112.5
1419,B-4,286.0,0.25,88,112.5
1420,B-5,286.0,0.25,88,112.5
1421,C4,286.25,11/40,57,112.5
1422,B-3,286.5,11/40,57,112.5
1423,G4,286.5,0.25,62,112.5
1424,G5,286.5,0.25,62,112.5
1425,A3,286.75,11/40,57,112.5
1426,C4,287.0,11/40,62,112.5
1427,A4,287.0,0.25,80,112.5
1428,A5,287.0,0.25,80,112.5
1429,B-3,287.25,11/40,57,112.5
1430,A3,287.5,11/40,61,112.5
1431,C6,287.5,0.25,62,112.5
1432,C5,287.5,0.25,62,112.5
1433,G3,287.75,0.25,57,112.5
1434,F3,288.0,11/40,63,112.5
1435,F4,288.0,0.25,88,112.5
1436,F5,288.0,0.25,88,112.5
1437,G3,288.25,11/40,57,112.5
1438,C5,288.5,0.25,67,112.5
1439,A3,288.5,11/40,57,112.5
1440,B-3,288.75,11/40,57,112.5
1441,A4,289.0,0.25,70,112.5
1442,C4,289.0,11/40,62,112.5
1443,D4,289.25,11/40,57,112.5
1444,F4,289.5,229/1000,68,112.5
1445,E4,289.5,11/40,61,112.5
1446,F4,289.75,0.25,57,112.5
1447,A4,290.0,0.25,68,112.5
1448,G3,290.0,0.25,75,112.5
1449,G4,290.0,0.25,75,112.5
1450,B4,290.25,0.25,61,112.5
1451,C#5,290.5,0.25,61,112.5
1452,F#4,290.5,0.25,50,112.5
1453,F#3,290.5,0.25,50,112.5
1454,D5,290.75,0.25,64,112.5
1455,E-5,291.0,0.25,67,112.5
1456,G3,291.0,0.25,56,112.5
1457,G4,291.0,0.25,56,112.5
1458,E5,291.25,0.25,61,112.5
1459,E-5,291.5,0.25,68,112.5
1460,A4,291.5,0.25,52,112.5
1461,A3,291.5,0.25,52,112.5
1462,E5,291.75,0.25,61,112.5
1463,D5,292.0,0.25,73,112.5
1464,F4,292.0,0.25,74,112.5
1465,F3,292.0,0.25,74,112.5
1466,E5,292.25,0.25,67,112.5
1467,F5,292.5,0.25,67,112.5
1468,D4,292.5,0.25,52,112.5
1469,D3,292.5,0.25,52,112.5
1470,G5,292.75,0.25,67,112.5
1471,G#5,293.0,0.25,72,112.5
1472,E3,293.0,0.25,54,112.5
1473,E4,293.0,0.25,54,112.5
1474,A5,293.25,0.25,67,112.5
1475,G#5,293.5,0.25,71,112.5
1476,F3,293.5,0.25,52,112.5
1477,F4,293.5,0.25,52,112.5
1478,A5,293.75,0.25,67,112.5
1479,B-5,294.0,0.25,76,112.5
1480,G4,294.0,0.25,75,112.5
1481,G3,294.0,0.25,75,112.5
1482,A5,294.25,0.25,72,112.5
1483,G5,294.5,0.25,70,112.5
1484,E4,294.5,0.25,52,112.5
1485,E3,294.5,0.25,52,112.5
1486,F5,294.75,0.25,69,112.5
1487,A5,295.0,0.25,77,112.5
1488,F3,295.0,0.25,56,112.5
1489,F4,295.0,0.25,56,112.5
1490,G5,295.25,0.25,72,112.5
1491,F5,295.5,0.25,70,112.5
1492,A4,295.5,0.25,52,112.5
1493,A3,295.5,0.25,52,112.5
1494,E5,295.75,0.25,68,112.5
1495,D5,296.0,0.25,76,112.5
1496,D4,296.0,0.25,75,112.5
1497,D3,296.0,0.25,75,112.5
1498,E5,296.25,0.25,68,112.5
1499,F5,296.5,0.25,69,112.5
1500,A3,296.5,0.25,55,112.5
1501,G5,296.75,0.25,71,112.5
1502,A5,297.0,0.25,72,112.5
1503,F3,297.0,0.25,61,112.5
1504,B5,297.25,0.25,73,112.5
1505,C#6,297.5,0.25,75,112.5
1506,D3,297.5,0.25,57,112.5
1507,D6,297.75,0.25,76,112.5
1508,F3,298.0,11/40,63,112.5
1509,E-6,298.0,0.25,96,112.5
1510,E-5,298.0,0.25,96,112.5
1511,G3,298.25,11/40,57,112.5
1512,A3,298.5,11/40,57,112.5
1513,D6,298.5,0.25,64,112.5
1514,D5,298.5,0.25,64,112.5
1515,B-3,298.75,11/40,57,112.5
1516,B3,299.0,11/40,62,112.5
1517,E-5,299.0,0.25,68,112.5
1518,E-6,299.0,0.25,68,112.5
1519,C4,299.25,11/40,57,112.5
1520,B3,299.5,11/40,61,112.5
1521,F5,299.5,0.25,65,112.5
1522,F6,299.5,0.25,65,112.5
1523,C4,299.75,0.25,57,112.5
1524,B-3,300.0,11/40,63,112.5
1525,D5,300.0,0.25,96,112.5
1526,D6,300.0,0.25,96,112.5
1527,C4,300.25,11/40,57,112.5
1528,D4,300.5,11/40,57,112.5
1529,B-5,300.5,0.25,64,112.5
1530,B-4,300.5,0.25,64,112.5
1531,E-4,300.75,11/40,57,112.5
1532,E4,301.0,11/40,62,112.5
1533,C6,301.0,0.25,68,112.5
1534,C5,301.0,0.25,68,112.5
1535,F4,301.25,11/40,57,112.5
1536,E4,301.5,11/40,61,112.5
1537,D6,301.5,0.25,65,112.5
1538,D5,301.5,0.25,65,112.5
1539,F4,301.75,0.25,57,112.5
1540,G4,302.0,11/40,63,112.5
1541,E-6,302.0,0.25,96,112.5
1542,E-5,302.0,0.25,96,112.5
1543,F4,302.25,11/40,57,112.5
1544,E-4,302.5,11/40,57,112.5
1545,C6,302.5,0.25,64,112.5
1546,C5,302.5,0.25,64,112.5
1547,D4,302.75,11/40,57,112.5
1548,F4,303.0,11/40,62,112.5
1549,D6,303.0,0.25,84,112.5
1550,D5,303.0,0.25,84,112.5
1551,E-4,303.25,11/40,57,112.5
1552,D4,303.5,11/40,61,112.5
1553,F6,303.5,0.25,65,112.5
1554,F5,303.5,0.25,65,112.5
1555,C4,303.75,0.25,57,112.5
1556,F4,304.0,11/40,63,112.5
1557,D5,304.0,0.25,92,112.5
1558,D6,304.0,0.25,92,112.5
1559,E-4,304.25,11/40,57,112.5
1560,D4,304.5,11/40,57,112.5
1561,B-5,304.5,0.25,64,112.5
1562,B-4,304.5,0.25,64,112.5
1563,C4,304.75,11/40,57,112.5
1564,E-4,305.0,11/40,62,112.5
1565,C5,305.0,0.25,68,112.5
1566,C6,305.0,0.25,68,112.5
1567,D4,305.25,11/40,57,112.5
1568,C4,305.5,11/40,61,112.5
1569,E-6,305.5,0.25,65,112.5
1570,E-5,305.5,0.25,65,112.5
1571,D4,305.75,0.25,57,112.5
1572,E-4,306.0,11/40,63,112.5
1573,C5,306.0,0.25,87,112.5
1574,C6,306.0,0.25,87,112.5
1575,D4,306.25,11/40,57,112.5
1576,C4,306.5,11/40,57,112.5
1577,A4,306.5,0.25,64,112.5
1578,A5,306.5,0.25,64,112.5
1579,B-3,306.75,11/40,57,112.5
1580,D4,307.0,11/40,62,112.5
1581,B-5,307.0,0.25,84,112.5
1582,B-4,307.0,0.25,84,112.5
1583,C4,307.25,11/40,57,112.5
1584,B-3,307.5,11/40,61,112.5
1585,D5,307.5,0.25,65,112.5
1586,D6,307.5,0.25,65,112.5
1587,C4,307.75,0.25,57,112.5
1588,D6,308.0,0.25,73,112.5
1589,B-3,308.0,0.25,74,112.5
1590,B-2,308.0,0.25,74,112.5
1591,C6,308.25,0.25,67,112.5
1592,B-5,308.5,0.25,67,112.5
1593,G2,308.5,0.25,52,112.5
1594,G3,308.5,0.25,52,112.5
1595,A5,308.75,0.25,67,112.5
1596,C6,309.0,0.25,72,112.5
1597,A3,309.0,0.25,54,112.5
1598,A2,309.0,0.25,54,112.5
1599,B-5,309.25,0.25,67,112.5
1600,A5,309.5,0.25,71,112.5
1601,C4,309.5,0.25,52,112.5
1602,C3,309.5,0.25,52,112.5
1603,B-5,309.75,0.25,67,112.5
1604,C6,310.0,0.25,76,112.5
1605,A2,310.0,0.25,75,112.5
1606,A3,310.0,0.25,75,112.5
1607,B-5,310.25,0.25,72,112.5
1608,A5,310.5,0.25,70,112.5
1609,F#3,310.5,0.25,52,112.5
1610,F#2,310.5,0.25,52,112.5
1611,G5,310.75,0.25,69,112.5
1612,B-5,311.0,0.25,77,112.5
1613,G2,311.0,0.25,56,112.5
1614,G3,311.0,0.25,56,112.5
1615,A5,311.25,0.25,72,112.5
1616,G5,311.5,0.25,70,112.5
1617,B-3,311.5,0.25,52,112.5
1618,B-2,311.5,0.25,52,112.5
1619,A5,311.75,0.25,68,112.5
1620,B-5,312.0,0.25,73,112.5
1621,G2,312.0,0.25,74,112.5
1622,G3,312.0,0.25,74,112.5
1623,A5,312.25,0.25,67,112.5
1624,G5,312.5,0.25,67,112.5
1625,B-2,312.5,0.25,52,112.5
1626,B-3,312.5,0.25,52,112.5
1627,F5,312.75,0.25,67,112.5
1628,A5,313.0,0.25,72,112.5
1629,F3,313.0,0.25,62,112.5
1630,F2,313.0,0.25,62,112.5
1631,G5,313.25,0.25,67,112.5
1632,F5,313.5,0.25,71,112.5
1633,A3,313.5,0.25,52,112.5
1634,A2,313.5,0.25,52,112.5
1635,E5,313.75,0.25,67,112.5
1636,G5,314.0,0.25,76,112.5
1637,E3,314.0,0.25,75,112.5
1638,E2,314.0,0.25,75,112.5
1639,F5,314.25,0.25,72,112.5
1640,E5,314.5,0.25,70,112.5
1641,G2,314.5,0.25,52,112.5
1642,G3,314.5,0.25,52,112.5
1643,D5,314.75,0.25,69,112.5
1644,F5,315.0,0.25,77,112.5
1645,D2,315.0,0.25,64,112.5
1646,D3,315.0,0.25,64,112.5
1647,E5,315.25,0.25,72,112.5
1648,D5,315.5,0.25,70,112.5
1649,F2,315.5,0.25,52,112.5
1650,F3,315.5,0.25,52,112.5
1651,E5,315.75,0.25,68,112.5
1652,F5,316.0,0.25,73,112.5
1653,D2,316.0,0.25,74,112.5
1654,D3,316.0,0.25,74,112.5
1655,E5,316.25,0.25,67,112.5
1656,D5,316.5,0.25,67,112.5
1657,F3,316.5,0.25,52,112.5
1658,F2,316.5,0.25,52,112.5
1659,E5,316.75,0.25,67,112.5
1660,D5,317.0,0.25,72,112.5
1661,B1,317.0,0.25,62,112.5
1662,B2,317.0,0.25,62,112.5
1663,C5,317.25,0.25,67,112.5
1664,B4,317.5,0.25,71,112.5
1665,D2,317.5,0.25,52,112.5
1666,D3,317.5,0.25,52,112.5
1667,C5,317.75,0.25,67,112.5
1668,B4,318.0,0.25,76,112.5
1669,G#1,318.0,0.25,75,112.5
1670,G#2,318.0,0.25,75,112.5
1671,A4,318.25,0.25,72,112.5
1672,G#4,318.5,0.25,70,112.5
1673,B1,318.5,0.25,52,112.5
1674,B2,318.5,0.25,52,112.5
1675,A4,318.75,0.25,69,112.5
1676,G#4,319.0,0.25,77,112.5
1677,E2,319.0,0.25,69,112.5
1678,F#4,319.25,0.25,72,112.5
1679,E4,319.5,0.25,70,112.5
1680,G#2,319.5,0.25,57,112.5
1681,F#4,319.75,0.25,68,112.5
1682,G#4,320.0,0.25,73,112.5
1683,E2,320.0,0.25,80,112.5
1684,F#4,320.25,0.25,67,112.5
1685,E4,320.5,0.25,67,112.5
1686,G#2,320.5,0.25,56,112.5
1687,F#4,320.75,0.25,67,112.5
1688,G#4,321.0,0.25,72,112.5
1689,E2,321.0,0.25,67,112.5
1690,F#4,321.25,0.25,67,112.5
1691,E4,321.5,0.25,71,112.5
1692,G#2,321.5,0.25,57,112.5
1693,F#4,321.75,0.25,67,112.5
1694,G#4,322.0,0.25,76,112.5
1695,E2,322.0,0.25,81,112.5
1696,F#4,322.25,0.25,72,112.5
1697,E4,322.5,0.25,70,112.5
1698,G#2,322.5,0.25,57,112.5
1699,F#4,322.75,0.25,69,112.5
1700,G#4,323.0,0.25,77,112.5
1701,E2,323.0,0.25,69,112.5
1702,F#4,323.25,0.25,72,112.5
1703,E4,323.5,0.25,70,112.5
1704,G#2,323.5,0.25,57,112.5
1705,F#4,323.75,0.25,68,112.5
1706,E4,324.0,1.0,77,112.5
1707,E2,324.0,0.25,60,112.5
1708,F#2,324.25,0.25,52,112.5
1709,G#2,324.5,0.25,52,112.5
1710,A2,324.75,0.25,52,112.5
1711,B-2,325.0,0.25,60,112.5
1712,B2,325.25,0.25,51,112.5
1713,B-2,325.5,0.25,58,112.5
1714,B2,325.75,0.25,51,112.5
1715,E2,326.0,0.25,60,112.5
1716,D4,326.0,0.25,50,112.5
1717,E4,326.0,0.25,50,112.5
1718,F#2,326.25,0.25,52,112.5
1719,G#2,326.5,0.25,52,112.5
1720,E4,326.5,0.25,45,112.5
1721,B3,326.5,0.25,45,112.5
1722,A2,326.75,0.25,52,112.5
1723,B-2,327.0,0.25,60,112.5
1724,G#3,327.0,0.25,50,112.5
1725,E4,327.0,0.25,50,112.5
1726,B2,327.25,0.25,51,112.5
1727,B-2,327.5,0.25,58,112.5
1728,E3,327.5,0.25,44,112.5
1729,E4,327.5,0.25,44,112.5
1730,B2,327.75,0.25,51,112.5
1731,E2,328.0,0.25,51,112.5
1732,F#2,328.25,0.25,44,112.5
1733,G#2,328.5,0.25,44,112.5
1734,A2,328.75,0.25,44,112.5
1735,B-2,329.0,0.25,51,112.5
1736,B2,329.25,0.25,43,112.5
1737,B-2,329.5,0.25,49,112.5
1738,B2,329.75,0.25,43,112.5
1739,E2,330.0,0.25,51,112.5
1740,D5,330.0,0.25,42,112.5
1741,E5,330.0,0.25,42,112.5
1742,F#2,330.25,0.25,44,112.5
1743,G#2,330.5,0.25,44,112.5
1744,E5,330.5,0.25,38,112.5
1745,B4,330.5,0.25,38,112.5
1746,A2,330.75,0.25,44,112.5
1747,B-2,331.0,0.25,51,112.5
1748,G#4,331.0,0.25,42,112.5
1749,E5,331.0,0.25,42,112.5
1750,B2,331.25,0.25,43,112.5
1751,B-2,331.5,0.25,49,112.5
1752,E5,331.5,0.25,37,112.5
1753,E4,331.5,0.25,37,112.5
1754,B2,331.75,0.25,43,112.5
1755,B-2,332.0,0.25,52,112.5
1756,B2,332.25,0.25,43,112.5
1757,C#3,332.5,0.25,46,112.5
1758,D3,332.75,0.25,43,112.5
1759,E-3,333.0,0.25,51,112.5
1760,E3,333.25,0.25,44,112.5
1761,F#3,333.5,0.25,44,112.5
1762,G#3,333.75,0.25,45,112.5
1763,A4,334.0,0.25,53,112.5
1764,A3,334.0,0.25,42,112.5
1765,B4,334.25,0.25,49,112.5
1766,B3,334.25,0.25,38,112.5
1767,C#5,334.5,0.25,53,112.5
1768,C#4,334.5,0.25,42,112.5
1769,D5,334.75,0.25,49,112.5
1770,D4,334.75,0.25,39,112.5
1771,E-5,335.0,0.25,53,112.5
1772,E-4,335.0,0.25,42,112.5
1773,E5,335.25,0.25,52,112.5
1774,E4,335.25,0.25,38,112.5
1775,E-5,335.5,0.25,55,112.5
1776,E-4,335.5,0.25,40,112.5
1777,E5,335.75,0.25,57,112.5
1778,E4,335.75,0.25,42,112.5
1779,A4,336.0,1.5,52,112.5
1780,A3,336.0,1.5,41,112.5
1781,D5,336.0,1.0,57,112.5
1782,F#5,336.0,1.0,57,112.5
1783,F#4,336.0,1.0,45,112.5
1784,D4,336.0,1.0,45,112.5
1785,C#5,337.0,0.5,50,112.5
1786,E5,337.0,0.5,50,112.5
1787,E4,337.0,0.5,36,112.5
1788,C#4,337.0,0.5,36,112.5
1789,A5,338.0,333/1000,64,112.5
1790,C#4,338.0,333/1000,51,112.5
1791,G#5,338.333,333/1000,58,112.5
1792,E4,338.333,333/1000,45,112.5
1793,F#5,338.667,333/1000,58,112.5
1794,D4,338.667,333/1000,45,112.5
1795,E5,339.0,333/1000,64,112.5
1796,C#4,339.0,333/1000,54,112.5
1797,D5,339.333,333/1000,58,112.5
1798,E4,339.333,333/1000,43,112.5
1799,C#5,339.667,333/1000,58,112.5
1800,A4,339.667,333/1000,43,112.5
1801,E5,340.0,0.75,64,112.5
1802,B4,340.0,197/200,57,112.5
1803,D5,340.75,0.25,55,112.5
1804,B4,341.0,0.5,61,112.5
1805,E4,341.0,0.5,50,112.5
1806,E5,342.002,0.25,69,112.5
1807,D5,342.002,0.25,51,112.5
1808,F#5,342.252,0.25,58,112.5
1809,G#5,342.502,0.25,64,112.5
1810,B4,342.502,0.25,47,112.5
1811,A5,342.752,0.25,59,112.5
1812,B-5,343.002,0.25,70,112.5
1813,G#4,343.002,0.25,47,112.5
1814,B5,343.252,0.25,63,112.5
1815,B-5,343.502,0.25,66,112.5
1816,E4,343.502,0.25,47,112.5
1817,B5,343.752,31/125,68,112.5
1818,B5,344.0,1/500,68,112.5
1819,A5,344.002,0.25,69,112.5
1820,C#5,344.002,0.25,51,112.5
1821,B5,344.252,0.25,58,112.5
1822,C#6,344.502,0.25,64,112.5
1823,A4,344.502,0.25,47,112.5
1824,D6,344.752,0.25,59,112.5
1825,E-6,345.002,0.25,70,112.5
1826,E4,345.002,0.25,47,112.5
1827,E6,345.252,0.25,63,112.5
1828,E-6,345.502,0.25,66,112.5
1829,C#4,345.502,0.25,47,112.5
1830,E6,345.752,0.25,68,112.5
1831,F#6,346.002,0.25,75,112.5
1832,D4,346.002,0.25,51,112.5
1833,E6,346.252,0.25,59,112.5
1834,E4,346.252,0.25,39,112.5
1835,F#6,346.502,0.25,67,112.5
1836,D4,346.502,0.25,46,112.5
1837,E6,346.752,0.25,59,112.5
1838,E4,346.752,0.25,38,112.5
1839,B5,347.002,0.25,75,112.5
1840,G#4,347.002,0.25,51,112.5
1841,G#5,347.25,0.25,58,112.5
1842,B4,347.252,0.25,38,112.5
1843,B5,347.502,0.25,70,112.5
1844,G#4,347.502,0.25,45,112.5
1845,G#5,347.752,31/125,59,112.5
1846,B4,347.752,31/125,39,112.5
1847,G#5,348.0,1/500,59,112.5
1848,B4,348.0,1/500,39,112.5
1849,F#6,348.002,0.25,75,112.5
1850,C#4,348.002,0.25,51,112.5
1851,E6,348.252,0.25,60,112.5
1852,E4,348.252,0.25,42,112.5
1853,F#6,348.502,0.25,67,112.5
1854,C#4,348.502,0.25,46,112.5
1855,E6,348.752,0.25,61,112.5
1856,E4,348.752,0.25,42,112.5
1857,C#6,349.002,0.25,75,112.5
1858,A4,349.002,0.25,51,112.5
1859,A5,349.252,0.25,67,112.5
1860,C#5,349.252,0.25,41,112.5
1861,C#6,349.502,0.25,70,112.5
1862,A4,349.502,0.25,45,112.5
1863,A5,349.752,0.25,65,112.5
1864,C#5,349.752,0.25,41,112.5
1865,D6,350.002,0.25,77,112.5
1866,E4,350.002,0.25,69,112.5
1867,F#4,350.252,0.25,58,112.5
1868,B5,350.502,0.25,64,112.5
1869,G#4,350.502,0.25,64,112.5
1870,A4,350.752,0.25,59,112.5
1871,G#5,351.002,0.25,64,112.5
1872,B-4,351.002,0.25,69,112.5
1873,B4,351.252,0.25,56,112.5
1874,E5,351.502,0.25,64,112.5
1875,B-4,351.502,0.25,65,112.5
1876,B4,351.752,31/125,59,112.5
1877,B4,352.0,1/500,59,112.5
1878,C#6,352.002,0.25,78,112.5
1879,A4,352.002,0.25,69,112.5
1880,B4,352.252,0.25,58,112.5
1881,A5,352.502,0.25,67,112.5
1882,C#5,352.502,0.25,64,112.5
1883,D5,352.752,0.25,59,112.5
1884,E-5,353.0,0.25,70,112.5
1885,C#7,353.002,0.25,81,112.5
1886,E5,353.252,0.25,57,112.5
1887,E-5,353.5,0.25,62,112.5
1888,A6,353.502,0.25,75,112.5
1889,E5,353.752,0.25,49,112.5
1890,G#6,354.002,0.25,75,112.5
1891,D4,354.002,0.25,58,112.5
1892,F#6,354.252,0.25,57,112.5
1893,B4,354.252,0.25,37,112.5
1894,G#6,354.502,0.25,67,112.5
1895,D4,354.502,0.25,46,112.5
1896,F#6,354.752,0.25,59,112.5
1897,B4,354.752,0.25,38,112.5
1898,D6,355.002,0.25,75,112.5
1899,E4,355.002,0.25,51,112.5
1900,D5,355.25,0.25,38,112.5
1901,B5,355.252,0.25,61,112.5
1902,D6,355.502,0.25,70,112.5
1903,E4,355.502,0.25,45,112.5
1904,B5,355.75,123/500,59,112.5
1905,D5,355.75,0.25,41,112.5
1906,B5,356.002,0.25,71,112.5
1907,A4,356.002,0.25,51,112.5
1908,A5,356.252,0.25,61,112.5
1909,C#5,356.252,0.25,42,112.5
1910,B5,356.502,0.25,65,112.5
1911,A4,356.502,0.25,46,112.5
1912,A5,356.752,0.25,61,112.5
1913,C#5,356.752,0.25,42,112.5
1914,C#7,357.0,0.25,79,112.5
1915,A3,357.002,0.25,51,112.5
1916,A6,357.5,0.25,69,112.5
1917,C#4,357.5,0.25,45,112.5
1918,G#6,358.002,0.25,75,112.5
1919,D4,358.002,0.25,58,112.5
1920,F#6,358.252,0.25,59,112.5
1921,B4,358.252,0.25,40,112.5
1922,G#6,358.502,0.25,67,112.5
1923,D4,358.502,0.25,46,112.5
1924,F#6,358.752,0.25,59,112.5
1925,B4,358.752,0.25,38,112.5
1926,D6,359.002,0.25,75,112.5
1927,E4,359.002,0.25,51,112.5
1928,D5,359.25,0.25,41,112.5
1929,B5,359.252,0.25,67,112.5
1930,D6,359.502,0.25,70,112.5
1931,E4,359.502,0.25,45,112.5
1932,B5,359.75,6/25,65,112.5
1933,D5,359.75,0.25,41,112.5
1934,B5,360.002,0.25,60,112.5
1935,A4,360.002,0.25,43,112.5
1936,A5,360.252,0.25,48,112.5
1937,C#5,360.252,0.25,35,112.5
1938,B5,360.502,0.25,55,112.5
1939,A4,360.502,0.25,39,112.5
1940,A5,360.752,0.25,47,112.5
1941,C#5,360.752,0.25,35,112.5
1942,C#7,361.0,0.25,58,112.5
1943,E7,361.0,0.25,58,112.5
1944,C#4,361.0,0.25,37,112.5
1945,A3,361.0,0.25,37,112.5
1946,C#7,361.5,0.25,50,112.5
1947,A6,361.5,0.25,50,112.5
1948,E4,361.5,0.25,33,112.5
1949,C#4,361.5,0.25,33,112.5
1950,G#6,362.002,0.25,75,112.5
1951,D4,362.002,0.25,58,112.5
1952,F#6,362.252,0.25,60,112.5
1953,B4,362.252,0.25,38,112.5
1954,G#6,362.502,0.25,67,112.5
1955,D4,362.502,0.25,46,112.5
1956,F#6,362.752,0.25,60,112.5
1957,B4,362.752,0.25,38,112.5
1958,D6,363.002,0.25,75,112.5
1959,E4,363.002,0.25,51,112.5
1960,D5,363.25,0.25,41,112.5
1961,B5,363.252,0.25,67,112.5
1962,D6,363.502,0.25,70,112.5
1963,E4,363.502,0.25,45,112.5
1964,B5,363.75,6/25,65,112.5
1965,D5,363.75,0.25,41,112.5
1966,B5,364.002,0.25,63,112.5
1967,A4,364.002,0.25,45,112.5
1968,A5,364.252,0.25,54,112.5
1969,C#5,364.252,0.25,37,112.5
1970,B5,364.502,0.25,58,112.5
1971,A4,364.502,0.25,41,112.5
1972,A5,364.752,0.25,54,112.5
1973,C#5,364.752,0.25,37,112.5
1974,A6,365.002,0.25,71,112.5
1975,A3,365.002,0.25,45,112.5
1976,A5,365.502,0.25,69,112.5
1977,A4,365.502,31/125,45,112.5
1978,A3,366.0,0.25,75,112.5
1979,A5,366.0,0.25,80,112.5
1980,G5,366.0,0.25,80,112.5
1981,B3,366.25,0.25,58,112.5
1982,C#4,366.5,0.25,64,112.5
1983,A5,366.5,0.25,56,112.5
1984,E5,366.5,0.25,56,112.5
1985,D4,366.75,0.25,59,112.5
1986,E-4,367.0,0.25,70,112.5
1987,C#5,367.0,0.25,64,112.5
1988,A5,367.0,0.25,64,112.5
1989,E4,367.25,0.25,61,112.5
1990,E-4,367.5,0.25,68,112.5
1991,A5,367.5,0.25,60,112.5
1992,A4,367.5,0.25,60,112.5
1993,E4,367.75,0.25,59,112.5
1994,A2,368.0,0.25,75,112.5
1995,G4,368.0,0.25,80,112.5
1996,A4,368.0,0.25,80,112.5
1997,B2,368.25,0.25,58,112.5
1998,C#3,368.5,0.25,64,112.5
1999,E4,368.5,0.25,61,112.5
2000,A4,368.5,0.25,61,112.5
2001,D3,368.75,0.25,59,112.5
2002,E-3,369.0,0.25,70,112.5
2003,A4,369.0,0.25,70,112.5
2004,C#4,369.0,0.25,70,112.5
2005,E3,369.25,0.25,61,112.5
2006,E-3,369.5,0.25,68,112.5
2007,A3,369.5,0.25,60,112.5
2008,A4,369.5,0.25,60,112.5
2009,E3,369.75,0.25,59,112.5
2010,E-3,370.0,0.25,75,112.5
2011,E3,370.25,0.25,62,112.5
2012,F#3,370.5,0.25,66,112.5
2013,G#3,370.75,0.25,62,112.5
2014,A3,371.0,0.25,74,112.5
2015,B3,371.25,0.25,63,112.5
2016,C#4,371.5,0.25,64,112.5
2017,D4,371.75,0.25,65,112.5
2018,E-4,372.0,0.25,65,112.5
2019,E4,372.25,0.25,60,112.5
2020,F#4,372.5,0.25,64,112.5
2021,G#4,372.75,0.25,63,112.5
2022,A4,373.0,0.25,67,112.5
2023,B4,373.25,0.25,52,112.5
2024,C#5,373.5,0.25,52,112.5
2025,D5,373.75,0.25,52,112.5
2026,E-5,374.0,0.25,52,112.5
2027,E5,374.25,0.25,49,112.5
2028,E-5,374.5,0.25,49,112.5
2029,E5,374.75,0.25,49,112.5
2030,F#5,375.0,0.25,54,112.5
2031,G#5,375.25,0.25,52,112.5
2032,A5,375.5,0.25,49,112.5
2033,B5,375.75,0.25,47,112.5
2034,A5,376.0,0.25,53,112.5
2035,B5,376.25,0.25,43,112.5
2036,A5,376.5,0.25,48,112.5
2037,B5,376.75,0.25,45,112.5
2038,A5,377.002,0.25,53,112.5
2039,B5,377.25,0.25,43,112.5
2040,A5,377.5,0.25,48,112.5
2041,B5,377.75,0.25,43,112.5
2042,A5,378.0,0.25,64,112.5
2043,B5,378.25,0.25,41,112.5
2044,A5,378.5,0.25,48,112.5
2045,B5,378.75,0.25,41,112.5
2046,A5,379.0,0.25,49,112.5
2047,B5,379.25,0.25,43,112.5
2048,A5,379.5,0.25,48,112.5
2049,B5,379.75,0.25,43,112.5
2050,A5,380.0,0.25,48,112.5
2051,B5,380.25,0.25,50,112.5
2052,A5,380.5,0.25,53,112.5
2053,B5,380.75,0.25,56,112.5
2054,A5,381.002,0.25,63,112.5
2055,B5,381.25,0.25,63,112.5
2056,A5,381.5,0.25,67,112.5
2057,B5,381.75,0.25,70,112.5
2058,A5,382.0,0.25,75,112.5
2059,B5,382.25,0.25,72,112.5
2060,A5,382.5,0.25,67,112.5
2061,B5,382.75,0.25,63,112.5
2062,A5,383.0,0.25,58,112.5
2063,B5,383.25,0.25,54,112.5
2064,A5,383.5,0.25,50,112.5
2065,F#5,383.75,0.25,46,112.5
2066,D5,384.0,0.5,49,112.5
2067,D4,384.0,0.5,33,112.5
2068,F#4,384.0,0.5,33,112.5
2069,D5,385.0,1.0,44,112.5
2070,A3,385.0,0.5,28,112.5
2071,F#4,385.0,0.5,28,112.5
2072,C#5,386.0,0.25,51,112.5
2073,G4,386.0,0.5,33,112.5
2074,E4,386.0,0.5,33,112.5
2075,B4,386.25,0.25,41,112.5
2076,C#5,386.5,0.25,47,112.5
2077,D5,386.75,0.25,43,112.5
2078,C#5,387.0,0.25,49,112.5
2079,A3,387.0,0.5,28,112.5
2080,G4,387.0,0.5,28,112.5
2081,D5,387.25,0.25,42,112.5
2082,E5,387.5,0.25,45,112.5
2083,C#5,387.75,0.25,49,112.5
2084,A4,388.0,0.5,59,112.5
2085,D4,388.0,0.5,33,112.5
2086,F#4,388.0,0.5,33,112.5
2087,D5,389.0,0.5,55,112.5
2088,A3,389.0,0.5,28,112.5
2089,F#4,389.0,0.5,28,112.5
2090,E5,390.0,0.25,58,112.5
2091,C#4,390.0,0.5,33,112.5
2092,G4,390.0,0.5,33,112.5
2093,G5,390.25,0.25,47,112.5
2094,E5,390.5,0.25,56,112.5
2095,G5,390.75,269/1000,48,112.5
2096,B5,391.0,0.25,62,112.5
2097,G4,391.0,0.5,30,112.5
2098,A3,391.0,0.5,30,112.5
2099,A5,391.25,0.25,48,112.5
2100,B5,391.5,0.25,57,112.5
2101,A5,391.75,231/1000,50,112.5
2102,A5,392.0,0.5,56,112.5
2103,D4,392.0,0.5,33,112.5
2104,F#4,392.0,0.5,33,112.5
2105,A5,393.0,1.25,60,112.5
2106,A3,393.0,0.5,28,112.5
2107,F#4,393.0,0.5,28,112.5
2108,G4,394.0,0.5,32,112.5
2109,D4,394.0,0.5,32,112.5
2110,B3,394.0,0.5,32,112.5
2111,G5,394.25,0.25,56,112.5
2112,A5,394.5,0.25,58,112.5
2113,B5,394.75,0.25,60,112.5
2114,C#6,395.0,0.25,66,112.5
2115,G4,395.0,0.5,28,112.5
2116,D4,395.0,0.5,28,112.5
2117,G3,395.0,0.5,28,112.5
2118,D6,395.25,0.25,54,112.5
2119,C#6,395.5,0.25,62,112.5
2120,B5,395.75,0.25,54,112.5
2121,A5,396.0,1979/1000,60,112.5
2122,F#4,396.0,0.5,33,112.5
2123,D4,396.0,0.5,33,112.5
2124,A3,397.0,0.5,28,112.5
2125,F#4,397.0,0.5,28,112.5
2126,A5,398.0,0.25,53,112.5
2127,F#4,398.0,0.5,33,112.5
2128,D4,398.0,0.5,33,112.5
2129,B5,398.25,0.25,40,112.5
2130,A5,398.5,0.25,48,112.5
2131,B5,398.75,0.25,39,112.5
2132,A5,399.0,0.25,53,112.5
2133,F#4,399.0,0.5,30,112.5
2134,A3,399.0,0.5,30,112.5
2135,B5,399.25,0.25,37,112.5
2136,A5,399.5,0.25,47,112.5
2137,F#5,399.75,0.25,44,112.5
2138,D5,400.0,0.5,49,112.5
2139,F#4,400.0,0.5,33,112.5
2140,D4,400.0,0.5,33,112.5
2141,D5,401.0,1.0,44,112.5
2142,F#4,401.0,0.5,28,112.5
2143,A3,401.0,0.5,28,112.5
2144,C#5,402.0,0.25,51,112.5
2145,E4,402.0,0.5,33,112.5
2146,G4,402.0,0.5,33,112.5
2147,B4,402.25,0.25,45,112.5
2148,C#5,402.5,0.25,48,112.5
2149,D5,402.75,0.25,50,112.5
2150,C#5,403.0,0.25,55,112.5
2151,G4,403.0,0.5,30,112.5
2152,A3,403.0,0.5,30,112.5
2153,D5,403.25,0.25,54,112.5
2154,E5,403.5,0.25,60,112.5
2155,F5,403.75,229/1000,65,112.5
2156,F#5,404.0,2.0,72,112.5
2157,B-3,404.0,0.5,36,112.5
2158,F#4,404.0,0.5,36,112.5
2159,C#4,405.0,0.5,28,112.5
2160,B-3,405.0,0.5,28,112.5
2161,G5,406.0,0.25,56,112.5
2162,B3,406.0,0.5,33,112.5
2163,D4,406.0,0.5,33,112.5
2164,B5,406.25,0.25,42,112.5
2165,G5,406.5,0.25,45,112.5
2166,B5,406.75,0.25,42,112.5
2167,E6,407.0,0.25,65,112.5
2168,G4,407.0,0.5,29,112.5
2169,G3,407.0,0.5,29,112.5
2170,D4,407.0,0.5,29,112.5
2171,D6,407.25,0.25,52,112.5
2172,B5,407.5,0.25,55,112.5
2173,G5,407.75,0.25,49,112.5
2174,F#5,408.0,0.5,64,112.5
2175,F#4,408.0,0.5,33,112.5
2176,D4,408.0,0.5,33,112.5
2177,F#5,409.0,0.5,52,112.5
2178,A3,409.0,0.5,28,112.5
2179,F#4,409.0,0.5,28,112.5
2180,E5,410.0,0.25,54,112.5
2181,G4,410.0,0.5,33,112.5
2182,C#4,410.0,0.5,33,112.5
2183,G5,410.25,0.25,42,112.5
2184,E5,410.5,0.25,50,112.5
2185,G5,410.75,0.25,42,112.5
2186,B5,411.0,0.25,56,112.5
2187,G4,411.0,0.5,28,112.5
2188,A3,411.0,0.5,28,112.5
2189,A5,411.25,0.25,45,112.5
2190,G5,411.5,0.25,51,112.5
2191,C#5,411.75,0.25,45,112.5
2192,D5,412.0,2.0,58,112.5
2193,F#4,412.0,1979/1000,33,112.5
2194,D4,412.0,1979/1000,33,112.5
2195,D4,414.0,0.25,68,112.5
2196,D3,414.0,0.25,58,112.5
2197,F#4,414.25,0.25,58,112.5
2198,F#3,414.25,0.25,52,112.5
2199,D4,414.5,0.25,60,112.5
2200,D3,414.5,0.25,54,112.5
2201,F#4,414.75,0.25,58,112.5
2202,F#3,414.75,0.25,52,112.5
2203,B4,415.0,0.25,68,112.5
2204,B3,415.0,0.25,58,112.5
2205,A4,415.25,0.25,58,112.5
2206,A3,415.25,0.25,52,112.5
2207,F#4,415.5,0.25,62,112.5
2208,F#3,415.5,0.25,55,112.5
2209,D4,415.75,0.25,58,112.5
2210,D3,415.75,0.25,52,112.5
2211,E4,416.0,0.5,64,112.5
2212,A3,416.0,0.5,64,112.5
2213,C#3,416.0,0.5,54,112.5
2214,G3,416.0,0.5,54,112.5
2215,E4,417.0,979/1000,59,112.5
2216,A3,417.0,979/1000,59,112.5
2217,A2,417.0,0.5,46,112.5
2218,G3,417.0,0.5,46,112.5
2219,E4,418.0,0.25,68,112.5
2220,C#3,418.0,0.5,52,112.5
2221,G3,418.0,0.5,52,112.5
2222,G4,418.25,0.25,58,112.5
2223,E4,418.5,0.25,62,112.5
2224,G4,418.75,0.25,58,112.5
2225,C#5,419.0,0.25,68,112.5
2226,A2,419.0,0.5,52,112.5
2227,G3,419.0,0.5,52,112.5
2228,B4,419.25,0.25,58,112.5
2229,G4,419.5,0.25,62,112.5
2230,E4,419.75,0.25,58,112.5
2231,A3,420.0,2.0,55,112.5
2232,F#4,420.0,2.0,55,112.5
2233,D4,420.0,2.0,55,112.5
2234,D3,420.0,0.5,54,112.5
2235,F#3,420.0,0.5,54,112.5
2236,A2,421.0,0.5,40,112.5
2237,F#3,421.0,0.5,40,112.5
2238,D5,422.0,0.25,75,112.5
2239,F#3,422.0,0.5,52,112.5
2240,D3,422.0,0.5,52,112.5
2241,F#5,422.25,0.25,58,112.5
2242,D5,422.5,0.25,62,112.5
2243,F#5,422.75,0.25,58,112.5
2244,B5,423.0,0.25,68,112.5
2245,F#3,423.0,0.5,52,112.5
2246,A3,423.0,0.5,52,112.5
2247,A5,423.25,0.25,58,112.5
2248,F#5,423.5,0.25,62,112.5
2249,D5,423.75,0.25,58,112.5
2250,C#5,424.0,0.25,75,112.5
2251,C#4,424.0,0.5,52,112.5
2252,E3,424.0,0.5,52,112.5
2253,A4,424.25,0.25,58,112.5
2254,C#5,424.5,0.25,61,112.5
2255,A4,424.75,0.25,58,112.5
2256,F#5,425.0,0.25,68,112.5
2257,A3,425.0,0.5,46,112.5
2258,C#4,425.0,0.5,46,112.5
2259,E5,425.25,0.25,58,112.5
2260,C#5,425.5,0.25,62,112.5
2261,A4,425.75,0.25,58,112.5
2262,G#4,426.0,0.25,75,112.5
2263,B3,426.0,0.5,52,112.5
2264,D4,426.0,0.5,52,112.5
2265,E4,426.25,0.25,54,112.5
2266,G#4,426.5,0.25,62,112.5
2267,E4,426.75,0.25,52,112.5
2268,G#4,427.0,0.25,68,112.5
2269,D4,427.0,0.5,46,112.5
2270,E3,427.0,0.5,46,112.5
2271,E5,427.25,0.25,50,112.5
2272,D5,427.5,0.25,58,112.5
2273,B4,427.75,0.25,50,112.5
2274,A4,428.0,1.0,68,112.5
2275,C#4,428.0,2.0,60,112.5
2276,A3,428.0,2.0,60,112.5
2277,C#5,429.0,0.5,56,112.5
2278,E5,429.0,0.5,56,112.5
2279,A3,430.0,0.25,68,112.5
2280,A4,430.0,0.5,54,112.5
2281,C#5,430.0,0.5,54,112.5
2282,E5,430.0,0.5,54,112.5
2283,C#4,430.25,0.25,53,112.5
2284,A3,430.5,0.25,61,112.5
2285,C#4,430.75,0.25,53,112.5
2286,F#4,431.0,0.25,68,112.5
2287,C#5,431.0,0.5,56,112.5
2288,E5,431.0,0.5,56,112.5
2289,E4,431.25,0.25,58,112.5
2290,C#4,431.5,0.25,63,112.5
2291,A3,431.75,229/1000,58,112.5
2292,A3,432.0,1.0,72,112.5
2293,F#5,432.0,0.5,60,112.5
2294,D5,432.0,0.5,60,112.5
2295,G#3,433.0,0.5,64,112.5
2296,E5,433.0,0.5,50,112.5
2297,D5,433.0,0.5,50,112.5
2298,B4,433.0,0.5,50,112.5
2299,B3,434.0,0.25,68,112.5
2300,G#4,434.0,0.5,54,112.5
2301,E5,434.0,0.5,54,112.5
2302,B4,434.0,0.5,54,112.5
2303,D4,434.25,0.25,53,112.5
2304,B3,434.5,0.25,62,112.5
2305,D4,434.75,0.25,53,112.5
2306,F#4,435.0,0.25,68,112.5
2307,E5,435.0,0.5,54,112.5
2308,B4,435.0,0.5,54,112.5
2309,D5,435.0,0.5,54,112.5
2310,E4,435.25,0.25,58,112.5
2311,D4,435.5,0.25,61,112.5
2312,B3,435.75,0.25,58,112.5
2313,C#4,436.0,1.0,72,112.5
2314,A4,436.0,0.5,58,112.5
2315,C#5,436.0,0.5,58,112.5
2316,F#5,436.0,0.5,58,112.5
2317,A3,437.0,0.5,64,112.5
2318,C#5,437.0,0.5,50,112.5
2319,E5,437.0,0.5,50,112.5
2320,A4,437.0,0.5,50,112.5
2321,G3,438.0,0.25,66,112.5
2322,C#5,438.0,0.5,49,112.5
2323,A4,438.0,0.5,49,112.5
2324,A5,438.0,0.5,49,112.5
2325,E5,438.0,0.5,49,112.5
2326,C#4,438.25,0.25,54,112.5
2327,G3,438.5,0.25,58,112.5
2328,C#4,438.75,0.25,54,112.5
2329,F#4,439.0,0.25,61,112.5
2330,E5,439.0,0.5,54,112.5
2331,A5,439.0,0.5,54,112.5
2332,A4,439.0,0.5,54,112.5
2333,C#5,439.0,0.5,54,112.5
2334,E4,439.25,0.25,59,112.5
2335,C#4,439.5,0.25,62,112.5
2336,G3,439.75,0.25,60,112.5
2337,F#3,440.0,0.25,67,112.5
2338,A5,440.0,0.5,63,112.5
2339,D5,440.0,0.5,63,112.5
2340,A4,440.0,0.5,63,112.5
2341,A3,440.25,0.25,58,112.5
2342,F#3,440.5,0.25,62,112.5
2343,D4,440.75,0.25,58,112.5
2344,F3,441.0,0.25,65,112.5
2345,D5,441.0,0.5,54,112.5
2346,B4,441.0,0.5,54,112.5
2347,B5,441.0,0.5,54,112.5
2348,A3,441.25,0.25,52,112.5
2349,F3,441.5,0.25,56,112.5
2350,D4,441.75,0.25,52,112.5
2351,E3,442.0,0.25,63,112.5
2352,E5,442.0,0.5,68,112.5
2353,C#5,442.0,0.5,68,112.5
2354,C#4,442.25,0.25,52,112.5
2355,A3,442.5,0.25,57,112.5
2356,C#4,442.75,0.25,52,112.5
2357,E4,443.0,0.25,60,112.5
2358,G#4,443.0,0.5,49,112.5
2359,D5,443.0,0.5,49,112.5
2360,G#5,443.0,0.5,49,112.5
2361,E5,443.0,0.5,49,112.5
2362,D4,443.25,0.25,52,112.5
2363,B3,443.5,0.25,56,112.5
2364,C#4,443.75,0.25,52,112.5
2365,A4,444.0,249/250,51,112.5
2366,A3,444.0,249/250,62,112.5
2367,E5,444.0,2.0,54,112.5
2368,A5,444.0,2.0,54,112.5
2369,C#5,444.0,2.0,54,112.5
2370,A3,445.0,1.0,48,112.5
2371,A4,445.0,1.0,48,112.5
2372,C#4,445.0,1.0,48,112.5
2373,B3,446.0,1.0,44,112.5
2374,G#4,446.0,1.0,44,112.5
2375,D4,446.0,1.0,44,112.5
2376,E4,447.0,1.0,42,112.5
2377,G4,447.0,1.0,42,112.5
2378,C#4,447.0,1.0,42,112.5
2379,F#4,448.0,0.5,33,112.5
2380,D4,448.0,0.5,33,112.5
2381,F#4,449.0,0.5,28,112.5
2382,A3,449.0,0.5,28,112.5
2383,A5,450.0,0.25,56,112.5
2384,G4,450.0,0.5,33,112.5
2385,E4,450.0,0.5,33,112.5
2386,B5,450.25,0.25,53,112.5
2387,A5,450.5,0.25,55,112.5
2388,B5,450.75,0.25,53,112.5
2389,A5,451.0,0.25,53,112.5
2390,F#4,451.0,0.5,28,112.5
2391,A3,451.0,0.5,28,112.5
2392,B5,451.25,0.25,49,112.5
2393,A5,451.5,0.25,50,112.5
2394,F#5,451.75,0.25,45,112.5
2395,D5,452.0,0.5,49,112.5
2396,F#4,452.0,0.5,33,112.5
2397,D4,452.0,0.5,33,112.5
2398,D5,453.0,1.0,44,112.5
2399,F#4,453.0,0.5,28,112.5
2400,A3,453.0,0.5,28,112.5
2401,C#5,454.0,0.25,51,112.5
2402,G4,454.0,0.5,33,112.5
2403,E4,454.0,0.5,33,112.5
2404,B4,454.25,0.25,41,112.5
2405,C#5,454.5,0.25,45,112.5
2406,D5,454.75,0.25,43,112.5
2407,C#5,455.0,0.25,49,112.5
2408,A3,455.0,0.5,28,112.5
2409,G4,455.0,0.5,28,112.5
2410,D5,455.25,0.25,42,112.5
2411,E5,455.5,0.25,45,112.5
2412,C#5,455.75,0.25,49,112.5
2413,A4,456.0,0.5,59,112.5
2414,F#4,456.0,0.5,33,112.5
2415,D4,456.0,0.5,33,112.5
2416,D5,457.0,0.5,55,112.5
2417,F#4,457.0,0.5,28,112.5
2418,A3,457.0,0.5,28,112.5
2419,E5,458.0,0.25,53,112.5
2420,G4,458.0,0.5,33,112.5
2421,C#4,458.0,0.5,33,112.5
2422,G5,458.25,0.25,47,112.5
2423,E5,458.5,0.25,51,112.5
2424,G5,458.75,269/1000,48,112.5
2425,B5,459.0,0.25,59,112.5
2426,A3,459.0,0.5,30,112.5
2427,G4,459.0,0.5,30,112.5
2428,A5,459.25,0.25,48,112.5
2429,B5,459.5,0.25,51,112.5
2430,A5,459.75,231/1000,47,112.5
2431,A5,460.0,0.5,56,112.5
2432,F#4,460.0,0.5,33,112.5
2433,D4,460.0,0.5,33,112.5
2434,A5,461.0,1.25,60,112.5
2435,A3,461.0,0.5,28,112.5
2436,F#4,461.0,0.5,28,112.5
2437,B3,462.0,0.5,32,112.5
2438,G4,462.0,0.5,32,112.5
2439,D4,462.0,0.5,32,112.5
2440,G5,462.25,0.25,52,112.5
2441,A5,462.5,0.25,54,112.5
2442,B5,462.75,0.25,56,112.5
2443,C#6,463.0,0.25,61,112.5
2444,G3,463.0,0.5,28,112.5
2445,D4,463.0,0.5,28,112.5
2446,G4,463.0,0.5,28,112.5
2447,D6,463.25,0.25,54,112.5
2448,C#6,463.5,0.25,56,112.5
2449,B5,463.75,0.25,54,112.5
2450,A5,464.0,1979/1000,60,112.5
2451,F#4,464.0,0.5,33,112.5
2452,D4,464.0,0.5,33,112.5
2453,F#4,465.0,0.5,28,112.5
2454,A3,465.0,0.5,28,112.5
2455,A5,466.0,0.25,41,112.5
2456,D4,466.0,0.5,28,112.5
2457,F4,466.0,0.5,28,112.5
2458,B-5,466.25,0.25,32,112.5
2459,A5,466.5,0.25,37,112.5
2460,B-5,466.75,0.25,33,112.5
2461,A5,467.0,0.25,42,112.5
2462,F4,467.0,0.5,24,112.5
2463,A3,467.0,0.5,24,112.5
2464,B-5,467.25,0.25,34,112.5
2465,A5,467.5,0.25,39,112.5
2466,F5,467.75,0.25,34,112.5
2467,D5,468.0,0.5,41,112.5
2468,D4,468.0,0.5,28,112.5
2469,F4,468.0,0.5,28,112.5
2470,D5,469.0,1.0,37,112.5
2471,A3,469.0,0.5,24,112.5
2472,F4,469.0,0.5,24,112.5
2473,F5,470.0,0.25,43,112.5
2474,A4,470.0,124/125,37,112.5
2475,F4,470.0,0.5,27,112.5
2476,E-4,470.0,0.5,27,112.5
2477,C4,470.0,0.5,27,112.5
2478,E5,470.25,0.25,38,112.5
2479,F5,470.5,0.25,41,112.5
2480,E5,470.75,0.25,38,112.5
2481,A4,471.0,1.0,37,112.5
2482,G5,471.0,0.25,46,112.5
2483,E-4,471.0,0.5,24,112.5
2484,F4,471.0,0.5,24,112.5
2485,F3,471.0,0.5,24,112.5
2486,F5,471.25,0.25,45,112.5
2487,G5,471.5,0.25,51,112.5
2488,F5,471.76,229/1000,55,112.5
2489,F5,472.0,1.0,61,112.5
2490,B-4,472.0,1.5,37,112.5
2491,D4,472.0,0.5,28,112.5
2492,B-3,472.0,0.5,28,112.5
2493,F4,472.0,0.5,28,112.5
2494,B-5,473.0,0.5,57,112.5
2495,F4,473.0,0.5,22,112.5
2496,F3,473.0,0.5,22,112.5
2497,D4,473.0,0.5,22,112.5
2498,D6,474.0,0.25,56,112.5
2499,B-3,474.0,0.5,32,112.5
2500,D4,474.0,0.5,32,112.5
2501,F4,474.0,0.5,32,112.5
2502,E6,474.25,0.25,51,112.5
2503,D6,474.5,0.25,58,112.5
2504,C#6,474.75,0.25,56,112.5
2505,D6,475.0,0.25,65,112.5
2506,G#4,475.0,0.5,34,112.5
2507,D4,475.0,0.5,34,112.5
2508,B-3,475.0,0.5,34,112.5
2509,E6,475.25,0.25,56,112.5
2510,F6,475.5,0.25,55,112.5
2511,D6,475.74,0.25,49,112.5
2512,A5,476.0,0.5,64,112.5
2513,D4,476.0,0.5,32,112.5
2514,A4,476.0,0.5,32,112.5
2515,F#4,476.0,0.5,32,112.5
2516,A5,477.0,2.0,52,112.5
2517,A4,477.0,0.5,28,112.5
2518,F#4,477.0,0.5,28,112.5
2519,A3,477.0,0.5,28,112.5
2520,E5,478.0,0.25,54,112.5
2521,G4,478.0,0.5,32,112.5
2522,C#4,478.0,0.5,32,112.5
2523,A4,478.0,0.5,32,112.5
2524,G5,478.25,0.25,42,112.5
2525,E5,478.5,0.25,48,112.5
2526,G5,478.75,0.25,45,112.5
2527,B5,479.0,0.25,56,112.5
2528,A3,479.0,0.5,28,112.5
2529,G4,479.0,0.5,28,112.5
2530,A4,479.0,0.5,28,112.5
2531,A5,479.25,0.25,45,112.5
2532,G5,479.5,0.25,51,112.5
2533,E5,479.75,0.25,45,112.5
2534,A5,480.0,2.0,58,112.5
2535,A4,480.0,0.5,33,112.5
2536,F#4,480.0,0.5,33,112.5
2537,D4,481.0,0.5,28,112.5
2538,F#4,481.0,0.5,28,112.5
2539,A4,481.0,0.5,28,112.5
2540,G5,482.0,0.25,60,112.5
2541,D4,482.0,0.5,32,112.5
2542,G4,482.0,0.5,32,112.5
2543,B3,482.0,0.5,32,112.5
2544,B5,482.25,0.25,51,112.5
2545,G5,482.5,0.25,55,112.5
2546,B5,482.75,0.25,58,112.5
2547,E6,483.0,0.25,61,112.5
2548,G3,483.0,0.5,28,112.5
2549,G4,483.0,0.5,28,112.5
2550,D4,483.0,0.5,28,112.5
2551,D6,483.25,0.25,56,112.5
2552,B5,483.5,0.25,53,112.5
2553,G5,483.75,0.25,50,112.5
2554,F#5,484.0,0.25,54,112.5
2555,D4,484.0,0.5,38,112.5
2556,F#4,484.0,0.5,38,112.5
2557,A5,484.25,0.25,60,112.5
2558,A5,485.0,1.0,61,112.5
2559,A3,485.0,0.5,31,112.5
2560,F#4,485.0,0.5,31,112.5
2561,E5,486.0,0.25,53,112.5
2562,G4,486.0,0.5,37,112.5
2563,C#4,486.0,0.5,37,112.5
2564,G5,486.25,0.25,45,112.5
2565,E5,486.5,0.25,49,112.5
2566,G5,486.75,0.25,46,112.5
2567,B5,487.0,0.25,59,112.5
2568,A3,487.0,0.5,33,112.5
2569,G4,487.0,0.5,33,112.5
2570,A5,487.25,0.25,57,112.5
2571,G5,487.5,0.25,55,112.5
2572,E5,487.75,0.25,53,112.5
2573,D5,488.0,2.0,57,112.5
2574,F#4,488.0,2.0,40,112.5
2575,D4,488.0,2.0,40,112.5
2576,G4,490.0,9/20,45,112.5
2577,D5,490.0,9/20,45,112.5
2578,B4,490.0,9/20,45,112.5
2579,B4,490.5,9/20,40,112.5
2580,E5,490.5,9/20,40,112.5
2581,G4,490.5,9/20,40,112.5
2582,B4,491.0,9/20,40,112.5
2583,G4,491.0,9/20,40,112.5
2584,F#5,491.0,9/20,40,112.5
2585,B4,491.5,9/20,40,112.5
2586,G4,491.5,9/20,40,112.5
2587,G5,491.5,9/20,40,112.5
2588,G2,492.0,0.125,45,112.5
2589,G4,492.0,9/20,50,112.5
2590,G5,492.0,9/20,50,112.5
2591,B4,492.0,9/20,50,112.5
2592,G3,492.25,0.25,35,112.5
2593,B3,492.5,0.25,38,112.5
2594,B4,492.5,9/20,38,112.5
2595,G4,492.5,9/20,38,112.5
2596,G3,492.75,0.25,37,112.5
2597,D4,493.0,0.25,42,112.5
2598,B4,493.0,9/20,40,112.5
2599,G4,493.0,9/20,40,112.5
2600,G3,493.25,0.25,32,112.5
2601,B3,493.5,0.25,36,112.5
2602,B4,493.5,9/20,38,112.5
2603,G4,493.5,9/20,38,112.5
2604,G3,493.75,0.25,36,112.5
2605,G2,494.0,0.125,49,112.5
2606,G4,494.0,9/20,47,112.5
2607,G5,494.0,9/20,47,112.5
2608,B-4,494.0,9/20,47,112.5
2609,G3,494.25,0.25,33,112.5
2610,B-3,494.5,0.25,36,112.5
2611,C#5,494.5,9/20,38,112.5
2612,B-4,494.5,9/20,38,112.5
2613,G4,494.5,9/20,38,112.5
2614,G3,494.75,0.25,33,112.5
2615,E4,495.0,0.25,42,112.5
2616,G4,495.0,9/20,40,112.5
2617,B-4,495.0,9/20,40,112.5
2618,C#5,495.0,9/20,40,112.5
2619,G3,495.25,0.25,35,112.5
2620,B-3,495.5,0.25,37,112.5
2621,G4,495.5,9/20,38,112.5
2622,C#5,495.5,9/20,38,112.5
2623,B-4,495.5,9/20,38,112.5
2624,G3,495.75,0.25,35,112.5
2625,G2,496.0,0.125,45,112.5
2626,G4,496.0,2.0,51,112.5
2627,B4,496.0,2.0,51,112.5
2628,D5,496.0,2.0,51,112.5
2629,G3,496.25,0.25,36,112.5
2630,B3,496.5,0.25,38,112.5
2631,G3,496.75,0.25,36,112.5
2632,D4,497.0,0.25,42,112.5
2633,G3,497.25,0.25,36,112.5
2634,B3,497.5,0.25,36,112.5
2635,G3,497.75,0.25,33,112.5
2636,E4,498.0,9/20,35,112.5
2637,G4,498.0,9/20,45,112.5
2638,B4,498.0,9/20,45,112.5
2639,E5,498.0,9/20,45,112.5
2640,D4,498.5,9/20,32,112.5
2641,D5,498.5,9/20,40,112.5
2642,B4,498.5,9/20,40,112.5
2643,G4,498.5,9/20,40,112.5
2644,B3,499.0,9/20,32,112.5
2645,G4,499.0,9/20,42,112.5
2646,B4,499.0,9/20,42,112.5
2647,G4,499.5,9/20,45,112.5
2648,G3,499.5,9/20,38,112.5
2649,D2,500.0,0.125,45,112.5
2650,D4,500.0,9/20,50,112.5
2651,B4,500.0,9/20,50,112.5
2652,G4,500.0,9/20,50,112.5
2653,D3,500.25,0.25,37,112.5
2654,F#3,500.5,0.25,38,112.5
2655,F#4,500.5,9/20,37,112.5
2656,A4,500.5,9/20,37,112.5
2657,D4,500.5,9/20,37,112.5
2658,D3,500.75,0.25,36,112.5
2659,A3,501.0,0.25,42,112.5
2660,A4,501.0,9/20,39,112.5
2661,F#4,501.0,9/20,39,112.5
2662,D4,501.0,9/20,39,112.5
2663,D3,501.25,0.25,34,112.5
2664,F#3,501.5,0.25,36,112.5
2665,D4,501.5,9/20,37,112.5
2666,F#4,501.5,9/20,37,112.5
2667,A4,501.5,9/20,37,112.5
2668,D3,501.75,0.25,34,112.5
2669,A2,502.0,0.125,49,112.5
2670,G4,502.0,9/20,47,112.5
2671,B-4,502.0,9/20,47,112.5
2672,E5,502.0,9/20,47,112.5
2673,E3,502.25,0.25,33,112.5
2674,G3,502.5,0.25,36,112.5
2675,G4,502.5,9/20,38,112.5
2676,C#5,502.5,9/20,38,112.5
2677,B-4,502.5,9/20,38,112.5
2678,E3,502.75,0.25,33,112.5
2679,A3,503.0,0.25,42,112.5
2680,G4,503.0,9/20,40,112.5
2681,B-4,503.0,9/20,40,112.5
2682,C#5,503.0,9/20,40,112.5
2683,E3,503.25,0.25,34,112.5
2684,G3,503.5,0.25,37,112.5
2685,C#5,503.5,9/20,38,112.5
2686,B-4,503.5,9/20,38,112.5
2687,G4,503.5,9/20,38,112.5
2688,E3,503.75,0.25,35,112.5
2689,D2,504.0,0.125,45,112.5
2690,D5,504.0,2.0,51,112.5
2691,F#4,504.0,2.0,51,112.5
2692,A4,504.0,2.0,51,112.5
2693,D3,504.25,0.25,37,112.5
2694,F#3,504.5,0.25,38,112.5
2695,D3,504.75,0.25,37,112.5
2696,A3,505.0,0.25,42,112.5
2697,D3,505.25,0.25,35,112.5
2698,C#4,505.5,0.25,36,112.5
2699,D3,505.75,0.25,33,112.5
2700,D4,506.0,9/20,35,112.5
2701,F4,506.0,9/20,45,112.5
2702,D5,506.0,9/20,45,112.5
2703,A4,506.0,9/20,45,112.5
2704,D4,506.5,9/20,33,112.5
2705,A4,506.5,9/20,42,112.5
2706,F4,506.5,9/20,42,112.5
2707,D5,506.5,9/20,42,112.5
2708,E4,507.0,9/20,35,112.5
2709,E5,507.0,9/20,44,112.5
2710,A4,507.0,9/20,44,112.5
2711,F4,507.0,9/20,44,112.5
2712,F4,507.5,9/20,36,112.5
2713,F5,507.5,9/20,47,112.5
2714,A4,507.5,9/20,47,112.5
2715,E2,508.0,0.125,45,112.5
2716,F5,508.0,9/20,50,112.5
2717,G#4,508.0,9/20,50,112.5
2718,E4,508.0,9/20,50,112.5
2719,E3,508.25,0.25,35,112.5
2720,G#3,508.5,0.25,38,112.5
2721,G#4,508.5,9/20,39,112.5
2722,B4,508.5,9/20,39,112.5
2723,E4,508.5,9/20,39,112.5
2724,E3,508.75,0.25,38,112.5
2725,D4,509.0,0.25,42,112.5
2726,G#4,509.0,9/20,39,112.5
2727,E4,509.0,9/20,39,112.5
2728,B4,509.0,9/20,39,112.5
2729,E3,509.25,0.25,34,112.5
2730,G#3,509.5,0.25,36,112.5
2731,G#4,509.5,9/20,39,112.5
2732,B4,509.5,9/20,39,112.5
2733,E4,509.5,9/20,39,112.5
2734,E3,509.75,0.25,36,112.5
2735,A2,510.0,0.125,49,112.5
2736,E4,510.0,9/20,47,112.5
2737,A4,510.0,9/20,47,112.5
2738,C5,510.0,9/20,47,112.5
2739,E3,510.25,0.25,37,112.5
2740,A3,510.5,0.25,36,112.5
2741,C5,510.5,9/20,40,112.5
2742,A4,510.5,9/20,40,112.5
2743,E4,510.5,9/20,40,112.5
2744,E3,510.75,0.25,36,112.5
2745,C4,511.0,0.25,46,112.5
2746,E4,511.0,9/20,41,112.5
2747,D5,511.0,9/20,41,112.5
2748,A4,511.0,9/20,41,112.5
2749,E3,511.25,0.25,39,112.5
2750,B3,511.5,0.25,40,112.5
2751,E4,511.5,9/20,43,112.5
2752,G4,511.5,9/20,43,112.5
2753,E5,511.5,9/20,43,112.5
2754,E3,511.75,0.25,42,112.5
2755,D2,512.0,0.125,45,112.5
2756,F#4,512.0,9/20,50,112.5
2757,E5,512.0,9/20,50,112.5
2758,D4,512.0,9/20,50,112.5
2759,D3,512.25,0.25,35,112.5
2760,F#3,512.5,0.25,38,112.5
2761,F#4,512.5,9/20,35,112.5
2762,D4,512.5,9/20,35,112.5
2763,A4,512.5,9/20,35,112.5
2764,D3,512.75,0.25,36,112.5
2765,C4,513.0,0.25,42,112.5
2766,D4,513.0,9/20,39,112.5
2767,F#4,513.0,9/20,39,112.5
2768,A4,513.0,9/20,39,112.5
2769,D3,513.25,0.25,33,112.5
2770,F#3,513.5,0.25,36,112.5
2771,F#4,513.5,9/20,35,112.5
2772,A4,513.5,9/20,35,112.5
2773,D4,513.5,9/20,35,112.5
2774,D3,513.75,0.25,34,112.5
2775,G3,514.0,0.25,42,112.5
2776,D4,514.0,9/20,47,112.5
2777,B4,514.0,9/20,47,112.5
2778,G4,514.0,9/20,47,112.5
2779,D3,514.25,0.25,40,112.5
2780,C4,514.5,0.25,47,112.5
2781,E5,514.5,9/20,48,112.5
2782,G4,514.5,9/20,48,112.5
2783,D4,514.5,9/20,48,112.5
2784,D3,514.75,0.25,42,112.5
2785,B3,515.0,0.25,47,112.5
2786,D4,515.0,9/20,46,112.5
2787,G4,515.0,9/20,46,112.5
2788,D5,515.0,9/20,46,112.5
2789,D3,515.25,0.25,40,112.5
2790,G3,515.5,0.25,39,112.5
2791,D4,515.5,9/20,43,112.5
2792,B4,515.5,9/20,43,112.5
2793,G4,515.5,9/20,43,112.5
2794,D3,515.75,0.25,38,112.5
2795,D2,516.0,0.125,45,112.5
2796,F#4,516.0,9/20,50,112.5
2797,D4,516.0,9/20,50,112.5
2798,D5,516.0,9/20,50,112.5
2799,D3,516.25,0.25,37,112.5
2800,F#3,516.5,0.25,38,112.5
2801,D4,516.5,9/20,35,112.5
2802,F#4,516.5,9/20,35,112.5
2803,A4,516.5,9/20,35,112.5
2804,D3,516.75,0.25,35,112.5
2805,C4,517.0,0.25,42,112.5
2806,F#4,517.0,9/20,35,112.5
2807,A4,517.0,9/20,35,112.5
2808,D4,517.0,9/20,35,112.5
2809,D3,517.25,0.25,34,112.5
2810,F#3,517.5,0.25,36,112.5
2811,D4,517.5,9/20,35,112.5
2812,F#4,517.5,9/20,35,112.5
2813,A4,517.5,9/20,35,112.5
2814,D3,517.75,0.25,34,112.5
2815,G3,518.0,0.25,42,112.5
2816,B4,518.0,9/20,47,112.5
2817,G4,518.0,9/20,47,112.5
2818,D4,518.0,9/20,47,112.5
2819,D3,518.25,0.25,44,112.5
2820,C4,518.5,0.25,43,112.5
2821,E5,518.5,9/20,48,112.5
2822,G4,518.5,9/20,48,112.5
2823,D4,518.5,9/20,48,112.5
2824,D3,518.75,0.25,42,112.5
2825,B3,519.0,0.25,47,112.5
2826,D5,519.0,9/20,46,112.5
2827,D4,519.0,9/20,46,112.5
2828,G4,519.0,9/20,46,112.5
2829,D3,519.25,0.25,40,112.5
2830,G3,519.5,0.25,39,112.5
2831,D4,519.5,9/20,43,112.5
2832,G4,519.5,9/20,43,112.5
2833,B4,519.5,9/20,43,112.5
2834,D3,519.75,0.25,38,112.5
2835,D2,520.0,0.125,45,112.5
2836,F#4,520.0,9/20,42,112.5
2837,D4,520.0,9/20,42,112.5
2838,D5,520.0,9/20,42,112.5
2839,D3,520.25,0.25,38,112.5
2840,F#3,520.5,0.25,38,112.5
2841,D4,520.5,9/20,36,112.5
2842,F#4,520.5,9/20,36,112.5
2843,A4,520.5,9/20,36,112.5
2844,D3,520.75,0.25,38,112.5
2845,D4,521.0,0.25,42,112.5
2846,A4,521.0,0.5,32,112.5
2847,D5,521.0,0.5,32,112.5
2848,F#4,521.0,0.5,32,112.5
2849,D3,521.25,0.25,29,112.5
2850,C4,521.5,0.25,36,112.5
2851,B-4,521.5,0.5,30,112.5
2852,D5,521.5,0.5,30,112.5
2853,F#4,521.5,0.5,30,112.5
2854,D3,521.75,0.25,28,112.5
2855,B4,522.0,9/20,40,112.5
2856,D5,522.0,9/20,40,112.5
2857,G4,522.0,9/20,40,112.5
2858,G3,522.0,0.5,33,112.5
2859,B3,522.0,0.5,33,112.5
2860,E5,522.5,9/20,40,112.5
2861,B4,522.5,9/20,40,112.5
2862,G4,522.5,9/20,40,112.5
2863,B4,523.0,9/20,40,112.5
2864,G4,523.0,9/20,40,112.5
2865,F#5,523.0,9/20,40,112.5
2866,G4,523.5,9/20,40,112.5
2867,G5,523.5,9/20,40,112.5
2868,B4,523.5,9/20,40,112.5
2869,G2,524.0,0.125,45,112.5
2870,B4,524.0,9/20,50,112.5
2871,G5,524.0,9/20,50,112.5
2872,G4,524.0,9/20,50,112.5
2873,G3,524.25,0.25,35,112.5
2874,B3,524.5,0.25,38,112.5
2875,G4,524.5,9/20,36,112.5
2876,B4,524.5,9/20,36,112.5
2877,G3,524.75,0.25,36,112.5
2878,D4,525.0,0.25,42,112.5
2879,B4,525.0,9/20,40,112.5
2880,G4,525.0,9/20,40,112.5
2881,G3,525.25,0.25,34,112.5
2882,B3,525.5,0.25,36,112.5
2883,G4,525.5,9/20,36,112.5
2884,B4,525.5,9/20,36,112.5
2885,G3,525.75,0.25,34,112.5
2886,G2,526.0,0.125,49,112.5
2887,B-4,526.0,9/20,47,112.5
2888,G4,526.0,9/20,47,112.5
2889,G5,526.0,9/20,47,112.5
2890,G3,526.25,0.25,37,112.5
2891,B-3,526.5,0.25,40,112.5
2892,G4,526.5,9/20,36,112.5
2893,C#5,526.5,9/20,36,112.5
2894,B-4,526.5,9/20,36,112.5
2895,G3,526.75,0.25,36,112.5
2896,E4,527.0,0.25,42,112.5
2897,C#5,527.0,9/20,40,112.5
2898,G4,527.0,9/20,40,112.5
2899,B-4,527.0,9/20,40,112.5
2900,G3,527.25,0.25,35,112.5
2901,B-3,527.5,0.25,37,112.5
2902,G4,527.5,9/20,40,112.5
2903,B-4,527.5,9/20,40,112.5
2904,C#5,527.5,9/20,40,112.5
2905,G3,527.75,0.25,35,112.5
2906,G2,528.0,0.125,45,112.5
2907,B4,528.0,2.0,51,112.5
2908,D5,528.0,2.0,51,112.5
2909,G4,528.0,2.0,51,112.5
2910,G3,528.25,0.25,36,112.5
2911,B3,528.5,0.25,38,112.5
2912,G3,528.75,0.25,37,112.5
2913,D4,529.0,0.25,45,112.5
2914,G3,529.25,0.25,43,112.5
2915,B3,529.5,0.25,46,112.5
2916,D4,529.75,0.25,48,112.5
2917,F4,530.0,9/20,50,112.5
2918,G4,530.0,9/20,54,112.5
2919,F5,530.0,9/20,54,112.5
2920,B4,530.0,9/20,54,112.5
2921,E4,530.5,9/20,42,112.5
2922,B4,530.5,9/20,47,112.5
2923,E5,530.5,9/20,47,112.5
2924,G4,530.5,9/20,47,112.5
2925,F4,531.0,9/20,42,112.5
2926,G4,531.0,9/20,51,112.5
2927,B4,531.0,9/20,51,112.5
2928,F5,531.0,9/20,51,112.5
2929,G4,531.5,9/20,47,112.5
2930,G5,531.5,0.5,48,112.5
2931,B4,531.5,0.5,48,112.5
2932,C3,532.0,0.125,51,112.5
2933,G4,532.0,9/20,56,112.5
2934,F5,532.0,9/20,56,112.5
2935,C5,532.0,9/20,56,112.5
2936,G3,532.25,0.25,40,112.5
2937,C4,532.5,0.25,43,112.5
2938,C5,532.5,9/20,46,112.5
2939,G4,532.5,9/20,46,112.5
2940,E5,532.5,9/20,46,112.5
2941,G3,532.75,0.25,40,112.5
2942,E4,533.0,0.25,48,112.5
2943,G4,533.0,9/20,50,112.5
2944,D5,533.0,9/20,50,112.5
2945,G3,533.25,0.25,38,112.5
2946,C4,533.5,0.25,41,112.5
2947,C5,533.5,0.5,45,112.5
2948,E4,533.5,0.5,45,112.5
2949,G4,533.5,0.5,45,112.5
2950,G3,533.75,0.25,40,112.5
2951,D2,534.0,0.125,56,112.5
2952,D4,534.0,9/20,53,112.5
2953,G4,534.0,9/20,53,112.5
2954,C5,534.0,9/20,53,112.5
2955,D3,534.25,0.25,39,112.5
2956,G3,534.5,0.25,41,112.5
2957,G4,534.5,9/20,48,112.5
2958,B4,534.5,9/20,48,112.5
2959,D4,534.5,9/20,48,112.5
2960,D3,534.75,0.25,39,112.5
2961,B3,535.0,0.25,48,112.5
2962,D4,535.0,9/20,50,112.5
2963,F#4,535.0,9/20,50,112.5
2964,D5,535.0,9/20,50,112.5
2965,D3,535.25,0.25,40,112.5
2966,A3,535.5,0.25,42,112.5
2967,F#4,535.5,9/20,48,112.5
2968,D4,535.5,9/20,48,112.5
2969,C5,535.5,9/20,48,112.5
2970,D3,535.75,0.25,38,112.5
2971,D2,536.0,0.125,51,112.5
2972,D4,536.0,1.0,54,112.5
2973,B4,536.0,1.0,54,112.5
2974,G4,536.0,1.0,54,112.5
2975,D3,536.25,0.25,40,112.5
2976,G3,536.5,0.25,40,112.5
2977,D3,536.75,0.25,38,112.5
2978,G3,537.0,0.25,51,112.5
2979,G4,537.0,0.5,54,112.5
2980,B4,537.0,0.5,54,112.5
2981,D5,537.0,0.5,54,112.5
2982,B3,537.25,0.25,41,112.5
2983,D4,537.5,0.25,44,112.5
2984,E5,537.5,0.5,55,112.5
2985,B4,537.5,0.5,55,112.5
2986,G4,537.5,0.5,55,112.5
2987,E4,537.75,0.25,41,112.5
2988,F4,538.0,9/20,51,112.5
2989,G4,538.0,9/20,59,112.5
2990,B4,538.0,9/20,59,112.5
2991,F5,538.0,9/20,59,112.5
2992,E4,538.5,9/20,40,112.5
2993,G4,538.5,9/20,55,112.5
2994,B4,538.5,9/20,55,112.5
2995,E5,538.5,9/20,55,112.5
2996,F5,539.0,0.25,69,112.5
2997,F4,539.0,0.25,42,112.5
2998,B4,539.0,9/20,58,112.5
2999,G4,539.0,9/20,58,112.5
3000,A5,539.25,0.25,65,112.5
3001,A4,539.25,0.25,39,112.5
3002,G4,539.5,9/20,47,112.5
3003,B4,539.5,9/20,61,112.5
3004,G5,539.5,9/20,61,112.5
3005,C3,540.0,0.125,53,112.5
3006,F5,540.0,9/20,59,112.5
3007,C5,540.0,9/20,59,112.5
3008,G4,540.0,9/20,59,112.5
3009,G3,540.25,0.25,40,112.5
3010,C4,540.5,0.25,42,112.5
3011,G4,540.5,9/20,46,112.5
3012,C5,540.5,9/20,46,112.5
3013,E5,540.5,9/20,46,112.5
3014,G3,540.75,0.25,39,112.5
3015,B3,541.0,0.25,50,112.5
3016,D5,541.0,9/20,45,112.5
3017,G4,541.0,9/20,45,112.5
3018,F4,541.0,9/20,45,112.5
3019,G3,541.25,0.25,36,112.5
3020,C4,541.5,0.25,39,112.5
3021,C5,541.5,9/20,47,112.5
3022,G4,541.5,9/20,47,112.5
3023,E4,541.5,9/20,47,112.5
3024,G3,541.75,0.25,36,112.5
3025,D2,542.0,0.125,49,112.5
3026,D4,542.0,9/20,56,112.5
3027,C5,542.0,9/20,56,112.5
3028,G4,542.0,9/20,56,112.5
3029,D3,542.25,0.25,35,112.5
3030,G3,542.5,0.25,36,112.5
3031,G4,542.5,9/20,48,112.5
3032,D4,542.5,9/20,48,112.5
3033,B4,542.5,9/20,48,112.5
3034,D3,542.75,0.25,35,112.5
3035,A3,543.0,0.25,42,112.5
3036,D4,543.0,9/20,50,112.5
3037,C5,543.0,9/20,50,112.5
3038,F#4,543.0,9/20,50,112.5
3039,D3,543.25,0.25,36,112.5
3040,C4,543.5,0.25,37,112.5
3041,F#4,543.5,9/20,48,112.5
3042,B4,543.5,9/20,48,112.5
3043,D4,543.5,9/20,48,112.5
3044,D3,543.75,0.25,34,112.5
3045,G2,544.0,0.125,45,112.5
3046,D4,544.0,2.0,45,112.5
3047,B3,544.0,2.0,45,112.5
3048,G4,544.0,2.0,45,112.5
3049,D3,544.25,0.25,36,112.5
3050,G3,544.5,0.25,38,112.5
3051,D3,544.75,0.25,37,112.5
3052,G3,545.0,0.25,42,112.5
3053,D3,545.25,0.25,36,112.5
3054,G2,545.5,0.25,39,112.5
3055,A2,545.75,0.25,36,112.5
3056,B-3,546.0,0.25,71,112.5
3057,B-2,546.0,0.25,56,112.5
3058,A3,546.25,0.25,60,112.5
3059,A2,546.25,0.25,48,112.5
3060,G3,546.5,0.25,61,112.5
3061,G2,546.5,0.25,48,112.5
3062,A3,546.75,0.25,61,112.5
3063,A2,546.75,0.25,48,112.5
3064,B-3,547.0,0.25,71,112.5
3065,B-2,547.0,0.25,56,112.5
3066,G3,547.25,0.25,62,112.5
3067,G2,547.25,0.25,49,112.5
3068,B-3,547.5,0.25,62,112.5
3069,B-2,547.5,0.25,49,112.5
3070,G3,547.75,229/1000,62,112.5
3071,G2,547.75,0.25,49,112.5
3072,G4,548.0,479/1000,82,112.5
3073,G3,548.0,479/1000,65,112.5
3074,G3,548.5,0.25,68,112.5
3075,G2,548.5,0.25,51,112.5
3076,G3,549.0,0.25,68,112.5
3077,G2,549.0,0.25,52,112.5
3078,G3,549.5,0.25,68,112.5
3079,G2,549.5,0.25,52,112.5
3080,E-2,550.0,0.25,62,112.5
3081,C4,550.0,0.5,68,112.5
3082,G4,550.0,0.5,68,112.5
3083,E-4,550.0,0.5,68,112.5
3084,D2,550.25,0.25,49,112.5
3085,G3,550.5,0.25,62,112.5
3086,C2,550.5,0.25,49,112.5
3087,D2,550.75,0.25,49,112.5
3088,G3,551.0,0.25,62,112.5
3089,E-2,551.0,0.25,63,112.5
3090,C2,551.25,0.25,52,112.5
3091,G3,551.5,0.25,62,112.5
3092,E-2,551.5,0.25,52,112.5
3093,C2,551.75,0.25,50,112.5
3094,G2,552.0,0.5,65,112.5
3095,G4,552.0,0.5,68,112.5
3096,B-3,552.0,0.5,68,112.5
3097,D4,552.0,0.5,68,112.5
3098,G3,552.5,0.25,61,112.5
3099,G1,552.5,0.25,48,112.5
3100,G3,553.0,0.25,61,112.5
3101,G1,553.0,0.25,48,112.5
3102,G3,553.5,0.25,61,112.5
3103,G1,553.5,0.25,48,112.5
3104,D4,554.0,0.25,64,112.5
3105,D5,554.0,0.25,64,112.5
3106,G#4,554.0,0.25,64,112.5
3107,F3,554.0,0.25,56,112.5
3108,F2,554.0,0.25,56,112.5
3109,C#5,554.25,0.25,69,112.5
3110,B4,554.5,0.25,62,112.5
3111,D4,554.5,0.25,62,112.5
3112,G#4,554.5,0.25,62,112.5
3113,G#3,554.5,0.25,53,112.5
3114,G#2,554.5,0.25,53,112.5
3115,C#5,554.75,0.25,73,112.5
3116,G#4,555.0,0.25,68,112.5
3117,F4,555.0,0.25,68,112.5
3118,D5,555.0,0.25,68,112.5
3119,B2,555.0,0.25,59,112.5
3120,B3,555.0,0.25,59,112.5
3121,B4,555.25,0.25,77,112.5
3122,D5,555.5,0.25,67,112.5
3123,G#4,555.5,0.25,67,112.5
3124,F4,555.5,0.25,67,112.5
3125,D3,555.5,0.25,58,112.5
3126,D4,555.5,0.25,58,112.5
3127,B4,555.75,0.25,80,112.5
3128,F#5,556.0,0.5,84,112.5
3129,F#4,556.0,0.5,84,112.5
3130,B4,556.0,0.5,84,112.5
3131,D5,556.0,0.5,84,112.5
3132,F#2,556.0,0.5,67,112.5
3133,D3,556.0,0.5,67,112.5
3134,B2,556.0,0.5,67,112.5
3135,F#3,556.0,0.5,67,112.5
3136,F#4,556.5,0.25,65,112.5
3137,D4,556.5,0.25,65,112.5
3138,F#3,556.5,0.25,52,112.5
3139,B3,556.5,0.25,52,112.5
3140,D4,557.0,0.25,65,112.5
3141,F#4,557.0,0.25,65,112.5
3142,F#3,557.0,0.25,52,112.5
3143,B3,557.0,0.25,52,112.5
3144,F#4,557.5,0.25,65,112.5
3145,D4,557.5,0.25,65,112.5
3146,B3,557.5,0.25,52,112.5
3147,F#3,557.5,0.25,52,112.5
3148,G4,558.0,0.25,54,112.5
3149,C#4,558.0,0.25,54,112.5
3150,E3,558.0,0.25,47,112.5
3151,B3,558.0,0.25,47,112.5
3152,F#4,558.25,0.25,50,112.5
3153,A4,558.5,0.25,49,112.5
3154,C#4,558.5,0.25,49,112.5
3155,E3,558.5,0.25,44,112.5
3156,B3,558.5,0.25,44,112.5
3157,G4,558.75,0.25,51,112.5
3158,F#4,559.0,0.25,54,112.5
3159,E4,559.0,0.25,54,112.5
3160,F#3,559.0,0.25,47,112.5
3161,B-3,559.0,0.25,47,112.5
3162,F#4,559.5,0.25,50,112.5
3163,E4,559.5,0.25,50,112.5
3164,F#3,559.5,0.25,44,112.5
3165,B-3,559.5,0.25,44,112.5
3166,B4,560.0,0.25,65,112.5
3167,B3,560.0,0.25,65,112.5
3168,F#4,560.0,0.25,65,112.5
3169,D4,560.0,0.25,65,112.5
3170,F#3,560.0,0.25,54,112.5
3171,B2,560.0,0.25,54,112.5
3172,D4,560.5,0.25,63,112.5
3173,D3,560.5,0.25,50,112.5
3174,D4,561.0,0.25,66,112.5
3175,A3,561.0,0.25,66,112.5
3176,C4,561.0,0.25,66,112.5
3177,F#4,561.0,0.25,66,112.5
3178,D2,561.0,0.25,54,112.5
3179,D3,561.0,0.25,54,112.5
3180,D4,561.5,0.25,78,112.5
3181,D3,561.5,0.25,62,112.5
3182,B-2,562.0,0.25,64,112.5
3183,D4,562.0,0.25,73,112.5
3184,B-3,562.0,0.25,73,112.5
3185,G4,562.0,0.25,73,112.5
3186,A3,562.25,0.25,69,112.5
3187,A2,562.25,0.25,55,112.5
3188,G3,562.5,0.25,70,112.5
3189,G2,562.5,0.25,55,112.5
3190,A3,562.75,0.25,70,112.5
3191,A2,562.75,0.25,55,112.5
3192,B-3,563.0,0.25,81,112.5
3193,B-2,563.0,0.25,64,112.5
3194,G3,563.25,0.25,71,112.5
3195,G2,563.25,0.25,56,112.5
3196,B-3,563.5,0.25,71,112.5
3197,B-2,563.5,0.25,56,112.5
3198,G3,563.75,229/1000,71,112.5
3199,G2,563.75,0.25,56,112.5
3200,G4,564.0,479/1000,82,112.5
3201,G3,564.0,479/1000,65,112.5
3202,G3,564.5,0.25,68,112.5
3203,G2,564.5,0.25,51,112.5
3204,G3,565.0,0.25,68,112.5
3205,G2,565.0,0.25,52,112.5
3206,G3,565.5,0.25,68,112.5
3207,G2,565.5,0.25,52,112.5
3208,E-2,566.0,0.25,62,112.5
3209,C4,566.0,0.25,71,112.5
3210,G4,566.0,0.25,71,112.5
3211,E-4,566.0,0.25,71,112.5
3212,D2,566.25,0.25,49,112.5
3213,G3,566.5,0.25,62,112.5
3214,C2,566.5,0.25,49,112.5
3215,D2,566.75,0.25,49,112.5
3216,G3,567.0,0.25,62,112.5
3217,E-2,567.0,0.25,63,112.5
3218,C2,567.25,0.25,52,112.5
3219,G3,567.5,0.25,62,112.5
3220,E-2,567.5,0.25,52,112.5
3221,C2,567.75,0.25,50,112.5
3222,G2,568.0,0.5,65,112.5
3223,B-3,568.0,0.5,68,112.5
3224,D4,568.0,0.5,68,112.5
3225,G4,568.0,0.5,68,112.5
3226,G3,568.5,0.25,61,112.5
3227,G1,568.5,0.25,48,112.5
3228,G3,569.0,0.25,61,112.5
3229,G1,569.0,0.25,48,112.5
3230,G3,569.5,0.25,61,112.5
3231,G1,569.5,0.25,48,112.5
3232,F5,570.0,0.25,70,112.5
3233,F4,570.0,0.25,70,112.5
3234,B4,570.0,0.25,70,112.5
3235,G#1,570.0,0.25,61,112.5
3236,G#2,570.0,0.25,61,112.5
3237,E5,570.25,0.25,75,112.5
3238,F4,570.5,0.25,68,112.5
3239,B4,570.5,0.25,68,112.5
3240,D5,570.5,0.25,68,112.5
3241,B2,570.5,0.25,58,112.5
3242,B1,570.5,0.25,58,112.5
3243,E5,570.75,0.25,80,112.5
3244,B4,571.0,0.25,74,112.5
3245,F5,571.0,0.25,74,112.5
3246,G#4,571.0,0.25,74,112.5
3247,D3,571.0,0.25,64,112.5
3248,D2,571.0,0.25,64,112.5
3249,D5,571.25,0.25,84,112.5
3250,F5,571.5,0.25,74,112.5
3251,B4,571.5,0.25,74,112.5
3252,G#4,571.5,0.25,74,112.5
3253,F2,571.5,0.25,64,112.5
3254,F3,571.5,0.25,64,112.5
3255,D5,571.75,0.25,88,112.5
3256,A4,572.0,0.5,84,112.5
3257,A5,572.0,0.5,84,112.5
3258,D5,572.0,0.5,84,112.5
3259,F5,572.0,0.5,84,112.5
3260,F3,572.0,0.5,67,112.5
3261,A3,572.0,0.5,67,112.5
3262,A2,572.0,0.5,67,112.5
3263,D3,572.0,0.5,67,112.5
3264,A4,572.5,0.25,71,112.5
3265,F4,572.5,0.25,71,112.5
3266,A3,572.5,0.25,56,112.5
3267,D4,572.5,0.25,56,112.5
3268,A4,573.0,0.25,71,112.5
3269,F4,573.0,0.25,71,112.5
3270,D4,573.0,0.25,56,112.5
3271,A3,573.0,0.25,56,112.5
3272,A4,573.5,0.25,71,112.5
3273,F4,573.5,0.25,71,112.5
3274,A3,573.5,0.25,56,112.5
3275,D4,573.5,0.25,56,112.5
3276,B-4,574.0,0.25,54,112.5
3277,E4,574.0,0.25,54,112.5
3278,D4,574.0,0.25,47,112.5
3279,G3,574.0,0.25,47,112.5
3280,A4,574.25,0.25,51,112.5
3281,E4,574.5,0.25,49,112.5
3282,C5,574.5,0.25,49,112.5
3283,G3,574.5,0.25,44,112.5
3284,D4,574.5,0.25,44,112.5
3285,B-4,574.75,0.25,51,112.5
3286,G4,575.0,0.25,54,112.5
3287,A4,575.0,0.25,54,112.5
3288,C#4,575.0,0.25,47,112.5
3289,A3,575.0,0.25,47,112.5
3290,G4,575.5,0.25,50,112.5
3291,A4,575.5,0.25,50,112.5
3292,A3,575.5,0.25,44,112.5
3293,C#4,575.5,0.25,44,112.5
3294,D5,576.0,62/125,65,112.5
3295,A4,576.0,62/125,65,112.5
3296,F4,576.0,62/125,65,112.5
3297,D4,576.0,62/125,65,112.5
3298,D3,576.0,0.5,54,112.5
3299,A3,576.0,0.5,54,112.5
3300,D4,576.5,0.25,63,112.5
3301,D3,576.5,0.25,50,112.5
3302,D4,577.0,0.25,75,112.5
3303,D3,577.0,0.25,59,112.5
3304,D4,577.5,0.25,78,112.5
3305,D3,577.5,0.25,62,112.5
3306,F4,578.0,979/1000,47,112.5
3307,A4,578.0,0.25,60,112.5
3308,C4,578.0,1.0,47,112.5
3309,F3,578.0,1.0,47,112.5
3310,G#4,578.25,0.25,51,112.5
3311,B-4,578.5,0.25,53,112.5
3312,A4,578.75,229/1000,51,112.5
3313,F4,579.0,0.25,54,112.5
3314,A4,579.0,0.25,54,112.5
3315,A4,579.5,0.25,50,112.5
3316,F4,579.5,0.25,50,112.5
3317,E4,580.0,979/1000,59,112.5
3318,C5,580.0,0.5,70,112.5
3319,C3,580.0,0.25,60,112.5
3320,B2,580.25,0.25,54,112.5
3321,G4,580.5,0.25,53,112.5
3322,D3,580.5,0.25,60,112.5
3323,C3,580.75,229/1000,54,112.5
3324,C3,581.0,0.25,59,112.5
3325,E4,581.0,0.25,61,112.5
3326,G4,581.0,0.25,61,112.5
3327,C3,581.5,0.25,56,112.5
3328,E4,581.5,0.25,57,112.5
3329,G4,581.5,0.25,57,112.5
3330,G4,582.0,979/1000,69,112.5
3331,B-4,582.0,0.25,69,112.5
3332,G3,582.0,0.5,66,112.5
3333,A4,582.25,0.25,57,112.5
3334,C5,582.5,0.25,57,112.5
3335,D3,582.5,0.25,55,112.5
3336,B-4,582.75,229/1000,57,112.5
3337,D3,583.0,0.25,55,112.5
3338,B-4,583.0,0.25,69,112.5
3339,G4,583.0,0.25,69,112.5
3340,C#3,583.5,0.25,55,112.5
3341,G4,583.5,0.25,52,112.5
3342,B-4,583.5,0.25,52,112.5
3343,D5,584.0,0.5,73,112.5
3344,F#4,584.0,979/1000,61,112.5
3345,D3,584.0,0.25,63,112.5
3346,C#3,584.25,0.25,56,112.5
3347,A4,584.5,0.25,55,112.5
3348,E3,584.5,0.25,63,112.5
3349,D3,584.75,229/1000,56,112.5
3350,D3,585.0,0.25,61,112.5
3351,F#4,585.0,0.25,64,112.5
3352,A4,585.0,0.25,64,112.5
3353,D3,585.5,0.25,58,112.5
3354,F#4,585.5,0.25,60,112.5
3355,A4,585.5,0.25,60,112.5
3356,D5,586.0,0.25,72,112.5
3357,B-4,586.0,979/1000,72,112.5
3358,B-3,586.0,0.5,69,112.5
3359,C#5,586.25,0.25,59,112.5
3360,E5,586.5,0.25,62,112.5
3361,F3,586.5,0.25,57,112.5
3362,D5,586.75,229/1000,61,112.5
3363,F3,587.0,0.25,57,112.5
3364,D5,587.0,0.25,72,112.5
3365,B-4,587.0,0.25,72,112.5
3366,F3,587.5,0.25,57,112.5
3367,B-4,587.5,0.25,54,112.5
3368,D5,587.5,0.25,54,112.5
3369,A4,588.0,979/1000,64,112.5
3370,F5,588.0,0.5,76,112.5
3371,F3,588.0,0.25,66,112.5
3372,E3,588.25,0.25,58,112.5
3373,C5,588.5,0.25,57,112.5
3374,G3,588.5,0.25,66,112.5
3375,F3,588.75,229/1000,58,112.5
3376,F3,589.0,0.25,64,112.5
3377,C5,589.0,0.25,66,112.5
3378,A4,589.0,0.25,66,112.5
3379,F3,589.5,0.25,60,112.5
3380,C5,589.5,0.25,62,112.5
3381,A4,589.5,0.25,62,112.5
3382,G4,590.0,979/1000,64,112.5
3383,G5,590.0,0.5,79,112.5
3384,E3,590.0,1.0,66,112.5
3385,E5,590.5,0.25,63,112.5
3386,G3,590.5,0.25,66,112.5
3387,C5,591.0,0.25,66,112.5
3388,G4,591.0,0.25,66,112.5
3389,E3,591.0,0.25,59,112.5
3390,C4,591.0,0.25,59,112.5
3391,B-4,591.5,0.25,62,112.5
3392,G4,591.5,0.25,62,112.5
3393,E3,591.5,0.25,56,112.5
3394,C4,591.5,0.25,56,112.5
3395,B-4,592.0,0.25,68,112.5
3396,F4,592.0,979/1000,68,112.5
3397,C4,592.0,0.5,65,112.5
3398,F3,592.0,1.0,56,112.5
3399,A4,592.25,0.25,53,112.5
3400,D5,592.5,0.25,56,112.5
3401,B-3,592.5,0.25,54,112.5
3402,C5,592.75,229/1000,55,112.5
3403,A3,592.75,0.25,48,112.5
3404,C5,593.0,0.25,62,112.5
3405,F4,593.0,0.25,62,112.5
3406,A3,593.0,0.25,50,112.5
3407,F3,593.0,0.25,50,112.5
3408,C5,593.5,0.25,50,112.5
3409,E4,593.5,0.25,50,112.5
3410,A3,593.5,0.25,50,112.5
3411,F3,593.5,0.25,50,112.5
3412,B-2,594.0,0.25,62,112.5
3413,C5,594.0,479/1000,66,112.5
3414,D4,594.0,479/1000,66,112.5
3415,A2,594.25,0.25,55,112.5
3416,C3,594.5,0.25,62,112.5
3417,B-4,594.5,0.25,51,112.5
3418,D4,594.5,0.25,51,112.5
3419,B-2,594.75,229/1000,55,112.5
3420,C3,595.0,0.25,60,112.5
3421,B-3,595.0,0.25,61,112.5
3422,G4,595.0,0.25,61,112.5
3423,E4,595.0,0.25,61,112.5
3424,C3,595.5,0.25,57,112.5
3425,A4,595.5,0.25,57,112.5
3426,E4,595.5,0.25,57,112.5
3427,C4,595.5,0.25,57,112.5
3428,A3,596.0,979/1000,68,112.5
3429,F4,596.0,0.25,68,112.5
3430,F2,596.0,1.0,56,112.5
3431,E4,596.25,0.25,52,112.5
3432,G4,596.5,0.25,56,112.5
3433,F4,596.75,229/1000,52,112.5
3434,F2,597.0,0.25,54,112.5
3435,A3,597.0,0.25,62,112.5
3436,F4,597.0,0.25,62,112.5
3437,E-2,597.5,0.25,51,112.5
3438,A3,597.5,0.25,50,112.5
3439,F4,597.5,0.25,50,112.5
3440,D2,598.0,0.25,63,112.5
3441,A3,598.0,0.25,67,112.5
3442,D4,598.0,0.25,67,112.5
3443,C4,598.0,0.25,67,112.5
3444,F#4,598.0,0.25,67,112.5
3445,D2,598.5,0.25,58,112.5
3446,F#4,598.5,0.25,63,112.5
3447,C4,598.5,0.25,63,112.5
3448,A3,598.5,0.25,63,112.5
3449,D4,598.5,0.25,63,112.5
3450,D2,599.0,0.25,58,112.5
3451,C4,599.0,0.25,62,112.5
3452,D4,599.0,0.25,62,112.5
3453,A3,599.0,0.25,62,112.5
3454,F#4,599.0,0.25,62,112.5
3455,D2,599.5,0.25,58,112.5
3456,F#4,599.5,0.25,62,112.5
3457,D4,599.5,0.25,62,112.5
3458,C4,599.5,0.25,62,112.5
3459,A3,599.5,0.25,62,112.5
3460,D4,600.0,0.25,61,112.5
3461,F#4,600.0,0.25,61,112.5
3462,D5,600.0,0.25,61,112.5
3463,A4,600.0,0.25,61,112.5
3464,C4,600.0,0.25,62,112.5
3465,A3,600.0,0.25,62,112.5
3466,D3,600.0,0.25,62,112.5
3467,A4,600.5,0.25,56,112.5
3468,F#4,600.5,0.25,56,112.5
3469,D5,600.5,0.25,56,112.5
3470,D4,600.5,0.25,56,112.5
3471,A3,600.5,0.25,54,112.5
3472,D3,600.5,0.25,54,112.5
3473,C4,600.5,0.25,54,112.5
3474,D5,601.0,0.25,56,112.5
3475,D4,601.0,0.25,56,112.5
3476,F#4,601.0,0.25,56,112.5
3477,A4,601.0,0.25,56,112.5
3478,A3,601.0,0.25,54,112.5
3479,D3,601.0,0.25,54,112.5
3480,C4,601.0,0.25,54,112.5
3481,D4,601.5,0.25,56,112.5
3482,F#4,601.5,0.25,56,112.5
3483,D5,601.5,0.25,56,112.5
3484,A4,601.5,0.25,56,112.5
3485,D3,601.5,0.25,54,112.5
3486,A3,601.5,0.25,54,112.5
3487,C4,601.5,0.25,54,112.5
3488,B-3,602.0,0.25,81,112.5
3489,B-2,602.0,0.25,64,112.5
3490,A3,602.25,0.25,68,112.5
3491,A2,602.25,0.25,55,112.5
3492,G3,602.5,0.25,70,112.5
3493,G2,602.5,0.25,55,112.5
3494,A3,602.75,0.25,70,112.5
3495,A2,602.75,0.25,55,112.5
3496,B-3,603.0,0.25,81,112.5
3497,B-2,603.0,0.25,64,112.5
3498,G3,603.25,0.25,71,112.5
3499,G2,603.25,0.25,56,112.5
3500,B-3,603.5,0.25,71,112.5
3501,B-2,603.5,0.25,56,112.5
3502,G3,603.75,229/1000,71,112.5
3503,G2,603.75,0.25,56,112.5
3504,G4,604.0,479/1000,82,112.5
3505,G3,604.0,479/1000,65,112.5
3506,G3,604.5,0.25,68,112.5
3507,G2,604.5,0.25,51,112.5
3508,G3,605.0,0.25,68,112.5
3509,G2,605.0,0.25,52,112.5
3510,G3,605.5,0.25,68,112.5
3511,G2,605.5,0.25,52,112.5
3512,E-2,606.0,0.25,62,112.5
3513,C4,606.0,0.25,71,112.5
3514,E-4,606.0,0.25,71,112.5
3515,G4,606.0,0.25,71,112.5
3516,D2,606.25,0.25,49,112.5
3517,G3,606.5,0.25,62,112.5
3518,C2,606.5,0.25,49,112.5
3519,D2,606.75,0.25,49,112.5
3520,G3,607.0,0.25,62,112.5
3521,E-2,607.0,0.25,63,112.5
3522,C2,607.25,0.25,52,112.5
3523,G3,607.5,0.25,62,112.5
3524,E-2,607.5,0.25,52,112.5
3525,C2,607.75,0.25,50,112.5
3526,G2,608.0,0.5,65,112.5
3527,G4,608.0,0.5,68,112.5
3528,D4,608.0,0.5,68,112.5
3529,B-3,608.0,0.5,68,112.5
3530,G3,608.5,0.25,61,112.5
3531,G1,608.5,0.25,48,112.5
3532,G3,609.0,0.25,61,112.5
3533,G1,609.0,0.25,48,112.5
3534,G3,609.5,0.25,61,112.5
3535,G1,609.5,0.25,48,112.5
3536,D5,610.0,0.25,81,112.5
3537,D4,610.0,979/1000,56,112.5
3538,G#4,610.0,979/1000,56,112.5
3539,F3,610.0,0.25,56,112.5
3540,F2,610.0,0.25,56,112.5
3541,C#5,610.25,0.25,69,112.5
3542,B4,610.5,0.25,72,112.5
3543,G#2,610.5,0.25,53,112.5
3544,G#3,610.5,0.25,53,112.5
3545,C#5,610.75,0.25,73,112.5
3546,D5,611.0,0.25,68,112.5
3547,F4,611.0,0.25,68,112.5
3548,G#4,611.0,0.25,68,112.5
3549,B3,611.0,0.25,59,112.5
3550,B2,611.0,0.25,59,112.5
3551,B4,611.25,0.25,77,112.5
3552,G#4,611.5,0.25,67,112.5
3553,D5,611.5,0.25,67,112.5
3554,F4,611.5,0.25,67,112.5
3555,D4,611.5,0.25,58,112.5
3556,D3,611.5,0.25,58,112.5
3557,B4,611.75,0.25,80,112.5
3558,B4,612.0,0.5,84,112.5
3559,F#4,612.0,0.5,84,112.5
3560,D5,612.0,0.5,84,112.5
3561,F#5,612.0,0.5,84,112.5
3562,B2,612.0,62/125,67,112.5
3563,F#2,612.0,62/125,67,112.5
3564,D3,612.0,62/125,67,112.5
3565,F#3,612.0,62/125,67,112.5
3566,D4,612.5,0.25,65,112.5
3567,F#4,612.5,0.25,65,112.5
3568,F#3,612.5,0.25,52,112.5
3569,B3,612.5,0.25,52,112.5
3570,D4,613.0,0.25,65,112.5
3571,F#4,613.0,0.25,65,112.5
3572,F#3,613.0,0.25,52,112.5
3573,B3,613.0,0.25,52,112.5
3574,D4,613.5,0.25,65,112.5
3575,F#4,613.5,0.25,65,112.5
3576,F#3,613.5,0.25,52,112.5
3577,B3,613.5,0.25,52,112.5
3578,G4,614.0,0.25,54,112.5
3579,C#4,614.0,0.25,54,112.5
3580,E3,614.0,0.25,47,112.5
3581,B3,614.0,0.25,47,112.5
3582,F#4,614.25,0.25,51,112.5
3583,A4,614.5,0.25,49,112.5
3584,C#4,614.5,0.25,49,112.5
3585,B3,614.5,0.25,44,112.5
3586,E3,614.5,0.25,44,112.5
3587,G4,614.75,0.25,51,112.5
3588,E4,615.0,0.25,54,112.5
3589,F#4,615.0,0.25,54,112.5
3590,B-3,615.0,0.25,47,112.5
3591,F#3,615.0,0.25,47,112.5
3592,F#4,615.5,0.25,50,112.5
3593,E4,615.5,0.25,50,112.5
3594,B-3,615.5,0.25,44,112.5
3595,F#3,615.5,0.25,44,112.5
3596,F#4,616.0,0.5,65,112.5
3597,B4,616.0,0.5,65,112.5
3598,D4,616.0,0.5,65,112.5
3599,B3,616.0,0.5,65,112.5
3600,B2,616.0,0.5,54,112.5
3601,F#3,616.0,0.5,54,112.5
3602,D4,616.5,0.25,63,112.5
3603,D3,616.5,0.25,50,112.5
3604,D4,617.0,0.25,66,112.5
3605,F#4,617.0,0.25,66,112.5
3606,A3,617.0,0.25,66,112.5
3607,C4,617.0,0.25,66,112.5
3608,D3,617.0,0.25,54,112.5
3609,D2,617.0,0.25,54,112.5
3610,D4,617.5,0.25,78,112.5
3611,D3,617.5,0.25,62,112.5
3612,B-2,618.0,0.25,64,112.5
3613,B-3,618.0,0.25,73,112.5
3614,D4,618.0,0.25,73,112.5
3615,G4,618.0,0.25,73,112.5
3616,A3,618.25,0.25,69,112.5
3617,A2,618.25,0.25,55,112.5
3618,G3,618.5,0.25,70,112.5
3619,G2,618.5,0.25,55,112.5
3620,A3,618.75,0.25,70,112.5
3621,A2,618.75,0.25,55,112.5
3622,B-3,619.0,0.25,81,112.5
3623,B-2,619.0,0.25,64,112.5
3624,G3,619.25,0.25,71,112.5
3625,G2,619.25,0.25,56,112.5
3626,B-3,619.5,0.25,71,112.5
3627,B-2,619.5,0.25,56,112.5
3628,G3,619.75,0.25,71,112.5
3629,G2,619.75,0.25,56,112.5
3630,G4,620.0,479/1000,82,112.5
3631,G3,620.0,479/1000,65,112.5
3632,G3,620.5,0.25,68,112.5
3633,G2,620.5,0.25,51,112.5
3634,G3,621.0,0.25,68,112.5
3635,G2,621.0,0.25,52,112.5
3636,G3,621.5,0.25,68,112.5
3637,G2,621.5,0.25,52,112.5
3638,E-2,622.0,0.25,62,112.5
3639,E-4,622.0,0.25,71,112.5
3640,G4,622.0,0.25,71,112.5
3641,C4,622.0,0.25,71,112.5
3642,D2,622.25,0.25,49,112.5
3643,G3,622.5,0.25,62,112.5
3644,C2,622.5,0.25,49,112.5
3645,D2,622.75,0.25,49,112.5
3646,G3,623.0,0.25,62,112.5
3647,E-2,623.0,0.25,63,112.5
3648,C2,623.25,0.25,52,112.5
3649,G3,623.5,0.25,62,112.5
3650,E-2,623.5,0.25,52,112.5
3651,C2,623.75,0.25,50,112.5
3652,G2,624.0,0.5,65,112.5
3653,D4,624.0,0.5,68,112.5
3654,G4,624.0,0.5,68,112.5
3655,B-3,624.0,0.5,68,112.5
3656,G3,624.5,0.25,61,112.5
3657,G1,624.5,0.25,48,112.5
3658,G3,625.0,0.25,61,112.5
3659,G1,625.0,0.25,48,112.5
3660,G3,625.5,0.25,61,112.5
3661,G1,625.5,0.25,48,112.5
3662,F5,626.0,0.25,89,112.5
3663,F4,626.0,979/1000,61,112.5
3664,B4,626.0,979/1000,61,112.5
3665,G#2,626.0,0.25,61,112.5
3666,G#1,626.0,0.25,61,112.5
3667,E5,626.25,0.25,75,112.5
3668,D5,626.5,0.25,79,112.5
3669,B2,626.5,0.25,58,112.5
3670,B1,626.5,0.25,58,112.5
3671,E5,626.75,0.25,80,112.5
3672,G#4,627.0,0.25,74,112.5
3673,F5,627.0,0.25,74,112.5
3674,B4,627.0,0.25,74,112.5
3675,D2,627.0,0.25,64,112.5
3676,D3,627.0,0.25,64,112.5
3677,D5,627.25,0.25,84,112.5
3678,F5,627.5,0.25,74,112.5
3679,B4,627.5,0.25,74,112.5
3680,G#4,627.5,0.25,74,112.5
3681,F2,627.5,0.25,64,112.5
3682,F3,627.5,0.25,64,112.5
3683,D5,627.75,123/500,88,112.5
3684,A5,628.0,0.5,84,112.5
3685,D5,628.0,0.5,84,112.5
3686,A4,628.0,0.5,84,112.5
3687,F5,628.0,0.5,84,112.5
3688,F3,628.0,0.5,67,112.5
3689,A3,628.0,0.5,67,112.5
3690,D3,628.0,0.5,67,112.5
3691,A2,628.0,0.5,67,112.5
3692,A4,628.5,0.25,71,112.5
3693,F4,628.5,0.25,71,112.5
3694,A3,628.5,0.25,56,112.5
3695,D4,628.5,0.25,56,112.5
3696,F4,629.0,0.25,71,112.5
3697,A4,629.0,0.25,71,112.5
3698,A3,629.0,0.25,56,112.5
3699,D4,629.0,0.25,56,112.5
3700,F4,629.5,0.25,71,112.5
3701,A4,629.5,0.25,71,112.5
3702,A3,629.5,0.25,56,112.5
3703,D4,629.5,0.25,56,112.5
3704,A5,630.0,0.25,97,112.5
3705,E-5,630.0,979/1000,67,112.5
3706,A4,630.0,979/1000,67,112.5
3707,C2,630.0,0.25,67,112.5
3708,C3,630.0,0.25,67,112.5
3709,G#5,630.25,0.25,82,112.5
3710,F#5,630.5,0.25,86,112.5
3711,E-3,630.5,0.25,63,112.5
3712,E-2,630.5,0.25,63,112.5
3713,G#5,630.75,0.25,88,112.5
3714,E-5,631.0,0.25,81,112.5
3715,A5,631.0,0.25,81,112.5
3716,B4,631.0,0.25,81,112.5
3717,F#2,631.0,0.25,70,112.5
3718,F#3,631.0,0.25,70,112.5
3719,F#5,631.25,0.25,92,112.5
3720,B4,631.5,0.25,80,112.5
3721,E-5,631.5,0.25,80,112.5
3722,A5,631.5,0.25,80,112.5
3723,A3,631.5,0.25,69,112.5
3724,A2,631.5,0.25,69,112.5
3725,F#5,631.75,0.25,96,112.5
3726,F#5,632.0,0.5,93,112.5
3727,C#5,632.0,0.5,93,112.5
3728,C#6,632.0,0.5,93,112.5
3729,A5,632.0,0.5,93,112.5
3730,C#4,632.0,0.5,73,112.5
3731,F#3,632.0,0.5,73,112.5
3732,A3,632.0,0.5,73,112.5
3733,C#3,632.0,0.5,73,112.5
3734,A4,632.5,0.25,71,112.5
3735,C#5,632.5,0.25,71,112.5
3736,C#4,632.5,0.25,56,112.5
3737,F#4,632.5,0.25,56,112.5
3738,C#5,633.0,0.25,71,112.5
3739,A4,633.0,0.25,71,112.5
3740,C#4,633.0,0.25,56,112.5
3741,F#4,633.0,0.25,56,112.5
3742,A4,633.5,0.25,71,112.5
3743,C#5,633.5,0.25,71,112.5
3744,C#4,633.5,0.25,56,112.5
3745,F#4,633.5,0.25,56,112.5
3746,G#4,634.0,979/1000,47,112.5
3747,D5,634.0,0.25,60,112.5
3748,B3,634.0,0.25,42,112.5
3749,F#4,634.0,0.25,42,112.5
3750,C#5,634.25,0.25,49,112.5
3751,E5,634.5,0.25,51,112.5
3752,B3,634.5,0.25,38,112.5
3753,F#4,634.5,0.25,38,112.5
3754,D5,634.75,229/1000,48,112.5
3755,C#5,635.0,0.25,54,112.5
3756,B4,635.0,0.25,54,112.5
3757,C#4,635.0,0.25,42,112.5
3758,F4,635.0,0.25,42,112.5
3759,B4,635.5,0.25,50,112.5
3760,C#5,635.5,0.25,50,112.5
3761,C#4,635.5,0.25,40,112.5
3762,F4,635.5,0.25,40,112.5
3763,F#5,636.0,0.25,54,112.5
3764,F#4,636.0,0.25,54,112.5
3765,A4,636.0,0.25,54,112.5
3766,C#5,636.0,0.25,54,112.5
3767,F#3,636.0,1.0,42,112.5
3768,C#4,636.0,1.0,42,112.5
3769,F#4,636.5,0.25,46,112.5
3770,A4,636.5,0.25,46,112.5
3771,C#5,636.5,0.25,46,112.5
3772,F#4,637.0,0.25,46,112.5
3773,A4,637.0,0.25,46,112.5
3774,C#5,637.0,0.25,46,112.5
3775,C#5,637.5,0.25,46,112.5
3776,F#4,637.5,0.25,46,112.5
3777,A4,637.5,0.25,46,112.5
3778,F#5,638.0,0.25,54,112.5
3779,F#4,638.0,0.25,54,112.5
3780,A4,638.0,0.25,54,112.5
3781,C#5,638.0,0.25,54,112.5
3782,A4,638.5,0.25,46,112.5
3783,C#5,638.5,0.25,46,112.5
3784,F#4,638.5,0.25,46,112.5
3785,C#5,639.0,0.25,46,112.5
3786,A4,639.0,0.25,46,112.5
3787,F#4,639.0,0.25,46,112.5
3788,A4,639.5,0.25,46,112.5
3789,F#4,639.5,0.25,46,112.5
3790,C#5,639.5,0.25,46,112.5
3791,D4,640.0,2.5,45,112.5
3792,D5,640.0,0.5,53,112.5
3793,C5,640.0,0.5,53,112.5
3794,F#4,640.0,0.5,53,112.5
3795,A4,640.0,0.5,53,112.5
3796,F#5,640.0,0.5,53,112.5
3797,D5,640.5,9/20,44,112.5
3798,C5,640.5,9/20,44,112.5
3799,F#4,640.5,9/20,44,112.5
3800,A4,640.5,9/20,44,112.5
3801,D5,641.0,0.25,43,112.5
3802,C5,641.0,0.25,43,112.5
3803,F#4,641.0,0.25,43,112.5
3804,A4,641.0,0.25,43,112.5
3805,A4,641.5,0.25,42,112.5
3806,C5,641.5,0.25,42,112.5
3807,D5,641.5,0.25,42,112.5
3808,F#4,641.5,0.25,42,112.5
3809,C5,642.0,0.5,49,112.5
3810,D5,642.0,0.5,49,112.5
3811,F#4,642.0,0.5,49,112.5
3812,F#5,642.0,0.5,49,112.5
3813,A4,642.0,0.5,49,112.5
3814,D4,642.5,9/20,37,112.5
3815,D5,642.5,9/20,41,112.5
3816,C5,642.5,9/20,41,112.5
3817,F#4,642.5,9/20,41,112.5
3818,A4,642.5,9/20,41,112.5
3819,D4,643.0,0.25,36,112.5
3820,D5,643.0,0.25,40,112.5
3821,F#4,643.0,0.25,40,112.5
3822,A4,643.0,0.25,40,112.5
3823,C5,643.0,0.25,40,112.5
3824,D4,643.5,0.25,35,112.5
3825,C5,643.5,0.25,39,112.5
3826,A4,643.5,0.25,39,112.5
3827,F#4,643.5,0.25,39,112.5
3828,D5,643.5,0.25,39,112.5
3829,D4,644.0,49/20,38,112.5
3830,C5,644.0,0.5,45,112.5
3831,D5,644.0,0.5,45,112.5
3832,A4,644.0,0.5,45,112.5
3833,F#4,644.0,0.5,45,112.5
3834,F#5,644.0,0.5,45,112.5
3835,A4,644.5,9/20,36,112.5
3836,F#4,644.5,9/20,36,112.5
3837,D5,644.5,9/20,36,112.5
3838,D5,645.0,0.25,34,112.5
3839,B4,645.0,0.25,34,112.5
3840,G4,645.0,0.25,34,112.5
3841,A4,645.5,0.25,32,112.5
3842,D5,645.5,0.25,32,112.5
3843,C5,645.5,0.25,32,112.5
3844,B4,646.0,9/20,45,112.5
3845,G4,646.0,9/20,45,112.5
3846,D5,646.0,9/20,45,112.5
3847,E4,646.5,9/20,32,112.5
3848,E5,646.5,9/20,40,112.5
3849,B4,646.5,9/20,40,112.5
3850,G4,646.5,9/20,40,112.5
3851,F#4,647.0,9/20,32,112.5
3852,B4,647.0,9/20,40,112.5
3853,F#5,647.0,9/20,40,112.5
3854,G4,647.0,9/20,40,112.5
3855,G4,647.5,9/20,32,112.5
3856,G5,647.5,9/20,40,112.5
3857,G4,647.5,9/20,40,112.5
3858,B4,647.5,9/20,40,112.5
3859,G2,648.0,0.125,45,112.5
3860,B4,648.0,9/20,50,112.5
3861,G4,648.0,9/20,50,112.5
3862,G5,648.0,9/20,50,112.5
3863,G3,648.25,0.25,36,112.5
3864,B3,648.5,0.25,38,112.5
3865,G4,648.5,9/20,38,112.5
3866,B4,648.5,9/20,38,112.5
3867,G3,648.75,0.25,37,112.5
3868,D4,649.0,0.25,42,112.5
3869,G4,649.0,9/20,40,112.5
3870,B4,649.0,9/20,40,112.5
3871,G3,649.25,0.25,34,112.5
3872,B3,649.5,0.25,36,112.5
3873,B4,649.5,9/20,38,112.5
3874,G4,649.5,9/20,38,112.5
3875,G3,649.75,0.25,36,112.5
3876,G2,650.0,0.125,49,112.5
3877,G4,650.0,9/20,47,112.5
3878,G5,650.0,9/20,47,112.5
3879,B-4,650.0,9/20,47,112.5
3880,G3,650.25,0.25,36,112.5
3881,B-3,650.5,0.25,36,112.5
3882,C#5,650.5,9/20,38,112.5
3883,G4,650.5,9/20,38,112.5
3884,B-4,650.5,9/20,38,112.5
3885,G3,650.75,0.25,34,112.5
3886,E4,651.0,0.25,42,112.5
3887,G4,651.0,9/20,40,112.5
3888,C#5,651.0,9/20,40,112.5
3889,B-4,651.0,9/20,40,112.5
3890,G3,651.25,0.25,35,112.5
3891,B-3,651.5,0.25,37,112.5
3892,C#5,651.5,9/20,38,112.5
3893,B-4,651.5,9/20,38,112.5
3894,G4,651.5,9/20,38,112.5
3895,G3,651.75,0.25,35,112.5
3896,G2,652.0,0.125,45,112.5
3897,B4,652.0,2.0,51,112.5
3898,D5,652.0,2.0,51,112.5
3899,G4,652.0,2.0,51,112.5
3900,G3,652.25,0.25,35,112.5
3901,B3,652.5,0.25,38,112.5
3902,G3,652.75,0.25,34,112.5
3903,D4,653.0,0.25,42,112.5
3904,G3,653.25,0.25,33,112.5
3905,B3,653.5,0.25,36,112.5
3906,G3,653.75,0.25,34,112.5
3907,E4,654.0,9/20,35,112.5
3908,B4,654.0,9/20,45,112.5
3909,G4,654.0,9/20,45,112.5
3910,E5,654.0,9/20,45,112.5
3911,D4,654.5,9/20,32,112.5
3912,D5,654.5,9/20,40,112.5
3913,B4,654.5,9/20,40,112.5
3914,G4,654.5,9/20,40,112.5
3915,B3,655.0,9/20,32,112.5
3916,G4,655.0,9/20,42,112.5
3917,B4,655.0,9/20,42,112.5
3918,G4,655.5,9/20,45,112.5
3919,G3,655.5,9/20,38,112.5
3920,D2,656.0,0.125,45,112.5
3921,G4,656.0,9/20,50,112.5
3922,B4,656.0,9/20,50,112.5
3923,D4,656.0,9/20,50,112.5
3924,D3,656.25,0.25,36,112.5
3925,F#3,656.5,0.25,38,112.5
3926,A4,656.5,0.5,37,112.5
3927,D4,656.5,0.5,37,112.5
3928,F#4,656.5,0.5,37,112.5
3929,D3,656.75,0.25,36,112.5
3930,A3,657.0,0.25,42,112.5
3931,F#4,657.0,9/20,39,112.5
3932,D4,657.0,9/20,39,112.5
3933,A4,657.0,9/20,39,112.5
3934,D3,657.25,0.25,35,112.5
3935,F#3,657.5,0.25,36,112.5
3936,F#4,657.5,9/20,37,112.5
3937,A4,657.5,9/20,37,112.5
3938,D4,657.5,9/20,37,112.5
3939,D3,657.75,0.25,35,112.5
3940,A2,658.0,0.125,49,112.5
3941,E5,658.0,9/20,47,112.5
3942,B-4,658.0,9/20,47,112.5
3943,G4,658.0,9/20,47,112.5
3944,E3,658.25,0.25,35,112.5
3945,G3,658.5,0.25,36,112.5
3946,C#5,658.5,9/20,38,112.5
3947,G4,658.5,9/20,38,112.5
3948,B-4,658.5,9/20,38,112.5
3949,E3,658.75,0.25,35,112.5
3950,A3,659.0,0.25,42,112.5
3951,B-4,659.0,9/20,40,112.5
3952,C#5,659.0,9/20,40,112.5
3953,G4,659.0,9/20,40,112.5
3954,E3,659.25,0.25,35,112.5
3955,G3,659.5,0.25,37,112.5
3956,B-4,659.5,9/20,38,112.5
3957,C#5,659.5,9/20,38,112.5
3958,G4,659.5,9/20,38,112.5
3959,E3,659.75,0.25,36,112.5
3960,D2,660.0,0.125,45,112.5
3961,D5,660.0,2.0,51,112.5
3962,F#4,660.0,2.0,51,112.5
3963,A4,660.0,2.0,51,112.5
3964,D3,660.25,0.25,35,112.5
3965,F#3,660.5,0.25,38,112.5
3966,D3,660.75,0.25,36,112.5
3967,A3,661.0,0.25,42,112.5
3968,D3,661.25,0.25,34,112.5
3969,C#4,661.5,0.25,36,112.5
3970,D3,661.75,0.25,34,112.5
3971,D4,662.0,9/20,35,112.5
3972,D5,662.0,9/20,45,112.5
3973,A4,662.0,9/20,45,112.5
3974,F4,662.0,9/20,45,112.5
3975,D4,662.5,9/20,33,112.5
3976,A4,662.5,9/20,42,112.5
3977,F4,662.5,9/20,42,112.5
3978,D5,662.5,9/20,42,112.5
3979,E4,663.0,9/20,35,112.5
3980,A4,663.0,9/20,44,112.5
3981,F4,663.0,9/20,44,112.5
3982,E5,663.0,9/20,44,112.5
3983,F4,663.5,9/20,36,112.5
3984,A4,663.5,9/20,47,112.5
3985,F5,663.5,9/20,47,112.5
3986,E2,664.0,0.125,45,112.5
3987,G#4,664.0,9/20,50,112.5
3988,F5,664.0,9/20,50,112.5
3989,E4,664.0,9/20,50,112.5
3990,E3,664.25,0.25,36,112.5
3991,G#3,664.5,0.25,38,112.5
3992,G#4,664.5,9/20,37,112.5
3993,E4,664.5,9/20,37,112.5
3994,B4,664.5,9/20,37,112.5
3995,E3,664.75,0.25,36,112.5
3996,D4,665.0,0.25,42,112.5
3997,G#4,665.0,9/20,39,112.5
3998,B4,665.0,9/20,39,112.5
3999,E4,665.0,9/20,39,112.5
4000,E3,665.25,0.25,35,112.5
4001,G#3,665.5,0.25,36,112.5
4002,G#4,665.5,9/20,37,112.5
4003,E4,665.5,9/20,37,112.5
4004,B4,665.5,9/20,37,112.5
4005,E3,665.75,0.25,35,112.5
4006,A2,666.0,0.125,49,112.5
4007,E4,666.0,9/20,47,112.5
4008,A4,666.0,9/20,47,112.5
4009,C5,666.0,9/20,47,112.5
4010,E3,666.25,0.25,34,112.5
4011,A3,666.5,0.25,36,112.5
4012,C5,666.5,9/20,40,112.5
4013,E4,666.5,9/20,40,112.5
4014,A4,666.5,9/20,40,112.5
4015,E3,666.75,0.25,35,112.5
4016,C4,667.0,0.25,42,112.5
4017,D5,667.0,9/20,40,112.5
4018,E4,667.0,9/20,40,112.5
4019,A4,667.0,9/20,40,112.5
4020,E3,667.25,0.25,36,112.5
4021,B3,667.5,0.25,37,112.5
4022,E5,667.5,9/20,40,112.5
4023,E4,667.5,9/20,40,112.5
4024,G4,667.5,9/20,40,112.5
4025,E3,667.75,0.25,35,112.5
4026,D2,668.0,0.125,45,112.5
4027,F#4,668.0,9/20,50,112.5
4028,E5,668.0,9/20,50,112.5
4029,D4,668.0,9/20,50,112.5
4030,D3,668.25,0.25,36,112.5
4031,F#3,668.5,0.25,38,112.5
4032,D4,668.5,0.5,37,112.5
4033,A4,668.5,0.5,37,112.5
4034,F#4,668.5,0.5,37,112.5
4035,D3,668.75,0.25,35,112.5
4036,C4,669.0,0.25,42,112.5
4037,D4,669.0,9/20,39,112.5
4038,F#4,669.0,9/20,39,112.5
4039,A4,669.0,9/20,39,112.5
4040,D3,669.25,0.25,36,112.5
4041,F#3,669.5,0.25,36,112.5
4042,D4,669.5,9/20,37,112.5
4043,F#4,669.5,9/20,37,112.5
4044,A4,669.5,9/20,37,112.5
4045,D3,669.75,0.25,36,112.5
4046,G3,670.0,0.25,42,112.5
4047,B4,670.0,9/20,47,112.5
4048,G4,670.0,9/20,47,112.5
4049,D4,670.0,9/20,47,112.5
4050,D3,670.25,0.25,43,112.5
4051,C4,670.5,0.25,43,112.5
4052,D4,670.5,9/20,48,112.5
4053,E5,670.5,9/20,48,112.5
4054,G4,670.5,9/20,48,112.5
4055,D3,670.75,0.25,42,112.5
4056,B3,671.0,0.25,47,112.5
4057,G4,671.0,9/20,46,112.5
4058,D5,671.0,9/20,46,112.5
4059,D4,671.0,9/20,46,112.5
4060,D3,671.25,0.25,40,112.5
4061,G3,671.5,0.25,39,112.5
4062,D4,671.5,9/20,43,112.5
4063,G4,671.5,9/20,43,112.5
4064,B4,671.5,9/20,43,112.5
4065,D3,671.75,0.25,38,112.5
4066,D2,672.0,0.125,45,112.5
4067,F#4,672.0,9/20,50,112.5
4068,D4,672.0,9/20,50,112.5
4069,D5,672.0,9/20,50,112.5
4070,D3,672.25,0.25,36,112.5
4071,F#3,672.5,0.25,38,112.5
4072,A4,672.5,0.5,37,112.5
4073,D4,672.5,0.5,37,112.5
4074,F#4,672.5,0.5,37,112.5
4075,D3,672.75,0.25,38,112.5
4076,C4,673.0,0.25,42,112.5
4077,D4,673.0,0.5,39,112.5
4078,A4,673.0,0.5,39,112.5
4079,F#4,673.0,0.5,39,112.5
4080,D3,673.25,0.25,34,112.5
4081,F#3,673.5,0.25,36,112.5
4082,F#4,673.5,9/20,37,112.5
4083,A4,673.5,9/20,37,112.5
4084,D4,673.5,9/20,37,112.5
4085,D3,673.75,0.25,34,112.5
4086,G3,674.0,0.25,42,112.5
4087,B4,674.0,9/20,47,112.5
4088,D4,674.0,9/20,47,112.5
4089,G4,674.0,9/20,47,112.5
4090,D3,674.25,0.25,44,112.5
4091,C4,674.5,0.25,43,112.5
4092,D4,674.5,9/20,48,112.5
4093,E5,674.5,9/20,48,112.5
4094,G4,674.5,9/20,48,112.5
4095,D3,674.75,0.25,42,112.5
4096,B3,675.0,0.25,47,112.5
4097,D5,675.0,9/20,46,112.5
4098,G4,675.0,9/20,46,112.5
4099,D4,675.0,9/20,46,112.5
4100,D3,675.25,0.25,40,112.5
4101,G3,675.5,0.25,39,112.5
4102,D4,675.5,9/20,43,112.5
4103,G4,675.5,9/20,43,112.5
4104,B4,675.5,9/20,43,112.5
4105,D3,675.75,0.25,38,112.5
4106,D2,676.0,0.125,45,112.5
4107,F#4,676.0,9/20,42,112.5
4108,D5,676.0,9/20,42,112.5
4109,D4,676.0,9/20,42,112.5
4110,D3,676.25,0.25,36,112.5
4111,F#3,676.5,0.25,38,112.5
4112,F#4,676.5,9/20,36,112.5
4113,D4,676.5,9/20,36,112.5
4114,A4,676.5,9/20,36,112.5
4115,D3,676.75,0.25,35,112.5
4116,A3,677.0,0.25,42,112.5
4117,D5,677.0,9/20,32,112.5
4118,F#4,677.0,9/20,32,112.5
4119,A4,677.0,9/20,32,112.5
4120,D3,677.25,0.25,29,112.5
4121,C4,677.5,0.25,36,112.5
4122,F#4,677.5,9/20,30,112.5
4123,D5,677.5,9/20,30,112.5
4124,B-4,677.5,9/20,30,112.5
4125,D3,677.75,0.25,28,112.5
4126,B4,678.0,9/20,40,112.5
4127,D5,678.0,9/20,40,112.5
4128,G4,678.0,9/20,40,112.5
4129,B3,678.0,0.5,33,112.5
4130,G3,678.0,0.5,33,112.5
4131,E5,678.5,9/20,40,112.5
4132,G4,678.5,9/20,40,112.5
4133,B4,678.5,9/20,40,112.5
4134,F#5,679.0,9/20,40,112.5
4135,B4,679.0,9/20,40,112.5
4136,G4,679.0,9/20,40,112.5
4137,G4,679.5,9/20,40,112.5
4138,G5,679.5,9/20,40,112.5
4139,B4,679.5,9/20,40,112.5
4140,G2,680.0,0.125,45,112.5
4141,B4,680.0,9/20,50,112.5
4142,G4,680.0,9/20,50,112.5
4143,G5,680.0,9/20,50,112.5
4144,G3,680.25,0.25,36,112.5
4145,B3,680.5,0.25,38,112.5
4146,G4,680.5,9/20,38,112.5
4147,B4,680.5,9/20,38,112.5
4148,G3,680.75,0.25,36,112.5
4149,D4,681.0,0.25,42,112.5
4150,G4,681.0,9/20,40,112.5
4151,B4,681.0,9/20,40,112.5
4152,G3,681.25,0.25,34,112.5
4153,B3,681.5,0.25,36,112.5
4154,G4,681.5,9/20,38,112.5
4155,B4,681.5,9/20,38,112.5
4156,G3,681.75,0.25,34,112.5
4157,G2,682.0,0.125,49,112.5
4158,G5,682.0,9/20,47,112.5
4159,G4,682.0,9/20,47,112.5
4160,B-4,682.0,9/20,47,112.5
4161,G3,682.25,0.25,35,112.5
4162,B-3,682.5,0.25,36,112.5
4163,G4,682.5,9/20,40,112.5
4164,B-4,682.5,9/20,40,112.5
4165,C#5,682.5,9/20,40,112.5
4166,G3,682.75,0.25,35,112.5
4167,E4,683.0,0.25,42,112.5
4168,B-4,683.0,9/20,40,112.5
4169,G4,683.0,9/20,40,112.5
4170,C#5,683.0,9/20,40,112.5
4171,G3,683.25,0.25,36,112.5
4172,B-3,683.5,0.25,37,112.5
4173,G4,683.5,9/20,40,112.5
4174,C#5,683.5,9/20,40,112.5
4175,B-4,683.5,9/20,40,112.5
4176,G3,683.75,0.25,37,112.5
4177,G2,684.0,0.125,45,112.5
4178,D5,684.0,2.0,51,112.5
4179,B4,684.0,2.0,51,112.5
4180,G4,684.0,2.0,51,112.5
4181,G3,684.25,0.25,37,112.5
4182,B3,684.5,0.25,38,112.5
4183,G3,684.75,0.25,36,112.5
4184,D4,685.0,0.25,45,112.5
4185,G3,685.25,0.25,43,112.5
4186,B3,685.5,0.25,46,112.5
4187,G3,685.75,0.25,48,112.5
4188,F4,686.0,9/20,50,112.5
4189,B4,686.0,9/20,54,112.5
4190,F5,686.0,9/20,54,112.5
4191,G4,686.0,9/20,54,112.5
4192,E4,686.5,9/20,42,112.5
4193,G4,686.5,9/20,47,112.5
4194,B4,686.5,9/20,47,112.5
4195,E5,686.5,9/20,47,112.5
4196,F4,687.0,9/20,42,112.5
4197,F5,687.0,0.5,51,112.5
4198,G4,687.0,0.5,51,112.5
4199,B4,687.0,0.5,51,112.5
4200,G4,687.5,9/20,47,112.5
4201,B4,687.5,9/20,48,112.5
4202,G5,687.5,9/20,48,112.5
4203,C3,688.0,0.125,51,112.5
4204,F5,688.0,9/20,56,112.5
4205,C5,688.0,9/20,56,112.5
4206,G4,688.0,9/20,56,112.5
4207,G3,688.25,0.25,40,112.5
4208,C4,688.5,0.25,43,112.5
4209,C5,688.5,9/20,49,112.5
4210,E5,688.5,9/20,49,112.5
4211,G4,688.5,9/20,49,112.5
4212,G3,688.75,0.25,40,112.5
4213,E4,689.0,0.25,48,112.5
4214,G4,689.0,9/20,50,112.5
4215,D5,689.0,9/20,50,112.5
4216,G3,689.25,0.25,38,112.5
4217,C4,689.5,0.25,41,112.5
4218,E4,689.5,9/20,48,112.5
4219,G4,689.5,9/20,48,112.5
4220,C5,689.5,9/20,48,112.5
4221,G3,689.75,0.25,40,112.5
4222,D2,690.0,0.125,56,112.5
4223,D4,690.0,9/20,53,112.5
4224,G4,690.0,9/20,53,112.5
4225,C5,690.0,9/20,53,112.5
4226,D3,690.25,0.25,39,112.5
4227,G3,690.5,0.25,41,112.5
4228,G4,690.5,9/20,48,112.5
4229,D4,690.5,9/20,48,112.5
4230,B4,690.5,9/20,48,112.5
4231,D3,690.75,0.25,38,112.5
4232,B3,691.0,0.25,48,112.5
4233,D5,691.0,9/20,50,112.5
4234,D4,691.0,9/20,50,112.5
4235,F#4,691.0,9/20,50,112.5
4236,D3,691.25,0.25,39,112.5
4237,A3,691.5,0.25,42,112.5
4238,C5,691.5,9/20,48,112.5
4239,F#4,691.5,9/20,48,112.5
4240,D4,691.5,9/20,48,112.5
4241,D3,691.75,0.25,41,112.5
4242,D2,692.0,0.125,51,112.5
4243,B4,692.0,1.0,54,112.5
4244,G4,692.0,1.0,54,112.5
4245,D4,692.0,1.0,54,112.5
4246,D3,692.25,0.25,38,112.5
4247,G3,692.5,0.25,40,112.5
4248,D3,692.75,0.25,38,112.5
4249,G3,693.0,0.25,51,112.5
4250,B4,693.0,0.5,54,112.5
4251,D5,693.0,0.5,54,112.5
4252,G4,693.0,0.5,54,112.5
4253,B3,693.25,0.25,41,112.5
4254,D4,693.5,0.25,45,112.5
4255,G4,693.5,0.5,55,112.5
4256,B4,693.5,0.5,55,112.5
4257,E5,693.5,0.5,55,112.5
4258,E4,693.75,0.25,46,112.5
4259,F4,694.0,9/20,52,112.5
4260,B4,694.0,9/20,59,112.5
4261,G4,694.0,9/20,59,112.5
4262,F5,694.0,9/20,59,112.5
4263,E4,694.5,9/20,40,112.5
4264,B4,694.5,9/20,55,112.5
4265,G4,694.5,9/20,55,112.5
4266,E5,694.5,9/20,55,112.5
4267,F5,695.0,0.25,69,112.5
4268,F4,695.0,0.25,42,112.5
4269,B4,695.0,9/20,58,112.5
4270,G4,695.0,9/20,58,112.5
4271,A5,695.25,0.25,65,112.5
4272,A4,695.25,0.25,39,112.5
4273,G4,695.5,9/20,47,112.5
4274,B4,695.5,9/20,61,112.5
4275,G5,695.5,9/20,61,112.5
4276,C3,696.0,0.125,53,112.5
4277,G4,696.0,9/20,59,112.5
4278,F5,696.0,9/20,59,112.5
4279,C5,696.0,9/20,59,112.5
4280,G3,696.25,0.25,40,112.5
4281,C4,696.5,0.25,42,112.5
4282,G4,696.5,0.5,46,112.5
4283,E5,696.5,0.5,46,112.5
4284,C5,696.5,0.5,46,112.5
4285,G3,696.75,0.25,39,112.5
4286,B3,697.0,0.25,50,112.5
4287,D5,697.0,9/20,45,112.5
4288,G4,697.0,9/20,45,112.5
4289,F4,697.0,9/20,45,112.5
4290,G3,697.25,0.25,34,112.5
4291,C4,697.5,0.25,36,112.5
4292,G4,697.5,9/20,47,112.5
4293,E4,697.5,9/20,47,112.5
4294,C5,697.5,9/20,47,112.5
4295,G3,697.75,0.25,35,112.5
4296,D2,698.0,0.125,49,112.5
4297,G4,698.0,9/20,56,112.5
4298,C5,698.0,9/20,56,112.5
4299,D4,698.0,9/20,56,112.5
4300,D3,698.25,0.25,35,112.5
4301,G3,698.5,0.25,36,112.5
4302,D4,698.5,9/20,48,112.5
4303,B4,698.5,9/20,48,112.5
4304,G4,698.5,9/20,48,112.5
4305,D3,698.75,0.25,35,112.5
4306,A3,699.0,0.25,42,112.5
4307,D4,699.0,9/20,50,112.5
4308,C5,699.0,9/20,50,112.5
4309,F#4,699.0,9/20,50,112.5
4310,D3,699.25,0.25,35,112.5
4311,C4,699.5,0.25,37,112.5
4312,F#4,699.5,9/20,48,112.5
4313,D4,699.5,9/20,48,112.5
4314,B4,699.5,9/20,48,112.5
4315,D3,699.75,0.25,35,112.5
4316,G2,700.0,0.125,45,112.5
4317,B3,700.0,1479/1000,45,112.5
4318,D4,700.0,1479/1000,45,112.5
4319,G4,700.0,1479/1000,45,112.5
4320,D3,700.25,0.25,37,112.5
4321,G3,700.5,0.25,38,112.5
4322,D3,700.75,0.25,36,112.5
4323,G3,701.0,0.25,42,112.5
4324,D3,701.25,0.25,36,112.5
4325,G3,701.5,0.25,39,112.5
4326,D4,701.5,9/20,44,112.5
4327,B3,701.5,9/20,44,112.5
4328,B4,701.5,9/20,44,112.5
4329,D3,701.75,0.25,34,112.5
4330,G2,702.0,0.125,46,112.5
4331,B4,702.0,9/20,53,112.5
4332,C4,702.0,9/20,53,112.5
4333,D4,702.0,9/20,53,112.5
4334,D3,702.25,0.25,33,112.5
4335,F#3,702.5,0.25,34,112.5
4336,C4,702.5,9/20,45,112.5
4337,D4,702.5,9/20,45,112.5
4338,C5,702.5,9/20,45,112.5
4339,D3,702.75,0.25,32,112.5
4340,F#3,703.0,0.25,39,112.5
4341,D4,703.0,9/20,47,112.5
4342,A4,703.0,9/20,47,112.5
4343,C4,703.0,9/20,47,112.5
4344,D3,703.25,0.25,33,112.5
4345,F#3,703.5,0.25,35,112.5
4346,C4,703.5,9/20,42,112.5
4347,D4,703.5,9/20,42,112.5
4348,A4,703.5,9/20,42,112.5
4349,D3,703.75,0.25,34,112.5
4350,G2,704.0,0.125,46,112.5
4351,B3,704.0,9/20,53,112.5
4352,A4,704.0,9/20,53,112.5
4353,D4,704.0,9/20,53,112.5
4354,D3,704.25,0.25,33,112.5
4355,G3,704.5,0.25,34,112.5
4356,B3,704.5,9/20,45,112.5
4357,D4,704.5,9/20,45,112.5
4358,B4,704.5,9/20,45,112.5
4359,D3,704.75,0.25,33,112.5
4360,G3,705.0,0.25,39,112.5
4361,G4,705.0,9/20,47,112.5
4362,D4,705.0,9/20,47,112.5
4363,B3,705.0,9/20,47,112.5
4364,D3,705.25,0.25,33,112.5
4365,G3,705.5,0.25,35,112.5
4366,G4,705.5,9/20,42,112.5
4367,B3,705.5,9/20,42,112.5
4368,D4,705.5,9/20,42,112.5
4369,D3,705.75,0.25,34,112.5
4370,G2,706.0,0.125,46,112.5
4371,D4,706.0,9/20,53,112.5
4372,C4,706.0,9/20,53,112.5
4373,G4,706.0,9/20,53,112.5
4374,D3,706.25,0.25,33,112.5
4375,A3,706.5,0.25,34,112.5
4376,D4,706.5,9/20,45,112.5
4377,C4,706.5,9/20,45,112.5
4378,F#4,706.5,9/20,45,112.5
4379,D3,706.75,0.25,33,112.5
4380,C4,707.0,0.25,39,112.5
4381,A4,707.0,9/20,51,112.5
4382,F#4,707.0,9/20,51,112.5
4383,E5,707.0,9/20,51,112.5
4384,D3,707.25,0.25,33,112.5
4385,C4,707.5,0.25,35,112.5
4386,D5,707.5,9/20,48,112.5
4387,F#4,707.5,9/20,48,112.5
4388,A4,707.5,9/20,48,112.5
4389,D3,707.75,0.25,34,112.5
4390,G2,708.0,0.125,45,112.5
4391,B4,708.0,1479/1000,47,112.5
4392,G4,708.0,1479/1000,47,112.5
4393,D5,708.0,1479/1000,47,112.5
4394,D3,708.25,0.25,38,112.5
4395,B3,708.5,0.25,42,112.5
4396,D3,708.75,0.25,38,112.5
4397,B3,709.0,0.25,42,112.5
4398,D3,709.25,0.25,36,112.5
4399,G3,709.5,0.25,39,112.5
4400,D4,709.5,9/20,44,112.5
4401,B3,709.5,9/20,44,112.5
4402,B4,709.5,9/20,44,112.5
4403,D3,709.75,0.25,34,112.5
4404,G2,710.0,0.125,46,112.5
4405,D4,710.0,9/20,53,112.5
4406,C4,710.0,9/20,53,112.5
4407,B4,710.0,9/20,53,112.5
4408,D3,710.25,0.25,33,112.5
4409,F#3,710.5,0.25,34,112.5
4410,C5,710.5,9/20,45,112.5
4411,D4,710.5,9/20,45,112.5
4412,C4,710.5,9/20,45,112.5
4413,D3,710.75,0.25,32,112.5
4414,F#3,711.0,0.25,39,112.5
4415,A4,711.0,9/20,47,112.5
4416,C4,711.0,9/20,47,112.5
4417,D4,711.0,9/20,47,112.5
4418,D3,711.25,0.25,32,112.5
4419,F#3,711.5,0.25,35,112.5
4420,C4,711.5,9/20,42,112.5
4421,D4,711.5,9/20,42,112.5
4422,A4,711.5,9/20,42,112.5
4423,D3,711.75,0.25,34,112.5
4424,G2,712.0,0.125,46,112.5
4425,A4,712.0,9/20,53,112.5
4426,D4,712.0,9/20,53,112.5
4427,B3,712.0,9/20,53,112.5
4428,D3,712.25,0.25,32,112.5
4429,G3,712.5,0.25,34,112.5
4430,D4,712.5,9/20,45,112.5
4431,B3,712.5,9/20,45,112.5
4432,B4,712.5,9/20,45,112.5
4433,D3,712.75,0.25,32,112.5
4434,G3,713.0,0.25,39,112.5
4435,G4,713.0,9/20,47,112.5
4436,B3,713.0,9/20,47,112.5
4437,D4,713.0,9/20,47,112.5
4438,D3,713.25,0.25,33,112.5
4439,G3,713.5,0.25,35,112.5
4440,B3,713.5,9/20,42,112.5
4441,D4,713.5,9/20,42,112.5
4442,G4,713.5,9/20,42,112.5
4443,D3,713.75,0.25,34,112.5
4444,G2,714.0,0.125,46,112.5
4445,G4,714.0,9/20,53,112.5
4446,D4,714.0,9/20,53,112.5
4447,C4,714.0,9/20,53,112.5
4448,D3,714.25,0.25,33,112.5
4449,A3,714.5,0.25,34,112.5
4450,F#4,714.5,9/20,45,112.5
4451,C4,714.5,9/20,45,112.5
4452,D4,714.5,9/20,45,112.5
4453,D3,714.75,0.25,33,112.5
4454,G3,715.0,0.25,39,112.5
4455,D4,715.0,9/20,48,112.5
4456,C4,715.0,9/20,48,112.5
4457,B4,715.0,9/20,48,112.5
4458,D3,715.25,0.25,33,112.5
4459,F#3,715.5,0.25,35,112.5
4460,A4,715.5,9/20,46,112.5
4461,C4,715.5,9/20,46,112.5
4462,D4,715.5,9/20,46,112.5
4463,D3,715.75,0.25,34,112.5
4464,G2,716.0,0.125,45,112.5
4465,B3,716.0,2.0,45,112.5
4466,G4,716.0,2.0,45,112.5
4467,D4,716.0,2.0,45,112.5
4468,D3,716.25,0.25,35,112.5
4469,G3,716.5,0.25,38,112.5
4470,D3,716.75,0.25,36,112.5
4471,G3,717.0,0.25,42,112.5
4472,D3,717.25,0.25,33,112.5
4473,G2,717.5,0.25,36,112.5
4474,A2,717.75,0.25,36,112.5
4475,B-3,718.0,0.25,49,112.5
4476,B-2,718.0,0.25,39,112.5
4477,A3,718.25,0.25,42,112.5
4478,A2,718.25,0.25,33,112.5
4479,G3,718.5,0.25,42,112.5
4480,G2,718.5,0.25,33,112.5
4481,A3,718.75,0.25,42,112.5
4482,A2,718.75,0.25,33,112.5
4483,B-3,719.0,0.25,49,112.5
4484,B-2,719.0,0.25,39,112.5
4485,G3,719.25,0.25,43,112.5
4486,G2,719.25,0.25,34,112.5
4487,B-3,719.5,0.25,43,112.5
4488,B-2,719.5,0.25,34,112.5
4489,G3,719.75,0.25,43,112.5
4490,G2,719.75,0.25,34,112.5
4491,B-3,720.0,0.25,49,112.5
4492,B-2,720.0,0.25,39,112.5
4493,A3,720.25,0.25,42,112.5
4494,A2,720.25,0.25,31,112.5
4495,G3,720.5,0.25,42,112.5
4496,G2,720.5,0.25,33,112.5
4497,A3,720.75,0.25,42,112.5
4498,A2,720.75,0.25,32,112.5
4499,B-3,721.0,0.25,49,112.5
4500,B-2,721.0,0.25,39,112.5
4501,G3,721.25,0.25,43,112.5
4502,G2,721.25,0.25,34,112.5
4503,B-3,721.5,0.25,43,112.5
4504,B-2,721.5,0.25,34,112.5
4505,G3,721.75,0.25,43,112.5
4506,G2,721.75,0.25,34,112.5
4507,A2,722.0,0.25,43,112.5
4508,E4,722.0,0.5,46,112.5
4509,C#4,722.0,0.5,46,112.5
4510,G4,722.0,0.5,46,112.5
4511,B-4,722.0,0.5,46,112.5
4512,E2,722.25,0.25,32,112.5
4513,A1,722.5,0.25,34,112.5
4514,A4,722.5,0.25,38,112.5
4515,E4,722.5,0.25,38,112.5
4516,C#4,722.5,0.25,38,112.5
4517,G4,722.5,0.25,38,112.5
4518,E2,722.75,0.25,32,112.5
4519,A2,723.0,0.25,44,112.5
4520,C#4,723.0,0.25,38,112.5
4521,E4,723.0,0.25,38,112.5
4522,G4,723.0,0.25,38,112.5
4523,A4,723.0,0.25,38,112.5
4524,A1,723.25,0.25,34,112.5
4525,A2,723.5,0.25,36,112.5
4526,E4,723.5,0.25,38,112.5
4527,C#4,723.5,0.25,38,112.5
4528,G4,723.5,0.25,38,112.5
4529,A4,723.5,0.25,38,112.5
4530,A1,723.75,0.25,34,112.5
4531,A2,724.0,0.25,43,112.5
4532,G4,724.0,2.0,46,112.5
4533,C#4,724.0,2.0,46,112.5
4534,A4,724.0,2.0,46,112.5
4535,E4,724.0,2.0,46,112.5
4536,E2,724.25,0.25,32,112.5
4537,A1,724.5,0.25,34,112.5
4538,E2,724.75,0.25,33,112.5
4539,A2,725.0,0.25,44,112.5
4540,A1,725.25,0.25,33,112.5
4541,A2,725.5,0.25,36,112.5
4542,A1,725.75,0.25,33,112.5
4543,B-3,726.0,0.25,49,112.5
4544,B-2,726.0,0.25,39,112.5
4545,A3,726.25,0.25,41,112.5
4546,A2,726.25,0.25,33,112.5
4547,G3,726.5,0.25,42,112.5
4548,G2,726.5,0.25,33,112.5
4549,A3,726.75,0.25,41,112.5
4550,A2,726.75,0.25,33,112.5
4551,B-3,727.0,0.25,49,112.5
4552,B-2,727.0,0.25,39,112.5
4553,G3,727.25,0.25,41,112.5
4554,G2,727.25,0.25,34,112.5
4555,B-3,727.5,0.25,43,112.5
4556,B-2,727.5,0.25,34,112.5
4557,G3,727.75,0.25,41,112.5
4558,G2,727.75,0.25,34,112.5
4559,B-3,728.0,0.25,49,112.5
4560,B-2,728.0,0.25,39,112.5
4561,A3,728.25,0.25,41,112.5
4562,A2,728.25,0.25,33,112.5
4563,G3,728.5,0.25,42,112.5
4564,G2,728.5,0.25,33,112.5
4565,A3,728.75,0.25,40,112.5
4566,A2,728.75,0.25,33,112.5
4567,B-3,729.0,0.25,49,112.5
4568,B-2,729.0,0.25,39,112.5
4569,G3,729.25,0.25,41,112.5
4570,G2,729.25,0.25,34,112.5
4571,B-3,729.5,0.25,43,112.5
4572,B-2,729.5,0.25,34,112.5
4573,G3,729.75,0.25,41,112.5
4574,G2,729.75,0.25,34,112.5
4575,A2,730.0,0.25,43,112.5
4576,E4,730.0,0.5,46,112.5
4577,B-4,730.0,0.5,46,112.5
4578,C#4,730.0,0.5,46,112.5
4579,G4,730.0,0.5,46,112.5
4580,E2,730.25,0.25,32,112.5
4581,A1,730.5,0.25,34,112.5
4582,A4,730.5,0.25,38,112.5
4583,C#4,730.5,0.25,38,112.5
4584,G4,730.5,0.25,38,112.5
4585,E4,730.5,0.25,38,112.5
4586,E2,730.75,0.25,32,112.5
4587,A2,731.0,0.25,44,112.5
4588,G4,731.0,0.25,38,112.5
4589,C#4,731.0,0.25,38,112.5
4590,A4,731.0,0.25,38,112.5
4591,E4,731.0,0.25,38,112.5
4592,A1,731.25,0.25,34,112.5
4593,A2,731.5,0.25,36,112.5
4594,A4,731.5,0.25,38,112.5
4595,C#4,731.5,0.25,38,112.5
4596,E4,731.5,0.25,38,112.5
4597,G4,731.5,0.25,38,112.5
4598,A1,731.75,0.25,35,112.5
4599,A2,732.0,0.25,43,112.5
4600,E4,732.0,3979/1000,46,112.5
4601,A4,732.0,3979/1000,46,112.5
4602,C#4,732.0,3979/1000,46,112.5
4603,G4,732.0,3979/1000,46,112.5
4604,E2,732.25,0.25,34,112.5
4605,A1,732.5,0.25,37,112.5
4606,E2,732.75,0.25,34,112.5
4607,A2,733.0,0.25,44,112.5
4608,A1,733.25,0.25,36,112.5
4609,A2,733.5,0.25,36,112.5
4610,A1,733.75,0.25,35,112.5
4611,A2,734.0,0.25,43,112.5
4612,E2,734.25,0.25,34,112.5
4613,A1,734.5,0.25,37,112.5
4614,E2,734.75,0.25,34,112.5
4615,A2,735.0,0.25,44,112.5
4616,A1,735.25,0.25,35,112.5
4617,A2,735.5,0.25,36,112.5
4618,A1,735.75,0.25,35,112.5
4619,A4,736.0,0.25,43,112.5
4620,A2,736.0,0.5,36,112.5
4621,A3,736.25,0.25,37,112.5
4622,C#4,736.5,0.25,37,112.5
4623,E4,736.75,0.25,38,112.5
4624,A4,737.0,0.25,43,112.5
4625,E3,737.0,1.0,32,112.5
4626,A2,737.0,1.0,32,112.5
4627,G3,737.0,1.0,32,112.5
4628,A3,737.25,0.25,38,112.5
4629,A4,737.5,0.25,39,112.5
4630,A3,737.75,0.25,39,112.5
4631,C#5,738.0,0.25,43,112.5
4632,C#4,738.25,0.25,39,112.5
4633,E4,738.5,0.25,39,112.5
4634,A4,738.75,0.25,40,112.5
4635,C#5,739.0,0.25,45,112.5
4636,A2,739.0,1.0,33,112.5
4637,E3,739.0,1.0,33,112.5
4638,G3,739.0,1.0,33,112.5
4639,C#4,739.25,0.25,40,112.5
4640,C#5,739.5,0.25,40,112.5
4641,C#4,739.75,0.25,41,112.5
4642,E5,740.0,0.25,47,112.5
4643,E4,740.25,0.25,41,112.5
4644,A4,740.5,0.25,41,112.5
4645,C#5,740.75,0.25,42,112.5
4646,E5,741.0,0.25,49,112.5
4647,A2,741.0,1.0,36,112.5
4648,G3,741.0,1.0,36,112.5
4649,E3,741.0,1.0,36,112.5
4650,E4,741.25,0.25,44,112.5
4651,E5,741.5,0.25,45,112.5
4652,E4,741.75,0.25,46,112.5
4653,A5,742.0,0.25,53,112.5
4654,A4,742.25,0.25,46,112.5
4655,C#5,742.5,0.25,48,112.5
4656,E5,742.75,0.25,46,112.5
4657,A5,743.0,0.25,53,112.5
4658,A3,743.0,1.0,40,112.5
4659,C#4,743.0,1.0,40,112.5
4660,E4,743.0,1.0,40,112.5
4661,A4,743.25,0.25,45,112.5
4662,A5,743.5,0.25,47,112.5
4663,A4,743.75,0.25,46,112.5
4664,A5,744.0,0.25,53,112.5
4665,A4,744.25,0.25,45,112.5
4666,E-5,744.5,0.25,48,112.5
4667,F#5,744.75,0.25,47,112.5
4668,A5,745.0,0.25,53,112.5
4669,F#4,745.0,1.0,40,112.5
4670,E-4,745.0,1.0,40,112.5
4671,A3,745.0,1.0,40,112.5
4672,A4,745.25,0.25,45,112.5
4673,A5,745.5,0.25,47,112.5
4674,A4,745.75,0.25,45,112.5
4675,A5,746.0,0.25,53,112.5
4676,A4,746.25,0.25,46,112.5
4677,E5,746.5,0.25,48,112.5
4678,G5,746.75,0.25,47,112.5
4679,A5,747.0,0.25,53,112.5
4680,E4,747.0,1.0,40,112.5
4681,G4,747.0,1.0,40,112.5
4682,A3,747.0,1.0,40,112.5
4683,A4,747.25,0.25,45,112.5
4684,A5,747.5,0.25,47,112.5
4685,A4,747.75,0.25,45,112.5
4686,A5,748.0,0.25,53,112.5
4687,A4,748.25,0.25,46,112.5
4688,E5,748.5,0.25,48,112.5
4689,G5,748.75,0.25,46,112.5
4690,A5,749.0,0.25,53,112.5
4691,A3,749.0,3.0,40,112.5
4692,G4,749.0,3.0,40,112.5
4693,E4,749.0,3.0,40,112.5
4694,A4,749.25,0.25,45,112.5
4695,A5,749.5,0.25,47,112.5
4696,A4,749.75,0.25,46,112.5
4697,A5,750.0,0.25,53,112.5
4698,C#5,750.25,0.25,45,112.5
4699,A5,750.5,0.25,47,112.5
4700,C#5,750.75,0.25,45,112.5
4701,A5,751.0,0.25,53,112.5
4702,E5,751.25,0.25,45,112.5
4703,A5,751.5,0.25,47,112.5
4704,E5,751.75,0.25,45,112.5
4705,A5,752.0,0.25,58,112.5
4706,G5,752.25,0.25,47,112.5
4707,A5,752.5,0.25,49,112.5
4708,G5,752.75,0.25,48,112.5
4709,A5,753.0,0.25,58,112.5
4710,G#5,753.25,0.25,48,112.5
4711,A5,753.5,0.25,52,112.5
4712,G#5,753.75,0.25,50,112.5
4713,B5,754.0,0.25,59,112.5
4714,A5,754.25,0.25,50,112.5
4715,B5,754.5,0.25,54,112.5
4716,A5,754.75,0.25,51,112.5
4717,B5,755.0,0.25,63,112.5
4718,A5,755.25,0.25,51,112.5
4719,B5,755.5,0.25,56,112.5
4720,A5,755.75,0.25,51,112.5
4721,B5,756.0,0.25,61,112.5
4722,A5,756.25,0.25,55,112.5
4723,B5,756.5,0.25,56,112.5
4724,A5,756.75,0.25,57,112.5
4725,B5,757.0,0.25,66,112.5
4726,A5,757.25,0.25,60,112.5
4727,B5,757.5,0.25,60,112.5
4728,A5,757.75,0.25,61,112.5
4729,B5,758.0,0.25,70,112.5
4730,A5,758.25,0.25,58,112.5
4731,D6,758.5,0.25,57,112.5
4732,A5,758.75,0.25,56,112.5
4733,G#5,759.0,0.25,62,112.5
4734,B5,759.25,0.25,55,112.5
4735,A5,759.5,0.25,53,112.5
4736,F#5,759.75,0.25,52,112.5
4737,D5,760.0,0.5,49,112.5
4738,D4,760.0,0.25,33,112.5
4739,F#4,760.0,0.25,33,112.5
4740,E5,760.5,0.25,49,112.5
4741,F#4,760.5,0.25,28,112.5
4742,A3,760.5,0.25,28,112.5
4743,D5,760.75,0.25,35,112.5
4744,E5,761.0,0.25,48,112.5
4745,D4,761.0,0.25,33,112.5
4746,F#4,761.0,0.25,33,112.5
4747,D5,761.25,0.25,34,112.5
4748,F#5,761.5,0.25,48,112.5
4749,A3,761.5,0.25,28,112.5
4750,F#4,761.5,0.25,28,112.5
4751,E5,761.75,0.25,36,112.5
4752,D5,762.0,0.25,51,112.5
4753,G4,762.0,0.25,33,112.5
4754,E4,762.0,0.25,33,112.5
4755,C#5,762.25,0.25,44,112.5
4756,B4,762.5,0.25,46,112.5
4757,A3,762.5,0.25,28,112.5
4758,G4,762.5,0.25,28,112.5
4759,A4,762.75,0.25,43,112.5
4760,B4,763.0,0.25,49,112.5
4761,G4,763.0,0.25,33,112.5
4762,C#4,763.0,0.25,33,112.5
4763,C#5,763.25,0.25,45,112.5
4764,D5,763.5,0.25,47,112.5
4765,A3,763.5,0.25,28,112.5
4766,G4,763.5,0.25,28,112.5
4767,E5,763.75,0.25,49,112.5
4768,A4,764.0,0.5,54,112.5
4769,D4,764.0,0.25,33,112.5
4770,F#4,764.0,0.25,33,112.5
4771,B4,764.5,0.25,54,112.5
4772,A3,764.5,0.25,28,112.5
4773,F#4,764.5,0.25,28,112.5
4774,A4,764.75,0.25,37,112.5
4775,B4,765.0,0.25,54,112.5
4776,F#4,765.0,0.25,33,112.5
4777,D4,765.0,0.25,33,112.5
4778,A4,765.25,0.25,45,112.5
4779,F#5,765.5,0.25,60,112.5
4780,F#4,765.5,0.25,28,112.5
4781,A3,765.5,0.25,28,112.5
4782,D5,765.75,0.25,48,112.5
4783,C#5,766.0,0.25,53,112.5
4784,G4,766.0,0.25,33,112.5
4785,E4,766.0,0.25,33,112.5
4786,D5,766.25,0.25,50,112.5
4787,E5,766.5,0.25,53,112.5
4788,G4,766.5,0.25,30,112.5
4789,A3,766.5,0.25,30,112.5
4790,F#5,766.75,0.25,51,112.5
4791,G5,767.0,0.25,59,112.5
4792,C#4,767.0,0.25,33,112.5
4793,G4,767.0,0.25,33,112.5
4794,A5,767.25,0.25,55,112.5
4795,B5,767.5,0.25,64,112.5
4796,A3,767.5,0.25,30,112.5
4797,G4,767.5,0.25,30,112.5
4798,A5,767.75,231/1000,57,112.5
4799,A5,768.0,0.5,63,112.5
4800,D4,768.0,0.25,33,112.5
4801,F#4,768.0,0.25,33,112.5
4802,B5,768.5,0.25,56,112.5
4803,A3,768.5,0.25,28,112.5
4804,F#4,768.5,0.25,28,112.5
4805,A5,768.75,0.25,43,112.5
4806,B5,769.0,0.25,56,112.5
4807,D4,769.0,0.25,33,112.5
4808,F#4,769.0,0.25,33,112.5
4809,A5,769.25,0.25,45,112.5
4810,D6,769.5,0.25,60,112.5
4811,F#4,769.5,0.25,28,112.5
4812,A3,769.5,0.25,28,112.5
4813,C#6,769.75,0.25,43,112.5
4814,B5,770.0,0.062,53,112.5
4815,D4,770.0,0.25,33,112.5
4816,G4,770.0,0.25,33,112.5
4817,C#6,770.062,0.062,53,112.5
4818,B5,770.125,0.125,61,112.5
4819,B-5,770.25,0.25,56,112.5
4820,B5,770.5,0.25,61,112.5
4821,G3,770.5,0.25,28,112.5
4822,D4,770.5,0.25,28,112.5
4823,G4,770.5,0.25,28,112.5
4824,C#6,770.75,0.25,56,112.5
4825,B5,771.0,0.25,61,112.5
4826,G4,771.0,0.25,33,112.5
4827,D4,771.0,0.25,33,112.5
4828,G6,771.25,0.25,67,112.5
4829,F#6,771.5,0.25,61,112.5
4830,B3,771.5,0.25,28,112.5
4831,D4,771.5,0.25,28,112.5
4832,G4,771.5,0.25,28,112.5
4833,D6,771.75,0.25,57,112.5
4834,A5,772.0,0.5,70,112.5
4835,F#4,772.0,0.25,33,112.5
4836,D4,772.0,0.25,33,112.5
4837,B5,772.5,0.25,66,112.5
4838,F#4,772.5,0.25,28,112.5
4839,A3,772.5,0.25,28,112.5
4840,A5,772.75,0.25,47,112.5
4841,B5,773.0,0.25,66,112.5
4842,F#4,773.0,0.25,33,112.5
4843,D4,773.0,0.25,33,112.5
4844,A5,773.25,0.25,47,112.5
4845,B5,773.5,0.25,68,112.5
4846,A3,773.5,0.25,28,112.5
4847,F#4,773.5,0.25,28,112.5
4848,A5,773.75,0.25,49,112.5
4849,B5,774.0,0.25,69,112.5
4850,D4,774.0,0.25,33,112.5
4851,F#4,774.0,0.25,33,112.5
4852,A5,774.25,0.25,56,112.5
4853,D6,774.5,0.25,63,112.5
4854,F#4,774.5,0.25,30,112.5
4855,A3,774.5,0.25,30,112.5
4856,A5,774.75,0.25,47,112.5
4857,G#5,775.0,0.25,61,112.5
4858,F#4,775.0,0.25,33,112.5
4859,D4,775.0,0.25,33,112.5
4860,B5,775.25,0.25,54,112.5
4861,A5,775.5,0.25,59,112.5
4862,A3,775.5,0.25,30,112.5
4863,F#4,775.5,0.25,30,112.5
4864,F#5,775.75,0.25,51,112.5
4865,D5,776.0,0.5,49,112.5
4866,D4,776.0,0.25,33,112.5
4867,F#4,776.0,0.25,33,112.5
4868,E5,776.5,0.25,49,112.5
4869,A3,776.5,0.25,28,112.5
4870,F#4,776.5,0.25,28,112.5
4871,D5,776.75,0.25,35,112.5
4872,E5,777.0,0.25,50,112.5
4873,D4,777.0,0.25,33,112.5
4874,F#4,777.0,0.25,33,112.5
4875,D5,777.25,0.25,35,112.5
4876,F#5,777.5,0.25,54,112.5
4877,A3,777.5,0.25,28,112.5
4878,F#4,777.5,0.25,28,112.5
4879,E5,777.75,0.25,40,112.5
4880,D5,778.0,0.25,51,112.5
4881,E4,778.0,0.25,33,112.5
4882,G4,778.0,0.25,33,112.5
4883,C#5,778.25,0.25,45,112.5
4884,B4,778.5,0.25,51,112.5
4885,A3,778.5,0.25,28,112.5
4886,G4,778.5,0.25,28,112.5
4887,A4,778.75,0.25,46,112.5
4888,B4,779.0,0.25,56,112.5
4889,G4,779.0,0.25,33,112.5
4890,E4,779.0,0.25,33,112.5
4891,C#5,779.25,0.25,58,112.5
4892,D5,779.5,0.25,61,112.5
4893,A3,779.5,0.25,28,112.5
4894,G4,779.5,0.25,28,112.5
4895,E5,779.75,229/1000,63,112.5
4896,F#5,780.0,0.5,66,112.5
4897,F#4,780.0,0.25,33,112.5
4898,B-3,780.0,0.25,33,112.5
4899,F5,780.5,0.25,62,112.5
4900,B-3,780.5,0.25,28,112.5
4901,C#4,780.5,0.25,28,112.5
4902,F#5,780.75,0.25,52,112.5
4903,F5,781.0,0.25,62,112.5
4904,B-3,781.0,0.25,33,112.5
4905,F#4,781.0,0.25,33,112.5
4906,F#5,781.25,0.25,45,112.5
4907,F5,781.5,0.25,62,112.5
4908,B-3,781.5,0.25,28,112.5
4909,C#4,781.5,0.25,28,112.5
4910,F#5,781.75,0.25,45,112.5
4911,G5,782.0,0.25,62,112.5
4912,D4,782.0,0.25,33,112.5
4913,B3,782.0,0.25,33,112.5
4914,B5,782.25,0.25,57,112.5
4915,E6,782.5,0.25,67,112.5
4916,G4,782.5,0.25,29,112.5
4917,D4,782.5,0.25,29,112.5
4918,B3,782.5,0.25,29,112.5
4919,D6,782.75,0.25,54,112.5
4920,C#6,783.0,0.25,62,112.5
4921,D4,783.0,0.25,32,112.5
4922,G3,783.0,0.25,32,112.5
4923,G4,783.0,0.25,32,112.5
4924,B5,783.25,0.25,54,112.5
4925,A5,783.5,0.25,52,112.5
4926,G4,783.5,0.25,29,112.5
4927,B3,783.5,0.25,29,112.5
4928,D4,783.5,0.25,29,112.5
4929,G5,783.75,0.25,52,112.5
4930,F#5,784.0,0.5,58,112.5
4931,F#4,784.0,0.25,33,112.5
4932,D4,784.0,0.25,33,112.5
4933,A5,784.5,0.25,54,112.5
4934,F#4,784.5,0.25,28,112.5
4935,A3,784.5,0.25,28,112.5
4936,F#5,784.75,0.25,41,112.5
4937,A5,785.0,0.25,55,112.5
4938,F#4,785.0,0.25,33,112.5
4939,D4,785.0,0.25,33,112.5
4940,F#5,785.25,0.25,41,112.5
4941,A5,785.5,0.25,56,112.5
4942,F#4,785.5,0.25,28,112.5
4943,A3,785.5,0.25,28,112.5
4944,F#5,785.75,0.25,46,112.5
4945,E5,786.0,0.25,54,112.5
4946,G4,786.0,0.25,33,112.5
4947,C#4,786.0,0.25,33,112.5
4948,F#5,786.25,0.25,50,112.5
4949,G5,786.5,0.25,54,112.5
4950,A3,786.5,0.25,28,112.5
4951,G4,786.5,0.25,28,112.5
4952,B5,786.75,0.25,60,112.5
4953,A5,787.0,0.25,57,112.5
4954,G4,787.0,0.25,33,112.5
4955,C#4,787.0,0.25,33,112.5
4956,G5,787.25,0.25,49,112.5
4957,F#5,787.5,0.25,57,112.5
4958,A3,787.5,0.25,28,112.5
4959,G4,787.5,0.25,28,112.5
4960,E5,787.75,0.25,46,112.5
4961,D5,788.0,0.5,49,112.5
4962,D4,788.0,0.25,33,112.5
4963,F#4,788.0,0.25,33,112.5
4964,E5,788.5,0.25,49,112.5
4965,F#4,788.5,0.25,28,112.5
4966,A3,788.5,0.25,28,112.5
4967,D5,788.75,0.25,33,112.5
4968,E5,789.0,0.25,49,112.5
4969,F#4,789.0,0.25,33,112.5
4970,D4,789.0,0.25,33,112.5
4971,D5,789.25,0.25,34,112.5
4972,E5,789.5,0.25,48,112.5
4973,A3,789.5,0.25,28,112.5
4974,F#4,789.5,0.25,28,112.5
4975,D5,789.75,0.25,40,112.5
4976,D4,790.0,0.25,61,112.5
4977,D3,790.0,0.25,52,112.5
4978,E4,790.25,0.25,52,112.5
4979,E3,790.25,0.25,46,112.5
4980,F#4,790.5,0.25,55,112.5
4981,F#3,790.5,0.25,46,112.5
4982,B4,790.75,0.25,52,112.5
4983,B3,790.75,0.25,46,112.5
4984,A4,791.0,0.25,61,112.5
4985,A3,791.0,0.25,52,112.5
4986,F#4,791.25,0.25,52,112.5
4987,F#3,791.25,0.25,46,112.5
4988,E4,791.5,0.25,55,112.5
4989,E3,791.5,0.25,46,112.5
4990,D4,791.75,0.25,52,112.5
4991,D3,791.75,0.25,46,112.5
4992,E4,792.0,0.5,62,112.5
4993,C#3,792.0,0.25,48,112.5
4994,G3,792.0,0.25,48,112.5
4995,F#4,792.5,0.25,59,112.5
4996,G3,792.5,0.25,46,112.5
4997,A2,792.5,0.25,46,112.5
4998,E4,792.75,0.25,44,112.5
4999,F#4,793.0,0.25,57,112.5
5000,C#3,793.0,0.25,48,112.5
5001,G3,793.0,0.25,48,112.5
5002,E4,793.25,0.25,44,112.5
5003,F#4,793.5,0.25,57,112.5
5004,G3,793.5,0.25,46,112.5
5005,A2,793.5,0.25,46,112.5
5006,E4,793.75,0.25,44,112.5
5007,E4,794.0,0.25,57,112.5
5008,G3,794.0,0.25,46,112.5
5009,C#3,794.0,0.25,46,112.5
5010,F#4,794.25,0.25,52,112.5
5011,G4,794.5,0.25,52,112.5
5012,G3,794.5,0.25,46,112.5
5013,A2,794.5,0.25,46,112.5
5014,C#5,794.75,0.25,60,112.5
5015,B4,795.0,0.25,61,112.5
5016,G3,795.0,0.25,46,112.5
5017,C#3,795.0,0.25,46,112.5
5018,A4,795.25,0.25,49,112.5
5019,G4,795.5,0.25,55,112.5
5020,A2,795.5,0.25,46,112.5
5021,G3,795.5,0.25,46,112.5
5022,E4,795.75,0.25,49,112.5
5023,F#4,796.0,0.5,58,112.5
5024,D3,796.0,0.25,48,112.5
5025,F#3,796.0,0.25,48,112.5
5026,F4,796.5,0.25,51,112.5
5027,F#3,796.5,0.25,46,112.5
5028,A2,796.5,0.25,46,112.5
5029,F#4,796.75,0.25,39,112.5
5030,F4,797.0,0.25,51,112.5
5031,D3,797.0,0.25,48,112.5
5032,F#3,797.0,0.25,48,112.5
5033,F#4,797.25,0.25,40,112.5
5034,A4,797.5,0.25,51,112.5
5035,F#3,797.5,0.25,46,112.5
5036,A2,797.5,0.25,46,112.5
5037,C#5,797.75,0.25,56,112.5
5038,D5,798.0,0.25,63,112.5
5039,F#3,798.0,0.25,46,112.5
5040,D3,798.0,0.25,46,112.5
5041,E5,798.25,0.25,59,112.5
5042,F#5,798.5,0.25,64,112.5
5043,A2,798.5,0.25,46,112.5
5044,F#3,798.5,0.25,46,112.5
5045,B5,798.75,0.25,69,112.5
5046,A5,799.0,0.25,65,112.5
5047,F#3,799.0,0.25,46,112.5
5048,D3,799.0,0.25,46,112.5
5049,F#5,799.25,0.25,56,112.5
5050,E5,799.5,0.25,60,112.5
5051,A3,799.5,0.25,46,112.5
5052,F#3,799.5,0.25,46,112.5
5053,D5,799.75,0.25,56,112.5
5054,C#5,800.0,0.25,67,112.5
5055,A3,800.0,0.25,46,112.5
5056,C#4,800.0,0.25,46,112.5
5057,B4,800.25,0.25,55,112.5
5058,A4,800.5,0.25,58,112.5
5059,C#4,800.5,0.25,46,112.5
5060,E3,800.5,0.25,46,112.5
5061,F#5,800.75,0.25,67,112.5
5062,E5,801.0,0.25,61,112.5
5063,A3,801.0,0.25,46,112.5
5064,C#4,801.0,0.25,46,112.5
5065,C#5,801.25,0.25,55,112.5
5066,B4,801.5,0.25,60,112.5
5067,C#4,801.5,0.25,46,112.5
5068,E3,801.5,0.25,46,112.5
5069,A4,801.75,0.25,52,112.5
5070,G#4,802.0,0.25,67,112.5
5071,D4,802.0,0.25,46,112.5
5072,B3,802.0,0.25,46,112.5
5073,F#4,802.25,0.25,52,112.5
5074,E4,802.5,0.25,62,112.5
5075,E3,802.5,0.25,46,112.5
5076,D4,802.5,0.25,46,112.5
5077,G#4,802.75,0.25,52,112.5
5078,E5,803.0,0.25,64,112.5
5079,D4,803.0,0.25,42,112.5
5080,G#3,803.0,0.25,42,112.5
5081,D5,803.25,0.25,55,112.5
5082,C#5,803.5,0.25,59,112.5
5083,E3,803.5,0.25,46,112.5
5084,D4,803.5,0.25,46,112.5
5085,B4,803.75,0.25,52,112.5
5086,A4,804.0,0.5,61,112.5
5087,A3,804.0,1.0,53,112.5
5088,C#4,804.0,1.0,53,112.5
5089,B4,804.5,0.25,61,112.5
5090,A4,804.75,0.25,53,112.5
5091,E5,805.0,0.25,56,112.5
5092,C#5,805.0,0.25,56,112.5
5093,E5,805.5,0.25,52,112.5
5094,C#5,805.5,0.25,52,112.5
5095,A3,806.0,0.25,54,112.5
5096,A4,806.0,0.25,43,112.5
5097,C#5,806.0,0.25,43,112.5
5098,E5,806.0,0.25,43,112.5
5099,B3,806.25,0.25,41,112.5
5100,C#4,806.5,0.25,51,112.5
5101,E5,806.5,0.25,46,112.5
5102,A4,806.5,0.25,46,112.5
5103,C#5,806.5,0.25,46,112.5
5104,F#4,806.75,0.25,42,112.5
5105,E4,807.0,0.25,54,112.5
5106,C#5,807.0,0.25,54,112.5
5107,E5,807.0,0.25,54,112.5
5108,C#4,807.25,0.25,40,112.5
5109,B3,807.5,0.25,50,112.5
5110,C#5,807.5,0.25,52,112.5
5111,E5,807.5,0.25,52,112.5
5112,A3,807.75,0.25,46,112.5
5113,A3,808.0,0.5,57,112.5
5114,B4,808.0,0.25,52,112.5
5115,D5,808.0,0.25,52,112.5
5116,F#5,808.0,0.25,52,112.5
5117,B3,808.5,0.25,57,112.5
5118,F#5,808.5,0.25,48,112.5
5119,B4,808.5,0.25,48,112.5
5120,D5,808.5,0.25,48,112.5
5121,A3,808.75,0.25,42,112.5
5122,G#3,809.0,0.25,53,112.5
5123,D5,809.0,0.25,50,112.5
5124,B4,809.0,0.25,50,112.5
5125,E5,809.0,0.25,50,112.5
5126,A3,809.25,0.25,38,112.5
5127,G#3,809.5,0.25,54,112.5
5128,D5,809.5,0.25,48,112.5
5129,E5,809.5,0.25,48,112.5
5130,B4,809.5,0.25,48,112.5
5131,A3,809.75,0.25,39,112.5
5132,B3,810.0,0.25,54,112.5
5133,B4,810.0,0.25,51,112.5
5134,G#4,810.0,0.25,51,112.5
5135,E5,810.0,0.25,51,112.5
5136,C#4,810.25,0.25,43,112.5
5137,D4,810.5,0.25,49,112.5
5138,B4,810.5,0.25,44,112.5
5139,G#4,810.5,0.25,44,112.5
5140,E5,810.5,0.25,44,112.5
5141,F#4,810.75,0.25,43,112.5
5142,E4,811.0,0.25,54,112.5
5143,D5,811.0,0.25,49,112.5
5144,E5,811.0,0.25,49,112.5
5145,B4,811.0,0.25,49,112.5
5146,D4,811.25,0.25,44,112.5
5147,C#4,811.5,0.25,50,112.5
5148,E5,811.5,0.25,45,112.5
5149,D5,811.5,0.25,45,112.5
5150,B4,811.5,0.25,45,112.5
5151,B3,811.75,0.25,44,112.5
5152,C#4,812.0,0.5,57,112.5
5153,F#5,812.0,0.25,52,112.5
5154,C#5,812.0,0.25,52,112.5
5155,A4,812.0,0.25,52,112.5
5156,C4,812.5,0.25,57,112.5
5157,C#5,812.5,0.25,48,112.5
5158,A4,812.5,0.25,48,112.5
5159,F#5,812.5,0.25,48,112.5
5160,C#4,812.75,0.25,50,112.5
5161,E4,813.0,0.25,54,112.5
5162,A4,813.0,0.25,48,112.5
5163,E5,813.0,0.25,48,112.5
5164,C#5,813.0,0.25,48,112.5
5165,C#4,813.25,0.25,51,112.5
5166,B3,813.5,0.25,54,112.5
5167,A4,813.5,0.25,45,112.5
5168,C#5,813.5,0.25,45,112.5
5169,E5,813.5,0.25,45,112.5
5170,A3,813.75,0.25,51,112.5
5171,G3,814.0,0.25,50,112.5
5172,C#5,814.0,0.25,47,112.5
5173,A5,814.0,0.25,47,112.5
5174,E5,814.0,0.25,47,112.5
5175,A4,814.0,0.25,47,112.5
5176,A3,814.25,0.25,46,112.5
5177,C#4,814.5,0.25,50,112.5
5178,A4,814.5,0.25,43,112.5
5179,C#5,814.5,0.25,43,112.5
5180,A5,814.5,0.25,43,112.5
5181,E5,814.5,0.25,43,112.5
5182,F#4,814.75,0.25,43,112.5
5183,E4,815.0,0.25,48,112.5
5184,A5,815.0,0.25,50,112.5
5185,A4,815.0,0.25,50,112.5
5186,E5,815.0,0.25,50,112.5
5187,C#5,815.0,0.25,50,112.5
5188,C#4,815.25,0.25,47,112.5
5189,A3,815.5,0.25,53,112.5
5190,A4,815.5,0.25,48,112.5
5191,C#5,815.5,0.25,48,112.5
5192,A5,815.5,0.25,48,112.5
5193,E5,815.5,0.25,48,112.5
5194,G3,815.75,0.25,49,112.5
5195,F#3,816.0,0.25,58,112.5
5196,D5,816.0,0.25,51,112.5
5197,A5,816.0,0.25,51,112.5
5198,A4,816.0,0.25,51,112.5
5199,G#3,816.25,0.25,46,112.5
5200,A3,816.5,0.25,51,112.5
5201,D5,816.5,0.25,54,112.5
5202,A5,816.5,0.25,54,112.5
5203,A4,816.5,0.25,54,112.5
5204,D4,816.75,0.25,46,112.5
5205,F3,817.0,0.25,52,112.5
5206,B4,817.0,0.25,55,112.5
5207,D5,817.0,0.25,55,112.5
5208,B5,817.0,0.25,55,112.5
5209,G#3,817.25,0.25,41,112.5
5210,A3,817.5,0.25,46,112.5
5211,D5,817.5,0.25,49,112.5
5212,B5,817.5,0.25,49,112.5
5213,B4,817.5,0.25,49,112.5
5214,D4,817.75,0.25,41,112.5
5215,E3,818.0,0.25,50,112.5
5216,E5,818.0,0.25,62,112.5
5217,C#5,818.0,0.25,62,112.5
5218,A3,818.25,0.25,41,112.5
5219,B3,818.5,0.25,46,112.5
5220,E5,818.5,0.25,56,112.5
5221,C#5,818.5,0.25,56,112.5
5222,C#4,818.75,0.25,41,112.5
5223,E4,819.0,0.25,48,112.5
5224,E5,819.0,0.25,53,112.5
5225,G#4,819.0,0.25,53,112.5
5226,G#5,819.0,0.25,53,112.5
5227,D5,819.0,0.25,53,112.5
5228,D4,819.25,0.25,41,112.5
5229,C#4,819.5,0.25,44,112.5
5230,G#4,819.5,0.25,46,112.5
5231,G#5,819.5,0.25,46,112.5
5232,D5,819.5,0.25,46,112.5
5233,E5,819.5,0.25,46,112.5
5234,B3,819.75,0.25,41,112.5
5235,A4,820.0,249/250,50,112.5
5236,A3,820.0,6/25,49,112.5
5237,C#5,820.0,2.0,53,112.5
5238,A5,820.0,2.0,53,112.5
5239,E5,820.0,2.0,53,112.5
5240,A3,820.5,6/25,49,112.5
5241,A3,821.0,0.25,39,112.5
5242,C#4,821.0,0.25,39,112.5
5243,A4,821.0,0.25,39,112.5
5244,C#4,821.5,0.25,48,112.5
5245,A4,821.5,0.25,48,112.5
5246,A3,821.5,0.25,48,112.5
5247,B3,822.0,0.25,51,112.5
5248,D4,822.0,0.25,51,112.5
5249,G#4,822.0,0.25,51,112.5
5250,G#4,822.5,0.25,48,112.5
5251,B3,822.5,0.25,48,112.5
5252,D4,822.5,0.25,48,112.5
5253,E4,823.0,0.25,43,112.5
5254,C#4,823.0,0.25,43,112.5
5255,G4,823.0,0.25,43,112.5
5256,C#4,823.5,0.25,39,112.5
5257,G4,823.5,0.25,39,112.5
5258,E4,823.5,0.25,39,112.5
5259,F#4,824.0,0.25,33,112.5
5260,D4,824.0,0.25,33,112.5
5261,A3,824.5,0.25,28,112.5
5262,F#4,824.5,0.25,28,112.5
5263,F#4,825.0,0.25,33,112.5
5264,D4,825.0,0.25,33,112.5
5265,A3,825.5,0.25,28,112.5
5266,F#4,825.5,0.25,28,112.5
5267,B5,826.0,0.25,65,112.5
5268,D4,826.0,0.25,33,112.5
5269,F#4,826.0,0.25,33,112.5
5270,A5,826.25,0.25,53,112.5
5271,D6,826.5,0.25,57,112.5
5272,F#4,826.5,0.25,28,112.5
5273,A3,826.5,0.25,28,112.5
5274,A5,826.75,0.25,56,112.5
5275,G#5,827.0,0.25,62,112.5
5276,D4,827.0,0.25,33,112.5
5277,F#4,827.0,0.25,33,112.5
5278,B5,827.25,0.25,55,112.5
5279,A5,827.5,0.25,53,112.5
5280,A3,827.5,0.25,28,112.5
5281,F#4,827.5,0.25,28,112.5
5282,F#5,827.75,0.25,52,112.5
5283,D5,828.0,0.5,49,112.5
5284,F#4,828.0,0.25,33,112.5
5285,D4,828.0,0.25,33,112.5
5286,E5,828.5,0.25,49,112.5
5287,F#4,828.5,0.25,28,112.5
5288,A3,828.5,0.25,28,112.5
5289,D5,828.75,0.25,35,112.5
5290,E5,829.0,0.25,49,112.5
5291,D4,829.0,0.25,33,112.5
5292,F#4,829.0,0.25,33,112.5
5293,D5,829.25,0.25,33,112.5
5294,F#5,829.5,0.25,48,112.5
5295,A3,829.5,0.25,28,112.5
5296,F#4,829.5,0.25,28,112.5
5297,E5,829.75,0.25,41,112.5
5298,D5,830.0,0.25,51,112.5
5299,E4,830.0,0.25,33,112.5
5300,G4,830.0,0.25,33,112.5
5301,C#5,830.25,0.25,44,112.5
5302,B4,830.5,0.25,46,112.5
5303,A3,830.5,0.25,28,112.5
5304,G4,830.5,0.25,28,112.5
5305,A4,830.75,0.25,45,112.5
5306,B4,831.0,0.25,49,112.5
5307,C#4,831.0,0.25,33,112.5
5308,G4,831.0,0.25,33,112.5
5309,C#5,831.25,0.25,45,112.5
5310,D5,831.5,0.25,47,112.5
5311,A3,831.5,0.25,28,112.5
5312,G4,831.5,0.25,28,112.5
5313,E5,831.75,0.25,49,112.5
5314,A4,832.0,0.5,54,112.5
5315,F#4,832.0,0.25,33,112.5
5316,D4,832.0,0.25,33,112.5
5317,B4,832.5,0.25,54,112.5
5318,F#4,832.5,0.25,28,112.5
5319,A3,832.5,0.25,28,112.5
5320,A4,832.75,0.25,39,112.5
5321,B4,833.0,0.25,54,112.5
5322,F#4,833.0,0.25,33,112.5
5323,D4,833.0,0.25,33,112.5
5324,A4,833.25,0.25,45,112.5
5325,F#5,833.5,0.25,60,112.5
5326,F#4,833.5,0.25,28,112.5
5327,A3,833.5,0.25,28,112.5
5328,D5,833.75,0.25,48,112.5
5329,C#5,834.0,0.25,53,112.5
5330,E4,834.0,0.25,33,112.5
5331,G4,834.0,0.25,33,112.5
5332,D5,834.25,0.25,50,112.5
5333,E5,834.5,0.25,53,112.5
5334,A3,834.5,0.25,30,112.5
5335,G4,834.5,0.25,30,112.5
5336,F#5,834.75,0.25,51,112.5
5337,G5,835.0,0.25,59,112.5
5338,G4,835.0,0.25,33,112.5
5339,C#4,835.0,0.25,33,112.5
5340,A5,835.25,0.25,53,112.5
5341,B5,835.5,0.25,64,112.5
5342,G4,835.5,0.25,30,112.5
5343,A3,835.5,0.25,30,112.5
5344,A5,835.75,231/1000,57,112.5
5345,A5,836.0,0.5,63,112.5
5346,F#4,836.0,0.25,33,112.5
5347,D4,836.0,0.25,33,112.5
5348,B5,836.5,0.25,56,112.5
5349,A3,836.5,0.25,28,112.5
5350,F#4,836.5,0.25,28,112.5
5351,A5,836.75,0.25,48,112.5
5352,B5,837.0,0.25,55,112.5
5353,D4,837.0,0.25,33,112.5
5354,F#4,837.0,0.25,33,112.5
5355,A5,837.25,0.25,46,112.5
5356,D6,837.5,0.25,60,112.5
5357,A3,837.5,0.25,28,112.5
5358,F#4,837.5,0.25,28,112.5
5359,C#6,837.75,0.25,52,112.5
5360,B5,838.0,0.062,48,112.5
5361,G4,838.0,0.25,33,112.5
5362,D4,838.0,0.25,33,112.5
5363,C#6,838.062,0.062,47,112.5
5364,B5,838.125,0.125,61,112.5
5365,B-5,838.25,0.25,56,112.5
5366,B5,838.5,0.25,61,112.5
5367,G4,838.5,0.25,28,112.5
5368,D4,838.5,0.25,28,112.5
5369,G3,838.5,0.25,28,112.5
5370,C#6,838.75,0.25,56,112.5
5371,B5,839.0,0.25,61,112.5
5372,D4,839.0,0.25,33,112.5
5373,G4,839.0,0.25,33,112.5
5374,G6,839.25,0.25,67,112.5
5375,D6,839.5,0.25,61,112.5
5376,G4,839.5,0.25,28,112.5
5377,D4,839.5,0.25,28,112.5
5378,B3,839.5,0.25,28,112.5
5379,B5,839.75,0.25,57,112.5
5380,A5,840.0,0.5,70,112.5
5381,D4,840.0,0.25,33,112.5
5382,F#4,840.0,0.25,33,112.5
5383,B5,840.5,0.25,66,112.5
5384,A3,840.5,0.25,28,112.5
5385,F#4,840.5,0.25,28,112.5
5386,A5,840.75,0.25,54,112.5
5387,B5,841.0,0.25,67,112.5
5388,F#4,841.0,0.25,33,112.5
5389,D4,841.0,0.25,33,112.5
5390,A5,841.25,0.25,53,112.5
5391,B5,841.5,0.25,68,112.5
5392,A3,841.5,0.25,28,112.5
5393,F#4,841.5,0.25,28,112.5
5394,A5,841.75,0.25,63,112.5
5395,B-5,842.0,0.25,58,112.5
5396,D4,842.0,0.25,28,112.5
5397,F4,842.0,0.25,28,112.5
5398,A5,842.25,0.25,42,112.5
5399,D6,842.5,0.25,53,112.5
5400,F4,842.5,0.25,24,112.5
5401,A3,842.5,0.25,24,112.5
5402,A5,842.75,0.25,43,112.5
5403,G#5,843.0,0.25,51,112.5
5404,D4,843.0,0.25,28,112.5
5405,F4,843.0,0.25,28,112.5
5406,B-5,843.25,0.25,43,112.5
5407,A5,843.5,0.25,50,112.5
5408,A3,843.5,0.25,24,112.5
5409,F4,843.5,0.25,24,112.5
5410,F5,843.75,0.25,43,112.5
5411,D5,844.0,0.5,41,112.5
5412,D4,844.0,0.25,28,112.5
5413,F4,844.0,0.25,28,112.5
5414,E5,844.5,0.25,41,112.5
5415,F4,844.5,0.25,24,112.5
5416,A3,844.5,0.25,24,112.5
5417,D5,844.75,0.25,33,112.5
5418,E5,845.0,0.25,42,112.5
5419,D4,845.0,0.25,28,112.5
5420,F4,845.0,0.25,28,112.5
5421,D5,845.25,0.25,31,112.5
5422,E5,845.5,0.25,45,112.5
5423,F4,845.5,0.25,24,112.5
5424,A3,845.5,0.25,24,112.5
5425,D5,845.75,0.25,34,112.5
5426,G5,846.0,0.25,43,112.5
5427,E-4,846.0,0.25,28,112.5
5428,F4,846.0,0.25,28,112.5
5429,F5,846.25,0.25,38,112.5
5430,E5,846.5,0.25,44,112.5
5431,F4,846.5,0.25,24,112.5
5432,E-4,846.5,0.25,24,112.5
5433,A3,846.5,0.25,24,112.5
5434,F5,846.75,0.25,41,112.5
5435,G5,847.0,0.25,51,112.5
5436,C4,847.0,0.25,29,112.5
5437,F4,847.0,0.25,29,112.5
5438,E-4,847.0,0.25,29,112.5
5439,A5,847.25,0.25,54,112.5
5440,B-5,847.5,0.25,58,112.5
5441,E-4,847.5,0.25,26,112.5
5442,F4,847.5,0.25,26,112.5
5443,F3,847.5,0.25,26,112.5
5444,C6,847.75,229/1000,61,112.5
5445,D6,848.0,0.5,66,112.5
5446,B-3,848.0,0.25,32,112.5
5447,F4,848.0,0.25,32,112.5
5448,D4,848.0,0.25,32,112.5
5449,C#6,848.5,0.25,62,112.5
5450,F4,848.5,0.25,28,112.5
5451,D4,848.5,0.25,28,112.5
5452,D6,848.75,0.25,50,112.5
5453,C#6,849.0,0.25,62,112.5
5454,B-3,849.0,0.25,32,112.5
5455,D4,849.0,0.25,32,112.5
5456,F4,849.0,0.25,32,112.5
5457,D6,849.25,0.25,48,112.5
5458,E6,849.5,0.25,62,112.5
5459,D4,849.5,0.25,28,112.5
5460,F4,849.5,0.25,28,112.5
5461,D6,849.75,0.25,53,112.5
5462,E6,850.0,0.25,62,112.5
5463,G#4,850.0,0.25,32,112.5
5464,D4,850.0,0.25,32,112.5
5465,B-3,850.0,0.25,32,112.5
5466,D6,850.25,0.25,60,112.5
5467,F6,850.5,0.25,67,112.5
5468,F4,850.5,0.25,29,112.5
5469,D4,850.5,0.25,29,112.5
5470,B-3,850.5,0.25,29,112.5
5471,E6,850.75,0.25,60,112.5
5472,D6,851.0,0.25,69,112.5
5473,D4,851.0,0.25,33,112.5
5474,G#4,851.0,0.25,33,112.5
5475,B-3,851.0,0.25,33,112.5
5476,E6,851.25,0.25,66,112.5
5477,F6,851.5,0.25,68,112.5
5478,D4,851.5,0.25,31,112.5
5479,F4,851.5,0.25,31,112.5
5480,B-3,851.5,0.25,31,112.5
5481,G#6,851.75,0.25,71,112.5
5482,A6,852.0,0.75,74,112.5
5483,A4,852.0,0.25,35,112.5
5484,D4,852.0,0.25,35,112.5
5485,A3,852.0,0.25,35,112.5
5486,F#4,852.0,0.25,35,112.5
5487,F#4,852.5,0.25,28,112.5
5488,D4,852.5,0.25,28,112.5
5489,A4,852.5,0.25,28,112.5
5490,F#6,852.75,0.25,61,112.5
5491,A6,853.0,0.25,69,112.5
5492,A3,853.0,0.25,32,112.5
5493,A4,853.0,0.25,32,112.5
5494,F#4,853.0,0.25,32,112.5
5495,F#6,853.25,0.25,54,112.5
5496,A6,853.5,0.25,64,112.5
5497,F#4,853.5,0.25,28,112.5
5498,D4,853.5,0.25,28,112.5
5499,A4,853.5,0.25,28,112.5
5500,F#6,853.75,0.25,56,112.5
5501,E6,854.0,0.25,62,112.5
5502,G4,854.0,0.25,32,112.5
5503,A4,854.0,0.25,32,112.5
5504,C#4,854.0,0.25,32,112.5
5505,F#6,854.25,0.25,57,112.5
5506,G6,854.5,0.25,62,112.5
5507,A3,854.5,0.25,28,112.5
5508,G4,854.5,0.25,28,112.5
5509,A4,854.5,0.25,28,112.5
5510,B6,854.75,0.25,69,112.5
5511,A6,855.0,0.25,65,112.5
5512,A4,855.0,0.25,32,112.5
5513,G4,855.0,0.25,32,112.5
5514,C#4,855.0,0.25,32,112.5
5515,G6,855.25,0.25,56,112.5
5516,F#6,855.5,0.25,65,112.5
5517,A4,855.5,0.25,28,112.5
5518,A3,855.5,0.25,28,112.5
5519,G4,855.5,0.25,28,112.5
5520,E6,855.75,0.25,57,112.5
5521,A6,856.0,0.75,74,112.5
5522,A3,856.0,0.25,35,112.5
5523,F#4,856.0,0.25,35,112.5
5524,A4,856.0,0.25,35,112.5
5525,F#4,856.5,0.25,28,112.5
5526,A4,856.5,0.25,28,112.5
5527,D4,856.5,0.25,28,112.5
5528,F#6,856.75,0.25,61,112.5
5529,A6,857.0,0.25,69,112.5
5530,A3,857.0,0.25,32,112.5
5531,A4,857.0,0.25,32,112.5
5532,F#4,857.0,0.25,32,112.5
5533,F#6,857.25,0.25,54,112.5
5534,D6,857.5,0.25,64,112.5
5535,A4,857.5,0.25,28,112.5
5536,F#4,857.5,0.25,28,112.5
5537,D4,857.5,0.25,28,112.5
5538,C#6,857.75,0.25,56,112.5
5539,B5,858.0,0.25,62,112.5
5540,D4,858.0,0.25,32,112.5
5541,G3,858.0,0.25,32,112.5
5542,G4,858.0,0.25,32,112.5
5543,D6,858.25,0.25,56,112.5
5544,G6,858.5,0.25,60,112.5
5545,B3,858.5,0.25,27,112.5
5546,G4,858.5,0.25,27,112.5
5547,D4,858.5,0.25,27,112.5
5548,F#6,858.75,0.25,65,112.5
5549,E6,859.0,0.25,60,112.5
5550,D4,859.0,0.25,29,112.5
5551,B3,859.0,0.25,29,112.5
5552,G4,859.0,0.25,29,112.5
5553,D6,859.25,0.25,50,112.5
5554,C#6,859.5,0.25,57,112.5
5555,D4,859.5,0.25,25,112.5
5556,G4,859.5,0.25,25,112.5
5557,B5,859.75,0.25,49,112.5
5558,A5,860.0,0.75,55,112.5
5559,F#4,860.0,0.25,26,112.5
5560,A4,860.0,0.25,26,112.5
5561,D4,860.0,0.25,26,112.5
5562,A4,860.5,0.25,20,112.5
5563,F#4,860.5,0.25,20,112.5
5564,A3,860.5,0.25,20,112.5
5565,F#5,860.75,0.25,45,112.5
5566,A5,861.0,0.25,51,112.5
5567,A4,861.0,0.25,24,112.5
5568,D4,861.0,0.25,24,112.5
5569,F#4,861.0,0.25,24,112.5
5570,F#5,861.25,0.25,40,112.5
5571,A5,861.5,0.25,48,112.5
5572,A4,861.5,0.25,20,112.5
5573,A3,861.5,0.25,20,112.5
5574,F#4,861.5,0.25,20,112.5
5575,F#5,861.75,0.25,42,112.5
5576,E5,862.0,0.25,46,112.5
5577,G4,862.0,0.25,24,112.5
5578,A4,862.0,0.25,24,112.5
5579,C#4,862.0,0.25,24,112.5
5580,F#5,862.25,0.25,42,112.5
5581,G5,862.5,0.25,46,112.5
5582,A3,862.5,0.25,20,112.5
5583,G4,862.5,0.25,20,112.5
5584,A4,862.5,0.25,20,112.5
5585,B5,862.75,0.25,51,112.5
5586,A5,863.0,0.25,48,112.5
5587,G4,863.0,0.25,24,112.5
5588,C#4,863.0,0.25,24,112.5
5589,A4,863.0,0.25,24,112.5
5590,G5,863.25,0.25,42,112.5
5591,F#5,863.5,0.25,48,112.5
5592,A3,863.5,0.25,20,112.5
5593,G4,863.5,0.25,20,112.5
5594,A4,863.5,0.25,20,112.5
5595,E5,863.75,0.25,42,112.5
5596,A5,864.0,0.75,55,112.5
5597,A3,864.0,0.25,26,112.5
5598,A4,864.0,0.25,26,112.5
5599,F#4,864.0,0.25,26,112.5
5600,F#4,864.5,0.25,20,112.5
5601,D4,864.5,0.25,20,112.5
5602,A4,864.5,0.25,20,112.5
5603,F#5,864.75,0.25,45,112.5
5604,A5,865.0,0.25,51,112.5
5605,A4,865.0,0.25,24,112.5
5606,A3,865.0,0.25,24,112.5
5607,F#4,865.0,0.25,24,112.5
5608,F#5,865.25,0.25,40,112.5
5609,D5,865.5,0.25,48,112.5
5610,D4,865.5,0.25,20,112.5
5611,F#4,865.5,0.25,20,112.5
5612,A4,865.5,0.25,20,112.5
5613,C#5,865.75,0.25,42,112.5
5614,B4,866.0,0.25,46,112.5
5615,G4,866.0,0.25,24,112.5
5616,G3,866.0,0.25,24,112.5
5617,D4,866.0,0.25,24,112.5
5618,D5,866.25,0.25,42,112.5
5619,G5,866.5,0.25,46,112.5
5620,D4,866.5,0.25,20,112.5
5621,B3,866.5,0.25,20,112.5
5622,G4,866.5,0.25,20,112.5
5623,F#5,866.75,0.25,51,112.5
5624,E5,867.0,0.25,48,112.5
5625,D4,867.0,0.25,24,112.5
5626,B3,867.0,0.25,24,112.5
5627,G4,867.0,0.25,24,112.5
5628,D5,867.25,0.25,42,112.5
5629,C#5,867.5,0.25,48,112.5
5630,D4,867.5,0.25,21,112.5
5631,G4,867.5,0.25,21,112.5
5632,B4,867.75,0.25,42,112.5
5633,A4,868.0,0.75,55,112.5
5634,F#4,868.0,0.25,27,112.5
5635,D4,868.0,0.25,27,112.5
5636,F#4,868.5,0.25,21,112.5
5637,A3,868.5,0.25,21,112.5
5638,F#6,868.75,0.25,49,112.5
5639,A6,869.0,0.25,56,112.5
5640,F#4,869.0,0.25,24,112.5
5641,D4,869.0,0.25,24,112.5
5642,F#6,869.25,0.25,44,112.5
5643,A6,869.5,0.25,52,112.5
5644,A3,869.5,0.25,21,112.5
5645,F#4,869.5,0.25,21,112.5
5646,F#6,869.75,0.25,46,112.5
5647,E6,870.0,0.25,50,112.5
5648,C#4,870.0,0.25,24,112.5
5649,G4,870.0,0.25,24,112.5
5650,F#6,870.25,0.25,46,112.5
5651,G6,870.5,0.25,50,112.5
5652,G4,870.5,0.25,21,112.5
5653,A3,870.5,0.25,21,112.5
5654,B6,870.75,0.25,56,112.5
5655,A6,871.0,0.25,52,112.5
5656,C#4,871.0,0.25,24,112.5
5657,G4,871.0,0.25,24,112.5
5658,G6,871.25,0.25,46,112.5
5659,F#6,871.5,0.25,52,112.5
5660,A3,871.5,0.25,21,112.5
5661,G4,871.5,0.25,21,112.5
5662,E6,871.75,0.25,46,112.5
5663,A6,872.0,0.75,60,112.5
5664,A3,872.0,0.25,27,112.5
5665,F#4,872.0,0.25,27,112.5
5666,D4,872.5,0.25,21,112.5
5667,F#4,872.5,0.25,21,112.5
5668,F#6,872.75,0.25,49,112.5
5669,A6,873.0,0.25,56,112.5
5670,F#4,873.0,0.25,24,112.5
5671,A3,873.0,0.25,24,112.5
5672,F#6,873.25,0.25,44,112.5
5673,D6,873.5,0.25,52,112.5
5674,D4,873.5,0.25,21,112.5
5675,F#4,873.5,0.25,21,112.5
5676,C#6,873.75,0.25,46,112.5
5677,B5,874.0,0.25,50,112.5
5678,D4,874.0,0.25,24,112.5
5679,G4,874.0,0.25,24,112.5
5680,G3,874.0,0.25,24,112.5
5681,D6,874.25,0.25,46,112.5
5682,G6,874.5,0.25,50,112.5
5683,D4,874.5,0.25,20,112.5
5684,B3,874.5,0.25,20,112.5
5685,G4,874.5,0.25,20,112.5
5686,F#6,874.75,0.25,55,112.5
5687,E6,875.0,0.25,51,112.5
5688,G4,875.0,0.25,23,112.5
5689,B3,875.0,0.25,23,112.5
5690,D4,875.0,0.25,23,112.5
5691,D6,875.25,0.25,45,112.5
5692,C#6,875.5,0.25,50,112.5
5693,G4,875.5,0.25,20,112.5
5694,D4,875.5,0.25,20,112.5
5695,B5,875.75,0.25,45,112.5
5696,A5,876.0,0.75,53,112.5
5697,D4,876.0,0.25,26,112.5
5698,F#4,876.0,0.25,26,112.5
5699,A3,876.5,0.25,20,112.5
5700,F#4,876.5,0.25,20,112.5
5701,F#5,876.75,0.25,43,112.5
5702,A5,877.0,0.25,48,112.5
5703,D4,877.0,0.25,23,112.5
5704,F#4,877.0,0.25,23,112.5
5705,F#5,877.25,0.25,38,112.5
5706,A5,877.5,0.25,45,112.5
5707,A3,877.5,0.25,20,112.5
5708,F#4,877.5,0.25,20,112.5
5709,F#5,877.75,0.25,39,112.5
5710,E5,878.0,0.25,43,112.5
5711,G4,878.0,0.25,22,112.5
5712,C#4,878.0,0.25,22,112.5
5713,F#5,878.25,0.25,39,112.5
5714,G5,878.5,0.25,43,112.5
5715,G4,878.5,0.25,19,112.5
5716,A3,878.5,0.25,19,112.5
5717,B5,878.75,0.25,47,112.5
5718,A5,879.0,0.25,44,112.5
5719,G4,879.0,0.25,22,112.5
5720,C#4,879.0,0.25,22,112.5
5721,G5,879.25,0.25,39,112.5
5722,F#5,879.5,0.25,44,112.5
5723,A3,879.5,0.25,19,112.5
5724,G4,879.5,0.25,19,112.5
5725,E5,879.75,0.25,38,112.5
5726,A5,880.0,0.75,50,112.5
5727,D4,880.0,0.25,24,112.5
5728,F#4,880.0,0.25,24,112.5
5729,F#4,880.5,0.25,18,112.5
5730,A3,880.5,0.25,18,112.5
5731,F#5,880.75,0.25,40,112.5
5732,A5,881.0,0.25,45,112.5
5733,D4,881.0,0.25,22,112.5
5734,F#4,881.0,0.25,22,112.5
5735,F#5,881.25,0.25,36,112.5
5736,A5,881.5,0.25,42,112.5
5737,A3,881.5,0.25,18,112.5
5738,F#4,881.5,0.25,18,112.5
5739,F#5,881.75,0.25,37,112.5
5740,E5,882.0,0.25,40,112.5
5741,C#4,882.0,0.25,21,112.5
5742,G4,882.0,0.25,21,112.5
5743,F#5,882.25,0.25,36,112.5
5744,G5,882.5,0.25,40,112.5
5745,A3,882.5,0.25,18,112.5
5746,G4,882.5,0.25,18,112.5
5747,B5,882.75,0.25,44,112.5
5748,A5,883.0,0.25,41,112.5
5749,G4,883.0,0.25,21,112.5
5750,C#4,883.0,0.25,21,112.5
5751,G5,883.25,0.25,36,112.5
5752,F#5,883.5,0.25,41,112.5
5753,A3,883.5,0.25,18,112.5
5754,G4,883.5,0.25,18,112.5
5755,E5,883.75,0.25,36,112.5
5756,D5,884.0,0.5,44,112.5
5757,D4,884.0,0.25,26,112.5
5758,F#4,884.0,0.25,26,112.5
5759,E5,884.5,0.25,44,112.5
5760,F#4,884.5,0.25,22,112.5
5761,C#4,884.5,0.25,22,112.5
5762,D5,884.75,0.25,36,112.5
5763,E5,885.0,0.25,41,112.5
5764,B3,885.0,0.25,26,112.5
5765,F#4,885.0,0.25,26,112.5
5766,D5,885.25,0.25,36,112.5
5767,C#5,885.5,0.25,43,112.5
5768,F#4,885.5,0.25,22,112.5
5769,A3,885.5,0.25,22,112.5
5770,B4,885.75,0.25,39,112.5
5771,A4,886.0,0.5,44,112.5
5772,C#4,886.0,0.25,26,112.5
5773,G4,886.0,0.25,26,112.5
5774,B4,886.5,0.25,44,112.5
5775,E4,886.5,0.25,22,112.5
5776,G4,886.5,0.25,22,112.5
5777,A4,886.75,0.25,36,112.5
5778,B4,887.0,0.25,44,112.5
5779,C#4,887.0,0.25,26,112.5
5780,G4,887.0,0.25,26,112.5
5781,A4,887.25,0.25,40,112.5
5782,F#5,887.5,0.25,47,112.5
5783,A3,887.5,0.25,22,112.5
5784,G4,887.5,0.25,22,112.5
5785,E5,887.75,0.25,39,112.5
5786,D5,888.0,0.5,44,112.5
5787,F#4,888.0,0.25,26,112.5
5788,D4,888.0,0.25,26,112.5
5789,E5,888.5,0.25,43,112.5
5790,F#4,888.5,0.25,22,112.5
5791,C#4,888.5,0.25,22,112.5
5792,D5,888.75,0.25,36,112.5
5793,E5,889.0,0.25,40,112.5
5794,B3,889.0,0.25,26,112.5
5795,F#4,889.0,0.25,26,112.5
5796,D5,889.25,0.25,36,112.5
5797,C#5,889.5,0.25,43,112.5
5798,A3,889.5,0.25,22,112.5
5799,F#4,889.5,0.25,22,112.5
5800,B4,889.75,0.25,39,112.5
5801,A4,890.0,0.5,44,112.5
5802,G4,890.0,0.25,26,112.5
5803,C#4,890.0,0.25,26,112.5
5804,B4,890.5,0.25,44,112.5
5805,G4,890.5,0.25,22,112.5
5806,E4,890.5,0.25,22,112.5
5807,A4,890.75,0.25,36,112.5
5808,B4,891.0,0.25,44,112.5
5809,G4,891.0,0.25,26,112.5
5810,C#4,891.0,0.25,26,112.5
5811,A4,891.25,0.25,40,112.5
5812,F#5,891.5,0.25,42,112.5
5813,G4,891.5,0.25,22,112.5
5814,A3,891.5,0.25,22,112.5
5815,E5,891.75,0.25,40,112.5
5816,D5,892.0,0.25,44,112.5
5817,D3,892.0,0.25,26,112.5
5818,F#3,892.0,0.25,26,112.5
5819,D6,892.25,0.25,36,112.5
5820,E6,892.5,0.25,44,112.5
5821,C#3,892.5,0.25,22,112.5
5822,F#3,892.5,0.25,22,112.5
5823,D6,892.75,0.25,36,112.5
5824,E6,893.0,0.25,44,112.5
5825,B2,893.0,0.25,26,112.5
5826,F#3,893.0,0.25,26,112.5
5827,D6,893.25,0.25,36,112.5
5828,C#6,893.5,0.25,43,112.5
5829,A2,893.5,0.25,22,112.5
5830,F#3,893.5,0.25,22,112.5
5831,B5,893.75,0.25,39,112.5
5832,A5,894.0,0.5,44,112.5
5833,G3,894.0,0.25,26,112.5
5834,C#3,894.0,0.25,26,112.5
5835,B5,894.5,0.25,44,112.5
5836,E3,894.5,0.25,22,112.5
5837,G3,894.5,0.25,22,112.5
5838,A5,894.75,0.25,36,112.5
5839,B5,895.0,0.25,44,112.5
5840,G3,895.0,0.25,26,112.5
5841,C#3,895.0,0.25,26,112.5
5842,A5,895.25,0.25,40,112.5
5843,F#6,895.5,0.25,42,112.5
5844,A2,895.5,0.25,22,112.5
5845,G3,895.5,0.25,22,112.5
5846,E6,895.75,0.25,40,112.5
5847,D6,896.0,0.5,44,112.5
5848,D3,896.0,0.25,26,112.5
5849,F#3,896.0,0.25,26,112.5
5850,E6,896.5,0.25,44,112.5
5851,C#3,896.5,0.25,22,112.5
5852,F#3,896.5,0.25,22,112.5
5853,D6,896.75,0.25,36,112.5
5854,E6,897.0,0.25,44,112.5
5855,B2,897.0,0.25,26,112.5
5856,F#3,897.0,0.25,26,112.5
5857,D6,897.25,0.25,36,112.5
5858,C#6,897.5,0.25,43,112.5
5859,A2,897.5,0.25,22,112.5
5860,F#3,897.5,0.25,22,112.5
5861,B5,897.75,0.25,39,112.5
5862,A5,898.0,0.5,44,112.5
5863,G3,898.0,0.25,26,112.5
5864,C#3,898.0,0.25,26,112.5
5865,B5,898.5,0.25,44,112.5
5866,E3,898.5,0.25,22,112.5
5867,G3,898.5,0.25,22,112.5
5868,A5,898.75,0.25,36,112.5
5869,B5,899.0,0.25,44,112.5
5870,G3,899.0,0.25,26,112.5
5871,C#3,899.0,0.25,26,112.5
5872,A5,899.25,0.25,40,112.5
5873,F#6,899.5,0.25,42,112.5
5874,A2,899.5,0.25,22,112.5
5875,G3,899.5,0.25,22,112.5
5876,E6,899.75,0.25,40,112.5
5877,D6,900.0,0.5,44,112.5
5878,D3,900.0,0.25,26,112.5
5879,F#3,900.0,0.25,26,112.5
5880,F#6,900.5,0.25,44,112.5
5881,A2,900.5,0.25,22,112.5
5882,F#3,900.5,0.25,22,112.5
5883,D6,900.75,0.25,36,112.5
5884,F#6,901.0,0.25,44,112.5
5885,F#3,901.0,0.25,25,112.5
5886,D3,901.0,0.25,25,112.5
5887,D6,901.25,0.25,36,112.5
5888,F#6,901.5,0.25,43,112.5
5889,A2,901.5,0.25,21,112.5
5890,F#3,901.5,0.25,21,112.5
5891,D6,901.75,0.25,39,112.5
5892,F#6,902.0,0.5,44,112.5
5893,D3,902.0,0.25,25,112.5
5894,F#3,902.0,0.25,25,112.5
5895,A6,902.5,0.25,44,112.5
5896,A2,902.5,0.25,21,112.5
5897,F#3,902.5,0.25,21,112.5
5898,F#6,902.75,0.25,36,112.5
5899,A6,903.0,0.25,44,112.5
5900,D3,903.0,0.25,24,112.5
5901,F#3,903.0,0.25,24,112.5
5902,F#6,903.25,0.25,40,112.5
5903,A6,903.5,0.25,42,112.5
5904,F#3,903.5,0.25,20,112.5
5905,A2,903.5,0.25,20,112.5
5906,F#6,903.75,0.25,39,112.5
5907,A6,904.0,0.5,44,112.5
5908,D3,904.0,0.25,24,112.5
5909,F#2,904.0,0.25,24,112.5
5910,D7,904.5,0.25,49,112.5
5911,A2,904.5,0.25,18,112.5
5912,A6,904.75,0.25,36,112.5
5913,D7,905.0,0.25,49,112.5
5914,F#2,905.0,0.25,24,112.5
5915,D3,905.0,0.25,24,112.5
5916,A6,905.25,0.25,36,112.5
5917,D7,905.5,0.25,43,112.5
5918,A2,905.5,0.25,18,112.5
5919,A6,905.75,0.25,39,112.5
5920,D7,906.0,0.25,47,112.5
5921,D3,906.0,0.25,23,112.5
5922,F#2,906.0,0.25,23,112.5
5923,A6,906.25,0.25,39,112.5
5924,D7,906.5,0.25,44,112.5
5925,A2,906.5,0.25,18,112.5
5926,A6,906.75,0.25,36,112.5
5927,D7,907.0,0.25,44,112.5
5928,F#2,907.0,0.25,22,112.5
5929,D3,907.0,0.25,22,112.5
5930,A6,907.25,0.25,40,112.5
5931,F#6,907.5,0.25,42,112.5
5932,A2,907.5,0.25,17,112.5
5933,A6,907.75,0.25,37,112.5
5934,D7,908.0,0.5,43,112.5
5935,F#6,908.0,0.5,43,112.5
5936,D3,908.0,0.25,22,112.5
5937,D2,908.0,0.25,22,112.5
5938,D7,909.0,0.25,44,112.5
5939,F#2,909.0,0.25,24,112.5
5940,A6,909.25,0.25,36,112.5
5941,F#6,909.5,0.25,43,112.5
5942,A2,909.5,0.25,20,112.5
5943,A6,909.75,0.25,39,112.5
5944,F#6,910.0,0.5,39,112.5
5945,D7,910.0,0.5,39,112.5
5946,D3,910.0,0.25,22,112.5
5947,D2,910.0,0.25,22,112.5
5948,D7,911.0,0.25,44,112.5
5949,F#2,911.0,0.25,23,112.5
5950,A6,911.25,0.25,40,112.5
5951,F#6,911.5,0.25,44,112.5
5952,A2,911.5,0.25,19,112.5
5953,A6,911.75,0.25,39,112.5
5954,D7,912.0,0.5,42,112.5
5955,F#6,912.0,0.5,42,112.5
5956,D3,912.0,0.25,20,112.5
5957,D2,912.0,0.25,20,112.5
5958,A5,914.0,0.75,38,112.5
5959,F#4,914.0,0.75,20,112.5
5960,A3,914.0,0.75,20,112.5
5961,B5,914.75,0.25,34,112.5
5962,A5,915.0,0.75,38,112.5
5963,A3,915.0,0.75,20,112.5
5964,F#4,915.0,0.75,20,112.5
5965,F#5,915.75,0.25,34,112.5
5966,D5,916.0,0.75,38,112.5
5967,F#4,916.0,0.75,20,112.5
5968,D4,916.0,0.75,20,112.5
5969,D4,918.0,0.75,29,112.5
5970,F#4,918.0,0.75,29,112.5
5971,D5,918.0,0.75,29,112.5
5972,D2,918.0,0.75,20,112.5
5973,A2,918.0,0.75,20,112.5
5974,A2,919.0,0.75,22,112.5
5975,D4,920.0,2.0,29,112.5
5976,F#4,920.0,2.0,29,112.5
5977,D5,920.0,2.0,29,112.5
5978,D2,920.0,2.0,19,112.5
5979,A2,920.0,2.0,19,112.5
5980,D3,920.0,2.0,19,112.5
