,note_name,start_time,duration,velocity,tempo
0,C4,0.0,83/1000,55,48.5
1,C3,0.0,4.0,51,48.5
2,F2,0.0,4.0,43,48.5
3,G#3,0.0,3.0,51,48.5
4,F4,0.083,83/1000,60,48.5
5,G#4,0.167,83/1000,66,48.5
6,C5,0.25,1.5,75,48.5
7,B-4,1.75,0.25,57,48.5
8,G#4,2.0,0.75,67,48.5
9,B-4,2.75,0.25,58,48.5
10,G4,3.0,0.75,68,48.5
11,E3,3.0,1.0,40,48.5
12,G2,3.0,1.0,40,48.5
13,G#4,3.75,0.25,51,48.5
14,F4,4.0,0.75,60,48.5
15,F3,4.0,4.0,43,48.5
16,G#2,4.0,1.0,43,48.5
17,F2,4.0,6.0,43,48.5
18,F#4,4.75,0.25,51,48.5
19,E-4,5.0,0.75,62,48.5
20,A2,5.0,1.0,39,48.5
21,F4,5.75,0.25,52,48.5
22,C#4,6.0,0.75,60,48.5
23,G2,6.0,1.0,43,48.5
24,E-4,6.75,0.25,51,48.5
25,C4,7.0,0.75,60,48.5
26,A2,7.0,1.0,40,48.5
27,C#4,7.75,0.25,51,48.5
28,B-3,8.0,0.75,60,48.5
29,C4,8.75,0.25,53,48.5
30,G#3,9.0,0.75,63,48.5
31,B-3,9.75,0.25,60,48.5
32,F#3,10.0,0.75,68,48.5
33,C#3,10.0,1.0,44,48.5
34,F3,10.0,2.0,43,48.5
35,G#3,10.75,0.25,63,48.5
36,F3,11.0,0.75,72,48.5
37,C3,11.0,1.0,41,48.5
38,G3,11.75,0.25,67,48.5
39,E3,12.0,0.5,78,48.5
40,B-2,12.0,1.0,45,48.5
41,C#3,12.0,1.0,45,48.5
42,C#5,13.0,0.5,70,48.5
43,G4,13.0,0.5,70,48.5
44,B-4,13.0,0.5,70,48.5
45,C3,13.0,1.0,42,48.5
46,G#2,13.0,1.0,42,48.5
47,B-2,14.0,0.5,52,48.5
48,G2,14.0,0.5,52,48.5
49,C5,15.0,83/1000,41,48.5
50,E3,15.0,0.5,50,48.5
51,G3,15.0,0.5,50,48.5
52,B-3,15.0,0.5,50,48.5
53,C#4,15.0,0.5,50,48.5
54,C#5,15.083,83/1000,41,48.5
55,E-5,15.167,83/1000,41,48.5
56,C#5,15.25,0.5,47,48.5
57,C5,15.75,0.25,41,48.5
58,C5,16.0,1.0,47,48.5
59,F5,17.0,1333/1000,53,48.5
60,G#3,18.0,1.0,32,48.5
61,F3,18.0,1.0,32,48.5
62,G4,18.333,333/1000,39,48.5
63,B-4,18.667,333/1000,39,48.5
64,C#5,19.0,333/1000,44,48.5
65,B-4,19.333,333/1000,38,48.5
66,G4,19.667,333/1000,37,48.5
67,F4,20.0,2.0,46,48.5
68,B-2,20.0,1.0,29,48.5
69,C#3,20.0,1.0,29,48.5
70,G3,20.0,1.0,29,48.5
71,E4,22.0,0.5,41,48.5
72,C3,22.0,2.5,29,48.5
73,F3,22.333,333/1000,32,48.5
74,F#5,22.5,0.25,51,48.5
75,G#3,22.667,333/1000,34,48.5
76,G5,22.75,0.25,53,48.5
77,G#5,23.0,0.25,56,48.5
78,C4,23.0,333/1000,37,48.5
79,A5,23.25,0.25,58,48.5
80,B-3,23.333,333/1000,31,48.5
81,B-5,23.5,0.25,61,48.5
82,G#3,23.667,333/1000,31,48.5
83,B5,23.75,0.25,63,48.5
84,C5,24.0,83/1000,55,48.5
85,G3,24.0,0.5,35,48.5
86,F5,24.083,83/1000,60,48.5
87,G#5,24.167,83/1000,66,48.5
88,C6,24.25,1.5,76,48.5
89,B-5,25.75,0.25,47,48.5
90,G#5,26.0,0.25,60,48.5
91,C3,26.0,4.0,51,48.5
92,G#3,26.0,3.0,51,48.5
93,F2,26.0,4.0,43,48.5
94,B-5,26.25,0.125,50,48.5
95,G#5,26.375,0.125,50,48.5
96,G5,26.5,0.125,46,48.5
97,G#5,26.625,0.125,46,48.5
98,B-5,26.75,0.25,54,48.5
99,G5,27.0,0.25,60,48.5
100,G#5,27.25,0.125,49,48.5
101,G5,27.375,0.125,49,48.5
102,F5,27.5,0.125,45,48.5
103,G5,27.625,0.125,45,48.5
104,G#5,27.75,0.25,51,48.5
105,F5,28.0,0.25,60,48.5
106,G5,28.25,0.125,48,48.5
107,F5,28.375,0.125,48,48.5
108,E5,28.5,0.125,43,48.5
109,F5,28.625,0.125,43,48.5
110,F#5,28.75,0.25,49,48.5
111,E-5,29.0,0.25,62,48.5
112,E3,29.0,1.0,40,48.5
113,G2,29.0,1.0,40,48.5
114,F5,29.25,0.125,49,48.5
115,E-5,29.375,0.125,49,48.5
116,D5,29.5,0.125,44,48.5
117,E-5,29.625,0.125,44,48.5
118,F5,29.75,0.25,52,48.5
119,C#5,30.0,0.25,60,48.5
120,F3,30.0,4.0,43,48.5
121,G#2,30.0,1.0,43,48.5
122,F2,30.0,4.5,43,48.5
123,E-5,30.25,0.125,49,48.5
124,C#5,30.375,0.125,49,48.5
125,C5,30.5,0.125,47,48.5
126,C#5,30.625,0.125,47,48.5
127,E-5,30.75,0.25,51,48.5
128,C5,31.0,0.25,60,48.5
129,A2,31.0,1.0,39,48.5
130,C#5,31.25,0.125,50,48.5
131,C5,31.375,0.125,50,48.5
132,B4,31.5,0.125,44,48.5
133,C5,31.625,0.125,44,48.5
134,C#5,31.75,0.25,51,48.5
135,B-4,32.0,0.25,60,48.5
136,G2,32.0,1.0,43,48.5
137,C#5,32.25,0.25,52,48.5
138,B-4,32.5,0.25,52,48.5
139,C#5,32.75,0.25,48,48.5
140,G#4,33.0,0.25,63,48.5
141,A2,33.0,1.0,40,48.5
142,C#5,33.25,0.25,56,48.5
143,G#4,33.5,0.25,57,48.5
144,C#5,33.75,0.25,55,48.5
145,F#4,34.0,0.25,68,48.5
146,C#5,34.25,0.25,62,48.5
147,F#4,34.5,0.25,63,48.5
148,C#3,34.5,0.5,44,48.5
149,F3,34.5,0.5,43,48.5
150,C#5,34.75,0.25,59,48.5
151,F4,35.0,0.25,72,48.5
152,C#3,35.0,0.25,34,48.5
153,F3,35.0,0.25,34,48.5
154,C#5,35.25,0.25,65,48.5
155,F4,35.5,0.25,67,48.5
156,E-3,35.5,0.25,36,48.5
157,C3,35.5,0.25,36,48.5
158,C#5,35.75,0.25,67,48.5
159,E4,36.0,0.5,90,48.5
160,C3,36.0,0.25,40,48.5
161,E-3,36.0,0.25,40,48.5
162,C#3,36.5,0.25,43,48.5
163,B-2,36.5,0.25,43,48.5
164,B-5,37.0,0.5,80,48.5
165,C#6,37.0,0.5,80,48.5
166,G5,37.0,0.5,80,48.5
167,B-2,37.0,0.25,47,48.5
168,C#3,37.0,0.25,47,48.5
169,C3,37.5,0.25,50,48.5
170,G#2,37.5,0.25,50,48.5
171,C3,38.0,0.25,54,48.5
172,G#2,38.0,0.25,54,48.5
173,B-2,38.5,0.5,59,48.5
174,G2,38.5,0.5,59,48.5
175,C5,39.0,83/1000,41,48.5
176,C#5,39.083,83/1000,41,48.5
177,E-5,39.167,83/1000,41,48.5
178,C#5,39.25,0.5,47,48.5
179,G3,39.5,0.5,58,48.5
180,B-3,39.5,0.5,58,48.5
181,E3,39.5,0.5,58,48.5
182,C#4,39.5,0.5,58,48.5
183,C5,39.75,0.25,41,48.5
184,C5,40.0,333/1000,46,48.5
185,G#5,40.333,333/1000,53,48.5
186,G5,40.667,333/1000,47,48.5
187,F5,41.0,333/1000,47,48.5
188,C5,41.333,333/1000,43,48.5
189,G#4,41.667,333/1000,38,48.5
190,G4,42.0,333/1000,47,48.5
191,E-5,42.333,333/1000,52,48.5
192,F3,42.5,1.0,32,48.5
193,G#3,42.5,1.0,32,48.5
194,C5,42.667,333/1000,39,48.5
195,C#5,43.0,333/1000,44,48.5
196,B-4,43.333,333/1000,38,48.5
197,G4,43.667,333/1000,34,48.5
198,F4,44.0,333/1000,53,48.5
199,C4,44.333,333/1000,48,48.5
200,G3,44.5,1.0,29,48.5
201,C#3,44.5,1.0,29,48.5
202,B-2,44.5,1.0,29,48.5
203,F4,44.667,333/1000,49,48.5
204,G#4,45.0,333/1000,58,48.5
205,F4,45.333,333/1000,50,48.5
206,C#5,45.667,333/1000,51,48.5
207,C5,46.0,0.5,66,48.5
208,G#3,46.5,0.5,38,48.5
209,C3,46.5,0.5,38,48.5
210,F3,46.5,0.5,38,48.5
211,E5,47.0,0.375,70,48.5
212,G4,47.0,0.375,70,48.5
213,C5,47.0,0.375,70,48.5
214,G#3,47.5,333/1000,54,48.5
215,F3,47.833,333/1000,46,48.5
216,F5,48.0,0.375,70,48.5
217,G#4,48.0,0.375,70,48.5
218,C5,48.0,0.375,70,48.5
219,C#4,48.167,333/1000,48,48.5
220,G#4,48.5,0.25,45,48.5
221,C4,48.5,0.5,54,48.5
222,C5,48.75,0.25,28,48.5
223,G#4,49.0,0.25,39,48.5
224,C5,49.25,0.25,28,48.5
225,G#4,49.5,0.25,38,48.5
226,C3,49.5,0.375,55,48.5
227,C4,49.5,0.375,55,48.5
228,C5,49.75,0.25,31,48.5
229,G4,50.0,0.25,45,48.5
230,B4,50.25,0.25,30,48.5
231,G#4,50.5,0.25,45,48.5
232,F2,50.5,0.375,55,48.5
233,F3,50.5,0.375,55,48.5
234,C5,50.75,0.25,32,48.5
235,G#4,51.0,0.25,39,48.5
236,C5,51.25,0.25,27,48.5
237,G#4,51.5,0.25,40,48.5
238,F4,51.5,1.0,24,48.5
239,F3,51.5,1.0,24,48.5
240,C5,51.75,0.25,30,48.5
241,A4,52.0,0.25,45,48.5
242,E-5,52.25,0.25,31,48.5
243,B-4,52.5,0.25,38,48.5
244,C#5,52.75,0.25,30,48.5
245,B-4,53.0,0.25,38,48.5
246,C#5,53.25,0.25,32,48.5
247,B-4,53.5,0.25,40,48.5
248,F3,53.5,1.0,24,48.5
249,F4,53.5,1.0,24,48.5
250,C#5,53.75,0.25,28,48.5
251,C#5,54.0,0.25,47,48.5
252,F5,54.25,0.25,38,48.5
253,B-4,54.5,0.25,45,48.5
254,C#5,54.75,0.25,32,48.5
255,G#4,55.0,0.25,40,48.5
256,C#5,55.25,0.25,31,48.5
257,G4,55.5,0.25,37,48.5
258,F4,55.5,1.0,24,48.5
259,F3,55.5,1.0,24,48.5
260,C#5,55.75,0.25,31,48.5
261,G#4,56.0,0.25,45,48.5
262,C#5,56.25,0.25,30,48.5
263,G#4,56.5,0.25,36,48.5
264,C5,56.75,0.25,27,48.5
265,G#4,57.0,0.25,38,48.5
266,C5,57.25,0.25,31,48.5
267,G#4,57.5,0.25,33,48.5
268,F3,57.5,1.0,24,48.5
269,F4,57.5,1.0,24,48.5
270,C5,57.75,0.25,28,48.5
271,G#4,58.0,0.25,47,48.5
272,C5,58.25,0.25,30,48.5
273,F#4,58.5,0.25,35,48.5
274,B-4,58.75,0.25,31,48.5
275,F#4,59.0,0.25,40,48.5
276,B-4,59.25,0.25,28,48.5
277,F#4,59.5,0.25,36,48.5
278,F3,59.5,1.0,24,48.5
279,F4,59.5,1.0,24,48.5
280,B-4,59.75,0.25,29,48.5
281,F#4,60.0,0.25,45,48.5
282,B-4,60.25,0.25,27,48.5
283,F4,60.5,0.25,34,48.5
284,B-2,60.5,0.5,27,48.5
285,G#4,60.75,0.25,27,48.5
286,F4,61.0,0.25,36,48.5
287,G#4,61.25,0.25,27,48.5
288,F4,61.5,0.25,32,48.5
289,F#3,61.5,0.5,24,48.5
290,B-3,61.5,0.5,24,48.5
291,G#4,61.75,0.25,28,48.5
292,F4,62.0,0.25,45,48.5
293,G#4,62.25,0.25,27,48.5
294,E4,62.5,0.25,33,48.5
295,C3,62.5,0.5,27,48.5
296,G4,62.75,0.25,27,48.5
297,E4,63.0,0.25,39,48.5
298,G4,63.25,0.25,28,48.5
299,E4,63.5,0.25,36,48.5
300,F3,63.5,0.5,24,48.5
301,G#3,63.5,0.5,24,48.5
302,G4,63.75,0.25,29,48.5
303,F4,64.0,0.5,60,48.5
304,G#4,64.5,0.25,45,48.5
305,C3,64.5,0.5,27,48.5
306,C5,64.75,0.25,28,48.5
307,G#4,65.0,0.25,39,48.5
308,C5,65.25,0.25,28,48.5
309,G#4,65.5,0.25,38,48.5
310,E3,65.5,0.5,24,48.5
311,G3,65.5,0.5,24,48.5
312,C5,65.75,0.25,31,48.5
313,G4,66.0,0.25,45,48.5
314,B4,66.25,0.25,30,48.5
315,G#4,66.5,0.25,45,48.5
316,F2,66.5,0.5,40,48.5
317,C5,66.75,0.25,32,48.5
318,G#4,67.0,0.25,39,48.5
319,C5,67.25,0.25,27,48.5
320,G#4,67.5,0.25,40,48.5
321,F4,67.5,1.0,24,48.5
322,F3,67.5,1.0,24,48.5
323,C5,67.75,0.25,30,48.5
324,A4,68.0,0.25,45,48.5
325,E-5,68.25,0.25,31,48.5
326,B-4,68.5,0.25,38,48.5
327,C#5,68.75,0.25,30,48.5
328,B-4,69.0,0.25,38,48.5
329,C#5,69.25,0.25,31,48.5
330,B-4,69.5,0.25,33,48.5
331,F4,69.5,1.0,24,48.5
332,F3,69.5,1.0,24,48.5
333,C#5,69.75,0.25,28,48.5
334,C#5,70.0,0.25,47,48.5
335,F5,70.25,0.25,38,48.5
336,B-4,70.5,0.25,45,48.5
337,C#5,70.75,0.25,32,48.5
338,G#4,71.0,0.25,40,48.5
339,C#5,71.25,0.25,31,48.5
340,G4,71.5,0.25,37,48.5
341,F4,71.5,1.0,24,48.5
342,B-3,71.5,1.0,24,48.5
343,C#5,71.75,0.25,31,48.5
344,G#4,72.0,0.25,45,48.5
345,C#5,72.25,0.25,30,48.5
346,G#4,72.5,0.25,36,48.5
347,C5,72.75,0.25,27,48.5
348,G#4,73.0,0.25,38,48.5
349,C5,73.25,0.25,31,48.5
350,G#4,73.5,0.25,33,48.5
351,E-3,73.5,1.0,24,48.5
352,E-4,73.5,1.0,24,48.5
353,C5,73.75,0.25,28,48.5
354,C5,74.0,0.25,47,48.5
355,E-5,74.25,0.25,30,48.5
356,F4,74.5,0.25,35,48.5
357,B-4,74.75,0.25,31,48.5
358,C#5,75.0,0.25,50,48.5
359,F5,75.25,0.25,34,48.5
360,E-5,75.5,0.25,43,48.5
361,G#3,75.5,1.0,24,48.5
362,E-4,75.5,1.0,24,48.5
363,C#5,75.75,0.25,35,48.5
364,B-4,76.0,0.25,45,48.5
365,C#5,76.25,0.25,27,48.5
366,E-4,76.5,0.25,34,48.5
367,C#3,76.5,0.5,27,48.5
368,G#4,76.75,0.25,27,48.5
369,C5,77.0,0.25,47,48.5
370,E-5,77.25,0.25,35,48.5
371,C#5,77.5,0.25,41,48.5
372,C#4,77.5,0.5,24,48.5
373,F4,77.5,0.5,24,48.5
374,C5,77.75,0.25,36,48.5
375,A4,78.0,0.25,45,48.5
376,C5,78.25,0.25,27,48.5
377,E-4,78.5,0.25,33,48.5
378,E-3,78.5,0.5,27,48.5
379,G4,78.75,0.25,27,48.5
380,B-4,79.0,0.25,46,48.5
381,C#5,79.25,0.25,36,48.5
382,C5,79.5,0.25,40,48.5
383,E-4,79.5,0.5,24,48.5
384,C4,79.5,0.5,24,48.5
385,B-4,79.75,0.25,34,48.5
386,G#4,80.0,0.5,50,48.5
387,G#4,80.5,0.25,45,48.5
388,E-3,80.5,0.5,27,48.5
389,C5,80.75,0.25,28,48.5
390,G#4,81.0,0.25,39,48.5
391,C5,81.25,0.25,28,48.5
392,G#4,81.5,0.25,38,48.5
393,G3,81.5,0.5,24,48.5
394,C#4,81.5,0.5,24,48.5
395,C5,81.75,0.25,31,48.5
396,B4,82.0,0.25,45,48.5
397,D5,82.25,0.25,30,48.5
398,C5,82.5,0.25,45,48.5
399,G#3,82.5,0.5,41,48.5
400,C4,82.5,0.5,41,48.5
401,E-5,82.75,0.25,32,48.5
402,C5,83.0,0.25,39,48.5
403,E-4,83.0,0.25,27,48.5
404,E-5,83.25,0.25,27,48.5
405,C5,83.5,0.25,40,48.5
406,E-4,83.5,0.25,30,48.5
407,E-5,83.75,0.25,30,48.5
408,C5,84.0,0.25,45,48.5
409,E-4,84.0,0.25,27,48.5
410,E-5,84.25,0.25,37,48.5
411,C#5,84.5,0.25,44,48.5
412,E4,84.5,0.5,37,48.5
413,E5,84.75,0.25,39,48.5
414,G5,85.0,0.25,52,48.5
415,E-4,85.0,0.5,27,48.5
416,B-5,85.25,0.25,46,48.5
417,C5,85.5,0.25,44,48.5
418,E-4,85.5,0.25,30,48.5
419,E-5,85.75,0.25,36,48.5
420,C#5,86.0,0.25,48,48.5
421,E-4,86.0,0.25,27,48.5
422,E5,86.25,0.25,51,48.5
423,G5,86.5,0.25,55,48.5
424,E-3,86.5,0.5,38,48.5
425,B-5,86.75,0.25,58,48.5
426,G#5,87.0,0.25,61,48.5
427,E-4,87.0,0.25,27,48.5
428,G5,87.25,0.25,59,48.5
429,F5,87.5,0.25,57,48.5
430,E-4,87.5,0.25,27,48.5
431,G5,87.75,0.25,62,48.5
432,G#5,88.0,0.5,72,48.5
433,E-4,88.0,0.25,27,48.5
434,G#4,88.5,0.25,51,48.5
435,E-3,88.5,0.5,44,48.5
436,C5,88.75,0.25,32,48.5
437,G#4,89.0,0.25,44,48.5
438,E-4,89.0,0.25,37,48.5
439,C5,89.25,0.25,32,48.5
440,G#4,89.5,0.25,43,48.5
441,E-4,89.5,0.25,40,48.5
442,C5,89.75,0.25,35,48.5
443,B4,90.0,0.25,51,48.5
444,E-3,90.0,0.25,44,48.5
445,C#4,90.0,0.25,44,48.5
446,E-4,90.0,0.25,44,48.5
447,D5,90.25,0.25,34,48.5
448,C5,90.5,0.25,51,48.5
449,G#3,90.5,0.5,48,48.5
450,E-4,90.5,0.5,48,48.5
451,C4,90.5,0.5,48,48.5
452,E-5,90.75,0.25,36,48.5
453,C5,91.0,0.25,44,48.5
454,E-4,91.0,0.25,31,48.5
455,E-5,91.25,0.25,31,48.5
456,C5,91.5,0.25,46,48.5
457,E-4,91.5,0.25,34,48.5
458,E-5,91.75,0.25,34,48.5
459,D5,92.0,0.25,51,48.5
460,E-4,92.0,0.25,31,48.5
461,F5,92.25,0.25,42,48.5
462,E-5,92.5,0.25,50,48.5
463,E4,92.5,0.5,42,48.5
464,F#5,92.75,0.25,44,48.5
465,A5,93.0,0.25,59,48.5
466,E-4,93.0,0.25,31,48.5
467,C6,93.25,0.25,52,48.5
468,D5,93.5,0.25,50,48.5
469,E-4,93.5,0.25,34,48.5
470,F5,93.75,0.25,41,48.5
471,E-5,94.0,0.25,55,48.5
472,F#4,94.0,0.25,31,48.5
473,F#5,94.25,0.25,58,48.5
474,A5,94.5,0.25,63,48.5
475,F3,94.5,0.5,43,48.5
476,C6,94.75,0.25,66,48.5
477,B-5,95.0,0.25,70,48.5
478,F4,95.0,0.25,31,48.5
479,A5,95.25,0.25,67,48.5
480,G5,95.5,0.25,65,48.5
481,F4,95.5,0.25,31,48.5
482,A5,95.75,0.25,71,48.5
483,B-5,96.0,0.5,77,48.5
484,F4,96.0,0.25,31,48.5
485,C#5,96.5,0.25,51,48.5
486,F3,96.5,0.5,50,48.5
487,F5,96.75,0.25,32,48.5
488,C#5,97.0,0.25,44,48.5
489,F4,97.0,0.25,42,48.5
490,F5,97.25,0.25,32,48.5
491,C#5,97.5,0.25,43,48.5
492,F4,97.5,0.25,46,48.5
493,F5,97.75,0.25,35,48.5
494,C5,98.0,0.25,51,48.5
495,F4,98.0,0.25,50,48.5
496,E-4,98.0,0.25,50,48.5
497,F3,98.0,0.25,50,48.5
498,E5,98.25,0.25,34,48.5
499,C#5,98.5,0.25,51,48.5
500,B-3,98.5,0.5,55,48.5
501,C#4,98.5,0.5,55,48.5
502,F4,98.5,0.5,55,48.5
503,F5,98.75,0.25,36,48.5
504,C#5,99.0,0.25,44,48.5
505,F4,99.0,0.25,31,48.5
506,F5,99.25,0.25,31,48.5
507,C#5,99.5,0.25,46,48.5
508,F4,99.5,0.25,34,48.5
509,F5,99.75,0.25,34,48.5
510,B-5,100.0,0.25,72,48.5
511,F4,100.0,0.25,31,48.5
512,C#5,100.25,0.25,35,48.5
513,E5,100.5,0.25,46,48.5
514,F#4,100.5,0.5,42,48.5
515,C#5,100.75,0.25,32,48.5
516,E-5,101.0,0.25,44,48.5
517,F4,101.0,0.25,31,48.5
518,C#5,101.25,0.25,32,48.5
519,E5,101.5,0.25,43,48.5
520,F4,101.5,0.25,34,48.5
521,C#5,101.75,0.25,35,48.5
522,G#5,102.0,0.25,67,48.5
523,F4,102.0,0.25,31,48.5
524,C5,102.25,0.25,34,48.5
525,F5,102.5,0.25,45,48.5
526,G3,102.5,2.0,49,48.5
527,C5,102.75,0.25,36,48.5
528,E-5,103.0,0.25,44,48.5
529,C#4,103.0,1.5,31,48.5
530,E4,103.0,0.5,31,48.5
531,C5,103.25,0.25,31,48.5
532,G#5,103.5,0.25,63,48.5
533,E-4,103.5,0.5,34,48.5
534,C5,103.75,0.25,34,48.5
535,E4,104.0,0.5,31,48.5
536,C#6,104.0,0.25,66,48.5
537,B-5,104.0,0.25,66,48.5
538,C#5,104.25,0.25,35,48.5
539,E5,104.5,0.25,46,48.5
540,G#3,104.5,2.0,50,48.5
541,C#5,104.75,0.25,32,48.5
542,E-5,105.0,0.25,44,48.5
543,F4,105.0,0.5,31,48.5
544,C4,105.0,1.5,31,48.5
545,C#5,105.25,0.25,32,48.5
546,E5,105.5,0.25,43,48.5
547,E-4,105.5,0.5,34,48.5
548,C#5,105.75,0.25,35,48.5
549,G#4,106.0,0.5,31,48.5
550,C6,106.0,0.25,62,48.5
551,G#5,106.0,0.25,62,48.5
552,C5,106.25,0.25,34,48.5
553,F5,106.5,0.25,45,48.5
554,G3,106.5,2.0,49,48.5
555,C5,106.75,0.25,36,48.5
556,E-5,107.0,0.25,44,48.5
557,C#4,107.0,1.5,31,48.5
558,E4,107.0,0.5,31,48.5
559,C5,107.25,0.25,31,48.5
560,G#5,107.5,0.25,63,48.5
561,E-4,107.5,0.5,34,48.5
562,C5,107.75,0.25,34,48.5
563,C6,108.0,0.25,70,48.5
564,E4,108.0,0.5,31,48.5
565,E-6,108.25,0.25,52,48.5
566,F5,108.5,0.25,57,48.5
567,G#3,108.5,2.0,50,48.5
568,B-5,108.75,0.25,53,48.5
569,C#6,109.0,0.25,62,48.5
570,F4,109.0,0.5,31,48.5
571,C4,109.0,1.5,31,48.5
572,F6,109.25,0.25,69,48.5
573,E-6,109.5,0.25,57,48.5
574,E-4,109.5,0.5,34,48.5
575,C#6,109.75,0.25,57,48.5
576,B-5,110.0,0.25,63,48.5
577,G#4,110.0,0.5,31,48.5
578,C#6,110.25,0.25,53,48.5
579,E-5,110.5,0.25,53,48.5
580,C#3,110.5,0.25,60,48.5
581,G#5,110.75,0.25,48,48.5
582,C6,111.0,0.25,62,48.5
583,F4,111.0,1.0,53,48.5
584,C#4,111.0,1.0,53,48.5
585,E-6,111.25,0.25,67,48.5
586,C#6,111.5,0.25,53,48.5
587,C6,111.75,0.25,53,48.5
588,A5,112.0,0.25,66,48.5
589,C#4,112.0,0.5,44,48.5
590,F4,112.0,0.5,44,48.5
591,C6,112.25,0.25,47,48.5
592,E-5,112.5,0.25,53,48.5
593,E-3,112.5,0.25,60,48.5
594,G5,112.75,0.25,50,48.5
595,B-5,113.0,0.25,61,48.5
596,C4,113.0,1.0,52,48.5
597,E-4,113.0,1.0,52,48.5
598,C#6,113.25,0.25,58,48.5
599,C6,113.5,0.25,53,48.5
600,B-5,113.75,0.25,53,48.5
601,G#5,114.0,0.25,67,48.5
602,E-4,114.0,0.5,45,48.5
603,C4,114.0,0.5,45,48.5
604,G5,114.25,0.25,57,48.5
605,F5,114.5,0.25,64,48.5
606,E-3,114.5,0.25,60,48.5
607,E5,114.75,0.25,65,48.5
608,E-5,115.0,0.25,67,48.5
609,G3,115.0,1.0,46,48.5
610,C#4,115.0,2.0,46,48.5
611,E-4,115.0,2.0,46,48.5
612,C#5,115.25,0.25,68,48.5
613,C5,115.5,0.25,69,48.5
614,B-4,115.75,0.25,71,48.5
615,G#4,116.0,0.5,75,48.5
616,G#3,116.0,0.5,46,48.5
617,G#3,116.5,0.25,72,48.5
618,B-3,116.5,0.5,46,48.5
619,G#3,117.0,0.25,72,48.5
620,E-4,117.0,0.25,47,48.5
621,C#4,117.0,0.25,47,48.5
622,G#3,117.0,0.25,47,48.5
623,G#3,117.5,0.25,72,48.5
624,E-4,117.5,0.25,51,48.5
625,C#4,117.5,0.25,51,48.5
626,G3,117.5,0.25,51,48.5
627,G3,118.0,0.5,78,48.5
628,E-4,118.0,0.25,55,48.5
629,E-3,118.0,0.25,55,48.5
630,C#4,118.0,0.25,55,48.5
631,G#3,118.5,0.25,69,48.5
632,C4,118.5,0.5,59,48.5
633,E-4,118.5,0.5,59,48.5
634,G#3,118.5,0.5,59,48.5
635,G#3,119.0,0.25,69,48.5
636,G#2,119.0,0.25,66,48.5
637,G#3,119.5,0.25,69,48.5
638,G#2,119.5,0.25,66,48.5
639,A3,120.0,0.75,72,48.5
640,G#2,120.0,0.25,66,48.5
641,G2,120.5,0.5,69,48.5
642,B-3,120.75,0.125,64,48.5
643,C4,120.875,0.125,59,48.5
644,B-3,121.0,0.75,72,48.5
645,G#2,121.0,0.25,65,48.5
646,G#2,121.5,0.25,65,48.5
647,C4,121.75,0.125,65,48.5
648,C#4,121.875,0.125,61,48.5
649,E-4,122.0,0.25,72,48.5
650,G#2,122.0,0.25,65,48.5
651,G4,122.5,0.25,70,48.5
652,A2,122.5,0.75,68,48.5
653,B-4,122.75,0.25,70,48.5
654,E-5,123.0,0.25,67,48.5
655,G5,123.25,0.25,70,48.5
656,B-2,123.25,0.125,60,48.5
657,C3,123.375,0.125,57,48.5
658,B-5,123.5,0.25,73,48.5
659,B-2,123.5,0.75,68,48.5
660,E-6,123.75,0.25,75,48.5
661,G#5,124.0,0.5,78,48.5
662,C3,124.25,0.125,62,48.5
663,C#3,124.375,0.125,58,48.5
664,G#3,124.5,0.25,72,48.5
665,E-3,124.5,0.25,68,48.5
666,G#3,125.0,0.25,72,48.5
667,B-3,125.0,0.5,59,48.5
668,E-3,125.0,0.5,59,48.5
669,C#4,125.0,0.5,59,48.5
670,G#3,125.5,0.25,72,48.5
671,E-3,125.5,0.5,59,48.5
672,C#4,125.5,0.5,59,48.5
673,B-3,125.5,0.5,59,48.5
674,G3,126.0,0.5,78,48.5
675,E-3,126.0,0.5,59,48.5
676,C#4,126.0,0.5,59,48.5
677,B-3,126.0,0.5,59,48.5
678,G#3,126.5,0.25,69,48.5
679,C4,126.5,0.5,66,48.5
680,G#3,126.5,0.5,66,48.5
681,G#3,127.0,0.25,69,48.5
682,G#2,127.0,0.25,66,48.5
683,G#3,127.5,0.25,69,48.5
684,G#2,127.5,0.25,66,48.5
685,A3,128.0,0.75,72,48.5
686,G#2,128.0,0.25,66,48.5
687,G2,128.5,0.5,69,48.5
688,B-3,128.75,0.125,64,48.5
689,C4,128.875,0.125,59,48.5
690,B-3,129.0,0.75,72,48.5
691,G#2,129.0,0.25,65,48.5
692,G#2,129.5,0.25,65,48.5
693,C4,129.75,0.125,65,48.5
694,C#4,129.875,0.125,59,48.5
695,E-4,130.0,0.25,72,48.5
696,G#2,130.0,0.25,65,48.5
697,E4,130.5,0.25,70,48.5
698,A2,130.5,0.75,68,48.5
699,G4,130.75,0.25,70,48.5
700,C5,131.0,0.25,67,48.5
701,E5,131.25,0.25,70,48.5
702,B-2,131.25,0.125,60,48.5
703,C3,131.375,0.125,56,48.5
704,G5,131.5,0.25,73,48.5
705,B-2,131.5,0.75,68,48.5
706,C6,131.75,0.25,75,48.5
707,F5,132.0,0.5,78,48.5
708,C3,132.25,0.125,62,48.5
709,C#3,132.375,0.125,58,48.5
710,E-3,132.5,0.25,68,48.5
711,F4,132.5,0.25,66,48.5
712,G#3,132.5,0.25,66,48.5
713,G#3,133.0,0.25,66,48.5
714,F4,133.0,0.25,66,48.5
715,G3,133.0,0.5,59,48.5
716,B-3,133.0,0.5,59,48.5
717,C3,133.0,0.5,59,48.5
718,G#3,133.5,0.25,66,48.5
719,F4,133.5,0.25,66,48.5
720,C3,133.5,0.5,59,48.5
721,B-3,133.5,0.5,59,48.5
722,G3,133.5,0.5,59,48.5
723,G#3,134.0,0.75,61,48.5
724,E4,134.0,0.5,78,48.5
725,C3,134.0,0.5,59,48.5
726,B-3,134.0,0.5,59,48.5
727,G3,134.0,0.5,59,48.5
728,F4,134.5,0.25,69,48.5
729,F3,134.5,0.5,66,48.5
730,G#3,134.5,0.5,66,48.5
731,G#3,135.0,0.25,64,48.5
732,F4,135.0,0.25,64,48.5
733,C#3,135.0,0.25,61,48.5
734,F3,135.0,0.25,61,48.5
735,G#3,135.5,0.25,64,48.5
736,F4,135.5,0.25,64,48.5
737,F3,135.5,0.25,61,48.5
738,C#3,135.5,0.25,61,48.5
739,F4,136.0,0.75,72,48.5
740,B3,136.0,1.0,61,48.5
741,C#3,136.0,0.25,61,48.5
742,F3,136.0,0.25,61,48.5
743,C3,136.5,0.5,64,48.5
744,E3,136.5,0.5,64,48.5
745,F#4,136.75,0.125,64,48.5
746,G#4,136.875,0.125,62,48.5
747,F#4,137.0,0.75,72,48.5
748,B-3,137.0,0.5,61,48.5
749,F3,137.0,0.25,60,48.5
750,C#3,137.0,0.25,60,48.5
751,C#3,137.5,0.25,60,48.5
752,F3,137.5,0.25,60,48.5
753,G#4,137.75,0.125,65,48.5
754,A4,137.875,0.125,62,48.5
755,G#4,138.0,0.25,65,48.5
756,F#4,138.0,0.25,65,48.5
757,C4,138.0,0.25,65,48.5
758,C#3,138.0,0.25,60,48.5
759,F3,138.0,0.25,60,48.5
760,C5,138.5,0.25,70,48.5
761,D3,138.5,1.0,57,48.5
762,F3,138.5,0.75,68,48.5
763,E-5,138.75,0.25,70,48.5
764,G#5,139.0,0.25,67,48.5
765,C6,139.25,0.25,70,48.5
766,F#3,139.25,0.125,60,48.5
767,G#3,139.375,0.125,57,48.5
768,E-6,139.5,0.25,73,48.5
769,E-3,139.5,1.0,57,48.5
770,F#3,139.5,0.75,68,48.5
771,G#6,139.75,0.25,75,48.5
772,C#6,140.0,0.5,78,48.5
773,G#3,140.25,0.125,62,48.5
774,A3,140.375,0.125,59,48.5
775,F4,140.5,0.25,66,48.5
776,G#3,140.5,0.25,66,48.5
777,G#2,140.5,0.25,62,48.5
778,E-3,140.5,0.25,62,48.5
779,G#3,141.0,0.25,66,48.5
780,F4,141.0,0.25,66,48.5
781,G#3,141.0,0.5,59,48.5
782,F#4,141.0,0.5,59,48.5
783,E-4,141.0,0.5,59,48.5
784,G#3,141.5,0.25,66,48.5
785,F4,141.5,0.25,66,48.5
786,F#4,141.5,0.5,59,48.5
787,G#3,141.5,0.5,59,48.5
788,E-4,141.5,0.5,59,48.5
789,E4,142.0,0.5,78,48.5
790,G#3,142.0,0.75,61,48.5
791,G#3,142.0,0.5,59,48.5
792,F#4,142.0,0.5,59,48.5
793,E-4,142.0,0.5,59,48.5
794,F4,142.5,0.25,69,48.5
795,F4,142.5,0.5,66,48.5
796,C#4,142.5,0.5,66,48.5
797,G#3,143.0,0.25,64,48.5
798,F4,143.0,0.25,64,48.5
799,F3,143.0,0.25,61,48.5
800,C#3,143.0,0.25,61,48.5
801,F4,143.5,0.25,64,48.5
802,G#3,143.5,0.25,64,48.5
803,F3,143.5,0.25,61,48.5
804,C#3,143.5,0.25,61,48.5
805,D4,144.0,0.5,67,48.5
806,F4,144.0,0.5,67,48.5
807,B4,144.0,0.5,67,48.5
808,F3,144.0,0.25,61,48.5
809,C#3,144.0,0.25,61,48.5
810,F4,144.5,0.25,62,48.5
811,D4,144.5,0.25,62,48.5
812,B-4,144.5,0.25,62,48.5
813,C3,144.5,0.5,64,48.5
814,E3,144.5,0.5,64,48.5
815,D4,145.0,0.25,62,48.5
816,B-4,145.0,0.25,62,48.5
817,F4,145.0,0.25,62,48.5
818,C#3,145.0,0.25,60,48.5
819,F3,145.0,0.25,60,48.5
820,D4,145.5,0.25,62,48.5
821,F4,145.5,0.25,62,48.5
822,B-4,145.5,0.25,62,48.5
823,C#3,145.5,0.25,60,48.5
824,F3,145.5,0.25,60,48.5
825,E-4,146.0,0.25,66,48.5
826,G4,146.0,0.25,66,48.5
827,F3,146.0,0.25,60,48.5
828,C#3,146.0,0.25,60,48.5
829,G4,146.5,0.5,70,48.5
830,G#3,146.5,0.5,62,48.5
831,B2,146.5,0.5,62,48.5
832,F3,146.5,0.5,62,48.5
833,B-4,146.75,0.25,70,48.5
834,E-5,147.0,0.25,67,48.5
835,B-2,147.0,0.25,58,48.5
836,F3,147.0,0.25,58,48.5
837,G#3,147.0,0.25,58,48.5
838,G5,147.25,0.25,70,48.5
839,B-5,147.5,0.25,73,48.5
840,G#3,147.5,0.25,58,48.5
841,F3,147.5,0.25,58,48.5
842,B-2,147.5,0.25,58,48.5
843,E-6,147.75,0.25,75,48.5
844,C#5,148.0,0.5,67,48.5
845,G4,148.0,0.5,67,48.5
846,E4,148.0,0.5,67,48.5
847,G#3,148.0,0.25,58,48.5
848,B-2,148.0,0.25,58,48.5
849,F3,148.0,0.25,58,48.5
850,C5,148.5,0.25,62,48.5
851,G4,148.5,0.25,62,48.5
852,E4,148.5,0.25,62,48.5
853,E-3,148.5,0.25,62,48.5
854,G3,148.5,0.25,62,48.5
855,E-4,149.0,0.5,56,48.5
856,G4,149.0,0.25,62,48.5
857,C5,149.0,0.25,62,48.5
858,E4,149.0,0.25,62,48.5
859,G4,149.5,0.25,62,48.5
860,E4,149.5,0.25,62,48.5
861,C5,149.5,0.25,62,48.5
862,E-4,149.5,0.5,61,48.5
863,G4,149.5,0.5,61,48.5
864,F4,150.0,0.25,66,48.5
865,A4,150.0,0.25,66,48.5
866,E-4,150.0,0.5,61,48.5
867,G4,150.0,0.5,61,48.5
868,A4,150.5,0.5,70,48.5
869,B-3,150.5,0.5,62,48.5
870,C#3,150.5,0.5,62,48.5
871,G3,150.5,0.5,62,48.5
872,C5,150.75,0.25,70,48.5
873,F5,151.0,0.25,67,48.5
874,G3,151.0,0.25,58,48.5
875,B-3,151.0,0.25,58,48.5
876,C3,151.0,0.25,58,48.5
877,A5,151.25,0.25,70,48.5
878,C6,151.5,0.25,73,48.5
879,C3,151.5,0.25,58,48.5
880,B-3,151.5,0.25,58,48.5
881,G3,151.5,0.25,58,48.5
882,F6,151.75,0.25,75,48.5
883,F#5,152.0,0.5,80,48.5
884,F#6,152.0,0.5,80,48.5
885,C3,152.0,0.25,58,48.5
886,B-3,152.0,0.25,58,48.5
887,G3,152.0,0.25,58,48.5
888,F6,152.5,0.375,69,48.5
889,F5,152.5,0.375,69,48.5
890,F3,152.5,0.25,62,48.5
891,A3,152.5,0.25,62,48.5
892,F4,153.0,0.5,56,48.5
893,F5,153.0,0.5,80,48.5
894,F6,153.0,0.5,80,48.5
895,E6,153.5,0.375,69,48.5
896,E5,153.5,0.375,69,48.5
897,A4,153.5,0.5,61,48.5
898,F4,153.5,0.5,61,48.5
899,E6,154.0,0.5,80,48.5
900,E5,154.0,0.5,80,48.5
901,F4,154.0,0.5,61,48.5
902,A4,154.0,0.5,61,48.5
903,F6,154.5,0.375,64,48.5
904,F5,154.5,0.375,64,48.5
905,F#3,154.5,0.5,56,48.5
906,F#4,154.5,0.5,56,48.5
907,F6,155.0,0.5,72,48.5
908,F5,155.0,0.5,72,48.5
909,F4,155.0,0.375,48,48.5
910,F3,155.0,0.375,48,48.5
911,C5,155.5,0.375,64,48.5
912,C6,155.5,0.375,64,48.5
913,F3,155.5,0.5,56,48.5
914,F4,155.5,0.5,56,48.5
915,B-5,156.0,0.5,71,48.5
916,B-4,156.0,0.5,71,48.5
917,E3,156.0,0.375,48,48.5
918,E4,156.0,0.375,48,48.5
919,A5,156.5,0.375,62,48.5
920,A4,156.5,0.375,62,48.5
921,E4,156.5,0.5,56,48.5
922,E3,156.5,0.5,56,48.5
923,A4,157.0,0.5,62,48.5
924,A5,157.0,0.5,62,48.5
925,F4,157.0,0.375,45,48.5
926,F3,157.0,0.375,45,48.5
927,G5,157.5,0.375,62,48.5
928,G4,157.5,0.375,62,48.5
929,F4,157.5,0.5,50,48.5
930,F3,157.5,0.5,50,48.5
931,G5,158.0,0.5,68,48.5
932,G4,158.0,0.5,68,48.5
933,C3,158.0,0.375,45,48.5
934,C4,158.0,0.375,45,48.5
935,F5,158.5,63/250,59,48.5
936,F4,158.5,63/250,59,48.5
937,B-2,158.5,0.5,49,48.5
938,B-3,158.5,0.5,49,48.5
939,F5,159.0,63/250,62,48.5
940,F4,159.0,63/250,62,48.5
941,A2,159.0,0.375,43,48.5
942,A3,159.0,0.375,43,48.5
943,F4,159.5,63/250,59,48.5
944,F5,159.5,63/250,59,48.5
945,A3,159.5,0.5,43,48.5
946,A2,159.5,0.5,43,48.5
947,F#4,160.0,0.5,64,48.5
948,F#5,160.0,0.5,64,48.5
949,G3,160.0,0.375,43,48.5
950,G2,160.0,0.375,43,48.5
951,F4,160.5,0.375,55,48.5
952,F5,160.5,0.375,55,48.5
953,G2,160.5,0.5,47,48.5
954,G3,160.5,0.5,47,48.5
955,F5,161.0,0.5,64,48.5
956,F4,161.0,0.5,64,48.5
957,F2,161.0,63/250,40,48.5
958,F3,161.0,63/250,40,48.5
959,E5,161.5,0.375,55,48.5
960,E4,161.5,0.375,55,48.5
961,F2,161.5,63/250,42,48.5
962,F3,161.5,63/250,42,48.5
963,E4,162.0,0.5,63,48.5
964,E5,162.0,0.5,63,48.5
965,F2,162.0,63/250,40,48.5
966,F3,162.0,63/250,40,48.5
967,F4,162.5,0.375,52,48.5
968,F5,162.5,0.375,52,48.5
969,F#3,162.5,0.5,44,48.5
970,F#2,162.5,0.5,44,48.5
971,F5,163.0,0.5,57,48.5
972,F4,163.0,0.5,57,48.5
973,F3,163.0,0.375,38,48.5
974,F2,163.0,0.375,38,48.5
975,C5,163.5,0.375,52,48.5
976,C4,163.5,0.375,52,48.5
977,F3,163.5,0.5,44,48.5
978,F2,163.5,0.5,44,48.5
979,B-3,164.0,0.5,53,48.5
980,B-4,164.0,0.5,53,48.5
981,E3,164.0,0.375,38,48.5
982,E2,164.0,0.375,38,48.5
983,A3,164.5,0.375,46,48.5
984,A4,164.5,0.375,46,48.5
985,E3,164.5,0.5,44,48.5
986,E2,164.5,0.5,44,48.5
987,A3,165.0,0.5,45,48.5
988,A4,165.0,0.5,45,48.5
989,F3,165.0,0.375,36,48.5
990,F2,165.0,0.375,36,48.5
991,G4,165.5,0.375,44,48.5
992,G3,165.5,0.375,44,48.5
993,F2,165.5,0.5,40,48.5
994,F3,165.5,0.5,40,48.5
995,G4,166.0,0.5,47,48.5
996,G3,166.0,0.5,47,48.5
997,C3,166.0,0.375,36,48.5
998,C2,166.0,0.375,36,48.5
999,F3,166.5,63/250,40,48.5
1000,F4,166.5,63/250,40,48.5
1001,B-2,166.5,0.5,36,48.5
1002,B-1,166.5,0.5,36,48.5
1003,F3,167.0,63/250,40,48.5
1004,F4,167.0,63/250,40,48.5
1005,A1,167.0,0.375,32,48.5
1006,A2,167.0,0.375,32,48.5
1007,F3,167.5,63/250,38,48.5
1008,F4,167.5,63/250,38,48.5
1009,A1,167.5,0.5,31,48.5
1010,A2,167.5,0.5,31,48.5
1011,F3,168.0,63/250,36,48.5
1012,F4,168.0,63/250,36,48.5
1013,G2,168.0,0.375,30,48.5
1014,G1,168.0,0.375,30,48.5
1015,F4,168.5,63/250,34,48.5
1016,F3,168.5,63/250,34,48.5
1017,G2,168.5,0.5,32,48.5
1018,G1,168.5,0.5,32,48.5
1019,F3,169.0,63/250,36,48.5
1020,F4,169.0,63/250,36,48.5
1021,F1,169.0,63/250,27,48.5
1022,F2,169.0,63/250,27,48.5
1023,F3,169.5,63/250,34,48.5
1024,F4,169.5,63/250,34,48.5
1025,F2,169.5,63/250,28,48.5
1026,F1,169.5,63/250,28,48.5
1027,F4,170.0,63/250,36,48.5
1028,F3,170.0,63/250,36,48.5
1029,F2,170.0,63/250,26,48.5
1030,F1,170.0,63/250,26,48.5
1031,F2,170.5,63/250,27,48.5
1032,F3,170.5,63/250,34,48.5
1033,F4,170.5,63/250,34,48.5
1034,F2,171.0,63/250,25,48.5
1035,F4,171.0,63/250,36,48.5
1036,F3,171.0,63/250,36,48.5
1037,F2,171.5,63/250,27,48.5
1038,F4,171.5,63/250,34,48.5
1039,F3,171.5,63/250,34,48.5
1040,E4,172.0,0.5,33,48.5
1041,F2,172.0,63/250,25,48.5
1042,B-3,172.0,1.0,21,48.5
1043,G3,172.0,1.0,21,48.5
1044,C#4,172.0,1.0,21,48.5
1045,E-4,172.5,63/250,30,48.5
1046,F2,172.5,63/250,27,48.5
1047,F2,173.0,63/250,25,48.5
1048,E-4,173.0,63/250,24,48.5
1049,B-3,173.0,63/250,24,48.5
1050,G3,173.0,63/250,24,48.5
1051,C#4,173.0,63/250,24,48.5
1052,F2,173.5,63/250,27,48.5
1053,E-4,173.5,0.25,22,48.5
1054,C#4,173.5,0.25,22,48.5
1055,G3,173.5,0.25,22,48.5
1056,B-3,173.5,0.25,22,48.5
1057,F2,174.0,63/250,25,48.5
1058,C#4,174.0,0.25,24,48.5
1059,E-4,174.0,0.25,24,48.5
1060,G3,174.0,0.25,24,48.5
1061,B-3,174.0,0.25,24,48.5
1062,E3,174.5,0.5,22,48.5
1063,C#4,174.5,63/250,22,48.5
1064,B-3,174.5,63/250,22,48.5
1065,G3,174.5,63/250,22,48.5
1066,E-4,174.5,63/250,22,48.5
1067,E-3,175.0,63/250,21,48.5
1068,E-4,175.0,63/250,24,48.5
1069,B-3,175.0,63/250,24,48.5
1070,G3,175.0,63/250,24,48.5
1071,C#4,175.0,63/250,24,48.5
1072,E-3,175.5,63/250,22,48.5
1073,G3,175.5,63/250,22,48.5
1074,C#4,175.5,63/250,22,48.5
1075,B-3,175.5,63/250,22,48.5
1076,E-4,175.5,63/250,22,48.5
1077,E-3,176.0,63/250,21,48.5
1078,G#3,176.0,0.5,30,48.5
1079,C4,176.0,0.5,30,48.5
1080,E-4,176.0,0.5,30,48.5
1081,E-3,176.5,63/250,22,48.5
1082,G#4,176.5,0.375,25,48.5
1083,E-4,176.5,0.375,25,48.5
1084,C5,176.5,0.375,25,48.5
1085,E-3,177.0,63/250,21,48.5
1086,G#4,177.0,0.375,25,48.5
1087,E-4,177.0,0.375,25,48.5
1088,C5,177.0,0.375,25,48.5
1089,E-3,177.5,63/250,22,48.5
1090,E-4,177.5,0.375,25,48.5
1091,G#4,177.5,0.375,25,48.5
1092,C5,177.5,0.375,25,48.5
1093,E-3,178.0,63/250,21,48.5
1094,B4,178.0,0.5,28,48.5
1095,G#4,178.0,0.5,28,48.5
1096,D4,178.0,0.5,28,48.5
1097,G#2,178.5,4.0,33,48.5
1098,C5,178.5,0.375,24,48.5
1099,E-4,178.5,0.375,24,48.5
1100,G#4,178.5,0.375,24,48.5
1101,E-3,179.0,0.375,25,48.5
1102,C5,179.0,0.375,26,48.5
1103,G#4,179.0,0.375,26,48.5
1104,E-4,179.0,0.375,26,48.5
1105,E-3,179.5,0.375,25,48.5
1106,G#4,179.5,0.375,29,48.5
1107,C5,179.5,0.375,29,48.5
1108,E-4,179.5,0.375,29,48.5
1109,E-3,180.0,0.375,25,48.5
1110,E-5,180.0,0.5,33,48.5
1111,G#4,180.0,0.5,33,48.5
1112,F#4,180.0,0.5,33,48.5
1113,E-3,180.5,0.5,33,48.5
1114,C#5,180.5,0.375,27,48.5
1115,F4,180.5,0.375,27,48.5
1116,G#4,180.5,0.375,27,48.5
1117,G#3,181.0,0.375,26,48.5
1118,G#4,181.0,0.375,27,48.5
1119,C#5,181.0,0.375,27,48.5
1120,F4,181.0,0.375,27,48.5
1121,G#3,181.5,0.375,27,48.5
1122,F4,181.5,0.375,27,48.5
1123,G#4,181.5,0.375,27,48.5
1124,C#5,181.5,0.375,27,48.5
1125,G#3,182.0,0.375,29,48.5
1126,C#5,182.0,0.5,26,48.5
1127,F4,182.0,0.5,26,48.5
1128,G#4,182.0,0.5,26,48.5
1129,C#3,182.5,3.5,38,48.5
1130,C5,182.5,0.5,26,48.5
1131,F4,182.5,0.5,26,48.5
1132,E-4,182.5,0.5,26,48.5
1133,G#3,183.0,0.375,25,48.5
1134,F4,183.0,0.5,26,48.5
1135,B-4,183.0,0.5,26,48.5
1136,C#4,183.0,0.5,26,48.5
1137,G#3,183.5,0.375,25,48.5
1138,G#4,183.5,0.5,26,48.5
1139,F4,183.5,0.5,26,48.5
1140,C4,183.5,0.5,26,48.5
1141,G#3,184.0,0.375,27,48.5
1142,E-4,184.0,0.5,30,48.5
1143,C4,184.0,0.5,30,48.5
1144,G#4,184.0,0.5,30,48.5
1145,G#3,184.5,0.5,33,48.5
1146,G4,184.5,0.375,25,48.5
1147,B-3,184.5,0.375,25,48.5
1148,E-4,184.5,0.375,25,48.5
1149,A3,185.0,0.5,27,48.5
1150,G4,185.0,0.375,25,48.5
1151,B-3,185.0,0.375,25,48.5
1152,E-4,185.0,0.375,25,48.5
1153,B-3,185.5,0.5,27,48.5
1154,E-4,185.5,0.375,25,48.5
1155,G4,185.5,0.375,25,48.5
1156,B-3,185.5,0.375,25,48.5
1157,B-3,186.0,0.375,28,48.5
1158,G4,186.0,0.375,28,48.5
1159,E-4,186.0,0.375,28,48.5
1160,D3,186.0,0.5,27,48.5
1161,F3,186.0,0.5,27,48.5
1162,E-2,186.5,4.0,33,48.5
1163,E-4,186.5,0.375,24,48.5
1164,G4,186.5,0.375,24,48.5
1165,B-3,186.5,0.375,24,48.5
1166,E-3,187.0,0.375,25,48.5
1167,E-4,187.0,0.5,26,48.5
1168,C4,187.0,0.5,26,48.5
1169,G#4,187.0,0.5,26,48.5
1170,E-3,187.5,0.375,25,48.5
1171,B-4,187.5,0.5,29,48.5
1172,C#4,187.5,0.5,29,48.5
1173,E-4,187.5,0.5,29,48.5
1174,E-3,188.0,0.375,25,48.5
1175,C#4,188.0,0.5,34,48.5
1176,E-4,188.0,0.5,34,48.5
1177,E-3,188.5,0.375,33,48.5
1178,G#4,188.5,0.375,27,48.5
1179,E-4,188.5,0.375,27,48.5
1180,C4,188.5,0.375,27,48.5
1181,E-3,189.0,0.375,26,48.5
1182,E-4,189.0,0.375,27,48.5
1183,C4,189.0,0.375,27,48.5
1184,G#4,189.0,0.375,27,48.5
1185,E-3,189.5,0.5,27,48.5
1186,G#4,189.5,0.375,27,48.5
1187,E-4,189.5,0.375,27,48.5
1188,C4,189.5,0.375,27,48.5
1189,E-3,190.0,0.5,29,48.5
1190,C4,190.0,0.375,26,48.5
1191,G#4,190.0,0.375,26,48.5
1192,E-4,190.0,0.375,26,48.5
1193,G#2,190.5,3.0,38,48.5
1194,E-4,190.5,0.375,26,48.5
1195,C4,190.5,0.375,26,48.5
1196,G#4,190.5,0.375,26,48.5
1197,G#4,191.0,0.75,30,48.5
1198,E-3,191.0,0.375,25,48.5
1199,C5,191.125,0.625,38,48.5
1200,E-4,191.125,0.625,38,48.5
1201,E-3,191.5,0.375,25,48.5
1202,E-4,191.75,0.25,26,48.5
1203,C4,191.75,0.25,26,48.5
1204,G#4,191.75,0.25,26,48.5
1205,E-3,192.0,0.375,27,48.5
1206,C4,192.0,0.5,30,48.5
1207,G#4,192.0,0.5,30,48.5
1208,E-4,192.0,0.5,30,48.5
1209,E-3,192.5,0.375,33,48.5
1210,E-4,192.5,0.375,25,48.5
1211,B-3,192.5,0.375,25,48.5
1212,G4,192.5,0.375,25,48.5
1213,E-3,193.0,0.375,27,48.5
1214,B-3,193.0,0.375,25,48.5
1215,E-4,193.0,0.375,25,48.5
1216,G4,193.0,0.375,25,48.5
1217,G4,193.5,0.375,25,48.5
1218,E-4,193.5,0.375,25,48.5
1219,B-3,193.5,0.375,25,48.5
1220,E-3,193.5,0.5,27,48.5
1221,G#2,193.5,0.5,27,48.5
1222,G4,194.0,0.375,28,48.5
1223,B-3,194.0,0.375,28,48.5
1224,E-4,194.0,0.375,28,48.5
1225,E-3,194.0,0.5,27,48.5
1226,C3,194.0,0.5,27,48.5
1227,E-2,194.5,4.0,33,48.5
1228,E-4,194.5,0.375,24,48.5
1229,G4,194.5,0.375,24,48.5
1230,B-3,194.5,0.375,24,48.5
1231,E-3,195.0,0.375,25,48.5
1232,C4,195.0,0.5,26,48.5
1233,E-4,195.0,0.5,26,48.5
1234,G#4,195.0,0.5,26,48.5
1235,E-3,195.5,0.375,25,48.5
1236,B-4,195.5,0.5,29,48.5
1237,C#4,195.5,0.5,29,48.5
1238,E-4,195.5,0.5,29,48.5
1239,E-3,196.0,0.375,25,48.5
1240,C#4,196.0,0.5,34,48.5
1241,E-4,196.0,0.5,34,48.5
1242,E-3,196.5,0.375,33,48.5
1243,G#4,196.5,0.375,27,48.5
1244,C4,196.5,0.375,27,48.5
1245,E-4,196.5,0.375,27,48.5
1246,E-3,197.0,0.375,26,48.5
1247,C4,197.0,0.375,27,48.5
1248,E-4,197.0,0.375,27,48.5
1249,G#4,197.0,0.375,27,48.5
1250,E-3,197.5,0.5,27,48.5
1251,C4,197.5,0.375,27,48.5
1252,E-4,197.5,0.375,27,48.5
1253,G#4,197.5,0.375,27,48.5
1254,E-3,198.0,0.5,29,48.5
1255,G#4,198.0,0.375,26,48.5
1256,C4,198.0,0.375,26,48.5
1257,E-4,198.0,0.375,26,48.5
1258,G#2,198.5,2.375,38,48.5
1259,E-5,198.5,0.5,30,48.5
1260,C5,198.5,0.5,30,48.5
1261,E-3,199.0,0.375,25,48.5
1262,C5,199.0,0.5,32,48.5
1263,G#5,199.0,0.5,32,48.5
1264,E-5,199.0,0.5,32,48.5
1265,C3,199.5,0.375,25,48.5
1266,E-5,199.5,0.5,29,48.5
1267,B-5,199.5,0.5,29,48.5
1268,G5,199.5,0.5,29,48.5
1269,E-3,200.0,0.375,27,48.5
1270,G#3,200.5,0.375,33,48.5
1271,E-5,200.5,0.375,28,48.5
1272,C6,200.5,0.375,28,48.5
1273,G#5,200.5,0.375,28,48.5
1274,C6,201.0,0.375,28,48.5
1275,G#5,201.0,0.375,28,48.5
1276,E-5,201.0,0.375,28,48.5
1277,E-4,201.0,0.5,31,48.5
1278,C4,201.0,0.5,31,48.5
1279,C6,201.5,0.375,28,48.5
1280,G#5,201.5,0.375,28,48.5
1281,E-5,201.5,0.375,28,48.5
1282,G#4,201.5,0.5,31,48.5
1283,C4,201.5,0.5,31,48.5
1284,E-4,201.5,0.5,31,48.5
1285,G#5,202.0,0.5,32,48.5
1286,D5,202.0,0.5,32,48.5
1287,B5,202.0,0.5,32,48.5
1288,G4,202.0,0.5,31,48.5
1289,B-4,202.0,0.5,31,48.5
1290,E-4,202.0,0.5,31,48.5
1291,G#3,202.5,0.25,46,48.5
1292,E-5,202.5,0.375,27,48.5
1293,G#5,202.5,0.375,27,48.5
1294,C6,202.5,0.375,27,48.5
1295,C6,203.0,0.375,30,48.5
1296,G#5,203.0,0.375,30,48.5
1297,E-5,203.0,0.375,30,48.5
1298,C5,203.0,0.375,25,48.5
1299,G#4,203.0,0.375,25,48.5
1300,E-4,203.0,0.375,25,48.5
1301,C6,203.5,0.375,34,48.5
1302,E-5,203.5,0.375,34,48.5
1303,G#5,203.5,0.375,34,48.5
1304,G#4,203.5,0.375,25,48.5
1305,C5,203.5,0.375,25,48.5
1306,E-4,203.5,0.375,25,48.5
1307,E-6,204.0,0.5,37,48.5
1308,G#5,204.0,0.5,37,48.5
1309,F#5,204.0,0.5,37,48.5
1310,C5,204.0,0.375,25,48.5
1311,E-4,204.0,0.375,25,48.5
1312,G#4,204.0,0.375,25,48.5
1313,G#5,204.5,0.375,31,48.5
1314,F5,204.5,0.375,31,48.5
1315,C#6,204.5,0.375,31,48.5
1316,G#4,204.5,0.5,33,48.5
1317,D4,204.5,0.5,33,48.5
1318,B4,204.5,0.5,33,48.5
1319,C#6,205.0,0.375,31,48.5
1320,G#5,205.0,0.375,31,48.5
1321,F5,205.0,0.375,31,48.5
1322,G#4,205.0,0.375,26,48.5
1323,E-4,205.0,0.375,26,48.5
1324,C5,205.0,0.375,26,48.5
1325,F5,205.5,0.375,31,48.5
1326,C#6,205.5,0.375,31,48.5
1327,G#5,205.5,0.375,31,48.5
1328,E-4,205.5,0.375,28,48.5
1329,G#4,205.5,0.375,28,48.5
1330,C5,205.5,0.375,28,48.5
1331,G#5,206.0,0.5,30,48.5
1332,C#6,206.0,0.5,30,48.5
1333,F5,206.0,0.5,30,48.5
1334,C5,206.0,0.375,30,48.5
1335,G#4,206.0,0.375,30,48.5
1336,E-4,206.0,0.375,30,48.5
1337,C#4,206.5,3.5,43,48.5
1338,E-5,206.5,0.5,29,48.5
1339,F5,206.5,0.5,29,48.5
1340,C6,206.5,0.5,29,48.5
1341,F5,207.0,0.5,29,48.5
1342,C#5,207.0,0.5,29,48.5
1343,B-5,207.0,0.5,29,48.5
1344,G#4,207.0,0.375,25,48.5
1345,C#5,207.0,0.375,25,48.5
1346,F4,207.0,0.375,25,48.5
1347,F5,207.5,0.5,29,48.5
1348,G#5,207.5,0.5,29,48.5
1349,C5,207.5,0.5,29,48.5
1350,F4,207.5,0.375,25,48.5
1351,C#5,207.5,0.375,25,48.5
1352,G#4,207.5,0.375,25,48.5
1353,G#5,208.0,0.5,35,48.5
1354,C5,208.0,0.5,35,48.5
1355,E-5,208.0,0.5,35,48.5
1356,G#4,208.0,0.375,28,48.5
1357,F4,208.0,0.375,28,48.5
1358,C#5,208.0,0.375,28,48.5
1359,E-5,208.5,0.375,28,48.5
1360,B-4,208.5,0.375,28,48.5
1361,G5,208.5,0.375,28,48.5
1362,C#5,208.5,0.5,33,48.5
1363,G#4,208.5,0.5,33,48.5
1364,F4,208.5,0.5,33,48.5
1365,G5,209.0,0.375,28,48.5
1366,E-5,209.0,0.375,28,48.5
1367,B-4,209.0,0.375,28,48.5
1368,F4,209.0,0.5,28,48.5
1369,A4,209.0,0.5,28,48.5
1370,C5,209.0,0.5,28,48.5
1371,E-5,209.5,0.375,28,48.5
1372,G5,209.5,0.375,28,48.5
1373,B-4,209.5,0.375,28,48.5
1374,F4,209.5,0.5,28,48.5
1375,B-4,209.5,0.5,28,48.5
1376,E-5,210.0,0.375,32,48.5
1377,B-4,210.0,0.375,32,48.5
1378,G5,210.0,0.375,32,48.5
1379,F4,210.0,0.5,28,48.5
1380,D4,210.0,0.5,28,48.5
1381,G#4,210.0,0.5,28,48.5
1382,E-3,210.5,0.5,37,48.5
1383,E-5,210.5,0.375,27,48.5
1384,G5,210.5,0.375,27,48.5
1385,B-4,210.5,0.375,27,48.5
1386,C5,211.0,0.5,30,48.5
1387,E-5,211.0,0.5,30,48.5
1388,G#5,211.0,0.5,30,48.5
1389,E-4,211.0,0.375,25,48.5
1390,B-3,211.0,0.375,25,48.5
1391,G4,211.0,0.375,25,48.5
1392,E-5,211.5,0.5,34,48.5
1393,B-5,211.5,0.5,34,48.5
1394,C#5,211.5,0.5,34,48.5
1395,B-3,211.5,0.375,25,48.5
1396,E-4,211.5,0.375,25,48.5
1397,G4,211.5,0.375,25,48.5
1398,C#5,212.0,0.5,38,48.5
1399,E-5,212.0,0.5,38,48.5
1400,E-4,212.0,0.375,25,48.5
1401,G4,212.0,0.375,25,48.5
1402,B-3,212.0,0.375,25,48.5
1403,E-5,212.5,0.375,31,48.5
1404,G#5,212.5,0.375,31,48.5
1405,C5,212.5,0.375,31,48.5
1406,E-4,212.5,0.375,33,48.5
1407,G4,212.5,0.375,33,48.5
1408,B-3,212.5,0.375,33,48.5
1409,G#5,213.0,0.375,31,48.5
1410,C5,213.0,0.375,31,48.5
1411,E-5,213.0,0.375,31,48.5
1412,B-3,213.0,0.375,26,48.5
1413,E-4,213.0,0.375,26,48.5
1414,G4,213.0,0.375,26,48.5
1415,E-5,213.5,0.375,31,48.5
1416,G#5,213.5,0.375,31,48.5
1417,C5,213.5,0.375,31,48.5
1418,G#4,213.5,0.5,28,48.5
1419,C4,213.5,0.5,28,48.5
1420,E-4,213.5,0.5,28,48.5
1421,G#5,214.0,0.375,30,48.5
1422,E-5,214.0,0.375,30,48.5
1423,C5,214.0,0.375,30,48.5
1424,E-4,214.0,0.5,30,48.5
1425,C#4,214.0,0.5,30,48.5
1426,B-4,214.0,0.5,30,48.5
1427,G#3,214.5,2.5,43,48.5
1428,G#5,214.5,0.375,29,48.5
1429,E-5,214.5,0.375,29,48.5
1430,C5,214.5,0.375,29,48.5
1431,G#5,215.0,0.75,39,48.5
1432,E-4,215.0,0.375,25,48.5
1433,C4,215.0,0.375,25,48.5
1434,G#4,215.0,0.375,25,48.5
1435,E-5,215.125,0.625,48,48.5
1436,C6,215.125,0.625,48,48.5
1437,G#4,215.5,0.375,25,48.5
1438,E-4,215.5,0.375,25,48.5
1439,C4,215.5,0.375,25,48.5
1440,E-5,215.75,0.25,29,48.5
1441,C5,215.75,0.25,29,48.5
1442,G#5,215.75,0.25,29,48.5
1443,E-5,216.0,0.5,35,48.5
1444,G#5,216.0,0.5,35,48.5
1445,C5,216.0,0.5,35,48.5
1446,C4,216.0,0.375,28,48.5
1447,G#4,216.0,0.375,28,48.5
1448,E-4,216.0,0.375,28,48.5
1449,E-5,216.5,0.375,28,48.5
1450,B-4,216.5,0.375,28,48.5
1451,G5,216.5,0.375,28,48.5
1452,G#4,216.5,0.375,33,48.5
1453,E-4,216.5,0.375,33,48.5
1454,C4,216.5,0.375,33,48.5
1455,E-5,217.0,0.375,28,48.5
1456,B-4,217.0,0.375,28,48.5
1457,G5,217.0,0.375,28,48.5
1458,C4,217.0,0.375,28,48.5
1459,G#4,217.0,0.375,28,48.5
1460,E-4,217.0,0.375,28,48.5
1461,B-4,217.5,0.375,28,48.5
1462,E-5,217.5,0.375,28,48.5
1463,G5,217.5,0.375,28,48.5
1464,E-4,217.5,0.5,28,48.5
1465,C5,217.5,0.5,28,48.5
1466,G#4,217.5,0.5,28,48.5
1467,B-4,218.0,0.375,32,48.5
1468,G5,218.0,0.375,32,48.5
1469,E-5,218.0,0.375,32,48.5
1470,E-4,218.0,0.5,28,48.5
1471,C4,218.0,0.5,28,48.5
1472,G#4,218.0,0.5,28,48.5
1473,E-3,218.5,0.5,37,48.5
1474,E-5,218.5,0.375,27,48.5
1475,G5,218.5,0.375,27,48.5
1476,B-4,218.5,0.375,27,48.5
1477,G#5,219.0,0.5,30,48.5
1478,E-5,219.0,0.5,30,48.5
1479,C5,219.0,0.5,30,48.5
1480,E-4,219.0,0.375,25,48.5
1481,B-3,219.0,0.375,25,48.5
1482,G4,219.0,0.375,25,48.5
1483,E-5,219.5,0.5,34,48.5
1484,B-5,219.5,0.5,34,48.5
1485,C#5,219.5,0.5,34,48.5
1486,G4,219.5,0.375,25,48.5
1487,E-4,219.5,0.375,25,48.5
1488,B-3,219.5,0.375,25,48.5
1489,C#5,220.0,0.5,38,48.5
1490,E-5,220.0,0.5,38,48.5
1491,E-4,220.0,0.375,25,48.5
1492,G4,220.0,0.375,25,48.5
1493,B-3,220.0,0.375,25,48.5
1494,G#5,220.5,0.375,31,48.5
1495,E-5,220.5,0.375,31,48.5
1496,C5,220.5,0.375,31,48.5
1497,B-3,220.5,0.375,33,48.5
1498,G4,220.5,0.375,33,48.5
1499,E-4,220.5,0.375,33,48.5
1500,E-5,221.0,0.375,31,48.5
1501,C5,221.0,0.375,31,48.5
1502,G#5,221.0,0.375,31,48.5
1503,E-4,221.0,0.375,26,48.5
1504,G4,221.0,0.375,26,48.5
1505,B-3,221.0,0.375,26,48.5
1506,G#5,221.5,0.375,31,48.5
1507,E-5,221.5,0.375,31,48.5
1508,C5,221.5,0.375,31,48.5
1509,C4,221.5,0.5,28,48.5
1510,E-4,221.5,0.5,28,48.5
1511,G#4,221.5,0.5,28,48.5
1512,G#5,222.0,0.375,30,48.5
1513,E-5,222.0,0.375,30,48.5
1514,C5,222.0,0.375,30,48.5
1515,B-4,222.0,0.5,30,48.5
1516,C#4,222.0,0.5,30,48.5
1517,E-4,222.0,0.5,30,48.5
1518,E-5,222.5,0.25,43,48.5
1519,G#3,222.5,2.375,43,48.5
1520,E-6,222.75,0.25,36,48.5
1521,G#5,223.0,0.25,43,48.5
1522,G#4,223.0,0.375,25,48.5
1523,E-4,223.0,0.375,25,48.5
1524,C4,223.0,0.375,25,48.5
1525,E-6,223.25,0.25,36,48.5
1526,B-5,223.5,0.25,44,48.5
1527,E-4,223.5,0.375,25,48.5
1528,C4,223.5,0.375,25,48.5
1529,G#4,223.5,0.375,25,48.5
1530,E-6,223.75,0.25,36,48.5
1531,E-5,224.0,0.25,47,48.5
1532,C4,224.0,0.375,28,48.5
1533,E-4,224.0,0.375,28,48.5
1534,G#4,224.0,0.375,28,48.5
1535,E-6,224.25,0.25,36,48.5
1536,C6,224.5,0.25,43,48.5
1537,C4,224.5,0.375,33,48.5
1538,E-4,224.5,0.375,33,48.5
1539,G#4,224.5,0.375,33,48.5
1540,E-5,224.75,0.25,36,48.5
1541,E-5,225.0,0.25,43,48.5
1542,E-4,225.0,0.5,31,48.5
1543,C4,225.0,0.5,31,48.5
1544,E-6,225.25,0.25,36,48.5
1545,C6,225.5,0.25,43,48.5
1546,C4,225.5,0.5,31,48.5
1547,G#4,225.5,0.5,31,48.5
1548,E-4,225.5,0.5,31,48.5
1549,E-5,225.75,0.25,36,48.5
1550,E-5,226.0,0.25,46,48.5
1551,G4,226.0,0.5,31,48.5
1552,E-4,226.0,0.5,31,48.5
1553,B-4,226.0,0.5,31,48.5
1554,E-6,226.25,0.25,36,48.5
1555,C6,226.5,0.25,45,48.5
1556,G#3,226.5,0.25,46,48.5
1557,E-5,226.75,0.25,36,48.5
1558,E-5,227.0,0.25,45,48.5
1559,E-4,227.0,0.375,25,48.5
1560,G#4,227.0,0.375,25,48.5
1561,C5,227.0,0.375,25,48.5
1562,E-6,227.25,0.25,39,48.5
1563,G#5,227.5,0.25,46,48.5
1564,E-4,227.5,0.375,25,48.5
1565,G#4,227.5,0.375,25,48.5
1566,C5,227.5,0.375,25,48.5
1567,G#6,227.75,0.25,36,48.5
1568,G#5,228.0,0.25,50,48.5
1569,E-4,228.0,0.375,25,48.5
1570,G#4,228.0,0.375,25,48.5
1571,C5,228.0,0.375,25,48.5
1572,G#6,228.25,0.25,36,48.5
1573,F6,228.5,0.25,43,48.5
1574,G#4,228.5,0.5,33,48.5
1575,D4,228.5,0.5,33,48.5
1576,B4,228.5,0.5,33,48.5
1577,G#5,228.75,0.25,36,48.5
1578,G#5,229.0,0.25,50,48.5
1579,E-4,229.0,0.375,26,48.5
1580,G#4,229.0,0.375,26,48.5
1581,C5,229.0,0.375,26,48.5
1582,G#6,229.25,0.25,36,48.5
1583,F6,229.5,0.25,42,48.5
1584,E-4,229.5,0.375,28,48.5
1585,G#4,229.5,0.375,28,48.5
1586,C5,229.5,0.375,28,48.5
1587,G#5,229.75,0.25,36,48.5
1588,G#5,230.0,0.25,46,48.5
1589,C5,230.0,0.375,30,48.5
1590,E-4,230.0,0.375,30,48.5
1591,G#4,230.0,0.375,30,48.5
1592,G#6,230.25,0.25,36,48.5
1593,A5,230.5,0.25,47,48.5
1594,C#4,230.5,2.5,43,48.5
1595,E-5,230.5,0.5,33,48.5
1596,G#4,230.5,0.5,33,48.5
1597,F#4,230.5,0.5,33,48.5
1598,A6,230.75,0.25,40,48.5
1599,B-5,231.0,0.25,52,48.5
1600,G#4,231.0,0.375,25,48.5
1601,F4,231.0,0.375,25,48.5
1602,C#5,231.0,0.375,25,48.5
1603,B-6,231.25,0.25,36,48.5
1604,C7,231.5,0.25,48,48.5
1605,C6,231.5,0.25,48,48.5
1606,G#4,231.5,0.375,25,48.5
1607,C#5,231.5,0.375,25,48.5
1608,F4,231.5,0.375,25,48.5
1609,C#7,231.75,0.25,53,48.5
1610,C#6,231.75,0.25,53,48.5
1611,E-6,232.0,0.25,67,48.5
1612,F4,232.0,0.375,28,48.5
1613,G#4,232.0,0.375,28,48.5
1614,C#5,232.0,0.375,28,48.5
1615,E-7,232.25,0.25,53,48.5
1616,C#7,232.5,0.25,60,48.5
1617,F4,232.5,0.5,33,48.5
1618,C#5,232.5,0.5,33,48.5
1619,G#4,232.5,0.5,33,48.5
1620,E-6,232.75,0.25,53,48.5
1621,E-6,233.0,0.25,63,48.5
1622,E-4,233.0,0.5,28,48.5
1623,C5,233.0,0.5,28,48.5
1624,F4,233.0,0.5,28,48.5
1625,E-7,233.25,0.25,53,48.5
1626,C#7,233.5,0.25,60,48.5
1627,B-4,233.5,0.5,29,48.5
1628,C#4,233.5,0.5,29,48.5
1629,F4,233.5,0.5,29,48.5
1630,E-6,233.75,0.25,50,48.5
1631,E-6,234.0,0.25,59,48.5
1632,G#4,234.0,0.5,30,48.5
1633,C4,234.0,0.5,30,48.5
1634,E-4,234.0,0.5,30,48.5
1635,E-7,234.25,0.25,45,48.5
1636,C#7,234.5,0.25,56,48.5
1637,E-3,234.5,0.5,41,48.5
1638,E-6,234.75,0.25,48,48.5
1639,C7,235.0,0.25,58,48.5
1640,G4,235.0,0.375,28,48.5
1641,B-3,235.0,0.375,28,48.5
1642,E-4,235.0,0.375,28,48.5
1643,E-7,235.25,0.25,47,48.5
1644,B-6,235.5,0.25,59,48.5
1645,E-4,235.5,0.375,28,48.5
1646,G4,235.5,0.375,28,48.5
1647,B-3,235.5,0.375,28,48.5
1648,E-7,235.75,0.25,52,48.5
1649,E-6,236.0,0.25,64,48.5
1650,G4,236.0,0.375,28,48.5
1651,B-3,236.0,0.375,28,48.5
1652,E-4,236.0,0.375,28,48.5
1653,E-7,236.25,0.25,43,48.5
1654,C7,236.5,0.25,55,48.5
1655,B-3,236.5,0.375,37,48.5
1656,E-4,236.5,0.375,37,48.5
1657,G4,236.5,0.375,37,48.5
1658,E-6,236.75,0.25,44,48.5
1659,E-5,237.0,0.25,51,48.5
1660,E-4,237.0,0.375,29,48.5
1661,G4,237.0,0.375,29,48.5
1662,B-3,237.0,0.375,29,48.5
1663,E-6,237.25,0.25,43,48.5
1664,C6,237.5,0.25,47,48.5
1665,C4,237.5,0.5,31,48.5
1666,E-4,237.5,0.5,31,48.5
1667,G#4,237.5,0.5,31,48.5
1668,E-5,237.75,0.25,41,48.5
1669,E-5,238.0,0.25,47,48.5
1670,B-4,238.0,0.5,34,48.5
1671,C#4,238.0,0.5,34,48.5
1672,E-4,238.0,0.5,34,48.5
1673,E-6,238.25,0.25,39,48.5
1674,C6,238.5,0.25,41,48.5
1675,G#3,238.5,2.0,43,48.5
1676,C#4,238.5,0.5,34,48.5
1677,E-4,238.5,0.5,34,48.5
1678,E-5,238.75,0.25,38,48.5
1679,G#5,239.0,0.25,47,48.5
1680,G#4,239.0,0.375,28,48.5
1681,E-4,239.0,0.375,28,48.5
1682,C4,239.0,0.375,28,48.5
1683,G#6,239.25,0.25,42,48.5
1684,E-5,239.5,0.25,43,48.5
1685,G#4,239.5,0.375,28,48.5
1686,C4,239.5,0.375,28,48.5
1687,E-4,239.5,0.375,28,48.5
1688,E-6,239.75,0.25,37,48.5
1689,E-5,240.0,0.25,50,48.5
1690,G#4,240.0,0.375,31,48.5
1691,E-4,240.0,0.375,31,48.5
1692,C4,240.0,0.375,31,48.5
1693,E-6,240.25,0.25,37,48.5
1694,C#6,240.5,0.25,44,48.5
1695,G#4,240.5,0.5,35,48.5
1696,C5,240.625,0.375,38,48.5
1697,E-4,240.625,0.375,38,48.5
1698,E-5,240.75,0.25,37,48.5
1699,E-5,241.0,0.25,48,48.5
1700,C4,241.0,0.375,28,48.5
1701,G#4,241.0,0.375,28,48.5
1702,E-4,241.0,0.375,28,48.5
1703,E-6,241.25,0.25,37,48.5
1704,C#6,241.5,0.25,43,48.5
1705,C4,241.5,0.375,28,48.5
1706,G#4,241.5,0.375,28,48.5
1707,E-4,241.5,0.375,28,48.5
1708,E-5,241.75,0.25,37,48.5
1709,E-5,242.0,0.25,48,48.5
1710,E-4,242.0,0.375,28,48.5
1711,G#4,242.0,0.375,28,48.5
1712,C4,242.0,0.375,28,48.5
1713,E-6,242.25,0.25,37,48.5
1714,C#6,242.5,0.25,48,48.5
1715,E-3,242.5,0.5,37,48.5
1716,E-5,242.75,0.25,44,48.5
1717,C6,243.0,0.25,53,48.5
1718,G4,243.0,0.375,25,48.5
1719,B-3,243.0,0.375,25,48.5
1720,E-4,243.0,0.375,25,48.5
1721,E-6,243.25,0.25,46,48.5
1722,B-5,243.5,0.25,52,48.5
1723,E-4,243.5,0.375,25,48.5
1724,B-3,243.5,0.375,25,48.5
1725,G4,243.5,0.375,25,48.5
1726,E-6,243.75,0.25,47,48.5
1727,E-5,244.0,0.25,58,48.5
1728,E-4,244.0,0.375,25,48.5
1729,B-3,244.0,0.375,25,48.5
1730,G4,244.0,0.375,25,48.5
1731,E-6,244.25,0.25,36,48.5
1732,C6,244.5,0.25,44,48.5
1733,B-3,244.5,0.375,33,48.5
1734,E-4,244.5,0.375,33,48.5
1735,G4,244.5,0.375,33,48.5
1736,E-5,244.75,0.25,36,48.5
1737,E-5,245.0,0.25,50,48.5
1738,E-4,245.0,0.375,26,48.5
1739,G4,245.0,0.375,26,48.5
1740,B-3,245.0,0.375,26,48.5
1741,E-6,245.25,0.25,36,48.5
1742,C6,245.5,0.25,43,48.5
1743,G#4,245.5,0.5,28,48.5
1744,E-4,245.5,0.5,28,48.5
1745,C4,245.5,0.5,28,48.5
1746,E-5,245.75,0.25,36,48.5
1747,E-5,246.0,0.25,50,48.5
1748,C#4,246.0,0.5,30,48.5
1749,B-4,246.0,0.5,30,48.5
1750,E-4,246.0,0.5,30,48.5
1751,E-6,246.25,0.25,36,48.5
1752,C6,246.5,0.25,44,48.5
1753,G#3,246.5,2.0,43,48.5
1754,C#4,246.5,0.5,31,48.5
1755,E-4,246.5,0.5,31,48.5
1756,E-5,246.75,0.25,36,48.5
1757,G#5,247.0,0.25,53,48.5
1758,E-4,247.0,0.375,25,48.5
1759,G#4,247.0,0.375,25,48.5
1760,C4,247.0,0.375,25,48.5
1761,G#6,247.25,0.25,44,48.5
1762,E-5,247.5,0.25,53,48.5
1763,E-4,247.5,0.375,25,48.5
1764,G#4,247.5,0.375,25,48.5
1765,C4,247.5,0.375,25,48.5
1766,E-6,247.75,0.25,47,48.5
1767,E-6,248.0,0.25,63,48.5
1768,G#4,248.0,0.375,28,48.5
1769,C4,248.0,0.375,28,48.5
1770,E-4,248.0,0.375,28,48.5
1771,E-7,248.25,0.25,52,48.5
1772,C#7,248.5,0.25,62,48.5
1773,G#4,248.5,0.5,31,48.5
1774,C5,248.625,0.375,34,48.5
1775,E-4,248.625,0.375,34,48.5
1776,E-6,248.75,0.25,50,48.5
1777,E-6,249.0,0.25,63,48.5
1778,E-4,249.0,0.375,28,48.5
1779,G#4,249.0,0.375,28,48.5
1780,C4,249.0,0.375,28,48.5
1781,E-7,249.25,0.25,54,48.5
1782,C#7,249.5,0.25,59,48.5
1783,G#4,249.5,0.375,28,48.5
1784,C4,249.5,0.375,28,48.5
1785,E-4,249.5,0.375,28,48.5
1786,E-6,249.75,0.25,51,48.5
1787,E-6,250.0,0.25,64,48.5
1788,G#4,250.0,0.375,28,48.5
1789,C4,250.0,0.375,28,48.5
1790,E-4,250.0,0.375,28,48.5
1791,E-7,250.25,0.25,48,48.5
1792,C#7,250.5,0.25,57,48.5
1793,E-3,250.5,0.5,37,48.5
1794,E-6,250.75,0.25,46,48.5
1795,C7,251.0,0.25,63,48.5
1796,B-3,251.0,0.375,25,48.5
1797,E-4,251.0,0.375,25,48.5
1798,G4,251.0,0.375,25,48.5
1799,E-7,251.25,0.25,52,48.5
1800,B-6,251.5,0.25,59,48.5
1801,G4,251.5,0.375,25,48.5
1802,E-4,251.5,0.375,25,48.5
1803,B-3,251.5,0.375,25,48.5
1804,E-7,251.75,0.25,48,48.5
1805,B-6,252.0,2.5,59,48.5
1806,E-4,252.0,0.375,25,48.5
1807,G4,252.0,0.375,25,48.5
1808,B-3,252.0,0.375,25,48.5
1809,B-3,252.5,0.375,33,48.5
1810,G4,252.5,0.375,33,48.5
1811,E-4,252.5,0.375,33,48.5
1812,E-4,253.0,0.375,26,48.5
1813,G4,253.0,0.375,26,48.5
1814,B-3,253.0,0.375,26,48.5
1815,G#4,253.5,0.5,28,48.5
1816,E-4,253.5,0.5,28,48.5
1817,C4,253.5,0.5,28,48.5
1818,B-4,254.0,0.5,30,48.5
1819,E-4,254.0,0.5,30,48.5
1820,C#4,254.0,0.5,30,48.5
1821,C7,254.5,0.5,66,48.5
1822,E-3,254.5,0.5,33,48.5
1823,C#7,255.0,0.5,71,48.5
1824,D7,255.5,0.5,75,48.5
1825,B-4,255.5,3.0,33,48.5
1826,E-4,255.5,3.0,33,48.5
1827,C#4,255.5,3.0,33,48.5
1828,E-7,256.0,3.0,79,48.5
1829,B-4,258.5,4.0,33,48.5
1830,E-4,258.5,4.0,33,48.5
1831,C#4,258.5,4.0,33,48.5
1832,G6,259.0,1.0,66,48.5
1833,C7,260.0,0.25,56,48.5
1834,E-7,260.25,0.25,49,48.5
1835,G#6,260.5,0.25,49,48.5
1836,C7,260.75,0.25,45,48.5
1837,E-6,261.0,0.25,56,48.5
1838,G#6,261.25,0.25,50,48.5
1839,C6,261.5,0.25,50,48.5
1840,E-6,261.75,0.25,45,48.5
1841,G#5,262.0,0.25,56,48.5
1842,C6,262.25,0.25,50,48.5
1843,E-5,262.5,0.25,50,48.5
1844,G#4,262.5,3.0,33,48.5
1845,G#3,262.5,3.0,33,48.5
1846,E-4,262.5,3.0,33,48.5
1847,C4,262.5,3.0,33,48.5
1848,G#5,262.75,0.25,50,48.5
1849,C5,263.0,0.25,56,48.5
1850,E-5,263.25,0.25,50,48.5
1851,G#4,263.5,0.25,50,48.5
1852,C5,263.75,0.25,45,48.5
1853,E-4,264.0,0.25,53,48.5
1854,G#4,264.25,0.25,44,48.5
1855,C4,264.5,0.25,44,48.5
1856,E-4,264.75,0.25,40,48.5
1857,G#3,267.5,0.25,46,48.5
1858,C4,267.75,0.25,39,48.5
1859,E-3,268.0,0.25,39,48.5
1860,G#3,268.25,0.25,35,48.5
1861,C4,268.5,0.25,44,48.5
1862,E-4,268.75,0.25,37,48.5
1863,E-3,269.0,0.25,37,48.5
1864,G#3,269.25,0.25,33,48.5
1865,C4,269.5,0.25,43,48.5
1866,E-4,269.75,0.25,35,48.5
1867,E-3,270.0,0.25,35,48.5
1868,G#3,270.25,0.25,30,48.5
1869,C4,270.5,0.25,41,48.5
1870,E-4,270.75,0.25,34,48.5
1871,E-3,271.0,0.25,34,48.5
1872,G#3,271.25,0.25,28,48.5
1873,C4,271.5,0.25,40,48.5
1874,E-4,271.75,0.25,31,48.5
1875,E-3,272.0,0.25,31,48.5
1876,G#3,272.25,0.25,27,48.5
1877,C4,272.5,0.25,38,48.5
1878,E-4,272.75,0.25,31,48.5
1879,E-3,273.0,0.25,30,48.5
1880,G#3,273.25,0.25,28,48.5
1881,C4,273.5,0.25,38,48.5
1882,E-4,273.75,0.25,29,48.5
1883,E-3,274.0,0.25,29,48.5
1884,G#3,274.25,0.25,25,48.5
1885,B3,274.5,0.25,37,48.5
1886,G#2,274.5,1.0,32,48.5
1887,G#1,274.5,1.0,32,48.5
1888,E-4,274.74,0.25,29,48.5
1889,E-3,275.0,0.25,29,48.5
1890,B4,275.0,0.5,42,48.5
1891,G#4,275.0,0.5,42,48.5
1892,G#3,275.25,0.25,25,48.5
1893,B3,275.5,0.25,37,48.5
1894,B-4,275.5,0.5,44,48.5
1895,C#5,275.5,0.5,44,48.5
1896,E-4,275.75,0.25,29,48.5
1897,E-3,276.0,0.25,29,48.5
1898,E-5,276.0,1.0,46,48.5
1899,B4,276.0,1.0,46,48.5
1900,G#3,276.25,0.25,25,48.5
1901,B3,276.5,0.25,37,48.5
1902,E-4,276.75,0.25,29,48.5
1903,E-3,277.0,0.25,29,48.5
1904,G#3,277.25,0.25,26,48.5
1905,B3,277.5,0.25,37,48.5
1906,E-4,277.75,0.25,29,48.5
1907,C#4,278.0,0.25,36,48.5
1908,E-4,278.25,0.25,39,48.5
1909,B3,278.5,0.25,47,48.5
1910,B2,278.5,0.5,40,48.5
1911,E-3,278.5,0.5,40,48.5
1912,E-4,278.75,0.25,36,48.5
1913,E-3,279.0,0.25,36,48.5
1914,E-3,279.0,0.5,43,48.5
1915,B-2,279.0,0.5,43,48.5
1916,G#3,279.25,0.25,32,48.5
1917,B3,279.5,0.25,40,48.5
1918,G#2,279.5,0.5,46,48.5
1919,E-3,279.5,0.5,46,48.5
1920,E-4,279.75,0.25,36,48.5
1921,E-3,280.0,0.25,36,48.5
1922,E-2,280.0,0.5,47,48.5
1923,E-3,280.0,0.5,47,48.5
1924,G#3,280.25,0.25,33,48.5
1925,B3,280.5,0.25,45,48.5
1926,E-4,280.75,0.25,35,48.5
1927,G#3,281.0,0.25,35,48.5
1928,B3,281.0,0.25,35,48.5
1929,E-4,281.25,0.25,35,48.5
1930,G3,281.5,0.25,44,48.5
1931,C#4,281.5,0.25,44,48.5
1932,E-4,281.75,0.25,29,48.5
1933,B3,282.0,0.25,31,48.5
1934,G#3,282.0,0.25,31,48.5
1935,E-4,282.25,0.25,27,48.5
1936,B-3,282.5,0.25,37,48.5
1937,G3,282.5,0.25,37,48.5
1938,E-4,282.74,0.25,29,48.5
1939,E-3,283.0,0.25,29,48.5
1940,B-4,283.0,0.5,59,48.5
1941,C#5,283.0,0.5,59,48.5
1942,G3,283.25,0.25,26,48.5
1943,B-3,283.5,0.25,37,48.5
1944,E5,283.5,0.5,56,48.5
1945,C#5,283.5,0.5,56,48.5
1946,E-4,283.75,0.25,29,48.5
1947,E-3,284.0,0.25,29,48.5
1948,E-5,284.0,1.0,52,48.5
1949,B4,284.0,1.0,52,48.5
1950,G3,284.25,0.25,24,48.5
1951,B-3,284.5,0.25,37,48.5
1952,E-4,284.75,0.25,29,48.5
1953,E-3,285.0,0.25,29,48.5
1954,G3,285.25,0.25,26,48.5
1955,B-3,285.5,0.25,42,48.5
1956,E-4,285.75,0.25,31,48.5
1957,C#4,286.0,0.25,31,48.5
1958,E-4,286.25,0.25,27,48.5
1959,B3,286.5,0.25,39,48.5
1960,E-4,286.765,0.25,29,48.5
1961,E-3,287.0,0.5,49,48.5
1962,B2,287.0,0.5,49,48.5
1963,E-3,287.025,0.25,29,48.5
1964,G#3,287.275,0.25,25,48.5
1965,B-2,287.5,0.5,43,48.5
1966,E-3,287.5,0.5,43,48.5
1967,B3,287.525,0.25,42,48.5
1968,E-4,287.775,0.25,34,48.5
1969,G#2,288.0,62/125,46,48.5
1970,E-3,288.0,62/125,46,48.5
1971,E-3,288.025,0.25,34,48.5
1972,G#3,288.275,0.25,27,48.5
1973,B3,288.525,0.25,41,48.5
1974,E-4,288.775,0.25,33,48.5
1975,E-3,289.0,0.25,33,48.5
1976,G#3,289.25,0.25,29,48.5
1977,B3,289.5,0.25,37,48.5
1978,E-4,289.775,0.25,29,48.5
1979,C#4,290.0,0.25,29,48.5
1980,G3,290.0,0.25,29,48.5
1981,E-4,290.275,9/40,26,48.5
1982,B3,290.5,0.25,37,48.5
1983,G#3,290.5,0.25,37,48.5
1984,E-4,290.74,0.25,29,48.5
1985,E-3,291.0,0.25,29,48.5
1986,B4,291.0,0.5,47,48.5
1987,G#4,291.0,0.5,47,48.5
1988,G#3,291.25,0.25,24,48.5
1989,B3,291.5,0.25,38,48.5
1990,C#5,291.5,0.5,50,48.5
1991,B-4,291.5,0.5,50,48.5
1992,E-4,291.75,0.25,30,48.5
1993,E-3,292.0,0.25,31,48.5
1994,B4,292.0,1.0,52,48.5
1995,E-5,292.0,1.0,52,48.5
1996,G#3,292.25,0.25,31,48.5
1997,B3,292.5,0.25,40,48.5
1998,E-4,292.75,0.25,32,48.5
1999,E-3,293.0,0.25,32,48.5
2000,G#3,293.25,0.25,28,48.5
2001,B3,293.5,0.25,42,48.5
2002,E-4,293.75,0.25,33,48.5
2003,F#3,294.0,0.25,41,48.5
2004,C#4,294.0,0.25,41,48.5
2005,F#4,294.25,0.25,44,48.5
2006,E-3,294.5,0.5,46,48.5
2007,F#3,294.5,0.5,46,48.5
2008,E-4,294.5,0.25,54,48.5
2009,B3,294.5,0.25,54,48.5
2010,F#4,294.75,0.25,41,48.5
2011,C#3,295.0,0.5,46,48.5
2012,F#3,295.0,0.5,46,48.5
2013,F#3,295.004,0.25,41,48.5
2014,B3,295.25,0.25,35,48.5
2015,E-4,295.5,0.25,46,48.5
2016,B2,295.5,0.5,50,48.5
2017,F#3,295.5,0.5,50,48.5
2018,F#4,295.75,0.25,41,48.5
2019,F#3,296.0,0.25,41,48.5
2020,F#2,296.0,0.5,54,48.5
2021,F#3,296.0,0.5,54,48.5
2022,B3,296.25,0.25,36,48.5
2023,E-4,296.5,0.25,51,48.5
2024,F#4,296.75,0.25,44,48.5
2025,B3,297.0,0.25,46,48.5
2026,E-4,297.0,0.25,46,48.5
2027,F#4,297.25,0.25,47,48.5
2028,B-3,297.5,0.25,55,48.5
2029,E4,297.5,0.25,55,48.5
2030,F#4,297.75,0.25,48,48.5
2031,E-4,298.0,0.25,50,48.5
2032,B3,298.0,0.25,50,48.5
2033,F#4,298.25,0.25,54,48.5
2034,C#4,298.5,0.25,60,48.5
2035,B-3,298.5,0.25,60,48.5
2036,F#4,298.75,0.25,49,48.5
2037,F#3,299.0,0.25,49,48.5
2038,E5,299.0,0.5,68,48.5
2039,C#5,299.0,0.5,68,48.5
2040,B-3,299.25,0.25,42,48.5
2041,C#4,299.5,0.25,52,48.5
2042,G#5,299.5,0.5,64,48.5
2043,E5,299.5,0.5,64,48.5
2044,F#4,299.75,0.25,42,48.5
2045,F#3,300.0,0.25,42,48.5
2046,E-5,300.0,1.0,67,48.5
2047,F#5,300.0,1.0,67,48.5
2048,B-3,300.25,0.25,36,48.5
2049,C#4,300.5,0.25,58,48.5
2050,F#4,300.75,0.25,45,48.5
2051,F#3,301.0,0.25,45,48.5
2052,B-3,301.25,0.25,40,48.5
2053,C#4,301.5,0.25,56,48.5
2054,F#4,301.75,0.25,41,48.5
2055,E4,302.0,0.25,41,48.5
2056,F#4,302.25,0.25,35,48.5
2057,E-4,302.5,0.25,53,48.5
2058,F#4,302.75,0.25,43,48.5
2059,F#3,303.0,0.25,43,48.5
2060,E-3,303.0,0.5,51,48.5
2061,F#3,303.0,0.5,51,48.5
2062,B3,303.25,0.25,38,48.5
2063,E-4,303.5,0.25,48,48.5
2064,C#3,303.5,0.5,44,48.5
2065,F#3,303.5,0.5,44,48.5
2066,F#4,303.75,0.25,38,48.5
2067,F#3,304.0,0.25,38,48.5
2068,F#3,304.0,0.5,46,48.5
2069,B2,304.0,0.5,46,48.5
2070,B3,304.25,0.25,33,48.5
2071,E-4,304.5,0.25,45,48.5
2072,F#4,304.75,0.25,35,48.5
2073,F#3,305.0,0.25,35,48.5
2074,B3,305.25,0.25,31,48.5
2075,B3,305.5,0.25,38,48.5
2076,E-4,305.5,0.25,38,48.5
2077,F#4,305.75,0.25,30,48.5
2078,E4,306.0,0.25,29,48.5
2079,B-3,306.0,0.25,29,48.5
2080,F#4,306.25,9/40,26,48.5
2081,E-5,306.5,0.5,61,48.5
2082,E-4,306.5,0.25,37,48.5
2083,B3,306.5,0.25,37,48.5
2084,F#4,306.75,0.25,29,48.5
2085,C#5,307.0,0.5,64,48.5
2086,F#3,307.0,0.25,29,48.5
2087,B3,307.25,0.25,25,48.5
2088,B4,307.5,0.5,66,48.5
2089,E-4,307.5,0.25,38,48.5
2090,F#4,307.75,0.25,30,48.5
2091,G#4,308.0,1.0,66,48.5
2092,F#3,308.0,0.25,31,48.5
2093,B3,308.25,0.25,26,48.5
2094,E-4,308.5,0.25,40,48.5
2095,F#4,308.75,0.25,32,48.5
2096,F#3,309.0,0.25,32,48.5
2097,B3,309.25,0.25,28,48.5
2098,E-4,309.5,0.25,42,48.5
2099,F#4,309.75,0.25,33,48.5
2100,F#3,310.0,0.25,41,48.5
2101,B3,310.25,0.25,44,48.5
2102,E3,310.5,0.5,65,48.5
2103,E4,310.5,0.25,50,48.5
2104,B3,310.75,0.25,36,48.5
2105,E-3,311.0,0.5,68,48.5
2106,G#3,311.0,0.25,36,48.5
2107,B3,311.25,0.25,32,48.5
2108,C#3,311.5,0.5,71,48.5
2109,E4,311.5,0.25,45,48.5
2110,G#4,311.75,0.25,36,48.5
2111,B-2,312.0,2.0,76,48.5
2112,G#3,312.0,0.25,36,48.5
2113,B3,312.25,0.25,33,48.5
2114,E4,312.5,0.25,44,48.5
2115,G#4,312.75,0.25,37,48.5
2116,G#3,313.0,0.25,37,48.5
2117,C#4,313.25,0.25,37,48.5
2118,E4,313.5,0.25,48,48.5
2119,G#4,313.75,0.25,38,48.5
2120,B2,314.0,0.5,61,48.5
2121,G#3,314.0,0.25,41,48.5
2122,C#4,314.25,0.25,44,48.5
2123,E-5,314.5,0.5,68,48.5
2124,E4,314.5,0.25,56,48.5
2125,F#4,314.75,0.25,42,48.5
2126,E5,315.0,0.5,73,48.5
2127,F#3,315.0,0.25,42,48.5
2128,C#4,315.25,0.25,35,48.5
2129,F5,315.5,0.5,77,48.5
2130,E4,315.5,0.25,52,48.5
2131,F#4,315.75,0.25,42,48.5
2132,F#5,316.0,4.0,82,48.5
2133,F#3,316.0,0.25,42,48.5
2134,C#4,316.25,0.25,36,48.5
2135,E-4,316.5,0.25,50,48.5
2136,F#4,316.75,0.25,40,48.5
2137,F#3,317.0,0.25,40,48.5
2138,B3,317.25,0.25,36,48.5
2139,E-4,317.5,0.25,42,48.5
2140,F#4,317.75,0.25,33,48.5
2141,F#3,318.0,0.25,41,48.5
2142,B3,318.25,0.25,44,48.5
2143,C#4,318.5,0.25,54,48.5
2144,F#4,318.75,0.25,41,48.5
2145,F#3,319.0,0.25,41,48.5
2146,B3,319.25,0.25,35,48.5
2147,C#4,319.5,0.25,48,48.5
2148,F#4,319.75,0.25,39,48.5
2149,E-5,320.0,1.0,66,48.5
2150,F#3,320.0,0.25,39,48.5
2151,B3,320.25,0.25,39,48.5
2152,C#4,320.5,0.25,48,48.5
2153,F#4,320.75,0.25,32,48.5
2154,F#3,321.0,0.25,37,48.5
2155,B-3,321.25,0.25,35,48.5
2156,C#4,321.5,0.25,42,48.5
2157,F#4,321.75,0.25,29,48.5
2158,F#3,322.0,0.25,29,48.5
2159,B-3,322.25,0.25,25,48.5
2160,B2,322.5,0.5,44,48.5
2161,E-4,322.5,0.25,37,48.5
2162,F#4,322.75,0.25,29,48.5
2163,C#3,323.0,0.5,48,48.5
2164,F#3,323.0,0.25,29,48.5
2165,B3,323.25,0.25,25,48.5
2166,D3,323.5,0.5,45,48.5
2167,E-4,323.5,0.25,38,48.5
2168,F#4,323.75,0.25,30,48.5
2169,F#2,324.0,4.0,48,48.5
2170,F#3,324.0,0.25,31,48.5
2171,B3,324.25,0.25,28,48.5
2172,D4,324.5,0.25,40,48.5
2173,F#4,324.75,0.25,32,48.5
2174,F#3,325.0,0.25,32,48.5
2175,B3,325.25,0.25,28,48.5
2176,D4,325.5,0.25,42,48.5
2177,F#4,325.75,0.25,33,48.5
2178,F#3,326.0,0.25,33,48.5
2179,B3,326.25,0.25,28,48.5
2180,C#4,326.5,0.25,37,48.5
2181,F#4,326.75,0.25,29,48.5
2182,F#3,327.0,0.25,29,48.5
2183,B3,327.25,0.25,24,48.5
2184,C#4,327.5,0.25,38,48.5
2185,F#4,327.75,0.25,29,48.5
2186,B1,328.0,1.0,44,48.5
2187,F#3,328.0,0.25,29,48.5
2188,B3,328.25,0.25,24,48.5
2189,C#4,328.5,0.25,40,48.5
2190,F#4,328.75,0.25,28,48.5
2191,F#3,329.0,0.25,28,48.5
2192,B-3,329.25,0.25,28,48.5
2193,C#4,329.5,0.25,41,48.5
2194,F#4,329.75,0.25,29,48.5
2195,E-2,330.0,1.5,48,48.5
2196,F#3,330.0,0.25,29,48.5
2197,B-3,330.25,0.25,25,48.5
2198,B3,330.5,0.25,37,48.5
2199,E-4,330.75,0.25,29,48.5
2200,E-3,331.0,0.25,29,48.5
2201,F#3,331.25,0.25,25,48.5
2202,C#2,331.5,167/1000,41,48.5
2203,B3,331.5,0.25,38,48.5
2204,B1,331.667,167/1000,35,48.5
2205,E-4,331.75,0.25,30,48.5
2206,B-1,331.833,167/1000,35,48.5
2207,E-3,332.0,0.25,31,48.5
2208,F#3,332.25,0.25,28,48.5
2209,C#4,332.5,0.25,40,48.5
2210,E-4,332.75,0.25,32,48.5
2211,E-3,333.0,0.25,32,48.5
2212,G3,333.25,0.25,28,48.5
2213,C#4,333.5,0.25,42,48.5
2214,E-4,333.74,0.25,29,48.5
2215,E-3,334.0,0.25,29,48.5
2216,G3,334.25,0.25,26,48.5
2217,B3,334.5,0.25,37,48.5
2218,G#1,334.5,1.0,32,48.5
2219,G#2,334.5,1.0,32,48.5
2220,E-4,334.74,0.25,29,48.5
2221,E-3,335.0,0.25,29,48.5
2222,G#4,335.0,0.5,42,48.5
2223,B4,335.0,0.5,42,48.5
2224,G#3,335.25,0.25,26,48.5
2225,B3,335.5,0.25,37,48.5
2226,B-4,335.5,0.5,44,48.5
2227,C#5,335.5,0.5,44,48.5
2228,E-4,335.75,0.25,29,48.5
2229,E-3,336.0,0.25,29,48.5
2230,E-5,336.0,1.0,46,48.5
2231,B4,336.0,1.0,46,48.5
2232,G#3,336.25,0.25,26,48.5
2233,B3,336.5,0.25,37,48.5
2234,E-4,336.75,0.25,29,48.5
2235,E-3,337.0,0.25,29,48.5
2236,G#3,337.25,0.25,26,48.5
2237,B3,337.5,0.25,37,48.5
2238,E-4,337.75,0.25,29,48.5
2239,C#4,338.0,0.25,36,48.5
2240,E-4,338.25,0.25,39,48.5
2241,B3,338.5,0.25,47,48.5
2242,B2,338.5,0.5,40,48.5
2243,E-3,338.5,0.5,40,48.5
2244,E-4,338.75,0.25,36,48.5
2245,E-3,339.0,0.25,36,48.5
2246,E-3,339.0,0.5,43,48.5
2247,B-2,339.0,0.5,43,48.5
2248,G#3,339.25,0.25,32,48.5
2249,B3,339.5,0.25,40,48.5
2250,G#2,339.5,0.5,46,48.5
2251,E-3,339.5,0.5,46,48.5
2252,E-4,339.75,0.25,36,48.5
2253,E-3,340.0,0.25,36,48.5
2254,E-2,340.0,62/125,47,48.5
2255,E-3,340.0,62/125,47,48.5
2256,G#3,340.25,0.25,32,48.5
2257,B3,340.5,0.25,45,48.5
2258,E-4,340.75,0.25,35,48.5
2259,B3,341.0,0.25,35,48.5
2260,G#3,341.0,0.25,35,48.5
2261,E-4,341.25,0.25,29,48.5
2262,C#4,341.5,0.25,44,48.5
2263,G3,341.5,0.25,44,48.5
2264,E-4,341.75,0.25,29,48.5
2265,G#3,342.0,0.25,31,48.5
2266,B3,342.0,0.25,31,48.5
2267,E-4,342.25,0.25,28,48.5
2268,G3,342.5,0.25,37,48.5
2269,B-3,342.5,0.25,37,48.5
2270,E-4,342.74,0.25,29,48.5
2271,E-3,343.0,0.25,29,48.5
2272,C#5,343.0,0.5,59,48.5
2273,B-4,343.0,0.5,59,48.5
2274,G3,343.25,0.25,24,48.5
2275,B-3,343.5,0.25,37,48.5
2276,C#5,343.5,0.5,56,48.5
2277,E5,343.5,0.5,56,48.5
2278,E-4,343.75,0.25,29,48.5
2279,E-3,344.0,0.25,29,48.5
2280,E-5,344.0,1.0,52,48.5
2281,B4,344.0,1.0,52,48.5
2282,G3,344.25,0.25,25,48.5
2283,B-3,344.5,0.25,37,48.5
2284,E-4,344.75,0.25,29,48.5
2285,E-3,345.0,0.25,29,48.5
2286,G3,345.25,0.25,26,48.5
2287,B-3,345.5,0.25,42,48.5
2288,E-4,345.75,0.25,31,48.5
2289,C#4,346.0,0.25,31,48.5
2290,E-4,346.25,0.25,29,48.5
2291,B3,346.5,0.25,39,48.5
2292,E-4,346.765,0.25,29,48.5
2293,B2,347.0,0.5,49,48.5
2294,E-3,347.0,0.5,49,48.5
2295,E-3,347.025,0.25,29,48.5
2296,G#3,347.275,0.25,24,48.5
2297,E-3,347.5,0.5,43,48.5
2298,B-2,347.5,0.5,43,48.5
2299,B3,347.525,0.25,42,48.5
2300,E-4,347.775,0.25,34,48.5
2301,E-3,348.0,0.5,46,48.5
2302,G#2,348.0,0.5,46,48.5
2303,E-3,348.025,0.25,34,48.5
2304,G#3,348.275,0.25,28,48.5
2305,B3,348.525,0.25,41,48.5
2306,E-4,348.775,0.25,33,48.5
2307,E-3,349.0,0.25,33,48.5
2308,G#3,349.25,0.25,29,48.5
2309,B3,349.5,0.25,37,48.5
2310,E-4,349.775,0.25,29,48.5
2311,C#4,350.0,0.25,29,48.5
2312,G3,350.0,0.25,29,48.5
2313,E-4,350.275,9/40,25,48.5
2314,B3,350.5,0.25,37,48.5
2315,G#3,350.5,0.25,37,48.5
2316,E-4,350.74,0.25,29,48.5
2317,E-3,351.0,0.25,29,48.5
2318,G#4,351.0,0.5,47,48.5
2319,B4,351.0,0.5,47,48.5
2320,G#3,351.25,0.25,25,48.5
2321,B3,351.5,0.25,38,48.5
2322,B-4,351.5,0.5,50,48.5
2323,C#5,351.5,0.5,50,48.5
2324,E-4,351.75,0.25,30,48.5
2325,E-3,352.0,0.25,31,48.5
2326,B4,352.0,1.0,52,48.5
2327,E-5,352.0,1.0,52,48.5
2328,G#3,352.25,0.25,28,48.5
2329,B3,352.5,0.25,40,48.5
2330,E-4,352.75,0.25,32,48.5
2331,E-3,353.0,0.25,32,48.5
2332,G#3,353.25,0.25,27,48.5
2333,B3,353.5,0.25,42,48.5
2334,E-4,353.75,0.25,33,48.5
2335,C#4,354.0,0.25,41,48.5
2336,F#3,354.0,0.25,41,48.5
2337,F#4,354.25,0.25,44,48.5
2338,E-3,354.5,0.5,46,48.5
2339,F#3,354.5,0.5,46,48.5
2340,E-4,354.5,0.25,54,48.5
2341,B3,354.5,0.25,54,48.5
2342,F#4,354.75,0.25,41,48.5
2343,F#3,355.0,0.5,46,48.5
2344,C#3,355.0,0.5,46,48.5
2345,F#3,355.004,0.25,41,48.5
2346,B3,355.25,0.25,36,48.5
2347,E-4,355.5,0.25,46,48.5
2348,B2,355.5,0.5,50,48.5
2349,F#3,355.5,0.5,50,48.5
2350,F#4,355.75,0.25,41,48.5
2351,F#3,356.0,0.25,41,48.5
2352,F#3,356.0,0.5,54,48.5
2353,F#2,356.0,0.5,54,48.5
2354,B3,356.25,0.25,36,48.5
2355,E-4,356.5,0.25,51,48.5
2356,F#4,356.75,0.25,44,48.5
2357,E-4,357.0,0.25,46,48.5
2358,B3,357.0,0.25,46,48.5
2359,F#4,357.25,0.25,47,48.5
2360,E4,357.5,0.25,55,48.5
2361,B-3,357.5,0.25,55,48.5
2362,F#4,357.75,0.25,48,48.5
2363,B3,358.0,0.25,50,48.5
2364,E-4,358.0,0.25,50,48.5
2365,F#4,358.25,0.25,54,48.5
2366,C#4,358.5,0.25,60,48.5
2367,B-3,358.5,0.25,60,48.5
2368,F#4,358.75,0.25,49,48.5
2369,F#3,359.0,0.25,49,48.5
2370,E5,359.0,0.5,68,48.5
2371,C#5,359.0,0.5,68,48.5
2372,B-3,359.25,0.25,43,48.5
2373,C#4,359.5,0.25,52,48.5
2374,G#5,359.5,0.5,64,48.5
2375,E5,359.5,0.5,64,48.5
2376,F#4,359.75,0.25,42,48.5
2377,F#3,360.0,0.25,42,48.5
2378,F#5,360.0,1.0,67,48.5
2379,E-5,360.0,1.0,67,48.5
2380,B-3,360.25,0.25,36,48.5
2381,C#4,360.5,0.25,58,48.5
2382,F#4,360.75,0.25,45,48.5
2383,F#3,361.0,0.25,45,48.5
2384,B-3,361.25,0.25,36,48.5
2385,C#4,361.5,0.25,56,48.5
2386,F#4,361.75,0.25,41,48.5
2387,E4,362.0,0.25,41,48.5
2388,F#4,362.25,0.25,36,48.5
2389,E-4,362.5,0.25,53,48.5
2390,F#4,362.75,0.25,43,48.5
2391,F#3,363.0,0.25,43,48.5
2392,F#3,363.0,0.5,51,48.5
2393,E-3,363.0,0.5,51,48.5
2394,B3,363.25,0.25,38,48.5
2395,E-4,363.5,0.25,48,48.5
2396,F#3,363.5,0.5,44,48.5
2397,C#3,363.5,0.5,44,48.5
2398,F#4,363.75,0.25,38,48.5
2399,F#3,364.0,0.25,38,48.5
2400,F#3,364.0,0.5,46,48.5
2401,B2,364.0,0.5,46,48.5
2402,B3,364.25,0.25,33,48.5
2403,E-4,364.5,0.25,45,48.5
2404,F#4,364.75,0.25,35,48.5
2405,F#3,365.0,0.25,35,48.5
2406,B3,365.25,0.25,32,48.5
2407,B3,365.5,0.25,38,48.5
2408,E-4,365.5,0.25,38,48.5
2409,F#4,365.75,0.25,30,48.5
2410,E4,366.0,0.25,29,48.5
2411,B-3,366.0,0.25,29,48.5
2412,F#4,366.25,9/40,25,48.5
2413,E-5,366.5,0.5,61,48.5
2414,E-4,366.5,0.25,37,48.5
2415,B3,366.5,0.25,37,48.5
2416,F#4,366.75,0.25,29,48.5
2417,C#5,367.0,0.5,64,48.5
2418,F#3,367.0,0.25,29,48.5
2419,B3,367.25,0.25,23,48.5
2420,B4,367.5,0.5,66,48.5
2421,E-4,367.5,0.25,38,48.5
2422,F#4,367.75,0.25,30,48.5
2423,G#4,368.0,1.0,66,48.5
2424,F#3,368.0,0.25,31,48.5
2425,B3,368.25,0.25,26,48.5
2426,E-4,368.5,0.25,40,48.5
2427,F#4,368.75,0.25,32,48.5
2428,F#3,369.0,0.25,32,48.5
2429,B3,369.25,0.25,28,48.5
2430,E-4,369.5,0.25,42,48.5
2431,F#4,369.75,0.25,33,48.5
2432,F#3,370.0,0.25,41,48.5
2433,B3,370.25,0.25,44,48.5
2434,E3,370.5,0.5,65,48.5
2435,E4,370.5,0.25,50,48.5
2436,B3,370.75,0.25,36,48.5
2437,E-3,371.0,0.5,68,48.5
2438,G#3,371.0,0.25,36,48.5
2439,B3,371.25,0.25,31,48.5
2440,C#3,371.5,0.5,71,48.5
2441,E4,371.5,0.25,45,48.5
2442,G#4,371.75,0.25,36,48.5
2443,B-2,372.0,2.0,76,48.5
2444,G#3,372.0,0.25,36,48.5
2445,B3,372.25,0.25,31,48.5
2446,E4,372.5,0.25,44,48.5
2447,G#4,372.75,0.25,37,48.5
2448,G#3,373.0,0.25,37,48.5
2449,C#4,373.25,0.25,34,48.5
2450,E4,373.5,0.25,48,48.5
2451,G#4,373.75,0.25,38,48.5
2452,B2,374.0,0.5,61,48.5
2453,G#3,374.0,0.25,41,48.5
2454,C#4,374.25,0.25,44,48.5
2455,E-5,374.5,0.5,68,48.5
2456,E4,374.5,0.25,56,48.5
2457,F#4,374.75,0.25,42,48.5
2458,E5,375.0,0.5,73,48.5
2459,F#3,375.0,0.25,42,48.5
2460,C#4,375.25,0.25,37,48.5
2461,F5,375.5,0.5,77,48.5
2462,E4,375.5,0.25,52,48.5
2463,F#4,375.75,0.25,42,48.5
2464,F#5,376.0,4.0,82,48.5
2465,F#3,376.0,0.25,42,48.5
2466,C#4,376.25,0.25,36,48.5
2467,E-4,376.5,0.25,50,48.5
2468,F#4,376.75,0.25,40,48.5
2469,F#3,377.0,0.25,40,48.5
2470,B3,377.25,0.25,36,48.5
2471,E-4,377.5,0.25,42,48.5
2472,F#4,377.75,0.25,33,48.5
2473,F#3,378.0,0.25,41,48.5
2474,B3,378.25,0.25,44,48.5
2475,C#4,378.5,0.25,54,48.5
2476,F#4,378.75,0.25,41,48.5
2477,F#3,379.0,0.25,41,48.5
2478,B3,379.25,0.25,36,48.5
2479,C#4,379.5,0.25,48,48.5
2480,F#4,379.75,0.25,39,48.5
2481,E-5,380.0,1.0,66,48.5
2482,F#3,380.0,0.25,39,48.5
2483,B3,380.25,0.25,36,48.5
2484,C#4,380.5,0.25,48,48.5
2485,F#4,380.75,0.25,32,48.5
2486,F#3,381.0,0.25,37,48.5
2487,B-3,381.25,0.25,37,48.5
2488,C#4,381.5,0.25,42,48.5
2489,F#4,381.75,0.25,29,48.5
2490,F#3,382.0,0.25,29,48.5
2491,B-3,382.25,0.25,29,48.5
2492,B2,382.5,0.5,44,48.5
2493,E-4,382.5,0.25,37,48.5
2494,F#4,382.75,0.25,29,48.5
2495,C#3,383.0,0.5,48,48.5
2496,F#3,383.0,0.25,29,48.5
2497,B3,383.25,0.25,25,48.5
2498,D3,383.5,0.5,45,48.5
2499,E-4,383.5,0.25,38,48.5
2500,F#4,383.75,0.25,30,48.5
2501,F#2,384.0,4.0,48,48.5
2502,F#3,384.0,0.25,31,48.5
2503,B3,384.25,0.25,26,48.5
2504,D4,384.5,0.25,40,48.5
2505,F#4,384.75,0.25,32,48.5
2506,F#3,385.0,0.25,32,48.5
2507,B3,385.25,0.25,29,48.5
2508,D4,385.5,0.25,42,48.5
2509,F#4,385.75,0.25,33,48.5
2510,F#3,386.0,0.25,33,48.5
2511,B3,386.25,0.25,28,48.5
2512,C#4,386.5,0.25,37,48.5
2513,F#4,386.75,0.25,29,48.5
2514,F#3,387.0,0.25,29,48.5
2515,B3,387.25,0.25,26,48.5
2516,C#4,387.5,0.25,38,48.5
2517,F#4,387.75,0.25,29,48.5
2518,B1,388.0,1.0,44,48.5
2519,F#3,388.0,0.25,29,48.5
2520,B3,388.25,0.25,27,48.5
2521,C#4,388.5,0.25,40,48.5
2522,F#4,388.75,0.25,28,48.5
2523,F#3,389.0,0.25,28,48.5
2524,B-3,389.25,0.25,26,48.5
2525,C#4,389.5,0.25,41,48.5
2526,F#4,389.75,0.25,29,48.5
2527,F#3,390.0,0.25,29,48.5
2528,B-3,390.25,0.25,26,48.5
2529,E-5,390.5,0.5,55,48.5
2530,E-4,390.5,0.25,37,48.5
2531,F#4,390.75,0.25,29,48.5
2532,E-5,391.0,0.5,55,48.5
2533,F#3,391.0,0.25,29,48.5
2534,B3,391.25,0.25,25,48.5
2535,E5,391.5,0.5,55,48.5
2536,E-4,391.5,0.25,38,48.5
2537,F#4,391.75,0.25,30,48.5
2538,F#3,392.0,0.25,31,48.5
2539,E-5,392.0,1.0,54,48.5
2540,C#5,392.0,1.0,54,48.5
2541,B-4,392.0,1.0,54,48.5
2542,B3,392.25,0.25,24,48.5
2543,E-4,392.5,0.25,45,48.5
2544,F#4,392.75,0.25,32,48.5
2545,B-4,393.0,0.5,55,48.5
2546,F#3,393.0,0.25,32,48.5
2547,B3,393.25,0.25,32,48.5
2548,E-4,393.5,0.25,47,48.5
2549,F#4,393.75,0.25,34,48.5
2550,F#3,394.0,0.25,38,48.5
2551,B3,394.25,0.25,38,48.5
2552,E-4,394.5,0.25,50,48.5
2553,E-3,394.5,0.5,50,48.5
2554,E-2,394.5,0.5,50,48.5
2555,G4,394.75,0.25,39,48.5
2556,G3,395.0,0.25,39,48.5
2557,E-2,395.0,0.5,50,48.5
2558,E-3,395.0,0.5,50,48.5
2559,B-3,395.25,0.25,34,48.5
2560,E-4,395.5,0.25,51,48.5
2561,B-1,395.5,0.5,50,48.5
2562,B-2,395.5,0.5,50,48.5
2563,G4,395.75,0.25,39,48.5
2564,G3,396.0,0.25,40,48.5
2565,B2,396.0,1.0,56,48.5
2566,B1,396.0,1.0,56,48.5
2567,B-3,396.25,0.25,35,48.5
2568,E-4,396.5,0.25,49,48.5
2569,G4,396.75,0.25,38,48.5
2570,G3,397.0,0.25,38,48.5
2571,G#2,397.0,0.5,54,48.5
2572,G#1,397.0,0.5,54,48.5
2573,B-3,397.25,0.25,33,48.5
2574,E-4,397.5,0.25,51,48.5
2575,G4,397.75,0.25,40,48.5
2576,G3,398.0,0.25,41,48.5
2577,B-3,398.25,0.25,35,48.5
2578,E-4,398.5,0.25,59,48.5
2579,B4,398.5,0.5,64,48.5
2580,E-5,398.5,0.5,64,48.5
2581,G#4,398.75,0.25,45,48.5
2582,G#3,399.0,0.25,46,48.5
2583,E-5,399.0,0.5,64,48.5
2584,B4,399.0,0.5,64,48.5
2585,B3,399.25,0.25,42,48.5
2586,E-4,399.5,0.25,64,48.5
2587,B4,399.5,0.5,64,48.5
2588,E5,399.5,0.5,64,48.5
2589,G#4,399.75,0.25,48,48.5
2590,G#3,400.0,0.25,50,48.5
2591,B-4,400.0,1.0,60,48.5
2592,C#5,400.0,1.0,60,48.5
2593,E-5,400.0,1.0,60,48.5
2594,B3,400.25,0.25,47,48.5
2595,E-4,400.5,0.25,58,48.5
2596,G#4,400.75,0.25,47,48.5
2597,B-4,401.0,0.5,69,48.5
2598,G#3,401.0,0.25,47,48.5
2599,B3,401.25,0.25,44,48.5
2600,E-4,401.5,0.25,54,48.5
2601,G#4,401.75,0.25,46,48.5
2602,G#3,402.0,0.25,46,48.5
2603,B3,402.25,0.25,44,48.5
2604,E-4,402.5,0.25,57,48.5
2605,E-3,402.5,0.5,58,48.5
2606,E-2,402.5,0.5,58,48.5
2607,G4,402.75,0.25,44,48.5
2608,G3,403.0,0.25,44,48.5
2609,E-3,403.0,0.5,58,48.5
2610,E-2,403.0,0.5,58,48.5
2611,B-3,403.25,0.25,40,48.5
2612,E-4,403.5,0.25,58,48.5
2613,B-1,403.5,0.5,58,48.5
2614,B-2,403.5,0.5,58,48.5
2615,G4,403.75,0.25,44,48.5
2616,G3,404.0,0.25,46,48.5
2617,B1,404.0,1.0,64,48.5
2618,B2,404.0,1.0,64,48.5
2619,B-3,404.25,0.25,42,48.5
2620,E-4,404.5,0.25,56,48.5
2621,G4,404.75,0.25,43,48.5
2622,G3,405.0,0.25,43,48.5
2623,G#2,405.0,0.5,59,48.5
2624,G#1,405.0,0.5,59,48.5
2625,B-3,405.25,0.25,39,48.5
2626,E-4,405.5,0.25,58,48.5
2627,G4,405.75,0.25,46,48.5
2628,G3,406.0,0.25,47,48.5
2629,B-3,406.25,0.25,42,48.5
2630,E-5,406.5,0.5,72,48.5
2631,E-4,406.5,0.25,67,48.5
2632,G#4,406.75,0.25,51,48.5
2633,E-5,407.0,0.5,75,48.5
2634,G#3,407.0,0.25,51,48.5
2635,B3,407.25,0.25,47,48.5
2636,E-5,407.5,0.5,79,48.5
2637,E-4,407.5,0.25,69,48.5
2638,G#4,407.75,0.25,51,48.5
2639,E5,408.0,0.5,83,48.5
2640,G#3,408.0,0.25,51,48.5
2641,B3,408.25,0.25,45,48.5
2642,E-4,408.5,0.25,60,48.5
2643,G#4,408.75,0.25,49,48.5
2644,E2,409.0,2.0,77,48.5
2645,G#3,409.0,0.25,49,48.5
2646,B3,409.25,0.25,44,48.5
2647,E-4,409.5,0.25,59,48.5
2648,G#4,409.75,0.25,51,48.5
2649,G#3,410.0,0.25,51,48.5
2650,B3,410.25,0.25,46,48.5
2651,E4,410.5,0.25,65,48.5
2652,G#4,410.75,0.25,53,48.5
2653,C5,411.0,0.75,70,48.5
2654,G#3,411.0,0.25,53,48.5
2655,B3,411.25,0.25,51,48.5
2656,E4,411.5,0.25,62,48.5
2657,D5,411.75,0.25,67,48.5
2658,G#4,411.75,0.25,53,48.5
2659,E5,412.0,0.5,79,48.5
2660,G#3,412.0,0.25,53,48.5
2661,B3,412.25,0.25,48,48.5
2662,E4,412.5,0.25,62,48.5
2663,A4,412.75,0.25,53,48.5
2664,E2,413.0,2.0,77,48.5
2665,A3,413.0,0.25,53,48.5
2666,C4,413.25,0.25,48,48.5
2667,E4,413.5,0.25,62,48.5
2668,A4,413.75,0.25,53,48.5
2669,A3,414.0,0.25,53,48.5
2670,C4,414.25,0.25,47,48.5
2671,E4,414.5,0.25,65,48.5
2672,G#4,414.75,0.25,53,48.5
2673,C5,415.0,0.75,70,48.5
2674,G#3,415.0,0.25,53,48.5
2675,B3,415.25,0.25,49,48.5
2676,E4,415.5,0.25,62,48.5
2677,D5,415.75,0.25,67,48.5
2678,G#4,415.75,0.25,53,48.5
2679,E5,416.0,0.5,77,48.5
2680,G#3,416.0,0.25,53,48.5
2681,B3,416.25,0.25,48,48.5
2682,E4,416.5,0.25,62,48.5
2683,A4,416.75,0.25,53,48.5
2684,E2,417.0,2.0,66,48.5
2685,A3,417.0,0.25,53,48.5
2686,C4,417.25,0.25,48,48.5
2687,E4,417.5,0.25,62,48.5
2688,A4,417.75,0.25,53,48.5
2689,A3,418.0,0.25,53,48.5
2690,C4,418.25,0.25,47,48.5
2691,E4,418.5,0.25,65,48.5
2692,G#4,418.75,0.25,46,48.5
2693,E-2,419.0,1.0,49,48.5
2694,G#3,419.0,0.25,46,48.5
2695,B3,419.25,0.25,41,48.5
2696,E4,419.5,0.25,55,48.5
2697,G#4,419.75,0.25,40,48.5
2698,D2,420.0,0.5,56,48.5
2699,G#3,420.0,0.25,40,48.5
2700,B3,420.25,0.25,36,48.5
2701,E4,420.5,0.25,40,48.5
2702,G#4,420.75,0.25,46,48.5
2703,F5,421.0,1.5,55,48.5
2704,G#3,421.0,0.25,37,48.5
2705,B3,421.25,0.25,37,48.5
2706,E-4,421.5,0.25,37,48.5
2707,G#4,421.75,0.25,43,48.5
2708,G#3,422.0,0.25,37,48.5
2709,B3,422.25,0.25,34,48.5
2710,F5,422.5,0.5,50,48.5
2711,F4,422.5,0.25,37,48.5
2712,G#4,422.75,0.25,29,48.5
2713,G5,423.0,0.5,53,48.5
2714,G#3,423.0,0.25,29,48.5
2715,B-3,423.25,0.25,26,48.5
2716,G#5,423.5,0.5,56,48.5
2717,F4,423.5,0.25,38,48.5
2718,G#4,423.75,0.25,30,48.5
2719,G5,424.0,0.5,63,48.5
2720,G#3,424.0,0.25,31,48.5
2721,B-3,424.25,0.25,28,48.5
2722,F4,424.5,0.25,41,48.5
2723,G#4,424.75,0.25,31,48.5
2724,E-2,425.0,1.0,42,48.5
2725,G#3,425.0,0.25,31,48.5
2726,B-3,425.25,0.25,25,48.5
2727,F4,425.5,0.25,40,48.5
2728,G#4,425.75,0.25,29,48.5
2729,G#3,426.0,0.25,32,48.5
2730,B-3,426.25,0.25,30,48.5
2731,F5,426.5,0.5,57,48.5
2732,E-4,426.5,0.25,44,48.5
2733,G4,426.75,0.25,32,48.5
2734,E-5,427.0,0.5,50,48.5
2735,G3,427.0,0.25,32,48.5
2736,B-3,427.25,0.25,28,48.5
2737,D5,427.5,0.5,50,48.5
2738,E-4,427.5,0.25,44,48.5
2739,G4,427.75,0.25,34,48.5
2740,C5,428.0,0.5,59,48.5
2741,G3,428.0,0.25,34,48.5
2742,B-3,428.25,0.25,33,48.5
2743,E-4,428.5,0.25,41,48.5
2744,G4,428.75,0.25,31,48.5
2745,G#2,429.0,1.0,29,48.5
2746,G3,429.0,0.25,31,48.5
2747,B-3,429.25,0.25,25,48.5
2748,E-4,429.5,0.25,40,48.5
2749,G4,429.75,0.25,29,48.5
2750,F2,430.0,0.5,26,48.5
2751,G3,430.0,0.25,31,48.5
2752,B-3,430.25,0.25,26,48.5
2753,E-4,430.5,0.25,37,48.5
2754,G#4,430.75,0.25,27,48.5
2755,C5,431.0,1.0,47,48.5
2756,G#3,431.0,0.25,27,48.5
2757,C4,431.25,0.25,24,48.5
2758,E-4,431.5,0.25,37,48.5
2759,G#4,431.75,0.25,28,48.5
2760,D5,432.0,0.5,51,48.5
2761,G#3,432.0,0.25,28,48.5
2762,C4,432.25,0.25,24,48.5
2763,F4,432.5,0.25,37,48.5
2764,G#4,432.75,0.25,27,48.5
2765,B-2,433.0,1.0,34,48.5
2766,G#3,433.0,0.25,27,48.5
2767,C4,433.25,0.25,25,48.5
2768,F4,433.5,0.25,37,48.5
2769,G#4,433.75,0.25,28,48.5
2770,B2,434.0,1.0,39,48.5
2771,G#3,434.0,0.25,28,48.5
2772,C4,434.25,0.25,24,48.5
2773,F4,434.5,0.25,37,48.5
2774,G#4,434.75,0.25,27,48.5
2775,B-2,435.0,1.0,35,48.5
2776,G#3,435.0,0.25,27,48.5
2777,D4,435.25,0.25,24,48.5
2778,F4,435.5,0.25,37,48.5
2779,G#4,435.75,0.25,28,48.5
2780,E-5,436.0,1.0,46,48.5
2781,G#3,436.0,0.25,28,48.5
2782,D4,436.25,0.25,25,48.5
2783,F4,436.5,0.25,37,48.5
2784,G#4,436.75,0.25,27,48.5
2785,G#3,437.0,0.25,27,48.5
2786,D4,437.25,0.25,24,48.5
2787,F4,437.5,0.25,37,48.5
2788,G#4,437.75,0.25,29,48.5
2789,E-2,438.0,2.0,49,48.5
2790,G#3,438.0,0.25,29,48.5
2791,D4,438.25,0.25,26,48.5
2792,E-4,438.5,0.25,40,48.5
2793,G4,438.75,0.25,29,48.5
2794,G3,439.0,0.25,29,48.5
2795,B-3,439.25,0.25,23,48.5
2796,E-4,439.5,0.25,38,48.5
2797,G4,439.75,0.25,30,48.5
2798,F2,440.0,2.0,61,48.5
2799,G3,440.0,0.25,30,48.5
2800,B-3,440.25,0.25,28,48.5
2801,E-4,440.5,0.25,30,48.5
2802,G4,440.75,0.25,27,48.5
2803,G3,441.0,0.25,27,48.5
2804,B-3,441.25,0.25,27,48.5
2805,E-4,441.5,0.25,45,48.5
2806,G4,441.75,0.25,32,48.5
2807,G2,442.0,2.0,39,48.5
2808,G3,442.0,0.25,35,48.5
2809,B-3,442.25,0.25,39,48.5
2810,D4,442.5,0.25,49,48.5
2811,G#4,442.75,0.25,36,48.5
2812,G#3,443.0,0.25,36,48.5
2813,B-3,443.25,0.25,30,48.5
2814,D4,443.5,0.25,46,48.5
2815,G#4,443.75,0.25,33,48.5
2816,G#2,444.0,1.0,39,48.5
2817,G#3,444.0,0.25,31,48.5
2818,B-3,444.25,0.25,26,48.5
2819,C#4,444.5,0.25,37,48.5
2820,E-4,444.75,0.25,27,48.5
2821,E-3,445.0,0.25,27,48.5
2822,B-3,445.25,0.25,24,48.5
2823,C#4,445.5,0.25,37,48.5
2824,E-4,445.75,0.25,28,48.5
2825,E-3,446.0,0.25,28,48.5
2826,B-3,446.25,0.25,24,48.5
2827,C4,446.5,0.25,37,48.5
2828,E-4,446.75,0.25,27,48.5
2829,G#4,447.0,0.5,45,48.5
2830,E-3,447.0,0.25,27,48.5
2831,G#3,447.25,0.25,24,48.5
2832,C4,447.5,0.25,37,48.5
2833,B-4,447.5,0.5,44,48.5
2834,G4,447.5,0.5,44,48.5
2835,E-4,447.75,0.25,28,48.5
2836,E-3,448.0,0.25,28,48.5
2837,G#4,448.0,1.0,46,48.5
2838,C5,448.0,1.0,46,48.5
2839,G#3,448.25,0.25,28,48.5
2840,C4,448.5,0.25,37,48.5
2841,E-4,448.75,0.25,28,48.5
2842,E-3,449.0,0.25,28,48.5
2843,G#3,449.25,0.25,25,48.5
2844,C4,449.5,0.25,37,48.5
2845,E-4,449.75,0.25,29,48.5
2846,B-3,450.0,0.25,36,48.5
2847,E-4,450.25,0.25,39,48.5
2848,C4,450.5,0.25,47,48.5
2849,C3,450.5,0.5,40,48.5
2850,E-3,450.5,0.5,40,48.5
2851,E-4,450.75,0.25,36,48.5
2852,E-3,451.0,0.25,36,48.5
2853,E-3,451.0,0.5,43,48.5
2854,B-2,451.0,0.5,43,48.5
2855,G#3,451.25,0.25,31,48.5
2856,C4,451.5,0.25,40,48.5
2857,G#2,451.5,0.5,46,48.5
2858,E-3,451.5,0.5,46,48.5
2859,E-4,451.75,0.25,36,48.5
2860,E-3,452.0,0.25,36,48.5
2861,E-3,452.0,0.5,47,48.5
2862,E-2,452.0,0.5,47,48.5
2863,G#3,452.25,0.25,32,48.5
2864,C4,452.5,0.25,45,48.5
2865,E-4,452.75,0.25,35,48.5
2866,C4,453.0,0.25,35,48.5
2867,G#3,453.0,0.25,35,48.5
2868,E-4,453.25,0.25,31,48.5
2869,G3,453.5,0.25,44,48.5
2870,C#4,453.5,0.25,44,48.5
2871,E-4,453.75,0.25,29,48.5
2872,G#3,454.0,0.25,31,48.5
2873,C4,454.0,0.25,31,48.5
2874,E-4,454.25,0.25,27,48.5
2875,G3,454.5,0.25,37,48.5
2876,B-3,454.5,0.25,37,48.5
2877,E-4,454.74,0.25,29,48.5
2878,E-3,455.0,0.25,29,48.5
2879,B-4,455.0,0.5,59,48.5
2880,C#5,455.0,0.5,59,48.5
2881,G3,455.25,0.25,25,48.5
2882,B-3,455.5,0.25,37,48.5
2883,F5,455.5,0.5,56,48.5
2884,C#5,455.5,0.5,56,48.5
2885,E-4,455.75,0.25,29,48.5
2886,E-3,456.0,0.25,29,48.5
2887,C5,456.0,1.0,52,48.5
2888,E-5,456.0,1.0,52,48.5
2889,G3,456.25,0.25,25,48.5
2890,B-3,456.5,0.25,37,48.5
2891,E-4,456.75,0.25,29,48.5
2892,E-3,457.0,0.25,29,48.5
2893,G3,457.25,0.25,24,48.5
2894,B-3,457.5,0.25,42,48.5
2895,E-4,457.75,0.25,31,48.5
2896,C#4,458.0,0.25,31,48.5
2897,E-4,458.25,0.25,28,48.5
2898,C4,458.5,0.25,39,48.5
2899,E-4,458.765,0.25,29,48.5
2900,E-3,459.0,0.5,49,48.5
2901,C3,459.0,0.5,49,48.5
2902,E-3,459.025,0.25,29,48.5
2903,G#3,459.275,0.25,25,48.5
2904,E-3,459.5,0.5,43,48.5
2905,B-2,459.5,0.5,43,48.5
2906,C4,459.525,0.25,42,48.5
2907,E-4,459.775,0.25,34,48.5
2908,G#2,460.0,62/125,46,48.5
2909,E-3,460.0,62/125,46,48.5
2910,E-3,460.025,0.25,34,48.5
2911,G#3,460.275,0.25,29,48.5
2912,C4,460.5,0.25,41,48.5
2913,E-4,460.775,0.25,33,48.5
2914,E-3,461.0,0.25,33,48.5
2915,G#3,461.25,0.25,29,48.5
2916,C4,461.5,0.25,37,48.5
2917,E-4,461.775,0.25,29,48.5
2918,C#4,462.0,0.25,29,48.5
2919,G3,462.0,0.25,29,48.5
2920,E-4,462.275,9/40,28,48.5
2921,C4,462.5,0.25,37,48.5
2922,G#3,462.5,0.25,37,48.5
2923,E-4,462.74,0.25,29,48.5
2924,E-3,463.0,0.25,29,48.5
2925,C5,463.0,0.5,47,48.5
2926,G#4,463.0,0.5,47,48.5
2927,G#3,463.25,0.25,27,48.5
2928,C4,463.5,0.25,38,48.5
2929,B-4,463.5,0.5,50,48.5
2930,C#5,463.5,0.5,50,48.5
2931,E-4,463.75,0.25,30,48.5
2932,E-3,464.0,0.25,31,48.5
2933,C5,464.0,1.0,52,48.5
2934,E-5,464.0,1.0,52,48.5
2935,G#3,464.25,0.25,29,48.5
2936,C4,464.5,0.25,40,48.5
2937,E-4,464.75,0.25,32,48.5
2938,E-3,465.0,0.25,32,48.5
2939,G#3,465.25,0.25,29,48.5
2940,C4,465.5,0.25,42,48.5
2941,E-4,465.75,0.25,33,48.5
2942,C#4,466.0,0.25,41,48.5
2943,E-4,466.25,0.25,44,48.5
2944,G#2,466.5,1.5,42,48.5
2945,C4,466.5,0.25,54,48.5
2946,C3,466.5,0.5,46,48.5
2947,E-3,466.5,0.5,46,48.5
2948,E-4,466.75,0.25,41,48.5
2949,E-3,467.0,0.25,41,48.5
2950,C#3,467.0,0.5,46,48.5
2951,F3,467.0,0.5,46,48.5
2952,G#3,467.25,0.25,37,48.5
2953,C4,467.5,0.25,46,48.5
2954,G3,467.5,0.5,50,48.5
2955,B-2,467.5,0.5,50,48.5
2956,E-4,467.75,0.25,41,48.5
2957,G#2,468.0,0.5,42,48.5
2958,E-3,468.0,0.25,41,48.5
2959,G#3,468.0,0.5,54,48.5
2960,C3,468.0,0.5,54,48.5
2961,G#3,468.25,0.25,36,48.5
2962,C4,468.5,0.25,51,48.5
2963,E-4,468.75,0.25,44,48.5
2964,C4,469.0,0.25,46,48.5
2965,E-4,469.25,0.25,47,48.5
2966,C#4,469.5,0.25,55,48.5
2967,F4,469.75,0.25,48,48.5
2968,B-3,470.0,0.25,50,48.5
2969,G4,470.25,0.25,54,48.5
2970,C4,470.5,0.25,60,48.5
2971,G#5,470.5,0.5,64,48.5
2972,C5,470.5,0.5,64,48.5
2973,G#4,470.75,0.25,49,48.5
2974,G#3,471.0,0.25,49,48.5
2975,E-5,471.0,0.5,60,48.5
2976,G5,471.0,0.5,60,48.5
2977,C4,471.25,0.25,45,48.5
2978,E-4,471.5,0.25,52,48.5
2979,F5,471.5,0.5,58,48.5
2980,C#5,471.5,0.5,58,48.5
2981,G#4,471.75,0.25,42,48.5
2982,G#3,472.0,0.25,42,48.5
2983,E-5,472.0,1.0,60,48.5
2984,C5,472.0,1.0,60,48.5
2985,C4,472.25,0.25,38,48.5
2986,E-4,472.5,0.25,58,48.5
2987,G#4,472.75,0.25,45,48.5
2988,C4,473.0,0.25,45,48.5
2989,G#4,473.25,0.25,39,48.5
2990,E-4,473.5,0.25,56,48.5
2991,G4,473.75,0.25,41,48.5
2992,C#4,474.0,0.25,41,48.5
2993,F4,474.25,0.25,39,48.5
2994,C4,474.5,0.25,53,48.5
2995,C3,474.5,0.5,48,48.5
2996,E-3,474.5,0.5,48,48.5
2997,E-4,474.75,0.25,39,48.5
2998,E-3,475.0,0.25,39,48.5
2999,C#3,475.0,0.5,38,48.5
3000,B-2,475.0,0.5,38,48.5
3001,G#3,475.25,0.25,37,48.5
3002,C4,475.5,0.25,46,48.5
3003,E-2,475.5,0.5,36,48.5
3004,B-2,475.5,0.5,36,48.5
3005,E-4,475.75,0.25,34,48.5
3006,E-3,476.0,0.25,34,48.5
3007,G#2,476.0,0.5,44,48.5
3008,C3,476.0,0.5,44,48.5
3009,G#3,476.25,0.25,30,48.5
3010,C4,476.5,0.25,40,48.5
3011,E-4,476.75,0.25,31,48.5
3012,C4,477.0,0.25,31,48.5
3013,G#3,477.0,0.25,31,48.5
3014,E-4,477.25,0.25,27,48.5
3015,G3,477.5,0.25,43,48.5
3016,C#4,477.5,0.25,43,48.5
3017,E-4,477.75,0.25,35,48.5
3018,B-3,478.0,0.25,35,48.5
3019,G3,478.0,0.25,35,48.5
3020,E-4,478.25,0.25,33,48.5
3021,C4,478.5,0.25,36,48.5
3022,G#3,478.5,0.25,36,48.5
3023,E-4,478.75,0.25,30,48.5
3024,E-3,479.0,0.25,30,48.5
3025,C5,479.0,0.5,33,48.5
3026,G#4,479.0,0.5,33,48.5
3027,G#3,479.25,0.25,27,48.5
3028,C4,479.5,0.25,27,48.5
3029,C#5,479.5,0.5,35,48.5
3030,B-4,479.5,0.5,35,48.5
3031,E-4,479.75,0.25,33,48.5
3032,E-3,480.0,0.25,33,48.5
3033,C5,480.0,1.0,38,48.5
3034,E-5,480.0,1.0,38,48.5
3035,G#3,480.25,0.25,29,48.5
3036,C4,480.5,0.25,45,48.5
3037,E-4,480.75,0.25,31,48.5
3038,E-3,481.0,0.25,31,48.5
3039,G#3,481.25,0.25,25,48.5
3040,C4,481.5,0.25,25,48.5
3041,E-4,481.75,0.25,19,48.5
3042,C#4,482.0,0.25,24,48.5
3043,E-4,482.25,0.25,26,48.5
3044,G#2,482.5,1.5,25,48.5
3045,C4,482.5,0.25,32,48.5
3046,E-3,482.5,0.5,28,48.5
3047,C3,482.5,0.5,28,48.5
3048,E-4,482.75,0.25,24,48.5
3049,E-3,483.0,0.25,24,48.5
3050,C#3,483.0,0.5,30,48.5
3051,F3,483.0,0.5,30,48.5
3052,G#3,483.25,0.25,24,48.5
3053,C4,483.5,0.25,27,48.5
3054,G3,483.5,0.5,31,48.5
3055,B-2,483.5,0.5,31,48.5
3056,E-4,483.75,0.25,24,48.5
3057,G#2,484.0,0.5,25,48.5
3058,E-3,484.0,0.25,24,48.5
3059,C3,484.0,0.5,40,48.5
3060,G#3,484.0,0.5,40,48.5
3061,G#3,484.25,0.25,24,48.5
3062,C4,484.5,0.25,30,48.5
3063,E-4,484.75,0.25,26,48.5
3064,C4,485.0,0.25,27,48.5
3065,E-4,485.25,0.25,28,48.5
3066,C#4,485.5,0.25,33,48.5
3067,F4,485.75,0.25,28,48.5
3068,B-3,486.0,0.25,30,48.5
3069,G4,486.25,0.25,32,48.5
3070,C4,486.5,0.25,36,48.5
3071,C5,486.5,0.5,38,48.5
3072,G#5,486.5,0.5,38,48.5
3073,G#4,486.75,0.25,29,48.5
3074,G#3,487.0,0.25,29,48.5
3075,E-5,487.0,0.5,36,48.5
3076,G5,487.0,0.5,36,48.5
3077,C4,487.25,0.25,29,48.5
3078,E-4,487.5,0.25,31,48.5
3079,F5,487.5,0.5,33,48.5
3080,C#5,487.5,0.5,33,48.5
3081,G#4,487.75,0.25,25,48.5
3082,G#3,488.0,0.25,25,48.5
3083,E-5,488.0,1.0,38,48.5
3084,C5,488.0,1.0,38,48.5
3085,C4,488.25,0.25,25,48.5
3086,E-4,488.5,0.25,34,48.5
3087,G#4,488.75,0.25,24,48.5
3088,C4,489.0,0.25,24,48.5
3089,G#4,489.25,0.25,24,48.5
3090,E-4,489.5,0.25,33,48.5
3091,G4,489.75,0.25,24,48.5
3092,C#4,490.0,0.25,24,48.5
3093,F4,490.25,0.25,24,48.5
3094,C4,490.5,0.25,31,48.5
3095,C3,490.5,0.5,37,48.5
3096,E-3,490.5,0.5,37,48.5
3097,E-4,490.75,0.25,24,48.5
3098,E-3,491.0,0.25,24,48.5
3099,B-2,491.0,0.5,30,48.5
3100,C#3,491.0,0.5,30,48.5
3101,G#3,491.25,0.25,24,48.5
3102,C4,491.5,0.25,28,48.5
3103,B-2,491.5,0.5,30,48.5
3104,E-2,491.5,0.5,30,48.5
3105,E-4,491.75,0.25,22,48.5
3106,E-3,492.0,0.25,22,48.5
3107,C3,492.0,0.5,34,48.5
3108,G#2,492.0,0.5,34,48.5
3109,G#3,492.25,0.25,22,48.5
3110,C4,492.5,0.25,27,48.5
3111,E-4,492.75,0.25,21,48.5
3112,C4,493.0,0.25,21,48.5
3113,G#3,493.0,0.25,21,48.5
3114,E-4,493.25,0.25,21,48.5
3115,G3,493.5,0.25,33,48.5
3116,C#4,493.5,0.25,33,48.5
3117,E-4,493.75,0.25,24,48.5
3118,B-3,494.0,0.25,24,48.5
3119,G3,494.0,0.25,24,48.5
3120,E-4,494.25,0.25,24,48.5
3121,E-3,494.5,0.5,37,48.5
3122,C3,494.5,0.5,37,48.5
3123,C4,494.5,0.25,31,48.5
3124,G#3,494.5,0.25,31,48.5
3125,E-4,494.75,0.25,25,48.5
3126,E-3,495.0,0.25,25,48.5
3127,B-2,495.0,0.5,30,48.5
3128,C#3,495.0,0.5,30,48.5
3129,G#3,495.25,0.25,24,48.5
3130,C4,495.5,0.25,28,48.5
3131,E-2,495.5,0.5,30,48.5
3132,B-2,495.5,0.5,30,48.5
3133,E-4,495.75,0.25,22,48.5
3134,E-3,496.0,0.25,22,48.5
3135,G#2,496.0,0.5,34,48.5
3136,C3,496.0,0.5,34,48.5
3137,G#3,496.25,0.25,22,48.5
3138,C4,496.5,0.25,27,48.5
3139,E-4,496.75,0.25,21,48.5
3140,C4,497.0,0.25,21,48.5
3141,G#3,497.0,0.25,21,48.5
3142,E-4,497.25,0.25,21,48.5
3143,C#4,497.5,0.25,33,48.5
3144,G3,497.5,0.25,33,48.5
3145,E-4,497.75,0.25,24,48.5
3146,G3,498.0,0.25,24,48.5
3147,B-3,498.0,0.25,24,48.5
3148,E-4,498.25,0.25,24,48.5
3149,E-3,498.5,0.5,32,48.5
3150,C3,498.5,0.5,32,48.5
3151,C4,498.5,0.25,31,48.5
3152,G#3,498.5,0.25,31,48.5
3153,E-4,498.75,0.25,24,48.5
3154,E-3,499.0,0.25,24,48.5
3155,B-2,499.0,0.5,26,48.5
3156,C#3,499.0,0.5,26,48.5
3157,G#3,499.25,0.25,20,48.5
3158,C4,499.5,0.25,26,48.5
3159,E-2,499.5,0.5,25,48.5
3160,B-2,499.5,0.5,25,48.5
3161,E-4,499.75,0.25,20,48.5
3162,E-3,500.0,0.25,20,48.5
3163,G#1,500.0,0.5,26,48.5
3164,C2,500.0,0.5,26,48.5
3165,G#2,500.0,0.5,26,48.5
3166,G#3,500.25,0.25,20,48.5
3167,C4,500.5,0.25,24,48.5
3168,E-4,500.75,0.25,18,48.5
3169,G#3,501.0,0.25,18,48.5
3170,C4,501.0,0.25,18,48.5
3171,E-4,501.25,0.25,18,48.5
3172,C#4,501.5,0.25,28,48.5
3173,G3,501.5,0.25,28,48.5
3174,E-4,501.75,0.25,20,48.5
3175,G3,502.0,0.25,19,48.5
3176,B-3,502.0,0.25,19,48.5
3177,E-4,502.25,0.25,19,48.5
3178,G#3,502.5,0.25,24,48.5
3179,C4,502.75,0.25,20,48.5
3180,C3,503.0,0.25,20,48.5
3181,E-3,503.25,0.25,20,48.5
3182,G#3,503.5,0.25,22,48.5
3183,C4,503.75,0.25,17,48.5
3184,G#3,504.0,0.25,26,48.5
3185,C3,504.0,0.25,17,48.5
3186,C4,504.25,0.25,22,48.5
3187,E-3,504.25,0.25,17,48.5
3188,C3,504.5,0.25,22,48.5
3189,G#3,504.5,0.25,24,48.5
3190,E-3,504.75,0.25,22,48.5
3191,C4,504.75,0.25,20,48.5
3192,G#3,505.0,0.25,24,48.5
3193,C3,505.0,0.25,20,48.5
3194,C4,505.25,0.25,18,48.5
3195,E-3,505.25,0.25,20,48.5
3196,C3,505.5,0.25,18,48.5
3197,G#3,505.5,0.25,22,48.5
3198,E-3,505.75,0.25,18,48.5
3199,C4,505.75,0.25,17,48.5
3200,G#3,506.0,0.25,26,48.5
3201,C3,506.0,0.25,17,48.5
3202,C4,506.25,0.25,22,48.5
3203,E-3,506.25,0.25,17,48.5
3204,C3,506.5,0.25,22,48.5
3205,E-3,506.75,0.25,22,48.5
3206,G#3,507.0,0.25,31,48.5
3207,C4,507.25,0.25,24,48.5
3208,C3,507.5,0.25,24,48.5
3209,G#1,507.5,0.5,31,48.5
3210,E-3,507.75,0.25,24,48.5
3211,B-3,508.0,0.25,34,48.5
3212,C4,508.25,0.25,24,48.5
3213,C3,508.5,0.25,24,48.5
3214,G#1,508.5,0.5,34,48.5
3215,E3,508.75,0.25,24,48.5
3216,B-3,509.0,0.25,37,48.5
3217,C4,509.25,0.25,29,48.5
3218,E3,509.5,0.25,31,48.5
3219,G#1,509.5,0.5,36,48.5
3220,B-3,509.75,0.25,31,48.5
3221,C4,510.0,0.25,47,48.5
3222,E4,510.25,0.25,33,48.5
3223,B-3,510.5,0.25,34,48.5
3224,G2,510.5,4.0,38,48.5
3225,G1,510.5,4.0,38,48.5
3226,C2,510.5,4.0,38,48.5
3227,C4,510.75,0.25,35,48.5
3228,E4,511.0,0.25,51,48.5
3229,B-4,511.25,0.25,39,48.5
3230,C4,511.5,0.25,41,48.5
3231,E4,511.75,0.25,42,48.5
3232,B-4,512.0,0.25,56,48.5
3233,C5,512.25,0.25,45,48.5
3234,C4,512.5,0.25,47,48.5
3235,E4,512.75,0.25,49,48.5
3236,B-4,513.0,0.25,60,48.5
3237,C5,513.25,0.25,48,48.5
3238,C4,513.5,0.25,50,48.5
3239,E4,513.75,0.25,51,48.5
3240,B-4,514.0,0.25,64,48.5
3241,C5,514.25,0.25,50,48.5
3242,C4,514.5,0.25,52,48.5
3243,E4,514.75,0.25,55,48.5
3244,B-4,515.0,0.25,69,48.5
3245,C5,515.25,0.25,59,48.5
3246,C4,515.5,0.25,61,48.5
3247,G2,515.5,1.0,38,48.5
3248,G1,515.5,1.0,38,48.5
3249,C2,515.5,1.0,38,48.5
3250,E4,515.75,0.25,63,48.5
3251,C4,516.0,83/1000,55,48.5
3252,F4,516.083,83/1000,60,48.5
3253,G#4,516.167,83/1000,66,48.5
3254,C5,516.25,1.5,76,48.5
3255,G3,516.5,1.0,35,48.5
3256,G2,516.5,1.0,35,48.5
3257,C3,516.5,1.0,35,48.5
3258,G3,517.5,1.0,40,48.5
3259,C3,517.5,1.0,40,48.5
3260,G2,517.5,1.0,40,48.5
3261,B-4,517.75,0.25,57,48.5
3262,G#4,518.0,0.75,67,48.5
3263,G2,518.5,1.0,45,48.5
3264,C3,518.5,1.0,45,48.5
3265,G3,518.5,1.0,45,48.5
3266,B-4,518.75,0.25,58,48.5
3267,G4,519.0,0.75,68,48.5
3268,G#3,519.5,3.0,51,48.5
3269,C3,519.5,4.0,51,48.5
3270,F2,519.5,4.0,43,48.5
3271,G#4,519.75,0.25,51,48.5
3272,F4,520.0,0.75,60,48.5
3273,F#4,520.75,0.25,51,48.5
3274,E-4,521.0,0.75,62,48.5
3275,F4,521.75,0.25,52,48.5
3276,C#4,522.0,0.75,60,48.5
3277,G2,522.5,1.0,40,48.5
3278,E3,522.5,1.0,40,48.5
3279,E-4,522.75,0.25,51,48.5
3280,C4,523.0,0.75,60,48.5
3281,G#2,523.5,1.0,43,48.5
3282,F3,523.5,4.0,43,48.5
3283,F2,523.5,6.0,43,48.5
3284,C#4,523.75,0.25,51,48.5
3285,B-3,524.0,0.75,60,48.5
3286,A2,524.5,1.0,39,48.5
3287,C4,524.75,0.25,53,48.5
3288,G#3,525.0,0.75,63,48.5
3289,G2,525.5,1.0,43,48.5
3290,B-3,525.75,0.25,60,48.5
3291,F#3,526.0,0.75,68,48.5
3292,A2,526.5,1.0,40,48.5
3293,G#3,526.75,0.25,63,48.5
3294,F3,527.0,0.75,72,48.5
3295,G3,527.75,0.25,67,48.5
3296,E3,528.0,0.5,78,48.5
3297,C#5,529.0,0.5,70,48.5
3298,G4,529.0,0.5,70,48.5
3299,B-4,529.0,0.5,70,48.5
3300,C#3,529.5,1.0,44,48.5
3301,F3,529.5,2.0,43,48.5
3302,C3,530.5,1.0,41,48.5
3303,C5,531.0,83/1000,41,48.5
3304,C#5,531.083,83/1000,41,48.5
3305,E-5,531.167,83/1000,37,48.5
3306,C#5,531.25,0.5,47,48.5
3307,C#3,531.5,1.0,45,48.5
3308,B-2,531.5,1.0,45,48.5
3309,C5,531.75,0.25,41,48.5
3310,C5,532.0,1.0,47,48.5
3311,G#2,532.5,1.0,42,48.5
3312,C3,532.5,1.0,42,48.5
3313,F5,533.0,1333/1000,53,48.5
3314,G2,533.5,0.5,52,48.5
3315,B-2,533.5,0.5,52,48.5
3316,G4,534.333,333/1000,39,48.5
3317,E3,534.5,0.5,50,48.5
3318,C#4,534.5,0.5,50,48.5
3319,B-3,534.5,0.5,50,48.5
3320,G3,534.5,0.5,50,48.5
3321,B-4,534.667,333/1000,39,48.5
3322,C#5,535.0,333/1000,44,48.5
3323,B-4,535.333,333/1000,38,48.5
3324,G4,535.667,333/1000,37,48.5
3325,F4,536.0,2.0,46,48.5
3326,G#3,537.5,1.0,32,48.5
3327,F3,537.5,1.0,32,48.5
3328,E4,538.0,0.5,41,48.5
3329,F#5,538.5,0.25,51,48.5
3330,G5,538.75,0.25,53,48.5
3331,G#5,539.0,0.25,56,48.5
3332,A5,539.25,0.25,58,48.5
3333,B-5,539.5,0.25,61,48.5
3334,C#3,539.5,1.0,29,48.5
3335,G3,539.5,1.0,29,48.5
3336,B-2,539.5,1.0,29,48.5
3337,B5,539.75,0.25,63,48.5
3338,C5,540.0,83/1000,55,48.5
3339,F5,540.083,83/1000,60,48.5
3340,G#5,540.167,83/1000,66,48.5
3341,C6,540.25,1.5,75,48.5
3342,C3,541.5,2.5,29,48.5
3343,B-5,541.75,0.25,47,48.5
3344,F3,541.833,333/1000,32,48.5
3345,G#5,542.0,0.75,60,48.5
3346,G#3,542.167,333/1000,34,48.5
3347,C4,542.5,333/1000,37,48.5
3348,G#6,542.75,0.25,60,48.5
3349,B-3,542.833,333/1000,31,48.5
3350,G5,543.0,0.75,60,48.5
3351,G#3,543.167,333/1000,28,48.5
3352,G3,543.5,0.5,35,48.5
3353,G6,543.75,0.25,58,48.5
3354,F5,544.0,0.75,60,48.5
3355,F6,544.75,0.25,58,48.5
3356,E-5,545.0,0.75,62,48.5
3357,G#3,545.5,3.0,51,48.5
3358,C3,545.5,4.0,51,48.5
3359,F2,545.5,4.0,43,48.5
3360,E-6,545.75,0.25,68,48.5
3361,C#5,546.0,0.75,60,48.5
3362,C#6,546.75,0.25,65,48.5
3363,C5,547.0,0.75,60,48.5
3364,C6,547.75,0.25,61,48.5
3365,B-4,548.0,0.25,60,48.5
3366,B-5,548.263,0.25,52,48.5
3367,B-4,548.5,0.25,52,48.5
3368,G2,548.5,1.0,40,48.5
3369,E3,548.5,1.0,40,48.5
3370,B-5,548.75,0.25,47,48.5
3371,G#4,549.0,0.25,63,48.5
3372,G#5,549.25,0.25,56,48.5
3373,G#4,549.5,0.25,57,48.5
3374,F3,549.5,4.0,43,48.5
3375,G#2,549.5,1.0,43,48.5
3376,F2,549.5,4.5,43,48.5
3377,G#5,549.75,0.25,60,48.5
3378,F#4,550.0,0.25,68,48.5
3379,F#5,550.25,0.25,62,48.5
3380,F#4,550.5,0.25,63,48.5
3381,A2,550.5,1.0,39,48.5
3382,F#5,550.75,0.25,58,48.5
3383,F4,551.0,0.25,72,48.5
3384,F5,551.25,0.25,65,48.5
3385,F4,551.5,0.25,67,48.5
3386,G2,551.5,1.0,43,48.5
3387,F5,551.75,0.25,62,48.5
3388,E5,552.0,0.5,76,48.5
3389,E4,552.0,0.5,76,48.5
3390,A2,552.5,1.0,40,48.5
3391,C#6,553.0,0.5,80,48.5
3392,B-5,553.0,0.5,80,48.5
3393,G5,553.0,0.5,80,48.5
3394,C#3,554.0,0.5,44,48.5
3395,F3,554.0,0.5,43,48.5
3396,C#3,554.5,0.25,34,48.5
3397,F3,554.5,0.25,34,48.5
3398,C5,555.0,83/1000,41,48.5
3399,C3,555.0,0.25,36,48.5
3400,E-3,555.0,0.25,36,48.5
3401,C#5,555.083,83/1000,41,48.5
3402,E-5,555.167,83/1000,38,48.5
3403,C#5,555.25,0.5,47,48.5
3404,C3,555.5,0.25,40,48.5
3405,E-3,555.5,0.25,40,48.5
3406,C5,555.75,0.25,41,48.5
3407,C5,556.0,333/1000,46,48.5
3408,B-2,556.0,0.25,43,48.5
3409,C#3,556.0,0.25,43,48.5
3410,G#5,556.333,333/1000,53,48.5
3411,C#3,556.5,0.25,47,48.5
3412,B-2,556.5,0.25,47,48.5
3413,G5,556.667,333/1000,47,48.5
3414,F5,557.0,333/1000,47,48.5
3415,C3,557.0,0.25,46,48.5
3416,G#2,557.0,0.25,46,48.5
3417,C#3,557.0,0.25,46,48.5
3418,C5,557.333,333/1000,43,48.5
3419,C3,557.5,0.25,49,48.5
3420,C#3,557.5,0.25,49,48.5
3421,G#2,557.5,0.25,49,48.5
3422,G#4,557.667,333/1000,43,48.5
3423,G4,558.0,333/1000,47,48.5
3424,G2,558.0,0.5,56,48.5
3425,C#3,558.0,0.5,56,48.5
3426,B-2,558.0,0.5,56,48.5
3427,E-5,558.333,333/1000,52,48.5
3428,C5,558.667,333/1000,39,48.5
3429,C#5,559.0,333/1000,44,48.5
3430,B-3,559.0,0.5,58,48.5
3431,G3,559.0,0.5,58,48.5
3432,E3,559.0,0.5,58,48.5
3433,C#4,559.0,0.5,58,48.5
3434,B-4,559.333,333/1000,38,48.5
3435,G4,559.667,333/1000,37,48.5
3436,F4,560.0,333/1000,53,48.5
3437,C4,560.333,333/1000,48,48.5
3438,F4,560.667,333/1000,49,48.5
3439,G#4,561.0,333/1000,58,48.5
3440,F4,561.333,333/1000,50,48.5
3441,C#5,561.667,333/1000,51,48.5
3442,C5,562.0,0.5,66,48.5
3443,G#3,562.0,1.0,32,48.5
3444,F3,562.0,1.0,32,48.5
3445,E5,563.0,0.375,70,48.5
3446,C5,563.0,0.375,70,48.5
3447,G4,563.0,0.375,70,48.5
3448,G#4,564.0,0.375,70,48.5
3449,C5,564.0,0.375,70,48.5
3450,F5,564.0,0.375,70,48.5
3451,G3,564.0,1.0,29,48.5
3452,B-2,564.0,1.0,29,48.5
3453,C#3,564.0,1.0,29,48.5
3454,G#4,564.5,0.25,45,48.5
3455,C5,564.75,0.25,28,48.5
3456,G#4,565.0,0.25,39,48.5
3457,C5,565.25,0.25,28,48.5
3458,G#4,565.5,0.25,38,48.5
3459,C5,565.75,0.25,31,48.5
3460,G4,566.0,0.25,45,48.5
3461,F3,566.0,0.5,38,48.5
3462,C3,566.0,0.5,38,48.5
3463,G#3,566.0,0.5,38,48.5
3464,B4,566.25,0.25,30,48.5
3465,G#4,566.5,0.25,45,48.5
3466,C5,566.75,0.25,32,48.5
3467,G#4,567.0,0.25,39,48.5
3468,G#3,567.0,333/1000,54,48.5
3469,C5,567.25,0.25,27,48.5
3470,F3,567.333,333/1000,46,48.5
3471,G#4,567.5,0.25,40,48.5
3472,C#4,567.667,333/1000,48,48.5
3473,C5,567.75,0.25,30,48.5
3474,A4,568.0,0.25,45,48.5
3475,C4,568.0,0.5,54,48.5
3476,E-5,568.25,0.25,31,48.5
3477,B-4,568.5,0.25,38,48.5
3478,C#5,568.75,0.25,30,48.5
3479,B-4,569.0,0.25,38,48.5
3480,C4,569.0,0.375,55,48.5
3481,C3,569.0,0.375,55,48.5
3482,C#5,569.25,0.25,31,48.5
3483,B-4,569.5,0.25,33,48.5
3484,C#5,569.75,0.25,28,48.5
3485,C#5,570.0,0.25,47,48.5
3486,F3,570.0,0.375,55,48.5
3487,F2,570.0,0.375,55,48.5
3488,F5,570.25,0.25,38,48.5
3489,B-4,570.5,0.25,45,48.5
3490,C#5,570.75,0.25,32,48.5
3491,G#4,571.0,0.25,40,48.5
3492,F3,571.0,1.0,24,48.5
3493,F4,571.0,1.0,24,48.5
3494,C#5,571.25,0.25,31,48.5
3495,G4,571.5,0.25,37,48.5
3496,C#5,571.75,0.25,31,48.5
3497,G#4,572.0,0.25,45,48.5
3498,E-5,572.25,0.25,30,48.5
3499,G#4,572.5,0.25,36,48.5
3500,C5,572.75,0.25,27,48.5
3501,G#4,573.0,0.25,38,48.5
3502,F4,573.0,1.0,24,48.5
3503,F3,573.0,1.0,24,48.5
3504,C5,573.25,0.25,31,48.5
3505,G#4,573.5,0.25,33,48.5
3506,C5,573.75,0.25,28,48.5
3507,G#4,574.0,0.25,47,48.5
3508,C5,574.25,0.25,30,48.5
3509,F#4,574.5,0.25,35,48.5
3510,B-4,574.75,0.25,31,48.5
3511,F#4,575.0,0.25,40,48.5
3512,F3,575.0,1.0,24,48.5
3513,F4,575.0,1.0,24,48.5
3514,B-4,575.25,0.25,28,48.5
3515,F#4,575.5,0.25,36,48.5
3516,B-4,575.75,0.25,29,48.5
3517,F#4,576.0,0.25,45,48.5
3518,B-4,576.25,0.25,27,48.5
3519,F4,576.5,0.25,34,48.5
3520,G#4,576.75,0.25,27,48.5
3521,F4,577.0,0.25,36,48.5
3522,F4,577.0,1.0,24,48.5
3523,F3,577.0,1.0,24,48.5
3524,G#4,577.25,0.25,27,48.5
3525,F4,577.5,0.25,32,48.5
3526,G#4,577.75,0.25,28,48.5
3527,F4,578.0,0.25,45,48.5
3528,G#4,578.25,0.25,27,48.5
3529,E4,578.5,0.25,33,48.5
3530,G4,578.75,0.25,27,48.5
3531,E4,579.0,0.25,39,48.5
3532,F3,579.0,1.0,24,48.5
3533,F4,579.0,1.0,24,48.5
3534,G4,579.25,0.25,28,48.5
3535,E4,579.5,0.25,36,48.5
3536,G4,579.75,0.25,29,48.5
3537,F4,580.0,0.5,54,48.5
3538,B-2,580.0,0.5,27,48.5
3539,A4,580.5,0.25,45,48.5
3540,C5,580.75,0.25,28,48.5
3541,A4,581.0,0.25,39,48.5
3542,F#3,581.0,0.5,24,48.5
3543,B-3,581.0,0.5,24,48.5
3544,C5,581.25,0.25,28,48.5
3545,A4,581.5,0.25,38,48.5
3546,C5,581.75,0.25,31,48.5
3547,G#4,582.0,0.25,45,48.5
3548,C3,582.0,0.5,27,48.5
3549,B4,582.25,0.25,30,48.5
3550,A4,582.5,0.25,45,48.5
3551,C5,582.75,0.25,32,48.5
3552,A4,583.0,0.25,39,48.5
3553,G#3,583.0,0.5,24,48.5
3554,F3,583.0,0.5,24,48.5
3555,C5,583.25,0.25,27,48.5
3556,A4,583.5,0.25,40,48.5
3557,C5,583.75,0.25,30,48.5
3558,A4,584.0,0.25,45,48.5
3559,C3,584.0,0.5,27,48.5
3560,E-5,584.25,0.25,31,48.5
3561,B-4,584.5,0.25,38,48.5
3562,D5,584.75,0.25,30,48.5
3563,B-4,585.0,0.25,38,48.5
3564,G3,585.0,0.5,24,48.5
3565,E3,585.0,0.5,24,48.5
3566,D5,585.25,0.25,31,48.5
3567,B-4,585.5,0.25,33,48.5
3568,D5,585.75,0.25,28,48.5
3569,D5,586.0,0.25,47,48.5
3570,F2,586.0,0.5,40,48.5
3571,F5,586.25,0.25,38,48.5
3572,B-4,586.5,0.25,45,48.5
3573,D5,586.75,0.25,32,48.5
3574,A4,587.0,0.25,40,48.5
3575,F3,587.0,1.0,24,48.5
3576,F4,587.0,1.0,24,48.5
3577,D5,587.25,0.25,31,48.5
3578,G#4,587.5,0.25,37,48.5
3579,D5,587.75,0.25,31,48.5
3580,A4,588.0,0.25,45,48.5
3581,D5,588.263,0.25,30,48.5
3582,A4,588.5,0.25,36,48.5
3583,C5,588.75,0.25,27,48.5
3584,A4,589.0,0.25,38,48.5
3585,F4,589.0,1.0,24,48.5
3586,F3,589.0,1.0,24,48.5
3587,C5,589.25,0.25,31,48.5
3588,A4,589.5,0.25,33,48.5
3589,C5,589.75,0.25,28,48.5
3590,A4,590.0,0.25,47,48.5
3591,C5,590.25,0.25,30,48.5
3592,D4,590.5,0.25,35,48.5
3593,G4,590.75,0.25,31,48.5
3594,B-4,591.0,0.25,50,48.5
3595,F3,591.0,1.0,24,48.5
3596,F4,591.0,1.0,24,48.5
3597,D5,591.25,0.25,34,48.5
3598,C5,591.5,0.25,43,48.5
3599,B-4,591.75,0.25,35,48.5
3600,G4,592.0,0.25,45,48.5
3601,B-4,592.25,0.25,27,48.5
3602,C4,592.5,0.25,34,48.5
3603,F4,592.75,0.25,27,48.5
3604,A4,593.0,0.25,47,48.5
3605,F3,593.0,1.0,24,48.5
3606,F4,593.0,1.0,24,48.5
3607,C5,593.25,0.25,35,48.5
3608,B-4,593.5,0.25,41,48.5
3609,A4,593.75,0.25,36,48.5
3610,F#4,594.0,0.25,45,48.5
3611,A4,594.25,0.25,27,48.5
3612,C4,594.5,0.25,33,48.5
3613,E4,594.75,0.25,27,48.5
3614,G4,595.0,0.25,46,48.5
3615,F3,595.0,1.0,24,48.5
3616,F4,595.0,1.0,24,48.5
3617,B-4,595.25,0.25,36,48.5
3618,A4,595.5,0.25,40,48.5
3619,G4,595.75,0.25,34,48.5
3620,F4,596.0,0.5,50,48.5
3621,B-2,596.0,0.5,27,48.5
3622,A4,596.5,0.25,45,48.5
3623,C5,596.75,0.25,28,48.5
3624,A4,597.0,0.25,39,48.5
3625,G3,597.0,0.5,24,48.5
3626,B-3,597.0,0.5,24,48.5
3627,C5,597.25,0.25,28,48.5
3628,A4,597.5,0.25,38,48.5
3629,C5,597.75,0.25,31,48.5
3630,G#4,598.0,0.25,45,48.5
3631,C3,598.0,0.5,27,48.5
3632,B4,598.25,0.25,30,48.5
3633,A4,598.5,0.25,45,48.5
3634,C5,598.75,0.25,32,48.5
3635,A4,599.0,0.25,39,48.5
3636,F3,599.0,0.5,24,48.5
3637,A3,599.0,0.5,24,48.5
3638,C5,599.25,0.25,27,48.5
3639,A4,599.5,0.25,40,48.5
3640,C5,599.75,0.25,30,48.5
3641,A4,600.0,0.25,45,48.5
3642,C3,600.0,0.5,27,48.5
3643,C5,600.25,0.25,37,48.5
3644,B-4,600.5,0.25,44,48.5
3645,C#5,600.75,0.25,39,48.5
3646,E5,601.0,0.25,52,48.5
3647,B-3,601.0,0.5,24,48.5
3648,E3,601.0,0.5,24,48.5
3649,G5,601.25,0.25,46,48.5
3650,A4,601.5,0.25,44,48.5
3651,C5,601.75,0.25,36,48.5
3652,B-4,602.0,0.25,48,48.5
3653,F3,602.0,0.5,41,48.5
3654,A3,602.0,0.5,41,48.5
3655,C#5,602.25,0.25,51,48.5
3656,E5,602.5,0.25,55,48.5
3657,C4,602.5,0.25,27,48.5
3658,G5,602.75,0.25,58,48.5
3659,F5,603.0,0.25,61,48.5
3660,C4,603.0,0.25,30,48.5
3661,E5,603.25,0.25,59,48.5
3662,D5,603.5,0.25,57,48.5
3663,C4,603.5,0.25,27,48.5
3664,E5,603.75,0.25,62,48.5
3665,F5,604.0,0.5,67,48.5
3666,C#4,604.0,0.5,37,48.5
3667,A4,604.5,0.25,51,48.5
3668,C4,604.5,0.5,27,48.5
3669,C5,604.75,0.25,32,48.5
3670,A4,605.0,0.25,44,48.5
3671,C4,605.0,0.25,30,48.5
3672,C5,605.25,0.25,32,48.5
3673,A4,605.5,0.25,43,48.5
3674,C4,605.5,0.25,27,48.5
3675,C5,605.75,0.25,35,48.5
3676,G#4,606.0,0.25,51,48.5
3677,C3,606.0,0.5,38,48.5
3678,B4,606.25,0.25,34,48.5
3679,A4,606.5,0.25,51,48.5
3680,C4,606.5,0.25,27,48.5
3681,C5,606.75,0.25,36,48.5
3682,A4,607.0,0.25,44,48.5
3683,C4,607.0,0.25,27,48.5
3684,C5,607.25,0.25,31,48.5
3685,A4,607.5,0.25,46,48.5
3686,C4,607.5,0.25,27,48.5
3687,C5,607.75,0.25,34,48.5
3688,B4,608.0,0.25,51,48.5
3689,C3,608.0,0.5,44,48.5
3690,D5,608.25,0.25,42,48.5
3691,C5,608.5,0.25,50,48.5
3692,C4,608.5,0.25,37,48.5
3693,E-5,608.75,0.25,44,48.5
3694,F#5,609.0,0.25,59,48.5
3695,C4,609.0,0.25,40,48.5
3696,A5,609.25,0.25,52,48.5
3697,B4,609.5,0.25,50,48.5
3698,C4,609.5,0.25,44,48.5
3699,C3,609.5,0.25,44,48.5
3700,B-3,609.5,0.25,44,48.5
3701,D5,609.75,0.25,41,48.5
3702,C5,610.0,0.25,55,48.5
3703,A3,610.0,0.5,48,48.5
3704,C4,610.0,0.5,48,48.5
3705,F3,610.0,0.5,48,48.5
3706,E-5,610.25,0.25,58,48.5
3707,F#5,610.5,0.25,63,48.5
3708,C4,610.5,0.25,31,48.5
3709,A5,610.75,0.25,66,48.5
3710,G5,611.0,0.25,70,48.5
3711,C4,611.0,0.25,34,48.5
3712,F#5,611.25,0.25,67,48.5
3713,E5,611.5,0.25,65,48.5
3714,C4,611.5,0.25,31,48.5
3715,F#5,611.75,0.25,71,48.5
3716,G5,612.0,0.5,77,48.5
3717,C#4,612.0,0.5,42,48.5
3718,B-4,612.5,0.25,51,48.5
3719,C4,612.5,0.25,31,48.5
3720,D5,612.75,0.25,32,48.5
3721,B-4,613.0,0.25,44,48.5
3722,C4,613.0,0.25,34,48.5
3723,D5,613.25,0.25,32,48.5
3724,B-4,613.5,0.25,43,48.5
3725,E-4,613.5,0.25,31,48.5
3726,D5,613.75,0.25,35,48.5
3727,A4,614.0,0.25,51,48.5
3728,D3,614.0,0.5,43,48.5
3729,C#5,614.25,0.25,34,48.5
3730,B-4,614.5,0.25,51,48.5
3731,D4,614.5,0.25,31,48.5
3732,D5,614.75,0.25,36,48.5
3733,B-4,615.0,0.25,44,48.5
3734,D4,615.0,0.25,31,48.5
3735,D5,615.25,0.25,31,48.5
3736,B-4,615.5,0.25,46,48.5
3737,D4,615.5,0.25,31,48.5
3738,D5,615.75,0.25,34,48.5
3739,G5,616.0,0.25,72,48.5
3740,D3,616.0,0.5,50,48.5
3741,B-4,616.25,0.25,35,48.5
3742,C#5,616.5,0.25,46,48.5
3743,D4,616.5,0.25,42,48.5
3744,B-4,616.75,0.25,32,48.5
3745,C5,617.0,0.25,44,48.5
3746,D4,617.0,0.25,46,48.5
3747,B-4,617.25,0.25,32,48.5
3748,C#5,617.5,0.25,43,48.5
3749,C4,617.5,0.25,50,48.5
3750,D3,617.5,0.25,50,48.5
3751,D4,617.5,0.25,50,48.5
3752,B-4,617.75,0.25,35,48.5
3753,F5,618.0,0.25,67,48.5
3754,G3,618.0,0.5,55,48.5
3755,D4,618.0,0.5,55,48.5
3756,B-3,618.0,0.5,55,48.5
3757,A4,618.25,0.25,34,48.5
3758,D5,618.5,0.25,45,48.5
3759,D4,618.5,0.25,31,48.5
3760,A4,618.75,0.25,36,48.5
3761,C5,619.0,0.25,44,48.5
3762,D4,619.0,0.25,34,48.5
3763,A4,619.25,0.25,31,48.5
3764,F5,619.5,0.25,63,48.5
3765,D4,619.5,0.25,31,48.5
3766,A4,619.75,0.25,34,48.5
3767,E-4,620.0,0.5,42,48.5
3768,G5,620.0,0.25,66,48.5
3769,B-5,620.0,0.25,66,48.5
3770,B-4,620.25,0.25,35,48.5
3771,C#5,620.5,0.25,46,48.5
3772,D4,620.5,0.25,31,48.5
3773,B-4,620.75,0.25,32,48.5
3774,C5,621.0,0.25,44,48.5
3775,D4,621.0,0.25,34,48.5
3776,B-4,621.25,0.25,32,48.5
3777,C#5,621.5,0.25,43,48.5
3778,D4,621.5,0.25,31,48.5
3779,B-4,621.75,0.25,35,48.5
3780,E3,622.0,2.0,49,48.5
3781,A5,622.0,0.25,62,48.5
3782,F5,622.0,0.25,62,48.5
3783,A4,622.25,0.25,34,48.5
3784,D5,622.5,0.25,45,48.5
3785,C#4,622.5,0.5,31,48.5
3786,B-3,622.5,1.5,31,48.5
3787,A4,622.75,0.25,36,48.5
3788,C5,623.0,0.25,44,48.5
3789,C4,623.0,0.5,34,48.5
3790,A4,623.25,0.25,31,48.5
3791,F5,623.5,0.25,63,48.5
3792,C#4,623.5,0.5,31,48.5
3793,A4,623.75,0.25,34,48.5
3794,A5,624.0,0.25,70,48.5
3795,F3,624.0,2.0,50,48.5
3796,C6,624.25,0.25,52,48.5
3797,D5,624.5,0.25,57,48.5
3798,A3,624.5,1.5,31,48.5
3799,D4,624.5,0.5,31,48.5
3800,G5,624.75,0.25,53,48.5
3801,B-5,625.0,0.25,62,48.5
3802,C4,625.0,0.5,34,48.5
3803,D6,625.25,0.25,69,48.5
3804,C6,625.5,0.25,57,48.5
3805,F4,625.5,0.5,31,48.5
3806,B-5,625.75,0.25,57,48.5
3807,G5,626.0,0.25,63,48.5
3808,E3,626.0,2.0,49,48.5
3809,B-5,626.25,0.25,53,48.5
3810,C5,626.5,0.25,53,48.5
3811,C#4,626.5,0.5,31,48.5
3812,B-3,626.5,1.5,31,48.5
3813,F5,626.75,0.25,50,48.5
3814,A5,627.0,0.25,62,48.5
3815,C4,627.0,0.5,34,48.5
3816,C6,627.25,0.25,67,48.5
3817,B-5,627.5,0.25,53,48.5
3818,C#4,627.5,0.5,31,48.5
3819,A5,627.75,0.25,49,48.5
3820,F#5,628.0,0.25,66,48.5
3821,F3,628.0,2.0,50,48.5
3822,A5,628.25,0.25,47,48.5
3823,C5,628.5,0.25,53,48.5
3824,D4,628.5,0.5,31,48.5
3825,A3,628.5,1.5,31,48.5
3826,E5,628.75,0.25,50,48.5
3827,G5,629.0,0.25,61,48.5
3828,C4,629.0,0.5,34,48.5
3829,B-5,629.25,0.25,66,48.5
3830,A5,629.5,0.25,53,48.5
3831,F4,629.5,0.5,31,48.5
3832,G5,629.75,0.25,49,48.5
3833,F5,630.0,0.25,67,48.5
3834,B-2,630.0,0.25,60,48.5
3835,E5,630.25,0.25,57,48.5
3836,D5,630.5,0.25,64,48.5
3837,D4,630.5,1.0,53,48.5
3838,B-3,630.5,1.0,53,48.5
3839,C#5,630.75,0.25,65,48.5
3840,C5,631.0,0.25,67,48.5
3841,B-4,631.25,0.25,68,48.5
3842,A4,631.5,0.25,69,48.5
3843,B-3,631.5,0.5,44,48.5
3844,D4,631.5,0.5,44,48.5
3845,G4,631.75,0.25,71,48.5
3846,F4,632.0,0.5,75,48.5
3847,C3,632.0,0.25,60,48.5
3848,F3,632.5,0.25,72,48.5
3849,C4,632.5,1.0,52,48.5
3850,A3,632.5,1.0,52,48.5
3851,F3,633.0,0.25,72,48.5
3852,F3,633.5,0.25,72,48.5
3853,A3,633.5,0.5,45,48.5
3854,C4,633.5,0.5,45,48.5
3855,E3,634.0,0.5,78,48.5
3856,C3,634.0,0.25,60,48.5
3857,F3,634.5,0.25,69,48.5
3858,E3,634.5,1.0,46,48.5
3859,B-3,634.5,2.0,46,48.5
3860,C4,634.5,2.0,46,48.5
3861,F3,635.0,0.25,69,48.5
3862,F3,635.5,0.25,69,48.5
3863,F3,635.5,0.5,46,48.5
3864,F#3,636.0,0.75,72,48.5
3865,G3,636.0,0.5,46,48.5
3866,F3,636.5,0.25,47,48.5
3867,C4,636.5,0.25,47,48.5
3868,B-3,636.5,0.25,47,48.5
3869,G3,636.75,0.125,64,48.5
3870,A3,636.875,0.125,59,48.5
3871,G3,637.0,0.75,72,48.5
3872,B-3,637.0,0.25,51,48.5
3873,E3,637.0,0.25,51,48.5
3874,C4,637.0,0.25,51,48.5
3875,C4,637.5,0.25,55,48.5
3876,B-3,637.5,0.25,55,48.5
3877,C3,637.5,0.25,55,48.5
3878,A3,637.75,0.125,65,48.5
3879,B-3,637.875,0.125,62,48.5
3880,C4,638.0,0.25,72,48.5
3881,F3,638.0,0.5,59,48.5
3882,C4,638.0,0.5,59,48.5
3883,A3,638.0,0.5,59,48.5
3884,E4,638.5,0.25,70,48.5
3885,F2,638.5,0.25,66,48.5
3886,G4,638.75,0.25,70,48.5
3887,C5,639.0,0.25,67,48.5
3888,F2,639.0,0.25,66,48.5
3889,E5,639.25,0.25,70,48.5
3890,G5,639.5,0.25,73,48.5
3891,F2,639.5,0.25,66,48.5
3892,C6,639.75,0.25,75,48.5
3893,F5,640.0,0.5,78,48.5
3894,E2,640.0,0.5,69,48.5
3895,F3,640.5,0.25,72,48.5
3896,F2,640.5,0.25,65,48.5
3897,F3,641.0,0.25,72,48.5
3898,F2,641.0,0.25,65,48.5
3899,F3,641.5,0.25,72,48.5
3900,F2,641.5,0.25,65,48.5
3901,E3,642.0,0.5,78,48.5
3902,F#2,642.0,0.75,68,48.5
3903,F3,642.5,0.25,69,48.5
3904,G2,642.75,0.125,60,48.5
3905,A2,642.875,0.125,56,48.5
3906,F3,643.0,0.25,69,48.5
3907,G2,643.0,0.75,68,48.5
3908,F3,643.5,0.25,69,48.5
3909,A2,643.75,0.125,62,48.5
3910,B-2,643.875,0.125,58,48.5
3911,F#3,644.0,0.75,72,48.5
3912,C3,644.0,0.25,68,48.5
3913,B-3,644.5,0.5,59,48.5
3914,G3,644.5,0.5,59,48.5
3915,C3,644.5,0.5,59,48.5
3916,G3,644.75,0.125,64,48.5
3917,A3,644.875,0.125,59,48.5
3918,G3,645.0,0.75,72,48.5
3919,G3,645.0,0.5,59,48.5
3920,B-3,645.0,0.5,59,48.5
3921,C3,645.0,0.5,59,48.5
3922,C3,645.5,0.5,59,48.5
3923,G3,645.5,0.5,59,48.5
3924,B-3,645.5,0.5,59,48.5
3925,A3,645.75,0.125,65,48.5
3926,B-3,645.875,0.125,60,48.5
3927,C4,646.0,0.25,72,48.5
3928,F3,646.0,0.5,66,48.5
3929,A3,646.0,0.5,66,48.5
3930,C#4,646.5,0.25,70,48.5
3931,F2,646.5,0.25,66,48.5
3932,E4,646.75,0.25,70,48.5
3933,A4,647.0,0.25,67,48.5
3934,F2,647.0,0.25,66,48.5
3935,C#5,647.25,0.25,70,48.5
3936,E5,647.5,0.25,73,48.5
3937,F2,647.5,0.25,66,48.5
3938,A5,647.75,0.25,75,48.5
3939,D5,648.0,0.5,78,48.5
3940,E2,648.0,0.5,69,48.5
3941,F2,648.5,0.25,65,48.5
3942,D4,648.5,0.25,66,48.5
3943,F3,648.5,0.25,66,48.5
3944,F2,649.0,0.25,65,48.5
3945,F3,649.0,0.25,66,48.5
3946,D4,649.0,0.25,66,48.5
3947,F2,649.5,0.25,65,48.5
3948,F3,649.5,0.25,66,48.5
3949,D4,649.5,0.25,66,48.5
3950,F#2,650.0,0.75,68,48.5
3951,F3,650.0,0.5,70,48.5
3952,C#4,650.0,0.5,70,48.5
3953,F3,650.5,0.25,64,48.5
3954,D4,650.5,0.25,64,48.5
3955,G2,650.75,0.125,60,48.5
3956,A2,650.875,0.125,55,48.5
3957,G2,651.0,0.75,68,48.5
3958,D4,651.0,0.25,64,48.5
3959,F3,651.0,0.25,64,48.5
3960,F3,651.5,0.25,64,48.5
3961,D4,651.5,0.25,64,48.5
3962,A2,651.75,0.125,62,48.5
3963,B-2,651.875,0.125,57,48.5
3964,D4,652.0,0.75,72,48.5
3965,G#3,652.0,1.0,61,48.5
3966,C3,652.0,0.25,68,48.5
3967,G3,652.5,0.5,59,48.5
3968,E3,652.5,0.5,59,48.5
3969,A2,652.5,0.5,59,48.5
3970,E-4,652.75,0.125,64,48.5
3971,F4,652.875,0.125,59,48.5
3972,E-4,653.0,0.75,72,48.5
3973,G3,653.0,0.5,61,48.5
3974,G3,653.0,0.5,59,48.5
3975,A2,653.0,0.5,59,48.5
3976,E3,653.0,0.5,59,48.5
3977,G3,653.5,0.5,59,48.5
3978,A2,653.5,0.5,59,48.5
3979,E3,653.5,0.5,59,48.5
3980,F4,653.75,0.125,65,48.5
3981,F#4,653.875,0.125,61,48.5
3982,F4,654.0,0.25,65,48.5
3983,E-4,654.0,0.25,65,48.5
3984,A3,654.0,0.25,65,48.5
3985,D3,654.0,0.5,66,48.5
3986,F3,654.0,0.5,66,48.5
3987,A4,654.5,0.25,70,48.5
3988,B-2,654.5,0.25,61,48.5
3989,D3,654.5,0.25,61,48.5
3990,C5,654.75,0.25,70,48.5
3991,F5,655.0,0.25,67,48.5
3992,D3,655.0,0.25,61,48.5
3993,B-2,655.0,0.25,61,48.5
3994,A5,655.25,0.25,70,48.5
3995,C6,655.5,0.25,73,48.5
3996,D3,655.5,0.25,61,48.5
3997,B-2,655.5,0.25,61,48.5
3998,F6,655.75,0.25,75,48.5
3999,B-5,656.0,0.5,78,48.5
4000,A2,656.0,0.5,64,48.5
4001,C#3,656.0,0.5,64,48.5
4002,D4,656.5,0.25,66,48.5
4003,F3,656.5,0.25,66,48.5
4004,D3,656.5,0.25,60,48.5
4005,B-2,656.5,0.25,60,48.5
4006,F3,657.0,0.25,66,48.5
4007,D4,657.0,0.25,66,48.5
4008,D3,657.0,0.25,60,48.5
4009,B-2,657.0,0.25,60,48.5
4010,F3,657.5,0.25,66,48.5
4011,D4,657.5,0.25,66,48.5
4012,B-2,657.5,0.25,60,48.5
4013,D3,657.5,0.25,60,48.5
4014,B2,658.0,1.0,57,48.5
4015,D3,658.0,0.75,68,48.5
4016,C#4,658.0,0.5,70,48.5
4017,F3,658.0,0.5,70,48.5
4018,F3,658.5,0.25,64,48.5
4019,D4,658.5,0.25,64,48.5
4020,E-3,658.75,0.125,60,48.5
4021,F3,658.875,0.125,56,48.5
4022,C3,659.0,1.0,57,48.5
4023,E-3,659.0,0.75,68,48.5
4024,D4,659.0,0.25,64,48.5
4025,F3,659.0,0.25,64,48.5
4026,F3,659.5,0.25,64,48.5
4027,D4,659.5,0.25,64,48.5
4028,F3,659.75,0.125,62,48.5
4029,F#3,659.875,0.125,58,48.5
4030,G#4,660.0,0.5,67,48.5
4031,D4,660.0,0.5,67,48.5
4032,B3,660.0,0.5,67,48.5
4033,F2,660.0,0.25,62,48.5
4034,C3,660.0,0.25,62,48.5
4035,B3,660.5,0.25,62,48.5
4036,D4,660.5,0.25,62,48.5
4037,G4,660.5,0.25,62,48.5
4038,C4,660.5,0.5,59,48.5
4039,F3,660.5,0.5,59,48.5
4040,E-4,660.5,0.5,59,48.5
4041,B3,661.0,0.25,62,48.5
4042,D4,661.0,0.25,62,48.5
4043,G4,661.0,0.25,62,48.5
4044,C4,661.0,0.5,59,48.5
4045,E-4,661.0,0.5,59,48.5
4046,F3,661.0,0.5,59,48.5
4047,D4,661.5,0.25,62,48.5
4048,G4,661.5,0.25,62,48.5
4049,B3,661.5,0.25,62,48.5
4050,F3,661.5,0.5,59,48.5
4051,C4,661.5,0.5,59,48.5
4052,E-4,661.5,0.5,59,48.5
4053,E4,662.0,0.25,66,48.5
4054,C4,662.0,0.25,66,48.5
4055,B-3,662.0,0.5,66,48.5
4056,D4,662.0,0.5,66,48.5
4057,E4,662.5,0.5,70,48.5
4058,D3,662.5,0.25,61,48.5
4059,B-2,662.5,0.25,61,48.5
4060,G4,662.75,0.25,70,48.5
4061,C5,663.0,0.25,67,48.5
4062,B-2,663.0,0.25,61,48.5
4063,D3,663.0,0.25,61,48.5
4064,E5,663.25,0.25,70,48.5
4065,G5,663.5,0.25,73,48.5
4066,B-2,663.5,0.25,61,48.5
4067,D3,663.5,0.25,61,48.5
4068,C6,663.75,0.25,75,48.5
4069,C#4,664.0,0.5,67,48.5
4070,B-4,664.0,0.5,67,48.5
4071,E4,664.0,0.5,67,48.5
4072,C#3,664.0,0.5,64,48.5
4073,A2,664.0,0.5,64,48.5
4074,E4,664.5,0.25,62,48.5
4075,A4,664.5,0.25,62,48.5
4076,C#4,664.5,0.25,62,48.5
4077,D3,664.5,0.25,60,48.5
4078,B-2,664.5,0.25,60,48.5
4079,E4,665.0,0.25,62,48.5
4080,A4,665.0,0.25,62,48.5
4081,C#4,665.0,0.25,62,48.5
4082,D3,665.0,0.25,60,48.5
4083,B-2,665.0,0.25,60,48.5
4084,E4,665.5,0.25,62,48.5
4085,C#4,665.5,0.25,62,48.5
4086,A4,665.5,0.25,62,48.5
4087,B-2,665.5,0.25,60,48.5
4088,D3,665.5,0.25,60,48.5
4089,D4,666.0,0.25,66,48.5
4090,F#4,666.0,0.25,66,48.5
4091,G#2,666.0,0.5,62,48.5
4092,D3,666.0,0.5,62,48.5
4093,F3,666.0,0.5,62,48.5
4094,F#4,666.5,0.5,70,48.5
4095,G2,666.5,0.25,58,48.5
4096,F3,666.5,0.25,58,48.5
4097,D3,666.5,0.25,58,48.5
4098,A4,666.75,0.25,70,48.5
4099,D5,667.0,0.25,67,48.5
4100,G2,667.0,0.25,58,48.5
4101,F3,667.0,0.25,58,48.5
4102,D3,667.0,0.25,58,48.5
4103,F#5,667.25,0.25,70,48.5
4104,A5,667.5,0.25,73,48.5
4105,D3,667.5,0.25,58,48.5
4106,F3,667.5,0.25,58,48.5
4107,G2,667.5,0.25,58,48.5
4108,D6,667.75,0.25,75,48.5
4109,E-5,668.0,0.5,80,48.5
4110,E-6,668.0,0.5,80,48.5
4111,C3,668.0,0.25,62,48.5
4112,E3,668.0,0.25,62,48.5
4113,C4,668.5,0.5,56,48.5
4114,D6,668.5,0.375,69,48.5
4115,D5,668.5,0.375,69,48.5
4116,D6,669.0,0.5,80,48.5
4117,D5,669.0,0.5,80,48.5
4118,E4,669.0,0.5,61,48.5
4119,C4,669.0,0.5,61,48.5
4120,C#6,669.5,0.375,69,48.5
4121,C#5,669.5,0.375,69,48.5
4122,E4,669.5,0.5,61,48.5
4123,C4,669.5,0.5,61,48.5
4124,C#5,670.0,0.5,80,48.5
4125,C#6,670.0,0.5,80,48.5
4126,B-2,670.0,0.5,62,48.5
4127,G3,670.0,0.5,62,48.5
4128,E3,670.0,0.5,62,48.5
4129,D6,670.5,0.375,64,48.5
4130,D5,670.5,0.375,64,48.5
4131,G3,670.5,0.25,58,48.5
4132,E3,670.5,0.25,58,48.5
4133,A2,670.5,0.25,58,48.5
4134,D6,671.0,0.5,72,48.5
4135,D5,671.0,0.5,72,48.5
4136,G3,671.0,0.25,58,48.5
4137,A2,671.0,0.25,58,48.5
4138,E3,671.0,0.25,58,48.5
4139,A4,671.5,0.375,64,48.5
4140,A5,671.5,0.375,64,48.5
4141,A2,671.5,0.25,58,48.5
4142,G3,671.5,0.25,58,48.5
4143,E3,671.5,0.25,58,48.5
4144,G5,672.0,0.5,71,48.5
4145,G4,672.0,0.5,71,48.5
4146,D3,672.0,0.25,62,48.5
4147,F#3,672.0,0.25,62,48.5
4148,D4,672.5,0.5,56,48.5
4149,F#5,672.5,0.375,62,48.5
4150,F#4,672.5,0.375,62,48.5
4151,F#5,673.0,0.5,62,48.5
4152,F#4,673.0,0.5,62,48.5
4153,D4,673.0,0.5,61,48.5
4154,F#4,673.0,0.5,61,48.5
4155,E4,673.5,0.375,62,48.5
4156,E5,673.5,0.375,62,48.5
4157,F#4,673.5,0.5,61,48.5
4158,D4,673.5,0.5,61,48.5
4159,E4,674.0,0.5,68,48.5
4160,E5,674.0,0.5,68,48.5
4161,E-3,674.0,0.5,56,48.5
4162,E-4,674.0,0.5,56,48.5
4163,D4,674.5,63/250,59,48.5
4164,D5,674.5,63/250,59,48.5
4165,D4,674.5,0.375,48,48.5
4166,D3,674.5,0.375,48,48.5
4167,D4,675.0,63/250,62,48.5
4168,D5,675.0,63/250,62,48.5
4169,D4,675.0,0.5,56,48.5
4170,D3,675.0,0.5,56,48.5
4171,D5,675.5,63/250,59,48.5
4172,D4,675.5,63/250,59,48.5
4173,C#3,675.5,0.375,48,48.5
4174,C#4,675.5,0.375,48,48.5
4175,E-4,676.0,0.5,64,48.5
4176,E-5,676.0,0.5,64,48.5
4177,C#3,676.0,0.5,56,48.5
4178,C#4,676.0,0.5,56,48.5
4179,D5,676.5,0.375,55,48.5
4180,D4,676.5,0.375,55,48.5
4181,D3,676.5,0.375,45,48.5
4182,D4,676.5,0.375,45,48.5
4183,D4,677.0,0.5,64,48.5
4184,D5,677.0,0.5,64,48.5
4185,D4,677.0,0.5,50,48.5
4186,D3,677.0,0.5,50,48.5
4187,C#5,677.5,0.375,55,48.5
4188,C#4,677.5,0.375,55,48.5
4189,A3,677.5,0.375,45,48.5
4190,A2,677.5,0.375,45,48.5
4191,C#5,678.0,0.5,63,48.5
4192,C#4,678.0,0.5,63,48.5
4193,G2,678.0,0.5,49,48.5
4194,G3,678.0,0.5,49,48.5
4195,D4,678.5,0.375,52,48.5
4196,D5,678.5,0.375,52,48.5
4197,F#2,678.5,0.375,43,48.5
4198,F#3,678.5,0.375,43,48.5
4199,D5,679.0,0.5,57,48.5
4200,D4,679.0,0.5,57,48.5
4201,F#3,679.0,0.5,43,48.5
4202,F#2,679.0,0.5,43,48.5
4203,A3,679.5,0.375,52,48.5
4204,A4,679.5,0.375,52,48.5
4205,E3,679.5,0.375,43,48.5
4206,E2,679.5,0.375,43,48.5
4207,G4,680.0,0.5,53,48.5
4208,G3,680.0,0.5,53,48.5
4209,E3,680.0,0.5,47,48.5
4210,E2,680.0,0.5,47,48.5
4211,F#4,680.5,0.375,46,48.5
4212,F#3,680.5,0.375,46,48.5
4213,D3,680.5,63/250,40,48.5
4214,D2,680.5,63/250,40,48.5
4215,F#4,681.0,0.5,45,48.5
4216,F#3,681.0,0.5,45,48.5
4217,D2,681.0,63/250,42,48.5
4218,D3,681.0,63/250,42,48.5
4219,E4,681.5,0.375,44,48.5
4220,E3,681.5,0.375,44,48.5
4221,D3,681.5,63/250,40,48.5
4222,D2,681.5,63/250,40,48.5
4223,E3,682.0,0.5,47,48.5
4224,E4,682.0,0.5,47,48.5
4225,E-3,682.0,0.5,44,48.5
4226,E-2,682.0,0.5,44,48.5
4227,D4,682.5,63/250,40,48.5
4228,D3,682.5,63/250,40,48.5
4229,D2,682.5,0.375,38,48.5
4230,D3,682.5,0.375,38,48.5
4231,D3,683.0,63/250,40,48.5
4232,D4,683.0,63/250,40,48.5
4233,D3,683.0,0.5,44,48.5
4234,D2,683.0,0.5,44,48.5
4235,D4,683.5,63/250,38,48.5
4236,D3,683.5,63/250,38,48.5
4237,C#2,683.5,0.375,38,48.5
4238,C#3,683.5,0.375,38,48.5
4239,D3,684.0,63/250,36,48.5
4240,D4,684.0,63/250,36,48.5
4241,C#2,684.0,0.5,44,48.5
4242,C#3,684.0,0.5,44,48.5
4243,D4,684.5,63/250,34,48.5
4244,D3,684.5,63/250,34,48.5
4245,D3,684.5,0.375,36,48.5
4246,D2,684.5,0.375,36,48.5
4247,D4,685.0,63/250,36,48.5
4248,D3,685.0,63/250,36,48.5
4249,D3,685.0,0.5,40,48.5
4250,D2,685.0,0.5,40,48.5
4251,A2,685.5,0.375,39,48.5
4252,D3,685.5,63/250,34,48.5
4253,D4,685.5,63/250,34,48.5
4254,G2,686.0,0.5,39,48.5
4255,D3,686.0,63/250,36,48.5
4256,D4,686.0,63/250,36,48.5
4257,F#2,686.5,0.375,34,48.5
4258,D3,686.5,63/250,34,48.5
4259,D4,686.5,63/250,34,48.5
4260,F#2,687.0,0.5,34,48.5
4261,D4,687.0,63/250,36,48.5
4262,D3,687.0,63/250,36,48.5
4263,E2,687.5,0.375,33,48.5
4264,D4,687.5,63/250,34,48.5
4265,D3,687.5,63/250,34,48.5
4266,E2,688.0,0.5,35,48.5
4267,B-3,688.0,0.5,24,48.5
4268,C#4,688.0,0.5,24,48.5
4269,E3,688.0,0.5,24,48.5
4270,G3,688.0,0.5,24,48.5
4271,D2,688.5,63/250,30,48.5
4272,E3,688.5,63/250,23,48.5
4273,G3,688.5,63/250,23,48.5
4274,B-3,688.5,63/250,23,48.5
4275,C4,688.5,63/250,23,48.5
4276,D2,689.0,63/250,30,48.5
4277,C4,689.0,0.25,24,48.5
4278,G3,689.0,0.25,24,48.5
4279,B-3,689.0,0.25,24,48.5
4280,E3,689.0,0.25,24,48.5
4281,D2,689.5,63/250,28,48.5
4282,B-3,689.5,0.25,22,48.5
4283,C4,689.5,0.25,22,48.5
4284,G3,689.5,0.25,22,48.5
4285,E3,689.5,0.25,22,48.5
4286,D2,690.0,63/250,27,48.5
4287,B-3,690.0,0.25,24,48.5
4288,E3,690.0,0.25,24,48.5
4289,C4,690.0,0.25,24,48.5
4290,G3,690.0,0.25,24,48.5
4291,D2,690.5,63/250,25,48.5
4292,G3,690.5,63/250,22,48.5
4293,E3,690.5,63/250,22,48.5
4294,B-3,690.5,63/250,22,48.5
4295,C4,690.5,63/250,22,48.5
4296,D2,691.0,63/250,27,48.5
4297,G3,691.0,63/250,24,48.5
4298,E3,691.0,63/250,24,48.5
4299,B-3,691.0,63/250,24,48.5
4300,C4,691.0,63/250,24,48.5
4301,D2,691.5,63/250,25,48.5
4302,E3,691.5,63/250,22,48.5
4303,C4,691.5,63/250,22,48.5
4304,G3,691.5,63/250,22,48.5
4305,B-3,691.5,63/250,22,48.5
4306,D2,692.0,63/250,27,48.5
4307,F3,692.0,0.5,30,48.5
4308,C4,692.0,0.5,30,48.5
4309,A3,692.0,0.5,30,48.5
4310,D2,692.5,63/250,25,48.5
4311,F4,692.5,0.375,25,48.5
4312,A4,692.5,0.375,25,48.5
4313,C4,692.5,0.375,25,48.5
4314,D2,693.0,63/250,27,48.5
4315,F4,693.0,0.375,25,48.5
4316,A4,693.0,0.375,25,48.5
4317,C4,693.0,0.375,25,48.5
4318,D2,693.5,63/250,25,48.5
4319,F4,693.5,0.375,25,48.5
4320,A4,693.5,0.375,25,48.5
4321,C4,693.5,0.375,25,48.5
4322,C#3,694.0,0.5,22,48.5
4323,F4,694.0,0.5,28,48.5
4324,G#4,694.0,0.5,28,48.5
4325,B3,694.0,0.5,28,48.5
4326,C3,694.5,63/250,21,48.5
4327,A4,694.5,0.375,24,48.5
4328,F4,694.5,0.375,24,48.5
4329,C4,694.5,0.375,24,48.5
4330,C3,695.0,63/250,22,48.5
4331,F4,695.0,0.375,26,48.5
4332,A4,695.0,0.375,26,48.5
4333,C4,695.0,0.375,26,48.5
4334,C3,695.5,63/250,21,48.5
4335,A4,695.5,0.375,29,48.5
4336,F4,695.5,0.375,29,48.5
4337,C4,695.5,0.375,29,48.5
4338,C3,696.0,63/250,22,48.5
4339,C5,696.0,0.5,33,48.5
4340,F4,696.0,0.5,33,48.5
4341,E-4,696.0,0.5,33,48.5
4342,C3,696.5,63/250,21,48.5
4343,B-4,696.5,0.375,27,48.5
4344,D4,696.5,0.375,27,48.5
4345,F4,696.5,0.375,27,48.5
4346,C3,697.0,63/250,22,48.5
4347,F4,697.0,0.375,27,48.5
4348,D4,697.0,0.375,27,48.5
4349,B-4,697.0,0.375,27,48.5
4350,C3,697.5,63/250,21,48.5
4351,D4,697.5,0.375,27,48.5
4352,B-4,697.5,0.375,27,48.5
4353,F4,697.5,0.375,27,48.5
4354,F2,698.0,4.0,33,48.5
4355,B-4,698.0,0.5,26,48.5
4356,F4,698.0,0.5,26,48.5
4357,D4,698.0,0.5,26,48.5
4358,C3,698.5,0.375,25,48.5
4359,A4,698.5,0.5,26,48.5
4360,C4,698.5,0.5,26,48.5
4361,D4,698.5,0.5,26,48.5
4362,C3,699.0,0.375,25,48.5
4363,G4,699.0,0.5,26,48.5
4364,B-3,699.0,0.5,26,48.5
4365,D4,699.0,0.5,26,48.5
4366,C3,699.5,0.375,25,48.5
4367,D4,699.5,0.5,26,48.5
4368,F4,699.5,0.5,26,48.5
4369,A3,699.5,0.5,26,48.5
4370,C3,700.0,0.5,33,48.5
4371,A3,700.0,0.5,30,48.5
4372,F4,700.0,0.5,30,48.5
4373,C4,700.0,0.5,30,48.5
4374,F3,700.5,0.375,26,48.5
4375,E4,700.5,0.375,25,48.5
4376,G3,700.5,0.375,25,48.5
4377,C4,700.5,0.375,25,48.5
4378,F3,701.0,0.375,27,48.5
4379,E4,701.0,0.375,25,48.5
4380,G3,701.0,0.375,25,48.5
4381,C4,701.0,0.375,25,48.5
4382,F3,701.5,0.375,29,48.5
4383,E4,701.5,0.375,25,48.5
4384,G3,701.5,0.375,25,48.5
4385,C4,701.5,0.375,25,48.5
4386,B-2,702.0,3.5,38,48.5
4387,C4,702.0,0.375,28,48.5
4388,E4,702.0,0.375,28,48.5
4389,G3,702.0,0.375,28,48.5
4390,F3,702.5,0.375,25,48.5
4391,C4,702.5,0.375,24,48.5
4392,E4,702.5,0.375,24,48.5
4393,G3,702.5,0.375,24,48.5
4394,F3,703.0,0.375,25,48.5
4395,C4,703.0,0.5,26,48.5
4396,F4,703.0,0.5,26,48.5
4397,A3,703.0,0.5,26,48.5
4398,F3,703.5,0.375,27,48.5
4399,B-3,703.5,0.5,29,48.5
4400,G4,703.5,0.5,29,48.5
4401,C4,703.5,0.5,29,48.5
4402,F3,704.0,0.5,33,48.5
4403,C4,704.0,0.5,34,48.5
4404,B-3,704.0,0.5,34,48.5
4405,F#3,704.5,0.5,27,48.5
4406,C4,704.5,0.375,27,48.5
4407,F4,704.5,0.375,27,48.5
4408,A3,704.5,0.375,27,48.5
4409,G3,705.0,0.5,27,48.5
4410,A3,705.0,0.375,27,48.5
4411,F4,705.0,0.375,27,48.5
4412,C4,705.0,0.375,27,48.5
4413,C4,705.5,0.375,27,48.5
4414,F4,705.5,0.375,27,48.5
4415,A3,705.5,0.375,27,48.5
4416,D3,705.5,0.5,27,48.5
4417,B2,705.5,0.5,27,48.5
4418,C2,706.0,4.0,33,48.5
4419,A3,706.0,0.375,26,48.5
4420,C4,706.0,0.375,26,48.5
4421,F4,706.0,0.375,26,48.5
4422,C3,706.5,0.375,25,48.5
4423,F4,706.5,0.375,26,48.5
4424,C4,706.5,0.375,26,48.5
4425,A3,706.5,0.375,26,48.5
4426,F4,707.0,0.75,30,48.5
4427,C3,707.0,0.375,25,48.5
4428,C4,707.125,0.625,38,48.5
4429,A4,707.125,0.625,38,48.5
4430,C3,707.5,0.375,25,48.5
4431,C4,707.75,0.25,26,48.5
4432,F4,707.75,0.25,26,48.5
4433,A3,707.75,0.25,26,48.5
4434,C3,708.0,0.375,33,48.5
4435,A3,708.0,0.5,30,48.5
4436,C4,708.0,0.5,30,48.5
4437,F4,708.0,0.5,30,48.5
4438,C3,708.5,0.375,26,48.5
4439,G3,708.5,0.375,25,48.5
4440,E4,708.5,0.375,25,48.5
4441,C4,708.5,0.375,25,48.5
4442,C3,709.0,0.5,27,48.5
4443,C4,709.0,0.375,25,48.5
4444,G3,709.0,0.375,25,48.5
4445,E4,709.0,0.375,25,48.5
4446,C3,709.5,0.5,29,48.5
4447,E4,709.5,0.375,25,48.5
4448,G3,709.5,0.375,25,48.5
4449,C4,709.5,0.375,25,48.5
4450,F2,710.0,3.0,38,48.5
4451,G3,710.0,0.375,28,48.5
4452,E4,710.0,0.375,28,48.5
4453,C4,710.0,0.375,28,48.5
4454,C3,710.5,0.375,25,48.5
4455,E4,710.5,0.375,24,48.5
4456,C4,710.5,0.375,24,48.5
4457,G3,710.5,0.375,24,48.5
4458,C3,711.0,0.375,25,48.5
4459,A3,711.0,0.5,26,48.5
4460,C4,711.0,0.5,26,48.5
4461,F4,711.0,0.5,26,48.5
4462,C3,711.5,0.375,27,48.5
4463,G4,711.5,0.5,29,48.5
4464,B-3,711.5,0.5,29,48.5
4465,C4,711.5,0.5,29,48.5
4466,C3,712.0,0.375,33,48.5
4467,B-3,712.0,0.5,34,48.5
4468,C4,712.0,0.5,34,48.5
4469,C3,712.5,0.375,27,48.5
4470,A3,712.5,0.375,27,48.5
4471,F4,712.5,0.375,27,48.5
4472,C4,712.5,0.375,27,48.5
4473,A3,713.0,0.375,27,48.5
4474,C4,713.0,0.375,27,48.5
4475,F4,713.0,0.375,27,48.5
4476,C3,713.0,0.5,27,48.5
4477,F2,713.0,0.5,27,48.5
4478,A3,713.5,0.375,27,48.5
4479,C4,713.5,0.375,27,48.5
4480,F4,713.5,0.375,27,48.5
4481,A2,713.5,0.5,27,48.5
4482,C3,713.5,0.5,27,48.5
4483,C2,714.0,4.0,33,48.5
4484,F4,714.0,0.375,26,48.5
4485,C4,714.0,0.375,26,48.5
4486,A3,714.0,0.375,26,48.5
4487,C3,714.5,0.375,25,48.5
4488,C5,714.5,0.5,30,48.5
4489,A4,714.5,0.5,30,48.5
4490,C3,715.0,0.375,25,48.5
4491,A4,715.0,0.5,32,48.5
4492,F5,715.0,0.5,32,48.5
4493,C5,715.0,0.5,32,48.5
4494,C3,715.5,0.375,25,48.5
4495,G5,715.5,0.5,29,48.5
4496,E5,715.5,0.5,29,48.5
4497,C5,715.5,0.5,29,48.5
4498,C3,716.0,0.375,33,48.5
4499,C3,716.5,0.375,26,48.5
4500,C5,716.5,0.375,28,48.5
4501,A5,716.5,0.375,28,48.5
4502,F5,716.5,0.375,28,48.5
4503,C3,717.0,0.5,27,48.5
4504,A5,717.0,0.375,28,48.5
4505,C5,717.0,0.375,28,48.5
4506,F5,717.0,0.375,28,48.5
4507,C3,717.5,0.5,29,48.5
4508,F5,717.5,0.375,28,48.5
4509,A5,717.5,0.375,28,48.5
4510,C5,717.5,0.375,28,48.5
4511,F2,718.0,2.375,38,48.5
4512,B4,718.0,0.5,32,48.5
4513,F5,718.0,0.5,32,48.5
4514,G#5,718.0,0.5,32,48.5
4515,C3,718.5,0.375,25,48.5
4516,C5,718.5,0.375,27,48.5
4517,F5,718.5,0.375,27,48.5
4518,A5,718.5,0.375,27,48.5
4519,A2,719.0,0.375,25,48.5
4520,F5,719.0,0.375,30,48.5
4521,A5,719.0,0.375,30,48.5
4522,C5,719.0,0.375,30,48.5
4523,C3,719.5,0.375,27,48.5
4524,A5,719.5,0.375,34,48.5
4525,F5,719.5,0.375,34,48.5
4526,C5,719.5,0.375,34,48.5
4527,F3,720.0,0.375,33,48.5
4528,C6,720.0,0.5,37,48.5
4529,E-5,720.0,0.5,37,48.5
4530,F5,720.0,0.5,37,48.5
4531,D5,720.5,0.375,31,48.5
4532,B-5,720.5,0.375,31,48.5
4533,F5,720.5,0.375,31,48.5
4534,C4,720.5,0.5,31,48.5
4535,A3,720.5,0.5,31,48.5
4536,B-5,721.0,0.375,31,48.5
4537,D5,721.0,0.375,31,48.5
4538,F5,721.0,0.375,31,48.5
4539,F4,721.0,0.5,31,48.5
4540,A3,721.0,0.5,31,48.5
4541,C4,721.0,0.5,31,48.5
4542,D5,721.5,0.375,31,48.5
4543,F5,721.5,0.375,31,48.5
4544,B-5,721.5,0.375,31,48.5
4545,C4,721.5,0.5,31,48.5
4546,G4,721.5,0.5,31,48.5
4547,E4,721.5,0.5,31,48.5
4548,F3,722.0,0.25,46,48.5
4549,F5,722.0,0.5,30,48.5
4550,D5,722.0,0.5,30,48.5
4551,B-5,722.0,0.5,30,48.5
4552,C5,722.5,0.5,29,48.5
4553,D5,722.5,0.5,29,48.5
4554,A5,722.5,0.5,29,48.5
4555,C4,722.5,0.375,25,48.5
4556,A4,722.5,0.375,25,48.5
4557,F4,722.5,0.375,25,48.5
4558,D5,723.0,0.5,29,48.5
4559,B-4,723.0,0.5,29,48.5
4560,G5,723.0,0.5,29,48.5
4561,A4,723.0,0.375,25,48.5
4562,C4,723.0,0.375,25,48.5
4563,F4,723.0,0.375,25,48.5
4564,D5,723.5,0.5,29,48.5
4565,F5,723.5,0.5,29,48.5
4566,A4,723.5,0.5,29,48.5
4567,A4,723.5,0.375,25,48.5
4568,F4,723.5,0.375,25,48.5
4569,C4,723.5,0.375,25,48.5
4570,F5,724.0,0.5,35,48.5
4571,C5,724.0,0.5,35,48.5
4572,A4,724.0,0.5,35,48.5
4573,G#4,724.0,0.5,33,48.5
4574,F4,724.0,0.5,33,48.5
4575,B3,724.0,0.5,33,48.5
4576,C5,724.5,0.375,28,48.5
4577,E5,724.5,0.375,28,48.5
4578,G4,724.5,0.375,28,48.5
4579,A4,724.5,0.375,26,48.5
4580,C4,724.5,0.375,26,48.5
4581,F4,724.5,0.375,26,48.5
4582,E5,725.0,0.375,28,48.5
4583,G4,725.0,0.375,28,48.5
4584,C5,725.0,0.375,28,48.5
4585,F4,725.0,0.375,28,48.5
4586,A4,725.0,0.375,28,48.5
4587,C4,725.0,0.375,28,48.5
4588,C5,725.5,0.375,28,48.5
4589,G4,725.5,0.375,28,48.5
4590,E5,725.5,0.375,28,48.5
4591,F4,725.5,0.375,30,48.5
4592,C4,725.5,0.375,30,48.5
4593,A4,725.5,0.375,30,48.5
4594,B-3,726.0,3.5,43,48.5
4595,G4,726.0,0.375,32,48.5
4596,E5,726.0,0.375,32,48.5
4597,C5,726.0,0.375,32,48.5
4598,E5,726.5,0.375,27,48.5
4599,C5,726.5,0.375,27,48.5
4600,G4,726.5,0.375,27,48.5
4601,F4,726.5,0.375,25,48.5
4602,B-4,726.5,0.375,25,48.5
4603,D4,726.5,0.375,25,48.5
4604,A4,727.0,0.5,30,48.5
4605,F5,727.0,0.5,30,48.5
4606,C5,727.0,0.5,30,48.5
4607,F4,727.0,0.375,25,48.5
4608,B-4,727.0,0.375,25,48.5
4609,D4,727.0,0.375,25,48.5
4610,G5,727.5,0.5,34,48.5
4611,C5,727.5,0.5,34,48.5
4612,B-4,727.5,0.5,34,48.5
4613,F4,727.5,0.375,28,48.5
4614,B-4,727.5,0.375,28,48.5
4615,D4,727.5,0.375,28,48.5
4616,C5,728.0,0.5,38,48.5
4617,B-4,728.0,0.5,38,48.5
4618,F4,728.0,0.5,33,48.5
4619,B-4,728.0,0.5,33,48.5
4620,D4,728.0,0.5,33,48.5
4621,F5,728.5,0.375,31,48.5
4622,C5,728.5,0.375,31,48.5
4623,A4,728.5,0.375,31,48.5
4624,A4,728.5,0.5,28,48.5
4625,D4,728.5,0.5,28,48.5
4626,F#4,728.5,0.5,28,48.5
4627,F5,729.0,0.375,31,48.5
4628,C5,729.0,0.375,31,48.5
4629,A4,729.0,0.375,31,48.5
4630,G4,729.0,0.5,28,48.5
4631,D4,729.0,0.5,28,48.5
4632,F5,729.5,0.375,31,48.5
4633,C5,729.5,0.375,31,48.5
4634,A4,729.5,0.375,31,48.5
4635,B3,729.5,0.5,28,48.5
4636,F4,729.5,0.5,28,48.5
4637,D4,729.5,0.5,28,48.5
4638,C3,730.0,0.5,37,48.5
4639,C5,730.0,0.375,30,48.5
4640,F5,730.0,0.375,30,48.5
4641,A4,730.0,0.375,30,48.5
4642,F5,730.5,0.375,29,48.5
4643,C5,730.5,0.375,29,48.5
4644,A4,730.5,0.375,29,48.5
4645,E4,730.5,0.375,25,48.5
4646,G3,730.5,0.375,25,48.5
4647,C4,730.5,0.375,25,48.5
4648,F5,731.0,0.75,39,48.5
4649,E4,731.0,0.375,25,48.5
4650,G3,731.0,0.375,25,48.5
4651,C4,731.0,0.375,25,48.5
4652,A5,731.125,0.625,48,48.5
4653,C5,731.125,0.625,48,48.5
4654,E4,731.5,0.375,25,48.5
4655,C4,731.5,0.375,25,48.5
4656,G3,731.5,0.375,25,48.5
4657,C5,731.75,0.25,29,48.5
4658,A4,731.75,0.25,29,48.5
4659,F5,731.75,0.25,29,48.5
4660,C5,732.0,0.5,35,48.5
4661,A4,732.0,0.5,35,48.5
4662,F5,732.0,0.5,35,48.5
4663,G3,732.0,0.375,33,48.5
4664,E4,732.0,0.375,33,48.5
4665,C4,732.0,0.375,33,48.5
4666,G4,732.5,0.375,28,48.5
4667,C5,732.5,0.375,28,48.5
4668,E5,732.5,0.375,28,48.5
4669,G3,732.5,0.375,26,48.5
4670,E4,732.5,0.375,26,48.5
4671,C4,732.5,0.375,26,48.5
4672,G4,733.0,0.375,28,48.5
4673,C5,733.0,0.375,28,48.5
4674,E5,733.0,0.375,28,48.5
4675,A3,733.0,0.5,28,48.5
4676,C4,733.0,0.5,28,48.5
4677,F4,733.0,0.5,28,48.5
4678,G4,733.5,0.375,28,48.5
4679,C5,733.5,0.375,28,48.5
4680,E5,733.5,0.375,28,48.5
4681,C4,733.5,0.5,30,48.5
4682,G4,733.5,0.5,30,48.5
4683,B-3,733.5,0.5,30,48.5
4684,F3,734.0,2.5,43,48.5
4685,E5,734.0,0.375,32,48.5
4686,G4,734.0,0.375,32,48.5
4687,C5,734.0,0.375,32,48.5
4688,C5,734.5,0.375,27,48.5
4689,G4,734.5,0.375,27,48.5
4690,E5,734.5,0.375,27,48.5
4691,C4,734.5,0.375,25,48.5
4692,A3,734.5,0.375,25,48.5
4693,F4,734.5,0.375,25,48.5
4694,F5,735.0,0.5,30,48.5
4695,A4,735.0,0.5,30,48.5
4696,C5,735.0,0.5,30,48.5
4697,A3,735.0,0.375,25,48.5
4698,F4,735.0,0.375,25,48.5
4699,C4,735.0,0.375,25,48.5
4700,G5,735.5,0.5,34,48.5
4701,B-4,735.5,0.5,34,48.5
4702,C5,735.5,0.5,34,48.5
4703,F4,735.5,0.375,28,48.5
4704,A3,735.5,0.375,28,48.5
4705,C4,735.5,0.375,28,48.5
4706,B-4,736.0,0.5,38,48.5
4707,C5,736.0,0.5,38,48.5
4708,A3,736.0,0.375,33,48.5
4709,C4,736.0,0.375,33,48.5
4710,F4,736.0,0.375,33,48.5
4711,F5,736.5,0.375,31,48.5
4712,A4,736.5,0.375,31,48.5
4713,C5,736.5,0.375,31,48.5
4714,F4,736.5,0.375,28,48.5
4715,C4,736.5,0.375,28,48.5
4716,A3,736.5,0.375,28,48.5
4717,F5,737.0,0.375,31,48.5
4718,A4,737.0,0.375,31,48.5
4719,C5,737.0,0.375,31,48.5
4720,F4,737.0,0.5,28,48.5
4721,A4,737.0,0.5,28,48.5
4722,C4,737.0,0.5,28,48.5
4723,C5,737.5,0.375,31,48.5
4724,F5,737.5,0.375,31,48.5
4725,A4,737.5,0.375,31,48.5
4726,C4,737.5,0.5,28,48.5
4727,A3,737.5,0.5,28,48.5
4728,F4,737.5,0.5,28,48.5
4729,C3,738.0,0.5,37,48.5
4730,C5,738.0,0.375,30,48.5
4731,F5,738.0,0.375,30,48.5
4732,A4,738.0,0.375,30,48.5
4733,C5,738.5,0.25,43,48.5
4734,C4,738.5,0.375,25,48.5
4735,G3,738.5,0.375,25,48.5
4736,E4,738.5,0.375,25,48.5
4737,C6,738.75,0.25,36,48.5
4738,F5,739.0,0.25,43,48.5
4739,C4,739.0,0.375,25,48.5
4740,E4,739.0,0.375,25,48.5
4741,G3,739.0,0.375,25,48.5
4742,C6,739.25,0.25,36,48.5
4743,G5,739.5,0.25,44,48.5
4744,E4,739.5,0.375,25,48.5
4745,G3,739.5,0.375,25,48.5
4746,C4,739.5,0.375,25,48.5
4747,C6,739.75,0.25,36,48.5
4748,C5,740.0,0.25,47,48.5
4749,G3,740.0,0.375,33,48.5
4750,E4,740.0,0.375,33,48.5
4751,C4,740.0,0.375,33,48.5
4752,C6,740.25,0.25,36,48.5
4753,A5,740.5,0.25,43,48.5
4754,G3,740.5,0.375,26,48.5
4755,C4,740.5,0.375,26,48.5
4756,E4,740.5,0.375,26,48.5
4757,C5,740.75,0.25,36,48.5
4758,C5,741.0,0.25,43,48.5
4759,C4,741.0,0.5,28,48.5
4760,A3,741.0,0.5,28,48.5
4761,F4,741.0,0.5,28,48.5
4762,C6,741.25,0.25,36,48.5
4763,A5,741.5,0.25,43,48.5
4764,C4,741.5,0.5,30,48.5
4765,G4,741.5,0.5,30,48.5
4766,B-3,741.5,0.5,30,48.5
4767,C5,741.75,0.25,36,48.5
4768,C5,742.0,0.25,46,48.5
4769,F3,742.0,2.375,43,48.5
4770,C6,742.25,0.25,36,48.5
4771,A5,742.5,0.25,45,48.5
4772,A3,742.5,0.375,25,48.5
4773,C4,742.5,0.375,25,48.5
4774,F4,742.5,0.375,25,48.5
4775,C5,742.75,0.25,36,48.5
4776,C5,743.0,0.25,45,48.5
4777,C4,743.0,0.375,25,48.5
4778,F4,743.0,0.375,25,48.5
4779,A3,743.0,0.375,25,48.5
4780,C6,743.25,0.25,39,48.5
4781,F5,743.5,0.25,46,48.5
4782,F4,743.5,0.375,28,48.5
4783,C4,743.5,0.375,28,48.5
4784,A3,743.5,0.375,28,48.5
4785,F6,743.75,0.25,36,48.5
4786,F5,744.0,0.25,50,48.5
4787,A3,744.0,0.375,33,48.5
4788,C4,744.0,0.375,33,48.5
4789,F4,744.0,0.375,33,48.5
4790,F6,744.25,0.25,36,48.5
4791,D6,744.5,0.25,43,48.5
4792,C4,744.5,0.5,31,48.5
4793,A3,744.5,0.5,31,48.5
4794,F5,744.75,0.25,36,48.5
4795,F5,745.0,0.25,50,48.5
4796,C4,745.0,0.5,31,48.5
4797,F4,745.0,0.5,31,48.5
4798,A3,745.0,0.5,31,48.5
4799,F6,745.25,0.25,36,48.5
4800,D6,745.5,0.25,42,48.5
4801,E4,745.5,0.5,31,48.5
4802,C4,745.5,0.5,31,48.5
4803,G4,745.5,0.5,31,48.5
4804,F5,745.75,0.25,36,48.5
4805,F5,746.0,0.25,48,48.5
4806,F3,746.0,0.25,46,48.5
4807,F6,746.25,0.25,40,48.5
4808,F#5,746.5,0.25,51,48.5
4809,A4,746.5,0.375,25,48.5
4810,F4,746.5,0.375,25,48.5
4811,C4,746.5,0.375,25,48.5
4812,F#6,746.75,0.25,42,48.5
4813,G5,747.0,0.25,57,48.5
4814,C4,747.0,0.375,25,48.5
4815,F4,747.0,0.375,25,48.5
4816,A4,747.0,0.375,25,48.5
4817,G6,747.25,0.25,43,48.5
4818,A5,747.5,0.25,53,48.5
4819,A6,747.5,0.25,53,48.5
4820,A4,747.5,0.375,25,48.5
4821,F4,747.5,0.375,25,48.5
4822,C4,747.5,0.375,25,48.5
4823,B-5,747.75,0.25,59,48.5
4824,B-6,747.75,0.25,59,48.5
4825,C6,748.0,0.25,67,48.5
4826,B3,748.0,0.5,33,48.5
4827,F4,748.0,0.5,33,48.5
4828,G#4,748.0,0.5,33,48.5
4829,C7,748.25,0.25,53,48.5
4830,B-6,748.5,0.25,60,48.5
4831,C4,748.5,0.375,26,48.5
4832,F4,748.5,0.375,26,48.5
4833,A4,748.5,0.375,26,48.5
4834,C6,748.75,0.25,53,48.5
4835,C6,749.0,0.25,63,48.5
4836,F4,749.0,0.375,28,48.5
4837,A4,749.0,0.375,28,48.5
4838,C4,749.0,0.375,28,48.5
4839,C7,749.25,0.25,53,48.5
4840,B-6,749.5,0.25,60,48.5
4841,F4,749.5,0.375,30,48.5
4842,A4,749.5,0.375,30,48.5
4843,C4,749.5,0.375,30,48.5
4844,C6,749.75,0.25,50,48.5
4845,C6,750.0,0.25,59,48.5
4846,B-3,750.0,2.5,43,48.5
4847,F4,750.0,0.5,33,48.5
4848,E-4,750.0,0.5,33,48.5
4849,C5,750.0,0.5,33,48.5
4850,C7,750.25,0.25,45,48.5
4851,B-6,750.5,0.25,56,48.5
4852,B-4,750.5,0.375,25,48.5
4853,D4,750.5,0.375,25,48.5
4854,F4,750.5,0.375,25,48.5
4855,C6,750.75,0.25,48,48.5
4856,A6,751.0,0.25,58,48.5
4857,B-4,751.0,0.375,25,48.5
4858,F4,751.0,0.375,25,48.5
4859,D4,751.0,0.375,25,48.5
4860,C7,751.25,0.25,47,48.5
4861,G6,751.5,0.25,59,48.5
4862,D4,751.5,0.375,28,48.5
4863,B-4,751.5,0.375,28,48.5
4864,F4,751.5,0.375,28,48.5
4865,C7,751.75,0.25,52,48.5
4866,C6,752.0,0.25,64,48.5
4867,D4,752.0,0.5,33,48.5
4868,B-4,752.0,0.5,33,48.5
4869,F4,752.0,0.5,33,48.5
4870,C7,752.25,0.25,43,48.5
4871,A6,752.5,0.25,55,48.5
4872,A4,752.5,0.5,28,48.5
4873,C4,752.5,0.5,28,48.5
4874,D4,752.5,0.5,28,48.5
4875,C6,752.75,0.25,44,48.5
4876,C6,753.0,0.25,51,48.5
4877,D4,753.0,0.5,29,48.5
4878,G4,753.0,0.5,29,48.5
4879,B-3,753.0,0.5,29,48.5
4880,C7,753.25,0.25,43,48.5
4881,A6,753.5,0.25,47,48.5
4882,A3,753.5,0.5,30,48.5
4883,F4,753.5,0.5,30,48.5
4884,C4,753.5,0.5,30,48.5
4885,C6,753.75,0.25,41,48.5
4886,C6,754.0,0.25,47,48.5
4887,C3,754.0,0.5,41,48.5
4888,C7,754.25,0.25,39,48.5
4889,A6,754.5,0.25,41,48.5
4890,C4,754.5,0.375,28,48.5
4891,G3,754.5,0.375,28,48.5
4892,E4,754.5,0.375,28,48.5
4893,C6,754.75,0.25,38,48.5
4894,F6,755.0,0.25,47,48.5
4895,E4,755.0,0.375,28,48.5
4896,G3,755.0,0.375,28,48.5
4897,C4,755.0,0.375,28,48.5
4898,F7,755.25,0.25,42,48.5
4899,C6,755.5,0.25,43,48.5
4900,G3,755.5,0.375,28,48.5
4901,E4,755.5,0.375,28,48.5
4902,C4,755.5,0.375,28,48.5
4903,C7,755.75,0.25,37,48.5
4904,C6,756.0,0.25,50,48.5
4905,C4,756.0,0.375,37,48.5
4906,G3,756.0,0.375,37,48.5
4907,E4,756.0,0.375,37,48.5
4908,C7,756.25,0.25,37,48.5
4909,B-6,756.5,0.25,44,48.5
4910,E4,756.5,0.375,29,48.5
4911,G3,756.5,0.375,29,48.5
4912,C4,756.5,0.375,29,48.5
4913,C6,756.75,0.25,37,48.5
4914,C6,757.0,0.25,48,48.5
4915,F4,757.0,0.5,31,48.5
4916,A3,757.0,0.5,31,48.5
4917,C4,757.0,0.5,31,48.5
4918,C7,757.25,0.25,37,48.5
4919,B-6,757.5,0.25,43,48.5
4920,B-3,757.5,0.5,34,48.5
4921,G4,757.5,0.5,34,48.5
4922,C4,757.5,0.5,34,48.5
4923,C6,757.75,0.25,37,48.5
4924,C6,758.0,0.25,48,48.5
4925,F3,758.0,2.5,43,48.5
4926,B-3,758.0,0.5,34,48.5
4927,C4,758.0,0.5,34,48.5
4928,C7,758.25,0.25,37,48.5
4929,B-6,758.5,0.25,48,48.5
4930,A3,758.5,0.375,28,48.5
4931,F4,758.5,0.375,28,48.5
4932,C4,758.5,0.375,28,48.5
4933,C6,758.75,0.25,44,48.5
4934,A6,759.0,0.25,53,48.5
4935,F4,759.0,0.375,28,48.5
4936,C4,759.0,0.375,28,48.5
4937,A3,759.0,0.375,28,48.5
4938,C7,759.25,0.25,46,48.5
4939,G6,759.5,0.25,52,48.5
4940,A3,759.5,0.375,31,48.5
4941,C4,759.5,0.375,31,48.5
4942,F4,759.5,0.375,31,48.5
4943,C7,759.75,0.25,47,48.5
4944,C6,760.0,0.25,58,48.5
4945,F4,760.0,0.5,35,48.5
4946,C4,760.125,0.375,38,48.5
4947,A4,760.125,0.375,38,48.5
4948,C7,760.25,0.25,36,48.5
4949,A6,760.5,0.25,48,48.5
4950,C4,760.5,0.375,28,48.5
4951,F4,760.5,0.375,28,48.5
4952,A3,760.5,0.375,28,48.5
4953,C6,760.75,0.25,41,48.5
4954,C6,761.0,0.25,54,48.5
4955,A3,761.0,0.375,28,48.5
4956,C4,761.0,0.375,28,48.5
4957,F4,761.0,0.375,28,48.5
4958,C7,761.25,0.25,36,48.5
4959,A6,761.5,0.25,48,48.5
4960,F4,761.5,0.375,28,48.5
4961,A3,761.5,0.375,28,48.5
4962,C4,761.5,0.375,28,48.5
4963,C6,761.75,0.25,42,48.5
4964,C6,762.0,0.25,57,48.5
4965,C3,762.0,0.5,37,48.5
4966,C7,762.25,0.25,41,48.5
4967,A6,762.5,0.25,48,48.5
4968,C4,762.5,0.375,25,48.5
4969,G3,762.5,0.375,25,48.5
4970,E4,762.5,0.375,25,48.5
4971,C6,762.75,0.25,42,48.5
4972,F6,763.0,0.25,53,48.5
4973,E4,763.0,0.375,25,48.5
4974,C4,763.0,0.375,25,48.5
4975,G3,763.0,0.375,25,48.5
4976,F7,763.25,0.25,44,48.5
4977,C6,763.5,0.25,53,48.5
4978,E4,763.5,0.375,25,48.5
4979,G3,763.5,0.375,25,48.5
4980,C4,763.5,0.375,25,48.5
4981,C7,763.75,0.25,47,48.5
4982,C6,764.0,0.25,63,48.5
4983,G3,764.0,0.375,33,48.5
4984,C4,764.0,0.375,33,48.5
4985,E4,764.0,0.375,33,48.5
4986,C7,764.25,0.25,52,48.5
4987,B-6,764.5,0.25,62,48.5
4988,E4,764.5,0.375,26,48.5
4989,G3,764.5,0.375,26,48.5
4990,C4,764.5,0.375,26,48.5
4991,C6,764.75,0.25,50,48.5
4992,C6,765.0,0.25,63,48.5
4993,F4,765.0,0.5,28,48.5
4994,A3,765.0,0.5,28,48.5
4995,C4,765.0,0.5,28,48.5
4996,C7,765.25,0.25,54,48.5
4997,B-6,765.5,0.25,59,48.5
4998,B-3,765.5,0.5,30,48.5
4999,C4,765.5,0.5,30,48.5
5000,G4,765.5,0.5,30,48.5
5001,C6,765.75,0.25,51,48.5
5002,C6,766.0,0.25,64,48.5
5003,F3,766.0,2.5,43,48.5
5004,C4,766.0,0.5,31,48.5
5005,B-3,766.0,0.5,31,48.5
5006,C7,766.25,0.25,48,48.5
5007,B-6,766.5,0.25,57,48.5
5008,C4,766.5,0.375,25,48.5
5009,A3,766.5,0.375,25,48.5
5010,F4,766.5,0.375,25,48.5
5011,C6,766.75,0.25,46,48.5
5012,A6,767.0,0.25,63,48.5
5013,C4,767.0,0.375,25,48.5
5014,A3,767.0,0.375,25,48.5
5015,F4,767.0,0.375,25,48.5
5016,C7,767.25,0.25,52,48.5
5017,G6,767.5,0.25,59,48.5
5018,F4,767.5,0.375,28,48.5
5019,C4,767.5,0.375,28,48.5
5020,A3,767.5,0.375,28,48.5
5021,C7,767.75,0.25,48,48.5
5022,G6,768.0,2.5,59,48.5
5023,F4,768.0,0.5,31,48.5
5024,C4,768.125,0.375,34,48.5
5025,A4,768.125,0.375,34,48.5
5026,C4,768.5,0.375,28,48.5
5027,F4,768.5,0.375,28,48.5
5028,A3,768.5,0.375,28,48.5
5029,A3,769.0,0.375,28,48.5
5030,F4,769.0,0.375,28,48.5
5031,C4,769.0,0.375,28,48.5
5032,F4,769.5,0.375,28,48.5
5033,A3,769.5,0.375,28,48.5
5034,C4,769.5,0.375,28,48.5
5035,C3,770.0,0.5,37,48.5
5036,A6,770.5,0.5,66,48.5
5037,E4,770.5,0.375,25,48.5
5038,G3,770.5,0.375,25,48.5
5039,C4,770.5,0.375,25,48.5
5040,B-6,771.0,0.5,71,48.5
5041,G3,771.0,0.375,25,48.5
5042,C4,771.0,0.375,25,48.5
5043,E4,771.0,0.375,25,48.5
5044,B6,771.5,0.5,75,48.5
5045,C4,771.5,0.375,25,48.5
5046,G3,771.5,0.375,25,48.5
5047,E4,771.5,0.375,25,48.5
5048,C7,772.0,3.0,79,48.5
5049,G3,772.0,0.375,33,48.5
5050,E4,772.0,0.375,33,48.5
5051,C4,772.0,0.375,33,48.5
5052,G3,772.5,0.375,26,48.5
5053,E4,772.5,0.375,26,48.5
5054,C4,772.5,0.375,26,48.5
5055,A3,773.0,0.5,28,48.5
5056,C4,773.0,0.5,28,48.5
5057,F4,773.0,0.5,28,48.5
5058,G4,773.5,0.5,30,48.5
5059,C4,773.5,0.5,30,48.5
5060,B-3,773.5,0.5,30,48.5
5061,C3,774.0,0.5,33,48.5
5062,E6,775.0,1.0,66,48.5
5063,G4,775.0,3.0,33,48.5
5064,B-3,775.0,3.0,33,48.5
5065,C4,775.0,3.0,33,48.5
5066,F6,776.0,0.25,56,48.5
5067,A6,776.25,0.25,49,48.5
5068,C6,776.5,0.25,49,48.5
5069,F6,776.75,0.25,49,48.5
5070,A5,777.0,0.25,56,48.5
5071,C6,777.25,0.25,44,48.5
5072,F5,777.5,0.25,46,48.5
5073,A5,777.75,0.25,46,48.5
5074,C5,778.0,0.25,51,48.5
5075,G4,778.0,4.0,33,48.5
5076,B-3,778.0,4.0,33,48.5
5077,C4,778.0,4.0,33,48.5
5078,F5,778.25,0.25,44,48.5
5079,A4,778.5,0.25,44,48.5
5080,C5,778.75,0.25,44,48.5
5081,F4,779.0,0.25,51,48.5
5082,A4,779.25,0.25,43,48.5
5083,C4,779.5,0.25,43,48.5
5084,F4,779.75,0.25,43,48.5
5085,A4,780.0,0.25,47,48.5
5086,C5,780.25,0.25,38,48.5
5087,C4,780.5,0.25,38,48.5
5088,F4,780.75,0.25,38,48.5
5089,A4,781.0,0.25,40,48.5
5090,C5,781.25,0.25,36,48.5
5091,C4,781.5,0.25,35,48.5
5092,F4,781.75,0.25,34,48.5
5093,A4,782.0,0.25,39,48.5
5094,F3,782.0,3.0,33,48.5
5095,C4,782.0,3.0,33,48.5
5096,A3,782.0,3.0,33,48.5
5097,F4,782.0,3.0,33,48.5
5098,C5,782.25,0.25,31,48.5
5099,C4,782.5,0.25,30,48.5
5100,F4,782.75,0.25,30,48.5
5101,A4,783.0,0.25,38,48.5
5102,C5,783.25,0.25,29,48.5
5103,C4,783.5,0.25,29,48.5
5104,F4,783.75,0.25,29,48.5
5105,G#5,787.0,0.5,42,48.5
5106,F5,787.0,0.5,42,48.5
5107,B-5,787.5,0.5,44,48.5
5108,G5,787.5,0.5,44,48.5
5109,C6,788.0,1.0,46,48.5
5110,G#5,788.0,1.0,46,48.5
5111,F2,790.0,1.0,37,48.5
5112,G#4,790.0,0.25,37,48.5
5113,C5,790.24,0.25,29,48.5
5114,C4,790.5,0.25,29,48.5
5115,G#3,790.5,0.5,40,48.5
5116,C4,790.5,0.5,40,48.5
5117,F4,790.75,0.25,27,48.5
5118,G#4,791.0,0.25,37,48.5
5119,C4,791.0,0.5,43,48.5
5120,G3,791.0,0.5,43,48.5
5121,C5,791.25,0.25,29,48.5
5122,C4,791.5,0.25,29,48.5
5123,F3,791.5,0.5,46,48.5
5124,C4,791.5,0.5,46,48.5
5125,F4,791.75,0.25,28,48.5
5126,G#4,792.0,0.25,37,48.5
5127,C4,792.0,0.5,47,48.5
5128,C3,792.0,0.5,47,48.5
5129,C5,792.25,0.25,29,48.5
5130,C4,792.5,0.25,29,48.5
5131,F4,792.75,0.25,26,48.5
5132,G#4,793.0,0.25,37,48.5
5133,C5,793.25,0.25,29,48.5
5134,B-4,793.5,0.25,36,48.5
5135,C5,793.75,0.25,39,48.5
5136,G#4,794.0,0.25,47,48.5
5137,C5,794.25,0.25,36,48.5
5138,C4,794.5,0.25,36,48.5
5139,F4,794.75,0.25,32,48.5
5140,G#4,795.0,0.25,40,48.5
5141,G5,795.0,0.5,59,48.5
5142,B-5,795.0,0.5,59,48.5
5143,C5,795.25,0.25,36,48.5
5144,C4,795.5,0.25,36,48.5
5145,C#6,795.5,0.5,56,48.5
5146,B-5,795.5,0.5,56,48.5
5147,F4,795.75,0.25,32,48.5
5148,G#4,796.0,0.25,45,48.5
5149,C6,796.0,1.0,52,48.5
5150,G#5,796.0,1.0,52,48.5
5151,C5,796.25,0.25,35,48.5
5152,F4,796.5,0.25,35,48.5
5153,G#4,796.5,0.25,35,48.5
5154,C5,796.75,0.25,31,48.5
5155,B-4,797.0,0.25,44,48.5
5156,E4,797.0,0.25,44,48.5
5157,C5,797.25,0.25,29,48.5
5158,G#4,797.5,0.25,31,48.5
5159,F4,797.5,0.25,31,48.5
5160,C5,797.75,0.25,28,48.5
5161,G4,798.0,0.25,37,48.5
5162,E4,798.0,0.25,37,48.5
5163,C5,798.24,0.25,29,48.5
5164,C4,798.5,0.25,29,48.5
5165,E4,798.75,0.25,27,48.5
5166,G4,799.0,0.25,37,48.5
5167,G#3,799.0,0.5,49,48.5
5168,C4,799.0,0.5,49,48.5
5169,C5,799.25,0.25,29,48.5
5170,C4,799.5,0.25,29,48.5
5171,G3,799.5,0.5,43,48.5
5172,C4,799.5,0.5,43,48.5
5173,E4,799.75,0.25,27,48.5
5174,G4,800.0,0.25,37,48.5
5175,F3,800.0,0.5,46,48.5
5176,C4,800.0,0.5,46,48.5
5177,C5,800.25,0.25,29,48.5
5178,C4,800.5,0.25,29,48.5
5179,E4,800.75,0.25,26,48.5
5180,G4,801.0,0.25,42,48.5
5181,C5,801.25,0.25,31,48.5
5182,B-4,801.5,0.25,31,48.5
5183,C5,801.75,0.25,28,48.5
5184,G#4,802.0,0.25,39,48.5
5185,C5,802.265,0.25,29,48.5
5186,C4,802.525,0.25,29,48.5
5187,F4,802.775,0.25,27,48.5
5188,F5,803.0,0.5,47,48.5
5189,G#5,803.0,0.5,47,48.5
5190,G#4,803.025,0.25,42,48.5
5191,C5,803.275,0.25,34,48.5
5192,G5,803.5,0.5,50,48.5
5193,B-5,803.5,0.5,50,48.5
5194,C4,803.525,0.25,34,48.5
5195,F4,803.775,0.25,29,48.5
5196,G#5,804.0,1.0,52,48.5
5197,C6,804.0,1.0,52,48.5
5198,G#4,804.025,0.25,41,48.5
5199,C5,804.275,0.25,33,48.5
5200,C4,804.5,0.25,33,48.5
5201,F4,804.75,0.25,30,48.5
5202,G#4,805.0,0.25,37,48.5
5203,C5,805.275,0.25,29,48.5
5204,B-4,805.5,0.25,29,48.5
5205,E4,805.5,0.25,29,48.5
5206,C5,805.775,9/40,26,48.5
5207,F4,806.0,0.25,37,48.5
5208,G#4,806.0,0.25,37,48.5
5209,C5,806.24,0.25,29,48.5
5210,C4,806.5,0.25,29,48.5
5211,E-4,806.5,0.5,46,48.5
5212,C4,806.5,0.5,46,48.5
5213,F4,806.75,0.25,25,48.5
5214,G#4,807.0,0.25,38,48.5
5215,B-3,807.0,0.5,46,48.5
5216,E-4,807.0,0.5,46,48.5
5217,C5,807.25,0.25,30,48.5
5218,C4,807.5,0.25,31,48.5
5219,G#3,807.5,0.5,50,48.5
5220,E-4,807.5,0.5,50,48.5
5221,F4,807.75,0.25,29,48.5
5222,G#4,808.0,0.25,40,48.5
5223,E-3,808.0,0.5,54,48.5
5224,E-4,808.0,0.5,54,48.5
5225,C5,808.25,0.25,32,48.5
5226,C4,808.5,0.25,32,48.5
5227,F4,808.75,0.25,30,48.5
5228,G#4,809.0,0.25,42,48.5
5229,C5,809.25,0.25,33,48.5
5230,E-4,809.5,0.25,41,48.5
5231,B-4,809.5,0.25,41,48.5
5232,E-5,809.75,0.25,44,48.5
5233,C5,810.0,0.25,54,48.5
5234,G#4,810.0,0.25,54,48.5
5235,E-5,810.25,0.25,41,48.5
5236,E-4,810.504,0.25,41,48.5
5237,G#4,810.75,0.25,37,48.5
5238,C5,811.0,0.25,46,48.5
5239,C#6,811.0,0.5,68,48.5
5240,B-5,811.0,0.5,68,48.5
5241,E-5,811.25,0.25,41,48.5
5242,E-4,811.5,0.25,41,48.5
5243,C#6,811.5,0.5,64,48.5
5244,F6,811.5,0.5,64,48.5
5245,G#4,811.75,0.25,40,48.5
5246,C5,812.0,0.25,51,48.5
5247,C6,812.0,1.0,67,48.5
5248,E-6,812.0,1.0,67,48.5
5249,E-5,812.25,0.25,44,48.5
5250,G#4,812.5,0.25,46,48.5
5251,C5,812.5,0.25,46,48.5
5252,E-5,812.75,0.25,44,48.5
5253,G4,813.0,0.25,55,48.5
5254,C#5,813.0,0.25,55,48.5
5255,E-5,813.25,0.25,48,48.5
5256,C5,813.5,0.25,50,48.5
5257,G#4,813.5,0.25,50,48.5
5258,E-5,813.75,0.25,54,48.5
5259,G4,814.0,0.25,60,48.5
5260,B-4,814.0,0.25,60,48.5
5261,E-5,814.25,0.25,49,48.5
5262,E-4,814.5,0.25,49,48.5
5263,G4,814.75,0.25,45,48.5
5264,B-4,815.0,0.25,52,48.5
5265,C4,815.0,0.5,51,48.5
5266,E-4,815.0,0.5,51,48.5
5267,E-5,815.25,0.25,42,48.5
5268,E-4,815.5,0.25,42,48.5
5269,E-4,815.5,0.5,44,48.5
5270,B-3,815.5,0.5,44,48.5
5271,G4,815.75,0.25,39,48.5
5272,B-4,816.0,0.25,58,48.5
5273,G#3,816.0,0.5,46,48.5
5274,E-4,816.0,0.5,46,48.5
5275,E-5,816.25,0.25,45,48.5
5276,E-4,816.5,0.25,45,48.5
5277,G4,816.75,0.25,40,48.5
5278,B-4,817.0,0.25,56,48.5
5279,E-5,817.25,0.25,41,48.5
5280,C#5,817.5,0.25,41,48.5
5281,E-5,817.75,0.25,38,48.5
5282,C5,818.0,0.25,53,48.5
5283,E-5,818.25,0.25,43,48.5
5284,C6,818.5,0.5,61,48.5
5285,E-4,818.5,0.25,43,48.5
5286,G#4,818.75,0.25,39,48.5
5287,B-5,819.0,0.5,64,48.5
5288,C5,819.0,0.25,48,48.5
5289,E-5,819.25,0.25,38,48.5
5290,G#5,819.5,0.5,66,48.5
5291,E-4,819.5,0.25,38,48.5
5292,G#4,819.75,0.25,35,48.5
5293,F5,820.0,1.0,66,48.5
5294,C5,820.0,0.25,45,48.5
5295,E-5,820.25,0.25,35,48.5
5296,E-4,820.5,0.25,35,48.5
5297,G#4,820.75,0.25,34,48.5
5298,G#4,821.0,0.25,38,48.5
5299,C5,821.0,0.25,38,48.5
5300,E-5,821.25,0.25,30,48.5
5301,G4,821.5,0.25,29,48.5
5302,C#5,821.5,0.25,29,48.5
5303,E-5,821.75,9/40,28,48.5
5304,G#4,822.0,0.25,37,48.5
5305,C5,822.0,0.25,37,48.5
5306,E-5,822.25,0.25,29,48.5
5307,C#3,822.5,0.5,65,48.5
5308,E-4,822.5,0.25,29,48.5
5309,G#4,822.75,0.25,26,48.5
5310,C3,823.0,0.5,68,48.5
5311,C5,823.0,0.25,38,48.5
5312,E-5,823.25,0.25,30,48.5
5313,B-2,823.5,0.5,71,48.5
5314,E-4,823.5,0.25,31,48.5
5315,G#4,823.75,0.25,29,48.5
5316,G2,824.0,2.0,76,48.5
5317,C5,824.0,0.25,40,48.5
5318,E-5,824.25,0.25,32,48.5
5319,E-4,824.5,0.25,32,48.5
5320,G#4,824.75,0.25,30,48.5
5321,C5,825.0,0.25,42,48.5
5322,E-5,825.25,0.25,33,48.5
5323,E-4,825.5,0.25,41,48.5
5324,G#4,825.75,0.25,44,48.5
5325,G#2,826.0,0.5,61,48.5
5326,C#5,826.0,0.25,50,48.5
5327,G#4,826.25,0.25,36,48.5
5328,C6,826.5,0.5,68,48.5
5329,F4,826.5,0.25,36,48.5
5330,G#4,826.75,0.25,35,48.5
5331,C#6,827.0,0.5,73,48.5
5332,C#5,827.0,0.25,45,48.5
5333,F5,827.25,0.25,36,48.5
5334,D6,827.5,0.5,77,48.5
5335,F4,827.5,0.25,36,48.5
5336,G#4,827.75,0.25,33,48.5
5337,E-6,828.0,4.0,82,48.5
5338,C#5,828.0,0.25,44,48.5
5339,F5,828.25,0.25,37,48.5
5340,F4,828.5,0.25,37,48.5
5341,B-4,828.75,0.25,37,48.5
5342,C#5,829.0,0.25,48,48.5
5343,F5,829.25,0.25,38,48.5
5344,F4,829.5,0.25,41,48.5
5345,B-4,829.75,0.25,44,48.5
5346,C#5,830.0,0.25,56,48.5
5347,E-5,830.25,0.25,42,48.5
5348,E-4,830.5,0.25,42,48.5
5349,B-4,830.75,0.25,40,48.5
5350,C#5,831.0,0.25,52,48.5
5351,E-5,831.25,0.25,42,48.5
5352,E-4,831.5,0.25,42,48.5
5353,B-4,831.75,0.25,39,48.5
5354,C6,832.0,1.0,66,48.5
5355,C5,832.0,0.25,50,48.5
5356,E-5,832.25,0.25,40,48.5
5357,E-4,832.5,0.25,40,48.5
5358,G#4,832.75,0.25,38,48.5
5359,C5,833.0,0.25,42,48.5
5360,E-5,833.25,0.25,33,48.5
5361,E-4,833.5,0.25,41,48.5
5362,G#4,833.75,0.25,44,48.5
5363,B-4,834.0,0.25,54,48.5
5364,E-5,834.25,0.25,41,48.5
5365,G#2,834.5,0.5,44,48.5
5366,E-4,834.5,0.25,41,48.5
5367,G#4,834.75,0.25,36,48.5
5368,B-2,835.0,0.5,48,48.5
5369,B-4,835.0,0.25,48,48.5
5370,E-5,835.25,0.25,39,48.5
5371,B2,835.5,0.5,45,48.5
5372,E-4,835.5,0.25,39,48.5
5373,G#4,835.75,0.25,35,48.5
5374,E-2,836.0,4.0,48,48.5
5375,B-4,836.0,0.25,48,48.5
5376,E-5,836.25,0.25,32,48.5
5377,E-4,836.5,0.25,37,48.5
5378,G4,836.75,0.25,33,48.5
5379,B-4,837.0,0.25,42,48.5
5380,E-5,837.25,0.25,29,48.5
5381,E-4,837.5,0.25,29,48.5
5382,G4,837.75,0.25,26,48.5
5383,C5,838.0,0.25,37,48.5
5384,E-5,838.25,0.25,29,48.5
5385,E-4,838.5,0.25,29,48.5
5386,G#4,838.75,0.25,27,48.5
5387,C5,839.0,0.25,38,48.5
5388,E-5,839.25,0.25,30,48.5
5389,E-4,839.5,0.25,31,48.5
5390,G#4,839.75,0.25,28,48.5
5391,G#1,840.0,1.0,44,48.5
5392,B4,840.0,0.25,40,48.5
5393,E-5,840.25,0.25,32,48.5
5394,E-4,840.5,0.25,32,48.5
5395,G#4,840.75,0.25,28,48.5
5396,B4,841.0,0.25,42,48.5
5397,E-5,841.25,0.25,33,48.5
5398,E-4,841.5,0.25,33,48.5
5399,G#4,841.75,0.25,28,48.5
5400,B-4,842.0,0.25,37,48.5
5401,E-5,842.25,0.25,29,48.5
5402,E-4,842.5,0.25,29,48.5
5403,G#5,842.5,0.5,50,48.5
5404,C6,842.5,0.5,50,48.5
5405,G#4,842.75,0.25,26,48.5
5406,B-4,843.0,0.25,38,48.5
5407,C6,843.0,0.5,50,48.5
5408,G#5,843.0,0.5,50,48.5
5409,E-5,843.25,0.25,29,48.5
5410,E-4,843.5,0.25,29,48.5
5411,G#5,843.5,0.5,50,48.5
5412,C#6,843.5,0.5,50,48.5
5413,G#4,843.75,0.25,27,48.5
5414,B-4,844.0,0.25,40,48.5
5415,B-5,844.0,1.0,54,48.5
5416,C6,844.0,1.0,54,48.5
5417,G5,844.0,1.0,54,48.5
5418,E-5,844.25,0.25,28,48.5
5419,E-4,844.5,0.25,28,48.5
5420,G4,844.75,0.25,26,48.5
5421,G5,845.0,0.5,55,48.5
5422,B-4,845.0,0.25,41,48.5
5423,E-5,845.25,0.25,29,48.5
5424,E-4,845.5,0.25,29,48.5
5425,G4,845.75,0.25,25,48.5
5426,C5,846.0,0.25,37,48.5
5427,E-5,846.25,0.25,35,48.5
5428,E-4,846.5,0.25,29,48.5
5429,C4,846.5,0.5,50,48.5
5430,C3,846.5,0.5,50,48.5
5431,G#4,846.75,0.25,28,48.5
5432,C5,847.0,0.25,38,48.5
5433,C4,847.0,0.5,50,48.5
5434,C3,847.0,0.5,50,48.5
5435,E-5,847.25,0.25,30,48.5
5436,E-4,847.5,0.25,31,48.5
5437,G3,847.5,0.5,50,48.5
5438,G2,847.5,0.5,50,48.5
5439,G#4,847.75,0.25,28,48.5
5440,C5,848.0,0.25,45,48.5
5441,G#3,848.0,1.0,56,48.5
5442,G#2,848.0,1.0,56,48.5
5443,E-5,848.25,0.25,32,48.5
5444,E-4,848.5,0.25,32,48.5
5445,G#4,848.75,0.25,30,48.5
5446,C5,849.0,0.25,47,48.5
5447,F3,849.0,0.5,54,48.5
5448,F2,849.0,0.5,54,48.5
5449,E-5,849.25,0.25,34,48.5
5450,E-4,849.5,0.25,38,48.5
5451,G#4,849.75,0.25,35,48.5
5452,C5,850.0,0.25,50,48.5
5453,E5,850.25,0.25,39,48.5
5454,E4,850.5,0.25,39,48.5
5455,G#5,850.5,0.5,64,48.5
5456,C6,850.5,0.5,64,48.5
5457,G4,850.75,0.25,34,48.5
5458,C5,851.0,0.25,51,48.5
5459,C6,851.0,0.5,64,48.5
5460,G#5,851.0,0.5,64,48.5
5461,E5,851.25,0.25,39,48.5
5462,E4,851.5,0.25,40,48.5
5463,C#6,851.5,0.5,64,48.5
5464,G#5,851.5,0.5,64,48.5
5465,G4,851.75,0.25,34,48.5
5466,C5,852.0,0.25,49,48.5
5467,G5,852.0,1.0,60,48.5
5468,B-5,852.0,1.0,60,48.5
5469,C6,852.0,1.0,60,48.5
5470,E5,852.25,0.25,38,48.5
5471,E4,852.5,0.25,38,48.5
5472,G4,852.75,0.25,35,48.5
5473,G5,853.0,0.5,69,48.5
5474,C5,853.0,0.25,51,48.5
5475,E5,853.25,0.25,40,48.5
5476,E4,853.5,0.25,41,48.5
5477,G4,853.75,0.25,38,48.5
5478,C5,854.0,0.25,59,48.5
5479,F5,854.25,0.25,45,48.5
5480,F4,854.5,0.25,46,48.5
5481,C4,854.5,0.5,58,48.5
5482,C3,854.5,0.5,58,48.5
5483,G#4,854.75,0.25,45,48.5
5484,C5,855.0,0.25,64,48.5
5485,C4,855.0,0.5,58,48.5
5486,C3,855.0,0.5,58,48.5
5487,F5,855.25,0.25,48,48.5
5488,F4,855.5,0.25,50,48.5
5489,G3,855.5,0.5,58,48.5
5490,G2,855.5,0.5,58,48.5
5491,G#4,855.75,0.25,50,48.5
5492,C5,856.0,0.25,58,48.5
5493,G#2,856.0,1.0,64,48.5
5494,G#3,856.0,1.0,64,48.5
5495,F5,856.25,0.25,47,48.5
5496,F4,856.5,0.25,47,48.5
5497,G#4,856.75,0.25,43,48.5
5498,C5,857.0,0.25,54,48.5
5499,F3,857.0,0.5,59,48.5
5500,F2,857.0,0.5,59,48.5
5501,F5,857.25,0.25,46,48.5
5502,F4,857.5,0.25,46,48.5
5503,G#4,857.75,0.25,41,48.5
5504,C5,858.0,0.25,57,48.5
5505,E5,858.25,0.25,44,48.5
5506,C6,858.5,0.5,72,48.5
5507,E4,858.5,0.25,44,48.5
5508,G4,858.75,0.25,40,48.5
5509,C6,859.0,0.5,75,48.5
5510,C5,859.0,0.25,58,48.5
5511,E5,859.25,0.25,44,48.5
5512,C6,859.5,0.5,79,48.5
5513,E4,859.5,0.25,46,48.5
5514,G4,859.75,0.25,41,48.5
5515,C#6,860.0,1.0,83,48.5
5516,C5,860.0,0.25,56,48.5
5517,E5,860.25,0.25,43,48.5
5518,E4,860.5,0.25,43,48.5
5519,G4,860.75,0.25,39,48.5
5520,C#3,861.0,2.0,77,48.5
5521,C5,861.0,0.25,58,48.5
5522,E5,861.25,0.25,46,48.5
5523,E4,861.5,0.25,47,48.5
5524,G4,861.75,0.25,44,48.5
5525,C5,862.0,0.25,67,48.5
5526,F5,862.25,0.25,51,48.5
5527,F4,862.5,0.25,51,48.5
5528,G#4,862.75,0.25,47,48.5
5529,A5,863.0,0.75,70,48.5
5530,C5,863.0,0.25,69,48.5
5531,F5,863.25,0.25,51,48.5
5532,F4,863.5,0.25,51,48.5
5533,B5,863.75,0.25,67,48.5
5534,G#4,863.75,0.25,48,48.5
5535,C#6,864.0,1.0,79,48.5
5536,C5,864.0,0.25,60,48.5
5537,F5,864.25,0.25,49,48.5
5538,F4,864.5,0.25,49,48.5
5539,G#4,864.75,0.25,48,48.5
5540,C#3,865.0,2.0,77,48.5
5541,C5,865.0,0.25,59,48.5
5542,F5,865.25,0.25,51,48.5
5543,F4,865.5,0.25,51,48.5
5544,G#4,865.75,0.25,47,48.5
5545,C#5,866.0,0.25,65,48.5
5546,F5,866.25,0.25,53,48.5
5547,F4,866.5,0.25,53,48.5
5548,G#4,866.75,0.25,49,48.5
5549,A5,867.0,0.75,70,48.5
5550,C#5,867.0,0.25,62,48.5
5551,F5,867.25,0.25,53,48.5
5552,F4,867.5,0.25,53,48.5
5553,B5,867.75,0.25,67,48.5
5554,G#4,867.75,0.25,49,48.5
5555,C#6,868.0,1.0,77,48.5
5556,C#5,868.0,0.25,62,48.5
5557,F#5,868.25,0.25,53,48.5
5558,F#4,868.5,0.25,53,48.5
5559,A4,868.75,0.25,49,48.5
5560,C#3,869.0,2.0,66,48.5
5561,C#5,869.0,0.25,62,48.5
5562,F#5,869.25,0.25,53,48.5
5563,F#4,869.5,0.25,53,48.5
5564,A4,869.75,0.25,49,48.5
5565,C#5,870.0,0.25,65,48.5
5566,F5,870.25,0.25,53,48.5
5567,F4,870.5,0.25,53,48.5
5568,G#4,870.75,0.25,47,48.5
5569,C3,871.0,1.0,49,48.5
5570,C#5,871.0,0.25,62,48.5
5571,F5,871.25,0.25,53,48.5
5572,F4,871.5,0.25,53,48.5
5573,G#4,871.75,0.25,48,48.5
5574,B2,872.0,0.5,56,48.5
5575,C#5,872.0,0.25,62,48.5
5576,F#5,872.25,0.25,53,48.5
5577,F#4,872.5,0.25,53,48.5
5578,A4,872.75,0.25,49,48.5
5579,D6,873.0,1.5,63,48.5
5580,C#5,873.0,0.25,62,48.5
5581,F#5,873.25,0.25,53,48.5
5582,F#4,873.5,0.25,53,48.5
5583,A4,873.75,0.25,48,48.5
5584,C#5,874.0,0.25,65,48.5
5585,F5,874.25,0.25,46,48.5
5586,D6,874.5,0.5,57,48.5
5587,F4,874.5,0.25,46,48.5
5588,G#4,874.75,0.25,42,48.5
5589,E6,875.0,0.5,60,48.5
5590,C#5,875.0,0.25,55,48.5
5591,F5,875.25,0.25,40,48.5
5592,F6,875.5,0.5,60,48.5
5593,F4,875.5,0.25,40,48.5
5594,G#4,875.75,0.25,36,48.5
5595,E6,876.0,0.5,69,48.5
5596,C#5,876.0,0.25,40,48.5
5597,F5,876.25,0.25,46,48.5
5598,F4,876.5,0.25,37,48.5
5599,G#4,876.75,0.25,35,48.5
5600,C3,877.0,1.0,42,48.5
5601,C5,877.0,0.25,37,48.5
5602,F5,877.25,0.25,43,48.5
5603,F4,877.5,0.25,37,48.5
5604,G#4,877.75,0.25,34,48.5
5605,D5,878.0,0.25,37,48.5
5606,F5,878.25,0.25,29,48.5
5607,D6,878.5,0.5,63,48.5
5608,F4,878.5,0.25,29,48.5
5609,G4,878.75,0.25,27,48.5
5610,C6,879.0,0.5,56,48.5
5611,D5,879.0,0.25,38,48.5
5612,F5,879.25,0.25,30,48.5
5613,B5,879.5,0.5,56,48.5
5614,F4,879.5,0.25,31,48.5
5615,G4,879.75,0.25,28,48.5
5616,A5,880.0,0.5,64,48.5
5617,D5,880.0,0.25,41,48.5
5618,F5,880.25,0.25,31,48.5
5619,F4,880.5,0.25,31,48.5
5620,G4,880.75,0.25,29,48.5
5621,F3,881.0,1.0,29,48.5
5622,D5,881.0,0.25,40,48.5
5623,F5,881.25,0.25,29,48.5
5624,F4,881.5,0.25,32,48.5
5625,G4,881.75,0.25,28,48.5
5626,D3,882.0,0.5,26,48.5
5627,C5,882.0,0.25,44,48.5
5628,E5,882.25,0.25,32,48.5
5629,E4,882.5,0.25,32,48.5
5630,G4,882.75,0.25,30,48.5
5631,A5,883.0,1.0,54,48.5
5632,C5,883.0,0.25,44,48.5
5633,E5,883.25,0.25,34,48.5
5634,E4,883.5,0.25,34,48.5
5635,G4,883.75,0.25,31,48.5
5636,B5,884.0,0.5,58,48.5
5637,C5,884.0,0.25,41,48.5
5638,E5,884.25,0.25,31,48.5
5639,E4,884.5,0.25,31,48.5
5640,G4,884.75,0.25,29,48.5
5641,G3,885.0,1.0,34,48.5
5642,C5,885.0,0.25,40,48.5
5643,E5,885.25,0.25,29,48.5
5644,E4,885.5,0.25,31,48.5
5645,G4,885.75,0.25,26,48.5
5646,G#3,886.0,1.0,39,48.5
5647,C5,886.0,0.25,37,48.5
5648,F5,886.25,0.25,27,48.5
5649,F4,886.5,0.25,27,48.5
5650,A4,886.75,0.25,24,48.5
5651,G3,887.0,1.0,35,48.5
5652,C5,887.0,0.25,37,48.5
5653,F5,887.25,0.25,28,48.5
5654,F4,887.5,0.25,28,48.5
5655,A4,887.75,0.25,24,48.5
5656,C6,888.0,1.0,52,48.5
5657,D5,888.0,0.25,37,48.5
5658,F5,888.25,0.25,27,48.5
5659,F4,888.5,0.25,27,48.5
5660,A4,888.75,0.25,25,48.5
5661,D5,889.0,0.25,37,48.5
5662,F5,889.25,0.25,28,48.5
5663,F4,889.5,0.25,28,48.5
5664,A4,889.75,0.25,26,48.5
5665,C3,890.0,2.0,49,48.5
5666,D5,890.0,0.25,37,48.5
5667,F5,890.25,0.25,27,48.5
5668,F4,890.5,0.25,27,48.5
5669,B4,890.75,0.25,24,48.5
5670,D5,891.0,0.25,37,48.5
5671,F5,891.25,0.25,28,48.5
5672,F4,891.5,0.25,28,48.5
5673,B4,891.75,0.25,25,48.5
5674,D3,892.0,2.0,61,48.5
5675,D5,892.0,0.25,37,48.5
5676,F5,892.25,0.25,27,48.5
5677,F4,892.5,0.25,27,48.5
5678,B4,892.75,0.25,24,48.5
5679,D5,893.0,0.25,37,48.5
5680,F5,893.25,0.25,29,48.5
5681,F4,893.5,0.25,29,48.5
5682,B4,893.75,0.25,25,48.5
5683,E3,894.0,2.0,39,48.5
5684,C5,894.0,0.25,40,48.5
5685,E5,894.25,0.25,29,48.5
5686,E4,894.5,0.25,29,48.5
5687,G4,894.75,0.25,26,48.5
5688,C5,895.0,0.25,38,48.5
5689,E5,895.25,0.25,30,48.5
5690,E4,895.5,0.25,30,48.5
5691,G4,895.75,0.25,27,48.5
5692,F3,896.0,1.0,39,48.5
5693,C5,896.0,0.25,30,48.5
5694,E5,896.25,0.25,27,48.5
5695,E4,896.5,0.25,27,48.5
5696,G4,896.75,0.25,23,48.5
5697,C5,897.0,0.25,45,48.5
5698,E5,897.25,0.25,32,48.5
5699,E4,897.5,0.25,35,48.5
5700,G4,897.75,0.25,39,48.5
5701,B4,898.0,0.25,49,48.5
5702,F5,898.25,0.25,36,48.5
5703,F4,898.5,0.25,36,48.5
5704,G4,898.75,0.25,33,48.5
5705,F5,899.0,0.5,45,48.5
5706,B4,899.0,0.25,46,48.5
5707,F5,899.25,0.25,33,48.5
5708,F4,899.5,0.25,31,48.5
5709,E5,899.5,0.5,44,48.5
5710,G5,899.5,0.5,44,48.5
5711,G4,899.75,0.25,29,48.5
5712,B-4,900.0,0.25,37,48.5
5713,F5,900.0,1.0,46,48.5
5714,A5,900.0,1.0,46,48.5
5715,C5,900.25,0.25,27,48.5
5716,C4,900.5,0.25,27,48.5
5717,G4,900.75,0.25,25,48.5
5718,B-4,901.0,0.25,37,48.5
5719,C5,901.25,0.25,28,48.5
5720,C4,901.5,0.25,28,48.5
5721,G4,901.75,0.25,27,48.5
5722,A4,902.0,0.25,37,48.5
5723,C5,902.25,0.25,27,48.5
5724,C4,902.5,0.25,27,48.5
5725,A3,902.5,0.5,40,48.5
5726,C4,902.5,0.5,40,48.5
5727,F4,902.75,0.25,24,48.5
5728,A4,903.0,0.25,37,48.5
5729,G3,903.0,0.5,43,48.5
5730,C4,903.0,0.5,43,48.5
5731,C5,903.25,0.25,28,48.5
5732,C4,903.5,0.25,28,48.5
5733,C4,903.5,0.5,46,48.5
5734,F3,903.5,0.5,46,48.5
5735,F4,903.75,0.25,23,48.5
5736,A4,904.0,0.25,37,48.5
5737,C3,904.0,0.5,47,48.5
5738,C4,904.0,0.5,47,48.5
5739,C5,904.25,0.25,28,48.5
5740,C4,904.5,0.25,28,48.5
5741,F4,904.75,0.25,25,48.5
5742,A4,905.0,0.25,37,48.5
5743,C5,905.25,0.25,29,48.5
5744,G4,905.5,0.25,36,48.5
5745,C5,905.75,0.25,39,48.5
5746,A4,906.0,0.25,47,48.5
5747,C5,906.25,0.25,36,48.5
5748,C4,906.5,0.25,36,48.5
5749,F4,906.75,0.25,32,48.5
5750,A4,907.0,0.25,40,48.5
5751,G5,907.0,0.5,59,48.5
5752,B-5,907.0,0.5,59,48.5
5753,C5,907.25,0.25,36,48.5
5754,C4,907.5,0.25,36,48.5
5755,B-5,907.5,0.5,56,48.5
5756,D6,907.5,0.5,56,48.5
5757,F4,907.75,0.25,34,48.5
5758,A4,908.0,0.25,45,48.5
5759,A5,908.0,1.0,52,48.5
5760,C6,908.0,1.0,52,48.5
5761,C5,908.25,0.25,35,48.5
5762,A4,908.5,0.25,35,48.5
5763,F4,908.5,0.25,35,48.5
5764,C5,908.75,0.25,31,48.5
5765,E4,909.0,0.25,44,48.5
5766,B-4,909.0,0.25,44,48.5
5767,C5,909.25,0.25,29,48.5
5768,A4,909.5,0.25,31,48.5
5769,F4,909.5,0.25,31,48.5
5770,C5,909.75,0.25,28,48.5
5771,E4,910.0,0.25,37,48.5
5772,G4,910.0,0.25,37,48.5
5773,C5,910.25,0.25,29,48.5
5774,C4,910.5,0.25,29,48.5
5775,E4,910.75,0.25,25,48.5
5776,G4,911.0,0.25,37,48.5
5777,C4,911.0,0.5,49,48.5
5778,A3,911.0,0.5,49,48.5
5779,C5,911.25,0.25,29,48.5
5780,C4,911.5,0.25,29,48.5
5781,G3,911.5,0.5,43,48.5
5782,C4,911.5,0.5,43,48.5
5783,E4,911.75,0.25,27,48.5
5784,G4,912.0,0.25,37,48.5
5785,C4,912.0,0.5,46,48.5
5786,F3,912.0,0.5,46,48.5
5787,C5,912.25,0.25,29,48.5
5788,C4,912.5,0.25,29,48.5
5789,E4,912.75,0.25,26,48.5
5790,G4,913.0,0.25,42,48.5
5791,C5,913.25,0.25,31,48.5
5792,B-4,913.5,0.25,31,48.5
5793,C5,913.75,0.25,28,48.5
5794,A4,914.0,0.25,39,48.5
5795,C5,914.25,0.25,29,48.5
5796,C4,914.5,0.25,29,48.5
5797,F4,914.75,0.25,27,48.5
5798,A4,915.0,0.25,42,48.5
5799,F5,915.0,0.5,47,48.5
5800,A5,915.0,0.5,47,48.5
5801,C5,915.25,0.25,34,48.5
5802,C4,915.5,0.25,34,48.5
5803,G5,915.5,0.5,50,48.5
5804,B-5,915.5,0.5,50,48.5
5805,F4,915.75,0.25,30,48.5
5806,A4,916.0,0.25,41,48.5
5807,A5,916.0,1.0,52,48.5
5808,C6,916.0,1.0,52,48.5
5809,C5,916.25,0.25,33,48.5
5810,C4,916.5,0.25,33,48.5
5811,F4,916.75,0.25,30,48.5
5812,A4,917.0,0.25,37,48.5
5813,F4,917.0,0.25,37,48.5
5814,C5,917.25,0.25,29,48.5
5815,E4,917.5,0.25,29,48.5
5816,B-4,917.5,0.25,29,48.5
5817,C5,917.775,9/40,26,48.5
5818,A4,918.0,0.25,37,48.5
5819,F4,918.0,0.25,37,48.5
5820,C5,918.24,0.25,29,48.5
5821,F3,918.5,1.5,42,48.5
5822,C4,918.5,0.25,29,48.5
5823,C4,918.5,0.5,46,48.5
5824,A3,918.5,0.5,46,48.5
5825,F4,918.75,0.25,28,48.5
5826,A4,919.0,0.25,38,48.5
5827,D4,919.0,0.5,46,48.5
5828,B-3,919.0,0.5,46,48.5
5829,C5,919.25,0.25,30,48.5
5830,C4,919.5,0.25,31,48.5
5831,G3,919.5,0.5,50,48.5
5832,E4,919.5,0.5,50,48.5
5833,F4,919.75,0.25,29,48.5
5834,F3,920.0,0.5,42,48.5
5835,A4,920.0,0.25,40,48.5
5836,F4,920.0,0.5,54,48.5
5837,A3,920.0,0.5,54,48.5
5838,C5,920.25,0.25,32,48.5
5839,C4,920.5,0.25,32,48.5
5840,F4,920.75,0.25,29,48.5
5841,A4,921.0,0.25,42,48.5
5842,C5,921.25,0.25,33,48.5
5843,B-4,921.5,0.25,41,48.5
5844,C5,921.75,0.25,44,48.5
5845,A4,922.0,0.25,54,48.5
5846,C5,922.25,0.25,41,48.5
5847,C4,922.5,0.25,41,48.5
5848,A5,922.5,0.5,64,48.5
5849,F6,922.5,0.5,64,48.5
5850,F4,922.75,0.25,36,48.5
5851,A4,923.0,0.25,46,48.5
5852,C6,923.0,0.5,60,48.5
5853,E6,923.0,0.5,60,48.5
5854,C5,923.25,0.25,41,48.5
5855,C4,923.5,0.25,41,48.5
5856,B-5,923.5,0.5,58,48.5
5857,D6,923.5,0.5,58,48.5
5858,F4,923.75,0.25,40,48.5
5859,A4,924.0,0.25,51,48.5
5860,A5,924.0,1.0,60,48.5
5861,C6,924.0,1.0,60,48.5
5862,C5,924.25,0.25,44,48.5
5863,A4,924.5,0.25,46,48.5
5864,C5,924.75,0.25,44,48.5
5865,B-4,925.0,0.25,55,48.5
5866,D5,925.25,0.25,48,48.5
5867,G4,925.5,0.25,50,48.5
5868,E5,925.75,0.25,54,48.5
5869,A4,926.0,0.25,60,48.5
5870,F5,926.25,0.25,49,48.5
5871,F4,926.5,0.25,49,48.5
5872,C4,926.5,0.5,48,48.5
5873,A3,926.5,0.5,48,48.5
5874,A4,926.75,0.25,46,48.5
5875,C5,927.0,0.25,52,48.5
5876,G3,927.0,0.5,38,48.5
5877,B-3,927.0,0.5,38,48.5
5878,F5,927.25,0.25,42,48.5
5879,F4,927.5,0.25,42,48.5
5880,C3,927.5,0.5,36,48.5
5881,G3,927.5,0.5,36,48.5
5882,A4,927.75,0.25,38,48.5
5883,C5,928.0,0.25,58,48.5
5884,A3,928.0,0.5,44,48.5
5885,F3,928.0,0.5,44,48.5
5886,F5,928.25,0.25,45,48.5
5887,A4,928.5,0.25,45,48.5
5888,F5,928.75,0.25,40,48.5
5889,C5,929.0,0.25,56,48.5
5890,E5,929.25,0.25,41,48.5
5891,B-4,929.5,0.25,41,48.5
5892,D5,929.75,0.25,37,48.5
5893,A4,930.0,0.25,53,48.5
5894,C5,930.25,0.25,39,48.5
5895,C4,930.5,0.25,39,48.5
5896,F4,930.75,0.25,34,48.5
5897,A4,931.0,0.25,46,48.5
5898,A5,931.0,0.5,33,48.5
5899,F5,931.0,0.5,33,48.5
5900,C5,931.25,0.25,34,48.5
5901,C4,931.5,0.25,34,48.5
5902,B-5,931.5,0.5,35,48.5
5903,G5,931.5,0.5,35,48.5
5904,F4,931.75,0.25,31,48.5
5905,A4,932.0,0.25,40,48.5
5906,A5,932.0,1.0,38,48.5
5907,C6,932.0,1.0,38,48.5
5908,C5,932.25,0.25,31,48.5
5909,A4,932.5,0.25,31,48.5
5910,F4,932.5,0.25,31,48.5
5911,C5,932.75,0.25,30,48.5
5912,E4,933.0,0.25,43,48.5
5913,B-4,933.0,0.25,43,48.5
5914,C5,933.25,0.25,35,48.5
5915,G4,933.5,0.25,35,48.5
5916,E4,933.5,0.25,35,48.5
5917,C5,933.75,0.25,33,48.5
5918,A4,934.0,0.25,36,48.5
5919,F4,934.0,0.25,36,48.5
5920,C5,934.25,0.25,30,48.5
5921,F3,934.5,1.5,25,48.5
5922,C4,934.5,0.25,30,48.5
5923,A3,934.5,0.5,28,48.5
5924,C4,934.5,0.5,28,48.5
5925,F4,934.75,0.25,26,48.5
5926,A4,935.0,0.25,30,48.5
5927,B-3,935.0,0.5,30,48.5
5928,D4,935.0,0.5,30,48.5
5929,C5,935.25,0.25,33,48.5
5930,C4,935.5,0.25,33,48.5
5931,E4,935.5,0.5,31,48.5
5932,G3,935.5,0.5,31,48.5
5933,F4,935.75,0.25,33,48.5
5934,F3,936.0,0.5,25,48.5
5935,A4,936.0,0.25,45,48.5
5936,F4,936.0,0.5,40,48.5
5937,A3,936.0,0.5,40,48.5
5938,C5,936.25,0.25,31,48.5
5939,C4,936.5,0.25,31,48.5
5940,F4,936.75,0.25,27,48.5
5941,A4,937.0,0.25,25,48.5
5942,C5,937.25,0.25,19,48.5
5943,B-4,937.5,0.25,24,48.5
5944,C5,937.75,0.25,26,48.5
5945,A4,938.0,0.25,32,48.5
5946,C5,938.25,0.25,24,48.5
5947,C4,938.5,0.25,24,48.5
5948,A5,938.5,0.5,38,48.5
5949,F6,938.5,0.5,38,48.5
5950,F4,938.75,0.25,24,48.5
5951,A4,939.0,0.25,27,48.5
5952,E6,939.0,0.5,36,48.5
5953,C6,939.0,0.5,36,48.5
5954,C5,939.25,0.25,24,48.5
5955,C4,939.5,0.25,24,48.5
5956,B-5,939.5,0.5,33,48.5
5957,D6,939.5,0.5,33,48.5
5958,F4,939.75,0.25,24,48.5
5959,A4,940.0,0.25,30,48.5
5960,C6,940.0,1.0,38,48.5
5961,A5,940.0,1.0,38,48.5
5962,C5,940.25,0.25,26,48.5
5963,A4,940.5,0.25,27,48.5
5964,C5,940.75,0.25,28,48.5
5965,B-4,941.0,0.25,33,48.5
5966,D5,941.25,0.25,28,48.5
5967,G4,941.5,0.25,30,48.5
5968,E5,941.75,0.25,32,48.5
5969,A4,942.0,0.25,36,48.5
5970,F5,942.25,0.25,29,48.5
5971,F4,942.5,0.25,29,48.5
5972,A3,942.5,0.5,37,48.5
5973,C4,942.5,0.5,37,48.5
5974,A4,942.75,0.25,27,48.5
5975,C5,943.0,0.25,31,48.5
5976,G3,943.0,0.5,30,48.5
5977,B-3,943.0,0.5,30,48.5
5978,F5,943.25,0.25,25,48.5
5979,F4,943.5,0.25,25,48.5
5980,C3,943.5,0.5,30,48.5
5981,G3,943.5,0.5,30,48.5
5982,A4,943.75,0.25,25,48.5
5983,C5,944.0,0.25,34,48.5
5984,F3,944.0,0.5,34,48.5
5985,A3,944.0,0.5,34,48.5
5986,F5,944.25,0.25,24,48.5
5987,A4,944.5,0.25,24,48.5
5988,F5,944.75,0.25,21,48.5
5989,C5,945.0,0.25,33,48.5
5990,E5,945.25,0.25,24,48.5
5991,B-4,945.5,0.25,24,48.5
5992,D5,945.75,0.25,23,48.5
5993,A4,946.0,0.25,31,48.5
5994,C5,946.25,0.25,24,48.5
5995,C4,946.5,0.25,24,48.5
5996,C4,946.5,0.5,37,48.5
5997,A3,946.5,0.5,37,48.5
5998,F4,946.75,0.25,24,48.5
5999,A4,947.0,0.25,28,48.5
6000,G3,947.0,0.5,30,48.5
6001,B-3,947.0,0.5,30,48.5
6002,C5,947.25,0.25,22,48.5
6003,C4,947.5,0.25,22,48.5
6004,G3,947.5,0.5,30,48.5
6005,C3,947.5,0.5,30,48.5
6006,F4,947.75,0.25,22,48.5
6007,A4,948.0,0.25,27,48.5
6008,A3,948.0,0.5,34,48.5
6009,F3,948.0,0.5,34,48.5
6010,C5,948.25,0.25,21,48.5
6011,A4,948.5,0.25,21,48.5
6012,F4,948.5,0.25,21,48.5
6013,C5,948.75,0.25,21,48.5
6014,B-4,949.0,0.25,33,48.5
6015,E4,949.0,0.25,33,48.5
6016,C5,949.25,0.25,24,48.5
6017,E4,949.5,0.25,24,48.5
6018,G4,949.5,0.25,24,48.5
6019,C5,949.75,0.25,22,48.5
6020,F4,950.0,0.25,31,48.5
6021,A4,950.0,0.25,31,48.5
6022,C5,950.25,0.25,25,48.5
6023,C4,950.5,0.25,25,48.5
6024,C4,950.5,0.5,32,48.5
6025,A3,950.5,0.5,32,48.5
6026,F4,950.75,0.25,24,48.5
6027,A4,951.0,0.25,28,48.5
6028,B-3,951.0,0.5,26,48.5
6029,G3,951.0,0.5,26,48.5
6030,C5,951.25,0.25,22,48.5
6031,C4,951.5,0.25,22,48.5
6032,C3,951.5,0.5,25,48.5
6033,G3,951.5,0.5,25,48.5
6034,F4,951.75,0.25,22,48.5
6035,A4,952.0,0.25,27,48.5
6036,A2,952.0,0.5,26,48.5
6037,F2,952.0,0.5,26,48.5
6038,F3,952.0,0.5,26,48.5
6039,C5,952.25,0.25,21,48.5
6040,F4,952.5,0.25,21,48.5
6041,A4,952.5,0.25,21,48.5
6042,C5,952.75,0.25,21,48.5
6043,B-4,953.0,0.25,33,48.5
6044,E4,953.0,0.25,33,48.5
6045,C5,953.25,0.25,24,48.5
6046,G4,953.5,0.25,24,48.5
6047,E4,953.5,0.25,24,48.5
6048,C5,953.75,0.25,23,48.5
6049,A4,954.0,0.25,31,48.5
6050,F4,954.0,0.25,31,48.5
6051,C5,954.25,0.25,24,48.5
6052,C4,954.5,0.25,24,48.5
6053,F4,954.75,0.25,25,48.5
6054,A4,955.0,0.25,26,48.5
6055,C5,955.25,0.25,20,48.5
6056,C4,955.5,0.25,20,48.5
6057,F4,955.75,0.25,20,48.5
6058,F4,956.0,0.25,47,48.5
6059,A4,956.0,0.25,24,48.5
6060,G#4,956.25,0.25,39,48.5
6061,C5,956.25,0.25,18,48.5
6062,G#3,956.5,0.25,39,48.5
6063,F4,956.5,0.25,18,48.5
6064,A4,956.5,0.25,18,48.5
6065,C4,956.75,0.25,43,48.5
6066,C5,956.75,0.25,18,48.5
6067,F4,957.0,0.25,54,48.5
6068,B-4,957.0,0.25,28,48.5
6069,E4,957.0,0.25,28,48.5
6070,G#4,957.25,0.25,45,48.5
6071,C5,957.25,0.25,20,48.5
6072,G#3,957.5,0.25,45,48.5
6073,G4,957.5,0.25,19,48.5
6074,E4,957.5,0.25,19,48.5
6075,C4,957.75,0.25,48,48.5
6076,C5,957.75,0.25,19,48.5
6077,F4,958.0,0.25,64,48.5
6078,F4,958.0,0.25,30,48.5
6079,G#4,958.25,0.25,50,48.5
6080,A4,958.25,0.25,22,48.5
6081,G#3,958.5,0.25,52,48.5
6082,A3,958.5,0.25,22,48.5
6083,C4,958.75,0.25,55,48.5
6084,C4,958.75,0.25,20,48.5
6085,G#4,959.0,0.25,69,48.5
6086,F4,959.0,0.25,33,48.5
6087,C5,959.25,0.25,59,48.5
6088,A4,959.25,0.25,25,48.5
6089,C4,959.5,0.25,61,48.5
6090,A3,959.5,0.25,25,48.5
6091,F4,959.75,0.25,63,48.5
6092,C4,959.75,0.25,24,48.5
6093,C4,960.0,83/1000,55,48.5
6094,F4,960.0,0.25,37,48.5
6095,F4,960.083,83/1000,60,48.5
6096,G#4,960.167,83/1000,66,48.5
6097,C5,960.25,1.5,77,48.5
6098,A4,960.25,0.25,26,48.5
6099,A3,960.5,0.25,26,48.5
6100,C4,960.75,0.25,25,48.5
6101,F4,961.0,0.25,36,48.5
6102,A4,961.25,0.25,27,48.5
6103,A3,961.5,0.25,28,48.5
6104,B-4,961.75,0.25,47,48.5
6105,C4,961.75,0.25,28,48.5
6106,G#4,962.0,0.75,60,48.5
6107,E2,962.5,0.5,39,48.5
6108,B-4,962.75,0.25,54,48.5
6109,G4,963.0,0.75,60,48.5
6110,F2,963.0,0.5,40,48.5
6111,G#2,963.5,0.5,42,48.5
6112,G#4,963.75,0.25,51,48.5
6113,F4,964.0,0.25,60,48.5
6114,B2,964.0,0.5,43,48.5
6115,G4,964.25,0.125,48,48.5
6116,F4,964.375,0.125,48,48.5
6117,E4,964.5,0.125,48,48.5
6118,C3,964.5,0.5,44,48.5
6119,F4,964.625,0.125,45,48.5
6120,F#4,964.75,0.25,45,48.5
6121,E-4,965.0,0.25,62,48.5
6122,F3,965.0,0.5,46,48.5
6123,F4,965.25,0.125,49,48.5
6124,E-4,965.375,0.125,49,48.5
6125,D4,965.5,0.125,49,48.5
6126,G3,965.5,0.5,47,48.5
6127,E-4,965.625,0.125,44,48.5
6128,F4,965.75,0.25,47,48.5
6129,C#4,966.0,0.25,60,48.5
6130,G#3,966.0,3.0,51,48.5
6131,C3,966.0,4.0,51,48.5
6132,F2,966.0,4.0,43,48.5
6133,E-4,966.25,0.125,49,48.5
6134,C#4,966.375,0.125,49,48.5
6135,C4,966.5,0.125,49,48.5
6136,C#4,966.625,0.125,46,48.5
6137,E-4,966.75,0.25,46,48.5
6138,C4,967.0,0.25,60,48.5
6139,C#4,967.25,0.125,50,48.5
6140,C4,967.375,0.125,50,48.5
6141,B3,967.5,0.125,50,48.5
6142,C4,967.625,0.125,46,48.5
6143,C#4,967.75,0.25,46,48.5
6144,B-3,968.0,0.25,60,48.5
6145,C#4,968.25,0.25,52,48.5
6146,B-3,968.5,0.25,52,48.5
6147,C#4,968.75,0.25,53,48.5
6148,G#3,969.0,0.25,63,48.5
6149,E3,969.0,1.0,40,48.5
6150,G2,969.0,1.0,40,48.5
6151,C#4,969.25,0.25,56,48.5
6152,G#3,969.5,0.25,57,48.5
6153,C#4,969.75,0.25,60,48.5
6154,F#3,970.0,0.25,68,48.5
6155,G#2,970.0,1.0,43,48.5
6156,F3,970.0,4.0,43,48.5
6157,F2,970.0,4.5,43,48.5
6158,C#4,970.25,0.25,62,48.5
6159,F#3,970.5,0.25,63,48.5
6160,C#4,970.75,0.25,59,48.5
6161,F3,971.0,0.25,72,48.5
6162,A2,971.0,1.0,39,48.5
6163,C#4,971.25,0.25,65,48.5
6164,F3,971.5,0.25,67,48.5
6165,C#4,971.75,0.25,67,48.5
6166,E3,972.0,0.5,90,48.5
6167,G2,972.0,1.0,43,48.5
6168,A2,973.0,1.0,40,48.5
6169,G4,973.0,0.5,80,48.5
6170,B-4,973.0,0.5,80,48.5
6171,C#5,973.0,0.5,80,48.5
6172,C#3,974.5,0.5,44,48.5
6173,F3,974.5,0.5,43,48.5
6174,C5,975.0,83/1000,41,48.5
6175,C#3,975.0,0.25,34,48.5
6176,F3,975.0,0.25,34,48.5
6177,C#5,975.083,83/1000,41,48.5
6178,E-5,975.167,83/1000,36,48.5
6179,C#5,975.25,0.5,47,48.5
6180,C3,975.5,0.25,36,48.5
6181,E-3,975.5,0.25,36,48.5
6182,C5,975.75,0.25,41,48.5
6183,C5,976.0,333/1000,46,48.5
6184,C3,976.0,0.25,40,48.5
6185,E-3,976.0,0.25,40,48.5
6186,G#5,976.333,333/1000,53,48.5
6187,C#3,976.5,0.25,43,48.5
6188,B-2,976.5,0.25,43,48.5
6189,G5,976.667,333/1000,47,48.5
6190,F5,977.0,333/1000,47,48.5
6191,B-2,977.0,0.25,47,48.5
6192,C#3,977.0,0.25,47,48.5
6193,C5,977.333,333/1000,43,48.5
6194,G#2,977.5,0.25,50,48.5
6195,C3,977.5,0.25,50,48.5
6196,G#4,977.667,333/1000,43,48.5
6197,G4,978.0,333/1000,47,48.5
6198,C3,978.0,0.25,54,48.5
6199,G#2,978.0,0.25,54,48.5
6200,E-5,978.333,333/1000,52,48.5
6201,G2,978.5,0.5,59,48.5
6202,B-2,978.5,0.5,59,48.5
6203,C5,978.667,333/1000,39,48.5
6204,C#5,979.0,333/1000,44,48.5
6205,B-4,979.333,333/1000,38,48.5
6206,E3,979.5,0.5,58,48.5
6207,B-3,979.5,0.5,58,48.5
6208,C#4,979.5,0.5,58,48.5
6209,G3,979.5,0.5,58,48.5
6210,G4,979.667,333/1000,37,48.5
6211,F4,980.0,2.0,44,48.5
6212,G#3,980.333,333/1000,36,48.5
6213,B-3,980.667,333/1000,37,48.5
6214,C4,981.0,333/1000,38,48.5
6215,B-3,981.333,333/1000,36,48.5
6216,G#3,981.667,333/1000,34,48.5
6217,C#4,982.0,1.0,32,48.5
6218,E4,982.0,2.0,32,48.5
6219,F3,982.5,1.0,32,48.5
6220,G#3,982.5,1.0,32,48.5
6221,C4,983.0,0.5,44,48.5
6222,B-3,983.5,0.5,40,48.5
6223,F4,984.0,2.0,38,48.5
6224,G#3,984.333,333/1000,28,48.5
6225,C#3,984.5,1.0,29,48.5
6226,B-2,984.5,1.0,29,48.5
6227,G3,984.5,1.0,29,48.5
6228,B-3,984.667,333/1000,31,48.5
6229,C4,985.0,333/1000,31,48.5
6230,B-3,985.333,333/1000,29,48.5
6231,G#3,985.667,333/1000,27,48.5
6232,E4,986.0,2.0,25,48.5
6233,C#4,986.0,1.0,25,48.5
6234,C3,986.5,2.0,41,48.5
6235,F3,986.833,333/1000,32,48.5
6236,C4,987.0,0.5,35,48.5
6237,G3,987.167,333/1000,33,48.5
6238,B-3,987.5,0.5,29,48.5
6239,G#3,987.5,333/1000,35,48.5
6240,G3,987.833,333/1000,34,48.5
6241,G#3,988.0,1.0,28,48.5
6242,F4,988.0,1.0,28,48.5
6243,F3,988.169,333/1000,30,48.5
6244,C3,988.5,2.0,40,48.5
6245,B-3,988.508,1.0,40,48.5
6246,G#3,989.5,0.5,35,48.5
6247,G3,990.0,0.5,35,48.5
6248,G#3,990.0,1.0,27,48.5
6249,F4,990.0,1.0,27,48.5
6250,C4,990.0,1.0,27,48.5
6251,C3,990.5,2.0,38,48.5
6252,F3,990.833,333/1000,25,48.5
6253,G3,991.167,333/1000,27,48.5
6254,G#3,991.5,333/1000,29,48.5
6255,G3,991.833,333/1000,29,48.5
6256,G#3,992.0,2.0,25,48.5
6257,C4,992.0,2.0,25,48.5
6258,F4,992.0,2.0,25,48.5
6259,F3,992.169,333/1000,28,48.5
6260,C3,992.5,2.0,35,48.5
6261,B-3,992.508,1.0,35,48.5
6262,G#3,993.5,0.5,30,48.5
6263,G3,994.0,0.5,29,48.5
6264,F2,994.5,1.0,24,48.5
6265,F3,994.5,1.0,24,48.5
6266,F2,996.5,1.0,24,48.5
6267,C3,996.5,1.0,24,48.5
6268,F3,996.5,1.0,24,48.5
6269,C3,998.5,2.0,23,48.5
6270,F3,998.5,2.0,23,48.5
6271,F2,998.5,2.0,23,48.5
