,note_name,start_time,duration,velocity,tempo
0,G4,1.75,0.25,50,150.19
1,C5,1.833,83/1000,41,150.19
2,G2,1.875,0.125,48,150.19
3,D5,1.917,83/1000,41,150.19
4,C3,1.938,0.062,54,150.19
5,E-5,2.0,0.25,72,150.19
6,A3,2.0,0.5,60,150.19
7,G2,2.0,0.5,48,150.19
8,C3,2.0,0.5,54,150.19
9,F#4,2.25,0.25,47,150.19
10,C5,2.5,0.25,50,150.19
11,E-5,2.75,0.25,50,150.19
12,G2,2.875,0.625,55,150.19
13,D3,2.938,0.562,59,150.19
14,D5,3.0,0.25,71,150.19
15,B3,3.0,0.5,63,150.19
16,F4,3.25,0.25,45,150.19
17,B4,3.5,0.25,50,150.19
18,D5,3.75,0.25,50,150.19
19,G2,3.875,0.125,51,150.19
20,E-3,3.938,0.062,54,150.19
21,C5,4.0,0.25,71,150.19
22,C4,4.0,0.5,58,150.19
23,G2,4.0,0.5,51,150.19
24,E-3,4.0,0.5,54,150.19
25,A4,4.25,0.25,46,150.19
26,F#4,4.5,0.25,50,150.19
27,E-4,4.75,0.25,50,150.19
28,C4,5.0,0.25,52,150.19
29,A3,5.25,0.25,51,150.19
30,F#3,5.5,0.25,50,150.19
31,G4,5.75,0.25,50,150.19
32,E-3,5.75,0.25,50,150.19
33,C5,5.833,83/1000,41,150.19
34,D5,5.917,83/1000,41,150.19
35,E-5,6.0,0.25,72,150.19
36,G2,6.0,0.5,53,150.19
37,C3,6.0,0.5,53,150.19
38,A3,6.0,0.5,53,150.19
39,F#4,6.25,0.25,47,150.19
40,C5,6.5,0.25,50,150.19
41,E-5,6.75,0.25,50,150.19
42,D5,7.0,0.25,71,150.19
43,G2,7.0,0.5,55,150.19
44,D3,7.0,0.5,55,150.19
45,B3,7.0,0.5,55,150.19
46,F4,7.25,0.25,45,150.19
47,B4,7.5,0.25,50,150.19
48,D5,7.75,0.25,50,150.19
49,C5,8.0,0.25,71,150.19
50,G2,8.0,0.5,51,150.19
51,E-3,8.0,0.5,51,150.19
52,C4,8.0,0.5,51,150.19
53,A4,8.25,0.25,46,150.19
54,F#4,8.5,0.25,50,150.19
55,E-4,8.75,0.25,50,150.19
56,C4,9.0,0.25,52,150.19
57,A3,9.25,0.25,51,150.19
58,F#3,9.5,0.25,50,150.19
59,E-4,9.75,0.25,50,150.19
60,E-3,9.75,0.25,50,150.19
61,G4,9.833,83/1000,41,150.19
62,G2,9.875,0.125,40,150.19
63,G#4,9.917,83/1000,41,150.19
64,B-4,10.0,0.25,71,150.19
65,E3,10.0,0.875,58,150.19
66,G2,10.0,0.875,40,150.19
67,C#4,10.25,0.25,42,150.19
68,G4,10.5,0.25,47,150.19
69,B-4,10.75,0.25,40,150.19
70,G2,10.875,1.0,43,150.19
71,G#4,11.0,0.25,66,150.19
72,F3,11.0,0.875,63,150.19
73,C4,11.25,0.25,40,150.19
74,F4,11.5,0.25,46,150.19
75,G#4,11.75,0.25,42,150.19
76,G2,11.875,0.125,39,150.19
77,G4,12.0,0.25,66,150.19
78,G3,12.0,1.0,48,150.19
79,G2,12.0,1.0,39,150.19
80,E4,12.25,0.25,40,150.19
81,C#4,12.5,0.25,45,150.19
82,B-3,12.75,0.25,40,150.19
83,G3,13.0,1/5,52,150.19
84,E3,13.2,1/5,51,150.19
85,C#3,13.4,1/5,50,150.19
86,B-2,13.6,1/5,50,150.19
87,B-3,13.75,0.25,50,150.19
88,G2,13.8,1/5,50,150.19
89,C#4,13.833,83/1000,41,150.19
90,E4,13.917,83/1000,41,150.19
91,F4,14.0,0.25,67,150.19
92,G1,14.0,1.0,63,150.19
93,G2,14.0,1.0,63,150.19
94,G#3,14.25,0.25,42,150.19
95,C4,14.5,0.25,47,150.19
96,F4,14.75,0.25,40,150.19
97,D4,15.0,0.25,66,150.19
98,G1,15.0,1.0,65,150.19
99,G2,15.0,1.0,65,150.19
100,F3,15.25,0.25,40,150.19
101,B3,15.5,0.25,46,150.19
102,D4,15.75,0.25,42,150.19
103,C4,16.0,1/5,66,150.19
104,C2,16.0,1.0,54,150.19
105,G2,16.0,0.75,67,150.19
106,G3,16.2,1/5,40,150.19
107,E-3,16.4,1/5,45,150.19
108,C3,16.6,1/5,40,150.19
109,G2,16.8,1/5,40,150.19
110,C2,17.0,1.0,78,150.19
111,G4,17.75,0.25,50,150.19
112,C5,17.833,83/1000,41,150.19
113,G2,17.875,0.125,57,150.19
114,D5,17.917,83/1000,41,150.19
115,C3,17.938,0.062,60,150.19
116,E-5,18.0,0.25,72,150.19
117,A3,18.0,0.5,64,150.19
118,G2,18.0,0.5,57,150.19
119,C3,18.0,0.5,60,150.19
120,F#4,18.25,0.25,47,150.19
121,C5,18.5,0.25,50,150.19
122,E-5,18.75,0.25,50,150.19
123,G2,18.875,0.625,55,150.19
124,D3,18.938,0.562,58,150.19
125,D5,19.0,0.25,71,150.19
126,B3,19.0,0.5,60,150.19
127,F4,19.25,0.25,45,150.19
128,B4,19.5,0.25,50,150.19
129,D5,19.75,0.25,50,150.19
130,G2,19.875,0.125,55,150.19
131,E-3,19.938,0.062,59,150.19
132,C5,20.0,0.25,71,150.19
133,C4,20.0,0.5,63,150.19
134,G2,20.0,0.5,55,150.19
135,E-3,20.0,0.5,59,150.19
136,A4,20.25,0.25,46,150.19
137,F#4,20.5,0.25,50,150.19
138,E-4,20.75,0.25,50,150.19
139,C4,21.0,0.25,52,150.19
140,A3,21.25,0.25,51,150.19
141,F#3,21.5,0.25,50,150.19
142,G4,21.75,0.25,50,150.19
143,E-3,21.75,0.25,50,150.19
144,C5,21.833,83/1000,41,150.19
145,D5,21.917,83/1000,41,150.19
146,E-5,22.0,0.25,72,150.19
147,G2,22.0,0.5,53,150.19
148,C3,22.0,0.5,53,150.19
149,A3,22.0,0.5,53,150.19
150,F#4,22.25,0.25,47,150.19
151,C5,22.5,0.25,50,150.19
152,E-5,22.75,0.25,50,150.19
153,D5,23.0,0.25,71,150.19
154,G2,23.0,0.5,55,150.19
155,D3,23.0,0.5,55,150.19
156,B3,23.0,0.5,55,150.19
157,F4,23.25,0.25,45,150.19
158,B4,23.5,0.25,50,150.19
159,D5,23.75,0.25,50,150.19
160,C5,24.0,0.25,71,150.19
161,G2,24.0,0.5,51,150.19
162,E-3,24.0,0.5,51,150.19
163,C4,24.0,0.5,51,150.19
164,A4,24.25,0.25,46,150.19
165,F#4,24.5,0.25,50,150.19
166,E-4,24.75,0.25,50,150.19
167,C4,25.0,0.25,52,150.19
168,A3,25.25,0.25,51,150.19
169,F#3,25.5,0.25,50,150.19
170,E-4,25.75,0.25,50,150.19
171,E-3,25.75,0.25,50,150.19
172,G4,25.833,83/1000,41,150.19
173,G2,25.875,0.125,40,150.19
174,G#4,25.917,83/1000,41,150.19
175,B-4,26.0,0.25,71,150.19
176,E3,26.0,0.875,50,150.19
177,G2,26.0,0.875,40,150.19
178,C#4,26.25,0.25,42,150.19
179,G4,26.5,0.25,47,150.19
180,B-4,26.75,0.25,40,150.19
181,G2,26.875,1.0,43,150.19
182,G#4,27.0,0.25,66,150.19
183,F3,27.0,0.875,50,150.19
184,C4,27.25,0.25,40,150.19
185,F4,27.5,0.25,46,150.19
186,G#4,27.75,0.25,42,150.19
187,G2,27.875,0.125,39,150.19
188,G4,28.0,0.25,66,150.19
189,G3,28.0,1.0,48,150.19
190,G2,28.0,1.0,39,150.19
191,E4,28.25,0.25,40,150.19
192,C#4,28.5,0.25,45,150.19
193,B-3,28.75,0.25,40,150.19
194,G3,29.0,1/5,52,150.19
195,E3,29.2,1/5,51,150.19
196,C#3,29.4,1/5,50,150.19
197,B-2,29.6,1/5,50,150.19
198,B-3,29.75,0.25,50,150.19
199,G2,29.8,1/5,50,150.19
200,C#4,29.833,83/1000,41,150.19
201,E4,29.917,83/1000,41,150.19
202,F4,30.0,0.25,67,150.19
203,G1,30.0,1.0,63,150.19
204,G2,30.0,1.0,63,150.19
205,G#3,30.25,0.25,42,150.19
206,C4,30.5,0.25,47,150.19
207,F4,30.75,0.25,40,150.19
208,D4,31.0,0.25,66,150.19
209,G1,31.0,1.0,65,150.19
210,G2,31.0,1.0,65,150.19
211,F3,31.25,0.25,40,150.19
212,B3,31.5,0.25,46,150.19
213,D4,31.75,0.25,42,150.19
214,C4,32.0,1/5,66,150.19
215,C2,32.0,1.0,54,150.19
216,G2,32.0,0.75,67,150.19
217,G3,32.2,1/5,40,150.19
218,E-3,32.4,1/5,45,150.19
219,C3,32.6,1/5,40,150.19
220,G2,32.8,1/5,40,150.19
221,C2,33.0,1.0,80,150.19
222,D4,33.5,0.25,59,150.19
223,E-4,33.75,0.25,43,150.19
224,D4,34.0,1.5,67,150.19
225,G2,34.0,1.0,52,150.19
226,B-3,34.25,0.25,41,150.19
227,A3,34.5,0.25,46,150.19
228,G3,34.75,0.25,39,150.19
229,D3,35.0,1.0,42,150.19
230,D4,35.5,0.25,57,150.19
231,G4,35.5,0.375,57,150.19
232,E-4,35.75,0.25,46,150.19
233,D4,36.0,0.25,70,150.19
234,F#4,36.0,1.5,70,150.19
235,D2,36.0,1.0,51,150.19
236,C4,36.25,0.25,44,150.19
237,B-3,36.5,0.25,45,150.19
238,A3,36.75,0.25,45,150.19
239,D3,37.0,1.0,43,150.19
240,D4,37.5,0.375,62,150.19
241,E-4,37.75,0.25,45,150.19
242,D4,38.0,1.5,72,150.19
243,G2,38.0,1.0,52,150.19
244,B-3,38.25,0.25,41,150.19
245,A3,38.5,0.25,46,150.19
246,G3,38.75,0.25,39,150.19
247,D3,39.0,1.0,42,150.19
248,D4,39.5,0.25,53,150.19
249,G4,39.5,0.375,53,150.19
250,E-4,39.75,0.25,46,150.19
251,D4,40.0,0.25,69,150.19
252,F#4,40.0,1.5,69,150.19
253,D2,40.0,1.0,51,150.19
254,C4,40.25,0.25,44,150.19
255,B-3,40.5,0.25,45,150.19
256,A3,40.75,0.25,45,150.19
257,D3,41.0,1.0,43,150.19
258,D4,41.5,0.5,57,150.19
259,E-4,41.75,0.25,45,150.19
260,D4,42.0,1.0,68,150.19
261,G2,42.0,1.0,69,150.19
262,B-3,42.25,0.25,41,150.19
263,A3,42.5,0.25,46,150.19
264,G3,42.75,0.25,39,150.19
265,B-4,43.0,0.5,69,150.19
266,D3,43.0,1.0,42,150.19
267,E-4,43.5,0.5,53,150.19
268,F4,43.75,0.25,46,150.19
269,E-4,44.0,1.0,70,150.19
270,C2,44.0,1.0,72,150.19
271,B-3,44.25,0.25,41,150.19
272,A3,44.5,0.25,46,150.19
273,G3,44.75,0.25,39,150.19
274,E-5,45.0,0.5,76,150.19
275,C3,45.0,1.0,42,150.19
276,E-4,45.5,0.5,53,150.19
277,F4,45.75,0.25,46,150.19
278,E-4,46.0,1.0,70,150.19
279,F2,46.0,1.0,75,150.19
280,A3,46.25,0.25,41,150.19
281,G3,46.5,0.25,46,150.19
282,F3,46.75,0.25,39,150.19
283,A4,47.0,0.5,73,150.19
284,C3,47.0,1.0,42,150.19
285,D4,47.5,0.5,53,150.19
286,E-4,47.75,0.25,46,150.19
287,D4,48.0,1.0,70,150.19
288,B-1,48.0,1.0,80,150.19
289,A3,48.25,0.25,41,150.19
290,G3,48.5,0.25,46,150.19
291,F3,48.75,0.25,39,150.19
292,D5,49.0,0.5,76,150.19
293,B-2,49.0,1.0,42,150.19
294,D4,49.5,0.5,53,150.19
295,E-4,49.75,0.25,46,150.19
296,D4,50.0,1.0,70,150.19
297,E-2,50.0,1.0,72,150.19
298,G3,50.25,0.25,41,150.19
299,F3,50.5,0.25,46,150.19
300,E-3,50.75,0.25,39,150.19
301,G4,51.0,0.5,73,150.19
302,B-2,51.0,1.0,42,150.19
303,C4,51.5,0.5,53,150.19
304,D4,51.75,0.25,46,150.19
305,C4,52.0,1.0,70,150.19
306,A1,52.0,1.0,71,150.19
307,G3,52.25,0.25,41,150.19
308,F3,52.5,0.25,46,150.19
309,E-3,52.75,0.25,39,150.19
310,C5,53.0,0.5,76,150.19
311,A2,53.0,1.0,42,150.19
312,C4,53.5,0.5,53,150.19
313,D4,53.75,0.25,46,150.19
314,C4,54.0,1.0,70,150.19
315,D2,54.0,1.0,67,150.19
316,F#3,54.25,0.25,41,150.19
317,E3,54.5,0.25,46,150.19
318,D3,54.75,0.25,39,150.19
319,F#4,55.0,0.5,73,150.19
320,A2,55.0,1.0,42,150.19
321,C5,55.5,0.5,53,150.19
322,D5,55.75,0.25,46,150.19
323,C5,56.0,1.0,70,150.19
324,D2,56.0,1.0,68,150.19
325,F#4,56.25,0.25,41,150.19
326,E4,56.5,0.25,46,150.19
327,D4,56.75,0.25,39,150.19
328,F#5,57.0,0.5,73,150.19
329,A3,57.0,1.0,42,150.19
330,D5,57.5,0.375,64,150.19
331,E-5,57.75,0.25,47,150.19
332,D5,58.0,1.5,73,150.19
333,G2,58.0,1.0,52,150.19
334,G3,58.0,1.0,52,150.19
335,B-4,58.25,0.25,45,150.19
336,A4,58.5,0.25,50,150.19
337,G4,58.75,0.25,42,150.19
338,D4,59.0,1.0,42,150.19
339,D5,59.5,0.25,62,150.19
340,G5,59.5,0.375,62,150.19
341,E-5,59.75,0.25,50,150.19
342,D5,60.0,0.25,77,150.19
343,F#5,60.0,1.5,77,150.19
344,D4,60.0,1.0,51,150.19
345,D3,60.0,1.0,51,150.19
346,C5,60.25,0.25,48,150.19
347,B-4,60.5,0.25,49,150.19
348,A4,60.75,0.25,49,150.19
349,D4,61.0,1.0,43,150.19
350,D5,61.5,0.375,68,150.19
351,E-5,61.75,0.25,49,150.19
352,D5,62.0,1.5,79,150.19
353,G4,62.0,1.0,52,150.19
354,G3,62.0,1.0,52,150.19
355,B-4,62.25,0.25,45,150.19
356,A4,62.5,0.25,50,150.19
357,G4,62.75,0.25,42,150.19
358,D4,63.0,1.0,42,150.19
359,D5,63.5,0.25,58,150.19
360,G5,63.5,0.375,58,150.19
361,E-5,63.75,0.25,50,150.19
362,D5,64.0,0.25,75,150.19
363,F#5,64.0,1.5,75,150.19
364,D4,64.0,1.0,51,150.19
365,D3,64.0,1.0,51,150.19
366,C5,64.25,0.25,48,150.19
367,B-4,64.5,0.25,49,150.19
368,A4,64.75,0.25,49,150.19
369,D4,65.0,1.0,43,150.19
370,D5,65.5,0.5,62,150.19
371,E-5,65.75,0.25,49,150.19
372,D5,66.0,1.0,74,150.19
373,G2,66.0,1.0,62,150.19
374,G3,66.0,1.0,62,150.19
375,B-4,66.25,0.25,45,150.19
376,A4,66.5,0.25,50,150.19
377,G4,66.75,0.25,42,150.19
378,B-5,67.0,0.5,75,150.19
379,D4,67.0,1.0,42,150.19
380,E-5,67.5,0.5,58,150.19
381,F5,67.75,0.25,50,150.19
382,E-5,68.0,1.0,77,150.19
383,C3,68.0,1.0,62,150.19
384,B-4,68.25,0.25,45,150.19
385,A4,68.5,0.25,50,150.19
386,G4,68.75,0.25,42,150.19
387,E-6,69.0,0.5,83,150.19
388,C4,69.0,1.0,42,150.19
389,E-5,69.5,0.5,58,150.19
390,F5,69.75,0.25,50,150.19
391,E-5,70.0,1.0,77,150.19
392,F2,70.0,1.0,62,150.19
393,A4,70.25,0.25,45,150.19
394,G4,70.5,0.25,50,150.19
395,F4,70.75,0.25,42,150.19
396,A5,71.0,0.5,65,150.19
397,C4,71.0,1.0,42,150.19
398,D5,71.5,0.5,58,150.19
399,E-5,71.75,0.25,50,150.19
400,D5,72.0,1.0,77,150.19
401,B-2,72.0,1.0,62,150.19
402,A4,72.25,0.25,45,150.19
403,G4,72.5,0.25,50,150.19
404,F4,72.75,0.25,42,150.19
405,D6,73.0,0.5,80,150.19
406,B-3,73.0,1.0,42,150.19
407,D5,73.5,0.5,58,150.19
408,E-5,73.75,0.25,50,150.19
409,D5,74.0,1.0,77,150.19
410,E-2,74.0,1.0,62,150.19
411,G4,74.25,0.25,45,150.19
412,F4,74.5,0.25,50,150.19
413,E-4,74.75,0.25,42,150.19
414,G5,75.0,0.5,69,150.19
415,B-3,75.0,1.0,42,150.19
416,C5,75.5,0.5,58,150.19
417,D5,75.75,0.25,50,150.19
418,C5,76.0,1.0,77,150.19
419,A2,76.0,1.0,65,150.19
420,G4,76.25,0.25,45,150.19
421,F4,76.5,0.25,50,150.19
422,E-4,76.75,0.25,42,150.19
423,C6,77.0,0.5,83,150.19
424,A3,77.0,1.0,42,150.19
425,C5,77.5,0.5,53,150.19
426,D5,77.75,0.25,46,150.19
427,C5,78.0,1.0,70,150.19
428,D3,78.0,1.0,67,150.19
429,F#4,78.25,0.25,41,150.19
430,E4,78.5,0.25,46,150.19
431,D4,78.75,0.25,39,150.19
432,F#5,79.0,0.5,68,150.19
433,A3,79.0,1.0,42,150.19
434,C5,79.5,0.5,53,150.19
435,D5,79.75,0.25,46,150.19
436,C5,80.0,1.0,70,150.19
437,D2,80.0,1.0,68,150.19
438,D3,80.0,1.0,68,150.19
439,F#4,80.25,0.25,41,150.19
440,E4,80.5,0.25,46,150.19
441,D4,80.75,0.25,39,150.19
442,C6,81.0,0.5,73,150.19
443,A3,81.0,1.0,42,150.19
444,D5,81.75,0.25,62,150.19
445,G5,81.833,83/1000,53,150.19
446,A5,81.917,83/1000,56,150.19
447,B-5,82.0,0.25,79,150.19
448,D3,82.0,0.5,49,150.19
449,G3,82.0,0.5,49,150.19
450,E4,82.0,0.5,49,150.19
451,C#5,82.25,0.25,51,150.19
452,G5,82.5,0.25,55,150.19
453,B-5,82.75,0.25,55,150.19
454,A5,83.0,0.25,78,150.19
455,D3,83.0,0.5,51,150.19
456,A3,83.0,0.5,51,150.19
457,F#4,83.0,0.5,51,150.19
458,C5,83.25,0.25,49,150.19
459,F#5,83.5,0.25,55,150.19
460,A5,83.75,0.25,55,150.19
461,G5,84.0,0.25,78,150.19
462,D3,84.0,0.5,47,150.19
463,B-3,84.0,0.5,47,150.19
464,G4,84.0,0.5,47,150.19
465,E5,84.25,0.25,61,150.19
466,C#5,84.5,0.25,65,150.19
467,B-4,84.75,0.25,69,150.19
468,G4,85.0,0.25,61,150.19
469,E4,85.25,0.25,66,150.19
470,C#4,85.5,0.25,55,150.19
471,D5,85.75,0.25,64,150.19
472,B-3,85.75,0.25,55,150.19
473,G5,85.833,83/1000,56,150.19
474,A5,85.917,83/1000,58,150.19
475,B-5,86.0,0.25,79,150.19
476,D3,86.0,0.5,49,150.19
477,G3,86.0,0.5,49,150.19
478,E4,86.0,0.5,49,150.19
479,C#5,86.25,0.25,51,150.19
480,G5,86.5,0.25,55,150.19
481,B-5,86.75,0.25,55,150.19
482,A5,87.0,0.25,78,150.19
483,D3,87.0,0.5,51,150.19
484,A3,87.0,0.5,51,150.19
485,F#4,87.0,0.5,51,150.19
486,C5,87.25,0.25,49,150.19
487,F#5,87.5,0.25,55,150.19
488,A5,87.75,0.25,55,150.19
489,G5,88.0,0.25,78,150.19
490,D3,88.0,0.5,47,150.19
491,B-3,88.0,0.5,47,150.19
492,G4,88.0,0.5,47,150.19
493,E5,88.25,0.25,58,150.19
494,C#5,88.5,0.25,62,150.19
495,B-4,88.75,0.25,65,150.19
496,G4,89.0,0.25,61,150.19
497,E4,89.25,0.25,66,150.19
498,C#4,89.5,0.25,55,150.19
499,B-4,89.75,0.25,63,150.19
500,B-3,89.75,0.25,55,150.19
501,D5,89.833,83/1000,51,150.19
502,D3,89.875,0.125,44,150.19
503,E-5,89.917,83/1000,57,150.19
504,F5,90.0,0.25,78,150.19
505,B3,90.0,0.875,62,150.19
506,D3,90.0,0.875,44,150.19
507,G#4,90.25,0.25,46,150.19
508,D5,90.5,0.25,51,150.19
509,F5,90.75,0.25,44,150.19
510,D3,90.875,1.0,47,150.19
511,E-5,91.0,0.25,72,150.19
512,C4,91.0,0.875,58,150.19
513,G4,91.25,0.25,44,150.19
514,C5,91.5,0.25,50,150.19
515,E-5,91.75,0.25,46,150.19
516,D3,91.875,0.125,42,150.19
517,D5,92.0,0.25,72,150.19
518,D4,92.0,1.0,52,150.19
519,D3,92.0,1.0,42,150.19
520,B4,92.25,0.25,44,150.19
521,G#4,92.5,0.25,49,150.19
522,F4,92.75,0.25,44,150.19
523,D4,93.0,1/5,57,150.19
524,B3,93.2,1/5,56,150.19
525,G#3,93.4,1/5,55,150.19
526,F4,93.6,2/5,63,150.19
527,F3,93.6,1/5,55,150.19
528,G#4,93.733,133/1000,45,150.19
529,D3,93.8,1/5,55,150.19
530,B4,93.867,133/1000,56,150.19
531,C5,94.0,0.25,73,150.19
532,D2,94.0,1.0,50,150.19
533,D3,94.0,1.0,50,150.19
534,E-4,94.25,0.25,46,150.19
535,G4,94.5,0.25,51,150.19
536,C5,94.75,0.25,44,150.19
537,A4,95.0,0.25,72,150.19
538,D2,95.0,1.0,51,150.19
539,D3,95.0,1.0,51,150.19
540,C4,95.25,0.25,44,150.19
541,F#4,95.5,0.25,50,150.19
542,A4,95.75,0.25,46,150.19
543,G4,96.0,1/5,72,150.19
544,G2,96.0,1.0,42,150.19
545,D3,96.0,0.75,52,150.19
546,D4,96.2,1/5,52,150.19
547,B-3,96.4,1/5,55,150.19
548,G3,96.6,1/5,58,150.19
549,D3,96.8,1/5,61,150.19
550,G2,97.0,0.5,82,150.19
551,G3,97.5,3/10,60,150.19
552,F#3,97.75,0.25,46,150.19
553,G3,98.0,3/10,68,150.19
554,G#3,98.25,0.25,50,150.19
555,F3,98.5,3/10,58,150.19
556,G3,98.75,0.25,49,150.19
557,E-3,99.0,3/10,60,150.19
558,F3,99.25,0.25,50,150.19
559,D3,99.5,3/10,56,150.19
560,E-3,99.75,0.25,48,150.19
561,C3,100.0,0.25,60,150.19
562,D3,100.25,0.25,51,150.19
563,E-3,100.5,0.25,51,150.19
564,G3,100.75,0.25,57,150.19
565,C4,101.0,0.25,56,150.19
566,D4,101.25,0.25,60,150.19
567,E-4,101.5,0.25,65,150.19
568,B3,101.75,0.25,56,150.19
569,C4,102.0,3/10,67,150.19
570,B3,102.25,0.25,51,150.19
571,C4,102.5,3/10,59,150.19
572,G3,102.75,0.25,51,150.19
573,G#3,103.0,3/10,60,150.19
574,G3,103.25,0.25,48,150.19
575,G#3,103.5,3/10,54,150.19
576,E3,103.75,0.25,47,150.19
577,F3,104.0,3/10,58,150.19
578,E3,104.25,0.25,50,150.19
579,F3,104.5,3/10,54,150.19
580,D3,104.75,0.25,48,150.19
581,G3,105.0,0.25,57,150.19
582,F3,105.25,0.25,56,150.19
583,C4,105.5,0.25,54,150.19
584,E-3,105.5,0.25,55,150.19
585,B3,105.75,0.25,41,150.19
586,D3,105.75,0.25,54,150.19
587,C4,106.0,3/10,61,150.19
588,E-3,106.0,0.5,55,150.19
589,D4,106.25,0.25,45,150.19
590,C4,106.5,3/10,52,150.19
591,E-3,106.5,0.25,53,150.19
592,D4,106.75,0.25,44,150.19
593,B-3,107.0,3/10,54,150.19
594,D3,107.0,0.25,59,150.19
595,C4,107.25,0.25,45,150.19
596,A3,107.5,3/10,50,150.19
597,C3,107.5,0.25,53,150.19
598,B-3,107.75,0.25,43,150.19
599,G3,108.0,0.25,54,150.19
600,B-2,108.0,1.5,59,150.19
601,A3,108.25,0.25,45,150.19
602,B-3,108.5,0.25,45,150.19
603,D4,108.75,0.25,51,150.19
604,G4,109.0,0.25,50,150.19
605,A4,109.25,0.25,54,150.19
606,B-4,109.5,0.25,58,150.19
607,A2,109.5,0.5,53,150.19
608,F#4,109.75,0.25,50,150.19
609,G4,110.0,3/10,60,150.19
610,B-2,110.0,0.5,61,150.19
611,F#4,110.25,0.25,45,150.19
612,G4,110.5,3/10,53,150.19
613,B2,110.5,0.25,55,150.19
614,D4,110.75,0.25,45,150.19
615,E-4,111.0,3/10,54,150.19
616,C3,111.0,0.25,61,150.19
617,D4,111.25,0.25,43,150.19
618,E-4,111.5,3/10,48,150.19
619,D3,111.5,0.25,55,150.19
620,B3,111.75,0.25,42,150.19
621,C4,112.0,3/10,52,150.19
622,E-3,112.0,0.25,65,150.19
623,B3,112.25,0.25,45,150.19
624,C4,112.5,3/10,48,150.19
625,C3,112.5,0.25,55,150.19
626,G3,112.75,0.25,43,150.19
627,B3,113.0,3/10,51,150.19
628,D3,113.0,0.25,55,150.19
629,G3,113.25,0.25,50,150.19
630,G4,113.5,3/10,66,150.19
631,F3,113.5,3/10,58,150.19
632,F#4,113.75,0.25,50,150.19
633,D3,113.75,0.25,52,150.19
634,G4,114.0,3/10,74,150.19
635,E-3,114.0,0.5,64,150.19
636,G#4,114.25,0.25,55,150.19
637,F4,114.5,3/10,63,150.19
638,D2,114.5,0.25,55,150.19
639,D3,114.5,0.25,55,150.19
640,G4,114.75,0.25,53,150.19
641,E-4,115.0,3/10,66,150.19
642,C2,115.0,0.25,61,150.19
643,C3,115.0,0.25,61,150.19
644,F4,115.25,0.25,55,150.19
645,D4,115.5,3/10,61,150.19
646,B-1,115.5,0.25,55,150.19
647,B-2,115.5,0.25,55,150.19
648,E-4,115.75,0.25,52,150.19
649,C4,116.0,0.25,66,150.19
650,A1,116.0,1.5,66,150.19
651,A2,116.0,1.5,66,150.19
652,D4,116.25,0.25,56,150.19
653,E-4,116.5,0.25,56,150.19
654,G4,116.75,0.25,62,150.19
655,C5,117.0,0.25,61,150.19
656,D5,117.25,0.25,66,150.19
657,E-5,117.5,0.25,71,150.19
658,A1,117.5,0.5,56,150.19
659,A2,117.5,0.5,56,150.19
660,F#4,117.75,0.25,61,150.19
661,D5,118.0,0.25,73,150.19
662,B-1,118.0,1.0,61,150.19
663,B-2,118.0,1.0,61,150.19
664,G4,118.25,0.25,56,150.19
665,B-4,118.5,0.25,64,150.19
666,D5,118.75,0.25,56,150.19
667,C5,119.0,0.25,66,150.19
668,C2,119.0,1.0,60,150.19
669,C3,119.0,1.0,60,150.19
670,E-4,119.25,0.25,52,150.19
671,A4,119.5,0.25,59,150.19
672,C5,119.75,0.25,51,150.19
673,F#4,120.0,0.25,63,150.19
674,D2,120.0,1.0,63,150.19
675,D3,120.0,1.0,63,150.19
676,C4,120.25,0.25,55,150.19
677,D4,120.5,0.25,59,150.19
678,F#4,120.75,0.25,52,150.19
679,B3,121.0,0.5,64,150.19
680,G4,121.0,0.5,64,150.19
681,G2,121.0,0.5,59,150.19
682,D3,121.0,0.5,59,150.19
683,G3,121.5,3/10,60,150.19
684,F#3,121.75,0.25,46,150.19
685,G3,122.0,3/10,68,150.19
686,G#3,122.25,0.25,50,150.19
687,F3,122.5,3/10,58,150.19
688,G3,122.75,0.25,49,150.19
689,E-3,123.0,3/10,60,150.19
690,F3,123.25,0.25,50,150.19
691,D3,123.5,3/10,56,150.19
692,E-3,123.75,0.25,48,150.19
693,C3,124.0,0.25,60,150.19
694,D3,124.25,0.25,51,150.19
695,E-3,124.5,0.25,51,150.19
696,G3,124.75,0.25,57,150.19
697,C4,125.0,0.25,56,150.19
698,D4,125.25,0.25,60,150.19
699,E-4,125.5,0.25,65,150.19
700,B3,125.75,0.25,56,150.19
701,C4,126.0,3/10,67,150.19
702,B3,126.25,0.25,51,150.19
703,C4,126.5,3/10,59,150.19
704,G3,126.75,0.25,51,150.19
705,G#3,127.0,3/10,60,150.19
706,G3,127.25,0.25,48,150.19
707,G#3,127.5,3/10,54,150.19
708,E3,127.75,0.25,47,150.19
709,F3,128.0,3/10,58,150.19
710,E3,128.25,0.25,50,150.19
711,F3,128.5,3/10,54,150.19
712,D3,128.75,0.25,48,150.19
713,G3,129.0,0.25,57,150.19
714,F3,129.25,0.25,56,150.19
715,C4,129.5,0.25,54,150.19
716,E-3,129.5,0.25,55,150.19
717,B3,129.75,0.25,41,150.19
718,D3,129.75,0.25,54,150.19
719,C4,130.0,3/10,61,150.19
720,E-3,130.0,0.5,55,150.19
721,D4,130.25,0.25,45,150.19
722,C4,130.5,3/10,52,150.19
723,E-3,130.5,0.25,53,150.19
724,D4,130.75,0.25,44,150.19
725,B-3,131.0,3/10,54,150.19
726,D3,131.0,0.25,59,150.19
727,C4,131.25,0.25,45,150.19
728,A3,131.5,3/10,50,150.19
729,C3,131.5,0.25,53,150.19
730,B-3,131.75,0.25,43,150.19
731,G3,132.0,0.25,54,150.19
732,B-2,132.0,1.5,59,150.19
733,A3,132.25,0.25,45,150.19
734,B-3,132.5,0.25,45,150.19
735,D4,132.75,0.25,51,150.19
736,G4,133.0,0.25,50,150.19
737,A4,133.25,0.25,54,150.19
738,B-4,133.5,0.25,58,150.19
739,A2,133.5,0.5,53,150.19
740,F#4,133.75,0.25,50,150.19
741,G4,134.0,3/10,60,150.19
742,B-2,134.0,0.5,61,150.19
743,F#4,134.25,0.25,45,150.19
744,G4,134.5,3/10,53,150.19
745,B2,134.5,0.25,55,150.19
746,D4,134.75,0.25,45,150.19
747,E-4,135.0,3/10,54,150.19
748,C3,135.0,0.25,61,150.19
749,D4,135.25,0.25,43,150.19
750,E-4,135.5,3/10,48,150.19
751,D3,135.5,0.25,55,150.19
752,B3,135.75,0.25,42,150.19
753,C4,136.0,3/10,52,150.19
754,E-3,136.0,0.25,65,150.19
755,B3,136.25,0.25,45,150.19
756,C4,136.5,3/10,48,150.19
757,C3,136.5,0.25,55,150.19
758,G3,136.75,0.25,43,150.19
759,B3,137.0,3/10,51,150.19
760,D3,137.0,0.25,55,150.19
761,G3,137.25,0.25,50,150.19
762,G4,137.5,3/10,66,150.19
763,F3,137.5,3/10,58,150.19
764,F#4,137.75,0.25,50,150.19
765,D3,137.75,0.25,52,150.19
766,G4,138.0,3/10,74,150.19
767,E-3,138.0,0.5,64,150.19
768,G#4,138.25,0.25,55,150.19
769,F4,138.5,3/10,63,150.19
770,D2,138.5,0.25,55,150.19
771,D3,138.5,0.25,55,150.19
772,G4,138.75,0.25,53,150.19
773,E-4,139.0,3/10,66,150.19
774,C2,139.0,0.25,61,150.19
775,C3,139.0,0.25,61,150.19
776,F4,139.25,0.25,55,150.19
777,D4,139.5,3/10,61,150.19
778,B-1,139.5,0.25,55,150.19
779,B-2,139.5,0.25,55,150.19
780,E-4,139.75,0.25,52,150.19
781,C4,140.0,0.25,66,150.19
782,A1,140.0,1.5,66,150.19
783,A2,140.0,1.5,66,150.19
784,D4,140.25,0.25,56,150.19
785,E-4,140.5,0.25,56,150.19
786,G4,140.75,0.25,62,150.19
787,C5,141.0,0.25,61,150.19
788,D5,141.25,0.25,66,150.19
789,E-5,141.5,0.25,71,150.19
790,A1,141.5,0.5,56,150.19
791,A2,141.5,0.5,56,150.19
792,F#4,141.75,0.25,61,150.19
793,D5,142.0,0.25,73,150.19
794,B-1,142.0,1.0,61,150.19
795,B-2,142.0,1.0,61,150.19
796,G4,142.25,0.25,56,150.19
797,B-4,142.5,0.25,64,150.19
798,D5,142.75,0.25,56,150.19
799,C5,143.0,0.25,66,150.19
800,C2,143.0,1.0,60,150.19
801,C3,143.0,1.0,60,150.19
802,E-4,143.25,0.25,52,150.19
803,A4,143.5,0.25,59,150.19
804,C5,143.75,0.25,51,150.19
805,F#4,144.0,0.25,63,150.19
806,D2,144.0,1.0,63,150.19
807,D3,144.0,1.0,63,150.19
808,C4,144.25,0.25,55,150.19
809,D4,144.5,0.25,59,150.19
810,F#4,144.75,0.25,52,150.19
811,B3,145.0,0.5,64,150.19
812,G4,145.0,0.5,64,150.19
813,G2,145.0,0.5,59,150.19
814,D3,145.0,0.5,59,150.19
815,C5,145.5,0.25,54,150.19
816,B4,145.75,0.25,41,150.19
817,C5,146.0,0.25,61,150.19
818,C2,146.0,0.5,66,150.19
819,C#5,146.25,0.25,45,150.19
820,B-4,146.5,0.25,52,150.19
821,C3,146.5,1.0,63,150.19
822,C5,146.75,0.25,44,150.19
823,G#4,147.0,0.25,54,150.19
824,B-4,147.25,0.25,45,150.19
825,G4,147.5,0.25,50,150.19
826,E3,147.5,0.5,65,150.19
827,G#4,147.75,0.25,43,150.19
828,F4,148.0,0.25,54,150.19
829,F3,148.0,2.0,70,150.19
830,G4,148.25,0.25,45,150.19
831,G#4,148.5,0.25,45,150.19
832,F2,148.5,1.0,63,150.19
833,C5,148.75,0.25,51,150.19
834,F5,149.0,0.25,50,150.19
835,G5,149.25,0.25,54,150.19
836,G#5,149.5,0.25,58,150.19
837,G#2,149.5,0.5,63,150.19
838,E-5,149.75,0.25,50,150.19
839,D5,150.0,0.25,60,150.19
840,B-2,150.0,2.0,71,150.19
841,F3,150.0,0.5,70,150.19
842,E-5,150.25,0.25,45,150.19
843,C5,150.5,0.25,53,150.19
844,F3,150.5,0.5,63,150.19
845,D5,150.75,0.25,45,150.19
846,B-4,151.0,0.25,54,150.19
847,G3,151.0,0.5,68,150.19
848,C5,151.25,0.25,43,150.19
849,A4,151.5,0.25,48,150.19
850,A3,151.5,0.5,69,150.19
851,B-4,151.75,0.25,42,150.19
852,G4,152.0,0.25,54,150.19
853,B-3,152.0,2.0,70,150.19
854,B-2,152.0,0.5,71,150.19
855,A4,152.25,0.25,48,150.19
856,B-4,152.5,0.25,48,150.19
857,B-2,152.5,1.0,63,150.19
858,D5,152.75,0.25,51,150.19
859,G5,153.0,0.25,50,150.19
860,A5,153.25,0.25,54,150.19
861,B-5,153.5,0.25,58,150.19
862,D3,153.5,0.5,63,150.19
863,F#5,153.75,0.25,50,150.19
864,G5,154.0,0.25,60,150.19
865,E-3,154.0,2.0,71,150.19
866,B-3,154.0,0.5,70,150.19
867,G#5,154.25,0.25,53,150.19
868,F5,154.5,0.25,60,150.19
869,B3,154.5,0.5,63,150.19
870,G5,154.75,0.25,51,150.19
871,E-5,155.0,0.25,61,150.19
872,C4,155.0,0.5,68,150.19
873,F5,155.25,0.25,50,150.19
874,D5,155.5,0.25,55,150.19
875,D4,155.5,0.5,69,150.19
876,E-5,155.75,0.25,52,150.19
877,C5,156.0,0.25,61,150.19
878,E-4,156.0,2.0,70,150.19
879,E-3,156.0,0.5,71,150.19
880,D5,156.25,0.25,50,150.19
881,E-5,156.5,0.25,50,150.19
882,E-3,156.5,1.0,63,150.19
883,G5,156.75,0.25,55,150.19
884,C6,157.0,0.25,56,150.19
885,D6,157.25,0.25,60,150.19
886,E-6,157.5,0.25,65,150.19
887,G3,157.5,0.5,63,150.19
888,B5,157.75,0.25,56,150.19
889,C6,158.0,0.25,71,150.19
890,G#3,158.0,1.0,75,150.19
891,E-4,158.0,0.5,70,150.19
892,D6,158.25,0.25,54,150.19
893,E-6,158.5,0.25,63,150.19
894,E-4,158.5,1.0,66,150.19
895,C4,158.5,1.0,66,150.19
896,B5,158.75,0.25,53,150.19
897,C6,159.0,0.25,68,150.19
898,A3,159.0,1.0,73,150.19
899,D6,159.25,0.25,53,150.19
900,E-6,159.5,0.25,59,150.19
901,F#4,159.5,0.5,56,150.19
902,E-4,159.5,0.5,56,150.19
903,C4,159.5,0.5,56,150.19
904,F#5,159.75,0.25,51,150.19
905,G5,160.0,0.25,60,150.19
906,B3,160.0,0.5,52,150.19
907,D4,160.0,0.5,52,150.19
908,G4,160.0,0.5,52,150.19
909,F4,160.0,0.5,52,150.19
910,G#5,160.25,0.25,55,150.19
911,G5,160.5,0.25,63,150.19
912,C4,160.5,0.5,51,150.19
913,E-4,160.5,0.5,51,150.19
914,G#4,160.5,0.5,51,150.19
915,G#5,160.75,0.25,60,150.19
916,G5,161.0,0.25,66,150.19
917,D4,161.0,0.5,51,150.19
918,F4,161.0,0.5,51,150.19
919,G4,161.0,0.5,51,150.19
920,B4,161.0,0.5,51,150.19
921,G#5,161.25,0.25,61,150.19
922,G5,161.5,0.25,64,150.19
923,E-4,161.5,0.5,54,150.19
924,G4,161.5,0.5,54,150.19
925,C5,161.5,0.5,54,150.19
926,G#5,161.75,0.25,55,150.19
927,G5,162.0,0.25,66,150.19
928,G4,162.0,0.5,65,150.19
929,F4,162.0,0.5,65,150.19
930,D5,162.0,0.5,65,150.19
931,G#5,162.25,0.25,60,150.19
932,F5,162.5,0.25,65,150.19
933,G3,162.5,1.0,64,150.19
934,G4,162.5,1.0,64,150.19
935,G5,162.75,0.25,57,150.19
936,E-5,163.0,0.25,63,150.19
937,F5,163.25,0.25,54,150.19
938,D5,163.5,0.25,63,150.19
939,G3,163.5,0.5,56,150.19
940,G4,163.5,0.5,69,150.19
941,E-5,163.75,0.25,54,150.19
942,C5,164.0,0.25,61,150.19
943,C4,164.0,0.5,54,150.19
944,G4,164.0,0.5,69,150.19
945,D5,164.25,0.25,56,150.19
946,E-5,164.5,0.25,60,150.19
947,E-4,164.5,0.5,68,150.19
948,G5,164.75,0.25,63,150.19
949,C6,165.0,0.25,65,150.19
950,A4,165.0,0.5,69,150.19
951,D6,165.25,0.25,63,150.19
952,C5,165.5,0.5,71,150.19
953,G5,165.5,0.25,63,150.19
954,E-6,165.5,0.25,63,150.19
955,F#5,165.75,0.25,61,150.19
956,G5,166.0,0.25,66,150.19
957,F4,166.0,0.5,61,150.19
958,D4,166.0,0.5,61,150.19
959,B4,166.0,0.5,61,150.19
960,G#5,166.25,0.25,60,150.19
961,F5,166.5,0.25,65,150.19
962,G3,166.5,1.0,68,150.19
963,G4,166.5,1.0,68,150.19
964,G5,166.75,0.25,57,150.19
965,E-5,167.0,0.25,63,150.19
966,F5,167.25,0.25,54,150.19
967,D5,167.5,0.25,63,150.19
968,G3,167.5,0.5,56,150.19
969,G4,167.5,0.5,69,150.19
970,E-5,167.75,0.25,54,150.19
971,C5,168.0,0.25,61,150.19
972,C4,168.0,0.5,54,150.19
973,G4,168.0,0.5,69,150.19
974,D5,168.25,0.25,56,150.19
975,E-5,168.5,0.25,60,150.19
976,E-4,168.5,0.5,68,150.19
977,G5,168.75,0.25,63,150.19
978,C6,169.0,0.25,65,150.19
979,A4,169.0,0.5,72,150.19
980,D6,169.25,0.25,52,150.19
981,C5,169.5,0.5,71,150.19
982,G5,169.5,0.25,62,150.19
983,E-6,169.5,0.25,62,150.19
984,F#5,169.75,0.25,55,150.19
985,G5,170.0,0.25,67,150.19
986,D4,170.0,0.5,55,150.19
987,F4,170.0,0.5,55,150.19
988,B4,170.0,0.5,55,150.19
989,G#5,170.25,0.25,52,150.19
990,F5,170.5,0.25,57,150.19
991,G3,170.5,0.5,69,150.19
992,F6,170.75,0.25,52,150.19
993,F5,171.0,0.25,68,150.19
994,E-4,171.0,0.5,55,150.19
995,G4,171.0,0.5,55,150.19
996,C5,171.0,0.5,55,150.19
997,G5,171.25,0.25,52,150.19
998,E-5,171.5,0.25,57,150.19
999,G3,171.5,0.5,69,150.19
1000,E-6,171.75,0.25,54,150.19
1001,E-5,172.0,0.25,68,150.19
1002,F4,172.0,0.5,64,150.19
1003,G#4,172.0,0.5,64,150.19
1004,F5,172.25,0.25,54,150.19
1005,D5,172.5,0.25,58,150.19
1006,G3,172.5,0.5,67,150.19
1007,D6,172.75,0.25,54,150.19
1008,D5,173.0,0.25,69,150.19
1009,E-4,173.0,1.0,62,150.19
1010,G4,173.0,1.0,62,150.19
1011,E-5,173.25,0.25,55,150.19
1012,C5,173.5,0.25,58,150.19
1013,G3,173.5,0.5,70,150.19
1014,C6,173.75,0.25,55,150.19
1015,C5,174.0,0.25,70,150.19
1016,G3,174.0,0.5,70,150.19
1017,D4,174.0,1.0,64,150.19
1018,F4,174.0,1.0,64,150.19
1019,D5,174.25,0.25,55,150.19
1020,B-4,174.5,0.25,55,150.19
1021,G3,174.5,1.0,71,150.19
1022,B-5,174.75,0.25,55,150.19
1023,B-4,175.0,0.25,73,150.19
1024,C4,175.0,1.0,64,150.19
1025,E-4,175.0,1.0,64,150.19
1026,C5,175.25,0.25,55,150.19
1027,G#4,175.5,0.25,55,150.19
1028,G3,175.5,0.5,74,150.19
1029,G#5,175.75,0.25,55,150.19
1030,G#4,176.0,0.25,76,150.19
1031,G3,176.0,0.5,74,150.19
1032,B3,176.0,0.5,59,150.19
1033,D4,176.0,0.5,59,150.19
1034,B-4,176.25,0.25,56,150.19
1035,G4,176.5,0.25,57,150.19
1036,G3,176.5,1.0,87,150.19
1037,G5,176.75,0.25,57,150.19
1038,G4,177.0,0.25,71,150.19
1039,G5,177.25,0.25,55,150.19
1040,G4,177.5,0.375,76,150.19
1041,G2,177.5,0.5,72,150.19
1042,G3,177.5,0.5,72,150.19
1043,G#4,177.75,0.25,55,150.19
1044,G4,178.0,1.5,77,150.19
1045,C2,178.0,1.0,83,150.19
1046,C3,178.0,1.0,83,150.19
1047,E-4,178.25,0.25,47,150.19
1048,D4,178.5,0.25,52,150.19
1049,C4,178.75,0.25,44,150.19
1050,G3,179.0,1.0,73,150.19
1051,G4,179.5,0.25,65,150.19
1052,C5,179.5,0.375,65,150.19
1053,G#4,179.75,0.25,52,150.19
1054,G4,180.0,0.25,80,150.19
1055,B4,180.0,1.5,80,150.19
1056,G3,180.0,1.0,82,150.19
1057,G2,180.0,1.0,82,150.19
1058,F4,180.25,0.25,50,150.19
1059,E-4,180.5,0.25,51,150.19
1060,D4,180.75,0.25,51,150.19
1061,G3,181.0,1.0,75,150.19
1062,G4,181.5,0.375,71,150.19
1063,G#4,181.75,0.25,51,150.19
1064,G4,182.0,1.5,82,150.19
1065,C4,182.0,729/1000,88,150.19
1066,C3,182.0,1.0,74,150.19
1067,E-4,182.25,0.25,47,150.19
1068,D4,182.5,0.25,52,150.19
1069,C4,182.75,0.25,44,150.19
1070,G3,183.0,1.0,75,150.19
1071,G4,183.5,0.25,60,150.19
1072,C5,183.5,0.375,60,150.19
1073,G#4,183.75,0.25,52,150.19
1074,G4,184.0,0.25,79,150.19
1075,B4,184.0,1.5,79,150.19
1076,G2,184.0,1.0,82,150.19
1077,G3,184.0,1.0,82,150.19
1078,F4,184.25,0.25,50,150.19
1079,E-4,184.5,0.25,51,150.19
1080,D4,184.75,0.25,51,150.19
1081,G3,185.0,1.0,76,150.19
1082,G4,185.5,0.375,65,150.19
1083,G#4,185.75,0.25,51,150.19
1084,G4,186.0,1.0,78,150.19
1085,C2,186.0,1.0,73,150.19
1086,C3,186.0,1.0,73,150.19
1087,E-4,186.25,0.25,47,150.19
1088,D4,186.5,0.25,52,150.19
1089,C4,186.75,0.25,44,150.19
1090,E-5,187.0,0.5,79,150.19
1091,G3,187.0,1.0,57,150.19
1092,G#4,187.5,0.5,60,150.19
1093,B-4,187.75,0.25,52,150.19
1094,G#4,188.0,1.0,80,150.19
1095,F3,188.0,1.0,76,150.19
1096,F2,188.0,1.0,76,150.19
1097,E-4,188.25,0.25,47,150.19
1098,F4,188.5,0.25,52,150.19
1099,C4,188.75,0.25,44,150.19
1100,G#5,189.0,0.5,87,150.19
1101,F3,189.0,1.0,62,150.19
1102,G#4,189.5,0.5,60,150.19
1103,B-4,189.75,0.25,52,150.19
1104,G#4,190.0,1.0,80,150.19
1105,B-1,190.0,1.0,80,150.19
1106,B-2,190.0,1.0,80,150.19
1107,D4,190.25,0.25,47,150.19
1108,C4,190.5,0.25,52,150.19
1109,B-3,190.75,0.25,44,150.19
1110,D5,191.0,0.5,83,150.19
1111,F3,191.0,1.0,61,150.19
1112,G4,191.5,0.5,59,150.19
1113,G#4,191.75,0.25,51,150.19
1114,G4,192.0,1.0,79,150.19
1115,E-3,192.0,1.0,84,150.19
1116,E-2,192.0,1.0,84,150.19
1117,D4,192.25,0.25,46,150.19
1118,E-4,192.5,0.25,50,150.19
1119,B-3,192.75,0.25,43,150.19
1120,G5,193.0,0.5,85,150.19
1121,E-3,193.0,1.0,60,150.19
1122,G4,193.5,0.5,58,150.19
1123,G#4,193.75,0.25,50,150.19
1124,G4,194.0,1.0,77,150.19
1125,G#1,194.0,1.0,72,150.19
1126,G#2,194.0,1.0,72,150.19
1127,C4,194.25,0.25,45,150.19
1128,B-3,194.5,0.25,50,150.19
1129,G#3,194.75,0.25,42,150.19
1130,C5,195.0,0.5,79,150.19
1131,E-3,195.0,1.0,57,150.19
1132,F4,195.5,0.5,57,150.19
1133,G4,195.75,0.25,49,150.19
1134,F4,196.0,1.0,76,150.19
1135,D3,196.0,1.0,70,150.19
1136,D2,196.0,1.0,70,150.19
1137,C4,196.25,0.25,44,150.19
1138,D4,196.5,0.25,49,150.19
1139,G#3,196.75,0.25,41,150.19
1140,F5,197.0,0.5,81,150.19
1141,D3,197.0,1.0,56,150.19
1142,F4,197.5,0.5,56,150.19
1143,G4,197.75,0.25,48,150.19
1144,F4,198.0,1.0,75,150.19
1145,G1,198.0,1.0,66,150.19
1146,G2,198.0,1.0,66,150.19
1147,B3,198.25,0.25,43,150.19
1148,A3,198.5,0.25,48,150.19
1149,G3,198.75,0.25,40,150.19
1150,B4,199.0,0.5,77,150.19
1151,D3,199.0,1.0,56,150.19
1152,F4,199.5,0.5,55,150.19
1153,G4,199.75,0.25,47,150.19
1154,F4,200.0,1.0,73,150.19
1155,G1,200.0,1.0,66,150.19
1156,G2,200.0,1.0,66,150.19
1157,B3,200.25,0.25,43,150.19
1158,D4,200.5,0.25,47,150.19
1159,G3,200.75,0.25,40,150.19
1160,F5,201.0,0.5,75,150.19
1161,D3,201.0,1.0,57,150.19
1162,G4,201.75,0.25,52,150.19
1163,C5,201.833,83/1000,43,150.19
1164,G2,201.875,0.125,50,150.19
1165,D5,201.917,83/1000,43,150.19
1166,C3,201.938,0.062,56,150.19
1167,E-5,202.0,0.25,75,150.19
1168,A3,202.0,0.5,63,150.19
1169,G2,202.0,0.5,50,150.19
1170,C3,202.0,0.5,56,150.19
1171,F#4,202.25,0.25,49,150.19
1172,C5,202.5,0.25,52,150.19
1173,E-5,202.75,0.25,52,150.19
1174,G2,202.875,0.625,57,150.19
1175,D3,202.938,0.562,61,150.19
1176,D5,203.0,0.25,74,150.19
1177,B3,203.0,0.5,66,150.19
1178,F4,203.25,0.25,47,150.19
1179,B4,203.5,0.25,52,150.19
1180,D5,203.75,0.25,52,150.19
1181,G2,203.875,0.125,53,150.19
1182,E-3,203.938,0.062,56,150.19
1183,C5,204.0,0.25,74,150.19
1184,C4,204.0,0.5,60,150.19
1185,G2,204.0,0.5,53,150.19
1186,E-3,204.0,0.5,56,150.19
1187,A4,204.25,0.25,48,150.19
1188,F#4,204.5,0.25,52,150.19
1189,E-4,204.75,0.25,52,150.19
1190,C4,205.0,0.25,54,150.19
1191,A3,205.25,0.25,53,150.19
1192,F#3,205.5,0.25,52,150.19
1193,G4,205.75,0.25,52,150.19
1194,E-3,205.75,0.25,52,150.19
1195,C5,205.833,83/1000,43,150.19
1196,D5,205.917,83/1000,43,150.19
1197,E-5,206.0,0.25,75,150.19
1198,G2,206.0,0.5,56,150.19
1199,C3,206.0,0.5,56,150.19
1200,A3,206.0,0.5,56,150.19
1201,F#4,206.25,0.25,49,150.19
1202,C5,206.5,0.25,52,150.19
1203,E-5,206.75,0.25,52,150.19
1204,D5,207.0,0.25,74,150.19
1205,G2,207.0,0.5,58,150.19
1206,D3,207.0,0.5,58,150.19
1207,B3,207.0,0.5,58,150.19
1208,F4,207.25,0.25,47,150.19
1209,B4,207.5,0.25,52,150.19
1210,D5,207.75,0.25,52,150.19
1211,C5,208.0,0.25,74,150.19
1212,G2,208.0,0.5,53,150.19
1213,E-3,208.0,0.5,53,150.19
1214,C4,208.0,0.5,53,150.19
1215,A4,208.25,0.25,48,150.19
1216,F#4,208.5,0.25,52,150.19
1217,E-4,208.75,0.25,52,150.19
1218,C4,209.0,0.25,54,150.19
1219,A3,209.25,0.25,53,150.19
1220,F#3,209.5,0.25,52,150.19
1221,E-4,209.75,0.25,52,150.19
1222,E-3,209.75,0.25,52,150.19
1223,G4,209.833,83/1000,43,150.19
1224,G2,209.875,0.125,42,150.19
1225,G#4,209.917,83/1000,43,150.19
1226,B-4,210.0,0.25,74,150.19
1227,E3,210.0,0.875,60,150.19
1228,G2,210.0,0.875,42,150.19
1229,C#4,210.25,0.25,44,150.19
1230,G4,210.5,0.25,49,150.19
1231,B-4,210.75,0.25,42,150.19
1232,G2,210.875,1.0,45,150.19
1233,G#4,211.0,0.25,69,150.19
1234,F3,211.0,0.875,66,150.19
1235,C4,211.25,0.25,42,150.19
1236,F4,211.5,0.25,48,150.19
1237,G#4,211.75,0.25,44,150.19
1238,G2,211.875,0.125,40,150.19
1239,G4,212.0,0.25,69,150.19
1240,G3,212.0,1.0,50,150.19
1241,G2,212.0,1.0,40,150.19
1242,E4,212.25,0.25,42,150.19
1243,C#4,212.5,0.25,47,150.19
1244,B-3,212.75,0.25,42,150.19
1245,G3,213.0,1/5,54,150.19
1246,E3,213.2,1/5,53,150.19
1247,C#3,213.4,1/5,52,150.19
1248,B-3,213.6,2/5,52,150.19
1249,B-2,213.6,1/5,52,150.19
1250,C#4,213.733,133/1000,43,150.19
1251,G2,213.8,1/5,52,150.19
1252,E4,213.867,133/1000,43,150.19
1253,F4,214.0,0.25,70,150.19
1254,G1,214.0,1.0,66,150.19
1255,G2,214.0,1.0,66,150.19
1256,G#3,214.25,0.25,44,150.19
1257,C4,214.5,0.25,49,150.19
1258,F4,214.75,0.25,42,150.19
1259,D4,215.0,0.25,69,150.19
1260,G1,215.0,1.0,68,150.19
1261,G2,215.0,1.0,68,150.19
1262,F3,215.25,0.25,42,150.19
1263,B3,215.5,0.25,48,150.19
1264,D4,215.75,0.25,44,150.19
1265,C4,216.0,1/5,69,150.19
1266,C2,216.0,1.0,56,150.19
1267,G2,216.0,0.75,70,150.19
1268,G3,216.2,1/5,42,150.19
1269,E-3,216.4,1/5,47,150.19
1270,C3,216.6,1/5,42,150.19
1271,G2,216.8,1/5,42,150.19
1272,C2,217.0,0.5,81,150.19
1273,B-3,217.5,9/20,39,150.19
1274,E-4,217.5,9/20,39,150.19
1275,G4,217.5,9/20,39,150.19
1276,E-3,217.5,9/20,29,150.19
1277,G3,217.5,9/20,29,150.19
1278,B-3,218.0,19/20,42,150.19
1279,F4,218.0,19/20,42,150.19
1280,D3,218.0,19/20,35,150.19
1281,F3,218.0,19/20,35,150.19
1282,A3,219.0,19/20,42,150.19
1283,E-4,219.0,19/20,42,150.19
1284,A4,219.0,19/20,42,150.19
1285,C3,219.0,19/20,32,150.19
1286,F3,219.0,19/20,32,150.19
1287,B-3,220.0,19/20,45,150.19
1288,D4,220.0,19/20,45,150.19
1289,B-4,220.0,19/20,45,150.19
1290,F3,220.0,19/20,37,150.19
1291,B-2,220.0,19/20,37,150.19
1292,B-3,221.5,0.5,39,150.19
1293,E-4,221.5,0.5,39,150.19
1294,G4,221.5,0.5,39,150.19
1295,E-3,221.5,0.5,30,150.19
1296,G3,221.5,0.5,30,150.19
1297,B-3,222.0,19/20,42,150.19
1298,F4,222.0,19/20,42,150.19
1299,D3,222.0,19/20,35,150.19
1300,F3,222.0,19/20,35,150.19
1301,A3,223.0,19/20,42,150.19
1302,E-4,223.0,19/20,42,150.19
1303,A4,223.0,19/20,42,150.19
1304,C3,223.0,19/20,32,150.19
1305,F3,223.0,19/20,32,150.19
1306,B-3,224.0,19/20,45,150.19
1307,D4,224.0,19/20,45,150.19
1308,B-4,224.0,19/20,45,150.19
1309,F3,224.0,19/20,37,150.19
1310,B-2,224.0,19/20,37,150.19
1311,B-3,225.5,0.5,48,150.19
1312,D4,225.5,0.5,48,150.19
1313,F4,225.5,0.5,48,150.19
1314,B-2,225.5,0.5,36,150.19
1315,F3,225.5,0.5,36,150.19
1316,G4,226.0,1.0,51,150.19
1317,B-3,226.0,1.0,51,150.19
1318,E-4,226.0,1.0,51,150.19
1319,E-2,226.0,1.0,40,150.19
1320,E-3,226.0,1.0,40,150.19
1321,G3,227.0,1.0,45,150.19
1322,B-3,227.0,1.0,45,150.19
1323,E-4,227.0,1.0,45,150.19
1324,E-3,227.0,1.0,35,150.19
1325,G2,227.0,1.0,35,150.19
1326,F3,228.0,1.0,52,150.19
1327,B-3,228.0,1.0,52,150.19
1328,F4,228.0,1.0,52,150.19
1329,D3,228.0,1.0,42,150.19
1330,B-2,228.0,1.0,42,150.19
1331,F3,229.5,0.5,48,150.19
1332,B-3,229.5,0.5,48,150.19
1333,F4,229.5,0.5,48,150.19
1334,B-2,229.5,0.5,38,150.19
1335,D3,229.5,0.5,38,150.19
1336,G4,230.0,1.0,54,150.19
1337,G3,230.0,1.0,54,150.19
1338,E-2,230.0,1.0,42,150.19
1339,E-3,230.0,1.0,42,150.19
1340,G3,231.0,1.0,45,150.19
1341,B-3,231.0,1.0,45,150.19
1342,E-4,231.0,1.0,45,150.19
1343,E-3,231.0,1.0,37,150.19
1344,G2,231.0,1.0,37,150.19
1345,F3,232.0,1.0,54,150.19
1346,B-3,232.0,1.0,54,150.19
1347,F4,232.0,1.0,54,150.19
1348,D3,232.0,1.0,44,150.19
1349,B-2,232.0,1.0,44,150.19
1350,F3,233.5,0.5,37,150.19
1351,B-3,233.5,0.5,37,150.19
1352,D4,233.5,0.5,37,150.19
1353,B-2,233.5,0.5,26,150.19
1354,D3,233.5,0.5,26,150.19
1355,B-3,234.0,1.0,43,150.19
1356,E-4,234.0,1.0,43,150.19
1357,G3,234.0,1.0,43,150.19
1358,B-2,234.0,1.0,32,150.19
1359,C3,234.0,1.0,32,150.19
1360,F3,235.0,1.0,36,150.19
1361,C4,235.0,1.0,36,150.19
1362,E-4,235.0,1.0,36,150.19
1363,C3,235.0,1.0,28,150.19
1364,A2,235.0,1.0,28,150.19
1365,F3,236.0,1.0,43,150.19
1366,C4,236.0,1.0,43,150.19
1367,D4,236.0,1.0,43,150.19
1368,B-2,236.0,1.0,32,150.19
1369,A2,236.0,1.0,32,150.19
1370,B-2,237.5,0.5,27,150.19
1371,F3,237.5,0.5,31,150.19
1372,B-3,237.5,0.5,31,150.19
1373,D4,237.5,0.5,31,150.19
1374,B-3,238.0,1.0,38,150.19
1375,C4,238.0,1.0,38,150.19
1376,G3,238.0,1.0,38,150.19
1377,E-2,238.0,1.0,32,150.19
1378,B-2,238.0,1.0,32,150.19
1379,F3,239.0,1.0,34,150.19
1380,C4,239.0,1.0,34,150.19
1381,F2,239.0,1.0,28,150.19
1382,A2,239.0,1.0,28,150.19
1383,B-3,240.0,1.0,43,150.19
1384,B-2,240.0,2.0,33,150.19
1385,B-1,240.0,2.0,33,150.19
1386,E-4,241.5,0.5,40,150.19
1387,G#4,241.5,0.5,40,150.19
1388,C5,241.5,0.5,40,150.19
1389,G#3,241.5,0.5,31,150.19
1390,C4,241.5,0.5,31,150.19
1391,E-4,242.0,19/20,45,150.19
1392,B-4,242.0,19/20,45,150.19
1393,D4,243.0,19/20,38,150.19
1394,G#4,243.0,19/20,38,150.19
1395,D5,243.0,19/20,38,150.19
1396,G3,243.0,19/20,35,150.19
1397,B-3,243.0,19/20,35,150.19
1398,B-2,243.0,1.0,33,150.19
1399,B-1,243.0,1.0,33,150.19
1400,E-4,244.0,19/20,41,150.19
1401,G4,244.0,19/20,41,150.19
1402,E-5,244.0,19/20,41,150.19
1403,F3,244.0,19/20,32,150.19
1404,B-3,244.0,19/20,32,150.19
1405,B-3,245.0,19/20,35,150.19
1406,E-3,245.0,19/20,35,150.19
1407,E-4,245.5,0.5,40,150.19
1408,C5,245.5,0.5,40,150.19
1409,E-4,246.0,19/20,46,150.19
1410,B-4,246.0,19/20,46,150.19
1411,G#3,246.5,0.5,30,150.19
1412,C4,246.5,0.5,30,150.19
1413,D4,247.0,19/20,39,150.19
1414,G#4,247.0,19/20,39,150.19
1415,D5,247.0,19/20,39,150.19
1416,G3,247.0,19/20,35,150.19
1417,B-3,247.0,19/20,35,150.19
1418,E-4,248.0,19/20,40,150.19
1419,G4,248.0,19/20,40,150.19
1420,E-5,248.0,19/20,40,150.19
1421,F3,248.0,19/20,30,150.19
1422,B-3,248.0,19/20,30,150.19
1423,B-3,249.0,19/20,36,150.19
1424,E-3,249.0,19/20,36,150.19
1425,G4,249.5,0.5,39,150.19
1426,E-4,249.5,0.5,39,150.19
1427,B-4,249.5,0.5,39,150.19
1428,G4,250.0,1.0,48,150.19
1429,E-4,250.0,1.0,48,150.19
1430,E-5,250.0,1.0,48,150.19
1431,E-3,250.5,0.5,34,150.19
1432,B-3,250.5,0.5,34,150.19
1433,D4,251.0,1.0,48,150.19
1434,F#4,251.0,1.0,48,150.19
1435,D5,251.0,1.0,48,150.19
1436,C3,251.0,1.0,40,150.19
1437,B-3,251.0,1.0,40,150.19
1438,D4,252.0,1.0,51,150.19
1439,G4,252.0,1.0,51,150.19
1440,B-4,252.0,1.0,51,150.19
1441,D3,252.0,1.0,38,150.19
1442,A3,252.0,1.0,38,150.19
1443,G3,253.0,1.0,42,150.19
1444,G2,253.0,1.0,42,150.19
1445,C#4,253.5,0.5,38,150.19
1446,B-4,253.5,0.5,38,150.19
1447,C4,254.0,1.0,43,150.19
1448,C5,254.0,1.0,43,150.19
1449,G2,254.5,0.5,26,150.19
1450,E-3,254.5,0.5,26,150.19
1451,F4,255.0,1.0,38,150.19
1452,B-4,255.0,1.0,38,150.19
1453,G#2,255.0,1.0,32,150.19
1454,E-3,255.0,1.0,32,150.19
1455,B-3,256.0,1.0,43,150.19
1456,E4,256.0,1.0,43,150.19
1457,G4,256.0,1.0,43,150.19
1458,B-2,256.0,1.0,30,150.19
1459,D3,256.0,1.0,30,150.19
1460,C3,257.0,1.0,34,150.19
1461,B-3,257.5,0.5,36,150.19
1462,E4,257.5,0.5,36,150.19
1463,G4,257.5,0.5,36,150.19
1464,F4,258.0,1.0,42,150.19
1465,C4,258.0,1.0,42,150.19
1466,G#4,258.0,1.0,42,150.19
1467,C3,258.5,0.5,29,150.19
1468,G#3,259.0,0.75,34,150.19
1469,F2,259.0,1.0,35,150.19
1470,D4,259.0,1.0,38,150.19
1471,F4,259.0,1.0,38,150.19
1472,A3,259.75,0.25,34,150.19
1473,B-2,260.0,1.0,32,150.19
1474,B-3,260.0,1.0,43,150.19
1475,D4,260.0,1.0,43,150.19
1476,G4,260.0,1.0,43,150.19
1477,G2,261.0,1.0,34,150.19
1478,B-3,261.5,0.5,36,150.19
1479,E4,261.5,0.5,36,150.19
1480,G4,261.5,0.5,36,150.19
1481,F4,262.0,1.0,42,150.19
1482,C4,262.0,1.0,42,150.19
1483,G#4,262.0,1.0,42,150.19
1484,C3,262.5,0.5,29,150.19
1485,F2,263.0,1.0,35,150.19
1486,G#3,263.0,1.0,36,150.19
1487,D4,263.0,1.0,36,150.19
1488,F4,263.0,1.0,36,150.19
1489,B-2,264.0,1.0,32,150.19
1490,G3,264.0,1.0,44,150.19
1491,E-4,264.0,1.0,44,150.19
1492,E-2,265.0,1.0,34,150.19
1493,G3,265.5,0.5,34,150.19
1494,E-4,265.5,0.5,41,150.19
1495,C4,266.0,1.0,39,150.19
1496,E-4,266.0,2.0,41,150.19
1497,E-2,266.5,0.5,29,150.19
1498,B3,267.0,1.0,34,150.19
1499,G#2,267.0,2.0,35,150.19
1500,B-3,268.0,1.0,40,150.19
1501,E-4,268.0,1.0,41,150.19
1502,G2,269.0,1.0,34,150.19
1503,E-2,270.5,0.5,26,150.19
1504,E-3,270.5,0.5,26,150.19
1505,E-4,270.5,0.5,26,150.19
1506,C3,271.0,1.0,34,150.19
1507,G#3,271.0,2.0,31,150.19
1508,E-3,271.0,3.0,26,150.19
1509,E-4,271.0,3.0,26,150.19
1510,B2,272.0,1.0,32,150.19
1511,B-2,274.0,1.0,26,150.19
1512,G3,274.0,1.0,26,150.19
