,note_name,start_time,duration,velocity,tempo
0,D4,2.25,0.25,27,126.5
1,C4,2.5,0.25,40,126.5
2,F#4,2.5,0.25,40,126.5
3,G1,3.0,3.0,41,126.5
4,G2,3.0,3.0,41,126.5
5,B-3,3.0,0.25,45,126.5
6,G4,3.0,0.25,45,126.5
7,F#4,3.75,0.25,27,126.5
8,D4,4.0,0.25,42,126.5
9,A4,4.0,0.25,42,126.5
10,G4,4.5,0.25,45,126.5
11,B-4,4.5,0.25,45,126.5
12,A4,5.25,0.25,26,126.5
13,G4,5.5,0.25,45,126.5
14,C5,5.5,0.25,45,126.5
15,G1,6.0,2.5,41,126.5
16,G2,6.0,3.0,41,126.5
17,B-4,6.0,0.25,45,126.5
18,D5,6.0,0.25,45,126.5
19,E-5,6.75,0.25,26,126.5
20,C5,7.0,0.5,38,126.5
21,G5,7.0,0.5,38,126.5
22,B-4,7.5,0.5,38,126.5
23,D5,7.5,0.5,38,126.5
24,G4,8.25,0.25,28,126.5
25,G1,8.5,0.5,33,126.5
26,D4,8.5,0.25,45,126.5
27,B-4,8.5,0.25,45,126.5
28,A4,9.0,0.25,47,126.5
29,C2,9.0,1.0,42,126.5
30,G2,9.0,1.5,41,126.5
31,A4,9.75,0.25,36,126.5
32,A1,10.0,0.5,36,126.5
33,E-4,10.0,0.25,45,126.5
34,C5,10.0,0.25,45,126.5
35,B-4,10.5,0.25,46,126.5
36,D2,10.5,1.5,43,126.5
37,F#4,11.25,0.25,29,126.5
38,D1,11.5,0.5,35,126.5
39,C4,11.5,0.25,36,126.5
40,A4,11.5,0.25,36,126.5
41,G1,12.0,3.0,43,126.5
42,D2,12.0,3.0,43,126.5
43,B-3,12.0,0.25,42,126.5
44,G4,12.0,0.25,42,126.5
45,C4,12.75,0.25,22,126.5
46,A3,13.0,0.25,36,126.5
47,E-4,13.0,0.25,36,126.5
48,B-3,13.5,0.25,36,126.5
49,D4,13.5,0.25,36,126.5
50,D4,14.25,0.25,27,126.5
51,C4,14.5,0.25,40,126.5
52,F#4,14.5,0.25,40,126.5
53,G1,15.0,2.5,43,126.5
54,D2,15.0,3.0,43,126.5
55,B-3,15.0,0.25,45,126.5
56,G4,15.0,0.25,45,126.5
57,F#4,15.75,0.25,27,126.5
58,D4,16.0,0.25,42,126.5
59,A4,16.0,0.25,42,126.5
60,G4,16.5,0.25,45,126.5
61,B-4,16.5,0.25,45,126.5
62,A4,17.25,0.25,26,126.5
63,G1,17.5,0.5,33,126.5
64,G4,17.5,0.25,45,126.5
65,C5,17.5,0.25,45,126.5
66,D2,18.0,3.0,43,126.5
67,G1,18.0,2.5,33,126.5
68,B-4,18.0,0.25,45,126.5
69,D5,18.0,0.25,45,126.5
70,E-5,18.75,0.25,26,126.5
71,C5,19.0,0.5,38,126.5
72,G5,19.0,0.5,38,126.5
73,B-4,19.5,0.5,38,126.5
74,D5,19.5,0.5,38,126.5
75,G4,20.25,0.25,28,126.5
76,G1,20.5,0.5,33,126.5
77,D4,20.5,0.25,45,126.5
78,B-4,20.5,0.25,45,126.5
79,A4,21.0,0.25,47,126.5
80,C2,21.0,1.0,42,126.5
81,A4,21.75,0.25,36,126.5
82,A1,22.0,0.5,36,126.5
83,E-4,22.0,0.25,45,126.5
84,C5,22.0,0.25,45,126.5
85,B-4,22.5,0.25,46,126.5
86,D2,22.5,1.5,43,126.5
87,F#4,23.25,0.25,29,126.5
88,D1,23.5,0.5,35,126.5
89,C4,23.5,0.25,36,126.5
90,A4,23.5,0.25,36,126.5
91,G1,24.0,2.0,43,126.5
92,D2,24.0,2.0,43,126.5
93,B-3,24.0,0.25,42,126.5
94,G4,24.0,0.25,42,126.5
95,B-3,24.75,0.25,35,126.5
96,D4,25.0,0.5,41,126.5
97,G3,25.5,0.25,39,126.5
98,B-3,26.25,0.25,27,126.5
99,G3,26.5,0.25,40,126.5
100,D4,26.5,0.25,40,126.5
101,F#3,27.0,0.25,45,126.5
102,D4,27.0,0.25,45,126.5
103,D2,27.0,3.0,41,126.5
104,D3,27.0,3.0,41,126.5
105,B-3,27.75,0.25,27,126.5
106,G3,28.0,0.25,42,126.5
107,E4,28.0,0.25,42,126.5
108,A3,28.5,0.25,45,126.5
109,F#4,28.5,0.25,45,126.5
110,D4,29.25,0.25,26,126.5
111,B-3,29.5,0.25,45,126.5
112,G4,29.5,0.25,45,126.5
113,C4,30.0,0.25,45,126.5
114,A4,30.0,0.25,45,126.5
115,F4,30.75,0.25,26,126.5
116,D4,31.0,0.25,46,126.5
117,B4,31.0,0.25,46,126.5
118,E-4,31.5,0.25,50,126.5
119,C5,31.5,0.25,50,126.5
120,G#4,32.25,0.25,28,126.5
121,F4,32.5,0.25,45,126.5
122,D5,32.5,0.25,45,126.5
123,D2,32.5,2.5,41,126.5
124,D3,32.5,2.5,41,126.5
125,E-4,33.0,0.25,46,126.5
126,C5,33.0,0.25,46,126.5
127,G4,33.75,0.25,36,126.5
128,D4,34.0,0.25,45,126.5
129,B4,34.0,0.25,45,126.5
130,E-4,34.5,0.25,46,126.5
131,C5,34.5,0.25,46,126.5
132,G1,35.0,0.5,33,126.5
133,G2,35.0,0.5,33,126.5
134,G#4,35.25,0.25,29,126.5
135,F4,35.5,0.25,36,126.5
136,D5,35.5,0.25,36,126.5
137,E-4,36.0,0.25,42,126.5
138,C5,36.0,0.25,42,126.5
139,G4,36.75,0.25,22,126.5
140,D4,37.0,0.25,36,126.5
141,B4,37.0,0.25,36,126.5
142,E-4,37.5,0.25,36,126.5
143,C5,37.5,0.25,36,126.5
144,D4,38.25,0.25,27,126.5
145,B-3,38.5,0.25,40,126.5
146,F4,38.5,0.25,40,126.5
147,A3,39.0,0.25,45,126.5
148,F4,39.0,0.25,45,126.5
149,E-4,39.75,0.25,27,126.5
150,B-3,40.0,0.25,42,126.5
151,G4,40.0,0.25,42,126.5
152,C4,40.5,0.25,45,126.5
153,A4,40.5,0.25,45,126.5
154,F4,41.25,0.25,26,126.5
155,D4,41.5,0.25,45,126.5
156,B-4,41.5,0.25,45,126.5
157,E-4,42.0,0.25,45,126.5
158,C5,42.0,0.25,45,126.5
159,G1,42.5,3.0,33,126.5
160,G2,42.5,3.0,33,126.5
161,G#4,42.75,0.25,26,126.5
162,F4,43.0,0.25,50,126.5
163,D5,43.0,0.25,50,126.5
164,G4,43.5,0.25,50,126.5
165,E-5,43.5,0.25,50,126.5
166,B4,44.25,0.25,28,126.5
167,G#4,44.5,0.25,50,126.5
168,F5,44.5,0.25,50,126.5
169,C5,45.0,0.25,54,126.5
170,G4,45.0,0.25,54,126.5
171,E-5,45.0,0.25,54,126.5
172,G#4,45.75,0.25,42,126.5
173,F4,46.0,0.25,51,126.5
174,D5,46.0,0.25,51,126.5
175,A4,46.5,0.25,45,126.5
176,E-4,46.5,0.25,45,126.5
177,C5,46.5,0.25,45,126.5
178,G4,47.25,0.25,29,126.5
179,E4,47.5,0.25,36,126.5
180,B-4,47.5,0.25,36,126.5
181,F#4,48.0,0.25,42,126.5
182,A4,48.0,0.25,42,126.5
183,E4,48.75,0.25,22,126.5
184,C#4,49.0,0.25,36,126.5
185,G4,49.0,0.25,36,126.5
186,D4,49.5,0.25,36,126.5
187,F#4,49.5,0.25,36,126.5
188,G1,49.5,3.0,33,126.5
189,G2,49.5,3.0,33,126.5
190,D4,50.25,0.25,27,126.5
191,C4,50.5,0.25,40,126.5
192,F#4,50.5,0.25,40,126.5
193,B-3,51.0,0.25,45,126.5
194,G4,51.0,0.25,45,126.5
195,F#4,51.75,0.25,27,126.5
196,D4,52.0,0.25,42,126.5
197,A4,52.0,0.25,42,126.5
198,G4,52.5,0.25,45,126.5
199,B-4,52.5,0.25,45,126.5
200,A4,53.25,0.25,26,126.5
201,G4,53.5,0.25,45,126.5
202,C5,53.5,0.25,45,126.5
203,G1,53.5,1.0,33,126.5
204,G2,53.5,1.0,33,126.5
205,B-4,54.0,0.25,45,126.5
206,D5,54.0,0.25,45,126.5
207,D2,54.5,2.0,44,126.5
208,D3,54.5,2.0,44,126.5
209,E-5,54.75,0.25,26,126.5
210,C5,55.0,0.5,38,126.5
211,G5,55.0,0.5,38,126.5
212,B-4,55.5,0.5,38,126.5
213,D5,55.5,0.5,38,126.5
214,G4,56.25,0.25,28,126.5
215,D4,56.5,0.25,45,126.5
216,B-4,56.5,0.25,45,126.5
217,A4,57.0,0.25,47,126.5
218,D2,57.5,1.0,44,126.5
219,D3,57.5,1.0,44,126.5
220,A4,57.75,0.25,36,126.5
221,E-4,58.0,0.25,45,126.5
222,C5,58.0,0.25,45,126.5
223,B-4,58.5,0.25,46,126.5
224,B-1,58.5,2.0,36,126.5
225,B-2,58.5,2.0,36,126.5
226,F#4,59.25,0.25,29,126.5
227,C4,59.5,0.25,36,126.5
228,A4,59.5,0.25,36,126.5
229,B-3,60.0,0.25,42,126.5
230,G4,60.0,0.25,42,126.5
231,C4,60.75,0.25,22,126.5
232,A3,61.0,0.25,36,126.5
233,E-4,61.0,0.25,36,126.5
234,B-3,61.5,0.25,36,126.5
235,D4,61.5,0.25,36,126.5
236,B-1,62.0,1.5,36,126.5
237,B-2,62.0,1.5,36,126.5
238,D4,62.25,0.25,27,126.5
239,C4,62.5,0.25,40,126.5
240,F#4,62.5,0.25,40,126.5
241,B-3,63.0,0.25,45,126.5
242,G4,63.0,0.25,45,126.5
243,C2,63.5,1.0,27,126.5
244,C3,63.5,1.0,27,126.5
245,F#4,63.75,0.25,27,126.5
246,D4,64.0,0.25,42,126.5
247,A4,64.0,0.25,42,126.5
248,G4,64.5,0.25,45,126.5
249,B-4,64.5,0.25,45,126.5
250,C#2,64.5,0.5,25,126.5
251,C#3,64.5,0.5,25,126.5
252,D2,65.0,2.5,30,126.5
253,D3,65.0,2.5,30,126.5
254,A4,65.25,0.25,26,126.5
255,G4,65.5,0.25,45,126.5
256,C5,65.5,0.25,45,126.5
257,B-4,66.0,0.25,45,126.5
258,D5,66.0,0.25,45,126.5
259,E-5,66.75,0.25,26,126.5
260,C5,67.0,0.5,50,126.5
261,G5,67.0,0.5,50,126.5
262,B-4,67.5,0.5,50,126.5
263,D5,67.5,0.5,50,126.5
264,D2,67.5,0.25,27,126.5
265,D3,67.5,0.25,27,126.5
266,G1,68.0,0.25,36,126.5
267,G2,68.0,0.25,36,126.5
268,G4,68.25,0.25,28,126.5
269,D4,68.5,0.25,45,126.5
270,B-4,68.5,0.25,45,126.5
271,A4,69.0,0.25,47,126.5
272,G1,69.0,0.25,31,126.5
273,G2,69.0,0.25,31,126.5
274,G1,69.5,0.25,36,126.5
275,G2,69.5,0.25,36,126.5
276,A4,69.75,0.25,36,126.5
277,E-4,70.0,0.25,45,126.5
278,C5,70.0,0.25,45,126.5
279,B-4,70.5,0.25,46,126.5
280,G1,70.5,0.5,32,126.5
281,G2,70.5,0.5,41,126.5
282,G1,71.0,2.5,32,126.5
283,G2,71.0,3.0,41,126.5
284,F#4,71.25,0.25,29,126.5
285,C4,71.5,0.25,36,126.5
286,A4,71.5,0.25,36,126.5
287,B-3,72.0,0.25,42,126.5
288,G4,72.0,0.25,42,126.5
289,B-3,72.75,0.25,35,126.5
290,D4,73.0,0.5,41,126.5
291,G3,73.5,0.25,39,126.5
292,G1,73.5,0.5,33,126.5
293,C2,74.0,1.0,42,126.5
294,G2,74.0,1.5,41,126.5
295,B-3,74.25,0.25,27,126.5
296,G3,74.5,0.25,40,126.5
297,D4,74.5,0.25,40,126.5
298,A1,75.0,0.5,36,126.5
299,F#3,75.0,0.25,45,126.5
300,D4,75.0,0.25,45,126.5
301,D2,75.5,1.5,43,126.5
302,B-3,75.75,0.25,27,126.5
303,G3,76.0,0.25,42,126.5
304,E4,76.0,0.25,42,126.5
305,D1,76.5,0.5,35,126.5
306,A3,76.5,0.25,45,126.5
307,F#4,76.5,0.25,45,126.5
308,G1,77.0,3.0,43,126.5
309,D2,77.0,3.0,43,126.5
310,D4,77.25,0.25,26,126.5
311,B-3,77.5,0.25,45,126.5
312,G4,77.5,0.25,45,126.5
313,C4,78.0,0.25,45,126.5
314,A4,78.0,0.25,45,126.5
315,F4,78.75,0.25,26,126.5
316,D4,79.0,0.25,46,126.5
317,B4,79.0,0.25,46,126.5
318,E-4,79.5,0.25,50,126.5
319,C5,79.5,0.25,50,126.5
320,G1,80.0,1.0,43,126.5
321,D2,80.0,3.0,43,126.5
322,G#4,80.25,0.25,28,126.5
323,F4,80.5,0.25,45,126.5
324,D5,80.5,0.25,45,126.5
325,G1,81.0,1.5,33,126.5
326,E-4,81.0,0.25,46,126.5
327,C5,81.0,0.25,46,126.5
328,G4,81.75,0.25,36,126.5
329,D4,82.0,0.25,45,126.5
330,B4,82.0,0.25,45,126.5
331,G1,82.5,0.5,33,126.5
332,E-4,82.5,0.25,46,126.5
333,C5,82.5,0.25,46,126.5
334,D2,83.0,3.0,43,126.5
335,G1,83.0,2.5,33,126.5
336,G#4,83.25,0.25,29,126.5
337,F4,83.5,0.25,36,126.5
338,D5,83.5,0.25,36,126.5
339,E-4,84.0,0.25,42,126.5
340,C5,84.0,0.25,42,126.5
341,G4,84.75,0.25,22,126.5
342,D4,85.0,0.25,36,126.5
343,B4,85.0,0.25,36,126.5
344,G1,85.5,0.5,33,126.5
345,E-4,85.5,0.25,36,126.5
346,C5,85.5,0.25,36,126.5
347,C2,86.0,1.0,42,126.5
348,D4,86.25,0.25,27,126.5
349,B-3,86.5,0.25,40,126.5
350,F4,86.5,0.25,40,126.5
351,A1,87.0,0.5,36,126.5
352,A3,87.0,0.25,45,126.5
353,F4,87.0,0.25,45,126.5
354,D2,87.5,1.5,43,126.5
355,E-4,87.75,0.25,27,126.5
356,B-3,88.0,0.25,42,126.5
357,G4,88.0,0.25,42,126.5
358,D1,88.5,0.5,35,126.5
359,C4,88.5,0.25,45,126.5
360,A4,88.5,0.25,45,126.5
361,G1,89.0,2.0,43,126.5
362,D2,89.0,2.0,43,126.5
363,F4,89.25,0.25,26,126.5
364,D4,89.5,0.25,45,126.5
365,B-4,89.5,0.25,45,126.5
366,E-4,90.0,0.25,45,126.5
367,C5,90.0,0.25,45,126.5
368,G#4,90.75,0.25,26,126.5
369,F4,91.0,0.25,50,126.5
370,D5,91.0,0.25,50,126.5
371,G4,91.5,0.25,50,126.5
372,E-5,91.5,0.25,50,126.5
373,D2,92.0,3.0,41,126.5
374,D3,92.0,3.0,41,126.5
375,B4,92.25,0.25,28,126.5
376,G#4,92.5,0.25,50,126.5
377,F5,92.5,0.25,50,126.5
378,C5,93.0,0.25,54,126.5
379,G4,93.0,0.25,54,126.5
380,E-5,93.0,0.25,54,126.5
381,G#4,93.75,0.25,42,126.5
382,F4,94.0,0.25,51,126.5
383,D5,94.0,0.25,51,126.5
384,A4,94.5,0.25,45,126.5
385,E-4,94.5,0.25,45,126.5
386,C5,94.5,0.25,45,126.5
387,G4,95.25,0.25,29,126.5
388,E4,95.5,0.25,36,126.5
389,B-4,95.5,0.25,36,126.5
390,F#4,96.0,0.25,42,126.5
391,A4,96.0,0.25,42,126.5
392,E4,96.75,0.25,22,126.5
393,C#4,97.0,0.25,36,126.5
394,G4,97.0,0.25,36,126.5
395,D4,97.5,0.25,36,126.5
396,F#4,97.5,0.25,36,126.5
397,D2,97.5,2.5,41,126.5
398,D3,97.5,2.5,41,126.5
399,D4,98.25,0.25,27,126.5
400,C4,98.5,0.25,40,126.5
401,F#4,98.5,0.25,40,126.5
402,B-3,99.0,0.25,45,126.5
403,G4,99.0,0.25,45,126.5
404,F#4,99.75,0.188,27,126.5
405,D4,100.0,0.188,42,126.5
406,A4,100.0,0.188,42,126.5
407,G1,100.0,0.5,33,126.5
408,G2,100.0,0.5,33,126.5
409,G4,100.5,0.188,45,126.5
410,B-4,100.5,0.188,45,126.5
411,A4,101.25,0.25,26,126.5
412,G4,101.5,0.25,45,126.5
413,C5,101.5,0.25,45,126.5
414,B-4,102.0,0.25,45,126.5
415,D5,102.0,0.25,45,126.5
416,E-5,102.75,0.25,26,126.5
417,C5,103.0,0.5,38,126.5
418,G5,103.0,0.5,38,126.5
419,B-4,103.5,0.5,38,126.5
420,D5,103.5,0.5,38,126.5
421,G4,104.25,0.25,28,126.5
422,D4,104.5,0.25,45,126.5
423,B-4,104.5,0.25,45,126.5
424,A4,105.0,0.25,47,126.5
425,A4,105.75,0.25,36,126.5
426,E-4,106.0,0.25,45,126.5
427,C5,106.0,0.25,45,126.5
428,B-4,106.5,0.25,46,126.5
429,F#4,107.25,0.25,29,126.5
430,C4,107.5,0.25,36,126.5
431,A4,107.5,0.25,36,126.5
432,G1,107.5,3.0,33,126.5
433,G2,107.5,3.0,33,126.5
434,B-3,108.0,0.25,42,126.5
435,G4,108.0,0.25,42,126.5
436,C4,108.75,0.25,22,126.5
437,A3,109.0,0.25,36,126.5
438,E-4,109.0,0.25,36,126.5
439,B-3,109.5,0.25,36,126.5
440,D4,109.5,0.25,36,126.5
441,D4,110.25,0.25,27,126.5
442,C4,110.5,0.25,40,126.5
443,F#4,110.5,0.25,40,126.5
444,B-3,111.0,0.25,45,126.5
445,G4,111.0,0.25,45,126.5
446,F#4,111.75,0.25,27,126.5
447,D4,112.0,0.25,42,126.5
448,A4,112.0,0.25,42,126.5
449,G4,112.5,0.25,45,126.5
450,B-4,112.5,0.25,45,126.5
451,A4,113.25,0.25,26,126.5
452,G4,113.5,0.25,45,126.5
453,C5,113.5,0.25,45,126.5
454,B-4,114.0,0.25,45,126.5
455,D5,114.0,0.25,45,126.5
456,G1,114.5,3.0,33,126.5
457,G2,114.5,3.0,33,126.5
458,E-5,114.75,0.25,26,126.5
459,C5,115.0,0.5,38,126.5
460,G5,115.0,0.5,38,126.5
461,B-4,115.5,0.5,38,126.5
462,D5,115.5,0.5,38,126.5
463,G4,116.25,0.25,28,126.5
464,D4,116.5,0.25,45,126.5
465,B-4,116.5,0.25,45,126.5
466,A4,117.0,0.25,47,126.5
467,A4,117.75,0.25,36,126.5
468,E-4,118.0,0.25,45,126.5
469,C5,118.0,0.25,45,126.5
470,B-4,118.5,0.25,46,126.5
471,G1,118.5,1.0,33,126.5
472,G2,118.5,1.0,33,126.5
473,F#4,119.25,0.25,29,126.5
474,C4,119.5,0.25,36,126.5
475,A4,119.5,0.25,36,126.5
476,D2,119.5,2.0,45,126.5
477,D3,119.5,2.0,45,126.5
478,B-3,120.0,0.25,42,126.5
479,G4,120.0,0.25,42,126.5
480,B-3,120.75,0.25,35,126.5
481,D4,121.0,0.5,41,126.5
482,G3,121.5,0.25,39,126.5
483,F3,122.25,0.25,31,126.5
484,B-3,122.5,0.5,46,126.5
485,D2,122.5,1.0,45,126.5
486,D3,122.5,1.0,45,126.5
487,D3,123.0,0.5,51,126.5
488,B-1,123.5,2.0,38,126.5
489,B-2,123.5,2.0,38,126.5
490,F4,123.75,0.25,33,126.5
491,B-4,123.938,0.562,46,126.5
492,D4,124.5,0.5,43,126.5
493,G3,125.25,0.25,29,126.5
494,B-3,125.438,0.562,42,126.5
495,C3,126.0,0.5,51,126.5
496,G4,126.75,0.25,31,126.5
497,B-4,126.938,0.562,58,126.5
498,B-1,127.0,1.5,38,126.5
499,B-2,127.0,1.5,38,126.5
500,C4,127.5,0.5,54,126.5
501,G3,128.25,0.25,29,126.5
502,B-3,128.438,0.562,55,126.5
503,C2,128.5,1.0,27,126.5
504,C3,128.5,1.0,27,126.5
505,C3,129.0,0.5,51,126.5
506,C#2,129.5,0.5,25,126.5
507,C#3,129.5,0.5,25,126.5
508,G4,129.75,0.25,31,126.5
509,B-4,129.938,0.562,52,126.5
510,D2,130.0,2.5,30,126.5
511,D3,130.0,2.5,30,126.5
512,C4,130.5,0.5,51,126.5
513,F3,131.25,0.25,36,126.5
514,A3,131.438,0.562,49,126.5
515,C3,132.0,0.5,51,126.5
516,D2,132.5,0.25,27,126.5
517,D3,132.5,0.25,27,126.5
518,F4,132.75,0.25,31,126.5
519,A4,132.938,0.562,48,126.5
520,G1,133.0,0.25,36,126.5
521,G2,133.0,0.25,36,126.5
522,C4,133.5,0.5,41,126.5
523,G1,134.0,0.188,31,126.5
524,G2,134.0,0.188,31,126.5
525,F3,134.25,0.25,29,126.5
526,B-3,134.438,0.562,42,126.5
527,G1,134.5,0.188,36,126.5
528,G2,134.5,0.188,36,126.5
529,D3,135.0,0.5,51,126.5
530,G1,135.5,0.5,32,126.5
531,G2,135.5,0.5,41,126.5
532,F4,135.75,0.25,33,126.5
533,B-4,135.938,0.562,57,126.5
534,G1,136.0,2.5,32,126.5
535,G2,136.0,3.0,41,126.5
536,D4,136.5,0.5,43,126.5
537,G3,137.25,0.25,29,126.5
538,B-3,137.438,0.562,50,126.5
539,C3,138.0,0.5,51,126.5
540,G1,138.5,0.5,33,126.5
541,G4,138.75,0.25,31,126.5
542,B-4,138.938,0.562,58,126.5
543,C2,139.0,1.0,42,126.5
544,G2,139.0,1.5,41,126.5
545,C4,139.5,0.5,54,126.5
546,A1,140.0,0.5,36,126.5
547,G3,140.25,0.25,29,126.5
548,B-3,140.438,0.562,55,126.5
549,D2,140.5,1.5,43,126.5
550,C3,141.0,0.5,51,126.5
551,D1,141.5,0.5,35,126.5
552,G4,141.75,0.25,31,126.5
553,B-4,141.938,0.562,57,126.5
554,G1,142.0,3.0,43,126.5
555,D2,142.0,3.0,43,126.5
556,C4,142.5,0.5,51,126.5
557,F3,143.25,0.25,36,126.5
558,A3,143.438,0.562,49,126.5
559,C3,144.0,0.5,51,126.5
560,F4,144.75,0.25,31,126.5
561,A4,144.938,0.562,48,126.5
562,G1,145.0,1.0,43,126.5
563,D2,145.0,3.0,43,126.5
564,C4,145.5,0.5,41,126.5
565,G1,146.0,1.5,42,126.5
566,B-3,146.25,0.25,29,126.5
567,D4,146.438,0.562,42,126.5
568,F3,147.0,0.5,51,126.5
569,G1,147.5,0.5,42,126.5
570,B-4,147.75,0.25,33,126.5
571,D5,147.938,0.562,57,126.5
572,D2,148.0,3.0,43,126.5
573,G1,148.0,2.5,42,126.5
574,F4,148.5,0.5,43,126.5
575,B3,149.25,0.25,29,126.5
576,D4,149.438,0.562,50,126.5
577,F3,150.0,0.5,51,126.5
578,G1,150.5,0.5,33,126.5
579,B4,150.75,0.25,31,126.5
580,D5,150.938,0.562,58,126.5
581,C2,151.0,1.0,42,126.5
582,F4,151.5,0.5,54,126.5
583,A1,152.0,0.5,36,126.5
584,B3,152.25,0.25,29,126.5
585,D4,152.438,0.562,55,126.5
586,D2,152.5,1.5,43,126.5
587,G3,153.0,0.5,51,126.5
588,D1,153.5,0.5,35,126.5
589,B4,153.75,0.25,31,126.5
590,D5,153.938,0.562,57,126.5
591,G1,154.0,2.0,43,126.5
592,D2,154.0,2.0,43,126.5
593,G4,154.5,0.5,51,126.5
594,C4,155.25,0.25,36,126.5
595,E-4,155.438,0.562,49,126.5
596,G3,156.0,0.5,51,126.5
597,C5,156.75,0.25,31,126.5
598,B-1,156.875,0.125,43,126.5
599,E-5,156.938,0.562,48,126.5
600,B-2,157.0,1.375,51,126.5
601,B-1,157.0,1.375,43,126.5
602,G4,157.5,0.5,41,126.5
603,C4,158.25,0.25,29,126.5
604,C2,158.375,0.75,49,126.5
605,E-4,158.438,0.562,42,126.5
606,C3,158.5,0.625,58,126.5
607,G3,159.0,0.5,51,126.5
608,D2,159.125,0.75,51,126.5
609,D3,159.25,0.625,62,126.5
610,C5,159.75,0.25,33,126.5
611,E-2,159.875,0.125,54,126.5
612,E-5,159.938,0.562,57,126.5
613,E-3,160.0,1.375,64,126.5
614,E-2,160.0,1.375,54,126.5
615,G4,160.5,0.5,43,126.5
616,C#4,161.25,0.25,29,126.5
617,B-2,161.375,1.625,48,126.5
618,E4,161.438,0.562,50,126.5
619,B-3,161.5,1.5,57,126.5
620,G3,162.0,0.5,51,126.5
621,C#5,162.75,0.25,31,126.5
622,E5,162.938,0.562,58,126.5
623,B-2,163.0,0.625,48,126.5
624,G4,163.5,0.5,54,126.5
625,G2,163.625,0.75,49,126.5
626,G3,163.75,0.625,58,126.5
627,C#4,164.25,0.25,29,126.5
628,E-2,164.375,0.75,51,126.5
629,E4,164.438,0.562,55,126.5
630,E-3,164.5,0.625,62,126.5
631,A3,165.0,0.5,51,126.5
632,C2,165.125,0.75,47,126.5
633,C3,165.25,0.625,56,126.5
634,C#5,165.75,0.25,31,126.5
635,F2,165.875,0.125,42,126.5
636,E5,165.938,0.562,57,126.5
637,F3,166.0,1.375,51,126.5
638,F2,166.0,1.375,42,126.5
639,A4,166.5,0.5,51,126.5
640,A3,167.25,0.25,36,126.5
641,F1,167.375,1.5,33,126.5
642,D4,167.438,0.562,49,126.5
643,F2,167.5,1.375,52,126.5
644,D3,168.0,0.5,51,126.5
645,A4,168.75,0.25,31,126.5
646,B-1,168.875,0.125,43,126.5
647,D5,168.938,0.562,48,126.5
648,B-2,169.0,1.375,51,126.5
649,B-1,169.0,1.375,43,126.5
650,D4,169.5,0.5,41,126.5
651,F3,170.25,0.25,29,126.5
652,C2,170.375,0.75,49,126.5
653,B-3,170.438,0.562,42,126.5
654,C3,170.5,0.625,58,126.5
655,D3,171.0,0.5,51,126.5
656,D2,171.125,0.75,51,126.5
657,D3,171.25,0.625,62,126.5
658,F4,171.75,0.25,33,126.5
659,E-2,171.875,0.125,54,126.5
660,B-4,171.938,0.562,57,126.5
661,E-3,172.0,1.375,64,126.5
662,E-2,172.0,1.375,54,126.5
663,D4,172.5,0.5,43,126.5
664,F#3,173.25,0.25,29,126.5
665,B-2,173.375,1.625,48,126.5
666,B-3,173.438,0.562,50,126.5
667,B-3,173.5,1.5,57,126.5
668,C3,174.0,0.5,51,126.5
669,F#4,174.75,0.25,31,126.5
670,B-4,174.938,0.562,58,126.5
671,B-2,175.0,0.625,48,126.5
672,C4,175.5,0.5,54,126.5
673,G2,175.625,0.75,49,126.5
674,G3,175.75,0.625,58,126.5
675,F#3,176.25,0.25,29,126.5
676,E-2,176.375,0.75,51,126.5
677,B-3,176.438,0.562,55,126.5
678,E-3,176.5,0.625,62,126.5
679,C3,177.0,0.5,62,126.5
680,C2,177.125,0.75,47,126.5
681,C3,177.25,0.625,56,126.5
682,F#4,177.75,0.25,33,126.5
683,F2,177.875,0.125,42,126.5
684,B-4,177.938,0.562,57,126.5
685,F3,178.0,1.375,51,126.5
686,F2,178.0,1.375,42,126.5
687,F3,179.25,0.25,29,126.5
688,F1,179.375,1.5,33,126.5
689,B-3,179.438,0.562,57,126.5
690,F2,179.5,1.375,52,126.5
691,B-2,180.0,0.5,62,126.5
692,F4,180.75,0.25,31,126.5
693,D2,180.875,0.125,43,126.5
694,B-4,180.938,0.562,62,126.5
695,D3,181.0,1.375,51,126.5
696,D2,181.0,1.375,43,126.5
697,B-3,181.5,0.5,56,126.5
698,B-3,182.25,0.25,39,126.5
699,E-2,182.375,0.75,49,126.5
700,D4,182.438,0.562,55,126.5
701,E-3,182.5,0.625,58,126.5
702,F3,183.0,0.5,51,126.5
703,F2,183.125,0.75,51,126.5
704,F3,183.25,0.625,62,126.5
705,B-4,183.75,0.25,33,126.5
706,G2,183.875,0.125,54,126.5
707,D5,183.938,0.562,57,126.5
708,G3,184.0,1.375,64,126.5
709,G2,184.0,1.375,54,126.5
710,F4,184.5,0.5,43,126.5
711,B-3,185.25,0.25,29,126.5
712,D3,185.375,1.625,48,126.5
713,D4,185.438,0.562,50,126.5
714,D4,185.5,1.5,57,126.5
715,E3,186.0,0.5,51,126.5
716,B-4,186.75,0.25,31,126.5
717,D5,186.938,0.562,58,126.5
718,D3,187.0,0.625,48,126.5
719,E4,187.5,0.5,54,126.5
720,B2,187.625,0.75,49,126.5
721,B3,187.75,0.625,58,126.5
722,B-3,188.25,0.25,29,126.5
723,G2,188.375,0.75,51,126.5
724,D4,188.438,0.562,55,126.5
725,G3,188.5,0.625,62,126.5
726,E3,189.0,0.5,62,126.5
727,F2,189.125,0.75,47,126.5
728,F3,189.25,0.625,56,126.5
729,B-4,189.75,0.25,33,126.5
730,E-2,189.875,0.125,42,126.5
731,D5,189.938,0.562,57,126.5
732,E-3,190.0,1.375,51,126.5
733,E-2,190.0,1.375,42,126.5
734,A3,191.25,0.25,29,126.5
735,C2,191.375,1.5,33,126.5
736,D4,191.438,0.562,57,126.5
737,C3,191.5,1.375,52,126.5
738,D3,192.0,0.5,62,126.5
739,A4,192.75,0.25,31,126.5
740,E-2,192.875,0.125,43,126.5
741,D5,192.938,0.562,62,126.5
742,E-3,193.0,1.375,51,126.5
743,E-2,193.0,1.375,43,126.5
744,D4,193.5,0.5,56,126.5
745,G4,194.25,0.25,39,126.5
746,F2,194.375,0.75,49,126.5
747,F3,194.5,0.625,58,126.5
748,F4,194.5,0.25,46,126.5
749,B4,194.5,0.25,46,126.5
750,E-4,195.0,0.25,51,126.5
751,C5,195.0,0.25,51,126.5
752,G2,195.125,0.75,51,126.5
753,G3,195.25,0.625,62,126.5
754,B4,195.75,0.25,31,126.5
755,A2,195.875,0.125,54,126.5
756,A3,196.0,1.375,64,126.5
757,A2,196.0,1.375,54,126.5
758,G4,196.0,0.25,48,126.5
759,D5,196.0,0.25,48,126.5
760,C5,196.5,0.25,51,126.5
761,E-5,196.5,0.25,51,126.5
762,D5,197.25,0.25,29,126.5
763,E3,197.375,1.625,48,126.5
764,E4,197.5,1.5,57,126.5
765,C5,197.5,0.25,51,126.5
766,F5,197.5,0.25,51,126.5
767,E-5,198.0,0.25,51,126.5
768,G5,198.0,0.25,51,126.5
769,G#5,198.75,0.25,29,126.5
770,E3,199.0,0.625,48,126.5
771,F5,199.0,0.5,44,126.5
772,C6,199.0,0.5,44,126.5
773,E-5,199.5,0.5,44,126.5
774,G5,199.5,0.5,44,126.5
775,C#3,199.625,0.75,49,126.5
776,C#4,199.75,0.625,58,126.5
777,C5,200.25,0.25,32,126.5
778,A2,200.375,0.75,51,126.5
779,A3,200.5,0.625,62,126.5
780,G4,200.5,0.25,51,126.5
781,E-5,200.5,0.25,51,126.5
782,D5,201.0,0.25,54,126.5
783,G2,201.125,0.75,47,126.5
784,G3,201.25,0.625,56,126.5
785,D5,201.75,0.25,41,126.5
786,F#2,201.875,0.125,42,126.5
787,F#3,202.0,1.375,51,126.5
788,F#2,202.0,1.375,42,126.5
789,G#4,202.0,0.25,51,126.5
790,F5,202.0,0.25,51,126.5
791,E-5,202.5,0.25,52,126.5
792,B4,203.25,0.25,33,126.5
793,D2,203.375,1.5,33,126.5
794,D3,203.5,1.375,52,126.5
795,F4,203.5,0.25,41,126.5
796,D5,203.5,0.25,41,126.5
797,E-4,204.0,0.25,48,126.5
798,C5,204.0,0.25,48,126.5
799,F4,204.75,0.25,25,126.5
800,B-1,204.875,0.125,43,126.5
801,B-2,205.0,1.375,51,126.5
802,B-1,205.0,1.375,43,126.5
803,D4,205.0,0.25,41,126.5
804,G#4,205.0,0.25,41,126.5
805,E-4,205.5,0.25,41,126.5
806,G4,205.5,0.25,41,126.5
807,G4,206.25,0.25,31,126.5
808,C2,206.375,0.75,49,126.5
809,C3,206.5,0.625,58,126.5
810,C4,206.5,0.25,46,126.5
811,F#4,206.5,0.25,46,126.5
812,B-3,207.0,0.25,51,126.5
813,G4,207.0,0.25,51,126.5
814,D2,207.125,0.75,51,126.5
815,D3,207.25,0.625,62,126.5
816,F#4,207.75,0.25,31,126.5
817,E-2,207.875,0.125,54,126.5
818,E-3,208.0,1.375,64,126.5
819,E-2,208.0,1.375,54,126.5
820,D4,208.0,0.25,48,126.5
821,A4,208.0,0.25,48,126.5
822,G4,208.5,0.25,51,126.5
823,B-4,208.5,0.25,51,126.5
824,A4,209.25,0.25,29,126.5
825,B-2,209.375,1.625,48,126.5
826,B-3,209.5,1.5,62,126.5
827,G4,209.5,0.25,51,126.5
828,C5,209.5,0.25,51,126.5
829,B-4,210.0,0.25,51,126.5
830,D5,210.0,0.25,51,126.5
831,E-5,210.75,0.25,29,126.5
832,B-2,211.0,0.625,48,126.5
833,C5,211.0,0.5,52,126.5
834,G5,211.0,0.5,52,126.5
835,B-4,211.5,0.5,52,126.5
836,D5,211.5,0.5,52,126.5
837,G4,212.25,0.25,32,126.5
838,C3,212.375,0.75,49,126.5
839,C4,212.5,0.625,63,126.5
840,D4,212.5,0.25,51,126.5
841,B-4,212.5,0.25,51,126.5
842,A4,213.0,0.25,54,126.5
843,A4,213.75,0.25,41,126.5
844,E-4,214.0,0.25,51,126.5
845,C5,214.0,0.25,51,126.5
846,D3,214.0,2.875,59,126.5
847,D4,214.0,2.875,59,126.5
848,B-4,214.5,0.25,52,126.5
849,F#4,215.25,0.25,33,126.5
850,C4,215.5,0.25,41,126.5
851,A4,215.5,0.25,41,126.5
852,B-3,216.0,0.25,48,126.5
853,G4,216.0,0.25,48,126.5
854,B-3,216.75,0.25,40,126.5
855,D2,216.875,0.125,43,126.5
856,D4,217.0,0.5,47,126.5
857,D3,217.0,1.375,51,126.5
858,D2,217.0,1.375,43,126.5
859,G3,217.5,0.25,44,126.5
860,B-3,218.25,0.25,31,126.5
861,E-2,218.375,0.75,49,126.5
862,E-3,218.5,0.625,58,126.5
863,G3,218.5,0.25,46,126.5
864,D4,218.5,0.25,46,126.5
865,F#3,219.0,0.25,51,126.5
866,D4,219.0,0.25,51,126.5
867,F2,219.125,0.75,51,126.5
868,F3,219.25,0.625,62,126.5
869,B-3,219.75,0.25,31,126.5
870,G2,219.875,0.125,54,126.5
871,G3,220.0,1.375,64,126.5
872,G2,220.0,1.375,54,126.5
873,G3,220.0,0.25,48,126.5
874,E4,220.0,0.25,48,126.5
875,A3,220.5,0.25,51,126.5
876,F#4,220.5,0.25,51,126.5
877,D4,221.25,0.25,29,126.5
878,D3,221.375,1.625,48,126.5
879,D4,221.5,1.5,62,126.5
880,B-3,221.5,0.25,51,126.5
881,G4,221.5,0.25,51,126.5
882,C4,222.0,0.25,51,126.5
883,A4,222.0,0.25,51,126.5
884,F4,222.75,0.25,29,126.5
885,D3,223.0,1.375,48,126.5
886,D4,223.0,0.25,52,126.5
887,B4,223.0,0.25,52,126.5
888,E-4,223.5,0.25,57,126.5
889,C5,223.5,0.25,57,126.5
890,G#4,224.25,0.25,32,126.5
891,E3,224.375,1.625,49,126.5
892,E4,224.5,1.5,63,126.5
893,F4,224.5,0.25,51,126.5
894,D5,224.5,0.25,51,126.5
895,E-4,225.0,0.25,52,126.5
896,C5,225.0,0.25,52,126.5
897,G4,225.75,0.25,41,126.5
898,E4,226.0,19/1000,63,126.5
899,D4,226.0,0.25,51,126.5
900,B4,226.0,0.25,51,126.5
901,F#3,226.0,2.25,59,126.5
902,F#4,226.0,2.25,59,126.5
903,E-4,226.5,0.25,52,126.5
904,C5,226.5,0.25,52,126.5
905,G#4,227.25,0.25,33,126.5
906,F4,227.5,0.25,41,126.5
907,D5,227.5,0.25,41,126.5
908,E-4,228.0,0.25,48,126.5
909,C5,228.0,0.25,48,126.5
910,G3,228.25,0.75,54,126.5
911,G4,228.75,0.25,25,126.5
912,C3,229.0,3.0,47,126.5
913,C4,229.0,3.0,47,126.5
914,G3,229.0,3.0,54,126.5
915,D4,229.0,0.25,41,126.5
916,B4,229.0,0.25,41,126.5
917,E-4,229.5,0.25,41,126.5
918,C5,229.5,0.25,41,126.5
919,D4,230.25,0.25,31,126.5
920,B-3,230.5,0.25,46,126.5
921,F4,230.5,0.25,46,126.5
922,A3,231.0,0.25,51,126.5
923,F4,231.0,0.25,51,126.5
924,E-4,231.75,0.25,31,126.5
925,C3,232.0,2.5,47,126.5
926,C4,232.0,3.0,47,126.5
927,B-3,232.0,0.25,48,126.5
928,G4,232.0,0.25,48,126.5
929,C4,232.5,0.25,51,126.5
930,A4,232.5,0.25,51,126.5
931,F4,233.25,0.25,29,126.5
932,D4,233.5,0.25,51,126.5
933,B-4,233.5,0.25,51,126.5
934,E-4,234.0,0.25,51,126.5
935,C5,234.0,0.25,51,126.5
936,C3,234.5,0.5,37,126.5
937,G#4,234.75,0.25,29,126.5
938,F3,235.0,1.0,48,126.5
939,C4,235.0,1.5,47,126.5
940,F4,235.0,0.25,57,126.5
941,D5,235.0,0.25,57,126.5
942,G4,235.5,0.25,57,126.5
943,E-5,235.5,0.25,57,126.5
944,D3,236.0,0.5,41,126.5
945,B4,236.25,0.25,32,126.5
946,G3,236.5,1.5,49,126.5
947,G#4,236.5,0.25,57,126.5
948,F5,236.5,0.25,57,126.5
949,C5,237.0,0.25,62,126.5
950,G4,237.0,0.25,62,126.5
951,E-5,237.0,0.25,62,126.5
952,G2,237.5,0.5,40,126.5
953,G#4,237.75,0.25,47,126.5
954,C3,238.0,2.5,49,126.5
955,G3,238.0,3.0,49,126.5
956,G2,238.0,3.0,40,126.5
957,F4,238.0,0.25,57,126.5
958,D5,238.0,0.25,57,126.5
959,A4,238.5,0.25,50,126.5
960,E-4,238.5,0.25,50,126.5
961,C5,238.5,0.25,50,126.5
962,G4,239.25,0.25,31,126.5
963,E4,239.5,0.25,38,126.5
964,B-4,239.5,0.25,38,126.5
965,F#4,240.0,0.25,44,126.5
966,A4,240.0,0.25,44,126.5
967,D3,240.5,0.5,50,126.5
968,E4,240.75,0.25,22,126.5
969,G3,241.0,3.0,49,126.5
970,G2,241.0,3.0,40,126.5
971,D3,241.0,3.0,50,126.5
972,C#4,241.0,0.25,37,126.5
973,G4,241.0,0.25,37,126.5
974,D4,241.5,0.25,36,126.5
975,F#4,241.5,0.25,36,126.5
976,D4,242.25,0.25,27,126.5
977,C4,242.5,0.25,40,126.5
978,F#4,242.5,0.25,40,126.5
979,B-3,243.0,0.25,45,126.5
980,G4,243.0,0.25,45,126.5
981,F#4,243.75,0.25,27,126.5
982,G3,244.0,3.0,49,126.5
983,G2,244.0,2.5,40,126.5
984,D3,244.0,3.0,50,126.5
985,D4,244.0,0.25,42,126.5
986,A4,244.0,0.25,42,126.5
987,G4,244.5,0.25,45,126.5
988,B-4,244.5,0.25,45,126.5
989,A4,245.25,0.25,26,126.5
990,G4,245.5,0.25,45,126.5
991,C5,245.5,0.25,45,126.5
992,B-4,246.0,0.25,45,126.5
993,D5,246.0,0.25,45,126.5
994,G2,246.5,0.5,37,126.5
995,E-5,246.75,0.25,26,126.5
996,C3,247.0,1.0,48,126.5
997,G3,247.0,1.5,49,126.5
998,C5,247.0,0.5,38,126.5
999,G5,247.0,0.5,38,126.5
1000,B-4,247.5,0.5,38,126.5
1001,D5,247.5,0.5,38,126.5
1002,A2,248.0,0.5,41,126.5
1003,G4,248.25,0.25,28,126.5
1004,D3,248.5,1.5,49,126.5
1005,D4,248.5,0.25,45,126.5
1006,B-4,248.5,0.25,45,126.5
1007,A4,249.0,0.25,47,126.5
1008,D2,249.5,0.5,40,126.5
1009,A4,249.75,0.25,36,126.5
1010,D3,250.0,3.0,49,126.5
1011,D2,250.0,3.0,40,126.5
1012,E-4,250.0,0.25,45,126.5
1013,C5,250.0,0.25,45,126.5
1014,B-4,250.5,0.25,46,126.5
1015,F#4,251.25,0.25,29,126.5
1016,C4,251.5,0.25,36,126.5
1017,A4,251.5,0.25,36,126.5
1018,B-3,252.0,0.25,42,126.5
1019,G4,252.0,0.25,42,126.5
1020,C4,252.75,0.25,22,126.5
1021,D3,253.0,2.5,49,126.5
1022,D2,253.0,2.5,40,126.5
1023,A3,253.0,0.25,36,126.5
1024,E-4,253.0,0.25,36,126.5
1025,B-3,253.5,0.25,36,126.5
1026,D4,253.5,0.25,36,126.5
1027,D4,254.25,0.25,27,126.5
1028,C4,254.5,0.25,40,126.5
1029,F#4,254.5,0.25,40,126.5
1030,B-3,255.0,0.25,45,126.5
1031,G4,255.0,0.25,45,126.5
1032,G1,255.5,0.5,37,126.5
1033,G2,255.5,0.5,37,126.5
1034,F#4,255.75,0.25,27,126.5
1035,D4,256.0,0.25,42,126.5
1036,A4,256.0,0.25,42,126.5
1037,G1,256.0,3.0,37,126.5
1038,G2,256.0,3.0,37,126.5
1039,G4,256.5,0.25,45,126.5
1040,B-4,256.5,0.25,45,126.5
1041,A4,257.25,0.25,26,126.5
1042,G4,257.5,0.25,45,126.5
1043,C5,257.5,0.25,45,126.5
1044,B-4,258.0,0.25,45,126.5
1045,D5,258.0,0.25,45,126.5
1046,E-5,258.75,0.25,26,126.5
1047,C5,259.0,0.5,38,126.5
1048,G5,259.0,0.5,38,126.5
1049,G1,259.0,3.0,37,126.5
1050,G2,259.0,3.0,37,126.5
1051,B-4,259.5,0.5,38,126.5
1052,D5,259.5,0.5,38,126.5
1053,G4,260.25,0.25,28,126.5
1054,D4,260.5,0.25,45,126.5
1055,B-4,260.5,0.25,45,126.5
1056,A4,261.0,0.25,47,126.5
1057,A4,261.75,0.25,36,126.5
1058,E-4,262.0,0.25,45,126.5
1059,C5,262.0,0.25,45,126.5
1060,G1,262.0,2.5,37,126.5
1061,G2,262.0,2.5,37,126.5
1062,B-4,262.5,0.25,46,126.5
1063,F#4,263.25,0.25,29,126.5
1064,C4,263.5,0.25,36,126.5
1065,A4,263.5,0.25,36,126.5
1066,B-3,264.0,0.25,42,126.5
1067,G4,264.0,0.25,42,126.5
1068,F2,264.5,0.5,50,126.5
1069,F3,264.5,0.5,50,126.5
1070,B-3,264.75,0.25,35,126.5
1071,D4,265.0,0.5,41,126.5
1072,F2,265.0,2.5,50,126.5
1073,F3,265.0,2.5,50,126.5
1074,G3,265.5,0.25,39,126.5
1075,A2,266.25,0.25,81,126.5
1076,A2,266.5,0.5,76,126.5
1077,A2,267.0,2.25,78,126.5
1078,B-1,267.5,0.5,44,126.5
1079,B-2,267.5,0.5,44,126.5
1080,F3,267.75,0.25,64,126.5
1081,D3,267.75,0.25,64,126.5
1082,D3,268.0,0.5,66,126.5
1083,F3,268.0,0.5,66,126.5
1084,B-1,268.0,3.0,44,126.5
1085,B-2,268.0,3.0,44,126.5
1086,D3,268.5,0.75,71,126.5
1087,F3,268.5,0.75,71,126.5
1088,A3,269.25,0.25,74,126.5
1089,A3,269.5,0.5,71,126.5
1090,A3,270.0,2.0,76,126.5
1091,A4,270.75,0.25,59,126.5
1092,F4,270.75,0.25,59,126.5
1093,F4,271.0,0.5,59,126.5
1094,A4,271.0,0.5,59,126.5
1095,B-1,271.0,1.5,44,126.5
1096,B-2,271.0,1.5,44,126.5
1097,F4,271.5,0.5,64,126.5
1098,A4,271.5,0.5,64,126.5
1099,A2,272.25,0.25,76,126.5
1100,A2,272.5,0.5,76,126.5
1101,C2,272.5,1.0,29,126.5
1102,C3,272.5,1.0,29,126.5
1103,A2,273.0,2.25,78,126.5
1104,C#2,273.5,0.5,27,126.5
1105,C#3,273.5,0.5,27,126.5
1106,G3,273.75,0.25,64,126.5
1107,E3,273.75,0.25,64,126.5
1108,E3,274.0,0.5,66,126.5
1109,G3,274.0,0.5,66,126.5
1110,D2,274.0,3.0,31,126.5
1111,D3,274.0,3.0,31,126.5
1112,E3,274.5,0.75,71,126.5
1113,G3,274.5,0.75,71,126.5
1114,A3,275.25,0.25,76,126.5
1115,A3,275.5,0.5,76,126.5
1116,A3,276.0,2.0,79,126.5
1117,A4,276.75,0.25,59,126.5
1118,G4,276.75,0.25,59,126.5
1119,G4,277.0,0.5,59,126.5
1120,A4,277.0,0.5,59,126.5
1121,G4,277.5,0.5,64,126.5
1122,A4,277.5,0.5,64,126.5
1123,A2,278.25,0.25,75,126.5
1124,A2,278.5,0.5,76,126.5
1125,A2,279.0,2.0,78,126.5
1126,D2,279.5,2.5,31,126.5
1127,D3,279.5,2.5,31,126.5
1128,F3,279.75,0.25,64,126.5
1129,D3,279.75,0.25,64,126.5
1130,D3,280.0,0.5,66,126.5
1131,F3,280.0,0.5,66,126.5
1132,D3,280.5,0.5,71,126.5
1133,F3,280.5,0.5,71,126.5
1134,A3,281.25,0.25,74,126.5
1135,A3,281.5,0.5,75,126.5
1136,A3,282.0,2.0,79,126.5
1137,G1,282.0,0.5,32,126.5
1138,G2,282.0,0.5,41,126.5
1139,G1,282.5,2.5,32,126.5
1140,G2,282.5,3.0,41,126.5
1141,A4,282.75,0.25,59,126.5
1142,F4,282.75,0.25,59,126.5
1143,F4,283.0,0.5,59,126.5
1144,A4,283.0,0.5,59,126.5
1145,F4,283.5,0.5,64,126.5
1146,A4,283.5,0.5,64,126.5
1147,F3,284.25,0.25,72,126.5
1148,F3,284.5,0.5,72,126.5
1149,F3,285.0,2.0,78,126.5
1150,G1,285.0,0.5,33,126.5
1151,C2,285.5,1.0,42,126.5
1152,G2,285.5,1.5,41,126.5
1153,D4,285.75,0.25,64,126.5
1154,B3,285.75,0.25,64,126.5
1155,B3,286.0,0.5,66,126.5
1156,D4,286.0,0.5,66,126.5
1157,A1,286.5,0.5,36,126.5
1158,B3,286.5,0.5,71,126.5
1159,D4,286.5,0.5,71,126.5
1160,D2,287.0,1.5,43,126.5
1161,C4,287.25,0.125,71,126.5
1162,G4,287.25,0.125,71,126.5
1163,C4,287.5,0.25,72,126.5
1164,G4,287.5,0.25,72,126.5
1165,D1,288.0,0.5,35,126.5
1166,G4,288.0,0.5,71,126.5
1167,C4,288.0,0.5,71,126.5
1168,D2,288.5,3.0,43,126.5
1169,D1,288.5,3.0,35,126.5
1170,C5,288.75,0.25,70,126.5
1171,C4,288.75,0.25,70,126.5
1172,C4,289.0,0.5,70,126.5
1173,C5,289.0,0.5,70,126.5
1174,C4,289.5,0.5,77,126.5
1175,C5,289.5,0.5,77,126.5
1176,C3,290.25,0.25,73,126.5
1177,C3,290.5,0.5,68,126.5
1178,C3,291.0,1.5,82,126.5
1179,D2,291.5,3.0,43,126.5
1180,D1,291.5,1.5,35,126.5
1181,A3,291.75,0.75,64,126.5
1182,F3,291.75,0.75,64,126.5
1183,D3,292.5,1.5,82,126.5
1184,G1,293.0,1.5,48,126.5
1185,A3,293.25,0.75,64,126.5
1186,F3,293.25,0.75,64,126.5
1187,C3,294.0,1.5,78,126.5
1188,D2,294.5,3.0,43,126.5
1189,G1,294.5,2.5,48,126.5
1190,C4,294.75,0.75,64,126.5
1191,A3,294.75,0.75,64,126.5
1192,C4,296.25,0.25,77,126.5
1193,C5,296.5,0.5,71,126.5
1194,C3,297.0,1.5,82,126.5
1195,G1,297.0,0.5,33,126.5
1196,C2,297.5,1.0,42,126.5
1197,G3,297.75,0.75,64,126.5
1198,E3,297.75,0.75,64,126.5
1199,D3,298.5,1.5,82,126.5
1200,A1,298.5,0.5,36,126.5
1201,D2,299.0,1.5,43,126.5
1202,G3,299.25,0.75,64,126.5
1203,E3,299.25,0.75,64,126.5
1204,C3,300.0,1.5,78,126.5
1205,D1,300.0,0.5,35,126.5
1206,G1,300.5,2.0,43,126.5
1207,D2,300.5,2.0,43,126.5
1208,C4,300.75,0.75,64,126.5
1209,G3,300.75,0.75,64,126.5
1210,C4,302.25,0.25,77,126.5
1211,C5,302.5,0.5,71,126.5
1212,C3,303.0,1.5,82,126.5
1213,D1,303.5,1.0,70,126.5
1214,A3,303.75,0.75,64,126.5
1215,F3,303.75,0.75,64,126.5
1216,B-3,304.25,0.25,55,126.5
1217,D3,304.5,1.5,82,126.5
1218,B-3,304.5,0.5,61,126.5
1219,B-3,305.0,0.75,66,126.5
1220,F3,305.25,0.75,64,126.5
1221,A3,305.25,0.75,64,126.5
1222,E-3,306.0,1.5,78,126.5
1223,C4,306.75,0.75,64,126.5
1224,F#3,306.75,0.75,64,126.5
1225,A2,307.25,0.25,56,126.5
1226,D3,307.25,0.25,56,126.5
1227,A2,307.5,0.5,54,126.5
1228,D3,307.5,0.5,54,126.5
1229,A2,308.0,0.5,58,126.5
1230,D3,308.0,0.5,58,126.5
1231,C4,308.25,0.25,77,126.5
1232,C5,308.5,0.5,71,126.5
1233,F3,309.0,1.5,78,126.5
1234,C#2,309.5,1.0,70,126.5
1235,C#1,309.5,1.0,70,126.5
1236,D4,309.75,0.25,64,126.5
1237,B3,309.75,0.25,64,126.5
1238,B-3,310.25,0.25,55,126.5
1239,B-3,310.5,0.5,61,126.5
1240,B-3,311.0,0.75,66,126.5
1241,F4,311.25,0.25,77,126.5
1242,G5,311.5,0.5,65,126.5
1243,D5,311.5,0.5,65,126.5
1244,E3,312.0,1.5,78,126.5
1245,C4,312.75,0.25,64,126.5
1246,G3,312.75,0.25,64,126.5
1247,A2,313.25,0.25,56,126.5
1248,E3,313.25,0.25,56,126.5
1249,C5,313.5,0.5,83,126.5
1250,A2,313.5,0.5,54,126.5
1251,E3,313.5,0.5,54,126.5
1252,A2,314.0,0.5,58,126.5
1253,E3,314.0,0.5,58,126.5
1254,C3,314.25,0.25,73,126.5
1255,C3,314.5,0.5,68,126.5
1256,C3,315.0,1.5,82,126.5
1257,D2,315.5,1.0,70,126.5
1258,D1,315.5,1.0,70,126.5
1259,A3,315.75,0.75,64,126.5
1260,F3,315.75,0.75,64,126.5
1261,E4,316.25,0.25,55,126.5
1262,D3,316.5,1.5,82,126.5
1263,E4,316.5,0.5,61,126.5
1264,E4,317.0,0.5,66,126.5
1265,A3,317.25,0.75,64,126.5
1266,F3,317.25,0.75,64,126.5
1267,D4,317.75,0.25,61,126.5
1268,C3,318.0,1.5,78,126.5
1269,D4,318.0,0.5,58,126.5
1270,D4,318.5,2.0,62,126.5
1271,C4,318.75,0.75,64,126.5
1272,A3,318.75,0.75,64,126.5
1273,D3,319.25,0.25,56,126.5
1274,F3,319.25,0.25,56,126.5
1275,D3,319.5,0.5,54,126.5
1276,F3,319.5,0.5,54,126.5
1277,D3,320.0,0.5,58,126.5
1278,F3,320.0,0.5,58,126.5
1279,C4,320.25,0.25,77,126.5
1280,C5,320.5,0.5,71,126.5
1281,C3,321.0,1.5,82,126.5
1282,G2,321.5,1.0,70,126.5
1283,G1,321.5,1.0,70,126.5
1284,G3,321.75,0.75,64,126.5
1285,E3,321.75,0.75,64,126.5
1286,G4,322.25,0.25,55,126.5
1287,D3,322.5,1.5,82,126.5
1288,G4,322.5,0.5,61,126.5
1289,G4,323.0,0.5,66,126.5
1290,G3,323.25,0.75,64,126.5
1291,E3,323.25,0.75,64,126.5
1292,C3,323.75,0.125,62,126.5
1293,E3,323.75,0.125,62,126.5
1294,C3,324.0,1.5,78,126.5
1295,C3,324.0,0.25,58,126.5
1296,E3,324.0,0.25,58,126.5
1297,C3,324.5,0.5,62,126.5
1298,E3,324.5,0.5,62,126.5
1299,C4,324.75,0.75,64,126.5
1300,G3,324.75,0.75,64,126.5
1301,C2,325.25,0.25,67,126.5
1302,C3,325.25,0.25,67,126.5
1303,C2,325.5,0.5,64,126.5
1304,C3,325.5,0.5,64,126.5
1305,C2,326.0,0.5,69,126.5
1306,C3,326.0,0.5,69,126.5
1307,C4,326.25,0.25,77,126.5
1308,C5,326.5,0.5,71,126.5
1309,C3,327.0,1.5,82,126.5
1310,F1,327.5,1.0,68,126.5
1311,F2,327.5,1.0,68,126.5
1312,A3,327.75,0.75,64,126.5
1313,F3,327.75,0.75,64,126.5
1314,D3,328.5,1.5,82,126.5
1315,C4,328.5,1.5,83,126.5
1316,F3,329.25,0.75,64,126.5
1317,A3,329.25,0.75,64,126.5
1318,E-3,330.0,1.5,78,126.5
1319,D4,330.0,0.5,82,126.5
1320,F#1,330.5,3.0,68,126.5
1321,F#2,330.5,3.0,68,126.5
1322,C4,330.75,0.75,64,126.5
1323,F#3,330.75,0.75,64,126.5
1324,E-3,331.5,0.5,77,126.5
1325,E-4,332.0,1.5,79,126.5
1326,C4,332.25,0.25,77,126.5
1327,C5,332.5,0.5,71,126.5
1328,F3,333.012,1.5,78,126.5
1329,G1,333.5,1.0,68,126.5
1330,G2,333.5,1.0,68,126.5
1331,D4,333.75,0.25,64,126.5
1332,B3,333.75,0.25,64,126.5
1333,C4,334.5,1.5,83,126.5
1334,F4,335.25,0.25,77,126.5
1335,G5,335.5,0.5,65,126.5
1336,D5,335.5,0.5,65,126.5
1337,E3,336.0,1.5,78,126.5
1338,D4,336.0,0.5,82,126.5
1339,B-1,336.5,3.0,68,126.5
1340,B-2,336.5,3.0,68,126.5
1341,C4,336.75,0.25,64,126.5
1342,G3,336.75,0.25,64,126.5
1343,C5,337.5,0.5,83,126.5
1344,E3,337.5,0.5,77,126.5
1345,E4,338.0,1.5,79,126.5
1346,C3,338.25,0.25,81,126.5
1347,C3,338.5,0.5,76,126.5
1348,C3,339.0,2.25,78,126.5
1349,A2,339.5,1.0,68,126.5
1350,A1,339.5,1.0,68,126.5
1351,A3,339.75,0.25,64,126.5
1352,F#3,339.75,0.25,64,126.5
1353,F#3,340.0,0.5,66,126.5
1354,A3,340.0,0.5,66,126.5
1355,C4,340.5,1.5,83,126.5
1356,F#3,340.5,0.75,71,126.5
1357,A3,340.5,0.75,71,126.5
1358,C4,341.25,0.25,74,126.5
1359,C4,341.5,0.5,71,126.5
1360,C4,342.0,2.0,76,126.5
1361,D4,342.0,0.5,82,126.5
1362,G#1,342.5,3.0,68,126.5
1363,G#2,342.5,3.0,68,126.5
1364,A4,342.75,0.25,59,126.5
1365,F#4,342.75,0.25,59,126.5
1366,F#4,343.0,0.5,59,126.5
1367,A4,343.0,0.5,59,126.5
1368,E-3,343.5,0.5,77,126.5
1369,F#4,343.5,0.5,64,126.5
1370,A4,343.5,0.5,64,126.5
1371,E-4,344.0,1.5,79,126.5
1372,D3,344.25,0.25,76,126.5
1373,D3,344.5,0.5,76,126.5
1374,D3,345.0,2.25,78,126.5
1375,G1,345.5,3.0,68,126.5
1376,G2,345.5,3.0,68,126.5
1377,B-3,345.75,0.25,64,126.5
1378,G3,345.75,0.25,64,126.5
1379,G3,346.0,0.5,66,126.5
1380,B-3,346.0,0.5,66,126.5
1381,G3,346.5,0.5,77,126.5
1382,G3,346.5,0.75,71,126.5
1383,B-3,346.5,0.75,71,126.5
1384,G4,347.0,1.5,79,126.5
1385,D4,347.25,0.25,76,126.5
1386,D4,347.5,0.5,76,126.5
1387,D4,348.0,2.0,79,126.5
1388,C2,348.5,1.0,68,126.5
1389,C3,348.5,1.0,68,126.5
1390,B-4,348.75,0.25,59,126.5
1391,G4,348.75,0.25,59,126.5
1392,G4,349.0,0.5,59,126.5
1393,B-4,349.0,0.5,59,126.5
1394,E4,349.5,0.5,77,126.5
1395,G4,349.5,0.5,64,126.5
1396,B-4,349.5,0.5,64,126.5
1397,E3,350.25,0.25,75,126.5
1398,E3,350.5,0.5,76,126.5
1399,E3,351.0,2.0,78,126.5
1400,F1,351.5,1.0,68,126.5
1401,F2,351.5,1.0,68,126.5
1402,D4,351.75,0.25,64,126.5
1403,B3,351.75,0.25,64,126.5
1404,B3,352.0,0.5,66,126.5
1405,D4,352.0,0.5,66,126.5
1406,C4,352.5,1.5,83,126.5
1407,B3,352.5,0.5,71,126.5
1408,D4,352.5,0.5,71,126.5
1409,D4,353.25,0.25,74,126.5
1410,D4,353.5,0.5,75,126.5
1411,D4,354.0,2.0,79,126.5
1412,D4,354.0,0.5,82,126.5
1413,F#1,354.5,3.0,68,126.5
1414,F#2,354.5,3.0,68,126.5
1415,B4,354.75,0.25,59,126.5
1416,G#4,354.75,0.25,59,126.5
1417,G#4,355.0,0.5,59,126.5
1418,B4,355.0,0.5,59,126.5
1419,E-3,355.5,0.5,77,126.5
1420,G#4,355.5,0.5,64,126.5
1421,B4,355.5,0.5,64,126.5
1422,E-4,356.0,1.5,79,126.5
1423,E3,356.25,0.25,72,126.5
1424,E3,356.5,0.5,72,126.5
1425,E3,357.0,2.0,78,126.5
1426,G1,357.5,1.0,68,126.5
1427,G2,357.5,1.0,68,126.5
1428,C4,357.75,0.25,64,126.5
1429,A3,357.75,0.25,64,126.5
1430,A3,358.0,0.5,66,126.5
1431,C4,358.0,0.5,66,126.5
1432,C4,358.5,1.5,83,126.5
1433,A3,358.5,0.5,71,126.5
1434,C4,358.5,0.5,71,126.5
1435,C4,359.25,0.25,77,126.5
1436,C4,359.5,0.5,78,126.5
1437,C4,360.0,2.0,77,126.5
1438,D4,360.0,0.5,82,126.5
1439,B-1,360.5,3.0,68,126.5
1440,B-2,360.5,3.0,68,126.5
1441,C5,360.75,0.25,63,126.5
1442,A4,360.75,0.25,63,126.5
1443,A4,361.0,0.5,63,126.5
1444,C5,361.0,0.5,63,126.5
1445,E3,361.5,0.5,77,126.5
1446,A4,361.5,0.5,69,126.5
1447,C5,361.5,0.5,69,126.5
1448,E4,362.0,1.5,79,126.5
1449,A3,362.25,0.25,63,126.5
1450,A3,362.5,0.5,64,126.5
1451,A3,363.0,1.5,66,126.5
1452,A2,363.5,1.0,68,126.5
1453,A1,363.5,1.0,68,126.5
1454,F4,363.75,0.125,50,126.5
1455,D4,363.75,0.125,50,126.5
1456,D4,364.0,0.25,50,126.5
1457,F4,364.0,0.25,50,126.5
1458,C4,364.5,1.5,83,126.5
1459,D4,364.5,0.25,57,126.5
1460,F4,364.5,0.25,57,126.5
1461,A3,365.25,0.125,55,126.5
1462,A3,365.5,0.25,55,126.5
1463,A3,366.0,1.5,63,126.5
1464,D4,366.0,0.5,82,126.5
1465,G#1,366.5,3.0,68,126.5
1466,G#2,366.5,3.0,68,126.5
1467,F4,366.75,0.125,46,126.5
1468,D4,366.75,0.125,46,126.5
1469,D4,367.0,0.25,46,126.5
1470,F4,367.0,0.25,46,126.5
1471,E-3,367.5,0.5,77,126.5
1472,D4,367.5,0.25,50,126.5
1473,F4,367.5,0.25,50,126.5
1474,E-4,368.0,1.5,79,126.5
1475,F4,368.25,0.125,63,126.5
1476,F4,368.5,0.25,64,126.5
1477,F4,369.0,1.5,66,126.5
1478,G1,369.5,3.0,68,126.5
1479,G2,369.5,3.0,68,126.5
1480,D5,369.75,0.125,50,126.5
1481,B4,369.75,0.125,50,126.5
1482,B4,370.0,0.25,50,126.5
1483,D5,370.0,0.25,50,126.5
1484,G3,370.5,0.5,77,126.5
1485,B4,370.5,0.25,57,126.5
1486,D5,370.5,0.25,57,126.5
1487,G4,371.0,1.5,79,126.5
1488,F4,371.25,0.125,55,126.5
1489,F4,371.5,0.25,55,126.5
1490,F4,372.0,1.5,63,126.5
1491,C2,372.5,1.0,68,126.5
1492,C3,372.5,1.0,68,126.5
1493,D5,372.75,0.125,46,126.5
1494,B4,372.75,0.125,46,126.5
1495,B4,373.0,0.25,46,126.5
1496,D5,373.0,0.25,46,126.5
1497,E4,373.5,0.5,77,126.5
1498,B4,373.5,0.25,50,126.5
1499,D5,373.5,0.25,50,126.5
1500,G#3,374.25,0.125,63,126.5
1501,G#3,374.5,0.25,64,126.5
1502,G#3,375.0,1.5,66,126.5
1503,C2,375.5,0.5,66,126.5
1504,C1,375.5,0.5,66,126.5
1505,E4,375.75,0.125,50,126.5
1506,D4,375.75,0.125,50,126.5
1507,D4,376.0,0.25,50,126.5
1508,E4,376.0,0.25,50,126.5
1509,E-4,376.25,0.25,55,126.5
1510,E-4,376.5,0.5,61,126.5
1511,D4,376.5,0.25,57,126.5
1512,E4,376.5,0.25,57,126.5
1513,E-4,377.0,0.75,66,126.5
1514,G#3,377.25,0.125,55,126.5
1515,G#3,377.5,0.25,55,126.5
1516,D4,377.75,0.25,59,126.5
1517,G#3,378.0,1.5,63,126.5
1518,D4,378.0,0.5,56,126.5
1519,D4,378.5,2.0,67,126.5
1520,E4,378.75,0.125,46,126.5
1521,D4,378.75,0.125,46,126.5
1522,D4,379.0,0.25,46,126.5
1523,E4,379.0,0.25,46,126.5
1524,D3,379.25,0.25,56,126.5
1525,F#3,379.25,0.25,56,126.5
1526,D4,379.5,0.25,50,126.5
1527,E4,379.5,0.25,50,126.5
1528,D3,379.5,0.5,54,126.5
1529,F#3,379.5,0.5,54,126.5
1530,D3,380.0,0.5,58,126.5
1531,F#3,380.0,0.5,58,126.5
1532,D4,380.25,0.125,63,126.5
1533,D4,380.5,0.25,64,126.5
1534,D4,381.0,1.5,66,126.5
1535,G2,381.5,0.5,70,126.5
1536,G1,381.5,0.5,70,126.5
1537,B4,381.75,0.125,50,126.5
1538,G#4,381.75,0.125,50,126.5
1539,G#4,382.0,0.25,50,126.5
1540,B4,382.0,0.25,50,126.5
1541,E-4,382.25,0.25,55,126.5
1542,E-4,382.5,0.5,61,126.5
1543,G#4,382.5,0.25,57,126.5
1544,B4,382.5,0.25,57,126.5
1545,E-4,383.0,0.75,66,126.5
1546,D4,383.25,0.125,52,126.5
1547,D4,383.5,0.25,51,126.5
1548,D4,384.0,1.5,55,126.5
1549,B4,384.75,0.125,36,126.5
1550,G#4,384.75,0.125,36,126.5
1551,G#4,385.0,0.25,36,126.5
1552,B4,385.0,0.25,36,126.5
1553,D3,385.25,0.25,56,126.5
1554,G3,385.25,0.25,56,126.5
1555,G#4,385.5,0.25,36,126.5
1556,B4,385.5,0.25,36,126.5
1557,D3,385.5,0.5,54,126.5
1558,G3,385.5,0.5,54,126.5
1559,D3,386.0,0.5,58,126.5
1560,G3,386.0,0.5,58,126.5
1561,E3,386.25,0.25,64,126.5
1562,E3,386.5,0.5,60,126.5
1563,E3,387.0,2.25,62,126.5
1564,D3,387.5,0.5,70,126.5
1565,D2,387.5,0.5,70,126.5
1566,C4,387.75,0.25,52,126.5
1567,A3,387.75,0.25,52,126.5
1568,A3,388.0,0.5,52,126.5
1569,C4,388.0,0.5,52,126.5
1570,F4,388.25,0.25,55,126.5
1571,F4,388.5,0.5,61,126.5
1572,A3,388.5,0.75,56,126.5
1573,C4,388.5,0.75,56,126.5
1574,F4,389.0,0.75,66,126.5
1575,C4,389.25,0.25,49,126.5
1576,C4,389.5,0.5,48,126.5
1577,E4,389.75,0.25,61,126.5
1578,C4,390.0,2.0,51,126.5
1579,E4,390.0,0.5,58,126.5
1580,E4,390.5,2.0,62,126.5
1581,C5,390.75,0.25,47,126.5
1582,A4,390.75,0.25,47,126.5
1583,A4,391.0,0.5,47,126.5
1584,C5,391.0,0.5,47,126.5
1585,E3,391.25,0.25,56,126.5
1586,G#3,391.25,0.25,56,126.5
1587,A4,391.5,0.5,52,126.5
1588,C5,391.5,0.5,52,126.5
1589,E3,391.5,0.5,54,126.5
1590,G#3,391.5,0.5,54,126.5
1591,E3,392.0,0.5,58,126.5
1592,G#3,392.0,0.5,58,126.5
1593,E3,392.25,0.25,72,126.5
1594,E3,392.5,0.5,72,126.5
1595,E3,393.0,2.25,74,126.5
1596,C3,393.5,0.5,70,126.5
1597,C2,393.5,0.5,70,126.5
1598,D4,393.75,0.25,61,126.5
1599,B3,393.75,0.25,61,126.5
1600,B3,394.0,0.5,62,126.5
1601,D4,394.0,0.5,62,126.5
1602,F4,394.25,0.25,55,126.5
1603,F4,394.5,0.5,61,126.5
1604,B3,394.5,0.75,67,126.5
1605,D4,394.5,0.75,67,126.5
1606,F4,395.0,0.75,66,126.5
1607,D4,395.25,0.25,60,126.5
1608,D4,395.5,0.5,60,126.5
1609,E4,395.75,0.25,67,126.5
1610,D4,396.0,2.0,63,126.5
1611,E4,396.0,0.5,63,126.5
1612,E4,396.5,2.0,62,126.5
1613,D5,396.75,0.25,56,126.5
1614,B4,396.75,0.25,56,126.5
1615,B4,397.0,0.5,56,126.5
1616,D5,397.0,0.5,56,126.5
1617,E3,397.25,0.25,60,126.5
1618,A3,397.25,0.25,60,126.5
1619,B4,397.5,0.5,61,126.5
1620,D5,397.5,0.5,61,126.5
1621,E3,397.5,0.5,57,126.5
1622,A3,397.5,0.5,57,126.5
1623,A3,398.0,0.5,62,126.5
1624,E3,398.0,0.5,62,126.5
1625,E3,398.25,0.25,75,126.5
1626,E3,398.5,0.5,76,126.5
1627,E3,399.0,2.0,78,126.5
1628,D3,399.5,0.5,70,126.5
1629,D2,399.5,0.5,70,126.5
1630,C4,399.75,0.25,64,126.5
1631,A3,399.75,0.25,64,126.5
1632,A3,400.0,0.5,66,126.5
1633,C4,400.0,0.5,66,126.5
1634,B4,400.25,0.125,66,126.5
1635,B4,400.5,0.25,67,126.5
1636,A3,400.5,0.5,71,126.5
1637,C4,400.5,0.5,71,126.5
1638,B4,401.0,0.375,76,126.5
1639,E4,401.25,0.25,74,126.5
1640,E4,401.5,0.5,75,126.5
1641,F5,401.75,0.125,70,126.5
1642,E4,402.0,2.0,79,126.5
1643,F5,402.0,0.25,70,126.5
1644,F5,402.5,1.5,78,126.5
1645,E5,402.75,0.25,59,126.5
1646,C5,402.75,0.25,59,126.5
1647,C5,403.0,0.5,59,126.5
1648,E5,403.0,0.5,59,126.5
1649,B4,403.25,0.125,70,126.5
1650,B4,403.5,0.25,74,126.5
1651,C5,403.5,0.5,64,126.5
1652,E5,403.5,0.5,64,126.5
1653,B4,404.0,0.25,75,126.5
1654,C4,404.25,0.25,72,126.5
1655,C4,404.5,0.5,72,126.5
1656,C4,405.0,2.0,78,126.5
1657,B2,405.5,0.5,70,126.5
1658,B1,405.5,0.5,70,126.5
1659,A4,405.75,0.25,64,126.5
1660,F#4,405.75,0.25,64,126.5
1661,F#4,406.0,0.5,66,126.5
1662,A4,406.0,0.5,66,126.5
1663,B3,406.25,0.125,66,126.5
1664,B3,406.5,0.25,67,126.5
1665,F#4,406.5,0.5,71,126.5
1666,A4,406.5,0.5,71,126.5
1667,B3,407.0,0.375,76,126.5
1668,G4,407.25,0.125,71,126.5
1669,D5,407.25,0.125,71,126.5
1670,G4,407.5,0.25,72,126.5
1671,D5,407.5,0.25,72,126.5
1672,A4,407.75,0.125,70,126.5
1673,A4,408.0,0.25,70,126.5
1674,D5,408.0,0.5,71,126.5
1675,G4,408.0,0.5,71,126.5
1676,A4,408.5,1.5,78,126.5
1677,G5,408.75,0.25,70,126.5
1678,G4,408.75,0.25,70,126.5
1679,G4,409.0,0.5,70,126.5
1680,G5,409.0,0.5,70,126.5
1681,B3,409.25,0.125,70,126.5
1682,B3,409.5,0.25,74,126.5
1683,G4,409.5,0.25,77,126.5
1684,G5,409.5,0.25,77,126.5
1685,B3,410.0,0.25,75,126.5
1686,G4,410.25,0.25,45,126.5
1687,F4,410.5,0.25,45,126.5
1688,B4,410.5,0.25,45,126.5
1689,E-4,411.0,0.25,50,126.5
1690,C5,411.0,0.25,50,126.5
1691,E3,411.5,0.5,70,126.5
1692,E2,411.5,0.5,70,126.5
1693,B4,411.75,0.25,31,126.5
1694,G4,412.0,0.25,47,126.5
1695,D5,412.0,0.25,47,126.5
1696,B4,412.25,0.125,66,126.5
1697,B4,412.5,0.25,67,126.5
1698,C5,412.5,0.25,50,126.5
1699,E-5,412.5,0.25,50,126.5
1700,B4,413.0,0.375,76,126.5
1701,D5,413.25,0.25,29,126.5
1702,C5,413.5,0.25,50,126.5
1703,F5,413.5,0.25,50,126.5
1704,E5,413.75,0.125,70,126.5
1705,E5,414.0,0.25,70,126.5
1706,E-5,414.0,0.25,50,126.5
1707,G5,414.0,0.25,50,126.5
1708,E5,414.5,1.5,78,126.5
1709,G#5,414.75,0.25,29,126.5
1710,F5,415.0,0.5,43,126.5
1711,C6,415.0,0.5,43,126.5
1712,B4,415.25,0.125,70,126.5
1713,B4,415.5,0.25,74,126.5
1714,E-5,415.5,0.5,43,126.5
1715,G5,415.5,0.5,43,126.5
1716,B4,416.0,0.25,75,126.5
1717,C5,416.25,0.25,32,126.5
1718,G4,416.5,0.25,50,126.5
1719,E-5,416.5,0.25,50,126.5
1720,D5,417.0,0.25,53,126.5
1721,E2,417.5,0.5,70,126.5
1722,E1,417.5,0.5,70,126.5
1723,D5,417.75,0.25,40,126.5
1724,G#4,418.0,0.25,50,126.5
1725,F5,418.0,0.25,50,126.5
1726,E3,418.25,0.125,66,126.5
1727,E-5,418.5,0.25,52,126.5
1728,E3,418.5,0.25,67,126.5
1729,E3,419.0,0.375,76,126.5
1730,B4,419.25,0.25,33,126.5
1731,F4,419.5,0.25,41,126.5
1732,D5,419.5,0.25,41,126.5
1733,E4,419.75,0.125,66,126.5
1734,E4,420.0,0.25,65,126.5
1735,E-4,420.0,0.25,47,126.5
1736,C5,420.0,0.25,47,126.5
1737,E4,420.5,1.5,68,126.5
1738,F4,420.75,0.25,25,126.5
1739,D4,421.0,0.25,41,126.5
1740,G#4,421.0,0.25,41,126.5
1741,E3,421.25,0.125,56,126.5
1742,E3,421.5,0.25,57,126.5
1743,E-4,421.5,0.25,40,126.5
1744,G4,421.5,0.25,40,126.5
1745,E3,422.0,0.25,54,126.5
1746,D4,422.25,0.25,30,126.5
1747,C4,422.5,0.25,45,126.5
1748,F#4,422.5,0.25,45,126.5
1749,B-3,423.0,0.25,50,126.5
1750,G4,423.0,0.25,50,126.5
1751,A2,423.5,0.5,56,126.5
1752,A1,423.5,0.5,56,126.5
1753,F#4,423.75,0.25,31,126.5
1754,D4,424.0,0.25,47,126.5
1755,A4,424.0,0.25,47,126.5
1756,F4,424.25,0.25,44,126.5
1757,F4,424.5,0.5,48,126.5
1758,G4,424.5,0.25,50,126.5
1759,B-4,424.5,0.25,50,126.5
1760,F4,425.0,0.75,52,126.5
1761,A4,425.25,0.25,29,126.5
1762,G4,425.5,0.25,50,126.5
1763,C5,425.5,0.25,50,126.5
1764,E4,425.75,0.25,59,126.5
1765,E4,426.0,0.5,56,126.5
1766,B-4,426.0,0.25,50,126.5
1767,D5,426.0,0.25,50,126.5
1768,E4,426.5,2.0,60,126.5
1769,E-5,426.75,0.25,29,126.5
1770,C5,427.0,0.5,43,126.5
1771,G5,427.0,0.5,43,126.5
1772,E3,427.25,0.25,44,126.5
1773,A3,427.25,0.25,44,126.5
1774,B-4,427.5,0.5,43,126.5
1775,D5,427.5,0.5,43,126.5
1776,E3,427.5,0.5,42,126.5
1777,A3,427.5,0.5,42,126.5
1778,E3,428.0,0.5,46,126.5
1779,A3,428.0,0.5,46,126.5
1780,G4,428.25,0.25,32,126.5
1781,D4,428.5,0.25,50,126.5
1782,B-4,428.5,0.25,50,126.5
1783,A4,429.0,0.25,53,126.5
1784,G#2,429.5,1.0,66,126.5
1785,G#1,429.5,1.0,66,126.5
1786,A4,429.75,0.25,40,126.5
1787,E-4,430.0,0.25,50,126.5
1788,C5,430.0,0.25,50,126.5
1789,F4,430.25,0.25,52,126.5
1790,B-4,430.5,0.25,52,126.5
1791,F4,430.5,0.5,57,126.5
1792,F4,431.0,0.75,62,126.5
1793,F#4,431.25,0.25,33,126.5
1794,C4,431.5,0.25,41,126.5
1795,A4,431.5,0.25,41,126.5
1796,E4,431.75,0.25,72,126.5
1797,E4,432.0,0.5,72,126.5
1798,B-3,432.0,0.25,47,126.5
1799,G4,432.0,0.25,47,126.5
1800,E4,432.5,1.5,75,126.5
1801,C4,432.75,0.25,25,126.5
1802,A3,433.0,0.25,41,126.5
1803,E-4,433.0,0.25,41,126.5
1804,E3,433.25,0.25,52,126.5
1805,G#3,433.25,0.25,52,126.5
1806,B-3,433.5,0.25,40,126.5
1807,D4,433.5,0.25,40,126.5
1808,E3,433.5,0.5,50,126.5
1809,G#3,433.5,0.5,50,126.5
1810,E3,434.0,0.5,54,126.5
1811,G#3,434.0,0.5,54,126.5
1812,D4,434.25,0.25,30,126.5
1813,C4,434.5,0.25,45,126.5
1814,F#4,434.5,0.25,45,126.5
1815,B-3,435.0,0.25,50,126.5
1816,G4,435.0,0.25,50,126.5
1817,A2,435.5,1.0,70,126.5
1818,A1,435.5,1.0,70,126.5
1819,F#4,435.75,0.25,31,126.5
1820,D4,436.0,0.25,47,126.5
1821,A4,436.0,0.25,47,126.5
1822,B4,436.25,0.25,55,126.5
1823,B4,436.5,0.5,61,126.5
1824,G4,436.5,0.25,50,126.5
1825,B-4,436.5,0.25,50,126.5
1826,B4,437.0,0.75,66,126.5
1827,A4,437.25,0.25,29,126.5
1828,G4,437.5,0.25,50,126.5
1829,C5,437.5,0.25,50,126.5
1830,A4,437.75,0.25,61,126.5
1831,A4,438.0,0.5,58,126.5
1832,B-4,438.0,0.25,50,126.5
1833,D5,438.0,0.25,50,126.5
1834,A4,438.5,2.0,62,126.5
1835,E-5,438.75,0.25,29,126.5
1836,C5,439.0,0.5,52,126.5
1837,G5,439.0,0.5,52,126.5
1838,A3,439.25,0.25,56,126.5
1839,C4,439.25,0.25,56,126.5
1840,B-4,439.5,0.5,52,126.5
1841,D5,439.5,0.5,52,126.5
1842,A3,439.5,0.5,54,126.5
1843,C4,439.5,0.5,54,126.5
1844,A3,440.0,0.5,58,126.5
1845,C4,440.0,0.5,58,126.5
1846,G4,440.25,0.25,32,126.5
1847,D4,440.5,0.25,50,126.5
1848,B-4,440.5,0.25,50,126.5
1849,A4,441.0,0.25,53,126.5
1850,D3,441.5,1.0,70,126.5
1851,D2,441.5,1.0,70,126.5
1852,A4,441.75,0.25,40,126.5
1853,E-4,442.0,0.25,50,126.5
1854,C5,442.0,0.25,50,126.5
1855,D5,442.25,0.25,55,126.5
1856,B-4,442.5,0.25,52,126.5
1857,D5,442.5,0.5,61,126.5
1858,D5,443.0,0.5,66,126.5
1859,F#4,443.25,0.25,33,126.5
1860,C4,443.5,0.25,41,126.5
1861,A4,443.5,0.25,41,126.5
1862,G3,443.75,0.125,62,126.5
1863,B3,443.75,0.125,62,126.5
1864,B-3,444.0,0.25,47,126.5
1865,G4,444.0,0.25,47,126.5
1866,G3,444.0,0.25,58,126.5
1867,B3,444.0,0.25,58,126.5
1868,G3,444.5,0.5,62,126.5
1869,B3,444.5,0.5,62,126.5
1870,B-3,444.75,0.25,39,126.5
1871,D4,445.0,0.5,46,126.5
1872,G2,445.25,0.25,67,126.5
1873,G3,445.25,0.25,67,126.5
1874,G3,445.5,0.25,44,126.5
1875,G2,445.5,0.5,64,126.5
1876,G3,445.5,0.5,64,126.5
1877,G2,446.0,1.5,69,126.5
1878,G3,446.0,1.5,69,126.5
1879,B-3,446.25,0.25,30,126.5
1880,G3,446.5,0.25,45,126.5
1881,D4,446.5,0.25,45,126.5
1882,F#3,447.0,0.25,50,126.5
1883,D4,447.0,0.25,50,126.5
1884,G2,447.5,3.0,69,126.5
1885,G3,447.5,3.0,69,126.5
1886,B-3,447.75,0.25,31,126.5
1887,G3,448.0,0.25,47,126.5
1888,E4,448.0,0.25,47,126.5
1889,A3,448.5,0.25,50,126.5
1890,F#4,448.5,0.25,50,126.5
1891,D4,449.25,0.25,29,126.5
1892,B-3,449.5,0.25,50,126.5
1893,G4,449.5,0.25,50,126.5
1894,C4,450.0,0.25,50,126.5
1895,A4,450.0,0.25,50,126.5
1896,F4,450.75,0.25,29,126.5
1897,D4,451.0,0.25,52,126.5
1898,B4,451.0,0.25,52,126.5
1899,E-4,451.5,0.25,56,126.5
1900,C5,451.5,0.25,56,126.5
1901,G#4,452.25,0.25,32,126.5
1902,F4,452.5,0.25,50,126.5
1903,D5,452.5,0.25,50,126.5
1904,E-4,453.0,0.25,52,126.5
1905,C5,453.0,0.25,52,126.5
1906,G4,453.75,0.25,40,126.5
1907,D4,454.0,0.25,50,126.5
1908,B4,454.0,0.25,50,126.5
1909,E-4,454.5,0.25,51,126.5
1910,C5,454.5,0.25,51,126.5
1911,G2,454.5,3.0,69,126.5
1912,G3,454.5,3.0,69,126.5
1913,G#4,455.25,0.25,33,126.5
1914,F4,455.5,0.25,41,126.5
1915,D5,455.5,0.25,41,126.5
1916,E-4,456.0,0.25,47,126.5
1917,C5,456.0,0.25,47,126.5
1918,G4,456.75,0.25,25,126.5
1919,D4,457.0,0.25,41,126.5
1920,B4,457.0,0.25,41,126.5
1921,E-4,457.5,0.25,40,126.5
1922,C5,457.5,0.25,40,126.5
1923,D4,458.25,0.25,30,126.5
1924,B-3,458.5,0.25,45,126.5
1925,F4,458.5,0.25,45,126.5
1926,G2,458.5,1.0,69,126.5
1927,G3,458.5,1.0,69,126.5
1928,A3,459.0,0.25,50,126.5
1929,F4,459.0,0.25,50,126.5
1930,F2,459.5,1.5,43,126.5
1931,F3,459.5,1.5,43,126.5
1932,E-4,459.75,0.25,31,126.5
1933,B-3,460.0,0.25,47,126.5
1934,G4,460.0,0.25,47,126.5
1935,C4,460.5,0.25,50,126.5
1936,A4,460.5,0.25,50,126.5
1937,G3,461.0,0.5,51,126.5
1938,G2,461.0,0.5,39,126.5
1939,F4,461.25,0.25,29,126.5
1940,G3,461.5,2.5,51,126.5
1941,G2,461.5,3.0,39,126.5
1942,D4,461.5,0.25,50,126.5
1943,B-4,461.5,0.25,50,126.5
1944,E-4,462.0,0.25,50,126.5
1945,C5,462.0,0.25,50,126.5
1946,G#4,462.75,0.25,29,126.5
1947,F4,463.0,0.25,56,126.5
1948,D5,463.0,0.25,56,126.5
1949,G4,463.5,0.25,56,126.5
1950,E-5,463.5,0.25,56,126.5
1951,D3,464.0,0.5,48,126.5
1952,B4,464.25,0.25,32,126.5
1953,G3,464.5,3.0,46,126.5
1954,G2,464.5,3.0,39,126.5
1955,D3,464.5,3.0,48,126.5
1956,G#4,464.5,0.25,56,126.5
1957,F5,464.5,0.25,56,126.5
1958,C5,465.0,0.25,61,126.5
1959,G4,465.0,0.25,61,126.5
1960,E-5,465.0,0.25,61,126.5
1961,G#4,465.75,0.25,47,126.5
1962,F4,466.0,0.25,57,126.5
1963,D5,466.0,0.25,57,126.5
1964,A4,466.5,0.25,51,126.5
1965,E-4,466.5,0.25,51,126.5
1966,C5,466.5,0.25,51,126.5
1967,G4,467.25,0.25,33,126.5
1968,G3,467.5,3.0,46,126.5
1969,G2,467.5,2.5,39,126.5
1970,E4,467.5,0.25,41,126.5
1971,B-4,467.5,0.25,41,126.5
1972,F#4,468.0,0.25,46,126.5
1973,A4,468.0,0.25,46,126.5
1974,E4,468.75,0.25,24,126.5
1975,C#4,469.0,0.25,39,126.5
1976,G4,469.0,0.25,39,126.5
1977,D4,469.5,0.25,37,126.5
1978,F#4,469.5,0.25,37,126.5
1979,G2,470.0,0.5,37,126.5
1980,D4,470.25,0.25,27,126.5
1981,C3,470.5,1.0,47,126.5
1982,G3,470.5,1.5,46,126.5
1983,C4,470.5,0.25,40,126.5
1984,F#4,470.5,0.25,40,126.5
1985,B-3,471.0,0.25,45,126.5
1986,G4,471.0,0.25,45,126.5
1987,A2,471.5,0.5,41,126.5
1988,F#4,471.75,0.25,27,126.5
1989,D3,472.0,1.5,48,126.5
1990,D4,472.0,0.25,42,126.5
1991,A4,472.0,0.25,42,126.5
1992,G4,472.5,0.25,45,126.5
1993,B-4,472.5,0.25,45,126.5
1994,D2,473.0,0.5,39,126.5
1995,A4,473.25,0.25,26,126.5
1996,D3,473.5,3.0,48,126.5
1997,D2,473.5,3.0,39,126.5
1998,G4,473.5,0.25,45,126.5
1999,C5,473.5,0.25,45,126.5
2000,B-4,474.0,0.25,45,126.5
2001,D5,474.0,0.25,45,126.5
2002,E-5,474.75,0.25,26,126.5
2003,C5,475.0,0.5,36,126.5
2004,G5,475.0,0.5,36,126.5
2005,B-4,475.5,0.5,36,126.5
2006,D5,475.5,0.5,36,126.5
2007,G4,476.25,0.25,28,126.5
2008,D3,476.5,1.0,48,126.5
2009,D2,476.5,1.0,39,126.5
2010,D4,476.5,0.25,45,126.5
2011,B-4,476.5,0.25,45,126.5
2012,A4,477.0,0.25,47,126.5
2013,G2,477.5,2.0,37,126.5
2014,G1,477.5,2.0,37,126.5
2015,A4,477.75,0.25,36,126.5
2016,E-4,478.0,0.25,45,126.5
2017,C5,478.0,0.25,45,126.5
2018,B-4,478.5,0.25,46,126.5
2019,F#4,479.25,0.25,29,126.5
2020,C4,479.5,0.25,36,126.5
2021,A4,479.5,0.25,36,126.5
2022,G2,479.5,2.5,37,126.5
2023,G1,479.5,2.5,37,126.5
2024,B-3,480.0,0.25,42,126.5
2025,G4,480.0,0.25,42,126.5
2026,C4,480.75,0.25,22,126.5
2027,A3,481.0,0.25,36,126.5
2028,E-4,481.0,0.25,36,126.5
2029,B-3,481.5,0.25,36,126.5
2030,D4,481.5,0.25,36,126.5
2031,G1,482.0,0.5,37,126.5
2032,D4,482.25,0.25,27,126.5
2033,C2,482.5,1.0,47,126.5
2034,C4,482.5,0.25,40,126.5
2035,F#4,482.5,0.25,40,126.5
2036,B-3,483.0,0.25,45,126.5
2037,G4,483.0,0.25,45,126.5
2038,A1,483.5,0.5,41,126.5
2039,F#4,483.75,0.25,27,126.5
2040,D2,484.0,1.5,48,126.5
2041,D4,484.0,0.25,42,126.5
2042,A4,484.0,0.25,42,126.5
2043,G4,484.5,0.25,45,126.5
2044,B-4,484.5,0.25,45,126.5
2045,D1,485.0,0.5,39,126.5
2046,A4,485.25,0.25,26,126.5
2047,D2,485.5,1.0,48,126.5
2048,D1,485.5,1.0,39,126.5
2049,G4,485.5,0.25,45,126.5
2050,C5,485.5,0.25,45,126.5
2051,B-4,486.0,0.25,45,126.5
2052,D5,486.0,0.25,45,126.5
2053,E-5,486.75,0.25,25,126.5
2054,C5,487.0,0.5,35,126.5
2055,G5,487.0,0.5,35,126.5
2056,B-4,487.5,0.5,34,126.5
2057,D5,487.5,0.5,34,126.5
2058,G4,488.25,0.25,27,126.5
2059,D4,488.5,0.25,43,126.5
2060,B-4,488.5,0.25,43,126.5
2061,D2,488.5,3.0,46,126.5
2062,D3,488.5,3.0,46,126.5
2063,A4,489.0,0.25,45,126.5
2064,A4,489.75,0.25,33,126.5
2065,E-4,490.0,0.25,42,126.5
2066,C5,490.0,0.25,42,126.5
2067,D4,490.5,0.25,42,126.5
2068,B-4,490.5,0.25,42,126.5
2069,F#4,491.25,0.25,27,126.5
2070,C4,491.5,0.25,33,126.5
2071,A4,491.5,0.25,33,126.5
2072,B-3,492.0,0.25,37,126.5
2073,G4,492.0,0.25,37,126.5
2074,D2,492.5,1.0,46,126.5
2075,D3,492.5,1.0,46,126.5
2076,C4,492.75,0.25,27,126.5
2077,A3,493.0,0.25,36,126.5
2078,E-4,493.0,0.25,36,126.5
2079,B-3,493.5,0.25,35,126.5
2080,D4,493.5,0.25,35,126.5
2081,G1,493.5,2.0,46,126.5
2082,G2,493.5,2.0,46,126.5
2083,A3,494.25,0.25,27,126.5
2084,F#3,494.5,0.25,30,126.5
2085,C4,494.5,0.25,30,126.5
2086,G1,501.0,3.0,46,126.5
2087,G2,501.0,3.0,46,126.5
2088,G1,506.5,2.5,46,126.5
2089,G2,506.5,2.5,46,126.5
2090,F2,509.0,0.5,50,126.5
2091,F3,509.0,0.5,50,126.5
2092,F2,512.0,2.5,50,126.5
2093,F3,512.0,2.5,50,126.5
2094,B-1,514.5,0.5,41,126.5
2095,B-2,514.5,0.5,41,126.5
2096,B-1,519.5,3.0,41,126.5
2097,B-2,519.5,3.0,41,126.5
2098,B-1,524.0,1.5,41,126.5
2099,B-2,524.0,1.5,41,126.5
2100,C2,525.5,1.0,31,126.5
2101,C3,525.5,1.0,31,126.5
2102,C#2,526.5,0.5,28,126.5
2103,C#3,526.5,0.5,28,126.5
2104,D2,527.0,3.0,33,126.5
2105,D3,527.0,3.0,33,126.5
2106,D2,531.0,1.0,33,126.5
2107,D3,531.0,1.0,33,126.5
2108,G1,532.0,2.0,39,126.5
2109,G2,532.0,2.0,51,126.5
2110,G1,534.0,2.5,39,126.5
2111,G2,534.0,3.0,51,126.5
2112,G1,536.5,0.5,33,126.5
2113,C2,537.0,1.0,42,126.5
2114,G2,537.0,1.5,51,126.5
2115,A1,538.0,0.5,36,126.5
2116,D2,538.5,1.5,43,126.5
2117,D1,539.5,0.5,35,126.5
2118,D2,540.0,3.0,43,126.5
2119,D1,540.0,3.0,35,126.5
2120,D2,543.0,3.0,43,126.5
2121,D1,543.0,1.5,35,126.5
2122,G1,544.5,1.5,45,126.5
2123,D2,546.0,3.0,43,126.5
2124,G1,546.0,2.5,45,126.5
2125,G1,548.5,0.5,31,126.5
2126,C2,549.0,1.5,39,126.5
2127,A1,550.0,0.5,34,126.5
2128,D2,550.5,1.5,39,126.5
2129,D1,551.5,0.5,31,126.5
2130,G1,552.0,1.0,39,126.5
2131,G3,555.0,0.25,37,126.5
2132,B-3,555.0,0.25,37,126.5
2133,F#3,555.75,0.25,27,126.5
2134,D3,556.0,0.25,36,126.5
2135,A3,556.0,0.25,36,126.5
2136,E-3,556.5,0.25,35,126.5
2137,G3,556.5,0.25,35,126.5
2138,C3,557.25,0.25,27,126.5
2139,A2,557.5,0.25,30,126.5
2140,E-3,557.5,0.25,30,126.5
2141,B-2,558.0,0.25,37,126.5
2142,D3,558.0,0.25,37,126.5
2143,A2,558.75,0.25,27,126.5
2144,F#2,559.0,0.25,35,126.5
2145,C3,559.0,0.25,35,126.5
2146,G2,559.5,0.25,34,126.5
2147,B-2,559.5,0.25,34,126.5
2148,F#2,560.25,0.25,26,126.5
2149,D2,560.5,0.25,28,126.5
2150,A2,560.5,0.25,28,126.5
2151,E-2,561.0,0.25,34,126.5
2152,G2,561.0,0.25,34,126.5
2153,C2,561.75,0.25,26,126.5
2154,A1,562.0,0.25,33,126.5
2155,E-2,562.0,0.25,33,126.5
2156,B-1,562.5,0.25,32,126.5
2157,D2,562.5,0.25,32,126.5
2158,A1,563.25,0.25,24,126.5
2159,F#1,563.5,0.25,27,126.5
2160,C2,563.5,0.25,27,126.5
2161,G1,564.0,0.25,29,126.5
2162,B-1,564.0,0.25,29,126.5
2163,D1,565.5,0.25,25,126.5
2164,G1,567.0,0.25,26,126.5
