,note_name,start_time,duration,velocity,tempo
0,D3,1.5,0.125,46,100.0
1,G3,2.0,167/1000,50,100.0
2,G2,2.0,2.0,46,100.0
3,G1,2.0,2.0,46,100.0
4,D3,2.167,167/1000,36,100.0
5,A3,2.333,167/1000,36,100.0
6,B-3,2.5,0.125,50,100.0
7,A3,3.0,167/1000,50,100.0
8,D3,3.167,167/1000,36,100.0
9,B-3,3.333,167/1000,36,100.0
10,C4,3.5,0.125,50,100.0
11,B-3,4.0,167/1000,50,100.0
12,D3,4.167,167/1000,35,100.0
13,C4,4.333,167/1000,35,100.0
14,D4,4.5,0.125,50,100.0
15,G3,5.0,167/1000,50,100.0
16,G2,5.0,1.0,46,100.0
17,G1,5.0,1.0,46,100.0
18,D3,5.167,167/1000,36,100.0
19,A3,5.333,167/1000,36,100.0
20,B-3,5.5,0.125,50,100.0
21,A3,6.0,167/1000,50,100.0
22,E-3,6.167,167/1000,38,100.0
23,B-3,6.333,167/1000,38,100.0
24,C4,6.5,0.125,50,100.0
25,B-1,6.5,0.125,40,100.0
26,B-2,6.5,0.125,40,100.0
27,F#3,7.0,167/1000,50,100.0
28,C3,7.0,0.25,46,100.0
29,C2,7.0,0.25,46,100.0
30,C3,7.167,167/1000,40,100.0
31,G3,7.333,167/1000,40,100.0
32,A3,7.5,0.125,50,100.0
33,G3,8.0,167/1000,50,100.0
34,D2,8.0,0.25,44,100.0
35,D3,8.0,0.25,44,100.0
36,D3,8.167,167/1000,40,100.0
37,A3,8.333,167/1000,41,100.0
38,B-3,8.5,0.125,50,100.0
39,A3,9.0,0.25,50,100.0
40,G2,9.0,0.5,46,100.0
41,G1,9.0,0.5,46,100.0
42,F#3,9.375,0.125,44,100.0
43,D3,9.5,0.125,58,100.0
44,G3,10.0,167/1000,50,100.0
45,D3,10.167,167/1000,38,100.0
46,A3,10.333,167/1000,38,100.0
47,B-3,10.5,0.125,50,100.0
48,D2,10.5,0.125,47,100.0
49,A3,11.0,167/1000,50,100.0
50,G2,11.0,2.0,46,100.0
51,G1,11.0,2.0,46,100.0
52,D3,11.167,167/1000,38,100.0
53,B-3,11.333,167/1000,38,100.0
54,C4,11.5,0.125,50,100.0
55,B-3,12.0,167/1000,50,100.0
56,D3,12.167,167/1000,37,100.0
57,C4,12.333,167/1000,37,100.0
58,D4,12.5,0.125,50,100.0
59,G3,13.0,167/1000,50,100.0
60,D3,13.167,167/1000,40,100.0
61,A3,13.333,167/1000,40,100.0
62,B-3,13.5,0.125,50,100.0
63,A3,14.0,167/1000,50,100.0
64,G2,14.0,1.0,46,100.0
65,G1,14.0,1.0,46,100.0
66,E-3,14.167,167/1000,40,100.0
67,B-3,14.333,167/1000,40,100.0
68,C4,14.5,0.125,50,100.0
69,B3,15.0,167/1000,50,100.0
70,D3,15.167,167/1000,39,100.0
71,C4,15.333,167/1000,40,100.0
72,D4,15.5,0.125,50,100.0
73,B-2,15.5,0.125,40,100.0
74,B-1,15.5,0.125,40,100.0
75,C4,16.0,167/1000,50,100.0
76,C3,16.0,0.25,46,100.0
77,C2,16.0,0.25,46,100.0
78,G3,16.167,167/1000,41,100.0
79,D4,16.333,167/1000,41,100.0
80,E-4,16.5,0.125,50,100.0
81,B3,17.0,167/1000,54,100.0
82,D2,17.0,0.25,44,100.0
83,D3,17.0,0.25,44,100.0
84,F3,17.167,167/1000,45,100.0
85,C4,17.333,167/1000,45,100.0
86,D4,17.5,0.125,56,100.0
87,C4,18.0,167/1000,59,100.0
88,E-2,18.0,0.5,46,100.0
89,E-3,18.0,0.5,46,100.0
90,G3,18.167,167/1000,48,100.0
91,D4,18.333,167/1000,48,100.0
92,E-4,18.5,0.125,59,100.0
93,E-4,19.0,167/1000,63,100.0
94,G3,19.167,167/1000,51,100.0
95,F4,19.333,167/1000,51,100.0
96,G4,19.5,0.125,61,100.0
97,D2,19.5,0.25,38,100.0
98,D3,19.5,0.25,38,100.0
99,F#4,20.0,167/1000,70,100.0
100,E-2,20.0,0.25,50,100.0
101,E-3,20.0,0.25,50,100.0
102,F#3,20.167,167/1000,53,100.0
103,G4,20.333,167/1000,54,100.0
104,A4,20.5,0.125,66,100.0
105,D4,21.0,0.125,67,100.0
106,C2,21.0,0.25,52,100.0
107,C3,21.0,0.25,52,100.0
108,D4,21.5,0.125,64,100.0
109,G4,22.0,167/1000,64,100.0
110,D2,22.0,0.5,54,100.0
111,D3,22.0,0.5,54,100.0
112,D4,22.167,167/1000,48,100.0
113,A4,22.333,167/1000,48,100.0
114,B-4,22.5,0.125,64,100.0
115,A4,23.0,167/1000,64,100.0
116,D4,23.167,167/1000,50,100.0
117,B-4,23.333,167/1000,50,100.0
118,C5,23.5,0.125,64,100.0
119,D3,23.5,0.125,61,100.0
120,B-4,24.0,167/1000,64,100.0
121,G2,24.0,2.0,64,100.0
122,B-2,24.0,1.0,70,100.0
123,G3,24.0,1.0,70,100.0
124,D4,24.167,167/1000,49,100.0
125,C5,24.333,167/1000,49,100.0
126,D5,24.5,0.125,64,100.0
127,G4,25.0,167/1000,64,100.0
128,D3,25.0,1.0,74,100.0
129,A3,25.0,1.0,74,100.0
130,D4,25.167,167/1000,50,100.0
131,A4,25.333,167/1000,52,100.0
132,B-4,25.5,0.125,64,100.0
133,A4,26.0,167/1000,64,100.0
134,B-3,26.0,1.0,78,100.0
135,G3,26.0,1.0,78,100.0
136,E-4,26.167,167/1000,52,100.0
137,B-4,26.333,167/1000,52,100.0
138,C5,26.5,0.125,64,100.0
139,F#4,27.0,167/1000,64,100.0
140,C4,27.167,167/1000,51,100.0
141,G4,27.333,167/1000,51,100.0
142,A4,27.5,0.125,64,100.0
143,G3,27.5,0.125,66,100.0
144,B-2,27.5,0.125,66,100.0
145,G4,28.0,167/1000,64,100.0
146,A3,28.0,1.0,71,100.0
147,G3,28.0,1.0,71,100.0
148,C3,28.0,1.0,71,100.0
149,D4,28.167,167/1000,54,100.0
150,A4,28.333,167/1000,54,100.0
151,B-4,28.5,0.125,64,100.0
152,A4,29.0,0.25,64,100.0
153,D4,29.0,1.0,68,100.0
154,F#3,29.0,1.0,68,100.0
155,D3,29.0,1.0,68,100.0
156,F#4,29.375,0.125,52,100.0
157,D4,29.5,0.125,71,100.0
158,G4,30.0,167/1000,64,100.0
159,G3,30.0,1.0,72,100.0
160,G2,30.0,1.0,72,100.0
161,B-2,30.0,1.0,72,100.0
162,D4,30.167,167/1000,49,100.0
163,A4,30.333,167/1000,50,100.0
164,B-4,30.5,0.125,64,100.0
165,A4,31.0,167/1000,64,100.0
166,D4,31.167,167/1000,51,100.0
167,B-4,31.333,167/1000,52,100.0
168,C5,31.5,0.125,64,100.0
169,D3,31.5,0.125,81,100.0
170,B-4,32.0,167/1000,64,100.0
171,G2,32.0,2.0,68,100.0
172,B-2,32.0,1.0,74,100.0
173,G3,32.0,1.0,74,100.0
174,D4,32.167,167/1000,55,100.0
175,C5,32.333,167/1000,55,100.0
176,D5,32.5,0.125,64,100.0
177,E-5,33.0,167/1000,71,100.0
178,D3,33.0,1.0,74,100.0
179,A3,33.0,1.0,74,100.0
180,G4,33.167,167/1000,56,100.0
181,F5,33.333,167/1000,56,100.0
182,G5,33.5,0.125,64,100.0
183,A4,34.0,167/1000,59,100.0
184,B-3,34.0,1.0,78,100.0
185,G3,34.0,1.0,78,100.0
186,C4,34.167,167/1000,47,100.0
187,B-4,34.333,167/1000,47,100.0
188,C5,34.5,0.125,59,100.0
189,D5,35.0,167/1000,71,100.0
190,F4,35.167,167/1000,52,100.0
191,E-5,35.333,167/1000,55,100.0
192,F5,35.5,0.125,65,100.0
193,E-3,35.5,0.125,49,100.0
194,E-2,35.5,0.125,49,100.0
195,G4,36.0,167/1000,59,100.0
196,F2,36.0,0.25,68,100.0
197,F3,36.0,0.25,68,100.0
198,B-3,36.167,167/1000,44,100.0
199,A4,36.333,167/1000,44,100.0
200,B-4,36.5,0.125,59,100.0
201,C5,37.0,167/1000,68,100.0
202,B-1,37.0,0.25,60,100.0
203,B-2,37.0,0.25,60,100.0
204,E-4,37.167,167/1000,51,100.0
205,D5,37.333,167/1000,51,100.0
206,E-5,37.5,0.125,66,100.0
207,F#4,38.0,167/1000,59,100.0
208,E-3,38.0,0.5,69,100.0
209,E-2,38.0,0.5,69,100.0
210,A3,38.167,167/1000,45,100.0
211,G4,38.333,167/1000,45,100.0
212,A4,38.5,0.125,58,100.0
213,C5,39.0,167/1000,66,100.0
214,E-4,39.167,167/1000,50,100.0
215,D5,39.333,167/1000,51,100.0
216,E-5,39.5,0.125,65,100.0
217,A2,39.5,0.5,74,100.0
218,A1,39.5,0.5,74,100.0
219,F#4,40.0,167/1000,62,100.0
220,D3,40.0,1.0,68,100.0
221,D2,40.0,1.0,68,100.0
222,A3,40.167,167/1000,47,100.0
223,G4,40.333,167/1000,51,100.0
224,A4,40.5,0.125,60,100.0
225,C5,41.0,167/1000,66,100.0
226,E-4,41.167,167/1000,53,100.0
227,D5,41.333,167/1000,50,100.0
228,E-5,41.5,0.125,65,100.0
229,G#1,41.5,0.5,71,100.0
230,G#2,41.5,0.5,71,100.0
231,F#4,42.0,167/1000,66,100.0
232,D3,42.0,1.0,62,100.0
233,D2,42.0,1.0,62,100.0
234,A3,42.167,167/1000,51,100.0
235,G4,42.333,167/1000,51,100.0
236,A4,42.5,0.125,64,100.0
237,C4,43.0,167/1000,59,100.0
238,A3,43.167,167/1000,47,100.0
239,D4,43.333,167/1000,45,100.0
240,E-4,43.5,0.125,56,100.0
241,A1,43.5,0.5,71,100.0
242,A2,43.5,0.5,71,100.0
243,F#3,44.0,167/1000,54,100.0
244,D3,44.0,2.0,68,100.0
245,D2,44.0,2.0,57,100.0
246,D3,44.167,167/1000,38,100.0
247,G3,44.333,167/1000,38,100.0
248,A3,44.5,0.125,52,100.0
249,D3,45.0,0.125,50,100.0
250,D3,45.5,0.125,52,100.0
251,G3,46.0,167/1000,50,100.0
252,D2,46.0,1.0,57,100.0
253,D3,46.167,167/1000,37,100.0
254,A3,46.333,167/1000,37,100.0
255,B-3,46.5,0.125,50,100.0
256,A3,47.0,167/1000,50,100.0
257,D3,47.167,167/1000,38,100.0
258,B-3,47.333,167/1000,38,100.0
259,C4,47.5,0.125,50,100.0
260,D2,47.5,0.125,52,100.0
261,B-3,48.0,167/1000,50,100.0
262,G1,48.0,2.0,46,100.0
263,G2,48.0,2.0,46,100.0
264,D3,48.167,167/1000,37,100.0
265,C4,48.333,167/1000,39,100.0
266,D4,48.5,0.125,51,100.0
267,G3,49.0,167/1000,52,100.0
268,D3,49.167,167/1000,40,100.0
269,A3,49.333,167/1000,40,100.0
270,B-3,49.5,0.125,53,100.0
271,A3,50.0,167/1000,55,100.0
272,E-3,50.167,167/1000,42,100.0
273,B-3,50.333,167/1000,42,100.0
274,C4,50.5,0.125,56,100.0
275,B3,51.0,167/1000,57,100.0
276,G1,51.0,1.0,46,100.0
277,G2,51.0,1.0,46,100.0
278,F3,51.167,167/1000,44,100.0
279,C4,51.333,167/1000,49,100.0
280,D4,51.5,0.125,58,100.0
281,C4,52.0,167/1000,60,100.0
282,E-3,52.167,167/1000,48,100.0
283,D4,52.333,167/1000,49,100.0
284,E-4,52.5,0.125,61,100.0
285,B-2,52.5,0.125,43,100.0
286,B-1,52.5,0.125,43,100.0
287,B3,53.0,167/1000,62,100.0
288,C2,53.0,1.0,50,100.0
289,C3,53.0,1.0,50,100.0
290,F3,53.167,167/1000,53,100.0
291,C4,53.333,167/1000,54,100.0
292,D4,53.5,0.125,63,100.0
293,C4,54.0,167/1000,65,100.0
294,D2,54.0,1.0,50,100.0
295,D3,54.0,1.0,50,100.0
296,G3,54.167,167/1000,55,100.0
297,D4,54.333,167/1000,56,100.0
298,E-4,54.5,0.25,66,100.0
299,C4,54.75,0.25,63,100.0
300,D4,55.0,167/1000,67,100.0
301,E-3,55.0,1.0,55,100.0
302,E-2,55.0,1.0,55,100.0
303,G3,55.167,167/1000,58,100.0
304,E-4,55.333,167/1000,58,100.0
305,F4,55.5,0.125,68,100.0
306,E4,56.0,167/1000,70,100.0
307,G3,56.167,167/1000,60,100.0
308,F#4,56.333,167/1000,60,100.0
309,G4,56.5,0.25,70,100.0
310,D2,56.5,0.25,55,100.0
311,D3,56.5,0.25,55,100.0
312,G4,57.0,167/1000,75,100.0
313,C3,57.0,1.0,60,100.0
314,C2,57.0,1.0,60,100.0
315,B-3,57.167,167/1000,65,100.0
316,A4,57.333,167/1000,64,100.0
317,B-4,57.5,0.25,75,100.0
318,D4,58.0,1.0,80,100.0
319,D5,58.0,1.0,80,100.0
320,D2,58.0,1.0,59,100.0
321,D3,58.0,1.0,59,100.0
322,D4,59.0,1.0,70,100.0
323,F#4,59.0,1.0,70,100.0
324,A3,59.0,1.0,70,100.0
325,C#2,59.0,1.5,64,100.0
326,C#3,59.0,1.5,64,100.0
327,E4,60.0,167/1000,70,100.0
328,G3,60.167,167/1000,60,100.0
329,F#4,60.333,167/1000,60,100.0
330,G4,60.5,0.25,70,100.0
331,C#2,60.5,0.125,62,100.0
332,C#3,60.5,0.125,62,100.0
333,G4,61.0,167/1000,74,100.0
334,D3,61.0,1.0,78,100.0
335,D2,61.0,1.0,78,100.0
336,B-3,61.167,167/1000,67,100.0
337,A4,61.333,167/1000,70,100.0
338,B-4,61.5,0.25,82,100.0
339,D5,62.0,1.0,85,100.0
340,B-4,62.0,1.0,85,100.0
341,G5,62.0,1.0,85,100.0
342,D2,62.0,1.0,70,100.0
343,D3,62.0,1.0,70,100.0
344,F#4,63.0,1.0,76,100.0
345,D5,63.0,1.0,76,100.0
346,A4,63.0,1.0,76,100.0
347,C#3,63.0,1.5,64,100.0
348,C#2,63.0,1.5,64,100.0
349,D4,64.0,1.0,76,100.0
350,G4,64.0,1.0,76,100.0
351,B-3,64.0,1.0,76,100.0
352,C#3,64.5,0.125,62,100.0
353,C#2,64.5,0.125,62,100.0
354,D2,65.0,1.0,86,100.0
355,D3,65.0,1.0,86,100.0
356,F3,65.994,3/500,43,100.0
357,F3,66.0,247/500,43,100.0
358,D2,66.0,1.0,77,100.0
359,D3,66.0,1.0,77,100.0
360,G3,66.492,0.5,43,100.0
361,G2,67.0,1.0,77,100.0
362,G1,67.0,1.0,77,100.0
363,A3,67.01,0.5,43,100.0
364,B-3,67.502,249/500,43,100.0
365,B-3,68.0,1/500,43,100.0
366,C4,68.008,0.5,43,100.0
367,D4,68.498,0.5,46,100.0
368,B-1,69.0,2.0,50,100.0
369,B-2,69.0,2.0,50,100.0
370,E-4,69.004,0.5,49,100.0
371,D3,69.25,0.25,30,100.0
372,F4,69.496,0.5,56,100.0
373,G4,70.042,1.938,69,100.0
374,D3,70.25,0.25,36,100.0
375,F4,70.5,0.5,59,100.0
376,E-4,71.0,0.5,56,100.0
377,D4,71.5,0.5,50,100.0
378,G4,72.0,1.0,59,100.0
379,B-1,72.0,1.0,50,100.0
380,B-2,72.0,1.0,50,100.0
381,D3,72.25,0.25,31,100.0
382,C3,73.0,1.0,50,100.0
383,G#1,73.0,1.0,50,100.0
384,A4,73.004,0.5,55,100.0
385,D3,73.25,0.25,31,100.0
386,B4,73.498,0.5,59,100.0
387,E-4,73.875,0.125,60,100.0
388,E-4,74.0,2.0,60,100.0
389,B2,74.0,2.0,50,100.0
390,G1,74.0,2.0,50,100.0
391,E-5,74.042,979/500,69,100.0
392,D3,74.25,0.25,35,100.0
393,D3,75.25,0.25,32,100.0
394,E-4,76.0,0.5,60,100.0
395,E-5,76.0,0.5,69,100.0
396,D5,76.5,7/10,51,100.0
397,C4,77.0,0.5,43,100.0
398,B2,77.0,1.0,50,100.0
399,G1,77.0,1.0,50,100.0
400,C5,77.2,1/5,55,100.0
401,D3,77.25,0.25,30,100.0
402,B-4,77.4,1/5,53,100.0
403,B3,77.5,0.5,41,100.0
404,A4,77.6,1/5,51,100.0
405,G4,77.8,1/5,50,100.0
406,A3,78.0,0.5,43,100.0
407,E-4,78.015,0.5,59,100.0
408,F4,78.021,1979/1000,59,100.0
409,D3,78.25,0.25,30,100.0
410,G3,78.5,0.5,40,100.0
411,D4,78.504,0.5,53,100.0
412,C3,79.0,0.5,45,100.0
413,C4,79.004,0.5,49,100.0
414,C2,79.25,0.25,31,100.0
415,B-3,79.485,0.5,48,100.0
416,D3,79.5,0.5,42,100.0
417,F4,80.0,6/5,59,100.0
418,E-3,80.0,0.5,47,100.0
419,C3,80.25,0.25,32,100.0
420,F3,80.5,0.5,42,100.0
421,G3,81.0,0.5,48,100.0
422,G4,81.2,1/5,42,100.0
423,C3,81.25,0.25,32,100.0
424,A4,81.4,1/5,46,100.0
425,A3,81.5,0.5,39,100.0
426,B-4,81.6,1/5,50,100.0
427,C5,81.8,1/5,54,100.0
428,B3,82.0,333/1000,42,100.0
429,D5,82.042,229/500,63,100.0
430,D4,82.25,0.25,32,100.0
431,C4,82.333,333/1000,47,100.0
432,C5,82.5,0.5,56,100.0
433,D4,82.667,333/1000,52,100.0
434,B-4,83.0,0.5,63,100.0
435,A3,83.0,2.0,57,100.0
436,F2,83.0,2.0,57,100.0
437,G5,83.01,99/100,65,100.0
438,B-3,83.25,0.25,32,100.0
439,F3,83.25,0.25,32,100.0
440,A4,83.5,0.5,54,100.0
441,G4,84.0,0.5,48,100.0
442,G5,84.0,51/100,65,100.0
443,B-3,84.25,1.75,37,100.0
444,F3,84.25,0.25,32,100.0
445,F4,84.5,0.5,48,100.0
446,F5,84.5,0.5,48,100.0
447,E4,85.0,0.5,47,100.0
448,E5,85.0,0.25,56,100.0
449,A3,85.0,0.5,47,100.0
450,F2,85.0,2.0,57,100.0
451,F5,85.25,0.125,44,100.0
452,F3,85.25,0.25,32,100.0
453,E5,85.375,0.125,35,100.0
454,G3,85.5,0.5,43,100.0
455,D4,85.5,0.25,49,100.0
456,D5,85.5,0.25,49,100.0
457,C5,85.752,31/125,44,100.0
458,C4,85.752,31/125,44,100.0
459,C5,86.0,0.5,53,100.0
460,F3,86.0,0.25,46,100.0
461,C5,86.0,1/500,44,100.0
462,C4,86.0,1/500,44,100.0
463,C4,86.25,0.25,32,100.0
464,E-3,86.25,0.25,45,100.0
465,B-4,86.5,0.5,53,100.0
466,D3,86.5,0.25,44,100.0
467,C3,86.75,0.25,42,100.0
468,A4,87.0,0.5,49,100.0
469,B-1,87.0,1.0,38,100.0
470,B-2,87.0,1.0,38,100.0
471,F5,87.01,99/100,58,100.0
472,A3,87.25,0.25,32,100.0
473,G4,87.5,0.5,54,100.0
474,F4,88.0,0.5,48,100.0
475,F5,88.0,51/100,58,100.0
476,A3,88.25,1.75,37,100.0
477,E5,88.5,0.5,48,100.0
478,E4,88.5,0.5,48,100.0
479,D4,89.0,0.5,47,100.0
480,D5,89.0,0.25,56,100.0
481,E5,89.25,0.062,43,100.0
482,D5,89.312,0.062,44,100.0
483,C#5,89.375,0.062,45,100.0
484,D5,89.438,0.062,46,100.0
485,E5,89.496,0.25,50,100.0
486,E4,89.496,0.25,50,100.0
487,F4,89.752,121/500,50,100.0
488,F5,89.752,121/500,50,100.0
489,F5,90.0,0.5,61,100.0
490,F4,90.25,0.25,37,100.0
491,E5,90.5,0.5,53,100.0
492,D5,91.0,0.75,58,100.0
493,A2,91.0,1.0,41,100.0
494,F4,91.25,0.25,30,100.0
495,C5,91.75,0.25,52,100.0
496,C5,92.0,0.5,58,100.0
497,C4,92.25,0.25,37,100.0
498,B-4,92.5,0.5,53,100.0
499,A4,93.0,0.75,58,100.0
500,C4,93.25,0.25,31,100.0
501,G4,93.75,0.25,52,100.0
502,G4,94.0,2.0,43,100.0
503,G#3,94.0,1.0,41,100.0
504,B2,94.0,1.0,41,100.0
505,B-3,94.25,1.0,37,100.0
506,C4,95.0,2.0,41,100.0
507,A3,95.0,2.0,41,100.0
508,C3,95.0,2.0,41,100.0
509,B-3,95.25,0.75,37,100.0
510,F4,96.0,0.5,43,100.0
511,A3,96.25,0.75,31,100.0
512,E-4,96.5,0.5,43,100.0
513,D4,97.0,0.5,47,100.0
514,B-3,97.0,2.0,41,100.0
515,E4,97.0,2.0,41,100.0
516,C3,97.0,2.0,41,100.0
517,C#4,97.5,0.5,40,100.0
518,C#4,98.0,0.5,40,100.0
519,D4,98.5,0.5,43,100.0
520,F3,99.002,0.5,43,100.0
521,C4,99.006,997/500,43,100.0
522,E3,99.5,0.5,43,100.0
523,D3,99.996,0.5,43,100.0
524,C4,99.998,1/500,43,100.0
525,C4,100.0,249/500,43,100.0
526,D4,100.492,0.5,46,100.0
527,C3,100.5,0.5,43,100.0
528,C4,101.0,503/500,43,100.0
529,E-4,101.015,0.5,49,100.0
530,F3,101.015,397/200,43,100.0
531,F4,101.51,49/100,56,100.0
532,F4,102.0,1/100,56,100.0
533,F2,102.0,1.0,43,100.0
534,G4,102.052,973/500,67,100.0
535,E-3,102.25,0.75,31,100.0
536,F4,102.5,0.5,59,100.0
537,F3,102.99,1/100,43,100.0
538,E-4,103.0,0.5,56,100.0
539,F3,103.0,1/500,43,100.0
540,F3,103.0,49/100,43,100.0
541,B-2,103.0,2.0,50,100.0
542,B-1,103.0,2.0,50,100.0
543,D3,103.25,0.25,30,100.0
544,G3,103.485,0.5,43,100.0
545,D4,103.5,0.5,50,100.0
546,G4,104.0,1.0,59,100.0
547,A3,104.01,0.5,43,100.0
548,D3,104.25,0.25,36,100.0
549,B-3,104.51,49/100,43,100.0
550,A4,105.01,0.5,55,100.0
551,B4,105.506,247/500,59,100.0
552,E-4,105.875,0.125,60,100.0
553,E-4,106.0,2.0,60,100.0
554,B4,106.0,3/500,59,100.0
555,B-3,106.0,1/100,43,100.0
556,B-2,106.0,1.0,50,100.0
557,B-1,106.0,1.0,50,100.0
558,E-5,106.01,199/100,69,100.0
559,D3,106.25,0.25,31,100.0
560,C3,107.0,1.0,50,100.0
561,G#1,107.0,1.0,50,100.0
562,D3,107.25,0.25,31,100.0
563,E-4,108.0,0.5,60,100.0
564,E-5,108.0,0.5,69,100.0
565,G1,108.0,2.0,50,100.0
566,B2,108.0,2.0,50,100.0
567,D3,108.25,0.25,35,100.0
568,D5,108.5,7/10,51,100.0
569,C5,109.2,1/5,55,100.0
570,D3,109.25,0.25,32,100.0
571,B-4,109.4,1/5,53,100.0
572,A4,109.6,1/5,51,100.0
573,G4,109.8,1/5,50,100.0
574,E-4,109.985,3/200,59,100.0
575,E-4,110.0,97/200,59,100.0
576,F4,110.021,1979/1000,59,100.0
577,D4,110.494,0.5,53,100.0
578,C4,111.0,0.5,43,100.0
579,G1,111.0,1.0,50,100.0
580,B2,111.0,1.0,50,100.0
581,C4,111.01,0.5,49,100.0
582,D3,111.25,0.25,30,100.0
583,B-3,111.487,0.5,48,100.0
584,B3,111.5,0.5,41,100.0
585,F4,112.0,6/5,59,100.0
586,A3,112.0,0.5,43,100.0
587,D3,112.25,0.25,30,100.0
588,G3,112.5,0.5,40,100.0
589,C3,113.0,0.5,45,100.0
590,G4,113.2,1/5,42,100.0
591,C2,113.25,0.25,31,100.0
592,A4,113.4,1/5,46,100.0
593,D3,113.5,0.5,42,100.0
594,B-4,113.6,1/5,50,100.0
595,C5,113.8,1/5,54,100.0
596,E-3,114.0,0.5,47,100.0
597,D5,114.042,229/500,63,100.0
598,D4,114.25,0.25,32,100.0
599,C3,114.25,0.25,32,100.0
600,C5,114.5,0.5,56,100.0
601,F3,114.5,0.5,42,100.0
602,B-4,115.0,0.5,63,100.0
603,G3,115.0,0.5,48,100.0
604,G5,115.01,99/100,63,100.0
605,B-3,115.25,0.25,32,100.0
606,C3,115.25,0.25,32,100.0
607,A4,115.5,0.5,54,100.0
608,A3,115.5,0.5,39,100.0
609,G4,116.0,0.5,48,100.0
610,G5,116.0,251/500,63,100.0
611,B3,116.0,333/1000,42,100.0
612,B-3,116.25,1.75,37,100.0
613,C4,116.333,333/1000,47,100.0
614,F4,116.5,0.5,48,100.0
615,F5,116.5,0.5,48,100.0
616,D4,116.667,333/1000,52,100.0
617,E4,117.0,0.5,47,100.0
618,E5,117.0,0.25,56,100.0
619,F2,117.0,2.0,57,100.0
620,A3,117.0,997/500,57,100.0
621,F5,117.25,0.125,39,100.0
622,F3,117.25,0.25,32,100.0
623,E5,117.375,0.125,36,100.0
624,D5,117.492,0.25,49,100.0
625,D4,117.492,0.25,49,100.0
626,C4,117.752,233/1000,44,100.0
627,C5,117.752,233/1000,44,100.0
628,C5,118.0,0.5,53,100.0
629,C4,118.25,0.25,32,100.0
630,F3,118.25,0.25,32,100.0
631,B-4,118.5,0.5,53,100.0
632,A4,119.0,0.5,49,100.0
633,A3,119.0,0.5,47,100.0
634,F2,119.0,2.0,57,100.0
635,F5,119.008,124/125,58,100.0
636,A3,119.25,0.25,32,100.0
637,F3,119.25,0.25,32,100.0
638,G3,119.496,0.5,43,100.0
639,G4,119.5,0.5,54,100.0
640,F4,120.0,0.5,48,100.0
641,F5,120.0,0.5,58,100.0
642,F3,120.0,0.25,46,100.0
643,A3,120.25,1.75,37,100.0
644,E-3,120.25,0.25,45,100.0
645,D3,120.5,0.25,44,100.0
646,E4,120.5,0.5,48,100.0
647,E5,120.5,0.5,48,100.0
648,C3,120.75,0.25,42,100.0
649,D5,121.0,0.25,56,100.0
650,D4,121.0,0.5,47,100.0
651,B-2,121.0,1.0,38,100.0
652,B-1,121.0,1.0,38,100.0
653,E5,121.25,0.062,43,100.0
654,D5,121.312,0.062,44,100.0
655,C#5,121.375,0.062,45,100.0
656,D5,121.438,0.062,46,100.0
657,E5,121.49,0.25,50,100.0
658,E4,121.49,0.25,50,100.0
659,F5,121.748,0.25,50,100.0
660,F4,121.748,0.25,50,100.0
661,F5,122.0,0.5,61,100.0
662,F4,122.25,0.25,37,100.0
663,E5,122.5,0.5,53,100.0
664,D5,123.0,0.75,58,100.0
665,F4,123.25,0.25,30,100.0
666,C5,123.75,0.25,52,100.0
667,C5,124.0,0.5,58,100.0
668,C4,124.25,0.25,37,100.0
669,B-4,124.5,0.5,53,100.0
670,A4,125.0,0.75,58,100.0
671,A2,125.0,1.0,41,100.0
672,C4,125.25,0.25,31,100.0
673,G4,125.75,0.25,52,100.0
674,G4,126.0,2.0,43,100.0
675,B-3,126.25,1.0,37,100.0
676,B-3,127.25,0.75,37,100.0
677,F4,128.0,1.0,43,100.0
678,B2,128.0,1.0,41,100.0
679,G#3,128.0,1.0,41,100.0
680,A3,128.25,0.75,31,100.0
681,A3,129.0,2.0,41,100.0
682,C3,129.0,2.0,41,100.0
683,C4,129.0,2.0,41,100.0
684,F4,129.99,1/100,43,100.0
685,F4,130.0,49/100,43,100.0
686,E-4,130.25,0.25,30,100.0
687,G4,130.492,0.5,43,100.0
688,A4,130.985,0.5,43,100.0
689,E4,131.0,2.0,41,100.0
690,B-3,131.0,2.0,41,100.0
691,C3,131.0,2.0,41,100.0
692,E-4,131.25,0.25,36,100.0
693,B-4,131.508,123/250,43,100.0
694,B-4,132.0,1/125,43,100.0
695,C5,132.002,0.5,43,100.0
696,E-4,132.25,0.25,31,100.0
697,D5,132.498,0.5,46,100.0
698,F3,132.998,1/500,43,100.0
699,C4,133.0,2.0,43,100.0
700,F3,133.0,249/500,43,100.0
701,E-5,133.002,0.5,49,100.0
702,E-4,133.25,0.25,31,100.0
703,F5,133.494,0.5,56,100.0
704,E3,133.515,0.5,43,100.0
705,D3,133.992,0.5,43,100.0
706,F#5,134.021,0.5,62,100.0
707,E-4,134.25,0.25,35,100.0
708,C3,134.5,0.5,43,100.0
709,F5,134.506,0.5,59,100.0
710,E-5,134.99,0.5,56,100.0
711,C4,135.0,1.0,43,100.0
712,F3,135.01,1.0,43,100.0
713,E-4,135.25,0.25,32,100.0
714,C#5,135.496,0.5,50,100.0
715,C5,136.002,0.5,43,100.0
716,E-4,136.25,0.25,30,100.0
717,B-4,136.508,0.5,41,100.0
718,F2,136.875,0.125,50,100.0
719,A3,137.0,2.0,50,100.0
720,F2,137.0,2.0,50,100.0
721,A4,137.006,0.5,43,100.0
722,E-4,137.25,0.25,30,100.0
723,B-4,137.517,483/1000,40,100.0
724,B-4,138.0,17/1000,40,100.0
725,F4,138.0,0.5,36,100.0
726,A4,138.0,0.5,36,100.0
727,E-4,138.25,0.25,25,100.0
728,G4,138.504,0.5,36,100.0
729,A4,138.985,0.5,36,100.0
730,A3,139.0,2.0,50,100.0
731,F2,139.0,2.0,50,100.0
732,E-4,139.25,0.25,30,100.0
733,B-4,139.5,0.5,36,100.0
734,C5,139.994,3/500,36,100.0
735,C5,140.0,247/500,36,100.0
736,E-4,140.25,0.25,26,100.0
737,C#5,140.485,0.5,39,100.0
738,E-2,140.875,0.125,50,100.0
739,B-3,141.0,2.0,50,100.0
740,E-2,141.0,2.0,50,100.0
741,E-5,141.002,0.5,41,100.0
742,E-4,141.25,0.25,26,100.0
743,F5,141.492,0.5,47,100.0
744,F#5,142.021,0.5,52,100.0
745,E-4,142.25,0.25,29,100.0
746,F5,142.5,0.5,50,100.0
747,E-5,143.0,0.75,47,100.0
748,C3,143.0,2.0,50,100.0
749,E-2,143.0,2.0,50,100.0
750,E-4,143.25,0.25,27,100.0
751,C#5,143.75,0.25,42,100.0
752,C#5,144.021,247/500,36,100.0
753,E-4,144.25,0.25,25,100.0
754,C5,144.5,0.5,34,100.0
755,B-4,145.0,0.125,36,100.0
756,F2,145.0,2.0,42,100.0
757,C3,145.0,2.0,50,100.0
758,C5,145.125,0.125,36,100.0
759,B-4,145.25,0.5,41,100.0
760,C4,145.25,0.25,41,100.0
761,G#4,145.75,0.25,34,100.0
762,C#5,146.021,1979/1000,36,100.0
763,C#4,146.25,1.0,36,100.0
764,F2,147.0,0.5,42,100.0
765,C3,147.0,0.5,50,100.0
766,C#4,147.25,0.75,36,100.0
767,C#5,148.0,1.0,36,100.0
768,C#4,148.0,0.25,36,100.0
769,C#4,148.25,1.0,36,100.0
770,E-2,148.875,0.125,42,100.0
771,B-3,149.0,2.0,42,100.0
772,E-2,149.0,2.0,42,100.0
773,C#4,149.25,0.25,36,100.0
774,C#4,149.5,0.5,44,100.0
775,C#4,150.0,0.25,44,100.0
776,C#4,150.25,1.0,36,100.0
777,F#2,151.0,2.0,42,100.0
778,C#4,151.25,0.75,36,100.0
779,C#4,152.0,0.25,36,100.0
780,C#4,152.25,1.0,36,100.0
781,G#2,152.5,0.5,34,100.0
782,C#3,153.0,0.5,34,100.0
783,F2,153.0,1.0,34,100.0
784,C#4,153.25,0.5,36,100.0
785,E-3,153.498,0.5,29,100.0
786,C#4,153.75,0.25,36,100.0
787,F3,153.988,253/250,34,100.0
788,C#4,154.0,0.5,36,100.0
789,B-3,154.25,0.25,30,100.0
790,F#3,154.494,0.5,34,100.0
791,E-4,154.5,0.5,29,100.0
792,G#3,154.994,3/500,36,100.0
793,F4,155.0,0.5,37,100.0
794,F3,155.0,2.0,34,100.0
795,G#3,155.0,247/500,36,100.0
796,B-3,155.25,0.25,30,100.0
797,F#4,155.5,0.5,39,100.0
798,B-3,155.5,0.5,37,100.0
799,G#4,156.0,0.5,41,100.0
800,C4,156.01,0.5,42,100.0
801,B-3,156.25,0.25,36,100.0
802,B-4,156.5,0.5,43,100.0
803,B4,157.0,0.5,46,100.0
804,F3,157.0,497/250,34,100.0
805,D4,157.021,0.5,45,100.0
806,B-3,157.25,0.25,30,100.0
807,C#5,157.5,0.5,48,100.0
808,B3,157.5,0.5,42,100.0
809,G#3,158.0,0.5,38,100.0
810,D5,158.021,479/1000,54,100.0
811,B3,158.25,0.25,35,100.0
812,B4,158.5,0.5,47,100.0
813,F3,158.5,0.5,37,100.0
814,G#4,159.0,0.5,45,100.0
815,C#3,159.0,2.0,36,100.0
816,B3,159.25,0.25,30,100.0
817,F4,159.5,0.5,41,100.0
818,B2,159.5,0.5,35,100.0
819,D4,160.0,1.0,46,100.0
820,G#2,160.0,0.5,34,100.0
821,G#3,160.25,0.25,37,100.0
822,B3,160.5,0.5,41,100.0
823,F2,160.5,0.5,33,100.0
824,G#3,161.0,0.25,40,100.0
825,F#2,161.0,2.0,36,100.0
826,C#3,161.0,2.0,36,100.0
827,F3,161.25,0.25,38,100.0
828,D3,161.5,0.25,36,100.0
829,B2,161.75,0.25,34,100.0
830,C#4,162.0,0.5,36,100.0
831,B-3,162.25,0.25,30,100.0
832,E-4,162.5,0.5,29,100.0
833,F4,163.0,0.5,37,100.0
834,F#2,163.0,1.75,36,100.0
835,C#3,163.0,1.75,36,100.0
836,B-3,163.25,0.25,30,100.0
837,F#4,163.5,0.5,39,100.0
838,G#4,164.0,0.5,41,100.0
839,B-3,164.25,0.25,36,100.0
840,B-4,164.5,0.5,43,100.0
841,C#3,164.75,0.25,37,100.0
842,F#2,164.75,0.25,37,100.0
843,B4,165.0,0.5,44,100.0
844,D3,165.0,2.0,45,100.0
845,F#2,165.0,4.0,37,100.0
846,B-3,165.25,0.25,30,100.0
847,C5,165.5,0.5,47,100.0
848,D4,166.0,497/500,49,100.0
849,C#5,166.01,49/100,54,100.0
850,B-3,166.25,0.25,35,100.0
851,B-4,166.5,0.5,41,100.0
852,G4,167.0,0.5,45,100.0
853,B-3,167.25,0.25,30,100.0
854,E4,167.5,0.5,41,100.0
855,C#4,168.0,0.5,43,100.0
856,G3,168.25,0.25,33,100.0
857,B-3,168.5,0.5,41,100.0
858,A3,169.0,0.875,46,100.0
859,D3,169.0,1.5,45,100.0
860,F3,169.333,271/500,32,100.0
861,E-3,169.667,26/125,27,100.0
862,B-3,169.875,0.125,36,100.0
863,B-3,170.0,0.5,35,100.0
864,F3,170.0,0.5,35,100.0
865,G3,170.5,0.5,35,100.0
866,A3,171.0,0.5,36,100.0
867,C#3,171.0,2.0,36,100.0
868,F#2,171.0,2.0,36,100.0
869,B-3,171.5,0.5,37,100.0
870,C4,172.0,0.5,38,100.0
871,D4,172.5,0.5,42,100.0
872,E-4,173.0,0.5,46,100.0
873,C#3,173.0,1.75,36,100.0
874,F#2,173.0,2.0,36,100.0
875,F4,173.5,0.5,54,100.0
876,G4,174.04,49/25,65,100.0
877,F4,174.5,0.5,59,100.0
878,C#3,174.75,0.25,37,100.0
879,E-4,175.0,0.5,56,100.0
880,E3,175.0,2.0,45,100.0
881,C2,175.0,2.0,45,100.0
882,D4,175.5,0.5,50,100.0
883,G4,176.0,1.0,59,100.0
884,C#4,176.0,497/500,41,100.0
885,A4,176.992,0.5,55,100.0
886,B4,177.494,0.5,59,100.0
887,E-4,177.875,0.125,60,100.0
888,E-4,178.0,2.0,60,100.0
889,E3,178.0,1.0,45,100.0
890,C2,178.0,1.0,45,100.0
891,E-5,178.012,497/250,69,100.0
892,F2,179.0,1.0,34,100.0
893,E-4,180.0,0.5,60,100.0
894,E-5,180.0,64/125,69,100.0
895,B-1,180.0,2.0,40,100.0
896,B-2,180.0,2.0,40,100.0
897,D3,180.25,0.25,24,100.0
898,D5,180.5,7/10,51,100.0
899,C5,181.2,1/5,55,100.0
900,D3,181.25,0.25,30,100.0
901,B-4,181.4,1/5,53,100.0
902,A4,181.6,1/5,51,100.0
903,G4,181.8,1/5,50,100.0
904,E-4,182.0,0.5,59,100.0
905,F4,182.021,1979/1000,59,100.0
906,D4,182.5,0.5,53,100.0
907,C4,183.0,0.5,49,100.0
908,B-1,183.0,1.0,40,100.0
909,B-2,183.0,1.0,40,100.0
910,D3,183.25,0.25,28,100.0
911,B-3,183.5,0.5,48,100.0
912,F4,184.0,6/5,59,100.0
913,C3,184.0,1.0,47,100.0
914,G#1,184.0,1.0,47,100.0
915,D3,184.25,0.25,29,100.0
916,G1,185.0,2.0,50,100.0
917,B2,185.0,2.0,50,100.0
918,G4,185.2,1/5,42,100.0
919,D3,185.25,0.25,35,100.0
920,A4,185.4,1/5,46,100.0
921,B-4,185.6,1/5,50,100.0
922,C5,185.8,1/5,54,100.0
923,D5,186.0,0.5,63,100.0
924,D4,186.25,0.25,44,100.0
925,D3,186.25,0.25,32,100.0
926,C5,186.5,0.5,56,100.0
927,B-4,187.0,0.5,63,100.0
928,G5,187.021,979/1000,63,100.0
929,B-3,187.25,0.25,42,100.0
930,A4,187.5,0.5,54,100.0
931,G4,188.0,0.5,48,100.0
932,G5,188.0,0.5,63,100.0
933,C4,188.0,0.5,43,100.0
934,G1,188.0,1.0,50,100.0
935,B2,188.0,1.0,50,100.0
936,B-3,188.25,1.75,37,100.0
937,D3,188.25,0.25,30,100.0
938,B3,188.5,0.5,41,100.0
939,F4,188.5,49/100,48,100.0
940,F5,188.5,49/100,48,100.0
941,E5,189.0,0.25,56,100.0
942,E4,189.0,0.5,47,100.0
943,A3,189.0,0.5,43,100.0
944,F5,189.25,0.125,44,100.0
945,D3,189.25,0.25,30,100.0
946,E5,189.375,0.125,37,100.0
947,G3,189.5,0.5,40,100.0
948,D4,189.504,0.25,49,100.0
949,D5,189.504,0.25,49,100.0
950,C5,189.74,0.25,44,100.0
951,C4,189.74,0.25,44,100.0
952,C5,190.0,0.5,53,100.0
953,C3,190.0,0.5,45,100.0
954,C4,190.25,0.25,32,100.0
955,C2,190.25,0.25,31,100.0
956,B-4,190.5,0.5,53,100.0
957,D3,190.5,0.5,42,100.0
958,A4,191.0,0.5,49,100.0
959,E-3,191.0,0.5,47,100.0
960,F5,191.015,197/200,58,100.0
961,A3,191.25,0.25,32,100.0
962,C3,191.25,0.25,32,100.0
963,G4,191.5,0.5,54,100.0
964,F3,191.5,0.5,42,100.0
965,F4,192.0,0.5,48,100.0
966,F5,192.0,0.5,58,100.0
967,G3,192.0,0.5,48,100.0
968,A3,192.25,1.75,37,100.0
969,C3,192.25,0.25,32,100.0
970,A3,192.5,0.5,39,100.0
971,E4,192.5,0.5,48,100.0
972,E5,192.5,0.5,48,100.0
973,D4,193.0,0.5,47,100.0
974,D5,193.0,0.25,56,100.0
975,B3,193.0,333/1000,42,100.0
976,E5,193.25,0.062,43,100.0
977,D5,193.312,0.062,44,100.0
978,C4,193.333,333/1000,47,100.0
979,C#5,193.375,0.062,45,100.0
980,D5,193.438,0.062,46,100.0
981,E4,193.496,0.25,50,100.0
982,E5,193.496,0.25,50,100.0
983,D4,193.667,333/1000,52,100.0
984,F4,193.74,0.25,50,100.0
985,F5,193.74,0.25,50,100.0
986,F5,194.0,0.5,61,100.0
987,A3,194.0,2.0,57,100.0
988,F2,194.0,2.0,57,100.0
989,F4,194.25,0.25,37,100.0
990,F3,194.25,0.25,32,100.0
991,E5,194.5,0.5,53,100.0
992,D5,195.0,0.75,58,100.0
993,F4,195.25,0.25,30,100.0
994,F3,195.25,0.25,32,100.0
995,C5,195.75,0.25,52,100.0
996,C5,196.0,0.5,58,100.0
997,A3,196.0,0.5,47,100.0
998,F2,196.0,2.0,57,100.0
999,C4,196.25,0.25,37,100.0
1000,F3,196.25,0.25,32,100.0
1001,B-4,196.5,0.5,53,100.0
1002,G3,196.5,0.5,43,100.0
1003,A4,197.0,0.75,58,100.0
1004,F3,197.0,0.25,46,100.0
1005,C4,197.25,0.25,31,100.0
1006,E-3,197.25,0.25,45,100.0
1007,D3,197.5,0.25,44,100.0
1008,G4,197.75,0.25,52,100.0
1009,C3,197.75,0.25,42,100.0
1010,G4,198.0,2.0,43,100.0
1011,B-2,198.0,1.0,38,100.0
1012,B-1,198.0,1.0,38,100.0
1013,B-3,198.25,1.0,37,100.0
1014,B-3,199.25,0.75,37,100.0
1015,F4,200.0,1.0,43,100.0
1016,B-3,200.0,0.25,37,100.0
1017,A3,200.25,0.75,31,100.0
1018,A2,202.0,1.0,41,100.0
1019,F4,202.015,0.5,43,100.0
1020,E-4,202.25,0.25,30,100.0
1021,G4,202.485,0.5,43,100.0
1022,A4,202.996,0.5,43,100.0
1023,E-4,203.25,0.25,36,100.0
1024,B-4,203.512,61/125,43,100.0
1025,C5,203.994,3/500,43,100.0
1026,B-4,204.0,3/250,43,100.0
1027,C5,204.0,247/500,43,100.0
1028,E-4,204.25,0.25,31,100.0
1029,D5,204.492,0.5,46,100.0
1030,B2,205.0,1.0,41,100.0
1031,G#3,205.0,1.0,41,100.0
1032,E-5,205.017,0.5,49,100.0
1033,E-4,205.25,0.25,31,100.0
1034,F5,205.515,97/200,56,100.0
1035,F5,206.0,3/200,56,100.0
1036,C3,206.0,2.0,41,100.0
1037,C4,206.0,2.0,41,100.0
1038,A3,206.0,2.0,41,100.0
1039,F#5,206.019,481/1000,62,100.0
1040,E-4,206.25,0.25,35,100.0
1041,F5,206.5,0.5,59,100.0
1042,E-5,207.01,0.5,56,100.0
1043,E-4,207.25,0.25,32,100.0
1044,C#5,207.49,0.5,50,100.0
1045,E4,208.0,2.0,41,100.0
1046,B-3,208.0,2.0,41,100.0
1047,C3,208.0,2.0,41,100.0
1048,C5,208.002,0.5,43,100.0
1049,E-4,208.25,0.25,30,100.0
1050,B-4,208.512,0.5,41,100.0
1051,A4,209.01,0.5,43,100.0
1052,E-4,209.25,0.25,30,100.0
1053,B-4,209.498,0.5,40,100.0
1054,A4,209.988,3/250,36,100.0
1055,F4,209.988,3/250,36,100.0
1056,C4,210.0,2.0,43,100.0
1057,F3,210.0,0.5,43,100.0
1058,A4,210.0,61/125,36,100.0
1059,F4,210.0,61/125,36,100.0
1060,E-4,210.25,0.25,25,100.0
1061,E3,210.5,0.5,43,100.0
1062,G4,210.515,0.5,36,100.0
1063,A4,211.0,0.5,36,100.0
1064,D3,211.0,0.5,43,100.0
1065,E-4,211.25,0.25,30,100.0
1066,B-4,211.496,0.5,36,100.0
1067,C3,211.5,0.5,43,100.0
1068,F3,212.0,1.0,43,100.0
1069,C4,212.0,1.0,43,100.0
1070,C5,212.015,0.5,36,100.0
1071,E-4,212.25,0.25,26,100.0
1072,C#5,212.485,0.5,39,100.0
1073,E-5,213.012,0.5,41,100.0
1074,E-4,213.25,0.25,26,100.0
1075,F5,213.49,0.5,47,100.0
1076,A3,214.0,2.0,50,100.0
1077,F2,214.0,2.0,50,100.0
1078,F#5,214.021,0.5,52,100.0
1079,E-4,214.25,0.25,29,100.0
1080,F5,214.5,0.5,50,100.0
1081,E-5,215.0,0.75,47,100.0
1082,E-4,215.25,0.25,27,100.0
1083,C#5,215.75,0.25,42,100.0
1084,C#5,216.0,0.5,36,100.0
1085,E-4,216.25,0.25,25,100.0
1086,C5,216.5,0.5,34,100.0
1087,B-4,217.0,0.125,36,100.0
1088,C5,217.125,0.125,36,100.0
1089,B-4,217.25,0.5,36,100.0
1090,C4,217.25,0.25,25,100.0
1091,G#4,217.75,0.25,34,100.0
1092,C#5,218.0,2.0,36,100.0
1093,A3,218.0,2.0,50,100.0
1094,F2,218.0,2.0,50,100.0
1095,C#4,218.25,1.0,36,100.0
1096,C#4,219.25,0.75,36,100.0
1097,E-2,219.875,0.125,50,100.0
1098,C#5,220.0,1.0,36,100.0
1099,C#4,220.0,0.25,36,100.0
1100,B-3,220.0,2.0,50,100.0
1101,E-2,220.0,2.0,50,100.0
1102,C#4,220.25,1.0,36,100.0
1103,C#4,221.25,0.25,36,100.0
1104,C#4,221.5,0.5,43,100.0
1105,C#4,222.0,0.25,43,100.0
1106,C3,222.0,2.0,50,100.0
1107,E-2,222.0,2.0,50,100.0
1108,C#4,222.25,1.0,36,100.0
1109,C#4,223.25,0.75,36,100.0
1110,C#4,224.0,0.25,36,100.0
1111,F2,224.0,2.0,42,100.0
1112,C3,224.0,2.0,50,100.0
1113,C#4,224.25,1.0,36,100.0
1114,C#4,225.25,0.5,36,100.0
1115,C#4,225.75,0.25,36,100.0
1116,C#4,226.0,0.5,36,100.0
1117,F2,226.0,0.5,42,100.0
1118,C3,226.0,0.5,50,100.0
1119,B-3,226.25,0.25,30,100.0
1120,E-4,226.5,0.5,29,100.0
1121,F4,227.0,0.5,37,100.0
1122,B-3,227.25,0.25,30,100.0
1123,F#4,227.5,0.5,39,100.0
1124,E-2,227.875,0.125,42,100.0
1125,G#4,228.0,0.5,41,100.0
1126,B-3,228.0,2.0,42,100.0
1127,E-2,228.0,2.0,42,100.0
1128,B-3,228.25,0.25,36,100.0
1129,B-4,228.5,0.5,43,100.0
1130,B4,229.0,0.5,44,100.0
1131,B-3,229.25,0.25,30,100.0
1132,C#5,229.5,0.5,47,100.0
1133,F#2,230.0,2.0,42,100.0
1134,D5,230.021,0.5,54,100.0
1135,B3,230.25,0.25,35,100.0
1136,B4,230.5,0.5,41,100.0
1137,G#4,231.0,0.5,45,100.0
1138,B3,231.25,0.25,30,100.0
1139,F4,231.5,0.5,41,100.0
1140,G#2,231.5,0.5,34,100.0
1141,C#3,231.998,1/500,34,100.0
1142,D4,232.0,1.0,46,100.0
1143,F2,232.0,1.0,34,100.0
1144,C#3,232.0,249/500,34,100.0
1145,G#3,232.25,0.25,37,100.0
1146,B3,232.5,0.5,41,100.0
1147,E-3,232.504,0.5,29,100.0
1148,G#3,233.0,0.25,40,100.0
1149,F3,233.008,124/125,34,100.0
1150,F3,233.25,0.25,38,100.0
1151,D3,233.5,0.25,36,100.0
1152,F#3,233.5,0.5,34,100.0
1153,B2,233.75,0.25,34,100.0
1154,C#4,234.0,0.5,36,100.0
1155,F3,234.0,4.0,34,100.0
1156,G#3,234.01,0.5,36,100.0
1157,B-3,234.25,0.25,30,100.0
1158,E-4,234.5,0.5,29,100.0
1159,B-3,234.512,0.5,36,100.0
1160,C4,234.998,0.5,40,100.0
1161,F4,235.0,0.5,37,100.0
1162,B-3,235.25,0.25,30,100.0
1163,F#4,235.5,0.5,39,100.0
1164,G#4,236.0,0.5,41,100.0
1165,B-3,236.25,0.25,36,100.0
1166,B-4,236.5,0.5,43,100.0
1167,B4,237.0,0.5,44,100.0
1168,B-3,237.25,0.25,30,100.0
1169,C5,237.5,0.5,43,100.0
1170,C#5,238.019,0.5,50,100.0
1171,D4,238.021,479/1000,46,100.0
1172,B-3,238.25,0.25,35,100.0
1173,B-4,238.5,0.5,41,100.0
1174,B3,238.5,0.5,44,100.0
1175,G4,239.0,0.5,45,100.0
1176,G#3,239.0,0.5,38,100.0
1177,B-3,239.25,0.25,30,100.0
1178,E4,239.5,0.5,41,100.0
1179,F3,239.5,0.5,37,100.0
1180,C#4,240.0,0.5,43,100.0
1181,C#3,240.0,2.0,36,100.0
1182,F3,240.0,1/125,37,100.0
1183,G3,240.25,0.25,33,100.0
1184,B-3,240.5,0.5,41,100.0
1185,B2,240.5,0.5,35,100.0
1186,A3,241.0,0.875,46,100.0
1187,G#2,241.0,0.5,34,100.0
1188,F3,241.333,271/500,32,100.0
1189,F2,241.5,0.5,33,100.0
1190,E-3,241.667,26/125,27,100.0
1191,B-3,241.875,0.125,36,100.0
1192,F#2,242.0,2.0,36,100.0
1193,C#3,242.0,2.0,36,100.0
1194,F3,242.0,0.5,35,100.0
1195,B-3,242.0,0.5,35,100.0
1196,G3,242.5,0.5,35,100.0
1197,A3,242.988,0.5,36,100.0
1198,B-3,243.498,0.5,37,100.0
1199,F#2,244.0,1.75,36,100.0
1200,C#3,244.0,1.75,36,100.0
1201,C4,244.006,0.5,38,100.0
1202,D4,244.504,0.5,42,100.0
1203,E-4,244.985,0.5,46,100.0
1204,F4,245.51,49/100,54,100.0
1205,C#3,245.75,0.25,37,100.0
1206,F#2,245.75,0.25,37,100.0
1207,F4,246.0,1/100,54,100.0
1208,D3,246.0,2.0,45,100.0
1209,F#2,246.0,4.0,37,100.0
1210,G4,246.021,1979/1000,62,100.0
1211,F4,246.5,0.5,59,100.0
1212,E-4,247.0,0.5,56,100.0
1213,D4,247.0,249/250,49,100.0
1214,D4,247.5,0.5,50,100.0
1215,G4,248.0,1.0,59,100.0
1216,A4,249.0,0.5,55,100.0
1217,B4,249.5,0.5,59,100.0
1218,E-4,249.875,0.125,60,100.0
1219,E-5,250.0,2.0,69,100.0
1220,E-4,250.0,2.0,60,100.0
1221,D3,250.0,1.5,45,100.0
1222,E-5,252.0,0.5,69,100.0
1223,E-4,252.0,0.5,60,100.0
1224,C#3,252.0,2.0,36,100.0
1225,F#2,252.0,2.0,36,100.0
1226,D5,252.5,7/10,51,100.0
1227,C5,253.2,1/5,55,100.0
1228,B-4,253.4,1/5,53,100.0
1229,A4,253.6,1/5,51,100.0
1230,G4,253.8,1/5,50,100.0
1231,F4,254.0,2.0,59,100.0
1232,E-4,254.0,0.5,59,100.0
1233,C#3,254.0,1.75,36,100.0
1234,F#2,254.0,2.0,36,100.0
1235,D4,254.5,0.5,53,100.0
1236,C4,255.0,0.5,49,100.0
1237,B-3,255.5,0.5,48,100.0
1238,C#3,255.75,0.25,37,100.0
1239,F4,256.0,6/5,59,100.0
1240,C2,256.0,2.0,45,100.0
1241,E3,256.0,2.0,45,100.0
1242,C#4,257.0,497/500,41,100.0
1243,G4,257.2,1/5,42,100.0
1244,A4,257.4,1/5,46,100.0
1245,B-4,257.6,1/5,50,100.0
1246,C5,257.8,1/5,54,100.0
1247,D5,258.0,0.5,59,100.0
1248,D4,258.25,0.25,32,100.0
1249,C5,258.5,0.5,55,100.0
1250,B-4,259.0,0.5,65,100.0
1251,C2,259.0,1.0,45,100.0
1252,E3,259.0,1.0,45,100.0
1253,D4,259.25,0.25,37,100.0
1254,A4,259.5,0.5,54,100.0
1255,F2,260.0,1.0,34,100.0
1256,G5,260.021,479/1000,69,100.0
1257,F5,260.5,0.5,56,100.0
1258,E-5,261.0,0.5,64,100.0
1259,B-1,261.0,2.0,40,100.0
1260,B-2,261.0,2.0,40,100.0
1261,F4,261.25,0.25,32,100.0
1262,D3,261.25,0.25,24,100.0
1263,D5,261.5,0.5,54,100.0
1264,C5,262.0,0.5,59,100.0
1265,C4,262.25,0.25,32,100.0
1266,D3,262.25,0.25,30,100.0
1267,B-4,262.5,0.5,51,100.0
1268,G#4,263.0,0.5,57,100.0
1269,C4,263.25,0.25,32,100.0
1270,G4,263.5,0.5,52,100.0
1271,B-1,264.0,1.0,40,100.0
1272,B-2,264.0,1.0,40,100.0
1273,F5,264.021,479/1000,65,100.0
1274,D3,264.25,0.25,28,100.0
1275,E-5,264.5,0.5,56,100.0
1276,D5,265.0,0.5,64,100.0
1277,C3,265.0,1.0,47,100.0
1278,G#1,265.0,1.0,47,100.0
1279,E-4,265.25,0.25,32,100.0
1280,D3,265.25,0.25,29,100.0
1281,C5,265.5,0.5,54,100.0
1282,B-4,266.0,0.5,59,100.0
1283,B2,266.0,2.0,50,100.0
1284,G1,266.0,2.0,50,100.0
1285,D4,266.25,0.25,32,100.0
1286,D3,266.25,0.25,35,100.0
1287,G#4,266.5,0.5,51,100.0
1288,G4,267.0,0.5,57,100.0
1289,G#3,267.25,0.25,32,100.0
1290,D3,267.25,0.25,32,100.0
1291,F#4,267.5,0.5,52,100.0
1292,G4,268.0,0.5,59,100.0
1293,G3,268.25,0.25,32,100.0
1294,E-4,268.5,0.5,51,100.0
1295,D4,269.0,0.5,53,100.0
1296,C4,269.0,0.5,43,100.0
1297,B2,269.0,1.0,50,100.0
1298,G1,269.0,1.0,50,100.0
1299,G3,269.25,0.25,32,100.0
1300,D3,269.25,0.25,30,100.0
1301,C#4,269.5,0.5,48,100.0
1302,B3,269.5,0.5,41,100.0
1303,D4,270.0,333/1000,53,100.0
1304,A3,270.0,0.5,43,100.0
1305,D3,270.25,0.25,30,100.0
1306,A3,270.333,333/1000,41,100.0
1307,G3,270.5,0.5,40,100.0
1308,G3,270.667,333/1000,41,100.0
1309,C3,270.994,3/500,45,100.0
1310,F#3,271.0,0.5,48,100.0
1311,C3,271.0,247/500,45,100.0
1312,C2,271.25,0.25,31,100.0
1313,D3,271.485,0.5,42,100.0
1314,G3,271.5,0.5,31,100.0
1315,E3,271.5,0.5,31,100.0
1316,F#3,272.0,1.0,45,100.0
1317,A3,272.0,1.0,45,100.0
1318,D4,272.0,1.0,45,100.0
1319,E-3,272.012,0.5,47,100.0
1320,C3,272.25,0.25,32,100.0
1321,F3,272.502,249/500,42,100.0
1322,F3,273.0,1/500,42,100.0
1323,G3,273.008,0.5,48,100.0
1324,C3,273.25,0.25,32,100.0
1325,D3,273.5,0.125,46,100.0
1326,A3,273.512,0.5,39,100.0
1327,G3,274.0,167/1000,50,100.0
1328,B3,274.0,333/1000,42,100.0
1329,D3,274.167,167/1000,35,100.0
1330,A3,274.333,167/1000,35,100.0
1331,C4,274.333,333/1000,47,100.0
1332,B-3,274.5,0.125,50,100.0
1333,D4,274.667,333/1000,52,100.0
1334,A3,275.0,167/1000,50,100.0
1335,A3,275.0,2.0,57,100.0
1336,F2,275.0,2.0,57,100.0
1337,D3,275.167,167/1000,38,100.0
1338,F3,275.25,0.25,32,100.0
1339,B-3,275.333,167/1000,39,100.0
1340,C4,275.5,0.125,50,100.0
1341,B-3,276.0,167/1000,50,100.0
1342,D3,276.167,167/1000,36,100.0
1343,F3,276.25,0.25,32,100.0
1344,C4,276.333,167/1000,36,100.0
1345,D4,276.5,0.125,50,100.0
1346,G3,277.0,167/1000,50,100.0
1347,A3,277.0,0.5,47,100.0
1348,F2,277.0,2.0,57,100.0
1349,D3,277.167,167/1000,37,100.0
1350,F3,277.25,0.25,32,100.0
1351,A3,277.333,167/1000,37,100.0
1352,B-3,277.5,0.125,50,100.0
1353,G3,277.5,0.5,43,100.0
1354,A3,278.0,167/1000,50,100.0
1355,F3,278.0,0.25,46,100.0
1356,E-3,278.167,167/1000,38,100.0
1357,E-3,278.25,0.25,45,100.0
1358,B-3,278.333,167/1000,38,100.0
1359,C4,278.5,0.125,50,100.0
1360,D3,278.5,0.25,44,100.0
1361,C3,278.75,0.25,42,100.0
1362,F#3,279.0,167/1000,50,100.0
1363,B-1,279.0,1.0,38,100.0
1364,B-2,279.0,1.0,38,100.0
1365,C3,279.167,167/1000,37,100.0
1366,G3,279.333,167/1000,37,100.0
1367,A3,279.5,0.125,50,100.0
1368,G3,280.0,167/1000,50,100.0
1369,F#4,280.0,1.0,40,100.0
1370,D3,280.167,167/1000,39,100.0
1371,A3,280.333,167/1000,39,100.0
1372,B-3,280.5,0.125,50,100.0
1373,A3,281.0,0.25,50,100.0
1374,F#4,281.0,0.25,40,100.0
1375,G4,281.25,0.75,30,100.0
1376,F#3,281.375,0.125,44,100.0
1377,D3,281.5,0.125,58,100.0
1378,G3,282.0,167/1000,50,100.0
1379,A4,282.0,0.5,32,100.0
1380,D3,282.167,167/1000,37,100.0
1381,A3,282.333,167/1000,37,100.0
1382,B-3,282.5,0.125,50,100.0
1383,B-4,282.5,0.5,30,100.0
1384,A3,283.0,167/1000,50,100.0
1385,B-2,283.0,1.0,41,100.0
1386,D3,283.167,167/1000,39,100.0
1387,B-3,283.333,167/1000,39,100.0
1388,C4,283.5,0.125,50,100.0
1389,B-3,284.0,167/1000,50,100.0
1390,E-4,284.0,1.0,40,100.0
1391,D3,284.167,167/1000,37,100.0
1392,C4,284.333,167/1000,37,100.0
1393,D4,284.5,0.125,50,100.0
1394,G3,285.0,167/1000,50,100.0
1395,E-4,285.0,0.25,40,100.0
1396,D3,285.167,167/1000,39,100.0
1397,F4,285.25,0.75,30,100.0
1398,A3,285.333,167/1000,39,100.0
1399,B-3,285.5,0.125,50,100.0
1400,A3,286.0,167/1000,50,100.0
1401,G4,286.0,0.5,32,100.0
1402,E-3,286.167,167/1000,39,100.0
1403,B-3,286.333,167/1000,39,100.0
1404,C4,286.5,0.125,50,100.0
1405,G#4,286.5,0.5,30,100.0
1406,B3,287.0,167/1000,50,100.0
1407,B-2,287.0,2.0,41,100.0
1408,D3,287.167,167/1000,38,100.0
1409,C4,287.333,167/1000,38,100.0
1410,D4,287.5,0.125,50,100.0
1411,C4,288.0,167/1000,50,100.0
1412,G3,288.167,167/1000,42,100.0
1413,D4,288.333,167/1000,44,100.0
1414,E-4,288.5,0.125,50,100.0
1415,B-1,288.5,0.5,41,100.0
1416,B3,289.0,167/1000,54,100.0
1417,E-2,289.0,1.0,41,100.0
1418,F3,289.167,167/1000,50,100.0
1419,C4,289.333,167/1000,50,100.0
1420,D4,289.5,0.125,56,100.0
1421,C4,290.0,167/1000,59,100.0
1422,A1,290.0,1.0,29,100.0
1423,A2,290.0,1.0,35,100.0
1424,G3,290.167,167/1000,51,100.0
1425,D4,290.333,167/1000,51,100.0
1426,E-4,290.5,0.125,59,100.0
1427,E-4,291.0,167/1000,63,100.0
1428,D2,291.0,2.0,36,100.0
1429,A2,291.0,1.5,35,100.0
1430,G3,291.167,167/1000,53,100.0
1431,F4,291.333,167/1000,54,100.0
1432,G4,291.5,0.125,61,100.0
1433,F#4,292.0,167/1000,70,100.0
1434,F#3,292.167,167/1000,57,100.0
1435,G4,292.333,167/1000,57,100.0
1436,A4,292.5,0.125,71,100.0
1437,B-2,292.5,0.5,31,100.0
1438,D2,292.875,0.125,35,100.0
1439,D4,293.0,0.125,67,100.0
1440,A2,293.0,1.0,41,100.0
1441,D2,293.0,1.0,35,100.0
1442,D4,293.5,0.125,73,100.0
1443,G4,294.0,167/1000,64,100.0
1444,D4,294.167,167/1000,49,100.0
1445,A4,294.333,167/1000,49,100.0
1446,B-4,294.5,0.125,64,100.0
1447,D2,294.5,0.125,42,100.0
1448,A4,295.0,167/1000,64,100.0
1449,G2,295.0,2.0,46,100.0
1450,G1,295.0,2.0,46,100.0
1451,D4,295.167,167/1000,50,100.0
1452,B-4,295.333,167/1000,50,100.0
1453,C5,295.5,0.125,64,100.0
1454,B-4,296.0,167/1000,64,100.0
1455,D4,296.167,167/1000,49,100.0
1456,C5,296.333,167/1000,49,100.0
1457,D5,296.5,0.125,64,100.0
1458,G4,297.0,167/1000,64,100.0
1459,D4,297.167,167/1000,51,100.0
1460,A4,297.333,167/1000,51,100.0
1461,B-4,297.5,0.125,64,100.0
1462,A4,298.0,167/1000,64,100.0
1463,G2,298.0,1.0,46,100.0
1464,G1,298.0,1.0,46,100.0
1465,E-4,298.167,167/1000,50,100.0
1466,B-4,298.333,167/1000,50,100.0
1467,C5,298.5,0.125,64,100.0
1468,F#4,299.0,167/1000,64,100.0
1469,C4,299.167,167/1000,50,100.0
1470,G4,299.333,167/1000,50,100.0
1471,A4,299.5,0.125,64,100.0
1472,B-1,299.5,0.125,40,100.0
1473,B-2,299.5,0.125,40,100.0
1474,G4,300.0,167/1000,64,100.0
1475,C2,300.0,0.25,46,100.0
1476,C3,300.0,0.25,46,100.0
1477,D4,300.167,167/1000,51,100.0
1478,A4,300.333,167/1000,51,100.0
1479,B-4,300.5,0.125,64,100.0
1480,A4,301.0,0.25,64,100.0
1481,D2,301.0,0.25,44,100.0
1482,D3,301.0,0.25,44,100.0
1483,F#4,301.375,0.125,52,100.0
1484,D4,301.5,0.125,62,100.0
1485,G4,302.0,167/1000,64,100.0
1486,G1,302.0,0.5,46,100.0
1487,G2,302.0,0.5,46,100.0
1488,D4,302.167,167/1000,49,100.0
1489,A4,302.333,167/1000,49,100.0
1490,B-4,302.5,0.125,64,100.0
1491,A4,303.0,167/1000,64,100.0
1492,D4,303.167,167/1000,52,100.0
1493,B-4,303.333,167/1000,52,100.0
1494,C5,303.5,0.125,64,100.0
1495,D2,303.5,0.125,49,100.0
1496,B-4,304.0,167/1000,64,100.0
1497,G1,304.0,2.0,46,100.0
1498,G2,304.0,2.0,46,100.0
1499,D4,304.167,167/1000,49,100.0
1500,C5,304.333,167/1000,49,100.0
1501,D5,304.5,0.125,64,100.0
1502,E-5,305.0,167/1000,71,100.0
1503,G4,305.167,167/1000,51,100.0
1504,F5,305.333,167/1000,51,100.0
1505,G5,305.5,0.125,64,100.0
1506,A4,306.0,167/1000,59,100.0
1507,C4,306.167,167/1000,46,100.0
1508,B-4,306.333,167/1000,51,100.0
1509,C5,306.5,0.125,59,100.0
1510,D5,307.0,167/1000,71,100.0
1511,G1,307.0,1.0,46,100.0
1512,G2,307.0,1.0,46,100.0
1513,F4,307.167,167/1000,53,100.0
1514,E-5,307.333,167/1000,53,100.0
1515,F5,307.5,0.125,65,100.0
1516,G4,308.0,167/1000,59,100.0
1517,B-3,308.167,167/1000,47,100.0
1518,A4,308.333,167/1000,47,100.0
1519,B-4,308.5,0.125,59,100.0
1520,B-1,308.5,0.125,40,100.0
1521,B-2,308.5,0.125,40,100.0
1522,C5,309.0,167/1000,68,100.0
1523,C2,309.0,0.25,46,100.0
1524,C3,309.0,0.25,46,100.0
1525,E-4,309.167,167/1000,54,100.0
1526,D5,309.333,167/1000,54,100.0
1527,E-5,309.5,0.125,66,100.0
1528,F#4,310.0,167/1000,59,100.0
1529,D2,310.0,0.25,44,100.0
1530,D3,310.0,0.25,44,100.0
1531,A3,310.167,167/1000,46,100.0
1532,G4,310.333,167/1000,46,100.0
1533,A4,310.5,0.125,58,100.0
1534,C5,311.0,167/1000,66,100.0
1535,E-3,311.0,0.5,46,100.0
1536,E-2,311.0,0.5,46,100.0
1537,E-4,311.167,167/1000,51,100.0
1538,D5,311.333,167/1000,51,100.0
1539,E-5,311.5,0.125,65,100.0
1540,F#4,312.0,167/1000,62,100.0
1541,A3,312.167,167/1000,51,100.0
1542,G4,312.333,167/1000,46,100.0
1543,A4,312.5,0.125,60,100.0
1544,D2,312.5,0.25,38,100.0
1545,D3,312.5,0.25,38,100.0
1546,C5,313.0,167/1000,66,100.0
1547,E-3,313.0,0.25,50,100.0
1548,E-2,313.0,0.25,50,100.0
1549,E-4,313.167,167/1000,50,100.0
1550,D5,313.333,167/1000,50,100.0
1551,E-5,313.5,0.125,65,100.0
1552,F#4,314.0,167/1000,66,100.0
1553,C3,314.0,0.25,52,100.0
1554,C2,314.0,0.25,52,100.0
1555,A3,314.167,167/1000,53,100.0
1556,G4,314.333,167/1000,53,100.0
1557,A4,314.5,0.125,64,100.0
1558,C4,315.0,167/1000,59,100.0
1559,D2,315.0,0.5,54,100.0
1560,D3,315.0,0.5,54,100.0
1561,A3,315.167,167/1000,47,100.0
1562,D4,315.333,167/1000,47,100.0
1563,E-4,315.5,0.125,56,100.0
1564,F#3,316.0,167/1000,51,100.0
1565,D3,316.167,167/1000,43,100.0
1566,G3,316.333,167/1000,43,100.0
1567,A3,316.5,0.125,52,100.0
1568,D3,316.5,0.125,70,100.0
1569,D3,317.0,0.125,50,100.0
1570,G2,317.0,2.0,64,100.0
1571,B-2,317.0,1.0,70,100.0
1572,G3,317.0,1.0,70,100.0
1573,D3,317.5,0.125,52,100.0
1574,G3,318.0,167/1000,50,100.0
1575,A3,318.0,1.0,74,100.0
1576,D3,318.0,1.0,74,100.0
1577,D3,318.167,167/1000,38,100.0
1578,A3,318.333,167/1000,39,100.0
1579,B-3,318.5,0.125,50,100.0
1580,A3,319.0,167/1000,50,100.0
1581,G3,319.0,1.0,78,100.0
1582,B-3,319.0,1.0,78,100.0
1583,D3,319.167,167/1000,39,100.0
1584,B-3,319.333,167/1000,39,100.0
1585,C4,319.5,0.125,50,100.0
1586,B-3,320.0,167/1000,50,100.0
1587,D3,320.167,167/1000,38,100.0
1588,C4,320.333,167/1000,38,100.0
1589,D4,320.5,0.125,51,100.0
1590,G3,320.5,0.125,66,100.0
1591,B-2,320.5,0.125,66,100.0
1592,G3,321.0,167/1000,52,100.0
1593,C3,321.0,1.0,71,100.0
1594,A3,321.0,1.0,71,100.0
1595,G3,321.0,1.0,71,100.0
1596,D3,321.167,167/1000,42,100.0
1597,A3,321.333,167/1000,42,100.0
1598,B-3,321.5,0.125,53,100.0
1599,A3,322.0,167/1000,55,100.0
1600,D4,322.0,1.0,68,100.0
1601,F#3,322.0,1.0,68,100.0
1602,D3,322.0,1.0,68,100.0
1603,E-3,322.167,167/1000,39,100.0
1604,B-3,322.333,167/1000,43,100.0
1605,C4,322.5,0.125,56,100.0
1606,B3,323.0,167/1000,57,100.0
1607,G3,323.0,1.0,72,100.0
1608,B-2,323.0,1.0,72,100.0
1609,D3,323.0,1.0,72,100.0
1610,F3,323.167,167/1000,43,100.0
1611,C4,323.333,167/1000,46,100.0
1612,D4,323.5,0.125,58,100.0
1613,C4,324.0,167/1000,60,100.0
1614,E-3,324.167,167/1000,48,100.0
1615,D4,324.333,167/1000,49,100.0
1616,E-4,324.5,0.125,61,100.0
1617,D3,324.5,0.125,71,100.0
1618,B3,325.0,167/1000,62,100.0
1619,G2,325.0,2.0,68,100.0
1620,B-2,325.0,1.0,74,100.0
1621,G3,325.0,1.0,74,100.0
1622,F3,325.167,167/1000,51,100.0
1623,C4,325.333,167/1000,52,100.0
1624,D4,325.5,0.125,63,100.0
1625,C4,326.0,167/1000,65,100.0
1626,A3,326.0,1.0,74,100.0
1627,D3,326.0,1.0,74,100.0
1628,G3,326.167,167/1000,55,100.0
1629,D4,326.333,167/1000,56,100.0
1630,E-4,326.5,0.25,66,100.0
1631,C4,326.75,0.25,63,100.0
1632,D4,327.0,167/1000,68,100.0
1633,G3,327.0,1.0,78,100.0
1634,B-3,327.0,1.0,78,100.0
1635,G3,327.167,167/1000,59,100.0
1636,E-4,327.333,167/1000,59,100.0
1637,F4,327.5,0.125,70,100.0
1638,E4,328.0,167/1000,73,100.0
1639,G3,328.167,167/1000,63,100.0
1640,F#4,328.333,167/1000,63,100.0
1641,G4,328.5,0.25,74,100.0
1642,E-3,328.5,0.125,49,100.0
1643,E-2,328.5,0.125,49,100.0
1644,G4,329.0,167/1000,80,100.0
1645,F3,329.0,0.25,68,100.0
1646,F2,329.0,0.25,68,100.0
1647,B-3,329.167,167/1000,70,100.0
1648,A4,329.333,167/1000,69,100.0
1649,B-4,329.5,0.125,81,100.0
1650,D4,330.0,1.0,80,100.0
1651,D5,330.0,1.0,80,100.0
1652,B-1,330.0,0.25,60,100.0
1653,B-2,330.0,0.25,60,100.0
1654,A3,331.0,1.0,70,100.0
1655,D4,331.0,1.0,70,100.0
1656,F#4,331.0,1.0,70,100.0
1657,E-3,331.0,0.5,69,100.0
1658,E-2,331.0,0.5,69,100.0
1659,E4,332.0,167/1000,70,100.0
1660,G3,332.167,167/1000,60,100.0
1661,F#4,332.333,167/1000,60,100.0
1662,G4,332.5,0.25,71,100.0
1663,A1,332.5,0.5,74,100.0
1664,A2,332.5,0.5,74,100.0
1665,G4,333.0,167/1000,77,100.0
1666,D3,333.0,1.0,68,100.0
1667,D2,333.0,1.0,68,100.0
1668,B-3,333.167,167/1000,70,100.0
1669,A4,333.333,167/1000,74,100.0
1670,B-4,333.5,0.125,87,100.0
1671,D5,334.0,1.0,85,100.0
1672,B-4,334.0,1.0,85,100.0
1673,G5,334.0,1.0,85,100.0
1674,G#2,334.5,0.5,71,100.0
1675,G#1,334.5,0.5,71,100.0
1676,F#4,335.0,0.5,76,100.0
1677,A4,335.0,0.5,76,100.0
1678,D5,335.0,0.5,76,100.0
1679,D3,335.0,1.0,62,100.0
1680,D2,335.0,1.0,62,100.0
1681,F4,335.5,0.5,79,100.0
1682,G#5,336.0,167/1000,85,100.0
1683,G#4,336.167,167/1000,55,100.0
1684,G#5,336.333,167/1000,64,100.0
1685,F5,336.5,0.25,77,100.0
1686,A1,336.5,0.5,71,100.0
1687,A2,336.5,0.5,71,100.0
1688,F5,337.0,167/1000,85,100.0
1689,D2,337.0,2.0,57,100.0
1690,D3,337.0,2.0,68,100.0
1691,F4,337.167,167/1000,54,100.0
1692,E-5,337.333,167/1000,63,100.0
1693,D5,337.5,0.25,77,100.0
1694,D5,338.0,167/1000,85,100.0
1695,D4,338.167,167/1000,58,100.0
1696,C5,338.333,167/1000,65,100.0
1697,B4,338.5,0.25,77,100.0
1698,B4,339.0,167/1000,85,100.0
1699,D2,339.0,1.0,57,100.0
1700,B3,339.167,167/1000,60,100.0
1701,G#4,339.333,167/1000,65,100.0
1702,G4,339.5,0.25,77,100.0
1703,G4,340.0,167/1000,85,100.0
1704,C4,340.167,167/1000,60,100.0
1705,B4,340.333,167/1000,67,100.0
1706,C5,340.5,0.25,77,100.0
1707,D2,340.5,0.125,52,100.0
1708,C5,341.0,167/1000,86,100.0
1709,G1,341.0,2.0,46,100.0
1710,G2,341.0,2.0,46,100.0
1711,E-4,341.167,167/1000,62,100.0
1712,D5,341.333,167/1000,68,100.0
1713,E-5,341.5,0.25,79,100.0
1714,E-5,342.0,167/1000,94,100.0
1715,G4,342.167,167/1000,72,100.0
1716,F5,342.333,167/1000,77,100.0
1717,G5,342.5,0.25,92,100.0
1718,G5,343.0,167/1000,90,100.0
1719,C5,343.167,167/1000,81,100.0
1720,B5,343.333,167/1000,83,100.0
1721,C6,343.5,0.25,97,100.0
1722,E-6,344.0,167/1000,97,100.0
1723,G1,344.0,1.0,46,100.0
1724,G2,344.0,1.0,46,100.0
1725,E-5,344.167,167/1000,70,100.0
1726,D6,344.333,167/1000,77,100.0
1727,C6,344.5,0.25,87,100.0
1728,C6,345.0,167/1000,95,100.0
1729,C5,345.167,167/1000,68,100.0
1730,B-5,345.333,167/1000,74,100.0
1731,A5,345.5,0.25,84,100.0
1732,B-2,345.5,0.125,43,100.0
1733,B-1,345.5,0.125,43,100.0
1734,A5,346.0,167/1000,91,100.0
1735,C3,346.0,1.0,50,100.0
1736,C2,346.0,1.0,50,100.0
1737,G4,346.167,167/1000,64,100.0
1738,G5,346.333,167/1000,71,100.0
1739,F#5,346.5,0.25,81,100.0
1740,F#5,347.0,167/1000,88,100.0
1741,D3,347.0,1.0,50,100.0
1742,D2,347.0,1.0,50,100.0
1743,F#4,347.167,167/1000,62,100.0
1744,E-5,347.333,167/1000,68,100.0
1745,D5,347.5,0.25,78,100.0
1746,B-5,348.0,167/1000,93,100.0
1747,E-2,348.0,1.0,55,100.0
1748,E-3,348.0,1.0,55,100.0
1749,B-4,348.167,167/1000,67,100.0
1750,A5,348.333,167/1000,74,100.0
1751,G5,348.5,0.25,83,100.0
1752,G5,349.0,167/1000,91,100.0
1753,G4,349.167,167/1000,63,100.0
1754,F5,349.333,167/1000,71,100.0
1755,E-5,349.5,0.25,82,100.0
1756,D2,349.5,0.25,55,100.0
1757,D3,349.5,0.25,55,100.0
1758,B-5,350.0,167/1000,89,100.0
1759,C3,350.0,1.0,60,100.0
1760,C2,350.0,1.0,60,100.0
1761,B-4,350.167,167/1000,63,100.0
1762,A5,350.333,167/1000,68,100.0
1763,G5,350.5,0.25,80,100.0
1764,G5,351.0,167/1000,87,100.0
1765,D3,351.0,1.0,60,100.0
1766,D2,351.0,1.0,60,100.0
1767,G4,351.167,167/1000,60,100.0
1768,F5,351.333,167/1000,67,100.0
1769,E-5,351.5,0.25,78,100.0
1770,B-5,352.0,167/1000,85,100.0
1771,C#3,352.0,1.5,66,100.0
1772,C#2,352.0,1.5,66,100.0
1773,B-4,352.167,167/1000,60,100.0
1774,A5,352.333,167/1000,67,100.0
1775,G5,352.5,0.25,77,100.0
1776,G5,353.0,167/1000,85,100.0
1777,G4,353.167,167/1000,58,100.0
1778,F5,353.333,167/1000,64,100.0
1779,E-5,353.5,0.25,76,100.0
1780,C#2,353.5,0.125,66,100.0
1781,C#3,353.5,0.125,66,100.0
1782,E-5,354.0,167/1000,84,100.0
1783,D2,354.0,1.0,78,100.0
1784,D3,354.0,1.0,78,100.0
1785,E-4,354.167,167/1000,59,100.0
1786,D5,354.333,167/1000,65,100.0
1787,C5,354.5,0.25,75,100.0
1788,C5,355.0,167/1000,83,100.0
1789,D2,355.0,1.0,70,100.0
1790,D3,355.0,1.0,70,100.0
1791,C4,355.167,167/1000,55,100.0
1792,B-4,355.333,167/1000,62,100.0
1793,A4,355.5,0.25,74,100.0
1794,B-4,356.0,167/1000,82,100.0
1795,C#2,356.0,1.5,64,100.0
1796,C#3,356.0,1.5,64,100.0
1797,B-3,356.167,167/1000,57,100.0
1798,A4,356.333,167/1000,62,100.0
1799,G4,356.5,0.25,73,100.0
1800,G4,357.0,167/1000,81,100.0
1801,G3,357.167,167/1000,57,100.0
1802,F4,357.333,167/1000,63,100.0
1803,E-4,357.5,0.25,73,100.0
1804,C#2,357.5,0.125,65,100.0
1805,C#3,357.5,0.125,65,100.0
1806,B-4,358.0,167/1000,80,100.0
1807,D2,358.0,1.0,86,100.0
1808,D3,358.0,1.0,86,100.0
1809,B-3,358.167,167/1000,56,100.0
1810,A4,358.333,167/1000,62,100.0
1811,G4,358.5,0.25,72,100.0
1812,G4,359.0,167/1000,79,100.0
1813,D3,359.0,1.0,77,100.0
1814,D2,359.0,1.0,77,100.0
1815,G3,359.167,167/1000,54,100.0
1816,F4,359.333,167/1000,60,100.0
1817,E-4,359.5,0.25,71,100.0
1818,B-4,360.0,167/1000,79,100.0
1819,G2,360.0,1.0,77,100.0
1820,G1,360.0,1.0,77,100.0
1821,B-3,360.167,167/1000,56,100.0
1822,A4,360.333,167/1000,61,100.0
1823,G4,360.5,0.25,71,100.0
1824,G#3,360.5,0.25,72,100.0
1825,G4,361.0,167/1000,78,100.0
1826,A4,361.0,167/1000,70,100.0
1827,G3,361.167,167/1000,52,100.0
1828,G#3,361.167,167/1000,51,100.0
1829,F4,361.333,167/1000,59,100.0
1830,B-3,361.333,167/1000,56,100.0
1831,E-4,361.5,0.25,70,100.0
1832,B3,361.5,0.25,66,100.0
1833,E-4,362.0,167/1000,77,100.0
1834,F4,362.0,167/1000,70,100.0
1835,E-3,362.167,167/1000,53,100.0
1836,F3,362.167,167/1000,51,100.0
1837,D4,362.333,167/1000,58,100.0
1838,G3,362.333,167/1000,56,100.0
1839,C4,362.5,0.25,70,100.0
1840,G#3,362.5,0.25,66,100.0
1841,C4,363.0,167/1000,76,100.0
1842,D4,363.0,167/1000,70,100.0
1843,C3,363.167,167/1000,58,100.0
1844,D3,363.167,167/1000,50,100.0
1845,B-3,363.333,167/1000,60,100.0
1846,E-3,363.333,167/1000,56,100.0
1847,A3,363.5,0.25,69,100.0
1848,F3,363.5,0.25,66,100.0
1849,B-3,364.0,167/1000,75,100.0
1850,E-4,364.0,0.25,66,100.0
1851,E-3,364.0,0.25,66,100.0
1852,B-2,364.167,167/1000,54,100.0
1853,A3,364.333,167/1000,58,100.0
1854,G3,364.5,0.25,68,100.0
1855,C4,365.0,167/1000,74,100.0
1856,G1,365.0,1.0,75,100.0
1857,G2,365.0,1.0,75,100.0
1858,C3,365.167,167/1000,58,100.0
1859,B-3,365.333,167/1000,62,100.0
1860,A3,365.5,0.25,67,100.0
1861,B-3,366.0,167/1000,73,100.0
1862,G1,366.0,0.5,75,100.0
1863,G2,366.0,0.5,75,100.0
1864,B-2,366.167,167/1000,52,100.0
1865,A3,366.333,167/1000,57,100.0
1866,G3,366.5,0.25,66,100.0
1867,C2,366.5,0.5,67,100.0
1868,C3,366.5,0.5,67,100.0
1869,C4,367.0,167/1000,73,100.0
1870,E-3,367.0,0.5,73,100.0
1871,E-2,367.0,0.5,73,100.0
1872,C3,367.167,167/1000,54,100.0
1873,B-3,367.333,167/1000,59,100.0
1874,A3,367.5,0.25,66,100.0
1875,G2,367.5,0.25,70,100.0
1876,G3,367.5,0.25,70,100.0
1877,D4,368.0,167/1000,76,100.0
1878,A2,368.0,1.0,85,100.0
1879,G2,368.0,1.0,85,100.0
1880,A3,368.0,1.0,85,100.0
1881,B-2,368.167,167/1000,57,100.0
1882,C4,368.333,167/1000,62,100.0
1883,B-3,368.5,0.25,70,100.0
1884,F#4,368.5,0.25,82,100.0
1885,G4,369.0,167/1000,79,100.0
1886,F#5,369.0,167/1000,78,100.0
1887,G3,369.167,167/1000,58,100.0
1888,F#4,369.167,167/1000,56,100.0
1889,E-4,369.333,167/1000,64,100.0
1890,G4,369.333,167/1000,61,100.0
1891,D4,369.5,0.25,72,100.0
1892,A4,369.5,0.25,72,100.0
1893,B-4,370.0,167/1000,81,100.0
1894,E-5,370.0,167/1000,75,100.0
1895,B-3,370.167,167/1000,62,100.0
1896,E-4,370.167,167/1000,54,100.0
1897,A4,370.333,167/1000,68,100.0
1898,F4,370.333,167/1000,59,100.0
1899,G4,370.5,0.25,74,100.0
1900,F#4,370.5,0.25,69,100.0
1901,D5,371.0,167/1000,84,100.0
1902,A4,371.0,167/1000,72,100.0
1903,D4,371.167,167/1000,64,100.0
1904,C4,371.167,167/1000,53,100.0
1905,B-4,371.333,167/1000,71,100.0
1906,C#4,371.333,167/1000,57,100.0
1907,A4,371.5,0.25,77,100.0
1908,D4,371.5,0.25,67,100.0
1909,G5,372.0,167/1000,86,100.0
1910,G3,372.0,0.5,84,100.0
1911,G2,372.0,0.5,84,100.0
1912,G4,372.167,167/1000,68,100.0
1913,E-5,372.333,167/1000,73,100.0
1914,D5,372.5,0.25,80,100.0
1915,E-4,372.5,0.25,78,100.0
1916,B-5,373.0,167/1000,89,100.0
1917,E-5,373.0,167/1000,75,100.0
1918,B-4,373.167,167/1000,68,100.0
1919,E-4,373.167,167/1000,55,100.0
1920,A5,373.333,167/1000,75,100.0
1921,F4,373.333,167/1000,59,100.0
1922,G5,373.5,0.25,82,100.0
1923,G4,373.5,0.25,70,100.0
1924,D6,374.0,167/1000,94,100.0
1925,G3,374.0,0.5,88,100.0
1926,D5,374.167,167/1000,76,100.0
1927,C6,374.333,167/1000,77,100.0
1928,B-5,374.5,0.25,84,100.0
1929,E-4,374.5,0.25,68,100.0
1930,G6,375.0,167/1000,97,100.0
1931,E-5,375.0,167/1000,72,100.0
1932,G5,375.167,167/1000,78,100.0
1933,E-4,375.167,167/1000,51,100.0
1934,E-6,375.333,167/1000,79,100.0
1935,F4,375.333,167/1000,57,100.0
1936,D6,375.5,0.25,87,100.0
1937,G4,375.5,0.25,67,100.0
1938,G3,376.0,0.5,84,100.0
1939,B-6,376.0,1.0,98,100.0
1940,B-5,376.0,1.0,98,100.0
1941,E-4,376.5,0.25,66,100.0
1942,E-5,377.0,167/1000,70,100.0
1943,G5,377.0,1.0,84,100.0
1944,G6,377.0,1.0,84,100.0
1945,E-4,377.167,167/1000,50,100.0
1946,F4,377.333,167/1000,55,100.0
1947,G4,377.5,0.25,65,100.0
1948,C5,378.0,167/1000,69,100.0
1949,D5,378.0,1.0,84,100.0
1950,D6,378.0,1.0,84,100.0
1951,C4,378.167,167/1000,49,100.0
1952,D4,378.333,167/1000,54,100.0
1953,E-4,378.5,0.25,64,100.0
1954,F#4,379.0,0.5,64,100.0
1955,B-4,379.0,1.0,84,100.0
1956,B-5,379.0,1.0,84,100.0
1957,D3,379.5,0.25,64,100.0
1958,G2,380.0,0.5,64,100.0
1959,G4,380.0,1.0,84,100.0
1960,G5,380.0,1.0,84,100.0
1961,E-3,380.5,0.25,63,100.0
1962,E-4,381.0,167/1000,67,100.0
1963,D4,381.0,1.0,84,100.0
1964,D5,381.0,1.0,84,100.0
1965,E-3,381.167,167/1000,49,100.0
1966,F3,381.333,167/1000,53,100.0
1967,G3,381.5,0.25,62,100.0
1968,G2,382.0,0.5,62,100.0
1969,B-3,382.0,1.0,84,100.0
1970,B-4,382.0,1.0,84,100.0
1971,E-3,382.5,0.25,62,100.0
1972,G3,383.0,1.0,81,100.0
1973,G4,383.0,1.0,88,100.0
1974,E-4,383.0,167/1000,65,100.0
1975,E-3,383.167,167/1000,47,100.0
1976,F3,383.333,167/1000,52,100.0
1977,G3,383.5,0.25,61,100.0
1978,G3,384.0,1.0,81,100.0
1979,G2,384.0,0.5,61,100.0
1980,C4,384.0,2.0,82,100.0
1981,E-4,384.0,2.0,82,100.0
1982,G#4,384.0,2.0,82,100.0
1983,E-3,384.5,0.25,61,100.0
1984,G#3,385.0,1.0,92,100.0
1985,E-4,385.0,167/1000,64,100.0
1986,E-3,385.167,167/1000,49,100.0
1987,F3,385.333,167/1000,51,100.0
1988,G3,385.5,0.25,60,100.0
1989,A3,386.0,1.0,78,100.0
1990,A4,386.0,2.0,85,100.0
1991,C4,386.0,167/1000,63,100.0
1992,C3,386.167,167/1000,50,100.0
1993,D3,386.333,167/1000,50,100.0
1994,E-3,386.5,0.25,60,100.0
1995,C4,387.0,1.0,78,100.0
1996,F#3,387.0,0.5,59,100.0
1997,D2,387.5,0.25,59,100.0
1998,E-4,388.0,2.0,78,100.0
1999,C4,388.0,4.0,78,100.0
2000,A4,388.0,2.0,85,100.0
2001,G1,388.0,0.5,58,100.0
2002,D2,388.5,0.25,58,100.0
2003,F#4,389.0,1.0,78,100.0
2004,F#3,389.0,0.5,58,100.0
2005,D2,389.5,0.25,58,100.0
2006,G1,390.0,0.5,57,100.0
2007,D2,390.5,0.25,57,100.0
2008,F#3,391.0,0.5,56,100.0
2009,D2,391.5,0.25,56,100.0
2010,A4,392.0,2.0,78,100.0
2011,E-4,392.0,2.0,78,100.0
2012,F#4,392.0,2.0,78,100.0
2013,G1,392.0,2.0,59,100.0
2014,G2,392.0,2.0,59,100.0
2015,C5,393.0,1.0,78,100.0
2016,D4,394.0,1.0,83,100.0
2017,G4,394.0,1.0,83,100.0
2018,B-4,394.0,1.0,83,100.0
2019,G4,395.0,1.0,88,100.0
2020,G5,395.0,1.0,88,100.0
2021,G1,395.0,1.0,59,100.0
2022,G2,395.0,1.0,59,100.0
2023,D4,396.0,1.0,88,100.0
2024,D5,396.0,1.0,88,100.0
2025,D2,396.5,0.25,66,100.0
2026,D3,396.5,0.25,66,100.0
2027,B-3,397.0,1.0,88,100.0
2028,B-4,397.0,1.0,88,100.0
2029,G1,397.0,2.0,67,100.0
2030,G2,397.0,2.0,67,100.0
2031,G3,398.0,1.0,88,100.0
2032,G4,398.0,1.0,88,100.0
2033,D3,399.0,1.0,88,100.0
2034,D4,399.0,1.0,88,100.0
2035,B-2,400.0,1.0,88,100.0
2036,B-3,400.0,1.0,88,100.0
2037,G1,400.0,1.0,67,100.0
2038,G2,400.0,1.0,67,100.0
2039,G2,401.0,1.0,85,100.0
2040,G3,401.0,1.0,92,100.0
2041,D2,401.5,0.25,74,100.0
2042,D3,401.5,0.25,74,100.0
2043,G2,402.0,1.0,85,100.0
2044,C3,402.0,2.0,82,100.0
2045,E-3,402.0,2.0,82,100.0
2046,G#3,402.0,2.0,82,100.0
2047,G1,402.0,0.5,72,100.0
2048,G2,402.0,0.5,72,100.0
2049,G#2,403.0,1.0,92,100.0
2050,B-5,403.5,0.5,83,100.0
2051,A2,404.0,1.0,78,100.0
2052,A3,404.0,2.0,85,100.0
2053,B-5,404.0,0.5,83,100.0
2054,G5,404.5,1.0,83,100.0
2055,C3,405.0,1.0,78,100.0
2056,D5,405.5,0.5,83,100.0
2057,E-3,406.0,2.0,78,100.0
2058,C3,406.0,4.0,78,100.0
2059,A3,406.0,2.0,85,100.0
2060,D5,406.0,0.5,83,100.0
2061,B-4,406.5,1.0,82,100.0
2062,F#3,407.0,1.0,78,100.0
2063,G4,407.5,0.5,80,100.0
2064,G4,408.0,0.5,80,100.0
2065,D4,408.5,1.0,80,100.0
2066,B-3,409.5,0.5,80,100.0
2067,A3,410.0,2.0,78,100.0
2068,E-3,410.0,2.0,78,100.0
2069,C3,410.0,2.0,78,100.0
2070,C4,411.0,1.0,78,100.0
2071,F#3,411.5,0.5,71,100.0
2072,C3,412.0,2.0,78,100.0
2073,F#3,412.0,0.5,71,100.0
2074,D3,412.0,1.0,81,100.0
2075,G3,412.0,1.0,81,100.0
2076,B-3,412.0,1.0,81,100.0
2077,E-3,412.5,1.0,71,100.0
2078,B-2,413.0,1.0,78,100.0
2079,C3,413.5,0.5,73,100.0
2080,D3,414.0,1.0,79,100.0
2081,C3,414.0,2.0,73,100.0
2082,A2,414.5,1.0,73,100.0
2083,G3,415.0,62/125,81,100.0
2084,F#2,415.5,0.5,75,100.0
2085,B-3,416.0,1.0,85,100.0
2086,C3,416.0,2.0,73,100.0
2087,F#2,416.0,0.5,75,100.0
2088,E-2,416.5,1.0,76,100.0
2089,D4,417.0,1.0,87,100.0
2090,C2,417.5,0.5,79,100.0
2091,G4,418.0,1.0,88,100.0
2092,G1,418.0,1.0,82,100.0
2093,G2,418.0,1.0,82,100.0
2094,B-4,419.0,1.0,91,100.0
2095,B-4,419.5,0.5,80,100.0
2096,G5,420.0,2.0,101,100.0
2097,B-4,420.0,2.0,91,100.0
2098,B-4,420.0,0.5,80,100.0
2099,G4,420.5,1.0,80,100.0
2100,D4,421.5,0.5,80,100.0
2101,D4,422.0,0.5,80,100.0
2102,B-3,422.5,1.0,80,100.0
2103,G3,423.5,0.5,80,100.0
2104,G3,424.0,0.5,80,100.0
2105,D3,424.5,1.0,80,100.0
2106,B-2,425.5,0.5,80,100.0
2107,C2,426.0,2.0,100,100.0
2108,F#2,427.5,0.5,78,100.0
2109,C2,428.0,2.0,100,100.0
2110,F#2,428.0,0.5,78,100.0
2111,E-2,428.5,1.0,78,100.0
2112,C2,429.5,0.5,78,100.0
2113,C2,430.0,2.0,78,100.0
2114,A1,430.5,1.0,78,100.0
2115,F#1,431.5,0.5,78,100.0
2116,C2,432.0,2.0,78,100.0
2117,F#1,432.0,0.5,78,100.0
2118,E-1,432.5,1.0,78,100.0
2119,C1,433.5,0.5,78,100.0
2120,G1,434.0,1.0,81,100.0
2121,D4,435.5,0.5,78,100.0
2122,D4,436.0,0.5,78,100.0
2123,B-3,436.5,1.0,81,100.0
2124,G3,437.5,0.5,82,100.0
2125,G3,438.0,0.5,82,100.0
2126,D3,438.5,1.0,85,100.0
2127,B-2,439.5,0.5,88,100.0
2128,B-2,440.0,0.5,88,100.0
2129,G2,440.5,1.0,94,100.0
2130,G1,441.5,0.5,103,100.0
2131,G1,442.0,2.0,103,100.0
