,note_name,start_time,duration,velocity,tempo
0,G1,0.0,0.188,44,154.89
1,G3,1.0,0.25,40,154.89
2,A3,1.25,0.25,32,154.89
3,G3,1.5,0.25,34,154.89
4,D3,1.75,0.25,34,154.89
5,D4,2.0,0.25,40,154.89
6,B-1,2.75,0.188,35,154.89
7,D3,2.75,0.188,40,154.89
8,G3,2.75,0.188,40,154.89
9,A1,3.0,0.188,40,154.89
10,F#3,3.0,0.188,46,154.89
11,C3,3.0,0.188,46,154.89
12,C4,4.0,0.25,43,154.89
13,D4,4.25,0.25,37,154.89
14,C4,4.5,0.25,37,154.89
15,A3,4.75,0.25,37,154.89
16,A4,5.0,0.25,49,154.89
17,F#1,5.75,0.188,33,154.89
18,D3,5.75,0.188,44,154.89
19,C4,5.75,0.188,44,154.89
20,G1,6.0,0.188,40,154.89
21,B-3,6.0,0.188,48,154.89
22,D3,6.0,0.188,48,154.89
23,G3,7.0,0.25,40,154.89
24,A3,7.25,0.25,34,154.89
25,G3,7.5,0.25,34,154.89
26,D3,7.75,0.25,34,154.89
27,G4,8.0,0.188,50,154.89
28,B-1,8.75,0.188,32,154.89
29,G3,8.75,0.188,44,154.89
30,F4,8.75,0.188,44,154.89
31,C2,9.0,0.188,37,154.89
32,E-4,9.0,0.188,47,154.89
33,G3,9.0,0.188,47,154.89
34,D2,9.75,0.188,33,154.89
35,G3,9.75,0.188,40,154.89
36,D4,9.75,0.188,40,154.89
37,E-2,10.0,0.188,38,154.89
38,C4,10.0,0.188,44,154.89
39,G3,10.0,0.188,44,154.89
40,B-3,10.75,0.188,50,154.89
41,E-3,11.0,0.188,40,154.89
42,A3,11.0,0.188,46,154.89
43,C#4,11.0,0.188,46,154.89
44,G3,11.75,0.188,40,154.89
45,F#3,12.0,0.188,50,154.89
46,D4,12.0,0.188,50,154.89
47,D2,12.0,0.188,45,154.89
48,D3,12.0,0.188,45,154.89
49,D5,13.0,1.75,72,154.89
50,D4,14.0,1.0,61,154.89
51,F#1,14.0,1.0,40,154.89
52,C5,14.75,0.25,58,154.89
53,B-4,15.0,0.188,65,154.89
54,D4,15.0,1.0,61,154.89
55,G1,15.0,0.5,44,154.89
56,A4,15.75,0.188,55,154.89
57,G4,16.0,0.188,64,154.89
58,B-4,16.0,1.0,64,154.89
59,G3,16.0,1.75,60,154.89
60,F4,16.75,0.188,56,154.89
61,E-4,17.0,0.188,64,154.89
62,D4,17.75,0.188,56,154.89
63,F3,17.75,0.25,51,154.89
64,C4,18.0,0.188,64,154.89
65,E-3,18.0,0.188,58,154.89
66,D3,18.75,0.188,51,154.89
67,F5,19.0,1.75,68,154.89
68,C3,19.0,0.188,57,154.89
69,B-2,19.75,0.188,50,154.89
70,F4,20.0,1.0,61,154.89
71,A1,20.0,1.0,40,154.89
72,E-5,20.75,0.25,58,154.89
73,D5,21.0,0.188,65,154.89
74,F4,21.0,1.0,61,154.89
75,B-1,21.0,0.5,44,154.89
76,C5,21.75,0.188,55,154.89
77,B-4,22.0,0.188,64,154.89
78,D5,22.0,1.0,64,154.89
79,B-3,22.0,1.75,60,154.89
80,A4,22.75,0.188,56,154.89
81,G4,23.0,0.188,64,154.89
82,F4,23.75,0.188,56,154.89
83,A3,23.75,0.25,51,154.89
84,E4,24.0,0.188,64,154.89
85,G3,24.0,0.188,58,154.89
86,F3,24.75,0.188,51,154.89
87,A5,25.0,1.75,70,154.89
88,E3,25.0,0.188,57,154.89
89,D3,25.75,0.188,50,154.89
90,A4,26.0,1.0,61,154.89
91,C#2,26.0,1.0,40,154.89
92,G5,26.75,0.25,58,154.89
93,F#5,27.0,0.188,65,154.89
94,A4,27.0,1.0,61,154.89
95,D2,27.0,0.5,44,154.89
96,E-5,27.75,0.188,55,154.89
97,D5,28.0,0.188,64,154.89
98,F#5,28.0,1.0,64,154.89
99,D4,28.0,1.75,58,154.89
100,C5,28.75,0.188,56,154.89
101,G5,29.0,0.188,64,154.89
102,B-4,29.0,0.188,64,154.89
103,A4,29.75,0.188,56,154.89
104,C4,29.75,0.188,51,154.89
105,G4,30.0,0.188,64,154.89
106,B-3,30.0,0.188,58,154.89
107,A3,30.75,0.188,51,154.89
108,B-4,31.0,1.0,71,154.89
109,G3,31.0,0.188,57,154.89
110,F3,31.75,0.188,50,154.89
111,A4,32.0,0.75,52,154.89
112,C#5,32.0,1.0,62,154.89
113,E3,32.0,0.188,57,154.89
114,G4,32.75,0.25,58,154.89
115,E-3,32.75,0.188,50,154.89
116,D3,33.0,0.188,58,154.89
117,F#4,33.0,0.188,58,154.89
118,D5,33.0,0.188,58,154.89
119,E-4,33.75,0.188,51,154.89
120,F#4,34.0,1.0,59,154.89
121,D4,34.0,0.188,59,154.89
122,D3,34.0,1.75,60,154.89
123,C4,34.75,0.25,50,154.89
124,G4,35.0,0.188,57,154.89
125,B-3,35.0,0.188,57,154.89
126,A3,35.75,0.188,49,154.89
127,C3,35.75,0.25,45,154.89
128,G3,36.0,0.188,57,154.89
129,B-2,36.0,0.188,51,154.89
130,A2,36.75,0.188,44,154.89
131,B-3,37.0,1.0,61,154.89
132,G2,37.0,0.188,52,154.89
133,F2,37.75,0.188,42,154.89
134,C#4,38.0,1.0,55,154.89
135,A3,38.0,0.188,55,154.89
136,E2,38.0,0.188,48,154.89
137,G3,38.75,0.188,47,154.89
138,E-2,38.75,0.188,35,154.89
139,D2,39.0,0.188,41,154.89
140,F#3,39.0,0.5,54,154.89
141,D4,39.0,0.5,54,154.89
142,C2,39.75,0.188,29,154.89
143,G3,40.0,0.25,40,154.89
144,B-1,40.0,0.188,35,154.89
145,A3,40.25,0.25,32,154.89
146,G3,40.5,0.25,34,154.89
147,D3,40.75,0.25,34,154.89
148,A1,40.75,0.188,28,154.89
149,D4,41.0,0.188,40,154.89
150,G1,41.0,0.188,35,154.89
151,B-1,41.75,0.188,35,154.89
152,G3,41.75,0.188,40,154.89
153,D3,41.75,0.188,40,154.89
154,A1,42.0,0.188,40,154.89
155,C3,42.0,0.188,46,154.89
156,F#3,42.0,0.188,46,154.89
157,C4,43.0,0.25,43,154.89
158,D4,43.25,0.25,37,154.89
159,C4,43.5,0.25,37,154.89
160,A3,43.75,0.25,37,154.89
161,A4,44.0,0.188,49,154.89
162,F#1,44.75,0.188,33,154.89
163,C4,44.75,0.188,44,154.89
164,D3,44.75,0.188,44,154.89
165,G1,45.0,0.188,40,154.89
166,D3,45.0,0.188,48,154.89
167,B-3,45.0,0.188,48,154.89
168,G3,46.0,0.25,40,154.89
169,A3,46.25,0.25,34,154.89
170,G3,46.5,0.25,34,154.89
171,D3,46.75,0.25,34,154.89
172,G4,47.0,0.188,50,154.89
173,B-1,47.75,0.188,32,154.89
174,F4,47.75,0.188,44,154.89
175,G3,47.75,0.188,44,154.89
176,C2,48.0,0.188,37,154.89
177,E-4,48.0,0.188,47,154.89
178,G3,48.0,0.188,47,154.89
179,D2,48.75,0.188,33,154.89
180,G3,48.75,0.188,40,154.89
181,D4,48.75,0.188,40,154.89
182,E-2,49.0,0.188,38,154.89
183,G3,49.0,0.188,44,154.89
184,C4,49.0,0.188,44,154.89
185,B-3,49.75,0.188,50,154.89
186,E-3,50.0,0.188,40,154.89
187,A3,50.0,0.188,46,154.89
188,C#4,50.0,0.188,46,154.89
189,G3,50.75,0.188,40,154.89
190,F#3,51.0,0.25,50,154.89
191,D4,51.0,0.25,50,154.89
192,D2,51.0,0.25,45,154.89
193,D3,51.0,0.25,45,154.89
194,D5,52.0,1.75,72,154.89
195,D4,53.0,1.0,61,154.89
196,F#1,53.0,1.0,40,154.89
197,C5,53.75,0.25,58,154.89
198,B-4,54.0,0.188,65,154.89
199,D4,54.0,1.0,61,154.89
200,G1,54.0,0.5,44,154.89
201,A4,54.75,0.188,55,154.89
202,G4,55.0,0.188,64,154.89
203,B-4,55.0,1.0,64,154.89
204,G3,55.0,1.75,60,154.89
205,F4,55.75,0.188,56,154.89
206,E-4,56.0,0.188,64,154.89
207,D4,56.75,0.188,56,154.89
208,F3,56.75,0.25,51,154.89
209,C4,57.0,0.188,64,154.89
210,E-3,57.0,0.188,58,154.89
211,D3,57.75,0.188,51,154.89
212,F5,58.0,1.75,68,154.89
213,C3,58.0,0.188,57,154.89
214,B-2,58.75,0.188,50,154.89
215,F4,59.0,1.0,61,154.89
216,A1,59.0,1.0,40,154.89
217,E-5,59.75,0.25,58,154.89
218,D5,60.0,0.188,65,154.89
219,F4,60.0,1.0,61,154.89
220,B-1,60.0,0.5,44,154.89
221,C5,60.75,0.188,55,154.89
222,B-4,61.0,0.188,64,154.89
223,D5,61.0,1.0,64,154.89
224,B-3,61.0,1.75,60,154.89
225,A4,61.75,0.188,56,154.89
226,G4,62.0,0.188,64,154.89
227,F4,62.75,0.188,56,154.89
228,A3,62.75,0.25,51,154.89
229,E4,63.0,0.188,64,154.89
230,G3,63.0,0.188,58,154.89
231,F3,63.75,0.188,51,154.89
232,A5,64.0,1.75,70,154.89
233,E3,64.0,0.188,57,154.89
234,D3,64.75,0.188,50,154.89
235,A4,65.0,1.0,61,154.89
236,C#2,65.0,1.0,40,154.89
237,G5,65.75,0.25,58,154.89
238,F#5,66.0,0.188,65,154.89
239,A4,66.0,1.0,61,154.89
240,D2,66.0,0.5,44,154.89
241,E-5,66.75,0.188,55,154.89
242,D5,67.0,0.188,64,154.89
243,F#5,67.0,1.0,64,154.89
244,D4,67.0,1.75,58,154.89
245,C5,67.75,0.188,56,154.89
246,G5,68.0,0.188,64,154.89
247,B-4,68.0,0.188,64,154.89
248,A4,68.75,0.188,56,154.89
249,C4,68.75,0.25,51,154.89
250,G4,69.0,0.188,64,154.89
251,B-3,69.0,0.188,58,154.89
252,A3,69.75,0.188,51,154.89
253,B-4,70.0,1.0,71,154.89
254,G3,70.0,0.188,57,154.89
255,F3,70.75,0.188,50,154.89
256,A4,71.0,0.75,52,154.89
257,C#5,71.0,1.0,62,154.89
258,E3,71.0,0.188,57,154.89
259,G4,71.75,0.25,58,154.89
260,E-3,71.75,0.188,50,154.89
261,D3,72.0,0.188,58,154.89
262,D5,72.0,0.188,58,154.89
263,F#4,72.0,0.188,58,154.89
264,E-4,72.75,0.188,51,154.89
265,D4,73.0,0.188,59,154.89
266,F#4,73.0,1.0,59,154.89
267,D3,73.0,1.75,60,154.89
268,C4,73.75,0.188,50,154.89
269,G4,74.0,0.188,57,154.89
270,B-3,74.0,0.188,57,154.89
271,A3,74.75,0.188,49,154.89
272,C3,74.75,0.25,45,154.89
273,G3,75.0,0.188,57,154.89
274,B-2,75.0,0.188,51,154.89
275,A2,75.75,0.188,44,154.89
276,B-3,76.0,1.0,61,154.89
277,G2,76.0,0.188,52,154.89
278,F2,76.75,0.188,45,154.89
279,A3,77.0,0.188,55,154.89
280,C#4,77.0,1.0,55,154.89
281,E2,77.0,0.188,50,154.89
282,G3,77.75,0.188,47,154.89
283,E-2,77.75,0.188,50,154.89
284,D2,78.0,0.5,50,154.89
285,D4,78.0,0.5,54,154.89
286,F#3,78.0,0.5,54,154.89
287,B-4,79.0,1.75,58,154.89
288,B-3,80.0,1.0,40,154.89
289,D2,80.0,1.0,40,154.89
290,B-2,80.0,1.0,40,154.89
291,F#4,80.75,0.25,50,154.89
292,G4,81.0,0.75,56,154.89
293,B-3,81.0,1.0,40,154.89
294,E-2,81.0,1.0,40,154.89
295,B-2,81.0,1.0,40,154.89
296,A4,81.75,0.25,51,154.89
297,B-4,82.0,1.75,57,154.89
298,B-3,83.0,1.0,40,154.89
299,D2,83.0,1.0,40,154.89
300,B-2,83.0,1.0,40,154.89
301,F#4,83.75,0.25,54,154.89
302,G4,84.0,0.75,61,154.89
303,B-3,84.0,1.0,40,154.89
304,E-2,84.0,1.0,40,154.89
305,B-2,84.0,1.0,40,154.89
306,A4,84.75,0.25,52,154.89
307,B-4,85.0,0.5,57,154.89
308,B-3,85.5,0.5,47,154.89
309,C2,85.875,1.125,33,154.89
310,D5,86.0,0.5,64,154.89
311,E-3,86.0,1.0,40,154.89
312,C5,86.5,0.5,57,154.89
313,D5,87.0,0.5,66,154.89
314,C2,87.0,1.0,33,154.89
315,E-3,87.0,2.0,40,154.89
316,C5,87.5,0.5,63,154.89
317,B-4,88.0,333/1000,59,154.89
318,C3,88.0,1.0,40,154.89
319,G4,88.333,333/1000,51,154.89
320,E-4,88.667,333/1000,51,154.89
321,D4,89.0,0.75,57,154.89
322,A3,89.0,1.0,36,154.89
323,F3,89.0,0.75,36,154.89
324,F2,89.0,1.0,36,154.89
325,C4,89.75,0.25,47,154.89
326,E-3,89.75,0.25,32,154.89
327,B-3,90.0,0.5,54,154.89
328,B-2,90.0,0.5,37,154.89
329,D3,90.0,0.5,37,154.89
330,F5,91.0,1.75,58,154.89
331,F2,91.875,1.125,28,154.89
332,C#3,91.938,1.062,32,154.89
333,F4,92.0,1.0,40,154.89
334,A3,92.0,1.0,36,154.89
335,C#5,92.75,0.25,50,154.89
336,D5,93.0,0.75,56,154.89
337,F4,93.0,1.0,40,154.89
338,B-3,93.0,1.0,40,154.89
339,D3,93.0,1.0,40,154.89
340,E-5,93.75,0.25,51,154.89
341,F5,94.0,1.75,57,154.89
342,F2,94.875,1.125,29,154.89
343,C#3,94.938,1.062,32,154.89
344,F4,95.0,1.0,40,154.89
345,A3,95.0,1.0,36,154.89
346,C#5,95.75,0.25,54,154.89
347,D5,96.0,0.75,61,154.89
348,F4,96.0,1.0,40,154.89
349,B-3,96.0,1.0,40,154.89
350,D3,96.0,1.0,40,154.89
351,E-5,96.75,0.25,52,154.89
352,F5,97.0,0.5,57,154.89
353,F4,97.5,0.5,47,154.89
354,B-2,97.875,1.125,33,154.89
355,F3,97.938,1.062,33,154.89
356,A5,98.0,0.5,64,154.89
357,D4,98.0,1.0,40,154.89
358,G5,98.5,0.5,57,154.89
359,A5,99.0,0.5,66,154.89
360,D4,99.0,2.0,40,154.89
361,F3,99.0,1.0,33,154.89
362,G5,99.5,0.5,63,154.89
363,F5,100.0,333/1000,59,154.89
364,G3,100.0,1.0,40,154.89
365,D5,100.333,333/1000,51,154.89
366,B-4,100.667,333/1000,51,154.89
367,E4,101.0,1.0,36,154.89
368,A4,101.0,0.75,57,154.89
369,C4,101.0,0.75,36,154.89
370,C3,101.0,1.0,36,154.89
371,G4,101.75,0.25,47,154.89
372,B-3,101.75,0.25,32,154.89
373,F4,102.0,0.5,54,154.89
374,F3,102.0,0.5,37,154.89
375,A3,102.0,0.5,37,154.89
376,B-5,103.0,1.75,58,154.89
377,D3,103.875,0.938,32,154.89
378,B-3,103.938,0.875,36,154.89
379,B-4,104.0,1.0,40,154.89
380,F4,104.0,1.0,40,154.89
381,F5,104.75,0.25,50,154.89
382,E-3,104.812,0.188,27,154.89
383,F#3,104.875,0.125,33,154.89
384,B-3,104.938,0.062,40,154.89
385,F#5,105.0,0.75,60,154.89
386,B-4,105.0,1.0,40,154.89
387,F#4,105.0,1.0,40,154.89
388,E-3,105.0,1.0,27,154.89
389,F#3,105.0,1.0,33,154.89
390,F4,105.0,21/1000,40,154.89
391,B-3,105.0,1.0,40,154.89
392,G#5,105.75,0.25,57,154.89
393,B-5,106.0,1.75,62,154.89
394,D3,106.875,0.75,33,154.89
395,B-3,106.938,0.875,36,154.89
396,B-4,107.0,1.0,40,154.89
397,F4,107.0,0.812,40,154.89
398,F5,107.75,0.25,57,154.89
399,E-3,107.812,0.188,27,154.89
400,F#3,107.875,0.125,31,154.89
401,B-3,107.938,0.062,35,154.89
402,F#5,108.0,0.75,63,154.89
403,B-4,108.0,1.0,40,154.89
404,F#4,108.0,1.0,40,154.89
405,E-3,108.0,1.0,27,154.89
406,F#3,108.0,1.0,31,154.89
407,B-3,108.0,1.0,35,154.89
408,G#5,108.75,0.25,55,154.89
409,B-5,109.0,0.5,60,154.89
410,C#5,109.5,0.5,50,154.89
411,F#3,109.875,1.125,33,154.89
412,C#4,109.938,1.062,33,154.89
413,F6,110.0,0.5,65,154.89
414,B-4,110.0,1.0,40,154.89
415,E-6,110.5,0.5,60,154.89
416,F6,111.0,0.5,66,154.89
417,B-4,111.0,2.0,40,154.89
418,C#4,111.0,1.0,33,154.89
419,E-6,111.5,0.5,63,154.89
420,C#6,112.0,333/1000,62,154.89
421,E-4,112.0,1.0,40,154.89
422,B-5,112.333,333/1000,57,154.89
423,F#5,112.667,333/1000,51,154.89
424,C5,113.0,1.0,36,154.89
425,F5,113.0,0.75,57,154.89
426,F#4,113.0,1.0,36,154.89
427,G#3,113.0,1.0,36,154.89
428,E-5,113.75,0.25,47,154.89
429,C#5,114.0,0.5,54,154.89
430,C#4,114.0,0.5,37,154.89
431,F4,114.0,0.5,37,154.89
432,G#5,115.0,1.75,58,154.89
433,G#2,115.875,1.125,28,154.89
434,E-3,115.938,1.062,32,154.89
435,G#4,116.0,1.0,40,154.89
436,C4,116.0,1.0,36,154.89
437,E-5,116.75,0.25,50,154.89
438,F5,117.0,0.75,56,154.89
439,G#4,117.0,1.0,40,154.89
440,C#4,117.0,1.0,40,154.89
441,F3,117.0,1.0,40,154.89
442,F#5,117.75,0.25,51,154.89
443,G#5,118.0,1.75,57,154.89
444,G#2,118.875,1.125,29,154.89
445,E-3,118.938,1.062,32,154.89
446,G#4,119.0,1.0,40,154.89
447,C4,119.0,1.0,36,154.89
448,E-5,119.75,0.25,54,154.89
449,F5,120.0,0.75,61,154.89
450,G#4,120.0,1.0,40,154.89
451,C#4,120.0,1.0,40,154.89
452,F3,120.0,1.0,40,154.89
453,F#5,120.75,0.25,52,154.89
454,G#5,121.0,0.5,57,154.89
455,B-4,121.5,0.5,47,154.89
456,C#3,121.875,1.125,33,154.89
457,G#3,121.938,1.062,33,154.89
458,C6,122.0,0.5,64,154.89
459,F4,122.0,1.0,40,154.89
460,B-5,122.5,0.5,57,154.89
461,C6,123.0,0.5,66,154.89
462,F4,123.0,2.0,40,154.89
463,G#3,123.0,1.0,33,154.89
464,B-5,123.5,0.5,63,154.89
465,G#5,124.0,333/1000,59,154.89
466,B-3,124.0,1.0,40,154.89
467,F5,124.333,333/1000,51,154.89
468,C#5,124.667,333/1000,51,154.89
469,C5,125.0,0.75,57,154.89
470,G4,125.0,1.0,36,154.89
471,C#4,125.0,1.0,36,154.89
472,E-3,125.0,1.0,36,154.89
473,B-4,125.75,0.25,47,154.89
474,G#4,126.0,0.5,54,154.89
475,G#3,126.0,0.5,37,154.89
476,C4,126.0,0.5,37,154.89
477,F#3,127.0,1.75,49,154.89
478,G#2,128.0,1.0,32,154.89
479,G#4,128.0,1.0,36,154.89
480,E-4,128.0,1.0,36,154.89
481,C4,128.0,1.0,36,154.89
482,D3,128.75,0.25,42,154.89
483,E-3,129.0,0.75,47,154.89
484,G#2,129.0,1.0,32,154.89
485,G#4,129.0,1.0,36,154.89
486,E-4,129.0,1.0,36,154.89
487,C4,129.0,1.0,36,154.89
488,F3,129.75,0.25,43,154.89
489,A4,130.0,1.75,52,154.89
490,F#3,130.0,2.0,49,154.89
491,G#2,131.0,1.0,32,154.89
492,D4,131.75,0.25,45,154.89
493,E-4,132.0,0.75,50,154.89
494,G#2,132.0,1.0,32,154.89
495,F4,132.75,0.25,45,154.89
496,E-3,133.0,1.75,46,154.89
497,C4,133.0,2.0,50,154.89
498,F#4,133.0,2.0,50,154.89
499,G#2,134.0,1.0,32,154.89
500,B2,134.75,0.25,43,154.89
501,C3,135.0,0.75,47,154.89
502,G#2,135.0,1.0,32,154.89
503,C#3,135.75,0.25,42,154.89
504,E-3,136.0,2.0,47,154.89
505,C4,136.0,1.0,50,154.89
506,F#4,136.0,1.0,50,154.89
507,F#4,137.0,1.75,52,154.89
508,G#2,137.0,1.0,32,154.89
509,E-3,138.0,2.0,47,154.89
510,G#2,138.0,2.0,32,154.89
511,B3,138.75,0.25,45,154.89
512,C4,139.0,0.75,50,154.89
513,C#4,139.75,0.25,45,154.89
514,E-4,140.0,2.0,51,154.89
515,A2,140.0,1.0,32,154.89
516,A2,141.0,2.0,32,154.89
517,F3,141.75,0.25,45,154.89
518,E-4,142.0,1.0,51,154.89
519,F#3,142.0,0.75,50,154.89
520,G#3,142.75,0.25,45,154.89
521,A3,143.0,2.0,51,154.89
522,B2,143.0,1.0,32,154.89
523,B2,144.0,2.0,32,154.89
524,D3,144.75,0.25,45,154.89
525,E-3,145.0,0.75,50,154.89
526,A3,145.0,1.0,51,154.89
527,E3,145.75,0.25,45,154.89
528,F#3,146.0,2.0,51,154.89
529,C3,146.0,1.0,32,154.89
530,C3,147.0,1.5,32,154.89
531,C#3,147.75,0.25,45,154.89
532,D3,148.0,0.75,50,154.89
533,F#3,148.0,1.0,51,154.89
534,D3,148.5,0.5,45,154.89
535,E3,148.75,0.25,51,154.89
536,F#3,149.0,1.75,55,154.89
537,E3,149.0,0.5,51,154.89
538,F#3,149.5,0.5,54,154.89
539,F#3,150.0,1.0,54,154.89
540,G1,151.0,1.75,44,154.89
541,G3,152.0,0.25,40,154.89
542,A3,152.25,0.25,32,154.89
543,G3,152.5,0.25,34,154.89
544,D3,152.75,0.25,34,154.89
545,B-1,152.75,0.188,35,154.89
546,D4,153.0,0.188,40,154.89
547,A1,153.0,0.188,40,154.89
548,D3,153.75,0.188,40,154.89
549,G3,153.75,0.188,40,154.89
550,C3,154.0,0.188,46,154.89
551,F#3,154.0,0.188,46,154.89
552,C4,155.0,0.25,43,154.89
553,D4,155.25,0.25,37,154.89
554,C4,155.5,0.25,37,154.89
555,A3,155.75,0.25,37,154.89
556,F#1,155.75,0.188,33,154.89
557,A4,156.0,0.188,49,154.89
558,G1,156.0,0.188,40,154.89
559,C4,156.75,0.188,44,154.89
560,D3,156.75,0.188,44,154.89
561,B-3,157.0,0.188,48,154.89
562,D3,157.0,0.188,48,154.89
563,G3,158.0,0.25,40,154.89
564,A3,158.25,0.25,34,154.89
565,G3,158.5,0.25,34,154.89
566,D3,158.75,0.25,34,154.89
567,B-1,158.75,0.188,32,154.89
568,G4,159.0,0.188,50,154.89
569,C2,159.0,0.188,37,154.89
570,D2,159.75,0.188,33,154.89
571,F4,159.75,0.188,44,154.89
572,G3,159.75,0.188,44,154.89
573,E-2,160.0,0.188,38,154.89
574,E-4,160.0,0.188,47,154.89
575,G3,160.0,0.188,47,154.89
576,D4,160.75,0.188,40,154.89
577,G3,160.75,0.188,40,154.89
578,E-3,161.0,0.188,40,154.89
579,C4,161.0,0.188,44,154.89
580,G3,161.0,0.188,44,154.89
581,B-3,161.75,0.188,50,154.89
582,C#4,162.0,0.188,46,154.89
583,A3,162.0,0.188,46,154.89
584,D2,162.0,0.188,45,154.89
585,D3,162.0,0.188,45,154.89
586,G3,162.75,0.188,40,154.89
587,D4,163.0,0.188,50,154.89
588,F#3,163.0,0.188,50,154.89
589,D5,164.0,1.75,72,154.89
590,F#1,164.0,1.0,40,154.89
591,D4,165.0,1.0,61,154.89
592,G1,165.0,0.5,44,154.89
593,C5,165.75,0.25,58,154.89
594,B-4,166.0,0.188,65,154.89
595,D4,166.0,1.0,61,154.89
596,G3,166.0,1.75,60,154.89
597,A4,166.75,0.188,55,154.89
598,B-4,167.0,1.0,64,154.89
599,G4,167.0,0.188,64,154.89
600,F4,167.75,0.188,56,154.89
601,F3,167.75,0.25,51,154.89
602,E-4,168.0,0.188,64,154.89
603,E-3,168.0,0.188,58,154.89
604,D4,168.75,0.188,56,154.89
605,D3,168.75,0.188,51,154.89
606,C4,169.0,0.188,64,154.89
607,C3,169.0,0.188,57,154.89
608,B-2,169.75,0.188,50,154.89
609,F5,170.0,1.75,68,154.89
610,A1,170.0,1.0,40,154.89
611,F4,171.0,1.0,61,154.89
612,B-1,171.0,0.5,44,154.89
613,E-5,171.75,0.25,58,154.89
614,D5,172.0,0.188,65,154.89
615,F4,172.0,1.0,61,154.89
616,B-3,172.0,1.75,60,154.89
617,C5,172.75,0.188,55,154.89
618,B-4,173.0,0.188,64,154.89
619,D5,173.0,1.0,64,154.89
620,A4,173.75,0.188,56,154.89
621,A3,173.75,0.25,51,154.89
622,G4,174.0,0.188,64,154.89
623,G3,174.0,0.188,58,154.89
624,F4,174.75,0.188,56,154.89
625,F3,174.75,0.188,51,154.89
626,E4,175.0,0.188,64,154.89
627,E3,175.0,0.188,57,154.89
628,D3,175.75,0.188,50,154.89
629,A5,176.0,1.75,70,154.89
630,C#2,176.0,1.0,40,154.89
631,A4,177.0,1.0,61,154.89
632,D2,177.0,0.5,44,154.89
633,G5,177.75,0.25,58,154.89
634,F#5,178.0,0.188,65,154.89
635,A4,178.0,1.0,61,154.89
636,D4,178.0,1.75,58,154.89
637,E-5,178.75,0.188,55,154.89
638,D5,179.0,0.188,64,154.89
639,F#5,179.0,1.0,64,154.89
640,C5,179.75,0.188,56,154.89
641,C4,179.75,0.25,51,154.89
642,B-3,180.0,0.188,58,154.89
643,G5,180.0,0.188,64,154.89
644,B-4,180.0,0.188,64,154.89
645,A4,180.75,0.188,56,154.89
646,A3,180.75,0.188,51,154.89
647,G4,181.0,0.188,64,154.89
648,G3,181.0,0.188,57,154.89
649,F3,181.75,0.188,50,154.89
650,B-4,182.0,1.0,71,154.89
651,E3,182.0,0.188,57,154.89
652,E-3,182.75,0.188,50,154.89
653,A4,183.0,0.75,52,154.89
654,C#5,183.0,1.0,62,154.89
655,D3,183.0,0.5,58,154.89
656,G4,183.75,0.25,58,154.89
657,G3,184.0,1.75,60,154.89
658,F#4,184.0,0.5,58,154.89
659,D5,184.0,0.5,58,154.89
660,G#4,184.75,0.188,51,154.89
661,G4,185.0,0.5,59,154.89
662,B4,185.0,1.0,59,154.89
663,F4,185.75,0.188,49,154.89
664,F3,185.75,0.25,43,154.89
665,E-3,186.0,0.5,48,154.89
666,E-4,186.0,0.5,55,154.89
667,C5,186.0,0.5,55,154.89
668,D4,186.75,0.25,47,154.89
669,D3,186.75,0.25,40,154.89
670,C4,187.0,1.0,54,154.89
671,D3,187.0,2.0,38,154.89
672,C3,187.0,0.5,48,154.89
673,B-2,187.75,0.188,38,154.89
674,E-4,188.0,1.0,56,154.89
675,A2,188.0,0.75,43,154.89
676,G#2,188.75,0.25,30,154.89
677,F#4,189.0,1.0,49,154.89
678,D4,189.0,0.75,49,154.89
679,G2,189.0,1.0,32,154.89
680,D3,189.0,1.0,38,154.89
681,C4,189.75,0.25,41,154.89
682,B-3,190.0,1.0,43,154.89
683,G4,190.0,1.0,43,154.89
684,C3,190.0,1.0,34,154.89
685,G3,190.0,1.0,34,154.89
686,E-4,191.0,1.0,40,154.89
687,C4,191.0,1.0,40,154.89
688,G4,191.0,1.0,40,154.89
689,C3,191.0,0.875,42,154.89
690,A3,191.0,0.875,42,154.89
691,G2,191.875,0.125,42,154.89
692,B-3,192.0,0.5,47,154.89
693,A4,192.0,1.0,42,154.89
694,F#4,192.0,1.0,42,154.89
695,C4,192.0,1.0,42,154.89
696,E-4,192.0,1.0,42,154.89
697,C4,192.5,0.5,36,154.89
698,A3,193.0,0.5,42,154.89
699,B-4,193.0,0.5,52,154.89
700,D4,193.0,0.5,52,154.89
701,C5,193.5,0.5,47,154.89
702,B-3,193.5,0.5,38,154.89
703,A4,194.0,0.5,51,154.89
704,G3,194.0,0.5,52,154.89
705,B-4,194.5,0.5,47,154.89
706,D4,194.5,0.5,46,154.89
707,G4,195.0,0.5,58,154.89
708,D4,195.0,1.0,54,154.89
709,D5,195.5,0.5,54,154.89
710,D5,196.0,1.0,62,154.89
711,C3,196.0,1.0,35,154.89
712,G3,196.0,1.0,35,154.89
713,E-4,197.0,1.0,42,154.89
714,G4,197.0,1.0,42,154.89
715,C4,197.0,1.0,42,154.89
716,C3,197.0,0.875,43,154.89
717,A3,197.0,0.875,43,154.89
718,G2,197.875,0.125,44,154.89
719,B-3,198.0,0.5,49,154.89
720,A4,198.0,1.0,44,154.89
721,E-4,198.0,1.0,44,154.89
722,C4,198.0,1.0,44,154.89
723,F#4,198.0,1.0,44,154.89
724,C4,198.5,0.5,37,154.89
725,A3,199.0,0.5,44,154.89
726,D4,199.0,0.5,54,154.89
727,B-4,199.0,0.5,54,154.89
728,C5,199.5,0.5,49,154.89
729,B-3,199.5,0.5,39,154.89
730,A4,200.0,0.5,53,154.89
731,G3,200.0,0.5,55,154.89
732,B-4,200.5,0.5,49,154.89
733,E-4,200.5,0.5,47,154.89
734,G4,201.0,0.5,63,154.89
735,E-4,201.0,1.0,56,154.89
736,E-5,201.5,0.5,56,154.89
737,E-5,202.0,1.0,63,154.89
738,C3,202.0,62/125,37,154.89
739,G3,202.0,62/125,37,154.89
740,F2,203.0,1.0,41,154.89
741,F3,203.0,1.0,49,154.89
742,E-4,203.0,62/125,50,154.89
743,G4,203.0,62/125,50,154.89
744,C4,203.0,62/125,50,154.89
745,A4,204.0,1.0,59,154.89
746,B-2,204.0,0.5,51,154.89
747,F3,204.0,0.5,49,154.89
748,C4,204.0,1.0,49,154.89
749,E-4,204.0,1.0,49,154.89
750,B-3,204.5,0.5,39,154.89
751,D4,205.0,0.5,52,154.89
752,A4,205.0,0.5,59,154.89
753,G3,205.0,0.5,46,154.89
754,B-4,205.5,0.5,51,154.89
755,A3,205.5,0.5,41,154.89
756,G4,206.0,0.5,56,154.89
757,F3,206.0,0.5,55,154.89
758,A4,206.5,0.5,51,154.89
759,D4,206.5,0.5,48,154.89
760,F4,207.0,0.5,63,154.89
761,D4,207.0,1.0,58,154.89
762,D5,207.5,0.5,56,154.89
763,D5,208.0,1.0,67,154.89
764,B-2,208.0,62/125,37,154.89
765,F3,208.0,62/125,37,154.89
766,E-2,209.0,1.0,41,154.89
767,E-3,209.0,1.0,49,154.89
768,B-3,209.0,62/125,50,154.89
769,D4,209.0,62/125,50,154.89
770,F4,209.0,62/125,50,154.89
771,G4,210.0,1.0,59,154.89
772,A2,210.0,0.5,51,154.89
773,E-3,210.0,0.5,49,154.89
774,D4,210.0,1.0,49,154.89
775,B-3,210.0,1.0,49,154.89
776,A3,210.5,0.5,39,154.89
777,C4,211.0,0.5,52,154.89
778,G4,211.0,0.5,59,154.89
779,F3,211.0,0.5,46,154.89
780,A4,211.5,0.5,51,154.89
781,G3,211.5,0.5,41,154.89
782,F4,212.0,0.5,56,154.89
783,E-3,212.0,0.5,55,154.89
784,G4,212.5,0.5,51,154.89
785,C4,212.5,0.5,48,154.89
786,E-4,213.0,0.5,63,154.89
787,C4,213.0,1.0,58,154.89
788,C5,213.5,0.5,56,154.89
789,C5,214.0,1.0,67,154.89
790,C2,214.0,62/125,37,154.89
791,C3,214.0,62/125,37,154.89
792,D2,215.0,1.0,41,154.89
793,D3,215.0,1.0,49,154.89
794,C4,215.0,62/125,50,154.89
795,G3,215.0,62/125,50,154.89
796,E-4,215.0,62/125,50,154.89
797,D4,216.0,1.0,58,154.89
798,G2,216.0,0.5,51,154.89
799,D3,216.0,0.5,49,154.89
800,A3,216.0,1.0,49,154.89
801,F#3,216.0,1.0,49,154.89
802,E-3,216.5,0.5,38,154.89
803,G3,217.0,0.5,52,154.89
804,D4,217.0,0.5,58,154.89
805,C3,217.0,0.5,45,154.89
806,E-4,217.5,0.5,50,154.89
807,D3,217.5,0.5,40,154.89
808,C4,218.0,0.5,55,154.89
809,B-2,218.0,0.5,56,154.89
810,D4,218.5,0.5,50,154.89
811,G3,218.5,0.5,49,154.89
812,B-3,219.0,0.5,64,154.89
813,G3,219.0,1.0,59,154.89
814,G4,219.5,0.5,56,154.89
815,G4,220.0,1.0,64,154.89
816,C2,220.0,0.75,40,154.89
817,C3,220.0,0.75,40,154.89
818,D2,221.0,1.0,45,154.89
819,D3,221.0,1.0,54,154.89
820,C4,221.0,0.75,54,154.89
821,G3,221.0,0.75,54,154.89
822,E-4,221.0,0.75,54,154.89
823,D4,222.0,1.0,64,154.89
824,G2,222.0,0.5,56,154.89
825,D3,222.0,0.5,54,154.89
826,F#3,222.0,1.0,54,154.89
827,A3,222.0,1.0,54,154.89
828,D3,222.5,0.5,49,154.89
829,G3,223.0,0.5,57,154.89
830,D4,223.0,0.5,64,154.89
831,E3,223.0,0.5,55,154.89
832,D4,223.5,0.5,56,154.89
833,F#3,223.5,0.5,59,154.89
834,E4,224.0,0.5,59,154.89
835,G3,224.0,0.5,62,154.89
836,F#4,224.5,0.5,63,154.89
837,A3,224.5,0.5,66,154.89
838,G4,225.0,0.5,66,154.89
839,B-3,225.0,1.0,69,154.89
840,A4,225.5,0.5,69,154.89
841,B-4,226.0,1.0,75,154.89
842,G3,226.0,1.0,51,154.89
843,B-3,226.0,1.0,51,154.89
844,D4,226.0,1.0,51,154.89
845,B-4,227.0,1.0,71,154.89
846,G4,227.0,1.0,71,154.89
847,D5,227.0,1.0,71,154.89
848,G3,227.0,0.875,62,154.89
849,B-3,227.0,0.875,62,154.89
850,C#4,227.0,0.875,62,154.89
851,E4,227.0,0.875,62,154.89
852,D3,227.875,0.125,60,154.89
853,A3,227.938,0.062,60,154.89
854,F4,228.0,0.5,73,154.89
855,D3,228.0,0.5,60,154.89
856,A3,228.0,0.5,60,154.89
857,B-4,228.0,1.0,73,154.89
858,G4,228.0,1.0,73,154.89
859,E5,228.0,1.0,73,154.89
860,C#5,228.0,1.0,73,154.89
861,G4,228.5,0.5,56,154.89
862,E4,229.0,0.5,66,154.89
863,F5,229.0,0.5,66,154.89
864,A4,229.0,0.5,66,154.89
865,D5,229.0,0.5,66,154.89
866,G5,229.5,0.5,73,154.89
867,F4,229.5,0.5,59,154.89
868,E5,230.0,0.5,80,154.89
869,D4,230.0,0.5,78,154.89
870,F5,230.5,0.5,73,154.89
871,B-4,230.5,0.5,68,154.89
872,D5,231.0,0.5,88,154.89
873,B-4,231.0,1.0,80,154.89
874,B-5,231.5,0.5,80,154.89
875,B-5,232.0,1.0,88,154.89
876,G3,232.0,1.0,51,154.89
877,B-3,232.0,1.0,51,154.89
878,D4,232.0,1.0,51,154.89
879,B-4,233.0,1.0,71,154.89
880,G4,233.0,1.0,71,154.89
881,D5,233.0,1.0,71,154.89
882,G3,233.0,0.875,62,154.89
883,B-3,233.0,0.875,62,154.89
884,C#4,233.0,0.875,62,154.89
885,E4,233.0,0.875,62,154.89
886,D3,233.875,0.125,60,154.89
887,A3,233.938,0.062,60,154.89
888,F4,234.0,0.5,73,154.89
889,D3,234.0,0.5,60,154.89
890,A3,234.0,0.5,60,154.89
891,B-4,234.0,1.0,73,154.89
892,G4,234.0,1.0,73,154.89
893,E5,234.0,1.0,73,154.89
894,C#5,234.0,1.0,73,154.89
895,G4,234.5,0.5,56,154.89
896,E4,235.0,0.5,66,154.89
897,F5,235.0,0.5,66,154.89
898,A4,235.0,0.5,66,154.89
899,D5,235.0,0.5,66,154.89
900,G5,235.5,0.5,73,154.89
901,F4,235.5,0.5,59,154.89
902,E5,236.0,0.5,80,154.89
903,D4,236.0,0.5,77,154.89
904,F5,236.5,0.5,73,154.89
905,B-4,236.5,0.5,68,154.89
906,D5,237.0,0.5,87,154.89
907,B-4,237.0,1.0,80,154.89
908,B-5,237.5,0.5,80,154.89
909,B-5,238.0,1.0,89,154.89
910,D3,238.0,0.75,39,154.89
911,B-3,238.0,0.75,39,154.89
912,D4,238.0,0.75,39,154.89
913,D5,239.0,0.75,55,154.89
914,F4,239.0,0.75,55,154.89
915,B-4,239.0,0.75,55,154.89
916,D3,239.0,0.75,48,154.89
917,B-3,239.0,0.75,48,154.89
918,D4,239.0,0.75,48,154.89
919,B-4,240.0,0.75,57,154.89
920,F#4,240.0,0.75,57,154.89
921,D5,240.0,0.75,57,154.89
922,E-3,240.0,0.5,52,154.89
923,B-3,240.0,0.5,52,154.89
924,C4,240.0,0.5,52,154.89
925,G4,240.5,1.0,62,154.89
926,G4,241.0,0.5,55,154.89
927,C5,241.0,0.5,55,154.89
928,B-4,241.0,0.5,55,154.89
929,G5,241.5,1.0,65,154.89
930,E-4,241.5,0.5,45,154.89
931,C4,242.0,0.5,55,154.89
932,E-5,242.5,0.5,56,154.89
933,B-3,242.5,0.5,45,154.89
934,C5,243.0,0.5,66,154.89
935,F3,243.0,0.5,46,154.89
936,A3,243.0,0.5,46,154.89
937,B-4,243.5,0.5,54,154.89
938,E-4,243.5,1.0,47,154.89
939,A4,244.0,0.5,61,154.89
940,E-5,244.5,1.0,68,154.89
941,C4,244.5,0.5,41,154.89
942,A3,245.0,0.5,45,154.89
943,C5,245.5,0.5,47,154.89
944,G3,245.5,0.5,41,154.89
945,A4,246.0,0.5,57,154.89
946,F#3,246.0,0.25,38,154.89
947,A3,246.0,0.25,38,154.89
948,D4,246.25,0.5,39,154.89
949,G4,246.5,0.5,45,154.89
950,A4,247.0,0.25,52,154.89
951,C3,247.0,1.0,34,154.89
952,G3,247.0,1.0,34,154.89
953,D5,247.25,0.5,43,154.89
954,G4,248.0,1.0,40,154.89
955,C4,248.0,1.0,40,154.89
956,E-4,248.0,1.0,40,154.89
957,C3,248.0,0.875,42,154.89
958,A3,248.0,0.875,42,154.89
959,G2,248.875,0.125,42,154.89
960,B-3,249.0,0.5,47,154.89
961,E-4,249.0,1.0,42,154.89
962,F#4,249.0,1.0,42,154.89
963,C4,249.0,1.0,42,154.89
964,A4,249.0,1.0,42,154.89
965,C4,249.5,0.5,36,154.89
966,A3,250.0,0.5,42,154.89
967,D4,250.0,0.5,52,154.89
968,B-4,250.0,0.5,52,154.89
969,C5,250.5,0.5,47,154.89
970,B-3,250.5,0.5,38,154.89
971,A4,251.0,0.5,51,154.89
972,G3,251.0,0.5,53,154.89
973,B-4,251.5,0.5,47,154.89
974,D4,251.5,0.5,50,154.89
975,G4,252.0,0.5,61,154.89
976,D4,252.0,1.0,55,154.89
977,D5,252.5,0.5,54,154.89
978,D5,253.0,1.0,66,154.89
979,C3,253.0,62/125,35,154.89
980,G3,253.0,62/125,35,154.89
981,C4,254.0,62/125,42,154.89
982,E-4,254.0,62/125,42,154.89
983,G4,254.0,62/125,42,154.89
984,C3,254.0,0.875,43,154.89
985,A3,254.0,0.875,43,154.89
986,G2,254.875,0.125,44,154.89
987,B-3,255.0,0.5,49,154.89
988,E-4,255.0,1.0,44,154.89
989,F#4,255.0,1.0,44,154.89
990,C4,255.0,1.0,44,154.89
991,A4,255.0,1.0,44,154.89
992,C4,255.5,0.5,37,154.89
993,A3,256.0,0.5,44,154.89
994,B-4,256.0,0.5,54,154.89
995,D4,256.0,0.5,54,154.89
996,C5,256.5,0.5,49,154.89
997,B-3,256.5,0.5,39,154.89
998,A4,257.0,0.5,53,154.89
999,G3,257.0,0.5,56,154.89
1000,B-4,257.5,0.5,49,154.89
1001,E-4,257.5,0.5,48,154.89
1002,G4,258.0,0.5,65,154.89
1003,E-4,258.0,1.0,62,154.89
1004,E-5,258.5,0.5,58,154.89
1005,E-5,259.0,1.0,68,154.89
1006,C3,259.0,62/125,37,154.89
1007,G3,259.0,62/125,37,154.89
1008,F2,260.0,1.0,41,154.89
1009,F3,260.0,1.0,49,154.89
1010,E-4,260.0,62/125,50,154.89
1011,C4,260.0,62/125,50,154.89
1012,G4,260.0,62/125,50,154.89
1013,A4,261.0,1.0,59,154.89
1014,B-2,261.0,0.5,51,154.89
1015,F3,261.0,0.5,49,154.89
1016,C4,261.0,1.0,49,154.89
1017,E-4,261.0,1.0,49,154.89
1018,B-3,261.5,0.5,39,154.89
1019,D4,262.0,0.5,52,154.89
1020,A4,262.0,0.5,59,154.89
1021,G3,262.0,0.5,46,154.89
1022,B-4,262.5,0.5,51,154.89
1023,A3,262.5,0.5,41,154.89
1024,G4,263.0,0.5,56,154.89
1025,F3,263.0,0.5,55,154.89
1026,A4,263.5,0.5,51,154.89
1027,D4,263.5,0.5,48,154.89
1028,F4,264.0,0.5,63,154.89
1029,D4,264.0,1.0,58,154.89
1030,D5,264.5,0.5,56,154.89
1031,D5,265.0,1.0,67,154.89
1032,B-2,265.0,62/125,37,154.89
1033,F3,265.0,62/125,37,154.89
1034,E-2,266.0,1.0,41,154.89
1035,E-3,266.0,1.0,49,154.89
1036,F4,266.0,62/125,50,154.89
1037,B-3,266.0,62/125,50,154.89
1038,D4,266.0,62/125,50,154.89
1039,G4,267.0,1.0,59,154.89
1040,A2,267.0,0.5,51,154.89
1041,E-3,267.0,0.5,49,154.89
1042,D4,267.0,1.0,49,154.89
1043,B-3,267.0,1.0,49,154.89
1044,A3,267.5,0.5,39,154.89
1045,C4,268.0,0.5,52,154.89
1046,G4,268.0,0.5,59,154.89
1047,F3,268.0,0.5,46,154.89
1048,A4,268.5,0.5,51,154.89
1049,G3,268.5,0.5,41,154.89
1050,F4,269.0,0.5,56,154.89
1051,E-3,269.0,0.5,55,154.89
1052,G4,269.5,0.5,51,154.89
1053,C4,269.5,0.5,48,154.89
1054,E-4,270.0,0.5,66,154.89
1055,C4,270.0,1.0,58,154.89
1056,C5,270.5,0.5,62,154.89
1057,C5,271.0,1.0,67,154.89
1058,C2,271.0,62/125,37,154.89
1059,C3,271.0,62/125,37,154.89
1060,D2,272.0,1.0,41,154.89
1061,D3,272.0,1.0,49,154.89
1062,C4,272.0,62/125,50,154.89
1063,G3,272.0,62/125,50,154.89
1064,E-4,272.0,62/125,50,154.89
1065,D4,273.0,1.0,58,154.89
1066,G2,273.0,0.5,51,154.89
1067,D3,273.0,0.5,49,154.89
1068,F#3,273.0,1.0,49,154.89
1069,A3,273.0,1.0,49,154.89
1070,E-3,273.5,0.5,38,154.89
1071,G3,274.0,0.5,52,154.89
1072,D4,274.0,0.5,58,154.89
1073,C3,274.0,0.5,45,154.89
1074,E-4,274.5,0.5,50,154.89
1075,D3,274.5,0.5,40,154.89
1076,C4,275.0,0.5,55,154.89
1077,B-2,275.0,0.5,57,154.89
1078,D4,275.5,0.5,50,154.89
1079,G3,275.5,0.5,52,154.89
1080,B-3,276.0,0.5,67,154.89
1081,G3,276.0,1.0,61,154.89
1082,G4,276.5,0.5,61,154.89
1083,G4,277.0,1.0,69,154.89
1084,C2,277.0,62/125,40,154.89
1085,C3,277.0,62/125,40,154.89
1086,D2,278.0,1.0,40,154.89
1087,D3,278.0,1.0,48,154.89
1088,G3,278.0,62/125,54,154.89
1089,C4,278.0,62/125,54,154.89
1090,E-4,278.0,62/125,54,154.89
1091,D4,279.0,1.0,57,154.89
1092,G2,279.0,1.0,42,154.89
1093,D3,279.0,1.0,48,154.89
1094,A3,279.0,1.0,48,154.89
1095,F#3,279.0,1.0,48,154.89
1096,G3,280.0,1.0,50,154.89
1097,D4,280.0,1.0,57,154.89
1098,B-1,280.0,0.5,52,154.89
1099,B-2,280.0,0.5,52,154.89
1100,F3,281.0,0.5,64,154.89
1101,B-3,281.0,0.5,64,154.89
1102,D4,281.0,0.5,64,154.89
1103,A1,281.0,0.5,54,154.89
1104,A2,281.0,0.5,54,154.89
1105,F3,282.0,0.5,67,154.89
1106,C4,282.0,0.5,67,154.89
1107,F4,282.0,0.5,67,154.89
1108,G#1,282.0,0.25,62,154.89
1109,G#2,282.0,0.25,62,154.89
1110,B-3,282.5,0.5,56,154.89
1111,F3,283.0,0.5,62,154.89
1112,F4,283.0,0.25,71,154.89
1113,D4,283.0,0.25,71,154.89
1114,B-4,283.0,0.25,71,154.89
1115,B-4,283.5,0.5,64,154.89
1116,G3,283.5,0.5,52,154.89
1117,F4,284.0,0.5,72,154.89
1118,B-2,284.0,0.75,62,154.89
1119,G4,284.5,0.5,67,154.89
1120,B-3,284.75,0.25,55,154.89
1121,B-3,285.0,0.75,76,154.89
1122,B-3,285.0,1.0,63,154.89
1123,B-4,285.75,0.25,66,154.89
1124,B-4,286.0,1.0,78,154.89
1125,G#1,286.0,0.5,52,154.89
1126,G#2,286.0,0.5,52,154.89
1127,D4,287.0,0.5,73,154.89
1128,F4,287.0,0.5,73,154.89
1129,B-4,287.0,0.5,73,154.89
1130,G1,287.0,0.5,54,154.89
1131,G2,287.0,0.5,54,154.89
1132,F4,288.0,0.5,77,154.89
1133,B-4,288.0,0.5,77,154.89
1134,D5,288.0,0.5,77,154.89
1135,F1,288.0,0.25,62,154.89
1136,F2,288.0,0.25,62,154.89
1137,F4,288.5,0.5,64,154.89
1138,C4,289.0,0.5,71,154.89
1139,D5,289.0,0.25,81,154.89
1140,G#4,289.0,0.25,81,154.89
1141,F5,289.0,0.25,81,154.89
1142,F5,289.5,0.5,73,154.89
1143,D4,289.5,0.5,59,154.89
1144,C5,290.0,0.5,82,154.89
1145,G#3,290.0,0.75,71,154.89
1146,D5,290.5,0.5,77,154.89
1147,G#4,290.75,0.25,63,154.89
1148,G#4,291.0,0.75,87,154.89
1149,G#4,291.0,1.0,72,154.89
1150,G#5,291.75,0.25,75,154.89
1151,G#5,292.0,1.0,89,154.89
1152,F1,292.0,0.5,56,154.89
1153,F2,292.0,0.5,56,154.89
1154,G#4,293.0,0.5,87,154.89
1155,C5,293.0,0.5,87,154.89
1156,G#5,293.0,0.5,87,154.89
1157,E-1,293.0,0.5,62,154.89
1158,E-2,293.0,0.5,62,154.89
1159,C5,294.0,0.5,95,154.89
1160,F5,294.0,0.5,95,154.89
1161,C6,294.0,0.5,95,154.89
1162,D1,294.0,0.25,76,154.89
1163,D2,294.0,0.25,76,154.89
1164,B-5,295.0,0.25,104,154.89
1165,F5,295.0,0.25,104,154.89
1166,F6,295.0,0.25,104,154.89
1167,F6,295.5,0.5,70,154.89
1168,B-5,296.0,0.5,77,154.89
1169,C6,296.5,0.5,69,154.89
1170,F5,297.0,0.375,76,154.89
1171,F5,297.5,0.5,66,154.89
1172,B-4,298.0,0.5,79,154.89
1173,C5,298.5,0.5,64,154.89
1174,F4,299.0,0.375,74,154.89
1175,F4,299.5,0.5,65,154.89
1176,B-3,300.0,0.5,75,154.89
1177,D2,300.0,3.0,60,154.89
1178,C4,300.5,0.5,68,154.89
1179,F3,301.0,2.0,74,154.89
1180,F4,301.5,0.5,54,154.89
1181,B-3,302.0,0.5,60,154.89
1182,B-2,302.0,1.0,66,154.89
1183,C4,302.5,0.5,54,154.89
1184,F#3,303.0,1.0,74,154.89
1185,D2,303.0,1.0,60,154.89
1186,B-2,303.0,3.0,66,154.89
1187,F#4,303.5,0.5,54,154.89
1188,B-3,304.0,0.5,60,154.89
1189,F#3,304.0,1.0,74,154.89
1190,E-2,304.0,1.0,60,154.89
1191,C4,304.5,0.5,55,154.89
1192,G3,305.0,2.0,74,154.89
1193,E2,305.0,1.0,60,154.89
1194,G4,305.5,0.5,54,154.89
1195,C4,306.0,0.5,60,154.89
1196,F2,306.0,2.0,60,154.89
1197,B-2,306.0,2.0,66,154.89
1198,C#4,306.5,0.5,55,154.89
1199,G#3,307.0,2.0,74,154.89
1200,G#4,307.5,0.5,55,154.89
1201,D4,308.0,0.5,60,154.89
1202,B-2,308.0,1.0,69,154.89
1203,F#2,308.0,1.0,60,154.89
1204,E-4,308.5,0.5,55,154.89
1205,A3,309.0,1.0,74,154.89
1206,B-2,309.0,2.0,69,154.89
1207,F#2,309.0,1.0,60,154.89
1208,A4,309.5,0.5,54,154.89
1209,D4,310.0,0.5,60,154.89
1210,A3,310.0,1.0,74,154.89
1211,G2,310.0,2.0,60,154.89
1212,E-4,310.5,0.5,54,154.89
1213,B-3,311.0,1.0,74,154.89
1214,E-3,311.0,1.0,66,154.89
1215,B-4,311.5,0.5,54,154.89
1216,B3,312.0,1.0,70,154.89
1217,A2,312.0,3.0,61,154.89
1218,E-3,312.0,2.0,66,154.89
1219,B4,312.5,0.5,55,154.89
1220,C4,313.0,2.0,76,154.89
1221,C5,313.5,0.5,55,154.89
1222,F4,314.0,0.5,63,154.89
1223,F3,314.0,1.0,64,154.89
1224,F#4,314.5,0.5,56,154.89
1225,D4,315.0,1.0,79,154.89
1226,A2,315.0,1.0,61,154.89
1227,F3,315.0,1.0,64,154.89
1228,D5,315.5,0.5,58,154.89
1229,F4,316.0,0.5,65,154.89
1230,D4,316.0,1.0,79,154.89
1231,F#3,316.0,2.0,66,154.89
1232,A2,316.0,2.0,66,154.89
1233,F#4,316.5,0.5,58,154.89
1234,E-4,317.0,2.0,82,154.89
1235,E-5,317.5,0.5,59,154.89
1236,B4,318.0,0.5,67,154.89
1237,G3,318.0,2.0,69,154.89
1238,B-2,318.0,2.0,69,154.89
1239,C5,318.5,0.5,60,154.89
1240,G4,319.0,2.0,79,154.89
1241,G5,319.5,0.5,62,154.89
1242,D5,320.0,0.5,69,154.89
1243,G#3,320.0,1.0,60,154.89
1244,B2,320.0,1.0,60,154.89
1245,E-5,320.5,0.5,60,154.89
1246,F4,321.0,1.0,74,154.89
1247,F5,321.5,0.5,62,154.89
1248,C#5,322.0,0.5,66,154.89
1249,F4,322.0,1.0,74,154.89
1250,G#3,322.0,1.0,60,154.89
1251,B2,322.0,1.0,60,154.89
1252,D5,322.5,0.5,60,154.89
1253,E-4,323.0,2.0,71,154.89
1254,G3,323.0,1.0,58,154.89
1255,C3,323.0,2.0,58,154.89
1256,E-5,323.5,0.5,57,154.89
1257,D5,324.0,0.125,57,154.89
1258,A3,324.0,1.0,57,154.89
1259,E-5,324.125,0.125,56,154.89
1260,D5,324.25,0.25,61,154.89
1261,C5,324.5,0.5,56,154.89
1262,F4,325.0,2.0,66,154.89
1263,D3,325.0,3.0,54,154.89
1264,A3,325.0,2.0,57,154.89
1265,F5,325.5,0.5,57,154.89
1266,B-4,326.0,0.5,61,154.89
1267,C5,326.5,0.5,56,154.89
1268,F#4,327.0,1.0,68,154.89
1269,B-3,327.0,1.0,55,154.89
1270,F#5,327.5,0.5,56,154.89
1271,B-4,328.0,0.5,63,154.89
1272,F#4,328.0,1.0,68,154.89
1273,D3,328.0,1.0,54,154.89
1274,B-3,328.0,3.0,55,154.89
1275,C5,328.5,0.5,56,154.89
1276,G4,329.0,2.0,71,154.89
1277,E-3,329.0,1.0,57,154.89
1278,G5,329.5,0.5,59,154.89
1279,C5,330.0,0.5,68,154.89
1280,E3,330.0,1.0,58,154.89
1281,C#5,330.5,0.5,58,154.89
1282,G#4,331.0,2.0,74,154.89
1283,F3,331.0,2.0,60,154.89
1284,B-3,331.0,2.0,55,154.89
1285,G#5,331.5,0.5,54,154.89
1286,D5,332.0,0.5,68,154.89
1287,E-5,332.5,0.5,63,154.89
1288,A4,333.0,1.0,76,154.89
1289,B-3,333.0,1.0,61,154.89
1290,F#3,333.0,1.0,61,154.89
1291,A5,333.5,0.5,57,154.89
1292,D5,334.0,0.5,70,154.89
1293,A4,334.0,1.0,76,154.89
1294,B-3,334.0,2.0,61,154.89
1295,F#3,334.0,1.0,61,154.89
1296,E-5,334.5,0.5,68,154.89
1297,B-4,335.0,1.0,78,154.89
1298,G3,335.0,2.0,63,154.89
1299,B-5,335.5,0.5,64,154.89
1300,B4,336.0,1.0,79,154.89
1301,E-4,336.0,1.0,64,154.89
1302,B5,336.5,0.5,63,154.89
1303,C5,337.0,2.0,84,154.89
1304,G#3,337.0,3.0,66,154.89
1305,E-4,337.0,2.0,64,154.89
1306,C6,337.5,0.5,60,154.89
1307,F5,338.0,0.5,66,154.89
1308,F#5,338.5,0.5,60,154.89
1309,D5,339.0,1.0,85,154.89
1310,F4,339.0,1.0,67,154.89
1311,D6,339.5,0.5,61,154.89
1312,F5,340.0,0.5,66,154.89
1313,D5,340.0,1.0,85,154.89
1314,G#3,340.0,1.0,66,154.89
1315,F4,340.0,1.0,67,154.89
1316,F#5,340.5,0.5,53,154.89
1317,E-5,341.0,2.0,83,154.89
1318,A3,341.0,2.0,46,154.89
1319,F#4,341.0,2.0,46,154.89
1320,E-6,341.5,0.5,59,154.89
1321,B5,342.0,0.5,69,154.89
1322,C6,342.5,0.5,63,154.89
1323,G5,343.0,2.0,85,154.89
1324,B-3,343.0,2.0,43,154.89
1325,G4,343.0,2.0,43,154.89
1326,G6,343.5,0.5,70,154.89
1327,D6,344.0,0.5,75,154.89
1328,E-6,344.5,0.5,67,154.89
1329,F5,345.0,1.0,78,154.89
1330,B3,345.0,1.0,35,154.89
1331,D4,345.0,1.0,35,154.89
1332,F4,345.0,1.0,35,154.89
1333,G#4,345.0,1.0,35,154.89
1334,F6,345.5,0.5,52,154.89
1335,C#6,346.0,0.5,64,154.89
1336,F5,346.0,1.0,78,154.89
1337,D6,346.5,0.5,59,154.89
1338,E-5,347.0,2.0,68,154.89
1339,B3,347.0,1.0,35,154.89
1340,D4,347.0,1.0,35,154.89
1341,F4,347.0,1.0,35,154.89
1342,G#4,347.0,1.0,35,154.89
1343,E-6,347.5,0.5,54,154.89
1344,B5,348.0,0.5,63,154.89
1345,C4,348.0,2.0,32,154.89
1346,E-4,348.0,2.0,32,154.89
1347,F#4,348.0,2.0,32,154.89
1348,A4,348.0,2.0,32,154.89
1349,C6,348.5,0.5,53,154.89
1350,D5,349.0,2.0,59,154.89
1351,D6,349.5,0.5,48,154.89
1352,B-5,350.0,0.5,54,154.89
1353,D4,350.0,2.0,32,154.89
1354,F4,350.0,2.0,32,154.89
1355,B-4,350.0,2.0,32,154.89
1356,C6,350.5,0.5,47,154.89
1357,C5,351.0,1.0,59,154.89
1358,C6,351.5,0.5,47,154.89
1359,G#5,352.0,0.5,54,154.89
1360,C5,352.0,1.0,59,154.89
1361,E4,352.0,1.0,32,154.89
1362,G4,352.0,1.0,32,154.89
1363,B-4,352.0,1.0,32,154.89
1364,B-5,352.5,0.5,47,154.89
1365,B-4,353.0,2.0,59,154.89
1366,B-5,353.5,0.5,47,154.89
1367,G5,354.0,0.5,54,154.89
1368,E4,354.0,1.0,32,154.89
1369,G4,354.0,1.0,32,154.89
1370,B-4,354.0,1.0,32,154.89
1371,G#5,354.5,0.5,46,154.89
1372,B-4,355.0,2.0,59,154.89
1373,F4,355.0,2.0,35,154.89
1374,G#4,355.0,2.0,35,154.89
1375,B-5,355.5,0.5,46,154.89
1376,G5,356.0,0.5,53,154.89
1377,G#5,356.5,0.5,46,154.89
1378,B4,357.0,1.0,59,154.89
1379,D4,357.0,2.0,32,154.89
1380,F4,357.0,2.0,32,154.89
1381,G#4,357.0,2.0,32,154.89
1382,B-5,357.5,0.5,47,154.89
1383,G5,358.0,0.5,53,154.89
1384,B4,358.0,1.0,59,154.89
1385,G#5,358.5,0.5,47,154.89
1386,B-4,359.0,1.0,59,154.89
1387,E-4,359.0,1.0,32,154.89
1388,F4,359.0,1.0,32,154.89
1389,G#4,359.0,1.0,32,154.89
1390,B-5,359.5,0.5,44,154.89
1391,G5,360.0,0.5,52,154.89
1392,B4,360.0,1.0,52,154.89
1393,G#5,360.5,0.5,46,154.89
1394,C5,361.0,2.0,59,154.89
1395,E-4,361.0,1.0,32,154.89
1396,F4,361.0,1.0,32,154.89
1397,G#4,361.0,1.0,32,154.89
1398,B-5,361.5,0.5,46,154.89
1399,G#5,362.0,0.5,53,154.89
1400,D4,362.0,2.0,32,154.89
1401,F4,362.0,2.0,32,154.89
1402,G#4,362.0,2.0,32,154.89
1403,B-5,362.5,0.5,46,154.89
1404,C#5,363.0,1.0,59,154.89
1405,B-5,363.5,0.5,48,154.89
1406,G5,364.0,0.5,54,154.89
1407,C#5,364.0,1.0,59,154.89
1408,C4,364.0,2.0,32,154.89
1409,F4,364.0,2.0,32,154.89
1410,G#4,364.0,2.0,32,154.89
1411,G#5,364.5,0.5,48,154.89
1412,C5,365.0,1.0,59,154.89
1413,B-5,365.5,0.5,48,154.89
1414,G5,366.0,0.5,48,154.89
1415,C#5,366.0,1.0,59,154.89
1416,B3,366.0,1.0,32,154.89
1417,F4,366.0,1.0,32,154.89
1418,G#4,366.0,1.0,32,154.89
1419,G#5,366.5,0.5,48,154.89
1420,D5,367.0,3.0,59,154.89
1421,B-5,367.5,1.0,48,154.89
1422,B3,368.0,1.0,32,154.89
1423,F4,368.0,1.0,32,154.89
1424,G#4,368.0,1.0,32,154.89
1425,G#5,368.5,0.5,45,154.89
1426,F5,369.0,0.5,50,154.89
1427,C4,369.0,2.0,32,154.89
1428,F4,369.0,2.0,32,154.89
1429,G#4,369.0,2.0,32,154.89
1430,D5,369.5,0.5,48,154.89
1431,B4,370.0,0.5,50,154.89
1432,G5,370.5,1.0,46,154.89
1433,B3,371.0,3.0,32,154.89
1434,F4,371.0,3.0,32,154.89
1435,G#4,371.0,3.0,32,154.89
1436,F5,371.5,0.5,32,154.89
1437,D5,372.0,0.5,40,154.89
1438,B-4,372.5,0.5,33,154.89
1439,G#4,373.0,1.0,28,154.89
1440,E-4,374.0,1.0,31,154.89
1441,C4,374.0,1.0,31,154.89
1442,G4,374.0,1.0,31,154.89
1443,B3,374.5,0.5,32,154.89
1444,F4,374.5,0.5,32,154.89
1445,G#4,374.5,0.5,32,154.89
1446,B-4,375.0,1.0,36,154.89
1447,A4,375.0,1.0,32,154.89
1448,F#4,375.0,1.0,32,154.89
1449,C4,375.0,1.0,32,154.89
1450,E-4,375.0,1.0,32,154.89
1451,G#4,376.0,0.5,27,154.89
1452,B-4,376.0,0.5,44,154.89
1453,D4,376.0,0.5,44,154.89
1454,C5,376.5,0.5,42,154.89
1455,F4,376.5,0.5,37,154.89
1456,A4,377.0,0.5,47,154.89
1457,D4,377.0,0.5,30,154.89
1458,B-4,377.5,0.5,42,154.89
1459,B3,377.5,1.0,27,154.89
1460,G4,378.0,0.5,56,154.89
1461,D5,378.5,0.5,47,154.89
1462,C3,378.5,1.0,26,154.89
1463,G3,378.5,1.0,26,154.89
1464,D5,379.0,1.0,56,154.89
1465,C3,379.5,0.875,35,154.89
1466,A3,379.5,0.875,35,154.89
1467,E-4,380.0,1.0,36,154.89
1468,G4,380.0,1.0,36,154.89
1469,C4,380.0,1.0,36,154.89
1470,G2,380.375,0.125,35,154.89
1471,B-3,380.5,0.5,39,154.89
1472,C4,381.0,0.5,33,154.89
1473,A4,381.0,1.0,37,154.89
1474,E-4,381.0,1.0,37,154.89
1475,C4,381.0,1.0,37,154.89
1476,F#4,381.0,1.0,37,154.89
1477,A3,381.5,0.5,38,154.89
1478,B-3,382.0,0.5,35,154.89
1479,D4,382.0,0.5,46,154.89
1480,B-4,382.0,0.5,46,154.89
1481,C5,382.5,0.5,45,154.89
1482,G3,382.5,0.5,47,154.89
1483,A4,383.0,0.5,49,154.89
1484,D4,383.0,0.5,40,154.89
1485,B-4,383.5,0.5,45,154.89
1486,D4,383.5,1.0,49,154.89
1487,G4,384.0,0.5,58,154.89
1488,E-5,384.5,0.5,52,154.89
1489,C3,384.5,1.0,30,154.89
1490,G3,384.5,1.0,30,154.89
1491,E-5,385.0,1.0,63,154.89
1492,C3,385.5,0.875,36,154.89
1493,A3,385.5,0.875,36,154.89
1494,E-4,386.0,62/125,42,154.89
1495,G4,386.0,62/125,42,154.89
1496,C4,386.0,62/125,42,154.89
1497,G2,386.375,0.125,37,154.89
1498,B-3,386.5,0.5,41,154.89
1499,A4,387.0,1.0,50,154.89
1500,C4,387.0,0.5,34,154.89
1501,C4,387.0,1.0,41,154.89
1502,E-4,387.0,1.0,41,154.89
1503,A3,387.5,0.5,40,154.89
1504,D4,388.0,0.5,44,154.89
1505,A4,388.0,0.5,50,154.89
1506,B-3,388.0,0.5,36,154.89
1507,B-4,388.5,0.5,47,154.89
1508,G3,388.5,0.5,51,154.89
1509,G4,389.0,0.5,51,154.89
1510,E-4,389.0,0.5,45,154.89
1511,A4,389.5,0.5,47,154.89
1512,E-4,389.5,1.0,52,154.89
1513,F4,390.0,0.5,58,154.89
1514,D5,390.5,0.5,51,154.89
1515,C3,390.5,62/125,31,154.89
1516,G3,390.5,62/125,31,154.89
1517,D5,391.0,1.0,61,154.89
1518,F2,391.5,1.0,34,154.89
1519,F3,391.5,1.0,41,154.89
1520,B-3,392.0,62/125,42,154.89
1521,D4,392.0,62/125,42,154.89
1522,F4,392.0,62/125,42,154.89
1523,B-2,392.5,0.5,43,154.89
1524,F3,392.5,0.5,41,154.89
1525,G4,393.0,1.0,50,154.89
1526,B-3,393.0,0.5,36,154.89
1527,D4,393.0,1.0,41,154.89
1528,B-3,393.0,1.0,41,154.89
1529,G3,393.5,0.5,42,154.89
1530,C4,394.0,0.5,44,154.89
1531,G4,394.0,0.5,50,154.89
1532,A3,394.0,0.5,37,154.89
1533,A4,394.5,0.5,43,154.89
1534,F3,394.5,0.5,50,154.89
1535,F4,395.0,0.5,51,154.89
1536,D4,395.0,0.5,44,154.89
1537,G4,395.5,0.5,47,154.89
1538,D4,395.5,1.0,53,154.89
1539,E-4,396.0,0.5,58,154.89
1540,C5,396.5,0.5,51,154.89
1541,B-2,396.5,62/125,31,154.89
1542,F3,396.5,62/125,31,154.89
1543,C5,397.0,1.0,61,154.89
1544,E-2,397.5,1.0,34,154.89
1545,E-3,397.5,1.0,41,154.89
1546,C4,398.0,62/125,42,154.89
1547,G3,398.0,62/125,42,154.89
1548,E-4,398.0,62/125,42,154.89
1549,A2,398.5,0.5,43,154.89
1550,E-3,398.5,0.5,41,154.89
1551,D4,399.0,1.0,49,154.89
1552,A3,399.0,0.5,33,154.89
1553,A3,399.0,1.0,41,154.89
1554,F#3,399.0,1.0,41,154.89
1555,F3,399.5,0.5,42,154.89
1556,G3,400.0,0.5,44,154.89
1557,D4,400.0,0.5,49,154.89
1558,G3,400.0,0.5,37,154.89
1559,E-4,400.5,0.5,46,154.89
1560,E-3,400.5,0.5,50,154.89
1561,C4,401.0,0.5,50,154.89
1562,C4,401.0,0.5,44,154.89
1563,D4,401.5,0.5,46,154.89
1564,C4,401.5,1.0,53,154.89
1565,B-3,402.0,0.5,57,154.89
1566,G4,402.5,0.5,49,154.89
1567,C2,402.5,62/125,31,154.89
1568,C3,402.5,62/125,31,154.89
1569,G4,403.0,1.0,59,154.89
1570,D2,403.5,1.0,34,154.89
1571,D3,403.5,1.0,41,154.89
1572,C4,404.0,62/125,46,154.89
1573,G3,404.0,62/125,46,154.89
1574,E-4,404.0,62/125,46,154.89
1575,G2,404.5,0.5,43,154.89
1576,D3,404.5,0.5,41,154.89
1577,D4,405.0,1.0,54,154.89
1578,E-3,405.0,0.5,35,154.89
1579,F#3,405.0,1.0,45,154.89
1580,A3,405.0,1.0,45,154.89
1581,C3,405.5,0.5,41,154.89
1582,G3,406.0,1.0,48,154.89
1583,D4,406.0,1.0,54,154.89
1584,D3,406.0,0.5,37,154.89
1585,B-2,406.5,0.5,49,154.89
1586,B-4,407.0,1.75,58,154.89
1587,G3,407.0,0.5,42,154.89
1588,G3,407.5,1.0,51,154.89
1589,B-3,408.0,1.0,40,154.89
1590,C2,408.5,62/125,34,154.89
1591,C3,408.5,62/125,34,154.89
1592,F#4,408.75,0.25,50,154.89
1593,G4,409.0,0.75,56,154.89
1594,B-3,409.0,1.0,40,154.89
1595,D2,409.5,1.0,38,154.89
1596,D3,409.5,1.0,45,154.89
1597,A4,409.75,0.25,51,154.89
1598,B-4,410.0,1.75,57,154.89
1599,G2,410.5,1.0,47,154.89
1600,D3,410.5,1.0,45,154.89
1601,B-3,411.0,1.0,40,154.89
1602,F#4,411.75,0.25,54,154.89
1603,G4,412.0,0.75,61,154.89
1604,B-3,412.0,1.0,40,154.89
1605,D2,412.5,1.0,40,154.89
1606,B-2,412.5,1.0,40,154.89
1607,A4,412.75,0.25,52,154.89
1608,B-4,413.0,0.5,57,154.89
1609,B-3,413.5,0.5,47,154.89
1610,E-2,413.5,1.0,40,154.89
1611,B-2,413.5,1.0,40,154.89
1612,D5,414.0,0.5,64,154.89
1613,C5,414.5,0.5,57,154.89
1614,D5,415.0,0.5,66,154.89
1615,C5,415.5,0.5,63,154.89
1616,D2,415.5,1.0,40,154.89
1617,B-2,415.5,1.0,40,154.89
1618,B-4,416.0,333/1000,59,154.89
1619,G4,416.333,333/1000,51,154.89
1620,E-2,416.5,1.0,40,154.89
1621,B-2,416.5,1.0,40,154.89
1622,E-4,416.667,333/1000,51,154.89
1623,D4,417.0,0.75,57,154.89
1624,A3,417.0,1.0,36,154.89
1625,C4,417.75,0.25,47,154.89
1626,B-3,418.0,0.5,54,154.89
1627,C2,418.375,1.125,33,154.89
1628,E-3,418.5,1.0,40,154.89
1629,F5,419.0,1.75,58,154.89
1630,C2,419.5,1.0,33,154.89
1631,E-3,419.5,2.0,40,154.89
1632,F4,420.0,1.0,40,154.89
1633,C3,420.5,1.0,40,154.89
1634,C#5,420.75,0.25,50,154.89
1635,D5,421.0,0.75,56,154.89
1636,F4,421.0,1.0,40,154.89
1637,F3,421.5,0.75,36,154.89
1638,F2,421.5,1.0,36,154.89
1639,E-5,421.75,0.25,51,154.89
1640,F5,422.0,1.75,57,154.89
1641,E-3,422.25,0.25,32,154.89
1642,B-2,422.5,0.5,37,154.89
1643,D3,422.5,0.5,37,154.89
1644,F4,423.0,1.0,40,154.89
1645,C#5,423.75,0.25,54,154.89
1646,D5,424.0,0.75,61,154.89
1647,F4,424.0,1.0,40,154.89
1648,F2,424.375,1.125,28,154.89
1649,C#3,424.438,1.062,32,154.89
1650,A3,424.5,1.0,36,154.89
1651,E-5,424.75,0.25,52,154.89
1652,F5,425.0,0.5,57,154.89
1653,F4,425.5,0.5,47,154.89
1654,B-3,425.5,1.0,40,154.89
1655,D3,425.5,1.0,40,154.89
1656,A5,426.0,0.5,64,154.89
1657,G5,426.5,0.5,57,154.89
1658,A5,427.0,0.5,66,154.89
1659,F2,427.375,1.125,29,154.89
1660,C#3,427.438,1.062,32,154.89
1661,G5,427.5,0.5,63,154.89
1662,A3,427.5,1.0,36,154.89
1663,F5,428.0,333/1000,59,154.89
1664,D5,428.333,333/1000,51,154.89
1665,B-3,428.5,1.0,40,154.89
1666,D3,428.5,1.0,40,154.89
1667,B-4,428.667,333/1000,51,154.89
1668,E4,429.0,1.0,36,154.89
1669,A4,429.0,0.75,57,154.89
1670,G4,429.75,0.25,47,154.89
1671,F4,430.0,0.5,54,154.89
1672,B-2,430.375,1.125,33,154.89
1673,F3,430.438,1.062,33,154.89
1674,D4,430.5,1.0,40,154.89
1675,B-5,431.0,1.75,58,154.89
1676,D4,431.5,2.0,40,154.89
1677,F3,431.5,1.0,33,154.89
1678,B-4,432.0,1.0,40,154.89
1679,G3,432.5,1.0,40,154.89
1680,F5,432.75,0.25,53,154.89
1681,F#5,433.0,0.75,57,154.89
1682,B-4,433.0,1.0,40,154.89
1683,C4,433.5,0.75,36,154.89
1684,C3,433.5,1.0,36,154.89
1685,G#5,433.75,0.25,55,154.89
1686,B-5,434.0,1.75,58,154.89
1687,B-3,434.25,0.25,32,154.89
1688,F3,434.5,0.5,37,154.89
1689,A3,434.5,0.5,37,154.89
1690,B-4,435.0,1.0,40,154.89
1691,F5,435.75,0.25,54,154.89
1692,F#5,436.0,0.75,61,154.89
1693,B-4,436.0,1.0,40,154.89
1694,D3,436.375,0.938,32,154.89
1695,B-3,436.438,0.875,36,154.89
1696,F4,436.5,1.0,40,154.89
1697,G#5,436.75,0.25,56,154.89
1698,B-5,437.0,0.5,61,154.89
1699,E-3,437.312,0.188,27,154.89
1700,F#3,437.375,0.125,33,154.89
1701,B-3,437.438,0.062,40,154.89
1702,C#5,437.5,0.5,47,154.89
1703,F#4,437.5,1.0,40,154.89
1704,E-3,437.5,1.0,27,154.89
1705,F#3,437.5,1.0,33,154.89
1706,F4,437.5,21/1000,40,154.89
1707,B-3,437.5,1.0,40,154.89
1708,F6,438.0,0.5,64,154.89
1709,E-6,438.5,0.5,57,154.89
1710,F6,439.0,0.5,66,154.89
1711,D3,439.375,0.75,33,154.89
1712,B-3,439.438,0.875,36,154.89
1713,E-6,439.5,0.5,63,154.89
1714,F4,439.5,0.812,40,154.89
1715,C#6,440.0,333/1000,59,154.89
1716,E-3,440.312,0.188,27,154.89
1717,B-5,440.333,333/1000,51,154.89
1718,F#3,440.375,0.125,31,154.89
1719,B-3,440.438,0.062,35,154.89
1720,F#4,440.5,1.0,40,154.89
1721,E-3,440.5,1.0,27,154.89
1722,F#3,440.5,1.0,31,154.89
1723,B-3,440.5,1.0,35,154.89
1724,F#5,440.667,333/1000,51,154.89
1725,C5,441.0,1.0,36,154.89
1726,F5,441.0,0.75,57,154.89
1727,E-5,441.75,0.25,47,154.89
1728,C#5,442.0,0.5,54,154.89
1729,F#3,442.375,1.125,33,154.89
1730,C#4,442.438,1.062,33,154.89
1731,B-4,442.5,1.0,40,154.89
1732,G#5,443.0,1.75,58,154.89
1733,B-4,443.5,2.0,40,154.89
1734,C#4,443.5,1.0,33,154.89
1735,G#4,444.0,1.0,40,154.89
1736,E-4,444.5,1.0,40,154.89
1737,E-5,444.75,0.25,50,154.89
1738,F5,445.0,0.75,56,154.89
1739,G#4,445.0,1.0,40,154.89
1740,F#4,445.5,1.0,36,154.89
1741,G#3,445.5,1.0,36,154.89
1742,F#5,445.75,0.25,51,154.89
1743,G#5,446.0,1.75,57,154.89
1744,C#4,446.5,0.5,37,154.89
1745,F4,446.5,0.5,37,154.89
1746,G#4,447.0,1.0,40,154.89
1747,E-5,447.75,0.25,54,154.89
1748,F5,448.0,0.75,61,154.89
1749,G#4,448.0,1.0,40,154.89
1750,G#2,448.375,1.125,32,154.89
1751,E-3,448.438,1.062,36,154.89
1752,C4,448.5,1.0,40,154.89
1753,F#5,448.75,0.25,52,154.89
1754,G#5,449.0,0.5,57,154.89
1755,B-4,449.5,0.5,47,154.89
1756,C#4,449.5,1.0,40,154.89
1757,F3,449.5,1.0,40,154.89
1758,C6,450.0,0.5,64,154.89
1759,B-5,450.5,0.5,57,154.89
1760,C6,451.0,0.5,66,154.89
1761,G#2,451.375,1.125,33,154.89
1762,E-3,451.438,1.062,36,154.89
1763,B-5,451.5,0.5,63,154.89
1764,C4,451.5,1.0,40,154.89
1765,G#5,452.0,333/1000,59,154.89
1766,F5,452.333,333/1000,51,154.89
1767,C#4,452.5,1.0,40,154.89
1768,F3,452.5,1.0,40,154.89
1769,C#5,452.667,333/1000,51,154.89
1770,C5,453.0,0.75,57,154.89
1771,G4,453.0,1.0,36,154.89
1772,B-4,453.75,0.25,47,154.89
1773,G#4,454.0,0.5,54,154.89
1774,C#3,454.375,1.125,33,154.89
1775,G#3,454.438,1.062,33,154.89
1776,F4,454.5,1.0,40,154.89
1777,F4,455.5,2.0,40,154.89
1778,G#3,455.5,1.0,33,154.89
1779,G#4,456.0,1.0,36,154.89
1780,E-4,456.0,1.0,36,154.89
1781,C4,456.0,1.0,36,154.89
1782,B-3,456.5,1.0,40,154.89
1783,G#4,457.0,1.0,36,154.89
1784,E-4,457.0,1.0,36,154.89
1785,C4,457.0,1.0,36,154.89
1786,C#4,457.5,1.0,36,154.89
1787,E-3,457.5,1.0,36,154.89
1788,A4,458.0,1.75,52,154.89
1789,G#3,458.5,0.5,37,154.89
1790,C4,458.5,0.5,37,154.89
1791,F#3,459.5,1.75,46,154.89
1792,D4,459.75,0.25,45,154.89
1793,E-4,460.0,0.75,50,154.89
1794,G#2,460.5,1.0,32,154.89
1795,F4,460.75,0.25,45,154.89
1796,C4,461.0,2.0,50,154.89
1797,F#4,461.0,2.0,50,154.89
1798,D3,461.25,0.25,43,154.89
1799,E-3,461.5,0.75,49,154.89
1800,G#2,461.5,1.0,32,154.89
1801,F3,462.25,0.25,42,154.89
1802,F#3,462.5,2.0,49,154.89
1803,G#2,463.5,1.0,32,154.89
1804,C4,464.0,1.0,50,154.89
1805,F#4,464.0,1.0,50,154.89
1806,G#2,464.5,1.0,32,154.89
1807,F#4,465.0,1.75,52,154.89
1808,E-3,465.5,1.75,46,154.89
1809,G#2,466.5,1.0,32,154.89
1810,B3,466.75,0.25,45,154.89
1811,C4,467.0,0.75,50,154.89
1812,B2,467.25,0.25,42,154.89
1813,C3,467.5,0.75,49,154.89
1814,G#2,467.5,1.0,32,154.89
1815,C#4,467.75,0.25,45,154.89
1816,E-4,468.0,2.0,51,154.89
1817,C#3,468.25,0.25,44,154.89
1818,E-3,468.5,2.0,48,154.89
1819,G#2,469.5,1.0,32,154.89
1820,F3,469.75,0.25,45,154.89
1821,E-4,470.0,1.0,51,154.89
1822,F#3,470.0,0.75,50,154.89
1823,G#2,470.5,2.0,32,154.89
1824,G#3,470.75,0.25,45,154.89
1825,A3,471.0,2.0,51,154.89
1826,A2,472.5,1.0,32,154.89
1827,D3,472.75,0.25,45,154.89
1828,E-3,473.0,0.75,50,154.89
1829,A3,473.0,1.0,51,154.89
1830,A2,473.5,2.0,32,154.89
1831,E3,473.75,0.25,45,154.89
1832,F#3,474.0,2.0,51,154.89
1833,B2,475.5,1.0,32,154.89
1834,C#3,475.75,0.25,45,154.89
1835,D3,476.0,0.75,50,154.89
1836,F#3,476.0,1.0,51,154.89
1837,B2,476.5,2.0,32,154.89
1838,E3,476.75,0.25,51,154.89
1839,F#3,477.0,1.0,55,154.89
1840,C3,478.5,1.0,32,154.89
1841,C3,479.5,1.5,32,154.89
1842,G3,480.0,0.25,40,154.89
1843,A3,480.25,0.25,32,154.89
1844,G3,480.5,0.25,34,154.89
1845,D3,480.75,0.25,34,154.89
1846,D4,481.0,0.188,40,154.89
1847,D3,481.0,0.5,43,154.89
1848,E3,481.5,0.5,49,154.89
1849,D3,481.75,0.188,40,154.89
1850,G3,481.75,0.188,40,154.89
1851,F#3,482.0,0.5,53,154.89
1852,C3,482.0,0.188,46,154.89
1853,F#3,482.0,0.188,46,154.89
1854,F#3,482.5,1.0,53,154.89
1855,C4,483.0,0.25,43,154.89
1856,D4,483.25,0.25,37,154.89
1857,C4,483.5,0.25,37,154.89
1858,G1,483.5,1.75,44,154.89
1859,A3,483.75,0.25,37,154.89
1860,A4,484.0,0.188,49,154.89
1861,C4,484.75,0.188,44,154.89
1862,D3,484.75,0.188,44,154.89
1863,B-3,485.0,0.188,48,154.89
1864,D3,485.0,0.188,48,154.89
1865,B-1,485.25,0.188,35,154.89
1866,A1,485.5,0.188,40,154.89
1867,G3,486.0,0.25,40,154.89
1868,A3,486.25,0.25,34,154.89
1869,G3,486.5,0.25,34,154.89
1870,D3,486.75,0.25,34,154.89
1871,G4,487.0,0.188,50,154.89
1872,F4,487.75,0.188,44,154.89
1873,G3,487.75,0.188,44,154.89
1874,E-4,488.0,0.188,47,154.89
1875,G3,488.0,0.188,47,154.89
1876,F#1,488.25,0.188,33,154.89
1877,G1,488.5,0.188,40,154.89
1878,D4,488.75,0.188,40,154.89
1879,G3,488.75,0.188,40,154.89
1880,C4,489.0,0.188,44,154.89
1881,G3,489.0,0.188,44,154.89
1882,B-3,489.75,0.188,50,154.89
1883,C#4,490.0,0.188,46,154.89
1884,A3,490.0,0.188,46,154.89
1885,G3,490.75,0.188,40,154.89
1886,D4,491.0,0.188,50,154.89
1887,F#3,491.0,0.188,50,154.89
1888,B-1,491.25,0.188,32,154.89
1889,C2,491.5,0.188,37,154.89
1890,D5,492.0,1.75,72,154.89
1891,D2,492.25,0.188,33,154.89
1892,E-2,492.5,0.188,38,154.89
1893,D4,493.0,1.0,61,154.89
1894,E-3,493.5,0.188,40,154.89
1895,C5,493.75,0.25,58,154.89
1896,B-4,494.0,0.188,65,154.89
1897,D4,494.0,1.0,61,154.89
1898,D2,494.5,0.188,45,154.89
1899,D3,494.5,0.188,45,154.89
1900,A4,494.75,0.188,55,154.89
1901,B-4,495.0,1.0,64,154.89
1902,G4,495.0,0.188,64,154.89
1903,F4,495.75,0.188,56,154.89
1904,E-4,496.0,0.188,64,154.89
1905,F#1,496.5,1.0,40,154.89
1906,D4,496.75,0.188,56,154.89
1907,C4,497.0,0.188,64,154.89
1908,G1,497.5,0.5,44,154.89
1909,F5,498.0,1.75,68,154.89
1910,G3,498.5,1.75,60,154.89
1911,F4,499.0,1.0,61,154.89
1912,E-5,499.75,0.25,58,154.89
1913,D5,500.0,0.188,65,154.89
1914,F4,500.0,1.0,61,154.89
1915,F3,500.25,0.25,51,154.89
1916,E-3,500.5,0.188,58,154.89
1917,C5,500.75,0.188,55,154.89
1918,B-4,501.0,0.188,64,154.89
1919,D5,501.0,1.0,64,154.89
1920,D3,501.25,0.188,51,154.89
1921,C3,501.5,0.188,57,154.89
1922,A4,501.75,0.188,56,154.89
1923,G4,502.0,0.188,64,154.89
1924,B-2,502.25,0.188,50,154.89
1925,A1,502.5,1.0,40,154.89
1926,F4,502.75,0.188,56,154.89
1927,E4,503.0,0.188,64,154.89
1928,B-1,503.5,0.5,44,154.89
1929,A5,504.0,1.75,70,154.89
1930,B-3,504.5,1.75,60,154.89
1931,A4,505.0,1.0,61,154.89
1932,G5,505.75,0.25,58,154.89
1933,F#5,506.0,0.188,65,154.89
1934,A4,506.0,1.0,61,154.89
1935,A3,506.25,0.25,51,154.89
1936,G3,506.5,0.188,58,154.89
1937,E-5,506.75,0.188,55,154.89
1938,D5,507.0,0.188,64,154.89
1939,F#5,507.0,1.0,64,154.89
1940,F3,507.25,0.188,51,154.89
1941,E3,507.5,0.188,57,154.89
1942,C5,507.75,0.188,56,154.89
1943,G5,508.0,0.188,64,154.89
1944,B-4,508.0,0.188,64,154.89
1945,D3,508.25,0.188,50,154.89
1946,C#2,508.5,1.0,40,154.89
1947,A4,508.75,0.188,56,154.89
1948,G4,509.0,0.188,64,154.89
1949,D2,509.5,0.5,44,154.89
1950,B-4,510.0,1.0,71,154.89
1951,D4,510.5,1.75,58,154.89
1952,A4,511.0,0.75,52,154.89
1953,C#5,511.0,1.0,62,154.89
1954,G4,511.75,0.25,58,154.89
1955,F#4,512.0,0.5,58,154.89
1956,D5,512.0,0.5,58,154.89
1957,C4,512.25,0.25,51,154.89
1958,B-3,512.5,0.188,58,154.89
1959,E-4,512.75,0.188,51,154.89
1960,D4,513.0,0.5,59,154.89
1961,F#4,513.0,1.0,59,154.89
1962,A3,513.25,0.188,51,154.89
1963,G3,513.5,0.188,57,154.89
1964,C4,513.75,0.188,49,154.89
1965,B-3,514.0,0.5,55,154.89
1966,G4,514.0,0.5,55,154.89
1967,F3,514.25,0.188,50,154.89
1968,E3,514.5,0.188,57,154.89
1969,A3,514.75,0.188,47,154.89
1970,G3,515.0,1.0,54,154.89
1971,E-3,515.25,0.188,50,154.89
1972,D3,515.5,0.5,58,154.89
1973,B-3,516.0,1.0,56,154.89
1974,D3,516.5,1.75,60,154.89
1975,C#4,517.0,1.0,47,154.89
1976,A3,517.0,0.5,47,154.89
1977,G3,517.5,0.5,38,154.89
1978,C3,518.25,0.25,43,154.89
1979,F#3,518.25,1.75,38,154.89
1980,D4,518.25,1.75,38,154.89
1981,B-2,518.5,0.75,53,154.89
1982,A2,519.25,0.25,49,154.89
1983,G2,519.5,0.5,48,154.89
1984,F2,520.0,0.5,42,154.89
1985,E2,520.5,0.5,41,154.89
1986,E-2,521.0,0.5,32,154.89
1987,D2,521.5,2.0,47,154.89
1988,A2,521.75,1.75,29,154.89
