,note_name,start_time,duration,velocity,tempo
0,D3,2.0,0.5,33,97.57
1,B-3,2.0,0.5,34,97.57
2,B-4,2.0,0.5,34,97.57
3,F3,2.5,0.5,33,97.57
4,C5,2.5,0.5,34,97.57
5,C4,2.5,0.5,34,97.57
6,B-3,3.0,0.5,34,97.57
7,B-2,3.0,2.0,28,97.57
8,D4,3.0,0.5,35,97.57
9,D5,3.0,0.5,35,97.57
10,D4,3.5,0.5,36,97.57
11,F4,3.5,0.5,40,97.57
12,F5,3.5,0.5,40,97.57
13,E-4,4.0,0.5,39,97.57
14,G5,4.0,0.5,45,97.57
15,G4,4.0,0.5,45,97.57
16,D4,4.5,62/125,44,97.57
17,F5,4.5,0.5,33,97.57
18,F4,4.5,0.5,33,97.57
19,B-3,5.0,62/125,42,97.57
20,D5,5.0,0.5,35,97.57
21,D4,5.0,0.5,35,97.57
22,F3,5.5,0.5,36,97.57
23,B-4,5.5,0.5,31,97.57
24,B-3,5.5,0.5,31,97.57
25,F2,5.75,0.25,43,97.57
26,F2,6.0,2.0,43,97.57
27,C4,6.0,2.0,31,97.57
28,F4,6.0,2.0,31,97.57
29,A3,6.0,2.0,31,97.57
30,E-3,6.0,2.0,28,97.57
31,F3,6.0,2.0,28,97.57
32,D3,8.0,0.5,39,97.57
33,B-3,8.0,0.5,36,97.57
34,B-4,8.0,0.5,36,97.57
35,F3,8.5,0.5,39,97.57
36,C5,8.5,0.5,36,97.57
37,C4,8.5,0.5,36,97.57
38,B-3,9.0,0.5,41,97.57
39,B-2,9.0,2.0,34,97.57
40,D5,9.0,0.5,38,97.57
41,D4,9.0,0.5,38,97.57
42,D4,9.5,0.5,43,97.57
43,F4,9.5,0.5,44,97.57
44,F5,9.5,0.5,44,97.57
45,E-4,10.0,0.5,46,97.57
46,G4,10.0,0.5,47,97.57
47,G5,10.0,0.5,47,97.57
48,D4,10.5,62/125,44,97.57
49,F5,10.5,0.5,36,97.57
50,F4,10.5,0.5,36,97.57
51,B-3,11.0,62/125,42,97.57
52,D4,11.0,0.5,38,97.57
53,D5,11.0,0.5,38,97.57
54,F3,11.5,0.5,36,97.57
55,B-3,11.5,0.5,34,97.57
56,B-4,11.5,0.5,34,97.57
57,F2,11.75,0.25,43,97.57
58,F2,12.0,2.0,43,97.57
59,C4,12.0,2.0,31,97.57
60,A3,12.0,2.0,31,97.57
61,F4,12.0,2.0,31,97.57
62,F3,12.0,2.0,31,97.57
63,E-3,12.0,2.0,31,97.57
64,D3,14.0,0.5,39,97.57
65,B-3,14.0,0.5,36,97.57
66,B-4,14.0,0.5,36,97.57
67,F3,14.5,0.5,39,97.57
68,C5,14.5,0.5,36,97.57
69,C4,14.5,0.5,36,97.57
70,D4,15.0,0.5,40,97.57
71,D5,15.0,2.75,44,97.57
72,B-2,15.0,2.0,34,97.57
73,B-3,15.0,0.5,41,97.57
74,F4,15.5,0.5,48,97.57
75,D4,15.5,0.5,43,97.57
76,G4,16.0,0.5,55,97.57
77,E-4,16.0,0.5,48,97.57
78,F4,16.5,0.5,47,97.57
79,D4,16.5,62/125,47,97.57
80,D4,17.0,0.5,50,97.57
81,B-3,17.0,62/125,46,97.57
82,B-3,17.5,0.5,40,97.57
83,F3,17.5,0.5,40,97.57
84,B-4,17.75,0.25,53,97.57
85,F5,18.0,1.75,58,97.57
86,F4,18.0,0.5,35,97.57
87,C3,18.0,2.0,39,97.57
88,A3,18.0,0.5,39,97.57
89,A4,18.5,0.5,41,97.57
90,C4,18.5,0.5,34,97.57
91,B-4,19.0,0.5,42,97.57
92,D4,19.0,0.5,40,97.57
93,A4,19.5,0.5,34,97.57
94,C4,19.5,0.5,33,97.57
95,E5,19.75,0.25,57,97.57
96,F4,20.0,0.5,32,97.57
97,D5,20.0,0.75,62,97.57
98,A3,20.0,0.5,37,97.57
99,C4,20.5,0.5,28,97.57
100,F3,20.5,0.5,31,97.57
101,C5,20.75,0.25,55,97.57
102,C2,20.75,0.25,32,97.57
103,B-3,21.0,0.5,34,97.57
104,C5,21.0,1.5,59,97.57
105,E-3,21.0,0.5,27,97.57
106,C4,21.5,0.5,37,97.57
107,E3,21.5,0.5,31,97.57
108,A4,22.0,0.5,39,97.57
109,C4,22.0,0.5,36,97.57
110,B-3,22.5,0.5,33,97.57
111,G4,22.5,0.5,35,97.57
112,B-4,22.5,0.5,35,97.57
113,A4,23.0,0.5,46,97.57
114,E4,23.0,333/1000,37,97.57
115,G3,23.0,333/1000,28,97.57
116,C4,23.333,333/1000,28,97.57
117,E3,23.333,333/1000,25,97.57
118,G4,23.5,0.5,41,97.57
119,B-3,23.667,333/1000,28,97.57
120,C#3,23.667,333/1000,25,97.57
121,G#3,24.0,177/500,29,97.57
122,F4,24.0,2.0,42,97.57
123,F2,24.0,2.0,36,97.57
124,B2,24.0,177/500,25,97.57
125,A3,24.333,177/500,27,97.57
126,C3,24.333,177/500,22,97.57
127,B-3,24.667,333/1000,27,97.57
128,D3,24.667,333/1000,22,97.57
129,A3,25.0,0.75,29,97.57
130,C3,25.0,0.75,27,97.57
131,D3,26.0,0.5,39,97.57
132,B-3,26.0,0.5,36,97.57
133,B-4,26.0,0.5,36,97.57
134,F3,26.5,0.5,39,97.57
135,C4,26.5,0.5,36,97.57
136,C5,26.5,0.5,36,97.57
137,B-2,27.0,2.0,34,97.57
138,B-3,27.0,0.5,41,97.57
139,D5,27.0,0.5,38,97.57
140,D4,27.0,0.5,38,97.57
141,D4,27.5,0.5,43,97.57
142,F5,27.5,0.5,43,97.57
143,F4,27.5,0.5,43,97.57
144,E-4,28.0,0.5,46,97.57
145,G4,28.0,0.5,47,97.57
146,G5,28.0,0.5,47,97.57
147,D4,28.5,62/125,44,97.57
148,F5,28.5,0.5,36,97.57
149,F4,28.5,0.5,36,97.57
150,B-3,29.0,62/125,42,97.57
151,D5,29.0,0.5,38,97.57
152,D4,29.0,0.5,38,97.57
153,F3,29.5,0.5,36,97.57
154,B-4,29.5,0.5,34,97.57
155,B-3,29.5,0.5,34,97.57
156,F2,29.75,0.25,43,97.57
157,F2,30.0,2.0,43,97.57
158,F4,30.0,2.0,31,97.57
159,A3,30.0,2.0,31,97.57
160,C4,30.0,2.0,31,97.57
161,F3,30.0,2.0,28,97.57
162,E-3,30.0,2.0,28,97.57
163,D3,32.0,0.5,39,97.57
164,B-4,32.0,0.5,36,97.57
165,B-3,32.0,0.5,36,97.57
166,F3,32.5,0.5,39,97.57
167,C4,32.5,0.5,36,97.57
168,C5,32.5,0.5,36,97.57
169,B-3,33.0,0.5,41,97.57
170,B-2,33.0,2.0,34,97.57
171,D5,33.0,0.5,38,97.57
172,D4,33.0,0.5,38,97.57
173,D4,33.5,0.5,43,97.57
174,F4,33.5,0.5,43,97.57
175,F5,33.5,0.5,43,97.57
176,E-4,34.0,0.5,46,97.57
177,G5,34.0,0.5,47,97.57
178,G4,34.0,0.5,47,97.57
179,D4,34.5,62/125,44,97.57
180,F4,34.5,0.5,36,97.57
181,F5,34.5,0.5,36,97.57
182,B-3,35.0,62/125,42,97.57
183,D4,35.0,0.5,38,97.57
184,D5,35.0,0.5,38,97.57
185,F3,35.5,0.5,36,97.57
186,B-4,35.5,0.5,34,97.57
187,B-3,35.5,0.5,34,97.57
188,F2,35.75,0.25,43,97.57
189,F2,36.0,2.0,43,97.57
190,F4,36.0,2.0,31,97.57
191,C4,36.0,2.0,31,97.57
192,A3,36.0,2.0,31,97.57
193,E-3,36.0,2.0,31,97.57
194,F3,36.0,2.0,31,97.57
195,D3,38.0,0.5,39,97.57
196,B-4,38.0,0.5,36,97.57
197,B-3,38.0,0.5,36,97.57
198,F3,38.5,0.5,39,97.57
199,C4,38.5,0.5,36,97.57
200,C5,38.5,0.5,36,97.57
201,D5,39.0,2.75,44,97.57
202,D4,39.0,0.5,31,97.57
203,B-3,39.0,0.5,34,97.57
204,B-2,39.0,2.0,34,97.57
205,F4,39.5,0.5,40,97.57
206,D4,39.5,0.5,36,97.57
207,G4,40.0,0.5,46,97.57
208,E-4,40.0,0.5,40,97.57
209,F4,40.5,0.5,39,97.57
210,D4,40.5,62/125,39,97.57
211,D4,41.0,0.5,42,97.57
212,B-3,41.0,62/125,39,97.57
213,B-3,41.5,0.5,34,97.57
214,F3,41.5,0.5,34,97.57
215,B-4,41.75,0.25,53,97.57
216,F5,42.0,1.75,58,97.57
217,F4,42.0,0.5,35,97.57
218,A3,42.0,0.5,39,97.57
219,C3,42.0,2.0,39,97.57
220,A4,42.5,0.5,41,97.57
221,C4,42.5,0.5,34,97.57
222,B-4,43.0,0.5,42,97.57
223,D4,43.0,0.5,40,97.57
224,A4,43.5,0.5,34,97.57
225,C4,43.5,0.5,33,97.57
226,E5,43.75,0.25,57,97.57
227,D5,44.0,0.75,62,97.57
228,F4,44.0,0.5,32,97.57
229,A3,44.0,0.5,37,97.57
230,C4,44.5,0.5,28,97.57
231,F3,44.5,0.5,31,97.57
232,C5,44.75,0.25,55,97.57
233,C2,44.75,0.25,32,97.57
234,C5,45.0,1.5,59,97.57
235,B-3,45.0,0.5,34,97.57
236,E-3,45.0,0.5,27,97.57
237,C4,45.5,0.5,37,97.57
238,E3,45.5,0.5,31,97.57
239,A4,46.0,0.5,39,97.57
240,C4,46.0,0.5,36,97.57
241,B-3,46.5,0.5,33,97.57
242,G4,46.5,0.5,35,97.57
243,B-4,46.5,0.5,35,97.57
244,E4,47.0,333/1000,37,97.57
245,A4,47.0,0.5,46,97.57
246,G3,47.0,333/1000,28,97.57
247,C4,47.333,333/1000,28,97.57
248,E3,47.333,333/1000,25,97.57
249,G4,47.5,0.5,41,97.57
250,B-3,47.667,333/1000,28,97.57
251,C#3,47.667,333/1000,25,97.57
252,G#3,48.0,177/500,29,97.57
253,F4,48.0,2.0,42,97.57
254,F2,48.0,2.0,36,97.57
255,B2,48.0,177/500,25,97.57
256,A3,48.333,177/500,27,97.57
257,C3,48.333,177/500,22,97.57
258,B-3,48.667,333/1000,27,97.57
259,D3,48.667,333/1000,22,97.57
260,A3,49.0,0.75,29,97.57
261,C3,49.0,0.75,27,97.57
262,B-2,50.0,0.5,39,97.57
263,C3,50.5,0.5,44,97.57
264,B-1,50.875,0.125,47,97.57
265,G#3,51.0,0.5,49,97.57
266,B-4,51.0,3.0,49,97.57
267,D3,51.0,2.0,52,97.57
268,B-3,51.5,0.5,41,97.57
269,G4,52.0,0.5,45,97.57
270,F4,52.5,0.5,37,97.57
271,C4,53.0,0.5,43,97.57
272,B-2,53.0,333/1000,39,97.57
273,C3,53.333,333/1000,44,97.57
274,B-3,53.5,0.5,37,97.57
275,D3,53.667,333/1000,48,97.57
276,C2,53.875,0.125,41,97.57
277,B-4,54.0,3.0,49,97.57
278,G#3,54.0,0.5,49,97.57
279,E-3,54.0,2.0,54,97.57
280,B-3,54.5,0.5,41,97.57
281,F4,55.0,0.5,49,97.57
282,E-4,55.5,0.5,38,97.57
283,C4,56.0,0.5,46,97.57
284,B-2,56.0,0.25,44,97.57
285,C3,56.25,0.25,47,97.57
286,B-3,56.5,0.5,38,97.57
287,D3,56.5,0.25,50,97.57
288,E-3,56.75,0.25,53,97.57
289,C#2,56.875,0.125,44,97.57
290,G#3,57.0,0.5,54,97.57
291,B-4,57.0,1.0,54,97.57
292,E3,57.0,1.0,63,97.57
293,E4,57.5,0.5,47,97.57
294,D2,57.875,0.125,40,97.57
295,B-4,58.0,1.0,57,97.57
296,G#3,58.0,0.5,57,97.57
297,F3,58.0,1.0,56,97.57
298,F4,58.5,0.5,52,97.57
299,G#3,59.0,0.5,59,97.57
300,B-4,59.0,1.0,59,97.57
301,D2,59.0,1.0,40,97.57
302,B-2,59.0,0.125,58,97.57
303,C3,59.125,0.125,47,97.57
304,B-2,59.25,0.125,57,97.57
305,C3,59.375,0.125,51,97.57
306,F#4,59.5,0.5,54,97.57
307,B-2,59.5,167/1000,52,97.57
308,A2,59.667,167/1000,58,97.57
309,B-2,59.833,167/1000,51,97.57
310,G#3,60.0,0.5,65,97.57
311,B-4,60.0,2.0,59,97.57
312,E-2,60.0,2.0,55,97.57
313,B-2,60.0,2.0,51,97.57
314,G#4,60.5,0.5,49,97.57
315,G3,61.0,0.5,54,97.57
316,G4,61.5,0.5,47,97.57
317,G3,62.0,1.0,50,97.57
318,E-5,62.0,0.5,46,97.57
319,E-4,62.0,0.5,46,97.57
320,B-3,62.5,0.5,44,97.57
321,F4,62.5,0.5,50,97.57
322,F5,62.5,0.5,50,97.57
323,G4,63.0,0.5,64,97.57
324,G5,63.0,2.0,64,97.57
325,E-4,63.0,0.5,50,97.57
326,E-3,63.0,2.0,42,97.57
327,E-5,63.5,0.5,50,97.57
328,G4,63.5,0.5,38,97.57
329,F5,64.0,0.5,54,97.57
330,G#4,64.0,0.5,43,97.57
331,E-5,64.5,0.375,50,97.57
332,G4,64.5,0.5,37,97.57
333,C5,64.875,0.625,52,97.57
334,F5,65.0,0.5,52,97.57
335,G3,65.0,1.0,35,97.57
336,E-4,65.0,0.5,42,97.57
337,C4,65.5,0.5,39,97.57
338,G4,65.5,0.5,45,97.57
339,E-5,65.5,0.5,45,97.57
340,D5,66.0,2.0,56,97.57
341,D4,66.0,0.5,56,97.57
342,B-3,66.0,0.5,44,97.57
343,G2,66.0,2.0,37,97.57
344,B-4,66.5,0.5,39,97.57
345,D4,66.5,0.5,32,97.57
346,C5,67.0,0.5,44,97.57
347,E-4,67.0,0.5,35,97.57
348,B-4,67.5,0.375,40,97.57
349,D4,67.5,0.5,30,97.57
350,G4,67.875,0.625,52,97.57
351,B-4,68.0,1.0,52,97.57
352,B-3,68.0,0.5,41,97.57
353,G3,68.0,0.5,41,97.57
354,D4,68.5,0.5,46,97.57
355,G3,68.5,0.5,36,97.57
356,G4,69.0,0.5,50,97.57
357,G5,69.0,1.5,59,97.57
358,E-4,69.0,0.5,42,97.57
359,C3,69.0,2.0,35,97.57
360,E-5,69.5,0.5,42,97.57
361,G4,69.5,0.5,32,97.57
362,F5,70.0,0.5,45,97.57
363,G#4,70.0,0.5,34,97.57
364,G4,70.5,0.5,38,97.57
365,E-5,70.5,0.5,48,97.57
366,G5,70.5,0.5,48,97.57
367,F5,71.0,0.75,54,97.57
368,C5,71.0,0.5,45,97.57
369,E-4,71.0,0.5,40,97.57
370,G3,71.0,1.0,40,97.57
371,G4,71.5,0.5,40,97.57
372,C4,71.5,0.5,36,97.57
373,E-5,71.75,0.25,52,97.57
374,D5,72.0,2.0,54,97.57
375,D4,72.0,0.5,54,97.57
376,G2,72.0,2.0,41,97.57
377,B-3,72.0,0.5,41,97.57
378,B-4,72.5,0.5,45,97.57
379,D4,72.5,0.5,34,97.57
380,C5,73.0,0.5,49,97.57
381,E-4,73.0,0.5,41,97.57
382,B-4,73.5,0.5,46,97.57
383,D4,73.5,0.5,37,97.57
384,G3,74.0,1.0,37,97.57
385,B-3,74.0,0.5,44,97.57
386,D4,74.0,0.5,40,97.57
387,G4,74.0,0.5,40,97.57
388,A3,74.5,0.5,44,97.57
389,A4,74.5,0.5,36,97.57
390,C4,74.5,0.5,36,97.57
391,C3,75.0,2.0,29,97.57
392,G3,75.0,0.5,35,97.57
393,B-3,75.0,0.5,46,97.57
394,B-4,75.0,0.5,46,97.57
395,F3,75.5,0.5,36,97.57
396,A4,75.5,0.5,42,97.57
397,C5,75.5,0.5,42,97.57
398,E3,76.0,0.5,38,97.57
399,D5,76.0,0.5,44,97.57
400,G4,76.0,0.5,44,97.57
401,D3,76.5,0.5,41,97.57
402,E5,76.5,0.5,46,97.57
403,F4,76.5,0.5,46,97.57
404,C3,77.0,0.5,43,97.57
405,C2,77.0,1.0,36,97.57
406,E4,77.0,0.5,48,97.57
407,F5,77.0,0.5,48,97.57
408,B-2,77.5,0.5,44,97.57
409,D5,77.5,0.5,50,97.57
410,G5,77.5,0.5,50,97.57
411,A2,78.0,0.5,47,97.57
412,C2,78.0,2.0,36,97.57
413,C5,78.0,0.5,52,97.57
414,A5,78.0,0.5,52,97.57
415,B-2,78.5,0.5,45,97.57
416,G5,78.5,0.5,50,97.57
417,E5,78.5,0.5,50,97.57
418,C3,79.0,0.5,42,97.57
419,F5,79.0,0.5,48,97.57
420,A4,79.0,0.5,48,97.57
421,D3,79.5,0.5,41,97.57
422,E5,79.5,0.5,46,97.57
423,C5,79.5,0.5,46,97.57
424,C2,80.0,1.0,32,97.57
425,E3,80.0,0.5,38,97.57
426,D5,80.0,0.5,43,97.57
427,G4,80.0,0.5,43,97.57
428,F3,80.5,0.5,37,97.57
429,A4,80.5,0.5,42,97.57
430,C5,80.5,0.5,42,97.57
431,C3,81.0,2.0,29,97.57
432,G3,81.0,0.5,35,97.57
433,E4,81.0,0.5,40,97.57
434,B-4,81.0,0.5,40,97.57
435,A3,81.5,0.5,35,97.57
436,F4,81.5,0.5,34,97.57
437,A4,81.5,0.5,34,97.57
438,B-3,82.0,0.5,36,97.57
439,G4,82.0,0.5,40,97.57
440,C#4,82.0,0.5,40,97.57
441,B3,82.5,0.5,33,97.57
442,D4,82.5,0.5,34,97.57
443,F4,82.5,0.5,34,97.57
444,C3,83.0,1.0,33,97.57
445,C4,83.0,0.5,39,97.57
446,A4,83.0,0.5,38,97.57
447,E-4,83.0,0.5,38,97.57
448,B-3,83.5,0.5,34,97.57
449,E4,83.5,0.5,34,97.57
450,G4,83.5,0.5,34,97.57
451,A3,84.0,0.5,35,97.57
452,C3,84.0,2.0,33,97.57
453,C4,84.0,0.5,35,97.57
454,F4,84.0,0.5,35,97.57
455,G#3,84.5,0.5,28,97.57
456,F#4,84.5,0.5,28,97.57
457,E-4,84.5,0.5,28,97.57
458,G3,85.0,0.25,28,97.57
459,G4,85.0,0.25,28,97.57
460,C4,85.0,0.25,28,97.57
461,F#3,85.25,0.25,25,97.57
462,E-4,85.25,0.25,24,97.57
463,G#4,85.25,0.25,24,97.57
464,F3,85.5,0.25,28,97.57
465,D4,85.5,0.25,28,97.57
466,A4,85.5,0.25,28,97.57
467,E-3,85.75,0.188,24,97.57
468,C4,85.75,0.188,24,97.57
469,F4,85.75,0.188,24,97.57
470,D3,86.0,1.0,35,97.57
471,B-4,86.0,0.5,32,97.57
472,B-3,86.0,0.5,32,97.57
473,F3,86.5,0.5,35,97.57
474,C4,86.5,0.5,32,97.57
475,C5,86.5,0.5,32,97.57
476,B-2,87.0,2.0,30,97.57
477,B-3,87.0,0.5,36,97.57
478,D5,87.0,0.5,34,97.57
479,D4,87.0,0.5,34,97.57
480,D4,87.5,0.5,38,97.57
481,F4,87.5,0.5,38,97.57
482,F5,87.5,0.5,38,97.57
483,E-4,88.0,0.5,41,97.57
484,G5,88.0,0.5,44,97.57
485,G4,88.0,0.5,44,97.57
486,D4,88.5,62/125,39,97.57
487,F5,88.5,0.5,32,97.57
488,F4,88.5,0.5,32,97.57
489,B-3,89.0,62/125,37,97.57
490,D4,89.0,0.5,34,97.57
491,D5,89.0,0.5,34,97.57
492,F3,89.5,0.5,32,97.57
493,B-4,89.5,0.5,30,97.57
494,B-3,89.5,0.5,30,97.57
495,F2,89.75,0.25,38,97.57
496,F2,90.0,2.0,38,97.57
497,A3,90.0,2.0,27,97.57
498,C4,90.0,2.0,27,97.57
499,F4,90.0,2.0,27,97.57
500,E-3,90.0,2.0,28,97.57
501,F3,90.0,2.0,28,97.57
502,D3,92.0,0.5,39,97.57
503,B-4,92.0,0.5,36,97.57
504,B-3,92.0,0.5,36,97.57
505,F3,92.5,0.5,39,97.57
506,C4,92.5,0.5,36,97.57
507,C5,92.5,0.5,36,97.57
508,B-3,93.0,0.5,41,97.57
509,B-2,93.0,2.0,74,97.57
510,D5,93.0,0.5,38,97.57
511,D4,93.0,0.5,38,97.57
512,D4,93.5,0.5,43,97.57
513,F5,93.5,0.5,43,97.57
514,F4,93.5,0.5,43,97.57
515,E-4,94.0,0.5,46,97.57
516,G4,94.0,0.5,46,97.57
517,G5,94.0,0.5,46,97.57
518,D4,94.5,62/125,44,97.57
519,F5,94.5,0.5,36,97.57
520,F4,94.5,0.5,36,97.57
521,D4,95.0,0.5,38,97.57
522,D5,95.0,0.5,38,97.57
523,B-2,95.0,62/125,56,97.57
524,B-3,95.0,62/125,56,97.57
525,B-4,95.5,0.5,34,97.57
526,B-3,95.5,0.5,34,97.57
527,F3,95.5,0.5,51,97.57
528,D3,95.5,0.5,51,97.57
529,F2,95.75,0.25,43,97.57
530,F2,96.0,0.5,43,97.57
531,A3,96.0,2.0,40,97.57
532,F4,96.0,2.0,40,97.57
533,C4,96.0,2.0,40,97.57
534,E-3,96.0,2.0,34,97.57
535,F3,96.0,2.0,34,97.57
536,G2,96.5,0.5,53,97.57
537,B-2,97.0,0.5,59,97.57
538,A2,97.5,0.5,54,97.57
539,B-3,98.0,0.5,35,97.57
540,B-4,98.0,0.5,35,97.57
541,D3,98.0,0.5,40,97.57
542,G#2,98.0,0.5,40,97.57
543,C4,98.5,0.5,36,97.57
544,C5,98.5,0.5,36,97.57
545,E-3,98.5,0.5,43,97.57
546,G2,98.5,0.5,43,97.57
547,F3,99.0,0.5,49,97.57
548,F2,99.0,0.875,41,97.57
549,D4,99.0,0.5,38,97.57
550,D5,99.0,0.5,38,97.57
551,G3,99.5,0.5,52,97.57
552,E-5,99.5,0.5,40,97.57
553,E-4,99.5,0.5,40,97.57
554,E-2,99.875,1.0,46,97.57
555,G#3,100.0,0.5,55,97.57
556,F4,100.0,0.5,44,97.57
557,F5,100.0,0.5,44,97.57
558,B-3,100.5,0.5,55,97.57
559,F#5,100.5,0.5,46,97.57
560,F#4,100.5,0.5,46,97.57
561,D2,100.875,1.125,47,97.57
562,B3,101.0,0.5,57,97.57
563,G5,101.0,0.5,51,97.57
564,G4,101.0,0.5,51,97.57
565,G3,101.5,0.5,58,97.57
566,F5,101.5,0.5,43,97.57
567,F4,101.5,0.5,43,97.57
568,E4,102.0,0.5,42,97.57
569,E5,102.0,0.5,42,97.57
570,C2,102.0,0.5,42,97.57
571,C4,102.0,0.5,42,97.57
572,D4,102.5,0.5,40,97.57
573,D5,102.5,0.5,40,97.57
574,G2,102.5,0.5,40,97.57
575,G3,102.5,0.5,40,97.57
576,C4,103.0,0.5,36,97.57
577,C5,103.0,0.5,36,97.57
578,C3,103.0,0.5,38,97.57
579,E3,103.0,0.5,38,97.57
580,D4,103.5,0.5,35,97.57
581,D5,103.5,0.5,35,97.57
582,F3,103.5,0.5,37,97.57
583,B2,103.5,0.5,37,97.57
584,C4,104.0,0.5,34,97.57
585,C5,104.0,0.5,34,97.57
586,E3,104.0,0.5,36,97.57
587,B-2,104.0,0.5,36,97.57
588,D4,104.5,0.5,31,97.57
589,D5,104.5,0.5,31,97.57
590,F3,104.5,0.5,35,97.57
591,A2,104.5,0.5,35,97.57
592,G2,105.0,0.875,40,97.57
593,G3,105.0,0.5,48,97.57
594,E4,105.0,0.5,40,97.57
595,E5,105.0,0.5,40,97.57
596,A3,105.5,0.5,51,97.57
597,F4,105.5,0.5,42,97.57
598,F5,105.5,0.5,42,97.57
599,F2,105.875,1.0,45,97.57
600,B-3,106.0,0.5,54,97.57
601,F#5,106.0,0.5,46,97.57
602,F#4,106.0,0.5,46,97.57
603,B3,106.5,0.5,54,97.57
604,G5,106.5,0.5,48,97.57
605,G4,106.5,0.5,48,97.57
606,E2,106.875,1.125,47,97.57
607,C4,107.0,0.5,54,97.57
608,A5,107.0,0.5,52,97.57
609,A4,107.0,0.5,52,97.57
610,B-3,107.5,0.5,58,97.57
611,G5,107.5,0.5,46,97.57
612,G4,107.5,0.5,46,97.57
613,F4,108.0,0.5,46,97.57
614,F5,108.0,0.5,46,97.57
615,A3,108.0,0.5,46,97.57
616,F2,108.0,0.5,46,97.57
617,E-5,108.5,0.5,42,97.57
618,E-4,108.5,0.5,42,97.57
619,G3,108.5,0.5,44,97.57
620,G2,108.5,0.5,44,97.57
621,D5,109.0,0.5,40,97.57
622,D4,109.0,0.5,40,97.57
623,G#2,109.0,0.5,42,97.57
624,F3,109.0,0.5,42,97.57
625,C5,109.5,0.5,38,97.57
626,C4,109.5,0.5,38,97.57
627,A2,109.5,0.5,40,97.57
628,E-3,109.5,0.5,40,97.57
629,B-2,110.0,1.0,28,97.57
630,D3,110.0,0.5,37,97.57
631,B-4,110.0,0.5,38,97.57
632,B-3,110.0,0.5,38,97.57
633,F3,110.5,0.5,40,97.57
634,C4,110.5,0.5,33,97.57
635,C5,110.5,0.5,33,97.57
636,D4,111.0,0.5,39,97.57
637,D5,111.0,2.0,47,97.57
638,B-3,111.0,0.5,43,97.57
639,B-1,111.0,1.0,46,97.57
640,C5,111.5,0.5,50,97.57
641,A3,111.5,0.5,39,97.57
642,B-4,112.0,0.5,49,97.57
643,G3,112.0,0.5,39,97.57
644,A4,112.5,0.5,44,97.57
645,F3,112.5,0.5,39,97.57
646,E-3,113.0,0.5,39,97.57
647,B-2,113.0,1.0,42,97.57
648,G4,113.0,0.5,46,97.57
649,E-5,113.0,0.5,46,97.57
650,D3,113.5,0.5,44,97.57
651,F4,113.5,0.5,50,97.57
652,F5,113.5,0.5,50,97.57
653,E-4,114.0,0.5,47,97.57
654,G5,114.0,1.5,61,97.57
655,C3,114.0,0.5,48,97.57
656,B-1,114.0,1.0,52,97.57
657,F4,114.5,0.5,43,97.57
658,D3,114.5,0.5,39,97.57
659,G4,115.0,0.5,47,97.57
660,E-3,115.0,0.5,39,97.57
661,F3,115.5,0.5,36,97.57
662,F5,115.5,0.5,46,97.57
663,A4,115.5,0.5,46,97.57
664,B-2,116.0,1.0,42,97.57
665,G3,116.0,0.5,39,97.57
666,E-5,116.0,0.5,44,97.57
667,B-4,116.0,0.5,44,97.57
668,G#3,116.5,0.5,44,97.57
669,B4,116.5,0.5,42,97.57
670,D5,116.5,0.5,42,97.57
671,C5,117.0,0.875,52,97.57
672,B-1,117.0,1.0,42,97.57
673,A3,117.0,0.5,39,97.57
674,B-4,117.5,0.25,47,97.57
675,G3,117.5,0.5,39,97.57
676,C5,117.75,0.25,43,97.57
677,D5,117.875,0.125,43,97.57
678,F3,118.0,0.5,41,97.57
679,C5,118.0,0.5,41,97.57
680,A4,118.0,0.5,41,97.57
681,E-3,118.5,0.5,39,97.57
682,D5,118.5,0.5,39,97.57
683,G4,118.5,0.5,39,97.57
684,F4,119.0,0.5,35,97.57
685,E-5,119.0,1.0,54,97.57
686,B-2,119.0,1.0,48,97.57
687,D3,119.0,0.5,44,97.57
688,E-4,119.5,0.5,39,97.57
689,C3,119.5,0.5,38,97.57
690,D4,120.0,0.5,45,97.57
691,F5,120.0,1.5,59,97.57
692,B-2,120.0,0.5,46,97.57
693,B-1,120.0,1.0,50,97.57
694,E-4,120.5,0.5,47,97.57
695,C3,120.5,0.5,35,97.57
696,F4,121.0,0.5,47,97.57
697,D3,121.0,0.5,39,97.57
698,E-3,121.5,0.5,35,97.57
699,G4,121.5,0.5,40,97.57
700,E-5,121.5,0.5,40,97.57
701,B-2,122.0,1.0,42,97.57
702,E3,122.0,0.5,39,97.57
703,D5,122.0,0.5,39,97.57
704,G#4,122.0,0.5,39,97.57
705,F3,122.5,0.5,35,97.57
706,C5,122.5,0.5,38,97.57
707,A4,122.5,0.5,38,97.57
708,B-4,123.0,0.875,47,97.57
709,B-1,123.0,1.0,42,97.57
710,G3,123.0,0.5,39,97.57
711,A4,123.5,0.25,39,97.57
712,F3,123.5,0.5,34,97.57
713,B-4,123.75,0.25,38,97.57
714,C5,123.875,0.125,37,97.57
715,E-3,124.0,0.5,39,97.57
716,B-4,124.0,0.5,36,97.57
717,G4,124.0,0.5,36,97.57
718,D3,124.5,0.5,34,97.57
719,C5,124.5,0.5,37,97.57
720,F4,124.5,0.5,37,97.57
721,B-2,124.875,0.625,33,97.57
722,E-4,125.0,0.5,35,97.57
723,D5,125.0,1.0,50,97.57
724,C3,125.0,0.5,39,97.57
725,D4,125.5,0.5,31,97.57
726,B-2,125.5,0.5,45,97.57
727,E-5,126.0,0.5,40,97.57
728,C4,126.0,0.5,40,97.57
729,A2,126.0,0.5,40,97.57
730,B-1,126.0,0.5,40,97.57
731,B-2,126.5,2.5,38,97.57
732,D4,126.5,0.5,40,97.57
733,D5,126.5,0.5,40,97.57
734,C3,127.0,0.5,36,97.57
735,E-4,127.0,0.5,38,97.57
736,C5,127.0,0.5,38,97.57
737,C#3,127.5,0.5,35,97.57
738,E4,127.5,0.5,38,97.57
739,B-4,127.5,0.5,38,97.57
740,D3,128.0,0.5,38,97.57
741,F4,128.0,0.5,37,97.57
742,A4,128.0,0.5,37,97.57
743,E-3,128.5,0.5,34,97.57
744,E-4,128.5,0.5,35,97.57
745,G4,128.5,0.5,35,97.57
746,F3,129.0,0.5,35,97.57
747,B-2,129.0,2.0,38,97.57
748,D4,129.0,0.5,32,97.57
749,F4,129.0,0.5,32,97.57
750,G3,129.5,0.5,33,97.57
751,C4,129.5,0.5,32,97.57
752,E-4,129.5,0.5,32,97.57
753,A3,129.875,0.125,40,97.57
754,B-3,130.0,0.5,31,97.57
755,D4,130.0,0.5,31,97.57
756,A3,130.5,0.5,30,97.57
757,C4,130.5,0.5,30,97.57
758,G3,131.008,0.25,28,97.57
759,B-3,131.008,0.25,28,97.57
760,D4,131.25,0.25,36,97.57
761,A3,131.25,0.25,24,97.57
762,F3,131.25,0.25,24,97.57
763,E-4,131.5,0.25,31,97.57
764,E-3,131.5,0.25,26,97.57
765,G3,131.5,0.25,26,97.57
766,F4,131.75,0.25,34,97.57
767,D3,131.75,0.25,26,97.57
768,F3,131.75,0.25,26,97.57
769,C3,132.0,3.0,32,97.57
770,E-3,132.0,3.0,32,97.57
771,B-3,132.0,2.0,32,97.57
772,F#4,132.0,2.0,32,97.57
773,F4,134.0,1.0,31,97.57
774,A3,134.0,1.0,31,97.57
775,B-1,134.875,0.125,33,97.57
776,D3,135.0,2.0,40,97.57
777,B-1,135.0,2.0,33,97.57
778,F4,135.0,2.0,31,97.57
779,F3,135.0,2.0,31,97.57
780,B-3,135.0,2.0,31,97.57
781,C5,137.5,0.5,56,97.57
782,A4,137.5,0.5,56,97.57
783,F5,137.5,0.5,56,97.57
784,F4,137.75,0.25,58,97.57
785,D5,138.0,0.25,75,97.57
786,B-4,138.0,0.125,65,97.57
787,D4,138.25,0.125,49,97.57
788,D5,138.5,0.5,69,97.57
789,B-4,138.5,1.0,49,97.57
790,G4,138.5,0.125,60,97.57
791,F4,138.75,0.125,49,97.57
792,C5,139.0,0.25,78,97.57
793,E4,139.0,0.125,65,97.57
794,C4,139.25,0.125,55,97.57
795,C5,139.5,0.5,69,97.57
796,A4,139.5,0.5,49,97.57
797,F4,139.5,0.125,74,97.57
798,A3,139.75,0.125,65,97.57
799,A4,140.0,0.5,49,97.57
800,D4,140.0,0.125,78,97.57
801,B-4,140.0,0.5,60,97.57
802,F4,140.0,0.5,60,97.57
803,G3,140.25,0.125,56,97.57
804,C4,140.5,0.125,75,97.57
805,E4,140.5,0.5,59,97.57
806,G4,140.5,0.5,59,97.57
807,B-3,140.75,0.125,53,97.57
808,C5,141.0,0.5,72,97.57
809,E-4,141.0,0.125,69,97.57
810,A3,141.0,0.5,72,97.57
811,E-4,141.25,0.125,63,97.57
812,B-4,141.5,0.5,49,97.57
813,E-5,141.5,0.5,69,97.57
814,G3,141.5,0.5,83,97.57
815,D4,141.75,0.125,62,97.57
816,D5,142.0,0.25,75,97.57
817,B-4,142.0,0.5,49,97.57
818,G3,142.0,0.5,83,97.57
819,A3,142.25,0.125,60,97.57
820,D4,142.5,0.125,54,97.57
821,A4,142.5,0.5,69,97.57
822,F#3,142.5,0.5,73,97.57
823,C4,142.75,0.125,60,97.57
824,G3,143.0,0.25,83,97.57
825,B-3,143.0,0.25,64,97.57
826,B-4,143.0,0.25,64,97.57
827,C3,143.25,0.125,69,97.57
828,F4,143.5,0.5,49,97.57
829,F3,143.5,0.125,77,97.57
830,C4,143.5,0.5,56,97.57
831,A4,143.5,0.5,56,97.57
832,A2,143.75,0.125,64,97.57
833,F4,144.0,0.5,49,97.57
834,B-2,144.0,0.125,71,97.57
835,G4,144.0,0.5,62,97.57
836,D4,144.0,0.5,62,97.57
837,G2,144.25,0.125,60,97.57
838,C3,144.5,0.125,69,97.57
839,C4,144.5,0.5,59,97.57
840,E4,144.5,0.5,59,97.57
841,B-2,144.75,0.125,56,97.57
842,F4,145.0,0.25,69,97.57
843,A2,145.0,0.25,69,97.57
844,A4,145.25,0.125,58,97.57
845,F5,145.5,0.5,75,97.57
846,C5,145.5,0.125,58,97.57
847,F2,145.5,0.5,84,97.57
848,F1,145.5,0.5,84,97.57
849,F4,145.75,0.125,58,97.57
850,B-4,146.0,0.125,65,97.57
851,D5,146.0,0.25,79,97.57
852,F2,146.0,0.5,84,97.57
853,F1,146.0,0.5,84,97.57
854,D4,146.25,0.125,57,97.57
855,D5,146.5,0.5,72,97.57
856,B-4,146.5,1.0,49,97.57
857,G4,146.5,0.125,60,97.57
858,F4,146.75,0.125,58,97.57
859,C5,147.0,0.25,79,97.57
860,E4,147.0,0.125,65,97.57
861,C4,147.25,0.125,55,97.57
862,C5,147.5,0.5,69,97.57
863,A4,147.5,0.5,49,97.57
864,F4,147.5,0.125,74,97.57
865,A3,147.75,0.125,58,97.57
866,A4,148.0,0.5,49,97.57
867,D4,148.0,0.125,73,97.57
868,F4,148.0,0.5,56,97.57
869,B-4,148.0,0.5,56,97.57
870,G3,148.25,0.125,56,97.57
871,C4,148.5,0.125,75,97.57
872,E4,148.5,0.5,59,97.57
873,G4,148.5,0.5,59,97.57
874,B-3,148.75,0.125,52,97.57
875,C5,149.0,0.5,72,97.57
876,E-4,149.0,0.125,69,97.57
877,A3,149.0,0.5,72,97.57
878,E-4,149.25,0.125,63,97.57
879,B-4,149.5,0.5,47,97.57
880,E-5,149.5,0.5,66,97.57
881,G3,149.5,0.5,80,97.57
882,D4,149.75,0.125,59,97.57
883,D5,150.0,0.25,71,97.57
884,B-4,150.0,0.5,47,97.57
885,G3,150.0,0.5,80,97.57
886,A3,150.25,0.125,57,97.57
887,D4,150.5,0.125,50,97.57
888,A4,150.5,0.5,64,97.57
889,F#3,150.5,0.5,64,97.57
890,C4,150.75,0.125,56,97.57
891,G3,151.0,0.25,78,97.57
892,B-4,151.0,0.25,60,97.57
893,B-3,151.0,0.25,60,97.57
894,C3,151.25,0.125,63,97.57
895,F4,151.5,0.5,45,97.57
896,F3,151.5,0.125,70,97.57
897,C4,151.5,0.5,50,97.57
898,A4,151.5,0.5,50,97.57
899,A2,151.75,0.125,58,97.57
900,F4,152.0,0.5,45,97.57
901,B-2,152.0,0.125,64,97.57
902,G4,152.0,0.5,56,97.57
903,D4,152.0,0.5,56,97.57
904,G2,152.25,0.125,58,97.57
905,C4,152.5,0.75,44,97.57
906,E4,152.5,0.5,61,97.57
907,C3,152.5,0.125,61,97.57
908,B-2,152.75,0.125,56,97.57
909,F4,153.0,0.25,60,97.57
910,A2,153.0,0.25,60,97.57
911,A3,153.25,0.125,44,97.57
912,C4,153.5,0.125,53,97.57
913,F4,153.5,0.5,53,97.57
914,F2,153.5,0.5,43,97.57
915,F1,153.5,0.5,43,97.57
916,F3,153.75,0.125,47,97.57
917,A3,154.0,0.125,43,97.57
918,C4,154.0,0.5,51,97.57
919,F2,154.0,0.5,43,97.57
920,F1,154.0,0.5,43,97.57
921,C3,154.25,0.125,46,97.57
922,D4,154.5,0.5,51,97.57
923,B-3,154.5,0.125,43,97.57
924,G#3,154.75,0.125,45,97.57
925,B-3,155.0,0.125,43,97.57
926,E-4,155.0,0.5,51,97.57
927,F#3,155.25,0.125,43,97.57
928,B-3,155.5,0.125,51,97.57
929,E-4,155.5,0.5,61,97.57
930,F#2,155.5,0.5,56,97.57
931,F#1,155.5,0.5,39,97.57
932,E-3,155.75,0.125,48,97.57
933,F#3,156.0,0.125,47,97.57
934,B-3,156.0,0.5,56,97.57
935,F#2,156.0,0.5,56,97.57
936,F#1,156.0,1.0,39,97.57
937,B-2,156.25,0.125,49,97.57
938,F3,156.5,0.125,46,97.57
939,C4,156.5,0.5,57,97.57
940,G#2,156.5,0.5,46,97.57
941,E-3,156.75,0.125,48,97.57
942,C#4,157.0,0.5,56,97.57
943,C#3,157.0,0.125,45,97.57
944,F1,157.0,0.5,44,97.57
945,F2,157.0,0.5,44,97.57
946,G#3,157.25,0.125,48,97.57
947,B-3,157.5,0.125,54,97.57
948,E-4,157.5,0.5,64,97.57
949,F#2,157.5,0.5,56,97.57
950,F#1,157.5,0.5,39,97.57
951,E-3,157.75,0.125,51,97.57
952,F#3,158.0,0.125,48,97.57
953,B-3,158.0,0.5,57,97.57
954,F#2,158.0,0.5,56,97.57
955,F#1,158.0,1.0,39,97.57
956,B-2,158.25,0.125,51,97.57
957,C4,158.5,0.5,55,97.57
958,F3,158.5,0.125,46,97.57
959,G#2,158.5,0.5,49,97.57
960,E-3,158.75,0.125,51,97.57
961,C#3,159.0,0.125,49,97.57
962,C#4,159.0,0.125,49,97.57
963,F1,159.0,0.5,48,97.57
964,F2,159.0,0.5,48,97.57
965,C#3,159.25,0.25,51,97.57
966,B-3,159.5,0.25,57,97.57
967,F#1,159.5,0.5,44,97.57
968,F#2,159.5,0.5,44,97.57
969,E-3,159.75,0.25,51,97.57
970,E-4,160.0,0.25,59,97.57
971,G1,160.0,0.5,52,97.57
972,G2,160.0,0.5,52,97.57
973,C3,160.25,0.25,52,97.57
974,C4,160.5,0.25,61,97.57
975,G#1,160.5,0.5,44,97.57
976,G#2,160.5,0.5,44,97.57
977,F3,160.75,0.25,57,97.57
978,F4,161.0,0.25,64,97.57
979,A2,161.0,0.5,52,97.57
980,A1,161.0,0.5,52,97.57
981,D3,161.25,0.25,57,97.57
982,D4,161.5,0.25,68,97.57
983,B-2,161.5,0.5,54,97.57
984,B-1,161.5,0.5,54,97.57
985,G3,161.75,0.25,63,97.57
986,G4,162.0,0.25,71,97.57
987,B1,162.0,0.5,56,97.57
988,B2,162.0,0.5,56,97.57
989,C4,162.25,0.25,64,97.57
990,C5,162.5,0.25,76,97.57
991,C3,162.5,0.5,54,97.57
992,C2,162.5,0.5,54,97.57
993,F4,162.75,0.25,71,97.57
994,F5,163.0,0.25,80,97.57
995,F2,163.0,1.0,62,97.57
996,F1,163.0,1.0,62,97.57
997,A4,163.25,0.125,58,97.57
998,F5,163.5,0.5,75,97.57
999,C5,163.5,0.125,58,97.57
1000,F4,163.75,0.125,58,97.57
1001,B-4,164.0,0.125,65,97.57
1002,D5,164.0,0.25,79,97.57
1003,F2,164.25,0.25,62,97.57
1004,F1,164.25,0.25,62,97.57
1005,D5,164.5,0.5,72,97.57
1006,B-4,164.5,1.0,49,97.57
1007,D4,164.5,0.125,52,97.57
1008,G4,164.75,0.125,60,97.57
1009,C5,165.0,0.25,79,97.57
1010,F4,165.0,0.125,51,97.57
1011,E4,165.25,0.125,65,97.57
1012,A4,165.5,0.5,49,97.57
1013,C5,165.5,0.5,69,97.57
1014,C4,165.5,0.125,51,97.57
1015,F4,165.75,0.125,74,97.57
1016,A4,166.0,0.5,49,97.57
1017,A3,166.0,0.125,65,97.57
1018,B-4,166.0,0.5,58,97.57
1019,F4,166.0,0.5,58,97.57
1020,D4,166.25,0.125,74,97.57
1021,G3,166.5,0.125,59,97.57
1022,G4,166.5,0.5,59,97.57
1023,E4,166.5,0.5,59,97.57
1024,C4,166.75,0.125,75,97.57
1025,C5,167.0,0.5,72,97.57
1026,E-4,167.0,0.125,69,97.57
1027,B-3,167.0,0.125,55,97.57
1028,E-4,167.25,0.125,63,97.57
1029,A3,167.25,0.5,72,97.57
1030,B-4,167.5,0.5,46,97.57
1031,E-5,167.5,0.5,65,97.57
1032,D4,167.75,0.125,58,97.57
1033,G3,167.75,0.5,78,97.57
1034,D5,168.0,0.25,70,97.57
1035,B-4,168.0,0.5,46,97.57
1036,A3,168.25,0.125,55,97.57
1037,G3,168.25,0.5,78,97.57
1038,D4,168.5,0.125,52,97.57
1039,A4,168.5,0.5,64,97.57
1040,C4,168.75,0.125,55,97.57
1041,F#3,168.75,0.5,67,97.57
1042,B-3,169.0,0.25,58,97.57
1043,B-4,169.0,0.25,58,97.57
1044,G3,169.25,0.25,75,97.57
1045,F4,169.5,0.5,38,97.57
1046,C3,169.5,0.125,62,97.57
1047,C4,169.5,0.5,49,97.57
1048,A4,169.5,0.5,49,97.57
1049,F3,169.75,0.125,69,97.57
1050,F4,170.0,0.5,38,97.57
1051,A2,170.0,0.125,56,97.57
1052,D4,170.0,0.5,58,97.57
1053,G4,170.0,0.5,58,97.57
1054,B-2,170.25,0.125,63,97.57
1055,E4,170.5,0.5,60,97.57
1056,C4,170.5,0.75,42,97.57
1057,G2,170.5,0.125,57,97.57
1058,C3,170.75,0.125,60,97.57
1059,F4,171.0,0.25,59,97.57
1060,B-2,171.0,0.125,54,97.57
1061,A3,171.25,0.125,47,97.57
1062,A2,171.25,0.25,59,97.57
1063,F4,171.5,0.5,53,97.57
1064,C4,171.5,0.125,53,97.57
1065,F3,171.75,0.125,47,97.57
1066,F1,171.75,0.5,43,97.57
1067,F2,171.75,0.5,43,97.57
1068,C4,172.0,0.5,51,97.57
1069,A3,172.0,0.125,43,97.57
1070,C3,172.25,0.125,46,97.57
1071,F1,172.25,1.0,43,97.57
1072,F2,172.25,1.0,43,97.57
1073,D4,172.5,0.5,51,97.57
1074,B-3,172.5,0.125,43,97.57
1075,G#3,172.75,0.125,45,97.57
1076,E-4,173.0,0.5,51,97.57
1077,B-3,173.0,0.125,43,97.57
1078,F#3,173.25,0.125,46,97.57
1079,B-3,173.5,0.125,51,97.57
1080,E-4,173.5,0.5,61,97.57
1081,E-3,173.75,0.125,48,97.57
1082,F#1,173.75,0.5,39,97.57
1083,F#2,173.75,0.5,56,97.57
1084,B-3,174.0,0.5,56,97.57
1085,F#3,174.0,0.125,47,97.57
1086,B-2,174.25,0.125,49,97.57
1087,F#1,174.25,1.0,39,97.57
1088,F#2,174.25,0.5,56,97.57
1089,C4,174.5,0.5,57,97.57
1090,F3,174.5,0.125,48,97.57
1091,E-3,174.75,0.125,48,97.57
1092,G#2,174.75,0.5,46,97.57
1093,C#3,175.0,0.125,47,97.57
1094,C#4,175.0,0.5,56,97.57
1095,G#3,175.25,0.125,48,97.57
1096,F2,175.25,0.5,44,97.57
1097,F1,175.25,0.5,44,97.57
1098,E-4,175.5,0.5,64,97.57
1099,B-3,175.5,0.125,54,97.57
1100,E-3,175.75,0.125,51,97.57
1101,F#2,175.75,0.5,56,97.57
1102,F#1,175.75,0.5,39,97.57
1103,B-3,176.0,0.5,57,97.57
1104,F#3,176.0,0.125,48,97.57
1105,B-2,176.25,0.125,51,97.57
1106,F#2,176.25,0.5,56,97.57
1107,F#1,176.25,1.0,39,97.57
1108,F3,176.5,0.125,46,97.57
1109,C4,176.5,0.5,55,97.57
1110,E-3,176.75,0.125,51,97.57
1111,G#2,176.75,0.5,49,97.57
1112,C#3,177.0,0.125,52,97.57
1113,C#4,177.0,0.125,52,97.57
1114,C#3,177.25,0.25,51,97.57
1115,F2,177.25,0.5,48,97.57
1116,F1,177.25,0.5,48,97.57
1117,B-3,177.5,0.25,57,97.57
1118,E-3,177.75,0.25,51,97.57
1119,F#1,177.75,0.5,49,97.57
1120,F#2,177.75,0.5,49,97.57
1121,E-4,178.0,0.25,59,97.57
1122,C3,178.25,0.25,53,97.57
1123,G2,178.25,0.5,52,97.57
1124,G1,178.25,0.5,52,97.57
1125,C4,178.5,0.25,61,97.57
1126,F3,178.75,0.25,57,97.57
1127,G#2,178.75,0.5,46,97.57
1128,G#1,178.75,0.5,46,97.57
1129,F4,179.0,0.25,64,97.57
1130,D3,179.25,0.25,57,97.57
1131,A1,179.25,0.5,52,97.57
1132,A2,179.25,0.5,52,97.57
1133,D4,179.5,0.25,67,97.57
1134,G3,179.75,0.25,63,97.57
1135,B-2,179.75,0.5,48,97.57
1136,B-1,179.75,0.5,48,97.57
1137,G4,180.0,0.25,70,97.57
1138,C4,180.25,0.25,63,97.57
1139,B1,180.25,0.5,56,97.57
1140,B2,180.25,0.5,56,97.57
1141,C5,180.5,0.25,75,97.57
1142,F4,180.75,0.25,70,97.57
1143,C3,180.75,0.5,52,97.57
1144,C2,180.75,0.5,52,97.57
1145,F5,181.0,0.25,78,97.57
1146,A4,181.25,0.125,51,97.57
1147,F1,181.25,1.0,60,97.57
1148,F2,181.25,1.0,60,97.57
1149,C5,181.5,0.125,58,97.57
1150,F5,181.5,0.5,75,97.57
1151,F4,181.75,0.125,58,97.57
1152,B-4,182.0,0.125,65,97.57
1153,D5,182.0,0.25,79,97.57
1154,B-4,182.5,1.0,49,97.57
1155,D5,182.5,0.5,72,97.57
1156,F1,182.5,0.25,60,97.57
1157,F2,182.5,0.25,60,97.57
1158,D4,182.75,0.125,57,97.57
1159,C5,183.0,0.25,79,97.57
1160,G4,183.0,0.125,60,97.57
1161,F4,183.25,0.125,51,97.57
1162,A4,183.5,0.5,49,97.57
1163,C5,183.5,0.5,69,97.57
1164,E4,183.5,0.125,65,97.57
1165,C4,183.75,0.125,52,97.57
1166,A4,184.0,0.5,49,97.57
1167,F4,184.0,0.125,74,97.57
1168,F4,184.0,0.5,58,97.57
1169,B-4,184.0,0.5,58,97.57
1170,A3,184.25,0.125,60,97.57
1171,D4,184.5,0.125,71,97.57
1172,G4,184.5,0.5,59,97.57
1173,E4,184.5,0.5,59,97.57
1174,G3,184.75,0.125,66,97.57
1175,C5,185.0,0.5,72,97.57
1176,E-4,185.0,0.125,69,97.57
1177,C4,185.0,0.125,75,97.57
1178,E-4,185.25,0.125,63,97.57
1179,B-3,185.25,0.125,60,97.57
1180,E-5,185.5,0.5,65,97.57
1181,B-4,185.5,0.5,55,97.57
1182,A3,185.5,0.5,72,97.57
1183,D4,185.75,0.125,58,97.57
1184,D5,186.0,0.25,70,97.57
1185,B-4,186.0,0.5,55,97.57
1186,G3,186.0,0.5,78,97.57
1187,A3,186.25,0.125,56,97.57
1188,D4,186.5,0.125,53,97.57
1189,A4,186.5,0.5,64,97.57
1190,G3,186.5,0.5,78,97.57
1191,C4,186.75,0.125,55,97.57
1192,F#3,187.0,0.5,67,97.57
1193,B-3,187.0,0.25,64,97.57
1194,B-4,187.0,0.25,64,97.57
1195,F4,187.5,0.5,44,97.57
1196,G3,187.5,0.25,76,97.57
1197,A4,187.5,0.5,53,97.57
1198,C4,187.5,0.5,53,97.57
1199,C3,187.75,0.125,62,97.57
1200,F4,188.0,0.5,44,97.57
1201,F3,188.0,0.125,69,97.57
1202,D4,188.0,0.5,54,97.57
1203,G4,188.0,0.5,54,97.57
1204,A2,188.25,0.125,57,97.57
1205,E4,188.5,0.5,60,97.57
1206,C4,188.5,1.0,43,97.57
1207,B-2,188.5,0.125,63,97.57
1208,G2,188.75,0.125,49,97.57
1209,F4,189.0,0.5,60,97.57
1210,C3,189.0,0.125,54,97.57
1211,B-2,189.25,0.125,33,97.57
1212,F3,189.5,0.25,42,97.57
1213,A2,189.5,0.5,42,97.57
1214,B-4,189.5,0.5,36,97.57
1215,B-3,189.5,0.5,36,97.57
1216,E-3,189.75,0.25,46,97.57
1217,B-2,190.0,1.0,39,97.57
1218,D3,190.0,0.5,39,97.57
1219,C5,190.0,0.5,36,97.57
1220,C4,190.0,0.5,36,97.57
1221,F3,190.5,0.5,39,97.57
1222,D5,190.5,0.5,38,97.57
1223,D4,190.5,0.5,38,97.57
1224,B-3,191.0,0.5,41,97.57
1225,B-2,191.0,2.0,39,97.57
1226,F5,191.0,0.5,44,97.57
1227,F4,191.0,0.5,44,97.57
1228,D4,191.5,0.5,43,97.57
1229,G4,191.5,0.5,47,97.57
1230,G5,191.5,0.5,47,97.57
1231,E-4,192.0,0.5,46,97.57
1232,F4,192.0,0.5,36,97.57
1233,F5,192.0,0.5,36,97.57
1234,D4,192.5,62/125,44,97.57
1235,D4,192.5,0.5,38,97.57
1236,D5,192.5,0.5,38,97.57
1237,B-3,193.0,62/125,42,97.57
1238,B-4,193.0,0.5,34,97.57
1239,B-3,193.0,0.5,34,97.57
1240,F3,193.5,0.5,36,97.57
1241,F4,193.5,2.0,31,97.57
1242,A3,193.5,2.0,31,97.57
1243,C4,193.5,2.0,31,97.57
1244,F2,193.75,0.25,43,97.57
1245,F2,194.0,2.0,43,97.57
1246,F3,194.0,2.0,31,97.57
1247,E-3,194.0,2.0,31,97.57
1248,B-4,195.5,0.5,36,97.57
1249,B-3,195.5,0.5,36,97.57
1250,D3,196.0,0.5,39,97.57
1251,C4,196.0,0.5,36,97.57
1252,C5,196.0,0.5,36,97.57
1253,F3,196.5,0.5,39,97.57
1254,D5,196.5,0.5,38,97.57
1255,D4,196.5,0.5,38,97.57
1256,B-2,197.0,2.0,34,97.57
1257,B-3,197.0,0.5,41,97.57
1258,F4,197.0,0.5,42,97.57
1259,F5,197.0,0.5,42,97.57
1260,D4,197.5,0.5,43,97.57
1261,G5,197.5,0.5,46,97.57
1262,G4,197.5,0.5,46,97.57
1263,E-4,198.0,0.5,46,97.57
1264,F4,198.0,0.5,36,97.57
1265,F5,198.0,0.5,36,97.57
1266,D4,198.5,62/125,44,97.57
1267,D5,198.5,0.5,38,97.57
1268,D4,198.5,0.5,38,97.57
1269,B-3,199.0,62/125,42,97.57
1270,B-3,199.0,0.5,34,97.57
1271,B-4,199.0,0.5,34,97.57
1272,F3,199.5,0.5,36,97.57
1273,A3,199.5,2.0,31,97.57
1274,F4,199.5,2.0,31,97.57
1275,C4,199.5,2.0,31,97.57
1276,F2,199.75,0.25,43,97.57
1277,F2,200.0,2.0,43,97.57
1278,F3,200.0,2.0,31,97.57
1279,E-3,200.0,2.0,31,97.57
1280,B-4,201.5,0.5,36,97.57
1281,B-3,201.5,0.5,36,97.57
1282,D3,202.0,0.5,39,97.57
1283,C4,202.0,0.5,36,97.57
1284,C5,202.0,0.5,36,97.57
1285,D5,202.5,2.75,44,97.57
1286,D4,202.5,0.5,37,97.57
1287,F3,202.5,0.5,39,97.57
1288,F4,203.0,0.5,44,97.57
1289,B-3,203.0,0.5,41,97.57
1290,B-2,203.0,2.0,34,97.57
1291,G4,203.5,0.5,51,97.57
1292,D4,203.5,0.5,36,97.57
1293,F4,204.0,0.5,43,97.57
1294,E-4,204.0,0.5,40,97.57
1295,D4,204.5,0.5,46,97.57
1296,D4,204.5,62/125,39,97.57
1297,B-3,205.0,0.5,40,97.57
1298,B-3,205.0,62/125,39,97.57
1299,B-4,205.25,0.25,53,97.57
1300,F4,205.5,0.5,42,97.57
1301,F5,205.5,1.75,58,97.57
1302,F3,205.5,0.5,40,97.57
1303,A4,206.0,0.5,45,97.57
1304,A3,206.0,0.5,47,97.57
1305,C3,206.0,2.0,39,97.57
1306,B-4,206.5,0.5,47,97.57
1307,C4,206.5,0.5,34,97.57
1308,A4,207.0,0.5,37,97.57
1309,D4,207.0,0.5,40,97.57
1310,E5,207.25,0.25,57,97.57
1311,D5,207.5,0.75,62,97.57
1312,F4,207.5,0.5,38,97.57
1313,C4,207.5,0.5,33,97.57
1314,C4,208.0,0.5,33,97.57
1315,A3,208.0,0.5,37,97.57
1316,C5,208.25,0.25,55,97.57
1317,B-3,208.5,0.5,40,97.57
1318,C5,208.5,1.5,59,97.57
1319,F3,208.5,0.5,31,97.57
1320,C2,208.75,0.25,32,97.57
1321,C4,209.0,0.5,37,97.57
1322,E-3,209.0,0.5,32,97.57
1323,A4,209.5,0.5,39,97.57
1324,E3,209.5,0.5,31,97.57
1325,C4,210.0,0.5,36,97.57
1326,G4,210.0,0.5,35,97.57
1327,B-4,210.0,0.5,35,97.57
1328,A4,210.5,0.5,46,97.57
1329,E4,210.5,333/1000,31,97.57
1330,B-3,210.5,0.5,33,97.57
1331,C4,210.833,333/1000,28,97.57
1332,G4,211.0,0.5,41,97.57
1333,G3,211.0,333/1000,28,97.57
1334,B-3,211.167,333/1000,28,97.57
1335,E3,211.333,333/1000,25,97.57
1336,F4,211.5,2.0,42,97.57
1337,G#3,211.5,177/500,29,97.57
1338,C#3,211.667,333/1000,25,97.57
1339,A3,211.833,177/500,27,97.57
1340,F2,212.0,2.0,36,97.57
1341,B2,212.0,177/500,25,97.57
1342,B-3,212.167,333/1000,27,97.57
1343,C3,212.333,177/500,22,97.57
1344,A3,212.5,0.75,29,97.57
1345,D3,212.667,333/1000,22,97.57
1346,C3,213.0,0.75,27,97.57
1347,B-2,214.0,0.5,39,97.57
1348,G#3,214.5,0.5,49,97.57
1349,B-4,214.5,3.0,49,97.57
1350,C3,214.5,0.5,44,97.57
1351,B-1,214.875,0.125,47,97.57
1352,B-3,215.0,0.5,41,97.57
1353,D3,215.0,2.0,52,97.57
1354,G4,215.5,0.5,45,97.57
1355,F4,216.0,0.5,37,97.57
1356,C4,216.5,0.5,43,97.57
1357,B-3,217.0,0.5,37,97.57
1358,B-2,217.0,333/1000,39,97.57
1359,C3,217.333,333/1000,44,97.57
1360,G#3,217.5,0.5,49,97.57
1361,B-4,217.5,3.0,49,97.57
1362,D3,217.667,333/1000,48,97.57
1363,C2,217.875,0.125,41,97.57
1364,B-3,218.0,0.5,41,97.57
1365,E-3,218.0,2.0,54,97.57
1366,F4,218.5,0.5,49,97.57
1367,E-4,219.0,0.5,38,97.57
1368,C4,219.5,0.5,46,97.57
1369,B-3,220.0,0.5,38,97.57
1370,B-2,220.0,0.25,44,97.57
1371,C3,220.25,0.25,47,97.57
1372,B-4,220.5,1.0,54,97.57
1373,G#3,220.5,0.5,54,97.57
1374,D3,220.5,0.25,50,97.57
1375,E-3,220.75,0.25,53,97.57
1376,C#2,220.875,0.125,44,97.57
1377,E4,221.0,0.5,47,97.57
1378,E3,221.0,1.0,63,97.57
1379,G#3,221.5,0.5,57,97.57
1380,B-4,221.5,1.0,57,97.57
1381,D2,221.875,0.125,39,97.57
1382,F4,222.0,0.5,52,97.57
1383,F3,222.0,1.0,56,97.57
1384,G#3,222.5,0.5,59,97.57
1385,B-4,222.5,1.0,59,97.57
1386,F#4,223.0,0.5,54,97.57
1387,B-2,223.0,0.125,58,97.57
1388,D2,223.0,1.0,42,97.57
1389,C3,223.125,0.125,47,97.57
1390,B-2,223.25,0.125,57,97.57
1391,C3,223.375,0.125,51,97.57
1392,G#3,223.5,0.5,65,97.57
1393,B-4,223.5,2.0,59,97.57
1394,B-2,223.5,167/1000,52,97.57
1395,A2,223.667,167/1000,58,97.57
1396,B-2,223.833,167/1000,51,97.57
1397,G#4,224.0,0.5,50,97.57
1398,E-2,224.0,2.0,55,97.57
1399,B-2,224.0,2.0,51,97.57
1400,G3,224.5,0.5,54,97.57
1401,G4,225.0,0.5,47,97.57
1402,E-4,225.5,0.5,46,97.57
1403,E-5,225.5,0.5,46,97.57
1404,G3,226.0,1.0,50,97.57
1405,F5,226.0,0.5,50,97.57
1406,F4,226.0,0.5,50,97.57
1407,G5,226.5,2.0,64,97.57
1408,G4,226.5,0.5,64,97.57
1409,B-3,226.5,0.5,44,97.57
1410,E-5,227.0,0.5,45,97.57
1411,E-4,227.0,0.5,50,97.57
1412,E-3,227.0,2.0,42,97.57
1413,F5,227.5,0.5,48,97.57
1414,G4,227.5,0.5,34,97.57
1415,E-5,228.0,0.375,45,97.57
1416,G#4,228.0,0.5,38,97.57
1417,C5,228.375,0.625,52,97.57
1418,F5,228.5,0.5,52,97.57
1419,G4,228.5,0.5,33,97.57
1420,G3,229.0,1.0,35,97.57
1421,E-4,229.0,0.5,42,97.57
1422,E-5,229.0,0.5,45,97.57
1423,G4,229.0,0.5,45,97.57
1424,D5,229.5,2.0,56,97.57
1425,D4,229.5,0.5,56,97.57
1426,C4,229.5,0.5,39,97.57
1427,B-4,230.0,0.5,42,97.57
1428,B-3,230.0,0.5,44,97.57
1429,G2,230.0,2.0,37,97.57
1430,C5,230.5,0.5,46,97.57
1431,D4,230.5,0.5,34,97.57
1432,B-4,231.0,0.375,43,97.57
1433,E-4,231.0,0.5,37,97.57
1434,G4,231.375,0.625,52,97.57
1435,B-4,231.5,1.0,52,97.57
1436,D4,231.5,0.5,32,97.57
1437,D4,232.0,0.5,46,97.57
1438,B-3,232.0,0.5,41,97.57
1439,G3,232.0,0.5,41,97.57
1440,G5,232.5,1.5,59,97.57
1441,G4,232.5,0.5,50,97.57
1442,G3,232.5,0.5,36,97.57
1443,E-5,233.0,0.5,45,97.57
1444,E-4,233.0,0.5,42,97.57
1445,C3,233.0,2.0,35,97.57
1446,F5,233.5,0.5,48,97.57
1447,G4,233.5,0.5,34,97.57
1448,G#4,234.0,0.5,36,97.57
1449,G5,234.0,0.5,46,97.57
1450,E-5,234.0,0.5,46,97.57
1451,F5,234.5,0.75,54,97.57
1452,C5,234.5,0.5,45,97.57
1453,G4,234.5,0.5,34,97.57
1454,G4,235.0,0.5,48,97.57
1455,G3,235.0,1.0,40,97.57
1456,E-4,235.0,0.5,40,97.57
1457,E-5,235.25,0.25,52,97.57
1458,D4,235.5,0.5,54,97.57
1459,D5,235.5,2.0,54,97.57
1460,C4,235.5,0.5,36,97.57
1461,B-4,236.0,0.5,45,97.57
1462,B-3,236.0,0.5,41,97.57
1463,G2,236.0,2.0,41,97.57
1464,C5,236.5,0.5,49,97.57
1465,D4,236.5,0.5,34,97.57
1466,B-4,237.0,0.5,46,97.57
1467,E-4,237.0,0.5,41,97.57
1468,D4,237.5,0.5,37,97.57
1469,D4,237.5,0.5,40,97.57
1470,G4,237.5,0.5,40,97.57
1471,G3,238.0,1.0,37,97.57
1472,B-3,238.0,0.5,44,97.57
1473,C4,238.0,0.5,36,97.57
1474,A4,238.0,0.5,36,97.57
1475,A3,238.5,0.5,44,97.57
1476,B-3,238.5,0.5,40,97.57
1477,B-4,238.5,0.5,40,97.57
1478,C3,239.0,2.0,29,97.57
1479,G3,239.0,0.5,35,97.57
1480,A4,239.0,0.5,41,97.57
1481,C5,239.0,0.5,41,97.57
1482,F3,239.5,0.5,36,97.57
1483,G4,239.5,0.5,44,97.57
1484,D5,239.5,0.5,44,97.57
1485,E3,240.0,0.5,38,97.57
1486,E5,240.0,0.5,46,97.57
1487,F4,240.0,0.5,46,97.57
1488,D3,240.5,0.5,41,97.57
1489,F5,240.5,0.5,48,97.57
1490,E4,240.5,0.5,48,97.57
1491,C2,241.0,1.0,37,97.57
1492,C3,241.0,0.5,44,97.57
1493,G5,241.0,0.5,50,97.57
1494,D5,241.0,0.5,50,97.57
1495,B-2,241.5,0.5,45,97.57
1496,A5,241.5,0.5,52,97.57
1497,C5,241.5,0.5,52,97.57
1498,A2,242.0,0.5,47,97.57
1499,C2,242.0,2.0,37,97.57
1500,E5,242.0,0.5,50,97.57
1501,G5,242.0,0.5,50,97.57
1502,B-2,242.5,0.5,45,97.57
1503,A4,242.5,0.5,48,97.57
1504,F5,242.5,0.5,48,97.57
1505,C3,243.0,0.5,42,97.57
1506,C5,243.0,0.5,46,97.57
1507,E5,243.0,0.5,46,97.57
1508,D3,243.5,0.5,41,97.57
1509,D5,243.5,0.5,43,97.57
1510,G4,243.5,0.5,43,97.57
1511,C2,244.0,1.0,32,97.57
1512,E3,244.0,0.5,38,97.57
1513,C5,244.0,0.5,42,97.57
1514,A4,244.0,0.5,42,97.57
1515,F3,244.5,0.5,37,97.57
1516,B-4,244.5,0.5,40,97.57
1517,E4,244.5,0.5,40,97.57
1518,C3,245.0,2.0,29,97.57
1519,G3,245.0,0.5,35,97.57
1520,A4,245.0,0.5,34,97.57
1521,F4,245.0,0.5,34,97.57
1522,A3,245.5,0.5,35,97.57
1523,C#4,245.5,0.5,40,97.57
1524,G4,245.5,0.5,40,97.57
1525,B-3,246.0,0.5,36,97.57
1526,D4,246.0,0.5,34,97.57
1527,F4,246.0,0.5,34,97.57
1528,B3,246.5,0.5,33,97.57
1529,A4,246.5,0.5,38,97.57
1530,E-4,246.5,0.5,38,97.57
1531,C4,247.0,0.5,39,97.57
1532,C3,247.0,1.0,33,97.57
1533,G4,247.0,0.5,34,97.57
1534,E4,247.0,0.5,34,97.57
1535,B-3,247.5,0.5,34,97.57
1536,C4,247.5,0.5,37,97.57
1537,F4,247.5,0.5,37,97.57
1538,A3,248.0,0.5,35,97.57
1539,C3,248.0,2.0,33,97.57
1540,E-4,248.0,0.5,28,97.57
1541,F#4,248.0,0.5,28,97.57
1542,G#3,248.5,0.5,28,97.57
1543,G4,248.5,0.25,28,97.57
1544,C4,248.5,0.25,28,97.57
1545,E-4,248.75,0.25,24,97.57
1546,G#4,248.75,0.25,24,97.57
1547,G3,249.0,0.25,28,97.57
1548,D4,249.0,0.25,28,97.57
1549,A4,249.0,0.25,28,97.57
1550,F#3,249.25,0.25,25,97.57
1551,C4,249.25,0.188,24,97.57
1552,F4,249.25,0.188,24,97.57
1553,F3,249.5,0.25,28,97.57
1554,B-3,249.5,0.5,32,97.57
1555,B-4,249.5,0.5,32,97.57
1556,E-3,249.75,0.188,24,97.57
1557,D3,250.0,1.0,35,97.57
1558,C5,250.0,0.5,32,97.57
1559,C4,250.0,0.5,32,97.57
1560,F3,250.5,0.5,35,97.57
1561,D4,250.5,0.5,34,97.57
1562,D5,250.5,0.5,34,97.57
1563,B-3,251.0,0.5,36,97.57
1564,B-2,251.0,2.0,30,97.57
1565,F5,251.0,0.5,39,97.57
1566,F4,251.0,0.5,39,97.57
1567,D4,251.5,0.5,38,97.57
1568,G5,251.5,0.5,43,97.57
1569,G4,251.5,0.5,43,97.57
1570,E-4,252.0,0.5,41,97.57
1571,F5,252.0,0.5,32,97.57
1572,F4,252.0,0.5,32,97.57
1573,D4,252.5,62/125,39,97.57
1574,D4,252.5,0.5,34,97.57
1575,D5,252.5,0.5,34,97.57
1576,B-3,253.0,62/125,37,97.57
1577,B-4,253.0,0.5,30,97.57
1578,B-3,253.0,0.5,30,97.57
1579,F3,253.5,0.5,32,97.57
1580,A3,253.5,2.0,27,97.57
1581,C4,253.5,2.0,27,97.57
1582,F4,253.5,2.0,27,97.57
1583,F2,253.75,0.25,38,97.57
1584,F2,254.0,2.0,38,97.57
1585,E-3,254.0,2.0,28,97.57
1586,F3,254.0,2.0,28,97.57
1587,B-3,255.5,0.5,36,97.57
1588,B-4,255.5,0.5,36,97.57
1589,D3,256.0,0.5,39,97.57
1590,C4,256.0,0.5,36,97.57
1591,C5,256.0,0.5,36,97.57
1592,F3,256.5,0.5,39,97.57
1593,D5,256.5,0.5,38,97.57
1594,D4,256.5,0.5,38,97.57
1595,B-3,257.0,0.5,41,97.57
1596,B-2,257.0,2.0,74,97.57
1597,F4,257.0,0.5,44,97.57
1598,F5,257.0,0.5,44,97.57
1599,D4,257.5,0.5,43,97.57
1600,G4,257.5,0.5,46,97.57
1601,G5,257.5,0.5,46,97.57
1602,E-4,258.0,0.5,46,97.57
1603,F5,258.0,0.5,36,97.57
1604,F4,258.0,0.5,36,97.57
1605,D4,258.5,62/125,44,97.57
1606,D5,258.5,0.5,38,97.57
1607,D4,258.5,0.5,38,97.57
1608,B-3,259.0,0.5,34,97.57
1609,B-4,259.0,0.5,34,97.57
1610,B-2,259.0,62/125,56,97.57
1611,B-3,259.0,62/125,56,97.57
1612,C4,259.5,2.0,35,97.57
1613,A3,259.5,2.0,35,97.57
1614,F4,259.5,2.0,35,97.57
1615,D3,259.5,0.5,51,97.57
1616,F3,259.5,0.5,51,97.57
1617,F2,259.75,0.25,43,97.57
1618,F2,260.0,0.5,43,97.57
1619,F3,260.0,2.0,36,97.57
1620,E-3,260.0,2.0,36,97.57
1621,G2,260.5,0.5,53,97.57
1622,B-2,261.0,0.5,59,97.57
1623,A2,261.5,0.5,54,97.57
1624,B-4,261.5,0.5,40,97.57
1625,B-3,261.5,0.5,40,97.57
1626,C5,262.0,0.5,42,97.57
1627,C4,262.0,0.5,42,97.57
1628,G#2,262.0,0.5,38,97.57
1629,D3,262.0,0.5,38,97.57
1630,D5,262.5,0.5,44,97.57
1631,D4,262.5,0.5,44,97.57
1632,E-3,262.5,0.5,40,97.57
1633,G2,262.5,0.5,40,97.57
1634,F2,263.0,0.875,34,97.57
1635,F3,263.0,0.5,48,97.57
1636,E-4,263.0,0.5,45,97.57
1637,E-5,263.0,0.5,45,97.57
1638,G3,263.5,0.5,51,97.57
1639,F5,263.5,0.5,48,97.57
1640,F4,263.5,0.5,48,97.57
1641,E-2,263.875,1.0,45,97.57
1642,G#3,264.0,0.5,54,97.57
1643,F#5,264.0,0.5,52,97.57
1644,F#4,264.0,0.5,52,97.57
1645,B-3,264.5,0.5,55,97.57
1646,G5,264.5,0.5,58,97.57
1647,G4,264.5,0.5,58,97.57
1648,D2,264.875,1.125,44,97.57
1649,B3,265.0,0.5,57,97.57
1650,F5,265.0,0.5,48,97.57
1651,F4,265.0,0.5,48,97.57
1652,G3,265.5,0.5,58,97.57
1653,E4,265.5,0.5,47,97.57
1654,E5,265.5,0.5,47,97.57
1655,D5,266.0,0.5,45,97.57
1656,D4,266.0,0.5,45,97.57
1657,C2,266.0,0.5,47,97.57
1658,C4,266.0,0.5,47,97.57
1659,C4,266.5,0.5,42,97.57
1660,C5,266.5,0.5,42,97.57
1661,G3,266.5,0.5,46,97.57
1662,G2,266.5,0.5,46,97.57
1663,D5,267.0,0.5,40,97.57
1664,D4,267.0,0.5,40,97.57
1665,E3,267.0,0.5,44,97.57
1666,C3,267.0,0.5,44,97.57
1667,C5,267.5,0.5,38,97.57
1668,C4,267.5,0.5,38,97.57
1669,F3,267.5,0.5,42,97.57
1670,B2,267.5,0.5,42,97.57
1671,D4,268.0,0.5,36,97.57
1672,D5,268.0,0.5,36,97.57
1673,B-2,268.0,0.5,42,97.57
1674,E3,268.0,0.5,42,97.57
1675,E5,268.5,0.5,44,97.57
1676,E4,268.5,0.5,44,97.57
1677,F3,268.5,0.5,40,97.57
1678,A2,268.5,0.5,40,97.57
1679,G2,269.0,0.875,34,97.57
1680,G3,269.0,0.5,48,97.57
1681,F4,269.0,0.5,44,97.57
1682,F5,269.0,0.5,44,97.57
1683,A3,269.5,0.5,50,97.57
1684,F#4,269.5,0.5,48,97.57
1685,F#5,269.5,0.5,48,97.57
1686,F2,269.875,1.0,44,97.57
1687,B-3,270.0,0.5,53,97.57
1688,G4,270.0,0.5,50,97.57
1689,G5,270.0,0.5,50,97.57
1690,B3,270.5,0.5,52,97.57
1691,A5,270.5,0.5,54,97.57
1692,A4,270.5,0.5,54,97.57
1693,E2,270.875,1.125,45,97.57
1694,C4,271.0,0.5,52,97.57
1695,G5,271.0,0.5,47,97.57
1696,G4,271.0,0.5,47,97.57
1697,B-3,271.5,0.5,56,97.57
1698,F5,271.5,0.5,47,97.57
1699,F4,271.5,0.5,47,97.57
1700,E-4,272.0,0.5,45,97.57
1701,E-5,272.0,0.5,45,97.57
1702,F2,272.0,0.5,47,97.57
1703,A3,272.0,0.5,47,97.57
1704,D4,272.5,0.5,42,97.57
1705,D5,272.5,0.5,42,97.57
1706,G2,272.5,0.5,46,97.57
1707,G3,272.5,0.5,46,97.57
1708,C4,273.0,0.5,40,97.57
1709,C5,273.0,0.5,40,97.57
1710,G#2,273.0,0.5,44,97.57
1711,F3,273.0,0.5,44,97.57
1712,B-4,273.5,0.5,40,97.57
1713,B-3,273.5,0.5,40,97.57
1714,E-3,273.5,0.5,42,97.57
1715,A2,273.5,0.5,42,97.57
1716,D3,274.0,0.5,37,97.57
1717,B-2,274.0,1.0,34,97.57
1718,C4,274.0,0.5,36,97.57
1719,C5,274.0,0.5,36,97.57
1720,D4,274.5,0.5,39,97.57
1721,D5,274.5,2.0,47,97.57
1722,F3,274.5,0.5,40,97.57
1723,C5,275.0,0.5,52,97.57
1724,B-1,275.0,1.0,46,97.57
1725,B-3,275.0,0.5,43,97.57
1726,B-4,275.5,0.5,49,97.57
1727,A3,275.5,0.5,39,97.57
1728,A4,276.0,0.5,44,97.57
1729,G3,276.0,0.5,39,97.57
1730,F3,276.5,0.5,39,97.57
1731,E-5,276.5,0.5,42,97.57
1732,G4,276.5,0.5,42,97.57
1733,E-3,277.0,0.5,39,97.57
1734,B-2,277.0,1.0,42,97.57
1735,F5,277.0,0.5,44,97.57
1736,F4,277.0,0.5,44,97.57
1737,E-4,277.5,0.5,47,97.57
1738,G5,277.5,1.5,56,97.57
1739,D3,277.5,0.5,44,97.57
1740,F4,278.0,0.5,43,97.57
1741,B-1,278.0,1.0,52,97.57
1742,C3,278.0,0.5,48,97.57
1743,G4,278.5,0.5,47,97.57
1744,D3,278.5,0.5,39,97.57
1745,E-3,279.0,0.5,39,97.57
1746,F5,279.0,0.5,46,97.57
1747,A4,279.0,0.5,46,97.57
1748,F3,279.5,0.5,36,97.57
1749,B-4,279.5,0.5,44,97.57
1750,E-5,279.5,0.5,44,97.57
1751,B-2,280.0,1.0,42,97.57
1752,G3,280.0,0.5,39,97.57
1753,D5,280.0,0.5,42,97.57
1754,B4,280.0,0.5,42,97.57
1755,C5,280.5,1.0,52,97.57
1756,G#3,280.5,0.5,44,97.57
1757,B-4,281.0,0.5,49,97.57
1758,A3,281.0,0.5,39,97.57
1759,B-1,281.0,1.0,42,97.57
1760,G3,281.5,0.5,39,97.57
1761,C5,281.5,0.5,41,97.57
1762,A4,281.5,0.5,41,97.57
1763,F3,282.0,0.5,41,97.57
1764,D5,282.0,0.5,40,97.57
1765,G4,282.0,0.5,40,97.57
1766,E-5,282.5,1.0,50,97.57
1767,F4,282.5,0.5,42,97.57
1768,E-3,282.5,0.5,39,97.57
1769,E-4,283.0,0.5,47,97.57
1770,B-2,283.0,1.0,48,97.57
1771,D3,283.0,0.5,44,97.57
1772,F5,283.5,1.5,54,97.57
1773,D4,283.5,0.5,45,97.57
1774,C3,283.5,0.5,38,97.57
1775,E-4,284.0,0.5,47,97.57
1776,B-2,284.0,0.5,46,97.57
1777,B-1,284.0,1.0,50,97.57
1778,F4,284.5,0.5,47,97.57
1779,C3,284.5,0.5,35,97.57
1780,D3,285.0,0.5,39,97.57
1781,G4,285.0,0.5,40,97.57
1782,E-5,285.0,0.5,40,97.57
1783,E-3,285.5,0.5,35,97.57
1784,G#4,285.5,0.5,40,97.57
1785,D5,285.5,0.5,40,97.57
1786,B-2,286.0,1.0,42,97.57
1787,E3,286.0,0.5,39,97.57
1788,A4,286.0,0.5,38,97.57
1789,C5,286.0,0.5,38,97.57
1790,B-4,286.5,0.875,47,97.57
1791,F3,286.5,0.5,35,97.57
1792,A4,287.0,0.25,39,97.57
1793,G3,287.0,0.5,39,97.57
1794,B-1,287.0,1.0,42,97.57
1795,B-4,287.25,0.25,38,97.57
1796,C5,287.375,0.125,37,97.57
1797,F3,287.5,0.5,34,97.57
1798,G4,287.5,0.5,38,97.57
1799,B-4,287.5,0.5,38,97.57
1800,E-3,288.0,0.5,39,97.57
1801,F4,288.0,0.5,38,97.57
1802,C5,288.0,0.5,38,97.57
1803,E-4,288.5,0.5,50,97.57
1804,D5,288.5,1.0,51,97.57
1805,D3,288.5,0.5,34,97.57
1806,B-2,288.875,0.625,33,97.57
1807,D4,289.0,0.5,44,97.57
1808,C3,289.0,0.5,39,97.57
1809,B-2,289.5,0.5,45,97.57
1810,C4,289.5,0.5,40,97.57
1811,E-5,289.5,0.5,40,97.57
1812,D5,290.0,0.5,40,97.57
1813,D4,290.0,0.5,40,97.57
1814,A2,290.0,0.5,40,97.57
1815,B-1,290.0,0.5,40,97.57
1816,B-2,290.5,2.5,38,97.57
1817,E-4,290.5,0.5,38,97.57
1818,C5,290.5,0.5,38,97.57
1819,C3,291.0,0.5,36,97.57
1820,B-4,291.0,0.5,38,97.57
1821,E4,291.0,0.5,38,97.57
1822,C#3,291.5,0.5,35,97.57
1823,A4,291.5,0.5,37,97.57
1824,F4,291.5,0.5,37,97.57
1825,D3,292.0,0.5,38,97.57
1826,G4,292.0,0.5,35,97.57
1827,E-4,292.0,0.5,35,97.57
1828,E-3,292.5,0.5,34,97.57
1829,D4,292.5,0.5,32,97.57
1830,F4,292.5,0.5,32,97.57
1831,F3,293.0,0.5,35,97.57
1832,B-2,293.0,2.0,38,97.57
1833,E-4,293.0,0.5,32,97.57
1834,C4,293.0,0.5,32,97.57
1835,G3,293.5,0.5,33,97.57
1836,B-3,293.5,0.5,31,97.57
1837,D4,293.5,0.5,31,97.57
1838,A3,293.875,0.125,40,97.57
1839,C4,294.0,0.5,30,97.57
1840,A3,294.0,0.5,30,97.57
1841,G3,294.5,0.25,28,97.57
1842,B-3,294.5,0.25,28,97.57
1843,F3,294.75,0.25,24,97.57
1844,A3,294.75,0.25,24,97.57
1845,G3,295.0,0.25,26,97.57
1846,E-3,295.0,0.25,26,97.57
1847,D4,295.25,0.25,36,97.57
1848,D3,295.25,0.25,26,97.57
1849,F3,295.25,0.25,26,97.57
1850,E-4,295.5,0.25,31,97.57
1851,E-3,295.5,3.0,30,97.57
1852,C3,295.5,3.0,30,97.57
1853,F4,295.75,0.25,34,97.57
1854,F#4,296.0,2.0,30,97.57
1855,B-3,296.0,2.0,30,97.57
1856,A3,298.0,1.0,31,97.57
1857,F4,298.0,1.0,31,97.57
1858,F3,298.5,1.5,31,97.57
1859,B-3,298.5,1.5,31,97.57
1860,F4,298.5,1.5,31,97.57
1861,B-1,298.875,0.125,33,97.57
1862,D3,299.0,1.5,40,97.57
1863,B-1,299.0,1.5,33,97.57
1864,E-4,300.5,0.75,48,97.57
1865,E-3,300.75,0.25,41,97.57
1866,B-3,301.0,0.25,48,97.57
1867,G1,301.0,1.0,33,97.57
1868,G2,301.0,1.0,33,97.57
1869,D4,301.25,0.25,37,97.57
1870,C4,301.5,0.75,49,97.57
1871,E-3,301.75,0.25,40,97.57
1872,A3,302.0,0.25,40,97.57
1873,G1,302.0,1.0,33,97.57
1874,G2,302.0,1.0,33,97.57
1875,C4,302.25,0.25,40,97.57
1876,E-4,302.5,1.0,47,97.57
1877,A4,302.75,0.25,40,97.57
1878,C5,303.0,0.25,46,97.57
1879,A1,303.0,0.75,30,97.57
1880,A2,303.0,0.75,30,97.57
1881,E-5,303.25,0.25,51,97.57
1882,D5,303.5,0.75,60,97.57
1883,D4,303.75,0.25,46,97.57
1884,G1,303.75,0.25,28,97.57
1885,G2,303.75,0.25,28,97.57
1886,A4,304.0,0.25,54,97.57
1887,F#1,304.0,1.0,33,97.57
1888,F#2,304.0,1.0,33,97.57
1889,C5,304.25,0.25,52,97.57
1890,B-4,304.5,1.0,58,97.57
1891,D4,304.75,0.25,51,97.57
1892,G4,305.0,0.25,52,97.57
1893,A1,305.0,1.0,33,97.57
1894,A2,305.0,1.0,33,97.57
1895,B-4,305.25,0.25,52,97.57
1896,D5,305.5,1.0,62,97.57
1897,G5,305.75,0.25,49,97.57
1898,B-5,306.0,0.25,59,97.57
1899,G2,306.0,1.0,26,97.57
1900,G1,306.0,1.0,26,97.57
1901,D6,306.25,0.25,63,97.57
1902,C4,306.5,0.75,52,97.57
1903,C3,306.75,0.25,40,97.57
1904,G3,307.0,0.25,40,97.57
1905,E-2,307.0,1.0,33,97.57
1906,E-1,307.0,1.0,33,97.57
1907,B-3,307.25,0.25,44,97.57
1908,A3,307.5,0.75,51,97.57
1909,C3,307.75,0.25,36,97.57
1910,F3,308.0,0.25,36,97.57
1911,A3,308.25,0.25,36,97.57
1912,C4,308.5,1.0,47,97.57
1913,F4,308.75,0.25,40,97.57
1914,A4,309.0,0.25,46,97.57
1915,E-2,309.0,1.0,33,97.57
1916,E-1,309.0,1.0,33,97.57
1917,C5,309.25,0.25,51,97.57
1918,B-4,309.5,0.75,60,97.57
1919,B-3,309.75,0.25,44,97.57
1920,F4,310.0,0.25,48,97.57
1921,F1,310.0,0.75,30,97.57
1922,F2,310.0,0.75,30,97.57
1923,A4,310.25,0.25,52,97.57
1924,G4,310.5,1.0,58,97.57
1925,B-3,310.75,0.25,48,97.57
1926,E-1,310.75,0.25,28,97.57
1927,E-2,310.75,0.25,28,97.57
1928,E-4,311.0,0.25,48,97.57
1929,D1,311.0,1.0,33,97.57
1930,D2,311.0,1.0,33,97.57
1931,G4,311.25,0.25,48,97.57
1932,B-4,311.5,1.0,62,97.57
1933,E-5,311.75,0.25,49,97.57
1934,G5,312.0,0.25,59,97.57
1935,F1,312.0,1.0,33,97.57
1936,F2,312.0,1.0,33,97.57
1937,B-5,312.25,0.25,63,97.57
1938,A3,312.5,0.75,54,97.57
1939,A2,312.75,0.25,39,97.57
1940,E-3,313.0,0.25,39,97.57
1941,E-2,313.0,1.0,26,97.57
1942,E-1,313.0,1.0,26,97.57
1943,G3,313.25,0.25,44,97.57
1944,F#3,313.5,0.75,55,97.57
1945,A2,313.75,0.25,39,97.57
1946,D3,314.0,0.25,39,97.57
1947,C1,314.0,1.0,36,97.57
1948,C2,314.0,1.0,36,97.57
1949,F#3,314.25,0.25,39,97.57
1950,A3,314.5,1.0,51,97.57
1951,D4,314.75,0.25,44,97.57
1952,F#4,315.0,0.25,50,97.57
1953,A3,315.25,0.25,56,97.57
1954,A4,315.5,0.75,59,97.57
1955,A3,315.75,0.25,50,97.57
1956,E4,316.0,0.25,50,97.57
1957,C1,316.0,1.0,36,97.57
1958,C2,316.0,1.0,36,97.57
1959,G4,316.25,0.25,52,97.57
1960,F#4,316.5,0.75,59,97.57
1961,A3,316.75,0.25,50,97.57
1962,D4,317.0,0.25,50,97.57
1963,D2,317.0,0.75,32,97.57
1964,D1,317.0,0.75,32,97.57
1965,F#4,317.25,0.25,50,97.57
1966,A4,317.5,1.0,67,97.57
1967,D5,317.75,0.25,57,97.57
1968,F#2,317.75,0.25,31,97.57
1969,F#1,317.75,0.25,31,97.57
1970,F#5,318.0,0.25,66,97.57
1971,A2,318.0,1.0,46,97.57
1972,A1,318.0,1.0,46,97.57
1973,A4,318.25,0.25,73,97.57
1974,A5,318.5,0.75,67,97.57
1975,A4,318.75,0.25,61,97.57
1976,E5,319.0,0.25,63,97.57
1977,G5,319.25,0.25,67,97.57
1978,F#5,319.5,0.75,74,97.57
1979,A4,319.75,0.25,62,97.57
1980,D5,320.0,0.25,67,97.57
1981,A2,320.0,1.0,46,97.57
1982,A1,320.0,1.0,46,97.57
1983,F#5,320.25,0.25,71,97.57
1984,A5,320.5,1.0,75,97.57
1985,D6,320.75,0.25,68,97.57
1986,F#6,321.0,0.25,71,97.57
1987,D3,321.0,0.75,43,97.57
1988,D2,321.0,0.75,43,97.57
1989,A5,321.25,0.25,73,97.57
1990,A6,321.5,0.75,78,97.57
1991,A5,321.75,0.25,72,97.57
1992,F#2,321.75,0.25,39,97.57
1993,F#3,321.75,0.25,39,97.57
1994,E6,322.0,0.25,70,97.57
1995,A2,322.0,0.75,42,97.57
1996,A3,322.0,0.75,42,97.57
1997,G6,322.25,0.25,74,97.57
1998,F#6,322.5,0.5,81,97.57
1999,C#4,322.75,0.25,50,97.57
2000,C#3,322.75,0.25,50,97.57
2001,D3,323.0,0.5,54,97.57
2002,D4,323.0,0.5,54,97.57
2003,D6,323.5,0.75,77,97.57
2004,F#5,323.5,0.75,77,97.57
2005,A5,323.5,0.75,77,97.57
2006,D4,324.0,0.75,48,97.57
2007,D3,324.0,0.75,48,97.57
2008,E-4,324.5,0.75,48,97.57
2009,E-3,324.75,0.25,41,97.57
2010,F#3,324.75,0.25,54,97.57
2011,F#4,324.75,0.25,54,97.57
2012,B-3,325.0,0.25,48,97.57
2013,A3,325.0,0.75,56,97.57
2014,A4,325.0,0.75,56,97.57
2015,D4,325.25,0.25,37,97.57
2016,C4,325.5,0.75,49,97.57
2017,E-3,325.75,0.25,40,97.57
2018,C#4,325.75,0.25,62,97.57
2019,C#5,325.75,0.25,62,97.57
2020,A3,326.0,0.25,40,97.57
2021,D4,326.0,0.5,64,97.57
2022,D5,326.0,0.5,64,97.57
2023,C4,326.25,0.25,40,97.57
2024,E-4,326.5,1.0,47,97.57
2025,A4,326.75,0.25,40,97.57
2026,C5,327.0,0.25,46,97.57
2027,D5,327.0,0.75,64,97.57
2028,A4,327.0,0.75,64,97.57
2029,D4,327.0,0.75,64,97.57
2030,E-5,327.25,0.25,51,97.57
2031,D5,327.5,0.75,60,97.57
2032,D4,327.75,0.25,46,97.57
2033,A4,328.0,0.25,54,97.57
2034,G2,328.0,1.0,30,97.57
2035,G1,328.0,1.0,30,97.57
2036,C5,328.25,0.25,52,97.57
2037,B-4,328.5,1.0,58,97.57
2038,D4,328.75,0.25,51,97.57
2039,G4,329.0,0.25,52,97.57
2040,G2,329.0,1.0,30,97.57
2041,G1,329.0,1.0,30,97.57
2042,B-4,329.25,0.25,52,97.57
2043,D5,329.5,1.0,62,97.57
2044,G5,329.75,0.25,49,97.57
2045,B-5,330.0,0.25,59,97.57
2046,A2,330.0,0.75,28,97.57
2047,A1,330.0,0.75,28,97.57
2048,D6,330.25,0.25,63,97.57
2049,C4,330.5,0.75,52,97.57
2050,C3,330.75,0.25,40,97.57
2051,G2,330.75,0.25,26,97.57
2052,G1,330.75,0.25,26,97.57
2053,G3,331.0,0.25,40,97.57
2054,F#1,331.0,1.0,30,97.57
2055,F#2,331.0,1.0,30,97.57
2056,B-3,331.25,0.25,44,97.57
2057,A3,331.5,0.75,51,97.57
2058,C3,331.75,0.25,36,97.57
2059,F3,332.0,0.25,36,97.57
2060,A1,332.0,1.0,30,97.57
2061,A2,332.0,1.0,30,97.57
2062,A3,332.25,0.25,36,97.57
2063,C4,332.5,1.0,47,97.57
2064,F4,332.75,0.25,40,97.57
2065,A4,333.0,0.25,46,97.57
2066,G1,333.0,1.0,24,97.57
2067,G2,333.0,1.0,24,97.57
2068,C5,333.25,0.25,51,97.57
2069,B-4,333.5,0.75,60,97.57
2070,B-3,333.75,0.25,44,97.57
2071,F4,334.0,0.25,48,97.57
2072,E-1,334.0,1.0,30,97.57
2073,E-2,334.0,1.0,30,97.57
2074,A4,334.25,0.25,52,97.57
2075,G4,334.5,1.0,58,97.57
2076,B-3,334.75,0.25,48,97.57
2077,E-4,335.0,0.25,48,97.57
2078,G4,335.25,0.25,48,97.57
2079,B-4,335.5,1.0,62,97.57
2080,E-5,335.75,0.25,49,97.57
2081,G5,336.0,0.25,59,97.57
2082,E-1,336.0,1.0,30,97.57
2083,E-2,336.0,1.0,30,97.57
2084,B-5,336.25,0.25,63,97.57
2085,A3,336.5,0.75,54,97.57
2086,A2,336.75,0.25,39,97.57
2087,E-3,337.0,0.25,39,97.57
2088,F2,337.0,0.75,28,97.57
2089,F1,337.0,0.75,28,97.57
2090,G3,337.25,0.25,44,97.57
2091,F#3,337.5,0.75,55,97.57
2092,A2,337.75,0.25,39,97.57
2093,E-1,337.75,0.25,26,97.57
2094,E-2,337.75,0.25,26,97.57
2095,D3,338.0,0.25,39,97.57
2096,D1,338.0,1.0,30,97.57
2097,D2,338.0,1.0,30,97.57
2098,F#3,338.25,0.25,39,97.57
2099,A3,338.5,1.0,51,97.57
2100,D4,338.75,0.25,44,97.57
2101,F#4,339.0,0.25,50,97.57
2102,F1,339.0,1.0,30,97.57
2103,F2,339.0,1.0,30,97.57
2104,A3,339.25,0.25,56,97.57
2105,A4,339.5,0.75,59,97.57
2106,A3,339.75,0.25,50,97.57
2107,E4,340.0,0.25,50,97.57
2108,E-1,340.0,1.0,24,97.57
2109,E-2,340.0,1.0,24,97.57
2110,G4,340.25,0.25,52,97.57
2111,F#4,340.5,0.75,59,97.57
2112,A3,340.75,0.25,50,97.57
2113,D4,341.0,0.25,50,97.57
2114,C2,341.0,1.0,34,97.57
2115,C1,341.0,1.0,34,97.57
2116,F#4,341.25,0.25,50,97.57
2117,A4,341.5,1.0,67,97.57
2118,D5,341.75,0.25,57,97.57
2119,F#5,342.0,0.25,66,97.57
2120,A4,342.25,0.25,73,97.57
2121,A5,342.5,0.75,67,97.57
2122,A4,342.75,0.25,61,97.57
2123,E5,343.0,0.25,63,97.57
2124,C2,343.0,1.0,34,97.57
2125,C1,343.0,1.0,34,97.57
2126,G5,343.25,0.25,67,97.57
2127,F#5,343.5,0.75,74,97.57
2128,A4,343.75,0.25,62,97.57
2129,D5,344.0,0.25,67,97.57
2130,D2,344.0,0.75,30,97.57
2131,D1,344.0,0.75,30,97.57
2132,F#5,344.25,0.25,71,97.57
2133,A5,344.5,1.0,75,97.57
2134,D6,344.75,0.25,68,97.57
2135,F#2,344.75,0.25,28,97.57
2136,F#1,344.75,0.25,28,97.57
2137,F#6,345.0,0.25,71,97.57
2138,A1,345.0,1.0,42,97.57
2139,A2,345.0,1.0,42,97.57
2140,A5,345.25,0.25,73,97.57
2141,A6,345.5,0.75,78,97.57
2142,A5,345.75,0.25,72,97.57
2143,E6,346.0,0.25,70,97.57
2144,G6,346.25,0.25,74,97.57
2145,F#6,346.5,0.5,81,97.57
2146,A1,347.0,1.0,42,97.57
2147,A2,347.0,1.0,42,97.57
2148,A5,347.5,0.75,69,97.57
2149,F#5,347.5,0.75,69,97.57
2150,D6,347.5,0.75,69,97.57
2151,D2,348.0,0.75,40,97.57
2152,D3,348.0,0.75,40,97.57
2153,D4,348.5,0.75,48,97.57
2154,D3,348.75,0.25,41,97.57
2155,F#3,348.75,0.25,36,97.57
2156,F#2,348.75,0.25,36,97.57
2157,G#3,349.0,0.25,48,97.57
2158,A3,349.0,0.75,39,97.57
2159,A2,349.0,0.75,39,97.57
2160,C4,349.25,0.25,37,97.57
2161,B-3,349.5,0.75,49,97.57
2162,E-3,349.75,0.25,41,97.57
2163,C#3,349.75,0.25,47,97.57
2164,C#4,349.75,0.25,47,97.57
2165,G#3,350.0,0.25,49,97.57
2166,D4,350.0,0.5,50,97.57
2167,D3,350.0,0.5,50,97.57
2168,B-3,350.25,0.25,53,97.57
2169,G4,350.5,0.75,63,97.57
2170,E3,350.75,0.25,40,97.57
2171,B-3,351.0,0.25,46,97.57
2172,D3,351.0,0.75,44,97.57
2173,D4,351.0,0.75,44,97.57
2174,G4,351.25,0.25,51,97.57
2175,F4,351.5,0.75,57,97.57
2176,F3,351.75,0.25,41,97.57
2177,F#3,351.75,0.25,50,97.57
2178,F#4,351.75,0.25,50,97.57
2179,B-3,352.0,0.25,52,97.57
2180,A3,352.0,0.75,52,97.57
2181,A4,352.0,0.75,52,97.57
2182,E-4,352.25,0.25,37,97.57
2183,D4,352.5,0.75,53,97.57
2184,G3,352.75,0.25,41,97.57
2185,C#5,352.75,0.25,58,97.57
2186,C#4,352.75,0.25,58,97.57
2187,B-3,353.0,0.25,53,97.57
2188,D4,353.0,0.5,60,97.57
2189,D5,353.0,0.5,60,97.57
2190,D4,353.25,0.25,57,97.57
2191,G#4,353.5,0.75,67,97.57
2192,G#3,353.75,0.25,41,97.57
2193,D4,354.0,0.25,47,97.57
2194,D5,354.0,0.75,61,97.57
2195,A4,354.0,0.75,61,97.57
2196,D4,354.0,0.75,61,97.57
2197,G#4,354.25,0.25,53,97.57
2198,G4,354.5,0.75,56,97.57
2199,G#3,354.75,0.25,42,97.57
2200,D4,355.0,0.25,53,97.57
2201,B-2,355.0,1.0,30,97.57
2202,B-1,355.0,1.0,30,97.57
2203,F4,355.25,0.25,38,97.57
2204,E4,355.5,0.75,50,97.57
2205,B-3,355.75,0.25,51,97.57
2206,C#4,356.0,0.25,55,97.57
2207,B-2,356.0,0.75,30,97.57
2208,B-1,356.0,0.75,30,97.57
2209,E4,356.25,0.25,64,97.57
2210,B-4,356.5,0.75,71,97.57
2211,C#4,356.75,0.25,44,97.57
2212,C2,356.75,0.25,26,97.57
2213,C3,356.75,0.25,26,97.57
2214,E4,357.0,0.25,50,97.57
2215,C#3,357.0,1.0,34,97.57
2216,C#2,357.0,1.0,34,97.57
2217,B-4,357.25,0.25,56,97.57
2218,G#4,357.5,0.75,67,97.57
2219,C#4,357.75,0.25,45,97.57
2220,E4,358.0,0.25,56,97.57
2221,D3,358.0,1.0,30,97.57
2222,D2,358.0,1.0,30,97.57
2223,G4,358.25,0.25,40,97.57
2224,F#4,358.5,0.75,58,97.57
2225,C4,358.75,0.25,49,97.57
2226,E-4,359.0,0.25,56,97.57
2227,F#4,359.25,0.25,62,97.57
2228,C5,359.5,0.75,71,97.57
2229,E-4,359.75,0.25,47,97.57
2230,D3,359.75,0.75,30,97.57
2231,D2,359.75,0.75,30,97.57
2232,F#4,360.0,0.25,54,97.57
2233,C5,360.25,0.25,59,97.57
2234,B-4,360.5,0.75,62,97.57
2235,E-2,360.5,0.25,26,97.57
2236,E-3,360.5,0.25,26,97.57
2237,E-4,360.75,0.25,48,97.57
2238,E2,360.75,1.0,35,97.57
2239,E3,360.75,1.0,35,97.57
2240,F#4,361.0,0.25,60,97.57
2241,A4,361.25,0.25,42,97.57
2242,G#4,361.5,0.75,65,97.57
2243,D4,361.75,0.25,53,97.57
2244,F3,361.75,1.0,32,97.57
2245,F2,361.75,1.0,32,97.57
2246,F4,362.0,0.25,61,97.57
2247,A4,362.25,0.25,66,97.57
2248,D5,362.5,0.75,76,97.57
2249,F4,362.75,0.25,52,97.57
2250,A4,363.0,0.25,60,97.57
2251,D5,363.25,0.25,66,97.57
2252,C5,363.5,0.75,73,97.57
2253,F3,363.5,0.75,32,97.57
2254,F2,363.5,0.75,32,97.57
2255,F4,363.75,0.25,53,97.57
2256,A4,364.0,0.25,67,97.57
2257,B4,364.25,0.25,55,97.57
2258,F#2,364.25,0.25,27,97.57
2259,F#3,364.25,0.25,27,97.57
2260,B-4,364.5,0.75,69,97.57
2261,G2,364.5,1.0,37,97.57
2262,G3,364.5,1.0,37,97.57
2263,E4,364.75,0.25,58,97.57
2264,G4,365.0,0.25,66,97.57
2265,B-4,365.25,0.25,69,97.57
2266,E5,365.5,0.75,79,97.57
2267,G#3,365.5,1.0,33,97.57
2268,G#2,365.5,1.0,33,97.57
2269,G4,365.75,0.25,58,97.57
2270,B-4,366.0,0.25,67,97.57
2271,E5,366.25,0.25,73,97.57
2272,D5,366.5,0.75,69,97.57
2273,G4,366.75,0.25,59,97.57
2274,B-4,367.0,0.25,70,97.57
2275,C#5,367.25,0.25,51,97.57
2276,G#3,367.25,0.75,33,97.57
2277,G#2,367.25,0.75,33,97.57
2278,D5,367.5,0.75,73,97.57
2279,F4,367.75,0.25,62,97.57
2280,A4,368.0,0.25,68,97.57
2281,A3,368.0,0.25,28,97.57
2282,A2,368.0,0.25,28,97.57
2283,D5,368.25,0.25,73,97.57
2284,B-3,368.25,1.0,40,97.57
2285,B-2,368.25,1.0,40,97.57
2286,B-4,368.5,0.75,82,97.57
2287,D4,368.75,0.25,59,97.57
2288,G4,369.0,0.25,68,97.57
2289,B-4,369.25,0.25,75,97.57
2290,C4,369.25,1.0,34,97.57
2291,C3,369.25,1.0,34,97.57
2292,A4,369.5,0.75,82,97.57
2293,C#4,369.75,0.25,53,97.57
2294,E4,370.0,0.25,59,97.57
2295,A4,370.25,0.25,75,97.57
2296,D5,370.5,0.75,82,97.57
2297,D4,370.75,0.25,53,97.57
2298,A4,371.0,0.25,59,97.57
2299,C4,371.0,0.75,34,97.57
2300,C3,371.0,0.75,34,97.57
2301,C5,371.25,0.25,75,97.57
2302,B-4,371.5,0.75,82,97.57
2303,C#4,371.75,0.25,55,97.57
2304,B2,371.75,0.25,30,97.57
2305,B3,371.75,0.25,30,97.57
2306,E4,372.0,0.25,59,97.57
2307,C3,372.0,1.0,44,97.57
2308,C4,372.0,1.0,44,97.57
2309,A4,372.25,0.25,75,97.57
2310,D5,372.5,0.75,82,97.57
2311,D4,372.75,0.25,54,97.57
2312,A4,373.0,0.25,59,97.57
2313,D4,373.0,1.0,38,97.57
2314,D3,373.0,1.0,38,97.57
2315,C5,373.25,0.25,75,97.57
2316,B-4,373.5,0.75,82,97.57
2317,C#4,373.75,0.25,55,97.57
2318,E4,374.0,0.25,59,97.57
2319,A4,374.25,0.25,75,97.57
2320,D5,374.5,0.75,82,97.57
2321,D4,374.75,0.25,54,97.57
2322,D4,374.75,0.75,38,97.57
2323,D3,374.75,0.75,38,97.57
2324,A4,375.0,0.25,59,97.57
2325,C5,375.25,0.25,75,97.57
2326,B-4,375.5,0.75,82,97.57
2327,C#3,375.5,0.25,34,97.57
2328,C#4,375.5,0.25,34,97.57
2329,D4,375.75,0.25,53,97.57
2330,D4,375.75,1.0,49,97.57
2331,D3,375.75,1.0,49,97.57
2332,E4,376.0,0.25,59,97.57
2333,G4,376.25,0.25,75,97.57
2334,A4,376.5,0.75,82,97.57
2335,C#4,376.75,0.25,54,97.57
2336,E3,376.75,1.0,42,97.57
2337,E4,376.75,1.0,42,97.57
2338,E4,377.0,0.25,59,97.57
2339,A4,377.25,0.25,75,97.57
2340,D4,377.5,0.75,82,97.57
2341,F#3,377.75,0.25,54,97.57
2342,A3,378.0,0.25,59,97.57
2343,C4,378.25,0.25,75,97.57
2344,B-3,378.5,0.75,82,97.57
2345,E3,378.5,0.75,42,97.57
2346,E4,378.5,0.75,42,97.57
2347,D3,378.75,0.25,54,97.57
2348,F#3,379.0,0.25,59,97.57
2349,A3,379.25,0.25,80,97.57
2350,F3,379.25,0.25,44,97.57
2351,E-4,379.5,0.75,65,97.57
2352,G3,379.5,1.0,62,97.57
2353,E-3,379.75,0.25,61,97.57
2354,B-3,380.0,0.25,70,97.57
2355,D4,380.25,0.25,53,97.57
2356,C4,380.5,0.75,75,97.57
2357,A3,380.5,0.75,65,97.57
2358,E-3,380.75,0.25,47,97.57
2359,A3,381.0,0.25,50,97.57
2360,C4,381.25,0.25,50,97.57
2361,G3,381.25,0.25,60,97.57
2362,E-4,381.5,1.0,58,97.57
2363,F3,381.5,0.75,65,97.57
2364,A4,381.75,0.25,50,97.57
2365,C5,382.0,0.25,57,97.57
2366,E-5,382.25,0.25,63,97.57
2367,F#3,382.25,0.25,60,97.57
2368,D5,382.5,0.75,75,97.57
2369,A3,382.5,0.75,65,97.57
2370,D4,382.75,0.25,57,97.57
2371,A4,383.0,0.25,64,97.57
2372,C5,383.25,0.25,52,97.57
2373,G3,383.25,0.25,60,97.57
2374,B-4,383.5,1.0,72,97.57
2375,F3,383.5,0.75,65,97.57
2376,D4,383.75,0.25,57,97.57
2377,G4,384.0,0.25,65,97.57
2378,B-4,384.25,0.25,59,97.57
2379,F#3,384.25,0.25,60,97.57
2380,D5,384.5,1.0,77,97.57
2381,A3,384.5,0.75,65,97.57
2382,G5,384.75,0.25,61,97.57
2383,B-5,385.0,0.25,73,97.57
2384,D6,385.25,0.25,78,97.57
2385,G3,385.25,0.25,60,97.57
2386,C4,385.5,0.75,70,97.57
2387,F3,385.5,0.75,65,97.57
2388,C3,385.75,0.25,50,97.57
2389,G3,386.0,0.25,50,97.57
2390,B-3,386.25,0.25,61,97.57
2391,F#3,386.25,0.25,60,97.57
2392,A3,386.5,0.75,71,97.57
2393,G3,386.5,0.75,65,97.57
2394,C3,386.75,0.25,45,97.57
2395,F3,387.0,0.25,45,97.57
2396,A3,387.25,0.25,39,97.57
2397,B-3,387.25,0.25,60,97.57
2398,C4,387.5,1.0,58,97.57
2399,A3,387.5,0.75,65,97.57
2400,F4,387.75,0.25,50,97.57
2401,A4,388.0,0.25,57,97.57
2402,C5,388.25,0.25,63,97.57
2403,A2,388.25,0.25,60,97.57
2404,B-4,388.5,0.75,75,97.57
2405,D3,388.5,0.75,65,97.57
2406,B-3,388.75,0.25,55,97.57
2407,F4,389.0,0.25,60,97.57
2408,A4,389.25,0.25,65,97.57
2409,C3,389.25,0.25,60,97.57
2410,G4,389.5,1.0,72,97.57
2411,B-2,389.5,0.75,65,97.57
2412,B-3,389.75,0.25,54,97.57
2413,E-4,390.0,0.25,60,97.57
2414,G4,390.25,0.25,55,97.57
2415,A2,390.25,0.25,60,97.57
2416,B-4,390.5,1.0,77,97.57
2417,G2,390.5,1.0,38,97.57
2418,G1,390.5,1.0,38,97.57
2419,E-5,390.75,0.25,61,97.57
2420,G5,391.0,0.25,73,97.57
2421,B-5,391.25,0.25,78,97.57
2422,A3,391.5,0.75,67,97.57
2423,A2,391.75,0.25,45,97.57
2424,E-3,392.0,0.25,48,97.57
2425,G3,392.25,0.25,55,97.57
2426,F#3,392.5,0.75,68,97.57
2427,G2,392.5,1.0,38,97.57
2428,G1,392.5,1.0,38,97.57
2429,A2,392.75,0.25,45,97.57
2430,D3,393.0,0.25,48,97.57
2431,F#3,393.25,0.25,42,97.57
2432,A3,393.5,1.0,63,97.57
2433,A1,393.5,0.75,34,97.57
2434,A2,393.5,0.75,34,97.57
2435,D4,393.75,0.25,55,97.57
2436,F#4,394.0,0.25,62,97.57
2437,A4,394.25,0.25,70,97.57
2438,G2,394.25,0.25,32,97.57
2439,G1,394.25,0.25,32,97.57
2440,D5,394.5,0.75,73,97.57
2441,F#1,394.5,1.0,38,97.57
2442,F#2,394.5,1.0,38,97.57
2443,D4,394.75,0.25,62,97.57
2444,A4,395.0,0.25,62,97.57
2445,C5,395.25,0.25,65,97.57
2446,B-4,395.5,0.75,73,97.57
2447,A1,395.5,1.0,38,97.57
2448,A2,395.5,1.0,38,97.57
2449,D4,395.75,0.25,56,97.57
2450,G4,396.0,0.25,62,97.57
2451,B-4,396.25,0.25,55,97.57
2452,D5,396.5,1.0,77,97.57
2453,G1,396.5,1.0,30,97.57
2454,G2,396.5,1.0,30,97.57
2455,G5,396.75,0.25,71,97.57
2456,B-5,397.0,0.25,75,97.57
2457,D6,397.25,0.25,79,97.57
2458,G4,397.5,0.75,77,97.57
2459,E-2,397.5,1.0,38,97.57
2460,E-1,397.5,1.0,38,97.57
2461,G3,397.75,0.25,66,97.57
2462,D4,398.0,0.25,69,97.57
2463,F4,398.25,0.25,75,97.57
2464,E-4,398.5,0.75,79,97.57
2465,G3,398.75,0.25,71,97.57
2466,C4,399.0,0.25,76,97.57
2467,E-4,399.25,0.25,78,97.57
2468,G4,399.5,1.0,82,97.57
2469,E-2,399.5,1.0,38,97.57
2470,E-1,399.5,1.0,38,97.57
2471,C5,399.75,0.25,68,97.57
2472,E-5,400.0,0.25,71,97.57
2473,G5,400.25,0.188,73,97.57
2474,F#5,400.5,1.0,72,97.57
2475,A4,400.5,1.0,72,97.57
2476,C5,400.5,1.0,72,97.57
2477,F1,400.5,0.75,34,97.57
2478,F2,400.5,0.75,34,97.57
2479,E-1,401.25,0.25,32,97.57
2480,E-2,401.25,0.25,32,97.57
2481,G5,401.5,1.75,72,97.57
2482,B-4,401.5,1.75,72,97.57
2483,D5,401.5,1.75,72,97.57
2484,D2,401.5,1.0,38,97.57
2485,D1,401.5,1.0,38,97.57
2486,F1,402.5,1.0,38,97.57
2487,F2,402.5,1.0,38,97.57
2488,D4,403.5,0.75,48,97.57
2489,E-1,403.5,1.0,30,97.57
2490,E-2,403.5,1.0,30,97.57
2491,D3,403.75,0.25,41,97.57
2492,G#3,404.0,0.25,48,97.57
2493,C4,404.25,0.25,37,97.57
2494,B-3,404.5,0.75,49,97.57
2495,C1,404.5,1.0,41,97.57
2496,C2,404.5,1.0,41,97.57
2497,E-3,404.75,0.25,41,97.57
2498,G#3,405.0,0.25,49,97.57
2499,B-3,405.25,0.25,53,97.57
2500,G4,405.5,0.75,63,97.57
2501,E3,405.75,0.25,40,97.57
2502,B-3,406.0,0.25,46,97.57
2503,G4,406.25,0.25,51,97.57
2504,F4,406.5,0.75,57,97.57
2505,C1,406.5,1.0,41,97.57
2506,C2,406.5,1.0,41,97.57
2507,F3,406.75,0.25,41,97.57
2508,B-3,407.0,0.25,52,97.57
2509,E-4,407.25,0.25,37,97.57
2510,D4,407.5,0.75,53,97.57
2511,D2,407.5,0.75,38,97.57
2512,D1,407.5,0.75,38,97.57
2513,G3,407.75,0.25,41,97.57
2514,B-3,408.0,0.25,53,97.57
2515,D4,408.25,0.25,52,97.57
2516,E2,408.25,0.25,36,97.57
2517,E1,408.25,0.25,36,97.57
2518,G#4,408.5,0.75,67,97.57
2519,F#1,408.5,1.0,53,97.57
2520,F#2,408.5,1.0,53,97.57
2521,G#3,408.75,0.25,41,97.57
2522,D4,409.0,0.25,47,97.57
2523,G#4,409.25,0.25,53,97.57
2524,G4,409.5,0.75,56,97.57
2525,A1,409.5,1.0,50,97.57
2526,A2,409.5,1.0,50,97.57
2527,G#3,409.75,0.25,42,97.57
2528,D4,410.0,0.25,53,97.57
2529,F4,410.25,0.25,38,97.57
2530,E4,410.5,0.75,50,97.57
2531,G2,410.5,0.75,49,97.57
2532,G1,410.5,0.75,49,97.57
2533,B-3,410.75,0.25,46,97.57
2534,C#4,411.0,0.25,55,97.57
2535,E4,411.25,0.25,64,97.57
2536,A1,411.25,0.25,45,97.57
2537,A2,411.25,0.25,45,97.57
2538,B-4,411.5,0.75,71,97.57
2539,B-1,411.5,1.0,48,97.57
2540,B-2,411.5,1.0,48,97.57
2541,C#4,411.75,0.25,44,97.57
2542,E4,412.0,0.25,50,97.57
2543,B-4,412.25,0.25,56,97.57
2544,G#4,412.5,0.75,67,97.57
2545,D3,412.5,1.0,56,97.57
2546,D2,412.5,1.0,56,97.57
2547,C#4,412.75,0.25,45,97.57
2548,E4,413.0,0.25,47,97.57
2549,G4,413.25,0.25,40,97.57
2550,F#4,413.5,0.75,58,97.57
2551,C3,413.5,0.75,41,97.57
2552,C2,413.5,0.75,41,97.57
2553,C4,413.75,0.25,49,97.57
2554,E-4,414.0,0.25,56,97.57
2555,F#4,414.25,0.25,62,97.57
2556,A2,414.25,0.188,47,97.57
2557,A1,414.25,0.188,47,97.57
2558,C5,414.5,0.75,71,97.57
2559,D3,414.5,1.0,50,97.57
2560,D2,414.5,1.0,50,97.57
2561,E-4,414.75,0.25,47,97.57
2562,F#4,415.0,0.25,54,97.57
2563,C5,415.25,0.25,59,97.57
2564,B-4,415.5,0.75,62,97.57
2565,G2,415.5,1.75,56,97.57
2566,G1,415.5,1.75,56,97.57
2567,E-4,415.75,0.25,48,97.57
2568,F#4,416.0,0.25,56,97.57
2569,A4,416.25,0.25,42,97.57
2570,G#4,416.5,0.75,65,97.57
2571,D4,416.75,0.25,50,97.57
2572,F4,417.0,0.25,61,97.57
2573,A4,417.25,0.25,60,97.57
2574,D5,417.5,0.75,76,97.57
2575,B-2,417.5,1.0,30,97.57
2576,B-1,417.5,1.0,30,97.57
2577,F4,417.75,0.25,52,97.57
2578,A4,418.0,0.25,60,97.57
2579,D5,418.25,0.25,66,97.57
2580,C5,418.5,0.75,73,97.57
2581,B-2,418.5,0.75,30,97.57
2582,B-1,418.5,0.75,30,97.57
2583,F4,418.75,0.25,53,97.57
2584,A4,419.0,0.25,57,97.57
2585,B4,419.25,0.25,46,97.57
2586,C3,419.25,0.25,26,97.57
2587,C2,419.25,0.25,26,97.57
2588,B-4,419.5,0.75,69,97.57
2589,C#3,419.5,1.0,34,97.57
2590,C#2,419.5,1.0,34,97.57
2591,E4,419.75,0.25,58,97.57
2592,G4,420.0,0.25,66,97.57
2593,B-4,420.25,0.25,69,97.57
2594,E5,420.5,0.75,79,97.57
2595,D2,420.5,1.0,30,97.57
2596,D3,420.5,1.0,30,97.57
2597,G4,420.75,0.25,58,97.57
2598,B-4,421.0,0.25,67,97.57
2599,E5,421.25,0.25,73,97.57
2600,D5,421.5,0.75,69,97.57
2601,G4,421.75,0.25,59,97.57
2602,B-4,422.0,0.25,70,97.57
2603,C#5,422.25,0.25,51,97.57
2604,D2,422.25,0.75,30,97.57
2605,D3,422.25,0.75,30,97.57
2606,D5,422.5,0.75,73,97.57
2607,F4,422.75,0.25,62,97.57
2608,A4,423.0,0.25,68,97.57
2609,E-3,423.0,0.25,26,97.57
2610,E-2,423.0,0.25,26,97.57
2611,D5,423.25,0.25,73,97.57
2612,E3,423.25,1.0,35,97.57
2613,E2,423.25,1.0,35,97.57
2614,B-4,423.5,0.75,82,97.57
2615,D4,423.75,0.25,59,97.57
2616,G4,424.0,0.25,68,97.57
2617,B-4,424.25,0.25,75,97.57
2618,F2,424.25,1.0,32,97.57
2619,F3,424.25,1.0,32,97.57
2620,A4,424.5,0.75,82,97.57
2621,C#4,424.75,0.25,55,97.57
2622,E4,425.0,0.25,59,97.57
2623,A4,425.25,0.25,75,97.57
2624,D5,425.5,0.75,82,97.57
2625,D4,425.75,0.25,53,97.57
2626,A4,426.0,0.25,59,97.57
2627,F2,426.0,0.75,32,97.57
2628,F3,426.0,0.75,32,97.57
2629,C5,426.25,0.25,75,97.57
2630,B-4,426.5,0.75,82,97.57
2631,C#4,426.75,0.25,55,97.57
2632,F#3,426.75,0.25,27,97.57
2633,F#2,426.75,0.25,27,97.57
2634,E4,427.0,0.25,59,97.57
2635,G2,427.0,1.0,37,97.57
2636,G3,427.0,1.0,37,97.57
2637,A4,427.25,0.25,75,97.57
2638,D5,427.5,0.75,82,97.57
2639,D4,427.75,0.25,53,97.57
2640,A4,428.0,0.25,59,97.57
2641,G#2,428.0,1.0,33,97.57
2642,G#3,428.0,1.0,33,97.57
2643,C5,428.25,0.25,75,97.57
2644,B-4,428.5,0.75,82,97.57
2645,C#4,428.75,0.25,54,97.57
2646,E4,429.0,0.25,59,97.57
2647,A4,429.25,0.25,75,97.57
2648,D5,429.5,0.75,82,97.57
2649,D4,429.75,0.25,53,97.57
2650,G#2,429.75,0.75,33,97.57
2651,G#3,429.75,0.75,33,97.57
2652,A4,430.0,0.25,59,97.57
2653,C5,430.25,0.25,75,97.57
2654,B-4,430.5,0.75,82,97.57
2655,A3,430.5,0.25,28,97.57
2656,A2,430.5,0.25,28,97.57
2657,D4,430.75,0.25,54,97.57
2658,B-3,430.75,1.0,40,97.57
2659,B-2,430.75,1.0,40,97.57
2660,E4,431.0,0.25,59,97.57
2661,G4,431.25,0.25,75,97.57
2662,A4,431.5,0.75,82,97.57
2663,C#4,431.75,0.25,54,97.57
2664,C4,431.75,1.0,34,97.57
2665,C3,431.75,1.0,34,97.57
2666,E4,432.0,0.25,59,97.57
2667,A4,432.25,0.25,75,97.57
2668,D4,432.5,0.75,82,97.57
2669,F#3,432.75,0.25,56,97.57
2670,A3,433.0,0.25,59,97.57
2671,C4,433.25,0.25,75,97.57
2672,B-3,433.5,0.75,82,97.57
2673,C4,433.5,0.75,34,97.57
2674,C3,433.5,0.75,34,97.57
2675,D3,433.75,0.25,54,97.57
2676,F#3,434.0,0.25,59,97.57
2677,A3,434.25,0.25,80,97.57
2678,B3,434.25,0.25,30,97.57
2679,B2,434.25,0.25,30,97.57
2680,E-4,434.5,0.75,65,97.57
2681,C3,434.5,1.0,44,97.57
2682,C4,434.5,1.0,44,97.57
2683,E-3,434.75,0.25,61,97.57
2684,B-3,435.0,0.25,70,97.57
2685,D4,435.25,0.25,53,97.57
2686,C4,435.5,0.75,75,97.57
2687,D4,435.5,1.0,38,97.57
2688,D3,435.5,1.0,38,97.57
2689,E-3,435.75,0.25,47,97.57
2690,A3,436.0,0.25,50,97.57
2691,C4,436.25,0.25,42,97.57
2692,E-4,436.5,1.0,58,97.57
2693,A4,436.75,0.25,50,97.57
2694,C5,437.0,0.25,57,97.57
2695,E-5,437.25,0.25,63,97.57
2696,D4,437.25,0.75,38,97.57
2697,D3,437.25,0.75,38,97.57
2698,D5,437.5,0.75,75,97.57
2699,D4,437.75,0.25,57,97.57
2700,A4,438.0,0.25,65,97.57
2701,C#4,438.0,0.25,34,97.57
2702,C#3,438.0,0.25,34,97.57
2703,C5,438.25,0.25,57,97.57
2704,D3,438.25,1.0,49,97.57
2705,D4,438.25,1.0,49,97.57
2706,B-4,438.5,1.0,72,97.57
2707,D4,438.75,0.25,57,97.57
2708,G4,439.0,0.25,65,97.57
2709,B-4,439.25,0.25,65,97.57
2710,E3,439.25,1.0,42,97.57
2711,E4,439.25,1.0,42,97.57
2712,D5,439.5,1.0,77,97.57
2713,G5,439.75,0.25,61,97.57
2714,B-5,440.0,0.25,73,97.57
2715,D6,440.25,0.25,78,97.57
2716,C4,440.5,0.75,70,97.57
2717,C3,440.75,0.25,50,97.57
2718,G3,441.0,0.25,43,97.57
2719,E3,441.0,0.75,42,97.57
2720,E4,441.0,0.75,42,97.57
2721,B-3,441.25,0.25,61,97.57
2722,A3,441.5,0.75,71,97.57
2723,C3,441.75,0.25,40,97.57
2724,F3,441.75,0.25,44,97.57
2725,F3,442.0,0.25,45,97.57
2726,G3,442.0,1.0,62,97.57
2727,A3,442.25,0.25,45,97.57
2728,C4,442.5,1.0,58,97.57
2729,F4,442.75,0.25,50,97.57
2730,A4,443.0,0.25,57,97.57
2731,A3,443.0,0.75,65,97.57
2732,C5,443.25,0.25,63,97.57
2733,B-4,443.5,0.75,75,97.57
2734,B-3,443.75,0.25,55,97.57
2735,G3,443.75,0.25,60,97.57
2736,F4,444.0,0.25,60,97.57
2737,F3,444.0,0.75,65,97.57
2738,A4,444.25,0.25,65,97.57
2739,G4,444.5,1.0,72,97.57
2740,B-3,444.75,0.25,55,97.57
2741,F#3,444.75,0.25,60,97.57
2742,E-4,445.0,0.25,60,97.57
2743,A3,445.0,0.75,65,97.57
2744,G4,445.25,0.25,53,97.57
2745,B-4,445.5,1.0,77,97.57
2746,E-5,445.75,0.25,61,97.57
2747,G3,445.75,0.25,60,97.57
2748,G5,446.0,0.25,73,97.57
2749,F3,446.0,0.75,65,97.57
2750,B-5,446.25,0.25,78,97.57
2751,A3,446.5,0.75,67,97.57
2752,A2,446.75,0.25,48,97.57
2753,F#3,446.75,0.25,60,97.57
2754,E-3,447.0,0.25,48,97.57
2755,A3,447.0,0.75,65,97.57
2756,G3,447.25,0.25,55,97.57
2757,F#3,447.5,0.75,68,97.57
2758,A2,447.75,0.25,44,97.57
2759,G3,447.75,0.25,60,97.57
2760,D3,448.0,0.25,48,97.57
2761,F3,448.0,0.75,65,97.57
2762,F#3,448.25,0.25,44,97.57
2763,A3,448.5,1.0,63,97.57
2764,D4,448.75,0.25,55,97.57
2765,F#3,448.75,0.25,60,97.57
2766,F#4,449.0,0.25,62,97.57
2767,G3,449.0,0.75,65,97.57
2768,A4,449.25,0.25,70,97.57
2769,D5,449.5,0.75,73,97.57
2770,D4,449.75,0.25,57,97.57
2771,B-3,449.75,0.25,60,97.57
2772,A4,450.0,0.25,62,97.57
2773,A3,450.0,0.75,65,97.57
2774,C5,450.25,0.25,65,97.57
2775,B-4,450.5,0.75,73,97.57
2776,D4,450.75,0.25,58,97.57
2777,A2,450.75,0.25,60,97.57
2778,G4,451.0,0.25,62,97.57
2779,D3,451.0,0.75,65,97.57
2780,B-4,451.25,0.25,56,97.57
2781,D5,451.5,1.0,77,97.57
2782,G5,451.75,0.25,71,97.57
2783,C3,451.75,0.25,60,97.57
2784,B-5,452.0,0.25,75,97.57
2785,B-2,452.0,0.75,65,97.57
2786,D6,452.25,0.25,79,97.57
2787,G4,452.5,0.75,77,97.57
2788,G3,452.75,0.25,66,97.57
2789,A2,452.75,0.25,60,97.57
2790,D4,453.0,0.25,69,97.57
2791,G1,453.0,1.0,38,97.57
2792,G2,453.0,1.0,38,97.57
2793,F4,453.25,0.25,75,97.57
2794,E-4,453.5,0.75,79,97.57
2795,G3,453.75,0.25,71,97.57
2796,C4,454.0,0.25,76,97.57
2797,E-4,454.25,0.25,78,97.57
2798,G4,454.5,1.0,82,97.57
2799,C5,454.75,0.25,68,97.57
2800,E-5,455.0,0.25,71,97.57
2801,G1,455.0,1.0,38,97.57
2802,G2,455.0,1.0,38,97.57
2803,G5,455.25,0.188,73,97.57
2804,F#5,455.5,1.0,72,97.57
2805,A4,455.5,1.0,72,97.57
2806,C5,455.5,1.0,72,97.57
2807,A2,456.0,0.75,34,97.57
2808,A1,456.0,0.75,34,97.57
2809,D5,456.5,1.75,72,97.57
2810,B-4,456.5,1.75,72,97.57
2811,G5,456.5,1.75,72,97.57
2812,G1,456.75,0.25,32,97.57
2813,G2,456.75,0.25,32,97.57
2814,F#2,457.0,1.0,38,97.57
2815,F#1,457.0,1.0,38,97.57
2816,A1,458.0,1.0,38,97.57
2817,A2,458.0,1.0,38,97.57
2818,C#4,458.5,0.5,47,97.57
2819,G4,458.5,1.0,46,97.57
2820,B-3,458.5,1.0,46,97.57
2821,D4,459.0,0.5,47,97.57
2822,G2,459.0,1.0,30,97.57
2823,G1,459.0,1.0,30,97.57
2824,E-4,459.5,0.5,50,97.57
2825,G4,459.5,1.0,46,97.57
2826,B-3,459.5,1.0,46,97.57
2827,E4,460.0,0.5,45,97.57
2828,E-1,460.0,1.0,38,97.57
2829,E-2,460.0,1.0,38,97.57
2830,C#4,460.5,1.0,39,97.57
2831,F4,460.5,0.5,49,97.57
2832,A3,460.5,0.5,49,97.57
2833,G3,461.0,0.5,46,97.57
2834,E4,461.0,0.5,46,97.57
2835,F3,461.5,0.5,50,97.57
2836,D4,461.5,0.5,50,97.57
2837,E3,462.0,0.5,43,97.57
2838,E4,462.0,0.5,47,97.57
2839,E-1,462.0,1.0,38,97.57
2840,E-2,462.0,1.0,38,97.57
2841,C#4,462.5,0.5,53,97.57
2842,E3,462.5,0.5,43,97.57
2843,D4,463.0,0.5,44,97.57
2844,D3,463.0,1.5,40,97.57
2845,F2,463.0,0.75,34,97.57
2846,F1,463.0,0.75,34,97.57
2847,B-3,463.5,2.0,50,97.57
2848,E-2,463.75,0.25,32,97.57
2849,E-1,463.75,0.25,32,97.57
2850,D2,464.0,1.0,38,97.57
2851,D1,464.0,1.0,38,97.57
2852,C#3,464.5,0.5,45,97.57
2853,D3,465.0,0.5,41,97.57
2854,F2,465.0,1.0,38,97.57
2855,F1,465.0,1.0,38,97.57
2856,E-3,465.5,0.5,48,97.57
2857,B-3,465.5,1.0,50,97.57
2858,E3,466.0,0.5,39,97.57
2859,E-1,466.0,1.0,30,97.57
2860,E-2,466.0,1.0,30,97.57
2861,A3,466.5,1.5,50,97.57
2862,G3,467.0,0.5,44,97.57
2863,C1,467.0,1.0,41,97.57
2864,C2,467.0,1.0,41,97.57
2865,D3,467.5,1.0,39,97.57
2866,F3,467.5,0.5,51,97.57
2867,G3,468.0,0.5,37,97.57
2868,E3,468.5,0.5,36,97.57
2869,G3,468.5,0.5,37,97.57
2870,D3,468.5,0.5,39,97.57
2871,F3,469.0,0.5,42,97.57
2872,C#3,469.0,0.5,42,97.57
2873,C1,469.0,1.0,41,97.57
2874,C2,469.0,1.0,41,97.57
2875,D3,469.5,1.0,39,97.57
2876,D2,470.0,0.75,38,97.57
2877,D1,470.0,0.75,38,97.57
2878,C#4,470.5,0.5,44,97.57
2879,B-3,470.5,1.0,46,97.57
2880,G4,470.5,1.0,46,97.57
2881,E2,470.75,0.25,36,97.57
2882,E1,470.75,0.25,36,97.57
2883,D4,471.0,0.5,43,97.57
2884,F#1,471.0,1.0,53,97.57
2885,F#2,471.0,1.0,53,97.57
2886,E-4,471.5,0.5,46,97.57
2887,B-3,471.5,1.0,46,97.57
2888,G4,471.5,1.0,46,97.57
2889,E4,472.0,0.5,41,97.57
2890,A2,472.0,1.0,50,97.57
2891,A1,472.0,1.0,50,97.57
2892,C#4,472.5,1.0,39,97.57
2893,F4,472.5,0.5,47,97.57
2894,A3,472.5,0.5,47,97.57
2895,G3,473.0,0.5,44,97.57
2896,E4,473.0,0.5,44,97.57
2897,G1,473.0,0.75,49,97.57
2898,G2,473.0,0.75,49,97.57
2899,F3,473.5,0.5,48,97.57
2900,D4,473.5,0.5,48,97.57
2901,A2,473.75,0.25,45,97.57
2902,A1,473.75,0.25,45,97.57
2903,E4,474.0,0.5,40,97.57
2904,G3,474.0,0.5,40,97.57
2905,B-2,474.0,1.0,48,97.57
2906,B-1,474.0,1.0,48,97.57
2907,C#4,474.5,0.5,46,97.57
2908,E3,474.5,0.5,46,97.57
2909,F3,475.0,0.5,42,97.57
2910,D4,475.0,0.5,42,97.57
2911,D2,475.0,1.0,56,97.57
2912,D3,475.0,1.0,56,97.57
2913,D3,475.5,1.0,40,97.57
2914,B-3,475.5,2.0,50,97.57
2915,C2,476.0,0.75,41,97.57
2916,C3,476.0,0.75,41,97.57
2917,C#3,476.5,0.5,49,97.57
2918,A2,476.75,0.188,47,97.57
2919,A1,476.75,0.188,47,97.57
2920,D3,477.0,0.5,45,97.57
2921,D3,477.0,1.0,50,97.57
2922,D2,477.0,1.0,50,97.57
2923,E-3,477.5,0.5,52,97.57
2924,B-3,477.5,1.0,50,97.57
2925,E3,478.0,0.5,42,97.57
2926,G1,478.0,1.75,56,97.57
2927,G2,478.0,1.75,56,97.57
2928,A3,478.5,1.0,50,97.57
2929,G3,479.0,0.5,44,97.57
2930,D3,479.5,1.0,39,97.57
2931,F3,479.5,0.5,51,97.57
2932,G3,480.0,0.5,37,97.57
2933,G3,480.0,1.0,34,97.57
2934,E-3,480.0,0.5,40,97.57
2935,E3,480.5,0.5,51,97.57
2936,D3,480.5,0.5,39,97.57
2937,D3,480.5,0.5,31,97.57
2938,C#3,481.0,1.0,38,97.57
2939,G3,481.0,1.0,34,97.57
2940,C#3,481.0,0.5,32,97.57
2941,F3,481.0,0.5,32,97.57
2942,D3,481.5,1.0,42,97.57
2943,A2,482.0,1.0,39,97.57
2944,F3,482.5,1.0,36,97.57
2945,D4,482.5,1.0,43,97.57
2946,B-2,483.0,0.5,43,97.57
2947,F3,483.5,1.0,36,97.57
2948,D4,483.5,2.0,43,97.57
2949,G2,483.5,0.5,38,97.57
2950,A2,484.0,0.5,44,97.57
2951,A3,484.5,0.5,45,97.57
2952,F2,484.5,0.5,36,97.57
2953,G3,485.0,1.5,43,97.57
2954,G2,485.0,0.5,42,97.57
2955,E4,485.5,1.0,51,97.57
2956,F2,485.5,0.5,36,97.57
2957,E2,486.0,0.5,37,97.57
2958,G3,486.5,1.0,43,97.57
2959,E4,486.5,2.0,51,97.57
2960,D2,486.5,0.5,32,97.57
2961,C2,487.0,1.0,44,97.57
2962,B-3,487.5,0.5,48,97.57
2963,A3,488.0,1.5,44,97.57
2964,C#2,488.0,1.0,40,97.57
2965,F#4,488.5,1.0,49,97.57
2966,D2,489.0,0.5,38,97.57
2967,A3,489.5,1.0,44,97.57
2968,F#4,489.5,1.0,49,97.57
2969,G1,489.5,0.5,32,97.57
2970,A1,490.0,1.0,40,97.57
2971,C4,490.5,0.5,42,97.57
2972,C5,490.5,0.5,42,97.57
2973,B4,491.0,0.5,45,97.57
2974,B3,491.0,1.5,32,97.57
2975,D1,491.0,1.0,34,97.57
2976,D2,491.0,1.0,34,97.57
2977,G#4,491.5,1.0,51,97.57
2978,E-5,492.0,0.5,50,97.57
2979,G#4,492.5,1.0,51,97.57
2980,B3,492.5,1.0,32,97.57
2981,D5,492.5,0.5,38,97.57
2982,C#5,493.0,1.0,47,97.57
2983,D5,493.5,0.5,48,97.57
2984,D4,493.5,0.5,48,97.57
2985,A4,494.0,1.0,48,97.57
2986,C#5,494.0,0.5,46,97.57
2987,C#4,494.0,0.5,46,97.57
2988,C#5,494.5,1.0,56,97.57
2989,F#4,494.5,0.5,47,97.57
2990,G#4,495.0,0.5,50,97.57
2991,B-4,495.0,0.5,53,97.57
2992,B-4,495.5,0.5,43,97.57
2993,C#5,495.5,0.5,56,97.57
2994,G4,495.5,0.5,47,97.57
2995,C#5,496.0,0.5,52,97.57
2996,A4,496.0,0.5,55,97.57
2997,F#5,496.5,1.5,61,97.57
2998,E-5,496.5,0.5,51,97.57
2999,F4,496.5,0.5,45,97.57
3000,C#5,497.0,0.5,56,97.57
3001,G4,497.0,0.5,52,97.57
3002,B-4,497.5,0.5,51,97.57
3003,F4,497.5,0.5,45,97.57
3004,E4,498.0,0.5,46,97.57
3005,F#4,498.0,0.5,48,97.57
3006,C#5,498.0,0.5,48,97.57
3007,D4,498.5,0.5,40,97.57
3008,C#5,498.5,2.0,50,97.57
3009,F4,498.5,2.0,50,97.57
3010,C4,499.0,1.0,44,97.57
3011,C#4,500.0,1.0,40,97.57
3012,F#4,500.5,0.5,56,97.57
3013,C#5,500.5,1.0,56,97.57
3014,G#4,501.0,0.5,50,97.57
3015,D4,501.0,0.5,38,97.57
3016,B-4,501.5,0.5,43,97.57
3017,C#5,501.5,0.5,56,97.57
3018,B-3,501.5,0.5,32,97.57
3019,C#5,502.0,0.5,52,97.57
3020,G3,502.0,0.5,40,97.57
3021,E-5,502.5,0.5,51,97.57
3022,F#5,502.5,2.0,61,97.57
3023,A3,502.5,0.5,28,97.57
3024,C#5,503.0,0.5,56,97.57
3025,B-4,503.5,0.5,51,97.57
3026,C3,503.5,0.5,37,97.57
3027,F#4,504.0,0.5,48,97.57
3028,G#2,504.0,0.5,32,97.57
3029,B-2,504.0,0.5,32,97.57
3030,C#5,504.375,117/1000,55,97.57
3031,C#5,504.5,2.0,50,97.57
3032,E4,504.5,2.0,50,97.57
3033,G2,504.5,0.5,28,97.57
3034,B2,504.5,0.5,28,97.57
3035,G#2,505.0,0.5,34,97.57
3036,B-2,505.0,0.5,34,97.57
3037,B2,505.5,0.5,36,97.57
3038,G2,505.5,1.5,30,97.57
3039,C3,506.0,1.5,37,97.57
3040,B2,506.5,0.5,33,97.57
3041,B-3,506.5,0.5,36,97.57
3042,B-4,506.5,0.5,36,97.57
3043,B-2,507.0,0.5,37,97.57
3044,C4,507.0,0.5,36,97.57
3045,C5,507.0,0.5,36,97.57
3046,D4,507.5,0.5,38,97.57
3047,D5,507.5,0.5,38,97.57
3048,C#3,507.5,0.5,28,97.57
3049,A2,507.5,0.5,28,97.57
3050,F4,508.0,0.5,43,97.57
3051,F5,508.0,0.5,43,97.57
3052,B-2,508.0,0.5,35,97.57
3053,C3,508.0,0.5,35,97.57
3054,A2,508.5,1.5,30,97.57
3055,C#3,508.5,0.5,33,97.57
3056,G5,508.5,0.5,46,97.57
3057,G4,508.5,0.5,46,97.57
3058,D3,509.0,0.5,37,97.57
3059,F4,509.0,0.5,36,97.57
3060,F5,509.0,0.5,36,97.57
3061,C#3,509.5,0.5,35,97.57
3062,D4,509.5,0.75,38,97.57
3063,D5,509.5,0.75,38,97.57
3064,D3,510.0,0.5,32,97.57
3065,C4,510.0,0.5,32,97.57
3066,B-4,510.25,0.25,34,97.57
3067,B-3,510.25,0.25,34,97.57
3068,B-4,510.5,2.0,38,97.57
3069,B-3,510.5,2.0,38,97.57
3070,B3,510.5,0.5,30,97.57
3071,E-3,510.5,0.5,30,97.57
3072,D3,511.0,0.5,34,97.57
3073,C4,511.0,0.5,34,97.57
3074,B3,511.5,0.5,37,97.57
3075,E-3,511.5,1.5,26,97.57
3076,A3,512.0,0.5,41,97.57
3077,G#3,512.5,1.5,39,97.57
3078,B-3,512.5,0.5,36,97.57
3079,B-4,512.5,0.5,36,97.57
3080,C4,513.0,0.5,36,97.57
3081,C5,513.0,0.5,36,97.57
3082,E3,513.0,0.5,34,97.57
3083,D4,513.0,0.5,34,97.57
3084,D5,513.5,0.5,38,97.57
3085,D4,513.5,0.5,38,97.57
3086,C#4,513.5,0.5,32,97.57
3087,F3,513.5,0.5,32,97.57
3088,F4,514.0,0.5,42,97.57
3089,F5,514.0,0.5,42,97.57
3090,D4,514.0,0.5,34,97.57
3091,E-3,514.0,0.5,34,97.57
3092,C#4,514.5,0.5,38,97.57
3093,F3,514.5,1.5,27,97.57
3094,G5,514.5,0.5,46,97.57
3095,G4,514.5,0.5,46,97.57
3096,B3,515.0,0.5,40,97.57
3097,F5,515.0,0.5,36,97.57
3098,F4,515.0,0.5,36,97.57
3099,B-3,515.5,0.5,37,97.57
3100,D5,515.5,0.75,38,97.57
3101,D4,515.5,0.75,38,97.57
3102,F#3,516.0,1.0,26,97.57
3103,B-3,516.0,0.5,37,97.57
3104,B-4,516.25,0.25,34,97.57
3105,B-3,516.25,0.25,34,97.57
3106,C#4,516.5,0.5,37,97.57
3107,B-3,516.5,2.0,38,97.57
3108,B-4,516.5,2.0,38,97.57
3109,F#4,517.0,0.5,39,97.57
3110,F#3,517.0,1.0,26,97.57
3111,B-4,517.5,0.5,38,97.57
3112,B4,518.0,0.5,43,97.57
3113,B-4,518.5,0.5,41,97.57
3114,B-4,518.5,0.5,36,97.57
3115,B-3,518.5,0.5,36,97.57
3116,F#4,519.0,0.5,43,97.57
3117,C4,519.0,0.5,36,97.57
3118,C5,519.0,0.5,36,97.57
3119,C#4,519.5,0.5,37,97.57
3120,B-4,519.5,0.5,38,97.57
3121,B-3,519.5,0.5,38,97.57
3122,B3,520.0,0.5,39,97.57
3123,C#3,520.0,2.0,28,97.57
3124,D5,520.0,0.5,43,97.57
3125,D4,520.0,0.5,43,97.57
3126,C#4,520.5,0.5,38,97.57
3127,E-5,520.5,0.5,46,97.57
3128,E-4,520.5,0.5,46,97.57
3129,F#4,521.0,0.5,44,97.57
3130,D4,521.0,0.5,36,97.57
3131,D5,521.0,0.5,36,97.57
3132,F4,521.5,0.5,39,97.57
3133,B-3,521.5,0.75,38,97.57
3134,B-4,521.5,0.75,38,97.57
3135,B-3,522.0,0.5,37,97.57
3136,F#3,522.0,1.0,26,97.57
3137,G4,522.25,0.25,34,97.57
3138,G3,522.25,0.25,34,97.57
3139,C#4,522.5,0.5,37,97.57
3140,F4,522.5,1.0,38,97.57
3141,F3,522.5,1.0,38,97.57
3142,F#4,523.0,0.5,39,97.57
3143,F#3,523.0,1.0,26,97.57
3144,B-4,523.5,0.5,38,97.57
3145,B4,524.0,0.5,43,97.57
3146,G4,524.417,583/1000,53,97.57
3147,G5,524.5,0.5,59,97.57
3148,B-4,524.5,0.5,41,97.57
3149,F#4,525.0,0.5,43,97.57
3150,F4,525.0,0.5,42,97.57
3151,F5,525.0,0.5,42,97.57
3152,E-4,525.5,0.5,40,97.57
3153,E-5,525.5,0.25,48,97.57
3154,C#4,525.5,0.5,37,97.57
3155,F5,525.75,0.125,41,97.57
3156,E-5,525.875,0.125,41,97.57
3157,F#4,526.0,0.5,37,97.57
3158,D5,526.0,0.25,51,97.57
3159,B-3,526.0,0.5,39,97.57
3160,C5,526.25,0.25,47,97.57
3161,F5,526.5,2.0,51,97.57
3162,F#3,526.5,0.5,38,97.57
3163,B-4,526.5,1.0,44,97.57
3164,F4,526.5,1.0,44,97.57
3165,C#3,527.0,0.5,44,97.57
3166,B-2,527.5,0.5,39,97.57
3167,A4,527.5,1.0,43,97.57
3168,E-4,527.5,1.0,43,97.57
3169,F2,528.0,1.0,34,97.57
3170,D3,528.0,0.5,39,97.57
3171,B-4,528.375,0.125,43,97.57
3172,F3,528.5,0.5,39,97.57
3173,B-4,528.5,1.0,46,97.57
3174,D4,528.5,1.0,46,97.57
3175,B-3,529.0,0.5,41,97.57
3176,F2,529.0,3.0,34,97.57
3177,D4,529.5,0.5,43,97.57
3178,E-4,530.0,0.5,46,97.57
3179,D4,530.5,62/125,44,97.57
3180,G4,530.5,0.5,36,97.57
3181,D4,530.5,0.5,36,97.57
3182,B-3,531.0,62/125,42,97.57
3183,C4,531.0,0.5,34,97.57
3184,A4,531.0,0.5,34,97.57
3185,F3,531.5,0.5,36,97.57
3186,B-3,531.5,0.5,36,97.57
3187,B-4,531.5,0.5,36,97.57
3188,D3,532.0,271/500,40,97.57
3189,F#2,532.0,2.0,34,97.57
3190,A4,532.0,0.5,38,97.57
3191,C5,532.0,0.5,38,97.57
3192,E-3,532.5,271/500,31,97.57
3193,D5,532.5,0.5,40,97.57
3194,G4,532.5,0.5,40,97.57
3195,D3,533.0,271/500,36,97.57
3196,F4,533.0,0.5,41,97.57
3197,E5,533.0,0.5,41,97.57
3198,C#3,533.5,0.5,33,97.57
3199,F5,533.5,0.5,43,97.57
3200,E4,533.5,0.5,43,97.57
3201,D3,534.0,0.5,39,97.57
3202,G5,534.0,0.5,46,97.57
3203,D5,534.0,0.5,46,97.57
3204,F3,534.5,0.5,39,97.57
3205,A5,534.5,0.5,52,97.57
3206,C5,534.5,0.5,52,97.57
3207,B-3,535.0,0.5,41,97.57
3208,F2,535.0,1.0,34,97.57
3209,E5,535.0,0.5,44,97.57
3210,G5,535.0,0.5,44,97.57
3211,D4,535.5,0.5,43,97.57
3212,F5,535.5,0.5,44,97.57
3213,A4,535.5,0.5,44,97.57
3214,E-4,536.0,0.5,46,97.57
3215,E5,536.0,0.5,42,97.57
3216,C5,536.0,0.5,42,97.57
3217,D4,536.5,62/125,44,97.57
3218,G4,536.5,0.5,42,97.57
3219,D5,536.5,0.5,42,97.57
3220,B-3,537.0,62/125,42,97.57
3221,A4,537.0,0.5,38,97.57
3222,C5,537.0,0.5,38,97.57
3223,F3,537.5,0.5,36,97.57
3224,E4,537.5,0.5,40,97.57
3225,B-4,537.5,0.5,40,97.57
3226,D3,538.0,271/500,40,97.57
3227,F#2,538.0,3.0,34,97.57
3228,F4,538.0,0.5,34,97.57
3229,A4,538.0,0.5,34,97.57
3230,E-3,538.5,271/500,32,97.57
3231,C#4,538.5,0.5,44,97.57
3232,G4,538.5,0.5,44,97.57
3233,D3,539.0,271/500,37,97.57
3234,F4,539.0,0.5,36,97.57
3235,D4,539.0,0.5,36,97.57
3236,C#3,539.5,0.5,31,97.57
3237,E-4,539.5,0.5,42,97.57
3238,A4,539.5,0.5,42,97.57
3239,D3,540.0,0.5,39,97.57
3240,G4,540.0,0.5,38,97.57
3241,E4,540.0,0.5,38,97.57
3242,F3,540.5,0.5,39,97.57
3243,F4,540.5,0.5,52,97.57
3244,F5,540.5,0.5,52,97.57
3245,G2,541.0,1.0,34,97.57
3246,D3,541.0,0.5,41,97.57
3247,E-5,541.0,0.5,47,97.57
3248,E-4,541.0,0.5,47,97.57
3249,B-3,541.5,0.5,43,97.57
3250,D4,541.5,0.5,42,97.57
3251,D5,541.5,0.5,42,97.57
3252,C4,542.0,0.5,46,97.57
3253,C5,542.0,0.5,40,97.57
3254,C4,542.0,0.5,40,97.57
3255,B-3,542.5,62/125,44,97.57
3256,B-3,542.5,0.5,40,97.57
3257,B-4,542.5,0.5,40,97.57
3258,G3,543.0,62/125,42,97.57
3259,C4,543.0,0.5,36,97.57
3260,C5,543.0,0.5,36,97.57
3261,D5,543.5,2.0,47,97.57
3262,D4,543.5,0.5,39,97.57
3263,D3,543.5,0.5,36,97.57
3264,C5,544.0,0.5,52,97.57
3265,F#2,544.0,3.0,34,97.57
3266,B-2,544.0,0.25,40,97.57
3267,C3,544.25,0.25,34,97.57
3268,B-4,544.5,0.5,49,97.57
3269,B-2,544.5,0.25,40,97.57
3270,A2,544.75,0.25,34,97.57
3271,A4,545.0,0.5,44,97.57
3272,B-2,545.0,167/1000,34,97.57
3273,D3,545.167,167/1000,37,97.57
3274,G3,545.333,167/1000,40,97.57
3275,B2,545.5,1.5,43,97.57
3276,G4,545.5,0.5,42,97.57
3277,E-5,545.5,0.5,42,97.57
3278,D3,545.667,1333/1000,47,97.57
3279,G3,545.833,667/1000,49,97.57
3280,D4,546.0,1.0,44,97.57
3281,F5,546.0,0.5,44,97.57
3282,F4,546.0,0.5,44,97.57
3283,E-4,546.5,0.5,47,97.57
3284,G5,546.5,1.5,56,97.57
3285,F3,546.5,0.5,40,97.57
3286,F4,547.0,0.5,43,97.57
3287,E-3,547.0,0.5,37,97.57
3288,C3,547.0,0.5,37,97.57
3289,C4,547.0,0.5,37,97.57
3290,G4,547.5,0.5,47,97.57
3291,B-3,547.5,0.5,40,97.57
3292,E-3,547.5,0.5,40,97.57
3293,F5,548.0,0.5,46,97.57
3294,A4,548.0,0.5,46,97.57
3295,F3,548.0,1.0,43,97.57
3296,D4,548.0,1.0,43,97.57
3297,E-5,548.5,0.5,44,97.57
3298,B-4,548.5,0.5,44,97.57
3299,C4,549.0,1.0,44,97.57
3300,F2,549.0,1.0,37,97.57
3301,B4,549.0,0.5,42,97.57
3302,D5,549.0,0.5,42,97.57
3303,C5,549.5,1.0,52,97.57
3304,B-4,550.0,0.5,47,97.57
3305,B-2,550.0,1.0,42,97.57
3306,C4,550.0,0.5,44,97.57
3307,B-3,550.5,0.5,39,97.57
3308,C5,550.5,0.5,40,97.57
3309,A4,550.5,0.5,40,97.57
3310,F3,551.0,0.5,44,97.57
3311,D5,551.0,0.5,38,97.57
3312,G4,551.0,0.5,38,97.57
3313,F4,551.5,0.5,42,97.57
3314,E-5,551.5,1.0,50,97.57
3315,D3,551.5,0.5,40,97.57
3316,E-4,552.0,0.5,47,97.57
3317,B-3,552.0,0.5,37,97.57
3318,B-2,552.0,0.5,37,97.57
3319,D4,552.5,0.5,45,97.57
3320,F5,552.5,1.5,54,97.57
3321,A3,552.5,0.5,40,97.57
3322,F4,553.0,0.5,47,97.57
3323,G3,553.0,0.5,32,97.57
3324,C3,553.0,2.0,27,97.57
3325,B-4,553.5,0.5,47,97.57
3326,F3,553.5,0.5,33,97.57
3327,D5,554.0,0.5,46,97.57
3328,E3,554.0,0.5,35,97.57
3329,D3,554.5,0.5,37,97.57
3330,B-4,554.5,0.5,46,97.57
3331,B-5,554.5,0.5,46,97.57
3332,C3,555.0,0.5,39,97.57
3333,C2,555.0,1.0,33,97.57
3334,C5,555.0,0.5,42,97.57
3335,C6,555.0,0.5,42,97.57
3336,D6,555.5,2.0,54,97.57
3337,D5,555.5,0.5,39,97.57
3338,B-2,555.5,0.5,40,97.57
3339,C6,556.0,0.5,52,97.57
3340,A2,556.0,0.5,41,97.57
3341,C2,556.0,2.0,33,97.57
3342,B-5,556.5,0.5,49,97.57
3343,B-2,556.5,0.5,40,97.57
3344,A5,557.0,0.5,44,97.57
3345,C3,557.0,0.5,39,97.57
3346,D3,557.5,0.5,38,97.57
3347,E-6,557.5,0.5,48,97.57
3348,G5,557.5,0.5,48,97.57
3349,E3,558.0,0.5,37,97.57
3350,C2,558.0,1.0,31,97.57
3351,F5,558.0,0.5,52,97.57
3352,F6,558.0,0.5,52,97.57
3353,G6,558.5,1.5,64,97.57
3354,E-5,558.5,0.5,47,97.57
3355,F3,558.5,0.5,36,97.57
3356,F5,559.0,0.5,43,97.57
3357,G3,559.0,0.5,35,97.57
3358,C3,559.0,2.0,29,97.57
3359,G5,559.5,0.5,47,97.57
3360,A3,559.5,0.5,35,97.57
3361,B-3,560.0,0.5,37,97.57
3362,A5,560.0,0.5,52,97.57
3363,F6,560.0,0.5,52,97.57
3364,B3,560.5,0.5,35,97.57
3365,E-6,560.5,0.5,50,97.57
3366,B-5,560.5,0.5,50,97.57
3367,C4,561.0,0.5,42,97.57
3368,C3,561.0,1.0,36,97.57
3369,B5,561.0,0.5,50,97.57
3370,D6,561.0,0.5,50,97.57
3371,C6,561.5,1.0,59,97.57
3372,B-3,561.5,0.5,38,97.57
3373,B-5,562.0,0.5,54,97.57
3374,F2,562.0,0.5,47,97.57
3375,A3,562.0,0.5,47,97.57
3376,C6,562.5,0.5,46,97.57
3377,A5,562.5,0.5,46,97.57
3378,G2,562.5,0.5,46,97.57
3379,G3,562.5,0.5,46,97.57
3380,G5,563.0,0.5,44,97.57
3381,D6,563.0,0.5,44,97.57
3382,F3,563.0,0.5,44,97.57
3383,G#2,563.0,0.5,44,97.57
3384,F5,563.5,0.5,42,97.57
3385,E-6,563.5,1.0,57,97.57
3386,E-3,563.5,0.5,42,97.57
3387,A2,563.5,0.5,42,97.57
3388,E-5,564.0,0.5,47,97.57
3389,D3,564.0,0.5,37,97.57
3390,B-2,564.0,1.0,40,97.57
3391,F6,564.5,1.5,62,97.57
3392,D5,564.5,0.5,45,97.57
3393,F3,564.5,0.5,40,97.57
3394,E-5,565.0,0.5,47,97.57
3395,B-1,565.0,1.0,46,97.57
3396,B-3,565.0,0.5,43,97.57
3397,F5,565.5,0.5,47,97.57
3398,A3,565.5,0.5,39,97.57
3399,G3,566.0,0.5,39,97.57
3400,E-6,566.0,0.5,46,97.57
3401,G5,566.0,0.5,46,97.57
3402,F3,566.5,0.5,39,97.57
3403,G#5,566.5,0.5,46,97.57
3404,D6,566.5,0.5,46,97.57
3405,E-3,567.0,0.5,39,97.57
3406,B-2,567.0,1.0,42,97.57
3407,A5,567.0,0.5,44,97.57
3408,C6,567.0,0.5,44,97.57
3409,B-5,567.5,0.875,54,97.57
3410,D3,567.5,0.5,44,97.57
3411,A5,568.0,0.25,44,97.57
3412,C3,568.0,0.5,48,97.57
3413,B-1,568.0,1.0,52,97.57
3414,B-5,568.25,0.25,38,97.57
3415,C6,568.375,0.125,37,97.57
3416,D3,568.5,0.5,39,97.57
3417,B-5,568.5,0.5,46,97.57
3418,G5,568.5,0.5,46,97.57
3419,E-3,569.0,0.5,39,97.57
3420,C6,569.0,0.5,46,97.57
3421,F5,569.0,0.5,46,97.57
3422,E-5,569.5,0.5,50,97.57
3423,D6,569.5,1.0,57,97.57
3424,F3,569.5,0.5,36,97.57
3425,D5,570.0,0.5,44,97.57
3426,G3,570.0,0.5,39,97.57
3427,B-2,570.0,1.0,42,97.57
3428,G#3,570.5,0.5,44,97.57
3429,C5,570.5,0.5,50,97.57
3430,E-6,570.5,0.5,50,97.57
3431,A3,571.0,0.5,39,97.57
3432,B-1,571.0,1.0,42,97.57
3433,D5,571.0,0.5,50,97.57
3434,D6,571.0,0.5,50,97.57
3435,G3,571.5,0.5,39,97.57
3436,E-5,571.5,0.5,48,97.57
3437,C6,571.5,0.5,48,97.57
3438,F3,572.0,0.5,41,97.57
3439,B-5,572.0,0.5,44,97.57
3440,E5,572.0,0.5,44,97.57
3441,E-3,572.5,0.5,39,97.57
3442,F5,572.5,0.5,42,97.57
3443,A5,572.5,0.5,42,97.57
3444,B-2,573.0,1.0,38,97.57
3445,D3,573.0,0.5,44,97.57
3446,E-5,573.0,0.5,40,97.57
3447,G5,573.0,0.5,40,97.57
3448,C3,573.5,0.5,38,97.57
3449,F5,573.5,0.5,38,97.57
3450,D5,573.5,0.5,38,97.57
3451,F4,573.5,0.5,38,97.57
3452,B-2,574.0,0.5,46,97.57
3453,B-1,574.0,1.0,50,97.57
3454,E-5,574.0,0.5,37,97.57
3455,G4,574.0,0.5,37,97.57
3456,C5,574.0,0.5,37,97.57
3457,A4,574.375,0.125,40,97.57
3458,D3,574.5,0.5,35,97.57
3459,B-4,574.5,0.5,36,97.57
3460,D5,574.5,0.5,36,97.57
3461,F3,575.0,0.5,39,97.57
3462,A4,575.0,0.5,35,97.57
3463,C5,575.0,0.5,35,97.57
3464,B-3,575.5,0.5,35,97.57
3465,G4,575.5,0.25,28,97.57
3466,B-4,575.5,0.25,28,97.57
3467,F4,575.75,0.25,24,97.57
3468,A4,575.75,0.25,24,97.57
3469,B-3,576.0,1.0,40,97.57
3470,D4,576.0,0.5,37,97.57
3471,G4,576.0,0.25,32,97.57
3472,E-4,576.0,0.25,32,97.57
3473,F4,576.25,0.25,34,97.57
3474,D4,576.25,0.25,34,97.57
3475,F4,576.5,0.5,40,97.57
3476,E-4,576.5,3.0,38,97.57
3477,C4,576.5,3.0,38,97.57
3478,B-4,577.0,0.5,43,97.57
3479,B-3,577.0,2.0,46,97.57
3480,A4,577.5,0.5,39,97.57
3481,G4,578.0,0.5,39,97.57
3482,F4,578.5,0.5,39,97.57
3483,E-4,579.0,0.5,39,97.57
3484,B-3,579.0,1.0,42,97.57
3485,D4,579.5,0.5,44,97.57
3486,F5,579.5,3.0,33,97.57
3487,F4,579.5,3.0,33,97.57
3488,B-4,579.5,3.0,33,97.57
3489,B-2,580.0,1.0,52,97.57
3490,C4,580.0,0.5,48,97.57
3491,D4,580.5,0.5,39,97.57
3492,E-4,581.0,0.5,39,97.57
3493,F4,581.5,0.5,36,97.57
3494,B-3,582.0,1.0,42,97.57
3495,G4,582.0,0.5,39,97.57
3496,G#4,582.5,0.5,44,97.57
3497,E-3,582.5,3.0,35,97.57
3498,C3,582.5,3.0,35,97.57
3499,B-2,583.0,1.0,42,97.57
3500,A4,583.0,0.5,39,97.57
3501,G4,583.5,0.5,39,97.57
3502,F4,584.0,0.5,41,97.57
3503,E-4,584.5,0.5,39,97.57
3504,B-3,585.0,1.0,41,97.57
3505,D4,585.0,0.5,44,97.57
3506,C4,585.5,0.5,38,97.57
3507,E3,585.5,2.5,26,97.57
3508,C#3,585.5,2.5,26,97.57
3509,B-2,586.0,1.0,50,97.57
3510,B-3,586.0,0.5,46,97.57
3511,C4,586.5,0.5,35,97.57
3512,D4,587.0,0.5,39,97.57
3513,E-4,587.5,0.5,35,97.57
3514,E4,588.0,0.5,39,97.57
3515,B-3,588.0,1.0,42,97.57
3516,B-3,588.5,3.0,32,97.57
3517,G4,588.5,1.0,38,97.57
3518,F4,588.5,0.5,35,97.57
3519,G4,589.0,0.5,39,97.57
3520,B-2,589.0,1.0,42,97.57
3521,A4,589.5,1.0,34,97.57
3522,F4,589.5,0.5,34,97.57
3523,E-4,590.0,0.5,39,97.57
3524,B-4,590.5,1.0,37,97.57
3525,D4,590.5,0.5,34,97.57
3526,B-3,590.875,0.625,33,97.57
3527,C4,591.0,0.5,39,97.57
3528,D5,591.5,1.0,41,97.57
3529,F4,591.5,3.0,37,97.57
3530,B-3,591.5,0.5,45,97.57
3531,B-2,592.0,1.0,42,97.57
3532,A3,592.0,0.5,39,97.57
3533,C5,592.5,1.5,41,97.57
3534,B-3,592.5,0.5,38,97.57
3535,C4,593.0,0.5,36,97.57
3536,C#4,593.5,0.5,35,97.57
3537,B-4,594.0,0.5,31,97.57
3538,B-3,594.0,1.0,35,97.57
3539,D4,594.0,0.5,38,97.57
3540,F4,594.5,3.0,37,97.57
3541,E-4,594.5,0.5,34,97.57
3542,B-3,594.5,3.0,31,97.57
3543,B-4,594.5,3.0,31,97.57
3544,B-3,595.0,2.0,35,97.57
3545,D5,597.25,0.25,35,97.57
3546,F4,597.5,1.0,37,97.57
3547,E-5,597.5,0.25,39,97.57
3548,B-3,597.5,1.0,31,97.57
3549,B-4,597.5,1.0,31,97.57
3550,F5,597.75,0.25,42,97.57
3551,F#5,598.0,2.0,42,97.57
3552,B-4,598.0,2.0,42,97.57
3553,A4,600.0,1.0,31,97.57
3554,F5,600.0,1.0,31,97.57
3555,B-2,600.875,0.125,33,97.57
3556,D4,601.0,3.0,40,97.57
3557,B-2,601.0,3.0,33,97.57
3558,B-3,604.0,3.0,35,97.57
3559,F#4,604.0,3.0,35,97.57
3560,B-3,609.5,2.5,35,97.57
3561,F#4,609.5,2.5,35,97.57
3562,C2,612.25,0.25,34,97.57
3563,E3,612.5,2.75,34,97.57
3564,C2,612.5,2.75,34,97.57
3565,F2,615.25,0.25,35,97.57
3566,F2,615.5,3.0,35,97.57
3567,A3,615.5,3.0,35,97.57
3568,E-3,615.5,3.0,35,97.57
3569,B-1,618.25,0.25,27,97.57
3570,D3,618.5,3.0,27,97.57
3571,F2,618.5,3.0,35,97.57
3572,B-1,618.5,3.0,27,97.57
3573,D3,621.5,1.0,27,97.57
3574,F2,621.5,1.0,35,97.57
3575,B-1,621.5,1.0,27,97.57
