,note_name,start_time,duration,velocity,tempo
0,A2,0.0,0.25,77,126.0
1,A1,0.0,0.25,67,126.0
2,B2,0.25,0.25,69,126.0
3,B1,0.25,0.25,60,126.0
4,A2,0.5,0.25,74,126.0
5,A1,0.5,0.25,65,126.0
6,B2,0.75,0.25,69,126.0
7,B1,0.75,0.25,60,126.0
8,C3,1.0,0.25,78,126.0
9,C2,1.0,0.25,68,126.0
10,B2,1.25,0.25,69,126.0
11,B1,1.25,0.25,60,126.0
12,C3,1.5,0.25,77,126.0
13,C2,1.5,0.25,67,126.0
14,B2,1.75,0.25,69,126.0
15,B1,1.75,0.25,60,126.0
16,A2,2.0,0.5,80,126.0
17,A1,2.0,0.5,70,126.0
18,B2,2.5,0.25,69,126.0
19,B1,2.5,0.25,60,126.0
20,C3,3.0,0.5,79,126.0
21,C2,3.0,0.5,69,126.0
22,E3,3.5,0.25,69,126.0
23,E2,3.5,0.25,60,126.0
24,A3,4.0,0.5,79,126.0
25,A2,4.0,0.5,69,126.0
26,B3,4.5,0.25,69,126.0
27,B2,4.5,0.25,60,126.0
28,C4,5.0,0.5,79,126.0
29,C3,5.0,0.5,69,126.0
30,E4,5.5,0.25,69,126.0
31,E3,5.5,0.25,60,126.0
32,E3,6.0,19/40,67,126.0
33,E4,6.0,19/40,66,126.0
34,G#4,6.0,19/40,66,126.0
35,B4,6.0,19/40,66,126.0
36,E3,6.5,19/40,60,126.0
37,E4,6.5,19/40,63,126.0
38,G#4,6.5,19/40,63,126.0
39,B4,6.5,19/40,63,126.0
40,A3,7.0,1.0,70,126.0
41,E4,7.0,1.0,72,126.0
42,A4,7.0,1.0,72,126.0
43,C5,7.0,1.0,72,126.0
44,A2,8.0,0.25,77,126.0
45,A1,8.0,0.25,67,126.0
46,B2,8.25,0.25,69,126.0
47,B1,8.25,0.25,60,126.0
48,A2,8.5,0.25,74,126.0
49,A1,8.5,0.25,65,126.0
50,B2,8.75,0.25,69,126.0
51,B1,8.75,0.25,60,126.0
52,C3,9.0,0.25,78,126.0
53,C2,9.0,0.25,68,126.0
54,B2,9.25,0.25,69,126.0
55,B1,9.25,0.25,60,126.0
56,C3,9.5,0.25,77,126.0
57,C2,9.5,0.25,67,126.0
58,B2,9.75,0.25,69,126.0
59,B1,9.75,0.25,60,126.0
60,A2,10.0,0.5,80,126.0
61,A1,10.0,0.5,70,126.0
62,B2,10.5,0.25,69,126.0
63,B1,10.5,0.25,60,126.0
64,C3,11.0,0.5,79,126.0
65,C2,11.0,0.5,69,126.0
66,E3,11.485,0.25,69,126.0
67,E2,11.5,0.25,60,126.0
68,A3,12.0,0.5,79,126.0
69,A2,12.0,0.5,69,126.0
70,B3,12.5,0.25,69,126.0
71,B2,12.5,0.25,60,126.0
72,C4,13.0,0.5,79,126.0
73,C3,13.0,0.5,69,126.0
74,E4,13.5,0.25,69,126.0
75,E3,13.5,0.25,60,126.0
76,E3,14.0,19/40,67,126.0
77,E4,14.0,19/40,66,126.0
78,G#4,14.0,19/40,66,126.0
79,B4,14.0,19/40,66,126.0
80,E3,14.5,19/40,60,126.0
81,E4,14.5,19/40,63,126.0
82,G#4,14.5,19/40,63,126.0
83,B4,14.5,19/40,63,126.0
84,A4,15.0,1.0,82,126.0
85,A3,15.0,1.0,70,126.0
86,B-3,16.0,0.25,77,126.0
87,B-2,16.0,0.25,67,126.0
88,A3,16.25,0.25,69,126.0
89,A2,16.25,0.25,60,126.0
90,B-3,16.5,0.25,74,126.0
91,B-2,16.5,0.25,65,126.0
92,A3,16.75,0.25,69,126.0
93,A2,16.75,0.25,60,126.0
94,G3,17.0,0.25,78,126.0
95,G2,17.0,0.25,68,126.0
96,A3,17.25,0.25,69,126.0
97,A2,17.25,0.25,60,126.0
98,G3,17.5,0.25,77,126.0
99,G2,17.5,0.25,67,126.0
100,A3,17.75,0.25,69,126.0
101,A2,17.75,0.25,60,126.0
102,B-3,18.0,0.5,80,126.0
103,B-2,18.0,0.5,70,126.0
104,G3,18.5,0.25,69,126.0
105,G2,18.5,0.25,60,126.0
106,G3,19.0,0.5,79,126.0
107,G2,19.0,0.5,69,126.0
108,E3,19.5,0.25,69,126.0
109,E2,19.5,0.25,60,126.0
110,C#2,20.0,0.5,69,126.0
111,G4,20.0,0.5,73,126.0
112,B-4,20.0,0.5,73,126.0
113,E2,20.5,0.25,60,126.0
114,E4,20.5,0.25,64,126.0
115,G4,20.5,0.25,64,126.0
116,E2,21.0,0.5,69,126.0
117,E4,21.0,0.5,73,126.0
118,G4,21.0,0.5,73,126.0
119,G2,21.5,0.25,60,126.0
120,E4,21.5,0.25,64,126.0
121,C#4,21.5,0.25,64,126.0
122,A2,22.0,19/40,67,126.0
123,E4,22.0,19/40,66,126.0
124,C#4,22.0,19/40,66,126.0
125,A3,22.0,19/40,66,126.0
126,A2,22.5,19/40,60,126.0
127,E4,22.5,19/40,63,126.0
128,C#4,22.5,19/40,63,126.0
129,A3,22.5,19/40,63,126.0
130,D3,23.0,1.0,70,126.0
131,F4,23.0,1.0,72,126.0
132,D4,23.0,1.0,72,126.0
133,A3,23.0,1.0,72,126.0
134,C4,24.0,0.25,77,126.0
135,C3,24.0,0.25,67,126.0
136,B3,24.25,0.25,69,126.0
137,B2,24.25,0.25,60,126.0
138,C4,24.5,0.25,74,126.0
139,C3,24.5,0.25,65,126.0
140,B3,24.75,0.25,69,126.0
141,B2,24.75,0.25,60,126.0
142,A3,25.0,0.25,78,126.0
143,A2,25.0,0.25,68,126.0
144,B3,25.25,0.25,69,126.0
145,B2,25.25,0.25,60,126.0
146,A3,25.5,0.25,77,126.0
147,A2,25.5,0.25,67,126.0
148,B3,25.75,0.25,69,126.0
149,B2,25.75,0.25,60,126.0
150,C4,26.0,0.5,80,126.0
151,C3,26.0,0.5,70,126.0
152,A3,26.5,0.25,69,126.0
153,A2,26.5,0.25,60,126.0
154,A3,27.0,0.5,79,126.0
155,A2,27.0,0.5,69,126.0
156,F#3,27.5,0.25,69,126.0
157,F#2,27.5,0.25,60,126.0
158,E-2,28.0,0.5,69,126.0
159,A4,28.0,0.5,73,126.0
160,C5,28.0,0.5,73,126.0
161,F#2,28.5,0.25,60,126.0
162,F#4,28.5,0.25,64,126.0
163,A4,28.5,0.25,64,126.0
164,F#2,29.0,0.5,69,126.0
165,F#4,29.0,0.5,73,126.0
166,A4,29.0,0.5,73,126.0
167,A2,29.5,0.25,60,126.0
168,F#4,29.5,0.25,64,126.0
169,E-4,29.5,0.25,64,126.0
170,B2,30.0,0.5,67,126.0
171,F#4,30.0,0.5,74,126.0
172,E-4,30.0,0.5,74,126.0
173,B2,30.5,0.5,60,126.0
174,F#4,30.5,0.5,70,126.0
175,E-4,30.5,0.5,70,126.0
176,E3,31.0,1.0,70,126.0
177,G#4,31.0,1.0,72,126.0
178,E4,31.0,1.0,72,126.0
179,B3,31.0,1.0,72,126.0
180,A3,32.0,0.25,84,126.0
181,A2,32.0,0.25,73,126.0
182,B3,32.25,0.25,75,126.0
183,B2,32.25,0.25,66,126.0
184,A3,32.5,0.25,81,126.0
185,A2,32.5,0.25,71,126.0
186,B3,32.75,0.25,75,126.0
187,B2,32.75,0.25,66,126.0
188,C4,33.0,0.25,85,126.0
189,C3,33.0,0.25,74,126.0
190,B3,33.25,0.25,75,126.0
191,B2,33.25,0.25,66,126.0
192,C4,33.5,0.25,84,126.0
193,C3,33.5,0.25,73,126.0
194,B3,33.75,0.25,75,126.0
195,B2,33.75,0.25,66,126.0
196,A3,34.0,0.5,88,126.0
197,A2,34.0,0.5,77,126.0
198,B3,34.5,0.25,75,126.0
199,B2,34.5,0.25,66,126.0
200,C4,35.0,0.5,86,126.0
201,C3,35.0,0.5,75,126.0
202,E4,35.5,0.25,75,126.0
203,E3,35.5,0.25,66,126.0
204,A4,36.0,0.5,86,126.0
205,A3,36.0,0.5,75,126.0
206,B4,36.5,0.25,75,126.0
207,B3,36.5,0.25,66,126.0
208,C5,37.0,0.5,86,126.0
209,C4,37.0,0.5,75,126.0
210,E5,37.5,0.25,75,126.0
211,E4,37.5,0.25,66,126.0
212,E3,38.0,19/40,79,126.0
213,E4,38.0,19/40,77,126.0
214,G#4,38.0,19/40,77,126.0
215,B4,38.0,19/40,77,126.0
216,E3,38.5,19/40,69,126.0
217,E4,38.5,19/40,72,126.0
218,G#4,38.5,19/40,72,126.0
219,B4,38.5,19/40,72,126.0
220,A3,39.0,19/40,80,126.0
221,E4,39.0,19/40,72,126.0
222,A4,39.0,19/40,72,126.0
223,C5,39.0,19/40,72,126.0
224,A2,39.5,19/40,72,126.0
225,E4,39.5,19/40,75,126.0
226,G4,39.5,19/40,75,126.0
227,A4,39.5,19/40,75,126.0
228,C#5,39.5,19/40,75,126.0
229,D3,40.0,0.25,86,126.0
230,F4,40.0,1.0,82,126.0
231,A4,40.0,1.0,82,126.0
232,D5,40.0,1.0,82,126.0
233,E3,40.25,0.25,73,126.0
234,D3,40.5,0.25,78,126.0
235,E3,40.75,0.25,69,126.0
236,F4,41.0,0.25,81,126.0
237,F3,41.0,0.25,71,126.0
238,E4,41.25,0.25,72,126.0
239,E3,41.25,0.25,63,126.0
240,F4,41.5,0.25,80,126.0
241,F3,41.5,0.25,70,126.0
242,E4,41.75,0.25,72,126.0
243,E3,41.75,0.25,63,126.0
244,D4,42.0,0.5,84,126.0
245,D3,42.0,0.5,73,126.0
246,E4,42.5,0.25,72,126.0
247,E3,42.5,0.25,63,126.0
248,F4,43.0,0.5,82,126.0
249,F3,43.0,0.5,72,126.0
250,A4,43.5,0.25,72,126.0
251,A3,43.5,0.25,63,126.0
252,D5,44.0,0.5,82,126.0
253,D4,44.0,0.5,72,126.0
254,E5,44.5,0.25,72,126.0
255,E4,44.5,0.25,63,126.0
256,F5,45.0,0.5,82,126.0
257,F4,45.0,0.5,72,126.0
258,A5,45.5,0.25,72,126.0
259,A4,45.5,0.25,63,126.0
260,E4,46.0,19/40,70,126.0
261,B4,46.0,19/40,76,126.0
262,E5,46.0,19/40,76,126.0
263,G#5,46.0,19/40,76,126.0
264,E4,46.5,19/40,63,126.0
265,B4,46.5,19/40,71,126.0
266,E5,46.5,19/40,71,126.0
267,G#5,46.5,19/40,71,126.0
268,A4,47.0,1.0,73,126.0
269,C5,47.0,1.0,82,126.0
270,E5,47.0,1.0,82,126.0
271,A5,47.0,1.0,82,126.0
272,B-3,48.0,0.25,77,126.0
273,B-2,48.0,0.25,67,126.0
274,A3,48.25,0.25,69,126.0
275,A2,48.25,0.25,60,126.0
276,B-3,48.5,0.25,74,126.0
277,B-2,48.5,0.25,65,126.0
278,A3,48.75,0.25,69,126.0
279,A2,48.75,0.25,60,126.0
280,G3,49.0,0.25,78,126.0
281,G2,49.0,0.25,68,126.0
282,A3,49.25,0.25,69,126.0
283,A2,49.25,0.25,60,126.0
284,G3,49.5,0.25,77,126.0
285,G2,49.5,0.25,67,126.0
286,A3,49.75,0.25,69,126.0
287,A2,49.75,0.25,60,126.0
288,B-3,50.0,0.5,80,126.0
289,B-2,50.0,0.5,70,126.0
290,G3,50.5,0.25,69,126.0
291,G2,50.5,0.25,60,126.0
292,G3,51.0,0.5,79,126.0
293,G2,51.0,0.5,69,126.0
294,E3,51.5,0.25,69,126.0
295,E2,51.5,0.25,60,126.0
296,C#2,52.0,0.5,69,126.0
297,G4,52.0,0.5,73,126.0
298,B-4,52.0,0.5,73,126.0
299,E2,52.5,0.25,60,126.0
300,E4,52.5,0.25,64,126.0
301,G4,52.5,0.25,64,126.0
302,E2,53.0,0.5,69,126.0
303,E4,53.0,0.5,73,126.0
304,G4,53.0,0.5,73,126.0
305,G2,53.5,0.25,60,126.0
306,E4,53.5,0.25,64,126.0
307,C#4,53.5,0.25,64,126.0
308,A2,54.0,19/40,67,126.0
309,E4,54.0,19/40,66,126.0
310,C#4,54.0,19/40,66,126.0
311,A3,54.0,19/40,66,126.0
312,A2,54.5,19/40,60,126.0
313,E4,54.5,19/40,63,126.0
314,C#4,54.5,19/40,63,126.0
315,A3,54.5,19/40,63,126.0
316,D3,55.0,1.0,70,126.0
317,F4,55.0,1.0,72,126.0
318,D4,55.0,1.0,72,126.0
319,A3,55.0,1.0,72,126.0
320,C4,56.0,0.25,77,126.0
321,C3,56.0,0.25,67,126.0
322,B3,56.25,0.25,69,126.0
323,B2,56.25,0.25,60,126.0
324,C4,56.5,0.25,74,126.0
325,C3,56.5,0.25,65,126.0
326,B3,56.75,0.25,69,126.0
327,B2,56.75,0.25,60,126.0
328,A3,57.0,0.25,78,126.0
329,A2,57.0,0.25,68,126.0
330,B3,57.25,0.25,69,126.0
331,B2,57.25,0.25,60,126.0
332,A3,57.5,0.25,77,126.0
333,A2,57.5,0.25,67,126.0
334,B3,57.75,0.25,69,126.0
335,B2,57.75,0.25,60,126.0
336,C4,58.0,0.5,80,126.0
337,C3,58.0,0.5,70,126.0
338,A3,58.5,0.25,69,126.0
339,A2,58.5,0.25,60,126.0
340,A3,59.0,0.5,79,126.0
341,A2,59.0,0.5,69,126.0
342,F#3,59.5,0.25,69,126.0
343,F#2,59.5,0.25,60,126.0
344,E-2,60.0,0.5,69,126.0
345,A4,60.0,0.5,73,126.0
346,C5,60.0,0.5,73,126.0
347,F#2,60.5,0.25,60,126.0
348,F#4,60.5,0.25,64,126.0
349,A4,60.5,0.25,64,126.0
350,F#2,61.0,0.5,69,126.0
351,F#4,61.0,0.5,73,126.0
352,A4,61.0,0.5,73,126.0
353,A2,61.5,0.25,60,126.0
354,F#4,61.5,0.25,64,126.0
355,E-4,61.5,0.25,64,126.0
356,B2,62.0,19/40,67,126.0
357,F#4,62.0,19/40,74,126.0
358,E-4,62.0,19/40,74,126.0
359,B2,62.5,19/40,60,126.0
360,F#4,62.5,19/40,70,126.0
361,E-4,62.5,19/40,70,126.0
362,E3,63.0,1.0,70,126.0
363,G#4,63.0,1.0,72,126.0
364,E4,63.0,1.0,72,126.0
365,B3,63.0,1.0,72,126.0
366,A3,64.0,0.25,84,126.0
367,A2,64.0,0.25,73,126.0
368,B3,64.25,0.25,75,126.0
369,B2,64.25,0.25,66,126.0
370,A3,64.5,0.25,81,126.0
371,A2,64.5,0.25,71,126.0
372,B3,64.75,0.25,75,126.0
373,B2,64.75,0.25,66,126.0
374,C4,65.0,0.25,85,126.0
375,C3,65.0,0.25,74,126.0
376,B3,65.25,0.25,75,126.0
377,B2,65.25,0.25,66,126.0
378,C4,65.5,0.25,84,126.0
379,C3,65.5,0.25,73,126.0
380,B3,65.75,0.25,75,126.0
381,B2,65.75,0.25,66,126.0
382,A3,66.0,0.5,88,126.0
383,A2,66.0,0.5,77,126.0
384,B3,66.5,0.25,75,126.0
385,B2,66.5,0.25,66,126.0
386,C4,67.0,0.5,86,126.0
387,C3,67.0,0.5,75,126.0
388,E4,67.5,0.25,75,126.0
389,E3,67.5,0.25,66,126.0
390,A4,68.0,0.5,86,126.0
391,A3,68.0,0.5,75,126.0
392,B4,68.5,0.25,75,126.0
393,B3,68.5,0.25,66,126.0
394,C5,69.0,0.5,86,126.0
395,C4,69.0,0.5,75,126.0
396,E5,69.5,0.25,75,126.0
397,E4,69.5,0.25,66,126.0
398,E3,70.0,19/40,79,126.0
399,E4,70.0,19/40,77,126.0
400,G#4,70.0,19/40,77,126.0
401,B4,70.0,19/40,77,126.0
402,E3,70.5,19/40,69,126.0
403,E4,70.5,19/40,72,126.0
404,G#4,70.5,19/40,72,126.0
405,B4,70.5,19/40,72,126.0
406,A3,71.0,19/40,80,126.0
407,E4,71.0,19/40,72,126.0
408,A4,71.0,19/40,72,126.0
409,C5,71.0,19/40,72,126.0
410,A2,71.5,19/40,72,126.0
411,E4,71.5,19/40,75,126.0
412,G4,71.5,19/40,75,126.0
413,A4,71.5,19/40,75,126.0
414,C#5,71.5,19/40,75,126.0
415,D3,72.0,0.25,86,126.0
416,F4,72.0,1.0,82,126.0
417,A4,72.0,1.0,82,126.0
418,D5,72.0,1.0,82,126.0
419,E3,72.25,0.25,73,126.0
420,D3,72.5,0.25,78,126.0
421,E3,72.75,0.25,69,126.0
422,F4,73.0,0.25,81,126.0
423,F3,73.0,0.25,71,126.0
424,E4,73.25,0.25,72,126.0
425,E3,73.25,0.25,63,126.0
426,F4,73.5,0.25,80,126.0
427,F3,73.5,0.25,70,126.0
428,E4,73.75,0.25,72,126.0
429,E3,73.75,0.25,63,126.0
430,D4,74.0,0.5,84,126.0
431,D3,74.0,0.5,73,126.0
432,E4,74.5,0.25,72,126.0
433,E3,74.5,0.25,63,126.0
434,F4,75.0,0.5,82,126.0
435,F3,75.0,0.5,72,126.0
436,A4,75.5,0.25,72,126.0
437,A3,75.5,0.25,63,126.0
438,D5,76.0,0.5,82,126.0
439,D4,76.0,0.5,72,126.0
440,E5,76.5,0.25,72,126.0
441,E4,76.5,0.25,63,126.0
442,F5,77.0,0.5,82,126.0
443,F4,77.0,0.5,72,126.0
444,A5,77.5,0.25,72,126.0
445,A4,77.5,0.25,63,126.0
446,E4,78.0,19/40,70,126.0
447,B4,78.0,19/40,76,126.0
448,E5,78.0,19/40,76,126.0
449,G#5,78.0,19/40,76,126.0
450,E4,78.5,19/40,63,126.0
451,B4,78.5,19/40,71,126.0
452,E5,78.5,19/40,71,126.0
453,G#5,78.5,19/40,71,126.0
454,A4,79.0,1.0,73,126.0
455,C5,79.0,1.0,82,126.0
456,E5,79.0,1.0,82,126.0
457,A5,79.0,1.0,82,126.0
458,A4,80.0,0.25,37,126.0
459,F3,80.0,0.25,34,126.0
460,F4,80.25,0.25,29,126.0
461,A3,80.25,0.25,27,126.0
462,A4,80.5,0.25,40,126.0
463,F3,80.5,0.25,35,126.0
464,F4,80.75,0.25,33,126.0
465,A3,80.75,0.25,27,126.0
466,A4,81.0,0.25,41,126.0
467,F3,81.0,0.25,36,126.0
468,F4,81.25,0.25,35,126.0
469,A3,81.25,0.25,32,126.0
470,G4,81.5,0.25,44,126.0
471,C3,81.5,0.25,38,126.0
472,E4,81.75,0.25,39,126.0
473,G3,81.75,0.25,31,126.0
474,A4,82.0,0.25,47,126.0
475,F3,82.0,0.25,40,126.0
476,F4,82.25,0.25,42,126.0
477,A3,82.25,0.25,36,126.0
478,B-4,82.5,0.25,45,126.0
479,G3,82.5,0.25,40,126.0
480,G4,82.75,0.25,48,126.0
481,B-3,82.75,0.25,35,126.0
482,C5,83.0,0.25,51,126.0
483,A3,83.0,0.25,44,126.0
484,A4,83.25,0.25,48,126.0
485,C4,83.25,0.25,40,126.0
486,G4,83.5,0.25,46,126.0
487,C3,83.5,0.25,36,126.0
488,E4,83.75,0.25,44,126.0
489,G3,83.75,0.25,36,126.0
490,A4,84.0,0.25,37,126.0
491,F3,84.0,0.25,34,126.0
492,F4,84.25,0.25,30,126.0
493,A3,84.25,0.25,28,126.0
494,A4,84.5,0.25,40,126.0
495,F3,84.5,0.25,35,126.0
496,F4,84.75,0.25,35,126.0
497,A3,84.75,0.25,29,126.0
498,A4,85.0,0.25,41,126.0
499,F3,85.0,0.25,36,126.0
500,F4,85.25,0.25,37,126.0
501,A3,85.25,0.25,31,126.0
502,G4,85.5,0.25,44,126.0
503,C3,85.5,0.25,38,126.0
504,E4,85.75,0.25,39,126.0
505,G3,85.75,0.25,31,126.0
506,A4,86.0,0.25,47,126.0
507,F3,86.0,0.25,40,126.0
508,F4,86.25,0.25,42,126.0
509,A3,86.25,0.25,36,126.0
510,B-4,86.5,0.25,45,126.0
511,G3,86.5,0.25,40,126.0
512,G4,86.75,0.25,48,126.0
513,B-3,86.75,0.25,35,126.0
514,C5,87.0,0.25,51,126.0
515,A3,87.0,0.25,44,126.0
516,A4,87.25,0.25,52,126.0
517,C4,87.25,0.25,40,126.0
518,D5,87.5,0.25,57,126.0
519,G3,87.5,0.25,48,126.0
520,B4,87.75,0.25,51,126.0
521,B3,87.75,0.25,43,126.0
522,E5,88.0,0.25,58,126.0
523,C4,88.0,0.25,50,126.0
524,C5,88.25,0.25,47,126.0
525,E4,88.25,0.25,41,126.0
526,E5,88.5,0.25,55,126.0
527,C4,88.5,0.25,40,126.0
528,C5,88.75,0.25,47,126.0
529,E4,88.75,0.25,33,126.0
530,E5,89.0,0.25,52,126.0
531,C4,89.0,0.25,40,126.0
532,C5,89.25,0.25,40,126.0
533,E4,89.25,0.25,35,126.0
534,D5,89.5,0.25,46,126.0
535,G3,89.5,0.25,40,126.0
536,B4,89.75,0.25,40,126.0
537,D4,89.75,0.25,32,126.0
538,E5,90.0,0.25,47,126.0
539,C4,90.0,0.25,40,126.0
540,C5,90.25,0.25,42,126.0
541,E4,90.25,0.25,36,126.0
542,F5,90.5,0.25,45,126.0
543,D4,90.5,0.25,40,126.0
544,D5,90.75,0.25,48,126.0
545,F4,90.75,0.25,35,126.0
546,G5,91.0,0.25,51,126.0
547,E4,91.0,0.25,44,126.0
548,E5,91.25,0.25,48,126.0
549,G4,91.25,0.25,37,126.0
550,D5,91.5,0.25,46,126.0
551,G3,91.5,0.25,38,126.0
552,B4,91.75,0.25,44,126.0
553,D4,91.75,0.25,40,126.0
554,E5,92.0,0.25,51,126.0
555,C4,92.0,0.25,44,126.0
556,C5,92.25,0.25,43,126.0
557,E4,92.25,0.25,33,126.0
558,E5,92.5,0.25,49,126.0
559,C4,92.5,0.25,39,126.0
560,C5,92.75,0.25,40,126.0
561,E4,92.75,0.25,33,126.0
562,E5,93.0,0.25,49,126.0
563,C4,93.0,0.25,40,126.0
564,C5,93.25,0.25,40,126.0
565,E4,93.25,0.25,35,126.0
566,D5,93.5,0.25,46,126.0
567,G3,93.5,0.25,40,126.0
568,B4,93.75,0.25,40,126.0
569,D4,93.75,0.25,32,126.0
570,E5,94.0,0.25,47,126.0
571,C4,94.0,0.25,40,126.0
572,C5,94.25,0.25,42,126.0
573,E4,94.25,0.25,36,126.0
574,D5,94.5,0.25,45,126.0
575,D4,94.5,0.25,40,126.0
576,B4,94.75,0.25,41,126.0
577,F4,94.75,0.25,35,126.0
578,C5,95.0,0.25,48,126.0
579,E4,95.0,0.5,44,126.0
580,G4,95.25,0.25,40,126.0
581,B-4,95.5,0.25,40,126.0
582,G4,95.75,0.25,36,126.0
583,A4,96.0,0.25,37,126.0
584,F3,96.0,0.25,34,126.0
585,F4,96.25,0.25,32,126.0
586,A3,96.25,0.25,29,126.0
587,A4,96.5,0.25,40,126.0
588,F3,96.5,0.25,35,126.0
589,F4,96.75,0.25,34,126.0
590,A3,96.75,0.25,29,126.0
591,A4,97.0,0.25,41,126.0
592,F3,97.0,0.25,36,126.0
593,F4,97.25,0.25,37,126.0
594,A3,97.25,0.25,32,126.0
595,G4,97.5,0.25,44,126.0
596,C3,97.5,0.25,38,126.0
597,E4,97.75,0.25,39,126.0
598,G3,97.75,0.25,31,126.0
599,A4,98.0,0.25,47,126.0
600,F3,98.0,0.25,40,126.0
601,F4,98.25,0.25,42,126.0
602,A3,98.25,0.25,36,126.0
603,B-4,98.5,0.25,45,126.0
604,G3,98.5,0.25,40,126.0
605,G4,98.75,0.25,48,126.0
606,B-3,98.75,0.25,35,126.0
607,C5,99.0,0.25,51,126.0
608,A3,99.0,0.25,44,126.0
609,A4,99.25,0.25,48,126.0
610,C4,99.25,0.25,40,126.0
611,G4,99.5,0.25,45,126.0
612,C3,99.5,0.25,38,126.0
613,E4,99.75,0.25,42,126.0
614,G3,99.75,0.25,36,126.0
615,A4,100.0,0.25,37,126.0
616,F3,100.0,0.25,34,126.0
617,F4,100.25,0.25,34,126.0
618,A3,100.25,0.25,29,126.0
619,A4,100.5,0.25,40,126.0
620,F3,100.5,0.25,35,126.0
621,F4,100.75,0.25,36,126.0
622,A3,100.75,0.25,29,126.0
623,A4,101.0,0.25,41,126.0
624,F3,101.0,0.25,36,126.0
625,F4,101.25,0.25,37,126.0
626,A3,101.25,0.25,32,126.0
627,G4,101.5,0.25,44,126.0
628,C3,101.5,0.25,38,126.0
629,E4,101.75,0.25,39,126.0
630,G3,101.75,0.25,31,126.0
631,A4,102.0,0.25,47,126.0
632,F3,102.0,0.25,40,126.0
633,F4,102.25,0.25,42,126.0
634,A3,102.25,0.25,36,126.0
635,B-4,102.5,0.25,45,126.0
636,G3,102.5,0.25,40,126.0
637,G4,102.75,0.25,48,126.0
638,B-3,102.75,0.25,35,126.0
639,C5,103.0,0.25,51,126.0
640,A3,103.0,0.25,44,126.0
641,A4,103.25,0.25,52,126.0
642,C4,103.25,0.25,40,126.0
643,D5,103.5,0.25,57,126.0
644,G3,103.5,0.25,48,126.0
645,B4,103.75,0.25,51,126.0
646,B3,103.75,0.25,43,126.0
647,E5,104.0,0.25,58,126.0
648,C4,104.0,0.25,50,126.0
649,C5,104.25,0.25,47,126.0
650,E4,104.25,0.25,41,126.0
651,E5,104.5,0.25,55,126.0
652,C4,104.5,0.25,40,126.0
653,C5,104.75,0.25,47,126.0
654,E4,104.75,0.25,33,126.0
655,E5,105.0,0.25,52,126.0
656,C4,105.0,0.25,40,126.0
657,C5,105.25,0.25,40,126.0
658,E4,105.25,0.25,35,126.0
659,D5,105.5,0.25,46,126.0
660,G3,105.5,0.25,40,126.0
661,B4,105.75,0.25,40,126.0
662,D4,105.75,0.25,32,126.0
663,E5,106.0,0.25,47,126.0
664,C4,106.0,0.25,40,126.0
665,C5,106.25,0.25,42,126.0
666,E4,106.25,0.25,36,126.0
667,F5,106.5,0.25,45,126.0
668,D4,106.5,0.25,40,126.0
669,D5,106.75,0.25,48,126.0
670,F4,106.75,0.25,35,126.0
671,G5,107.0,0.25,55,126.0
672,E4,107.0,0.25,44,126.0
673,E5,107.25,0.25,48,126.0
674,G4,107.25,0.25,37,126.0
675,D5,107.5,0.25,46,126.0
676,G3,107.5,0.25,38,126.0
677,B4,107.75,0.25,44,126.0
678,D4,107.75,0.25,40,126.0
679,E5,108.0,0.25,51,126.0
680,C4,108.0,0.25,44,126.0
681,C5,108.25,0.25,43,126.0
682,E4,108.25,0.25,33,126.0
683,E5,108.5,0.25,49,126.0
684,C4,108.5,0.25,39,126.0
685,C5,108.75,0.25,40,126.0
686,E4,108.75,0.25,33,126.0
687,E5,109.0,0.25,45,126.0
688,C4,109.0,0.25,40,126.0
689,C5,109.25,0.25,42,126.0
690,E4,109.25,0.25,35,126.0
691,D5,109.5,0.25,46,126.0
692,G3,109.5,0.25,40,126.0
693,B4,109.75,0.25,40,126.0
694,D4,109.75,0.25,32,126.0
695,E5,110.0,0.25,47,126.0
696,C4,110.0,0.25,40,126.0
697,C5,110.25,0.25,42,126.0
698,E4,110.25,0.25,36,126.0
699,D5,110.5,0.25,45,126.0
700,D4,110.5,0.25,40,126.0
701,B4,110.75,0.25,41,126.0
702,F4,110.75,0.25,35,126.0
703,C5,111.0,0.25,48,126.0
704,E4,111.0,0.5,44,126.0
705,G4,111.25,0.25,40,126.0
706,B-4,111.5,0.25,40,126.0
707,G4,111.75,0.25,40,126.0
708,B-4,112.0,0.25,47,126.0
709,C2,112.0,1.5,78,126.0
710,G4,112.25,0.25,40,126.0
711,B-4,112.5,0.25,47,126.0
712,G4,112.75,0.25,40,126.0
713,B-4,113.0,0.25,47,126.0
714,G4,113.25,0.25,41,126.0
715,B-4,113.5,0.25,47,126.0
716,C#2,113.5,0.5,58,126.0
717,G4,113.75,0.25,42,126.0
718,B-4,114.0,0.25,47,126.0
719,C2,114.0,0.5,70,126.0
720,G4,114.25,0.25,41,126.0
721,B-4,114.5,0.25,47,126.0
722,G#2,114.5,0.5,61,126.0
723,G4,114.75,0.25,42,126.0
724,B-4,115.0,0.25,47,126.0
725,G2,115.0,1.0,66,126.0
726,G4,115.25,0.25,41,126.0
727,B-4,115.5,0.25,47,126.0
728,G4,115.75,0.25,42,126.0
729,G#4,116.0,0.25,47,126.0
730,C2,116.0,1.5,80,126.0
731,F4,116.25,0.25,40,126.0
732,G#4,116.5,0.25,47,126.0
733,F4,116.75,0.25,40,126.0
734,G#4,117.0,0.25,49,126.0
735,F4,117.25,0.25,43,126.0
736,G#4,117.5,0.25,52,126.0
737,C#2,117.5,0.5,66,126.0
738,F4,117.75,0.25,48,126.0
739,G#4,118.0,0.25,57,126.0
740,C2,118.0,0.5,78,126.0
741,F4,118.25,0.25,49,126.0
742,G#4,118.5,0.25,54,126.0
743,B-2,118.5,0.5,66,126.0
744,F4,118.75,0.25,42,126.0
745,G#4,119.0,0.25,47,126.0
746,G#2,119.0,1.0,76,126.0
747,F4,119.25,0.25,41,126.0
748,G#4,119.5,0.25,47,126.0
749,F4,119.75,0.25,37,126.0
750,F4,120.0,1.5,45,126.0
751,C#4,120.0,0.25,41,126.0
752,C#3,120.0,1.5,46,126.0
753,G#3,120.25,0.25,33,126.0
754,C#4,120.5,0.25,41,126.0
755,G#3,120.75,0.25,34,126.0
756,C#4,121.0,0.25,41,126.0
757,G#3,121.25,0.25,33,126.0
758,E-4,121.5,0.5,42,126.0
759,C4,121.5,0.25,41,126.0
760,G#2,121.5,0.5,43,126.0
761,G#3,121.75,0.25,34,126.0
762,C#4,122.0,0.25,41,126.0
763,F4,122.0,0.5,42,126.0
764,C#3,122.0,0.5,46,126.0
765,G#3,122.25,0.25,34,126.0
766,F#4,122.5,0.5,42,126.0
767,E-3,122.5,0.5,42,126.0
768,G#3,122.75,0.25,34,126.0
769,G#4,123.0,0.5,42,126.0
770,F3,123.0,0.5,46,126.0
771,G#3,123.25,0.25,34,126.0
772,C4,123.5,0.25,41,126.0
773,E-4,123.5,0.5,42,126.0
774,G#2,123.5,0.5,43,126.0
775,G#3,123.75,0.25,34,126.0
776,F4,124.0,0.5,42,126.0
777,C#3,124.0,0.5,46,126.0
778,C#4,124.25,0.25,34,126.0
779,G4,124.5,0.5,46,126.0
780,C#3,124.5,0.5,47,126.0
781,E3,124.5,0.5,47,126.0
782,E4,124.75,0.25,38,126.0
783,G#4,125.0,0.5,48,126.0
784,C#3,125.0,19/40,53,126.0
785,F3,125.0,19/40,53,126.0
786,F4,125.25,0.25,40,126.0
787,B-4,125.5,0.5,53,126.0
788,C#3,125.5,19/40,59,126.0
789,F3,125.5,19/40,59,126.0
790,F4,125.75,0.25,46,126.0
791,C5,126.0,0.25,55,126.0
792,C3,126.0,0.5,65,126.0
793,G3,126.0,0.5,65,126.0
794,E4,126.25,0.25,44,126.0
795,B-4,126.5,0.25,50,126.0
796,G4,126.75,0.25,42,126.0
797,E4,127.0,0.25,47,126.0
798,C4,127.25,0.25,47,126.0
799,B-3,127.5,0.25,46,126.0
800,G3,127.75,0.25,45,126.0
801,A4,128.0,0.25,37,126.0
802,F3,128.0,0.25,34,126.0
803,F4,128.25,0.25,27,126.0
804,A3,128.25,0.25,29,126.0
805,A4,128.5,0.25,40,126.0
806,F3,128.5,0.25,35,126.0
807,F4,128.75,0.25,32,126.0
808,A3,128.75,0.25,29,126.0
809,A4,129.0,0.25,41,126.0
810,F3,129.0,0.25,36,126.0
811,F4,129.25,0.25,37,126.0
812,A3,129.25,0.25,32,126.0
813,G4,129.5,0.25,44,126.0
814,C3,129.5,0.25,38,126.0
815,E4,129.75,0.25,39,126.0
816,G3,129.75,0.25,31,126.0
817,A4,130.0,0.25,47,126.0
818,F3,130.0,0.25,40,126.0
819,F4,130.25,0.25,42,126.0
820,A3,130.25,0.25,36,126.0
821,B-4,130.5,0.25,45,126.0
822,G3,130.5,0.25,40,126.0
823,G4,130.75,0.25,48,126.0
824,B-3,130.75,0.25,35,126.0
825,C5,131.0,0.25,51,126.0
826,A3,131.0,0.25,44,126.0
827,A4,131.25,0.25,48,126.0
828,C4,131.25,0.25,40,126.0
829,G4,131.5,0.25,44,126.0
830,C3,131.5,0.25,39,126.0
831,E4,131.75,0.25,42,126.0
832,G3,131.75,0.25,39,126.0
833,A4,132.0,0.25,37,126.0
834,F3,132.0,0.25,34,126.0
835,F4,132.25,0.25,32,126.0
836,A3,132.25,0.25,29,126.0
837,A4,132.5,0.25,40,126.0
838,F3,132.5,0.25,35,126.0
839,F4,132.75,0.25,34,126.0
840,A3,132.75,0.25,29,126.0
841,A4,133.0,0.25,41,126.0
842,F3,133.0,0.25,36,126.0
843,F4,133.25,0.25,37,126.0
844,A3,133.25,0.25,32,126.0
845,G4,133.5,0.25,44,126.0
846,C3,133.5,0.25,38,126.0
847,E4,133.75,0.25,39,126.0
848,G3,133.75,0.25,31,126.0
849,A4,134.0,0.25,47,126.0
850,F3,134.0,0.25,40,126.0
851,F4,134.25,0.25,42,126.0
852,A3,134.25,0.25,36,126.0
853,B-4,134.5,0.25,45,126.0
854,G3,134.5,0.25,40,126.0
855,G4,134.75,0.25,48,126.0
856,B-3,134.75,0.25,35,126.0
857,C5,135.0,0.25,51,126.0
858,A3,135.0,0.25,44,126.0
859,A4,135.25,0.25,48,126.0
860,C4,135.25,0.25,40,126.0
861,E4,135.5,0.25,46,126.0
862,F3,135.5,0.25,39,126.0
863,F4,135.75,0.25,44,126.0
864,A3,135.75,0.25,39,126.0
865,D5,136.0,1.5,57,126.0
866,B-4,136.0,0.25,41,126.0
867,B-3,136.0,1.5,50,126.0
868,F4,136.25,0.25,33,126.0
869,B-4,136.5,0.25,41,126.0
870,F4,136.75,0.25,34,126.0
871,B-4,137.0,0.25,41,126.0
872,F4,137.25,0.25,33,126.0
873,C5,137.5,0.5,42,126.0
874,A4,137.5,0.25,41,126.0
875,F3,137.5,0.5,43,126.0
876,F4,137.75,0.25,34,126.0
877,B-4,138.0,0.25,47,126.0
878,D5,138.0,0.5,47,126.0
879,B-3,138.0,0.5,46,126.0
880,F4,138.25,0.25,40,126.0
881,E5,138.5,0.5,53,126.0
882,C4,138.5,0.5,47,126.0
883,F4,138.75,0.25,44,126.0
884,F5,139.0,0.5,56,126.0
885,D4,139.0,0.5,51,126.0
886,F4,139.25,0.25,46,126.0
887,D5,139.5,0.5,51,126.0
888,B-3,139.5,0.5,47,126.0
889,F4,139.75,0.25,38,126.0
890,C5,140.0,0.5,49,126.0
891,A3,140.0,0.5,46,126.0
892,F4,140.25,0.25,34,126.0
893,A4,140.5,0.5,42,126.0
894,C4,140.5,0.5,41,126.0
895,E4,140.75,0.25,34,126.0
896,F4,141.0,0.5,49,126.0
897,D4,141.0,0.5,44,126.0
898,G3,141.5,0.25,38,126.0
899,D4,141.5,0.25,42,126.0
900,B-4,141.5,0.25,42,126.0
901,C3,142.0,1.0,40,126.0
902,B-3,142.0,1.0,51,126.0
903,E4,142.0,1.0,51,126.0
904,F3,143.0,0.5,37,126.0
905,A3,143.0,0.5,43,126.0
906,F4,143.0,0.5,43,126.0
907,B-4,144.0,0.25,47,126.0
908,C2,144.0,1.5,78,126.0
909,G4,144.25,0.25,40,126.0
910,B-4,144.5,0.25,47,126.0
911,G4,144.75,0.25,40,126.0
912,B-4,145.0,0.25,47,126.0
913,G4,145.25,0.25,41,126.0
914,B-4,145.5,0.25,47,126.0
915,C#2,145.5,0.5,58,126.0
916,G4,145.75,0.25,42,126.0
917,B-4,146.0,0.25,47,126.0
918,C2,146.0,0.5,70,126.0
919,G4,146.25,0.25,41,126.0
920,B-4,146.5,0.25,47,126.0
921,G#2,146.5,0.5,61,126.0
922,G4,146.75,0.25,42,126.0
923,B-4,147.0,0.25,47,126.0
924,G2,147.0,1.0,66,126.0
925,G4,147.25,0.25,41,126.0
926,B-4,147.5,0.25,47,126.0
927,G4,147.75,0.25,42,126.0
928,G#4,148.0,0.25,47,126.0
929,C2,148.0,1.5,80,126.0
930,F4,148.25,0.25,40,126.0
931,G#4,148.5,0.25,47,126.0
932,F4,148.75,0.25,40,126.0
933,G#4,149.0,0.25,49,126.0
934,F4,149.25,0.25,43,126.0
935,G#4,149.5,0.25,52,126.0
936,C#2,149.5,0.5,66,126.0
937,F4,149.75,0.25,48,126.0
938,G#4,150.0,0.25,57,126.0
939,C2,150.0,0.5,78,126.0
940,F4,150.25,0.25,49,126.0
941,G#4,150.5,0.25,54,126.0
942,B-2,150.5,0.5,66,126.0
943,F4,150.75,0.25,42,126.0
944,G#4,151.0,0.25,47,126.0
945,G#2,151.0,1.0,76,126.0
946,F4,151.25,0.25,41,126.0
947,G#4,151.5,0.25,47,126.0
948,F4,151.75,0.25,37,126.0
949,F4,152.0,1.5,45,126.0
950,C#4,152.0,0.25,41,126.0
951,C#3,152.0,1.5,46,126.0
952,G#3,152.25,0.25,33,126.0
953,C#4,152.5,0.25,41,126.0
954,G#3,152.75,0.25,34,126.0
955,C#4,153.0,0.25,41,126.0
956,G#3,153.25,0.25,33,126.0
957,E-4,153.5,0.5,42,126.0
958,C4,153.5,0.25,41,126.0
959,G#2,153.5,0.5,43,126.0
960,G#3,153.75,0.25,34,126.0
961,C#4,154.0,0.25,41,126.0
962,F4,154.0,0.5,42,126.0
963,C#3,154.0,0.5,46,126.0
964,G#3,154.25,0.25,34,126.0
965,F#4,154.5,0.5,42,126.0
966,E-3,154.5,0.5,42,126.0
967,G#3,154.75,0.25,34,126.0
968,G#4,155.0,0.5,42,126.0
969,F3,155.0,0.5,46,126.0
970,G#3,155.25,0.25,34,126.0
971,C4,155.5,0.25,41,126.0
972,E-4,155.5,0.5,42,126.0
973,G#2,155.5,0.5,43,126.0
974,G#3,155.75,0.25,34,126.0
975,F4,156.0,0.5,42,126.0
976,C#3,156.0,0.5,46,126.0
977,C#4,156.25,0.25,34,126.0
978,G4,156.5,0.5,46,126.0
979,C#3,156.5,0.5,47,126.0
980,E3,156.5,0.5,47,126.0
981,E4,156.75,0.25,38,126.0
982,G#4,157.0,0.5,48,126.0
983,C#3,157.0,19/40,53,126.0
984,F3,157.0,19/40,53,126.0
985,F4,157.25,0.25,40,126.0
986,B-4,157.5,0.5,53,126.0
987,C#3,157.5,19/40,59,126.0
988,F3,157.5,19/40,59,126.0
989,F4,157.75,0.25,46,126.0
990,C5,158.0,0.25,55,126.0
991,C3,158.0,0.5,65,126.0
992,G3,158.0,0.5,65,126.0
993,E4,158.25,0.25,44,126.0
994,B-4,158.5,0.25,50,126.0
995,G4,158.75,0.25,42,126.0
996,E4,159.0,0.25,47,126.0
997,C4,159.25,0.25,47,126.0
998,B-3,159.5,0.25,46,126.0
999,G3,159.75,0.25,45,126.0
1000,A4,160.0,0.25,37,126.0
1001,F3,160.0,0.25,34,126.0
1002,F4,160.25,0.25,27,126.0
1003,A3,160.25,0.25,29,126.0
1004,A4,160.5,0.25,40,126.0
1005,F3,160.5,0.25,35,126.0
1006,F4,160.75,0.25,32,126.0
1007,A3,160.75,0.25,29,126.0
1008,A4,161.0,0.25,41,126.0
1009,F3,161.0,0.25,36,126.0
1010,F4,161.25,0.25,37,126.0
1011,A3,161.25,0.25,32,126.0
1012,G4,161.5,0.25,44,126.0
1013,C3,161.5,0.25,38,126.0
1014,E4,161.75,0.25,39,126.0
1015,G3,161.75,0.25,31,126.0
1016,A4,162.0,0.25,47,126.0
1017,F3,162.0,0.25,40,126.0
1018,F4,162.25,0.25,42,126.0
1019,A3,162.25,0.25,36,126.0
1020,B-4,162.5,0.25,45,126.0
1021,G3,162.5,0.25,40,126.0
1022,G4,162.75,0.25,48,126.0
1023,B-3,162.75,0.25,35,126.0
1024,C5,163.0,0.25,51,126.0
1025,A3,163.0,0.25,44,126.0
1026,A4,163.25,0.25,48,126.0
1027,C4,163.25,0.25,40,126.0
1028,G4,163.5,0.25,44,126.0
1029,C3,163.5,0.25,39,126.0
1030,E4,163.75,0.25,42,126.0
1031,G3,163.75,0.25,39,126.0
1032,A4,164.0,0.25,37,126.0
1033,F3,164.0,0.25,34,126.0
1034,F4,164.25,0.25,32,126.0
1035,A3,164.25,0.25,29,126.0
1036,A4,164.5,0.25,40,126.0
1037,F3,164.5,0.25,35,126.0
1038,F4,164.75,0.25,34,126.0
1039,A3,164.75,0.25,29,126.0
1040,A4,165.0,0.25,41,126.0
1041,F3,165.0,0.25,36,126.0
1042,F4,165.25,0.25,37,126.0
1043,A3,165.25,0.25,32,126.0
1044,G4,165.5,0.25,44,126.0
1045,C3,165.5,0.25,38,126.0
1046,E4,165.75,0.25,39,126.0
1047,G3,165.75,0.25,31,126.0
1048,A4,166.0,0.25,47,126.0
1049,F3,166.0,0.25,40,126.0
1050,F4,166.25,0.25,42,126.0
1051,A3,166.25,0.25,36,126.0
1052,B-4,166.5,0.25,45,126.0
1053,G3,166.5,0.25,40,126.0
1054,G4,166.75,0.25,48,126.0
1055,B-3,166.75,0.25,35,126.0
1056,C5,167.0,0.25,51,126.0
1057,A3,167.0,0.25,44,126.0
1058,A4,167.25,0.25,48,126.0
1059,C4,167.25,0.25,40,126.0
1060,E4,167.5,0.25,46,126.0
1061,F3,167.5,0.25,39,126.0
1062,F4,167.75,0.25,44,126.0
1063,A3,167.75,0.25,39,126.0
1064,D5,168.0,1.5,57,126.0
1065,B-4,168.0,0.25,41,126.0
1066,B-3,168.0,1.5,50,126.0
1067,F4,168.25,0.25,33,126.0
1068,B-4,168.5,0.25,41,126.0
1069,F4,168.75,0.25,34,126.0
1070,B-4,169.0,0.25,41,126.0
1071,F4,169.25,0.25,33,126.0
1072,C5,169.5,0.5,42,126.0
1073,A4,169.5,0.25,41,126.0
1074,F3,169.5,0.5,43,126.0
1075,F4,169.75,0.25,34,126.0
1076,B-4,170.0,0.25,47,126.0
1077,D5,170.0,0.5,47,126.0
1078,B-3,170.0,0.5,46,126.0
1079,F4,170.25,0.25,40,126.0
1080,E5,170.5,0.5,53,126.0
1081,C4,170.5,0.5,47,126.0
1082,F4,170.75,0.25,44,126.0
1083,F5,171.0,0.5,56,126.0
1084,D4,171.0,0.5,51,126.0
1085,F4,171.25,0.25,46,126.0
1086,D5,171.5,0.5,51,126.0
1087,B-3,171.5,0.5,47,126.0
1088,F4,171.75,0.25,38,126.0
1089,C5,172.0,0.5,49,126.0
1090,A3,172.0,0.5,46,126.0
1091,F4,172.25,0.25,34,126.0
1092,A4,172.5,0.5,42,126.0
1093,C4,172.5,0.5,41,126.0
1094,E4,172.75,0.25,34,126.0
1095,F4,173.0,0.5,49,126.0
1096,D4,173.0,0.5,44,126.0
1097,G3,173.5,0.25,38,126.0
1098,D4,173.5,0.25,42,126.0
1099,B-4,173.5,0.25,42,126.0
1100,C3,174.0,1.0,40,126.0
1101,B-3,174.0,1.0,51,126.0
1102,E4,174.0,1.0,51,126.0
1103,F3,175.0,0.5,37,126.0
1104,A3,175.0,0.5,43,126.0
1105,F4,175.0,0.5,43,126.0
1106,A2,176.0,0.25,77,126.0
1107,A1,176.0,0.25,67,126.0
1108,B2,176.25,0.25,69,126.0
1109,B1,176.25,0.25,60,126.0
1110,A2,176.5,0.25,74,126.0
1111,A1,176.5,0.25,65,126.0
1112,B2,176.75,0.25,69,126.0
1113,B1,176.75,0.25,60,126.0
1114,C3,177.0,0.25,78,126.0
1115,C2,177.0,0.25,68,126.0
1116,B2,177.25,0.25,69,126.0
1117,B1,177.25,0.25,60,126.0
1118,C3,177.5,0.25,77,126.0
1119,C2,177.5,0.25,67,126.0
1120,B2,177.75,0.25,69,126.0
1121,B1,177.75,0.25,60,126.0
1122,A2,178.0,0.5,80,126.0
1123,A1,178.0,0.5,70,126.0
1124,B2,178.5,0.25,69,126.0
1125,B1,178.5,0.25,60,126.0
1126,C3,179.0,0.5,79,126.0
1127,C2,179.0,0.5,69,126.0
1128,E3,179.5,0.25,69,126.0
1129,E2,179.5,0.25,60,126.0
1130,A3,180.0,0.5,79,126.0
1131,A2,180.0,0.5,69,126.0
1132,B3,180.5,0.25,69,126.0
1133,B2,180.5,0.25,60,126.0
1134,C4,181.0,0.5,79,126.0
1135,C3,181.0,0.5,69,126.0
1136,E4,181.5,0.25,69,126.0
1137,E3,181.5,0.25,60,126.0
1138,E3,182.0,0.5,67,126.0
1139,E4,182.0,0.5,66,126.0
1140,G#4,182.0,0.5,66,126.0
1141,B4,182.0,0.5,66,126.0
1142,E3,182.5,0.5,60,126.0
1143,E4,182.5,0.5,63,126.0
1144,G#4,182.5,0.5,63,126.0
1145,B4,182.5,0.5,63,126.0
1146,A3,183.0,1.0,70,126.0
1147,E4,183.0,1.0,72,126.0
1148,A4,183.0,1.0,72,126.0
1149,C5,183.0,1.0,72,126.0
1150,A2,184.0,0.25,77,126.0
1151,A1,184.0,0.25,67,126.0
1152,B2,184.25,0.25,69,126.0
1153,B1,184.25,0.25,60,126.0
1154,A2,184.5,0.25,74,126.0
1155,A1,184.5,0.25,65,126.0
1156,B2,184.75,0.25,69,126.0
1157,B1,184.75,0.25,60,126.0
1158,C3,185.0,0.25,78,126.0
1159,C2,185.0,0.25,68,126.0
1160,B2,185.25,0.25,69,126.0
1161,B1,185.25,0.25,60,126.0
1162,C3,185.5,0.25,77,126.0
1163,C2,185.5,0.25,67,126.0
1164,B2,185.75,0.25,69,126.0
1165,B1,185.75,0.25,60,126.0
1166,A2,186.0,0.5,80,126.0
1167,A1,186.0,0.5,70,126.0
1168,B2,186.5,0.25,69,126.0
1169,B1,186.5,0.25,60,126.0
1170,C3,187.0,0.5,79,126.0
1171,C2,187.0,0.5,69,126.0
1172,E3,187.5,0.25,69,126.0
1173,E2,187.5,0.25,60,126.0
1174,A3,188.0,0.5,79,126.0
1175,A2,188.0,0.5,69,126.0
1176,B3,188.5,0.25,69,126.0
1177,B2,188.5,0.25,60,126.0
1178,C4,189.0,0.5,79,126.0
1179,C3,189.0,0.5,69,126.0
1180,E4,189.5,0.25,69,126.0
1181,E3,189.5,0.25,60,126.0
1182,E3,190.0,0.5,67,126.0
1183,E4,190.0,0.5,66,126.0
1184,G#4,190.0,0.5,66,126.0
1185,B4,190.0,0.5,66,126.0
1186,E3,190.5,0.5,60,126.0
1187,E4,190.5,0.5,63,126.0
1188,G#4,190.5,0.5,63,126.0
1189,B4,190.5,0.5,63,126.0
1190,A4,191.0,1.0,82,126.0
1191,A3,191.0,1.0,70,126.0
1192,B-3,192.0,0.25,77,126.0
1193,B-2,192.0,0.25,67,126.0
1194,A3,192.25,0.25,69,126.0
1195,A2,192.25,0.25,60,126.0
1196,B-3,192.5,0.25,74,126.0
1197,B-2,192.5,0.25,65,126.0
1198,A3,192.75,0.25,69,126.0
1199,A2,192.75,0.25,60,126.0
1200,G3,193.0,0.25,78,126.0
1201,G2,193.0,0.25,68,126.0
1202,A3,193.25,0.25,69,126.0
1203,A2,193.25,0.25,60,126.0
1204,G3,193.5,0.25,77,126.0
1205,G2,193.5,0.25,67,126.0
1206,A3,193.75,0.25,69,126.0
1207,A2,193.75,0.25,60,126.0
1208,B-3,194.0,0.5,80,126.0
1209,B-2,194.0,0.5,70,126.0
1210,G3,194.5,0.25,69,126.0
1211,G2,194.5,0.25,60,126.0
1212,G3,195.0,0.5,79,126.0
1213,G2,195.0,0.5,69,126.0
1214,E3,195.5,0.25,69,126.0
1215,E2,195.5,0.25,60,126.0
1216,C#2,196.0,0.5,69,126.0
1217,G4,196.0,0.5,73,126.0
1218,B-4,196.0,0.5,73,126.0
1219,E2,196.5,0.25,60,126.0
1220,E4,196.5,0.25,64,126.0
1221,G4,196.5,0.25,64,126.0
1222,E2,197.0,0.5,69,126.0
1223,E4,197.0,0.5,73,126.0
1224,G4,197.0,0.5,73,126.0
1225,G2,197.5,0.25,60,126.0
1226,E4,197.5,0.25,64,126.0
1227,C#4,197.5,0.25,64,126.0
1228,A2,198.0,0.5,67,126.0
1229,E4,198.0,0.5,66,126.0
1230,C#4,198.0,0.5,66,126.0
1231,A3,198.0,0.5,66,126.0
1232,A2,198.5,0.5,60,126.0
1233,E4,198.5,0.5,63,126.0
1234,C#4,198.5,0.5,63,126.0
1235,A3,198.5,0.5,63,126.0
1236,D3,199.0,1.0,70,126.0
1237,F4,199.0,1.0,72,126.0
1238,D4,199.0,1.0,72,126.0
1239,A3,199.0,1.0,72,126.0
1240,C4,200.0,0.25,77,126.0
1241,C3,200.0,0.25,67,126.0
1242,B3,200.25,0.25,69,126.0
1243,B2,200.25,0.25,60,126.0
1244,C4,200.5,0.25,74,126.0
1245,C3,200.5,0.25,65,126.0
1246,B3,200.75,0.25,69,126.0
1247,B2,200.75,0.25,60,126.0
1248,A3,201.0,0.25,78,126.0
1249,A2,201.0,0.25,68,126.0
1250,B3,201.25,0.25,69,126.0
1251,B2,201.25,0.25,60,126.0
1252,A3,201.5,0.25,77,126.0
1253,A2,201.5,0.25,67,126.0
1254,B3,201.75,0.25,69,126.0
1255,B2,201.75,0.25,60,126.0
1256,C4,202.0,0.5,80,126.0
1257,C3,202.0,0.5,70,126.0
1258,A3,202.5,0.25,69,126.0
1259,A2,202.5,0.25,60,126.0
1260,A3,203.0,0.5,79,126.0
1261,A2,203.0,0.5,69,126.0
1262,F#3,203.5,0.25,69,126.0
1263,F#2,203.5,0.25,60,126.0
1264,E-2,204.0,0.5,69,126.0
1265,A4,204.0,0.5,73,126.0
1266,C5,204.0,0.5,73,126.0
1267,F#2,204.5,0.25,60,126.0
1268,F#4,204.5,0.25,64,126.0
1269,A4,204.5,0.25,64,126.0
1270,F#2,205.0,0.5,69,126.0
1271,F#4,205.0,0.5,73,126.0
1272,A4,205.0,0.5,73,126.0
1273,A2,205.5,0.25,60,126.0
1274,F#4,205.5,0.25,64,126.0
1275,E-4,205.5,0.25,64,126.0
1276,B2,206.0,0.5,67,126.0
1277,F#4,206.0,0.5,74,126.0
1278,E-4,206.0,0.5,74,126.0
1279,B2,206.5,0.5,60,126.0
1280,F#4,206.5,0.5,70,126.0
1281,E-4,206.5,0.5,70,126.0
1282,E3,207.0,1.0,70,126.0
1283,G#4,207.0,1.0,72,126.0
1284,E4,207.0,1.0,72,126.0
1285,B3,207.0,1.0,72,126.0
1286,A3,208.0,0.25,84,126.0
1287,A2,208.0,0.25,73,126.0
1288,B3,208.25,0.25,75,126.0
1289,B2,208.25,0.25,66,126.0
1290,A3,208.5,0.25,81,126.0
1291,A2,208.5,0.25,71,126.0
1292,B3,208.75,0.25,75,126.0
1293,B2,208.75,0.25,66,126.0
1294,C4,209.0,0.25,85,126.0
1295,C3,209.0,0.25,74,126.0
1296,B3,209.25,0.25,75,126.0
1297,B2,209.25,0.25,66,126.0
1298,C4,209.5,0.25,84,126.0
1299,C3,209.5,0.25,73,126.0
1300,B3,209.75,0.25,75,126.0
1301,B2,209.75,0.25,66,126.0
1302,A3,210.0,0.5,88,126.0
1303,A2,210.0,0.5,77,126.0
1304,B3,210.5,0.25,75,126.0
1305,B2,210.5,0.25,66,126.0
1306,C4,211.0,0.5,86,126.0
1307,C3,211.0,0.5,75,126.0
1308,E4,211.5,0.25,75,126.0
1309,E3,211.5,0.25,66,126.0
1310,A4,212.0,0.5,86,126.0
1311,A3,212.0,0.5,75,126.0
1312,B4,212.5,0.25,75,126.0
1313,B3,212.5,0.25,66,126.0
1314,C5,213.0,0.5,86,126.0
1315,C4,213.0,0.5,75,126.0
1316,E5,213.5,0.25,75,126.0
1317,E4,213.5,0.25,66,126.0
1318,E3,214.0,0.5,79,126.0
1319,E4,214.0,0.5,77,126.0
1320,G#4,214.0,0.5,77,126.0
1321,B4,214.0,0.5,77,126.0
1322,E3,214.5,0.5,69,126.0
1323,E4,214.5,0.5,72,126.0
1324,G#4,214.5,0.5,72,126.0
1325,B4,214.5,0.5,72,126.0
1326,A3,215.0,0.5,80,126.0
1327,E4,215.0,0.5,72,126.0
1328,A4,215.0,0.5,72,126.0
1329,C5,215.0,0.5,72,126.0
1330,A2,215.5,0.5,72,126.0
1331,E4,215.5,0.5,75,126.0
1332,G4,215.5,0.5,75,126.0
1333,A4,215.5,0.5,75,126.0
1334,C#5,215.5,0.5,75,126.0
1335,D3,216.0,0.25,86,126.0
1336,F4,216.0,1.0,82,126.0
1337,A4,216.0,1.0,82,126.0
1338,D5,216.0,1.0,82,126.0
1339,E3,216.25,0.25,73,126.0
1340,D3,216.5,0.25,78,126.0
1341,E3,216.75,0.25,69,126.0
1342,F4,217.0,0.25,81,126.0
1343,F3,217.0,0.25,71,126.0
1344,E4,217.25,0.25,72,126.0
1345,E3,217.25,0.25,63,126.0
1346,F4,217.5,0.25,80,126.0
1347,F3,217.5,0.25,70,126.0
1348,E4,217.75,0.25,72,126.0
1349,E3,217.75,0.25,63,126.0
1350,D4,218.0,0.5,84,126.0
1351,D3,218.0,0.5,73,126.0
1352,E4,218.5,0.25,72,126.0
1353,E3,218.5,0.25,63,126.0
1354,F4,219.0,0.5,82,126.0
1355,F3,219.0,0.5,72,126.0
1356,A4,219.5,0.25,72,126.0
1357,A3,219.5,0.25,63,126.0
1358,D5,220.0,0.5,82,126.0
1359,D4,220.0,0.5,72,126.0
1360,E5,220.5,0.25,72,126.0
1361,E4,220.5,0.25,63,126.0
1362,F5,221.0,0.5,82,126.0
1363,F4,221.0,0.5,72,126.0
1364,A5,221.5,0.25,72,126.0
1365,A4,221.5,0.25,63,126.0
1366,E4,222.0,0.5,70,126.0
1367,B4,222.0,0.5,76,126.0
1368,E5,222.0,0.5,76,126.0
1369,G#5,222.0,0.5,76,126.0
1370,E4,222.5,0.5,63,126.0
1371,B4,222.5,0.5,71,126.0
1372,E5,222.5,0.5,71,126.0
1373,G#5,222.5,0.5,71,126.0
1374,A4,223.0,1.0,73,126.0
1375,C5,223.0,1.0,82,126.0
1376,E5,223.0,1.0,82,126.0
1377,A5,223.0,1.0,82,126.0
