,note_name,start_time,duration,velocity,tempo
0,E3,0.01,2.01,80,130.0
1,E1,0.01,0.493,76,130.0
2,E2,0.533,0.228,74,130.0
3,E1,0.776,0.237,71,130.0
4,E2,1.029,0.236,75,130.0
5,E1,1.281,0.226,71,130.0
6,E2,1.522,0.468,74,130.0
7,B3,2.021,1.979,78,130.0
8,E1,2.021,0.468,74,130.0
9,E2,2.519,0.227,74,130.0
10,E1,2.761,0.235,71,130.0
11,E2,3.012,0.235,75,130.0
12,E1,3.263,0.227,71,130.0
13,E2,3.505,0.465,74,130.0
14,E1,4.004,0.499,76,130.0
15,B3,4.004,2.016,79,130.0
16,E4,4.004,2.016,79,130.0
17,E2,4.533,0.228,74,130.0
18,E1,4.776,0.237,71,130.0
19,E2,5.029,0.236,75,130.0
20,E1,5.281,0.226,71,130.0
21,E2,5.522,0.468,74,130.0
22,E1,6.021,0.468,74,130.0
23,B3,6.021,1.979,75,130.0
24,E4,6.021,1.979,75,130.0
25,G4,6.021,1.979,75,130.0
26,E2,6.519,0.227,74,130.0
27,E1,6.761,0.235,71,130.0
28,E2,7.012,0.235,75,130.0
29,E1,7.263,0.227,71,130.0
30,E2,7.505,0.465,74,130.0
31,E1,8.004,0.499,76,130.0
32,B3,8.004,1.518,79,130.0
33,F#4,8.004,1.518,79,130.0
34,E2,8.533,0.228,74,130.0
35,E1,8.776,0.237,71,130.0
36,E2,9.029,0.236,75,130.0
37,E1,9.281,0.24,71,130.0
38,E1,9.522,0.966,71,130.0
39,E3,9.522,2.478,74,130.0
40,B3,9.522,2.478,74,130.0
41,E2,10.519,0.227,74,130.0
42,E1,10.761,0.235,71,130.0
43,E2,11.012,0.235,75,130.0
44,E1,11.263,0.227,71,130.0
45,E2,11.505,0.465,74,130.0
46,E3,12.0,2.02,74,130.0
47,B3,12.0,2.02,74,130.0
48,E1,12.004,0.499,76,130.0
49,E2,12.533,0.228,74,130.0
50,E1,12.776,0.237,71,130.0
51,E2,13.029,0.236,75,130.0
52,E1,13.281,0.226,71,130.0
53,E2,13.522,0.468,74,130.0
54,B3,14.021,0.99,78,130.0
55,E1,14.021,0.468,74,130.0
56,E2,14.519,0.227,74,130.0
57,E1,14.761,0.235,71,130.0
58,E2,15.012,0.235,75,130.0
59,B3,15.012,0.987,75,130.0
60,E4,15.012,0.987,75,130.0
61,E1,15.263,0.227,71,130.0
62,E2,15.505,0.465,74,130.0
63,C4,15.838,0.162,72,130.0
64,E4,15.921,0.079,72,130.0
65,C4,16.0,1.521,72,130.0
66,E4,16.0,1.521,72,130.0
67,G4,16.004,1.518,86,130.0
68,E1,16.004,0.499,76,130.0
69,E2,16.533,0.228,74,130.0
70,E1,16.776,0.237,71,130.0
71,E2,17.029,0.236,75,130.0
72,E1,17.281,0.226,71,130.0
73,E2,17.522,0.227,74,130.0
74,C4,17.522,1.488,74,130.0
75,F#4,17.522,1.488,74,130.0
76,E1,17.765,0.255,71,130.0
77,E1,18.021,0.468,74,130.0
78,E2,18.519,0.227,74,130.0
79,E1,18.761,0.235,71,130.0
80,E2,19.012,0.235,75,130.0
81,C4,19.012,0.987,75,130.0
82,E4,19.012,0.987,75,130.0
83,E1,19.263,0.227,71,130.0
84,E2,19.505,0.465,74,130.0
85,E1,20.004,0.499,76,130.0
86,D4,20.004,1.518,79,130.0
87,F#4,20.004,1.518,79,130.0
88,D2,20.533,0.228,74,130.0
89,E1,20.776,0.237,71,130.0
90,D2,21.029,0.236,75,130.0
91,E1,21.281,0.226,71,130.0
92,D2,21.522,0.227,74,130.0
93,D4,21.522,1.488,74,130.0
94,G4,21.522,1.488,74,130.0
95,E1,21.765,0.255,71,130.0
96,E1,22.021,0.468,74,130.0
97,D2,22.519,0.227,74,130.0
98,E1,22.761,0.235,71,130.0
99,D2,23.012,0.235,75,130.0
100,E4,23.012,0.987,75,130.0
101,A4,23.012,0.987,75,130.0
102,E1,23.263,0.227,71,130.0
103,D2,23.505,0.465,74,130.0
104,E1,24.004,0.499,76,130.0
105,E4,24.004,1.518,79,130.0
106,B4,24.004,1.518,79,130.0
107,E2,24.533,0.228,74,130.0
108,E1,24.776,0.237,71,130.0
109,E2,25.029,0.236,75,130.0
110,E1,25.281,0.226,71,130.0
111,E2,25.522,0.227,74,130.0
112,E4,25.522,1.488,74,130.0
113,G4,25.522,1.488,74,130.0
114,E1,25.765,0.255,71,130.0
115,E1,26.021,0.468,74,130.0
116,E2,26.519,0.227,74,130.0
117,E1,26.761,0.235,71,130.0
118,E2,27.012,0.235,75,130.0
119,E4,27.012,0.987,75,130.0
120,F#4,27.012,0.987,75,130.0
121,E1,27.263,0.227,71,130.0
122,E2,27.505,0.465,74,130.0
123,E1,28.004,0.499,76,130.0
124,B3,28.004,2.016,79,130.0
125,E4,28.004,2.016,79,130.0
126,E2,28.533,0.228,75,130.0
127,E1,28.776,0.237,72,130.0
128,E2,29.029,0.236,76,130.0
129,E1,29.281,0.226,74,130.0
130,E2,29.522,0.468,78,130.0
131,E1,30.021,0.468,77,130.0
132,B3,30.021,0.99,80,130.0
133,E4,30.021,0.99,80,130.0
134,E2,30.519,0.227,81,130.0
135,E1,30.761,0.235,79,130.0
136,E2,31.012,0.235,83,130.0
137,B3,31.012,0.987,81,130.0
138,E4,31.012,0.987,81,130.0
139,B4,31.012,0.987,81,130.0
140,E1,31.263,0.227,81,130.0
141,E2,31.505,0.465,85,130.0
142,E4,31.838,0.162,72,130.0
143,A4,31.921,0.079,72,130.0
144,E4,32.0,1.521,72,130.0
145,A4,32.0,1.521,72,130.0
146,E5,32.004,1.518,99,130.0
147,F#1,32.004,0.528,90,130.0
148,F#2,32.004,0.528,90,130.0
149,C#3,32.533,0.466,88,130.0
150,F#3,33.029,0.463,89,130.0
151,E-4,33.522,1.488,86,130.0
152,E-5,33.522,1.488,86,130.0
153,C#1,33.522,1.488,86,130.0
154,C#2,33.522,1.488,86,130.0
155,C#4,35.012,0.987,88,130.0
156,C#5,35.012,0.987,88,130.0
157,C#2,35.012,0.987,88,130.0
158,C#3,35.012,0.987,88,130.0
159,C4,36.004,1.518,90,130.0
160,G#4,36.004,1.518,90,130.0
161,C5,36.004,1.518,90,130.0
162,G#1,36.004,0.528,90,130.0
163,G#2,36.004,0.528,90,130.0
164,E-3,36.533,0.466,88,130.0
165,G#3,37.029,0.463,89,130.0
166,B3,37.522,0.995,88,130.0
167,C#4,37.522,1.488,87,130.0
168,C#5,37.522,1.488,87,130.0
169,G#3,38.519,0.463,88,130.0
170,E-3,39.012,0.463,89,130.0
171,E-4,39.012,0.987,88,130.0
172,E-5,39.012,0.987,88,130.0
173,G#2,39.505,0.465,88,130.0
174,C#4,39.838,0.162,85,130.0
175,E4,39.921,0.079,85,130.0
176,C#4,40.0,2.02,85,130.0
177,E4,40.0,2.02,85,130.0
178,C#5,40.004,2.016,99,130.0
179,C#2,40.004,0.499,92,130.0
180,G#2,40.533,0.466,88,130.0
181,C#3,41.029,0.463,89,130.0
182,E3,41.522,0.468,88,130.0
183,C#4,42.021,0.739,91,130.0
184,C#3,42.021,0.468,91,130.0
185,G#2,42.519,0.463,88,130.0
186,E-4,42.761,0.743,88,130.0
187,C#2,43.012,0.987,88,130.0
188,C#4,43.505,0.495,85,130.0
189,E4,43.505,0.495,85,130.0
190,C#4,44.0,2.02,85,130.0
191,E4,44.0,2.02,85,130.0
192,A1,44.004,0.499,90,130.0
193,A2,44.533,0.466,88,130.0
194,C#3,45.029,0.463,89,130.0
195,E3,45.522,0.468,88,130.0
196,A3,46.021,0.468,91,130.0
197,C#4,46.021,0.739,88,130.0
198,E4,46.021,0.739,88,130.0
199,E3,46.519,0.463,88,130.0
200,A4,46.761,0.743,88,130.0
201,C#3,47.012,0.987,89,130.0
202,B3,47.505,0.495,83,130.0
203,E4,47.505,0.495,83,130.0
204,G#4,47.505,0.495,83,130.0
205,B3,48.0,2.02,83,130.0
206,E4,48.0,2.02,83,130.0
207,G#4,48.0,2.02,83,130.0
208,E2,48.004,0.499,92,130.0
209,B2,48.533,0.466,88,130.0
210,E3,49.029,0.463,89,130.0
211,G#3,49.522,0.468,88,130.0
212,E3,50.021,0.468,91,130.0
213,B3,50.021,0.739,88,130.0
214,E4,50.021,0.739,88,130.0
215,F#4,50.021,0.739,88,130.0
216,B2,50.519,0.463,88,130.0
217,B3,50.761,0.743,87,130.0
218,E4,50.761,0.743,87,130.0
219,E2,51.012,0.987,88,130.0
220,B3,51.505,0.495,85,130.0
221,E4,51.505,0.495,85,130.0
222,F#4,51.505,0.495,85,130.0
223,B3,52.0,2.02,85,130.0
224,E4,52.0,2.02,85,130.0
225,F#4,52.0,2.02,85,130.0
226,B1,52.004,0.499,91,130.0
227,F#2,52.533,0.466,88,130.0
228,B2,53.029,0.463,89,130.0
229,E-3,53.522,0.468,88,130.0
230,F#4,54.021,0.739,91,130.0
231,F#3,54.021,0.468,91,130.0
232,B3,54.519,0.463,88,130.0
233,G#4,54.761,0.743,88,130.0
234,F#3,55.012,0.987,89,130.0
235,D4,55.505,0.495,83,130.0
236,F#4,55.505,0.495,83,130.0
237,A4,55.505,0.495,83,130.0
238,D4,56.0,2.02,83,130.0
239,F#4,56.0,2.02,83,130.0
240,A4,56.0,2.02,83,130.0
241,D2,56.004,0.499,92,130.0
242,A2,56.533,0.466,88,130.0
243,D3,57.029,0.463,89,130.0
244,F#3,57.522,0.468,88,130.0
245,G#4,58.021,0.739,91,130.0
246,D3,58.021,0.468,91,130.0
247,A2,58.519,0.463,88,130.0
248,F#4,58.761,0.743,88,130.0
249,D2,59.012,0.987,88,130.0
250,B3,59.505,0.495,85,130.0
251,E4,59.505,0.495,85,130.0
252,B3,60.0,2.02,85,130.0
253,E4,60.0,2.02,85,130.0
254,A1,60.004,0.499,90,130.0
255,A2,60.533,0.466,88,130.0
256,E3,61.029,0.463,89,130.0
257,A3,61.522,0.966,88,130.0
258,E4,62.021,1.979,90,130.0
259,A4,62.021,1.979,90,130.0
260,C#4,62.519,0.463,88,130.0
261,A3,63.012,0.463,89,130.0
262,E3,63.505,0.465,88,130.0
263,G#3,63.816,0.184,85,130.0
264,C4,63.879,0.121,85,130.0
265,E4,63.941,0.059,85,130.0
266,G#3,64.0,2.02,85,130.0
267,C4,64.0,2.02,85,130.0
268,E4,64.0,2.02,85,130.0
269,G#4,64.004,2.016,99,130.0
270,G#1,64.004,0.499,90,130.0
271,E-2,64.533,0.466,87,130.0
272,G#2,65.029,0.463,89,130.0
273,E-2,65.522,0.468,87,130.0
274,G#1,66.021,0.468,88,130.0
275,C#4,66.021,1.979,88,130.0
276,G#4,66.021,1.979,88,130.0
277,C#5,66.021,1.979,88,130.0
278,E-2,66.519,0.463,87,130.0
279,G#2,67.012,0.463,89,130.0
280,E-2,67.505,0.465,87,130.0
281,G#1,68.004,0.499,90,130.0
282,E-4,68.004,2.016,90,130.0
283,B-4,68.004,2.016,90,130.0
284,E-5,68.004,2.016,90,130.0
285,E-2,68.533,0.466,87,130.0
286,G#2,69.029,0.463,89,130.0
287,E-2,69.522,0.468,87,130.0
288,B3,70.021,1.227,83,130.0
289,E-4,70.021,1.469,83,130.0
290,F#4,70.021,1.711,83,130.0
291,B4,70.021,1.964,97,130.0
292,G#1,70.021,0.468,88,130.0
293,E-2,70.519,0.463,87,130.0
294,B3,71.012,0.987,89,130.0
295,G#2,71.012,0.987,89,130.0
296,E-4,71.263,0.736,88,130.0
297,F#4,71.505,0.494,88,130.0
298,B4,71.747,0.252,88,130.0
299,B-3,72.004,2.016,92,130.0
300,B-4,72.004,2.016,92,130.0
301,B-0,72.004,0.528,88,130.0
302,B-1,72.004,0.528,88,130.0
303,F2,72.533,0.466,88,130.0
304,B-2,73.029,0.463,89,130.0
305,F3,73.522,0.468,88,130.0
306,B-2,74.021,0.497,91,130.0
307,B-3,74.021,0.739,90,130.0
308,B-4,74.021,0.739,90,130.0
309,B-2,74.519,0.463,88,130.0
310,C4,74.761,0.743,87,130.0
311,C5,74.761,0.743,87,130.0
312,F#2,75.012,0.987,89,130.0
313,C#4,75.505,0.495,85,130.0
314,F4,75.505,0.495,85,130.0
315,C#5,75.505,0.495,85,130.0
316,C#4,76.0,2.02,85,130.0
317,F4,76.0,2.02,85,130.0
318,C#5,76.0,2.02,85,130.0
319,F#1,76.004,0.528,90,130.0
320,F#2,76.004,0.528,90,130.0
321,C#3,76.533,0.466,88,130.0
322,F#3,77.029,0.463,89,130.0
323,B-3,77.522,0.468,88,130.0
324,F#3,78.021,0.468,91,130.0
325,F#4,78.021,0.739,88,130.0
326,B-4,78.021,0.739,88,130.0
327,F#5,78.021,0.739,88,130.0
328,C#3,78.519,0.463,88,130.0
329,B-4,78.761,0.743,87,130.0
330,B-5,78.761,0.743,87,130.0
331,F#2,79.012,0.987,89,130.0
332,G#4,79.505,0.495,84,130.0
333,C5,79.505,0.495,84,130.0
334,E-5,79.505,0.495,84,130.0
335,G#5,79.505,0.495,84,130.0
336,G#4,80.0,2.02,84,130.0
337,C5,80.0,2.02,84,130.0
338,E-5,80.0,2.02,84,130.0
339,G#5,80.0,2.02,84,130.0
340,C#2,80.004,0.528,92,130.0
341,C#3,80.004,0.528,92,130.0
342,G#3,80.533,0.466,88,130.0
343,C#4,81.029,0.463,89,130.0
344,F4,81.522,0.468,88,130.0
345,C#4,82.021,0.468,91,130.0
346,F#4,82.021,0.739,88,130.0
347,B-4,82.021,0.739,88,130.0
348,F#5,82.021,0.739,88,130.0
349,G#3,82.519,0.463,88,130.0
350,F4,82.761,0.743,85,130.0
351,B-4,82.761,0.743,85,130.0
352,F5,82.761,0.743,85,130.0
353,C#3,83.012,0.987,89,130.0
354,E-4,83.505,0.495,85,130.0
355,G#4,83.505,0.495,85,130.0
356,E-5,83.505,0.495,85,130.0
357,E-4,84.0,2.02,85,130.0
358,G#4,84.0,2.02,85,130.0
359,E-5,84.0,2.02,85,130.0
360,G#1,84.004,0.528,90,130.0
361,G#2,84.004,0.528,90,130.0
362,E-3,84.533,0.466,88,130.0
363,G#3,85.029,0.463,89,130.0
364,C4,85.522,0.468,88,130.0
365,G#3,86.021,0.468,91,130.0
366,E-4,86.021,0.739,88,130.0
367,G#4,86.021,0.739,88,130.0
368,E-5,86.021,0.739,88,130.0
369,E-3,86.519,0.463,88,130.0
370,F4,86.761,0.743,87,130.0
371,F5,86.761,0.743,87,130.0
372,B-2,87.012,0.987,89,130.0
373,F#4,87.505,0.495,85,130.0
374,B-4,87.505,0.495,85,130.0
375,F#5,87.505,0.495,85,130.0
376,F#4,88.0,2.02,85,130.0
377,B-4,88.0,2.02,85,130.0
378,F#5,88.0,2.02,85,130.0
379,B1,88.004,0.528,91,130.0
380,B2,88.004,0.528,91,130.0
381,E-3,88.533,0.466,88,130.0
382,F#3,89.029,0.463,89,130.0
383,B3,89.522,0.468,88,130.0
384,E-4,90.021,0.468,91,130.0
385,G#4,90.021,0.739,88,130.0
386,C#5,90.021,0.739,88,130.0
387,G#5,90.021,0.739,88,130.0
388,B3,90.519,0.463,88,130.0
389,B-4,90.761,0.743,87,130.0
390,B-5,90.761,0.743,87,130.0
391,F#3,91.012,0.987,89,130.0
392,B4,91.505,0.495,84,130.0
393,E-5,91.505,0.495,84,130.0
394,F#5,91.505,0.495,84,130.0
395,B5,91.505,0.495,84,130.0
396,B4,92.0,2.02,84,130.0
397,E-5,92.0,2.02,84,130.0
398,F#5,92.0,2.02,84,130.0
399,B5,92.0,2.02,84,130.0
400,G#1,92.004,0.528,90,130.0
401,G#2,92.004,0.528,90,130.0
402,E-3,92.533,0.466,88,130.0
403,G#3,93.029,0.463,89,130.0
404,B3,93.522,0.468,88,130.0
405,G#3,94.021,0.468,91,130.0
406,C#5,94.021,0.739,88,130.0
407,E5,94.021,0.739,88,130.0
408,C#6,94.021,0.739,88,130.0
409,E-3,94.519,0.463,88,130.0
410,B4,94.761,0.743,85,130.0
411,E-5,94.761,0.743,85,130.0
412,B5,94.761,0.743,85,130.0
413,G#2,95.012,0.987,89,130.0
414,B-4,95.505,0.495,80,130.0
415,E-5,95.505,0.495,80,130.0
416,B-5,95.505,0.495,94,130.0
417,B-4,96.0,2.005,80,130.0
418,E-5,96.0,1.749,80,130.0
419,B-5,96.0,1.266,94,130.0
420,B-1,96.004,0.528,91,130.0
421,B-2,96.004,0.528,91,130.0
422,F3,96.533,0.466,88,130.0
423,B-5,97.029,1.232,89,130.0
424,B-3,97.029,0.463,89,130.0
425,F5,97.281,0.226,88,130.0
426,E-5,97.522,1.223,88,130.0
427,F3,97.522,0.468,88,130.0
428,B-4,97.765,1.231,88,130.0
429,B-5,98.021,1.227,91,130.0
430,E-4,98.021,0.468,113,130.0
431,F5,98.277,0.226,88,130.0
432,E-5,98.519,1.213,88,130.0
433,F3,98.519,0.463,88,130.0
434,B-4,98.761,1.224,88,130.0
435,B-5,99.012,0.987,89,130.0
436,B-3,99.012,0.463,89,130.0
437,F5,99.263,0.227,88,130.0
438,E-5,99.505,0.465,88,130.0
439,F3,99.505,0.465,88,130.0
440,B-4,99.747,0.252,88,130.0
441,B-5,100.004,0.271,93,130.0
442,F4,100.004,0.499,115,130.0
443,F5,100.29,0.228,88,130.0
444,E-5,100.533,0.228,88,130.0
445,F3,100.533,0.466,88,130.0
446,B-4,100.776,0.237,88,130.0
447,B-5,101.029,0.236,89,130.0
448,B-3,101.029,0.463,89,130.0
449,F5,101.281,0.226,88,130.0
450,E-5,101.522,0.227,88,130.0
451,F3,101.522,0.468,88,130.0
452,B-4,101.765,0.24,88,130.0
453,B-5,102.021,0.241,91,130.0
454,D4,102.021,0.468,113,130.0
455,F5,102.277,0.226,88,130.0
456,E-5,102.519,0.227,88,130.0
457,F3,102.519,0.463,88,130.0
458,B-4,102.761,0.235,88,130.0
459,B-5,103.012,0.235,89,130.0
460,B-3,103.012,0.987,89,130.0
461,F5,103.263,0.227,88,130.0
462,E-5,103.505,0.227,88,130.0
463,B-4,103.747,0.237,88,130.0
464,C5,104.004,1.518,105,130.0
465,C6,104.004,1.518,105,130.0
466,C2,104.004,0.528,104,130.0
467,C3,104.004,0.528,104,130.0
468,G3,104.533,0.466,101,130.0
469,C4,105.029,0.463,102,130.0
470,G4,105.522,0.468,97,130.0
471,C5,105.522,0.468,97,130.0
472,E-5,105.522,0.468,97,130.0
473,G5,105.522,0.468,97,130.0
474,E-4,105.522,0.468,97,130.0
475,C4,106.021,0.468,104,130.0
476,G4,106.021,1.979,100,130.0
477,C5,106.021,1.979,100,130.0
478,E-5,106.021,1.979,100,130.0
479,G5,106.021,1.979,100,130.0
480,G3,106.519,0.463,101,130.0
481,C4,107.012,0.463,102,130.0
482,G3,107.505,0.465,101,130.0
483,E-5,108.004,1.518,103,130.0
484,G5,108.004,1.518,103,130.0
485,E-6,108.004,1.518,103,130.0
486,C2,108.004,0.528,104,130.0
487,C3,108.004,0.528,104,130.0
488,G3,108.533,0.466,101,130.0
489,C4,109.029,0.463,102,130.0
490,E-4,109.522,0.468,101,130.0
491,D5,109.522,1.488,98,130.0
492,G5,109.522,1.488,98,130.0
493,D6,109.522,1.488,98,130.0
494,C4,110.021,0.468,104,130.0
495,G3,110.519,0.463,101,130.0
496,C3,111.012,0.463,102,130.0
497,E-5,111.012,0.987,99,130.0
498,G5,111.012,0.987,99,130.0
499,E-6,111.012,0.987,99,130.0
500,C4,111.505,0.465,101,130.0
501,E-5,112.004,1.518,103,130.0
502,G5,112.004,1.518,103,130.0
503,E-6,112.004,1.518,103,130.0
504,G#1,112.004,0.528,104,130.0
505,G#2,112.004,0.528,104,130.0
506,E-3,112.533,0.466,101,130.0
507,G#3,113.029,0.463,102,130.0
508,G#4,113.522,0.468,97,130.0
509,C5,113.522,0.468,97,130.0
510,E-5,113.522,0.468,97,130.0
511,G#5,113.522,0.468,97,130.0
512,C4,113.522,0.468,97,130.0
513,G#3,114.021,0.468,104,130.0
514,G#4,114.021,1.979,98,130.0
515,C5,114.021,1.979,98,130.0
516,E-5,114.021,1.979,98,130.0
517,G#5,114.021,1.979,98,130.0
518,E-3,114.519,0.463,101,130.0
519,C3,115.012,0.463,102,130.0
520,G#2,115.505,0.465,101,130.0
521,G#1,116.004,0.499,103,130.0
522,G#4,116.004,1.518,102,130.0
523,C5,116.004,1.518,102,130.0
524,E-5,116.004,1.518,102,130.0
525,G#5,116.004,1.518,102,130.0
526,G#2,116.533,0.466,101,130.0
527,E-3,117.029,0.463,102,130.0
528,G#3,117.522,0.468,101,130.0
529,C5,117.522,1.488,96,130.0
530,E-5,117.522,1.488,96,130.0
531,G5,117.522,1.488,96,130.0
532,C6,117.522,1.488,96,130.0
533,C4,118.021,0.468,104,130.0
534,G#3,118.519,0.463,101,130.0
535,E-3,119.012,0.463,102,130.0
536,E-5,119.012,0.987,98,130.0
537,G5,119.012,0.987,98,130.0
538,B-5,119.012,0.987,98,130.0
539,E-6,119.012,0.987,98,130.0
540,G#2,119.505,0.465,101,130.0
541,B-1,120.004,0.499,104,130.0
542,E-5,120.004,1.518,102,130.0
543,G5,120.004,1.518,102,130.0
544,B-5,120.004,1.518,102,130.0
545,E-6,120.004,1.518,102,130.0
546,B-2,120.533,0.466,101,130.0
547,F3,121.029,0.463,102,130.0
548,D5,121.522,0.468,98,130.0
549,G5,121.522,0.468,98,130.0
550,D6,121.522,0.468,98,130.0
551,B-3,121.522,0.468,98,130.0
552,D4,122.021,0.468,104,130.0
553,D5,122.021,1.979,101,130.0
554,G5,122.021,1.979,101,130.0
555,D6,122.021,1.979,101,130.0
556,B-3,122.519,0.463,101,130.0
557,F3,123.012,0.463,102,130.0
558,B-2,123.505,0.465,101,130.0
559,B-1,124.004,0.499,104,130.0
560,B-4,124.004,1.518,103,130.0
561,D5,124.004,1.518,103,130.0
562,B-5,124.004,1.518,103,130.0
563,B-2,124.533,0.466,101,130.0
564,F3,125.029,0.463,102,130.0
565,B-3,125.522,0.468,101,130.0
566,D5,125.522,1.488,98,130.0
567,G5,125.522,1.488,98,130.0
568,D6,125.522,1.488,98,130.0
569,D4,126.021,0.468,104,130.0
570,B-3,126.519,0.463,101,130.0
571,F3,127.012,0.463,102,130.0
572,F5,127.012,0.987,101,130.0
573,F6,127.012,0.987,101,130.0
574,G#1,127.505,0.494,98,130.0
575,G#2,127.505,0.494,98,130.0
576,F5,128.004,1.518,103,130.0
577,B-5,128.004,1.518,103,130.0
578,F6,128.004,1.518,103,130.0
579,G1,128.004,0.528,104,130.0
580,G2,128.004,0.528,104,130.0
581,D3,128.533,0.466,101,130.0
582,G3,129.029,0.463,102,130.0
583,G5,129.522,0.468,98,130.0
584,D6,129.522,0.468,98,130.0
585,G6,129.522,0.468,98,130.0
586,B-3,129.522,0.468,98,130.0
587,G3,130.021,0.468,104,130.0
588,G5,130.021,1.979,99,130.0
589,D6,130.021,1.979,99,130.0
590,G6,130.021,1.979,99,130.0
591,D3,130.519,0.463,101,130.0
592,B-2,131.012,0.463,102,130.0
593,G2,131.505,0.465,101,130.0
594,G5,132.0,1.028,99,130.0
595,D6,132.0,1.028,99,130.0
596,G6,132.0,1.028,99,130.0
597,G1,132.004,0.499,103,130.0
598,G2,132.533,0.466,101,130.0
599,D3,133.029,0.463,102,130.0
600,F5,133.029,0.99,99,130.0
601,B-5,133.029,0.99,99,130.0
602,F6,133.029,0.99,99,130.0
603,G3,133.522,0.468,101,130.0
604,B-3,134.021,0.468,104,130.0
605,E-5,134.021,0.99,101,130.0
606,G5,134.021,0.99,101,130.0
607,E-6,134.021,0.99,101,130.0
608,G3,134.519,0.463,101,130.0
609,D3,135.012,0.463,102,130.0
610,D5,135.012,0.987,99,130.0
611,G5,135.012,0.987,99,130.0
612,D6,135.012,0.987,99,130.0
613,G2,135.505,0.465,101,130.0
614,G#1,136.004,0.499,103,130.0
615,E-5,136.004,1.518,103,130.0
616,G5,136.004,1.518,103,130.0
617,E-6,136.004,1.518,103,130.0
618,G#2,136.533,0.466,101,130.0
619,E-3,137.029,0.463,102,130.0
620,G#4,137.522,0.468,97,130.0
621,C5,137.522,0.468,97,130.0
622,E-5,137.522,0.468,97,130.0
623,G#5,137.522,0.468,97,130.0
624,G#3,137.522,0.468,97,130.0
625,C4,138.021,0.468,104,130.0
626,G#4,138.021,1.979,98,130.0
627,C5,138.021,1.979,98,130.0
628,E-5,138.021,1.979,98,130.0
629,G#5,138.021,1.979,98,130.0
630,G#3,138.519,0.463,101,130.0
631,E-3,139.012,0.463,102,130.0
632,G#2,139.505,0.465,101,130.0
633,G#4,140.0,1.028,98,130.0
634,C5,140.0,1.028,98,130.0
635,E-5,140.0,1.028,98,130.0
636,G#5,140.0,1.028,98,130.0
637,G#1,140.004,0.499,103,130.0
638,G#2,140.533,0.466,101,130.0
639,E-3,141.029,0.463,102,130.0
640,E-5,141.029,0.99,99,130.0
641,G5,141.029,0.99,99,130.0
642,E-6,141.029,0.99,99,130.0
643,G#3,141.522,0.468,101,130.0
644,C4,142.021,0.468,104,130.0
645,D5,142.021,0.99,101,130.0
646,G5,142.021,0.99,101,130.0
647,D6,142.021,0.99,101,130.0
648,G#3,142.519,0.463,101,130.0
649,E-3,143.012,0.463,102,130.0
650,E-5,143.012,0.987,99,130.0
651,G5,143.012,0.987,99,130.0
652,E-6,143.012,0.987,99,130.0
653,G#2,143.505,0.465,101,130.0
654,F5,144.004,1.518,102,130.0
655,B-5,144.004,1.518,102,130.0
656,F6,144.004,1.518,102,130.0
657,E-1,144.004,1.518,102,130.0
658,E-2,144.004,1.518,102,130.0
659,G5,145.522,1.488,97,130.0
660,D6,145.522,1.488,97,130.0
661,G6,145.522,1.488,97,130.0
662,E-1,145.522,1.488,97,130.0
663,E-2,145.522,1.488,97,130.0
664,F5,147.012,0.987,98,130.0
665,B-5,147.012,0.987,98,130.0
666,F6,147.012,0.987,98,130.0
667,D1,147.012,0.987,98,130.0
668,D2,147.012,0.987,98,130.0
669,E-5,148.004,3.995,98,130.0
670,G5,148.004,3.995,98,130.0
671,E-6,148.004,3.995,98,130.0
672,C1,148.004,0.528,101,130.0
673,C2,148.004,0.528,101,130.0
674,G2,148.533,0.466,101,130.0
675,C3,149.029,0.463,102,130.0
676,E-3,149.522,0.468,101,130.0
677,C3,150.021,0.468,104,130.0
678,G2,150.519,0.463,101,130.0
679,E-2,151.012,0.463,101,130.0
680,C2,151.505,0.465,99,130.0
681,F1,152.004,0.499,89,130.0
682,C5,152.004,2.016,90,130.0
683,E-5,152.004,2.016,90,130.0
684,C6,152.004,2.016,90,130.0
685,F2,152.533,0.466,88,130.0
686,C3,153.029,0.463,89,130.0
687,F3,153.522,0.468,88,130.0
688,G#3,154.021,0.468,91,130.0
689,C5,154.021,1.979,88,130.0
690,E-5,154.021,1.979,88,130.0
691,C6,154.021,1.979,88,130.0
692,F3,154.519,0.463,88,130.0
693,C3,155.012,0.463,89,130.0
694,G#2,155.505,0.465,88,130.0
695,F1,156.004,0.499,89,130.0
696,E-5,156.004,1.518,90,130.0
697,G5,156.004,1.518,90,130.0
698,E-6,156.004,1.518,90,130.0
699,F2,156.533,0.466,88,130.0
700,C3,157.029,0.463,89,130.0
701,F3,157.522,0.468,88,130.0
702,C5,157.522,1.488,85,130.0
703,E-5,157.522,1.488,85,130.0
704,C6,157.522,1.488,85,130.0
705,G#3,158.021,0.468,91,130.0
706,F3,158.519,0.463,88,130.0
707,C3,159.012,0.463,89,130.0
708,E-5,159.012,0.987,86,130.0
709,G5,159.012,0.987,86,130.0
710,E-6,159.012,0.987,86,130.0
711,G#2,159.505,0.465,88,130.0
712,B-1,160.004,0.499,91,130.0
713,E-5,160.004,2.016,90,130.0
714,G5,160.004,2.016,90,130.0
715,E-6,160.004,2.016,90,130.0
716,B-2,160.533,0.466,88,130.0
717,F3,161.029,0.463,89,130.0
718,B-3,161.522,0.468,88,130.0
719,D4,162.021,0.468,91,130.0
720,D5,162.021,1.979,88,130.0
721,G5,162.021,1.979,88,130.0
722,D6,162.021,1.979,88,130.0
723,B-3,162.519,0.463,88,130.0
724,F3,163.012,0.463,89,130.0
725,B-2,163.505,0.465,88,130.0
726,B-1,164.004,0.499,91,130.0
727,C5,164.004,2.016,90,130.0
728,G5,164.004,2.016,90,130.0
729,C6,164.004,2.016,90,130.0
730,B-2,164.533,0.466,88,130.0
731,F3,165.029,0.463,89,130.0
732,B-3,165.522,0.468,88,130.0
733,D4,166.021,0.468,91,130.0
734,D5,166.021,1.979,88,130.0
735,G5,166.021,1.979,88,130.0
736,D6,166.021,1.979,88,130.0
737,B-3,166.519,0.463,88,130.0
738,F3,167.012,0.463,89,130.0
739,B-2,167.505,0.465,88,130.0
740,G1,168.004,0.499,90,130.0
741,C5,168.004,3.007,85,130.0
742,G5,168.004,3.007,85,130.0
743,C6,168.004,3.007,85,130.0
744,G2,168.533,0.466,88,130.0
745,D3,169.029,0.463,89,130.0
746,G3,169.522,0.468,88,130.0
747,B3,170.021,0.468,91,130.0
748,G3,170.519,0.463,88,130.0
749,D3,171.012,0.463,89,130.0
750,B4,171.012,0.987,88,130.0
751,B5,171.012,0.987,88,130.0
752,G3,171.505,0.465,88,130.0
753,G2,172.004,0.499,88,130.0
754,B4,172.004,3.996,86,130.0
755,D5,172.004,3.996,86,130.0
756,B5,172.004,3.996,86,130.0
757,D3,172.533,0.466,84,130.0
758,G3,173.029,0.463,80,130.0
759,A3,173.522,0.468,76,130.0
760,G2,173.854,2.146,63,130.0
761,D3,173.938,2.062,63,130.0
762,B3,174.021,1.979,91,130.0
763,G3,174.021,1.979,73,130.0
764,B3,176.0,3.999,91,130.0
765,G2,176.0,1.879,63,130.0
766,D3,176.0,1.879,63,130.0
767,G3,176.0,1.879,73,130.0
768,B4,176.0,3.999,86,130.0
769,D5,176.0,3.999,86,130.0
770,B5,176.0,3.999,86,130.0
771,G1,178.021,0.99,88,130.0
772,G2,178.021,0.99,88,130.0
773,F#1,179.012,0.987,86,130.0
774,F#2,179.012,0.987,86,130.0
775,E3,180.004,2.016,93,130.0
776,E1,180.004,0.499,89,130.0
777,E2,180.533,0.228,87,130.0
778,E1,180.776,0.237,84,130.0
779,E2,181.029,0.236,88,130.0
780,E1,181.281,0.226,84,130.0
781,E2,181.522,0.468,87,130.0
782,B3,182.021,1.979,91,130.0
783,E1,182.021,0.468,87,130.0
784,E2,182.519,0.227,87,130.0
785,E1,182.761,0.235,84,130.0
786,E2,183.012,0.235,88,130.0
787,E1,183.263,0.227,84,130.0
788,E2,183.505,0.465,87,130.0
789,E1,184.004,0.499,89,130.0
790,B3,184.004,2.016,92,130.0
791,E4,184.004,2.016,92,130.0
792,E2,184.533,0.228,87,130.0
793,E1,184.776,0.237,84,130.0
794,E2,185.029,0.236,88,130.0
795,E1,185.281,0.226,84,130.0
796,E2,185.522,0.468,87,130.0
797,B3,186.021,0.99,91,130.0
798,E1,186.021,0.468,87,130.0
799,E2,186.519,0.463,87,130.0
800,E1,187.012,0.463,85,130.0
801,B3,187.012,0.987,88,130.0
802,E4,187.012,0.987,88,130.0
803,E2,187.505,0.465,87,130.0
804,E1,188.004,0.499,89,130.0
805,C4,188.004,1.518,90,130.0
806,E4,188.004,1.518,90,130.0
807,G4,188.004,1.518,90,130.0
808,E2,188.533,0.228,87,130.0
809,E1,188.776,0.237,84,130.0
810,E2,189.029,0.236,88,130.0
811,E1,189.281,0.226,84,130.0
812,E2,189.522,0.227,87,130.0
813,C4,189.522,1.488,87,130.0
814,F#4,189.522,1.488,87,130.0
815,E1,189.765,0.255,84,130.0
816,E1,190.021,0.468,87,130.0
817,E2,190.519,0.227,87,130.0
818,E1,190.761,0.235,84,130.0
819,E2,191.012,0.235,88,130.0
820,C4,191.012,0.987,88,130.0
821,E4,191.012,0.987,88,130.0
822,E1,191.263,0.227,84,130.0
823,E2,191.505,0.465,87,130.0
824,E1,192.004,0.499,89,130.0
825,D4,192.004,1.518,92,130.0
826,F#4,192.004,1.518,92,130.0
827,D2,192.533,0.228,87,130.0
828,E1,192.776,0.237,84,130.0
829,D2,193.029,0.236,88,130.0
830,E1,193.281,0.226,84,130.0
831,D2,193.522,0.227,87,130.0
832,D4,193.522,1.488,87,130.0
833,G4,193.522,1.488,87,130.0
834,E1,193.765,0.255,84,130.0
835,E1,194.021,0.468,87,130.0
836,D2,194.519,0.227,87,130.0
837,E1,194.761,0.235,84,130.0
838,D2,195.012,0.235,88,130.0
839,E4,195.012,0.987,88,130.0
840,A4,195.012,0.987,88,130.0
841,E1,195.263,0.227,84,130.0
842,D2,195.505,0.465,87,130.0
843,E1,196.004,0.499,89,130.0
844,B3,196.004,1.518,90,130.0
845,E4,196.004,1.518,90,130.0
846,B4,196.004,1.518,90,130.0
847,E2,196.533,0.228,87,130.0
848,E1,196.776,0.237,84,130.0
849,E2,197.029,0.236,88,130.0
850,E1,197.281,0.226,84,130.0
851,E2,197.522,0.227,87,130.0
852,B3,197.522,1.488,85,130.0
853,E4,197.522,1.488,85,130.0
854,G4,197.522,1.488,85,130.0
855,E1,197.765,0.255,84,130.0
856,E1,198.021,0.468,87,130.0
857,E2,198.519,0.227,87,130.0
858,E1,198.761,0.235,84,130.0
859,E2,199.012,0.235,88,130.0
860,E4,199.012,0.987,88,130.0
861,F#4,199.012,0.987,88,130.0
862,E1,199.263,0.227,84,130.0
863,E2,199.505,0.465,87,130.0
864,E1,200.004,0.499,89,130.0
865,B3,200.004,2.016,92,130.0
866,E4,200.004,2.016,92,130.0
867,E2,200.533,0.228,87,130.0
868,E1,200.776,0.237,84,130.0
869,E2,201.029,0.236,88,130.0
870,E1,201.281,0.226,84,130.0
871,E2,201.522,0.468,87,130.0
872,E1,202.021,0.468,87,130.0
873,B3,202.021,0.99,90,130.0
874,E4,202.021,0.99,90,130.0
875,E2,202.519,0.227,87,130.0
876,E1,202.761,0.235,84,130.0
877,E2,203.012,0.235,88,130.0
878,B3,203.012,0.987,86,130.0
879,E4,203.012,0.987,86,130.0
880,B4,203.012,0.987,86,130.0
881,E1,203.263,0.227,84,130.0
882,E2,203.505,0.465,87,130.0
883,E4,204.004,1.518,90,130.0
884,A4,204.004,1.518,90,130.0
885,E5,204.004,1.518,90,130.0
886,F#1,204.004,0.528,90,130.0
887,F#2,204.004,0.528,90,130.0
888,C#3,204.533,0.466,88,130.0
889,F#3,205.029,0.463,89,130.0
890,E-4,205.522,1.488,86,130.0
891,E-5,205.522,1.488,86,130.0
892,C#1,205.522,1.488,86,130.0
893,C#2,205.522,1.488,86,130.0
894,C#4,207.012,0.987,88,130.0
895,C#5,207.012,0.987,88,130.0
896,C#2,207.012,0.987,88,130.0
897,C#3,207.012,0.987,88,130.0
898,C4,208.004,1.518,90,130.0
899,G#4,208.004,1.518,90,130.0
900,C5,208.004,1.518,90,130.0
901,G#1,208.004,0.528,90,130.0
902,G#2,208.004,0.528,90,130.0
903,E-3,208.533,0.466,88,130.0
904,G#3,209.029,0.463,89,130.0
905,B3,209.522,0.468,88,130.0
906,C#4,209.522,1.488,87,130.0
907,C#5,209.522,1.488,87,130.0
908,G#3,210.021,0.468,91,130.0
909,E-3,210.519,0.463,88,130.0
910,G#2,211.012,0.463,89,130.0
911,E-4,211.012,0.987,88,130.0
912,E-5,211.012,0.987,88,130.0
913,E-3,211.505,0.465,88,130.0
914,C#4,212.004,2.016,90,130.0
915,E4,212.004,2.016,90,130.0
916,C#5,212.004,2.016,90,130.0
917,C#1,212.004,0.528,89,130.0
918,C#2,212.004,0.528,89,130.0
919,G#2,212.533,0.466,88,130.0
920,C#3,213.029,0.463,89,130.0
921,E3,213.522,0.468,88,130.0
922,C#5,214.021,0.739,91,130.0
923,C#3,214.021,0.468,91,130.0
924,G#2,214.519,0.463,88,130.0
925,E-5,214.761,0.743,88,130.0
926,C#2,215.012,0.987,88,130.0
927,C#5,215.505,0.495,85,130.0
928,E5,215.505,0.495,85,130.0
929,C#5,216.0,2.02,85,130.0
930,E5,216.0,2.02,85,130.0
931,A1,216.004,0.499,90,130.0
932,A2,216.533,0.466,88,130.0
933,C#3,217.029,0.463,89,130.0
934,E3,217.522,0.468,88,130.0
935,A3,218.021,0.468,91,130.0
936,C#5,218.021,0.739,88,130.0
937,E5,218.021,0.739,88,130.0
938,E3,218.519,0.463,88,130.0
939,A5,218.761,0.743,88,130.0
940,C#3,219.012,0.987,89,130.0
941,B4,219.505,0.495,83,130.0
942,E5,219.505,0.495,83,130.0
943,G#5,219.505,0.495,83,130.0
944,B4,220.0,2.02,83,130.0
945,E5,220.0,2.02,83,130.0
946,G#5,220.0,2.02,83,130.0
947,E2,220.004,0.499,92,130.0
948,B2,220.533,0.466,88,130.0
949,E3,221.029,0.463,89,130.0
950,G#3,221.522,0.468,88,130.0
951,E3,222.021,0.468,91,130.0
952,B4,222.021,0.739,88,130.0
953,E5,222.021,0.739,88,130.0
954,F#5,222.021,0.739,88,130.0
955,B2,222.519,0.463,88,130.0
956,B4,222.761,0.743,87,130.0
957,E5,222.761,0.743,87,130.0
958,E2,223.012,0.987,88,130.0
959,B4,223.505,0.495,85,130.0
960,E5,223.505,0.495,85,130.0
961,F#5,223.505,0.495,85,130.0
962,B4,224.0,2.02,85,130.0
963,E5,224.0,2.02,85,130.0
964,F#5,224.0,2.02,85,130.0
965,B1,224.004,0.499,91,130.0
966,F#2,224.533,0.466,88,130.0
967,B2,225.029,0.463,89,130.0
968,E-3,225.522,0.468,88,130.0
969,F#3,226.021,0.468,91,130.0
970,B4,226.021,0.739,88,130.0
971,F#5,226.021,0.739,88,130.0
972,B3,226.519,0.463,88,130.0
973,G#5,226.761,0.743,88,130.0
974,F#3,227.012,0.987,89,130.0
975,D5,227.505,0.495,83,130.0
976,F#5,227.505,0.495,83,130.0
977,A5,227.505,0.495,83,130.0
978,D5,228.0,2.02,83,130.0
979,F#5,228.0,2.02,83,130.0
980,A5,228.0,2.02,83,130.0
981,D2,228.004,0.499,92,130.0
982,A2,228.533,0.466,88,130.0
983,D3,229.029,0.463,89,130.0
984,F#3,229.522,0.468,88,130.0
985,A3,230.021,0.468,91,130.0
986,B4,230.021,0.739,88,130.0
987,E5,230.021,0.739,88,130.0
988,G#5,230.021,0.739,88,130.0
989,D4,230.519,0.463,88,130.0
990,B4,230.761,0.743,87,130.0
991,F#5,230.761,0.743,87,130.0
992,A3,231.012,0.987,89,130.0
993,B4,231.505,0.495,87,130.0
994,E5,231.505,0.495,87,130.0
995,B4,232.0,2.02,87,130.0
996,E5,232.0,2.02,87,130.0
997,A1,232.004,0.499,90,130.0
998,A2,232.533,0.466,88,130.0
999,E3,233.029,0.463,89,130.0
1000,A3,233.522,0.468,88,130.0
1001,C#4,234.021,0.468,91,130.0
1002,E5,234.021,1.979,90,130.0
1003,A5,234.021,1.979,90,130.0
1004,A3,234.519,0.463,88,130.0
1005,E3,235.012,0.463,89,130.0
1006,C#3,235.505,0.465,88,130.0
1007,G#4,235.816,0.184,85,130.0
1008,C5,235.879,0.121,85,130.0
1009,E5,235.941,0.059,85,130.0
1010,G#4,236.0,2.02,85,130.0
1011,C5,236.0,2.02,85,130.0
1012,E5,236.0,2.02,85,130.0
1013,G#5,236.004,2.016,99,130.0
1014,G#1,236.004,0.499,90,130.0
1015,G#2,236.533,0.466,88,130.0
1016,E-3,237.029,0.463,89,130.0
1017,G#3,237.522,0.468,88,130.0
1018,B3,238.021,0.468,91,130.0
1019,C#4,238.021,1.979,88,130.0
1020,G#4,238.021,1.979,88,130.0
1021,C#5,238.021,1.979,88,130.0
1022,G#3,238.519,0.463,88,130.0
1023,E-3,239.012,0.463,89,130.0
1024,G#2,239.505,0.465,88,130.0
1025,G#1,240.004,0.499,90,130.0
1026,E-4,240.004,2.016,90,130.0
1027,B-4,240.004,2.016,90,130.0
1028,E-5,240.004,2.016,90,130.0
1029,G#2,240.533,0.466,88,130.0
1030,E-3,241.029,0.463,89,130.0
1031,G#3,241.522,0.468,88,130.0
1032,B3,242.021,1.227,83,130.0
1033,E-4,242.021,1.469,83,130.0
1034,F#4,242.021,1.711,83,130.0
1035,B4,242.021,1.964,97,130.0
1036,G#2,242.021,0.468,91,130.0
1037,E-3,242.519,0.463,88,130.0
1038,B3,243.012,0.987,89,130.0
1039,G#3,243.012,0.463,89,130.0
1040,E-4,243.263,0.736,88,130.0
1041,F#4,243.505,0.465,88,130.0
1042,E-3,243.505,0.465,88,130.0
1043,B4,243.747,0.252,88,130.0
1044,B-3,244.004,2.016,92,130.0
1045,B-4,244.004,2.016,92,130.0
1046,B-0,244.004,0.528,88,130.0
1047,B-1,244.004,0.528,88,130.0
1048,F2,244.533,0.466,88,130.0
1049,B-2,245.029,0.463,89,130.0
1050,E-3,245.522,0.468,88,130.0
1051,B-1,246.021,0.468,89,130.0
1052,B-3,246.021,0.739,90,130.0
1053,B-4,246.021,0.739,90,130.0
1054,F2,246.519,0.463,88,130.0
1055,C4,246.761,0.743,87,130.0
1056,C5,246.761,0.743,87,130.0
1057,B-2,247.012,0.987,89,130.0
1058,C#4,247.505,0.495,85,130.0
1059,F4,247.505,0.495,85,130.0
1060,C#5,247.505,0.495,85,130.0
1061,C#4,248.0,2.02,85,130.0
1062,F4,248.0,2.02,85,130.0
1063,C#5,248.0,2.02,85,130.0
1064,F#1,248.004,0.528,90,130.0
1065,F#2,248.004,0.528,90,130.0
1066,C#3,248.533,0.466,88,130.0
1067,F#3,249.029,0.463,89,130.0
1068,B-3,249.522,0.468,88,130.0
1069,F#3,250.021,0.468,91,130.0
1070,F#4,250.021,0.739,88,130.0
1071,B-4,250.021,0.739,88,130.0
1072,F#5,250.021,0.739,88,130.0
1073,C#3,250.519,0.463,88,130.0
1074,B-4,250.761,0.743,87,130.0
1075,B-5,250.761,0.743,87,130.0
1076,F#2,251.012,0.987,89,130.0
1077,G#4,251.505,0.495,84,130.0
1078,C5,251.505,0.495,84,130.0
1079,E-5,251.505,0.495,84,130.0
1080,G#5,251.505,0.495,84,130.0
1081,G#4,252.0,2.02,84,130.0
1082,C5,252.0,2.02,84,130.0
1083,E-5,252.0,2.02,84,130.0
1084,G#5,252.0,2.02,84,130.0
1085,C#2,252.004,0.528,92,130.0
1086,C#3,252.004,0.528,92,130.0
1087,G#3,252.533,0.466,88,130.0
1088,C#4,253.029,0.463,89,130.0
1089,F4,253.522,0.468,88,130.0
1090,C#4,254.021,0.468,91,130.0
1091,F#4,254.021,0.739,88,130.0
1092,B-4,254.021,0.739,88,130.0
1093,F#5,254.021,0.739,88,130.0
1094,G#3,254.519,0.463,88,130.0
1095,F4,254.761,0.743,85,130.0
1096,B-4,254.761,0.743,85,130.0
1097,F5,254.761,0.743,85,130.0
1098,C#3,255.012,0.987,89,130.0
1099,E-4,255.505,0.495,85,130.0
1100,G#4,255.505,0.495,85,130.0
1101,E-5,255.505,0.495,85,130.0
1102,E-4,256.0,2.02,85,130.0
1103,G#4,256.0,2.02,85,130.0
1104,E-5,256.0,2.02,85,130.0
1105,G#1,256.004,0.528,90,130.0
1106,G#2,256.004,0.528,90,130.0
1107,E-3,256.533,0.466,88,130.0
1108,G#3,257.029,0.463,89,130.0
1109,C4,257.522,0.468,88,130.0
1110,G#3,258.021,0.468,91,130.0
1111,E-4,258.021,0.739,88,130.0
1112,G#4,258.021,0.739,88,130.0
1113,E-5,258.021,0.739,88,130.0
1114,E-3,258.519,0.463,88,130.0
1115,F4,258.761,0.743,87,130.0
1116,F5,258.761,0.743,87,130.0
1117,B-2,259.012,0.987,89,130.0
1118,F#4,259.505,0.495,85,130.0
1119,B-4,259.505,0.495,85,130.0
1120,F#5,259.505,0.495,85,130.0
1121,F#4,260.0,2.02,85,130.0
1122,B-4,260.0,2.02,85,130.0
1123,F#5,260.0,2.02,85,130.0
1124,B1,260.004,0.499,91,130.0
1125,F#2,260.533,0.466,88,130.0
1126,B2,261.029,0.463,89,130.0
1127,E-3,261.522,0.468,88,130.0
1128,F#3,262.021,0.468,91,130.0
1129,G#4,262.021,0.739,88,130.0
1130,C#5,262.021,0.739,88,130.0
1131,G#5,262.021,0.739,88,130.0
1132,B3,262.519,0.463,88,130.0
1133,B-4,262.761,0.743,87,130.0
1134,B-5,262.761,0.743,87,130.0
1135,F#3,263.012,0.987,89,130.0
1136,B4,263.505,0.495,84,130.0
1137,E-5,263.505,0.495,84,130.0
1138,F#5,263.505,0.495,84,130.0
1139,B5,263.505,0.495,84,130.0
1140,B4,264.0,2.02,84,130.0
1141,E-5,264.0,2.02,84,130.0
1142,F#5,264.0,2.02,84,130.0
1143,B5,264.0,2.02,84,130.0
1144,G#1,264.004,0.528,90,130.0
1145,G#2,264.004,0.528,90,130.0
1146,E-3,264.533,0.466,88,130.0
1147,G#3,265.029,0.463,89,130.0
1148,B3,265.522,0.468,88,130.0
1149,G#3,266.021,0.468,91,130.0
1150,C#5,266.021,0.739,88,130.0
1151,E5,266.021,0.739,88,130.0
1152,C#6,266.021,0.739,88,130.0
1153,E-3,266.519,0.463,88,130.0
1154,B4,266.761,0.743,85,130.0
1155,E-5,266.761,0.743,85,130.0
1156,B5,266.761,0.743,85,130.0
1157,G#2,267.012,0.987,89,130.0
1158,B-4,267.505,0.495,80,130.0
1159,E-5,267.505,0.495,80,130.0
1160,B-5,267.505,0.495,94,130.0
1161,B-4,268.0,2.005,80,130.0
1162,E-5,268.0,1.749,80,130.0
1163,B-5,268.0,1.266,94,130.0
1164,B-1,268.004,0.528,91,130.0
1165,B-2,268.004,0.528,91,130.0
1166,F3,268.533,0.466,88,130.0
1167,B-5,269.029,1.232,89,130.0
1168,B-3,269.029,0.463,89,130.0
1169,F5,269.281,0.226,88,130.0
1170,E-5,269.522,1.223,88,130.0
1171,F3,269.522,0.468,88,130.0
1172,B-4,269.765,1.231,88,130.0
1173,B-5,270.021,1.227,91,130.0
1174,E-4,270.021,0.468,113,130.0
1175,F5,270.277,0.226,88,130.0
1176,E-5,270.519,1.213,88,130.0
1177,F3,270.519,0.463,88,130.0
1178,B-4,270.761,1.224,88,130.0
1179,B-5,271.012,0.987,89,130.0
1180,B-3,271.012,0.463,89,130.0
1181,F5,271.263,0.227,88,130.0
1182,E-5,271.505,0.465,88,130.0
1183,F3,271.505,0.465,88,130.0
1184,B-4,271.747,0.252,88,130.0
1185,B-5,272.004,0.271,93,130.0
1186,F4,272.004,0.499,115,130.0
1187,F5,272.29,0.228,88,130.0
1188,E-5,272.533,0.228,88,130.0
1189,F3,272.533,0.466,88,130.0
1190,B-4,272.776,0.237,88,130.0
1191,B-5,273.029,0.236,89,130.0
1192,B-3,273.029,0.463,89,130.0
1193,F5,273.281,0.226,88,130.0
1194,E-5,273.522,0.227,88,130.0
1195,F3,273.522,0.468,88,130.0
1196,B-4,273.765,0.24,88,130.0
1197,B-5,274.021,0.241,91,130.0
1198,D4,274.021,0.468,113,130.0
1199,F5,274.277,0.226,88,130.0
1200,E-5,274.519,0.227,88,130.0
1201,F3,274.519,0.463,88,130.0
1202,B-4,274.761,0.235,88,130.0
1203,B-5,275.012,0.235,89,130.0
1204,B-3,275.012,0.987,89,130.0
1205,F5,275.263,0.227,88,130.0
1206,E-5,275.505,0.227,88,130.0
1207,B-4,275.747,0.237,88,130.0
1208,C5,276.004,2.016,105,130.0
1209,C6,276.004,2.016,105,130.0
1210,C1,276.004,0.528,101,130.0
1211,C2,276.004,0.528,101,130.0
1212,G2,276.533,0.466,101,130.0
1213,C3,277.029,0.463,102,130.0
1214,E-3,277.522,0.468,101,130.0
1215,G3,278.021,0.468,104,130.0
1216,D5,278.021,1.979,100,130.0
1217,G5,278.021,1.979,100,130.0
1218,B-5,278.021,1.979,100,130.0
1219,D6,278.021,1.979,100,130.0
1220,C4,278.519,0.463,101,130.0
1221,G3,279.012,0.463,102,130.0
1222,E-3,279.505,0.465,101,130.0
1223,E-5,280.004,2.016,102,130.0
1224,G5,280.004,2.016,102,130.0
1225,B-5,280.004,2.016,102,130.0
1226,E-6,280.004,2.016,102,130.0
1227,C2,280.004,0.528,104,130.0
1228,C3,280.004,0.528,104,130.0
1229,G3,280.533,0.466,101,130.0
1230,C4,281.029,0.463,102,130.0
1231,E-4,281.522,0.468,101,130.0
1232,F5,282.021,1.227,96,130.0
1233,G#5,282.021,1.469,96,130.0
1234,C6,282.021,1.711,96,130.0
1235,F6,282.021,1.964,110,130.0
1236,C4,282.021,0.468,104,130.0
1237,G3,282.519,0.463,101,130.0
1238,F5,283.012,0.987,102,130.0
1239,E-3,283.012,0.463,102,130.0
1240,G#5,283.263,0.736,101,130.0
1241,C6,283.505,0.465,101,130.0
1242,B-2,283.505,0.465,101,130.0
1243,F6,283.747,0.252,101,130.0
1244,C5,284.004,2.016,105,130.0
1245,C6,284.004,2.016,105,130.0
1246,G#1,284.004,0.528,104,130.0
1247,G#2,284.004,0.528,104,130.0
1248,E-3,284.533,0.466,101,130.0
1249,G#3,285.029,0.463,102,130.0
1250,C4,285.522,0.468,101,130.0
1251,G#3,286.021,0.468,104,130.0
1252,D5,286.021,1.979,100,130.0
1253,G5,286.021,1.979,100,130.0
1254,B-5,286.021,1.979,100,130.0
1255,D6,286.021,1.979,100,130.0
1256,E-3,286.519,0.463,101,130.0
1257,C3,287.012,0.463,102,130.0
1258,G#2,287.505,0.465,101,130.0
1259,G#1,288.004,0.499,103,130.0
1260,E-5,288.004,2.016,102,130.0
1261,G5,288.004,2.016,102,130.0
1262,B-5,288.004,2.016,102,130.0
1263,E-6,288.004,2.016,102,130.0
1264,G#2,288.533,0.466,101,130.0
1265,E-3,289.029,0.463,102,130.0
1266,G#3,289.522,0.468,101,130.0
1267,F5,290.021,1.227,96,130.0
1268,G#5,290.021,1.469,96,130.0
1269,C6,290.021,1.711,96,130.0
1270,F6,290.021,1.964,110,130.0
1271,C4,290.021,0.468,104,130.0
1272,G#3,290.519,0.463,101,130.0
1273,F5,291.012,0.987,102,130.0
1274,E-3,291.012,0.463,102,130.0
1275,G#5,291.263,0.736,101,130.0
1276,C6,291.505,0.465,101,130.0
1277,G#2,291.505,0.465,101,130.0
1278,F6,291.747,0.252,101,130.0
1279,C5,292.004,2.016,105,130.0
1280,C6,292.004,2.016,105,130.0
1281,F1,292.004,0.528,103,130.0
1282,F2,292.004,0.528,103,130.0
1283,C3,292.533,0.466,101,130.0
1284,F3,293.029,0.463,102,130.0
1285,G#3,293.522,0.468,101,130.0
1286,F3,294.021,0.468,104,130.0
1287,D5,294.021,1.979,100,130.0
1288,G5,294.021,1.979,100,130.0
1289,B-5,294.021,1.979,100,130.0
1290,D6,294.021,1.979,100,130.0
1291,C3,294.519,0.463,101,130.0
1292,G#2,295.012,0.463,102,130.0
1293,F2,295.505,0.494,101,130.0
1294,E-5,296.004,2.016,102,130.0
1295,G5,296.004,2.016,102,130.0
1296,B-5,296.004,2.016,102,130.0
1297,E-6,296.004,2.016,102,130.0
1298,F1,296.004,0.528,103,130.0
1299,F2,296.004,0.528,103,130.0
1300,C3,296.533,0.466,101,130.0
1301,F3,297.029,0.463,102,130.0
1302,G#3,297.522,0.468,101,130.0
1303,F3,298.021,0.468,104,130.0
1304,F5,298.021,1.979,100,130.0
1305,G#5,298.021,1.979,100,130.0
1306,C6,298.021,1.979,100,130.0
1307,F6,298.021,1.979,100,130.0
1308,C3,298.519,0.463,101,130.0
1309,G#2,299.012,0.463,102,130.0
1310,F2,299.505,0.465,101,130.0
1311,E-5,300.004,2.016,102,130.0
1312,G5,300.004,2.016,102,130.0
1313,B-5,300.004,2.016,102,130.0
1314,E-6,300.004,2.016,102,130.0
1315,G1,300.004,0.528,104,130.0
1316,G2,300.004,0.528,104,130.0
1317,D3,300.533,0.466,101,130.0
1318,G3,301.029,0.463,102,130.0
1319,B-3,301.522,0.468,101,130.0
1320,G3,302.021,0.468,104,130.0
1321,D5,302.021,1.979,100,130.0
1322,G5,302.021,1.979,100,130.0
1323,B-5,302.021,1.979,100,130.0
1324,D6,302.021,1.979,100,130.0
1325,D3,302.519,0.463,101,130.0
1326,B-2,303.012,0.463,102,130.0
1327,G2,303.505,0.494,101,130.0
1328,C5,304.004,2.016,102,130.0
1329,E-5,304.004,2.016,102,130.0
1330,G5,304.004,2.016,102,130.0
1331,C6,304.004,2.016,102,130.0
1332,G1,304.004,0.528,104,130.0
1333,G2,304.004,0.528,104,130.0
1334,D3,304.533,0.466,101,130.0
1335,G3,305.029,0.463,102,130.0
1336,B-3,305.522,0.468,101,130.0
1337,D5,306.021,1.227,96,130.0
1338,G5,306.021,1.469,96,130.0
1339,B-5,306.021,1.711,96,130.0
1340,D6,306.021,1.964,110,130.0
1341,G3,306.021,0.468,104,130.0
1342,D3,306.519,0.463,101,130.0
1343,D5,307.012,0.987,102,130.0
1344,B-2,307.012,0.987,102,130.0
1345,G5,307.263,0.736,101,130.0
1346,B-5,307.505,0.494,101,130.0
1347,D6,307.747,0.252,101,130.0
1348,C5,308.004,2.016,102,130.0
1349,E-5,308.004,2.016,102,130.0
1350,G5,308.004,2.016,102,130.0
1351,C6,308.004,2.016,102,130.0
1352,C1,308.004,0.528,101,130.0
1353,C2,308.004,0.528,101,130.0
1354,G2,308.533,0.466,101,130.0
1355,C3,309.029,0.463,102,130.0
1356,E-3,309.522,0.468,101,130.0
1357,C3,310.021,0.468,104,130.0
1358,D5,310.021,1.979,100,130.0
1359,G5,310.021,1.979,100,130.0
1360,B-5,310.021,1.979,100,130.0
1361,D6,310.021,1.979,100,130.0
1362,G2,310.519,0.463,101,130.0
1363,C3,311.012,0.463,102,130.0
1364,G2,311.505,0.465,101,130.0
1365,C2,312.004,0.499,104,130.0
1366,E-5,312.004,2.016,102,130.0
1367,G5,312.004,2.016,102,130.0
1368,B-5,312.004,2.016,102,130.0
1369,E-6,312.004,2.016,102,130.0
1370,G2,312.533,0.466,101,130.0
1371,C3,313.029,0.463,102,130.0
1372,E-3,313.522,0.468,101,130.0
1373,F5,314.021,1.227,96,130.0
1374,G#5,314.021,1.469,96,130.0
1375,C6,314.021,1.711,96,130.0
1376,F6,314.021,1.964,110,130.0
1377,G3,314.021,0.468,104,130.0
1378,C4,314.519,0.463,101,130.0
1379,F5,315.012,0.987,102,130.0
1380,G3,315.012,0.463,102,130.0
1381,G#5,315.263,0.736,101,130.0
1382,C6,315.505,0.465,101,130.0
1383,B-2,315.505,0.465,101,130.0
1384,F6,315.747,0.252,101,130.0
1385,C5,316.004,2.016,105,130.0
1386,C6,316.004,2.016,105,130.0
1387,G#1,316.004,0.528,104,130.0
1388,G#2,316.004,0.528,104,130.0
1389,E-3,316.533,0.466,101,130.0
1390,G#3,317.029,0.463,102,130.0
1391,C4,317.522,0.468,101,130.0
1392,G#3,318.021,0.468,104,130.0
1393,D5,318.021,1.979,100,130.0
1394,G5,318.021,1.979,100,130.0
1395,B-5,318.021,1.979,100,130.0
1396,D6,318.021,1.979,100,130.0
1397,E-3,318.519,0.463,101,130.0
1398,C3,319.012,0.463,102,130.0
1399,G#2,319.505,0.465,101,130.0
1400,G#1,320.004,0.499,103,130.0
1401,E-5,320.004,2.016,102,130.0
1402,G5,320.004,2.016,102,130.0
1403,B-5,320.004,2.016,102,130.0
1404,E-6,320.004,2.016,102,130.0
1405,G#2,320.533,0.466,101,130.0
1406,E-3,321.029,0.463,102,130.0
1407,G#3,321.522,0.468,101,130.0
1408,F5,322.021,1.227,96,130.0
1409,G#5,322.021,1.469,96,130.0
1410,C6,322.021,1.711,96,130.0
1411,F6,322.021,1.964,110,130.0
1412,C4,322.021,0.468,104,130.0
1413,G#3,322.519,0.463,101,130.0
1414,F5,323.012,0.987,102,130.0
1415,E-3,323.012,0.463,102,130.0
1416,G#5,323.263,0.736,101,130.0
1417,C6,323.505,0.465,101,130.0
1418,G#2,323.505,0.465,101,130.0
1419,F6,323.747,0.252,101,130.0
1420,C5,324.004,2.016,105,130.0
1421,C6,324.004,2.016,105,130.0
1422,F1,324.004,0.528,103,130.0
1423,F2,324.004,0.528,103,130.0
1424,C3,324.533,0.466,101,130.0
1425,F3,325.029,0.463,102,130.0
1426,G#3,325.522,0.468,101,130.0
1427,F3,326.021,0.468,104,130.0
1428,D5,326.021,1.979,100,130.0
1429,G5,326.021,1.979,100,130.0
1430,B-5,326.021,1.979,100,130.0
1431,D6,326.021,1.979,100,130.0
1432,C3,326.519,0.463,101,130.0
1433,G#2,327.012,0.463,102,130.0
1434,F2,327.505,0.494,101,130.0
1435,E-5,328.004,2.016,102,130.0
1436,G5,328.004,2.016,102,130.0
1437,B-5,328.004,2.016,102,130.0
1438,E-6,328.004,2.016,102,130.0
1439,F1,328.004,0.528,103,130.0
1440,F2,328.004,0.528,103,130.0
1441,C3,328.533,0.466,101,130.0
1442,F3,329.029,0.463,102,130.0
1443,G#3,329.522,0.468,101,130.0
1444,F3,330.021,0.468,104,130.0
1445,F5,330.021,1.979,100,130.0
1446,A5,330.021,1.979,100,130.0
1447,C6,330.021,1.979,100,130.0
1448,F6,330.021,1.979,100,130.0
1449,C3,330.519,0.463,101,130.0
1450,A2,331.012,0.463,102,130.0
1451,F2,331.505,0.465,101,130.0
1452,G5,332.004,2.016,102,130.0
1453,B5,332.004,2.016,102,130.0
1454,D6,332.004,2.016,102,130.0
1455,G6,332.004,2.016,102,130.0
1456,G1,332.004,0.528,104,130.0
1457,G2,332.004,0.528,104,130.0
1458,D3,332.533,0.466,101,130.0
1459,G3,333.029,0.463,102,130.0
1460,B3,333.522,0.468,101,130.0
1461,G3,334.021,0.468,104,130.0
1462,F5,334.021,1.979,101,130.0
1463,G#5,334.021,1.979,101,130.0
1464,F6,334.021,1.979,101,130.0
1465,D3,334.519,0.463,101,130.0
1466,B-2,335.012,0.463,102,130.0
1467,G2,335.505,0.465,101,130.0
1468,G#5,336.004,1.518,103,130.0
1469,B5,336.004,1.518,103,130.0
1470,G#6,336.004,1.518,103,130.0
1471,G#1,336.004,0.528,104,130.0
1472,G#2,336.004,0.528,104,130.0
1473,E-3,336.533,0.466,101,130.0
1474,G#3,337.029,0.99,102,130.0
1475,G#5,337.522,0.497,98,130.0
1476,B5,337.522,0.497,98,130.0
1477,G#6,337.522,0.497,98,130.0
1478,G5,338.021,0.364,123,130.0
1479,B5,338.021,0.364,123,130.0
1480,G6,338.021,0.364,123,130.0
1481,G1,338.021,0.364,123,130.0
1482,G2,338.021,0.364,123,130.0
1483,G5,338.761,0.368,121,130.0
1484,B5,338.761,0.368,121,130.0
1485,G6,338.761,0.368,121,130.0
1486,G1,338.761,0.368,121,130.0
1487,G2,338.761,0.368,121,130.0
1488,G5,339.505,0.465,121,130.0
1489,B5,339.505,0.465,121,130.0
1490,G6,339.505,0.465,121,130.0
1491,G1,339.505,0.465,121,130.0
1492,G2,339.505,0.465,121,130.0
1493,C3,344.004,2.016,124,130.0
1494,E-3,344.004,2.016,124,130.0
1495,C4,344.004,2.016,124,130.0
1496,C1,344.004,3.996,119,130.0
1497,C2,344.004,3.996,119,130.0
1498,C3,346.021,0.468,65,130.0
1499,D3,346.519,0.463,62,130.0
1500,E-3,347.012,0.463,63,130.0
1501,G3,347.505,0.465,62,130.0
1502,C1,348.0,4.0,119,130.0
1503,C2,348.0,4.0,119,130.0
1504,C4,348.004,0.499,67,130.0
1505,D4,348.533,0.466,62,130.0
1506,E-4,349.029,0.463,63,130.0
1507,G4,349.522,0.468,62,130.0
1508,C5,350.021,0.468,65,130.0
1509,D5,350.519,0.463,62,130.0
1510,E-5,351.012,0.463,63,130.0
1511,G5,351.505,0.465,62,130.0
1512,C1,352.0,3.999,119,130.0
1513,C2,352.0,3.999,119,130.0
1514,C6,352.004,0.499,67,130.0
1515,D6,352.533,0.466,62,130.0
1516,E-6,353.029,0.492,63,130.0
1517,B-5,353.356,2.643,54,130.0
1518,E-6,353.439,2.56,54,130.0
1519,B-6,353.522,2.477,64,130.0
1520,C3,356.004,3.996,73,130.0
1521,E-3,356.004,3.996,73,130.0
1522,C4,356.004,3.996,73,130.0
1523,C1,356.004,3.996,73,130.0
1524,C2,356.004,3.996,73,130.0
1525,C3,360.0,3.999,73,130.0
1526,E-3,360.0,3.999,73,130.0
1527,C4,360.0,3.999,73,130.0
1528,C1,360.0,3.999,73,130.0
1529,C2,360.0,3.999,73,130.0
