,note_name,start_time,duration,velocity,tempo
0,F4,2.5,0.5,51,138.92
1,G4,3.0,1.5,55,138.92
2,B-3,3.0,0.5,32,138.92
3,D4,3.0,0.5,32,138.92
4,F4,3.0,0.5,32,138.92
5,B-3,3.5,0.5,32,138.92
6,F4,3.5,0.5,32,138.92
7,D4,3.5,0.5,32,138.92
8,B-3,4.0,0.5,29,138.92
9,F4,4.0,0.5,29,138.92
10,D4,4.0,0.5,29,138.92
11,A4,4.5,1.0,56,138.92
12,D4,4.5,0.5,32,138.92
13,F4,4.5,0.5,32,138.92
14,B-3,4.5,0.5,32,138.92
15,D4,5.0,0.5,27,138.92
16,F4,5.0,0.5,27,138.92
17,B-3,5.0,0.5,27,138.92
18,B-4,5.5,0.5,55,138.92
19,D5,6.0,1.5,61,138.92
20,F4,6.5,0.5,34,138.92
21,E-4,6.5,0.5,34,138.92
22,A3,6.5,0.5,34,138.92
23,E-4,7.0,0.5,34,138.92
24,A3,7.0,0.5,34,138.92
25,F4,7.0,0.5,34,138.92
26,C5,7.5,1.0,55,138.92
27,A3,7.5,0.5,34,138.92
28,F4,7.5,0.5,34,138.92
29,E-4,7.5,0.5,34,138.92
30,E-4,8.0,479/1000,34,138.92
31,A3,8.0,479/1000,34,138.92
32,F4,8.0,479/1000,34,138.92
33,F4,8.5,0.5,52,138.92
34,B4,9.0,1.5,55,138.92
35,D4,9.5,0.5,32,138.92
36,G#3,9.5,0.5,32,138.92
37,F4,9.5,0.5,32,138.92
38,G#3,10.0,0.5,32,138.92
39,F4,10.0,0.5,32,138.92
40,D4,10.0,0.5,32,138.92
41,C5,10.5,1.0,60,138.92
42,G#3,10.5,0.5,35,138.92
43,F4,10.5,0.5,35,138.92
44,D4,10.5,0.5,35,138.92
45,G#3,11.0,0.5,35,138.92
46,F4,11.0,0.5,35,138.92
47,D4,11.0,0.5,35,138.92
48,D5,11.5,0.5,58,138.92
49,F5,12.0,1.5,66,138.92
50,G3,12.5,0.5,41,138.92
51,E-4,12.5,0.5,41,138.92
52,C4,12.5,0.5,41,138.92
53,C4,13.0,0.5,41,138.92
54,E-4,13.0,0.5,41,138.92
55,G3,13.0,0.5,41,138.92
56,E-5,13.5,1.0,64,138.92
57,G3,13.5,0.5,41,138.92
58,E-4,13.5,0.5,41,138.92
59,C4,13.5,0.5,41,138.92
60,C4,14.0,0.5,41,138.92
61,G3,14.0,0.5,41,138.92
62,E-4,14.0,0.5,41,138.92
63,E-5,14.5,0.5,71,138.92
64,E5,15.0,1.5,77,138.92
65,A3,15.5,0.5,47,138.92
66,G3,15.5,0.5,47,138.92
67,E4,15.5,0.5,47,138.92
68,C#4,15.5,0.5,47,138.92
69,G3,16.0,0.5,42,138.92
70,C#4,16.0,0.5,42,138.92
71,A3,16.0,0.5,42,138.92
72,E4,16.0,0.5,42,138.92
73,B-5,16.5,1.0,72,138.92
74,G3,16.5,0.5,46,138.92
75,C#4,16.5,0.5,46,138.92
76,A3,16.5,0.5,46,138.92
77,E4,16.5,0.5,46,138.92
78,A3,17.0,0.5,46,138.92
79,G3,17.0,0.5,46,138.92
80,E4,17.0,0.5,46,138.92
81,C#4,17.0,0.5,46,138.92
82,A5,17.5,0.5,67,138.92
83,A4,18.0,1.5,66,138.92
84,F3,18.5,0.5,39,138.92
85,A3,18.5,0.5,39,138.92
86,D4,18.5,0.5,39,138.92
87,D4,19.0,0.5,39,138.92
88,A3,19.0,0.5,39,138.92
89,F3,19.0,0.5,39,138.92
90,B-5,19.5,1.0,69,138.92
91,F3,19.5,0.5,38,138.92
92,A3,19.5,0.5,38,138.92
93,D4,19.5,0.5,38,138.92
94,D4,20.0,0.5,38,138.92
95,F3,20.0,0.5,38,138.92
96,A3,20.0,0.5,38,138.92
97,A5,20.5,0.5,61,138.92
98,A4,21.0,1.5,56,138.92
99,G3,21.5,0.5,34,138.92
100,E3,21.5,0.5,34,138.92
101,A3,21.5,0.5,34,138.92
102,C#4,21.5,0.5,34,138.92
103,E3,22.0,0.5,33,138.92
104,C#4,22.0,0.5,33,138.92
105,G3,22.0,0.5,33,138.92
106,A3,22.0,0.5,33,138.92
107,B-5,22.5,1.0,58,138.92
108,E3,22.5,0.5,32,138.92
109,C#4,22.5,0.5,32,138.92
110,G3,22.5,0.5,32,138.92
111,A3,22.5,0.5,32,138.92
112,E3,23.0,0.5,32,138.92
113,C#4,23.0,0.5,32,138.92
114,G3,23.0,0.5,32,138.92
115,A3,23.0,0.5,32,138.92
116,A5,23.5,0.5,53,138.92
117,A4,24.0,2.5,50,138.92
118,D4,24.5,0.5,35,138.92
119,F4,24.5,0.5,35,138.92
120,A3,24.5,0.5,28,138.92
121,D3,24.5,0.5,28,138.92
122,D4,25.0,0.5,31,138.92
123,F4,25.0,0.5,31,138.92
124,A3,25.0,0.5,25,138.92
125,D3,25.0,0.5,25,138.92
126,F4,25.5,0.5,31,138.92
127,D4,25.5,0.5,31,138.92
128,D3,25.5,0.5,25,138.92
129,A3,25.5,0.5,25,138.92
130,D4,26.0,0.5,31,138.92
131,F4,26.0,0.5,31,138.92
132,D3,26.0,0.5,25,138.92
133,A3,26.0,0.5,25,138.92
134,F3,26.5,0.5,52,138.92
135,G3,27.0,1.5,55,138.92
136,C3,27.5,0.5,33,138.92
137,E-4,27.5,0.5,33,138.92
138,F3,27.5,0.5,33,138.92
139,F4,27.5,0.5,33,138.92
140,F3,28.0,0.5,31,138.92
141,C3,28.0,0.5,31,138.92
142,F4,28.0,0.5,31,138.92
143,E-4,28.0,0.5,31,138.92
144,A3,28.5,1.0,55,138.92
145,F3,28.5,0.5,35,138.92
146,E-4,28.5,0.5,35,138.92
147,F4,28.5,0.5,35,138.92
148,C3,28.5,0.5,35,138.92
149,F3,29.0,0.5,28,138.92
150,C3,29.0,0.5,28,138.92
151,F4,29.0,0.5,28,138.92
152,E-4,29.0,0.5,28,138.92
153,C4,29.5,0.5,52,138.92
154,G3,30.0,1.5,59,138.92
155,B-2,30.5,0.5,34,138.92
156,D4,30.5,0.5,34,138.92
157,F4,30.5,0.5,34,138.92
158,D4,31.0,0.5,34,138.92
159,F4,31.0,0.5,34,138.92
160,B-2,31.0,0.5,34,138.92
161,F3,31.5,1.0,55,138.92
162,B-2,31.5,0.5,34,138.92
163,F4,31.5,0.5,34,138.92
164,D4,31.5,0.5,34,138.92
165,D4,32.0,0.5,34,138.92
166,B-2,32.0,0.5,34,138.92
167,F4,32.0,0.5,34,138.92
168,G3,32.5,0.5,57,138.92
169,A3,33.0,1.5,63,138.92
170,G3,33.5,0.5,34,138.92
171,D3,33.5,0.5,34,138.92
172,G4,33.5,0.5,34,138.92
173,F4,33.5,0.5,34,138.92
174,G3,34.0,0.5,34,138.92
175,F4,34.0,0.5,34,138.92
176,G4,34.0,0.5,34,138.92
177,D3,34.0,0.5,34,138.92
178,B3,34.5,1.0,66,138.92
179,G3,34.5,0.5,38,138.92
180,F4,34.5,0.5,38,138.92
181,G4,34.5,0.5,38,138.92
182,D3,34.5,0.5,38,138.92
183,G3,35.0,0.5,38,138.92
184,F4,35.0,0.5,38,138.92
185,G4,35.0,0.5,38,138.92
186,D3,35.0,0.5,38,138.92
187,D4,35.5,0.5,61,138.92
188,G#3,36.0,1.5,72,138.92
189,C4,36.5,0.5,44,138.92
190,C3,36.5,0.5,44,138.92
191,E-4,36.5,0.5,44,138.92
192,C3,37.0,0.5,45,138.92
193,E-4,37.0,0.5,45,138.92
194,C4,37.0,0.5,45,138.92
195,G3,37.5,1.0,70,138.92
196,C4,37.5,0.5,45,138.92
197,C3,37.5,0.5,45,138.92
198,E-4,37.5,0.5,45,138.92
199,C3,38.0,479/1000,46,138.92
200,E-4,38.0,479/1000,46,138.92
201,C4,38.0,479/1000,46,138.92
202,C4,38.5,0.5,72,138.92
203,C#4,39.0,3.0,75,138.92
204,G3,39.5,0.5,53,138.92
205,E4,39.5,0.5,53,138.92
206,B-3,39.5,0.5,53,138.92
207,B-3,40.0,0.5,44,138.92
208,E4,40.0,0.5,44,138.92
209,G3,40.0,0.5,44,138.92
210,C5,40.5,1.0,70,138.92
211,G3,40.5,0.5,49,138.92
212,E4,40.5,0.5,49,138.92
213,B-3,40.5,0.5,49,138.92
214,B-3,41.0,0.5,49,138.92
215,G3,41.0,0.5,49,138.92
216,E4,41.0,0.5,49,138.92
217,B-4,41.5,0.5,67,138.92
218,D4,42.0,3.0,74,138.92
219,F4,42.5,0.5,41,138.92
220,F3,42.5,0.5,41,138.92
221,B-3,42.5,0.5,41,138.92
222,F4,43.0,0.5,41,138.92
223,F3,43.0,0.5,41,138.92
224,B-3,43.0,0.5,41,138.92
225,A4,43.5,1.0,70,138.92
226,F4,43.5,0.5,41,138.92
227,B-3,43.5,0.5,41,138.92
228,F3,43.5,0.5,41,138.92
229,F3,44.0,0.5,41,138.92
230,B-3,44.0,0.5,41,138.92
231,F4,44.0,0.5,41,138.92
232,G4,44.5,0.5,63,138.92
233,G#3,45.0,1.0,58,138.92
234,F2,45.5,0.5,38,138.92
235,E-3,45.5,0.5,38,138.92
236,A3,46.0,0.5,53,138.92
237,E-3,46.0,0.5,34,138.92
238,F2,46.0,0.5,34,138.92
239,D4,46.5,1.0,58,138.92
240,F#2,47.0,0.5,34,138.92
241,D3,47.0,0.5,34,138.92
242,A3,47.5,0.5,54,138.92
243,F#2,47.5,0.5,33,138.92
244,D3,47.5,0.5,33,138.92
245,A3,48.0,1.5,50,138.92
246,G2,48.5,0.5,32,138.92
247,D3,48.5,0.5,32,138.92
248,G3,48.5,0.5,32,138.92
249,G2,49.0,0.5,29,138.92
250,G3,49.0,0.5,29,138.92
251,D3,49.0,0.5,29,138.92
252,B-3,49.5,1.0,46,138.92
253,G3,49.5,0.5,29,138.92
254,D3,49.5,0.5,29,138.92
255,G2,49.5,0.5,29,138.92
256,G2,50.0,0.5,29,138.92
257,G3,50.0,0.5,29,138.92
258,D3,50.0,0.5,29,138.92
259,A3,50.5,0.5,52,138.92
260,G3,51.0,1.5,55,138.92
261,F3,51.5,0.5,30,138.92
262,E-4,51.5,0.5,30,138.92
263,F4,51.5,0.5,30,138.92
264,C3,51.5,0.5,30,138.92
265,C3,52.0,0.5,28,138.92
266,E-4,52.0,0.5,28,138.92
267,F4,52.0,0.5,28,138.92
268,F3,52.0,0.5,28,138.92
269,A3,52.5,1.0,56,138.92
270,F3,52.5,0.5,30,138.92
271,C3,52.5,0.5,30,138.92
272,F4,52.5,0.5,30,138.92
273,E-4,52.5,0.5,30,138.92
274,C3,53.0,0.5,28,138.92
275,E-4,53.0,0.5,28,138.92
276,F4,53.0,0.5,28,138.92
277,F3,53.0,0.5,28,138.92
278,C4,53.5,0.5,53,138.92
279,G3,54.0,1.5,59,138.92
280,D4,54.5,0.5,34,138.92
281,B-3,54.5,0.5,34,138.92
282,B-2,54.5,0.5,34,138.92
283,B-3,55.0,0.5,34,138.92
284,B-2,55.0,0.5,34,138.92
285,D4,55.0,0.5,34,138.92
286,F3,55.5,1.0,55,138.92
287,B-2,55.5,0.5,34,138.92
288,D4,55.5,0.5,34,138.92
289,B-3,55.5,0.5,34,138.92
290,B-3,56.0,0.5,34,138.92
291,B-2,56.0,0.5,34,138.92
292,D4,56.0,0.5,34,138.92
293,G3,56.5,0.5,57,138.92
294,A3,57.0,1.5,60,138.92
295,G3,57.5,0.5,34,138.92
296,D3,57.5,0.5,34,138.92
297,G4,57.5,0.5,34,138.92
298,F4,57.5,0.5,34,138.92
299,G3,58.0,0.5,34,138.92
300,F4,58.0,0.5,34,138.92
301,G4,58.0,0.5,34,138.92
302,D3,58.0,0.5,34,138.92
303,B3,58.5,1.0,66,138.92
304,G3,58.5,0.5,38,138.92
305,F4,58.5,0.5,38,138.92
306,G4,58.5,0.5,38,138.92
307,D3,58.5,0.5,38,138.92
308,G3,59.0,0.5,39,138.92
309,F4,59.0,0.5,39,138.92
310,G4,59.0,0.5,39,138.92
311,D3,59.0,0.5,39,138.92
312,D4,59.5,0.5,62,138.92
313,G#3,60.0,1.5,72,138.92
314,C3,60.5,0.5,44,138.92
315,E-4,60.5,0.5,44,138.92
316,C4,60.5,0.5,44,138.92
317,C3,61.0,0.5,45,138.92
318,E-4,61.0,0.5,45,138.92
319,C4,61.0,0.5,45,138.92
320,G3,61.5,1.0,70,138.92
321,C4,61.5,0.5,45,138.92
322,C3,61.5,0.5,45,138.92
323,E-4,61.5,0.5,45,138.92
324,C4,62.0,479/1000,46,138.92
325,E-4,62.0,479/1000,46,138.92
326,C3,62.0,479/1000,46,138.92
327,C4,62.5,0.5,72,138.92
328,C#4,63.0,3.0,77,138.92
329,B-3,63.5,0.5,51,138.92
330,E4,63.5,0.5,51,138.92
331,G3,63.5,0.5,51,138.92
332,B-3,64.0,0.5,46,138.92
333,G3,64.0,0.5,46,138.92
334,E4,64.0,0.5,46,138.92
335,C5,64.5,1.0,72,138.92
336,G3,64.5,0.5,52,138.92
337,E4,64.5,0.5,52,138.92
338,B-3,64.5,0.5,52,138.92
339,B-3,65.0,0.5,52,138.92
340,G3,65.0,0.5,52,138.92
341,E4,65.0,0.5,52,138.92
342,B-4,65.5,0.5,67,138.92
343,D4,66.0,3.0,74,138.92
344,F4,66.5,0.5,43,138.92
345,F3,66.5,0.5,43,138.92
346,B-3,66.5,0.5,43,138.92
347,F3,67.0,0.5,43,138.92
348,B-3,67.0,0.5,43,138.92
349,F4,67.0,0.5,43,138.92
350,A4,67.5,1.0,70,138.92
351,F4,67.5,0.5,43,138.92
352,F3,67.5,0.5,43,138.92
353,B-3,67.5,0.5,43,138.92
354,F3,68.0,0.5,43,138.92
355,B-3,68.0,0.5,43,138.92
356,F4,68.0,0.5,43,138.92
357,G4,68.5,0.5,58,138.92
358,G#3,69.0,1.0,54,138.92
359,C3,69.5,0.5,36,138.92
360,E-3,69.5,0.5,36,138.92
361,A3,70.0,0.5,50,138.92
362,C3,70.0,0.5,33,138.92
363,E-3,70.0,0.5,33,138.92
364,D4,70.5,1.0,56,138.92
365,E-3,71.0,0.5,34,138.92
366,F2,71.0,0.5,34,138.92
367,A3,71.0,0.5,34,138.92
368,F3,71.0,0.5,34,138.92
369,A3,71.5,0.5,53,138.92
370,E-3,71.5,0.5,34,138.92
371,F2,71.5,0.5,34,138.92
372,F3,71.5,0.5,34,138.92
373,C4,72.0,1.5,50,138.92
374,A3,72.5,0.5,34,138.92
375,F#3,72.5,0.5,34,138.92
376,B-2,72.5,0.5,34,138.92
377,E-3,72.5,0.5,34,138.92
378,F#3,73.0,0.5,30,138.92
379,E-3,73.0,0.5,30,138.92
380,A3,73.0,0.5,30,138.92
381,B-2,73.0,0.5,30,138.92
382,B-3,73.5,1.0,46,138.92
383,E-3,73.5,0.5,32,138.92
384,F3,73.5,1.0,26,138.92
385,B-2,73.5,1.0,26,138.92
386,C#3,74.0,0.5,32,138.92
387,D3,74.5,0.5,32,138.92
388,D4,75.0,1.5,55,138.92
389,G3,75.5,0.5,33,138.92
390,F4,75.5,0.5,33,138.92
391,B-3,75.5,0.5,33,138.92
392,F4,76.0,479/1000,33,138.92
393,G3,76.0,479/1000,33,138.92
394,B-3,76.0,479/1000,33,138.92
395,F4,76.523,1.0,64,138.92
396,A3,77.0,0.5,36,138.92
397,C#4,77.0,0.5,36,138.92
398,A2,77.0,0.5,34,138.92
399,G3,77.0,0.5,34,138.92
400,A3,77.5,0.5,42,138.92
401,C#4,77.5,0.5,42,138.92
402,E4,77.5,0.5,42,138.92
403,G3,77.5,0.5,34,138.92
404,A2,77.5,0.5,34,138.92
405,C#4,78.0,0.25,51,138.92
406,D4,78.25,0.25,53,138.92
407,E4,78.5,0.25,55,138.92
408,D4,78.5,0.25,34,138.92
409,F3,78.5,0.25,34,138.92
410,A3,78.5,0.25,34,138.92
411,F4,78.75,0.25,58,138.92
412,G#4,79.0,0.25,60,138.92
413,D3,79.0,0.25,30,138.92
414,A4,79.25,0.25,63,138.92
415,C#5,79.5,0.25,66,138.92
416,D4,79.5,0.25,44,138.92
417,A3,79.5,0.25,44,138.92
418,F4,79.5,0.25,44,138.92
419,D5,79.75,0.25,68,138.92
420,F5,80.0,0.25,74,138.92
421,D3,80.0,0.25,40,138.92
422,F4,80.5,0.25,45,138.92
423,D4,80.5,0.25,45,138.92
424,A4,80.5,0.25,45,138.92
425,D4,81.0,1.5,56,138.92
426,B-3,81.5,0.5,33,138.92
427,G3,81.5,0.5,33,138.92
428,F4,81.5,0.5,33,138.92
429,B-3,82.0,479/1000,33,138.92
430,F4,82.0,479/1000,33,138.92
431,G3,82.0,479/1000,33,138.92
432,F4,82.5,1.0,64,138.92
433,A3,83.0,0.5,36,138.92
434,C#4,83.0,0.5,36,138.92
435,G3,83.0,0.5,34,138.92
436,A2,83.0,0.5,34,138.92
437,A3,83.5,0.5,42,138.92
438,C#4,83.5,0.5,42,138.92
439,E4,83.5,0.5,42,138.92
440,A2,83.5,0.5,34,138.92
441,G3,83.5,0.5,34,138.92
442,C#4,84.0,0.25,51,138.92
443,D4,84.25,0.25,53,138.92
444,E4,84.5,0.25,55,138.92
445,F3,84.5,0.25,34,138.92
446,A3,84.5,0.25,34,138.92
447,D4,84.5,0.25,34,138.92
448,F4,84.75,0.25,58,138.92
449,G#4,85.0,0.25,60,138.92
450,D3,85.0,0.25,30,138.92
451,A4,85.25,0.25,63,138.92
452,C#5,85.5,0.25,66,138.92
453,A3,85.5,0.25,44,138.92
454,F4,85.5,0.25,44,138.92
455,D4,85.5,0.25,44,138.92
456,D5,85.75,0.25,68,138.92
457,A5,86.0,0.25,73,138.92
458,D3,86.0,0.25,38,138.92
459,D4,86.5,0.25,46,138.92
460,A4,86.5,0.25,46,138.92
461,F4,86.5,0.25,46,138.92
462,D4,87.0,1.5,57,138.92
463,G3,87.5,0.5,33,138.92
464,F4,87.5,0.5,33,138.92
465,B-3,87.5,0.5,33,138.92
466,B-3,88.0,479/1000,33,138.92
467,G3,88.0,479/1000,33,138.92
468,F4,88.0,479/1000,33,138.92
469,F4,88.5,1.0,64,138.92
470,C#4,89.0,0.5,36,138.92
471,A3,89.0,0.5,36,138.92
472,G3,89.0,0.5,34,138.92
473,A2,89.0,0.5,34,138.92
474,E4,89.5,0.5,42,138.92
475,A3,89.5,0.5,42,138.92
476,C#4,89.5,0.5,42,138.92
477,G3,89.5,0.5,34,138.92
478,A2,89.5,0.5,34,138.92
479,C#4,90.0,0.25,51,138.92
480,D4,90.25,0.25,53,138.92
481,E4,90.5,0.25,55,138.92
482,D4,90.5,0.25,34,138.92
483,F3,90.5,0.25,34,138.92
484,A3,90.5,0.25,34,138.92
485,F4,90.75,0.25,58,138.92
486,G#4,91.0,0.25,60,138.92
487,D3,91.0,0.25,30,138.92
488,A4,91.25,0.25,63,138.92
489,C#5,91.5,0.25,66,138.92
490,D4,91.5,0.25,44,138.92
491,F4,91.5,0.25,44,138.92
492,A3,91.5,0.25,44,138.92
493,D5,91.75,0.25,68,138.92
494,F5,92.0,0.25,74,138.92
495,D3,92.0,0.25,40,138.92
496,D4,92.5,0.25,45,138.92
497,A4,92.5,0.25,45,138.92
498,F4,92.5,0.25,45,138.92
499,D4,93.0,1.5,58,138.92
500,G3,93.5,0.5,33,138.92
501,F4,93.5,0.5,33,138.92
502,B-3,93.5,0.5,33,138.92
503,F4,94.0,479/1000,33,138.92
504,G3,94.0,479/1000,33,138.92
505,B-3,94.0,479/1000,33,138.92
506,F4,94.5,1.0,63,138.92
507,C#4,95.0,0.5,36,138.92
508,A3,95.0,0.5,36,138.92
509,A2,95.0,0.5,34,138.92
510,G3,95.0,0.5,34,138.92
511,E4,95.5,0.5,42,138.92
512,A3,95.5,0.5,42,138.92
513,C#4,95.5,0.5,42,138.92
514,G3,95.5,0.5,34,138.92
515,A2,95.5,0.5,34,138.92
516,C#4,96.0,0.25,51,138.92
517,D4,96.25,0.25,53,138.92
518,E4,96.5,0.25,55,138.92
519,D4,96.5,0.25,34,138.92
520,F3,96.5,0.25,34,138.92
521,A3,96.5,0.25,34,138.92
522,F4,96.75,0.25,58,138.92
523,G#4,97.0,0.25,60,138.92
524,D3,97.0,0.25,30,138.92
525,A4,97.25,0.25,63,138.92
526,C#5,97.5,0.25,66,138.92
527,D4,97.5,0.25,44,138.92
528,A3,97.5,0.25,44,138.92
529,F4,97.5,0.25,44,138.92
530,D5,97.75,0.25,68,138.92
531,A5,98.0,0.25,74,138.92
532,D3,98.0,0.25,38,138.92
533,F4,98.5,0.25,46,138.92
534,D4,98.5,0.25,46,138.92
535,A4,98.5,0.25,46,138.92
536,D6,99.0,1.5,85,138.92
537,D4,99.5,0.25,40,138.92
538,C4,99.5,0.25,40,138.92
539,B-4,99.5,0.25,40,138.92
540,F#4,99.5,0.25,40,138.92
541,C4,100.0,0.25,34,138.92
542,F#4,100.0,0.25,34,138.92
543,A4,100.0,0.25,34,138.92
544,D4,100.0,0.25,34,138.92
545,D5,100.5,1.5,72,138.92
546,D4,101.0,0.25,41,138.92
547,B-3,101.0,0.25,41,138.92
548,A4,101.0,0.25,41,138.92
549,B-3,101.5,0.25,36,138.92
550,G4,101.5,0.25,36,138.92
551,D4,101.5,0.25,36,138.92
552,C4,102.0,0.75,57,138.92
553,G3,102.5,0.25,42,138.92
554,B-3,102.5,0.25,42,138.92
555,D4,102.75,0.25,54,138.92
556,E-4,103.0,0.25,57,138.92
557,B-3,103.0,0.25,38,138.92
558,G3,103.0,0.25,38,138.92
559,E4,103.25,0.25,59,138.92
560,G4,103.5,1.0,62,138.92
561,A3,104.0,0.25,46,138.92
562,C4,104.0,0.25,46,138.92
563,F2,104.0,0.25,38,138.92
564,C3,104.0,0.25,38,138.92
565,F4,104.5,0.5,59,138.92
566,C4,104.5,0.25,42,138.92
567,A3,104.5,0.25,42,138.92
568,F2,104.5,0.25,35,138.92
569,C3,104.5,0.25,35,138.92
570,B-5,105.0,1.5,74,138.92
571,D4,105.5,0.25,44,138.92
572,G#3,105.5,0.25,44,138.92
573,G4,105.5,0.25,44,138.92
574,D4,106.0,0.25,37,138.92
575,F4,106.0,0.25,37,138.92
576,G#3,106.0,0.25,37,138.92
577,B-4,106.5,1.5,67,138.92
578,D4,107.0,0.25,41,138.92
579,G3,107.0,0.25,41,138.92
580,F4,107.0,0.25,41,138.92
581,D4,107.5,0.25,36,138.92
582,E4,107.5,0.25,36,138.92
583,G3,107.5,0.25,36,138.92
584,A3,108.0,0.75,57,138.92
585,E3,108.5,0.25,42,138.92
586,G3,108.5,0.25,42,138.92
587,B-3,108.75,0.25,49,138.92
588,B3,109.0,0.25,52,138.92
589,G3,109.0,0.25,38,138.92
590,E3,109.0,0.25,38,138.92
591,C#4,109.25,0.25,55,138.92
592,E4,109.5,1.0,58,138.92
593,F3,110.0,0.25,46,138.92
594,B-2,110.0,0.25,38,138.92
595,D3,110.0,0.25,38,138.92
596,D4,110.5,0.5,56,138.92
597,F3,110.5,0.25,42,138.92
598,D3,110.5,0.25,35,138.92
599,B-2,110.5,0.25,35,138.92
600,E4,111.0,1.0,66,138.92
601,G4,111.5,0.5,39,138.92
602,B-3,111.5,0.5,39,138.92
603,D4,111.5,0.5,39,138.92
604,E3,112.0,0.5,40,138.92
605,G4,112.0,0.5,33,138.92
606,B-3,112.0,0.5,33,138.92
607,D4,112.0,0.5,33,138.92
608,A5,112.5,1.0,70,138.92
609,A3,113.0,0.5,41,138.92
610,G4,113.0,0.5,41,138.92
611,C#4,113.0,0.5,41,138.92
612,A4,113.5,0.5,59,138.92
613,C#4,113.5,0.5,36,138.92
614,A3,113.5,0.5,36,138.92
615,G4,113.5,0.5,36,138.92
616,E4,114.0,1.0,66,138.92
617,D4,114.5,0.5,39,138.92
618,B-3,114.5,0.5,39,138.92
619,G4,114.5,0.5,39,138.92
620,E3,115.0,0.5,40,138.92
621,D4,115.0,0.5,33,138.92
622,B-3,115.0,0.5,33,138.92
623,G4,115.0,0.5,33,138.92
624,A5,115.5,1.0,69,138.92
625,C#4,116.0,0.5,41,138.92
626,A3,116.0,0.5,41,138.92
627,G4,116.0,0.5,41,138.92
628,A4,116.5,0.5,59,138.92
629,C#4,116.5,0.5,36,138.92
630,G4,116.5,0.5,36,138.92
631,A3,116.5,0.5,36,138.92
632,E4,117.0,0.75,50,138.92
633,D4,117.5,1.0,38,138.92
634,G3,117.5,1.0,38,138.92
635,B-3,117.5,1.0,38,138.92
636,E-4,117.75,0.25,45,138.92
637,E4,118.0,0.25,48,138.92
638,F4,118.25,0.25,51,138.92
639,A4,118.5,1.0,54,138.92
640,E3,119.0,1.0,33,138.92
641,D4,119.0,1.0,33,138.92
642,B-3,119.0,1.0,33,138.92
643,G4,119.5,0.5,52,138.92
644,E2,120.0,0.75,46,138.92
645,D4,120.5,1.0,38,138.92
646,B-3,120.5,1.0,38,138.92
647,G3,120.5,1.0,38,138.92
648,E-2,120.75,0.25,40,138.92
649,E2,121.0,0.25,42,138.92
650,G2,121.25,0.25,44,138.92
651,B-2,121.5,1.0,46,138.92
652,E3,122.0,1.0,33,138.92
653,G3,122.0,1.0,33,138.92
654,C#4,122.0,1.0,33,138.92
655,A2,122.5,0.5,43,138.92
656,D4,123.0,1.5,55,138.92
657,G3,123.5,0.5,33,138.92
658,F4,123.5,0.5,33,138.92
659,B-3,123.5,0.5,33,138.92
660,F4,124.0,479/1000,33,138.92
661,G3,124.0,479/1000,33,138.92
662,B-3,124.0,479/1000,33,138.92
663,F4,124.5,1.0,64,138.92
664,C#4,125.0,0.5,36,138.92
665,A3,125.0,0.5,36,138.92
666,A2,125.0,0.5,34,138.92
667,G3,125.0,0.5,34,138.92
668,E4,125.5,0.5,42,138.92
669,A3,125.5,0.5,42,138.92
670,C#4,125.5,0.5,42,138.92
671,G3,125.5,0.5,34,138.92
672,A2,125.5,0.5,34,138.92
673,C#4,126.0,0.25,51,138.92
674,D4,126.25,0.25,53,138.92
675,E4,126.5,0.25,55,138.92
676,D4,126.5,0.25,34,138.92
677,F3,126.5,0.25,34,138.92
678,A3,126.5,0.25,34,138.92
679,F4,126.75,0.25,58,138.92
680,G#4,127.0,0.25,60,138.92
681,D3,127.0,0.25,30,138.92
682,A4,127.25,0.25,63,138.92
683,C#5,127.5,0.25,66,138.92
684,D4,127.5,0.25,44,138.92
685,A3,127.5,0.25,44,138.92
686,F4,127.5,0.25,44,138.92
687,D5,127.75,0.25,68,138.92
688,F5,128.0,0.25,75,138.92
689,D3,128.0,0.25,40,138.92
690,F4,128.5,0.25,50,138.92
691,D4,128.5,0.25,50,138.92
692,A4,128.5,0.25,50,138.92
693,D4,129.0,1.5,58,138.92
694,B-3,129.5,0.5,33,138.92
695,G3,129.5,0.5,33,138.92
696,F4,129.5,0.5,33,138.92
697,F4,130.0,479/1000,33,138.92
698,G3,130.0,479/1000,33,138.92
699,B-3,130.0,479/1000,33,138.92
700,F4,130.5,1.0,64,138.92
701,A3,131.0,0.5,36,138.92
702,C#4,131.0,0.5,36,138.92
703,A2,131.0,0.5,34,138.92
704,G3,131.0,0.5,34,138.92
705,C#4,131.5,0.5,42,138.92
706,E4,131.5,0.5,42,138.92
707,A3,131.5,0.5,42,138.92
708,A2,131.5,0.5,34,138.92
709,G3,131.5,0.5,34,138.92
710,C#4,132.0,0.25,51,138.92
711,D4,132.25,0.25,53,138.92
712,E4,132.5,0.25,55,138.92
713,D4,132.5,0.25,34,138.92
714,A3,132.5,0.25,34,138.92
715,F3,132.5,0.25,34,138.92
716,F4,132.75,0.25,58,138.92
717,G#4,133.0,0.25,60,138.92
718,D3,133.0,0.25,30,138.92
719,A4,133.25,0.25,63,138.92
720,C#5,133.5,0.25,66,138.92
721,D4,133.5,0.25,44,138.92
722,F4,133.5,0.25,44,138.92
723,A3,133.5,0.25,44,138.92
724,D5,133.75,0.25,68,138.92
725,A5,134.0,0.25,74,138.92
726,D3,134.0,0.25,38,138.92
727,F4,134.5,0.25,46,138.92
728,A4,134.5,0.25,46,138.92
729,D4,134.5,0.25,46,138.92
730,D4,135.0,1.5,59,138.92
731,B-3,135.5,0.5,33,138.92
732,F4,135.5,0.5,33,138.92
733,G3,135.5,0.5,33,138.92
734,B-3,136.0,479/1000,33,138.92
735,F4,136.0,479/1000,33,138.92
736,G3,136.0,479/1000,33,138.92
737,F4,136.5,1.0,64,138.92
738,C#4,137.0,0.5,36,138.92
739,A3,137.0,0.5,36,138.92
740,G3,137.0,0.5,34,138.92
741,A2,137.0,0.5,34,138.92
742,E4,137.5,0.5,42,138.92
743,A3,137.5,0.5,42,138.92
744,C#4,137.5,0.5,42,138.92
745,G3,137.5,0.5,34,138.92
746,A2,137.5,0.5,34,138.92
747,C#4,138.0,0.25,51,138.92
748,D4,138.25,0.25,53,138.92
749,E4,138.5,0.25,55,138.92
750,F3,138.5,0.25,34,138.92
751,A3,138.5,0.25,34,138.92
752,D4,138.5,0.25,34,138.92
753,F4,138.75,0.25,58,138.92
754,G#4,139.0,0.25,60,138.92
755,D3,139.0,0.25,30,138.92
756,A4,139.25,0.25,63,138.92
757,C#5,139.5,0.25,66,138.92
758,A3,139.5,0.25,44,138.92
759,F4,139.5,0.25,44,138.92
760,D4,139.5,0.25,44,138.92
761,D5,139.75,0.25,68,138.92
762,F5,140.0,0.25,73,138.92
763,D3,140.0,0.25,40,138.92
764,D4,140.5,0.25,45,138.92
765,A4,140.5,0.25,45,138.92
766,F4,140.5,0.25,45,138.92
767,D4,141.0,1.5,58,138.92
768,G3,141.5,0.5,33,138.92
769,F4,141.5,0.5,33,138.92
770,B-3,141.5,0.5,33,138.92
771,F4,142.0,479/1000,33,138.92
772,G3,142.0,479/1000,33,138.92
773,B-3,142.0,479/1000,33,138.92
774,F4,142.5,1.0,63,138.92
775,C#4,143.0,0.5,36,138.92
776,A3,143.0,0.5,36,138.92
777,A2,143.0,0.5,34,138.92
778,G3,143.0,0.5,34,138.92
779,E4,143.5,0.5,42,138.92
780,A3,143.5,0.5,42,138.92
781,C#4,143.5,0.5,42,138.92
782,G3,143.5,0.5,34,138.92
783,A2,143.5,0.5,34,138.92
784,C#4,144.0,0.25,51,138.92
785,D4,144.25,0.25,53,138.92
786,E4,144.5,0.25,55,138.92
787,D4,144.5,0.25,34,138.92
788,F3,144.5,0.25,34,138.92
789,A3,144.5,0.25,34,138.92
790,F4,144.75,0.25,58,138.92
791,G#4,145.0,0.25,60,138.92
792,D3,145.0,0.25,30,138.92
793,A4,145.25,0.25,63,138.92
794,C#5,145.5,0.25,66,138.92
795,A3,145.5,0.25,44,138.92
796,F4,145.5,0.25,44,138.92
797,D4,145.5,0.25,44,138.92
798,D5,145.75,0.25,68,138.92
799,A5,146.0,0.25,74,138.92
800,D3,146.0,0.25,38,138.92
801,D4,146.5,0.25,46,138.92
802,A4,146.5,0.25,46,138.92
803,F4,146.5,0.25,46,138.92
804,D6,147.0,1.5,86,138.92
805,C4,147.5,0.25,40,138.92
806,F#4,147.5,0.25,40,138.92
807,D4,147.5,0.25,40,138.92
808,B-4,147.5,0.25,40,138.92
809,A4,148.0,0.25,34,138.92
810,C4,148.0,0.25,34,138.92
811,D4,148.0,0.25,34,138.92
812,F#4,148.0,0.25,34,138.92
813,D5,148.5,1.5,72,138.92
814,B-3,149.0,0.25,41,138.92
815,A4,149.0,0.25,41,138.92
816,D4,149.0,0.25,41,138.92
817,B-3,149.5,0.25,36,138.92
818,D4,149.5,0.25,36,138.92
819,G4,149.5,0.25,36,138.92
820,C4,150.0,0.75,57,138.92
821,G3,150.5,0.25,42,138.92
822,B-3,150.5,0.25,42,138.92
823,D4,150.75,0.25,54,138.92
824,E-4,151.0,0.25,57,138.92
825,G3,151.0,0.25,38,138.92
826,B-3,151.0,0.25,38,138.92
827,E4,151.25,0.25,59,138.92
828,G4,151.5,1.0,62,138.92
829,C4,152.0,0.25,46,138.92
830,A3,152.0,0.25,46,138.92
831,C3,152.0,0.25,38,138.92
832,F2,152.0,0.25,38,138.92
833,F4,152.5,0.5,59,138.92
834,C4,152.5,0.25,42,138.92
835,A3,152.5,0.25,42,138.92
836,C3,152.5,0.25,35,138.92
837,F2,152.5,0.25,35,138.92
838,B-5,153.0,1.5,72,138.92
839,B-3,153.5,0.25,38,138.92
840,D4,153.5,0.25,38,138.92
841,G#3,153.5,0.25,38,138.92
842,G4,153.5,0.25,38,138.92
843,F4,154.0,0.25,31,138.92
844,B-3,154.0,0.25,31,138.92
845,G#3,154.0,0.25,31,138.92
846,D4,154.0,0.25,31,138.92
847,B-4,154.5,1.5,62,138.92
848,G3,155.0,0.25,35,138.92
849,F4,155.0,0.25,35,138.92
850,B-3,155.0,0.25,35,138.92
851,G3,155.5,0.25,30,138.92
852,B-3,155.5,0.25,30,138.92
853,E-4,155.5,0.25,30,138.92
854,B-3,156.0,0.75,51,138.92
855,F3,156.5,0.25,38,138.92
856,G#3,156.5,0.25,38,138.92
857,B3,156.75,0.25,43,138.92
858,C4,157.0,0.25,46,138.92
859,F3,157.0,0.25,34,138.92
860,G#3,157.0,0.25,34,138.92
861,D4,157.25,0.25,48,138.92
862,F4,157.5,1.0,51,138.92
863,G3,158.0,0.25,32,138.92
864,C3,158.0,0.25,32,138.92
865,C4,158.0,0.25,32,138.92
866,E-4,158.5,0.5,48,138.92
867,C3,158.5,0.25,29,138.92
868,C4,158.5,0.25,29,138.92
869,G3,158.5,0.25,29,138.92
870,G#2,159.0,0.75,51,138.92
871,F3,159.5,0.375,32,138.92
872,F4,159.5,0.375,32,138.92
873,E-4,159.5,0.375,32,138.92
874,A2,159.75,0.25,43,138.92
875,G#2,160.0,0.25,46,138.92
876,E-4,160.0,0.375,29,138.92
877,F3,160.0,0.375,29,138.92
878,F4,160.0,0.375,29,138.92
879,A2,160.25,0.25,48,138.92
880,D3,160.5,0.5,51,138.92
881,B2,161.0,0.5,42,138.92
882,E-4,161.0,0.375,28,138.92
883,F3,161.0,0.375,28,138.92
884,F4,161.0,0.375,28,138.92
885,C3,161.5,0.5,48,138.92
886,E-4,161.5,0.375,25,138.92
887,F3,161.5,0.375,25,138.92
888,F4,161.5,0.375,25,138.92
889,G#4,162.0,0.75,51,138.92
890,E-4,162.5,0.375,37,138.92
891,F#3,162.5,0.375,37,138.92
892,C4,162.5,0.375,37,138.92
893,A4,162.75,0.25,43,138.92
894,G#4,163.0,0.25,46,138.92
895,C4,163.0,0.375,33,138.92
896,F#3,163.0,0.375,33,138.92
897,E-4,163.0,0.375,33,138.92
898,A4,163.25,0.25,48,138.92
899,D5,163.5,0.5,51,138.92
900,E-4,164.0,0.375,35,138.92
901,B4,164.0,0.5,51,138.92
902,A3,164.0,0.375,33,138.92
903,F3,164.0,0.375,33,138.92
904,C5,164.5,0.5,48,138.92
905,E-4,164.5,0.375,31,138.92
906,A3,164.5,0.375,30,138.92
907,F3,164.5,0.375,30,138.92
908,G#2,165.0,0.75,51,138.92
909,F4,165.5,0.375,32,138.92
910,F3,165.5,0.375,32,138.92
911,E-4,165.5,0.375,32,138.92
912,A2,165.75,0.25,43,138.92
913,G#2,166.0,0.25,46,138.92
914,F4,166.0,0.375,29,138.92
915,F3,166.0,0.375,29,138.92
916,E-4,166.0,0.375,29,138.92
917,A2,166.25,0.25,48,138.92
918,D3,166.5,0.5,51,138.92
919,B2,167.0,0.5,42,138.92
920,F4,167.0,0.375,28,138.92
921,F3,167.0,0.375,28,138.92
922,E-4,167.0,0.375,28,138.92
923,C3,167.5,0.5,48,138.92
924,F3,167.5,0.375,25,138.92
925,E-4,167.5,0.375,25,138.92
926,F4,167.5,0.375,25,138.92
927,G#4,168.0,0.75,51,138.92
928,E-4,168.5,0.375,37,138.92
929,F#3,168.5,0.375,37,138.92
930,C4,168.5,0.375,37,138.92
931,A4,168.75,0.25,43,138.92
932,G#4,169.0,0.25,46,138.92
933,C4,169.0,0.375,33,138.92
934,F#3,169.0,0.375,33,138.92
935,E-4,169.0,0.375,33,138.92
936,A4,169.25,0.25,48,138.92
937,D5,169.5,0.5,51,138.92
938,B4,170.0,0.5,51,138.92
939,E-4,170.0,0.375,35,138.92
940,A3,170.0,0.375,33,138.92
941,F3,170.0,0.375,33,138.92
942,C5,170.5,0.5,48,138.92
943,E-4,170.5,0.375,31,138.92
944,A3,170.5,0.375,30,138.92
945,F3,170.5,0.375,30,138.92
946,G4,171.0,1.0,51,138.92
947,B-3,171.5,0.375,37,138.92
948,C4,171.5,0.375,37,138.92
949,E-4,171.5,0.375,37,138.92
950,C5,172.0,0.5,46,138.92
951,C4,172.0,0.375,28,138.92
952,E-4,172.0,0.375,28,138.92
953,B-3,172.0,0.375,28,138.92
954,F#4,172.5,0.5,51,138.92
955,C4,173.0,0.375,35,138.92
956,E-4,173.0,0.375,35,138.92
957,A3,173.0,0.375,33,138.92
958,F3,173.0,0.375,33,138.92
959,F4,173.5,0.5,48,138.92
960,E-4,173.5,0.375,31,138.92
961,C4,173.5,0.375,31,138.92
962,F3,173.5,0.375,30,138.92
963,A3,173.5,0.375,30,138.92
964,G4,174.0,1.0,48,138.92
965,E-4,174.5,0.375,34,138.92
966,B-3,174.5,0.375,34,138.92
967,C4,174.5,0.375,34,138.92
968,C5,175.0,0.5,42,138.92
969,B-3,175.0,0.375,25,138.92
970,E-4,175.0,0.375,25,138.92
971,C4,175.0,0.375,25,138.92
972,F#4,175.5,0.5,45,138.92
973,E-4,176.0,0.375,31,138.92
974,C4,176.0,0.375,31,138.92
975,F3,176.0,0.375,24,138.92
976,A3,176.0,0.375,24,138.92
977,F4,176.5,0.5,41,138.92
978,C4,176.5,0.375,26,138.92
979,E-4,176.5,0.375,26,138.92
980,F3,176.5,0.375,21,138.92
981,A3,176.5,0.375,21,138.92
982,G4,177.0,1.5,51,138.92
983,D4,177.5,0.5,32,138.92
984,B-3,177.5,0.5,32,138.92
985,F4,177.5,0.5,32,138.92
986,D4,178.0,0.5,29,138.92
987,B-3,178.0,0.5,29,138.92
988,F4,178.0,0.5,29,138.92
989,A4,178.5,1.0,53,138.92
990,B-3,178.5,0.5,31,138.92
991,F4,178.5,0.5,31,138.92
992,D4,178.5,0.5,31,138.92
993,D4,179.0,0.5,29,138.92
994,B-3,179.0,0.5,29,138.92
995,F4,179.0,0.5,29,138.92
996,B-4,179.5,0.5,54,138.92
997,D5,180.0,1.5,61,138.92
998,F4,180.5,0.5,34,138.92
999,A3,180.5,0.5,34,138.92
1000,E-4,180.5,0.5,34,138.92
1001,E-4,181.0,0.5,34,138.92
1002,A3,181.0,0.5,34,138.92
1003,F4,181.0,0.5,34,138.92
1004,C5,181.5,1.0,55,138.92
1005,E-4,181.5,0.5,34,138.92
1006,F4,181.5,0.5,34,138.92
1007,A3,181.5,0.5,34,138.92
1008,A3,182.0,479/1000,34,138.92
1009,F4,182.0,479/1000,34,138.92
1010,E-4,182.0,479/1000,34,138.92
1011,F4,182.5,0.5,52,138.92
1012,B4,183.0,1.5,55,138.92
1013,G#3,183.5,0.5,32,138.92
1014,F4,183.5,0.5,32,138.92
1015,D4,183.5,0.5,32,138.92
1016,G#3,184.0,0.5,32,138.92
1017,F4,184.0,0.5,32,138.92
1018,D4,184.0,0.5,32,138.92
1019,C5,184.5,1.0,60,138.92
1020,G#3,184.5,0.5,35,138.92
1021,F4,184.5,0.5,35,138.92
1022,D4,184.5,0.5,35,138.92
1023,D4,185.0,0.5,35,138.92
1024,F4,185.0,0.5,35,138.92
1025,G#3,185.0,0.5,35,138.92
1026,D5,185.5,0.5,59,138.92
1027,F5,186.0,1.5,66,138.92
1028,C4,186.5,0.5,41,138.92
1029,E-4,186.5,0.5,41,138.92
1030,G3,186.5,0.5,41,138.92
1031,C4,187.0,0.5,41,138.92
1032,G3,187.0,0.5,41,138.92
1033,E-4,187.0,0.5,41,138.92
1034,E-5,187.5,1.0,64,138.92
1035,G3,187.5,0.5,41,138.92
1036,E-4,187.5,0.5,41,138.92
1037,C4,187.5,0.5,41,138.92
1038,C4,188.0,0.5,41,138.92
1039,G3,188.0,0.5,41,138.92
1040,E-4,188.0,0.5,41,138.92
1041,E-5,188.5,0.5,71,138.92
1042,E5,189.0,1.5,77,138.92
1043,A3,189.5,0.5,50,138.92
1044,G3,189.5,0.5,50,138.92
1045,E4,189.5,0.5,50,138.92
1046,C#4,189.5,0.5,50,138.92
1047,A3,190.0,0.5,45,138.92
1048,C#4,190.0,0.5,45,138.92
1049,E4,190.0,0.5,45,138.92
1050,G3,190.0,0.5,45,138.92
1051,B-5,190.5,1.0,72,138.92
1052,A3,190.5,0.5,50,138.92
1053,C#4,190.5,0.5,50,138.92
1054,E4,190.5,0.5,50,138.92
1055,G3,190.5,0.5,50,138.92
1056,A3,191.0,0.5,50,138.92
1057,C#4,191.0,0.5,50,138.92
1058,E4,191.0,0.5,50,138.92
1059,G3,191.0,0.5,50,138.92
1060,A5,191.5,0.5,67,138.92
1061,A4,192.0,1.5,66,138.92
1062,D4,192.5,0.5,41,138.92
1063,F3,192.5,0.5,41,138.92
1064,A3,192.5,0.5,41,138.92
1065,F3,193.0,0.5,41,138.92
1066,A3,193.0,0.5,41,138.92
1067,D4,193.0,0.5,41,138.92
1068,B-5,193.5,1.0,70,138.92
1069,D4,193.5,0.5,41,138.92
1070,F3,193.5,0.5,41,138.92
1071,A3,193.5,0.5,41,138.92
1072,D4,194.0,0.5,40,138.92
1073,A3,194.0,0.5,40,138.92
1074,F3,194.0,0.5,40,138.92
1075,A5,194.5,0.5,62,138.92
1076,A4,195.0,1.5,57,138.92
1077,G3,195.5,0.5,36,138.92
1078,C#4,195.5,0.5,36,138.92
1079,A3,195.5,0.5,36,138.92
1080,E3,195.5,0.5,36,138.92
1081,E3,196.0,0.5,34,138.92
1082,C#4,196.0,0.5,34,138.92
1083,A3,196.0,0.5,34,138.92
1084,G3,196.0,0.5,34,138.92
1085,B-5,196.5,1.0,59,138.92
1086,E3,196.5,0.5,34,138.92
1087,C#4,196.5,0.5,34,138.92
1088,A3,196.5,0.5,34,138.92
1089,G3,196.5,0.5,34,138.92
1090,E3,197.0,0.5,34,138.92
1091,C#4,197.0,0.5,34,138.92
1092,A3,197.0,0.5,34,138.92
1093,G3,197.0,0.5,34,138.92
1094,A5,197.5,0.5,54,138.92
1095,A4,198.0,2.5,50,138.92
1096,D4,198.5,0.5,35,138.92
1097,F4,198.5,0.5,35,138.92
1098,A3,198.5,0.5,28,138.92
1099,D3,198.5,0.5,28,138.92
1100,F4,199.0,0.5,31,138.92
1101,D4,199.0,0.5,31,138.92
1102,D3,199.0,0.5,25,138.92
1103,A3,199.0,0.5,25,138.92
1104,D4,199.5,0.5,31,138.92
1105,F4,199.5,0.5,31,138.92
1106,D3,199.5,0.5,25,138.92
1107,A3,199.5,0.5,25,138.92
1108,F4,200.0,0.5,31,138.92
1109,D4,200.0,0.5,31,138.92
1110,A3,200.0,0.5,25,138.92
1111,D3,200.0,0.5,25,138.92
1112,F3,200.5,0.5,52,138.92
1113,G3,201.0,1.5,55,138.92
1114,C3,201.5,0.5,33,138.92
1115,E-4,201.5,0.5,33,138.92
1116,F4,201.5,0.5,33,138.92
1117,F3,201.5,0.5,33,138.92
1118,F3,202.0,0.5,30,138.92
1119,C3,202.0,0.5,30,138.92
1120,F4,202.0,0.5,30,138.92
1121,E-4,202.0,0.5,30,138.92
1122,A3,202.5,1.0,56,138.92
1123,C3,202.5,0.5,33,138.92
1124,E-4,202.5,0.5,33,138.92
1125,F3,202.5,0.5,33,138.92
1126,F4,202.5,0.5,33,138.92
1127,F3,203.0,0.5,31,138.92
1128,C3,203.0,0.5,31,138.92
1129,F4,203.0,0.5,31,138.92
1130,E-4,203.0,0.5,31,138.92
1131,C4,203.5,0.5,52,138.92
1132,G3,204.0,1.5,59,138.92
1133,B-2,204.5,0.5,34,138.92
1134,B-3,204.5,0.5,34,138.92
1135,D4,204.5,0.5,34,138.92
1136,B-2,205.0,0.5,34,138.92
1137,D4,205.0,0.5,34,138.92
1138,B-3,205.0,0.5,34,138.92
1139,F3,205.5,1.0,55,138.92
1140,B-3,205.5,0.5,34,138.92
1141,B-2,205.5,0.5,34,138.92
1142,D4,205.5,0.5,34,138.92
1143,B-3,206.0,0.5,34,138.92
1144,D4,206.0,0.5,34,138.92
1145,B-2,206.0,0.5,34,138.92
1146,G3,206.5,0.5,57,138.92
1147,A3,207.0,1.5,60,138.92
1148,G3,207.5,0.5,35,138.92
1149,F4,207.5,0.5,35,138.92
1150,G4,207.5,0.5,35,138.92
1151,D3,207.5,0.5,35,138.92
1152,G3,208.0,0.5,36,138.92
1153,D3,208.0,0.5,36,138.92
1154,G4,208.0,0.5,36,138.92
1155,F4,208.0,0.5,36,138.92
1156,B3,208.5,1.0,66,138.92
1157,D3,208.5,0.5,39,138.92
1158,F4,208.5,0.5,39,138.92
1159,G4,208.5,0.5,39,138.92
1160,G3,208.5,0.5,39,138.92
1161,G3,209.0,0.5,40,138.92
1162,D3,209.0,0.5,40,138.92
1163,G4,209.0,0.5,40,138.92
1164,F4,209.0,0.5,40,138.92
1165,D4,209.5,0.5,63,138.92
1166,G#3,210.0,1.5,75,138.92
1167,C3,210.5,0.5,48,138.92
1168,E-4,210.5,0.5,48,138.92
1169,C4,210.5,0.5,48,138.92
1170,C3,211.0,0.5,49,138.92
1171,E-4,211.0,0.5,49,138.92
1172,C4,211.0,0.5,49,138.92
1173,G3,211.5,1.0,75,138.92
1174,C4,211.5,0.5,49,138.92
1175,C3,211.5,0.5,49,138.92
1176,E-4,211.5,0.5,49,138.92
1177,C4,212.0,479/1000,46,138.92
1178,E-4,212.0,479/1000,46,138.92
1179,C3,212.0,479/1000,46,138.92
1180,C4,212.5,0.5,79,138.92
1181,C#4,213.0,3.0,84,138.92
1182,B-3,213.5,0.5,59,138.92
1183,E4,213.5,0.5,59,138.92
1184,G3,213.5,0.5,59,138.92
1185,B-3,214.0,0.5,49,138.92
1186,G3,214.0,0.5,49,138.92
1187,E4,214.0,0.5,49,138.92
1188,C5,214.5,1.0,79,138.92
1189,G3,214.5,0.5,54,138.92
1190,E4,214.5,0.5,54,138.92
1191,B-3,214.5,0.5,54,138.92
1192,B-3,215.0,0.5,54,138.92
1193,G3,215.0,0.5,54,138.92
1194,E4,215.0,0.5,54,138.92
1195,B-4,215.5,0.5,73,138.92
1196,D4,216.0,3.0,81,138.92
1197,F4,216.5,0.5,45,138.92
1198,F3,216.5,0.5,45,138.92
1199,B-3,216.5,0.5,45,138.92
1200,F3,217.0,0.5,45,138.92
1201,B-3,217.0,0.5,45,138.92
1202,F4,217.0,0.5,45,138.92
1203,A4,217.5,1.0,76,138.92
1204,F4,217.5,0.5,45,138.92
1205,F3,217.5,0.5,45,138.92
1206,B-3,217.5,0.5,45,138.92
1207,F3,218.0,0.5,45,138.92
1208,B-3,218.0,0.5,45,138.92
1209,F4,218.0,0.5,45,138.92
1210,G4,218.5,0.5,69,138.92
1211,G#3,219.0,1.0,64,138.92
1212,C3,219.5,0.5,42,138.92
1213,E-3,219.5,0.5,42,138.92
1214,A3,220.0,0.5,58,138.92
1215,C3,220.0,0.5,38,138.92
1216,E-3,220.0,0.5,38,138.92
1217,D4,220.5,1.0,63,138.92
1218,E-3,221.0,0.5,38,138.92
1219,F2,221.0,0.5,38,138.92
1220,A3,221.0,0.5,38,138.92
1221,F3,221.0,0.5,38,138.92
1222,A3,221.5,0.5,57,138.92
1223,E-3,221.5,0.5,37,138.92
1224,F2,221.5,0.5,37,138.92
1225,F3,221.5,0.5,37,138.92
1226,C4,222.0,1.5,53,138.92
1227,A3,222.5,0.5,36,138.92
1228,F#3,222.5,0.5,36,138.92
1229,B-2,222.5,0.5,36,138.92
1230,E-3,222.5,0.5,36,138.92
1231,A3,223.0,0.5,31,138.92
1232,E-3,223.0,0.5,31,138.92
1233,B-2,223.0,0.5,31,138.92
1234,F#3,223.0,0.5,31,138.92
1235,B-3,223.5,1.0,46,138.92
1236,E-3,223.5,0.5,32,138.92
1237,B-2,223.5,1.0,29,138.92
1238,F3,223.5,1.0,29,138.92
1239,C#3,224.0,0.5,32,138.92
1240,D3,224.5,0.5,32,138.92
1241,G#4,225.0,1.0,45,138.92
1242,E-4,225.5,0.375,28,138.92
1243,F#3,225.5,0.375,28,138.92
1244,C4,225.5,0.375,28,138.92
1245,A4,226.0,0.5,39,138.92
1246,C4,226.0,0.375,25,138.92
1247,F#3,226.0,0.375,25,138.92
1248,E-4,226.0,0.375,25,138.92
1249,D5,226.5,1.0,45,138.92
1250,F#3,226.5,0.375,28,138.92
1251,C4,226.5,0.375,28,138.92
1252,D4,226.5,0.375,28,138.92
1253,D4,227.0,0.375,26,138.92
1254,C4,227.0,0.375,26,138.92
1255,F#3,227.0,0.375,26,138.92
1256,A4,227.5,0.5,39,138.92
1257,C5,228.0,1.5,45,138.92
1258,G3,228.5,0.375,28,138.92
1259,B-3,228.5,0.375,28,138.92
1260,D4,228.5,0.375,28,138.92
1261,G3,229.0,0.375,25,138.92
1262,D4,229.0,0.375,25,138.92
1263,B-3,229.0,0.375,25,138.92
1264,B-4,229.5,1.5,45,138.92
1265,G3,230.0,0.375,28,138.92
1266,E-4,230.0,0.375,28,138.92
1267,B-3,230.0,0.375,28,138.92
1268,B-3,230.5,0.375,26,138.92
1269,E-4,230.5,0.375,26,138.92
1270,G3,230.5,0.375,26,138.92
1271,C#4,231.0,1.5,50,138.92
1272,E4,231.5,0.375,28,138.92
1273,B-3,231.5,0.375,28,138.92
1274,F#3,231.5,0.375,28,138.92
1275,B-3,232.0,0.375,25,138.92
1276,F#3,232.0,0.375,25,138.92
1277,E4,232.0,0.375,25,138.92
1278,D4,232.5,1.5,47,138.92
1279,B-3,233.0,0.375,28,138.92
1280,F3,233.0,0.375,28,138.92
1281,F4,233.0,0.375,28,138.92
1282,B-3,233.5,0.375,26,138.92
1283,F3,233.5,0.375,26,138.92
1284,F4,233.5,0.375,26,138.92
1285,A3,234.0,1.5,44,138.92
1286,F#3,235.0,0.5,27,138.92
1287,E-3,235.0,0.5,27,138.92
1288,B-3,235.5,1.5,36,138.92
1289,D3,236.5,0.5,22,138.92
1290,F3,236.5,0.5,22,138.92
1291,B-2,236.5,0.5,22,138.92
1292,G#5,237.0,1.0,51,138.92
1293,E-5,237.5,0.375,25,138.92
1294,C5,237.5,0.375,25,138.92
1295,F#4,237.5,0.375,25,138.92
1296,A5,238.0,0.5,44,138.92
1297,C5,238.0,0.375,22,138.92
1298,F#4,238.0,0.375,22,138.92
1299,E-5,238.0,0.375,22,138.92
1300,D6,238.5,1.0,51,138.92
1301,F#4,239.0,0.375,25,138.92
1302,D5,239.0,0.375,25,138.92
1303,C5,239.0,0.375,25,138.92
1304,A5,239.5,0.5,44,138.92
1305,C5,239.5,0.375,23,138.92
1306,D5,239.5,0.375,23,138.92
1307,F#4,239.5,0.375,23,138.92
1308,C6,240.0,1.5,51,138.92
1309,D5,240.5,0.375,25,138.92
1310,B-4,240.5,0.375,25,138.92
1311,G4,240.5,0.375,25,138.92
1312,B-4,241.0,0.375,22,138.92
1313,G4,241.0,0.375,22,138.92
1314,D5,241.0,0.375,22,138.92
1315,B-5,241.5,1.5,51,138.92
1316,B-4,242.0,0.375,25,138.92
1317,G4,242.0,0.375,25,138.92
1318,E-5,242.0,0.375,25,138.92
1319,B-4,242.5,0.375,23,138.92
1320,G4,242.5,0.375,23,138.92
1321,E-5,242.5,0.375,23,138.92
1322,C#5,243.0,1.5,57,138.92
1323,E5,243.5,0.375,25,138.92
1324,F#4,243.5,0.375,25,138.92
1325,B-4,243.5,0.375,25,138.92
1326,F#4,244.0,0.375,22,138.92
1327,E5,244.0,0.375,22,138.92
1328,B-4,244.0,0.375,22,138.92
1329,D5,244.5,1.5,54,138.92
1330,F4,245.0,0.375,25,138.92
1331,F5,245.0,0.375,25,138.92
1332,B-4,245.0,0.375,25,138.92
1333,F4,245.5,0.375,23,138.92
1334,F5,245.5,0.375,23,138.92
1335,B-4,245.5,0.375,23,138.92
1336,A4,246.0,1.5,44,138.92
1337,E-4,247.0,0.5,24,138.92
1338,F#4,247.0,0.5,24,138.92
1339,B-4,247.5,1.5,36,138.92
1340,D4,248.5,0.5,20,138.92
1341,B-3,248.5,0.5,20,138.92
1342,F4,248.5,0.5,20,138.92
1343,A4,249.0,1.5,44,138.92
1344,F#4,250.0,0.5,24,138.92
1345,E-4,250.0,0.5,24,138.92
1346,B-4,250.5,1.5,36,138.92
1347,D4,251.5,0.5,20,138.92
1348,F4,251.5,0.5,20,138.92
1349,B-3,251.5,0.5,20,138.92
1350,A4,252.0,1.5,44,138.92
1351,F#4,253.0,0.5,24,138.92
1352,E-4,253.0,0.5,24,138.92
1353,B-4,253.5,1.5,36,138.92
1354,B-3,254.5,0.5,20,138.92
1355,F4,254.5,0.5,20,138.92
1356,D4,254.5,0.5,20,138.92
1357,A4,254.977,23/1000,44,138.92
1358,A4,255.0,1977/1000,44,138.92
1359,F#4,256.5,1.5,24,138.92
1360,E-4,256.5,1.5,24,138.92
1361,G#4,257.0,0.25,39,138.92
1362,A4,257.25,0.25,33,138.92
1363,B-4,257.5,0.25,37,138.92
1364,A4,257.75,0.25,31,138.92
1365,D5,258.0,1.0,42,138.92
1366,C5,259.0,0.5,38,138.92
1367,B-4,259.5,1.5,28,138.92
1368,D4,259.5,1.5,28,138.92
1369,F4,259.5,1.5,28,138.92
1370,F3,259.5,1.5,20,138.92
1371,B-2,259.5,1.5,20,138.92
