,note_name,start_time,duration,velocity,tempo
0,D4,2.0,0.5,45,185.93
1,F#4,2.0,0.5,47,185.93
2,B4,2.0,0.5,47,185.93
3,F4,2.5,0.5,46,185.93
4,C#4,2.5,0.5,43,185.93
5,D4,3.0,1.0,45,185.93
6,F#4,3.0,1.0,47,185.93
7,B4,3.0,1.0,47,185.93
8,B2,3.5,0.5,38,185.93
9,C#4,4.0,0.5,43,185.93
10,E4,4.0,0.5,47,185.93
11,B-4,4.0,0.5,47,185.93
12,B2,4.5,0.5,37,185.93
13,B3,5.0,0.5,44,185.93
14,D4,5.0,0.5,47,185.93
15,G4,5.0,0.5,47,185.93
16,C#4,5.5,0.5,45,185.93
17,B-3,5.5,0.5,42,185.93
18,B3,6.0,1.0,45,185.93
19,G4,6.0,1.0,47,185.93
20,D4,6.0,1.0,47,185.93
21,B2,6.5,0.5,39,185.93
22,B-3,7.0,0.5,44,185.93
23,C#4,7.0,0.5,46,185.93
24,F#4,7.0,0.5,46,185.93
25,B2,7.5,0.5,38,185.93
26,A3,8.0,0.5,44,185.93
27,C4,8.0,0.5,47,185.93
28,F#4,8.0,0.5,47,185.93
29,B3,8.5,0.5,46,185.93
30,G#3,8.5,0.5,41,185.93
31,A3,9.0,1.0,45,185.93
32,C4,9.0,1.0,47,185.93
33,F#4,9.0,1.0,47,185.93
34,B2,9.5,0.5,38,185.93
35,G#3,10.0,0.5,44,185.93
36,E4,10.0,0.5,44,185.93
37,B3,10.0,0.5,44,185.93
38,B2,10.5,0.5,35,185.93
39,G3,11.0,0.5,45,185.93
40,E4,11.0,0.5,47,185.93
41,B-3,11.0,0.5,47,185.93
42,B2,11.5,0.5,43,185.93
43,F#3,12.0,0.5,49,185.93
44,B-3,12.0,0.5,50,185.93
45,D4,12.0,0.5,50,185.93
46,B2,12.5,0.5,50,185.93
47,E3,13.0,0.5,47,185.93
48,B-3,13.0,0.5,48,185.93
49,C#4,13.0,0.5,48,185.93
50,B3,13.5,0.5,47,185.93
51,B2,13.5,0.5,44,185.93
52,D3,13.5,0.5,44,185.93
53,F3,14.0,0.25,52,185.93
54,F#3,14.5,0.25,54,185.93
55,G3,15.0,1.5,59,185.93
56,D4,15.5,0.25,47,185.93
57,D5,15.5,0.25,47,185.93
58,B4,15.5,0.25,47,185.93
59,D5,16.0,0.25,49,185.93
60,B4,16.0,0.25,49,185.93
61,E4,16.0,0.25,49,185.93
62,G2,16.5,0.5,49,185.93
63,D5,16.5,0.25,46,185.93
64,B4,16.5,0.25,46,185.93
65,F4,16.5,0.25,46,185.93
66,A2,17.0,0.25,51,185.93
67,G2,17.5,0.25,49,185.93
68,F#2,18.0,1.5,51,185.93
69,G#3,18.5,0.25,45,185.93
70,F#4,18.5,0.25,45,185.93
71,B3,18.5,0.25,45,185.93
72,C#4,19.0,0.25,46,185.93
73,B-3,19.0,0.25,46,185.93
74,E4,19.0,0.25,46,185.93
75,B2,19.5,0.5,48,185.93
76,B3,19.5,0.25,46,185.93
77,D4,19.5,0.25,46,185.93
78,F3,20.0,0.25,51,185.93
79,F#3,20.5,0.25,54,185.93
80,G3,21.0,1.5,58,185.93
81,D5,21.5,0.25,47,185.93
82,B4,21.5,0.25,47,185.93
83,D4,21.5,0.25,47,185.93
84,D5,22.0,0.25,49,185.93
85,E4,22.0,0.25,49,185.93
86,B4,22.0,0.25,49,185.93
87,G2,22.5,0.5,49,185.93
88,F4,22.5,0.25,45,185.93
89,B4,22.5,0.25,45,185.93
90,D5,22.5,0.25,45,185.93
91,A2,23.0,0.25,51,185.93
92,G2,23.5,0.25,49,185.93
93,F#2,24.0,1.5,49,185.93
94,F#4,24.5,0.25,47,185.93
95,B3,24.5,0.25,47,185.93
96,G#3,24.5,0.25,47,185.93
97,E4,25.0,0.25,46,185.93
98,C#4,25.0,0.25,46,185.93
99,B-3,25.0,0.25,46,185.93
100,B2,25.5,0.25,49,185.93
101,B3,25.5,0.25,46,185.93
102,D4,25.5,0.25,46,185.93
103,D4,26.0,0.5,45,185.93
104,F#4,26.0,0.5,47,185.93
105,B4,26.0,0.5,47,185.93
106,F4,26.5,0.5,46,185.93
107,C#4,26.5,0.5,43,185.93
108,D4,27.0,1.0,45,185.93
109,F#4,27.0,1.0,47,185.93
110,B4,27.0,1.0,47,185.93
111,B2,27.5,0.5,41,185.93
112,C#4,28.0,0.5,43,185.93
113,B-4,28.0,0.5,47,185.93
114,E4,28.0,0.5,47,185.93
115,B2,28.5,0.5,37,185.93
116,B3,29.0,0.5,44,185.93
117,D4,29.0,0.5,47,185.93
118,G4,29.0,0.5,47,185.93
119,C#4,29.5,0.5,45,185.93
120,B-3,29.5,0.5,42,185.93
121,B3,30.0,1.0,45,185.93
122,D4,30.0,1.0,47,185.93
123,G4,30.0,1.0,47,185.93
124,B2,30.5,0.5,40,185.93
125,B-3,31.0,0.5,44,185.93
126,C#4,31.0,0.5,46,185.93
127,F#4,31.0,0.5,46,185.93
128,B2,31.5,0.5,36,185.93
129,A3,32.0,0.5,44,185.93
130,F#4,32.0,0.5,47,185.93
131,C4,32.0,0.5,47,185.93
132,B3,32.5,0.5,46,185.93
133,G#3,32.5,0.5,41,185.93
134,A3,33.0,1.0,45,185.93
135,F#4,33.0,1.0,47,185.93
136,C4,33.0,1.0,47,185.93
137,B2,33.5,0.5,42,185.93
138,G#3,34.0,0.5,44,185.93
139,B3,34.0,0.5,44,185.93
140,E4,34.0,0.5,44,185.93
141,B2,34.5,0.5,38,185.93
142,G3,35.0,0.5,45,185.93
143,B-3,35.0,0.5,47,185.93
144,E4,35.0,0.5,47,185.93
145,B2,35.5,0.5,43,185.93
146,F#3,36.0,0.5,49,185.93
147,B-3,36.0,0.5,50,185.93
148,D4,36.0,0.5,50,185.93
149,B2,36.5,0.5,50,185.93
150,E3,37.0,0.5,47,185.93
151,C#4,37.0,0.5,48,185.93
152,B-3,37.0,0.5,48,185.93
153,B3,37.5,0.5,47,185.93
154,D3,37.5,0.5,44,185.93
155,B2,37.5,0.5,44,185.93
156,F3,38.0,0.25,52,185.93
157,F#3,38.5,0.25,54,185.93
158,G3,39.0,1.5,59,185.93
159,D4,39.5,0.25,47,185.93
160,B4,39.5,0.25,47,185.93
161,D5,39.5,0.25,47,185.93
162,D5,40.0,0.25,49,185.93
163,B4,40.0,0.25,49,185.93
164,E4,40.0,0.25,49,185.93
165,G2,40.5,0.5,49,185.93
166,D5,40.5,0.25,46,185.93
167,B4,40.5,0.25,46,185.93
168,F4,40.5,0.25,46,185.93
169,A2,41.0,0.25,51,185.93
170,G2,41.5,0.25,49,185.93
171,F#2,42.0,1.5,51,185.93
172,F#4,42.5,0.25,45,185.93
173,B3,42.5,0.25,45,185.93
174,G#3,42.5,0.25,45,185.93
175,E4,43.0,0.25,44,185.93
176,C#4,43.0,0.25,44,185.93
177,B-3,43.0,0.25,44,185.93
178,B2,43.5,0.5,48,185.93
179,B3,43.5,0.25,46,185.93
180,D4,43.5,0.25,46,185.93
181,F3,44.0,0.25,51,185.93
182,F#3,44.5,0.25,54,185.93
183,G3,45.0,2.0,60,185.93
184,B4,45.5,0.25,50,185.93
185,D4,45.5,0.25,50,185.93
186,D5,45.5,0.25,50,185.93
187,E4,46.0,0.25,53,185.93
188,B4,46.0,0.25,53,185.93
189,D5,46.0,0.25,53,185.93
190,F4,46.5,1.0,58,185.93
191,B4,46.5,1.0,58,185.93
192,D5,46.5,1.0,58,185.93
193,G#3,47.0,1.0,66,185.93
194,F4,47.5,0.5,62,185.93
195,B4,47.5,0.5,62,185.93
196,C#5,47.5,0.5,62,185.93
197,C#4,48.0,1.0,66,185.93
198,F4,48.0,0.5,62,185.93
199,B4,48.0,0.5,62,185.93
200,C#5,48.0,0.5,62,185.93
201,B4,48.5,1.0,68,185.93
202,C#5,48.5,1.0,68,185.93
203,F5,48.5,1.0,68,185.93
204,G#4,49.0,0.5,68,185.93
205,F#4,49.5,0.375,61,185.93
206,F#5,49.5,0.375,69,185.93
207,C#5,49.5,0.375,69,185.93
208,B-4,49.5,0.375,69,185.93
209,D5,50.0,0.5,45,185.93
210,B5,50.0,0.5,47,185.93
211,F#5,50.0,0.5,47,185.93
212,F5,50.5,0.5,46,185.93
213,C#5,50.5,0.5,43,185.93
214,D5,51.0,1.0,45,185.93
215,F#5,51.0,1.0,47,185.93
216,B5,51.0,1.0,47,185.93
217,F#4,51.5,0.5,36,185.93
218,C#5,52.0,0.5,43,185.93
219,E5,52.0,0.5,47,185.93
220,B-5,52.0,0.5,47,185.93
221,F#4,52.5,1.5,33,185.93
222,B4,53.0,0.5,44,185.93
223,D5,53.0,0.5,47,185.93
224,G5,53.0,0.5,47,185.93
225,C#5,53.5,0.5,45,185.93
226,B-4,53.5,0.5,42,185.93
227,B4,54.0,1.0,45,185.93
228,F#4,54.0,0.5,33,185.93
229,D5,54.0,1.0,47,185.93
230,G5,54.0,1.0,47,185.93
231,F#4,54.5,0.5,39,185.93
232,B-4,55.0,0.5,44,185.93
233,C#5,55.0,0.5,46,185.93
234,F#5,55.0,0.5,46,185.93
235,F#4,55.5,0.5,37,185.93
236,C5,56.0,0.5,66,185.93
237,F#5,56.0,0.5,66,185.93
238,A4,56.0,1.0,60,185.93
239,E4,56.0,1.0,60,185.93
240,B4,56.5,0.5,64,185.93
241,C5,57.0,0.5,66,185.93
242,F#5,57.0,0.5,66,185.93
243,C5,57.5,0.5,67,185.93
244,F#4,57.5,0.5,67,185.93
245,A4,57.5,0.5,60,185.93
246,E4,57.5,0.5,60,185.93
247,F4,58.0,0.5,60,185.93
248,E4,58.0,1.5,53,185.93
249,A3,58.0,1.5,53,185.93
250,F#4,58.5,0.5,64,185.93
251,C5,58.5,0.5,64,185.93
252,C4,59.0,0.5,67,185.93
253,E4,59.0,0.5,67,185.93
254,B3,59.5,0.5,67,185.93
255,A3,59.5,1.0,53,185.93
256,F#3,59.5,1.0,53,185.93
257,C4,60.0,0.5,64,185.93
258,E4,60.0,0.5,64,185.93
259,A3,60.5,0.5,53,185.93
260,F#3,60.5,0.5,53,185.93
261,C3,61.0,0.25,53,185.93
262,E-4,61.0,0.25,66,185.93
263,F#3,61.0,0.25,66,185.93
264,A3,61.0,0.25,66,185.93
265,B2,61.5,0.25,46,185.93
266,E4,61.5,0.25,70,185.93
267,B3,61.5,0.25,70,185.93
268,G3,61.5,0.25,70,185.93
269,E3,62.0,0.25,53,185.93
270,B5,62.0,0.5,52,185.93
271,E6,62.0,0.5,52,185.93
272,B-5,62.5,0.5,52,185.93
273,G5,62.5,0.5,50,185.93
274,F#5,63.0,0.5,48,185.93
275,B5,63.0,1.0,52,185.93
276,E6,63.0,1.0,52,185.93
277,G5,63.5,1.0,50,185.93
278,B4,64.0,0.5,46,185.93
279,E-6,64.0,0.5,52,185.93
280,A5,64.0,0.5,52,185.93
281,F#5,64.5,0.5,48,185.93
282,B4,65.0,1.5,43,185.93
283,G5,65.0,0.5,52,185.93
284,C6,65.0,0.5,52,185.93
285,F#5,65.5,0.5,51,185.93
286,E5,65.5,0.5,49,185.93
287,E-5,66.0,0.5,47,185.93
288,G5,66.0,1.0,52,185.93
289,C6,66.0,1.0,52,185.93
290,E5,66.5,1.0,50,185.93
291,B4,66.5,0.5,43,185.93
292,B4,67.0,0.5,44,185.93
293,F#5,67.0,0.5,51,185.93
294,B5,67.0,0.5,51,185.93
295,E-5,67.5,0.5,49,185.93
296,B4,68.0,0.5,38,185.93
297,F5,68.0,0.5,66,185.93
298,B5,68.0,0.5,66,185.93
299,E5,68.5,0.5,64,185.93
300,A4,68.5,1.0,60,185.93
301,D5,68.5,1.0,60,185.93
302,F5,69.0,0.5,66,185.93
303,B5,69.0,0.5,66,185.93
304,B4,69.5,0.5,67,185.93
305,F5,69.5,0.5,67,185.93
306,B-4,70.0,0.5,60,185.93
307,A4,70.0,0.5,60,185.93
308,D5,70.0,0.5,60,185.93
309,B4,70.5,0.5,64,185.93
310,F5,70.5,0.5,64,185.93
311,D4,70.5,1.5,53,185.93
312,A4,70.5,1.5,53,185.93
313,A4,71.0,0.5,67,185.93
314,F4,71.0,0.5,67,185.93
315,E4,71.5,0.5,67,185.93
316,F4,72.0,0.5,64,185.93
317,A4,72.0,0.5,64,185.93
318,B3,72.0,1.0,53,185.93
319,D4,72.0,1.0,53,185.93
320,G#4,73.0,0.5,56,185.93
321,D4,73.0,0.5,56,185.93
322,B3,73.0,0.5,56,185.93
323,B3,73.0,0.5,53,185.93
324,D4,73.0,0.5,53,185.93
325,F3,73.5,0.25,53,185.93
326,A4,73.5,0.5,55,185.93
327,C4,73.5,0.5,55,185.93
328,E3,74.0,0.25,40,185.93
329,A4,74.0,1.0,53,185.93
330,C4,74.0,1.0,53,185.93
331,A2,74.5,0.25,47,185.93
332,F3,75.0,0.25,37,185.93
333,D4,75.0,1.0,53,185.93
334,G#4,75.0,1.0,53,185.93
335,B4,75.0,1.0,53,185.93
336,E3,75.5,0.25,37,185.93
337,A2,76.0,0.25,43,185.93
338,C5,76.0,0.5,55,185.93
339,A4,76.0,0.5,55,185.93
340,E4,76.0,0.5,55,185.93
341,F3,76.5,0.25,37,185.93
342,E3,77.0,0.25,37,185.93
343,A4,77.0,1.0,54,185.93
344,C4,77.0,1.0,54,185.93
345,A2,77.5,0.25,43,185.93
346,F3,78.0,0.25,37,185.93
347,G#4,78.0,1.0,53,185.93
348,D4,78.0,1.0,53,185.93
349,B3,78.0,1.0,53,185.93
350,E3,78.5,0.25,37,185.93
351,A2,79.0,0.25,43,185.93
352,A4,79.0,0.5,53,185.93
353,C4,79.0,0.5,53,185.93
354,A3,79.0,0.5,53,185.93
355,F3,79.5,0.25,38,185.93
356,E3,80.0,0.25,38,185.93
357,E4,80.0,1.0,55,185.93
358,C5,80.0,1.0,55,185.93
359,A2,80.5,0.25,45,185.93
360,A3,81.0,0.25,39,185.93
361,D5,81.0,1.0,59,185.93
362,B4,81.0,1.0,59,185.93
363,F4,81.0,1.0,59,185.93
364,G#3,81.5,0.25,39,185.93
365,C3,82.0,0.25,48,185.93
366,E4,82.0,0.5,61,185.93
367,C5,82.0,0.5,61,185.93
368,E5,82.0,0.5,61,185.93
369,A3,82.5,0.25,44,185.93
370,G#3,83.0,0.25,44,185.93
371,E4,83.0,1.0,56,185.93
372,C5,83.0,1.0,56,185.93
373,C3,83.5,0.25,47,185.93
374,A3,84.0,0.25,44,185.93
375,D4,84.0,1.0,53,185.93
376,B4,84.0,1.0,53,185.93
377,F4,84.0,1.0,53,185.93
378,G#3,84.5,0.25,44,185.93
379,C3,85.0,0.25,47,185.93
380,C5,85.0,0.5,56,185.93
381,E4,85.0,0.5,56,185.93
382,C4,85.0,0.5,56,185.93
383,A3,85.5,0.25,43,185.93
384,G#3,86.0,0.25,43,185.93
385,G4,86.0,1.0,58,185.93
386,E5,86.0,1.0,58,185.93
387,C3,86.5,0.25,49,185.93
388,C4,87.0,0.25,44,185.93
389,A4,87.0,1.0,57,185.93
390,E-5,87.0,1.0,57,185.93
391,F#5,87.0,1.0,57,185.93
392,B3,87.5,0.25,44,185.93
393,E3,88.0,0.25,48,185.93
394,G5,88.0,0.5,59,185.93
395,G4,88.0,0.5,59,185.93
396,E5,88.0,0.5,59,185.93
397,C4,88.5,0.25,43,185.93
398,B3,89.0,0.25,43,185.93
399,B4,89.0,1.0,64,185.93
400,G5,89.0,1.0,64,185.93
401,E3,89.5,0.25,49,185.93
402,E4,90.0,0.25,44,185.93
403,C5,90.0,1.0,59,185.93
404,A5,90.0,1.0,59,185.93
405,F#5,90.0,1.0,59,185.93
406,E-4,90.5,0.25,44,185.93
407,G3,91.0,0.25,51,185.93
408,B4,91.0,0.5,62,185.93
409,G5,91.0,0.5,62,185.93
410,B5,91.0,0.5,62,185.93
411,E4,91.5,0.25,46,185.93
412,E-4,92.0,0.25,47,185.93
413,B5,92.0,1.0,66,185.93
414,D5,92.0,1.0,66,185.93
415,G3,92.5,0.25,51,185.93
416,G4,93.0,0.25,46,185.93
417,C#6,93.0,1.0,62,185.93
418,B-5,93.0,1.0,62,185.93
419,E5,93.0,1.0,62,185.93
420,F#4,93.5,0.25,46,185.93
421,B3,94.0,0.25,54,185.93
422,D5,94.0,0.5,70,185.93
423,B5,94.0,0.5,70,185.93
424,D6,94.0,0.5,70,185.93
425,G4,94.5,0.25,49,185.93
426,F#4,95.0,0.25,51,185.93
427,F#5,95.0,1.0,78,185.93
428,D6,95.0,1.0,78,185.93
429,B3,95.5,0.25,57,185.93
430,B4,96.0,0.25,53,185.93
431,C#6,96.0,1.0,74,185.93
432,E6,96.0,1.0,74,185.93
433,G5,96.0,1.0,74,185.93
434,B-4,96.5,0.25,51,185.93
435,D4,97.0,0.25,62,185.93
436,F#6,97.0,0.5,78,185.93
437,D6,97.0,0.5,78,185.93
438,F#5,97.0,0.5,78,185.93
439,B4,97.5,0.25,52,185.93
440,B-4,98.0,0.25,61,185.93
441,F#5,98.0,1.0,80,185.93
442,D6,98.0,1.0,80,185.93
443,F#6,98.0,1.0,80,185.93
444,D4,98.5,0.25,49,185.93
445,B-4,99.0,0.5,62,185.93
446,D6,99.0,1.0,77,185.93
447,F#5,99.0,1.0,77,185.93
448,F#6,99.0,1.0,77,185.93
449,D4,99.5,0.5,48,185.93
450,B-4,100.0,0.5,61,185.93
451,F#6,100.0,1.0,78,185.93
452,D6,100.0,1.0,78,185.93
453,F#5,100.0,1.0,78,185.93
454,D4,100.5,0.5,48,185.93
455,B-4,101.0,0.5,61,185.93
456,E6,101.0,1.0,79,185.93
457,F#6,101.0,1.0,79,185.93
458,F#5,101.0,1.0,79,185.93
459,D4,101.5,0.5,48,185.93
460,B-4,102.0,0.5,61,185.93
461,F#6,102.0,1.0,75,185.93
462,E6,102.0,1.0,75,185.93
463,F#5,102.0,1.0,75,185.93
464,C#4,102.5,0.5,48,185.93
465,B-4,103.0,0.5,58,185.93
466,F#5,103.0,1.0,76,185.93
467,E6,103.0,1.0,76,185.93
468,F#6,103.0,1.0,76,185.93
469,C#4,103.5,0.5,46,185.93
470,B-4,104.0,0.5,57,185.93
471,E5,104.0,1.0,76,185.93
472,B-4,104.0,1.0,76,185.93
473,F#5,104.0,1.0,76,185.93
474,C#4,104.5,0.5,46,185.93
475,C#4,105.0,0.5,57,185.93
476,E5,105.0,1.0,76,185.93
477,B-4,105.0,1.0,76,185.93
478,F#5,105.0,1.0,76,185.93
479,F#3,105.5,0.5,46,185.93
480,C#4,106.0,0.5,56,185.93
481,B-4,106.0,1.0,74,185.93
482,E5,106.0,1.0,74,185.93
483,F#5,106.0,1.0,74,185.93
484,F#3,106.5,0.5,42,185.93
485,C#4,107.0,0.5,57,185.93
486,E4,107.0,1.0,68,185.93
487,F#4,107.0,1.0,68,185.93
488,B-3,107.0,1.0,68,185.93
489,F#3,107.5,0.5,44,185.93
490,C#3,108.0,0.5,50,185.93
491,F#4,108.0,1.0,68,185.93
492,E4,108.0,1.0,68,185.93
493,B-3,108.0,1.0,68,185.93
494,F#2,108.5,0.5,40,185.93
495,C#3,109.0,0.5,50,185.93
496,E4,109.0,0.875,67,185.93
497,F#4,109.0,0.875,67,185.93
498,B-3,109.0,0.875,67,185.93
499,F#2,109.5,0.5,41,185.93
500,C#3,110.0,0.5,49,185.93
501,F#4,110.0,0.5,47,185.93
502,B4,110.0,0.5,47,185.93
503,F4,110.5,0.5,46,185.93
504,F#2,110.5,0.375,41,185.93
505,D4,111.0,0.5,45,185.93
506,F#4,111.0,1.0,47,185.93
507,B4,111.0,1.0,47,185.93
508,C#4,111.5,0.5,43,185.93
509,D4,112.0,1.0,45,185.93
510,B-4,112.0,0.5,47,185.93
511,E4,112.0,0.5,47,185.93
512,B2,112.5,0.5,40,185.93
513,C#4,113.0,0.5,43,185.93
514,D4,113.0,0.5,47,185.93
515,G4,113.0,0.5,47,185.93
516,C#4,113.5,0.5,45,185.93
517,B2,113.5,0.5,36,185.93
518,B3,114.0,0.5,44,185.93
519,D4,114.0,1.0,47,185.93
520,G4,114.0,1.0,47,185.93
521,B-3,114.5,0.5,42,185.93
522,B3,115.0,1.0,45,185.93
523,C#4,115.0,0.5,46,185.93
524,F#4,115.0,0.5,46,185.93
525,B2,115.5,0.5,39,185.93
526,B-3,116.0,0.5,44,185.93
527,C4,116.0,0.5,47,185.93
528,F#4,116.0,0.5,47,185.93
529,B3,116.5,0.5,46,185.93
530,B2,116.5,0.5,36,185.93
531,A3,117.0,0.5,44,185.93
532,F#4,117.0,1.0,47,185.93
533,C4,117.0,1.0,47,185.93
534,G#3,117.5,0.5,41,185.93
535,A3,118.0,1.0,45,185.93
536,B3,118.0,0.5,44,185.93
537,E4,118.0,0.5,44,185.93
538,B2,118.5,0.5,40,185.93
539,G#3,119.0,0.5,44,185.93
540,B-3,119.0,0.5,47,185.93
541,E4,119.0,0.5,47,185.93
542,B2,119.5,0.5,37,185.93
543,G3,120.0,0.5,45,185.93
544,B-3,120.0,0.5,50,185.93
545,D4,120.0,0.5,50,185.93
546,B2,120.5,0.5,43,185.93
547,F#3,121.0,0.5,49,185.93
548,C#4,121.0,0.5,48,185.93
549,B-3,121.0,0.5,48,185.93
550,B3,121.5,0.5,47,185.93
551,B2,121.5,0.5,50,185.93
552,E3,122.0,0.5,47,185.93
553,B2,122.5,0.5,44,185.93
554,D3,122.5,0.5,44,185.93
555,F3,123.0,0.25,52,185.93
556,F#3,123.5,0.25,54,185.93
557,D4,123.5,0.25,47,185.93
558,B4,123.5,0.25,47,185.93
559,D5,123.5,0.25,47,185.93
560,G3,124.0,1.5,59,185.93
561,D5,124.0,0.25,49,185.93
562,B4,124.0,0.25,49,185.93
563,E4,124.0,0.25,49,185.93
564,D5,124.5,0.25,46,185.93
565,B4,124.5,0.25,46,185.93
566,F4,124.5,0.25,46,185.93
567,G2,125.5,0.5,49,185.93
568,A2,126.0,0.25,51,185.93
569,G2,126.5,0.25,49,185.93
570,F#4,126.5,0.25,45,185.93
571,B3,126.5,0.25,45,185.93
572,G#3,126.5,0.25,45,185.93
573,F#2,127.0,1.5,51,185.93
574,E4,127.0,0.25,46,185.93
575,C#4,127.0,0.25,46,185.93
576,B-3,127.0,0.25,46,185.93
577,B3,127.5,0.25,46,185.93
578,D4,127.5,0.25,46,185.93
579,B2,128.5,0.5,48,185.93
580,F3,129.0,0.25,51,185.93
581,F#3,129.5,0.25,54,185.93
582,B4,129.5,0.25,47,185.93
583,D4,129.5,0.25,47,185.93
584,D5,129.5,0.25,47,185.93
585,G3,130.0,1.5,58,185.93
586,E4,130.0,0.25,49,185.93
587,B4,130.0,0.25,49,185.93
588,D5,130.0,0.25,49,185.93
589,F4,130.5,0.25,45,185.93
590,B4,130.5,0.25,45,185.93
591,D5,130.5,0.25,45,185.93
592,G2,131.5,0.5,49,185.93
593,A2,132.0,0.25,54,185.93
594,G2,132.5,0.25,51,185.93
595,F#4,132.5,0.25,47,185.93
596,B3,132.5,0.25,47,185.93
597,G#3,132.5,0.25,47,185.93
598,F#2,133.0,1.5,52,185.93
599,B-3,133.0,0.25,46,185.93
600,C#4,133.0,0.25,46,185.93
601,E4,133.0,0.25,46,185.93
602,B3,133.5,0.25,46,185.93
603,D4,133.5,0.25,46,185.93
604,B2,134.5,0.5,49,185.93
605,E3,135.0,0.25,55,185.93
606,D3,135.5,0.25,52,185.93
607,A3,135.5,0.25,47,185.93
608,A4,135.5,0.25,47,185.93
609,E4,135.5,0.25,47,185.93
610,C#3,136.0,1.5,51,185.93
611,G4,136.0,0.25,46,185.93
612,E4,136.0,0.25,46,185.93
613,A3,136.0,0.25,46,185.93
614,F#4,136.5,0.25,47,185.93
615,D4,136.5,0.25,47,185.93
616,A3,136.5,0.25,47,185.93
617,D3,137.5,0.5,50,185.93
618,G#3,138.0,0.25,58,185.93
619,F#3,138.5,0.25,56,185.93
620,C#4,138.5,0.25,55,185.93
621,C#5,138.5,0.25,55,185.93
622,G#4,138.5,0.25,55,185.93
623,F3,139.0,1.5,55,185.93
624,G#4,139.0,0.25,55,185.93
625,C#4,139.0,0.25,55,185.93
626,B4,139.0,0.25,55,185.93
627,C#4,139.5,0.25,55,185.93
628,F#4,139.5,0.25,55,185.93
629,B-4,139.5,0.25,55,185.93
630,C#5,140.0,1.0,66,185.93
631,F#5,140.0,0.5,66,185.93
632,E5,140.5,0.5,66,185.93
633,F#3,140.5,0.5,52,185.93
634,F#4,141.0,1.0,56,185.93
635,B-3,141.0,1.0,56,185.93
636,D5,141.0,0.5,64,185.93
637,B4,141.0,0.5,64,185.93
638,C#5,141.5,1.0,72,185.93
639,F#5,141.5,0.5,72,185.93
640,E5,142.0,0.5,69,185.93
641,G#3,142.0,0.5,60,185.93
642,F#4,142.0,0.5,56,185.93
643,F#4,142.5,1.5,60,185.93
644,B-3,142.5,1.0,60,185.93
645,B4,142.5,0.5,70,185.93
646,D5,142.5,0.5,70,185.93
647,C#5,143.0,1.0,77,185.93
648,F#5,143.0,0.5,77,185.93
649,E5,143.5,0.5,78,185.93
650,G#3,143.5,0.5,65,185.93
651,F#4,144.0,1.0,65,185.93
652,B-3,144.0,1.0,65,185.93
653,B4,144.0,0.5,80,185.93
654,D5,144.0,0.5,80,185.93
655,F#5,144.5,0.25,82,185.93
656,C#5,144.5,0.25,82,185.93
657,G#3,145.0,0.5,71,185.93
658,F#4,145.0,0.5,65,185.93
659,B4,145.0,0.25,78,185.93
660,D5,145.0,0.25,78,185.93
661,E5,145.5,1.5,81,185.93
662,B4,145.5,1.5,81,185.93
663,G4,145.5,1.5,81,185.93
664,G5,145.5,1.5,81,185.93
665,B-3,145.5,0.25,72,185.93
666,F#4,145.5,0.25,72,185.93
667,F#4,146.0,0.25,69,185.93
668,B3,146.0,0.25,69,185.93
669,B3,146.5,1.5,67,185.93
670,E3,146.5,1.5,67,185.93
671,E4,146.5,1.5,67,185.93
672,E4,148.0,0.25,64,185.93
673,E3,148.0,1.0,54,185.93
674,G4,148.25,0.25,63,185.93
675,G3,148.25,0.25,56,185.93
676,E5,148.5,0.25,61,185.93
677,B3,148.5,0.25,57,185.93
678,C#5,148.75,0.25,60,185.93
679,C#4,148.75,0.25,59,185.93
680,B4,149.0,0.25,59,185.93
681,G4,149.25,0.25,58,185.93
682,E4,149.5,0.25,56,185.93
683,C#3,150.75,0.25,58,185.93
684,C#4,150.75,0.25,57,185.93
685,B2,151.0,0.25,58,185.93
686,B3,151.0,0.25,57,185.93
687,G2,151.25,0.25,58,185.93
688,G3,151.25,0.25,56,185.93
689,E3,151.5,0.25,56,185.93
690,E2,152.5,0.5,57,185.93
691,B3,152.5,0.25,56,185.93
692,G3,152.5,0.25,56,185.93
693,E4,152.5,0.25,56,185.93
694,C#3,153.0,0.5,57,185.93
695,G4,154.0,0.25,63,185.93
696,E3,154.0,0.25,53,185.93
697,B4,154.25,0.25,63,185.93
698,B3,154.25,0.25,55,185.93
699,G5,154.5,0.25,61,185.93
700,C#4,154.5,0.25,56,185.93
701,E5,154.75,0.25,60,185.93
702,E4,154.75,0.25,58,185.93
703,C#5,155.0,0.25,59,185.93
704,B4,155.25,0.25,58,185.93
705,G4,155.5,0.25,57,185.93
706,E3,156.75,0.25,58,185.93
707,E4,156.75,0.25,58,185.93
708,C#3,157.0,0.25,58,185.93
709,C#4,157.0,0.25,57,185.93
710,B2,157.25,0.25,58,185.93
711,B3,157.25,0.25,56,185.93
712,G3,157.5,0.25,56,185.93
713,G2,158.5,0.5,60,185.93
714,E4,158.5,0.25,62,185.93
715,G4,158.5,0.25,62,185.93
716,B4,158.5,0.25,62,185.93
717,B3,158.5,0.25,62,185.93
718,C#3,159.0,0.5,57,185.93
719,B3,160.0,0.25,71,185.93
720,F#2,160.0,0.25,63,185.93
721,D4,160.25,0.25,73,185.93
722,B2,160.25,0.25,65,185.93
723,F#4,160.5,0.25,75,185.93
724,D3,160.5,0.25,68,185.93
725,B4,160.75,0.25,78,185.93
726,F#3,160.75,0.25,70,185.93
727,D4,161.0,0.25,79,185.93
728,D5,161.0,0.25,79,185.93
729,F#4,161.25,0.25,81,185.93
730,F#5,161.25,0.25,81,185.93
731,F#3,161.5,0.25,75,185.93
732,B4,161.5,0.25,84,185.93
733,B5,161.5,0.25,84,185.93
734,B3,161.75,0.25,77,185.93
735,D6,161.75,0.25,86,185.93
736,D5,161.75,0.25,86,185.93
737,F#6,162.0,0.5,86,185.93
738,F#5,162.0,0.5,86,185.93
739,E4,162.5,0.25,83,185.93
740,G6,162.5,0.25,83,185.93
741,G5,162.5,0.25,83,185.93
742,E5,162.5,0.25,83,185.93
743,C#4,163.0,0.25,79,185.93
744,E6,163.0,0.25,79,185.93
745,E5,163.0,0.25,79,185.93
746,C#5,163.0,0.25,79,185.93
747,F#6,163.5,0.25,83,185.93
748,D5,163.5,0.25,83,185.93
749,D4,163.5,0.25,83,185.93
750,F#5,163.5,0.25,83,185.93
751,D5,164.0,0.25,79,185.93
752,B4,164.0,0.25,79,185.93
753,B3,164.0,0.25,79,185.93
754,D6,164.0,0.25,79,185.93
755,C#5,164.5,0.25,85,185.93
756,E5,164.5,0.25,85,185.93
757,E6,164.5,0.25,85,185.93
758,C#4,164.5,0.25,85,185.93
759,C#5,165.0,0.25,79,185.93
760,C#6,165.0,0.25,79,185.93
761,B-3,165.0,0.25,79,185.93
762,B-4,165.0,0.25,79,185.93
763,D6,165.5,0.25,82,185.93
764,D5,165.5,0.25,82,185.93
765,B4,165.5,0.25,82,185.93
766,B3,165.5,0.25,82,185.93
767,B-4,166.0,0.25,75,185.93
768,F#4,166.0,0.25,75,185.93
769,F#3,166.0,0.25,75,185.93
770,B-5,166.0,0.25,75,185.93
771,B4,166.5,0.25,87,185.93
772,B5,166.5,0.25,87,185.93
773,F#5,167.0,0.25,80,185.93
774,F#4,167.0,0.25,80,185.93
775,G5,167.5,0.25,86,185.93
776,G4,167.5,0.25,86,185.93
777,G3,167.5,0.25,74,185.93
778,G4,167.5,0.25,74,185.93
779,E4,168.0,0.25,80,185.93
780,E5,168.0,0.25,80,185.93
781,D4,168.0,0.25,68,185.93
782,D3,168.0,0.25,68,185.93
783,F#4,168.5,0.25,86,185.93
784,F#5,168.5,0.25,86,185.93
785,E4,168.5,0.25,72,185.93
786,E3,168.5,0.25,72,185.93
787,D4,169.0,0.25,78,185.93
788,D5,169.0,0.25,78,185.93
789,C#3,169.0,0.25,67,185.93
790,C#4,169.0,0.25,67,185.93
791,E5,169.5,0.25,86,185.93
792,E4,169.5,0.25,86,185.93
793,D3,169.5,0.25,73,185.93
794,D4,169.5,0.25,73,185.93
795,C#5,170.0,0.25,78,185.93
796,C#4,170.0,0.25,78,185.93
797,B3,170.0,0.25,66,185.93
798,B2,170.0,0.25,66,185.93
799,D4,170.5,0.25,86,185.93
800,D5,170.5,0.25,86,185.93
801,C#3,170.5,0.25,72,185.93
802,C#4,170.5,0.25,72,185.93
803,B-3,171.0,0.25,80,185.93
804,B-4,171.0,0.25,80,185.93
805,B-3,171.0,0.25,66,185.93
806,B-2,171.0,0.25,66,185.93
807,B3,171.5,0.25,86,185.93
808,B4,171.5,0.25,86,185.93
809,B3,171.5,0.25,68,185.93
810,B2,171.5,0.25,68,185.93
811,F#4,172.0,0.25,78,185.93
812,F#3,172.0,0.25,78,185.93
813,F#3,172.0,0.25,67,185.93
814,F#2,172.0,0.25,67,185.93
815,G3,172.5,1.0,84,185.93
816,G4,172.5,1.0,84,185.93
817,G2,172.5,0.25,73,185.93
818,G3,172.5,0.25,73,185.93
819,D2,173.0,0.25,62,185.93
820,D3,173.0,0.25,62,185.93
821,C#4,173.5,0.5,75,185.93
822,E4,173.5,0.5,75,185.93
823,B-4,173.5,0.5,75,185.93
824,E2,173.5,1.0,71,185.93
825,E3,173.5,1.0,71,185.93
826,D4,174.0,0.5,80,185.93
827,F#4,174.0,0.5,80,185.93
828,B4,174.0,0.5,80,185.93
829,F#2,174.5,0.5,64,185.93
830,F#3,174.5,0.5,64,185.93
831,B2,175.0,0.5,68,185.93
832,E3,175.5,0.25,58,185.93
833,F#3,176.0,0.25,60,185.93
834,D5,176.0,0.25,56,185.93
835,C#5,176.0,0.25,56,185.93
836,C#4,176.0,0.25,56,185.93
837,G3,176.5,1.5,66,185.93
838,D4,176.5,0.25,53,185.93
839,C#5,176.5,0.25,53,185.93
840,D5,176.5,0.25,53,185.93
841,D5,177.0,0.25,52,185.93
842,C#5,177.0,0.25,52,185.93
843,E4,177.0,0.25,52,185.93
844,G3,178.0,0.5,66,185.93
845,A2,178.5,0.25,57,185.93
846,G2,179.0,0.25,55,185.93
847,F#4,179.0,0.25,53,185.93
848,G#3,179.0,0.25,53,185.93
849,B3,179.0,0.25,53,185.93
850,F#2,179.5,1.5,57,185.93
851,B-3,179.5,0.25,52,185.93
852,C#4,179.5,0.25,52,185.93
853,F#4,179.5,0.25,52,185.93
854,D4,180.0,0.25,52,185.93
855,B3,180.0,0.25,52,185.93
856,F#4,180.0,0.25,52,185.93
857,B2,181.0,0.5,54,185.93
858,E3,181.5,0.25,57,185.93
859,F#3,182.0,0.25,60,185.93
860,D5,182.0,0.25,54,185.93
861,C#5,182.0,0.25,54,185.93
862,C#4,182.0,0.25,54,185.93
863,G3,182.5,1.5,65,185.93
864,D5,182.5,0.25,55,185.93
865,C#5,182.5,0.25,55,185.93
866,D4,182.5,0.25,55,185.93
867,D5,183.0,0.25,51,185.93
868,C#5,183.0,0.25,51,185.93
869,E4,183.0,0.25,51,185.93
870,G3,184.0,0.5,65,185.93
871,A2,184.5,0.25,61,185.93
872,G2,185.0,0.25,57,185.93
873,G#3,185.0,0.25,55,185.93
874,F#4,185.0,0.25,55,185.93
875,B3,185.0,0.25,55,185.93
876,F#2,185.5,1.5,58,185.93
877,F#4,185.5,0.25,55,185.93
878,C#4,185.5,0.25,55,185.93
879,B-3,185.5,0.25,55,185.93
880,F#4,186.0,0.25,52,185.93
881,D4,186.0,0.25,52,185.93
882,B3,186.0,0.25,52,185.93
883,D4,186.5,0.25,62,185.93
884,B4,186.5,0.25,62,185.93
885,F#4,186.5,0.25,62,185.93
886,B2,187.0,0.25,58,185.93
887,B-4,187.0,0.25,59,185.93
888,F#4,187.0,0.25,59,185.93
889,D4,187.0,0.25,59,185.93
890,D4,187.5,0.25,62,185.93
891,F#4,187.5,0.25,62,185.93
892,B4,187.5,0.25,62,185.93
893,F#3,187.5,0.25,51,185.93
894,D3,187.5,0.25,51,185.93
895,B3,187.5,0.25,51,185.93
896,D5,188.0,0.25,63,185.93
897,B4,188.0,0.25,63,185.93
898,F#4,188.0,0.25,63,185.93
899,D3,188.0,0.25,47,185.93
900,B-3,188.0,0.25,47,185.93
901,F#3,188.0,0.25,47,185.93
902,C#5,188.5,0.25,60,185.93
903,F#4,188.5,0.25,60,185.93
904,B4,188.5,0.25,60,185.93
905,F#3,188.5,0.25,50,185.93
906,B3,188.5,0.25,50,185.93
907,D3,188.5,0.25,50,185.93
908,F#4,189.0,0.25,65,185.93
909,B4,189.0,0.25,65,185.93
910,D5,189.0,0.25,65,185.93
911,F#3,189.0,0.25,52,185.93
912,D4,189.0,0.25,52,185.93
913,B3,189.0,0.25,52,185.93
914,F#5,189.5,0.25,65,185.93
915,D5,189.5,0.25,65,185.93
916,B4,189.5,0.25,65,185.93
917,B3,189.5,0.25,50,185.93
918,F#3,189.5,0.25,50,185.93
919,C#4,189.5,0.25,50,185.93
920,F5,190.0,0.25,63,185.93
921,D5,190.0,0.25,63,185.93
922,B4,190.0,0.25,63,185.93
923,B3,190.0,0.25,54,185.93
924,F#3,190.0,0.25,54,185.93
925,D4,190.0,0.25,54,185.93
926,F#5,190.5,0.25,68,185.93
927,D5,190.5,0.25,68,185.93
928,B4,190.5,0.25,68,185.93
929,D4,190.5,0.25,50,185.93
930,B3,190.5,0.25,50,185.93
931,F#4,190.5,0.25,50,185.93
932,B5,191.0,0.25,69,185.93
933,F#5,191.0,0.25,69,185.93
934,D5,191.0,0.25,69,185.93
935,F4,191.0,0.25,55,185.93
936,B3,191.0,0.25,55,185.93
937,D4,191.0,0.25,55,185.93
938,D5,191.5,0.25,65,185.93
939,B-5,191.5,0.25,65,185.93
940,F#5,191.5,0.25,65,185.93
941,D4,191.5,0.25,56,185.93
942,F#4,191.5,0.25,56,185.93
943,B3,191.5,0.25,56,185.93
944,B5,192.0,0.25,70,185.93
945,F#5,192.0,0.25,70,185.93
946,D5,192.0,0.25,70,185.93
947,F#4,192.0,0.25,53,185.93
948,B4,192.0,0.25,53,185.93
949,D4,192.0,0.25,53,185.93
950,D6,192.5,0.25,71,185.93
951,B5,192.5,0.25,71,185.93
952,F#5,192.5,0.25,71,185.93
953,D4,192.5,0.25,57,185.93
954,B-4,192.5,0.25,57,185.93
955,F#4,192.5,0.25,57,185.93
956,F#5,193.0,0.25,65,185.93
957,C#6,193.0,0.25,65,185.93
958,B5,193.0,0.25,65,185.93
959,D4,193.0,0.25,57,185.93
960,B4,193.0,0.25,57,185.93
961,F#4,193.0,0.25,57,185.93
962,B5,193.5,0.25,72,185.93
963,F#5,193.5,0.25,72,185.93
964,D6,193.5,0.25,72,185.93
965,B4,193.5,0.25,57,185.93
966,F#4,193.5,0.25,57,185.93
967,D5,193.5,0.25,57,185.93
968,B5,194.0,0.25,73,185.93
969,D6,194.0,0.25,73,185.93
970,F#6,194.0,0.25,73,185.93
971,B4,194.0,0.25,54,185.93
972,C#5,194.0,0.25,54,185.93
973,F#4,194.0,0.25,54,185.93
974,B5,194.5,0.25,68,185.93
975,D6,194.5,0.25,68,185.93
976,F6,194.5,0.25,68,185.93
977,B4,194.5,0.25,59,185.93
978,F#4,194.5,0.25,59,185.93
979,D5,194.5,0.25,59,185.93
980,D6,195.0,0.25,75,185.93
981,B5,195.0,0.25,75,185.93
982,F#6,195.0,0.25,75,185.93
983,B4,195.0,0.25,60,185.93
984,F#5,195.0,0.25,60,185.93
985,D5,195.0,0.25,60,185.93
986,D6,195.5,0.25,75,185.93
987,F#6,195.5,0.25,75,185.93
988,B6,195.5,0.25,75,185.93
989,D5,195.5,0.25,58,185.93
990,B4,195.5,0.25,58,185.93
991,F5,195.5,0.25,58,185.93
992,D6,196.0,0.25,72,185.93
993,F#6,196.0,0.25,72,185.93
994,B-6,196.0,0.25,72,185.93
995,B4,196.0,0.25,62,185.93
996,F#5,196.0,0.25,62,185.93
997,D5,196.0,0.25,62,185.93
998,B6,196.5,0.25,81,185.93
999,F#6,196.5,0.25,81,185.93
1000,D6,196.5,0.25,81,185.93
1001,D5,196.5,0.25,64,185.93
1002,B4,196.5,0.25,64,185.93
1003,B5,196.5,0.25,64,185.93
1004,F#5,196.5,0.25,64,185.93
1005,D6,197.0,0.25,85,185.93
1006,F#6,197.0,0.25,85,185.93
1007,B6,197.0,0.25,85,185.93
1008,D5,197.0,0.25,60,185.93
1009,B4,197.0,0.25,60,185.93
1010,B-5,197.0,0.25,60,185.93
1011,F#5,197.0,0.25,60,185.93
1012,B-6,197.5,0.25,80,185.93
1013,F#6,197.5,0.25,80,185.93
1014,D6,197.5,0.25,80,185.93
1015,B4,197.5,0.25,68,185.93
1016,F#5,197.5,0.25,68,185.93
1017,D5,197.5,0.25,68,185.93
1018,B5,197.5,0.25,68,185.93
1019,B6,198.0,0.25,88,185.93
1020,D6,198.0,0.25,88,185.93
1021,F#6,198.0,0.25,88,185.93
1022,B4,198.0,0.25,69,185.93
1023,F#5,198.0,0.25,69,185.93
1024,D5,198.0,0.25,69,185.93
1025,B5,198.0,0.25,69,185.93
1026,B4,198.5,0.25,67,185.93
1027,F#5,198.5,0.25,67,185.93
1028,D5,198.5,0.25,67,185.93
1029,B-5,198.5,0.25,67,185.93
1030,D5,199.0,0.25,74,185.93
1031,B4,199.0,0.25,74,185.93
1032,B5,199.0,0.25,74,185.93
1033,F#5,199.0,0.25,74,185.93
1034,D5,199.5,0.25,84,185.93
1035,F#5,199.5,0.25,84,185.93
1036,B5,199.5,0.25,84,185.93
1037,F#4,200.5,0.25,69,185.93
1038,B4,200.5,0.25,69,185.93
1039,B3,200.5,0.25,69,185.93
1040,B4,201.0,0.25,84,185.93
1041,F#4,201.0,0.25,84,185.93
1042,D4,201.0,0.25,84,185.93
1043,F#3,202.0,0.25,69,185.93
1044,B3,202.0,0.25,69,185.93
1045,B2,202.0,0.25,69,185.93
1046,F#2,203.5,0.25,72,185.93
1047,B1,203.5,0.25,72,185.93
1048,D3,203.5,0.25,72,185.93
1049,F#3,203.5,0.25,72,185.93
1050,B3,203.5,0.25,72,185.93
1051,B2,203.5,0.25,72,185.93
1052,F#4,204.0,3.0,42,185.93
1053,D5,204.0,1.5,55,185.93
1054,A3,205.0,3.0,36,185.93
1055,D3,205.0,3.0,36,185.93
1056,C#5,205.5,1.5,51,185.93
1057,B4,207.0,1.0,52,185.93
1058,F#4,207.0,3.0,42,185.93
1059,A4,208.0,0.5,47,185.93
1060,A4,208.5,1.5,47,185.93
1061,E4,210.0,3.0,42,185.93
1062,B4,210.0,1.5,55,185.93
1063,A3,211.0,3.0,36,185.93
1064,D3,211.0,3.0,36,185.93
1065,A4,211.5,1.5,51,185.93
1066,E-4,213.0,3.0,42,185.93
1067,G4,213.0,1.0,55,185.93
1068,F#4,214.0,0.5,51,185.93
1069,C#3,214.0,3.0,36,185.93
1070,A3,214.0,3.0,36,185.93
1071,F#4,214.5,1.5,51,185.93
1072,A4,216.0,1.5,48,185.93
1073,D4,216.0,1.5,48,185.93
1074,C3,217.0,3.0,36,185.93
1075,A3,217.0,3.0,36,185.93
1076,D4,217.5,1.5,51,185.93
1077,D4,219.0,3.0,42,185.93
1078,F#4,219.0,1.0,55,185.93
1079,E4,220.0,0.5,51,185.93
1080,B2,220.0,3.0,36,185.93
1081,F#3,220.0,3.0,36,185.93
1082,E4,220.5,1.5,51,185.93
1083,F#4,222.0,1.5,48,185.93
1084,B3,222.0,1.5,48,185.93
1085,G#3,223.0,3.0,36,185.93
1086,B2,223.0,3.0,36,185.93
1087,B3,223.5,1.5,51,185.93
1088,B-3,225.0,3.0,40,185.93
1089,D4,225.0,1.0,53,185.93
1090,C#4,226.0,0.5,49,185.93
1091,G#2,226.0,3.0,36,185.93
1092,D3,226.0,3.0,36,185.93
1093,C#4,226.5,1.5,49,185.93
1094,A3,228.0,3.0,47,185.93
1095,A4,228.0,3.0,47,185.93
1096,D4,228.0,3.0,47,185.93
1097,G2,229.0,3.0,36,185.93
1098,E3,229.0,3.0,36,185.93
1099,F#3,231.0,3.0,46,185.93
1100,A3,231.0,3.0,46,185.93
1101,F#2,232.0,3.0,47,185.93
1102,A2,232.0,1.5,58,185.93
1103,B2,233.5,1.5,55,185.93
1104,E4,234.0,3.0,49,185.93
1105,B4,234.0,3.0,49,185.93
1106,D5,234.0,3.0,49,185.93
1107,A2,235.0,3.0,46,185.93
1108,C#3,235.0,1.0,57,185.93
1109,D3,236.0,0.5,54,185.93
1110,D3,236.5,1.5,54,185.93
1111,B3,237.0,3.0,52,185.93
1112,E4,237.0,3.0,52,185.93
1113,G#2,238.0,3.0,49,185.93
1114,E3,238.0,1.5,58,185.93
1115,F#3,239.5,1.5,57,185.93
1116,E4,240.0,3.0,52,185.93
1117,E5,240.0,3.0,52,185.93
1118,D3,241.0,3.0,52,185.93
1119,G3,241.0,1.0,67,185.93
1120,G#3,242.0,0.5,59,185.93
1121,G#3,242.5,1.5,59,185.93
1122,E-4,243.0,3.0,50,185.93
1123,A4,243.0,3.0,50,185.93
1124,C#3,244.0,3.0,54,185.93
1125,G#3,244.0,1.5,70,185.93
1126,A3,245.5,1.5,66,185.93
1127,A4,246.0,1.5,56,185.93
1128,E5,246.0,1.5,56,185.93
1129,A5,246.0,1.5,56,185.93
1130,F#3,247.0,3.0,69,185.93
1131,B3,247.0,1.0,69,185.93
1132,A4,247.5,1.5,56,185.93
1133,C#5,247.5,1.5,56,185.93
1134,C4,248.0,0.5,63,185.93
1135,C4,248.5,1.5,63,185.93
1136,G#4,249.0,1.5,53,185.93
1137,C#5,249.0,1.0,69,185.93
1138,B4,250.0,0.5,60,185.93
1139,E3,250.0,3.0,60,185.93
1140,C#4,250.0,1.5,68,185.93
1141,A4,250.5,1.5,60,185.93
1142,F#4,251.5,1.0,68,185.93
1143,G4,252.0,3.0,47,185.93
1144,E5,252.0,1.5,55,185.93
1145,E4,252.5,0.5,55,185.93
1146,E3,253.0,1.5,47,185.93
1147,D4,253.0,1.5,47,185.93
1148,A4,253.5,1.5,51,185.93
1149,A3,254.5,1.5,44,185.93
1150,C#4,254.5,1.5,44,185.93
1151,F#4,255.0,3.0,47,185.93
1152,B4,255.0,1.0,55,185.93
1153,A4,256.0,0.5,51,185.93
1154,A3,256.0,3.0,41,185.93
1155,C#3,256.0,3.0,41,185.93
1156,A4,256.5,1.5,51,185.93
1157,B4,258.0,3.0,47,185.93
1158,A4,258.0,3.0,47,185.93
1159,D3,259.0,3.0,41,185.93
1160,A3,259.0,3.0,41,185.93
1161,A4,261.0,1.5,47,185.93
1162,G4,261.0,1.5,47,185.93
1163,F#4,262.0,1.5,55,185.93
1164,E-3,262.0,3.0,41,185.93
1165,G#4,262.5,1.5,36,185.93
1166,B4,262.5,1.5,36,185.93
1167,B3,263.5,1.5,51,185.93
1168,B4,264.0,3.0,49,185.93
1169,G#5,264.0,1.5,57,185.93
1170,C#4,265.0,1.0,53,185.93
1171,E3,265.0,3.0,48,185.93
1172,C#5,265.5,1.5,53,185.93
1173,B3,266.0,0.5,50,185.93
1174,B3,266.5,1.5,50,185.93
1175,D5,267.0,1.0,57,185.93
1176,A4,267.0,3.0,49,185.93
1177,C#4,268.0,3.0,43,185.93
1178,F3,268.0,3.0,43,185.93
1179,C#5,268.027,0.5,53,185.93
1180,C#5,268.5,1.5,53,185.93
1181,D5,270.0,3.0,49,185.93
1182,C5,270.0,3.0,49,185.93
1183,F#3,271.0,3.0,43,185.93
1184,C#4,271.0,3.0,43,185.93
1185,C#5,273.0,1.5,49,185.93
1186,B-4,273.0,1.5,49,185.93
1187,A4,274.0,1.5,57,185.93
1188,F#3,274.0,3.0,43,185.93
1189,B4,274.5,1.5,45,185.93
1190,D5,274.5,1.5,45,185.93
1191,D4,275.5,1.5,53,185.93
1192,D5,276.0,3.0,53,185.93
1193,B5,276.0,1.5,62,185.93
1194,E4,277.0,1.0,55,185.93
1195,G3,277.0,3.0,50,185.93
1196,E5,277.5,1.5,58,185.93
1197,D4,278.0,0.5,52,185.93
1198,D4,278.5,1.5,52,185.93
1199,E-5,279.0,1.0,65,185.93
1200,C#5,279.0,3.0,56,185.93
1201,E5,280.0,0.5,63,185.93
1202,E4,280.0,3.0,47,185.93
1203,G#3,280.0,3.0,47,185.93
1204,E5,280.5,1.5,63,185.93
1205,E5,282.0,3.0,54,185.93
1206,C#6,282.0,1.5,68,185.93
1207,A3,283.0,3.0,47,185.93
1208,E4,283.0,3.0,47,185.93
1209,F#5,283.5,1.5,63,185.93
1210,F5,285.0,1.0,71,185.93
1211,D5,285.0,3.0,61,185.93
1212,F#5,286.0,0.5,69,185.93
1213,F#4,286.0,3.0,51,185.93
1214,B-3,286.0,3.0,46,185.93
1215,F#5,286.5,1.5,69,185.93
1216,G#4,288.0,3.0,58,185.93
1217,B4,288.0,3.0,58,185.93
1218,B3,289.0,3.0,47,185.93
1219,F#4,289.0,3.0,51,185.93
1220,F#4,292.0,1.5,63,185.93
1221,E3,292.0,3.0,51,185.93
1222,B3,293.5,1.5,56,185.93
1223,G#4,294.0,3.0,58,185.93
1224,B4,294.0,3.0,58,185.93
1225,F#4,295.0,1.0,60,185.93
1226,E3,295.0,3.0,51,185.93
1227,E4,296.0,0.5,54,185.93
1228,E4,296.5,1.5,54,185.93
1229,G4,297.0,1.5,60,185.93
1230,D5,297.0,1.5,60,185.93
1231,E3,298.0,3.0,45,185.93
1232,B-2,298.0,3.0,45,185.93
1233,G4,298.5,1.5,57,185.93
1234,G4,300.0,3.0,58,185.93
1235,D5,300.0,1.0,58,185.93
1236,C#5,301.0,0.5,51,185.93
1237,A2,301.0,3.0,39,185.93
1238,E3,301.0,3.0,45,185.93
1239,C#5,301.5,1.5,53,185.93
1240,F#4,303.0,3.0,42,185.93
1241,D5,303.0,1.5,55,185.93
1242,A3,304.0,3.0,36,185.93
1243,D3,304.0,3.0,36,185.93
1244,C#5,304.5,1.5,51,185.93
1245,B4,306.0,1.0,52,185.93
1246,F#4,306.0,3.0,42,185.93
1247,A4,307.0,0.5,47,185.93
1248,A4,307.5,1.5,47,185.93
1249,E4,309.0,3.0,42,185.93
1250,B4,309.0,1.5,55,185.93
1251,A3,310.0,3.0,36,185.93
1252,D3,310.0,3.0,36,185.93
1253,A4,310.5,1.5,51,185.93
1254,E-4,312.0,3.0,42,185.93
1255,G4,312.0,1.0,55,185.93
1256,F#4,313.0,0.5,51,185.93
1257,C#3,313.0,3.0,36,185.93
1258,A3,313.0,3.0,36,185.93
1259,F#4,313.5,1.5,51,185.93
1260,A4,315.0,1.5,48,185.93
1261,D4,315.0,1.5,48,185.93
1262,C3,316.0,3.0,36,185.93
1263,A3,316.0,3.0,36,185.93
1264,D4,316.5,1.5,51,185.93
1265,D4,318.0,3.0,42,185.93
1266,F#4,318.0,1.0,55,185.93
1267,E4,319.0,0.5,51,185.93
1268,B2,319.0,3.0,36,185.93
1269,F#3,319.0,3.0,36,185.93
1270,E4,319.5,1.5,51,185.93
1271,F#4,321.0,1.5,48,185.93
1272,B3,321.0,1.5,48,185.93
1273,G#3,322.0,3.0,36,185.93
1274,B2,322.0,3.0,36,185.93
1275,B3,322.5,1.5,51,185.93
1276,B-3,324.0,3.0,40,185.93
1277,D4,324.0,1.0,53,185.93
1278,C#4,325.0,0.5,49,185.93
1279,G#2,325.0,3.0,36,185.93
1280,D3,325.0,3.0,36,185.93
1281,C#4,325.5,1.5,49,185.93
1282,A3,327.0,3.0,47,185.93
1283,A4,327.0,3.0,47,185.93
1284,D4,327.0,3.0,47,185.93
1285,G2,328.0,3.0,36,185.93
1286,E3,328.0,3.0,36,185.93
1287,D4,330.0,3.0,46,185.93
1288,F#3,330.0,3.0,46,185.93
1289,A3,330.0,3.0,46,185.93
1290,F#2,331.0,3.0,47,185.93
1291,A2,331.0,1.5,58,185.93
1292,B2,332.5,1.5,55,185.93
1293,D4,333.0,3.0,49,185.93
1294,D5,333.0,3.0,49,185.93
1295,G4,333.0,3.0,49,185.93
1296,A2,334.0,3.0,46,185.93
1297,B2,334.0,1.0,57,185.93
1298,C3,335.0,0.5,54,185.93
1299,C3,335.5,1.5,54,185.93
1300,B4,336.0,3.0,48,185.93
1301,B3,336.0,3.0,48,185.93
1302,F4,336.0,3.0,48,185.93
1303,G2,337.0,3.0,49,185.93
1304,B-2,337.0,1.5,61,185.93
1305,B2,338.5,1.5,57,185.93
1306,A3,339.0,3.0,51,185.93
1307,A4,339.0,3.0,51,185.93
1308,F#4,339.0,3.0,51,185.93
1309,G#2,340.0,3.0,48,185.93
1310,C#3,340.0,1.0,60,185.93
1311,D3,341.0,0.5,56,185.93
1312,D3,341.5,1.5,56,185.93
1313,B3,342.0,3.0,50,185.93
1314,E4,342.0,3.0,50,185.93
1315,A2,343.0,3.0,51,185.93
1316,D3,343.0,1.5,64,185.93
1317,E-3,344.5,1.5,59,185.93
1318,G3,345.0,3.0,45,185.93
1319,C#4,345.0,3.0,45,185.93
1320,G2,346.0,3.0,50,185.93
1321,A3,346.0,1.0,63,185.93
1322,G3,347.0,0.5,57,185.93
1323,G3,347.5,1.5,57,185.93
1324,F#3,348.0,3.0,40,185.93
1325,D4,348.0,3.0,40,185.93
1326,A2,349.0,3.0,45,185.93
1327,F#3,349.0,1.0,54,185.93
1328,E3,350.0,0.5,50,185.93
1329,E3,350.5,1.5,50,185.93
1330,F#4,351.0,3.0,39,185.93
1331,B4,351.0,1.5,55,185.93
1332,D2,352.0,3.0,40,185.93
1333,B-2,352.0,1.0,48,185.93
1334,B-4,352.5,1.5,51,185.93
1335,A2,353.0,0.5,44,185.93
1336,A2,353.5,1.5,44,185.93
1337,C#4,354.0,3.0,36,185.93
1338,G4,354.0,1.0,55,185.93
1339,F#4,355.0,0.5,51,185.93
1340,D4,355.0,1.5,46,185.93
1341,F#3,355.0,3.0,34,185.93
1342,F#4,355.5,1.5,51,185.93
1343,C#4,356.5,1.5,43,185.93
1344,D5,357.0,1.5,49,185.93
1345,E4,357.0,3.0,36,185.93
1346,F#4,357.0,3.0,36,185.93
1347,B3,358.0,1.5,44,185.93
1348,F#3,358.0,3.0,34,185.93
1349,C#5,358.5,1.5,45,185.93
1350,B-3,359.5,1.5,41,185.93
1351,D4,360.0,1.5,45,185.93
1352,F#4,360.0,1.5,45,185.93
1353,B4,360.0,1.5,45,185.93
1354,F#3,361.0,3.0,55,185.93
1355,G#3,361.0,1.5,34,185.93
1356,F#4,361.5,1.5,44,185.93
1357,B-4,361.5,1.5,44,185.93
1358,B-3,362.5,1.5,51,185.93
1359,F#5,363.0,3.0,39,185.93
1360,B5,363.0,1.5,55,185.93
1361,B3,364.0,1.0,53,185.93
1362,F#3,364.0,3.0,55,185.93
1363,B-5,364.5,1.5,51,185.93
1364,C#4,365.0,0.5,49,185.93
1365,C#4,365.5,1.5,49,185.93
1366,C#5,366.0,3.0,36,185.93
1367,G5,366.0,1.0,55,185.93
1368,F#5,367.0,0.5,51,185.93
1369,D5,367.0,1.5,46,185.93
1370,F#4,367.0,3.0,34,185.93
1371,F#5,367.5,1.5,51,185.93
1372,C#5,368.5,1.5,43,185.93
1373,D6,369.0,1.5,49,185.93
1374,E5,369.0,3.0,39,185.93
1375,F#5,369.0,3.0,39,185.93
1376,B4,370.0,1.0,44,185.93
1377,F#4,370.0,3.0,34,185.93
1378,C#6,370.5,1.5,45,185.93
1379,B-4,371.0,0.5,41,185.93
1380,B-4,371.5,1.5,41,185.93
1381,D5,372.0,1.5,45,185.93
1382,F#5,372.0,1.5,45,185.93
1383,B5,372.0,1.5,45,185.93
1384,F#4,373.0,3.0,55,185.93
1385,G#4,373.0,1.5,34,185.93
1386,F#5,373.5,1.5,44,185.93
1387,B-5,373.5,1.5,44,185.93
1388,B-4,374.5,1.5,51,185.93
1389,E5,375.0,3.0,31,185.93
1390,B5,375.0,1.0,44,185.93
1391,B-5,376.0,0.5,40,185.93
1392,B4,376.0,1.0,55,185.93
1393,F#4,376.0,3.0,55,185.93
1394,B-5,376.5,1.5,40,185.93
1395,C#5,377.0,0.5,51,185.93
1396,C#5,377.5,1.5,51,185.93
1397,G4,379.0,1.5,36,185.93
1398,C#5,379.0,3.0,27,185.93
1399,F#4,380.5,1.5,34,185.93
1400,E4,381.0,3.0,31,185.93
1401,B4,381.0,1.0,44,185.93
1402,B-4,382.0,0.5,40,185.93
1403,G4,382.0,1.0,39,185.93
1404,B-4,382.5,1.5,40,185.93
1405,F#4,383.0,0.5,35,185.93
1406,F#4,383.5,1.5,35,185.93
1407,G3,385.0,1.5,36,185.93
1408,C#4,385.0,3.0,27,185.93
1409,F#3,386.5,1.5,34,185.93
1410,G3,388.0,1.0,35,185.93
1411,F#3,389.0,0.5,29,185.93
1412,F#3,389.5,1.5,30,185.93
1413,G3,391.0,1.0,33,185.93
1414,F#3,392.0,0.5,29,185.93
1415,F#4,392.0,0.5,47,185.93
1416,B4,392.0,0.5,47,185.93
1417,F4,392.5,0.5,46,185.93
1418,F#3,392.5,1.5,29,185.93
1419,F#4,393.0,1.0,47,185.93
1420,B4,393.0,1.0,47,185.93
1421,G3,394.0,1.0,31,185.93
1422,E4,394.0,0.5,47,185.93
1423,B-4,394.0,0.5,47,185.93
1424,F#3,395.0,0.5,26,185.93
1425,D4,395.0,0.5,47,185.93
1426,G4,395.0,0.5,47,185.93
1427,C#4,395.5,0.5,45,185.93
1428,F#3,395.5,0.5,26,185.93
1429,D4,396.0,0.5,45,185.93
1430,D4,396.0,1.0,47,185.93
1431,G4,396.0,1.0,47,185.93
1432,C#4,396.5,0.5,43,185.93
1433,D4,397.0,1.0,45,185.93
1434,C#4,397.0,0.5,46,185.93
1435,F#4,397.0,0.5,46,185.93
1436,B2,397.5,0.5,38,185.93
1437,C#4,398.0,0.5,43,185.93
1438,C4,398.0,0.5,47,185.93
1439,F#4,398.0,0.5,47,185.93
1440,B3,398.5,0.5,46,185.93
1441,B2,398.5,0.5,37,185.93
1442,B3,399.0,0.5,44,185.93
1443,C4,399.0,1.0,47,185.93
1444,F#4,399.0,1.0,47,185.93
1445,B-3,399.5,0.5,42,185.93
1446,B3,400.0,1.0,45,185.93
1447,B3,400.0,0.5,44,185.93
1448,E4,400.0,0.5,44,185.93
1449,B2,400.5,0.5,39,185.93
1450,B-3,401.0,0.5,44,185.93
1451,B-3,401.0,0.5,47,185.93
1452,E4,401.0,0.5,47,185.93
1453,B2,401.5,0.5,38,185.93
1454,A3,402.0,0.5,44,185.93
1455,B-3,402.0,0.5,50,185.93
1456,D4,402.0,0.5,50,185.93
1457,G#3,402.5,0.5,41,185.93
1458,A3,403.0,1.0,45,185.93
1459,B-3,403.0,0.5,48,185.93
1460,C#4,403.0,0.5,48,185.93
1461,B3,403.5,0.5,47,185.93
1462,B2,403.5,0.5,38,185.93
1463,G#3,404.0,0.5,44,185.93
1464,B2,404.5,0.5,35,185.93
1465,G3,405.0,0.5,45,185.93
1466,B2,405.5,0.5,43,185.93
1467,D4,405.5,0.25,47,185.93
1468,B4,405.5,0.25,47,185.93
1469,D5,405.5,0.25,47,185.93
1470,F#3,406.0,0.5,49,185.93
1471,E4,406.0,0.25,49,185.93
1472,B4,406.0,0.25,49,185.93
1473,D5,406.0,0.25,49,185.93
1474,B2,406.5,0.5,50,185.93
1475,F4,406.5,0.25,46,185.93
1476,B4,406.5,0.25,46,185.93
1477,D5,406.5,0.25,46,185.93
1478,E3,407.0,0.5,47,185.93
1479,B2,407.5,0.5,44,185.93
1480,D3,407.5,0.5,44,185.93
1481,F3,408.0,0.25,52,185.93
1482,F#3,408.5,0.25,54,185.93
1483,G#3,408.5,0.25,45,185.93
1484,B3,408.5,0.25,45,185.93
1485,F#4,408.5,0.25,45,185.93
1486,G3,409.0,1.5,59,185.93
1487,B-3,409.0,0.25,46,185.93
1488,C#4,409.0,0.25,46,185.93
1489,E4,409.0,0.25,46,185.93
1490,B3,409.5,0.25,46,185.93
1491,D4,409.5,0.25,46,185.93
1492,G2,410.5,0.5,49,185.93
1493,A2,411.0,0.25,51,185.93
1494,G2,411.5,0.25,49,185.93
1495,D4,411.5,0.25,47,185.93
1496,B4,411.5,0.25,47,185.93
1497,D5,411.5,0.25,47,185.93
1498,F#2,412.0,1.5,51,185.93
1499,E4,412.0,0.25,49,185.93
1500,B4,412.0,0.25,49,185.93
1501,D5,412.0,0.25,49,185.93
1502,F4,412.5,0.25,45,185.93
1503,B4,412.5,0.25,45,185.93
1504,D5,412.5,0.25,45,185.93
1505,B2,413.5,0.5,48,185.93
1506,F3,414.0,0.25,51,185.93
1507,F#3,414.5,0.25,54,185.93
1508,G#3,414.5,0.25,47,185.93
1509,B3,414.5,0.25,47,185.93
1510,F#4,414.5,0.25,47,185.93
1511,G3,415.0,1.5,58,185.93
1512,B-3,415.0,0.25,46,185.93
1513,C#4,415.0,0.25,46,185.93
1514,E4,415.0,0.25,46,185.93
1515,B3,415.5,0.25,46,185.93
1516,D4,415.5,0.25,46,185.93
1517,F#4,416.0,0.5,47,185.93
1518,B4,416.0,0.5,47,185.93
1519,F4,416.5,0.5,46,185.93
1520,G2,416.5,0.5,49,185.93
1521,A2,417.0,0.25,51,185.93
1522,F#4,417.0,1.0,47,185.93
1523,B4,417.0,1.0,47,185.93
1524,G2,417.5,0.25,49,185.93
1525,F#2,418.0,1.5,49,185.93
1526,E4,418.0,0.5,47,185.93
1527,B-4,418.0,0.5,47,185.93
1528,D4,419.0,0.5,47,185.93
1529,G4,419.0,0.5,47,185.93
1530,C#4,419.5,0.5,45,185.93
1531,B2,419.5,0.25,49,185.93
1532,D4,420.0,0.5,45,185.93
1533,D4,420.0,1.0,47,185.93
1534,G4,420.0,1.0,47,185.93
1535,C#4,420.5,0.5,43,185.93
1536,D4,421.0,1.0,45,185.93
1537,C#4,421.0,0.5,46,185.93
1538,F#4,421.0,0.5,46,185.93
1539,B2,421.5,0.5,41,185.93
1540,C#4,422.0,0.5,43,185.93
1541,C4,422.0,0.5,47,185.93
1542,F#4,422.0,0.5,47,185.93
1543,B3,422.5,0.5,46,185.93
1544,B2,422.5,0.5,37,185.93
1545,B3,423.0,0.5,44,185.93
1546,C4,423.0,1.0,47,185.93
1547,F#4,423.0,1.0,47,185.93
1548,B-3,423.5,0.5,42,185.93
1549,B3,424.0,1.0,45,185.93
1550,B3,424.0,0.5,44,185.93
1551,E4,424.0,0.5,44,185.93
1552,B2,424.5,0.5,40,185.93
1553,B-3,425.0,0.5,44,185.93
1554,B-3,425.0,0.5,47,185.93
1555,E4,425.0,0.5,47,185.93
1556,B2,425.5,0.5,36,185.93
1557,A3,426.0,0.5,44,185.93
1558,B-3,426.0,0.5,50,185.93
1559,D4,426.0,0.5,50,185.93
1560,G#3,426.5,0.5,41,185.93
1561,A3,427.0,1.0,45,185.93
1562,B-3,427.0,0.5,48,185.93
1563,C#4,427.0,0.5,48,185.93
1564,B3,427.5,0.5,47,185.93
1565,B2,427.5,0.5,42,185.93
1566,G#3,428.0,0.5,44,185.93
1567,B2,428.5,0.5,38,185.93
1568,G3,429.0,0.5,45,185.93
1569,B2,429.5,0.5,43,185.93
1570,D4,429.5,0.25,47,185.93
1571,B4,429.5,0.25,47,185.93
1572,D5,429.5,0.25,47,185.93
1573,F#3,430.0,0.5,49,185.93
1574,E4,430.0,0.25,49,185.93
1575,B4,430.0,0.25,49,185.93
1576,D5,430.0,0.25,49,185.93
1577,B2,430.5,0.5,50,185.93
1578,F4,430.5,0.25,46,185.93
1579,B4,430.5,0.25,46,185.93
1580,D5,430.5,0.25,46,185.93
1581,E3,431.0,0.5,47,185.93
1582,B2,431.5,0.5,44,185.93
1583,D3,431.5,0.5,44,185.93
1584,F3,432.0,0.25,52,185.93
1585,F#3,432.5,0.25,54,185.93
1586,G#3,432.5,0.25,45,185.93
1587,B3,432.5,0.25,45,185.93
1588,F#4,432.5,0.25,45,185.93
1589,G3,433.0,1.5,59,185.93
1590,B-3,433.0,0.25,44,185.93
1591,C#4,433.0,0.25,44,185.93
1592,E4,433.0,0.25,44,185.93
1593,B3,433.5,0.25,46,185.93
1594,D4,433.5,0.25,46,185.93
1595,G2,434.5,0.5,49,185.93
1596,A2,435.0,0.25,51,185.93
1597,G2,435.5,0.25,49,185.93
1598,D4,435.5,0.25,50,185.93
1599,B4,435.5,0.25,50,185.93
1600,D5,435.5,0.25,50,185.93
1601,F#2,436.0,1.5,51,185.93
1602,E4,436.0,0.25,54,185.93
1603,B4,436.0,0.25,54,185.93
1604,D5,436.0,0.25,54,185.93
1605,F4,436.5,1.0,58,185.93
1606,B4,436.5,1.0,58,185.93
1607,D5,436.5,1.0,58,185.93
1608,B2,437.5,0.5,48,185.93
1609,C#5,437.5,0.5,63,185.93
1610,B4,437.5,0.5,63,185.93
1611,F4,437.5,0.5,63,185.93
1612,F3,438.0,0.25,51,185.93
1613,C#5,438.0,0.5,63,185.93
1614,B4,438.0,0.5,63,185.93
1615,F4,438.0,0.5,63,185.93
1616,F#3,438.5,0.25,54,185.93
1617,B4,438.5,1.0,68,185.93
1618,C#5,438.5,1.0,68,185.93
1619,F5,438.5,1.0,68,185.93
1620,G3,439.0,2.0,60,185.93
1621,B-4,439.5,0.375,69,185.93
1622,C#5,439.5,0.375,69,185.93
1623,F#5,439.5,0.375,69,185.93
1624,F#5,440.0,0.5,47,185.93
1625,B5,440.0,0.5,47,185.93
1626,F5,440.5,0.5,46,185.93
1627,G#3,441.0,1.0,67,185.93
1628,F#5,441.0,1.0,47,185.93
1629,B5,441.0,1.0,47,185.93
1630,C#4,442.0,1.0,66,185.93
1631,E5,442.0,0.5,47,185.93
1632,B-5,442.0,0.5,47,185.93
1633,G#4,443.0,0.5,68,185.93
1634,D5,443.0,0.5,47,185.93
1635,G5,443.0,0.5,47,185.93
1636,C#5,443.5,0.5,45,185.93
1637,F#4,443.5,0.375,61,185.93
1638,D5,444.0,0.5,45,185.93
1639,D5,444.0,1.0,47,185.93
1640,G5,444.0,1.0,47,185.93
1641,C#5,444.5,0.5,43,185.93
1642,D5,445.0,1.0,45,185.93
1643,C#5,445.0,0.5,46,185.93
1644,F#5,445.0,0.5,46,185.93
1645,F#4,445.5,0.5,36,185.93
1646,C#5,446.0,0.5,43,185.93
1647,C5,446.0,0.5,66,185.93
1648,F#5,446.0,0.5,66,185.93
1649,B4,446.5,0.5,64,185.93
1650,F#4,446.5,1.5,33,185.93
1651,B4,447.0,0.5,44,185.93
1652,C5,447.0,0.5,66,185.93
1653,F#5,447.0,0.5,66,185.93
1654,B-4,447.5,0.5,42,185.93
1655,F#4,447.5,0.5,67,185.93
1656,C5,447.5,0.5,67,185.93
1657,F4,448.0,0.5,60,185.93
1658,B4,448.0,1.0,45,185.93
1659,F#4,448.0,0.5,33,185.93
1660,F#4,448.5,0.5,39,185.93
1661,F#4,448.5,0.5,64,185.93
1662,C5,448.5,0.5,64,185.93
1663,B-4,449.0,0.5,44,185.93
1664,C4,449.0,0.5,67,185.93
1665,E4,449.0,0.5,67,185.93
1666,B3,449.5,0.5,67,185.93
1667,F#4,449.5,0.5,37,185.93
1668,C4,450.0,0.5,64,185.93
1669,E4,450.0,0.5,64,185.93
1670,E4,450.0,1.0,60,185.93
1671,A4,450.0,1.0,60,185.93
1672,F#3,451.0,0.25,66,185.93
1673,A3,451.0,0.25,66,185.93
1674,E-4,451.0,0.25,66,185.93
1675,G3,451.5,0.25,70,185.93
1676,B3,451.5,0.25,70,185.93
1677,E4,451.5,0.25,70,185.93
1678,E4,451.5,0.5,60,185.93
1679,A4,451.5,0.5,60,185.93
1680,B5,452.0,0.5,47,185.93
1681,E6,452.0,0.5,47,185.93
1682,E4,452.0,1.5,53,185.93
1683,A3,452.0,1.5,53,185.93
1684,B-5,452.5,0.5,46,185.93
1685,B5,453.0,1.0,47,185.93
1686,E6,453.0,1.0,47,185.93
1687,F#3,453.5,1.0,53,185.93
1688,A3,453.5,1.0,53,185.93
1689,A5,454.0,0.5,47,185.93
1690,E-6,454.0,0.5,47,185.93
1691,F#3,454.5,0.5,53,185.93
1692,A3,454.5,0.5,53,185.93
1693,C3,455.0,0.25,53,185.93
1694,G5,455.0,0.5,47,185.93
1695,C6,455.0,0.5,47,185.93
1696,F#5,455.5,0.5,45,185.93
1697,B2,455.5,0.25,46,185.93
1698,E3,456.0,0.25,53,185.93
1699,G5,456.0,1.0,47,185.93
1700,C6,456.0,1.0,47,185.93
1701,G5,456.5,0.5,45,185.93
1702,F#5,457.0,0.5,43,185.93
1703,F#5,457.0,0.5,46,185.93
1704,B5,457.0,0.5,46,185.93
1705,G5,457.5,1.0,45,185.93
1706,B4,458.0,0.5,41,185.93
1707,F5,458.0,0.5,66,185.93
1708,B5,458.0,0.5,66,185.93
1709,E5,458.5,0.5,64,185.93
1710,F#5,458.5,0.5,43,185.93
1711,B4,459.0,1.5,38,185.93
1712,F5,459.0,0.5,66,185.93
1713,B5,459.0,0.5,66,185.93
1714,E5,459.5,0.5,44,185.93
1715,B4,459.5,0.5,67,185.93
1716,F5,459.5,0.5,67,185.93
1717,B-4,460.0,0.5,60,185.93
1718,E-5,460.0,0.5,42,185.93
1719,E5,460.5,1.0,45,185.93
1720,B4,460.5,0.5,38,185.93
1721,B4,460.5,0.5,64,185.93
1722,F5,460.5,0.5,64,185.93
1723,B4,461.0,0.5,39,185.93
1724,F4,461.0,0.5,67,185.93
1725,A4,461.0,0.5,67,185.93
1726,E4,461.5,0.5,67,185.93
1727,E-5,461.5,0.5,44,185.93
1728,B4,462.0,0.5,34,185.93
1729,F4,462.0,0.5,64,185.93
1730,A4,462.0,0.5,64,185.93
1731,A4,462.5,1.0,60,185.93
1732,D5,462.5,1.0,60,185.93
1733,B3,463.0,0.5,56,185.93
1734,D4,463.0,0.5,56,185.93
1735,G#4,463.0,0.5,56,185.93
1736,C4,463.5,0.5,55,185.93
1737,A4,463.5,0.5,55,185.93
1738,C4,464.0,1.0,53,185.93
1739,A4,464.0,1.0,53,185.93
1740,A4,464.0,0.5,60,185.93
1741,D5,464.0,0.5,60,185.93
1742,A4,464.5,1.5,53,185.93
1743,D4,464.5,1.5,53,185.93
1744,D4,465.0,1.0,53,185.93
1745,G#4,465.0,1.0,53,185.93
1746,B4,465.0,1.0,53,185.93
1747,E4,466.0,0.5,55,185.93
1748,A4,466.0,0.5,55,185.93
1749,C5,466.0,0.5,55,185.93
1750,B3,466.0,1.0,53,185.93
1751,D4,466.0,1.0,53,185.93
1752,C4,467.0,1.0,54,185.93
1753,A4,467.0,1.0,54,185.93
1754,B3,467.0,0.5,53,185.93
1755,D4,467.0,0.5,53,185.93
1756,F3,467.5,0.25,53,185.93
1757,E3,468.0,0.25,40,185.93
1758,B3,468.0,1.0,50,185.93
1759,D4,468.0,1.0,50,185.93
1760,G#4,468.0,1.0,50,185.93
1761,A2,468.5,0.25,47,185.93
1762,F3,469.0,0.25,37,185.93
1763,A3,469.0,0.5,50,185.93
1764,C4,469.0,0.5,50,185.93
1765,A4,469.0,0.5,50,185.93
1766,E3,469.5,0.25,37,185.93
1767,A2,470.0,0.25,43,185.93
1768,E4,470.0,1.0,55,185.93
1769,C5,470.0,1.0,55,185.93
1770,F3,470.5,0.25,37,185.93
1771,E3,471.0,0.25,37,185.93
1772,F4,471.0,1.0,59,185.93
1773,B4,471.0,1.0,59,185.93
1774,D5,471.0,1.0,59,185.93
1775,A2,471.5,0.25,43,185.93
1776,F3,472.0,0.25,37,185.93
1777,E4,472.0,0.5,61,185.93
1778,C5,472.0,0.5,61,185.93
1779,E5,472.0,0.5,61,185.93
1780,E3,472.5,0.25,37,185.93
1781,A2,473.0,0.25,43,185.93
1782,E4,473.0,1.0,56,185.93
1783,C5,473.0,1.0,56,185.93
1784,F3,473.5,0.25,38,185.93
1785,E3,474.0,0.25,38,185.93
1786,D4,474.0,1.0,53,185.93
1787,F4,474.0,1.0,53,185.93
1788,B4,474.0,1.0,53,185.93
1789,A2,474.5,0.25,45,185.93
1790,A3,475.0,0.25,39,185.93
1791,C4,475.0,0.5,56,185.93
1792,E4,475.0,0.5,56,185.93
1793,C5,475.0,0.5,56,185.93
1794,G#3,475.5,0.25,39,185.93
1795,C3,476.0,0.25,48,185.93
1796,G4,476.0,1.0,58,185.93
1797,E5,476.0,1.0,58,185.93
1798,A3,476.5,0.25,44,185.93
1799,G#3,477.0,0.25,44,185.93
1800,A4,477.0,1.0,57,185.93
1801,E-5,477.0,1.0,57,185.93
1802,F#5,477.0,1.0,57,185.93
1803,C3,477.5,0.25,47,185.93
1804,A3,478.0,0.25,44,185.93
1805,G4,478.0,0.5,59,185.93
1806,E5,478.0,0.5,59,185.93
1807,G5,478.0,0.5,59,185.93
1808,G#3,478.5,0.25,44,185.93
1809,C3,479.0,0.25,47,185.93
1810,B4,479.0,1.0,64,185.93
1811,G5,479.0,1.0,64,185.93
1812,A3,479.5,0.25,43,185.93
1813,G#3,480.0,0.25,43,185.93
1814,C5,480.0,1.0,59,185.93
1815,A5,480.0,1.0,59,185.93
1816,F#5,480.0,1.0,59,185.93
1817,C3,480.5,0.25,49,185.93
1818,C4,481.0,0.25,44,185.93
1819,B4,481.0,0.5,62,185.93
1820,G5,481.0,0.5,62,185.93
1821,B5,481.0,0.5,62,185.93
1822,B3,481.5,0.25,44,185.93
1823,E3,482.0,0.25,48,185.93
1824,D5,482.0,1.0,66,185.93
1825,B5,482.0,1.0,66,185.93
1826,C4,482.5,0.25,43,185.93
1827,B3,483.0,0.25,43,185.93
1828,C#6,483.0,1.0,61,185.93
1829,B-5,483.0,1.0,61,185.93
1830,E5,483.0,1.0,61,185.93
1831,E3,483.5,0.25,49,185.93
1832,E4,484.0,0.25,44,185.93
1833,D6,484.0,0.5,66,185.93
1834,B5,484.0,0.5,66,185.93
1835,D5,484.0,0.5,66,185.93
1836,E-4,484.5,0.25,44,185.93
1837,G3,485.0,0.25,51,185.93
1838,D6,485.0,1.0,72,185.93
1839,F#5,485.0,1.0,72,185.93
1840,E4,485.5,0.25,46,185.93
1841,E-4,486.0,0.25,47,185.93
1842,E6,486.0,1.0,69,185.93
1843,C#6,486.0,1.0,69,185.93
1844,G5,486.0,1.0,69,185.93
1845,G3,486.5,0.25,51,185.93
1846,G4,487.0,0.25,46,185.93
1847,F#6,487.0,0.5,76,185.93
1848,D6,487.0,0.5,76,185.93
1849,F#5,487.0,0.5,76,185.93
1850,F#4,487.5,0.25,46,185.93
1851,B3,488.0,0.25,53,185.93
1852,F#5,488.0,1.0,80,185.93
1853,D6,488.0,1.0,80,185.93
1854,F#6,488.0,1.0,80,185.93
1855,G4,488.5,0.25,47,185.93
1856,F#4,489.0,0.25,48,185.93
1857,F#5,489.0,1.0,77,185.93
1858,D6,489.0,1.0,77,185.93
1859,F#6,489.0,1.0,77,185.93
1860,B3,489.5,0.25,53,185.93
1861,B4,490.0,0.25,49,185.93
1862,F#6,490.0,1.0,78,185.93
1863,D6,490.0,1.0,78,185.93
1864,F#5,490.0,1.0,78,185.93
1865,B-4,490.5,0.25,47,185.93
1866,D4,491.0,0.25,58,185.93
1867,E6,491.0,1.0,79,185.93
1868,F#6,491.0,1.0,79,185.93
1869,F#5,491.0,1.0,79,185.93
1870,B4,491.5,0.25,50,185.93
1871,B-4,492.0,0.25,59,185.93
1872,F#5,492.0,1.0,75,185.93
1873,E6,492.0,1.0,75,185.93
1874,F#6,492.0,1.0,75,185.93
1875,D4,492.5,0.25,48,185.93
1876,B-4,493.0,0.5,62,185.93
1877,F#5,493.0,1.0,76,185.93
1878,E6,493.0,1.0,76,185.93
1879,F#6,493.0,1.0,76,185.93
1880,D4,493.5,0.5,48,185.93
1881,B-4,494.0,0.5,61,185.93
1882,F#5,494.0,1.0,76,185.93
1883,B-4,494.0,1.0,76,185.93
1884,E5,494.0,1.0,76,185.93
1885,D4,494.5,0.5,48,185.93
1886,B-4,495.0,0.5,61,185.93
1887,B-4,495.0,1.0,76,185.93
1888,F#5,495.0,1.0,76,185.93
1889,E5,495.0,1.0,76,185.93
1890,D4,495.5,0.5,48,185.93
1891,B-4,496.0,0.5,61,185.93
1892,B-4,496.0,1.0,74,185.93
1893,E5,496.0,1.0,74,185.93
1894,F#5,496.0,1.0,74,185.93
1895,C#4,496.5,0.5,48,185.93
1896,B-4,497.0,0.5,58,185.93
1897,B-3,497.0,1.0,68,185.93
1898,F#4,497.0,1.0,68,185.93
1899,E4,497.0,1.0,68,185.93
1900,C#4,497.5,0.5,46,185.93
1901,B-4,498.0,0.5,57,185.93
1902,B-3,498.0,1.0,68,185.93
1903,E4,498.0,1.0,68,185.93
1904,F#4,498.0,1.0,68,185.93
1905,C#4,498.5,0.5,46,185.93
1906,C#4,499.0,0.5,57,185.93
1907,B-3,499.0,0.875,67,185.93
1908,F#4,499.0,0.875,67,185.93
1909,E4,499.0,0.875,67,185.93
1910,F#3,499.5,0.5,46,185.93
1911,C#4,500.0,0.5,56,185.93
1912,F#4,500.0,0.5,47,185.93
1913,B4,500.0,0.5,47,185.93
1914,F4,500.5,0.5,46,185.93
1915,F#3,500.5,0.5,42,185.93
1916,C#4,501.0,0.5,57,185.93
1917,F#4,501.0,1.0,47,185.93
1918,B4,501.0,1.0,47,185.93
1919,F#3,501.5,0.5,44,185.93
1920,C#3,502.0,0.5,50,185.93
1921,E4,502.0,0.5,47,185.93
1922,B-4,502.0,0.5,47,185.93
1923,F#2,502.5,0.5,40,185.93
1924,C#3,503.0,0.5,50,185.93
1925,D4,503.0,0.5,47,185.93
1926,G4,503.0,0.5,47,185.93
1927,C#4,503.5,0.5,45,185.93
1928,F#2,503.5,0.5,41,185.93
1929,C#3,504.0,0.5,49,185.93
1930,D4,504.0,1.0,47,185.93
1931,G4,504.0,1.0,47,185.93
1932,F#2,504.5,0.375,41,185.93
1933,D4,505.0,0.5,45,185.93
1934,C#4,505.0,0.5,46,185.93
1935,F#4,505.0,0.5,46,185.93
1936,C#4,505.5,0.5,43,185.93
1937,D4,506.0,1.0,45,185.93
1938,C4,506.0,0.5,47,185.93
1939,F#4,506.0,0.5,47,185.93
1940,B3,506.5,0.5,46,185.93
1941,B2,506.5,0.5,40,185.93
1942,C#4,507.0,0.5,43,185.93
1943,C4,507.0,1.0,47,185.93
1944,F#4,507.0,1.0,47,185.93
1945,B2,507.5,0.5,36,185.93
1946,B3,508.0,0.5,44,185.93
1947,B3,508.0,0.5,44,185.93
1948,E4,508.0,0.5,44,185.93
1949,B-3,508.5,0.5,42,185.93
1950,B3,509.0,1.0,45,185.93
1951,B-3,509.0,0.5,47,185.93
1952,E4,509.0,0.5,47,185.93
1953,B2,509.5,0.5,39,185.93
1954,B-3,510.0,0.5,44,185.93
1955,B-3,510.0,0.5,50,185.93
1956,D4,510.0,0.5,50,185.93
1957,B2,510.5,0.5,36,185.93
1958,A3,511.0,0.5,44,185.93
1959,B-3,511.0,0.5,48,185.93
1960,C#4,511.0,0.5,48,185.93
1961,B3,511.5,0.5,47,185.93
1962,G#3,511.5,0.5,41,185.93
1963,A3,512.0,1.0,45,185.93
1964,B2,512.5,0.5,40,185.93
1965,G#3,513.0,0.5,44,185.93
1966,B2,513.5,0.5,37,185.93
1967,D4,513.5,0.25,47,185.93
1968,B4,513.5,0.25,47,185.93
1969,D5,513.5,0.25,47,185.93
1970,G3,514.0,0.5,45,185.93
1971,E4,514.0,0.25,49,185.93
1972,B4,514.0,0.25,49,185.93
1973,D5,514.0,0.25,49,185.93
1974,B2,514.5,0.5,43,185.93
1975,F4,514.5,0.25,46,185.93
1976,B4,514.5,0.25,46,185.93
1977,D5,514.5,0.25,46,185.93
1978,F#3,515.0,0.5,49,185.93
1979,B2,515.5,0.5,50,185.93
1980,E3,516.0,0.5,47,185.93
1981,G#3,516.5,0.25,45,185.93
1982,B3,516.5,0.25,45,185.93
1983,F#4,516.5,0.25,45,185.93
1984,B2,516.5,0.5,44,185.93
1985,D3,516.5,0.5,44,185.93
1986,F3,517.0,0.25,52,185.93
1987,B-3,517.0,0.25,46,185.93
1988,C#4,517.0,0.25,46,185.93
1989,E4,517.0,0.25,46,185.93
1990,F#3,517.5,0.25,54,185.93
1991,B3,517.5,0.25,46,185.93
1992,D4,517.5,0.25,46,185.93
1993,G3,518.0,1.5,59,185.93
1994,G2,519.5,0.5,49,185.93
1995,D4,519.5,0.25,47,185.93
1996,B4,519.5,0.25,47,185.93
1997,D5,519.5,0.25,47,185.93
1998,A2,520.0,0.25,51,185.93
1999,E4,520.0,0.25,49,185.93
2000,B4,520.0,0.25,49,185.93
2001,D5,520.0,0.25,49,185.93
2002,G2,520.5,0.25,49,185.93
2003,F4,520.5,0.25,45,185.93
2004,B4,520.5,0.25,45,185.93
2005,D5,520.5,0.25,45,185.93
2006,F#2,521.0,1.5,51,185.93
2007,B2,522.5,0.5,48,185.93
2008,G#3,522.5,0.25,47,185.93
2009,B3,522.5,0.25,47,185.93
2010,F#4,522.5,0.25,47,185.93
2011,F3,523.0,0.25,51,185.93
2012,B-3,523.0,0.25,46,185.93
2013,C#4,523.0,0.25,46,185.93
2014,E4,523.0,0.25,46,185.93
2015,F#3,523.5,0.25,54,185.93
2016,B3,523.5,0.25,46,185.93
2017,D4,523.5,0.25,46,185.93
2018,G3,524.0,1.5,58,185.93
2019,G2,525.5,0.5,49,185.93
2020,A3,525.5,0.25,47,185.93
2021,E4,525.5,0.25,47,185.93
2022,A4,525.5,0.25,47,185.93
2023,A2,526.0,0.25,54,185.93
2024,A3,526.0,0.25,46,185.93
2025,E4,526.0,0.25,46,185.93
2026,G4,526.0,0.25,46,185.93
2027,G2,526.5,0.25,51,185.93
2028,A3,526.5,0.25,47,185.93
2029,D4,526.5,0.25,47,185.93
2030,F#4,526.5,0.25,47,185.93
2031,F#2,527.0,1.5,52,185.93
2032,B2,528.5,0.5,49,185.93
2033,C#4,528.5,0.25,55,185.93
2034,G#4,528.5,0.25,55,185.93
2035,C#5,528.5,0.25,55,185.93
2036,E3,529.0,0.25,55,185.93
2037,C#4,529.0,0.25,55,185.93
2038,G#4,529.0,0.25,55,185.93
2039,B4,529.0,0.25,55,185.93
2040,D3,529.5,0.25,52,185.93
2041,C#4,529.5,0.25,55,185.93
2042,F#4,529.5,0.25,55,185.93
2043,B-4,529.5,0.25,55,185.93
2044,C#5,530.0,1.0,66,185.93
2045,F#5,530.0,0.5,66,185.93
2046,C#3,530.0,1.5,51,185.93
2047,E5,530.5,0.5,66,185.93
2048,B4,531.0,0.5,64,185.93
2049,D5,531.0,0.5,64,185.93
2050,C#5,531.5,1.0,72,185.93
2051,F#5,531.5,0.5,72,185.93
2052,D3,531.5,0.5,50,185.93
2053,E5,532.0,0.5,69,185.93
2054,G#3,532.0,0.25,58,185.93
2055,F#3,532.5,0.25,56,185.93
2056,B4,532.5,0.5,70,185.93
2057,D5,532.5,0.5,70,185.93
2058,C#5,533.0,1.0,77,185.93
2059,F#5,533.0,0.5,77,185.93
2060,F3,533.0,1.5,55,185.93
2061,E5,533.5,0.5,78,185.93
2062,B4,534.0,0.5,80,185.93
2063,D5,534.0,0.5,80,185.93
2064,F#3,534.5,0.5,52,185.93
2065,F#5,534.5,0.25,82,185.93
2066,C#5,534.5,0.25,82,185.93
2067,B-3,535.0,1.0,56,185.93
2068,F#4,535.0,1.0,56,185.93
2069,B4,535.0,0.25,78,185.93
2070,D5,535.0,0.25,78,185.93
2071,G4,535.5,1.5,81,185.93
2072,B4,535.5,1.5,81,185.93
2073,E5,535.5,1.5,81,185.93
2074,G5,535.5,1.5,81,185.93
2075,G#3,536.0,0.5,60,185.93
2076,F#4,536.0,0.5,56,185.93
2077,B-3,536.5,1.0,60,185.93
2078,F#4,536.5,1.5,60,185.93
2079,G#3,537.5,0.5,65,185.93
2080,E4,538.0,0.25,64,185.93
2081,B-3,538.0,1.0,65,185.93
2082,F#4,538.0,1.0,65,185.93
2083,G4,538.25,0.25,63,185.93
2084,E5,538.5,0.25,61,185.93
2085,C#5,538.75,0.25,60,185.93
2086,B4,539.0,0.25,59,185.93
2087,G#3,539.0,0.5,71,185.93
2088,F#4,539.0,0.5,65,185.93
2089,G4,539.25,0.25,58,185.93
2090,E4,539.5,0.25,56,185.93
2091,B-3,539.5,0.25,72,185.93
2092,F#4,539.5,0.25,72,185.93
2093,B3,540.0,0.25,69,185.93
2094,F#4,540.0,0.25,69,185.93
2095,E3,540.5,1.5,67,185.93
2096,B3,540.5,1.5,67,185.93
2097,E4,540.5,1.5,67,185.93
2098,C#3,540.75,0.25,58,185.93
2099,B2,541.0,0.25,58,185.93
2100,G2,541.25,0.25,58,185.93
2101,E3,542.0,1.0,54,185.93
2102,G3,542.25,0.25,56,185.93
2103,B3,542.5,0.25,57,185.93
2104,G3,542.5,0.25,56,185.93
2105,B3,542.5,0.25,56,185.93
2106,E4,542.5,0.25,56,185.93
2107,C#4,542.75,0.25,59,185.93
2108,G4,544.0,0.25,63,185.93
2109,B4,544.25,0.25,63,185.93
2110,G5,544.5,0.25,61,185.93
2111,E5,544.75,0.25,60,185.93
2112,C#4,544.75,0.25,57,185.93
2113,C#5,545.0,0.25,59,185.93
2114,B3,545.0,0.25,57,185.93
2115,B4,545.25,0.25,58,185.93
2116,G3,545.25,0.25,56,185.93
2117,G4,545.5,0.25,57,185.93
2118,E3,545.5,0.25,56,185.93
2119,E2,546.5,0.5,57,185.93
2120,E3,546.75,0.25,58,185.93
2121,C#3,547.0,0.25,58,185.93
2122,C#3,547.0,0.5,57,185.93
2123,B2,547.25,0.25,58,185.93
2124,E3,548.0,0.25,53,185.93
2125,B3,548.25,0.25,55,185.93
2126,C#4,548.5,0.25,56,185.93
2127,B4,548.5,0.25,62,185.93
2128,B3,548.5,0.25,62,185.93
2129,E4,548.5,0.25,62,185.93
2130,G4,548.5,0.25,62,185.93
2131,E4,548.75,0.25,58,185.93
2132,B3,550.0,0.25,71,185.93
2133,D4,550.25,0.25,73,185.93
2134,F#4,550.5,0.25,75,185.93
2135,B4,550.75,0.25,78,185.93
2136,E4,550.75,0.25,58,185.93
2137,C#4,551.0,0.25,57,185.93
2138,D4,551.0,0.25,79,185.93
2139,D5,551.0,0.25,79,185.93
2140,B3,551.25,0.25,56,185.93
2141,F#4,551.25,0.25,81,185.93
2142,F#5,551.25,0.25,81,185.93
2143,G3,551.5,0.25,56,185.93
2144,B4,551.5,0.25,84,185.93
2145,B5,551.5,0.25,84,185.93
2146,D5,551.75,0.25,86,185.93
2147,D6,551.75,0.25,86,185.93
2148,F#6,552.0,0.5,86,185.93
2149,F#5,552.0,0.5,86,185.93
2150,G2,552.5,0.5,60,185.93
2151,E4,552.5,0.25,83,185.93
2152,E5,552.5,0.25,83,185.93
2153,G5,552.5,0.25,83,185.93
2154,G6,552.5,0.25,83,185.93
2155,C#3,553.0,0.5,57,185.93
2156,C#4,553.0,0.25,79,185.93
2157,C#5,553.0,0.25,79,185.93
2158,E5,553.0,0.25,79,185.93
2159,E6,553.0,0.25,79,185.93
2160,D4,553.5,0.25,83,185.93
2161,D5,553.5,0.25,83,185.93
2162,F#6,553.5,0.25,83,185.93
2163,F#5,553.5,0.25,83,185.93
2164,F#2,554.0,0.25,63,185.93
2165,B3,554.0,0.25,79,185.93
2166,B4,554.0,0.25,79,185.93
2167,D5,554.0,0.25,79,185.93
2168,D6,554.0,0.25,79,185.93
2169,B2,554.25,0.25,65,185.93
2170,D3,554.5,0.25,68,185.93
2171,C#4,554.5,0.25,85,185.93
2172,C#5,554.5,0.25,85,185.93
2173,E6,554.5,0.25,85,185.93
2174,E5,554.5,0.25,85,185.93
2175,F#3,554.75,0.25,70,185.93
2176,B-3,555.0,0.25,79,185.93
2177,B-4,555.0,0.25,79,185.93
2178,C#5,555.0,0.25,79,185.93
2179,C#6,555.0,0.25,79,185.93
2180,F#3,555.5,0.25,75,185.93
2181,B3,555.5,0.25,82,185.93
2182,B4,555.5,0.25,82,185.93
2183,D6,555.5,0.25,82,185.93
2184,D5,555.5,0.25,82,185.93
2185,B3,555.75,0.25,77,185.93
2186,F#3,556.0,0.25,75,185.93
2187,F#4,556.0,0.25,75,185.93
2188,B-4,556.0,0.25,75,185.93
2189,B-5,556.0,0.25,75,185.93
2190,B4,556.5,0.25,87,185.93
2191,B5,556.5,0.25,87,185.93
2192,F#5,557.0,0.25,80,185.93
2193,F#4,557.0,0.25,80,185.93
2194,G4,557.5,0.25,86,185.93
2195,G5,557.5,0.25,86,185.93
2196,E4,558.0,0.25,80,185.93
2197,E5,558.0,0.25,80,185.93
2198,F#4,558.5,0.25,86,185.93
2199,F#5,558.5,0.25,86,185.93
2200,D4,559.0,0.25,78,185.93
2201,D5,559.0,0.25,78,185.93
2202,E4,559.5,0.25,86,185.93
2203,E5,559.5,0.25,86,185.93
2204,C#4,560.0,0.25,78,185.93
2205,C#5,560.0,0.25,78,185.93
2206,D4,560.5,0.25,86,185.93
2207,D5,560.5,0.25,86,185.93
2208,B-3,561.0,0.25,80,185.93
2209,B-4,561.0,0.25,80,185.93
2210,B3,561.5,0.25,86,185.93
2211,B4,561.5,0.25,86,185.93
2212,G4,561.5,0.25,74,185.93
2213,G3,561.5,0.25,74,185.93
2214,F#3,562.0,0.25,78,185.93
2215,F#4,562.0,0.25,78,185.93
2216,D3,562.0,0.25,68,185.93
2217,D4,562.0,0.25,68,185.93
2218,G3,562.5,1.0,84,185.93
2219,G4,562.5,1.0,84,185.93
2220,E3,562.5,0.25,72,185.93
2221,E4,562.5,0.25,72,185.93
2222,C#3,563.0,0.25,67,185.93
2223,C#4,563.0,0.25,67,185.93
2224,C#4,563.5,0.5,75,185.93
2225,E4,563.5,0.5,75,185.93
2226,B-4,563.5,0.5,75,185.93
2227,D3,563.5,0.25,73,185.93
2228,D4,563.5,0.25,73,185.93
2229,D4,564.0,0.5,80,185.93
2230,F#4,564.0,0.5,80,185.93
2231,B4,564.0,0.5,80,185.93
2232,B2,564.0,0.25,66,185.93
2233,B3,564.0,0.25,66,185.93
2234,C#3,564.5,0.25,72,185.93
2235,C#4,564.5,0.25,72,185.93
2236,B-2,565.0,0.25,66,185.93
2237,B-3,565.0,0.25,66,185.93
2238,B2,565.5,0.25,68,185.93
2239,B3,565.5,0.25,68,185.93
2240,C#4,566.0,0.25,56,185.93
2241,C#5,566.0,0.25,56,185.93
2242,D5,566.0,0.25,56,185.93
2243,F#2,566.0,0.25,67,185.93
2244,F#3,566.0,0.25,67,185.93
2245,D4,566.5,0.25,53,185.93
2246,C#5,566.5,0.25,53,185.93
2247,D5,566.5,0.25,53,185.93
2248,G2,566.5,0.25,73,185.93
2249,G3,566.5,0.25,73,185.93
2250,E4,567.0,0.25,52,185.93
2251,C#5,567.0,0.25,52,185.93
2252,D5,567.0,0.25,52,185.93
2253,D2,567.0,0.25,62,185.93
2254,D3,567.0,0.25,62,185.93
2255,E2,567.5,1.0,71,185.93
2256,E3,567.5,1.0,71,185.93
2257,F#2,568.5,0.5,64,185.93
2258,F#3,568.5,0.5,64,185.93
2259,B2,569.0,0.5,68,185.93
2260,G#3,569.0,0.25,53,185.93
2261,B3,569.0,0.25,53,185.93
2262,F#4,569.0,0.25,53,185.93
2263,E3,569.5,0.25,58,185.93
2264,B-3,569.5,0.25,52,185.93
2265,C#4,569.5,0.25,52,185.93
2266,F#4,569.5,0.25,52,185.93
2267,F#3,570.0,0.25,60,185.93
2268,F#4,570.0,0.25,52,185.93
2269,B3,570.0,0.25,52,185.93
2270,D4,570.0,0.25,52,185.93
2271,G3,570.5,1.5,66,185.93
2272,G3,572.0,0.5,66,185.93
2273,C#4,572.0,0.25,54,185.93
2274,C#5,572.0,0.25,54,185.93
2275,D5,572.0,0.25,54,185.93
2276,A2,572.5,0.25,57,185.93
2277,D4,572.5,0.25,55,185.93
2278,C#5,572.5,0.25,55,185.93
2279,D5,572.5,0.25,55,185.93
2280,G2,573.0,0.25,55,185.93
2281,E4,573.0,0.25,51,185.93
2282,C#5,573.0,0.25,51,185.93
2283,D5,573.0,0.25,51,185.93
2284,F#2,573.5,1.5,57,185.93
2285,B2,575.0,0.5,54,185.93
2286,G#3,575.0,0.25,55,185.93
2287,B3,575.0,0.25,55,185.93
2288,F#4,575.0,0.25,55,185.93
2289,E3,575.5,0.25,57,185.93
2290,B-3,575.5,0.25,55,185.93
2291,C#4,575.5,0.25,55,185.93
2292,F#4,575.5,0.25,55,185.93
2293,F#3,576.0,0.25,60,185.93
2294,B3,576.0,0.25,52,185.93
2295,D4,576.0,0.25,52,185.93
2296,F#4,576.0,0.25,52,185.93
2297,G3,576.5,1.5,65,185.93
2298,D4,576.5,0.25,62,185.93
2299,F#4,576.5,0.25,62,185.93
2300,B4,576.5,0.25,62,185.93
2301,D4,577.0,0.25,59,185.93
2302,F#4,577.0,0.25,59,185.93
2303,B-4,577.0,0.25,59,185.93
2304,D4,577.5,0.25,62,185.93
2305,F#4,577.5,0.25,62,185.93
2306,B4,577.5,0.25,62,185.93
2307,G3,578.0,0.5,65,185.93
2308,F#4,578.0,0.25,63,185.93
2309,B4,578.0,0.25,63,185.93
2310,D5,578.0,0.25,63,185.93
2311,A2,578.5,0.25,61,185.93
2312,F#4,578.5,0.25,60,185.93
2313,B4,578.5,0.25,60,185.93
2314,C#5,578.5,0.25,60,185.93
2315,G2,579.0,0.25,57,185.93
2316,F#4,579.0,0.25,65,185.93
2317,B4,579.0,0.25,65,185.93
2318,D5,579.0,0.25,65,185.93
2319,F#2,579.5,1.5,58,185.93
2320,B4,579.5,0.25,65,185.93
2321,D5,579.5,0.25,65,185.93
2322,F#5,579.5,0.25,65,185.93
2323,B4,580.0,0.25,63,185.93
2324,D5,580.0,0.25,63,185.93
2325,F5,580.0,0.25,63,185.93
2326,B4,580.5,0.25,68,185.93
2327,D5,580.5,0.25,68,185.93
2328,F#5,580.5,0.25,68,185.93
2329,B2,581.0,0.25,58,185.93
2330,D5,581.0,0.25,69,185.93
2331,F#5,581.0,0.25,69,185.93
2332,B5,581.0,0.25,69,185.93
2333,D5,581.5,0.25,65,185.93
2334,F#5,581.5,0.25,65,185.93
2335,B-5,581.5,0.25,65,185.93
2336,D3,581.5,0.25,51,185.93
2337,F#3,581.5,0.25,51,185.93
2338,B3,581.5,0.25,51,185.93
2339,D5,582.0,0.25,70,185.93
2340,F#5,582.0,0.25,70,185.93
2341,B5,582.0,0.25,70,185.93
2342,D3,582.0,0.25,47,185.93
2343,F#3,582.0,0.25,47,185.93
2344,B-3,582.0,0.25,47,185.93
2345,F#5,582.5,0.25,71,185.93
2346,B5,582.5,0.25,71,185.93
2347,D6,582.5,0.25,71,185.93
2348,D3,582.5,0.25,50,185.93
2349,F#3,582.5,0.25,50,185.93
2350,B3,582.5,0.25,50,185.93
2351,F#5,583.0,0.25,65,185.93
2352,B5,583.0,0.25,65,185.93
2353,C#6,583.0,0.25,65,185.93
2354,F#3,583.0,0.25,52,185.93
2355,B3,583.0,0.25,52,185.93
2356,D4,583.0,0.25,52,185.93
2357,F#5,583.5,0.25,72,185.93
2358,B5,583.5,0.25,72,185.93
2359,D6,583.5,0.25,72,185.93
2360,F#3,583.5,0.25,50,185.93
2361,B3,583.5,0.25,50,185.93
2362,C#4,583.5,0.25,50,185.93
2363,B5,584.0,0.25,73,185.93
2364,D6,584.0,0.25,73,185.93
2365,F#6,584.0,0.25,73,185.93
2366,F#3,584.0,0.25,54,185.93
2367,B3,584.0,0.25,54,185.93
2368,D4,584.0,0.25,54,185.93
2369,B5,584.5,0.25,68,185.93
2370,D6,584.5,0.25,68,185.93
2371,F6,584.5,0.25,68,185.93
2372,F#4,584.5,0.25,50,185.93
2373,D4,584.5,0.25,50,185.93
2374,B3,584.5,0.25,50,185.93
2375,B5,585.0,0.25,75,185.93
2376,D6,585.0,0.25,75,185.93
2377,F#6,585.0,0.25,75,185.93
2378,F4,585.0,0.25,55,185.93
2379,D4,585.0,0.25,55,185.93
2380,B3,585.0,0.25,55,185.93
2381,D6,585.5,0.25,75,185.93
2382,F#6,585.5,0.25,75,185.93
2383,B6,585.5,0.25,75,185.93
2384,F#4,585.5,0.25,56,185.93
2385,D4,585.5,0.25,56,185.93
2386,B3,585.5,0.25,56,185.93
2387,D6,586.0,0.25,72,185.93
2388,F#6,586.0,0.25,72,185.93
2389,B-6,586.0,0.25,72,185.93
2390,D4,586.0,0.25,53,185.93
2391,F#4,586.0,0.25,53,185.93
2392,B4,586.0,0.25,53,185.93
2393,D6,586.5,0.25,81,185.93
2394,F#6,586.5,0.25,81,185.93
2395,B6,586.5,0.25,81,185.93
2396,D4,586.5,0.25,57,185.93
2397,F#4,586.5,0.25,57,185.93
2398,B-4,586.5,0.25,57,185.93
2399,D6,587.0,0.25,85,185.93
2400,F#6,587.0,0.25,85,185.93
2401,B6,587.0,0.25,85,185.93
2402,D4,587.0,0.25,57,185.93
2403,F#4,587.0,0.25,57,185.93
2404,B4,587.0,0.25,57,185.93
2405,D6,587.5,0.25,80,185.93
2406,F#6,587.5,0.25,80,185.93
2407,B-6,587.5,0.25,80,185.93
2408,F#4,587.5,0.25,57,185.93
2409,B4,587.5,0.25,57,185.93
2410,D5,587.5,0.25,57,185.93
2411,D6,588.0,0.25,88,185.93
2412,F#6,588.0,0.25,88,185.93
2413,B6,588.0,0.25,88,185.93
2414,F#4,588.0,0.25,54,185.93
2415,B4,588.0,0.25,54,185.93
2416,C#5,588.0,0.25,54,185.93
2417,F#4,588.5,0.25,59,185.93
2418,B4,588.5,0.25,59,185.93
2419,D5,588.5,0.25,59,185.93
2420,B4,589.0,0.25,60,185.93
2421,D5,589.0,0.25,60,185.93
2422,F#5,589.0,0.25,60,185.93
2423,D5,589.5,0.25,84,185.93
2424,F#5,589.5,0.25,84,185.93
2425,B5,589.5,0.25,84,185.93
2426,B4,589.5,0.25,58,185.93
2427,D5,589.5,0.25,58,185.93
2428,F5,589.5,0.25,58,185.93
2429,B4,590.0,0.25,62,185.93
2430,D5,590.0,0.25,62,185.93
2431,F#5,590.0,0.25,62,185.93
2432,B4,590.5,0.25,64,185.93
2433,D5,590.5,0.25,64,185.93
2434,F#5,590.5,0.25,64,185.93
2435,B5,590.5,0.25,64,185.93
2436,D4,591.0,0.25,84,185.93
2437,F#4,591.0,0.25,84,185.93
2438,B4,591.0,0.25,84,185.93
2439,B4,591.0,0.25,60,185.93
2440,D5,591.0,0.25,60,185.93
2441,F#5,591.0,0.25,60,185.93
2442,B-5,591.0,0.25,60,185.93
2443,B4,591.5,0.25,68,185.93
2444,D5,591.5,0.25,68,185.93
2445,F#5,591.5,0.25,68,185.93
2446,B5,591.5,0.25,68,185.93
2447,B4,592.0,0.25,69,185.93
2448,D5,592.0,0.25,69,185.93
2449,F#5,592.0,0.25,69,185.93
2450,B5,592.0,0.25,69,185.93
2451,B4,592.5,0.25,67,185.93
2452,D5,592.5,0.25,67,185.93
2453,F#5,592.5,0.25,67,185.93
2454,B-5,592.5,0.25,67,185.93
2455,B4,593.0,0.25,74,185.93
2456,D5,593.0,0.25,74,185.93
2457,F#5,593.0,0.25,74,185.93
2458,B5,593.0,0.25,74,185.93
2459,D4,594.0,0.25,84,185.93
2460,F#4,594.0,0.25,84,185.93
2461,B4,594.0,0.25,84,185.93
2462,B3,594.5,0.25,69,185.93
2463,F#4,594.5,0.25,69,185.93
2464,B4,594.5,0.25,69,185.93
2465,B4,595.5,0.25,84,185.93
2466,D5,595.5,0.25,84,185.93
2467,F#5,595.5,0.25,84,185.93
2468,B5,595.5,0.25,84,185.93
2469,B2,596.0,0.25,69,185.93
2470,F#3,596.0,0.25,69,185.93
2471,B3,596.0,0.25,69,185.93
2472,B3,597.0,3.0,94,185.93
2473,B1,597.5,0.25,72,185.93
2474,F#2,597.5,0.25,72,185.93
2475,B2,597.5,0.25,72,185.93
2476,D3,597.5,0.25,72,185.93
2477,F#3,597.5,0.25,72,185.93
2478,B3,597.5,0.25,72,185.93
2479,B2,599.0,0.25,69,185.93
2480,F#3,599.0,0.25,69,185.93
2481,B3,599.0,0.25,69,185.93
2482,B2,600.125,0.625,63,185.93
2483,F#3,600.25,0.5,63,185.93
2484,B3,600.375,0.375,70,185.93
2485,D4,600.5,0.25,70,185.93
2486,B1,602.0,3.0,75,185.93
2487,B2,602.0,3.0,75,185.93
