,note_name,start_time,duration,velocity,tempo
0,G#2,0.0,1.0,37,197.12
1,G#4,1.0,2.0,59,197.12
2,G#3,1.0,1.0,29,197.12
3,C4,1.0,1.0,29,197.12
4,E-3,1.0,1.0,29,197.12
5,E-4,2.0,1.0,39,197.12
6,E-3,2.0,1.0,25,197.12
7,C4,2.0,1.0,25,197.12
8,G#3,2.0,1.0,25,197.12
9,B-4,3.0,2.0,57,197.12
10,E-2,3.0,1.0,44,197.12
11,E-4,4.0,1.0,30,197.12
12,G#4,4.0,1.0,30,197.12
13,E-3,4.0,1.0,20,197.12
14,C4,4.0,1.0,20,197.12
15,G#3,4.0,1.0,20,197.12
16,C5,5.0,1.0,57,197.12
17,E-3,5.0,1.0,27,197.12
18,C4,5.0,1.0,27,197.12
19,G#3,5.0,1.0,27,197.12
20,B-2,6.0,1.0,39,197.12
21,C#5,7.0,2.0,63,197.12
22,C#4,7.0,1.0,31,197.12
23,G3,7.0,1.0,31,197.12
24,E-3,7.0,1.0,31,197.12
25,E-4,8.0,1.0,36,197.12
26,G4,8.0,1.0,36,197.12
27,C#4,8.0,1.0,23,197.12
28,G3,8.0,1.0,23,197.12
29,E-3,8.0,1.0,23,197.12
30,C5,9.0,2.0,62,197.12
31,E-2,9.0,1.0,39,197.12
32,G4,10.0,1.0,32,197.12
33,E-4,10.0,1.0,32,197.12
34,C#4,10.0,1.0,21,197.12
35,G3,10.0,1.0,21,197.12
36,E-3,10.0,1.0,21,197.12
37,B-4,11.0,1.0,51,197.12
38,E-3,11.0,1.0,29,197.12
39,G3,11.0,1.0,29,197.12
40,C#4,11.0,1.0,29,197.12
41,G#2,12.0,1.0,50,197.12
42,C5,13.0,2.0,63,197.12
43,G#3,13.0,1.0,34,197.12
44,C4,13.0,1.0,34,197.12
45,E-3,13.0,1.0,34,197.12
46,G#4,14.0,1.0,40,197.12
47,E-4,14.0,1.0,40,197.12
48,C4,14.0,1.0,29,197.12
49,G#3,14.0,1.0,29,197.12
50,E-3,14.0,1.0,29,197.12
51,C#5,15.0,2.0,68,197.12
52,E-2,15.0,1.0,55,197.12
53,E-4,16.0,1.0,39,197.12
54,G#4,16.0,1.0,39,197.12
55,G#3,16.0,1.0,29,197.12
56,C4,16.0,1.0,29,197.12
57,F#3,16.0,1.0,29,197.12
58,E-5,17.0,1.0,71,197.12
59,G#3,17.0,1.0,35,197.12
60,C4,17.0,1.0,35,197.12
61,F#3,17.0,1.0,35,197.12
62,F5,18.0,0.688,73,197.12
63,G#2,18.0,0.688,57,197.12
64,F3,18.688,1.0,31,197.12
65,G#3,18.75,0.938,37,197.12
66,B3,18.812,0.875,44,197.12
67,G#4,18.875,0.812,51,197.12
68,D5,18.938,0.75,56,197.12
69,G5,19.0,0.688,74,197.12
70,F3,19.688,1.312,33,197.12
71,G#3,19.75,1.25,40,197.12
72,B3,19.812,1.188,45,197.12
73,G#4,19.875,1.125,51,197.12
74,D5,19.938,1.062,56,197.12
75,G#5,20.0,1.0,77,197.12
76,E-5,21.0,3.0,81,197.12
77,G#2,21.0,1.0,63,197.12
78,C5,22.0,1.0,40,197.12
79,G#4,22.0,1.0,40,197.12
80,E-4,22.0,1.0,40,197.12
81,G#3,22.0,1.0,23,197.12
82,C4,22.0,1.0,23,197.12
83,E-3,22.0,1.0,23,197.12
84,C5,23.0,1.0,40,197.12
85,G#4,23.0,1.0,40,197.12
86,E-4,23.0,1.0,40,197.12
87,G#3,23.0,1.0,23,197.12
88,C4,23.0,1.0,23,197.12
89,E-3,23.0,1.0,23,197.12
90,A2,24.0,1.0,37,197.12
91,F#5,25.0,0.5,59,197.12
92,F3,25.0,1.0,29,197.12
93,E-4,25.0,1.0,29,197.12
94,C4,25.0,1.0,29,197.12
95,F5,25.5,0.5,56,197.12
96,E-5,26.0,0.5,59,197.12
97,E-4,26.0,1.0,25,197.12
98,C4,26.0,1.0,25,197.12
99,F3,26.0,1.0,25,197.12
100,F#5,26.5,0.5,56,197.12
101,F5,27.0,1.5,62,197.12
102,B-2,27.0,1.0,37,197.12
103,B-3,28.0,1.0,29,197.12
104,C#4,28.0,1.0,29,197.12
105,F3,28.0,1.0,29,197.12
106,C#5,28.5,0.5,59,197.12
107,B-4,29.0,0.5,55,197.12
108,C#4,29.0,1.0,25,197.12
109,B-3,29.0,1.0,25,197.12
110,F3,29.0,1.0,25,197.12
111,F4,29.5,0.5,50,197.12
112,G2,30.0,1.0,37,197.12
113,E5,31.0,0.5,59,197.12
114,B-3,31.0,1.0,29,197.12
115,C#4,31.0,1.0,29,197.12
116,E-3,31.0,1.0,29,197.12
117,E-5,31.5,0.5,56,197.12
118,C#5,32.0,0.5,59,197.12
119,C#4,32.0,1.0,25,197.12
120,B-3,32.0,1.0,25,197.12
121,E-3,32.0,1.0,25,197.12
122,E5,32.5,0.5,56,197.12
123,E-5,33.0,1.5,62,197.12
124,G#2,33.0,1.0,37,197.12
125,E-3,34.0,1.0,29,197.12
126,C4,34.0,1.0,29,197.12
127,G#3,34.0,1.0,29,197.12
128,C5,34.5,0.5,59,197.12
129,G#4,35.0,0.5,57,197.12
130,C4,35.0,1.0,25,197.12
131,G#3,35.0,1.0,25,197.12
132,E-3,35.0,1.0,25,197.12
133,E-4,35.5,0.5,52,197.12
134,F#2,36.0,1.0,37,197.12
135,G#4,37.0,2.0,59,197.12
136,C4,37.0,1.0,37,197.12
137,E-4,37.0,1.0,37,197.12
138,G#3,37.0,1.0,34,197.12
139,F#3,37.0,1.0,34,197.12
140,C4,38.0,1.0,37,197.12
141,E-4,38.0,1.0,37,197.12
142,F#3,38.0,1.0,28,197.12
143,G#3,38.0,1.0,28,197.12
144,G4,39.0,2.0,63,197.12
145,F2,39.0,1.0,44,197.12
146,C4,40.0,1.0,34,197.12
147,F4,40.0,1.0,34,197.12
148,G#3,40.0,1.0,26,197.12
149,F3,40.0,1.0,26,197.12
150,C4,41.0,1.0,42,197.12
151,F4,41.0,1.0,42,197.12
152,G#4,41.0,1.0,42,197.12
153,F3,41.0,1.0,31,197.12
154,G#3,41.0,1.0,31,197.12
155,B-4,42.0,1.5,68,197.12
156,E2,42.0,1.0,37,197.12
157,D4,43.0,1.0,34,197.12
158,G#4,43.0,1.0,34,197.12
159,E3,43.0,1.0,34,197.12
160,G#3,43.0,1.0,34,197.12
161,B4,43.5,0.5,61,197.12
162,B-4,44.0,0.5,59,197.12
163,D4,44.0,1.0,34,197.12
164,G#4,44.0,1.0,34,197.12
165,E3,44.0,1.0,28,197.12
166,G#3,44.0,1.0,28,197.12
167,B4,44.5,0.5,52,197.12
168,G4,45.0,3.0,59,197.12
169,E-2,45.0,1.0,37,197.12
170,C#4,46.0,1.0,38,197.12
171,E-4,46.0,1.0,38,197.12
172,E-3,46.0,1.0,32,197.12
173,B-3,46.0,1.0,32,197.12
174,C#4,47.0,1.0,37,197.12
175,E-4,47.0,1.0,37,197.12
176,B-3,47.0,1.0,26,197.12
177,E-3,47.0,1.0,26,197.12
178,G#2,48.0,1.0,37,197.12
179,G#4,49.0,2.0,59,197.12
180,G#3,49.0,1.0,29,197.12
181,C4,49.0,1.0,29,197.12
182,E-3,49.0,1.0,29,197.12
183,E-4,50.0,1.0,39,197.12
184,E-3,50.0,1.0,25,197.12
185,C4,50.0,1.0,25,197.12
186,G#3,50.0,1.0,25,197.12
187,B-4,51.0,2.0,58,197.12
188,E-2,51.0,1.0,44,197.12
189,E-4,52.0,1.0,30,197.12
190,G#4,52.0,1.0,30,197.12
191,E-3,52.0,1.0,20,197.12
192,C4,52.0,1.0,20,197.12
193,G#3,52.0,1.0,20,197.12
194,C5,53.0,1.0,57,197.12
195,E-3,53.0,1.0,27,197.12
196,C4,53.0,1.0,27,197.12
197,G#3,53.0,1.0,27,197.12
198,B-2,54.0,1.0,39,197.12
199,C#5,55.0,2.0,63,197.12
200,C#4,55.0,1.0,31,197.12
201,G3,55.0,1.0,31,197.12
202,E-3,55.0,1.0,31,197.12
203,E-4,56.0,1.0,36,197.12
204,G4,56.0,1.0,36,197.12
205,C#4,56.0,1.0,23,197.12
206,G3,56.0,1.0,23,197.12
207,E-3,56.0,1.0,23,197.12
208,C5,57.0,2.0,62,197.12
209,E-2,57.0,1.0,39,197.12
210,G4,58.0,1.0,32,197.12
211,E-4,58.0,1.0,32,197.12
212,C#4,58.0,1.0,21,197.12
213,G3,58.0,1.0,21,197.12
214,E-3,58.0,1.0,21,197.12
215,B-4,59.0,1.0,51,197.12
216,E-3,59.0,1.0,29,197.12
217,G3,59.0,1.0,29,197.12
218,C#4,59.0,1.0,29,197.12
219,G#2,60.0,1.0,38,197.12
220,C5,61.0,2.0,63,197.12
221,G#3,61.0,1.0,31,197.12
222,C4,61.0,1.0,31,197.12
223,E-3,61.0,1.0,31,197.12
224,G#4,62.0,1.0,40,197.12
225,E-4,62.0,1.0,40,197.12
226,C4,62.0,1.0,27,197.12
227,G#3,62.0,1.0,27,197.12
228,E-3,62.0,1.0,27,197.12
229,C#5,63.0,2.0,68,197.12
230,E-2,63.0,1.0,55,197.12
231,E-4,64.0,1.0,39,197.12
232,G#4,64.0,1.0,39,197.12
233,G#3,64.0,1.0,29,197.12
234,C4,64.0,1.0,29,197.12
235,F#3,64.0,1.0,29,197.12
236,E-5,65.0,1.0,71,197.12
237,G#3,65.0,1.0,35,197.12
238,C4,65.0,1.0,35,197.12
239,F#3,65.0,1.0,35,197.12
240,F5,66.0,0.688,73,197.12
241,G#2,66.0,0.688,56,197.12
242,F3,66.688,1.0,29,197.12
243,G#3,66.75,0.938,36,197.12
244,B3,66.812,0.875,44,197.12
245,G#4,66.875,0.812,48,197.12
246,D5,66.938,0.75,56,197.12
247,G5,67.0,0.688,74,197.12
248,F3,67.688,1.312,33,197.12
249,G#3,67.75,1.25,39,197.12
250,B3,67.812,1.188,45,197.12
251,G#4,67.875,1.125,48,197.12
252,D5,67.938,1.062,55,197.12
253,G#5,68.0,1.0,77,197.12
254,E-5,69.0,3.0,81,197.12
255,G#2,69.0,1.0,59,197.12
256,E-4,70.0,1.0,40,197.12
257,G#4,70.0,1.0,40,197.12
258,C5,70.0,1.0,40,197.12
259,G#3,70.0,1.0,23,197.12
260,C4,70.0,1.0,23,197.12
261,E-3,70.0,1.0,23,197.12
262,E-4,71.0,1.0,40,197.12
263,G#4,71.0,1.0,40,197.12
264,C5,71.0,1.0,40,197.12
265,G#3,71.0,1.0,23,197.12
266,C4,71.0,1.0,23,197.12
267,E-3,71.0,1.0,23,197.12
268,A2,72.0,1.0,37,197.12
269,F#5,73.0,0.5,59,197.12
270,F3,73.0,1.0,33,197.12
271,E-4,73.0,1.0,33,197.12
272,C4,73.0,1.0,33,197.12
273,F5,73.5,0.5,56,197.12
274,E-5,74.0,0.5,59,197.12
275,E-4,74.0,1.0,28,197.12
276,C4,74.0,1.0,28,197.12
277,F3,74.0,1.0,28,197.12
278,F#5,74.5,0.5,56,197.12
279,F5,75.0,1.5,62,197.12
280,B-2,75.0,1.0,37,197.12
281,B-3,76.0,1.0,33,197.12
282,C#4,76.0,1.0,33,197.12
283,F3,76.0,1.0,33,197.12
284,C#5,76.5,0.5,59,197.12
285,B-4,77.0,0.5,55,197.12
286,C#4,77.0,1.0,28,197.12
287,B-3,77.0,1.0,28,197.12
288,F3,77.0,1.0,28,197.12
289,F4,77.5,0.5,50,197.12
290,B2,78.0,1.0,42,197.12
291,G#5,79.0,0.5,66,197.12
292,G3,79.0,1.0,34,197.12
293,D4,79.0,1.0,34,197.12
294,F4,79.0,1.0,34,197.12
295,G5,79.5,0.5,61,197.12
296,F5,80.0,0.5,64,197.12
297,F4,80.0,1.0,29,197.12
298,D4,80.0,1.0,29,197.12
299,G3,80.0,1.0,29,197.12
300,G#5,80.5,0.5,60,197.12
301,G5,81.0,1.5,68,197.12
302,C3,81.0,1.0,38,197.12
303,G3,82.0,1.0,34,197.12
304,E4,82.0,1.0,34,197.12
305,C4,82.0,1.0,34,197.12
306,E5,82.5,0.5,61,197.12
307,C5,83.0,0.5,59,197.12
308,E4,83.0,1.0,29,197.12
309,C4,83.0,1.0,29,197.12
310,G3,83.0,1.0,29,197.12
311,G4,83.5,0.5,55,197.12
312,C3,84.0,1.0,44,197.12
313,D5,85.0,2.0,70,197.12
314,G#3,85.0,1.0,39,197.12
315,D4,85.0,1.0,39,197.12
316,C4,85.0,1.0,39,197.12
317,F#4,86.0,1.0,46,197.12
318,C5,86.0,1.0,46,197.12
319,D4,86.0,1.0,33,197.12
320,C4,86.0,1.0,33,197.12
321,G#3,86.0,1.0,33,197.12
322,E5,87.0,2.0,70,197.12
323,C3,87.0,1.0,45,197.12
324,G4,88.0,1.0,36,197.12
325,C5,88.0,1.0,36,197.12
326,G3,88.0,1.0,27,197.12
327,C4,88.0,1.0,27,197.12
328,E4,88.0,1.0,27,197.12
329,G5,89.0,1.0,70,197.12
330,C4,89.0,1.0,36,197.12
331,E4,89.0,1.0,36,197.12
332,G3,89.0,1.0,36,197.12
333,C3,90.0,1.0,46,197.12
334,D5,91.0,2.0,75,197.12
335,F3,91.0,1.0,41,197.12
336,G#3,91.0,1.0,41,197.12
337,D4,91.0,1.0,41,197.12
338,F4,92.0,1.0,42,197.12
339,B4,92.0,1.0,42,197.12
340,F3,92.0,1.0,31,197.12
341,D4,92.0,1.0,31,197.12
342,G#3,92.0,1.0,31,197.12
343,E5,93.0,2.0,73,197.12
344,C3,93.0,1.0,46,197.12
345,G4,94.0,2.0,38,197.12
346,E4,94.0,2.0,38,197.12
347,G3,94.0,1.0,28,197.12
348,C4,94.0,1.0,28,197.12
349,C5,95.0,1.0,61,197.12
350,C4,95.0,1.0,40,197.12
351,G3,95.0,1.0,40,197.12
352,C3,96.0,1.0,45,197.12
353,D5,97.0,2.0,71,197.12
354,C4,97.0,1.0,41,197.12
355,D4,97.0,1.0,41,197.12
356,G#3,97.0,1.0,41,197.12
357,C5,98.0,1.0,48,197.12
358,F#4,98.0,1.0,48,197.12
359,D4,98.0,1.0,36,197.12
360,C4,98.0,1.0,36,197.12
361,G#3,98.0,1.0,36,197.12
362,E5,99.0,2.0,73,197.12
363,C3,99.0,1.0,44,197.12
364,G4,100.0,1.0,46,197.12
365,C5,100.0,1.0,46,197.12
366,C4,100.0,1.0,36,197.12
367,E4,100.0,1.0,36,197.12
368,G3,100.0,1.0,36,197.12
369,G5,101.0,1.0,69,197.12
370,C4,101.0,1.0,40,197.12
371,E4,101.0,1.0,40,197.12
372,G3,101.0,1.0,40,197.12
373,D5,102.0,1.5,73,197.12
374,C3,102.0,1.0,44,197.12
375,F4,103.0,1.0,40,197.12
376,B4,103.0,1.0,40,197.12
377,F3,103.0,1.0,36,197.12
378,D4,103.0,1.0,36,197.12
379,G#3,103.0,1.0,36,197.12
380,E5,103.5,0.5,70,197.12
381,D5,104.0,0.5,64,197.12
382,F4,104.0,1.0,44,197.12
383,B4,104.0,1.0,44,197.12
384,D4,104.0,1.0,33,197.12
385,G#3,104.0,1.0,33,197.12
386,F3,104.0,1.0,33,197.12
387,E5,104.5,0.5,60,197.12
388,C5,105.0,1.5,66,197.12
389,C3,105.0,1.0,44,197.12
390,C4,106.0,1.0,31,197.12
391,E4,106.0,1.0,31,197.12
392,G3,106.0,1.0,31,197.12
393,E5,106.5,0.5,55,197.12
394,E-5,107.0,0.5,58,197.12
395,E5,107.5,0.5,56,197.12
396,C5,108.0,1.5,66,197.12
397,C3,108.0,1.0,44,197.12
398,G3,109.0,1.0,31,197.12
399,E4,109.0,1.0,31,197.12
400,C4,109.0,1.0,31,197.12
401,E5,109.5,0.5,55,197.12
402,E-5,110.0,0.5,58,197.12
403,E5,110.5,0.5,56,197.12
404,C5,111.0,0.5,66,197.12
405,C3,111.0,1.0,44,197.12
406,E5,111.5,0.5,55,197.12
407,E-5,112.0,0.5,58,197.12
408,C4,112.0,1.0,31,197.12
409,E4,112.0,1.0,31,197.12
410,G3,112.0,1.0,31,197.12
411,E5,112.5,0.5,55,197.12
412,C5,113.0,0.5,62,197.12
413,E5,113.5,0.5,56,197.12
414,E-5,114.0,0.5,59,197.12
415,E5,114.5,0.5,55,197.12
416,C5,115.0,0.5,63,197.12
417,E5,115.5,0.5,55,197.12
418,E-5,116.0,0.5,58,197.12
419,E5,116.5,0.5,56,197.12
420,C#5,117.0,0.5,59,197.12
421,B-3,117.0,1.0,44,197.12
422,F5,117.5,0.5,55,197.12
423,E5,118.0,0.5,64,197.12
424,C#4,118.0,1.0,35,197.12
425,F4,118.0,1.0,35,197.12
426,F5,118.5,0.5,56,197.12
427,C#5,119.0,0.5,60,197.12
428,C#4,119.0,1.0,36,197.12
429,F4,119.0,1.0,36,197.12
430,F5,119.5,0.5,58,197.12
431,E5,120.0,0.5,62,197.12
432,G#3,120.0,1.0,46,197.12
433,F5,120.5,0.5,58,197.12
434,C#5,120.977,0.5,68,197.12
435,F4,121.0,1.0,35,197.12
436,C#4,121.0,1.0,35,197.12
437,B-3,121.0,1.0,35,197.12
438,F5,121.5,0.5,60,197.12
439,E5,122.0,0.5,63,197.12
440,F4,122.0,1.0,36,197.12
441,C#4,122.0,1.0,36,197.12
442,B-3,122.0,1.0,36,197.12
443,F5,122.5,0.5,62,197.12
444,B4,123.0,3.0,67,197.12
445,G3,123.0,1.0,49,197.12
446,F5,123.5,0.5,62,197.12
447,E5,123.977,0.5,72,197.12
448,D4,124.0,1.0,37,197.12
449,B3,124.0,1.0,37,197.12
450,F4,124.0,1.0,37,197.12
451,F5,124.5,0.5,63,197.12
452,G#5,125.0,0.5,75,197.12
453,F4,125.0,1.0,38,197.12
454,D4,125.0,1.0,38,197.12
455,B3,125.0,1.0,38,197.12
456,G5,125.5,0.5,71,197.12
457,E-5,126.0,1.5,82,197.12
458,C3,126.0,1.0,55,197.12
459,G4,127.0,1.0,44,197.12
460,C4,127.0,1.0,44,197.12
461,G3,127.0,1.0,44,197.12
462,E5,127.5,0.5,70,197.12
463,G5,128.0,0.5,72,197.12
464,C4,128.0,1.0,49,197.12
465,G3,128.0,1.0,49,197.12
466,G4,128.0,1.0,49,197.12
467,C6,128.5,0.5,68,197.12
468,A4,129.0,3.0,67,197.12
469,F3,129.0,1.0,49,197.12
470,E-5,129.5,0.5,62,197.12
471,D5,130.0,0.5,72,197.12
472,F4,130.0,1.0,37,197.12
473,C4,130.0,1.0,37,197.12
474,A3,130.0,1.0,37,197.12
475,E-5,130.5,0.5,63,197.12
476,F#5,131.0,0.5,69,197.12
477,F4,131.0,1.0,38,197.12
478,C4,131.0,1.0,38,197.12
479,A3,131.0,1.0,38,197.12
480,F5,131.5,0.5,66,197.12
481,C5,132.0,1.5,71,197.12
482,B-2,132.0,1.0,52,197.12
483,C#4,133.0,1.0,39,197.12
484,B-3,133.0,1.0,39,197.12
485,F4,133.0,1.0,39,197.12
486,C#5,133.5,0.5,69,197.12
487,F5,134.0,0.5,68,197.12
488,C#4,134.0,1.0,44,197.12
489,B-3,134.0,1.0,44,197.12
490,F4,134.0,1.0,44,197.12
491,B-5,134.5,0.5,64,197.12
492,A4,135.0,1.5,72,197.12
493,C#3,135.0,1.0,48,197.12
494,F4,136.0,1.0,39,197.12
495,B-3,136.0,1.0,39,197.12
496,C#4,136.0,1.0,39,197.12
497,B-4,136.5,0.5,67,197.12
498,C#5,137.0,0.5,70,197.12
499,F4,137.0,1.0,39,197.12
500,B-3,137.0,1.0,39,197.12
501,C#4,137.0,1.0,39,197.12
502,G#5,137.5,0.5,66,197.12
503,G5,138.0,0.5,66,197.12
504,E-3,138.0,1.0,48,197.12
505,F5,138.5,0.5,60,197.12
506,E-5,139.0,0.5,61,197.12
507,C#4,139.0,1.0,36,197.12
508,E-4,139.0,1.0,36,197.12
509,B-3,139.0,1.0,36,197.12
510,D5,139.5,0.5,56,197.12
511,F5,140.0,0.5,59,197.12
512,C#4,140.0,1.0,37,197.12
513,E-4,140.0,1.0,37,197.12
514,B-3,140.0,1.0,37,197.12
515,E-5,140.5,0.5,56,197.12
516,C#5,141.0,0.5,59,197.12
517,B-3,141.0,1.0,45,197.12
518,F5,141.5,0.5,55,197.12
519,E5,142.0,0.5,64,197.12
520,F4,142.0,1.0,36,197.12
521,C#4,142.0,1.0,36,197.12
522,F5,142.5,0.5,56,197.12
523,C#5,143.0,0.5,60,197.12
524,C#4,143.0,1.0,37,197.12
525,F4,143.0,1.0,37,197.12
526,F5,143.5,0.5,58,197.12
527,E5,144.0,0.5,62,197.12
528,G#3,144.0,1.0,48,197.12
529,F5,144.5,0.5,58,197.12
530,C#5,144.977,0.5,68,197.12
531,C#4,145.0,1.0,37,197.12
532,B-3,145.0,1.0,37,197.12
533,F4,145.0,1.0,37,197.12
534,F5,145.5,0.5,60,197.12
535,E5,146.0,0.5,63,197.12
536,C#4,146.0,1.0,38,197.12
537,B-3,146.0,1.0,38,197.12
538,F4,146.0,1.0,38,197.12
539,F5,146.5,0.5,62,197.12
540,B4,147.0,3.0,67,197.12
541,G3,147.0,1.0,52,197.12
542,F5,147.5,0.5,62,197.12
543,E5,147.977,0.5,72,197.12
544,F4,148.0,1.0,40,197.12
545,B3,148.0,1.0,40,197.12
546,D4,148.0,1.0,40,197.12
547,F5,148.5,0.5,63,197.12
548,G#5,149.0,0.5,75,197.12
549,D4,149.0,1.0,41,197.12
550,B3,149.0,1.0,41,197.12
551,F4,149.0,1.0,41,197.12
552,G5,149.5,0.5,71,197.12
553,E-5,150.0,1.5,82,197.12
554,C3,150.0,1.0,58,197.12
555,C4,151.0,1.0,49,197.12
556,G3,151.0,1.0,49,197.12
557,G4,151.0,1.0,49,197.12
558,E5,151.5,0.5,69,197.12
559,G5,152.0,0.5,72,197.12
560,G4,152.0,1.0,49,197.12
561,C4,152.0,1.0,49,197.12
562,G3,152.0,1.0,49,197.12
563,C6,152.5,0.5,69,197.12
564,A4,153.0,3.0,67,197.12
565,F3,153.0,1.0,49,197.12
566,E-5,153.5,0.5,62,197.12
567,D5,154.0,0.5,72,197.12
568,C4,154.0,1.0,37,197.12
569,A3,154.0,1.0,37,197.12
570,F4,154.0,1.0,37,197.12
571,E-5,154.5,0.5,63,197.12
572,F#5,155.0,0.5,69,197.12
573,F4,155.0,1.0,38,197.12
574,C4,155.0,1.0,38,197.12
575,A3,155.0,1.0,38,197.12
576,F5,155.5,0.5,66,197.12
577,C5,156.0,1.5,74,197.12
578,B-2,156.0,1.0,52,197.12
579,C#4,157.0,1.0,39,197.12
580,B-3,157.0,1.0,39,197.12
581,F4,157.0,1.0,39,197.12
582,C#5,157.5,0.5,67,197.12
583,F5,158.0,0.5,70,197.12
584,C#4,158.0,1.0,44,197.12
585,B-3,158.0,1.0,44,197.12
586,F4,158.0,1.0,44,197.12
587,B-5,158.5,0.5,64,197.12
588,A4,159.0,1.5,68,197.12
589,C#3,159.0,1.0,48,197.12
590,F4,160.0,1.0,39,197.12
591,B-3,160.0,1.0,39,197.12
592,C#4,160.0,1.0,39,197.12
593,B-4,160.5,0.5,60,197.12
594,C5,161.0,0.5,62,197.12
595,C#4,161.0,1.0,39,197.12
596,B-3,161.0,1.0,39,197.12
597,F4,161.0,1.0,39,197.12
598,C#5,161.5,0.5,59,197.12
599,F#4,162.0,1.5,63,197.12
600,E-3,162.0,1.0,45,197.12
601,C#4,163.0,1.0,37,197.12
602,B-3,163.0,1.0,37,197.12
603,E-4,163.0,1.0,37,197.12
604,G4,163.5,0.5,57,197.12
605,A4,164.0,0.5,59,197.12
606,E-4,164.0,1.0,37,197.12
607,B-3,164.0,1.0,37,197.12
608,C#4,164.0,1.0,37,197.12
609,B-4,164.5,0.5,56,197.12
610,G#2,165.0,1.0,37,197.12
611,G#4,166.0,2.0,59,197.12
612,E-3,166.0,1.0,29,197.12
613,G#3,166.0,1.0,29,197.12
614,C4,166.0,1.0,29,197.12
615,E-4,167.0,1.0,39,197.12
616,E-3,167.0,1.0,25,197.12
617,C4,167.0,1.0,25,197.12
618,G#3,167.0,1.0,25,197.12
619,B-4,168.0,2.0,59,197.12
620,E-2,168.0,1.0,44,197.12
621,E-4,169.0,1.0,30,197.12
622,G#4,169.0,1.0,30,197.12
623,E-3,169.0,1.0,20,197.12
624,G#3,169.0,1.0,20,197.12
625,C4,169.0,1.0,20,197.12
626,C5,170.0,1.0,59,197.12
627,E-3,170.0,1.0,27,197.12
628,G#3,170.0,1.0,27,197.12
629,C4,170.0,1.0,27,197.12
630,B-2,171.0,1.0,39,197.12
631,C#5,172.0,2.0,63,197.12
632,E-3,172.0,1.0,31,197.12
633,C#4,172.0,1.0,31,197.12
634,G3,172.0,1.0,31,197.12
635,E-4,173.0,1.0,36,197.12
636,G4,173.0,1.0,36,197.12
637,E-3,173.0,1.0,23,197.12
638,C#4,173.0,1.0,23,197.12
639,G3,173.0,1.0,23,197.12
640,C5,174.0,2.0,62,197.12
641,E-2,174.0,1.0,39,197.12
642,G4,175.0,1.0,32,197.12
643,E-4,175.0,1.0,32,197.12
644,C#4,175.0,1.0,21,197.12
645,E-3,175.0,1.0,21,197.12
646,G3,175.0,1.0,21,197.12
647,B-4,176.0,1.0,51,197.12
648,C#4,176.0,1.0,29,197.12
649,E-3,176.0,1.0,29,197.12
650,G3,176.0,1.0,29,197.12
651,G#2,177.0,1.0,51,197.12
652,C5,178.0,2.0,63,197.12
653,E-3,178.0,1.0,34,197.12
654,G#3,178.0,1.0,34,197.12
655,C4,178.0,1.0,34,197.12
656,G#4,179.0,1.0,40,197.12
657,E-4,179.0,1.0,40,197.12
658,E-3,179.0,1.0,29,197.12
659,C4,179.0,1.0,29,197.12
660,G#3,179.0,1.0,29,197.12
661,C#5,180.0,2.0,68,197.12
662,E-2,180.0,1.0,59,197.12
663,E-4,181.0,1.0,39,197.12
664,G#4,181.0,1.0,39,197.12
665,F#3,181.0,1.0,29,197.12
666,G#3,181.0,1.0,29,197.12
667,C4,181.0,1.0,29,197.12
668,E-5,182.0,1.0,71,197.12
669,F#3,182.0,1.0,35,197.12
670,G#3,182.0,1.0,35,197.12
671,C4,182.0,1.0,35,197.12
672,F5,183.0,0.688,73,197.12
673,G#2,183.0,0.688,52,197.12
674,F3,183.688,1.0,31,197.12
675,G#3,183.75,0.938,37,197.12
676,B3,183.812,0.875,44,197.12
677,G#4,183.875,0.812,51,197.12
678,D5,183.938,0.75,56,197.12
679,G5,184.0,0.688,74,197.12
680,F3,184.688,1.312,33,197.12
681,G#3,184.75,1.25,40,197.12
682,B3,184.812,1.188,45,197.12
683,G#4,184.875,1.125,51,197.12
684,D5,184.938,1.062,56,197.12
685,G#5,185.0,1.0,77,197.12
686,E-5,186.0,3.0,81,197.12
687,G#2,186.0,1.0,57,197.12
688,E-4,187.0,1.0,40,197.12
689,G#4,187.0,1.0,40,197.12
690,C5,187.0,1.0,40,197.12
691,E-3,187.0,1.0,23,197.12
692,G#3,187.0,1.0,23,197.12
693,C4,187.0,1.0,23,197.12
694,E-4,188.0,1.0,40,197.12
695,G#4,188.0,1.0,40,197.12
696,C5,188.0,1.0,40,197.12
697,E-3,188.0,1.0,23,197.12
698,G#3,188.0,1.0,23,197.12
699,C4,188.0,1.0,23,197.12
700,A2,189.0,1.0,37,197.12
701,F#5,190.0,0.5,59,197.12
702,F3,190.0,1.0,33,197.12
703,C4,190.0,1.0,33,197.12
704,E-4,190.0,1.0,33,197.12
705,F5,190.5,0.5,56,197.12
706,E-5,191.0,0.5,59,197.12
707,F3,191.0,1.0,28,197.12
708,E-4,191.0,1.0,28,197.12
709,C4,191.0,1.0,28,197.12
710,F#5,191.5,0.5,56,197.12
711,F5,192.0,1.5,62,197.12
712,B-2,192.0,1.0,37,197.12
713,F3,193.0,1.0,33,197.12
714,B-3,193.0,1.0,33,197.12
715,C#4,193.0,1.0,33,197.12
716,C#5,193.5,0.5,59,197.12
717,B-4,194.0,0.5,55,197.12
718,F3,194.0,1.0,28,197.12
719,C#4,194.0,1.0,28,197.12
720,B-3,194.0,1.0,28,197.12
721,F4,194.5,0.5,50,197.12
722,G2,195.0,1.0,37,197.12
723,E5,196.0,0.5,59,197.12
724,E-3,196.0,1.0,33,197.12
725,B-3,196.0,1.0,33,197.12
726,C#4,196.0,1.0,33,197.12
727,E-5,196.5,0.5,56,197.12
728,C#5,197.0,0.5,59,197.12
729,E-3,197.0,1.0,28,197.12
730,C#4,197.0,1.0,28,197.12
731,B-3,197.0,1.0,28,197.12
732,E5,197.5,0.5,56,197.12
733,E-5,198.0,1.5,62,197.12
734,G#2,198.0,1.0,37,197.12
735,E-3,199.0,1.0,33,197.12
736,G#3,199.0,1.0,33,197.12
737,C4,199.0,1.0,33,197.12
738,C5,199.5,0.5,59,197.12
739,G#4,200.0,0.5,57,197.12
740,E-3,200.0,1.0,28,197.12
741,C4,200.0,1.0,28,197.12
742,G#3,200.0,1.0,28,197.12
743,E-4,200.5,0.5,52,197.12
744,F#2,201.0,1.0,37,197.12
745,G#4,202.0,2.0,59,197.12
746,C4,202.0,1.0,37,197.12
747,E-4,202.0,1.0,37,197.12
748,F#3,202.0,1.0,34,197.12
749,G#3,202.0,1.0,34,197.12
750,C4,203.0,1.0,37,197.12
751,E-4,203.0,1.0,37,197.12
752,G#3,203.0,1.0,28,197.12
753,F#3,203.0,1.0,28,197.12
754,G4,204.0,2.0,63,197.12
755,F2,204.0,1.0,44,197.12
756,C4,205.0,1.0,34,197.12
757,F4,205.0,1.0,34,197.12
758,F3,205.0,1.0,26,197.12
759,G#3,205.0,1.0,26,197.12
760,C4,206.0,1.0,42,197.12
761,F4,206.0,1.0,42,197.12
762,G#4,206.0,1.0,42,197.12
763,F3,206.0,1.0,31,197.12
764,G#3,206.0,1.0,31,197.12
765,B-4,207.0,1.5,68,197.12
766,E2,207.0,1.0,37,197.12
767,D4,208.0,1.0,34,197.12
768,G#4,208.0,1.0,34,197.12
769,E3,208.0,1.0,34,197.12
770,G#3,208.0,1.0,34,197.12
771,B4,208.5,0.5,61,197.12
772,B-4,209.0,0.5,59,197.12
773,D4,209.0,1.0,34,197.12
774,G#4,209.0,1.0,34,197.12
775,E3,209.0,1.0,28,197.12
776,G#3,209.0,1.0,28,197.12
777,B4,209.5,0.5,52,197.12
778,G4,210.0,3.0,59,197.12
779,E-2,210.0,1.0,37,197.12
780,C#4,211.0,1.0,38,197.12
781,E-4,211.0,1.0,38,197.12
782,E-3,211.0,1.0,32,197.12
783,B-3,211.0,1.0,32,197.12
784,C#4,212.0,1.0,37,197.12
785,E-4,212.0,1.0,37,197.12
786,B-3,212.0,1.0,26,197.12
787,E-3,212.0,1.0,26,197.12
788,G#2,213.0,1.0,37,197.12
789,G#4,214.0,2.0,59,197.12
790,E-3,214.0,1.0,29,197.12
791,G#3,214.0,1.0,29,197.12
792,C4,214.0,1.0,29,197.12
793,E-4,215.0,1.0,39,197.12
794,E-3,215.0,1.0,25,197.12
795,C4,215.0,1.0,25,197.12
796,G#3,215.0,1.0,25,197.12
797,B-4,216.0,2.0,59,197.12
798,E-2,216.0,1.0,44,197.12
799,E-4,217.0,1.0,30,197.12
800,G#4,217.0,1.0,30,197.12
801,E-3,217.0,1.0,20,197.12
802,G#3,217.0,1.0,20,197.12
803,C4,217.0,1.0,20,197.12
804,C5,218.0,1.0,56,197.12
805,E-3,218.0,1.0,27,197.12
806,G#3,218.0,1.0,27,197.12
807,C4,218.0,1.0,27,197.12
808,B-2,219.0,1.0,39,197.12
809,C#5,220.0,2.0,63,197.12
810,E-3,220.0,1.0,31,197.12
811,C#4,220.0,1.0,31,197.12
812,G3,220.0,1.0,31,197.12
813,E-4,221.0,1.0,36,197.12
814,G4,221.0,1.0,36,197.12
815,E-3,221.0,1.0,23,197.12
816,C#4,221.0,1.0,23,197.12
817,G3,221.0,1.0,23,197.12
818,C5,222.0,2.0,62,197.12
819,E-2,222.0,1.0,39,197.12
820,G4,223.0,1.0,32,197.12
821,E-4,223.0,1.0,32,197.12
822,C#4,223.0,1.0,21,197.12
823,E-3,223.0,1.0,21,197.12
824,G3,223.0,1.0,21,197.12
825,B-4,224.0,1.0,51,197.12
826,C#4,224.0,1.0,29,197.12
827,E-3,224.0,1.0,29,197.12
828,G3,224.0,1.0,29,197.12
829,G#2,225.0,1.0,38,197.12
830,C5,226.0,2.0,63,197.12
831,E-3,226.0,1.0,31,197.12
832,G#3,226.0,1.0,31,197.12
833,C4,226.0,1.0,31,197.12
834,G#4,227.0,1.0,40,197.12
835,E-4,227.0,1.0,40,197.12
836,E-3,227.0,1.0,27,197.12
837,C4,227.0,1.0,27,197.12
838,G#3,227.0,1.0,27,197.12
839,C#5,228.0,2.0,68,197.12
840,E-2,228.0,1.0,55,197.12
841,E-4,229.0,1.0,39,197.12
842,G#4,229.0,1.0,39,197.12
843,F#3,229.0,1.0,29,197.12
844,G#3,229.0,1.0,29,197.12
845,C4,229.0,1.0,29,197.12
846,E-5,230.0,1.0,71,197.12
847,F#3,230.0,1.0,35,197.12
848,G#3,230.0,1.0,35,197.12
849,C4,230.0,1.0,35,197.12
850,F5,231.0,0.688,73,197.12
851,G#2,231.0,0.688,57,197.12
852,F3,231.688,1.0,29,197.12
853,G#3,231.75,0.938,36,197.12
854,B3,231.812,0.875,44,197.12
855,G#4,231.875,0.812,48,197.12
856,D5,231.938,0.75,56,197.12
857,G5,232.0,0.688,74,197.12
858,F3,232.688,1.312,33,197.12
859,G#3,232.75,1.25,39,197.12
860,B3,232.812,1.188,45,197.12
861,G#4,232.875,1.125,48,197.12
862,D5,232.938,1.062,55,197.12
863,G#5,233.0,1.0,77,197.12
864,E-5,234.0,3.0,81,197.12
865,G#2,234.0,1.0,63,197.12
866,E-4,235.0,1.0,40,197.12
867,G#4,235.0,1.0,40,197.12
868,C5,235.0,1.0,40,197.12
869,E-3,235.0,1.0,23,197.12
870,G#3,235.0,1.0,23,197.12
871,C4,235.0,1.0,23,197.12
872,E-4,236.0,1.0,40,197.12
873,G#4,236.0,1.0,40,197.12
874,C5,236.0,1.0,40,197.12
875,E-3,236.0,1.0,23,197.12
876,G#3,236.0,1.0,23,197.12
877,C4,236.0,1.0,23,197.12
878,A2,237.0,1.0,37,197.12
879,F#5,238.0,0.5,59,197.12
880,F3,238.0,1.0,33,197.12
881,C4,238.0,1.0,33,197.12
882,E-4,238.0,1.0,33,197.12
883,F5,238.5,0.5,56,197.12
884,E-5,239.0,0.5,59,197.12
885,F3,239.0,1.0,28,197.12
886,E-4,239.0,1.0,28,197.12
887,C4,239.0,1.0,28,197.12
888,F#5,239.5,0.5,56,197.12
889,F5,240.0,1.5,62,197.12
890,B-2,240.0,1.0,37,197.12
891,F3,241.0,1.0,33,197.12
892,B-3,241.0,1.0,33,197.12
893,C#4,241.0,1.0,33,197.12
894,C#5,241.5,0.5,59,197.12
895,B-4,242.0,0.5,55,197.12
896,F3,242.0,1.0,28,197.12
897,C#4,242.0,1.0,28,197.12
898,B-3,242.0,1.0,28,197.12
899,F4,242.5,0.5,50,197.12
900,B2,243.0,1.0,42,197.12
901,G#5,244.0,0.5,66,197.12
902,F4,244.0,1.0,34,197.12
903,G3,244.0,1.0,34,197.12
904,D4,244.0,1.0,34,197.12
905,G5,244.5,0.5,61,197.12
906,F5,245.0,0.5,64,197.12
907,G3,245.0,1.0,29,197.12
908,F4,245.0,1.0,29,197.12
909,D4,245.0,1.0,29,197.12
910,G#5,245.5,0.5,60,197.12
911,G5,246.0,1.5,68,197.12
912,C3,246.0,1.0,38,197.12
913,G3,247.0,1.0,34,197.12
914,C4,247.0,1.0,34,197.12
915,E4,247.0,1.0,34,197.12
916,E5,247.5,0.5,61,197.12
917,C5,248.0,0.5,59,197.12
918,G3,248.0,1.0,29,197.12
919,E4,248.0,1.0,29,197.12
920,C4,248.0,1.0,29,197.12
921,G4,248.5,0.5,55,197.12
922,C#3,249.0,1.0,45,197.12
923,B-5,250.0,0.5,70,197.12
924,F4,250.0,1.0,36,197.12
925,B-3,250.0,1.0,36,197.12
926,C#4,250.0,1.0,36,197.12
927,G#5,250.5,0.5,64,197.12
928,G5,251.0,0.5,69,197.12
929,B-3,251.0,1.0,31,197.12
930,F4,251.0,1.0,31,197.12
931,C#4,251.0,1.0,31,197.12
932,B-5,251.5,0.5,63,197.12
933,G#5,252.0,1.5,72,197.12
934,D3,252.0,1.0,40,197.12
935,G#3,253.0,1.0,36,197.12
936,B3,253.0,1.0,36,197.12
937,F4,253.0,1.0,36,197.12
938,F5,253.5,0.5,64,197.12
939,B4,254.0,0.5,62,197.12
940,G#3,254.0,1.0,31,197.12
941,F4,254.0,1.0,31,197.12
942,B3,254.0,1.0,31,197.12
943,G#4,254.5,0.5,58,197.12
944,F5,255.0,1.5,64,197.12
945,E-3,255.0,1.0,36,197.12
946,G3,256.0,1.0,32,197.12
947,C#4,256.0,1.0,32,197.12
948,E-4,256.0,1.0,32,197.12
949,C#5,256.5,0.5,58,197.12
950,B-4,257.0,0.5,56,197.12
951,G3,257.0,1.0,27,197.12
952,E-4,257.0,1.0,27,197.12
953,C#4,257.0,1.0,27,197.12
954,G4,257.5,0.5,51,197.12
955,B-4,258.0,1.5,58,197.12
956,G#2,258.0,1.0,31,197.12
957,E-3,259.0,1.0,28,197.12
958,G#3,259.0,1.0,28,197.12
959,C4,259.0,1.0,28,197.12
960,G#4,259.5,0.5,51,197.12
961,E-4,260.0,0.5,49,197.12
962,E-3,260.0,1.0,24,197.12
963,C4,260.0,1.0,24,197.12
964,G#3,260.0,1.0,24,197.12
965,C4,260.5,0.5,46,197.12
966,B3,261.0,1.5,47,197.12
967,G#4,262.0,2.0,51,197.12
968,E3,262.0,2.0,39,197.12
969,B-3,262.5,0.5,44,197.12
970,C#4,263.0,0.5,47,197.12
971,B-3,263.5,0.5,42,197.12
972,G#4,264.0,2.0,51,197.12
973,B3,264.0,3.0,46,197.12
974,E3,264.0,1.0,39,197.12
975,E-3,265.0,2.0,47,197.12
976,F#4,266.0,1.0,51,197.12
977,F#4,267.0,2.0,51,197.12
978,B3,267.0,3.0,47,197.12
979,E-3,267.0,1.0,47,197.12
980,C#3,268.0,2.0,45,197.12
981,E4,269.0,1.0,51,197.12
982,E4,270.0,1.5,51,197.12
983,B3,270.0,3.0,47,197.12
984,C#3,270.0,1.0,45,197.12
985,B2,271.0,2.0,48,197.12
986,E-4,271.5,0.5,46,197.12
987,D4,272.0,0.5,49,197.12
988,E-4,272.5,0.5,47,197.12
989,B3,273.0,1.5,47,197.12
990,G#4,274.0,2.0,51,197.12
991,E3,274.0,2.0,39,197.12
992,B-3,274.5,0.5,44,197.12
993,C#4,275.0,0.5,47,197.12
994,B-3,275.5,0.5,42,197.12
995,G#4,276.0,2.0,51,197.12
996,B3,276.0,3.0,46,197.12
997,E3,276.0,1.0,39,197.12
998,E-3,277.0,2.0,47,197.12
999,F#4,278.0,1.0,51,197.12
1000,F#4,279.0,3.0,51,197.12
1001,B3,279.0,3.0,47,197.12
1002,E-3,279.0,1.0,47,197.12
1003,C#3,280.0,2.0,45,197.12
1004,E5,281.0,1.0,68,197.12
1005,F#4,282.0,2.5,51,197.12
1006,E5,282.0,1.5,68,197.12
1007,B3,282.0,3.0,47,197.12
1008,C#3,282.0,1.0,45,197.12
1009,B2,283.0,2.0,48,197.12
1010,E-5,283.5,0.5,56,197.12
1011,B4,284.0,0.5,59,197.12
1012,F#4,284.5,0.5,55,197.12
1013,B3,285.0,1.5,47,197.12
1014,G#4,286.0,2.0,51,197.12
1015,E3,286.0,2.0,39,197.12
1016,B-3,286.5,0.5,44,197.12
1017,C#4,287.0,0.5,47,197.12
1018,B-3,287.5,0.5,42,197.12
1019,G#4,288.0,2.0,51,197.12
1020,B3,288.0,3.0,46,197.12
1021,E3,288.0,1.0,39,197.12
1022,E-3,289.0,2.0,47,197.12
1023,F#4,290.0,1.0,51,197.12
1024,F#4,291.0,2.0,51,197.12
1025,B3,291.0,3.0,47,197.12
1026,E-3,291.0,1.0,47,197.12
1027,C#3,292.0,2.0,45,197.12
1028,E4,293.0,1.0,51,197.12
1029,E4,294.0,1.5,51,197.12
1030,B3,294.0,3.0,47,197.12
1031,C#3,294.0,1.0,45,197.12
1032,B2,295.0,2.0,48,197.12
1033,E-4,295.5,0.5,46,197.12
1034,D4,296.0,0.5,49,197.12
1035,E-4,296.5,0.5,47,197.12
1036,B3,297.0,1.5,47,197.12
1037,G#4,298.0,2.0,51,197.12
1038,E3,298.0,2.0,39,197.12
1039,B-3,298.5,0.5,44,197.12
1040,C#4,299.0,0.5,47,197.12
1041,B-3,299.5,0.5,42,197.12
1042,G#4,300.0,2.0,51,197.12
1043,B3,300.0,3.0,46,197.12
1044,E3,300.0,1.0,39,197.12
1045,E-3,301.0,2.0,47,197.12
1046,F#4,302.0,1.0,51,197.12
1047,F#4,303.0,2.0,51,197.12
1048,B-3,303.0,3.0,47,197.12
1049,E-3,303.0,1.0,47,197.12
1050,E-3,304.0,2.0,45,197.12
1051,G4,305.0,1.0,63,197.12
1052,G4,306.0,0.5,63,197.12
1053,G#2,306.0,1.0,51,197.12
1054,E-5,306.5,0.5,63,197.12
1055,B4,307.0,0.5,64,197.12
1056,E-3,307.0,1.0,38,197.12
1057,G#3,307.0,1.0,38,197.12
1058,B3,307.0,1.0,38,197.12
1059,B-4,307.5,0.5,61,197.12
1060,G#4,308.0,1.0,62,197.12
1061,A4,309.0,1.5,73,197.12
1062,F#3,309.0,1.0,57,197.12
1063,C#4,310.0,2.0,48,197.12
1064,A3,310.0,2.0,48,197.12
1065,F#4,310.0,2.0,48,197.12
1066,C#5,310.5,0.5,68,197.12
1067,F#5,311.0,0.5,72,197.12
1068,A5,311.5,0.5,68,197.12
1069,C#5,312.0,3.0,64,197.12
1070,E3,312.0,1.0,57,197.12
1071,G#4,312.0,2.0,71,197.12
1072,G#5,312.0,2.0,71,197.12
1073,A3,313.0,2.0,48,197.12
1074,C#4,313.0,2.0,48,197.12
1075,F#4,314.0,1.0,68,197.12
1076,F#5,314.0,1.0,68,197.12
1077,E-3,315.0,1.5,57,197.12
1078,B3,316.0,2.0,52,197.12
1079,F#4,316.0,2.0,52,197.12
1080,A4,316.0,2.0,52,197.12
1081,B4,316.0,2.0,52,197.12
1082,C#3,316.5,0.5,53,197.12
1083,E3,317.0,0.5,58,197.12
1084,E-3,317.5,0.5,53,197.12
1085,C#3,318.0,0.25,56,197.12
1086,C#4,318.0,0.25,65,197.12
1087,F#4,318.0,0.25,65,197.12
1088,A4,318.0,0.25,65,197.12
1089,C#5,318.0,0.25,65,197.12
1090,C3,319.0,0.25,52,197.12
1091,E-4,319.0,0.25,59,197.12
1092,F#4,319.0,0.25,59,197.12
1093,A4,319.0,0.25,59,197.12
1094,E-5,319.0,0.25,59,197.12
1095,B2,320.0,0.25,52,197.12
1096,E4,320.0,0.25,57,197.12
1097,G#4,320.0,0.25,57,197.12
1098,E5,320.0,0.25,57,197.12
1099,F#4,321.0,1.5,63,197.12
1100,B-2,321.0,1.0,52,197.12
1101,C#4,322.0,2.0,41,197.12
1102,E3,322.0,2.0,41,197.12
1103,F#3,322.0,2.0,41,197.12
1104,F4,322.5,0.5,57,197.12
1105,G#4,323.0,0.5,64,197.12
1106,F#4,323.5,0.5,58,197.12
1107,E-5,324.0,1.0,63,197.12
1108,A2,324.0,1.0,50,197.12
1109,C#5,325.0,1.0,61,197.12
1110,E-3,325.0,2.0,36,197.12
1111,F#3,325.0,2.0,36,197.12
1112,B3,325.0,2.0,36,197.12
1113,B4,326.0,1.0,61,197.12
1114,G#2,327.0,1.5,56,197.12
1115,B3,328.0,2.0,53,197.12
1116,E4,328.0,2.0,53,197.12
1117,B4,328.0,2.0,53,197.12
1118,G2,328.477,0.5,51,197.12
1119,A2,329.0,0.5,57,197.12
1120,G#2,329.477,0.5,52,197.12
1121,C#3,330.0,1.0,56,197.12
1122,B2,331.0,1.0,53,197.12
1123,G#3,331.0,2.0,50,197.12
1124,E4,331.0,2.0,50,197.12
1125,G#4,331.0,2.0,50,197.12
1126,E2,332.0,1.0,53,197.12
1127,A4,333.0,1.5,73,197.12
1128,F#3,333.0,1.0,57,197.12
1129,C#4,334.0,2.0,48,197.12
1130,A3,334.0,2.0,48,197.12
1131,F#4,334.0,2.0,48,197.12
1132,C#5,334.5,0.5,68,197.12
1133,F#5,335.0,0.5,72,197.12
1134,A5,335.5,0.5,68,197.12
1135,C#5,336.0,3.0,64,197.12
1136,E3,336.0,1.0,57,197.12
1137,G#4,336.0,2.0,71,197.12
1138,G#5,336.0,2.0,71,197.12
1139,A3,337.0,2.0,48,197.12
1140,C#4,337.0,2.0,48,197.12
1141,F#4,338.0,1.0,68,197.12
1142,F#5,338.0,1.0,68,197.12
1143,E-3,339.0,1.5,57,197.12
1144,B3,340.0,2.0,52,197.12
1145,F#4,340.0,2.0,52,197.12
1146,A4,340.0,2.0,52,197.12
1147,B4,340.0,2.0,52,197.12
1148,C#3,340.5,0.5,53,197.12
1149,E3,341.0,0.5,58,197.12
1150,E-3,341.5,0.5,53,197.12
1151,C#3,342.0,0.25,56,197.12
1152,C#4,342.0,0.25,65,197.12
1153,F#4,342.0,0.25,65,197.12
1154,A4,342.0,0.25,65,197.12
1155,C#5,342.0,0.25,65,197.12
1156,C3,343.0,0.25,52,197.12
1157,E-4,343.0,0.25,59,197.12
1158,F#4,343.0,0.25,59,197.12
1159,A4,343.0,0.25,59,197.12
1160,E-5,343.0,0.25,59,197.12
1161,B2,344.0,0.25,52,197.12
1162,E4,344.0,0.25,57,197.12
1163,G#4,344.0,0.25,57,197.12
1164,E5,344.0,0.25,57,197.12
1165,F#4,345.0,1.5,63,197.12
1166,B-2,345.0,1.0,52,197.12
1167,C#4,346.0,2.0,41,197.12
1168,E3,346.0,2.0,41,197.12
1169,F#3,346.0,2.0,41,197.12
1170,F4,346.5,0.5,57,197.12
1171,G#4,347.0,0.5,64,197.12
1172,F#4,347.5,0.5,58,197.12
1173,E-5,348.0,1.0,63,197.12
1174,A2,348.0,1.0,50,197.12
1175,C#5,349.0,1.0,61,197.12
1176,E-3,349.0,2.0,36,197.12
1177,F#3,349.0,2.0,36,197.12
1178,B3,349.0,2.0,36,197.12
1179,B4,350.0,1.0,61,197.12
1180,G#2,351.0,1.5,56,197.12
1181,B3,352.0,2.0,53,197.12
1182,E4,352.0,2.0,53,197.12
1183,B4,352.0,2.0,53,197.12
1184,G2,352.477,0.5,51,197.12
1185,A2,353.0,0.5,57,197.12
1186,G#2,353.477,0.5,52,197.12
1187,E-3,354.0,0.25,56,197.12
1188,C#3,355.0,0.25,52,197.12
1189,E4,355.0,0.25,57,197.12
1190,F#4,355.0,0.25,57,197.12
1191,B-4,355.0,0.25,57,197.12
1192,B2,356.0,0.25,52,197.12
1193,E-4,356.0,0.25,57,197.12
1194,F#4,356.0,0.25,57,197.12
1195,B4,356.0,0.25,57,197.12
1196,B3,357.0,1.5,47,197.12
1197,G#4,358.0,2.0,51,197.12
1198,E3,358.0,2.0,39,197.12
1199,B-3,358.5,0.5,44,197.12
1200,C#4,359.0,0.5,47,197.12
1201,B-3,359.5,0.5,42,197.12
1202,G#4,360.0,2.0,51,197.12
1203,B3,360.0,3.0,46,197.12
1204,E3,360.0,1.0,39,197.12
1205,E-3,361.0,2.0,47,197.12
1206,F#4,362.0,1.0,51,197.12
1207,F#4,363.0,2.0,51,197.12
1208,B3,363.0,3.0,47,197.12
1209,E-3,363.0,1.0,47,197.12
1210,C#3,364.0,2.0,45,197.12
1211,E4,365.0,1.0,51,197.12
1212,E4,366.0,1.5,51,197.12
1213,B3,366.0,3.0,47,197.12
1214,C#3,366.0,1.0,45,197.12
1215,B2,367.0,2.0,48,197.12
1216,E-4,367.5,0.5,46,197.12
1217,D4,368.0,0.5,49,197.12
1218,E-4,368.5,0.5,47,197.12
1219,B3,369.0,1.5,47,197.12
1220,G#4,370.0,2.0,51,197.12
1221,E3,370.0,2.0,39,197.12
1222,B-3,370.5,0.5,44,197.12
1223,C#4,371.0,0.5,47,197.12
1224,B-3,371.5,0.5,42,197.12
1225,G#4,372.0,2.0,51,197.12
1226,B3,372.0,3.0,46,197.12
1227,E3,372.0,1.0,39,197.12
1228,E-3,373.0,2.0,47,197.12
1229,F#4,374.0,1.0,51,197.12
1230,F#4,375.0,3.0,51,197.12
1231,B3,375.0,3.0,47,197.12
1232,E-3,375.0,1.0,47,197.12
1233,C#3,376.0,2.0,45,197.12
1234,E5,377.0,1.0,68,197.12
1235,F#4,378.0,2.5,51,197.12
1236,E5,378.0,1.5,68,197.12
1237,B3,378.0,3.0,47,197.12
1238,C#3,378.0,1.0,45,197.12
1239,B2,379.0,2.0,48,197.12
1240,E-5,379.5,0.5,50,197.12
1241,B4,380.0,0.5,55,197.12
1242,F#4,380.5,0.5,47,197.12
1243,B3,381.0,1.5,47,197.12
1244,G#4,382.0,2.0,51,197.12
1245,E3,382.0,2.0,39,197.12
1246,B-3,382.5,0.5,44,197.12
1247,C#4,383.0,0.5,47,197.12
1248,B-3,383.5,0.5,42,197.12
1249,G#4,384.0,2.0,51,197.12
1250,B3,384.0,3.0,46,197.12
1251,E3,384.0,1.0,39,197.12
1252,E-3,385.0,2.0,47,197.12
1253,F#4,386.0,1.0,51,197.12
1254,F#4,387.0,2.0,51,197.12
1255,B3,387.0,3.0,47,197.12
1256,E-3,387.0,1.0,47,197.12
1257,C#3,388.0,2.0,45,197.12
1258,E4,389.0,1.0,51,197.12
1259,E4,390.0,1.5,51,197.12
1260,B3,390.0,3.0,47,197.12
1261,C#3,390.0,1.0,45,197.12
1262,B2,391.0,2.0,48,197.12
1263,E-4,391.5,0.5,46,197.12
1264,D4,392.0,0.5,49,197.12
1265,E-4,392.5,0.5,47,197.12
1266,B3,393.0,1.5,47,197.12
1267,G#4,394.0,2.0,51,197.12
1268,E3,394.0,2.0,39,197.12
1269,B-3,394.5,0.5,44,197.12
1270,C#4,395.0,0.5,47,197.12
1271,B-3,395.5,0.5,42,197.12
1272,G#4,396.0,2.0,51,197.12
1273,B3,396.0,3.0,46,197.12
1274,E3,396.0,1.0,39,197.12
1275,E-3,397.0,2.0,47,197.12
1276,F#4,398.0,1.0,56,197.12
1277,F#4,399.0,2.0,56,197.12
1278,E-3,399.0,1.0,47,197.12
1279,B-3,399.0,3.0,50,197.12
1280,C#4,399.0,3.0,50,197.12
1281,E-3,400.0,2.0,48,197.12
1282,G4,401.0,1.0,59,197.12
1283,G4,402.0,2.0,59,197.12
1284,E-3,402.0,1.0,48,197.12
1285,B3,402.0,3.0,52,197.12
1286,E-4,402.0,3.0,52,197.12
1287,E-3,403.0,2.0,49,197.12
1288,G#4,404.0,1.0,59,197.12
1289,E-3,405.0,1.0,49,197.12
1290,G3,405.0,3.0,49,197.12
1291,C#4,405.0,3.0,49,197.12
1292,E-4,405.0,3.0,49,197.12
1293,E-3,406.0,2.0,49,197.12
1294,B-4,406.5,0.5,55,197.12
1295,B4,407.0,0.5,59,197.12
1296,B-4,407.5,0.5,56,197.12
1297,C#5,408.0,2.0,60,197.12
1298,E-3,408.0,1.0,49,197.12
1299,G#3,408.0,3.0,43,197.12
1300,B3,408.0,3.0,43,197.12
1301,E-4,408.0,3.0,43,197.12
1302,E-3,409.0,2.0,49,197.12
1303,B4,410.0,1.0,56,197.12
1304,B3,411.0,3.0,46,197.12
1305,E-4,411.0,3.0,46,197.12
1306,G#4,411.0,3.0,46,197.12
1307,E-3,412.0,2.0,51,197.12
1308,D5,412.5,0.5,57,197.12
1309,E5,413.0,0.5,61,197.12
1310,D5,413.5,0.5,58,197.12
1311,E5,414.0,2.0,63,197.12
1312,B-3,414.0,3.0,46,197.12
1313,C#4,414.0,3.0,46,197.12
1314,G4,414.0,3.0,46,197.12
1315,E-3,415.0,2.0,51,197.12
1316,E-5,416.0,1.0,58,197.12
1317,G3,417.0,3.0,43,197.12
1318,C#4,417.0,3.0,43,197.12
1319,E-4,417.0,3.0,43,197.12
1320,E-3,418.0,2.0,49,197.12
1321,B-4,418.5,0.5,55,197.12
1322,B4,419.0,0.5,59,197.12
1323,B-4,419.5,0.5,56,197.12
1324,C#5,420.0,2.0,60,197.12
1325,E-3,420.0,1.0,49,197.12
1326,G#3,420.0,3.0,43,197.12
1327,B3,420.0,3.0,43,197.12
1328,E-4,420.0,3.0,43,197.12
1329,E-3,421.0,2.0,49,197.12
1330,B4,422.0,1.0,56,197.12
1331,B3,423.0,3.0,46,197.12
1332,E-4,423.0,3.0,46,197.12
1333,G#4,423.0,3.0,46,197.12
1334,E-3,424.0,2.0,51,197.12
1335,D5,424.5,0.5,57,197.12
1336,E5,425.0,0.5,61,197.12
1337,D5,425.5,0.5,58,197.12
1338,E5,426.0,1.5,67,197.12
1339,B-3,426.0,3.0,46,197.12
1340,C#4,426.0,3.0,46,197.12
1341,G4,426.0,3.0,46,197.12
1342,E-3,427.0,2.0,51,197.12
1343,E-5,427.5,0.5,58,197.12
1344,D5,428.0,0.5,62,197.12
1345,E-5,428.5,0.5,58,197.12
1346,E5,429.0,1.5,67,197.12
1347,B-3,429.0,3.0,46,197.12
1348,C#4,429.0,3.0,46,197.12
1349,G4,429.0,3.0,46,197.12
1350,E-3,430.0,2.0,51,197.12
1351,E-5,430.5,0.5,58,197.12
1352,D5,431.0,0.5,62,197.12
1353,E-5,431.5,0.5,58,197.12
1354,B-5,432.0,0.5,70,197.12
1355,G#5,432.5,0.5,69,197.12
1356,G5,433.0,0.5,68,197.12
1357,E5,433.5,0.5,67,197.12
1358,E-5,434.0,0.5,64,197.12
1359,C#5,434.5,0.5,62,197.12
1360,E5,435.0,0.5,68,197.12
1361,E-5,435.5,0.5,67,197.12
1362,C#5,436.0,0.5,66,197.12
1363,B4,436.5,0.5,64,197.12
1364,B-4,437.0,0.5,64,197.12
1365,G#4,437.5,0.5,63,197.12
1366,G4,438.0,0.5,60,197.12
1367,G#4,438.5,0.5,60,197.12
1368,A4,439.0,0.5,59,197.12
1369,B-4,439.5,0.5,58,197.12
1370,B4,440.0,0.5,57,197.12
1371,C5,440.5,0.5,57,197.12
1372,C#5,441.0,0.5,59,197.12
1373,C5,441.5,0.5,53,197.12
1374,E-5,442.0,0.5,58,197.12
1375,C#5,442.5,0.5,56,197.12
1376,C5,443.0,0.5,53,197.12
1377,B-4,443.5,0.5,51,197.12
1378,G#2,444.0,1.0,37,197.12
1379,G#4,445.0,2.0,59,197.12
1380,E-3,445.0,1.0,29,197.12
1381,G#3,445.0,1.0,29,197.12
1382,C4,445.0,1.0,29,197.12
1383,E-4,446.0,1.0,39,197.12
1384,E-3,446.0,1.0,25,197.12
1385,C4,446.0,1.0,25,197.12
1386,G#3,446.0,1.0,25,197.12
1387,B-4,447.0,2.0,59,197.12
1388,E-2,447.0,1.0,44,197.12
1389,E-4,448.0,1.0,30,197.12
1390,G#4,448.0,1.0,30,197.12
1391,E-3,448.0,1.0,20,197.12
1392,G#3,448.0,1.0,20,197.12
1393,C4,448.0,1.0,20,197.12
1394,C5,449.0,1.0,57,197.12
1395,E-3,449.0,1.0,27,197.12
1396,G#3,449.0,1.0,27,197.12
1397,C4,449.0,1.0,27,197.12
1398,B-2,450.0,1.0,39,197.12
1399,C#5,451.0,2.0,63,197.12
1400,E-3,451.0,1.0,31,197.12
1401,C#4,451.0,1.0,31,197.12
1402,G3,451.0,1.0,31,197.12
1403,E-4,452.0,1.0,36,197.12
1404,G4,452.0,1.0,36,197.12
1405,E-3,452.0,1.0,23,197.12
1406,C#4,452.0,1.0,23,197.12
1407,G3,452.0,1.0,23,197.12
1408,C5,453.0,2.0,62,197.12
1409,E-2,453.0,1.0,39,197.12
1410,G4,454.0,1.0,32,197.12
1411,E-4,454.0,1.0,32,197.12
1412,C#4,454.0,1.0,21,197.12
1413,E-3,454.0,1.0,21,197.12
1414,G3,454.0,1.0,21,197.12
1415,B-4,455.0,1.0,51,197.12
1416,C#4,455.0,1.0,29,197.12
1417,E-3,455.0,1.0,29,197.12
1418,G3,455.0,1.0,29,197.12
1419,G#2,456.0,1.0,38,197.12
1420,C5,457.0,2.0,63,197.12
1421,E-3,457.0,1.0,31,197.12
1422,G#3,457.0,1.0,31,197.12
1423,C4,457.0,1.0,31,197.12
1424,G#4,458.0,1.0,40,197.12
1425,E-4,458.0,1.0,40,197.12
1426,E-3,458.0,1.0,27,197.12
1427,C4,458.0,1.0,27,197.12
1428,G#3,458.0,1.0,27,197.12
1429,C#5,459.0,2.0,68,197.12
1430,E-2,459.0,1.0,55,197.12
1431,E-4,460.0,1.0,39,197.12
1432,G#4,460.0,1.0,39,197.12
1433,F#3,460.0,1.0,29,197.12
1434,G#3,460.0,1.0,29,197.12
1435,C4,460.0,1.0,29,197.12
1436,E-5,461.0,1.0,71,197.12
1437,F#3,461.0,1.0,35,197.12
1438,G#3,461.0,1.0,35,197.12
1439,C4,461.0,1.0,35,197.12
1440,F5,462.0,0.688,73,197.12
1441,G#2,462.0,0.688,56,197.12
1442,F3,462.688,1.0,31,197.12
1443,G#3,462.75,0.938,37,197.12
1444,B3,462.812,0.875,44,197.12
1445,G#4,462.875,0.812,51,197.12
1446,D5,462.938,0.75,56,197.12
1447,G5,463.0,0.688,74,197.12
1448,F3,463.688,1.312,33,197.12
1449,G#3,463.75,1.25,40,197.12
1450,B3,463.812,1.188,45,197.12
1451,G#4,463.875,1.125,51,197.12
1452,D5,463.938,1.062,56,197.12
1453,G#5,464.0,1.0,77,197.12
1454,E-5,465.0,3.0,81,197.12
1455,G#2,465.0,1.0,60,197.12
1456,E-4,466.0,1.0,40,197.12
1457,G#4,466.0,1.0,40,197.12
1458,C5,466.0,1.0,40,197.12
1459,E-3,466.0,1.0,23,197.12
1460,G#3,466.0,1.0,23,197.12
1461,C4,466.0,1.0,23,197.12
1462,E-4,467.0,1.0,40,197.12
1463,G#4,467.0,1.0,40,197.12
1464,C5,467.0,1.0,40,197.12
1465,E-3,467.0,1.0,23,197.12
1466,G#3,467.0,1.0,23,197.12
1467,C4,467.0,1.0,23,197.12
1468,A2,468.0,1.0,37,197.12
1469,F#5,469.0,0.5,59,197.12
1470,F3,469.0,1.0,33,197.12
1471,C4,469.0,1.0,33,197.12
1472,E-4,469.0,1.0,33,197.12
1473,F5,469.5,0.5,56,197.12
1474,E-5,470.0,0.5,59,197.12
1475,F3,470.0,1.0,28,197.12
1476,E-4,470.0,1.0,28,197.12
1477,C4,470.0,1.0,28,197.12
1478,F#5,470.5,0.5,56,197.12
1479,F5,471.0,1.5,62,197.12
1480,B-2,471.0,1.0,37,197.12
1481,F3,472.0,1.0,33,197.12
1482,B-3,472.0,1.0,33,197.12
1483,C#4,472.0,1.0,33,197.12
1484,C#5,472.5,0.5,59,197.12
1485,B-4,473.0,0.5,55,197.12
1486,F3,473.0,1.0,28,197.12
1487,C#4,473.0,1.0,28,197.12
1488,B-3,473.0,1.0,28,197.12
1489,F4,473.5,0.5,50,197.12
1490,G2,474.0,1.0,37,197.12
1491,E5,475.0,0.5,59,197.12
1492,E-3,475.0,1.0,33,197.12
1493,B-3,475.0,1.0,33,197.12
1494,C#4,475.0,1.0,33,197.12
1495,E-5,475.5,0.5,56,197.12
1496,C#5,476.0,0.5,59,197.12
1497,E-3,476.0,1.0,28,197.12
1498,C#4,476.0,1.0,28,197.12
1499,B-3,476.0,1.0,28,197.12
1500,E5,476.5,0.5,56,197.12
1501,E-5,477.0,1.5,62,197.12
1502,G#2,477.0,1.0,37,197.12
1503,E-3,478.0,1.0,33,197.12
1504,G#3,478.0,1.0,33,197.12
1505,C4,478.0,1.0,33,197.12
1506,C5,478.5,0.5,59,197.12
1507,G#4,479.0,0.5,57,197.12
1508,E-3,479.0,1.0,28,197.12
1509,C4,479.0,1.0,28,197.12
1510,G#3,479.0,1.0,28,197.12
1511,E-4,479.5,0.5,52,197.12
1512,F#2,480.0,1.0,37,197.12
1513,G#4,481.0,2.0,59,197.12
1514,C4,481.0,1.0,37,197.12
1515,E-4,481.0,1.0,37,197.12
1516,F#3,481.0,1.0,34,197.12
1517,G#3,481.0,1.0,34,197.12
1518,C4,482.0,1.0,37,197.12
1519,E-4,482.0,1.0,37,197.12
1520,G#3,482.0,1.0,28,197.12
1521,F#3,482.0,1.0,28,197.12
1522,G4,483.0,2.0,63,197.12
1523,F2,483.0,1.0,44,197.12
1524,C4,484.0,1.0,34,197.12
1525,F4,484.0,1.0,34,197.12
1526,F3,484.0,1.0,26,197.12
1527,G#3,484.0,1.0,26,197.12
1528,C4,485.0,1.0,42,197.12
1529,F4,485.0,1.0,42,197.12
1530,G#4,485.0,1.0,42,197.12
1531,F3,485.0,1.0,31,197.12
1532,G#3,485.0,1.0,31,197.12
1533,B-4,486.0,1.5,68,197.12
1534,E2,486.0,1.0,37,197.12
1535,D4,487.0,1.0,34,197.12
1536,G#4,487.0,1.0,34,197.12
1537,E3,487.0,1.0,34,197.12
1538,G#3,487.0,1.0,34,197.12
1539,B4,487.5,0.5,61,197.12
1540,B-4,488.0,0.5,59,197.12
1541,D4,488.0,1.0,34,197.12
1542,G#4,488.0,1.0,34,197.12
1543,E3,488.0,1.0,28,197.12
1544,G#3,488.0,1.0,28,197.12
1545,B4,488.5,0.5,52,197.12
1546,G4,489.0,3.0,59,197.12
1547,E-2,489.0,1.0,37,197.12
1548,C#4,490.0,1.0,38,197.12
1549,E-4,490.0,1.0,38,197.12
1550,E-3,490.0,1.0,32,197.12
1551,B-3,490.0,1.0,32,197.12
1552,C#4,491.0,1.0,37,197.12
1553,E-4,491.0,1.0,37,197.12
1554,B-3,491.0,1.0,26,197.12
1555,E-3,491.0,1.0,26,197.12
1556,G#2,492.0,1.0,37,197.12
1557,G#4,493.0,2.0,59,197.12
1558,E-3,493.0,1.0,29,197.12
1559,G#3,493.0,1.0,29,197.12
1560,C4,493.0,1.0,29,197.12
1561,E-4,494.0,1.0,39,197.12
1562,E-3,494.0,1.0,25,197.12
1563,C4,494.0,1.0,25,197.12
1564,G#3,494.0,1.0,25,197.12
1565,B-4,495.0,2.0,57,197.12
1566,E-2,495.0,1.0,44,197.12
1567,E-4,496.0,1.0,30,197.12
1568,G#4,496.0,1.0,30,197.12
1569,E-3,496.0,1.0,20,197.12
1570,G#3,496.0,1.0,20,197.12
1571,C4,496.0,1.0,20,197.12
1572,C5,497.0,1.0,57,197.12
1573,E-3,497.0,1.0,27,197.12
1574,G#3,497.0,1.0,27,197.12
1575,C4,497.0,1.0,27,197.12
1576,B-2,498.0,1.0,39,197.12
1577,C#5,499.0,2.0,63,197.12
1578,E-3,499.0,1.0,31,197.12
1579,C#4,499.0,1.0,31,197.12
1580,G3,499.0,1.0,31,197.12
1581,E-4,500.0,1.0,36,197.12
1582,G4,500.0,1.0,36,197.12
1583,E-3,500.0,1.0,23,197.12
1584,C#4,500.0,1.0,23,197.12
1585,G3,500.0,1.0,23,197.12
1586,C5,501.0,2.0,62,197.12
1587,E-2,501.0,1.0,39,197.12
1588,G4,502.0,1.0,32,197.12
1589,E-4,502.0,1.0,32,197.12
1590,C#4,502.0,1.0,21,197.12
1591,E-3,502.0,1.0,21,197.12
1592,G3,502.0,1.0,21,197.12
1593,B-4,503.0,1.0,51,197.12
1594,C#4,503.0,1.0,29,197.12
1595,E-3,503.0,1.0,29,197.12
1596,G3,503.0,1.0,29,197.12
1597,G#2,504.0,1.0,38,197.12
1598,C5,505.0,2.0,63,197.12
1599,E-3,505.0,1.0,31,197.12
1600,G#3,505.0,1.0,31,197.12
1601,C4,505.0,1.0,31,197.12
1602,G#4,506.0,1.0,40,197.12
1603,E-4,506.0,1.0,40,197.12
1604,E-3,506.0,1.0,27,197.12
1605,C4,506.0,1.0,27,197.12
1606,G#3,506.0,1.0,27,197.12
1607,C#5,507.0,2.0,68,197.12
1608,E-2,507.0,1.0,55,197.12
1609,E-4,508.0,1.0,39,197.12
1610,G#4,508.0,1.0,39,197.12
1611,F#3,508.0,1.0,29,197.12
1612,G#3,508.0,1.0,29,197.12
1613,C4,508.0,1.0,29,197.12
1614,E-5,509.0,1.0,71,197.12
1615,F#3,509.0,1.0,35,197.12
1616,G#3,509.0,1.0,35,197.12
1617,C4,509.0,1.0,35,197.12
1618,F5,510.0,0.688,73,197.12
1619,G#2,510.0,0.688,60,197.12
1620,F3,510.688,1.0,29,197.12
1621,G#3,510.75,0.938,36,197.12
1622,B3,510.812,0.875,44,197.12
1623,G#4,510.875,0.812,48,197.12
1624,D5,510.938,0.75,56,197.12
1625,G5,511.0,0.688,74,197.12
1626,F3,511.688,1.312,33,197.12
1627,G#3,511.75,1.25,39,197.12
1628,B3,511.812,1.188,45,197.12
1629,G#4,511.875,1.125,48,197.12
1630,D5,511.938,1.062,55,197.12
1631,G#5,512.0,1.0,77,197.12
1632,E-5,513.0,3.0,81,197.12
1633,G#2,513.0,1.0,63,197.12
1634,E-4,514.0,1.0,40,197.12
1635,G#4,514.0,1.0,40,197.12
1636,C5,514.0,1.0,40,197.12
1637,E-3,514.0,1.0,23,197.12
1638,G#3,514.0,1.0,23,197.12
1639,C4,514.0,1.0,23,197.12
1640,E-4,515.0,1.0,40,197.12
1641,G#4,515.0,1.0,40,197.12
1642,C5,515.0,1.0,40,197.12
1643,E-3,515.0,1.0,23,197.12
1644,G#3,515.0,1.0,23,197.12
1645,C4,515.0,1.0,23,197.12
1646,A2,516.0,1.0,37,197.12
1647,F#5,517.0,0.5,59,197.12
1648,F3,517.0,1.0,33,197.12
1649,C4,517.0,1.0,33,197.12
1650,E-4,517.0,1.0,33,197.12
1651,F5,517.5,0.5,56,197.12
1652,E-5,518.0,0.5,59,197.12
1653,F3,518.0,1.0,28,197.12
1654,E-4,518.0,1.0,28,197.12
1655,C4,518.0,1.0,28,197.12
1656,F#5,518.5,0.5,56,197.12
1657,F5,519.0,1.5,62,197.12
1658,B-2,519.0,1.0,37,197.12
1659,F3,520.0,1.0,33,197.12
1660,B-3,520.0,1.0,33,197.12
1661,C#4,520.0,1.0,33,197.12
1662,C#5,520.5,0.5,59,197.12
1663,B-4,521.0,0.5,55,197.12
1664,F3,521.0,1.0,28,197.12
1665,C#4,521.0,1.0,28,197.12
1666,B-3,521.0,1.0,28,197.12
1667,F4,521.5,0.5,50,197.12
1668,B2,522.0,1.0,42,197.12
1669,G#5,523.0,0.5,66,197.12
1670,F4,523.0,1.0,34,197.12
1671,G3,523.0,1.0,34,197.12
1672,D4,523.0,1.0,34,197.12
1673,G5,523.5,0.5,61,197.12
1674,F5,524.0,0.5,64,197.12
1675,G3,524.0,1.0,29,197.12
1676,F4,524.0,1.0,29,197.12
1677,D4,524.0,1.0,29,197.12
1678,G#5,524.5,0.5,60,197.12
1679,G5,525.0,1.5,68,197.12
1680,C3,525.0,1.0,38,197.12
1681,G3,526.0,1.0,34,197.12
1682,C4,526.0,1.0,34,197.12
1683,E4,526.0,1.0,34,197.12
1684,E5,526.5,0.5,61,197.12
1685,C5,527.0,0.5,59,197.12
1686,G3,527.0,1.0,29,197.12
1687,E4,527.0,1.0,29,197.12
1688,C4,527.0,1.0,29,197.12
1689,G4,527.5,0.5,55,197.12
1690,C3,528.0,1.0,44,197.12
1691,D5,529.0,2.0,70,197.12
1692,G#3,529.0,1.0,39,197.12
1693,C4,529.0,1.0,39,197.12
1694,D4,529.0,1.0,39,197.12
1695,F#4,530.0,1.0,46,197.12
1696,C5,530.0,1.0,46,197.12
1697,G#3,530.0,1.0,33,197.12
1698,D4,530.0,1.0,33,197.12
1699,C4,530.0,1.0,33,197.12
1700,E5,531.0,2.0,70,197.12
1701,C3,531.0,1.0,45,197.12
1702,G4,532.0,1.0,36,197.12
1703,C5,532.0,1.0,36,197.12
1704,G3,532.0,1.0,27,197.12
1705,C4,532.0,1.0,27,197.12
1706,E4,532.0,1.0,27,197.12
1707,G5,533.0,1.0,70,197.12
1708,G3,533.0,1.0,36,197.12
1709,C4,533.0,1.0,36,197.12
1710,E4,533.0,1.0,36,197.12
1711,C3,534.0,1.0,46,197.12
1712,D5,535.0,2.0,75,197.12
1713,F3,535.0,1.0,41,197.12
1714,D4,535.0,1.0,41,197.12
1715,G#3,535.0,1.0,41,197.12
1716,F4,536.0,1.0,42,197.12
1717,B4,536.0,1.0,42,197.12
1718,F3,536.0,1.0,31,197.12
1719,D4,536.0,1.0,31,197.12
1720,G#3,536.0,1.0,31,197.12
1721,E5,537.0,2.0,73,197.12
1722,C3,537.0,1.0,46,197.12
1723,G4,538.0,2.0,38,197.12
1724,E4,538.0,2.0,38,197.12
1725,C4,538.0,1.0,28,197.12
1726,G3,538.0,1.0,28,197.12
1727,C5,539.0,1.0,61,197.12
1728,C4,539.0,1.0,40,197.12
1729,G3,539.0,1.0,40,197.12
1730,C3,540.0,1.0,45,197.12
1731,D5,541.0,2.0,71,197.12
1732,G#3,541.0,1.0,41,197.12
1733,C4,541.0,1.0,41,197.12
1734,D4,541.0,1.0,41,197.12
1735,C5,542.0,1.0,48,197.12
1736,F#4,542.0,1.0,48,197.12
1737,G#3,542.0,1.0,36,197.12
1738,D4,542.0,1.0,36,197.12
1739,C4,542.0,1.0,36,197.12
1740,E5,543.0,2.0,73,197.12
1741,C3,543.0,1.0,44,197.12
1742,G4,544.0,1.0,46,197.12
1743,C5,544.0,1.0,46,197.12
1744,G3,544.0,1.0,36,197.12
1745,C4,544.0,1.0,36,197.12
1746,E4,544.0,1.0,36,197.12
1747,G5,545.0,1.0,69,197.12
1748,G3,545.0,1.0,42,197.12
1749,C4,545.0,1.0,42,197.12
1750,E4,545.0,1.0,42,197.12
1751,D5,546.0,1.5,73,197.12
1752,C3,546.0,1.0,44,197.12
1753,F4,547.0,1.0,43,197.12
1754,B4,547.0,1.0,43,197.12
1755,F3,547.0,1.0,39,197.12
1756,G#3,547.0,1.0,39,197.12
1757,D4,547.0,1.0,39,197.12
1758,E5,547.5,0.5,70,197.12
1759,D5,548.0,0.5,64,197.12
1760,F4,548.0,1.0,44,197.12
1761,B4,548.0,1.0,44,197.12
1762,F3,548.0,1.0,33,197.12
1763,D4,548.0,1.0,33,197.12
1764,G#3,548.0,1.0,33,197.12
1765,E5,548.5,0.5,60,197.12
1766,C5,549.0,1.5,66,197.12
1767,C3,549.0,1.0,44,197.12
1768,G3,550.0,1.0,31,197.12
1769,C4,550.0,1.0,31,197.12
1770,E4,550.0,1.0,31,197.12
1771,E5,550.5,0.5,55,197.12
1772,E-5,551.0,0.5,58,197.12
1773,E5,551.5,0.5,56,197.12
1774,C5,552.0,1.5,66,197.12
1775,C3,552.0,1.0,44,197.12
1776,G3,553.0,1.0,31,197.12
1777,C4,553.0,1.0,31,197.12
1778,E4,553.0,1.0,31,197.12
1779,E5,553.5,0.5,55,197.12
1780,E-5,554.0,0.5,58,197.12
1781,E5,554.5,0.5,56,197.12
1782,C5,555.0,0.5,66,197.12
1783,C3,555.0,1.0,44,197.12
1784,E5,555.5,0.5,55,197.12
1785,E-5,556.0,0.5,58,197.12
1786,G3,556.0,1.0,31,197.12
1787,C4,556.0,1.0,31,197.12
1788,E4,556.0,1.0,31,197.12
1789,E5,556.5,0.5,55,197.12
1790,C5,557.0,0.5,62,197.12
1791,E5,557.5,0.5,56,197.12
1792,E-5,558.0,0.5,59,197.12
1793,E5,558.5,0.5,55,197.12
1794,C5,559.0,0.5,63,197.12
1795,E5,559.5,0.5,55,197.12
1796,E-5,560.0,0.5,58,197.12
1797,E5,560.5,0.5,56,197.12
1798,C#5,561.0,0.5,59,197.12
1799,B-3,561.0,1.0,44,197.12
1800,F5,561.5,0.5,55,197.12
1801,E5,562.0,0.5,64,197.12
1802,F4,562.0,1.0,35,197.12
1803,C#4,562.0,1.0,35,197.12
1804,F5,562.5,0.5,56,197.12
1805,C#5,563.0,0.5,60,197.12
1806,F4,563.0,1.0,36,197.12
1807,C#4,563.0,1.0,36,197.12
1808,F5,563.5,0.5,58,197.12
1809,E5,564.0,0.5,62,197.12
1810,G#3,564.0,1.0,46,197.12
1811,F5,564.5,0.5,58,197.12
1812,C#5,564.977,0.5,68,197.12
1813,F4,565.0,1.0,35,197.12
1814,C#4,565.0,1.0,35,197.12
1815,B-3,565.0,1.0,35,197.12
1816,F5,565.5,0.5,60,197.12
1817,E5,566.0,0.5,63,197.12
1818,F4,566.0,1.0,36,197.12
1819,C#4,566.0,1.0,36,197.12
1820,B-3,566.0,1.0,36,197.12
1821,F5,566.5,0.5,62,197.12
1822,B4,567.0,3.0,67,197.12
1823,G3,567.0,1.0,49,197.12
1824,F5,567.5,0.5,62,197.12
1825,E5,567.977,0.5,72,197.12
1826,F4,568.0,1.0,37,197.12
1827,D4,568.0,1.0,37,197.12
1828,B3,568.0,1.0,37,197.12
1829,F5,568.5,0.5,63,197.12
1830,G#5,569.0,0.5,75,197.12
1831,F4,569.0,1.0,38,197.12
1832,D4,569.0,1.0,38,197.12
1833,B3,569.0,1.0,38,197.12
1834,G5,569.5,0.5,71,197.12
1835,E-5,570.0,1.5,82,197.12
1836,C3,570.0,1.0,55,197.12
1837,G4,571.0,1.0,44,197.12
1838,C4,571.0,1.0,44,197.12
1839,G3,571.0,1.0,44,197.12
1840,E5,571.5,0.5,70,197.12
1841,G5,572.0,0.5,72,197.12
1842,G4,572.0,1.0,49,197.12
1843,C4,572.0,1.0,49,197.12
1844,G3,572.0,1.0,49,197.12
1845,C6,572.5,0.5,68,197.12
1846,A4,573.0,3.0,67,197.12
1847,F3,573.0,1.0,49,197.12
1848,E-5,573.5,0.5,62,197.12
1849,D5,574.0,0.5,72,197.12
1850,F4,574.0,1.0,37,197.12
1851,C4,574.0,1.0,37,197.12
1852,A3,574.0,1.0,37,197.12
1853,E-5,574.5,0.5,63,197.12
1854,F#5,575.0,0.5,70,197.12
1855,F4,575.0,1.0,38,197.12
1856,C4,575.0,1.0,38,197.12
1857,A3,575.0,1.0,38,197.12
1858,F5,575.5,0.5,66,197.12
1859,C5,576.0,1.5,72,197.12
1860,B-2,576.0,1.0,52,197.12
1861,F4,577.0,1.0,39,197.12
1862,C#4,577.0,1.0,39,197.12
1863,B-3,577.0,1.0,39,197.12
1864,C#5,577.5,0.5,68,197.12
1865,F5,578.0,0.5,69,197.12
1866,F4,578.0,1.0,44,197.12
1867,C#4,578.0,1.0,44,197.12
1868,B-3,578.0,1.0,44,197.12
1869,B-5,578.5,0.5,67,197.12
1870,A4,579.0,1.5,72,197.12
1871,C#3,579.0,1.0,48,197.12
1872,F4,580.0,1.0,39,197.12
1873,C#4,580.0,1.0,39,197.12
1874,B-3,580.0,1.0,39,197.12
1875,B-4,580.5,0.5,67,197.12
1876,C#5,581.0,0.5,70,197.12
1877,F4,581.0,1.0,39,197.12
1878,C#4,581.0,1.0,39,197.12
1879,B-3,581.0,1.0,39,197.12
1880,G#5,581.5,0.5,66,197.12
1881,G5,582.0,0.5,66,197.12
1882,E-3,582.0,1.0,48,197.12
1883,F5,582.5,0.5,60,197.12
1884,E-5,583.0,0.5,61,197.12
1885,B-3,583.0,1.0,36,197.12
1886,C#4,583.0,1.0,36,197.12
1887,E-4,583.0,1.0,36,197.12
1888,D5,583.5,0.5,56,197.12
1889,F5,584.0,0.5,59,197.12
1890,B-3,584.0,1.0,36,197.12
1891,C#4,584.0,1.0,36,197.12
1892,E-4,584.0,1.0,36,197.12
1893,E-5,584.5,0.5,56,197.12
1894,C#5,585.0,0.5,59,197.12
1895,B-3,585.0,1.0,44,197.12
1896,F5,585.5,0.5,55,197.12
1897,E5,586.0,0.5,64,197.12
1898,F4,586.0,1.0,35,197.12
1899,C#4,586.0,1.0,35,197.12
1900,F5,586.5,0.5,56,197.12
1901,C#5,587.0,0.5,60,197.12
1902,F4,587.0,1.0,36,197.12
1903,C#4,587.0,1.0,36,197.12
1904,F5,587.5,0.5,58,197.12
1905,E5,588.0,0.5,62,197.12
1906,G#3,588.0,1.0,46,197.12
1907,F5,588.5,0.5,58,197.12
1908,C#5,588.977,0.5,68,197.12
1909,F4,589.0,1.0,35,197.12
1910,C#4,589.0,1.0,35,197.12
1911,B-3,589.0,1.0,35,197.12
1912,F5,589.5,0.5,60,197.12
1913,E5,590.0,0.5,63,197.12
1914,F4,590.0,1.0,36,197.12
1915,C#4,590.0,1.0,36,197.12
1916,B-3,590.0,1.0,36,197.12
1917,F5,590.5,0.5,62,197.12
1918,B4,591.0,3.0,67,197.12
1919,G3,591.0,1.0,49,197.12
1920,F5,591.5,0.5,62,197.12
1921,E5,591.977,0.5,72,197.12
1922,F4,592.0,1.0,37,197.12
1923,D4,592.0,1.0,37,197.12
1924,B3,592.0,1.0,37,197.12
1925,F5,592.5,0.5,63,197.12
1926,G#5,593.0,0.5,75,197.12
1927,F4,593.0,1.0,38,197.12
1928,D4,593.0,1.0,38,197.12
1929,B3,593.0,1.0,38,197.12
1930,G5,593.5,0.5,71,197.12
1931,E-5,594.0,1.5,82,197.12
1932,C3,594.0,1.0,55,197.12
1933,G4,595.0,1.0,49,197.12
1934,C4,595.0,1.0,49,197.12
1935,G3,595.0,1.0,49,197.12
1936,E5,595.5,0.5,69,197.12
1937,G5,596.0,0.5,72,197.12
1938,G4,596.0,1.0,49,197.12
1939,C4,596.0,1.0,49,197.12
1940,G3,596.0,1.0,49,197.12
1941,C6,596.5,0.5,69,197.12
1942,A4,597.0,3.0,67,197.12
1943,F3,597.0,1.0,49,197.12
1944,E-5,597.5,0.5,62,197.12
1945,D5,598.0,0.5,72,197.12
1946,F4,598.0,1.0,37,197.12
1947,C4,598.0,1.0,37,197.12
1948,A3,598.0,1.0,37,197.12
1949,E-5,598.5,0.5,63,197.12
1950,F#5,599.0,0.5,69,197.12
1951,F4,599.0,1.0,38,197.12
1952,C4,599.0,1.0,38,197.12
1953,A3,599.0,1.0,38,197.12
1954,F5,599.5,0.5,66,197.12
1955,C5,600.0,1.5,74,197.12
1956,B-2,600.0,1.0,52,197.12
1957,F4,601.0,1.0,39,197.12
1958,C#4,601.0,1.0,39,197.12
1959,B-3,601.0,1.0,39,197.12
1960,C#5,601.5,0.5,67,197.12
1961,F5,602.0,0.5,70,197.12
1962,F4,602.0,1.0,44,197.12
1963,C#4,602.0,1.0,44,197.12
1964,B-3,602.0,1.0,44,197.12
1965,B-5,602.5,0.5,64,197.12
1966,A4,603.0,1.5,68,197.12
1967,C#3,603.0,1.0,48,197.12
1968,F4,604.0,1.0,39,197.12
1969,C#4,604.0,1.0,39,197.12
1970,B-3,604.0,1.0,39,197.12
1971,B-4,604.5,0.5,60,197.12
1972,C5,605.0,0.5,62,197.12
1973,F4,605.0,1.0,39,197.12
1974,C#4,605.0,1.0,39,197.12
1975,B-3,605.0,1.0,39,197.12
1976,C#5,605.5,0.5,59,197.12
1977,F#4,606.0,1.5,63,197.12
1978,E-3,606.0,1.0,45,197.12
1979,E-4,607.0,1.0,37,197.12
1980,C#4,607.0,1.0,37,197.12
1981,B-3,607.0,1.0,37,197.12
1982,G4,607.5,0.5,57,197.12
1983,A4,608.0,0.5,59,197.12
1984,E-4,608.0,1.0,37,197.12
1985,C#4,608.0,1.0,37,197.12
1986,B-3,608.0,1.0,37,197.12
1987,B-4,608.5,0.5,56,197.12
1988,G#2,609.0,1.0,37,197.12
1989,G#4,610.0,2.0,59,197.12
1990,E-3,610.0,1.0,33,197.12
1991,G#3,610.0,1.0,33,197.12
1992,C4,610.0,1.0,33,197.12
1993,E-4,611.0,1.0,39,197.12
1994,E-3,611.0,1.0,28,197.12
1995,C4,611.0,1.0,28,197.12
1996,G#3,611.0,1.0,28,197.12
1997,B-4,612.0,2.0,59,197.12
1998,E-2,612.0,1.0,44,197.12
1999,E-4,613.0,1.0,30,197.12
2000,G#4,613.0,1.0,30,197.12
2001,E-3,613.0,1.0,23,197.12
2002,G#3,613.0,1.0,23,197.12
2003,C4,613.0,1.0,23,197.12
2004,C5,614.0,1.0,59,197.12
2005,E-3,614.0,1.0,30,197.12
2006,G#3,614.0,1.0,30,197.12
2007,C4,614.0,1.0,30,197.12
2008,B-2,615.0,1.0,39,197.12
2009,C#5,616.0,2.0,63,197.12
2010,E-3,616.0,1.0,35,197.12
2011,C#4,616.0,1.0,35,197.12
2012,G3,616.0,1.0,35,197.12
2013,E-4,617.0,1.0,36,197.12
2014,G4,617.0,1.0,36,197.12
2015,E-3,617.0,1.0,26,197.12
2016,C#4,617.0,1.0,26,197.12
2017,G3,617.0,1.0,26,197.12
2018,C5,618.0,2.0,62,197.12
2019,E-2,618.0,1.0,39,197.12
2020,G4,619.0,1.0,32,197.12
2021,E-4,619.0,1.0,32,197.12
2022,C#4,619.0,1.0,24,197.12
2023,E-3,619.0,1.0,24,197.12
2024,G3,619.0,1.0,24,197.12
2025,B-4,620.0,1.0,51,197.12
2026,C#4,620.0,1.0,33,197.12
2027,E-3,620.0,1.0,33,197.12
2028,G3,620.0,1.0,33,197.12
2029,G#2,621.0,1.0,38,197.12
2030,C5,622.0,2.0,63,197.12
2031,E-3,622.0,1.0,35,197.12
2032,G#3,622.0,1.0,35,197.12
2033,C4,622.0,1.0,35,197.12
2034,G#4,623.0,1.0,40,197.12
2035,E-4,623.0,1.0,40,197.12
2036,E-3,623.0,1.0,31,197.12
2037,C4,623.0,1.0,31,197.12
2038,G#3,623.0,1.0,31,197.12
2039,C#5,624.0,2.0,68,197.12
2040,E-2,624.0,1.0,55,197.12
2041,E-4,625.0,1.0,39,197.12
2042,G#4,625.0,1.0,39,197.12
2043,F#3,625.0,1.0,33,197.12
2044,G#3,625.0,1.0,33,197.12
2045,C4,625.0,1.0,33,197.12
2046,E-5,626.0,1.0,71,197.12
2047,F#3,626.0,1.0,39,197.12
2048,G#3,626.0,1.0,39,197.12
2049,C4,626.0,1.0,39,197.12
2050,F5,627.0,0.688,73,197.12
2051,G#2,627.0,0.688,55,197.12
2052,F3,627.688,1.0,31,197.12
2053,G#3,627.75,0.938,37,197.12
2054,B3,627.812,0.875,44,197.12
2055,G#4,627.875,0.812,51,197.12
2056,D5,627.938,0.75,56,197.12
2057,G5,628.0,0.688,74,197.12
2058,F3,628.688,1.312,33,197.12
2059,G#3,628.75,1.25,40,197.12
2060,B3,628.812,1.188,45,197.12
2061,G#4,628.875,1.125,51,197.12
2062,D5,628.938,1.062,56,197.12
2063,G#5,629.0,1.0,77,197.12
2064,E-5,630.0,3.0,81,197.12
2065,G#2,630.0,1.0,60,197.12
2066,E-4,631.0,1.0,43,197.12
2067,G#4,631.0,1.0,43,197.12
2068,C5,631.0,1.0,43,197.12
2069,E-3,631.0,1.0,28,197.12
2070,G#3,631.0,1.0,28,197.12
2071,C4,631.0,1.0,28,197.12
2072,E-4,632.0,1.0,43,197.12
2073,G#4,632.0,1.0,43,197.12
2074,C5,632.0,1.0,43,197.12
2075,E-3,632.0,1.0,28,197.12
2076,G#3,632.0,1.0,28,197.12
2077,C4,632.0,1.0,28,197.12
2078,A2,633.0,1.0,37,197.12
2079,F#5,634.0,0.5,59,197.12
2080,F3,634.0,1.0,33,197.12
2081,C4,634.0,1.0,33,197.12
2082,E-4,634.0,1.0,33,197.12
2083,F5,634.5,0.5,56,197.12
2084,E-5,635.0,0.5,59,197.12
2085,F3,635.0,1.0,28,197.12
2086,E-4,635.0,1.0,28,197.12
2087,C4,635.0,1.0,28,197.12
2088,F#5,635.5,0.5,56,197.12
2089,F5,636.0,1.5,62,197.12
2090,B-2,636.0,1.0,37,197.12
2091,F3,637.0,1.0,33,197.12
2092,B-3,637.0,1.0,33,197.12
2093,C#4,637.0,1.0,33,197.12
2094,C#5,637.5,0.5,59,197.12
2095,B-4,638.0,0.5,55,197.12
2096,F3,638.0,1.0,28,197.12
2097,C#4,638.0,1.0,28,197.12
2098,B-3,638.0,1.0,28,197.12
2099,F4,638.5,0.5,50,197.12
2100,G2,639.0,1.0,37,197.12
2101,E5,640.0,0.5,59,197.12
2102,E-3,640.0,1.0,33,197.12
2103,B-3,640.0,1.0,33,197.12
2104,C#4,640.0,1.0,33,197.12
2105,E-5,640.5,0.5,56,197.12
2106,C#5,641.0,0.5,59,197.12
2107,E-3,641.0,1.0,28,197.12
2108,C#4,641.0,1.0,28,197.12
2109,B-3,641.0,1.0,28,197.12
2110,E5,641.5,0.5,56,197.12
2111,E-5,642.0,1.5,62,197.12
2112,G#2,642.0,1.0,37,197.12
2113,E-3,643.0,1.0,33,197.12
2114,G#3,643.0,1.0,33,197.12
2115,C4,643.0,1.0,33,197.12
2116,C5,643.5,0.5,59,197.12
2117,G#4,644.0,0.5,57,197.12
2118,E-3,644.0,1.0,28,197.12
2119,C4,644.0,1.0,28,197.12
2120,G#3,644.0,1.0,28,197.12
2121,E-4,644.5,0.5,52,197.12
2122,F#2,645.0,1.0,37,197.12
2123,G#4,646.0,2.0,59,197.12
2124,C4,646.0,1.0,37,197.12
2125,E-4,646.0,1.0,37,197.12
2126,F#3,646.0,1.0,34,197.12
2127,G#3,646.0,1.0,34,197.12
2128,C4,647.0,1.0,37,197.12
2129,E-4,647.0,1.0,37,197.12
2130,G#3,647.0,1.0,28,197.12
2131,F#3,647.0,1.0,28,197.12
2132,G4,648.0,2.0,63,197.12
2133,F2,648.0,1.0,44,197.12
2134,C4,649.0,1.0,34,197.12
2135,F4,649.0,1.0,34,197.12
2136,F3,649.0,1.0,26,197.12
2137,G#3,649.0,1.0,26,197.12
2138,C4,650.0,1.0,42,197.12
2139,F4,650.0,1.0,42,197.12
2140,G#4,650.0,1.0,42,197.12
2141,F3,650.0,1.0,31,197.12
2142,G#3,650.0,1.0,31,197.12
2143,B-4,651.0,1.5,68,197.12
2144,E2,651.0,1.0,37,197.12
2145,D4,652.0,1.0,34,197.12
2146,G#4,652.0,1.0,34,197.12
2147,E3,652.0,1.0,34,197.12
2148,G#3,652.0,1.0,34,197.12
2149,B4,652.5,0.5,61,197.12
2150,B-4,653.0,0.5,59,197.12
2151,D4,653.0,1.0,34,197.12
2152,G#4,653.0,1.0,34,197.12
2153,E3,653.0,1.0,28,197.12
2154,G#3,653.0,1.0,28,197.12
2155,B4,653.5,0.5,52,197.12
2156,G4,654.0,3.0,59,197.12
2157,E-2,654.0,1.0,37,197.12
2158,C#4,655.0,1.0,38,197.12
2159,E-4,655.0,1.0,38,197.12
2160,E-3,655.0,1.0,32,197.12
2161,B-3,655.0,1.0,32,197.12
2162,C#4,656.0,1.0,37,197.12
2163,E-4,656.0,1.0,37,197.12
2164,B-3,656.0,1.0,26,197.12
2165,E-3,656.0,1.0,26,197.12
2166,G#2,657.0,1.0,37,197.12
2167,G#4,658.0,2.0,59,197.12
2168,E-3,658.0,1.0,29,197.12
2169,G#3,658.0,1.0,29,197.12
2170,C4,658.0,1.0,29,197.12
2171,E-4,659.0,1.0,39,197.12
2172,E-3,659.0,1.0,25,197.12
2173,C4,659.0,1.0,25,197.12
2174,G#3,659.0,1.0,25,197.12
2175,B-4,660.0,2.0,59,197.12
2176,E-2,660.0,1.0,44,197.12
2177,E-4,661.0,1.0,30,197.12
2178,G#4,661.0,1.0,30,197.12
2179,E-3,661.0,1.0,20,197.12
2180,G#3,661.0,1.0,20,197.12
2181,C4,661.0,1.0,20,197.12
2182,C5,662.0,1.0,59,197.12
2183,E-3,662.0,1.0,27,197.12
2184,G#3,662.0,1.0,27,197.12
2185,C4,662.0,1.0,27,197.12
2186,B-2,663.0,1.0,39,197.12
2187,C#5,664.0,2.0,63,197.12
2188,E-3,664.0,1.0,31,197.12
2189,C#4,664.0,1.0,31,197.12
2190,G3,664.0,1.0,31,197.12
2191,E-4,665.0,1.0,36,197.12
2192,G4,665.0,1.0,36,197.12
2193,E-3,665.0,1.0,23,197.12
2194,C#4,665.0,1.0,23,197.12
2195,G3,665.0,1.0,23,197.12
2196,C5,666.0,2.0,62,197.12
2197,E-2,666.0,1.0,39,197.12
2198,G4,667.0,1.0,32,197.12
2199,E-4,667.0,1.0,32,197.12
2200,C#4,667.0,1.0,21,197.12
2201,E-3,667.0,1.0,21,197.12
2202,G3,667.0,1.0,21,197.12
2203,B-4,668.0,1.0,51,197.12
2204,C#4,668.0,1.0,29,197.12
2205,E-3,668.0,1.0,29,197.12
2206,G3,668.0,1.0,29,197.12
2207,G#2,669.0,1.0,38,197.12
2208,C5,670.0,2.0,63,197.12
2209,E-3,670.0,1.0,31,197.12
2210,G#3,670.0,1.0,31,197.12
2211,C4,670.0,1.0,31,197.12
2212,G#4,671.0,1.0,40,197.12
2213,E-4,671.0,1.0,40,197.12
2214,E-3,671.0,1.0,27,197.12
2215,C4,671.0,1.0,27,197.12
2216,G#3,671.0,1.0,27,197.12
2217,C#5,672.0,2.0,68,197.12
2218,E-2,672.0,1.0,59,197.12
2219,E-4,673.0,1.0,39,197.12
2220,G#4,673.0,1.0,39,197.12
2221,F#3,673.0,1.0,29,197.12
2222,G#3,673.0,1.0,29,197.12
2223,C4,673.0,1.0,29,197.12
2224,E-5,674.0,1.0,71,197.12
2225,F#3,674.0,1.0,35,197.12
2226,G#3,674.0,1.0,35,197.12
2227,C4,674.0,1.0,35,197.12
2228,F5,675.0,0.688,73,197.12
2229,G#2,675.0,0.688,60,197.12
2230,F3,675.688,1.0,29,197.12
2231,G#3,675.75,0.938,36,197.12
2232,B3,675.812,0.875,44,197.12
2233,G#4,675.875,0.812,48,197.12
2234,D5,675.938,0.75,56,197.12
2235,G5,676.0,0.688,74,197.12
2236,F3,676.688,1.312,33,197.12
2237,G#3,676.75,1.25,39,197.12
2238,B3,676.812,1.188,45,197.12
2239,G#4,676.875,1.125,48,197.12
2240,D5,676.938,1.062,55,197.12
2241,G#5,677.0,1.0,77,197.12
2242,E-5,678.0,3.0,81,197.12
2243,G#2,678.0,1.0,68,197.12
2244,E-4,679.0,1.0,40,197.12
2245,G#4,679.0,1.0,40,197.12
2246,C5,679.0,1.0,40,197.12
2247,E-3,679.0,1.0,23,197.12
2248,G#3,679.0,1.0,23,197.12
2249,C4,679.0,1.0,23,197.12
2250,E-4,680.0,1.0,40,197.12
2251,G#4,680.0,1.0,40,197.12
2252,C5,680.0,1.0,40,197.12
2253,E-3,680.0,1.0,23,197.12
2254,G#3,680.0,1.0,23,197.12
2255,C4,680.0,1.0,23,197.12
2256,A2,681.0,1.0,37,197.12
2257,F#5,682.0,0.5,59,197.12
2258,F3,682.0,1.0,33,197.12
2259,C4,682.0,1.0,33,197.12
2260,E-4,682.0,1.0,33,197.12
2261,F5,682.5,0.5,56,197.12
2262,E-5,683.0,0.5,59,197.12
2263,F3,683.0,1.0,28,197.12
2264,E-4,683.0,1.0,28,197.12
2265,C4,683.0,1.0,28,197.12
2266,F#5,683.5,0.5,56,197.12
2267,F5,684.0,1.5,62,197.12
2268,B-2,684.0,1.0,37,197.12
2269,F3,685.0,1.0,33,197.12
2270,B-3,685.0,1.0,33,197.12
2271,C#4,685.0,1.0,33,197.12
2272,C#5,685.5,0.5,59,197.12
2273,B-4,686.0,0.5,55,197.12
2274,F3,686.0,1.0,28,197.12
2275,C#4,686.0,1.0,28,197.12
2276,B-3,686.0,1.0,28,197.12
2277,F4,686.5,0.5,50,197.12
2278,B2,687.0,1.0,42,197.12
2279,G#5,688.0,0.5,66,197.12
2280,F4,688.0,1.0,34,197.12
2281,G3,688.0,1.0,34,197.12
2282,D4,688.0,1.0,34,197.12
2283,G5,688.5,0.5,61,197.12
2284,F5,689.0,0.5,64,197.12
2285,G3,689.0,1.0,29,197.12
2286,F4,689.0,1.0,29,197.12
2287,D4,689.0,1.0,29,197.12
2288,G#5,689.5,0.5,60,197.12
2289,G5,690.0,1.5,68,197.12
2290,C3,690.0,1.0,38,197.12
2291,G3,691.0,1.0,34,197.12
2292,C4,691.0,1.0,34,197.12
2293,E4,691.0,1.0,34,197.12
2294,E5,691.5,0.5,61,197.12
2295,C5,692.0,0.5,59,197.12
2296,G3,692.0,1.0,29,197.12
2297,E4,692.0,1.0,29,197.12
2298,C4,692.0,1.0,29,197.12
2299,G4,692.5,0.5,55,197.12
2300,C#3,693.0,1.0,45,197.12
2301,B-5,694.0,0.5,70,197.12
2302,F4,694.0,1.0,36,197.12
2303,B-3,694.0,1.0,36,197.12
2304,C#4,694.0,1.0,36,197.12
2305,G#5,694.5,0.5,64,197.12
2306,G5,695.0,0.5,69,197.12
2307,B-3,695.0,1.0,31,197.12
2308,F4,695.0,1.0,31,197.12
2309,C#4,695.0,1.0,31,197.12
2310,B-5,695.5,0.5,63,197.12
2311,G#5,696.0,1.5,72,197.12
2312,D3,696.0,1.0,40,197.12
2313,G#3,697.0,1.0,36,197.12
2314,B3,697.0,1.0,36,197.12
2315,F4,697.0,1.0,36,197.12
2316,F5,697.5,0.5,64,197.12
2317,B4,698.0,0.5,62,197.12
2318,G#3,698.0,1.0,31,197.12
2319,F4,698.0,1.0,31,197.12
2320,B3,698.0,1.0,31,197.12
2321,G#4,698.5,0.5,58,197.12
2322,F5,699.0,1.5,64,197.12
2323,E-3,699.0,1.0,36,197.12
2324,G3,700.0,1.0,32,197.12
2325,C#4,700.0,1.0,32,197.12
2326,E-4,700.0,1.0,32,197.12
2327,C#5,700.5,0.5,58,197.12
2328,B-4,701.0,0.5,56,197.12
2329,G3,701.0,1.0,27,197.12
2330,E-4,701.0,1.0,27,197.12
2331,C#4,701.0,1.0,27,197.12
2332,G4,701.5,0.5,51,197.12
2333,B-4,702.0,1.5,58,197.12
2334,G#2,702.0,1.0,31,197.12
2335,E-3,703.0,1.0,28,197.12
2336,G#3,703.0,1.0,28,197.12
2337,C4,703.0,1.0,28,197.12
2338,G#4,703.5,0.5,51,197.12
2339,E-4,704.0,0.5,49,197.12
2340,E-3,704.0,1.0,24,197.12
2341,C4,704.0,1.0,24,197.12
2342,G#3,704.0,1.0,24,197.12
2343,C4,704.5,0.5,46,197.12
2344,G#2,705.0,3.0,37,197.12
2345,F4,706.0,2.0,59,197.12
2346,B3,706.0,1.0,39,197.12
2347,D4,706.0,1.0,39,197.12
2348,D3,706.0,1.0,33,197.12
2349,F3,706.0,1.0,33,197.12
2350,G#3,706.0,1.0,33,197.12
2351,B3,707.0,1.0,39,197.12
2352,D4,707.0,1.0,39,197.12
2353,D3,707.0,1.0,28,197.12
2354,G#3,707.0,1.0,28,197.12
2355,F3,707.0,1.0,28,197.12
2356,G4,708.0,2.0,61,197.12
2357,G#2,708.0,3.0,44,197.12
2358,B3,709.0,1.0,39,197.12
2359,D4,709.0,1.0,39,197.12
2360,D3,709.0,1.0,23,197.12
2361,F3,709.0,1.0,23,197.12
2362,G#3,709.0,1.0,23,197.12
2363,B3,710.0,1.0,46,197.12
2364,D4,710.0,1.0,46,197.12
2365,G#4,710.0,1.0,46,197.12
2366,D3,710.0,1.0,30,197.12
2367,F3,710.0,1.0,30,197.12
2368,G#3,710.0,1.0,30,197.12
2369,C4,711.0,1.0,44,197.12
2370,E-4,711.0,1.0,44,197.12
2371,G4,711.0,1.0,44,197.12
2372,E-2,711.0,1.0,53,197.12
2373,E-3,711.0,1.0,53,197.12
2374,F2,712.0,2.0,58,197.12
2375,F3,712.0,2.0,58,197.12
2376,C4,713.0,1.0,49,197.12
2377,E-4,713.0,1.0,49,197.12
2378,G4,713.0,1.0,49,197.12
2379,G2,714.0,2.0,62,197.12
2380,G3,714.0,2.0,62,197.12
2381,E-4,715.0,1.0,48,197.12
2382,C4,715.0,1.0,48,197.12
2383,G#2,716.0,1.0,57,197.12
2384,G#3,716.0,1.0,57,197.12
2385,D3,717.0,3.0,63,197.12
2386,G#4,718.0,2.0,64,197.12
2387,B3,718.0,1.0,42,197.12
2388,E4,718.0,1.0,42,197.12
2389,E3,718.0,1.0,40,197.12
2390,G#3,718.0,1.0,40,197.12
2391,B3,719.0,1.0,42,197.12
2392,E4,719.0,1.0,42,197.12
2393,G#3,719.0,1.0,34,197.12
2394,E3,719.0,1.0,34,197.12
2395,B-4,720.0,2.0,67,197.12
2396,D3,720.0,3.0,48,197.12
2397,B3,721.0,1.0,42,197.12
2398,E4,721.0,1.0,42,197.12
2399,E3,721.0,1.0,26,197.12
2400,G#3,721.0,1.0,26,197.12
2401,B3,722.0,1.0,49,197.12
2402,E4,722.0,1.0,49,197.12
2403,B4,722.0,1.0,49,197.12
2404,E3,722.0,1.0,34,197.12
2405,G#3,722.0,1.0,34,197.12
2406,C4,723.0,1.0,48,197.12
2407,E-4,723.0,1.0,48,197.12
2408,C5,723.0,1.0,48,197.12
2409,E-2,723.0,1.0,58,197.12
2410,E-3,723.0,1.0,58,197.12
2411,F2,724.0,2.0,63,197.12
2412,F3,724.0,2.0,63,197.12
2413,C4,725.0,1.0,54,197.12
2414,E-4,725.0,1.0,54,197.12
2415,C5,725.0,1.0,54,197.12
2416,G2,726.0,2.0,69,197.12
2417,G3,726.0,2.0,69,197.12
2418,E-4,727.0,1.0,53,197.12
2419,C5,727.0,1.0,53,197.12
2420,C4,727.0,1.0,53,197.12
2421,G#2,728.0,1.0,63,197.12
2422,G#3,728.0,1.0,63,197.12
2423,G#3,729.0,3.0,63,197.12
2424,F5,730.0,2.0,72,197.12
2425,B4,730.0,1.0,48,197.12
2426,D5,730.0,1.0,48,197.12
2427,D4,730.0,1.0,43,197.12
2428,F4,730.0,1.0,43,197.12
2429,G#4,730.0,1.0,43,197.12
2430,B4,731.0,1.0,48,197.12
2431,D5,731.0,1.0,48,197.12
2432,D4,731.0,1.0,37,197.12
2433,G#4,731.0,1.0,37,197.12
2434,F4,731.0,1.0,37,197.12
2435,G5,732.0,2.0,76,197.12
2436,G#3,732.0,3.0,55,197.12
2437,B4,733.0,1.0,48,197.12
2438,D5,733.0,1.0,48,197.12
2439,D4,733.0,1.0,28,197.12
2440,F4,733.0,1.0,28,197.12
2441,G#4,733.0,1.0,28,197.12
2442,B4,734.0,1.0,56,197.12
2443,D5,734.0,1.0,56,197.12
2444,G#5,734.0,1.0,56,197.12
2445,D4,734.0,1.0,37,197.12
2446,F4,734.0,1.0,37,197.12
2447,G#4,734.0,1.0,37,197.12
2448,C5,735.0,1.0,55,197.12
2449,E-5,735.0,1.0,55,197.12
2450,G5,735.0,1.0,55,197.12
2451,E-3,735.0,1.0,68,197.12
2452,E-4,735.0,1.0,68,197.12
2453,F3,736.0,2.0,73,197.12
2454,F4,736.0,2.0,73,197.12
2455,C5,737.0,1.0,61,197.12
2456,E-5,737.0,1.0,61,197.12
2457,G5,737.0,1.0,61,197.12
2458,G3,738.0,2.0,79,197.12
2459,G4,738.0,2.0,79,197.12
2460,E-5,739.0,1.0,62,197.12
2461,C5,739.0,1.0,62,197.12
2462,G#3,740.0,1.0,74,197.12
2463,G#4,740.0,1.0,74,197.12
2464,D4,741.0,3.0,71,197.12
2465,G#5,742.0,2.0,83,197.12
2466,B4,742.0,1.0,54,197.12
2467,E5,742.0,1.0,54,197.12
2468,E4,742.0,1.0,46,197.12
2469,G#4,742.0,1.0,46,197.12
2470,B4,743.0,1.0,54,197.12
2471,E5,743.0,1.0,54,197.12
2472,G#4,743.0,1.0,40,197.12
2473,E4,743.0,1.0,40,197.12
2474,B-5,744.0,2.0,87,197.12
2475,D4,744.0,3.0,61,197.12
2476,B4,745.0,1.0,55,197.12
2477,E5,745.0,1.0,55,197.12
2478,E4,745.0,1.0,33,197.12
2479,G#4,745.0,1.0,33,197.12
2480,B4,746.0,1.0,66,197.12
2481,E5,746.0,1.0,66,197.12
2482,B5,746.0,1.0,66,197.12
2483,E4,746.0,1.0,43,197.12
2484,G#4,746.0,1.0,43,197.12
2485,C5,747.0,1.0,63,197.12
2486,E-5,747.0,1.0,63,197.12
2487,C6,747.0,1.0,63,197.12
2488,E-3,747.0,1.0,76,197.12
2489,E-4,747.0,1.0,76,197.12
2490,F3,748.0,2.0,84,197.12
2491,F4,748.0,2.0,84,197.12
2492,C5,749.0,1.0,70,197.12
2493,E-5,749.0,1.0,70,197.12
2494,C6,749.0,1.0,70,197.12
2495,G3,750.0,2.0,91,197.12
2496,G4,750.0,2.0,91,197.12
2497,E-5,751.0,1.0,70,197.12
2498,C6,751.0,1.0,70,197.12
2499,C5,751.0,1.0,70,197.12
2500,G#3,752.0,1.0,84,197.12
2501,G#4,752.0,1.0,84,197.12
2502,G#3,753.0,1.0,89,197.12
2503,E6,754.0,2.0,79,197.12
2504,B5,754.0,2.0,79,197.12
2505,G#5,754.0,2.0,79,197.12
2506,E5,754.0,2.0,79,197.12
2507,D4,754.0,2.0,66,197.12
2508,E4,754.0,2.0,66,197.12
2509,G#4,754.0,2.0,66,197.12
2510,B4,754.0,2.0,66,197.12
2511,E-6,756.0,0.25,82,197.12
2512,E-4,756.0,1.0,73,197.12
2513,G#4,756.0,1.0,73,197.12
2514,C5,756.0,1.0,73,197.12
2515,C6,756.5,0.25,76,197.12
2516,G#5,757.0,0.25,79,197.12
2517,E-5,757.5,0.25,77,197.12
2518,C5,758.0,0.25,80,197.12
2519,G#2,759.0,1.0,80,197.12
2520,E5,760.0,2.0,71,197.12
2521,B4,760.0,2.0,71,197.12
2522,G#4,760.0,2.0,71,197.12
2523,E4,760.0,2.0,71,197.12
2524,D3,760.0,2.0,59,197.12
2525,E3,760.0,2.0,59,197.12
2526,G#3,760.0,2.0,59,197.12
2527,B3,760.0,2.0,59,197.12
2528,E-5,762.0,0.25,78,197.12
2529,E-3,762.0,1.0,70,197.12
2530,G#3,762.0,1.0,70,197.12
2531,C4,762.0,1.0,70,197.12
2532,C5,762.5,0.25,72,197.12
2533,G#4,763.0,0.25,75,197.12
2534,E-4,763.5,0.25,72,197.12
2535,C4,764.0,0.25,76,197.12
2536,E-5,765.0,0.25,74,197.12
2537,G#2,765.0,1.0,65,197.12
2538,C5,765.5,0.25,67,197.12
2539,G#4,766.0,0.25,71,197.12
2540,E-3,766.0,1.0,51,197.12
2541,G#3,766.0,1.0,51,197.12
2542,C4,766.0,1.0,51,197.12
2543,E-4,766.5,0.25,67,197.12
2544,C4,767.0,0.25,71,197.12
2545,E-5,768.0,0.25,65,197.12
2546,G#2,768.0,1.0,58,197.12
2547,C5,768.5,0.25,60,197.12
2548,G#4,769.0,0.25,62,197.12
2549,E-3,769.0,1.0,45,197.12
2550,G#3,769.0,1.0,45,197.12
2551,C4,769.0,1.0,45,197.12
2552,E-4,769.5,0.25,59,197.12
2553,C4,770.0,0.25,62,197.12
2554,E-5,771.0,0.25,61,197.12
2555,G#2,771.0,1.0,53,197.12
2556,C5,771.5,0.25,56,197.12
2557,G#4,772.0,0.25,58,197.12
2558,E-3,772.0,1.0,41,197.12
2559,G#3,772.0,1.0,41,197.12
2560,C4,772.0,1.0,41,197.12
2561,E-4,772.5,0.25,55,197.12
2562,C4,773.0,0.25,58,197.12
2563,E-5,774.0,0.25,56,197.12
2564,G#2,774.0,1.0,49,197.12
2565,C5,774.5,0.25,51,197.12
2566,G#4,775.0,0.25,53,197.12
2567,E-3,775.0,1.0,39,197.12
2568,G#3,775.0,1.0,39,197.12
2569,C4,775.0,1.0,39,197.12
2570,E-4,775.5,0.25,51,197.12
2571,C4,776.0,0.25,55,197.12
2572,G#2,777.0,1.0,49,197.12
2573,C4,777.5,0.5,46,197.12
2574,E-4,778.0,0.5,48,197.12
2575,E-3,778.0,2.0,39,197.12
2576,G#3,778.0,2.0,39,197.12
2577,C4,778.0,2.0,39,197.12
2578,G#4,778.5,0.5,49,197.12
2579,C5,779.0,0.5,51,197.12
2580,E-5,779.5,0.5,52,197.12
2581,F5,780.0,0.5,55,197.12
2582,E-5,780.5,0.5,52,197.12
2583,C5,781.0,0.5,51,197.12
2584,E-3,781.0,1.0,39,197.12
2585,G#3,781.0,1.0,39,197.12
2586,C4,781.0,1.0,39,197.12
2587,G#4,781.5,0.5,49,197.12
2588,C5,782.0,0.5,51,197.12
2589,G#3,782.0,0.25,35,197.12
2590,C4,782.0,0.25,35,197.12
2591,E-4,782.0,0.25,35,197.12
2592,E-5,782.5,0.5,55,197.12
2593,G#5,783.0,0.25,58,197.12
2594,G#3,783.0,0.25,35,197.12
2595,C4,783.0,0.25,35,197.12
2596,E-4,783.0,0.25,35,197.12
2597,C6,784.0,0.25,55,197.12
2598,G#5,784.0,0.25,55,197.12
2599,G#3,784.0,0.25,37,197.12
2600,C4,784.0,0.25,37,197.12
2601,E-4,784.0,0.25,37,197.12
2602,E-6,785.0,0.25,55,197.12
2603,C6,785.0,0.25,55,197.12
2604,G#5,785.0,0.25,55,197.12
2605,G#4,785.0,0.25,35,197.12
2606,C5,785.0,0.25,35,197.12
2607,E-5,785.0,0.25,35,197.12
2608,G#6,786.0,0.25,57,197.12
2609,C6,786.0,0.25,57,197.12
2610,G#5,786.0,0.25,57,197.12
2611,G#4,786.0,0.25,35,197.12
2612,C5,786.0,0.25,35,197.12
2613,E-5,786.0,0.25,35,197.12
2614,G#4,787.0,0.25,39,197.12
2615,C5,787.0,0.25,39,197.12
2616,E-5,787.0,0.25,39,197.12
