,note_name,start_time,duration,velocity,tempo
0,A5,0.002,499/500,88,131.0
1,A3,0.002,249/500,74,131.0
2,F#5,0.002,249/500,79,131.0
3,D5,0.002,249/500,79,131.0
4,F#3,0.002,499/500,64,131.0
5,D3,0.002,499/500,64,131.0
6,A4,0.5,0.5,74,131.0
7,D4,0.5,0.5,60,131.0
8,E5,1.0,1.0,84,131.0
9,B-3,1.0,0.5,71,131.0
10,B-4,1.0,0.5,75,131.0
11,D5,1.0,0.5,75,131.0
12,G3,1.0,1.0,62,131.0
13,D3,1.0,1.0,62,131.0
14,E4,1.5,0.5,69,131.0
15,D4,1.5,0.5,55,131.0
16,A5,2.0,1.0,88,131.0
17,A3,2.0,0.5,74,131.0
18,D5,2.0,0.5,79,131.0
19,F#5,2.0,0.5,79,131.0
20,F#3,2.0,1.0,64,131.0
21,D3,2.0,1.0,64,131.0
22,A4,2.5,0.5,75,131.0
23,D4,2.5,0.5,61,131.0
24,E5,3.0,1.0,84,131.0
25,B-3,3.0,0.5,71,131.0
26,B-4,3.0,0.5,75,131.0
27,D5,3.0,0.5,75,131.0
28,D3,3.0,1.0,62,131.0
29,G3,3.0,1.0,62,131.0
30,E4,3.5,0.5,70,131.0
31,D4,3.5,0.5,53,131.0
32,D5,4.0,0.125,72,131.0
33,D4,4.0,2.0,66,131.0
34,A4,4.0,2.0,66,131.0
35,F#4,4.0,2.0,66,131.0
36,C4,4.0,2.0,66,131.0
37,E5,4.25,0.125,67,131.0
38,D5,4.5,0.125,71,131.0
39,E5,4.75,0.125,67,131.0
40,F#5,5.0,0.25,72,131.0
41,F#5,5.5,0.25,68,131.0
42,E5,6.0,0.5,73,131.0
43,B-3,6.0,0.125,70,131.0
44,G4,6.0,1.0,66,131.0
45,D5,6.0,1.0,66,131.0
46,A3,6.25,0.125,66,131.0
47,G5,6.5,0.5,69,131.0
48,G3,6.5,0.125,70,131.0
49,F#3,6.75,0.125,67,131.0
50,C#5,7.0,0.5,64,131.0
51,E5,7.0,1.0,72,131.0
52,E3,7.0,0.5,72,131.0
53,A4,7.5,0.5,68,131.0
54,A3,7.5,0.5,66,131.0
55,A5,8.0,1.0,88,131.0
56,A3,8.0,0.5,74,131.0
57,D5,8.0,0.5,79,131.0
58,F#5,8.0,0.5,79,131.0
59,F#3,8.0,1.0,64,131.0
60,D3,8.0,1.0,64,131.0
61,A4,8.5,0.5,75,131.0
62,D4,8.5,0.5,62,131.0
63,E5,9.0,1.0,84,131.0
64,B-3,9.0,0.5,71,131.0
65,B-4,9.0,0.5,75,131.0
66,D5,9.0,0.5,75,131.0
67,G3,9.0,1.0,62,131.0
68,D3,9.0,1.0,62,131.0
69,E4,9.5,0.5,73,131.0
70,D4,9.5,0.5,59,131.0
71,A5,10.0,1.0,88,131.0
72,A3,10.0,0.5,74,131.0
73,D5,10.0,0.5,79,131.0
74,F#5,10.0,0.5,79,131.0
75,F#3,10.0,1.0,64,131.0
76,D3,10.0,1.0,64,131.0
77,A4,10.5,0.5,75,131.0
78,D4,10.5,0.5,62,131.0
79,E5,11.0,1.0,84,131.0
80,B-3,11.0,0.5,71,131.0
81,B-4,11.0,0.5,75,131.0
82,D5,11.0,0.5,75,131.0
83,G3,11.0,1.0,62,131.0
84,D3,11.0,1.0,62,131.0
85,E4,11.5,0.5,72,131.0
86,D4,11.5,0.5,55,131.0
87,D5,12.0,0.125,77,131.0
88,D4,12.0,2.0,66,131.0
89,C4,12.0,2.0,66,131.0
90,F#4,12.0,2.0,66,131.0
91,A4,12.0,2.0,66,131.0
92,E5,12.25,0.125,73,131.0
93,D5,12.5,0.125,78,131.0
94,E5,12.75,0.125,73,131.0
95,F#5,13.0,0.25,80,131.0
96,F#5,13.5,0.25,72,131.0
97,D5,14.0,0.125,80,131.0
98,E5,14.0,0.125,80,131.0
99,B-3,14.0,0.125,60,131.0
100,D4,14.0,0.125,60,131.0
101,F#5,14.25,0.125,81,131.0
102,G5,14.5,0.125,83,131.0
103,B-3,14.5,0.125,66,131.0
104,A5,14.75,0.125,85,131.0
105,A3,14.75,0.125,68,131.0
106,B-5,15.0,0.5,86,131.0
107,G3,15.0,0.5,71,131.0
108,E-3,16.0,1.0,41,131.0
109,G2,16.0,1.0,41,131.0
110,C#4,16.25,0.25,42,131.0
111,E-4,16.25,0.25,42,131.0
112,B-3,16.5,0.5,37,131.0
113,C#4,16.75,0.25,42,131.0
114,E-4,16.75,0.25,42,131.0
115,C4,17.0,1.0,47,131.0
116,G#3,17.0,1.0,43,131.0
117,C5,17.5,0.5,42,131.0
118,E-4,17.5,0.5,42,131.0
119,E-3,17.5,0.5,37,131.0
120,G#2,17.5,0.5,37,131.0
121,F3,18.0,1.0,44,131.0
122,A2,18.0,1.0,44,131.0
123,E-4,18.25,0.25,46,131.0
124,F4,18.25,0.25,46,131.0
125,C4,18.5,0.5,40,131.0
126,E-4,18.75,0.25,46,131.0
127,F4,18.75,0.25,46,131.0
128,D4,19.0,1.0,52,131.0
129,B-3,19.0,1.0,48,131.0
130,D5,19.5,0.5,44,131.0
131,F4,19.5,0.5,44,131.0
132,B-2,19.5,0.5,40,131.0
133,F3,19.5,0.5,40,131.0
134,D4,20.0,1.0,49,131.0
135,B2,20.0,0.5,45,131.0
136,G3,20.0,1.0,45,131.0
137,B3,20.5,0.5,38,131.0
138,G4,20.5,0.5,39,131.0
139,D5,20.5,0.5,39,131.0
140,F4,20.5,0.5,39,131.0
141,E-4,21.0,1.0,50,131.0
142,G3,21.0,1.0,47,131.0
143,C3,21.0,0.5,47,131.0
144,C4,21.5,0.5,39,131.0
145,E-5,21.5,0.5,40,131.0
146,G4,21.5,0.5,40,131.0
147,F4,22.0,1.0,54,131.0
148,G3,22.0,1.0,49,131.0
149,D3,22.0,0.5,49,131.0
150,D4,22.5,0.5,41,131.0
151,B4,22.5,0.5,40,131.0
152,G5,22.5,0.5,40,131.0
153,E-4,23.0,1.0,53,131.0
154,G3,23.0,1.0,47,131.0
155,C3,23.0,0.5,47,131.0
156,C4,23.5,0.5,40,131.0
157,E-5,23.5,0.5,42,131.0
158,G4,23.5,0.5,42,131.0
159,B2,24.0,1.0,46,131.0
160,G3,24.0,1.0,46,131.0
161,F4,24.25,0.25,47,131.0
162,G4,24.25,0.25,47,131.0
163,D4,24.5,0.5,42,131.0
164,F4,24.75,0.25,48,131.0
165,G4,24.75,0.25,48,131.0
166,E4,25.0,1.0,53,131.0
167,C4,25.0,1.0,51,131.0
168,E5,25.5,0.5,46,131.0
169,G4,25.5,0.5,46,131.0
170,G3,25.5,0.5,42,131.0
171,C3,25.5,0.5,42,131.0
172,C#3,26.0,1.0,52,131.0
173,A3,26.0,1.0,52,131.0
174,G4,26.25,0.25,53,131.0
175,A4,26.25,0.25,53,131.0
176,E4,26.5,0.5,46,131.0
177,G4,26.75,0.25,53,131.0
178,A4,26.75,0.25,53,131.0
179,F4,27.0,1.0,58,131.0
180,D4,27.0,1.0,54,131.0
181,F5,27.5,0.5,50,131.0
182,A4,27.5,0.5,50,131.0
183,D3,27.5,0.5,47,131.0
184,A3,27.5,0.5,47,131.0
185,E4,28.0,1.0,58,131.0
186,A3,28.0,1.0,54,131.0
187,C#3,28.0,0.5,54,131.0
188,C#4,28.5,0.5,46,131.0
189,G4,28.5,0.5,46,131.0
190,E5,28.5,0.5,46,131.0
191,A4,28.5,0.5,46,131.0
192,F4,29.0,1.0,59,131.0
193,A3,29.0,1.0,56,131.0
194,D3,29.0,0.5,56,131.0
195,D4,29.5,0.5,47,131.0
196,F5,29.5,0.5,49,131.0
197,A4,29.5,0.5,49,131.0
198,G4,30.0,1.0,65,131.0
199,A3,30.0,1.0,57,131.0
200,E3,30.0,0.5,57,131.0
201,E4,30.5,0.5,49,131.0
202,C#5,30.5,0.5,50,131.0
203,A5,30.5,0.5,50,131.0
204,F4,31.0,1.0,62,131.0
205,D3,31.0,0.5,56,131.0
206,A3,31.0,1.0,56,131.0
207,D4,31.5,0.5,48,131.0
208,F5,31.5,0.5,52,131.0
209,A4,31.5,0.5,52,131.0
210,E4,32.0,1.0,66,131.0
211,C#3,32.0,0.5,58,131.0
212,A3,32.0,1.0,58,131.0
213,C#4,32.5,0.5,49,131.0
214,A4,32.5,0.5,52,131.0
215,E5,32.5,0.5,52,131.0
216,G4,32.5,0.5,52,131.0
217,F4,33.0,1.0,66,131.0
218,A3,33.0,1.0,61,131.0
219,D3,33.0,0.5,61,131.0
220,D4,33.5,0.5,52,131.0
221,F5,33.5,0.5,54,131.0
222,A4,33.5,0.5,54,131.0
223,A4,34.0,1.0,70,131.0
224,B3,34.0,1.0,63,131.0
225,E-3,34.0,0.5,63,131.0
226,E-4,34.5,0.5,53,131.0
227,F#5,34.5,0.5,54,131.0
228,B5,34.5,0.5,54,131.0
229,G4,35.0,1.0,67,131.0
230,B3,35.0,1.0,60,131.0
231,E3,35.0,0.5,60,131.0
232,E4,35.5,0.5,52,131.0
233,G5,35.5,0.5,56,131.0
234,B4,35.5,0.5,56,131.0
235,F#4,36.0,1.0,71,131.0
236,B3,36.0,1.0,64,131.0
237,E-3,36.0,0.5,64,131.0
238,E-4,36.5,0.5,54,131.0
239,B4,36.5,0.5,59,131.0
240,F#5,36.5,0.5,59,131.0
241,A4,36.5,0.5,59,131.0
242,G4,37.0,1.0,74,131.0
243,B3,37.0,1.0,66,131.0
244,E3,37.0,0.5,66,131.0
245,E4,37.5,0.5,56,131.0
246,G5,37.5,0.5,61,131.0
247,B4,37.5,0.5,61,131.0
248,B4,38.0,1.0,76,131.0
249,C#4,38.0,1.0,67,131.0
250,F3,38.0,0.5,67,131.0
251,F4,38.5,0.5,57,131.0
252,G#5,38.5,0.5,62,131.0
253,C#6,38.5,0.5,62,131.0
254,A4,39.0,1.0,75,131.0
255,C#4,39.0,1.0,65,131.0
256,F#3,39.0,0.5,65,131.0
257,F#4,39.5,0.5,56,131.0
258,A5,39.5,0.5,64,131.0
259,C#5,39.5,0.5,64,131.0
260,C5,40.0,1.0,82,131.0
261,D4,40.0,1.0,72,131.0
262,F#3,40.0,0.5,72,131.0
263,F#4,40.5,0.5,60,131.0
264,A5,40.5,0.5,64,131.0
265,D6,40.5,0.5,64,131.0
266,B4,41.0,1.0,78,131.0
267,D4,41.0,1.0,70,131.0
268,G3,41.0,0.5,70,131.0
269,G4,41.5,0.5,60,131.0
270,B5,41.5,0.5,68,131.0
271,D5,41.5,0.5,68,131.0
272,C5,42.0,1.0,83,131.0
273,F#3,42.0,0.5,73,131.0
274,D4,42.0,1.0,73,131.0
275,F#4,42.5,0.5,61,131.0
276,A5,42.5,0.5,66,131.0
277,D6,42.5,0.5,66,131.0
278,B4,43.0,1.0,79,131.0
279,G3,43.0,0.5,71,131.0
280,D4,43.0,1.0,71,131.0
281,G4,43.5,0.5,60,131.0
282,B5,43.5,0.5,66,131.0
283,D5,43.5,0.5,66,131.0
284,E6,44.0,0.125,86,131.0
285,B-4,44.0,0.25,72,131.0
286,D5,44.0,0.25,72,131.0
287,G4,44.0,0.25,72,131.0
288,D6,44.25,0.125,74,131.0
289,B-5,44.5,0.125,80,131.0
290,A5,44.75,0.125,72,131.0
291,G5,45.0,0.25,77,131.0
292,E5,45.0,0.125,79,131.0
293,D5,45.25,0.125,71,131.0
294,B-4,45.5,0.125,74,131.0
295,A4,45.75,0.125,68,131.0
296,E4,46.0,0.125,74,131.0
297,G4,46.0,0.25,82,131.0
298,D4,46.25,0.125,63,131.0
299,B-3,46.5,0.125,70,131.0
300,A3,46.75,0.125,64,131.0
301,G3,47.0,0.25,75,131.0
302,E3,47.0,0.125,71,131.0
303,D3,47.25,0.125,62,131.0
304,B-2,47.5,0.125,66,131.0
305,A2,47.75,0.125,58,131.0
306,G2,48.0,0.25,75,131.0
307,G2,48.5,0.25,69,131.0
308,G#2,49.0,0.25,74,131.0
309,D4,49.0,1.0,72,131.0
310,E4,49.0,1.0,72,131.0
311,A2,49.25,0.25,62,131.0
312,B-2,49.5,0.25,68,131.0
313,G#2,49.75,0.25,60,131.0
314,A2,50.0,0.5,73,131.0
315,D4,50.0,0.5,72,131.0
316,E4,50.0,0.5,72,131.0
317,C#4,50.5,0.375,80,131.0
318,E4,50.5,0.375,80,131.0
319,A4,50.5,0.375,80,131.0
320,A2,50.5,0.375,71,131.0
321,G3,50.5,0.375,71,131.0
322,D4,51.0,0.5,86,131.0
323,A4,51.0,0.5,86,131.0
324,D5,51.0,0.5,86,131.0
325,F#3,51.0,0.5,77,131.0
326,D3,51.0,0.5,77,131.0
327,F#5,52.0,0.125,78,131.0
328,E5,52.25,0.125,71,131.0
329,D5,52.5,0.125,73,131.0
330,C#5,52.75,0.125,68,131.0
331,B4,53.0,0.5,75,131.0
332,F#4,53.0,0.5,52,131.0
333,B3,53.0,0.5,52,131.0
334,D4,53.0,0.5,52,131.0
335,C#5,53.5,0.5,66,131.0
336,C#4,54.0,1.0,77,131.0
337,F#3,54.0,0.125,70,131.0
338,E3,54.25,0.125,60,131.0
339,D3,54.5,0.125,62,131.0
340,B-4,54.5,0.5,69,131.0
341,F#4,54.5,0.5,69,131.0
342,C#3,54.75,0.125,58,131.0
343,D4,55.0,1.0,77,131.0
344,B2,55.0,0.25,69,131.0
345,B4,55.5,0.5,69,131.0
346,F#4,55.5,0.5,69,131.0
347,C#4,56.0,1.0,71,131.0
348,B3,56.0,1.0,52,131.0
349,G3,56.0,0.5,47,131.0
350,C#5,56.25,0.25,52,131.0
351,G4,56.5,0.25,59,131.0
352,B2,56.5,0.5,44,131.0
353,B4,56.75,0.25,55,131.0
354,D4,57.0,1.0,66,131.0
355,B3,57.0,1.0,55,131.0
356,F#3,57.0,0.5,48,131.0
357,D5,57.25,0.25,59,131.0
358,F#4,57.5,0.25,62,131.0
359,A2,57.5,0.5,45,131.0
360,B4,57.75,0.25,59,131.0
361,G4,58.0,1.0,73,131.0
362,B3,58.0,1.0,56,131.0
363,G3,58.0,0.5,49,131.0
364,E3,58.0,0.5,49,131.0
365,G5,58.25,0.25,60,131.0
366,B4,58.5,0.25,66,131.0
367,B2,58.5,0.5,46,131.0
368,E5,58.75,0.25,59,131.0
369,F#4,59.0,1.0,70,131.0
370,B3,59.0,1.0,47,131.0
371,D3,59.0,0.5,41,131.0
372,F#3,59.0,0.5,41,131.0
373,F#5,59.25,0.25,53,131.0
374,B4,59.5,0.25,58,131.0
375,B2,59.5,0.5,36,131.0
376,D5,59.75,0.25,52,131.0
377,F#5,60.0,0.125,73,131.0
378,E5,60.25,0.125,67,131.0
379,D5,60.5,0.125,70,131.0
380,C#5,60.75,0.125,63,131.0
381,B4,61.0,0.5,75,131.0
382,F#4,61.0,0.5,52,131.0
383,B3,61.0,0.5,52,131.0
384,D4,61.0,0.5,52,131.0
385,C#5,61.5,0.5,66,131.0
386,C#4,62.0,1.0,77,131.0
387,F#3,62.0,0.125,64,131.0
388,E3,62.25,0.125,58,131.0
389,D3,62.5,0.125,62,131.0
390,B-4,62.5,0.5,69,131.0
391,F#4,62.5,0.5,69,131.0
392,C#3,62.75,0.125,58,131.0
393,D4,63.0,1.0,77,131.0
394,B2,63.0,0.25,63,131.0
395,B4,63.5,0.5,69,131.0
396,F#4,63.5,0.5,69,131.0
397,C#4,64.0,1.0,71,131.0
398,G3,64.0,0.5,47,131.0
399,B3,64.0,1.0,52,131.0
400,C#5,64.25,0.25,52,131.0
401,G4,64.5,0.25,59,131.0
402,B2,64.5,0.5,44,131.0
403,B4,64.75,0.25,55,131.0
404,D4,65.0,1.0,66,131.0
405,F#3,65.0,0.5,48,131.0
406,B3,65.0,1.0,55,131.0
407,D5,65.25,0.25,59,131.0
408,F#4,65.5,0.25,62,131.0
409,A2,65.5,0.5,45,131.0
410,B4,65.75,0.25,59,131.0
411,G4,66.0,1.0,73,131.0
412,B3,66.0,1.0,56,131.0
413,G3,66.0,0.5,49,131.0
414,E3,66.0,0.5,49,131.0
415,G5,66.25,0.25,60,131.0
416,B4,66.5,0.25,66,131.0
417,B2,66.5,0.5,46,131.0
418,E5,66.75,0.25,59,131.0
419,F#4,67.0,1.0,70,131.0
420,B3,67.0,1.0,47,131.0
421,D3,67.0,0.5,41,131.0
422,F#3,67.0,0.5,41,131.0
423,F#5,67.25,0.25,53,131.0
424,B4,67.5,0.25,58,131.0
425,B2,67.5,0.5,36,131.0
426,D5,67.75,0.25,52,131.0
427,B2,68.0,0.125,59,131.0
428,C#3,68.25,0.125,53,131.0
429,D3,68.5,0.125,55,131.0
430,B3,68.5,1.0,48,131.0
431,D4,68.5,1.0,48,131.0
432,E3,68.75,0.125,50,131.0
433,F3,69.0,0.125,57,131.0
434,F#3,69.5,0.5,58,131.0
435,B3,69.5,0.5,52,131.0
436,D4,69.5,0.5,52,131.0
437,A3,70.0,0.5,60,131.0
438,B3,70.0,0.5,52,131.0
439,D4,70.0,0.5,52,131.0
440,G#3,70.5,0.5,55,131.0
441,B3,70.5,1.0,51,131.0
442,D4,70.5,1.0,51,131.0
443,G3,71.0,0.5,57,131.0
444,F#3,71.5,0.125,51,131.0
445,B3,71.5,0.125,44,131.0
446,D4,71.5,0.125,44,131.0
447,B4,72.0,0.125,64,131.0
448,F3,72.0,1.0,51,131.0
449,B-4,72.25,0.125,58,131.0
450,A4,72.5,0.125,60,131.0
451,D4,72.5,1.0,44,131.0
452,B3,72.5,1.0,44,131.0
453,G#4,72.75,0.125,55,131.0
454,G4,73.0,0.125,62,131.0
455,E3,73.0,1.0,51,131.0
456,G#4,73.5,0.5,63,131.0
457,B3,73.5,0.5,42,131.0
458,D4,73.5,0.5,42,131.0
459,C#5,74.0,0.5,72,131.0
460,D3,74.0,1.0,51,131.0
461,B3,74.0,0.5,42,131.0
462,D4,74.0,0.5,42,131.0
463,B4,74.5,0.5,60,131.0
464,B3,74.5,0.5,44,131.0
465,E4,74.5,0.5,44,131.0
466,G#3,74.5,0.5,44,131.0
467,E-4,75.0,0.5,62,131.0
468,C#3,75.0,1.0,51,131.0
469,E4,75.5,0.125,56,131.0
470,A3,75.5,0.125,44,131.0
471,E3,75.5,0.125,44,131.0
472,C#4,75.5,0.125,44,131.0
473,C#3,76.0,0.125,59,131.0
474,D3,76.25,0.125,53,131.0
475,E3,76.5,0.125,55,131.0
476,C#4,76.5,1.0,48,131.0
477,E4,76.5,1.0,48,131.0
478,F#3,76.75,0.125,50,131.0
479,G3,77.0,0.125,57,131.0
480,G#3,77.5,0.5,58,131.0
481,C#4,77.5,0.5,52,131.0
482,E4,77.5,0.5,52,131.0
483,B3,78.0,0.5,60,131.0
484,C#4,78.0,0.5,52,131.0
485,E4,78.0,0.5,52,131.0
486,B-3,78.5,0.5,55,131.0
487,C#4,78.5,1.0,51,131.0
488,E4,78.5,1.0,51,131.0
489,A3,79.0,0.5,57,131.0
490,G#3,79.5,0.25,51,131.0
491,C#4,79.5,0.25,44,131.0
492,E4,79.5,0.25,44,131.0
493,C#5,80.0,0.125,64,131.0
494,G3,80.0,1.0,51,131.0
495,C5,80.25,0.125,58,131.0
496,B4,80.5,0.125,60,131.0
497,C#4,80.5,1.0,44,131.0
498,E4,80.5,1.0,44,131.0
499,B-4,80.75,0.125,55,131.0
500,A4,81.0,0.125,62,131.0
501,F#3,81.0,1.0,51,131.0
502,B-4,81.5,0.5,63,131.0
503,E4,81.5,0.5,42,131.0
504,C#4,81.5,0.5,42,131.0
505,D5,82.0,0.5,72,131.0
506,E3,82.0,1.0,51,131.0
507,E4,82.0,0.5,42,131.0
508,C#4,82.0,0.5,42,131.0
509,C#5,82.5,0.5,60,131.0
510,C#4,82.5,0.5,44,131.0
511,F#4,82.5,0.5,44,131.0
512,B-3,82.5,0.5,44,131.0
513,F4,83.0,0.5,62,131.0
514,D3,83.0,1.0,51,131.0
515,F#4,83.5,0.125,56,131.0
516,B3,83.5,0.125,44,131.0
517,F#3,83.5,0.125,44,131.0
518,D4,83.5,0.125,44,131.0
519,B4,84.0,0.125,83,131.0
520,B2,84.0,0.125,74,131.0
521,C#5,84.25,0.125,74,131.0
522,C#3,84.25,0.125,64,131.0
523,D5,84.5,0.125,80,131.0
524,D3,84.5,0.125,70,131.0
525,E5,84.75,0.125,73,131.0
526,E3,84.75,0.125,62,131.0
527,F#5,85.0,0.125,85,131.0
528,F#3,85.0,0.125,75,131.0
529,D5,85.5,0.375,72,131.0
530,B4,85.5,0.375,72,131.0
531,G4,85.5,0.375,72,131.0
532,G5,85.5,0.375,72,131.0
533,B2,85.5,0.375,62,131.0
534,D3,85.5,0.375,62,131.0
535,G3,85.5,0.375,62,131.0
536,G2,85.5,0.375,62,131.0
537,F4,86.0,1.0,84,131.0
538,F2,86.0,1.0,71,131.0
539,F5,86.5,0.5,78,131.0
540,F3,86.5,0.5,64,131.0
541,F#4,87.0,1.0,85,131.0
542,F#2,87.0,1.0,72,131.0
543,F#5,87.5,0.5,77,131.0
544,F#3,87.5,0.5,63,131.0
545,B4,88.0,0.125,83,131.0
546,B2,88.0,0.125,74,131.0
547,C#5,88.25,0.125,77,131.0
548,C#3,88.25,0.125,63,131.0
549,D5,88.5,0.125,80,131.0
550,D3,88.5,0.125,70,131.0
551,E5,88.75,0.125,75,131.0
552,E3,88.75,0.125,64,131.0
553,F#5,89.0,0.125,85,131.0
554,F#3,89.0,0.125,75,131.0
555,G4,89.5,0.375,72,131.0
556,B4,89.5,0.375,72,131.0
557,D5,89.5,0.375,72,131.0
558,G5,89.5,0.375,72,131.0
559,B2,89.5,0.375,62,131.0
560,G2,89.5,0.375,62,131.0
561,G3,89.5,0.375,62,131.0
562,D3,89.5,0.375,62,131.0
563,F4,90.0,1.0,84,131.0
564,F2,90.0,1.0,71,131.0
565,F5,90.5,0.5,78,131.0
566,F3,90.5,0.5,64,131.0
567,F#4,91.0,1.0,85,131.0
568,F#2,91.0,1.0,72,131.0
569,F#5,91.5,0.5,77,131.0
570,F#3,91.5,0.5,63,131.0
571,D5,92.0,0.125,83,131.0
572,D3,92.0,0.125,74,131.0
573,E5,92.25,0.125,74,131.0
574,E3,92.25,0.125,61,131.0
575,F#5,92.5,0.125,80,131.0
576,F#3,92.5,0.125,69,131.0
577,G5,92.75,0.125,75,131.0
578,G3,92.75,0.125,60,131.0
579,A5,93.0,0.125,85,131.0
580,A3,93.0,0.125,75,131.0
581,B-4,93.5,0.375,74,131.0
582,B-5,93.5,0.375,74,131.0
583,F5,93.5,0.375,74,131.0
584,D5,93.5,0.375,74,131.0
585,B-2,93.5,0.375,63,131.0
586,F3,93.5,0.375,63,131.0
587,D3,93.5,0.375,63,131.0
588,B-3,93.5,0.375,63,131.0
589,G#4,94.0,1.0,84,131.0
590,G#2,94.0,1.0,71,131.0
591,G#5,94.5,0.5,78,131.0
592,G#3,94.5,0.5,64,131.0
593,A4,95.0,1.0,85,131.0
594,A2,95.0,1.0,72,131.0
595,A5,95.5,0.5,77,131.0
596,A3,95.5,0.5,63,131.0
597,D5,96.0,0.125,83,131.0
598,D3,96.0,0.125,74,131.0
599,E5,96.25,0.125,75,131.0
600,E3,96.25,0.125,64,131.0
601,F#5,96.5,0.125,80,131.0
602,F#3,96.5,0.125,70,131.0
603,G5,96.75,0.125,75,131.0
604,G3,96.75,0.125,64,131.0
605,A5,97.0,0.125,85,131.0
606,A3,97.0,0.125,75,131.0
607,F5,97.5,0.375,74,131.0
608,B-5,97.5,0.375,74,131.0
609,B-4,97.5,0.375,74,131.0
610,D5,97.5,0.375,74,131.0
611,D3,97.5,0.375,63,131.0
612,F3,97.5,0.375,63,131.0
613,B-3,97.5,0.375,63,131.0
614,B-2,97.5,0.375,63,131.0
615,G#4,98.0,1.0,84,131.0
616,G#2,98.0,1.0,71,131.0
617,G#5,98.5,0.5,78,131.0
618,G#3,98.5,0.5,64,131.0
619,A4,99.0,1.0,85,131.0
620,A2,99.0,1.0,72,131.0
621,A5,99.5,0.5,77,131.0
622,A3,99.5,0.5,63,131.0
623,G#4,100.0,1.0,84,131.0
624,G#2,100.0,1.0,71,131.0
625,G#5,100.5,0.5,78,131.0
626,G#3,100.5,0.5,64,131.0
627,A4,101.0,1.0,85,131.0
628,A2,101.0,1.0,72,131.0
629,A5,101.5,0.5,77,131.0
630,A3,101.5,0.5,63,131.0
631,B-4,102.0,1.0,84,131.0
632,B-2,102.0,1.0,71,131.0
633,B-5,102.5,0.5,78,131.0
634,B-3,102.5,0.5,64,131.0
635,E4,103.0,1.0,85,131.0
636,E2,103.0,1.0,72,131.0
637,E5,103.5,0.5,77,131.0
638,E3,103.5,0.5,63,131.0
639,G4,104.0,1.0,84,131.0
640,G2,104.0,1.0,71,131.0
641,G5,104.5,0.5,78,131.0
642,G3,104.5,0.5,64,131.0
643,B-3,105.0,1.0,85,131.0
644,B-1,105.0,1.0,72,131.0
645,B-4,105.5,0.5,77,131.0
646,B-2,105.5,0.5,63,131.0
647,D4,106.0,1.0,84,131.0
648,D2,106.0,1.0,71,131.0
649,D5,106.5,0.5,78,131.0
650,D3,106.5,0.5,64,131.0
651,A3,107.0,1.0,85,131.0
652,A1,107.0,1.0,72,131.0
653,A4,107.5,0.5,77,131.0
654,A2,107.5,0.5,63,131.0
655,G#2,108.0,73/250,68,131.0
656,A2,108.25,73/250,59,131.0
657,C3,108.5,73/250,62,131.0
658,C#3,108.75,0.25,57,131.0
659,E-3,109.0,73/250,69,131.0
660,E3,109.25,73/250,61,131.0
661,G#3,109.5,73/250,66,131.0
662,A3,109.75,0.25,60,131.0
663,G#3,110.0,73/250,71,131.0
664,A3,110.25,73/250,63,131.0
665,C4,110.5,73/250,69,131.0
666,C#4,110.75,0.25,63,131.0
667,E-4,111.0,73/250,72,131.0
668,E4,111.25,73/250,64,131.0
669,G#4,111.5,73/250,70,131.0
670,A4,111.75,0.25,64,131.0
671,G#4,112.0,73/250,73,131.0
672,A4,112.25,73/250,62,131.0
673,C5,112.5,73/250,70,131.0
674,C#5,112.75,0.25,61,131.0
675,E-5,113.0,73/250,74,131.0
676,E5,113.25,73/250,64,131.0
677,G#5,113.5,73/250,74,131.0
678,A5,113.75,0.25,69,131.0
679,G#5,114.0,73/250,74,131.0
680,A5,114.25,73/250,66,131.0
681,C6,114.5,73/250,73,131.0
682,C#6,114.75,0.25,64,131.0
683,E-6,115.0,73/250,77,131.0
684,E6,115.25,73/250,67,131.0
685,G#6,115.5,73/250,75,131.0
686,A6,115.75,0.25,67,131.0
687,A5,116.002,499/500,88,131.0
688,A3,116.002,249/500,74,131.0
689,D5,116.002,249/500,79,131.0
690,F#5,116.002,249/500,79,131.0
691,F#3,116.002,499/500,64,131.0
692,D3,116.002,499/500,64,131.0
693,A4,116.5,0.5,72,131.0
694,D4,116.5,0.5,61,131.0
695,E5,117.0,1.0,84,131.0
696,B-3,117.0,0.5,71,131.0
697,D5,117.0,0.5,75,131.0
698,B-4,117.0,0.5,75,131.0
699,D3,117.0,1.0,62,131.0
700,G3,117.0,1.0,62,131.0
701,E4,117.5,0.5,70,131.0
702,D4,117.5,0.5,56,131.0
703,A5,118.0,1.0,88,131.0
704,A3,118.0,0.5,74,131.0
705,F#5,118.0,0.5,79,131.0
706,D5,118.0,0.5,79,131.0
707,D3,118.0,1.0,64,131.0
708,F#3,118.0,1.0,64,131.0
709,A4,118.5,0.5,74,131.0
710,D4,118.5,0.5,61,131.0
711,E5,119.0,1.0,84,131.0
712,B-3,119.0,0.5,71,131.0
713,D5,119.0,0.5,75,131.0
714,B-4,119.0,0.5,75,131.0
715,D3,119.0,1.0,62,131.0
716,G3,119.0,1.0,62,131.0
717,E4,119.5,0.5,70,131.0
718,D4,119.5,0.5,56,131.0
719,D5,120.0,0.125,72,131.0
720,D4,120.0,2.0,66,131.0
721,A4,120.0,2.0,66,131.0
722,F#4,120.0,2.0,66,131.0
723,C4,120.0,2.0,66,131.0
724,E5,120.25,0.125,67,131.0
725,D5,120.5,0.125,70,131.0
726,E5,120.75,0.125,66,131.0
727,F#5,121.0,0.25,72,131.0
728,F#5,121.5,0.25,68,131.0
729,E5,122.0,0.5,73,131.0
730,B-3,122.0,0.125,70,131.0
731,D5,122.0,1.0,66,131.0
732,G4,122.0,1.0,66,131.0
733,A3,122.25,0.125,60,131.0
734,G5,122.5,0.5,69,131.0
735,G3,122.5,0.125,67,131.0
736,F#3,122.75,0.125,60,131.0
737,C#5,123.0,0.5,64,131.0
738,E5,123.0,1.0,72,131.0
739,E3,123.0,0.5,72,131.0
740,A4,123.5,0.5,68,131.0
741,A3,123.5,0.5,66,131.0
742,A5,124.0,1.0,88,131.0
743,A3,124.0,0.5,74,131.0
744,D5,124.0,0.5,79,131.0
745,F#5,124.0,0.5,79,131.0
746,F#3,124.0,1.0,64,131.0
747,D3,124.0,1.0,64,131.0
748,A4,124.5,0.5,73,131.0
749,D4,124.5,0.5,61,131.0
750,E5,125.0,1.0,84,131.0
751,B-3,125.0,0.5,71,131.0
752,B-4,125.0,0.5,75,131.0
753,D5,125.0,0.5,75,131.0
754,G3,125.0,1.0,62,131.0
755,D3,125.0,1.0,62,131.0
756,E4,125.5,0.5,70,131.0
757,D4,125.5,0.5,53,131.0
758,A5,126.0,1.0,88,131.0
759,A3,126.0,0.5,74,131.0
760,D5,126.0,0.5,79,131.0
761,F#5,126.0,0.5,79,131.0
762,F#3,126.0,1.0,64,131.0
763,D3,126.0,1.0,64,131.0
764,A4,126.5,0.5,73,131.0
765,D4,126.5,0.5,60,131.0
766,E5,127.0,1.0,84,131.0
767,B-3,127.0,0.5,71,131.0
768,B-4,127.0,0.5,75,131.0
769,D5,127.0,0.5,75,131.0
770,G3,127.0,1.0,62,131.0
771,D3,127.0,1.0,62,131.0
772,E4,127.5,0.5,69,131.0
773,D4,127.5,0.5,53,131.0
774,D5,128.0,0.125,77,131.0
775,D4,128.0,2.0,66,131.0
776,C4,128.0,2.0,66,131.0
777,F#4,128.0,2.0,66,131.0
778,A4,128.0,2.0,66,131.0
779,E5,128.25,0.125,71,131.0
780,D5,128.5,0.125,77,131.0
781,E5,128.75,0.125,70,131.0
782,F#5,129.0,0.25,80,131.0
783,F#5,129.5,0.25,72,131.0
784,D5,130.0,0.125,80,131.0
785,E5,130.0,0.125,80,131.0
786,B-3,130.0,0.125,60,131.0
787,D4,130.0,0.125,60,131.0
788,F#5,130.25,0.125,81,131.0
789,G5,130.5,0.125,83,131.0
790,B-3,130.5,0.125,66,131.0
791,A5,130.75,0.125,85,131.0
792,A3,130.75,0.125,68,131.0
793,B-5,131.0,0.5,86,131.0
794,G3,131.0,0.5,71,131.0
795,G2,132.0,1.0,41,131.0
796,E-3,132.0,1.0,41,131.0
797,C#4,132.25,0.25,42,131.0
798,E-4,132.25,0.25,42,131.0
799,B-3,132.5,0.5,37,131.0
800,C#4,132.75,0.25,42,131.0
801,E-4,132.75,0.25,42,131.0
802,C4,133.0,1.0,47,131.0
803,G#3,133.0,1.0,43,131.0
804,C5,133.5,0.5,42,131.0
805,E-4,133.5,0.5,42,131.0
806,E-3,133.5,0.5,37,131.0
807,G#2,133.5,0.5,37,131.0
808,A2,134.0,1.0,44,131.0
809,F3,134.0,1.0,44,131.0
810,E-4,134.25,0.25,46,131.0
811,F4,134.25,0.25,46,131.0
812,C4,134.5,0.5,40,131.0
813,E-4,134.75,0.25,46,131.0
814,F4,134.75,0.25,46,131.0
815,D4,135.0,1.0,52,131.0
816,B-3,135.0,1.0,48,131.0
817,D5,135.5,0.5,44,131.0
818,F4,135.5,0.5,44,131.0
819,B-2,135.5,0.5,40,131.0
820,F3,135.5,0.5,40,131.0
821,D4,136.0,1.0,49,131.0
822,G3,136.0,1.0,45,131.0
823,B2,136.0,1.0,45,131.0
824,B3,136.5,0.5,38,131.0
825,F4,136.5,0.5,39,131.0
826,D5,136.5,0.5,39,131.0
827,G4,136.5,0.5,39,131.0
828,E-4,137.0,1.0,50,131.0
829,G3,137.0,1.0,47,131.0
830,C3,137.0,1.0,47,131.0
831,C4,137.5,0.5,39,131.0
832,E-5,137.5,0.5,40,131.0
833,G4,137.5,0.5,40,131.0
834,F4,138.0,1.0,54,131.0
835,G3,138.0,1.0,49,131.0
836,D3,138.0,1.0,49,131.0
837,D4,138.5,0.5,41,131.0
838,B4,138.5,0.5,40,131.0
839,G5,138.5,0.5,40,131.0
840,E-4,139.0,1.0,53,131.0
841,C3,139.0,1.0,47,131.0
842,G3,139.0,1.0,47,131.0
843,C4,139.5,0.5,40,131.0
844,E-5,139.5,0.5,42,131.0
845,G4,139.5,0.5,42,131.0
846,B2,140.0,1.0,46,131.0
847,G3,140.0,1.0,46,131.0
848,F4,140.25,0.25,47,131.0
849,G4,140.25,0.25,47,131.0
850,D4,140.5,0.5,42,131.0
851,F4,140.75,0.25,48,131.0
852,G4,140.75,0.25,48,131.0
853,E4,141.0,1.0,53,131.0
854,C4,141.0,1.0,51,131.0
855,E5,141.5,0.5,46,131.0
856,G4,141.5,0.5,46,131.0
857,G3,141.5,0.5,42,131.0
858,C3,141.5,0.5,42,131.0
859,A3,142.0,1.0,52,131.0
860,C#3,142.0,1.0,52,131.0
861,G4,142.25,0.25,53,131.0
862,A4,142.25,0.25,53,131.0
863,E4,142.5,0.5,46,131.0
864,G4,142.75,0.25,53,131.0
865,A4,142.75,0.25,53,131.0
866,F4,143.0,1.0,58,131.0
867,D4,143.0,1.0,54,131.0
868,F5,143.5,0.5,50,131.0
869,A4,143.5,0.5,50,131.0
870,A3,143.5,0.5,47,131.0
871,D3,143.5,0.5,47,131.0
872,E4,144.0,1.0,58,131.0
873,A3,144.0,1.0,54,131.0
874,C#3,144.0,0.5,54,131.0
875,C#4,144.5,0.5,46,131.0
876,G4,144.5,0.5,46,131.0
877,E5,144.5,0.5,46,131.0
878,A4,144.5,0.5,46,131.0
879,F4,145.0,1.0,59,131.0
880,A3,145.0,1.0,56,131.0
881,D3,145.0,0.5,56,131.0
882,D4,145.5,0.5,47,131.0
883,F5,145.5,0.5,49,131.0
884,A4,145.5,0.5,49,131.0
885,G4,146.0,1.0,65,131.0
886,A3,146.0,1.0,57,131.0
887,E3,146.0,0.5,57,131.0
888,E4,146.5,0.5,49,131.0
889,C#5,146.5,0.5,50,131.0
890,A5,146.5,0.5,50,131.0
891,F4,147.0,1.0,62,131.0
892,A3,147.0,1.0,56,131.0
893,D3,147.0,0.5,56,131.0
894,D4,147.5,0.5,48,131.0
895,F5,147.5,0.5,52,131.0
896,A4,147.5,0.5,52,131.0
897,E4,148.0,1.0,66,131.0
898,A3,148.0,1.0,58,131.0
899,C#3,148.0,0.5,58,131.0
900,C#4,148.5,0.5,49,131.0
901,G4,148.5,0.5,52,131.0
902,E5,148.5,0.5,52,131.0
903,A4,148.5,0.5,52,131.0
904,F4,149.0,1.0,66,131.0
905,A3,149.0,1.0,61,131.0
906,D3,149.0,0.5,61,131.0
907,D4,149.5,0.5,52,131.0
908,F5,149.5,0.5,54,131.0
909,A4,149.5,0.5,54,131.0
910,A4,150.0,1.0,70,131.0
911,E-3,150.0,0.5,63,131.0
912,B3,150.0,1.0,63,131.0
913,E-4,150.5,0.5,53,131.0
914,F#5,150.5,0.5,54,131.0
915,B5,150.5,0.5,54,131.0
916,G4,151.0,1.0,67,131.0
917,E3,151.0,0.5,60,131.0
918,B3,151.0,1.0,60,131.0
919,E4,151.5,0.5,52,131.0
920,G5,151.5,0.5,56,131.0
921,B4,151.5,0.5,56,131.0
922,F#4,152.0,1.0,71,131.0
923,B3,152.0,1.0,64,131.0
924,E-3,152.0,0.5,64,131.0
925,E-4,152.5,0.5,54,131.0
926,B4,152.5,0.5,59,131.0
927,F#5,152.5,0.5,59,131.0
928,A4,152.5,0.5,59,131.0
929,G4,153.0,1.0,74,131.0
930,B3,153.0,1.0,66,131.0
931,E3,153.0,0.5,66,131.0
932,E4,153.5,0.5,56,131.0
933,G5,153.5,0.5,61,131.0
934,B4,153.5,0.5,61,131.0
935,B4,154.0,1.0,76,131.0
936,C#4,154.0,1.0,67,131.0
937,F3,154.0,0.5,67,131.0
938,F4,154.5,0.5,57,131.0
939,G#5,154.5,0.5,62,131.0
940,C#6,154.5,0.5,62,131.0
941,A4,155.0,1.0,75,131.0
942,F#3,155.0,0.5,65,131.0
943,C#4,155.0,1.0,65,131.0
944,F#4,155.5,0.5,56,131.0
945,A5,155.5,0.5,64,131.0
946,C#5,155.5,0.5,64,131.0
947,C5,156.0,1.0,82,131.0
948,F#3,156.0,0.5,72,131.0
949,D4,156.0,1.0,72,131.0
950,F#4,156.5,0.5,60,131.0
951,A5,156.5,0.5,64,131.0
952,D6,156.5,0.5,64,131.0
953,B4,157.0,1.0,78,131.0
954,G3,157.0,0.5,70,131.0
955,D4,157.0,1.0,70,131.0
956,G4,157.5,0.5,60,131.0
957,B5,157.5,0.5,68,131.0
958,D5,157.5,0.5,68,131.0
959,C5,158.0,1.0,83,131.0
960,F#3,158.0,0.5,73,131.0
961,D4,158.0,1.0,73,131.0
962,F#4,158.5,0.5,61,131.0
963,A5,158.5,0.5,66,131.0
964,D6,158.5,0.5,66,131.0
965,B4,159.0,1.0,79,131.0
966,D4,159.0,1.0,71,131.0
967,G3,159.0,0.5,71,131.0
968,G4,159.5,0.5,60,131.0
969,B5,159.5,0.5,66,131.0
970,D5,159.5,0.5,66,131.0
971,E6,160.0,0.125,86,131.0
972,B-4,160.0,0.25,72,131.0
973,G4,160.0,0.25,72,131.0
974,D5,160.0,0.25,72,131.0
975,D6,160.25,0.125,74,131.0
976,B-5,160.5,0.125,78,131.0
977,A5,160.75,0.125,75,131.0
978,G5,161.0,0.25,77,131.0
979,E5,161.0,0.125,80,131.0
980,D5,161.25,0.125,71,131.0
981,B-4,161.5,0.125,75,131.0
982,A4,161.75,0.125,67,131.0
983,E4,162.0,0.125,74,131.0
984,G4,162.0,0.25,82,131.0
985,D4,162.25,0.125,64,131.0
986,B-3,162.5,0.125,71,131.0
987,A3,162.75,0.125,64,131.0
988,G3,163.0,0.25,75,131.0
989,E3,163.0,0.125,71,131.0
990,D3,163.25,0.125,62,131.0
991,B-2,163.5,0.125,68,131.0
992,A2,163.75,0.125,61,131.0
993,G2,164.0,0.25,75,131.0
994,G2,164.5,0.25,69,131.0
995,G#2,165.0,0.25,74,131.0
996,D4,165.0,1.0,72,131.0
997,E4,165.0,1.0,72,131.0
998,A2,165.25,0.25,66,131.0
999,B-2,165.5,0.25,73,131.0
1000,G#2,165.75,0.25,64,131.0
1001,A2,166.0,0.5,73,131.0
1002,D4,166.0,0.5,72,131.0
1003,E4,166.0,0.5,72,131.0
1004,C#4,166.5,0.375,80,131.0
1005,E4,166.5,0.375,80,131.0
1006,A4,166.5,0.375,80,131.0
1007,G3,166.5,0.375,71,131.0
1008,A2,166.5,0.375,71,131.0
1009,D5,167.0,0.5,86,131.0
1010,A4,167.0,0.5,86,131.0
1011,D4,167.0,0.5,86,131.0
1012,F#3,167.0,0.5,77,131.0
1013,D3,167.0,0.5,77,131.0
1014,F#5,168.0,1.0,91,131.0
1015,F#3,168.0,1.0,73,131.0
1016,D6,168.0,2.0,86,131.0
1017,D5,168.0,2.0,86,131.0
1018,B-2,168.0,2.0,68,131.0
1019,B-3,168.0,2.0,68,131.0
1020,G5,169.0,1.0,79,131.0
1021,G3,169.0,1.0,57,131.0
1022,E5,170.0,1.0,89,131.0
1023,G#3,170.0,1.0,69,131.0
1024,C6,170.0,2.0,84,131.0
1025,C5,170.0,2.0,84,131.0
1026,C4,170.0,2.0,66,131.0
1027,C3,170.0,2.0,66,131.0
1028,F5,171.0,1.0,81,131.0
1029,A3,171.0,1.0,59,131.0
1030,F5,172.0,1.0,89,131.0
1031,A4,172.0,0.75,84,131.0
1032,A5,172.0,0.75,84,131.0
1033,C#3,172.0,1.0,68,131.0
1034,C#4,172.0,1.0,68,131.0
1035,A3,172.0,1.0,68,131.0
1036,B-4,172.75,0.25,68,131.0
1037,B-5,172.75,0.25,68,131.0
1038,G4,173.0,0.5,76,131.0
1039,F5,173.0,0.5,76,131.0
1040,G5,173.0,0.5,76,131.0
1041,D3,173.0,0.5,61,131.0
1042,B-3,173.0,0.5,61,131.0
1043,D4,173.0,0.5,61,131.0
1044,B-3,174.0,1.0,72,131.0
1045,E4,174.0,1.0,72,131.0
1046,A4,174.0,1.0,72,131.0
1047,C3,174.0,1.0,58,131.0
1048,G3,174.0,1.0,58,131.0
1049,A3,175.0,0.5,56,131.0
1050,F4,175.0,0.5,56,131.0
1051,F2,175.0,0.5,47,131.0
1052,C3,175.0,0.5,47,131.0
1053,F1,176.0,0.5,37,131.0
1054,F2,176.0,0.5,37,131.0
1055,A3,176.5,0.5,42,131.0
1056,C4,176.5,0.5,42,131.0
1057,B-3,177.0,1.0,44,131.0
1058,F4,177.0,0.5,49,131.0
1059,F2,177.0,1.0,38,131.0
1060,C3,177.0,1.0,38,131.0
1061,G3,177.0,1.0,38,131.0
1062,E4,177.5,0.5,40,131.0
1063,D4,178.0,0.5,41,131.0
1064,B-3,178.0,1.0,44,131.0
1065,F2,178.0,1.0,38,131.0
1066,C3,178.0,1.0,38,131.0
1067,G3,178.0,1.0,38,131.0
1068,E4,178.5,0.5,38,131.0
1069,A3,179.0,1.0,35,131.0
1070,F4,179.0,1.0,35,131.0
1071,F2,179.0,1.0,27,131.0
1072,C3,179.0,1.0,27,131.0
1073,F3,179.0,1.0,27,131.0
1074,F4,180.0,0.5,39,131.0
1075,A4,180.0,0.5,39,131.0
1076,C5,180.0,0.5,39,131.0
1077,C3,180.5,0.5,37,131.0
1078,F3,181.0,0.5,40,131.0
1079,B-3,181.0,1.0,42,131.0
1080,C#4,181.0,1.0,42,131.0
1081,E3,181.5,0.5,35,131.0
1082,D3,182.0,0.5,38,131.0
1083,B-3,182.0,1.0,42,131.0
1084,C#4,182.0,1.0,42,131.0
1085,E3,182.5,0.5,35,131.0
1086,F3,183.0,1.0,36,131.0
1087,A3,183.0,1.0,30,131.0
1088,C4,183.0,1.0,30,131.0
1089,A3,184.0,0.5,40,131.0
1090,D4,184.5,0.5,49,131.0
1091,D3,184.5,0.5,46,131.0
1092,F2,185.0,0.5,40,131.0
1093,C#5,185.0,0.5,52,131.0
1094,A4,185.0,0.5,52,131.0
1095,D5,185.5,0.5,49,131.0
1096,B-3,186.0,0.5,47,131.0
1097,D4,186.5,0.5,58,131.0
1098,D3,186.5,0.5,51,131.0
1099,G2,187.0,0.5,48,131.0
1100,B-4,187.0,0.5,61,131.0
1101,C#5,187.0,0.5,61,131.0
1102,D5,187.5,0.5,58,131.0
1103,B3,188.0,0.5,56,131.0
1104,E4,188.5,0.5,66,131.0
1105,E3,188.5,0.5,59,131.0
1106,G#2,189.0,0.5,55,131.0
1107,E-5,189.0,0.5,74,131.0
1108,B4,189.0,0.5,74,131.0
1109,E5,189.5,0.5,68,131.0
1110,C#4,190.0,0.5,62,131.0
1111,E4,190.5,0.5,80,131.0
1112,E3,190.5,0.5,68,131.0
1113,A2,191.0,0.5,63,131.0
1114,E-5,191.0,0.5,84,131.0
1115,A4,191.0,0.5,84,131.0
1116,C#5,191.0,0.5,84,131.0
1117,E5,191.5,0.5,80,131.0
1118,F#5,192.0,1.0,91,131.0
1119,F#3,192.0,1.0,73,131.0
1120,D6,192.0,2.0,86,131.0
1121,D5,192.0,2.0,86,131.0
1122,B-2,192.0,2.0,68,131.0
1123,B-3,192.0,2.0,68,131.0
1124,G5,193.0,1.0,83,131.0
1125,G3,193.0,1.0,62,131.0
1126,E5,194.0,1.0,89,131.0
1127,G#3,194.0,1.0,69,131.0
1128,C6,194.0,2.0,84,131.0
1129,C5,194.0,2.0,84,131.0
1130,C4,194.0,2.0,66,131.0
1131,C3,194.0,2.0,66,131.0
1132,F5,195.0,1.0,79,131.0
1133,A3,195.0,1.0,60,131.0
1134,F5,196.0,1.0,89,131.0
1135,A4,196.0,0.75,84,131.0
1136,A5,196.0,0.75,84,131.0
1137,C#3,196.0,1.0,68,131.0
1138,C#4,196.0,1.0,68,131.0
1139,A3,196.0,1.0,68,131.0
1140,B-4,196.75,0.25,68,131.0
1141,B-5,196.75,0.25,68,131.0
1142,G4,197.0,0.5,76,131.0
1143,F5,197.0,0.5,76,131.0
1144,G5,197.0,0.5,76,131.0
1145,D3,197.0,0.5,61,131.0
1146,B-3,197.0,0.5,61,131.0
1147,D4,197.0,0.5,61,131.0
1148,B-3,198.0,1.0,72,131.0
1149,E4,198.0,1.0,72,131.0
1150,A4,198.0,1.0,72,131.0
1151,C3,198.0,1.0,58,131.0
1152,G3,198.0,1.0,58,131.0
1153,A3,199.0,0.5,56,131.0
1154,F4,199.0,0.5,56,131.0
1155,F2,199.0,0.5,47,131.0
1156,C3,199.0,0.5,47,131.0
1157,F1,200.0,0.5,37,131.0
1158,F2,200.0,0.5,37,131.0
1159,A3,200.5,0.5,42,131.0
1160,C4,200.5,0.5,42,131.0
1161,B-3,201.0,1.0,44,131.0
1162,F4,201.0,0.5,49,131.0
1163,F2,201.0,1.0,38,131.0
1164,C3,201.0,1.0,38,131.0
1165,G3,201.0,1.0,38,131.0
1166,E4,201.5,0.5,40,131.0
1167,D4,202.0,0.5,41,131.0
1168,B-3,202.0,1.0,44,131.0
1169,F2,202.0,1.0,38,131.0
1170,C3,202.0,1.0,38,131.0
1171,G3,202.0,1.0,38,131.0
1172,E4,202.5,0.5,38,131.0
1173,A3,203.0,1.0,35,131.0
1174,F4,203.0,1.0,35,131.0
1175,F2,203.0,1.0,27,131.0
1176,C3,203.0,1.0,27,131.0
1177,F3,203.0,1.0,27,131.0
1178,F4,204.0,0.5,39,131.0
1179,A4,204.0,0.5,39,131.0
1180,C5,204.0,0.5,39,131.0
1181,C3,204.5,0.5,37,131.0
1182,F3,205.0,0.5,40,131.0
1183,B-3,205.0,1.0,42,131.0
1184,C#4,205.0,1.0,42,131.0
1185,E3,205.5,0.5,35,131.0
1186,D3,206.0,0.5,38,131.0
1187,B-3,206.0,1.0,42,131.0
1188,C#4,206.0,1.0,42,131.0
1189,E3,206.5,0.5,35,131.0
1190,F3,207.0,1.0,36,131.0
1191,A3,207.0,1.0,30,131.0
1192,C4,207.0,1.0,30,131.0
1193,A3,208.0,0.5,40,131.0
1194,D4,208.5,0.5,48,131.0
1195,D3,208.5,0.5,46,131.0
1196,F2,209.0,0.5,40,131.0
1197,C#5,209.0,0.5,50,131.0
1198,A4,209.0,0.5,50,131.0
1199,D5,209.5,0.5,48,131.0
1200,B-3,210.0,0.5,47,131.0
1201,D4,210.5,0.5,56,131.0
1202,D3,210.5,0.5,51,131.0
1203,G2,211.0,0.5,48,131.0
1204,B-4,211.0,0.5,59,131.0
1205,C#5,211.0,0.5,59,131.0
1206,D5,211.5,0.5,57,131.0
1207,B3,212.0,0.5,56,131.0
1208,E4,212.5,0.5,64,131.0
1209,E3,212.5,0.5,59,131.0
1210,G#2,213.0,0.5,55,131.0
1211,E-5,213.0,0.5,69,131.0
1212,B4,213.0,0.5,69,131.0
1213,E5,213.5,0.5,66,131.0
1214,C#4,214.0,0.5,62,131.0
1215,E4,214.5,0.5,71,131.0
1216,E3,214.5,0.5,68,131.0
1217,A2,215.0,0.5,63,131.0
1218,E-5,215.0,0.5,78,131.0
1219,A4,215.0,0.5,78,131.0
1220,C#5,215.0,0.5,78,131.0
1221,E5,215.5,0.5,72,131.0
1222,C#6,216.0,1.0,89,131.0
1223,F3,216.0,2.0,64,131.0
1224,F6,216.0,2.0,77,131.0
1225,F5,216.0,2.0,77,131.0
1226,A2,216.0,1.0,68,131.0
1227,A3,216.0,1.0,68,131.0
1228,D6,217.0,1.0,89,131.0
1229,B-2,217.0,1.0,62,131.0
1230,B-3,217.0,1.0,62,131.0
1231,E-5,218.0,1.0,89,131.0
1232,G3,218.0,2.0,64,131.0
1233,G5,218.0,2.0,84,131.0
1234,G4,218.0,2.0,84,131.0
1235,B2,218.0,1.0,66,131.0
1236,B3,218.0,1.0,66,131.0
1237,E5,219.0,1.0,85,131.0
1238,C3,219.0,1.0,60,131.0
1239,C4,219.0,1.0,60,131.0
1240,G#5,220.0,1.0,81,131.0
1241,C4,220.0,2.0,63,131.0
1242,C5,220.0,0.75,84,131.0
1243,C6,220.0,0.75,84,131.0
1244,E3,220.0,1.0,66,131.0
1245,E4,220.0,1.0,66,131.0
1246,B4,220.75,0.25,68,131.0
1247,B5,220.75,0.25,68,131.0
1248,A4,221.0,0.5,74,131.0
1249,A5,221.0,0.5,74,131.0
1250,F3,221.0,0.5,60,131.0
1251,F4,221.0,0.5,60,131.0
1252,C#5,222.0,1.0,81,131.0
1253,A3,222.0,1.0,70,131.0
1254,F4,222.0,0.75,84,131.0
1255,F5,222.0,0.75,84,131.0
1256,E4,222.75,0.25,68,131.0
1257,E5,222.75,0.25,68,131.0
1258,B-3,223.0,0.5,63,131.0
1259,D4,223.0,0.5,74,131.0
1260,D5,223.0,0.5,74,131.0
1261,B-3,224.0,1.0,39,131.0
1262,D4,224.5,0.5,44,131.0
1263,C4,225.0,1.0,44,131.0
1264,G4,225.0,0.5,49,131.0
1265,A3,225.0,1.0,41,131.0
1266,F#4,225.5,0.5,40,131.0
1267,E4,226.0,0.5,41,131.0
1268,C4,226.0,1.0,44,131.0
1269,D3,226.0,1.5,41,131.0
1270,A3,226.0,1.0,41,131.0
1271,F#4,226.5,0.5,38,131.0
1272,B-3,227.0,0.5,34,131.0
1273,D4,227.0,0.5,34,131.0
1274,G4,227.0,0.5,34,131.0
1275,G2,227.0,0.5,28,131.0
1276,G3,227.0,0.5,28,131.0
1277,B-4,228.0,1.0,39,131.0
1278,D5,228.5,0.5,44,131.0
1279,C5,229.0,1.0,44,131.0
1280,G5,229.0,0.5,49,131.0
1281,A4,229.0,1.0,41,131.0
1282,F#5,229.5,0.5,40,131.0
1283,E5,230.0,0.5,41,131.0
1284,C5,230.0,1.0,44,131.0
1285,D4,230.0,1.5,41,131.0
1286,A4,230.0,1.0,41,131.0
1287,F#5,230.5,0.5,38,131.0
1288,B-4,231.0,0.5,34,131.0
1289,D5,231.0,0.5,34,131.0
1290,G5,231.0,0.5,34,131.0
1291,G3,231.0,0.5,28,131.0
1292,G4,231.0,0.5,28,131.0
1293,E-6,232.0,1.0,91,131.0
1294,G3,232.0,2.0,64,131.0
1295,G6,232.0,2.0,83,131.0
1296,G5,232.0,2.0,83,131.0
1297,B2,232.0,1.0,68,131.0
1298,B3,232.0,1.0,68,131.0
1299,E6,233.0,1.0,86,131.0
1300,C3,233.0,1.0,62,131.0
1301,C4,233.0,1.0,62,131.0
1302,F5,234.0,1.0,89,131.0
1303,A3,234.0,2.0,64,131.0
1304,A5,234.0,2.0,84,131.0
1305,A4,234.0,2.0,84,131.0
1306,C#3,234.0,1.0,66,131.0
1307,C#4,234.0,1.0,66,131.0
1308,F#5,235.0,1.0,85,131.0
1309,D3,235.0,1.0,60,131.0
1310,D4,235.0,1.0,60,131.0
1311,B-5,236.0,1.0,81,131.0
1312,D4,236.0,2.0,63,131.0
1313,D5,236.0,0.75,84,131.0
1314,D6,236.0,0.75,84,131.0
1315,F#3,236.0,1.0,66,131.0
1316,F#4,236.0,1.0,66,131.0
1317,C#5,236.75,0.25,68,131.0
1318,C#6,236.75,0.25,68,131.0
1319,B4,237.0,0.5,74,131.0
1320,B5,237.0,0.5,74,131.0
1321,G3,237.0,0.5,60,131.0
1322,G4,237.0,0.5,60,131.0
1323,E-5,238.0,1.0,81,131.0
1324,B3,238.0,1.0,70,131.0
1325,G4,238.0,0.75,84,131.0
1326,G5,238.0,0.75,84,131.0
1327,F#4,238.75,0.25,68,131.0
1328,F#5,238.75,0.25,68,131.0
1329,C4,239.0,0.5,63,131.0
1330,E4,239.0,0.5,74,131.0
1331,E5,239.0,0.5,74,131.0
1332,C4,240.0,1.0,39,131.0
1333,E4,240.5,0.5,44,131.0
1334,D4,241.0,1.0,44,131.0
1335,A4,241.0,0.5,49,131.0
1336,B3,241.0,1.0,41,131.0
1337,G#4,241.5,0.5,40,131.0
1338,F#4,242.0,0.5,41,131.0
1339,D4,242.0,1.0,44,131.0
1340,E3,242.0,1.5,41,131.0
1341,B3,242.0,1.0,41,131.0
1342,G#4,242.5,0.5,38,131.0
1343,C4,243.0,0.5,34,131.0
1344,E4,243.0,0.5,34,131.0
1345,A4,243.0,0.5,34,131.0
1346,A2,243.0,0.5,28,131.0
1347,A3,243.0,0.5,28,131.0
1348,C5,244.0,1.0,39,131.0
1349,E5,244.5,0.5,44,131.0
1350,D5,245.0,1.0,44,131.0
1351,A5,245.0,0.5,49,131.0
1352,B4,245.0,1.0,41,131.0
1353,G#5,245.5,0.5,40,131.0
1354,F#5,246.0,0.5,41,131.0
1355,D5,246.0,1.0,44,131.0
1356,E4,246.0,1.5,41,131.0
1357,B4,246.0,1.0,41,131.0
1358,G#5,246.5,0.5,38,131.0
1359,C5,247.0,0.5,34,131.0
1360,E5,247.0,0.5,34,131.0
1361,A5,247.0,0.5,34,131.0
1362,A3,247.0,0.5,28,131.0
1363,A4,247.0,0.5,28,131.0
1364,C5,248.0,1.0,39,131.0
1365,E5,248.25,0.25,49,131.0
1366,A5,248.5,0.25,53,131.0
1367,E6,248.75,0.25,49,131.0
1368,B4,249.0,1.0,49,131.0
1369,G#5,249.0,1.0,50,131.0
1370,D5,249.0,1.0,50,131.0
1371,E5,249.0,1.0,50,131.0
1372,A3,249.5,0.5,35,131.0
1373,E4,249.5,0.5,35,131.0
1374,A4,250.0,1.0,39,131.0
1375,C5,250.25,0.25,49,131.0
1376,E5,250.5,0.25,53,131.0
1377,A5,250.75,0.25,49,131.0
1378,G#4,251.0,1.0,49,131.0
1379,E5,251.0,1.0,50,131.0
1380,B4,251.0,1.0,50,131.0
1381,D5,251.0,1.0,50,131.0
1382,A3,251.5,0.5,35,131.0
1383,E4,251.5,0.5,35,131.0
1384,C5,252.0,1.0,39,131.0
1385,E5,252.25,0.25,49,131.0
1386,A5,252.5,0.25,53,131.0
1387,E6,252.75,0.25,49,131.0
1388,B4,253.0,1.0,49,131.0
1389,G#5,253.0,1.0,50,131.0
1390,D5,253.0,1.0,50,131.0
1391,E5,253.0,1.0,50,131.0
1392,A3,253.5,0.5,35,131.0
1393,E4,253.5,0.5,35,131.0
1394,A4,254.0,1.0,39,131.0
1395,C5,254.25,0.25,49,131.0
1396,E5,254.5,0.25,53,131.0
1397,A5,254.75,0.25,49,131.0
1398,G#4,255.0,1.0,49,131.0
1399,E5,255.0,1.0,50,131.0
1400,B4,255.0,1.0,50,131.0
1401,D5,255.0,1.0,50,131.0
1402,A3,255.5,0.5,35,131.0
1403,E4,255.5,0.5,35,131.0
1404,A5,256.0,0.25,56,131.0
1405,A3,256.0,0.5,39,131.0
1406,E6,256.25,0.25,46,131.0
1407,F#6,256.5,0.25,52,131.0
1408,C#5,256.5,0.25,49,131.0
1409,E6,256.75,0.25,48,131.0
1410,G#5,257.0,0.25,56,131.0
1411,D5,257.0,0.25,52,131.0
1412,E6,257.25,0.25,46,131.0
1413,F#6,257.5,0.25,53,131.0
1414,E4,257.5,0.25,35,131.0
1415,E6,257.75,0.25,48,131.0
1416,B5,258.0,0.25,56,131.0
1417,A3,258.0,0.25,39,131.0
1418,E6,258.25,0.25,46,131.0
1419,F#6,258.5,0.25,52,131.0
1420,G#4,258.5,0.25,49,131.0
1421,E6,258.75,0.25,48,131.0
1422,C#6,259.0,0.25,56,131.0
1423,A4,259.0,0.25,52,131.0
1424,E6,259.25,0.25,46,131.0
1425,F#6,259.5,0.25,53,131.0
1426,E4,259.5,0.25,35,131.0
1427,E6,259.75,0.25,48,131.0
1428,A4,260.0,0.25,56,131.0
1429,A3,260.0,0.25,39,131.0
1430,E5,260.25,0.25,46,131.0
1431,F#5,260.5,0.25,52,131.0
1432,C#4,260.5,0.25,49,131.0
1433,E5,260.75,0.25,48,131.0
1434,G#4,261.0,0.25,56,131.0
1435,D4,261.0,0.25,52,131.0
1436,E5,261.25,0.25,46,131.0
1437,F#5,261.5,0.25,53,131.0
1438,E3,261.5,0.25,35,131.0
1439,E5,261.75,0.25,48,131.0
1440,B4,262.0,0.25,56,131.0
1441,A2,262.0,0.25,39,131.0
1442,E5,262.25,0.25,46,131.0
1443,F#5,262.5,0.25,52,131.0
1444,G#3,262.5,0.25,49,131.0
1445,E5,262.75,0.25,48,131.0
1446,C#5,263.0,0.25,56,131.0
1447,A3,263.0,0.25,52,131.0
1448,E5,263.25,0.25,46,131.0
1449,F#5,263.5,0.25,53,131.0
1450,C#4,263.5,0.25,35,131.0
1451,E5,263.75,0.25,48,131.0
1452,F#4,264.0,1.0,70,131.0
1453,A4,264.0,73/250,58,131.0
1454,C#5,264.25,73/250,48,131.0
1455,D5,264.5,73/250,55,131.0
1456,C#5,264.75,0.25,50,131.0
1457,F4,265.0,0.25,64,131.0
1458,A4,265.25,73/250,48,131.0
1459,E4,265.5,73/250,59,131.0
1460,C#5,265.5,73/250,59,131.0
1461,A4,265.75,0.25,50,131.0
1462,D4,266.0,0.25,64,131.0
1463,E4,266.25,73/250,48,131.0
1464,A4,266.5,0.25,54,131.0
1465,C#4,266.5,0.25,54,131.0
1466,E4,266.75,0.25,50,131.0
1467,C#4,267.0,0.25,58,131.0
1468,A2,267.0,0.25,63,131.0
1469,E4,267.25,73/250,48,131.0
1470,F#4,267.5,73/250,55,131.0
1471,C#3,267.5,0.25,58,131.0
1472,E4,267.75,0.25,50,131.0
1473,F#3,268.0,1.0,64,131.0
1474,A3,268.0,0.25,58,131.0
1475,C#4,268.25,73/250,48,131.0
1476,D4,268.5,73/250,55,131.0
1477,C#4,268.75,0.25,50,131.0
1478,F3,269.0,0.25,59,131.0
1479,A3,269.25,73/250,48,131.0
1480,E3,269.5,73/250,56,131.0
1481,C#4,269.5,73/250,56,131.0
1482,A3,269.75,0.25,50,131.0
1483,D3,270.0,0.25,59,131.0
1484,E3,270.25,73/250,48,131.0
1485,A3,270.5,0.25,52,131.0
1486,C#3,270.5,0.25,52,131.0
1487,E3,270.75,0.25,50,131.0
1488,B2,271.0,0.25,59,131.0
1489,C#3,271.25,73/250,48,131.0
1490,A2,271.5,73/250,56,131.0
1491,E3,271.5,73/250,56,131.0
1492,C#3,271.75,0.25,50,131.0
1493,G#2,272.0,0.25,59,131.0
1494,C#3,272.25,73/250,48,131.0
1495,E3,272.5,0.25,52,131.0
1496,A2,272.5,0.25,52,131.0
1497,C#3,272.75,0.25,51,131.0
1498,B2,273.0,0.25,61,131.0
1499,C#3,273.25,73/250,49,131.0
1500,A2,273.5,73/250,58,131.0
1501,E3,273.5,73/250,58,131.0
1502,C#3,273.75,0.25,52,131.0
1503,G#2,274.0,0.25,63,131.0
1504,C#3,274.25,73/250,51,131.0
1505,E3,274.5,0.25,56,131.0
1506,A2,274.5,0.25,56,131.0
1507,C#3,274.75,0.25,55,131.0
1508,B2,275.0,0.25,66,131.0
1509,C#3,275.25,73/250,53,131.0
1510,A2,275.5,73/250,62,131.0
1511,E3,275.5,73/250,62,131.0
1512,C#3,275.75,0.25,57,131.0
1513,G#2,276.0,73/250,68,131.0
1514,A2,276.25,73/250,57,131.0
1515,C3,276.5,73/250,63,131.0
1516,C#3,276.75,0.25,57,131.0
1517,E-3,277.0,73/250,69,131.0
1518,E3,277.25,73/250,61,131.0
1519,G#3,277.5,73/250,66,131.0
1520,A3,277.75,0.25,59,131.0
1521,G#3,278.0,73/250,71,131.0
1522,A3,278.25,73/250,61,131.0
1523,C4,278.5,73/250,66,131.0
1524,C#4,278.75,0.25,59,131.0
1525,E-4,279.0,73/250,72,131.0
1526,E4,279.25,73/250,63,131.0
1527,G#4,279.5,73/250,69,131.0
1528,A4,279.75,0.25,64,131.0
1529,G#4,280.0,73/250,74,131.0
1530,A4,280.25,73/250,63,131.0
1531,C5,280.5,73/250,71,131.0
1532,C#5,280.75,0.25,63,131.0
1533,E-5,281.0,73/250,75,131.0
1534,E5,281.25,73/250,64,131.0
1535,G#5,281.5,73/250,72,131.0
1536,A5,281.75,0.25,64,131.0
1537,G#5,282.0,73/250,78,131.0
1538,A5,282.25,73/250,67,131.0
1539,C6,282.5,73/250,74,131.0
1540,C#6,282.75,0.25,67,131.0
1541,E-6,283.0,73/250,79,131.0
1542,E6,283.25,73/250,71,131.0
1543,G#6,283.5,73/250,77,131.0
1544,A6,283.75,0.25,72,131.0
1545,A5,284.002,499/500,88,131.0
1546,A3,284.002,249/500,74,131.0
1547,F#5,284.002,249/500,79,131.0
1548,D5,284.002,249/500,79,131.0
1549,D3,284.002,499/500,64,131.0
1550,F#3,284.002,499/500,64,131.0
1551,A4,284.5,0.5,74,131.0
1552,D4,284.5,0.5,60,131.0
1553,E5,285.0,1.0,84,131.0
1554,B-3,285.0,0.5,71,131.0
1555,B-4,285.0,0.5,75,131.0
1556,D5,285.0,0.5,75,131.0
1557,G3,285.0,1.0,62,131.0
1558,D3,285.0,1.0,62,131.0
1559,E4,285.5,0.5,69,131.0
1560,D4,285.5,0.5,53,131.0
1561,A5,286.0,1.0,88,131.0
1562,A3,286.0,0.5,74,131.0
1563,D5,286.0,0.5,79,131.0
1564,F#5,286.0,0.5,79,131.0
1565,F#3,286.0,1.0,64,131.0
1566,D3,286.0,1.0,64,131.0
1567,A4,286.5,0.5,74,131.0
1568,D4,286.5,0.5,59,131.0
1569,E5,287.0,1.0,84,131.0
1570,B-3,287.0,0.5,71,131.0
1571,B-4,287.0,0.5,75,131.0
1572,D5,287.0,0.5,75,131.0
1573,G3,287.0,1.0,62,131.0
1574,D3,287.0,1.0,62,131.0
1575,E4,287.5,0.5,74,131.0
1576,D4,287.5,0.5,55,131.0
1577,D5,288.0,0.125,72,131.0
1578,C4,288.0,2.0,66,131.0
1579,D4,288.0,2.0,66,131.0
1580,A4,288.0,2.0,66,131.0
1581,F#4,288.0,2.0,66,131.0
1582,E5,288.25,0.125,62,131.0
1583,D5,288.5,0.125,69,131.0
1584,E5,288.75,0.125,63,131.0
1585,F#5,289.0,0.25,72,131.0
1586,F#5,289.5,0.25,68,131.0
1587,E5,290.0,0.5,73,131.0
1588,B-3,290.0,0.125,70,131.0
1589,D5,290.0,1.0,66,131.0
1590,G4,290.0,1.0,66,131.0
1591,A3,290.25,0.125,61,131.0
1592,G5,290.5,0.5,69,131.0
1593,G3,290.5,0.125,67,131.0
1594,F#3,290.75,0.125,61,131.0
1595,C#5,291.0,0.5,64,131.0
1596,E5,291.0,1.0,72,131.0
1597,E3,291.0,0.5,72,131.0
1598,A4,291.5,0.5,68,131.0
1599,A3,291.5,0.5,66,131.0
1600,A5,292.0,1.0,88,131.0
1601,A3,292.0,0.5,74,131.0
1602,D5,292.0,0.5,79,131.0
1603,F#5,292.0,0.5,79,131.0
1604,F#3,292.0,1.0,64,131.0
1605,D3,292.0,1.0,64,131.0
1606,A4,292.5,0.5,74,131.0
1607,D4,292.5,0.5,60,131.0
1608,E5,293.0,1.0,84,131.0
1609,B-3,293.0,0.5,71,131.0
1610,B-4,293.0,0.5,75,131.0
1611,D5,293.0,0.5,75,131.0
1612,G3,293.0,1.0,62,131.0
1613,D3,293.0,1.0,62,131.0
1614,E4,293.5,0.5,70,131.0
1615,D4,293.5,0.5,56,131.0
1616,A5,294.0,1.0,88,131.0
1617,A3,294.0,0.5,74,131.0
1618,D5,294.0,0.5,79,131.0
1619,F#5,294.0,0.5,79,131.0
1620,F#3,294.0,1.0,64,131.0
1621,D3,294.0,1.0,64,131.0
1622,A4,294.5,0.5,74,131.0
1623,D4,294.5,0.5,60,131.0
1624,E5,295.0,1.0,84,131.0
1625,B-3,295.0,0.5,71,131.0
1626,B-4,295.0,0.5,75,131.0
1627,D5,295.0,0.5,75,131.0
1628,G3,295.0,1.0,62,131.0
1629,D3,295.0,1.0,62,131.0
1630,E4,295.5,0.5,71,131.0
1631,D4,295.5,0.5,55,131.0
1632,D5,296.0,0.125,77,131.0
1633,C4,296.0,2.0,66,131.0
1634,D4,296.0,2.0,66,131.0
1635,A4,296.0,2.0,66,131.0
1636,F#4,296.0,2.0,66,131.0
1637,E5,296.25,0.125,72,131.0
1638,D5,296.5,0.125,77,131.0
1639,E5,296.75,0.125,71,131.0
1640,F#5,297.0,0.25,80,131.0
1641,F#5,297.5,0.25,72,131.0
1642,D5,298.0,0.125,80,131.0
1643,E5,298.0,0.125,80,131.0
1644,D4,298.0,0.125,60,131.0
1645,B-3,298.0,0.125,60,131.0
1646,F#5,298.25,0.125,81,131.0
1647,G5,298.5,0.125,83,131.0
1648,B-3,298.5,0.125,66,131.0
1649,A5,298.75,0.125,85,131.0
1650,A3,298.75,0.125,68,131.0
1651,B-5,299.0,0.5,86,131.0
1652,G3,299.0,0.5,71,131.0
1653,G2,300.0,1.0,41,131.0
1654,E-3,300.0,1.0,41,131.0
1655,C#4,300.25,0.25,42,131.0
1656,E-4,300.25,0.25,42,131.0
1657,B-3,300.5,0.5,37,131.0
1658,C#4,300.75,0.25,42,131.0
1659,E-4,300.75,0.25,42,131.0
1660,C4,301.0,1.0,47,131.0
1661,G#3,301.0,1.0,43,131.0
1662,C5,301.5,0.5,42,131.0
1663,E-4,301.5,0.5,42,131.0
1664,G#2,301.5,0.5,37,131.0
1665,E-3,301.5,0.5,37,131.0
1666,A2,302.0,1.0,44,131.0
1667,F3,302.0,1.0,44,131.0
1668,E-4,302.25,0.25,46,131.0
1669,F4,302.25,0.25,46,131.0
1670,C4,302.5,0.5,40,131.0
1671,E-4,302.75,0.25,46,131.0
1672,F4,302.75,0.25,46,131.0
1673,D4,303.0,1.0,52,131.0
1674,B-3,303.0,1.0,48,131.0
1675,D5,303.5,0.5,44,131.0
1676,F4,303.5,0.5,44,131.0
1677,B-2,303.5,0.5,40,131.0
1678,F3,303.5,0.5,40,131.0
1679,D4,304.0,1.0,49,131.0
1680,B2,304.0,0.5,45,131.0
1681,G3,304.0,1.0,45,131.0
1682,B3,304.5,0.5,38,131.0
1683,G4,304.5,0.5,39,131.0
1684,D5,304.5,0.5,39,131.0
1685,F4,304.5,0.5,39,131.0
1686,E-4,305.0,1.0,50,131.0
1687,C3,305.0,0.5,47,131.0
1688,G3,305.0,1.0,47,131.0
1689,C4,305.5,0.5,39,131.0
1690,E-5,305.5,0.5,40,131.0
1691,G4,305.5,0.5,40,131.0
1692,F4,306.0,1.0,54,131.0
1693,D3,306.0,0.5,49,131.0
1694,G3,306.0,1.0,49,131.0
1695,D4,306.5,0.5,41,131.0
1696,B4,306.5,0.5,40,131.0
1697,G5,306.5,0.5,40,131.0
1698,E-4,307.0,1.0,53,131.0
1699,C3,307.0,0.5,47,131.0
1700,G3,307.0,1.0,47,131.0
1701,C4,307.5,0.5,40,131.0
1702,E-5,307.5,0.5,42,131.0
1703,G4,307.5,0.5,42,131.0
1704,B2,308.0,1.0,46,131.0
1705,G3,308.0,1.0,46,131.0
1706,F4,308.25,0.25,47,131.0
1707,G4,308.25,0.25,47,131.0
1708,D4,308.5,0.5,42,131.0
1709,F4,308.75,0.25,48,131.0
1710,G4,308.75,0.25,48,131.0
1711,E4,309.0,1.0,53,131.0
1712,C4,309.0,1.0,51,131.0
1713,E5,309.5,0.5,46,131.0
1714,G4,309.5,0.5,46,131.0
1715,C3,309.5,0.5,42,131.0
1716,G3,309.5,0.5,42,131.0
1717,C#3,310.0,1.0,52,131.0
1718,A3,310.0,1.0,52,131.0
1719,G4,310.25,0.25,53,131.0
1720,A4,310.25,0.25,53,131.0
1721,E4,310.5,0.5,46,131.0
1722,G4,310.75,0.25,53,131.0
1723,A4,310.75,0.25,53,131.0
1724,F4,311.0,1.0,58,131.0
1725,D4,311.0,1.0,54,131.0
1726,F5,311.5,0.5,50,131.0
1727,A4,311.5,0.5,50,131.0
1728,D3,311.5,0.5,47,131.0
1729,A3,311.5,0.5,47,131.0
1730,E4,312.0,1.0,58,131.0
1731,C#3,312.0,0.5,54,131.0
1732,A3,312.0,1.0,54,131.0
1733,C#4,312.5,0.5,46,131.0
1734,A4,312.5,0.5,46,131.0
1735,E5,312.5,0.5,46,131.0
1736,G4,312.5,0.5,46,131.0
1737,F4,313.0,1.0,59,131.0
1738,D3,313.0,0.5,56,131.0
1739,A3,313.0,1.0,56,131.0
1740,D4,313.5,0.5,47,131.0
1741,F5,313.5,0.5,49,131.0
1742,A4,313.5,0.5,49,131.0
1743,G4,314.0,1.0,65,131.0
1744,E3,314.0,0.5,57,131.0
1745,A3,314.0,1.0,57,131.0
1746,E4,314.5,0.5,49,131.0
1747,C#5,314.5,0.5,50,131.0
1748,A5,314.5,0.5,50,131.0
1749,F4,315.0,1.0,62,131.0
1750,D3,315.0,0.5,56,131.0
1751,A3,315.0,1.0,56,131.0
1752,D4,315.5,0.5,48,131.0
1753,F5,315.5,0.5,52,131.0
1754,A4,315.5,0.5,52,131.0
1755,E4,316.0,1.0,66,131.0
1756,C#3,316.0,0.5,58,131.0
1757,A3,316.0,1.0,58,131.0
1758,C#4,316.5,0.5,49,131.0
1759,A4,316.5,0.5,52,131.0
1760,E5,316.5,0.5,52,131.0
1761,G4,316.5,0.5,52,131.0
1762,F4,317.0,1.0,66,131.0
1763,D3,317.0,0.5,61,131.0
1764,A3,317.0,1.0,61,131.0
1765,D4,317.5,0.5,52,131.0
1766,F5,317.5,0.5,54,131.0
1767,A4,317.5,0.5,54,131.0
1768,A4,318.0,1.0,70,131.0
1769,E-3,318.0,0.5,63,131.0
1770,B3,318.0,1.0,63,131.0
1771,E-4,318.5,0.5,53,131.0
1772,F#5,318.5,0.5,54,131.0
1773,B5,318.5,0.5,54,131.0
1774,G4,319.0,1.0,67,131.0
1775,E3,319.0,0.5,60,131.0
1776,B3,319.0,1.0,60,131.0
1777,E4,319.5,0.5,52,131.0
1778,G5,319.5,0.5,56,131.0
1779,B4,319.5,0.5,56,131.0
1780,F#4,320.0,1.0,71,131.0
1781,E-3,320.0,0.5,64,131.0
1782,B3,320.0,1.0,64,131.0
1783,E-4,320.5,0.5,54,131.0
1784,B4,320.5,0.5,59,131.0
1785,F#5,320.5,0.5,59,131.0
1786,A4,320.5,0.5,59,131.0
1787,G4,321.0,1.0,74,131.0
1788,E3,321.0,0.5,66,131.0
1789,B3,321.0,1.0,66,131.0
1790,E4,321.5,0.5,56,131.0
1791,G5,321.5,0.5,61,131.0
1792,B4,321.5,0.5,61,131.0
1793,B4,322.0,1.0,76,131.0
1794,F3,322.0,0.5,67,131.0
1795,C#4,322.0,1.0,67,131.0
1796,F4,322.5,0.5,57,131.0
1797,G#5,322.5,0.5,62,131.0
1798,C#6,322.5,0.5,62,131.0
1799,A4,323.0,1.0,75,131.0
1800,F#3,323.0,0.5,65,131.0
1801,C#4,323.0,1.0,65,131.0
1802,F#4,323.5,0.5,56,131.0
1803,A5,323.5,0.5,64,131.0
1804,C#5,323.5,0.5,64,131.0
1805,C5,324.0,1.0,82,131.0
1806,F#3,324.0,0.5,72,131.0
1807,D4,324.0,1.0,72,131.0
1808,F#4,324.5,0.5,60,131.0
1809,A5,324.5,0.5,64,131.0
1810,D6,324.5,0.5,64,131.0
1811,B4,325.0,1.0,78,131.0
1812,G3,325.0,0.5,70,131.0
1813,D4,325.0,1.0,70,131.0
1814,G4,325.5,0.5,60,131.0
1815,B5,325.5,0.5,68,131.0
1816,D5,325.5,0.5,68,131.0
1817,C5,326.0,1.0,83,131.0
1818,F#3,326.0,0.5,73,131.0
1819,D4,326.0,1.0,73,131.0
1820,F#4,326.5,0.5,61,131.0
1821,A5,326.5,0.5,66,131.0
1822,D6,326.5,0.5,66,131.0
1823,B4,327.0,1.0,79,131.0
1824,G3,327.0,0.5,71,131.0
1825,D4,327.0,1.0,71,131.0
1826,G4,327.5,0.5,60,131.0
1827,B5,327.5,0.5,66,131.0
1828,D5,327.5,0.5,66,131.0
1829,E6,328.0,0.125,86,131.0
1830,G4,328.0,0.25,72,131.0
1831,B-4,328.0,0.25,72,131.0
1832,D5,328.0,0.25,72,131.0
1833,D6,328.25,0.125,73,131.0
1834,B-5,328.5,0.125,80,131.0
1835,A5,328.75,0.125,71,131.0
1836,G5,329.0,0.25,77,131.0
1837,E5,329.0,0.125,80,131.0
1838,D5,329.25,0.125,71,131.0
1839,B-4,329.5,0.125,74,131.0
1840,A4,329.75,0.125,71,131.0
1841,E5,330.0,0.125,74,131.0
1842,G4,330.0,0.25,82,131.0
1843,D5,330.25,0.125,67,131.0
1844,B-4,330.5,0.125,72,131.0
1845,A4,330.75,0.125,64,131.0
1846,G4,331.0,0.25,75,131.0
1847,E4,331.0,0.125,71,131.0
1848,D4,331.25,0.125,60,131.0
1849,B-3,331.5,0.125,67,131.0
1850,A3,331.75,0.125,61,131.0
1851,E4,332.0,0.125,74,131.0
1852,G3,332.0,0.25,74,131.0
1853,D4,332.25,0.125,63,131.0
1854,B-3,332.5,0.125,70,131.0
1855,A3,332.75,0.125,60,131.0
1856,G3,333.0,0.25,75,131.0
1857,E3,333.0,0.125,71,131.0
1858,D3,333.25,0.125,62,131.0
1859,B-2,333.5,0.125,67,131.0
1860,A2,333.75,0.125,61,131.0
1861,E3,334.0,0.125,74,131.0
1862,G2,334.0,0.25,71,131.0
1863,D3,334.25,0.125,64,131.0
1864,B-2,334.5,0.125,70,131.0
1865,A2,334.75,0.125,64,131.0
1866,G2,335.0,0.25,75,131.0
1867,E2,335.0,0.125,69,131.0
1868,D2,335.25,0.125,59,131.0
1869,B-1,335.5,0.125,64,131.0
1870,A1,335.75,0.125,55,131.0
1871,G1,336.0,0.25,63,131.0
1872,G1,336.5,0.25,62,131.0
1873,G1,337.0,0.25,63,131.0
1874,A1,337.25,0.25,56,131.0
1875,B-1,337.5,0.25,59,131.0
1876,G1,337.75,0.25,53,131.0
1877,A1,338.0,0.25,61,131.0
1878,A1,338.5,0.25,59,131.0
1879,B-1,339.0,0.5,63,131.0
1880,G1,339.5,0.5,58,131.0
1881,D3,340.0,2.0,59,131.0
1882,E3,340.0,2.0,59,131.0
1883,E4,340.0,2.0,59,131.0
1884,D4,340.0,2.0,59,131.0
1885,G1,341.0,1.0,56,131.0
1886,G2,341.0,1.0,56,131.0
1887,A1,342.0,1.0,59,131.0
1888,A2,342.0,1.0,59,131.0
1889,B-1,343.0,1.0,55,131.0
1890,B-2,343.0,1.0,55,131.0
1891,G2,344.0,0.25,49,131.0
1892,D3,344.0,2.0,59,131.0
1893,E3,344.0,2.0,59,131.0
1894,E4,344.0,2.0,59,131.0
1895,D4,344.0,2.0,59,131.0
1896,G2,344.5,0.25,44,131.0
1897,G2,345.0,0.25,49,131.0
1898,A2,345.25,0.25,42,131.0
1899,B-2,345.5,0.25,49,131.0
1900,G2,345.75,0.25,41,131.0
1901,A2,346.0,0.25,49,131.0
1902,A2,346.5,0.25,42,131.0
1903,B-2,347.0,0.5,49,131.0
1904,G2,347.5,0.5,45,131.0
1905,G2,349.0,1.0,42,131.0
1906,G3,349.0,1.0,42,131.0
1907,D4,350.0,2.0,52,131.0
1908,E4,350.0,2.0,52,131.0
1909,E5,350.0,2.0,52,131.0
1910,D5,350.0,2.0,52,131.0
1911,A2,350.0,1.0,48,131.0
1912,A3,350.0,1.0,48,131.0
1913,B-2,351.0,1.0,44,131.0
1914,B-3,351.0,1.0,44,131.0
1915,G3,353.0,1.0,35,131.0
1916,G4,353.0,1.0,35,131.0
1917,D4,354.0,2.0,52,131.0
1918,E4,354.0,2.0,52,131.0
1919,E5,354.0,2.0,52,131.0
1920,D5,354.0,2.0,52,131.0
1921,A3,354.0,1.0,39,131.0
1922,A4,354.0,1.0,39,131.0
1923,B-3,355.0,1.0,36,131.0
1924,B-4,355.0,1.0,36,131.0
1925,D5,356.0,2.0,43,131.0
1926,E5,356.0,2.0,43,131.0
1927,E6,356.0,2.0,43,131.0
1928,D6,356.0,2.0,43,131.0
1929,G2,358.0,0.25,85,131.0
1930,G2,358.5,0.25,77,131.0
1931,G2,359.0,73/250,84,131.0
1932,A2,359.25,73/250,72,131.0
1933,B-2,359.5,73/250,79,131.0
1934,G2,359.75,0.25,72,131.0
1935,G#2,360.0,0.25,86,131.0
1936,D5,360.0,2.0,43,131.0
1937,E5,360.0,2.0,43,131.0
1938,E6,360.0,2.0,43,131.0
1939,D6,360.0,2.0,43,131.0
1940,A2,360.5,0.25,82,131.0
1941,D3,361.0,0.5,84,131.0
1942,A2,361.0,0.5,84,131.0
1943,D2,361.0,0.5,84,131.0
1944,G5,364.0,0.25,97,131.0
1945,G5,364.5,0.25,88,131.0
1946,G5,365.0,73/250,96,131.0
1947,A5,365.25,73/250,83,131.0
1948,B-5,365.5,73/250,88,131.0
1949,G5,365.75,0.25,79,131.0
1950,G#5,366.0,0.25,101,131.0
1951,A5,366.5,0.25,93,131.0
1952,D5,367.0,0.5,103,131.0
1953,F#5,367.0,0.5,103,131.0
1954,D6,367.0,0.5,103,131.0
