,note_name,start_time,duration,velocity,tempo
0,F#4,0.002,249/500,55,70.54
1,G#4,0.5,73/250,52,70.54
2,A4,0.75,0.25,48,70.54
3,G#4,1.0,0.5,55,70.54
4,D3,1.0,1.0,37,70.54
5,E3,1.0,2.0,44,70.54
6,E4,1.0,1.0,33,70.54
7,B3,1.0,1.0,33,70.54
8,B4,1.5,0.5,45,70.54
9,E4,2.0,1.0,55,70.54
10,C#3,2.0,1.0,42,70.54
11,A4,2.5,0.5,52,70.54
12,E4,3.0,1.0,55,70.54
13,B2,3.0,229/500,53,70.54
14,E3,3.0,1.0,44,70.54
15,G#4,3.0,229/500,57,70.54
16,B4,3.0,229/500,57,70.54
17,A2,3.5,229/500,55,70.54
18,A4,3.5,229/500,61,70.54
19,C#5,3.5,229/500,61,70.54
20,E4,4.0,2.0,46,70.54
21,G#2,4.0,1.0,40,70.54
22,E3,4.0,2.0,45,70.54
23,B4,4.0,1.0,54,70.54
24,E5,4.0,1.0,54,70.54
25,A2,5.0,1.0,39,70.54
26,C#5,5.0,1.0,53,70.54
27,A4,5.0,1.0,53,70.54
28,C#5,6.0,0.5,69,70.54
29,D5,6.5,73/250,68,70.54
30,E5,6.75,0.25,66,70.54
31,F#5,7.0,0.5,66,70.54
32,C#5,7.0,1.0,50,70.54
33,F#4,7.0,1.0,50,70.54
34,B-2,7.0,1.0,44,70.54
35,C#4,7.0,1.0,44,70.54
36,F#3,7.0,1.0,44,70.54
37,C#5,7.5,0.5,59,70.54
38,B4,8.0,1.0,45,70.54
39,F#4,8.0,1.0,45,70.54
40,D5,8.0,1.0,45,70.54
41,B2,8.0,1.0,36,70.54
42,B3,8.0,1.0,36,70.54
43,F#3,8.0,1.0,36,70.54
44,F#4,9.0,0.5,58,70.54
45,G#4,9.5,73/250,55,70.54
46,A4,9.75,0.25,51,70.54
47,E-4,10.0,1.0,46,70.54
48,C#5,10.0,0.5,50,70.54
49,A3,10.0,1.0,38,70.54
50,B2,10.0,1.0,38,70.54
51,B-4,10.5,1.0,45,70.54
52,D4,11.0,1.0,40,70.54
53,E3,11.0,1.0,31,70.54
54,G#3,11.0,1.0,31,70.54
55,B4,11.5,0.5,42,70.54
56,F#4,12.0,0.5,55,70.54
57,G#4,12.5,73/250,54,70.54
58,A4,12.75,0.25,50,70.54
59,G#4,13.0,0.5,55,70.54
60,E3,13.0,2.0,44,70.54
61,D3,13.0,1.0,44,70.54
62,E4,13.0,1.0,37,70.54
63,B3,13.0,1.0,37,70.54
64,B4,13.5,0.5,45,70.54
65,E4,14.0,1.0,55,70.54
66,C#3,14.0,1.0,42,70.54
67,A4,14.5,0.5,55,70.54
68,E4,15.0,1.0,55,70.54
69,B2,15.0,229/500,53,70.54
70,E3,15.0,1.0,44,70.54
71,G#4,15.0,229/500,57,70.54
72,B4,15.0,229/500,57,70.54
73,A2,15.5,229/500,56,70.54
74,A4,15.5,229/500,62,70.54
75,C#5,15.5,229/500,62,70.54
76,E4,16.0,2.0,45,70.54
77,E3,16.0,2.0,42,70.54
78,G#2,16.0,1.0,43,70.54
79,B4,16.0,1.0,55,70.54
80,E5,16.0,1.0,55,70.54
81,A2,17.0,1.0,43,70.54
82,C#5,17.0,1.0,58,70.54
83,A4,17.0,1.0,58,70.54
84,C#5,18.0,0.5,75,70.54
85,E-5,18.5,73/250,72,70.54
86,E5,18.75,0.25,68,70.54
87,E4,19.0,1.0,53,70.54
88,G#4,19.0,0.5,73,70.54
89,B2,19.0,2.0,50,70.54
90,C#5,19.5,0.5,59,70.54
91,A3,20.0,0.5,59,70.54
92,B4,20.0,1.0,49,70.54
93,E-4,20.0,1.0,49,70.54
94,F#4,20.0,1.0,49,70.54
95,B3,20.5,0.5,54,70.54
96,C#5,21.0,0.5,76,70.54
97,G#3,21.0,1.0,61,70.54
98,B2,21.0,1.0,50,70.54
99,B4,21.0,1.0,58,70.54
100,E4,21.0,1.0,58,70.54
101,E-5,21.5,73/250,75,70.54
102,E5,21.75,0.25,70,70.54
103,E4,22.0,1.0,53,70.54
104,G#4,22.0,0.5,73,70.54
105,B2,22.0,2.0,50,70.54
106,C#5,22.5,0.5,58,70.54
107,A3,23.0,0.5,59,70.54
108,B4,23.0,1.0,49,70.54
109,F#4,23.0,1.0,49,70.54
110,E-4,23.0,1.0,49,70.54
111,B3,23.5,0.5,54,70.54
112,C#5,24.0,0.5,77,70.54
113,G#3,24.0,0.5,58,70.54
114,B2,24.0,0.5,50,70.54
115,E4,24.0,1.0,59,70.54
116,B4,24.0,1.0,59,70.54
117,E-5,24.5,73/250,75,70.54
118,E5,24.75,0.25,71,70.54
119,G#5,25.0,0.5,75,70.54
120,E5,25.5,0.5,64,70.54
121,E-5,26.0,0.5,68,70.54
122,C#5,26.5,0.5,62,70.54
123,F#3,27.0,0.5,62,70.54
124,C#5,27.0,1.0,48,70.54
125,F#4,27.0,1.0,48,70.54
126,E-4,27.0,1.0,48,70.54
127,G#3,27.5,73/250,58,70.54
128,A3,27.75,0.25,50,70.54
129,C#4,28.0,0.5,58,70.54
130,B2,28.0,1.0,50,70.54
131,E-4,28.0,1.0,48,70.54
132,F#4,28.0,1.0,48,70.54
133,B3,28.5,479/1000,56,70.54
134,A3,29.0,0.5,52,70.54
135,E3,29.0,1.0,44,70.54
136,B3,29.0,1.0,42,70.54
137,E4,29.0,1.0,42,70.54
138,G#3,29.5,0.5,50,70.54
139,D5,30.0,0.5,54,70.54
140,E2,30.0,0.5,50,70.54
141,E3,30.25,0.125,45,70.54
142,C#5,30.5,73/250,50,70.54
143,F#3,30.5,0.125,46,70.54
144,B4,30.75,0.25,47,70.54
145,G#3,30.75,0.125,47,70.54
146,E-4,31.0,1.0,43,70.54
147,F#4,31.0,0.5,51,70.54
148,A3,31.0,0.25,50,70.54
149,E3,31.0,2.0,36,70.54
150,B3,31.25,0.25,45,70.54
151,A4,31.5,0.5,40,70.54
152,C4,31.5,1.0,47,70.54
153,E4,32.0,1.0,42,70.54
154,G#4,32.0,1.0,42,70.54
155,B3,32.5,0.5,35,70.54
156,A2,33.0,0.5,44,70.54
157,E3,33.0,2.0,37,70.54
158,C#4,33.0,0.5,46,70.54
159,F#4,33.0,0.5,46,70.54
160,G#2,33.5,0.5,31,70.54
161,C4,33.5,0.5,35,70.54
162,G#4,33.5,0.5,35,70.54
163,A2,34.0,0.5,44,70.54
164,C#4,34.0,0.5,46,70.54
165,F#4,34.0,0.5,46,70.54
166,G#2,34.5,0.5,34,70.54
167,G#4,34.5,0.5,34,70.54
168,C4,34.5,0.5,34,70.54
169,A3,35.0,0.5,38,70.54
170,E3,35.0,1.0,33,70.54
171,B3,35.0,1.0,40,70.54
172,E4,35.0,1.0,40,70.54
173,G#3,35.5,0.5,36,70.54
174,D5,36.0,0.5,54,70.54
175,E2,36.0,0.5,50,70.54
176,E3,36.25,0.125,45,70.54
177,C#5,36.5,73/250,50,70.54
178,F#3,36.5,0.125,46,70.54
179,B4,36.75,0.25,47,70.54
180,G#3,36.75,0.125,47,70.54
181,E-4,37.0,1.0,43,70.54
182,F#4,37.0,0.5,51,70.54
183,A3,37.0,0.25,50,70.54
184,E3,37.0,2.0,36,70.54
185,B3,37.25,0.25,45,70.54
186,A4,37.5,0.5,40,70.54
187,C4,37.5,1.0,46,70.54
188,E4,38.0,1.0,42,70.54
189,G#4,38.0,1.0,42,70.54
190,B3,38.5,0.5,34,70.54
191,A2,39.0,0.5,44,70.54
192,E3,39.0,2.0,37,70.54
193,C#4,39.0,0.5,46,70.54
194,F#4,39.0,0.5,46,70.54
195,G#2,39.5,0.5,31,70.54
196,C4,39.5,0.5,35,70.54
197,G#4,39.5,0.5,35,70.54
198,A2,40.0,0.5,44,70.54
199,C#4,40.0,0.5,46,70.54
200,F#4,40.0,0.5,46,70.54
201,G#2,40.5,0.5,34,70.54
202,G#4,40.5,0.5,34,70.54
203,C4,40.5,0.5,34,70.54
204,A3,41.0,0.5,38,70.54
205,E3,41.0,1.0,33,70.54
206,B3,41.0,1.0,40,70.54
207,E4,41.0,1.0,40,70.54
208,G#3,41.5,0.5,36,70.54
209,C#3,42.0,0.5,50,70.54
210,G#3,42.0,2.0,41,70.54
211,E4,42.0,0.5,51,70.54
212,B-4,42.0,0.5,51,70.54
213,C3,42.5,0.5,42,70.54
214,E-4,42.5,0.5,46,70.54
215,C5,42.5,0.5,46,70.54
216,C#3,43.0,0.5,51,70.54
217,B-4,43.0,0.5,51,70.54
218,E4,43.0,0.5,51,70.54
219,C3,43.5,0.5,46,70.54
220,E-4,43.5,0.5,46,70.54
221,C5,43.5,0.5,46,70.54
222,C#4,44.0,0.5,44,70.54
223,G#3,44.0,1.0,34,70.54
224,E-4,44.0,1.0,46,70.54
225,G#4,44.0,1.0,46,70.54
226,C4,44.5,0.5,41,70.54
227,F3,45.0,0.5,53,70.54
228,C4,45.0,2.0,45,70.54
229,G#4,45.0,0.5,55,70.54
230,D5,45.0,0.5,55,70.54
231,E3,45.5,0.5,46,70.54
232,G4,45.5,0.5,51,70.54
233,E5,45.5,0.5,51,70.54
234,F3,46.0,0.5,57,70.54
235,D5,46.0,0.5,58,70.54
236,G#4,46.0,0.5,58,70.54
237,E3,46.5,0.5,51,70.54
238,G4,46.5,0.5,52,70.54
239,E5,46.5,0.5,52,70.54
240,C5,47.0,1.0,52,70.54
241,F#4,47.0,0.5,40,70.54
242,E-4,47.0,0.5,40,70.54
243,C4,47.0,0.5,42,70.54
244,G#3,47.0,0.5,42,70.54
245,E4,47.5,0.5,34,70.54
246,G4,47.5,0.5,34,70.54
247,C3,47.5,0.5,29,70.54
248,G3,47.5,0.5,29,70.54
249,D5,48.0,73/250,59,70.54
250,G#4,48.0,0.5,55,70.54
251,C4,48.0,2.0,44,70.54
252,F3,48.0,0.5,55,70.54
253,F5,48.25,73/250,47,70.54
254,G3,48.5,0.5,40,70.54
255,C5,48.5,0.5,49,70.54
256,G4,48.5,0.5,49,70.54
257,E5,48.5,0.5,49,70.54
258,G#4,49.0,0.5,56,70.54
259,D5,49.0,73/250,59,70.54
260,F3,49.0,0.5,58,70.54
261,F5,49.25,73/250,49,70.54
262,G3,49.5,0.5,44,70.54
263,G4,49.5,0.5,49,70.54
264,C5,49.5,0.5,49,70.54
265,E5,49.5,0.5,49,70.54
266,C5,50.0,1.0,59,70.54
267,E-4,50.0,0.5,45,70.54
268,F#4,50.0,0.5,45,70.54
269,G#3,50.0,0.5,40,70.54
270,C4,50.0,0.5,40,70.54
271,E4,50.5,0.5,38,70.54
272,G4,50.5,0.5,38,70.54
273,G3,50.5,0.5,26,70.54
274,C3,50.5,0.5,26,70.54
275,C4,51.0,1.0,46,70.54
276,F3,51.0,0.5,56,70.54
277,D5,51.0,0.5,62,70.54
278,G#4,51.0,0.5,62,70.54
279,C3,51.5,0.5,46,70.54
280,E5,51.5,0.5,54,70.54
281,G4,51.5,0.5,54,70.54
282,C5,51.5,0.5,54,70.54
283,B-4,52.0,0.5,65,70.54
284,G5,52.0,0.5,65,70.54
285,C#4,52.0,0.5,51,70.54
286,A3,52.0,0.5,51,70.54
287,D4,52.5,0.5,54,70.54
288,A4,52.5,0.5,58,70.54
289,F#5,52.5,0.5,58,70.54
290,F5,53.0,0.5,65,70.54
291,G#4,53.0,0.5,65,70.54
292,B3,53.0,0.5,51,70.54
293,G3,53.0,0.5,51,70.54
294,C4,53.5,0.5,54,70.54
295,G4,53.5,0.5,58,70.54
296,E5,53.5,0.5,58,70.54
297,G4,54.0,0.5,65,70.54
298,E5,54.0,0.5,65,70.54
299,B-3,54.0,0.5,46,70.54
300,F#3,54.0,0.5,46,70.54
301,B3,54.5,0.5,54,70.54
302,F#4,54.5,0.5,58,70.54
303,E-5,54.5,0.5,58,70.54
304,B-4,55.0,73/250,65,70.54
305,E4,55.0,0.5,63,70.54
306,G3,55.0,0.5,58,70.54
307,C#5,55.25,73/250,52,70.54
308,F#4,55.5,0.5,46,70.54
309,B4,55.5,0.5,46,70.54
310,E-4,55.5,0.5,46,70.54
311,B2,55.5,0.5,34,70.54
312,F#3,55.5,0.5,34,70.54
313,G4,56.0,0.5,63,70.54
314,E5,56.0,0.5,63,70.54
315,B-3,56.0,0.5,44,70.54
316,F#3,56.0,0.5,44,70.54
317,B3,56.5,0.5,49,70.54
318,F#4,56.5,0.5,58,70.54
319,E-5,56.5,0.5,58,70.54
320,E4,57.0,0.5,58,70.54
321,B-4,57.0,73/250,55,70.54
322,G3,57.0,0.5,57,70.54
323,C#5,57.25,73/250,52,70.54
324,E-4,57.5,0.5,36,70.54
325,B4,57.5,0.5,36,70.54
326,F#4,57.5,0.5,36,70.54
327,F#3,57.5,0.5,28,70.54
328,B2,57.5,0.5,28,70.54
329,B-4,58.0,73/250,56,70.54
330,E4,58.0,0.5,56,70.54
331,G3,58.0,0.5,55,70.54
332,C#5,58.25,73/250,48,70.54
333,F#4,58.5,0.5,34,70.54
334,E-4,58.5,0.5,34,70.54
335,B4,58.5,0.5,34,70.54
336,B2,58.5,0.5,27,70.54
337,F#3,58.5,0.5,27,70.54
338,F#4,59.0,1.0,48,70.54
339,E3,59.0,0.5,37,70.54
340,B-3,59.0,0.5,38,70.54
341,C#4,59.0,0.5,38,70.54
342,B3,59.5,0.5,36,70.54
343,E-3,59.5,0.5,28,70.54
344,F#4,60.0,0.5,54,70.54
345,G#4,60.5,73/250,51,70.54
346,A4,60.75,0.25,47,70.54
347,G#4,61.0,0.5,55,70.54
348,D3,61.0,1.0,44,70.54
349,E3,61.0,2.0,44,70.54
350,E4,61.0,1.0,36,70.54
351,B3,61.0,1.0,36,70.54
352,B4,61.5,0.5,44,70.54
353,E4,62.0,1.0,55,70.54
354,C#3,62.0,1.0,42,70.54
355,A4,62.5,0.5,56,70.54
356,E4,63.0,1.0,55,70.54
357,B2,63.0,229/500,53,70.54
358,E3,63.0,1.0,44,70.54
359,G#4,63.0,229/500,57,70.54
360,B4,63.0,229/500,57,70.54
361,A2,63.5,229/500,55,70.54
362,C#5,63.5,229/500,61,70.54
363,A4,63.5,229/500,61,70.54
364,E4,64.0,2.0,49,70.54
365,G#2,64.0,1.0,40,70.54
366,E3,64.0,2.0,45,70.54
367,E5,64.0,1.0,54,70.54
368,B4,64.0,1.0,54,70.54
369,A2,65.0,1.0,39,70.54
370,A4,65.0,1.0,53,70.54
371,C#5,65.0,1.0,53,70.54
372,C#5,66.0,0.5,69,70.54
373,D5,66.5,73/250,68,70.54
374,E5,66.75,0.25,66,70.54
375,F#5,67.0,0.5,66,70.54
376,C#5,67.0,1.0,50,70.54
377,F#4,67.0,1.0,50,70.54
378,F#3,67.0,1.0,44,70.54
379,C#4,67.0,1.0,44,70.54
380,B-2,67.0,1.0,44,70.54
381,C#5,67.5,0.5,59,70.54
382,D5,68.0,1.0,50,70.54
383,B4,68.0,1.0,50,70.54
384,F#4,68.0,1.0,50,70.54
385,B2,68.0,1.0,38,70.54
386,F#3,68.0,1.0,38,70.54
387,B3,68.0,1.0,38,70.54
388,F#4,69.0,0.5,57,70.54
389,G#4,69.5,73/250,52,70.54
390,A4,69.75,0.25,46,70.54
391,E-4,70.0,1.0,49,70.54
392,C#5,70.0,0.5,54,70.54
393,B2,70.0,1.0,41,70.54
394,A3,70.0,1.0,41,70.54
395,B-4,70.5,1.0,44,70.54
396,D4,71.0,1.0,40,70.54
397,G#3,71.0,1.0,31,70.54
398,E3,71.0,1.0,31,70.54
399,B4,71.5,0.5,42,70.54
400,F#4,72.0,0.5,55,70.54
401,G#4,72.5,73/250,54,70.54
402,A4,72.75,0.25,47,70.54
403,G#4,73.0,0.5,55,70.54
404,D3,73.0,1.0,44,70.54
405,E3,73.0,2.0,44,70.54
406,E4,73.0,1.0,36,70.54
407,B3,73.0,1.0,36,70.54
408,B4,73.5,0.5,45,70.54
409,E4,74.0,1.0,55,70.54
410,C#3,74.0,1.0,42,70.54
411,A4,74.5,0.5,55,70.54
412,E4,75.0,1.0,55,70.54
413,B2,75.0,229/500,53,70.54
414,E3,75.0,1.0,44,70.54
415,G#4,75.0,229/500,57,70.54
416,B4,75.0,229/500,57,70.54
417,A2,75.5,229/500,56,70.54
418,C#5,75.5,229/500,62,70.54
419,A4,75.5,229/500,62,70.54
420,E4,76.0,2.0,47,70.54
421,G#2,76.0,1.0,43,70.54
422,E3,76.0,2.0,45,70.54
423,E5,76.0,1.0,56,70.54
424,B4,76.0,1.0,56,70.54
425,A2,77.0,1.0,43,70.54
426,A4,77.0,1.0,58,70.54
427,C#5,77.0,1.0,58,70.54
428,C#5,78.0,0.5,72,70.54
429,E-5,78.5,73/250,70,70.54
430,E5,78.75,0.25,66,70.54
431,G#4,79.0,0.5,74,70.54
432,E4,79.0,1.0,50,70.54
433,B2,79.0,2.0,46,70.54
434,C#5,79.5,0.5,60,70.54
435,A3,80.0,0.5,57,70.54
436,E-4,80.0,1.0,53,70.54
437,F#4,80.0,1.0,53,70.54
438,B4,80.0,1.0,53,70.54
439,B3,80.5,0.5,52,70.54
440,C#5,81.0,0.5,78,70.54
441,G#3,81.0,1.0,58,70.54
442,B2,81.0,1.0,46,70.54
443,B4,81.0,1.0,60,70.54
444,E4,81.0,1.0,60,70.54
445,E-5,81.5,73/250,70,70.54
446,E5,81.75,0.25,64,70.54
447,E4,82.0,1.0,50,70.54
448,G#4,82.0,0.5,74,70.54
449,B2,82.0,2.0,48,70.54
450,C#5,82.5,0.5,62,70.54
451,A3,83.0,0.5,57,70.54
452,B4,83.0,1.0,53,70.54
453,F#4,83.0,1.0,53,70.54
454,E-4,83.0,1.0,53,70.54
455,B3,83.5,0.5,52,70.54
456,E5,84.0,1.0,61,70.54
457,E4,84.0,3.0,48,70.54
458,G4,84.0,3.0,48,70.54
459,C3,84.0,3.0,43,70.54
460,G3,84.0,3.0,43,70.54
461,C4,84.0,3.0,43,70.54
462,D5,85.0,0.5,52,70.54
463,C5,85.5,0.5,44,70.54
464,B4,86.0,0.5,50,70.54
465,B-4,86.5,0.5,42,70.54
466,E2,87.167,167/1000,31,70.54
467,B2,87.333,167/1000,30,70.54
468,G3,87.5,167/1000,38,70.54
469,B3,87.667,167/1000,34,70.54
470,E4,87.833,167/1000,36,70.54
471,A4,88.0,167/1000,39,70.54
472,G4,88.167,167/1000,34,70.54
473,E4,88.333,167/1000,34,70.54
474,B-4,88.5,167/1000,38,70.54
475,B4,88.667,167/1000,34,70.54
476,E5,88.833,167/1000,34,70.54
477,F#5,89.0,167/1000,38,70.54
478,G5,89.167,167/1000,34,70.54
479,B5,89.333,167/1000,34,70.54
480,E6,89.5,0.25,40,70.54
481,E5,90.0,1.0,61,70.54
482,E4,90.0,3.0,48,70.54
483,G4,90.0,3.0,48,70.54
484,C3,90.0,3.0,43,70.54
485,G3,90.0,3.0,43,70.54
486,C4,90.0,3.0,43,70.54
487,D5,91.0,0.5,55,70.54
488,C5,91.5,0.5,46,70.54
489,B4,92.0,0.5,50,70.54
490,B-4,92.5,0.5,41,70.54
491,E2,93.167,167/1000,31,70.54
492,B2,93.333,167/1000,30,70.54
493,G3,93.5,167/1000,38,70.54
494,B3,93.667,167/1000,34,70.54
495,E4,93.833,167/1000,36,70.54
496,A4,94.0,167/1000,39,70.54
497,G4,94.167,167/1000,34,70.54
498,E4,94.333,167/1000,34,70.54
499,C4,94.5,167/1000,38,70.54
500,B3,94.667,167/1000,34,70.54
501,G3,94.833,167/1000,34,70.54
502,C3,95.0,167/1000,37,70.54
503,B2,95.167,167/1000,34,70.54
504,G2,95.333,167/1000,33,70.54
505,E2,95.5,0.5,40,70.54
506,E5,96.0,1.0,61,70.54
507,E4,96.0,3.0,48,70.54
508,G4,96.0,3.0,48,70.54
509,C3,96.0,3.0,43,70.54
510,G3,96.0,3.0,43,70.54
511,C4,96.0,3.0,43,70.54
512,D5,97.0,0.5,53,70.54
513,C5,97.5,0.5,45,70.54
514,B4,98.0,0.5,51,70.54
515,B-4,98.5,0.5,44,70.54
516,E2,99.167,167/1000,31,70.54
517,B2,99.333,167/1000,30,70.54
518,G3,99.5,167/1000,38,70.54
519,B3,99.667,167/1000,34,70.54
520,E4,99.833,167/1000,36,70.54
521,A4,100.0,167/1000,39,70.54
522,G4,100.167,167/1000,34,70.54
523,E4,100.333,167/1000,34,70.54
524,B-4,100.5,167/1000,38,70.54
525,B4,100.667,167/1000,34,70.54
526,E5,100.833,167/1000,34,70.54
527,F#5,101.0,167/1000,38,70.54
528,G5,101.167,167/1000,34,70.54
529,B5,101.333,167/1000,34,70.54
530,E6,101.5,0.25,40,70.54
531,E5,102.0,1.0,61,70.54
532,E4,102.0,3.0,48,70.54
533,G4,102.0,3.0,48,70.54
534,C3,102.0,3.0,43,70.54
535,G3,102.0,3.0,43,70.54
536,C4,102.0,3.0,43,70.54
537,D5,103.0,0.5,57,70.54
538,C5,103.5,0.5,52,70.54
539,B4,104.0,0.5,57,70.54
540,B-4,104.5,0.5,51,70.54
541,E5,105.5,0.5,58,70.54
542,D5,106.0,0.5,65,70.54
543,E4,106.0,2.0,52,70.54
544,G4,106.0,2.0,52,70.54
545,C3,106.0,2.0,39,70.54
546,G3,106.0,2.0,39,70.54
547,C4,106.0,2.0,39,70.54
548,C5,106.5,0.5,60,70.54
549,B4,107.0,0.5,69,70.54
550,B-4,107.5,0.5,69,70.54
551,F5,108.0,1.0,72,70.54
552,C#3,108.167,0.5,57,70.54
553,G#3,108.333,167/1000,57,70.54
554,C#4,108.5,167/1000,62,70.54
555,F4,108.667,167/1000,57,70.54
556,G#4,108.833,167/1000,57,70.54
557,B-4,109.0,1.0,74,70.54
558,C#3,109.167,0.5,58,70.54
559,E-3,109.333,167/1000,58,70.54
560,B-3,109.5,167/1000,62,70.54
561,E-4,109.667,167/1000,55,70.54
562,G4,109.833,167/1000,55,70.54
563,E-5,110.0,1.0,74,70.54
564,C3,110.167,0.5,59,70.54
565,E-3,110.333,167/1000,59,70.54
566,C4,110.5,167/1000,62,70.54
567,E-4,110.667,167/1000,57,70.54
568,G#4,110.833,73/500,57,70.54
569,G#4,111.0,1.0,74,70.54
570,B-2,111.167,0.5,59,70.54
571,F3,111.333,167/1000,59,70.54
572,B-3,111.5,167/1000,62,70.54
573,C#4,111.667,167/1000,57,70.54
574,F4,111.833,167/1000,57,70.54
575,G4,112.0,271/500,66,70.54
576,G#4,112.5,271/500,58,70.54
577,C5,113.0,271/500,58,70.54
578,C#4,113.0,1.0,41,70.54
579,E-4,113.0,1.0,41,70.54
580,E-3,113.0,1.0,34,70.54
581,G3,113.0,1.0,34,70.54
582,B-4,113.5,0.5,42,70.54
583,F5,114.0,1.0,71,70.54
584,C#3,114.167,0.5,57,70.54
585,G#3,114.333,167/1000,57,70.54
586,C#4,114.5,167/1000,62,70.54
587,F4,114.667,167/1000,57,70.54
588,G#4,114.833,167/1000,57,70.54
589,B-4,115.0,1.0,73,70.54
590,C#3,115.167,0.5,58,70.54
591,E-3,115.333,167/1000,58,70.54
592,B-3,115.5,167/1000,62,70.54
593,E-4,115.667,167/1000,55,70.54
594,G4,115.833,167/1000,55,70.54
595,E-5,116.0,1.0,75,70.54
596,C3,116.167,0.5,59,70.54
597,E-3,116.333,167/1000,59,70.54
598,C4,116.5,167/1000,62,70.54
599,E-4,116.667,167/1000,57,70.54
600,G#4,116.833,167/1000,57,70.54
601,G#5,117.0,1.0,76,70.54
602,F3,117.167,0.5,57,70.54
603,C4,117.333,167/1000,57,70.54
604,F4,117.5,167/1000,62,70.54
605,G#4,117.667,167/1000,57,70.54
606,C5,117.833,167/1000,57,70.54
607,D5,118.0,1.0,74,70.54
608,F3,118.167,0.5,58,70.54
609,G3,118.333,167/1000,58,70.54
610,D4,118.5,167/1000,62,70.54
611,G4,118.667,167/1000,55,70.54
612,B4,118.833,167/1000,55,70.54
613,G5,119.0,1.0,75,70.54
614,E-3,119.167,0.5,59,70.54
615,G3,119.333,167/1000,59,70.54
616,E-4,119.5,167/1000,62,70.54
617,G4,119.667,167/1000,57,70.54
618,C5,119.833,167/1000,57,70.54
619,B4,120.0,1.0,71,70.54
620,C#3,120.167,167/1000,57,70.54
621,G3,120.333,167/1000,57,70.54
622,C#4,120.5,167/1000,58,70.54
623,B3,120.667,167/1000,55,70.54
624,F4,120.833,167/1000,55,70.54
625,B-4,121.0,271/500,68,70.54
626,B4,121.5,271/500,64,70.54
627,E5,122.0,271/500,58,70.54
628,E4,122.0,1.0,52,70.54
629,G4,122.0,1.0,52,70.54
630,C3,122.0,1.0,44,70.54
631,G3,122.0,1.0,44,70.54
632,C4,122.0,1.0,44,70.54
633,C5,122.5,0.5,47,70.54
634,B4,123.0,1.0,71,70.54
635,C#3,123.167,167/1000,57,70.54
636,G3,123.333,167/1000,57,70.54
637,C#4,123.5,167/1000,58,70.54
638,B3,123.667,167/1000,55,70.54
639,F4,123.833,167/1000,55,70.54
640,B-4,124.0,271/500,68,70.54
641,B4,124.5,0.188,58,70.54
642,C3,124.688,1.312,46,70.54
643,G3,124.75,1.25,46,70.54
644,E4,124.812,1.188,46,70.54
645,G4,124.875,1.125,64,70.54
646,C5,124.938,1.062,64,70.54
647,G5,125.0,333/1000,69,70.54
648,E5,125.333,333/1000,63,70.54
649,C5,125.667,333/1000,63,70.54
650,B4,126.0,1.0,71,70.54
651,C#3,126.167,167/1000,57,70.54
652,G3,126.333,167/1000,57,70.54
653,C#4,126.5,167/1000,58,70.54
654,B3,126.667,167/1000,55,70.54
655,F4,126.833,167/1000,55,70.54
656,B-4,127.0,271/500,69,70.54
657,B4,127.5,271/500,64,70.54
658,E5,128.0,271/500,65,70.54
659,E4,128.0,1.0,54,70.54
660,G4,128.0,1.0,54,70.54
661,C3,128.0,1.0,42,70.54
662,G3,128.0,1.0,42,70.54
663,C4,128.0,1.0,42,70.54
664,C5,128.5,0.5,49,70.54
665,B4,129.0,1.0,73,70.54
666,C#3,129.167,167/1000,57,70.54
667,G3,129.333,167/1000,57,70.54
668,C#4,129.5,167/1000,58,70.54
669,B3,129.667,167/1000,55,70.54
670,F4,129.833,167/1000,55,70.54
671,B-4,130.0,0.5,70,70.54
672,B4,130.5,0.188,58,70.54
673,B4,130.688,0.062,53,70.54
674,C5,130.75,0.062,58,70.54
675,B4,130.812,0.062,52,70.54
676,B-4,130.875,0.062,58,70.54
677,B4,130.938,0.062,52,70.54
678,G#5,131.0,333/1000,69,70.54
679,G5,131.333,0.5,63,70.54
680,F5,131.833,167/1000,63,70.54
681,F5,132.0,1.0,79,70.54
682,C3,132.167,0.5,57,70.54
683,G3,132.333,167/1000,57,70.54
684,E4,132.5,167/1000,58,70.54
685,G4,132.667,167/1000,55,70.54
686,C5,132.833,167/1000,55,70.54
687,E5,133.0,0.5,73,70.54
688,E-5,133.167,167/1000,64,70.54
689,E5,133.333,167/1000,53,70.54
690,G5,133.5,167/1000,53,70.54
691,F#5,133.667,167/1000,52,70.54
692,G5,133.833,167/1000,46,70.54
693,C6,134.0,0.5,52,70.54
694,E5,135.0,1.0,61,70.54
695,E4,135.0,3.0,48,70.54
696,G4,135.0,3.0,48,70.54
697,C3,135.0,3.0,43,70.54
698,G3,135.0,3.0,43,70.54
699,C4,135.0,3.0,43,70.54
700,D5,136.0,0.5,53,70.54
701,C5,136.5,0.5,45,70.54
702,B4,137.0,0.5,52,70.54
703,B-4,137.5,0.5,40,70.54
704,E2,138.167,167/1000,31,70.54
705,B2,138.333,167/1000,30,70.54
706,G3,138.5,167/1000,38,70.54
707,B3,138.667,167/1000,34,70.54
708,E4,138.833,167/1000,36,70.54
709,A4,139.0,167/1000,39,70.54
710,G4,139.167,167/1000,34,70.54
711,E4,139.333,167/1000,34,70.54
712,B-4,139.5,167/1000,38,70.54
713,B4,139.667,167/1000,34,70.54
714,E5,139.833,167/1000,34,70.54
715,F#5,140.0,167/1000,38,70.54
716,G5,140.167,167/1000,34,70.54
717,B5,140.333,167/1000,34,70.54
718,E6,140.5,0.25,40,70.54
719,E5,141.0,1.0,61,70.54
720,E4,141.0,3.0,48,70.54
721,G4,141.0,3.0,48,70.54
722,C3,141.0,3.0,43,70.54
723,G3,141.0,3.0,43,70.54
724,C4,141.0,3.0,43,70.54
725,D5,142.0,0.5,53,70.54
726,C5,142.5,0.5,44,70.54
727,B4,143.0,0.5,51,70.54
728,B-4,143.5,0.5,42,70.54
729,E2,144.167,167/1000,31,70.54
730,B2,144.333,167/1000,30,70.54
731,G3,144.5,167/1000,38,70.54
732,B3,144.667,167/1000,34,70.54
733,E4,144.833,167/1000,36,70.54
734,A4,145.0,167/1000,39,70.54
735,G4,145.167,167/1000,34,70.54
736,E4,145.333,167/1000,34,70.54
737,C4,145.5,167/1000,38,70.54
738,B3,145.667,167/1000,34,70.54
739,G3,145.833,167/1000,34,70.54
740,C3,146.0,167/1000,37,70.54
741,B2,146.167,167/1000,34,70.54
742,G2,146.333,167/1000,33,70.54
743,E2,146.5,0.5,40,70.54
744,E5,147.0,1.0,61,70.54
745,E4,147.0,3.0,48,70.54
746,G4,147.0,3.0,48,70.54
747,C3,147.0,3.0,43,70.54
748,G3,147.0,3.0,43,70.54
749,C4,147.0,3.0,43,70.54
750,D5,148.0,0.5,56,70.54
751,C5,148.5,0.5,45,70.54
752,B4,149.0,0.5,50,70.54
753,B-4,149.5,0.5,44,70.54
754,E2,150.167,167/1000,31,70.54
755,B2,150.333,167/1000,30,70.54
756,G3,150.5,167/1000,38,70.54
757,B3,150.667,167/1000,34,70.54
758,E4,150.833,167/1000,36,70.54
759,A4,151.0,167/1000,39,70.54
760,G4,151.167,167/1000,34,70.54
761,E4,151.333,167/1000,34,70.54
762,B-4,151.5,167/1000,38,70.54
763,B4,151.667,167/1000,34,70.54
764,E5,151.833,167/1000,34,70.54
765,F#5,152.0,167/1000,38,70.54
766,G5,152.167,167/1000,34,70.54
767,B5,152.333,167/1000,34,70.54
768,E6,152.5,0.25,40,70.54
769,E5,153.0,1.0,64,70.54
770,D5,154.0,0.5,57,70.54
771,E4,154.0,2.0,38,70.54
772,G4,154.0,2.0,38,70.54
773,C3,154.0,2.0,36,70.54
774,G3,154.0,2.0,36,70.54
775,C4,154.0,2.0,36,70.54
776,C5,154.5,0.5,48,70.54
777,B4,155.0,0.5,53,70.54
778,B-4,155.5,0.5,51,70.54
779,E5,156.5,0.5,58,70.54
780,E4,157.0,2.0,40,70.54
781,F#4,157.0,2.0,40,70.54
782,C3,157.0,2.0,32,70.54
783,F#3,157.0,2.0,32,70.54
784,C4,157.0,2.0,32,70.54
785,G#4,157.5,0.5,65,70.54
786,A4,158.0,0.5,67,70.54
787,B-4,158.5,0.5,71,70.54
788,F#5,159.0,1.0,73,70.54
789,B2,159.167,0.5,57,70.54
790,F#3,159.333,167/1000,57,70.54
791,E-4,159.5,167/1000,62,70.54
792,F#4,159.667,167/1000,57,70.54
793,B4,159.833,167/1000,57,70.54
794,D5,160.0,1.0,73,70.54
795,B2,160.167,0.5,58,70.54
796,G3,160.333,167/1000,58,70.54
797,B3,160.5,167/1000,62,70.54
798,D4,160.667,167/1000,55,70.54
799,G4,160.833,167/1000,55,70.54
800,E-5,161.0,1.0,74,70.54
801,B2,161.167,0.5,59,70.54
802,F#3,161.333,167/1000,59,70.54
803,B3,161.5,167/1000,62,70.54
804,E-4,161.667,167/1000,57,70.54
805,F#4,161.833,73/500,57,70.54
806,G#4,162.0,1.0,71,70.54
807,B2,162.167,0.5,59,70.54
808,F3,162.333,167/1000,59,70.54
809,B3,162.5,167/1000,62,70.54
810,C#4,162.667,167/1000,57,70.54
811,F4,162.833,167/1000,57,70.54
812,B-4,163.0,271/500,70,70.54
813,B4,163.5,271/500,64,70.54
814,E-5,164.0,271/500,69,70.54
815,E4,164.0,1.0,40,70.54
816,F#4,164.0,1.0,40,70.54
817,B2,164.0,1.0,37,70.54
818,F#3,164.0,1.0,37,70.54
819,B-3,164.0,1.0,37,70.54
820,C#5,164.5,0.5,54,70.54
821,F#5,165.0,1.0,71,70.54
822,B2,165.167,0.5,57,70.54
823,F#3,165.333,167/1000,57,70.54
824,E-4,165.5,167/1000,62,70.54
825,F#4,165.667,167/1000,57,70.54
826,B4,165.833,167/1000,57,70.54
827,D5,166.0,1.0,74,70.54
828,B2,166.167,0.5,58,70.54
829,G3,166.333,167/1000,58,70.54
830,B3,166.5,167/1000,62,70.54
831,D4,166.667,167/1000,55,70.54
832,G4,166.833,167/1000,55,70.54
833,E-5,167.0,1.0,75,70.54
834,B2,167.167,0.5,59,70.54
835,F#3,167.333,167/1000,59,70.54
836,B3,167.5,167/1000,62,70.54
837,E-4,167.667,167/1000,57,70.54
838,F#4,167.833,73/500,57,70.54
839,G#4,168.0,1.0,71,70.54
840,B2,168.167,0.5,59,70.54
841,F3,168.333,167/1000,59,70.54
842,B3,168.5,167/1000,62,70.54
843,C#4,168.667,167/1000,57,70.54
844,F4,168.833,167/1000,57,70.54
845,B-4,169.0,271/500,68,70.54
846,B4,169.5,271/500,57,70.54
847,E-5,170.0,271/500,69,70.54
848,E4,170.0,1.0,40,70.54
849,F#4,170.0,1.0,40,70.54
850,B2,170.0,1.0,37,70.54
851,F#3,170.0,1.0,37,70.54
852,B-3,170.0,1.0,37,70.54
853,C#5,170.5,0.5,54,70.54
854,F#5,171.0,1.0,74,70.54
855,B2,171.167,0.5,57,70.54
856,F#3,171.333,167/1000,57,70.54
857,E-4,171.5,167/1000,62,70.54
858,F#4,171.667,167/1000,57,70.54
859,B4,171.833,167/1000,57,70.54
860,D5,172.0,1.0,74,70.54
861,B2,172.167,0.5,58,70.54
862,G3,172.333,167/1000,58,70.54
863,B3,172.5,167/1000,62,70.54
864,D4,172.667,167/1000,55,70.54
865,G4,172.833,167/1000,55,70.54
866,E-5,173.0,1.0,75,70.54
867,B2,173.167,0.5,59,70.54
868,F#3,173.333,167/1000,59,70.54
869,B3,173.5,167/1000,62,70.54
870,E-4,173.667,167/1000,57,70.54
871,F#4,173.833,73/500,57,70.54
872,G4,174.0,1.0,73,70.54
873,B2,174.167,0.5,57,70.54
874,F3,174.333,167/1000,57,70.54
875,G3,174.5,167/1000,62,70.54
876,B3,174.667,167/1000,57,70.54
877,D4,174.833,167/1000,57,70.54
878,F#4,175.0,1.0,74,70.54
879,B2,175.167,0.5,58,70.54
880,F#3,175.333,167/1000,58,70.54
881,B3,175.5,167/1000,62,70.54
882,D4,175.667,167/1000,55,70.54
883,E-4,175.833,167/1000,55,70.54
884,G3,176.0,1.0,75,70.54
885,B1,176.167,0.5,59,70.54
886,F2,176.333,167/1000,59,70.54
887,G2,176.5,167/1000,62,70.54
888,B2,176.667,167/1000,57,70.54
889,D3,176.833,73/500,57,70.54
890,F#3,177.0,667/1000,76,70.54
891,B1,177.167,0.5,59,70.54
892,F#2,177.333,167/1000,59,70.54
893,E-3,177.5,167/1000,62,70.54
894,F3,177.654,26/125,68,70.54
895,F#3,177.821,26/125,64,70.54
896,G3,178.0,73/250,71,70.54
897,G#3,178.25,73/250,62,70.54
898,A3,178.5,73/250,65,70.54
899,B-3,178.75,73/250,57,70.54
900,B3,179.0,73/250,62,70.54
901,C#4,179.25,271/500,63,70.54
902,D4,179.75,0.25,59,70.54
903,D4,180.0,271/500,59,70.54
904,E-4,180.5,521/500,62,70.54
905,E4,181.5,271/500,46,70.54
906,F4,182.0,271/500,42,70.54
907,F#4,182.5,0.5,38,70.54
908,F#4,186.0,0.5,50,70.54
909,G#4,186.5,73/250,49,70.54
910,A4,186.75,0.25,46,70.54
911,G#4,187.0,0.5,51,70.54
912,D3,187.0,1.0,39,70.54
913,E3,187.0,2.0,50,70.54
914,B3,187.0,1.0,38,70.54
915,E4,187.0,1.0,38,70.54
916,B4,187.5,0.5,46,70.54
917,E4,188.0,1.0,55,70.54
918,C#3,188.0,1.0,48,70.54
919,A4,188.5,0.5,54,70.54
920,E4,189.0,1.0,55,70.54
921,B2,189.0,229/500,53,70.54
922,E3,189.0,1.0,50,70.54
923,G#4,189.0,229/500,57,70.54
924,B4,189.0,229/500,57,70.54
925,A2,189.5,229/500,55,70.54
926,A4,189.5,229/500,61,70.54
927,C#5,189.5,229/500,61,70.54
928,E4,190.0,2.0,47,70.54
929,E3,190.0,2.0,45,70.54
930,G#2,190.0,1.0,43,70.54
931,B4,190.0,1.0,56,70.54
932,E5,190.0,1.0,56,70.54
933,A2,191.0,1.0,39,70.54
934,A4,191.0,1.0,53,70.54
935,C#5,191.0,1.0,53,70.54
936,C#5,192.0,0.5,69,70.54
937,D5,192.5,73/250,68,70.54
938,E5,192.75,0.25,66,70.54
939,F#5,193.0,0.5,66,70.54
940,F#4,193.0,1.0,50,70.54
941,C#5,193.0,1.0,50,70.54
942,B-2,193.0,1.0,44,70.54
943,F#3,193.0,1.0,44,70.54
944,C#4,193.0,1.0,44,70.54
945,C#5,193.5,0.5,59,70.54
946,F#4,194.0,1.0,47,70.54
947,B4,194.0,1.0,47,70.54
948,D5,194.0,1.0,47,70.54
949,B2,194.0,1.0,38,70.54
950,F#3,194.0,1.0,38,70.54
951,B3,194.0,1.0,38,70.54
952,F#4,195.0,0.5,56,70.54
953,G#4,195.5,73/250,52,70.54
954,A4,195.75,0.25,48,70.54
955,E-4,196.0,1.0,46,70.54
956,C#5,196.0,0.5,52,70.54
957,B2,196.0,1.0,40,70.54
958,A3,196.0,1.0,40,70.54
959,B-4,196.5,1.0,48,70.54
960,D4,197.0,1.0,36,70.54
961,E3,197.0,1.0,31,70.54
962,G#3,197.0,1.0,31,70.54
963,B4,197.5,0.5,38,70.54
964,F#4,198.0,0.5,55,70.54
965,G#4,198.5,73/250,50,70.54
966,A4,198.75,0.25,46,70.54
967,G#4,199.0,0.5,55,70.54
968,D3,199.0,1.0,42,70.54
969,E3,199.0,2.0,50,70.54
970,B3,199.0,1.0,38,70.54
971,E4,199.0,1.0,38,70.54
972,B4,199.5,0.5,48,70.54
973,E4,200.0,1.0,62,70.54
974,C#3,200.0,1.0,48,70.54
975,A4,200.5,0.5,55,70.54
976,E4,201.0,1.0,62,70.54
977,B2,201.0,229/500,53,70.54
978,E3,201.0,1.0,50,70.54
979,G#4,201.0,229/500,57,70.54
980,B4,201.0,229/500,57,70.54
981,A2,201.5,229/500,56,70.54
982,A4,201.5,229/500,62,70.54
983,C#5,201.5,229/500,62,70.54
984,E4,202.0,2.0,48,70.54
985,E3,202.0,2.0,45,70.54
986,G#2,202.0,1.0,45,70.54
987,B4,202.0,1.0,58,70.54
988,E5,202.0,1.0,58,70.54
989,A2,203.0,1.0,43,70.54
990,A4,203.0,1.0,58,70.54
991,C#5,203.0,1.0,58,70.54
992,C#5,204.0,0.5,75,70.54
993,E-5,204.5,73/250,70,70.54
994,E5,204.75,0.25,67,70.54
995,E4,205.0,1.0,50,70.54
996,G#4,205.0,0.5,74,70.54
997,B2,205.0,2.0,50,70.54
998,C#5,205.5,0.5,64,70.54
999,A3,206.0,0.5,59,70.54
1000,E-4,206.0,1.0,49,70.54
1001,F#4,206.0,1.0,49,70.54
1002,B4,206.0,1.0,49,70.54
1003,B3,206.5,0.5,54,70.54
1004,C#5,207.0,0.5,81,70.54
1005,G#3,207.0,1.0,61,70.54
1006,B2,207.0,1.0,50,70.54
1007,B4,207.0,1.0,62,70.54
1008,E4,207.0,1.0,62,70.54
1009,E-5,207.5,73/250,75,70.54
1010,E5,207.75,0.25,71,70.54
1011,E4,208.0,1.0,50,70.54
1012,G#4,208.0,0.5,73,70.54
1013,B2,208.0,2.0,50,70.54
1014,C#5,208.5,0.5,63,70.54
1015,A3,209.0,0.5,59,70.54
1016,E-4,209.0,1.0,49,70.54
1017,F#4,209.0,1.0,49,70.54
1018,B4,209.0,1.0,49,70.54
1019,B3,209.5,0.5,54,70.54
1020,C#5,210.0,0.5,77,70.54
1021,G#3,210.0,0.5,58,70.54
1022,B2,210.0,0.5,50,70.54
1023,B4,210.0,1.0,59,70.54
1024,E4,210.0,1.0,59,70.54
1025,E-5,210.5,73/250,69,70.54
1026,E5,210.75,0.25,64,70.54
1027,G#5,211.0,0.5,74,70.54
1028,E5,211.5,0.5,62,70.54
1029,E-5,212.0,0.5,66,70.54
1030,C#5,212.5,0.5,63,70.54
1031,F#3,213.0,0.5,62,70.54
1032,E-4,213.0,1.0,48,70.54
1033,F#4,213.0,1.0,48,70.54
1034,C#5,213.0,1.0,48,70.54
1035,G#3,213.5,73/250,58,70.54
1036,A3,213.75,0.25,52,70.54
1037,C#4,214.0,0.5,58,70.54
1038,B2,214.0,1.0,46,70.54
1039,E-4,214.0,1.0,50,70.54
1040,F#4,214.0,1.0,50,70.54
1041,B3,214.5,0.5,48,70.54
1042,E3,215.0,1.0,46,70.54
1043,A3,215.0,0.5,58,70.54
1044,B3,215.0,1.0,50,70.54
1045,E4,215.0,1.0,50,70.54
1046,G#3,215.5,0.5,56,70.54
1047,D5,216.0,0.5,54,70.54
1048,E2,216.0,0.5,50,70.54
1049,E3,216.25,0.125,45,70.54
1050,C#5,216.5,73/250,50,70.54
1051,F#3,216.5,0.125,46,70.54
1052,B4,216.75,0.25,47,70.54
1053,G#3,216.75,0.125,47,70.54
1054,E-4,217.0,1.0,43,70.54
1055,F#4,217.0,0.5,51,70.54
1056,E3,217.0,2.0,36,70.54
1057,A3,217.0,0.25,50,70.54
1058,B3,217.25,0.25,45,70.54
1059,A4,217.5,0.5,36,70.54
1060,C4,217.5,1.0,47,70.54
1061,E4,218.0,1.0,42,70.54
1062,G#4,218.0,1.0,42,70.54
1063,B3,218.5,0.5,35,70.54
1064,E3,219.0,2.0,37,70.54
1065,A2,219.0,0.5,44,70.54
1066,C#4,219.0,0.5,46,70.54
1067,F#4,219.0,0.5,46,70.54
1068,G#2,219.5,0.5,31,70.54
1069,C4,219.5,0.5,35,70.54
1070,G#4,219.5,0.5,35,70.54
1071,A2,220.0,0.5,44,70.54
1072,C#4,220.0,0.5,46,70.54
1073,F#4,220.0,0.5,46,70.54
1074,G#2,220.5,0.5,34,70.54
1075,C4,220.5,0.5,34,70.54
1076,G#4,220.5,0.5,34,70.54
1077,E3,221.0,1.0,33,70.54
1078,A3,221.0,0.5,38,70.54
1079,B3,221.0,1.0,40,70.54
1080,E4,221.0,1.0,40,70.54
1081,G#3,221.5,0.5,36,70.54
1082,D5,222.0,0.5,54,70.54
1083,E2,222.0,0.5,50,70.54
1084,E3,222.25,0.125,45,70.54
1085,C#5,222.5,73/250,50,70.54
1086,F#3,222.5,0.125,46,70.54
1087,B4,222.75,0.25,47,70.54
1088,G#3,222.75,0.125,47,70.54
1089,E-4,223.0,1.0,43,70.54
1090,F#4,223.0,0.5,51,70.54
1091,E3,223.0,2.0,36,70.54
1092,A3,223.0,0.25,50,70.54
1093,B3,223.25,0.25,45,70.54
1094,A4,223.5,0.5,39,70.54
1095,C4,223.5,1.0,46,70.54
1096,E4,224.0,1.0,42,70.54
1097,G#4,224.0,1.0,42,70.54
1098,B3,224.5,0.5,34,70.54
1099,E3,225.0,2.0,37,70.54
1100,A2,225.0,0.5,44,70.54
1101,C#4,225.0,0.5,46,70.54
1102,F#4,225.0,0.5,46,70.54
1103,G#2,225.5,0.5,31,70.54
1104,C4,225.5,0.5,35,70.54
1105,G#4,225.5,0.5,35,70.54
1106,A2,226.0,0.5,44,70.54
1107,C#4,226.0,0.5,46,70.54
1108,F#4,226.0,0.5,46,70.54
1109,G#2,226.5,0.5,34,70.54
1110,C4,226.5,0.5,34,70.54
1111,G#4,226.5,0.5,34,70.54
1112,E3,227.0,1.0,33,70.54
1113,A3,227.0,0.5,38,70.54
1114,B3,227.0,1.0,40,70.54
1115,E4,227.0,1.0,40,70.54
1116,G#3,227.5,0.5,36,70.54
1117,G#3,228.0,2.0,41,70.54
1118,C#3,228.0,0.5,50,70.54
1119,E4,228.0,0.5,51,70.54
1120,B-4,228.0,0.5,51,70.54
1121,C3,228.5,0.5,39,70.54
1122,E-4,228.5,0.5,42,70.54
1123,C5,228.5,0.5,42,70.54
1124,C#3,229.0,0.5,51,70.54
1125,E4,229.0,0.5,51,70.54
1126,B-4,229.0,0.5,51,70.54
1127,C3,229.5,0.5,42,70.54
1128,E-4,229.5,0.5,42,70.54
1129,C5,229.5,0.5,42,70.54
1130,G#3,230.0,1.0,38,70.54
1131,C#4,230.0,0.5,44,70.54
1132,E-4,230.0,1.0,46,70.54
1133,G#4,230.0,1.0,46,70.54
1134,C4,230.5,0.5,41,70.54
1135,C4,231.0,2.0,45,70.54
1136,F3,231.0,0.5,53,70.54
1137,G#4,231.0,0.5,55,70.54
1138,D5,231.0,0.5,55,70.54
1139,E3,231.5,0.5,46,70.54
1140,G4,231.5,0.5,51,70.54
1141,E5,231.5,0.5,51,70.54
1142,F3,232.0,0.5,57,70.54
1143,G#4,232.0,0.5,58,70.54
1144,D5,232.0,0.5,58,70.54
1145,E3,232.5,0.5,51,70.54
1146,G4,232.5,0.5,52,70.54
1147,E5,232.5,0.5,52,70.54
1148,C5,233.0,1.0,52,70.54
1149,E-4,233.0,0.5,40,70.54
1150,F#4,233.0,0.5,40,70.54
1151,G#3,233.0,0.5,42,70.54
1152,C4,233.0,0.5,42,70.54
1153,E4,233.5,0.5,34,70.54
1154,G4,233.5,0.5,34,70.54
1155,C3,233.5,0.5,29,70.54
1156,G3,233.5,0.5,29,70.54
1157,G#4,234.0,0.5,55,70.54
1158,D5,234.0,73/250,60,70.54
1159,C4,234.0,2.0,44,70.54
1160,F3,234.0,0.5,55,70.54
1161,F5,234.25,73/250,47,70.54
1162,G3,234.5,0.5,40,70.54
1163,C5,234.5,0.5,49,70.54
1164,G4,234.5,0.5,49,70.54
1165,E5,234.5,0.5,49,70.54
1166,G#4,235.0,0.5,55,70.54
1167,D5,235.0,73/250,60,70.54
1168,F3,235.0,0.5,58,70.54
1169,F5,235.25,73/250,49,70.54
1170,G3,235.5,0.5,44,70.54
1171,C5,235.5,0.5,49,70.54
1172,G4,235.5,0.5,49,70.54
1173,E5,235.5,0.5,49,70.54
1174,C5,236.0,1.0,59,70.54
1175,E-4,236.0,0.5,45,70.54
1176,F#4,236.0,0.5,45,70.54
1177,G#3,236.0,0.5,40,70.54
1178,C4,236.0,0.5,40,70.54
1179,E4,236.5,0.5,38,70.54
1180,G4,236.5,0.5,38,70.54
1181,C3,236.5,0.5,26,70.54
1182,G3,236.5,0.5,26,70.54
1183,C4,237.0,1.0,46,70.54
1184,F3,237.0,0.5,56,70.54
1185,G#4,237.0,0.5,62,70.54
1186,D5,237.0,0.5,62,70.54
1187,C3,237.5,0.5,43,70.54
1188,C5,237.5,0.5,50,70.54
1189,G4,237.5,0.5,50,70.54
1190,E5,237.5,0.5,50,70.54
1191,B-4,238.0,0.5,65,70.54
1192,G5,238.0,0.5,65,70.54
1193,A3,238.0,0.5,51,70.54
1194,C#4,238.0,0.5,51,70.54
1195,D4,238.5,0.5,54,70.54
1196,A4,238.5,0.5,58,70.54
1197,F#5,238.5,0.5,58,70.54
1198,G#4,239.0,0.5,65,70.54
1199,F5,239.0,0.5,65,70.54
1200,G3,239.0,0.5,51,70.54
1201,B3,239.0,0.5,51,70.54
1202,C4,239.5,0.5,54,70.54
1203,G4,239.5,0.5,58,70.54
1204,E5,239.5,0.5,58,70.54
1205,G4,240.0,0.5,65,70.54
1206,E5,240.0,0.5,65,70.54
1207,F#3,240.0,0.5,51,70.54
1208,B-3,240.0,0.5,51,70.54
1209,B3,240.5,0.5,54,70.54
1210,F#4,240.5,0.5,58,70.54
1211,E-5,240.5,0.5,58,70.54
1212,B-4,241.0,73/250,64,70.54
1213,E4,241.0,0.5,63,70.54
1214,G3,241.0,0.5,58,70.54
1215,C#5,241.25,73/250,46,70.54
1216,E-4,241.5,0.5,44,70.54
1217,B4,241.5,0.5,44,70.54
1218,F#4,241.5,0.5,44,70.54
1219,B2,241.5,0.5,32,70.54
1220,F#3,241.5,0.5,32,70.54
1221,G4,242.0,0.5,63,70.54
1222,E5,242.0,0.5,63,70.54
1223,B-3,242.0,0.5,44,70.54
1224,F#3,242.0,0.5,44,70.54
1225,B3,242.5,0.5,45,70.54
1226,F#4,242.5,0.5,53,70.54
1227,E-5,242.5,0.5,53,70.54
1228,B-4,243.0,73/250,57,70.54
1229,E4,243.0,0.5,58,70.54
1230,G3,243.0,0.5,57,70.54
1231,C#5,243.25,73/250,45,70.54
1232,E-4,243.5,0.5,36,70.54
1233,B4,243.5,0.5,36,70.54
1234,F#4,243.5,0.5,36,70.54
1235,B2,243.5,0.5,28,70.54
1236,F#3,243.5,0.5,28,70.54
1237,B-4,244.0,73/250,54,70.54
1238,E4,244.0,0.5,56,70.54
1239,G3,244.0,0.5,55,70.54
1240,C#5,244.25,73/250,41,70.54
1241,E-4,244.5,0.5,34,70.54
1242,B4,244.5,0.5,34,70.54
1243,F#4,244.5,0.5,34,70.54
1244,B2,244.5,0.5,27,70.54
1245,F#3,244.5,0.5,27,70.54
1246,F#4,245.0,1.0,48,70.54
1247,E3,245.0,0.5,31,70.54
1248,B-3,245.0,0.5,34,70.54
1249,C#4,245.0,0.5,34,70.54
1250,B3,245.5,0.5,36,70.54
1251,E-3,245.5,0.5,28,70.54
1252,F#4,246.0,0.5,55,70.54
1253,G#4,246.5,73/250,51,70.54
1254,A4,246.75,0.25,46,70.54
1255,G#4,247.0,0.5,55,70.54
1256,D3,247.0,1.0,37,70.54
1257,E3,247.0,2.0,44,70.54
1258,B3,247.0,1.0,33,70.54
1259,E4,247.0,1.0,33,70.54
1260,B4,247.5,0.5,48,70.54
1261,E4,248.0,1.0,55,70.54
1262,C#3,248.0,1.0,42,70.54
1263,A4,248.5,0.5,58,70.54
1264,E4,249.0,1.0,55,70.54
1265,B2,249.0,229/500,53,70.54
1266,E3,249.0,1.0,44,70.54
1267,G#4,249.0,229/500,57,70.54
1268,B4,249.0,229/500,57,70.54
1269,A2,249.5,229/500,55,70.54
1270,A4,249.5,229/500,61,70.54
1271,C#5,249.5,229/500,61,70.54
1272,E4,250.0,2.0,45,70.54
1273,E3,250.0,2.0,45,70.54
1274,G#2,250.0,1.0,40,70.54
1275,B4,250.0,1.0,54,70.54
1276,E5,250.0,1.0,54,70.54
1277,A2,251.0,1.0,39,70.54
1278,A4,251.0,1.0,53,70.54
1279,C#5,251.0,1.0,53,70.54
1280,C#5,252.0,0.5,69,70.54
1281,D5,252.5,73/250,68,70.54
1282,E5,252.75,0.25,66,70.54
1283,F#5,253.0,0.5,67,70.54
1284,F#4,253.0,1.0,50,70.54
1285,C#5,253.0,1.0,50,70.54
1286,B-2,253.0,1.0,44,70.54
1287,F#3,253.0,1.0,44,70.54
1288,C#4,253.0,1.0,44,70.54
1289,C#5,253.5,0.5,63,70.54
1290,F#4,254.0,1.0,50,70.54
1291,B4,254.0,1.0,50,70.54
1292,D5,254.0,1.0,50,70.54
1293,B2,254.0,1.0,39,70.54
1294,F#3,254.0,1.0,39,70.54
1295,B3,254.0,1.0,39,70.54
1296,F#4,255.0,0.5,58,70.54
1297,G#4,255.5,73/250,55,70.54
1298,A4,255.75,0.25,48,70.54
1299,E-4,256.0,1.0,49,70.54
1300,C#5,256.0,0.5,55,70.54
1301,B2,256.0,1.0,46,70.54
1302,A3,256.0,1.0,46,70.54
1303,B-4,256.5,1.0,44,70.54
1304,D4,257.0,1.0,40,70.54
1305,E3,257.0,1.0,35,70.54
1306,G#3,257.0,1.0,35,70.54
1307,B4,257.5,0.5,42,70.54
1308,F#4,258.0,0.5,55,70.54
1309,G#4,258.5,73/250,54,70.54
1310,A4,258.75,0.25,47,70.54
1311,G#4,259.0,0.5,55,70.54
1312,D3,259.0,1.0,37,70.54
1313,E3,259.0,2.0,44,70.54
1314,B3,259.0,1.0,33,70.54
1315,E4,259.0,1.0,33,70.54
1316,B4,259.5,0.5,51,70.54
1317,E4,260.0,1.0,55,70.54
1318,C#3,260.0,1.0,42,70.54
1319,A4,260.5,0.5,56,70.54
1320,E4,261.0,1.0,55,70.54
1321,B2,261.0,229/500,53,70.54
1322,E3,261.0,1.0,44,70.54
1323,G#4,261.0,229/500,57,70.54
1324,B4,261.0,229/500,57,70.54
1325,A2,261.5,229/500,56,70.54
1326,A4,261.5,229/500,62,70.54
1327,C#5,261.5,229/500,62,70.54
1328,E4,262.0,2.0,48,70.54
1329,E3,262.0,2.0,51,70.54
1330,G#2,262.0,1.0,43,70.54
1331,B4,262.0,1.0,56,70.54
1332,E5,262.0,1.0,56,70.54
1333,A2,263.0,1.0,43,70.54
1334,A4,263.0,1.0,58,70.54
1335,C#5,263.0,1.0,58,70.54
1336,C#5,264.0,0.5,72,70.54
1337,D5,264.5,73/250,71,70.54
1338,E5,264.75,0.25,69,70.54
1339,F#5,265.0,0.5,69,70.54
1340,F#4,265.0,1.0,54,70.54
1341,C#5,265.0,1.0,54,70.54
1342,B-2,265.0,1.0,43,70.54
1343,F#3,265.0,1.0,43,70.54
1344,C#4,265.0,1.0,43,70.54
1345,C#5,265.5,0.5,62,70.54
1346,F#4,266.0,1.0,52,70.54
1347,B4,266.0,1.0,52,70.54
1348,D5,266.0,1.0,52,70.54
1349,B2,266.0,1.0,40,70.54
1350,F#3,266.0,1.0,40,70.54
1351,B3,266.0,1.0,40,70.54
1352,D5,267.0,0.5,75,70.54
1353,E5,267.5,73/250,73,70.54
1354,F#5,267.75,0.25,69,70.54
1355,G#4,268.0,1.0,47,70.54
1356,E-5,268.0,0.5,64,70.54
1357,G#5,268.0,0.5,64,70.54
1358,C3,268.0,1.0,45,70.54
1359,G#3,268.0,1.0,45,70.54
1360,E-4,268.0,1.0,45,70.54
1361,E-5,268.5,0.5,66,70.54
1362,G#4,269.0,1.0,55,70.54
1363,C#5,269.0,1.0,55,70.54
1364,E5,269.0,1.0,55,70.54
1365,C#3,269.0,1.0,41,70.54
1366,G#3,269.0,1.0,41,70.54
1367,C#4,269.0,1.0,41,70.54
1368,E5,270.0,0.5,73,70.54
1369,F#5,270.5,73/250,68,70.54
1370,G#5,270.75,0.25,64,70.54
1371,A5,271.0,229/500,71,70.54
1372,G#5,271.5,229/500,62,70.54
1373,F#5,272.0,229/500,65,70.54
1374,E5,272.5,229/500,59,70.54
1375,D5,273.0,229/500,63,70.54
1376,F#3,273.0,2.0,56,70.54
1377,A3,273.0,0.5,64,70.54
1378,A4,273.5,1.0,63,70.54
1379,B3,273.5,73/250,61,70.54
1380,C#4,273.75,0.25,58,70.54
1381,D4,274.0,229/500,61,70.54
1382,A5,274.5,1.0,69,70.54
1383,C#4,274.5,229/500,58,70.54
1384,F3,275.0,1.0,52,70.54
1385,B3,275.0,229/500,61,70.54
1386,A3,275.5,0.5,56,70.54
1387,E-4,275.5,0.5,52,70.54
1388,C5,275.5,0.5,52,70.54
1389,E-5,275.5,0.5,52,70.54
1390,E3,276.0,0.5,50,70.54
1391,A3,276.0,0.5,56,70.54
1392,E4,276.0,0.5,60,70.54
1393,C#5,276.0,0.5,60,70.54
1394,E5,276.0,0.5,60,70.54
1395,F#4,276.5,73/250,52,70.54
1396,G#4,276.75,0.25,45,70.54
1397,A4,277.0,229/500,52,70.54
1398,E4,277.5,1.5,42,70.54
1399,A3,277.5,229/500,45,70.54
1400,B3,277.5,1.5,36,70.54
1401,D4,277.5,1.5,36,70.54
1402,E3,278.0,1.0,42,70.54
1403,G3,278.0,229/500,48,70.54
1404,G#3,278.5,0.5,45,70.54
1405,E4,279.0,0.5,42,70.54
1406,E2,279.0,0.5,38,70.54
1407,A3,279.0,0.5,41,70.54
1408,C#4,279.0,0.5,41,70.54
1409,F#4,279.5,73/250,42,70.54
1410,G#4,279.75,0.25,38,70.54
1411,A4,280.0,229/500,42,70.54
1412,E4,280.5,1.5,36,70.54
1413,A3,280.5,229/500,38,70.54
1414,B3,280.5,1.5,29,70.54
1415,D4,280.5,1.5,29,70.54
1416,E3,281.0,1.0,36,70.54
1417,G3,281.0,229/500,40,70.54
1418,G#3,281.5,0.5,38,70.54
1419,E4,282.0,0.5,36,70.54
1420,E2,282.0,0.5,38,70.54
1421,A3,282.0,0.5,40,70.54
1422,C#4,282.0,0.5,40,70.54
1423,F#4,282.5,73/250,52,70.54
1424,G#4,282.75,0.25,45,70.54
1425,A4,283.0,229/500,52,70.54
1426,F#3,283.5,73/250,45,70.54
1427,A3,283.5,1.0,36,70.54
1428,C#4,283.5,1.0,36,70.54
1429,F3,283.75,73/250,39,70.54
1430,E3,284.0,229/500,48,70.54
1431,F#2,284.5,73/250,42,70.54
1432,E-3,284.5,0.5,39,70.54
1433,A3,284.5,0.5,39,70.54
1434,C4,284.5,0.5,39,70.54
1435,F2,284.75,0.25,39,70.54
1436,E2,285.0,2.0,48,70.54
1437,F2,285.0,21/500,39,70.54
1438,E-3,285.0,0.5,39,70.54
1439,A3,285.0,0.5,39,70.54
1440,C4,285.0,0.5,39,70.54
1441,E3,285.5,0.5,38,70.54
1442,A3,285.5,0.5,38,70.54
1443,C#4,285.5,0.5,38,70.54
1444,F#3,286.0,1.5,39,70.54
1445,G#3,286.0,1.5,39,70.54
1446,D4,286.0,1.5,39,70.54
1447,E3,287.0,1.0,42,70.54
1448,G#3,287.5,0.5,41,70.54
1449,E-3,287.5,0.5,41,70.54
1450,A1,288.0,167/1000,31,70.54
1451,E2,288.167,167/1000,31,70.54
1452,A2,288.333,167/1000,30,70.54
1453,C#3,288.5,167/1000,38,70.54
1454,E3,288.667,167/1000,34,70.54
1455,A3,288.833,167/1000,36,70.54
1456,E-3,289.0,167/1000,39,70.54
1457,E3,289.167,167/1000,34,70.54
1458,A3,289.333,167/1000,34,70.54
1459,C4,289.5,167/1000,38,70.54
1460,C#4,289.667,167/1000,34,70.54
1461,E4,289.833,167/1000,34,70.54
1462,A4,290.0,1.0,45,70.54
1463,A3,291.0,3.0,34,70.54
1464,A4,291.0,1.0,45,70.54
1465,C4,291.0,3.0,32,70.54
1466,F3,291.0,3.0,32,70.54
1467,G4,292.0,0.5,44,70.54
1468,F4,292.5,0.5,41,70.54
1469,E4,293.0,0.5,44,70.54
1470,E-4,293.5,0.5,40,70.54
1471,A2,294.0,167/1000,31,70.54
1472,E3,294.167,167/1000,31,70.54
1473,A3,294.333,167/1000,30,70.54
1474,C#4,294.5,167/1000,38,70.54
1475,E4,294.667,167/1000,34,70.54
1476,A4,294.833,167/1000,36,70.54
1477,E-4,295.0,167/1000,39,70.54
1478,E4,295.167,167/1000,34,70.54
1479,A4,295.333,167/1000,34,70.54
1480,C5,295.5,167/1000,38,70.54
1481,C#5,295.667,167/1000,34,70.54
1482,E5,295.833,167/1000,34,70.54
1483,A5,296.0,1.0,49,70.54
1484,A4,297.0,3.0,34,70.54
1485,A5,297.0,1.0,49,70.54
1486,C5,297.0,3.0,32,70.54
1487,F4,297.0,3.0,32,70.54
1488,G5,298.0,0.5,44,70.54
1489,F5,298.5,0.5,41,70.54
1490,E5,299.0,0.5,44,70.54
1491,E-5,299.5,0.5,40,70.54
1492,A3,300.167,167/1000,28,70.54
1493,E4,300.333,167/1000,27,70.54
1494,A4,300.5,167/1000,33,70.54
1495,C#5,300.667,167/1000,30,70.54
1496,E-5,300.833,167/1000,31,70.54
1497,F#5,301.0,167/1000,34,70.54
1498,E5,301.167,167/1000,30,70.54
1499,C#5,301.333,167/1000,30,70.54
1500,A5,301.5,167/1000,33,70.54
1501,C#6,301.667,167/1000,30,70.54
1502,E6,301.833,167/1000,30,70.54
1503,G#6,302.0,167/1000,33,70.54
1504,A6,302.167,167/1000,30,70.54
1505,C#7,302.333,167/1000,30,70.54
1506,E7,302.5,0.5,36,70.54
1507,E7,303.0,3.0,36,70.54
1508,A6,303.0,479/500,29,70.54
1509,E6,303.0,479/500,29,70.54
1510,A5,303.0,479/500,25,70.54
1511,C#6,303.0,479/500,25,70.54
1512,A6,304.0,479/500,29,70.54
1513,E6,304.0,479/500,29,70.54
1514,A5,304.0,479/500,26,70.54
1515,C#6,304.0,479/500,26,70.54
1516,A6,305.0,479/500,29,70.54
1517,E6,305.0,479/500,29,70.54
1518,A5,305.0,479/500,26,70.54
1519,C#6,305.0,479/500,26,70.54
1520,E7,306.0,3.0,36,70.54
1521,E6,306.0,3.0,28,70.54
1522,A6,306.0,3.0,28,70.54
1523,A5,306.0,3.0,25,70.54
1524,C#6,306.0,3.0,25,70.54
