,note_name,start_time,duration,velocity,tempo
0,E-4,0.0,2.0,72,118.35
1,G4,0.0,1.5,80,118.35
2,E-5,0.0,1.5,80,118.35
3,E-3,0.0,3.0,64,118.35
4,B-3,0.0,3.0,64,118.35
5,G4,1.5,0.5,73,118.35
6,B-4,2.0,1.0,75,118.35
7,G4,2.0,1.0,75,118.35
8,E-4,2.0,1.0,75,118.35
9,E-4,3.0,1.0,64,118.35
10,C5,3.0,0.5,71,118.35
11,G4,3.0,0.5,71,118.35
12,E-3,3.0,1.0,47,118.35
13,B-3,3.0,1.0,47,118.35
14,B-2,3.0,1.0,47,118.35
15,G4,3.5,0.5,73,118.35
16,B-4,4.0,2.0,71,118.35
17,E-4,4.0,2.0,71,118.35
18,G4,4.0,2.0,71,118.35
19,B-3,4.0,3.0,58,118.35
20,E-3,4.0,3.0,58,118.35
21,B-4,6.0,0.5,81,118.35
22,E-4,6.0,1.0,64,118.35
23,G4,6.0,1.0,64,118.35
24,C5,6.5,0.5,70,118.35
25,E-4,7.0,1.0,68,118.35
26,G4,7.0,0.5,81,118.35
27,E-3,7.0,1.0,52,118.35
28,B-3,7.0,1.0,52,118.35
29,B-2,7.0,1.0,52,118.35
30,C5,7.5,0.5,68,118.35
31,B-4,8.0,2.0,71,118.35
32,G4,8.0,2.0,71,118.35
33,E-4,8.0,2.0,71,118.35
34,E-3,8.0,3.0,60,118.35
35,B-3,8.0,3.0,60,118.35
36,E-4,10.0,2.0,72,118.35
37,G4,10.0,2.0,72,118.35
38,B-4,10.0,2.0,72,118.35
39,B-2,11.0,1.0,54,118.35
40,B-3,11.0,1.0,54,118.35
41,E-3,11.0,1.0,54,118.35
42,B-4,12.0,3.0,70,118.35
43,F5,12.0,1.5,77,118.35
44,F4,12.0,1.5,77,118.35
45,D4,12.0,3.0,60,118.35
46,B-3,12.0,3.0,60,118.35
47,E-3,12.0,3.0,60,118.35
48,G5,13.5,0.5,70,118.35
49,G4,13.5,0.5,70,118.35
50,F4,14.0,1.0,77,118.35
51,F5,14.0,1.0,77,118.35
52,G#4,15.0,1.0,68,118.35
53,C4,15.0,0.5,74,118.35
54,C5,15.0,0.5,74,118.35
55,F3,15.0,1.0,51,118.35
56,B-2,15.0,1.0,51,118.35
57,D4,15.5,0.5,72,118.35
58,D5,15.5,0.5,72,118.35
59,E-5,16.0,2.0,75,118.35
60,E-4,16.0,2.0,75,118.35
61,G4,16.0,2.0,75,118.35
62,E-3,16.0,3.0,62,118.35
63,B-3,16.0,3.0,62,118.35
64,G4,18.0,1.0,67,118.35
65,E-4,18.0,0.5,74,118.35
66,E-5,18.0,0.5,74,118.35
67,D4,18.5,0.5,64,118.35
68,D5,18.5,0.5,64,118.35
69,G#4,19.0,1.0,63,118.35
70,C5,19.0,0.5,69,118.35
71,C4,19.0,0.5,69,118.35
72,B-2,19.0,1.0,51,118.35
73,F3,19.0,1.0,51,118.35
74,D5,19.5,0.5,58,118.35
75,D4,19.5,0.5,58,118.35
76,B-3,20.0,2.0,65,118.35
77,E-3,20.0,2.5,65,118.35
78,G4,20.0,3.0,69,118.35
79,E-4,20.0,3.0,69,118.35
80,B-4,20.0,3.0,69,118.35
81,B-3,22.0,2.0,72,118.35
82,D3,22.5,0.5,63,118.35
83,C3,23.0,0.5,59,118.35
84,B-2,23.0,1.0,50,118.35
85,B-4,23.0,1.0,63,118.35
86,G#4,23.0,1.0,63,118.35
87,F4,23.0,1.0,63,118.35
88,D3,23.5,0.5,56,118.35
89,B-3,24.0,2.0,60,118.35
90,E-3,24.0,2.5,60,118.35
91,G4,24.0,3.0,65,118.35
92,B-4,24.0,3.0,65,118.35
93,E-4,24.0,3.0,65,118.35
94,B-3,26.0,2.0,72,118.35
95,D3,26.5,0.5,63,118.35
96,B-2,27.0,1.0,50,118.35
97,C3,27.0,0.5,59,118.35
98,F4,27.0,1.0,63,118.35
99,G#4,27.0,1.0,63,118.35
100,B-4,27.0,1.0,63,118.35
101,D3,27.5,0.5,56,118.35
102,E-4,28.0,2.0,72,118.35
103,G4,28.0,1.5,80,118.35
104,E-5,28.0,1.5,80,118.35
105,B-3,28.0,3.0,64,118.35
106,E-3,28.0,3.0,64,118.35
107,G4,29.5,0.5,73,118.35
108,B-4,30.0,1.0,75,118.35
109,G4,30.0,1.0,75,118.35
110,E-4,30.0,1.0,75,118.35
111,E-4,31.0,1.0,64,118.35
112,C5,31.0,0.5,71,118.35
113,G4,31.0,0.5,71,118.35
114,B-2,31.0,1.0,47,118.35
115,B-3,31.0,1.0,47,118.35
116,E-3,31.0,1.0,47,118.35
117,G4,31.5,0.5,73,118.35
118,B-4,32.0,2.0,71,118.35
119,G4,32.0,2.0,71,118.35
120,E-4,32.0,2.0,71,118.35
121,E-3,32.0,3.0,58,118.35
122,B-3,32.0,3.0,58,118.35
123,B-4,34.0,0.5,81,118.35
124,G4,34.0,1.0,64,118.35
125,E-4,34.0,1.0,64,118.35
126,C5,34.5,0.5,70,118.35
127,E-4,35.0,1.0,68,118.35
128,G4,35.0,0.5,81,118.35
129,E-3,35.0,1.0,52,118.35
130,B-2,35.0,1.0,52,118.35
131,B-3,35.0,1.0,52,118.35
132,C5,35.5,0.5,68,118.35
133,E-4,36.0,2.0,71,118.35
134,B-4,36.0,2.0,71,118.35
135,G4,36.0,2.0,71,118.35
136,B-3,36.0,3.0,60,118.35
137,E-3,36.0,3.0,60,118.35
138,B-4,38.0,2.0,72,118.35
139,G4,38.0,2.0,72,118.35
140,E-4,38.0,2.0,72,118.35
141,E-3,39.0,1.0,54,118.35
142,B-2,39.0,1.0,54,118.35
143,B-3,39.0,1.0,54,118.35
144,B-4,40.0,3.0,70,118.35
145,F5,40.0,1.5,77,118.35
146,F4,40.0,1.5,77,118.35
147,E-3,40.0,3.0,60,118.35
148,B-3,40.0,3.0,60,118.35
149,D4,40.0,3.0,60,118.35
150,G4,41.5,0.5,70,118.35
151,G5,41.5,0.5,70,118.35
152,F4,42.0,1.0,77,118.35
153,F5,42.0,1.0,77,118.35
154,G#4,43.0,1.0,68,118.35
155,C5,43.0,0.5,74,118.35
156,C4,43.0,0.5,74,118.35
157,F3,43.0,1.0,51,118.35
158,B-2,43.0,1.0,51,118.35
159,D4,43.5,0.5,72,118.35
160,D5,43.5,0.5,72,118.35
161,G4,44.0,2.0,75,118.35
162,E-4,44.0,2.0,75,118.35
163,E-5,44.0,2.0,75,118.35
164,B-3,44.0,3.0,62,118.35
165,E-3,44.0,3.0,62,118.35
166,G4,46.0,1.0,67,118.35
167,E-4,46.0,0.5,74,118.35
168,E-5,46.0,0.5,74,118.35
169,D4,46.5,0.5,64,118.35
170,D5,46.5,0.5,64,118.35
171,G#4,47.0,1.0,63,118.35
172,C5,47.0,0.5,69,118.35
173,C4,47.0,0.5,69,118.35
174,F3,47.0,1.0,51,118.35
175,B-2,47.0,1.0,51,118.35
176,D5,47.5,0.5,58,118.35
177,D4,47.5,0.5,58,118.35
178,E-4,48.0,2.0,62,118.35
179,B-4,48.0,3.0,68,118.35
180,G4,48.0,3.0,68,118.35
181,E-3,48.0,3.0,62,118.35
182,B-3,48.0,3.0,62,118.35
183,E-4,50.0,0.5,70,118.35
184,D4,50.5,0.5,66,118.35
185,C4,51.0,0.5,61,118.35
186,F#4,51.0,1.0,65,118.35
187,C5,51.0,1.0,65,118.35
188,G#2,51.0,1.0,50,118.35
189,D3,51.0,1.0,50,118.35
190,D4,51.5,0.5,58,118.35
191,C4,52.0,2.0,62,118.35
192,G4,52.0,2.5,68,118.35
193,D4,52.0,2.5,68,118.35
194,G2,52.0,2.5,57,118.35
195,D3,52.0,2.5,57,118.35
196,B3,54.0,0.5,63,118.35
197,F2,54.5,0.5,63,118.35
198,G3,55.0,1.0,80,118.35
199,E-2,55.0,0.5,63,118.35
200,D2,55.5,0.5,63,118.35
201,C4,56.0,0.25,75,118.35
202,C2,56.0,0.25,67,118.35
203,G2,56.5,0.25,61,118.35
204,C3,57.0,0.25,63,118.35
205,E-4,57.0,1.0,69,118.35
206,G4,57.0,1.0,69,118.35
207,C4,57.0,1.0,69,118.35
208,G2,57.5,0.25,59,118.35
209,D4,58.0,0.5,67,118.35
210,C2,58.0,0.25,67,118.35
211,G2,58.5,0.25,59,118.35
212,C3,59.0,0.25,62,118.35
213,F4,59.0,1.0,70,118.35
214,G4,59.0,1.0,70,118.35
215,D4,59.0,1.0,70,118.35
216,G2,59.5,0.25,59,118.35
217,E-4,60.0,0.5,73,118.35
218,C2,60.0,0.25,68,118.35
219,G2,60.5,0.25,60,118.35
220,D4,61.0,0.5,58,118.35
221,C3,61.0,0.25,63,118.35
222,F4,61.0,1.0,64,118.35
223,G4,61.0,1.0,64,118.35
224,C4,61.5,0.5,71,118.35
225,G2,61.5,0.25,60,118.35
226,B3,62.0,0.5,66,118.35
227,C2,62.0,0.25,67,118.35
228,G2,62.5,0.25,60,118.35
229,C3,63.0,0.25,63,118.35
230,G4,63.0,1.0,68,118.35
231,G3,63.0,1.0,68,118.35
232,F4,63.0,1.0,68,118.35
233,G2,63.5,0.25,59,118.35
234,C4,64.0,0.5,75,118.35
235,C2,64.0,0.25,67,118.35
236,G2,64.5,0.25,61,118.35
237,C3,65.0,0.25,63,118.35
238,C4,65.0,1.0,71,118.35
239,G4,65.0,1.0,71,118.35
240,E-4,65.0,1.0,71,118.35
241,G2,65.5,0.25,59,118.35
242,A3,66.0,0.5,67,118.35
243,C2,66.0,0.25,67,118.35
244,G2,66.5,0.25,59,118.35
245,A3,67.0,0.5,66,118.35
246,C3,67.0,0.25,62,118.35
247,F4,67.0,1.0,74,118.35
248,G4,67.0,1.0,74,118.35
249,B3,67.5,0.5,67,118.35
250,G2,67.5,0.25,59,118.35
251,C4,68.0,0.5,75,118.35
252,C2,68.0,0.25,67,118.35
253,G2,68.5,0.25,61,118.35
254,C3,69.0,0.25,63,118.35
255,E-4,69.0,1.0,71,118.35
256,G4,69.0,1.0,71,118.35
257,C4,69.0,1.0,71,118.35
258,G2,69.5,0.25,59,118.35
259,C2,70.0,0.25,67,118.35
260,E-5,70.0,0.5,74,118.35
261,G5,70.0,0.5,74,118.35
262,G4,70.0,0.5,74,118.35
263,C5,70.0,0.5,74,118.35
264,G2,70.5,0.25,59,118.35
265,C3,71.0,0.25,62,118.35
266,G4,71.0,1.0,74,118.35
267,G3,71.0,1.0,74,118.35
268,G2,71.5,0.25,59,118.35
269,C2,72.0,0.25,67,118.35
270,C5,72.0,0.5,75,118.35
271,G4,72.0,0.5,75,118.35
272,E-4,72.0,0.5,75,118.35
273,C4,72.0,0.5,75,118.35
274,G2,72.5,0.25,61,118.35
275,C3,73.0,0.25,63,118.35
276,C4,73.0,1.0,73,118.35
277,C5,73.0,1.0,73,118.35
278,G3,73.5,0.25,59,118.35
279,G3,74.0,0.25,67,118.35
280,D4,74.0,0.5,70,118.35
281,D5,74.0,0.5,70,118.35
282,B4,74.0,0.5,70,118.35
283,G4,74.0,0.5,70,118.35
284,C3,74.5,0.25,59,118.35
285,G2,75.0,0.25,62,118.35
286,D4,75.0,1.0,74,118.35
287,D5,75.0,1.0,74,118.35
288,C2,75.5,0.25,59,118.35
289,C2,76.0,0.25,67,118.35
290,G4,76.0,0.5,75,118.35
291,E-4,76.0,0.5,75,118.35
292,E-5,76.0,0.5,75,118.35
293,C5,76.0,0.5,75,118.35
294,G2,76.5,0.25,61,118.35
295,C3,77.0,0.25,63,118.35
296,D4,77.0,0.5,73,118.35
297,D5,77.0,0.5,73,118.35
298,G3,77.5,0.25,59,118.35
299,C5,77.5,0.5,73,118.35
300,C4,77.5,0.5,73,118.35
301,G3,78.0,0.25,67,118.35
302,D4,78.0,0.5,70,118.35
303,G4,78.0,0.5,70,118.35
304,B4,78.0,0.5,70,118.35
305,D5,78.0,0.5,70,118.35
306,C3,78.5,0.25,59,118.35
307,G2,79.0,0.25,62,118.35
308,G3,79.0,1.0,74,118.35
309,G4,79.0,1.0,74,118.35
310,C2,79.5,0.25,59,118.35
311,C2,80.0,0.25,70,118.35
312,C4,80.0,0.5,79,118.35
313,C5,80.0,0.5,79,118.35
314,G2,80.5,0.25,63,118.35
315,C3,81.0,0.25,67,118.35
316,E-5,81.0,1.0,78,118.35
317,G5,81.0,1.0,78,118.35
318,G4,81.0,1.0,78,118.35
319,C5,81.0,1.0,78,118.35
320,G3,81.5,0.25,62,118.35
321,G3,82.0,0.25,72,118.35
322,E-4,82.0,0.5,78,118.35
323,E-5,82.0,0.5,78,118.35
324,C3,82.5,0.25,62,118.35
325,G2,83.0,0.25,65,118.35
326,D4,83.0,0.5,76,118.35
327,G4,83.0,0.5,76,118.35
328,B4,83.0,0.5,76,118.35
329,D5,83.0,0.5,76,118.35
330,C2,83.5,0.25,62,118.35
331,E-5,83.5,0.5,79,118.35
332,E-4,83.5,0.5,79,118.35
333,C2,84.0,0.5,64,118.35
334,C4,84.0,0.5,80,118.35
335,C5,84.0,0.5,80,118.35
336,E-5,84.5,0.5,91,118.35
337,G5,84.5,0.5,91,118.35
338,G4,84.5,0.5,91,118.35
339,C5,84.5,0.5,91,118.35
340,E-3,84.5,0.5,64,118.35
341,G3,84.5,0.5,64,118.35
342,C4,84.5,0.5,64,118.35
343,C3,84.5,0.5,64,118.35
344,F5,85.0,2.0,92,118.35
345,G#5,85.0,2.0,92,118.35
346,G#4,85.0,2.0,92,118.35
347,C5,85.0,2.0,92,118.35
348,G#3,85.0,1.812,64,118.35
349,F4,85.0,1.812,64,118.35
350,C4,85.0,1.812,64,118.35
351,F3,85.0,1.812,64,118.35
352,B-2,86.812,1.188,53,118.35
353,F3,86.875,1.125,53,118.35
354,B-3,86.938,1.062,63,118.35
355,D4,87.0,1.0,63,118.35
356,B-4,87.0,1.0,88,118.35
357,D5,87.0,1.0,88,118.35
358,F5,87.0,1.0,88,118.35
359,B-5,87.0,1.0,88,118.35
360,G4,88.0,0.5,85,118.35
361,B-4,88.0,0.5,85,118.35
362,G5,88.0,0.5,85,118.35
363,E-5,88.0,0.5,85,118.35
364,E-4,88.0,0.5,61,118.35
365,G3,88.0,0.5,61,118.35
366,B-3,88.0,0.5,61,118.35
367,E-3,88.0,0.5,61,118.35
368,E-5,88.5,0.5,85,118.35
369,C5,88.5,0.5,85,118.35
370,G4,88.5,0.5,85,118.35
371,G5,88.5,0.5,85,118.35
372,E-4,88.5,0.5,66,118.35
373,C4,88.5,0.5,66,118.35
374,F5,89.0,2.0,91,118.35
375,C5,89.0,2.0,91,118.35
376,G#4,89.0,2.0,91,118.35
377,G#5,89.0,2.0,91,118.35
378,G#3,89.0,1.812,64,118.35
379,F3,89.0,1.812,64,118.35
380,F4,89.0,1.812,64,118.35
381,C4,89.0,1.812,64,118.35
382,B-2,90.812,1.188,61,118.35
383,F3,90.875,1.125,61,118.35
384,B-3,90.938,1.062,73,118.35
385,D4,91.0,1.0,73,118.35
386,F5,91.0,1.0,91,118.35
387,B-5,91.0,1.0,91,118.35
388,D5,91.0,1.0,91,118.35
389,B-4,91.0,1.0,91,118.35
390,G4,92.0,0.5,88,118.35
391,B-4,92.0,0.5,88,118.35
392,E-5,92.0,0.5,88,118.35
393,G5,92.0,0.5,88,118.35
394,B-3,92.0,0.5,61,118.35
395,G3,92.0,0.5,61,118.35
396,E-3,92.0,0.5,61,118.35
397,E-4,92.0,0.5,61,118.35
398,E-6,93.0,0.25,79,118.35
399,G5,93.0,0.25,79,118.35
400,G4,93.0,0.25,73,118.35
401,C4,93.0,0.25,73,118.35
402,E-5,93.25,0.25,70,118.35
403,C5,93.5,0.25,67,118.35
404,E-5,93.75,0.25,70,118.35
405,D6,94.0,0.25,79,118.35
406,G5,94.0,0.25,79,118.35
407,D4,94.0,0.25,74,118.35
408,B3,94.0,0.25,74,118.35
409,D5,94.25,0.25,62,118.35
410,B4,94.5,0.25,67,118.35
411,D5,94.75,0.25,63,118.35
412,C6,95.0,0.25,77,118.35
413,F#5,95.0,0.25,77,118.35
414,D4,95.0,0.25,72,118.35
415,G#3,95.0,0.25,72,118.35
416,C5,95.25,0.25,63,118.35
417,G#4,95.5,0.25,62,118.35
418,C5,95.75,0.25,63,118.35
419,D5,96.0,0.25,75,118.35
420,G5,96.0,0.25,75,118.35
421,B5,96.0,0.25,75,118.35
422,G3,96.0,0.25,71,118.35
423,D4,96.0,0.25,71,118.35
424,B4,96.25,0.25,62,118.35
425,G4,96.5,0.25,59,118.35
426,B4,96.75,0.25,62,118.35
427,F3,97.0,0.25,70,118.35
428,G#5,97.0,0.25,77,118.35
429,D5,97.0,0.25,77,118.35
430,B4,97.0,0.25,77,118.35
431,G#4,97.25,0.25,60,118.35
432,F4,97.5,0.25,57,118.35
433,G#4,97.75,0.25,61,118.35
434,E-3,98.0,0.25,67,118.35
435,C5,98.0,0.25,75,118.35
436,G5,98.0,0.25,75,118.35
437,G4,98.25,0.25,58,118.35
438,E-4,98.5,0.25,56,118.35
439,G4,98.75,0.25,58,118.35
440,D3,99.0,0.25,63,118.35
441,G4,99.0,0.25,73,118.35
442,B4,99.0,0.25,73,118.35
443,F5,99.0,0.25,73,118.35
444,F4,99.25,0.25,57,118.35
445,D4,99.5,0.25,58,118.35
446,F4,99.75,0.25,57,118.35
447,C3,100.0,0.5,64,118.35
448,E-4,100.0,0.5,76,118.35
449,E-5,100.0,0.5,76,118.35
450,G4,100.0,0.5,76,118.35
451,C5,100.0,0.5,76,118.35
452,G4,100.5,0.5,91,118.35
453,C5,100.5,0.5,91,118.35
454,E-5,100.5,0.5,91,118.35
455,G5,100.5,0.5,91,118.35
456,E-4,100.5,0.5,70,118.35
457,C4,100.5,0.5,70,118.35
458,G#4,101.0,2.0,92,118.35
459,C5,101.0,2.0,92,118.35
460,G#5,101.0,2.0,92,118.35
461,F5,101.0,2.0,92,118.35
462,G#3,101.0,1.812,64,118.35
463,F4,101.0,1.812,64,118.35
464,C4,101.0,1.812,64,118.35
465,F3,101.0,1.812,64,118.35
466,B-2,102.812,1.188,53,118.35
467,F3,102.875,1.125,53,118.35
468,B-3,102.938,1.062,63,118.35
469,D4,103.0,1.0,63,118.35
470,F5,103.0,1.0,88,118.35
471,D5,103.0,1.0,88,118.35
472,B-4,103.0,1.0,88,118.35
473,B-5,103.0,1.0,88,118.35
474,E-5,104.0,0.5,85,118.35
475,B-4,104.0,0.5,85,118.35
476,G4,104.0,0.5,85,118.35
477,G5,104.0,0.5,85,118.35
478,E-4,104.0,0.5,61,118.35
479,G3,104.0,0.5,61,118.35
480,B-3,104.0,0.5,61,118.35
481,E-3,104.0,0.5,61,118.35
482,E-5,104.5,0.5,85,118.35
483,G5,104.5,0.5,85,118.35
484,G4,104.5,0.5,85,118.35
485,C5,104.5,0.5,85,118.35
486,C4,104.5,0.5,66,118.35
487,E-4,104.5,0.5,66,118.35
488,G#4,105.0,2.0,91,118.35
489,G#5,105.0,2.0,91,118.35
490,F5,105.0,2.0,91,118.35
491,C5,105.0,2.0,91,118.35
492,G#3,105.0,1.812,64,118.35
493,C4,105.0,1.812,64,118.35
494,F4,105.0,1.812,64,118.35
495,F3,105.0,1.812,64,118.35
496,B-2,106.812,1.188,61,118.35
497,F3,106.875,1.125,61,118.35
498,B-3,106.938,1.062,73,118.35
499,D4,107.0,1.0,73,118.35
500,B-4,107.0,1.0,91,118.35
501,B-5,107.0,1.0,91,118.35
502,D5,107.0,1.0,91,118.35
503,F5,107.0,1.0,91,118.35
504,G4,108.0,0.5,88,118.35
505,B-4,108.0,0.5,88,118.35
506,E-5,108.0,0.5,88,118.35
507,G5,108.0,0.5,88,118.35
508,E-4,108.0,0.5,61,118.35
509,B-3,108.0,0.5,61,118.35
510,G3,108.0,0.5,61,118.35
511,E-3,108.0,0.5,61,118.35
512,G5,109.0,0.25,79,118.35
513,E-5,109.0,0.25,79,118.35
514,E-3,109.0,0.25,73,118.35
515,B-3,109.0,0.25,73,118.35
516,G4,109.25,0.25,70,118.35
517,E-4,109.5,0.25,67,118.35
518,G4,109.75,0.25,70,118.35
519,G#5,110.0,0.25,79,118.35
520,E-5,110.0,0.25,79,118.35
521,B-3,110.0,0.25,74,118.35
522,F3,110.0,0.25,74,118.35
523,G#4,110.25,0.25,62,118.35
524,F4,110.5,0.25,67,118.35
525,G#4,110.75,0.25,63,118.35
526,B-5,111.0,0.25,77,118.35
527,E-5,111.0,0.25,77,118.35
528,B-3,111.0,0.25,72,118.35
529,G3,111.0,0.25,72,118.35
530,B-4,111.25,0.25,63,118.35
531,G4,111.5,0.25,62,118.35
532,B-4,111.75,0.25,63,118.35
533,C6,112.0,0.25,75,118.35
534,E-5,112.0,0.25,75,118.35
535,G#3,112.0,0.25,71,118.35
536,E-4,112.0,0.25,71,118.35
537,C5,112.25,0.25,62,118.35
538,G#4,112.5,0.25,59,118.35
539,C5,112.75,0.25,62,118.35
540,G5,113.0,0.25,77,118.35
541,B5,113.0,0.25,77,118.35
542,G3,113.0,0.25,70,118.35
543,D4,113.0,0.25,70,118.35
544,B4,113.25,0.25,60,118.35
545,G4,113.5,0.25,57,118.35
546,B4,113.75,0.25,61,118.35
547,C6,114.0,0.25,75,118.35
548,G5,114.0,0.25,75,118.35
549,D4,114.0,0.25,67,118.35
550,A3,114.0,0.25,67,118.35
551,C5,114.25,0.25,58,118.35
552,A4,114.5,0.25,56,118.35
553,C5,114.75,0.25,58,118.35
554,D6,115.0,0.25,73,118.35
555,G5,115.0,0.25,73,118.35
556,D4,115.0,0.25,63,118.35
557,B3,115.0,0.25,63,118.35
558,D5,115.25,0.25,57,118.35
559,B4,115.5,0.25,58,118.35
560,D5,115.75,0.25,57,118.35
561,G5,116.0,0.5,77,118.35
562,E-5,116.0,0.5,77,118.35
563,E-6,116.0,0.5,77,118.35
564,C4,116.0,0.5,70,118.35
565,C5,116.0,0.5,70,118.35
566,G4,116.0,0.5,70,118.35
567,E-5,116.5,0.5,91,118.35
568,G5,116.5,0.5,91,118.35
569,E-6,116.5,0.5,91,118.35
570,C6,116.5,0.5,91,118.35
571,C4,116.5,0.5,63,118.35
572,B-4,116.5,0.5,63,118.35
573,B-3,116.5,0.5,63,118.35
574,F6,117.0,2.0,94,118.35
575,C6,117.0,2.0,94,118.35
576,F5,117.0,2.0,94,118.35
577,A3,117.0,1.5,70,118.35
578,A4,117.0,1.5,70,118.35
579,C4,117.0,1.5,70,118.35
580,F3,118.5,0.5,59,118.35
581,F4,118.5,0.5,59,118.35
582,C#6,119.0,1.0,91,118.35
583,F5,119.0,1.0,91,118.35
584,C#5,119.0,1.0,91,118.35
585,G4,119.0,0.5,62,118.35
586,G3,119.0,0.5,62,118.35
587,A4,119.5,0.5,66,118.35
588,A3,119.5,0.5,66,118.35
589,D5,120.0,0.5,87,118.35
590,D6,120.0,0.5,87,118.35
591,F5,120.0,0.5,87,118.35
592,B-4,120.0,0.5,69,118.35
593,B-3,120.0,0.5,69,118.35
594,C6,120.5,0.5,85,118.35
595,E-6,120.5,0.5,85,118.35
596,E-5,120.5,0.5,85,118.35
597,G5,120.5,0.5,85,118.35
598,C4,120.5,0.5,63,118.35
599,B-4,120.5,0.5,63,118.35
600,B-3,120.5,0.5,63,118.35
601,F5,121.0,2.0,94,118.35
602,C6,121.0,2.0,94,118.35
603,F6,121.0,2.0,94,118.35
604,C4,121.0,1.5,69,118.35
605,A4,121.0,1.5,69,118.35
606,A3,121.0,1.5,69,118.35
607,F4,122.5,0.5,61,118.35
608,F3,122.5,0.5,61,118.35
609,C#5,123.0,1.0,94,118.35
610,F5,123.0,1.0,94,118.35
611,C#6,123.0,1.0,94,118.35
612,G4,123.0,0.5,63,118.35
613,G3,123.0,0.5,63,118.35
614,A3,123.5,0.5,64,118.35
615,A4,123.5,0.5,64,118.35
616,D6,124.0,0.25,75,118.35
617,B-5,124.0,0.25,75,118.35
618,F5,124.0,0.25,75,118.35
619,B-3,124.0,0.25,71,118.35
620,F4,124.0,0.25,71,118.35
621,D5,124.25,0.25,62,118.35
622,B-4,124.5,0.25,59,118.35
623,D5,124.75,0.25,62,118.35
624,F#5,125.0,0.25,77,118.35
625,A5,125.0,0.25,77,118.35
626,E-4,125.0,0.25,70,118.35
627,B-3,125.0,0.25,70,118.35
628,A4,125.25,0.25,60,118.35
629,F#4,125.5,0.25,57,118.35
630,A4,125.75,0.25,61,118.35
631,B-5,126.0,0.25,75,118.35
632,F5,126.0,0.25,75,118.35
633,D4,126.0,0.25,67,118.35
634,B-3,126.0,0.25,67,118.35
635,B-4,126.25,0.25,58,118.35
636,F4,126.5,0.25,56,118.35
637,B-4,126.75,0.25,58,118.35
638,B-2,127.0,0.25,63,118.35
639,F#5,127.0,0.25,73,118.35
640,A4,127.0,0.25,73,118.35
641,F#4,127.25,0.25,57,118.35
642,E-4,127.5,0.25,58,118.35
643,F#4,127.75,0.25,57,118.35
644,B-2,128.0,0.25,64,118.35
645,F5,128.0,0.25,72,118.35
646,B-4,128.0,0.25,72,118.35
647,F4,128.25,0.25,56,118.35
648,D4,128.5,0.25,55,118.35
649,F4,128.75,0.25,56,118.35
650,B-2,129.0,0.25,63,118.35
651,F#4,129.0,0.25,69,118.35
652,A4,129.0,0.25,69,118.35
653,E-4,129.25,0.25,57,118.35
654,C4,129.5,0.25,55,118.35
655,E-4,129.75,0.25,53,118.35
656,B-2,130.0,0.25,63,118.35
657,B-4,130.0,0.25,68,118.35
658,F4,130.0,0.25,68,118.35
659,D4,130.25,0.25,56,118.35
660,B-3,130.5,0.25,55,118.35
661,D4,130.75,0.25,57,118.35
662,B-1,131.0,0.25,62,118.35
663,E-4,131.0,0.25,64,118.35
664,A3,131.0,0.25,64,118.35
665,F#3,131.25,0.25,56,118.35
666,E-3,131.5,0.25,56,118.35
667,F#3,131.75,0.25,56,118.35
668,B-1,132.0,0.25,59,118.35
669,F4,132.0,0.25,67,118.35
670,B-3,132.0,0.25,67,118.35
671,F3,132.25,0.25,51,118.35
672,D3,132.5,0.25,50,118.35
673,F3,132.75,0.25,51,118.35
674,B-1,133.0,0.25,58,118.35
675,F#3,133.0,0.25,63,118.35
676,A3,133.0,0.25,63,118.35
677,E-3,133.25,0.25,52,118.35
678,C3,133.5,0.25,50,118.35
679,E-3,133.75,0.25,49,118.35
680,B-1,134.0,0.25,58,118.35
681,B-3,134.0,0.25,62,118.35
682,F3,134.0,0.25,62,118.35
683,D3,134.25,0.25,51,118.35
684,B-2,134.5,0.25,50,118.35
685,D3,134.75,0.25,52,118.35
686,B-1,135.0,0.25,58,118.35
687,A3,135.0,0.25,59,118.35
688,E-3,135.0,0.25,59,118.35
689,C3,135.25,0.25,51,118.35
690,F#2,135.5,0.25,51,118.35
691,C3,135.75,0.25,51,118.35
692,B-1,136.0,0.25,52,118.35
693,D3,136.0,0.25,59,118.35
694,B-3,136.0,0.25,59,118.35
695,B-2,136.25,0.25,46,118.35
696,F2,136.5,0.25,45,118.35
697,B-2,136.75,0.25,46,118.35
698,B-1,137.0,0.25,51,118.35
699,E-3,137.0,0.25,57,118.35
700,A3,137.0,0.25,57,118.35
701,C3,137.25,0.25,47,118.35
702,F#2,137.5,0.25,45,118.35
703,C3,137.75,0.25,44,118.35
704,B-1,138.0,0.25,51,118.35
705,D3,138.0,0.25,56,118.35
706,B-3,138.0,0.25,56,118.35
707,B-2,138.25,0.25,46,118.35
708,F2,138.5,0.25,45,118.35
709,B-2,138.75,0.25,47,118.35
710,B-1,139.0,0.25,51,118.35
711,A3,139.0,0.25,52,118.35
712,E-3,139.0,0.25,52,118.35
713,C3,139.25,0.25,46,118.35
714,F#2,139.5,0.25,46,118.35
715,C3,139.75,0.25,46,118.35
716,B-1,140.0,333/1000,45,118.35
717,D3,140.0,0.5,59,118.35
718,B-3,140.0,0.5,59,118.35
719,F2,140.333,333/1000,43,118.35
720,B-2,140.667,333/1000,43,118.35
721,D3,141.0,333/1000,49,118.35
722,F3,141.333,333/1000,51,118.35
723,B-3,141.667,333/1000,49,118.35
724,D4,142.0,333/1000,52,118.35
725,B-3,142.333,333/1000,54,118.35
726,D4,142.667,333/1000,56,118.35
727,F4,143.0,333/1000,58,118.35
728,B-4,143.333,333/1000,60,118.35
729,D5,143.667,333/1000,61,118.35
730,E-4,144.0,2.0,64,118.35
731,E-3,144.0,3.0,45,118.35
732,B-3,144.0,333/1000,56,118.35
733,E-5,144.0,1.5,72,118.35
734,G4,144.0,1.5,72,118.35
735,A3,144.333,333/1000,45,118.35
736,B-3,144.667,333/1000,45,118.35
737,C4,145.0,333/1000,51,118.35
738,A3,145.333,333/1000,46,118.35
739,G4,145.5,0.5,68,118.35
740,C4,145.667,333/1000,46,118.35
741,B-3,146.0,2.0,55,118.35
742,E-4,146.0,1.0,61,118.35
743,G4,146.0,1.0,61,118.35
744,B-4,146.0,1.0,61,118.35
745,E-4,147.0,1.0,57,118.35
746,B-2,147.0,1.0,39,118.35
747,C5,147.0,0.5,64,118.35
748,G4,147.0,0.5,64,118.35
749,G4,147.5,0.5,65,118.35
750,B-3,148.0,333/1000,51,118.35
751,E-3,148.0,3.0,46,118.35
752,B-4,148.0,2.0,64,118.35
753,G4,148.0,2.0,64,118.35
754,E-4,148.0,2.0,64,118.35
755,A3,148.333,333/1000,45,118.35
756,B-3,148.667,333/1000,45,118.35
757,C4,149.0,333/1000,49,118.35
758,A3,149.333,333/1000,46,118.35
759,C4,149.667,333/1000,46,118.35
760,B-4,150.0,271/500,70,118.35
761,B-3,150.0,2.0,56,118.35
762,E-4,150.0,1.0,55,118.35
763,G4,150.0,1.0,55,118.35
764,C5,150.5,0.5,61,118.35
765,E-4,151.0,1.0,59,118.35
766,G4,151.0,271/500,70,118.35
767,B-2,151.0,1.0,44,118.35
768,C5,151.5,0.5,59,118.35
769,E-3,152.0,3.0,41,118.35
770,B-3,152.0,333/1000,51,118.35
771,G4,152.0,2333/1000,64,118.35
772,E-4,152.0,2333/1000,64,118.35
773,B-4,152.0,2333/1000,64,118.35
774,A3,152.333,333/1000,45,118.35
775,B-3,152.667,333/1000,45,118.35
776,C4,153.0,333/1000,51,118.35
777,A3,153.333,333/1000,47,118.35
778,C4,153.667,333/1000,47,118.35
779,B-3,154.0,2.0,57,118.35
780,D4,154.333,333/1000,57,118.35
781,E-4,154.667,333/1000,57,118.35
782,G4,155.0,333/1000,58,118.35
783,B-2,155.0,1.0,45,118.35
784,B-4,155.333,333/1000,62,118.35
785,E-5,155.667,333/1000,66,118.35
786,B-4,156.0,3.0,63,118.35
787,D4,156.0,333/1000,50,118.35
788,F5,156.0,771/500,69,118.35
789,F4,156.0,771/500,69,118.35
790,B-3,156.0,0.5,46,118.35
791,E-3,156.0,0.5,46,118.35
792,C#4,156.333,333/1000,45,118.35
793,D4,156.667,333/1000,45,118.35
794,E-4,157.0,333/1000,49,118.35
795,C#4,157.333,333/1000,46,118.35
796,G5,157.5,271/500,63,118.35
797,G4,157.5,271/500,63,118.35
798,E-4,157.667,333/1000,46,118.35
799,D4,158.0,0.5,57,118.35
800,F4,158.0,1.0,69,118.35
801,F5,158.0,1.0,69,118.35
802,G#4,159.0,1.0,61,118.35
803,C5,159.0,271/500,66,118.35
804,C4,159.0,271/500,66,118.35
805,B-2,159.0,1.0,46,118.35
806,B-3,159.0,1.0,46,118.35
807,D4,159.5,0.5,64,118.35
808,D5,159.5,0.5,64,118.35
809,G4,160.0,3.0,63,118.35
810,G#4,160.0,21/500,61,118.35
811,E-3,160.0,3.0,45,118.35
812,B-3,160.0,333/1000,51,118.35
813,E-4,160.0,2.5,69,118.35
814,E-5,160.0,2.5,69,118.35
815,A3,160.333,333/1000,45,118.35
816,B-3,160.667,333/1000,45,118.35
817,C4,161.0,333/1000,49,118.35
818,A3,161.333,333/1000,45,118.35
819,C4,161.667,333/1000,45,118.35
820,B-3,162.0,0.5,57,118.35
821,D4,162.5,271/500,57,118.35
822,D5,162.5,271/500,57,118.35
823,G#4,163.0,1.0,56,118.35
824,C5,163.0,271/500,62,118.35
825,C4,163.0,271/500,62,118.35
826,B-3,163.0,1.0,46,118.35
827,B-2,163.0,1.0,46,118.35
828,D4,163.5,0.5,52,118.35
829,D5,163.5,0.5,52,118.35
830,B-3,164.0,333/1000,49,118.35
831,E-3,164.0,3.0,46,118.35
832,E-4,164.0,1.0,60,118.35
833,G4,164.0,1.0,60,118.35
834,B-4,164.0,1.0,60,118.35
835,A3,164.333,333/1000,45,118.35
836,B-3,164.667,333/1000,45,118.35
837,E-4,165.0,1.5,53,118.35
838,C4,165.0,333/1000,49,118.35
839,G4,165.0,2.0,60,118.35
840,B-4,165.0,2.0,60,118.35
841,A3,165.333,333/1000,47,118.35
842,C4,165.667,333/1000,47,118.35
843,B-3,166.0,2.0,57,118.35
844,D4,166.5,0.5,56,118.35
845,C4,167.0,0.5,53,118.35
846,B-2,167.0,1.0,45,118.35
847,G#4,167.0,1.0,56,118.35
848,B-4,167.0,1.0,56,118.35
849,D4,167.5,0.5,50,118.35
850,B-3,168.0,333/1000,48,118.35
851,E-3,168.0,2.5,49,118.35
852,E-4,168.0,1.0,58,118.35
853,G4,168.0,1.0,58,118.35
854,B-4,168.0,1.0,58,118.35
855,A3,168.333,333/1000,44,118.35
856,B-3,168.667,333/1000,44,118.35
857,B-4,169.0,1333/1000,63,118.35
858,C4,169.0,333/1000,47,118.35
859,E-4,169.0,2.0,52,118.35
860,G4,169.0,2.0,52,118.35
861,A3,169.333,333/1000,43,118.35
862,C4,169.667,333/1000,42,118.35
863,B-3,170.0,1.0,55,118.35
864,C5,170.333,333/1000,59,118.35
865,A4,170.667,333/1000,58,118.35
866,B-4,171.0,333/1000,63,118.35
867,G#4,171.0,1.0,53,118.35
868,D4,171.0,1.0,53,118.35
869,B-3,171.0,1.0,48,118.35
870,B-2,171.0,1.0,48,118.35
871,C5,171.333,333/1000,63,118.35
872,D5,171.667,333/1000,66,118.35
873,B-3,172.0,333/1000,56,118.35
874,E-3,172.0,3.0,45,118.35
875,E-5,172.0,1.5,72,118.35
876,G4,172.0,1.5,72,118.35
877,A3,172.333,333/1000,45,118.35
878,B-3,172.667,333/1000,45,118.35
879,C4,173.0,333/1000,51,118.35
880,A3,173.333,333/1000,46,118.35
881,G4,173.5,0.5,68,118.35
882,C4,173.667,333/1000,46,118.35
883,B-3,174.0,2.0,55,118.35
884,E-4,174.0,1.0,61,118.35
885,G4,174.0,1.0,61,118.35
886,B-4,174.0,1.0,61,118.35
887,E-4,175.0,1.0,57,118.35
888,B-2,175.0,1.0,39,118.35
889,C5,175.0,0.5,64,118.35
890,G4,175.0,0.5,64,118.35
891,G4,175.5,0.5,65,118.35
892,B-3,176.0,333/1000,51,118.35
893,E-3,176.0,3.0,46,118.35
894,B-4,176.0,2.0,64,118.35
895,G4,176.0,2.0,64,118.35
896,E-4,176.0,2.0,64,118.35
897,A3,176.333,333/1000,45,118.35
898,B-3,176.667,333/1000,45,118.35
899,C4,177.0,333/1000,49,118.35
900,A3,177.333,333/1000,46,118.35
901,C4,177.667,333/1000,46,118.35
902,B-4,178.0,271/500,70,118.35
903,B-3,178.0,2.0,56,118.35
904,E-4,178.0,1.0,55,118.35
905,G4,178.0,1.0,55,118.35
906,C5,178.5,0.5,61,118.35
907,E-4,179.0,1.0,59,118.35
908,G4,179.0,271/500,70,118.35
909,B-2,179.0,1.0,44,118.35
910,C5,179.5,0.5,59,118.35
911,B-3,180.0,333/1000,51,118.35
912,E-3,180.0,3.0,41,118.35
913,G4,180.0,2333/1000,61,118.35
914,E-4,180.0,2333/1000,61,118.35
915,B-4,180.0,2333/1000,61,118.35
916,A3,180.333,333/1000,45,118.35
917,B-3,180.667,333/1000,45,118.35
918,C4,181.0,333/1000,51,118.35
919,A3,181.333,333/1000,47,118.35
920,C4,181.667,333/1000,47,118.35
921,B-3,182.0,2.0,57,118.35
922,D4,182.333,333/1000,57,118.35
923,E-4,182.667,333/1000,57,118.35
924,G4,183.0,333/1000,58,118.35
925,B-2,183.0,1.0,45,118.35
926,B-4,183.333,333/1000,62,118.35
927,E-5,183.667,333/1000,66,118.35
928,B-4,184.0,3.0,63,118.35
929,D4,184.0,333/1000,50,118.35
930,F5,184.0,771/500,69,118.35
931,F4,184.0,771/500,69,118.35
932,E-3,184.0,0.5,46,118.35
933,B-3,184.0,0.5,46,118.35
934,C#4,184.333,333/1000,45,118.35
935,D4,184.667,333/1000,45,118.35
936,E-4,185.0,333/1000,49,118.35
937,C#4,185.333,333/1000,46,118.35
938,G5,185.5,271/500,63,118.35
939,G4,185.5,271/500,63,118.35
940,E-4,185.667,333/1000,46,118.35
941,D4,186.0,0.5,57,118.35
942,F4,186.0,1.0,69,118.35
943,F5,186.0,1.0,69,118.35
944,G#4,187.0,1.0,57,118.35
945,C5,187.0,271/500,66,118.35
946,C4,187.0,271/500,66,118.35
947,B-2,187.0,1.0,46,118.35
948,B-3,187.0,1.0,46,118.35
949,D4,187.5,0.5,64,118.35
950,D5,187.5,0.5,64,118.35
951,G4,188.0,3.0,63,118.35
952,E-3,188.0,3.0,45,118.35
953,B-3,188.0,333/1000,51,118.35
954,E-4,188.0,2.5,69,118.35
955,E-5,188.0,2.5,69,118.35
956,A3,188.333,333/1000,45,118.35
957,B-3,188.667,333/1000,45,118.35
958,C4,189.0,333/1000,49,118.35
959,A3,189.333,333/1000,45,118.35
960,C4,189.667,333/1000,45,118.35
961,B-3,190.0,0.5,57,118.35
962,D4,190.5,271/500,57,118.35
963,D5,190.5,271/500,57,118.35
964,G#4,191.0,1.0,56,118.35
965,C5,191.0,271/500,62,118.35
966,C4,191.0,271/500,62,118.35
967,B-3,191.0,1.0,46,118.35
968,B-2,191.0,1.0,46,118.35
969,D4,191.5,0.5,52,118.35
970,D5,191.5,0.5,52,118.35
971,E-3,192.0,3.0,46,118.35
972,B-3,192.0,333/1000,49,118.35
973,E-4,192.0,1.0,60,118.35
974,G4,192.0,1.0,60,118.35
975,B-4,192.0,1.0,60,118.35
976,A3,192.333,333/1000,45,118.35
977,B-3,192.667,333/1000,45,118.35
978,E-4,193.0,1.5,53,118.35
979,C4,193.0,333/1000,49,118.35
980,G4,193.0,2.0,60,118.35
981,B-4,193.0,2.0,60,118.35
982,A3,193.333,333/1000,47,118.35
983,C4,193.667,333/1000,47,118.35
984,B-3,194.0,2.0,57,118.35
985,D4,194.5,0.5,56,118.35
986,C4,195.0,0.5,53,118.35
987,B-2,195.0,1.0,45,118.35
988,G#4,195.0,1.0,58,118.35
989,B-4,195.0,1.0,58,118.35
990,D4,195.5,0.5,50,118.35
991,E-3,196.0,3.0,46,118.35
992,B-3,196.0,333/1000,49,118.35
993,B-4,196.0,1.0,60,118.35
994,G4,196.0,1.0,60,118.35
995,E-4,196.0,1.0,60,118.35
996,A3,196.333,333/1000,45,118.35
997,B-3,196.667,333/1000,44,118.35
998,E-4,197.0,1.5,52,118.35
999,C4,197.0,333/1000,48,118.35
1000,B-4,197.0,2.0,58,118.35
1001,G4,197.0,2.0,58,118.35
1002,A3,197.333,333/1000,46,118.35
1003,C4,197.667,333/1000,45,118.35
1004,B-3,198.0,2.0,54,118.35
1005,D4,198.5,0.5,53,118.35
1006,C4,199.0,0.5,49,118.35
1007,B-2,199.0,1.0,42,118.35
1008,G#4,199.0,1.0,54,118.35
1009,B-4,199.0,1.0,54,118.35
1010,D4,199.5,0.5,46,118.35
1011,E-3,200.0,3.0,42,118.35
1012,B-3,200.0,333/1000,54,118.35
1013,B-4,200.0,0.5,56,118.35
1014,G4,200.0,0.5,56,118.35
1015,E-4,200.0,0.5,56,118.35
1016,A3,200.333,333/1000,40,118.35
1017,B-3,200.667,333/1000,40,118.35
1018,C4,201.0,333/1000,44,118.35
1019,B-4,201.0,3.0,53,118.35
1020,E-4,201.0,3.0,53,118.35
1021,G4,201.0,3.0,53,118.35
1022,A3,201.333,333/1000,41,118.35
1023,C4,201.667,333/1000,41,118.35
1024,B-3,202.0,2.0,50,118.35
1025,B-2,203.0,1.0,47,118.35
1026,E-3,204.0,3.0,38,118.35
1027,B-3,204.0,333/1000,50,118.35
1028,B-4,204.0,0.5,53,118.35
1029,E-4,204.0,0.5,53,118.35
1030,G4,204.0,0.5,53,118.35
1031,A3,204.333,333/1000,37,118.35
1032,B-3,204.667,333/1000,36,118.35
1033,C4,205.0,333/1000,40,118.35
1034,E-4,205.0,3.0,47,118.35
1035,G4,205.0,3.0,47,118.35
1036,B-4,205.0,3.0,47,118.35
1037,A3,205.333,333/1000,38,118.35
1038,C4,205.667,333/1000,37,118.35
1039,B-3,206.0,2.0,45,118.35
1040,B-2,207.0,1.0,40,118.35
1041,E-3,208.0,0.5,34,118.35
1042,B-3,208.0,333/1000,45,118.35
1043,E-4,208.0,0.5,47,118.35
1044,G4,208.0,0.5,47,118.35
1045,B-4,208.0,0.5,47,118.35
1046,A3,208.333,333/1000,33,118.35
1047,B-3,208.667,333/1000,33,118.35
1048,C4,209.0,333/1000,35,118.35
1049,A3,209.333,333/1000,34,118.35
1050,C4,209.667,333/1000,33,118.35
1051,B-3,210.0,0.5,40,118.35
1052,D4,210.333,333/1000,37,118.35
1053,E-4,210.667,333/1000,36,118.35
1054,F4,211.0,333/1000,40,118.35
1055,D4,211.333,333/1000,36,118.35
1056,F4,211.667,333/1000,36,118.35
1057,E-4,212.0,0.5,40,118.35
1058,F#4,212.333,333/1000,33,118.35
1059,G4,212.667,333/1000,33,118.35
1060,G#4,213.0,333/1000,35,118.35
1061,F#4,213.333,333/1000,34,118.35
1062,G#4,213.667,333/1000,33,118.35
1063,G4,214.0,0.5,40,118.35
1064,A4,214.333,333/1000,37,118.35
1065,B-4,214.625,333/1000,36,118.35
1066,C5,215.0,333/1000,40,118.35
1067,A4,215.333,333/1000,36,118.35
1068,C5,215.667,333/1000,36,118.35
1069,B-4,216.0,0.5,40,118.35
1070,D5,216.333,333/1000,33,118.35
1071,E-5,216.667,333/1000,33,118.35
1072,F5,217.0,333/1000,35,118.35
1073,D5,217.333,333/1000,34,118.35
1074,F5,217.667,333/1000,33,118.35
1075,E-5,218.0,0.5,40,118.35
1076,F#5,218.333,333/1000,37,118.35
1077,G5,218.625,333/1000,36,118.35
1078,A5,219.0,333/1000,40,118.35
1079,B-5,219.333,333/1000,36,118.35
1080,D6,219.667,333/1000,36,118.35
1081,E-6,220.0,4.0,40,118.35
1082,E-5,221.0,1.0,30,118.35
1083,G5,221.0,1.0,30,118.35
1084,B-4,221.0,1.0,26,118.35
1085,E-4,221.0,1.0,26,118.35
1086,E-5,222.0,2.0,30,118.35
1087,G5,222.0,2.0,30,118.35
1088,E-4,222.0,2.0,26,118.35
1089,B-4,222.0,2.0,26,118.35
