,note_name,start_time,duration,velocity,tempo
0,G2,0.0,1.0,40,95.76
1,D3,1.0,1.0,38,95.76
2,B-3,2.0,2.0,30,95.76
3,G3,2.0,2.0,30,95.76
4,D4,2.0,2.0,30,95.76
5,G2,4.0,1.0,40,95.76
6,D3,5.0,1.0,38,95.76
7,D4,6.0,2.0,35,95.76
8,G3,6.0,2.0,35,95.76
9,B-3,6.0,2.0,35,95.76
10,D4,6.5,0.5,53,95.76
11,E4,7.0,0.5,54,95.76
12,F#4,7.5,0.5,56,95.76
13,G4,8.0,0.5,57,95.76
14,G2,8.0,1.0,40,95.76
15,A4,8.5,0.5,59,95.76
16,B-4,9.0,0.5,61,95.76
17,D3,9.0,1.0,37,95.76
18,C5,9.5,0.5,63,95.76
19,D5,10.0,0.5,65,95.76
20,B-3,10.0,1.0,36,95.76
21,D4,10.0,1.0,36,95.76
22,G3,10.0,1.0,36,95.76
23,G5,10.5,0.5,68,95.76
24,F#5,11.0,0.5,66,95.76
25,A2,11.0,1.0,45,95.76
26,G5,11.5,0.5,58,95.76
27,D5,12.0,2.0,53,95.76
28,B-2,12.0,1.0,44,95.76
29,G3,13.0,1.0,38,95.76
30,D4,14.0,249/250,32,95.76
31,G4,14.0,249/250,32,95.76
32,D5,14.5,0.5,56,95.76
33,A4,15.0,0.5,59,95.76
34,C3,15.0,1.0,35,95.76
35,E-4,15.0,1.0,31,95.76
36,G4,15.0,1.0,31,95.76
37,C5,15.5,0.5,51,95.76
38,D3,16.0,0.5,42,95.76
39,D4,16.0,0.5,48,95.76
40,G4,16.0,0.5,48,95.76
41,B-4,16.0,0.5,48,95.76
42,E-4,16.5,0.5,50,95.76
43,G3,17.0,0.5,35,95.76
44,B-3,17.0,0.5,35,95.76
45,C#4,17.0,0.5,35,95.76
46,E-4,17.5,0.5,39,95.76
47,G3,18.0,0.5,36,95.76
48,B-3,18.0,0.5,36,95.76
49,D4,18.0,0.5,36,95.76
50,B-4,18.5,0.5,53,95.76
51,C4,19.0,1.0,46,95.76
52,F#4,19.0,0.5,57,95.76
53,D3,19.0,1.0,42,95.76
54,A4,19.5,0.5,49,95.76
55,G2,20.0,4.0,46,95.76
56,B-3,20.0,2.0,50,95.76
57,G4,20.0,2.0,50,95.76
58,E-3,20.5,0.5,42,95.76
59,C#3,21.0,0.5,37,95.76
60,E-3,21.5,0.5,32,95.76
61,D3,22.0,2.0,35,95.76
62,D4,22.5,0.5,52,95.76
63,E4,23.0,0.5,54,95.76
64,C4,23.0,1.0,48,95.76
65,F#4,23.5,0.5,55,95.76
66,G2,24.0,1.0,40,95.76
67,G4,24.0,0.5,54,95.76
68,B-3,24.0,0.5,54,95.76
69,A4,24.5,0.5,59,95.76
70,B-4,25.0,0.5,61,95.76
71,D3,25.0,1.0,37,95.76
72,C5,25.5,0.5,63,95.76
73,D5,26.0,0.5,68,95.76
74,B-3,26.0,1.0,36,95.76
75,D4,26.0,1.0,36,95.76
76,G3,26.0,1.0,36,95.76
77,G5,26.5,0.5,63,95.76
78,F5,27.0,0.5,61,95.76
79,A2,27.0,1.0,42,95.76
80,E-5,27.0,1.0,36,95.76
81,C5,27.0,1.0,36,95.76
82,F4,27.0,1.0,36,95.76
83,G5,27.5,0.5,59,95.76
84,B-2,28.0,1.0,44,95.76
85,B-4,28.0,499/250,49,95.76
86,D5,28.0,499/250,49,95.76
87,F4,28.0,499/250,49,95.76
88,F3,29.0,1.0,38,95.76
89,B-3,30.0,1.0,32,95.76
90,D4,30.0,1.0,32,95.76
91,F4,30.0,1.0,32,95.76
92,F5,30.5,0.5,60,95.76
93,E-5,31.0,0.5,63,95.76
94,G2,31.0,1.0,41,95.76
95,B-4,31.0,1.0,50,95.76
96,E-4,31.0,1.0,50,95.76
97,D5,31.0,1.0,50,95.76
98,F5,31.5,0.5,58,95.76
99,A2,32.0,1.0,44,95.76
100,C5,32.0,2.0,53,95.76
101,E-4,32.0,2.0,53,95.76
102,A4,32.0,2.0,53,95.76
103,A3,33.0,1.0,36,95.76
104,C4,34.0,1.0,32,95.76
105,E-4,34.0,1.0,32,95.76
106,G4,34.0,1.0,32,95.76
107,E-5,34.5,0.5,55,95.76
108,D5,35.0,0.5,56,95.76
109,F#2,35.0,1.0,36,95.76
110,C5,35.0,1.0,37,95.76
111,A4,35.0,1.0,37,95.76
112,D4,35.0,1.0,37,95.76
113,E-5,35.5,0.5,50,95.76
114,G2,36.0,1.0,39,95.76
115,G4,36.0,1.0,47,95.76
116,D4,36.0,1.0,47,95.76
117,B-4,36.0,1.0,47,95.76
118,D3,37.0,1.0,36,95.76
119,B-3,38.0,1.0,27,95.76
120,G3,38.0,1.0,27,95.76
121,D4,38.0,1.0,27,95.76
122,D5,38.5,0.5,54,95.76
123,C5,39.0,0.5,56,95.76
124,C3,39.0,1.0,34,95.76
125,E-4,39.0,1.0,35,95.76
126,A4,39.0,1.0,35,95.76
127,D5,39.5,0.5,52,95.76
128,C5,40.0,0.5,55,95.76
129,D3,40.0,4.0,39,95.76
130,D4,40.0,1.0,35,95.76
131,G4,40.0,1.0,35,95.76
132,B-4,40.5,0.5,47,95.76
133,B-3,41.0,1.0,32,95.76
134,A4,41.0,0.5,50,95.76
135,D4,41.0,1.0,32,95.76
136,G4,41.5,0.5,49,95.76
137,E4,42.0,1.0,35,95.76
138,B-4,42.0,1.5,52,95.76
139,C#4,42.0,1.0,31,95.76
140,C4,43.0,1.0,30,95.76
141,E-4,43.0,1.0,30,95.76
142,F#4,43.0,1.0,30,95.76
143,A4,43.5,0.5,39,95.76
144,G3,44.0,1.0,28,95.76
145,C4,44.0,0.5,30,95.76
146,D4,44.0,1.0,44,95.76
147,G4,44.0,1.0,44,95.76
148,B-3,44.5,0.5,32,95.76
149,G3,45.0,0.5,30,95.76
150,D3,45.5,0.5,30,95.76
151,G2,46.0,1.0,30,95.76
152,G4,46.5,0.5,67,95.76
153,A4,47.0,0.5,69,95.76
154,B-4,47.5,0.5,66,95.76
155,C5,48.0,0.5,69,95.76
156,E-3,48.0,1.0,52,95.76
157,D5,48.5,0.5,70,95.76
158,E-5,49.0,0.5,72,95.76
159,F4,49.0,1.0,49,95.76
160,F5,49.5,0.5,74,95.76
161,G5,50.0,0.5,75,95.76
162,A3,50.0,2.0,47,95.76
163,F3,50.0,2.0,47,95.76
164,C4,50.0,2.0,47,95.76
165,A5,50.5,0.5,72,95.76
166,B-5,51.0,0.5,79,95.76
167,C6,51.5,0.5,77,95.76
168,F5,52.0,2.0,75,95.76
169,D3,52.0,1.0,67,95.76
170,F4,53.0,1.0,58,95.76
171,F3,54.0,2.0,52,95.76
172,D4,54.0,2.0,52,95.76
173,B-3,54.0,2.0,52,95.76
174,F5,54.5,0.5,73,95.76
175,G5,55.0,0.5,75,95.76
176,B-5,55.5,0.5,73,95.76
177,E-5,56.0,2.0,70,95.76
178,C3,56.0,1.0,57,95.76
179,F4,57.0,1.0,53,95.76
180,A3,58.0,2.0,47,95.76
181,F3,58.0,2.0,47,95.76
182,E-4,58.0,2.0,47,95.76
183,E-5,58.5,0.5,67,95.76
184,F5,59.0,0.5,71,95.76
185,A5,59.5,0.5,67,95.76
186,D5,60.0,2.0,60,95.76
187,B-2,60.0,1.0,53,95.76
188,F4,61.0,1.0,49,95.76
189,D4,62.0,2.0,39,95.76
190,B-3,62.0,2.0,39,95.76
191,F3,62.0,2.0,39,95.76
192,G4,62.5,0.5,68,95.76
193,A4,63.0,0.5,69,95.76
194,B-4,63.5,0.5,69,95.76
195,C5,64.0,0.5,69,95.76
196,E-3,64.0,1.0,52,95.76
197,D5,64.5,0.5,70,95.76
198,E-5,65.0,0.5,72,95.76
199,F4,65.0,1.0,49,95.76
200,F5,65.5,0.5,74,95.76
201,G5,66.0,0.5,75,95.76
202,C4,66.0,2.0,47,95.76
203,A3,66.0,2.0,47,95.76
204,F3,66.0,2.0,47,95.76
205,A5,66.5,0.5,72,95.76
206,B-5,67.0,0.5,79,95.76
207,C6,67.5,0.5,77,95.76
208,D5,68.0,2.0,75,95.76
209,D3,68.0,1.0,67,95.76
210,F#4,69.0,1.0,58,95.76
211,A3,70.0,2.0,47,95.76
212,D4,70.0,2.0,47,95.76
213,F#3,70.0,2.0,47,95.76
214,D5,70.5,0.5,73,95.76
215,E5,71.0,0.5,75,95.76
216,F#5,71.5,0.5,72,95.76
217,G5,72.0,2.0,77,95.76
218,D3,72.0,1.0,55,95.76
219,D4,73.0,1.0,53,95.76
220,B-3,74.0,2.0,48,95.76
221,G3,74.0,2.0,48,95.76
222,D5,74.5,0.5,67,95.76
223,C5,75.0,0.5,70,95.76
224,B-4,75.5,0.5,67,95.76
225,F#5,76.0,2.0,63,95.76
226,D3,76.0,1.0,53,95.76
227,D4,77.0,1.0,41,95.76
228,C4,78.0,2.0,38,95.76
229,A3,78.0,2.0,38,95.76
230,C5,78.5,0.5,61,95.76
231,B-4,79.0,0.5,63,95.76
232,A4,79.5,0.5,61,95.76
233,G5,80.0,0.5,68,95.76
234,D3,80.0,1.0,53,95.76
235,D5,80.5,0.25,61,95.76
236,E-5,80.75,0.125,45,95.76
237,D5,80.875,0.125,47,95.76
238,C#5,81.0,0.5,63,95.76
239,D4,81.0,1.0,44,95.76
240,D5,81.5,0.5,60,95.76
241,E-5,82.0,0.5,63,95.76
242,G3,82.0,2.0,40,95.76
243,B-3,82.0,2.0,40,95.76
244,D5,82.5,0.5,60,95.76
245,B-4,83.0,0.5,63,95.76
246,G4,83.5,0.5,60,95.76
247,D5,84.0,0.5,63,95.76
248,G4,84.0,62/125,60,95.76
249,A3,84.0,0.25,46,95.76
250,D3,84.0,0.25,46,95.76
251,G4,84.5,0.5,53,95.76
252,D5,85.0,1.5,68,95.76
253,F#4,85.0,0.5,52,95.76
254,E-4,85.5,0.5,51,95.76
255,D4,86.0,62/125,50,95.76
256,D4,86.5,0.5,53,95.76
257,C4,86.5,0.5,48,95.76
258,E4,87.0,0.5,54,95.76
259,B-3,87.0,0.5,47,95.76
260,F#4,87.5,0.5,56,95.76
261,A3,87.5,0.5,46,95.76
262,G4,88.0,0.5,57,95.76
263,G2,88.0,1.0,40,95.76
264,G3,88.0,1.0,40,95.76
265,A4,88.5,0.5,59,95.76
266,B-4,89.0,0.5,61,95.76
267,D3,89.0,1.0,37,95.76
268,C5,89.5,0.5,63,95.76
269,D5,90.0,0.5,65,95.76
270,B-3,90.0,1.0,36,95.76
271,D4,90.0,1.0,36,95.76
272,G3,90.0,1.0,36,95.76
273,G5,90.5,0.5,68,95.76
274,F#5,91.0,0.5,66,95.76
275,A2,91.0,1.0,45,95.76
276,G5,91.5,0.5,64,95.76
277,D5,92.0,2.0,53,95.76
278,B-2,92.0,1.0,44,95.76
279,G3,93.0,1.0,38,95.76
280,D4,94.0,249/250,32,95.76
281,G4,94.0,249/250,32,95.76
282,D5,94.5,0.5,56,95.76
283,A4,95.0,0.5,59,95.76
284,C3,95.0,1.0,35,95.76
285,E-4,95.0,1.0,31,95.76
286,G4,95.0,1.0,31,95.76
287,C5,95.5,0.5,56,95.76
288,D3,96.0,0.5,42,95.76
289,B-4,96.0,0.5,48,95.76
290,D4,96.0,0.5,48,95.76
291,G4,96.0,0.5,48,95.76
292,E-4,96.5,0.5,50,95.76
293,B-3,97.0,0.5,37,95.76
294,C#4,97.0,0.5,37,95.76
295,G3,97.0,0.5,37,95.76
296,E-4,97.5,0.5,49,95.76
297,G3,98.0,0.5,39,95.76
298,B-3,98.0,0.5,39,95.76
299,D4,98.0,0.5,39,95.76
300,B-4,98.5,0.5,53,95.76
301,F#4,99.0,0.5,57,95.76
302,C4,99.0,1.0,46,95.76
303,D3,99.0,1.0,42,95.76
304,A4,99.5,0.5,53,95.76
305,G2,100.0,4.0,46,95.76
306,G4,100.0,2.0,50,95.76
307,B-3,100.0,2.0,50,95.76
308,E-3,100.5,0.5,42,95.76
309,C#3,101.0,0.5,44,95.76
310,E-3,101.5,0.5,42,95.76
311,D3,102.0,2.0,39,95.76
312,D4,102.5,0.5,52,95.76
313,C4,103.0,1.0,48,95.76
314,E4,103.0,0.5,54,95.76
315,F#4,103.5,0.5,55,95.76
316,G2,104.0,1.0,40,95.76
317,B-3,104.0,0.5,54,95.76
318,G4,104.0,0.5,54,95.76
319,A4,104.5,0.5,59,95.76
320,B-4,105.0,0.5,61,95.76
321,D3,105.0,1.0,37,95.76
322,C5,105.5,0.5,63,95.76
323,D5,106.0,0.5,68,95.76
324,B-3,106.0,1.0,36,95.76
325,D4,106.0,1.0,36,95.76
326,G3,106.0,1.0,36,95.76
327,G5,106.5,0.5,63,95.76
328,F5,107.0,0.5,61,95.76
329,A2,107.0,1.0,42,95.76
330,F4,107.0,1.0,36,95.76
331,E-5,107.0,1.0,36,95.76
332,C5,107.0,1.0,36,95.76
333,G5,107.5,0.5,59,95.76
334,B-2,108.0,1.0,44,95.76
335,B-4,108.0,2.0,49,95.76
336,F4,108.0,2.0,49,95.76
337,D5,108.0,2.0,49,95.76
338,F3,109.0,1.0,41,95.76
339,F4,110.0,1.0,34,95.76
340,B-3,110.0,1.0,34,95.76
341,D4,110.0,1.0,34,95.76
342,F5,110.5,0.5,60,95.76
343,E-5,111.0,0.5,63,95.76
344,G2,111.0,1.0,41,95.76
345,E-4,111.0,1.0,50,95.76
346,B-4,111.0,1.0,50,95.76
347,D5,111.0,1.0,50,95.76
348,F5,111.5,0.5,58,95.76
349,A2,112.0,1.0,44,95.76
350,A4,112.0,2.0,53,95.76
351,E-4,112.0,2.0,53,95.76
352,C5,112.0,2.0,53,95.76
353,A3,113.0,1.0,39,95.76
354,C4,114.0,1.0,35,95.76
355,E-4,114.0,1.0,35,95.76
356,G4,114.0,1.0,35,95.76
357,E-5,114.5,0.5,55,95.76
358,D5,115.0,0.5,56,95.76
359,F#2,115.0,1.0,36,95.76
360,A4,115.0,1.0,37,95.76
361,C5,115.0,1.0,37,95.76
362,D4,115.0,1.0,37,95.76
363,E-5,115.5,0.5,50,95.76
364,G2,116.0,1.0,39,95.76
365,D4,116.0,1.0,47,95.76
366,G4,116.0,1.0,47,95.76
367,B-4,116.0,1.0,47,95.76
368,D3,117.0,1.0,36,95.76
369,B-3,118.0,1.0,27,95.76
370,G3,118.0,1.0,27,95.76
371,D4,118.0,1.0,27,95.76
372,D5,118.5,0.5,54,95.76
373,C5,119.0,0.5,56,95.76
374,C3,119.0,1.0,34,95.76
375,E-4,119.0,1.0,35,95.76
376,A4,119.0,1.0,35,95.76
377,D5,119.5,0.5,52,95.76
378,C5,120.0,0.5,55,95.76
379,D3,120.0,4.0,39,95.76
380,G4,120.0,249/250,35,95.76
381,D4,120.0,249/250,35,95.76
382,B-4,120.5,0.5,51,95.76
383,A4,121.0,0.5,50,95.76
384,B-3,121.0,1.0,27,95.76
385,D4,121.0,1.0,32,95.76
386,G4,121.5,0.5,49,95.76
387,B-4,122.0,1.5,52,95.76
388,E4,122.0,1.0,35,95.76
389,C#4,122.0,1.0,31,95.76
390,C4,123.0,1.0,30,95.76
391,E-4,123.0,1.0,30,95.76
392,F#4,123.0,1.0,30,95.76
393,A4,123.5,0.5,39,95.76
394,B3,124.0,0.5,34,95.76
395,D3,124.0,0.5,39,95.76
396,D4,124.0,0.5,41,95.76
397,G4,124.0,0.5,41,95.76
398,G2,124.5,1.0,28,95.76
399,D3,124.5,1.0,28,95.76
400,B4,125.0,1.0,46,95.76
401,D5,125.0,1.0,46,95.76
402,D3,125.5,1.0,26,95.76
403,D4,125.5,1.0,26,95.76
404,G3,125.5,1.0,26,95.76
405,B4,126.0,1.0,40,95.76
406,G4,126.0,1.0,40,95.76
407,G2,126.5,1.0,26,95.76
408,D3,126.5,1.0,26,95.76
409,B4,127.0,1.0,45,95.76
410,D5,127.0,1.0,45,95.76
411,D3,127.5,0.5,26,95.76
412,F#3,127.5,0.5,26,95.76
413,D4,127.5,0.5,26,95.76
414,C5,128.0,1.0,48,95.76
415,E5,128.0,1.0,48,95.76
416,D3,128.0,0.5,26,95.76
417,F#3,128.0,0.5,26,95.76
418,D4,128.0,0.5,26,95.76
419,G2,128.5,1.0,29,95.76
420,D3,128.5,1.0,29,95.76
421,A4,129.0,0.5,43,95.76
422,F#4,129.0,0.5,43,95.76
423,G4,129.5,0.5,43,95.76
424,B4,129.5,0.5,43,95.76
425,D3,129.5,1.0,26,95.76
426,F#3,129.5,1.0,26,95.76
427,D4,129.5,1.0,26,95.76
428,A4,130.0,1.0,45,95.76
429,C5,130.0,1.0,45,95.76
430,G2,130.5,1.0,28,95.76
431,D3,130.5,1.0,28,95.76
432,C5,131.0,1.0,43,95.76
433,E5,131.0,1.0,43,95.76
434,D3,131.5,0.5,27,95.76
435,G3,131.5,0.5,27,95.76
436,D4,131.5,0.5,27,95.76
437,B4,132.0,1.0,47,95.76
438,D5,132.0,1.0,47,95.76
439,D3,132.0,0.5,27,95.76
440,G3,132.0,0.5,27,95.76
441,D4,132.0,0.5,27,95.76
442,G2,132.5,1.0,28,95.76
443,D3,132.5,1.0,28,95.76
444,G5,133.0,1.0,48,95.76
445,E5,133.0,1.0,48,95.76
446,D3,133.5,1.0,27,95.76
447,D4,133.5,1.0,27,95.76
448,G3,133.5,1.0,27,95.76
449,D5,134.0,1.0,45,95.76
450,F#5,134.0,1.0,45,95.76
451,G2,134.5,1.0,28,95.76
452,D3,134.5,1.0,28,95.76
453,C5,135.0,1.0,45,95.76
454,E5,135.0,1.0,45,95.76
455,D3,135.5,0.5,27,95.76
456,F#3,135.5,0.5,27,95.76
457,D4,135.5,0.5,27,95.76
458,B4,136.0,1.0,45,95.76
459,D5,136.0,1.0,45,95.76
460,D3,136.0,0.5,27,95.76
461,F#3,136.0,0.5,27,95.76
462,D4,136.0,0.5,27,95.76
463,G2,136.5,1.0,28,95.76
464,D3,136.5,1.0,28,95.76
465,F#4,137.0,0.5,42,95.76
466,A4,137.0,0.5,42,95.76
467,B4,137.5,0.5,42,95.76
468,G4,137.5,0.5,42,95.76
469,D3,137.5,1.0,27,95.76
470,F#3,137.5,1.0,27,95.76
471,D4,137.5,1.0,27,95.76
472,A4,138.0,1.0,43,95.76
473,C5,138.0,1.0,43,95.76
474,G2,138.5,1.0,28,95.76
475,D3,138.5,1.0,28,95.76
476,B-4,139.0,1.0,45,95.76
477,C#5,139.0,1.0,45,95.76
478,D3,139.5,0.5,26,95.76
479,G3,139.5,0.5,26,95.76
480,D4,139.5,0.5,26,95.76
481,B4,140.0,0.5,46,95.76
482,D5,140.0,0.5,46,95.76
483,D3,140.0,0.5,26,95.76
484,G3,140.0,0.5,26,95.76
485,D4,140.0,0.5,26,95.76
486,G2,140.5,0.5,26,95.76
487,D3,140.5,0.5,26,95.76
488,D4,141.0,1.0,63,95.76
489,B4,141.0,1.0,63,95.76
490,D5,141.0,1.0,63,95.76
491,E3,141.5,1.0,64,95.76
492,B3,142.0,1.0,55,95.76
493,B4,142.0,1.0,55,95.76
494,G4,142.0,1.0,55,95.76
495,G2,142.5,0.5,46,95.76
496,D3,142.5,0.5,46,95.76
497,D4,143.0,1.0,62,95.76
498,B4,143.0,1.0,62,95.76
499,D5,143.0,1.0,62,95.76
500,G3,143.5,0.5,67,95.76
501,G3,144.0,0.5,67,95.76
502,E4,144.0,1.0,63,95.76
503,C5,144.0,1.0,63,95.76
504,E5,144.0,1.0,63,95.76
505,D3,144.5,0.5,46,95.76
506,G2,144.5,0.5,46,95.76
507,F#3,144.5,0.5,46,95.76
508,A4,145.0,271/500,61,95.76
509,F#4,145.0,271/500,61,95.76
510,E-4,145.5,1.0,61,95.76
511,G4,145.5,271/500,61,95.76
512,B4,145.5,271/500,61,95.76
513,A4,146.0,1.0,64,95.76
514,C5,146.0,1.0,64,95.76
515,G3,146.5,0.5,47,95.76
516,A3,146.5,0.5,47,95.76
517,D4,146.5,0.5,47,95.76
518,E4,147.0,1.0,60,95.76
519,C5,147.0,1.0,60,95.76
520,E5,147.0,1.0,60,95.76
521,F#4,147.5,0.5,66,95.76
522,F#4,148.0,0.5,66,95.76
523,D4,148.0,1.0,67,95.76
524,B4,148.0,1.0,67,95.76
525,D5,148.0,1.0,67,95.76
526,E4,148.0,21/500,60,95.76
527,C5,148.0,21/500,60,95.76
528,E5,148.0,21/500,60,95.76
529,G4,148.5,62/125,56,95.76
530,G4,149.0,521/500,69,95.76
531,G5,149.0,521/500,69,95.76
532,E5,149.0,521/500,69,95.76
533,B-3,149.5,1.0,67,95.76
534,F#4,150.0,521/500,65,95.76
535,D5,150.0,521/500,65,95.76
536,F#5,150.0,521/500,65,95.76
537,B3,150.5,0.5,55,95.76
538,E4,151.0,1.0,66,95.76
539,C5,151.0,1.0,66,95.76
540,E5,151.0,1.0,66,95.76
541,G#3,151.5,0.5,69,95.76
542,G#3,152.0,0.5,69,95.76
543,D4,152.0,1.0,66,95.76
544,B4,152.0,1.0,66,95.76
545,D5,152.0,1.0,66,95.76
546,E4,152.0,21/500,66,95.76
547,C5,152.0,21/500,66,95.76
548,E5,152.0,21/500,66,95.76
549,A3,152.5,0.5,60,95.76
550,A3,153.0,271/500,62,95.76
551,F#4,153.0,271/500,62,95.76
552,A4,153.0,271/500,62,95.76
553,E-3,153.5,1.0,71,95.76
554,B3,153.5,271/500,62,95.76
555,B4,153.5,271/500,62,95.76
556,G4,153.5,271/500,62,95.76
557,C4,154.0,1.0,66,95.76
558,A4,154.0,1.0,66,95.76
559,C5,154.0,1.0,66,95.76
560,D3,154.5,0.5,64,95.76
561,E4,155.0,1.0,73,95.76
562,C5,155.0,1.0,73,95.76
563,E5,155.0,1.0,73,95.76
564,F#2,155.5,0.5,78,95.76
565,F#2,156.0,0.25,78,95.76
566,D4,156.0,0.25,83,95.76
567,B4,156.0,0.25,83,95.76
568,D5,156.0,0.25,83,95.76
569,G2,156.5,0.25,74,95.76
570,G4,156.5,0.25,75,95.76
571,B4,156.5,0.25,75,95.76
572,D5,156.5,0.25,75,95.76
573,G5,157.0,1.5,90,95.76
574,E3,157.0,1.0,63,95.76
575,G4,157.0,2.0,77,95.76
576,B4,157.0,2.0,77,95.76
577,E4,157.0,2.0,78,95.76
578,B3,157.0,2.0,78,95.76
579,G3,158.0,1.0,75,95.76
580,E5,158.5,0.5,83,95.76
581,F#4,159.0,0.25,77,95.76
582,B4,159.0,0.25,77,95.76
583,F#5,159.0,0.25,77,95.76
584,D4,159.0,0.25,66,95.76
585,B3,159.0,0.25,66,95.76
586,F#4,159.5,0.25,74,95.76
587,B4,159.5,0.25,74,95.76
588,D3,159.5,0.25,58,95.76
589,F#3,159.5,0.25,58,95.76
590,B3,159.5,0.25,58,95.76
591,E5,160.0,1.5,90,95.76
592,C3,160.0,1.0,63,95.76
593,E4,160.0,2.0,77,95.76
594,G4,160.0,2.0,77,95.76
595,C4,160.0,2.0,78,95.76
596,G3,160.0,2.0,78,95.76
597,E3,161.0,1.0,75,95.76
598,C5,161.5,0.5,77,95.76
599,D4,162.0,0.25,77,95.76
600,G4,162.0,0.25,77,95.76
601,D5,162.0,0.25,77,95.76
602,B3,162.0,0.25,66,95.76
603,G3,162.0,0.25,66,95.76
604,G4,162.5,0.25,81,95.76
605,G4,163.0,2.0,56,95.76
606,D3,163.0,2.0,56,95.76
607,D4,163.0,1.5,84,95.76
608,D5,163.0,1.5,84,95.76
609,B2,163.0,1.0,60,95.76
610,B3,163.0,1.0,60,95.76
611,B-2,164.0,1.0,62,95.76
612,B-3,164.0,1.0,62,95.76
613,C#4,164.5,0.5,77,95.76
614,C#5,164.5,0.5,77,95.76
615,C4,165.0,1.0,75,95.76
616,F#4,165.0,1.0,75,95.76
617,C5,165.0,1.0,75,95.76
618,A2,165.0,1.0,61,95.76
619,E-3,165.0,1.0,61,95.76
620,A3,165.0,1.0,61,95.76
621,B3,166.0,0.25,71,95.76
622,F4,166.0,0.25,71,95.76
623,B4,166.0,0.25,71,95.76
624,G#2,166.0,0.25,55,95.76
625,D3,166.0,0.25,55,95.76
626,G#3,166.0,0.25,55,95.76
627,G#4,166.5,0.25,66,95.76
628,F4,166.5,0.25,66,95.76
629,B4,166.5,0.25,66,95.76
630,F5,166.5,0.25,66,95.76
631,D3,166.5,0.25,55,95.76
632,B3,166.5,0.25,55,95.76
633,G#3,166.5,0.25,55,95.76
634,E4,167.0,0.5,76,95.76
635,A4,167.0,0.5,76,95.76
636,E5,167.0,0.5,76,95.76
637,C3,167.0,1.0,61,95.76
638,C4,167.0,1.0,61,95.76
639,A3,167.0,1.0,61,95.76
640,A4,167.5,0.5,79,95.76
641,D4,168.0,0.25,76,95.76
642,G4,168.0,0.25,76,95.76
643,D5,168.0,0.25,76,95.76
644,D3,168.0,0.25,62,95.76
645,G3,168.0,0.25,62,95.76
646,B3,168.0,0.25,62,95.76
647,G3,168.5,0.5,61,95.76
648,D4,169.0,2.0,77,95.76
649,B4,169.5,0.5,75,95.76
650,A4,170.0,0.5,76,95.76
651,D3,170.0,1.0,61,95.76
652,C4,170.0,1.0,59,95.76
653,F#4,170.0,1.0,59,95.76
654,B4,170.5,0.5,75,95.76
655,G3,171.0,0.25,66,95.76
656,D4,171.0,0.25,77,95.76
657,B3,171.0,0.25,76,95.76
658,G4,171.0,0.25,76,95.76
659,G4,171.5,0.25,75,95.76
660,B4,171.5,0.25,75,95.76
661,D5,171.5,0.25,75,95.76
662,G3,171.5,0.25,66,95.76
663,B3,171.5,0.25,66,95.76
664,D4,171.5,0.25,66,95.76
665,G5,172.0,1.5,90,95.76
666,E3,172.0,1.0,63,95.76
667,G4,172.0,2.0,77,95.76
668,B4,172.0,2.0,77,95.76
669,E4,172.0,2.0,78,95.76
670,B3,172.0,2.0,78,95.76
671,G3,173.0,1.0,75,95.76
672,E5,173.5,0.5,83,95.76
673,F#4,174.0,0.25,77,95.76
674,B4,174.0,0.25,77,95.76
675,F#5,174.0,0.25,77,95.76
676,D4,174.0,0.25,66,95.76
677,B3,174.0,0.25,66,95.76
678,F#4,174.5,0.25,74,95.76
679,B4,174.5,0.25,74,95.76
680,D3,174.5,0.25,58,95.76
681,F#3,174.5,0.25,58,95.76
682,B3,174.5,0.25,58,95.76
683,E5,175.0,1.5,90,95.76
684,C3,175.0,1.0,63,95.76
685,E4,175.0,2.0,77,95.76
686,G4,175.0,2.0,77,95.76
687,C4,175.0,2.0,78,95.76
688,G3,175.0,2.0,78,95.76
689,E3,176.0,1.0,75,95.76
690,C5,176.5,0.5,78,95.76
691,D4,177.0,0.25,77,95.76
692,G4,177.0,0.25,77,95.76
693,D5,177.0,0.25,77,95.76
694,B3,177.0,0.25,66,95.76
695,G3,177.0,0.25,66,95.76
696,G4,177.5,0.25,81,95.76
697,G4,178.0,2.0,56,95.76
698,D3,178.0,2.0,56,95.76
699,D4,178.0,1.5,84,95.76
700,D5,178.0,1.5,84,95.76
701,B2,178.0,1.0,60,95.76
702,B3,178.0,1.0,60,95.76
703,B-2,179.0,1.0,55,95.76
704,B-3,179.0,1.0,55,95.76
705,C#4,179.5,0.5,77,95.76
706,C#5,179.5,0.5,77,95.76
707,B-4,180.0,1.0,62,95.76
708,E4,180.0,1.5,88,95.76
709,E5,180.0,1.5,88,95.76
710,G3,180.0,1.0,62,95.76
711,C#3,180.0,1.0,62,95.76
712,C#4,180.0,1.0,62,95.76
713,A4,181.0,1.0,73,95.76
714,F#3,181.0,1.0,52,95.76
715,C3,181.0,1.0,52,95.76
716,C4,181.0,1.0,52,95.76
717,E-4,181.5,0.5,76,95.76
718,E-5,181.5,0.5,76,95.76
719,C5,182.0,1.0,71,95.76
720,F#4,182.0,1.0,92,95.76
721,F#5,182.0,1.0,92,95.76
722,A3,182.0,1.0,65,95.76
723,E-3,182.0,1.0,65,95.76
724,E-4,182.0,1.0,65,95.76
725,G#3,183.0,1.0,54,95.76
726,D3,183.0,1.0,54,95.76
727,D4,183.0,1.0,54,95.76
728,A4,183.5,1.0,74,95.76
729,F#4,183.5,0.5,92,95.76
730,F#5,183.5,0.5,92,95.76
731,F4,184.0,0.5,78,95.76
732,F5,184.0,0.5,78,95.76
733,B3,184.0,1.0,67,95.76
734,F3,184.0,1.0,67,95.76
735,F4,184.0,1.0,67,95.76
736,D5,184.5,1.0,72,95.76
737,G#4,184.5,1.5,95,95.76
738,G#5,184.5,1.5,95,95.76
739,B-3,185.0,833/1000,61,95.76
740,E3,185.0,833/1000,61,95.76
741,E4,185.0,833/1000,61,95.76
742,C#5,185.5,1.0,80,95.76
743,G3,185.833,167/1000,53,95.76
744,B-3,185.833,167/1000,53,95.76
745,C#4,185.833,167/1000,53,95.76
746,E4,185.896,13/125,58,95.76
747,G4,185.896,13/125,58,95.76
748,G4,186.0,333/1000,88,95.76
749,G5,186.0,333/1000,88,95.76
750,G3,186.292,73/250,53,95.76
751,B-3,186.292,73/250,53,95.76
752,C#4,186.292,73/250,53,95.76
753,E4,186.292,0.312,58,95.76
754,G4,186.292,0.312,58,95.76
755,B-4,186.438,0.062,77,95.76
756,C#5,186.438,0.062,77,95.76
757,E5,186.438,0.062,77,95.76
758,B-5,186.5,333/1000,99,95.76
759,B-4,186.5,73/250,77,95.76
760,C#5,186.5,73/250,77,95.76
761,E5,186.5,73/250,77,95.76
762,B-3,186.625,229/500,50,95.76
763,C#4,186.625,229/500,50,95.76
764,E4,186.625,229/500,50,95.76
765,G4,186.688,417/1000,57,95.76
766,B-4,186.688,417/1000,57,95.76
767,C#5,186.938,177/500,77,95.76
768,E5,186.938,177/500,77,95.76
769,G5,186.938,177/500,77,95.76
770,C#6,187.0,333/1000,94,95.76
771,C#4,187.125,229/500,55,95.76
772,E4,187.125,229/500,55,95.76
773,G4,187.125,229/500,55,95.76
774,B-4,187.188,417/1000,60,95.76
775,C#5,187.188,417/1000,60,95.76
776,E5,187.438,177/500,79,95.76
777,G5,187.438,177/500,79,95.76
778,B-5,187.438,177/500,79,95.76
779,E6,187.5,333/1000,99,95.76
780,E4,187.625,229/500,52,95.76
781,G4,187.625,229/500,52,95.76
782,B-4,187.625,229/500,52,95.76
783,C#5,187.688,417/1000,57,95.76
784,E5,187.688,417/1000,57,95.76
785,G5,187.938,177/500,77,95.76
786,B-5,187.938,177/500,77,95.76
787,C#6,187.938,177/500,77,95.76
788,G6,188.0,333/1000,95,95.76
789,G4,188.125,229/500,55,95.76
790,B-4,188.125,229/500,55,95.76
791,C#5,188.125,229/500,55,95.76
792,E5,188.188,417/1000,58,95.76
793,G5,188.188,417/1000,58,95.76
794,B-5,188.438,177/500,82,95.76
795,C#6,188.438,177/500,82,95.76
796,E6,188.438,177/500,82,95.76
797,B-6,188.5,333/1000,99,95.76
798,B-4,188.625,229/500,52,95.76
799,C#5,188.625,229/500,52,95.76
800,E5,188.625,229/500,52,95.76
801,G5,188.688,417/1000,56,95.76
802,B-5,188.688,417/1000,56,95.76
803,C#6,188.938,177/500,78,95.76
804,E6,188.938,177/500,78,95.76
805,G6,188.938,177/500,78,95.76
806,C#7,189.0,333/1000,94,95.76
807,C#5,189.125,167/1000,53,95.76
808,E5,189.125,167/1000,53,95.76
809,G5,189.125,167/1000,53,95.76
810,B-5,189.188,13/125,58,95.76
811,C#6,189.188,13/125,58,95.76
812,C#5,189.292,99/125,53,95.76
813,E5,189.292,99/125,53,95.76
814,G5,189.292,99/125,53,95.76
815,B-5,189.292,0.812,58,95.76
816,C#6,189.292,0.812,58,95.76
817,E6,189.438,0.062,82,95.76
818,G6,189.438,0.062,82,95.76
819,B-6,189.438,0.062,82,95.76
820,E7,189.5,833/1000,101,95.76
821,E6,189.5,99/125,82,95.76
822,G6,189.5,99/125,82,95.76
823,B-6,189.5,99/125,82,95.76
824,E5,190.125,479/500,53,95.76
825,G5,190.125,479/500,53,95.76
826,B-5,190.125,479/500,53,95.76
827,C#6,190.188,917/1000,58,95.76
828,E6,190.188,917/1000,58,95.76
829,G6,190.438,427/500,82,95.76
830,B-6,190.438,427/500,82,95.76
831,C#7,190.438,427/500,82,95.76
832,G7,190.5,833/1000,99,95.76
833,E3,192.792,0.25,72,95.76
834,C#3,193.292,0.25,71,95.76
835,B-2,193.792,0.25,70,95.76
836,A2,194.292,1.0,74,95.76
837,G2,195.292,1.0,72,95.76
838,F#2,196.292,2.5,71,95.76
839,A3,197.292,1.5,51,95.76
840,D3,197.292,1.5,51,95.76
841,D5,197.5,1.5,62,95.76
842,C5,197.5,1.5,62,95.76
843,A4,197.5,1.5,62,95.76
844,D4,197.5,1.5,62,95.76
845,D4,199.0,0.5,53,95.76
846,E4,199.5,0.5,54,95.76
847,F#4,200.0,0.5,56,95.76
848,G2,200.292,1.0,40,95.76
849,G4,200.5,0.5,57,95.76
850,A4,201.0,0.5,59,95.76
851,D3,201.292,1.0,37,95.76
852,B-4,201.5,0.5,61,95.76
853,C5,202.0,0.5,63,95.76
854,D4,202.292,0.5,36,95.76
855,B-3,202.292,0.5,36,95.76
856,G3,202.292,0.5,36,95.76
857,D5,202.5,0.5,65,95.76
858,B-3,202.792,0.5,49,95.76
859,G5,203.0,0.5,68,95.76
860,A3,203.292,0.5,50,95.76
861,F#5,203.5,0.5,66,95.76
862,G3,203.792,0.5,48,95.76
863,G5,204.0,0.5,64,95.76
864,F#3,204.292,0.5,43,95.76
865,D3,204.292,1.0,36,95.76
866,B-2,204.292,1.0,36,95.76
867,D5,204.5,2.0,53,95.76
868,G3,204.792,0.5,48,95.76
869,B-3,205.292,0.5,52,95.76
870,C4,205.792,0.5,48,95.76
871,D4,206.292,0.5,52,95.76
872,D5,207.0,0.5,56,95.76
873,C3,207.292,1.0,35,95.76
874,A4,207.5,0.5,59,95.76
875,E-4,207.5,1.0,31,95.76
876,G4,207.5,1.0,31,95.76
877,C5,208.0,0.5,51,95.76
878,D3,208.292,0.5,42,95.76
879,D4,208.5,0.5,48,95.76
880,G4,208.5,0.5,48,95.76
881,B-4,208.5,0.5,48,95.76
882,E-4,208.792,0.5,50,95.76
883,B-3,209.292,0.5,37,95.76
884,G3,209.292,0.5,37,95.76
885,C#4,209.292,0.5,37,95.76
886,E-4,209.792,0.5,39,95.76
887,G3,210.292,0.5,36,95.76
888,B-3,210.292,0.5,36,95.76
889,D4,210.292,0.5,36,95.76
890,B-4,211.0,0.5,53,95.76
891,D3,211.292,1.0,42,95.76
892,C4,211.5,1.0,46,95.76
893,F#4,211.5,0.5,57,95.76
894,A4,212.0,0.5,49,95.76
895,G2,212.292,4.0,46,95.76
896,B-3,212.5,2.0,50,95.76
897,G4,212.5,2.0,50,95.76
898,E-3,212.792,0.5,42,95.76
899,C#3,213.292,0.5,44,95.76
900,E-3,213.792,0.5,32,95.76
901,D3,214.292,2.0,35,95.76
902,D4,215.0,0.5,52,95.76
903,C4,215.5,1.0,48,95.76
904,E4,215.5,0.5,54,95.76
905,F#4,216.0,0.5,55,95.76
906,G2,216.292,1.0,40,95.76
907,B-3,216.5,0.5,54,95.76
908,G4,216.5,0.5,54,95.76
909,A4,217.0,0.5,59,95.76
910,D3,217.292,1.0,37,95.76
911,B-4,217.5,0.5,61,95.76
912,C5,218.0,0.5,63,95.76
913,D4,218.292,0.5,36,95.76
914,B-3,218.292,0.5,36,95.76
915,G3,218.292,0.5,36,95.76
916,D5,218.5,0.5,68,95.76
917,B-3,218.792,0.5,50,95.76
918,G5,219.0,0.5,63,95.76
919,A3,219.292,0.5,53,95.76
920,F5,219.5,0.5,61,95.76
921,E-5,219.5,1.0,36,95.76
922,C5,219.5,1.0,36,95.76
923,F4,219.5,1.0,36,95.76
924,G3,219.792,0.5,49,95.76
925,G5,220.0,0.5,59,95.76
926,F3,220.292,0.5,38,95.76
927,B-2,220.292,1.0,44,95.76
928,F4,220.5,2.0,49,95.76
929,B-4,220.5,2.0,49,95.76
930,D5,220.5,2.0,49,95.76
931,G3,220.792,0.5,49,95.76
932,B-3,221.292,0.5,52,95.76
933,D4,221.792,0.5,49,95.76
934,F4,222.292,0.5,52,95.76
935,F5,223.0,0.5,60,95.76
936,G2,223.292,1.0,41,95.76
937,E-5,223.5,0.5,63,95.76
938,E-4,223.5,1.0,50,95.76
939,B-4,223.5,1.0,50,95.76
940,D5,223.5,1.0,50,95.76
941,F5,224.0,0.5,58,95.76
942,A2,224.292,1.0,44,95.76
943,E-4,224.5,2.0,53,95.76
944,A4,224.5,2.0,53,95.76
945,C5,224.5,2.0,53,95.76
946,G3,224.792,0.5,44,95.76
947,A3,225.292,0.5,48,95.76
948,C4,225.792,0.5,45,95.76
949,E-4,226.292,0.5,41,95.76
950,E-5,227.0,0.5,55,95.76
951,F#2,227.292,1.0,36,95.76
952,D5,227.5,0.5,56,95.76
953,D4,227.5,1.0,37,95.76
954,A4,227.5,1.0,37,95.76
955,C5,227.5,1.0,37,95.76
956,E-5,228.0,0.5,50,95.76
957,G2,228.292,1.0,42,95.76
958,D4,228.5,1.0,50,95.76
959,G4,228.5,1.0,50,95.76
960,B-4,228.5,1.0,50,95.76
961,D3,228.792,0.5,37,95.76
962,G3,229.292,0.5,43,95.76
963,B-3,229.792,0.5,39,95.76
964,D4,230.292,0.5,38,95.76
965,D5,231.0,0.5,57,95.76
966,C3,231.292,1.0,36,95.76
967,C5,231.5,0.5,59,95.76
968,E-4,231.5,1.0,37,95.76
969,A4,231.5,1.0,37,95.76
970,D5,232.0,0.5,55,95.76
971,D3,232.292,4.0,42,95.76
972,C5,232.5,0.5,58,95.76
973,D4,232.5,1.0,37,95.76
974,G4,232.5,1.0,37,95.76
975,B-4,233.0,0.5,54,95.76
976,D4,233.292,1.0,34,95.76
977,B-3,233.5,1.0,34,95.76
978,A4,233.5,0.5,53,95.76
979,G4,234.0,0.5,52,95.76
980,C#4,234.292,1.0,33,95.76
981,E4,234.5,1.0,37,95.76
982,B-4,234.5,1.5,55,95.76
983,C4,235.292,1.0,32,95.76
984,E-4,235.5,1.0,32,95.76
985,F#4,235.5,1.0,32,95.76
986,A4,236.0,0.5,42,95.76
987,G3,236.292,1.0,30,95.76
988,C4,236.292,0.5,32,95.76
989,D4,236.5,1.0,47,95.76
990,G4,236.5,1.0,47,95.76
991,B-3,236.792,0.5,36,95.76
992,G3,237.292,0.5,37,95.76
993,D3,237.792,0.5,36,95.76
994,G2,238.292,1.0,36,95.76
995,G4,239.0,0.5,68,95.76
996,A4,239.5,0.5,69,95.76
997,B-4,240.0,0.5,69,95.76
998,E-3,240.292,1.0,52,95.76
999,C5,240.5,0.5,69,95.76
1000,D5,241.0,0.5,70,95.76
1001,F4,241.292,1.0,49,95.76
1002,E-5,241.5,0.5,72,95.76
1003,F5,242.0,0.5,74,95.76
1004,C4,242.292,2.0,47,95.76
1005,A3,242.292,2.0,47,95.76
1006,F3,242.292,2.0,47,95.76
1007,G5,242.5,0.5,75,95.76
1008,A5,243.0,0.5,72,95.76
1009,B-5,243.5,0.5,79,95.76
1010,C6,244.0,0.5,77,95.76
1011,D3,244.292,1.0,67,95.76
1012,F5,244.5,2.0,75,95.76
1013,F3,244.792,0.5,60,95.76
1014,B-3,245.292,0.5,63,95.76
1015,D4,245.792,0.5,59,95.76
1016,F4,246.292,2.0,66,95.76
1017,F5,247.0,0.5,73,95.76
1018,F3,247.292,1.0,47,95.76
1019,D4,247.292,1.0,47,95.76
1020,B-3,247.292,1.0,47,95.76
1021,G5,247.5,0.5,75,95.76
1022,B-5,248.0,0.5,73,95.76
1023,C3,248.292,1.0,57,95.76
1024,E-5,248.5,2.0,70,95.76
1025,F3,248.792,0.5,53,95.76
1026,A3,249.292,0.5,58,95.76
1027,E-4,249.792,0.5,54,95.76
1028,F4,250.292,2.0,57,95.76
1029,E-5,251.0,0.5,67,95.76
1030,E-4,251.292,1.0,42,95.76
1031,F3,251.292,1.0,42,95.76
1032,A3,251.292,1.0,42,95.76
1033,F5,251.5,0.5,71,95.76
1034,A5,252.0,0.5,67,95.76
1035,B-2,252.292,1.0,53,95.76
1036,D5,252.5,2.0,60,95.76
1037,F3,252.792,0.5,50,95.76
1038,B-3,253.292,0.5,53,95.76
1039,D4,253.792,0.5,48,95.76
1040,F4,254.292,2.0,47,95.76
1041,G4,255.0,0.5,68,95.76
1042,F3,255.292,1.0,36,95.76
1043,D4,255.292,1.0,36,95.76
1044,B-3,255.292,1.0,36,95.76
1045,A4,255.5,0.5,69,95.76
1046,B-4,256.0,0.5,69,95.76
1047,E-3,256.292,1.0,52,95.76
1048,C5,256.5,0.5,69,95.76
1049,D5,257.0,0.5,70,95.76
1050,F4,257.292,1.0,49,95.76
1051,E-5,257.5,0.5,72,95.76
1052,F5,258.0,0.5,74,95.76
1053,C4,258.292,2.0,47,95.76
1054,A3,258.292,2.0,47,95.76
1055,F3,258.292,2.0,47,95.76
1056,G5,258.5,0.5,75,95.76
1057,A5,259.0,0.5,72,95.76
1058,B-5,259.5,0.5,79,95.76
1059,C6,260.0,0.5,77,95.76
1060,D3,260.292,1.0,67,95.76
1061,D5,260.5,2.0,75,95.76
1062,F#3,260.792,0.5,60,95.76
1063,A3,261.292,0.5,64,95.76
1064,D4,261.792,0.5,62,95.76
1065,F#4,262.292,1.0,58,95.76
1066,D5,263.0,0.5,73,95.76
1067,A3,263.292,1.0,43,95.76
1068,D4,263.292,1.0,43,95.76
1069,E5,263.5,0.5,75,95.76
1070,F#5,264.0,0.5,72,95.76
1071,D3,264.292,1.0,55,95.76
1072,G5,264.5,2.0,77,95.76
1073,G3,264.792,0.5,52,95.76
1074,B-3,265.292,0.5,58,95.76
1075,D4,265.792,0.5,53,95.76
1076,G4,266.292,1.0,57,95.76
1077,D5,267.0,0.5,67,95.76
1078,D4,267.292,1.0,34,95.76
1079,G3,267.292,1.0,34,95.76
1080,C5,267.5,0.5,69,95.76
1081,B-4,268.0,0.5,67,95.76
1082,D3,268.292,1.0,53,95.76
1083,F#5,268.5,2.0,63,95.76
1084,F#3,268.792,0.5,36,95.76
1085,A3,269.292,0.5,43,95.76
1086,D4,269.792,0.5,38,95.76
1087,F#4,270.292,1.0,43,95.76
1088,C5,271.0,0.5,61,95.76
1089,A3,271.292,1.0,35,95.76
1090,C4,271.292,1.0,35,95.76
1091,D4,271.292,1.0,35,95.76
1092,B-4,271.5,0.5,63,95.76
1093,A4,272.0,0.5,61,95.76
1094,D3,272.292,1.0,53,95.76
1095,G5,272.5,0.5,68,95.76
1096,G3,272.792,0.5,44,95.76
1097,D5,273.0,0.25,61,95.76
1098,E-5,273.25,0.125,45,95.76
1099,B-3,273.292,0.5,46,95.76
1100,D5,273.375,0.125,47,95.76
1101,C#5,273.5,0.5,63,95.76
1102,D4,273.792,0.5,44,95.76
1103,D5,274.0,0.5,60,95.76
1104,G4,274.292,1.0,44,95.76
1105,E-5,274.5,0.5,63,95.76
1106,D5,275.0,0.5,60,95.76
1107,D4,275.292,1.0,44,95.76
1108,B-3,275.292,1.0,44,95.76
1109,G3,275.292,1.0,44,95.76
1110,B-4,275.5,0.5,63,95.76
1111,G4,276.0,0.5,60,95.76
1112,D3,276.292,0.5,46,95.76
1113,A3,276.292,0.5,46,95.76
1114,D5,276.5,0.5,63,95.76
1115,G4,276.5,62/125,60,95.76
1116,G4,276.792,0.5,53,95.76
1117,F#4,277.292,0.5,52,95.76
1118,D5,277.5,1.5,68,95.76
1119,E-4,277.792,0.5,51,95.76
1120,D4,278.292,0.5,50,95.76
1121,C4,278.792,0.5,48,95.76
1122,D4,279.0,0.5,53,95.76
1123,B-3,279.292,0.5,47,95.76
1124,E4,279.5,0.5,54,95.76
1125,A3,279.792,0.5,46,95.76
1126,F#4,280.0,0.5,56,95.76
1127,G2,280.292,1.0,40,95.76
1128,G4,280.5,0.5,57,95.76
1129,A4,281.0,0.5,59,95.76
1130,D3,281.292,1.0,37,95.76
1131,B-4,281.5,0.5,61,95.76
1132,C5,282.0,0.5,63,95.76
1133,D4,282.292,0.5,36,95.76
1134,B-3,282.292,0.5,36,95.76
1135,G3,282.292,0.5,36,95.76
1136,D5,282.5,0.5,65,95.76
1137,B-3,282.792,0.5,49,95.76
1138,G5,283.0,0.5,68,95.76
1139,A3,283.292,0.5,52,95.76
1140,F#5,283.5,0.5,66,95.76
1141,G3,283.792,0.5,48,95.76
1142,G5,284.0,0.5,64,95.76
1143,F#3,284.292,0.5,43,95.76
1144,D3,284.292,1.0,36,95.76
1145,B-2,284.292,1.0,36,95.76
1146,D5,284.5,2.0,53,95.76
1147,G3,284.792,0.5,48,95.76
1148,B-3,285.292,0.5,52,95.76
1149,C4,285.792,0.5,50,95.76
1150,D4,286.292,0.5,52,95.76
1151,D5,287.0,0.5,56,95.76
1152,C3,287.292,1.0,35,95.76
1153,A4,287.5,0.5,59,95.76
1154,E-4,287.5,1.0,31,95.76
1155,G4,287.5,1.0,31,95.76
1156,C5,288.0,0.5,51,95.76
1157,D3,288.292,0.5,42,95.76
1158,D4,288.5,0.5,48,95.76
1159,G4,288.5,0.5,48,95.76
1160,B-4,288.5,0.5,48,95.76
1161,E-4,288.792,0.5,50,95.76
1162,B-3,289.292,0.5,37,95.76
1163,G3,289.292,0.5,37,95.76
1164,C#4,289.292,0.5,37,95.76
1165,E-4,289.792,0.5,39,95.76
1166,G3,290.292,0.5,36,95.76
1167,B-3,290.292,0.5,36,95.76
1168,D4,290.292,0.5,36,95.76
1169,B-4,291.0,0.5,53,95.76
1170,D3,291.292,1.0,42,95.76
1171,C4,291.5,1.0,46,95.76
1172,F#4,291.5,0.5,57,95.76
1173,A4,292.0,0.5,49,95.76
1174,G2,292.292,4.0,46,95.76
1175,B-3,292.5,2.0,50,95.76
1176,G4,292.5,2.0,50,95.76
1177,E-3,292.792,0.5,42,95.76
1178,C#3,293.292,0.5,44,95.76
1179,E-3,293.792,0.5,32,95.76
1180,D3,294.292,2.0,35,95.76
1181,D4,295.0,0.5,52,95.76
1182,C4,295.5,1.0,48,95.76
1183,E4,295.5,0.5,54,95.76
1184,F#4,296.0,0.5,55,95.76
1185,G2,296.292,1.0,40,95.76
1186,B-3,296.5,0.5,54,95.76
1187,G4,296.5,0.5,54,95.76
1188,A4,297.0,0.5,59,95.76
1189,D3,297.292,1.0,37,95.76
1190,B-4,297.5,0.5,61,95.76
1191,C5,298.0,0.5,63,95.76
1192,D4,298.292,0.5,36,95.76
1193,B-3,298.292,0.5,36,95.76
1194,G3,298.292,0.5,36,95.76
1195,D5,298.5,0.5,68,95.76
1196,B-3,298.792,0.5,50,95.76
1197,G5,299.0,0.5,63,95.76
1198,A2,299.292,1.0,40,95.76
1199,A3,299.292,0.5,53,95.76
1200,F5,299.5,0.5,61,95.76
1201,E-5,299.5,1.0,36,95.76
1202,C5,299.5,1.0,36,95.76
1203,F4,299.5,1.0,36,95.76
1204,G3,299.792,0.5,49,95.76
1205,G5,300.0,0.5,59,95.76
1206,F3,300.292,0.5,38,95.76
1207,B-2,300.292,1.0,44,95.76
1208,F4,300.5,2.0,49,95.76
1209,B-4,300.5,2.0,49,95.76
1210,D5,300.5,2.0,49,95.76
1211,G3,300.792,0.5,49,95.76
1212,B-3,301.292,0.5,51,95.76
1213,D4,301.792,0.5,49,95.76
1214,F4,302.292,0.5,52,95.76
1215,F5,303.0,0.5,60,95.76
1216,G2,303.292,1.0,41,95.76
1217,E-5,303.5,0.5,63,95.76
1218,E-4,303.5,1.0,50,95.76
1219,B-4,303.5,1.0,50,95.76
1220,D5,303.5,1.0,50,95.76
1221,F5,304.0,0.5,58,95.76
1222,A2,304.292,1.0,44,95.76
1223,E-4,304.5,2.0,53,95.76
1224,A4,304.5,2.0,53,95.76
1225,C5,304.5,2.0,53,95.76
1226,G3,304.792,0.5,44,95.76
1227,A3,305.292,0.5,48,95.76
1228,C4,305.792,0.5,45,95.76
1229,E-4,306.292,0.5,41,95.76
1230,E-5,307.0,0.5,55,95.76
1231,F#2,307.292,1.0,36,95.76
1232,D5,307.5,0.5,56,95.76
1233,D4,307.5,1.0,37,95.76
1234,A4,307.5,1.0,37,95.76
1235,C5,307.5,1.0,37,95.76
1236,E-5,308.0,0.5,50,95.76
1237,G2,308.292,1.0,39,95.76
1238,D4,308.5,1.0,47,95.76
1239,G4,308.5,1.0,47,95.76
1240,B-4,308.5,1.0,47,95.76
1241,D3,308.792,0.5,35,95.76
1242,G3,309.292,0.5,40,95.76
1243,B-3,309.792,0.5,37,95.76
1244,D4,310.292,0.5,36,95.76
1245,D5,311.0,0.5,54,95.76
1246,C3,311.292,1.0,34,95.76
1247,C5,311.5,0.5,56,95.76
1248,E-4,311.5,1.0,35,95.76
1249,A4,311.5,1.0,35,95.76
1250,D5,312.0,0.5,52,95.76
1251,D3,312.292,4.0,39,95.76
1252,C5,312.5,0.5,55,95.76
1253,D4,312.5,1.0,35,95.76
1254,G4,312.5,1.0,35,95.76
1255,B-4,313.0,0.5,51,95.76
1256,D4,313.292,1.0,32,95.76
1257,B-3,313.5,1.0,32,95.76
1258,A4,313.5,0.5,50,95.76
1259,G4,314.0,0.5,49,95.76
1260,C#4,314.292,1.0,31,95.76
1261,E4,314.5,1.0,35,95.76
1262,B-4,314.5,1.5,52,95.76
1263,C4,315.292,1.0,30,95.76
1264,E-4,315.5,1.0,30,95.76
1265,F#4,315.5,1.0,30,95.76
1266,A4,316.0,0.5,39,95.76
1267,G3,316.292,1.0,28,95.76
1268,C4,316.292,0.5,30,95.76
1269,D4,316.5,1.0,44,95.76
1270,G4,316.5,1.0,44,95.76
1271,B-3,316.792,0.5,34,95.76
1272,G3,317.292,0.5,35,95.76
1273,D3,317.792,0.5,34,95.76
1274,G2,318.292,2.0,34,95.76
1275,B-5,319.0,1.0,47,95.76
1276,D3,319.292,1.0,36,95.76
1277,G6,319.5,0.5,43,95.76
1278,D6,319.5,0.5,43,95.76
1279,A5,320.0,0.5,46,95.76
1280,G2,320.292,4.0,38,95.76
1281,D3,320.292,1.0,36,95.76
1282,A5,320.5,0.5,46,95.76
1283,F#6,320.5,0.5,39,95.76
1284,D6,320.5,0.5,39,95.76
1285,C6,320.5,0.5,39,95.76
1286,G5,321.0,1.0,45,95.76
1287,D3,321.292,3.0,36,95.76
1288,E-6,321.5,0.5,40,95.76
1289,C6,321.5,0.5,40,95.76
1290,A5,321.5,0.5,40,95.76
1291,F#5,322.0,1.0,45,95.76
1292,D6,322.5,0.5,40,95.76
1293,C6,322.5,0.5,40,95.76
1294,A5,322.5,0.5,40,95.76
1295,E-5,323.0,1.0,44,95.76
1296,C6,323.5,0.5,40,95.76
1297,A5,323.5,0.5,40,95.76
1298,F#5,323.5,0.5,40,95.76
1299,D5,324.0,0.5,46,95.76
1300,G2,324.292,3.0,40,95.76
1301,D3,324.292,1.0,36,95.76
1302,D5,324.5,0.5,46,95.76
1303,B-5,324.5,0.5,40,95.76
1304,G5,324.5,0.5,40,95.76
1305,E5,324.5,0.5,40,95.76
1306,C5,325.0,1.0,47,95.76
1307,D3,325.292,2.0,36,95.76
1308,A5,325.5,0.5,40,95.76
1309,F#5,325.5,0.5,40,95.76
1310,E-5,325.5,0.5,40,95.76
1311,B-4,326.0,1.0,44,95.76
1312,G5,326.5,0.5,43,95.76
1313,D5,326.5,0.5,43,95.76
1314,B-4,327.0,0.5,54,95.76
1315,G3,327.292,1.0,38,95.76
1316,D4,327.292,1.0,38,95.76
1317,A4,327.5,0.5,54,95.76
1318,D5,327.5,1.0,37,95.76
1319,C5,327.5,1.0,37,95.76
1320,G4,328.0,0.5,54,95.76
1321,G3,328.792,0.5,38,95.76
1322,D4,328.792,0.5,38,95.76
1323,F#4,329.0,0.5,56,95.76
1324,D5,329.0,0.5,37,95.76
1325,C5,329.0,0.5,37,95.76
1326,G4,329.5,0.5,53,95.76
1327,D4,329.792,1.0,32,95.76
1328,C4,329.792,1.0,32,95.76
1329,G2,329.792,1.0,32,95.76
1330,D3,329.792,1.0,32,95.76
1331,G#4,330.0,0.5,54,95.76
1332,A4,330.5,0.5,53,95.76
1333,F#3,330.792,2.0,38,95.76
1334,B-3,331.292,0.5,51,95.76
1335,A3,331.792,0.5,54,95.76
1336,D4,332.0,1.0,37,95.76
1337,C4,332.0,1.0,37,95.76
1338,G3,332.292,0.5,50,95.76
1339,F#3,332.792,0.5,54,95.76
1340,D4,333.0,1.0,37,95.76
1341,C4,333.0,1.0,37,95.76
1342,E3,333.292,0.5,51,95.76
1343,F#3,333.792,0.5,54,95.76
1344,B-3,334.0,1.0,32,95.76
1345,D4,334.0,1.0,32,95.76
1346,G3,334.292,0.5,51,95.76
1347,D3,334.792,2.0,36,95.76
1348,G2,334.792,2.0,36,95.76
1349,B-4,335.5,1.0,47,95.76
1350,G5,336.0,0.5,43,95.76
1351,D5,336.0,0.5,43,95.76
1352,A4,336.5,0.5,45,95.76
1353,G1,336.792,4.0,37,95.76
1354,A4,337.0,0.5,45,95.76
1355,F#5,337.0,0.5,38,95.76
1356,D5,337.0,0.5,38,95.76
1357,C5,337.0,0.5,38,95.76
1358,G4,337.5,1.0,43,95.76
1359,D2,337.792,3.0,34,95.76
1360,E-5,338.0,0.5,38,95.76
1361,C5,338.0,0.5,38,95.76
1362,A4,338.0,0.5,38,95.76
1363,F#4,338.5,1.0,42,95.76
1364,D5,339.0,0.5,38,95.76
1365,C5,339.0,0.5,38,95.76
1366,A4,339.0,0.5,38,95.76
1367,E-4,339.5,1.0,42,95.76
1368,C5,340.0,0.5,38,95.76
1369,A4,340.0,0.5,38,95.76
1370,F#4,340.0,0.5,38,95.76
1371,D4,340.5,0.5,42,95.76
1372,G1,340.792,3.0,37,95.76
1373,D2,340.792,1.0,34,95.76
1374,D4,341.0,0.5,42,95.76
1375,B-4,341.0,0.5,37,95.76
1376,G4,341.0,0.5,37,95.76
1377,E4,341.0,0.5,37,95.76
1378,C4,341.5,1.0,40,95.76
1379,D2,341.792,2.0,33,95.76
1380,A4,342.0,0.5,37,95.76
1381,F#4,342.0,0.5,37,95.76
1382,E-4,342.0,0.5,37,95.76
1383,B-3,342.5,1.0,41,95.76
1384,G4,343.0,0.5,38,95.76
1385,D4,343.0,0.5,38,95.76
1386,B-3,343.5,0.5,48,95.76
1387,G2,343.792,1.0,34,95.76
1388,D3,343.792,1.0,34,95.76
1389,A3,344.0,0.5,48,95.76
1390,D4,344.0,1.0,33,95.76
1391,C4,344.0,1.0,33,95.76
1392,G3,344.5,0.5,48,95.76
1393,G2,345.292,0.5,34,95.76
1394,D3,345.292,0.5,34,95.76
1395,F#3,345.5,0.5,50,95.76
1396,D4,345.5,0.5,33,95.76
1397,C4,345.5,0.5,33,95.76
1398,G3,346.0,0.5,47,95.76
1399,D3,346.292,1.0,28,95.76
1400,C3,346.292,1.0,28,95.76
1401,G1,346.292,1.0,28,95.76
1402,D2,346.292,1.0,28,95.76
1403,G#3,346.5,0.5,48,95.76
1404,A3,347.0,0.5,47,95.76
1405,F#2,347.292,2.0,34,95.76
1406,B-2,347.792,0.5,45,95.76
1407,A2,348.292,0.5,47,95.76
1408,D3,348.5,1.0,32,95.76
1409,C3,348.5,1.0,32,95.76
1410,G2,348.792,0.5,43,95.76
1411,F#2,349.292,0.5,46,95.76
1412,D3,349.5,1.0,32,95.76
1413,C3,349.5,1.0,32,95.76
1414,E2,349.792,0.5,43,95.76
1415,F#2,350.292,0.5,45,95.76
1416,B-2,350.5,1.0,30,95.76
1417,D3,350.5,1.0,30,95.76
1418,G2,350.792,0.5,41,95.76
1419,G1,351.292,0.5,31,95.76
1420,D2,351.792,1.0,36,95.76
1421,F#2,352.5,0.5,30,95.76
1422,D3,352.5,0.5,30,95.76
1423,C3,352.5,0.5,30,95.76
1424,G1,352.792,0.5,29,95.76
1425,G1,353.292,0.5,29,95.76
1426,G2,353.5,0.5,31,95.76
1427,B-2,353.5,0.5,31,95.76
1428,D3,353.5,0.5,31,95.76
1429,D2,353.792,1.0,32,95.76
1430,A2,354.5,0.5,33,95.76
1431,D3,354.5,0.5,33,95.76
1432,F#3,354.5,0.5,33,95.76
1433,G1,354.792,1.0,27,95.76
1434,B-2,355.5,0.5,35,95.76
1435,D3,355.5,0.5,35,95.76
1436,G3,355.5,0.5,35,95.76
1437,D2,355.792,1.0,33,95.76
1438,D3,356.5,0.5,38,95.76
1439,F#3,356.5,0.5,38,95.76
1440,A3,356.5,0.5,38,95.76
1441,G1,356.792,0.5,29,95.76
1442,G1,357.292,0.5,29,95.76
1443,D3,357.5,0.5,37,95.76
1444,G3,357.5,0.5,37,95.76
1445,B-3,357.5,0.5,37,95.76
1446,D2,357.792,1.0,34,95.76
1447,F#3,358.5,0.5,38,95.76
1448,D4,358.5,0.5,38,95.76
1449,C4,358.5,0.5,38,95.76
1450,G1,358.792,1.0,30,95.76
1451,G4,359.5,0.5,40,95.76
1452,D4,359.5,0.5,40,95.76
1453,B-3,359.5,0.5,40,95.76
1454,D3,359.792,1.0,36,95.76
1455,F#3,360.5,0.5,38,95.76
1456,D4,360.5,0.5,38,95.76
1457,C4,360.5,0.5,38,95.76
1458,G2,360.792,0.5,32,95.76
1459,G2,361.292,0.5,32,95.76
1460,D4,361.5,0.5,42,95.76
1461,B-3,361.5,0.5,42,95.76
1462,G3,361.5,0.5,42,95.76
1463,D3,361.792,1.0,36,95.76
1464,A3,362.5,0.5,43,95.76
1465,D4,362.5,0.5,43,95.76
1466,F#4,362.5,0.5,43,95.76
1467,G2,362.792,1.0,31,95.76
1468,B-3,363.5,0.5,44,95.76
1469,D4,363.5,0.5,44,95.76
1470,G4,363.5,0.5,44,95.76
1471,D3,363.792,1.0,37,95.76
1472,D4,364.5,0.5,45,95.76
1473,F#4,364.5,0.5,45,95.76
1474,A4,364.5,0.5,45,95.76
1475,G2,364.792,0.5,33,95.76
1476,G2,365.292,0.5,33,95.76
1477,D4,365.5,0.5,47,95.76
1478,G4,365.5,0.5,47,95.76
1479,B-4,365.5,0.5,47,95.76
1480,D3,365.792,1.0,38,95.76
1481,F#4,366.5,0.5,48,95.76
1482,C5,366.5,0.5,48,95.76
1483,D5,366.5,0.5,48,95.76
1484,G2,366.792,1.0,33,95.76
1485,B-4,367.5,0.5,49,95.76
1486,D5,367.5,0.5,49,95.76
1487,G5,367.5,0.5,49,95.76
1488,D3,367.792,1.0,40,95.76
1489,D5,368.5,0.5,49,95.76
1490,C5,368.5,0.5,49,95.76
1491,F#4,368.5,0.5,49,95.76
1492,G2,368.792,0.5,35,95.76
1493,G2,369.292,0.5,35,95.76
1494,G4,369.312,0.188,44,95.76
1495,B-4,369.375,0.125,47,95.76
1496,D5,369.438,0.062,52,95.76
1497,G5,369.5,0.5,56,95.76
1498,G4,369.5,0.5,44,95.76
1499,B-4,369.5,0.5,47,95.76
1500,D5,369.5,0.5,52,95.76
1501,D3,369.792,1.0,42,95.76
1502,D5,370.5,0.5,50,95.76
1503,C5,370.5,0.5,50,95.76
1504,F#4,370.5,0.5,50,95.76
1505,G2,370.792,1.0,38,95.76
1506,G4,371.312,0.688,44,95.76
1507,B-4,371.375,0.625,47,95.76
1508,D5,371.438,0.562,51,95.76
1509,G5,371.5,0.5,56,95.76
1510,D4,371.792,1.0,43,95.76
1511,D6,372.5,0.5,53,95.76
1512,C6,372.5,0.5,53,95.76
1513,F#5,372.5,0.5,53,95.76
1514,G3,372.792,0.5,39,95.76
1515,G3,373.292,0.5,39,95.76
1516,G5,373.312,0.188,51,95.76
1517,B-5,373.375,0.125,56,95.76
1518,D6,373.438,0.062,60,95.76
1519,G6,373.5,0.5,65,95.76
1520,G5,373.5,0.5,51,95.76
1521,B-5,373.5,0.5,56,95.76
1522,D6,373.5,0.5,60,95.76
1523,D4,373.792,1.0,45,95.76
1524,D6,374.5,0.5,54,95.76
1525,C6,374.5,0.5,54,95.76
1526,F#5,374.5,0.5,54,95.76
1527,G3,374.792,1.0,41,95.76
1528,G5,375.312,0.688,50,95.76
1529,B-5,375.375,0.625,55,95.76
1530,D6,375.438,0.562,58,95.76
1531,G6,375.5,0.5,65,95.76
1532,G4,375.792,1.0,40,95.76
1533,D5,375.792,1.0,40,95.76
1534,G5,376.312,0.688,47,95.76
1535,B-5,376.375,0.625,52,95.76
1536,D6,376.438,0.562,57,95.76
1537,G6,376.5,0.5,62,95.76
1538,G4,376.792,0.5,34,95.76
1539,D5,376.792,0.5,34,95.76
1540,G5,377.312,0.188,46,95.76
1541,B-5,377.375,0.125,50,95.76
1542,D6,377.438,0.062,54,95.76
1543,G6,377.5,0.5,59,95.76
1544,G5,377.5,0.5,46,95.76
1545,B-5,377.5,0.5,50,95.76
1546,D6,377.5,0.5,54,95.76
1547,G4,377.792,0.5,34,95.76
1548,D5,377.792,0.5,34,95.76
1549,G4,378.292,1.0,36,95.76
1550,D5,378.292,1.0,36,95.76
1551,G5,378.312,0.688,45,95.76
1552,B-5,378.375,0.625,47,95.76
1553,D6,378.438,0.562,51,95.76
1554,G6,378.5,0.5,55,95.76
1555,G4,379.292,1.0,29,95.76
1556,D5,379.292,1.0,29,95.76
1557,G5,379.312,0.688,42,95.76
1558,B-5,379.375,0.625,44,95.76
1559,D6,379.438,0.562,46,95.76
1560,G6,379.5,0.5,50,95.76
1561,G4,380.292,1.0,31,95.76
1562,D5,380.292,1.0,31,95.76
1563,G5,380.312,0.688,36,95.76
1564,B-5,380.375,0.625,38,95.76
1565,D6,380.438,0.562,40,95.76
1566,G6,380.5,0.5,47,95.76
1567,G4,381.292,0.5,27,95.76
1568,D5,381.292,0.5,27,95.76
1569,G5,381.312,0.188,32,95.76
1570,B-5,381.375,0.125,36,95.76
1571,D6,381.438,0.062,40,95.76
1572,G6,381.5,0.5,44,95.76
1573,G5,381.5,0.5,32,95.76
1574,B-5,381.5,0.5,36,95.76
1575,D6,381.5,0.5,40,95.76
1576,G4,382.292,0.5,27,95.76
1577,D5,382.292,0.5,27,95.76
1578,G5,382.312,0.688,29,95.76
1579,B-5,382.375,0.625,33,95.76
1580,D6,382.438,0.562,34,95.76
1581,G6,382.5,0.5,41,95.76
1582,G4,382.792,1.0,29,95.76
1583,D5,382.792,1.0,29,95.76
1584,G5,383.312,0.688,26,95.76
1585,B-5,383.375,0.625,30,95.76
1586,D6,383.438,0.562,34,95.76
1587,G6,383.5,0.5,37,95.76
1588,G4,383.792,2.5,25,95.76
1589,D5,383.792,2.5,25,95.76
