,note_name,start_time,duration,velocity,tempo
0,C#5,0.0,0.5,68,96.95
1,C#4,0.0,0.5,53,96.95
2,B4,0.5,0.5,62,96.95
3,B3,0.5,0.5,49,96.95
4,E5,1.0,2.0,63,96.95
5,E4,1.0,2.0,50,96.95
6,G#4,2.0,1.0,44,96.95
7,B4,2.0,1.0,44,96.95
8,B3,2.0,1.0,37,96.95
9,E3,2.0,1.0,37,96.95
10,G#5,3.0,0.5,67,96.95
11,G#4,3.0,0.5,52,96.95
12,B5,3.5,0.5,63,96.95
13,B4,3.5,0.5,50,96.95
14,C#6,4.0,0.5,69,96.95
15,C#5,4.0,0.5,55,96.95
16,B5,4.5,0.5,62,96.95
17,B4,4.5,0.5,49,96.95
18,G#5,5.0,2.0,64,96.95
19,G#4,5.0,2.0,51,96.95
20,B4,6.0,1.0,44,96.95
21,G#4,6.0,1.0,44,96.95
22,E3,6.0,1.0,37,96.95
23,B3,6.0,1.0,37,96.95
24,E5,7.0,0.5,63,96.95
25,E4,7.0,0.5,50,96.95
26,C#5,7.5,0.5,60,96.95
27,C#4,7.5,0.5,48,96.95
28,G#5,8.0,0.5,63,96.95
29,G#4,8.0,0.5,50,96.95
30,F#5,8.5,0.5,59,96.95
31,F#4,8.5,0.5,47,96.95
32,C#5,9.0,2.0,62,96.95
33,C#4,9.0,2.0,49,96.95
34,F#4,10.0,1.0,44,96.95
35,A4,10.0,1.0,44,96.95
36,B3,10.0,1.0,37,96.95
37,E3,10.0,1.0,37,96.95
38,C#5,11.0,0.5,61,96.95
39,C#4,11.0,0.5,48,96.95
40,B4,11.5,0.5,57,96.95
41,B3,11.5,0.5,41,96.95
42,F#5,12.0,0.5,62,96.95
43,F#4,12.0,0.5,47,96.95
44,E5,12.5,0.5,57,96.95
45,E4,12.5,0.5,39,96.95
46,B4,13.0,2.0,58,96.95
47,B3,13.0,2.0,41,96.95
48,G#4,14.0,1.0,44,96.95
49,E4,14.0,1.0,44,96.95
50,E3,14.0,1.0,37,96.95
51,G#3,14.0,1.0,37,96.95
52,B-4,15.0,0.5,61,96.95
53,B-3,15.0,0.5,48,96.95
54,B4,15.5,0.5,59,96.95
55,B3,15.5,0.5,47,96.95
56,C#5,16.0,0.5,68,96.95
57,C#4,16.0,0.5,53,96.95
58,B4,16.5,0.5,62,96.95
59,B3,16.5,0.5,49,96.95
60,E5,17.0,2.0,63,96.95
61,E4,17.0,2.0,50,96.95
62,G#4,18.0,1.0,44,96.95
63,B4,18.0,1.0,44,96.95
64,B3,18.0,1.0,37,96.95
65,E3,18.0,1.0,37,96.95
66,G#5,19.0,0.5,67,96.95
67,G#4,19.0,0.5,52,96.95
68,B5,19.5,0.5,63,96.95
69,B4,19.5,0.5,50,96.95
70,C#6,20.0,0.5,69,96.95
71,C#5,20.0,0.5,55,96.95
72,B5,20.5,0.5,62,96.95
73,B4,20.5,0.5,49,96.95
74,G#5,21.0,2.0,64,96.95
75,G#4,21.0,2.0,51,96.95
76,G#4,22.0,1.0,44,96.95
77,B4,22.0,1.0,44,96.95
78,E3,22.0,1.0,37,96.95
79,B3,22.0,1.0,37,96.95
80,E5,23.0,0.5,63,96.95
81,E4,23.0,0.5,50,96.95
82,C#5,23.5,0.5,60,96.95
83,C#4,23.5,0.5,48,96.95
84,B4,24.0,0.5,63,96.95
85,B3,24.0,0.5,50,96.95
86,E-5,24.5,0.5,59,96.95
87,E-4,24.5,0.5,47,96.95
88,B5,25.0,2.0,62,96.95
89,B4,25.0,2.0,49,96.95
90,E-5,26.0,1.0,44,96.95
91,B4,26.0,1.0,44,96.95
92,G#3,26.0,1.0,37,96.95
93,E-3,26.0,1.0,37,96.95
94,B3,26.0,1.0,37,96.95
95,B-5,27.0,0.5,61,96.95
96,B-4,27.0,0.5,48,96.95
97,G#5,27.5,0.5,57,96.95
98,G#4,27.5,0.5,41,96.95
99,E5,28.0,1.0,57,96.95
100,E4,28.0,1.0,48,96.95
101,E-5,29.0,0.5,57,96.95
102,E-4,29.0,0.5,48,96.95
103,B-4,29.0,1.0,44,96.95
104,G4,29.0,1.0,44,96.95
105,B-3,29.0,1.0,37,96.95
106,E-3,29.0,1.0,37,96.95
107,C#5,29.5,0.5,53,96.95
108,C#4,29.5,0.5,41,96.95
109,C#5,30.0,0.5,57,96.95
110,C#4,30.0,0.5,46,96.95
111,G#3,30.0,0.875,34,96.95
112,E-4,30.0,1.0,40,96.95
113,G#4,30.0,1.0,40,96.95
114,B4,30.5,0.5,52,96.95
115,B3,30.5,0.375,39,96.95
116,G#2,30.875,1.125,31,96.95
117,E-3,30.938,1.062,31,96.95
118,B-4,31.0,0.5,52,96.95
119,B-3,31.0,0.5,40,96.95
120,B3,31.0,1.0,38,96.95
121,E-4,31.0,1.0,38,96.95
122,G#4,31.5,0.5,52,96.95
123,G#3,31.5,0.5,37,96.95
124,A4,32.0,0.5,64,96.95
125,F4,32.5,0.5,60,96.95
126,F#4,33.0,1.5,64,96.95
127,F#2,33.25,0.25,39,96.95
128,C#3,33.5,0.25,37,96.95
129,F#3,33.75,0.25,37,96.95
130,A3,34.0,0.25,39,96.95
131,C#4,34.25,0.25,39,96.95
132,F#4,34.5,0.25,39,96.95
133,A4,34.75,0.25,42,96.95
134,F#5,35.0,0.5,67,96.95
135,E5,35.5,0.5,63,96.95
136,E5,36.0,0.5,67,96.95
137,D5,36.5,0.5,63,96.95
138,E-5,37.0,2.0,66,96.95
139,B2,37.25,0.25,39,96.95
140,F#3,37.5,0.25,37,96.95
141,A3,37.75,0.25,37,96.95
142,B3,38.0,0.25,39,96.95
143,E-4,38.25,0.25,39,96.95
144,F#4,38.5,0.25,39,96.95
145,A4,38.75,0.25,42,96.95
146,C#5,39.0,0.5,67,96.95
147,B4,39.5,0.5,67,96.95
148,A4,40.0,0.5,64,96.95
149,F4,40.5,0.5,60,96.95
150,F#4,41.0,1.5,64,96.95
151,F#2,41.25,0.25,37,96.95
152,C#3,41.5,0.25,40,96.95
153,F#3,41.75,0.25,44,96.95
154,A3,42.0,0.25,48,96.95
155,C#4,42.25,0.25,46,96.95
156,F#4,42.5,0.25,50,96.95
157,A4,42.75,0.25,55,96.95
158,A5,43.0,333/1000,68,96.95
159,G#5,43.333,333/1000,64,96.95
160,F#5,43.667,333/1000,63,96.95
161,E5,44.0,0.5,68,96.95
162,E-4,44.5,0.5,43,96.95
163,A4,44.5,0.5,43,96.95
164,E-5,44.5,0.5,43,96.95
165,B2,44.5,0.5,31,96.95
166,B3,44.5,0.5,31,96.95
167,F#3,44.5,0.5,31,96.95
168,C#5,45.0,0.5,68,96.95
169,E4,45.5,0.5,43,96.95
170,A4,45.5,0.5,43,96.95
171,E-5,45.5,0.5,43,96.95
172,E3,45.5,0.5,28,96.95
173,C#3,45.5,0.5,28,96.95
174,A3,45.5,0.5,28,96.95
175,C#5,46.0,0.5,63,96.95
176,B4,46.5,0.5,46,96.95
177,F4,46.5,0.5,46,96.95
178,D3,46.5,0.5,32,96.95
179,G#3,46.5,0.5,32,96.95
180,B-4,47.0,0.5,59,96.95
181,F#4,47.5,0.5,46,96.95
182,B4,47.5,0.5,46,96.95
183,E-3,47.5,0.5,32,96.95
184,A3,47.5,0.5,32,96.95
185,A4,48.0,0.5,64,96.95
186,F4,48.5,0.5,60,96.95
187,F#4,49.0,1.5,64,96.95
188,F#2,49.25,0.25,39,96.95
189,C#3,49.5,0.25,37,96.95
190,F#3,49.75,0.25,37,96.95
191,A3,50.0,0.25,39,96.95
192,C#4,50.25,0.25,39,96.95
193,F#4,50.5,0.25,39,96.95
194,A4,50.75,0.25,42,96.95
195,F#5,51.0,0.5,67,96.95
196,E5,51.5,0.5,63,96.95
197,E5,52.0,0.5,67,96.95
198,D5,52.5,0.5,63,96.95
199,E-5,53.0,2.0,66,96.95
200,B2,53.25,0.25,39,96.95
201,F#3,53.5,0.25,37,96.95
202,A3,53.75,0.25,37,96.95
203,B3,54.0,0.25,39,96.95
204,E-4,54.25,0.25,39,96.95
205,F#4,54.5,0.25,39,96.95
206,A4,54.75,0.25,42,96.95
207,C#5,55.0,0.5,67,96.95
208,B4,55.5,0.5,67,96.95
209,A4,56.0,0.5,64,96.95
210,F4,56.5,0.5,60,96.95
211,F#4,57.0,1.5,64,96.95
212,F#2,57.25,0.25,37,96.95
213,C#3,57.5,0.25,40,96.95
214,F#3,57.75,0.25,44,96.95
215,A3,58.0,0.25,48,96.95
216,C#4,58.25,0.25,46,96.95
217,F#4,58.5,0.25,50,96.95
218,A4,58.75,0.25,55,96.95
219,A5,59.0,333/1000,68,96.95
220,G#5,59.333,333/1000,64,96.95
221,F#5,59.667,333/1000,63,96.95
222,E5,60.0,0.5,68,96.95
223,E-4,60.5,0.5,43,96.95
224,A4,60.5,0.5,43,96.95
225,E-5,60.5,0.5,43,96.95
226,B2,60.5,0.5,31,96.95
227,B3,60.5,0.5,31,96.95
228,F#3,60.5,0.5,31,96.95
229,G#5,61.0,333/1000,64,96.95
230,F#5,61.333,333/1000,61,96.95
231,E5,61.667,333/1000,60,96.95
232,E-5,62.0,0.5,63,96.95
233,E4,62.5,0.5,39,96.95
234,C#5,62.5,0.5,39,96.95
235,A4,62.5,0.5,39,96.95
236,C#3,62.5,0.5,25,96.95
237,A3,62.5,0.5,25,96.95
238,E3,62.5,0.5,25,96.95
239,C#4,62.5,0.5,25,96.95
240,F#5,63.0,333/1000,63,96.95
241,E5,63.333,333/1000,60,96.95
242,E-5,63.667,333/1000,60,96.95
243,C#5,64.0,0.5,71,96.95
244,C#4,64.0,0.5,59,96.95
245,A4,64.5,0.5,47,96.95
246,F#4,64.5,0.5,47,96.95
247,B4,64.5,0.5,47,96.95
248,F#3,64.5,0.5,37,96.95
249,E-3,64.5,0.5,37,96.95
250,B3,64.5,0.5,37,96.95
251,C#5,65.0,0.5,80,96.95
252,C#4,65.0,0.5,67,96.95
253,B4,65.5,0.5,52,96.95
254,E4,65.5,0.5,52,96.95
255,G#4,65.5,0.5,52,96.95
256,G#3,65.5,0.5,42,96.95
257,E3,65.5,0.5,42,96.95
258,B3,65.5,0.5,42,96.95
259,C#5,66.0,0.5,84,96.95
260,C#4,66.0,0.5,71,96.95
261,D4,66.5,0.5,58,96.95
262,B4,66.5,0.5,58,96.95
263,G#4,66.5,0.5,58,96.95
264,G#3,66.5,0.5,48,96.95
265,F3,66.5,0.5,48,96.95
266,B3,66.5,0.5,48,96.95
267,C#5,67.0,0.5,86,96.95
268,C#4,67.0,0.5,72,96.95
269,E-4,67.5,0.5,66,96.95
270,A4,67.5,0.5,66,96.95
271,B4,67.5,0.5,66,96.95
272,B3,67.5,0.5,55,96.95
273,F#3,67.5,0.5,55,96.95
274,C#5,68.0,0.5,79,96.95
275,C#4,68.0,0.5,79,96.95
276,B3,68.5,0.5,72,96.95
277,B4,68.5,0.5,72,96.95
278,B4,69.0,2.0,73,96.95
279,E5,69.0,2.0,73,96.95
280,E4,69.0,2.0,73,96.95
281,G#4,69.0,2.0,73,96.95
282,E2,69.333,333/1000,61,96.95
283,B2,69.667,333/1000,61,96.95
284,E3,70.0,333/1000,66,96.95
285,B2,70.333,333/1000,62,96.95
286,E3,70.667,333/1000,62,96.95
287,B3,71.0,333/1000,69,96.95
288,G#4,71.0,0.5,73,96.95
289,B4,71.0,0.5,73,96.95
290,G#5,71.0,0.5,73,96.95
291,E5,71.0,0.5,73,96.95
292,E3,71.333,333/1000,62,96.95
293,B4,71.5,0.5,70,96.95
294,E5,71.5,0.5,70,96.95
295,G#5,71.5,0.5,70,96.95
296,B5,71.5,0.5,70,96.95
297,B3,71.667,333/1000,61,96.95
298,E4,72.0,0.5,71,96.95
299,E5,72.0,0.5,75,96.95
300,C#6,72.0,0.5,75,96.95
301,G#5,72.0,0.5,75,96.95
302,C#5,72.0,0.5,75,96.95
303,B5,72.5,0.5,72,96.95
304,B4,72.5,0.5,72,96.95
305,G#4,73.0,2.0,70,96.95
306,B4,73.0,2.0,70,96.95
307,E5,73.0,2.0,70,96.95
308,G#5,73.0,2.0,70,96.95
309,E2,73.333,333/1000,61,96.95
310,B2,73.667,333/1000,61,96.95
311,E3,74.0,333/1000,66,96.95
312,B2,74.333,333/1000,62,96.95
313,E3,74.667,333/1000,62,96.95
314,B3,75.0,333/1000,69,96.95
315,G#4,75.0,0.5,70,96.95
316,E5,75.0,0.5,70,96.95
317,B4,75.0,0.5,70,96.95
318,E4,75.0,0.5,70,96.95
319,E3,75.333,333/1000,62,96.95
320,B4,75.5,0.5,65,96.95
321,C#5,75.5,0.5,65,96.95
322,G#4,75.5,0.5,65,96.95
323,C#4,75.5,0.5,65,96.95
324,B3,75.667,333/1000,61,96.95
325,E-4,76.0,0.5,71,96.95
326,G#4,76.0,0.5,71,96.95
327,G#5,76.0,0.5,71,96.95
328,B4,76.0,0.5,71,96.95
329,F#4,76.5,0.5,69,96.95
330,F#5,76.5,0.5,69,96.95
331,C#4,77.0,2.0,68,96.95
332,C#5,77.0,2.0,68,96.95
333,F#4,77.0,2.0,68,96.95
334,A4,77.0,2.0,68,96.95
335,E2,77.333,333/1000,55,96.95
336,B2,77.667,333/1000,55,96.95
337,F#3,78.0,333/1000,59,96.95
338,B2,78.333,333/1000,56,96.95
339,F#3,78.667,333/1000,56,96.95
340,B3,79.0,333/1000,61,96.95
341,C#4,79.0,0.5,66,96.95
342,F#4,79.0,0.5,66,96.95
343,C#5,79.0,0.5,66,96.95
344,A4,79.0,0.5,66,96.95
345,F#3,79.333,333/1000,56,96.95
346,E-4,79.5,0.5,63,96.95
347,F#4,79.5,0.5,63,96.95
348,B4,79.5,0.5,63,96.95
349,B3,79.667,333/1000,55,96.95
350,E4,80.0,0.5,63,96.95
351,B4,80.0,0.5,65,96.95
352,F#5,80.0,0.5,65,96.95
353,G#4,80.0,0.5,65,96.95
354,F#4,80.0,0.5,65,96.95
355,E4,80.5,0.5,66,96.95
356,E5,80.5,0.5,66,96.95
357,E4,81.0,2.0,63,96.95
358,B4,81.0,2.0,63,96.95
359,G#4,81.0,2.0,63,96.95
360,B3,81.0,2.0,63,96.95
361,E2,81.333,333/1000,55,96.95
362,B2,81.667,333/1000,55,96.95
363,E3,82.0,333/1000,59,96.95
364,B2,82.333,333/1000,56,96.95
365,E3,82.667,333/1000,56,96.95
366,G#3,83.0,333/1000,61,96.95
367,G#4,83.0,0.5,66,96.95
368,B-4,83.0,0.5,66,96.95
369,E4,83.0,0.5,66,96.95
370,B-3,83.0,0.5,66,96.95
371,E3,83.333,333/1000,56,96.95
372,B3,83.5,0.5,69,96.95
373,B4,83.5,0.5,69,96.95
374,G#3,83.667,333/1000,55,96.95
375,B3,84.0,0.5,63,96.95
376,E4,84.0,0.5,74,96.95
377,C#5,84.0,0.5,74,96.95
378,C#4,84.0,0.5,74,96.95
379,G#4,84.0,0.5,74,96.95
380,B3,84.5,0.5,68,96.95
381,B4,84.5,0.5,68,96.95
382,E4,84.5,0.5,68,96.95
383,G#4,84.5,0.5,68,96.95
384,E4,85.0,2.0,73,96.95
385,E5,85.0,2.0,73,96.95
386,G#4,85.0,2.0,73,96.95
387,B4,85.0,2.0,73,96.95
388,E2,85.333,333/1000,61,96.95
389,B2,85.667,333/1000,61,96.95
390,E3,86.0,333/1000,66,96.95
391,B2,86.333,333/1000,62,96.95
392,E3,86.667,333/1000,62,96.95
393,B3,87.0,333/1000,69,96.95
394,G#4,87.0,0.5,73,96.95
395,B4,87.0,0.5,73,96.95
396,G#5,87.0,0.5,73,96.95
397,E5,87.0,0.5,73,96.95
398,E3,87.333,333/1000,62,96.95
399,B4,87.5,0.5,70,96.95
400,E5,87.5,0.5,70,96.95
401,G#5,87.5,0.5,70,96.95
402,B5,87.5,0.5,70,96.95
403,B3,87.667,333/1000,61,96.95
404,E4,88.0,0.5,71,96.95
405,G#5,88.0,0.5,75,96.95
406,E5,88.0,0.5,75,96.95
407,C#5,88.0,0.5,75,96.95
408,C#6,88.0,0.5,75,96.95
409,B4,88.5,0.5,72,96.95
410,B5,88.5,0.5,72,96.95
411,B4,89.0,2.0,70,96.95
412,G#5,89.0,2.0,70,96.95
413,E5,89.0,2.0,70,96.95
414,G#4,89.0,2.0,70,96.95
415,E2,89.333,333/1000,61,96.95
416,B2,89.667,333/1000,61,96.95
417,E3,90.0,333/1000,66,96.95
418,B2,90.333,333/1000,62,96.95
419,E3,90.667,333/1000,62,96.95
420,B3,91.0,333/1000,69,96.95
421,B4,91.0,0.5,70,96.95
422,E5,91.0,0.5,70,96.95
423,G#4,91.0,0.5,70,96.95
424,E4,91.0,0.5,70,96.95
425,E3,91.333,333/1000,62,96.95
426,C#4,91.5,0.5,65,96.95
427,C#5,91.5,0.5,65,96.95
428,G#4,91.5,0.5,65,96.95
429,B4,91.5,0.5,65,96.95
430,B3,91.667,333/1000,61,96.95
431,E-4,92.0,0.5,71,96.95
432,G#4,92.0,0.5,71,96.95
433,B4,92.0,0.5,71,96.95
434,G#5,92.0,0.5,71,96.95
435,F#5,92.5,0.5,69,96.95
436,F#4,92.5,0.5,69,96.95
437,C#4,93.0,2.0,68,96.95
438,F#4,93.0,2.0,68,96.95
439,C#5,93.0,2.0,68,96.95
440,A4,93.0,2.0,68,96.95
441,E2,93.333,333/1000,55,96.95
442,B2,93.667,333/1000,55,96.95
443,F#3,94.0,333/1000,59,96.95
444,B2,94.333,333/1000,56,96.95
445,F#3,94.667,333/1000,56,96.95
446,B3,95.0,333/1000,61,96.95
447,C#4,95.0,0.5,66,96.95
448,F#4,95.0,0.5,66,96.95
449,A4,95.0,0.5,66,96.95
450,C#5,95.0,0.5,66,96.95
451,F#3,95.333,333/1000,56,96.95
452,F#4,95.5,0.5,63,96.95
453,E-4,95.5,0.5,63,96.95
454,B4,95.5,0.5,63,96.95
455,B3,95.667,333/1000,55,96.95
456,E4,96.0,0.5,63,96.95
457,F#4,96.0,0.5,65,96.95
458,F#5,96.0,0.5,65,96.95
459,G#4,96.0,0.5,65,96.95
460,B4,96.0,0.5,65,96.95
461,E4,96.5,0.5,66,96.95
462,E5,96.5,0.5,66,96.95
463,G#4,97.0,2.0,63,96.95
464,B4,97.0,2.0,63,96.95
465,E4,97.0,2.0,63,96.95
466,B3,97.0,2.0,63,96.95
467,E2,97.333,333/1000,55,96.95
468,B2,97.667,333/1000,55,96.95
469,E3,98.0,333/1000,59,96.95
470,B2,98.333,333/1000,56,96.95
471,E3,98.667,333/1000,56,96.95
472,G#3,99.0,333/1000,61,96.95
473,B-3,99.0,0.5,63,96.95
474,B-4,99.0,0.5,63,96.95
475,E4,99.0,0.5,63,96.95
476,G#4,99.0,0.5,63,96.95
477,E3,99.333,333/1000,56,96.95
478,E4,99.5,0.5,62,96.95
479,G#4,99.5,0.5,62,96.95
480,B4,99.5,0.5,62,96.95
481,B3,99.5,0.5,62,96.95
482,G#3,99.667,333/1000,55,96.95
483,B3,100.0,0.5,63,96.95
484,C#4,100.0,0.5,62,96.95
485,E4,100.0,0.5,62,96.95
486,G#4,100.0,0.5,62,96.95
487,C#5,100.0,0.5,62,96.95
488,B-4,100.5,0.5,60,96.95
489,B-3,100.5,0.5,60,96.95
490,B3,101.0,2.0,56,96.95
491,E4,101.0,2.0,56,96.95
492,B4,101.0,2.0,56,96.95
493,G#4,101.0,2.0,56,96.95
494,E2,101.333,333/1000,51,96.95
495,B2,101.667,333/1000,50,96.95
496,E3,102.0,333/1000,52,96.95
497,B2,102.333,333/1000,49,96.95
498,E3,102.667,333/1000,48,96.95
499,G#3,103.0,333/1000,51,96.95
500,B-3,103.0,0.5,47,96.95
501,E4,103.0,0.5,47,96.95
502,G#4,103.0,0.5,47,96.95
503,B-4,103.0,0.5,47,96.95
504,E3,103.333,333/1000,46,96.95
505,G#4,103.5,0.5,45,96.95
506,B4,103.5,0.5,45,96.95
507,B3,103.5,0.5,45,96.95
508,E4,103.5,0.5,45,96.95
509,G#3,103.667,333/1000,45,96.95
510,B3,104.0,0.5,50,96.95
511,G#4,104.0,0.5,43,96.95
512,C#5,104.0,0.5,43,96.95
513,E4,104.0,0.5,43,96.95
514,C#4,104.0,0.5,43,96.95
515,B-3,104.5,0.5,42,96.95
516,B-4,104.5,0.5,42,96.95
517,E4,105.0,2.0,40,96.95
518,B4,105.0,2.0,40,96.95
519,G#4,105.0,2.0,40,96.95
520,B3,105.0,2.0,40,96.95
521,E2,105.333,333/1000,40,96.95
522,B2,105.667,333/1000,39,96.95
523,E3,106.0,333/1000,41,96.95
524,B2,106.333,333/1000,39,96.95
525,E3,106.667,333/1000,38,96.95
526,G#3,107.0,333/1000,40,96.95
527,E3,107.333,333/1000,36,96.95
528,G#3,107.667,333/1000,35,96.95
529,A2,108.0,1.0,42,96.95
530,E3,108.062,0.938,47,96.95
531,A3,108.125,0.875,52,96.95
532,C4,108.188,0.812,62,96.95
533,E4,108.25,0.75,67,96.95
534,A4,108.312,0.688,69,96.95
535,C5,108.375,1.125,73,96.95
536,C5,109.5,0.5,62,96.95
537,C5,110.0,0.75,68,96.95
538,C4,110.0,1.0,60,96.95
539,F#4,110.0,1.0,60,96.95
540,D3,110.0,1.0,50,96.95
541,A3,110.0,1.0,50,96.95
542,B4,110.75,0.125,62,96.95
543,A4,110.875,0.125,62,96.95
544,D4,111.0,0.25,67,96.95
545,G4,111.0,0.25,67,96.95
546,G2,111.0,0.25,52,96.95
547,D3,111.0,0.25,52,96.95
548,B3,111.0,0.25,52,96.95
549,D4,111.5,0.25,65,96.95
550,G4,111.5,0.25,65,96.95
551,D5,111.5,0.25,65,96.95
552,B2,111.5,0.25,51,96.95
553,G3,111.5,0.25,51,96.95
554,B3,111.5,0.25,51,96.95
555,E4,112.0,0.25,70,96.95
556,G4,112.0,0.25,70,96.95
557,C5,112.0,0.25,70,96.95
558,E5,112.0,0.25,70,96.95
559,C3,112.0,0.25,55,96.95
560,G3,112.0,0.25,55,96.95
561,C4,112.0,0.25,55,96.95
562,G4,112.5,0.25,68,96.95
563,C5,112.5,0.25,68,96.95
564,G5,112.5,0.25,68,96.95
565,E3,112.5,0.25,53,96.95
566,C4,112.5,0.25,53,96.95
567,E4,112.5,0.25,53,96.95
568,G4,113.0,2.0,72,96.95
569,B4,113.0,2.0,72,96.95
570,D5,113.0,2.0,72,96.95
571,D4,113.0,2.0,57,96.95
572,B3,113.0,2.0,57,96.95
573,G3,113.0,2.0,57,96.95
574,E5,115.0,0.25,81,96.95
575,G#4,115.0,0.5,64,96.95
576,B4,115.0,0.5,64,96.95
577,E3,115.0,0.5,58,96.95
578,E4,115.0,0.5,58,96.95
579,B3,115.0,0.5,58,96.95
580,D5,115.25,0.25,71,96.95
581,C5,115.5,0.25,66,96.95
582,B4,115.75,0.25,59,96.95
583,C5,116.0,0.25,55,96.95
584,A4,116.0,0.25,46,96.95
585,E-4,116.0,0.25,46,96.95
586,B5,116.438,0.062,55,96.95
587,A3,116.5,0.25,49,96.95
588,F#5,116.5,0.25,59,96.95
589,C6,116.5,0.25,59,96.95
590,C5,117.0,0.25,57,96.95
591,A4,117.0,0.25,48,96.95
592,E-4,117.0,0.25,48,96.95
593,B5,117.438,0.062,55,96.95
594,A3,117.5,0.25,49,96.95
595,C6,117.5,0.25,58,96.95
596,F#5,117.5,0.25,58,96.95
597,C5,118.0,0.25,55,96.95
598,A4,118.0,0.25,46,96.95
599,E-4,118.0,0.25,46,96.95
600,B5,118.438,0.062,55,96.95
601,A3,118.5,0.25,49,96.95
602,C6,118.5,0.25,59,96.95
603,F#5,118.5,0.25,59,96.95
604,E5,119.0,0.25,81,96.95
605,G#4,119.0,0.5,64,96.95
606,B4,119.0,0.5,64,96.95
607,E3,119.0,0.5,58,96.95
608,E4,119.0,0.5,58,96.95
609,B3,119.0,0.5,58,96.95
610,D5,119.25,0.25,71,96.95
611,C5,119.5,0.25,66,96.95
612,B4,119.75,0.25,59,96.95
613,C5,120.0,0.25,55,96.95
614,A4,120.0,0.25,46,96.95
615,E-4,120.0,0.25,46,96.95
616,B5,120.438,0.062,55,96.95
617,A3,120.5,0.25,49,96.95
618,F#5,120.5,0.25,59,96.95
619,C6,120.5,0.25,59,96.95
620,C5,121.0,0.25,57,96.95
621,A4,121.0,0.25,48,96.95
622,E-4,121.0,0.25,48,96.95
623,B5,121.438,0.062,55,96.95
624,A3,121.5,0.25,49,96.95
625,C6,121.5,0.25,58,96.95
626,F#5,121.5,0.25,58,96.95
627,C5,122.0,0.25,55,96.95
628,A4,122.0,0.25,46,96.95
629,E-4,122.0,0.25,46,96.95
630,B5,122.438,0.062,55,96.95
631,A3,122.5,0.25,49,96.95
632,C6,122.5,0.25,59,96.95
633,F#5,122.5,0.25,59,96.95
634,E5,123.0,0.25,81,96.95
635,G#4,123.0,0.5,64,96.95
636,B4,123.0,0.5,64,96.95
637,E3,123.0,0.5,58,96.95
638,E4,123.0,0.5,58,96.95
639,B3,123.0,0.5,58,96.95
640,D5,123.25,0.25,71,96.95
641,C5,123.5,0.25,66,96.95
642,B4,123.75,0.25,59,96.95
643,A2,124.0,1.0,42,96.95
644,E3,124.062,0.938,47,96.95
645,A3,124.125,0.875,52,96.95
646,C4,124.188,0.812,62,96.95
647,E4,124.25,0.75,67,96.95
648,A4,124.312,0.688,69,96.95
649,C5,124.375,1.125,73,96.95
650,C5,125.5,0.5,62,96.95
651,C5,126.0,0.75,68,96.95
652,C4,126.0,1.0,60,96.95
653,F#4,126.0,1.0,60,96.95
654,D3,126.0,1.0,50,96.95
655,A3,126.0,1.0,50,96.95
656,B4,126.75,0.125,62,96.95
657,A4,126.875,0.125,62,96.95
658,D4,127.0,0.25,67,96.95
659,G4,127.0,0.25,67,96.95
660,G2,127.0,0.25,52,96.95
661,D3,127.0,0.25,52,96.95
662,B3,127.0,0.25,52,96.95
663,D4,127.5,0.25,65,96.95
664,G4,127.5,0.25,65,96.95
665,D5,127.5,0.25,65,96.95
666,B2,127.5,0.25,51,96.95
667,G3,127.5,0.25,51,96.95
668,B3,127.5,0.25,51,96.95
669,E4,128.0,0.25,70,96.95
670,G4,128.0,0.25,70,96.95
671,C5,128.0,0.25,70,96.95
672,E5,128.0,0.25,70,96.95
673,C3,128.0,0.25,55,96.95
674,G3,128.0,0.25,55,96.95
675,C4,128.0,0.25,55,96.95
676,G4,128.5,0.25,68,96.95
677,C5,128.5,0.25,68,96.95
678,G5,128.5,0.25,68,96.95
679,E3,128.5,0.25,53,96.95
680,C4,128.5,0.25,53,96.95
681,E4,128.5,0.25,53,96.95
682,G4,129.0,2.0,72,96.95
683,B4,129.0,2.0,72,96.95
684,D5,129.0,2.0,72,96.95
685,D4,129.0,2.0,57,96.95
686,B3,129.0,2.0,57,96.95
687,G3,129.0,2.0,57,96.95
688,B4,131.0,0.5,64,96.95
689,E5,131.0,0.25,81,96.95
690,B3,131.0,0.5,58,96.95
691,G3,131.0,0.5,58,96.95
692,E4,131.0,0.5,58,96.95
693,C#4,131.0,0.5,58,96.95
694,D5,131.25,0.25,71,96.95
695,C#5,131.5,0.25,66,96.95
696,B4,131.75,0.25,59,96.95
697,D4,132.0,0.25,46,96.95
698,F#4,132.0,0.25,46,96.95
699,B3,132.0,0.25,46,96.95
700,G5,132.438,0.062,55,96.95
701,F#3,132.5,0.25,49,96.95
702,D5,132.5,0.25,59,96.95
703,B4,132.5,0.25,59,96.95
704,F#5,132.5,0.25,59,96.95
705,D4,133.0,0.25,48,96.95
706,F#4,133.0,0.25,48,96.95
707,B3,133.0,0.25,48,96.95
708,G5,133.438,0.062,55,96.95
709,F#3,133.5,0.25,49,96.95
710,D5,133.5,0.25,58,96.95
711,F#5,133.5,0.25,58,96.95
712,B4,133.5,0.25,58,96.95
713,D4,134.0,0.25,46,96.95
714,F#4,134.0,0.25,46,96.95
715,B3,134.0,0.25,46,96.95
716,G5,134.438,0.062,55,96.95
717,F#3,134.5,0.25,49,96.95
718,D5,134.5,0.25,59,96.95
719,F#5,134.5,0.25,59,96.95
720,B4,134.5,0.25,59,96.95
721,B4,135.0,0.5,64,96.95
722,E5,135.0,0.25,81,96.95
723,B3,135.0,0.5,58,96.95
724,G3,135.0,0.5,58,96.95
725,E4,135.0,0.5,58,96.95
726,C#4,135.0,0.5,58,96.95
727,D5,135.25,0.25,71,96.95
728,C#5,135.5,0.25,66,96.95
729,B4,135.75,0.25,59,96.95
730,D4,136.0,0.25,46,96.95
731,F#4,136.0,0.25,46,96.95
732,B3,136.0,0.25,46,96.95
733,G5,136.438,0.062,55,96.95
734,F#3,136.5,0.25,49,96.95
735,D5,136.5,0.25,59,96.95
736,B4,136.5,0.25,59,96.95
737,F#5,136.5,0.25,59,96.95
738,D4,137.0,0.25,48,96.95
739,F#4,137.0,0.25,48,96.95
740,B3,137.0,0.25,48,96.95
741,G5,137.438,0.062,55,96.95
742,F#3,137.5,0.25,49,96.95
743,D5,137.5,0.25,58,96.95
744,F#5,137.5,0.25,58,96.95
745,B4,137.5,0.25,58,96.95
746,D4,138.0,0.25,46,96.95
747,F#4,138.0,0.25,46,96.95
748,B3,138.0,0.25,46,96.95
749,G5,138.438,0.062,55,96.95
750,F#3,138.5,0.25,49,96.95
751,D5,138.5,0.25,59,96.95
752,F#5,138.5,0.25,59,96.95
753,B4,138.5,0.25,59,96.95
754,B4,139.0,0.5,64,96.95
755,E5,139.0,0.25,81,96.95
756,B3,139.0,0.5,58,96.95
757,G3,139.0,0.5,58,96.95
758,E4,139.0,0.5,58,96.95
759,C#4,139.0,0.5,58,96.95
760,D5,139.25,0.25,71,96.95
761,C#5,139.5,0.25,66,96.95
762,B4,139.75,0.25,59,96.95
763,F#3,140.0,0.25,46,96.95
764,A3,140.0,0.25,46,96.95
765,D3,140.0,0.25,46,96.95
766,B4,140.438,0.062,55,96.95
767,A2,140.5,0.25,49,96.95
768,F#4,140.5,0.25,59,96.95
769,D4,140.5,0.25,59,96.95
770,A4,140.5,0.25,59,96.95
771,F#3,141.0,0.25,48,96.95
772,A3,141.0,0.25,48,96.95
773,D3,141.0,0.25,48,96.95
774,B4,141.438,0.062,55,96.95
775,A2,141.5,0.25,49,96.95
776,F#4,141.5,0.25,58,96.95
777,A4,141.5,0.25,58,96.95
778,D4,141.5,0.25,58,96.95
779,F#3,142.0,0.25,46,96.95
780,A3,142.0,0.25,46,96.95
781,E-3,142.0,0.25,46,96.95
782,B4,142.438,0.062,55,96.95
783,A2,142.5,0.25,49,96.95
784,F#4,142.5,0.25,59,96.95
785,A4,142.5,0.25,59,96.95
786,C4,142.5,0.25,59,96.95
787,C#4,143.0,0.5,64,96.95
788,A4,143.0,11/40,81,96.95
789,E3,143.0,0.5,58,96.95
790,A3,143.0,0.5,58,96.95
791,G3,143.0,0.5,58,96.95
792,G4,143.25,11/40,71,96.95
793,F#4,143.5,11/40,66,96.95
794,E4,143.75,0.25,59,96.95
795,D4,144.0,11/40,80,96.95
796,E4,144.0,1/40,59,96.95
797,C#4,144.25,11/40,68,96.95
798,B3,144.5,11/40,66,96.95
799,A3,144.75,11/40,70,96.95
800,G3,145.0,11/40,78,96.95
801,F#3,145.25,11/40,66,96.95
802,E3,145.5,11/40,66,96.95
803,D3,145.75,123/500,64,96.95
804,D3,146.0,11/40,73,96.95
805,C#3,146.25,11/40,64,96.95
806,B2,146.5,11/40,63,96.95
807,A2,146.75,11/40,61,96.95
808,G2,147.0,11/40,69,96.95
809,F#2,147.25,11/40,62,96.95
810,E2,147.5,11/40,60,96.95
811,D2,147.75,0.25,58,96.95
812,A2,148.0,1.0,42,96.95
813,E3,148.062,0.938,47,96.95
814,A3,148.125,0.875,52,96.95
815,C4,148.188,0.812,62,96.95
816,E4,148.25,0.75,67,96.95
817,A4,148.312,0.688,69,96.95
818,C5,148.375,1.125,73,96.95
819,C5,149.5,0.5,62,96.95
820,C5,150.0,0.75,68,96.95
821,C4,150.0,1.0,60,96.95
822,F#4,150.0,1.0,60,96.95
823,D3,150.0,1.0,50,96.95
824,A3,150.0,1.0,50,96.95
825,B4,150.75,0.125,62,96.95
826,A4,150.875,0.125,62,96.95
827,D4,151.0,0.25,67,96.95
828,G4,151.0,0.25,67,96.95
829,G2,151.0,0.25,52,96.95
830,D3,151.0,0.25,52,96.95
831,B3,151.0,0.25,52,96.95
832,D4,151.5,0.25,65,96.95
833,G4,151.5,0.25,65,96.95
834,D5,151.5,0.25,65,96.95
835,B2,151.5,0.25,51,96.95
836,G3,151.5,0.25,51,96.95
837,B3,151.5,0.25,51,96.95
838,E4,152.0,0.25,70,96.95
839,G4,152.0,0.25,70,96.95
840,C5,152.0,0.25,70,96.95
841,E5,152.0,0.25,70,96.95
842,C3,152.0,0.25,55,96.95
843,G3,152.0,0.25,55,96.95
844,C4,152.0,0.25,55,96.95
845,G4,152.5,0.25,68,96.95
846,C5,152.5,0.25,68,96.95
847,G5,152.5,0.25,68,96.95
848,E3,152.5,0.25,53,96.95
849,C4,152.5,0.25,53,96.95
850,E4,152.5,0.25,53,96.95
851,G4,153.0,2.0,72,96.95
852,B4,153.0,2.0,72,96.95
853,D5,153.0,2.0,72,96.95
854,D4,153.0,2.0,57,96.95
855,B3,153.0,2.0,57,96.95
856,G3,153.0,2.0,57,96.95
857,E5,155.0,0.25,81,96.95
858,G#4,155.0,0.5,64,96.95
859,B4,155.0,0.5,64,96.95
860,E3,155.0,0.5,58,96.95
861,E4,155.0,0.5,58,96.95
862,B3,155.0,0.5,58,96.95
863,D5,155.25,0.25,71,96.95
864,C5,155.5,0.25,66,96.95
865,B4,155.75,0.25,59,96.95
866,C5,156.0,0.25,55,96.95
867,A4,156.0,0.25,46,96.95
868,E-4,156.0,0.25,46,96.95
869,B5,156.438,0.062,55,96.95
870,A3,156.5,0.25,49,96.95
871,F#5,156.5,0.25,59,96.95
872,C6,156.5,0.25,59,96.95
873,C5,157.0,0.25,57,96.95
874,A4,157.0,0.25,48,96.95
875,E-4,157.0,0.25,48,96.95
876,B5,157.438,0.062,55,96.95
877,A3,157.5,0.25,49,96.95
878,C6,157.5,0.25,58,96.95
879,F#5,157.5,0.25,58,96.95
880,C5,158.0,0.25,55,96.95
881,A4,158.0,0.25,46,96.95
882,E-4,158.0,0.25,46,96.95
883,B5,158.438,0.062,55,96.95
884,A3,158.5,0.25,49,96.95
885,C6,158.5,0.25,59,96.95
886,F#5,158.5,0.25,59,96.95
887,E5,159.0,0.25,81,96.95
888,G#4,159.0,0.5,64,96.95
889,B4,159.0,0.5,64,96.95
890,E3,159.0,0.5,58,96.95
891,E4,159.0,0.5,58,96.95
892,B3,159.0,0.5,58,96.95
893,D5,159.25,0.25,71,96.95
894,C5,159.5,0.25,66,96.95
895,B4,159.75,0.25,59,96.95
896,C5,160.0,0.25,55,96.95
897,A4,160.0,0.25,46,96.95
898,E-4,160.0,0.25,46,96.95
899,B5,160.438,0.062,55,96.95
900,A3,160.5,0.25,49,96.95
901,F#5,160.5,0.25,59,96.95
902,C6,160.5,0.25,59,96.95
903,C5,161.0,0.25,57,96.95
904,A4,161.0,0.25,48,96.95
905,E-4,161.0,0.25,48,96.95
906,B5,161.438,0.062,55,96.95
907,A3,161.5,0.25,49,96.95
908,C6,161.5,0.25,58,96.95
909,F#5,161.5,0.25,58,96.95
910,C5,162.0,0.25,55,96.95
911,A4,162.0,0.25,46,96.95
912,E-4,162.0,0.25,46,96.95
913,B5,162.438,0.062,55,96.95
914,A3,162.5,0.25,49,96.95
915,C6,162.5,0.25,59,96.95
916,F#5,162.5,0.25,59,96.95
917,E5,163.0,0.25,81,96.95
918,G#4,163.0,0.5,64,96.95
919,B4,163.0,0.5,64,96.95
920,E3,163.0,0.5,58,96.95
921,E4,163.0,0.5,58,96.95
922,B3,163.0,0.5,58,96.95
923,D5,163.25,0.25,71,96.95
924,C5,163.5,0.25,66,96.95
925,B4,163.75,0.25,59,96.95
926,A2,164.0,1.0,42,96.95
927,E3,164.062,0.938,47,96.95
928,A3,164.125,0.875,52,96.95
929,C4,164.188,0.812,62,96.95
930,E4,164.25,0.75,67,96.95
931,A4,164.312,0.688,69,96.95
932,C5,164.375,1.125,73,96.95
933,C5,165.5,0.5,62,96.95
934,C5,166.0,0.75,68,96.95
935,C4,166.0,1.0,60,96.95
936,F#4,166.0,1.0,60,96.95
937,D3,166.0,1.0,50,96.95
938,A3,166.0,1.0,50,96.95
939,B4,166.75,0.125,62,96.95
940,A4,166.875,0.125,62,96.95
941,D4,167.0,0.25,67,96.95
942,G4,167.0,0.25,67,96.95
943,G2,167.0,0.25,52,96.95
944,D3,167.0,0.25,52,96.95
945,B3,167.0,0.25,52,96.95
946,D4,167.5,0.25,65,96.95
947,G4,167.5,0.25,65,96.95
948,D5,167.5,0.25,65,96.95
949,B2,167.5,0.25,51,96.95
950,G3,167.5,0.25,51,96.95
951,B3,167.5,0.25,51,96.95
952,E4,168.0,0.25,70,96.95
953,G4,168.0,0.25,70,96.95
954,C5,168.0,0.25,70,96.95
955,E5,168.0,0.25,70,96.95
956,C3,168.0,0.25,55,96.95
957,G3,168.0,0.25,55,96.95
958,C4,168.0,0.25,55,96.95
959,G4,168.5,0.25,68,96.95
960,C5,168.5,0.25,68,96.95
961,G5,168.5,0.25,68,96.95
962,E3,168.5,0.25,53,96.95
963,C4,168.5,0.25,53,96.95
964,E4,168.5,0.25,53,96.95
965,G4,169.0,2.0,72,96.95
966,B4,169.0,2.0,72,96.95
967,D5,169.0,2.0,72,96.95
968,D4,169.0,2.0,57,96.95
969,B3,169.0,2.0,57,96.95
970,G3,169.0,2.0,57,96.95
971,B4,171.0,0.5,64,96.95
972,E5,171.0,0.25,81,96.95
973,B3,171.0,0.5,58,96.95
974,G3,171.0,0.5,58,96.95
975,E4,171.0,0.5,58,96.95
976,C#4,171.0,0.5,58,96.95
977,D5,171.25,0.25,71,96.95
978,C#5,171.5,0.25,66,96.95
979,B4,171.75,0.25,59,96.95
980,D4,172.0,0.25,46,96.95
981,F#4,172.0,0.25,46,96.95
982,B3,172.0,0.25,46,96.95
983,G5,172.438,0.062,55,96.95
984,F#3,172.5,0.25,49,96.95
985,D5,172.5,0.25,59,96.95
986,B4,172.5,0.25,59,96.95
987,F#5,172.5,0.25,59,96.95
988,D4,173.0,0.25,48,96.95
989,F#4,173.0,0.25,48,96.95
990,B3,173.0,0.25,48,96.95
991,G5,173.438,0.062,55,96.95
992,F#3,173.5,0.25,49,96.95
993,D5,173.5,0.25,58,96.95
994,F#5,173.5,0.25,58,96.95
995,B4,173.5,0.25,58,96.95
996,D4,174.0,0.25,46,96.95
997,F#4,174.0,0.25,46,96.95
998,B3,174.0,0.25,46,96.95
999,G5,174.438,0.062,55,96.95
1000,F#3,174.5,0.25,49,96.95
1001,D5,174.5,0.25,59,96.95
1002,F#5,174.5,0.25,59,96.95
1003,B4,174.5,0.25,59,96.95
1004,B4,175.0,0.5,64,96.95
1005,E5,175.0,0.25,81,96.95
1006,B3,175.0,0.5,58,96.95
1007,G3,175.0,0.5,58,96.95
1008,E4,175.0,0.5,58,96.95
1009,C#4,175.0,0.5,58,96.95
1010,D5,175.25,0.25,71,96.95
1011,C#5,175.5,0.25,66,96.95
1012,B4,175.75,0.25,59,96.95
1013,D4,176.0,0.25,46,96.95
1014,F#4,176.0,0.25,46,96.95
1015,B3,176.0,0.25,46,96.95
1016,G5,176.438,0.062,55,96.95
1017,F#3,176.5,0.25,49,96.95
1018,D5,176.5,0.25,59,96.95
1019,B4,176.5,0.25,59,96.95
1020,F#5,176.5,0.25,59,96.95
1021,D4,177.0,0.25,48,96.95
1022,F#4,177.0,0.25,48,96.95
1023,B3,177.0,0.25,48,96.95
1024,G5,177.438,0.062,55,96.95
1025,F#3,177.5,0.25,49,96.95
1026,D5,177.5,0.25,58,96.95
1027,F#5,177.5,0.25,58,96.95
1028,B4,177.5,0.25,58,96.95
1029,D4,178.0,0.25,46,96.95
1030,F#4,178.0,0.25,46,96.95
1031,B3,178.0,0.25,46,96.95
1032,G5,178.438,0.062,55,96.95
1033,F#3,178.5,0.25,49,96.95
1034,D5,178.5,0.25,59,96.95
1035,F#5,178.5,0.25,59,96.95
1036,B4,178.5,0.25,59,96.95
1037,B4,179.0,0.5,64,96.95
1038,E5,179.0,0.25,81,96.95
1039,B3,179.0,0.5,58,96.95
1040,G3,179.0,0.5,58,96.95
1041,E4,179.0,0.5,58,96.95
1042,C#4,179.0,0.5,58,96.95
1043,D5,179.25,0.25,71,96.95
1044,C#5,179.5,0.25,66,96.95
1045,B4,179.75,0.25,59,96.95
1046,E-4,180.0,0.25,46,96.95
1047,F#4,180.0,0.25,46,96.95
1048,B3,180.0,0.25,46,96.95
1049,G#5,180.438,0.062,55,96.95
1050,F#3,180.5,0.25,49,96.95
1051,E-5,180.5,0.25,59,96.95
1052,B4,180.5,0.25,59,96.95
1053,F#5,180.5,0.25,59,96.95
1054,E-4,181.0,0.25,48,96.95
1055,F#4,181.0,0.25,48,96.95
1056,B3,181.0,0.25,48,96.95
1057,G#5,181.438,0.062,55,96.95
1058,F#3,181.5,0.25,49,96.95
1059,E-5,181.5,0.25,58,96.95
1060,F#5,181.5,0.25,58,96.95
1061,B4,181.5,0.25,58,96.95
1062,E-4,182.0,0.25,46,96.95
1063,F#4,182.0,0.25,46,96.95
1064,B3,182.0,0.25,46,96.95
1065,G#5,182.438,0.062,55,96.95
1066,F#3,182.5,0.25,49,96.95
1067,E-5,182.5,0.25,59,96.95
1068,F#5,182.5,0.25,59,96.95
1069,B4,182.5,0.25,59,96.95
1070,B3,183.0,0.25,46,96.95
1071,E-4,183.0,0.25,46,96.95
1072,F#4,183.0,0.25,46,96.95
1073,G#5,183.438,0.062,55,96.95
1074,F#3,183.5,0.25,49,96.95
1075,B4,183.5,0.25,59,96.95
1076,E-5,183.5,0.25,59,96.95
1077,F#5,183.5,0.25,59,96.95
1078,A4,184.0,0.25,46,96.95
1079,B4,184.0,0.25,46,96.95
1080,F#4,184.0,0.25,46,96.95
1081,C#6,184.438,0.062,55,96.95
1082,B3,184.5,0.25,49,96.95
1083,E-5,184.5,0.25,59,96.95
1084,F#5,184.5,0.25,59,96.95
1085,B5,184.5,0.25,59,96.95
1086,A4,185.0,0.25,48,96.95
1087,B4,185.0,0.25,48,96.95
1088,F#4,185.0,0.25,48,96.95
1089,C#6,185.438,0.062,55,96.95
1090,B3,185.5,0.25,49,96.95
1091,E-5,185.5,0.25,58,96.95
1092,B5,185.5,0.25,58,96.95
1093,F#5,185.5,0.25,58,96.95
1094,A4,186.0,0.25,46,96.95
1095,B4,186.0,0.25,46,96.95
1096,F#4,186.0,0.25,46,96.95
1097,C#6,186.438,0.062,55,96.95
1098,B3,186.5,0.25,49,96.95
1099,E-5,186.5,0.25,59,96.95
1100,B5,186.5,0.25,59,96.95
1101,F#5,186.5,0.25,59,96.95
1102,F#4,187.0,0.25,46,96.95
1103,A4,187.0,0.25,46,96.95
1104,B4,187.0,0.25,46,96.95
1105,C#6,187.438,0.062,55,96.95
1106,B3,187.5,0.25,49,96.95
1107,B5,187.5,0.25,59,96.95
1108,E-5,187.5,0.25,59,96.95
1109,F#5,187.5,0.25,59,96.95
1110,B3,188.0,0.25,52,96.95
1111,F#4,188.0,0.25,52,96.95
1112,A4,188.0,0.25,52,96.95
1113,B4,188.0,0.25,52,96.95
1114,E5,188.25,0.125,59,96.95
1115,D5,188.5,0.125,62,96.95
1116,E-5,188.75,0.125,59,96.95
1117,B4,189.0,0.125,63,96.95
1118,E5,189.25,0.125,62,96.95
1119,D5,189.5,0.125,66,96.95
1120,E-5,189.75,0.125,62,96.95
1121,E-4,190.0,0.25,57,96.95
1122,A4,190.0,0.25,57,96.95
1123,B4,190.0,0.25,57,96.95
1124,G#5,190.25,0.125,66,96.95
1125,F5,190.5,0.125,70,96.95
1126,F#5,190.75,0.125,66,96.95
1127,B4,191.0,0.125,71,96.95
1128,G#5,191.25,0.125,67,96.95
1129,F5,191.5,0.125,73,96.95
1130,F#5,191.75,0.125,71,96.95
1131,F#4,192.0,0.25,59,96.95
1132,B4,192.0,0.25,59,96.95
1133,E-5,192.0,0.25,59,96.95
1134,B5,192.25,0.125,75,96.95
1135,G#5,192.5,0.125,80,96.95
1136,A5,192.75,0.125,77,96.95
1137,F#5,193.0,0.125,79,96.95
1138,B5,193.25,0.125,71,96.95
1139,G#5,193.5,0.125,77,96.95
1140,A5,193.75,0.125,71,96.95
1141,F#5,194.0,0.125,76,96.95
1142,B5,194.25,0.125,70,96.95
1143,G#5,194.5,0.125,75,96.95
1144,A5,194.75,0.125,69,96.95
1145,F#5,195.0,0.125,75,96.95
1146,B5,195.25,0.125,68,96.95
1147,G#5,195.5,0.125,73,96.95
1148,A5,195.75,0.125,67,96.95
1149,F#5,196.0,0.125,72,96.95
1150,B5,196.25,0.125,65,96.95
1151,G#5,196.5,0.125,69,96.95
1152,A5,196.75,0.125,64,96.95
1153,F#5,197.0,0.125,65,96.95
1154,B5,197.25,0.125,57,96.95
1155,G#5,197.5,0.125,60,96.95
1156,A5,197.75,0.125,55,96.95
1157,F#5,198.0,0.125,57,96.95
1158,B5,198.25,0.125,52,96.95
1159,G#5,198.5,0.125,54,96.95
1160,A5,198.75,0.125,49,96.95
1161,F#5,199.0,0.125,51,96.95
1162,B5,199.25,0.125,45,96.95
1163,G#5,199.5,0.125,48,96.95
1164,A5,199.75,0.125,43,96.95
1165,E5,200.0,0.125,44,96.95
1166,C#4,200.0,0.25,53,96.95
1167,B5,200.25,0.125,39,96.95
1168,G5,200.5,0.125,44,96.95
1169,B3,200.5,0.25,49,96.95
1170,G#5,200.75,0.125,39,96.95
1171,E5,201.0,0.125,44,96.95
1172,E4,201.0,2.0,50,96.95
1173,B5,201.25,0.125,40,96.95
1174,G5,201.5,0.125,44,96.95
1175,G#5,201.75,0.125,40,96.95
1176,E5,202.0,0.125,44,96.95
1177,E3,202.0,0.5,37,96.95
1178,B3,202.0,0.5,37,96.95
1179,B5,202.25,0.125,39,96.95
1180,G5,202.5,0.125,44,96.95
1181,G#5,202.75,0.125,39,96.95
1182,E5,203.0,0.125,46,96.95
1183,G#4,203.0,0.5,52,96.95
1184,B5,203.25,0.125,43,96.95
1185,G5,203.5,0.125,47,96.95
1186,B4,203.5,0.5,50,96.95
1187,G#5,203.75,0.125,43,96.95
1188,E5,204.0,0.125,50,96.95
1189,C#5,204.0,0.5,55,96.95
1190,B5,204.25,0.125,45,96.95
1191,G#5,204.5,0.125,47,96.95
1192,B4,204.5,0.25,49,96.95
1193,C#6,204.75,0.125,45,96.95
1194,E5,205.0,0.125,44,96.95
1195,G#4,205.0,2.0,51,96.95
1196,B5,205.25,0.125,40,96.95
1197,G#5,205.5,0.125,44,96.95
1198,C#6,205.75,0.125,40,96.95
1199,E5,206.0,0.125,44,96.95
1200,E3,206.0,0.5,37,96.95
1201,B3,206.0,0.5,37,96.95
1202,B5,206.25,0.125,40,96.95
1203,G#5,206.5,0.125,44,96.95
1204,C#6,206.75,0.125,40,96.95
1205,E5,207.0,0.125,45,96.95
1206,E4,207.0,0.5,50,96.95
1207,B5,207.25,0.125,43,96.95
1208,G#5,207.5,0.125,46,96.95
1209,C#4,207.5,0.5,48,96.95
1210,C#6,207.75,0.125,43,96.95
1211,F#5,208.0,0.125,49,96.95
1212,G#4,208.0,0.5,50,96.95
1213,B5,208.25,0.125,40,96.95
1214,A5,208.5,0.125,45,96.95
1215,F#4,208.5,0.25,47,96.95
1216,E-6,208.75,0.125,40,96.95
1217,F#5,209.0,0.125,46,96.95
1218,C#4,209.0,2.0,49,96.95
1219,B5,209.25,0.125,44,96.95
1220,A5,209.5,0.125,45,96.95
1221,E-6,209.75,0.125,42,96.95
1222,F#5,210.0,0.125,47,96.95
1223,F#3,210.0,0.5,37,96.95
1224,E3,210.0,0.5,37,96.95
1225,A3,210.0,0.5,37,96.95
1226,B5,210.25,0.125,44,96.95
1227,A5,210.5,0.125,44,96.95
1228,E-6,210.75,0.125,43,96.95
1229,F#5,211.0,0.125,46,96.95
1230,C#4,211.0,0.5,48,96.95
1231,B5,211.25,0.125,43,96.95
1232,A5,211.5,0.125,45,96.95
1233,B3,211.5,0.5,41,96.95
1234,E-6,211.75,0.125,42,96.95
1235,A5,212.0,0.125,44,96.95
1236,F#4,212.0,0.5,47,96.95
1237,B5,212.25,0.125,40,96.95
1238,G#5,212.5,0.125,44,96.95
1239,E4,212.5,0.25,39,96.95
1240,E6,212.75,0.125,40,96.95
1241,G5,213.0,0.125,44,96.95
1242,B3,213.0,2.0,41,96.95
1243,B5,213.25,0.125,40,96.95
1244,G#5,213.5,0.125,44,96.95
1245,E6,213.75,0.125,40,96.95
1246,G5,214.0,0.125,44,96.95
1247,E3,214.0,0.5,37,96.95
1248,B5,214.25,0.125,40,96.95
1249,G#5,214.5,0.125,44,96.95
1250,E6,214.75,0.125,40,96.95
1251,G5,215.0,0.125,46,96.95
1252,B-3,215.0,0.5,48,96.95
1253,C#6,215.25,0.125,40,96.95
1254,G#5,215.5,0.125,46,96.95
1255,B3,215.5,0.5,47,96.95
1256,B5,215.75,0.125,43,96.95
1257,E5,216.0,0.125,49,96.95
1258,C#4,216.0,0.5,53,96.95
1259,B5,216.25,0.125,43,96.95
1260,G5,216.5,0.125,46,96.95
1261,B3,216.5,0.25,49,96.95
1262,G#5,216.75,0.125,44,96.95
1263,E5,217.0,0.125,44,96.95
1264,E4,217.0,2.0,50,96.95
1265,B5,217.25,0.125,40,96.95
1266,G5,217.5,0.125,44,96.95
1267,G#5,217.75,0.125,40,96.95
1268,E5,218.0,0.125,44,96.95
1269,E3,218.0,0.5,37,96.95
1270,B3,218.0,0.5,37,96.95
1271,B5,218.25,0.125,39,96.95
1272,G5,218.5,0.125,47,96.95
1273,G#5,218.75,0.125,43,96.95
1274,E5,219.0,0.125,49,96.95
1275,G#4,219.0,0.5,52,96.95
1276,B5,219.25,0.125,44,96.95
1277,G5,219.5,0.125,47,96.95
1278,B4,219.5,0.5,50,96.95
1279,G#5,219.75,0.125,44,96.95
1280,E5,220.0,0.125,50,96.95
1281,C#5,220.0,0.5,55,96.95
1282,B5,220.25,0.125,44,96.95
1283,G#5,220.5,0.125,49,96.95
1284,B4,220.5,0.25,49,96.95
1285,C#6,220.75,0.125,44,96.95
1286,E5,221.0,0.125,47,96.95
1287,G#4,221.0,2.0,51,96.95
1288,B5,221.25,0.125,43,96.95
1289,G#5,221.5,0.125,46,96.95
1290,C#6,221.75,0.125,44,96.95
1291,E5,222.0,0.125,44,96.95
1292,E3,222.0,0.5,37,96.95
1293,B3,222.0,0.5,37,96.95
1294,B5,222.25,0.125,40,96.95
1295,G#5,222.5,0.125,44,96.95
1296,C#6,222.75,0.125,40,96.95
1297,E5,223.0,0.125,45,96.95
1298,E4,223.0,0.5,50,96.95
1299,B5,223.25,0.125,42,96.95
1300,G#5,223.5,0.125,45,96.95
1301,C#4,223.5,0.5,48,96.95
1302,C#6,223.75,0.125,42,96.95
1303,G5,224.0,0.125,45,96.95
1304,E-3,224.0,0.5,48,96.95
1305,B3,224.0,0.5,48,96.95
1306,E-6,224.25,0.125,42,96.95
1307,G#5,224.5,0.125,47,96.95
1308,E-4,224.5,0.25,47,96.95
1309,B5,224.75,0.125,43,96.95
1310,G5,225.0,0.125,50,96.95
1311,B4,225.0,2.0,49,96.95
1312,E-6,225.25,0.125,44,96.95
1313,G#5,225.5,0.125,49,96.95
1314,B5,225.75,0.125,46,96.95
1315,G5,226.0,0.125,44,96.95
1316,E-4,226.0,0.5,37,96.95
1317,E-6,226.25,0.125,40,96.95
1318,G#5,226.5,0.125,44,96.95
1319,B5,226.75,0.125,40,96.95
1320,G5,227.0,0.125,47,96.95
1321,B-4,227.0,0.5,48,96.95
1322,E-6,227.25,0.125,44,96.95
1323,G#5,227.5,0.125,47,96.95
1324,G#4,227.5,0.5,41,96.95
1325,B5,227.75,0.125,45,96.95
1326,B-5,228.0,0.125,49,96.95
1327,E4,228.0,1.0,48,96.95
1328,G6,228.25,0.125,44,96.95
1329,C6,228.5,0.125,47,96.95
1330,C#6,228.75,0.125,44,96.95
1331,B-5,229.0,0.125,50,96.95
1332,E-3,229.0,0.5,42,96.95
1333,E-4,229.0,0.5,42,96.95
1334,G6,229.25,0.125,44,96.95
1335,D6,229.5,0.125,47,96.95
1336,C#4,229.5,0.5,41,96.95
1337,E-6,229.75,0.125,43,96.95
1338,G#5,230.0,0.125,50,96.95
1339,G#3,230.0,2.0,34,96.95
1340,C#4,230.0,0.5,46,96.95
1341,G#6,230.25,0.125,45,96.95
1342,E-6,230.5,0.125,46,96.95
1343,B3,230.5,0.5,39,96.95
1344,G#5,230.75,0.125,43,96.95
1345,G#5,231.0,0.125,45,96.95
1346,B-3,231.0,0.5,40,96.95
1347,E-5,231.25,0.125,42,96.95
1348,E-5,231.5,0.125,44,96.95
1349,B3,231.5,0.5,37,96.95
1350,G#4,231.75,0.125,36,96.95
1351,A4,232.0,0.5,61,96.95
1352,F#2,232.25,0.25,37,96.95
1353,F4,232.5,0.5,57,96.95
1354,C#3,232.5,0.25,35,96.95
1355,F#3,232.75,0.25,35,96.95
1356,F#4,233.0,0.5,61,96.95
1357,A3,233.0,0.25,37,96.95
1358,C#4,233.25,0.25,37,96.95
1359,F#4,233.5,0.25,37,96.95
1360,A4,233.75,0.25,40,96.95
1361,C#5,234.0,0.25,46,96.95
1362,F#4,234.25,0.25,42,96.95
1363,A4,234.5,0.25,49,96.95
1364,C#5,234.75,0.25,45,96.95
1365,F#5,235.0,0.5,62,96.95
1366,E5,235.5,0.5,60,96.95
1367,E5,236.0,0.5,62,96.95
1368,B2,236.25,0.25,37,96.95
1369,D5,236.5,0.5,60,96.95
1370,F#3,236.5,0.25,35,96.95
1371,A3,236.75,0.25,35,96.95
1372,E-5,237.0,2.0,62,96.95
1373,B3,237.0,0.25,37,96.95
1374,E-4,237.25,0.25,37,96.95
1375,F#4,237.5,0.25,37,96.95
1376,A4,237.75,123/500,40,96.95
1377,A4,238.0,0.25,44,96.95
1378,E-4,238.25,0.25,40,96.95
1379,F#4,238.5,0.25,47,96.95
1380,A4,238.75,0.25,45,96.95
1381,C#5,239.0,0.5,62,96.95
1382,B4,239.5,0.5,62,96.95
1383,A4,240.0,0.5,61,96.95
1384,F#2,240.25,0.25,35,96.95
1385,F4,240.5,0.5,57,96.95
1386,C#3,240.5,0.25,38,96.95
1387,F#3,240.75,0.25,41,96.95
1388,F#4,241.0,0.5,61,96.95
1389,A3,241.0,0.25,45,96.95
1390,C#4,241.25,0.25,42,96.95
1391,F#4,241.5,0.25,47,96.95
1392,A4,241.75,0.25,51,96.95
1393,C#5,242.0,0.25,55,96.95
1394,A4,242.25,0.25,52,96.95
1395,C#5,242.5,0.25,54,96.95
1396,F#5,242.75,0.25,56,96.95
1397,A5,243.0,0.25,63,96.95
1398,G#5,243.333,0.25,61,96.95
1399,F#5,243.667,0.25,60,96.95
1400,E5,244.0,0.5,63,96.95
1401,E-4,244.5,0.5,41,96.95
1402,A4,244.5,0.5,41,96.95
1403,E-5,244.5,0.5,41,96.95
1404,B2,244.5,0.5,30,96.95
1405,F#3,244.5,0.5,30,96.95
1406,B3,244.5,0.5,30,96.95
1407,C#5,245.0,0.5,63,96.95
1408,E4,245.5,0.5,41,96.95
1409,A4,245.5,0.5,41,96.95
1410,E-5,245.5,0.5,41,96.95
1411,C#3,245.5,0.5,26,96.95
1412,E3,245.5,0.5,26,96.95
1413,A3,245.5,0.5,26,96.95
1414,C#5,246.0,0.5,60,96.95
1415,F4,246.5,0.5,42,96.95
1416,B4,246.5,0.5,42,96.95
1417,D3,246.5,0.5,28,96.95
1418,G#3,246.5,0.5,28,96.95
1419,B-4,247.0,0.5,56,96.95
1420,F#4,247.5,0.5,43,96.95
1421,B4,247.5,0.5,43,96.95
1422,E-3,247.5,0.5,30,96.95
1423,A3,247.5,0.5,30,96.95
1424,A4,248.0,0.5,61,96.95
1425,F#2,248.25,0.25,37,96.95
1426,F4,248.5,0.5,57,96.95
1427,C#3,248.5,0.25,35,96.95
1428,F#3,248.75,0.25,35,96.95
1429,F#4,249.0,0.5,61,96.95
1430,A3,249.0,0.25,37,96.95
1431,C#4,249.25,0.25,37,96.95
1432,F#4,249.5,0.25,37,96.95
1433,A4,249.75,0.25,40,96.95
1434,C#5,250.0,0.25,45,96.95
1435,F#4,250.25,0.25,41,96.95
1436,A4,250.5,0.25,45,96.95
1437,C#5,250.75,0.25,43,96.95
1438,F#5,251.0,0.5,62,96.95
1439,E5,251.5,0.5,60,96.95
1440,E5,252.0,0.5,62,96.95
1441,B2,252.25,0.25,37,96.95
1442,D5,252.5,0.5,60,96.95
1443,F#3,252.5,0.25,35,96.95
1444,A3,252.75,0.25,35,96.95
1445,E-5,253.0,2.0,62,96.95
1446,B3,253.0,0.25,37,96.95
1447,E-4,253.25,0.25,37,96.95
1448,F#4,253.5,0.25,37,96.95
1449,A4,253.75,0.25,37,96.95
1450,A4,254.0,0.25,46,96.95
1451,E-4,254.25,0.25,41,96.95
1452,F#4,254.5,0.25,48,96.95
1453,A4,254.75,0.25,46,96.95
1454,C#5,255.0,0.5,62,96.95
1455,B4,255.5,0.5,62,96.95
1456,A4,256.0,0.5,61,96.95
1457,F#2,256.25,0.25,35,96.95
1458,F4,256.5,0.5,57,96.95
1459,C#3,256.5,0.25,38,96.95
1460,F#3,256.75,0.25,41,96.95
1461,F#4,257.0,0.5,61,96.95
1462,A3,257.0,0.25,45,96.95
1463,C#4,257.25,0.25,42,96.95
1464,F#4,257.5,0.25,47,96.95
1465,A4,257.75,0.25,51,96.95
1466,C#5,258.0,0.25,48,96.95
1467,A4,258.25,0.25,50,96.95
1468,C#5,258.5,0.25,52,96.95
1469,F#5,258.75,0.25,54,96.95
1470,A5,259.0,333/1000,63,96.95
1471,G#5,259.333,333/1000,61,96.95
1472,F#5,259.667,333/1000,60,96.95
1473,E5,260.0,0.5,63,96.95
1474,E-4,260.5,0.5,41,96.95
1475,A4,260.5,0.5,41,96.95
1476,E-5,260.5,0.5,41,96.95
1477,B2,260.5,0.5,31,96.95
1478,F#3,260.5,0.5,31,96.95
1479,B3,260.5,0.5,31,96.95
1480,G#5,261.0,333/1000,61,96.95
1481,F#5,261.333,333/1000,58,96.95
1482,E5,261.667,333/1000,57,96.95
1483,E-5,262.0,0.5,60,96.95
1484,E4,262.5,0.5,37,96.95
1485,A4,262.5,0.5,37,96.95
1486,C#5,262.5,0.5,37,96.95
1487,C#3,262.5,0.5,23,96.95
1488,E3,262.5,0.5,23,96.95
1489,A3,262.5,0.5,23,96.95
1490,C#4,262.5,0.5,23,96.95
1491,F#5,263.0,333/1000,60,96.95
1492,E5,263.333,333/1000,57,96.95
1493,E-5,263.667,333/1000,57,96.95
1494,C#5,264.0,0.5,67,96.95
1495,C#4,264.0,0.5,56,96.95
1496,F#4,264.5,0.5,44,96.95
1497,A4,264.5,0.5,44,96.95
1498,B4,264.5,0.5,44,96.95
1499,E-3,264.5,0.5,35,96.95
1500,F#3,264.5,0.5,35,96.95
1501,B3,264.5,0.5,35,96.95
1502,C#5,265.0,0.5,71,96.95
1503,C#4,265.0,0.5,58,96.95
1504,E4,265.5,0.5,46,96.95
1505,G#4,265.5,0.5,46,96.95
1506,B4,265.5,0.5,46,96.95
1507,E3,265.5,0.5,37,96.95
1508,G#3,265.5,0.5,37,96.95
1509,B3,265.5,0.5,37,96.95
1510,C#5,266.0,0.5,74,96.95
1511,C#4,266.0,0.5,61,96.95
1512,D4,266.5,0.5,49,96.95
1513,G#4,266.5,0.5,49,96.95
1514,B4,266.5,0.5,49,96.95
1515,F3,266.5,0.5,40,96.95
1516,G#3,266.5,0.5,40,96.95
1517,B3,266.5,0.5,40,96.95
1518,C#5,267.0,0.5,75,96.95
1519,C#4,267.0,0.5,61,96.95
1520,E-4,267.5,0.5,56,96.95
1521,A4,267.5,0.5,56,96.95
1522,B4,267.5,0.5,56,96.95
1523,F#3,267.5,0.5,46,96.95
1524,B3,267.5,0.5,46,96.95
1525,A4,268.0,0.125,59,96.95
1526,C#5,268.25,0.125,53,96.95
1527,B-4,268.5,0.125,59,96.95
1528,E-3,268.5,0.25,45,96.95
1529,B4,268.75,0.125,55,96.95
1530,A4,269.0,0.125,59,96.95
1531,F#4,269.0,0.25,45,96.95
1532,A3,269.0,0.25,45,96.95
1533,B3,269.0,0.25,45,96.95
1534,C#5,269.25,0.125,55,96.95
1535,B-4,269.5,0.125,59,96.95
1536,B4,269.75,0.125,53,96.95
1537,A4,270.0,0.125,59,96.95
1538,E5,270.25,0.125,55,96.95
1539,D5,270.5,0.125,59,96.95
1540,B2,270.5,0.25,45,96.95
1541,E-5,270.75,0.125,53,96.95
1542,A4,271.0,0.125,60,96.95
1543,F#4,271.0,0.25,45,96.95
1544,A3,271.0,0.25,45,96.95
1545,B3,271.0,0.25,45,96.95
1546,E5,271.25,0.125,56,96.95
1547,D5,271.5,0.125,59,96.95
1548,E-5,271.75,0.125,53,96.95
1549,E-5,272.0,0.125,53,96.95
1550,G#5,272.25,0.125,47,96.95
1551,F5,272.5,0.125,51,96.95
1552,F#5,272.75,0.125,47,96.95
1553,E-5,273.0,0.125,50,96.95
1554,G#5,273.25,0.125,46,96.95
1555,F5,273.5,0.125,49,96.95
1556,F#5,273.75,0.125,43,96.95
1557,F#5,274.0,0.125,48,96.95
1558,B5,274.25,0.125,44,96.95
1559,G#5,274.5,0.125,47,96.95
1560,A5,274.75,0.125,41,96.95
1561,F#5,275.0,0.125,46,96.95
1562,B5,275.25,0.125,43,96.95
1563,G#5,275.5,0.125,44,96.95
1564,A5,275.75,0.125,42,96.95
1565,E5,276.0,0.125,44,96.95
1566,C#4,276.0,0.25,53,96.95
1567,B5,276.25,0.125,39,96.95
1568,G5,276.5,0.125,44,96.95
1569,B3,276.5,0.25,49,96.95
1570,G#5,276.75,0.125,39,96.95
1571,E5,277.0,0.125,44,96.95
1572,E4,277.0,2.0,50,96.95
1573,B5,277.25,0.125,40,96.95
1574,G5,277.5,0.125,44,96.95
1575,G#5,277.75,0.125,40,96.95
1576,E5,278.0,0.125,44,96.95
1577,E3,278.0,0.5,37,96.95
1578,B3,278.0,0.5,37,96.95
1579,B5,278.25,0.125,39,96.95
1580,G5,278.5,0.125,44,96.95
1581,G#5,278.75,0.125,39,96.95
1582,E5,279.0,0.125,46,96.95
1583,G#4,279.0,0.5,52,96.95
1584,B5,279.25,0.125,43,96.95
1585,G5,279.5,0.125,47,96.95
1586,B4,279.5,0.5,50,96.95
1587,G#5,279.75,0.125,43,96.95
1588,E5,280.0,0.125,50,96.95
1589,C#5,280.0,0.5,55,96.95
1590,B5,280.25,0.125,45,96.95
1591,G#5,280.5,0.125,47,96.95
1592,B4,280.5,0.25,49,96.95
1593,C#6,280.75,0.125,45,96.95
1594,E5,281.0,0.125,44,96.95
1595,G#4,281.0,2.0,51,96.95
1596,B5,281.25,0.125,40,96.95
1597,G#5,281.5,0.125,44,96.95
1598,C#6,281.75,0.125,40,96.95
1599,E5,282.0,0.125,44,96.95
1600,E3,282.0,0.5,37,96.95
1601,B3,282.0,0.5,37,96.95
1602,B5,282.25,0.125,40,96.95
1603,G#5,282.5,0.125,44,96.95
1604,C#6,282.75,0.125,40,96.95
1605,E5,283.0,0.125,45,96.95
1606,E4,283.0,0.5,50,96.95
1607,B5,283.25,0.125,43,96.95
1608,G#5,283.5,0.125,46,96.95
1609,C#4,283.5,0.5,48,96.95
1610,C#6,283.75,0.125,43,96.95
1611,F#5,284.0,0.125,49,96.95
1612,G#4,284.0,0.5,50,96.95
1613,B5,284.25,0.125,40,96.95
1614,A5,284.5,0.125,45,96.95
1615,F#4,284.5,0.25,47,96.95
1616,E-6,284.75,0.125,40,96.95
1617,F#5,285.0,0.125,46,96.95
1618,C#4,285.0,2.0,49,96.95
1619,B5,285.25,0.125,44,96.95
1620,A5,285.5,0.125,45,96.95
1621,E-6,285.75,0.125,42,96.95
1622,F#5,286.0,0.125,47,96.95
1623,F#3,286.0,0.5,37,96.95
1624,E3,286.0,0.5,37,96.95
1625,A3,286.0,0.5,37,96.95
1626,B5,286.25,0.125,44,96.95
1627,A5,286.5,0.125,44,96.95
1628,E-6,286.75,0.125,43,96.95
1629,F#5,287.0,0.125,46,96.95
1630,C#4,287.0,0.5,48,96.95
1631,B5,287.25,0.125,43,96.95
1632,A5,287.5,0.125,45,96.95
1633,B3,287.5,0.5,41,96.95
1634,E-6,287.75,0.125,42,96.95
1635,A5,288.0,0.125,44,96.95
1636,F#4,288.0,0.5,47,96.95
1637,B5,288.25,0.125,40,96.95
1638,G#5,288.5,0.125,44,96.95
1639,E4,288.5,0.25,39,96.95
1640,E6,288.75,0.125,40,96.95
1641,G5,289.0,0.125,44,96.95
1642,B3,289.0,2.0,41,96.95
1643,B5,289.25,0.125,40,96.95
1644,G#5,289.5,0.125,44,96.95
1645,E6,289.75,0.125,40,96.95
1646,G5,290.0,0.125,44,96.95
1647,E3,290.0,0.5,37,96.95
1648,B5,290.25,0.125,40,96.95
1649,G#5,290.5,0.125,44,96.95
1650,E6,290.75,0.125,40,96.95
1651,G5,291.0,0.125,46,96.95
1652,B-3,291.0,0.5,48,96.95
1653,C#6,291.25,0.125,40,96.95
1654,G#5,291.5,0.125,46,96.95
1655,B3,291.5,0.5,47,96.95
1656,B5,291.75,0.125,43,96.95
1657,E5,292.0,0.125,49,96.95
1658,C#4,292.0,0.5,53,96.95
1659,B5,292.25,0.125,43,96.95
1660,G5,292.5,0.125,46,96.95
1661,B3,292.5,0.25,49,96.95
1662,G#5,292.75,0.125,44,96.95
1663,E5,293.0,0.125,44,96.95
1664,E4,293.0,2.0,50,96.95
1665,B5,293.25,0.125,40,96.95
1666,G5,293.5,0.125,44,96.95
1667,G#5,293.75,0.125,40,96.95
1668,E5,294.0,0.125,44,96.95
1669,E3,294.0,0.5,37,96.95
1670,B3,294.0,0.5,37,96.95
1671,B5,294.25,0.125,39,96.95
1672,G5,294.5,0.125,47,96.95
1673,G#5,294.75,0.125,43,96.95
1674,E5,295.0,0.125,49,96.95
1675,G#4,295.0,0.5,52,96.95
1676,B5,295.25,0.125,44,96.95
1677,G5,295.5,0.125,47,96.95
1678,B4,295.5,0.5,50,96.95
1679,G#5,295.75,0.125,44,96.95
1680,E5,296.0,0.125,50,96.95
1681,C#5,296.0,0.5,55,96.95
1682,B5,296.25,0.125,44,96.95
1683,G#5,296.5,0.125,49,96.95
1684,B4,296.5,0.25,49,96.95
1685,C#6,296.75,0.125,44,96.95
1686,E5,297.0,0.125,47,96.95
1687,G#4,297.0,2.0,51,96.95
1688,B5,297.25,0.125,43,96.95
1689,G#5,297.5,0.125,46,96.95
1690,C#6,297.75,0.125,44,96.95
1691,E5,298.0,0.125,44,96.95
1692,E3,298.0,0.5,37,96.95
1693,B3,298.0,0.5,37,96.95
1694,B5,298.25,0.125,40,96.95
1695,G#5,298.5,0.125,44,96.95
1696,C#6,298.75,0.125,40,96.95
1697,E5,299.0,0.125,45,96.95
1698,E4,299.0,0.5,50,96.95
1699,B5,299.25,0.125,42,96.95
1700,G#5,299.5,0.125,45,96.95
1701,C#4,299.5,0.5,48,96.95
1702,C#6,299.75,0.125,42,96.95
1703,F#5,300.0,0.125,45,96.95
1704,G#4,300.0,0.5,50,96.95
1705,B5,300.25,0.125,42,96.95
1706,A5,300.5,0.125,47,96.95
1707,F#4,300.5,0.25,47,96.95
1708,E-6,300.75,0.125,43,96.95
1709,F#5,301.0,0.125,47,96.95
1710,C#4,301.0,2.0,49,96.95
1711,B5,301.25,0.125,44,96.95
1712,A5,301.5,0.125,46,96.95
1713,E-6,301.75,0.125,42,96.95
1714,F#5,302.0,0.125,44,96.95
1715,E3,302.0,0.5,37,96.95
1716,F#3,302.0,0.5,37,96.95
1717,A3,302.0,0.5,37,96.95
1718,B5,302.25,0.125,40,96.95
1719,A5,302.5,0.125,44,96.95
1720,E-6,302.75,0.125,40,96.95
1721,F#5,303.0,0.125,47,96.95
1722,C#4,303.0,0.5,48,96.95
1723,B5,303.25,0.125,44,96.95
1724,A5,303.5,0.125,47,96.95
1725,B3,303.5,0.5,41,96.95
1726,E-6,303.75,0.125,45,96.95
1727,A5,304.0,0.125,49,96.95
1728,F#4,304.0,0.5,48,96.95
1729,B5,304.25,0.125,44,96.95
1730,G#5,304.5,0.125,47,96.95
1731,E4,304.5,0.25,41,96.95
1732,E6,304.75,0.125,44,96.95
1733,G5,305.0,0.125,50,96.95
1734,B3,305.0,2.0,48,96.95
1735,B5,305.25,0.125,44,96.95
1736,G#5,305.5,0.125,47,96.95
1737,E6,305.75,0.125,43,96.95
1738,G5,306.0,0.125,50,96.95
1739,E3,306.0,0.5,41,96.95
1740,B5,306.25,0.125,45,96.95
1741,G#5,306.5,0.125,46,96.95
1742,E6,306.75,0.125,43,96.95
1743,G5,307.0,0.125,45,96.95
1744,B-3,307.0,0.5,40,96.95
1745,C#6,307.25,0.125,42,96.95
1746,G#5,307.5,0.125,44,96.95
1747,B3,307.5,0.5,37,96.95
1748,B5,307.75,0.125,36,96.95
1749,E5,308.0,0.125,49,96.95
1750,C#4,308.0,0.5,42,96.95
1751,B5,308.25,0.125,44,96.95
1752,G5,308.5,0.125,47,96.95
1753,B3,308.5,0.25,39,96.95
1754,G#5,308.75,0.125,44,96.95
1755,B4,309.0,0.125,47,96.95
1756,G#3,309.0,2.0,42,96.95
1757,E5,309.25,0.125,44,96.95
1758,E-5,309.5,0.125,47,96.95
1759,E5,309.75,0.125,43,96.95
1760,B4,310.0,0.125,46,96.95
1761,E3,310.0,2.0,39,96.95
1762,E5,310.25,0.125,43,96.95
1763,E-5,310.5,0.125,45,96.95
1764,E5,310.75,0.125,43,96.95
1765,B4,311.0,0.125,45,96.95
1766,G3,311.0,0.5,40,96.95
1767,E5,311.25,0.125,42,96.95
1768,E-5,311.5,0.125,44,96.95
1769,G#3,311.5,0.5,37,96.95
1770,E5,311.75,0.125,36,96.95
1771,E4,312.0,0.125,43,96.95
1772,A3,312.0,0.5,42,96.95
1773,E3,312.0,0.5,39,96.95
1774,B4,312.25,0.125,39,96.95
1775,B-4,312.5,0.125,43,96.95
1776,G#3,312.5,0.5,39,96.95
1777,B4,312.75,0.125,37,96.95
1778,B3,313.0,0.125,43,96.95
1779,E3,313.0,1.0,40,96.95
1780,G#4,313.25,0.125,36,96.95
1781,G4,313.5,0.125,43,96.95
1782,G#4,313.75,0.125,36,96.95
1783,B3,314.0,0.125,43,96.95
1784,E2,314.0,2.0,39,96.95
1785,G#4,314.25,0.125,36,96.95
1786,G4,314.5,0.125,42,96.95
1787,G#4,314.75,0.125,36,96.95
1788,G#3,315.0,0.125,42,96.95
1789,B-2,315.0,0.5,40,96.95
1790,E4,315.25,0.125,36,96.95
1791,E-4,315.5,0.125,41,96.95
1792,B2,315.5,0.5,37,96.95
1793,E4,315.75,0.125,36,96.95
1794,G#3,316.0,0.125,37,96.95
1795,C#3,316.0,0.5,42,96.95
1796,E2,316.0,2.0,39,96.95
1797,E4,316.25,0.125,35,96.95
1798,E-4,316.5,0.125,37,96.95
1799,B2,316.5,0.25,39,96.95
1800,E4,316.75,0.125,34,96.95
1801,E3,317.0,0.125,37,96.95
1802,G#2,317.0,2.0,40,96.95
1803,B3,317.25,0.125,32,96.95
1804,B-3,317.5,0.125,37,96.95
1805,B3,317.75,0.125,32,96.95
1806,E3,318.0,0.125,37,96.95
1807,E2,318.0,2.0,39,96.95
1808,B3,318.25,0.125,33,96.95
1809,B-3,318.5,0.125,36,96.95
1810,B3,318.75,0.125,33,96.95
1811,E3,319.0,0.125,36,96.95
1812,G2,319.0,1.0,40,96.95
1813,B3,319.25,0.125,33,96.95
1814,B-3,319.5,0.125,36,96.95
1815,B3,319.75,0.125,33,96.95
1816,E3,320.0,0.125,37,96.95
1817,G#2,320.0,1.0,42,96.95
1818,E2,320.0,2.0,39,96.95
1819,B3,320.25,0.125,35,96.95
1820,B-3,320.5,0.125,37,96.95
1821,B3,320.75,0.125,34,96.95
1822,E3,321.0,0.125,37,96.95
1823,A2,321.0,1.0,40,96.95
1824,B3,321.25,0.125,32,96.95
1825,B-3,321.5,0.125,37,96.95
1826,B3,321.75,0.125,32,96.95
1827,E3,322.0,0.125,37,96.95
1828,G#2,322.0,1.0,42,96.95
1829,E2,322.0,2.0,39,96.95
1830,B3,322.25,0.125,33,96.95
1831,B-3,322.5,0.125,36,96.95
1832,B3,322.75,0.125,33,96.95
1833,E3,323.0,0.125,36,96.95
1834,G2,323.0,1.0,40,96.95
1835,B3,323.25,0.125,33,96.95
1836,B-3,323.5,0.125,36,96.95
1837,B3,323.75,0.125,33,96.95
1838,E3,324.0,0.125,37,96.95
1839,G#2,324.0,4.0,39,96.95
1840,E2,324.0,4.0,39,96.95
1841,B3,324.25,0.125,35,96.95
1842,B-3,324.5,0.125,37,96.95
1843,B3,324.75,0.125,33,96.95
1844,E3,325.0,0.125,36,96.95
1845,B3,325.25,0.125,30,96.95
1846,B-3,325.5,0.125,36,96.95
1847,B3,325.75,0.125,30,96.95
1848,E3,326.0,0.125,35,96.95
1849,B3,326.25,0.125,30,96.95
1850,B-3,326.5,0.125,31,96.95
1851,B3,326.75,0.125,25,96.95
1852,E3,327.0,0.125,27,96.95
1853,B3,327.25,0.125,23,96.95
1854,B-3,327.5,0.125,27,96.95
1855,B3,327.75,0.125,24,96.95
1856,E3,328.0,0.5,22,96.95
1857,G#2,328.0,4.0,39,96.95
1858,E2,328.0,4.0,39,96.95
