,note_name,start_time,duration,velocity,tempo
0,D4,0.0,1.75,71,125.71
1,D5,0.0,1.75,71,125.71
2,D5,1.75,0.25,69,125.71
3,D4,1.75,0.25,69,125.71
4,D4,2.0,1.75,71,125.71
5,D5,2.0,1.75,71,125.71
6,D5,3.75,0.25,67,125.71
7,D4,3.75,0.25,67,125.71
8,D4,4.0,1.75,74,125.71
9,D5,4.0,1.75,74,125.71
10,D4,5.75,0.25,70,125.71
11,D5,5.75,0.25,70,125.71
12,D5,6.0,1.75,74,125.71
13,D4,6.0,1.75,74,125.71
14,D4,7.75,0.25,71,125.71
15,D5,7.75,0.25,71,125.71
16,D4,8.0,1.0,74,125.71
17,D5,8.0,1.0,74,125.71
18,G3,8.0,1333/1000,64,125.71
19,B2,8.0,1333/1000,64,125.71
20,D5,9.0,2.0,74,125.71
21,D4,9.0,2.0,74,125.71
22,B2,9.333,0.25,60,125.71
23,G3,9.333,0.25,60,125.71
24,G3,9.667,0.25,60,125.71
25,B2,9.667,0.25,60,125.71
26,B2,10.0,1333/1000,66,125.71
27,G3,10.0,1333/1000,66,125.71
28,D4,11.0,1.0,74,125.71
29,D5,11.0,1.0,74,125.71
30,B2,11.333,0.25,60,125.71
31,G3,11.333,0.25,60,125.71
32,G3,11.667,0.25,58,125.71
33,B2,11.667,0.25,58,125.71
34,B2,12.0,1.5,64,125.71
35,G3,12.0,1.5,64,125.71
36,D4,13.0,1.0,74,125.71
37,D5,13.0,1.0,74,125.71
38,B3,13.5,0.25,58,125.71
39,G3,13.5,0.25,58,125.71
40,D4,14.0,1.5,74,125.71
41,D5,14.0,1.5,74,125.71
42,A3,14.0,0.25,64,125.71
43,C4,14.0,0.25,64,125.71
44,B3,14.5,0.25,58,125.71
45,G3,14.5,0.25,58,125.71
46,C4,15.0,0.25,64,125.71
47,A3,15.0,0.25,64,125.71
48,D5,15.5,1.0,71,125.71
49,D4,15.5,1.0,71,125.71
50,D3,15.5,0.25,64,125.71
51,A3,15.5,0.25,64,125.71
52,B3,16.0,1333/1000,64,125.71
53,D4,16.0,1333/1000,64,125.71
54,D5,16.5,0.25,72,125.71
55,D4,16.5,0.25,72,125.71
56,D4,17.333,0.25,60,125.71
57,B3,17.333,0.25,60,125.71
58,B3,17.667,0.25,60,125.71
59,D4,17.667,0.25,60,125.71
60,G5,18.0,2.0,83,125.71
61,G4,18.0,2.0,83,125.71
62,B3,18.0,1333/1000,66,125.71
63,D4,18.0,1333/1000,66,125.71
64,D4,19.333,0.25,60,125.71
65,B3,19.333,0.25,60,125.71
66,B3,19.667,0.25,58,125.71
67,D4,19.667,0.25,58,125.71
68,G4,20.0,1.0,74,125.71
69,G5,20.0,1.0,74,125.71
70,E4,20.0,0.25,64,125.71
71,C4,20.0,0.25,64,125.71
72,B3,20.5,0.25,58,125.71
73,D4,20.5,0.25,58,125.71
74,G4,21.0,0.5,74,125.71
75,G5,21.0,0.5,74,125.71
76,A3,21.0,0.25,62,125.71
77,C4,21.0,0.25,62,125.71
78,G4,21.5,1.0,74,125.71
79,G5,21.5,1.0,74,125.71
80,G3,21.5,0.25,56,125.71
81,B3,21.5,0.25,56,125.71
82,A3,22.0,0.25,75,125.71
83,D3,22.0,0.25,75,125.71
84,G5,22.5,0.25,72,125.71
85,G4,22.5,0.25,72,125.71
86,B3,22.5,0.25,70,125.71
87,G3,22.5,0.25,70,125.71
88,D6,23.0,0.25,90,125.71
89,D5,23.0,0.25,90,125.71
90,F#5,23.0,0.25,90,125.71
91,D3,23.0,0.5,75,125.71
92,A3,23.0,0.5,75,125.71
93,D6,23.5,0.25,82,125.71
94,D5,23.5,0.25,82,125.71
95,G5,23.5,0.25,82,125.71
96,D6,24.0,0.5,87,125.71
97,D5,24.0,0.5,87,125.71
98,F#5,24.0,0.5,87,125.71
99,B3,25.0,1333/1000,76,125.71
100,G4,25.0,1333/1000,76,125.71
101,E-3,25.0,2.0,68,125.71
102,E-4,25.0,2.0,68,125.71
103,B3,26.333,0.25,71,125.71
104,G4,26.333,0.25,71,125.71
105,G4,26.667,0.25,71,125.71
106,B3,26.667,0.25,71,125.71
107,G4,27.0,1333/1000,76,125.71
108,B3,27.0,1333/1000,76,125.71
109,D3,27.0,1.0,66,125.71
110,D4,27.0,1.0,66,125.71
111,G4,28.333,0.25,71,125.71
112,B3,28.333,0.25,71,125.71
113,B3,28.667,0.25,70,125.71
114,G4,28.667,0.25,70,125.71
115,B3,29.0,1.5,76,125.71
116,G4,29.0,1.5,76,125.71
117,E-4,29.0,2.0,68,125.71
118,E-3,29.0,2.0,68,125.71
119,G4,30.5,0.25,70,125.71
120,B4,30.5,0.25,70,125.71
121,A4,31.0,0.25,76,125.71
122,C5,31.0,0.25,76,125.71
123,D3,31.0,1.0,66,125.71
124,D4,31.0,1.0,66,125.71
125,G4,31.5,0.25,70,125.71
126,B4,31.5,0.25,70,125.71
127,A4,32.0,0.25,76,125.71
128,C5,32.0,0.25,76,125.71
129,D4,32.5,0.25,75,125.71
130,A4,32.5,0.25,75,125.71
131,D5,33.0,1333/1000,76,125.71
132,B4,33.0,1333/1000,76,125.71
133,G4,33.0,1.0,64,125.71
134,G3,33.0,1.0,64,125.71
135,F#4,34.0,1.0,68,125.71
136,F#3,34.0,1.0,68,125.71
137,D5,34.333,0.25,71,125.71
138,B4,34.333,0.25,71,125.71
139,B4,34.667,0.25,71,125.71
140,D5,34.667,0.25,71,125.71
141,B4,35.0,1333/1000,76,125.71
142,D5,35.0,1333/1000,76,125.71
143,F4,35.0,1.0,66,125.71
144,F3,35.0,1.0,66,125.71
145,E3,36.0,1.5,68,125.71
146,E4,36.0,1.5,68,125.71
147,D5,36.333,0.25,71,125.71
148,B4,36.333,0.25,71,125.71
149,B4,36.667,0.25,70,125.71
150,D5,36.667,0.25,70,125.71
151,C5,37.0,0.25,76,125.71
152,E5,37.0,0.25,76,125.71
153,B4,37.5,0.25,73,125.71
154,D5,37.5,0.25,73,125.71
155,D3,37.5,0.25,56,125.71
156,E3,37.5,0.25,56,125.71
157,D4,37.5,0.25,56,125.71
158,A4,38.0,0.25,73,125.71
159,C5,38.0,0.25,73,125.71
160,E3,38.0,0.25,61,125.71
161,C4,38.0,0.25,61,125.71
162,C3,38.0,0.25,61,125.71
163,G#4,38.5,0.25,72,125.71
164,E4,38.5,0.25,72,125.71
165,B4,38.5,0.25,72,125.71
166,E3,38.5,0.25,53,125.71
167,B3,38.5,0.25,53,125.71
168,B2,38.5,0.25,53,125.71
169,A4,39.0,0.25,78,125.71
170,E4,39.0,0.25,78,125.71
171,E3,39.0,0.25,56,125.71
172,A3,39.0,0.25,56,125.71
173,A2,39.0,0.25,56,125.71
174,E4,39.5,0.25,72,125.71
175,G#4,39.5,0.25,72,125.71
176,B4,39.5,0.25,72,125.71
177,G3,39.5,0.25,52,125.71
178,G2,39.5,0.25,52,125.71
179,E4,40.0,0.25,74,125.71
180,A4,40.0,0.25,74,125.71
181,C5,40.0,0.25,74,125.71
182,F#3,40.0,0.25,57,125.71
183,F#2,40.0,0.25,57,125.71
184,D5,41.0,0.25,68,125.71
185,F#5,41.0,0.25,68,125.71
186,E5,41.5,0.25,62,125.71
187,C#5,41.5,0.25,62,125.71
188,E3,41.5,0.25,54,125.71
189,E4,41.5,0.25,54,125.71
190,D5,42.0,0.25,67,125.71
191,B4,42.0,0.25,67,125.71
192,D3,42.0,0.25,57,125.71
193,D4,42.0,0.25,57,125.71
194,B-4,42.5,0.25,65,125.71
195,C#5,42.5,0.25,65,125.71
196,F#4,42.5,0.25,65,125.71
197,C#3,42.5,0.25,53,125.71
198,C#4,42.5,0.25,53,125.71
199,F#4,43.0,0.25,66,125.71
200,B4,43.0,0.25,66,125.71
201,B2,43.0,0.25,56,125.71
202,B3,43.0,0.25,56,125.71
203,F#4,43.5,0.25,62,125.71
204,B-4,43.5,0.25,62,125.71
205,C#5,43.5,0.25,62,125.71
206,A2,43.5,0.25,53,125.71
207,A3,43.5,0.25,53,125.71
208,F#4,44.0,0.25,65,125.71
209,B4,44.0,0.25,65,125.71
210,D5,44.0,0.25,65,125.71
211,G#3,44.0,0.25,57,125.71
212,G#2,44.0,0.25,57,125.71
213,E5,45.0,0.25,68,125.71
214,G#5,45.0,0.25,68,125.71
215,F#5,45.5,0.25,62,125.71
216,E-5,45.5,0.25,62,125.71
217,F#3,45.5,0.25,54,125.71
218,F#4,45.5,0.25,54,125.71
219,C#5,46.0,0.25,67,125.71
220,E5,46.0,0.25,67,125.71
221,G#3,46.0,0.25,56,125.71
222,E4,46.0,0.25,56,125.71
223,E3,46.0,0.25,56,125.71
224,G#4,46.5,0.25,65,125.71
225,C5,46.5,0.25,65,125.71
226,E-5,46.5,0.25,65,125.71
227,E-3,46.5,0.25,52,125.71
228,E-4,46.5,0.25,52,125.71
229,G#3,46.5,0.25,52,125.71
230,G#4,47.0,0.25,66,125.71
231,C#5,47.0,0.25,66,125.71
232,C#3,47.0,0.25,55,125.71
233,C#4,47.0,0.25,55,125.71
234,G#3,47.0,0.25,55,125.71
235,C5,47.5,0.25,62,125.71
236,G#4,47.5,0.25,62,125.71
237,E-5,47.5,0.25,62,125.71
238,B2,47.5,0.25,53,125.71
239,B3,47.5,0.25,53,125.71
240,C#5,48.0,0.25,65,125.71
241,E5,48.0,0.25,65,125.71
242,G#4,48.0,0.25,65,125.71
243,A2,48.0,1.0,57,125.71
244,A3,48.0,1.0,57,125.71
245,F#5,49.0,0.5,58,125.71
246,A5,49.0,0.5,58,125.71
247,B3,49.0,1.0,54,125.71
248,A3,49.0,1.0,54,125.71
249,B2,49.0,1.0,54,125.71
250,E5,49.5,0.5,52,125.71
251,G5,49.5,0.5,52,125.71
252,F#5,50.0,0.5,57,125.71
253,D5,50.0,0.5,57,125.71
254,A3,50.0,1.5,58,125.71
255,C4,50.0,1.5,58,125.71
256,C3,50.0,1.5,58,125.71
257,A4,50.5,0.5,53,125.71
258,E5,50.5,0.5,53,125.71
259,F#5,51.0,0.5,58,125.71
260,A5,51.0,0.5,58,125.71
261,G5,51.5,0.5,52,125.71
262,E5,51.5,0.5,52,125.71
263,C#3,51.5,0.5,55,125.71
264,C#4,51.5,0.5,55,125.71
265,A3,51.5,0.5,55,125.71
266,D5,52.0,0.5,57,125.71
267,F#5,52.0,0.5,57,125.71
268,A2,52.0,1.0,58,125.71
269,A3,52.0,1.0,58,125.71
270,A4,52.5,0.5,55,125.71
271,E5,52.5,0.5,55,125.71
272,A5,53.0,0.5,58,125.71
273,F#5,53.0,0.5,58,125.71
274,B3,53.0,1.0,56,125.71
275,A3,53.0,1.0,56,125.71
276,B2,53.0,1.0,56,125.71
277,E5,53.5,0.5,54,125.71
278,G5,53.5,0.5,54,125.71
279,D5,54.0,0.5,60,125.71
280,F#5,54.0,0.5,60,125.71
281,A3,54.0,1.5,60,125.71
282,C4,54.0,1.5,60,125.71
283,C3,54.0,1.5,60,125.71
284,E5,54.5,0.5,56,125.71
285,A4,54.5,0.5,56,125.71
286,F#5,55.0,0.5,60,125.71
287,A5,55.0,0.5,60,125.71
288,G5,55.5,0.5,56,125.71
289,E5,55.5,0.5,56,125.71
290,C#3,55.5,0.5,58,125.71
291,A3,55.5,0.5,58,125.71
292,C#4,55.5,0.5,58,125.71
293,D5,56.0,0.5,60,125.71
294,F#5,56.0,0.5,60,125.71
295,D3,56.0,1.0,66,125.71
296,D4,56.0,1.0,66,125.71
297,A4,56.5,0.5,58,125.71
298,E5,56.5,0.5,58,125.71
299,D6,57.0,0.5,66,125.71
300,B5,57.0,0.5,66,125.71
301,E4,57.0,1.0,61,125.71
302,D4,57.0,1.0,61,125.71
303,E3,57.0,1.0,61,125.71
304,A5,57.5,0.5,60,125.71
305,C6,57.5,0.5,60,125.71
306,G5,58.0,0.5,64,125.71
307,B5,58.0,0.5,64,125.71
308,D4,58.0,1.5,67,125.71
309,F3,58.0,1.5,67,125.71
310,F4,58.0,1.5,67,125.71
311,A5,58.5,0.5,60,125.71
312,D5,58.5,0.5,60,125.71
313,B5,59.0,0.5,67,125.71
314,D6,59.0,0.5,67,125.71
315,A5,59.5,0.5,60,125.71
316,C6,59.5,0.5,60,125.71
317,F#3,59.5,0.5,63,125.71
318,D4,59.5,0.5,63,125.71
319,F#4,59.5,0.5,63,125.71
320,B5,60.0,0.5,66,125.71
321,G5,60.0,0.5,66,125.71
322,D4,60.0,1.0,67,125.71
323,D3,60.0,1.0,67,125.71
324,A5,60.5,0.5,62,125.71
325,D5,60.5,0.5,62,125.71
326,D6,61.0,0.5,68,125.71
327,B5,61.0,0.5,68,125.71
328,E4,61.0,1.0,64,125.71
329,D4,61.0,1.0,64,125.71
330,E3,61.0,1.0,64,125.71
331,A5,61.5,0.5,62,125.71
332,C6,61.5,0.5,62,125.71
333,G5,62.0,0.5,67,125.71
334,B5,62.0,0.5,67,125.71
335,D4,62.0,1.5,70,125.71
336,F4,62.0,1.5,70,125.71
337,F3,62.0,1.5,70,125.71
338,A5,62.5,0.5,64,125.71
339,D5,62.5,0.5,64,125.71
340,B5,63.0,0.5,69,125.71
341,D6,63.0,0.5,69,125.71
342,A5,63.5,0.5,64,125.71
343,C6,63.5,0.5,64,125.71
344,F#3,63.5,0.5,66,125.71
345,D4,63.5,0.5,66,125.71
346,F#4,63.5,0.5,66,125.71
347,G3,64.0,1.0,79,125.71
348,B5,64.0,0.5,68,125.71
349,G5,64.0,0.5,68,125.71
350,D5,64.5,0.5,70,125.71
351,A5,64.5,0.5,70,125.71
352,G4,65.0,1333/1000,85,125.71
353,B4,65.0,1333/1000,85,125.71
354,G5,65.0,1333/1000,85,125.71
355,G3,65.0,2.0,74,125.71
356,F4,65.0,2.0,74,125.71
357,F3,65.0,2.0,74,125.71
358,G4,66.333,0.25,80,125.71
359,B4,66.333,0.25,80,125.71
360,G5,66.333,0.25,80,125.71
361,G4,66.667,0.25,80,125.71
362,G5,66.667,0.25,80,125.71
363,B4,66.667,0.25,80,125.71
364,G5,67.0,1333/1000,86,125.71
365,B4,67.0,1333/1000,86,125.71
366,G4,67.0,1333/1000,86,125.71
367,G3,67.0,1.0,72,125.71
368,E3,67.0,1.0,72,125.71
369,E4,67.0,1.0,72,125.71
370,G4,68.333,0.25,80,125.71
371,B4,68.333,0.25,80,125.71
372,G5,68.333,0.25,80,125.71
373,G4,68.667,0.25,79,125.71
374,B4,68.667,0.25,79,125.71
375,G5,68.667,0.25,79,125.71
376,G4,69.0,1.5,85,125.71
377,B4,69.0,1.5,85,125.71
378,G5,69.0,1.5,85,125.71
379,G3,69.0,1.0,72,125.71
380,E3,69.0,1.0,72,125.71
381,E4,69.0,1.0,72,125.71
382,E-3,70.0,2.0,74,125.71
383,E-4,70.0,2.0,74,125.71
384,G3,70.0,2.0,74,125.71
385,B4,70.5,0.25,79,125.71
386,B5,70.5,0.25,79,125.71
387,G5,70.5,0.25,79,125.71
388,C5,71.0,0.25,84,125.71
389,A5,71.0,0.25,84,125.71
390,C6,71.0,0.25,84,125.71
391,B4,71.5,0.25,82,125.71
392,G5,71.5,0.25,82,125.71
393,B5,71.5,0.25,82,125.71
394,C5,72.0,0.25,84,125.71
395,C6,72.0,0.25,84,125.71
396,A5,72.0,0.25,84,125.71
397,F#3,72.0,1.0,70,125.71
398,D4,72.0,1.0,70,125.71
399,D3,72.0,1.0,70,125.71
400,A4,72.5,0.25,78,125.71
401,A5,72.5,0.25,78,125.71
402,D5,72.5,0.25,78,125.71
403,D6,73.0,1333/1000,97,125.71
404,D5,73.0,1333/1000,97,125.71
405,B5,73.0,1333/1000,97,125.71
406,D3,73.0,1.0,70,125.71
407,D2,73.0,1.0,70,125.71
408,E3,74.0,1.0,71,125.71
409,E2,74.0,1.0,71,125.71
410,D3,74.0,1.0,71,125.71
411,B5,74.333,0.25,91,125.71
412,D5,74.333,0.25,91,125.71
413,D6,74.333,0.25,91,125.71
414,B5,74.667,0.25,91,125.71
415,D5,74.667,0.25,91,125.71
416,D6,74.667,0.25,91,125.71
417,B5,75.0,1333/1000,98,125.71
418,D5,75.0,1333/1000,98,125.71
419,D6,75.0,1333/1000,98,125.71
420,F#3,75.0,1.0,76,125.71
421,F#2,75.0,1.0,76,125.71
422,D3,75.0,1.0,76,125.71
423,D3,76.0,1.0,72,125.71
424,G2,76.0,1.0,72,125.71
425,G3,76.0,1.0,72,125.71
426,B5,76.333,0.25,91,125.71
427,D5,76.333,0.25,91,125.71
428,D6,76.333,0.25,91,125.71
429,B5,76.667,0.25,90,125.71
430,D5,76.667,0.25,90,125.71
431,D6,76.667,0.25,90,125.71
432,E6,77.0,0.25,90,125.71
433,E5,77.0,0.25,90,125.71
434,C6,77.0,0.25,90,125.71
435,B5,77.5,0.25,83,125.71
436,D5,77.5,0.25,83,125.71
437,D6,77.5,0.25,83,125.71
438,D3,77.5,0.25,67,125.71
439,G3,77.5,0.25,67,125.71
440,G2,77.5,0.25,67,125.71
441,A5,78.0,0.25,88,125.71
442,C6,78.0,0.25,88,125.71
443,C5,78.0,0.25,88,125.71
444,D3,78.0,0.25,69,125.71
445,A3,78.0,0.25,69,125.71
446,A2,78.0,0.25,69,125.71
447,G5,78.5,0.25,83,125.71
448,B4,78.5,0.25,83,125.71
449,D5,78.5,0.25,83,125.71
450,B5,78.5,0.25,83,125.71
451,B2,78.5,0.25,61,125.71
452,B3,78.5,0.25,61,125.71
453,D3,78.5,0.25,61,125.71
454,D5,79.0,0.25,89,125.71
455,A5,79.0,0.25,89,125.71
456,F#5,79.0,0.25,89,125.71
457,A4,79.0,0.25,89,125.71
458,A3,79.0,0.25,74,125.71
459,D3,79.0,0.25,74,125.71
460,D4,79.0,0.25,74,125.71
461,F#3,79.0,0.25,74,125.71
462,B4,79.5,0.25,84,125.71
463,B5,79.5,0.25,84,125.71
464,D5,79.5,0.25,84,125.71
465,G5,79.5,0.25,84,125.71
466,G3,79.5,0.25,70,125.71
467,D4,79.5,0.25,70,125.71
468,B3,79.5,0.25,70,125.71
469,F#5,80.0,0.25,86,125.71
470,A4,80.0,0.25,86,125.71
471,D5,80.0,0.25,86,125.71
472,A5,80.0,0.25,86,125.71
473,D3,80.0,0.25,72,125.71
474,A3,80.0,0.25,72,125.71
475,F#3,80.0,0.25,72,125.71
476,D4,80.0,0.25,72,125.71
477,G3,81.0,1.0,79,125.71
478,B4,81.0,1333/1000,85,125.71
479,G4,81.0,1333/1000,85,125.71
480,G5,81.0,1333/1000,85,125.71
481,F4,82.0,2.0,74,125.71
482,F3,82.0,2.0,74,125.71
483,G3,82.0,2.0,74,125.71
484,B4,82.333,333/1000,80,125.71
485,G4,82.333,333/1000,80,125.71
486,G5,82.333,333/1000,80,125.71
487,B4,82.667,333/1000,80,125.71
488,G5,82.667,333/1000,80,125.71
489,G4,82.667,333/1000,80,125.71
490,G5,83.0,1333/1000,86,125.71
491,G4,83.0,1333/1000,86,125.71
492,B4,83.0,1333/1000,86,125.71
493,E3,84.0,1.0,72,125.71
494,E4,84.0,1.0,72,125.71
495,G3,84.0,1.0,72,125.71
496,G5,84.333,333/1000,80,125.71
497,G4,84.333,333/1000,80,125.71
498,B4,84.333,333/1000,80,125.71
499,G5,84.667,333/1000,79,125.71
500,G4,84.667,333/1000,79,125.71
501,B4,84.667,333/1000,79,125.71
502,G5,85.0,1.5,85,125.71
503,G4,85.0,1.5,85,125.71
504,B4,85.0,1.5,85,125.71
505,E3,86.0,1.0,72,125.71
506,E4,86.0,1.0,72,125.71
507,G3,86.0,1.0,72,125.71
508,G5,86.5,0.5,79,125.71
509,B4,86.5,0.5,79,125.71
510,B5,86.5,0.5,79,125.71
511,C6,87.0,0.5,84,125.71
512,C5,87.0,0.5,84,125.71
513,A5,87.0,0.5,84,125.71
514,E-3,87.0,1.0,74,125.71
515,E-4,87.0,1.0,74,125.71
516,G3,87.0,1.0,74,125.71
517,B5,87.5,0.5,82,125.71
518,B4,87.5,0.5,82,125.71
519,G#5,87.5,0.5,82,125.71
520,A5,88.0,0.25,84,125.71
521,C6,88.0,0.25,84,125.71
522,C5,88.0,0.25,84,125.71
523,F#3,88.0,1.5,70,125.71
524,D4,88.0,1.5,70,125.71
525,D3,88.0,1.5,70,125.71
526,D5,88.5,0.25,78,125.71
527,A4,88.5,0.25,78,125.71
528,A5,88.5,0.25,78,125.71
529,G5,89.0,2.0,87,125.71
530,D5,89.0,1.5,89,125.71
531,D6,89.0,1.5,89,125.71
532,C3,89.5,0.25,63,125.71
533,F#3,89.5,0.25,63,125.71
534,C4,89.5,0.25,63,125.71
535,B2,90.0,0.5,68,125.71
536,G3,90.0,0.5,68,125.71
537,B3,90.0,0.5,68,125.71
538,D3,90.0,0.5,68,125.71
539,C6,90.5,0.5,78,125.71
540,C5,90.5,0.5,78,125.71
541,C3,90.5,0.5,64,125.71
542,C4,90.5,0.5,64,125.71
543,B5,91.0,0.5,84,125.71
544,B4,91.0,0.5,84,125.71
545,G5,91.0,0.5,84,125.71
546,B3,91.0,0.5,68,125.71
547,B2,91.0,0.5,68,125.71
548,C6,91.5,0.5,82,125.71
549,C5,91.5,0.5,82,125.71
550,A5,91.5,0.5,82,125.71
551,A2,91.5,0.5,64,125.71
552,A3,91.5,0.5,64,125.71
553,D3,92.0,2.0,71,125.71
554,B5,92.0,0.25,84,125.71
555,D5,92.0,0.25,84,125.71
556,D6,92.0,0.25,84,125.71
557,G2,92.0,1.5,67,125.71
558,G3,92.0,1.5,67,125.71
559,B5,92.5,0.25,78,125.71
560,B4,92.5,0.25,78,125.71
561,G5,92.5,0.25,78,125.71
562,G6,93.0,1.5,88,125.71
563,G5,93.0,1.5,88,125.71
564,C6,93.0,1.5,88,125.71
565,F3,93.5,0.25,64,125.71
566,F2,93.5,0.25,64,125.71
567,E2,94.0,0.25,68,125.71
568,E3,94.0,0.25,68,125.71
569,F#6,94.5,0.25,72,125.71
570,C6,94.5,0.25,72,125.71
571,F#5,94.5,0.25,72,125.71
572,F#3,94.5,0.25,64,125.71
573,F#2,94.5,0.25,64,125.71
574,E5,95.0,0.25,79,125.71
575,C6,95.0,0.25,79,125.71
576,E6,95.0,0.25,79,125.71
577,E2,95.0,0.25,68,125.71
578,E3,95.0,0.25,68,125.71
579,F#5,95.5,0.25,77,125.71
580,D6,95.5,0.25,77,125.71
581,F#6,95.5,0.25,77,125.71
582,D2,95.5,0.25,66,125.71
583,D3,95.5,0.25,66,125.71
584,E5,96.0,0.25,79,125.71
585,E6,96.0,0.25,79,125.71
586,C6,96.0,0.25,79,125.71
587,C3,96.0,1.5,70,125.71
588,C2,96.0,1.5,70,125.71
589,D5,96.5,0.25,73,125.71
590,B5,96.5,0.25,73,125.71
591,D6,96.5,0.25,73,125.71
592,C5,97.0,0.25,78,125.71
593,A5,97.0,0.25,78,125.71
594,C6,97.0,0.25,78,125.71
595,B5,97.5,0.25,71,125.71
596,D6,97.5,0.25,71,125.71
597,D5,97.5,0.25,71,125.71
598,D2,97.5,0.25,65,125.71
599,D3,97.5,0.25,65,125.71
600,C5,98.0,0.25,76,125.71
601,A5,98.0,0.25,76,125.71
602,C6,98.0,0.25,76,125.71
603,E-2,98.0,1.5,70,125.71
604,E-3,98.0,1.5,70,125.71
605,G5,98.5,0.25,69,125.71
606,B5,98.5,0.25,69,125.71
607,B4,98.5,0.25,69,125.71
608,F#5,99.0,0.25,74,125.71
609,A4,99.0,0.25,74,125.71
610,A5,99.0,0.25,74,125.71
611,G5,99.5,0.25,71,125.71
612,B4,99.5,0.25,71,125.71
613,B5,99.5,0.25,71,125.71
614,E2,99.5,0.25,64,125.71
615,E3,99.5,0.25,64,125.71
616,A5,100.0,0.25,74,125.71
617,A4,100.0,0.25,74,125.71
618,F#5,100.0,0.25,74,125.71
619,F#2,100.0,1.5,71,125.71
620,F#3,100.0,1.5,71,125.71
621,E5,100.5,0.25,70,125.71
622,G4,100.5,0.25,70,125.71
623,G5,100.5,0.25,70,125.71
624,D5,101.0,0.25,78,125.71
625,F#4,101.0,0.25,78,125.71
626,F#5,101.0,0.25,78,125.71
627,G5,101.5,0.25,71,125.71
628,E5,101.5,0.25,71,125.71
629,G4,101.5,0.25,71,125.71
630,G3,101.5,0.25,65,125.71
631,G2,101.5,0.25,65,125.71
632,D5,102.0,0.25,76,125.71
633,F#4,102.0,0.25,76,125.71
634,F#5,102.0,0.25,76,125.71
635,A2,102.0,1.5,70,125.71
636,A3,102.0,1.5,70,125.71
637,E4,102.5,0.25,69,125.71
638,C5,102.5,0.25,69,125.71
639,E5,102.5,0.25,69,125.71
640,B4,103.0,0.25,70,125.71
641,D5,103.0,0.25,70,125.71
642,D4,103.0,0.25,70,125.71
643,C5,103.5,0.25,67,125.71
644,E4,103.5,0.25,67,125.71
645,E5,103.5,0.25,67,125.71
646,B-2,103.5,0.25,64,125.71
647,B-3,103.5,0.25,64,125.71
648,B4,104.0,0.25,70,125.71
649,D4,104.0,0.25,70,125.71
650,D5,104.0,0.25,70,125.71
651,B2,104.0,1.5,67,125.71
652,B3,104.0,1.5,67,125.71
653,C5,104.5,0.25,66,125.71
654,E4,104.5,0.25,66,125.71
655,A4,104.5,0.25,66,125.71
656,G4,105.0,1333/1000,69,125.71
657,B4,105.0,1333/1000,69,125.71
658,C3,105.5,0.25,60,125.71
659,C4,105.5,0.25,60,125.71
660,D4,106.0,1.0,63,125.71
661,D3,106.0,1.0,63,125.71
662,B3,106.333,333/1000,63,125.71
663,G4,106.333,333/1000,63,125.71
664,B4,106.333,333/1000,63,125.71
665,B3,106.667,333/1000,63,125.71
666,G4,106.667,333/1000,63,125.71
667,B4,106.667,333/1000,63,125.71
668,B3,107.0,1333/1000,65,125.71
669,G4,107.0,1333/1000,65,125.71
670,B4,107.0,1333/1000,65,125.71
671,E-4,107.0,1.0,60,125.71
672,E-3,107.0,1.0,60,125.71
673,D3,108.0,1.0,63,125.71
674,D4,108.0,1.0,63,125.71
675,B3,108.333,333/1000,63,125.71
676,B4,108.333,333/1000,63,125.71
677,G4,108.333,333/1000,63,125.71
678,B4,108.667,333/1000,63,125.71
679,G4,108.667,333/1000,63,125.71
680,B3,108.667,333/1000,63,125.71
681,B3,109.0,1.0,64,125.71
682,G4,109.0,1.0,64,125.71
683,B4,109.0,1.0,64,125.71
684,E-3,109.0,1.0,58,125.71
685,E-4,109.0,1.0,58,125.71
686,D4,110.0,1.0,63,125.71
687,D3,110.0,1.0,63,125.71
688,D4,110.5,0.25,63,125.71
689,D5,110.5,0.25,63,125.71
690,G4,110.5,0.25,63,125.71
691,G4,111.0,0.25,66,125.71
692,E5,111.0,0.25,66,125.71
693,E4,111.0,0.25,66,125.71
694,C#5,111.0,0.25,66,125.71
695,B2,111.0,1.0,60,125.71
696,B3,111.0,1.0,60,125.71
697,D4,111.5,0.25,64,125.71
698,D5,111.5,0.25,64,125.71
699,E4,112.0,0.25,67,125.71
700,E5,112.0,0.25,67,125.71
701,C5,112.0,0.25,67,125.71
702,B-2,112.0,1.0,56,125.71
703,B-3,112.0,1.0,56,125.71
704,F#4,112.5,0.25,60,125.71
705,F#5,112.5,0.25,60,125.71
706,B4,113.0,0.5,64,125.71
707,G4,113.0,0.5,64,125.71
708,G5,113.0,0.5,64,125.71
709,A2,113.0,1.0,51,125.71
710,A3,113.0,1.0,51,125.71
711,G2,114.0,0.5,57,125.71
712,G3,114.0,0.5,57,125.71
713,G5,114.333,333/1000,69,125.71
714,B4,114.333,333/1000,69,125.71
715,B5,114.333,333/1000,69,125.71
716,G5,114.667,333/1000,69,125.71
717,B5,114.667,333/1000,69,125.71
718,B4,114.667,333/1000,69,125.71
719,B5,115.0,1333/1000,71,125.71
720,B4,115.0,1333/1000,71,125.71
721,G5,115.0,1333/1000,71,125.71
722,E-3,115.0,1.0,62,125.71
723,E-4,115.0,1.0,62,125.71
724,D4,116.0,1.0,66,125.71
725,D3,116.0,1.0,66,125.71
726,B5,116.333,333/1000,69,125.71
727,B4,116.333,333/1000,69,125.71
728,G5,116.333,333/1000,69,125.71
729,B5,116.667,333/1000,69,125.71
730,B4,116.667,333/1000,69,125.71
731,G5,116.667,333/1000,69,125.71
732,B5,117.0,1.0,70,125.71
733,B4,117.0,1.0,70,125.71
734,G5,117.0,1.0,70,125.71
735,E-3,117.0,1.0,60,125.71
736,E-4,117.0,1.0,60,125.71
737,D4,118.0,1.0,66,125.71
738,D3,118.0,1.0,66,125.71
739,G5,118.5,0.25,71,125.71
740,D5,118.5,0.25,71,125.71
741,D6,118.5,0.25,71,125.71
742,C#6,119.0,0.25,74,125.71
743,E6,119.0,0.25,74,125.71
744,E5,119.0,0.25,74,125.71
745,G5,119.0,0.25,74,125.71
746,B2,119.0,1.0,62,125.71
747,B3,119.0,1.0,62,125.71
748,D6,119.5,0.25,73,125.71
749,D5,119.5,0.25,73,125.71
750,C6,120.0,0.5,76,125.71
751,E5,120.0,0.5,76,125.71
752,E6,120.0,0.5,76,125.71
753,B-2,120.0,1.0,59,125.71
754,B-3,120.0,1.0,59,125.71
755,C6,120.5,0.5,69,125.71
756,F#6,120.5,0.5,69,125.71
757,D6,120.5,0.5,69,125.71
758,F#5,120.5,0.5,69,125.71
759,B5,121.0,0.5,73,125.71
760,G6,121.0,0.5,73,125.71
761,G5,121.0,0.5,73,125.71
762,D6,121.0,0.5,73,125.71
763,A2,121.0,1.0,53,125.71
764,A3,121.0,1.0,53,125.71
765,D6,122.0,0.25,72,125.71
766,D5,122.0,0.25,72,125.71
767,G2,122.0,0.5,60,125.71
768,G3,122.0,0.5,60,125.71
769,E5,122.333,0.25,72,125.71
770,E6,122.333,0.25,72,125.71
771,F#5,122.667,0.25,73,125.71
772,F#6,122.667,0.25,73,125.71
773,G6,123.0,0.25,74,125.71
774,G5,123.0,0.25,74,125.71
775,B2,123.0,1.0,54,125.71
776,F#3,123.0,1.0,54,125.71
777,D4,123.0,1.0,54,125.71
778,D3,123.0,1.0,54,125.71
779,D5,124.0,0.25,72,125.71
780,D6,124.0,0.25,72,125.71
781,G3,124.0,0.25,58,125.71
782,D4,124.0,0.25,58,125.71
783,B3,124.0,0.25,58,125.71
784,E5,124.333,0.25,72,125.71
785,E6,124.333,0.25,72,125.71
786,F#6,124.667,0.25,73,125.71
787,F#5,124.667,0.25,73,125.71
788,G6,125.0,0.25,74,125.71
789,G5,125.0,0.25,74,125.71
790,D3,125.0,1.0,54,125.71
791,F#3,125.0,1.0,54,125.71
792,D4,125.0,1.0,54,125.71
793,B2,125.0,1.0,54,125.71
794,D6,126.0,0.25,72,125.71
795,D5,126.0,0.25,72,125.71
796,B3,126.0,0.25,58,125.71
797,D4,126.0,0.25,58,125.71
798,G3,126.0,0.25,58,125.71
799,E5,126.333,0.25,72,125.71
800,E6,126.333,0.25,72,125.71
801,F#5,126.667,0.25,73,125.71
802,F#6,126.667,0.25,73,125.71
803,G6,127.0,0.5,74,125.71
804,G5,127.0,0.5,74,125.71
805,B2,127.0,1.0,54,125.71
806,F#3,127.0,1.0,54,125.71
807,D4,127.0,1.0,54,125.71
808,D3,127.0,1.0,54,125.71
809,G4,128.0,167/1000,55,125.71
810,G3,128.0,0.5,58,125.71
811,B3,128.0,0.5,58,125.71
812,D4,128.0,0.5,58,125.71
813,A4,128.333,167/1000,55,125.71
814,B-4,128.667,167/1000,51,125.71
815,B4,129.0,2.0,55,125.71
816,B3,129.0,0.5,37,125.71
817,D4,129.0,0.5,37,125.71
818,C5,131.0,1.0,55,125.71
819,B3,131.0,0.5,32,125.71
820,E-4,131.0,0.5,32,125.71
821,A3,131.0,0.5,32,125.71
822,G4,132.0,167/1000,55,125.71
823,A4,132.333,167/1000,55,125.71
824,B4,132.667,167/1000,51,125.71
825,C5,133.0,1.75,55,125.71
826,C4,133.0,0.5,32,125.71
827,E4,133.0,0.5,32,125.71
828,G3,133.0,0.5,32,125.71
829,E5,134.75,0.25,55,125.71
830,B4,135.0,1.0,55,125.71
831,E4,135.0,0.5,31,125.71
832,C4,135.0,0.5,31,125.71
833,F#3,135.0,0.5,31,125.71
834,A3,135.0,0.5,31,125.71
835,F#3,136.0,167/1000,55,125.71
836,G3,136.333,167/1000,55,125.71
837,A3,136.667,167/1000,51,125.71
838,B3,137.0,2.0,55,125.71
839,B3,137.0,0.5,37,125.71
840,E-4,137.0,0.5,37,125.71
841,F#4,138.0,0.5,37,125.71
842,E-4,138.0,0.5,37,125.71
843,C4,139.0,1.0,55,125.71
844,A2,139.0,0.5,29,125.71
845,A3,139.0,0.5,29,125.71
846,B2,139.0,0.5,29,125.71
847,G3,140.0,167/1000,55,125.71
848,G4,140.0,0.5,39,125.71
849,E4,140.0,0.5,39,125.71
850,A3,140.333,167/1000,55,125.71
851,B3,140.667,167/1000,51,125.71
852,C4,141.0,1.75,55,125.71
853,C3,141.0,0.5,28,125.71
854,G3,141.0,0.5,28,125.71
855,G2,141.0,0.5,28,125.71
856,C5,142.0,0.5,39,125.71
857,A4,142.0,0.5,39,125.71
858,E4,142.75,0.25,55,125.71
859,B3,143.0,1.0,55,125.71
860,F#3,143.0,0.5,30,125.71
861,C3,143.0,0.5,30,125.71
862,F#2,143.0,0.5,30,125.71
863,E-4,144.0,0.5,39,125.71
864,F#4,144.0,167/1000,55,125.71
865,G#4,144.333,167/1000,55,125.71
866,B-4,144.667,167/1000,51,125.71
867,B4,145.0,2.0,55,125.71
868,F#3,145.0,0.5,32,125.71
869,B3,145.0,0.5,32,125.71
870,B2,145.0,0.5,32,125.71
871,C5,147.0,1.0,55,125.71
872,A3,147.0,0.5,32,125.71
873,B3,147.0,0.5,32,125.71
874,E-4,147.0,0.5,32,125.71
875,G4,148.0,167/1000,55,125.71
876,A4,148.333,167/1000,55,125.71
877,B4,148.667,167/1000,51,125.71
878,C5,149.0,1.75,55,125.71
879,G3,149.0,0.5,32,125.71
880,E4,149.0,0.5,32,125.71
881,C4,149.0,0.5,32,125.71
882,E5,150.75,0.25,55,125.71
883,B4,151.0,1.0,55,125.71
884,C4,151.0,0.5,31,125.71
885,A3,151.0,0.5,31,125.71
886,F#3,151.0,0.5,31,125.71
887,E4,151.0,0.5,31,125.71
888,F#3,152.0,167/1000,55,125.71
889,G3,152.333,167/1000,55,125.71
890,A3,152.667,167/1000,51,125.71
891,B3,153.0,2.0,55,125.71
892,E-4,153.0,0.5,37,125.71
893,B3,153.0,0.5,37,125.71
894,E-4,154.0,0.5,39,125.71
895,F#4,154.0,0.5,39,125.71
896,C4,155.0,1.0,55,125.71
897,A2,155.0,0.5,29,125.71
898,B2,155.0,0.5,29,125.71
899,A3,155.0,0.5,29,125.71
900,G3,156.0,167/1000,55,125.71
901,E4,156.0,0.5,39,125.71
902,G4,156.0,0.5,39,125.71
903,A3,156.333,167/1000,55,125.71
904,B3,156.667,167/1000,51,125.71
905,C4,157.0,1.75,55,125.71
906,G2,157.0,0.5,28,125.71
907,G3,157.0,0.5,28,125.71
908,C3,157.0,0.5,28,125.71
909,A4,158.0,0.5,39,125.71
910,C5,158.0,0.5,39,125.71
911,E4,158.75,0.25,55,125.71
912,B3,159.0,1.0,55,125.71
913,F#3,159.0,0.5,30,125.71
914,F#2,159.0,0.5,30,125.71
915,C3,159.0,0.5,30,125.71
916,B4,160.0,0.5,42,125.71
917,E-4,160.0,167/1000,59,125.71
918,E4,160.333,167/1000,59,125.71
919,F4,160.667,167/1000,57,125.71
920,F#4,161.0,2.0,62,125.71
921,F#3,161.0,0.5,34,125.71
922,B3,161.0,0.5,34,125.71
923,B2,161.0,0.5,34,125.71
924,C#4,162.0,1.0,46,125.71
925,C4,163.0,0.5,66,125.71
926,G#4,163.0,0.5,66,125.71
927,A2,163.0,1.0,39,125.71
928,F#3,163.0,1.0,39,125.71
929,A3,163.0,1.0,39,125.71
930,G#5,164.0,1.0,64,125.71
931,G#4,164.0,1.0,64,125.71
932,G#2,164.0,0.5,46,125.71
933,G#3,164.0,0.5,46,125.71
934,G#2,165.0,167/1000,57,125.71
935,G4,165.0,1.0,64,125.71
936,G5,165.0,1.0,64,125.71
937,G2,165.333,167/1000,52,125.71
938,G#2,165.667,167/1000,52,125.71
939,B-2,166.0,167/1000,59,125.71
940,F#4,166.0,1.0,62,125.71
941,G#4,166.0,1.0,62,125.71
942,F#5,166.0,1.0,62,125.71
943,G#2,166.333,167/1000,53,125.71
944,B-2,166.667,167/1000,53,125.71
945,C3,167.0,167/1000,59,125.71
946,E4,167.0,0.5,58,125.71
947,G#4,167.0,0.5,58,125.71
948,E5,167.0,0.5,58,125.71
949,B-2,167.333,167/1000,55,125.71
950,C3,167.667,167/1000,55,125.71
951,E4,168.0,333/1000,61,125.71
952,C#3,168.0,0.5,60,125.71
953,F#4,168.333,333/1000,61,125.71
954,G4,168.667,333/1000,59,125.71
955,G#4,169.0,2.0,65,125.71
956,G#3,169.0,0.5,41,125.71
957,C#4,169.0,0.5,41,125.71
958,C#3,169.0,0.5,41,125.71
959,E-4,170.0,1.0,48,125.71
960,B-4,171.0,0.5,68,125.71
961,D4,171.0,0.5,68,125.71
962,G#3,171.0,1.0,46,125.71
963,B3,171.0,1.0,46,125.71
964,B2,171.0,1.0,46,125.71
965,B-5,172.0,1.0,66,125.71
966,B-4,172.0,1.0,66,125.71
967,B-2,172.0,0.5,48,125.71
968,B-3,172.0,0.5,48,125.71
969,B-2,173.0,167/1000,61,125.71
970,A5,173.0,1.0,66,125.71
971,A4,173.0,1.0,66,125.71
972,A2,173.333,167/1000,56,125.71
973,B-2,173.667,167/1000,56,125.71
974,C3,174.0,167/1000,64,125.71
975,B-4,174.0,1.0,61,125.71
976,G#4,174.0,1.0,61,125.71
977,G#5,174.0,1.0,61,125.71
978,B-2,174.333,167/1000,57,125.71
979,C3,174.667,167/1000,57,125.71
980,D3,175.0,167/1000,64,125.71
981,B-4,175.0,0.5,61,125.71
982,F#4,175.0,0.5,61,125.71
983,F#5,175.0,0.5,61,125.71
984,C#3,175.333,167/1000,59,125.71
985,D3,175.667,167/1000,59,125.71
986,B-4,176.0,167/1000,59,125.71
987,E-3,176.0,0.5,66,125.71
988,C5,176.333,167/1000,57,125.71
989,D5,176.667,167/1000,57,125.71
990,E-5,177.0,167/1000,60,125.71
991,B-3,177.0,0.5,38,125.71
992,G#3,177.0,0.5,38,125.71
993,G#4,177.0,0.5,38,125.71
994,D5,177.333,167/1000,57,125.71
995,E-5,177.667,167/1000,57,125.71
996,B-5,178.0,167/1000,60,125.71
997,B-3,178.0,0.5,41,125.71
998,F#3,178.0,0.5,41,125.71
999,F#4,178.0,0.5,41,125.71
1000,A5,178.333,167/1000,56,125.71
1001,B-5,178.667,167/1000,56,125.71
1002,F#5,179.0,167/1000,60,125.71
1003,D4,179.0,0.5,39,125.71
1004,B-3,179.0,0.5,39,125.71
1005,D3,179.0,0.5,39,125.71
1006,F5,179.333,167/1000,57,125.71
1007,F#5,179.667,167/1000,57,125.71
1008,D5,180.0,167/1000,61,125.71
1009,E-3,180.0,0.5,41,125.71
1010,E-4,180.0,0.5,41,125.71
1011,B-3,180.0,0.5,41,125.71
1012,C#5,180.333,167/1000,59,125.71
1013,D5,180.667,167/1000,59,125.71
1014,E-5,181.0,167/1000,60,125.71
1015,F3,181.0,0.5,37,125.71
1016,F4,181.0,0.5,37,125.71
1017,B-3,181.0,0.5,37,125.71
1018,D5,181.333,167/1000,58,125.71
1019,E-5,181.667,167/1000,58,125.71
1020,B-4,182.0,167/1000,59,125.71
1021,F#4,182.0,0.5,41,125.71
1022,F#3,182.0,0.5,41,125.71
1023,B-3,182.0,0.5,41,125.71
1024,A4,182.333,167/1000,57,125.71
1025,B-4,182.667,167/1000,57,125.71
1026,E-5,183.0,167/1000,60,125.71
1027,G#4,183.0,0.5,36,125.71
1028,G#3,183.0,0.5,36,125.71
1029,B-3,183.0,0.5,36,125.71
1030,D5,183.333,167/1000,57,125.71
1031,E-5,183.667,167/1000,58,125.71
1032,F#4,184.0,0.5,41,125.71
1033,B-3,184.0,0.5,41,125.71
1034,F#3,184.0,0.5,41,125.71
1035,B-3,185.0,333/1000,70,125.71
1036,B-5,185.333,333/1000,71,125.71
1037,B-3,185.333,333/1000,67,125.71
1038,A5,185.667,333/1000,66,125.71
1039,B-3,185.667,333/1000,66,125.71
1040,B-5,186.0,333/1000,71,125.71
1041,E-4,186.0,1.0,72,125.71
1042,F#3,186.0,1.0,72,125.71
1043,B-4,186.333,333/1000,65,125.71
1044,B-5,186.667,333/1000,67,125.71
1045,B-5,187.0,333/1000,71,125.71
1046,F4,187.0,1.0,68,125.71
1047,B-3,187.0,1.0,68,125.71
1048,B-4,187.333,333/1000,67,125.71
1049,B-5,187.667,333/1000,67,125.71
1050,F#4,188.0,1.0,71,125.71
1051,E-4,188.0,1.0,71,125.71
1052,B-3,189.0,333/1000,73,125.71
1053,B-5,189.333,333/1000,71,125.71
1054,B-3,189.333,333/1000,70,125.71
1055,A5,189.667,333/1000,66,125.71
1056,B-3,189.667,333/1000,70,125.71
1057,B-5,190.0,333/1000,71,125.71
1058,F#3,190.0,1.0,72,125.71
1059,E-4,190.0,1.0,72,125.71
1060,B-4,190.333,333/1000,65,125.71
1061,B-5,190.667,333/1000,67,125.71
1062,B-5,191.0,333/1000,71,125.71
1063,B-3,191.0,1.0,68,125.71
1064,F4,191.0,1.0,68,125.71
1065,B-4,191.333,333/1000,67,125.71
1066,B-5,191.667,333/1000,67,125.71
1067,B4,192.0,167/1000,59,125.71
1068,E-4,192.0,1.0,71,125.71
1069,F#4,192.0,1.0,71,125.71
1070,C#5,192.333,167/1000,57,125.71
1071,E-5,192.667,167/1000,57,125.71
1072,E5,193.0,167/1000,60,125.71
1073,A4,193.0,0.5,38,125.71
1074,B3,193.0,0.5,38,125.71
1075,A3,193.0,0.5,38,125.71
1076,E-5,193.333,167/1000,57,125.71
1077,E5,193.667,167/1000,57,125.71
1078,B5,194.0,167/1000,60,125.71
1079,G4,194.0,0.5,41,125.71
1080,B3,194.0,0.5,41,125.71
1081,G3,194.0,0.5,41,125.71
1082,B-5,194.333,167/1000,56,125.71
1083,B5,194.667,167/1000,56,125.71
1084,G5,195.0,167/1000,60,125.71
1085,E-4,195.0,0.5,39,125.71
1086,B3,195.0,0.5,39,125.71
1087,E-3,195.0,0.5,39,125.71
1088,F#5,195.333,167/1000,57,125.71
1089,G5,195.667,167/1000,57,125.71
1090,E-5,196.0,167/1000,61,125.71
1091,B3,196.0,0.5,41,125.71
1092,E4,196.0,0.5,41,125.71
1093,E3,196.0,0.5,41,125.71
1094,D5,196.333,167/1000,59,125.71
1095,E-5,196.667,167/1000,59,125.71
1096,E5,197.0,167/1000,60,125.71
1097,B3,197.0,0.5,37,125.71
1098,F#4,197.0,0.5,37,125.71
1099,F#3,197.0,0.5,37,125.71
1100,E-5,197.333,167/1000,58,125.71
1101,E5,197.667,167/1000,58,125.71
1102,B4,198.0,167/1000,59,125.71
1103,B3,198.0,0.5,41,125.71
1104,G3,198.0,0.5,41,125.71
1105,G4,198.0,0.5,41,125.71
1106,B-4,198.333,167/1000,57,125.71
1107,B4,198.667,167/1000,57,125.71
1108,E5,199.0,167/1000,60,125.71
1109,B3,199.0,0.5,36,125.71
1110,A3,199.0,0.5,36,125.71
1111,A4,199.0,0.5,36,125.71
1112,E-5,199.333,167/1000,57,125.71
1113,E5,199.667,167/1000,58,125.71
1114,G4,200.0,0.5,41,125.71
1115,G3,200.0,0.5,41,125.71
1116,B3,200.0,0.5,41,125.71
1117,B3,201.0,333/1000,70,125.71
1118,B5,201.333,333/1000,71,125.71
1119,B3,201.333,333/1000,67,125.71
1120,B-5,201.667,333/1000,66,125.71
1121,B3,201.667,333/1000,66,125.71
1122,B5,202.0,333/1000,71,125.71
1123,G3,202.0,1.0,72,125.71
1124,E4,202.0,1.0,72,125.71
1125,B4,202.333,333/1000,65,125.71
1126,B5,202.667,333/1000,67,125.71
1127,B5,203.0,333/1000,71,125.71
1128,B3,203.0,1.0,68,125.71
1129,F#4,203.0,1.0,68,125.71
1130,B4,203.333,333/1000,67,125.71
1131,B5,203.667,333/1000,67,125.71
1132,G4,204.0,1.0,71,125.71
1133,E4,204.0,1.0,71,125.71
1134,B3,205.0,333/1000,73,125.71
1135,B5,205.333,333/1000,71,125.71
1136,B3,205.333,333/1000,70,125.71
1137,B-5,205.667,333/1000,66,125.71
1138,B3,205.667,333/1000,70,125.71
1139,B5,206.0,333/1000,71,125.71
1140,G3,206.0,1.0,72,125.71
1141,E4,206.0,1.0,72,125.71
1142,B4,206.333,333/1000,65,125.71
1143,B5,206.667,333/1000,67,125.71
1144,B5,207.0,333/1000,71,125.71
1145,B3,207.0,1.0,68,125.71
1146,F#4,207.0,1.0,68,125.71
1147,B4,207.333,333/1000,67,125.71
1148,B5,207.667,333/1000,67,125.71
1149,C6,208.0,333/1000,60,125.71
1150,E4,208.0,1.0,71,125.71
1151,G4,208.0,1.0,71,125.71
1152,C5,208.333,333/1000,56,125.71
1153,C6,208.667,333/1000,56,125.71
1154,C6,209.0,333/1000,62,125.71
1155,B-3,209.0,0.5,46,125.71
1156,C4,209.0,0.5,46,125.71
1157,E4,209.0,0.5,46,125.71
1158,C5,209.333,333/1000,59,125.71
1159,C6,209.667,333/1000,58,125.71
1160,D6,210.0,333/1000,64,125.71
1161,C4,210.0,0.5,47,125.71
1162,F4,210.0,0.5,47,125.71
1163,A3,210.0,0.5,47,125.71
1164,D5,210.333,333/1000,59,125.71
1165,D6,210.667,333/1000,62,125.71
1166,D6,211.0,333/1000,67,125.71
1167,C4,211.0,0.5,48,125.71
1168,D4,211.0,0.5,48,125.71
1169,F#4,211.0,0.5,48,125.71
1170,D5,211.333,333/1000,62,125.71
1171,D6,211.667,333/1000,63,125.71
1172,E6,212.0,333/1000,69,125.71
1173,D4,212.0,0.5,50,125.71
1174,G4,212.0,0.5,50,125.71
1175,B3,212.0,0.5,50,125.71
1176,E5,212.333,333/1000,65,125.71
1177,E6,212.667,333/1000,67,125.71
1178,E6,213.0,333/1000,71,125.71
1179,D4,213.0,0.5,52,125.71
1180,E4,213.0,0.5,52,125.71
1181,G#4,213.0,0.5,52,125.71
1182,E5,213.333,333/1000,67,125.71
1183,E6,213.667,333/1000,66,125.71
1184,F#6,214.0,333/1000,72,125.71
1185,E4,214.0,0.5,54,125.71
1186,A4,214.0,0.5,54,125.71
1187,C#4,214.0,0.5,54,125.71
1188,F#5,214.333,333/1000,68,125.71
1189,F#6,214.667,333/1000,68,125.71
1190,F#6,215.0,333/1000,76,125.71
1191,E4,215.0,0.5,55,125.71
1192,B-4,215.0,0.5,55,125.71
1193,F#4,215.0,0.5,55,125.71
1194,F#5,215.333,333/1000,69,125.71
1195,F#6,215.667,333/1000,72,125.71
1196,F#6,216.0,333/1000,78,125.71
1197,E-4,216.0,0.5,59,125.71
1198,B4,216.0,0.5,59,125.71
1199,F#4,216.0,0.5,59,125.71
1200,F#5,216.333,333/1000,71,125.71
1201,F#6,216.667,333/1000,73,125.71
1202,F#6,217.0,333/1000,80,125.71
1203,C#4,217.0,0.5,60,125.71
1204,E4,217.0,0.5,60,125.71
1205,B-4,217.0,0.5,60,125.71
1206,F#4,217.0,0.5,60,125.71
1207,F#5,217.333,333/1000,73,125.71
1208,F#6,217.667,333/1000,76,125.71
1209,F#6,218.0,333/1000,80,125.71
1210,B3,218.0,0.5,62,125.71
1211,E-4,218.0,0.5,62,125.71
1212,F#4,218.0,0.5,62,125.71
1213,B4,218.0,0.5,62,125.71
1214,F#5,218.333,333/1000,73,125.71
1215,F#6,218.667,333/1000,76,125.71
1216,F#6,219.0,333/1000,80,125.71
1217,C#4,219.0,0.5,62,125.71
1218,E4,219.0,0.5,62,125.71
1219,F#4,219.0,0.5,62,125.71
1220,B-4,219.0,0.5,62,125.71
1221,F#5,219.333,333/1000,73,125.71
1222,F#6,219.667,333/1000,76,125.71
1223,F#5,220.0,333/1000,78,125.71
1224,E-4,220.0,0.5,62,125.71
1225,F#4,220.0,0.5,62,125.71
1226,B4,220.0,0.5,62,125.71
1227,B3,220.0,0.5,62,125.71
1228,F#4,220.333,333/1000,71,125.71
1229,F#5,220.667,333/1000,73,125.71
1230,F#5,221.0,333/1000,80,125.71
1231,C#3,221.0,0.5,52,125.71
1232,F#3,221.0,0.5,52,125.71
1233,B-3,221.0,0.5,52,125.71
1234,E3,221.0,0.5,52,125.71
1235,F#4,221.333,333/1000,73,125.71
1236,F#5,221.667,333/1000,78,125.71
1237,F#5,222.0,333/1000,84,125.71
1238,E-3,222.0,0.5,54,125.71
1239,F#3,222.0,0.5,54,125.71
1240,B3,222.0,0.5,54,125.71
1241,B2,222.0,0.5,54,125.71
1242,F#4,222.333,333/1000,77,125.71
1243,F#5,222.667,333/1000,82,125.71
1244,F#5,223.0,333/1000,88,125.71
1245,B-3,223.0,0.5,56,125.71
1246,C#3,223.0,0.5,56,125.71
1247,F#3,223.0,0.5,56,125.71
1248,E3,223.0,0.5,56,125.71
1249,F#4,223.333,333/1000,81,125.71
1250,F#5,223.667,333/1000,85,125.71
1251,F#5,224.0,333/1000,92,125.71
1252,B2,224.0,0.5,58,125.71
1253,E-3,224.0,0.5,58,125.71
1254,B3,224.0,0.5,58,125.71
1255,F#3,224.0,0.5,58,125.71
1256,F#4,224.333,333/1000,84,125.71
1257,F#5,224.667,333/1000,89,125.71
1258,F#5,225.0,0.25,83,125.71
1259,B4,225.0,0.25,83,125.71
1260,E-5,225.0,0.25,83,125.71
1261,B5,225.0,0.25,83,125.71
1262,B-3,225.0,0.5,61,125.71
1263,E3,225.0,0.5,61,125.71
1264,F#3,225.0,0.5,61,125.71
1265,C#3,225.0,0.5,61,125.71
1266,E-5,225.333,0.25,74,125.71
1267,B5,225.333,0.25,74,125.71
1268,F#5,225.333,0.25,74,125.71
1269,B4,225.333,0.25,74,125.71
1270,B4,225.667,0.25,74,125.71
1271,B5,225.667,0.25,74,125.71
1272,E-5,225.667,0.25,74,125.71
1273,F#5,225.667,0.25,74,125.71
1274,F#5,226.0,0.5,83,125.71
1275,B4,226.0,0.5,83,125.71
1276,E-5,226.0,0.5,83,125.71
1277,B5,226.0,0.5,83,125.71
1278,B2,226.0,0.25,58,125.71
1279,F#3,226.0,0.25,58,125.71
1280,B3,226.0,0.25,58,125.71
1281,E-3,226.0,0.25,58,125.71
1282,E-3,226.333,0.25,51,125.71
1283,F#3,226.333,0.25,51,125.71
1284,B3,226.333,0.25,51,125.71
1285,B2,226.333,0.25,51,125.71
1286,B2,226.667,0.25,51,125.71
1287,E-3,226.667,0.25,51,125.71
1288,B3,226.667,0.25,51,125.71
1289,F#3,226.667,0.25,51,125.71
1290,E-5,227.0,0.25,83,125.71
1291,B5,227.0,0.25,83,125.71
1292,F#5,227.0,0.25,83,125.71
1293,B4,227.0,0.25,83,125.71
1294,B2,227.0,0.5,58,125.71
1295,F#3,227.0,0.5,58,125.71
1296,B3,227.0,0.5,58,125.71
1297,E-3,227.0,0.5,58,125.71
1298,B4,227.333,0.25,74,125.71
1299,B5,227.333,0.25,74,125.71
1300,E-5,227.333,0.25,74,125.71
1301,F#5,227.333,0.25,74,125.71
1302,B4,227.667,0.25,74,125.71
1303,B5,227.667,0.25,74,125.71
1304,E-5,227.667,0.25,74,125.71
1305,F#5,227.667,0.25,74,125.71
1306,F#5,228.0,0.5,83,125.71
1307,B5,228.0,0.5,83,125.71
1308,E-5,228.0,0.5,83,125.71
1309,B4,228.0,0.5,83,125.71
1310,E-3,228.0,0.25,58,125.71
1311,F#3,228.0,0.25,58,125.71
1312,B3,228.0,0.25,58,125.71
1313,B2,228.0,0.25,58,125.71
1314,B2,228.333,0.25,51,125.71
1315,F#3,228.333,0.25,51,125.71
1316,B3,228.333,0.25,51,125.71
1317,E-3,228.333,0.25,51,125.71
1318,E-3,228.667,0.25,51,125.71
1319,F#3,228.667,0.25,51,125.71
1320,B2,228.667,0.25,51,125.71
1321,B3,228.667,0.25,51,125.71
1322,E-5,229.0,0.25,83,125.71
1323,B4,229.0,0.25,83,125.71
1324,F#5,229.0,0.25,83,125.71
1325,B5,229.0,0.25,83,125.71
1326,E-3,229.0,0.5,58,125.71
1327,F#3,229.0,0.5,58,125.71
1328,B3,229.0,0.5,58,125.71
1329,B2,229.0,0.5,58,125.71
1330,B4,229.333,0.25,74,125.71
1331,B5,229.333,0.25,74,125.71
1332,E-5,229.333,0.25,74,125.71
1333,F#5,229.333,0.25,74,125.71
1334,F#5,229.667,0.25,74,125.71
1335,B5,229.667,0.25,74,125.71
1336,E-5,229.667,0.25,74,125.71
1337,B4,229.667,0.25,74,125.71
1338,E-5,230.0,0.5,83,125.71
1339,B4,230.0,0.5,83,125.71
1340,B5,230.0,0.5,83,125.71
1341,F#5,230.0,0.5,83,125.71
1342,B2,230.0,0.25,58,125.71
1343,F#3,230.0,0.25,58,125.71
1344,B3,230.0,0.25,58,125.71
1345,E-3,230.0,0.25,58,125.71
1346,B2,230.333,0.25,51,125.71
1347,E-3,230.333,0.25,51,125.71
1348,B3,230.333,0.25,51,125.71
1349,F#3,230.333,0.25,51,125.71
1350,E-3,230.667,0.25,51,125.71
1351,F#3,230.667,0.25,51,125.71
1352,B3,230.667,0.25,51,125.71
1353,B2,230.667,0.25,51,125.71
1354,E-5,231.0,0.25,83,125.71
1355,B5,231.0,0.25,83,125.71
1356,F#5,231.0,0.25,83,125.71
1357,B4,231.0,0.25,83,125.71
1358,B2,231.0,0.5,58,125.71
1359,E-3,231.0,0.5,58,125.71
1360,B3,231.0,0.5,58,125.71
1361,F#3,231.0,0.5,58,125.71
1362,B4,231.333,0.25,74,125.71
1363,B5,231.333,0.25,74,125.71
1364,E-5,231.333,0.25,74,125.71
1365,F#5,231.333,0.25,74,125.71
1366,F#5,231.667,0.25,74,125.71
1367,B4,231.667,0.25,74,125.71
1368,E-5,231.667,0.25,74,125.71
1369,B5,231.667,0.25,74,125.71
1370,E-5,232.0,0.5,83,125.71
1371,B5,232.0,0.5,83,125.71
1372,F#5,232.0,0.5,83,125.71
1373,B4,232.0,0.5,83,125.71
1374,E-3,232.0,0.25,58,125.71
1375,F#3,232.0,0.25,58,125.71
1376,B2,232.0,0.25,58,125.71
1377,B3,232.0,0.25,58,125.71
1378,B2,232.333,0.25,51,125.71
1379,E-3,232.333,0.25,51,125.71
1380,B3,232.333,0.25,51,125.71
1381,F#3,232.333,0.25,51,125.71
1382,B2,232.667,0.25,51,125.71
1383,F#3,232.667,0.25,51,125.71
1384,B3,232.667,0.25,51,125.71
1385,E-3,232.667,0.25,51,125.71
1386,D5,233.0,333/1000,86,125.71
1387,D6,233.0,333/1000,86,125.71
1388,E-3,233.0,0.5,58,125.71
1389,F#3,233.0,0.5,58,125.71
1390,B2,233.0,0.5,58,125.71
1391,B3,233.0,0.5,58,125.71
1392,D6,233.333,333/1000,78,125.71
1393,D5,233.333,333/1000,78,125.71
1394,D5,233.667,333/1000,78,125.71
1395,D6,233.667,333/1000,78,125.71
1396,D5,234.0,0.5,86,125.71
1397,D6,234.0,0.5,86,125.71
1398,D3,234.0,333/1000,60,125.71
1399,D4,234.0,333/1000,60,125.71
1400,D3,234.333,333/1000,54,125.71
1401,D4,234.333,333/1000,54,125.71
1402,D4,234.667,333/1000,54,125.71
1403,D3,234.667,333/1000,54,125.71
1404,D6,235.0,333/1000,86,125.71
1405,D5,235.0,333/1000,86,125.71
1406,D3,235.0,0.5,60,125.71
1407,D4,235.0,0.5,60,125.71
1408,D5,235.333,333/1000,78,125.71
1409,D6,235.333,333/1000,78,125.71
1410,D6,235.667,333/1000,78,125.71
1411,D5,235.667,333/1000,78,125.71
1412,D5,236.0,0.5,86,125.71
1413,D6,236.0,0.5,86,125.71
1414,D3,236.0,333/1000,60,125.71
1415,D4,236.0,333/1000,60,125.71
1416,D3,236.333,333/1000,54,125.71
1417,D4,236.333,333/1000,54,125.71
1418,D4,236.667,333/1000,54,125.71
1419,D3,236.667,333/1000,54,125.71
1420,D4,237.0,333/1000,78,125.71
1421,D5,237.0,333/1000,78,125.71
1422,D3,237.0,0.5,60,125.71
1423,D4,237.0,0.5,60,125.71
1424,D5,237.333,333/1000,69,125.71
1425,D4,237.333,333/1000,69,125.71
1426,D4,237.667,333/1000,69,125.71
1427,D5,237.667,333/1000,69,125.71
1428,D4,238.0,0.5,78,125.71
1429,D5,238.0,0.5,78,125.71
1430,D5,239.0,333/1000,78,125.71
1431,D4,239.0,333/1000,78,125.71
1432,D4,239.333,333/1000,69,125.71
1433,D5,239.333,333/1000,69,125.71
1434,D4,239.667,333/1000,69,125.71
1435,D5,239.667,333/1000,69,125.71
1436,D5,240.0,0.5,78,125.71
1437,D4,240.0,0.5,78,125.71
1438,D4,241.0,333/1000,74,125.71
1439,D5,241.0,333/1000,74,125.71
1440,D4,241.333,333/1000,69,125.71
1441,D5,241.333,333/1000,69,125.71
1442,D4,241.667,333/1000,69,125.71
1443,D5,241.667,333/1000,69,125.71
1444,D4,242.0,1333/1000,74,125.71
1445,D5,242.0,1333/1000,74,125.71
1446,B2,242.0,1333/1000,64,125.71
1447,G3,242.0,1333/1000,64,125.71
1448,D4,243.333,0.25,68,125.71
1449,D5,243.333,0.25,68,125.71
1450,B2,243.333,0.25,60,125.71
1451,G3,243.333,0.25,60,125.71
1452,D4,243.667,0.25,68,125.71
1453,D5,243.667,0.25,68,125.71
1454,B2,243.667,0.25,60,125.71
1455,G3,243.667,0.25,60,125.71
1456,D4,244.0,1.0,74,125.71
1457,D5,244.0,1.0,74,125.71
1458,B2,244.0,1333/1000,66,125.71
1459,G3,244.0,1333/1000,66,125.71
1460,D4,245.0,333/1000,74,125.71
1461,D5,245.0,333/1000,74,125.71
1462,D4,245.333,0.25,68,125.71
1463,D5,245.333,0.25,68,125.71
1464,B2,245.333,0.25,60,125.71
1465,G3,245.333,0.25,60,125.71
1466,D4,245.667,0.25,68,125.71
1467,D5,245.667,0.25,68,125.71
1468,B2,245.667,0.25,58,125.71
1469,G3,245.667,0.25,58,125.71
1470,D4,246.0,1.5,74,125.71
1471,D5,246.0,1.5,74,125.71
1472,B2,246.0,1.5,64,125.71
1473,G3,246.0,1.5,64,125.71
1474,D4,247.5,1.0,71,125.71
1475,D5,247.5,1.0,71,125.71
1476,B3,247.5,0.25,58,125.71
1477,G3,247.5,0.25,58,125.71
1478,A3,248.0,0.25,64,125.71
1479,C4,248.0,0.25,64,125.71
1480,D4,248.5,0.25,72,125.71
1481,D5,248.5,0.25,72,125.71
1482,G3,248.5,0.25,58,125.71
1483,B3,248.5,0.25,58,125.71
1484,C4,249.0,0.25,64,125.71
1485,A3,249.0,0.25,64,125.71
1486,G4,249.333,0.25,71,125.71
1487,G5,249.333,0.25,71,125.71
1488,D3,249.5,0.25,64,125.71
1489,A3,249.5,0.25,64,125.71
1490,G4,249.667,0.25,71,125.71
1491,G5,249.667,0.25,71,125.71
1492,G4,250.0,1333/1000,78,125.71
1493,G5,250.0,1333/1000,78,125.71
1494,D4,250.0,1333/1000,64,125.71
1495,B3,250.0,1333/1000,64,125.71
1496,G4,251.333,0.25,71,125.71
1497,G5,251.333,0.25,71,125.71
1498,B3,251.333,0.25,60,125.71
1499,D4,251.333,0.25,60,125.71
1500,G4,251.667,0.25,71,125.71
1501,G5,251.667,0.25,71,125.71
1502,B3,251.667,0.25,60,125.71
1503,D4,251.667,0.25,60,125.71
1504,G4,252.0,1.0,74,125.71
1505,G5,252.0,1.0,74,125.71
1506,B3,252.0,1333/1000,66,125.71
1507,D4,252.0,1333/1000,66,125.71
1508,G4,253.0,0.5,74,125.71
1509,G5,253.0,0.5,74,125.71
1510,B3,253.333,0.25,60,125.71
1511,D4,253.333,0.25,60,125.71
1512,G4,253.5,1.0,74,125.71
1513,G5,253.5,1.0,74,125.71
1514,B3,253.667,0.25,58,125.71
1515,D4,253.667,0.25,58,125.71
1516,E4,254.0,0.25,64,125.71
1517,C4,254.0,0.25,64,125.71
1518,G4,254.5,0.25,72,125.71
1519,G5,254.5,0.25,72,125.71
1520,B3,254.5,0.25,58,125.71
1521,D4,254.5,0.25,58,125.71
1522,D5,255.0,0.25,90,125.71
1523,F#5,255.0,0.25,90,125.71
1524,D6,255.0,0.25,90,125.71
1525,A3,255.0,0.25,62,125.71
1526,C4,255.0,0.25,62,125.71
1527,D5,255.5,0.25,82,125.71
1528,G5,255.5,0.25,82,125.71
1529,D6,255.5,0.25,82,125.71
1530,G3,255.5,0.25,56,125.71
1531,B3,255.5,0.25,56,125.71
1532,D5,256.0,0.5,87,125.71
1533,F#5,256.0,0.5,87,125.71
1534,D6,256.0,0.5,87,125.71
1535,D3,256.0,0.25,75,125.71
1536,A3,256.0,0.25,75,125.71
1537,G3,256.5,0.25,70,125.71
1538,B3,256.5,0.25,70,125.71
1539,B3,257.0,1333/1000,76,125.71
1540,G4,257.0,1333/1000,76,125.71
1541,D3,257.0,0.5,75,125.71
1542,A3,257.0,0.5,75,125.71
1543,B3,258.333,0.25,71,125.71
1544,G4,258.333,0.25,71,125.71
1545,B3,258.667,0.25,71,125.71
1546,G4,258.667,0.25,71,125.71
1547,B3,259.0,1333/1000,76,125.71
1548,G4,259.0,1333/1000,76,125.71
1549,E-4,259.0,2.0,68,125.71
1550,E-3,259.0,2.0,68,125.71
1551,B3,260.333,0.25,71,125.71
1552,G4,260.333,0.25,71,125.71
1553,B3,260.667,0.25,70,125.71
1554,G4,260.667,0.25,70,125.71
1555,B3,261.0,1.5,76,125.71
1556,G4,261.0,1.5,76,125.71
1557,D3,261.0,1.0,66,125.71
1558,D4,261.0,1.0,66,125.71
1559,B4,262.5,0.25,70,125.71
1560,G4,262.5,0.25,70,125.71
1561,A4,263.0,0.25,76,125.71
1562,C5,263.0,0.25,76,125.71
1563,E-3,263.0,2.0,68,125.71
1564,E-4,263.0,2.0,68,125.71
1565,G4,263.5,0.25,70,125.71
1566,B4,263.5,0.25,70,125.71
1567,C5,264.0,0.25,76,125.71
1568,A4,264.0,0.25,76,125.71
1569,D4,264.5,0.25,75,125.71
1570,A4,264.5,0.25,75,125.71
1571,D5,265.0,1333/1000,76,125.71
1572,B4,265.0,1333/1000,76,125.71
1573,D3,265.0,1.0,66,125.71
1574,D4,265.0,1.0,66,125.71
1575,B4,266.333,0.25,71,125.71
1576,D5,266.333,0.25,71,125.71
1577,B4,266.667,0.25,71,125.71
1578,D5,266.667,0.25,71,125.71
1579,B4,267.0,1333/1000,76,125.71
1580,D5,267.0,1333/1000,76,125.71
1581,G4,267.0,1.0,64,125.71
1582,G3,267.0,1.0,64,125.71
1583,F#4,268.0,1.0,68,125.71
1584,F#3,268.0,1.0,68,125.71
1585,B4,268.333,0.25,71,125.71
1586,D5,268.333,0.25,71,125.71
1587,B4,268.667,0.25,70,125.71
1588,D5,268.667,0.25,70,125.71
1589,E5,269.0,0.25,76,125.71
1590,C5,269.0,0.25,76,125.71
1591,F4,269.0,1.0,66,125.71
1592,F3,269.0,1.0,66,125.71
1593,B4,269.5,0.25,73,125.71
1594,D5,269.5,0.25,73,125.71
1595,A4,270.0,0.25,73,125.71
1596,C5,270.0,0.25,73,125.71
1597,E3,270.0,1.5,68,125.71
1598,E4,270.0,1.5,68,125.71
1599,E4,270.5,0.25,72,125.71
1600,G#4,270.5,0.25,72,125.71
1601,B4,270.5,0.25,72,125.71
1602,E4,271.0,0.25,78,125.71
1603,A4,271.0,0.25,78,125.71
1604,E4,271.5,0.25,72,125.71
1605,G#4,271.5,0.25,72,125.71
1606,B4,271.5,0.25,72,125.71
1607,D3,271.5,0.25,56,125.71
1608,E3,271.5,0.25,56,125.71
1609,D4,271.5,0.25,56,125.71
1610,E4,272.0,0.25,74,125.71
1611,A4,272.0,0.25,74,125.71
1612,C5,272.0,0.25,74,125.71
1613,E3,272.0,0.25,61,125.71
1614,C3,272.0,0.25,61,125.71
1615,C4,272.0,0.25,61,125.71
1616,B2,272.5,0.25,53,125.71
1617,E3,272.5,0.25,53,125.71
1618,B3,272.5,0.25,53,125.71
1619,D5,273.0,0.25,68,125.71
1620,F#5,273.0,0.25,68,125.71
1621,A2,273.0,0.25,56,125.71
1622,E3,273.0,0.25,56,125.71
1623,A3,273.0,0.25,56,125.71
1624,C#5,273.5,0.25,62,125.71
1625,E5,273.5,0.25,62,125.71
1626,G2,273.5,0.25,52,125.71
1627,G3,273.5,0.25,52,125.71
1628,B4,274.0,0.25,67,125.71
1629,D5,274.0,0.25,67,125.71
1630,F#2,274.0,0.25,57,125.71
1631,F#3,274.0,0.25,57,125.71
1632,F#4,274.5,0.25,65,125.71
1633,B-4,274.5,0.25,65,125.71
1634,C#5,274.5,0.25,65,125.71
1635,F#4,275.0,0.25,66,125.71
1636,B4,275.0,0.25,66,125.71
1637,F#4,275.5,0.25,62,125.71
1638,B-4,275.5,0.25,62,125.71
1639,C#5,275.5,0.25,62,125.71
1640,E3,275.5,0.25,54,125.71
1641,E4,275.5,0.25,54,125.71
1642,F#4,276.0,0.25,65,125.71
1643,B4,276.0,0.25,65,125.71
1644,D5,276.0,0.25,65,125.71
1645,D3,276.0,0.25,57,125.71
1646,D4,276.0,0.25,57,125.71
1647,C#3,276.5,0.25,53,125.71
1648,C#4,276.5,0.25,53,125.71
1649,E5,277.0,0.25,68,125.71
1650,G#5,277.0,0.25,68,125.71
1651,B2,277.0,0.25,56,125.71
1652,B3,277.0,0.25,56,125.71
1653,E-5,277.5,0.25,62,125.71
1654,F#5,277.5,0.25,62,125.71
1655,A2,277.5,0.25,53,125.71
1656,A3,277.5,0.25,53,125.71
1657,C#5,278.0,0.25,67,125.71
1658,E5,278.0,0.25,67,125.71
1659,G#2,278.0,0.25,57,125.71
1660,G#3,278.0,0.25,57,125.71
1661,G#4,278.5,0.25,65,125.71
1662,C5,278.5,0.25,65,125.71
1663,E-5,278.5,0.25,65,125.71
1664,G#4,279.0,0.25,66,125.71
1665,C#5,279.0,0.25,66,125.71
1666,G#4,279.5,0.25,62,125.71
1667,C5,279.5,0.25,62,125.71
1668,E-5,279.5,0.25,62,125.71
1669,F#3,279.5,0.25,54,125.71
1670,F#4,279.5,0.25,54,125.71
1671,G#4,280.0,0.25,65,125.71
1672,C#5,280.0,0.25,65,125.71
1673,E5,280.0,0.25,65,125.71
1674,G#3,280.0,0.25,56,125.71
1675,E3,280.0,0.25,56,125.71
1676,E4,280.0,0.25,56,125.71
1677,G#3,280.5,0.25,52,125.71
1678,E-3,280.5,0.25,52,125.71
1679,E-4,280.5,0.25,52,125.71
1680,F#5,281.0,0.5,58,125.71
1681,A5,281.0,0.5,58,125.71
1682,G#3,281.0,0.25,55,125.71
1683,C#3,281.0,0.25,55,125.71
1684,C#4,281.0,0.25,55,125.71
1685,E5,281.5,0.5,52,125.71
1686,G5,281.5,0.5,52,125.71
1687,B2,281.5,0.25,53,125.71
1688,B3,281.5,0.25,53,125.71
1689,D5,282.0,0.5,57,125.71
1690,F#5,282.0,0.5,57,125.71
1691,A2,282.0,1.0,57,125.71
1692,A3,282.0,1.0,57,125.71
1693,A4,282.5,0.5,53,125.71
1694,E5,282.5,0.5,53,125.71
1695,F#5,283.0,0.5,58,125.71
1696,A5,283.0,0.5,58,125.71
1697,B2,283.0,1.0,54,125.71
1698,B3,283.0,1.0,54,125.71
1699,A3,283.0,1.0,54,125.71
1700,E5,283.5,0.5,52,125.71
1701,G5,283.5,0.5,52,125.71
1702,D5,284.0,0.5,57,125.71
1703,F#5,284.0,0.5,57,125.71
1704,A3,284.0,1.5,58,125.71
1705,C3,284.0,1.5,58,125.71
1706,C4,284.0,1.5,58,125.71
1707,A4,284.5,0.5,55,125.71
1708,E5,284.5,0.5,55,125.71
1709,F#5,285.0,0.5,58,125.71
1710,A5,285.0,0.5,58,125.71
1711,E5,285.5,0.5,54,125.71
1712,G5,285.5,0.5,54,125.71
1713,C#3,285.5,0.5,55,125.71
1714,A3,285.5,0.5,55,125.71
1715,C#4,285.5,0.5,55,125.71
1716,D5,286.0,0.5,60,125.71
1717,F#5,286.0,0.5,60,125.71
1718,A2,286.0,1.0,58,125.71
1719,A3,286.0,1.0,58,125.71
1720,A4,286.5,0.5,56,125.71
1721,E5,286.5,0.5,56,125.71
1722,F#5,287.0,0.5,60,125.71
1723,A5,287.0,0.5,60,125.71
1724,B2,287.0,1.0,56,125.71
1725,B3,287.0,1.0,56,125.71
1726,A3,287.0,1.0,56,125.71
1727,E5,287.5,0.5,56,125.71
1728,G5,287.5,0.5,56,125.71
1729,D5,288.0,0.5,60,125.71
1730,F#5,288.0,0.5,60,125.71
1731,A3,288.0,1.5,60,125.71
1732,C3,288.0,1.5,60,125.71
1733,C4,288.0,1.5,60,125.71
1734,A4,288.5,0.5,58,125.71
1735,E5,288.5,0.5,58,125.71
1736,B5,289.0,0.5,66,125.71
1737,D6,289.0,0.5,66,125.71
1738,A5,289.5,0.5,60,125.71
1739,C6,289.5,0.5,60,125.71
1740,C#3,289.5,0.5,58,125.71
1741,A3,289.5,0.5,58,125.71
1742,C#4,289.5,0.5,58,125.71
1743,G5,290.0,0.5,64,125.71
1744,B5,290.0,0.5,64,125.71
1745,D3,290.0,1.0,66,125.71
1746,D4,290.0,1.0,66,125.71
1747,D5,290.5,0.5,60,125.71
1748,A5,290.5,0.5,60,125.71
1749,B5,291.0,0.5,67,125.71
1750,D6,291.0,0.5,67,125.71
1751,E3,291.0,1.0,61,125.71
1752,E4,291.0,1.0,61,125.71
1753,D4,291.0,1.0,61,125.71
1754,A5,291.5,0.5,60,125.71
1755,C6,291.5,0.5,60,125.71
1756,G5,292.0,0.5,66,125.71
1757,B5,292.0,0.5,66,125.71
1758,D4,292.0,1.5,67,125.71
1759,F3,292.0,1.5,67,125.71
1760,F4,292.0,1.5,67,125.71
1761,D5,292.5,0.5,62,125.71
1762,A5,292.5,0.5,62,125.71
1763,B5,293.0,0.5,68,125.71
1764,D6,293.0,0.5,68,125.71
1765,A5,293.5,0.5,62,125.71
1766,C6,293.5,0.5,62,125.71
1767,F#3,293.5,0.5,63,125.71
1768,D4,293.5,0.5,63,125.71
1769,F#4,293.5,0.5,63,125.71
1770,G5,294.0,0.5,67,125.71
1771,B5,294.0,0.5,67,125.71
1772,D3,294.0,1.0,67,125.71
1773,D4,294.0,1.0,67,125.71
1774,D5,294.5,0.5,64,125.71
1775,A5,294.5,0.5,64,125.71
1776,B5,295.0,0.5,69,125.71
1777,D6,295.0,0.5,69,125.71
1778,E3,295.0,1.0,64,125.71
1779,E4,295.0,1.0,64,125.71
1780,D4,295.0,1.0,64,125.71
1781,A5,295.5,0.5,64,125.71
1782,C6,295.5,0.5,64,125.71
1783,G5,296.0,0.5,68,125.71
1784,B5,296.0,0.5,68,125.71
1785,D4,296.0,1.5,70,125.71
1786,F3,296.0,1.5,70,125.71
1787,F4,296.0,1.5,70,125.71
1788,D5,296.5,0.5,70,125.71
1789,A5,296.5,0.5,70,125.71
1790,G4,297.0,1333/1000,85,125.71
1791,B4,297.0,1333/1000,85,125.71
1792,G5,297.0,1333/1000,85,125.71
1793,F#3,297.5,0.5,66,125.71
1794,D4,297.5,0.5,66,125.71
1795,F#4,297.5,0.5,66,125.71
1796,G3,298.0,1.0,79,125.71
1797,G4,298.333,0.25,80,125.71
1798,B4,298.333,0.25,80,125.71
1799,G5,298.333,0.25,80,125.71
1800,G4,298.667,0.25,80,125.71
1801,B4,298.667,0.25,80,125.71
1802,G5,298.667,0.25,80,125.71
1803,G4,299.0,1333/1000,86,125.71
1804,B4,299.0,1333/1000,86,125.71
1805,G5,299.0,1333/1000,86,125.71
1806,G3,299.0,2.0,74,125.71
1807,F4,299.0,2.0,74,125.71
1808,F3,299.0,2.0,74,125.71
1809,G4,300.333,0.25,80,125.71
1810,B4,300.333,0.25,80,125.71
1811,G5,300.333,0.25,80,125.71
1812,G4,300.667,0.25,79,125.71
1813,B4,300.667,0.25,79,125.71
1814,G5,300.667,0.25,79,125.71
1815,G4,301.0,1.5,85,125.71
1816,B4,301.0,1.5,85,125.71
1817,G5,301.0,1.5,85,125.71
1818,G3,301.0,1.0,72,125.71
1819,E3,301.0,1.0,72,125.71
1820,E4,301.0,1.0,72,125.71
1821,B4,302.5,0.5,79,125.71
1822,B5,302.5,0.5,79,125.71
1823,G5,302.5,0.5,79,125.71
1824,C5,303.0,0.5,84,125.71
1825,A5,303.0,0.5,84,125.71
1826,C6,303.0,0.5,84,125.71
1827,G3,303.0,1.0,72,125.71
1828,E3,303.0,1.0,72,125.71
1829,E4,303.0,1.0,72,125.71
1830,B4,303.5,0.5,82,125.71
1831,G5,303.5,0.5,82,125.71
1832,B5,303.5,0.5,82,125.71
1833,C5,304.0,0.5,84,125.71
1834,C6,304.0,0.5,84,125.71
1835,A5,304.0,0.5,84,125.71
1836,G3,304.0,2.0,74,125.71
1837,E-3,304.0,2.0,74,125.71
1838,E-4,304.0,2.0,74,125.71
1839,A4,304.5,0.5,78,125.71
1840,D5,304.5,0.5,78,125.71
1841,A5,304.5,0.5,78,125.71
1842,D5,305.0,1333/1000,97,125.71
1843,D6,305.0,1333/1000,97,125.71
1844,B5,305.0,1333/1000,97,125.71
1845,F#3,306.0,1.0,70,125.71
1846,D3,306.0,1.0,70,125.71
1847,D4,306.0,1.0,70,125.71
1848,D5,306.333,0.25,91,125.71
1849,B5,306.333,0.25,91,125.71
1850,D6,306.333,0.25,91,125.71
1851,D5,306.667,0.25,91,125.71
1852,B5,306.667,0.25,91,125.71
1853,D6,306.667,0.25,91,125.71
1854,D5,307.0,1333/1000,98,125.71
1855,B5,307.0,1333/1000,98,125.71
1856,D6,307.0,1333/1000,98,125.71
1857,D2,307.0,1.0,70,125.71
1858,D3,307.0,1.0,70,125.71
1859,D3,308.0,1.0,71,125.71
1860,E3,308.0,1.0,71,125.71
1861,E2,308.0,1.0,71,125.71
1862,D5,308.333,0.25,91,125.71
1863,B5,308.333,0.25,91,125.71
1864,D6,308.333,0.25,91,125.71
1865,D5,308.667,0.25,90,125.71
1866,B5,308.667,0.25,90,125.71
1867,D6,308.667,0.25,90,125.71
1868,E5,309.0,0.25,90,125.71
1869,E6,309.0,0.25,90,125.71
1870,C6,309.0,0.25,90,125.71
1871,D3,309.0,1.0,76,125.71
1872,F#3,309.0,1.0,76,125.71
1873,F#2,309.0,1.0,76,125.71
1874,D5,309.5,0.25,83,125.71
1875,B5,309.5,0.25,83,125.71
1876,D6,309.5,0.25,83,125.71
1877,C5,310.0,0.25,88,125.71
1878,A5,310.0,0.25,88,125.71
1879,C6,310.0,0.25,88,125.71
1880,D3,310.0,1.0,72,125.71
1881,G3,310.0,1.0,72,125.71
1882,G2,310.0,1.0,72,125.71
1883,B4,310.5,0.25,83,125.71
1884,D5,310.5,0.25,83,125.71
1885,G5,310.5,0.25,83,125.71
1886,B5,310.5,0.25,83,125.71
1887,A4,311.0,0.25,89,125.71
1888,D5,311.0,0.25,89,125.71
1889,F#5,311.0,0.25,89,125.71
1890,A5,311.0,0.25,89,125.71
1891,B4,311.5,0.25,84,125.71
1892,D5,311.5,0.25,84,125.71
1893,G5,311.5,0.25,84,125.71
1894,B5,311.5,0.25,84,125.71
1895,G2,311.5,0.25,67,125.71
1896,D3,311.5,0.25,67,125.71
1897,G3,311.5,0.25,67,125.71
1898,A4,312.0,0.25,86,125.71
1899,D5,312.0,0.25,86,125.71
1900,F#5,312.0,0.25,86,125.71
1901,A5,312.0,0.25,86,125.71
1902,A2,312.0,0.25,69,125.71
1903,D3,312.0,0.25,69,125.71
1904,A3,312.0,0.25,69,125.71
1905,B2,312.5,0.25,61,125.71
1906,D3,312.5,0.25,61,125.71
1907,B3,312.5,0.25,61,125.71
1908,G4,313.0,1333/1000,85,125.71
1909,B4,313.0,1333/1000,85,125.71
1910,G5,313.0,1333/1000,85,125.71
1911,F#3,313.0,0.25,74,125.71
1912,A3,313.0,0.25,74,125.71
1913,D3,313.0,0.25,74,125.71
1914,D4,313.0,0.25,74,125.71
1915,G3,313.5,0.25,70,125.71
1916,B3,313.5,0.25,70,125.71
1917,D4,313.5,0.25,70,125.71
1918,F#3,314.0,0.25,72,125.71
1919,D3,314.0,0.25,72,125.71
1920,A3,314.0,0.25,72,125.71
1921,D4,314.0,0.25,72,125.71
1922,G4,314.333,0.25,80,125.71
1923,B4,314.333,0.25,80,125.71
1924,G5,314.333,0.25,80,125.71
1925,G4,314.667,0.25,80,125.71
1926,B4,314.667,0.25,80,125.71
1927,G5,314.667,0.25,80,125.71
1928,G3,315.0,1.0,79,125.71
1929,G4,315.0,1333/1000,86,125.71
1930,B4,315.0,1333/1000,86,125.71
1931,G5,315.0,1333/1000,86,125.71
1932,G3,316.0,2.0,74,125.71
1933,F4,316.0,2.0,74,125.71
1934,F3,316.0,2.0,74,125.71
1935,G4,316.333,0.25,80,125.71
1936,B4,316.333,0.25,80,125.71
1937,G5,316.333,0.25,80,125.71
1938,G4,316.667,0.25,79,125.71
1939,B4,316.667,0.25,79,125.71
1940,G5,316.667,0.25,79,125.71
1941,G4,317.0,1.5,85,125.71
1942,B4,317.0,1.5,85,125.71
1943,G5,317.0,1.5,85,125.71
1944,G3,318.0,1.0,72,125.71
1945,E3,318.0,1.0,72,125.71
1946,E4,318.0,1.0,72,125.71
1947,B4,318.5,0.5,79,125.71
1948,B5,318.5,0.5,79,125.71
1949,G5,318.5,0.5,79,125.71
1950,C5,319.0,0.5,84,125.71
1951,A5,319.0,0.5,84,125.71
1952,C6,319.0,0.5,84,125.71
1953,B4,319.5,0.5,82,125.71
1954,G#5,319.5,0.5,82,125.71
1955,B5,319.5,0.5,82,125.71
1956,C5,320.0,0.25,84,125.71
1957,C6,320.0,0.25,84,125.71
1958,A5,320.0,0.25,84,125.71
1959,G3,320.0,1.0,72,125.71
1960,E3,320.0,1.0,72,125.71
1961,E4,320.0,1.0,72,125.71
1962,A4,320.5,0.25,78,125.71
1963,D5,320.5,0.25,78,125.71
1964,A5,320.5,0.25,78,125.71
1965,G5,321.0,2.0,87,125.71
1966,D5,321.0,1.5,89,125.71
1967,D6,321.0,1.5,89,125.71
1968,G3,321.0,1.0,74,125.71
1969,E-3,321.0,1.0,74,125.71
1970,E-4,321.0,1.0,74,125.71
1971,D3,322.0,1.5,70,125.71
1972,F#3,322.0,1.5,70,125.71
1973,D4,322.0,1.5,70,125.71
1974,C5,322.5,0.5,78,125.71
1975,C6,322.5,0.5,78,125.71
1976,B4,323.0,0.5,84,125.71
1977,G5,323.0,0.5,84,125.71
1978,B5,323.0,0.5,84,125.71
1979,C5,323.5,0.5,82,125.71
1980,A5,323.5,0.5,82,125.71
1981,C6,323.5,0.5,82,125.71
1982,C3,323.5,0.25,63,125.71
1983,F#3,323.5,0.25,63,125.71
1984,C4,323.5,0.25,63,125.71
1985,D5,324.0,0.25,84,125.71
1986,D6,324.0,0.25,84,125.71
1987,B5,324.0,0.25,84,125.71
1988,B2,324.0,0.5,68,125.71
1989,D3,324.0,0.5,68,125.71
1990,G3,324.0,0.5,68,125.71
1991,B3,324.0,0.5,68,125.71
1992,B4,324.5,0.25,78,125.71
1993,G5,324.5,0.25,78,125.71
1994,B5,324.5,0.25,78,125.71
1995,C3,324.5,0.5,64,125.71
1996,C4,324.5,0.5,64,125.71
1997,G5,325.0,1.5,88,125.71
1998,C6,325.0,1.5,88,125.71
1999,G6,325.0,1.5,88,125.71
2000,B2,325.0,0.5,68,125.71
2001,B3,325.0,0.5,68,125.71
2002,A2,325.5,0.5,64,125.71
2003,A3,325.5,0.5,64,125.71
2004,D3,326.0,2.0,71,125.71
2005,G2,326.0,1.5,67,125.71
2006,G3,326.0,1.5,67,125.71
2007,C6,326.5,0.25,72,125.71
2008,F#5,326.5,0.25,72,125.71
2009,F#6,326.5,0.25,72,125.71
2010,E5,327.0,0.25,79,125.71
2011,C6,327.0,0.25,79,125.71
2012,E6,327.0,0.25,79,125.71
2013,F#5,327.5,0.25,77,125.71
2014,D6,327.5,0.25,77,125.71
2015,F#6,327.5,0.25,77,125.71
2016,F2,327.5,0.25,64,125.71
2017,F3,327.5,0.25,64,125.71
2018,E5,328.0,0.25,79,125.71
2019,E6,328.0,0.25,79,125.71
2020,C6,328.0,0.25,79,125.71
2021,E2,328.0,0.25,68,125.71
2022,E3,328.0,0.25,68,125.71
2023,D5,328.5,0.25,73,125.71
2024,B5,328.5,0.25,73,125.71
2025,D6,328.5,0.25,73,125.71
2026,F#2,328.5,0.25,64,125.71
2027,F#3,328.5,0.25,64,125.71
2028,C5,329.0,0.25,78,125.71
2029,A5,329.0,0.25,78,125.71
2030,C6,329.0,0.25,78,125.71
2031,E2,329.0,0.25,68,125.71
2032,E3,329.0,0.25,68,125.71
2033,B5,329.5,0.25,71,125.71
2034,D6,329.5,0.25,71,125.71
2035,D5,329.5,0.25,71,125.71
2036,D2,329.5,0.25,66,125.71
2037,D3,329.5,0.25,66,125.71
2038,C5,330.0,0.25,76,125.71
2039,A5,330.0,0.25,76,125.71
2040,C6,330.0,0.25,76,125.71
2041,C2,330.0,1.5,70,125.71
2042,C3,330.0,1.5,70,125.71
2043,G5,330.5,0.25,69,125.71
2044,B4,330.5,0.25,69,125.71
2045,B5,330.5,0.25,69,125.71
2046,A4,331.0,0.25,74,125.71
2047,F#5,331.0,0.25,74,125.71
2048,A5,331.0,0.25,74,125.71
2049,B4,331.5,0.25,71,125.71
2050,G5,331.5,0.25,71,125.71
2051,B5,331.5,0.25,71,125.71
2052,D2,331.5,0.25,65,125.71
2053,D3,331.5,0.25,65,125.71
2054,A4,332.0,0.25,74,125.71
2055,A5,332.0,0.25,74,125.71
2056,F#5,332.0,0.25,74,125.71
2057,E-2,332.0,1.5,70,125.71
2058,E-3,332.0,1.5,70,125.71
2059,G4,332.5,0.25,70,125.71
2060,E5,332.5,0.25,70,125.71
2061,G5,332.5,0.25,70,125.71
2062,F#4,333.0,0.25,78,125.71
2063,D5,333.0,0.25,78,125.71
2064,F#5,333.0,0.25,78,125.71
2065,E5,333.5,0.25,71,125.71
2066,G5,333.5,0.25,71,125.71
2067,G4,333.5,0.25,71,125.71
2068,E2,333.5,0.25,64,125.71
2069,E3,333.5,0.25,64,125.71
2070,F#4,334.0,0.25,76,125.71
2071,D5,334.0,0.25,76,125.71
2072,F#5,334.0,0.25,76,125.71
2073,F#2,334.0,1.5,71,125.71
2074,F#3,334.0,1.5,71,125.71
2075,C5,334.5,0.25,69,125.71
2076,E4,334.5,0.25,69,125.71
2077,E5,334.5,0.25,69,125.71
2078,D4,335.0,0.25,70,125.71
2079,B4,335.0,0.25,70,125.71
2080,D5,335.0,0.25,70,125.71
2081,E4,335.5,0.25,67,125.71
2082,E5,335.5,0.25,67,125.71
2083,C5,335.5,0.25,67,125.71
2084,G2,335.5,0.25,65,125.71
2085,G3,335.5,0.25,65,125.71
2086,D4,336.0,0.25,70,125.71
2087,D5,336.0,0.25,70,125.71
2088,B4,336.0,0.25,70,125.71
2089,A2,336.0,1.5,70,125.71
2090,A3,336.0,1.5,70,125.71
2091,E4,336.5,0.25,66,125.71
2092,A4,336.5,0.25,66,125.71
2093,C5,336.5,0.25,66,125.71
2094,G4,337.0,1333/1000,69,125.71
2095,B4,337.0,1333/1000,69,125.71
2096,B-2,337.5,0.25,64,125.71
2097,B-3,337.5,0.25,64,125.71
2098,B2,338.0,1.5,67,125.71
2099,B3,338.0,1.5,67,125.71
2100,B3,338.333,0.25,63,125.71
2101,G4,338.333,0.25,63,125.71
2102,B4,338.333,0.25,63,125.71
2103,B3,338.667,0.25,63,125.71
2104,G4,338.667,0.25,63,125.71
2105,B4,338.667,0.25,63,125.71
2106,B3,339.0,1333/1000,65,125.71
2107,G4,339.0,1333/1000,65,125.71
2108,B4,339.0,1333/1000,65,125.71
2109,C3,339.5,0.25,60,125.71
2110,C4,339.5,0.25,60,125.71
2111,D3,340.0,1.0,63,125.71
2112,D4,340.0,1.0,63,125.71
2113,B3,340.333,0.25,63,125.71
2114,G4,340.333,0.25,63,125.71
2115,B4,340.333,0.25,63,125.71
2116,B3,340.667,0.25,63,125.71
2117,G4,340.667,0.25,63,125.71
2118,B4,340.667,0.25,63,125.71
2119,B3,341.0,1.0,64,125.71
2120,G4,341.0,1.0,64,125.71
2121,B4,341.0,1.0,64,125.71
2122,E-3,341.0,1.0,60,125.71
2123,E-4,341.0,1.0,60,125.71
2124,D3,342.0,1.0,63,125.71
2125,D4,342.0,1.0,63,125.71
2126,D4,342.5,0.5,63,125.71
2127,D5,342.5,0.5,63,125.71
2128,G4,342.5,0.5,63,125.71
2129,G4,343.0,0.5,66,125.71
2130,E4,343.0,0.5,66,125.71
2131,C#5,343.0,0.5,66,125.71
2132,E5,343.0,0.5,66,125.71
2133,E-3,343.0,1.0,58,125.71
2134,E-4,343.0,1.0,58,125.71
2135,D4,343.5,0.5,64,125.71
2136,D5,343.5,0.5,64,125.71
2137,E4,344.0,0.5,67,125.71
2138,E5,344.0,0.5,67,125.71
2139,C5,344.0,0.5,67,125.71
2140,D3,344.0,1.0,63,125.71
2141,D4,344.0,1.0,63,125.71
2142,F#4,344.5,0.5,60,125.71
2143,F#5,344.5,0.5,60,125.71
2144,G4,345.0,0.5,64,125.71
2145,B4,345.0,0.5,64,125.71
2146,G5,345.0,0.5,64,125.71
2147,B2,345.0,1.0,60,125.71
2148,B3,345.0,1.0,60,125.71
2149,B-2,346.0,1.0,56,125.71
2150,B-3,346.0,1.0,56,125.71
2151,B4,346.333,0.25,69,125.71
2152,G5,346.333,0.25,69,125.71
2153,B5,346.333,0.25,69,125.71
2154,B4,346.667,0.25,69,125.71
2155,G5,346.667,0.25,69,125.71
2156,B5,346.667,0.25,69,125.71
2157,B4,347.0,1333/1000,71,125.71
2158,G5,347.0,1333/1000,71,125.71
2159,B5,347.0,1333/1000,71,125.71
2160,A2,347.0,1.0,51,125.71
2161,A3,347.0,1.0,51,125.71
2162,G2,348.0,0.5,57,125.71
2163,G3,348.0,0.5,57,125.71
2164,B4,348.333,0.25,69,125.71
2165,G5,348.333,0.25,69,125.71
2166,B5,348.333,0.25,69,125.71
2167,B4,348.667,0.25,69,125.71
2168,G5,348.667,0.25,69,125.71
2169,B5,348.667,0.25,69,125.71
2170,B4,349.0,1.0,70,125.71
2171,G5,349.0,1.0,70,125.71
2172,B5,349.0,1.0,70,125.71
2173,E-3,349.0,1.0,62,125.71
2174,E-4,349.0,1.0,62,125.71
2175,D3,350.0,1.0,66,125.71
2176,D4,350.0,1.0,66,125.71
2177,D5,350.5,0.5,78,125.71
2178,D6,350.5,0.5,78,125.71
2179,G5,350.5,0.5,78,125.71
2180,G5,351.0,0.5,82,125.71
2181,E5,351.0,0.5,82,125.71
2182,C#6,351.0,0.5,82,125.71
2183,E6,351.0,0.5,82,125.71
2184,E-3,351.0,1.0,60,125.71
2185,E-4,351.0,1.0,60,125.71
2186,D5,351.5,0.5,80,125.71
2187,D6,351.5,0.5,80,125.71
2188,E5,352.0,0.5,83,125.71
2189,E6,352.0,0.5,83,125.71
2190,C6,352.0,0.5,83,125.71
2191,D3,352.0,1.0,66,125.71
2192,D4,352.0,1.0,66,125.71
2193,C6,352.5,0.5,76,125.71
2194,D6,352.5,0.5,76,125.71
2195,F#5,352.5,0.5,76,125.71
2196,F#6,352.5,0.5,76,125.71
2197,D6,353.0,0.5,80,125.71
2198,G5,353.0,0.5,80,125.71
2199,B5,353.0,0.5,80,125.71
2200,G6,353.0,0.5,80,125.71
2201,B2,353.0,1.0,62,125.71
2202,B3,353.0,1.0,62,125.71
2203,D5,354.0,0.25,78,125.71
2204,D6,354.0,0.25,78,125.71
2205,B-2,354.0,1.0,64,125.71
2206,B-3,354.0,1.0,64,125.71
2207,E5,354.333,0.25,78,125.71
2208,E6,354.333,0.25,78,125.71
2209,F#5,354.667,0.25,80,125.71
2210,F#6,354.667,0.25,80,125.71
2211,G5,355.0,0.5,81,125.71
2212,G6,355.0,0.5,81,125.71
2213,A2,355.0,1.0,58,125.71
2214,A3,355.0,1.0,58,125.71
2215,D5,356.0,0.25,78,125.71
2216,D6,356.0,0.25,78,125.71
2217,G2,356.0,0.5,65,125.71
2218,G3,356.0,0.5,65,125.71
2219,E5,356.333,0.25,78,125.71
2220,E6,356.333,0.25,78,125.71
2221,F#5,356.667,0.25,80,125.71
2222,F#6,356.667,0.25,80,125.71
2223,G5,357.0,0.5,81,125.71
2224,G6,357.0,0.5,81,125.71
2225,B2,357.0,1.0,60,125.71
2226,D3,357.0,1.0,60,125.71
2227,F#3,357.0,1.0,60,125.71
2228,D4,357.0,1.0,60,125.71
2229,G4,358.0,0.5,73,125.71
2230,B4,358.0,0.5,73,125.71
2231,D5,358.0,0.5,73,125.71
2232,G5,358.0,0.5,73,125.71
2233,G3,358.0,0.5,64,125.71
2234,B3,358.0,0.5,64,125.71
2235,D4,358.0,0.5,64,125.71
2236,B3,359.0,2.0,82,125.71
2237,D4,359.0,2.0,82,125.71
2238,G4,359.0,2.0,82,125.71
2239,B2,359.0,1.0,60,125.71
2240,D3,359.0,1.0,60,125.71
2241,F#3,359.0,1.0,60,125.71
2242,D4,359.0,1.0,60,125.71
2243,G3,360.0,0.5,64,125.71
2244,B3,360.0,0.5,64,125.71
2245,D4,360.0,0.5,64,125.71
2246,G3,361.0,0.5,63,125.71
2247,B3,361.0,0.5,63,125.71
2248,D4,361.0,0.5,63,125.71
2249,G2,362.0,2.0,68,125.71
2250,D3,362.0,2.0,68,125.71
2251,G3,362.0,2.0,68,125.71
