,note_name,start_time,duration,velocity,tempo
0,C2,0.0,0.375,25,160.47
1,C3,0.5,0.375,30,160.47
2,E3,0.5,0.375,30,160.47
3,G2,0.5,0.375,24,160.47
4,C2,0.5,0.375,24,160.47
5,C3,1.0,0.375,30,160.47
6,E3,1.0,0.375,30,160.47
7,G2,1.0,0.375,24,160.47
8,C2,1.0,0.375,24,160.47
9,C3,1.5,0.375,31,160.47
10,E3,1.5,0.375,31,160.47
11,G2,1.5,0.375,24,160.47
12,C2,1.5,0.375,24,160.47
13,C3,2.0,0.375,31,160.47
14,E3,2.0,0.375,31,160.47
15,G2,2.0,0.375,24,160.47
16,C2,2.0,0.375,24,160.47
17,C3,2.5,0.375,31,160.47
18,E3,2.5,0.375,31,160.47
19,G2,2.5,0.375,26,160.47
20,C2,2.5,0.375,26,160.47
21,C3,3.0,0.375,32,160.47
22,E3,3.0,0.375,32,160.47
23,G2,3.0,0.375,26,160.47
24,C2,3.0,0.375,26,160.47
25,C3,3.5,0.375,32,160.47
26,E3,3.5,0.375,32,160.47
27,G2,3.5,0.375,26,160.47
28,C2,3.5,0.375,26,160.47
29,C3,4.0,0.375,33,160.47
30,E3,4.0,0.375,33,160.47
31,C2,4.0,0.375,28,160.47
32,G2,4.0,0.375,28,160.47
33,C3,4.5,0.375,33,160.47
34,E3,4.5,0.375,33,160.47
35,C2,4.5,0.375,24,160.47
36,G2,4.5,0.375,24,160.47
37,C3,5.0,0.375,34,160.47
38,E3,5.0,0.375,34,160.47
39,C2,5.0,0.375,26,160.47
40,G2,5.0,0.375,26,160.47
41,C3,5.5,0.375,35,160.47
42,E3,5.5,0.375,35,160.47
43,C2,5.5,0.375,26,160.47
44,G2,5.5,0.375,26,160.47
45,C3,6.0,0.375,36,160.47
46,E3,6.0,0.375,36,160.47
47,C2,6.0,0.375,28,160.47
48,G2,6.0,0.375,28,160.47
49,C3,6.5,0.375,37,160.47
50,E3,6.5,0.375,37,160.47
51,C2,6.5,0.375,28,160.47
52,G2,6.5,0.375,28,160.47
53,D3,7.0,0.375,37,160.47
54,F#3,7.0,0.375,37,160.47
55,C2,7.0,0.375,28,160.47
56,A2,7.0,0.375,28,160.47
57,D3,7.5,0.375,37,160.47
58,F#3,7.5,0.375,37,160.47
59,C2,7.5,0.375,28,160.47
60,A2,7.5,0.375,28,160.47
61,D3,8.0,1.5,42,160.47
62,G3,8.0,1.5,42,160.47
63,B1,8.0,0.375,28,160.47
64,G2,8.0,0.375,28,160.47
65,B1,8.5,0.375,28,160.47
66,G2,8.5,0.375,28,160.47
67,B1,9.0,0.375,28,160.47
68,G2,9.0,0.375,28,160.47
69,B3,9.5,0.25,40,160.47
70,B1,9.5,0.375,28,160.47
71,G2,9.5,0.375,28,160.47
72,A3,9.75,0.25,40,160.47
73,G3,10.0,0.25,45,160.47
74,B1,10.0,0.375,28,160.47
75,G2,10.0,0.375,28,160.47
76,B1,10.5,0.375,28,160.47
77,G2,10.5,0.375,28,160.47
78,B1,11.0,0.375,28,160.47
79,G2,11.0,0.375,28,160.47
80,B1,11.5,0.375,28,160.47
81,G2,11.5,0.375,28,160.47
82,C#6,11.875,0.125,46,160.47
83,D6,12.0,1.25,57,160.47
84,B1,12.0,0.375,28,160.47
85,G2,12.0,0.375,28,160.47
86,B1,12.5,0.375,28,160.47
87,G2,12.5,0.375,28,160.47
88,B1,13.0,0.375,28,160.47
89,G2,13.0,0.375,28,160.47
90,C6,13.25,0.25,48,160.47
91,B5,13.5,0.25,47,160.47
92,B1,13.5,0.375,28,160.47
93,G2,13.5,0.375,28,160.47
94,A5,13.75,0.25,45,160.47
95,G5,14.0,0.5,44,160.47
96,B1,14.0,0.375,28,160.47
97,G2,14.0,0.375,28,160.47
98,B1,14.5,0.375,28,160.47
99,G2,14.5,0.375,28,160.47
100,B1,15.0,0.375,28,160.47
101,G2,15.0,0.375,28,160.47
102,B1,15.5,0.375,28,160.47
103,G2,15.5,0.375,28,160.47
104,B-2,16.0,0.375,32,160.47
105,D3,16.0,0.375,32,160.47
106,F2,16.0,0.375,28,160.47
107,B-1,16.0,0.375,28,160.47
108,B-2,16.5,0.375,32,160.47
109,D3,16.5,0.375,32,160.47
110,F2,16.5,0.375,28,160.47
111,B-1,16.5,0.375,28,160.47
112,B-2,17.0,0.375,32,160.47
113,D3,17.0,0.375,32,160.47
114,F2,17.0,0.375,28,160.47
115,B-1,17.0,0.375,28,160.47
116,B-2,17.5,0.375,33,160.47
117,D3,17.5,0.375,33,160.47
118,F2,17.5,0.375,28,160.47
119,B-1,17.5,0.375,28,160.47
120,B-2,18.0,0.375,34,160.47
121,D3,18.0,0.375,34,160.47
122,F2,18.0,0.375,28,160.47
123,B-1,18.0,0.375,28,160.47
124,B-2,18.5,0.375,34,160.47
125,D3,18.5,0.375,34,160.47
126,F2,18.5,0.375,28,160.47
127,B-1,18.5,0.375,28,160.47
128,B-2,19.0,0.375,35,160.47
129,D3,19.0,0.375,35,160.47
130,F2,19.0,0.375,28,160.47
131,B-1,19.0,0.375,28,160.47
132,B-2,19.5,0.375,36,160.47
133,D3,19.5,0.375,36,160.47
134,F2,19.5,0.375,28,160.47
135,B-1,19.5,0.375,28,160.47
136,B-2,20.0,0.375,36,160.47
137,D3,20.0,0.375,36,160.47
138,B-1,20.0,0.375,28,160.47
139,F2,20.0,0.375,28,160.47
140,B-2,20.5,0.375,37,160.47
141,D3,20.5,0.375,37,160.47
142,B-1,20.5,0.375,28,160.47
143,F2,20.5,0.375,28,160.47
144,B-2,21.0,0.375,37,160.47
145,D3,21.0,0.375,37,160.47
146,B-1,21.0,0.375,28,160.47
147,F2,21.0,0.375,28,160.47
148,B-2,21.5,0.375,37,160.47
149,D3,21.5,0.375,37,160.47
150,B-1,21.5,0.375,28,160.47
151,F2,21.5,0.375,28,160.47
152,B-2,22.0,0.375,37,160.47
153,D3,22.0,0.375,37,160.47
154,B-1,22.0,0.375,28,160.47
155,F2,22.0,0.375,28,160.47
156,B-2,22.5,0.375,37,160.47
157,D3,22.5,0.375,37,160.47
158,B-1,22.5,0.375,28,160.47
159,F2,22.5,0.375,28,160.47
160,C3,23.0,0.375,37,160.47
161,E3,23.0,0.375,37,160.47
162,B-1,23.0,0.375,28,160.47
163,G2,23.0,0.375,28,160.47
164,C3,23.5,0.375,37,160.47
165,E3,23.5,0.375,37,160.47
166,B-1,23.5,0.375,28,160.47
167,G2,23.5,0.375,28,160.47
168,C3,24.0,1.5,42,160.47
169,F3,24.0,1.5,42,160.47
170,A1,24.0,0.375,28,160.47
171,F2,24.0,0.375,28,160.47
172,A1,24.5,0.375,28,160.47
173,F2,24.5,0.375,28,160.47
174,A1,25.0,0.375,28,160.47
175,F2,25.0,0.375,28,160.47
176,A3,25.5,0.25,40,160.47
177,A1,25.5,0.375,28,160.47
178,F2,25.5,0.375,28,160.47
179,G3,25.75,0.25,40,160.47
180,F3,26.0,0.25,45,160.47
181,A1,26.0,0.375,28,160.47
182,F2,26.0,0.375,28,160.47
183,A1,26.5,0.375,28,160.47
184,F2,26.5,0.375,28,160.47
185,A1,27.0,0.375,28,160.47
186,F2,27.0,0.375,28,160.47
187,A1,27.5,0.375,28,160.47
188,F2,27.5,0.375,28,160.47
189,B5,27.875,0.125,46,160.47
190,C6,28.0,1.25,57,160.47
191,G#1,28.0,0.375,28,160.47
192,F2,28.0,0.375,28,160.47
193,G#1,28.5,0.375,28,160.47
194,F2,28.5,0.375,28,160.47
195,G#1,29.0,0.375,28,160.47
196,F2,29.0,0.375,28,160.47
197,B-5,29.25,0.25,50,160.47
198,G#5,29.5,0.25,49,160.47
199,G#1,29.5,0.375,28,160.47
200,F2,29.5,0.375,28,160.47
201,G5,29.75,0.25,47,160.47
202,F5,30.0,0.5,46,160.47
203,G#1,30.0,0.375,28,160.47
204,F2,30.0,0.375,28,160.47
205,G#1,30.5,0.375,28,160.47
206,F2,30.5,0.375,28,160.47
207,G#1,31.0,0.375,28,160.47
208,F2,31.0,0.375,28,160.47
209,G#1,31.5,0.375,28,160.47
210,F2,31.5,0.375,28,160.47
211,E6,31.875,0.125,67,160.47
212,F6,32.0,3.0,73,160.47
213,G1,32.0,0.375,33,160.47
214,F2,32.0,0.375,33,160.47
215,G1,32.5,0.375,35,160.47
216,F2,32.5,0.375,35,160.47
217,G1,33.0,0.375,36,160.47
218,F2,33.0,0.375,36,160.47
219,G1,33.5,0.375,38,160.47
220,F2,33.5,0.375,38,160.47
221,G1,34.0,0.375,40,160.47
222,F2,34.0,0.375,40,160.47
223,G1,34.5,0.375,42,160.47
224,F2,34.5,0.375,42,160.47
225,F6,35.0,0.25,74,160.47
226,G#1,35.0,0.375,42,160.47
227,F2,35.0,0.375,42,160.47
228,E-6,35.25,0.25,73,160.47
229,D6,35.5,0.25,71,160.47
230,G#1,35.5,0.375,44,160.47
231,F2,35.5,0.375,44,160.47
232,C6,35.75,0.25,70,160.47
233,B5,36.0,0.25,72,160.47
234,G1,36.0,0.375,48,160.47
235,F2,36.0,0.375,48,160.47
236,C6,36.25,0.25,71,160.47
237,D6,36.5,0.25,72,160.47
238,G1,36.5,0.375,48,160.47
239,F2,36.5,0.375,48,160.47
240,E-6,36.75,0.25,73,160.47
241,F6,37.0,0.25,74,160.47
242,G#1,37.0,0.375,50,160.47
243,F2,37.0,0.375,50,160.47
244,E-6,37.25,0.25,72,160.47
245,D6,37.5,0.25,71,160.47
246,G#1,37.5,0.375,50,160.47
247,F2,37.5,0.375,50,160.47
248,C6,37.75,0.25,69,160.47
249,B5,38.0,0.25,72,160.47
250,G1,38.0,0.375,53,160.47
251,F2,38.0,0.375,53,160.47
252,C6,38.25,0.25,75,160.47
253,D6,38.5,0.25,77,160.47
254,G1,38.5,0.375,56,160.47
255,F2,38.5,0.375,56,160.47
256,E-6,38.75,0.25,80,160.47
257,F6,39.0,0.25,80,160.47
258,G#1,39.0,0.375,59,160.47
259,F2,39.0,0.375,59,160.47
260,E-6,39.25,0.25,80,160.47
261,D6,39.5,0.25,79,160.47
262,G#1,39.5,0.375,61,160.47
263,F2,39.5,0.375,61,160.47
264,C6,39.75,0.25,81,160.47
265,B5,40.0,0.25,85,160.47
266,G1,40.0,1.0,78,160.47
267,F2,40.0,1.0,78,160.47
268,C6,40.25,0.25,89,160.47
269,D6,40.5,0.25,94,160.47
270,E-6,40.75,0.25,98,160.47
271,F6,41.0,0.25,100,160.47
272,G2,41.0,2.5,88,160.47
273,G3,41.0,2.5,88,160.47
274,E-6,41.25,0.25,98,160.47
275,D6,41.5,0.25,96,160.47
276,C6,41.75,0.25,94,160.47
277,B5,42.0,0.25,93,160.47
278,G#5,42.25,0.25,91,160.47
279,G5,42.5,0.25,89,160.47
280,F5,42.75,0.25,87,160.47
281,E-5,43.0,0.25,85,160.47
282,D5,43.25,0.25,83,160.47
283,C5,43.5,0.25,81,160.47
284,A3,43.5,0.25,67,160.47
285,B4,43.75,0.25,79,160.47
286,B3,43.75,0.25,70,160.47
287,C5,44.0,0.375,93,160.47
288,C4,44.0,0.375,72,160.47
289,G4,45.0,0.375,83,160.47
290,G2,45.0,0.375,61,160.47
291,G3,45.0,0.375,61,160.47
292,E-4,46.0,0.375,72,160.47
293,E-2,46.0,0.375,57,160.47
294,E-3,46.0,0.375,57,160.47
295,C4,47.0,0.375,64,160.47
296,C2,47.0,0.375,52,160.47
297,C3,47.0,0.375,52,160.47
298,G3,48.0,4.0,60,160.47
299,G1,48.0,4.0,50,160.47
300,G2,48.0,4.0,50,160.47
301,E4,52.0,31/125,37,160.47
302,C2,52.0,4.0,30,160.47
303,C3,52.0,0.5,30,160.47
304,C4,52.25,0.25,33,160.47
305,E4,52.5,31/125,37,160.47
306,C3,52.5,31/125,31,160.47
307,C4,52.75,0.25,33,160.47
308,G3,52.75,0.25,26,160.47
309,E4,53.0,31/125,37,160.47
310,C3,53.0,31/125,31,160.47
311,C4,53.25,0.25,33,160.47
312,G3,53.25,0.25,27,160.47
313,E4,53.5,31/125,36,160.47
314,C3,53.5,31/125,31,160.47
315,C4,53.75,0.25,33,160.47
316,G3,53.75,0.25,27,160.47
317,E4,54.0,31/125,36,160.47
318,C3,54.0,31/125,31,160.47
319,C4,54.25,0.25,33,160.47
320,G3,54.25,0.25,26,160.47
321,E4,54.5,31/125,37,160.47
322,C3,54.5,31/125,31,160.47
323,C4,54.75,0.25,33,160.47
324,G3,54.75,0.25,27,160.47
325,E4,55.0,31/125,36,160.47
326,C3,55.0,31/125,31,160.47
327,C4,55.25,0.25,33,160.47
328,G3,55.25,0.25,27,160.47
329,E4,55.5,31/125,36,160.47
330,C3,55.5,31/125,31,160.47
331,C4,55.75,0.25,33,160.47
332,G3,55.75,0.25,25,160.47
333,E4,56.0,31/125,37,160.47
334,C3,56.0,31/125,31,160.47
335,C4,56.25,0.25,33,160.47
336,G3,56.25,0.25,26,160.47
337,E4,56.5,31/125,37,160.47
338,C3,56.5,31/125,31,160.47
339,C4,56.75,0.25,33,160.47
340,G3,56.75,0.25,26,160.47
341,E4,57.0,31/125,37,160.47
342,C3,57.0,31/125,31,160.47
343,C4,57.25,0.25,33,160.47
344,G3,57.25,0.25,27,160.47
345,E4,57.5,31/125,36,160.47
346,C3,57.5,31/125,31,160.47
347,C4,57.75,0.25,33,160.47
348,G3,57.75,0.25,27,160.47
349,E4,58.0,31/125,36,160.47
350,C3,58.0,31/125,31,160.47
351,C4,58.25,0.25,33,160.47
352,G3,58.25,0.25,26,160.47
353,E4,58.5,31/125,37,160.47
354,C3,58.5,31/125,31,160.47
355,C4,58.75,0.25,33,160.47
356,G3,58.75,0.25,27,160.47
357,F#4,59.0,31/125,36,160.47
358,C3,59.0,31/125,31,160.47
359,D4,59.25,0.25,33,160.47
360,A3,59.25,0.25,27,160.47
361,F#4,59.5,31/125,36,160.47
362,C3,59.5,31/125,31,160.47
363,D4,59.75,0.25,33,160.47
364,A3,59.75,0.25,25,160.47
365,G4,60.0,1.5,46,160.47
366,B2,60.0,0.375,28,160.47
367,D3,60.0,0.375,28,160.47
368,G3,60.25,0.25,25,160.47
369,B2,60.5,0.375,28,160.47
370,D3,60.5,0.375,28,160.47
371,G3,60.75,0.25,25,160.47
372,B2,61.0,0.375,28,160.47
373,D3,61.0,0.375,28,160.47
374,G3,61.25,0.25,25,160.47
375,B4,61.5,0.25,40,160.47
376,B2,61.5,0.375,28,160.47
377,D3,61.5,0.375,28,160.47
378,A4,61.75,0.25,40,160.47
379,G3,61.75,0.25,25,160.47
380,G4,62.0,0.25,45,160.47
381,B2,62.0,0.375,28,160.47
382,D3,62.0,0.375,28,160.47
383,G3,62.25,0.25,25,160.47
384,B2,62.5,0.375,28,160.47
385,D3,62.5,0.375,28,160.47
386,G3,62.75,0.25,25,160.47
387,B2,63.0,0.375,28,160.47
388,D3,63.0,0.375,28,160.47
389,G3,63.25,0.25,25,160.47
390,B2,63.5,0.375,28,160.47
391,D3,63.5,0.375,28,160.47
392,G3,63.75,0.25,25,160.47
393,C#6,63.875,0.125,46,160.47
394,D6,64.0,1.25,57,160.47
395,B2,64.0,0.375,28,160.47
396,D3,64.0,0.375,28,160.47
397,G3,64.25,0.25,25,160.47
398,B2,64.5,0.375,28,160.47
399,D3,64.5,0.375,28,160.47
400,G3,64.75,0.25,25,160.47
401,B2,65.0,0.375,28,160.47
402,D3,65.0,0.375,28,160.47
403,C6,65.25,0.25,48,160.47
404,G3,65.25,0.25,25,160.47
405,B5,65.5,0.25,47,160.47
406,B2,65.5,0.375,28,160.47
407,D3,65.5,0.375,28,160.47
408,A5,65.75,0.25,45,160.47
409,G3,65.75,0.25,25,160.47
410,G5,66.0,0.5,44,160.47
411,B2,66.0,0.375,28,160.47
412,D3,66.0,0.375,28,160.47
413,G3,66.25,0.25,25,160.47
414,B2,66.5,0.375,28,160.47
415,D3,66.5,0.375,28,160.47
416,G3,66.75,0.25,25,160.47
417,B2,67.0,0.375,28,160.47
418,D3,67.0,0.375,28,160.47
419,G3,67.25,0.25,25,160.47
420,B2,67.5,0.375,28,160.47
421,D3,67.5,0.375,28,160.47
422,G3,67.75,0.25,25,160.47
423,F4,68.0,31/125,40,160.47
424,D2,68.0,4.0,33,160.47
425,D3,68.0,0.5,33,160.47
426,D4,68.25,0.25,36,160.47
427,F4,68.5,31/125,40,160.47
428,D3,68.5,31/125,34,160.47
429,D4,68.75,0.25,36,160.47
430,A3,68.75,0.25,28,160.47
431,F4,69.0,31/125,40,160.47
432,D3,69.0,31/125,34,160.47
433,D4,69.25,0.25,36,160.47
434,A3,69.25,0.25,29,160.47
435,F4,69.5,31/125,39,160.47
436,D3,69.5,31/125,34,160.47
437,D4,69.75,0.25,36,160.47
438,A3,69.75,0.25,29,160.47
439,F4,70.0,31/125,39,160.47
440,D3,70.0,31/125,34,160.47
441,D4,70.25,0.25,36,160.47
442,A3,70.25,0.25,28,160.47
443,F4,70.5,31/125,41,160.47
444,D3,70.5,31/125,34,160.47
445,D4,70.75,0.25,36,160.47
446,A3,70.75,0.25,29,160.47
447,F4,71.0,31/125,40,160.47
448,D3,71.0,31/125,34,160.47
449,D4,71.25,0.25,37,160.47
450,A3,71.25,0.25,30,160.47
451,F4,71.5,31/125,40,160.47
452,D3,71.5,31/125,35,160.47
453,D4,71.75,0.25,37,160.47
454,A3,71.75,0.25,28,160.47
455,F4,72.0,31/125,41,160.47
456,D3,72.0,31/125,35,160.47
457,D4,72.25,0.25,37,160.47
458,A3,72.25,0.25,29,160.47
459,F4,72.5,31/125,41,160.47
460,D3,72.5,31/125,35,160.47
461,D4,72.75,0.25,37,160.47
462,A3,72.75,0.25,29,160.47
463,F4,73.0,31/125,42,160.47
464,D3,73.0,31/125,35,160.47
465,D4,73.25,0.25,37,160.47
466,A3,73.25,0.25,30,160.47
467,F4,73.5,31/125,41,160.47
468,D3,73.5,31/125,35,160.47
469,D4,73.75,0.25,38,160.47
470,A3,73.75,0.25,30,160.47
471,F4,74.0,31/125,41,160.47
472,D3,74.0,31/125,36,160.47
473,D4,74.25,0.25,38,160.47
474,A3,74.25,0.25,29,160.47
475,F4,74.5,31/125,42,160.47
476,D3,74.5,31/125,36,160.47
477,D4,74.75,0.25,38,160.47
478,A3,74.75,0.25,31,160.47
479,G#4,75.0,31/125,41,160.47
480,D3,75.0,31/125,36,160.47
481,E4,75.25,0.25,38,160.47
482,B3,75.25,0.25,31,160.47
483,G#4,75.5,31/125,42,160.47
484,D3,75.5,31/125,36,160.47
485,E4,75.75,0.25,38,160.47
486,B3,75.75,0.25,29,160.47
487,A4,76.0,1.5,55,160.47
488,C3,76.0,0.375,34,160.47
489,E3,76.0,0.375,34,160.47
490,A3,76.25,0.25,29,160.47
491,C3,76.5,0.375,34,160.47
492,E3,76.5,0.375,34,160.47
493,A3,76.75,0.25,29,160.47
494,C3,77.0,0.375,34,160.47
495,E3,77.0,0.375,34,160.47
496,A3,77.25,0.25,29,160.47
497,C5,77.5,0.25,48,160.47
498,C3,77.5,0.375,34,160.47
499,E3,77.5,0.375,34,160.47
500,B4,77.75,0.25,48,160.47
501,A3,77.75,0.25,29,160.47
502,A4,78.0,0.25,53,160.47
503,C3,78.0,0.375,34,160.47
504,E3,78.0,0.375,34,160.47
505,A3,78.25,0.25,29,160.47
506,C3,78.5,0.375,34,160.47
507,E3,78.5,0.375,34,160.47
508,A3,78.75,0.25,29,160.47
509,C3,79.0,0.375,34,160.47
510,E3,79.0,0.375,34,160.47
511,A3,79.25,0.25,29,160.47
512,C3,79.5,0.375,34,160.47
513,E3,79.5,0.375,34,160.47
514,A3,79.75,0.25,29,160.47
515,E-6,79.875,0.125,55,160.47
516,E6,80.0,1.25,68,160.47
517,C3,80.0,0.375,34,160.47
518,E3,80.0,0.375,34,160.47
519,A3,80.25,0.25,29,160.47
520,C3,80.5,0.375,34,160.47
521,E3,80.5,0.375,34,160.47
522,A3,80.75,0.25,29,160.47
523,C3,81.0,0.375,34,160.47
524,E3,81.0,0.375,34,160.47
525,D6,81.25,0.25,59,160.47
526,A3,81.25,0.25,29,160.47
527,C6,81.5,0.25,58,160.47
528,C3,81.5,0.375,34,160.47
529,E3,81.5,0.375,34,160.47
530,B5,81.75,0.25,57,160.47
531,A3,81.75,0.25,31,160.47
532,A5,82.0,0.5,57,160.47
533,C3,82.0,0.375,36,160.47
534,E3,82.0,0.375,36,160.47
535,A3,82.25,0.25,31,160.47
536,C3,82.5,0.375,36,160.47
537,E3,82.5,0.375,36,160.47
538,A3,82.75,0.25,31,160.47
539,C3,83.0,0.375,37,160.47
540,E3,83.0,0.375,37,160.47
541,A3,83.25,0.25,33,160.47
542,C3,83.5,0.375,38,160.47
543,E3,83.5,0.375,38,160.47
544,A3,83.75,0.25,33,160.47
545,E-6,83.875,0.125,66,160.47
546,E6,84.0,1.25,85,160.47
547,C3,84.0,0.375,41,160.47
548,E3,84.0,0.375,41,160.47
549,B-3,84.25,0.25,36,160.47
550,C3,84.5,0.375,42,160.47
551,E3,84.5,0.375,42,160.47
552,B-3,84.75,0.25,37,160.47
553,C3,85.0,0.375,43,160.47
554,E3,85.0,0.375,43,160.47
555,D6,85.25,0.25,76,160.47
556,B-3,85.25,0.25,38,160.47
557,C6,85.5,0.25,75,160.47
558,C3,85.5,0.375,43,160.47
559,E3,85.5,0.375,43,160.47
560,B5,85.75,0.25,71,160.47
561,B-3,85.75,0.25,38,160.47
562,B-5,86.0,0.5,71,160.47
563,C3,86.0,0.375,46,160.47
564,E3,86.0,0.375,46,160.47
565,B-3,86.25,0.25,40,160.47
566,C3,86.5,0.375,46,160.47
567,E3,86.5,0.375,46,160.47
568,B-3,86.75,0.25,40,160.47
569,C3,87.0,0.375,46,160.47
570,E3,87.0,0.375,46,160.47
571,B-3,87.25,0.25,42,160.47
572,C3,87.5,0.375,48,160.47
573,E3,87.5,0.375,48,160.47
574,B-3,87.75,0.25,42,160.47
575,B5,88.0,323/250,56,160.47
576,B2,88.0,73/250,40,160.47
577,E-3,88.25,73/250,35,160.47
578,F#3,88.5,73/250,35,160.47
579,B3,88.75,0.25,35,160.47
580,B2,89.0,73/250,41,160.47
581,A5,89.25,73/250,54,160.47
582,E-3,89.25,73/250,35,160.47
583,G5,89.5,73/250,53,160.47
584,F#3,89.5,73/250,35,160.47
585,F#5,89.75,73/250,51,160.47
586,B3,89.75,0.25,35,160.47
587,G5,90.0,73/250,53,160.47
588,B2,90.0,73/250,39,160.47
589,F#5,90.25,73/250,52,160.47
590,E3,90.25,73/250,35,160.47
591,E5,90.5,73/250,51,160.47
592,G3,90.5,73/250,35,160.47
593,E-5,90.75,73/250,50,160.47
594,B3,90.75,0.25,35,160.47
595,E5,91.0,73/250,50,160.47
596,B2,91.0,73/250,40,160.47
597,G5,91.25,73/250,52,160.47
598,E3,91.25,73/250,35,160.47
599,F#5,91.5,73/250,50,160.47
600,G3,91.5,73/250,35,160.47
601,E5,91.75,0.25,50,160.47
602,B3,91.75,0.25,35,160.47
603,E-5,92.0,73/250,50,160.47
604,E5,92.0,21/500,50,160.47
605,B2,92.0,73/250,40,160.47
606,C#5,92.25,73/250,49,160.47
607,F#3,92.25,73/250,35,160.47
608,B4,92.5,73/250,48,160.47
609,A3,92.5,73/250,35,160.47
610,B-4,92.75,73/250,47,160.47
611,B3,92.75,0.25,35,160.47
612,B4,93.0,73/250,49,160.47
613,B2,93.0,73/250,40,160.47
614,C#5,93.25,73/250,49,160.47
615,F#3,93.25,73/250,35,160.47
616,D5,93.5,73/250,49,160.47
617,A3,93.5,73/250,35,160.47
618,E-5,93.75,73/250,50,160.47
619,B3,93.75,0.25,35,160.47
620,E5,94.0,73/250,50,160.47
621,B2,94.0,73/250,40,160.47
622,E-5,94.25,73/250,50,160.47
623,E3,94.25,73/250,35,160.47
624,E5,94.5,73/250,51,160.47
625,G3,94.5,73/250,35,160.47
626,F#5,94.75,73/250,51,160.47
627,B3,94.75,0.25,35,160.47
628,G5,95.0,73/250,49,160.47
629,B2,95.0,73/250,40,160.47
630,G#5,95.25,73/250,50,160.47
631,E3,95.25,73/250,35,160.47
632,A5,95.5,73/250,52,160.47
633,G3,95.5,73/250,35,160.47
634,B-5,95.75,0.25,53,160.47
635,B3,95.75,0.25,35,160.47
636,B5,96.0,73/250,55,160.47
637,B-5,96.0,21/500,53,160.47
638,B2,96.0,73/250,40,160.47
639,B-5,96.25,73/250,53,160.47
640,E-3,96.25,73/250,35,160.47
641,B5,96.5,73/250,53,160.47
642,F#3,96.5,73/250,35,160.47
643,B-5,96.75,73/250,50,160.47
644,B3,96.75,0.25,35,160.47
645,B5,97.0,73/250,52,160.47
646,B2,97.0,73/250,40,160.47
647,A5,97.25,73/250,52,160.47
648,E-3,97.25,73/250,35,160.47
649,G5,97.5,73/250,51,160.47
650,F#3,97.5,73/250,35,160.47
651,F#5,97.75,73/250,50,160.47
652,B3,97.75,0.25,35,160.47
653,G5,98.0,73/250,52,160.47
654,B2,98.0,73/250,40,160.47
655,F#5,98.25,73/250,51,160.47
656,E3,98.25,73/250,35,160.47
657,E5,98.5,73/250,49,160.47
658,G3,98.5,73/250,35,160.47
659,E-5,98.75,73/250,50,160.47
660,B3,98.75,0.25,35,160.47
661,E5,99.0,73/250,50,160.47
662,B2,99.0,73/250,41,160.47
663,G5,99.25,73/250,53,160.47
664,E3,99.25,73/250,35,160.47
665,F#5,99.5,73/250,50,160.47
666,G3,99.5,73/250,35,160.47
667,E5,99.75,0.25,50,160.47
668,B3,99.75,0.25,35,160.47
669,E-5,100.0,73/250,50,160.47
670,E5,100.0,21/500,50,160.47
671,B2,100.0,73/250,40,160.47
672,C#5,100.25,73/250,49,160.47
673,F#3,100.25,73/250,35,160.47
674,B4,100.5,73/250,48,160.47
675,A3,100.5,73/250,35,160.47
676,B-4,100.75,73/250,47,160.47
677,B3,100.75,0.25,35,160.47
678,B4,101.0,73/250,49,160.47
679,B2,101.0,73/250,40,160.47
680,C#5,101.25,73/250,50,160.47
681,F#3,101.25,73/250,36,160.47
682,D5,101.5,73/250,50,160.47
683,A3,101.5,73/250,36,160.47
684,E-5,101.75,73/250,52,160.47
685,B3,101.75,0.25,36,160.47
686,E5,102.0,73/250,52,160.47
687,B2,102.0,73/250,42,160.47
688,E-5,102.25,73/250,52,160.47
689,E3,102.25,73/250,36,160.47
690,E5,102.5,73/250,54,160.47
691,G3,102.5,73/250,37,160.47
692,F#5,102.75,73/250,54,160.47
693,B3,102.75,0.25,37,160.47
694,G5,103.0,73/250,56,160.47
695,B2,103.0,73/250,42,160.47
696,G#5,103.25,73/250,58,160.47
697,E3,103.25,73/250,37,160.47
698,A5,103.5,73/250,60,160.47
699,G3,103.5,73/250,37,160.47
700,B-5,103.75,0.25,62,160.47
701,B3,103.75,0.25,38,160.47
702,B5,104.0,0.25,68,160.47
703,B-5,104.0,21/500,62,160.47
704,B2,104.0,0.25,44,160.47
705,F#5,104.25,0.25,60,160.47
706,E-3,104.25,0.25,38,160.47
707,E-5,104.5,0.25,61,160.47
708,F#3,104.5,0.25,38,160.47
709,B4,104.75,0.25,61,160.47
710,B3,104.75,0.25,38,160.47
711,B-4,105.0,0.25,75,160.47
712,B-3,105.0,0.25,50,160.47
713,B4,105.25,0.25,63,160.47
714,B3,105.25,0.25,41,160.47
715,E5,105.5,0.25,63,160.47
716,G3,105.5,0.25,40,160.47
717,G5,105.75,0.25,63,160.47
718,E3,105.75,0.25,41,160.47
719,B5,106.0,0.25,74,160.47
720,B2,106.0,0.25,52,160.47
721,F#5,106.25,0.25,65,160.47
722,E-3,106.25,0.25,44,160.47
723,E-5,106.5,0.25,68,160.47
724,F#3,106.5,0.25,45,160.47
725,B4,106.75,0.25,68,160.47
726,B3,106.75,0.25,45,160.47
727,B-4,107.0,0.25,80,160.47
728,B-3,107.0,0.25,60,160.47
729,B4,107.25,0.25,71,160.47
730,B3,107.25,0.25,51,160.47
731,E5,107.5,0.25,71,160.47
732,G3,107.5,0.25,51,160.47
733,G5,107.75,0.25,72,160.47
734,E3,107.75,0.25,52,160.47
735,B5,108.0,0.25,91,160.47
736,B2,108.0,0.25,63,160.47
737,F#5,108.25,0.25,82,160.47
738,E-3,108.25,0.25,52,160.47
739,E-5,108.5,0.25,82,160.47
740,F#3,108.5,0.25,52,160.47
741,B4,108.75,0.25,82,160.47
742,B3,108.75,0.25,52,160.47
743,B5,109.0,0.25,91,160.47
744,B2,109.0,0.25,63,160.47
745,G5,109.25,0.25,82,160.47
746,E3,109.25,0.25,52,160.47
747,E5,109.5,0.25,82,160.47
748,G3,109.5,0.25,52,160.47
749,B4,109.75,0.25,82,160.47
750,B3,109.75,0.25,52,160.47
751,B5,110.0,0.25,91,160.47
752,B2,110.0,0.25,63,160.47
753,F#5,110.25,0.25,82,160.47
754,E-3,110.25,0.25,52,160.47
755,E-5,110.5,0.25,81,160.47
756,F#3,110.5,0.25,52,160.47
757,B4,110.75,0.25,81,160.47
758,B3,110.75,0.25,52,160.47
759,B5,111.0,0.25,91,160.47
760,B2,111.0,0.25,63,160.47
761,G5,111.25,0.25,81,160.47
762,E3,111.25,0.25,52,160.47
763,E5,111.5,0.25,81,160.47
764,G3,111.5,0.25,52,160.47
765,B4,111.75,0.25,82,160.47
766,B3,111.75,0.25,52,160.47
767,B5,112.0,0.25,91,160.47
768,B2,112.0,1.0,56,160.47
769,E-3,112.0,1.0,56,160.47
770,F#3,112.0,1.0,56,160.47
771,B3,112.0,1.0,56,160.47
772,F#5,112.25,0.25,82,160.47
773,E-5,112.5,0.25,82,160.47
774,B4,112.75,0.25,82,160.47
775,F#5,113.0,0.25,91,160.47
776,E-5,113.25,0.25,82,160.47
777,B4,113.5,0.25,82,160.47
778,F#4,113.75,0.25,82,160.47
779,E-5,114.0,0.25,91,160.47
780,B4,114.25,0.25,82,160.47
781,F#4,114.5,0.25,81,160.47
782,E-4,114.75,0.25,81,160.47
783,B4,115.0,0.25,91,160.47
784,F#4,115.25,0.25,81,160.47
785,E-4,115.5,0.25,81,160.47
786,B3,115.75,0.25,82,160.47
787,F#4,116.0,0.25,91,160.47
788,E-4,116.25,0.25,81,160.47
789,B3,116.5,0.25,80,160.47
790,F#3,116.75,0.25,80,160.47
791,E-4,117.0,0.25,89,160.47
792,B3,117.25,0.25,79,160.47
793,F#3,117.5,0.25,79,160.47
794,E-3,117.75,0.25,78,160.47
795,B3,118.0,0.25,87,160.47
796,F#3,118.25,0.25,78,160.47
797,E-3,118.5,0.25,77,160.47
798,B2,118.75,0.25,77,160.47
799,B1,119.0,0.25,85,160.47
800,E-2,119.25,0.25,76,160.47
801,F#2,119.5,0.25,76,160.47
802,B2,119.75,0.25,75,160.47
803,B1,120.0,0.25,77,160.47
804,B2,120.5,0.25,68,160.47
805,C#2,121.0,0.25,73,160.47
806,C#3,121.5,0.25,66,160.47
807,B4,122.0,0.25,75,160.47
808,E-2,122.0,0.25,71,160.47
809,B3,122.5,0.25,69,160.47
810,E-3,122.5,0.25,65,160.47
811,C#5,123.0,0.25,74,160.47
812,C#4,123.5,0.25,65,160.47
813,E-5,124.0,0.25,71,160.47
814,E-2,124.0,0.25,69,160.47
815,E-4,124.5,0.25,64,160.47
816,E-3,124.5,0.25,61,160.47
817,E2,125.0,0.25,65,160.47
818,E3,125.5,0.25,59,160.47
819,E-5,126.0,0.25,67,160.47
820,F#2,126.0,0.25,65,160.47
821,E-4,126.5,0.25,53,160.47
822,F#3,126.5,0.25,54,160.47
823,E5,127.0,0.25,59,160.47
824,E4,127.5,0.25,50,160.47
825,F#5,128.0,0.25,52,160.47
826,F#4,128.5,0.25,49,160.47
827,G#5,129.0,0.25,52,160.47
828,G#4,129.5,0.25,49,160.47
829,A5,130.0,0.25,52,160.47
830,F#2,130.0,0.25,41,160.47
831,A4,130.5,0.25,48,160.47
832,F#3,130.5,0.25,36,160.47
833,A5,131.0,0.25,52,160.47
834,G#2,131.0,0.25,41,160.47
835,B4,131.5,0.25,46,160.47
836,G#3,131.5,0.25,36,160.47
837,A5,132.0,0.25,51,160.47
838,A2,132.0,0.25,40,160.47
839,C#5,132.5,0.25,46,160.47
840,A3,132.5,0.25,37,160.47
841,A5,133.0,0.25,51,160.47
842,B2,133.0,0.25,39,160.47
843,E-5,133.5,0.25,46,160.47
844,B3,133.5,0.25,36,160.47
845,A5,134.0,0.25,51,160.47
846,C#3,134.0,0.25,38,160.47
847,E5,134.5,0.25,47,160.47
848,C#4,134.5,0.25,37,160.47
849,A5,135.0,0.25,50,160.47
850,E-3,135.0,0.25,40,160.47
851,F#5,135.5,0.25,46,160.47
852,E-4,135.5,0.25,37,160.47
853,B4,136.0,2.0,46,160.47
854,E5,136.0,2.0,46,160.47
855,G#5,136.0,2.0,46,160.47
856,G#4,136.0,2.0,36,160.47
857,E4,136.0,2.0,36,160.47
858,A4,138.0,1.0,44,160.47
859,E-5,138.0,1.0,44,160.47
860,F#5,138.0,1.0,44,160.47
861,F#4,138.0,1.0,31,160.47
862,E-4,138.0,1.0,31,160.47
863,B3,138.0,1.0,31,160.47
864,G#4,139.0,1.0,44,160.47
865,C#5,139.0,1.0,44,160.47
866,E5,139.0,1.0,44,160.47
867,E4,139.0,1.0,32,160.47
868,C#4,139.0,1.0,32,160.47
869,F#4,140.0,2.0,46,160.47
870,C5,140.0,2.0,46,160.47
871,E-5,140.0,2.0,46,160.47
872,E-4,140.0,2.0,35,160.47
873,C4,140.0,2.0,35,160.47
874,G#3,140.0,2.0,35,160.47
875,E4,142.0,2.0,46,160.47
876,C#5,142.0,2.0,46,160.47
877,C#4,142.0,2.0,31,160.47
878,A3,142.0,2.0,31,160.47
879,A4,144.0,2.0,54,160.47
880,B4,144.0,2.0,54,160.47
881,E-5,144.0,2.0,54,160.47
882,F#3,144.0,2.0,41,160.47
883,A3,144.0,2.0,41,160.47
884,B3,144.0,2.0,41,160.47
885,E-4,144.0,2.0,41,160.47
886,B4,146.0,1.0,58,160.47
887,E5,146.0,1.0,58,160.47
888,G#3,146.0,1.0,43,160.47
889,B3,146.0,1.0,43,160.47
890,E4,146.0,1.0,43,160.47
891,C#5,147.0,1.0,58,160.47
892,E5,147.0,1.0,58,160.47
893,F#5,147.0,1.0,58,160.47
894,F#4,147.0,1.0,46,160.47
895,A3,147.0,1.0,46,160.47
896,C#4,147.0,1.0,46,160.47
897,B4,148.0,3.0,59,160.47
898,B3,148.0,999/250,49,160.47
899,E5,148.0,2.0,68,160.47
900,G#5,148.0,2.0,68,160.47
901,E4,148.0,2.0,54,160.47
902,G#4,148.0,2.0,54,160.47
903,E-5,150.0,2.0,40,160.47
904,F#5,150.0,2.0,40,160.47
905,E-4,150.0,2.0,30,160.47
906,F#4,150.0,2.0,30,160.47
907,A4,151.0,1.0,48,160.47
908,B3,152.0,2.0,40,160.47
909,E4,152.0,2.0,40,160.47
910,G#4,152.0,2.0,40,160.47
911,G#3,152.0,2.0,32,160.47
912,E3,152.0,2.0,32,160.47
913,A3,154.0,1.0,38,160.47
914,E-4,154.0,1.0,38,160.47
915,F#4,154.0,1.0,38,160.47
916,F#3,154.0,1.0,28,160.47
917,E-3,154.0,1.0,28,160.47
918,B2,154.0,1.0,28,160.47
919,G#3,155.0,1.0,38,160.47
920,C#4,155.0,1.0,38,160.47
921,E4,155.0,1.0,38,160.47
922,E3,155.0,1.0,28,160.47
923,C#3,155.0,1.0,28,160.47
924,F#3,156.0,2.0,40,160.47
925,C4,156.0,2.0,40,160.47
926,E-4,156.0,2.0,40,160.47
927,E-3,156.0,2.0,31,160.47
928,C3,156.0,2.0,31,160.47
929,G#2,156.0,2.0,31,160.47
930,A3,158.0,2.0,38,160.47
931,E3,158.0,2.0,38,160.47
932,C#4,158.0,2.0,38,160.47
933,C#3,158.0,2.0,28,160.47
934,A2,158.0,2.0,28,160.47
935,B3,160.0,2.0,52,160.47
936,E3,160.0,1.0,44,160.47
937,G#3,160.0,1.0,44,160.47
938,B1,160.0,4.0,36,160.47
939,B2,160.0,4.0,36,160.47
940,F#3,161.0,3.0,50,160.47
941,A3,161.0,3.0,50,160.47
942,C#4,162.0,1.0,61,160.47
943,E-4,163.0,1.0,69,160.47
944,G#3,164.0,333/1000,43,160.47
945,E4,164.0,0.25,49,160.47
946,E2,164.0,1.0,40,160.47
947,E3,164.0,1.0,40,160.47
948,F#4,164.333,0.25,48,160.47
949,G#4,164.667,0.25,49,160.47
950,A4,165.0,0.25,47,160.47
951,B4,165.333,0.25,48,160.47
952,C#5,165.667,0.25,49,160.47
953,D5,166.0,0.25,50,160.47
954,E-5,166.333,0.25,51,160.47
955,E5,166.667,0.25,52,160.47
956,F5,167.0,0.25,52,160.47
957,F#5,167.333,0.25,53,160.47
958,G5,167.667,0.25,53,160.47
959,B4,168.0,2.0,45,160.47
960,G#5,168.0,333/1000,57,160.47
961,G#4,168.0,2.0,40,160.47
962,E4,168.0,2.0,40,160.47
963,G5,168.333,333/1000,53,160.47
964,G#5,168.667,333/1000,53,160.47
965,A5,169.0,333/1000,53,160.47
966,G5,169.333,333/1000,53,160.47
967,G#5,169.667,333/1000,53,160.47
968,A4,170.0,1.0,60,160.47
969,F#4,170.0,1.0,35,160.47
970,E-4,170.0,1.0,35,160.47
971,B3,170.0,1.0,35,160.47
972,G#5,170.333,333/1000,54,160.47
973,F#5,170.667,333/1000,54,160.47
974,G#4,171.0,1.0,60,160.47
975,E4,171.0,1.0,36,160.47
976,C#4,171.0,1.0,36,160.47
977,F#5,171.333,333/1000,53,160.47
978,E5,171.667,333/1000,53,160.47
979,F#4,172.0,2.0,60,160.47
980,E-4,172.0,2.0,39,160.47
981,C4,172.0,2.0,39,160.47
982,G#3,172.0,2.0,39,160.47
983,C5,172.333,333/1000,54,160.47
984,E-5,172.667,333/1000,54,160.47
985,E5,173.0,333/1000,54,160.47
986,C5,173.333,333/1000,54,160.47
987,E-5,173.667,333/1000,54,160.47
988,E4,174.0,2.0,60,160.47
989,C#4,174.0,2.0,36,160.47
990,A3,174.0,2.0,36,160.47
991,A4,174.333,333/1000,54,160.47
992,C#5,174.667,333/1000,54,160.47
993,E-5,175.0,333/1000,54,160.47
994,A4,175.333,333/1000,54,160.47
995,C#5,175.667,333/1000,54,160.47
996,A4,176.0,2.0,62,160.47
997,F#3,176.0,2.0,43,160.47
998,A3,176.0,2.0,43,160.47
999,B3,176.0,2.0,43,160.47
1000,E-4,176.0,2.0,43,160.47
1001,D5,176.333,333/1000,62,160.47
1002,E-5,176.667,333/1000,57,160.47
1003,E5,177.0,333/1000,57,160.47
1004,D5,177.333,333/1000,59,160.47
1005,E-5,177.667,333/1000,59,160.47
1006,B4,178.0,1.0,71,160.47
1007,G#3,178.0,1.0,48,160.47
1008,B3,178.0,1.0,48,160.47
1009,E4,178.0,1.0,48,160.47
1010,F#5,178.333,333/1000,63,160.47
1011,E5,178.667,333/1000,64,160.47
1012,C#5,179.0,1.0,74,160.47
1013,F#4,179.0,1.0,52,160.47
1014,A3,179.0,1.0,52,160.47
1015,C#4,179.0,1.0,52,160.47
1016,G#5,179.333,333/1000,65,160.47
1017,F#5,179.667,333/1000,65,160.47
1018,G#5,180.0,333/1000,79,160.47
1019,E5,180.0,2.0,79,160.47
1020,B3,180.0,999/250,53,160.47
1021,E4,180.0,2.0,59,160.47
1022,G#4,180.0,2.0,59,160.47
1023,G5,180.333,333/1000,72,160.47
1024,G#5,180.667,333/1000,72,160.47
1025,B5,181.0,333/1000,68,160.47
1026,A5,181.333,333/1000,72,160.47
1027,G#5,181.667,333/1000,69,160.47
1028,E-5,182.0,333/1000,67,160.47
1029,F#5,182.0,333/1000,67,160.47
1030,E-4,182.0,1.0,49,160.47
1031,F#4,182.0,1.0,49,160.47
1032,C#5,182.333,333/1000,64,160.47
1033,E5,182.333,333/1000,64,160.47
1034,E-5,182.667,333/1000,60,160.47
1035,B4,182.667,333/1000,60,160.47
1036,B2,183.0,333/1000,44,160.47
1037,A4,183.0,333/1000,60,160.47
1038,C#5,183.0,333/1000,60,160.47
1039,C#3,183.333,333/1000,43,160.47
1040,G#4,183.333,333/1000,56,160.47
1041,B4,183.333,333/1000,56,160.47
1042,E-3,183.667,333/1000,41,160.47
1043,F#4,183.667,333/1000,53,160.47
1044,A4,183.667,333/1000,53,160.47
1045,B3,184.0,2.0,57,160.47
1046,G#4,184.0,333/1000,57,160.47
1047,G#3,184.0,2.0,41,160.47
1048,E3,184.0,2.0,41,160.47
1049,G4,184.333,333/1000,49,160.47
1050,G#4,184.667,333/1000,49,160.47
1051,A4,185.0,333/1000,49,160.47
1052,G4,185.333,333/1000,49,160.47
1053,G#4,185.667,333/1000,49,160.47
1054,A3,186.0,1.0,56,160.47
1055,F#3,186.0,1.0,36,160.47
1056,E-3,186.0,1.0,36,160.47
1057,B2,186.0,1.0,36,160.47
1058,G#4,186.333,333/1000,50,160.47
1059,F#4,186.667,333/1000,50,160.47
1060,G#3,187.0,1.0,56,160.47
1061,E3,187.0,1.0,37,160.47
1062,C#3,187.0,1.0,37,160.47
1063,F#4,187.333,333/1000,49,160.47
1064,E4,187.667,333/1000,49,160.47
1065,E-3,188.0,2.0,40,160.47
1066,F#3,188.0,2.0,40,160.47
1067,C3,188.0,2.0,40,160.47
1068,G#2,188.0,2.0,40,160.47
1069,C4,188.333,333/1000,50,160.47
1070,E-4,188.667,333/1000,50,160.47
1071,E4,189.0,333/1000,53,160.47
1072,C4,189.333,333/1000,50,160.47
1073,E-4,189.667,333/1000,50,160.47
1074,A2,190.0,2.0,37,160.47
1075,C#3,190.0,2.0,37,160.47
1076,E3,190.0,2.0,37,160.47
1077,A3,190.333,333/1000,50,160.47
1078,C#4,190.667,333/1000,50,160.47
1079,E-4,191.0,333/1000,53,160.47
1080,A3,191.333,333/1000,50,160.47
1081,C#4,191.667,333/1000,50,160.47
1082,E3,192.0,1.0,60,160.47
1083,B1,192.0,4.0,50,160.47
1084,B2,192.0,4.0,50,160.47
1085,G#3,192.333,333/1000,56,160.47
1086,B3,192.667,333/1000,57,160.47
1087,F#3,193.0,1.0,66,160.47
1088,A3,193.333,333/1000,61,160.47
1089,B3,193.667,333/1000,61,160.47
1090,F#3,194.0,1.0,74,160.47
1091,A3,194.333,333/1000,67,160.47
1092,C#4,194.667,333/1000,65,160.47
1093,F#3,195.0,1.0,80,160.47
1094,A3,195.333,333/1000,71,160.47
1095,E-4,195.667,333/1000,70,160.47
1096,G#3,196.0,333/1000,80,160.47
1097,E4,196.0,333/1000,80,160.47
1098,E2,196.0,1.0,55,160.47
1099,E3,196.0,1.0,55,160.47
1100,B3,196.333,333/1000,75,160.47
1101,G#3,196.667,333/1000,77,160.47
1102,B3,197.0,333/1000,82,160.47
1103,B2,197.0,2.0,76,160.47
1104,E4,197.333,333/1000,77,160.47
1105,G#4,197.667,333/1000,77,160.47
1106,F#4,198.0,333/1000,82,160.47
1107,E-4,198.333,333/1000,77,160.47
1108,B3,198.667,333/1000,77,160.47
1109,E-4,199.0,333/1000,82,160.47
1110,B2,199.0,1.0,76,160.47
1111,F#4,199.333,333/1000,77,160.47
1112,A4,199.667,333/1000,77,160.47
1113,G#4,200.0,333/1000,82,160.47
1114,B2,200.0,1.0,76,160.47
1115,E4,200.333,333/1000,75,160.47
1116,B3,200.667,333/1000,77,160.47
1117,E4,201.0,333/1000,82,160.47
1118,B2,201.0,2.0,75,160.47
1119,G#4,201.333,333/1000,77,160.47
1120,B4,201.667,333/1000,77,160.47
1121,A4,202.0,333/1000,82,160.47
1122,F#4,202.333,333/1000,77,160.47
1123,E-4,202.667,333/1000,77,160.47
1124,E-5,203.0,333/1000,82,160.47
1125,B2,203.0,1.0,74,160.47
1126,A4,203.333,333/1000,77,160.47
1127,F#4,203.667,333/1000,77,160.47
1128,E3,204.0,333/1000,73,160.47
1129,G#4,204.0,1.0,69,160.47
1130,E5,204.0,1.0,69,160.47
1131,B2,204.333,333/1000,67,160.47
1132,G#2,204.667,333/1000,69,160.47
1133,B4,205.0,2.0,80,160.47
1134,B2,205.0,333/1000,73,160.47
1135,E3,205.333,333/1000,69,160.47
1136,G#3,205.667,333/1000,69,160.47
1137,F#3,206.0,333/1000,73,160.47
1138,E-3,206.333,333/1000,69,160.47
1139,B2,206.667,333/1000,69,160.47
1140,B4,207.0,1.0,80,160.47
1141,E-3,207.0,333/1000,73,160.47
1142,F#3,207.333,333/1000,69,160.47
1143,A3,207.667,333/1000,69,160.47
1144,B4,208.0,1.0,80,160.47
1145,G#3,208.0,333/1000,73,160.47
1146,E3,208.333,333/1000,67,160.47
1147,B2,208.667,333/1000,69,160.47
1148,B4,209.0,2.0,80,160.47
1149,E3,209.0,333/1000,73,160.47
1150,G#3,209.333,333/1000,69,160.47
1151,B3,209.667,333/1000,69,160.47
1152,A3,210.0,333/1000,73,160.47
1153,F#3,210.333,333/1000,69,160.47
1154,E-3,210.667,333/1000,69,160.47
1155,B4,211.0,1.0,80,160.47
1156,E-4,211.0,333/1000,73,160.47
1157,A3,211.333,333/1000,69,160.47
1158,F#3,211.667,333/1000,69,160.47
1159,E5,212.0,333/1000,82,160.47
1160,G#3,212.0,333/1000,64,160.47
1161,B4,212.333,333/1000,75,160.47
1162,B3,212.333,333/1000,56,160.47
1163,G#4,212.667,333/1000,77,160.47
1164,E4,212.667,333/1000,56,160.47
1165,B4,213.0,333/1000,82,160.47
1166,B3,213.0,333/1000,64,160.47
1167,E5,213.333,333/1000,77,160.47
1168,G#3,213.333,333/1000,57,160.47
1169,G#5,213.667,333/1000,77,160.47
1170,E3,213.667,333/1000,57,160.47
1171,F#5,214.0,333/1000,82,160.47
1172,E-3,214.0,333/1000,64,160.47
1173,E-5,214.333,333/1000,77,160.47
1174,F#3,214.333,333/1000,56,160.47
1175,B4,214.667,333/1000,77,160.47
1176,A3,214.667,333/1000,56,160.47
1177,E-5,215.0,333/1000,82,160.47
1178,F#3,215.0,333/1000,64,160.47
1179,F#5,215.333,333/1000,77,160.47
1180,E-3,215.333,333/1000,57,160.47
1181,A5,215.667,333/1000,77,160.47
1182,B2,215.667,333/1000,58,160.47
1183,G#5,216.0,333/1000,82,160.47
1184,E3,216.012,333/1000,64,160.47
1185,E5,216.333,333/1000,75,160.47
1186,G#3,216.333,333/1000,56,160.47
1187,B4,216.667,333/1000,77,160.47
1188,B3,216.667,333/1000,56,160.47
1189,E5,217.0,333/1000,82,160.47
1190,G#3,217.0,333/1000,64,160.47
1191,G#5,217.333,333/1000,77,160.47
1192,E3,217.333,333/1000,57,160.47
1193,B5,217.667,333/1000,77,160.47
1194,B2,217.679,333/1000,57,160.47
1195,A5,218.0,333/1000,82,160.47
1196,E-3,218.0,333/1000,64,160.47
1197,F#5,218.333,333/1000,77,160.47
1198,A3,218.333,333/1000,56,160.47
1199,E-5,218.667,333/1000,77,160.47
1200,B3,218.679,333/1000,56,160.47
1201,E-6,219.0,333/1000,82,160.47
1202,A3,219.0,333/1000,64,160.47
1203,A5,219.333,333/1000,77,160.47
1204,B3,219.333,333/1000,57,160.47
1205,F#5,219.667,333/1000,77,160.47
1206,F#4,219.667,333/1000,58,160.47
1207,E6,220.0,0.5,84,160.47
1208,G#3,220.0,333/1000,64,160.47
1209,B5,220.333,333/1000,74,160.47
1210,B3,220.333,333/1000,55,160.47
1211,G#5,220.667,333/1000,74,160.47
1212,E4,220.667,333/1000,55,160.47
1213,B5,221.0,0.5,79,160.47
1214,E3,221.0,333/1000,62,160.47
1215,G#5,221.333,333/1000,73,160.47
1216,G#3,221.333,333/1000,55,160.47
1217,E5,221.667,333/1000,72,160.47
1218,B3,221.667,333/1000,54,160.47
1219,A5,222.0,0.5,78,160.47
1220,F#3,222.0,333/1000,59,160.47
1221,F#5,222.333,333/1000,71,160.47
1222,A3,222.333,333/1000,51,160.47
1223,E-5,222.667,333/1000,70,160.47
1224,B3,222.667,333/1000,51,160.47
1225,E-6,223.0,0.5,77,160.47
1226,A3,223.0,333/1000,57,160.47
1227,B5,223.333,333/1000,69,160.47
1228,B3,223.333,333/1000,51,160.47
1229,F#5,223.667,333/1000,67,160.47
1230,F#4,223.667,333/1000,51,160.47
1231,E6,224.0,0.5,74,160.47
1232,G#3,224.0,333/1000,56,160.47
1233,B5,224.333,333/1000,65,160.47
1234,B3,224.333,333/1000,48,160.47
1235,G#5,224.667,333/1000,65,160.47
1236,E4,224.667,333/1000,48,160.47
1237,B5,225.0,0.5,72,160.47
1238,E3,225.0,333/1000,54,160.47
1239,G#5,225.333,333/1000,64,160.47
1240,G#3,225.333,333/1000,48,160.47
1241,E5,225.667,333/1000,63,160.47
1242,B3,225.667,333/1000,47,160.47
1243,A5,226.0,0.5,69,160.47
1244,F#3,226.0,333/1000,51,160.47
1245,F#5,226.333,333/1000,62,160.47
1246,A3,226.333,333/1000,44,160.47
1247,E-5,226.667,333/1000,60,160.47
1248,B3,226.667,333/1000,44,160.47
1249,E-6,227.0,0.5,68,160.47
1250,A3,227.0,333/1000,50,160.47
1251,B5,227.333,333/1000,59,160.47
1252,B3,227.333,333/1000,44,160.47
1253,F#5,227.667,333/1000,58,160.47
1254,F#4,227.667,333/1000,44,160.47
1255,E6,228.0,0.25,64,160.47
1256,G#3,228.0,0.25,50,160.47
1257,B5,228.25,0.25,58,160.47
1258,B3,228.25,0.25,43,160.47
1259,G#5,228.5,0.25,58,160.47
1260,E3,228.5,0.25,43,160.47
1261,E5,228.75,0.25,59,160.47
1262,B3,228.75,0.25,44,160.47
1263,A5,229.0,0.25,65,160.47
1264,F#3,229.0,0.25,51,160.47
1265,F#5,229.25,0.25,59,160.47
1266,B3,229.25,0.25,44,160.47
1267,E-6,229.5,0.25,62,160.47
1268,A3,229.5,0.25,44,160.47
1269,B5,229.75,0.25,63,160.47
1270,B3,229.75,0.25,44,160.47
1271,E6,230.0,0.25,69,160.47
1272,G#3,230.0,0.25,52,160.47
1273,B5,230.25,0.25,63,160.47
1274,B3,230.25,0.25,46,160.47
1275,G#5,230.5,0.25,63,160.47
1276,E3,230.5,0.25,47,160.47
1277,E5,230.75,0.25,64,160.47
1278,B3,230.75,0.25,49,160.47
1279,A5,231.0,0.25,71,160.47
1280,F#3,231.0,0.25,55,160.47
1281,F#5,231.25,0.25,66,160.47
1282,B3,231.25,0.25,48,160.47
1283,E-6,231.5,0.25,67,160.47
1284,A3,231.5,0.25,48,160.47
1285,B5,231.75,0.25,67,160.47
1286,B3,231.75,0.25,49,160.47
1287,E6,232.0,0.25,74,160.47
1288,G#3,232.0,0.25,58,160.47
1289,B5,232.25,0.25,67,160.47
1290,B3,232.25,0.25,50,160.47
1291,E-6,232.5,0.25,69,160.47
1292,A3,232.5,0.25,51,160.47
1293,B5,232.75,0.25,69,160.47
1294,B3,232.75,0.25,52,160.47
1295,E6,233.0,0.25,77,160.47
1296,G#3,233.0,0.25,60,160.47
1297,B5,233.25,0.25,77,160.47
1298,B3,233.25,0.25,52,160.47
1299,E-6,233.5,0.25,72,160.47
1300,A3,233.5,0.25,52,160.47
1301,B5,233.75,0.25,73,160.47
1302,B3,233.75,0.25,54,160.47
1303,E6,234.0,0.25,80,160.47
1304,G#3,234.0,0.25,62,160.47
1305,B5,234.25,0.25,73,160.47
1306,B3,234.25,0.25,55,160.47
1307,E-6,234.5,0.25,74,160.47
1308,A3,234.5,0.25,55,160.47
1309,B5,234.75,0.25,74,160.47
1310,B3,234.75,0.25,57,160.47
1311,E6,235.0,0.25,82,160.47
1312,G#3,235.0,0.25,65,160.47
1313,B5,235.25,0.25,85,160.47
1314,B3,235.25,0.25,57,160.47
1315,E-6,235.5,0.25,78,160.47
1316,A3,235.5,0.25,57,160.47
1317,B5,235.75,0.25,79,160.47
1318,B3,235.75,0.25,58,160.47
1319,E6,236.0,0.25,89,160.47
1320,G#3,236.0,0.25,70,160.47
1321,B5,236.25,0.25,81,160.47
1322,B3,236.25,0.25,60,160.47
1323,D6,236.5,0.25,81,160.47
1324,G#2,236.5,0.25,60,160.47
1325,B5,236.75,0.25,81,160.47
1326,E3,236.75,0.25,62,160.47
1327,D6,237.0,0.25,89,160.47
1328,G#2,237.0,0.25,70,160.47
1329,B5,237.25,0.25,83,160.47
1330,E3,237.25,0.25,60,160.47
1331,D6,237.5,0.25,82,160.47
1332,G#2,237.5,0.25,60,160.47
1333,B5,237.75,0.25,82,160.47
1334,E3,237.75,0.25,60,160.47
1335,D6,238.0,0.25,89,160.47
1336,G#2,238.0,0.25,70,160.47
1337,B5,238.25,0.25,81,160.47
1338,E3,238.25,0.25,60,160.47
1339,D6,238.5,0.25,81,160.47
1340,G#2,238.5,0.25,60,160.47
1341,B5,238.75,0.25,81,160.47
1342,E3,238.75,0.25,62,160.47
1343,D6,239.0,0.25,89,160.47
1344,G#2,239.0,0.25,70,160.47
1345,B5,239.25,0.25,83,160.47
1346,E3,239.25,0.25,60,160.47
1347,D6,239.5,0.25,82,160.47
1348,G#2,239.5,0.25,60,160.47
1349,B5,239.75,0.25,82,160.47
1350,E3,239.75,0.25,60,160.47
1351,D6,240.0,0.5,89,160.47
1352,G#2,240.0,0.25,70,160.47
1353,E3,240.25,0.25,60,160.47
1354,C#6,240.5,0.25,81,160.47
1355,G#2,240.5,0.25,60,160.47
1356,B5,240.75,0.25,81,160.47
1357,E3,240.75,0.25,62,160.47
1358,A5,241.0,0.25,88,160.47
1359,G#2,241.0,0.25,70,160.47
1360,G#5,241.25,0.25,83,160.47
1361,E3,241.25,0.25,60,160.47
1362,F#5,241.5,0.25,83,160.47
1363,G#2,241.5,0.25,60,160.47
1364,E5,241.75,0.25,83,160.47
1365,E3,241.75,0.25,61,160.47
1366,D5,242.0,0.25,88,160.47
1367,G#2,242.0,0.25,71,160.47
1368,C#5,242.25,0.25,82,160.47
1369,E3,242.25,0.25,61,160.47
1370,B4,242.5,0.25,83,160.47
1371,G#2,242.5,0.25,61,160.47
1372,A4,242.75,0.25,83,160.47
1373,E3,242.75,0.25,63,160.47
1374,G#4,243.0,0.25,91,160.47
1375,G#2,243.0,0.25,72,160.47
1376,F#4,243.25,0.25,86,160.47
1377,E3,243.25,0.25,62,160.47
1378,E4,243.5,0.25,85,160.47
1379,G#2,243.5,0.25,62,160.47
1380,D4,243.75,0.25,85,160.47
1381,E3,243.75,0.25,62,160.47
1382,C#4,244.0,0.25,93,160.47
1383,A2,244.0,0.375,71,160.47
1384,C#3,244.0,0.375,71,160.47
1385,E3,244.0,0.375,71,160.47
1386,E-4,244.25,0.25,84,160.47
1387,E4,244.5,0.25,84,160.47
1388,A2,244.5,0.375,64,160.47
1389,C#3,244.5,0.375,64,160.47
1390,E3,244.5,0.375,64,160.47
1391,E-4,244.75,0.25,86,160.47
1392,E4,245.0,0.25,92,160.47
1393,G#4,245.25,0.25,85,160.47
1394,A4,245.5,0.25,85,160.47
1395,A2,245.5,0.375,64,160.47
1396,C#3,245.5,0.375,64,160.47
1397,E3,245.5,0.375,64,160.47
1398,G#4,245.75,0.25,85,160.47
1399,A4,246.0,0.25,93,160.47
1400,A2,246.0,0.375,71,160.47
1401,C#3,246.0,0.375,71,160.47
1402,E3,246.0,0.375,71,160.47
1403,C5,246.25,0.25,84,160.47
1404,C#5,246.5,0.25,84,160.47
1405,A2,246.5,0.375,64,160.47
1406,C#3,246.5,0.375,64,160.47
1407,E3,246.5,0.375,64,160.47
1408,C5,246.75,0.25,84,160.47
1409,C#5,247.0,0.25,93,160.47
1410,E-5,247.25,0.25,84,160.47
1411,E5,247.5,0.25,84,160.47
1412,A2,247.5,0.375,64,160.47
1413,C#3,247.5,0.375,64,160.47
1414,E3,247.5,0.375,64,160.47
1415,E-5,247.75,0.25,84,160.47
1416,E5,248.0,0.25,95,160.47
1417,A2,248.0,0.375,71,160.47
1418,C#3,248.0,0.375,71,160.47
1419,E3,248.0,0.375,71,160.47
1420,G#5,248.25,0.25,86,160.47
1421,A5,248.5,0.25,86,160.47
1422,A2,248.5,0.375,64,160.47
1423,C#3,248.5,0.375,64,160.47
1424,E3,248.5,0.375,64,160.47
1425,G#5,248.75,0.25,86,160.47
1426,A5,249.0,0.25,95,160.47
1427,C6,249.25,0.25,86,160.47
1428,C#6,249.5,0.25,86,160.47
1429,A2,249.5,0.375,64,160.47
1430,C#3,249.5,0.375,64,160.47
1431,E3,249.5,0.375,64,160.47
1432,C6,249.75,0.25,86,160.47
1433,C#6,250.0,0.25,95,160.47
1434,A2,250.0,0.375,71,160.47
1435,C#3,250.0,0.375,71,160.47
1436,E3,250.0,0.375,71,160.47
1437,E-6,250.25,0.25,86,160.47
1438,E6,250.5,0.25,86,160.47
1439,A2,250.5,0.375,64,160.47
1440,C#3,250.5,0.375,64,160.47
1441,E3,250.5,0.375,64,160.47
1442,E-6,250.75,0.25,86,160.47
1443,E6,251.0,0.25,95,160.47
1444,E-6,251.25,0.25,86,160.47
1445,C#6,251.5,0.25,86,160.47
1446,A2,251.5,0.375,64,160.47
1447,C#3,251.5,0.375,64,160.47
1448,E3,251.5,0.375,64,160.47
1449,C6,251.75,0.25,86,160.47
1450,C#6,252.0,0.25,95,160.47
1451,E3,252.0,0.375,70,160.47
1452,B-2,252.0,0.375,70,160.47
1453,C#3,252.0,0.375,70,160.47
1454,F#3,252.0,0.375,70,160.47
1455,C6,252.25,0.25,86,160.47
1456,C#6,252.5,0.25,86,160.47
1457,E3,252.5,0.375,63,160.47
1458,B-2,252.5,0.375,63,160.47
1459,C#3,252.5,0.375,63,160.47
1460,F#3,252.5,0.375,63,160.47
1461,E-6,252.75,0.25,86,160.47
1462,E6,253.0,0.25,95,160.47
1463,E-6,253.25,0.25,86,160.47
1464,C#6,253.5,0.25,86,160.47
1465,E3,253.5,0.375,63,160.47
1466,B-2,253.5,0.375,63,160.47
1467,C#3,253.5,0.375,63,160.47
1468,F#3,253.5,0.375,63,160.47
1469,C6,253.75,0.25,86,160.47
1470,C#6,254.0,0.25,95,160.47
1471,E3,254.0,0.375,70,160.47
1472,B-2,254.0,0.375,70,160.47
1473,C#3,254.0,0.375,70,160.47
1474,F#3,254.0,0.375,70,160.47
1475,C6,254.25,0.25,86,160.47
1476,C#6,254.5,0.25,86,160.47
1477,E3,254.5,0.375,63,160.47
1478,B-2,254.5,0.375,63,160.47
1479,C#3,254.5,0.375,63,160.47
1480,F#3,254.5,0.375,63,160.47
1481,E-6,254.75,0.25,86,160.47
1482,E6,255.0,0.25,95,160.47
1483,E-6,255.25,0.25,86,160.47
1484,C#6,255.5,0.25,86,160.47
1485,E3,255.5,0.375,63,160.47
1486,B-2,255.5,0.375,63,160.47
1487,C#3,255.5,0.375,63,160.47
1488,F#3,255.5,0.375,63,160.47
1489,C6,255.75,0.25,86,160.47
1490,C#6,256.0,0.25,95,160.47
1491,E3,256.0,0.375,70,160.47
1492,B-2,256.0,0.375,70,160.47
1493,C#3,256.0,0.375,70,160.47
1494,F#3,256.0,0.375,70,160.47
1495,C6,256.25,0.25,86,160.47
1496,C#6,256.5,0.25,86,160.47
1497,E3,256.5,0.375,63,160.47
1498,B-2,256.5,0.375,63,160.47
1499,C#3,256.5,0.375,63,160.47
1500,F#3,256.5,0.375,63,160.47
1501,E-6,256.75,0.25,86,160.47
1502,E6,257.0,0.25,95,160.47
1503,E-6,257.25,0.25,86,160.47
1504,C#6,257.5,0.25,86,160.47
1505,E3,257.5,0.375,63,160.47
1506,B-2,257.5,0.375,63,160.47
1507,C#3,257.5,0.375,63,160.47
1508,F#3,257.5,0.375,63,160.47
1509,C6,257.75,0.25,86,160.47
1510,C#6,258.0,0.25,95,160.47
1511,E3,258.0,0.375,70,160.47
1512,B-2,258.0,0.375,70,160.47
1513,C#3,258.0,0.375,70,160.47
1514,F#3,258.0,0.375,70,160.47
1515,C6,258.25,0.25,86,160.47
1516,C#6,258.5,0.25,86,160.47
1517,E3,258.5,0.375,63,160.47
1518,B-2,258.5,0.375,63,160.47
1519,C#3,258.5,0.375,63,160.47
1520,F#3,258.5,0.375,63,160.47
1521,E-6,258.75,0.25,86,160.47
1522,E6,259.0,0.25,95,160.47
1523,E-6,259.25,0.25,86,160.47
1524,E6,259.5,0.25,86,160.47
1525,E3,259.5,0.375,63,160.47
1526,B-2,259.5,0.375,63,160.47
1527,C#3,259.5,0.375,63,160.47
1528,F#3,259.5,0.375,63,160.47
1529,C#6,259.75,0.25,86,160.47
1530,B2,260.0,0.25,78,160.47
1531,B4,260.0,0.25,95,160.47
1532,B5,260.0,0.25,95,160.47
1533,E3,260.25,0.25,70,160.47
1534,G#3,260.5,0.25,70,160.47
1535,B4,260.5,0.25,80,160.47
1536,B5,260.5,0.25,80,160.47
1537,B3,260.75,0.25,70,160.47
1538,B2,261.0,0.25,77,160.47
1539,G#4,261.0,0.25,81,160.47
1540,G#5,261.0,0.25,81,160.47
1541,E3,261.25,0.25,70,160.47
1542,G#3,261.5,0.25,70,160.47
1543,E4,261.5,0.25,80,160.47
1544,E5,261.5,0.25,80,160.47
1545,B3,261.75,0.25,70,160.47
1546,B2,262.0,0.25,75,160.47
1547,E5,262.0,0.25,95,160.47
1548,E6,262.0,0.25,95,160.47
1549,E3,262.25,0.25,70,160.47
1550,G#3,262.5,0.25,70,160.47
1551,E5,262.5,0.25,80,160.47
1552,E6,262.5,0.25,80,160.47
1553,B3,262.75,0.25,70,160.47
1554,B2,263.0,0.25,75,160.47
1555,B4,263.0,0.25,80,160.47
1556,B5,263.0,0.25,80,160.47
1557,E3,263.25,0.25,70,160.47
1558,G#3,263.5,0.25,70,160.47
1559,G#4,263.5,0.25,80,160.47
1560,G#5,263.5,0.25,80,160.47
1561,B3,263.75,0.25,70,160.47
1562,B2,264.0,0.25,78,160.47
1563,B4,264.0,0.25,95,160.47
1564,B5,264.0,0.25,95,160.47
1565,E3,264.25,0.25,70,160.47
1566,G#3,264.5,0.25,70,160.47
1567,B4,264.5,0.25,80,160.47
1568,B5,264.5,0.25,80,160.47
1569,B3,264.75,0.25,70,160.47
1570,B2,265.0,0.25,77,160.47
1571,G#4,265.0,0.25,81,160.47
1572,G#5,265.0,0.25,81,160.47
1573,E3,265.25,0.25,70,160.47
1574,G#3,265.5,0.25,70,160.47
1575,E4,265.5,0.25,80,160.47
1576,E5,265.5,0.25,80,160.47
1577,B3,265.75,0.25,70,160.47
1578,G#3,266.0,0.25,75,160.47
1579,E5,266.0,0.25,95,160.47
1580,E6,266.0,0.25,95,160.47
1581,G#3,266.5,0.25,70,160.47
1582,E5,266.5,0.25,80,160.47
1583,E6,266.5,0.25,80,160.47
1584,E3,267.0,0.25,75,160.47
1585,B4,267.0,0.25,80,160.47
1586,B5,267.0,0.25,80,160.47
1587,B2,267.5,0.25,70,160.47
1588,G#4,267.5,0.25,80,160.47
1589,G#5,267.5,0.25,80,160.47
1590,B3,268.0,0.25,86,160.47
1591,G#5,268.25,0.25,47,160.47
1592,B5,268.5,31/125,50,160.47
1593,G#3,268.5,0.25,47,160.47
1594,G#5,268.75,0.25,47,160.47
1595,B5,269.0,31/125,51,160.47
1596,E4,269.0,0.25,53,160.47
1597,G#5,269.25,0.25,47,160.47
1598,B5,269.5,31/125,50,160.47
1599,B3,269.5,0.25,48,160.47
1600,G#5,269.75,0.25,47,160.47
1601,B5,270.0,31/125,51,160.47
1602,G#4,270.0,0.25,52,160.47
1603,G#5,270.25,0.25,47,160.47
1604,B5,270.5,31/125,50,160.47
1605,E4,270.5,0.25,41,160.47
1606,G#5,270.75,0.25,47,160.47
1607,B5,271.0,31/125,52,160.47
1608,B4,271.0,0.25,50,160.47
1609,G#5,271.25,0.25,47,160.47
1610,B5,271.5,31/125,51,160.47
1611,G#4,271.5,0.25,41,160.47
1612,G#5,271.75,0.25,47,160.47
1613,B5,272.0,31/125,50,160.47
1614,E5,272.0,0.25,50,160.47
1615,G#5,272.25,0.25,47,160.47
1616,B5,272.5,31/125,50,160.47
1617,B4,272.5,0.25,41,160.47
1618,G#5,272.75,0.25,47,160.47
1619,B5,273.0,31/125,51,160.47
1620,E5,273.0,0.25,50,160.47
1621,G#5,273.25,0.25,47,160.47
1622,B5,273.5,31/125,50,160.47
1623,B4,273.5,0.25,39,160.47
1624,G#5,273.75,0.25,47,160.47
1625,B5,274.0,31/125,51,160.47
1626,E5,274.0,0.25,50,160.47
1627,G#5,274.25,0.25,47,160.47
1628,B5,274.5,31/125,50,160.47
1629,B4,274.5,0.25,41,160.47
1630,G#5,274.75,0.25,47,160.47
1631,B5,275.0,31/125,52,160.47
1632,E5,275.0,0.25,50,160.47
1633,G#5,275.25,0.25,47,160.47
1634,B5,275.5,31/125,51,160.47
1635,B4,275.5,0.25,42,160.47
1636,G#5,275.75,0.25,47,160.47
1637,E-5,276.0,0.25,46,160.47
1638,A5,276.25,0.25,42,160.47
1639,B5,276.5,31/125,45,160.47
1640,B4,276.5,0.25,37,160.47
1641,A5,276.75,0.25,41,160.47
1642,C6,277.0,31/125,44,160.47
1643,E-5,277.0,0.25,43,160.47
1644,A5,277.25,0.25,40,160.47
1645,B5,277.5,31/125,42,160.47
1646,B4,277.5,0.25,36,160.47
1647,A5,277.75,0.25,39,160.47
1648,C6,278.0,31/125,42,160.47
1649,E-5,278.0,0.25,41,160.47
1650,A5,278.25,0.25,38,160.47
1651,B5,278.5,31/125,40,160.47
1652,B4,278.5,0.25,32,160.47
1653,A5,278.75,0.25,37,160.47
1654,C6,279.0,31/125,40,160.47
1655,E-5,279.0,0.25,39,160.47
1656,A5,279.25,0.25,36,160.47
1657,B5,279.5,31/125,39,160.47
1658,B4,279.5,0.25,31,160.47
1659,A5,279.75,0.25,35,160.47
1660,C6,280.0,31/125,37,160.47
1661,E-5,280.0,0.25,36,160.47
1662,A5,280.25,0.25,34,160.47
1663,B5,280.5,31/125,36,160.47
1664,B4,280.5,0.25,30,160.47
1665,A5,280.75,0.25,34,160.47
1666,C6,281.0,31/125,37,160.47
1667,E-5,281.0,0.25,36,160.47
1668,A5,281.25,0.25,34,160.47
1669,B5,281.5,31/125,36,160.47
1670,B4,281.5,0.25,31,160.47
1671,A5,281.75,0.25,34,160.47
1672,C6,282.0,31/125,37,160.47
1673,E-5,282.0,0.25,36,160.47
1674,A5,282.25,0.25,34,160.47
1675,B5,282.5,31/125,36,160.47
1676,B4,282.5,0.25,29,160.47
1677,A5,282.75,0.25,34,160.47
1678,C6,283.0,31/125,38,160.47
1679,E-5,283.0,0.25,36,160.47
1680,A5,283.25,0.25,34,160.47
1681,B5,283.5,31/125,37,160.47
1682,B4,283.5,0.25,30,160.47
1683,A5,283.75,0.25,34,160.47
1684,C#6,284.0,63/250,37,160.47
1685,E-5,284.0,167/1000,37,160.47
1686,E5,284.167,167/1000,32,160.47
1687,A5,284.25,0.188,34,160.47
1688,E-5,284.333,167/1000,36,160.47
1689,B5,284.5,63/250,36,160.47
1690,E5,284.5,167/1000,31,160.47
1691,E-5,284.667,167/1000,36,160.47
1692,A5,284.75,0.25,35,160.47
1693,E5,284.833,167/1000,33,160.47
1694,C#6,285.0,63/250,38,160.47
1695,E-5,285.0,167/1000,37,160.47
1696,E5,285.167,167/1000,33,160.47
1697,A5,285.25,0.25,36,160.47
1698,E-5,285.333,167/1000,37,160.47
1699,B5,285.5,63/250,38,160.47
1700,E5,285.5,167/1000,33,160.47
1701,E-5,285.667,167/1000,38,160.47
1702,A5,285.75,0.25,36,160.47
1703,E5,285.833,167/1000,34,160.47
1704,C#6,286.0,63/250,40,160.47
1705,E-5,286.0,167/1000,38,160.47
1706,E5,286.167,167/1000,35,160.47
1707,A5,286.25,0.25,37,160.47
1708,E-5,286.333,167/1000,39,160.47
1709,B5,286.5,63/250,40,160.47
1710,E5,286.5,167/1000,35,160.47
1711,E-5,286.667,167/1000,39,160.47
1712,A5,286.75,0.25,38,160.47
1713,E5,286.833,167/1000,36,160.47
1714,C#6,287.0,63/250,43,160.47
1715,E-5,287.0,167/1000,40,160.47
1716,E5,287.167,167/1000,36,160.47
1717,A5,287.25,0.25,39,160.47
1718,E-5,287.333,167/1000,40,160.47
1719,B5,287.5,63/250,43,160.47
1720,E5,287.5,167/1000,36,160.47
1721,E-5,287.667,167/1000,41,160.47
1722,A5,287.75,0.25,40,160.47
1723,E5,287.833,167/1000,37,160.47
1724,F#6,288.0,63/250,44,160.47
1725,E-5,288.0,167/1000,41,160.47
1726,E5,288.167,167/1000,36,160.47
1727,B5,288.25,0.25,41,160.47
1728,A5,288.25,0.25,41,160.47
1729,E-5,288.333,167/1000,42,160.47
1730,F#6,288.5,63/250,43,160.47
1731,E5,288.5,167/1000,37,160.47
1732,E-5,288.667,167/1000,42,160.47
1733,B5,288.75,0.25,41,160.47
1734,A5,288.75,0.25,41,160.47
1735,E5,288.833,167/1000,37,160.47
1736,F#6,289.0,63/250,46,160.47
1737,E-5,289.0,167/1000,43,160.47
1738,E5,289.167,167/1000,38,160.47
1739,B5,289.25,0.25,42,160.47
1740,A5,289.25,0.25,42,160.47
1741,E-5,289.333,167/1000,43,160.47
1742,F#6,289.5,63/250,46,160.47
1743,E5,289.5,167/1000,39,160.47
1744,E-5,289.667,167/1000,44,160.47
1745,B5,289.75,0.25,44,160.47
1746,A5,289.75,0.25,44,160.47
1747,E5,289.833,167/1000,39,160.47
1748,F#6,290.0,169/1000,49,160.47
1749,E-5,290.0,167/1000,44,160.47
1750,E5,290.167,167/1000,38,160.47
1751,B5,290.25,0.25,45,160.47
1752,A5,290.25,0.25,45,160.47
1753,E-5,290.333,167/1000,45,160.47
1754,F#6,290.5,63/250,49,160.47
1755,E5,290.5,167/1000,38,160.47
1756,E-5,290.667,167/1000,45,160.47
1757,B5,290.75,0.25,47,160.47
1758,A5,290.75,0.25,47,160.47
1759,E5,290.833,167/1000,40,160.47
1760,F#6,291.0,63/250,54,160.47
1761,E-5,291.0,1/5,50,160.47
1762,E5,291.2,1/5,44,160.47
1763,B5,291.25,0.25,48,160.47
1764,A5,291.25,0.25,48,160.47
1765,E-5,291.4,1/5,50,160.47
1766,F#6,291.5,63/250,53,160.47
1767,C#5,291.6,1/5,52,160.47
1768,B5,291.75,0.25,49,160.47
1769,A5,291.75,0.25,49,160.47
1770,E-5,291.8,1/5,47,160.47
1771,E4,292.0,4.0,48,160.47
1772,E5,292.0,2.0,57,160.47
1773,G#5,292.0,3.0,72,160.47
1774,B5,292.0,3.0,72,160.47
1775,E6,292.0,3.0,72,160.47
1776,G#4,294.0,2.0,40,160.47
1777,D5,294.0,2.0,40,160.47
1778,B4,294.0,2.0,40,160.47
1779,E6,295.0,0.25,58,160.47
1780,D6,295.25,0.25,57,160.47
1781,C6,295.5,0.25,56,160.47
1782,B5,295.75,0.25,55,160.47
1783,C6,296.0,0.25,58,160.47
1784,E4,296.0,4.0,48,160.47
1785,C5,296.0,2.0,43,160.47
1786,A4,296.0,2.0,43,160.47
1787,B5,296.25,0.25,57,160.47
1788,A5,296.5,0.25,56,160.47
1789,G#5,296.75,0.25,55,160.47
1790,A5,297.0,0.25,51,160.47
1791,B5,297.25,0.25,52,160.47
1792,C6,297.5,0.25,53,160.47
1793,D6,297.75,0.25,54,160.47
1794,E6,298.0,0.25,56,160.47
1795,D5,298.0,2.0,41,160.47
1796,B4,298.0,2.0,41,160.47
1797,G#4,298.0,2.0,41,160.47
1798,F6,298.25,0.25,57,160.47
1799,E6,298.5,0.25,57,160.47
1800,E-6,298.75,0.25,56,160.47
1801,E6,299.0,0.25,56,160.47
1802,D6,299.25,0.25,56,160.47
1803,C6,299.5,0.25,56,160.47
1804,B5,299.75,0.25,56,160.47
1805,C6,300.0,0.25,57,160.47
1806,A4,300.0,1.0,44,160.47
1807,C5,300.0,1.0,44,160.47
1808,D6,300.25,0.25,57,160.47
1809,C6,300.5,0.25,57,160.47
1810,B5,300.75,0.25,53,160.47
1811,A5,301.0,0.25,56,160.47
1812,G#5,301.25,0.25,52,160.47
1813,A5,301.5,0.25,56,160.47
1814,B5,301.75,0.25,52,160.47
1815,C5,302.0,2.0,45,160.47
1816,C6,302.0,1.0,59,160.47
1817,A3,302.0,2.0,41,160.47
1818,C4,302.0,2.0,41,160.47
1819,F#4,302.0,2.0,41,160.47
1820,A4,302.0,2.0,41,160.47
1821,A5,303.0,0.5,52,160.47
1822,F#5,303.5,0.5,52,160.47
1823,B4,304.0,2.0,45,160.47
1824,B5,304.0,1.0,57,160.47
1825,B3,304.0,2.0,41,160.47
1826,E4,304.0,2.0,41,160.47
1827,G4,304.0,2.0,41,160.47
1828,G5,305.0,0.5,52,160.47
1829,E5,305.5,0.5,52,160.47
1830,A4,306.0,2.0,45,160.47
1831,A5,306.0,1.0,57,160.47
1832,E-4,306.0,2.0,39,160.47
1833,F#4,306.0,2.0,39,160.47
1834,B3,306.0,2.0,39,160.47
1835,F#5,307.0,0.5,52,160.47
1836,E-5,307.5,0.5,52,160.47
1837,E5,308.0,3.0,72,160.47
1838,E4,308.0,2.0,56,160.47
1839,E3,308.0,4.0,45,160.47
1840,D4,310.0,2.0,40,160.47
1841,B3,310.0,2.0,40,160.47
1842,G#3,310.0,2.0,40,160.47
1843,E5,311.0,0.25,58,160.47
1844,D5,311.25,0.25,57,160.47
1845,C5,311.5,0.25,56,160.47
1846,B4,311.75,0.25,55,160.47
1847,C5,312.0,0.25,58,160.47
1848,E3,312.0,4.0,45,160.47
1849,A3,312.0,2.0,43,160.47
1850,C4,312.0,2.0,43,160.47
1851,B4,312.25,0.25,57,160.47
1852,A4,312.5,0.25,56,160.47
1853,G#4,312.75,0.25,55,160.47
1854,A4,313.0,0.25,51,160.47
1855,B4,313.25,0.25,52,160.47
1856,C5,313.5,0.25,53,160.47
1857,D5,313.75,0.25,54,160.47
1858,E5,314.0,0.25,56,160.47
1859,D4,314.0,2.0,41,160.47
1860,B3,314.0,2.0,41,160.47
1861,G#3,314.0,2.0,41,160.47
1862,F5,314.25,0.25,57,160.47
1863,E5,314.5,0.25,57,160.47
1864,E-5,314.75,0.25,56,160.47
1865,E5,315.0,0.25,56,160.47
1866,D5,315.25,0.25,56,160.47
1867,C5,315.5,0.25,56,160.47
1868,B4,315.75,0.25,56,160.47
1869,C5,316.0,0.25,57,160.47
1870,A3,316.0,1.0,48,160.47
1871,C4,316.0,1.0,48,160.47
1872,D5,316.25,0.25,57,160.47
1873,C5,316.5,0.25,57,160.47
1874,B4,316.75,0.25,53,160.47
1875,A4,317.0,0.25,56,160.47
1876,G#4,317.25,0.25,52,160.47
1877,A4,317.5,0.25,56,160.47
1878,B4,317.75,0.25,52,160.47
1879,C4,318.0,2.0,45,160.47
1880,C5,318.0,1.0,59,160.47
1881,A2,318.0,2.0,41,160.47
1882,C3,318.0,2.0,41,160.47
1883,F#3,318.0,2.0,41,160.47
1884,A3,318.0,2.0,41,160.47
1885,A4,319.0,0.5,52,160.47
1886,F#4,319.5,0.5,52,160.47
1887,B3,320.0,2.0,45,160.47
1888,B4,320.0,1.0,57,160.47
1889,B2,320.0,2.0,41,160.47
1890,E3,320.0,2.0,41,160.47
1891,G3,320.0,2.0,41,160.47
1892,G4,321.0,0.5,52,160.47
1893,E4,321.5,0.5,52,160.47
1894,A3,322.0,2.0,45,160.47
1895,A4,322.0,1.0,57,160.47
1896,F#3,322.0,2.0,39,160.47
1897,E-3,322.0,2.0,39,160.47
1898,B2,322.0,2.0,39,160.47
1899,F#4,323.0,0.5,52,160.47
1900,E-4,323.5,0.5,52,160.47
1901,E4,324.0,0.5,55,160.47
1902,G3,324.0,0.5,40,160.47
1903,E3,324.0,0.5,40,160.47
1904,E5,325.0,0.5,67,160.47
1905,G2,325.0,1.0,42,160.47
1906,E3,325.0,1.5,51,160.47
1907,D5,325.5,0.5,62,160.47
1908,C5,326.0,1.0,66,160.47
1909,A2,326.0,2.0,42,160.47
1910,F3,326.5,0.5,49,160.47
1911,A4,327.0,0.5,61,160.47
1912,G3,327.0,0.5,51,160.47
1913,F4,327.5,0.5,54,160.47
1914,A3,327.5,0.5,55,160.47
1915,B4,328.0,1.0,51,160.47
1916,B2,328.0,4.0,35,160.47
1917,B3,328.0,2.0,38,160.47
1918,G3,328.0,2.0,38,160.47
1919,G4,329.0,0.5,46,160.47
1920,E4,329.5,0.5,46,160.47
1921,A4,330.0,1.0,51,160.47
1922,F#3,330.0,2.0,36,160.47
1923,A3,330.0,2.0,36,160.47
1924,F#4,331.0,0.5,46,160.47
1925,E-4,331.5,0.5,46,160.47
1926,E4,332.0,0.5,55,160.47
1927,C3,332.0,0.5,39,160.47
1928,E3,332.0,0.5,39,160.47
1929,G3,332.0,0.5,39,160.47
1930,C5,333.0,0.5,66,160.47
1931,E2,333.0,1.0,42,160.47
1932,C3,333.0,1.5,51,160.47
1933,B4,333.5,0.5,62,160.47
1934,A4,334.0,1.0,66,160.47
1935,F2,334.0,2.0,42,160.47
1936,D3,334.5,0.5,49,160.47
1937,F4,335.0,0.5,61,160.47
1938,E3,335.0,0.5,51,160.47
1939,D4,335.5,0.5,54,160.47
1940,F3,335.5,0.5,55,160.47
1941,G4,336.0,1.0,51,160.47
1942,G2,336.0,4.0,35,160.47
1943,E3,336.0,2.0,38,160.47
1944,G3,336.0,2.0,38,160.47
1945,E4,337.0,0.5,46,160.47
1946,C4,337.5,0.5,46,160.47
1947,F4,338.0,1.0,51,160.47
1948,F3,338.0,2.0,36,160.47
1949,D3,338.0,2.0,36,160.47
1950,D4,339.0,0.5,46,160.47
1951,B3,339.5,0.5,46,160.47
1952,C4,340.0,0.5,40,160.47
1953,C2,340.0,0.375,25,160.47
1954,C3,340.0,0.375,30,160.47
1955,E3,340.0,0.375,30,160.47
1956,C3,340.5,0.375,30,160.47
1957,E3,340.5,0.375,30,160.47
1958,G2,340.5,0.375,24,160.47
1959,C2,340.5,0.375,24,160.47
1960,C3,341.0,0.375,30,160.47
1961,E3,341.0,0.375,30,160.47
1962,G2,341.0,0.375,24,160.47
1963,C2,341.0,0.375,24,160.47
1964,C3,341.5,0.375,31,160.47
1965,E3,341.5,0.375,31,160.47
1966,G2,341.5,0.375,24,160.47
1967,C2,341.5,0.375,24,160.47
1968,C3,342.0,0.375,31,160.47
1969,E3,342.0,0.375,31,160.47
1970,G2,342.0,0.375,24,160.47
1971,C2,342.0,0.375,24,160.47
1972,C3,342.5,0.375,31,160.47
1973,E3,342.5,0.375,31,160.47
1974,G2,342.5,0.375,26,160.47
1975,C2,342.5,0.375,26,160.47
1976,C3,343.0,0.375,32,160.47
1977,E3,343.0,0.375,32,160.47
1978,G2,343.0,0.375,26,160.47
1979,C2,343.0,0.375,26,160.47
1980,C3,343.5,0.375,32,160.47
1981,E3,343.5,0.375,32,160.47
1982,G2,343.5,0.375,26,160.47
1983,C2,343.5,0.375,26,160.47
1984,C3,344.0,0.375,33,160.47
1985,E3,344.0,0.375,33,160.47
1986,C2,344.0,0.375,28,160.47
1987,G2,344.0,0.375,28,160.47
1988,C3,344.5,0.375,33,160.47
1989,E3,344.5,0.375,33,160.47
1990,C2,344.5,0.375,24,160.47
1991,G2,344.5,0.375,24,160.47
1992,C3,345.0,0.375,34,160.47
1993,E3,345.0,0.375,34,160.47
1994,C2,345.0,0.375,26,160.47
1995,G2,345.0,0.375,26,160.47
1996,C3,345.5,0.375,35,160.47
1997,E3,345.5,0.375,35,160.47
1998,C2,345.5,0.375,26,160.47
1999,G2,345.5,0.375,26,160.47
2000,C3,346.0,0.375,36,160.47
2001,E3,346.0,0.375,36,160.47
2002,C2,346.0,0.375,28,160.47
2003,G2,346.0,0.375,28,160.47
2004,C3,346.5,0.375,37,160.47
2005,E3,346.5,0.375,37,160.47
2006,C2,346.5,0.375,28,160.47
2007,G2,346.5,0.375,28,160.47
2008,D3,347.0,0.375,37,160.47
2009,F#3,347.0,0.375,37,160.47
2010,C2,347.0,0.375,28,160.47
2011,A2,347.0,0.375,28,160.47
2012,D3,347.5,0.375,37,160.47
2013,F#3,347.5,0.375,37,160.47
2014,C2,347.5,0.375,28,160.47
2015,A2,347.5,0.375,28,160.47
2016,D3,348.0,1.5,42,160.47
2017,G3,348.0,1.5,42,160.47
2018,B1,348.0,0.375,28,160.47
2019,G2,348.0,0.375,28,160.47
2020,B1,348.5,0.375,28,160.47
2021,G2,348.5,0.375,28,160.47
2022,B1,349.0,0.375,28,160.47
2023,G2,349.0,0.375,28,160.47
2024,B3,349.5,0.25,40,160.47
2025,B1,349.5,0.375,28,160.47
2026,G2,349.5,0.375,28,160.47
2027,A3,349.75,0.25,40,160.47
2028,G3,350.0,0.25,45,160.47
2029,B1,350.0,0.375,28,160.47
2030,G2,350.0,0.375,28,160.47
2031,B1,350.5,0.375,28,160.47
2032,G2,350.5,0.375,28,160.47
2033,B1,351.0,0.375,28,160.47
2034,G2,351.0,0.375,28,160.47
2035,B1,351.5,0.375,28,160.47
2036,G2,351.5,0.375,28,160.47
2037,C#6,351.875,0.125,46,160.47
2038,D6,352.0,1.25,57,160.47
2039,B1,352.0,0.375,28,160.47
2040,G2,352.0,0.375,28,160.47
2041,B1,352.5,0.375,28,160.47
2042,G2,352.5,0.375,28,160.47
2043,B1,353.0,0.375,28,160.47
2044,G2,353.0,0.375,28,160.47
2045,C6,353.25,0.25,48,160.47
2046,B5,353.5,0.25,47,160.47
2047,B1,353.5,0.375,28,160.47
2048,G2,353.5,0.375,28,160.47
2049,A5,353.75,0.25,45,160.47
2050,G5,354.0,0.5,44,160.47
2051,B1,354.0,0.375,28,160.47
2052,G2,354.0,0.375,28,160.47
2053,B1,354.5,0.375,28,160.47
2054,G2,354.5,0.375,28,160.47
2055,B1,355.0,0.375,28,160.47
2056,G2,355.0,0.375,28,160.47
2057,B1,355.5,0.375,28,160.47
2058,G2,355.5,0.375,28,160.47
2059,B-2,356.0,0.375,32,160.47
2060,D3,356.0,0.375,32,160.47
2061,F2,356.0,0.375,28,160.47
2062,B-1,356.0,0.375,28,160.47
2063,B-2,356.5,0.375,32,160.47
2064,D3,356.5,0.375,32,160.47
2065,F2,356.5,0.375,28,160.47
2066,B-1,356.5,0.375,28,160.47
2067,B-2,357.0,0.375,32,160.47
2068,D3,357.0,0.375,32,160.47
2069,F2,357.0,0.375,28,160.47
2070,B-1,357.0,0.375,28,160.47
2071,B-2,357.5,0.375,33,160.47
2072,D3,357.5,0.375,33,160.47
2073,F2,357.5,0.375,28,160.47
2074,B-1,357.5,0.375,28,160.47
2075,B-2,358.0,0.375,34,160.47
2076,D3,358.0,0.375,34,160.47
2077,F2,358.0,0.375,28,160.47
2078,B-1,358.0,0.375,28,160.47
2079,B-2,358.5,0.375,34,160.47
2080,D3,358.5,0.375,34,160.47
2081,F2,358.5,0.375,28,160.47
2082,B-1,358.5,0.375,28,160.47
2083,B-2,359.0,0.375,35,160.47
2084,D3,359.0,0.375,35,160.47
2085,F2,359.0,0.375,28,160.47
2086,B-1,359.0,0.375,28,160.47
2087,B-2,359.5,0.375,36,160.47
2088,D3,359.5,0.375,36,160.47
2089,F2,359.5,0.375,28,160.47
2090,B-1,359.5,0.375,28,160.47
2091,B-2,360.0,0.375,36,160.47
2092,D3,360.0,0.375,36,160.47
2093,B-1,360.0,0.375,28,160.47
2094,F2,360.0,0.375,28,160.47
2095,B-2,360.5,0.375,37,160.47
2096,D3,360.5,0.375,37,160.47
2097,B-1,360.5,0.375,28,160.47
2098,F2,360.5,0.375,28,160.47
2099,B-2,361.0,0.375,37,160.47
2100,D3,361.0,0.375,37,160.47
2101,B-1,361.0,0.375,28,160.47
2102,F2,361.0,0.375,28,160.47
2103,B-2,361.5,0.375,37,160.47
2104,D3,361.5,0.375,37,160.47
2105,B-1,361.5,0.375,28,160.47
2106,F2,361.5,0.375,28,160.47
2107,B-2,362.0,0.375,37,160.47
2108,D3,362.0,0.375,37,160.47
2109,B-1,362.0,0.375,28,160.47
2110,F2,362.0,0.375,28,160.47
2111,B-2,362.5,0.375,37,160.47
2112,D3,362.5,0.375,37,160.47
2113,B-1,362.5,0.375,28,160.47
2114,F2,362.5,0.375,28,160.47
2115,C3,363.0,0.375,37,160.47
2116,E3,363.0,0.375,37,160.47
2117,B-1,363.0,0.375,28,160.47
2118,G2,363.0,0.375,28,160.47
2119,C3,363.5,0.375,37,160.47
2120,E3,363.5,0.375,37,160.47
2121,B-1,363.5,0.375,28,160.47
2122,G2,363.5,0.375,28,160.47
2123,C3,364.0,1.5,42,160.47
2124,F3,364.0,1.5,42,160.47
2125,A1,364.0,0.375,28,160.47
2126,F2,364.0,0.375,28,160.47
2127,A1,364.5,0.375,28,160.47
2128,F2,364.5,0.375,28,160.47
2129,A1,365.0,0.375,28,160.47
2130,F2,365.0,0.375,28,160.47
2131,A3,365.5,0.25,40,160.47
2132,A1,365.5,0.375,28,160.47
2133,F2,365.5,0.375,28,160.47
2134,G3,365.75,0.25,40,160.47
2135,F3,366.0,0.25,45,160.47
2136,A1,366.0,0.375,28,160.47
2137,F2,366.0,0.375,28,160.47
2138,A1,366.5,0.375,28,160.47
2139,F2,366.5,0.375,28,160.47
2140,A1,367.0,0.375,28,160.47
2141,F2,367.0,0.375,28,160.47
2142,A1,367.5,0.375,28,160.47
2143,F2,367.5,0.375,28,160.47
2144,B5,367.875,0.125,46,160.47
2145,C6,368.0,1.25,57,160.47
2146,G#1,368.0,0.375,28,160.47
2147,F2,368.0,0.375,28,160.47
2148,G#1,368.5,0.375,28,160.47
2149,F2,368.5,0.375,28,160.47
2150,G#1,369.0,0.375,28,160.47
2151,F2,369.0,0.375,28,160.47
2152,B-5,369.25,0.25,50,160.47
2153,G#5,369.5,0.25,49,160.47
2154,G#1,369.5,0.375,28,160.47
2155,F2,369.5,0.375,28,160.47
2156,G5,369.75,0.25,47,160.47
2157,F5,370.0,0.5,46,160.47
2158,G#1,370.0,0.375,28,160.47
2159,F2,370.0,0.375,28,160.47
2160,G#1,370.5,0.375,28,160.47
2161,F2,370.5,0.375,28,160.47
2162,G#1,371.0,0.375,28,160.47
2163,F2,371.0,0.375,28,160.47
2164,G#1,371.5,0.375,28,160.47
2165,F2,371.5,0.375,28,160.47
2166,E6,371.875,0.125,67,160.47
2167,F6,372.0,3.0,73,160.47
2168,G1,372.0,0.375,33,160.47
2169,F2,372.0,0.375,33,160.47
2170,G1,372.5,0.375,35,160.47
2171,F2,372.5,0.375,35,160.47
2172,G1,373.0,0.375,36,160.47
2173,F2,373.0,0.375,36,160.47
2174,G1,373.5,0.375,38,160.47
2175,F2,373.5,0.375,38,160.47
2176,G1,374.0,0.375,40,160.47
2177,F2,374.0,0.375,40,160.47
2178,G1,374.5,0.375,42,160.47
2179,F2,374.5,0.375,42,160.47
2180,F6,375.0,0.25,74,160.47
2181,G#1,375.0,0.375,42,160.47
2182,F2,375.0,0.375,42,160.47
2183,E-6,375.25,0.25,73,160.47
2184,D6,375.5,0.25,71,160.47
2185,G#1,375.5,0.375,44,160.47
2186,F2,375.5,0.375,44,160.47
2187,C6,375.75,0.25,70,160.47
2188,B5,376.0,0.25,72,160.47
2189,G1,376.0,0.375,48,160.47
2190,F2,376.0,0.375,48,160.47
2191,C6,376.25,0.25,71,160.47
2192,D6,376.5,0.25,72,160.47
2193,G1,376.5,0.375,48,160.47
2194,F2,376.5,0.375,48,160.47
2195,E-6,376.75,0.25,73,160.47
2196,F6,377.0,0.25,74,160.47
2197,G#1,377.0,0.375,50,160.47
2198,F2,377.0,0.375,50,160.47
2199,E-6,377.25,0.25,72,160.47
2200,D6,377.5,0.25,71,160.47
2201,G#1,377.5,0.375,50,160.47
2202,F2,377.5,0.375,50,160.47
2203,C6,377.75,0.25,69,160.47
2204,B5,378.0,0.25,72,160.47
2205,G1,378.0,0.375,53,160.47
2206,F2,378.0,0.375,53,160.47
2207,C6,378.25,0.25,75,160.47
2208,D6,378.5,0.25,77,160.47
2209,G1,378.5,0.375,56,160.47
2210,F2,378.5,0.375,56,160.47
2211,E-6,378.75,0.25,80,160.47
2212,F6,379.0,0.25,80,160.47
2213,G#1,379.0,0.375,59,160.47
2214,F2,379.0,0.375,59,160.47
2215,E-6,379.25,0.25,80,160.47
2216,D6,379.5,0.25,79,160.47
2217,G#1,379.5,0.375,61,160.47
2218,F2,379.5,0.375,61,160.47
2219,C6,379.75,0.25,81,160.47
2220,B5,380.0,0.25,85,160.47
2221,G1,380.0,1.0,78,160.47
2222,F2,380.0,1.0,78,160.47
2223,C6,380.25,0.25,89,160.47
2224,D6,380.5,0.25,94,160.47
2225,E-6,380.75,0.25,98,160.47
2226,F6,381.0,0.25,100,160.47
2227,G2,381.0,2.5,88,160.47
2228,G3,381.0,2.5,88,160.47
2229,E-6,381.25,0.25,98,160.47
2230,D6,381.5,0.25,96,160.47
2231,C6,381.75,0.25,94,160.47
2232,B5,382.0,0.25,93,160.47
2233,G#5,382.25,0.25,91,160.47
2234,G5,382.5,0.25,89,160.47
2235,F5,382.75,0.25,87,160.47
2236,E-5,383.0,0.25,85,160.47
2237,D5,383.25,0.25,83,160.47
2238,C5,383.5,0.25,81,160.47
2239,A3,383.5,0.25,67,160.47
2240,B4,383.75,0.25,79,160.47
2241,B3,383.75,0.25,70,160.47
2242,C5,384.0,0.375,93,160.47
2243,C4,384.0,0.375,72,160.47
2244,G4,385.0,0.375,83,160.47
2245,G2,385.0,0.375,61,160.47
2246,G3,385.0,0.375,61,160.47
2247,E-4,386.0,0.375,72,160.47
2248,E-2,386.0,0.375,57,160.47
2249,E-3,386.0,0.375,57,160.47
2250,C4,387.0,0.375,64,160.47
2251,C2,387.0,0.375,52,160.47
2252,C3,387.0,0.375,52,160.47
2253,G3,388.0,4.0,60,160.47
2254,G1,388.0,4.0,50,160.47
2255,G2,388.0,4.0,50,160.47
2256,E4,392.0,31/125,37,160.47
2257,C2,392.0,4.0,30,160.47
2258,C3,392.0,0.5,30,160.47
2259,C4,392.25,0.25,33,160.47
2260,E4,392.5,31/125,37,160.47
2261,C3,392.5,31/125,31,160.47
2262,C4,392.75,0.25,33,160.47
2263,G3,392.75,0.25,26,160.47
2264,E4,393.0,31/125,37,160.47
2265,C3,393.0,31/125,31,160.47
2266,C4,393.25,0.25,33,160.47
2267,G3,393.25,0.25,27,160.47
2268,E4,393.5,31/125,36,160.47
2269,C3,393.5,31/125,31,160.47
2270,C4,393.75,0.25,33,160.47
2271,G3,393.75,0.25,27,160.47
2272,E4,394.0,31/125,36,160.47
2273,C3,394.0,31/125,31,160.47
2274,C4,394.25,0.25,33,160.47
2275,G3,394.25,0.25,26,160.47
2276,E4,394.5,31/125,37,160.47
2277,C3,394.5,31/125,31,160.47
2278,C4,394.75,0.25,33,160.47
2279,G3,394.75,0.25,27,160.47
2280,E4,395.0,31/125,36,160.47
2281,C3,395.0,31/125,31,160.47
2282,C4,395.25,0.25,33,160.47
2283,G3,395.25,0.25,27,160.47
2284,E4,395.5,31/125,36,160.47
2285,C3,395.5,31/125,31,160.47
2286,C4,395.75,0.25,33,160.47
2287,G3,395.75,0.25,25,160.47
2288,E4,396.0,31/125,37,160.47
2289,C3,396.0,31/125,31,160.47
2290,C4,396.25,0.25,33,160.47
2291,G3,396.25,0.25,26,160.47
2292,E4,396.5,31/125,37,160.47
2293,C3,396.5,31/125,31,160.47
2294,C4,396.75,0.25,33,160.47
2295,G3,396.75,0.25,26,160.47
2296,E4,397.0,31/125,37,160.47
2297,C3,397.0,31/125,31,160.47
2298,C4,397.25,0.25,33,160.47
2299,G3,397.25,0.25,27,160.47
2300,E4,397.5,31/125,36,160.47
2301,C3,397.5,31/125,31,160.47
2302,C4,397.75,0.25,33,160.47
2303,G3,397.75,0.25,27,160.47
2304,E4,398.0,31/125,36,160.47
2305,C3,398.0,31/125,31,160.47
2306,C4,398.25,0.25,33,160.47
2307,G3,398.25,0.25,26,160.47
2308,E4,398.5,31/125,37,160.47
2309,C3,398.5,31/125,31,160.47
2310,C4,398.75,0.25,33,160.47
2311,G3,398.75,0.25,27,160.47
2312,F#4,399.0,31/125,36,160.47
2313,C3,399.0,31/125,31,160.47
2314,D4,399.25,0.25,33,160.47
2315,A3,399.25,0.25,27,160.47
2316,F#4,399.5,31/125,36,160.47
2317,C3,399.5,31/125,31,160.47
2318,D4,399.75,0.25,33,160.47
2319,A3,399.75,0.25,25,160.47
2320,G4,400.0,1.5,46,160.47
2321,B2,400.0,0.375,28,160.47
2322,D3,400.0,0.375,28,160.47
2323,G3,400.25,0.25,25,160.47
2324,B2,400.5,0.375,28,160.47
2325,D3,400.5,0.375,28,160.47
2326,G3,400.75,0.25,25,160.47
2327,B2,401.0,0.375,28,160.47
2328,D3,401.0,0.375,28,160.47
2329,G3,401.25,0.25,25,160.47
2330,B4,401.5,0.25,40,160.47
2331,B2,401.5,0.375,28,160.47
2332,D3,401.5,0.375,28,160.47
2333,A4,401.75,0.25,40,160.47
2334,G3,401.75,0.25,25,160.47
2335,G4,402.0,0.25,45,160.47
2336,B2,402.0,0.375,28,160.47
2337,D3,402.0,0.375,28,160.47
2338,G3,402.25,0.25,25,160.47
2339,B2,402.5,0.375,28,160.47
2340,D3,402.5,0.375,28,160.47
2341,G3,402.75,0.25,25,160.47
2342,B2,403.0,0.375,28,160.47
2343,D3,403.0,0.375,28,160.47
2344,G3,403.25,0.25,25,160.47
2345,B2,403.5,0.375,28,160.47
2346,D3,403.5,0.375,28,160.47
2347,G3,403.75,0.25,25,160.47
2348,C#6,403.875,0.125,46,160.47
2349,D6,404.0,1.25,57,160.47
2350,B2,404.0,0.375,28,160.47
2351,D3,404.0,0.375,28,160.47
2352,G3,404.25,0.25,25,160.47
2353,B2,404.5,0.375,28,160.47
2354,D3,404.5,0.375,28,160.47
2355,G3,404.75,0.25,25,160.47
2356,B2,405.0,0.375,28,160.47
2357,D3,405.0,0.375,28,160.47
2358,C6,405.25,0.25,48,160.47
2359,G3,405.25,0.25,25,160.47
2360,B5,405.5,0.25,47,160.47
2361,B2,405.5,0.375,28,160.47
2362,D3,405.5,0.375,28,160.47
2363,A5,405.75,0.25,45,160.47
2364,G3,405.75,0.25,25,160.47
2365,G5,406.0,0.5,44,160.47
2366,B2,406.0,0.375,28,160.47
2367,D3,406.0,0.375,28,160.47
2368,G3,406.25,0.25,25,160.47
2369,B2,406.5,0.375,28,160.47
2370,D3,406.5,0.375,28,160.47
2371,G3,406.75,0.25,25,160.47
2372,B2,407.0,0.375,28,160.47
2373,D3,407.0,0.375,28,160.47
2374,G3,407.25,0.25,25,160.47
2375,B2,407.5,0.375,28,160.47
2376,D3,407.5,0.375,28,160.47
2377,G3,407.75,0.25,25,160.47
2378,F4,408.0,31/125,40,160.47
2379,D2,408.0,4.0,33,160.47
2380,D3,408.0,0.5,33,160.47
2381,D4,408.25,0.25,36,160.47
2382,F4,408.5,31/125,40,160.47
2383,D3,408.5,31/125,34,160.47
2384,D4,408.75,0.25,36,160.47
2385,A3,408.75,0.25,28,160.47
2386,F4,409.0,31/125,40,160.47
2387,D3,409.0,31/125,34,160.47
2388,D4,409.25,0.25,36,160.47
2389,A3,409.25,0.25,29,160.47
2390,F4,409.5,31/125,39,160.47
2391,D3,409.5,31/125,34,160.47
2392,D4,409.75,0.25,36,160.47
2393,A3,409.75,0.25,29,160.47
2394,F4,410.0,31/125,39,160.47
2395,D3,410.0,31/125,34,160.47
2396,D4,410.25,0.25,36,160.47
2397,A3,410.25,0.25,28,160.47
2398,F4,410.5,31/125,41,160.47
2399,D3,410.5,31/125,34,160.47
2400,D4,410.75,0.25,36,160.47
2401,A3,410.75,0.25,29,160.47
2402,F4,411.0,31/125,40,160.47
2403,D3,411.0,31/125,34,160.47
2404,D4,411.25,0.25,37,160.47
2405,A3,411.25,0.25,30,160.47
2406,F4,411.5,31/125,40,160.47
2407,D3,411.5,31/125,35,160.47
2408,D4,411.75,0.25,37,160.47
2409,A3,411.75,0.25,28,160.47
2410,F4,412.0,31/125,41,160.47
2411,D3,412.0,31/125,35,160.47
2412,D4,412.25,0.25,37,160.47
2413,A3,412.25,0.25,29,160.47
2414,F4,412.5,31/125,41,160.47
2415,D3,412.5,31/125,35,160.47
2416,D4,412.75,0.25,37,160.47
2417,A3,412.75,0.25,29,160.47
2418,F4,413.0,31/125,42,160.47
2419,D3,413.0,31/125,35,160.47
2420,D4,413.25,0.25,37,160.47
2421,A3,413.25,0.25,30,160.47
2422,F4,413.5,31/125,41,160.47
2423,D3,413.5,31/125,35,160.47
2424,D4,413.75,0.25,38,160.47
2425,A3,413.75,0.25,30,160.47
2426,F4,414.0,31/125,41,160.47
2427,D3,414.0,31/125,36,160.47
2428,D4,414.25,0.25,38,160.47
2429,A3,414.25,0.25,29,160.47
2430,F4,414.5,31/125,42,160.47
2431,D3,414.5,31/125,36,160.47
2432,D4,414.75,0.25,38,160.47
2433,A3,414.75,0.25,31,160.47
2434,G#4,415.0,31/125,41,160.47
2435,D3,415.0,31/125,36,160.47
2436,E4,415.25,0.25,38,160.47
2437,B3,415.25,0.25,31,160.47
2438,G#4,415.5,31/125,42,160.47
2439,D3,415.5,31/125,36,160.47
2440,E4,415.75,0.25,38,160.47
2441,B3,415.75,0.25,29,160.47
2442,A4,416.0,1.5,55,160.47
2443,C3,416.0,0.375,34,160.47
2444,E3,416.0,0.375,34,160.47
2445,A3,416.25,0.25,29,160.47
2446,C3,416.5,0.375,34,160.47
2447,E3,416.5,0.375,34,160.47
2448,A3,416.75,0.25,29,160.47
2449,C3,417.0,0.375,34,160.47
2450,E3,417.0,0.375,34,160.47
2451,A3,417.25,0.25,29,160.47
2452,C5,417.5,0.25,48,160.47
2453,C3,417.5,0.375,34,160.47
2454,E3,417.5,0.375,34,160.47
2455,B4,417.75,0.25,48,160.47
2456,A3,417.75,0.25,29,160.47
2457,A4,418.0,0.25,53,160.47
2458,C3,418.0,0.375,34,160.47
2459,E3,418.0,0.375,34,160.47
2460,A3,418.25,0.25,29,160.47
2461,C3,418.5,0.375,34,160.47
2462,E3,418.5,0.375,34,160.47
2463,A3,418.75,0.25,29,160.47
2464,C3,419.0,0.375,34,160.47
2465,E3,419.0,0.375,34,160.47
2466,A3,419.25,0.25,29,160.47
2467,C3,419.5,0.375,34,160.47
2468,E3,419.5,0.375,34,160.47
2469,A3,419.75,0.25,29,160.47
2470,E-6,419.875,0.125,55,160.47
2471,E6,420.0,1.25,68,160.47
2472,C3,420.0,0.375,34,160.47
2473,E3,420.0,0.375,34,160.47
2474,A3,420.25,0.25,29,160.47
2475,C3,420.5,0.375,34,160.47
2476,E3,420.5,0.375,34,160.47
2477,A3,420.75,0.25,29,160.47
2478,C3,421.0,0.375,34,160.47
2479,E3,421.0,0.375,34,160.47
2480,D6,421.25,0.25,59,160.47
2481,A3,421.25,0.25,29,160.47
2482,C6,421.5,0.25,58,160.47
2483,C3,421.5,0.375,34,160.47
2484,E3,421.5,0.375,34,160.47
2485,B5,421.75,0.25,57,160.47
2486,A3,421.75,0.25,31,160.47
2487,A5,422.0,0.5,57,160.47
2488,C3,422.0,0.375,36,160.47
2489,E3,422.0,0.375,36,160.47
2490,A3,422.25,0.25,31,160.47
2491,C3,422.5,0.375,36,160.47
2492,E3,422.5,0.375,36,160.47
2493,A3,422.75,0.25,31,160.47
2494,C3,423.0,0.375,37,160.47
2495,E3,423.0,0.375,37,160.47
2496,A3,423.25,0.25,33,160.47
2497,C3,423.5,0.375,38,160.47
2498,E3,423.5,0.375,38,160.47
2499,A3,423.75,0.25,33,160.47
2500,E-6,423.875,0.125,66,160.47
2501,E6,424.0,1.25,85,160.47
2502,C3,424.0,0.375,41,160.47
2503,E3,424.0,0.375,41,160.47
2504,B-3,424.25,0.25,36,160.47
2505,C3,424.5,0.375,42,160.47
2506,E3,424.5,0.375,42,160.47
2507,B-3,424.75,0.25,37,160.47
2508,C3,425.0,0.375,43,160.47
2509,E3,425.0,0.375,43,160.47
2510,D6,425.25,0.25,76,160.47
2511,B-3,425.25,0.25,38,160.47
2512,C6,425.5,0.25,75,160.47
2513,C3,425.5,0.375,43,160.47
2514,E3,425.5,0.375,43,160.47
2515,B5,425.75,0.25,71,160.47
2516,B-3,425.75,0.25,38,160.47
2517,B-5,426.0,0.5,71,160.47
2518,C3,426.0,0.375,46,160.47
2519,E3,426.0,0.375,46,160.47
2520,B-3,426.25,0.25,40,160.47
2521,C3,426.5,0.375,46,160.47
2522,E3,426.5,0.375,46,160.47
2523,B-3,426.75,0.25,40,160.47
2524,C3,427.0,0.375,46,160.47
2525,E3,427.0,0.375,46,160.47
2526,B-3,427.25,0.25,42,160.47
2527,C3,427.5,0.375,48,160.47
2528,E3,427.5,0.375,48,160.47
2529,B-3,427.75,0.25,42,160.47
2530,B5,428.0,323/250,56,160.47
2531,B2,428.0,73/250,40,160.47
2532,E-3,428.25,73/250,35,160.47
2533,F#3,428.5,73/250,35,160.47
2534,B3,428.75,0.25,35,160.47
2535,B2,429.0,73/250,41,160.47
2536,A5,429.25,73/250,54,160.47
2537,E-3,429.25,73/250,35,160.47
2538,G5,429.5,73/250,53,160.47
2539,F#3,429.5,73/250,35,160.47
2540,F#5,429.75,73/250,51,160.47
2541,B3,429.75,0.25,35,160.47
2542,G5,430.0,73/250,53,160.47
2543,B2,430.0,73/250,39,160.47
2544,F#5,430.25,73/250,52,160.47
2545,E3,430.25,73/250,35,160.47
2546,E5,430.5,73/250,51,160.47
2547,G3,430.5,73/250,35,160.47
2548,E-5,430.75,73/250,50,160.47
2549,B3,430.75,0.25,35,160.47
2550,E5,431.0,73/250,50,160.47
2551,B2,431.0,73/250,40,160.47
2552,G5,431.25,73/250,52,160.47
2553,E3,431.25,73/250,35,160.47
2554,F#5,431.5,73/250,50,160.47
2555,G3,431.5,73/250,35,160.47
2556,E5,431.75,0.25,50,160.47
2557,B3,431.75,0.25,35,160.47
2558,E-5,432.0,73/250,50,160.47
2559,E5,432.0,21/500,50,160.47
2560,B2,432.0,73/250,40,160.47
2561,C#5,432.25,73/250,49,160.47
2562,F#3,432.25,73/250,35,160.47
2563,B4,432.5,73/250,48,160.47
2564,A3,432.5,73/250,35,160.47
2565,B-4,432.75,73/250,47,160.47
2566,B3,432.75,0.25,35,160.47
2567,B4,433.0,73/250,49,160.47
2568,B2,433.0,73/250,40,160.47
2569,C#5,433.25,73/250,49,160.47
2570,F#3,433.25,73/250,35,160.47
2571,D5,433.5,73/250,49,160.47
2572,A3,433.5,73/250,35,160.47
2573,E-5,433.75,73/250,50,160.47
2574,B3,433.75,0.25,35,160.47
2575,E5,434.0,73/250,50,160.47
2576,B2,434.0,73/250,40,160.47
2577,E-5,434.25,73/250,50,160.47
2578,E3,434.25,73/250,35,160.47
2579,E5,434.5,73/250,51,160.47
2580,G3,434.5,73/250,35,160.47
2581,F#5,434.75,73/250,51,160.47
2582,B3,434.75,0.25,35,160.47
2583,G5,435.0,73/250,49,160.47
2584,B2,435.0,73/250,40,160.47
2585,G#5,435.25,73/250,50,160.47
2586,E3,435.25,73/250,35,160.47
2587,A5,435.5,73/250,52,160.47
2588,G3,435.5,73/250,35,160.47
2589,B-5,435.75,0.25,53,160.47
2590,B3,435.75,0.25,35,160.47
2591,B5,436.0,73/250,55,160.47
2592,B-5,436.0,21/500,53,160.47
2593,B2,436.0,73/250,40,160.47
2594,B-5,436.25,73/250,53,160.47
2595,E-3,436.25,73/250,35,160.47
2596,B5,436.5,73/250,53,160.47
2597,F#3,436.5,73/250,35,160.47
2598,B-5,436.75,73/250,50,160.47
2599,B3,436.75,0.25,35,160.47
2600,B5,437.0,73/250,52,160.47
2601,B2,437.0,73/250,40,160.47
2602,A5,437.25,73/250,52,160.47
2603,E-3,437.25,73/250,35,160.47
2604,G5,437.5,73/250,51,160.47
2605,F#3,437.5,73/250,35,160.47
2606,F#5,437.75,73/250,50,160.47
2607,B3,437.75,0.25,35,160.47
2608,G5,438.0,73/250,52,160.47
2609,B2,438.0,73/250,40,160.47
2610,F#5,438.25,73/250,51,160.47
2611,E3,438.25,73/250,35,160.47
2612,E5,438.5,73/250,49,160.47
2613,G3,438.5,73/250,35,160.47
2614,E-5,438.75,73/250,50,160.47
2615,B3,438.75,0.25,35,160.47
2616,E5,439.0,73/250,50,160.47
2617,B2,439.0,73/250,41,160.47
2618,G5,439.25,73/250,53,160.47
2619,E3,439.25,73/250,35,160.47
2620,F#5,439.5,73/250,50,160.47
2621,G3,439.5,73/250,35,160.47
2622,E5,439.75,0.25,50,160.47
2623,B3,439.75,0.25,35,160.47
2624,E-5,440.0,73/250,50,160.47
2625,E5,440.0,21/500,50,160.47
2626,B2,440.0,73/250,40,160.47
2627,C#5,440.25,73/250,49,160.47
2628,F#3,440.25,73/250,35,160.47
2629,B4,440.5,73/250,48,160.47
2630,A3,440.5,73/250,35,160.47
2631,B-4,440.75,73/250,47,160.47
2632,B3,440.75,0.25,35,160.47
2633,B4,441.0,73/250,49,160.47
2634,B2,441.0,73/250,40,160.47
2635,C#5,441.25,73/250,50,160.47
2636,F#3,441.25,73/250,36,160.47
2637,D5,441.5,73/250,50,160.47
2638,A3,441.5,73/250,36,160.47
2639,E-5,441.75,73/250,52,160.47
2640,B3,441.75,0.25,36,160.47
2641,E5,442.0,73/250,52,160.47
2642,B2,442.0,73/250,42,160.47
2643,E-5,442.25,73/250,52,160.47
2644,E3,442.25,73/250,36,160.47
2645,E5,442.5,73/250,54,160.47
2646,G3,442.5,73/250,37,160.47
2647,F#5,442.75,73/250,54,160.47
2648,B3,442.75,0.25,37,160.47
2649,G5,443.0,73/250,56,160.47
2650,B2,443.0,73/250,42,160.47
2651,G#5,443.25,73/250,58,160.47
2652,E3,443.25,73/250,37,160.47
2653,A5,443.5,73/250,60,160.47
2654,G3,443.5,73/250,37,160.47
2655,B-5,443.75,0.25,62,160.47
2656,B3,443.75,0.25,38,160.47
2657,B5,444.0,0.25,68,160.47
2658,B-5,444.0,21/500,62,160.47
2659,B2,444.0,0.25,44,160.47
2660,F#5,444.25,0.25,60,160.47
2661,E-3,444.25,0.25,38,160.47
2662,E-5,444.5,0.25,61,160.47
2663,F3,444.5,0.25,38,160.47
2664,B4,444.75,0.25,61,160.47
2665,B3,444.75,0.25,38,160.47
2666,B-4,445.0,0.25,75,160.47
2667,B-3,445.0,0.25,50,160.47
2668,B4,445.25,0.25,63,160.47
2669,B3,445.25,0.25,41,160.47
2670,E5,445.5,0.25,63,160.47
2671,G3,445.5,0.25,40,160.47
2672,G5,445.75,0.25,63,160.47
2673,E3,445.75,0.25,41,160.47
2674,B5,446.0,0.25,74,160.47
2675,B2,446.0,0.25,52,160.47
2676,F#5,446.25,0.25,65,160.47
2677,E-3,446.25,0.25,44,160.47
2678,E-5,446.5,0.25,68,160.47
2679,F#3,446.5,0.25,45,160.47
2680,B4,446.75,0.25,68,160.47
2681,B3,446.75,0.25,45,160.47
2682,B-4,447.0,0.25,80,160.47
2683,B-3,447.0,0.25,60,160.47
2684,B4,447.25,0.25,71,160.47
2685,B3,447.25,0.25,51,160.47
2686,E5,447.5,0.25,71,160.47
2687,G3,447.5,0.25,51,160.47
2688,G5,447.75,0.25,72,160.47
2689,E3,447.75,0.25,52,160.47
2690,B5,448.0,0.25,91,160.47
2691,B2,448.0,0.25,63,160.47
2692,F#5,448.25,0.25,82,160.47
2693,E-3,448.25,0.25,52,160.47
2694,E-5,448.5,0.25,82,160.47
2695,F#3,448.5,0.25,52,160.47
2696,B4,448.75,0.25,82,160.47
2697,B3,448.75,0.25,52,160.47
2698,B5,449.0,0.25,91,160.47
2699,B2,449.0,0.25,63,160.47
2700,G5,449.25,0.25,82,160.47
2701,E3,449.25,0.25,52,160.47
2702,E5,449.5,0.25,82,160.47
2703,G3,449.5,0.25,52,160.47
2704,B4,449.75,0.25,82,160.47
2705,B3,449.75,0.25,52,160.47
2706,B5,450.0,0.25,91,160.47
2707,B2,450.0,0.25,63,160.47
2708,F#5,450.25,0.25,82,160.47
2709,E-3,450.25,0.25,52,160.47
2710,E-5,450.5,0.25,81,160.47
2711,F#3,450.5,0.25,52,160.47
2712,B4,450.75,0.25,81,160.47
2713,B3,450.75,0.25,52,160.47
2714,B5,451.0,0.25,91,160.47
2715,B2,451.0,0.25,63,160.47
2716,G5,451.25,0.25,81,160.47
2717,E3,451.25,0.25,52,160.47
2718,E5,451.5,0.25,81,160.47
2719,G3,451.5,0.25,52,160.47
2720,B4,451.75,0.25,82,160.47
2721,B3,451.75,0.25,52,160.47
2722,B5,452.0,0.25,91,160.47
2723,B2,452.0,1.0,56,160.47
2724,E-3,452.0,1.0,56,160.47
2725,F#3,452.0,1.0,56,160.47
2726,B3,452.0,1.0,56,160.47
2727,F#5,452.25,0.25,82,160.47
2728,E-5,452.5,0.25,82,160.47
2729,B4,452.75,0.25,82,160.47
2730,F#5,453.0,0.25,91,160.47
2731,E-5,453.25,0.25,82,160.47
2732,B4,453.5,0.25,82,160.47
2733,F#4,453.75,0.25,82,160.47
2734,E-5,454.0,0.25,91,160.47
2735,B4,454.25,0.25,82,160.47
2736,F#4,454.5,0.25,81,160.47
2737,E-4,454.75,0.25,81,160.47
2738,B4,455.0,0.25,91,160.47
2739,F#4,455.25,0.25,81,160.47
2740,E-4,455.5,0.25,81,160.47
2741,B3,455.75,0.25,82,160.47
2742,F#4,456.0,0.25,91,160.47
2743,E-4,456.25,0.25,81,160.47
2744,B3,456.5,0.25,80,160.47
2745,F#3,456.75,0.25,80,160.47
2746,E-4,457.0,0.25,89,160.47
2747,B3,457.25,0.25,79,160.47
2748,F#3,457.5,0.25,79,160.47
2749,E-3,457.75,0.25,78,160.47
2750,B3,458.0,0.25,87,160.47
2751,F#3,458.25,0.25,78,160.47
2752,E-3,458.5,0.25,77,160.47
2753,B2,458.75,0.25,77,160.47
2754,B1,459.0,0.25,85,160.47
2755,E-2,459.25,0.25,76,160.47
2756,F#2,459.5,0.25,76,160.47
2757,B2,459.75,0.25,75,160.47
2758,B1,460.0,0.25,77,160.47
2759,B2,460.5,0.25,68,160.47
2760,C#2,461.0,0.25,73,160.47
2761,C#3,461.5,0.25,66,160.47
2762,B4,462.0,0.25,75,160.47
2763,E-2,462.0,0.25,71,160.47
2764,B3,462.5,0.25,69,160.47
2765,E-3,462.5,0.25,65,160.47
2766,C#5,463.0,0.25,74,160.47
2767,C#4,463.5,0.25,65,160.47
2768,E-5,464.0,0.25,71,160.47
2769,E-2,464.0,0.25,69,160.47
2770,E-4,464.5,0.25,64,160.47
2771,E-3,464.5,0.25,61,160.47
2772,E2,465.0,0.25,65,160.47
2773,E3,465.5,0.25,59,160.47
2774,E-5,466.0,0.25,67,160.47
2775,F#2,466.0,0.25,65,160.47
2776,E-4,466.5,0.25,53,160.47
2777,F#3,466.5,0.25,54,160.47
2778,E5,467.0,0.25,59,160.47
2779,E4,467.5,0.25,50,160.47
2780,F#5,468.0,0.25,52,160.47
2781,F#4,468.5,0.25,49,160.47
2782,G#5,469.0,0.25,52,160.47
2783,G#4,469.5,0.25,49,160.47
2784,A5,470.0,0.25,52,160.47
2785,F#2,470.0,0.25,41,160.47
2786,A4,470.5,0.25,48,160.47
2787,F#3,470.5,0.25,36,160.47
2788,A5,471.0,0.25,52,160.47
2789,G#2,471.0,0.25,41,160.47
2790,B4,471.5,0.25,46,160.47
2791,G#3,471.5,0.25,36,160.47
2792,A5,472.0,0.25,51,160.47
2793,A2,472.0,0.25,40,160.47
2794,C#5,472.5,0.25,46,160.47
2795,A3,472.5,0.25,37,160.47
2796,A5,473.0,0.25,51,160.47
2797,B2,473.0,0.25,39,160.47
2798,E-5,473.5,0.25,46,160.47
2799,B3,473.5,0.25,36,160.47
2800,A5,474.0,0.25,51,160.47
2801,C#3,474.0,0.25,38,160.47
2802,E5,474.5,0.25,47,160.47
2803,C#4,474.5,0.25,37,160.47
2804,A5,475.0,0.25,50,160.47
2805,E-3,475.0,0.25,40,160.47
2806,F#5,475.5,0.25,46,160.47
2807,E-4,475.5,0.25,37,160.47
2808,B4,476.0,2.0,46,160.47
2809,E5,476.0,2.0,46,160.47
2810,G#5,476.0,2.0,46,160.47
2811,G#4,476.0,2.0,36,160.47
2812,E4,476.0,2.0,36,160.47
2813,A4,478.0,1.0,44,160.47
2814,E-5,478.0,1.0,44,160.47
2815,F#5,478.0,1.0,44,160.47
2816,F#4,478.0,1.0,31,160.47
2817,E-4,478.0,1.0,31,160.47
2818,B3,478.0,1.0,31,160.47
2819,G#4,479.0,1.0,44,160.47
2820,C#5,479.0,1.0,44,160.47
2821,E5,479.0,1.0,44,160.47
2822,E4,479.0,1.0,32,160.47
2823,C#4,479.0,1.0,32,160.47
2824,F#4,480.0,2.0,46,160.47
2825,C5,480.0,2.0,46,160.47
2826,E-5,480.0,2.0,46,160.47
2827,E-4,480.0,2.0,35,160.47
2828,C4,480.0,2.0,35,160.47
2829,G#3,480.0,2.0,35,160.47
2830,E4,482.0,2.0,46,160.47
2831,C#5,482.0,2.0,46,160.47
2832,C#4,482.0,2.0,31,160.47
2833,A3,482.0,2.0,31,160.47
2834,A4,484.0,2.0,54,160.47
2835,B4,484.0,2.0,54,160.47
2836,E-5,484.0,2.0,54,160.47
2837,F#3,484.0,2.0,41,160.47
2838,A3,484.0,2.0,41,160.47
2839,B3,484.0,2.0,41,160.47
2840,E-4,484.0,2.0,41,160.47
2841,B4,486.0,1.0,58,160.47
2842,E5,486.0,1.0,58,160.47
2843,G#3,486.0,1.0,43,160.47
2844,B3,486.0,1.0,43,160.47
2845,E4,486.0,1.0,43,160.47
2846,C#5,487.0,1.0,59,160.47
2847,E5,487.0,1.0,59,160.47
2848,F#5,487.0,1.0,59,160.47
2849,F#4,487.0,1.0,47,160.47
2850,A3,487.0,1.0,47,160.47
2851,C#4,487.0,1.0,47,160.47
2852,B4,488.0,3.0,59,160.47
2853,B3,488.0,999/250,49,160.47
2854,E5,488.0,2.0,68,160.47
2855,G#5,488.0,2.0,68,160.47
2856,E4,488.0,2.0,54,160.47
2857,G#4,488.0,2.0,54,160.47
2858,E-5,490.0,2.0,40,160.47
2859,F#5,490.0,2.0,40,160.47
2860,E-4,490.0,2.0,30,160.47
2861,F#4,490.0,2.0,30,160.47
2862,A4,491.0,1.0,48,160.47
2863,B3,492.0,2.0,40,160.47
2864,E4,492.0,2.0,40,160.47
2865,G#4,492.0,2.0,40,160.47
2866,G#3,492.0,2.0,32,160.47
2867,E3,492.0,2.0,32,160.47
2868,A3,494.0,1.0,38,160.47
2869,E-4,494.0,1.0,38,160.47
2870,F#4,494.0,1.0,38,160.47
2871,F#3,494.0,1.0,28,160.47
2872,E-3,494.0,1.0,28,160.47
2873,B2,494.0,1.0,28,160.47
2874,G#3,495.0,1.0,38,160.47
2875,C#4,495.0,1.0,38,160.47
2876,E4,495.0,1.0,38,160.47
2877,E3,495.0,1.0,28,160.47
2878,C#3,495.0,1.0,28,160.47
2879,F#3,496.0,2.0,40,160.47
2880,C4,496.0,2.0,40,160.47
2881,E-4,496.0,2.0,40,160.47
2882,E-3,496.0,2.0,31,160.47
2883,C3,496.0,2.0,31,160.47
2884,G#2,496.0,2.0,31,160.47
2885,A3,498.0,2.0,38,160.47
2886,E3,498.0,2.0,38,160.47
2887,C#4,498.0,2.0,38,160.47
2888,C#3,498.0,2.0,28,160.47
2889,A2,498.0,2.0,28,160.47
2890,B3,500.0,2.0,52,160.47
2891,E3,500.0,1.0,44,160.47
2892,G#3,500.0,1.0,44,160.47
2893,B1,500.0,4.0,36,160.47
2894,B2,500.0,4.0,36,160.47
2895,F#3,501.0,3.0,49,160.47
2896,A3,501.0,3.0,49,160.47
2897,C#4,502.0,1.0,61,160.47
2898,E-4,503.0,1.0,68,160.47
2899,G#3,504.0,333/1000,42,160.47
2900,E4,504.0,0.25,49,160.47
2901,E2,504.0,1.0,44,160.47
2902,E3,504.0,1.0,44,160.47
2903,F#4,504.333,0.25,48,160.47
2904,G#4,504.667,0.25,49,160.47
2905,A4,505.0,0.25,46,160.47
2906,B4,505.333,0.25,47,160.47
2907,C#5,505.667,0.25,48,160.47
2908,D5,506.0,0.25,50,160.47
2909,E-5,506.333,0.25,51,160.47
2910,E5,506.667,0.25,52,160.47
2911,F5,507.0,0.25,53,160.47
2912,F#5,507.333,0.25,51,160.47
2913,G5,507.667,0.25,52,160.47
2914,B4,508.0,2.0,46,160.47
2915,G#5,508.0,333/1000,56,160.47
2916,G#4,508.0,2.0,40,160.47
2917,E4,508.0,2.0,40,160.47
2918,G5,508.333,333/1000,53,160.47
2919,G#5,508.667,333/1000,53,160.47
2920,A5,509.0,333/1000,53,160.47
2921,G5,509.333,333/1000,53,160.47
2922,G#5,509.667,333/1000,53,160.47
2923,A4,510.0,1.0,60,160.47
2924,F#4,510.0,1.0,34,160.47
2925,E-4,510.0,1.0,34,160.47
2926,B3,510.0,1.0,34,160.47
2927,G#5,510.333,333/1000,54,160.47
2928,F#5,510.667,333/1000,54,160.47
2929,G#4,511.0,1.0,60,160.47
2930,E4,511.0,1.0,36,160.47
2931,C#4,511.0,1.0,36,160.47
2932,F#5,511.333,333/1000,53,160.47
2933,E5,511.667,333/1000,53,160.47
2934,F#4,512.0,2.0,60,160.47
2935,E-4,512.0,2.0,38,160.47
2936,C4,512.0,2.0,38,160.47
2937,G#3,512.0,2.0,38,160.47
2938,C5,512.333,333/1000,54,160.47
2939,E-5,512.667,333/1000,54,160.47
2940,E5,513.0,333/1000,54,160.47
2941,C5,513.333,333/1000,54,160.47
2942,E-5,513.667,333/1000,54,160.47
2943,E4,514.0,2.0,60,160.47
2944,C#4,514.0,2.0,34,160.47
2945,A3,514.0,2.0,34,160.47
2946,A4,514.333,333/1000,54,160.47
2947,C#5,514.667,333/1000,54,160.47
2948,E-5,515.0,333/1000,54,160.47
2949,A4,515.333,333/1000,54,160.47
2950,C#5,515.667,333/1000,54,160.47
2951,A4,516.0,2.0,62,160.47
2952,F#3,516.0,2.0,43,160.47
2953,A3,516.0,2.0,43,160.47
2954,B3,516.0,2.0,43,160.47
2955,E-4,516.0,2.0,43,160.47
2956,D5,516.333,333/1000,62,160.47
2957,E-5,516.667,333/1000,57,160.47
2958,E5,517.0,333/1000,57,160.47
2959,D5,517.333,333/1000,59,160.47
2960,E-5,517.667,333/1000,59,160.47
2961,B4,518.0,1.0,71,160.47
2962,G#3,518.0,1.0,48,160.47
2963,B3,518.0,1.0,48,160.47
2964,E4,518.0,1.0,48,160.47
2965,F#5,518.333,333/1000,63,160.47
2966,E5,518.667,333/1000,64,160.47
2967,C#5,519.0,1.0,74,160.47
2968,F#4,519.0,1.0,52,160.47
2969,A3,519.0,1.0,52,160.47
2970,C#4,519.0,1.0,52,160.47
2971,G#5,519.333,333/1000,65,160.47
2972,F#5,519.667,333/1000,65,160.47
2973,G#5,520.0,333/1000,79,160.47
2974,E5,520.0,2.0,79,160.47
2975,B3,520.0,999/250,53,160.47
2976,E4,520.0,2.0,59,160.47
2977,G#4,520.0,2.0,59,160.47
2978,G5,520.333,333/1000,72,160.47
2979,G#5,520.667,333/1000,72,160.47
2980,B5,521.0,333/1000,68,160.47
2981,A5,521.333,333/1000,72,160.47
2982,G#5,521.667,333/1000,69,160.47
2983,E-5,522.0,333/1000,67,160.47
2984,F#5,522.0,333/1000,67,160.47
2985,E-4,522.0,1.0,49,160.47
2986,F#4,522.0,1.0,49,160.47
2987,C#5,522.333,333/1000,64,160.47
2988,E5,522.333,333/1000,64,160.47
2989,E-5,522.667,333/1000,60,160.47
2990,B4,522.667,333/1000,60,160.47
2991,B2,523.0,333/1000,44,160.47
2992,A4,523.0,333/1000,60,160.47
2993,C#5,523.0,333/1000,60,160.47
2994,C#3,523.333,333/1000,43,160.47
2995,G#4,523.333,333/1000,56,160.47
2996,B4,523.333,333/1000,56,160.47
2997,E-3,523.667,333/1000,41,160.47
2998,F#4,523.667,333/1000,53,160.47
2999,A4,523.667,333/1000,53,160.47
3000,B3,524.0,2.0,57,160.47
3001,G#4,524.0,333/1000,57,160.47
3002,G#3,524.0,2.0,41,160.47
3003,E3,524.0,2.0,41,160.47
3004,G4,524.333,333/1000,49,160.47
3005,G#4,524.667,333/1000,49,160.47
3006,A4,525.0,333/1000,49,160.47
3007,G4,525.333,333/1000,49,160.47
3008,G#4,525.667,333/1000,49,160.47
3009,A3,526.0,1.0,56,160.47
3010,F#3,526.0,1.0,36,160.47
3011,E-3,526.0,1.0,36,160.47
3012,B2,526.0,1.0,36,160.47
3013,G#4,526.333,333/1000,50,160.47
3014,F#4,526.667,333/1000,50,160.47
3015,G#3,527.0,1.0,56,160.47
3016,E3,527.0,1.0,37,160.47
3017,C#3,527.0,1.0,37,160.47
3018,F#4,527.333,333/1000,49,160.47
3019,E4,527.667,333/1000,49,160.47
3020,E-3,528.0,2.0,40,160.47
3021,F#3,528.0,2.0,40,160.47
3022,C3,528.0,2.0,40,160.47
3023,G#2,528.0,2.0,40,160.47
3024,C4,528.333,333/1000,50,160.47
3025,E-4,528.667,333/1000,50,160.47
3026,E4,529.0,333/1000,53,160.47
3027,C4,529.333,333/1000,50,160.47
3028,E-4,529.667,333/1000,50,160.47
3029,A2,530.0,2.0,37,160.47
3030,C#3,530.0,2.0,37,160.47
3031,E3,530.0,2.0,37,160.47
3032,A3,530.333,333/1000,50,160.47
3033,C#4,530.667,333/1000,50,160.47
3034,E-4,531.0,333/1000,53,160.47
3035,A3,531.333,333/1000,50,160.47
3036,C#4,531.667,333/1000,50,160.47
3037,E3,532.0,1.0,60,160.47
3038,B1,532.0,4.0,50,160.47
3039,B2,532.0,4.0,50,160.47
3040,G#3,532.333,333/1000,56,160.47
3041,B3,532.667,333/1000,57,160.47
3042,F#3,533.0,1.0,66,160.47
3043,A3,533.333,333/1000,61,160.47
3044,B3,533.667,333/1000,61,160.47
3045,F#3,534.0,1.0,74,160.47
3046,A3,534.333,333/1000,67,160.47
3047,C#4,534.667,333/1000,65,160.47
3048,F#3,535.0,1.0,80,160.47
3049,A3,535.333,333/1000,71,160.47
3050,E-4,535.667,333/1000,70,160.47
3051,G#3,536.0,333/1000,80,160.47
3052,E4,536.0,333/1000,80,160.47
3053,E2,536.0,1.0,55,160.47
3054,E3,536.0,1.0,55,160.47
3055,B3,536.333,333/1000,75,160.47
3056,G#3,536.667,333/1000,77,160.47
3057,B3,537.0,333/1000,82,160.47
3058,B2,537.0,2.0,74,160.47
3059,E4,537.333,333/1000,77,160.47
3060,G#4,537.667,333/1000,77,160.47
3061,F#4,538.0,333/1000,82,160.47
3062,E-4,538.333,333/1000,77,160.47
3063,B3,538.667,333/1000,77,160.47
3064,E-4,539.0,333/1000,82,160.47
3065,B2,539.0,1.0,74,160.47
3066,F#4,539.333,333/1000,77,160.47
3067,A4,539.667,333/1000,77,160.47
3068,G#4,540.0,333/1000,82,160.47
3069,B2,540.0,1.0,74,160.47
3070,E4,540.333,333/1000,75,160.47
3071,B3,540.667,333/1000,77,160.47
3072,E4,541.0,333/1000,82,160.47
3073,B2,541.0,2.0,74,160.47
3074,G#4,541.333,333/1000,77,160.47
3075,B4,541.667,333/1000,77,160.47
3076,A4,542.0,333/1000,82,160.47
3077,F#4,542.333,333/1000,77,160.47
3078,E-4,542.667,333/1000,77,160.47
3079,E-5,543.0,333/1000,82,160.47
3080,B2,543.0,1.0,73,160.47
3081,A4,543.333,333/1000,77,160.47
3082,F#4,543.667,333/1000,77,160.47
3083,E3,544.0,333/1000,73,160.47
3084,G#4,544.0,1.0,69,160.47
3085,E5,544.0,1.0,69,160.47
3086,B2,544.333,333/1000,67,160.47
3087,G#2,544.667,333/1000,69,160.47
3088,B4,545.0,2.0,80,160.47
3089,B2,545.0,333/1000,73,160.47
3090,E3,545.333,333/1000,69,160.47
3091,G#3,545.667,333/1000,69,160.47
3092,F#3,546.0,333/1000,73,160.47
3093,E-3,546.333,333/1000,69,160.47
3094,B2,546.667,333/1000,69,160.47
3095,B4,547.0,1.0,80,160.47
3096,E-3,547.0,333/1000,73,160.47
3097,F#3,547.333,333/1000,69,160.47
3098,A3,547.667,333/1000,69,160.47
3099,B4,548.0,1.0,80,160.47
3100,G#3,548.0,333/1000,73,160.47
3101,E3,548.333,333/1000,67,160.47
3102,B2,548.667,333/1000,69,160.47
3103,B4,549.0,2.0,80,160.47
3104,E3,549.0,333/1000,73,160.47
3105,G#3,549.333,333/1000,69,160.47
3106,B3,549.667,333/1000,69,160.47
3107,A3,550.0,333/1000,73,160.47
3108,F#3,550.333,333/1000,69,160.47
3109,E-3,550.667,333/1000,69,160.47
3110,B4,551.0,1.0,80,160.47
3111,E-4,551.0,333/1000,73,160.47
3112,A3,551.333,333/1000,69,160.47
3113,F#3,551.667,333/1000,69,160.47
3114,E5,552.0,333/1000,82,160.47
3115,G#3,552.0,333/1000,64,160.47
3116,B4,552.333,333/1000,75,160.47
3117,B3,552.333,333/1000,56,160.47
3118,G#4,552.667,333/1000,77,160.47
3119,E4,552.667,333/1000,56,160.47
3120,B4,553.0,333/1000,82,160.47
3121,B3,553.0,333/1000,64,160.47
3122,E5,553.333,333/1000,77,160.47
3123,G#3,553.333,333/1000,57,160.47
3124,G#5,553.667,333/1000,77,160.47
3125,E3,553.667,333/1000,57,160.47
3126,F#5,554.0,333/1000,82,160.47
3127,E-3,554.0,333/1000,64,160.47
3128,E-5,554.333,333/1000,77,160.47
3129,F#3,554.333,333/1000,56,160.47
3130,B4,554.667,333/1000,77,160.47
3131,A3,554.667,333/1000,56,160.47
3132,E-5,555.0,333/1000,82,160.47
3133,F#3,555.0,333/1000,64,160.47
3134,F#5,555.333,333/1000,77,160.47
3135,E-3,555.333,333/1000,57,160.47
3136,A5,555.667,333/1000,77,160.47
3137,B2,555.667,333/1000,58,160.47
3138,G#5,556.0,333/1000,82,160.47
3139,E3,556.013,333/1000,64,160.47
3140,E5,556.333,333/1000,75,160.47
3141,G#3,556.333,333/1000,56,160.47
3142,B4,556.667,333/1000,77,160.47
3143,B3,556.667,333/1000,56,160.47
3144,E5,557.0,333/1000,82,160.47
3145,G#3,557.0,333/1000,64,160.47
3146,G#5,557.333,333/1000,77,160.47
3147,E3,557.333,333/1000,57,160.47
3148,B5,557.667,333/1000,77,160.47
3149,B2,557.679,333/1000,57,160.47
3150,A5,558.0,333/1000,82,160.47
3151,E-3,558.0,333/1000,64,160.47
3152,F#5,558.333,333/1000,77,160.47
3153,A3,558.333,333/1000,56,160.47
3154,E-5,558.667,333/1000,77,160.47
3155,B3,558.679,333/1000,56,160.47
3156,E-6,559.0,333/1000,82,160.47
3157,A3,559.0,333/1000,64,160.47
3158,A5,559.333,333/1000,77,160.47
3159,B3,559.333,333/1000,57,160.47
3160,F#5,559.667,333/1000,77,160.47
3161,F#4,559.667,333/1000,58,160.47
3162,E6,560.0,0.5,86,160.47
3163,G#3,560.0,333/1000,64,160.47
3164,B5,560.333,333/1000,74,160.47
3165,B3,560.333,333/1000,55,160.47
3166,G#5,560.667,333/1000,74,160.47
3167,E4,560.667,333/1000,55,160.47
3168,B5,561.0,0.5,82,160.47
3169,E3,561.0,333/1000,62,160.47
3170,G#5,561.333,333/1000,73,160.47
3171,G#3,561.333,333/1000,55,160.47
3172,E5,561.667,333/1000,72,160.47
3173,B3,561.667,333/1000,54,160.47
3174,A5,562.0,0.5,79,160.47
3175,F#3,562.0,333/1000,59,160.47
3176,F#5,562.333,333/1000,71,160.47
3177,A3,562.333,333/1000,51,160.47
3178,E-5,562.667,333/1000,70,160.47
3179,B3,562.667,333/1000,51,160.47
3180,E-6,563.0,0.5,76,160.47
3181,A3,563.0,333/1000,57,160.47
3182,B5,563.333,333/1000,69,160.47
3183,B3,563.333,333/1000,51,160.47
3184,F#5,563.667,333/1000,67,160.47
3185,F#4,563.667,333/1000,51,160.47
3186,E6,564.0,0.5,75,160.47
3187,G#3,564.0,333/1000,56,160.47
3188,B5,564.333,333/1000,65,160.47
3189,B3,564.333,333/1000,48,160.47
3190,G#5,564.667,333/1000,65,160.47
3191,E4,564.667,333/1000,48,160.47
3192,B5,565.0,0.5,72,160.47
3193,E3,565.0,333/1000,54,160.47
3194,G#5,565.333,333/1000,64,160.47
3195,G#3,565.333,333/1000,48,160.47
3196,E5,565.667,333/1000,63,160.47
3197,B3,565.667,333/1000,47,160.47
3198,A5,566.0,0.5,69,160.47
3199,F#3,566.0,333/1000,51,160.47
3200,F#5,566.333,333/1000,62,160.47
3201,A3,566.333,333/1000,44,160.47
3202,E-5,566.667,333/1000,60,160.47
3203,B3,566.667,333/1000,44,160.47
3204,E-6,567.0,0.5,69,160.47
3205,A3,567.0,333/1000,50,160.47
3206,B5,567.333,333/1000,59,160.47
3207,B3,567.333,333/1000,44,160.47
3208,F#5,567.667,333/1000,58,160.47
3209,F#4,567.667,333/1000,44,160.47
3210,E6,568.0,0.25,64,160.47
3211,G#3,568.0,0.25,50,160.47
3212,B5,568.25,0.25,58,160.47
3213,B3,568.25,0.25,43,160.47
3214,G#5,568.5,0.25,58,160.47
3215,E3,568.5,0.25,43,160.47
3216,E5,568.75,0.25,59,160.47
3217,B3,568.75,0.25,44,160.47
3218,A5,569.0,0.25,65,160.47
3219,F#3,569.0,0.25,51,160.47
3220,F#5,569.25,0.25,59,160.47
3221,B3,569.25,0.25,44,160.47
3222,E-6,569.5,0.25,62,160.47
3223,A3,569.5,0.25,44,160.47
3224,B5,569.75,0.25,63,160.47
3225,B3,569.75,0.25,44,160.47
3226,E6,570.0,0.25,69,160.47
3227,G#3,570.0,0.25,52,160.47
3228,B5,570.25,0.25,63,160.47
3229,B3,570.25,0.25,46,160.47
3230,G#5,570.5,0.25,63,160.47
3231,E3,570.5,0.25,47,160.47
3232,E5,570.75,0.25,64,160.47
3233,B3,570.75,0.25,49,160.47
3234,A5,571.0,0.25,71,160.47
3235,F#3,571.0,0.25,55,160.47
3236,F#5,571.25,0.25,66,160.47
3237,B3,571.25,0.25,48,160.47
3238,E-6,571.5,0.25,67,160.47
3239,A3,571.5,0.25,48,160.47
3240,B5,571.75,0.25,67,160.47
3241,B3,571.75,0.25,49,160.47
3242,E6,572.0,0.25,74,160.47
3243,G#3,572.0,0.25,58,160.47
3244,B5,572.25,0.25,67,160.47
3245,B3,572.25,0.25,50,160.47
3246,E-6,572.5,0.25,69,160.47
3247,A3,572.5,0.25,51,160.47
3248,B5,572.75,0.25,69,160.47
3249,B3,572.75,0.25,52,160.47
3250,E6,573.0,0.25,77,160.47
3251,G#3,573.0,0.25,60,160.47
3252,B5,573.25,0.25,77,160.47
3253,B3,573.25,0.25,52,160.47
3254,E-6,573.5,0.25,72,160.47
3255,A3,573.5,0.25,52,160.47
3256,B5,573.75,0.25,73,160.47
3257,B3,573.75,0.25,54,160.47
3258,E6,574.0,0.25,80,160.47
3259,G#3,574.0,0.25,62,160.47
3260,B5,574.25,0.25,73,160.47
3261,B3,574.25,0.25,55,160.47
3262,E-6,574.5,0.25,74,160.47
3263,A3,574.5,0.25,55,160.47
3264,B5,574.75,0.25,74,160.47
3265,B3,574.75,0.25,57,160.47
3266,E6,575.0,0.25,82,160.47
3267,G#3,575.0,0.25,65,160.47
3268,B5,575.25,0.25,85,160.47
3269,B3,575.25,0.25,57,160.47
3270,E-6,575.5,0.25,78,160.47
3271,A3,575.5,0.25,57,160.47
3272,B5,575.75,0.25,79,160.47
3273,B3,575.75,0.25,58,160.47
3274,E6,576.0,0.25,89,160.47
3275,G#3,576.0,0.25,70,160.47
3276,B5,576.25,0.25,81,160.47
3277,B3,576.25,0.25,60,160.47
3278,D6,576.5,0.25,81,160.47
3279,G#2,576.5,0.25,60,160.47
3280,B5,576.75,0.25,81,160.47
3281,E3,576.75,0.25,62,160.47
3282,D6,577.0,0.25,89,160.47
3283,G#2,577.0,0.25,70,160.47
3284,B5,577.25,0.25,83,160.47
3285,E3,577.25,0.25,60,160.47
3286,D6,577.5,0.25,82,160.47
3287,G#2,577.5,0.25,60,160.47
3288,B5,577.75,0.25,82,160.47
3289,E3,577.75,0.25,60,160.47
3290,D6,578.0,0.25,89,160.47
3291,G#2,578.0,0.25,70,160.47
3292,B5,578.25,0.25,81,160.47
3293,E3,578.25,0.25,60,160.47
3294,D6,578.5,0.25,81,160.47
3295,G#2,578.5,0.25,60,160.47
3296,B5,578.75,0.25,81,160.47
3297,E3,578.75,0.25,62,160.47
3298,D6,579.0,0.25,89,160.47
3299,G#2,579.0,0.25,70,160.47
3300,B5,579.25,0.25,83,160.47
3301,E3,579.25,0.25,60,160.47
3302,D6,579.5,0.25,82,160.47
3303,G#2,579.5,0.25,60,160.47
3304,B5,579.75,0.25,82,160.47
3305,E3,579.75,0.25,60,160.47
3306,D6,580.0,0.5,89,160.47
3307,G#2,580.0,0.25,70,160.47
3308,E3,580.25,0.25,60,160.47
3309,C#6,580.5,0.25,81,160.47
3310,G#2,580.5,0.25,60,160.47
3311,B5,580.75,0.25,81,160.47
3312,E3,580.75,0.25,62,160.47
3313,A5,581.0,0.25,86,160.47
3314,G#2,581.0,0.25,70,160.47
3315,G#5,581.25,0.25,82,160.47
3316,E3,581.25,0.25,60,160.47
3317,F#5,581.5,0.25,83,160.47
3318,G#2,581.5,0.25,60,160.47
3319,E5,581.75,0.25,83,160.47
3320,E3,581.75,0.25,61,160.47
3321,D5,582.0,0.25,86,160.47
3322,G#2,582.0,0.25,71,160.47
3323,C#5,582.25,0.25,82,160.47
3324,E3,582.25,0.25,61,160.47
3325,B4,582.5,0.25,83,160.47
3326,G#2,582.5,0.25,61,160.47
3327,A4,582.75,0.25,83,160.47
3328,E3,582.75,0.25,63,160.47
3329,G#4,583.0,0.25,88,160.47
3330,G#2,583.0,0.25,72,160.47
3331,F#4,583.25,0.25,85,160.47
3332,E3,583.25,0.25,62,160.47
3333,E4,583.5,0.25,85,160.47
3334,G#2,583.5,0.25,62,160.47
3335,D4,583.75,0.25,85,160.47
3336,E3,583.75,0.25,62,160.47
3337,C#4,584.0,0.25,93,160.47
3338,A2,584.0,0.375,71,160.47
3339,C#3,584.0,0.375,71,160.47
3340,E3,584.0,0.375,71,160.47
3341,E-4,584.25,0.25,83,160.47
3342,E4,584.5,0.25,83,160.47
3343,A2,584.5,0.375,64,160.47
3344,C#3,584.5,0.375,64,160.47
3345,E3,584.5,0.375,64,160.47
3346,E-4,584.75,0.25,84,160.47
3347,E4,585.0,0.25,92,160.47
3348,G#4,585.25,0.25,84,160.47
3349,A4,585.5,0.25,84,160.47
3350,A2,585.5,0.375,64,160.47
3351,C#3,585.5,0.375,64,160.47
3352,E3,585.5,0.375,64,160.47
3353,G#4,585.75,0.25,84,160.47
3354,A4,586.0,0.25,93,160.47
3355,A2,586.0,0.375,71,160.47
3356,C#3,586.0,0.375,71,160.47
3357,E3,586.0,0.375,71,160.47
3358,C5,586.25,0.25,84,160.47
3359,C#5,586.5,0.25,84,160.47
3360,A2,586.5,0.375,64,160.47
3361,C#3,586.5,0.375,64,160.47
3362,E3,586.5,0.375,64,160.47
3363,C5,586.75,0.25,84,160.47
3364,C#5,587.0,0.25,93,160.47
3365,E-5,587.25,0.25,84,160.47
3366,E5,587.5,0.25,84,160.47
3367,A2,587.5,0.375,64,160.47
3368,C#3,587.5,0.375,64,160.47
3369,E3,587.5,0.375,64,160.47
3370,E-5,587.75,0.25,84,160.47
3371,E5,588.0,0.25,95,160.47
3372,A2,588.0,0.375,71,160.47
3373,C#3,588.0,0.375,71,160.47
3374,E3,588.0,0.375,71,160.47
3375,G#5,588.25,0.25,85,160.47
3376,A5,588.5,0.25,85,160.47
3377,A2,588.5,0.375,64,160.47
3378,C#3,588.5,0.375,64,160.47
3379,E3,588.5,0.375,64,160.47
3380,G#5,588.75,0.25,85,160.47
3381,A5,589.0,0.25,95,160.47
3382,C6,589.25,0.25,85,160.47
3383,C#6,589.5,0.25,85,160.47
3384,A2,589.5,0.375,64,160.47
3385,C#3,589.5,0.375,64,160.47
3386,E3,589.5,0.375,64,160.47
3387,C6,589.75,0.25,86,160.47
3388,C#6,590.0,0.25,95,160.47
3389,A2,590.0,0.375,71,160.47
3390,C#3,590.0,0.375,71,160.47
3391,E3,590.0,0.375,71,160.47
3392,E-6,590.25,0.25,86,160.47
3393,E6,590.5,0.25,86,160.47
3394,A2,590.5,0.375,64,160.47
3395,C#3,590.5,0.375,64,160.47
3396,E3,590.5,0.375,64,160.47
3397,E-6,590.75,0.25,86,160.47
3398,E6,591.0,0.25,95,160.47
3399,E-6,591.25,0.25,86,160.47
3400,C#6,591.5,0.25,86,160.47
3401,A2,591.5,0.375,64,160.47
3402,C#3,591.5,0.375,64,160.47
3403,E3,591.5,0.375,64,160.47
3404,C6,591.75,0.25,86,160.47
3405,C#6,592.0,0.25,95,160.47
3406,E3,592.0,0.375,70,160.47
3407,B-2,592.0,0.375,70,160.47
3408,C#3,592.0,0.375,70,160.47
3409,F#3,592.0,0.375,70,160.47
3410,C6,592.25,0.25,86,160.47
3411,C#6,592.5,0.25,86,160.47
3412,E3,592.5,0.375,63,160.47
3413,B-2,592.5,0.375,63,160.47
3414,C#3,592.5,0.375,63,160.47
3415,F#3,592.5,0.375,63,160.47
3416,E-6,592.75,0.25,86,160.47
3417,E6,593.0,0.25,95,160.47
3418,E-6,593.25,0.25,86,160.47
3419,C#6,593.5,0.25,86,160.47
3420,E3,593.5,0.375,63,160.47
3421,B-2,593.5,0.375,63,160.47
3422,C#3,593.5,0.375,63,160.47
3423,F#3,593.5,0.375,63,160.47
3424,C6,593.75,0.25,86,160.47
3425,C#6,594.0,0.25,95,160.47
3426,E3,594.0,0.375,70,160.47
3427,B-2,594.0,0.375,70,160.47
3428,C#3,594.0,0.375,70,160.47
3429,F#3,594.0,0.375,70,160.47
3430,C6,594.25,0.25,86,160.47
3431,C#6,594.5,0.25,86,160.47
3432,E3,594.5,0.375,63,160.47
3433,B-2,594.5,0.375,63,160.47
3434,C#3,594.5,0.375,63,160.47
3435,F#3,594.5,0.375,63,160.47
3436,E-6,594.75,0.25,86,160.47
3437,E6,595.0,0.25,95,160.47
3438,E-6,595.25,0.25,86,160.47
3439,C#6,595.5,0.25,86,160.47
3440,E3,595.5,0.375,63,160.47
3441,B-2,595.5,0.375,63,160.47
3442,C#3,595.5,0.375,63,160.47
3443,F#3,595.5,0.375,63,160.47
3444,C6,595.75,0.25,86,160.47
3445,C#6,596.0,0.25,95,160.47
3446,E3,596.0,0.375,70,160.47
3447,B-2,596.0,0.375,70,160.47
3448,C#3,596.0,0.375,70,160.47
3449,F#3,596.0,0.375,70,160.47
3450,C6,596.25,0.25,86,160.47
3451,C#6,596.5,0.25,86,160.47
3452,E3,596.5,0.375,63,160.47
3453,B-2,596.5,0.375,63,160.47
3454,C#3,596.5,0.375,63,160.47
3455,F#3,596.5,0.375,63,160.47
3456,E-6,596.75,0.25,86,160.47
3457,E6,597.0,0.25,95,160.47
3458,E-6,597.25,0.25,86,160.47
3459,C#6,597.5,0.25,86,160.47
3460,E3,597.5,0.375,63,160.47
3461,B-2,597.5,0.375,63,160.47
3462,C#3,597.5,0.375,63,160.47
3463,F#3,597.5,0.375,63,160.47
3464,C6,597.75,0.25,86,160.47
3465,C#6,598.0,0.25,95,160.47
3466,E3,598.0,0.375,70,160.47
3467,B-2,598.0,0.375,70,160.47
3468,C#3,598.0,0.375,70,160.47
3469,F#3,598.0,0.375,70,160.47
3470,C6,598.25,0.25,86,160.47
3471,C#6,598.5,0.25,86,160.47
3472,E3,598.5,0.375,63,160.47
3473,B-2,598.5,0.375,63,160.47
3474,C#3,598.5,0.375,63,160.47
3475,F#3,598.5,0.375,63,160.47
3476,E-6,598.75,0.25,86,160.47
3477,E6,599.0,0.25,95,160.47
3478,E-6,599.25,0.25,86,160.47
3479,E6,599.5,0.25,86,160.47
3480,E3,599.5,0.375,63,160.47
3481,B-2,599.5,0.375,63,160.47
3482,C#3,599.5,0.375,63,160.47
3483,F#3,599.5,0.375,63,160.47
3484,C#6,599.75,0.25,86,160.47
3485,B2,600.0,0.25,78,160.47
3486,B4,600.0,0.25,95,160.47
3487,B5,600.0,0.25,95,160.47
3488,E3,600.25,0.25,70,160.47
3489,G#3,600.5,0.25,70,160.47
3490,B4,600.5,0.25,80,160.47
3491,B5,600.5,0.25,80,160.47
3492,B3,600.75,0.25,70,160.47
3493,B2,601.0,0.25,77,160.47
3494,G#4,601.0,0.25,81,160.47
3495,G#5,601.0,0.25,81,160.47
3496,E3,601.25,0.25,70,160.47
3497,G#3,601.5,0.25,70,160.47
3498,E4,601.5,0.25,80,160.47
3499,E5,601.5,0.25,80,160.47
3500,B3,601.75,0.25,70,160.47
3501,B2,602.0,0.25,75,160.47
3502,E5,602.0,0.25,95,160.47
3503,E6,602.0,0.25,95,160.47
3504,E3,602.25,0.25,70,160.47
3505,G#3,602.5,0.25,70,160.47
3506,E5,602.5,0.25,80,160.47
3507,E6,602.5,0.25,80,160.47
3508,B3,602.75,0.25,70,160.47
3509,B2,603.0,0.25,75,160.47
3510,B4,603.0,0.25,80,160.47
3511,B5,603.0,0.25,80,160.47
3512,E3,603.25,0.25,70,160.47
3513,G#3,603.5,0.25,70,160.47
3514,G#4,603.5,0.25,80,160.47
3515,G#5,603.5,0.25,80,160.47
3516,B3,603.75,0.25,70,160.47
3517,B2,604.0,0.25,78,160.47
3518,B4,604.0,0.25,95,160.47
3519,B5,604.0,0.25,95,160.47
3520,E3,604.25,0.25,70,160.47
3521,G#3,604.5,0.25,70,160.47
3522,B4,604.5,0.25,80,160.47
3523,B5,604.5,0.25,80,160.47
3524,B3,604.75,0.25,70,160.47
3525,B2,605.0,0.25,77,160.47
3526,G#4,605.0,0.25,81,160.47
3527,G#5,605.0,0.25,81,160.47
3528,E3,605.25,0.25,70,160.47
3529,G#3,605.5,0.25,70,160.47
3530,E4,605.5,0.25,80,160.47
3531,E5,605.5,0.25,80,160.47
3532,B3,605.75,0.25,70,160.47
3533,G#3,606.0,0.25,75,160.47
3534,E5,606.0,0.25,95,160.47
3535,E6,606.0,0.25,95,160.47
3536,G#3,606.5,0.25,70,160.47
3537,E5,606.5,0.25,80,160.47
3538,E6,606.5,0.25,80,160.47
3539,E3,607.0,0.25,75,160.47
3540,B4,607.0,0.25,80,160.47
3541,B5,607.0,0.25,80,160.47
3542,B2,607.5,0.25,70,160.47
3543,G#4,607.5,0.25,80,160.47
3544,G#5,607.5,0.25,80,160.47
3545,B3,608.0,0.25,82,160.47
3546,G#5,608.25,0.25,47,160.47
3547,B5,608.5,31/125,50,160.47
3548,G#3,608.5,0.25,47,160.47
3549,G#5,608.75,0.25,47,160.47
3550,B5,609.0,31/125,51,160.47
3551,E4,609.0,0.25,53,160.47
3552,G#5,609.25,0.25,47,160.47
3553,B5,609.5,31/125,50,160.47
3554,B3,609.5,0.25,48,160.47
3555,G#5,609.75,0.25,47,160.47
3556,B5,610.0,31/125,51,160.47
3557,G#4,610.0,0.25,52,160.47
3558,G#5,610.25,0.25,47,160.47
3559,B5,610.5,31/125,50,160.47
3560,E4,610.5,0.25,41,160.47
3561,G#5,610.75,0.25,47,160.47
3562,B5,611.0,31/125,52,160.47
3563,B4,611.0,0.25,50,160.47
3564,G#5,611.25,0.25,47,160.47
3565,B5,611.5,31/125,51,160.47
3566,G#4,611.5,0.25,41,160.47
3567,G#5,611.75,0.25,47,160.47
3568,B5,612.0,31/125,50,160.47
3569,E5,612.0,0.25,50,160.47
3570,G#5,612.25,0.25,47,160.47
3571,B5,612.5,31/125,50,160.47
3572,B4,612.5,0.25,41,160.47
3573,G#5,612.75,0.25,47,160.47
3574,B5,613.0,31/125,51,160.47
3575,E5,613.0,0.25,50,160.47
3576,G#5,613.25,0.25,47,160.47
3577,B5,613.5,31/125,50,160.47
3578,B4,613.5,0.25,39,160.47
3579,G#5,613.75,0.25,47,160.47
3580,B5,614.0,31/125,51,160.47
3581,E5,614.0,0.25,50,160.47
3582,G#5,614.25,0.25,47,160.47
3583,B5,614.5,31/125,50,160.47
3584,B4,614.5,0.25,41,160.47
3585,G#5,614.75,0.25,47,160.47
3586,B5,615.0,31/125,52,160.47
3587,E5,615.0,0.25,50,160.47
3588,G#5,615.25,0.25,47,160.47
3589,B5,615.5,31/125,51,160.47
3590,B4,615.5,0.25,42,160.47
3591,G#5,615.75,0.25,47,160.47
3592,E-5,616.0,0.25,46,160.47
3593,A5,616.25,0.25,42,160.47
3594,B5,616.5,31/125,45,160.47
3595,B4,616.5,0.25,37,160.47
3596,A5,616.75,0.25,41,160.47
3597,C6,617.0,31/125,44,160.47
3598,E-5,617.0,0.25,43,160.47
3599,A5,617.25,0.25,40,160.47
3600,B5,617.5,31/125,42,160.47
3601,B4,617.5,0.25,36,160.47
3602,A5,617.75,0.25,39,160.47
3603,C6,618.0,31/125,42,160.47
3604,E-5,618.0,0.25,41,160.47
3605,A5,618.25,0.25,38,160.47
3606,B5,618.5,31/125,40,160.47
3607,B4,618.5,0.25,32,160.47
3608,A5,618.75,0.25,37,160.47
3609,C6,619.0,31/125,40,160.47
3610,E-5,619.0,0.25,39,160.47
3611,A5,619.25,0.25,36,160.47
3612,B5,619.5,31/125,39,160.47
3613,B4,619.5,0.25,31,160.47
3614,A5,619.75,0.25,35,160.47
3615,C6,620.0,31/125,37,160.47
3616,E-5,620.0,0.25,36,160.47
3617,A5,620.25,0.25,34,160.47
3618,B5,620.5,31/125,36,160.47
3619,B4,620.5,0.25,30,160.47
3620,A5,620.75,0.25,34,160.47
3621,C6,621.0,31/125,37,160.47
3622,E-5,621.0,0.25,36,160.47
3623,A5,621.25,0.25,34,160.47
3624,B5,621.5,31/125,36,160.47
3625,B4,621.5,0.25,31,160.47
3626,A5,621.75,0.25,34,160.47
3627,C6,622.0,31/125,37,160.47
3628,E-5,622.0,0.25,36,160.47
3629,A5,622.25,0.25,34,160.47
3630,B5,622.5,31/125,36,160.47
3631,B4,622.5,0.25,29,160.47
3632,A5,622.75,0.25,34,160.47
3633,C6,623.0,31/125,38,160.47
3634,E-5,623.0,0.25,36,160.47
3635,A5,623.25,0.25,34,160.47
3636,B5,623.5,31/125,37,160.47
3637,B4,623.5,0.25,30,160.47
3638,A5,623.75,0.25,34,160.47
3639,C#6,624.0,0.25,37,160.47
3640,E-5,624.0,167/1000,37,160.47
3641,E5,624.167,167/1000,32,160.47
3642,A5,624.25,0.25,34,160.47
3643,E-5,624.333,167/1000,36,160.47
3644,B5,624.5,0.25,36,160.47
3645,E5,624.5,167/1000,31,160.47
3646,E-5,624.667,167/1000,36,160.47
3647,A5,624.75,0.25,35,160.47
3648,E5,624.833,167/1000,33,160.47
3649,C#6,625.0,0.25,38,160.47
3650,E-5,625.0,167/1000,37,160.47
3651,E5,625.167,167/1000,33,160.47
3652,A5,625.25,0.25,36,160.47
3653,E-5,625.333,167/1000,37,160.47
3654,B5,625.5,0.25,38,160.47
3655,E5,625.5,167/1000,33,160.47
3656,E-5,625.667,167/1000,38,160.47
3657,A5,625.75,0.25,36,160.47
3658,E5,625.833,167/1000,34,160.47
3659,C#6,626.0,0.25,40,160.47
3660,E-5,626.0,167/1000,38,160.47
3661,E5,626.167,167/1000,35,160.47
3662,A5,626.25,0.25,37,160.47
3663,E-5,626.333,167/1000,39,160.47
3664,B5,626.5,0.25,40,160.47
3665,E5,626.5,167/1000,35,160.47
3666,E-5,626.667,167/1000,39,160.47
3667,A5,626.75,0.25,38,160.47
3668,E5,626.833,167/1000,36,160.47
3669,C#6,627.0,0.25,43,160.47
3670,E-5,627.0,167/1000,40,160.47
3671,E5,627.167,167/1000,36,160.47
3672,A5,627.25,0.25,39,160.47
3673,E-5,627.333,167/1000,40,160.47
3674,B5,627.5,0.25,43,160.47
3675,E5,627.5,167/1000,36,160.47
3676,E-5,627.667,167/1000,41,160.47
3677,A5,627.75,0.25,40,160.47
3678,E5,627.833,167/1000,37,160.47
3679,F#6,628.0,0.25,44,160.47
3680,E-5,628.0,167/1000,41,160.47
3681,E5,628.167,167/1000,36,160.47
3682,B5,628.25,0.25,41,160.47
3683,A5,628.25,0.25,41,160.47
3684,E-5,628.333,167/1000,42,160.47
3685,F#6,628.5,0.25,43,160.47
3686,E5,628.5,167/1000,37,160.47
3687,E-5,628.667,167/1000,42,160.47
3688,B5,628.75,0.25,41,160.47
3689,A5,628.75,0.25,41,160.47
3690,E5,628.833,167/1000,37,160.47
3691,F#6,629.0,0.25,46,160.47
3692,E-5,629.0,167/1000,43,160.47
3693,E5,629.167,167/1000,38,160.47
3694,B5,629.25,0.25,42,160.47
3695,A5,629.25,0.25,42,160.47
3696,E-5,629.333,167/1000,43,160.47
3697,F#6,629.5,0.25,46,160.47
3698,E5,629.5,167/1000,39,160.47
3699,E-5,629.667,167/1000,44,160.47
3700,B5,629.75,0.25,44,160.47
3701,A5,629.75,0.25,44,160.47
3702,E5,629.833,167/1000,39,160.47
3703,F#6,630.0,0.25,49,160.47
3704,E-5,630.0,167/1000,44,160.47
3705,E5,630.167,167/1000,38,160.47
3706,B5,630.25,0.25,45,160.47
3707,A5,630.25,0.25,45,160.47
3708,E-5,630.333,167/1000,45,160.47
3709,F#6,630.5,0.25,49,160.47
3710,E5,630.5,167/1000,38,160.47
3711,E-5,630.667,167/1000,45,160.47
3712,B5,630.75,0.25,47,160.47
3713,A5,630.75,0.25,47,160.47
3714,E5,630.833,167/1000,40,160.47
3715,F#6,631.0,0.25,54,160.47
3716,E-5,631.0,1/5,50,160.47
3717,E5,631.2,1/5,44,160.47
3718,B5,631.25,0.25,48,160.47
3719,A5,631.25,0.25,48,160.47
3720,E-5,631.4,1/5,50,160.47
3721,F#6,631.5,0.25,53,160.47
3722,C#5,631.6,1/5,52,160.47
3723,B5,631.75,0.25,49,160.47
3724,A5,631.75,0.25,49,160.47
3725,E-5,631.8,1/5,47,160.47
3726,E4,632.0,4.0,48,160.47
3727,E5,632.0,2.0,57,160.47
3728,G#5,632.0,3.0,72,160.47
3729,B5,632.0,3.0,72,160.47
3730,E6,632.0,3.0,72,160.47
3731,D5,634.0,2.0,40,160.47
3732,B4,634.0,2.0,40,160.47
3733,G#4,634.0,2.0,40,160.47
3734,E6,635.0,0.25,58,160.47
3735,D6,635.25,0.25,57,160.47
3736,C6,635.5,0.25,56,160.47
3737,B5,635.75,0.25,55,160.47
3738,C6,636.0,0.25,58,160.47
3739,E4,636.0,4.0,48,160.47
3740,A4,636.0,2.0,43,160.47
3741,C5,636.0,2.0,43,160.47
3742,B5,636.25,0.25,57,160.47
3743,A5,636.5,0.25,56,160.47
3744,G#5,636.75,0.25,55,160.47
3745,A5,637.0,0.25,51,160.47
3746,B5,637.25,0.25,52,160.47
3747,C6,637.5,0.25,53,160.47
3748,D6,637.75,0.25,54,160.47
3749,E6,638.0,0.25,56,160.47
3750,D5,638.0,2.0,41,160.47
3751,G#4,638.0,2.0,41,160.47
3752,B4,638.0,2.0,41,160.47
3753,F6,638.25,0.25,57,160.47
3754,E6,638.5,0.25,57,160.47
3755,E-6,638.75,0.25,56,160.47
3756,E6,639.0,0.25,56,160.47
3757,D6,639.25,0.25,56,160.47
3758,C6,639.5,0.25,56,160.47
3759,B5,639.75,0.25,56,160.47
3760,C6,640.0,0.25,57,160.47
3761,C5,640.0,1.0,44,160.47
3762,A4,640.0,1.0,44,160.47
3763,D6,640.25,0.25,57,160.47
3764,C6,640.5,0.25,57,160.47
3765,B5,640.75,0.25,53,160.47
3766,A5,641.0,0.25,56,160.47
3767,G#5,641.25,0.25,52,160.47
3768,A5,641.5,0.25,56,160.47
3769,B5,641.75,0.25,52,160.47
3770,C5,642.0,2.0,45,160.47
3771,C6,642.0,1.0,59,160.47
3772,A4,642.0,2.0,41,160.47
3773,A3,642.0,2.0,41,160.47
3774,C4,642.0,2.0,41,160.47
3775,F#4,642.0,2.0,41,160.47
3776,A5,643.0,0.5,52,160.47
3777,F#5,643.5,0.5,52,160.47
3778,B4,644.0,2.0,45,160.47
3779,B5,644.0,1.0,57,160.47
3780,G4,644.0,2.0,41,160.47
3781,B3,644.0,2.0,41,160.47
3782,E4,644.0,2.0,41,160.47
3783,G5,645.0,0.5,52,160.47
3784,E5,645.5,0.5,52,160.47
3785,A4,646.0,2.0,45,160.47
3786,A5,646.0,1.0,57,160.47
3787,E-4,646.0,2.0,39,160.47
3788,F#4,646.0,2.0,39,160.47
3789,B3,646.0,2.0,39,160.47
3790,F#5,647.0,0.5,52,160.47
3791,E-5,647.5,0.5,52,160.47
3792,E5,648.0,3.0,72,160.47
3793,E4,648.0,2.0,56,160.47
3794,E3,648.0,4.0,45,160.47
3795,G#3,650.0,2.0,40,160.47
3796,D4,650.0,2.0,40,160.47
3797,B3,650.0,2.0,40,160.47
3798,E5,651.0,0.25,58,160.47
3799,D5,651.25,0.25,57,160.47
3800,C5,651.5,0.25,56,160.47
3801,B4,651.75,0.25,55,160.47
3802,C5,652.0,0.25,58,160.47
3803,E3,652.0,4.0,45,160.47
3804,A3,652.0,2.0,43,160.47
3805,C4,652.0,2.0,43,160.47
3806,B4,652.25,0.25,57,160.47
3807,A4,652.5,0.25,56,160.47
3808,G#4,652.75,0.25,55,160.47
3809,A4,653.0,0.25,51,160.47
3810,B4,653.25,0.25,52,160.47
3811,C5,653.5,0.25,53,160.47
3812,D5,653.75,0.25,54,160.47
3813,E5,654.0,0.25,56,160.47
3814,D4,654.0,2.0,41,160.47
3815,B3,654.0,2.0,41,160.47
3816,G#3,654.0,2.0,41,160.47
3817,F5,654.25,0.25,57,160.47
3818,E5,654.5,0.25,57,160.47
3819,E-5,654.75,0.25,56,160.47
3820,E5,655.0,0.25,56,160.47
3821,D5,655.25,0.25,56,160.47
3822,C5,655.5,0.25,56,160.47
3823,B4,655.75,0.25,56,160.47
3824,C5,656.0,0.25,57,160.47
3825,C4,656.0,1.0,48,160.47
3826,A3,656.0,1.0,48,160.47
3827,D5,656.25,0.25,57,160.47
3828,C5,656.5,0.25,57,160.47
3829,B4,656.75,0.25,53,160.47
3830,A4,657.0,0.25,56,160.47
3831,G#4,657.25,0.25,52,160.47
3832,A4,657.5,0.25,56,160.47
3833,B4,657.75,0.25,52,160.47
3834,C4,658.0,2.0,45,160.47
3835,C5,658.0,1.0,59,160.47
3836,A2,658.0,2.0,41,160.47
3837,F#3,658.0,2.0,41,160.47
3838,A3,658.0,2.0,41,160.47
3839,C3,658.0,2.0,41,160.47
3840,A4,659.0,0.5,52,160.47
3841,F#4,659.5,0.5,52,160.47
3842,B3,660.0,2.0,45,160.47
3843,B4,660.0,1.0,57,160.47
3844,G3,660.0,2.0,41,160.47
3845,B2,660.0,2.0,41,160.47
3846,E3,660.0,2.0,41,160.47
3847,G4,661.0,0.5,52,160.47
3848,E4,661.5,0.5,52,160.47
3849,A3,662.0,2.0,45,160.47
3850,A4,662.0,1.0,57,160.47
3851,F#3,662.0,2.0,39,160.47
3852,E-3,662.0,2.0,39,160.47
3853,B2,662.0,2.0,39,160.47
3854,F#4,663.0,0.5,52,160.47
3855,E-4,663.5,0.5,52,160.47
3856,E4,664.0,0.5,55,160.47
3857,G3,664.0,0.5,40,160.47
3858,E3,664.0,0.5,40,160.47
3859,E5,665.0,0.5,68,160.47
3860,G2,665.0,1.0,42,160.47
3861,E3,665.0,1.5,51,160.47
3862,D5,665.5,0.5,63,160.47
3863,C5,666.0,1.0,66,160.47
3864,A2,666.0,2.0,42,160.47
3865,F3,666.5,0.5,49,160.47
3866,A4,667.0,0.5,61,160.47
3867,G3,667.0,0.5,51,160.47
3868,F4,667.5,0.5,54,160.47
3869,A3,667.5,0.5,55,160.47
3870,B4,668.0,1.0,51,160.47
3871,B2,668.0,4.0,35,160.47
3872,B3,668.0,2.0,38,160.47
3873,G3,668.0,2.0,38,160.47
3874,G4,669.0,0.5,46,160.47
3875,E4,669.5,0.5,46,160.47
3876,A4,670.0,1.0,51,160.47
3877,A3,670.0,2.0,36,160.47
3878,F#3,670.0,2.0,36,160.47
3879,F#4,671.0,0.5,46,160.47
3880,E-4,671.5,0.5,46,160.47
3881,E4,672.0,0.5,55,160.47
3882,E3,672.0,0.5,39,160.47
3883,G3,672.0,0.5,39,160.47
3884,C3,672.0,0.5,39,160.47
3885,C5,673.0,0.5,67,160.47
3886,C3,673.0,1.5,51,160.47
3887,E2,673.0,1.0,42,160.47
3888,B4,673.5,0.5,63,160.47
3889,A4,674.0,1.0,66,160.47
3890,F2,674.0,2.0,42,160.47
3891,D3,674.5,0.5,49,160.47
3892,F4,675.0,0.5,61,160.47
3893,E3,675.0,0.5,51,160.47
3894,D4,675.5,0.5,54,160.47
3895,F3,675.5,0.5,55,160.47
3896,G4,676.0,1.0,51,160.47
3897,G2,676.0,4.0,35,160.47
3898,E3,676.0,2.0,38,160.47
3899,G3,676.0,2.0,38,160.47
3900,E4,677.0,0.5,46,160.47
3901,C4,677.5,0.5,46,160.47
3902,F4,678.0,1.0,51,160.47
3903,D3,678.0,2.0,36,160.47
3904,F3,678.0,2.0,36,160.47
3905,D4,679.0,0.5,46,160.47
3906,B3,679.5,0.5,46,160.47
3907,C4,680.0,1.0,55,160.47
3908,C3,680.0,1.0,40,160.47
3909,E3,680.0,1.0,40,160.47
3910,F5,681.0,0.5,69,160.47
3911,A2,681.0,1.0,42,160.47
3912,F3,681.0,1.5,51,160.47
3913,E5,681.5,0.5,64,160.47
3914,D5,682.0,1.0,66,160.47
3915,B-2,682.0,2.0,42,160.47
3916,G3,682.5,0.5,49,160.47
3917,B-4,683.0,0.5,61,160.47
3918,A3,683.0,0.5,51,160.47
3919,G4,683.5,0.5,54,160.47
3920,B-3,683.5,0.5,55,160.47
3921,C5,684.0,1.0,51,160.47
3922,C3,684.0,4.0,35,160.47
3923,C4,684.0,2.0,38,160.47
3924,A3,684.0,2.0,38,160.47
3925,A4,685.0,0.5,46,160.47
3926,F4,685.5,0.5,46,160.47
3927,B-4,686.0,1.0,51,160.47
3928,G3,686.0,2.0,36,160.47
3929,B-3,686.0,2.0,36,160.47
3930,G4,687.0,0.5,46,160.47
3931,E4,687.5,0.5,46,160.47
3932,F4,688.0,0.5,55,160.47
3933,D3,688.0,1.0,39,160.47
3934,F3,688.0,1.0,39,160.47
3935,A3,688.0,1.0,39,160.47
3936,F4,689.0,0.5,68,160.47
3937,A1,689.0,1.0,42,160.47
3938,F2,689.0,1.5,51,160.47
3939,E4,689.5,0.5,63,160.47
3940,D4,690.0,1.0,66,160.47
3941,B-1,690.0,2.0,42,160.47
3942,G2,690.5,0.5,49,160.47
3943,B-3,691.0,0.5,61,160.47
3944,A2,691.0,0.5,51,160.47
3945,G3,691.5,0.5,54,160.47
3946,B-2,691.5,0.5,55,160.47
3947,C4,692.0,1.0,51,160.47
3948,C2,692.0,4.0,35,160.47
3949,C3,692.0,2.0,38,160.47
3950,A2,692.0,2.0,38,160.47
3951,A3,693.0,0.5,46,160.47
3952,F3,693.5,0.5,46,160.47
3953,B-3,694.0,1.0,51,160.47
3954,G2,694.0,2.0,36,160.47
3955,B-2,694.0,2.0,36,160.47
3956,G3,695.0,0.5,46,160.47
3957,E3,695.5,0.5,46,160.47
3958,A2,696.0,0.25,33,160.47
3959,F3,696.0,0.5,40,160.47
3960,F2,696.0,0.25,26,160.47
3961,F1,696.0,0.25,26,160.47
3962,F2,696.5,0.25,30,160.47
3963,A2,696.5,0.25,30,160.47
3964,C2,696.5,0.25,24,160.47
3965,F1,696.5,0.25,24,160.47
3966,F2,697.0,0.25,30,160.47
3967,A2,697.0,0.25,30,160.47
3968,C2,697.0,0.25,24,160.47
3969,F1,697.0,0.25,24,160.47
3970,F2,697.5,0.25,31,160.47
3971,A2,697.5,0.25,31,160.47
3972,C2,697.5,0.25,24,160.47
3973,F1,697.5,0.25,24,160.47
3974,F2,698.0,0.25,31,160.47
3975,A2,698.0,0.25,31,160.47
3976,C2,698.0,0.25,24,160.47
3977,F1,698.0,0.25,24,160.47
3978,F2,698.5,0.25,31,160.47
3979,A2,698.5,0.25,31,160.47
3980,C2,698.5,0.25,26,160.47
3981,F1,698.5,0.25,26,160.47
3982,F2,699.0,0.25,32,160.47
3983,A2,699.0,0.25,32,160.47
3984,C2,699.0,0.25,26,160.47
3985,F1,699.0,0.25,26,160.47
3986,F2,699.5,0.25,32,160.47
3987,A2,699.5,0.25,32,160.47
3988,C2,699.5,0.25,26,160.47
3989,F1,699.5,0.25,26,160.47
3990,F2,700.0,0.25,33,160.47
3991,A2,700.0,0.25,33,160.47
3992,F1,700.0,0.25,28,160.47
3993,C2,700.0,0.25,28,160.47
3994,F2,700.5,0.25,33,160.47
3995,A2,700.5,0.25,33,160.47
3996,F1,700.5,0.25,24,160.47
3997,C2,700.5,0.25,24,160.47
3998,F2,701.0,0.25,34,160.47
3999,A2,701.0,0.25,34,160.47
4000,F1,701.0,0.25,26,160.47
4001,C2,701.0,0.25,26,160.47
4002,F2,701.5,0.25,35,160.47
4003,A2,701.5,0.25,35,160.47
4004,F1,701.5,0.25,26,160.47
4005,C2,701.5,0.25,26,160.47
4006,F2,702.0,0.25,36,160.47
4007,A2,702.0,0.25,36,160.47
4008,F1,702.0,0.25,28,160.47
4009,C2,702.0,0.25,28,160.47
4010,F2,702.5,0.25,37,160.47
4011,A2,702.5,0.25,37,160.47
4012,F1,702.5,0.25,28,160.47
4013,C2,702.5,0.25,28,160.47
4014,G2,703.0,0.25,37,160.47
4015,B2,703.0,0.25,37,160.47
4016,F1,703.0,0.25,28,160.47
4017,D2,703.0,0.25,28,160.47
4018,G2,703.5,0.25,37,160.47
4019,B2,703.5,0.25,37,160.47
4020,F1,703.5,0.25,28,160.47
4021,D2,703.5,0.25,28,160.47
4022,C3,704.0,1.5,46,160.47
4023,E2,704.0,0.375,28,160.47
4024,G2,704.0,0.375,28,160.47
4025,E2,704.5,0.375,28,160.47
4026,G2,704.5,0.375,28,160.47
4027,E2,705.0,0.375,28,160.47
4028,G2,705.0,0.375,28,160.47
4029,E3,705.5,0.25,40,160.47
4030,E2,705.5,0.375,28,160.47
4031,G2,705.5,0.375,28,160.47
4032,D3,705.75,0.25,40,160.47
4033,C3,706.0,0.25,45,160.47
4034,E2,706.0,0.375,28,160.47
4035,G2,706.0,0.375,28,160.47
4036,E2,706.5,0.375,28,160.47
4037,G2,706.5,0.375,28,160.47
4038,E2,707.0,0.375,28,160.47
4039,G2,707.0,0.375,28,160.47
4040,E2,707.5,0.375,28,160.47
4041,G2,707.5,0.375,28,160.47
4042,F#5,707.875,0.125,46,160.47
4043,G5,708.0,1.25,57,160.47
4044,E-2,708.0,0.375,28,160.47
4045,G2,708.0,0.375,28,160.47
4046,E-2,708.5,0.375,28,160.47
4047,G2,708.5,0.375,28,160.47
4048,E-2,709.0,0.375,28,160.47
4049,G2,709.0,0.375,28,160.47
4050,F5,709.25,0.25,48,160.47
4051,E-5,709.5,0.25,47,160.47
4052,E-2,709.5,0.375,28,160.47
4053,G2,709.5,0.375,28,160.47
4054,D5,709.75,0.25,45,160.47
4055,C5,710.0,0.5,44,160.47
4056,E-2,710.0,0.375,28,160.47
4057,G2,710.0,0.375,28,160.47
4058,E-2,710.5,0.375,28,160.47
4059,G2,710.5,0.375,28,160.47
4060,E-2,711.0,0.375,28,160.47
4061,G2,711.0,0.375,28,160.47
4062,E-2,711.5,0.375,28,160.47
4063,G2,711.5,0.375,28,160.47
4064,F#3,712.0,1.5,46,160.47
4065,D2,712.0,0.375,28,160.47
4066,A2,712.0,0.375,28,160.47
4067,D2,712.5,0.375,28,160.47
4068,A2,712.5,0.375,28,160.47
4069,D2,713.0,0.375,28,160.47
4070,A2,713.0,0.375,28,160.47
4071,A3,713.5,0.25,40,160.47
4072,D2,713.5,0.375,28,160.47
4073,A2,713.5,0.375,28,160.47
4074,G3,713.75,0.25,40,160.47
4075,F#3,714.0,0.25,45,160.47
4076,D2,714.0,0.375,28,160.47
4077,A2,714.0,0.375,28,160.47
4078,D2,714.5,0.375,28,160.47
4079,A2,714.5,0.375,28,160.47
4080,D2,715.0,0.375,28,160.47
4081,A2,715.0,0.375,28,160.47
4082,D2,715.5,0.375,28,160.47
4083,A2,715.5,0.375,28,160.47
4084,D6,715.875,0.125,46,160.47
4085,E-6,716.0,1.25,57,160.47
4086,F#2,716.0,0.375,28,160.47
4087,D3,716.0,0.375,28,160.47
4088,F#2,716.5,0.375,28,160.47
4089,D3,716.5,0.375,28,160.47
4090,F#2,717.0,0.375,28,160.47
4091,D3,717.0,0.375,28,160.47
4092,D6,717.25,0.25,48,160.47
4093,C6,717.5,0.25,47,160.47
4094,F#2,717.5,0.375,28,160.47
4095,D3,717.5,0.375,28,160.47
4096,B-5,717.75,0.25,45,160.47
4097,A5,718.0,0.5,44,160.47
4098,F#2,718.0,0.375,28,160.47
4099,D3,718.0,0.375,28,160.47
4100,F#2,718.5,0.375,28,160.47
4101,D3,718.5,0.375,28,160.47
4102,F#2,719.0,0.375,28,160.47
4103,D3,719.0,0.375,28,160.47
4104,F#2,719.5,0.375,28,160.47
4105,D3,719.5,0.375,28,160.47
4106,B-3,720.0,0.5,57,160.47
4107,G2,720.0,0.344,30,160.47
4108,D3,720.25,0.25,26,160.47
4109,D4,720.5,0.25,48,160.47
4110,G2,720.5,0.344,30,160.47
4111,C4,720.75,0.25,48,160.47
4112,D3,720.75,0.25,27,160.47
4113,B-3,721.0,0.5,51,160.47
4114,G2,721.0,0.344,30,160.47
4115,D3,721.25,0.25,26,160.47
4116,G2,721.5,0.344,30,160.47
4117,D3,721.75,0.25,25,160.47
4118,C6,722.0,0.25,54,160.47
4119,A2,722.0,0.344,31,160.47
4120,B-5,722.25,0.25,52,160.47
4121,D3,722.25,0.25,26,160.47
4122,A5,722.5,0.25,50,160.47
4123,A2,722.5,0.344,31,160.47
4124,G5,722.75,0.25,48,160.47
4125,D3,722.75,0.25,27,160.47
4126,F#5,723.0,0.5,51,160.47
4127,A2,723.0,0.344,31,160.47
4128,D3,723.25,0.25,28,160.47
4129,A2,723.5,0.344,31,160.47
4130,D3,723.75,0.25,27,160.47
4131,G4,724.0,0.5,57,160.47
4132,B-2,724.0,0.344,30,160.47
4133,D3,724.25,0.25,26,160.47
4134,B-4,724.5,0.25,48,160.47
4135,B-2,724.5,0.344,30,160.47
4136,A4,724.75,0.25,48,160.47
4137,D3,724.75,0.25,27,160.47
4138,G4,725.0,0.5,51,160.47
4139,B-2,725.0,0.344,30,160.47
4140,D3,725.25,0.25,26,160.47
4141,B-2,725.5,0.344,30,160.47
4142,D3,725.75,0.25,25,160.47
4143,E-6,726.0,0.25,54,160.47
4144,F#2,726.0,0.344,31,160.47
4145,D6,726.25,0.25,52,160.47
4146,D3,726.25,0.25,26,160.47
4147,C6,726.5,0.25,50,160.47
4148,F#2,726.5,0.344,31,160.47
4149,B-5,726.75,0.25,48,160.47
4150,D3,726.75,0.25,27,160.47
4151,A5,727.0,0.5,51,160.47
4152,F#2,727.0,0.344,31,160.47
4153,D3,727.25,0.25,28,160.47
4154,F#2,727.5,0.344,31,160.47
4155,D3,727.75,0.25,27,160.47
4156,B-3,728.0,0.5,59,160.47
4157,G2,728.0,0.344,31,160.47
4158,D3,728.25,0.25,27,160.47
4159,D4,728.5,0.25,50,160.47
4160,G2,728.5,0.344,31,160.47
4161,C4,728.75,0.25,51,160.47
4162,D3,728.75,0.25,29,160.47
4163,B-3,729.0,0.5,56,160.47
4164,G2,729.0,0.344,32,160.47
4165,D3,729.25,0.25,28,160.47
4166,G2,729.5,0.344,34,160.47
4167,D3,729.75,0.25,29,160.47
4168,C6,730.0,0.25,63,160.47
4169,A2,730.0,0.344,36,160.47
4170,B-5,730.25,0.25,63,160.47
4171,D3,730.25,0.25,31,160.47
4172,A5,730.5,0.25,62,160.47
4173,A2,730.5,0.344,38,160.47
4174,G5,730.75,0.25,60,160.47
4175,D3,730.75,0.25,35,160.47
4176,F#5,731.0,0.5,64,160.47
4177,A2,731.0,0.344,40,160.47
4178,D3,731.25,0.25,37,160.47
4179,A2,731.5,0.344,43,160.47
4180,D3,731.75,0.25,38,160.47
4181,D5,732.0,0.25,73,160.47
4182,B-2,732.0,0.344,45,160.47
4183,C5,732.25,0.25,71,160.47
4184,D3,732.25,0.25,39,160.47
4185,B-4,732.5,0.25,71,160.47
4186,B-2,732.5,0.344,48,160.47
4187,A4,732.75,0.25,67,160.47
4188,D3,732.75,0.25,42,160.47
4189,G4,733.0,0.5,74,160.47
4190,B-2,733.0,0.344,50,160.47
4191,G3,733.25,0.25,46,160.47
4192,B-2,733.5,0.344,54,160.47
4193,G3,733.75,0.25,51,160.47
4194,G#5,734.0,0.25,87,160.47
4195,B2,734.0,0.344,64,160.47
4196,G5,734.25,0.25,83,160.47
4197,G3,734.25,0.25,53,160.47
4198,F5,734.5,0.25,81,160.47
4199,B2,734.5,0.344,64,160.47
4200,E-5,734.75,0.25,78,160.47
4201,G3,734.75,0.25,56,160.47
4202,D5,735.0,0.5,83,160.47
4203,B2,735.0,0.344,66,160.47
4204,G3,735.25,0.25,59,160.47
4205,B2,735.5,0.344,66,160.47
4206,G3,735.75,0.25,57,160.47
4207,E-4,736.0,0.5,57,160.47
4208,C3,736.0,0.344,30,160.47
4209,G3,736.25,0.25,26,160.47
4210,G4,736.5,0.25,48,160.47
4211,C3,736.5,0.344,30,160.47
4212,F4,736.75,0.25,48,160.47
4213,G3,736.75,0.25,27,160.47
4214,E-4,737.0,0.5,51,160.47
4215,C3,737.0,0.344,30,160.47
4216,G3,737.25,0.25,26,160.47
4217,C3,737.5,0.344,30,160.47
4218,G3,737.75,0.25,25,160.47
4219,F5,738.0,0.25,54,160.47
4220,D3,738.0,0.344,31,160.47
4221,E-5,738.25,0.25,52,160.47
4222,G3,738.25,0.25,26,160.47
4223,D5,738.5,0.25,50,160.47
4224,D3,738.5,0.344,31,160.47
4225,C5,738.75,0.25,48,160.47
4226,G3,738.75,0.25,27,160.47
4227,B4,739.0,0.5,51,160.47
4228,D3,739.0,0.344,31,160.47
4229,G3,739.25,0.25,28,160.47
4230,D3,739.5,0.344,31,160.47
4231,G3,739.75,0.25,27,160.47
4232,C4,740.0,0.5,57,160.47
4233,E-3,740.0,0.344,30,160.47
4234,G3,740.25,0.25,26,160.47
4235,E-4,740.5,0.25,48,160.47
4236,E-3,740.5,0.344,30,160.47
4237,D4,740.75,0.25,48,160.47
4238,G3,740.75,0.25,27,160.47
4239,C4,741.0,0.5,51,160.47
4240,E-3,741.0,0.344,30,160.47
4241,G3,741.25,0.25,26,160.47
4242,E-3,741.5,0.344,30,160.47
4243,G3,741.75,0.25,25,160.47
4244,G#5,742.0,0.25,54,160.47
4245,B2,742.0,0.344,31,160.47
4246,G5,742.25,0.25,52,160.47
4247,G3,742.25,0.25,26,160.47
4248,F5,742.5,0.25,50,160.47
4249,B2,742.5,0.344,31,160.47
4250,E-5,742.75,0.25,48,160.47
4251,G3,742.75,0.25,27,160.47
4252,D5,743.0,0.5,51,160.47
4253,B2,743.0,0.344,31,160.47
4254,G3,743.25,0.25,28,160.47
4255,B2,743.5,0.344,31,160.47
4256,G3,743.75,0.25,27,160.47
4257,E-4,744.0,0.5,59,160.47
4258,C3,744.0,0.344,31,160.47
4259,G3,744.25,0.25,27,160.47
4260,G4,744.5,0.25,50,160.47
4261,C3,744.5,0.344,31,160.47
4262,F4,744.75,0.25,51,160.47
4263,G3,744.75,0.25,29,160.47
4264,E-4,745.0,0.5,56,160.47
4265,C3,745.0,0.344,32,160.47
4266,G3,745.25,0.25,28,160.47
4267,C3,745.5,0.344,34,160.47
4268,G3,745.75,0.25,29,160.47
4269,F5,746.0,0.25,63,160.47
4270,D3,746.0,0.344,36,160.47
4271,E-5,746.25,0.25,63,160.47
4272,G3,746.25,0.25,31,160.47
4273,D5,746.5,0.25,62,160.47
4274,D3,746.5,0.344,38,160.47
4275,C5,746.75,0.25,60,160.47
4276,G3,746.75,0.25,35,160.47
4277,B4,747.0,0.5,64,160.47
4278,D3,747.0,0.344,40,160.47
4279,G3,747.25,0.25,37,160.47
4280,D3,747.5,0.344,43,160.47
4281,G3,747.75,0.25,38,160.47
4282,G5,748.0,0.25,73,160.47
4283,E-3,748.0,0.344,45,160.47
4284,F5,748.25,0.25,71,160.47
4285,G3,748.25,0.25,39,160.47
4286,E-5,748.5,0.25,71,160.47
4287,E-3,748.5,0.344,48,160.47
4288,D5,748.75,0.25,67,160.47
4289,G3,748.75,0.25,42,160.47
4290,C5,749.0,0.5,74,160.47
4291,E-3,749.0,0.344,50,160.47
4292,C4,749.25,0.25,46,160.47
4293,E-3,749.5,0.344,54,160.47
4294,C4,749.75,0.25,47,160.47
4295,C#6,750.0,0.25,87,160.47
4296,E3,750.0,0.344,64,160.47
4297,C6,750.25,0.25,83,160.47
4298,C4,750.25,0.25,53,160.47
4299,B-5,750.5,0.25,81,160.47
4300,E3,750.5,0.344,64,160.47
4301,G#5,750.75,0.25,78,160.47
4302,C4,750.75,0.25,56,160.47
4303,G5,751.0,0.5,83,160.47
4304,E3,751.0,0.344,66,160.47
4305,C4,751.25,0.25,59,160.47
4306,E3,751.5,0.344,66,160.47
4307,C4,751.75,0.25,57,160.47
4308,G#5,752.0,0.5,48,160.47
4309,F3,752.0,0.25,25,160.47
4310,G#3,752.25,0.25,22,160.47
4311,C6,752.5,0.25,40,160.47
4312,C4,752.5,0.25,22,160.47
4313,B-5,752.75,0.25,40,160.47
4314,F4,752.75,0.25,22,160.47
4315,G#5,753.0,0.5,43,160.47
4316,F3,753.0,0.25,25,160.47
4317,G#3,753.25,0.25,22,160.47
4318,C4,753.5,0.25,22,160.47
4319,F4,753.75,0.25,22,160.47
4320,C#6,754.0,0.5,48,160.47
4321,F3,754.0,0.25,26,160.47
4322,B-3,754.25,0.25,22,160.47
4323,F6,754.5,0.25,40,160.47
4324,C#4,754.5,0.25,22,160.47
4325,E-6,754.75,0.25,40,160.47
4326,F4,754.75,0.25,22,160.47
4327,C#6,755.0,0.5,43,160.47
4328,F3,755.0,0.25,26,160.47
4329,B-3,755.25,0.25,23,160.47
4330,C#4,755.5,0.25,22,160.47
4331,F4,755.75,0.25,22,160.47
4332,F#4,756.0,0.5,40,160.47
4333,E3,756.0,0.25,25,160.47
4334,F#3,756.25,0.25,22,160.47
4335,B-4,756.5,0.25,34,160.47
4336,B-3,756.5,0.25,22,160.47
4337,G#4,756.75,0.25,34,160.47
4338,C#4,756.75,0.25,22,160.47
4339,F#4,757.0,0.5,36,160.47
4340,E3,757.0,0.25,25,160.47
4341,F#3,757.25,0.25,22,160.47
4342,B-3,757.5,0.25,22,160.47
4343,C#4,757.75,0.25,22,160.47
4344,B4,758.0,2.0,40,160.47
4345,E-3,758.0,0.25,26,160.47
4346,F#3,758.25,0.25,22,160.47
4347,B3,758.5,0.25,22,160.47
4348,E-4,758.75,0.25,22,160.47
4349,E-3,759.0,0.25,26,160.47
4350,F#3,759.25,0.25,23,160.47
4351,B3,759.5,0.25,22,160.47
4352,E-4,759.75,0.25,22,160.47
4353,F5,760.0,0.5,48,160.47
4354,E-3,760.0,0.25,25,160.47
4355,F3,760.25,0.25,22,160.47
4356,A5,760.5,0.25,40,160.47
4357,A3,760.5,0.25,22,160.47
4358,G5,760.75,0.25,40,160.47
4359,C4,760.75,0.25,22,160.47
4360,F5,761.0,0.5,43,160.47
4361,E-3,761.0,0.25,25,160.47
4362,F3,761.25,0.25,22,160.47
4363,A3,761.5,0.25,22,160.47
4364,C4,761.75,0.25,22,160.47
4365,B-5,762.0,0.5,48,160.47
4366,C#3,762.0,0.25,26,160.47
4367,F3,762.25,0.25,22,160.47
4368,C#6,762.5,0.25,40,160.47
4369,B-3,762.5,0.25,22,160.47
4370,C6,762.75,0.25,40,160.47
4371,C#4,762.75,0.25,22,160.47
4372,B-5,763.0,0.5,43,160.47
4373,C#3,763.0,0.25,26,160.47
4374,F3,763.25,0.25,23,160.47
4375,B-3,763.5,0.25,22,160.47
4376,C#4,763.75,0.25,22,160.47
4377,E-4,764.0,0.5,40,160.47
4378,C#3,764.0,0.25,25,160.47
4379,E-3,764.25,0.25,22,160.47
4380,G4,764.5,0.25,34,160.47
4381,G3,764.5,0.25,22,160.47
4382,F4,764.75,0.25,34,160.47
4383,B-3,764.75,0.25,22,160.47
4384,E-4,765.0,0.5,36,160.47
4385,C#3,765.0,0.25,25,160.47
4386,E-3,765.25,0.25,22,160.47
4387,G3,765.5,0.25,22,160.47
4388,B-3,765.75,0.25,22,160.47
4389,G#4,766.0,2.0,40,160.47
4390,C3,766.0,0.25,26,160.47
4391,E-3,766.25,0.25,22,160.47
4392,G#3,766.5,0.25,22,160.47
4393,C4,766.75,0.25,22,160.47
4394,C3,767.0,0.25,26,160.47
4395,E-3,767.25,0.25,23,160.47
4396,G#3,767.5,0.25,22,160.47
4397,C4,767.75,0.25,22,160.47
4398,C#5,768.0,0.5,48,160.47
4399,B2,768.0,0.25,25,160.47
4400,C#3,768.25,0.25,22,160.47
4401,F5,768.5,0.25,40,160.47
4402,F3,768.5,0.25,22,160.47
4403,E-5,768.75,0.25,40,160.47
4404,G#3,768.75,0.25,22,160.47
4405,C#5,769.0,0.5,43,160.47
4406,B2,769.0,0.25,25,160.47
4407,C#3,769.25,0.25,22,160.47
4408,F3,769.5,0.25,22,160.47
4409,G#3,769.75,0.25,22,160.47
4410,F#5,770.0,0.5,48,160.47
4411,B-2,770.0,0.25,26,160.47
4412,C#3,770.25,0.25,22,160.47
4413,B-5,770.5,0.25,40,160.47
4414,F#3,770.5,0.25,22,160.47
4415,G#5,770.75,0.25,40,160.47
4416,B-3,770.75,0.25,22,160.47
4417,F#5,771.0,0.5,43,160.47
4418,B-2,771.0,0.25,26,160.47
4419,C#3,771.25,0.25,23,160.47
4420,F#3,771.5,0.25,22,160.47
4421,B-3,771.75,0.25,22,160.47
4422,C4,772.0,0.5,42,160.47
4423,B-2,772.0,0.25,26,160.47
4424,C3,772.25,0.25,23,160.47
4425,E4,772.5,0.25,35,160.47
4426,E3,772.5,0.25,23,160.47
4427,D4,772.75,0.25,35,160.47
4428,G3,772.75,0.25,23,160.47
4429,C4,773.0,0.5,38,160.47
4430,B-2,773.0,0.25,26,160.47
4431,C3,773.25,0.25,23,160.47
4432,E3,773.5,0.25,23,160.47
4433,G3,773.75,0.25,23,160.47
4434,C5,774.0,2.0,42,160.47
4435,G#2,774.0,0.25,27,160.47
4436,C3,774.25,0.25,23,160.47
4437,F3,774.5,0.25,23,160.47
4438,G#3,774.75,0.25,23,160.47
4439,G#2,775.0,0.25,28,160.47
4440,C3,775.25,0.25,25,160.47
4441,F3,775.5,0.25,23,160.47
4442,G#3,775.75,0.25,23,160.47
4443,C5,776.0,0.5,59,160.47
4444,G2,776.0,0.25,32,160.47
4445,B-2,776.25,0.25,28,160.47
4446,E5,776.5,0.25,52,160.47
4447,E3,776.5,0.25,28,160.47
4448,D5,776.75,0.25,52,160.47
4449,G3,776.75,0.25,29,160.47
4450,C5,777.0,0.5,56,160.47
4451,G2,777.0,0.25,34,160.47
4452,B-2,777.25,0.25,29,160.47
4453,E3,777.5,0.25,31,160.47
4454,G3,777.75,0.25,32,160.47
4455,C6,778.0,2.0,69,160.47
4456,F2,778.0,0.25,39,160.47
4457,G#2,778.25,0.25,33,160.47
4458,C3,778.5,0.25,33,160.47
4459,F3,778.75,0.25,34,160.47
4460,F2,779.0,333/1000,41,160.47
4461,G#2,779.333,333/1000,35,160.47
4462,F3,779.667,333/1000,36,160.47
4463,C6,780.0,0.5,68,160.47
4464,E2,780.0,333/1000,44,160.47
4465,G2,780.333,333/1000,45,160.47
4466,E6,780.5,0.25,70,160.47
4467,E3,780.667,333/1000,47,160.47
4468,D6,780.75,0.25,71,160.47
4469,C6,781.0,0.25,73,160.47
4470,E-2,781.0,333/1000,47,160.47
4471,G2,781.333,333/1000,49,160.47
4472,C6,781.5,0.25,77,160.47
4473,E-3,781.667,333/1000,51,160.47
4474,C6,782.0,0.25,81,160.47
4475,D2,782.0,333/1000,54,160.47
4476,F2,782.333,333/1000,53,160.47
4477,C6,782.5,0.5,83,160.47
4478,D3,782.667,333/1000,56,160.47
4479,F6,783.0,0.5,86,160.47
4480,C#2,783.0,333/1000,56,160.47
4481,F2,783.333,333/1000,58,160.47
4482,B5,783.5,0.5,90,160.47
4483,C#3,783.667,333/1000,59,160.47
4484,C6,784.0,1.0,93,160.47
4485,C2,784.0,333/1000,68,160.47
4486,C3,784.0,333/1000,68,160.47
4487,G2,784.333,333/1000,61,160.47
4488,E2,784.667,333/1000,62,160.47
4489,G4,785.0,2.0,75,160.47
4490,G2,785.0,333/1000,70,160.47
4491,C3,785.333,333/1000,63,160.47
4492,E3,785.667,333/1000,64,160.47
4493,D3,786.0,333/1000,70,160.47
4494,B2,786.333,333/1000,63,160.47
4495,G2,786.667,333/1000,64,160.47
4496,G4,787.0,1.0,75,160.47
4497,B2,787.0,333/1000,70,160.47
4498,D3,787.333,333/1000,65,160.47
4499,F3,787.667,333/1000,65,160.47
4500,C5,788.0,333/1000,82,160.47
4501,E3,788.0,333/1000,64,160.47
4502,G4,788.333,333/1000,74,160.47
4503,G3,788.333,333/1000,56,160.47
4504,E4,788.667,333/1000,74,160.47
4505,C4,788.667,333/1000,56,160.47
4506,G4,789.0,333/1000,82,160.47
4507,G3,789.0,333/1000,64,160.47
4508,C5,789.333,333/1000,74,160.47
4509,E3,789.333,333/1000,57,160.47
4510,E5,789.667,333/1000,73,160.47
4511,C3,789.667,333/1000,57,160.47
4512,D5,790.0,333/1000,82,160.47
4513,F3,790.0,333/1000,64,160.47
4514,B4,790.333,333/1000,74,160.47
4515,G#3,790.333,333/1000,56,160.47
4516,G#4,790.667,333/1000,74,160.47
4517,C4,790.667,333/1000,56,160.47
4518,B4,791.0,333/1000,82,160.47
4519,G#3,791.0,333/1000,64,160.47
4520,D5,791.333,333/1000,75,160.47
4521,F3,791.333,333/1000,57,160.47
4522,F5,791.667,333/1000,75,160.47
4523,C3,791.667,333/1000,58,160.47
4524,E5,792.0,333/1000,82,160.47
4525,G3,792.0,1333/1000,64,160.47
4526,C#5,792.333,333/1000,74,160.47
4527,B-3,792.333,667/1000,56,160.47
4528,B-4,792.667,333/1000,77,160.47
4529,C4,792.667,3333/1000,56,160.47
4530,C#5,793.0,333/1000,82,160.47
4531,B-3,793.0,3.0,64,160.47
4532,E5,793.333,333/1000,75,160.47
4533,G3,793.333,2667/1000,57,160.47
4534,G5,793.667,333/1000,74,160.47
4535,C3,793.667,2333/1000,57,160.47
4536,B-5,794.0,333/1000,82,160.47
4537,E5,794.333,333/1000,74,160.47
4538,C#6,794.667,333/1000,74,160.47
4539,E5,795.0,333/1000,82,160.47
4540,C#5,795.333,333/1000,74,160.47
4541,B-5,795.667,333/1000,74,160.47
4542,C#5,796.0,333/1000,82,160.47
4543,G3,796.0,4.0,57,160.47
4544,B-3,796.0,4.0,64,160.47
4545,C4,796.0,4.0,56,160.47
4546,C3,796.0,4.0,57,160.47
4547,B-4,796.333,333/1000,74,160.47
4548,E5,796.667,333/1000,74,160.47
4549,B-4,797.0,333/1000,78,160.47
4550,E4,797.333,333/1000,74,160.47
4551,C#5,797.667,333/1000,74,160.47
4552,B-4,798.0,333/1000,77,160.47
4553,E4,798.333,333/1000,71,160.47
4554,C5,798.667,333/1000,71,160.47
4555,B-4,799.0,333/1000,76,160.47
4556,E4,799.333,333/1000,71,160.47
4557,C5,799.667,333/1000,71,160.47
4558,F4,800.0,1.0,71,160.47
4559,A4,800.0,1.0,71,160.47
4560,C5,800.0,1.0,71,160.47
4561,F2,800.0,333/1000,68,160.47
4562,F3,800.0,333/1000,68,160.47
4563,C3,800.333,333/1000,61,160.47
4564,A2,800.667,333/1000,62,160.47
4565,C5,801.0,2.0,75,160.47
4566,C3,801.0,333/1000,70,160.47
4567,F3,801.333,333/1000,63,160.47
4568,A3,801.667,333/1000,64,160.47
4569,G3,802.0,333/1000,70,160.47
4570,E3,802.333,333/1000,63,160.47
4571,C3,802.667,333/1000,64,160.47
4572,C5,803.0,1.0,75,160.47
4573,E3,803.0,333/1000,70,160.47
4574,G3,803.333,333/1000,65,160.47
4575,B-3,803.667,333/1000,65,160.47
4576,F5,804.0,333/1000,82,160.47
4577,A3,804.0,333/1000,64,160.47
4578,C5,804.333,333/1000,74,160.47
4579,C4,804.333,333/1000,56,160.47
4580,A4,804.667,333/1000,74,160.47
4581,F4,804.667,333/1000,56,160.47
4582,C5,805.0,333/1000,82,160.47
4583,C4,805.0,333/1000,64,160.47
4584,F5,805.333,333/1000,74,160.47
4585,A3,805.333,333/1000,57,160.47
4586,A5,805.667,333/1000,73,160.47
4587,F3,805.667,333/1000,57,160.47
4588,G5,806.0,333/1000,82,160.47
4589,B-3,806.0,333/1000,64,160.47
4590,E5,806.333,333/1000,74,160.47
4591,C#4,806.333,333/1000,56,160.47
4592,C#5,806.667,333/1000,74,160.47
4593,F4,806.667,333/1000,56,160.47
4594,E5,807.0,333/1000,82,160.47
4595,C#4,807.0,333/1000,64,160.47
4596,G5,807.333,333/1000,75,160.47
4597,B-3,807.333,333/1000,57,160.47
4598,B-5,807.667,333/1000,75,160.47
4599,F3,807.667,333/1000,58,160.47
4600,A5,808.0,333/1000,82,160.47
4601,C4,808.0,1333/1000,64,160.47
4602,F#5,808.333,333/1000,74,160.47
4603,E-4,808.333,667/1000,56,160.47
4604,E-5,808.667,333/1000,77,160.47
4605,F4,808.667,3333/1000,56,160.47
4606,F#5,809.0,333/1000,82,160.47
4607,E-4,809.0,3.0,64,160.47
4608,A5,809.333,333/1000,75,160.47
4609,C4,809.333,2667/1000,57,160.47
4610,C6,809.667,333/1000,74,160.47
4611,F3,809.667,2333/1000,57,160.47
4612,A5,810.0,333/1000,82,160.47
4613,F#5,810.333,333/1000,74,160.47
4614,E-6,810.667,333/1000,74,160.47
4615,F#5,811.0,333/1000,82,160.47
4616,E-5,811.333,333/1000,74,160.47
4617,C6,811.667,333/1000,74,160.47
4618,E-5,812.0,333/1000,82,160.47
4619,C4,812.0,4.0,57,160.47
4620,E-4,812.0,4.0,64,160.47
4621,F4,812.0,4.0,56,160.47
4622,F3,812.0,4.0,57,160.47
4623,C5,812.333,333/1000,74,160.47
4624,A5,812.667,333/1000,74,160.47
4625,E-5,813.0,333/1000,78,160.47
4626,A4,813.333,333/1000,74,160.47
4627,F#5,813.667,333/1000,74,160.47
4628,E-5,814.0,333/1000,77,160.47
4629,A4,814.333,333/1000,71,160.47
4630,F5,814.667,333/1000,71,160.47
4631,E-5,815.0,333/1000,76,160.47
4632,A4,815.333,333/1000,71,160.47
4633,F5,815.667,333/1000,71,160.47
4634,B-4,816.0,1.0,71,160.47
4635,D5,816.0,1.0,71,160.47
4636,F5,816.0,1.0,71,160.47
4637,B-1,816.0,333/1000,68,160.47
4638,B-2,816.0,333/1000,68,160.47
4639,F2,816.333,333/1000,61,160.47
4640,D2,816.667,333/1000,62,160.47
4641,F4,817.0,2.0,75,160.47
4642,F2,817.0,333/1000,70,160.47
4643,B-2,817.333,333/1000,63,160.47
4644,D3,817.667,333/1000,64,160.47
4645,C3,818.0,333/1000,70,160.47
4646,A2,818.333,333/1000,63,160.47
4647,F2,818.667,333/1000,64,160.47
4648,F4,819.0,1.0,75,160.47
4649,A2,819.0,333/1000,70,160.47
4650,C3,819.333,333/1000,65,160.47
4651,E-3,819.667,333/1000,65,160.47
4652,B-4,820.0,333/1000,82,160.47
4653,D3,820.0,333/1000,64,160.47
4654,F4,820.333,333/1000,74,160.47
4655,F3,820.333,333/1000,56,160.47
4656,D4,820.667,333/1000,74,160.47
4657,B-3,820.667,333/1000,56,160.47
4658,F4,821.0,333/1000,82,160.47
4659,F3,821.0,333/1000,64,160.47
4660,B-4,821.333,333/1000,74,160.47
4661,D3,821.333,333/1000,57,160.47
4662,D5,821.667,333/1000,73,160.47
4663,B-2,821.667,333/1000,57,160.47
4664,C5,822.0,333/1000,82,160.47
4665,E-3,822.0,333/1000,64,160.47
4666,A4,822.333,333/1000,74,160.47
4667,F#3,822.333,333/1000,56,160.47
4668,F#4,822.667,333/1000,74,160.47
4669,B-3,822.667,333/1000,56,160.47
4670,A4,823.0,333/1000,82,160.47
4671,F#3,823.0,333/1000,64,160.47
4672,C5,823.333,333/1000,75,160.47
4673,E-3,823.333,333/1000,57,160.47
4674,E-5,823.667,333/1000,75,160.47
4675,B-2,823.667,333/1000,58,160.47
4676,D5,824.0,333/1000,82,160.47
4677,F3,824.0,1333/1000,64,160.47
4678,B4,824.333,333/1000,74,160.47
4679,G#3,824.333,667/1000,56,160.47
4680,G#4,824.667,333/1000,77,160.47
4681,B-3,824.667,3333/1000,56,160.47
4682,B4,825.0,333/1000,82,160.47
4683,G#3,825.0,3.0,64,160.47
4684,D5,825.333,333/1000,75,160.47
4685,F3,825.333,2667/1000,57,160.47
4686,F5,825.667,333/1000,74,160.47
4687,B-2,825.667,2333/1000,57,160.47
4688,G#5,826.0,333/1000,82,160.47
4689,D5,826.333,333/1000,74,160.47
4690,B5,826.667,333/1000,74,160.47
4691,D5,827.0,333/1000,82,160.47
4692,B4,827.333,333/1000,74,160.47
4693,G#5,827.667,333/1000,74,160.47
4694,B4,828.0,333/1000,82,160.47
4695,F3,828.0,4.0,57,160.47
4696,G#3,828.0,4.0,64,160.47
4697,B-3,828.0,4.0,56,160.47
4698,B-2,828.0,4.0,57,160.47
4699,G#4,828.333,333/1000,74,160.47
4700,F5,828.667,333/1000,74,160.47
4701,G#4,829.0,333/1000,78,160.47
4702,F4,829.333,333/1000,74,160.47
4703,D5,829.667,333/1000,74,160.47
4704,G#4,830.0,333/1000,77,160.47
4705,D4,830.333,333/1000,71,160.47
4706,B4,830.667,333/1000,71,160.47
4707,G#4,831.0,333/1000,76,160.47
4708,D4,831.333,333/1000,71,160.47
4709,B-4,831.667,333/1000,71,160.47
4710,F#5,832.0,333/1000,82,160.47
4711,E-3,832.0,1333/1000,64,160.47
4712,E-5,832.333,333/1000,74,160.47
4713,F#3,832.333,667/1000,56,160.47
4714,B-4,832.667,333/1000,77,160.47
4715,B-3,832.667,3333/1000,56,160.47
4716,E-5,833.0,333/1000,82,160.47
4717,F#3,833.0,3.0,64,160.47
4718,F#5,833.333,333/1000,75,160.47
4719,E-3,833.333,2667/1000,57,160.47
4720,B-5,833.667,333/1000,74,160.47
4721,B-2,833.667,2333/1000,57,160.47
4722,F#5,834.0,333/1000,82,160.47
4723,E-5,834.333,333/1000,74,160.47
4724,E-6,834.667,333/1000,74,160.47
4725,E-5,835.0,333/1000,82,160.47
4726,B-4,835.333,333/1000,74,160.47
4727,B-5,835.667,333/1000,74,160.47
4728,B-4,836.0,333/1000,82,160.47
4729,E-3,836.0,4.0,57,160.47
4730,F#3,836.0,4.0,64,160.47
4731,B-3,836.0,4.0,56,160.47
4732,B-2,836.0,4.0,57,160.47
4733,F#4,836.333,333/1000,74,160.47
4734,F#5,836.667,333/1000,74,160.47
4735,F#4,837.0,333/1000,78,160.47
4736,E-4,837.333,333/1000,74,160.47
4737,E-5,837.667,333/1000,74,160.47
4738,F#4,838.0,333/1000,77,160.47
4739,E-4,838.333,333/1000,71,160.47
4740,E-5,838.667,333/1000,71,160.47
4741,F#4,839.0,333/1000,76,160.47
4742,E-4,839.333,333/1000,71,160.47
4743,E-5,839.667,333/1000,71,160.47
4744,F#5,840.0,333/1000,82,160.47
4745,C#3,840.0,1333/1000,64,160.47
4746,E5,840.333,333/1000,74,160.47
4747,F#3,840.333,667/1000,56,160.47
4748,C#5,840.667,333/1000,77,160.47
4749,B-3,840.667,3333/1000,56,160.47
4750,E5,841.0,333/1000,82,160.47
4751,F#3,841.0,3.0,64,160.47
4752,F#5,841.333,333/1000,75,160.47
4753,C#3,841.333,2667/1000,57,160.47
4754,C#6,841.667,333/1000,74,160.47
4755,B-2,841.667,2333/1000,57,160.47
4756,F#5,842.0,333/1000,82,160.47
4757,E5,842.333,333/1000,74,160.47
4758,E6,842.667,333/1000,74,160.47
4759,E5,843.0,333/1000,82,160.47
4760,C#5,843.333,333/1000,74,160.47
4761,C#6,843.667,333/1000,74,160.47
4762,C#5,844.0,333/1000,82,160.47
4763,C#3,844.0,4.0,57,160.47
4764,F#3,844.0,4.0,64,160.47
4765,B-3,844.0,4.0,56,160.47
4766,B-2,844.0,4.0,57,160.47
4767,F#4,844.333,333/1000,74,160.47
4768,F#5,844.667,333/1000,74,160.47
4769,F#4,845.0,333/1000,78,160.47
4770,E4,845.333,333/1000,74,160.47
4771,E5,845.667,333/1000,74,160.47
4772,F#4,846.0,333/1000,77,160.47
4773,E4,846.333,333/1000,71,160.47
4774,E5,846.667,333/1000,71,160.47
4775,F#4,847.0,333/1000,76,160.47
4776,E4,847.333,333/1000,71,160.47
4777,E5,847.667,333/1000,71,160.47
4778,F#5,848.0,333/1000,82,160.47
4779,D3,848.0,1333/1000,64,160.47
4780,D5,848.333,333/1000,74,160.47
4781,F#3,848.333,667/1000,56,160.47
4782,B4,848.667,333/1000,77,160.47
4783,B3,848.667,3333/1000,56,160.47
4784,D5,849.0,333/1000,82,160.47
4785,F#3,849.0,3.0,64,160.47
4786,F#5,849.333,333/1000,75,160.47
4787,D3,849.333,2667/1000,57,160.47
4788,B5,849.667,333/1000,74,160.47
4789,B2,849.667,2333/1000,57,160.47
4790,F#5,850.0,333/1000,82,160.47
4791,D5,850.333,333/1000,74,160.47
4792,D6,850.667,333/1000,74,160.47
4793,D5,851.0,333/1000,82,160.47
4794,B4,851.333,333/1000,74,160.47
4795,B5,851.667,333/1000,74,160.47
4796,B4,852.0,333/1000,82,160.47
4797,D3,852.0,4.0,57,160.47
4798,F#3,852.0,4.0,64,160.47
4799,B3,852.0,4.0,56,160.47
4800,B2,852.0,4.0,57,160.47
4801,F#4,852.333,333/1000,74,160.47
4802,F#5,852.667,333/1000,74,160.47
4803,F#4,853.0,333/1000,78,160.47
4804,D4,853.333,333/1000,74,160.47
4805,D5,853.667,333/1000,74,160.47
4806,F#4,854.0,333/1000,77,160.47
4807,D4,854.333,333/1000,71,160.47
4808,D5,854.667,333/1000,71,160.47
4809,F#4,855.0,333/1000,76,160.47
4810,D4,855.333,333/1000,71,160.47
4811,D5,855.667,333/1000,71,160.47
4812,G5,856.0,333/1000,82,160.47
4813,D3,856.0,1333/1000,64,160.47
4814,D5,856.333,333/1000,74,160.47
4815,G3,856.333,667/1000,56,160.47
4816,B4,856.667,333/1000,77,160.47
4817,B3,856.667,3333/1000,56,160.47
4818,D5,857.0,333/1000,82,160.47
4819,G3,857.0,3.0,64,160.47
4820,G5,857.333,333/1000,75,160.47
4821,D3,857.333,2667/1000,57,160.47
4822,B5,857.667,333/1000,74,160.47
4823,B2,857.667,2333/1000,57,160.47
4824,G5,858.0,333/1000,82,160.47
4825,D5,858.333,333/1000,74,160.47
4826,D6,858.667,333/1000,74,160.47
4827,D5,859.0,333/1000,82,160.47
4828,B4,859.333,333/1000,74,160.47
4829,B5,859.667,333/1000,74,160.47
4830,B4,860.0,333/1000,82,160.47
4831,D3,860.0,4.0,57,160.47
4832,G3,860.0,4.0,64,160.47
4833,B3,860.0,4.0,56,160.47
4834,B2,860.0,4.0,57,160.47
4835,G4,860.333,333/1000,74,160.47
4836,G5,860.667,333/1000,74,160.47
4837,G4,861.0,333/1000,78,160.47
4838,F4,861.333,333/1000,74,160.47
4839,F5,861.667,333/1000,74,160.47
4840,G4,862.0,333/1000,77,160.47
4841,D4,862.333,333/1000,71,160.47
4842,D5,862.667,333/1000,71,160.47
4843,G4,863.0,333/1000,76,160.47
4844,D4,863.333,333/1000,71,160.47
4845,D5,863.667,333/1000,71,160.47
4846,C6,864.0,333/1000,82,160.47
4847,E-3,864.0,1333/1000,64,160.47
4848,G5,864.333,333/1000,74,160.47
4849,G3,864.333,667/1000,56,160.47
4850,E-5,864.667,333/1000,77,160.47
4851,C4,864.667,3333/1000,56,160.47
4852,G5,865.0,333/1000,82,160.47
4853,G3,865.0,3.0,64,160.47
4854,C6,865.333,333/1000,75,160.47
4855,E-3,865.333,2667/1000,57,160.47
4856,E-6,865.667,333/1000,74,160.47
4857,C3,865.667,2333/1000,57,160.47
4858,G5,866.0,333/1000,82,160.47
4859,E-5,866.333,333/1000,74,160.47
4860,E-6,866.667,333/1000,74,160.47
4861,E-5,867.0,333/1000,82,160.47
4862,C5,867.333,333/1000,74,160.47
4863,C6,867.667,333/1000,74,160.47
4864,C5,868.0,333/1000,82,160.47
4865,E-3,868.0,4.0,57,160.47
4866,G3,868.0,4.0,64,160.47
4867,C4,868.0,4.0,56,160.47
4868,C3,868.0,4.0,57,160.47
4869,G4,868.333,333/1000,74,160.47
4870,G5,868.667,333/1000,74,160.47
4871,G4,869.0,333/1000,78,160.47
4872,E-4,869.333,333/1000,74,160.47
4873,E-5,869.667,333/1000,74,160.47
4874,G4,870.0,333/1000,77,160.47
4875,E-4,870.333,333/1000,71,160.47
4876,E-5,870.667,333/1000,71,160.47
4877,G4,871.0,333/1000,76,160.47
4878,E-4,871.333,333/1000,71,160.47
4879,E-5,871.667,333/1000,71,160.47
4880,F5,872.0,333/1000,82,160.47
4881,G#3,872.0,1333/1000,64,160.47
4882,C#5,872.333,333/1000,74,160.47
4883,C#4,872.333,667/1000,56,160.47
4884,G#4,872.667,333/1000,77,160.47
4885,F4,872.667,3333/1000,56,160.47
4886,C#5,873.0,333/1000,82,160.47
4887,C#4,873.0,3.0,64,160.47
4888,F5,873.333,333/1000,75,160.47
4889,G#3,873.333,2667/1000,57,160.47
4890,G#5,873.667,333/1000,74,160.47
4891,F3,873.667,2333/1000,57,160.47
4892,F5,874.0,333/1000,82,160.47
4893,C#5,874.333,333/1000,74,160.47
4894,G#4,874.667,333/1000,74,160.47
4895,F5,875.0,333/1000,82,160.47
4896,C#5,875.333,333/1000,74,160.47
4897,G#4,875.667,333/1000,74,160.47
4898,E-5,876.0,333/1000,82,160.47
4899,C4,876.0,1333/1000,64,160.47
4900,C5,876.333,333/1000,74,160.47
4901,E-4,876.333,667/1000,56,160.47
4902,A4,876.667,333/1000,77,160.47
4903,F#4,876.667,3333/1000,56,160.47
4904,C5,877.0,333/1000,82,160.47
4905,E-4,877.0,1.0,64,160.47
4906,E-5,877.333,333/1000,75,160.47
4907,C4,877.333,2667/1000,57,160.47
4908,A5,877.667,333/1000,74,160.47
4909,F#3,877.667,2333/1000,57,160.47
4910,E-5,878.0,333/1000,82,160.47
4911,C5,878.333,333/1000,74,160.47
4912,A4,878.667,333/1000,74,160.47
4913,E-5,879.0,333/1000,82,160.47
4914,C5,879.333,333/1000,74,160.47
4915,A4,879.667,333/1000,74,160.47
4916,B3,880.0,1333/1000,70,160.47
4917,D4,880.333,667/1000,61,160.47
4918,G4,880.667,2333/1000,61,160.47
4919,B4,881.0,333/1000,83,160.47
4920,D4,881.0,2.0,70,160.47
4921,D5,881.333,333/1000,72,160.47
4922,B3,881.333,1667/1000,62,160.47
4923,G5,881.667,333/1000,72,160.47
4924,G3,881.667,2333/1000,62,160.47
4925,D5,882.0,333/1000,83,160.47
4926,B4,882.333,333/1000,71,160.47
4927,G4,882.667,333/1000,70,160.47
4928,F5,883.0,333/1000,58,160.47
4929,D4,883.0,1.0,36,160.47
4930,B4,883.333,333/1000,47,160.47
4931,G4,883.667,333/1000,47,160.47
4932,F5,884.0,333/1000,55,160.47
4933,B3,884.0,1.0,41,160.47
4934,G3,884.0,1.0,62,160.47
4935,D5,884.333,333/1000,47,160.47
4936,G4,884.667,333/1000,47,160.47
4937,E-5,885.0,333/1000,55,160.47
4938,G3,885.0,3.0,36,160.47
4939,D5,885.333,333/1000,47,160.47
4940,G4,885.667,333/1000,47,160.47
4941,E-5,886.0,333/1000,55,160.47
4942,C4,886.0,1.0,36,160.47
4943,C5,886.333,333/1000,48,160.47
4944,G4,886.667,333/1000,48,160.47
4945,D5,887.0,333/1000,55,160.47
4946,F#4,887.0,1.0,36,160.47
4947,C5,887.333,333/1000,47,160.47
4948,A4,887.667,333/1000,47,160.47
4949,B2,888.0,1333/1000,62,160.47
4950,D3,888.333,667/1000,55,160.47
4951,G3,888.667,199/100,55,160.47
4952,B3,889.0,333/1000,78,160.47
4953,D3,889.0,2.0,62,160.47
4954,D4,889.333,333/1000,71,160.47
4955,B2,889.333,1667/1000,56,160.47
4956,G4,889.667,333/1000,71,160.47
4957,G2,889.667,2333/1000,56,160.47
4958,D4,890.0,333/1000,74,160.47
4959,B3,890.333,333/1000,63,160.47
4960,G3,890.667,333/1000,62,160.47
4961,F4,891.0,333/1000,52,160.47
4962,D3,891.0,1.0,32,160.47
4963,B3,891.333,333/1000,42,160.47
4964,G3,891.667,333/1000,42,160.47
4965,F4,892.0,333/1000,49,160.47
4966,B2,892.0,1.0,36,160.47
4967,G2,892.0,1.0,56,160.47
4968,D4,892.333,333/1000,42,160.47
4969,G3,892.667,333/1000,42,160.47
4970,E-4,893.0,333/1000,49,160.47
4971,G2,893.0,3.0,32,160.47
4972,D4,893.333,333/1000,42,160.47
4973,G3,893.667,333/1000,42,160.47
4974,E-4,894.0,333/1000,49,160.47
4975,C3,894.0,1.0,32,160.47
4976,C4,894.333,333/1000,43,160.47
4977,G3,894.667,333/1000,43,160.47
4978,D4,895.0,333/1000,49,160.47
4979,F#3,895.0,1.0,32,160.47
4980,C4,895.333,333/1000,42,160.47
4981,A3,895.667,333/1000,42,160.47
4982,D4,896.0,333/1000,49,160.47
4983,G3,896.0,0.5,36,160.47
4984,G2,896.0,0.5,32,160.47
4985,B3,896.333,333/1000,42,160.47
4986,G3,896.667,333/1000,42,160.47
4987,C4,897.0,333/1000,49,160.47
4988,C3,897.0,1.0,32,160.47
4989,G3,897.333,333/1000,42,160.47
4990,E-3,897.667,333/1000,41,160.47
4991,B3,898.0,333/1000,48,160.47
4992,G2,898.0,1.0,31,160.47
4993,G3,898.333,333/1000,41,160.47
4994,D3,898.667,333/1000,41,160.47
4995,A3,899.0,333/1000,46,160.47
4996,C2,899.0,1.0,30,160.47
4997,E-3,899.333,333/1000,39,160.47
4998,C3,899.667,333/1000,39,160.47
4999,G3,900.0,333/1000,45,160.47
5000,G1,900.0,1.0,33,160.47
5001,D3,900.333,333/1000,38,160.47
5002,B2,900.667,333/1000,37,160.47
5003,F#3,901.0,333/1000,43,160.47
5004,C2,901.0,1.0,28,160.47
5005,E-3,901.333,333/1000,36,160.47
5006,A2,901.667,333/1000,36,160.47
5007,G3,902.0,333/1000,42,160.47
5008,G1,902.0,1.0,27,160.47
5009,D3,902.333,333/1000,36,160.47
5010,B2,902.667,333/1000,36,160.47
5011,F#3,903.0,333/1000,40,160.47
5012,C2,903.0,1.0,26,160.47
5013,E-3,903.333,333/1000,34,160.47
5014,A2,903.667,333/1000,34,160.47
5015,G1,904.0,0.25,37,160.47
5016,B2,904.0,4.0,40,160.47
5017,D3,904.0,4.0,40,160.47
5018,G3,904.0,4.0,40,160.47
5019,C2,904.25,0.25,33,160.47
5020,B1,904.5,0.25,33,160.47
5021,A1,904.75,0.25,33,160.47
5022,G1,905.0,0.25,37,160.47
5023,C2,905.25,0.25,33,160.47
5024,B1,905.5,0.25,33,160.47
5025,A1,905.75,0.25,33,160.47
5026,G1,906.0,0.25,37,160.47
5027,C2,906.25,0.25,33,160.47
5028,B1,906.5,0.25,33,160.47
5029,A1,906.75,0.25,33,160.47
5030,G1,907.0,0.25,37,160.47
5031,C2,907.25,0.25,33,160.47
5032,B1,907.5,0.25,33,160.47
5033,A1,907.75,0.25,33,160.47
5034,G1,908.0,4.0,33,160.47
5035,B2,908.25,0.25,40,160.47
5036,D3,908.25,0.25,40,160.47
5037,G3,908.25,0.25,40,160.47
5038,D3,908.5,0.25,40,160.47
5039,E3,908.75,0.25,40,160.47
5040,F#3,909.0,0.25,40,160.47
5041,G3,909.25,0.25,45,160.47
5042,D3,909.5,0.25,40,160.47
5043,E3,909.75,0.25,40,160.47
5044,F#3,910.0,0.25,40,160.47
5045,G3,910.25,0.25,45,160.47
5046,D3,910.5,0.25,40,160.47
5047,E3,910.75,0.25,40,160.47
5048,F#3,911.0,0.25,40,160.47
5049,G3,911.25,0.25,46,160.47
5050,D3,911.5,0.25,40,160.47
5051,E3,911.75,0.25,40,160.47
5052,F#3,912.0,0.25,40,160.47
5053,G1,912.0,0.25,33,160.47
5054,G3,912.25,4.0,45,160.47
5055,C2,912.25,0.25,33,160.47
5056,B1,912.5,0.25,33,160.47
5057,A1,912.75,0.25,33,160.47
5058,G1,913.0,0.25,37,160.47
5059,C2,913.25,0.25,33,160.47
5060,B1,913.5,0.25,33,160.47
5061,A1,913.75,0.25,33,160.47
5062,G1,914.0,0.25,37,160.47
5063,C2,914.25,0.25,33,160.47
5064,B1,914.5,0.25,33,160.47
5065,A1,914.75,0.25,33,160.47
5066,G1,915.0,0.25,37,160.47
5067,C2,915.25,0.25,33,160.47
5068,B1,915.5,0.25,33,160.47
5069,A1,915.75,0.25,33,160.47
5070,G1,916.0,4.0,33,160.47
5071,G3,916.25,0.25,45,160.47
5072,F#3,916.5,0.25,40,160.47
5073,G3,916.75,0.25,40,160.47
5074,A3,917.0,0.25,40,160.47
5075,B3,917.25,0.25,45,160.47
5076,F#3,917.5,0.25,40,160.47
5077,G3,917.75,0.25,40,160.47
5078,A3,918.0,0.25,40,160.47
5079,B3,918.25,0.25,45,160.47
5080,F#3,918.5,0.25,40,160.47
5081,G3,918.75,0.25,40,160.47
5082,A3,919.0,0.25,40,160.47
5083,B3,919.25,0.25,46,160.47
5084,F#3,919.5,0.25,40,160.47
5085,G3,919.75,0.25,40,160.47
5086,A3,920.0,0.25,40,160.47
5087,G1,920.0,0.25,33,160.47
5088,B3,920.25,0.5,45,160.47
5089,C2,920.25,0.25,33,160.47
5090,B1,920.5,0.25,33,160.47
5091,A1,920.75,0.25,33,160.47
5092,G1,921.0,0.25,37,160.47
5093,C2,921.25,0.25,33,160.47
5094,B1,921.5,0.25,33,160.47
5095,B3,921.75,0.25,41,160.47
5096,A1,921.75,0.25,33,160.47
5097,C4,922.0,0.25,44,160.47
5098,G1,922.0,0.25,38,160.47
5099,D4,922.25,0.25,48,160.47
5100,C2,922.25,0.25,33,160.47
5101,B1,922.5,0.25,34,160.47
5102,A1,922.75,0.25,34,160.47
5103,G1,923.0,0.25,38,160.47
5104,C2,923.25,0.25,34,160.47
5105,B1,923.5,0.25,34,160.47
5106,D4,923.75,167/1000,45,160.47
5107,A1,923.75,0.25,34,160.47
5108,E4,923.917,167/1000,47,160.47
5109,G1,924.0,0.25,39,160.47
5110,F#4,924.083,167/1000,48,160.47
5111,G4,924.25,0.5,53,160.47
5112,C2,924.25,0.25,35,160.47
5113,B1,924.5,0.25,35,160.47
5114,A1,924.75,0.25,35,160.47
5115,G1,925.0,0.25,39,160.47
5116,C2,925.25,0.25,35,160.47
5117,B1,925.5,0.25,35,160.47
5118,G4,925.75,0.25,51,160.47
5119,A1,925.75,0.25,35,160.47
5120,A4,926.0,0.25,51,160.47
5121,G1,926.0,0.25,40,160.47
5122,B4,926.25,0.25,55,160.47
5123,C2,926.25,0.25,36,160.47
5124,B1,926.5,0.25,36,160.47
5125,B4,926.75,0.25,51,160.47
5126,A1,926.75,0.25,36,160.47
5127,C5,927.0,0.25,52,160.47
5128,G1,927.0,0.25,40,160.47
5129,D5,927.25,0.25,55,160.47
5130,C2,927.25,0.25,36,160.47
5131,B1,927.5,0.25,36,160.47
5132,D5,927.75,167/1000,52,160.47
5133,A1,927.75,0.25,36,160.47
5134,E5,927.917,167/1000,54,160.47
5135,G1,928.0,0.25,41,160.47
5136,F#5,928.083,167/1000,56,160.47
5137,G5,928.25,0.5,58,160.47
5138,C2,928.25,0.25,36,160.47
5139,B1,928.5,0.25,37,160.47
5140,A1,928.75,0.25,37,160.47
5141,G1,929.0,0.25,42,160.47
5142,C2,929.25,0.25,37,160.47
5143,B1,929.5,0.25,37,160.47
5144,D4,929.75,167/1000,50,160.47
5145,A1,929.75,0.25,37,160.47
5146,E4,929.917,167/1000,53,160.47
5147,G1,930.0,0.25,42,160.47
5148,F#4,930.083,167/1000,55,160.47
5149,G4,930.25,0.5,58,160.47
5150,C2,930.25,0.25,38,160.47
5151,B1,930.5,0.25,38,160.47
5152,A1,930.75,0.25,38,160.47
5153,G1,931.0,0.25,44,160.47
5154,C2,931.25,0.25,38,160.47
5155,B1,931.5,0.25,38,160.47
5156,G4,931.75,0.25,55,160.47
5157,A1,931.75,0.25,38,160.47
5158,A4,932.0,0.25,59,160.47
5159,G1,932.0,0.25,44,160.47
5160,B4,932.25,0.25,63,160.47
5161,C2,932.25,0.25,39,160.47
5162,B1,932.5,0.25,39,160.47
5163,A1,932.75,0.25,39,160.47
5164,G1,933.0,0.25,45,160.47
5165,C2,933.25,0.25,39,160.47
5166,B1,933.5,0.25,39,160.47
5167,B4,933.75,0.25,57,160.47
5168,A1,933.75,0.25,39,160.47
5169,C5,934.0,0.25,58,160.47
5170,G1,934.0,0.25,45,160.47
5171,D5,934.25,0.25,63,160.47
5172,C2,934.25,0.25,39,160.47
5173,B1,934.5,0.25,40,160.47
5174,D5,934.75,167/1000,58,160.47
5175,A1,934.75,0.25,40,160.47
5176,E5,934.917,167/1000,60,160.47
5177,G1,935.0,0.25,46,160.47
5178,F#5,935.083,167/1000,63,160.47
5179,G5,935.25,0.25,66,160.47
5180,C2,935.25,0.25,40,160.47
5181,B1,935.5,0.25,40,160.47
5182,G5,935.75,0.25,65,160.47
5183,A1,935.75,0.25,40,160.47
5184,A5,936.0,0.25,68,160.47
5185,G1,936.0,0.25,46,160.47
5186,B5,936.25,0.25,70,160.47
5187,C2,936.25,0.25,41,160.47
5188,B1,936.5,0.25,41,160.47
5189,A1,936.75,0.25,41,160.47
5190,G1,937.0,0.25,47,160.47
5191,C2,937.25,0.25,41,160.47
5192,B1,937.5,0.25,41,160.47
5193,D5,937.75,167/1000,65,160.47
5194,A1,937.75,0.25,41,160.47
5195,E5,937.917,167/1000,68,160.47
5196,G1,938.0,0.25,48,160.47
5197,F#5,938.083,167/1000,69,160.47
5198,G5,938.25,0.25,71,160.47
5199,C2,938.25,0.25,42,160.47
5200,B1,938.5,0.25,42,160.47
5201,A1,938.75,0.25,42,160.47
5202,G1,939.0,0.25,48,160.47
5203,C2,939.25,0.25,42,160.47
5204,B1,939.5,0.25,42,160.47
5205,G5,939.75,0.25,66,160.47
5206,A1,939.75,0.25,42,160.47
5207,A5,940.0,0.25,68,160.47
5208,G1,940.0,0.25,49,160.47
5209,B5,940.25,0.25,73,160.47
5210,C2,940.25,0.25,42,160.47
5211,B1,940.5,0.25,44,160.47
5212,A1,940.75,0.25,44,160.47
5213,G1,941.0,0.25,49,160.47
5214,C2,941.25,0.25,44,160.47
5215,B1,941.5,0.25,44,160.47
5216,G5,941.75,0.25,68,160.47
5217,A1,941.75,0.25,44,160.47
5218,A5,942.0,0.25,72,160.47
5219,G1,942.0,0.25,50,160.47
5220,B5,942.25,0.25,76,160.47
5221,C2,942.25,0.25,45,160.47
5222,B1,942.5,0.25,45,160.47
5223,B5,942.75,0.25,68,160.47
5224,A1,942.75,0.25,45,160.47
5225,C6,943.0,0.25,71,160.47
5226,G1,943.0,0.25,50,160.47
5227,D6,943.25,0.25,75,160.47
5228,C2,943.25,0.25,45,160.47
5229,B1,943.5,0.25,45,160.47
5230,D6,943.75,0.25,70,160.47
5231,A1,943.75,0.25,45,160.47
5232,E6,944.0,0.25,75,160.47
5233,G1,944.0,0.25,51,160.47
5234,F6,944.25,0.25,79,160.47
5235,C2,944.25,0.25,46,160.47
5236,B1,944.5,0.25,46,160.47
5237,A1,944.75,0.25,46,160.47
5238,G1,945.0,0.25,52,160.47
5239,C2,945.25,0.25,47,160.47
5240,B1,945.5,0.25,48,160.47
5241,D6,945.75,0.25,77,160.47
5242,A1,945.75,0.25,48,160.47
5243,E6,946.0,0.25,82,160.47
5244,G1,946.0,0.25,54,160.47
5245,F6,946.25,0.25,86,160.47
5246,C#2,946.25,0.25,49,160.47
5247,B1,946.5,0.25,49,160.47
5248,A1,946.75,0.25,50,160.47
5249,G1,947.0,0.25,56,160.47
5250,C#2,947.25,0.25,51,160.47
5251,B1,947.5,0.25,51,160.47
5252,D6,947.75,0.25,79,160.47
5253,A1,947.75,0.25,51,160.47
5254,E6,948.0,0.25,84,160.47
5255,G1,948.0,73/250,57,160.47
5256,F6,948.25,0.25,88,160.47
5257,D2,948.25,73/250,52,160.47
5258,B1,948.5,73/250,52,160.47
5259,D6,948.75,0.25,79,160.47
5260,A1,948.75,73/250,53,160.47
5261,E6,949.0,0.25,84,160.47
5262,G1,949.0,73/250,59,160.47
5263,F6,949.25,0.25,88,160.47
5264,D2,949.25,73/250,54,160.47
5265,B1,949.5,73/250,54,160.47
5266,D6,949.75,0.25,81,160.47
5267,A1,949.75,73/250,54,160.47
5268,E6,950.0,0.25,85,160.47
5269,G1,950.0,73/250,61,160.47
5270,F6,950.25,0.25,89,160.47
5271,D2,950.25,73/250,55,160.47
5272,B1,950.5,73/250,56,160.47
5273,D6,950.75,0.25,81,160.47
5274,A1,950.75,73/250,56,160.47
5275,E6,951.0,0.25,86,160.47
5276,G1,951.0,73/250,63,160.47
5277,F6,951.25,0.25,92,160.47
5278,D2,951.25,73/250,57,160.47
5279,B1,951.5,73/250,57,160.47
5280,D6,951.75,0.25,85,160.47
5281,A1,951.75,0.25,57,160.47
5282,E6,952.0,0.25,91,160.47
5283,G1,952.0,73/250,67,160.47
5284,A1,952.0,21/500,57,160.47
5285,F6,952.25,73/250,96,160.47
5286,A1,952.25,73/250,66,160.47
5287,E6,952.5,73/250,94,160.47
5288,B1,952.5,73/250,65,160.47
5289,D6,952.75,73/250,92,160.47
5290,C2,952.75,73/250,63,160.47
5291,C6,953.0,73/250,91,160.47
5292,D2,953.0,73/250,62,160.47
5293,B5,953.25,73/250,89,160.47
5294,C2,953.25,73/250,63,160.47
5295,C6,953.5,73/250,91,160.47
5296,B1,953.5,73/250,64,160.47
5297,D6,953.75,73/250,92,160.47
5298,A1,953.75,73/250,66,160.47
5299,E6,954.0,73/250,93,160.47
5300,G1,954.0,73/250,66,160.47
5301,F6,954.25,73/250,96,160.47
5302,A1,954.25,73/250,65,160.47
5303,E6,954.5,73/250,95,160.47
5304,B1,954.5,73/250,64,160.47
5305,D6,954.75,73/250,94,160.47
5306,C2,954.75,73/250,64,160.47
5307,C6,955.0,73/250,93,160.47
5308,D2,955.0,73/250,61,160.47
5309,B5,955.25,73/250,93,160.47
5310,C2,955.25,73/250,63,160.47
5311,C6,955.5,73/250,93,160.47
5312,B1,955.5,73/250,65,160.47
5313,D6,955.75,73/250,95,160.47
5314,A1,955.75,0.25,67,160.47
5315,E6,956.0,0.25,97,160.47
5316,G1,956.0,271/500,69,160.47
5317,A1,956.0,21/500,67,160.47
5318,F6,956.25,271/500,99,160.47
5319,E6,956.25,21/500,97,160.47
5320,A1,956.5,73/250,66,160.47
5321,E6,956.75,73/250,97,160.47
5322,B1,956.75,73/250,65,160.47
5323,D6,957.0,73/250,96,160.47
5324,C2,957.0,73/250,64,160.47
5325,C6,957.25,73/250,95,160.47
5326,D2,957.25,73/250,63,160.47
5327,B5,957.5,73/250,93,160.47
5328,E2,957.5,73/250,63,160.47
5329,A5,957.75,73/250,92,160.47
5330,F2,957.75,73/250,62,160.47
5331,G5,958.0,73/250,91,160.47
5332,G2,958.0,73/250,61,160.47
5333,F5,958.25,73/250,90,160.47
5334,A2,958.25,73/250,60,160.47
5335,E5,958.5,73/250,88,160.47
5336,B2,958.5,73/250,59,160.47
5337,D5,958.75,73/250,87,160.47
5338,C3,958.75,73/250,58,160.47
5339,C5,959.0,73/250,86,160.47
5340,D3,959.0,73/250,57,160.47
5341,B4,959.25,73/250,85,160.47
5342,E3,959.25,73/250,56,160.47
5343,A4,959.5,73/250,83,160.47
5344,F3,959.5,73/250,55,160.47
5345,G4,959.75,73/250,82,160.47
5346,G3,959.75,0.25,55,160.47
5347,F4,960.0,0.25,81,160.47
5348,C3,960.0,0.5,54,160.47
5349,G3,960.0,21/500,55,160.47
5350,E4,960.25,0.5,80,160.47
5351,F4,960.25,21/500,81,160.47
5352,G2,960.5,0.375,24,160.47
5353,C2,960.5,0.375,24,160.47
5354,C3,960.75,0.375,30,160.47
5355,E3,960.75,0.375,30,160.47
5356,G2,961.0,0.375,24,160.47
5357,C2,961.0,0.375,24,160.47
5358,C3,961.25,0.375,30,160.47
5359,E3,961.25,0.375,30,160.47
5360,G2,961.5,0.375,24,160.47
5361,C2,961.5,0.375,24,160.47
5362,C3,961.75,0.375,31,160.47
5363,E3,961.75,0.375,31,160.47
5364,G2,962.0,0.375,24,160.47
5365,C2,962.0,0.375,24,160.47
5366,C3,962.25,0.375,31,160.47
5367,E3,962.25,0.375,31,160.47
5368,G2,962.5,0.375,26,160.47
5369,C2,962.5,0.375,26,160.47
5370,C3,962.75,0.375,31,160.47
5371,E3,962.75,0.375,31,160.47
5372,G2,963.0,0.375,26,160.47
5373,C2,963.0,0.375,26,160.47
5374,C3,963.25,0.375,32,160.47
5375,E3,963.25,0.375,32,160.47
5376,G2,963.5,0.375,26,160.47
5377,C2,963.5,0.375,26,160.47
5378,C3,963.75,0.375,32,160.47
5379,E3,963.75,0.375,32,160.47
5380,C2,964.0,0.375,28,160.47
5381,G2,964.0,0.375,28,160.47
5382,C3,964.25,0.375,33,160.47
5383,E3,964.25,0.375,33,160.47
5384,C2,964.5,0.375,24,160.47
5385,G2,964.5,0.375,24,160.47
5386,C3,964.75,0.375,33,160.47
5387,E3,964.75,0.375,33,160.47
5388,C2,965.0,0.375,26,160.47
5389,G2,965.0,0.375,26,160.47
5390,C3,965.25,0.375,34,160.47
5391,E3,965.25,0.375,34,160.47
5392,C2,965.5,0.375,26,160.47
5393,G2,965.5,0.375,26,160.47
5394,C3,965.75,0.375,35,160.47
5395,E3,965.75,0.375,35,160.47
5396,C2,966.0,0.375,28,160.47
5397,G2,966.0,0.375,28,160.47
5398,C3,966.25,0.375,36,160.47
5399,E3,966.25,0.375,36,160.47
5400,C2,966.5,0.375,28,160.47
5401,G2,966.5,0.375,28,160.47
5402,C3,966.75,0.375,37,160.47
5403,E3,966.75,0.375,37,160.47
5404,C2,967.0,0.375,28,160.47
5405,A2,967.0,0.375,28,160.47
5406,D3,967.25,0.375,37,160.47
5407,F#3,967.25,0.375,37,160.47
5408,C2,967.5,0.375,28,160.47
5409,A2,967.5,0.375,28,160.47
5410,D3,967.75,0.375,37,160.47
5411,F#3,967.75,0.375,37,160.47
5412,B1,968.0,0.375,28,160.47
5413,G2,968.0,0.375,28,160.47
5414,D3,968.25,1.5,42,160.47
5415,G3,968.25,1.5,42,160.47
5416,B1,968.5,0.375,28,160.47
5417,G2,968.5,0.375,28,160.47
5418,B1,969.0,0.375,28,160.47
5419,G2,969.0,0.375,28,160.47
5420,B1,969.5,0.375,28,160.47
5421,G2,969.5,0.375,28,160.47
5422,B3,969.75,0.25,40,160.47
5423,A3,970.0,0.25,40,160.47
5424,B1,970.0,0.375,28,160.47
5425,G2,970.0,0.375,28,160.47
5426,G3,970.25,0.25,45,160.47
5427,B1,970.5,0.375,28,160.47
5428,G2,970.5,0.375,28,160.47
5429,B1,971.0,0.375,28,160.47
5430,G2,971.0,0.375,28,160.47
5431,B1,971.5,0.375,28,160.47
5432,G2,971.5,0.375,28,160.47
5433,B1,972.0,0.375,28,160.47
5434,G2,972.0,0.375,28,160.47
5435,C#6,972.125,0.125,46,160.47
5436,D6,972.25,1.25,57,160.47
5437,B1,972.5,0.375,28,160.47
5438,G2,972.5,0.375,28,160.47
5439,B1,973.0,0.375,28,160.47
5440,G2,973.0,0.375,28,160.47
5441,C6,973.5,0.25,48,160.47
5442,B1,973.5,0.375,28,160.47
5443,G2,973.5,0.375,28,160.47
5444,B5,973.75,0.25,47,160.47
5445,A5,974.0,0.25,45,160.47
5446,B1,974.0,0.375,28,160.47
5447,G2,974.0,0.375,28,160.47
5448,G5,974.25,0.5,44,160.47
5449,B1,974.5,0.375,28,160.47
5450,G2,974.5,0.375,28,160.47
5451,B1,975.0,0.375,28,160.47
5452,G2,975.0,0.375,28,160.47
5453,B1,975.5,0.375,28,160.47
5454,G2,975.5,0.375,28,160.47
5455,F2,976.0,0.375,28,160.47
5456,B-1,976.0,0.375,28,160.47
5457,B-2,976.25,0.375,33,160.47
5458,D3,976.25,0.375,33,160.47
5459,F2,976.5,0.375,28,160.47
5460,B-1,976.5,0.375,28,160.47
5461,B-2,976.75,0.375,32,160.47
5462,D3,976.75,0.375,32,160.47
5463,F2,977.0,0.375,28,160.47
5464,B-1,977.0,0.375,28,160.47
5465,B-2,977.25,0.375,32,160.47
5466,D3,977.25,0.375,32,160.47
5467,F2,977.5,0.375,28,160.47
5468,B-1,977.5,0.375,28,160.47
5469,B-2,977.75,0.375,33,160.47
5470,D3,977.75,0.375,33,160.47
5471,F2,978.0,0.375,28,160.47
5472,B-1,978.0,0.375,28,160.47
5473,B-2,978.25,0.375,34,160.47
5474,D3,978.25,0.375,34,160.47
5475,F2,978.5,0.375,28,160.47
5476,B-1,978.5,0.375,28,160.47
5477,B-2,978.75,0.375,34,160.47
5478,D3,978.75,0.375,34,160.47
5479,F2,979.0,0.375,28,160.47
5480,B-1,979.0,0.375,28,160.47
5481,B-2,979.25,0.375,35,160.47
5482,D3,979.25,0.375,35,160.47
5483,F2,979.5,0.375,28,160.47
5484,B-1,979.5,0.375,28,160.47
5485,B-2,979.75,0.375,36,160.47
5486,D3,979.75,0.375,36,160.47
5487,B-1,980.0,0.375,28,160.47
5488,F2,980.0,0.375,28,160.47
5489,B-2,980.25,0.375,36,160.47
5490,D3,980.25,0.375,36,160.47
5491,B-1,980.5,0.375,28,160.47
5492,F2,980.5,0.375,28,160.47
5493,B-2,980.75,0.375,37,160.47
5494,D3,980.75,0.375,37,160.47
5495,B-1,981.0,0.375,28,160.47
5496,F2,981.0,0.375,28,160.47
5497,B-2,981.25,0.375,37,160.47
5498,D3,981.25,0.375,37,160.47
5499,B-1,981.5,0.375,28,160.47
5500,F2,981.5,0.375,28,160.47
5501,B-2,981.75,0.375,37,160.47
5502,D3,981.75,0.375,37,160.47
5503,B-1,982.0,0.375,28,160.47
5504,F2,982.0,0.375,28,160.47
5505,B-2,982.25,0.375,37,160.47
5506,D3,982.25,0.375,37,160.47
5507,B-1,982.5,0.375,28,160.47
5508,F2,982.5,0.375,28,160.47
5509,B-2,982.75,0.375,37,160.47
5510,D3,982.75,0.375,37,160.47
5511,B-1,983.0,0.375,28,160.47
5512,G2,983.0,0.375,28,160.47
5513,C3,983.25,0.375,37,160.47
5514,E3,983.25,0.375,37,160.47
5515,B-1,983.5,0.375,28,160.47
5516,G2,983.5,0.375,28,160.47
5517,C3,983.75,0.375,37,160.47
5518,E3,983.75,0.375,37,160.47
5519,A1,984.0,0.375,28,160.47
5520,F2,984.0,0.375,28,160.47
5521,C3,984.25,1.5,42,160.47
5522,F3,984.25,1.5,42,160.47
5523,A1,984.5,0.375,28,160.47
5524,F2,984.5,0.375,28,160.47
5525,A1,985.0,0.375,28,160.47
5526,F2,985.0,0.375,28,160.47
5527,A1,985.5,0.375,28,160.47
5528,F2,985.5,0.375,28,160.47
5529,A3,985.75,0.25,40,160.47
5530,G3,986.0,0.25,40,160.47
5531,A1,986.0,0.375,28,160.47
5532,F2,986.0,0.375,28,160.47
5533,F3,986.25,0.25,45,160.47
5534,A1,986.5,0.375,28,160.47
5535,F2,986.5,0.375,28,160.47
5536,A1,987.0,0.375,28,160.47
5537,F2,987.0,0.375,28,160.47
5538,A1,987.5,0.375,28,160.47
5539,F2,987.5,0.375,28,160.47
5540,G#1,988.0,0.375,28,160.47
5541,F2,988.0,0.375,28,160.47
5542,B5,988.125,0.125,46,160.47
5543,C6,988.25,1.25,57,160.47
5544,G#1,988.5,0.375,28,160.47
5545,F2,988.5,0.375,28,160.47
5546,G#1,989.0,0.375,28,160.47
5547,F2,989.0,0.375,28,160.47
5548,B-5,989.5,0.25,50,160.47
5549,G#1,989.5,0.375,28,160.47
5550,F2,989.5,0.375,28,160.47
5551,G#5,989.75,0.25,49,160.47
5552,G5,990.0,0.25,47,160.47
5553,G#1,990.0,0.375,28,160.47
5554,F2,990.0,0.375,28,160.47
5555,F5,990.25,0.5,46,160.47
5556,G#1,990.5,0.375,28,160.47
5557,F2,990.5,0.375,28,160.47
5558,G#1,991.0,0.375,28,160.47
5559,F2,991.0,0.375,28,160.47
5560,G#1,991.5,0.375,28,160.47
5561,F2,991.5,0.375,28,160.47
5562,G1,992.0,0.375,33,160.47
5563,F2,992.0,0.375,33,160.47
5564,E6,992.125,0.125,67,160.47
5565,F6,992.25,3.0,73,160.47
5566,G1,992.5,0.375,35,160.47
5567,F2,992.5,0.375,35,160.47
5568,G1,993.0,0.375,36,160.47
5569,F2,993.0,0.375,36,160.47
5570,G1,993.5,0.375,38,160.47
5571,F2,993.5,0.375,38,160.47
5572,G1,994.0,0.375,40,160.47
5573,F2,994.0,0.375,40,160.47
5574,G1,994.5,0.375,42,160.47
5575,F2,994.5,0.375,42,160.47
5576,G#1,995.0,0.375,42,160.47
5577,F2,995.0,0.375,42,160.47
5578,F6,995.25,0.25,74,160.47
5579,E-6,995.5,0.25,73,160.47
5580,G#1,995.5,0.375,44,160.47
5581,F2,995.5,0.375,44,160.47
5582,D6,995.75,0.25,71,160.47
5583,C6,996.0,0.25,70,160.47
5584,G1,996.0,0.375,48,160.47
5585,F2,996.0,0.375,48,160.47
5586,B5,996.25,0.25,72,160.47
5587,C6,996.5,0.25,71,160.47
5588,G1,996.5,0.375,48,160.47
5589,F2,996.5,0.375,48,160.47
5590,D6,996.75,0.25,72,160.47
5591,E-6,997.0,0.25,73,160.47
5592,G#1,997.0,0.375,50,160.47
5593,F2,997.0,0.375,50,160.47
5594,F6,997.25,0.25,74,160.47
5595,E-6,997.5,0.25,72,160.47
5596,G#1,997.5,0.375,50,160.47
5597,F2,997.5,0.375,50,160.47
5598,D6,997.75,0.25,71,160.47
5599,C6,998.0,0.25,69,160.47
5600,G1,998.0,0.375,53,160.47
5601,F2,998.0,0.375,53,160.47
5602,B5,998.25,0.25,72,160.47
5603,C6,998.5,0.25,75,160.47
5604,G1,998.5,0.375,56,160.47
5605,F2,998.5,0.375,56,160.47
5606,D6,998.75,0.25,77,160.47
5607,E-6,999.0,0.25,80,160.47
5608,G#1,999.0,0.375,59,160.47
5609,F2,999.0,0.375,59,160.47
5610,F6,999.25,0.25,80,160.47
5611,E-6,999.5,0.25,80,160.47
5612,G#1,999.5,0.375,61,160.47
5613,F2,999.5,0.375,61,160.47
5614,D6,999.75,0.25,79,160.47
5615,C6,1000.0,0.25,81,160.47
5616,F2,1000.0,1.0,78,160.47
5617,G1,1000.0,1.0,78,160.47
5618,B5,1000.25,0.25,85,160.47
5619,C6,1000.5,0.25,89,160.47
5620,D6,1000.75,0.25,94,160.47
5621,E-6,1001.0,0.25,98,160.47
5622,G2,1001.0,2.5,88,160.47
5623,G3,1001.0,2.5,88,160.47
5624,F6,1001.25,0.25,100,160.47
5625,E-6,1001.5,0.25,98,160.47
5626,D6,1001.75,0.25,96,160.47
5627,C6,1002.0,0.25,94,160.47
5628,B5,1002.25,0.25,93,160.47
5629,G#5,1002.5,0.25,91,160.47
5630,G5,1002.75,0.25,89,160.47
5631,F5,1003.0,0.25,87,160.47
5632,E-5,1003.25,0.25,85,160.47
5633,D5,1003.5,0.25,83,160.47
5634,A3,1003.5,0.25,67,160.47
5635,C5,1003.75,0.25,81,160.47
5636,B3,1003.75,0.25,70,160.47
5637,B4,1004.0,0.25,79,160.47
5638,C4,1004.0,0.375,72,160.47
5639,C5,1004.25,0.375,93,160.47
5640,G2,1005.0,0.375,61,160.47
5641,G3,1005.0,0.375,61,160.47
5642,G4,1005.25,0.375,83,160.47
5643,E-2,1006.0,0.375,57,160.47
5644,E-3,1006.0,0.375,57,160.47
5645,E-4,1006.25,0.375,72,160.47
5646,C2,1007.0,0.375,52,160.47
5647,C3,1007.0,0.375,52,160.47
5648,C4,1007.25,0.375,64,160.47
5649,G#1,1008.0,4.0,50,160.47
5650,G#2,1008.0,4.0,50,160.47
5651,G#3,1008.25,4.0,60,160.47
5652,C#4,1012.0,0.375,37,160.47
5653,C#5,1012.25,0.375,54,160.47
5654,G#3,1013.0,0.375,33,160.47
5655,G#4,1013.25,0.375,52,160.47
5656,F3,1014.0,0.375,32,160.47
5657,F4,1014.25,0.375,48,160.47
5658,C#3,1015.0,0.375,29,160.47
5659,C#4,1015.25,0.375,43,160.47
5660,B-1,1016.0,4.0,26,160.47
5661,B-2,1016.0,4.0,26,160.47
5662,B-3,1016.25,4.0,39,160.47
5663,E-4,1020.0,0.375,41,160.47
5664,G4,1020.5,0.25,37,160.47
5665,B-4,1020.75,0.25,37,160.47
5666,E-5,1021.0,0.25,37,160.47
5667,B-3,1021.0,0.375,37,160.47
5668,G4,1021.5,0.25,37,160.47
5669,B-4,1021.75,0.25,37,160.47
5670,E-5,1022.0,0.25,37,160.47
5671,G3,1022.0,0.375,37,160.47
5672,G4,1022.5,0.25,37,160.47
5673,B-4,1022.75,0.25,37,160.47
5674,E-5,1023.0,0.25,37,160.47
5675,E-3,1023.0,0.375,37,160.47
5676,G4,1023.5,0.25,37,160.47
5677,B-4,1023.75,0.25,37,160.47
5678,E-5,1024.0,0.25,37,160.47
5679,F3,1024.0,0.375,35,160.47
5680,F4,1024.5,0.25,37,160.47
5681,G#4,1024.75,0.25,37,160.47
5682,E-5,1025.0,0.25,37,160.47
5683,G#3,1025.0,0.375,38,160.47
5684,F4,1025.5,0.25,41,160.47
5685,B4,1025.75,0.25,41,160.47
5686,D5,1026.0,0.25,41,160.47
5687,A3,1026.0,0.375,39,160.47
5688,E-4,1026.5,0.25,45,160.47
5689,F#4,1026.75,0.25,45,160.47
5690,D5,1027.0,0.25,45,160.47
5691,F#3,1027.0,0.375,37,160.47
5692,E-4,1027.5,0.25,39,160.47
5693,A4,1027.75,0.25,39,160.47
5694,C5,1028.0,0.25,39,160.47
5695,G3,1028.0,0.375,46,160.47
5696,D4,1028.5,0.25,44,160.47
5697,G4,1028.75,0.25,44,160.47
5698,C5,1029.0,0.25,44,160.47
5699,F#3,1029.0,0.375,44,160.47
5700,D4,1029.5,0.25,48,160.47
5701,G4,1029.75,0.25,48,160.47
5702,C5,1030.0,0.25,48,160.47
5703,G3,1030.0,0.375,60,160.47
5704,D4,1030.5,0.25,53,160.47
5705,G4,1030.75,0.25,53,160.47
5706,B4,1031.0,0.25,53,160.47
5707,G2,1031.0,0.375,56,160.47
5708,D4,1031.5,0.25,58,160.47
5709,F4,1031.75,0.25,59,160.47
5710,B4,1032.0,0.25,59,160.47
5711,C2,1032.0,4.0,70,160.47
5712,C3,1032.0,0.5,70,160.47
5713,E4,1032.25,0.5,76,160.47
5714,C5,1032.25,0.5,76,160.47
5715,C3,1032.5,31/125,31,160.47
5716,E4,1032.75,31/125,37,160.47
5717,G3,1032.75,0.25,26,160.47
5718,C4,1033.0,0.25,33,160.47
5719,C3,1033.0,31/125,31,160.47
5720,E4,1033.25,31/125,37,160.47
5721,G3,1033.25,0.25,27,160.47
5722,C4,1033.5,0.25,33,160.47
5723,C3,1033.5,31/125,31,160.47
5724,E4,1033.75,31/125,36,160.47
5725,G3,1033.75,0.25,27,160.47
5726,C4,1034.0,0.25,33,160.47
5727,C3,1034.0,31/125,31,160.47
5728,E4,1034.25,31/125,36,160.47
5729,G3,1034.25,0.25,26,160.47
5730,C4,1034.5,0.25,33,160.47
5731,C3,1034.5,31/125,31,160.47
5732,E4,1034.75,31/125,37,160.47
5733,G3,1034.75,0.25,27,160.47
5734,C4,1035.0,0.25,33,160.47
5735,C3,1035.0,31/125,31,160.47
5736,E4,1035.25,31/125,36,160.47
5737,G3,1035.25,0.25,27,160.47
5738,C4,1035.5,0.25,33,160.47
5739,C3,1035.5,31/125,31,160.47
5740,E4,1035.75,31/125,36,160.47
5741,G3,1035.75,0.25,25,160.47
5742,C4,1036.0,0.25,33,160.47
5743,C3,1036.0,31/125,31,160.47
5744,E4,1036.25,31/125,37,160.47
5745,G3,1036.25,0.25,26,160.47
5746,C4,1036.5,0.25,33,160.47
5747,C3,1036.5,31/125,31,160.47
5748,E4,1036.75,31/125,37,160.47
5749,G3,1036.75,0.25,26,160.47
5750,C4,1037.0,0.25,33,160.47
5751,C3,1037.0,31/125,31,160.47
5752,E4,1037.25,31/125,37,160.47
5753,G3,1037.25,0.25,27,160.47
5754,C4,1037.5,0.25,33,160.47
5755,C3,1037.5,31/125,31,160.47
5756,E4,1037.75,31/125,36,160.47
5757,G3,1037.75,0.25,27,160.47
5758,C4,1038.0,0.25,33,160.47
5759,C3,1038.0,31/125,31,160.47
5760,E4,1038.25,31/125,36,160.47
5761,G3,1038.25,0.25,26,160.47
5762,C4,1038.5,0.25,33,160.47
5763,C3,1038.5,31/125,31,160.47
5764,E4,1038.75,31/125,37,160.47
5765,G3,1038.75,0.25,27,160.47
5766,C4,1039.0,0.25,33,160.47
5767,C3,1039.0,31/125,31,160.47
5768,F#4,1039.25,31/125,36,160.47
5769,A3,1039.25,0.25,27,160.47
5770,D4,1039.5,0.25,33,160.47
5771,C3,1039.5,31/125,31,160.47
5772,F#4,1039.75,31/125,36,160.47
5773,A3,1039.75,0.25,25,160.47
5774,D4,1040.0,0.25,33,160.47
5775,B2,1040.0,0.375,28,160.47
5776,D3,1040.0,0.375,28,160.47
5777,G4,1040.25,1.5,46,160.47
5778,G3,1040.25,0.25,25,160.47
5779,B2,1040.5,0.375,28,160.47
5780,D3,1040.5,0.375,28,160.47
5781,G3,1040.75,0.25,25,160.47
5782,B2,1041.0,0.375,28,160.47
5783,D3,1041.0,0.375,28,160.47
5784,G3,1041.25,0.25,25,160.47
5785,B2,1041.5,0.375,28,160.47
5786,D3,1041.5,0.375,28,160.47
5787,B4,1041.75,0.25,40,160.47
5788,G3,1041.75,0.25,25,160.47
5789,A4,1042.0,0.25,40,160.47
5790,B2,1042.0,0.375,28,160.47
5791,D3,1042.0,0.375,28,160.47
5792,G4,1042.25,0.25,45,160.47
5793,G3,1042.25,0.25,25,160.47
5794,B2,1042.5,0.375,28,160.47
5795,D3,1042.5,0.375,28,160.47
5796,G3,1042.75,0.25,25,160.47
5797,B2,1043.0,0.375,28,160.47
5798,D3,1043.0,0.375,28,160.47
5799,G3,1043.25,0.25,25,160.47
5800,B2,1043.5,0.375,28,160.47
5801,D3,1043.5,0.375,28,160.47
5802,G3,1043.75,0.25,25,160.47
5803,B2,1044.0,0.375,28,160.47
5804,D3,1044.0,0.375,28,160.47
5805,C#6,1044.125,0.125,46,160.47
5806,D6,1044.25,1.25,57,160.47
5807,G3,1044.25,0.25,25,160.47
5808,B2,1044.5,0.375,28,160.47
5809,D3,1044.5,0.375,28,160.47
5810,G3,1044.75,0.25,25,160.47
5811,B2,1045.0,0.375,28,160.47
5812,D3,1045.0,0.375,28,160.47
5813,G3,1045.25,0.25,25,160.47
5814,C6,1045.5,0.25,48,160.47
5815,B2,1045.5,0.375,28,160.47
5816,D3,1045.5,0.375,28,160.47
5817,B5,1045.75,0.25,47,160.47
5818,G3,1045.75,0.25,25,160.47
5819,A5,1046.0,0.25,45,160.47
5820,B2,1046.0,0.375,28,160.47
5821,D3,1046.0,0.375,28,160.47
5822,G5,1046.25,0.5,44,160.47
5823,G3,1046.25,0.25,25,160.47
5824,B2,1046.5,0.375,28,160.47
5825,D3,1046.5,0.375,28,160.47
5826,G3,1046.75,0.25,25,160.47
5827,B2,1047.0,0.375,28,160.47
5828,D3,1047.0,0.375,28,160.47
5829,G3,1047.25,0.25,25,160.47
5830,B2,1047.5,0.375,28,160.47
5831,D3,1047.5,0.375,28,160.47
5832,G3,1047.75,0.25,25,160.47
5833,D2,1048.0,4.0,33,160.47
5834,D3,1048.0,0.5,33,160.47
5835,F4,1048.25,31/125,40,160.47
5836,D4,1048.5,0.25,36,160.47
5837,D3,1048.5,31/125,34,160.47
5838,F4,1048.75,31/125,40,160.47
5839,A3,1048.75,0.25,28,160.47
5840,D4,1049.0,0.25,36,160.47
5841,D3,1049.0,31/125,34,160.47
5842,F4,1049.25,31/125,40,160.47
5843,A3,1049.25,0.25,29,160.47
5844,D4,1049.5,0.25,36,160.47
5845,D3,1049.5,31/125,34,160.47
5846,F4,1049.75,31/125,39,160.47
5847,A3,1049.75,0.25,29,160.47
5848,D4,1050.0,0.25,36,160.47
5849,D3,1050.0,31/125,34,160.47
5850,F4,1050.25,31/125,39,160.47
5851,A3,1050.25,0.25,28,160.47
5852,D4,1050.5,0.25,36,160.47
5853,D3,1050.5,31/125,34,160.47
5854,F4,1050.75,31/125,41,160.47
5855,A3,1050.75,0.25,29,160.47
5856,D4,1051.0,0.25,36,160.47
5857,D3,1051.0,31/125,34,160.47
5858,F4,1051.25,31/125,40,160.47
5859,A3,1051.25,0.25,30,160.47
5860,D4,1051.5,0.25,37,160.47
5861,D3,1051.5,31/125,35,160.47
5862,F4,1051.75,31/125,40,160.47
5863,A3,1051.75,0.25,28,160.47
5864,D4,1052.0,0.25,37,160.47
5865,D3,1052.0,31/125,35,160.47
5866,F4,1052.25,31/125,41,160.47
5867,A3,1052.25,0.25,29,160.47
5868,D4,1052.5,0.25,37,160.47
5869,D3,1052.5,31/125,35,160.47
5870,F4,1052.75,31/125,41,160.47
5871,A3,1052.75,0.25,29,160.47
5872,D4,1053.0,0.25,37,160.47
5873,D3,1053.0,31/125,35,160.47
5874,F4,1053.25,31/125,42,160.47
5875,A3,1053.25,0.25,30,160.47
5876,D4,1053.5,0.25,37,160.47
5877,D3,1053.5,31/125,35,160.47
5878,F4,1053.75,31/125,41,160.47
5879,A3,1053.75,0.25,30,160.47
5880,D4,1054.0,0.25,38,160.47
5881,D3,1054.0,31/125,36,160.47
5882,F4,1054.25,31/125,41,160.47
5883,A3,1054.25,0.25,29,160.47
5884,D4,1054.5,0.25,38,160.47
5885,D3,1054.5,31/125,36,160.47
5886,F4,1054.75,31/125,42,160.47
5887,A3,1054.75,0.25,31,160.47
5888,D4,1055.0,0.25,38,160.47
5889,D3,1055.0,31/125,36,160.47
5890,G#4,1055.25,31/125,41,160.47
5891,B3,1055.25,0.25,31,160.47
5892,E4,1055.5,0.25,38,160.47
5893,D3,1055.5,31/125,36,160.47
5894,G#4,1055.75,31/125,42,160.47
5895,B3,1055.75,0.25,29,160.47
5896,E4,1056.0,0.25,38,160.47
5897,C3,1056.0,0.375,34,160.47
5898,E3,1056.0,0.375,34,160.47
5899,A4,1056.25,1.5,55,160.47
5900,A3,1056.25,0.25,29,160.47
5901,C3,1056.5,0.375,34,160.47
5902,E3,1056.5,0.375,34,160.47
5903,A3,1056.75,0.25,29,160.47
5904,C3,1057.0,0.375,34,160.47
5905,E3,1057.0,0.375,34,160.47
5906,A3,1057.25,0.25,29,160.47
5907,C3,1057.5,0.375,34,160.47
5908,E3,1057.5,0.375,34,160.47
5909,C5,1057.75,0.25,48,160.47
5910,A3,1057.75,0.25,29,160.47
5911,B4,1058.0,0.25,48,160.47
5912,C3,1058.0,0.375,34,160.47
5913,E3,1058.0,0.375,34,160.47
5914,A4,1058.25,0.25,53,160.47
5915,A3,1058.25,0.25,29,160.47
5916,C3,1058.5,0.375,34,160.47
5917,E3,1058.5,0.375,34,160.47
5918,A3,1058.75,0.25,29,160.47
5919,C3,1059.0,0.375,34,160.47
5920,E3,1059.0,0.375,34,160.47
5921,A3,1059.25,0.25,29,160.47
5922,C3,1059.5,0.375,34,160.47
5923,E3,1059.5,0.375,34,160.47
5924,A3,1059.75,0.25,29,160.47
5925,C3,1060.0,0.375,34,160.47
5926,E3,1060.0,0.375,34,160.47
5927,E-6,1060.125,0.125,55,160.47
5928,E6,1060.25,1.25,68,160.47
5929,A3,1060.25,0.25,29,160.47
5930,C3,1060.5,0.375,34,160.47
5931,E3,1060.5,0.375,34,160.47
5932,A3,1060.75,0.25,29,160.47
5933,C3,1061.0,0.375,34,160.47
5934,E3,1061.0,0.375,34,160.47
5935,A3,1061.25,0.25,29,160.47
5936,D6,1061.5,0.25,58,160.47
5937,C3,1061.5,0.375,34,160.47
5938,E3,1061.5,0.375,34,160.47
5939,C6,1061.75,0.25,57,160.47
5940,A3,1061.75,0.25,30,160.47
5941,B5,1062.0,0.25,55,160.47
5942,C3,1062.0,0.375,34,160.47
5943,E3,1062.0,0.375,34,160.47
5944,A5,1062.25,0.5,55,160.47
5945,A3,1062.25,0.25,30,160.47
5946,C3,1062.5,0.375,35,160.47
5947,E3,1062.5,0.375,35,160.47
5948,A3,1062.75,0.25,30,160.47
5949,C3,1063.0,0.375,35,160.47
5950,E3,1063.0,0.375,35,160.47
5951,A3,1063.25,0.25,31,160.47
5952,C3,1063.5,0.375,36,160.47
5953,E3,1063.5,0.375,36,160.47
5954,A3,1063.75,0.25,31,160.47
5955,F3,1064.0,0.375,38,160.47
5956,A3,1064.0,0.375,38,160.47
5957,B5,1064.125,0.125,61,160.47
5958,C6,1064.25,1.25,78,160.47
5959,C4,1064.25,0.25,33,160.47
5960,F3,1064.5,0.375,38,160.47
5961,A3,1064.5,0.375,38,160.47
5962,C4,1064.75,0.25,34,160.47
5963,F3,1065.0,0.375,38,160.47
5964,A3,1065.0,0.375,38,160.47
5965,C4,1065.25,0.25,34,160.47
5966,B5,1065.5,0.25,68,160.47
5967,F3,1065.5,0.375,38,160.47
5968,A3,1065.5,0.375,38,160.47
5969,A5,1065.75,0.25,67,160.47
5970,C4,1065.75,0.25,34,160.47
5971,G#5,1066.0,0.25,64,160.47
5972,F3,1066.0,0.375,40,160.47
5973,A3,1066.0,0.375,40,160.47
5974,A5,1066.25,0.5,63,160.47
5975,D4,1066.25,0.25,35,160.47
5976,F3,1066.5,0.375,41,160.47
5977,A3,1066.5,0.375,41,160.47
5978,D4,1066.75,0.25,36,160.47
5979,F3,1067.0,0.375,41,160.47
5980,A3,1067.0,0.375,41,160.47
5981,D4,1067.25,0.25,37,160.47
5982,F3,1067.5,0.375,42,160.47
5983,A3,1067.5,0.375,42,160.47
5984,D4,1067.75,0.25,37,160.47
5985,F3,1068.0,0.375,39,160.47
5986,A3,1068.0,0.375,39,160.47
5987,B5,1068.125,0.125,63,160.47
5988,C6,1068.25,1.25,81,160.47
5989,E-4,1068.25,0.25,34,160.47
5990,F3,1068.5,0.375,40,160.47
5991,A3,1068.5,0.375,40,160.47
5992,E-4,1068.75,0.25,35,160.47
5993,F3,1069.0,0.375,40,160.47
5994,A3,1069.0,0.375,40,160.47
5995,E-4,1069.25,0.25,36,160.47
5996,B5,1069.5,0.25,72,160.47
5997,F3,1069.5,0.375,40,160.47
5998,A3,1069.5,0.375,40,160.47
5999,A5,1069.75,0.25,71,160.47
6000,E-4,1069.75,0.25,36,160.47
6001,G#5,1070.0,0.25,67,160.47
6002,F3,1070.0,0.375,42,160.47
6003,A3,1070.0,0.375,42,160.47
6004,A5,1070.25,0.25,70,160.47
6005,C4,1070.25,0.25,37,160.47
6006,G#5,1070.5,0.25,66,160.47
6007,F3,1070.5,0.375,42,160.47
6008,A3,1070.5,0.375,42,160.47
6009,A5,1070.75,0.25,66,160.47
6010,C4,1070.75,0.25,37,160.47
6011,B5,1071.0,0.25,66,160.47
6012,F3,1071.0,0.375,47,160.47
6013,C6,1071.25,0.25,69,160.47
6014,A3,1071.25,0.25,39,160.47
6015,C#6,1071.5,0.25,70,160.47
6016,F3,1071.5,0.375,49,160.47
6017,D6,1071.75,0.25,71,160.47
6018,A3,1071.75,0.25,39,160.47
6019,E-6,1072.0,0.25,74,160.47
6020,E3,1072.0,73/250,40,160.47
6021,E6,1072.25,323/250,68,160.47
6022,G#3,1072.25,73/250,35,160.47
6023,B3,1072.5,73/250,35,160.47
6024,E4,1072.75,0.25,35,160.47
6025,E3,1073.0,73/250,41,160.47
6026,G#3,1073.25,73/250,35,160.47
6027,D6,1073.5,73/250,54,160.47
6028,B3,1073.5,73/250,35,160.47
6029,C6,1073.75,73/250,53,160.47
6030,E4,1073.75,0.25,35,160.47
6031,B5,1074.0,73/250,51,160.47
6032,E3,1074.0,73/250,39,160.47
6033,C6,1074.25,73/250,53,160.47
6034,A3,1074.25,73/250,35,160.47
6035,B5,1074.5,73/250,52,160.47
6036,C4,1074.5,73/250,35,160.47
6037,A5,1074.75,73/250,51,160.47
6038,E4,1074.75,0.25,35,160.47
6039,G#5,1075.0,73/250,50,160.47
6040,E3,1075.0,73/250,40,160.47
6041,A5,1075.25,73/250,50,160.47
6042,A3,1075.25,73/250,35,160.47
6043,C6,1075.5,73/250,52,160.47
6044,C4,1075.5,73/250,35,160.47
6045,B5,1075.75,73/250,50,160.47
6046,E4,1075.75,0.25,35,160.47
6047,A5,1076.0,0.25,50,160.47
6048,E3,1076.0,73/250,40,160.47
6049,G#5,1076.25,73/250,50,160.47
6050,A5,1076.25,21/500,50,160.47
6051,B3,1076.25,73/250,35,160.47
6052,F#5,1076.5,73/250,49,160.47
6053,D4,1076.5,73/250,35,160.47
6054,E5,1076.75,73/250,48,160.47
6055,E4,1076.75,0.25,35,160.47
6056,E-5,1077.0,73/250,47,160.47
6057,E3,1077.0,73/250,40,160.47
6058,E5,1077.25,73/250,49,160.47
6059,B3,1077.25,73/250,35,160.47
6060,F#5,1077.5,73/250,49,160.47
6061,D4,1077.5,73/250,35,160.47
6062,G5,1077.75,73/250,49,160.47
6063,E4,1077.75,0.25,35,160.47
6064,G#5,1078.0,73/250,50,160.47
6065,E3,1078.0,73/250,40,160.47
6066,A5,1078.25,73/250,50,160.47
6067,A3,1078.25,73/250,35,160.47
6068,G#5,1078.5,73/250,50,160.47
6069,C4,1078.5,73/250,35,160.47
6070,A5,1078.75,73/250,51,160.47
6071,E4,1078.75,0.25,35,160.47
6072,B5,1079.0,73/250,51,160.47
6073,E3,1079.0,73/250,40,160.47
6074,C6,1079.25,73/250,49,160.47
6075,A3,1079.25,73/250,35,160.47
6076,C#6,1079.5,73/250,50,160.47
6077,C4,1079.5,73/250,35,160.47
6078,D6,1079.75,73/250,52,160.47
6079,E4,1079.75,0.25,35,160.47
6080,E-6,1080.0,0.25,53,160.47
6081,E3,1080.0,73/250,40,160.47
6082,E6,1080.25,73/250,55,160.47
6083,E-6,1080.25,21/500,53,160.47
6084,G#3,1080.25,73/250,35,160.47
6085,E-6,1080.5,73/250,53,160.47
6086,B3,1080.5,73/250,35,160.47
6087,E6,1080.75,73/250,53,160.47
6088,E4,1080.75,0.25,35,160.47
6089,E-6,1081.0,73/250,50,160.47
6090,E3,1081.0,73/250,40,160.47
6091,E6,1081.25,73/250,52,160.47
6092,G#3,1081.25,73/250,35,160.47
6093,D6,1081.5,73/250,52,160.47
6094,B3,1081.5,73/250,35,160.47
6095,C6,1081.75,73/250,51,160.47
6096,E4,1081.75,0.25,35,160.47
6097,B5,1082.0,73/250,50,160.47
6098,E3,1082.0,73/250,40,160.47
6099,C6,1082.25,73/250,52,160.47
6100,A3,1082.25,73/250,35,160.47
6101,B5,1082.5,73/250,51,160.47
6102,C4,1082.5,73/250,35,160.47
6103,A5,1082.75,73/250,49,160.47
6104,E4,1082.75,0.25,35,160.47
6105,G#5,1083.0,73/250,50,160.47
6106,E3,1083.0,73/250,41,160.47
6107,A5,1083.25,73/250,50,160.47
6108,A3,1083.25,73/250,35,160.47
6109,C6,1083.5,73/250,53,160.47
6110,C4,1083.5,73/250,35,160.47
6111,B5,1083.75,73/250,50,160.47
6112,E4,1083.75,0.25,35,160.47
6113,A5,1084.0,0.25,50,160.47
6114,E3,1084.0,73/250,40,160.47
6115,G#5,1084.25,73/250,50,160.47
6116,A5,1084.25,21/500,50,160.47
6117,B3,1084.25,73/250,35,160.47
6118,F#5,1084.5,73/250,49,160.47
6119,D4,1084.5,73/250,35,160.47
6120,E5,1084.75,73/250,48,160.47
6121,E4,1084.75,0.25,35,160.47
6122,E-5,1085.0,73/250,47,160.47
6123,E3,1085.0,73/250,40,160.47
6124,E5,1085.25,73/250,49,160.47
6125,B3,1085.25,73/250,36,160.47
6126,F#5,1085.5,73/250,50,160.47
6127,D4,1085.5,73/250,36,160.47
6128,G5,1085.75,73/250,50,160.47
6129,E4,1085.75,0.25,36,160.47
6130,G#5,1086.0,73/250,52,160.47
6131,E3,1086.0,73/250,42,160.47
6132,A5,1086.25,73/250,52,160.47
6133,A3,1086.25,73/250,36,160.47
6134,G#5,1086.5,73/250,52,160.47
6135,C4,1086.5,73/250,37,160.47
6136,A5,1086.75,73/250,54,160.47
6137,E4,1086.75,0.25,37,160.47
6138,B5,1087.0,73/250,54,160.47
6139,E3,1087.0,73/250,42,160.47
6140,C6,1087.25,73/250,56,160.47
6141,A3,1087.25,73/250,37,160.47
6142,C#6,1087.5,73/250,58,160.47
6143,C4,1087.5,73/250,37,160.47
6144,D6,1087.75,73/250,60,160.47
6145,E4,1087.75,0.25,38,160.47
6146,E-6,1088.0,0.25,62,160.47
6147,E3,1088.0,0.25,44,160.47
6148,E6,1088.25,0.25,68,160.47
6149,E-6,1088.25,21/500,62,160.47
6150,G#3,1088.25,0.25,38,160.47
6151,B5,1088.5,0.25,60,160.47
6152,B3,1088.5,0.25,38,160.47
6153,G#5,1088.75,0.25,61,160.47
6154,E4,1088.75,0.25,38,160.47
6155,E5,1089.0,0.25,61,160.47
6156,E-4,1089.0,0.25,50,160.47
6157,E-5,1089.25,0.25,75,160.47
6158,E4,1089.25,0.25,41,160.47
6159,E5,1089.5,0.25,63,160.47
6160,C4,1089.5,0.25,40,160.47
6161,A5,1089.75,0.25,63,160.47
6162,A3,1089.75,0.25,41,160.47
6163,C6,1090.0,0.25,63,160.47
6164,E3,1090.0,0.25,52,160.47
6165,E6,1090.25,0.25,74,160.47
6166,G#3,1090.25,0.25,44,160.47
6167,B5,1090.5,0.25,65,160.47
6168,B3,1090.5,0.25,45,160.47
6169,G#5,1090.75,0.25,68,160.47
6170,E4,1090.75,0.25,45,160.47
6171,E5,1091.0,0.25,68,160.47
6172,E-4,1091.0,0.25,60,160.47
6173,E-5,1091.25,0.25,80,160.47
6174,E4,1091.25,0.25,51,160.47
6175,E5,1091.5,0.25,71,160.47
6176,C4,1091.5,0.25,51,160.47
6177,A5,1091.75,0.25,71,160.47
6178,A3,1091.75,0.25,52,160.47
6179,C6,1092.0,0.25,72,160.47
6180,E3,1092.0,0.25,63,160.47
6181,E6,1092.25,0.25,91,160.47
6182,G#3,1092.25,0.25,52,160.47
6183,B5,1092.5,0.25,82,160.47
6184,B3,1092.5,0.25,52,160.47
6185,G#5,1092.75,0.25,82,160.47
6186,E4,1092.75,0.25,52,160.47
6187,E5,1093.0,0.25,82,160.47
6188,E3,1093.0,0.25,63,160.47
6189,E6,1093.25,0.25,91,160.47
6190,A3,1093.25,0.25,52,160.47
6191,C6,1093.5,0.25,82,160.47
6192,C4,1093.5,0.25,52,160.47
6193,A5,1093.75,0.25,82,160.47
6194,E4,1093.75,0.25,52,160.47
6195,E5,1094.0,0.25,82,160.47
6196,E3,1094.0,0.25,63,160.47
6197,E6,1094.25,0.25,91,160.47
6198,G#3,1094.25,0.25,52,160.47
6199,B5,1094.5,0.25,82,160.47
6200,B3,1094.5,0.25,52,160.47
6201,G#5,1094.75,0.25,81,160.47
6202,E4,1094.75,0.25,52,160.47
6203,E5,1095.0,0.25,81,160.47
6204,E3,1095.0,0.25,63,160.47
6205,E6,1095.25,0.25,91,160.47
6206,A3,1095.25,0.25,52,160.47
6207,C6,1095.5,0.25,81,160.47
6208,C4,1095.5,0.25,52,160.47
6209,A5,1095.75,0.25,81,160.47
6210,E4,1095.75,0.25,52,160.47
6211,E5,1096.0,0.25,82,160.47
6212,E3,1096.0,1.0,56,160.47
6213,G#3,1096.0,1.0,56,160.47
6214,B3,1096.0,1.0,56,160.47
6215,E4,1096.0,1.0,56,160.47
6216,E6,1096.25,0.25,91,160.47
6217,B5,1096.5,0.25,82,160.47
6218,G#5,1096.75,0.25,82,160.47
6219,E5,1097.0,0.25,82,160.47
6220,B5,1097.25,0.25,91,160.47
6221,G#5,1097.5,0.25,82,160.47
6222,E5,1097.75,0.25,82,160.47
6223,B4,1098.0,0.25,82,160.47
6224,G#5,1098.25,0.25,91,160.47
6225,E5,1098.5,0.25,82,160.47
6226,B4,1098.75,0.25,81,160.47
6227,G#4,1099.0,0.25,81,160.47
6228,E5,1099.25,0.25,91,160.47
6229,B4,1099.5,0.25,81,160.47
6230,G#4,1099.75,0.25,81,160.47
6231,E4,1100.0,0.25,82,160.47
6232,B4,1100.25,0.25,91,160.47
6233,G#4,1100.5,0.25,81,160.47
6234,E4,1100.75,0.25,80,160.47
6235,B3,1101.0,0.25,80,160.47
6236,G#4,1101.25,0.25,89,160.47
6237,E4,1101.5,0.25,79,160.47
6238,B3,1101.75,0.25,79,160.47
6239,G#3,1102.0,0.25,78,160.47
6240,E4,1102.25,0.25,87,160.47
6241,B3,1102.5,0.25,78,160.47
6242,G#3,1102.75,0.25,77,160.47
6243,E3,1103.0,0.25,77,160.47
6244,E2,1103.0,0.25,85,160.47
6245,G#2,1103.25,0.25,76,160.47
6246,B2,1103.5,0.25,76,160.47
6247,E3,1103.75,0.25,75,160.47
6248,E2,1104.0,0.25,77,160.47
6249,E3,1104.5,0.25,68,160.47
6250,F#2,1105.0,0.25,73,160.47
6251,F#3,1105.5,0.25,66,160.47
6252,G#2,1106.0,0.25,71,160.47
6253,E5,1106.25,0.25,75,160.47
6254,G#3,1106.5,0.25,65,160.47
6255,E4,1106.75,0.25,69,160.47
6256,F#5,1107.25,0.25,74,160.47
6257,F#4,1107.75,0.25,65,160.47
6258,G#2,1108.0,0.25,69,160.47
6259,G#5,1108.25,0.25,71,160.47
6260,G#3,1108.5,0.25,61,160.47
6261,G#4,1108.75,0.25,64,160.47
6262,A2,1109.0,0.25,65,160.47
6263,A3,1109.5,0.25,59,160.47
6264,B2,1110.0,0.25,65,160.47
6265,G#5,1110.25,0.25,67,160.47
6266,B3,1110.5,0.25,54,160.47
6267,G#4,1110.75,0.25,53,160.47
6268,A5,1111.25,0.25,59,160.47
6269,A4,1111.75,0.25,50,160.47
6270,B5,1112.25,0.25,52,160.47
6271,B4,1112.75,0.25,49,160.47
6272,C#6,1113.25,0.25,52,160.47
6273,C#5,1113.75,0.25,49,160.47
6274,B2,1114.0,0.25,41,160.47
6275,D6,1114.25,0.25,52,160.47
6276,B3,1114.5,0.25,36,160.47
6277,D5,1114.75,0.25,48,160.47
6278,C#3,1115.0,0.25,41,160.47
6279,D6,1115.25,0.25,52,160.47
6280,C#4,1115.5,0.25,36,160.47
6281,E5,1115.75,0.25,46,160.47
6282,D3,1116.0,0.25,40,160.47
6283,D6,1116.25,0.25,51,160.47
6284,D4,1116.5,0.25,37,160.47
6285,F#5,1116.75,0.25,46,160.47
6286,E3,1117.0,0.25,39,160.47
6287,D6,1117.25,0.25,51,160.47
6288,E4,1117.5,0.25,36,160.47
6289,G#5,1117.75,0.25,46,160.47
6290,F#3,1118.0,0.25,38,160.47
6291,D6,1118.25,0.25,51,160.47
6292,F#4,1118.5,0.25,37,160.47
6293,A5,1118.75,0.25,47,160.47
6294,G#3,1119.0,0.25,40,160.47
6295,D6,1119.25,0.25,50,160.47
6296,G#4,1119.5,0.25,37,160.47
6297,B5,1119.75,0.25,46,160.47
6298,E4,1120.0,2.0,34,160.47
6299,C#4,1120.0,2.0,34,160.47
6300,A4,1120.0,2.0,34,160.47
6301,A3,1120.0,2.0,34,160.47
6302,C#5,1120.25,2.0,45,160.47
6303,E5,1120.25,2.0,45,160.47
6304,A5,1120.25,2.0,45,160.47
6305,C#6,1120.25,2.0,45,160.47
6306,B3,1122.0,1.0,30,160.47
6307,E4,1122.0,1.0,30,160.47
6308,G#3,1122.0,1.0,30,160.47
6309,E3,1122.0,1.0,30,160.47
6310,B4,1122.25,1.0,43,160.47
6311,E5,1122.25,1.0,43,160.47
6312,G#5,1122.25,1.0,43,160.47
6313,B5,1122.25,1.0,43,160.47
6314,A3,1123.0,1.0,30,160.47
6315,C#4,1123.0,1.0,30,160.47
6316,F#4,1123.0,1.0,30,160.47
6317,F#3,1123.0,1.0,30,160.47
6318,A4,1123.25,1.0,43,160.47
6319,C#5,1123.25,1.0,43,160.47
6320,F#5,1123.25,1.0,43,160.47
6321,A5,1123.25,1.0,43,160.47
6322,C#3,1124.0,2.0,34,160.47
6323,C#4,1124.0,2.0,34,160.47
6324,G#3,1124.0,2.0,34,160.47
6325,F3,1124.0,2.0,34,160.47
6326,G#4,1124.25,2.0,45,160.47
6327,B4,1124.25,2.0,45,160.47
6328,F5,1124.25,2.0,45,160.47
6329,G#5,1124.25,2.0,45,160.47
6330,F#3,1126.0,2.0,30,160.47
6331,D3,1126.0,2.0,30,160.47
6332,D4,1126.0,2.0,30,160.47
6333,A3,1126.0,2.0,30,160.47
6334,D5,1126.25,2.0,43,160.47
6335,F#4,1126.25,2.0,43,160.47
6336,A4,1126.25,2.0,43,160.47
6337,F#5,1126.25,2.0,43,160.47
6338,B2,1128.0,2.0,41,160.47
6339,E3,1128.0,2.0,41,160.47
6340,G#3,1128.0,2.0,41,160.47
6341,B3,1128.0,2.0,41,160.47
6342,G#4,1128.25,2.0,52,160.47
6343,D5,1128.25,2.0,52,160.47
6344,E5,1128.25,2.0,52,160.47
6345,G#5,1128.25,2.0,52,160.47
6346,A3,1130.0,1.0,42,160.47
6347,C#3,1130.0,1.0,42,160.47
6348,E3,1130.0,1.0,42,160.47
6349,C#4,1130.0,1.0,42,160.47
6350,A4,1130.25,1.0,55,160.47
6351,E5,1130.25,1.0,55,160.47
6352,A5,1130.25,1.0,55,160.47
6353,B3,1131.0,1.0,44,160.47
6354,D4,1131.0,1.0,44,160.47
6355,D3,1131.0,1.0,44,160.47
6356,F#3,1131.0,1.0,44,160.47
6357,B4,1131.25,1.0,59,160.47
6358,F#5,1131.25,1.0,59,160.47
6359,A5,1131.25,1.0,59,160.47
6360,B5,1131.25,1.0,59,160.47
6361,E3,1132.0,4.0,49,160.47
6362,C#4,1132.0,2.0,52,160.47
6363,A3,1132.0,2.0,52,160.47
6364,E4,1132.0,2.0,52,160.47
6365,E5,1132.25,3.0,59,160.47
6366,C#5,1132.25,2.0,65,160.47
6367,A5,1132.25,2.0,65,160.47
6368,C#6,1132.25,2.0,65,160.47
6369,B3,1134.0,499/250,29,160.47
6370,G#3,1134.0,499/250,29,160.47
6371,E4,1134.0,499/250,29,160.47
6372,B4,1134.25,2.0,38,160.47
6373,G#5,1134.25,2.0,38,160.47
6374,B5,1134.25,2.0,38,160.47
6375,D5,1135.25,1.0,55,160.47
6376,C4,1136.0,2.0,32,160.47
6377,A3,1136.0,2.0,32,160.47
6378,E4,1136.25,2.0,40,160.47
6379,A4,1136.25,2.0,40,160.47
6380,C5,1136.25,2.0,40,160.47
6381,B3,1138.0,1.0,28,160.47
6382,G3,1138.0,1.0,28,160.47
6383,E3,1138.0,1.0,28,160.47
6384,E4,1138.25,1.0,38,160.47
6385,G4,1138.25,1.0,38,160.47
6386,B4,1138.25,1.0,38,160.47
6387,A3,1139.0,1.0,28,160.47
6388,F3,1139.0,1.0,28,160.47
6389,C4,1139.25,1.0,38,160.47
6390,F4,1139.25,1.0,38,160.47
6391,A4,1139.25,1.0,38,160.47
6392,G3,1140.0,2.0,31,160.47
6393,E3,1140.0,2.0,31,160.47
6394,C3,1140.0,2.0,31,160.47
6395,C4,1140.25,2.0,40,160.47
6396,E4,1140.25,2.0,40,160.47
6397,G4,1140.25,2.0,40,160.47
6398,F3,1142.0,2.0,28,160.47
6399,D3,1142.0,2.0,28,160.47
6400,D4,1142.25,2.0,38,160.47
6401,A3,1142.25,2.0,38,160.47
6402,F4,1142.25,2.0,38,160.47
6403,G2,1144.0,4.0,26,160.47
6404,C3,1144.0,1.0,35,160.47
6405,E3,1144.0,1.0,35,160.47
6406,G4,1144.25,2.0,52,160.47
6407,C4,1144.25,1.0,44,160.47
6408,E4,1144.25,1.0,44,160.47
6409,D3,1145.0,3.0,35,160.47
6410,F3,1145.0,3.0,35,160.47
6411,D4,1145.25,3.0,45,160.47
6412,F4,1145.25,3.0,45,160.47
6413,A4,1146.25,1.0,61,160.47
6414,B4,1147.25,1.0,69,160.47
6415,C3,1148.0,1.0,38,160.47
6416,E3,1148.0,1.0,38,160.47
6417,C5,1148.25,0.25,51,160.47
6418,C4,1148.25,333/1000,41,160.47
6419,E4,1148.25,333/1000,41,160.47
6420,D5,1148.583,0.25,48,160.47
6421,E5,1148.917,0.25,49,160.47
6422,F5,1149.25,0.25,50,160.47
6423,G5,1149.583,0.25,50,160.47
6424,A5,1149.917,0.25,51,160.47
6425,B-5,1150.25,0.25,52,160.47
6426,B5,1150.583,0.25,48,160.47
6427,C6,1150.917,0.25,49,160.47
6428,C#6,1151.25,0.25,51,160.47
6429,D6,1151.583,0.25,53,160.47
6430,E-6,1151.917,0.25,54,160.47
6431,E5,1152.0,2.0,40,160.47
6432,C5,1152.0,2.0,40,160.47
6433,C6,1152.25,2.0,48,160.47
6434,E6,1152.25,333/1000,58,160.47
6435,E-6,1152.583,333/1000,53,160.47
6436,E6,1152.917,333/1000,53,160.47
6437,F6,1153.25,333/1000,53,160.47
6438,E-6,1153.583,333/1000,53,160.47
6439,E6,1153.917,333/1000,53,160.47
6440,F5,1154.0,1.0,36,160.47
6441,D5,1154.0,1.0,36,160.47
6442,B4,1154.0,1.0,36,160.47
6443,G#4,1154.0,1.0,36,160.47
6444,B5,1154.25,1.0,60,160.47
6445,E6,1154.583,333/1000,54,160.47
6446,D6,1154.917,333/1000,54,160.47
6447,E5,1155.0,1.0,38,160.47
6448,C5,1155.0,1.0,38,160.47
6449,A4,1155.0,1.0,38,160.47
6450,E5,1155.25,1.0,60,160.47
6451,D6,1155.583,333/1000,53,160.47
6452,C6,1155.917,333/1000,53,160.47
6453,D5,1156.0,2.0,40,160.47
6454,B4,1156.0,2.0,40,160.47
6455,G#4,1156.0,2.0,40,160.47
6456,E4,1156.0,2.0,40,160.47
6457,G#5,1156.25,2.0,60,160.47
6458,B-5,1156.583,333/1000,54,160.47
6459,B5,1156.917,333/1000,54,160.47
6460,C6,1157.25,333/1000,54,160.47
6461,B-5,1157.583,333/1000,54,160.47
6462,B5,1157.917,333/1000,54,160.47
6463,C5,1158.0,2.0,37,160.47
6464,A4,1158.0,2.0,37,160.47
6465,F4,1158.0,2.0,37,160.47
6466,F5,1158.25,2.0,60,160.47
6467,G#5,1158.583,333/1000,54,160.47
6468,A5,1158.917,333/1000,54,160.47
6469,B5,1159.25,333/1000,54,160.47
6470,G#5,1159.583,333/1000,54,160.47
6471,A5,1159.917,333/1000,54,160.47
6472,D4,1160.0,2.0,43,160.47
6473,F4,1160.0,2.0,43,160.47
6474,G4,1160.0,2.0,43,160.47
6475,B4,1160.0,2.0,43,160.47
6476,F5,1160.25,2.0,62,160.47
6477,B-5,1160.583,333/1000,62,160.47
6478,B5,1160.917,333/1000,57,160.47
6479,C6,1161.25,333/1000,57,160.47
6480,B-5,1161.583,333/1000,59,160.47
6481,B5,1161.917,333/1000,59,160.47
6482,E4,1162.0,1.0,48,160.47
6483,G4,1162.0,1.0,48,160.47
6484,C5,1162.0,1.0,48,160.47
6485,G5,1162.25,1.0,71,160.47
6486,D6,1162.583,333/1000,63,160.47
6487,C6,1162.917,333/1000,64,160.47
6488,C5,1163.0,1.0,52,160.47
6489,D5,1163.0,1.0,52,160.47
6490,F4,1163.0,1.0,52,160.47
6491,A4,1163.0,1.0,52,160.47
6492,A5,1163.25,1.0,74,160.47
6493,E6,1163.583,333/1000,65,160.47
6494,D6,1163.917,333/1000,65,160.47
6495,G4,1164.0,3.0,53,160.47
6496,C5,1164.0,2.0,59,160.47
6497,E5,1164.0,2.0,59,160.47
6498,E6,1164.25,333/1000,79,160.47
6499,C6,1164.25,2.0,79,160.47
6500,E-6,1164.583,333/1000,72,160.47
6501,E6,1164.917,333/1000,72,160.47
6502,G6,1165.25,333/1000,68,160.47
6503,F6,1165.583,333/1000,72,160.47
6504,E6,1165.917,333/1000,69,160.47
6505,B4,1166.0,1.0,49,160.47
6506,D5,1166.0,1.0,49,160.47
6507,B5,1166.25,333/1000,67,160.47
6508,D6,1166.25,333/1000,67,160.47
6509,A5,1166.583,333/1000,64,160.47
6510,C6,1166.583,333/1000,64,160.47
6511,B5,1166.917,333/1000,60,160.47
6512,G5,1166.917,333/1000,60,160.47
6513,G3,1167.0,333/1000,44,160.47
6514,F5,1167.25,333/1000,60,160.47
6515,A5,1167.25,333/1000,60,160.47
6516,A3,1167.333,333/1000,43,160.47
6517,E5,1167.583,333/1000,56,160.47
6518,G5,1167.583,333/1000,56,160.47
6519,B3,1167.667,333/1000,41,160.47
6520,D5,1167.917,333/1000,53,160.47
6521,F5,1167.917,333/1000,53,160.47
6522,E4,1168.0,2.0,41,160.47
6523,C4,1168.0,2.0,41,160.47
6524,G4,1168.25,2.0,57,160.47
6525,E5,1168.25,333/1000,57,160.47
6526,E-5,1168.583,333/1000,49,160.47
6527,E5,1168.917,333/1000,49,160.47
6528,F5,1169.25,333/1000,49,160.47
6529,E-5,1169.583,333/1000,49,160.47
6530,E5,1169.917,333/1000,49,160.47
6531,D4,1170.0,1.0,36,160.47
6532,B3,1170.0,1.0,36,160.47
6533,G#3,1170.0,1.0,36,160.47
6534,F4,1170.25,1.0,56,160.47
6535,E5,1170.583,333/1000,50,160.47
6536,D5,1170.917,333/1000,50,160.47
6537,C4,1171.0,1.0,37,160.47
6538,A3,1171.0,1.0,37,160.47
6539,E4,1171.25,1.0,56,160.47
6540,D5,1171.583,333/1000,49,160.47
6541,C5,1171.917,333/1000,49,160.47
6542,B3,1172.0,2.0,42,160.47
6543,D4,1172.0,2.0,42,160.47
6544,G#3,1172.0,2.0,42,160.47
6545,E3,1172.0,2.0,42,160.47
6546,B-4,1172.583,333/1000,50,160.47
6547,B4,1172.917,333/1000,50,160.47
6548,C5,1173.25,333/1000,53,160.47
6549,B-4,1173.583,333/1000,50,160.47
6550,B4,1173.917,333/1000,50,160.47
6551,F3,1174.0,2.0,37,160.47
6552,A3,1174.0,2.0,37,160.47
6553,C4,1174.0,2.0,37,160.47
6554,G#4,1174.583,333/1000,50,160.47
6555,A4,1174.917,333/1000,50,160.47
6556,B4,1175.25,333/1000,53,160.47
6557,G#4,1175.583,333/1000,50,160.47
6558,A4,1175.917,333/1000,50,160.47
6559,G2,1176.0,4.0,46,160.47
6560,C3,1176.0,1.0,54,160.47
6561,E3,1176.0,1.0,54,160.47
6562,C4,1176.25,333/1000,60,160.47
6563,E4,1176.583,333/1000,56,160.47
6564,G4,1176.917,333/1000,57,160.47
6565,D3,1177.0,3.0,56,160.47
6566,F3,1177.0,3.0,56,160.47
6567,D4,1177.25,333/1000,66,160.47
6568,F4,1177.583,333/1000,61,160.47
6569,G4,1177.917,333/1000,61,160.47
6570,D4,1178.25,333/1000,74,160.47
6571,F4,1178.583,333/1000,67,160.47
6572,A4,1178.917,333/1000,65,160.47
6573,D4,1179.25,333/1000,80,160.47
6574,F4,1179.583,333/1000,71,160.47
6575,B4,1179.917,333/1000,70,160.47
6576,C2,1180.0,1.0,55,160.47
6577,C3,1180.0,1.0,55,160.47
6578,E4,1180.25,333/1000,80,160.47
6579,C5,1180.25,333/1000,80,160.47
6580,G3,1180.583,333/1000,75,160.47
6581,E3,1180.917,333/1000,77,160.47
6582,G2,1181.0,2.0,60,160.47
6583,G3,1181.25,333/1000,82,160.47
6584,C4,1181.583,333/1000,77,160.47
6585,E4,1181.917,333/1000,77,160.47
6586,D4,1182.25,333/1000,82,160.47
6587,B3,1182.583,333/1000,77,160.47
6588,G3,1182.917,333/1000,77,160.47
6589,G2,1183.0,1.0,60,160.47
6590,B3,1183.25,333/1000,82,160.47
6591,D4,1183.583,333/1000,77,160.47
6592,F4,1183.917,333/1000,77,160.47
6593,G2,1184.0,1.0,60,160.47
6594,E4,1184.25,333/1000,82,160.47
6595,C4,1184.583,333/1000,75,160.47
6596,G3,1184.917,333/1000,77,160.47
6597,G2,1185.0,2.0,60,160.47
6598,C4,1185.25,333/1000,82,160.47
6599,E4,1185.583,333/1000,77,160.47
6600,G4,1185.917,333/1000,77,160.47
6601,F4,1186.25,333/1000,82,160.47
6602,D4,1186.583,333/1000,77,160.47
6603,B3,1186.917,333/1000,77,160.47
6604,G2,1187.0,1.0,60,160.47
6605,B4,1187.25,333/1000,82,160.47
6606,F4,1187.583,333/1000,77,160.47
6607,D4,1187.917,333/1000,77,160.47
6608,C3,1188.0,333/1000,73,160.47
6609,E4,1188.25,1.0,69,160.47
6610,C5,1188.25,1.0,69,160.47
6611,G2,1188.333,333/1000,67,160.47
6612,E2,1188.667,333/1000,69,160.47
6613,G2,1189.0,333/1000,73,160.47
6614,G4,1189.25,2.0,75,160.47
6615,C3,1189.333,333/1000,69,160.47
6616,E3,1189.667,333/1000,69,160.47
6617,D3,1190.0,333/1000,73,160.47
6618,B2,1190.333,333/1000,69,160.47
6619,G2,1190.667,333/1000,69,160.47
6620,B2,1191.0,333/1000,73,160.47
6621,G4,1191.25,1.0,75,160.47
6622,D3,1191.333,333/1000,69,160.47
6623,F3,1191.667,333/1000,69,160.47
6624,E3,1192.0,333/1000,73,160.47
6625,G4,1192.25,1.0,75,160.47
6626,C3,1192.333,333/1000,67,160.47
6627,G2,1192.667,333/1000,69,160.47
6628,C3,1193.0,333/1000,73,160.47
6629,G4,1193.25,2.0,75,160.47
6630,E3,1193.333,333/1000,69,160.47
6631,G3,1193.667,333/1000,69,160.47
6632,F3,1194.0,333/1000,73,160.47
6633,D3,1194.333,333/1000,69,160.47
6634,B2,1194.667,333/1000,69,160.47
6635,B3,1195.0,333/1000,73,160.47
6636,G4,1195.25,1.0,75,160.47
6637,F3,1195.333,333/1000,69,160.47
6638,D3,1195.667,333/1000,69,160.47
6639,E3,1196.0,333/1000,64,160.47
6640,C5,1196.25,333/1000,82,160.47
6641,G3,1196.333,333/1000,56,160.47
6642,G4,1196.583,333/1000,75,160.47
6643,C4,1196.667,333/1000,56,160.47
6644,E4,1196.917,333/1000,77,160.47
6645,G3,1197.0,333/1000,64,160.47
6646,G4,1197.25,333/1000,82,160.47
6647,E3,1197.333,333/1000,57,160.47
6648,C5,1197.583,333/1000,77,160.47
6649,C3,1197.667,333/1000,57,160.47
6650,E5,1197.917,333/1000,77,160.47
6651,B2,1198.0,333/1000,64,160.47
6652,D5,1198.25,333/1000,82,160.47
6653,D3,1198.333,333/1000,56,160.47
6654,B4,1198.583,333/1000,77,160.47
6655,F3,1198.667,333/1000,56,160.47
6656,G4,1198.917,333/1000,77,160.47
6657,D3,1199.0,333/1000,64,160.47
6658,B4,1199.25,333/1000,82,160.47
6659,B2,1199.333,333/1000,57,160.47
6660,D5,1199.583,333/1000,77,160.47
6661,G2,1199.667,333/1000,58,160.47
6662,F5,1199.917,333/1000,77,160.47
6663,C3,1200.013,333/1000,64,160.47
6664,E5,1200.25,333/1000,82,160.47
6665,E3,1200.333,333/1000,56,160.47
6666,C5,1200.583,333/1000,75,160.47
6667,G3,1200.667,333/1000,56,160.47
6668,G4,1200.917,333/1000,77,160.47
6669,E3,1201.0,333/1000,64,160.47
6670,C5,1201.25,333/1000,82,160.47
6671,C3,1201.333,333/1000,57,160.47
6672,E5,1201.583,333/1000,77,160.47
6673,G2,1201.679,333/1000,57,160.47
6674,G5,1201.917,333/1000,77,160.47
6675,B2,1202.0,333/1000,64,160.47
6676,F5,1202.25,333/1000,82,160.47
6677,F3,1202.333,333/1000,56,160.47
6678,D5,1202.583,333/1000,77,160.47
6679,G3,1202.679,333/1000,56,160.47
6680,B4,1202.917,333/1000,77,160.47
6681,F3,1203.0,333/1000,64,160.47
6682,B5,1203.25,333/1000,82,160.47
6683,G3,1203.333,333/1000,57,160.47
6684,F5,1203.583,333/1000,77,160.47
6685,D4,1203.667,333/1000,58,160.47
6686,D5,1203.917,333/1000,77,160.47
6687,E3,1204.0,333/1000,64,160.47
6688,C6,1204.25,0.5,82,160.47
6689,G3,1204.333,333/1000,55,160.47
6690,G5,1204.583,333/1000,74,160.47
6691,C4,1204.667,333/1000,55,160.47
6692,E5,1204.917,333/1000,74,160.47
6693,C3,1205.0,333/1000,62,160.47
6694,G5,1205.25,0.5,79,160.47
6695,E3,1205.333,333/1000,55,160.47
6696,E5,1205.583,333/1000,73,160.47
6697,G3,1205.667,333/1000,54,160.47
6698,C5,1205.917,333/1000,72,160.47
6699,D3,1206.0,333/1000,59,160.47
6700,F5,1206.25,0.5,77,160.47
6701,F3,1206.333,333/1000,51,160.47
6702,D5,1206.583,333/1000,71,160.47
6703,G3,1206.667,333/1000,51,160.47
6704,B4,1206.917,333/1000,70,160.47
6705,F3,1207.0,333/1000,57,160.47
6706,B5,1207.25,0.5,74,160.47
6707,G3,1207.333,333/1000,51,160.47
6708,G5,1207.583,333/1000,69,160.47
6709,D4,1207.667,333/1000,51,160.47
6710,D5,1207.917,333/1000,67,160.47
6711,E3,1208.0,333/1000,56,160.47
6712,C6,1208.25,0.5,72,160.47
6713,G3,1208.333,333/1000,48,160.47
6714,G5,1208.583,333/1000,65,160.47
6715,C4,1208.667,333/1000,48,160.47
6716,E5,1208.917,333/1000,65,160.47
6717,C3,1209.0,333/1000,54,160.47
6718,G5,1209.25,0.5,70,160.47
6719,E3,1209.333,333/1000,48,160.47
6720,E5,1209.583,333/1000,64,160.47
6721,G3,1209.667,333/1000,47,160.47
6722,C5,1209.917,333/1000,63,160.47
6723,D3,1210.0,333/1000,51,160.47
6724,F5,1210.25,0.5,67,160.47
6725,F3,1210.333,333/1000,44,160.47
6726,D5,1210.583,333/1000,62,160.47
6727,G3,1210.667,333/1000,44,160.47
6728,B4,1210.917,333/1000,60,160.47
6729,F3,1211.0,333/1000,50,160.47
6730,B5,1211.25,0.5,64,160.47
6731,G3,1211.333,333/1000,44,160.47
6732,G5,1211.583,333/1000,59,160.47
6733,D4,1211.667,333/1000,44,160.47
6734,D5,1211.917,333/1000,58,160.47
6735,E3,1212.0,0.25,50,160.47
6736,C6,1212.25,0.25,64,160.47
6737,G3,1212.25,0.25,43,160.47
6738,G5,1212.5,0.25,58,160.47
6739,C3,1212.5,0.25,43,160.47
6740,E5,1212.75,0.25,58,160.47
6741,G3,1212.75,0.25,44,160.47
6742,C5,1213.0,0.25,59,160.47
6743,D3,1213.0,0.25,51,160.47
6744,F5,1213.25,0.25,65,160.47
6745,G3,1213.25,0.25,44,160.47
6746,D5,1213.5,0.25,59,160.47
6747,F3,1213.5,0.25,44,160.47
6748,B5,1213.75,0.25,62,160.47
6749,G3,1213.75,0.25,44,160.47
6750,G5,1214.0,0.25,63,160.47
6751,E3,1214.0,0.25,52,160.47
6752,C6,1214.25,0.25,69,160.47
6753,G3,1214.25,0.25,46,160.47
6754,G5,1214.5,0.25,63,160.47
6755,C3,1214.5,0.25,47,160.47
6756,E5,1214.75,0.25,63,160.47
6757,G3,1214.75,0.25,49,160.47
6758,C5,1215.0,0.25,64,160.47
6759,D3,1215.0,0.25,55,160.47
6760,F5,1215.25,0.25,71,160.47
6761,G3,1215.25,0.25,48,160.47
6762,D5,1215.5,0.25,66,160.47
6763,F3,1215.5,0.25,48,160.47
6764,B5,1215.75,0.25,67,160.47
6765,G3,1215.75,0.25,49,160.47
6766,G5,1216.0,0.25,67,160.47
6767,E3,1216.0,0.25,58,160.47
6768,C6,1216.25,0.25,74,160.47
6769,G3,1216.25,0.25,50,160.47
6770,G5,1216.5,0.25,67,160.47
6771,F3,1216.5,0.25,51,160.47
6772,B5,1216.75,0.25,69,160.47
6773,G3,1216.75,0.25,52,160.47
6774,G5,1217.0,0.25,69,160.47
6775,E3,1217.0,0.25,60,160.47
6776,C6,1217.25,0.25,77,160.47
6777,G3,1217.25,0.25,52,160.47
6778,G5,1217.5,0.25,77,160.47
6779,F3,1217.5,0.25,52,160.47
6780,B5,1217.75,0.25,72,160.47
6781,G3,1217.75,0.25,54,160.47
6782,G5,1218.0,0.25,73,160.47
6783,E3,1218.0,0.25,62,160.47
6784,C6,1218.25,0.25,80,160.47
6785,G3,1218.25,0.25,55,160.47
6786,G5,1218.5,0.25,73,160.47
6787,F3,1218.5,0.25,55,160.47
6788,B5,1218.75,0.25,74,160.47
6789,G3,1218.75,0.25,57,160.47
6790,G5,1219.0,0.25,74,160.47
6791,E3,1219.0,0.25,65,160.47
6792,C6,1219.25,0.25,82,160.47
6793,G3,1219.25,0.25,57,160.47
6794,G5,1219.5,0.25,85,160.47
6795,F3,1219.5,0.25,57,160.47
6796,B5,1219.75,0.25,78,160.47
6797,G3,1219.75,0.25,58,160.47
6798,G5,1220.0,0.25,79,160.47
6799,E3,1220.0,0.25,70,160.47
6800,C6,1220.25,0.25,89,160.47
6801,G3,1220.25,0.25,60,160.47
6802,G5,1220.5,0.25,81,160.47
6803,E2,1220.5,0.25,60,160.47
6804,B-5,1220.75,0.25,81,160.47
6805,C3,1220.75,0.25,62,160.47
6806,G5,1221.0,0.25,81,160.47
6807,E2,1221.0,0.25,70,160.47
6808,B-5,1221.25,0.25,89,160.47
6809,C3,1221.25,0.25,60,160.47
6810,G5,1221.5,0.25,83,160.47
6811,E2,1221.5,0.25,60,160.47
6812,B-5,1221.75,0.25,82,160.47
6813,C3,1221.75,0.25,60,160.47
6814,G5,1222.0,0.25,82,160.47
6815,E2,1222.0,0.25,70,160.47
6816,B-5,1222.25,0.25,89,160.47
6817,C3,1222.25,0.25,60,160.47
6818,G5,1222.5,0.25,81,160.47
6819,E2,1222.5,0.25,60,160.47
6820,B-5,1222.75,0.25,81,160.47
6821,C3,1222.75,0.25,62,160.47
6822,G5,1223.0,0.25,81,160.47
6823,E2,1223.0,0.25,70,160.47
6824,B-5,1223.25,0.25,89,160.47
6825,C3,1223.25,0.25,60,160.47
6826,G5,1223.5,0.25,83,160.47
6827,E2,1223.5,0.25,60,160.47
6828,B-5,1223.75,0.25,82,160.47
6829,C3,1223.75,0.25,60,160.47
6830,G5,1224.0,0.25,82,160.47
6831,E2,1224.0,0.25,70,160.47
6832,B-5,1224.25,0.5,89,160.47
6833,C3,1224.25,0.25,60,160.47
6834,E2,1224.5,0.25,60,160.47
6835,A5,1224.75,0.25,81,160.47
6836,C3,1224.75,0.25,62,160.47
6837,G5,1225.0,0.25,81,160.47
6838,E2,1225.0,0.25,70,160.47
6839,F5,1225.25,0.25,84,160.47
6840,C3,1225.25,0.25,60,160.47
6841,E5,1225.5,0.25,78,160.47
6842,E2,1225.5,0.25,60,160.47
6843,D5,1225.75,0.25,78,160.47
6844,C3,1225.75,0.25,61,160.47
6845,C5,1226.0,0.25,80,160.47
6846,E2,1226.0,0.25,71,160.47
6847,B-4,1226.25,0.25,84,160.47
6848,C3,1226.25,0.25,61,160.47
6849,A4,1226.5,0.25,80,160.47
6850,E2,1226.5,0.25,61,160.47
6851,G4,1226.75,0.25,80,160.47
6852,C3,1226.75,0.25,63,160.47
6853,F4,1227.0,0.25,81,160.47
6854,E2,1227.0,0.25,72,160.47
6855,E4,1227.25,0.25,86,160.47
6856,C3,1227.25,0.25,62,160.47
6857,D4,1227.5,0.25,84,160.47
6858,E2,1227.5,0.25,62,160.47
6859,C4,1227.75,0.25,85,160.47
6860,C3,1227.75,0.25,62,160.47
6861,B-3,1228.0,0.25,85,160.47
6862,F2,1228.0,0.375,71,160.47
6863,A2,1228.0,0.375,71,160.47
6864,C3,1228.0,0.375,71,160.47
6865,A3,1228.25,0.25,93,160.47
6866,B3,1228.5,0.25,81,160.47
6867,F2,1228.5,0.375,64,160.47
6868,A2,1228.5,0.375,64,160.47
6869,C3,1228.5,0.375,64,160.47
6870,C4,1228.75,0.25,81,160.47
6871,B3,1229.0,0.25,81,160.47
6872,C4,1229.25,0.25,92,160.47
6873,E4,1229.5,0.25,81,160.47
6874,F2,1229.5,0.375,64,160.47
6875,A2,1229.5,0.375,64,160.47
6876,C3,1229.5,0.375,64,160.47
6877,F4,1229.75,0.25,81,160.47
6878,E4,1230.0,0.25,82,160.47
6879,F2,1230.0,0.375,71,160.47
6880,A2,1230.0,0.375,71,160.47
6881,C3,1230.0,0.375,71,160.47
6882,F4,1230.25,0.25,93,160.47
6883,G#4,1230.5,0.25,80,160.47
6884,F2,1230.5,0.375,64,160.47
6885,A2,1230.5,0.375,64,160.47
6886,C3,1230.5,0.375,64,160.47
6887,A4,1230.75,0.25,80,160.47
6888,G#4,1231.0,0.25,81,160.47
6889,A4,1231.25,0.25,93,160.47
6890,B4,1231.5,0.25,83,160.47
6891,F2,1231.5,0.375,64,160.47
6892,A2,1231.5,0.375,64,160.47
6893,C3,1231.5,0.375,64,160.47
6894,C5,1231.75,0.25,83,160.47
6895,B4,1232.0,0.25,83,160.47
6896,F2,1232.0,0.375,71,160.47
6897,A2,1232.0,0.375,71,160.47
6898,C3,1232.0,0.375,71,160.47
6899,C5,1232.25,0.25,95,160.47
6900,E5,1232.5,0.25,84,160.47
6901,F2,1232.5,0.375,64,160.47
6902,A2,1232.5,0.375,64,160.47
6903,C3,1232.5,0.375,64,160.47
6904,F5,1232.75,0.25,84,160.47
6905,E5,1233.0,0.25,84,160.47
6906,F5,1233.25,0.25,95,160.47
6907,G#5,1233.5,0.25,82,160.47
6908,F2,1233.5,0.375,64,160.47
6909,A2,1233.5,0.375,64,160.47
6910,C3,1233.5,0.375,64,160.47
6911,A5,1233.75,0.25,82,160.47
6912,G#5,1234.0,0.25,82,160.47
6913,F2,1234.0,0.375,71,160.47
6914,A2,1234.0,0.375,71,160.47
6915,C3,1234.0,0.375,71,160.47
6916,A5,1234.25,0.25,95,160.47
6917,B5,1234.5,0.25,82,160.47
6918,F2,1234.5,0.375,64,160.47
6919,A2,1234.5,0.375,64,160.47
6920,C3,1234.5,0.375,64,160.47
6921,C6,1234.75,0.25,82,160.47
6922,B5,1235.0,0.25,82,160.47
6923,C6,1235.25,0.25,95,160.47
6924,B5,1235.5,0.25,82,160.47
6925,F2,1235.5,0.375,64,160.47
6926,A2,1235.5,0.375,64,160.47
6927,C3,1235.5,0.375,64,160.47
6928,A5,1235.75,0.25,83,160.47
6929,G#5,1236.0,0.25,83,160.47
6930,C3,1236.0,0.375,70,160.47
6931,F#2,1236.0,0.375,70,160.47
6932,A2,1236.0,0.375,70,160.47
6933,D3,1236.0,0.375,70,160.47
6934,A5,1236.25,0.25,95,160.47
6935,G#5,1236.5,0.25,83,160.47
6936,C3,1236.5,0.375,63,160.47
6937,F#2,1236.5,0.375,63,160.47
6938,A2,1236.5,0.375,63,160.47
6939,D3,1236.5,0.375,63,160.47
6940,A5,1236.75,0.25,83,160.47
6941,B5,1237.0,0.25,83,160.47
6942,C6,1237.25,0.25,95,160.47
6943,B5,1237.5,0.25,85,160.47
6944,C3,1237.5,0.375,63,160.47
6945,F#2,1237.5,0.375,63,160.47
6946,A2,1237.5,0.375,63,160.47
6947,D3,1237.5,0.375,63,160.47
6948,A5,1237.75,0.25,85,160.47
6949,G#5,1238.0,0.25,85,160.47
6950,C3,1238.0,0.375,70,160.47
6951,F#2,1238.0,0.375,70,160.47
6952,A2,1238.0,0.375,70,160.47
6953,D3,1238.0,0.375,70,160.47
6954,A5,1238.25,0.25,95,160.47
6955,G#5,1238.5,0.25,84,160.47
6956,C3,1238.5,0.375,63,160.47
6957,F#2,1238.5,0.375,63,160.47
6958,A2,1238.5,0.375,63,160.47
6959,D3,1238.5,0.375,63,160.47
6960,A5,1238.75,0.25,84,160.47
6961,B5,1239.0,0.25,84,160.47
6962,C6,1239.25,0.25,95,160.47
6963,B5,1239.5,0.25,84,160.47
6964,C3,1239.5,0.375,63,160.47
6965,F#2,1239.5,0.375,63,160.47
6966,A2,1239.5,0.375,63,160.47
6967,D3,1239.5,0.375,63,160.47
6968,A5,1239.75,0.25,84,160.47
6969,G#5,1240.0,0.25,84,160.47
6970,C3,1240.0,0.375,70,160.47
6971,F#2,1240.0,0.375,70,160.47
6972,A2,1240.0,0.375,70,160.47
6973,D3,1240.0,0.375,70,160.47
6974,A5,1240.25,0.25,95,160.47
6975,G#5,1240.5,0.25,84,160.47
6976,C3,1240.5,0.375,63,160.47
6977,F#2,1240.5,0.375,63,160.47
6978,A2,1240.5,0.375,63,160.47
6979,D3,1240.5,0.375,63,160.47
6980,A5,1240.75,0.25,84,160.47
6981,B5,1241.0,0.25,84,160.47
6982,C6,1241.25,0.25,95,160.47
6983,B5,1241.5,0.25,83,160.47
6984,C3,1241.5,0.375,63,160.47
6985,F#2,1241.5,0.375,63,160.47
6986,A2,1241.5,0.375,63,160.47
6987,D3,1241.5,0.375,63,160.47
6988,A5,1241.75,0.25,83,160.47
6989,G#5,1242.0,0.25,83,160.47
6990,C3,1242.0,0.375,70,160.47
6991,F#2,1242.0,0.375,70,160.47
6992,A2,1242.0,0.375,70,160.47
6993,D3,1242.0,0.375,70,160.47
6994,A5,1242.25,0.25,95,160.47
6995,G#5,1242.5,0.25,83,160.47
6996,C3,1242.5,0.375,63,160.47
6997,F#2,1242.5,0.375,63,160.47
6998,A2,1242.5,0.375,63,160.47
6999,D3,1242.5,0.375,63,160.47
7000,A5,1242.75,0.25,83,160.47
7001,B5,1243.0,0.25,83,160.47
7002,C6,1243.25,0.25,95,160.47
7003,B5,1243.5,0.25,84,160.47
7004,C3,1243.5,0.375,63,160.47
7005,F#2,1243.5,0.375,63,160.47
7006,A2,1243.5,0.375,63,160.47
7007,D3,1243.5,0.375,63,160.47
7008,C6,1243.75,0.25,84,160.47
7009,A5,1244.0,0.25,86,160.47
7010,G2,1244.0,0.25,78,160.47
7011,C3,1244.25,0.25,70,160.47
7012,G4,1244.25,0.25,95,160.47
7013,G5,1244.25,0.25,95,160.47
7014,E3,1244.5,0.25,70,160.47
7015,G3,1244.75,0.25,70,160.47
7016,G4,1244.75,0.25,80,160.47
7017,G5,1244.75,0.25,80,160.47
7018,G2,1245.0,0.25,77,160.47
7019,C3,1245.25,0.25,70,160.47
7020,E4,1245.25,0.25,81,160.47
7021,E5,1245.25,0.25,81,160.47
7022,E3,1245.5,0.25,70,160.47
7023,G3,1245.75,0.25,70,160.47
7024,C4,1245.75,0.25,80,160.47
7025,C5,1245.75,0.25,80,160.47
7026,G2,1246.0,0.25,75,160.47
7027,C3,1246.25,0.25,70,160.47
7028,C5,1246.25,0.25,95,160.47
7029,C6,1246.25,0.25,95,160.47
7030,E3,1246.5,0.25,70,160.47
7031,G3,1246.75,0.25,70,160.47
7032,C5,1246.75,0.25,80,160.47
7033,C6,1246.75,0.25,80,160.47
7034,G2,1247.0,0.25,75,160.47
7035,C3,1247.25,0.25,70,160.47
7036,G4,1247.25,0.25,80,160.47
7037,G5,1247.25,0.25,80,160.47
7038,E3,1247.5,0.25,70,160.47
7039,G3,1247.75,0.25,70,160.47
7040,E4,1247.75,0.25,80,160.47
7041,E5,1247.75,0.25,80,160.47
7042,G2,1248.0,0.25,78,160.47
7043,C3,1248.25,0.25,70,160.47
7044,G4,1248.25,0.25,95,160.47
7045,G5,1248.25,0.25,95,160.47
7046,E3,1248.5,0.25,70,160.47
7047,G3,1248.75,0.25,70,160.47
7048,G4,1248.75,0.25,80,160.47
7049,G5,1248.75,0.25,80,160.47
7050,G2,1249.0,0.25,77,160.47
7051,C3,1249.25,0.25,70,160.47
7052,E4,1249.25,0.25,81,160.47
7053,E5,1249.25,0.25,81,160.47
7054,E3,1249.5,0.25,70,160.47
7055,G3,1249.75,0.25,70,160.47
7056,C4,1249.75,0.25,80,160.47
7057,C5,1249.75,0.25,80,160.47
7058,E3,1250.0,0.25,75,160.47
7059,C5,1250.25,0.25,95,160.47
7060,C6,1250.25,0.25,95,160.47
7061,E3,1250.5,0.25,70,160.47
7062,C5,1250.75,0.25,80,160.47
7063,C6,1250.75,0.25,80,160.47
7064,C3,1251.0,0.25,75,160.47
7065,G4,1251.25,0.25,80,160.47
7066,G5,1251.25,0.25,80,160.47
7067,G2,1251.5,0.25,70,160.47
7068,E4,1251.75,0.25,80,160.47
7069,E5,1251.75,0.25,80,160.47
7070,G3,1252.0,0.25,86,160.47
7071,C6,1252.5,0.25,47,160.47
7072,E3,1252.5,0.25,47,160.47
7073,E6,1252.75,31/125,50,160.47
7074,C6,1253.0,0.25,47,160.47
7075,C4,1253.0,0.25,53,160.47
7076,G6,1253.25,31/125,51,160.47
7077,E6,1253.5,0.25,47,160.47
7078,G3,1253.5,0.25,48,160.47
7079,G6,1253.75,31/125,50,160.47
7080,E6,1254.0,0.25,47,160.47
7081,E4,1254.0,0.25,52,160.47
7082,G6,1254.25,31/125,51,160.47
7083,E6,1254.5,0.25,47,160.47
7084,C4,1254.5,0.25,41,160.47
7085,G6,1254.75,31/125,50,160.47
7086,E6,1255.0,0.25,47,160.47
7087,G4,1255.0,0.25,50,160.47
7088,G6,1255.25,31/125,52,160.47
7089,E6,1255.5,0.25,47,160.47
7090,E4,1255.5,0.25,41,160.47
7091,G6,1255.75,31/125,51,160.47
7092,E6,1256.0,0.25,47,160.47
7093,C5,1256.0,0.25,50,160.47
7094,G6,1256.25,31/125,50,160.47
7095,E6,1256.5,0.25,47,160.47
7096,G4,1256.5,0.25,41,160.47
7097,G6,1256.75,31/125,50,160.47
7098,E6,1257.0,0.25,47,160.47
7099,E5,1257.0,0.25,50,160.47
7100,G6,1257.25,31/125,51,160.47
7101,E6,1257.5,0.25,47,160.47
7102,C5,1257.5,0.25,39,160.47
7103,G6,1257.75,31/125,50,160.47
7104,E6,1258.0,0.25,47,160.47
7105,G5,1258.0,0.25,50,160.47
7106,G6,1258.25,31/125,51,160.47
7107,E6,1258.5,0.25,47,160.47
7108,E5,1258.5,0.25,41,160.47
7109,G6,1258.75,31/125,50,160.47
7110,E6,1259.0,0.25,47,160.47
7111,C6,1259.0,0.25,50,160.47
7112,G6,1259.25,31/125,52,160.47
7113,E6,1259.5,0.25,47,160.47
7114,G5,1259.5,0.25,42,160.47
7115,G6,1259.75,31/125,51,160.47
7116,E6,1260.0,0.25,47,160.47
7117,B5,1260.0,0.25,46,160.47
7118,F6,1260.5,0.25,42,160.47
7119,G5,1260.5,0.25,37,160.47
7120,G6,1260.75,0.375,45,160.47
7121,F6,1261.0,0.25,41,160.47
7122,B5,1261.0,0.25,43,160.47
7123,G#6,1261.25,0.375,44,160.47
7124,F6,1261.5,0.25,40,160.47
7125,G5,1261.5,0.25,36,160.47
7126,G6,1261.75,0.375,42,160.47
7127,F6,1262.0,0.25,39,160.47
7128,B5,1262.0,0.25,41,160.47
7129,G#6,1262.25,0.375,42,160.47
7130,F6,1262.5,0.25,38,160.47
7131,G5,1262.5,0.25,32,160.47
7132,G6,1262.75,0.375,40,160.47
7133,F6,1263.0,0.25,37,160.47
7134,B5,1263.0,0.25,39,160.47
7135,G#6,1263.25,0.375,40,160.47
7136,F6,1263.5,0.25,36,160.47
7137,G5,1263.5,0.25,31,160.47
7138,G6,1263.75,0.375,39,160.47
7139,F6,1264.0,0.25,35,160.47
7140,B5,1264.0,0.25,36,160.47
7141,G#6,1264.25,0.375,37,160.47
7142,F6,1264.5,0.25,34,160.47
7143,G5,1264.5,0.25,30,160.47
7144,G6,1264.75,0.375,36,160.47
7145,F6,1265.0,0.25,34,160.47
7146,B5,1265.0,0.25,36,160.47
7147,G#6,1265.25,0.375,37,160.47
7148,F6,1265.5,0.25,34,160.47
7149,G5,1265.5,0.25,31,160.47
7150,G6,1265.75,0.375,36,160.47
7151,F6,1266.0,0.25,34,160.47
7152,B5,1266.0,0.25,36,160.47
7153,G#6,1266.25,0.375,37,160.47
7154,F6,1266.5,0.25,34,160.47
7155,G5,1266.5,0.25,29,160.47
7156,G6,1266.75,0.375,36,160.47
7157,F6,1267.0,0.25,34,160.47
7158,B5,1267.0,0.25,36,160.47
7159,G#6,1267.25,0.375,38,160.47
7160,F6,1267.5,0.25,34,160.47
7161,G5,1267.5,0.25,30,160.47
7162,G6,1267.75,0.375,37,160.47
7163,F6,1268.0,0.25,34,160.47
7164,B5,1268.0,167/1000,37,160.47
7165,C6,1268.167,167/1000,32,160.47
7166,A6,1268.25,0.25,37,160.47
7167,B5,1268.333,167/1000,36,160.47
7168,F6,1268.5,0.25,34,160.47
7169,C6,1268.5,167/1000,31,160.47
7170,B5,1268.667,167/1000,36,160.47
7171,G6,1268.75,0.25,36,160.47
7172,C6,1268.833,167/1000,33,160.47
7173,F6,1269.0,0.25,35,160.47
7174,B5,1269.0,167/1000,37,160.47
7175,C6,1269.167,167/1000,33,160.47
7176,A6,1269.25,0.25,38,160.47
7177,B5,1269.333,167/1000,37,160.47
7178,F6,1269.5,0.25,36,160.47
7179,C6,1269.5,167/1000,33,160.47
7180,B5,1269.667,167/1000,38,160.47
7181,G6,1269.75,0.25,38,160.47
7182,C6,1269.833,167/1000,34,160.47
7183,F6,1270.0,0.25,36,160.47
7184,B5,1270.0,167/1000,38,160.47
7185,C6,1270.167,167/1000,35,160.47
7186,A6,1270.25,0.25,40,160.47
7187,B5,1270.333,167/1000,39,160.47
7188,F6,1270.5,0.25,37,160.47
7189,C6,1270.5,167/1000,35,160.47
7190,B5,1270.667,167/1000,39,160.47
7191,G6,1270.75,0.25,40,160.47
7192,C6,1270.833,167/1000,36,160.47
7193,F6,1271.0,0.25,38,160.47
7194,B5,1271.0,167/1000,40,160.47
7195,C6,1271.167,167/1000,36,160.47
7196,A6,1271.25,0.25,43,160.47
7197,B5,1271.333,167/1000,40,160.47
7198,F6,1271.5,0.25,39,160.47
7199,C6,1271.5,167/1000,36,160.47
7200,B5,1271.667,167/1000,41,160.47
7201,G6,1271.75,0.25,43,160.47
7202,C6,1271.833,167/1000,37,160.47
7203,F6,1272.0,0.25,40,160.47
7204,B5,1272.0,167/1000,41,160.47
7205,C6,1272.167,167/1000,36,160.47
7206,A6,1272.25,0.25,44,160.47
7207,B5,1272.333,167/1000,42,160.47
7208,C6,1272.5,167/1000,37,160.47
7209,B5,1272.667,167/1000,42,160.47
7210,F6,1272.75,0.25,43,160.47
7211,G6,1272.75,0.25,43,160.47
7212,C6,1272.833,167/1000,37,160.47
7213,B5,1273.0,167/1000,43,160.47
7214,C6,1273.167,167/1000,38,160.47
7215,F6,1273.25,0.25,46,160.47
7216,G6,1273.25,0.25,46,160.47
7217,B5,1273.333,167/1000,43,160.47
7218,C6,1273.5,167/1000,39,160.47
7219,B5,1273.667,167/1000,44,160.47
7220,F6,1273.75,0.25,46,160.47
7221,G6,1273.75,0.25,46,160.47
7222,C6,1273.833,167/1000,39,160.47
7223,B5,1274.0,167/1000,44,160.47
7224,C6,1274.167,167/1000,38,160.47
7225,F6,1274.25,0.25,49,160.47
7226,G6,1274.25,0.25,49,160.47
7227,B5,1274.333,167/1000,45,160.47
7228,C6,1274.5,167/1000,38,160.47
7229,B5,1274.667,167/1000,45,160.47
7230,F6,1274.75,0.25,49,160.47
7231,G6,1274.75,0.25,49,160.47
7232,C6,1274.833,167/1000,40,160.47
7233,B5,1275.0,1/5,50,160.47
7234,C6,1275.2,1/5,44,160.47
7235,F6,1275.25,0.25,54,160.47
7236,G6,1275.25,0.25,54,160.47
7237,B5,1275.4,1/5,50,160.47
7238,A5,1275.6,1/5,52,160.47
7239,F6,1275.75,0.25,53,160.47
7240,G6,1275.75,0.25,53,160.47
7241,B5,1275.8,1/5,47,160.47
7242,C4,1276.0,4.0,52,160.47
7243,C5,1276.0,2.0,62,160.47
7244,C6,1276.25,3.0,82,160.47
7245,E4,1278.0,2.0,40,160.47
7246,G4,1278.0,2.0,40,160.47
7247,B-4,1278.0,2.0,40,160.47
7248,C6,1279.25,0.25,58,160.47
7249,B-5,1279.5,0.25,57,160.47
7250,G#5,1279.75,0.25,56,160.47
7251,G5,1280.0,0.25,55,160.47
7252,C4,1280.0,4.0,52,160.47
7253,F4,1280.0,2.0,43,160.47
7254,G#4,1280.0,2.0,43,160.47
7255,G#5,1280.25,0.25,58,160.47
7256,G5,1280.5,0.25,57,160.47
7257,F5,1280.75,0.25,56,160.47
7258,E5,1281.0,0.25,55,160.47
7259,F5,1281.25,0.25,51,160.47
7260,G5,1281.5,0.25,52,160.47
7261,G#5,1281.75,0.25,53,160.47
7262,B-5,1282.0,0.25,54,160.47
7263,E4,1282.0,2.0,41,160.47
7264,G4,1282.0,2.0,41,160.47
7265,B-4,1282.0,2.0,41,160.47
7266,C6,1282.25,0.25,56,160.47
7267,C#6,1282.5,0.25,57,160.47
7268,C6,1282.75,0.25,57,160.47
7269,B5,1283.0,0.25,56,160.47
7270,C6,1283.25,0.25,56,160.47
7271,B-5,1283.5,0.25,56,160.47
7272,G#5,1283.75,0.25,56,160.47
7273,G5,1284.0,0.25,56,160.47
7274,G#4,1284.0,1.0,44,160.47
7275,F4,1284.0,1.0,44,160.47
7276,G#5,1284.25,0.25,57,160.47
7277,B-5,1284.5,0.25,57,160.47
7278,G#5,1284.75,0.25,57,160.47
7279,G5,1285.0,0.25,53,160.47
7280,F5,1285.25,0.25,56,160.47
7281,E5,1285.5,0.25,52,160.47
7282,F5,1285.75,0.25,56,160.47
7283,G5,1286.0,0.25,52,160.47
7284,F4,1286.0,2.0,41,160.47
7285,C#4,1286.0,2.0,41,160.47
7286,G#3,1286.0,2.0,41,160.47
7287,F3,1286.0,2.0,41,160.47
7288,G#4,1286.25,2.0,45,160.47
7289,G#5,1286.25,1.0,59,160.47
7290,F5,1287.25,0.5,52,160.47
7291,C#5,1287.75,0.5,52,160.47
7292,C4,1288.0,2.0,41,160.47
7293,G3,1288.0,2.0,41,160.47
7294,E-4,1288.0,2.0,41,160.47
7295,G4,1288.25,2.0,45,160.47
7296,G5,1288.25,1.0,57,160.47
7297,E-5,1289.25,0.5,52,160.47
7298,C5,1289.75,0.5,52,160.47
7299,G3,1290.0,2.0,39,160.47
7300,B3,1290.0,2.0,39,160.47
7301,D4,1290.0,2.0,39,160.47
7302,F4,1290.25,2.0,45,160.47
7303,F5,1290.25,1.0,57,160.47
7304,D5,1291.25,0.5,52,160.47
7305,B4,1291.75,0.5,52,160.47
7306,C4,1292.0,2.0,56,160.47
7307,C3,1292.0,4.0,45,160.47
7308,C5,1292.25,3.0,72,160.47
7309,E3,1294.0,2.0,40,160.47
7310,G3,1294.0,2.0,40,160.47
7311,B-3,1294.0,2.0,40,160.47
7312,C5,1295.25,0.25,58,160.47
7313,B-4,1295.5,0.25,57,160.47
7314,A4,1295.75,0.25,56,160.47
7315,G4,1296.0,0.25,55,160.47
7316,C3,1296.0,4.0,45,160.47
7317,F3,1296.0,2.0,43,160.47
7318,A3,1296.0,2.0,43,160.47
7319,A4,1296.25,0.25,58,160.47
7320,G4,1296.5,0.25,57,160.47
7321,F4,1296.75,0.25,56,160.47
7322,E4,1297.0,0.25,55,160.47
7323,F4,1297.25,0.25,51,160.47
7324,G4,1297.5,0.25,52,160.47
7325,A4,1297.75,0.25,53,160.47
7326,B-4,1298.0,0.25,54,160.47
7327,G3,1298.0,2.0,41,160.47
7328,B-3,1298.0,2.0,41,160.47
7329,E3,1298.0,2.0,41,160.47
7330,C5,1298.25,0.25,56,160.47
7331,D5,1298.5,0.25,57,160.47
7332,C5,1298.75,0.25,57,160.47
7333,B4,1299.0,0.25,56,160.47
7334,C5,1299.25,0.25,56,160.47
7335,B-4,1299.5,0.25,56,160.47
7336,A4,1299.75,0.25,56,160.47
7337,G4,1300.0,0.25,56,160.47
7338,F3,1300.0,1.0,48,160.47
7339,A3,1300.0,1.0,48,160.47
7340,A4,1300.25,0.25,57,160.47
7341,B-4,1300.5,0.25,57,160.47
7342,A4,1300.75,0.25,57,160.47
7343,G4,1301.0,0.25,53,160.47
7344,F4,1301.25,0.25,56,160.47
7345,E4,1301.5,0.25,52,160.47
7346,F4,1301.75,0.25,56,160.47
7347,G4,1302.0,0.25,52,160.47
7348,F2,1302.0,2.0,42,160.47
7349,D3,1302.0,2.0,42,160.47
7350,A2,1302.0,2.0,42,160.47
7351,A3,1302.25,2.0,45,160.47
7352,A4,1302.25,1.0,59,160.47
7353,F4,1303.25,0.5,52,160.47
7354,D4,1303.75,0.5,52,160.47
7355,G2,1304.0,4.0,39,160.47
7356,C3,1304.0,2.0,42,160.47
7357,E3,1304.0,2.0,42,160.47
7358,G3,1304.25,4.0,45,160.47
7359,G4,1304.25,1.0,57,160.47
7360,E4,1305.25,0.5,52,160.47
7361,C4,1305.75,0.5,52,160.47
7362,D3,1306.0,2.0,40,160.47
7363,F3,1306.0,2.0,40,160.47
7364,F4,1306.25,1.0,57,160.47
7365,D4,1307.25,0.5,52,160.47
7366,B3,1307.75,0.5,52,160.47
7367,C3,1308.0,1.0,40,160.47
7368,E3,1308.0,1.0,40,160.47
7369,G3,1308.25,1.0,53,160.47
7370,C4,1308.25,1.0,53,160.47
7371,C3,1309.0,1.5,51,160.47
7372,E2,1309.0,1.0,42,160.47
7373,C5,1309.25,0.5,68,160.47
7374,B4,1309.75,0.5,64,160.47
7375,F2,1310.0,2.0,42,160.47
7376,A4,1310.25,1.0,66,160.47
7377,D3,1310.5,0.5,49,160.47
7378,E3,1311.0,0.5,51,160.47
7379,F4,1311.25,0.5,61,160.47
7380,F3,1311.5,0.5,55,160.47
7381,D4,1311.75,0.5,54,160.47
7382,G2,1312.0,4.0,35,160.47
7383,E3,1312.0,2.0,38,160.47
7384,G3,1312.0,2.0,38,160.47
7385,G4,1312.25,1.0,51,160.47
7386,E4,1313.25,0.5,46,160.47
7387,C4,1313.75,0.5,46,160.47
7388,D3,1314.0,2.0,36,160.47
7389,F3,1314.0,2.0,36,160.47
7390,F4,1314.25,1.0,51,160.47
7391,D4,1315.25,0.5,46,160.47
7392,B3,1315.75,0.5,46,160.47
7393,E3,1316.0,1.0,40,160.47
7394,C3,1316.0,1.0,40,160.47
7395,C4,1316.25,1.0,55,160.47
7396,A2,1317.0,1.0,42,160.47
7397,F3,1317.0,1.5,51,160.47
7398,F5,1317.25,0.5,68,160.47
7399,E5,1317.75,0.5,64,160.47
7400,B-2,1318.0,2.0,42,160.47
7401,D5,1318.25,1.0,66,160.47
7402,G3,1318.5,0.5,49,160.47
7403,A3,1319.0,0.5,51,160.47
7404,B-4,1319.25,0.5,61,160.47
7405,B-3,1319.5,0.5,55,160.47
7406,G4,1319.75,0.5,54,160.47
7407,C3,1320.0,4.0,35,160.47
7408,C4,1320.0,2.0,38,160.47
7409,A3,1320.0,2.0,38,160.47
7410,C5,1320.25,1.0,51,160.47
7411,A4,1321.25,0.5,46,160.47
7412,F4,1321.75,0.5,46,160.47
7413,G3,1322.0,2.0,36,160.47
7414,B-3,1322.0,2.0,36,160.47
7415,B-4,1322.25,1.0,51,160.47
7416,G4,1323.25,0.5,46,160.47
7417,E4,1323.75,0.5,46,160.47
7418,G#3,1324.0,1.0,40,160.47
7419,F3,1324.0,1.0,40,160.47
7420,F4,1324.25,1.0,55,160.47
7421,G#2,1325.0,1.0,42,160.47
7422,F3,1325.0,1.5,51,160.47
7423,F5,1325.25,0.5,67,160.47
7424,E-5,1325.75,0.5,63,160.47
7425,B-2,1326.0,2.0,42,160.47
7426,C#5,1326.25,1.0,66,160.47
7427,G3,1326.5,0.5,49,160.47
7428,G#3,1327.0,0.5,51,160.47
7429,B-4,1327.25,0.5,61,160.47
7430,B-3,1327.5,0.5,55,160.47
7431,G4,1327.75,0.5,54,160.47
7432,C3,1328.0,4.0,35,160.47
7433,C4,1328.0,2.0,38,160.47
7434,G#3,1328.0,2.0,38,160.47
7435,C5,1328.25,1.0,51,160.47
7436,G#4,1329.25,0.5,46,160.47
7437,F4,1329.75,0.5,46,160.47
7438,G3,1330.0,2.0,36,160.47
7439,B-3,1330.0,2.0,36,160.47
7440,B-4,1330.25,1.0,51,160.47
7441,G4,1331.25,0.5,46,160.47
7442,E4,1331.75,0.5,46,160.47
7443,C#3,1332.0,0.25,26,160.47
7444,G#3,1332.0,0.25,26,160.47
7445,F3,1332.0,0.25,26,160.47
7446,F4,1332.25,0.5,40,160.47
7447,C#2,1332.5,0.25,24,160.47
7448,G#2,1332.5,0.25,24,160.47
7449,C#3,1332.75,0.25,30,160.47
7450,F3,1332.75,0.25,30,160.47
7451,G#2,1333.0,0.25,24,160.47
7452,C#2,1333.0,0.25,24,160.47
7453,C#3,1333.25,0.25,30,160.47
7454,F3,1333.25,0.25,30,160.47
7455,G#2,1333.5,0.25,24,160.47
7456,C#2,1333.5,0.25,24,160.47
7457,C#3,1333.75,0.25,31,160.47
7458,F3,1333.75,0.25,31,160.47
7459,C#2,1334.0,0.25,24,160.47
7460,G#2,1334.0,0.25,24,160.47
7461,C#3,1334.25,0.25,31,160.47
7462,F3,1334.25,0.25,31,160.47
7463,G#2,1334.5,0.25,26,160.47
7464,C#2,1334.5,0.25,26,160.47
7465,C#3,1334.75,0.25,31,160.47
7466,F3,1334.75,0.25,31,160.47
7467,G#2,1335.0,0.25,26,160.47
7468,C#2,1335.0,0.25,26,160.47
7469,C#3,1335.25,0.25,32,160.47
7470,F3,1335.25,0.25,32,160.47
7471,C#2,1335.5,0.25,26,160.47
7472,G#2,1335.5,0.25,26,160.47
7473,C#3,1335.75,0.25,32,160.47
7474,F3,1335.75,0.25,32,160.47
7475,C#2,1336.0,0.25,28,160.47
7476,G#2,1336.0,0.25,28,160.47
7477,C#3,1336.25,0.25,33,160.47
7478,F3,1336.25,0.25,33,160.47
7479,G#2,1336.5,0.25,24,160.47
7480,C#2,1336.5,0.25,24,160.47
7481,C#3,1336.75,0.25,33,160.47
7482,F3,1336.75,0.25,33,160.47
7483,C#2,1337.0,0.25,26,160.47
7484,G#2,1337.0,0.25,26,160.47
7485,C#3,1337.25,0.25,34,160.47
7486,F3,1337.25,0.25,34,160.47
7487,G#2,1337.5,0.25,26,160.47
7488,C#2,1337.5,0.25,26,160.47
7489,C#3,1337.75,0.25,35,160.47
7490,F3,1337.75,0.25,35,160.47
7491,C#2,1338.0,0.25,28,160.47
7492,G#2,1338.0,0.25,28,160.47
7493,C#3,1338.25,0.25,36,160.47
7494,F3,1338.25,0.25,36,160.47
7495,C#2,1338.5,0.25,28,160.47
7496,G#2,1338.5,0.25,28,160.47
7497,C#3,1338.75,0.25,37,160.47
7498,F3,1338.75,0.25,37,160.47
7499,C#2,1339.0,0.25,28,160.47
7500,B-2,1339.0,0.25,28,160.47
7501,E-3,1339.25,0.25,37,160.47
7502,G3,1339.25,0.25,37,160.47
7503,C#2,1339.5,0.25,28,160.47
7504,B-2,1339.5,0.25,28,160.47
7505,E-3,1339.75,0.25,37,160.47
7506,G3,1339.75,0.25,37,160.47
7507,C2,1340.0,0.375,27,160.47
7508,G#2,1340.0,0.375,27,160.47
7509,E-2,1340.0,0.375,27,160.47
7510,G#3,1340.25,1.5,46,160.47
7511,C2,1340.5,0.375,27,160.47
7512,E-2,1340.5,0.375,27,160.47
7513,G#2,1340.5,0.375,27,160.47
7514,C2,1341.0,0.375,27,160.47
7515,E-2,1341.0,0.375,27,160.47
7516,G#2,1341.0,0.375,27,160.47
7517,C2,1341.5,0.375,27,160.47
7518,E-2,1341.5,0.375,27,160.47
7519,G#2,1341.5,0.375,27,160.47
7520,C4,1341.75,0.25,40,160.47
7521,B-3,1342.0,0.25,40,160.47
7522,C2,1342.0,0.375,27,160.47
7523,E-2,1342.0,0.375,27,160.47
7524,G#2,1342.0,0.375,27,160.47
7525,G#3,1342.25,0.25,45,160.47
7526,G#2,1342.5,0.375,27,160.47
7527,E-2,1342.5,0.375,27,160.47
7528,C2,1342.5,0.375,27,160.47
7529,C2,1343.0,0.375,27,160.47
7530,E-2,1343.0,0.375,27,160.47
7531,G#2,1343.0,0.375,27,160.47
7532,C2,1343.5,0.375,27,160.47
7533,E-2,1343.5,0.375,27,160.47
7534,G#2,1343.5,0.375,27,160.47
7535,F2,1344.0,0.375,40,160.47
7536,E-2,1344.0,0.375,40,160.47
7537,C2,1344.0,0.375,40,160.47
7538,A2,1344.0,0.375,40,160.47
7539,D6,1344.125,0.125,72,160.47
7540,E-6,1344.25,1.25,89,160.47
7541,E-2,1344.5,0.375,40,160.47
7542,C2,1344.5,0.375,40,160.47
7543,A2,1344.5,0.375,40,160.47
7544,F2,1344.5,0.375,40,160.47
7545,E-2,1345.0,0.375,40,160.47
7546,C2,1345.0,0.375,40,160.47
7547,F2,1345.0,0.375,40,160.47
7548,A2,1345.0,0.375,40,160.47
7549,C#6,1345.5,0.25,75,160.47
7550,F2,1345.5,0.375,40,160.47
7551,E-2,1345.5,0.375,40,160.47
7552,C2,1345.5,0.375,40,160.47
7553,A2,1345.5,0.375,40,160.47
7554,C6,1345.75,0.25,73,160.47
7555,B-5,1346.0,0.25,70,160.47
7556,F2,1346.0,0.375,40,160.47
7557,A2,1346.0,0.375,40,160.47
7558,C2,1346.0,0.375,40,160.47
7559,E-2,1346.0,0.375,40,160.47
7560,A5,1346.25,0.5,69,160.47
7561,C2,1346.5,0.375,39,160.47
7562,E-2,1346.5,0.375,39,160.47
7563,F2,1346.5,0.375,39,160.47
7564,A2,1346.5,0.375,39,160.47
7565,F2,1347.0,0.375,39,160.47
7566,E-2,1347.0,0.375,39,160.47
7567,C2,1347.0,0.375,39,160.47
7568,A2,1347.0,0.375,39,160.47
7569,F2,1347.5,0.375,39,160.47
7570,A2,1347.5,0.375,39,160.47
7571,E-2,1347.5,0.375,39,160.47
7572,C2,1347.5,0.375,39,160.47
7573,F2,1348.0,0.375,27,160.47
7574,C#2,1348.0,0.375,27,160.47
7575,B-2,1348.0,0.375,27,160.47
7576,B-3,1348.25,1.5,46,160.47
7577,F2,1348.5,0.375,27,160.47
7578,C#2,1348.5,0.375,27,160.47
7579,B-2,1348.5,0.375,27,160.47
7580,F2,1349.0,0.375,27,160.47
7581,C#2,1349.0,0.375,27,160.47
7582,B-2,1349.0,0.375,27,160.47
7583,F2,1349.5,0.375,27,160.47
7584,C#2,1349.5,0.375,27,160.47
7585,B-2,1349.5,0.375,27,160.47
7586,C#4,1349.75,0.25,40,160.47
7587,C4,1350.0,0.25,40,160.47
7588,B-2,1350.0,0.375,27,160.47
7589,F2,1350.0,0.375,27,160.47
7590,C#2,1350.0,0.375,27,160.47
7591,B-3,1350.25,0.25,45,160.47
7592,C#2,1350.5,0.375,27,160.47
7593,B-2,1350.5,0.375,27,160.47
7594,F2,1350.5,0.375,27,160.47
7595,C#2,1351.0,0.375,27,160.47
7596,B-2,1351.0,0.375,27,160.47
7597,F2,1351.0,0.375,27,160.47
7598,C#2,1351.5,0.375,27,160.47
7599,B-2,1351.5,0.375,27,160.47
7600,F2,1351.5,0.375,27,160.47
7601,B2,1352.0,0.375,41,160.47
7602,F2,1352.0,0.375,41,160.47
7603,D2,1352.0,0.375,41,160.47
7604,E6,1352.125,0.125,72,160.47
7605,F6,1352.25,1.25,89,160.47
7606,F2,1352.5,0.375,41,160.47
7607,D2,1352.5,0.375,41,160.47
7608,B2,1352.5,0.375,41,160.47
7609,F2,1353.0,0.375,41,160.47
7610,D2,1353.0,0.375,41,160.47
7611,B2,1353.0,0.375,41,160.47
7612,E-6,1353.5,0.25,75,160.47
7613,F2,1353.5,0.375,41,160.47
7614,D2,1353.5,0.375,41,160.47
7615,B2,1353.5,0.375,41,160.47
7616,D6,1353.75,0.25,73,160.47
7617,C6,1354.0,0.25,70,160.47
7618,F2,1354.0,0.375,40,160.47
7619,D2,1354.0,0.375,40,160.47
7620,B2,1354.0,0.375,40,160.47
7621,B5,1354.25,0.5,69,160.47
7622,B2,1354.5,0.375,40,160.47
7623,F2,1354.5,0.375,40,160.47
7624,D2,1354.5,0.375,40,160.47
7625,F2,1355.0,0.375,40,160.47
7626,B2,1355.0,0.375,40,160.47
7627,D2,1355.0,0.375,40,160.47
7628,D2,1355.5,0.375,40,160.47
7629,F2,1355.5,0.375,40,160.47
7630,B2,1355.5,0.375,40,160.47
7631,G2,1356.0,0.375,40,160.47
7632,E-2,1356.0,0.375,40,160.47
7633,B2,1356.0,0.375,40,160.47
7634,C4,1356.25,0.5,82,160.47
7635,G2,1356.5,0.375,40,160.47
7636,E-2,1356.5,0.375,40,160.47
7637,B2,1356.5,0.375,40,160.47
7638,E-4,1356.75,0.25,70,160.47
7639,D4,1357.0,0.25,70,160.47
7640,G2,1357.0,0.375,40,160.47
7641,E-2,1357.0,0.375,40,160.47
7642,C3,1357.0,0.375,40,160.47
7643,C4,1357.25,0.5,74,160.47
7644,E-2,1357.5,0.375,40,160.47
7645,C3,1357.5,0.375,40,160.47
7646,G2,1357.5,0.375,40,160.47
7647,F2,1358.0,0.375,40,160.47
7648,C3,1358.0,0.375,40,160.47
7649,G#2,1358.0,0.375,40,160.47
7650,G#5,1358.25,0.25,78,160.47
7651,G5,1358.5,0.25,75,160.47
7652,F2,1358.5,0.375,41,160.47
7653,C3,1358.5,0.375,41,160.47
7654,G#2,1358.5,0.375,41,160.47
7655,F5,1358.75,0.25,73,160.47
7656,E-5,1359.0,0.25,70,160.47
7657,G#2,1359.0,0.375,41,160.47
7658,F2,1359.0,0.375,41,160.47
7659,D3,1359.0,0.375,41,160.47
7660,D5,1359.25,0.5,74,160.47
7661,D3,1359.5,0.375,41,160.47
7662,F2,1359.5,0.375,41,160.47
7663,G#2,1359.5,0.375,41,160.47
7664,G2,1360.0,0.375,41,160.47
7665,B-2,1360.0,0.375,41,160.47
7666,D3,1360.0,0.375,41,160.47
7667,E4,1360.25,0.5,82,160.47
7668,G2,1360.5,0.375,41,160.47
7669,B-2,1360.5,0.375,41,160.47
7670,D3,1360.5,0.375,41,160.47
7671,G4,1360.75,0.25,70,160.47
7672,F4,1361.0,0.25,70,160.47
7673,G2,1361.0,0.375,42,160.47
7674,B-2,1361.0,0.375,42,160.47
7675,E3,1361.0,0.375,42,160.47
7676,E4,1361.25,0.5,74,160.47
7677,B-2,1361.5,0.375,42,160.47
7678,G2,1361.5,0.375,42,160.47
7679,E3,1361.5,0.375,42,160.47
7680,G#2,1362.0,0.375,42,160.47
7681,E3,1362.0,0.375,42,160.47
7682,C3,1362.0,0.375,42,160.47
7683,C6,1362.25,0.25,78,160.47
7684,B-5,1362.5,0.25,75,160.47
7685,G#2,1362.5,0.375,42,160.47
7686,E3,1362.5,0.375,42,160.47
7687,C3,1362.5,0.375,42,160.47
7688,G#5,1362.75,0.25,73,160.47
7689,G5,1363.0,0.25,70,160.47
7690,G#2,1363.0,0.375,43,160.47
7691,F3,1363.0,0.375,43,160.47
7692,C3,1363.0,0.375,43,160.47
7693,F5,1363.25,0.5,74,160.47
7694,C3,1363.5,0.375,43,160.47
7695,G#2,1363.5,0.375,43,160.47
7696,F3,1363.5,0.375,43,160.47
7697,F#3,1364.0,0.375,45,160.47
7698,A2,1364.0,0.375,45,160.47
7699,C3,1364.0,0.375,45,160.47
7700,E-6,1364.25,0.25,90,160.47
7701,D6,1364.5,0.25,86,160.47
7702,F#3,1364.5,0.375,45,160.47
7703,A2,1364.5,0.375,45,160.47
7704,C3,1364.5,0.375,45,160.47
7705,C6,1364.75,0.25,84,160.47
7706,B5,1365.0,0.25,80,160.47
7707,C3,1365.0,0.375,45,160.47
7708,A2,1365.0,0.375,45,160.47
7709,F#3,1365.0,0.375,45,160.47
7710,C6,1365.25,0.5,85,160.47
7711,C3,1365.5,0.375,45,160.47
7712,A2,1365.5,0.375,45,160.47
7713,F#3,1365.5,0.375,45,160.47
7714,F#3,1366.0,0.375,45,160.47
7715,C3,1366.0,0.375,45,160.47
7716,A2,1366.0,0.375,45,160.47
7717,E-5,1366.25,0.25,90,160.47
7718,D5,1366.5,0.25,86,160.47
7719,C3,1366.5,0.375,45,160.47
7720,A2,1366.5,0.375,45,160.47
7721,F#3,1366.5,0.375,45,160.47
7722,C5,1366.75,0.25,84,160.47
7723,B4,1367.0,0.25,80,160.47
7724,C3,1367.0,0.375,45,160.47
7725,A2,1367.0,0.375,45,160.47
7726,F#3,1367.0,0.375,45,160.47
7727,C5,1367.25,0.5,85,160.47
7728,C3,1367.5,0.375,45,160.47
7729,A2,1367.5,0.375,45,160.47
7730,F#3,1367.5,0.375,45,160.47
7731,C3,1368.0,0.375,45,160.47
7732,F#3,1368.0,0.375,45,160.47
7733,G#2,1368.0,0.375,45,160.47
7734,E-4,1368.25,0.25,90,160.47
7735,D4,1368.5,0.25,86,160.47
7736,F#3,1368.5,0.375,45,160.47
7737,G#2,1368.5,0.375,45,160.47
7738,C3,1368.5,0.375,45,160.47
7739,C4,1368.75,0.25,84,160.47
7740,B3,1369.0,0.25,80,160.47
7741,C3,1369.0,0.375,45,160.47
7742,G#2,1369.0,0.375,45,160.47
7743,F#3,1369.0,0.375,45,160.47
7744,C4,1369.25,0.5,85,160.47
7745,C3,1369.5,0.375,45,160.47
7746,G#2,1369.5,0.375,45,160.47
7747,F#3,1369.5,0.375,45,160.47
7748,C3,1370.0,0.375,45,160.47
7749,G#2,1370.0,0.375,45,160.47
7750,E-3,1370.0,0.375,45,160.47
7751,E-5,1370.25,0.25,90,160.47
7752,D5,1370.5,0.25,86,160.47
7753,E-3,1370.5,0.375,45,160.47
7754,C3,1370.5,0.375,45,160.47
7755,G#2,1370.5,0.375,45,160.47
7756,C5,1370.75,0.25,84,160.47
7757,B4,1371.0,0.25,80,160.47
7758,G#2,1371.0,0.375,46,160.47
7759,C3,1371.0,0.375,46,160.47
7760,C5,1371.25,0.25,85,160.47
7761,D5,1371.5,0.25,85,160.47
7762,C3,1371.5,0.375,46,160.47
7763,G#2,1371.5,0.375,46,160.47
7764,E-5,1371.75,0.25,85,160.47
7765,F#5,1372.0,0.25,85,160.47
7766,G2,1372.0,229/500,46,160.47
7767,B2,1372.0,229/500,46,160.47
7768,G5,1372.25,229/500,85,160.47
7769,G4,1372.75,229/500,42,160.47
7770,G5,1372.75,229/500,42,160.47
7771,G4,1373.25,229/500,42,160.47
7772,G5,1373.25,229/500,42,160.47
7773,G4,1373.75,229/500,42,160.47
7774,G5,1373.75,229/500,42,160.47
7775,G4,1374.25,229/500,42,160.47
7776,G5,1374.25,229/500,42,160.47
7777,G4,1374.75,229/500,42,160.47
7778,G5,1374.75,229/500,42,160.47
7779,G4,1375.25,229/500,42,160.47
7780,G5,1375.25,229/500,42,160.47
7781,G4,1375.75,229/500,42,160.47
7782,G5,1375.75,229/500,42,160.47
7783,G4,1376.25,229/500,39,160.47
7784,B-4,1376.25,229/500,39,160.47
7785,C#5,1376.25,229/500,39,160.47
7786,G5,1376.25,229/500,39,160.47
7787,G4,1376.75,229/500,41,160.47
7788,B-4,1376.75,229/500,41,160.47
7789,C#5,1376.75,229/500,41,160.47
7790,G5,1376.75,229/500,41,160.47
7791,G4,1377.25,229/500,43,160.47
7792,B-4,1377.25,229/500,43,160.47
7793,C#5,1377.25,229/500,43,160.47
7794,G5,1377.25,229/500,43,160.47
7795,G4,1377.75,229/500,45,160.47
7796,B-4,1377.75,229/500,45,160.47
7797,C#5,1377.75,229/500,45,160.47
7798,G5,1377.75,229/500,45,160.47
7799,G4,1378.25,229/500,47,160.47
7800,B-4,1378.25,229/500,47,160.47
7801,C#5,1378.25,229/500,47,160.47
7802,G5,1378.25,229/500,47,160.47
7803,G4,1378.75,229/500,48,160.47
7804,B-4,1378.75,229/500,48,160.47
7805,C#5,1378.75,229/500,48,160.47
7806,G5,1378.75,229/500,48,160.47
7807,G4,1379.25,229/500,52,160.47
7808,B-4,1379.25,229/500,52,160.47
7809,C#5,1379.25,229/500,52,160.47
7810,G5,1379.25,229/500,52,160.47
7811,G4,1379.75,229/500,54,160.47
7812,B-4,1379.75,229/500,54,160.47
7813,C#5,1379.75,229/500,54,160.47
7814,G5,1379.75,229/500,54,160.47
7815,B2,1380.0,0.375,32,160.47
7816,D3,1380.0,0.375,32,160.47
7817,G4,1380.25,0.5,43,160.47
7818,B4,1380.25,0.5,43,160.47
7819,D5,1380.25,0.5,43,160.47
7820,G5,1380.25,0.5,43,160.47
7821,D3,1380.5,0.375,32,160.47
7822,B2,1380.5,0.375,32,160.47
7823,G6,1380.75,1.0,54,160.47
7824,G5,1380.75,1.0,54,160.47
7825,D3,1381.0,0.375,32,160.47
7826,B2,1381.0,0.375,32,160.47
7827,B2,1381.5,0.375,32,160.47
7828,D3,1381.5,0.375,32,160.47
7829,F6,1381.75,1.0,53,160.47
7830,F5,1381.75,1.0,53,160.47
7831,B2,1382.0,0.375,32,160.47
7832,D3,1382.0,0.375,32,160.47
7833,D3,1382.5,0.375,32,160.47
7834,B2,1382.5,0.375,32,160.47
7835,E6,1382.75,1.0,50,160.47
7836,E5,1382.75,1.0,50,160.47
7837,B2,1383.0,0.375,32,160.47
7838,D3,1383.0,0.375,32,160.47
7839,B2,1383.5,0.375,32,160.47
7840,D3,1383.5,0.375,32,160.47
7841,D6,1383.75,0.5,49,160.47
7842,D5,1383.75,0.5,49,160.47
7843,B2,1384.0,0.375,32,160.47
7844,D3,1384.0,0.375,32,160.47
7845,B2,1384.5,0.375,32,160.47
7846,D3,1384.5,0.375,32,160.47
7847,D6,1384.75,0.5,49,160.47
7848,D5,1384.75,0.5,49,160.47
7849,B2,1385.0,0.375,32,160.47
7850,D3,1385.0,0.375,32,160.47
7851,C6,1385.25,1.0,48,160.47
7852,C5,1385.25,1.0,48,160.47
7853,B2,1385.5,0.375,32,160.47
7854,D3,1385.5,0.375,32,160.47
7855,D3,1386.0,0.375,32,160.47
7856,B2,1386.0,0.375,32,160.47
7857,B5,1386.25,1.0,46,160.47
7858,B4,1386.25,1.0,46,160.47
7859,B2,1386.5,0.375,32,160.47
7860,D3,1386.5,0.375,32,160.47
7861,E3,1387.0,0.375,32,160.47
7862,C#3,1387.0,0.375,32,160.47
7863,A5,1387.25,1.0,45,160.47
7864,A4,1387.25,1.0,45,160.47
7865,C#3,1387.5,0.375,32,160.47
7866,E3,1387.5,0.375,32,160.47
7867,F3,1388.0,1.5,42,160.47
7868,D3,1388.0,2.5,42,160.47
7869,G5,1388.25,0.5,43,160.47
7870,G4,1388.25,0.5,43,160.47
7871,F4,1388.75,0.25,42,160.47
7872,F5,1388.75,0.25,42,160.47
7873,D4,1389.0,0.25,37,160.47
7874,E4,1389.25,0.25,39,160.47
7875,F4,1389.5,0.25,40,160.47
7876,A3,1389.5,0.25,40,160.47
7877,G4,1389.75,0.25,42,160.47
7878,G3,1389.75,0.25,40,160.47
7879,A4,1390.0,0.25,44,160.47
7880,F3,1390.0,0.5,45,160.47
7881,B4,1390.25,0.25,45,160.47
7882,C#5,1390.5,0.25,47,160.47
7883,D5,1390.75,0.25,48,160.47
7884,F4,1391.0,0.25,42,160.47
7885,G4,1391.25,0.25,43,160.47
7886,A4,1391.5,0.25,45,160.47
7887,B4,1391.75,0.25,46,160.47
7888,C#5,1392.0,0.25,48,160.47
7889,A4,1392.0,1.25,46,160.47
7890,D5,1392.25,0.25,49,160.47
7891,E5,1392.5,0.25,50,160.47
7892,F5,1392.75,0.25,52,160.47
7893,D5,1393.0,0.25,46,160.47
7894,E5,1393.25,0.25,46,160.47
7895,G4,1393.25,0.25,40,160.47
7896,F5,1393.5,0.25,47,160.47
7897,F4,1393.5,0.25,40,160.47
7898,G5,1393.75,0.25,48,160.47
7899,E4,1393.75,0.25,40,160.47
7900,A5,1394.0,0.25,49,160.47
7901,D4,1394.0,0.5,45,160.47
7902,B5,1394.25,0.25,50,160.47
7903,C#6,1394.5,0.25,51,160.47
7904,D6,1394.75,0.25,52,160.47
7905,C#6,1395.0,0.25,46,160.47
7906,D6,1395.25,0.25,47,160.47
7907,E6,1395.5,0.25,48,160.47
7908,F6,1395.75,0.25,49,160.47
7909,C#6,1396.0,0.25,51,160.47
7910,A2,1396.0,0.375,32,160.47
7911,C3,1396.0,0.375,32,160.47
7912,D6,1396.25,0.25,52,160.47
7913,E6,1396.5,0.25,53,160.47
7914,A2,1396.5,0.375,32,160.47
7915,C3,1396.5,0.375,32,160.47
7916,F6,1396.75,0.5,49,160.47
7917,C3,1397.0,0.375,32,160.47
7918,A2,1397.0,0.375,32,160.47
7919,F6,1397.25,1.0,54,160.47
7920,F5,1397.25,1.0,54,160.47
7921,A2,1397.5,0.375,32,160.47
7922,C3,1397.5,0.375,32,160.47
7923,A2,1398.0,0.375,32,160.47
7924,C3,1398.0,0.375,32,160.47
7925,E6,1398.25,1.0,53,160.47
7926,E5,1398.25,1.0,53,160.47
7927,C3,1398.5,0.375,32,160.47
7928,A2,1398.5,0.375,32,160.47
7929,A2,1399.0,0.375,32,160.47
7930,C3,1399.0,0.375,32,160.47
7931,D6,1399.25,1.0,50,160.47
7932,D5,1399.25,1.0,50,160.47
7933,A2,1399.5,0.375,32,160.47
7934,C3,1399.5,0.375,32,160.47
7935,C3,1400.0,0.375,32,160.47
7936,A2,1400.0,0.375,32,160.47
7937,C6,1400.25,0.5,49,160.47
7938,C5,1400.25,0.5,49,160.47
7939,A2,1400.5,0.375,32,160.47
7940,C3,1400.5,0.375,32,160.47
7941,A2,1401.0,0.375,32,160.47
7942,C3,1401.0,0.375,32,160.47
7943,C6,1401.25,0.5,49,160.47
7944,C5,1401.25,0.5,49,160.47
7945,C3,1401.5,0.375,32,160.47
7946,A2,1401.5,0.375,32,160.47
7947,B5,1401.75,1.0,48,160.47
7948,B4,1401.75,1.0,48,160.47
7949,A2,1402.0,0.375,32,160.47
7950,C3,1402.0,0.375,32,160.47
7951,C3,1402.5,0.375,32,160.47
7952,A2,1402.5,0.375,32,160.47
7953,A5,1402.75,1.0,46,160.47
7954,A4,1402.75,1.0,46,160.47
7955,B2,1403.0,0.375,32,160.47
7956,D3,1403.0,0.375,32,160.47
7957,B2,1403.5,0.375,32,160.47
7958,D3,1403.5,0.375,32,160.47
7959,G5,1403.75,1.0,45,160.47
7960,G4,1403.75,1.0,45,160.47
7961,E3,1404.0,1.5,42,160.47
7962,C3,1404.0,2.5,42,160.47
7963,F5,1404.75,0.5,43,160.47
7964,F4,1404.75,0.5,43,160.47
7965,E4,1405.25,0.25,42,160.47
7966,E5,1405.25,0.25,42,160.47
7967,E4,1405.5,0.25,37,160.47
7968,G3,1405.5,0.25,40,160.47
7969,F4,1405.75,0.25,39,160.47
7970,F3,1405.75,0.25,40,160.47
7971,G4,1406.0,0.25,40,160.47
7972,E3,1406.0,0.5,45,160.47
7973,A4,1406.25,0.25,42,160.47
7974,B4,1406.5,0.25,44,160.47
7975,C5,1406.75,0.25,45,160.47
7976,D5,1407.0,0.25,47,160.47
7977,E5,1407.25,0.25,48,160.47
7978,A4,1407.5,0.25,42,160.47
7979,B4,1407.75,0.25,43,160.47
7980,C3,1407.875,0.125,36,160.47
7981,C5,1408.0,0.25,45,160.47
7982,E4,1408.0,1.25,46,160.47
7983,D5,1408.25,0.25,46,160.47
7984,E5,1408.5,0.25,48,160.47
7985,F#5,1408.75,0.25,49,160.47
7986,G#5,1409.0,0.25,50,160.47
7987,A5,1409.25,0.25,52,160.47
7988,D4,1409.25,0.25,40,160.47
7989,E5,1409.5,0.25,46,160.47
7990,C4,1409.5,0.25,40,160.47
7991,F#5,1409.75,0.25,46,160.47
7992,B3,1409.75,0.25,40,160.47
7993,G#5,1410.0,0.25,47,160.47
7994,A3,1410.0,0.5,45,160.47
7995,A5,1410.25,0.25,48,160.47
7996,B5,1410.5,0.25,49,160.47
7997,C6,1410.75,0.25,50,160.47
7998,D6,1411.0,0.25,51,160.47
7999,E6,1411.25,0.25,52,160.47
8000,D6,1411.5,0.25,46,160.47
8001,C6,1411.75,0.25,47,160.47
8002,B5,1412.0,0.25,48,160.47
8003,F3,1412.0,1.5,44,160.47
8004,D3,1412.0,2.5,44,160.47
8005,A5,1412.25,0.25,49,160.47
8006,B5,1412.5,0.25,51,160.47
8007,C6,1412.75,0.25,52,160.47
8008,A5,1413.0,0.25,53,160.47
8009,F4,1413.5,0.25,38,160.47
8010,A3,1413.5,0.25,43,160.47
8011,G4,1413.75,0.25,41,160.47
8012,G3,1413.75,0.25,43,160.47
8013,A4,1414.0,0.25,42,160.47
8014,F3,1414.0,0.5,49,160.47
8015,B4,1414.25,0.25,44,160.47
8016,C5,1414.5,0.25,47,160.47
8017,D5,1414.75,0.25,48,160.47
8018,E5,1415.0,0.25,50,160.47
8019,F5,1415.25,0.25,52,160.47
8020,B4,1415.5,0.25,45,160.47
8021,C5,1415.75,0.25,47,160.47
8022,D3,1415.875,0.125,35,160.47
8023,D5,1416.0,0.25,49,160.47
8024,F4,1416.0,1.25,55,160.47
8025,E5,1416.25,0.25,51,160.47
8026,F5,1416.5,0.25,53,160.47
8027,G5,1416.75,0.25,54,160.47
8028,A5,1417.0,0.25,56,160.47
8029,B5,1417.25,0.25,58,160.47
8030,E4,1417.25,0.25,46,160.47
8031,F5,1417.5,0.25,51,160.47
8032,D4,1417.5,0.25,46,160.47
8033,G5,1417.75,0.25,52,160.47
8034,C4,1417.75,0.25,46,160.47
8035,A5,1418.0,0.25,53,160.47
8036,B3,1418.0,1.0,52,160.47
8037,B5,1418.25,0.25,55,160.47
8038,C6,1418.5,0.25,56,160.47
8039,D6,1418.75,0.25,58,160.47
8040,E6,1419.0,0.25,59,160.47
8041,F6,1419.25,0.25,60,160.47
8042,E6,1419.5,0.25,54,160.47
8043,D6,1419.75,0.25,55,160.47
8044,E3,1419.875,0.125,40,160.47
8045,C6,1420.0,0.25,57,160.47
8046,G4,1420.0,1.25,64,160.47
8047,B5,1420.25,0.25,58,160.47
8048,C6,1420.5,0.25,61,160.47
8049,D6,1420.75,0.25,62,160.47
8050,B5,1421.0,0.25,64,160.47
8051,F4,1421.25,0.25,52,160.47
8052,G5,1421.5,0.25,56,160.47
8053,E4,1421.5,0.25,51,160.47
8054,A5,1421.75,0.25,56,160.47
8055,D4,1421.75,0.25,51,160.47
8056,B5,1422.0,0.25,57,160.47
8057,C#4,1422.0,1.0,56,160.47
8058,C6,1422.25,0.25,59,160.47
8059,D6,1422.5,0.25,60,160.47
8060,E6,1422.75,0.25,62,160.47
8061,F6,1423.0,0.25,63,160.47
8062,G6,1423.25,0.25,65,160.47
8063,F6,1423.5,0.25,57,160.47
8064,E6,1423.75,0.25,59,160.47
8065,F3,1423.875,0.125,46,160.47
8066,D6,1424.0,0.25,60,160.47
8067,A4,1424.0,1.0,73,160.47
8068,C#6,1424.25,0.25,62,160.47
8069,D6,1424.5,0.25,65,160.47
8070,E6,1424.75,0.25,66,160.47
8071,C#6,1425.0,0.25,68,160.47
8072,G4,1425.0,0.25,60,160.47
8073,F4,1425.25,0.25,60,160.47
8074,C#5,1425.5,0.25,59,160.47
8075,E4,1425.5,0.25,60,160.47
8076,D5,1425.75,0.25,59,160.47
8077,D4,1425.75,0.125,59,160.47
8078,G3,1425.875,0.125,47,160.47
8079,E5,1426.0,0.25,61,160.47
8080,B4,1426.0,1.0,75,160.47
8081,F5,1426.25,0.25,63,160.47
8082,G5,1426.5,0.25,64,160.47
8083,A5,1426.75,0.25,66,160.47
8084,F5,1427.0,0.5,67,160.47
8085,A4,1427.0,0.25,62,160.47
8086,G4,1427.25,0.25,62,160.47
8087,E-5,1427.5,0.25,61,160.47
8088,F4,1427.5,0.25,63,160.47
8089,E5,1427.75,0.25,61,160.47
8090,E4,1427.75,0.125,62,160.47
8091,A3,1427.875,0.125,50,160.47
8092,F5,1428.0,0.25,64,160.47
8093,C5,1428.0,1.0,78,160.47
8094,G5,1428.25,0.25,65,160.47
8095,A5,1428.5,0.25,66,160.47
8096,B5,1428.75,0.25,69,160.47
8097,G5,1429.0,0.25,70,160.47
8098,B4,1429.0,0.25,64,160.47
8099,G5,1429.25,0.25,70,160.47
8100,A4,1429.25,0.25,64,160.47
8101,E5,1429.5,0.25,63,160.47
8102,G4,1429.5,0.25,65,160.47
8103,F5,1429.75,0.25,64,160.47
8104,F4,1429.75,0.125,64,160.47
8105,B3,1429.875,0.125,54,160.47
8106,G5,1430.0,0.25,66,160.47
8107,D5,1430.0,1.0,81,160.47
8108,A5,1430.25,0.25,68,160.47
8109,B5,1430.5,0.25,69,160.47
8110,C6,1430.75,0.25,72,160.47
8111,A5,1431.0,0.5,73,160.47
8112,C5,1431.0,0.25,67,160.47
8113,B4,1431.25,0.25,67,160.47
8114,F#5,1431.5,0.25,66,160.47
8115,A4,1431.5,0.25,67,160.47
8116,G5,1431.75,0.25,66,160.47
8117,G4,1431.75,0.125,66,160.47
8118,C4,1431.875,0.125,56,160.47
8119,A5,1432.0,0.25,68,160.47
8120,E5,1432.0,1.0,84,160.47
8121,B5,1432.25,0.25,70,160.47
8122,C6,1432.5,0.25,71,160.47
8123,D6,1432.75,0.25,74,160.47
8124,B5,1433.0,0.25,75,160.47
8125,D5,1433.0,0.25,69,160.47
8126,B5,1433.25,0.25,75,160.47
8127,C5,1433.25,0.25,70,160.47
8128,G#5,1433.5,0.25,69,160.47
8129,B4,1433.5,0.25,70,160.47
8130,A5,1433.75,0.25,69,160.47
8131,A4,1433.75,0.125,69,160.47
8132,D4,1433.875,0.125,58,160.47
8133,B5,1434.0,0.25,71,160.47
8134,F5,1434.0,1.0,87,160.47
8135,C6,1434.25,0.25,73,160.47
8136,D6,1434.5,0.25,74,160.47
8137,E6,1434.75,0.25,77,160.47
8138,C6,1435.0,0.5,79,160.47
8139,E5,1435.0,0.25,71,160.47
8140,D5,1435.25,0.25,72,160.47
8141,B-5,1435.5,0.25,71,160.47
8142,C5,1435.5,0.25,72,160.47
8143,B5,1435.75,0.25,71,160.47
8144,B4,1435.75,0.25,71,160.47
8145,C6,1436.0,0.25,74,160.47
8146,E4,1436.0,167/1000,78,160.47
8147,C5,1436.167,167/1000,74,160.47
8148,D6,1436.25,0.25,75,160.47
8149,E5,1436.333,167/1000,74,160.47
8150,E6,1436.5,0.25,77,160.47
8151,F6,1436.75,0.25,79,160.47
8152,D6,1437.0,0.25,81,160.47
8153,E4,1437.0,167/1000,79,160.47
8154,C5,1437.167,167/1000,74,160.47
8155,E5,1437.333,167/1000,75,160.47
8156,G5,1437.75,167/1000,76,160.47
8157,C6,1437.917,167/1000,69,160.47
8158,E4,1438.0,167/1000,81,160.47
8159,G6,1438.083,167/1000,70,160.47
8160,C5,1438.167,167/1000,77,160.47
8161,E5,1438.333,167/1000,77,160.47
8162,G5,1438.75,167/1000,78,160.47
8163,C6,1438.917,167/1000,72,160.47
8164,E4,1439.0,167/1000,81,160.47
8165,G6,1439.083,167/1000,71,160.47
8166,C5,1439.167,167/1000,78,160.47
8167,E5,1439.333,167/1000,79,160.47
8168,G#5,1439.75,167/1000,80,160.47
8169,C6,1439.917,167/1000,73,160.47
8170,C5,1440.0,1.0,75,160.47
8171,F5,1440.0,1.0,75,160.47
8172,F4,1440.0,1.0,75,160.47
8173,G#6,1440.083,167/1000,74,160.47
8174,G#5,1440.75,167/1000,82,160.47
8175,C6,1440.917,167/1000,75,160.47
8176,G#6,1441.083,167/1000,75,160.47
8177,A5,1441.25,0.25,85,160.47
8178,A6,1441.5,0.25,88,160.47
8179,G6,1441.75,0.25,87,160.47
8180,F6,1442.0,0.25,86,160.47
8181,E6,1442.25,0.25,86,160.47
8182,D6,1442.5,0.25,85,160.47
8183,C6,1442.75,0.25,84,160.47
8184,B5,1443.0,0.25,83,160.47
8185,A5,1443.25,0.25,82,160.47
8186,G5,1443.5,0.25,81,160.47
8187,F5,1443.75,0.25,80,160.47
8188,E5,1444.0,0.25,79,160.47
8189,D5,1444.25,0.25,78,160.47
8190,C5,1444.5,0.25,77,160.47
8191,B4,1444.75,0.25,77,160.47
8192,A4,1445.0,0.25,76,160.47
8193,F1,1445.0,1.25,75,160.47
8194,G#4,1445.25,0.25,75,160.47
8195,A4,1445.5,0.25,78,160.47
8196,G4,1445.75,0.25,77,160.47
8197,F4,1446.0,0.25,77,160.47
8198,E4,1446.25,0.25,77,160.47
8199,G1,1446.25,0.25,68,160.47
8200,D4,1446.5,0.25,77,160.47
8201,A1,1446.5,0.25,69,160.47
8202,C4,1446.75,0.25,76,160.47
8203,B1,1446.75,0.25,70,160.47
8204,B3,1447.0,0.25,76,160.47
8205,C2,1447.0,0.25,71,160.47
8206,A3,1447.25,0.25,76,160.47
8207,D2,1447.25,0.25,73,160.47
8208,G3,1447.5,0.25,75,160.47
8209,E2,1447.5,0.25,74,160.47
8210,F3,1447.75,0.25,75,160.47
8211,F2,1447.75,0.25,75,160.47
8212,E3,1448.0,0.25,75,160.47
8213,G1,1448.0,1.0,67,160.47
8214,C2,1448.0,1.0,67,160.47
8215,E2,1448.0,1.0,67,160.47
8216,D3,1448.25,0.25,75,160.47
8217,C3,1448.5,0.25,74,160.47
8218,B2,1448.75,0.25,74,160.47
8219,A2,1449.0,0.25,74,160.47
8220,G2,1449.25,0.25,75,160.47
8221,C3,1449.5,0.25,75,160.47
8222,B2,1449.75,0.25,47,160.47
8223,D3,1450.0,0.25,47,160.47
8224,C3,1450.25,0.25,47,160.47
8225,E3,1450.5,0.25,48,160.47
8226,E-3,1450.75,0.25,48,160.47
8227,F3,1451.0,0.25,48,160.47
8228,E3,1451.25,0.25,48,160.47
8229,G3,1451.5,0.25,49,160.47
8230,F#3,1451.75,0.25,49,160.47
8231,A3,1452.0,0.25,49,160.47
8232,G3,1452.25,0.25,50,160.47
8233,C4,1452.5,0.25,50,160.47
8234,B3,1452.75,0.25,50,160.47
8235,D4,1453.0,0.25,51,160.47
8236,C4,1453.25,0.25,51,160.47
8237,E4,1453.5,0.25,51,160.47
8238,E-4,1453.75,0.25,52,160.47
8239,F4,1454.0,0.25,52,160.47
8240,E4,1454.25,0.25,52,160.47
8241,G4,1454.5,0.25,53,160.47
8242,F#4,1454.75,0.25,53,160.47
8243,A4,1455.0,0.25,53,160.47
8244,G4,1455.25,0.25,54,160.47
8245,C5,1455.5,0.25,54,160.47
8246,B4,1455.75,0.25,54,160.47
8247,D5,1456.0,0.25,55,160.47
8248,C5,1456.25,0.25,55,160.47
8249,E5,1456.5,0.25,55,160.47
8250,E-5,1456.75,0.25,56,160.47
8251,F5,1457.0,0.25,56,160.47
8252,E5,1457.25,0.25,56,160.47
8253,E5,1457.25,0.25,52,160.47
8254,G5,1457.5,0.25,58,160.47
8255,E-5,1457.5,0.25,52,160.47
8256,F#5,1457.75,0.25,60,160.47
8257,E5,1457.75,0.25,53,160.47
8258,A5,1458.0,0.25,62,160.47
8259,G4,1458.0,0.125,60,160.47
8260,G5,1458.25,0.125,70,160.47
8261,C5,1458.25,0.25,54,160.47
8262,C6,1458.5,0.25,62,160.47
8263,B4,1458.5,0.25,55,160.47
8264,B5,1458.75,0.25,62,160.47
8265,C5,1458.75,0.25,55,160.47
8266,C6,1459.0,0.25,63,160.47
8267,G4,1459.0,0.125,61,160.47
8268,G5,1459.25,0.125,70,160.47
8269,E5,1459.25,0.25,56,160.47
8270,E6,1459.5,0.25,63,160.47
8271,E-5,1459.5,0.25,56,160.47
8272,E-6,1459.75,0.25,64,160.47
8273,E5,1459.75,0.25,56,160.47
8274,E6,1460.0,0.25,65,160.47
8275,G4,1460.0,0.125,63,160.47
8276,G5,1460.25,0.125,72,160.47
8277,C5,1460.25,0.25,57,160.47
8278,C6,1460.5,0.25,65,160.47
8279,B4,1460.5,0.25,58,160.47
8280,B5,1460.75,0.25,66,160.47
8281,C5,1460.75,0.25,58,160.47
8282,C6,1461.0,0.25,66,160.47
8283,G4,1461.0,0.125,65,160.47
8284,G5,1461.25,0.125,74,160.47
8285,E5,1461.25,0.25,59,160.47
8286,E6,1461.5,0.25,67,160.47
8287,E-5,1461.5,0.25,59,160.47
8288,E-6,1461.75,0.25,68,160.47
8289,E5,1461.75,0.25,59,160.47
8290,E6,1462.0,0.25,68,160.47
8291,G4,1462.0,0.125,67,160.47
8292,G5,1462.25,0.125,76,160.47
8293,C5,1462.25,0.25,60,160.47
8294,C6,1462.5,0.25,69,160.47
8295,B4,1462.5,0.25,60,160.47
8296,B5,1462.75,0.25,69,160.47
8297,C5,1462.75,0.25,61,160.47
8298,C6,1463.0,0.25,70,160.47
8299,G4,1463.0,0.125,69,160.47
8300,G5,1463.25,0.125,78,160.47
8301,E5,1463.25,0.25,62,160.47
8302,E6,1463.5,0.25,71,160.47
8303,E-5,1463.5,0.25,62,160.47
8304,E-6,1463.75,0.25,71,160.47
8305,E5,1463.75,0.25,63,160.47
8306,E6,1464.0,0.25,71,160.47
8307,D5,1464.0,4.0,73,160.47
8308,G4,1464.0,4.0,73,160.47
8309,F5,1464.0,4.0,73,160.47
8310,G5,1464.25,0.125,80,160.47
8311,C6,1464.5,0.25,72,160.47
8312,B5,1464.75,0.25,73,160.47
8313,C6,1465.0,0.25,73,160.47
8314,F6,1465.25,2.5,87,160.47
8315,B5,1465.25,2.5,87,160.47
8316,F6,1467.75,0.125,73,160.47
8317,E6,1467.875,0.125,73,160.47
8318,D6,1468.0,0.125,72,160.47
8319,F4,1468.0,4.0,65,160.47
8320,G3,1468.0,4.0,65,160.47
8321,D4,1468.0,4.0,65,160.47
8322,C6,1468.125,0.125,71,160.47
8323,B5,1468.25,0.125,70,160.47
8324,A5,1468.375,0.125,69,160.47
8325,G5,1468.5,0.125,68,160.47
8326,F5,1468.625,0.125,68,160.47
8327,E5,1468.75,0.125,66,160.47
8328,D5,1468.875,0.125,66,160.47
8329,C5,1469.0,0.125,65,160.47
8330,B4,1469.125,0.125,65,160.47
8331,B4,1469.25,3.0,78,160.47
8332,F5,1469.25,3.0,78,160.47
8333,C3,1472.0,2.0,36,160.47
8334,C2,1472.0,2.0,36,160.47
8335,F5,1472.25,0.125,64,160.47
8336,E5,1472.375,0.125,62,160.47
8337,D5,1472.5,0.125,60,160.47
8338,C5,1472.625,0.125,60,160.47
8339,B4,1472.75,0.125,60,160.47
8340,A4,1472.875,0.125,59,160.47
8341,G4,1473.0,0.125,56,160.47
8342,F4,1473.125,0.125,54,160.47
8343,G3,1473.25,2.0,45,160.47
8344,C4,1473.25,2.0,45,160.47
8345,E4,1473.25,2.0,45,160.47
8346,G#2,1474.0,1.0,29,160.47
8347,G#1,1474.0,1.0,29,160.47
8348,A2,1475.0,1.0,32,160.47
8349,A1,1475.0,1.0,32,160.47
8350,F3,1475.25,1.0,43,160.47
8351,B3,1475.25,1.0,43,160.47
8352,D4,1475.25,1.0,43,160.47
8353,E2,1476.0,2.0,39,160.47
8354,E3,1476.25,1.0,43,160.47
8355,A3,1476.25,1.0,43,160.47
8356,C4,1476.25,1.0,43,160.47
8357,D3,1477.25,2.0,45,160.47
8358,G#3,1477.25,2.0,45,160.47
8359,B3,1477.25,2.0,45,160.47
8360,F2,1478.0,2.0,34,160.47
8361,C3,1479.25,2.0,44,160.47
8362,A3,1479.25,2.0,44,160.47
8363,F3,1480.0,2.0,38,160.47
8364,G3,1480.0,2.0,38,160.47
8365,B3,1480.0,2.0,38,160.47
8366,D3,1480.0,2.0,38,160.47
8367,F4,1481.25,2.0,48,160.47
8368,G4,1481.25,2.0,48,160.47
8369,B4,1481.25,2.0,48,160.47
8370,G3,1482.0,1.0,41,160.47
8371,C4,1482.0,1.0,41,160.47
8372,E3,1482.0,1.0,41,160.47
8373,D4,1483.0,1.0,45,160.47
8374,F3,1483.0,1.0,45,160.47
8375,C4,1483.0,1.0,45,160.47
8376,A3,1483.0,1.0,45,160.47
8377,G4,1483.25,1.0,52,160.47
8378,C5,1483.25,1.0,52,160.47
8379,G3,1484.0,4.0,46,160.47
8380,C4,1484.0,2.0,51,160.47
8381,E4,1484.0,2.0,51,160.47
8382,A4,1484.25,1.0,55,160.47
8383,C5,1484.25,1.0,55,160.47
8384,D5,1484.25,1.0,55,160.47
8385,G4,1485.25,3.0,56,160.47
8386,C5,1485.25,2.0,62,160.47
8387,E5,1485.25,2.0,62,160.47
8388,B3,1486.0,2.0,45,160.47
8389,D4,1486.0,2.0,45,160.47
8390,B4,1487.25,2.0,55,160.47
8391,D5,1487.25,2.0,55,160.47
8392,E5,1488.0,2.0,46,160.47
8393,C5,1488.0,2.0,46,160.47
8394,G5,1488.25,0.5,50,160.47
8395,F5,1488.75,0.5,49,160.47
8396,D5,1490.0,1.0,43,160.47
8397,G#4,1490.0,1.0,43,160.47
8398,B4,1490.0,1.0,43,160.47
8399,E6,1490.25,1.0,48,160.47
8400,C6,1490.25,1.0,48,160.47
8401,A4,1491.0,1.0,44,160.47
8402,C5,1491.0,1.0,44,160.47
8403,D6,1491.25,1.0,45,160.47
8404,B5,1491.25,1.0,45,160.47
8405,F5,1491.25,1.0,45,160.47
8406,E4,1492.0,2.0,45,160.47
8407,G#4,1492.0,2.0,45,160.47
8408,B4,1492.0,2.0,45,160.47
8409,C6,1492.25,1.0,45,160.47
8410,A5,1492.25,1.0,45,160.47
8411,E5,1492.25,1.0,45,160.47
8412,D5,1493.25,2.0,48,160.47
8413,G#5,1493.25,2.0,48,160.47
8414,B5,1493.25,2.0,48,160.47
8415,F4,1494.0,2.0,44,160.47
8416,A4,1494.0,2.0,44,160.47
8417,C5,1495.25,2.0,46,160.47
8418,A5,1495.25,2.0,46,160.47
8419,G3,1496.0,4.0,34,160.47
8420,C4,1496.0,1.0,37,160.47
8421,E4,1496.0,1.0,37,160.47
8422,F4,1497.0,3.0,32,160.47
8423,D4,1497.0,3.0,32,160.47
8424,G5,1497.25,2.0,53,160.47
8425,C5,1497.25,1.0,45,160.47
8426,E5,1497.25,1.0,45,160.47
8427,D5,1498.25,3.0,44,160.47
8428,F5,1498.25,3.0,44,160.47
8429,A5,1499.25,1.0,53,160.47
8430,G2,1500.0,4.0,34,160.47
8431,E3,1500.0,1.0,37,160.47
8432,C3,1500.0,1.0,37,160.47
8433,B5,1500.25,1.0,51,160.47
8434,D3,1501.0,3.0,32,160.47
8435,F3,1501.0,3.0,32,160.47
8436,G4,1501.25,4.0,53,160.47
8437,C4,1501.25,1.0,45,160.47
8438,E4,1501.25,1.0,45,160.47
8439,D4,1502.25,3.0,44,160.47
8440,F4,1502.25,3.0,44,160.47
8441,G2,1508.0,4.0,34,160.47
8442,D3,1508.0,4.0,32,160.47
8443,F3,1508.0,4.0,32,160.47
8444,G#4,1509.25,2.0,56,160.47
8445,D4,1509.25,4.0,44,160.47
8446,F4,1509.25,4.0,44,160.47
8447,B4,1511.25,2.0,46,160.47
8448,G1,1512.0,4.0,34,160.47
8449,C2,1512.0,1.0,37,160.47
8450,E2,1512.0,1.0,37,160.47
8451,D2,1513.0,3.0,32,160.47
8452,F2,1513.0,3.0,32,160.47
8453,G3,1513.25,4.0,53,160.47
8454,C3,1513.25,1.0,45,160.47
8455,E3,1513.25,1.0,45,160.47
8456,D3,1514.25,3.0,44,160.47
8457,F3,1514.25,3.0,44,160.47
8458,G1,1520.0,4.0,34,160.47
8459,D2,1520.0,4.0,32,160.47
8460,F2,1520.0,4.0,32,160.47
8461,A3,1521.25,2.0,56,160.47
8462,D3,1521.25,4.0,44,160.47
8463,F3,1521.25,4.0,44,160.47
8464,B3,1523.25,2.0,46,160.47
8465,C3,1524.0,0.25,25,160.47
8466,C2,1524.0,0.25,25,160.47
8467,G3,1524.5,0.25,24,160.47
8468,C3,1524.5,0.25,24,160.47
8469,G3,1525.0,0.25,24,160.47
8470,C3,1525.0,0.25,24,160.47
8471,E3,1525.25,0.25,28,160.47
8472,C4,1525.25,0.5,40,160.47
8473,G3,1525.5,0.25,24,160.47
8474,C3,1525.5,0.25,24,160.47
8475,C4,1525.75,0.25,30,160.47
8476,E4,1525.75,0.25,30,160.47
8477,C3,1526.0,0.25,24,160.47
8478,G3,1526.0,0.25,24,160.47
8479,C4,1526.25,0.25,30,160.47
8480,E4,1526.25,0.25,30,160.47
8481,G3,1526.5,0.25,26,160.47
8482,C3,1526.5,0.25,26,160.47
8483,C4,1526.75,0.25,31,160.47
8484,E4,1526.75,0.25,31,160.47
8485,G3,1527.0,0.25,26,160.47
8486,C3,1527.0,0.25,26,160.47
8487,C4,1527.25,0.25,31,160.47
8488,E4,1527.25,0.25,31,160.47
8489,G3,1527.5,0.25,26,160.47
8490,C3,1527.5,0.25,26,160.47
8491,C4,1527.75,0.25,31,160.47
8492,E4,1527.75,0.25,31,160.47
8493,C3,1528.0,0.25,28,160.47
8494,G3,1528.0,0.25,28,160.47
8495,C4,1528.25,0.25,32,160.47
8496,E4,1528.25,0.25,32,160.47
8497,C3,1528.5,0.25,24,160.47
8498,G3,1528.5,0.25,24,160.47
8499,C4,1528.75,0.25,32,160.47
8500,E4,1528.75,0.25,32,160.47
8501,C3,1529.0,0.25,26,160.47
8502,G3,1529.0,0.25,26,160.47
8503,C4,1529.25,0.25,33,160.47
8504,E4,1529.25,0.25,33,160.47
8505,G3,1529.5,0.25,26,160.47
8506,C3,1529.5,0.25,26,160.47
8507,C4,1529.75,0.25,33,160.47
8508,E4,1529.75,0.25,33,160.47
8509,G3,1530.0,0.25,28,160.47
8510,C3,1530.0,0.25,28,160.47
8511,C4,1530.25,0.25,34,160.47
8512,E4,1530.25,0.25,34,160.47
8513,C3,1530.5,0.25,28,160.47
8514,G3,1530.5,0.25,28,160.47
8515,C4,1530.75,0.25,35,160.47
8516,E4,1530.75,0.25,35,160.47
8517,A3,1531.0,0.25,28,160.47
8518,C3,1531.0,0.25,28,160.47
8519,C4,1531.25,0.25,36,160.47
8520,E4,1531.25,0.25,36,160.47
8521,C3,1531.5,0.25,28,160.47
8522,A3,1531.5,0.25,28,160.47
8523,C4,1531.75,0.25,37,160.47
8524,E4,1531.75,0.25,37,160.47
8525,B2,1532.0,0.375,30,160.47
8526,D3,1532.0,0.375,30,160.47
8527,G3,1532.0,0.375,30,160.47
8528,D4,1532.25,0.25,37,160.47
8529,F#4,1532.25,0.25,37,160.47
8530,G3,1532.5,0.375,30,160.47
8531,B2,1532.5,0.375,30,160.47
8532,D3,1532.5,0.375,30,160.47
8533,D4,1532.75,0.25,37,160.47
8534,F#4,1532.75,0.25,37,160.47
8535,B2,1533.0,0.375,30,160.47
8536,D3,1533.0,0.375,30,160.47
8537,G3,1533.0,0.375,30,160.47
8538,G4,1533.25,0.5,52,160.47
8539,B2,1533.5,0.375,30,160.47
8540,D3,1533.5,0.375,30,160.47
8541,G3,1533.5,0.375,30,160.47
8542,B4,1533.75,0.25,46,160.47
8543,A4,1534.0,0.25,46,160.47
8544,B-2,1534.0,0.375,37,160.47
8545,C3,1534.0,0.375,37,160.47
8546,G3,1534.0,0.375,37,160.47
8547,G4,1534.25,0.25,52,160.47
8548,G3,1534.5,0.375,37,160.47
8549,B-2,1534.5,0.375,37,160.47
8550,C3,1534.5,0.375,37,160.47
8551,G3,1535.0,0.375,37,160.47
8552,C3,1535.0,0.375,37,160.47
8553,B-2,1535.0,0.375,37,160.47
8554,C5,1535.25,0.5,65,160.47
8555,G3,1535.5,0.375,38,160.47
8556,B-2,1535.5,0.375,38,160.47
8557,C3,1535.5,0.375,38,160.47
8558,E5,1535.75,0.25,58,160.47
8559,D5,1536.0,0.25,58,160.47
8560,A2,1536.0,0.375,41,160.47
8561,C3,1536.0,0.375,41,160.47
8562,F3,1536.0,0.375,41,160.47
8563,C5,1536.25,0.25,64,160.47
8564,A2,1536.5,0.375,41,160.47
8565,C3,1536.5,0.375,41,160.47
8566,F3,1536.5,0.375,41,160.47
8567,A2,1537.0,0.375,42,160.47
8568,C3,1537.0,0.375,42,160.47
8569,F3,1537.0,0.375,42,160.47
8570,F5,1537.25,0.5,75,160.47
8571,A2,1537.5,0.375,42,160.47
8572,F3,1537.5,0.375,42,160.47
8573,C3,1537.5,0.375,42,160.47
8574,A5,1537.75,0.25,65,160.47
8575,G5,1538.0,0.25,65,160.47
8576,G#2,1538.0,0.375,62,160.47
8577,C3,1538.0,0.375,62,160.47
8578,F3,1538.0,0.375,62,160.47
8579,F5,1538.25,0.25,73,160.47
8580,G#1,1538.5,0.375,55,160.47
8581,G#2,1538.5,0.375,55,160.47
8582,G#1,1539.0,0.375,55,160.47
8583,G#2,1539.0,0.375,55,160.47
8584,F6,1539.25,0.25,87,160.47
8585,E6,1539.5,0.25,79,160.47
8586,G#1,1539.5,0.375,55,160.47
8587,G#2,1539.5,0.375,55,160.47
8588,F6,1539.75,0.25,79,160.47
8589,E6,1540.0,0.25,79,160.47
8590,G2,1540.0,0.25,56,160.47
8591,G1,1540.0,0.25,56,160.47
8592,F6,1540.25,0.25,79,160.47
8593,A1,1540.25,0.25,57,160.47
8594,E6,1540.5,0.25,79,160.47
8595,B1,1540.5,0.25,57,160.47
8596,F6,1540.75,0.25,79,160.47
8597,C2,1540.75,0.25,58,160.47
8598,E6,1541.0,0.25,79,160.47
8599,D2,1541.0,0.25,59,160.47
8600,F6,1541.25,0.25,78,160.47
8601,E2,1541.25,0.25,59,160.47
8602,E6,1541.5,0.25,78,160.47
8603,F2,1541.5,0.25,60,160.47
8604,D6,1541.75,0.25,79,160.47
8605,G2,1541.75,0.25,62,160.47
8606,C6,1542.0,0.25,80,160.47
8607,A2,1542.0,0.25,62,160.47
8608,B5,1542.25,0.25,81,160.47
8609,B2,1542.25,0.25,63,160.47
8610,A5,1542.5,0.25,82,160.47
8611,C3,1542.5,0.25,63,160.47
8612,G5,1542.75,0.25,83,160.47
8613,D3,1542.75,0.25,64,160.47
8614,F5,1543.0,0.25,84,160.47
8615,E3,1543.0,0.25,65,160.47
8616,E5,1543.25,0.25,85,160.47
8617,F3,1543.25,0.25,66,160.47
8618,D5,1543.5,0.25,86,160.47
8619,G3,1543.5,0.25,67,160.47
8620,C5,1543.75,0.25,88,160.47
8621,A3,1543.75,0.25,68,160.47
8622,B4,1544.0,0.25,89,160.47
8623,F3,1544.0,0.5,72,160.47
8624,F2,1544.0,0.5,72,160.47
8625,A4,1544.25,0.25,90,160.47
8626,G4,1544.5,0.25,92,160.47
8627,F4,1544.75,0.25,92,160.47
8628,E4,1545.0,0.25,93,160.47
8629,G2,1545.0,0.5,72,160.47
8630,B2,1545.0,0.5,72,160.47
8631,D3,1545.0,0.5,72,160.47
8632,G3,1545.0,0.5,72,160.47
8633,D4,1545.25,0.5,100,160.47
8634,G4,1546.25,0.5,92,160.47
8635,B4,1546.25,0.5,92,160.47
8636,D5,1546.25,0.5,92,160.47
8637,G5,1546.25,0.5,92,160.47
8638,C4,1548.0,0.5,72,160.47
8639,G3,1548.0,0.5,72,160.47
8640,C3,1548.0,0.5,72,160.47
8641,E3,1548.0,0.5,72,160.47
8642,E4,1549.25,0.5,98,160.47
8643,G4,1549.25,0.5,98,160.47
8644,C5,1549.25,0.5,98,160.47
8645,E5,1549.25,0.5,98,160.47
8646,B2,1550.0,0.5,72,160.47
8647,G2,1550.0,0.5,72,160.47
8648,D3,1550.0,0.5,72,160.47
8649,G3,1550.0,0.5,72,160.47
8650,G4,1551.25,0.5,98,160.47
8651,B4,1551.25,0.5,98,160.47
8652,D5,1551.25,0.5,98,160.47
8653,G5,1551.25,0.5,98,160.47
8654,C2,1552.0,0.5,71,160.47
8655,E2,1552.0,0.5,71,160.47
8656,G2,1552.0,0.5,71,160.47
8657,C3,1552.0,0.5,71,160.47
8658,C6,1553.25,0.5,98,160.47
8659,G5,1553.25,0.5,98,160.47
8660,E5,1553.25,0.5,98,160.47
8661,C5,1553.25,0.5,98,160.47
