,note_name,start_time,duration,velocity,tempo
0,C2,0.0,0.5,50,91.91
1,E3,0.25,0.25,28,91.91
2,G3,0.5,0.25,30,91.91
3,C4,0.75,0.25,32,91.91
4,E4,1.0,0.25,34,91.91
5,G5,1.0,0.5,50,91.91
6,E3,1.25,0.25,31,91.91
7,G3,1.5,0.25,31,91.91
8,C4,1.75,0.25,31,91.91
9,E4,2.0,0.25,35,91.91
10,G5,2.0,1.5,54,91.91
11,E3,2.25,0.25,30,91.91
12,G3,2.5,0.25,31,91.91
13,C4,2.75,0.25,33,91.91
14,E4,3.0,0.25,36,91.91
15,E3,3.25,0.25,33,91.91
16,G3,3.5,0.25,33,91.91
17,E5,3.5,0.5,47,91.91
18,C4,3.75,0.25,33,91.91
19,D5,4.0,1.0,50,91.91
20,F3,4.25,0.25,28,91.91
21,G3,4.5,0.25,31,91.91
22,B3,4.75,0.25,33,91.91
23,D4,5.0,0.25,36,91.91
24,G4,5.0,1.0,41,91.91
25,F3,5.25,0.25,33,91.91
26,G3,5.5,0.25,33,91.91
27,B3,5.75,0.25,34,91.91
28,C5,6.0,1.0,50,91.91
29,E3,6.25,0.25,28,91.91
30,G3,6.5,0.25,30,91.91
31,C4,6.75,0.25,32,91.91
32,E4,7.0,0.25,34,91.91
33,E5,7.0,0.5,47,91.91
34,E3,7.25,0.25,32,91.91
35,G3,7.5,0.25,32,91.91
36,C4,7.75,0.25,33,91.91
37,C3,7.75,0.25,31,91.91
38,C2,8.0,0.5,50,91.91
39,E3,8.25,0.25,28,91.91
40,G3,8.5,0.25,30,91.91
41,C4,8.75,0.25,32,91.91
42,E4,9.0,0.25,34,91.91
43,G5,9.0,0.5,50,91.91
44,E3,9.25,0.25,31,91.91
45,G3,9.5,0.25,31,91.91
46,C4,9.75,0.25,31,91.91
47,E4,10.0,0.25,35,91.91
48,G5,10.0,1.5,54,91.91
49,E3,10.25,0.25,30,91.91
50,G3,10.5,0.25,31,91.91
51,C4,10.75,0.25,33,91.91
52,E4,11.0,0.25,36,91.91
53,E3,11.25,0.25,33,91.91
54,G3,11.5,0.25,33,91.91
55,E5,11.5,0.5,47,91.91
56,C4,11.75,0.25,33,91.91
57,D5,12.0,1.0,50,91.91
58,F3,12.25,0.25,28,91.91
59,G3,12.5,0.25,31,91.91
60,B3,12.75,0.25,33,91.91
61,D4,13.0,0.25,36,91.91
62,G4,13.0,1.0,41,91.91
63,F3,13.25,0.25,33,91.91
64,G3,13.5,0.25,33,91.91
65,B3,13.75,0.25,34,91.91
66,C5,14.0,0.5,50,91.91
67,E3,14.5,0.25,30,91.91
68,G3,14.75,0.25,32,91.91
69,C4,15.0,0.25,34,91.91
70,E4,15.25,0.25,32,91.91
71,D4,15.5,0.25,32,91.91
72,C4,15.75,0.25,33,91.91
73,G2,15.75,0.25,30,91.91
74,B3,16.0,0.25,35,91.91
75,G1,16.0,0.5,45,91.91
76,G3,16.25,0.25,28,91.91
77,B3,16.5,0.25,30,91.91
78,D4,16.75,0.25,32,91.91
79,G4,17.0,0.25,34,91.91
80,F5,17.0,0.5,50,91.91
81,G3,17.25,0.25,31,91.91
82,B3,17.5,0.25,31,91.91
83,D4,17.75,0.25,31,91.91
84,G4,18.0,0.25,35,91.91
85,F5,18.0,1.5,54,91.91
86,G3,18.25,0.25,30,91.91
87,B3,18.5,0.25,31,91.91
88,D4,18.75,0.25,33,91.91
89,G4,19.0,0.25,36,91.91
90,G3,19.25,0.25,33,91.91
91,B3,19.5,0.25,33,91.91
92,D5,19.5,0.5,47,91.91
93,G4,19.75,0.25,33,91.91
94,E5,20.0,1.0,50,91.91
95,G3,20.25,0.25,28,91.91
96,C4,20.5,0.25,31,91.91
97,G4,20.75,0.25,33,91.91
98,C5,21.0,1.0,41,91.91
99,G3,21.25,0.25,28,91.91
100,E4,21.5,0.25,31,91.91
101,G4,21.75,0.25,33,91.91
102,B4,22.0,1.0,50,91.91
103,G3,22.25,0.25,28,91.91
104,D4,22.5,0.25,30,91.91
105,G4,22.75,0.25,32,91.91
106,D5,23.0,0.5,47,91.91
107,G3,23.25,0.25,28,91.91
108,B3,23.5,0.25,30,91.91
109,G4,23.75,0.25,32,91.91
110,G2,23.75,0.25,32,91.91
111,G1,24.0,0.5,48,91.91
112,G3,24.25,0.25,28,91.91
113,B3,24.5,0.25,30,91.91
114,D4,24.75,0.25,32,91.91
115,G4,25.0,0.25,34,91.91
116,F5,25.0,0.5,50,91.91
117,G3,25.25,0.25,31,91.91
118,B3,25.5,0.25,31,91.91
119,D4,25.75,0.25,31,91.91
120,G4,26.0,0.25,35,91.91
121,F5,26.0,1.5,54,91.91
122,G3,26.25,0.25,30,91.91
123,B3,26.5,0.25,31,91.91
124,D4,26.75,0.25,33,91.91
125,G4,27.0,0.25,36,91.91
126,G3,27.25,0.25,33,91.91
127,B3,27.5,0.25,33,91.91
128,D5,27.5,0.5,47,91.91
129,G4,27.75,0.25,33,91.91
130,E-5,28.0,1.0,50,91.91
131,G3,28.25,0.25,28,91.91
132,C4,28.5,0.25,31,91.91
133,G4,28.75,0.25,33,91.91
134,C5,29.0,1.0,41,91.91
135,G3,29.25,0.25,28,91.91
136,E-4,29.5,0.25,31,91.91
137,G4,29.75,0.25,33,91.91
138,B4,30.0,1.0,50,91.91
139,G3,30.25,0.25,28,91.91
140,D4,30.5,0.25,30,91.91
141,G4,30.75,0.25,32,91.91
142,D5,31.0,1.0,47,91.91
143,G3,31.25,0.25,28,91.91
144,B3,31.5,0.25,30,91.91
145,G4,31.75,0.25,32,91.91
146,E5,32.0,1.0,50,91.91
147,G3,32.25,0.25,28,91.91
148,C4,32.5,0.25,31,91.91
149,G4,32.75,0.25,33,91.91
150,C5,33.0,1.0,41,91.91
151,G3,33.25,0.25,28,91.91
152,E4,33.5,0.25,31,91.91
153,G4,33.75,0.25,33,91.91
154,B4,34.0,1.0,50,91.91
155,G3,34.25,0.25,28,91.91
156,D4,34.5,0.25,30,91.91
157,G4,34.75,0.25,32,91.91
158,D5,35.0,1.0,47,91.91
159,G3,35.25,0.25,28,91.91
160,B3,35.5,0.25,30,91.91
161,G4,35.75,0.25,32,91.91
162,E-5,36.0,1.0,50,91.91
163,G3,36.25,0.25,28,91.91
164,C4,36.5,0.25,31,91.91
165,G4,36.75,0.25,33,91.91
166,C5,37.0,1.0,41,91.91
167,G3,37.25,0.25,28,91.91
168,C4,37.5,0.25,31,91.91
169,E-4,37.75,0.25,33,91.91
170,G5,38.0,99/100,50,91.91
171,G3,38.25,0.25,28,91.91
172,B3,38.5,0.25,30,91.91
173,D4,38.75,0.25,32,91.91
174,G5,39.0,99/100,47,91.91
175,G3,39.25,0.25,28,91.91
176,C4,39.5,0.25,30,91.91
177,E-4,39.75,0.25,32,91.91
178,G5,40.0,99/100,50,91.91
179,G3,40.25,0.25,28,91.91
180,B3,40.5,0.25,30,91.91
181,D4,40.75,0.25,32,91.91
182,G5,41.0,99/100,47,91.91
183,G3,41.25,0.25,28,91.91
184,C4,41.5,0.25,30,91.91
185,E-4,41.75,0.25,32,91.91
186,G5,42.0,99/100,50,91.91
187,G3,42.25,0.25,28,91.91
188,B3,42.5,0.25,30,91.91
189,D4,42.75,0.25,32,91.91
190,G5,43.0,99/100,47,91.91
191,G3,43.25,0.25,28,91.91
192,A3,43.5,0.25,30,91.91
193,C4,43.75,0.25,32,91.91
194,G5,44.0,1.0,47,91.91
195,G3,44.25,0.25,36,91.91
196,B3,44.5,0.25,38,91.91
197,D4,44.75,0.25,35,91.91
198,G4,45.0,0.25,43,91.91
199,B4,45.25,0.25,39,91.91
200,A4,45.5,0.25,41,91.91
201,F#4,45.75,0.25,38,91.91
202,G4,46.0,0.25,43,91.91
203,B3,46.25,0.25,38,91.91
204,D4,46.5,0.25,41,91.91
205,G4,46.75,0.25,38,91.91
206,B4,47.0,0.25,46,91.91
207,D5,47.25,0.25,41,91.91
208,C5,47.5,0.25,41,91.91
209,A4,47.75,0.25,37,91.91
210,B4,48.0,0.25,47,91.91
211,G4,48.25,0.25,42,91.91
212,B4,48.5,0.25,47,91.91
213,D5,48.75,0.25,43,91.91
214,G5,49.0,0.25,51,91.91
215,B5,49.25,0.25,46,91.91
216,A5,49.5,0.25,48,91.91
217,F#5,49.75,0.25,43,91.91
218,G5,50.0,0.25,52,91.91
219,B5,50.25,0.25,52,91.91
220,A5,50.5,0.25,53,91.91
221,C6,50.75,0.25,54,91.91
222,B5,51.0,0.25,55,91.91
223,D6,51.25,0.25,56,91.91
224,C#6,51.5,0.25,56,91.91
225,E6,51.75,0.25,57,91.91
226,D6,52.0,0.25,58,91.91
227,F6,52.25,0.25,59,91.91
228,E6,52.5,0.25,60,91.91
229,G6,52.75,0.25,56,91.91
230,F6,53.0,0.25,61,91.91
231,A6,53.25,0.25,62,91.91
232,F6,53.5,0.25,63,91.91
233,E6,53.75,0.25,59,91.91
234,D6,54.0,0.25,65,91.91
235,F6,54.25,0.25,66,91.91
236,E6,54.5,0.25,66,91.91
237,G6,54.75,0.25,64,91.91
238,F6,55.0,0.25,68,91.91
239,A6,55.25,0.25,69,91.91
240,F6,55.5,0.25,70,91.91
241,E6,55.75,0.25,66,91.91
242,D6,56.0,0.25,69,91.91
243,F6,56.25,0.25,65,91.91
244,E6,56.5,0.25,67,91.91
245,C6,56.75,0.25,60,91.91
246,B5,57.0,0.25,64,91.91
247,D6,57.25,0.25,59,91.91
248,C6,57.5,0.25,62,91.91
249,A5,57.75,0.25,55,91.91
250,G5,58.0,0.25,59,91.91
251,B5,58.25,0.25,54,91.91
252,A5,58.5,0.25,56,91.91
253,F5,58.75,0.25,51,91.91
254,E5,59.0,0.25,54,91.91
255,G5,59.25,0.25,46,91.91
256,F5,59.5,0.25,49,91.91
257,D5,59.75,0.25,42,91.91
258,C5,60.0,0.25,49,91.91
259,C2,60.0,0.25,50,91.91
260,G2,60.25,0.25,30,91.91
261,C3,60.5,0.25,32,91.91
262,E3,60.75,0.25,34,91.91
263,G3,61.0,0.25,31,91.91
264,G6,61.0,0.5,50,91.91
265,G5,61.0,0.5,50,91.91
266,C3,61.25,0.25,31,91.91
267,E3,61.5,0.25,31,91.91
268,G3,61.75,0.25,35,91.91
269,C4,62.0,0.25,30,91.91
270,G6,62.0,1.5,54,91.91
271,G5,62.0,1.5,54,91.91
272,E3,62.25,0.25,31,91.91
273,G3,62.5,0.25,33,91.91
274,C4,62.75,0.25,36,91.91
275,E4,63.0,0.25,33,91.91
276,G3,63.25,0.25,33,91.91
277,C4,63.5,0.25,33,91.91
278,E6,63.5,0.5,47,91.91
279,E5,63.5,0.5,47,91.91
280,E4,63.75,0.25,36,91.91
281,F4,64.0,0.25,28,91.91
282,D6,64.0,1.0,50,91.91
283,D5,64.0,1.0,50,91.91
284,E4,64.25,0.25,31,91.91
285,D4,64.5,0.25,33,91.91
286,C4,64.75,0.25,36,91.91
287,B3,65.0,0.25,33,91.91
288,G5,65.0,1.0,41,91.91
289,G4,65.0,1.0,41,91.91
290,A3,65.25,0.25,33,91.91
291,G3,65.5,0.25,34,91.91
292,F3,65.75,0.25,34,91.91
293,E3,66.0,0.25,28,91.91
294,C6,66.0,1.0,50,91.91
295,C5,66.0,1.0,50,91.91
296,G3,66.25,0.25,30,91.91
297,C3,66.5,0.25,32,91.91
298,E3,66.75,0.25,34,91.91
299,G2,67.0,0.25,32,91.91
300,E6,67.0,0.5,47,91.91
301,E5,67.0,0.5,47,91.91
302,C3,67.25,0.25,32,91.91
303,E2,67.5,0.25,33,91.91
304,G2,67.75,0.25,34,91.91
305,C2,68.0,0.25,50,91.91
306,G2,68.25,0.25,30,91.91
307,C3,68.5,0.25,32,91.91
308,E3,68.75,0.25,34,91.91
309,G3,69.0,0.25,31,91.91
310,G6,69.0,0.5,50,91.91
311,G5,69.0,0.5,50,91.91
312,C3,69.25,0.25,31,91.91
313,E3,69.5,0.25,31,91.91
314,G3,69.75,0.25,35,91.91
315,C4,70.0,0.25,30,91.91
316,G6,70.0,1.5,54,91.91
317,G5,70.0,1.5,54,91.91
318,E3,70.25,0.25,31,91.91
319,G3,70.5,0.25,33,91.91
320,C4,70.75,0.25,36,91.91
321,E4,71.0,0.25,33,91.91
322,G3,71.25,0.25,33,91.91
323,C4,71.5,0.25,33,91.91
324,E6,71.5,0.5,47,91.91
325,E5,71.5,0.5,47,91.91
326,E4,71.75,0.25,33,91.91
327,F4,72.0,0.25,28,91.91
328,D6,72.0,1.0,50,91.91
329,D5,72.0,1.0,50,91.91
330,E4,72.25,0.25,31,91.91
331,D4,72.5,0.25,33,91.91
332,C4,72.75,0.25,36,91.91
333,B3,73.0,0.25,33,91.91
334,G5,73.0,1.0,41,91.91
335,G4,73.0,1.0,41,91.91
336,G3,73.25,0.25,33,91.91
337,A3,73.5,0.25,34,91.91
338,B3,73.75,0.25,34,91.91
339,C4,74.0,0.25,28,91.91
340,C6,74.0,0.5,50,91.91
341,C5,74.0,0.5,50,91.91
342,B3,74.25,0.25,30,91.91
343,A3,74.5,0.25,32,91.91
344,G3,74.75,0.25,34,91.91
345,F3,75.0,0.25,32,91.91
346,E3,75.25,0.25,32,91.91
347,D3,75.5,0.25,33,91.91
348,C3,75.75,0.25,35,91.91
349,G2,76.0,0.25,45,91.91
350,B2,76.25,0.25,30,91.91
351,D3,76.5,0.25,32,91.91
352,G3,76.75,0.25,34,91.91
353,B2,77.0,0.25,31,91.91
354,F6,77.0,0.5,50,91.91
355,F5,77.0,0.5,50,91.91
356,D3,77.25,0.25,31,91.91
357,G3,77.5,0.25,31,91.91
358,B3,77.75,0.25,35,91.91
359,D3,78.0,0.25,30,91.91
360,F6,78.0,1.5,54,91.91
361,F5,78.0,1.5,54,91.91
362,G3,78.25,0.25,31,91.91
363,B3,78.5,0.25,33,91.91
364,D4,78.75,0.25,36,91.91
365,G3,79.0,0.25,33,91.91
366,B3,79.25,0.25,33,91.91
367,D4,79.5,0.25,33,91.91
368,D6,79.5,0.5,47,91.91
369,D5,79.5,0.5,47,91.91
370,G4,79.75,0.25,36,91.91
371,G3,80.0,0.25,28,91.91
372,E6,80.0,1.0,50,91.91
373,E5,80.0,1.0,50,91.91
374,C4,80.25,0.25,31,91.91
375,G4,80.5,0.25,33,91.91
376,C4,80.75,0.25,36,91.91
377,G3,81.0,0.25,28,91.91
378,C6,81.0,1.0,41,91.91
379,C5,81.0,1.0,41,91.91
380,E4,81.25,0.25,31,91.91
381,G4,81.5,0.25,33,91.91
382,E4,81.75,0.25,36,91.91
383,G3,82.0,0.25,28,91.91
384,B5,82.0,1.0,50,91.91
385,B4,82.0,1.0,50,91.91
386,D4,82.25,0.25,30,91.91
387,G4,82.5,0.25,32,91.91
388,D4,82.75,0.25,36,91.91
389,G3,83.0,0.25,28,91.91
390,D6,83.0,0.5,47,91.91
391,D5,83.0,0.5,47,91.91
392,B3,83.25,0.25,30,91.91
393,G4,83.5,0.25,32,91.91
394,B3,83.75,0.25,35,91.91
395,G2,84.0,0.25,48,91.91
396,B2,84.25,0.25,30,91.91
397,D3,84.5,0.25,32,91.91
398,G3,84.75,0.25,34,91.91
399,B2,85.0,0.25,31,91.91
400,F6,85.0,0.5,50,91.91
401,F5,85.0,0.5,50,91.91
402,D3,85.25,0.25,31,91.91
403,G3,85.5,0.25,31,91.91
404,B3,85.75,0.25,35,91.91
405,D3,86.0,0.25,30,91.91
406,F6,86.0,1.5,54,91.91
407,F5,86.0,1.5,54,91.91
408,G3,86.25,0.25,31,91.91
409,B3,86.5,0.25,33,91.91
410,D4,86.75,0.25,36,91.91
411,G3,87.0,0.25,33,91.91
412,B3,87.25,0.25,33,91.91
413,D4,87.5,0.25,33,91.91
414,D6,87.5,0.5,47,91.91
415,D5,87.5,0.5,47,91.91
416,G4,87.75,0.25,36,91.91
417,G3,88.0,0.25,28,91.91
418,E-6,88.0,1.0,50,91.91
419,E-5,88.0,1.0,50,91.91
420,C4,88.25,0.25,31,91.91
421,G4,88.5,0.25,33,91.91
422,C4,88.75,0.25,35,91.91
423,G3,89.0,0.25,28,91.91
424,C6,89.0,1.0,41,91.91
425,C5,89.0,1.0,41,91.91
426,E-4,89.25,0.25,31,91.91
427,G4,89.5,0.25,33,91.91
428,E-4,89.75,0.25,35,91.91
429,G3,90.0,0.25,28,91.91
430,B5,90.0,1.0,50,91.91
431,B4,90.0,1.0,50,91.91
432,D4,90.25,0.25,30,91.91
433,G4,90.5,0.25,32,91.91
434,D4,90.75,0.25,35,91.91
435,G3,91.0,0.25,28,91.91
436,D6,91.0,1.0,47,91.91
437,D5,91.0,1.0,47,91.91
438,B3,91.25,0.25,30,91.91
439,G4,91.5,0.25,32,91.91
440,B3,91.75,0.25,35,91.91
441,G3,92.0,0.25,28,91.91
442,E6,92.0,1.0,50,91.91
443,E5,92.0,1.0,50,91.91
444,C4,92.25,0.25,31,91.91
445,G4,92.5,0.25,33,91.91
446,C4,92.75,0.25,35,91.91
447,G3,93.0,0.25,28,91.91
448,C6,93.0,1.0,42,91.91
449,C5,93.0,1.0,42,91.91
450,E4,93.25,0.25,32,91.91
451,G4,93.5,0.25,34,91.91
452,E4,93.75,0.25,37,91.91
453,G3,94.0,0.25,29,91.91
454,B5,94.0,1.0,53,91.91
455,B4,94.0,1.0,53,91.91
456,D4,94.25,0.25,32,91.91
457,G4,94.5,0.25,34,91.91
458,D4,94.75,0.25,38,91.91
459,G3,95.0,0.25,31,91.91
460,D6,95.0,1.0,52,91.91
461,D5,95.0,1.0,52,91.91
462,B3,95.25,0.25,33,91.91
463,G4,95.5,0.25,36,91.91
464,B3,95.75,0.25,39,91.91
465,G3,96.0,0.25,28,91.91
466,E-6,96.0,1.0,50,91.91
467,E-5,96.0,1.0,50,91.91
468,C4,96.25,0.25,31,91.91
469,G4,96.5,0.25,33,91.91
470,C4,96.75,0.25,35,91.91
471,G3,97.0,0.25,28,91.91
472,C6,97.0,1.0,41,91.91
473,C5,97.0,1.0,41,91.91
474,C4,97.25,0.25,31,91.91
475,E-4,97.5,0.25,33,91.91
476,C4,97.75,0.25,35,91.91
477,G5,98.0,1.0,50,91.91
478,G3,98.0,0.25,28,91.91
479,B3,98.25,0.25,30,91.91
480,D4,98.5,0.25,32,91.91
481,B3,98.75,0.25,35,91.91
482,G5,99.0,1.0,47,91.91
483,G3,99.0,0.25,28,91.91
484,C4,99.25,0.25,30,91.91
485,E-4,99.5,0.25,32,91.91
486,C4,99.75,0.25,35,91.91
487,A5,100.0,167/1000,33,91.91
488,G3,100.0,0.125,42,91.91
489,G5,100.167,167/1000,33,91.91
490,B3,100.25,0.25,27,91.91
491,A5,100.333,167/1000,33,91.91
492,G5,100.5,167/1000,33,91.91
493,D4,100.5,0.25,27,91.91
494,A5,100.667,167/1000,34,91.91
495,B3,100.75,0.25,28,91.91
496,G5,100.833,167/1000,34,91.91
497,A5,101.0,167/1000,35,91.91
498,G3,101.0,0.125,48,91.91
499,G5,101.167,167/1000,35,91.91
500,C4,101.25,0.25,29,91.91
501,A5,101.333,167/1000,35,91.91
502,G5,101.5,167/1000,35,91.91
503,E4,101.5,0.25,30,91.91
504,A5,101.667,167/1000,36,91.91
505,C4,101.75,0.25,31,91.91
506,G5,101.833,167/1000,36,91.91
507,A5,102.0,167/1000,37,91.91
508,G3,102.0,0.125,51,91.91
509,G5,102.167,167/1000,37,91.91
510,B3,102.25,0.25,32,91.91
511,A5,102.333,167/1000,37,91.91
512,G5,102.5,167/1000,39,91.91
513,D4,102.5,0.25,34,91.91
514,A5,102.667,167/1000,39,91.91
515,B3,102.75,0.25,34,91.91
516,G5,102.833,167/1000,39,91.91
517,A5,103.0,167/1000,39,91.91
518,G3,103.0,0.125,58,91.91
519,G5,103.167,167/1000,39,91.91
520,A3,103.25,0.25,35,91.91
521,A5,103.333,167/1000,41,91.91
522,G5,103.5,167/1000,41,91.91
523,C4,103.5,0.25,37,91.91
524,A5,103.667,167/1000,41,91.91
525,A3,103.75,0.25,39,91.91
526,G5,103.833,167/1000,41,91.91
527,A5,104.0,167/1000,42,91.91
528,G3,104.0,0.125,64,91.91
529,G5,104.167,167/1000,42,91.91
530,B3,104.25,0.25,42,91.91
531,A5,104.333,167/1000,42,91.91
532,G5,104.5,167/1000,42,91.91
533,A3,104.5,0.25,44,91.91
534,A5,104.667,167/1000,42,91.91
535,G3,104.75,0.25,45,91.91
536,G5,104.833,167/1000,44,91.91
537,A5,105.0,167/1000,44,91.91
538,F3,105.0,0.125,69,91.91
539,G5,105.167,167/1000,44,91.91
540,A3,105.25,0.25,50,91.91
541,A5,105.333,167/1000,45,91.91
542,G5,105.5,167/1000,45,91.91
543,G3,105.5,0.25,53,91.91
544,A5,105.667,167/1000,45,91.91
545,F3,105.75,0.25,56,91.91
546,G5,105.833,167/1000,46,91.91
547,A5,106.0,167/1000,46,91.91
548,E3,106.0,0.125,77,91.91
549,G5,106.167,167/1000,47,91.91
550,G3,106.25,0.25,60,91.91
551,A5,106.333,167/1000,47,91.91
552,G5,106.5,167/1000,48,91.91
553,F3,106.5,0.25,62,91.91
554,A5,106.667,167/1000,49,91.91
555,E3,106.75,0.25,64,91.91
556,G5,106.833,167/1000,49,91.91
557,A5,107.0,167/1000,49,91.91
558,D3,107.0,0.125,82,91.91
559,G5,107.167,167/1000,49,91.91
560,F3,107.25,0.25,64,91.91
561,A5,107.333,167/1000,50,91.91
562,G5,107.5,167/1000,50,91.91
563,E3,107.5,0.25,67,91.91
564,A5,107.667,167/1000,51,91.91
565,D3,107.75,0.25,71,91.91
566,G5,107.833,167/1000,51,91.91
567,A5,108.0,167/1000,48,91.91
568,C2,108.0,0.5,94,91.91
569,C3,108.0,0.5,94,91.91
570,G5,108.167,167/1000,35,91.91
571,D3,108.25,0.125,56,91.91
572,A5,108.333,167/1000,38,91.91
573,E3,108.375,0.125,57,91.91
574,G5,108.5,167/1000,35,91.91
575,F3,108.5,0.125,60,91.91
576,G3,108.625,0.125,60,91.91
577,A5,108.667,167/1000,38,91.91
578,A3,108.75,0.125,62,91.91
579,G5,108.833,167/1000,36,91.91
580,B3,108.875,0.125,63,91.91
581,A5,109.0,167/1000,40,91.91
582,G6,109.0,0.5,89,91.91
583,C4,109.0,0.25,63,91.91
584,G5,109.167,167/1000,36,91.91
585,D4,109.25,0.125,65,91.91
586,A5,109.333,167/1000,40,91.91
587,E4,109.375,0.125,66,91.91
588,G5,109.5,167/1000,36,91.91
589,F4,109.5,0.125,67,91.91
590,G4,109.625,0.125,69,91.91
591,A5,109.667,167/1000,40,91.91
592,A4,109.75,0.125,70,91.91
593,G5,109.833,167/1000,36,91.91
594,B4,109.875,0.125,71,91.91
595,A5,110.0,167/1000,40,91.91
596,G6,110.0,1.5,90,91.91
597,C5,110.0,0.125,74,91.91
598,G5,110.167,167/1000,37,91.91
599,B4,110.25,0.125,71,91.91
600,A5,110.333,167/1000,40,91.91
601,G5,110.5,167/1000,36,91.91
602,A4,110.5,0.125,71,91.91
603,A5,110.667,167/1000,40,91.91
604,G4,110.75,0.125,71,91.91
605,G5,110.833,167/1000,36,91.91
606,A5,111.0,167/1000,40,91.91
607,F4,111.0,0.125,72,91.91
608,G5,111.167,167/1000,35,91.91
609,E4,111.25,0.125,69,91.91
610,A5,111.333,167/1000,38,91.91
611,G5,111.5,167/1000,33,91.91
612,E6,111.5,0.5,85,91.91
613,D4,111.5,0.125,69,91.91
614,A5,111.667,167/1000,38,91.91
615,C4,111.75,0.125,67,91.91
616,G5,111.833,167/1000,34,91.91
617,A5,112.0,167/1000,38,91.91
618,D6,112.0,1.0,90,91.91
619,B3,112.0,0.125,73,91.91
620,G5,112.167,167/1000,34,91.91
621,C4,112.25,0.125,69,91.91
622,A5,112.333,167/1000,36,91.91
623,G5,112.5,167/1000,33,91.91
624,B3,112.5,0.125,69,91.91
625,A5,112.667,167/1000,37,91.91
626,A3,112.75,0.125,69,91.91
627,G5,112.833,167/1000,33,91.91
628,A5,113.0,167/1000,37,91.91
629,G5,113.0,73/500,84,91.91
630,G3,113.0,0.125,75,91.91
631,G5,113.167,167/1000,33,91.91
632,F3,113.25,0.125,69,91.91
633,A5,113.333,167/1000,38,91.91
634,G5,113.5,167/1000,32,91.91
635,E3,113.5,0.125,69,91.91
636,A5,113.667,167/1000,37,91.91
637,D3,113.75,0.125,69,91.91
638,G5,113.833,167/1000,32,91.91
639,A5,114.0,167/1000,38,91.91
640,C6,114.0,1.0,87,91.91
641,C3,114.0,0.125,75,91.91
642,G5,114.167,167/1000,32,91.91
643,C3,114.25,0.125,69,91.91
644,A5,114.333,167/1000,37,91.91
645,G5,114.5,167/1000,32,91.91
646,B2,114.5,0.125,69,91.91
647,A5,114.667,167/1000,36,91.91
648,A2,114.75,0.125,69,91.91
649,G5,114.833,167/1000,32,91.91
650,A5,115.0,167/1000,36,91.91
651,E6,115.0,0.5,84,91.91
652,G2,115.0,0.125,72,91.91
653,G5,115.167,167/1000,34,91.91
654,F2,115.25,0.125,71,91.91
655,A5,115.333,167/1000,37,91.91
656,G5,115.5,167/1000,33,91.91
657,E2,115.5,0.125,75,91.91
658,A5,115.667,167/1000,36,91.91
659,D2,115.75,0.125,80,91.91
660,G5,115.833,167/1000,32,91.91
661,A5,116.0,167/1000,36,91.91
662,C2,116.0,0.5,95,91.91
663,C3,116.0,0.5,95,91.91
664,G5,116.167,167/1000,32,91.91
665,D3,116.25,0.125,56,91.91
666,A5,116.333,167/1000,37,91.91
667,E3,116.375,0.125,57,91.91
668,G5,116.5,167/1000,33,91.91
669,F3,116.5,0.125,60,91.91
670,G3,116.625,0.125,60,91.91
671,A5,116.667,167/1000,38,91.91
672,A3,116.75,0.125,62,91.91
673,G5,116.833,167/1000,33,91.91
674,B3,116.875,0.125,63,91.91
675,A5,117.0,167/1000,39,91.91
676,G6,117.0,0.5,90,91.91
677,C4,117.0,0.25,63,91.91
678,G5,117.167,167/1000,35,91.91
679,D4,117.25,0.125,65,91.91
680,A5,117.333,167/1000,40,91.91
681,E4,117.375,0.125,66,91.91
682,G5,117.5,167/1000,36,91.91
683,F4,117.5,0.125,67,91.91
684,G4,117.625,0.125,69,91.91
685,A5,117.667,167/1000,40,91.91
686,A4,117.75,0.125,70,91.91
687,G5,117.833,167/1000,36,91.91
688,B4,117.875,0.125,71,91.91
689,A5,118.0,167/1000,40,91.91
690,G6,118.0,1.5,92,91.91
691,C5,118.0,0.125,74,91.91
692,G5,118.167,167/1000,37,91.91
693,B4,118.25,0.125,71,91.91
694,A5,118.333,167/1000,40,91.91
695,G5,118.5,167/1000,36,91.91
696,A4,118.5,0.125,71,91.91
697,A5,118.667,167/1000,40,91.91
698,G4,118.75,0.125,71,91.91
699,G5,118.833,167/1000,36,91.91
700,A5,119.0,167/1000,39,91.91
701,F4,119.0,0.125,72,91.91
702,G5,119.167,167/1000,36,91.91
703,E4,119.25,0.125,69,91.91
704,A5,119.333,167/1000,38,91.91
705,G5,119.5,167/1000,32,91.91
706,E6,119.5,0.5,84,91.91
707,D4,119.5,0.125,69,91.91
708,A5,119.667,167/1000,37,91.91
709,C4,119.75,0.125,67,91.91
710,G5,119.833,167/1000,33,91.91
711,A5,120.0,167/1000,39,91.91
712,D6,120.0,1.0,90,91.91
713,B3,120.0,0.125,73,91.91
714,G5,120.167,167/1000,32,91.91
715,C4,120.25,0.125,69,91.91
716,A5,120.333,167/1000,36,91.91
717,G5,120.5,167/1000,31,91.91
718,B3,120.5,0.125,69,91.91
719,A5,120.667,167/1000,36,91.91
720,A3,120.75,0.125,69,91.91
721,G5,120.833,167/1000,30,91.91
722,A5,121.0,167/1000,36,91.91
723,G5,121.0,73/500,82,91.91
724,G3,121.0,0.125,75,91.91
725,G5,121.167,167/1000,31,91.91
726,F3,121.25,0.125,69,91.91
727,A5,121.333,167/1000,36,91.91
728,G5,121.5,167/1000,34,91.91
729,E3,121.5,0.125,69,91.91
730,F#5,121.667,167/1000,36,91.91
731,D3,121.75,0.125,69,91.91
732,G5,121.833,167/1000,31,91.91
733,C6,122.0,0.5,86,91.91
734,C3,122.0,0.5,75,91.91
735,C2,122.5,0.5,75,91.91
736,C4,123.0,167/1000,68,91.91
737,E4,123.167,167/1000,62,91.91
738,C4,123.333,167/1000,62,91.91
739,G3,123.5,167/1000,62,91.91
740,C2,123.5,0.5,66,91.91
741,C3,123.5,0.5,66,91.91
742,E3,123.667,167/1000,62,91.91
743,G3,123.833,167/1000,62,91.91
744,C4,124.0,167/1000,68,91.91
745,F4,124.167,167/1000,62,91.91
746,C4,124.333,167/1000,62,91.91
747,A3,124.5,167/1000,62,91.91
748,C2,124.5,0.5,66,91.91
749,C3,124.5,0.5,66,91.91
750,F3,124.667,167/1000,62,91.91
751,A3,124.833,167/1000,62,91.91
752,C4,125.0,167/1000,68,91.91
753,E4,125.167,167/1000,61,91.91
754,C4,125.333,167/1000,61,91.91
755,G3,125.5,167/1000,61,91.91
756,C2,125.5,0.5,62,91.91
757,C3,125.5,0.5,62,91.91
758,E3,125.667,167/1000,61,91.91
759,G3,125.833,167/1000,61,91.91
760,C4,126.0,167/1000,63,91.91
761,D4,126.167,167/1000,59,91.91
762,C4,126.333,167/1000,59,91.91
763,F3,126.5,167/1000,59,91.91
764,C2,126.5,0.5,58,91.91
765,C3,126.5,0.5,58,91.91
766,D3,126.667,167/1000,59,91.91
767,F3,126.833,167/1000,59,91.91
768,C4,127.0,167/1000,68,91.91
769,E-4,127.167,167/1000,61,91.91
770,C4,127.333,167/1000,61,91.91
771,F#3,127.5,167/1000,61,91.91
772,C2,127.5,0.5,64,91.91
773,C3,127.5,0.5,64,91.91
774,E-3,127.667,167/1000,61,91.91
775,F#3,127.833,167/1000,61,91.91
776,C4,128.0,167/1000,68,91.91
777,E4,128.167,167/1000,62,91.91
778,C4,128.333,167/1000,62,91.91
779,G3,128.5,167/1000,62,91.91
780,C2,128.5,0.5,66,91.91
781,C3,128.5,0.5,66,91.91
782,E3,128.667,167/1000,62,91.91
783,G3,128.833,167/1000,62,91.91
784,B3,129.0,167/1000,68,91.91
785,D4,129.167,167/1000,61,91.91
786,B3,129.333,167/1000,61,91.91
787,F3,129.5,167/1000,61,91.91
788,C2,129.5,0.5,66,91.91
789,C3,129.5,0.5,66,91.91
790,D3,129.667,167/1000,61,91.91
791,F3,129.833,167/1000,61,91.91
792,G3,130.0,167/1000,68,91.91
793,C4,130.167,167/1000,62,91.91
794,G3,130.333,167/1000,62,91.91
795,E3,130.5,167/1000,62,91.91
796,C2,130.5,0.5,71,91.91
797,C3,130.667,167/1000,62,91.91
798,E3,130.833,167/1000,62,91.91
799,E4,131.0,167/1000,68,91.91
800,G4,131.167,167/1000,62,91.91
801,E4,131.333,167/1000,62,91.91
802,C4,131.5,167/1000,62,91.91
803,C3,131.5,0.5,64,91.91
804,E2,131.5,0.5,64,91.91
805,E3,131.5,0.5,64,91.91
806,G3,131.667,167/1000,62,91.91
807,C4,131.833,167/1000,62,91.91
808,F4,132.0,167/1000,68,91.91
809,A4,132.167,167/1000,62,91.91
810,F4,132.333,167/1000,62,91.91
811,C4,132.5,167/1000,62,91.91
812,C3,132.5,0.5,64,91.91
813,F2,132.5,0.5,64,91.91
814,F3,132.5,0.5,64,91.91
815,A3,132.667,167/1000,62,91.91
816,C4,132.833,167/1000,62,91.91
817,E4,133.0,167/1000,68,91.91
818,G4,133.167,167/1000,61,91.91
819,E4,133.333,167/1000,61,91.91
820,C4,133.5,167/1000,61,91.91
821,C3,133.5,0.5,61,91.91
822,E2,133.5,0.5,61,91.91
823,E3,133.5,0.5,61,91.91
824,G3,133.667,167/1000,61,91.91
825,C4,133.833,167/1000,61,91.91
826,D4,134.0,167/1000,63,91.91
827,F4,134.167,167/1000,59,91.91
828,D4,134.333,167/1000,59,91.91
829,C4,134.5,167/1000,59,91.91
830,C3,134.5,0.5,56,91.91
831,D2,134.5,0.5,56,91.91
832,D3,134.5,0.5,56,91.91
833,F3,134.667,167/1000,59,91.91
834,C4,134.833,167/1000,59,91.91
835,E-4,135.0,167/1000,68,91.91
836,F#4,135.167,167/1000,61,91.91
837,E-4,135.333,167/1000,61,91.91
838,C4,135.5,167/1000,61,91.91
839,C3,135.5,0.5,63,91.91
840,E-2,135.5,0.5,63,91.91
841,E-3,135.5,0.5,63,91.91
842,F#3,135.667,167/1000,61,91.91
843,C4,135.833,167/1000,61,91.91
844,E4,136.0,167/1000,68,91.91
845,G4,136.167,167/1000,62,91.91
846,E4,136.333,167/1000,62,91.91
847,C4,136.5,167/1000,62,91.91
848,C3,136.5,0.5,64,91.91
849,E2,136.5,0.5,64,91.91
850,E3,136.5,0.5,64,91.91
851,G3,136.667,167/1000,62,91.91
852,C4,136.833,167/1000,62,91.91
853,D4,137.0,167/1000,68,91.91
854,F4,137.167,167/1000,61,91.91
855,D4,137.333,167/1000,61,91.91
856,B3,137.5,167/1000,61,91.91
857,C3,137.5,0.5,64,91.91
858,D2,137.5,0.5,64,91.91
859,D3,137.5,0.5,64,91.91
860,F3,137.667,167/1000,61,91.91
861,B3,137.833,167/1000,61,91.91
862,C4,138.0,167/1000,68,91.91
863,E4,138.167,167/1000,62,91.91
864,C4,138.333,167/1000,62,91.91
865,E3,138.5,167/1000,62,91.91
866,C2,138.5,0.5,63,91.91
867,C3,138.5,0.5,63,91.91
868,E4,138.667,167/1000,62,91.91
869,E3,138.833,167/1000,62,91.91
870,E2,139.0,0.25,82,91.91
871,E3,139.167,167/1000,70,91.91
872,E4,139.333,167/1000,70,91.91
873,E2,139.5,0.25,82,91.91
874,E3,139.667,167/1000,71,91.91
875,E4,139.833,167/1000,72,91.91
876,A1,140.0,0.25,74,91.91
877,A2,140.0,0.25,74,91.91
878,A3,140.167,167/1000,73,91.91
879,A4,140.333,167/1000,74,91.91
880,B1,140.5,0.25,76,91.91
881,B2,140.5,0.25,76,91.91
882,B3,140.667,167/1000,75,91.91
883,B4,140.833,167/1000,77,91.91
884,C2,141.0,0.25,78,91.91
885,C3,141.0,0.25,78,91.91
886,C4,141.167,167/1000,78,91.91
887,C5,141.333,167/1000,79,91.91
888,D2,141.5,0.25,82,91.91
889,D3,141.5,0.25,82,91.91
890,D4,141.667,167/1000,80,91.91
891,D5,141.833,167/1000,81,91.91
892,E5,142.0,167/1000,85,91.91
893,E2,142.0,1.0,88,91.91
894,E3,142.0,1.0,88,91.91
895,E4,142.167,167/1000,85,91.91
896,E5,142.333,167/1000,84,91.91
897,E4,142.5,167/1000,84,91.91
898,E5,142.667,167/1000,84,91.91
899,E4,142.833,167/1000,82,91.91
900,E2,143.0,0.25,81,91.91
901,E3,143.0,0.25,81,91.91
902,E4,143.167,167/1000,79,91.91
903,E5,143.333,167/1000,78,91.91
904,D2,143.5,0.25,80,91.91
905,D3,143.5,0.25,80,91.91
906,D4,143.667,167/1000,77,91.91
907,D5,143.833,167/1000,77,91.91
908,C2,144.0,0.25,78,91.91
909,C3,144.0,0.25,78,91.91
910,C4,144.167,167/1000,75,91.91
911,C5,144.333,167/1000,75,91.91
912,B1,144.5,0.25,76,91.91
913,B2,144.5,0.25,76,91.91
914,B3,144.667,167/1000,74,91.91
915,B4,144.833,167/1000,74,91.91
916,C2,145.0,0.25,74,91.91
917,C3,145.0,0.25,74,91.91
918,C4,145.167,167/1000,73,91.91
919,C5,145.333,167/1000,73,91.91
920,A1,145.5,0.25,73,91.91
921,A2,145.5,0.25,73,91.91
922,A3,145.667,167/1000,72,91.91
923,A4,145.833,167/1000,73,91.91
924,E4,146.0,167/1000,85,91.91
925,E2,146.0,1.0,92,91.91
926,E3,146.167,167/1000,77,91.91
927,E4,146.333,167/1000,77,91.91
928,E3,146.5,167/1000,77,91.91
929,E4,146.667,167/1000,77,91.91
930,E3,146.833,167/1000,77,91.91
931,E2,147.0,0.25,76,91.91
932,E3,147.0,0.25,76,91.91
933,E4,147.167,167/1000,70,91.91
934,E5,147.333,167/1000,70,91.91
935,E2,147.5,0.25,76,91.91
936,E3,147.5,0.25,76,91.91
937,E4,147.667,167/1000,71,91.91
938,E5,147.833,167/1000,72,91.91
939,A2,148.0,0.25,74,91.91
940,A3,148.0,0.25,74,91.91
941,A4,148.167,167/1000,73,91.91
942,A5,148.333,167/1000,74,91.91
943,B2,148.5,0.25,76,91.91
944,B3,148.5,0.25,76,91.91
945,B4,148.667,167/1000,75,91.91
946,B5,148.833,167/1000,77,91.91
947,C3,149.0,0.25,78,91.91
948,C4,149.0,0.25,78,91.91
949,C5,149.167,167/1000,78,91.91
950,C6,149.333,167/1000,79,91.91
951,D3,149.5,0.25,82,91.91
952,D4,149.5,0.25,82,91.91
953,D5,149.667,167/1000,80,91.91
954,D6,149.833,167/1000,81,91.91
955,E6,150.0,167/1000,85,91.91
956,E3,150.0,1.0,88,91.91
957,E4,150.0,1.0,88,91.91
958,E5,150.167,167/1000,85,91.91
959,E6,150.333,167/1000,84,91.91
960,E5,150.5,167/1000,84,91.91
961,E6,150.667,167/1000,84,91.91
962,E5,150.833,167/1000,82,91.91
963,E3,151.0,0.25,81,91.91
964,E4,151.0,0.25,81,91.91
965,E5,151.167,167/1000,79,91.91
966,E6,151.333,167/1000,78,91.91
967,D3,151.5,0.25,80,91.91
968,D4,151.5,0.25,80,91.91
969,D5,151.667,167/1000,77,91.91
970,D6,151.833,167/1000,77,91.91
971,C3,152.0,0.25,78,91.91
972,C4,152.0,0.25,78,91.91
973,C5,152.167,167/1000,75,91.91
974,C6,152.333,167/1000,75,91.91
975,B2,152.5,0.25,76,91.91
976,B3,152.5,0.25,76,91.91
977,B4,152.667,167/1000,74,91.91
978,B5,152.833,167/1000,74,91.91
979,C3,153.0,0.25,74,91.91
980,C4,153.0,0.25,74,91.91
981,C5,153.167,167/1000,73,91.91
982,C6,153.333,167/1000,73,91.91
983,A2,153.5,0.25,73,91.91
984,A3,153.5,0.25,73,91.91
985,A4,153.667,167/1000,72,91.91
986,A5,153.833,167/1000,73,91.91
987,E5,154.0,167/1000,82,91.91
988,E2,154.0,1.0,76,91.91
989,E3,154.0,1.0,76,91.91
990,E4,154.167,167/1000,78,91.91
991,E5,154.333,167/1000,78,91.91
992,E4,154.5,167/1000,78,91.91
993,E5,154.667,167/1000,78,91.91
994,E4,154.833,167/1000,78,91.91
995,A5,155.0,167/1000,80,91.91
996,F2,155.0,0.25,67,91.91
997,A2,155.0,0.25,67,91.91
998,F3,155.0,0.25,67,91.91
999,A4,155.167,167/1000,75,91.91
1000,A5,155.333,167/1000,75,91.91
1001,A4,155.5,167/1000,75,91.91
1002,F2,155.5,0.25,64,91.91
1003,A2,155.5,0.25,64,91.91
1004,F3,155.5,0.25,64,91.91
1005,A5,155.667,167/1000,75,91.91
1006,A4,155.833,167/1000,75,91.91
1007,A5,156.0,167/1000,82,91.91
1008,E2,156.0,0.25,67,91.91
1009,A2,156.0,0.25,67,91.91
1010,E3,156.0,0.25,67,91.91
1011,A4,156.167,167/1000,75,91.91
1012,A5,156.333,167/1000,75,91.91
1013,A4,156.5,167/1000,75,91.91
1014,E2,156.5,0.25,67,91.91
1015,A2,156.5,0.25,67,91.91
1016,E3,156.5,0.25,67,91.91
1017,A5,156.667,167/1000,75,91.91
1018,A4,156.833,167/1000,75,91.91
1019,A5,157.0,167/1000,82,91.91
1020,D2,157.0,0.25,67,91.91
1021,A2,157.0,0.25,67,91.91
1022,D3,157.0,0.25,67,91.91
1023,A4,157.167,167/1000,75,91.91
1024,A5,157.333,167/1000,75,91.91
1025,A4,157.5,167/1000,75,91.91
1026,D2,157.5,0.25,67,91.91
1027,A2,157.5,0.25,67,91.91
1028,D3,157.5,0.25,67,91.91
1029,A5,157.667,167/1000,75,91.91
1030,A4,157.833,167/1000,75,91.91
1031,A5,158.0,167/1000,81,91.91
1032,C2,158.0,0.25,67,91.91
1033,A2,158.0,0.25,67,91.91
1034,C3,158.0,0.25,67,91.91
1035,A4,158.167,167/1000,75,91.91
1036,A5,158.333,167/1000,75,91.91
1037,A4,158.5,167/1000,75,91.91
1038,C2,158.5,0.25,67,91.91
1039,A2,158.5,0.25,67,91.91
1040,C3,158.5,0.25,67,91.91
1041,A5,158.667,167/1000,75,91.91
1042,A4,158.833,167/1000,75,91.91
1043,F5,159.0,167/1000,81,91.91
1044,D2,159.0,0.25,64,91.91
1045,A2,159.0,0.25,64,91.91
1046,D3,159.0,0.25,64,91.91
1047,G5,159.167,167/1000,77,91.91
1048,A5,159.333,167/1000,77,91.91
1049,F5,159.5,167/1000,79,91.91
1050,D2,159.5,0.25,63,91.91
1051,A2,159.5,0.25,63,91.91
1052,D3,159.5,0.25,63,91.91
1053,E5,159.667,167/1000,75,91.91
1054,D5,159.833,167/1000,75,91.91
1055,C5,160.0,167/1000,80,91.91
1056,E2,160.0,0.25,67,91.91
1057,A2,160.0,0.25,67,91.91
1058,E3,160.0,0.25,67,91.91
1059,D5,160.167,167/1000,74,91.91
1060,E5,160.333,167/1000,74,91.91
1061,C5,160.5,167/1000,78,91.91
1062,E2,160.5,0.25,70,91.91
1063,E3,160.5,0.25,70,91.91
1064,B4,160.667,167/1000,71,91.91
1065,A4,160.833,167/1000,71,91.91
1066,B4,161.0,167/1000,81,91.91
1067,E2,161.0,0.25,68,91.91
1068,E3,161.0,0.25,68,91.91
1069,C5,161.167,167/1000,73,91.91
1070,D5,161.333,167/1000,73,91.91
1071,B4,161.5,167/1000,79,91.91
1072,E2,161.5,0.25,68,91.91
1073,E3,161.5,0.25,68,91.91
1074,A4,161.667,167/1000,75,91.91
1075,G#4,161.833,167/1000,75,91.91
1076,A4,162.0,167/1000,79,91.91
1077,C2,162.0,0.25,80,91.91
1078,A3,162.167,167/1000,75,91.91
1079,A2,162.25,0.25,66,91.91
1080,A4,162.333,167/1000,75,91.91
1081,A3,162.5,167/1000,75,91.91
1082,G#2,162.5,0.25,66,91.91
1083,A4,162.667,167/1000,75,91.91
1084,A2,162.75,0.25,66,91.91
1085,A3,162.833,167/1000,75,91.91
1086,A4,163.0,167/1000,80,91.91
1087,F2,163.0,0.25,84,91.91
1088,A3,163.167,167/1000,75,91.91
1089,A2,163.25,0.25,64,91.91
1090,A4,163.333,167/1000,75,91.91
1091,A3,163.5,167/1000,75,91.91
1092,G#2,163.5,0.25,64,91.91
1093,A4,163.667,167/1000,75,91.91
1094,A2,163.75,0.25,64,91.91
1095,A3,163.833,167/1000,75,91.91
1096,A4,164.0,167/1000,82,91.91
1097,E2,164.0,0.25,84,91.91
1098,A3,164.167,167/1000,75,91.91
1099,A2,164.25,0.25,67,91.91
1100,A4,164.333,167/1000,75,91.91
1101,A3,164.5,167/1000,75,91.91
1102,G#2,164.5,0.25,67,91.91
1103,A4,164.667,167/1000,75,91.91
1104,A2,164.75,0.25,67,91.91
1105,A3,164.833,167/1000,75,91.91
1106,A4,165.0,167/1000,82,91.91
1107,D2,165.0,0.25,82,91.91
1108,A3,165.167,167/1000,75,91.91
1109,A2,165.25,0.25,66,91.91
1110,A4,165.333,167/1000,75,91.91
1111,A3,165.5,167/1000,75,91.91
1112,G#2,165.5,0.25,66,91.91
1113,A4,165.667,167/1000,75,91.91
1114,A2,165.75,0.25,66,91.91
1115,A3,165.833,167/1000,75,91.91
1116,A4,166.0,167/1000,81,91.91
1117,C2,166.0,0.25,82,91.91
1118,A3,166.167,167/1000,75,91.91
1119,A2,166.25,0.25,63,91.91
1120,A4,166.333,167/1000,75,91.91
1121,A3,166.5,167/1000,75,91.91
1122,G#2,166.5,0.25,66,91.91
1123,A4,166.667,167/1000,75,91.91
1124,A2,166.75,0.25,67,91.91
1125,A3,166.833,167/1000,75,91.91
1126,F4,167.0,167/1000,81,91.91
1127,D2,167.0,0.25,85,91.91
1128,G4,167.167,167/1000,77,91.91
1129,A2,167.25,0.25,66,91.91
1130,A4,167.333,167/1000,77,91.91
1131,F4,167.5,167/1000,79,91.91
1132,D2,167.5,0.25,66,91.91
1133,E4,167.667,167/1000,75,91.91
1134,A2,167.75,0.25,66,91.91
1135,D4,167.833,167/1000,75,91.91
1136,C4,168.0,167/1000,80,91.91
1137,E2,168.0,0.25,85,91.91
1138,D4,168.167,167/1000,74,91.91
1139,A2,168.25,0.25,67,91.91
1140,E4,168.333,167/1000,74,91.91
1141,C4,168.5,167/1000,78,91.91
1142,E2,168.5,0.25,74,91.91
1143,B3,168.667,167/1000,71,91.91
1144,E3,168.75,0.25,67,91.91
1145,A3,168.833,167/1000,71,91.91
1146,B3,169.0,167/1000,81,91.91
1147,E2,169.0,0.25,83,91.91
1148,C4,169.167,167/1000,73,91.91
1149,E3,169.25,0.25,66,91.91
1150,D4,169.333,167/1000,73,91.91
1151,B3,169.5,167/1000,79,91.91
1152,E2,169.5,0.25,69,91.91
1153,A3,169.667,167/1000,75,91.91
1154,E3,169.75,0.25,63,91.91
1155,G#3,169.833,167/1000,75,91.91
1156,A3,170.0,0.5,79,91.91
1157,A2,170.0,0.25,70,91.91
1158,E3,170.25,0.25,67,91.91
1159,C3,170.5,0.25,68,91.91
1160,E3,170.75,0.25,68,91.91
1161,A2,171.0,0.5,59,91.91
1162,B2,171.0,0.25,70,91.91
1163,E6,171.0,0.25,88,91.91
1164,E5,171.0,0.25,88,91.91
1165,E3,171.25,0.25,66,91.91
1166,A2,171.5,0.5,55,91.91
1167,D3,171.5,0.25,66,91.91
1168,E6,171.5,0.25,88,91.91
1169,E5,171.5,0.25,88,91.91
1170,E3,171.75,0.25,66,91.91
1171,A2,172.0,0.5,59,91.91
1172,C3,172.0,0.25,70,91.91
1173,E5,172.0,0.25,84,91.91
1174,E4,172.0,0.25,84,91.91
1175,E3,172.25,0.25,63,91.91
1176,A2,172.5,0.5,53,91.91
1177,C3,172.5,0.25,63,91.91
1178,E5,172.5,0.25,84,91.91
1179,E4,172.5,0.25,84,91.91
1180,E3,172.75,0.25,63,91.91
1181,A2,173.0,0.5,59,91.91
1182,B2,173.0,0.25,70,91.91
1183,E4,173.0,0.25,86,91.91
1184,E5,173.0,0.25,86,91.91
1185,E3,173.25,0.25,66,91.91
1186,A2,173.5,0.5,55,91.91
1187,D3,173.5,0.25,66,91.91
1188,G#4,173.5,0.25,90,91.91
1189,G#5,173.5,0.25,90,91.91
1190,E3,173.75,0.25,66,91.91
1191,A2,174.0,0.5,59,91.91
1192,C3,174.0,0.25,70,91.91
1193,A4,174.0,1.0,92,91.91
1194,A5,174.0,1.0,92,91.91
1195,A3,174.25,0.25,63,91.91
1196,E3,174.5,0.25,63,91.91
1197,A3,174.75,0.25,63,91.91
1198,B5,175.0,0.25,58,91.91
1199,A2,175.0,0.5,36,91.91
1200,D3,175.0,0.25,43,91.91
1201,D6,175.25,0.25,53,91.91
1202,G#3,175.25,0.25,37,91.91
1203,C6,175.5,0.25,53,91.91
1204,E3,175.5,0.25,37,91.91
1205,B5,175.75,0.25,53,91.91
1206,G#3,175.75,0.25,37,91.91
1207,C6,176.0,0.25,56,91.91
1208,A2,176.0,0.5,36,91.91
1209,C3,176.0,0.25,44,91.91
1210,E6,176.25,0.25,53,91.91
1211,A3,176.25,0.25,38,91.91
1212,D6,176.5,0.25,53,91.91
1213,E3,176.5,0.25,38,91.91
1214,C6,176.75,0.25,53,91.91
1215,A3,176.75,0.25,38,91.91
1216,B5,177.0,0.25,58,91.91
1217,A2,177.0,0.5,36,91.91
1218,D3,177.0,0.25,44,91.91
1219,D6,177.25,0.25,53,91.91
1220,G#3,177.25,0.25,38,91.91
1221,C6,177.5,0.25,53,91.91
1222,E3,177.5,0.25,38,91.91
1223,B5,177.75,0.25,53,91.91
1224,G#3,177.75,0.25,38,91.91
1225,A5,178.0,1.0,52,91.91
1226,A2,178.0,0.5,36,91.91
1227,C3,178.0,0.25,44,91.91
1228,A3,178.25,0.25,37,91.91
1229,E3,178.5,0.25,37,91.91
1230,A3,178.75,0.25,37,91.91
1231,A2,179.0,0.5,59,91.91
1232,B2,179.0,0.25,70,91.91
1233,E6,179.0,0.25,88,91.91
1234,E5,179.0,0.25,88,91.91
1235,E3,179.25,0.25,66,91.91
1236,A2,179.5,0.5,55,91.91
1237,D3,179.5,0.25,66,91.91
1238,E6,179.5,0.25,88,91.91
1239,E5,179.5,0.25,88,91.91
1240,E3,179.75,0.25,66,91.91
1241,A2,180.0,0.5,59,91.91
1242,C3,180.0,0.25,70,91.91
1243,E5,180.0,0.25,84,91.91
1244,E4,180.0,0.25,84,91.91
1245,E3,180.25,0.25,63,91.91
1246,A2,180.5,0.5,53,91.91
1247,C3,180.5,0.25,63,91.91
1248,E5,180.5,0.25,84,91.91
1249,E4,180.5,0.25,84,91.91
1250,E3,180.75,0.25,63,91.91
1251,A2,181.0,0.5,59,91.91
1252,B2,181.0,0.25,70,91.91
1253,E4,181.0,0.25,86,91.91
1254,E5,181.0,0.25,86,91.91
1255,E3,181.25,0.25,66,91.91
1256,A2,181.5,0.5,55,91.91
1257,D3,181.5,0.25,66,91.91
1258,G#4,181.5,0.25,90,91.91
1259,G#5,181.5,0.25,90,91.91
1260,E3,181.75,0.25,66,91.91
1261,A2,182.0,0.5,59,91.91
1262,C3,182.0,0.25,70,91.91
1263,A4,182.0,1.0,92,91.91
1264,A5,182.0,1.0,92,91.91
1265,A3,182.25,0.25,63,91.91
1266,E3,182.5,0.25,63,91.91
1267,A3,182.75,0.25,63,91.91
1268,B5,183.0,0.25,58,91.91
1269,D3,183.0,0.25,43,91.91
1270,A2,183.0,0.5,36,91.91
1271,D6,183.25,0.25,53,91.91
1272,G#3,183.25,0.25,37,91.91
1273,C6,183.5,0.25,53,91.91
1274,E3,183.5,0.25,37,91.91
1275,B5,183.75,0.25,52,91.91
1276,G#3,183.75,0.25,37,91.91
1277,C6,184.0,0.25,55,91.91
1278,C3,184.0,0.25,43,91.91
1279,A2,184.0,0.5,35,91.91
1280,E6,184.25,0.25,52,91.91
1281,A3,184.25,0.25,37,91.91
1282,D6,184.5,0.25,51,91.91
1283,E3,184.5,0.25,37,91.91
1284,C6,184.75,0.25,51,91.91
1285,A3,184.75,0.25,37,91.91
1286,B5,185.0,0.25,56,91.91
1287,D3,185.0,0.25,43,91.91
1288,A2,185.0,0.5,35,91.91
1289,D6,185.25,0.25,51,91.91
1290,G#3,185.25,0.25,37,91.91
1291,C6,185.5,0.25,51,91.91
1292,E3,185.5,0.25,37,91.91
1293,B5,185.75,0.25,51,91.91
1294,G#3,185.75,0.25,37,91.91
1295,A5,186.0,0.25,53,91.91
1296,A2,186.0,0.5,34,91.91
1297,C3,186.0,0.25,42,91.91
1298,C6,186.25,0.25,49,91.91
1299,A3,186.25,0.25,36,91.91
1300,B5,186.5,0.25,48,91.91
1301,E3,186.5,0.25,35,91.91
1302,A5,186.75,0.25,48,91.91
1303,A3,186.75,0.25,35,91.91
1304,B5,187.0,0.25,52,91.91
1305,D3,187.0,0.25,37,91.91
1306,A2,187.0,0.5,32,91.91
1307,D6,187.25,0.25,46,91.91
1308,G#3,187.25,0.25,33,91.91
1309,C6,187.5,0.25,46,91.91
1310,E3,187.5,0.25,33,91.91
1311,B5,187.75,0.25,45,91.91
1312,G#3,187.75,0.25,32,91.91
1313,C6,188.0,0.25,46,91.91
1314,C3,188.0,0.25,38,91.91
1315,A2,188.0,0.5,31,91.91
1316,E6,188.25,0.25,43,91.91
1317,A3,188.25,0.25,33,91.91
1318,D6,188.5,0.25,42,91.91
1319,E3,188.5,0.25,32,91.91
1320,C6,188.75,0.25,42,91.91
1321,A3,188.75,0.25,32,91.91
1322,B5,189.0,0.25,45,91.91
1323,D3,189.0,0.25,34,91.91
1324,A2,189.0,0.5,29,91.91
1325,D6,189.25,0.25,40,91.91
1326,G#3,189.25,0.25,31,91.91
1327,C6,189.5,0.25,39,91.91
1328,E3,189.5,0.25,29,91.91
1329,B5,189.75,0.25,39,91.91
1330,G#3,189.75,0.25,29,91.91
1331,A5,190.0,0.25,39,91.91
1332,A2,190.0,0.5,26,91.91
1333,C3,190.0,0.25,32,91.91
1334,C6,190.25,0.25,37,91.91
1335,A3,190.25,0.25,28,91.91
1336,B5,190.5,0.25,37,91.91
1337,E3,190.5,0.25,28,91.91
1338,A5,190.75,0.25,37,91.91
1339,A3,190.75,0.25,28,91.91
1340,B5,191.0,0.25,41,91.91
1341,D3,191.0,0.25,32,91.91
1342,A2,191.0,0.5,26,91.91
1343,D6,191.25,0.25,37,91.91
1344,G#3,191.25,0.25,28,91.91
1345,C6,191.5,0.25,37,91.91
1346,E3,191.5,0.25,28,91.91
1347,B5,191.75,0.25,37,91.91
1348,G#3,191.75,0.25,28,91.91
1349,A5,192.0,0.25,39,91.91
1350,A2,192.0,0.5,26,91.91
1351,C3,192.0,0.25,32,91.91
1352,C6,192.25,0.25,37,91.91
1353,A3,192.25,0.25,28,91.91
1354,B5,192.5,0.25,37,91.91
1355,E3,192.5,0.25,28,91.91
1356,A5,192.75,0.25,37,91.91
1357,A3,192.75,0.25,28,91.91
1358,B5,193.0,0.25,41,91.91
1359,D3,193.0,0.25,32,91.91
1360,A2,193.0,0.5,26,91.91
1361,D6,193.25,0.25,37,91.91
1362,G#3,193.25,0.25,28,91.91
1363,C6,193.5,0.25,37,91.91
1364,E3,193.5,0.25,28,91.91
1365,B5,193.75,0.25,37,91.91
1366,G#3,193.75,0.25,28,91.91
1367,A5,194.0,0.5,92,91.91
1368,A2,194.0,0.5,62,91.91
1369,A3,194.0,0.5,62,91.91
1370,E5,195.0,0.5,92,91.91
1371,E4,195.0,0.5,63,91.91
1372,E5,196.0,1.5,97,91.91
1373,E4,196.0,1.5,74,91.91
1374,C5,197.5,0.5,53,91.91
1375,C4,197.5,0.5,47,91.91
1376,B4,198.0,1.0,58,91.91
1377,B3,198.0,1.0,50,91.91
1378,E4,199.0,1.0,54,91.91
1379,E3,199.0,1.0,47,91.91
1380,A4,200.0,0.5,54,91.91
1381,A3,200.0,0.5,47,91.91
1382,F3,202.0,0.5,102,91.91
1383,F1,202.0,0.5,74,91.91
1384,F2,202.0,0.5,74,91.91
1385,C4,203.0,0.5,74,91.91
1386,C5,203.0,0.5,92,91.91
1387,C6,203.0,0.5,92,91.91
1388,C4,204.0,1.5,79,91.91
1389,C5,204.0,1.5,95,91.91
1390,C6,204.0,1.5,95,91.91
1391,A3,205.5,0.5,48,91.91
1392,A4,205.5,0.5,57,91.91
1393,A5,205.5,0.5,57,91.91
1394,G3,206.0,1.0,53,91.91
1395,G4,206.0,1.0,60,91.91
1396,G5,206.0,1.0,60,91.91
1397,C3,207.0,1.0,49,91.91
1398,C4,207.0,1.0,56,91.91
1399,C5,207.0,1.0,56,91.91
1400,F3,208.0,0.5,49,91.91
1401,F4,208.0,0.5,56,91.91
1402,F5,208.0,0.5,56,91.91
1403,G3,210.0,0.5,103,91.91
1404,G1,210.0,0.5,90,91.91
1405,G2,210.0,0.5,90,91.91
1406,F4,211.0,0.5,80,91.91
1407,F5,211.0,0.5,76,91.91
1408,F6,211.0,0.5,76,91.91
1409,F4,212.0,1.5,81,91.91
1410,F5,212.0,1.5,80,91.91
1411,F6,212.0,1.5,80,91.91
1412,D4,213.5,0.5,53,91.91
1413,D5,213.5,0.5,61,91.91
1414,D6,213.5,0.5,61,91.91
1415,B3,214.0,1.0,59,91.91
1416,B4,214.0,1.0,64,91.91
1417,B5,214.0,1.0,64,91.91
1418,G3,215.0,1.0,55,91.91
1419,G4,215.0,1.0,54,91.91
1420,G5,215.0,1.0,54,91.91
1421,F3,216.0,1.5,55,91.91
1422,F4,216.0,1.5,59,91.91
1423,F5,216.0,1.5,59,91.91
1424,D3,217.5,0.5,44,91.91
1425,D4,217.5,0.5,48,91.91
1426,D5,217.5,0.5,48,91.91
1427,B2,218.0,1.0,51,91.91
1428,B3,218.0,1.0,50,91.91
1429,B4,218.0,1.0,50,91.91
1430,G2,219.0,1.0,36,91.91
1431,G3,219.0,1.0,45,91.91
1432,G4,219.0,1.0,45,91.91
1433,F2,220.0,1.5,41,91.91
1434,F3,220.0,1.5,47,91.91
1435,F4,220.0,1.5,47,91.91
1436,D2,221.5,0.5,33,91.91
1437,D3,221.5,0.5,37,91.91
1438,D4,221.5,0.5,37,91.91
1439,B1,222.0,1.0,33,91.91
1440,B2,222.0,1.0,37,91.91
1441,B3,222.0,1.0,37,91.91
1442,G3,224.0,1.0,40,91.91
1443,G1,224.0,1.0,30,91.91
1444,G2,224.0,1.0,30,91.91
1445,C2,226.0,0.5,50,91.91
1446,E3,226.25,0.25,28,91.91
1447,G3,226.5,0.25,30,91.91
1448,C4,226.75,0.25,32,91.91
1449,E4,227.0,0.25,34,91.91
1450,G5,227.0,0.5,50,91.91
1451,E3,227.25,0.25,31,91.91
1452,G3,227.5,0.25,31,91.91
1453,C4,227.75,0.25,31,91.91
1454,E4,228.0,0.25,35,91.91
1455,G5,228.0,1.5,54,91.91
1456,E3,228.25,0.25,30,91.91
1457,G3,228.5,0.25,31,91.91
1458,C4,228.75,0.25,33,91.91
1459,E4,229.0,0.25,36,91.91
1460,E3,229.25,0.25,33,91.91
1461,G3,229.5,0.25,33,91.91
1462,E5,229.5,0.5,47,91.91
1463,C4,229.75,0.25,33,91.91
1464,D5,230.0,1.0,50,91.91
1465,F3,230.25,0.25,28,91.91
1466,G3,230.5,0.25,31,91.91
1467,B3,230.75,0.25,33,91.91
1468,D4,231.0,0.25,36,91.91
1469,G4,231.0,1.0,41,91.91
1470,F3,231.25,0.25,33,91.91
1471,G3,231.5,0.25,33,91.91
1472,B3,231.75,0.25,34,91.91
1473,C5,232.0,1.0,50,91.91
1474,E3,232.25,0.25,28,91.91
1475,G3,232.5,0.25,30,91.91
1476,C4,232.75,0.25,32,91.91
1477,E4,233.0,0.25,34,91.91
1478,E5,233.0,0.5,47,91.91
1479,E3,233.25,0.25,32,91.91
1480,G3,233.5,0.25,32,91.91
1481,C4,233.75,0.25,33,91.91
1482,C3,233.75,0.25,31,91.91
1483,C2,234.0,0.5,50,91.91
1484,E3,234.25,0.25,28,91.91
1485,G3,234.5,0.25,30,91.91
1486,C4,234.75,0.25,32,91.91
1487,E4,235.0,0.25,34,91.91
1488,G5,235.0,0.5,50,91.91
1489,E3,235.25,0.25,31,91.91
1490,G3,235.5,0.25,31,91.91
1491,C4,235.75,0.25,31,91.91
1492,E4,236.0,0.25,35,91.91
1493,G5,236.0,1.5,54,91.91
1494,E3,236.25,0.25,30,91.91
1495,G3,236.5,0.25,31,91.91
1496,C4,236.75,0.25,33,91.91
1497,E4,237.0,0.25,36,91.91
1498,E3,237.25,0.25,33,91.91
1499,G3,237.5,0.25,33,91.91
1500,E5,237.5,0.5,47,91.91
1501,C4,237.75,0.25,33,91.91
1502,D5,238.0,1.0,50,91.91
1503,F3,238.25,0.25,28,91.91
1504,G3,238.5,0.25,31,91.91
1505,B3,238.75,0.25,33,91.91
1506,D4,239.0,0.25,36,91.91
1507,G4,239.0,1.0,41,91.91
1508,F3,239.25,0.25,33,91.91
1509,G3,239.5,0.25,33,91.91
1510,B3,239.75,0.25,34,91.91
1511,C5,240.0,0.5,50,91.91
1512,E3,240.5,0.25,30,91.91
1513,G3,240.75,0.25,32,91.91
1514,C4,241.0,0.25,34,91.91
1515,E4,241.25,0.25,32,91.91
1516,D4,241.5,0.25,32,91.91
1517,C4,241.75,0.25,33,91.91
1518,G2,241.75,0.25,30,91.91
1519,B3,242.0,0.25,35,91.91
1520,G1,242.0,0.5,45,91.91
1521,G3,242.25,0.25,28,91.91
1522,B3,242.5,0.25,30,91.91
1523,D4,242.75,0.25,32,91.91
1524,G4,243.0,0.25,34,91.91
1525,F5,243.0,0.5,50,91.91
1526,G3,243.25,0.25,31,91.91
1527,B3,243.5,0.25,31,91.91
1528,D4,243.75,0.25,31,91.91
1529,G4,244.0,0.25,35,91.91
1530,F5,244.0,1.5,54,91.91
1531,G3,244.25,0.25,30,91.91
1532,B3,244.5,0.25,31,91.91
1533,D4,244.75,0.25,33,91.91
1534,G4,245.0,0.25,36,91.91
1535,G3,245.25,0.25,33,91.91
1536,B3,245.5,0.25,33,91.91
1537,D5,245.5,0.5,47,91.91
1538,G4,245.75,0.25,33,91.91
1539,E5,246.0,1.0,50,91.91
1540,G3,246.25,0.25,28,91.91
1541,C4,246.5,0.25,31,91.91
1542,G4,246.75,0.25,33,91.91
1543,C5,247.0,1.0,41,91.91
1544,G3,247.25,0.25,28,91.91
1545,E4,247.5,0.25,31,91.91
1546,G4,247.75,0.25,33,91.91
1547,B4,248.0,1.0,50,91.91
1548,G3,248.25,0.25,28,91.91
1549,D4,248.5,0.25,30,91.91
1550,G4,248.75,0.25,32,91.91
1551,D5,249.0,0.5,47,91.91
1552,G3,249.25,0.25,28,91.91
1553,B3,249.5,0.25,30,91.91
1554,G4,249.75,0.25,32,91.91
1555,G2,249.75,0.25,32,91.91
1556,G1,250.0,0.5,48,91.91
1557,G3,250.25,0.25,28,91.91
1558,B3,250.5,0.25,30,91.91
1559,D4,250.75,0.25,32,91.91
1560,G4,251.0,0.25,34,91.91
1561,F5,251.0,0.5,50,91.91
1562,G3,251.25,0.25,31,91.91
1563,B3,251.5,0.25,31,91.91
1564,D4,251.75,0.25,31,91.91
1565,G4,252.0,0.25,35,91.91
1566,F5,252.0,1.5,54,91.91
1567,G3,252.25,0.25,30,91.91
1568,B3,252.5,0.25,31,91.91
1569,D4,252.75,0.25,33,91.91
1570,G4,253.0,0.25,36,91.91
1571,G3,253.25,0.25,33,91.91
1572,B3,253.5,0.25,33,91.91
1573,D5,253.5,0.5,47,91.91
1574,G4,253.75,0.25,33,91.91
1575,E-5,254.0,1.0,50,91.91
1576,G3,254.25,0.25,28,91.91
1577,C4,254.5,0.25,31,91.91
1578,G4,254.75,0.25,33,91.91
1579,C5,255.0,1.0,41,91.91
1580,G3,255.25,0.25,28,91.91
1581,E-4,255.5,0.25,31,91.91
1582,G4,255.75,0.25,33,91.91
1583,B4,256.0,1.0,50,91.91
1584,G3,256.25,0.25,28,91.91
1585,D4,256.5,0.25,30,91.91
1586,G4,256.75,0.25,32,91.91
1587,D5,257.0,1.0,47,91.91
1588,G3,257.25,0.25,28,91.91
1589,B3,257.5,0.25,30,91.91
1590,G4,257.75,0.25,32,91.91
1591,E5,258.0,1.0,50,91.91
1592,G3,258.25,0.25,28,91.91
1593,C4,258.5,0.25,31,91.91
1594,G4,258.75,0.25,33,91.91
1595,C5,259.0,1.0,41,91.91
1596,G3,259.25,0.25,28,91.91
1597,E4,259.5,0.25,31,91.91
1598,G4,259.75,0.25,33,91.91
1599,B4,260.0,1.0,50,91.91
1600,G3,260.25,0.25,28,91.91
1601,D4,260.5,0.25,30,91.91
1602,G4,260.75,0.25,32,91.91
1603,D5,261.0,1.0,47,91.91
1604,G3,261.25,0.25,28,91.91
1605,B3,261.5,0.25,30,91.91
1606,G4,261.75,0.25,32,91.91
1607,E-5,262.0,1.0,50,91.91
1608,G3,262.25,0.25,28,91.91
1609,C4,262.5,0.25,31,91.91
1610,G4,262.75,0.25,33,91.91
1611,C5,263.0,1.0,41,91.91
1612,G3,263.25,0.25,28,91.91
1613,C4,263.5,0.25,31,91.91
1614,E-4,263.75,0.25,33,91.91
1615,G5,264.0,99/100,50,91.91
1616,G3,264.25,0.25,28,91.91
1617,B3,264.5,0.25,30,91.91
1618,D4,264.75,0.25,32,91.91
1619,G5,265.0,99/100,47,91.91
1620,G3,265.25,0.25,28,91.91
1621,C4,265.5,0.25,30,91.91
1622,E-4,265.75,0.25,32,91.91
1623,G5,266.0,99/100,50,91.91
1624,G3,266.25,0.25,28,91.91
1625,B3,266.5,0.25,30,91.91
1626,D4,266.75,0.25,32,91.91
1627,G5,267.0,99/100,47,91.91
1628,G3,267.25,0.25,28,91.91
1629,C4,267.5,0.25,30,91.91
1630,E-4,267.75,0.25,32,91.91
1631,G5,268.0,99/100,50,91.91
1632,G3,268.25,0.25,28,91.91
1633,B3,268.5,0.25,30,91.91
1634,D4,268.75,0.25,32,91.91
1635,G5,269.0,99/100,47,91.91
1636,G3,269.25,0.25,28,91.91
1637,A3,269.5,0.25,30,91.91
1638,C4,269.75,0.25,32,91.91
1639,G5,270.0,1.0,47,91.91
1640,G3,270.25,0.25,36,91.91
1641,B3,270.5,0.25,38,91.91
1642,D4,270.75,0.25,35,91.91
1643,G4,271.0,0.25,43,91.91
1644,B4,271.25,0.25,39,91.91
1645,A4,271.5,0.25,41,91.91
1646,F#4,271.75,0.25,38,91.91
1647,G4,272.0,0.25,43,91.91
1648,B3,272.25,0.25,38,91.91
1649,D4,272.5,0.25,41,91.91
1650,G4,272.75,0.25,38,91.91
1651,B4,273.0,0.25,46,91.91
1652,D5,273.25,0.25,41,91.91
1653,C5,273.5,0.25,41,91.91
1654,A4,273.75,0.25,37,91.91
1655,B4,274.0,0.25,47,91.91
1656,G4,274.25,0.25,42,91.91
1657,B4,274.5,0.25,47,91.91
1658,D5,274.75,0.25,43,91.91
1659,G5,275.0,0.25,51,91.91
1660,B5,275.25,0.25,46,91.91
1661,A5,275.5,0.25,48,91.91
1662,F#5,275.75,0.25,43,91.91
1663,G5,276.0,0.25,52,91.91
1664,B5,276.25,0.25,52,91.91
1665,A5,276.5,0.25,53,91.91
1666,C6,276.75,0.25,54,91.91
1667,B5,277.0,0.25,55,91.91
1668,D6,277.25,0.25,56,91.91
1669,C#6,277.5,0.25,56,91.91
1670,E6,277.75,0.25,57,91.91
1671,D6,278.0,0.25,58,91.91
1672,F6,278.25,0.25,59,91.91
1673,E6,278.5,0.25,60,91.91
1674,G6,278.75,0.25,56,91.91
1675,F6,279.0,0.25,61,91.91
1676,A6,279.25,0.25,62,91.91
1677,F6,279.5,0.25,63,91.91
1678,E6,279.75,0.25,59,91.91
1679,D6,280.0,0.25,65,91.91
1680,F6,280.25,0.25,66,91.91
1681,E6,280.5,0.25,66,91.91
1682,G6,280.75,0.25,64,91.91
1683,F6,281.0,0.25,68,91.91
1684,A6,281.25,0.25,69,91.91
1685,F6,281.5,0.25,70,91.91
1686,E6,281.75,0.25,66,91.91
1687,D6,282.0,0.25,69,91.91
1688,F6,282.25,0.25,65,91.91
1689,E6,282.5,0.25,67,91.91
1690,C6,282.75,0.25,60,91.91
1691,B5,283.0,0.25,64,91.91
1692,D6,283.25,0.25,59,91.91
1693,C6,283.5,0.25,62,91.91
1694,A5,283.75,0.25,55,91.91
1695,G5,284.0,0.25,59,91.91
1696,B5,284.25,0.25,54,91.91
1697,A5,284.5,0.25,56,91.91
1698,F5,284.75,0.25,51,91.91
1699,E5,285.0,0.25,54,91.91
1700,G5,285.25,0.25,46,91.91
1701,F5,285.5,0.25,49,91.91
1702,D5,285.75,0.25,42,91.91
1703,C5,286.0,0.25,49,91.91
1704,C2,286.0,0.25,50,91.91
1705,G2,286.25,0.25,30,91.91
1706,C3,286.5,0.25,32,91.91
1707,E3,286.75,0.25,34,91.91
1708,G3,287.0,0.25,31,91.91
1709,G6,287.0,0.5,50,91.91
1710,G5,287.0,0.5,50,91.91
1711,C3,287.25,0.25,31,91.91
1712,E3,287.5,0.25,31,91.91
1713,G3,287.75,0.25,35,91.91
1714,C4,288.0,0.25,30,91.91
1715,G6,288.0,1.5,54,91.91
1716,G5,288.0,1.5,54,91.91
1717,E3,288.25,0.25,31,91.91
1718,G3,288.5,0.25,33,91.91
1719,C4,288.75,0.25,36,91.91
1720,E4,289.0,0.25,33,91.91
1721,G3,289.25,0.25,33,91.91
1722,C4,289.5,0.25,33,91.91
1723,E6,289.5,0.5,47,91.91
1724,E5,289.5,0.5,47,91.91
1725,E4,289.75,0.25,36,91.91
1726,F4,290.0,0.25,28,91.91
1727,D6,290.0,1.0,50,91.91
1728,D5,290.0,1.0,50,91.91
1729,E4,290.25,0.25,31,91.91
1730,D4,290.5,0.25,33,91.91
1731,C4,290.75,0.25,36,91.91
1732,B3,291.0,0.25,33,91.91
1733,G5,291.0,1.0,41,91.91
1734,G4,291.0,1.0,41,91.91
1735,A3,291.25,0.25,33,91.91
1736,G3,291.5,0.25,34,91.91
1737,F3,291.75,0.25,34,91.91
1738,E3,292.0,0.25,28,91.91
1739,C6,292.0,1.0,50,91.91
1740,C5,292.0,1.0,50,91.91
1741,G3,292.25,0.25,30,91.91
1742,C3,292.5,0.25,32,91.91
1743,E3,292.75,0.25,34,91.91
1744,G2,293.0,0.25,32,91.91
1745,E6,293.0,0.5,47,91.91
1746,E5,293.0,0.5,47,91.91
1747,C3,293.25,0.25,32,91.91
1748,E2,293.5,0.25,33,91.91
1749,G2,293.75,0.25,34,91.91
1750,C2,294.0,0.25,50,91.91
1751,G2,294.25,0.25,30,91.91
1752,C3,294.5,0.25,32,91.91
1753,E3,294.75,0.25,34,91.91
1754,G3,295.0,0.25,31,91.91
1755,G6,295.0,0.5,50,91.91
1756,G5,295.0,0.5,50,91.91
1757,C3,295.25,0.25,31,91.91
1758,E3,295.5,0.25,31,91.91
1759,G3,295.75,0.25,35,91.91
1760,C4,296.0,0.25,30,91.91
1761,G6,296.0,1.5,54,91.91
1762,G5,296.0,1.5,54,91.91
1763,E3,296.25,0.25,31,91.91
1764,G3,296.5,0.25,33,91.91
1765,C4,296.75,0.25,36,91.91
1766,E4,297.0,0.25,33,91.91
1767,G3,297.25,0.25,33,91.91
1768,C4,297.5,0.25,33,91.91
1769,E6,297.5,0.5,47,91.91
1770,E5,297.5,0.5,47,91.91
1771,E4,297.75,0.25,33,91.91
1772,F4,298.0,0.25,28,91.91
1773,D6,298.0,1.0,50,91.91
1774,D5,298.0,1.0,50,91.91
1775,E4,298.25,0.25,31,91.91
1776,D4,298.5,0.25,33,91.91
1777,C4,298.75,0.25,36,91.91
1778,B3,299.0,0.25,33,91.91
1779,G5,299.0,1.0,41,91.91
1780,G4,299.0,1.0,41,91.91
1781,G3,299.25,0.25,33,91.91
1782,A3,299.5,0.25,34,91.91
1783,B3,299.75,0.25,34,91.91
1784,C4,300.0,0.25,28,91.91
1785,C6,300.0,0.5,50,91.91
1786,C5,300.0,0.5,50,91.91
1787,B3,300.25,0.25,30,91.91
1788,A3,300.5,0.25,32,91.91
1789,G3,300.75,0.25,34,91.91
1790,F3,301.0,0.25,32,91.91
1791,E3,301.25,0.25,32,91.91
1792,D3,301.5,0.25,33,91.91
1793,C3,301.75,0.25,35,91.91
1794,G2,302.0,0.25,45,91.91
1795,B2,302.25,0.25,30,91.91
1796,D3,302.5,0.25,32,91.91
1797,G3,302.75,0.25,34,91.91
1798,B2,303.0,0.25,31,91.91
1799,F6,303.0,0.5,50,91.91
1800,F5,303.0,0.5,50,91.91
1801,D3,303.25,0.25,31,91.91
1802,G3,303.5,0.25,31,91.91
1803,B3,303.75,0.25,35,91.91
1804,D3,304.0,0.25,30,91.91
1805,F6,304.0,1.5,54,91.91
1806,F5,304.0,1.5,54,91.91
1807,G3,304.25,0.25,31,91.91
1808,B3,304.5,0.25,33,91.91
1809,D4,304.75,0.25,36,91.91
1810,G3,305.0,0.25,33,91.91
1811,B3,305.25,0.25,33,91.91
1812,D4,305.5,0.25,33,91.91
1813,D6,305.5,0.5,47,91.91
1814,D5,305.5,0.5,47,91.91
1815,G4,305.75,0.25,36,91.91
1816,G3,306.0,0.25,28,91.91
1817,E6,306.0,1.0,50,91.91
1818,E5,306.0,1.0,50,91.91
1819,C4,306.25,0.25,31,91.91
1820,G4,306.5,0.25,33,91.91
1821,C4,306.75,0.25,36,91.91
1822,G3,307.0,0.25,28,91.91
1823,C6,307.0,1.0,41,91.91
1824,C5,307.0,1.0,41,91.91
1825,E4,307.25,0.25,31,91.91
1826,G4,307.5,0.25,33,91.91
1827,E4,307.75,0.25,36,91.91
1828,G3,308.0,0.25,28,91.91
1829,B5,308.0,1.0,50,91.91
1830,B4,308.0,1.0,50,91.91
1831,D4,308.25,0.25,30,91.91
1832,G4,308.5,0.25,32,91.91
1833,D4,308.75,0.25,36,91.91
1834,G3,309.0,0.25,28,91.91
1835,D6,309.0,0.5,47,91.91
1836,D5,309.0,0.5,47,91.91
1837,B3,309.25,0.25,30,91.91
1838,G4,309.5,0.25,32,91.91
1839,B3,309.75,0.25,35,91.91
1840,G2,310.0,0.25,48,91.91
1841,B2,310.25,0.25,30,91.91
1842,D3,310.5,0.25,32,91.91
1843,G3,310.75,0.25,34,91.91
1844,B2,311.0,0.25,31,91.91
1845,F6,311.0,0.5,50,91.91
1846,F5,311.0,0.5,50,91.91
1847,D3,311.25,0.25,31,91.91
1848,G3,311.5,0.25,31,91.91
1849,B3,311.75,0.25,35,91.91
1850,D3,312.0,0.25,30,91.91
1851,F6,312.0,1.5,54,91.91
1852,F5,312.0,1.5,54,91.91
1853,G3,312.25,0.25,31,91.91
1854,B3,312.5,0.25,33,91.91
1855,D4,312.75,0.25,36,91.91
1856,G3,313.0,0.25,33,91.91
1857,B3,313.25,0.25,33,91.91
1858,D4,313.5,0.25,33,91.91
1859,D6,313.5,0.5,47,91.91
1860,D5,313.5,0.5,47,91.91
1861,G4,313.75,0.25,36,91.91
1862,G3,314.0,0.25,28,91.91
1863,E-6,314.0,1.0,50,91.91
1864,E-5,314.0,1.0,50,91.91
1865,C4,314.25,0.25,31,91.91
1866,G4,314.5,0.25,33,91.91
1867,C4,314.75,0.25,35,91.91
1868,G3,315.0,0.25,28,91.91
1869,C6,315.0,1.0,41,91.91
1870,C5,315.0,1.0,41,91.91
1871,E-4,315.25,0.25,31,91.91
1872,G4,315.5,0.25,33,91.91
1873,E-4,315.75,0.25,35,91.91
1874,G3,316.0,0.25,28,91.91
1875,B5,316.0,1.0,50,91.91
1876,B4,316.0,1.0,50,91.91
1877,D4,316.25,0.25,30,91.91
1878,G4,316.5,0.25,32,91.91
1879,D4,316.75,0.25,35,91.91
1880,G3,317.0,0.25,28,91.91
1881,D6,317.0,1.0,47,91.91
1882,D5,317.0,1.0,47,91.91
1883,B3,317.25,0.25,30,91.91
1884,G4,317.5,0.25,32,91.91
1885,B3,317.75,0.25,35,91.91
1886,G3,318.0,0.25,28,91.91
1887,E6,318.0,1.0,50,91.91
1888,E5,318.0,1.0,50,91.91
1889,C4,318.25,0.25,31,91.91
1890,G4,318.5,0.25,33,91.91
1891,C4,318.75,0.25,35,91.91
1892,G3,319.0,0.25,28,91.91
1893,C6,319.0,1.0,42,91.91
1894,C5,319.0,1.0,42,91.91
1895,E4,319.25,0.25,32,91.91
1896,G4,319.5,0.25,34,91.91
1897,E4,319.75,0.25,37,91.91
1898,G3,320.0,0.25,29,91.91
1899,B5,320.0,1.0,53,91.91
1900,B4,320.0,1.0,53,91.91
1901,D4,320.25,0.25,32,91.91
1902,G4,320.5,0.25,34,91.91
1903,D4,320.75,0.25,38,91.91
1904,G3,321.0,0.25,31,91.91
1905,D6,321.0,1.0,52,91.91
1906,D5,321.0,1.0,52,91.91
1907,B3,321.25,0.25,33,91.91
1908,G4,321.5,0.25,36,91.91
1909,B3,321.75,0.25,39,91.91
1910,G3,322.0,0.25,28,91.91
1911,E-6,322.0,1.0,50,91.91
1912,E-5,322.0,1.0,50,91.91
1913,C4,322.25,0.25,31,91.91
1914,G4,322.5,0.25,33,91.91
1915,C4,322.75,0.25,35,91.91
1916,G3,323.0,0.25,28,91.91
1917,C6,323.0,1.0,41,91.91
1918,C5,323.0,1.0,41,91.91
1919,C4,323.25,0.25,31,91.91
1920,E-4,323.5,0.25,33,91.91
1921,C4,323.75,0.25,35,91.91
1922,G5,324.0,1.0,50,91.91
1923,G3,324.0,0.25,28,91.91
1924,B3,324.25,0.25,30,91.91
1925,D4,324.5,0.25,32,91.91
1926,B3,324.75,0.25,35,91.91
1927,G5,325.0,1.0,47,91.91
1928,G3,325.0,0.25,28,91.91
1929,C4,325.25,0.25,30,91.91
1930,E-4,325.5,0.25,32,91.91
1931,C4,325.75,0.25,35,91.91
1932,A5,326.0,167/1000,37,91.91
1933,G3,326.0,0.125,47,91.91
1934,G5,326.167,167/1000,37,91.91
1935,B3,326.25,0.25,30,91.91
1936,A5,326.333,167/1000,37,91.91
1937,G5,326.5,167/1000,37,91.91
1938,D4,326.5,0.25,31,91.91
1939,A5,326.667,167/1000,38,91.91
1940,B3,326.75,0.25,32,91.91
1941,G5,326.833,167/1000,38,91.91
1942,A5,327.0,167/1000,39,91.91
1943,G3,327.0,0.125,53,91.91
1944,G5,327.167,167/1000,39,91.91
1945,C4,327.25,0.25,32,91.91
1946,A5,327.333,167/1000,39,91.91
1947,G5,327.5,167/1000,39,91.91
1948,E4,327.5,0.25,33,91.91
1949,A5,327.667,167/1000,40,91.91
1950,C4,327.75,0.25,34,91.91
1951,G5,327.833,167/1000,40,91.91
1952,A5,328.0,167/1000,41,91.91
1953,G3,328.0,0.125,57,91.91
1954,G5,328.167,167/1000,41,91.91
1955,B3,328.25,0.25,35,91.91
1956,A5,328.333,167/1000,41,91.91
1957,G5,328.5,167/1000,43,91.91
1958,D4,328.5,0.25,38,91.91
1959,A5,328.667,167/1000,43,91.91
1960,B3,328.75,0.25,38,91.91
1961,G5,328.833,167/1000,43,91.91
1962,A5,329.0,167/1000,44,91.91
1963,G3,329.0,0.125,64,91.91
1964,G5,329.167,167/1000,44,91.91
1965,A3,329.25,0.25,39,91.91
1966,A5,329.333,167/1000,45,91.91
1967,G5,329.5,167/1000,45,91.91
1968,C4,329.5,0.25,41,91.91
1969,A5,329.667,167/1000,45,91.91
1970,A3,329.75,0.25,43,91.91
1971,G5,329.833,167/1000,45,91.91
1972,A5,330.0,167/1000,47,91.91
1973,G3,330.0,0.125,71,91.91
1974,G5,330.167,167/1000,47,91.91
1975,B3,330.25,0.25,47,91.91
1976,A5,330.333,167/1000,47,91.91
1977,G5,330.5,167/1000,47,91.91
1978,A3,330.5,0.25,49,91.91
1979,A5,330.667,167/1000,47,91.91
1980,G3,330.75,0.25,50,91.91
1981,G5,330.833,167/1000,48,91.91
1982,A5,331.0,167/1000,48,91.91
1983,F3,331.0,0.125,76,91.91
1984,G5,331.167,167/1000,48,91.91
1985,A3,331.25,0.25,55,91.91
1986,A5,331.333,167/1000,49,91.91
1987,G5,331.5,167/1000,49,91.91
1988,G3,331.5,0.25,58,91.91
1989,A5,331.667,167/1000,50,91.91
1990,F3,331.75,0.25,62,91.91
1991,G5,331.833,167/1000,51,91.91
1992,A5,332.0,167/1000,51,91.91
1993,E3,332.0,0.125,85,91.91
1994,G5,332.167,167/1000,52,91.91
1995,G3,332.25,0.25,63,91.91
1996,A5,332.333,167/1000,52,91.91
1997,G5,332.5,167/1000,52,91.91
1998,F3,332.5,0.25,68,91.91
1999,A5,332.667,167/1000,54,91.91
2000,E3,332.75,0.25,70,91.91
2001,G5,332.833,167/1000,54,91.91
2002,A5,333.0,167/1000,54,91.91
2003,D3,333.0,0.125,90,91.91
2004,G5,333.167,167/1000,55,91.91
2005,F3,333.25,0.25,72,91.91
2006,A5,333.333,167/1000,55,91.91
2007,G5,333.5,167/1000,55,91.91
2008,E3,333.5,0.25,73,91.91
2009,A5,333.667,167/1000,56,91.91
2010,D3,333.75,0.25,79,91.91
2011,G5,333.833,167/1000,56,91.91
2012,A5,334.0,167/1000,48,91.91
2013,C2,334.0,0.5,94,91.91
2014,C3,334.0,0.5,94,91.91
2015,G5,334.167,167/1000,35,91.91
2016,D3,334.25,0.125,56,91.91
2017,A5,334.333,167/1000,38,91.91
2018,E3,334.375,0.125,57,91.91
2019,G5,334.5,167/1000,35,91.91
2020,F3,334.5,0.125,60,91.91
2021,G3,334.625,0.125,60,91.91
2022,A5,334.667,167/1000,38,91.91
2023,A3,334.75,0.125,62,91.91
2024,G5,334.833,167/1000,36,91.91
2025,B3,334.875,0.125,63,91.91
2026,A5,335.0,167/1000,40,91.91
2027,G6,335.0,0.5,89,91.91
2028,C4,335.0,0.25,63,91.91
2029,G5,335.167,167/1000,36,91.91
2030,D4,335.25,0.125,65,91.91
2031,A5,335.333,167/1000,40,91.91
2032,E4,335.375,0.125,66,91.91
2033,G5,335.5,167/1000,36,91.91
2034,F4,335.5,0.125,67,91.91
2035,G4,335.625,0.125,69,91.91
2036,A5,335.667,167/1000,40,91.91
2037,A4,335.75,0.125,70,91.91
2038,G5,335.833,167/1000,36,91.91
2039,B4,335.875,0.125,71,91.91
2040,A5,336.0,167/1000,40,91.91
2041,G6,336.0,1.5,90,91.91
2042,C5,336.0,0.125,74,91.91
2043,G5,336.167,167/1000,37,91.91
2044,B4,336.25,0.125,71,91.91
2045,A5,336.333,167/1000,40,91.91
2046,G5,336.5,167/1000,36,91.91
2047,A4,336.5,0.125,71,91.91
2048,A5,336.667,167/1000,40,91.91
2049,G4,336.75,0.125,71,91.91
2050,G5,336.833,167/1000,36,91.91
2051,A5,337.0,167/1000,40,91.91
2052,F4,337.0,0.125,72,91.91
2053,G5,337.167,167/1000,35,91.91
2054,E4,337.25,0.125,69,91.91
2055,A5,337.333,167/1000,38,91.91
2056,G5,337.5,167/1000,33,91.91
2057,E6,337.5,0.5,85,91.91
2058,D4,337.5,0.125,69,91.91
2059,A5,337.667,167/1000,38,91.91
2060,C4,337.75,0.125,67,91.91
2061,G5,337.833,167/1000,34,91.91
2062,A5,338.0,167/1000,38,91.91
2063,D6,338.0,1.0,90,91.91
2064,B3,338.0,0.125,73,91.91
2065,G5,338.167,167/1000,34,91.91
2066,C4,338.25,0.125,69,91.91
2067,A5,338.333,167/1000,36,91.91
2068,G5,338.5,167/1000,33,91.91
2069,B3,338.5,0.125,69,91.91
2070,A5,338.667,167/1000,37,91.91
2071,A3,338.75,0.125,69,91.91
2072,G5,338.833,167/1000,33,91.91
2073,A5,339.0,167/1000,37,91.91
2074,G5,339.0,73/500,84,91.91
2075,G3,339.0,0.125,75,91.91
2076,G5,339.167,167/1000,33,91.91
2077,F3,339.25,0.125,69,91.91
2078,A5,339.333,167/1000,38,91.91
2079,G5,339.5,167/1000,32,91.91
2080,E3,339.5,0.125,69,91.91
2081,A5,339.667,167/1000,37,91.91
2082,D3,339.75,0.125,69,91.91
2083,G5,339.833,167/1000,32,91.91
2084,A5,340.0,167/1000,38,91.91
2085,C6,340.0,1.0,87,91.91
2086,C3,340.0,0.125,75,91.91
2087,G5,340.167,167/1000,32,91.91
2088,C3,340.25,0.125,69,91.91
2089,A5,340.333,167/1000,37,91.91
2090,G5,340.5,167/1000,32,91.91
2091,B2,340.5,0.125,69,91.91
2092,A5,340.667,167/1000,36,91.91
2093,A2,340.75,0.125,69,91.91
2094,G5,340.833,167/1000,32,91.91
2095,A5,341.0,167/1000,36,91.91
2096,E6,341.0,0.5,84,91.91
2097,G2,341.0,0.125,72,91.91
2098,G5,341.167,167/1000,34,91.91
2099,F2,341.25,0.125,71,91.91
2100,A5,341.333,167/1000,37,91.91
2101,G5,341.5,167/1000,33,91.91
2102,E2,341.5,0.125,75,91.91
2103,A5,341.667,167/1000,36,91.91
2104,D2,341.75,0.125,80,91.91
2105,G5,341.833,167/1000,32,91.91
2106,A5,342.0,167/1000,36,91.91
2107,C2,342.0,0.5,95,91.91
2108,C3,342.0,0.5,95,91.91
2109,G5,342.167,167/1000,32,91.91
2110,D3,342.25,0.125,56,91.91
2111,A5,342.333,167/1000,37,91.91
2112,E3,342.375,0.125,57,91.91
2113,G5,342.5,167/1000,33,91.91
2114,F3,342.5,0.125,60,91.91
2115,G3,342.625,0.125,60,91.91
2116,A5,342.667,167/1000,38,91.91
2117,A3,342.75,0.125,62,91.91
2118,G5,342.833,167/1000,33,91.91
2119,B3,342.875,0.125,63,91.91
2120,A5,343.0,167/1000,39,91.91
2121,G6,343.0,0.5,90,91.91
2122,C4,343.0,0.25,63,91.91
2123,G5,343.167,167/1000,35,91.91
2124,D4,343.25,0.125,65,91.91
2125,A5,343.333,167/1000,40,91.91
2126,E4,343.375,0.125,66,91.91
2127,G5,343.5,167/1000,36,91.91
2128,F4,343.5,0.125,67,91.91
2129,G4,343.625,0.125,69,91.91
2130,A5,343.667,167/1000,40,91.91
2131,A4,343.75,0.125,70,91.91
2132,G5,343.833,167/1000,36,91.91
2133,B4,343.875,0.125,71,91.91
2134,A5,344.0,167/1000,40,91.91
2135,G6,344.0,1.5,92,91.91
2136,C5,344.0,0.125,74,91.91
2137,G5,344.167,167/1000,37,91.91
2138,B4,344.25,0.125,71,91.91
2139,A5,344.333,167/1000,40,91.91
2140,G5,344.5,167/1000,36,91.91
2141,A4,344.5,0.125,71,91.91
2142,A5,344.667,167/1000,40,91.91
2143,G4,344.75,0.125,71,91.91
2144,G5,344.833,167/1000,36,91.91
2145,A5,345.0,167/1000,39,91.91
2146,F4,345.0,0.125,72,91.91
2147,G5,345.167,167/1000,36,91.91
2148,E4,345.25,0.125,69,91.91
2149,A5,345.333,167/1000,38,91.91
2150,G5,345.5,167/1000,32,91.91
2151,E6,345.5,0.5,84,91.91
2152,D4,345.5,0.125,69,91.91
2153,A5,345.667,167/1000,37,91.91
2154,C4,345.75,0.125,67,91.91
2155,G5,345.833,167/1000,33,91.91
2156,A5,346.0,167/1000,39,91.91
2157,D6,346.0,1.0,90,91.91
2158,B3,346.0,0.125,73,91.91
2159,G5,346.167,167/1000,32,91.91
2160,C4,346.25,0.125,69,91.91
2161,A5,346.333,167/1000,36,91.91
2162,G5,346.5,167/1000,31,91.91
2163,B3,346.5,0.125,69,91.91
2164,A5,346.667,167/1000,36,91.91
2165,A3,346.75,0.125,69,91.91
2166,G5,346.833,167/1000,30,91.91
2167,A5,347.0,167/1000,36,91.91
2168,G5,347.0,73/500,82,91.91
2169,G3,347.0,0.125,75,91.91
2170,G5,347.167,167/1000,31,91.91
2171,F3,347.25,0.125,69,91.91
2172,A5,347.333,167/1000,36,91.91
2173,G5,347.5,167/1000,34,91.91
2174,E3,347.5,0.125,69,91.91
2175,F#5,347.667,167/1000,36,91.91
2176,D3,347.75,0.125,69,91.91
2177,G5,347.833,167/1000,31,91.91
2178,C6,348.0,0.5,86,91.91
2179,C3,348.0,0.5,75,91.91
2180,G1,348.5,0.25,77,91.91
2181,G2,348.5,0.25,77,91.91
2182,G3,348.75,0.25,67,91.91
2183,E-2,349.0,0.25,68,91.91
2184,E-3,349.0,0.25,68,91.91
2185,E-4,349.25,0.25,62,91.91
2186,D2,349.5,0.25,68,91.91
2187,D3,349.5,0.25,68,91.91
2188,D4,349.75,0.25,62,91.91
2189,C2,350.0,0.25,71,91.91
2190,C3,350.0,0.25,71,91.91
2191,C4,350.25,0.25,65,91.91
2192,G1,350.5,0.25,66,91.91
2193,G2,350.5,0.25,66,91.91
2194,G3,350.75,0.25,61,91.91
2195,A1,351.0,0.25,68,91.91
2196,A2,351.0,0.25,68,91.91
2197,A3,351.25,0.25,62,91.91
2198,B1,351.5,0.25,68,91.91
2199,B2,351.5,0.25,68,91.91
2200,B3,351.75,0.25,62,91.91
2201,C2,352.0,0.25,71,91.91
2202,C3,352.0,0.25,71,91.91
2203,C4,352.25,0.25,65,91.91
2204,C2,352.5,0.25,66,91.91
2205,C3,352.5,0.25,66,91.91
2206,C4,352.75,0.25,61,91.91
2207,G#2,353.0,0.25,72,91.91
2208,G#3,353.0,0.25,72,91.91
2209,G#4,353.25,0.25,66,91.91
2210,G2,353.5,0.25,68,91.91
2211,G3,353.5,0.25,68,91.91
2212,G4,353.75,0.25,62,91.91
2213,F2,354.0,0.25,74,91.91
2214,F3,354.0,0.25,74,91.91
2215,F4,354.25,0.25,68,91.91
2216,C2,354.5,0.25,69,91.91
2217,C3,354.5,0.25,69,91.91
2218,C4,354.75,0.25,63,91.91
2219,D2,355.0,0.25,69,91.91
2220,D3,355.0,0.25,69,91.91
2221,D4,355.25,0.25,63,91.91
2222,E2,355.5,0.25,69,91.91
2223,E3,355.5,0.25,69,91.91
2224,E4,355.75,0.25,63,91.91
2225,F2,356.0,0.25,72,91.91
2226,F3,356.0,0.25,72,91.91
2227,F4,356.25,0.25,66,91.91
2228,F2,356.5,0.25,68,91.91
2229,F3,356.5,0.25,68,91.91
2230,F4,356.75,0.25,62,91.91
2231,C#3,357.0,0.25,74,91.91
2232,C#4,357.0,0.25,74,91.91
2233,C#5,357.25,0.25,68,91.91
2234,C3,357.5,0.25,70,91.91
2235,C4,357.5,0.25,70,91.91
2236,C5,357.75,0.25,64,91.91
2237,B-2,358.0,0.25,74,91.91
2238,B-3,358.0,0.25,74,91.91
2239,B-4,358.25,0.25,68,91.91
2240,G#2,358.5,0.25,68,91.91
2241,G#3,358.5,0.25,68,91.91
2242,G#4,358.75,0.25,62,91.91
2243,G2,359.0,0.25,68,91.91
2244,G3,359.0,0.25,68,91.91
2245,G4,359.25,0.25,62,91.91
2246,F2,359.5,0.25,68,91.91
2247,F3,359.5,0.25,68,91.91
2248,F4,359.75,0.25,62,91.91
2249,E-2,360.0,0.25,76,91.91
2250,E-3,360.0,0.25,76,91.91
2251,E-4,360.25,0.25,69,91.91
2252,C#3,360.5,0.25,75,91.91
2253,E-4,360.75,0.25,63,91.91
2254,C3,361.0,0.25,75,91.91
2255,E-3,361.25,0.25,48,91.91
2256,G3,361.25,0.25,48,91.91
2257,E-4,361.25,0.25,48,91.91
2258,B-2,361.5,0.25,75,91.91
2259,F3,361.75,0.25,51,91.91
2260,G#3,361.75,0.25,51,91.91
2261,E-4,361.75,0.25,51,91.91
2262,G#2,362.0,0.25,84,91.91
2263,G3,362.25,0.25,57,91.91
2264,B-3,362.25,0.25,57,91.91
2265,E-4,362.25,0.25,57,91.91
2266,G2,362.5,0.25,76,91.91
2267,G#3,362.75,0.25,52,91.91
2268,C4,362.75,0.25,52,91.91
2269,E-4,362.75,0.25,52,91.91
2270,F2,363.0,0.25,76,91.91
2271,B-3,363.25,0.25,52,91.91
2272,C#4,363.25,0.25,52,91.91
2273,E-4,363.25,0.25,52,91.91
2274,E-2,363.5,0.25,76,91.91
2275,G3,363.75,0.25,52,91.91
2276,B-3,363.75,0.25,52,91.91
2277,E-4,363.75,0.25,52,91.91
2278,C4,364.0,0.5,82,91.91
2279,G#2,364.0,0.5,84,91.91
2280,B1,364.5,167/1000,63,91.91
2281,G3,364.5,0.25,79,91.91
2282,G4,364.5,0.25,79,91.91
2283,A1,364.667,167/1000,56,91.91
2284,B1,364.833,167/1000,57,91.91
2285,C2,365.0,167/1000,57,91.91
2286,E-4,365.0,0.25,68,91.91
2287,E-5,365.0,0.25,68,91.91
2288,E-2,365.167,167/1000,58,91.91
2289,F2,365.333,167/1000,59,91.91
2290,G2,365.5,167/1000,60,91.91
2291,D4,365.5,0.25,68,91.91
2292,D5,365.5,0.25,68,91.91
2293,A2,365.667,167/1000,62,91.91
2294,B2,365.833,167/1000,63,91.91
2295,C3,366.0,167/1000,60,91.91
2296,C4,366.0,0.25,71,91.91
2297,C5,366.0,0.25,71,91.91
2298,D3,366.167,167/1000,62,91.91
2299,E-3,366.333,167/1000,63,91.91
2300,F3,366.5,167/1000,65,91.91
2301,G3,366.5,0.25,66,91.91
2302,G4,366.5,0.25,66,91.91
2303,E-3,366.667,167/1000,63,91.91
2304,D3,366.833,167/1000,62,91.91
2305,C3,367.0,167/1000,63,91.91
2306,A3,367.0,0.25,68,91.91
2307,A4,367.0,0.25,68,91.91
2308,D3,367.167,167/1000,62,91.91
2309,E-3,367.333,167/1000,63,91.91
2310,F3,367.5,167/1000,65,91.91
2311,B3,367.5,0.25,68,91.91
2312,B4,367.5,0.25,68,91.91
2313,E-3,367.667,167/1000,64,91.91
2314,D3,367.833,167/1000,63,91.91
2315,C3,368.0,0.5,68,91.91
2316,C4,368.0,0.25,71,91.91
2317,C5,368.0,0.25,71,91.91
2318,E2,368.5,167/1000,63,91.91
2319,C4,368.5,0.25,66,91.91
2320,C5,368.5,0.25,66,91.91
2321,D2,368.667,167/1000,56,91.91
2322,E2,368.833,167/1000,56,91.91
2323,F2,369.0,167/1000,54,91.91
2324,G#4,369.0,0.25,72,91.91
2325,G#5,369.0,0.25,72,91.91
2326,G#2,369.167,167/1000,56,91.91
2327,B-2,369.333,167/1000,58,91.91
2328,C3,369.5,167/1000,60,91.91
2329,G4,369.5,0.25,68,91.91
2330,G5,369.5,0.25,68,91.91
2331,D3,369.667,167/1000,62,91.91
2332,E3,369.833,167/1000,63,91.91
2333,F3,370.0,167/1000,65,91.91
2334,F4,370.0,0.25,74,91.91
2335,F5,370.0,0.25,74,91.91
2336,G3,370.167,167/1000,65,91.91
2337,G#3,370.333,167/1000,66,91.91
2338,B-3,370.5,167/1000,68,91.91
2339,C4,370.5,0.25,69,91.91
2340,C5,370.5,0.25,69,91.91
2341,G#3,370.667,167/1000,65,91.91
2342,G3,370.833,167/1000,63,91.91
2343,F3,371.0,167/1000,60,91.91
2344,D4,371.0,0.25,69,91.91
2345,D5,371.0,0.25,69,91.91
2346,G3,371.167,167/1000,62,91.91
2347,G#3,371.333,167/1000,64,91.91
2348,B-3,371.5,167/1000,66,91.91
2349,E4,371.5,0.25,69,91.91
2350,E5,371.5,0.25,69,91.91
2351,G#3,371.667,167/1000,64,91.91
2352,G3,371.833,167/1000,63,91.91
2353,F3,372.0,0.5,67,91.91
2354,F4,372.0,0.25,72,91.91
2355,F5,372.0,0.25,72,91.91
2356,A2,372.5,167/1000,63,91.91
2357,F4,372.5,0.25,68,91.91
2358,F5,372.5,0.25,68,91.91
2359,G2,372.667,167/1000,58,91.91
2360,A2,372.833,167/1000,58,91.91
2361,B-2,373.0,167/1000,63,91.91
2362,C#5,373.0,0.25,74,91.91
2363,C#6,373.0,0.25,74,91.91
2364,C3,373.167,167/1000,58,91.91
2365,B-2,373.333,167/1000,58,91.91
2366,A2,373.5,167/1000,63,91.91
2367,C5,373.5,0.25,70,91.91
2368,C6,373.5,0.25,70,91.91
2369,G2,373.667,167/1000,60,91.91
2370,A2,373.833,167/1000,60,91.91
2371,B-2,374.0,167/1000,59,91.91
2372,B-4,374.0,0.25,74,91.91
2373,B-5,374.0,0.25,74,91.91
2374,A2,374.167,167/1000,59,91.91
2375,B-2,374.333,167/1000,60,91.91
2376,C3,374.5,167/1000,61,91.91
2377,G#4,374.5,0.25,68,91.91
2378,G#5,374.5,0.25,68,91.91
2379,B2,374.667,167/1000,59,91.91
2380,C3,374.833,167/1000,59,91.91
2381,C#3,375.0,167/1000,63,91.91
2382,G4,375.0,0.25,68,91.91
2383,G5,375.0,0.25,68,91.91
2384,C3,375.167,167/1000,61,91.91
2385,C#3,375.333,167/1000,61,91.91
2386,D3,375.5,167/1000,64,91.91
2387,F4,375.5,0.25,68,91.91
2388,F5,375.5,0.25,68,91.91
2389,C3,375.667,167/1000,62,91.91
2390,D3,375.833,167/1000,62,91.91
2391,E-3,376.0,167/1000,67,91.91
2392,E-4,376.0,0.25,76,91.91
2393,E-5,376.0,0.25,76,91.91
2394,F3,376.167,167/1000,63,91.91
2395,E-3,376.333,167/1000,63,91.91
2396,C#3,376.5,167/1000,67,91.91
2397,E-4,376.5,0.25,69,91.91
2398,E-5,376.5,0.25,69,91.91
2399,E-3,376.667,167/1000,63,91.91
2400,C#3,376.833,167/1000,63,91.91
2401,C3,377.0,167/1000,66,91.91
2402,E-4,377.0,0.25,65,91.91
2403,G4,377.0,0.25,65,91.91
2404,E-5,377.0,0.25,65,91.91
2405,C#3,377.167,167/1000,63,91.91
2406,C3,377.333,167/1000,63,91.91
2407,B-2,377.5,167/1000,66,91.91
2408,F4,377.5,0.25,65,91.91
2409,G#4,377.5,0.25,65,91.91
2410,E-5,377.5,0.25,65,91.91
2411,C3,377.667,167/1000,62,91.91
2412,B-2,377.833,167/1000,62,91.91
2413,G#2,378.0,167/1000,64,91.91
2414,G4,378.0,0.25,73,91.91
2415,B-4,378.0,0.25,73,91.91
2416,E-5,378.0,0.25,73,91.91
2417,B-2,378.167,167/1000,62,91.91
2418,G#2,378.333,167/1000,62,91.91
2419,G2,378.5,167/1000,64,91.91
2420,G#4,378.5,0.25,65,91.91
2421,C5,378.5,0.25,65,91.91
2422,E-5,378.5,0.25,65,91.91
2423,G#2,378.667,167/1000,61,91.91
2424,G2,378.833,167/1000,61,91.91
2425,F2,379.0,167/1000,63,91.91
2426,B-4,379.0,0.25,65,91.91
2427,C#5,379.0,0.25,65,91.91
2428,E-5,379.0,0.25,65,91.91
2429,G2,379.167,167/1000,62,91.91
2430,F2,379.333,167/1000,62,91.91
2431,E-2,379.5,167/1000,63,91.91
2432,G4,379.5,0.25,65,91.91
2433,B-4,379.5,0.25,65,91.91
2434,E-5,379.5,0.25,65,91.91
2435,F2,379.667,167/1000,60,91.91
2436,E-2,379.833,167/1000,60,91.91
2437,G#2,380.0,0.25,77,91.91
2438,G#4,380.0,0.5,74,91.91
2439,C5,380.0,0.5,74,91.91
2440,G4,380.5,167/1000,55,91.91
2441,E-2,380.5,0.25,79,91.91
2442,E-3,380.5,0.25,79,91.91
2443,F4,380.667,167/1000,56,91.91
2444,G4,380.833,167/1000,57,91.91
2445,G#4,381.0,167/1000,58,91.91
2446,C3,381.0,0.25,68,91.91
2447,C4,381.0,0.25,68,91.91
2448,C5,381.167,167/1000,60,91.91
2449,C#5,381.333,167/1000,61,91.91
2450,E-5,381.5,167/1000,62,91.91
2451,B-2,381.5,0.25,68,91.91
2452,B-3,381.5,0.25,68,91.91
2453,F5,381.667,167/1000,63,91.91
2454,G5,381.833,167/1000,63,91.91
2455,G#5,382.0,167/1000,63,91.91
2456,G#2,382.0,0.25,71,91.91
2457,G#3,382.0,0.25,71,91.91
2458,B-5,382.167,167/1000,63,91.91
2459,C6,382.333,167/1000,65,91.91
2460,C#6,382.5,167/1000,66,91.91
2461,E-2,382.5,0.25,66,91.91
2462,E-3,382.5,0.25,66,91.91
2463,C6,382.667,167/1000,63,91.91
2464,B-5,382.833,167/1000,63,91.91
2465,C#6,383.0,167/1000,66,91.91
2466,F2,383.0,0.25,68,91.91
2467,F3,383.0,0.25,68,91.91
2468,C6,383.167,167/1000,63,91.91
2469,B-5,383.333,167/1000,63,91.91
2470,C#6,383.5,167/1000,67,91.91
2471,G2,383.5,0.25,68,91.91
2472,G3,383.5,0.25,68,91.91
2473,C6,383.667,167/1000,63,91.91
2474,B-5,383.833,167/1000,63,91.91
2475,G#5,384.0,0.5,76,91.91
2476,G#2,384.0,0.25,71,91.91
2477,G#3,384.0,0.25,71,91.91
2478,E4,384.5,167/1000,55,91.91
2479,C2,384.5,0.25,66,91.91
2480,C3,384.5,0.25,66,91.91
2481,D4,384.667,167/1000,56,91.91
2482,E4,384.833,167/1000,57,91.91
2483,F4,385.0,167/1000,58,91.91
2484,G#2,385.0,0.25,72,91.91
2485,G#3,385.0,0.25,72,91.91
2486,G#4,385.167,167/1000,60,91.91
2487,B-4,385.333,167/1000,61,91.91
2488,C5,385.5,167/1000,62,91.91
2489,G2,385.5,0.25,68,91.91
2490,G3,385.5,0.25,68,91.91
2491,D5,385.667,167/1000,63,91.91
2492,E5,385.833,167/1000,63,91.91
2493,F5,386.0,167/1000,63,91.91
2494,F2,386.0,0.25,74,91.91
2495,F3,386.0,0.25,74,91.91
2496,G5,386.167,167/1000,63,91.91
2497,G#5,386.333,167/1000,65,91.91
2498,B-5,386.5,167/1000,66,91.91
2499,C2,386.5,0.25,69,91.91
2500,C3,386.5,0.25,69,91.91
2501,G#5,386.667,167/1000,63,91.91
2502,G5,386.833,167/1000,63,91.91
2503,B-5,387.0,167/1000,66,91.91
2504,D2,387.0,0.25,69,91.91
2505,D3,387.0,0.25,69,91.91
2506,G#5,387.167,167/1000,63,91.91
2507,G5,387.333,167/1000,63,91.91
2508,B-5,387.5,167/1000,67,91.91
2509,E2,387.5,0.25,69,91.91
2510,E3,387.5,0.25,69,91.91
2511,G#5,387.667,167/1000,63,91.91
2512,G5,387.833,167/1000,63,91.91
2513,G#5,388.0,167/1000,70,91.91
2514,F2,388.0,0.25,72,91.91
2515,F3,388.0,0.25,72,91.91
2516,B-5,388.167,167/1000,68,91.91
2517,G#5,388.333,167/1000,68,91.91
2518,G5,388.5,167/1000,70,91.91
2519,F3,388.5,0.25,68,91.91
2520,F4,388.5,0.25,68,91.91
2521,G#5,388.667,167/1000,66,91.91
2522,G5,388.833,167/1000,66,91.91
2523,F5,389.0,167/1000,69,91.91
2524,G#3,389.0,0.25,74,91.91
2525,G#4,389.0,0.25,74,91.91
2526,G5,389.167,167/1000,66,91.91
2527,F5,389.333,167/1000,65,91.91
2528,E-5,389.5,167/1000,69,91.91
2529,G3,389.5,0.25,70,91.91
2530,G4,389.5,0.25,70,91.91
2531,F5,389.667,167/1000,64,91.91
2532,E-5,389.833,167/1000,64,91.91
2533,D5,390.0,167/1000,68,91.91
2534,F3,390.0,0.25,74,91.91
2535,F4,390.0,0.25,74,91.91
2536,E-5,390.167,167/1000,64,91.91
2537,D5,390.333,167/1000,64,91.91
2538,E-5,390.5,167/1000,68,91.91
2539,E-3,390.5,0.25,68,91.91
2540,E-4,390.5,0.25,68,91.91
2541,F5,390.667,167/1000,64,91.91
2542,E-5,390.833,167/1000,64,91.91
2543,F5,391.0,167/1000,70,91.91
2544,D3,391.0,0.25,68,91.91
2545,D4,391.0,0.25,68,91.91
2546,G5,391.167,167/1000,65,91.91
2547,F5,391.333,167/1000,66,91.91
2548,F#5,391.5,167/1000,70,91.91
2549,C3,391.5,0.25,68,91.91
2550,C4,391.5,0.25,68,91.91
2551,G5,391.667,167/1000,66,91.91
2552,F#5,391.833,167/1000,66,91.91
2553,G5,392.0,167/1000,72,91.91
2554,B2,392.0,1.0,76,91.91
2555,B3,392.0,1.0,76,91.91
2556,G#5,392.167,167/1000,67,91.91
2557,G5,392.333,167/1000,67,91.91
2558,F#5,392.5,167/1000,67,91.91
2559,G5,392.667,167/1000,67,91.91
2560,F#5,392.833,167/1000,67,91.91
2561,G5,393.0,167/1000,72,91.91
2562,G2,393.0,0.5,70,91.91
2563,G3,393.0,0.5,70,91.91
2564,G#5,393.167,167/1000,67,91.91
2565,G5,393.333,167/1000,67,91.91
2566,F#5,393.5,167/1000,67,91.91
2567,G2,393.5,0.5,66,91.91
2568,G3,393.5,0.5,66,91.91
2569,G5,393.667,167/1000,67,91.91
2570,F#5,393.833,167/1000,67,91.91
2571,G5,394.0,167/1000,72,91.91
2572,G2,394.0,0.5,70,91.91
2573,G3,394.0,0.5,70,91.91
2574,G#5,394.167,167/1000,67,91.91
2575,G5,394.333,167/1000,67,91.91
2576,F5,394.5,167/1000,69,91.91
2577,G2,394.5,0.5,66,91.91
2578,G3,394.5,0.5,66,91.91
2579,G5,394.667,167/1000,65,91.91
2580,F5,394.833,167/1000,65,91.91
2581,E-5,395.0,167/1000,68,91.91
2582,G2,395.0,0.5,70,91.91
2583,G3,395.0,0.5,70,91.91
2584,F5,395.167,167/1000,63,91.91
2585,E-5,395.333,167/1000,63,91.91
2586,D5,395.5,167/1000,67,91.91
2587,G2,395.5,0.5,66,91.91
2588,G3,395.5,0.5,66,91.91
2589,E-5,395.667,167/1000,62,91.91
2590,D5,395.833,167/1000,62,91.91
2591,C5,396.0,0.5,82,91.91
2592,C3,396.0,0.5,78,91.91
2593,C4,396.0,0.5,78,91.91
2594,G2,396.5,167/1000,63,91.91
2595,E-4,396.5,0.25,79,91.91
2596,E-5,396.5,0.25,79,91.91
2597,F2,396.667,167/1000,56,91.91
2598,G2,396.833,167/1000,57,91.91
2599,G#2,397.0,167/1000,57,91.91
2600,C5,397.0,0.25,68,91.91
2601,C6,397.0,0.25,68,91.91
2602,C3,397.167,167/1000,58,91.91
2603,C#3,397.333,167/1000,59,91.91
2604,E-3,397.5,167/1000,60,91.91
2605,B-4,397.5,0.25,68,91.91
2606,B-5,397.5,0.25,68,91.91
2607,F3,397.667,167/1000,62,91.91
2608,G3,397.833,167/1000,63,91.91
2609,G#3,398.0,167/1000,60,91.91
2610,G#4,398.0,0.25,71,91.91
2611,G#5,398.0,0.25,71,91.91
2612,B-3,398.167,167/1000,62,91.91
2613,C4,398.333,167/1000,63,91.91
2614,C#4,398.5,167/1000,65,91.91
2615,E-4,398.5,0.25,66,91.91
2616,E-5,398.5,0.25,66,91.91
2617,C4,398.667,167/1000,63,91.91
2618,B-3,398.833,167/1000,62,91.91
2619,G#3,399.0,167/1000,63,91.91
2620,F4,399.0,0.25,68,91.91
2621,F5,399.0,0.25,68,91.91
2622,B-3,399.167,167/1000,62,91.91
2623,C4,399.333,167/1000,63,91.91
2624,C#4,399.5,167/1000,65,91.91
2625,G4,399.5,0.25,68,91.91
2626,G5,399.5,0.25,68,91.91
2627,C4,399.667,167/1000,64,91.91
2628,B-3,399.833,167/1000,63,91.91
2629,G#3,400.0,0.5,68,91.91
2630,G#4,400.0,0.25,71,91.91
2631,G#5,400.0,0.25,71,91.91
2632,E2,400.5,167/1000,63,91.91
2633,C4,400.5,0.25,66,91.91
2634,C5,400.5,0.25,66,91.91
2635,D2,400.667,167/1000,56,91.91
2636,E2,400.833,167/1000,56,91.91
2637,F2,401.0,167/1000,54,91.91
2638,G#4,401.0,0.25,72,91.91
2639,G#5,401.0,0.25,72,91.91
2640,G#2,401.167,167/1000,56,91.91
2641,B-2,401.333,167/1000,58,91.91
2642,C3,401.5,167/1000,60,91.91
2643,G4,401.5,0.25,68,91.91
2644,G5,401.5,0.25,68,91.91
2645,D3,401.667,167/1000,62,91.91
2646,E3,401.833,167/1000,63,91.91
2647,F3,402.0,167/1000,65,91.91
2648,F4,402.0,0.25,74,91.91
2649,F5,402.0,0.25,74,91.91
2650,G3,402.167,167/1000,65,91.91
2651,G#3,402.333,167/1000,66,91.91
2652,B-3,402.5,167/1000,68,91.91
2653,C4,402.5,0.25,69,91.91
2654,C5,402.5,0.25,69,91.91
2655,G#3,402.667,167/1000,65,91.91
2656,G3,402.833,167/1000,63,91.91
2657,F3,403.0,167/1000,60,91.91
2658,D4,403.0,0.25,69,91.91
2659,D5,403.0,0.25,69,91.91
2660,G3,403.167,167/1000,62,91.91
2661,G#3,403.333,167/1000,64,91.91
2662,B-3,403.5,167/1000,66,91.91
2663,E4,403.5,0.25,69,91.91
2664,E5,403.5,0.25,69,91.91
2665,G#3,403.667,167/1000,64,91.91
2666,G3,403.833,167/1000,63,91.91
2667,F3,404.0,0.5,67,91.91
2668,F4,404.0,0.25,72,91.91
2669,F5,404.0,0.25,72,91.91
2670,C2,404.5,167/1000,63,91.91
2671,F5,404.5,0.25,68,91.91
2672,F6,404.5,0.25,68,91.91
2673,D2,404.667,167/1000,58,91.91
2674,E2,404.833,167/1000,58,91.91
2675,F2,405.0,167/1000,63,91.91
2676,G#5,405.0,0.25,74,91.91
2677,G#6,405.0,0.25,74,91.91
2678,E2,405.167,167/1000,58,91.91
2679,F2,405.333,167/1000,58,91.91
2680,G2,405.5,167/1000,63,91.91
2681,G5,405.5,0.25,70,91.91
2682,G6,405.5,0.25,70,91.91
2683,F2,405.667,167/1000,60,91.91
2684,G2,405.833,167/1000,60,91.91
2685,G#2,406.0,167/1000,59,91.91
2686,F5,406.0,0.25,74,91.91
2687,F6,406.0,0.25,74,91.91
2688,B-2,406.167,167/1000,59,91.91
2689,G#2,406.333,167/1000,60,91.91
2690,G2,406.5,167/1000,61,91.91
2691,E-5,406.5,0.25,68,91.91
2692,E-6,406.5,0.25,68,91.91
2693,G#2,406.667,167/1000,59,91.91
2694,G2,406.833,167/1000,59,91.91
2695,F2,407.0,167/1000,63,91.91
2696,D5,407.0,0.25,68,91.91
2697,D6,407.0,0.25,68,91.91
2698,G2,407.167,167/1000,61,91.91
2699,F2,407.333,167/1000,61,91.91
2700,F#2,407.5,167/1000,64,91.91
2701,C5,407.5,0.25,68,91.91
2702,C6,407.5,0.25,68,91.91
2703,G2,407.667,167/1000,62,91.91
2704,F#2,407.833,167/1000,62,91.91
2705,G2,408.0,167/1000,67,91.91
2706,B4,408.0,1.0,76,91.91
2707,B5,408.0,1.0,76,91.91
2708,G#2,408.167,167/1000,63,91.91
2709,G2,408.333,167/1000,63,91.91
2710,F#2,408.5,167/1000,67,91.91
2711,G2,408.667,167/1000,63,91.91
2712,F#2,408.833,167/1000,63,91.91
2713,G2,409.0,167/1000,66,91.91
2714,G4,409.0,62/125,72,91.91
2715,G5,409.0,62/125,72,91.91
2716,G#2,409.167,167/1000,63,91.91
2717,G2,409.333,167/1000,63,91.91
2718,F#2,409.5,167/1000,66,91.91
2719,G4,409.5,62/125,68,91.91
2720,G5,409.5,62/125,68,91.91
2721,G2,409.667,167/1000,62,91.91
2722,F#2,409.833,167/1000,62,91.91
2723,G2,410.0,167/1000,64,91.91
2724,G4,410.0,62/125,72,91.91
2725,G5,410.0,62/125,72,91.91
2726,G#2,410.167,167/1000,62,91.91
2727,G2,410.333,167/1000,62,91.91
2728,F2,410.5,167/1000,64,91.91
2729,G4,410.5,62/125,66,91.91
2730,G5,410.5,62/125,66,91.91
2731,G2,410.667,167/1000,61,91.91
2732,F2,410.833,167/1000,61,91.91
2733,E-2,411.0,167/1000,63,91.91
2734,G4,411.0,62/125,72,91.91
2735,G5,411.0,62/125,72,91.91
2736,F2,411.167,167/1000,62,91.91
2737,E-2,411.333,167/1000,62,91.91
2738,D2,411.5,167/1000,63,91.91
2739,G4,411.5,62/125,68,91.91
2740,G5,411.5,62/125,68,91.91
2741,E-2,411.667,167/1000,60,91.91
2742,D2,411.833,167/1000,60,91.91
2743,C2,412.0,0.25,77,91.91
2744,C5,412.0,0.5,74,91.91
2745,C6,412.0,0.5,74,91.91
2746,C5,412.5,167/1000,55,91.91
2747,F2,412.5,0.25,79,91.91
2748,F3,412.5,0.25,79,91.91
2749,D5,412.667,167/1000,56,91.91
2750,E5,412.833,167/1000,57,91.91
2751,F5,413.0,167/1000,58,91.91
2752,G#2,413.0,0.25,68,91.91
2753,G#3,413.0,0.25,68,91.91
2754,E5,413.167,167/1000,60,91.91
2755,F5,413.333,167/1000,61,91.91
2756,G5,413.5,167/1000,62,91.91
2757,G2,413.5,0.25,68,91.91
2758,G3,413.5,0.25,68,91.91
2759,F5,413.667,167/1000,63,91.91
2760,G5,413.833,167/1000,63,91.91
2761,G#5,414.0,167/1000,68,91.91
2762,F2,414.0,0.25,74,91.91
2763,F3,414.0,0.25,74,91.91
2764,B-5,414.167,167/1000,64,91.91
2765,G#5,414.333,167/1000,64,91.91
2766,G5,414.5,167/1000,68,91.91
2767,E-2,414.5,0.25,68,91.91
2768,E-3,414.5,0.25,68,91.91
2769,G#5,414.667,167/1000,64,91.91
2770,G5,414.833,167/1000,64,91.91
2771,F5,415.0,167/1000,70,91.91
2772,D2,415.0,0.25,68,91.91
2773,D3,415.0,0.25,68,91.91
2774,G5,415.167,167/1000,65,91.91
2775,F5,415.333,167/1000,66,91.91
2776,F#5,415.5,167/1000,70,91.91
2777,C2,415.5,0.25,68,91.91
2778,C3,415.5,0.25,68,91.91
2779,G5,415.667,167/1000,66,91.91
2780,F#5,415.833,167/1000,66,91.91
2781,G5,416.0,167/1000,72,91.91
2782,B1,416.0,1.0,76,91.91
2783,B2,416.0,1.0,76,91.91
2784,G#5,416.167,167/1000,67,91.91
2785,G5,416.333,167/1000,67,91.91
2786,F#5,416.5,167/1000,67,91.91
2787,G5,416.667,167/1000,67,91.91
2788,F#5,416.833,167/1000,67,91.91
2789,G5,417.0,167/1000,72,91.91
2790,G1,417.0,62/125,70,91.91
2791,G2,417.0,62/125,70,91.91
2792,G#5,417.167,167/1000,67,91.91
2793,G5,417.333,167/1000,67,91.91
2794,F#5,417.5,167/1000,67,91.91
2795,G1,417.5,62/125,66,91.91
2796,G2,417.5,62/125,66,91.91
2797,G5,417.667,167/1000,67,91.91
2798,F#5,417.833,167/1000,67,91.91
2799,G5,418.0,167/1000,72,91.91
2800,G1,418.0,62/125,70,91.91
2801,G2,418.0,62/125,70,91.91
2802,G#5,418.167,167/1000,67,91.91
2803,G5,418.333,167/1000,67,91.91
2804,F5,418.5,167/1000,69,91.91
2805,G1,418.5,62/125,66,91.91
2806,G2,418.5,62/125,66,91.91
2807,G5,418.667,167/1000,65,91.91
2808,F5,418.833,167/1000,65,91.91
2809,E-5,419.0,167/1000,68,91.91
2810,G1,419.0,62/125,70,91.91
2811,G2,419.0,62/125,70,91.91
2812,F5,419.167,167/1000,63,91.91
2813,E-5,419.333,167/1000,63,91.91
2814,D5,419.5,167/1000,67,91.91
2815,G1,419.5,62/125,66,91.91
2816,G2,419.5,62/125,66,91.91
2817,E-5,419.667,167/1000,62,91.91
2818,D5,419.833,167/1000,62,91.91
2819,C5,420.0,167/1000,72,91.91
2820,C2,420.0,0.5,76,91.91
2821,C3,420.0,0.5,76,91.91
2822,B4,420.167,167/1000,67,91.91
2823,C5,420.333,167/1000,67,91.91
2824,D5,420.5,167/1000,67,91.91
2825,C5,420.667,167/1000,67,91.91
2826,D5,420.833,167/1000,67,91.91
2827,E-5,421.0,167/1000,75,91.91
2828,G2,421.0,62/125,73,91.91
2829,G3,421.0,62/125,73,91.91
2830,D5,421.167,167/1000,70,91.91
2831,E-5,421.333,167/1000,70,91.91
2832,F5,421.5,167/1000,70,91.91
2833,G2,421.5,62/125,70,91.91
2834,G3,421.5,62/125,70,91.91
2835,E-5,421.667,167/1000,70,91.91
2836,F5,421.833,167/1000,70,91.91
2837,G5,422.0,167/1000,75,91.91
2838,G2,422.0,62/125,73,91.91
2839,G3,422.0,62/125,73,91.91
2840,G#5,422.167,167/1000,70,91.91
2841,G5,422.333,167/1000,70,91.91
2842,F5,422.5,167/1000,72,91.91
2843,G2,422.5,62/125,68,91.91
2844,G3,422.5,62/125,68,91.91
2845,G5,422.667,167/1000,68,91.91
2846,F5,422.833,167/1000,68,91.91
2847,E-5,423.0,167/1000,71,91.91
2848,G2,423.0,62/125,73,91.91
2849,G3,423.0,62/125,73,91.91
2850,F5,423.167,167/1000,66,91.91
2851,E-5,423.333,167/1000,66,91.91
2852,D5,423.5,167/1000,70,91.91
2853,G2,423.5,62/125,70,91.91
2854,G3,423.5,62/125,70,91.91
2855,E-5,423.667,167/1000,65,91.91
2856,D5,423.833,167/1000,65,91.91
2857,C5,424.0,167/1000,75,91.91
2858,C3,424.0,0.5,79,91.91
2859,C4,424.0,0.5,79,91.91
2860,B4,424.167,167/1000,70,91.91
2861,C5,424.333,167/1000,70,91.91
2862,D5,424.5,167/1000,70,91.91
2863,C5,424.667,167/1000,70,91.91
2864,D5,424.833,167/1000,70,91.91
2865,E-5,425.0,167/1000,79,91.91
2866,G1,425.0,62/125,88,91.91
2867,G2,425.0,62/125,88,91.91
2868,D5,425.167,167/1000,73,91.91
2869,E-5,425.333,167/1000,73,91.91
2870,F5,425.5,167/1000,73,91.91
2871,G1,425.5,62/125,84,91.91
2872,G2,425.5,62/125,84,91.91
2873,E-5,425.667,167/1000,73,91.91
2874,F5,425.833,167/1000,73,91.91
2875,G5,426.0,167/1000,79,91.91
2876,G1,426.0,62/125,88,91.91
2877,G2,426.0,62/125,88,91.91
2878,G#5,426.167,167/1000,73,91.91
2879,G5,426.333,167/1000,73,91.91
2880,F5,426.5,167/1000,75,91.91
2881,G1,426.5,62/125,82,91.91
2882,G2,426.5,62/125,82,91.91
2883,G5,426.667,167/1000,71,91.91
2884,F5,426.833,167/1000,71,91.91
2885,E-5,427.0,167/1000,74,91.91
2886,G1,427.0,62/125,88,91.91
2887,G2,427.0,62/125,88,91.91
2888,F5,427.167,167/1000,69,91.91
2889,E-5,427.333,167/1000,69,91.91
2890,D5,427.5,167/1000,73,91.91
2891,G1,427.5,62/125,84,91.91
2892,G2,427.5,62/125,84,91.91
2893,E-5,427.667,167/1000,68,91.91
2894,D5,427.833,167/1000,68,91.91
2895,C5,428.0,167/1000,79,91.91
2896,C2,428.0,0.5,94,91.91
2897,C3,428.0,0.5,94,91.91
2898,B4,428.167,167/1000,69,91.91
2899,C5,428.333,167/1000,71,91.91
2900,D5,428.5,167/1000,73,91.91
2901,E-5,428.667,167/1000,75,91.91
2902,F5,428.833,167/1000,78,91.91
2903,G5,429.0,167/1000,80,91.91
2904,G1,429.0,0.5,88,91.91
2905,G2,429.0,0.5,88,91.91
2906,G#5,429.167,167/1000,77,91.91
2907,G5,429.333,167/1000,75,91.91
2908,F5,429.5,167/1000,74,91.91
2909,E-5,429.667,167/1000,73,91.91
2910,D5,429.833,167/1000,73,91.91
2911,C5,430.0,167/1000,79,91.91
2912,C2,430.0,0.5,94,91.91
2913,C3,430.0,0.5,94,91.91
2914,B4,430.167,167/1000,69,91.91
2915,C5,430.333,167/1000,71,91.91
2916,D5,430.5,167/1000,73,91.91
2917,E-5,430.667,167/1000,75,91.91
2918,F5,430.833,167/1000,78,91.91
2919,G5,431.0,167/1000,80,91.91
2920,G1,431.0,0.5,88,91.91
2921,G2,431.0,0.5,88,91.91
2922,G#5,431.167,167/1000,77,91.91
2923,G5,431.333,167/1000,75,91.91
2924,F5,431.5,167/1000,74,91.91
2925,E-5,431.667,167/1000,73,91.91
2926,D5,431.833,167/1000,73,91.91
2927,C4,432.0,0.25,93,91.91
2928,C5,432.0,0.25,93,91.91
2929,C2,432.0,0.25,80,91.91
2930,C3,432.0,0.25,80,91.91
2931,C4,433.0,0.25,93,91.91
2932,C5,433.0,0.25,93,91.91
2933,C2,433.0,0.25,80,91.91
2934,C3,433.0,0.25,80,91.91
2935,C4,434.0,0.5,91,91.91
2936,C5,434.0,0.5,91,91.91
2937,C2,434.0,0.5,80,91.91
2938,C3,434.0,0.5,80,91.91
2939,C4,436.0,1.0,68,91.91
2940,C5,436.0,1.0,68,91.91
2941,C2,436.0,1.0,52,91.91
2942,C3,436.0,1.0,52,91.91
2943,C4,438.0,1.0,52,91.91
2944,C5,438.0,1.0,52,91.91
2945,C2,438.0,1.0,42,91.91
2946,C3,438.0,1.0,42,91.91
2947,G#3,440.0,0.5,108,91.91
2948,G#1,440.0,0.5,76,91.91
2949,G#2,440.0,0.5,76,91.91
2950,E-4,441.0,0.5,85,91.91
2951,G#4,441.0,0.5,85,91.91
2952,C5,441.0,0.5,85,91.91
2953,E-5,441.0,0.5,85,91.91
2954,G#2,441.0,0.5,61,91.91
2955,C3,441.0,0.5,61,91.91
2956,E-3,441.0,0.5,61,91.91
2957,G#3,441.0,0.5,61,91.91
2958,E-5,442.0,1.5,85,91.91
2959,G#5,442.0,1.5,85,91.91
2960,C6,442.0,1.5,85,91.91
2961,E-6,442.0,1.5,85,91.91
2962,G#3,442.0,1.5,63,91.91
2963,C4,442.0,1.5,63,91.91
2964,E-4,442.0,1.5,63,91.91
2965,G#4,442.0,1.5,63,91.91
2966,C6,443.5,0.5,59,91.91
2967,E-5,443.5,0.5,59,91.91
2968,G#3,443.5,0.5,42,91.91
2969,C4,443.5,0.5,42,91.91
2970,E-4,443.5,0.5,42,91.91
2971,G#4,443.5,0.5,42,91.91
2972,C#5,444.0,1.0,62,91.91
2973,B-5,444.0,1.0,62,91.91
2974,G#3,444.0,1.0,46,91.91
2975,B-3,444.0,1.0,46,91.91
2976,C#4,444.0,1.0,46,91.91
2977,E-4,444.0,1.0,46,91.91
2978,G4,444.0,1.0,46,91.91
2979,C#5,445.0,1.0,55,91.91
2980,E-5,445.0,1.0,55,91.91
2981,G#3,445.0,1.0,34,91.91
2982,B-3,445.0,1.0,34,91.91
2983,C#4,445.0,1.0,34,91.91
2984,E-4,445.0,1.0,34,91.91
2985,G4,445.0,1.0,34,91.91
2986,C5,446.0,1.0,55,91.91
2987,G#5,446.0,1.0,55,91.91
2988,G#3,446.0,1.0,34,91.91
2989,C4,446.0,1.0,34,91.91
2990,E-4,446.0,1.0,34,91.91
2991,G#4,446.0,1.0,34,91.91
2992,F3,448.0,0.5,108,91.91
2993,F1,448.0,0.5,76,91.91
2994,F2,448.0,0.5,76,91.91
2995,C4,449.0,0.5,85,91.91
2996,F4,449.0,0.5,85,91.91
2997,G#4,449.0,0.5,85,91.91
2998,C5,449.0,0.5,85,91.91
2999,F2,449.0,0.5,61,91.91
3000,G#2,449.0,0.5,61,91.91
3001,C3,449.0,0.5,61,91.91
3002,F3,449.0,0.5,61,91.91
3003,C5,450.0,1.5,83,91.91
3004,F5,450.0,1.5,83,91.91
3005,G#5,450.0,1.5,83,91.91
3006,C6,450.0,1.5,83,91.91
3007,F3,450.0,1.5,62,91.91
3008,G#3,450.0,1.5,62,91.91
3009,C4,450.0,1.5,62,91.91
3010,F4,450.0,1.5,62,91.91
3011,G#5,451.5,0.5,59,91.91
3012,C5,451.5,0.5,59,91.91
3013,F3,451.5,0.5,42,91.91
3014,G#3,451.5,0.5,42,91.91
3015,C4,451.5,0.5,42,91.91
3016,F4,451.5,0.5,42,91.91
3017,B-4,452.0,1.0,62,91.91
3018,G5,452.0,1.0,62,91.91
3019,F3,452.0,1.0,46,91.91
3020,G3,452.0,1.0,46,91.91
3021,B-3,452.0,1.0,46,91.91
3022,C4,452.0,1.0,46,91.91
3023,E4,452.0,1.0,46,91.91
3024,B-4,453.0,1.0,55,91.91
3025,C5,453.0,1.0,55,91.91
3026,F3,453.0,1.0,34,91.91
3027,G3,453.0,1.0,34,91.91
3028,B-3,453.0,1.0,34,91.91
3029,C4,453.0,1.0,34,91.91
3030,E4,453.0,1.0,34,91.91
3031,G#4,454.0,1.0,55,91.91
3032,F5,454.0,1.0,55,91.91
3033,F3,454.0,1.0,34,91.91
3034,G#3,454.0,1.0,34,91.91
3035,C4,454.0,1.0,34,91.91
3036,F4,454.0,1.0,34,91.91
3037,C#4,456.0,0.5,108,91.91
3038,C#2,456.0,0.5,76,91.91
3039,C#3,456.0,0.5,76,91.91
3040,G#4,457.0,0.5,85,91.91
3041,C#5,457.0,0.5,85,91.91
3042,F5,457.0,0.5,85,91.91
3043,G#5,457.0,0.5,85,91.91
3044,C#3,457.0,0.5,61,91.91
3045,F3,457.0,0.5,61,91.91
3046,G#3,457.0,0.5,61,91.91
3047,C#4,457.0,0.5,61,91.91
3048,G#5,458.0,1.5,85,91.91
3049,C#6,458.0,1.5,85,91.91
3050,F6,458.0,1.5,85,91.91
3051,G#6,458.0,1.5,85,91.91
3052,C#4,458.0,1.5,63,91.91
3053,F4,458.0,1.5,63,91.91
3054,G#4,458.0,1.5,63,91.91
3055,C#5,458.0,1.5,63,91.91
3056,F6,459.5,0.5,59,91.91
3057,G#5,459.5,0.5,59,91.91
3058,C#4,459.5,0.5,42,91.91
3059,F4,459.5,0.5,42,91.91
3060,G#4,459.5,0.5,42,91.91
3061,C#5,459.5,0.5,42,91.91
3062,F#5,460.0,1.0,62,91.91
3063,E-6,460.0,1.0,62,91.91
3064,C#4,460.0,1.0,46,91.91
3065,E-4,460.0,1.0,46,91.91
3066,F#4,460.0,1.0,46,91.91
3067,G#4,460.0,1.0,46,91.91
3068,C5,460.0,1.0,46,91.91
3069,F#5,461.0,1.0,55,91.91
3070,G#5,461.0,1.0,55,91.91
3071,C#4,461.0,1.0,34,91.91
3072,E-4,461.0,1.0,34,91.91
3073,F#4,461.0,1.0,34,91.91
3074,G#4,461.0,1.0,34,91.91
3075,C5,461.0,1.0,34,91.91
3076,F5,462.0,1.5,55,91.91
3077,C#6,462.0,1.5,55,91.91
3078,C#4,462.0,1.5,34,91.91
3079,F4,462.0,1.5,34,91.91
3080,G#4,462.0,1.5,34,91.91
3081,C#5,462.0,1.5,34,91.91
3082,F5,463.5,0.5,47,91.91
3083,G#4,463.5,0.5,47,91.91
3084,C#3,463.5,0.5,34,91.91
3085,G#3,463.5,0.5,34,91.91
3086,C#4,463.5,0.5,34,91.91
3087,F#4,464.0,1.0,50,91.91
3088,E-5,464.0,1.0,50,91.91
3089,C#3,464.0,1.0,37,91.91
3090,G#3,464.0,1.0,37,91.91
3091,C4,464.0,1.0,37,91.91
3092,F#4,465.0,1.0,43,91.91
3093,G#4,465.0,1.0,43,91.91
3094,C#3,465.0,1.0,28,91.91
3095,G#3,465.0,1.0,28,91.91
3096,C4,465.0,1.0,28,91.91
3097,F4,466.0,1.5,43,91.91
3098,C#5,466.0,1.5,43,91.91
3099,C#3,466.0,1.5,28,91.91
3100,G#3,466.0,1.5,28,91.91
3101,C#4,466.0,1.5,28,91.91
3102,F4,467.5,0.5,35,91.91
3103,G#3,467.5,0.5,35,91.91
3104,C#2,467.5,0.5,23,91.91
3105,G#2,467.5,0.5,23,91.91
3106,C#3,467.5,0.5,23,91.91
3107,F#3,468.0,99/100,37,91.91
3108,E-4,468.0,99/100,37,91.91
3109,C#2,468.0,99/100,26,91.91
3110,G#2,468.0,99/100,26,91.91
3111,C3,468.0,99/100,26,91.91
3112,F#3,469.0,99/100,32,91.91
3113,G#3,469.0,99/100,32,91.91
3114,C#2,469.0,99/100,19,91.91
3115,G#2,469.0,99/100,19,91.91
3116,C3,469.0,99/100,19,91.91
3117,F3,470.0,99/100,32,91.91
3118,C#4,470.0,99/100,32,91.91
3119,C#2,470.0,99/100,19,91.91
3120,G#2,470.0,99/100,19,91.91
3121,C#3,470.0,99/100,19,91.91
3122,G#3,471.0,99/100,32,91.91
3123,F3,471.0,99/100,32,91.91
3124,C#2,471.0,99/100,19,91.91
3125,G#2,471.0,99/100,19,91.91
3126,C#3,471.0,99/100,19,91.91
3127,F#3,472.0,99/100,37,91.91
3128,E-4,472.0,99/100,37,91.91
3129,C3,472.0,99/100,26,91.91
3130,C#2,472.0,99/100,26,91.91
3131,G#2,472.0,99/100,26,91.91
3132,F#3,473.0,99/100,32,91.91
3133,G#3,473.0,99/100,32,91.91
3134,C3,473.0,99/100,19,91.91
3135,C#2,473.0,99/100,19,91.91
3136,G#2,473.0,99/100,19,91.91
3137,F#3,474.0,99/100,37,91.91
3138,E-4,474.0,99/100,37,91.91
3139,C3,474.0,99/100,26,91.91
3140,C#2,474.0,99/100,26,91.91
3141,G#2,474.0,99/100,26,91.91
3142,F#3,475.0,99/100,32,91.91
3143,G#3,475.0,99/100,32,91.91
3144,C3,475.0,99/100,19,91.91
3145,C#2,475.0,99/100,19,91.91
3146,G#2,475.0,99/100,19,91.91
3147,F3,476.0,0.5,33,91.91
3148,C#4,476.0,0.5,33,91.91
3149,C#2,476.0,0.5,19,91.91
3150,G#2,476.0,0.5,19,91.91
3151,C#3,476.0,0.5,19,91.91
3152,G#3,476.5,99/100,32,91.91
3153,C#4,476.5,99/100,32,91.91
3154,F4,476.5,99/100,32,91.91
3155,C#3,477.0,0.5,36,91.91
3156,G#3,477.5,0.5,32,91.91
3157,C#4,477.5,0.5,32,91.91
3158,F4,477.5,0.5,32,91.91
3159,C#3,478.0,0.5,38,91.91
3160,G#3,478.0,49/100,32,91.91
3161,C#4,478.0,49/100,32,91.91
3162,F4,478.0,49/100,32,91.91
3163,G#3,478.5,99/100,32,91.91
3164,C#4,478.5,99/100,32,91.91
3165,F4,478.5,99/100,32,91.91
3166,C#3,479.0,0.5,38,91.91
3167,F4,479.5,62/125,52,91.91
3168,G#3,479.5,0.5,40,91.91
3169,C#4,479.5,0.5,40,91.91
3170,E-4,480.0,62/125,52,91.91
3171,G#2,480.0,0.5,45,91.91
3172,G#3,480.0,49/100,40,91.91
3173,C#4,480.0,49/100,40,91.91
3174,G#3,480.5,99/100,36,91.91
3175,C4,480.5,99/100,36,91.91
3176,E-4,480.5,99/100,36,91.91
3177,G#2,481.0,0.5,42,91.91
3178,C4,481.5,62/125,36,91.91
3179,G#3,481.5,0.5,36,91.91
3180,E-4,481.5,0.5,36,91.91
3181,B3,482.0,62/125,30,91.91
3182,G#2,482.0,0.5,38,91.91
3183,G#3,482.0,49/100,36,91.91
3184,E-4,482.0,49/100,36,91.91
3185,G#3,482.5,99/100,36,91.91
3186,B3,482.5,99/100,36,91.91
3187,E-4,482.5,99/100,36,91.91
3188,G#2,483.0,0.5,38,91.91
3189,G#3,483.5,62/125,47,91.91
3190,C4,483.5,62/125,47,91.91
3191,D4,483.5,62/125,47,91.91
3192,F4,483.5,62/125,47,91.91
3193,E-2,484.0,0.5,25,91.91
3194,F#3,484.0,62/125,35,91.91
3195,B-3,484.0,62/125,35,91.91
3196,E-4,484.0,62/125,35,91.91
3197,F#4,484.0,62/125,35,91.91
3198,B-3,484.5,99/100,32,91.91
3199,E-4,484.5,99/100,32,91.91
3200,F#4,484.5,99/100,32,91.91
3201,E-3,485.0,0.5,36,91.91
3202,B-3,485.5,0.5,32,91.91
3203,E-4,485.5,0.5,32,91.91
3204,F#4,485.5,0.5,32,91.91
3205,E-3,486.0,0.5,38,91.91
3206,B-3,486.0,49/100,32,91.91
3207,E-4,486.0,49/100,32,91.91
3208,F#4,486.0,49/100,32,91.91
3209,B-3,486.5,99/100,32,91.91
3210,E-4,486.5,99/100,32,91.91
3211,F#4,486.5,99/100,32,91.91
3212,E-3,487.0,0.5,38,91.91
3213,F#4,487.5,62/125,52,91.91
3214,B-3,487.5,0.5,40,91.91
3215,E-4,487.5,0.5,40,91.91
3216,F4,488.0,62/125,52,91.91
3217,B-2,488.0,0.5,45,91.91
3218,B-3,488.0,49/100,40,91.91
3219,E-4,488.0,49/100,40,91.91
3220,B-3,488.5,99/100,36,91.91
3221,D4,488.5,99/100,36,91.91
3222,F4,488.5,99/100,36,91.91
3223,B-2,489.0,0.5,42,91.91
3224,D4,489.5,62/125,36,91.91
3225,B-3,489.5,0.5,36,91.91
3226,F4,489.5,0.5,36,91.91
3227,C#4,490.0,62/125,30,91.91
3228,B-2,490.0,0.5,38,91.91
3229,B-3,490.0,49/100,36,91.91
3230,F4,490.0,49/100,36,91.91
3231,B-3,490.5,99/100,36,91.91
3232,C#4,490.5,99/100,36,91.91
3233,F4,490.5,99/100,36,91.91
3234,B-2,491.0,0.5,41,91.91
3235,B-3,491.5,0.5,47,91.91
3236,D4,491.5,0.5,47,91.91
3237,E4,491.5,0.5,47,91.91
3238,G4,491.5,0.5,47,91.91
3239,F2,492.0,0.5,25,91.91
3240,G#3,492.0,62/125,35,91.91
3241,C4,492.0,62/125,35,91.91
3242,F4,492.0,62/125,35,91.91
3243,G#4,492.0,62/125,35,91.91
3244,C4,492.5,99/100,32,91.91
3245,F4,492.5,99/100,32,91.91
3246,G#4,492.5,99/100,32,91.91
3247,F3,493.0,0.5,36,91.91
3248,C4,493.5,0.5,32,91.91
3249,F4,493.5,0.5,32,91.91
3250,G#4,493.5,0.5,32,91.91
3251,F3,494.0,0.5,38,91.91
3252,C4,494.0,49/100,32,91.91
3253,F4,494.0,49/100,32,91.91
3254,G#4,494.0,49/100,32,91.91
3255,C4,494.5,99/100,32,91.91
3256,F4,494.5,99/100,32,91.91
3257,G#4,494.5,99/100,32,91.91
3258,F3,495.0,0.5,38,91.91
3259,G#4,495.5,62/125,48,91.91
3260,C4,495.5,0.5,37,91.91
3261,F4,495.5,0.5,37,91.91
3262,G4,496.0,62/125,48,91.91
3263,C3,496.0,0.5,41,91.91
3264,C4,496.0,49/100,37,91.91
3265,F4,496.0,49/100,37,91.91
3266,C4,496.5,99/100,36,91.91
3267,E4,496.5,99/100,36,91.91
3268,G4,496.5,99/100,36,91.91
3269,C3,497.0,0.5,42,91.91
3270,C4,497.5,0.5,34,91.91
3271,E4,497.5,62/125,44,91.91
3272,G4,497.5,62/125,44,91.91
3273,C4,498.0,49/100,34,91.91
3274,F3,498.0,0.5,38,91.91
3275,G#4,498.0,62/125,41,91.91
3276,F4,498.0,62/125,41,91.91
3277,C4,498.5,99/100,36,91.91
3278,F4,498.5,99/100,36,91.91
3279,G#4,498.5,99/100,36,91.91
3280,F3,499.0,0.5,38,91.91
3281,C4,499.5,0.5,40,91.91
3282,F4,499.5,0.5,40,91.91
3283,G#4,499.5,0.5,40,91.91
3284,C2,500.0,0.5,46,91.91
3285,C4,500.25,0.25,36,91.91
3286,E4,500.5,0.25,37,91.91
3287,G4,500.75,0.25,38,91.91
3288,B4,501.0,0.25,40,91.91
3289,E3,501.0,1.0,39,91.91
3290,G3,501.0,1.0,39,91.91
3291,C5,501.25,0.25,41,91.91
3292,E5,501.5,0.25,42,91.91
3293,G5,501.75,0.25,44,91.91
3294,B5,502.0,0.25,45,91.91
3295,E3,502.0,2.0,39,91.91
3296,G3,502.0,2.0,39,91.91
3297,C6,502.25,0.25,44,91.91
3298,G5,502.5,0.25,43,91.91
3299,E5,502.75,0.25,43,91.91
3300,C5,503.0,0.25,42,91.91
3301,G4,503.25,0.25,41,91.91
3302,E4,503.5,0.25,41,91.91
3303,C4,503.75,0.25,40,91.91
3304,C2,504.0,0.5,46,91.91
3305,C#4,504.25,0.25,36,91.91
3306,F4,504.5,0.25,37,91.91
3307,G#4,504.75,0.25,38,91.91
3308,C5,505.0,0.25,40,91.91
3309,F3,505.0,1.0,39,91.91
3310,G#3,505.0,1.0,39,91.91
3311,C#5,505.25,0.25,41,91.91
3312,F5,505.5,0.25,42,91.91
3313,G#5,505.75,0.25,44,91.91
3314,C6,506.0,0.25,45,91.91
3315,F3,506.0,2.0,39,91.91
3316,G#3,506.0,2.0,39,91.91
3317,C#6,506.25,0.25,44,91.91
3318,G#5,506.5,0.25,43,91.91
3319,F5,506.75,0.25,43,91.91
3320,C#5,507.0,0.25,42,91.91
3321,G#4,507.25,0.25,41,91.91
3322,F4,507.5,0.25,41,91.91
3323,C#4,507.75,0.25,40,91.91
3324,C2,508.0,0.5,46,91.91
3325,E4,508.25,0.25,36,91.91
3326,G4,508.5,0.25,37,91.91
3327,B-4,508.75,0.25,38,91.91
3328,E-5,509.0,0.25,40,91.91
3329,G3,509.0,1.0,39,91.91
3330,B-3,509.0,1.0,39,91.91
3331,E5,509.25,0.25,41,91.91
3332,G5,509.5,0.25,42,91.91
3333,B-5,509.75,0.25,44,91.91
3334,E-6,510.0,0.25,45,91.91
3335,G3,510.0,2.0,39,91.91
3336,B-3,510.0,2.0,39,91.91
3337,E6,510.25,0.25,44,91.91
3338,B-5,510.5,0.25,43,91.91
3339,G5,510.75,0.25,43,91.91
3340,E5,511.0,0.25,42,91.91
3341,B-4,511.25,0.25,41,91.91
3342,G4,511.5,0.25,41,91.91
3343,E4,511.75,0.25,40,91.91
3344,F2,512.0,0.5,46,91.91
3345,F4,512.25,0.25,36,91.91
3346,A4,512.5,0.25,37,91.91
3347,C5,512.75,0.25,38,91.91
3348,E5,513.0,0.25,40,91.91
3349,A3,513.0,1.0,39,91.91
3350,C4,513.0,1.0,39,91.91
3351,F5,513.25,0.25,41,91.91
3352,A5,513.5,0.25,42,91.91
3353,C6,513.75,0.25,44,91.91
3354,E6,514.0,0.25,45,91.91
3355,A3,514.0,2.0,39,91.91
3356,C4,514.0,2.0,39,91.91
3357,F6,514.25,0.25,44,91.91
3358,C6,514.5,0.25,43,91.91
3359,A5,514.75,0.25,43,91.91
3360,F5,515.0,0.25,42,91.91
3361,C5,515.25,0.25,41,91.91
3362,A4,515.5,0.25,41,91.91
3363,F4,515.75,0.25,40,91.91
3364,F2,516.0,0.5,46,91.91
3365,F#4,516.25,0.25,36,91.91
3366,B-4,516.5,0.25,37,91.91
3367,C#5,516.75,0.25,38,91.91
3368,F5,517.0,0.25,40,91.91
3369,B-3,517.0,1.0,39,91.91
3370,C#4,517.0,1.0,39,91.91
3371,F#5,517.25,0.25,41,91.91
3372,B-5,517.5,0.25,42,91.91
3373,C#6,517.75,0.25,44,91.91
3374,F6,518.0,0.25,45,91.91
3375,B-3,518.0,2.0,39,91.91
3376,C#4,518.0,2.0,39,91.91
3377,F#6,518.25,0.25,44,91.91
3378,C#6,518.5,0.25,43,91.91
3379,B-5,518.75,0.25,43,91.91
3380,F#5,519.0,0.25,42,91.91
3381,C#5,519.25,0.25,41,91.91
3382,B-4,519.5,0.25,41,91.91
3383,F#4,519.75,0.25,40,91.91
3384,F2,520.0,0.5,46,91.91
3385,A4,520.25,0.25,36,91.91
3386,C5,520.5,0.25,37,91.91
3387,E-5,520.75,0.25,38,91.91
3388,G#5,521.0,0.25,40,91.91
3389,C4,521.0,1.0,39,91.91
3390,E-4,521.0,1.0,39,91.91
3391,A5,521.25,0.25,41,91.91
3392,C6,521.5,0.25,42,91.91
3393,E-6,521.75,0.25,44,91.91
3394,G#6,522.0,0.25,45,91.91
3395,C4,522.0,2.0,39,91.91
3396,E-4,522.0,2.0,39,91.91
3397,A6,522.25,0.25,44,91.91
3398,E-6,522.5,0.25,43,91.91
3399,C6,522.75,0.25,43,91.91
3400,A5,523.0,0.25,42,91.91
3401,E-5,523.25,0.25,41,91.91
3402,C5,523.5,0.25,41,91.91
3403,A4,523.75,0.25,40,91.91
3404,B-2,524.0,0.5,46,91.91
3405,B-4,524.25,0.25,39,91.91
3406,D5,524.5,0.25,41,91.91
3407,F5,524.75,0.25,44,91.91
3408,A5,525.0,0.25,46,91.91
3409,D4,525.0,1.0,39,91.91
3410,F4,525.0,1.0,39,91.91
3411,B-5,525.25,0.25,44,91.91
3412,F5,525.5,0.25,42,91.91
3413,D5,525.75,0.25,40,91.91
3414,B-4,526.0,0.25,45,91.91
3415,D4,526.0,2.0,39,91.91
3416,F4,526.0,2.0,39,91.91
3417,D5,526.25,0.25,41,91.91
3418,F5,526.5,0.25,43,91.91
3419,A5,526.75,0.25,45,91.91
3420,B-5,527.0,0.25,47,91.91
3421,F5,527.25,0.25,45,91.91
3422,D5,527.5,0.25,44,91.91
3423,B-4,527.75,0.25,42,91.91
3424,B-2,528.0,0.5,46,91.91
3425,B4,528.25,0.25,39,91.91
3426,E-5,528.5,0.25,41,91.91
3427,F#5,528.75,0.25,44,91.91
3428,B-5,529.0,0.25,46,91.91
3429,E-4,529.0,1.0,39,91.91
3430,F#4,529.0,1.0,39,91.91
3431,B5,529.25,0.25,44,91.91
3432,F#5,529.5,0.25,42,91.91
3433,E-5,529.75,0.25,40,91.91
3434,B4,530.0,0.25,45,91.91
3435,E-4,530.0,2.0,39,91.91
3436,F#4,530.0,2.0,39,91.91
3437,E-5,530.25,0.25,41,91.91
3438,F#5,530.5,0.25,43,91.91
3439,B-5,530.75,0.25,45,91.91
3440,B5,531.0,0.25,47,91.91
3441,F#5,531.25,0.25,45,91.91
3442,E-5,531.5,0.25,44,91.91
3443,B4,531.75,0.25,42,91.91
3444,B-2,532.0,0.5,46,91.91
3445,D5,532.25,0.25,39,91.91
3446,F5,532.5,0.25,41,91.91
3447,G#5,532.75,0.25,44,91.91
3448,C#6,533.0,0.25,46,91.91
3449,F4,533.0,1.0,39,91.91
3450,G#4,533.0,1.0,39,91.91
3451,D6,533.25,0.25,44,91.91
3452,G#5,533.5,0.25,42,91.91
3453,F5,533.75,0.25,40,91.91
3454,D5,534.0,0.25,45,91.91
3455,F4,534.0,2.0,39,91.91
3456,G#4,534.0,2.0,39,91.91
3457,F5,534.25,0.25,41,91.91
3458,G#5,534.5,0.25,43,91.91
3459,C#6,534.75,0.25,45,91.91
3460,D6,535.0,0.25,47,91.91
3461,G#5,535.25,0.25,45,91.91
3462,F5,535.5,0.25,44,91.91
3463,D5,535.75,0.25,42,91.91
3464,E-3,536.0,0.5,46,91.91
3465,F#5,536.25,0.25,39,91.91
3466,F5,536.5,0.25,46,91.91
3467,F#5,536.75,0.25,44,91.91
3468,B-3,537.0,1.0,39,91.91
3469,E-4,537.0,1.0,39,91.91
3470,F#4,537.0,1.0,39,91.91
3471,B-5,537.25,0.25,44,91.91
3472,A5,537.5,0.25,47,91.91
3473,B-5,537.75,0.25,40,91.91
3474,B-3,538.0,2.0,39,91.91
3475,E-4,538.0,2.0,39,91.91
3476,F#4,538.0,2.0,39,91.91
3477,E-6,538.25,0.25,41,91.91
3478,D6,538.5,0.25,43,91.91
3479,E-6,538.75,0.25,42,91.91
3480,F#6,539.0,0.25,47,91.91
3481,E-6,539.25,0.25,45,91.91
3482,F#6,539.5,0.25,49,91.91
3483,E-6,539.75,0.25,42,91.91
3484,F#6,540.0,0.25,53,91.91
3485,C3,540.0,0.5,46,91.91
3486,F6,540.25,0.25,51,91.91
3487,E-6,540.5,0.25,49,91.91
3488,C#6,540.75,0.25,47,91.91
3489,C6,541.0,0.25,45,91.91
3490,G#3,541.0,1.0,39,91.91
3491,E-4,541.0,1.0,39,91.91
3492,F#4,541.0,1.0,39,91.91
3493,C#6,541.25,0.25,46,91.91
3494,E-6,541.5,0.25,47,91.91
3495,F6,541.75,0.25,48,91.91
3496,F#6,542.0,0.25,53,91.91
3497,G#3,542.0,2.0,39,91.91
3498,E-4,542.0,2.0,39,91.91
3499,F#4,542.0,2.0,39,91.91
3500,F6,542.25,0.25,52,91.91
3501,E-6,542.5,0.25,51,91.91
3502,C#6,542.75,0.25,50,91.91
3503,C6,543.0,0.25,49,91.91
3504,B-5,543.25,0.25,48,91.91
3505,G#5,543.5,0.25,47,91.91
3506,F#5,543.75,0.25,46,91.91
3507,C#3,544.0,0.5,39,91.91
3508,F5,544.25,0.25,39,91.91
3509,E5,544.5,0.25,46,91.91
3510,F5,544.75,0.25,44,91.91
3511,G#3,545.0,1.0,33,91.91
3512,C#4,545.0,1.0,33,91.91
3513,F4,545.0,1.0,33,91.91
3514,G#5,545.25,0.25,44,91.91
3515,G5,545.5,0.25,47,91.91
3516,G#5,545.75,0.25,40,91.91
3517,G#3,546.0,2.0,33,91.91
3518,C#4,546.0,2.0,33,91.91
3519,F4,546.0,2.0,33,91.91
3520,C#6,546.25,0.25,41,91.91
3521,C6,546.5,0.25,43,91.91
3522,C#6,546.75,0.25,42,91.91
3523,F6,547.0,0.25,47,91.91
3524,C#6,547.25,0.25,45,91.91
3525,F6,547.5,0.25,49,91.91
3526,C#6,547.75,0.25,42,91.91
3527,F6,548.0,0.25,53,91.91
3528,B2,548.0,0.5,39,91.91
3529,E-6,548.25,0.25,51,91.91
3530,D6,548.5,0.25,49,91.91
3531,C6,548.75,0.25,47,91.91
3532,B5,549.0,0.25,45,91.91
3533,G3,549.0,1.0,33,91.91
3534,D4,549.0,1.0,33,91.91
3535,F4,549.0,1.0,33,91.91
3536,C6,549.25,0.25,46,91.91
3537,D6,549.5,0.25,47,91.91
3538,E-6,549.75,0.25,48,91.91
3539,F6,550.0,0.25,53,91.91
3540,G3,550.0,2.0,33,91.91
3541,D4,550.0,2.0,33,91.91
3542,F4,550.0,2.0,33,91.91
3543,E-6,550.25,0.25,52,91.91
3544,D6,550.5,0.25,51,91.91
3545,C6,550.75,0.25,50,91.91
3546,B5,551.0,0.25,49,91.91
3547,G#5,551.25,0.25,48,91.91
3548,G5,551.5,0.25,47,91.91
3549,F5,551.75,0.25,46,91.91
3550,C3,552.0,0.5,39,91.91
3551,E-5,552.25,0.25,39,91.91
3552,D5,552.5,0.25,46,91.91
3553,E-5,552.75,0.25,44,91.91
3554,G3,553.0,1.0,33,91.91
3555,C4,553.0,1.0,33,91.91
3556,E-4,553.0,1.0,33,91.91
3557,G5,553.25,0.25,44,91.91
3558,F#5,553.5,0.25,47,91.91
3559,G5,553.75,0.25,40,91.91
3560,G3,554.0,1.0,33,91.91
3561,C4,554.0,1.0,33,91.91
3562,E-4,554.0,1.0,33,91.91
3563,B5,554.25,0.25,41,91.91
3564,C6,554.5,0.25,43,91.91
3565,B5,554.75,0.25,42,91.91
3566,C6,555.0,0.25,47,91.91
3567,C3,555.0,1.0,33,91.91
3568,D6,555.25,0.25,45,91.91
3569,E-6,555.5,0.25,49,91.91
3570,F#6,555.75,0.25,42,91.91
3571,G6,556.0,0.25,53,91.91
3572,G2,556.0,1.0,33,91.91
3573,D6,556.25,0.25,51,91.91
3574,B5,556.5,0.25,49,91.91
3575,G5,556.75,0.25,47,91.91
3576,F#5,557.0,0.25,45,91.91
3577,G3,557.0,1.0,29,91.91
3578,B3,557.0,1.0,29,91.91
3579,D4,557.0,1.0,29,91.91
3580,G5,557.25,0.25,46,91.91
3581,B5,557.5,0.25,47,91.91
3582,D6,557.75,0.25,48,91.91
3583,E-6,558.0,0.25,53,91.91
3584,C3,558.0,1.0,35,91.91
3585,C6,558.25,0.25,51,91.91
3586,G5,558.5,0.25,49,91.91
3587,E-5,558.75,0.25,47,91.91
3588,C6,559.0,0.25,51,91.91
3589,G3,559.0,1.0,30,91.91
3590,C4,559.0,1.0,30,91.91
3591,E-4,559.0,1.0,30,91.91
3592,G5,559.25,0.25,50,91.91
3593,E-5,559.5,0.25,49,91.91
3594,C5,559.75,0.25,48,91.91
3595,B5,560.0,0.25,53,91.91
3596,G2,560.0,1.0,37,91.91
3597,G5,560.25,0.25,51,91.91
3598,D5,560.5,0.25,49,91.91
3599,B4,560.75,0.25,47,91.91
3600,G5,561.0,0.25,51,91.91
3601,D3,561.0,1.0,32,91.91
3602,G3,561.0,1.0,32,91.91
3603,B3,561.0,1.0,32,91.91
3604,D5,561.25,0.25,50,91.91
3605,B4,561.5,0.25,49,91.91
3606,G4,561.75,0.25,48,91.91
3607,E-5,562.0,0.25,53,91.91
3608,C2,562.0,1.0,46,91.91
3609,C5,562.25,0.25,51,91.91
3610,G4,562.5,0.25,49,91.91
3611,E-4,562.75,0.25,47,91.91
3612,C5,563.0,0.25,51,91.91
3613,C3,563.0,1.0,39,91.91
3614,E-3,563.0,1.0,39,91.91
3615,G3,563.0,1.0,39,91.91
3616,G4,563.25,0.25,50,91.91
3617,E-4,563.5,0.25,49,91.91
3618,C4,563.75,0.25,48,91.91
3619,B4,564.0,0.25,53,91.91
3620,G1,564.0,1.0,46,91.91
3621,G4,564.25,0.25,51,91.91
3622,D4,564.5,0.25,49,91.91
3623,B3,564.75,0.25,47,91.91
3624,D4,565.0,0.25,47,91.91
3625,B2,565.0,1.0,39,91.91
3626,D3,565.0,1.0,39,91.91
3627,G3,565.0,1.0,39,91.91
3628,F4,565.25,0.25,48,91.91
3629,B4,565.5,0.25,50,91.91
3630,D5,565.75,0.25,52,91.91
3631,C5,566.0,0.25,53,91.91
3632,C2,566.0,1.0,46,91.91
3633,G4,566.25,0.25,51,91.91
3634,E-4,566.5,0.25,49,91.91
3635,C4,566.75,0.25,47,91.91
3636,G4,567.0,0.25,51,91.91
3637,G2,567.0,1.0,39,91.91
3638,C3,567.0,1.0,39,91.91
3639,E-3,567.0,1.0,39,91.91
3640,E-4,567.25,0.25,50,91.91
3641,C4,567.5,0.25,49,91.91
3642,G3,567.75,0.25,48,91.91
3643,G4,568.0,0.25,79,91.91
3644,G2,568.0,0.5,69,91.91
3645,G1,568.0,0.5,69,91.91
3646,D4,568.25,0.25,75,91.91
3647,B3,568.5,0.25,75,91.91
3648,G3,568.75,0.25,70,91.91
3649,B3,569.0,0.25,75,91.91
3650,B2,569.0,0.25,69,91.91
3651,D4,569.25,0.25,71,91.91
3652,D3,569.25,0.25,60,91.91
3653,B3,569.5,0.25,71,91.91
3654,B2,569.5,0.25,60,91.91
3655,G3,569.75,0.25,71,91.91
3656,G2,569.75,0.25,59,91.91
3657,C4,570.0,0.25,70,91.91
3658,C3,570.0,0.25,63,91.91
3659,G3,570.25,0.25,61,91.91
3660,G2,570.25,0.25,52,91.91
3661,E-3,570.5,0.25,61,91.91
3662,E-2,570.5,0.25,52,91.91
3663,G3,570.75,0.25,60,91.91
3664,G2,570.75,0.25,52,91.91
3665,E-3,571.0,0.25,64,91.91
3666,E-2,571.0,0.25,57,91.91
3667,G3,571.25,0.25,54,91.91
3668,G2,571.25,0.25,47,91.91
3669,E-3,571.5,0.25,54,91.91
3670,E-2,571.5,0.25,46,91.91
3671,C3,571.75,0.25,54,91.91
3672,C2,571.75,0.25,45,91.91
3673,G1,572.0,0.5,57,91.91
3674,G3,572.25,0.25,34,91.91
3675,D3,572.5,0.25,34,91.91
3676,B2,572.75,0.25,34,91.91
3677,G#3,573.0,1.0,40,91.91
3678,G3,573.25,0.25,34,91.91
3679,D3,573.5,0.25,34,91.91
3680,B2,573.75,0.25,34,91.91
3681,G#3,574.0,1.0,40,91.91
3682,G3,574.25,0.25,34,91.91
3683,D3,574.5,0.25,34,91.91
3684,B2,574.75,0.25,34,91.91
3685,G#3,575.0,1.0,39,91.91
3686,G3,575.25,0.25,34,91.91
3687,D3,575.5,0.25,34,91.91
3688,B2,575.75,0.25,34,91.91
3689,C2,576.0,0.5,50,91.91
3690,A3,576.25,0.25,34,91.91
3691,E-3,576.5,0.25,34,91.91
3692,C3,576.75,0.25,34,91.91
3693,F#3,577.0,1.0,40,91.91
3694,A3,577.25,0.25,34,91.91
3695,E-3,577.5,0.25,34,91.91
3696,C3,577.75,0.25,34,91.91
3697,F#3,578.0,1.0,40,91.91
3698,A3,578.25,0.25,34,91.91
3699,E-3,578.5,0.25,34,91.91
3700,C3,578.75,0.25,34,91.91
3701,F#3,579.0,1.0,40,91.91
3702,A3,579.25,0.25,34,91.91
3703,E-3,579.5,0.25,34,91.91
3704,C3,579.75,0.25,34,91.91
3705,G1,580.0,0.5,50,91.91
3706,G3,580.25,0.25,34,91.91
3707,D3,580.5,0.25,34,91.91
3708,B2,580.75,0.25,34,91.91
3709,G#3,581.0,1.0,39,91.91
3710,G3,581.25,0.25,34,91.91
3711,D3,581.5,0.25,34,91.91
3712,B2,581.75,0.25,34,91.91
3713,G#3,582.0,1.0,39,91.91
3714,G3,582.25,0.25,34,91.91
3715,D3,582.5,0.25,34,91.91
3716,B2,582.75,0.25,34,91.91
3717,G#3,583.0,1.0,39,91.91
3718,G3,583.25,0.25,34,91.91
3719,D3,583.5,0.25,34,91.91
3720,B2,583.75,0.25,34,91.91
3721,C2,584.0,0.5,50,91.91
3722,A3,584.25,0.25,34,91.91
3723,E-3,584.5,0.25,34,91.91
3724,C3,584.75,0.25,34,91.91
3725,F#3,585.0,1.0,39,91.91
3726,A3,585.25,0.25,34,91.91
3727,E-3,585.5,0.25,34,91.91
3728,C3,585.75,0.25,34,91.91
3729,F#3,586.0,1.0,39,91.91
3730,A3,586.25,0.25,34,91.91
3731,E-3,586.5,0.25,34,91.91
3732,C3,586.75,0.25,34,91.91
3733,F#3,587.0,1.0,39,91.91
3734,A3,587.25,0.25,34,91.91
3735,E-3,587.5,0.25,34,91.91
3736,C3,587.75,0.25,34,91.91
3737,G3,588.0,0.25,77,91.91
3738,G1,588.0,0.5,85,91.91
3739,D3,588.25,0.25,60,91.91
3740,B2,588.5,0.25,60,91.91
3741,D3,588.75,0.25,60,91.91
3742,G3,589.0,0.25,76,91.91
3743,B3,589.0,1.0,75,91.91
3744,D3,589.25,0.25,60,91.91
3745,B2,589.5,0.25,60,91.91
3746,D3,589.75,0.25,60,91.91
3747,G3,590.0,0.25,76,91.91
3748,B3,590.0,2.0,75,91.91
3749,D3,590.25,0.25,59,91.91
3750,B2,590.5,0.25,59,91.91
3751,D3,590.75,0.25,59,91.91
3752,G3,591.0,0.25,67,91.91
3753,D3,591.25,0.25,61,91.91
3754,B2,591.5,0.25,61,91.91
3755,D3,591.75,0.25,61,91.91
3756,B3,592.0,0.25,77,91.91
3757,G1,592.0,0.5,85,91.91
3758,G3,592.25,0.25,60,91.91
3759,D3,592.5,0.25,60,91.91
3760,G3,592.75,0.25,60,91.91
3761,B3,593.0,0.25,76,91.91
3762,D4,593.0,1.0,75,91.91
3763,G3,593.25,0.25,60,91.91
3764,D3,593.5,0.25,60,91.91
3765,G3,593.75,0.25,60,91.91
3766,B3,594.0,0.25,76,91.91
3767,D4,594.0,2.0,75,91.91
3768,G3,594.25,0.25,59,91.91
3769,D3,594.5,0.25,59,91.91
3770,G3,594.75,0.25,59,91.91
3771,B3,595.0,0.25,66,91.91
3772,G3,595.25,0.25,58,91.91
3773,D3,595.5,0.25,58,91.91
3774,G3,595.75,0.25,58,91.91
3775,D4,596.0,0.25,77,91.91
3776,G1,596.0,0.5,85,91.91
3777,B3,596.25,0.25,60,91.91
3778,G3,596.5,0.25,60,91.91
3779,B3,596.75,0.25,60,91.91
3780,D4,597.0,0.25,76,91.91
3781,F4,597.0,979/1000,75,91.91
3782,B3,597.25,0.25,60,91.91
3783,G3,597.5,0.25,60,91.91
3784,B3,597.75,0.25,60,91.91
3785,D4,598.0,0.25,76,91.91
3786,F4,598.0,997/500,75,91.91
3787,B3,598.25,0.25,59,91.91
3788,G3,598.5,0.25,59,91.91
3789,B3,598.75,0.25,59,91.91
3790,D4,599.0,0.25,66,91.91
3791,B3,599.25,0.25,58,91.91
3792,G3,599.5,0.25,58,91.91
3793,B3,599.75,0.25,58,91.91
3794,F4,600.0,0.25,64,91.91
3795,B3,600.25,0.25,44,91.91
3796,D4,600.25,0.25,44,91.91
3797,G3,600.5,0.25,49,91.91
3798,D4,600.75,0.25,44,91.91
3799,B3,600.75,0.25,44,91.91
3800,F4,601.0,0.25,58,91.91
3801,B4,601.0,1.0,64,91.91
3802,D4,601.25,0.25,42,91.91
3803,B3,601.25,0.25,42,91.91
3804,G3,601.5,0.25,47,91.91
3805,D4,601.75,0.25,42,91.91
3806,B3,601.75,0.25,42,91.91
3807,F4,602.0,0.25,61,91.91
3808,B3,602.25,0.25,42,91.91
3809,D4,602.25,0.25,42,91.91
3810,G3,602.5,0.25,47,91.91
3811,D4,602.75,0.25,40,91.91
3812,B3,602.75,0.25,40,91.91
3813,F4,603.0,0.25,54,91.91
3814,D5,603.0,1.0,57,91.91
3815,D4,603.25,0.25,40,91.91
3816,B3,603.25,0.25,40,91.91
3817,G3,603.5,0.25,44,91.91
3818,D4,603.75,0.25,38,91.91
3819,B3,603.75,0.25,38,91.91
3820,F4,604.0,0.25,56,91.91
3821,B3,604.25,0.25,38,91.91
3822,D4,604.25,0.25,38,91.91
3823,G3,604.5,0.25,42,91.91
3824,D4,604.75,0.25,37,91.91
3825,B3,604.75,0.25,37,91.91
3826,F4,605.0,0.25,49,91.91
3827,F5,605.0,1.0,52,91.91
3828,D4,605.25,0.25,36,91.91
3829,B3,605.25,0.25,36,91.91
3830,G3,605.5,0.25,39,91.91
3831,D4,605.75,0.25,35,91.91
3832,B3,605.75,0.25,35,91.91
3833,F4,606.0,0.25,50,91.91
3834,B3,606.25,0.25,34,91.91
3835,D4,606.25,0.25,34,91.91
3836,G3,606.5,0.25,39,91.91
3837,D4,606.75,0.25,34,91.91
3838,B3,606.75,0.25,34,91.91
3839,F4,607.0,0.25,45,91.91
3840,F5,607.0,1.0,52,91.91
3841,D4,607.25,0.25,32,91.91
3842,B3,607.25,0.25,32,91.91
3843,G3,607.5,0.25,35,91.91
3844,D4,607.75,0.25,32,91.91
3845,B3,607.75,0.25,32,91.91
3846,F4,608.0,0.25,43,91.91
3847,F5,608.0,1.0,49,91.91
3848,B3,608.25,0.25,30,91.91
3849,D4,608.25,0.25,30,91.91
3850,G3,608.5,0.25,33,91.91
3851,D4,608.75,0.25,28,91.91
3852,B3,608.75,0.25,28,91.91
3853,F4,609.0,0.25,38,91.91
3854,G#1,609.0,1.0,41,91.91
3855,G#2,609.0,1.0,41,91.91
3856,D4,609.25,0.25,28,91.91
3857,B3,609.25,0.25,28,91.91
3858,G3,609.5,0.25,30,91.91
3859,D4,609.75,0.25,26,91.91
3860,B3,609.75,0.25,26,91.91
3861,F4,610.0,0.25,42,91.91
3862,G1,610.0,0.5,38,91.91
3863,G2,610.0,0.5,38,91.91
3864,B3,610.25,0.25,28,91.91
3865,D4,610.25,0.25,28,91.91
3866,G3,610.5,0.25,31,91.91
3867,D4,610.75,0.25,27,91.91
3868,B3,610.75,0.25,27,91.91
3869,F4,611.0,0.25,38,91.91
3870,F5,611.0,979/1000,50,91.91
3871,D4,611.25,0.25,26,91.91
3872,B3,611.25,0.25,26,91.91
3873,G3,611.5,0.25,30,91.91
3874,D4,611.75,0.25,26,91.91
3875,B3,611.75,0.25,26,91.91
3876,F4,612.0,0.25,40,91.91
3877,F5,612.0,1.0,50,91.91
3878,B3,612.25,0.25,27,91.91
3879,D4,612.25,0.25,27,91.91
3880,G3,612.5,0.25,30,91.91
3881,D4,612.75,0.25,26,91.91
3882,B3,612.75,0.25,26,91.91
3883,F4,613.0,0.25,36,91.91
3884,G#1,613.0,1.0,41,91.91
3885,G#2,613.0,1.0,41,91.91
3886,D4,613.25,0.25,26,91.91
3887,B3,613.25,0.25,26,91.91
3888,G3,613.5,0.25,29,91.91
3889,D4,613.75,0.25,25,91.91
3890,B3,613.75,0.25,25,91.91
3891,F4,614.0,0.25,40,91.91
3892,G1,614.0,0.5,39,91.91
3893,G2,614.0,0.5,39,91.91
3894,B3,614.25,0.25,27,91.91
3895,D4,614.25,0.25,27,91.91
3896,G3,614.5,0.25,30,91.91
3897,D4,614.75,0.25,26,91.91
3898,B3,614.75,0.25,26,91.91
3899,F4,615.0,0.25,35,91.91
3900,F5,615.0,1.0,45,91.91
3901,D4,615.25,0.25,26,91.91
3902,B3,615.25,0.25,26,91.91
3903,G3,615.5,0.25,28,91.91
3904,D4,615.75,0.25,25,91.91
3905,B3,615.75,0.25,25,91.91
3906,F4,616.0,0.25,39,91.91
3907,B3,616.25,0.25,26,91.91
3908,D4,616.25,0.25,26,91.91
3909,G3,616.5,0.25,30,91.91
3910,D4,616.75,0.25,26,91.91
3911,B3,616.75,0.25,26,91.91
3912,F4,617.0,0.25,36,91.91
3913,F5,617.0,1.0,45,91.91
3914,D4,617.25,0.25,26,91.91
3915,B3,617.25,0.25,26,91.91
3916,G3,617.5,0.25,28,91.91
3917,D4,617.75,0.25,25,91.91
3918,B3,617.75,0.25,25,91.91
3919,F4,618.0,0.25,39,91.91
3920,B3,618.25,0.25,27,91.91
3921,D4,618.25,0.25,27,91.91
3922,G3,618.5,0.25,30,91.91
3923,D4,618.75,0.25,26,91.91
3924,B3,618.75,0.25,26,91.91
3925,F4,619.0,0.25,36,91.91
3926,G#3,619.0,1.0,45,91.91
3927,D4,619.25,0.25,26,91.91
3928,B3,619.25,0.25,26,91.91
3929,G3,619.5,0.25,28,91.91
3930,D4,619.75,0.25,25,91.91
3931,B3,619.75,0.25,25,91.91
3932,F4,620.0,0.25,40,91.91
3933,B3,620.25,0.25,28,91.91
3934,D4,620.25,0.25,28,91.91
3935,G3,620.5,0.25,31,91.91
3936,D4,620.75,0.25,26,91.91
3937,B3,620.75,0.25,26,91.91
3938,F4,621.0,0.25,36,91.91
3939,G2,621.0,1.0,46,91.91
3940,D4,621.25,0.25,26,91.91
3941,B3,621.25,0.25,26,91.91
3942,G3,621.5,0.25,29,91.91
3943,D4,621.75,0.25,26,91.91
3944,B3,621.75,0.25,26,91.91
3945,F4,622.0,0.25,40,91.91
3946,B3,622.25,0.25,28,91.91
3947,D4,622.25,0.25,28,91.91
3948,G3,622.5,0.25,31,91.91
3949,D4,622.75,0.25,26,91.91
3950,B3,622.75,0.25,26,91.91
3951,B3,623.0,0.25,74,91.91
3952,B4,623.0,0.25,74,91.91
3953,G1,623.0,0.5,71,91.91
3954,G2,623.0,0.5,71,91.91
3955,D4,623.25,0.25,62,91.91
3956,B3,623.25,0.25,62,91.91
3957,B3,623.5,0.25,63,91.91
3958,B4,623.5,0.25,63,91.91
3959,G1,623.5,0.5,71,91.91
3960,G2,623.5,0.5,71,91.91
3961,D4,623.75,0.25,63,91.91
3962,B3,623.75,0.25,63,91.91
3963,C4,624.0,0.25,94,91.91
3964,E4,624.0,0.25,94,91.91
3965,C5,624.0,0.25,94,91.91
3966,C3,624.0,0.25,75,91.91
3967,C2,624.0,0.25,75,91.91
3968,G2,624.25,0.25,66,91.91
3969,C3,624.5,0.25,70,91.91
3970,E3,624.75,0.25,76,91.91
3971,G3,625.0,0.25,68,91.91
3972,G6,625.0,0.5,86,91.91
3973,G5,625.0,0.5,86,91.91
3974,C3,625.25,0.25,68,91.91
3975,E3,625.5,0.25,68,91.91
3976,G3,625.75,0.25,76,91.91
3977,C4,626.0,0.25,66,91.91
3978,G6,626.0,1.5,92,91.91
3979,G5,626.0,1.5,92,91.91
3980,E3,626.25,0.25,68,91.91
3981,G3,626.5,0.25,71,91.91
3982,C4,626.75,0.25,78,91.91
3983,E4,627.0,0.25,71,91.91
3984,G3,627.25,0.25,71,91.91
3985,C4,627.5,0.25,71,91.91
3986,E6,627.5,0.5,80,91.91
3987,E5,627.5,0.5,80,91.91
3988,E4,627.75,0.25,78,91.91
3989,F4,628.0,0.25,62,91.91
3990,D6,628.0,1.0,86,91.91
3991,D5,628.0,1.0,86,91.91
3992,E4,628.25,0.25,68,91.91
3993,D4,628.5,0.25,71,91.91
3994,C4,628.75,0.25,78,91.91
3995,B3,629.0,0.25,71,91.91
3996,G5,629.0,1.0,70,91.91
3997,G4,629.0,1.0,70,91.91
3998,A3,629.25,0.25,71,91.91
3999,G3,629.5,0.25,76,91.91
4000,F3,629.75,0.25,76,91.91
4001,E3,630.0,0.25,62,91.91
4002,C6,630.0,1.0,82,91.91
4003,C5,630.0,1.0,82,91.91
4004,G3,630.25,0.25,66,91.91
4005,C3,630.5,0.25,70,91.91
4006,E3,630.75,0.25,76,91.91
4007,G2,631.0,0.25,70,91.91
4008,E6,631.0,0.5,80,91.91
4009,E5,631.0,0.5,80,91.91
4010,C3,631.25,0.25,70,91.91
4011,E2,631.5,0.25,71,91.91
4012,G2,631.75,0.25,76,91.91
4013,C2,632.0,0.25,94,91.91
4014,G2,632.25,0.25,66,91.91
4015,C3,632.5,0.25,70,91.91
4016,E3,632.75,0.25,76,91.91
4017,G3,633.0,0.25,68,91.91
4018,G6,633.0,0.5,86,91.91
4019,G5,633.0,0.5,86,91.91
4020,C3,633.25,0.25,68,91.91
4021,E3,633.5,0.25,68,91.91
4022,G3,633.75,0.25,76,91.91
4023,C4,634.0,0.25,66,91.91
4024,G6,634.0,1.5,92,91.91
4025,G5,634.0,1.5,92,91.91
4026,E3,634.25,0.25,68,91.91
4027,G3,634.5,0.25,71,91.91
4028,C4,634.75,0.25,78,91.91
4029,E4,635.0,0.25,71,91.91
4030,G3,635.25,0.25,71,91.91
4031,C4,635.5,0.25,71,91.91
4032,E6,635.5,0.5,80,91.91
4033,E5,635.5,0.5,80,91.91
4034,E4,635.75,0.25,71,91.91
4035,F4,636.0,0.25,62,91.91
4036,D6,636.0,1.0,86,91.91
4037,D5,636.0,1.0,86,91.91
4038,E4,636.25,0.25,68,91.91
4039,D4,636.5,0.25,71,91.91
4040,C4,636.75,0.25,78,91.91
4041,B3,637.0,0.25,71,91.91
4042,G5,637.0,1.0,70,91.91
4043,G4,637.0,1.0,70,91.91
4044,G3,637.25,0.25,71,91.91
4045,A3,637.5,0.25,76,91.91
4046,B3,637.75,0.25,76,91.91
4047,C4,638.0,0.25,62,91.91
4048,C6,638.0,0.5,76,91.91
4049,C5,638.0,0.5,76,91.91
4050,B3,638.25,0.25,64,91.91
4051,A3,638.5,0.25,68,91.91
4052,G3,638.75,0.25,73,91.91
4053,F3,639.0,0.25,68,91.91
4054,E3,639.25,0.25,68,91.91
4055,D3,639.5,0.25,69,91.91
4056,C3,639.75,0.25,74,91.91
4057,G2,640.0,0.25,80,91.91
4058,B2,640.25,0.25,58,91.91
4059,D3,640.5,0.25,62,91.91
4060,G3,640.75,0.25,67,91.91
4061,B2,641.0,0.25,60,91.91
4062,F6,641.0,0.5,76,91.91
4063,F5,641.0,0.5,76,91.91
4064,D3,641.25,0.25,60,91.91
4065,G3,641.5,0.25,60,91.91
4066,B3,641.75,0.25,68,91.91
4067,D3,642.0,0.25,58,91.91
4068,F6,642.0,1.5,80,91.91
4069,F5,642.0,1.5,80,91.91
4070,G3,642.25,0.25,60,91.91
4071,B3,642.5,0.25,63,91.91
4072,D4,642.75,0.25,70,91.91
4073,G3,643.0,0.25,53,91.91
4074,B3,643.25,0.25,53,91.91
4075,D4,643.5,0.25,45,91.91
4076,D6,643.5,0.5,50,91.91
4077,D5,643.5,0.5,50,91.91
4078,G4,643.75,0.25,50,91.91
4079,G3,644.0,0.25,28,91.91
4080,E6,644.0,1.0,48,91.91
4081,E5,644.0,1.0,48,91.91
4082,C4,644.25,0.25,32,91.91
4083,G4,644.5,0.25,34,91.91
4084,C4,644.75,0.25,37,91.91
4085,G3,645.0,0.25,28,91.91
4086,C6,645.0,1.0,38,91.91
4087,C5,645.0,1.0,38,91.91
4088,E4,645.25,0.25,32,91.91
4089,G4,645.5,0.25,34,91.91
4090,E4,645.75,0.25,37,91.91
4091,G3,646.0,0.25,28,91.91
4092,B5,646.0,1.0,48,91.91
4093,B4,646.0,1.0,48,91.91
4094,D4,646.25,0.25,31,91.91
4095,G4,646.5,0.25,33,91.91
4096,D4,646.75,0.25,37,91.91
4097,G3,647.0,0.25,28,91.91
4098,D6,647.0,0.5,45,91.91
4099,D5,647.0,0.5,45,91.91
4100,B3,647.25,0.25,31,91.91
4101,G4,647.5,0.25,33,91.91
4102,B3,647.75,0.25,36,91.91
4103,G2,648.0,0.25,86,91.91
4104,B2,648.25,0.25,58,91.91
4105,D3,648.5,0.25,62,91.91
4106,G3,648.75,0.25,67,91.91
4107,B2,649.0,0.25,60,91.91
4108,F6,649.0,0.5,72,91.91
4109,F5,649.0,0.5,72,91.91
4110,D3,649.25,0.25,60,91.91
4111,G3,649.5,0.25,60,91.91
4112,B3,649.75,0.25,68,91.91
4113,D3,650.0,0.25,58,91.91
4114,F6,650.0,1.5,78,91.91
4115,F5,650.0,1.5,78,91.91
4116,G3,650.25,0.25,60,91.91
4117,B3,650.5,0.25,63,91.91
4118,D4,650.75,0.25,70,91.91
4119,G3,651.0,0.25,53,91.91
4120,B3,651.25,0.25,53,91.91
4121,D4,651.5,0.25,53,91.91
4122,D6,651.5,0.5,56,91.91
4123,D5,651.5,0.5,56,91.91
4124,G4,651.75,0.25,59,91.91
4125,G3,652.0,0.25,26,91.91
4126,E-6,652.0,1.0,46,91.91
4127,E-5,652.0,1.0,46,91.91
4128,C4,652.25,0.25,30,91.91
4129,G4,652.5,0.25,32,91.91
4130,C4,652.75,0.25,33,91.91
4131,G3,653.0,0.25,26,91.91
4132,C6,653.0,1.0,36,91.91
4133,C5,653.0,1.0,36,91.91
4134,E-4,653.25,0.25,30,91.91
4135,G4,653.5,0.25,32,91.91
4136,E-4,653.75,0.25,33,91.91
4137,G3,654.0,0.25,26,91.91
4138,B5,654.0,1.0,46,91.91
4139,B4,654.0,1.0,46,91.91
4140,D4,654.25,0.25,30,91.91
4141,G4,654.5,0.25,31,91.91
4142,D4,654.75,0.25,33,91.91
4143,G3,655.0,0.25,26,91.91
4144,D6,655.0,1.0,42,91.91
4145,D5,655.0,1.0,42,91.91
4146,B3,655.25,0.25,30,91.91
4147,G4,655.5,0.25,31,91.91
4148,B3,655.75,0.25,33,91.91
4149,G3,656.0,0.25,33,91.91
4150,E6,656.0,1.0,55,91.91
4151,E5,656.0,1.0,55,91.91
4152,C4,656.25,0.25,37,91.91
4153,G4,656.5,0.25,39,91.91
4154,C4,656.75,0.25,42,91.91
4155,G3,657.0,0.25,33,91.91
4156,C6,657.0,1.0,46,91.91
4157,C5,657.0,1.0,46,91.91
4158,E4,657.25,0.25,38,91.91
4159,G4,657.5,0.25,40,91.91
4160,E4,657.75,0.25,44,91.91
4161,G3,658.0,0.25,34,91.91
4162,B5,658.0,1.0,58,91.91
4163,B4,658.0,1.0,58,91.91
4164,D4,658.25,0.25,38,91.91
4165,G4,658.5,0.25,40,91.91
4166,D4,658.75,0.25,45,91.91
4167,G3,659.0,0.25,37,91.91
4168,D6,659.0,1.0,57,91.91
4169,D5,659.0,1.0,57,91.91
4170,B3,659.25,0.25,39,91.91
4171,G4,659.5,0.25,43,91.91
4172,B3,659.75,0.25,46,91.91
4173,G3,660.0,0.25,33,91.91
4174,E-6,660.0,1.0,60,91.91
4175,E-5,660.0,1.0,60,91.91
4176,C4,660.25,0.25,37,91.91
4177,G4,660.5,0.25,39,91.91
4178,C4,660.75,0.25,42,91.91
4179,G3,661.0,0.25,33,91.91
4180,C6,661.0,1.0,44,91.91
4181,C5,661.0,1.0,44,91.91
4182,C4,661.25,0.25,37,91.91
4183,E-4,661.5,0.25,39,91.91
4184,C4,661.75,0.25,42,91.91
4185,G5,662.0,1.0,50,91.91
4186,G3,662.0,0.25,28,91.91
4187,B3,662.25,0.25,30,91.91
4188,D4,662.5,0.25,32,91.91
4189,B3,662.75,0.25,35,91.91
4190,G5,663.0,1.0,47,91.91
4191,G3,663.0,0.25,28,91.91
4192,C4,663.25,0.25,30,91.91
4193,E-4,663.5,0.25,32,91.91
4194,C4,663.75,0.25,35,91.91
4195,A5,664.0,167/1000,37,91.91
4196,G3,664.0,0.125,47,91.91
4197,G5,664.167,167/1000,37,91.91
4198,B3,664.25,0.25,30,91.91
4199,A5,664.333,167/1000,37,91.91
4200,G5,664.5,167/1000,37,91.91
4201,D4,664.5,0.25,31,91.91
4202,A5,664.667,167/1000,38,91.91
4203,B3,664.75,0.25,32,91.91
4204,G5,664.833,167/1000,38,91.91
4205,A5,665.0,167/1000,39,91.91
4206,G3,665.0,0.125,53,91.91
4207,G5,665.167,167/1000,39,91.91
4208,C4,665.25,0.25,32,91.91
4209,A5,665.333,167/1000,39,91.91
4210,G5,665.5,167/1000,39,91.91
4211,E4,665.5,0.25,33,91.91
4212,A5,665.667,167/1000,40,91.91
4213,C4,665.75,0.25,34,91.91
4214,G5,665.833,167/1000,40,91.91
4215,A5,666.0,167/1000,41,91.91
4216,G3,666.0,0.125,57,91.91
4217,G5,666.167,167/1000,41,91.91
4218,B3,666.25,0.25,35,91.91
4219,A5,666.333,167/1000,41,91.91
4220,G5,666.5,167/1000,43,91.91
4221,D4,666.5,0.25,38,91.91
4222,A5,666.667,167/1000,43,91.91
4223,B3,666.75,0.25,38,91.91
4224,G5,666.833,167/1000,43,91.91
4225,A5,667.0,167/1000,44,91.91
4226,G3,667.0,0.125,64,91.91
4227,G5,667.167,167/1000,44,91.91
4228,A3,667.25,0.25,39,91.91
4229,A5,667.333,167/1000,45,91.91
4230,G5,667.5,167/1000,45,91.91
4231,C4,667.5,0.25,41,91.91
4232,A5,667.667,167/1000,45,91.91
4233,A3,667.75,0.25,43,91.91
4234,G5,667.833,167/1000,45,91.91
4235,A5,668.0,167/1000,47,91.91
4236,G3,668.0,0.125,71,91.91
4237,G5,668.167,167/1000,47,91.91
4238,B3,668.25,0.25,47,91.91
4239,A5,668.333,167/1000,47,91.91
4240,G5,668.5,167/1000,47,91.91
4241,A3,668.5,0.25,49,91.91
4242,A5,668.667,167/1000,47,91.91
4243,G3,668.75,0.25,50,91.91
4244,G5,668.833,167/1000,48,91.91
4245,A5,669.0,167/1000,48,91.91
4246,F3,669.0,0.125,76,91.91
4247,G5,669.167,167/1000,48,91.91
4248,A3,669.25,0.25,50,91.91
4249,A5,669.333,167/1000,49,91.91
4250,G5,669.5,167/1000,49,91.91
4251,G3,669.5,0.25,53,91.91
4252,A5,669.667,167/1000,50,91.91
4253,F3,669.75,0.25,55,91.91
4254,G5,669.833,167/1000,51,91.91
4255,A5,670.0,167/1000,51,91.91
4256,E3,670.0,0.125,85,91.91
4257,G5,670.167,167/1000,52,91.91
4258,G3,670.25,0.25,58,91.91
4259,A5,670.333,167/1000,52,91.91
4260,G5,670.5,167/1000,52,91.91
4261,F3,670.5,0.25,61,91.91
4262,A5,670.667,167/1000,54,91.91
4263,E3,670.75,0.25,64,91.91
4264,G5,670.833,167/1000,54,91.91
4265,A5,671.0,167/1000,54,91.91
4266,D3,671.0,0.125,90,91.91
4267,G5,671.167,167/1000,55,91.91
4268,F3,671.25,0.25,68,91.91
4269,A5,671.333,167/1000,55,91.91
4270,G5,671.5,167/1000,55,91.91
4271,E3,671.5,0.25,72,91.91
4272,A5,671.667,167/1000,56,91.91
4273,D3,671.75,0.25,76,91.91
4274,G5,671.833,167/1000,56,91.91
4275,A5,672.0,167/1000,48,91.91
4276,C2,672.0,0.5,94,91.91
4277,C3,672.0,0.5,94,91.91
4278,G5,672.167,167/1000,35,91.91
4279,D3,672.25,0.125,56,91.91
4280,A5,672.333,167/1000,38,91.91
4281,E3,672.375,0.125,57,91.91
4282,G5,672.5,167/1000,35,91.91
4283,F3,672.5,0.125,60,91.91
4284,G3,672.625,0.125,60,91.91
4285,A5,672.667,167/1000,38,91.91
4286,A3,672.75,0.125,62,91.91
4287,G5,672.833,167/1000,36,91.91
4288,B3,672.875,0.125,63,91.91
4289,A5,673.0,167/1000,40,91.91
4290,G6,673.0,0.5,89,91.91
4291,C4,673.0,0.25,63,91.91
4292,G5,673.167,167/1000,36,91.91
4293,D4,673.25,0.125,65,91.91
4294,A5,673.333,167/1000,40,91.91
4295,E4,673.375,0.125,66,91.91
4296,G5,673.5,167/1000,36,91.91
4297,F4,673.5,0.125,67,91.91
4298,G4,673.625,0.125,69,91.91
4299,A5,673.667,167/1000,40,91.91
4300,A4,673.75,0.125,70,91.91
4301,G5,673.833,167/1000,36,91.91
4302,B4,673.875,0.125,71,91.91
4303,A5,674.0,167/1000,40,91.91
4304,G6,674.0,1.5,90,91.91
4305,C5,674.0,0.125,74,91.91
4306,G5,674.167,167/1000,37,91.91
4307,B4,674.25,0.125,71,91.91
4308,A5,674.333,167/1000,40,91.91
4309,G5,674.5,167/1000,36,91.91
4310,A4,674.5,0.125,71,91.91
4311,A5,674.667,167/1000,40,91.91
4312,G4,674.75,0.125,71,91.91
4313,G5,674.833,167/1000,36,91.91
4314,A5,675.0,167/1000,40,91.91
4315,F4,675.0,0.125,72,91.91
4316,G5,675.167,167/1000,35,91.91
4317,E4,675.25,0.125,69,91.91
4318,A5,675.333,167/1000,38,91.91
4319,G5,675.5,167/1000,33,91.91
4320,E6,675.5,0.5,85,91.91
4321,D4,675.5,0.125,69,91.91
4322,A5,675.667,167/1000,38,91.91
4323,C4,675.75,0.125,67,91.91
4324,G5,675.833,167/1000,34,91.91
4325,A5,676.0,167/1000,38,91.91
4326,D6,676.0,1.0,90,91.91
4327,B3,676.0,0.125,73,91.91
4328,G5,676.167,167/1000,34,91.91
4329,C4,676.25,0.125,69,91.91
4330,A5,676.333,167/1000,36,91.91
4331,G5,676.5,167/1000,33,91.91
4332,B3,676.5,0.125,69,91.91
4333,A5,676.667,167/1000,37,91.91
4334,A3,676.75,0.125,69,91.91
4335,G5,676.833,167/1000,33,91.91
4336,A5,677.0,167/1000,37,91.91
4337,G5,677.0,1.0,84,91.91
4338,G3,677.0,0.125,75,91.91
4339,G5,677.167,167/1000,33,91.91
4340,F3,677.25,0.125,69,91.91
4341,A5,677.333,167/1000,38,91.91
4342,G5,677.5,167/1000,32,91.91
4343,E3,677.5,0.125,69,91.91
4344,A5,677.667,167/1000,37,91.91
4345,D3,677.75,0.125,69,91.91
4346,G5,677.833,167/1000,32,91.91
4347,A5,678.0,167/1000,38,91.91
4348,C6,678.0,1.0,87,91.91
4349,C3,678.0,0.125,75,91.91
4350,G5,678.167,167/1000,32,91.91
4351,C3,678.25,0.125,69,91.91
4352,A5,678.333,167/1000,37,91.91
4353,G5,678.5,167/1000,32,91.91
4354,B2,678.5,0.125,69,91.91
4355,A5,678.667,167/1000,36,91.91
4356,A2,678.75,0.125,69,91.91
4357,G5,678.833,167/1000,32,91.91
4358,A5,679.0,167/1000,36,91.91
4359,E6,679.0,0.5,84,91.91
4360,G2,679.0,0.125,72,91.91
4361,G5,679.167,167/1000,34,91.91
4362,F2,679.25,0.125,71,91.91
4363,A5,679.333,167/1000,37,91.91
4364,G5,679.5,167/1000,33,91.91
4365,E2,679.5,0.125,75,91.91
4366,A5,679.667,167/1000,36,91.91
4367,D2,679.75,0.125,80,91.91
4368,G5,679.833,167/1000,32,91.91
4369,A5,680.0,167/1000,36,91.91
4370,C2,680.0,0.5,95,91.91
4371,C3,680.0,0.5,95,91.91
4372,G5,680.167,167/1000,32,91.91
4373,D3,680.25,0.125,56,91.91
4374,A5,680.333,167/1000,37,91.91
4375,E3,680.375,0.125,57,91.91
4376,G5,680.5,167/1000,33,91.91
4377,F3,680.5,0.125,60,91.91
4378,G3,680.625,0.125,60,91.91
4379,A5,680.667,167/1000,38,91.91
4380,A3,680.75,0.125,62,91.91
4381,G5,680.833,167/1000,33,91.91
4382,B3,680.875,0.125,63,91.91
4383,A5,681.0,167/1000,39,91.91
4384,G6,681.0,0.5,90,91.91
4385,C4,681.0,0.25,63,91.91
4386,G5,681.167,167/1000,35,91.91
4387,D4,681.25,0.125,65,91.91
4388,A5,681.333,167/1000,40,91.91
4389,E4,681.375,0.125,66,91.91
4390,G5,681.5,167/1000,36,91.91
4391,F4,681.5,0.125,67,91.91
4392,G4,681.625,0.125,69,91.91
4393,A5,681.667,167/1000,40,91.91
4394,A4,681.75,0.125,70,91.91
4395,G5,681.833,167/1000,36,91.91
4396,B4,681.875,0.125,71,91.91
4397,A5,682.0,167/1000,40,91.91
4398,G6,682.0,1.5,92,91.91
4399,C5,682.0,0.125,74,91.91
4400,G5,682.167,167/1000,37,91.91
4401,B4,682.25,0.125,71,91.91
4402,A5,682.333,167/1000,40,91.91
4403,G5,682.5,167/1000,36,91.91
4404,A4,682.5,0.125,71,91.91
4405,A5,682.667,167/1000,40,91.91
4406,G4,682.75,0.125,71,91.91
4407,G5,682.833,167/1000,36,91.91
4408,A5,683.0,167/1000,39,91.91
4409,F4,683.0,0.125,72,91.91
4410,G5,683.167,167/1000,36,91.91
4411,E4,683.25,0.125,69,91.91
4412,A5,683.333,167/1000,38,91.91
4413,G5,683.5,167/1000,32,91.91
4414,E6,683.5,0.5,84,91.91
4415,D4,683.5,0.125,69,91.91
4416,A5,683.667,167/1000,37,91.91
4417,C4,683.75,0.125,67,91.91
4418,G5,683.833,167/1000,33,91.91
4419,A5,684.0,167/1000,39,91.91
4420,D6,684.0,1.0,90,91.91
4421,B3,684.0,0.125,73,91.91
4422,G5,684.167,167/1000,32,91.91
4423,C4,684.25,0.125,69,91.91
4424,A5,684.333,167/1000,36,91.91
4425,G5,684.5,167/1000,31,91.91
4426,B3,684.5,0.125,69,91.91
4427,A5,684.667,167/1000,36,91.91
4428,A3,684.75,0.125,69,91.91
4429,G5,684.833,167/1000,30,91.91
4430,A5,685.0,167/1000,36,91.91
4431,G5,685.0,1.0,82,91.91
4432,G3,685.0,0.125,75,91.91
4433,G5,685.167,167/1000,31,91.91
4434,F3,685.25,0.125,69,91.91
4435,A5,685.333,167/1000,36,91.91
4436,G5,685.5,167/1000,34,91.91
4437,E3,685.5,0.125,69,91.91
4438,F#5,685.667,167/1000,36,91.91
4439,D3,685.75,0.125,69,91.91
4440,G5,685.833,167/1000,31,91.91
4441,C6,686.0,0.5,86,91.91
4442,C3,686.0,0.5,75,91.91
4443,C2,686.5,0.5,75,91.91
4444,C4,687.0,167/1000,68,91.91
4445,E4,687.167,167/1000,62,91.91
4446,C4,687.333,167/1000,62,91.91
4447,G3,687.5,167/1000,62,91.91
4448,C2,687.5,0.5,66,91.91
4449,C3,687.5,0.5,66,91.91
4450,E3,687.667,167/1000,62,91.91
4451,G3,687.833,167/1000,62,91.91
4452,C4,688.0,167/1000,68,91.91
4453,F4,688.167,167/1000,62,91.91
4454,C4,688.333,167/1000,62,91.91
4455,A3,688.5,167/1000,62,91.91
4456,C2,688.5,0.5,66,91.91
4457,C3,688.5,0.5,66,91.91
4458,F3,688.667,167/1000,62,91.91
4459,A3,688.833,167/1000,62,91.91
4460,C4,689.0,167/1000,68,91.91
4461,E4,689.167,167/1000,61,91.91
4462,C4,689.333,167/1000,61,91.91
4463,G3,689.5,167/1000,61,91.91
4464,C2,689.5,0.5,62,91.91
4465,C3,689.5,0.5,62,91.91
4466,E3,689.667,167/1000,61,91.91
4467,G3,689.833,167/1000,61,91.91
4468,C4,690.0,167/1000,63,91.91
4469,D4,690.167,167/1000,59,91.91
4470,C4,690.333,167/1000,59,91.91
4471,F3,690.5,167/1000,59,91.91
4472,C2,690.5,0.5,58,91.91
4473,C3,690.5,0.5,58,91.91
4474,D3,690.667,167/1000,59,91.91
4475,F3,690.833,167/1000,59,91.91
4476,C4,691.0,167/1000,68,91.91
4477,E-4,691.167,167/1000,61,91.91
4478,C4,691.333,167/1000,61,91.91
4479,F#3,691.5,167/1000,61,91.91
4480,C2,691.5,0.5,64,91.91
4481,C3,691.5,0.5,64,91.91
4482,E-3,691.667,167/1000,61,91.91
4483,F#3,691.833,167/1000,61,91.91
4484,C4,692.0,167/1000,68,91.91
4485,E4,692.167,167/1000,62,91.91
4486,C4,692.333,167/1000,62,91.91
4487,G3,692.5,167/1000,62,91.91
4488,C2,692.5,0.5,66,91.91
4489,C3,692.5,0.5,66,91.91
4490,E3,692.667,167/1000,62,91.91
4491,G3,692.833,167/1000,62,91.91
4492,B3,693.0,167/1000,68,91.91
4493,D4,693.167,167/1000,61,91.91
4494,B3,693.333,167/1000,61,91.91
4495,F3,693.5,167/1000,61,91.91
4496,C2,693.5,0.5,66,91.91
4497,C3,693.5,0.5,66,91.91
4498,D3,693.667,167/1000,61,91.91
4499,F3,693.833,167/1000,61,91.91
4500,G3,694.0,167/1000,68,91.91
4501,C4,694.167,167/1000,62,91.91
4502,G3,694.333,167/1000,62,91.91
4503,E3,694.5,167/1000,62,91.91
4504,C2,694.5,0.5,71,91.91
4505,C3,694.667,167/1000,62,91.91
4506,E3,694.833,167/1000,62,91.91
4507,E4,695.0,167/1000,68,91.91
4508,G4,695.167,167/1000,62,91.91
4509,E4,695.333,167/1000,62,91.91
4510,C4,695.5,167/1000,62,91.91
4511,C3,695.5,0.5,64,91.91
4512,E2,695.5,0.5,64,91.91
4513,E3,695.5,0.5,64,91.91
4514,G3,695.667,167/1000,62,91.91
4515,C4,695.833,167/1000,62,91.91
4516,F4,696.0,167/1000,68,91.91
4517,A4,696.167,167/1000,62,91.91
4518,F4,696.333,167/1000,62,91.91
4519,C4,696.5,167/1000,62,91.91
4520,C3,696.5,0.5,64,91.91
4521,F2,696.5,0.5,64,91.91
4522,F3,696.5,0.5,64,91.91
4523,A3,696.667,167/1000,62,91.91
4524,C4,696.833,167/1000,62,91.91
4525,E4,697.0,167/1000,68,91.91
4526,G4,697.167,167/1000,61,91.91
4527,E4,697.333,167/1000,61,91.91
4528,C4,697.5,167/1000,61,91.91
4529,C3,697.5,0.5,61,91.91
4530,E2,697.5,0.5,61,91.91
4531,E3,697.5,0.5,61,91.91
4532,G3,697.667,167/1000,61,91.91
4533,C4,697.833,167/1000,61,91.91
4534,D4,698.0,167/1000,63,91.91
4535,F4,698.167,167/1000,59,91.91
4536,D4,698.333,167/1000,59,91.91
4537,C4,698.5,167/1000,59,91.91
4538,C3,698.5,0.5,56,91.91
4539,D2,698.5,0.5,56,91.91
4540,D3,698.5,0.5,56,91.91
4541,F3,698.667,167/1000,59,91.91
4542,C4,698.833,167/1000,59,91.91
4543,E-4,699.0,167/1000,68,91.91
4544,F#4,699.167,167/1000,61,91.91
4545,E-4,699.333,167/1000,61,91.91
4546,C4,699.5,167/1000,61,91.91
4547,C3,699.5,0.5,63,91.91
4548,E-2,699.5,0.5,63,91.91
4549,E-3,699.5,0.5,63,91.91
4550,F#3,699.667,167/1000,61,91.91
4551,C4,699.833,167/1000,61,91.91
4552,E4,700.0,167/1000,68,91.91
4553,G4,700.167,167/1000,62,91.91
4554,E4,700.333,167/1000,62,91.91
4555,C4,700.5,167/1000,62,91.91
4556,C3,700.5,0.5,64,91.91
4557,E2,700.5,0.5,64,91.91
4558,E3,700.5,0.5,64,91.91
4559,G3,700.667,167/1000,62,91.91
4560,C4,700.833,167/1000,62,91.91
4561,D4,701.0,167/1000,68,91.91
4562,F4,701.167,167/1000,61,91.91
4563,D4,701.333,167/1000,61,91.91
4564,B3,701.5,167/1000,61,91.91
4565,C3,701.5,0.5,64,91.91
4566,D2,701.5,0.5,64,91.91
4567,D3,701.5,0.5,64,91.91
4568,F3,701.667,167/1000,61,91.91
4569,B3,701.833,167/1000,61,91.91
4570,C4,702.0,167/1000,68,91.91
4571,E4,702.167,167/1000,62,91.91
4572,C4,702.333,167/1000,62,91.91
4573,G3,702.5,167/1000,62,91.91
4574,C2,702.5,0.5,63,91.91
4575,C3,702.5,0.5,63,91.91
4576,E3,702.667,167/1000,62,91.91
4577,G3,702.833,167/1000,62,91.91
4578,G4,703.0,167/1000,68,91.91
4579,C2,703.0,167/1000,51,91.91
4580,C5,703.167,167/1000,59,91.91
4581,E2,703.167,167/1000,45,91.91
4582,G4,703.333,167/1000,59,91.91
4583,G2,703.333,167/1000,45,91.91
4584,E4,703.5,167/1000,67,91.91
4585,C3,703.5,167/1000,51,91.91
4586,C4,703.667,167/1000,58,91.91
4587,G2,703.667,167/1000,46,91.91
4588,E4,703.833,167/1000,58,91.91
4589,E2,703.833,167/1000,46,91.91
4590,A4,704.0,167/1000,71,91.91
4591,C2,704.0,167/1000,51,91.91
4592,C5,704.167,167/1000,61,91.91
4593,F2,704.167,167/1000,46,91.91
4594,A4,704.333,167/1000,61,91.91
4595,A2,704.333,167/1000,46,91.91
4596,F4,704.5,167/1000,67,91.91
4597,C3,704.5,167/1000,51,91.91
4598,C4,704.667,167/1000,60,91.91
4599,A2,704.667,167/1000,45,91.91
4600,F4,704.833,167/1000,60,91.91
4601,F2,704.833,167/1000,45,91.91
4602,G4,705.0,167/1000,68,91.91
4603,C2,705.0,167/1000,51,91.91
4604,C5,705.167,167/1000,59,91.91
4605,E2,705.167,167/1000,46,91.91
4606,G4,705.333,167/1000,60,91.91
4607,G2,705.333,167/1000,46,91.91
4608,E4,705.5,167/1000,67,91.91
4609,C3,705.5,167/1000,51,91.91
4610,C4,705.667,167/1000,58,91.91
4611,G2,705.667,167/1000,46,91.91
4612,E4,705.833,167/1000,58,91.91
4613,E2,705.833,167/1000,46,91.91
4614,F4,706.0,167/1000,70,91.91
4615,C2,706.0,167/1000,51,91.91
4616,C5,706.167,167/1000,59,91.91
4617,D2,706.167,167/1000,46,91.91
4618,F4,706.333,167/1000,59,91.91
4619,F2,706.333,167/1000,46,91.91
4620,D4,706.5,167/1000,67,91.91
4621,C3,706.5,167/1000,51,91.91
4622,C4,706.667,167/1000,60,91.91
4623,F2,706.667,167/1000,45,91.91
4624,D4,706.833,167/1000,59,91.91
4625,D2,706.833,167/1000,45,91.91
4626,F#4,707.0,167/1000,66,91.91
4627,C2,707.0,167/1000,56,91.91
4628,C5,707.167,167/1000,57,91.91
4629,E-2,707.167,167/1000,46,91.91
4630,F#4,707.333,167/1000,60,91.91
4631,F#2,707.333,167/1000,46,91.91
4632,E-4,707.5,167/1000,70,91.91
4633,C3,707.5,167/1000,51,91.91
4634,C4,707.667,167/1000,58,91.91
4635,F#2,707.667,167/1000,46,91.91
4636,E-4,707.833,167/1000,58,91.91
4637,E-2,707.833,167/1000,46,91.91
4638,G4,708.0,167/1000,71,91.91
4639,C2,708.0,167/1000,57,91.91
4640,C5,708.167,167/1000,61,91.91
4641,E2,708.167,167/1000,46,91.91
4642,G4,708.333,167/1000,61,91.91
4643,G2,708.333,167/1000,46,91.91
4644,E4,708.5,167/1000,67,91.91
4645,C3,708.5,167/1000,51,91.91
4646,C4,708.667,167/1000,60,91.91
4647,G2,708.667,167/1000,45,91.91
4648,E4,708.833,167/1000,60,91.91
4649,E2,708.833,167/1000,45,91.91
4650,F4,709.0,167/1000,68,91.91
4651,C2,709.0,167/1000,51,91.91
4652,C5,709.167,167/1000,56,91.91
4653,D2,709.167,167/1000,45,91.91
4654,F4,709.333,167/1000,57,91.91
4655,F2,709.333,167/1000,44,91.91
4656,D4,709.5,167/1000,62,91.91
4657,C3,709.5,167/1000,51,91.91
4658,B3,709.667,167/1000,58,91.91
4659,F2,709.667,167/1000,44,91.91
4660,D4,709.833,167/1000,58,91.91
4661,D2,709.833,167/1000,44,91.91
4662,G4,710.0,167/1000,63,91.91
4663,C2,710.0,167/1000,51,91.91
4664,C5,710.167,167/1000,57,91.91
4665,E2,710.167,167/1000,44,91.91
4666,G4,710.333,167/1000,57,91.91
4667,G2,710.333,167/1000,44,91.91
4668,E4,710.5,167/1000,60,91.91
4669,C3,710.5,167/1000,51,91.91
4670,C4,710.667,167/1000,57,91.91
4671,G2,710.667,167/1000,44,91.91
4672,E4,710.833,167/1000,57,91.91
4673,E2,710.833,167/1000,46,91.91
4674,C5,711.0,167/1000,68,91.91
4675,C2,711.0,167/1000,51,91.91
4676,E5,711.167,167/1000,59,91.91
4677,C3,711.167,167/1000,45,91.91
4678,C5,711.333,167/1000,59,91.91
4679,E3,711.333,167/1000,45,91.91
4680,G4,711.5,167/1000,67,91.91
4681,G3,711.5,167/1000,51,91.91
4682,E4,711.667,167/1000,58,91.91
4683,E3,711.667,167/1000,46,91.91
4684,G4,711.833,167/1000,58,91.91
4685,C3,711.833,167/1000,46,91.91
4686,C5,712.0,167/1000,71,91.91
4687,C2,712.0,167/1000,51,91.91
4688,F5,712.167,167/1000,61,91.91
4689,C3,712.167,167/1000,46,91.91
4690,C5,712.333,167/1000,61,91.91
4691,F3,712.333,167/1000,46,91.91
4692,A4,712.5,167/1000,67,91.91
4693,A3,712.5,167/1000,51,91.91
4694,F4,712.667,167/1000,60,91.91
4695,F3,712.667,167/1000,45,91.91
4696,A4,712.833,167/1000,60,91.91
4697,C3,712.833,167/1000,45,91.91
4698,C5,713.0,167/1000,68,91.91
4699,C2,713.0,167/1000,51,91.91
4700,E5,713.167,167/1000,59,91.91
4701,C3,713.167,167/1000,46,91.91
4702,C5,713.333,167/1000,60,91.91
4703,E3,713.333,167/1000,46,91.91
4704,G4,713.5,167/1000,67,91.91
4705,G3,713.5,167/1000,51,91.91
4706,E4,713.667,167/1000,58,91.91
4707,E3,713.667,167/1000,46,91.91
4708,G4,713.833,167/1000,58,91.91
4709,C3,713.833,167/1000,46,91.91
4710,C5,714.0,167/1000,70,91.91
4711,C2,714.0,167/1000,51,91.91
4712,D5,714.167,167/1000,59,91.91
4713,C3,714.167,167/1000,46,91.91
4714,C5,714.333,167/1000,59,91.91
4715,D3,714.333,167/1000,46,91.91
4716,F4,714.5,167/1000,67,91.91
4717,F3,714.5,167/1000,51,91.91
4718,D4,714.667,167/1000,60,91.91
4719,D3,714.667,167/1000,45,91.91
4720,F4,714.833,167/1000,59,91.91
4721,C3,714.833,167/1000,45,91.91
4722,C5,715.0,167/1000,66,91.91
4723,C2,715.0,167/1000,56,91.91
4724,E-5,715.167,167/1000,57,91.91
4725,C3,715.167,167/1000,46,91.91
4726,C5,715.333,167/1000,60,91.91
4727,E-3,715.333,167/1000,46,91.91
4728,F#4,715.5,167/1000,70,91.91
4729,F#3,715.5,167/1000,51,91.91
4730,E-4,715.667,167/1000,58,91.91
4731,E-3,715.667,167/1000,46,91.91
4732,F#4,715.833,167/1000,58,91.91
4733,C3,715.833,167/1000,46,91.91
4734,C5,716.0,167/1000,71,91.91
4735,C2,716.0,167/1000,57,91.91
4736,E5,716.167,167/1000,61,91.91
4737,C3,716.167,167/1000,46,91.91
4738,C5,716.333,167/1000,61,91.91
4739,E3,716.333,167/1000,46,91.91
4740,G4,716.5,167/1000,67,91.91
4741,G3,716.5,167/1000,51,91.91
4742,E4,716.667,167/1000,60,91.91
4743,E3,716.667,167/1000,45,91.91
4744,G4,716.833,167/1000,60,91.91
4745,C3,716.833,167/1000,45,91.91
4746,B4,717.0,167/1000,68,91.91
4747,C2,717.0,167/1000,51,91.91
4748,D5,717.167,167/1000,56,91.91
4749,C3,717.167,167/1000,45,91.91
4750,B4,717.333,167/1000,57,91.91
4751,D3,717.333,167/1000,44,91.91
4752,F4,717.5,167/1000,62,91.91
4753,F3,717.5,167/1000,51,91.91
4754,D4,717.667,167/1000,58,91.91
4755,D3,717.667,167/1000,44,91.91
4756,F4,717.833,167/1000,58,91.91
4757,C3,717.833,167/1000,44,91.91
4758,G4,718.0,167/1000,63,91.91
4759,C2,718.0,167/1000,51,91.91
4760,C5,718.167,167/1000,57,91.91
4761,C3,718.167,167/1000,44,91.91
4762,G4,718.333,167/1000,57,91.91
4763,E3,718.333,167/1000,44,91.91
4764,E4,718.5,167/1000,60,91.91
4765,G3,718.5,167/1000,51,91.91
4766,C4,718.667,167/1000,57,91.91
4767,E3,718.667,167/1000,44,91.91
4768,E4,718.833,167/1000,57,91.91
4769,C3,718.833,167/1000,46,91.91
4770,C5,719.0,167/1000,74,91.91
4771,C2,719.0,167/1000,59,91.91
4772,E5,719.167,167/1000,59,91.91
4773,C3,719.167,167/1000,45,91.91
4774,C5,719.333,167/1000,59,91.91
4775,E3,719.333,167/1000,45,91.91
4776,G4,719.5,167/1000,70,91.91
4777,G3,719.5,167/1000,51,91.91
4778,E4,719.667,167/1000,58,91.91
4779,E3,719.667,167/1000,46,91.91
4780,G4,719.833,167/1000,58,91.91
4781,C3,719.833,167/1000,46,91.91
4782,B4,720.0,167/1000,71,91.91
4783,G2,720.0,167/1000,51,91.91
4784,D5,720.167,167/1000,61,91.91
4785,B2,720.167,167/1000,46,91.91
4786,B4,720.333,167/1000,61,91.91
4787,D3,720.333,167/1000,46,91.91
4788,G4,720.5,167/1000,67,91.91
4789,G3,720.5,167/1000,51,91.91
4790,D4,720.667,167/1000,60,91.91
4791,D3,720.667,167/1000,45,91.91
4792,G4,720.833,167/1000,60,91.91
4793,B2,720.833,167/1000,45,91.91
4794,D5,721.0,167/1000,74,91.91
4795,D2,721.0,167/1000,59,91.91
4796,F5,721.167,167/1000,59,91.91
4797,D3,721.167,167/1000,45,91.91
4798,D5,721.333,167/1000,59,91.91
4799,F3,721.333,167/1000,45,91.91
4800,A4,721.5,167/1000,70,91.91
4801,A3,721.5,167/1000,51,91.91
4802,F4,721.667,167/1000,58,91.91
4803,F3,721.667,167/1000,46,91.91
4804,A4,721.833,167/1000,58,91.91
4805,D3,721.833,167/1000,46,91.91
4806,C5,722.0,167/1000,71,91.91
4807,A2,722.0,167/1000,51,91.91
4808,E5,722.167,167/1000,61,91.91
4809,C3,722.167,167/1000,46,91.91
4810,C5,722.333,167/1000,61,91.91
4811,E3,722.333,167/1000,46,91.91
4812,A4,722.5,167/1000,67,91.91
4813,A3,722.5,167/1000,51,91.91
4814,E4,722.667,167/1000,60,91.91
4815,E3,722.667,167/1000,45,91.91
4816,A4,722.833,167/1000,60,91.91
4817,C3,722.833,167/1000,45,91.91
4818,F5,723.0,167/1000,74,91.91
4819,F2,723.0,167/1000,59,91.91
4820,A5,723.167,167/1000,59,91.91
4821,C3,723.167,167/1000,45,91.91
4822,F5,723.333,167/1000,59,91.91
4823,D3,723.333,167/1000,45,91.91
4824,C5,723.5,167/1000,70,91.91
4825,F3,723.5,167/1000,51,91.91
4826,A4,723.667,167/1000,58,91.91
4827,D3,723.667,167/1000,46,91.91
4828,C5,723.833,167/1000,58,91.91
4829,C3,723.833,167/1000,46,91.91
4830,D5,724.0,167/1000,75,91.91
4831,G2,724.0,167/1000,51,91.91
4832,G5,724.167,167/1000,61,91.91
4833,C3,724.167,167/1000,46,91.91
4834,D5,724.333,167/1000,61,91.91
4835,D3,724.333,167/1000,46,91.91
4836,C5,724.5,167/1000,67,91.91
4837,G3,724.5,167/1000,51,91.91
4838,G4,724.667,167/1000,60,91.91
4839,D3,724.667,167/1000,45,91.91
4840,C5,724.833,167/1000,60,91.91
4841,C3,724.833,167/1000,45,91.91
4842,D5,725.0,167/1000,74,91.91
4843,G2,725.0,167/1000,59,91.91
4844,G5,725.167,167/1000,59,91.91
4845,B2,725.167,167/1000,45,91.91
4846,D5,725.333,167/1000,59,91.91
4847,D3,725.333,167/1000,45,91.91
4848,B4,725.5,167/1000,70,91.91
4849,G3,725.5,167/1000,51,91.91
4850,G4,725.667,167/1000,58,91.91
4851,D3,725.667,167/1000,46,91.91
4852,B4,725.833,167/1000,58,91.91
4853,B2,725.833,167/1000,46,91.91
4854,E5,726.0,167/1000,71,91.91
4855,C2,726.0,167/1000,51,91.91
4856,G5,726.167,167/1000,58,91.91
4857,C3,726.167,167/1000,44,91.91
4858,E5,726.333,167/1000,58,91.91
4859,E3,726.333,167/1000,44,91.91
4860,C5,726.5,167/1000,63,91.91
4861,G3,726.5,167/1000,50,91.91
4862,G4,726.667,167/1000,60,91.91
4863,E3,726.667,167/1000,43,91.91
4864,C5,726.833,167/1000,58,91.91
4865,C3,726.833,167/1000,43,91.91
4866,E5,727.0,167/1000,74,91.91
4867,C2,727.0,167/1000,59,91.91
4868,G5,727.167,167/1000,59,91.91
4869,C3,727.167,167/1000,45,91.91
4870,E5,727.333,167/1000,59,91.91
4871,E3,727.333,167/1000,45,91.91
4872,C5,727.5,167/1000,70,91.91
4873,G3,727.5,167/1000,51,91.91
4874,G4,727.667,167/1000,58,91.91
4875,E3,727.667,167/1000,46,91.91
4876,C5,727.833,167/1000,58,91.91
4877,C3,727.833,167/1000,46,91.91
4878,D5,728.0,167/1000,71,91.91
4879,G2,728.0,167/1000,51,91.91
4880,G5,728.167,167/1000,61,91.91
4881,B2,728.167,167/1000,46,91.91
4882,D5,728.333,167/1000,61,91.91
4883,D3,728.333,167/1000,46,91.91
4884,B4,728.5,167/1000,67,91.91
4885,G3,728.5,167/1000,51,91.91
4886,G4,728.667,167/1000,60,91.91
4887,D3,728.667,167/1000,45,91.91
4888,B4,728.833,167/1000,60,91.91
4889,B2,728.833,167/1000,45,91.91
4890,F5,729.0,167/1000,74,91.91
4891,D2,729.0,167/1000,59,91.91
4892,A5,729.167,167/1000,59,91.91
4893,D3,729.167,167/1000,45,91.91
4894,F5,729.333,167/1000,59,91.91
4895,F3,729.333,167/1000,45,91.91
4896,D5,729.5,167/1000,70,91.91
4897,A3,729.5,167/1000,51,91.91
4898,A4,729.667,167/1000,58,91.91
4899,F3,729.667,167/1000,46,91.91
4900,D5,729.833,167/1000,58,91.91
4901,D3,729.833,167/1000,46,91.91
4902,E5,730.0,167/1000,71,91.91
4903,A2,730.0,167/1000,51,91.91
4904,A5,730.167,167/1000,61,91.91
4905,C3,730.167,167/1000,46,91.91
4906,E5,730.333,167/1000,61,91.91
4907,E3,730.333,167/1000,46,91.91
4908,C5,730.5,167/1000,67,91.91
4909,A3,730.5,167/1000,51,91.91
4910,A4,730.667,167/1000,60,91.91
4911,E3,730.667,167/1000,45,91.91
4912,C5,730.833,167/1000,60,91.91
4913,C3,730.833,167/1000,45,91.91
4914,A5,731.0,167/1000,74,91.91
4915,A2,731.0,167/1000,59,91.91
4916,C6,731.167,167/1000,59,91.91
4917,C3,731.167,167/1000,45,91.91
4918,A5,731.333,167/1000,59,91.91
4919,E3,731.333,167/1000,45,91.91
4920,E5,731.5,167/1000,70,91.91
4921,A3,731.5,167/1000,51,91.91
4922,C5,731.667,167/1000,58,91.91
4923,E3,731.667,167/1000,46,91.91
4924,E5,731.833,167/1000,58,91.91
4925,C3,731.833,167/1000,46,91.91
4926,A5,732.0,167/1000,75,91.91
4927,D2,732.0,167/1000,51,91.91
4928,C6,732.167,167/1000,61,91.91
4929,A2,732.167,167/1000,46,91.91
4930,A5,732.333,167/1000,61,91.91
4931,C3,732.333,167/1000,46,91.91
4932,F#5,732.5,167/1000,67,91.91
4933,D3,732.5,167/1000,51,91.91
4934,C5,732.667,167/1000,60,91.91
4935,C3,732.667,167/1000,45,91.91
4936,F#5,732.833,167/1000,60,91.91
4937,A2,732.833,167/1000,45,91.91
4938,A5,733.0,167/1000,74,91.91
4939,D2,733.0,167/1000,59,91.91
4940,C6,733.167,167/1000,59,91.91
4941,A2,733.167,167/1000,45,91.91
4942,A5,733.333,167/1000,59,91.91
4943,C3,733.333,167/1000,45,91.91
4944,F#5,733.5,167/1000,70,91.91
4945,D3,733.5,167/1000,51,91.91
4946,C5,733.667,167/1000,58,91.91
4947,C3,733.667,167/1000,46,91.91
4948,F#5,733.833,167/1000,58,91.91
4949,A2,733.833,167/1000,46,91.91
4950,G5,734.0,167/1000,71,91.91
4951,G2,734.0,167/1000,51,91.91
4952,B5,734.167,167/1000,58,91.91
4953,D3,734.167,167/1000,44,91.91
4954,G5,734.333,167/1000,58,91.91
4955,G3,734.333,167/1000,44,91.91
4956,D5,734.5,167/1000,63,91.91
4957,G2,734.5,167/1000,50,91.91
4958,B4,734.667,167/1000,60,91.91
4959,B2,734.667,167/1000,43,91.91
4960,D5,734.833,167/1000,58,91.91
4961,G3,734.833,167/1000,43,91.91
4962,A5,735.0,167/1000,74,91.91
4963,G2,735.0,167/1000,59,91.91
4964,D6,735.167,167/1000,59,91.91
4965,C3,735.167,167/1000,45,91.91
4966,A5,735.333,167/1000,59,91.91
4967,D3,735.333,167/1000,45,91.91
4968,F#5,735.5,167/1000,70,91.91
4969,G2,735.5,167/1000,51,91.91
4970,D5,735.667,167/1000,58,91.91
4971,C3,735.667,167/1000,46,91.91
4972,F#5,735.833,167/1000,58,91.91
4973,D3,735.833,167/1000,46,91.91
4974,B5,736.0,167/1000,75,91.91
4975,G2,736.0,167/1000,51,91.91
4976,D6,736.167,167/1000,61,91.91
4977,B2,736.167,167/1000,46,91.91
4978,B5,736.333,167/1000,61,91.91
4979,D3,736.333,167/1000,46,91.91
4980,G5,736.5,167/1000,67,91.91
4981,G2,736.5,167/1000,51,91.91
4982,D5,736.667,167/1000,60,91.91
4983,B2,736.667,167/1000,45,91.91
4984,G5,736.833,167/1000,60,91.91
4985,D3,736.833,167/1000,45,91.91
4986,A5,737.0,167/1000,74,91.91
4987,G2,737.0,167/1000,59,91.91
4988,D6,737.167,167/1000,59,91.91
4989,C3,737.167,167/1000,45,91.91
4990,A5,737.333,167/1000,59,91.91
4991,D3,737.333,167/1000,45,91.91
4992,F#5,737.5,167/1000,70,91.91
4993,G2,737.5,167/1000,51,91.91
4994,D5,737.667,167/1000,58,91.91
4995,C3,737.667,167/1000,46,91.91
4996,F#5,737.833,167/1000,58,91.91
4997,D3,737.833,167/1000,46,91.91
4998,B5,738.0,167/1000,77,91.91
4999,G2,738.0,167/1000,58,91.91
5000,D6,738.167,167/1000,58,91.91
5001,B2,738.167,167/1000,44,91.91
5002,B5,738.333,167/1000,58,91.91
5003,D3,738.333,167/1000,44,91.91
5004,G5,738.5,167/1000,63,91.91
5005,G2,738.5,167/1000,50,91.91
5006,D5,738.667,167/1000,60,91.91
5007,B2,738.667,167/1000,43,91.91
5008,G5,738.833,167/1000,58,91.91
5009,D3,738.833,167/1000,43,91.91
5010,D6,739.0,167/1000,51,91.91
5011,G2,739.0,167/1000,40,91.91
5012,F#6,739.167,167/1000,40,91.91
5013,C3,739.167,167/1000,30,91.91
5014,D6,739.333,167/1000,40,91.91
5015,D3,739.333,167/1000,30,91.91
5016,A5,739.5,167/1000,48,91.91
5017,A3,739.5,167/1000,34,91.91
5018,F#5,739.667,167/1000,39,91.91
5019,D3,739.667,167/1000,31,91.91
5020,A5,739.833,167/1000,39,91.91
5021,C3,739.833,167/1000,31,91.91
5022,D6,740.0,167/1000,51,91.91
5023,G2,740.0,167/1000,35,91.91
5024,G6,740.167,167/1000,42,91.91
5025,B2,740.167,167/1000,31,91.91
5026,D6,740.333,167/1000,42,91.91
5027,D3,740.333,167/1000,31,91.91
5028,B5,740.5,167/1000,45,91.91
5029,G3,740.5,167/1000,34,91.91
5030,G5,740.667,167/1000,41,91.91
5031,D3,740.667,167/1000,30,91.91
5032,B5,740.833,167/1000,41,91.91
5033,B2,740.833,167/1000,30,91.91
5034,D6,741.0,167/1000,51,91.91
5035,G2,741.0,167/1000,40,91.91
5036,F#6,741.167,167/1000,40,91.91
5037,C3,741.167,167/1000,30,91.91
5038,D6,741.333,167/1000,40,91.91
5039,D3,741.333,167/1000,30,91.91
5040,A5,741.5,167/1000,48,91.91
5041,A3,741.5,167/1000,34,91.91
5042,F#5,741.667,167/1000,39,91.91
5043,D3,741.667,167/1000,31,91.91
5044,A5,741.833,167/1000,39,91.91
5045,C3,741.833,167/1000,31,91.91
5046,D6,742.0,167/1000,52,91.91
5047,G2,742.0,167/1000,39,91.91
5048,G6,742.167,167/1000,39,91.91
5049,B2,742.167,167/1000,30,91.91
5050,D6,742.333,167/1000,39,91.91
5051,D3,742.333,167/1000,30,91.91
5052,B5,742.5,167/1000,43,91.91
5053,G3,742.5,167/1000,34,91.91
5054,G5,742.667,167/1000,41,91.91
5055,D3,742.667,167/1000,29,91.91
5056,B5,742.833,167/1000,39,91.91
5057,B2,742.833,167/1000,29,91.91
5058,A5,743.0,167/1000,81,91.91
5059,G2,743.0,167/1000,65,91.91
5060,D6,743.167,167/1000,61,91.91
5061,C3,743.167,167/1000,49,91.91
5062,A5,743.333,167/1000,61,91.91
5063,D3,743.333,167/1000,49,91.91
5064,F#5,743.5,167/1000,69,91.91
5065,G2,743.5,167/1000,56,91.91
5066,D5,743.667,167/1000,63,91.91
5067,C3,743.667,167/1000,51,91.91
5068,F#5,743.833,167/1000,63,91.91
5069,D3,743.833,167/1000,51,91.91
5070,B5,744.0,167/1000,82,91.91
5071,G2,744.0,167/1000,56,91.91
5072,D6,744.167,167/1000,62,91.91
5073,B2,744.167,167/1000,51,91.91
5074,B5,744.333,167/1000,62,91.91
5075,D3,744.333,167/1000,51,91.91
5076,G5,744.5,167/1000,67,91.91
5077,G2,744.5,167/1000,56,91.91
5078,D5,744.667,167/1000,63,91.91
5079,B2,744.667,167/1000,49,91.91
5080,G5,744.833,167/1000,66,91.91
5081,D3,744.833,167/1000,49,91.91
5082,A5,745.0,167/1000,81,91.91
5083,G2,745.0,167/1000,65,91.91
5084,D6,745.167,167/1000,61,91.91
5085,C3,745.167,167/1000,49,91.91
5086,A5,745.333,167/1000,61,91.91
5087,D3,745.333,167/1000,49,91.91
5088,F#5,745.5,167/1000,68,91.91
5089,G2,745.5,167/1000,56,91.91
5090,D5,745.667,167/1000,63,91.91
5091,C3,745.667,167/1000,51,91.91
5092,F#5,745.833,167/1000,63,91.91
5093,D3,745.833,167/1000,51,91.91
5094,B5,746.0,167/1000,84,91.91
5095,G2,746.0,167/1000,63,91.91
5096,D6,746.167,167/1000,63,91.91
5097,B2,746.167,167/1000,48,91.91
5098,B5,746.333,167/1000,63,91.91
5099,D3,746.333,167/1000,48,91.91
5100,G5,746.5,167/1000,69,91.91
5101,G2,746.5,167/1000,54,91.91
5102,D5,746.667,167/1000,66,91.91
5103,B2,746.667,167/1000,47,91.91
5104,G5,746.833,167/1000,63,91.91
5105,D3,746.833,167/1000,47,91.91
5106,D6,747.0,167/1000,51,91.91
5107,G2,747.0,167/1000,40,91.91
5108,F#6,747.167,167/1000,40,91.91
5109,C3,747.167,167/1000,30,91.91
5110,D6,747.333,167/1000,40,91.91
5111,D3,747.333,167/1000,30,91.91
5112,A5,747.5,167/1000,48,91.91
5113,A3,747.5,167/1000,34,91.91
5114,F#5,747.667,167/1000,39,91.91
5115,D3,747.667,167/1000,31,91.91
5116,A5,747.833,167/1000,39,91.91
5117,C3,747.833,167/1000,31,91.91
5118,D6,748.0,167/1000,51,91.91
5119,G2,748.0,167/1000,35,91.91
5120,G6,748.167,167/1000,42,91.91
5121,B2,748.167,167/1000,31,91.91
5122,D6,748.333,167/1000,42,91.91
5123,D3,748.333,167/1000,31,91.91
5124,B5,748.5,167/1000,45,91.91
5125,G3,748.5,167/1000,34,91.91
5126,G5,748.667,167/1000,41,91.91
5127,D3,748.667,167/1000,30,91.91
5128,B5,748.833,167/1000,41,91.91
5129,B2,748.833,167/1000,30,91.91
5130,D6,749.0,167/1000,51,91.91
5131,G2,749.0,167/1000,40,91.91
5132,F#6,749.167,167/1000,40,91.91
5133,C3,749.167,167/1000,30,91.91
5134,D6,749.333,167/1000,40,91.91
5135,D3,749.333,167/1000,30,91.91
5136,A5,749.5,167/1000,48,91.91
5137,A3,749.5,167/1000,34,91.91
5138,F#5,749.667,167/1000,39,91.91
5139,D3,749.667,167/1000,31,91.91
5140,A5,749.833,167/1000,39,91.91
5141,C3,749.833,167/1000,31,91.91
5142,D6,750.0,167/1000,57,91.91
5143,G2,750.0,167/1000,43,91.91
5144,G6,750.167,167/1000,42,91.91
5145,B2,750.167,167/1000,33,91.91
5146,D6,750.333,167/1000,44,91.91
5147,D3,750.333,167/1000,34,91.91
5148,B5,750.5,167/1000,49,91.91
5149,G3,750.5,167/1000,39,91.91
5150,G5,750.667,167/1000,48,91.91
5151,D3,750.667,167/1000,34,91.91
5152,B5,750.833,167/1000,47,91.91
5153,B2,750.833,167/1000,35,91.91
5154,D6,751.0,167/1000,63,91.91
5155,G2,751.0,167/1000,50,91.91
5156,F#6,751.167,167/1000,50,91.91
5157,C3,751.167,167/1000,38,91.91
5158,D6,751.333,167/1000,51,91.91
5159,D3,751.333,167/1000,39,91.91
5160,A5,751.5,167/1000,63,91.91
5161,A3,751.5,167/1000,45,91.91
5162,F#5,751.667,167/1000,52,91.91
5163,D3,751.667,167/1000,42,91.91
5164,A5,751.833,167/1000,53,91.91
5165,C3,751.833,167/1000,43,91.91
5166,D6,752.0,167/1000,72,91.91
5167,G2,752.0,167/1000,50,91.91
5168,G6,752.167,167/1000,60,91.91
5169,B2,752.167,167/1000,44,91.91
5170,D6,752.333,167/1000,62,91.91
5171,D3,752.333,167/1000,45,91.91
5172,B5,752.5,167/1000,67,91.91
5173,G3,752.5,167/1000,51,91.91
5174,G5,752.667,167/1000,62,91.91
5175,D3,752.667,167/1000,45,91.91
5176,B5,752.833,167/1000,64,91.91
5177,B2,752.833,167/1000,47,91.91
5178,D6,753.0,167/1000,80,91.91
5179,G2,753.0,167/1000,64,91.91
5180,F#6,753.167,167/1000,64,91.91
5181,C3,753.167,167/1000,49,91.91
5182,D6,753.333,167/1000,66,91.91
5183,D3,753.333,167/1000,50,91.91
5184,A5,753.5,167/1000,80,91.91
5185,A3,753.5,167/1000,57,91.91
5186,F#5,753.667,167/1000,66,91.91
5187,D3,753.667,167/1000,53,91.91
5188,A5,753.833,167/1000,67,91.91
5189,C3,753.833,167/1000,54,91.91
5190,G6,754.0,0.5,101,91.91
5191,G5,754.0,0.5,101,91.91
5192,G2,754.0,0.5,71,91.91
5193,B2,754.0,0.5,71,91.91
5194,D3,754.0,0.5,71,91.91
5195,G3,754.0,0.5,71,91.91
5196,G4,755.0,0.5,85,91.91
5197,B4,755.0,0.5,85,91.91
5198,D5,755.0,0.5,85,91.91
5199,G5,755.0,0.5,85,91.91
5200,G4,756.0,2.0,85,91.91
5201,B4,756.0,2.0,85,91.91
5202,D5,756.0,2.0,85,91.91
5203,G5,756.0,2.0,85,91.91
5204,G2,757.0,0.5,82,91.91
5205,B2,757.0,0.5,82,91.91
5206,D3,757.0,0.5,82,91.91
5207,G3,757.0,0.5,82,91.91
5208,G1,758.0,0.5,93,91.91
5209,G2,758.0,0.5,93,91.91
5210,B4,759.0,0.5,85,91.91
5211,D5,759.0,0.5,85,91.91
5212,G5,759.0,0.5,85,91.91
5213,B5,759.0,0.5,85,91.91
5214,B4,760.0,2.0,85,91.91
5215,D5,760.0,2.0,85,91.91
5216,G5,760.0,2.0,85,91.91
5217,B5,760.0,2.0,85,91.91
5218,G2,761.029,0.5,82,91.91
5219,B2,761.029,0.5,82,91.91
5220,D3,761.029,0.5,82,91.91
5221,G3,761.029,0.5,82,91.91
5222,G1,762.029,0.5,93,91.91
5223,G2,762.029,0.5,93,91.91
5224,D5,763.0,0.5,85,91.91
5225,F5,763.0,0.5,85,91.91
5226,B5,763.0,0.5,85,91.91
5227,D6,763.0,0.5,85,91.91
5228,D5,764.0,2.0,85,91.91
5229,F5,764.0,2.0,85,91.91
5230,B5,764.0,2.0,85,91.91
5231,D6,764.0,2.0,85,91.91
5232,G2,765.029,0.5,82,91.91
5233,B2,765.029,0.5,82,91.91
5234,D3,765.029,0.5,82,91.91
5235,G3,765.029,0.5,82,91.91
5236,G1,766.029,0.5,93,91.91
5237,G2,766.029,0.5,93,91.91
5238,F5,767.0,0.5,85,91.91
5239,B5,767.0,0.5,85,91.91
5240,D6,767.0,0.5,85,91.91
5241,F6,767.0,0.5,85,91.91
5242,F5,768.0,2.0,85,91.91
5243,B5,768.0,2.0,85,91.91
5244,D6,768.0,2.0,85,91.91
5245,F6,768.0,2.0,85,91.91
5246,G2,769.029,0.5,82,91.91
5247,B2,769.029,0.5,82,91.91
5248,D3,769.029,0.5,82,91.91
5249,G3,769.029,0.5,82,91.91
5250,G1,770.029,0.5,83,91.91
5251,G2,770.029,0.5,83,91.91
5252,B5,771.0,0.5,72,91.91
5253,D6,771.0,0.5,72,91.91
5254,F6,771.0,0.5,72,91.91
5255,G#6,771.0,0.5,72,91.91
5256,F4,772.0,0.5,56,91.91
5257,D4,772.0,0.5,56,91.91
5258,B3,772.0,0.5,56,91.91
5259,G3,772.0,0.5,56,91.91
5260,G#5,773.0,0.5,62,91.91
5261,B5,773.0,0.5,62,91.91
5262,D6,773.0,0.5,62,91.91
5263,F6,773.0,0.5,62,91.91
5264,F4,774.0,0.5,51,91.91
5265,D4,774.0,0.5,51,91.91
5266,B3,774.0,0.5,51,91.91
5267,G3,774.0,0.5,51,91.91
5268,D6,775.0,0.5,60,91.91
5269,B5,775.0,0.5,60,91.91
5270,G#5,775.0,0.5,60,91.91
5271,F5,775.0,0.5,60,91.91
5272,F4,776.0,0.5,45,91.91
5273,D4,776.0,0.5,45,91.91
5274,B3,776.0,0.5,45,91.91
5275,G3,776.0,0.5,45,91.91
5276,B5,777.0,0.5,52,91.91
5277,G#5,777.0,0.5,52,91.91
5278,F5,777.0,0.5,52,91.91
5279,D5,777.0,0.5,52,91.91
5280,G3,778.0,0.5,42,91.91
5281,B3,778.0,0.5,42,91.91
5282,D4,778.0,0.5,42,91.91
5283,F4,778.0,0.5,42,91.91
5284,B4,779.0,0.5,43,91.91
5285,D5,779.0,0.5,43,91.91
5286,F5,779.0,0.5,43,91.91
5287,G#5,779.0,0.5,43,91.91
5288,G2,780.0,0.5,34,91.91
5289,B2,780.0,0.5,34,91.91
5290,D3,780.0,0.5,34,91.91
5291,F3,780.0,0.5,34,91.91
5292,G#4,781.0,0.5,41,91.91
5293,B4,781.0,0.5,41,91.91
5294,F5,781.0,0.5,41,91.91
5295,D5,781.0,0.5,41,91.91
5296,G2,782.0,0.5,32,91.91
5297,B2,782.0,0.5,32,91.91
5298,D3,782.0,0.5,32,91.91
5299,F3,782.0,0.5,32,91.91
5300,F4,783.0,0.5,38,91.91
5301,G#4,783.0,0.5,38,91.91
5302,B4,783.0,0.5,38,91.91
5303,D5,783.0,0.5,38,91.91
5304,G2,784.0,0.5,30,91.91
5305,B2,784.0,0.5,30,91.91
5306,D3,784.0,0.5,30,91.91
5307,F3,784.0,0.5,30,91.91
5308,D4,785.0,0.5,36,91.91
5309,F4,785.0,0.5,36,91.91
5310,G#4,785.0,0.5,36,91.91
5311,B4,785.0,0.5,36,91.91
5312,G2,786.0,0.5,22,91.91
5313,B2,786.0,0.5,22,91.91
5314,D3,786.0,0.5,22,91.91
5315,F3,786.0,0.5,22,91.91
5316,B3,787.0,0.5,28,91.91
5317,D4,787.0,0.5,28,91.91
5318,F4,787.0,0.5,28,91.91
5319,G#4,787.0,0.5,28,91.91
5320,G2,790.0,1.0,22,91.91
5321,B-2,790.0,1.0,22,91.91
5322,C#3,790.0,1.0,22,91.91
5323,E3,790.0,1.0,22,91.91
5324,B-3,791.0,1.0,28,91.91
5325,C#4,791.0,1.0,28,91.91
5326,E4,791.0,1.0,28,91.91
5327,G4,791.0,1.0,28,91.91
5328,G2,794.0,1.0,22,91.91
5329,A2,794.0,1.0,22,91.91
5330,C3,794.0,1.0,22,91.91
5331,E-3,794.0,1.0,22,91.91
5332,A3,795.0,1.0,28,91.91
5333,C4,795.0,1.0,28,91.91
5334,E-4,795.0,1.0,28,91.91
5335,F#4,795.0,1.0,28,91.91
5336,G2,798.0,0.5,25,91.91
5337,B3,799.0,1.0,24,91.91
5338,D4,799.0,1.0,24,91.91
5339,F4,799.0,1.0,24,91.91
5340,G5,800.0,0.5,30,91.91
5341,B3,800.0,2.0,24,91.91
5342,D4,800.0,2.0,24,91.91
5343,F4,800.0,2.0,24,91.91
5344,G3,801.0,0.5,27,91.91
5345,G2,802.0,0.5,25,91.91
5346,G1,803.0,1.0,25,91.91
5347,B3,804.0,2.0,24,91.91
5348,D4,804.0,2.0,24,91.91
5349,F4,804.0,2.0,24,91.91
5350,C2,804.0,0.5,74,91.91
5351,C3,804.0,0.5,74,91.91
5352,E4,804.5,0.25,41,91.91
5353,G4,804.75,0.25,34,91.91
5354,E4,805.0,0.25,41,91.91
5355,G4,805.25,0.25,34,91.91
5356,E4,805.5,0.25,41,91.91
5357,G4,805.75,0.25,33,91.91
5358,C4,806.0,0.5,85,91.91
5359,F4,806.0,0.25,41,91.91
5360,G4,806.25,0.25,34,91.91
5361,G6,806.5,0.25,50,91.91
5362,F4,806.5,0.25,41,91.91
5363,G4,806.75,0.25,35,91.91
5364,G6,807.0,0.75,53,91.91
5365,E4,807.0,0.25,41,91.91
5366,G4,807.25,0.25,34,91.91
5367,E4,807.5,0.25,41,91.91
5368,E6,807.75,0.25,50,91.91
5369,G4,807.75,0.25,35,91.91
5370,D6,808.0,0.5,54,91.91
5371,E4,808.0,0.25,41,91.91
5372,G4,808.25,0.25,34,91.91
5373,G5,808.5,0.5,50,91.91
5374,E4,808.5,0.25,41,91.91
5375,G4,808.75,0.25,34,91.91
5376,C6,809.0,0.5,50,91.91
5377,E4,809.0,0.25,41,91.91
5378,G4,809.25,0.25,34,91.91
5379,E6,809.5,0.5,49,91.91
5380,E4,809.5,0.25,41,91.91
5381,G4,809.75,0.25,33,91.91
5382,F4,810.0,0.25,41,91.91
5383,G4,810.25,0.25,34,91.91
5384,G6,810.5,0.25,50,91.91
5385,F4,810.5,0.25,41,91.91
5386,G4,810.75,0.25,35,91.91
5387,G6,811.0,0.75,53,91.91
5388,E4,811.0,0.25,41,91.91
5389,G4,811.25,0.25,34,91.91
5390,E4,811.5,0.25,41,91.91
5391,E6,811.75,0.25,50,91.91
5392,G4,811.75,0.25,35,91.91
5393,D6,812.0,0.5,54,91.91
5394,C4,812.0,0.5,41,91.91
5395,E4,812.0,0.25,41,91.91
5396,G4,812.25,0.25,34,91.91
5397,G5,812.5,0.5,50,91.91
5398,C4,812.5,0.5,41,91.91
5399,E4,812.5,0.25,41,91.91
5400,G4,812.75,0.25,34,91.91
5401,C6,813.0,0.5,50,91.91
5402,C4,813.0,0.5,41,91.91
5403,E4,813.0,0.25,41,91.91
5404,G4,813.25,0.25,34,91.91
5405,C4,813.5,0.5,41,91.91
5406,E4,813.5,0.25,41,91.91
5407,G4,813.75,0.25,33,91.91
5408,G6,814.0,0.25,50,91.91
5409,C4,814.0,0.5,38,91.91
5410,F4,814.0,0.25,38,91.91
5411,F#6,814.25,0.25,47,91.91
5412,G4,814.25,0.25,32,91.91
5413,G6,814.5,0.25,50,91.91
5414,C4,814.5,0.5,38,91.91
5415,F4,814.5,0.25,38,91.91
5416,F#6,814.75,0.25,46,91.91
5417,G4,814.75,0.25,33,91.91
5418,G6,815.0,0.25,50,91.91
5419,C4,815.0,0.5,38,91.91
5420,E4,815.0,0.25,38,91.91
5421,F#6,815.25,0.25,47,91.91
5422,G4,815.25,0.25,32,91.91
5423,G6,815.5,0.25,50,91.91
5424,C4,815.5,0.5,38,91.91
5425,E4,815.5,0.25,38,91.91
5426,E6,815.75,0.25,47,91.91
5427,G4,815.75,0.25,33,91.91
5428,D6,816.0,0.25,48,91.91
5429,C4,816.0,0.5,41,91.91
5430,E4,816.0,0.25,41,91.91
5431,C#6,816.25,0.25,43,91.91
5432,G4,816.25,0.25,34,91.91
5433,D6,816.5,0.25,48,91.91
5434,C4,816.5,0.5,41,91.91
5435,E4,816.5,0.25,41,91.91
5436,G5,816.75,0.25,45,91.91
5437,G4,816.75,0.25,34,91.91
5438,C6,817.0,0.25,48,91.91
5439,C4,817.0,0.5,41,91.91
5440,E4,817.0,0.25,41,91.91
5441,B5,817.25,0.25,44,91.91
5442,G4,817.25,0.25,34,91.91
5443,C6,817.5,0.25,50,91.91
5444,C4,817.5,0.5,41,91.91
5445,E4,817.5,0.25,41,91.91
5446,E6,817.75,0.25,46,91.91
5447,G4,817.75,0.25,33,91.91
5448,G6,818.0,0.25,50,91.91
5449,C4,818.0,0.5,38,91.91
5450,F4,818.0,0.25,38,91.91
5451,F#6,818.25,0.25,46,91.91
5452,G4,818.25,0.25,32,91.91
5453,G6,818.5,0.25,50,91.91
5454,C4,818.5,0.5,38,91.91
5455,F4,818.5,0.25,38,91.91
5456,F#6,818.75,0.25,47,91.91
5457,G4,818.75,0.25,33,91.91
5458,G6,819.0,0.25,50,91.91
5459,C4,819.0,0.5,38,91.91
5460,E4,819.0,0.25,38,91.91
5461,F#6,819.25,0.25,46,91.91
5462,G4,819.25,0.25,32,91.91
5463,G6,819.5,0.25,50,91.91
5464,C4,819.5,0.5,38,91.91
5465,E4,819.5,0.25,38,91.91
5466,E6,819.75,0.25,44,91.91
5467,G4,819.75,0.25,33,91.91
5468,D6,820.0,0.25,48,91.91
5469,C4,820.0,0.5,48,91.91
5470,F4,820.0,0.25,48,91.91
5471,C#6,820.25,0.25,45,91.91
5472,G4,820.25,0.25,43,91.91
5473,D6,820.5,0.25,49,91.91
5474,C4,820.5,0.5,54,91.91
5475,F4,820.5,0.25,54,91.91
5476,G5,820.75,0.25,45,91.91
5477,G4,820.75,0.25,47,91.91
5478,C6,821.0,0.25,49,91.91
5479,E4,821.0,271/1000,60,91.91
5480,B5,821.25,0.25,46,91.91
5481,E-4,821.25,271/1000,53,91.91
5482,C6,821.5,0.25,49,91.91
5483,E4,821.5,271/1000,53,91.91
5484,E6,821.75,0.25,46,91.91
5485,C4,821.75,0.25,54,91.91
5486,D6,822.0,0.25,59,91.91
5487,D4,822.0,271/1000,61,91.91
5488,C#6,822.25,0.25,55,91.91
5489,C#4,822.25,271/1000,54,91.91
5490,D6,822.5,0.25,68,91.91
5491,D4,822.5,271/1000,54,91.91
5492,G5,822.75,0.25,62,91.91
5493,B3,822.75,0.25,54,91.91
5494,C6,823.0,271/1000,74,91.91
5495,C4,823.0,271/1000,61,91.91
5496,B5,823.25,271/1000,67,91.91
5497,B3,823.25,271/1000,54,91.91
5498,C6,823.5,271/1000,67,91.91
5499,C4,823.5,271/1000,54,91.91
5500,E6,823.75,0.25,67,91.91
5501,A3,823.75,0.25,54,91.91
5502,B5,824.0,271/1000,76,91.91
5503,B3,824.0,271/1000,60,91.91
5504,B-5,824.25,271/1000,69,91.91
5505,B-3,824.25,271/1000,54,91.91
5506,B5,824.5,271/1000,69,91.91
5507,B3,824.5,271/1000,54,91.91
5508,D6,824.75,0.25,69,91.91
5509,G3,824.75,0.25,54,91.91
5510,A5,825.0,271/1000,75,91.91
5511,A3,825.0,271/1000,60,91.91
5512,G#5,825.25,271/1000,70,91.91
5513,G#3,825.25,271/1000,54,91.91
5514,A5,825.5,271/1000,70,91.91
5515,A3,825.5,271/1000,54,91.91
5516,C6,825.75,0.25,70,91.91
5517,F3,825.75,0.25,54,91.91
5518,G5,826.0,271/1000,75,91.91
5519,G3,826.0,271/1000,60,91.91
5520,F#5,826.25,271/1000,69,91.91
5521,F#3,826.25,271/1000,54,91.91
5522,G5,826.5,271/1000,69,91.91
5523,G3,826.5,271/1000,54,91.91
5524,B5,826.75,0.25,69,91.91
5525,E3,826.75,0.25,54,91.91
5526,F5,827.0,271/1000,75,91.91
5527,F3,827.0,271/1000,61,91.91
5528,E5,827.25,271/1000,69,91.91
5529,E3,827.25,271/1000,54,91.91
5530,F5,827.5,271/1000,69,91.91
5531,F3,827.5,271/1000,54,91.91
5532,A5,827.75,0.25,69,91.91
5533,D3,827.75,0.25,54,91.91
5534,E5,828.0,271/1000,75,91.91
5535,E3,828.0,271/1000,62,91.91
5536,E-5,828.25,271/1000,70,91.91
5537,E-3,828.25,271/1000,54,91.91
5538,E5,828.5,271/1000,70,91.91
5539,E3,828.5,271/1000,54,91.91
5540,G5,828.75,0.25,70,91.91
5541,C3,828.75,0.25,54,91.91
5542,D5,829.0,271/1000,75,91.91
5543,C4,829.0,271/1000,61,91.91
5544,C#5,829.25,271/1000,70,91.91
5545,B3,829.25,271/1000,54,91.91
5546,D5,829.5,271/1000,70,91.91
5547,C4,829.5,271/1000,54,91.91
5548,F5,829.75,0.25,69,91.91
5549,E4,829.75,0.25,54,91.91
5550,C5,830.0,271/1000,75,91.91
5551,B3,830.0,271/1000,61,91.91
5552,B4,830.25,271/1000,69,91.91
5553,B-3,830.25,271/1000,54,91.91
5554,C5,830.5,271/1000,69,91.91
5555,B3,830.5,271/1000,54,91.91
5556,E5,830.75,0.25,69,91.91
5557,D4,830.75,0.25,54,91.91
5558,E5,831.0,271/1000,75,91.91
5559,A3,831.0,271/1000,61,91.91
5560,E-5,831.25,271/1000,68,91.91
5561,G#3,831.25,271/1000,54,91.91
5562,E5,831.5,271/1000,68,91.91
5563,A3,831.5,271/1000,54,91.91
5564,G5,831.75,0.25,68,91.91
5565,C4,831.75,0.25,54,91.91
5566,D5,832.0,271/1000,75,91.91
5567,G3,832.0,271/1000,60,91.91
5568,C#5,832.25,271/1000,68,91.91
5569,F#3,832.25,271/1000,54,91.91
5570,D5,832.5,271/1000,68,91.91
5571,G3,832.5,271/1000,54,91.91
5572,B4,832.75,0.25,68,91.91
5573,B3,832.75,0.25,54,91.91
5574,C5,833.0,271/1000,74,91.91
5575,F3,833.0,271/1000,61,91.91
5576,B4,833.25,271/1000,68,91.91
5577,E3,833.25,271/1000,54,91.91
5578,C5,833.5,271/1000,68,91.91
5579,F3,833.5,271/1000,54,91.91
5580,A4,833.75,0.25,68,91.91
5581,A3,833.75,0.25,54,91.91
5582,B4,834.0,271/1000,74,91.91
5583,E3,834.0,271/1000,62,91.91
5584,B-4,834.25,271/1000,69,91.91
5585,E-3,834.25,271/1000,54,91.91
5586,B4,834.5,271/1000,68,91.91
5587,E3,834.5,271/1000,54,91.91
5588,G4,834.75,0.25,68,91.91
5589,G3,834.75,0.25,54,91.91
5590,A4,835.0,271/1000,74,91.91
5591,D3,835.0,271/1000,60,91.91
5592,G#4,835.25,271/1000,68,91.91
5593,C#3,835.25,271/1000,54,91.91
5594,A4,835.5,271/1000,68,91.91
5595,D3,835.5,271/1000,54,91.91
5596,F4,835.75,0.25,68,91.91
5597,F3,835.75,0.25,53,91.91
5598,G4,836.0,271/1000,74,91.91
5599,C3,836.0,0.5,84,91.91
5600,F#4,836.25,271/1000,68,91.91
5601,G4,836.5,271/1000,68,91.91
5602,E4,836.75,0.25,68,91.91
5603,C3,836.75,0.25,72,91.91
5604,F4,837.0,271/1000,74,91.91
5605,G2,837.0,0.5,84,91.91
5606,E4,837.25,271/1000,68,91.91
5607,F4,837.5,271/1000,68,91.91
5608,D4,837.75,0.25,68,91.91
5609,G2,837.75,0.25,72,91.91
5610,E4,838.0,271/1000,91,91.91
5611,D3,838.0,0.5,84,91.91
5612,C4,838.25,271/1000,81,91.91
5613,G3,838.5,271/1000,81,91.91
5614,E4,838.75,0.25,81,91.91
5615,D3,838.75,0.25,72,91.91
5616,D4,839.0,271/1000,90,91.91
5617,A2,839.0,0.5,84,91.91
5618,B3,839.25,271/1000,81,91.91
5619,G3,839.5,271/1000,81,91.91
5620,D4,839.75,0.25,81,91.91
5621,A2,839.75,0.25,72,91.91
5622,F4,840.0,271/1000,91,91.91
5623,F3,840.0,0.5,84,91.91
5624,D4,840.25,271/1000,81,91.91
5625,A3,840.5,271/1000,81,91.91
5626,F4,840.75,0.25,81,91.91
5627,F3,840.75,0.25,73,91.91
5628,E4,841.0,271/1000,90,91.91
5629,C3,841.0,0.5,84,91.91
5630,C4,841.25,271/1000,81,91.91
5631,A3,841.5,271/1000,81,91.91
5632,E4,841.75,0.25,81,91.91
5633,C3,841.75,0.25,74,91.91
5634,A4,842.0,271/1000,90,91.91
5635,G3,842.0,0.5,84,91.91
5636,F4,842.25,271/1000,81,91.91
5637,C4,842.5,271/1000,81,91.91
5638,A4,842.75,0.25,81,91.91
5639,G3,842.75,0.25,73,91.91
5640,G4,843.0,271/1000,90,91.91
5641,G2,843.0,0.5,84,91.91
5642,E4,843.25,271/1000,81,91.91
5643,C4,843.5,271/1000,81,91.91
5644,C5,843.75,0.25,81,91.91
5645,G2,843.75,0.25,74,91.91
5646,D4,844.0,271/1000,91,91.91
5647,C3,844.0,0.5,84,91.91
5648,C5,844.25,271/1000,81,91.91
5649,G4,844.5,271/1000,81,91.91
5650,D4,844.75,0.25,81,91.91
5651,C4,844.75,0.25,73,91.91
5652,B4,845.0,271/1000,91,91.91
5653,G3,845.0,0.5,84,91.91
5654,G4,845.25,271/1000,81,91.91
5655,D4,845.5,271/1000,81,91.91
5656,B4,845.75,0.25,81,91.91
5657,G3,845.75,0.25,73,91.91
5658,E5,846.0,271/1000,91,91.91
5659,D3,846.0,0.5,84,91.91
5660,C5,846.25,271/1000,81,91.91
5661,G4,846.5,271/1000,81,91.91
5662,E5,846.75,0.25,81,91.91
5663,D4,846.75,0.25,72,91.91
5664,G4,847.0,271/1000,91,91.91
5665,A3,847.0,0.5,84,91.91
5666,D5,847.25,271/1000,81,91.91
5667,B4,847.5,271/1000,81,91.91
5668,G4,847.75,0.25,81,91.91
5669,A3,847.75,0.25,72,91.91
5670,F5,848.0,271/1000,91,91.91
5671,F3,848.0,0.5,84,91.91
5672,D5,848.25,271/1000,81,91.91
5673,A4,848.5,271/1000,81,91.91
5674,F5,848.75,0.25,81,91.91
5675,F4,848.75,0.25,73,91.91
5676,A4,849.0,271/1000,93,91.91
5677,F3,849.0,0.5,84,91.91
5678,E5,849.25,271/1000,81,91.91
5679,C5,849.5,271/1000,81,91.91
5680,A4,849.75,0.25,81,91.91
5681,F4,849.75,0.25,73,91.91
5682,A5,850.0,271/1000,92,91.91
5683,F3,850.0,0.5,83,91.91
5684,F5,850.25,271/1000,81,91.91
5685,C5,850.5,271/1000,81,91.91
5686,A5,850.75,0.25,81,91.91
5687,F4,850.75,0.25,72,91.91
5688,C5,851.0,271/1000,92,91.91
5689,F3,851.0,0.5,82,91.91
5690,A5,851.25,271/1000,81,91.91
5691,F5,851.5,271/1000,81,91.91
5692,C5,851.75,0.25,81,91.91
5693,F3,851.75,0.25,72,91.91
5694,A5,852.0,271/1000,92,91.91
5695,F2,852.0,0.5,82,91.91
5696,F5,852.25,271/1000,81,91.91
5697,C5,852.5,271/1000,81,91.91
5698,A3,852.5,0.25,41,91.91
5699,A5,852.75,0.25,81,91.91
5700,C4,852.75,0.25,34,91.91
5701,C5,853.0,271/1000,91,91.91
5702,A3,853.0,0.25,41,91.91
5703,A5,853.25,271/1000,81,91.91
5704,C4,853.25,0.25,34,91.91
5705,F5,853.5,271/1000,81,91.91
5706,A3,853.5,0.25,41,91.91
5707,C5,853.75,0.25,81,91.91
5708,C4,853.75,0.25,33,91.91
5709,B-3,854.0,0.25,41,91.91
5710,C4,854.25,0.25,34,91.91
5711,C6,854.5,0.25,50,91.91
5712,B-3,854.5,0.25,41,91.91
5713,C4,854.75,0.25,35,91.91
5714,C6,855.0,0.75,53,91.91
5715,A3,855.0,0.25,41,91.91
5716,C4,855.25,0.25,34,91.91
5717,A3,855.5,0.25,41,91.91
5718,A5,855.75,0.25,50,91.91
5719,C4,855.75,0.25,35,91.91
5720,G5,856.0,0.5,54,91.91
5721,A3,856.0,0.25,41,91.91
5722,C4,856.25,0.25,34,91.91
5723,C5,856.5,0.5,50,91.91
5724,A3,856.5,0.25,41,91.91
5725,C4,856.75,0.25,34,91.91
5726,F5,857.0,0.5,50,91.91
5727,A3,857.0,0.25,41,91.91
5728,C4,857.25,0.25,34,91.91
5729,A5,857.5,0.5,47,91.91
5730,A3,857.5,0.25,41,91.91
5731,C4,857.75,0.25,33,91.91
5732,B-3,858.0,0.25,38,91.91
5733,C4,858.25,0.25,32,91.91
5734,C6,858.5,0.25,50,91.91
5735,B-3,858.5,0.25,38,91.91
5736,B5,858.75,0.25,46,91.91
5737,C4,858.75,0.25,33,91.91
5738,C6,859.0,0.25,50,91.91
5739,A3,859.0,0.25,38,91.91
5740,B5,859.25,0.25,47,91.91
5741,C4,859.25,0.25,32,91.91
5742,C6,859.5,0.25,50,91.91
5743,A3,859.5,0.25,38,91.91
5744,A5,859.75,0.25,47,91.91
5745,C4,859.75,0.25,33,91.91
5746,G5,860.0,0.25,48,91.91
5747,G2,860.0,0.5,85,91.91
5748,F#5,860.25,0.25,43,91.91
5749,G5,860.5,0.25,48,91.91
5750,B3,860.5,0.5,42,91.91
5751,C5,860.75,0.25,45,91.91
5752,F5,861.0,0.25,48,91.91
5753,D4,861.0,0.5,43,91.91
5754,E5,861.25,0.25,44,91.91
5755,F5,861.5,0.25,50,91.91
5756,B3,861.5,0.5,39,91.91
5757,A5,861.75,0.25,46,91.91
5758,C4,862.0,0.5,43,91.91
5759,E4,862.5,0.5,42,91.91
5760,F6,862.5,0.5,42,91.91
5761,F5,862.5,0.5,42,91.91
5762,D4,863.0,0.5,42,91.91
5763,F6,863.0,0.75,44,91.91
5764,F5,863.0,0.75,44,91.91
5765,B3,863.5,0.5,39,91.91
5766,D6,863.75,0.25,42,91.91
5767,D5,863.75,0.25,42,91.91
5768,G3,864.0,0.5,46,91.91
5769,E6,864.0,0.5,45,91.91
5770,E5,864.0,0.5,45,91.91
5771,B3,864.5,0.5,42,91.91
5772,C6,864.5,0.5,42,91.91
5773,C5,864.5,0.5,42,91.91
5774,D4,865.0,0.5,43,91.91
5775,B5,865.0,0.5,42,91.91
5776,B4,865.0,0.5,42,91.91
5777,B3,865.5,0.5,39,91.91
5778,D6,865.5,0.5,38,91.91
5779,D5,865.5,0.5,38,91.91
5780,C4,866.0,521/1000,43,91.91
5781,E4,866.5,521/1000,42,91.91
5782,F6,866.5,0.5,42,91.91
5783,F5,866.5,0.5,42,91.91
5784,D4,867.0,521/1000,42,91.91
5785,F6,867.0,0.75,44,91.91
5786,F5,867.0,0.75,44,91.91
5787,B3,867.5,0.5,39,91.91
5788,D6,867.75,0.25,42,91.91
5789,D5,867.75,0.25,42,91.91
5790,A3,868.0,521/1000,43,91.91
5791,E6,868.0,521/1000,45,91.91
5792,E5,868.0,521/1000,45,91.91
5793,C4,868.5,521/1000,42,91.91
5794,C6,868.5,521/1000,42,91.91
5795,C5,868.5,521/1000,42,91.91
5796,B3,869.0,521/1000,42,91.91
5797,B5,869.0,521/1000,42,91.91
5798,B4,869.0,521/1000,42,91.91
5799,G3,869.5,0.5,39,91.91
5800,D6,869.5,0.5,38,91.91
5801,D5,869.5,0.5,38,91.91
5802,F3,870.0,521/1000,43,91.91
5803,C6,870.0,521/1000,45,91.91
5804,C5,870.0,521/1000,45,91.91
5805,A3,870.5,521/1000,42,91.91
5806,A5,870.5,521/1000,42,91.91
5807,A4,870.5,521/1000,42,91.91
5808,G3,871.0,521/1000,42,91.91
5809,G5,871.0,521/1000,42,91.91
5810,G4,871.0,521/1000,42,91.91
5811,E3,871.5,0.5,39,91.91
5812,B5,871.5,0.5,38,91.91
5813,B4,871.5,0.5,38,91.91
5814,D3,872.0,521/1000,44,91.91
5815,A5,872.0,521/1000,45,91.91
5816,A4,872.0,521/1000,45,91.91
5817,F3,872.5,521/1000,43,91.91
5818,F5,872.5,521/1000,42,91.91
5819,F4,872.5,521/1000,42,91.91
5820,C3,873.0,521/1000,44,91.91
5821,E5,873.0,521/1000,42,91.91
5822,E4,873.0,521/1000,42,91.91
5823,E3,873.5,0.5,41,91.91
5824,G5,873.5,0.5,38,91.91
5825,G4,873.5,0.5,38,91.91
5826,B2,874.0,521/1000,46,91.91
5827,F5,874.0,521/1000,46,91.91
5828,F4,874.0,521/1000,46,91.91
5829,D3,874.5,521/1000,44,91.91
5830,D5,874.5,521/1000,44,91.91
5831,D4,874.5,521/1000,44,91.91
5832,A2,875.0,521/1000,44,91.91
5833,E5,875.0,521/1000,44,91.91
5834,E4,875.0,521/1000,44,91.91
5835,C3,875.5,0.5,42,91.91
5836,C5,875.5,0.5,40,91.91
5837,C4,875.5,0.5,40,91.91
5838,G2,876.0,521/1000,47,91.91
5839,D5,876.0,521/1000,48,91.91
5840,D4,876.0,521/1000,48,91.91
5841,B2,876.5,521/1000,46,91.91
5842,B4,876.5,521/1000,45,91.91
5843,B3,876.5,521/1000,45,91.91
5844,F2,877.0,521/1000,47,91.91
5845,C5,877.0,521/1000,45,91.91
5846,C4,877.0,521/1000,45,91.91
5847,A2,877.5,0.5,42,91.91
5848,A4,877.5,0.5,42,91.91
5849,A3,877.5,0.5,42,91.91
5850,E2,878.0,521/1000,48,91.91
5851,B4,878.0,521/1000,49,91.91
5852,B3,878.0,521/1000,49,91.91
5853,G2,878.5,521/1000,47,91.91
5854,G4,878.5,521/1000,46,91.91
5855,G3,878.5,521/1000,46,91.91
5856,A4,879.0,521/1000,46,91.91
5857,A3,879.0,521/1000,46,91.91
5858,G1,879.0,521/1000,47,91.91
5859,D2,879.0,521/1000,47,91.91
5860,G2,879.5,0.5,43,91.91
5861,F4,879.5,0.5,43,91.91
5862,F3,879.5,0.5,43,91.91
5863,G4,880.0,521/1000,50,91.91
5864,G3,880.0,521/1000,50,91.91
5865,G#1,880.0,0.5,86,91.91
5866,G#2,880.0,0.5,86,91.91
5867,E4,880.5,521/1000,47,91.91
5868,E3,880.5,521/1000,47,91.91
5869,F4,881.0,521/1000,47,91.91
5870,F3,881.0,521/1000,47,91.91
5871,E-4,881.0,0.25,90,91.91
5872,C4,881.0,0.25,90,91.91
5873,G#3,881.0,0.25,90,91.91
5874,B3,881.5,0.5,44,91.91
5875,B2,881.5,0.5,44,91.91
5876,E-3,882.0,0.5,104,91.91
5877,C4,882.0,0.5,104,91.91
5878,E-4,882.0,2.0,90,91.91
5879,C4,882.0,2.0,90,91.91
5880,G#3,882.0,2.0,90,91.91
5881,E-2,884.0,0.5,47,91.91
5882,C5,884.333,333/1000,74,91.91
5883,E-5,884.667,333/1000,74,91.91
5884,G#5,885.0,333/1000,78,91.91
5885,C#4,885.0,0.5,36,91.91
5886,B-3,885.0,0.5,36,91.91
5887,G3,885.0,0.5,36,91.91
5888,E-3,885.0,0.5,36,91.91
5889,C6,885.333,333/1000,74,91.91
5890,E-6,885.667,333/1000,74,91.91
5891,C#6,886.0,333/1000,58,91.91
5892,E2,886.0,0.5,47,91.91
5893,B-5,886.333,333/1000,49,91.91
5894,G5,886.667,333/1000,49,91.91
5895,C#5,887.0,333/1000,55,91.91
5896,C#4,887.0,0.5,36,91.91
5897,B-3,887.0,0.5,36,91.91
5898,G3,887.0,0.5,36,91.91
5899,E3,887.0,0.5,36,91.91
5900,B-4,887.333,333/1000,50,91.91
5901,G4,887.667,333/1000,50,91.91
5902,C#6,888.0,333/1000,56,91.91
5903,F2,888.0,0.5,94,91.91
5904,B-5,888.333,333/1000,49,91.91
5905,G5,888.667,333/1000,49,91.91
5906,C#5,889.0,333/1000,55,91.91
5907,C4,889.0,0.25,90,91.91
5908,G#3,889.0,0.25,90,91.91
5909,F3,889.0,0.25,90,91.91
5910,B-4,889.333,333/1000,50,91.91
5911,G4,889.667,333/1000,50,91.91
5912,C4,890.0,2.0,90,91.91
5913,G#3,890.0,2.0,90,91.91
5914,F3,890.0,2.0,90,91.91
5915,C2,892.0,0.5,47,91.91
5916,G#4,892.333,333/1000,74,91.91
5917,C5,892.667,333/1000,74,91.91
5918,F5,893.0,333/1000,78,91.91
5919,B-3,893.0,0.5,36,91.91
5920,G3,893.0,0.5,36,91.91
5921,E3,893.0,0.5,36,91.91
5922,C3,893.0,0.5,36,91.91
5923,G#5,893.333,333/1000,74,91.91
5924,C6,893.667,333/1000,74,91.91
5925,B-5,894.0,333/1000,58,91.91
5926,C2,894.0,0.5,47,91.91
5927,G5,894.333,333/1000,49,91.91
5928,E5,894.667,333/1000,49,91.91
5929,B-4,895.0,333/1000,55,91.91
5930,B-3,895.0,0.5,36,91.91
5931,G3,895.0,0.5,36,91.91
5932,E3,895.0,0.5,36,91.91
5933,C3,895.0,0.5,36,91.91
5934,G4,895.333,333/1000,50,91.91
5935,E4,895.667,333/1000,50,91.91
5936,B-5,896.0,333/1000,56,91.91
5937,C#2,896.0,0.5,94,91.91
5938,G5,896.333,333/1000,49,91.91
5939,E5,896.667,333/1000,49,91.91
5940,B-4,897.0,333/1000,55,91.91
5941,G#3,897.0,0.25,80,91.91
5942,F3,897.0,0.25,80,91.91
5943,C#3,897.0,0.25,80,91.91
5944,G4,897.333,333/1000,50,91.91
5945,E4,897.667,333/1000,50,91.91
5946,G#3,898.0,2.0,80,91.91
5947,F3,898.0,2.0,80,91.91
5948,C#3,898.0,2.0,80,91.91
5949,G#1,900.0,0.5,47,91.91
5950,F4,900.333,333/1000,74,91.91
5951,G#4,900.667,333/1000,74,91.91
5952,C#5,901.0,333/1000,78,91.91
5953,F#3,901.0,0.5,36,91.91
5954,E-3,901.0,0.5,36,91.91
5955,C3,901.0,0.5,36,91.91
5956,G#2,901.0,0.5,36,91.91
5957,F5,901.333,333/1000,74,91.91
5958,G#5,901.667,333/1000,74,91.91
5959,F#5,902.0,333/1000,58,91.91
5960,A1,902.0,0.5,47,91.91
5961,E-5,902.333,333/1000,49,91.91
5962,C5,902.667,333/1000,49,91.91
5963,F#4,903.0,333/1000,55,91.91
5964,F#3,903.0,0.5,36,91.91
5965,E-3,903.0,0.5,36,91.91
5966,C3,903.0,0.5,36,91.91
5967,A2,903.0,0.5,36,91.91
5968,E-4,903.333,333/1000,50,91.91
5969,C4,903.667,333/1000,50,91.91
5970,F#5,904.0,333/1000,56,91.91
5971,B-1,904.0,333/1000,58,91.91
5972,E-5,904.333,333/1000,49,91.91
5973,C5,904.667,333/1000,49,91.91
5974,F#4,905.0,333/1000,55,91.91
5975,F3,905.0,0.5,29,91.91
5976,C#3,905.0,0.5,29,91.91
5977,B-2,905.0,0.5,29,91.91
5978,E-4,905.333,333/1000,50,91.91
5979,C4,905.667,333/1000,50,91.91
5980,B-2,906.0,2.0,29,91.91
5981,C#3,906.0,2.0,29,91.91
5982,F3,906.0,2.0,29,91.91
5983,F3,906.333,333/1000,39,91.91
5984,B-3,906.667,333/1000,40,91.91
5985,C#4,907.0,333/1000,41,91.91
5986,F4,907.333,333/1000,43,91.91
5987,B-4,907.667,333/1000,44,91.91
5988,C#5,908.0,333/1000,46,91.91
5989,G#1,908.0,333/1000,58,91.91
5990,F5,908.333,333/1000,45,91.91
5991,B-5,908.667,333/1000,47,91.91
5992,C#6,909.0,333/1000,49,91.91
5993,F3,909.0,0.5,29,91.91
5994,C3,909.0,0.5,29,91.91
5995,G#2,909.0,0.5,29,91.91
5996,F6,909.333,333/1000,45,91.91
5997,F5,909.667,333/1000,41,91.91
5998,G#2,910.0,2.0,29,91.91
5999,C3,910.0,2.0,29,91.91
6000,F3,910.0,2.0,29,91.91
6001,F3,910.333,333/1000,39,91.91
6002,G#3,910.667,333/1000,40,91.91
6003,C4,911.0,333/1000,41,91.91
6004,F4,911.333,333/1000,43,91.91
6005,G#4,911.667,333/1000,44,91.91
6006,C5,912.0,333/1000,46,91.91
6007,G1,912.0,333/1000,58,91.91
6008,F5,912.333,333/1000,45,91.91
6009,G#5,912.667,333/1000,47,91.91
6010,C6,913.0,333/1000,49,91.91
6011,G2,913.0,0.5,28,91.91
6012,F3,913.0,0.5,28,91.91
6013,D3,913.0,0.5,28,91.91
6014,B2,913.0,0.5,28,91.91
6015,F6,913.333,333/1000,45,91.91
6016,F5,913.667,333/1000,41,91.91
6017,G2,914.0,2.0,28,91.91
6018,B2,914.0,2.0,28,91.91
6019,D3,914.0,2.0,28,91.91
6020,F3,914.0,2.0,28,91.91
6021,F3,914.333,333/1000,39,91.91
6022,B3,914.667,333/1000,40,91.91
6023,D4,915.0,333/1000,41,91.91
6024,F4,915.333,333/1000,43,91.91
6025,B4,915.667,333/1000,44,91.91
6026,D5,916.0,333/1000,46,91.91
6027,G#1,916.0,333/1000,58,91.91
6028,F5,916.333,333/1000,45,91.91
6029,B5,916.667,333/1000,47,91.91
6030,D6,917.0,333/1000,49,91.91
6031,E-3,917.0,0.5,29,91.91
6032,C3,917.0,0.5,29,91.91
6033,G#2,917.0,0.5,29,91.91
6034,F6,917.333,333/1000,45,91.91
6035,F5,917.667,333/1000,41,91.91
6036,G#2,918.0,2.0,29,91.91
6037,C3,918.0,2.0,29,91.91
6038,E-3,918.0,2.0,29,91.91
6039,E-3,918.333,333/1000,39,91.91
6040,G#3,918.667,333/1000,40,91.91
6041,C4,919.0,333/1000,41,91.91
6042,E-4,919.333,333/1000,43,91.91
6043,G#4,919.667,333/1000,44,91.91
6044,C5,920.0,333/1000,46,91.91
6045,A1,920.0,333/1000,41,91.91
6046,E-5,920.333,333/1000,45,91.91
6047,C2,920.333,333/1000,37,91.91
6048,G#5,920.667,333/1000,47,91.91
6049,E-2,920.667,333/1000,37,91.91
6050,C6,921.0,333/1000,49,91.91
6051,F#2,921.0,333/1000,41,91.91
6052,E-6,921.333,333/1000,45,91.91
6053,A2,921.333,333/1000,37,91.91
6054,E-5,921.667,333/1000,41,91.91
6055,C3,921.667,333/1000,37,91.91
6056,E-3,922.0,333/1000,41,91.91
6057,F#3,922.333,333/1000,38,91.91
6058,A3,922.667,333/1000,39,91.91
6059,C4,925.0,333/1000,45,91.91
6060,E-4,925.333,333/1000,41,91.91
6061,F#4,925.667,333/1000,41,91.91
6062,A4,926.0,333/1000,46,91.91
6063,C5,926.333,333/1000,41,91.91
6064,E-5,926.667,333/1000,41,91.91
6065,F#5,927.0,333/1000,46,91.91
6066,A5,927.333,333/1000,41,91.91
6067,C6,927.667,333/1000,41,91.91
6068,E-6,928.0,333/1000,47,91.91
6069,G1,928.0,0.5,41,91.91
6070,C2,928.0,0.5,41,91.91
6071,E2,928.0,0.5,41,91.91
6072,G2,928.0,0.5,41,91.91
6073,C6,928.333,333/1000,43,91.91
6074,A5,928.667,333/1000,43,91.91
6075,F#6,929.0,333/1000,47,91.91
6076,E-6,929.333,333/1000,43,91.91
6077,C6,929.667,333/1000,43,91.91
6078,G6,930.25,271/1000,45,91.91
6079,G5,930.25,271/1000,45,91.91
6080,F6,930.5,271/1000,45,91.91
6081,F5,930.5,271/1000,45,91.91
6082,E6,930.75,271/1000,45,91.91
6083,E5,930.75,271/1000,45,91.91
6084,D6,931.0,271/1000,44,91.91
6085,D5,931.0,271/1000,44,91.91
6086,C6,931.25,271/1000,44,91.91
6087,C5,931.25,271/1000,44,91.91
6088,B5,931.5,271/1000,43,91.91
6089,B4,931.5,271/1000,43,91.91
6090,A5,931.75,0.25,39,91.91
6091,A4,931.75,0.25,39,91.91
6092,G4,932.0,0.5,43,91.91
6093,G5,932.0,0.5,43,91.91
6094,A5,932.0,21/1000,39,91.91
6095,A4,932.0,21/1000,39,91.91
6096,G1,932.25,271/1000,32,91.91
6097,G2,932.25,271/1000,32,91.91
6098,F4,932.5,271/1000,42,91.91
6099,F5,932.5,271/1000,42,91.91
6100,A1,932.5,271/1000,32,91.91
6101,A2,932.5,271/1000,32,91.91
6102,E4,932.75,271/1000,42,91.91
6103,E5,932.75,271/1000,42,91.91
6104,B1,932.75,271/1000,33,91.91
6105,B2,932.75,271/1000,33,91.91
6106,D4,933.0,271/1000,40,91.91
6107,D5,933.0,271/1000,40,91.91
6108,C2,933.0,271/1000,34,91.91
6109,C3,933.0,271/1000,34,91.91
6110,C4,933.25,271/1000,40,91.91
6111,C5,933.25,271/1000,40,91.91
6112,D2,933.25,271/1000,34,91.91
6113,D3,933.25,271/1000,34,91.91
6114,B3,933.5,271/1000,40,91.91
6115,B4,933.5,271/1000,40,91.91
6116,E2,933.5,271/1000,35,91.91
6117,E3,933.5,271/1000,35,91.91
6118,A3,933.75,0.25,38,91.91
6119,A4,933.75,0.25,38,91.91
6120,F2,933.75,0.25,35,91.91
6121,F3,933.75,0.25,35,91.91
6122,G4,934.0,2.0,42,91.91
6123,C4,934.0,2.0,35,91.91
6124,G3,934.0,2.0,35,91.91
6125,E4,934.0,2.0,35,91.91
6126,A3,934.0,21/1000,38,91.91
6127,A4,934.0,21/1000,38,91.91
6128,G2,934.0,0.5,36,91.91
6129,G3,934.0,0.5,36,91.91
6130,F2,934.0,21/1000,35,91.91
6131,F3,934.0,21/1000,35,91.91
6132,A2,934.5,271/1000,34,91.91
6133,A3,934.5,271/1000,34,91.91
6134,B2,934.75,271/1000,35,91.91
6135,B3,934.75,271/1000,35,91.91
6136,C3,935.0,271/1000,36,91.91
6137,C4,935.0,271/1000,36,91.91
6138,D3,935.25,271/1000,37,91.91
6139,D4,935.25,271/1000,37,91.91
6140,E3,935.5,271/1000,38,91.91
6141,E4,935.5,271/1000,38,91.91
6142,F3,935.75,0.25,40,91.91
6143,F4,935.75,0.25,40,91.91
6144,G4,936.0,1.0,42,91.91
6145,B3,936.0,1.0,35,91.91
6146,D4,936.0,1.0,35,91.91
6147,G3,936.0,0.5,40,91.91
6148,G4,936.0,0.5,40,91.91
6149,F3,936.0,21/1000,40,91.91
6150,F4,936.0,21/1000,40,91.91
6151,D5,937.0,1.0,44,91.91
6152,F5,937.0,1.0,44,91.91
6153,C5,938.0,0.125,45,91.91
6154,E5,938.0,0.125,45,91.91
6155,G6,938.25,271/1000,45,91.91
6156,G5,938.25,271/1000,45,91.91
6157,F6,938.5,271/1000,45,91.91
6158,F5,938.5,271/1000,45,91.91
6159,E6,938.75,271/1000,45,91.91
6160,E5,938.75,271/1000,45,91.91
6161,D6,939.0,271/1000,44,91.91
6162,D5,939.0,271/1000,44,91.91
6163,C6,939.25,271/1000,44,91.91
6164,C5,939.25,271/1000,44,91.91
6165,B5,939.5,271/1000,43,91.91
6166,B4,939.5,271/1000,43,91.91
6167,A5,939.75,0.25,39,91.91
6168,A4,939.75,0.25,39,91.91
6169,G4,940.0,0.5,43,91.91
6170,G5,940.0,0.5,43,91.91
6171,A5,940.0,21/1000,39,91.91
6172,A4,940.0,21/1000,39,91.91
6173,G1,940.25,271/1000,32,91.91
6174,G2,940.25,271/1000,32,91.91
6175,F4,940.5,271/1000,42,91.91
6176,F5,940.5,271/1000,42,91.91
6177,A1,940.5,271/1000,32,91.91
6178,A2,940.5,271/1000,32,91.91
6179,E4,940.75,271/1000,42,91.91
6180,E5,940.75,271/1000,42,91.91
6181,B1,940.75,271/1000,33,91.91
6182,B2,940.75,271/1000,33,91.91
6183,D4,941.0,271/1000,40,91.91
6184,D5,941.0,271/1000,40,91.91
6185,C2,941.0,271/1000,34,91.91
6186,C3,941.0,271/1000,34,91.91
6187,C4,941.25,271/1000,40,91.91
6188,C5,941.25,271/1000,40,91.91
6189,D2,941.25,271/1000,34,91.91
6190,D3,941.25,271/1000,34,91.91
6191,B3,941.5,271/1000,40,91.91
6192,B4,941.5,271/1000,40,91.91
6193,E2,941.5,271/1000,35,91.91
6194,E3,941.5,271/1000,35,91.91
6195,A3,941.75,0.25,38,91.91
6196,A4,941.75,0.25,38,91.91
6197,F2,941.75,0.25,35,91.91
6198,F3,941.75,0.25,35,91.91
6199,G4,942.0,2.0,42,91.91
6200,C4,942.0,2.0,35,91.91
6201,G3,942.0,2.0,35,91.91
6202,E4,942.0,2.0,35,91.91
6203,A3,942.0,21/1000,38,91.91
6204,A4,942.0,21/1000,38,91.91
6205,G2,942.0,0.5,36,91.91
6206,G3,942.0,0.5,36,91.91
6207,F2,942.0,21/1000,35,91.91
6208,F3,942.0,21/1000,35,91.91
6209,A2,942.5,271/1000,34,91.91
6210,A3,942.5,271/1000,34,91.91
6211,B2,942.75,271/1000,35,91.91
6212,B3,942.75,271/1000,35,91.91
6213,C3,943.0,271/1000,36,91.91
6214,C4,943.0,271/1000,36,91.91
6215,D3,943.25,271/1000,37,91.91
6216,D4,943.25,271/1000,37,91.91
6217,E3,943.5,271/1000,38,91.91
6218,E4,943.5,271/1000,38,91.91
6219,F3,943.75,0.25,40,91.91
6220,F4,943.75,0.25,40,91.91
6221,G4,944.0,1.0,42,91.91
6222,B3,944.0,1.0,35,91.91
6223,D4,944.0,1.0,35,91.91
6224,G3,944.0,0.5,40,91.91
6225,G4,944.0,0.5,40,91.91
6226,F3,944.0,21/1000,40,91.91
6227,F4,944.0,21/1000,40,91.91
6228,D5,945.0,1.0,44,91.91
6229,F5,945.0,1.0,44,91.91
6230,C5,946.0,0.125,45,91.91
6231,E5,946.0,0.125,45,91.91
6232,G6,946.25,271/1000,45,91.91
6233,G5,946.25,271/1000,45,91.91
6234,F6,946.5,271/1000,45,91.91
6235,F5,946.5,271/1000,45,91.91
6236,E6,946.75,271/1000,45,91.91
6237,E5,946.75,271/1000,45,91.91
6238,D6,947.0,271/1000,44,91.91
6239,D5,947.0,271/1000,44,91.91
6240,C6,947.25,271/1000,44,91.91
6241,C5,947.25,271/1000,44,91.91
6242,B5,947.5,271/1000,43,91.91
6243,B4,947.5,271/1000,43,91.91
6244,A5,947.75,0.25,39,91.91
6245,A4,947.75,0.25,39,91.91
6246,G4,948.0,0.5,43,91.91
6247,G5,948.0,0.5,43,91.91
6248,A5,948.0,21/1000,39,91.91
6249,A4,948.0,21/1000,39,91.91
6250,G3,948.25,271/1000,35,91.91
6251,F3,948.5,271/1000,37,91.91
6252,F4,948.5,271/1000,42,91.91
6253,F5,948.5,271/1000,42,91.91
6254,E3,948.75,271/1000,38,91.91
6255,E4,948.75,271/1000,42,91.91
6256,E5,948.75,271/1000,42,91.91
6257,D3,949.0,271/1000,40,91.91
6258,D4,949.0,271/1000,40,91.91
6259,D5,949.0,271/1000,40,91.91
6260,C3,949.25,271/1000,41,91.91
6261,C4,949.25,271/1000,40,91.91
6262,C5,949.25,271/1000,40,91.91
6263,B2,949.5,271/1000,43,91.91
6264,B3,949.5,271/1000,40,91.91
6265,B4,949.5,271/1000,40,91.91
6266,A2,949.75,0.25,44,91.91
6267,A3,949.75,0.25,38,91.91
6268,A4,949.75,0.25,38,91.91
6269,G2,950.0,0.5,46,91.91
6270,A2,950.0,21/1000,44,91.91
6271,G3,950.0,271/1000,44,91.91
6272,G4,950.0,271/1000,44,91.91
6273,A3,950.0,21/1000,38,91.91
6274,A4,950.0,21/1000,38,91.91
6275,A3,950.25,271/1000,46,91.91
6276,B3,950.5,271/1000,47,91.91
6277,F2,950.5,271/1000,47,91.91
6278,C4,950.75,271/1000,49,91.91
6279,E2,950.75,271/1000,48,91.91
6280,D4,951.0,271/1000,51,91.91
6281,D2,951.0,271/1000,50,91.91
6282,E4,951.25,271/1000,53,91.91
6283,C2,951.25,271/1000,51,91.91
6284,F4,951.5,271/1000,54,91.91
6285,B1,951.5,271/1000,53,91.91
6286,F#4,951.75,0.25,56,91.91
6287,A1,951.75,0.25,54,91.91
6288,G5,952.0,167/1000,54,91.91
6289,G4,952.0,271/1000,58,91.91
6290,F#4,952.0,21/1000,56,91.91
6291,G1,952.0,271/1000,57,91.91
6292,A1,952.0,21/1000,54,91.91
6293,A5,952.167,167/1000,35,91.91
6294,A4,952.25,271/1000,59,91.91
6295,A1,952.25,271/1000,57,91.91
6296,G5,952.333,167/1000,44,91.91
6297,A5,952.5,167/1000,38,91.91
6298,B4,952.5,271/1000,61,91.91
6299,B1,952.5,271/1000,58,91.91
6300,G5,952.667,167/1000,44,91.91
6301,C5,952.75,271/1000,63,91.91
6302,C2,952.75,271/1000,58,91.91
6303,A5,952.833,167/1000,37,91.91
6304,G5,953.0,167/1000,41,91.91
6305,D5,953.0,271/1000,65,91.91
6306,D2,953.0,271/1000,59,91.91
6307,A5,953.167,167/1000,36,91.91
6308,E5,953.25,271/1000,66,91.91
6309,E2,953.25,271/1000,59,91.91
6310,G5,953.333,167/1000,41,91.91
6311,A5,953.5,167/1000,37,91.91
6312,F5,953.5,271/1000,68,91.91
6313,F2,953.5,271/1000,60,91.91
6314,G5,953.667,167/1000,41,91.91
6315,F#5,953.75,0.25,70,91.91
6316,F#2,953.75,0.25,60,91.91
6317,A5,953.833,167/1000,35,91.91
6318,G5,954.0,167/1000,41,91.91
6319,F#5,954.0,21/1000,70,91.91
6320,G2,954.0,271/1000,61,91.91
6321,F#2,954.0,21/1000,60,91.91
6322,A5,954.167,167/1000,37,91.91
6323,A2,954.25,271/1000,61,91.91
6324,G5,954.333,167/1000,41,91.91
6325,A5,954.5,167/1000,36,91.91
6326,B2,954.5,271/1000,62,91.91
6327,G5,954.667,167/1000,41,91.91
6328,C3,954.75,271/1000,62,91.91
6329,A5,954.833,167/1000,36,91.91
6330,G5,955.0,167/1000,41,91.91
6331,D3,955.0,271/1000,63,91.91
6332,A5,955.167,167/1000,37,91.91
6333,E3,955.25,271/1000,63,91.91
6334,G5,955.333,167/1000,41,91.91
6335,A5,955.5,167/1000,37,91.91
6336,F3,955.5,271/1000,64,91.91
6337,G5,955.667,167/1000,41,91.91
6338,F#3,955.75,0.25,64,91.91
6339,A5,955.833,167/1000,36,91.91
6340,G5,956.0,167/1000,41,91.91
6341,G3,956.0,271/1000,64,91.91
6342,F#3,956.0,21/1000,64,91.91
6343,A5,956.167,167/1000,36,91.91
6344,A3,956.25,271/1000,64,91.91
6345,G5,956.333,167/1000,41,91.91
6346,A5,956.5,167/1000,37,91.91
6347,B3,956.5,271/1000,65,91.91
6348,G5,956.667,167/1000,41,91.91
6349,C4,956.75,271/1000,65,91.91
6350,A5,956.833,167/1000,37,91.91
6351,G5,957.0,167/1000,41,91.91
6352,D4,957.0,271/1000,66,91.91
6353,A5,957.167,167/1000,36,91.91
6354,E4,957.25,271/1000,66,91.91
6355,G5,957.333,167/1000,41,91.91
6356,A5,957.5,167/1000,37,91.91
6357,F4,957.5,271/1000,67,91.91
6358,G5,957.667,167/1000,41,91.91
6359,F#4,957.75,0.25,67,91.91
6360,A5,957.833,167/1000,36,91.91
6361,G5,958.0,167/1000,40,91.91
6362,G4,958.0,271/1000,68,91.91
6363,F#4,958.0,21/1000,67,91.91
6364,A5,958.167,167/1000,36,91.91
6365,A4,958.25,271/1000,66,91.91
6366,G5,958.333,167/1000,39,91.91
6367,A5,958.5,167/1000,35,91.91
6368,B4,958.5,271/1000,65,91.91
6369,G5,958.667,167/1000,39,91.91
6370,C5,958.75,271/1000,63,91.91
6371,A5,958.833,167/1000,35,91.91
6372,G5,959.0,167/1000,39,91.91
6373,D5,959.0,271/1000,62,91.91
6374,A5,959.167,167/1000,35,91.91
6375,E5,959.25,271/1000,57,91.91
6376,G5,959.333,167/1000,39,91.91
6377,A5,959.5,167/1000,35,91.91
6378,F5,959.5,271/1000,55,91.91
6379,G5,959.667,167/1000,39,91.91
6380,E5,959.75,0.25,53,91.91
6381,A5,959.833,167/1000,35,91.91
6382,G5,960.0,167/1000,36,91.91
6383,F5,960.0,0.5,56,91.91
6384,E5,960.0,21/1000,53,91.91
6385,A5,960.167,167/1000,32,91.91
6386,G5,960.333,167/1000,35,91.91
6387,A5,960.5,167/1000,31,91.91
6388,G5,960.667,167/1000,35,91.91
6389,A5,960.833,167/1000,31,91.91
6390,G5,961.0,167/1000,35,91.91
6391,A5,961.167,167/1000,31,91.91
6392,E5,961.25,0.25,43,91.91
6393,G5,961.333,167/1000,35,91.91
6394,A5,961.5,167/1000,31,91.91
6395,F5,961.5,0.25,46,91.91
6396,G5,961.667,167/1000,35,91.91
6397,E5,961.75,0.25,43,91.91
6398,A5,961.833,167/1000,31,91.91
6399,G5,962.0,167/1000,36,91.91
6400,F5,962.0,0.5,51,91.91
6401,A5,962.167,167/1000,32,91.91
6402,G5,962.333,167/1000,35,91.91
6403,A5,962.5,167/1000,31,91.91
6404,G5,962.667,167/1000,35,91.91
6405,A5,962.833,167/1000,31,91.91
6406,G5,963.0,167/1000,35,91.91
6407,A5,963.167,167/1000,31,91.91
6408,E5,963.25,0.25,42,91.91
6409,G5,963.333,167/1000,35,91.91
6410,A5,963.5,167/1000,31,91.91
6411,F5,963.5,0.25,46,91.91
6412,G5,963.667,167/1000,35,91.91
6413,E5,963.75,0.25,42,91.91
6414,A5,963.833,167/1000,31,91.91
6415,G5,964.0,167/1000,36,91.91
6416,F5,964.0,0.5,50,91.91
6417,A5,964.167,167/1000,32,91.91
6418,G5,964.333,167/1000,35,91.91
6419,A5,964.5,167/1000,32,91.91
6420,G5,964.667,167/1000,36,91.91
6421,A5,964.833,167/1000,32,91.91
6422,G5,965.0,167/1000,37,91.91
6423,A5,965.167,167/1000,33,91.91
6424,G5,965.333,167/1000,38,91.91
6425,A5,965.5,167/1000,34,91.91
6426,G5,965.667,167/1000,39,91.91
6427,A5,965.833,167/1000,35,91.91
6428,G5,966.0,167/1000,41,91.91
6429,A5,966.167,167/1000,37,91.91
6430,G5,966.333,167/1000,40,91.91
6431,A5,966.5,167/1000,36,91.91
6432,G5,966.667,167/1000,42,91.91
6433,A5,966.833,167/1000,37,91.91
6434,G5,967.0,167/1000,42,91.91
6435,A5,967.167,167/1000,38,91.91
6436,G5,967.333,167/1000,43,91.91
6437,A5,967.5,167/1000,39,91.91
6438,G5,967.667,167/1000,44,91.91
6439,A5,967.833,167/1000,39,91.91
6440,G5,968.0,167/1000,46,91.91
6441,C3,968.0,333/1000,51,91.91
6442,A5,968.167,167/1000,31,91.91
6443,G5,968.333,167/1000,33,91.91
6444,G3,968.333,333/1000,31,91.91
6445,A5,968.5,167/1000,29,91.91
6446,G5,968.667,167/1000,32,91.91
6447,C4,968.667,333/1000,31,91.91
6448,A5,968.833,167/1000,28,91.91
6449,G5,969.0,167/1000,31,91.91
6450,E4,969.0,333/1000,33,91.91
6451,A5,969.167,167/1000,27,91.91
6452,G5,969.333,167/1000,31,91.91
6453,C4,969.333,333/1000,31,91.91
6454,A5,969.5,167/1000,27,91.91
6455,G5,969.667,167/1000,31,91.91
6456,E4,969.667,333/1000,31,91.91
6457,A5,969.833,167/1000,27,91.91
6458,G5,970.0,167/1000,32,91.91
6459,G4,970.0,333/1000,35,91.91
6460,A5,970.167,167/1000,28,91.91
6461,G5,970.333,167/1000,31,91.91
6462,E4,970.333,333/1000,31,91.91
6463,A5,970.5,167/1000,27,91.91
6464,G5,970.667,167/1000,31,91.91
6465,G4,970.667,333/1000,31,91.91
6466,A5,970.833,167/1000,27,91.91
6467,G5,971.0,167/1000,31,91.91
6468,G6,971.0,1.0,57,91.91
6469,E4,971.0,333/1000,35,91.91
6470,A5,971.167,167/1000,27,91.91
6471,G5,971.333,167/1000,31,91.91
6472,C4,971.333,333/1000,31,91.91
6473,A5,971.5,167/1000,27,91.91
6474,G5,971.667,167/1000,31,91.91
6475,E4,971.667,333/1000,31,91.91
6476,A5,971.833,167/1000,27,91.91
6477,G5,972.0,167/1000,37,91.91
6478,G6,972.0,1.5,59,91.91
6479,F4,972.0,333/1000,35,91.91
6480,A5,972.167,167/1000,28,91.91
6481,G5,972.333,167/1000,34,91.91
6482,D4,972.333,333/1000,31,91.91
6483,A5,972.5,167/1000,28,91.91
6484,G5,972.667,167/1000,34,91.91
6485,F4,972.667,333/1000,31,91.91
6486,A5,972.833,167/1000,28,91.91
6487,D4,973.0,333/1000,36,91.91
6488,A5,973.167,167/1000,27,91.91
6489,G5,973.333,167/1000,31,91.91
6490,B3,973.333,333/1000,31,91.91
6491,A5,973.5,167/1000,27,91.91
6492,E6,973.5,0.5,50,91.91
6493,G5,973.667,167/1000,31,91.91
6494,D4,973.667,333/1000,31,91.91
6495,A5,973.833,167/1000,27,91.91
6496,G5,974.0,167/1000,32,91.91
6497,D6,974.0,1.0,57,91.91
6498,E4,974.0,333/1000,35,91.91
6499,A5,974.167,167/1000,28,91.91
6500,G5,974.333,167/1000,31,91.91
6501,C4,974.333,333/1000,31,91.91
6502,A5,974.5,167/1000,27,91.91
6503,G5,974.667,167/1000,31,91.91
6504,G3,974.667,333/1000,31,91.91
6505,A5,974.833,167/1000,27,91.91
6506,G5,975.0,167/1000,31,91.91
6507,G5,975.0,73/500,50,91.91
6508,C4,975.0,333/1000,35,91.91
6509,A5,975.167,167/1000,27,91.91
6510,G5,975.333,167/1000,31,91.91
6511,G3,975.333,333/1000,31,91.91
6512,A5,975.5,167/1000,27,91.91
6513,G5,975.667,167/1000,31,91.91
6514,E3,975.667,333/1000,31,91.91
6515,A5,975.833,167/1000,27,91.91
6516,G5,976.0,167/1000,36,91.91
6517,C6,976.0,1.0,53,91.91
6518,C3,976.0,333/1000,49,91.91
6519,A5,976.167,167/1000,31,91.91
6520,G5,976.333,167/1000,33,91.91
6521,G3,976.333,333/1000,31,91.91
6522,A5,976.5,167/1000,29,91.91
6523,G5,976.667,167/1000,32,91.91
6524,C4,976.667,333/1000,31,91.91
6525,A5,976.833,167/1000,28,91.91
6526,G5,977.0,167/1000,31,91.91
6527,E6,977.0,0.5,53,91.91
6528,E4,977.0,333/1000,33,91.91
6529,A5,977.167,167/1000,27,91.91
6530,G5,977.333,167/1000,31,91.91
6531,C4,977.333,333/1000,31,91.91
6532,A5,977.5,167/1000,27,91.91
6533,G5,977.667,167/1000,31,91.91
6534,E4,977.667,333/1000,31,91.91
6535,A5,977.833,167/1000,27,91.91
6536,G5,978.0,167/1000,32,91.91
6537,G4,978.0,333/1000,35,91.91
6538,A5,978.167,167/1000,28,91.91
6539,G5,978.333,167/1000,31,91.91
6540,E4,978.333,333/1000,31,91.91
6541,A5,978.5,167/1000,27,91.91
6542,G5,978.667,167/1000,31,91.91
6543,G4,978.667,333/1000,31,91.91
6544,A5,978.833,167/1000,27,91.91
6545,G5,979.0,167/1000,31,91.91
6546,G6,979.0,1.0,57,91.91
6547,E4,979.0,333/1000,35,91.91
6548,A5,979.167,167/1000,27,91.91
6549,G5,979.333,167/1000,31,91.91
6550,C4,979.333,333/1000,31,91.91
6551,A5,979.5,167/1000,27,91.91
6552,G5,979.667,167/1000,31,91.91
6553,E4,979.667,333/1000,31,91.91
6554,A5,979.833,167/1000,27,91.91
6555,G5,980.0,167/1000,32,91.91
6556,G6,980.0,1.5,59,91.91
6557,F4,980.0,333/1000,35,91.91
6558,A5,980.167,167/1000,28,91.91
6559,G5,980.333,167/1000,31,91.91
6560,D4,980.333,333/1000,31,91.91
6561,A5,980.5,167/1000,27,91.91
6562,G5,980.667,167/1000,31,91.91
6563,F4,980.667,333/1000,31,91.91
6564,A5,980.833,167/1000,27,91.91
6565,G5,981.0,167/1000,31,91.91
6566,B3,981.0,333/1000,36,91.91
6567,A5,981.167,167/1000,27,91.91
6568,G5,981.333,167/1000,31,91.91
6569,D4,981.333,333/1000,31,91.91
6570,A5,981.5,167/1000,27,91.91
6571,E6,981.5,0.5,50,91.91
6572,G5,981.667,167/1000,31,91.91
6573,B3,981.667,333/1000,31,91.91
6574,A5,981.833,167/1000,27,91.91
6575,G5,982.0,167/1000,32,91.91
6576,D6,982.0,1.0,57,91.91
6577,C4,982.0,333/1000,35,91.91
6578,A5,982.167,167/1000,28,91.91
6579,G5,982.333,167/1000,32,91.91
6580,A3,982.333,333/1000,31,91.91
6581,A5,982.5,167/1000,28,91.91
6582,G5,982.667,167/1000,34,91.91
6583,G3,982.667,333/1000,31,91.91
6584,A5,982.833,167/1000,30,91.91
6585,G5,983.0,167/1000,35,91.91
6586,G5,983.0,73/500,50,91.91
6587,F3,983.0,333/1000,35,91.91
6588,A5,983.167,167/1000,31,91.91
6589,G5,983.333,167/1000,36,91.91
6590,E3,983.333,333/1000,31,91.91
6591,A5,983.5,167/1000,32,91.91
6592,G5,983.667,167/1000,38,91.91
6593,D3,983.667,333/1000,31,91.91
6594,A5,983.833,167/1000,34,91.91
6595,G#5,984.0,167/1000,46,91.91
6596,C6,984.0,0.5,53,91.91
6597,C3,984.0,333/1000,63,91.91
6598,G5,984.167,167/1000,31,91.91
6599,G#5,984.333,167/1000,33,91.91
6600,G3,984.333,333/1000,31,91.91
6601,G5,984.5,167/1000,29,91.91
6602,G#5,984.667,167/1000,32,91.91
6603,C4,984.667,333/1000,31,91.91
6604,G5,984.833,167/1000,28,91.91
6605,G#5,985.0,167/1000,31,91.91
6606,E-4,985.0,333/1000,33,91.91
6607,G5,985.167,167/1000,27,91.91
6608,G#5,985.333,167/1000,31,91.91
6609,C4,985.333,333/1000,31,91.91
6610,G5,985.5,167/1000,27,91.91
6611,G#5,985.667,167/1000,31,91.91
6612,E-4,985.667,333/1000,31,91.91
6613,G5,985.833,167/1000,27,91.91
6614,G#5,986.0,167/1000,32,91.91
6615,G4,986.0,333/1000,35,91.91
6616,G5,986.167,167/1000,28,91.91
6617,G#5,986.333,167/1000,31,91.91
6618,E-4,986.333,333/1000,31,91.91
6619,G5,986.5,167/1000,27,91.91
6620,G#5,986.667,167/1000,31,91.91
6621,G4,986.667,333/1000,31,91.91
6622,G5,986.833,167/1000,27,91.91
6623,G#5,987.0,167/1000,31,91.91
6624,G6,987.0,1.0,57,91.91
6625,E-4,987.0,333/1000,35,91.91
6626,G5,987.167,167/1000,27,91.91
6627,G#5,987.333,167/1000,31,91.91
6628,C4,987.333,333/1000,31,91.91
6629,G5,987.5,167/1000,27,91.91
6630,G#5,987.667,167/1000,31,91.91
6631,E-4,987.667,333/1000,31,91.91
6632,G5,987.833,167/1000,27,91.91
6633,G#5,988.0,167/1000,37,91.91
6634,G6,988.0,1.5,59,91.91
6635,F4,988.0,333/1000,35,91.91
6636,G5,988.167,167/1000,28,91.91
6637,G#5,988.333,167/1000,34,91.91
6638,D4,988.333,333/1000,31,91.91
6639,G5,988.5,167/1000,28,91.91
6640,G#5,988.667,167/1000,34,91.91
6641,F4,988.667,333/1000,31,91.91
6642,G5,988.833,167/1000,28,91.91
6643,G#5,989.0,167/1000,31,91.91
6644,D4,989.0,333/1000,36,91.91
6645,G5,989.167,167/1000,27,91.91
6646,G#5,989.333,167/1000,31,91.91
6647,B3,989.333,333/1000,31,91.91
6648,G5,989.5,167/1000,27,91.91
6649,E-6,989.5,0.5,50,91.91
6650,G#5,989.667,167/1000,31,91.91
6651,D4,989.667,333/1000,31,91.91
6652,G5,989.833,167/1000,27,91.91
6653,G#5,990.0,167/1000,32,91.91
6654,D6,990.0,1.0,57,91.91
6655,E-4,990.0,333/1000,35,91.91
6656,G5,990.167,167/1000,28,91.91
6657,G#5,990.333,167/1000,31,91.91
6658,C4,990.333,333/1000,31,91.91
6659,G5,990.5,167/1000,27,91.91
6660,G#5,990.667,167/1000,31,91.91
6661,E-4,990.667,333/1000,31,91.91
6662,G5,990.833,167/1000,27,91.91
6663,G#5,991.0,167/1000,31,91.91
6664,G5,991.0,73/500,50,91.91
6665,E-3,991.0,0.5,35,91.91
6666,B-3,991.0,333/1000,35,91.91
6667,G5,991.167,167/1000,27,91.91
6668,G#5,991.333,167/1000,31,91.91
6669,C#4,991.333,333/1000,31,91.91
6670,G5,991.5,167/1000,27,91.91
6671,F5,991.667,167/1000,31,91.91
6672,B-3,991.667,333/1000,31,91.91
6673,G5,991.833,167/1000,27,91.91
6674,G#5,992.0,167/1000,36,91.91
6675,C6,992.0,0.5,53,91.91
6676,G#2,992.0,333/1000,45,91.91
6677,B-5,992.167,167/1000,31,91.91
6678,G#5,992.333,167/1000,33,91.91
6679,E-3,992.333,333/1000,31,91.91
6680,B-5,992.5,167/1000,29,91.91
6681,G#5,992.667,167/1000,32,91.91
6682,G#3,992.667,333/1000,31,91.91
6683,B-5,992.833,167/1000,28,91.91
6684,E-5,993.0,167/1000,31,91.91
6685,C4,993.0,333/1000,33,91.91
6686,F5,993.167,167/1000,27,91.91
6687,E-5,993.333,167/1000,31,91.91
6688,G#3,993.333,333/1000,31,91.91
6689,F5,993.5,167/1000,27,91.91
6690,E-5,993.667,167/1000,31,91.91
6691,C4,993.667,333/1000,31,91.91
6692,F5,993.833,167/1000,27,91.91
6693,E-5,994.0,167/1000,32,91.91
6694,E-4,994.0,333/1000,35,91.91
6695,F5,994.167,167/1000,28,91.91
6696,E-5,994.333,167/1000,31,91.91
6697,C4,994.333,333/1000,31,91.91
6698,F5,994.5,167/1000,27,91.91
6699,E-5,994.667,167/1000,31,91.91
6700,E-4,994.667,333/1000,31,91.91
6701,F5,994.833,167/1000,27,91.91
6702,E-5,995.0,167/1000,31,91.91
6703,E-6,995.0,1.0,57,91.91
6704,C4,995.0,333/1000,35,91.91
6705,F5,995.167,167/1000,27,91.91
6706,E-5,995.333,167/1000,31,91.91
6707,G#3,995.333,333/1000,31,91.91
6708,F5,995.5,167/1000,27,91.91
6709,E-5,995.667,167/1000,31,91.91
6710,C4,995.667,333/1000,31,91.91
6711,F5,995.833,167/1000,27,91.91
6712,E-5,996.0,167/1000,32,91.91
6713,E-6,996.0,1.5,59,91.91
6714,C#4,996.0,333/1000,35,91.91
6715,F5,996.167,167/1000,28,91.91
6716,E-5,996.333,167/1000,31,91.91
6717,B-3,996.333,333/1000,31,91.91
6718,F5,996.5,167/1000,27,91.91
6719,E-5,996.667,167/1000,31,91.91
6720,C#4,996.667,333/1000,31,91.91
6721,F5,996.833,167/1000,27,91.91
6722,E-5,997.0,167/1000,31,91.91
6723,B-3,997.0,333/1000,36,91.91
6724,F5,997.167,167/1000,27,91.91
6725,E-5,997.333,167/1000,31,91.91
6726,G3,997.333,333/1000,31,91.91
6727,F5,997.5,167/1000,27,91.91
6728,C6,997.5,0.5,50,91.91
6729,E-5,997.667,167/1000,31,91.91
6730,B-3,997.667,333/1000,31,91.91
6731,F5,997.833,167/1000,27,91.91
6732,E-5,998.0,167/1000,32,91.91
6733,B-5,998.0,1.0,57,91.91
6734,C4,998.0,333/1000,35,91.91
6735,F5,998.167,167/1000,28,91.91
6736,E-5,998.333,167/1000,32,91.91
6737,G#3,998.333,333/1000,31,91.91
6738,F5,998.5,167/1000,28,91.91
6739,E-5,998.667,167/1000,34,91.91
6740,C4,998.667,333/1000,31,91.91
6741,F5,998.833,167/1000,30,91.91
6742,E5,999.0,167/1000,35,91.91
6743,E-5,999.0,1.0,50,91.91
6744,C3,999.0,0.5,35,91.91
6745,G3,999.0,333/1000,35,91.91
6746,F5,999.167,167/1000,31,91.91
6747,E5,999.333,167/1000,36,91.91
6748,B-3,999.333,333/1000,31,91.91
6749,F5,999.5,0.125,32,91.91
6750,E5,999.625,0.125,38,91.91
6751,G3,999.667,333/1000,31,91.91
6752,F5,999.75,0.125,34,91.91
6753,E5,999.865,0.125,34,91.91
6754,F5,1000.0,167/1000,36,91.91
6755,G#5,1000.0,0.5,53,91.91
6756,F2,1000.0,333/1000,45,91.91
6757,G5,1000.167,167/1000,31,91.91
6758,F5,1000.333,167/1000,33,91.91
6759,C3,1000.333,333/1000,31,91.91
6760,G5,1000.5,167/1000,29,91.91
6761,F5,1000.667,167/1000,32,91.91
6762,F3,1000.667,333/1000,31,91.91
6763,G5,1000.833,167/1000,28,91.91
6764,C#5,1001.0,167/1000,31,91.91
6765,G#3,1001.0,333/1000,33,91.91
6766,C5,1001.167,167/1000,27,91.91
6767,C#5,1001.333,167/1000,31,91.91
6768,F3,1001.333,333/1000,31,91.91
6769,C5,1001.5,167/1000,27,91.91
6770,C#5,1001.667,167/1000,31,91.91
6771,G#3,1001.667,333/1000,31,91.91
6772,C5,1001.833,167/1000,27,91.91
6773,C#5,1002.0,167/1000,32,91.91
6774,C4,1002.0,333/1000,35,91.91
6775,C5,1002.167,167/1000,28,91.91
6776,C#5,1002.333,167/1000,31,91.91
6777,G#3,1002.333,333/1000,31,91.91
6778,C5,1002.5,167/1000,27,91.91
6779,C#5,1002.667,167/1000,31,91.91
6780,C4,1002.667,333/1000,31,91.91
6781,C5,1002.833,167/1000,27,91.91
6782,C#5,1003.0,167/1000,31,91.91
6783,C6,1003.0,1.0,57,91.91
6784,G#3,1003.0,333/1000,35,91.91
6785,C5,1003.167,167/1000,27,91.91
6786,C#5,1003.333,167/1000,31,91.91
6787,F3,1003.333,333/1000,31,91.91
6788,C5,1003.5,167/1000,27,91.91
6789,C#5,1003.667,167/1000,31,91.91
6790,G#3,1003.667,333/1000,31,91.91
6791,C5,1003.833,167/1000,27,91.91
6792,C#5,1004.0,167/1000,32,91.91
6793,C6,1004.0,1.5,59,91.91
6794,B-3,1004.0,333/1000,35,91.91
6795,C5,1004.167,167/1000,28,91.91
6796,C#5,1004.333,167/1000,31,91.91
6797,G3,1004.333,333/1000,31,91.91
6798,C5,1004.5,167/1000,27,91.91
6799,C#5,1004.667,167/1000,31,91.91
6800,B-3,1004.667,333/1000,31,91.91
6801,C5,1004.833,167/1000,27,91.91
6802,C#5,1005.0,167/1000,31,91.91
6803,G3,1005.0,333/1000,36,91.91
6804,C5,1005.167,167/1000,27,91.91
6805,C#5,1005.333,167/1000,31,91.91
6806,E3,1005.333,333/1000,31,91.91
6807,C5,1005.5,167/1000,27,91.91
6808,G#5,1005.5,0.5,50,91.91
6809,C#5,1005.667,167/1000,31,91.91
6810,G3,1005.667,333/1000,31,91.91
6811,C5,1005.833,167/1000,27,91.91
6812,C#5,1006.0,167/1000,32,91.91
6813,G5,1006.0,1.0,57,91.91
6814,G#3,1006.0,333/1000,35,91.91
6815,C5,1006.167,167/1000,28,91.91
6816,C#5,1006.333,167/1000,32,91.91
6817,F3,1006.333,333/1000,31,91.91
6818,C5,1006.5,167/1000,28,91.91
6819,C#5,1006.667,167/1000,34,91.91
6820,G#3,1006.667,333/1000,31,91.91
6821,C5,1006.833,167/1000,30,91.91
6822,C#5,1007.0,167/1000,35,91.91
6823,C5,1007.0,73/500,50,91.91
6824,F3,1007.0,333/1000,35,91.91
6825,C5,1007.167,167/1000,29,91.91
6826,C#5,1007.333,167/1000,34,91.91
6827,C3,1007.333,333/1000,31,91.91
6828,C5,1007.5,167/1000,29,91.91
6829,C#5,1007.667,167/1000,34,91.91
6830,F3,1007.667,333/1000,31,91.91
6831,C5,1007.833,167/1000,28,91.91
6832,C#5,1008.0,167/1000,32,91.91
6833,F5,1008.0,1.5,57,91.91
6834,B-3,1008.0,333/1000,35,91.91
6835,C5,1008.167,167/1000,28,91.91
6836,C#5,1008.333,167/1000,31,91.91
6837,G3,1008.333,333/1000,31,91.91
6838,C5,1008.5,167/1000,27,91.91
6839,C#5,1008.667,167/1000,31,91.91
6840,B-3,1008.667,333/1000,31,91.91
6841,C5,1008.833,167/1000,27,91.91
6842,C#5,1009.0,167/1000,31,91.91
6843,E3,1009.0,333/1000,36,91.91
6844,C5,1009.167,167/1000,27,91.91
6845,C#5,1009.333,167/1000,31,91.91
6846,G3,1009.333,333/1000,31,91.91
6847,C5,1009.5,167/1000,27,91.91
6848,G#5,1009.5,0.5,53,91.91
6849,C#5,1009.667,167/1000,31,91.91
6850,E3,1009.667,333/1000,31,91.91
6851,C5,1009.833,167/1000,27,91.91
6852,C#5,1010.0,167/1000,32,91.91
6853,G5,1010.0,1.0,57,91.91
6854,F3,1010.0,333/1000,35,91.91
6855,C5,1010.167,167/1000,28,91.91
6856,C#5,1010.333,167/1000,32,91.91
6857,G#3,1010.333,333/1000,31,91.91
6858,C5,1010.5,167/1000,28,91.91
6859,C#5,1010.667,167/1000,34,91.91
6860,F3,1010.667,333/1000,31,91.91
6861,C5,1010.833,167/1000,30,91.91
6862,C#5,1011.0,167/1000,34,91.91
6863,C5,1011.0,73/500,50,91.91
6864,G3,1011.0,333/1000,35,91.91
6865,C5,1011.167,167/1000,29,91.91
6866,C#5,1011.333,167/1000,34,91.91
6867,C4,1011.333,333/1000,31,91.91
6868,C5,1011.5,167/1000,28,91.91
6869,C#5,1011.667,167/1000,34,91.91
6870,G3,1011.667,333/1000,31,91.91
6871,C5,1011.833,167/1000,29,91.91
6872,D5,1012.0,167/1000,32,91.91
6873,F5,1012.0,1.0,57,91.91
6874,F4,1012.0,0.5,40,91.91
6875,G#3,1012.0,0.5,40,91.91
6876,C5,1012.167,167/1000,28,91.91
6877,D5,1012.333,167/1000,32,91.91
6878,C5,1012.5,167/1000,28,91.91
6879,D5,1012.667,167/1000,34,91.91
6880,C5,1012.833,167/1000,30,91.91
6881,D5,1013.0,167/1000,33,91.91
6882,E-5,1013.0,1.0,53,91.91
6883,C5,1013.167,167/1000,28,91.91
6884,D5,1013.333,167/1000,35,91.91
6885,C5,1013.5,167/1000,28,91.91
6886,G#3,1013.5,0.5,40,91.91
6887,F4,1013.5,0.5,40,91.91
6888,D5,1013.667,167/1000,34,91.91
6889,C5,1013.833,167/1000,30,91.91
6890,D5,1014.0,167/1000,33,91.91
6891,G#3,1014.0,0.5,44,91.91
6892,F4,1014.0,0.5,44,91.91
6893,C5,1014.167,167/1000,29,91.91
6894,D5,1014.333,167/1000,33,91.91
6895,C5,1014.5,167/1000,29,91.91
6896,D5,1014.667,167/1000,36,91.91
6897,C5,1014.833,167/1000,32,91.91
6898,D5,1015.0,167/1000,37,91.91
6899,C5,1015.167,167/1000,33,91.91
6900,D5,1015.333,167/1000,36,91.91
6901,C5,1015.5,167/1000,31,91.91
6902,G#3,1015.5,0.5,41,91.91
6903,F4,1015.5,0.5,41,91.91
6904,D5,1015.667,167/1000,37,91.91
6905,C5,1015.833,167/1000,31,91.91
6906,D5,1016.0,167/1000,35,91.91
6907,G#3,1016.0,0.5,49,91.91
6908,F#4,1016.0,0.5,49,91.91
6909,C5,1016.167,167/1000,30,91.91
6910,D5,1016.333,167/1000,35,91.91
6911,C5,1016.5,167/1000,31,91.91
6912,D5,1016.667,167/1000,37,91.91
6913,C5,1016.833,167/1000,33,91.91
6914,D5,1017.0,167/1000,39,91.91
6915,C5,1017.167,167/1000,34,91.91
6916,D5,1017.333,167/1000,39,91.91
6917,C5,1017.5,167/1000,36,91.91
6918,G#3,1017.5,0.5,47,91.91
6919,F#4,1017.5,0.5,47,91.91
6920,D5,1017.667,167/1000,39,91.91
6921,C5,1017.833,167/1000,35,91.91
6922,D5,1018.0,167/1000,36,91.91
6923,G#3,1018.0,0.5,52,91.91
6924,F#4,1018.0,0.5,52,91.91
6925,C5,1018.167,167/1000,32,91.91
6926,D5,1018.333,167/1000,36,91.91
6927,C5,1018.5,167/1000,32,91.91
6928,D5,1018.667,167/1000,39,91.91
6929,C5,1018.833,167/1000,35,91.91
6930,D5,1019.0,167/1000,40,91.91
6931,C5,1019.167,167/1000,36,91.91
6932,D5,1019.333,167/1000,40,91.91
6933,C5,1019.5,0.125,35,91.91
6934,G#3,1019.5,0.5,48,91.91
6935,F#4,1019.5,0.5,48,91.91
6936,D5,1019.625,0.125,40,91.91
6937,C5,1019.75,0.125,34,91.91
6938,D5,1019.875,0.125,34,91.91
6939,C5,1020.0,167/1000,38,91.91
6940,G3,1020.0,0.5,56,91.91
6941,G4,1020.0,0.5,56,91.91
6942,D5,1020.167,167/1000,33,91.91
6943,E5,1020.333,167/1000,39,91.91
6944,D5,1020.5,167/1000,34,91.91
6945,G4,1020.5,0.5,57,91.91
6946,C5,1020.5,0.5,57,91.91
6947,E5,1020.667,167/1000,42,91.91
6948,D5,1020.833,167/1000,37,91.91
6949,E5,1021.0,167/1000,44,91.91
6950,G4,1021.0,0.5,59,91.91
6951,C5,1021.0,0.5,59,91.91
6952,D5,1021.167,167/1000,39,91.91
6953,E5,1021.333,167/1000,43,91.91
6954,D5,1021.5,167/1000,37,91.91
6955,G4,1021.5,0.5,60,91.91
6956,C5,1021.5,0.5,60,91.91
6957,E5,1021.667,167/1000,45,91.91
6958,D5,1021.833,167/1000,40,91.91
6959,E5,1022.0,167/1000,42,91.91
6960,G4,1022.0,0.5,62,91.91
6961,C5,1022.0,0.5,62,91.91
6962,D5,1022.167,167/1000,37,91.91
6963,E5,1022.333,167/1000,42,91.91
6964,D5,1022.5,167/1000,37,91.91
6965,G4,1022.5,0.5,63,91.91
6966,C5,1022.5,0.5,63,91.91
6967,E5,1022.667,167/1000,46,91.91
6968,D5,1022.833,167/1000,41,91.91
6969,E5,1023.0,167/1000,48,91.91
6970,G4,1023.0,0.5,64,91.91
6971,C5,1023.0,0.5,64,91.91
6972,D5,1023.167,167/1000,43,91.91
6973,E5,1023.333,167/1000,49,91.91
6974,D5,1023.5,167/1000,40,91.91
6975,G4,1023.5,0.5,66,91.91
6976,C5,1023.5,0.5,66,91.91
6977,E5,1023.667,167/1000,49,91.91
6978,D5,1023.833,167/1000,42,91.91
6979,E5,1024.0,167/1000,46,91.91
6980,G4,1024.0,2.0,68,91.91
6981,C5,1024.0,167/1000,46,91.91
6982,D5,1024.167,167/1000,40,91.91
6983,B4,1024.167,167/1000,40,91.91
6984,E5,1024.333,167/1000,47,91.91
6985,C5,1024.333,167/1000,47,91.91
6986,D5,1024.5,167/1000,41,91.91
6987,B4,1024.5,167/1000,41,91.91
6988,E5,1024.667,167/1000,49,91.91
6989,C5,1024.667,167/1000,50,91.91
6990,D5,1024.833,167/1000,45,91.91
6991,B4,1024.833,167/1000,45,91.91
6992,E5,1025.0,167/1000,52,91.91
6993,C5,1025.0,167/1000,52,91.91
6994,D5,1025.167,167/1000,47,91.91
6995,B4,1025.167,167/1000,44,91.91
6996,E5,1025.333,167/1000,53,91.91
6997,C5,1025.333,167/1000,52,91.91
6998,D5,1025.5,167/1000,43,91.91
6999,B4,1025.5,167/1000,43,91.91
7000,E5,1025.667,167/1000,52,91.91
7001,C5,1025.667,167/1000,54,91.91
7002,D5,1025.833,167/1000,53,91.91
7003,B4,1025.833,167/1000,45,91.91
7004,E5,1026.0,167/1000,50,91.91
7005,C5,1026.0,167/1000,50,91.91
7006,G4,1026.0,2.0,68,91.91
7007,D5,1026.167,167/1000,44,91.91
7008,B4,1026.167,167/1000,44,91.91
7009,E5,1026.333,167/1000,50,91.91
7010,C5,1026.333,167/1000,50,91.91
7011,D5,1026.5,167/1000,44,91.91
7012,G5,1026.5,62/125,63,91.91
7013,B4,1026.5,167/1000,44,91.91
7014,E5,1026.667,167/1000,54,91.91
7015,C5,1026.667,167/1000,54,91.91
7016,D5,1026.833,167/1000,48,91.91
7017,B4,1026.833,167/1000,48,91.91
7018,E5,1027.0,167/1000,58,91.91
7019,G5,1027.0,62/125,64,91.91
7020,C5,1027.0,167/1000,55,91.91
7021,D5,1027.167,167/1000,47,91.91
7022,B4,1027.167,167/1000,44,91.91
7023,E5,1027.333,167/1000,56,91.91
7024,C5,1027.333,167/1000,54,91.91
7025,D5,1027.5,167/1000,48,91.91
7026,G5,1027.5,62/125,66,91.91
7027,B4,1027.5,167/1000,48,91.91
7028,E5,1027.667,167/1000,58,91.91
7029,C5,1027.667,167/1000,56,91.91
7030,D5,1027.833,167/1000,48,91.91
7031,B4,1027.833,167/1000,50,91.91
7032,G5,1028.0,62/125,68,91.91
7033,C2,1028.0,0.5,85,91.91
7034,G5,1028.5,62/125,69,91.91
7035,C3,1028.5,0.25,69,91.91
7036,E3,1028.5,0.25,69,91.91
7037,G3,1028.5,0.25,69,91.91
7038,C4,1028.5,0.25,69,91.91
7039,G5,1029.0,62/125,71,91.91
7040,C3,1029.0,1.0,66,91.91
7041,E3,1029.0,1.0,70,91.91
7042,G3,1029.0,1.0,70,91.91
7043,C4,1029.0,1.0,70,91.91
7044,G5,1029.5,0.5,72,91.91
7045,C3,1030.0,2.0,66,91.91
7046,C5,1030.0,0.5,97,91.91
7047,E5,1030.0,0.5,97,91.91
7048,F3,1030.0,1.0,73,91.91
7049,G3,1030.0,1.0,73,91.91
7050,B3,1030.0,1.0,73,91.91
7051,G5,1030.5,0.5,75,91.91
7052,G6,1030.5,0.25,75,91.91
7053,G5,1031.0,1.0,75,91.91
7054,G6,1031.0,0.75,79,91.91
7055,E3,1031.0,1.0,69,91.91
7056,G3,1031.0,1.0,69,91.91
7057,C4,1031.0,1.0,69,91.91
7058,E6,1031.75,0.25,75,91.91
7059,D6,1032.0,0.5,81,91.91
7060,G5,1032.0,0.5,75,91.91
7061,C2,1032.0,0.5,48,91.91
7062,G5,1032.5,1.5,75,91.91
7063,C3,1032.5,0.25,38,91.91
7064,E3,1032.5,0.25,38,91.91
7065,G3,1032.5,0.25,38,91.91
7066,C4,1032.5,0.25,38,91.91
7067,C6,1033.0,0.5,75,91.91
7068,C3,1033.0,1.0,37,91.91
7069,E3,1033.0,1.0,39,91.91
7070,G3,1033.0,1.0,39,91.91
7071,C4,1033.0,1.0,39,91.91
7072,E6,1033.5,0.5,73,91.91
7073,C3,1034.0,2.0,37,91.91
7074,F3,1034.0,1.0,41,91.91
7075,G3,1034.0,1.0,41,91.91
7076,B3,1034.0,1.0,41,91.91
7077,G4,1034.5,0.5,50,91.91
7078,G5,1034.5,0.25,50,91.91
7079,G4,1035.0,1.0,50,91.91
7080,G5,1035.0,0.75,53,91.91
7081,E3,1035.0,1.0,39,91.91
7082,G3,1035.0,1.0,39,91.91
7083,C4,1035.0,1.0,39,91.91
7084,E5,1035.75,0.25,50,91.91
7085,D5,1036.0,0.5,54,91.91
7086,G4,1036.0,0.5,50,91.91
7087,C2,1036.0,0.5,85,91.91
7088,G4,1036.5,1.5,50,91.91
7089,C3,1036.5,0.25,69,91.91
7090,E3,1036.5,0.25,69,91.91
7091,G3,1036.5,0.25,69,91.91
7092,C4,1036.5,0.25,69,91.91
7093,C5,1037.0,0.5,50,91.91
7094,C3,1037.0,1.0,66,91.91
7095,E3,1037.0,1.0,70,91.91
7096,G3,1037.0,1.0,70,91.91
7097,C4,1037.0,1.0,70,91.91
7098,E5,1037.5,0.5,49,91.91
7099,C3,1038.0,2.0,66,91.91
7100,F3,1038.0,1.0,73,91.91
7101,G3,1038.0,1.0,73,91.91
7102,B3,1038.0,1.0,73,91.91
7103,G6,1038.5,0.25,75,91.91
7104,F#6,1038.75,0.25,69,91.91
7105,G6,1039.0,0.25,75,91.91
7106,E3,1039.0,1.0,69,91.91
7107,G3,1039.0,1.0,69,91.91
7108,C4,1039.0,1.0,69,91.91
7109,F#6,1039.25,0.25,70,91.91
7110,G6,1039.5,0.25,75,91.91
7111,E6,1039.75,0.25,70,91.91
7112,D6,1040.0,0.25,72,91.91
7113,C2,1040.0,0.5,48,91.91
7114,C#6,1040.25,0.25,64,91.91
7115,D6,1040.5,0.25,72,91.91
7116,C3,1040.5,0.25,38,91.91
7117,E3,1040.5,0.25,38,91.91
7118,G3,1040.5,0.25,38,91.91
7119,C4,1040.5,0.25,38,91.91
7120,G5,1040.75,0.25,67,91.91
7121,C6,1041.0,0.25,72,91.91
7122,C3,1041.0,1.0,37,91.91
7123,E3,1041.0,1.0,39,91.91
7124,G3,1041.0,1.0,39,91.91
7125,C4,1041.0,1.0,39,91.91
7126,B5,1041.25,0.25,66,91.91
7127,C6,1041.5,0.25,75,91.91
7128,E6,1041.75,0.25,69,91.91
7129,C3,1042.0,2.0,37,91.91
7130,F3,1042.0,1.0,41,91.91
7131,G3,1042.0,1.0,41,91.91
7132,B3,1042.0,1.0,41,91.91
7133,G5,1042.5,0.25,50,91.91
7134,F#5,1042.75,0.25,47,91.91
7135,G5,1043.0,0.25,50,91.91
7136,E3,1043.0,1.0,39,91.91
7137,G3,1043.0,1.0,39,91.91
7138,C4,1043.0,1.0,39,91.91
7139,F#5,1043.25,0.25,46,91.91
7140,G5,1043.5,0.25,50,91.91
7141,E5,1043.75,0.25,44,91.91
7142,D5,1044.0,0.25,48,91.91
7143,C3,1044.0,62/125,38,91.91
7144,F3,1044.0,62/125,38,91.91
7145,C#5,1044.25,0.25,45,91.91
7146,D5,1044.5,0.25,49,91.91
7147,C3,1044.5,62/125,33,91.91
7148,F3,1044.5,62/125,33,91.91
7149,G4,1044.75,0.25,45,91.91
7150,C5,1045.0,0.25,49,91.91
7151,C3,1045.0,62/125,34,91.91
7152,E3,1045.0,62/125,34,91.91
7153,B4,1045.25,0.25,46,91.91
7154,C5,1045.5,0.25,49,91.91
7155,C3,1045.5,62/125,35,91.91
7156,E3,1045.5,62/125,35,91.91
7157,E5,1045.75,0.25,46,91.91
7158,D4,1046.0,0.25,50,91.91
7159,C3,1046.0,62/125,38,91.91
7160,F3,1046.0,62/125,38,91.91
7161,C#4,1046.25,0.25,45,91.91
7162,D4,1046.5,0.25,51,91.91
7163,C3,1046.5,62/125,33,91.91
7164,F3,1046.5,62/125,33,91.91
7165,G3,1046.75,0.25,46,91.91
7166,C4,1047.0,271/1000,51,91.91
7167,C3,1047.0,62/125,34,91.91
7168,E3,1047.0,62/125,34,91.91
7169,B3,1047.25,271/1000,46,91.91
7170,C4,1047.5,271/1000,51,91.91
7171,C3,1047.5,62/125,35,91.91
7172,E3,1047.5,62/125,35,91.91
7173,E4,1047.75,0.25,46,91.91
7174,D4,1048.0,0.25,50,91.91
7175,C3,1048.0,62/125,41,91.91
7176,F3,1048.0,62/125,41,91.91
7177,C#4,1048.25,0.25,45,91.91
7178,D4,1048.5,0.25,51,91.91
7179,F3,1048.5,62/125,35,91.91
7180,C3,1048.5,62/125,35,91.91
7181,G3,1048.5,62/125,35,91.91
7182,G3,1048.75,0.25,46,91.91
7183,C4,1049.0,271/1000,51,91.91
7184,D3,1049.0,62/125,37,91.91
7185,F3,1049.0,62/125,37,91.91
7186,G3,1049.0,62/125,37,91.91
7187,C3,1049.0,62/125,37,91.91
7188,B3,1049.0,62/125,37,91.91
7189,B3,1049.25,271/1000,46,91.91
7190,C4,1049.5,271/1000,51,91.91
7191,D3,1049.5,62/125,39,91.91
7192,F3,1049.5,62/125,39,91.91
7193,G3,1049.5,62/125,39,91.91
7194,C3,1049.5,62/125,39,91.91
7195,B3,1049.5,62/125,39,91.91
7196,E4,1049.75,0.25,46,91.91
7197,D4,1050.0,0.25,55,91.91
7198,D3,1050.0,62/125,44,91.91
7199,F3,1050.0,62/125,44,91.91
7200,G3,1050.0,62/125,44,91.91
7201,C3,1050.0,62/125,44,91.91
7202,B3,1050.0,62/125,44,91.91
7203,C#4,1050.25,0.25,49,91.91
7204,D4,1050.5,0.25,57,91.91
7205,D3,1050.5,62/125,40,91.91
7206,G3,1050.5,62/125,40,91.91
7207,F3,1050.5,62/125,40,91.91
7208,C3,1050.5,62/125,40,91.91
7209,B3,1050.5,62/125,40,91.91
7210,B3,1050.75,0.25,52,91.91
7211,F4,1051.0,271/1000,59,91.91
7212,D3,1051.0,62/125,42,91.91
7213,F3,1051.0,62/125,42,91.91
7214,G3,1051.0,62/125,42,91.91
7215,C3,1051.0,62/125,42,91.91
7216,B3,1051.0,62/125,42,91.91
7217,E4,1051.25,271/1000,54,91.91
7218,F4,1051.5,271/1000,61,91.91
7219,D3,1051.5,62/125,45,91.91
7220,F3,1051.5,62/125,45,91.91
7221,G3,1051.5,62/125,45,91.91
7222,C3,1051.5,62/125,45,91.91
7223,B3,1051.5,62/125,45,91.91
7224,D4,1051.75,0.25,56,91.91
7225,B4,1052.0,0.25,62,91.91
7226,D3,1052.0,62/125,49,91.91
7227,F3,1052.0,62/125,49,91.91
7228,G3,1052.0,62/125,49,91.91
7229,C3,1052.0,62/125,49,91.91
7230,B3,1052.0,62/125,49,91.91
7231,B-4,1052.25,0.25,56,91.91
7232,B4,1052.5,0.25,65,91.91
7233,D3,1052.5,62/125,44,91.91
7234,G3,1052.5,62/125,44,91.91
7235,F3,1052.5,62/125,44,91.91
7236,C3,1052.5,62/125,44,91.91
7237,B3,1052.5,62/125,44,91.91
7238,F4,1052.75,0.25,59,91.91
7239,D5,1053.0,271/1000,67,91.91
7240,D3,1053.0,62/125,46,91.91
7241,F3,1053.0,62/125,46,91.91
7242,G3,1053.0,62/125,46,91.91
7243,C3,1053.0,62/125,46,91.91
7244,B3,1053.0,62/125,46,91.91
7245,C#5,1053.25,271/1000,61,91.91
7246,D5,1053.5,271/1000,69,91.91
7247,D3,1053.5,62/125,47,91.91
7248,F3,1053.5,62/125,47,91.91
7249,G3,1053.5,62/125,47,91.91
7250,C3,1053.5,62/125,47,91.91
7251,B3,1053.5,62/125,47,91.91
7252,B4,1053.75,0.25,63,91.91
7253,F5,1054.0,0.25,70,91.91
7254,D3,1054.0,62/125,51,91.91
7255,F3,1054.0,62/125,51,91.91
7256,G3,1054.0,62/125,51,91.91
7257,C3,1054.0,62/125,51,91.91
7258,B3,1054.0,62/125,51,91.91
7259,E5,1054.25,0.25,63,91.91
7260,F5,1054.5,0.25,71,91.91
7261,D3,1054.5,62/125,47,91.91
7262,G3,1054.5,62/125,47,91.91
7263,F3,1054.5,62/125,47,91.91
7264,C3,1054.5,62/125,47,91.91
7265,B3,1054.5,62/125,47,91.91
7266,D5,1054.75,0.25,65,91.91
7267,B5,1055.0,271/1000,73,91.91
7268,D3,1055.0,62/125,48,91.91
7269,F3,1055.0,62/125,48,91.91
7270,G3,1055.0,62/125,48,91.91
7271,C3,1055.0,62/125,48,91.91
7272,B3,1055.0,62/125,48,91.91
7273,B-5,1055.25,271/1000,66,91.91
7274,B5,1055.5,271/1000,73,91.91
7275,D3,1055.5,62/125,50,91.91
7276,F3,1055.5,62/125,50,91.91
7277,G3,1055.5,62/125,50,91.91
7278,C3,1055.5,62/125,50,91.91
7279,B3,1055.5,62/125,50,91.91
7280,F5,1055.75,0.25,67,91.91
7281,D6,1056.0,0.25,74,91.91
7282,C2,1056.0,0.5,71,91.91
7283,C3,1056.0,0.5,71,91.91
7284,C#6,1056.25,0.25,67,91.91
7285,D6,1056.5,0.25,76,91.91
7286,E3,1056.5,0.25,62,91.91
7287,G3,1056.5,0.25,62,91.91
7288,B5,1056.75,0.25,69,91.91
7289,F6,1057.0,271/1000,77,91.91
7290,C3,1057.0,0.25,64,91.91
7291,E3,1057.0,0.25,64,91.91
7292,E6,1057.25,271/1000,70,91.91
7293,F6,1057.5,271/1000,78,91.91
7294,C4,1057.5,0.25,62,91.91
7295,G3,1057.5,0.25,62,91.91
7296,B5,1057.75,0.25,71,91.91
7297,C6,1058.0,0.5,91,91.91
7298,E3,1058.0,0.25,64,91.91
7299,G3,1058.0,0.25,64,91.91
7300,E4,1058.5,0.25,74,91.91
7301,G4,1058.5,0.25,74,91.91
7302,C4,1058.5,0.25,62,91.91
7303,E4,1058.5,0.25,62,91.91
7304,C4,1059.0,0.25,78,91.91
7305,E4,1059.0,0.25,78,91.91
7306,G3,1059.0,0.25,66,91.91
7307,C4,1059.0,0.25,66,91.91
7308,G4,1059.5,0.25,74,91.91
7309,C5,1059.5,0.25,74,91.91
7310,C4,1059.5,0.25,62,91.91
7311,E4,1059.5,0.25,62,91.91
7312,E4,1060.0,0.25,78,91.91
7313,G4,1060.0,0.25,78,91.91
7314,E4,1060.0,0.25,64,91.91
7315,G4,1060.0,0.25,64,91.91
7316,C5,1060.5,0.25,74,91.91
7317,E5,1060.5,0.25,74,91.91
7318,G4,1060.5,0.25,62,91.91
7319,C5,1060.5,0.25,62,91.91
7320,G4,1061.0,0.25,80,91.91
7321,C5,1061.0,0.25,80,91.91
7322,E4,1061.0,0.25,64,91.91
7323,G4,1061.0,0.25,64,91.91
7324,E5,1061.5,0.25,74,91.91
7325,G5,1061.5,0.25,74,91.91
7326,C5,1061.5,0.25,62,91.91
7327,E5,1061.5,0.25,62,91.91
7328,C5,1062.0,0.25,80,91.91
7329,E5,1062.0,0.25,80,91.91
7330,G4,1062.0,0.25,66,91.91
7331,C5,1062.0,0.25,66,91.91
7332,C6,1062.5,0.25,74,91.91
7333,G5,1062.5,0.25,74,91.91
7334,E5,1062.5,0.25,64,91.91
7335,G5,1062.5,0.25,64,91.91
7336,E5,1063.0,0.25,80,91.91
7337,G5,1063.0,0.25,80,91.91
7338,C5,1063.0,0.25,66,91.91
7339,E5,1063.0,0.25,66,91.91
7340,E6,1063.5,0.25,76,91.91
7341,C6,1063.5,0.25,76,91.91
7342,E5,1063.5,0.25,64,91.91
7343,G5,1063.5,0.25,64,91.91
7344,C6,1064.0,0.25,80,91.91
7345,G5,1064.0,0.25,80,91.91
7346,C5,1064.0,0.25,66,91.91
7347,E5,1064.0,0.25,66,91.91
7348,G6,1064.5,0.25,76,91.91
7349,E6,1064.5,0.25,76,91.91
7350,C6,1065.0,0.25,81,91.91
7351,E6,1065.0,0.25,81,91.91
7352,G6,1065.5,0.25,76,91.91
7353,E6,1065.5,0.25,76,91.91
7354,E6,1066.0,0.25,80,91.91
7355,C6,1066.0,0.25,80,91.91
7356,E4,1066.0,0.5,53,91.91
7357,G4,1066.0,0.5,53,91.91
7358,E5,1068.0,0.5,65,91.91
7359,G5,1068.0,0.5,65,91.91
7360,C4,1068.0,0.5,48,91.91
7361,E4,1068.0,0.5,48,91.91
7362,C5,1070.0,0.5,60,91.91
7363,E5,1070.0,0.5,60,91.91
7364,E3,1070.0,0.5,44,91.91
7365,G3,1070.0,0.5,44,91.91
7366,E4,1072.0,0.5,52,91.91
7367,G4,1072.0,0.5,52,91.91
7368,C3,1072.0,0.5,38,91.91
7369,E3,1072.0,0.5,38,91.91
7370,C4,1074.0,0.5,48,91.91
7371,E4,1074.0,0.5,48,91.91
7372,E4,1074.0,0.5,31,91.91
7373,G4,1074.0,0.5,31,91.91
7374,E4,1075.0,0.5,31,91.91
7375,G4,1075.0,0.5,31,91.91
7376,E5,1076.0,0.5,40,91.91
7377,G5,1076.0,0.5,40,91.91
7378,C4,1076.0,0.5,31,91.91
7379,E4,1076.0,0.5,31,91.91
7380,E5,1077.0,0.5,40,91.91
7381,G5,1077.0,0.5,40,91.91
7382,C5,1078.0,0.5,38,91.91
7383,E5,1078.0,0.5,38,91.91
7384,C2,1078.0,0.25,72,91.91
7385,E2,1078.0,0.25,72,91.91
7386,G2,1078.0,0.25,72,91.91
7387,C3,1078.0,0.25,72,91.91
7388,C2,1079.0,0.25,72,91.91
7389,E2,1079.0,0.25,72,91.91
7390,G2,1079.0,0.25,72,91.91
7391,C3,1079.0,0.25,72,91.91
7392,G6,1080.0,0.25,93,91.91
7393,E6,1080.0,0.25,93,91.91
7394,C6,1080.0,0.25,93,91.91
7395,G5,1080.0,0.25,93,91.91
7396,C2,1080.0,0.25,72,91.91
7397,E2,1080.0,0.25,72,91.91
7398,G2,1080.0,0.25,72,91.91
7399,C3,1080.0,0.25,72,91.91
7400,G5,1081.0,0.25,93,91.91
7401,C6,1081.0,0.25,93,91.91
7402,E6,1081.0,0.25,93,91.91
7403,G6,1081.0,0.25,93,91.91
7404,E6,1082.0,0.25,93,91.91
7405,C6,1082.0,0.25,93,91.91
7406,G5,1082.0,0.25,93,91.91
7407,E5,1082.0,0.25,93,91.91
7408,C2,1082.0,0.25,72,91.91
7409,E2,1082.0,0.25,72,91.91
7410,G2,1082.0,0.25,72,91.91
7411,C3,1082.0,0.25,72,91.91
7412,E4,1084.0,0.25,93,91.91
7413,G4,1084.0,0.25,93,91.91
7414,C5,1084.0,0.25,93,91.91
7415,E5,1084.0,0.25,93,91.91
7416,C2,1084.0,0.25,72,91.91
7417,E2,1084.0,0.25,72,91.91
7418,G2,1084.0,0.25,72,91.91
7419,C3,1084.0,0.25,72,91.91
7420,C4,1086.0,0.25,93,91.91
7421,E4,1086.0,0.25,93,91.91
7422,G4,1086.0,0.25,93,91.91
7423,C5,1086.0,0.25,93,91.91
