,note_name,start_time,duration,velocity,tempo
0,E2,0.0,1.5,127,153.85
1,E2,0.0,1.5,127,153.85
2,B2,0.0,1.5,127,153.85
3,E2,0.01,1.5,127,153.85
4,B2,0.01,1.5,127,153.85
5,E2,1.5,1.5,127,153.85
6,E2,1.5,2.5,127,153.85
7,B2,1.5,2.5,127,153.85
8,E2,1.51,249/100,127,153.85
9,B2,1.51,249/100,127,153.85
10,E2,3.0,1.0,127,153.85
11,E2,3.0,1.0,100,153.85
12,B2,3.0,1.0,100,153.85
13,A3,4.0,0.5,127,153.85
14,A2,4.0,0.5,127,153.85
15,E2,4.0,4.0,100,153.85
16,B2,4.0,4.0,100,153.85
17,E2,4.0,1/100,127,153.85
18,B2,4.0,1/100,127,153.85
19,A3,4.01,0.5,127,153.85
20,B3,4.5,0.5,127,153.85
21,B2,4.5,0.5,127,153.85
22,B3,4.51,0.5,127,153.85
23,D4,5.0,0.5,127,153.85
24,D3,5.0,0.5,127,153.85
25,E2,5.0,3.0,100,153.85
26,B2,5.0,3.0,100,153.85
27,D4,5.01,0.5,127,153.85
28,E4,5.5,0.5,127,153.85
29,E3,5.5,0.5,127,153.85
30,E4,5.51,0.5,127,153.85
31,A3,6.0,0.5,127,153.85
32,A2,6.0,0.5,127,153.85
33,A3,6.01,0.5,127,153.85
34,B3,6.5,0.5,127,153.85
35,B2,6.5,0.5,127,153.85
36,B3,6.51,0.5,127,153.85
37,D4,7.0,0.5,127,153.85
38,D3,7.0,0.5,127,153.85
39,D4,7.01,0.5,127,153.85
40,E4,7.5,0.5,127,153.85
41,E3,7.5,0.5,127,153.85
42,E4,7.51,49/100,127,153.85
43,E2,8.0,1.5,127,153.85
44,E4,8.0,1/100,127,153.85
45,E2,8.0,1.5,127,153.85
46,B2,8.0,1.5,127,153.85
47,E2,8.0,4.0,100,153.85
48,B2,8.0,4.0,100,153.85
49,E2,8.01,1.5,127,153.85
50,B2,8.01,1.5,127,153.85
51,E2,9.5,1.5,127,153.85
52,E2,9.5,2.5,127,153.85
53,B2,9.5,2.5,127,153.85
54,E2,9.51,249/100,127,153.85
55,B2,9.51,249/100,127,153.85
56,E2,11.0,1.0,127,153.85
57,E2,11.0,3.0,100,153.85
58,B2,11.0,3.0,100,153.85
59,A3,12.0,0.5,127,153.85
60,A2,12.0,0.5,127,153.85
61,E2,12.01,1/100,127,153.85
62,B2,12.01,1/100,127,153.85
63,A3,12.021,0.5,127,153.85
64,B3,12.5,0.5,127,153.85
65,B2,12.5,0.5,127,153.85
66,B3,12.521,0.5,127,153.85
67,D4,13.0,0.5,127,153.85
68,D3,13.0,0.5,127,153.85
69,E2,13.0,1.0,100,153.85
70,B2,13.0,1.0,100,153.85
71,D4,13.021,0.5,127,153.85
72,E4,13.5,0.5,127,153.85
73,E3,13.5,0.5,127,153.85
74,E4,13.521,0.5,127,153.85
75,A3,14.0,0.5,127,153.85
76,A2,14.0,0.5,127,153.85
77,E2,14.0,1.0,100,153.85
78,B2,14.0,1.0,100,153.85
79,E2,14.0,3.0,100,153.85
80,B2,14.0,3.0,100,153.85
81,A3,14.021,0.5,127,153.85
82,B3,14.5,0.5,127,153.85
83,B2,14.5,0.5,127,153.85
84,B3,14.521,0.5,127,153.85
85,D4,15.0,0.5,127,153.85
86,D3,15.0,0.5,127,153.85
87,D4,15.021,0.5,127,153.85
88,E4,15.5,0.5,127,153.85
89,E3,15.5,0.5,127,153.85
90,E4,15.521,49/100,127,153.85
91,E3,16.0,3.0,127,153.85
92,C2,16.0,1.0,127,153.85
93,E2,16.0,1.5,127,153.85
94,B2,16.0,1.5,127,153.85
95,E4,16.01,1/100,127,153.85
96,E2,16.021,1.5,127,153.85
97,B2,16.021,1.5,127,153.85
98,D2,17.0,1.0,127,153.85
99,E2,17.5,2.5,127,153.85
100,B2,17.5,2.5,127,153.85
101,E2,17.521,249/100,127,153.85
102,B2,17.521,249/100,127,153.85
103,C2,18.0,1.0,127,153.85
104,D2,19.0,1.0,127,153.85
105,E2,19.0,4.0,100,153.85
106,B2,19.0,4.0,100,153.85
107,E2,19.0,1.0,127,153.85
108,B2,19.0,1.0,127,153.85
109,E2,19.0,2.0,100,153.85
110,B2,19.0,2.0,100,153.85
111,A3,20.0,0.5,127,153.85
112,C2,20.0,1.0,127,153.85
113,E2,20.021,1/100,127,153.85
114,B2,20.021,1/100,127,153.85
115,A3,20.031,0.5,127,153.85
116,B3,20.5,0.5,127,153.85
117,B3,20.531,0.5,127,153.85
118,D4,21.0,0.5,127,153.85
119,D2,21.0,1.0,127,153.85
120,E2,21.0,1.5,100,153.85
121,D4,21.031,0.5,127,153.85
122,E4,21.5,0.5,127,153.85
123,E4,21.531,0.5,127,153.85
124,A3,22.0,0.5,127,153.85
125,C2,22.0,1.0,127,153.85
126,A3,22.031,0.5,127,153.85
127,B3,22.5,0.5,127,153.85
128,E2,22.5,0.5,100,153.85
129,B3,22.531,0.5,127,153.85
130,E2,23.0,1.5,100,153.85
131,D4,23.0,0.5,127,153.85
132,D2,23.0,1.0,127,153.85
133,E2,23.0,1.0,100,153.85
134,D4,23.031,0.5,127,153.85
135,E4,23.5,0.5,127,153.85
136,E4,23.531,49/100,127,153.85
137,C2,24.0,1.0,127,153.85
138,E2,24.0,1.0,100,153.85
139,E2,24.0,1.5,127,153.85
140,B2,24.0,1.5,127,153.85
141,E4,24.021,1/100,127,153.85
142,E2,24.031,1.5,127,153.85
143,B2,24.031,1.5,127,153.85
144,E2,24.5,1.5,100,153.85
145,D2,25.0,1.0,127,153.85
146,A2,25.0,0.5,100,153.85
147,B2,25.5,0.5,100,153.85
148,E2,25.5,2.5,127,153.85
149,B2,25.5,2.5,127,153.85
150,E2,25.531,249/100,127,153.85
151,B2,25.531,249/100,127,153.85
152,E2,26.0,1.0,100,153.85
153,C2,26.0,1.0,127,153.85
154,D3,26.0,0.5,100,153.85
155,E3,26.5,0.5,100,153.85
156,A2,27.0,0.5,100,153.85
157,D2,27.0,1.0,127,153.85
158,A2,27.0,0.5,100,153.85
159,E2,27.0,4.0,127,153.85
160,B2,27.0,4.0,127,153.85
161,B2,27.5,0.5,100,153.85
162,B2,27.5,0.5,100,153.85
163,D3,28.0,0.5,100,153.85
164,A3,28.0,0.5,127,153.85
165,C2,28.0,1.0,127,153.85
166,D3,28.0,0.5,100,153.85
167,E2,28.031,1/100,127,153.85
168,B2,28.031,1/100,127,153.85
169,A3,28.042,0.5,127,153.85
170,E3,28.5,0.5,100,153.85
171,B3,28.5,0.5,127,153.85
172,E3,28.5,0.5,100,153.85
173,B3,28.542,0.5,127,153.85
174,A2,29.0,0.5,100,153.85
175,D4,29.0,0.5,127,153.85
176,D2,29.0,1.0,127,153.85
177,E2,29.0,1.5,100,153.85
178,D4,29.042,0.5,127,153.85
179,B2,29.5,0.5,100,153.85
180,E4,29.5,0.5,127,153.85
181,E4,29.542,0.5,127,153.85
182,D3,30.0,0.5,100,153.85
183,A3,30.0,0.5,127,153.85
184,D2,30.0,0.5,127,153.85
185,D2,30.0,0.5,127,153.85
186,A3,30.042,0.5,127,153.85
187,E3,30.5,0.5,100,153.85
188,B3,30.5,0.5,127,153.85
189,E2,30.5,0.5,100,153.85
190,D2,30.5,0.5,127,153.85
191,D2,30.5,0.5,127,153.85
192,B3,30.542,0.5,127,153.85
193,E2,31.0,1.5,100,153.85
194,D4,31.0,0.5,127,153.85
195,E2,31.0,1.0,100,153.85
196,D2,31.0,0.5,127,153.85
197,D2,31.0,0.5,127,153.85
198,D4,31.042,0.5,127,153.85
199,E4,31.5,0.5,127,153.85
200,D2,31.5,0.5,127,153.85
201,D2,31.5,0.5,127,153.85
202,E4,31.542,49/100,127,153.85
203,C2,32.0,1.0,127,153.85
204,D2,32.0,2.0,127,153.85
205,E2,32.0,1.0,100,153.85
206,E3,32.0,0.5,127,153.85
207,B3,32.0,0.5,127,153.85
208,E4,32.031,1/100,127,153.85
209,E3,32.042,0.5,127,153.85
210,B3,32.042,0.5,127,153.85
211,E2,32.5,1.5,100,153.85
212,E3,32.5,0.5,127,153.85
213,B3,32.5,0.5,127,153.85
214,E3,32.542,0.5,127,153.85
215,B3,32.542,0.5,127,153.85
216,D2,33.0,3.0,127,153.85
217,A2,33.0,0.5,100,153.85
218,E3,33.0,0.5,127,153.85
219,B3,33.0,0.5,127,153.85
220,E3,33.042,0.5,127,153.85
221,B3,33.042,0.5,127,153.85
222,B2,33.5,0.5,100,153.85
223,E3,33.5,0.5,127,153.85
224,B3,33.5,0.5,127,153.85
225,E3,33.542,0.5,127,153.85
226,B3,33.542,0.5,127,153.85
227,E2,34.0,1.0,100,153.85
228,C2,34.0,1.0,127,153.85
229,D3,34.0,0.5,100,153.85
230,E3,34.0,0.5,127,153.85
231,B3,34.0,0.5,127,153.85
232,E2,34.0,3.0,127,153.85
233,B2,34.0,3.0,127,153.85
234,E3,34.042,0.5,127,153.85
235,B3,34.042,0.5,127,153.85
236,E3,34.5,0.5,100,153.85
237,E3,34.5,0.5,127,153.85
238,B3,34.5,0.5,127,153.85
239,E3,34.542,0.5,127,153.85
240,B3,34.542,0.5,127,153.85
241,A2,35.0,0.5,100,153.85
242,D2,35.0,1.0,127,153.85
243,A2,35.0,0.5,100,153.85
244,E3,35.0,0.5,127,153.85
245,B3,35.0,0.5,127,153.85
246,E3,35.042,0.5,127,153.85
247,B3,35.042,0.5,127,153.85
248,B2,35.5,0.5,100,153.85
249,B2,35.5,0.5,100,153.85
250,E3,35.5,0.5,127,153.85
251,B3,35.5,0.5,127,153.85
252,E3,35.542,49/100,127,153.85
253,B3,35.542,49/100,127,153.85
254,D3,36.0,0.5,100,153.85
255,C2,36.0,1.0,127,153.85
256,D2,36.0,2.0,127,153.85
257,D3,36.0,0.5,100,153.85
258,E3,36.0,0.5,127,153.85
259,B3,36.0,0.5,127,153.85
260,E3,36.042,1/100,127,153.85
261,B3,36.042,1/100,127,153.85
262,E3,36.052,0.5,127,153.85
263,B3,36.052,0.5,127,153.85
264,E3,36.5,0.5,100,153.85
265,E3,36.5,0.5,100,153.85
266,E3,36.5,0.5,127,153.85
267,B3,36.5,0.5,127,153.85
268,E3,36.552,0.5,127,153.85
269,B3,36.552,0.5,127,153.85
270,A2,37.0,0.5,100,153.85
271,D2,37.0,3.0,127,153.85
272,E2,37.0,0.5,100,153.85
273,E3,37.0,0.5,127,153.85
274,B3,37.0,0.5,127,153.85
275,E2,37.0,1.0,127,153.85
276,B2,37.0,1.0,127,153.85
277,E3,37.052,0.5,127,153.85
278,B3,37.052,0.5,127,153.85
279,B2,37.5,0.5,100,153.85
280,E2,37.5,0.5,100,153.85
281,E3,37.5,0.5,127,153.85
282,B3,37.5,0.5,127,153.85
283,E3,37.552,0.5,127,153.85
284,B3,37.552,0.5,127,153.85
285,D3,38.0,0.5,100,153.85
286,C2,38.0,0.5,127,153.85
287,E2,38.0,0.5,100,153.85
288,E3,38.0,0.5,127,153.85
289,B3,38.0,0.5,127,153.85
290,E3,38.052,0.5,127,153.85
291,B3,38.052,0.5,127,153.85
292,E3,38.5,0.5,100,153.85
293,C2,38.5,0.5,127,153.85
294,E2,38.5,0.5,100,153.85
295,E3,38.5,0.5,127,153.85
296,B3,38.5,0.5,127,153.85
297,E3,38.552,0.5,127,153.85
298,B3,38.552,0.5,127,153.85
299,E2,39.0,0.5,100,153.85
300,D2,39.0,1.0,127,153.85
301,E2,39.0,0.5,100,153.85
302,E3,39.0,0.5,127,153.85
303,B3,39.0,0.5,127,153.85
304,E3,39.052,0.5,127,153.85
305,B3,39.052,0.5,127,153.85
306,E2,39.5,0.5,100,153.85
307,E2,39.5,0.5,100,153.85
308,E3,39.5,0.5,127,153.85
309,B3,39.5,0.5,127,153.85
310,E3,39.552,49/100,127,153.85
311,B3,39.552,49/100,127,153.85
312,E2,40.0,0.5,100,153.85
313,C#3,40.0,4.0,127,153.85
314,C2,40.0,1.0,127,153.85
315,E2,40.0,0.5,100,153.85
316,D3,40.0,0.5,127,153.85
317,A3,40.0,0.5,127,153.85
318,E2,40.0,2.0,127,153.85
319,B2,40.0,2.0,127,153.85
320,E3,40.052,1/100,127,153.85
321,B3,40.052,1/100,127,153.85
322,D3,40.062,0.5,127,153.85
323,A3,40.062,0.5,127,153.85
324,E2,40.5,0.5,100,153.85
325,E2,40.5,0.5,100,153.85
326,D3,40.5,0.5,127,153.85
327,A3,40.5,0.5,127,153.85
328,D3,40.562,0.5,127,153.85
329,A3,40.562,0.5,127,153.85
330,E2,41.0,0.5,100,153.85
331,D2,41.0,1.0,127,153.85
332,E2,41.0,0.5,100,153.85
333,D3,41.0,0.5,127,153.85
334,A3,41.0,0.5,127,153.85
335,D3,41.062,0.5,127,153.85
336,A3,41.062,0.5,127,153.85
337,E2,41.5,0.5,100,153.85
338,E2,41.5,0.5,100,153.85
339,D3,41.5,0.5,127,153.85
340,A3,41.5,0.5,127,153.85
341,D3,41.562,0.5,127,153.85
342,A3,41.562,0.5,127,153.85
343,E2,42.0,0.5,100,153.85
344,C2,42.0,0.5,127,153.85
345,E2,42.0,0.5,100,153.85
346,D3,42.0,0.5,127,153.85
347,A3,42.0,0.5,127,153.85
348,D3,42.062,0.5,127,153.85
349,A3,42.062,0.5,127,153.85
350,E2,42.5,0.5,100,153.85
351,C2,42.5,0.5,127,153.85
352,E2,42.5,0.5,100,153.85
353,D3,42.5,0.5,127,153.85
354,A3,42.5,0.5,127,153.85
355,D3,42.562,0.5,127,153.85
356,A3,42.562,0.5,127,153.85
357,E2,43.0,0.5,100,153.85
358,D2,43.0,1.0,127,153.85
359,A2,43.0,0.5,100,153.85
360,D3,43.0,0.5,127,153.85
361,A3,43.0,0.5,127,153.85
362,D3,43.062,0.5,127,153.85
363,A3,43.062,0.5,127,153.85
364,E2,43.5,0.5,100,153.85
365,B2,43.5,0.5,100,153.85
366,D3,43.5,0.5,127,153.85
367,A3,43.5,0.5,127,153.85
368,D3,43.562,49/100,127,153.85
369,A3,43.562,49/100,127,153.85
370,E2,44.0,0.5,100,153.85
371,D2,44.0,0.5,100,153.85
372,G2,44.0,0.5,127,153.85
373,D3,44.0,0.5,127,153.85
374,C#3,44.0,0.5,127,153.85
375,C2,44.0,0.5,127,153.85
376,D3,44.062,1/100,127,153.85
377,A3,44.062,1/100,127,153.85
378,G2,44.073,0.5,127,153.85
379,D3,44.073,0.5,127,153.85
380,E2,44.5,0.5,100,153.85
381,E3,44.5,0.5,100,153.85
382,D2,44.5,1.25,127,153.85
383,A2,44.5,1.25,127,153.85
384,C#3,44.5,1.25,127,153.85
385,D2,44.5,1.25,127,153.85
386,D2,44.573,1.25,127,153.85
387,A2,44.573,1.25,127,153.85
388,A2,45.0,0.5,100,153.85
389,D3,45.0,0.5,100,153.85
390,B2,45.5,0.5,100,153.85
391,D3,45.5,0.5,100,153.85
392,C#3,45.75,2.0,127,153.85
393,D2,45.75,1.0,127,153.85
394,E2,45.75,1.0,127,153.85
395,B2,45.75,1.0,127,153.85
396,E2,45.823,1.0,127,153.85
397,B2,45.823,1.0,127,153.85
398,D2,46.0,0.5,100,153.85
399,D3,46.0,0.5,100,153.85
400,E3,46.5,0.5,100,153.85
401,D3,46.5,0.5,100,153.85
402,D2,46.75,1.0,127,153.85
403,G3,46.75,1.0,127,153.85
404,D4,46.75,1.0,127,153.85
405,G3,46.823,1.0,127,153.85
406,D4,46.823,1.0,127,153.85
407,D3,47.0,0.5,100,153.85
408,D3,47.0,0.5,100,153.85
409,D3,47.5,0.5,100,153.85
410,D3,47.5,0.5,100,153.85
411,C2,47.75,0.25,127,153.85
412,E3,47.75,0.25,127,153.85
413,B3,47.75,0.25,127,153.85
414,E3,47.823,6/25,127,153.85
415,B3,47.823,6/25,127,153.85
416,D3,48.0,0.5,100,153.85
417,C2,48.0,0.75,127,153.85
418,D3,48.0,0.5,100,153.85
419,E3,48.25,0.25,127,153.85
420,B3,48.25,0.25,127,153.85
421,E3,48.323,13/50,127,153.85
422,B3,48.323,13/50,127,153.85
423,D3,48.5,0.5,100,153.85
424,D3,48.5,0.5,100,153.85
425,E3,48.5,0.5,127,153.85
426,B3,48.5,0.5,127,153.85
427,E3,48.583,0.5,127,153.85
428,B3,48.583,0.5,127,153.85
429,D2,48.75,1.0,127,153.85
430,D3,49.0,0.5,100,153.85
431,G3,49.0,0.5,100,153.85
432,E3,49.0,0.5,127,153.85
433,B3,49.0,0.5,127,153.85
434,E3,49.083,0.5,127,153.85
435,B3,49.083,0.5,127,153.85
436,D3,49.5,0.5,100,153.85
437,D3,49.5,1.25,100,153.85
438,E3,49.5,0.5,127,153.85
439,B3,49.5,0.5,127,153.85
440,E3,49.583,0.5,127,153.85
441,B3,49.583,0.5,127,153.85
442,C2,49.75,1.0,127,153.85
443,D3,50.0,0.5,100,153.85
444,E3,50.0,0.5,127,153.85
445,B3,50.0,0.5,127,153.85
446,E3,50.083,0.5,127,153.85
447,B3,50.083,0.5,127,153.85
448,D3,50.5,0.5,100,153.85
449,E3,50.5,0.5,127,153.85
450,B3,50.5,0.5,127,153.85
451,E3,50.583,0.5,127,153.85
452,B3,50.583,0.5,127,153.85
453,D2,50.75,1.0,127,153.85
454,E3,50.75,0.25,100,153.85
455,G3,51.0,0.5,100,153.85
456,E3,51.0,0.75,100,153.85
457,E3,51.0,0.5,127,153.85
458,B3,51.0,0.5,127,153.85
459,E3,51.083,0.5,127,153.85
460,B3,51.083,0.5,127,153.85
461,D3,51.5,1.25,100,153.85
462,E3,51.5,0.5,127,153.85
463,B3,51.5,0.5,127,153.85
464,E3,51.583,0.5,127,153.85
465,B3,51.583,0.5,127,153.85
466,C2,51.75,0.25,127,153.85
467,G3,51.75,1.0,100,153.85
468,C2,52.0,0.75,127,153.85
469,E3,52.0,0.25,127,153.85
470,B3,52.0,0.25,127,153.85
471,E3,52.083,6/25,127,153.85
472,B3,52.083,6/25,127,153.85
473,E3,52.5,0.25,127,153.85
474,B3,52.5,0.25,127,153.85
475,E3,52.583,13/50,127,153.85
476,B3,52.583,13/50,127,153.85
477,E3,52.75,1.0,100,153.85
478,D2,52.75,1.0,127,153.85
479,E2,52.75,0.5,100,153.85
480,E3,52.75,0.5,127,153.85
481,B3,52.75,0.5,127,153.85
482,E3,52.844,0.5,127,153.85
483,B3,52.844,0.5,127,153.85
484,E2,53.25,0.5,100,153.85
485,E3,53.25,0.5,127,153.85
486,B3,53.25,0.5,127,153.85
487,E3,53.344,0.5,127,153.85
488,B3,53.344,0.5,127,153.85
489,G3,53.75,1.0,100,153.85
490,C2,53.75,0.5,127,153.85
491,E2,53.75,0.5,100,153.85
492,E3,53.75,0.5,127,153.85
493,B3,53.75,0.5,127,153.85
494,E3,53.844,0.5,127,153.85
495,B3,53.844,0.5,127,153.85
496,C2,54.25,0.5,127,153.85
497,E2,54.25,0.5,100,153.85
498,E3,54.25,0.5,127,153.85
499,B3,54.25,0.5,127,153.85
500,E3,54.344,0.5,127,153.85
501,B3,54.344,0.5,127,153.85
502,E2,54.75,0.25,100,153.85
503,D2,54.75,0.5,127,153.85
504,D2,54.75,1.0,127,153.85
505,E2,54.75,0.25,100,153.85
506,E3,54.75,0.5,127,153.85
507,B3,54.75,0.5,127,153.85
508,E3,54.844,0.5,127,153.85
509,B3,54.844,0.5,127,153.85
510,E2,55.0,0.25,100,153.85
511,E2,55.0,0.25,100,153.85
512,E2,55.25,0.5,100,153.85
513,D2,55.25,0.5,127,153.85
514,E2,55.25,0.5,100,153.85
515,E3,55.25,0.5,127,153.85
516,B3,55.25,0.5,127,153.85
517,E3,55.344,0.5,127,153.85
518,B3,55.344,0.5,127,153.85
519,E2,55.75,0.5,100,153.85
520,C#3,55.75,0.25,127,153.85
521,C2,55.75,0.25,127,153.85
522,E2,55.75,0.5,100,153.85
523,E3,55.75,0.5,127,153.85
524,B3,55.75,0.5,127,153.85
525,E3,55.844,0.5,127,153.85
526,B3,55.844,0.5,127,153.85
527,C#3,56.0,4.0,127,153.85
528,C2,56.0,0.75,127,153.85
529,E2,56.25,0.5,100,153.85
530,E2,56.25,0.5,100,153.85
531,D3,56.25,0.25,127,153.85
532,A3,56.25,0.25,127,153.85
533,D3,56.344,6/25,127,153.85
534,A3,56.344,6/25,127,153.85
535,E2,56.75,0.5,100,153.85
536,D2,56.75,1.0,127,153.85
537,E2,56.75,0.5,100,153.85
538,D3,56.75,0.25,127,153.85
539,A3,56.75,0.25,127,153.85
540,D3,56.844,13/50,127,153.85
541,A3,56.844,13/50,127,153.85
542,D3,57.0,0.5,127,153.85
543,A3,57.0,0.5,127,153.85
544,D3,57.104,0.5,127,153.85
545,A3,57.104,0.5,127,153.85
546,E2,57.25,0.5,100,153.85
547,E2,57.25,0.5,100,153.85
548,D3,57.5,0.5,127,153.85
549,A3,57.5,0.5,127,153.85
550,D3,57.604,0.5,127,153.85
551,A3,57.604,0.5,127,153.85
552,E2,57.75,0.5,100,153.85
553,C2,57.75,0.5,127,153.85
554,E2,57.75,0.5,100,153.85
555,D3,58.0,0.5,127,153.85
556,A3,58.0,0.5,127,153.85
557,D3,58.104,0.5,127,153.85
558,A3,58.104,0.5,127,153.85
559,E2,58.25,0.5,100,153.85
560,C2,58.25,0.5,127,153.85
561,E2,58.25,0.5,100,153.85
562,D3,58.5,0.5,127,153.85
563,A3,58.5,0.5,127,153.85
564,D3,58.604,0.5,127,153.85
565,A3,58.604,0.5,127,153.85
566,E2,58.75,0.25,100,153.85
567,D2,58.75,1.0,127,153.85
568,A2,58.75,0.25,100,153.85
569,E2,59.0,0.25,100,153.85
570,A2,59.0,0.25,100,153.85
571,D3,59.0,0.5,127,153.85
572,A3,59.0,0.5,127,153.85
573,D3,59.104,0.5,127,153.85
574,A3,59.104,0.5,127,153.85
575,E2,59.25,0.5,100,153.85
576,B2,59.25,0.5,100,153.85
577,D3,59.5,0.5,127,153.85
578,A3,59.5,0.5,127,153.85
579,D3,59.604,0.5,127,153.85
580,A3,59.604,0.5,127,153.85
581,E2,59.75,0.5,100,153.85
582,C2,59.75,0.25,127,153.85
583,D2,59.75,0.5,100,153.85
584,E2,59.75,0.25,127,153.85
585,B2,59.75,0.25,127,153.85
586,C#3,60.0,2.75,127,153.85
587,C2,60.0,0.25,127,153.85
588,D3,60.0,0.5,127,153.85
589,A3,60.0,0.5,127,153.85
590,E2,60.0,4.0,127,153.85
591,B2,60.0,4.0,127,153.85
592,D3,60.104,0.5,127,153.85
593,A3,60.104,0.5,127,153.85
594,E2,60.25,0.5,100,153.85
595,D2,60.25,1.25,127,153.85
596,E3,60.25,0.5,100,153.85
597,G2,60.5,0.25,127,153.85
598,D3,60.5,0.25,127,153.85
599,G2,60.604,6/25,127,153.85
600,D3,60.604,6/25,127,153.85
601,A2,60.75,0.5,100,153.85
602,D3,60.75,0.5,100,153.85
603,G2,61.0,0.25,127,153.85
604,D3,61.0,0.25,127,153.85
605,G2,61.104,13/50,127,153.85
606,D3,61.104,13/50,127,153.85
607,B2,61.25,0.5,100,153.85
608,D3,61.25,0.5,100,153.85
609,D2,61.25,1.25,127,153.85
610,A2,61.25,1.25,127,153.85
611,D2,61.365,1.25,127,153.85
612,A2,61.365,1.25,127,153.85
613,D2,61.5,1.0,127,153.85
614,D2,61.75,0.5,100,153.85
615,D3,61.75,0.5,100,153.85
616,E3,62.25,0.5,100,153.85
617,D3,62.25,0.5,100,153.85
618,D2,62.5,0.75,127,153.85
619,E2,62.5,1.0,127,153.85
620,B2,62.5,1.0,127,153.85
621,E2,62.615,1.0,127,153.85
622,B2,62.615,1.0,127,153.85
623,D3,62.75,0.25,100,153.85
624,D2,62.75,0.5,127,153.85
625,D3,62.75,0.25,100,153.85
626,D3,63.0,0.25,100,153.85
627,D3,63.0,0.25,100,153.85
628,D3,63.25,0.5,100,153.85
629,D3,63.25,0.5,100,153.85
630,D2,63.25,0.25,127,153.85
631,D2,63.25,0.25,127,153.85
632,C2,63.5,0.5,127,153.85
633,G3,63.5,1.0,127,153.85
634,D4,63.5,1.0,127,153.85
635,G3,63.615,1.0,127,153.85
636,D4,63.615,1.0,127,153.85
637,D3,63.75,0.5,100,153.85
638,D3,63.75,0.5,100,153.85
639,C2,64.0,0.5,127,153.85
640,D3,64.25,0.5,100,153.85
641,D3,64.25,0.5,100,153.85
642,E2,64.5,0.5,127,153.85
643,D2,64.5,1.0,127,153.85
644,E2,64.615,49/100,127,153.85
645,D3,64.75,0.5,100,153.85
646,G3,64.75,0.5,100,153.85
647,E2,65.0,0.5,127,153.85
648,E2,65.104,1/100,127,153.85
649,E2,65.115,0.5,127,153.85
650,D3,65.25,0.5,100,153.85
651,D3,65.25,1.25,100,153.85
652,E2,65.5,0.5,127,153.85
653,C2,65.5,0.5,127,153.85
654,E2,65.615,0.5,127,153.85
655,D3,65.75,0.5,100,153.85
656,E2,66.0,0.5,127,153.85
657,C2,66.0,0.5,127,153.85
658,E2,66.115,0.5,127,153.85
659,D3,66.25,0.5,100,153.85
660,E2,66.5,0.5,127,153.85
661,D2,66.5,1.0,127,153.85
662,E3,66.5,0.5,100,153.85
663,E2,66.615,0.5,127,153.85
664,G3,66.75,0.25,100,153.85
665,E2,66.75,2.75,127,153.85
666,B2,66.75,2.75,127,153.85
667,G3,67.0,0.25,100,153.85
668,E2,67.0,0.5,127,153.85
669,E3,67.0,0.5,100,153.85
670,E2,67.115,0.5,127,153.85
671,D3,67.25,1.25,100,153.85
672,E2,67.5,0.5,127,153.85
673,C2,67.5,0.5,127,153.85
674,G3,67.5,1.0,100,153.85
675,E2,67.615,0.5,127,153.85
676,E2,68.0,0.5,127,153.85
677,C2,68.0,0.5,127,153.85
678,E2,68.115,0.5,127,153.85
679,E3,68.5,1.0,100,153.85
680,C2,68.5,0.5,127,153.85
681,D2,68.5,1.0,127,153.85
682,E2,68.5,2.5,100,153.85
683,B2,68.5,2.5,100,153.85
684,C2,68.615,49/100,127,153.85
685,C2,69.0,0.5,127,153.85
686,C2,69.104,1/100,127,153.85
687,C2,69.115,0.5,127,153.85
688,G3,69.5,1.0,100,153.85
689,C2,69.5,0.5,127,153.85
690,C2,69.5,0.5,127,153.85
691,C2,69.615,0.5,127,153.85
692,C2,70.0,0.5,127,153.85
693,C2,70.0,0.5,127,153.85
694,C2,70.115,0.5,127,153.85
695,D3,70.5,0.5,127,153.85
696,D2,70.5,1.0,127,153.85
697,E2,70.5,0.5,100,153.85
698,B2,70.5,0.5,100,153.85
699,D3,70.615,0.5,127,153.85
700,D3,71.0,0.5,127,153.85
701,D3,71.115,0.5,127,153.85
702,D3,71.5,0.5,127,153.85
703,C2,71.5,0.5,127,153.85
704,D3,71.615,0.5,127,153.85
705,D3,72.0,0.5,127,153.85
706,C2,72.0,0.5,127,153.85
707,D3,72.115,0.5,127,153.85
708,E2,72.5,0.5,127,153.85
709,D2,72.5,1.0,127,153.85
710,E2,72.5,1.5,100,153.85
711,B2,72.5,1.5,100,153.85
712,E2,72.615,49/100,127,153.85
713,E2,73.0,0.5,127,153.85
714,E2,73.104,1/100,127,153.85
715,E2,73.115,0.5,127,153.85
716,E2,73.5,0.5,127,153.85
717,C2,73.5,0.5,127,153.85
718,E2,73.615,0.5,127,153.85
719,E2,74.0,0.5,127,153.85
720,C2,74.0,0.5,127,153.85
721,C2,74.0,2.0,100,153.85
722,G2,74.0,2.0,100,153.85
723,E2,74.115,0.5,127,153.85
724,E2,74.5,0.5,127,153.85
725,D2,74.5,1.0,127,153.85
726,E2,74.5,3.5,100,153.85
727,B2,74.5,3.5,100,153.85
728,E2,74.615,0.5,127,153.85
729,E2,75.0,0.5,127,153.85
730,E2,75.115,0.5,127,153.85
731,E2,75.5,0.5,127,153.85
732,C2,75.5,0.5,127,153.85
733,E2,75.615,0.5,127,153.85
734,E2,76.0,0.5,127,153.85
735,C2,76.0,0.5,127,153.85
736,D2,76.0,0.5,100,153.85
737,A2,76.0,0.5,100,153.85
738,E2,76.115,0.5,127,153.85
739,E2,76.5,0.5,127,153.85
740,D2,76.5,1.0,127,153.85
741,E2,76.615,49/100,127,153.85
742,E2,77.0,0.5,127,153.85
743,E2,77.104,1/100,127,153.85
744,E2,77.115,0.5,127,153.85
745,E2,77.5,0.5,127,153.85
746,D2,77.5,0.5,127,153.85
747,E2,77.615,0.5,127,153.85
748,E2,78.0,0.5,127,153.85
749,D2,78.0,0.5,127,153.85
750,C2,78.0,0.5,100,153.85
751,G2,78.0,0.5,100,153.85
752,D2,78.0,1.5,100,153.85
753,A2,78.0,1.5,100,153.85
754,E2,78.115,0.5,127,153.85
755,E2,78.25,0.5,127,153.85
756,B2,78.25,0.5,127,153.85
757,A2,78.5,0.5,127,153.85
758,D2,78.5,0.5,127,153.85
759,A2,78.615,0.5,127,153.85
760,E2,78.75,3.5,127,153.85
761,B2,78.75,3.5,127,153.85
762,B2,79.0,0.5,127,153.85
763,D2,79.0,0.5,127,153.85
764,B2,79.115,0.5,127,153.85
765,D2,79.5,0.5,127,153.85
766,C2,79.5,0.5,127,153.85
767,E3,79.5,0.5,100,153.85
768,B3,79.5,0.5,100,153.85
769,D2,79.615,0.5,127,153.85
770,E2,80.0,0.5,127,153.85
771,C2,80.0,0.5,127,153.85
772,C2,80.0,1.5,100,153.85
773,G2,80.0,1.5,100,153.85
774,E3,80.0,0.5,100,153.85
775,B3,80.0,0.5,100,153.85
776,E2,80.115,0.5,127,153.85
777,E2,80.5,0.5,127,153.85
778,D2,80.5,1.0,127,153.85
779,E3,80.5,0.5,100,153.85
780,B3,80.5,0.5,100,153.85
781,E2,80.615,49/100,127,153.85
782,E2,81.0,0.5,127,153.85
783,E3,81.0,0.5,100,153.85
784,B3,81.0,0.5,100,153.85
785,E2,81.104,1/100,127,153.85
786,E2,81.115,0.5,127,153.85
787,E2,81.5,0.5,127,153.85
788,C2,81.5,0.5,127,153.85
789,D2,81.5,2.0,100,153.85
790,A2,81.5,2.0,100,153.85
791,E3,81.5,0.5,100,153.85
792,B3,81.5,0.5,100,153.85
793,E2,81.615,0.5,127,153.85
794,E2,82.0,0.5,127,153.85
795,C2,82.0,0.5,127,153.85
796,E3,82.0,0.5,100,153.85
797,B3,82.0,0.5,100,153.85
798,E2,82.115,0.5,127,153.85
799,E2,82.25,0.5,127,153.85
800,B2,82.25,0.5,127,153.85
801,E2,82.5,0.5,127,153.85
802,D2,82.5,1.0,127,153.85
803,E3,82.5,0.5,100,153.85
804,B3,82.5,0.5,100,153.85
805,E2,82.615,0.5,127,153.85
806,E2,83.0,0.5,127,153.85
807,E3,83.0,0.5,100,153.85
808,B3,83.0,0.5,100,153.85
809,E2,83.115,0.5,127,153.85
810,E2,83.5,0.5,127,153.85
811,C2,83.5,0.5,127,153.85
812,E3,83.5,0.5,100,153.85
813,B3,83.5,0.5,100,153.85
814,E3,83.5,0.5,100,153.85
815,B3,83.5,0.5,100,153.85
816,E2,83.615,0.5,127,153.85
817,E2,84.0,0.5,127,153.85
818,C2,84.0,0.5,127,153.85
819,E3,84.0,0.5,100,153.85
820,B3,84.0,0.5,100,153.85
821,E3,84.0,0.5,100,153.85
822,B3,84.0,0.5,100,153.85
823,E2,84.115,0.5,127,153.85
824,E2,84.25,1.5,127,153.85
825,B2,84.25,1.5,127,153.85
826,C2,84.5,0.5,127,153.85
827,D2,84.5,1.0,127,153.85
828,E3,84.5,0.5,100,153.85
829,B3,84.5,0.5,100,153.85
830,E3,84.5,0.5,100,153.85
831,B3,84.5,0.5,100,153.85
832,C2,84.615,49/100,127,153.85
833,C2,85.0,0.5,127,153.85
834,E3,85.0,0.5,100,153.85
835,B3,85.0,0.5,100,153.85
836,E3,85.0,0.5,100,153.85
837,B3,85.0,0.5,100,153.85
838,C2,85.104,1/100,127,153.85
839,C2,85.115,0.5,127,153.85
840,C2,85.5,0.5,127,153.85
841,C2,85.5,0.5,127,153.85
842,E3,85.5,0.5,100,153.85
843,B3,85.5,0.5,100,153.85
844,E3,85.5,0.5,100,153.85
845,B3,85.5,0.5,100,153.85
846,C2,85.615,0.5,127,153.85
847,E2,85.75,2.5,127,153.85
848,B2,85.75,2.5,127,153.85
849,C2,86.0,0.5,127,153.85
850,C2,86.0,0.5,127,153.85
851,E3,86.0,0.5,100,153.85
852,B3,86.0,0.5,100,153.85
853,E3,86.0,0.5,100,153.85
854,B3,86.0,0.5,100,153.85
855,C2,86.115,0.5,127,153.85
856,D3,86.5,0.5,127,153.85
857,D2,86.5,1.0,127,153.85
858,E3,86.5,0.5,100,153.85
859,B3,86.5,0.5,100,153.85
860,E3,86.5,0.5,100,153.85
861,B3,86.5,0.5,100,153.85
862,D3,86.615,0.5,127,153.85
863,D3,87.0,0.5,127,153.85
864,E3,87.0,0.5,100,153.85
865,B3,87.0,0.5,100,153.85
866,E3,87.0,0.5,100,153.85
867,B3,87.0,0.5,100,153.85
868,D3,87.115,0.5,127,153.85
869,D3,87.5,0.5,127,153.85
870,C2,87.5,0.5,127,153.85
871,E3,87.5,0.5,100,153.85
872,B3,87.5,0.5,100,153.85
873,E2,87.5,2.5,100,153.85
874,B2,87.5,2.5,100,153.85
875,D3,87.615,0.5,127,153.85
876,D3,88.0,0.5,127,153.85
877,C2,88.0,0.5,127,153.85
878,E3,88.0,0.5,100,153.85
879,B3,88.0,0.5,100,153.85
880,D3,88.115,0.5,127,153.85
881,E2,88.5,0.5,127,153.85
882,D2,88.5,1.0,127,153.85
883,E3,88.5,0.5,100,153.85
884,B3,88.5,0.5,100,153.85
885,E2,88.615,49/100,127,153.85
886,E2,89.0,0.5,127,153.85
887,E3,89.0,0.5,100,153.85
888,B3,89.0,0.5,100,153.85
889,E2,89.104,1/100,127,153.85
890,E2,89.115,0.5,127,153.85
891,E2,89.5,0.5,127,153.85
892,C2,89.5,0.5,127,153.85
893,E3,89.5,0.5,100,153.85
894,B3,89.5,0.5,100,153.85
895,E2,89.615,0.5,127,153.85
896,E2,90.0,0.5,127,153.85
897,C2,90.0,0.5,127,153.85
898,E3,90.0,0.5,100,153.85
899,B3,90.0,0.5,100,153.85
900,E2,90.115,0.5,127,153.85
901,E2,90.5,0.5,127,153.85
902,D2,90.5,1.0,127,153.85
903,E3,90.5,0.5,100,153.85
904,B3,90.5,0.5,100,153.85
905,E2,90.615,0.5,127,153.85
906,E2,91.0,0.5,127,153.85
907,E3,91.0,0.5,100,153.85
908,B3,91.0,0.5,100,153.85
909,E2,91.115,0.5,127,153.85
910,E2,91.5,0.5,127,153.85
911,C2,91.5,0.5,127,153.85
912,E2,91.5,0.5,100,153.85
913,B2,91.5,0.5,100,153.85
914,E2,91.5,1.5,100,153.85
915,B2,91.5,1.5,100,153.85
916,E2,91.615,0.5,127,153.85
917,E2,92.0,0.5,127,153.85
918,C2,92.0,0.5,127,153.85
919,E2,92.115,0.5,127,153.85
920,E2,92.5,0.5,127,153.85
921,D2,92.5,1.0,127,153.85
922,E2,92.615,49/100,127,153.85
923,E2,93.0,0.5,127,153.85
924,C2,93.0,2.0,100,153.85
925,G2,93.0,2.0,100,153.85
926,E2,93.104,1/100,127,153.85
927,E2,93.115,0.5,127,153.85
928,E2,93.5,0.5,127,153.85
929,D2,93.5,0.5,127,153.85
930,E2,93.615,0.5,127,153.85
931,E2,94.0,0.5,127,153.85
932,D2,94.0,0.5,127,153.85
933,E2,94.115,0.5,127,153.85
934,A2,94.5,0.5,127,153.85
935,D2,94.5,0.5,127,153.85
936,A2,94.615,0.5,127,153.85
937,B2,95.0,0.5,127,153.85
938,D2,95.0,0.5,127,153.85
939,D2,95.0,0.5,100,153.85
940,A2,95.0,0.5,100,153.85
941,B2,95.115,0.5,127,153.85
942,D2,95.5,0.5,127,153.85
943,C2,95.5,0.5,127,153.85
944,E2,95.5,3.5,100,153.85
945,B2,95.5,3.5,100,153.85
946,D2,95.615,0.5,127,153.85
947,E2,95.75,4.0,127,153.85
948,B2,95.75,4.0,127,153.85
949,E2,96.0,0.5,127,153.85
950,C2,96.0,0.5,127,153.85
951,E2,96.115,0.5,127,153.85
952,D2,96.5,1.0,127,153.85
953,E3,96.5,0.5,127,153.85
954,B3,96.5,0.5,127,153.85
955,E3,96.615,49/100,127,153.85
956,B3,96.615,49/100,127,153.85
957,E3,97.0,0.5,127,153.85
958,B3,97.0,0.5,127,153.85
959,D2,97.0,1.5,100,153.85
960,A2,97.0,1.5,100,153.85
961,E3,97.115,1/100,127,153.85
962,B3,97.115,1/100,127,153.85
963,E3,97.125,0.5,127,153.85
964,B3,97.125,0.5,127,153.85
965,C2,97.5,1.0,127,153.85
966,E3,97.5,0.5,127,153.85
967,B3,97.5,0.5,127,153.85
968,E3,97.625,0.5,127,153.85
969,B3,97.625,0.5,127,153.85
970,E3,98.0,0.5,127,153.85
971,B3,98.0,0.5,127,153.85
972,E3,98.125,0.5,127,153.85
973,B3,98.125,0.5,127,153.85
974,D2,98.5,1.0,127,153.85
975,E3,98.5,0.5,127,153.85
976,B3,98.5,0.5,127,153.85
977,E3,98.5,0.5,100,153.85
978,B3,98.5,0.5,100,153.85
979,E3,98.625,0.5,127,153.85
980,B3,98.625,0.5,127,153.85
981,C2,99.0,0.5,100,153.85
982,G2,99.0,0.5,100,153.85
983,E3,99.0,0.5,127,153.85
984,B3,99.0,0.5,127,153.85
985,E3,99.0,0.5,100,153.85
986,B3,99.0,0.5,100,153.85
987,E3,99.125,0.5,127,153.85
988,B3,99.125,0.5,127,153.85
989,C2,99.5,0.5,127,153.85
990,E3,99.5,0.5,127,153.85
991,B3,99.5,0.5,127,153.85
992,E3,99.5,0.5,100,153.85
993,B3,99.5,0.5,100,153.85
994,E3,99.625,0.5,127,153.85
995,B3,99.625,0.5,127,153.85
996,C2,100.0,0.5,127,153.85
997,E3,100.0,0.5,127,153.85
998,B3,100.0,0.5,127,153.85
999,E3,100.0,0.5,100,153.85
1000,B3,100.0,0.5,100,153.85
1001,E3,100.125,0.5,127,153.85
1002,B3,100.125,0.5,127,153.85
1003,D2,100.5,1.0,127,153.85
1004,E3,100.5,0.5,127,153.85
1005,B3,100.5,0.5,127,153.85
1006,E3,100.5,0.5,100,153.85
1007,B3,100.5,0.5,100,153.85
1008,E3,100.625,49/100,127,153.85
1009,B3,100.625,49/100,127,153.85
1010,C2,101.0,1.5,100,153.85
1011,G2,101.0,1.5,100,153.85
1012,E3,101.0,0.5,127,153.85
1013,B3,101.0,0.5,127,153.85
1014,E3,101.0,0.5,100,153.85
1015,B3,101.0,0.5,100,153.85
1016,E3,101.125,1/100,127,153.85
1017,B3,101.125,1/100,127,153.85
1018,E3,101.135,0.5,127,153.85
1019,B3,101.135,0.5,127,153.85
1020,C2,101.5,0.5,127,153.85
1021,E3,101.5,0.5,127,153.85
1022,B3,101.5,0.5,127,153.85
1023,E3,101.5,0.5,100,153.85
1024,B3,101.5,0.5,100,153.85
1025,E3,101.635,0.5,127,153.85
1026,B3,101.635,0.5,127,153.85
1027,C2,102.0,0.5,127,153.85
1028,E3,102.0,0.5,127,153.85
1029,B3,102.0,0.5,127,153.85
1030,E3,102.0,0.5,100,153.85
1031,B3,102.0,0.5,100,153.85
1032,E3,102.135,0.5,127,153.85
1033,B3,102.135,0.5,127,153.85
1034,D2,102.5,1.0,127,153.85
1035,D2,102.5,2.0,100,153.85
1036,A2,102.5,2.0,100,153.85
1037,E3,102.5,0.5,127,153.85
1038,B3,102.5,0.5,127,153.85
1039,E3,102.5,0.5,100,153.85
1040,B3,102.5,0.5,100,153.85
1041,E3,102.635,0.5,127,153.85
1042,B3,102.635,0.5,127,153.85
1043,E3,103.0,0.5,127,153.85
1044,B3,103.0,0.5,127,153.85
1045,E3,103.0,0.5,100,153.85
1046,B3,103.0,0.5,100,153.85
1047,E3,103.135,0.5,127,153.85
1048,B3,103.135,0.5,127,153.85
1049,E2,103.25,3.5,127,153.85
1050,B2,103.25,3.5,127,153.85
1051,C#3,103.5,0.5,127,153.85
1052,C2,103.5,0.5,127,153.85
1053,E3,103.5,0.5,127,153.85
1054,B3,103.5,0.5,127,153.85
1055,E3,103.5,0.5,100,153.85
1056,B3,103.5,0.5,100,153.85
1057,E3,103.635,0.5,127,153.85
1058,B3,103.635,0.5,127,153.85
1059,C#3,104.0,4.0,127,153.85
1060,C2,104.0,0.5,127,153.85
1061,E3,104.0,0.5,127,153.85
1062,B3,104.0,0.5,127,153.85
1063,E3,104.0,0.5,100,153.85
1064,B3,104.0,0.5,100,153.85
1065,E3,104.135,0.5,127,153.85
1066,B3,104.135,0.5,127,153.85
1067,D2,104.5,1.0,127,153.85
1068,E3,104.5,0.5,100,153.85
1069,B3,104.5,0.5,100,153.85
1070,D3,104.5,0.5,127,153.85
1071,A3,104.5,0.5,127,153.85
1072,E3,104.5,0.5,100,153.85
1073,B3,104.5,0.5,100,153.85
1074,D3,104.635,49/100,127,153.85
1075,A3,104.635,49/100,127,153.85
1076,E3,105.0,0.5,100,153.85
1077,B3,105.0,0.5,100,153.85
1078,D3,105.0,0.5,127,153.85
1079,A3,105.0,0.5,127,153.85
1080,E3,105.0,0.5,100,153.85
1081,B3,105.0,0.5,100,153.85
1082,D3,105.135,1/100,127,153.85
1083,A3,105.135,1/100,127,153.85
1084,D3,105.146,0.5,127,153.85
1085,A3,105.146,0.5,127,153.85
1086,C2,105.5,0.5,127,153.85
1087,E3,105.5,0.5,100,153.85
1088,B3,105.5,0.5,100,153.85
1089,D3,105.5,0.5,127,153.85
1090,A3,105.5,0.5,127,153.85
1091,E3,105.5,0.5,100,153.85
1092,B3,105.5,0.5,100,153.85
1093,D3,105.646,0.5,127,153.85
1094,A3,105.646,0.5,127,153.85
1095,C2,106.0,0.5,127,153.85
1096,E3,106.0,0.5,100,153.85
1097,B3,106.0,0.5,100,153.85
1098,D3,106.0,0.5,127,153.85
1099,A3,106.0,0.5,127,153.85
1100,E3,106.0,0.5,100,153.85
1101,B3,106.0,0.5,100,153.85
1102,D3,106.146,0.5,127,153.85
1103,A3,106.146,0.5,127,153.85
1104,D2,106.5,1.0,127,153.85
1105,E2,106.5,0.5,100,153.85
1106,E3,106.5,0.5,100,153.85
1107,B3,106.5,0.5,100,153.85
1108,D3,106.5,0.5,127,153.85
1109,A3,106.5,0.5,127,153.85
1110,D3,106.646,0.5,127,153.85
1111,A3,106.646,0.5,127,153.85
1112,E2,106.75,0.5,127,153.85
1113,B2,106.75,0.5,127,153.85
1114,E2,107.0,0.5,100,153.85
1115,E3,107.0,0.5,100,153.85
1116,B3,107.0,0.5,100,153.85
1117,D3,107.0,0.5,127,153.85
1118,A3,107.0,0.5,127,153.85
1119,D3,107.146,0.5,127,153.85
1120,A3,107.146,0.5,127,153.85
1121,C2,107.5,0.5,127,153.85
1122,E2,107.5,0.5,100,153.85
1123,E3,107.5,0.5,100,153.85
1124,B3,107.5,0.5,100,153.85
1125,D3,107.5,0.5,127,153.85
1126,A3,107.5,0.5,127,153.85
1127,D3,107.646,0.5,127,153.85
1128,A3,107.646,0.5,127,153.85
1129,D2,108.0,1.25,127,153.85
1130,C#3,108.0,3.25,127,153.85
1131,E2,108.0,0.5,100,153.85
1132,E3,108.0,0.5,100,153.85
1133,B3,108.0,0.5,100,153.85
1134,D3,108.0,0.5,127,153.85
1135,A3,108.0,0.5,127,153.85
1136,D3,108.146,0.5,127,153.85
1137,A3,108.146,0.5,127,153.85
1138,E2,108.5,0.5,100,153.85
1139,E3,108.5,0.5,100,153.85
1140,B3,108.5,0.5,100,153.85
1141,G2,108.5,0.5,127,153.85
1142,D3,108.5,0.5,127,153.85
1143,G2,108.646,49/100,127,153.85
1144,D3,108.646,49/100,127,153.85
1145,E2,109.0,0.5,100,153.85
1146,E3,109.0,0.5,100,153.85
1147,B3,109.0,0.5,100,153.85
1148,D2,109.0,1.25,127,153.85
1149,A2,109.0,1.25,127,153.85
1150,G2,109.146,1/100,127,153.85
1151,D3,109.146,1/100,127,153.85
1152,D2,109.156,1.25,127,153.85
1153,A2,109.156,1.25,127,153.85
1154,D2,109.25,1.0,127,153.85
1155,E2,109.5,0.5,100,153.85
1156,E3,109.5,0.5,100,153.85
1157,B3,109.5,0.5,100,153.85
1158,E2,110.0,0.5,100,153.85
1159,E3,110.0,0.5,100,153.85
1160,B3,110.0,0.5,100,153.85
1161,D2,110.25,1.0,127,153.85
1162,E2,110.25,1.0,127,153.85
1163,B2,110.25,1.0,127,153.85
1164,E2,110.406,1.0,127,153.85
1165,B2,110.406,1.0,127,153.85
1166,E2,110.5,0.5,100,153.85
1167,E3,110.5,0.5,100,153.85
1168,B3,110.5,0.5,100,153.85
1169,E2,110.75,3.5,127,153.85
1170,B2,110.75,3.5,127,153.85
1171,E2,111.0,0.5,100,153.85
1172,E3,111.0,0.5,100,153.85
1173,B3,111.0,0.5,100,153.85
1174,C2,111.25,0.75,127,153.85
1175,G3,111.25,1.0,127,153.85
1176,D4,111.25,1.0,127,153.85
1177,G3,111.406,1.0,127,153.85
1178,D4,111.406,1.0,127,153.85
1179,E2,111.5,0.5,100,153.85
1180,E3,111.5,0.5,100,153.85
1181,B3,111.5,0.5,100,153.85
1182,C2,112.0,0.25,127,153.85
1183,E2,112.0,0.5,100,153.85
1184,E3,112.0,0.5,100,153.85
1185,B3,112.0,0.5,100,153.85
1186,D2,112.25,1.0,127,153.85
1187,E3,112.25,0.5,127,153.85
1188,B3,112.25,0.5,127,153.85
1189,E3,112.406,0.5,127,153.85
1190,B3,112.406,0.5,127,153.85
1191,E2,112.5,0.5,100,153.85
1192,A2,112.5,0.5,100,153.85
1193,E3,112.75,0.25,127,153.85
1194,B3,112.75,0.25,127,153.85
1195,E3,112.906,6/25,127,153.85
1196,B3,112.906,6/25,127,153.85
1197,E2,113.0,0.5,100,153.85
1198,B2,113.0,0.5,100,153.85
1199,C2,113.25,1.0,127,153.85
1200,E3,113.25,0.25,127,153.85
1201,B3,113.25,0.25,127,153.85
1202,E3,113.406,13/50,127,153.85
1203,B3,113.406,13/50,127,153.85
1204,E2,113.5,0.5,100,153.85
1205,D2,113.5,0.5,100,153.85
1206,E3,113.5,0.5,127,153.85
1207,B3,113.5,0.5,127,153.85
1208,E3,113.667,0.5,127,153.85
1209,B3,113.667,0.5,127,153.85
1210,E2,114.0,0.5,100,153.85
1211,E3,114.0,0.5,100,153.85
1212,E3,114.0,0.5,127,153.85
1213,B3,114.0,0.5,127,153.85
1214,E3,114.167,0.5,127,153.85
1215,B3,114.167,0.5,127,153.85
1216,D2,114.25,1.0,127,153.85
1217,E2,114.25,0.5,127,153.85
1218,B2,114.25,0.5,127,153.85
1219,E2,114.5,0.5,100,153.85
1220,D3,114.5,0.5,100,153.85
1221,E3,114.5,0.5,127,153.85
1222,B3,114.5,0.5,127,153.85
1223,E3,114.667,0.5,127,153.85
1224,B3,114.667,0.5,127,153.85
1225,E2,115.0,0.5,100,153.85
1226,D3,115.0,0.5,100,153.85
1227,E3,115.0,0.5,127,153.85
1228,B3,115.0,0.5,127,153.85
1229,E3,115.167,0.5,127,153.85
1230,B3,115.167,0.5,127,153.85
1231,C2,115.25,0.75,127,153.85
1232,E2,115.5,0.5,100,153.85
1233,D3,115.5,0.5,100,153.85
1234,E3,115.5,0.5,127,153.85
1235,B3,115.5,0.5,127,153.85
1236,E3,115.667,0.5,127,153.85
1237,B3,115.667,0.5,127,153.85
1238,E2,116.0,0.5,100,153.85
1239,C2,116.0,0.25,127,153.85
1240,D3,116.0,0.5,100,153.85
1241,E3,116.0,0.5,127,153.85
1242,B3,116.0,0.5,127,153.85
1243,E3,116.167,0.5,127,153.85
1244,B3,116.167,0.5,127,153.85
1245,D2,116.25,1.0,127,153.85
1246,E2,116.25,1.5,127,153.85
1247,B2,116.25,1.5,127,153.85
1248,E2,116.5,0.5,100,153.85
1249,D3,116.5,0.5,100,153.85
1250,E3,116.5,0.5,127,153.85
1251,B3,116.5,0.5,127,153.85
1252,E3,116.667,0.5,127,153.85
1253,B3,116.667,0.5,127,153.85
1254,E2,117.0,0.5,100,153.85
1255,D3,117.0,0.5,100,153.85
1256,E3,117.0,0.25,127,153.85
1257,B3,117.0,0.25,127,153.85
1258,E3,117.167,6/25,127,153.85
1259,B3,117.167,6/25,127,153.85
1260,C2,117.25,0.5,127,153.85
1261,E2,117.5,0.5,100,153.85
1262,D3,117.5,0.5,100,153.85
1263,E3,117.5,0.25,127,153.85
1264,B3,117.5,0.25,127,153.85
1265,E3,117.667,13/50,127,153.85
1266,B3,117.667,13/50,127,153.85
1267,C2,117.75,0.5,127,153.85
1268,E3,117.75,0.5,127,153.85
1269,B3,117.75,0.5,127,153.85
1270,E2,117.75,2.5,127,153.85
1271,B2,117.75,2.5,127,153.85
1272,E3,117.927,0.5,127,153.85
1273,B3,117.927,0.5,127,153.85
1274,E2,118.0,0.5,100,153.85
1275,D3,118.0,0.5,100,153.85
1276,D2,118.25,1.0,127,153.85
1277,E3,118.25,0.5,127,153.85
1278,B3,118.25,0.5,127,153.85
1279,E3,118.427,0.5,127,153.85
1280,B3,118.427,0.5,127,153.85
1281,A2,118.5,0.5,100,153.85
1282,G3,118.5,0.5,100,153.85
1283,E3,118.75,0.5,127,153.85
1284,B3,118.75,0.5,127,153.85
1285,E3,118.927,0.5,127,153.85
1286,B3,118.927,0.5,127,153.85
1287,B2,119.0,0.5,100,153.85
1288,D3,119.0,1.25,100,153.85
1289,C#3,119.25,0.75,127,153.85
1290,C2,119.25,0.75,127,153.85
1291,E3,119.25,0.5,127,153.85
1292,B3,119.25,0.5,127,153.85
1293,E3,119.427,0.5,127,153.85
1294,B3,119.427,0.5,127,153.85
1295,D2,119.5,0.5,100,153.85
1296,E3,119.75,0.5,127,153.85
1297,B3,119.75,0.5,127,153.85
1298,E3,119.927,0.5,127,153.85
1299,B3,119.927,0.5,127,153.85
1300,E3,120.0,0.5,100,153.85
1301,C#3,120.0,4.0,127,153.85
1302,C2,120.0,0.25,127,153.85
1303,D2,120.25,1.0,127,153.85
1304,E3,120.25,0.75,100,153.85
1305,E3,120.25,0.5,127,153.85
1306,B3,120.25,0.5,127,153.85
1307,E3,120.427,0.5,127,153.85
1308,B3,120.427,0.5,127,153.85
1309,D3,120.5,0.5,100,153.85
1310,D3,120.75,0.5,127,153.85
1311,A3,120.75,0.5,127,153.85
1312,D3,120.927,0.5,127,153.85
1313,A3,120.927,0.5,127,153.85
1314,D3,121.0,0.5,100,153.85
1315,E3,121.0,0.25,100,153.85
1316,C2,121.25,0.5,127,153.85
1317,G3,121.25,1.0,100,153.85
1318,D3,121.25,0.25,127,153.85
1319,A3,121.25,0.25,127,153.85
1320,D3,121.427,6/25,127,153.85
1321,A3,121.427,6/25,127,153.85
1322,D3,121.5,0.5,100,153.85
1323,C2,121.75,0.5,127,153.85
1324,D3,121.75,0.25,127,153.85
1325,A3,121.75,0.25,127,153.85
1326,D3,121.927,13/50,127,153.85
1327,A3,121.927,13/50,127,153.85
1328,D3,122.0,0.5,100,153.85
1329,D3,122.0,0.5,127,153.85
1330,A3,122.0,0.5,127,153.85
1331,D3,122.188,0.5,127,153.85
1332,A3,122.188,0.5,127,153.85
1333,D2,122.25,1.0,127,153.85
1334,E2,122.25,0.5,100,153.85
1335,D3,122.5,0.5,100,153.85
1336,D3,122.5,0.5,127,153.85
1337,A3,122.5,0.5,127,153.85
1338,D3,122.688,0.5,127,153.85
1339,A3,122.688,0.5,127,153.85
1340,E2,122.75,0.5,100,153.85
1341,D3,123.0,0.5,100,153.85
1342,D3,123.0,0.5,127,153.85
1343,A3,123.0,0.5,127,153.85
1344,D3,123.188,0.5,127,153.85
1345,A3,123.188,0.5,127,153.85
1346,C2,123.25,0.5,127,153.85
1347,E2,123.25,0.5,100,153.85
1348,D3,123.5,0.5,100,153.85
1349,D3,123.5,0.5,127,153.85
1350,A3,123.5,0.5,127,153.85
1351,D3,123.688,0.5,127,153.85
1352,A3,123.688,0.5,127,153.85
1353,D2,123.75,0.25,127,153.85
1354,E2,123.75,0.5,100,153.85
1355,D3,124.0,0.5,100,153.85
1356,C#3,124.0,3.0,127,153.85
1357,D2,124.0,1.0,127,153.85
1358,D3,124.0,0.5,127,153.85
1359,A3,124.0,0.5,127,153.85
1360,D3,124.188,0.5,127,153.85
1361,A3,124.188,0.5,127,153.85
1362,E2,124.25,0.5,100,153.85
1363,G3,124.5,0.5,100,153.85
1364,D3,124.5,0.5,127,153.85
1365,A3,124.5,0.5,127,153.85
1366,D3,124.688,0.5,127,153.85
1367,A3,124.688,0.5,127,153.85
1368,E2,124.75,0.25,100,153.85
1369,D3,125.0,1.25,100,153.85
1370,D2,125.0,0.75,127,153.85
1371,E2,125.0,0.25,100,153.85
1372,G2,125.0,0.5,127,153.85
1373,D3,125.0,0.5,127,153.85
1374,G2,125.188,0.5,127,153.85
1375,D3,125.188,0.5,127,153.85
1376,E2,125.25,0.5,100,153.85
1377,D2,125.5,0.25,127,153.85
1378,A2,125.5,0.25,127,153.85
1379,D2,125.688,6/25,127,153.85
1380,A2,125.688,6/25,127,153.85
1381,D2,125.75,0.25,127,153.85
1382,E2,125.75,0.5,100,153.85
1383,D2,126.0,0.5,127,153.85
1384,E3,126.25,1.0,100,153.85
1385,E2,126.25,0.5,100,153.85
1386,D2,126.5,0.5,127,153.85
1387,E2,126.75,0.5,100,153.85
1388,D2,126.75,1.0,127,153.85
1389,A2,126.75,1.0,127,153.85
1390,D2,126.938,101/100,127,153.85
1391,A2,126.938,101/100,127,153.85
1392,C#3,127.0,1.0,127,153.85
1393,C2,127.0,1.0,127,153.85
1394,G3,127.25,1.0,100,153.85
1395,E2,127.25,0.5,100,153.85
1396,E2,127.75,0.5,100,153.85
1397,E2,127.75,1.0,127,153.85
1398,B2,127.75,1.0,127,153.85
1399,E2,127.75,4.0,127,153.85
1400,B2,127.75,4.0,127,153.85
1401,E2,127.948,1.0,127,153.85
1402,B2,127.948,1.0,127,153.85
1403,D2,128.0,1.0,127,153.85
1404,C#3,128.0,4.0,127,153.85
1405,E2,128.25,0.5,100,153.85
1406,A2,128.25,0.5,100,153.85
1407,E2,128.75,0.25,100,153.85
1408,B2,128.75,0.25,100,153.85
1409,G3,128.75,1.0,127,153.85
1410,D4,128.75,1.0,127,153.85
1411,G3,128.948,1.0,127,153.85
1412,D4,128.948,1.0,127,153.85
1413,E2,129.0,0.25,100,153.85
1414,C2,129.0,0.5,127,153.85
1415,B2,129.0,0.25,100,153.85
1416,E2,129.25,0.5,100,153.85
1417,D2,129.25,0.5,100,153.85
1418,C2,129.5,0.5,127,153.85
1419,E2,129.75,0.5,100,153.85
1420,E2,129.75,0.5,127,153.85
1421,E3,129.75,0.5,100,153.85
1422,E2,129.948,0.5,127,153.85
1423,D2,130.0,1.0,127,153.85
1424,E2,130.25,0.5,100,153.85
1425,E2,130.25,0.5,127,153.85
1426,D3,130.25,0.5,100,153.85
1427,E2,130.448,49/100,127,153.85
1428,E2,130.75,0.5,100,153.85
1429,E2,130.75,0.5,127,153.85
1430,D3,130.75,0.5,100,153.85
1431,E2,130.938,1/100,127,153.85
1432,E2,130.948,0.5,127,153.85
1433,C2,131.0,1.0,127,153.85
1434,E2,131.25,0.5,100,153.85
1435,E2,131.25,0.5,127,153.85
1436,D3,131.25,0.5,100,153.85
1437,E2,131.448,0.5,127,153.85
1438,E2,131.75,0.5,100,153.85
1439,E2,131.75,0.5,127,153.85
1440,D3,131.75,0.5,100,153.85
1441,E2,131.948,0.5,127,153.85
1442,D2,132.0,1.0,127,153.85
1443,C#3,132.0,1.5,127,153.85
1444,E2,132.25,0.5,100,153.85
1445,E2,132.25,0.5,127,153.85
1446,D3,132.25,0.5,100,153.85
1447,E2,132.448,0.5,127,153.85
1448,E2,132.75,0.25,100,153.85
1449,E2,132.75,0.5,127,153.85
1450,D3,132.75,0.25,100,153.85
1451,E2,132.948,0.5,127,153.85
1452,E2,133.0,0.25,100,153.85
1453,C2,133.0,0.5,127,153.85
1454,D3,133.0,0.25,100,153.85
1455,E2,133.25,0.5,100,153.85
1456,E2,133.25,0.5,127,153.85
1457,D3,133.25,0.5,100,153.85
1458,E2,133.448,0.5,127,153.85
1459,D2,133.5,0.5,127,153.85
1460,C2,133.5,0.5,127,153.85
1461,E2,133.75,0.5,100,153.85
1462,E2,133.75,0.5,127,153.85
1463,D3,133.75,0.5,100,153.85
1464,E2,133.948,0.5,127,153.85
1465,D2,134.0,0.5,127,153.85
1466,D2,134.0,1.0,127,153.85
1467,A2,134.25,0.5,100,153.85
1468,E2,134.25,0.5,127,153.85
1469,G3,134.25,0.5,100,153.85
1470,E2,134.448,49/100,127,153.85
1471,D2,134.5,0.5,127,153.85
1472,B2,134.75,0.5,100,153.85
1473,E2,134.75,0.5,127,153.85
1474,D3,134.75,1.25,100,153.85
1475,E2,134.938,1/100,127,153.85
1476,E2,134.948,0.5,127,153.85
1477,C#3,135.0,1.0,127,153.85
1478,C2,135.0,1.0,127,153.85
1479,D2,135.25,0.5,100,153.85
1480,E2,135.25,0.5,127,153.85
1481,E2,135.25,3.5,127,153.85
1482,B2,135.25,3.5,127,153.85
1483,E2,135.448,0.5,127,153.85
1484,E3,135.75,0.5,100,153.85
1485,E2,135.75,0.5,127,153.85
1486,E2,135.948,0.5,127,153.85
1487,D2,136.0,1.0,127,153.85
1488,C#3,136.0,4.0,127,153.85
1489,E3,136.0,1.0,100,153.85
1490,D3,136.25,0.5,100,153.85
1491,E2,136.25,0.5,127,153.85
1492,E2,136.448,0.5,127,153.85
1493,D3,136.75,0.25,100,153.85
1494,E2,136.75,0.5,127,153.85
1495,E2,136.948,0.5,127,153.85
1496,D3,137.0,0.25,100,153.85
1497,C2,137.0,0.5,127,153.85
1498,G3,137.0,1.0,100,153.85
1499,D3,137.25,0.5,100,153.85
1500,E2,137.25,0.5,127,153.85
1501,E2,137.448,0.5,127,153.85
1502,C2,137.5,0.5,127,153.85
1503,D3,137.75,0.5,100,153.85
1504,D2,137.75,0.5,127,153.85
1505,D2,137.948,0.5,127,153.85
1506,D2,138.0,1.0,127,153.85
1507,E2,138.0,3.0,100,153.85
1508,B2,138.0,3.0,100,153.85
1509,D3,138.25,0.5,100,153.85
1510,D2,138.25,0.5,127,153.85
1511,D2,138.448,49/100,127,153.85
1512,D3,138.75,0.5,100,153.85
1513,D2,138.75,0.5,127,153.85
1514,E2,138.75,0.5,127,153.85
1515,B2,138.75,0.5,127,153.85
1516,D2,138.938,1/100,127,153.85
1517,D2,138.948,0.5,127,153.85
1518,C2,139.0,1.0,127,153.85
1519,D3,139.25,0.5,100,153.85
1520,D2,139.25,0.5,127,153.85
1521,D2,139.448,0.5,127,153.85
1522,D3,139.75,0.5,100,153.85
1523,D2,139.75,0.5,127,153.85
1524,D2,139.948,0.5,127,153.85
1525,D2,140.0,1.0,127,153.85
1526,C#3,140.0,1.5,127,153.85
1527,G3,140.25,0.5,100,153.85
1528,D2,140.25,0.5,127,153.85
1529,D2,140.448,0.5,127,153.85
1530,D3,140.75,0.25,100,153.85
1531,D2,140.75,0.5,127,153.85
1532,D2,140.948,0.5,127,153.85
1533,D3,141.0,1.0,100,153.85
1534,C2,141.0,1.0,127,153.85
1535,D2,141.25,0.5,127,153.85
1536,D2,141.448,0.5,127,153.85
1537,D2,141.5,0.5,127,153.85
1538,D2,141.75,0.5,127,153.85
1539,D2,141.948,0.5,127,153.85
1540,E3,142.0,1.0,100,153.85
1541,D2,142.0,0.25,127,153.85
1542,D2,142.0,0.5,127,153.85
1543,D2,142.25,0.5,127,153.85
1544,D2,142.25,0.75,127,153.85
1545,D2,142.448,49/100,127,153.85
1546,D2,142.5,0.5,127,153.85
1547,D2,142.75,0.5,127,153.85
1548,D2,142.938,1/100,127,153.85
1549,D2,142.948,0.5,127,153.85
1550,G3,143.0,1.0,100,153.85
1551,C#3,143.0,1.0,127,153.85
1552,C2,143.0,1.0,127,153.85
1553,D2,143.25,0.5,127,153.85
1554,D2,143.448,0.5,127,153.85
1555,D2,143.75,0.5,127,153.85
1556,D2,143.948,0.5,127,153.85
1557,D2,144.0,1.0,127,153.85
1558,C#3,144.0,4.0,127,153.85
1559,E2,144.0,1.0,100,153.85
1560,B2,144.0,1.0,100,153.85
1561,D2,144.25,0.5,127,153.85
1562,D2,144.448,0.5,127,153.85
1563,D2,144.75,0.5,127,153.85
1564,D2,144.948,0.5,127,153.85
1565,C2,145.0,0.5,127,153.85
1566,D2,145.25,0.5,127,153.85
1567,D2,145.448,0.5,127,153.85
1568,C2,145.5,0.5,127,153.85
1569,E2,145.75,0.5,127,153.85
1570,E2,145.948,0.5,127,153.85
1571,D2,146.0,1.0,127,153.85
1572,E2,146.0,4.0,100,153.85
1573,B2,146.0,4.0,100,153.85
1574,E2,146.25,0.5,127,153.85
1575,E2,146.448,49/100,127,153.85
1576,E2,146.75,0.5,127,153.85
1577,E2,146.75,4.0,127,153.85
1578,B2,146.75,4.0,127,153.85
1579,E2,146.938,1/100,127,153.85
1580,E2,146.948,0.5,127,153.85
1581,C2,147.0,1.0,127,153.85
1582,E2,147.25,0.5,127,153.85
1583,E2,147.448,0.5,127,153.85
1584,E2,147.75,0.5,127,153.85
1585,E2,147.948,0.5,127,153.85
1586,D2,148.0,1.0,127,153.85
1587,C#3,148.0,3.0,127,153.85
1588,E2,148.25,0.5,127,153.85
1589,E2,148.448,0.5,127,153.85
1590,E2,148.75,0.5,127,153.85
1591,E2,148.948,0.5,127,153.85
1592,C2,149.0,0.5,127,153.85
1593,E2,149.25,0.5,127,153.85
1594,E2,149.448,0.5,127,153.85
1595,C2,149.5,0.5,127,153.85
1596,E2,149.75,0.5,127,153.85
1597,E2,149.948,0.5,127,153.85
1598,D2,150.0,0.5,127,153.85
1599,E2,150.25,0.5,127,153.85
1600,E2,150.448,49/100,127,153.85
1601,D2,150.5,0.5,127,153.85
1602,E2,150.75,0.5,127,153.85
1603,E2,150.938,1/100,127,153.85
1604,E2,150.948,0.5,127,153.85
1605,C#3,151.0,1.0,127,153.85
1606,C2,151.0,1.0,127,153.85
1607,E2,151.0,1.0,100,153.85
1608,B2,151.0,1.0,100,153.85
1609,E2,151.25,0.5,127,153.85
1610,E2,151.448,0.5,127,153.85
1611,E2,151.75,0.5,127,153.85
1612,E2,151.948,0.5,127,153.85
1613,D2,152.0,1.0,127,153.85
1614,C#3,152.0,4.0,127,153.85
1615,E2,152.0,4.0,100,153.85
1616,B2,152.0,4.0,100,153.85
1617,D2,152.0,3.0,100,153.85
1618,A2,152.0,3.0,100,153.85
1619,E2,152.25,0.5,127,153.85
1620,E2,152.448,0.5,127,153.85
1621,E2,152.75,0.5,127,153.85
1622,E2,152.948,0.5,127,153.85
1623,C2,153.0,0.5,127,153.85
1624,E2,153.25,0.5,127,153.85
1625,E2,153.448,0.5,127,153.85
1626,C2,153.5,0.5,127,153.85
1627,D2,153.75,0.5,127,153.85
1628,D2,153.948,0.5,127,153.85
1629,D2,154.0,1.0,127,153.85
1630,D2,154.25,0.5,127,153.85
1631,E2,154.25,3.5,127,153.85
1632,B2,154.25,3.5,127,153.85
1633,D2,154.448,49/100,127,153.85
1634,D2,154.75,0.5,127,153.85
1635,D2,154.938,1/100,127,153.85
1636,D2,154.948,0.5,127,153.85
1637,C2,155.0,1.0,127,153.85
1638,D2,155.25,0.5,127,153.85
1639,D2,155.448,0.5,127,153.85
1640,D2,155.75,0.5,127,153.85
1641,D2,155.948,0.5,127,153.85
1642,D2,156.0,1.0,127,153.85
1643,C#3,156.0,3.0,127,153.85
1644,D2,156.25,0.5,127,153.85
1645,D2,156.448,0.5,127,153.85
1646,D2,156.75,0.5,127,153.85
1647,D2,156.948,0.5,127,153.85
1648,C2,157.0,0.75,127,153.85
1649,D2,157.25,0.5,127,153.85
1650,D2,157.448,0.5,127,153.85
1651,D2,157.75,0.5,127,153.85
1652,D2,157.75,0.25,127,153.85
1653,D2,157.948,0.5,127,153.85
1654,D2,158.0,0.5,127,153.85
1655,D2,158.25,0.5,127,153.85
1656,D2,158.448,49/100,127,153.85
1657,D2,158.5,0.5,127,153.85
1658,D2,158.75,0.5,127,153.85
1659,D2,158.938,1/100,127,153.85
1660,D2,158.948,0.5,127,153.85
1661,C2,159.0,1.0,127,153.85
1662,E2,159.0,3.0,100,153.85
1663,B2,159.0,3.0,100,153.85
1664,D2,159.25,0.5,127,153.85
1665,D2,159.448,0.5,127,153.85
1666,D2,159.75,0.5,127,153.85
1667,D2,159.948,0.5,127,153.85
1668,D2,160.0,1.0,127,153.85
1669,D2,160.0,4.0,100,153.85
1670,A2,160.0,4.0,100,153.85
1671,D2,160.25,0.5,127,153.85
1672,D2,160.448,0.5,127,153.85
1673,D2,160.75,0.5,127,153.85
1674,D2,160.948,0.5,127,153.85
1675,C2,161.0,1.0,127,153.85
1676,D2,161.25,0.5,127,153.85
1677,D2,161.448,0.5,127,153.85
1678,E3,161.75,0.5,127,153.85
1679,B3,161.75,0.5,127,153.85
1680,E3,161.948,0.5,127,153.85
1681,B3,161.948,0.5,127,153.85
1682,D2,162.0,1.0,127,153.85
1683,D2,162.0,1.0,100,153.85
1684,A2,162.0,1.0,100,153.85
1685,E3,162.25,0.5,127,153.85
1686,B3,162.25,0.5,127,153.85
1687,E3,162.448,49/100,127,153.85
1688,B3,162.448,49/100,127,153.85
1689,E3,162.75,0.5,127,153.85
1690,B3,162.75,0.5,127,153.85
1691,E3,162.948,1/100,127,153.85
1692,B3,162.948,1/100,127,153.85
1693,E3,162.958,0.5,127,153.85
1694,B3,162.958,0.5,127,153.85
1695,C2,163.0,1.0,127,153.85
1696,E3,163.25,0.5,127,153.85
1697,B3,163.25,0.5,127,153.85
1698,E3,163.458,0.5,127,153.85
1699,B3,163.458,0.5,127,153.85
1700,E3,163.75,0.5,127,153.85
1701,B3,163.75,0.5,127,153.85
1702,E3,163.958,0.5,127,153.85
1703,B3,163.958,0.5,127,153.85
1704,D2,164.0,1.0,127,153.85
1705,E3,164.25,0.5,127,153.85
1706,B3,164.25,0.5,127,153.85
1707,E3,164.458,0.5,127,153.85
1708,B3,164.458,0.5,127,153.85
1709,E3,164.75,0.5,127,153.85
1710,B3,164.75,0.5,127,153.85
1711,E3,164.958,0.5,127,153.85
1712,B3,164.958,0.5,127,153.85
1713,C2,165.0,0.5,127,153.85
1714,D2,165.0,1.0,100,153.85
1715,A2,165.0,1.0,100,153.85
1716,E3,165.25,0.5,127,153.85
1717,B3,165.25,0.5,127,153.85
1718,E3,165.458,0.5,127,153.85
1719,B3,165.458,0.5,127,153.85
1720,C2,165.5,0.5,127,153.85
1721,E2,165.5,0.75,127,153.85
1722,B2,165.5,0.75,127,153.85
1723,E3,165.75,0.5,127,153.85
1724,B3,165.75,0.5,127,153.85
1725,E3,165.958,0.5,127,153.85
1726,B3,165.958,0.5,127,153.85
1727,D2,166.0,1.0,127,153.85
1728,E2,166.0,3.0,100,153.85
1729,B2,166.0,3.0,100,153.85
1730,E3,166.25,0.5,127,153.85
1731,B3,166.25,0.5,127,153.85
1732,E2,166.25,4.0,127,153.85
1733,B2,166.25,4.0,127,153.85
1734,E3,166.458,49/100,127,153.85
1735,B3,166.458,49/100,127,153.85
1736,E3,166.75,0.5,127,153.85
1737,B3,166.75,0.5,127,153.85
1738,E3,166.958,1/100,127,153.85
1739,B3,166.958,1/100,127,153.85
1740,E3,166.969,0.5,127,153.85
1741,B3,166.969,0.5,127,153.85
1742,C#3,167.0,1.0,127,153.85
1743,C2,167.0,1.0,127,153.85
1744,E3,167.25,0.5,127,153.85
1745,B3,167.25,0.5,127,153.85
1746,E3,167.469,0.5,127,153.85
1747,B3,167.469,0.5,127,153.85
1748,E3,167.75,0.5,127,153.85
1749,B3,167.75,0.5,127,153.85
1750,E3,167.969,0.5,127,153.85
1751,B3,167.969,0.5,127,153.85
1752,D2,168.0,1.0,127,153.85
1753,C#3,168.0,4.0,127,153.85
1754,E3,168.25,0.5,127,153.85
1755,B3,168.25,0.5,127,153.85
1756,E3,168.469,0.5,127,153.85
1757,B3,168.469,0.5,127,153.85
1758,E3,168.75,0.5,127,153.85
1759,B3,168.75,0.5,127,153.85
1760,E3,168.969,0.5,127,153.85
1761,B3,168.969,0.5,127,153.85
1762,C2,169.0,0.5,127,153.85
1763,E3,169.25,0.5,127,153.85
1764,B3,169.25,0.5,127,153.85
1765,E3,169.469,0.5,127,153.85
1766,B3,169.469,0.5,127,153.85
1767,C2,169.5,0.5,127,153.85
1768,D3,169.75,0.5,127,153.85
1769,A3,169.75,0.5,127,153.85
1770,D3,169.969,0.5,127,153.85
1771,A3,169.969,0.5,127,153.85
1772,D2,170.0,1.0,127,153.85
1773,D2,170.0,4.0,100,153.85
1774,A2,170.0,4.0,100,153.85
1775,D3,170.25,0.5,127,153.85
1776,A3,170.25,0.5,127,153.85
1777,D3,170.469,49/100,127,153.85
1778,A3,170.469,49/100,127,153.85
1779,D3,170.75,0.5,127,153.85
1780,A3,170.75,0.5,127,153.85
1781,D3,170.969,1/100,127,153.85
1782,A3,170.969,1/100,127,153.85
1783,D3,170.979,0.5,127,153.85
1784,A3,170.979,0.5,127,153.85
1785,C2,171.0,0.5,127,153.85
1786,D3,171.25,0.5,127,153.85
1787,A3,171.25,0.5,127,153.85
1788,D3,171.479,0.5,127,153.85
1789,A3,171.479,0.5,127,153.85
1790,D2,171.5,0.5,127,153.85
1791,D3,171.75,0.5,127,153.85
1792,A3,171.75,0.5,127,153.85
1793,D3,171.979,0.5,127,153.85
1794,A3,171.979,0.5,127,153.85
1795,C#3,172.0,2.75,127,153.85
1796,D2,172.0,0.75,127,153.85
1797,D3,172.25,0.5,127,153.85
1798,A3,172.25,0.5,127,153.85
1799,D3,172.479,0.5,127,153.85
1800,A3,172.479,0.5,127,153.85
1801,D2,172.75,1.0,127,153.85
1802,D3,172.75,0.5,127,153.85
1803,A3,172.75,0.5,127,153.85
1804,D3,172.979,0.5,127,153.85
1805,A3,172.979,0.5,127,153.85
1806,D3,173.25,0.5,127,153.85
1807,A3,173.25,0.5,127,153.85
1808,D3,173.479,0.5,127,153.85
1809,A3,173.479,0.5,127,153.85
1810,E2,173.5,3.25,127,153.85
1811,B2,173.5,3.25,127,153.85
1812,D2,173.75,1.0,127,153.85
1813,G2,173.75,0.5,127,153.85
1814,D3,173.75,0.5,127,153.85
1815,G2,173.979,0.5,127,153.85
1816,D3,173.979,0.5,127,153.85
1817,E2,174.0,4.0,100,153.85
1818,B2,174.0,4.0,100,153.85
1819,D2,174.25,0.5,127,153.85
1820,A2,174.25,0.5,127,153.85
1821,D2,174.479,49/100,127,153.85
1822,A2,174.479,49/100,127,153.85
1823,C2,174.75,1.0,127,153.85
1824,D2,175.5,0.75,127,153.85
1825,A2,175.5,0.75,127,153.85
1826,D2,175.729,19/25,127,153.85
1827,A2,175.729,19/25,127,153.85
1828,D2,175.75,0.25,127,153.85
1829,D2,176.0,0.75,127,153.85
1830,E2,176.25,1.0,127,153.85
1831,B2,176.25,1.0,127,153.85
1832,E2,176.49,1.0,127,153.85
1833,B2,176.49,1.0,127,153.85
1834,C2,176.75,1.0,127,153.85
1835,D2,177.0,3.0,100,153.85
1836,A2,177.0,3.0,100,153.85
1837,G3,177.25,1.0,127,153.85
1838,D4,177.25,1.0,127,153.85
1839,G3,177.49,1.0,127,153.85
1840,D4,177.49,1.0,127,153.85
1841,D2,177.75,1.0,127,153.85
1842,E3,178.25,0.5,127,153.85
1843,B3,178.25,0.5,127,153.85
1844,E3,178.49,0.5,127,153.85
1845,B3,178.49,0.5,127,153.85
1846,C2,178.75,1.0,127,153.85
1847,E3,178.75,0.5,127,153.85
1848,B3,178.75,0.5,127,153.85
1849,E3,178.99,0.5,127,153.85
1850,B3,178.99,0.5,127,153.85
1851,E2,179.0,1.0,100,153.85
1852,B2,179.0,1.0,100,153.85
1853,E3,179.25,0.25,127,153.85
1854,B3,179.25,0.25,127,153.85
1855,E3,179.49,6/25,127,153.85
1856,B3,179.49,6/25,127,153.85
1857,D2,179.75,0.25,127,153.85
1858,E3,179.75,0.25,127,153.85
1859,B3,179.75,0.25,127,153.85
1860,E3,179.99,13/50,127,153.85
1861,B3,179.99,13/50,127,153.85
1862,D2,180.0,0.75,127,153.85
1863,E2,180.0,1.0,100,153.85
1864,B2,180.0,1.0,100,153.85
1865,E3,180.0,0.5,127,153.85
1866,B3,180.0,0.5,127,153.85
1867,D2,180.0,3.0,100,153.85
1868,A2,180.0,3.0,100,153.85
1869,E3,180.25,0.5,127,153.85
1870,B3,180.25,0.5,127,153.85
1871,E3,180.5,0.5,127,153.85
1872,B3,180.5,0.5,127,153.85
1873,C2,180.75,0.5,127,153.85
1874,E3,180.75,0.5,127,153.85
1875,B3,180.75,0.5,127,153.85
1876,E3,181.0,0.5,127,153.85
1877,B3,181.0,0.5,127,153.85
1878,C2,181.25,0.5,127,153.85
1879,E3,181.25,0.5,127,153.85
1880,B3,181.25,0.5,127,153.85
1881,E3,181.5,0.5,127,153.85
1882,B3,181.5,0.5,127,153.85
1883,D2,181.75,1.0,127,153.85
1884,E3,181.75,0.5,127,153.85
1885,B3,181.75,0.5,127,153.85
1886,E3,182.0,0.5,127,153.85
1887,B3,182.0,0.5,127,153.85
1888,E3,182.25,0.5,127,153.85
1889,B3,182.25,0.5,127,153.85
1890,E3,182.5,0.5,127,153.85
1891,B3,182.5,0.5,127,153.85
1892,C#3,182.75,1.25,127,153.85
1893,C2,182.75,1.0,127,153.85
1894,E3,182.75,0.5,127,153.85
1895,B3,182.75,0.5,127,153.85
1896,E3,183.0,0.5,127,153.85
1897,B3,183.0,0.5,127,153.85
1898,E3,183.25,0.5,127,153.85
1899,B3,183.25,0.5,127,153.85
1900,E3,183.5,0.25,127,153.85
1901,B3,183.5,0.25,127,153.85
1902,D2,183.75,0.25,127,153.85
1903,E3,183.75,6/25,127,153.85
1904,B3,183.75,6/25,127,153.85
1905,C#3,184.0,4.0,127,153.85
1906,D2,184.0,0.75,127,153.85
1907,E3,184.0,0.25,127,153.85
1908,B3,184.0,0.25,127,153.85
1909,E3,184.25,0.5,127,153.85
1910,B3,184.25,0.5,127,153.85
1911,E3,184.25,13/50,127,153.85
1912,B3,184.25,13/50,127,153.85
1913,E3,184.51,0.5,127,153.85
1914,B3,184.51,0.5,127,153.85
1915,C2,184.75,0.5,127,153.85
1916,E3,184.75,0.5,127,153.85
1917,B3,184.75,0.5,127,153.85
1918,E3,185.01,0.5,127,153.85
1919,B3,185.01,0.5,127,153.85
1920,C2,185.25,0.5,127,153.85
1921,E3,185.25,0.5,127,153.85
1922,B3,185.25,0.5,127,153.85
1923,E3,185.51,0.5,127,153.85
1924,B3,185.51,0.5,127,153.85
1925,D2,185.75,1.0,127,153.85
1926,E3,185.75,0.5,127,153.85
1927,B3,185.75,0.5,127,153.85
1928,E3,186.01,0.5,127,153.85
1929,B3,186.01,0.5,127,153.85
1930,E3,186.25,0.5,127,153.85
1931,B3,186.25,0.5,127,153.85
1932,E3,186.51,0.5,127,153.85
1933,B3,186.51,0.5,127,153.85
1934,C2,186.75,0.5,127,153.85
1935,D3,186.75,0.5,127,153.85
1936,A3,186.75,0.5,127,153.85
1937,D3,187.01,0.5,127,153.85
1938,A3,187.01,0.5,127,153.85
1939,D2,187.25,0.75,127,153.85
1940,D3,187.25,0.5,127,153.85
1941,A3,187.25,0.5,127,153.85
1942,D3,187.51,0.5,127,153.85
1943,A3,187.51,0.5,127,153.85
1944,D3,187.75,0.25,127,153.85
1945,A3,187.75,0.25,127,153.85
1946,C#3,188.0,2.5,127,153.85
1947,D2,188.0,0.5,127,153.85
1948,E2,188.0,4.0,100,153.85
1949,B2,188.0,4.0,100,153.85
1950,D2,188.0,4.0,100,153.85
1951,A2,188.0,4.0,100,153.85
1952,D3,188.01,6/25,127,153.85
1953,A3,188.01,6/25,127,153.85
1954,D3,188.25,0.25,127,153.85
1955,A3,188.25,0.25,127,153.85
1956,D2,188.5,1.0,127,153.85
1957,D3,188.5,0.5,127,153.85
1958,A3,188.5,0.5,127,153.85
1959,D3,188.51,13/50,127,153.85
1960,A3,188.51,13/50,127,153.85
1961,D3,188.771,0.5,127,153.85
1962,A3,188.771,0.5,127,153.85
1963,D3,189.0,0.5,127,153.85
1964,A3,189.0,0.5,127,153.85
1965,D3,189.271,0.5,127,153.85
1966,A3,189.271,0.5,127,153.85
1967,D2,189.5,1.0,127,153.85
1968,D3,189.5,0.5,127,153.85
1969,A3,189.5,0.5,127,153.85
1970,D3,189.771,0.5,127,153.85
1971,A3,189.771,0.5,127,153.85
1972,D3,190.0,0.5,127,153.85
1973,A3,190.0,0.5,127,153.85
1974,D3,190.271,0.5,127,153.85
1975,A3,190.271,0.5,127,153.85
1976,C2,190.5,1.0,127,153.85
1977,D3,190.5,0.5,127,153.85
1978,A3,190.5,0.5,127,153.85
1979,D3,190.771,0.5,127,153.85
1980,A3,190.771,0.5,127,153.85
1981,G2,191.0,0.5,127,153.85
1982,D3,191.0,0.5,127,153.85
1983,G2,191.271,0.5,127,153.85
1984,D3,191.271,0.5,127,153.85
1985,D2,191.5,0.5,127,153.85
1986,D2,191.5,0.75,127,153.85
1987,A2,191.5,0.75,127,153.85
1988,D2,191.771,37/50,127,153.85
1989,A2,191.771,37/50,127,153.85
1990,D2,192.0,0.5,127,153.85
1991,C2,192.5,1.0,127,153.85
1992,D2,192.75,0.5,127,153.85
1993,A2,192.75,0.5,127,153.85
1994,D2,193.0,1.0,100,153.85
1995,A2,193.0,1.0,100,153.85
1996,D2,193.021,51/100,127,153.85
1997,A2,193.021,51/100,127,153.85
1998,E2,193.25,1.0,127,153.85
1999,B2,193.25,1.0,127,153.85
2000,D2,193.5,1.0,127,153.85
2001,E2,193.531,1.0,127,153.85
2002,B2,193.531,1.0,127,153.85
2003,E2,194.0,0.5,100,153.85
2004,G3,194.25,1.0,127,153.85
2005,D4,194.25,1.0,127,153.85
2006,C2,194.5,1.0,127,153.85
2007,E2,194.5,0.5,100,153.85
2008,G3,194.531,1.0,127,153.85
2009,D4,194.531,1.0,127,153.85
2010,E2,195.0,0.5,100,153.85
2011,E2,195.0,3.0,100,153.85
2012,B2,195.0,3.0,100,153.85
2013,E3,195.25,0.5,127,153.85
2014,B3,195.25,0.5,127,153.85
2015,D2,195.5,0.5,127,153.85
2016,E2,195.5,0.5,100,153.85
2017,E3,195.531,0.5,127,153.85
2018,B3,195.531,0.5,127,153.85
2019,E3,195.75,0.5,127,153.85
2020,B3,195.75,0.5,127,153.85
2021,D2,196.0,0.5,127,153.85
2022,E2,196.0,0.5,100,153.85
2023,E3,196.031,0.5,127,153.85
2024,B3,196.031,0.5,127,153.85
2025,E3,196.25,0.5,127,153.85
2026,B3,196.25,0.5,127,153.85
2027,C2,196.5,0.5,127,153.85
2028,E2,196.5,0.5,100,153.85
2029,E3,196.531,49/100,127,153.85
2030,B3,196.531,49/100,127,153.85
2031,E3,196.75,0.5,127,153.85
2032,B3,196.75,0.5,127,153.85
2033,C2,197.0,0.5,127,153.85
2034,E2,197.0,0.5,100,153.85
2035,E3,197.031,1/100,127,153.85
2036,B3,197.031,1/100,127,153.85
2037,E3,197.042,0.5,127,153.85
2038,B3,197.042,0.5,127,153.85
2039,E3,197.25,0.5,127,153.85
2040,B3,197.25,0.5,127,153.85
2041,D2,197.5,1.0,127,153.85
2042,E2,197.5,0.5,100,153.85
2043,E3,197.542,0.5,127,153.85
2044,B3,197.542,0.5,127,153.85
2045,E3,197.75,0.5,127,153.85
2046,B3,197.75,0.5,127,153.85
2047,E2,198.0,0.5,100,153.85
2048,D2,198.0,1.0,100,153.85
2049,A2,198.0,1.0,100,153.85
2050,E3,198.042,0.5,127,153.85
2051,B3,198.042,0.5,127,153.85
2052,E3,198.25,0.5,127,153.85
2053,B3,198.25,0.5,127,153.85
2054,C#3,198.5,1.5,127,153.85
2055,C2,198.5,1.0,127,153.85
2056,E2,198.5,0.5,100,153.85
2057,E3,198.542,0.5,127,153.85
2058,B3,198.542,0.5,127,153.85
2059,E3,198.75,0.5,127,153.85
2060,B3,198.75,0.5,127,153.85
2061,E2,199.0,0.5,100,153.85
2062,E3,199.042,0.5,127,153.85
2063,B3,199.042,0.5,127,153.85
2064,E3,199.25,0.5,127,153.85
2065,B3,199.25,0.5,127,153.85
2066,D2,199.5,0.5,127,153.85
2067,E2,199.5,0.5,100,153.85
2068,E3,199.542,0.5,127,153.85
2069,B3,199.542,0.5,127,153.85
2070,E3,199.75,0.5,127,153.85
2071,B3,199.75,0.5,127,153.85
2072,C#3,200.0,4.0,127,153.85
2073,D2,200.0,0.5,127,153.85
2074,A2,200.0,0.5,100,153.85
2075,E3,200.042,0.5,127,153.85
2076,B3,200.042,0.5,127,153.85
2077,E3,200.25,0.5,127,153.85
2078,B3,200.25,0.5,127,153.85
2079,C2,200.5,0.5,127,153.85
2080,B2,200.5,0.5,100,153.85
2081,E3,200.542,49/100,127,153.85
2082,B3,200.542,49/100,127,153.85
2083,E3,200.75,0.5,127,153.85
2084,B3,200.75,0.5,127,153.85
2085,C2,201.0,0.5,127,153.85
2086,D2,201.0,0.5,100,153.85
2087,E3,201.042,1/100,127,153.85
2088,B3,201.042,1/100,127,153.85
2089,E3,201.052,0.5,127,153.85
2090,B3,201.052,0.5,127,153.85
2091,E3,201.25,0.5,127,153.85
2092,B3,201.25,0.5,127,153.85
2093,D2,201.5,1.0,127,153.85
2094,E3,201.5,0.5,100,153.85
2095,E3,201.552,0.5,127,153.85
2096,B3,201.552,0.5,127,153.85
2097,E3,201.75,0.5,127,153.85
2098,B3,201.75,0.5,127,153.85
2099,D3,202.0,0.5,100,153.85
2100,E3,202.052,0.5,127,153.85
2101,B3,202.052,0.5,127,153.85
2102,E3,202.25,0.5,127,153.85
2103,B3,202.25,0.5,127,153.85
2104,C2,202.5,0.5,127,153.85
2105,D3,202.5,0.5,100,153.85
2106,E3,202.552,0.5,127,153.85
2107,B3,202.552,0.5,127,153.85
2108,E3,202.75,0.5,127,153.85
2109,B3,202.75,0.5,127,153.85
2110,D2,203.0,1.0,127,153.85
2111,D3,203.0,0.5,100,153.85
2112,E3,203.052,0.5,127,153.85
2113,B3,203.052,0.5,127,153.85
2114,D3,203.25,0.5,127,153.85
2115,A3,203.25,0.5,127,153.85
2116,D3,203.5,0.5,100,153.85
2117,D3,203.552,0.5,127,153.85
2118,A3,203.552,0.5,127,153.85
2119,D3,203.75,0.5,127,153.85
2120,A3,203.75,0.5,127,153.85
2121,C#3,204.0,2.25,127,153.85
2122,D2,204.0,0.25,127,153.85
2123,D3,204.0,0.5,100,153.85
2124,D3,204.052,0.5,127,153.85
2125,A3,204.052,0.5,127,153.85
2126,D2,204.25,1.0,127,153.85
2127,D3,204.25,0.5,127,153.85
2128,A3,204.25,0.5,127,153.85
2129,D3,204.5,0.5,100,153.85
2130,D3,204.552,49/100,127,153.85
2131,A3,204.552,49/100,127,153.85
2132,D3,204.75,0.5,127,153.85
2133,A3,204.75,0.5,127,153.85
2134,D3,205.0,0.5,100,153.85
2135,D3,205.052,1/100,127,153.85
2136,A3,205.052,1/100,127,153.85
2137,D3,205.062,0.5,127,153.85
2138,A3,205.062,0.5,127,153.85
2139,D2,205.25,1.0,127,153.85
2140,D3,205.25,0.5,127,153.85
2141,A3,205.25,0.5,127,153.85
2142,D3,205.5,0.5,100,153.85
2143,D3,205.562,0.5,127,153.85
2144,A3,205.562,0.5,127,153.85
2145,D3,205.75,0.5,127,153.85
2146,A3,205.75,0.5,127,153.85
2147,G3,206.0,0.5,100,153.85
2148,D2,206.0,4.0,100,153.85
2149,A2,206.0,4.0,100,153.85
2150,D3,206.062,0.5,127,153.85
2151,A3,206.062,0.5,127,153.85
2152,C2,206.25,1.0,127,153.85
2153,D3,206.25,0.5,127,153.85
2154,A3,206.25,0.5,127,153.85
2155,D3,206.5,1.25,100,153.85
2156,D3,206.562,0.5,127,153.85
2157,A3,206.562,0.5,127,153.85
2158,D3,206.75,0.5,127,153.85
2159,A3,206.75,0.5,127,153.85
2160,D3,207.062,0.5,127,153.85
2161,A3,207.062,0.5,127,153.85
2162,D2,207.25,0.75,127,153.85
2163,G2,207.25,0.5,127,153.85
2164,D3,207.25,0.5,127,153.85
2165,G2,207.562,0.5,127,153.85
2166,D3,207.562,0.5,127,153.85
2167,E3,207.75,1.0,100,153.85
2168,D2,207.75,1.0,127,153.85
2169,A2,207.75,1.0,127,153.85
2170,D2,208.0,0.25,127,153.85
2171,D2,208.062,99/100,127,153.85
2172,A2,208.062,99/100,127,153.85
2173,C2,208.25,1.0,127,153.85
2174,G3,208.75,0.25,100,153.85
2175,G3,209.0,0.75,100,153.85
2176,D2,209.0,0.25,127,153.85
2177,A2,209.0,0.25,127,153.85
2178,D2,209.25,1.0,127,153.85
2179,E2,209.25,1.0,127,153.85
2180,B2,209.25,1.0,127,153.85
2181,D2,209.312,13/50,127,153.85
2182,A2,209.312,13/50,127,153.85
2183,E2,209.573,1.0,127,153.85
2184,B2,209.573,1.0,127,153.85
2185,E2,209.75,0.5,100,153.85
2186,C2,210.25,1.0,127,153.85
2187,E2,210.25,0.5,100,153.85
2188,G3,210.25,1.0,127,153.85
2189,D4,210.25,1.0,127,153.85
2190,G3,210.573,1.0,127,153.85
2191,D4,210.573,1.0,127,153.85
2192,E2,210.75,0.5,100,153.85
2193,D2,211.25,0.75,127,153.85
2194,E2,211.25,0.5,100,153.85
2195,E3,211.25,0.5,127,153.85
2196,B3,211.25,0.5,127,153.85
2197,E3,211.573,0.5,127,153.85
2198,B3,211.573,0.5,127,153.85
2199,E2,211.75,0.5,100,153.85
2200,E3,211.75,0.5,127,153.85
2201,B3,211.75,0.5,127,153.85
2202,D2,212.0,0.25,127,153.85
2203,E3,212.073,0.5,127,153.85
2204,B3,212.073,0.5,127,153.85
2205,C2,212.25,0.5,127,153.85
2206,E2,212.25,0.5,100,153.85
2207,E3,212.25,0.5,127,153.85
2208,B3,212.25,0.5,127,153.85
2209,E3,212.573,0.5,127,153.85
2210,B3,212.573,0.5,127,153.85
2211,C2,212.75,0.5,127,153.85
2212,E2,212.75,0.25,100,153.85
2213,E3,212.75,0.25,127,153.85
2214,B3,212.75,0.25,127,153.85
2215,E2,213.0,0.25,100,153.85
2216,D2,213.0,3.0,100,153.85
2217,A2,213.0,3.0,100,153.85
2218,E3,213.073,6/25,127,153.85
2219,B3,213.073,6/25,127,153.85
2220,D2,213.25,1.0,127,153.85
2221,E2,213.25,0.5,100,153.85
2222,E3,213.25,0.25,127,153.85
2223,B3,213.25,0.25,127,153.85
2224,E3,213.5,0.5,127,153.85
2225,B3,213.5,0.5,127,153.85
2226,E3,213.573,13/50,127,153.85
2227,B3,213.573,13/50,127,153.85
2228,E2,213.75,0.5,100,153.85
2229,E3,213.833,0.5,127,153.85
2230,B3,213.833,0.5,127,153.85
2231,E3,214.0,0.5,127,153.85
2232,B3,214.0,0.5,127,153.85
2233,C#3,214.25,1.75,127,153.85
2234,C2,214.25,1.0,127,153.85
2235,E2,214.25,0.5,100,153.85
2236,E3,214.333,0.5,127,153.85
2237,B3,214.333,0.5,127,153.85
2238,E3,214.5,0.5,127,153.85
2239,B3,214.5,0.5,127,153.85
2240,E2,214.75,0.5,100,153.85
2241,E3,214.833,0.5,127,153.85
2242,B3,214.833,0.5,127,153.85
2243,E3,215.0,0.5,127,153.85
2244,B3,215.0,0.5,127,153.85
2245,D2,215.25,0.75,127,153.85
2246,E2,215.25,0.5,100,153.85
2247,E3,215.333,0.5,127,153.85
2248,B3,215.333,0.5,127,153.85
2249,E3,215.5,0.5,127,153.85
2250,B3,215.5,0.5,127,153.85
2251,A2,215.75,0.5,100,153.85
2252,E3,215.833,0.5,127,153.85
2253,B3,215.833,0.5,127,153.85
2254,E2,216.0,0.5,100,153.85
2255,C#3,216.0,4.0,127,153.85
2256,D2,216.0,0.25,127,153.85
2257,E3,216.0,0.5,127,153.85
2258,B3,216.0,0.5,127,153.85
2259,C2,216.25,0.5,127,153.85
2260,B2,216.25,0.5,100,153.85
2261,E3,216.333,0.5,127,153.85
2262,B3,216.333,0.5,127,153.85
2263,E2,216.5,0.5,100,153.85
2264,E3,216.5,0.5,127,153.85
2265,B3,216.5,0.5,127,153.85
2266,E2,216.5,1.0,127,153.85
2267,B2,216.5,1.0,127,153.85
2268,C2,216.75,0.5,127,153.85
2269,D2,216.75,0.25,100,153.85
2270,E3,216.833,0.5,127,153.85
2271,B3,216.833,0.5,127,153.85
2272,E2,217.0,0.5,100,153.85
2273,D2,217.0,0.25,100,153.85
2274,E3,217.0,0.25,127,153.85
2275,B3,217.0,0.25,127,153.85
2276,D2,217.25,1.0,127,153.85
2277,E3,217.25,0.5,100,153.85
2278,E3,217.333,6/25,127,153.85
2279,B3,217.333,6/25,127,153.85
2280,E2,217.5,0.5,100,153.85
2281,E3,217.5,0.25,127,153.85
2282,B3,217.5,0.25,127,153.85
2283,E2,217.5,4.0,127,153.85
2284,B2,217.5,4.0,127,153.85
2285,D3,217.75,0.5,100,153.85
2286,E3,217.75,0.5,127,153.85
2287,B3,217.75,0.5,127,153.85
2288,E3,217.833,13/50,127,153.85
2289,B3,217.833,13/50,127,153.85
2290,E2,218.0,0.5,100,153.85
2291,E3,218.094,0.5,127,153.85
2292,B3,218.094,0.5,127,153.85
2293,C2,218.25,0.5,127,153.85
2294,D3,218.25,0.5,100,153.85
2295,E3,218.25,0.5,127,153.85
2296,B3,218.25,0.5,127,153.85
2297,E2,218.5,0.5,100,153.85
2298,E3,218.594,0.5,127,153.85
2299,B3,218.594,0.5,127,153.85
2300,D2,218.75,1.25,127,153.85
2301,D3,218.75,0.5,100,153.85
2302,E3,218.75,0.5,127,153.85
2303,B3,218.75,0.5,127,153.85
2304,E2,219.0,0.5,100,153.85
2305,E3,219.094,0.5,127,153.85
2306,B3,219.094,0.5,127,153.85
2307,D3,219.25,0.5,100,153.85
2308,E3,219.25,0.5,127,153.85
2309,B3,219.25,0.5,127,153.85
2310,E2,219.5,0.5,100,153.85
2311,E3,219.594,0.5,127,153.85
2312,B3,219.594,0.5,127,153.85
2313,D3,219.75,0.5,100,153.85
2314,D3,219.75,0.5,127,153.85
2315,A3,219.75,0.5,127,153.85
2316,E2,220.0,0.5,100,153.85
2317,D2,220.0,1.0,127,153.85
2318,C#3,220.0,2.0,127,153.85
2319,D3,220.094,0.5,127,153.85
2320,A3,220.094,0.5,127,153.85
2321,D3,220.25,0.5,100,153.85
2322,D3,220.25,0.5,127,153.85
2323,A3,220.25,0.5,127,153.85
2324,E2,220.5,0.5,100,153.85
2325,D3,220.594,0.5,127,153.85
2326,A3,220.594,0.5,127,153.85
2327,D3,220.75,0.25,100,153.85
2328,D3,220.75,0.5,127,153.85
2329,A3,220.75,0.5,127,153.85
2330,E2,221.0,0.5,100,153.85
2331,D2,221.0,1.0,127,153.85
2332,D3,221.0,0.25,100,153.85
2333,D3,221.094,0.5,127,153.85
2334,A3,221.094,0.5,127,153.85
2335,D3,221.25,0.5,100,153.85
2336,D3,221.25,0.25,127,153.85
2337,A3,221.25,0.25,127,153.85
2338,E2,221.5,0.5,100,153.85
2339,D3,221.594,6/25,127,153.85
2340,A3,221.594,6/25,127,153.85
2341,G3,221.75,0.5,100,153.85
2342,D3,221.75,0.25,127,153.85
2343,A3,221.75,0.25,127,153.85
2344,A2,222.0,0.5,100,153.85
2345,C2,222.0,1.0,127,153.85
2346,D3,222.0,0.5,127,153.85
2347,A3,222.0,0.5,127,153.85
2348,D3,222.094,13/50,127,153.85
2349,A3,222.094,13/50,127,153.85
2350,D3,222.25,1.25,100,153.85
2351,D3,222.354,0.5,127,153.85
2352,A3,222.354,0.5,127,153.85
2353,B2,222.5,0.5,100,153.85
2354,D3,222.5,0.5,127,153.85
2355,A3,222.5,0.5,127,153.85
2356,D3,222.854,0.5,127,153.85
2357,A3,222.854,0.5,127,153.85
2358,D2,223.0,0.5,100,153.85
2359,D2,223.0,1.0,127,153.85
2360,D3,223.0,0.5,127,153.85
2361,A3,223.0,0.5,127,153.85
2362,D3,223.354,0.5,127,153.85
2363,A3,223.354,0.5,127,153.85
2364,E3,223.5,0.5,100,153.85
2365,E3,223.5,1.0,100,153.85
2366,D3,223.5,0.5,127,153.85
2367,A3,223.5,0.5,127,153.85
2368,D3,223.854,0.5,127,153.85
2369,A3,223.854,0.5,127,153.85
2370,D3,224.0,0.5,100,153.85
2371,C2,224.0,1.0,127,153.85
2372,G2,224.0,0.5,127,153.85
2373,D3,224.0,0.5,127,153.85
2374,G2,224.354,0.5,127,153.85
2375,D3,224.354,0.5,127,153.85
2376,D3,224.5,0.5,100,153.85
2377,G3,224.5,0.5,100,153.85
2378,D2,224.5,1.25,127,153.85
2379,A2,224.5,1.25,127,153.85
2380,E2,224.5,3.0,127,153.85
2381,B2,224.5,3.0,127,153.85
2382,D2,224.854,31/25,127,153.85
2383,A2,224.854,31/25,127,153.85
2384,D3,225.0,0.5,100,153.85
2385,D2,225.0,1.0,127,153.85
2386,G3,225.0,0.5,100,153.85
2387,D3,225.5,0.5,100,153.85
2388,E2,225.5,0.5,100,153.85
2389,E2,225.75,1.0,127,153.85
2390,B2,225.75,1.0,127,153.85
2391,D3,226.0,0.5,100,153.85
2392,C2,226.0,1.0,127,153.85
2393,E2,226.0,0.5,100,153.85
2394,D2,226.104,1/100,127,153.85
2395,A2,226.104,1/100,127,153.85
2396,E2,226.115,1.0,127,153.85
2397,B2,226.115,1.0,127,153.85
2398,D3,226.5,0.5,100,153.85
2399,E2,226.5,0.5,100,153.85
2400,G3,226.75,3.0,127,153.85
2401,D4,226.75,3.0,127,153.85
2402,D3,227.0,0.5,100,153.85
2403,D2,227.0,1.0,127,153.85
2404,E2,227.0,0.5,100,153.85
2405,G3,227.115,299/100,127,153.85
2406,D4,227.115,299/100,127,153.85
2407,D3,227.5,0.5,100,153.85
2408,E2,227.5,0.5,100,153.85
2409,G3,228.0,0.5,100,153.85
2410,C2,228.0,0.5,127,153.85
2411,E2,228.0,0.5,100,153.85
2412,D3,228.5,0.5,100,153.85
2413,C2,228.5,0.5,127,153.85
2414,E2,228.5,0.5,100,153.85
2415,D3,229.0,0.75,100,153.85
2416,D2,229.0,1.0,127,153.85
2417,E2,229.0,0.5,100,153.85
2418,E2,229.5,0.5,100,153.85
2419,E3,229.75,1.0,100,153.85
2420,C2,230.0,1.0,127,153.85
2421,E2,230.0,0.5,100,153.85
2422,E2,230.5,0.5,100,153.85
2423,G3,230.75,1.0,100,153.85
2424,D2,231.0,1.0,127,153.85
2425,E2,231.0,0.5,100,153.85
2426,A2,231.5,0.5,100,153.85
2427,E2,231.75,0.5,100,153.85
2428,C2,232.0,0.5,127,153.85
2429,B2,232.0,0.5,100,153.85
2430,E2,232.25,0.5,100,153.85
2431,C2,232.5,0.5,127,153.85
2432,D2,232.5,0.5,100,153.85
2433,E2,232.75,0.25,100,153.85
2434,E2,233.0,0.25,100,153.85
2435,D2,233.0,1.0,127,153.85
2436,E3,233.0,0.5,100,153.85
2437,E2,233.25,0.5,100,153.85
2438,D3,233.5,0.5,100,153.85
2439,E2,233.75,0.5,100,153.85
2440,C2,234.0,0.5,127,153.85
2441,D3,234.0,0.5,100,153.85
2442,E2,234.25,0.5,100,153.85
2443,D2,234.5,1.25,127,153.85
2444,D3,234.5,0.5,100,153.85
2445,E2,234.75,0.5,100,153.85
2446,D3,235.0,0.5,100,153.85
2447,E2,235.25,0.5,100,153.85
2448,E2,235.25,1.25,127,153.85
2449,B2,235.25,1.25,127,153.85
2450,D3,235.5,0.5,100,153.85
2451,E2,235.75,0.5,100,153.85
2452,D2,235.75,0.25,127,153.85
2453,D2,236.0,0.75,127,153.85
2454,D3,236.0,0.5,100,153.85
2455,E2,236.25,0.5,100,153.85
2456,D3,236.5,0.5,100,153.85
2457,E2,236.5,4.0,127,153.85
2458,B2,236.5,4.0,127,153.85
2459,E2,236.75,0.25,100,153.85
2460,D2,236.75,1.0,127,153.85
2461,E2,237.0,0.25,100,153.85
2462,D3,237.0,0.5,100,153.85
2463,E2,237.25,0.5,100,153.85
2464,G3,237.5,0.5,100,153.85
2465,A2,237.75,0.5,100,153.85
2466,C2,237.75,1.0,127,153.85
2467,D3,238.0,1.25,100,153.85
2468,B2,238.25,0.5,100,153.85
2469,D2,238.75,0.5,100,153.85
2470,D2,238.75,1.0,127,153.85
2471,E3,239.25,0.5,100,153.85
2472,E3,239.25,1.0,100,153.85
2473,D3,239.75,0.5,100,153.85
2474,C2,239.75,0.25,127,153.85
2475,C2,240.0,0.75,127,153.85
2476,D3,240.25,0.5,100,153.85
2477,G3,240.25,0.75,100,153.85
2478,D3,240.75,0.25,100,153.85
2479,D2,240.75,1.0,127,153.85
2480,D3,241.0,0.25,100,153.85
2481,G3,241.0,0.25,100,153.85
2482,D3,241.25,0.5,100,153.85
2483,E2,241.25,0.5,100,153.85
2484,D3,241.75,0.5,100,153.85
2485,C2,241.75,1.0,127,153.85
2486,E2,241.75,0.5,100,153.85
2487,D3,242.25,0.5,100,153.85
2488,E2,242.25,0.5,100,153.85
2489,D3,242.75,0.5,100,153.85
2490,D2,242.75,1.0,127,153.85
2491,E2,242.75,0.5,100,153.85
2492,D3,243.25,0.5,100,153.85
2493,E2,243.25,0.5,100,153.85
2494,E2,243.25,2.75,127,153.85
2495,B2,243.25,2.75,127,153.85
2496,G3,243.75,0.5,100,153.85
2497,C2,243.75,0.25,127,153.85
2498,E2,243.75,0.5,100,153.85
2499,C2,244.0,0.25,127,153.85
2500,D3,244.25,0.75,100,153.85
2501,C2,244.25,0.5,127,153.85
2502,E2,244.25,0.5,100,153.85
2503,D2,244.75,1.0,127,153.85
2504,E2,244.75,0.25,100,153.85
2505,D3,245.0,0.5,100,153.85
2506,E2,245.0,0.25,100,153.85
2507,E2,245.25,0.5,100,153.85
2508,E3,245.5,1.0,100,153.85
2509,C2,245.75,1.0,127,153.85
2510,E2,245.75,0.5,100,153.85
2511,E2,246.25,0.5,100,153.85
2512,G3,246.5,1.0,100,153.85
2513,D2,246.75,1.0,127,153.85
2514,E2,246.75,0.5,100,153.85
2515,A2,247.25,0.5,100,153.85
2516,E2,247.5,0.5,100,153.85
2517,C2,247.75,0.25,127,153.85
2518,B2,247.75,0.5,100,153.85
2519,E2,248.0,0.5,100,153.85
2520,C2,248.0,0.25,127,153.85
2521,C2,248.25,0.5,127,153.85
2522,D2,248.25,0.5,100,153.85
2523,E2,248.5,0.5,100,153.85
2524,D2,248.75,1.0,127,153.85
2525,E3,248.75,0.25,100,153.85
2526,E2,249.0,0.5,100,153.85
2527,E3,249.0,0.25,100,153.85
2528,D3,249.25,0.5,100,153.85
2529,E2,249.5,0.5,100,153.85
2530,C2,249.75,0.5,127,153.85
2531,D3,249.75,0.5,100,153.85
2532,E2,250.0,0.5,100,153.85
2533,D2,250.25,1.25,127,153.85
2534,D3,250.25,0.5,100,153.85
2535,E2,250.5,0.5,100,153.85
2536,D3,250.75,0.5,100,153.85
2537,E2,251.0,0.5,100,153.85
2538,D3,251.25,0.5,100,153.85
2539,E2,251.5,0.5,100,153.85
2540,D2,251.5,0.5,127,153.85
2541,D3,251.75,0.5,100,153.85
2542,E2,252.0,0.5,100,153.85
2543,D2,252.0,0.5,127,153.85
2544,D3,252.25,0.5,100,153.85
2545,E2,252.5,0.5,100,153.85
2546,D2,252.5,1.0,127,153.85
2547,D3,252.75,0.25,100,153.85
2548,E2,253.0,0.5,100,153.85
2549,D3,253.0,0.25,100,153.85
2550,G3,253.25,0.5,100,153.85
2551,A2,253.5,0.5,100,153.85
2552,C2,253.5,1.0,127,153.85
2553,D3,253.75,1.25,100,153.85
2554,E2,253.75,1.5,127,153.85
2555,B2,253.75,1.5,127,153.85
2556,B2,254.0,0.5,100,153.85
2557,D2,254.5,0.5,100,153.85
2558,D2,254.5,1.0,127,153.85
2559,E3,255.0,0.5,100,153.85
2560,E3,255.0,1.0,100,153.85
2561,E2,255.25,4.0,127,153.85
2562,B2,255.25,4.0,127,153.85
2563,D3,255.5,0.5,100,153.85
2564,C2,255.5,0.5,127,153.85
2565,D3,256.0,0.5,100,153.85
2566,C2,256.0,0.5,127,153.85
2567,G3,256.0,1.0,100,153.85
2568,D3,256.5,0.5,100,153.85
2569,D2,256.5,1.0,127,153.85
2570,D3,257.0,0.5,100,153.85
2571,E2,257.0,0.5,100,153.85
2572,D3,257.5,0.5,100,153.85
2573,C2,257.5,1.0,127,153.85
2574,E2,257.5,0.5,100,153.85
2575,D3,258.0,0.5,100,153.85
2576,E2,258.0,0.5,100,153.85
2577,D3,258.5,0.5,100,153.85
2578,D2,258.5,1.0,127,153.85
2579,E2,258.5,0.5,100,153.85
2580,D3,259.0,0.5,100,153.85
2581,E2,259.0,0.5,100,153.85
2582,G3,259.5,0.5,100,153.85
2583,C2,259.5,0.5,127,153.85
2584,E2,259.5,0.5,100,153.85
2585,D3,260.0,1.0,100,153.85
2586,C2,260.0,0.5,127,153.85
2587,E2,260.0,0.5,100,153.85
2588,D2,260.5,1.0,127,153.85
2589,E2,260.5,0.5,100,153.85
2590,D3,261.0,0.25,100,153.85
2591,E2,261.0,0.5,100,153.85
2592,E3,261.25,1.0,100,153.85
2593,C2,261.5,1.0,127,153.85
2594,E2,261.5,0.5,100,153.85
2595,E2,261.75,2.5,127,153.85
2596,B2,261.75,2.5,127,153.85
2597,E2,262.0,0.5,100,153.85
2598,G3,262.25,1.0,100,153.85
2599,D2,262.5,1.0,127,153.85
2600,E2,262.5,0.5,100,153.85
2601,A2,263.0,0.5,100,153.85
2602,E2,263.25,0.5,100,153.85
2603,C2,263.5,0.5,127,153.85
2604,B2,263.5,0.5,100,153.85
2605,E2,263.75,0.5,100,153.85
2606,C2,264.0,0.5,127,153.85
2607,D2,264.0,0.5,100,153.85
2608,E2,264.25,0.5,100,153.85
2609,D2,264.5,1.0,127,153.85
2610,E3,264.5,0.5,100,153.85
2611,E2,264.75,0.25,100,153.85
2612,E2,265.0,0.25,100,153.85
2613,D3,265.0,0.5,100,153.85
2614,E2,265.25,0.5,100,153.85
2615,C2,265.5,0.5,127,153.85
2616,D3,265.5,0.5,100,153.85
2617,E2,265.75,0.5,100,153.85
2618,D2,266.0,1.25,127,153.85
2619,D3,266.0,0.5,100,153.85
2620,E2,266.25,0.5,100,153.85
2621,D3,266.5,0.5,100,153.85
2622,E2,266.75,0.5,100,153.85
2623,D3,267.0,0.5,100,153.85
2624,E2,267.25,0.5,100,153.85
2625,D2,267.25,0.75,127,153.85
2626,D3,267.5,0.5,100,153.85
2627,E2,267.75,0.5,100,153.85
2628,D2,268.0,0.25,127,153.85
2629,D3,268.0,0.5,100,153.85
2630,E2,268.25,0.5,100,153.85
2631,D2,268.25,1.0,127,153.85
2632,D3,268.5,0.5,100,153.85
2633,E2,268.75,0.25,100,153.85
2634,E2,269.0,0.25,100,153.85
2635,G3,269.0,0.5,100,153.85
2636,A2,269.25,0.5,100,153.85
2637,C2,269.25,1.0,127,153.85
2638,D3,269.5,1.25,100,153.85
2639,B2,269.75,0.5,100,153.85
2640,D2,270.25,0.5,100,153.85
2641,D2,270.25,1.0,127,153.85
2642,E3,270.75,0.5,100,153.85
2643,E3,270.75,1.0,100,153.85
2644,D3,271.25,0.5,100,153.85
2645,C2,271.25,0.75,127,153.85
2646,D3,271.75,0.5,100,153.85
2647,G3,271.75,1.0,100,153.85
2648,C2,272.0,0.25,127,153.85
2649,E2,272.0,1.75,127,153.85
2650,B2,272.0,1.75,127,153.85
2651,D3,272.25,0.5,100,153.85
2652,D2,272.25,1.0,127,153.85
2653,D3,272.75,0.25,100,153.85
2654,E2,272.75,0.25,100,153.85
2655,D3,273.0,0.25,100,153.85
2656,E2,273.0,0.25,100,153.85
2657,D3,273.25,0.5,100,153.85
2658,C2,273.25,1.0,127,153.85
2659,E2,273.25,0.5,100,153.85
2660,D3,273.75,0.5,100,153.85
2661,E2,273.75,0.5,100,153.85
2662,E2,273.75,4.0,127,153.85
2663,B2,273.75,4.0,127,153.85
2664,D3,274.25,0.5,100,153.85
2665,D2,274.25,1.0,127,153.85
2666,E2,274.25,0.5,100,153.85
2667,D3,274.75,0.5,100,153.85
2668,E2,274.75,0.5,100,153.85
2669,G3,275.25,0.5,100,153.85
2670,C2,275.25,0.5,127,153.85
2671,E2,275.25,0.5,100,153.85
2672,D3,275.75,1.25,100,153.85
2673,C2,275.75,0.25,127,153.85
2674,E2,275.75,0.5,100,153.85
2675,C2,276.0,0.25,127,153.85
2676,D2,276.25,1.0,127,153.85
2677,E2,276.25,0.5,100,153.85
2678,E2,276.75,0.25,100,153.85
2679,E3,277.0,1.0,100,153.85
2680,E2,277.0,0.25,100,153.85
2681,C2,277.25,1.0,127,153.85
2682,E2,277.25,0.5,100,153.85
2683,E2,277.75,0.5,100,153.85
2684,G3,278.0,1.0,100,153.85
2685,D2,278.25,1.0,127,153.85
2686,E2,278.25,0.5,100,153.85
2687,A2,278.75,0.5,100,153.85
2688,E2,279.0,0.5,100,153.85
2689,C2,279.25,0.5,127,153.85
2690,B2,279.25,0.5,100,153.85
2691,E2,279.5,0.5,100,153.85
2692,C2,279.75,0.25,127,153.85
2693,D2,279.75,0.5,100,153.85
2694,E2,280.0,0.5,100,153.85
2695,C2,280.0,0.25,127,153.85
2696,E2,280.0,2.25,127,153.85
2697,B2,280.0,2.25,127,153.85
2698,D2,280.25,1.0,127,153.85
2699,E3,280.25,0.5,100,153.85
2700,E2,280.5,0.5,100,153.85
2701,D3,280.75,0.25,100,153.85
2702,E2,281.0,0.5,100,153.85
2703,D3,281.0,0.25,100,153.85
2704,C2,281.25,0.5,127,153.85
2705,D3,281.25,0.5,100,153.85
2706,E2,281.5,0.5,100,153.85
2707,D2,281.75,1.25,127,153.85
2708,D3,281.75,0.5,100,153.85
2709,E2,282.0,0.5,100,153.85
2710,D3,282.25,0.5,100,153.85
2711,E2,282.5,0.5,100,153.85
2712,D3,282.75,0.5,100,153.85
2713,E2,283.0,0.5,100,153.85
2714,D2,283.0,1.0,127,153.85
2715,D3,283.25,0.5,100,153.85
2716,E2,283.5,0.5,100,153.85
2717,D3,283.75,0.5,100,153.85
2718,E2,284.0,0.5,100,153.85
2719,D2,284.0,1.0,127,153.85
2720,D3,284.25,0.5,100,153.85
2721,E2,284.5,0.5,100,153.85
2722,G3,284.75,0.25,100,153.85
2723,A2,285.0,0.5,100,153.85
2724,C2,285.0,1.0,127,153.85
2725,G3,285.0,0.25,100,153.85
2726,D3,285.25,1.25,100,153.85
2727,B2,285.5,0.5,100,153.85
2728,D2,286.0,0.5,100,153.85
2729,D2,286.0,1.0,127,153.85
2730,E3,286.5,0.5,100,153.85
2731,E3,286.5,1.0,100,153.85
2732,D3,287.0,0.5,100,153.85
2733,C2,287.0,1.0,127,153.85
2734,D3,287.5,0.5,100,153.85
2735,G3,287.5,1.0,100,153.85
2736,D3,288.0,0.5,100,153.85
2737,D2,288.0,1.0,127,153.85
2738,D3,288.5,0.5,100,153.85
2739,E2,288.5,0.5,100,153.85
2740,D3,289.0,0.5,100,153.85
2741,C2,289.0,1.0,127,153.85
2742,E2,289.0,0.5,100,153.85
2743,D3,289.5,0.5,100,153.85
2744,E2,289.5,0.5,100,153.85
2745,D3,290.0,0.5,100,153.85
2746,A4,290.0,0.5,127,153.85
2747,D2,290.0,1.0,127,153.85
2748,E2,290.0,0.5,100,153.85
2749,D3,290.5,0.5,100,153.85
2750,C4,290.5,0.5,127,153.85
2751,E2,290.5,0.5,100,153.85
2752,G3,291.0,0.5,100,153.85
2753,G4,291.0,0.5,127,153.85
2754,C2,291.0,0.5,127,153.85
2755,E2,291.0,0.5,100,153.85
2756,D3,291.5,1.25,100,153.85
2757,A4,291.5,0.5,127,153.85
2758,C2,291.5,0.5,127,153.85
2759,E2,291.5,0.5,100,153.85
2760,A4,292.0,2.0,127,153.85
2761,D2,292.0,1.0,127,153.85
2762,E2,292.0,0.5,100,153.85
2763,E2,292.5,0.5,100,153.85
2764,E3,292.75,0.25,100,153.85
2765,E3,293.0,0.75,100,153.85
2766,C2,293.0,1.0,127,153.85
2767,E2,293.0,0.5,100,153.85
2768,E2,293.5,0.5,100,153.85
2769,G3,293.75,1.0,100,153.85
2770,A4,294.0,0.5,127,153.85
2771,D2,294.0,1.0,127,153.85
2772,E2,294.0,0.5,100,153.85
2773,G4,294.5,0.5,127,153.85
2774,A2,294.5,0.5,100,153.85
2775,E2,294.75,0.5,100,153.85
2776,E4,295.0,0.5,127,153.85
2777,C2,295.0,0.5,127,153.85
2778,B2,295.0,0.5,100,153.85
2779,E2,295.25,0.5,100,153.85
2780,D4,295.5,0.5,127,153.85
2781,C2,295.5,0.5,127,153.85
2782,D2,295.5,0.5,100,153.85
2783,E2,295.75,0.5,100,153.85
2784,E4,296.0,0.5,127,153.85
2785,D2,296.0,1.0,127,153.85
2786,E3,296.0,0.5,100,153.85
2787,E2,296.25,0.5,100,153.85
2788,D4,296.5,0.5,127,153.85
2789,D3,296.5,0.5,100,153.85
2790,E2,296.75,0.25,100,153.85
2791,E2,297.0,0.25,100,153.85
2792,E4,297.0,0.5,127,153.85
2793,C2,297.0,0.5,127,153.85
2794,D3,297.0,0.5,100,153.85
2795,E2,297.25,0.5,100,153.85
2796,D4,297.5,0.5,127,153.85
2797,D2,297.5,1.25,127,153.85
2798,D3,297.5,0.5,100,153.85
2799,E2,297.75,0.5,100,153.85
2800,E4,298.0,2.0,127,153.85
2801,D3,298.0,0.5,100,153.85
2802,E2,298.25,0.5,100,153.85
2803,D3,298.5,0.5,100,153.85
2804,E2,298.75,0.5,100,153.85
2805,D2,298.75,1.0,127,153.85
2806,D3,299.0,0.5,100,153.85
2807,E2,299.25,0.5,100,153.85
2808,D3,299.5,0.5,100,153.85
2809,E2,299.75,0.5,100,153.85
2810,D2,299.75,0.25,127,153.85
2811,E4,300.0,2.0,127,153.85
2812,D2,300.0,0.75,127,153.85
2813,D3,300.0,0.5,100,153.85
2814,E2,300.25,0.5,100,153.85
2815,G3,300.5,0.5,100,153.85
2816,A2,300.75,0.25,100,153.85
2817,C2,300.75,1.0,127,153.85
2818,A2,301.0,0.25,100,153.85
2819,D3,301.0,1.25,100,153.85
2820,B2,301.25,0.5,100,153.85
2821,D2,301.75,0.5,100,153.85
2822,D2,301.75,1.0,127,153.85
2823,G4,302.0,0.5,127,153.85
2824,E3,302.25,0.5,100,153.85
2825,E3,302.25,1.0,100,153.85
2826,D4,302.5,1.25,127,153.85
2827,D3,302.75,0.5,100,153.85
2828,C2,302.75,1.0,127,153.85
2829,D3,303.25,0.5,100,153.85
2830,G3,303.25,1.0,100,153.85
2831,D3,303.75,0.5,100,153.85
2832,E4,303.75,0.25,127,153.85
2833,D2,303.75,0.25,127,153.85
2834,E4,304.0,0.75,127,153.85
2835,D2,304.0,0.75,127,153.85
2836,D3,304.25,0.5,100,153.85
2837,E2,304.25,0.5,100,153.85
2838,D3,304.75,0.25,100,153.85
2839,G4,304.75,1.0,127,153.85
2840,C2,304.75,1.0,127,153.85
2841,E2,304.75,0.25,100,153.85
2842,D3,305.0,0.25,100,153.85
2843,E2,305.0,0.25,100,153.85
2844,D3,305.25,0.5,100,153.85
2845,E2,305.25,0.5,100,153.85
2846,D3,305.75,0.5,100,153.85
2847,E3,305.75,0.5,127,153.85
2848,D2,305.75,1.0,127,153.85
2849,E2,305.75,0.5,100,153.85
2850,D3,306.25,0.5,100,153.85
2851,G3,306.25,0.5,127,153.85
2852,E2,306.25,0.5,100,153.85
2853,G3,306.5,4.0,127,153.85
2854,D4,306.5,4.0,127,153.85
2855,G3,306.75,0.5,100,153.85
2856,G3,306.75,0.5,127,153.85
2857,C2,306.75,0.5,127,153.85
2858,E2,306.75,0.5,100,153.85
2859,G3,306.865,4.0,127,153.85
2860,D4,306.865,4.0,127,153.85
2861,D3,307.25,1.25,100,153.85
2862,A3,307.25,0.5,127,153.85
2863,C2,307.25,0.5,127,153.85
2864,E2,307.25,0.5,100,153.85
2865,A3,307.75,0.25,127,153.85
2866,D2,307.75,0.25,127,153.85
2867,E2,307.75,0.5,100,153.85
2868,A3,308.0,0.25,127,153.85
2869,D2,308.0,0.75,127,153.85
2870,B3,308.25,0.5,127,153.85
2871,E2,308.25,0.5,100,153.85
2872,E3,308.5,0.5,100,153.85
2873,B3,308.75,0.5,127,153.85
2874,C#3,308.75,3.25,127,153.85
2875,C2,308.75,1.0,127,153.85
2876,E2,308.75,0.25,100,153.85
2877,E3,309.0,0.5,100,153.85
2878,E2,309.0,0.25,100,153.85
2879,D4,309.25,0.5,127,153.85
2880,E2,309.25,0.5,100,153.85
2881,G3,309.5,1.0,100,153.85
2882,D4,309.75,0.5,127,153.85
2883,D2,309.75,1.0,127,153.85
2884,E2,309.75,0.5,100,153.85
2885,E4,310.25,1.75,127,153.85
2886,A2,310.25,0.5,100,153.85
2887,E2,310.5,0.5,100,153.85
2888,C2,310.75,0.5,127,153.85
2889,B2,310.75,0.5,100,153.85
2890,E2,311.0,0.5,100,153.85
2891,C2,311.25,0.5,127,153.85
2892,D2,311.25,0.5,100,153.85
2893,E2,311.5,0.5,100,153.85
2894,D2,311.75,0.25,127,153.85
2895,E3,311.75,0.5,100,153.85
2896,E2,312.0,0.5,100,153.85
2897,E4,312.0,1.75,127,153.85
2898,C#3,312.0,4.0,127,153.85
2899,D2,312.0,0.75,127,153.85
2900,D3,312.25,0.5,100,153.85
2901,E2,312.5,0.5,100,153.85
2902,C2,312.75,0.5,127,153.85
2903,D3,312.75,0.25,100,153.85
2904,E2,313.0,0.5,100,153.85
2905,D3,313.0,0.25,100,153.85
2906,D2,313.25,1.25,127,153.85
2907,D3,313.25,0.5,100,153.85
2908,E2,313.5,0.5,100,153.85
2909,A4,313.75,0.5,127,153.85
2910,D3,313.75,0.5,100,153.85
2911,E2,314.0,0.5,100,153.85
2912,E4,314.25,0.5,127,153.85
2913,D3,314.25,0.5,100,153.85
2914,E2,314.5,0.5,100,153.85
2915,D2,314.5,1.0,127,153.85
2916,A4,314.75,0.5,127,153.85
2917,D3,314.75,0.5,100,153.85
2918,E2,315.0,0.5,100,153.85
2919,E4,315.25,0.75,127,153.85
2920,D3,315.25,0.5,100,153.85
2921,E2,315.5,0.5,100,153.85
2922,D2,315.5,0.5,127,153.85
2923,D3,315.75,0.5,100,153.85
2924,E2,316.0,0.5,100,153.85
2925,E4,316.0,1.75,127,153.85
2926,C#3,316.0,0.5,127,153.85
2927,D2,316.0,0.5,127,153.85
2928,G3,316.25,0.5,100,153.85
2929,A2,316.5,0.5,100,153.85
2930,C2,316.5,1.0,127,153.85
2931,D3,316.75,0.25,100,153.85
2932,B2,317.0,0.5,100,153.85
2933,D3,317.0,1.0,100,153.85
2934,D2,317.5,0.5,100,153.85
2935,D2,317.5,1.0,127,153.85
2936,G4,317.75,0.5,127,153.85
2937,E3,318.0,0.5,100,153.85
2938,E3,318.0,1.0,100,153.85
2939,D4,318.25,1.25,127,153.85
2940,D3,318.5,0.5,100,153.85
2941,C2,318.5,1.0,127,153.85
2942,D3,319.0,0.5,100,153.85
2943,G3,319.0,1.0,100,153.85
2944,D3,319.5,0.5,100,153.85
2945,E4,319.5,0.5,127,153.85
2946,D2,319.5,0.5,127,153.85
2947,D3,320.0,0.5,100,153.85
2948,E4,320.0,0.5,127,153.85
2949,D2,320.0,0.5,127,153.85
2950,E2,320.0,0.5,100,153.85
2951,D3,320.5,0.5,100,153.85
2952,G4,320.5,1.0,127,153.85
2953,C2,320.5,1.0,127,153.85
2954,E2,320.5,0.5,100,153.85
2955,D3,321.0,0.5,100,153.85
2956,E2,321.0,0.5,100,153.85
2957,D3,321.5,0.5,100,153.85
2958,E2,321.5,1.0,127,153.85
2959,D2,321.5,1.0,127,153.85
2960,E2,321.5,0.5,100,153.85
2961,D3,322.0,0.5,100,153.85
2962,E2,322.0,0.5,100,153.85
2963,G3,322.5,0.5,100,153.85
2964,F#2,322.5,1.0,127,153.85
2965,C2,322.5,0.5,127,153.85
2966,E2,322.5,0.5,100,153.85
2967,D3,323.0,1.25,100,153.85
2968,C2,323.0,0.5,127,153.85
2969,E2,323.0,0.5,100,153.85
2970,G2,323.5,0.5,127,153.85
2971,D2,323.5,0.5,127,153.85
2972,E2,323.5,0.5,100,153.85
2973,G2,324.0,0.5,127,153.85
2974,D2,324.0,0.5,127,153.85
2975,E2,324.0,0.5,100,153.85
2976,E3,324.25,0.75,100,153.85
2977,A2,324.5,1.0,127,153.85
2978,C#3,324.5,3.5,127,153.85
2979,C2,324.5,1.0,127,153.85
2980,E2,324.5,0.5,100,153.85
2981,E3,325.0,0.25,100,153.85
2982,E2,325.0,0.5,100,153.85
2983,G3,325.25,1.0,100,153.85
2984,B2,325.5,1.0,127,153.85
2985,D2,325.5,1.0,127,153.85
2986,E2,325.5,0.5,100,153.85
2987,A2,326.0,0.5,100,153.85
2988,E2,326.25,0.5,100,153.85
2989,D3,326.5,1.0,127,153.85
2990,C2,326.5,0.5,127,153.85
2991,B2,326.5,0.5,100,153.85
2992,E2,326.75,0.5,100,153.85
2993,C2,327.0,0.5,127,153.85
2994,D2,327.0,0.5,100,153.85
2995,E2,327.25,0.5,100,153.85
2996,E3,327.5,0.5,127,153.85
2997,D2,327.5,0.5,127,153.85
2998,E3,327.5,0.5,100,153.85
2999,E2,327.75,0.5,100,153.85
3000,E3,328.0,0.5,127,153.85
3001,C#3,328.0,0.5,127,153.85
3002,D2,328.0,0.5,127,153.85
3003,D3,328.0,0.5,100,153.85
3004,E2,328.25,0.5,100,153.85
3005,G3,328.5,1.0,127,153.85
3006,D3,328.5,0.5,100,153.85
3007,C#3,328.5,0.5,127,153.85
3008,C2,328.5,0.5,127,153.85
3009,E2,328.75,0.25,100,153.85
3010,E2,329.0,0.25,100,153.85
3011,D3,329.0,0.5,100,153.85
3012,C#3,329.0,1.25,127,153.85
3013,D2,329.0,1.25,127,153.85
3014,E2,329.25,0.5,100,153.85
3015,A3,329.5,2.5,127,153.85
3016,D3,329.5,0.5,100,153.85
3017,E2,329.75,0.5,100,153.85
3018,D3,330.0,0.5,100,153.85
3019,E2,330.25,0.5,100,153.85
3020,C#3,330.25,1.0,127,153.85
3021,D2,330.25,1.0,127,153.85
3022,D3,330.5,0.5,100,153.85
3023,E2,330.75,0.5,100,153.85
3024,D3,331.0,0.5,100,153.85
3025,E2,331.25,0.5,100,153.85
3026,C#3,331.25,0.5,127,153.85
3027,D2,331.25,0.75,127,153.85
3028,D3,331.5,0.5,100,153.85
3029,E2,331.75,0.5,100,153.85
3030,D2,331.75,0.25,127,153.85
3031,A3,332.0,1.5,127,153.85
3032,D2,332.0,0.25,127,153.85
3033,D2,332.0,0.25,127,153.85
3034,G3,332.0,0.5,100,153.85
3035,A2,332.25,0.5,100,153.85
3036,C2,332.25,1.0,127,153.85
3037,D3,332.5,0.5,100,153.85
3038,B2,332.75,0.25,100,153.85
3039,B2,333.0,0.25,100,153.85
3040,D3,333.0,0.75,100,153.85
3041,D2,333.25,0.5,100,153.85
3042,D2,333.25,1.0,127,153.85
3043,G4,333.5,0.5,127,153.85
3044,E3,333.75,0.5,100,153.85
3045,E3,333.75,1.0,100,153.85
3046,D4,334.0,1.25,127,153.85
3047,D3,334.25,0.5,100,153.85
3048,C2,334.25,1.0,127,153.85
3049,D3,334.75,0.5,100,153.85
3050,G3,334.75,1.0,100,153.85
3051,D3,335.25,0.5,100,153.85
3052,E4,335.25,0.75,127,153.85
3053,D2,335.25,0.75,127,153.85
3054,D3,335.75,0.5,100,153.85
3055,E2,335.75,0.5,100,153.85
3056,E4,336.0,0.25,127,153.85
3057,D2,336.0,0.25,127,153.85
3058,D3,336.25,0.5,100,153.85
3059,G4,336.25,1.0,127,153.85
3060,C2,336.25,1.0,127,153.85
3061,E2,336.25,0.5,100,153.85
3062,D3,336.75,0.25,100,153.85
3063,E2,336.75,0.25,100,153.85
3064,D3,337.0,0.25,100,153.85
3065,E2,337.0,0.25,100,153.85
3066,D3,337.25,0.5,100,153.85
3067,E4,337.25,0.25,127,153.85
3068,D2,337.25,1.0,127,153.85
3069,E2,337.25,0.5,100,153.85
3070,G4,337.5,0.25,127,153.85
3071,D3,337.75,0.5,100,153.85
3072,F#4,337.75,2.25,127,153.85
3073,E2,337.75,0.5,100,153.85
3074,G3,338.25,0.5,100,153.85
3075,C2,338.25,0.5,127,153.85
3076,E2,338.25,0.5,100,153.85
3077,D3,338.75,1.25,100,153.85
3078,C2,338.75,0.5,127,153.85
3079,E2,338.75,0.5,100,153.85
3080,D2,339.25,0.75,127,153.85
3081,E2,339.25,0.5,100,153.85
3082,E2,339.75,0.5,100,153.85
3083,E3,340.0,1.0,100,153.85
3084,F#4,340.0,1.25,127,153.85
3085,D2,340.0,0.25,127,153.85
3086,C#3,340.25,3.75,127,153.85
3087,C2,340.25,1.0,127,153.85
3088,E2,340.25,0.5,100,153.85
3089,E2,340.75,0.25,100,153.85
3090,G3,341.0,1.0,100,153.85
3091,E2,341.0,0.25,100,153.85
3092,E4,341.25,0.25,127,153.85
3093,D2,341.25,1.0,127,153.85
3094,E2,341.25,0.5,100,153.85
3095,G4,341.5,0.25,127,153.85
3096,F#4,341.75,2.25,127,153.85
3097,A2,341.75,0.5,100,153.85
3098,E2,342.0,0.5,100,153.85
3099,C2,342.25,0.5,127,153.85
3100,B2,342.25,0.5,100,153.85
3101,E2,342.5,0.5,100,153.85
3102,C2,342.75,0.5,127,153.85
3103,D2,342.75,0.5,100,153.85
3104,E2,343.0,0.5,100,153.85
3105,D2,343.25,0.75,127,153.85
3106,E3,343.25,0.5,100,153.85
3107,E2,343.5,0.5,100,153.85
3108,D3,343.75,0.5,100,153.85
3109,E2,344.0,0.5,100,153.85
3110,F#4,344.0,1.25,127,153.85
3111,C#3,344.0,0.25,127,153.85
3112,D2,344.0,0.25,127,153.85
3113,D3,344.25,0.5,100,153.85
3114,C#3,344.25,0.5,127,153.85
3115,C2,344.25,0.5,127,153.85
3116,E2,344.5,0.5,100,153.85
3117,D3,344.75,0.25,100,153.85
3118,C#3,344.75,1.25,127,153.85
3119,D2,344.75,1.25,127,153.85
3120,E2,345.0,0.5,100,153.85
3121,D3,345.0,0.25,100,153.85
3122,E4,345.25,0.25,127,153.85
3123,D3,345.25,0.5,100,153.85
3124,E2,345.5,0.5,100,153.85
3125,G4,345.5,0.25,127,153.85
3126,F#4,345.75,0.25,127,153.85
3127,D3,345.75,0.5,100,153.85
3128,E2,346.0,0.5,100,153.85
3129,E4,346.0,0.25,127,153.85
3130,C#3,346.0,1.0,127,153.85
3131,D2,346.0,1.0,127,153.85
3132,G4,346.25,0.25,127,153.85
3133,D3,346.25,0.5,100,153.85
3134,E2,346.5,0.5,100,153.85
3135,F#4,346.5,0.25,127,153.85
3136,E4,346.75,0.25,127,153.85
3137,D3,346.75,0.5,100,153.85
3138,E2,347.0,0.5,100,153.85
3139,G4,347.0,0.25,127,153.85
3140,C#3,347.0,1.0,127,153.85
3141,D2,347.0,1.0,127,153.85
3142,F#4,347.25,0.25,127,153.85
3143,D3,347.25,0.5,100,153.85
3144,E2,347.5,0.5,100,153.85
3145,E4,347.5,0.25,127,153.85
3146,G4,347.75,0.25,127,153.85
3147,G3,347.75,0.5,100,153.85
3148,A2,348.0,0.5,100,153.85
3149,F#3,348.0,0.25,127,153.85
3150,C2,348.0,1.0,127,153.85
3151,E4,348.25,0.25,127,153.85
3152,D3,348.25,0.75,100,153.85
3153,B2,348.5,0.5,100,153.85
3154,G4,348.5,0.25,127,153.85
3155,F#4,348.75,0.25,127,153.85
3156,D2,349.0,0.5,100,153.85
3157,E4,349.0,0.75,127,153.85
3158,D2,349.0,1.0,127,153.85
3159,D3,349.0,0.5,100,153.85
3160,E3,349.5,0.5,100,153.85
3161,E3,349.5,1.0,100,153.85
3162,D4,349.75,1.25,127,153.85
3163,D3,350.0,0.5,100,153.85
3164,C2,350.0,1.0,127,153.85
3165,D3,350.5,0.5,100,153.85
3166,G3,350.5,1.0,100,153.85
3167,D3,351.0,0.5,100,153.85
3168,E4,351.0,1.0,127,153.85
3169,D2,351.0,1.0,127,153.85
3170,D3,351.5,0.5,100,153.85
3171,E2,351.5,0.5,100,153.85
3172,D3,352.0,0.5,100,153.85
3173,G4,352.0,0.25,127,153.85
3174,C2,352.0,1.0,127,153.85
3175,E2,352.0,0.5,100,153.85
3176,G4,352.25,0.25,127,153.85
3177,D3,352.5,0.5,100,153.85
3178,F#4,352.5,0.25,127,153.85
3179,E2,352.5,0.5,100,153.85
3180,E4,352.75,0.25,127,153.85
3181,D3,353.0,0.5,100,153.85
3182,F#4,353.0,3.0,127,153.85
3183,D2,353.0,1.0,127,153.85
3184,E2,353.0,0.5,100,153.85
3185,D3,353.5,0.5,100,153.85
3186,E2,353.5,0.5,100,153.85
3187,G3,354.0,0.5,100,153.85
3188,C2,354.0,0.5,127,153.85
3189,E2,354.0,0.5,100,153.85
3190,D3,354.5,1.25,100,153.85
3191,C2,354.5,0.5,127,153.85
3192,E2,354.5,0.5,100,153.85
3193,D2,355.0,1.0,127,153.85
3194,E2,355.0,0.5,100,153.85
3195,E2,355.5,0.5,100,153.85
3196,E3,355.75,1.0,100,153.85
3197,F#4,356.0,1.0,127,153.85
3198,C#3,356.0,4.0,127,153.85
3199,C2,356.0,1.0,127,153.85
3200,E2,356.0,0.5,100,153.85
3201,E2,356.5,0.5,100,153.85
3202,G3,356.75,0.25,100,153.85
3203,G3,357.0,0.75,100,153.85
3204,D2,357.0,0.5,127,153.85
3205,D2,357.0,1.0,127,153.85
3206,E2,357.0,0.5,100,153.85
3207,E2,357.5,0.5,127,153.85
3208,A2,357.5,0.5,100,153.85
3209,E2,357.75,0.5,100,153.85
3210,G2,358.0,0.5,127,153.85
3211,C2,358.0,0.5,127,153.85
3212,B2,358.0,0.5,100,153.85
3213,E2,358.25,0.5,100,153.85
3214,A2,358.5,0.5,127,153.85
3215,C2,358.5,0.5,127,153.85
3216,D2,358.5,0.5,100,153.85
3217,E2,358.75,0.5,100,153.85
3218,A2,359.0,0.5,127,153.85
3219,D2,359.0,1.0,127,153.85
3220,E3,359.0,0.5,100,153.85
3221,E2,359.25,0.5,100,153.85
3222,B2,359.5,0.5,127,153.85
3223,D3,359.5,0.5,100,153.85
3224,E2,359.75,0.5,100,153.85
3225,D3,360.0,0.5,127,153.85
3226,D3,360.0,0.5,100,153.85
3227,C#3,360.0,0.5,127,153.85
3228,C2,360.0,0.5,127,153.85
3229,E2,360.25,0.5,100,153.85
3230,E3,360.5,3.5,127,153.85
3231,D3,360.5,0.5,100,153.85
3232,C#3,360.5,1.25,127,153.85
3233,D2,360.5,1.25,127,153.85
3234,E2,360.75,0.25,100,153.85
3235,E2,361.0,0.25,100,153.85
3236,D3,361.0,0.5,100,153.85
3237,E2,361.25,0.5,100,153.85
3238,D3,361.5,0.5,100,153.85
3239,E2,361.75,0.5,100,153.85
3240,C#3,361.75,2.0,127,153.85
3241,D2,361.75,1.0,127,153.85
3242,D3,362.0,0.5,100,153.85
3243,E2,362.25,0.5,100,153.85
3244,D3,362.5,0.5,100,153.85
3245,E2,362.75,0.5,100,153.85
3246,D2,362.75,1.0,127,153.85
3247,D3,363.0,0.5,100,153.85
3248,E2,363.25,0.5,100,153.85
3249,G3,363.5,0.5,100,153.85
3250,A2,363.75,0.5,100,153.85
3251,C2,363.75,0.25,127,153.85
3252,E3,364.0,1.0,127,153.85
3253,C2,364.0,0.75,127,153.85
3254,D3,364.0,1.0,100,153.85
3255,B2,364.25,0.5,100,153.85
3256,D2,364.75,0.25,100,153.85
3257,D2,364.75,1.0,127,153.85
3258,D2,365.0,0.25,100,153.85
3259,G4,365.0,0.5,127,153.85
3260,D3,365.0,0.25,100,153.85
3261,E3,365.25,0.5,100,153.85
3262,E3,365.25,1.0,100,153.85
3263,D4,365.5,1.25,127,153.85
3264,D3,365.75,0.5,100,153.85
3265,C2,365.75,0.5,127,153.85
3266,D3,366.25,0.5,100,153.85
3267,C2,366.25,0.5,127,153.85
3268,G3,366.25,1.0,100,153.85
3269,D3,366.75,0.5,100,153.85
3270,E4,366.75,1.0,127,153.85
3271,D2,366.75,1.0,127,153.85
3272,D3,367.25,0.5,100,153.85
3273,E2,367.25,0.5,100,153.85
3274,D3,367.75,0.5,100,153.85
3275,G4,367.75,0.25,127,153.85
3276,C#3,367.75,0.25,127,153.85
3277,C2,367.75,0.25,127,153.85
3278,E2,367.75,0.5,100,153.85
3279,G4,368.0,0.75,127,153.85
3280,C#3,368.0,1.75,127,153.85
3281,C2,368.0,0.75,127,153.85
3282,D3,368.25,0.5,100,153.85
3283,E2,368.25,0.5,100,153.85
3284,D3,368.75,0.25,100,153.85
3285,D2,368.75,1.0,127,153.85
3286,E2,368.75,0.25,100,153.85
3287,E2,368.75,3.25,127,153.85
3288,B2,368.75,3.25,127,153.85
3289,D3,369.0,0.25,100,153.85
3290,E2,369.0,0.25,100,153.85
3291,D3,369.25,0.5,100,153.85
3292,E2,369.25,0.5,100,153.85
3293,G3,369.75,0.5,100,153.85
3294,C#3,369.75,2.0,127,153.85
3295,C2,369.75,0.5,127,153.85
3296,E2,369.75,0.5,100,153.85
3297,D3,370.25,1.25,100,153.85
3298,C2,370.25,0.5,127,153.85
3299,E2,370.25,0.5,100,153.85
3300,D2,370.75,1.0,127,153.85
3301,E2,370.75,0.5,100,153.85
3302,E2,371.25,0.5,100,153.85
3303,E3,371.5,1.0,100,153.85
3304,C2,371.75,0.25,127,153.85
3305,E2,371.75,0.5,100,153.85
3306,C2,372.0,0.75,127,153.85
3307,E2,372.25,0.5,100,153.85
3308,G3,372.5,0.5,100,153.85
3309,D2,372.75,1.0,127,153.85
3310,E2,372.75,0.25,100,153.85
3311,G3,373.0,0.5,100,153.85
3312,E2,373.0,0.25,100,153.85
3313,A2,373.25,0.5,100,153.85
3314,E2,373.5,0.5,100,153.85
3315,C2,373.75,0.5,127,153.85
3316,B2,373.75,0.5,100,153.85
3317,E2,374.0,0.5,100,153.85
3318,C2,374.25,0.5,127,153.85
3319,D2,374.25,0.5,100,153.85
3320,E2,374.5,0.5,100,153.85
3321,D2,374.75,1.0,127,153.85
3322,E3,374.75,0.5,100,153.85
3323,E2,375.0,0.5,100,153.85
3324,D3,375.25,0.5,100,153.85
3325,E2,375.5,0.5,100,153.85
3326,C2,375.75,0.25,127,153.85
3327,D3,375.75,0.5,100,153.85
3328,E2,376.0,0.5,100,153.85
3329,C2,376.0,0.75,127,153.85
3330,D3,376.25,0.5,100,153.85
3331,E2,376.5,0.5,100,153.85
3332,D2,376.75,1.0,127,153.85
3333,D3,376.75,0.25,100,153.85
3334,E2,376.75,4.0,127,153.85
3335,B2,376.75,4.0,127,153.85
3336,E2,377.0,0.5,100,153.85
3337,D3,377.0,0.25,100,153.85
3338,D3,377.25,0.5,100,153.85
3339,E2,377.5,0.5,100,153.85
3340,D2,377.75,0.5,127,153.85
3341,D3,377.75,0.5,100,153.85
3342,E2,378.0,0.5,100,153.85
3343,D2,378.25,0.5,127,153.85
3344,D3,378.25,0.5,100,153.85
3345,E2,378.5,0.5,100,153.85
3346,D2,378.75,0.5,127,153.85
3347,D3,378.75,0.5,100,153.85
3348,E2,379.0,0.5,100,153.85
3349,D2,379.25,0.5,127,153.85
3350,G3,379.25,0.5,100,153.85
3351,A2,379.5,0.5,100,153.85
3352,C2,379.75,0.25,127,153.85
3353,D3,379.75,1.25,100,153.85
3354,B2,380.0,0.5,100,153.85
3355,C2,380.0,0.75,127,153.85
3356,D2,380.5,0.5,100,153.85
3357,D2,380.75,1.0,127,153.85
3358,E3,381.0,0.5,100,153.85
3359,E3,381.0,1.0,100,153.85
3360,D3,381.5,0.5,100,153.85
3361,E2,381.5,0.75,127,153.85
3362,B2,381.5,0.75,127,153.85
3363,C2,381.75,0.5,127,153.85
3364,D3,382.0,0.5,100,153.85
3365,G3,382.0,1.0,100,153.85
3366,C2,382.25,0.5,127,153.85
3367,D3,382.5,0.5,100,153.85
3368,D2,382.75,1.0,127,153.85
3369,D3,383.0,0.5,100,153.85
3370,E2,383.0,0.5,100,153.85
3371,G3,383.25,4.0,127,153.85
3372,D4,383.25,4.0,127,153.85
3373,D3,383.5,0.5,100,153.85
3374,E2,383.5,0.5,100,153.85
3375,G3,383.625,4.0,127,153.85
3376,D4,383.625,4.0,127,153.85
3377,C#3,383.75,0.25,127,153.85
3378,C2,383.75,0.25,127,153.85
3379,D3,384.0,0.5,100,153.85
3380,C#3,384.0,1.75,127,153.85
3381,C2,384.0,0.75,127,153.85
3382,E2,384.0,0.5,100,153.85
3383,D3,384.5,0.5,100,153.85
3384,E2,384.5,0.5,100,153.85
3385,D2,384.75,1.0,127,153.85
3386,D3,385.0,0.5,100,153.85
3387,E2,385.0,0.5,100,153.85
3388,G3,385.5,0.5,100,153.85
3389,E2,385.5,0.5,100,153.85
3390,C#3,385.75,2.0,127,153.85
3391,C2,385.75,0.5,127,153.85
3392,D3,386.0,1.25,100,153.85
3393,E2,386.0,0.5,100,153.85
3394,C2,386.25,0.5,127,153.85
3395,E2,386.5,0.5,100,153.85
3396,D2,386.75,1.0,127,153.85
3397,E2,387.0,0.5,100,153.85
3398,E3,387.25,1.0,100,153.85
3399,E2,387.5,0.5,100,153.85
3400,C2,387.75,0.25,127,153.85
3401,C2,388.0,0.75,127,153.85
3402,E2,388.0,0.5,100,153.85
3403,G3,388.25,0.75,100,153.85
3404,E2,388.5,0.5,100,153.85
3405,D2,388.75,1.0,127,153.85
3406,G3,389.0,0.25,100,153.85
3407,A2,389.0,0.5,100,153.85
3408,E2,389.25,0.5,100,153.85
3409,B2,389.5,0.5,100,153.85
3410,E2,389.75,0.5,100,153.85
3411,C2,389.75,0.5,127,153.85
3412,D2,390.0,0.5,100,153.85
3413,E2,390.0,3.5,127,153.85
3414,B2,390.0,3.5,127,153.85
3415,E2,390.25,0.5,100,153.85
3416,C2,390.25,0.5,127,153.85
3417,E3,390.5,0.5,100,153.85
3418,E2,390.75,0.5,100,153.85
3419,D2,390.75,1.0,127,153.85
3420,D3,391.0,0.5,100,153.85
3421,E2,391.25,0.5,100,153.85
3422,D3,391.5,0.5,100,153.85
3423,E2,391.75,0.5,100,153.85
3424,C2,391.75,0.25,127,153.85
3425,C2,392.0,0.75,127,153.85
3426,D3,392.0,0.5,100,153.85
3427,E2,392.25,0.5,100,153.85
3428,D3,392.5,0.5,100,153.85
3429,E2,392.75,0.25,100,153.85
3430,D2,392.75,1.0,127,153.85
3431,E2,393.0,0.25,100,153.85
3432,D3,393.0,0.5,100,153.85
3433,E2,393.25,0.5,100,153.85
3434,D3,393.5,0.5,100,153.85
3435,E2,393.5,4.0,127,153.85
3436,B2,393.5,4.0,127,153.85
3437,E2,393.75,0.5,100,153.85
3438,D2,393.75,0.5,127,153.85
3439,D3,394.0,0.5,100,153.85
3440,E2,394.25,0.5,100,153.85
3441,D2,394.25,0.5,127,153.85
3442,D3,394.5,0.5,100,153.85
3443,E2,394.75,0.5,100,153.85
3444,D2,394.75,0.5,127,153.85
3445,G3,395.0,0.5,100,153.85
3446,A2,395.25,0.5,100,153.85
3447,D2,395.25,0.5,127,153.85
3448,D3,395.5,1.25,100,153.85
3449,B2,395.75,0.5,100,153.85
3450,C2,395.75,0.25,127,153.85
3451,C2,396.0,0.75,127,153.85
3452,D2,396.25,0.5,100,153.85
3453,E3,396.75,0.25,100,153.85
3454,D2,396.75,1.0,127,153.85
3455,E3,396.75,0.25,100,153.85
3456,E3,397.0,0.25,100,153.85
3457,E3,397.0,0.75,100,153.85
3458,D3,397.25,0.5,100,153.85
3459,D3,397.75,0.5,100,153.85
3460,C2,397.75,1.0,127,153.85
3461,G3,397.75,1.0,100,153.85
3462,E2,398.0,0.5,127,153.85
3463,B2,398.0,0.5,127,153.85
3464,D3,398.25,0.5,100,153.85
3465,D3,398.75,0.5,100,153.85
3466,D2,398.75,1.0,127,153.85
3467,E2,398.75,2.25,100,153.85
3468,B2,398.75,2.25,100,153.85
3469,D3,399.25,0.5,100,153.85
3470,D3,399.75,0.5,100,153.85
3471,C2,399.75,0.25,127,153.85
3472,C2,400.0,0.75,127,153.85
3473,D3,400.25,0.5,100,153.85
3474,D3,400.75,0.25,100,153.85
3475,D2,400.75,1.0,127,153.85
3476,D3,401.0,0.25,100,153.85
3477,G3,401.25,0.5,100,153.85
3478,D3,401.75,1.25,100,153.85
3479,C2,401.75,0.5,127,153.85
3480,C2,402.25,0.5,127,153.85
3481,D2,402.75,1.0,127,153.85
3482,E2,402.75,1.75,100,153.85
3483,B2,402.75,1.75,100,153.85
3484,E3,403.0,1.0,100,153.85
3485,C2,403.75,0.25,127,153.85
3486,G3,404.0,1.0,100,153.85
3487,C2,404.0,0.75,127,153.85
3488,C2,404.5,2.0,100,153.85
3489,G2,404.5,2.0,100,153.85
3490,D2,404.75,1.0,127,153.85
3491,E2,405.0,0.5,100,153.85
3492,E2,405.5,0.5,100,153.85
3493,C2,405.75,0.5,127,153.85
3494,E2,406.0,0.5,100,153.85
3495,C2,406.25,0.5,127,153.85
3496,E2,406.25,3.75,127,153.85
3497,B2,406.25,3.75,127,153.85
3498,E2,406.5,0.5,100,153.85
3499,D2,406.5,0.25,100,153.85
3500,A2,406.5,0.25,100,153.85
3501,D2,406.75,1.0,127,153.85
3502,E2,407.0,0.5,100,153.85
3503,E2,407.5,0.5,100,153.85
3504,C2,407.75,0.25,127,153.85
3505,E2,408.0,0.5,100,153.85
3506,C2,408.0,0.25,127,153.85
3507,D2,408.25,1.25,127,153.85
3508,E2,408.5,0.5,100,153.85
3509,D2,408.5,1.75,100,153.85
3510,A2,408.5,1.75,100,153.85
3511,E2,409.0,0.5,100,153.85
3512,E2,409.5,0.5,100,153.85
3513,D2,409.5,1.0,127,153.85
3514,E2,410.0,0.5,100,153.85
3515,E2,410.0,4.0,127,153.85
3516,B2,410.0,4.0,127,153.85
3517,E3,410.25,0.5,100,153.85
3518,B3,410.25,0.5,100,153.85
3519,E2,410.5,0.5,100,153.85
3520,D2,410.5,1.0,127,153.85
3521,E3,410.75,0.5,100,153.85
3522,B3,410.75,0.5,100,153.85
3523,A2,411.0,0.5,100,153.85
3524,E3,411.25,0.5,100,153.85
3525,B3,411.25,0.5,100,153.85
3526,B2,411.5,0.5,100,153.85
3527,C2,411.5,0.5,127,153.85
3528,E3,411.75,0.5,100,153.85
3529,B3,411.75,0.5,100,153.85
3530,D2,412.0,0.5,100,153.85
3531,C2,412.0,0.5,127,153.85
3532,E3,412.25,0.25,100,153.85
3533,B3,412.25,0.25,100,153.85
3534,E3,412.5,0.5,100,153.85
3535,D2,412.5,1.0,127,153.85
3536,E3,412.75,0.25,100,153.85
3537,B3,412.75,0.25,100,153.85
3538,D3,413.0,0.5,100,153.85
3539,E3,413.0,0.5,100,153.85
3540,B3,413.0,0.5,100,153.85
3541,D3,413.5,0.5,100,153.85
3542,C2,413.5,1.0,127,153.85
3543,E3,413.5,0.5,100,153.85
3544,B3,413.5,0.5,100,153.85
3545,D3,414.0,0.5,100,153.85
3546,E3,414.0,0.5,100,153.85
3547,B3,414.0,0.5,100,153.85
3548,E2,414.25,0.25,127,153.85
3549,B2,414.25,0.25,127,153.85
3550,D3,414.5,0.5,100,153.85
3551,D2,414.5,1.0,127,153.85
3552,E3,414.5,0.5,100,153.85
3553,B3,414.5,0.5,100,153.85
3554,D3,415.0,0.5,100,153.85
3555,E3,415.0,0.5,100,153.85
3556,B3,415.0,0.5,100,153.85
3557,D3,415.5,0.5,100,153.85
3558,C2,415.5,0.5,127,153.85
3559,E3,415.5,0.5,100,153.85
3560,B3,415.5,0.5,100,153.85
3561,D3,416.0,0.5,100,153.85
3562,C2,416.0,0.5,127,153.85
3563,E3,416.0,0.5,100,153.85
3564,B3,416.0,0.5,100,153.85
3565,D3,416.5,0.5,100,153.85
3566,D2,416.5,1.0,127,153.85
3567,E3,416.5,0.25,100,153.85
3568,B3,416.5,0.25,100,153.85
3569,G3,417.0,0.5,100,153.85
3570,E3,417.0,0.25,100,153.85
3571,B3,417.0,0.25,100,153.85
3572,E3,417.25,0.5,100,153.85
3573,B3,417.25,0.5,100,153.85
3574,D3,417.5,1.25,100,153.85
3575,C2,417.5,0.5,127,153.85
3576,E3,417.75,0.5,100,153.85
3577,B3,417.75,0.5,100,153.85
3578,C2,418.0,0.5,127,153.85
3579,E3,418.25,0.5,100,153.85
3580,B3,418.25,0.5,100,153.85
3581,D2,418.5,1.0,127,153.85
3582,E3,418.75,1.0,100,153.85
3583,E2,418.75,2.25,100,153.85
3584,B2,418.75,2.25,100,153.85
3585,C2,419.5,0.5,127,153.85
3586,G3,419.75,1.0,100,153.85
3587,C2,420.0,0.5,127,153.85
3588,D2,420.5,1.0,127,153.85
3589,E2,420.75,0.25,100,153.85
3590,B2,420.75,0.25,100,153.85
3591,C2,421.5,0.5,127,153.85
3592,C2,422.0,0.5,127,153.85
3593,E2,422.25,4.0,127,153.85
3594,B2,422.25,4.0,127,153.85
3595,D2,422.5,1.0,127,153.85
3596,E2,422.75,1.75,100,153.85
3597,B2,422.75,1.75,100,153.85
3598,C2,423.5,0.5,127,153.85
3599,D2,424.0,1.25,127,153.85
3600,C2,424.5,2.0,100,153.85
3601,G2,424.5,2.0,100,153.85
3602,E2,424.75,3.75,100,153.85
3603,B2,424.75,3.75,100,153.85
3604,D2,425.25,2.75,127,153.85
3605,D2,426.5,0.25,100,153.85
3606,A2,426.5,0.25,100,153.85
3607,D2,428.0,2.0,127,153.85
3608,C2,428.5,0.25,100,153.85
3609,G2,428.5,0.25,100,153.85
3610,D2,428.5,1.75,100,153.85
3611,A2,428.5,1.75,100,153.85
3612,E2,430.25,4.0,127,153.85
3613,B2,430.25,4.0,127,153.85
3614,E3,430.25,0.5,100,153.85
3615,B3,430.25,0.5,100,153.85
3616,C2,430.5,1.75,100,153.85
3617,G2,430.5,1.75,100,153.85
3618,E3,430.75,0.5,100,153.85
3619,B3,430.75,0.5,100,153.85
3620,E3,431.25,0.5,100,153.85
3621,B3,431.25,0.5,100,153.85
3622,E3,431.75,0.5,100,153.85
3623,B3,431.75,0.5,100,153.85
3624,D2,432.25,2.0,100,153.85
3625,A2,432.25,2.0,100,153.85
3626,E3,432.25,0.25,100,153.85
3627,B3,432.25,0.25,100,153.85
3628,E3,432.75,0.25,100,153.85
3629,B3,432.75,0.25,100,153.85
3630,E3,433.0,0.5,100,153.85
3631,B3,433.0,0.5,100,153.85
3632,E3,433.5,0.5,100,153.85
3633,B3,433.5,0.5,100,153.85
3634,E3,434.0,0.5,100,153.85
3635,B3,434.0,0.5,100,153.85
3636,E3,434.25,0.25,100,153.85
3637,B3,434.25,0.25,100,153.85
3638,E3,434.5,0.5,100,153.85
3639,B3,434.5,0.5,100,153.85
3640,E3,434.75,0.25,100,153.85
3641,B3,434.75,0.25,100,153.85
3642,E3,435.0,0.5,100,153.85
3643,B3,435.0,0.5,100,153.85
3644,E3,435.0,0.5,100,153.85
3645,B3,435.0,0.5,100,153.85
3646,E3,435.5,0.5,100,153.85
3647,B3,435.5,0.5,100,153.85
3648,E3,435.5,0.5,100,153.85
3649,B3,435.5,0.5,100,153.85
3650,E3,436.0,0.5,100,153.85
3651,B3,436.0,0.5,100,153.85
3652,E3,436.0,0.5,100,153.85
3653,B3,436.0,0.5,100,153.85
3654,E3,436.5,0.5,100,153.85
3655,B3,436.5,0.5,100,153.85
3656,E3,436.5,0.25,100,153.85
3657,B3,436.5,0.25,100,153.85
3658,E3,437.0,0.5,100,153.85
3659,B3,437.0,0.5,100,153.85
3660,E3,437.0,0.25,100,153.85
3661,B3,437.0,0.25,100,153.85
3662,E3,437.25,0.5,100,153.85
3663,B3,437.25,0.5,100,153.85
3664,E3,437.5,0.5,100,153.85
3665,B3,437.5,0.5,100,153.85
3666,E3,437.75,0.5,100,153.85
3667,B3,437.75,0.5,100,153.85
3668,E3,438.0,0.5,100,153.85
3669,B3,438.0,0.5,100,153.85
3670,E3,438.25,0.5,100,153.85
3671,B3,438.25,0.5,100,153.85
3672,E3,438.5,0.25,100,153.85
3673,B3,438.5,0.25,100,153.85
3674,E2,438.75,0.5,100,153.85
3675,E3,439.0,0.25,100,153.85
3676,B3,439.0,0.25,100,153.85
3677,E2,439.25,0.5,100,153.85
3678,E3,439.25,0.5,100,153.85
3679,B3,439.25,0.5,100,153.85
3680,E2,439.75,0.5,100,153.85
3681,E3,439.75,0.5,100,153.85
3682,B3,439.75,0.5,100,153.85
3683,E2,440.25,0.5,100,153.85
3684,E3,440.25,0.5,100,153.85
3685,B3,440.25,0.5,100,153.85
3686,E2,440.75,0.25,100,153.85
3687,E3,440.75,0.5,100,153.85
3688,B3,440.75,0.5,100,153.85
3689,E2,441.0,0.25,100,153.85
3690,E2,441.25,0.5,100,153.85
3691,E3,441.25,0.5,100,153.85
3692,B3,441.25,0.5,100,153.85
3693,E2,441.75,0.5,100,153.85
3694,E3,441.75,0.5,100,153.85
3695,B3,441.75,0.5,100,153.85
3696,E2,442.0,0.25,127,153.85
3697,B2,442.0,0.25,127,153.85
3698,E2,442.25,0.5,100,153.85
3699,E3,442.25,0.5,100,153.85
3700,B3,442.25,0.5,100,153.85
3701,E2,442.25,3.75,127,153.85
3702,B2,442.25,3.75,127,153.85
3703,E2,442.75,0.5,100,153.85
3704,E2,442.75,0.25,100,153.85
3705,B2,442.75,0.25,100,153.85
3706,E2,443.25,0.5,100,153.85
3707,E2,443.75,0.5,100,153.85
3708,E2,444.25,0.5,100,153.85
3709,A2,444.75,0.25,100,153.85
3710,A2,445.0,0.25,100,153.85
3711,B2,445.25,0.5,100,153.85
3712,D2,445.75,0.5,100,153.85
3713,E3,446.25,0.5,100,153.85
3714,D3,446.75,0.5,100,153.85
3715,E2,446.75,3.75,100,153.85
3716,B2,446.75,3.75,100,153.85
3717,D3,447.25,0.5,100,153.85
3718,D3,447.75,0.5,100,153.85
3719,D3,448.25,0.5,100,153.85
3720,D3,448.75,0.25,100,153.85
3721,D3,449.0,0.25,100,153.85
3722,D3,449.25,0.5,100,153.85
3723,D3,449.75,0.5,100,153.85
3724,E2,450.0,0.25,127,153.85
3725,B2,450.0,0.25,127,153.85
3726,D3,450.25,0.5,100,153.85
3727,E2,450.25,4.0,127,153.85
3728,B2,450.25,4.0,127,153.85
3729,C2,450.5,0.25,100,153.85
3730,G2,450.5,0.25,100,153.85
3731,G3,450.75,0.5,100,153.85
3732,D3,451.25,1.25,100,153.85
3733,E3,452.5,0.5,100,153.85
3734,C2,452.5,1.75,100,153.85
3735,G2,452.5,1.75,100,153.85
3736,E3,453.0,0.5,100,153.85
3737,G3,453.5,1.0,100,153.85
3738,D2,454.25,2.0,100,153.85
3739,A2,454.25,2.0,100,153.85
3740,E2,454.5,0.5,100,153.85
3741,E2,455.0,0.5,100,153.85
3742,E2,455.5,0.5,100,153.85
3743,E2,456.0,0.5,100,153.85
3744,G3,456.0,4.0,127,153.85
3745,D4,456.0,4.0,127,153.85
3746,E3,456.25,0.25,100,153.85
3747,B3,456.25,0.25,100,153.85
3748,G3,456.385,4.0,127,153.85
3749,D4,456.385,4.0,127,153.85
3750,E2,456.5,0.5,100,153.85
3751,E3,456.75,0.25,100,153.85
3752,B3,456.75,0.25,100,153.85
3753,E2,457.0,0.5,100,153.85
3754,E3,457.0,0.5,100,153.85
3755,B3,457.0,0.5,100,153.85
3756,E2,457.5,0.5,100,153.85
3757,E3,457.5,0.5,100,153.85
3758,B3,457.5,0.5,100,153.85
3759,E2,458.0,0.5,100,153.85
3760,E3,458.0,0.5,100,153.85
3761,B3,458.0,0.5,100,153.85
3762,E2,458.0,3.75,127,153.85
3763,B2,458.0,3.75,127,153.85
3764,E2,458.5,0.5,100,153.85
3765,E3,458.5,0.5,100,153.85
3766,B3,458.5,0.5,100,153.85
3767,E2,459.0,0.5,100,153.85
3768,E3,459.0,0.5,100,153.85
3769,B3,459.0,0.5,100,153.85
3770,E2,459.5,0.5,100,153.85
3771,E3,459.5,0.5,100,153.85
3772,B3,459.5,0.5,100,153.85
3773,E2,460.0,0.5,100,153.85
3774,E3,460.0,0.5,100,153.85
3775,B3,460.0,0.5,100,153.85
3776,A2,460.5,0.5,100,153.85
3777,E3,460.5,0.25,100,153.85
3778,B3,460.5,0.25,100,153.85
3779,B2,461.0,0.5,100,153.85
3780,E3,461.0,0.25,100,153.85
3781,B3,461.0,0.25,100,153.85
3782,E3,461.25,0.5,100,153.85
3783,B3,461.25,0.5,100,153.85
3784,D3,461.5,0.5,100,153.85
3785,E3,461.75,0.5,100,153.85
3786,B3,461.75,0.5,100,153.85
3787,E2,461.75,0.25,127,153.85
3788,B2,461.75,0.25,127,153.85
3789,E3,462.0,0.5,100,153.85
3790,E3,462.25,0.5,100,153.85
3791,B3,462.25,0.5,100,153.85
3792,D3,462.5,0.5,100,153.85
3793,E3,462.75,0.5,100,153.85
3794,B3,462.75,0.5,100,153.85
3795,D3,463.0,0.5,100,153.85
3796,E3,463.25,0.5,100,153.85
3797,B3,463.25,0.5,100,153.85
3798,D3,463.5,0.5,100,153.85
3799,E3,463.75,0.5,100,153.85
3800,B3,463.75,0.5,100,153.85
3801,D3,464.0,0.5,100,153.85
3802,E3,464.25,0.5,100,153.85
3803,B3,464.25,0.5,100,153.85
3804,D3,464.5,0.5,100,153.85
3805,E2,464.75,0.25,100,153.85
3806,E2,465.0,0.25,100,153.85
3807,D3,465.0,0.5,100,153.85
3808,E2,465.25,0.5,100,153.85
3809,D3,465.5,0.5,100,153.85
3810,E2,465.75,0.5,100,153.85
3811,E2,465.75,3.75,127,153.85
3812,B2,465.75,3.75,127,153.85
3813,D3,466.0,0.5,100,153.85
3814,E2,466.25,0.5,100,153.85
3815,G2,466.5,0.5,100,153.85
3816,E2,466.75,0.5,100,153.85
3817,D2,467.0,1.25,100,153.85
3818,E2,467.25,0.5,100,153.85
3819,E2,467.75,0.5,100,153.85
3820,E2,468.25,0.5,100,153.85
3821,E2,468.25,0.75,100,153.85
3822,E2,468.75,0.25,100,153.85
3823,E2,469.0,0.25,100,153.85
3824,E2,469.0,4.0,100,153.85
3825,E2,469.25,0.5,100,153.85
3826,E2,469.75,0.5,100,153.85
3827,E2,470.25,0.5,100,153.85
3828,A2,470.75,0.5,100,153.85
3829,B2,471.25,0.5,100,153.85
3830,D2,471.75,0.5,100,153.85
3831,E3,472.25,0.5,100,153.85
3832,D3,472.75,0.25,100,153.85
3833,D3,473.0,0.25,100,153.85
3834,D3,473.25,0.5,100,153.85
3835,E2,473.5,0.25,127,153.85
3836,B2,473.5,0.25,127,153.85
3837,D3,473.75,0.5,100,153.85
3838,E2,473.75,4.0,127,153.85
3839,B2,473.75,4.0,127,153.85
3840,D3,474.25,0.5,100,153.85
3841,D3,474.75,0.5,100,153.85
3842,D3,475.25,0.5,100,153.85
3843,D3,475.75,0.5,100,153.85
3844,D3,476.25,0.5,100,153.85
3845,G3,476.75,0.25,100,153.85
3846,G3,477.0,0.25,100,153.85
3847,D3,477.25,1.25,100,153.85
3848,E3,478.5,1.0,100,153.85
3849,G3,479.5,1.0,100,153.85
3850,E2,480.5,0.5,100,153.85
3851,E2,481.0,0.5,100,153.85
3852,E2,481.5,0.5,100,153.85
3853,E2,481.5,3.75,127,153.85
3854,B2,481.5,3.75,127,153.85
3855,E2,482.0,0.5,100,153.85
3856,E2,482.5,0.5,100,153.85
3857,E2,483.0,0.5,100,153.85
3858,E2,483.5,0.5,100,153.85
3859,E2,484.0,0.5,100,153.85
3860,E2,484.5,0.5,100,153.85
3861,E2,485.0,0.5,100,153.85
3862,E2,485.25,0.25,127,153.85
3863,B2,485.25,0.25,127,153.85
3864,E2,485.5,0.5,100,153.85
3865,E2,486.0,0.5,100,153.85
3866,A2,486.5,0.5,100,153.85
3867,B2,487.0,0.5,100,153.85
3868,D3,487.5,0.5,100,153.85
3869,E3,488.0,0.5,100,153.85
3870,D3,488.5,0.5,100,153.85
3871,D3,489.0,0.5,100,153.85
3872,D3,489.5,0.5,100,153.85
3873,D3,490.0,0.5,100,153.85
3874,D3,490.5,0.5,100,153.85
3875,D3,491.0,0.5,100,153.85
3876,D3,491.5,0.5,100,153.85
3877,D3,492.0,0.5,100,153.85
3878,G2,492.5,0.5,100,153.85
3879,D2,493.0,1.25,100,153.85
3880,E2,494.25,2.75,100,153.85
3881,E2,497.0,2.0,100,153.85
3882,E2,501.0,4.0,127,153.85
3883,B2,501.0,4.0,127,153.85
3884,E2,516.5,4.0,127,153.85
3885,B2,516.5,4.0,127,153.85
3886,G3,524.75,4.0,127,153.85
3887,D4,524.75,4.0,127,153.85
3888,G3,525.146,4.0,127,153.85
3889,D4,525.146,4.0,127,153.85
3890,E2,528.0,4.0,127,153.85
3891,B2,528.0,4.0,127,153.85
3892,E2,535.5,3.5,127,153.85
3893,B2,535.5,3.5,127,153.85
3894,E2,539.0,0.5,127,153.85
3895,B2,539.0,0.5,127,153.85
3896,E2,557.5,4.0,127,153.85
3897,B2,557.5,4.0,127,153.85
3898,E2,575.5,4.0,127,153.85
3899,B2,575.5,4.0,127,153.85
3900,G3,589.5,4.0,127,153.85
3901,D4,589.5,4.0,127,153.85
3902,E2,589.5,4.0,127,153.85
3903,B2,589.5,4.0,127,153.85
3904,G3,589.906,4.0,127,153.85
3905,D4,589.906,4.0,127,153.85
3906,E2,599.5,4.0,127,153.85
3907,B2,599.5,4.0,127,153.85
3908,E2,605.5,2.0,127,153.85
3909,B2,605.5,2.0,127,153.85
3910,G3,650.25,4.0,127,153.85
3911,D4,650.25,4.0,127,153.85
3912,G3,650.667,4.0,127,153.85
3913,D4,650.667,4.0,127,153.85
3914,G3,707.0,4.0,127,153.85
3915,D4,707.0,4.0,127,153.85
3916,G3,707.427,4.0,127,153.85
3917,D4,707.427,4.0,127,153.85
3918,G3,759.75,4.0,127,153.85
3919,D4,759.75,4.0,127,153.85
3920,G3,760.188,4.0,127,153.85
3921,D4,760.188,4.0,127,153.85
3922,G3,808.5,4.0,127,153.85
3923,D4,808.5,4.0,127,153.85
3924,G3,808.948,4.0,127,153.85
3925,D4,808.948,4.0,127,153.85
3926,G3,853.25,4.0,127,153.85
3927,D4,853.25,4.0,127,153.85
3928,G3,853.708,4.0,127,153.85
3929,D4,853.708,4.0,127,153.85
3930,G3,894.0,4.0,127,153.85
3931,D4,894.0,4.0,127,153.85
3932,G3,894.469,4.0,127,153.85
3933,D4,894.469,4.0,127,153.85
3934,G3,930.75,4.0,127,153.85
3935,D4,930.75,4.0,127,153.85
3936,G3,931.229,4.0,127,153.85
3937,D4,931.229,4.0,127,153.85
3938,G3,963.5,4.0,127,153.85
3939,D4,963.5,4.0,127,153.85
3940,G3,963.99,4.0,127,153.85
3941,D4,963.99,4.0,127,153.85
3942,G3,992.25,4.0,127,153.85
3943,D4,992.25,4.0,127,153.85
3944,G3,992.75,4.0,127,153.85
3945,D4,992.75,4.0,127,153.85
3946,G3,1017.0,4.0,127,153.85
3947,D4,1017.0,4.0,127,153.85
3948,G3,1017.51,4.0,127,153.85
3949,D4,1017.51,4.0,127,153.85
3950,G3,1037.75,4.0,127,153.85
3951,D4,1037.75,4.0,127,153.85
3952,G3,1038.271,4.0,127,153.85
3953,D4,1038.271,4.0,127,153.85
3954,G3,1054.5,4.0,127,153.85
3955,D4,1054.5,4.0,127,153.85
3956,G3,1055.031,4.0,127,153.85
3957,D4,1055.031,4.0,127,153.85
3958,G3,1067.25,4.0,127,153.85
3959,D4,1067.25,4.0,127,153.85
3960,G3,1067.792,4.0,127,153.85
3961,D4,1067.792,4.0,127,153.85
3962,G3,1076.0,4.0,127,153.85
3963,D4,1076.0,4.0,127,153.85
3964,G3,1076.552,4.0,127,153.85
3965,D4,1076.552,4.0,127,153.85
3966,G3,1080.75,0.75,127,153.85
3967,D4,1080.75,0.75,127,153.85
3968,G3,1081.312,19/25,127,153.85
3969,D4,1081.312,19/25,127,153.85
3970,E3,1081.5,0.5,127,153.85
3971,B3,1081.5,0.5,127,153.85
3972,E3,1082.0,0.5,127,153.85
3973,B3,1082.0,0.5,127,153.85
3974,E3,1082.073,0.5,127,153.85
3975,B3,1082.073,0.5,127,153.85
3976,E3,1082.5,0.5,127,153.85
3977,B3,1082.5,0.5,127,153.85
3978,E3,1082.573,0.5,127,153.85
3979,B3,1082.573,0.5,127,153.85
3980,E3,1083.0,0.5,127,153.85
3981,B3,1083.0,0.5,127,153.85
3982,E3,1083.073,0.5,127,153.85
3983,B3,1083.073,0.5,127,153.85
3984,E3,1083.5,0.5,127,153.85
3985,B3,1083.5,0.5,127,153.85
3986,E3,1083.573,0.5,127,153.85
3987,B3,1083.573,0.5,127,153.85
3988,E3,1084.0,0.5,127,153.85
3989,B3,1084.0,0.5,127,153.85
3990,E3,1084.073,0.5,127,153.85
3991,B3,1084.073,0.5,127,153.85
3992,E3,1084.5,0.25,127,153.85
3993,B3,1084.5,0.25,127,153.85
3994,E3,1084.573,0.5,127,153.85
3995,B3,1084.573,0.5,127,153.85
3996,E3,1085.0,0.25,127,153.85
3997,B3,1085.0,0.25,127,153.85
3998,E3,1085.073,6/25,127,153.85
3999,B3,1085.073,6/25,127,153.85
4000,E3,1085.25,0.5,127,153.85
4001,B3,1085.25,0.5,127,153.85
4002,E3,1085.573,13/50,127,153.85
4003,B3,1085.573,13/50,127,153.85
4004,E3,1085.75,0.5,127,153.85
4005,B3,1085.75,0.5,127,153.85
4006,E3,1085.833,0.5,127,153.85
4007,B3,1085.833,0.5,127,153.85
4008,E3,1086.25,0.5,127,153.85
4009,B3,1086.25,0.5,127,153.85
4010,E3,1086.333,0.5,127,153.85
4011,B3,1086.333,0.5,127,153.85
4012,E3,1086.75,0.5,127,153.85
4013,B3,1086.75,0.5,127,153.85
4014,E3,1086.833,0.5,127,153.85
4015,B3,1086.833,0.5,127,153.85
4016,E3,1087.25,0.5,127,153.85
4017,B3,1087.25,0.5,127,153.85
4018,E3,1087.333,0.5,127,153.85
4019,B3,1087.333,0.5,127,153.85
4020,E3,1087.75,0.5,127,153.85
4021,B3,1087.75,0.5,127,153.85
4022,E3,1087.833,0.5,127,153.85
4023,B3,1087.833,0.5,127,153.85
4024,E3,1088.25,0.5,127,153.85
4025,B3,1088.25,0.5,127,153.85
4026,E3,1088.333,0.5,127,153.85
4027,B3,1088.333,0.5,127,153.85
4028,E3,1088.75,0.25,127,153.85
4029,B3,1088.75,0.25,127,153.85
4030,E3,1088.833,0.5,127,153.85
4031,B3,1088.833,0.5,127,153.85
4032,E3,1089.25,0.25,127,153.85
4033,B3,1089.25,0.25,127,153.85
4034,E3,1089.333,6/25,127,153.85
4035,B3,1089.333,6/25,127,153.85
4036,E3,1089.5,0.5,127,153.85
4037,B3,1089.5,0.5,127,153.85
4038,E3,1089.833,13/50,127,153.85
4039,B3,1089.833,13/50,127,153.85
4040,D3,1090.0,0.5,127,153.85
4041,A3,1090.0,0.5,127,153.85
4042,E3,1090.094,0.5,127,153.85
4043,B3,1090.094,0.5,127,153.85
4044,D3,1090.5,0.5,127,153.85
4045,A3,1090.5,0.5,127,153.85
4046,D3,1090.594,0.5,127,153.85
4047,A3,1090.594,0.5,127,153.85
4048,D3,1091.0,0.5,127,153.85
4049,A3,1091.0,0.5,127,153.85
4050,D3,1091.094,0.5,127,153.85
4051,A3,1091.094,0.5,127,153.85
4052,D3,1091.5,0.5,127,153.85
4053,A3,1091.5,0.5,127,153.85
4054,D3,1091.594,0.5,127,153.85
4055,A3,1091.594,0.5,127,153.85
4056,D3,1092.0,0.5,127,153.85
4057,A3,1092.0,0.5,127,153.85
4058,D3,1092.094,0.5,127,153.85
4059,A3,1092.094,0.5,127,153.85
4060,D3,1092.5,0.5,127,153.85
4061,A3,1092.5,0.5,127,153.85
4062,D3,1092.594,0.5,127,153.85
4063,A3,1092.594,0.5,127,153.85
4064,D3,1093.0,0.25,127,153.85
4065,A3,1093.0,0.25,127,153.85
4066,D3,1093.094,0.5,127,153.85
4067,A3,1093.094,0.5,127,153.85
4068,D3,1093.5,0.25,127,153.85
4069,A3,1093.5,0.25,127,153.85
4070,D3,1093.594,6/25,127,153.85
4071,A3,1093.594,6/25,127,153.85
4072,D3,1093.75,0.5,127,153.85
4073,A3,1093.75,0.5,127,153.85
4074,D3,1094.094,13/50,127,153.85
4075,A3,1094.094,13/50,127,153.85
4076,G2,1094.25,0.5,127,153.85
4077,D3,1094.25,0.5,127,153.85
4078,D3,1094.354,0.5,127,153.85
4079,A3,1094.354,0.5,127,153.85
4080,D2,1094.75,1.25,127,153.85
4081,A2,1094.75,1.25,127,153.85
4082,G2,1094.854,0.5,127,153.85
4083,D3,1094.854,0.5,127,153.85
4084,D2,1095.354,1.25,127,153.85
4085,A2,1095.354,1.25,127,153.85
4086,E2,1096.0,1.0,127,153.85
4087,B2,1096.0,1.0,127,153.85
4088,E2,1096.604,1.0,127,153.85
4089,B2,1096.604,1.0,127,153.85
4090,G3,1097.0,0.5,127,153.85
4091,D4,1097.0,0.5,127,153.85
4092,G3,1097.604,49/100,127,153.85
4093,D4,1097.604,49/100,127,153.85
4094,G3,1098.0,0.5,127,153.85
4095,D4,1098.0,0.5,127,153.85
4096,E3,1098.5,0.5,127,153.85
4097,B3,1098.5,0.5,127,153.85
4098,G3,1098.604,51/100,127,153.85
4099,D4,1098.604,51/100,127,153.85
4100,E3,1099.0,0.5,127,153.85
4101,B3,1099.0,0.5,127,153.85
4102,E3,1099.115,0.5,127,153.85
4103,B3,1099.115,0.5,127,153.85
4104,E3,1099.5,0.5,127,153.85
4105,B3,1099.5,0.5,127,153.85
4106,E3,1099.615,0.5,127,153.85
4107,B3,1099.615,0.5,127,153.85
4108,E3,1100.0,0.5,127,153.85
4109,B3,1100.0,0.5,127,153.85
4110,E3,1100.115,0.5,127,153.85
4111,B3,1100.115,0.5,127,153.85
4112,E3,1100.5,0.5,127,153.85
4113,B3,1100.5,0.5,127,153.85
4114,E3,1100.615,0.5,127,153.85
4115,B3,1100.615,0.5,127,153.85
4116,E3,1101.0,0.5,127,153.85
4117,B3,1101.0,0.5,127,153.85
4118,E3,1101.115,0.5,127,153.85
4119,B3,1101.115,0.5,127,153.85
4120,E3,1101.5,0.5,127,153.85
4121,B3,1101.5,0.5,127,153.85
4122,E3,1101.615,0.5,127,153.85
4123,B3,1101.615,0.5,127,153.85
4124,E3,1102.0,0.5,127,153.85
4125,B3,1102.0,0.5,127,153.85
4126,E3,1102.115,49/100,127,153.85
4127,B3,1102.115,49/100,127,153.85
4128,E3,1102.5,0.5,127,153.85
4129,B3,1102.5,0.5,127,153.85
4130,E3,1102.615,1/100,127,153.85
4131,B3,1102.615,1/100,127,153.85
4132,E3,1102.625,0.5,127,153.85
4133,B3,1102.625,0.5,127,153.85
4134,E3,1103.0,0.5,127,153.85
4135,B3,1103.0,0.5,127,153.85
4136,E3,1103.125,0.5,127,153.85
4137,B3,1103.125,0.5,127,153.85
4138,E3,1103.5,0.5,127,153.85
4139,B3,1103.5,0.5,127,153.85
4140,E3,1103.625,0.5,127,153.85
4141,B3,1103.625,0.5,127,153.85
4142,E3,1104.0,0.5,127,153.85
4143,B3,1104.0,0.5,127,153.85
4144,E3,1104.125,0.5,127,153.85
4145,B3,1104.125,0.5,127,153.85
4146,E3,1104.5,0.5,127,153.85
4147,B3,1104.5,0.5,127,153.85
4148,E3,1104.625,0.5,127,153.85
4149,B3,1104.625,0.5,127,153.85
4150,E3,1105.0,0.5,127,153.85
4151,B3,1105.0,0.5,127,153.85
4152,E3,1105.125,0.5,127,153.85
4153,B3,1105.125,0.5,127,153.85
4154,E3,1105.5,0.5,127,153.85
4155,B3,1105.5,0.5,127,153.85
4156,E3,1105.625,0.5,127,153.85
4157,B3,1105.625,0.5,127,153.85
4158,E3,1106.0,0.5,127,153.85
4159,B3,1106.0,0.5,127,153.85
4160,E3,1106.125,49/100,127,153.85
4161,B3,1106.125,49/100,127,153.85
4162,D3,1106.5,0.5,127,153.85
4163,A3,1106.5,0.5,127,153.85
4164,E3,1106.625,1/100,127,153.85
4165,B3,1106.625,1/100,127,153.85
4166,E3,1106.635,0.5,127,153.85
4167,B3,1106.635,0.5,127,153.85
4168,D3,1107.0,0.5,127,153.85
4169,A3,1107.0,0.5,127,153.85
4170,D3,1107.135,0.5,127,153.85
4171,A3,1107.135,0.5,127,153.85
4172,D3,1107.5,0.5,127,153.85
4173,A3,1107.5,0.5,127,153.85
4174,D3,1107.635,0.5,127,153.85
4175,A3,1107.635,0.5,127,153.85
4176,D3,1108.0,0.5,127,153.85
4177,A3,1108.0,0.5,127,153.85
4178,D3,1108.135,0.5,127,153.85
4179,A3,1108.135,0.5,127,153.85
4180,D3,1108.5,0.5,127,153.85
4181,A3,1108.5,0.5,127,153.85
4182,D3,1108.635,0.5,127,153.85
4183,A3,1108.635,0.5,127,153.85
4184,D3,1109.0,0.5,127,153.85
4185,A3,1109.0,0.5,127,153.85
4186,D3,1109.135,0.5,127,153.85
4187,A3,1109.135,0.5,127,153.85
4188,D3,1109.5,0.5,127,153.85
4189,A3,1109.5,0.5,127,153.85
4190,D3,1109.635,0.5,127,153.85
4191,A3,1109.635,0.5,127,153.85
4192,D3,1110.0,0.5,127,153.85
4193,A3,1110.0,0.5,127,153.85
4194,D3,1110.135,49/100,127,153.85
4195,A3,1110.135,49/100,127,153.85
4196,G2,1110.5,0.5,127,153.85
4197,D3,1110.5,0.5,127,153.85
4198,D3,1110.635,1/100,127,153.85
4199,A3,1110.635,1/100,127,153.85
4200,D3,1110.646,0.5,127,153.85
4201,A3,1110.646,0.5,127,153.85
4202,D2,1111.0,1.25,127,153.85
4203,A2,1111.0,1.25,127,153.85
4204,G2,1111.146,0.5,127,153.85
4205,D3,1111.146,0.5,127,153.85
4206,D2,1111.646,1.25,127,153.85
4207,A2,1111.646,1.25,127,153.85
4208,E2,1112.25,1.0,127,153.85
4209,B2,1112.25,1.0,127,153.85
4210,E2,1112.896,1.0,127,153.85
4211,B2,1112.896,1.0,127,153.85
4212,G3,1113.25,0.75,127,153.85
4213,D4,1113.25,0.75,127,153.85
4214,G3,1113.896,37/50,127,153.85
4215,D4,1113.896,37/50,127,153.85
4216,G3,1114.25,0.25,127,153.85
4217,D4,1114.25,0.25,127,153.85
4218,E3,1114.5,0.5,127,153.85
4219,B3,1114.5,0.5,127,153.85
4220,G3,1114.896,13/50,127,153.85
4221,D4,1114.896,13/50,127,153.85
4222,E3,1115.0,0.5,127,153.85
4223,B3,1115.0,0.5,127,153.85
4224,E3,1115.156,0.5,127,153.85
4225,B3,1115.156,0.5,127,153.85
4226,E3,1115.5,0.5,127,153.85
4227,B3,1115.5,0.5,127,153.85
4228,E3,1115.656,0.5,127,153.85
4229,B3,1115.656,0.5,127,153.85
4230,E3,1116.0,0.5,127,153.85
4231,B3,1116.0,0.5,127,153.85
4232,E3,1116.156,0.5,127,153.85
4233,B3,1116.156,0.5,127,153.85
4234,E3,1116.5,0.5,127,153.85
4235,B3,1116.5,0.5,127,153.85
4236,E3,1116.656,0.5,127,153.85
4237,B3,1116.656,0.5,127,153.85
4238,E3,1117.0,0.5,127,153.85
4239,B3,1117.0,0.5,127,153.85
4240,E3,1117.156,0.5,127,153.85
4241,B3,1117.156,0.5,127,153.85
4242,E3,1117.5,0.5,127,153.85
4243,B3,1117.5,0.5,127,153.85
4244,E3,1117.656,0.5,127,153.85
4245,B3,1117.656,0.5,127,153.85
4246,E3,1118.0,0.25,127,153.85
4247,B3,1118.0,0.25,127,153.85
4248,E3,1118.156,0.5,127,153.85
4249,B3,1118.156,0.5,127,153.85
4250,E3,1118.5,0.25,127,153.85
4251,B3,1118.5,0.25,127,153.85
4252,E3,1118.656,6/25,127,153.85
4253,B3,1118.656,6/25,127,153.85
4254,E3,1118.75,0.5,127,153.85
4255,B3,1118.75,0.5,127,153.85
4256,E3,1119.156,13/50,127,153.85
4257,B3,1119.156,13/50,127,153.85
4258,E3,1119.25,0.5,127,153.85
4259,B3,1119.25,0.5,127,153.85
4260,E3,1119.417,0.5,127,153.85
4261,B3,1119.417,0.5,127,153.85
4262,E3,1119.75,0.5,127,153.85
4263,B3,1119.75,0.5,127,153.85
4264,E3,1119.917,0.5,127,153.85
4265,B3,1119.917,0.5,127,153.85
4266,E3,1120.25,0.5,127,153.85
4267,B3,1120.25,0.5,127,153.85
4268,E3,1120.417,0.5,127,153.85
4269,B3,1120.417,0.5,127,153.85
4270,E3,1120.75,0.5,127,153.85
4271,B3,1120.75,0.5,127,153.85
4272,E3,1120.917,0.5,127,153.85
4273,B3,1120.917,0.5,127,153.85
4274,E3,1121.25,0.5,127,153.85
4275,B3,1121.25,0.5,127,153.85
4276,E3,1121.417,0.5,127,153.85
4277,B3,1121.417,0.5,127,153.85
4278,E3,1121.75,0.5,127,153.85
4279,B3,1121.75,0.5,127,153.85
4280,E3,1121.917,0.5,127,153.85
4281,B3,1121.917,0.5,127,153.85
4282,E3,1122.25,0.25,127,153.85
4283,B3,1122.25,0.25,127,153.85
4284,E3,1122.417,0.5,127,153.85
4285,B3,1122.417,0.5,127,153.85
4286,E3,1122.75,0.25,127,153.85
4287,B3,1122.75,0.25,127,153.85
4288,E3,1122.917,6/25,127,153.85
4289,B3,1122.917,6/25,127,153.85
4290,D3,1123.0,0.5,127,153.85
4291,A3,1123.0,0.5,127,153.85
4292,E3,1123.417,13/50,127,153.85
4293,B3,1123.417,13/50,127,153.85
4294,D3,1123.5,0.5,127,153.85
4295,A3,1123.5,0.5,127,153.85
4296,D3,1123.677,0.5,127,153.85
4297,A3,1123.677,0.5,127,153.85
4298,D3,1124.0,0.5,127,153.85
4299,A3,1124.0,0.5,127,153.85
4300,D3,1124.177,0.5,127,153.85
4301,A3,1124.177,0.5,127,153.85
4302,D3,1124.5,0.5,127,153.85
4303,A3,1124.5,0.5,127,153.85
4304,D3,1124.677,0.5,127,153.85
4305,A3,1124.677,0.5,127,153.85
4306,D3,1125.0,0.5,127,153.85
4307,A3,1125.0,0.5,127,153.85
4308,D3,1125.177,0.5,127,153.85
4309,A3,1125.177,0.5,127,153.85
4310,D3,1125.5,0.5,127,153.85
4311,A3,1125.5,0.5,127,153.85
4312,D3,1125.677,0.5,127,153.85
4313,A3,1125.677,0.5,127,153.85
4314,D3,1126.0,0.5,127,153.85
4315,A3,1126.0,0.5,127,153.85
4316,D3,1126.177,0.5,127,153.85
4317,A3,1126.177,0.5,127,153.85
4318,D3,1126.5,0.25,127,153.85
4319,A3,1126.5,0.25,127,153.85
4320,D3,1126.677,0.5,127,153.85
4321,A3,1126.677,0.5,127,153.85
4322,D3,1127.0,0.25,127,153.85
4323,A3,1127.0,0.25,127,153.85
4324,D3,1127.177,6/25,127,153.85
4325,A3,1127.177,6/25,127,153.85
4326,G2,1127.25,0.5,127,153.85
4327,D3,1127.25,0.5,127,153.85
4328,D3,1127.677,13/50,127,153.85
4329,A3,1127.677,13/50,127,153.85
4330,D2,1127.75,1.25,127,153.85
4331,A2,1127.75,1.25,127,153.85
4332,G2,1127.938,0.5,127,153.85
4333,D3,1127.938,0.5,127,153.85
4334,D2,1128.438,1.25,127,153.85
4335,A2,1128.438,1.25,127,153.85
4336,E2,1129.0,1.0,127,153.85
4337,B2,1129.0,1.0,127,153.85
4338,E2,1129.688,1.0,127,153.85
4339,B2,1129.688,1.0,127,153.85
4340,G3,1130.0,1.0,127,153.85
4341,D4,1130.0,1.0,127,153.85
4342,G3,1130.688,99/100,127,153.85
4343,D4,1130.688,99/100,127,153.85
4344,E3,1131.0,0.5,127,153.85
4345,B3,1131.0,0.5,127,153.85
4346,E3,1131.5,0.5,127,153.85
4347,B3,1131.5,0.5,127,153.85
4348,G3,1131.688,1/100,127,153.85
4349,D4,1131.688,1/100,127,153.85
4350,E3,1131.698,0.5,127,153.85
4351,B3,1131.698,0.5,127,153.85
4352,E3,1132.0,0.5,127,153.85
4353,B3,1132.0,0.5,127,153.85
4354,E3,1132.198,0.5,127,153.85
4355,B3,1132.198,0.5,127,153.85
4356,E3,1132.5,0.5,127,153.85
4357,B3,1132.5,0.5,127,153.85
4358,E3,1132.698,0.5,127,153.85
4359,B3,1132.698,0.5,127,153.85
4360,E3,1133.0,0.5,127,153.85
4361,B3,1133.0,0.5,127,153.85
4362,E3,1133.198,0.5,127,153.85
4363,B3,1133.198,0.5,127,153.85
4364,E3,1133.5,0.5,127,153.85
4365,B3,1133.5,0.5,127,153.85
4366,E3,1133.698,0.5,127,153.85
4367,B3,1133.698,0.5,127,153.85
4368,E3,1134.0,0.5,127,153.85
4369,B3,1134.0,0.5,127,153.85
4370,E3,1134.198,0.5,127,153.85
4371,B3,1134.198,0.5,127,153.85
4372,E3,1134.5,0.5,127,153.85
4373,B3,1134.5,0.5,127,153.85
4374,E3,1134.698,0.5,127,153.85
4375,B3,1134.698,0.5,127,153.85
4376,E3,1135.0,0.5,127,153.85
4377,B3,1135.0,0.5,127,153.85
4378,E3,1135.198,49/100,127,153.85
4379,B3,1135.198,49/100,127,153.85
4380,E3,1135.5,0.5,127,153.85
4381,B3,1135.5,0.5,127,153.85
4382,E3,1135.698,1/100,127,153.85
4383,B3,1135.698,1/100,127,153.85
4384,E3,1135.708,0.5,127,153.85
4385,B3,1135.708,0.5,127,153.85
4386,E3,1136.0,0.5,127,153.85
4387,B3,1136.0,0.5,127,153.85
4388,E3,1136.208,0.5,127,153.85
4389,B3,1136.208,0.5,127,153.85
4390,E3,1136.5,0.5,127,153.85
4391,B3,1136.5,0.5,127,153.85
4392,E3,1136.708,0.5,127,153.85
4393,B3,1136.708,0.5,127,153.85
4394,E3,1137.0,0.5,127,153.85
4395,B3,1137.0,0.5,127,153.85
4396,E3,1137.208,0.5,127,153.85
4397,B3,1137.208,0.5,127,153.85
4398,E3,1137.5,0.5,127,153.85
4399,B3,1137.5,0.5,127,153.85
4400,E3,1137.708,0.5,127,153.85
4401,B3,1137.708,0.5,127,153.85
4402,E3,1138.0,0.5,127,153.85
4403,B3,1138.0,0.5,127,153.85
4404,E3,1138.208,0.5,127,153.85
4405,B3,1138.208,0.5,127,153.85
4406,E3,1138.5,0.5,127,153.85
4407,B3,1138.5,0.5,127,153.85
4408,E3,1138.708,0.5,127,153.85
4409,B3,1138.708,0.5,127,153.85
4410,D3,1139.0,0.5,127,153.85
4411,A3,1139.0,0.5,127,153.85
4412,E3,1139.208,49/100,127,153.85
4413,B3,1139.208,49/100,127,153.85
4414,D3,1139.5,0.5,127,153.85
4415,A3,1139.5,0.5,127,153.85
4416,E3,1139.708,1/100,127,153.85
4417,B3,1139.708,1/100,127,153.85
4418,D3,1139.719,0.5,127,153.85
4419,A3,1139.719,0.5,127,153.85
4420,D3,1140.0,0.5,127,153.85
4421,A3,1140.0,0.5,127,153.85
4422,D3,1140.219,0.5,127,153.85
4423,A3,1140.219,0.5,127,153.85
4424,D3,1140.5,0.5,127,153.85
4425,A3,1140.5,0.5,127,153.85
4426,D3,1140.719,0.5,127,153.85
4427,A3,1140.719,0.5,127,153.85
4428,D3,1141.0,0.5,127,153.85
4429,A3,1141.0,0.5,127,153.85
4430,D3,1141.219,0.5,127,153.85
4431,A3,1141.219,0.5,127,153.85
4432,D3,1141.5,0.5,127,153.85
4433,A3,1141.5,0.5,127,153.85
4434,D3,1141.719,0.5,127,153.85
4435,A3,1141.719,0.5,127,153.85
4436,D3,1142.0,0.5,127,153.85
4437,A3,1142.0,0.5,127,153.85
4438,D3,1142.219,0.5,127,153.85
4439,A3,1142.219,0.5,127,153.85
4440,D3,1142.5,0.5,127,153.85
4441,A3,1142.5,0.5,127,153.85
4442,D3,1142.719,0.5,127,153.85
4443,A3,1142.719,0.5,127,153.85
4444,G2,1143.0,0.5,127,153.85
4445,D3,1143.0,0.5,127,153.85
4446,D3,1143.219,49/100,127,153.85
4447,A3,1143.219,49/100,127,153.85
4448,D2,1143.5,1.25,127,153.85
4449,A2,1143.5,1.25,127,153.85
4450,D3,1143.719,1/100,127,153.85
4451,A3,1143.719,1/100,127,153.85
4452,G2,1143.729,0.5,127,153.85
4453,D3,1143.729,0.5,127,153.85
4454,D2,1144.229,1.25,127,153.85
4455,A2,1144.229,1.25,127,153.85
4456,E2,1144.75,1.0,127,153.85
4457,B2,1144.75,1.0,127,153.85
4458,E2,1145.479,1.0,127,153.85
4459,B2,1145.479,1.0,127,153.85
4460,G3,1145.75,1.0,127,153.85
4461,D4,1145.75,1.0,127,153.85
4462,G3,1146.479,1.0,127,153.85
4463,D4,1146.479,1.0,127,153.85
4464,E2,1146.75,0.25,127,153.85
4465,E2,1147.0,0.25,127,153.85
4466,E2,1147.25,0.5,127,153.85
4467,E2,1147.479,6/25,127,153.85
4468,E2,1147.719,13/50,127,153.85
4469,E2,1147.75,0.5,127,153.85
4470,E2,1147.979,0.5,127,153.85
4471,E2,1148.25,0.5,127,153.85
4472,E2,1148.479,0.5,127,153.85
4473,E2,1148.75,0.5,127,153.85
4474,E2,1148.979,0.5,127,153.85
4475,E2,1149.25,0.5,127,153.85
4476,E2,1149.479,0.5,127,153.85
4477,E2,1149.75,0.5,127,153.85
4478,E2,1149.979,0.5,127,153.85
4479,E2,1150.25,0.5,127,153.85
4480,E2,1150.479,0.5,127,153.85
4481,C2,1150.75,0.25,127,153.85
4482,E2,1150.979,0.5,127,153.85
4483,C2,1151.0,0.25,127,153.85
4484,C2,1151.25,0.5,127,153.85
4485,C2,1151.479,6/25,127,153.85
4486,C2,1151.719,13/50,127,153.85
4487,C2,1151.75,0.5,127,153.85
4488,C2,1151.979,0.5,127,153.85
4489,C2,1152.25,0.5,127,153.85
4490,C2,1152.479,0.5,127,153.85
4491,D2,1152.75,0.5,127,153.85
4492,C2,1152.979,0.5,127,153.85
4493,D2,1153.25,0.5,127,153.85
4494,D2,1153.479,0.5,127,153.85
4495,D2,1153.75,0.5,127,153.85
4496,D2,1153.979,0.5,127,153.85
4497,D2,1154.25,0.5,127,153.85
4498,D2,1154.479,0.5,127,153.85
4499,E3,1154.75,0.25,127,153.85
4500,D2,1154.979,0.5,127,153.85
4501,E3,1155.0,0.25,127,153.85
4502,E3,1155.25,0.5,127,153.85
4503,E3,1155.479,6/25,127,153.85
4504,E3,1155.719,13/50,127,153.85
4505,E3,1155.75,0.5,127,153.85
4506,E3,1155.979,0.5,127,153.85
4507,E3,1156.25,0.5,127,153.85
4508,E3,1156.479,0.5,127,153.85
4509,E3,1156.75,0.5,127,153.85
4510,E3,1156.979,0.5,127,153.85
4511,E3,1157.25,0.5,127,153.85
4512,E3,1157.479,0.5,127,153.85
4513,E3,1157.75,0.5,127,153.85
4514,E3,1157.979,0.5,127,153.85
4515,E3,1158.25,0.5,127,153.85
4516,E3,1158.479,0.5,127,153.85
4517,E3,1158.75,0.25,127,153.85
4518,E3,1158.979,0.5,127,153.85
4519,E3,1159.0,0.25,127,153.85
4520,E3,1159.25,0.5,127,153.85
4521,E3,1159.479,6/25,127,153.85
4522,E3,1159.719,13/50,127,153.85
4523,E3,1159.75,0.5,127,153.85
4524,E3,1159.979,0.5,127,153.85
4525,E3,1160.25,0.5,127,153.85
4526,E3,1160.479,0.5,127,153.85
4527,A3,1160.75,0.5,127,153.85
4528,E3,1160.979,0.5,127,153.85
4529,B3,1161.25,0.5,127,153.85
4530,A3,1161.479,0.5,127,153.85
4531,D4,1161.75,0.5,127,153.85
4532,B3,1161.979,0.5,127,153.85
4533,E4,1162.25,0.5,127,153.85
4534,D4,1162.479,0.5,127,153.85
4535,E2,1162.75,0.25,127,153.85
4536,E4,1162.979,0.5,127,153.85
4537,E2,1163.0,0.25,127,153.85
4538,E2,1163.25,0.5,127,153.85
4539,E2,1163.479,6/25,127,153.85
4540,E2,1163.719,13/50,127,153.85
4541,E2,1163.75,0.5,127,153.85
4542,E2,1163.979,0.5,127,153.85
4543,E2,1164.25,0.5,127,153.85
4544,E2,1164.479,0.5,127,153.85
4545,E2,1164.75,0.5,127,153.85
4546,E2,1164.979,0.5,127,153.85
4547,E2,1165.25,0.5,127,153.85
4548,E2,1165.479,0.5,127,153.85
4549,E2,1165.75,0.5,127,153.85
4550,E2,1165.979,0.5,127,153.85
4551,E2,1166.25,0.5,127,153.85
4552,E2,1166.479,0.5,127,153.85
4553,C2,1166.75,0.25,127,153.85
4554,E2,1166.979,0.5,127,153.85
4555,C2,1167.0,0.25,127,153.85
4556,C2,1167.25,0.5,127,153.85
4557,C2,1167.479,6/25,127,153.85
4558,C2,1167.719,13/50,127,153.85
4559,C2,1167.75,0.5,127,153.85
4560,C2,1167.979,0.5,127,153.85
4561,C2,1168.25,0.5,127,153.85
4562,C2,1168.479,0.5,127,153.85
4563,D2,1168.75,0.5,127,153.85
4564,C2,1168.979,0.5,127,153.85
4565,D2,1169.25,0.5,127,153.85
4566,D2,1169.479,0.5,127,153.85
4567,D2,1169.75,0.5,127,153.85
4568,D2,1169.979,0.5,127,153.85
4569,D2,1170.25,0.5,127,153.85
4570,D2,1170.479,0.5,127,153.85
4571,E3,1170.75,0.25,127,153.85
4572,D2,1170.979,0.5,127,153.85
4573,E3,1171.0,0.25,127,153.85
4574,E3,1171.25,0.5,127,153.85
4575,E3,1171.479,6/25,127,153.85
4576,E3,1171.719,13/50,127,153.85
4577,E3,1171.75,0.5,127,153.85
4578,E3,1171.979,0.5,127,153.85
4579,E3,1172.25,0.5,127,153.85
4580,E3,1172.479,0.5,127,153.85
4581,E3,1172.75,0.5,127,153.85
4582,E3,1172.979,0.5,127,153.85
4583,E3,1173.25,0.5,127,153.85
4584,E3,1173.479,0.5,127,153.85
4585,E3,1173.75,0.5,127,153.85
4586,E3,1173.979,0.5,127,153.85
4587,E3,1174.25,0.5,127,153.85
4588,E3,1174.479,0.5,127,153.85
4589,E3,1174.75,0.25,127,153.85
4590,E3,1174.979,0.5,127,153.85
4591,E3,1175.0,0.25,127,153.85
4592,E3,1175.25,0.5,127,153.85
4593,E3,1175.479,6/25,127,153.85
4594,E3,1175.719,13/50,127,153.85
4595,E3,1175.75,0.5,127,153.85
4596,E3,1175.979,0.5,127,153.85
4597,E3,1176.25,0.5,127,153.85
4598,E3,1176.479,0.5,127,153.85
4599,A3,1176.75,0.5,127,153.85
4600,E3,1176.979,0.5,127,153.85
4601,B3,1177.25,0.5,127,153.85
4602,A3,1177.479,0.5,127,153.85
4603,D4,1177.75,0.5,127,153.85
4604,B3,1177.979,0.5,127,153.85
4605,E4,1178.25,0.5,127,153.85
4606,D4,1178.479,0.5,127,153.85
4607,E3,1178.75,0.25,127,153.85
4608,B3,1178.75,0.25,127,153.85
4609,E4,1178.979,0.5,127,153.85
4610,E3,1179.25,0.25,127,153.85
4611,B3,1179.25,0.25,127,153.85
4612,E3,1179.479,6/25,127,153.85
4613,B3,1179.479,6/25,127,153.85
4614,E3,1179.5,0.5,127,153.85
4615,B3,1179.5,0.5,127,153.85
4616,E3,1179.979,13/50,127,153.85
4617,B3,1179.979,13/50,127,153.85
4618,E3,1180.0,0.5,127,153.85
4619,B3,1180.0,0.5,127,153.85
4620,E3,1180.24,0.5,127,153.85
4621,B3,1180.24,0.5,127,153.85
4622,E3,1180.5,0.5,127,153.85
4623,B3,1180.5,0.5,127,153.85
4624,E3,1180.74,0.5,127,153.85
4625,B3,1180.74,0.5,127,153.85
4626,E3,1181.0,0.5,127,153.85
4627,B3,1181.0,0.5,127,153.85
4628,E3,1181.24,0.5,127,153.85
4629,B3,1181.24,0.5,127,153.85
4630,E3,1181.5,0.5,127,153.85
4631,B3,1181.5,0.5,127,153.85
4632,E3,1181.74,0.5,127,153.85
4633,B3,1181.74,0.5,127,153.85
4634,E3,1182.0,0.5,127,153.85
4635,B3,1182.0,0.5,127,153.85
4636,E3,1182.24,0.5,127,153.85
4637,B3,1182.24,0.5,127,153.85
4638,E3,1182.5,0.5,127,153.85
4639,B3,1182.5,0.5,127,153.85
4640,E3,1182.74,0.5,127,153.85
4641,B3,1182.74,0.5,127,153.85
4642,E3,1183.0,0.25,127,153.85
4643,B3,1183.0,0.25,127,153.85
4644,E3,1183.24,0.5,127,153.85
4645,B3,1183.24,0.5,127,153.85
4646,E3,1183.5,0.25,127,153.85
4647,B3,1183.5,0.25,127,153.85
4648,E3,1183.74,6/25,127,153.85
4649,B3,1183.74,6/25,127,153.85
4650,E3,1183.75,0.5,127,153.85
4651,B3,1183.75,0.5,127,153.85
4652,E3,1184.24,13/50,127,153.85
4653,B3,1184.24,13/50,127,153.85
4654,E3,1184.25,0.5,127,153.85
4655,B3,1184.25,0.5,127,153.85
4656,E3,1184.5,0.5,127,153.85
4657,B3,1184.5,0.5,127,153.85
4658,E3,1184.75,0.5,127,153.85
4659,B3,1184.75,0.5,127,153.85
4660,E3,1185.0,0.5,127,153.85
4661,B3,1185.0,0.5,127,153.85
4662,E3,1185.25,0.5,127,153.85
4663,B3,1185.25,0.5,127,153.85
4664,E3,1185.5,0.5,127,153.85
4665,B3,1185.5,0.5,127,153.85
4666,E3,1185.75,0.5,127,153.85
4667,B3,1185.75,0.5,127,153.85
4668,E3,1186.0,0.5,127,153.85
4669,B3,1186.0,0.5,127,153.85
4670,E3,1186.25,0.5,127,153.85
4671,B3,1186.25,0.5,127,153.85
4672,E3,1186.5,0.5,127,153.85
4673,B3,1186.5,0.5,127,153.85
4674,E3,1186.75,0.5,127,153.85
4675,B3,1186.75,0.5,127,153.85
4676,E3,1187.0,0.5,127,153.85
4677,B3,1187.0,0.5,127,153.85
4678,D3,1187.25,0.25,127,153.85
4679,A3,1187.25,0.25,127,153.85
4680,E3,1187.5,0.5,127,153.85
4681,B3,1187.5,0.5,127,153.85
4682,D3,1187.75,0.25,127,153.85
4683,A3,1187.75,0.25,127,153.85
4684,D3,1188.0,0.5,127,153.85
4685,A3,1188.0,0.5,127,153.85
4686,D3,1188.0,6/25,127,153.85
4687,A3,1188.0,6/25,127,153.85
4688,D3,1188.5,0.5,127,153.85
4689,A3,1188.5,0.5,127,153.85
4690,D3,1188.5,13/50,127,153.85
4691,A3,1188.5,13/50,127,153.85
4692,D3,1188.76,0.5,127,153.85
4693,A3,1188.76,0.5,127,153.85
4694,D3,1189.0,0.5,127,153.85
4695,A3,1189.0,0.5,127,153.85
4696,D3,1189.26,0.5,127,153.85
4697,A3,1189.26,0.5,127,153.85
4698,D3,1189.5,0.5,127,153.85
4699,A3,1189.5,0.5,127,153.85
4700,D3,1189.76,0.5,127,153.85
4701,A3,1189.76,0.5,127,153.85
4702,D3,1190.0,0.5,127,153.85
4703,A3,1190.0,0.5,127,153.85
4704,D3,1190.26,0.5,127,153.85
4705,A3,1190.26,0.5,127,153.85
4706,D3,1190.5,0.5,127,153.85
4707,A3,1190.5,0.5,127,153.85
4708,D3,1190.76,0.5,127,153.85
4709,A3,1190.76,0.5,127,153.85
4710,D3,1191.0,0.5,127,153.85
4711,A3,1191.0,0.5,127,153.85
4712,D3,1191.26,0.5,127,153.85
4713,A3,1191.26,0.5,127,153.85
4714,G2,1191.5,0.25,127,153.85
4715,D3,1191.5,0.25,127,153.85
4716,D3,1191.76,0.5,127,153.85
4717,A3,1191.76,0.5,127,153.85
4718,G2,1192.0,0.25,127,153.85
4719,D3,1192.0,0.25,127,153.85
4720,D2,1192.25,1.25,127,153.85
4721,A2,1192.25,1.25,127,153.85
4722,G2,1192.26,6/25,127,153.85
4723,D3,1192.26,6/25,127,153.85
4724,G2,1192.76,13/50,127,153.85
4725,D3,1192.76,13/50,127,153.85
4726,D2,1193.021,1.25,127,153.85
4727,A2,1193.021,1.25,127,153.85
4728,E2,1193.5,1.0,127,153.85
4729,B2,1193.5,1.0,127,153.85
4730,E2,1194.271,1.0,127,153.85
4731,B2,1194.271,1.0,127,153.85
4732,G3,1194.5,1.0,127,153.85
4733,D4,1194.5,1.0,127,153.85
4734,G3,1195.271,1.0,127,153.85
4735,D4,1195.271,1.0,127,153.85
4736,E3,1195.5,0.5,127,153.85
4737,B3,1195.5,0.5,127,153.85
4738,E3,1196.0,0.5,127,153.85
4739,B3,1196.0,0.5,127,153.85
4740,E3,1196.271,49/100,127,153.85
4741,B3,1196.271,49/100,127,153.85
4742,E3,1196.5,0.5,127,153.85
4743,B3,1196.5,0.5,127,153.85
4744,E3,1196.771,1/100,127,153.85
4745,B3,1196.771,1/100,127,153.85
4746,E3,1196.781,0.5,127,153.85
4747,B3,1196.781,0.5,127,153.85
4748,E3,1197.0,0.5,127,153.85
4749,B3,1197.0,0.5,127,153.85
4750,E3,1197.281,0.5,127,153.85
4751,B3,1197.281,0.5,127,153.85
4752,E3,1197.5,0.5,127,153.85
4753,B3,1197.5,0.5,127,153.85
4754,E3,1197.781,0.5,127,153.85
4755,B3,1197.781,0.5,127,153.85
4756,E3,1198.0,0.5,127,153.85
4757,B3,1198.0,0.5,127,153.85
4758,E3,1198.281,0.5,127,153.85
4759,B3,1198.281,0.5,127,153.85
4760,E3,1198.5,0.5,127,153.85
4761,B3,1198.5,0.5,127,153.85
4762,E3,1198.781,0.5,127,153.85
4763,B3,1198.781,0.5,127,153.85
4764,E3,1199.0,0.5,127,153.85
4765,B3,1199.0,0.5,127,153.85
4766,E3,1199.281,0.5,127,153.85
4767,B3,1199.281,0.5,127,153.85
4768,E3,1199.5,0.5,127,153.85
4769,B3,1199.5,0.5,127,153.85
4770,E3,1199.781,0.5,127,153.85
4771,B3,1199.781,0.5,127,153.85
4772,E3,1200.0,0.5,127,153.85
4773,B3,1200.0,0.5,127,153.85
4774,E3,1200.281,49/100,127,153.85
4775,B3,1200.281,49/100,127,153.85
4776,E3,1200.5,0.5,127,153.85
4777,B3,1200.5,0.5,127,153.85
4778,E3,1200.781,1/100,127,153.85
4779,B3,1200.781,1/100,127,153.85
4780,E3,1200.792,0.5,127,153.85
4781,B3,1200.792,0.5,127,153.85
4782,E3,1201.0,0.5,127,153.85
4783,B3,1201.0,0.5,127,153.85
4784,E3,1201.292,0.5,127,153.85
4785,B3,1201.292,0.5,127,153.85
4786,E3,1201.5,0.5,127,153.85
4787,B3,1201.5,0.5,127,153.85
4788,E3,1201.792,0.5,127,153.85
4789,B3,1201.792,0.5,127,153.85
4790,E3,1202.0,0.5,127,153.85
4791,B3,1202.0,0.5,127,153.85
4792,E3,1202.292,0.5,127,153.85
4793,B3,1202.292,0.5,127,153.85
4794,E3,1202.5,0.5,127,153.85
4795,B3,1202.5,0.5,127,153.85
4796,E3,1202.792,0.5,127,153.85
4797,B3,1202.792,0.5,127,153.85
4798,E3,1203.0,0.5,127,153.85
4799,B3,1203.0,0.5,127,153.85
4800,E3,1203.292,0.5,127,153.85
4801,B3,1203.292,0.5,127,153.85
4802,D3,1203.5,0.5,127,153.85
4803,A3,1203.5,0.5,127,153.85
4804,E3,1203.792,0.5,127,153.85
4805,B3,1203.792,0.5,127,153.85
4806,D3,1204.0,0.5,127,153.85
4807,A3,1204.0,0.5,127,153.85
4808,D3,1204.292,49/100,127,153.85
4809,A3,1204.292,49/100,127,153.85
4810,D3,1204.5,0.5,127,153.85
4811,A3,1204.5,0.5,127,153.85
4812,D3,1204.792,1/100,127,153.85
4813,A3,1204.792,1/100,127,153.85
4814,D3,1204.802,0.5,127,153.85
4815,A3,1204.802,0.5,127,153.85
4816,D3,1205.0,0.5,127,153.85
4817,A3,1205.0,0.5,127,153.85
4818,D3,1205.302,0.5,127,153.85
4819,A3,1205.302,0.5,127,153.85
4820,D3,1205.5,0.5,127,153.85
4821,A3,1205.5,0.5,127,153.85
4822,D3,1205.802,0.5,127,153.85
4823,A3,1205.802,0.5,127,153.85
4824,D3,1206.0,0.5,127,153.85
4825,A3,1206.0,0.5,127,153.85
4826,D3,1206.302,0.5,127,153.85
4827,A3,1206.302,0.5,127,153.85
4828,D3,1206.5,0.5,127,153.85
4829,A3,1206.5,0.5,127,153.85
4830,D3,1206.802,0.5,127,153.85
4831,A3,1206.802,0.5,127,153.85
4832,D3,1207.0,0.5,127,153.85
4833,A3,1207.0,0.5,127,153.85
4834,D3,1207.302,0.5,127,153.85
4835,A3,1207.302,0.5,127,153.85
4836,G2,1207.5,0.5,127,153.85
4837,D3,1207.5,0.5,127,153.85
4838,D3,1207.802,0.5,127,153.85
4839,A3,1207.802,0.5,127,153.85
4840,D2,1208.0,1.25,127,153.85
4841,A2,1208.0,1.25,127,153.85
4842,G2,1208.302,49/100,127,153.85
4843,D3,1208.302,49/100,127,153.85
4844,G2,1208.802,1/100,127,153.85
4845,D3,1208.802,1/100,127,153.85
4846,D2,1208.812,1.25,127,153.85
4847,A2,1208.812,1.25,127,153.85
4848,E2,1209.25,2.75,127,153.85
4849,B2,1209.25,2.75,127,153.85
4850,E2,1210.062,137/50,127,153.85
4851,B2,1210.062,137/50,127,153.85
4852,E2,1214.0,2.0,127,153.85
4853,B2,1214.0,2.0,127,153.85
4854,E2,1214.812,201/100,127,153.85
4855,B2,1214.812,201/100,127,153.85
