,note_name,start_time,duration,velocity,tempo
0,C2,0.0,323/1000,115,120.0
1,B-2,0.0,0.25,115,120.0
2,B-2,1.0,0.25,115,120.0
3,B-2,1.75,0.25,67,120.0
4,B-2,2.0,0.25,115,120.0
5,C2,2.75,0.25,60,120.0
6,C2,3.0,0.25,115,120.0
7,B-2,3.0,0.25,115,120.0
8,B-2,4.0,0.25,115,120.0
9,B-2,4.75,0.25,67,120.0
10,B-2,5.0,0.25,115,120.0
11,C2,5.75,0.25,60,120.0
12,C2,6.0,0.25,115,120.0
13,B-2,6.0,0.25,115,120.0
14,B-2,7.0,0.25,115,120.0
15,B-2,7.75,0.25,67,120.0
16,B-2,8.0,0.25,115,120.0
17,C2,8.75,0.25,60,120.0
18,B2,8.75,11/125,77,120.0
19,E2,8.75,11/125,77,120.0
20,E3,8.75,11/125,77,120.0
21,E3,8.785,0.125,77,120.0
22,E2,8.785,0.125,77,120.0
23,B2,8.785,0.125,77,120.0
24,C2,9.0,0.25,115,120.0
25,B-2,9.0,0.25,115,120.0
26,E2,9.0,0.125,77,120.0
27,E3,9.0,0.125,77,120.0
28,B2,9.0,0.125,77,120.0
29,E2,9.035,0.125,77,120.0
30,E3,9.035,0.125,77,120.0
31,B2,9.035,0.125,77,120.0
32,B-2,10.0,0.25,115,120.0
33,B-2,10.75,0.25,67,120.0
34,B-2,11.0,0.25,115,120.0
35,C2,11.75,0.25,60,120.0
36,E2,12.0,3.0,115,120.0
37,C2,12.0,0.25,115,120.0
38,C#3,12.0,0.25,115,120.0
39,E2,12.0,4.0,115,120.0
40,E3,12.0,4.0,115,120.0
41,E2,12.035,793/200,115,120.0
42,E3,12.035,793/200,115,120.0
43,B-2,13.0,0.25,115,120.0
44,B-2,13.75,0.25,67,120.0
45,B-2,14.0,0.25,115,120.0
46,E2,15.0,1.0,115,120.0
47,B-2,15.0,0.25,115,120.0
48,E2,15.0,0.25,115,120.0
49,B-2,16.0,0.25,115,120.0
50,D2,16.0,1.0,115,120.0
51,E2,16.0,4.0,115,120.0
52,E3,16.0,4.0,115,120.0
53,B-2,17.0,0.25,115,120.0
54,D2,17.0,729/1000,115,120.0
55,B1,17.75,271/1000,115,120.0
56,D2,18.0,0.5,115,120.0
57,B-2,18.0,0.25,115,120.0
58,C2,18.0,0.25,115,120.0
59,E2,18.5,1.5,115,120.0
60,B-2,19.0,0.25,115,120.0
61,B-2,20.0,0.25,115,120.0
62,E2,20.0,203/200,115,120.0
63,E2,21.0,0.25,115,120.0
64,E1,21.0,1.0,115,120.0
65,E2,21.5,0.25,115,120.0
66,E2,22.0,0.25,115,120.0
67,E2,22.0,2.0,115,120.0
68,E2,22.0,4.0,115,120.0
69,E3,22.0,4.0,115,120.0
70,E2,22.035,407/200,115,120.0
71,E3,22.035,407/200,115,120.0
72,E2,22.5,0.25,115,120.0
73,E2,23.0,0.25,115,120.0
74,E2,23.25,0.25,115,120.0
75,E2,23.5,0.25,115,120.0
76,E2,24.0,61/125,115,120.0
77,C#3,24.0,0.25,115,120.0
78,C2,24.0,0.25,115,120.0
79,E2,24.071,393/200,115,120.0
80,E3,24.071,393/200,115,120.0
81,D2,24.5,2.5,115,120.0
82,B-2,25.0,0.25,115,120.0
83,B-2,25.75,0.25,67,120.0
84,B-2,26.0,0.25,115,120.0
85,E2,26.071,7/200,115,120.0
86,E3,26.071,7/200,115,120.0
87,E3,26.106,0.5,115,120.0
88,D3,26.606,693/200,115,120.0
89,D2,27.0,1.0,115,120.0
90,B-2,27.0,0.25,115,120.0
91,E2,27.0,0.25,115,120.0
92,B-2,28.0,0.25,115,120.0
93,D2,28.0,729/1000,115,120.0
94,E2,28.0,2.0,115,120.0
95,E3,28.0,2.0,115,120.0
96,E1,28.729,0.25,115,120.0
97,D2,28.979,379/500,115,120.0
98,B-2,29.0,0.25,115,120.0
99,E1,29.729,0.25,115,120.0
100,C2,29.75,0.25,115,120.0
101,G3,29.75,0.25,115,120.0
102,D2,29.979,2021/1000,115,120.0
103,C2,30.0,0.25,115,120.0
104,C#3,30.0,0.25,115,120.0
105,E2,30.0,2.0,115,120.0
106,E3,30.0,2.0,115,120.0
107,D3,30.071,4.0,115,120.0
108,B-2,31.0,0.25,115,120.0
109,B-2,32.0,0.25,115,120.0
110,E3,32.0,0.5,115,120.0
111,D2,32.0,503/500,115,120.0
112,D3,32.5,3.5,115,120.0
113,E1,33.0,1.0,115,120.0
114,E2,33.0,0.25,115,120.0
115,B-2,33.0,0.25,115,120.0
116,C2,33.5,0.25,115,120.0
117,C2,33.75,0.25,115,120.0
118,G#1,34.0,1.0,115,120.0
119,E2,34.0,0.25,115,120.0
120,C#3,34.0,0.25,115,120.0
121,D3,34.071,41/20,115,120.0
122,B2,34.5,0.25,115,120.0
123,B2,34.75,0.25,115,120.0
124,A2,35.0,0.25,115,120.0
125,A1,35.0,1.0,115,120.0
126,A2,35.25,0.25,115,120.0
127,F2,35.5,0.25,115,120.0
128,D3,36.0,4.0,115,120.0
129,E2,36.0,3.0,115,120.0
130,C2,36.0,0.25,115,120.0
131,C#3,36.0,0.25,115,120.0
132,E2,36.106,1.0,115,120.0
133,G#3,36.106,1.0,115,120.0
134,B-2,37.0,0.25,115,120.0
135,E2,37.106,193/200,115,120.0
136,G#3,37.106,97/200,115,120.0
137,A3,37.315,189/250,115,120.0
138,B-2,37.75,0.25,67,120.0
139,B-2,38.0,0.25,115,120.0
140,E2,38.071,7/200,115,120.0
141,A3,38.071,7/125,115,120.0
142,E2,38.106,793/200,115,120.0
143,G#3,38.106,793/200,115,120.0
144,E2,39.0,1.0,115,120.0
145,B-2,39.0,0.25,115,120.0
146,E2,39.0,0.25,115,120.0
147,B-2,40.0,0.25,115,120.0
148,D3,40.0,403/200,115,120.0
149,D2,40.0,729/1000,115,120.0
150,B1,40.75,0.25,115,120.0
151,B-2,41.0,0.25,115,120.0
152,G2,41.0,1.0,115,120.0
153,E2,42.0,2.0,115,120.0
154,B-2,42.0,0.25,115,120.0
155,C2,42.0,0.25,115,120.0
156,E2,42.0,1.0,115,120.0
157,G#3,42.0,1.0,115,120.0
158,E2,42.071,4.0,115,120.0
159,G#3,42.071,4.0,115,120.0
160,B-2,43.0,0.25,115,120.0
161,E2,43.0,1.0,115,120.0
162,G#3,43.0,97/200,115,120.0
163,A3,43.208,99/125,115,120.0
164,B-2,44.0,0.25,115,120.0
165,A3,44.0,21/1000,115,120.0
166,E2,44.0,1.0,115,120.0
167,E2,44.0,4.0,115,120.0
168,G#3,44.0,4.0,115,120.0
169,E2,45.0,0.25,115,120.0
170,E1,45.0,1.0,115,120.0
171,E2,45.5,0.25,115,120.0
172,E2,46.0,0.25,115,120.0
173,E2,46.0,2.0,115,120.0
174,E2,46.071,407/200,115,120.0
175,G#3,46.071,407/200,115,120.0
176,E2,46.5,0.25,115,120.0
177,E2,47.0,0.25,115,120.0
178,E2,47.25,0.25,115,120.0
179,E2,47.5,0.25,115,120.0
180,E2,48.0,61/125,115,120.0
181,C#3,48.0,0.25,115,120.0
182,C2,48.0,0.25,115,120.0
183,E2,48.0,4.0,115,120.0
184,G#3,48.0,4.0,115,120.0
185,E2,48.106,393/200,115,120.0
186,E3,48.106,393/200,115,120.0
187,D2,48.5,2.5,115,120.0
188,B-2,49.0,0.25,115,120.0
189,B-2,49.75,0.25,67,120.0
190,B-2,50.0,0.25,115,120.0
191,E2,50.071,7/200,115,120.0
192,E3,50.071,7/200,115,120.0
193,E3,50.106,0.5,115,120.0
194,D3,50.606,693/200,115,120.0
195,D2,51.0,1.0,115,120.0
196,B-2,51.0,0.25,115,120.0
197,E2,51.0,0.25,115,120.0
198,B-2,52.0,0.25,115,120.0
199,D2,52.0,729/1000,115,120.0
200,E2,52.0,2.0,115,120.0
201,G#3,52.0,2.0,115,120.0
202,E1,52.729,0.25,115,120.0
203,D2,52.979,379/500,115,120.0
204,B-2,53.0,0.25,115,120.0
205,E1,53.729,0.25,115,120.0
206,E2,53.75,271/1000,115,120.0
207,D2,53.979,2021/1000,115,120.0
208,C2,54.0,0.25,115,120.0
209,C#3,54.0,0.25,115,120.0
210,E2,54.0,2.0,115,120.0
211,E3,54.0,2.0,115,120.0
212,D3,54.071,4.0,115,120.0
213,B-2,55.0,0.25,115,120.0
214,B-2,56.0,0.25,115,120.0
215,E3,56.0,0.5,115,120.0
216,D2,56.0,503/500,115,120.0
217,D3,56.5,3.5,115,120.0
218,E1,57.0,1.0,115,120.0
219,E2,57.0,0.25,115,120.0
220,B-2,57.0,0.25,115,120.0
221,E2,57.5,0.25,115,120.0
222,B-2,57.5,0.25,115,120.0
223,E2,58.0,0.25,115,120.0
224,G#1,58.0,1.0,115,120.0
225,D3,58.071,41/20,115,120.0
226,E2,58.5,0.25,115,120.0
227,A2,59.0,0.25,115,120.0
228,A1,59.0,1.0,115,120.0
229,A2,59.25,0.25,115,120.0
230,F2,59.5,0.25,115,120.0
231,D3,60.0,4.0,115,120.0
232,E2,60.0,3.0,115,120.0
233,C2,60.0,0.25,115,120.0
234,C#3,60.0,0.25,115,120.0
235,E2,60.106,1.0,115,120.0
236,G#3,60.106,1.0,115,120.0
237,B-2,61.0,0.25,115,120.0
238,E2,61.106,193/200,115,120.0
239,G#3,61.106,7/20,115,120.0
240,A3,61.356,143/200,115,120.0
241,B-2,61.75,0.25,67,120.0
242,B-2,62.0,0.25,115,120.0
243,E2,62.071,7/200,115,120.0
244,A3,62.071,11/250,115,120.0
245,E2,62.106,793/200,115,120.0
246,E3,62.106,793/200,115,120.0
247,B3,62.106,793/200,115,120.0
248,E2,63.0,1.0,115,120.0
249,B-2,63.0,0.25,115,120.0
250,E2,63.0,0.25,115,120.0
251,B-2,64.0,0.25,115,120.0
252,D3,64.0,403/200,115,120.0
253,D2,64.0,729/1000,115,120.0
254,B1,64.75,0.25,115,120.0
255,B-2,65.0,0.25,115,120.0
256,G2,65.0,1.0,115,120.0
257,C2,65.75,271/1000,115,120.0
258,E2,66.0,2.0,115,120.0
259,C#3,66.0,0.25,115,120.0
260,E2,66.0,0.25,115,120.0
261,E2,66.0,1.0,115,120.0
262,G#3,66.0,1.0,115,120.0
263,E2,66.071,4.0,115,120.0
264,E3,66.071,4.0,115,120.0
265,B3,66.071,4.0,115,120.0
266,C2,66.5,0.25,115,120.0
267,E2,67.0,1.0,115,120.0
268,G#3,67.0,7/20,115,120.0
269,C2,67.0,0.25,115,120.0
270,B-2,67.0,0.25,115,120.0
271,A3,67.25,0.75,115,120.0
272,B-2,68.0,0.25,115,120.0
273,A3,68.0,1/125,115,120.0
274,E2,68.0,1.0,115,120.0
275,E2,68.0,4.0,115,120.0
276,E3,68.0,4.0,115,120.0
277,B3,68.0,4.0,115,120.0
278,E1,69.0,1.0,115,120.0
279,B-2,69.0,0.25,115,120.0
280,C2,69.0,0.25,115,120.0
281,E2,69.5,0.25,115,120.0
282,E2,70.0,0.125,115,120.0
283,E2,70.0,2.0,115,120.0
284,E2,70.071,407/200,115,120.0
285,E3,70.071,407/200,115,120.0
286,B3,70.071,407/200,115,120.0
287,E2,70.125,0.062,115,120.0
288,E2,70.25,0.25,115,120.0
289,C3,70.5,0.25,115,120.0
290,C3,70.75,0.25,115,120.0
291,C3,71.0,0.25,115,120.0
292,B2,71.25,0.25,115,120.0
293,B2,71.5,0.25,115,120.0
294,B2,71.75,0.25,115,120.0
295,E2,72.0,61/125,115,120.0
296,C2,72.0,0.25,115,120.0
297,C#3,72.0,0.25,115,120.0
298,E2,72.0,4.0,115,120.0
299,E3,72.0,4.0,115,120.0
300,B3,72.0,4.0,115,120.0
301,E2,72.106,393/200,115,120.0
302,E3,72.106,393/200,115,120.0
303,D2,72.5,2.5,115,120.0
304,B-2,73.0,0.25,115,120.0
305,B-2,73.75,0.25,67,120.0
306,B-2,74.0,0.25,115,120.0
307,E2,74.071,7/200,115,120.0
308,E3,74.071,7/200,115,120.0
309,E3,74.106,0.5,115,120.0
310,D3,74.606,693/200,115,120.0
311,D2,75.0,1.0,115,120.0
312,B-2,75.0,0.25,115,120.0
313,E2,75.0,0.25,115,120.0
314,B-2,76.0,0.25,115,120.0
315,D2,76.0,729/1000,115,120.0
316,E2,76.0,2.0,115,120.0
317,E3,76.0,2.0,115,120.0
318,B3,76.0,2.0,115,120.0
319,E1,76.729,0.25,115,120.0
320,C2,76.75,0.25,115,120.0
321,D2,76.979,379/500,115,120.0
322,E2,77.0,0.25,115,120.0
323,A3,77.0,0.25,115,120.0
324,E1,77.729,0.25,115,120.0
325,C2,77.75,0.25,115,120.0
326,D2,77.979,2021/1000,115,120.0
327,C2,78.0,0.25,115,120.0
328,C#3,78.0,0.25,115,120.0
329,E2,78.0,2.0,115,120.0
330,E3,78.0,2.0,115,120.0
331,D3,78.071,4.0,115,120.0
332,B-2,79.0,0.25,115,120.0
333,B-2,80.0,0.25,115,120.0
334,E3,80.0,0.5,115,120.0
335,D2,80.0,503/500,115,120.0
336,D3,80.5,3.5,115,120.0
337,E1,81.0,1.0,115,120.0
338,B-2,81.0,0.25,115,120.0
339,E2,81.0,0.25,115,120.0
340,C2,81.5,0.25,115,120.0
341,E2,82.0,0.125,115,120.0
342,G#1,82.0,1.0,115,120.0
343,D3,82.071,41/20,115,120.0
344,E2,82.125,0.125,115,120.0
345,E2,82.25,0.125,115,120.0
346,E2,82.375,0.125,115,120.0
347,B2,82.625,0.125,115,120.0
348,B2,82.75,0.125,115,120.0
349,B2,82.875,0.125,115,120.0
350,A2,83.0,0.125,115,120.0
351,A1,83.0,1.0,115,120.0
352,A2,83.125,0.125,115,120.0
353,A2,83.25,0.125,115,120.0
354,G2,83.375,0.125,115,120.0
355,G2,83.5,0.125,115,120.0
356,G2,83.625,0.125,115,120.0
357,D3,84.0,4.0,115,120.0
358,E2,84.0,4.0,115,120.0
359,A3,84.0,0.25,115,120.0
360,C2,84.0,0.25,115,120.0
361,E2,84.106,1.0,115,120.0
362,G#3,84.106,1.0,115,120.0
363,B-2,85.0,0.25,115,120.0
364,E2,85.106,193/200,115,120.0
365,A3,85.106,193/200,115,120.0
366,B-2,85.75,0.25,67,120.0
367,B-2,86.0,0.25,115,120.0
368,E2,86.071,7/200,115,120.0
369,A3,86.071,7/200,115,120.0
370,E3,86.106,793/200,115,120.0
371,B3,86.106,793/200,115,120.0
372,E2,86.106,793/200,115,120.0
373,B-2,87.0,0.25,115,120.0
374,E2,87.0,0.25,115,120.0
375,D3,88.0,403/200,115,120.0
376,E2,88.0,1.0,115,120.0
377,B-2,88.0,0.25,115,120.0
378,E2,88.0,0.25,115,120.0
379,C2,88.5,0.25,115,120.0
380,E1,89.0,1.0,115,120.0
381,E2,89.0,0.25,115,120.0
382,B-2,89.0,0.25,115,120.0
383,C2,89.25,0.25,115,120.0
384,E1,90.0,0.5,115,120.0
385,C2,90.0,0.25,115,120.0
386,A3,90.0,0.25,115,120.0
387,E2,90.0,1.0,115,120.0
388,G#3,90.0,1.0,115,120.0
389,E3,90.071,207/200,115,120.0
390,B3,90.071,207/200,115,120.0
391,E2,90.071,207/200,115,120.0
392,D2,90.5,1.5,115,120.0
393,B-2,91.0,0.25,115,120.0
394,E2,91.0,1.0,115,120.0
395,A3,91.0,1.0,115,120.0
396,E3,91.106,1.0,115,120.0
397,E2,91.106,1.0,115,120.0
398,B3,91.106,1.0,115,120.0
399,B-2,92.0,0.25,115,120.0
400,D2,92.0,2729/1000,115,120.0
401,E3,92.0,4.0,115,120.0
402,B3,92.0,4.0,115,120.0
403,E2,92.0,4.0,115,120.0
404,E3,92.106,0.5,115,120.0
405,E2,92.106,0.5,115,120.0
406,B3,92.106,0.5,115,120.0
407,A3,92.606,293/200,115,120.0
408,D3,92.606,293/200,115,120.0
409,B-2,93.0,0.25,115,120.0
410,E2,93.0,0.25,115,120.0
411,E2,93.5,0.25,115,120.0
412,B-2,93.5,0.25,115,120.0
413,E2,94.0,0.25,115,120.0
414,B-2,94.0,0.25,115,120.0
415,A3,94.071,553/200,115,120.0
416,D3,94.071,553/200,115,120.0
417,C2,94.25,0.25,115,120.0
418,D2,94.729,0.25,115,120.0
419,D2,94.979,0.75,115,120.0
420,A3,95.0,0.25,115,120.0
421,E2,95.0,0.25,115,120.0
422,D2,95.729,0.25,115,120.0
423,D2,96.0,0.5,115,120.0
424,C2,96.0,0.25,115,120.0
425,C#3,96.0,0.25,115,120.0
426,E2,96.5,3.5,115,120.0
427,D3,96.835,0.25,115,120.0
428,A3,96.835,0.25,115,120.0
429,B-2,97.0,0.25,115,120.0
430,C2,97.0,0.25,115,120.0
431,E3,97.0,1.0,115,120.0
432,B3,97.0,1.0,115,120.0
433,E2,97.0,1.0,115,120.0
434,A3,97.085,0.75,115,120.0
435,D3,97.085,0.75,115,120.0
436,B-2,97.5,0.25,115,120.0
437,C2,97.5,0.25,115,120.0
438,D3,97.835,47/200,115,120.0
439,B-2,98.0,0.25,115,120.0
440,E3,98.0,1.0,115,120.0
441,E2,98.0,1.0,115,120.0
442,B3,98.0,1.0,115,120.0
443,D3,98.071,3/200,115,120.0
444,A3,98.106,0.5,115,120.0
445,D3,98.106,0.5,115,120.0
446,E2,98.5,0.25,115,120.0
447,B3,98.606,693/200,115,120.0
448,E3,98.606,693/200,115,120.0
449,E2,98.75,0.25,115,120.0
450,C2,99.0,0.25,115,120.0
451,E3,99.0,0.5,115,120.0
452,E2,99.0,0.5,115,120.0
453,B3,99.0,0.5,115,120.0
454,E2,99.5,0.25,115,120.0
455,A3,99.5,1.5,115,120.0
456,D3,99.5,1.5,115,120.0
457,E2,100.0,93/125,115,120.0
458,C2,100.0,0.5,115,120.0
459,A3,100.0,0.5,115,120.0
460,C2,100.5,0.5,115,120.0
461,A3,100.5,0.5,115,120.0
462,E2,100.75,0.25,115,120.0
463,E2,101.0,0.75,115,120.0
464,C2,101.0,0.25,115,120.0
465,C#3,101.0,0.25,115,120.0
466,E2,101.75,0.25,115,120.0
467,B-2,102.0,0.25,115,120.0
468,E2,102.0,0.5,115,120.0
469,B3,102.071,779/1000,115,120.0
470,E3,102.071,779/1000,115,120.0
471,D2,102.5,1.5,115,120.0
472,E3,102.856,0.25,115,120.0
473,B-2,103.0,0.25,115,120.0
474,B3,103.085,0.75,115,120.0
475,E3,103.085,0.75,115,120.0
476,A3,103.729,2729/1000,115,120.0
477,D3,103.729,2729/1000,115,120.0
478,E3,103.856,0.25,115,120.0
479,E2,104.0,0.25,115,120.0
480,B-2,104.0,783/1000,117,120.0
481,D2,104.0,3.0,115,120.0
482,B3,104.106,0.5,115,120.0
483,E3,104.106,0.5,115,120.0
484,C2,104.5,0.25,77,120.0
485,D3,104.606,293/200,115,120.0
486,A3,104.606,293/200,115,120.0
487,E2,105.0,0.25,115,120.0
488,B-2,105.0,783/1000,117,120.0
489,C2,105.5,0.25,77,120.0
490,E2,106.0,0.25,115,120.0
491,B-2,106.0,783/1000,117,120.0
492,D3,106.071,607/200,115,120.0
493,A3,106.071,607/200,115,120.0
494,D3,106.458,0.25,115,120.0
495,A3,106.458,0.25,115,120.0
496,A3,106.708,0.75,115,120.0
497,D3,106.708,0.75,115,120.0
498,D2,107.0,97/200,115,120.0
499,A3,107.0,0.25,115,120.0
500,D2,107.0,0.25,115,120.0
501,D3,107.458,0.25,115,120.0
502,E2,107.5,0.5,115,120.0
503,A3,107.5,0.25,115,120.0
504,D2,107.5,0.25,115,120.0
505,A3,107.729,0.5,115,120.0
506,D3,107.729,0.5,115,120.0
507,B3,108.229,3.5,115,120.0
508,E3,108.229,3.5,115,120.0
509,G#2,109.0,0.25,115,120.0
510,A3,109.106,97/200,115,120.0
511,D3,109.106,97/200,115,120.0
512,B3,109.606,93/200,115,120.0
513,E3,109.606,93/200,115,120.0
514,G#2,110.0,0.25,115,120.0
515,B3,110.071,107/200,115,120.0
516,E3,110.071,107/200,115,120.0
517,G#2,111.0,0.25,115,120.0
518,G#2,112.0,0.25,115,120.0
519,B3,112.473,93/125,115,120.0
520,E3,112.473,93/125,115,120.0
521,G#2,113.0,0.25,115,120.0
522,E3,113.223,0.25,115,120.0
523,B3,113.452,0.75,115,120.0
524,E3,113.452,0.75,115,120.0
525,G#2,114.0,0.25,115,120.0
526,E3,114.223,0.25,115,120.0
527,B3,114.473,0.5,115,120.0
528,E3,114.473,0.5,115,120.0
529,D3,114.973,1.5,115,120.0
530,A3,114.973,1.5,115,120.0
531,G#2,115.0,0.25,115,120.0
532,G#2,116.0,0.25,115,120.0
533,D3,116.473,3.0,115,120.0
534,A3,116.473,3.0,115,120.0
535,G#2,117.0,0.25,115,120.0
536,G#2,118.0,0.25,115,120.0
537,G#2,119.0,0.25,115,120.0
538,A3,119.473,97/200,115,120.0
539,D3,119.473,97/200,115,120.0
540,B-2,119.515,97/200,115,120.0
541,B3,119.973,0.5,115,120.0
542,E3,119.973,0.5,115,120.0
543,G#2,120.0,0.25,115,120.0
544,B3,120.473,0.5,115,120.0
545,E3,120.473,0.5,115,120.0
546,G#2,121.015,0.25,115,120.0
547,D2,122.015,0.25,115,120.0
548,C#3,122.015,0.25,115,120.0
549,D2,123.015,97/200,115,120.0
550,A3,123.015,0.25,115,120.0
551,E2,123.015,0.25,115,120.0
552,E2,123.515,97/200,115,120.0
553,E2,123.515,0.25,115,120.0
554,A3,123.515,0.25,115,120.0
555,E2,124.0,61/125,115,120.0
556,G#2,125.0,0.25,115,120.0
557,D3,125.121,97/200,115,120.0
558,A3,125.121,97/200,115,120.0
559,B3,125.621,9/20,115,120.0
560,E3,125.621,9/20,115,120.0
561,G#2,126.0,0.25,115,120.0
562,B3,126.071,523/1000,115,120.0
563,E3,126.071,523/1000,115,120.0
564,G#2,127.0,0.25,115,120.0
565,G#2,128.0,0.25,115,120.0
566,G#2,129.0,0.25,115,120.0
567,G#2,130.0,0.25,115,120.0
568,G#2,131.0,0.25,115,120.0
569,G#2,132.0,0.25,115,120.0
570,G#2,133.0,0.25,115,120.0
571,G#2,134.0,0.25,115,120.0
572,G#2,135.0,0.25,115,120.0
573,D3,135.488,97/200,115,120.0
574,A3,135.488,97/200,115,120.0
575,B-2,135.515,97/200,115,120.0
576,B3,135.988,97/200,115,120.0
577,E3,135.988,97/200,115,120.0
578,G#2,136.0,0.25,115,120.0
579,B3,136.473,61/125,115,120.0
580,E3,136.473,61/125,115,120.0
581,G#2,137.015,0.25,115,120.0
582,D2,138.015,0.25,115,120.0
583,C#3,138.015,0.25,115,120.0
584,D2,139.015,97/200,115,120.0
585,A3,139.015,0.25,115,120.0
586,E2,139.015,0.25,115,120.0
587,E2,139.515,97/200,115,120.0
588,E2,139.515,0.25,115,120.0
589,A3,139.515,0.25,115,120.0
590,E2,140.0,61/125,115,120.0
591,G#2,141.0,0.25,115,120.0
592,E4,141.0,1.0,115,120.0
593,E4,141.052,1.0,115,120.0
594,D3,141.121,97/200,115,120.0
595,A3,141.121,97/200,115,120.0
596,B3,141.621,9/20,115,120.0
597,E3,141.621,9/20,115,120.0
598,G#2,142.0,0.25,115,120.0
599,E4,142.0,1.0,115,120.0
600,E4,142.052,1.0,115,120.0
601,B3,142.071,301/500,115,120.0
602,E3,142.071,301/500,115,120.0
603,G#2,143.0,0.25,115,120.0
604,G#4,143.0,1.0,115,120.0
605,G#4,143.052,237/250,115,120.0
606,G#2,144.0,0.25,115,120.0
607,G#4,144.0,1.0,115,120.0
608,G#4,144.0,13/250,115,120.0
609,G#4,144.052,1.0,115,120.0
610,G#2,145.0,0.25,115,120.0
611,A4,145.0,1.0,115,120.0
612,A4,145.052,1.0,115,120.0
613,G#2,146.0,0.25,115,120.0
614,A4,146.0,1.0,115,120.0
615,A4,146.052,1.0,115,120.0
616,G#2,147.0,0.25,115,120.0
617,B4,147.0,1.0,115,120.0
618,B4,147.052,237/250,115,120.0
619,G#2,148.0,0.25,115,120.0
620,E5,148.0,4.0,100,120.0
621,B4,148.0,13/250,115,120.0
622,E5,148.052,987/250,100,120.0
623,G#2,149.0,0.25,115,120.0
624,G#2,150.0,0.25,115,120.0
625,G#2,151.0,0.25,115,120.0
626,D3,151.488,97/200,115,120.0
627,A3,151.488,97/200,115,120.0
628,B-2,151.515,97/200,115,120.0
629,B3,151.988,97/200,115,120.0
630,E3,151.988,97/200,115,120.0
631,G#2,152.0,0.25,115,120.0
632,E5,152.0,297/200,100,120.0
633,E5,152.0,769/500,100,120.0
634,B3,152.473,567/1000,115,120.0
635,E3,152.473,567/1000,115,120.0
636,G#2,153.015,0.25,115,120.0
637,D2,154.015,0.25,115,120.0
638,C#3,154.015,0.25,115,120.0
639,D2,155.015,97/200,115,120.0
640,A3,155.015,0.25,115,120.0
641,E2,155.015,0.25,115,120.0
642,E2,155.515,97/200,115,120.0
643,E2,155.515,0.25,115,120.0
644,A3,155.515,0.25,115,120.0
645,E2,156.0,61/125,115,120.0
646,G#2,157.0,0.25,115,120.0
647,E5,157.0,1.0,115,120.0
648,E5,157.052,1.0,115,120.0
649,D3,157.121,97/200,115,120.0
650,A3,157.121,97/200,115,120.0
651,B3,157.621,9/20,115,120.0
652,E3,157.621,9/20,115,120.0
653,G#2,158.0,0.25,115,120.0
654,D5,158.0,1.0,115,120.0
655,D5,158.052,1.0,115,120.0
656,B3,158.071,11/25,115,120.0
657,E3,158.071,11/25,115,120.0
658,G#2,159.0,0.25,115,120.0
659,E5,159.0,1.0,115,120.0
660,E5,159.052,237/250,115,120.0
661,G#2,160.0,0.25,115,120.0
662,D5,160.0,1.0,115,120.0
663,E5,160.0,13/250,115,120.0
664,D5,160.052,1.0,115,120.0
665,G#2,161.0,0.25,115,120.0
666,B4,161.0,1.0,115,120.0
667,B4,161.052,1.0,115,120.0
668,G#2,162.0,0.25,115,120.0
669,A4,162.0,1.0,115,120.0
670,A4,162.052,1.0,115,120.0
671,G#2,163.0,0.25,115,120.0
672,A4,163.0,1.0,115,120.0
673,A4,163.052,237/250,115,120.0
674,G#2,164.0,0.25,115,120.0
675,E4,164.0,4.0,115,120.0
676,A4,164.0,13/250,115,120.0
677,E4,164.052,987/250,115,120.0
678,G#2,165.0,0.25,115,120.0
679,G#2,166.0,0.25,115,120.0
680,G#2,167.0,0.25,115,120.0
681,D3,167.488,97/200,115,120.0
682,A3,167.488,97/200,115,120.0
683,B-2,167.515,97/200,115,120.0
684,B3,167.988,97/200,115,120.0
685,E3,167.988,97/200,115,120.0
686,G#2,168.0,0.25,115,120.0
687,E4,168.0,297/200,115,120.0
688,E4,168.0,769/500,115,120.0
689,B3,168.473,101/250,115,120.0
690,E3,168.473,101/250,115,120.0
691,G#2,169.015,0.25,115,120.0
692,D2,170.015,0.25,115,120.0
693,C#3,170.015,0.25,115,120.0
694,D2,171.015,97/200,115,120.0
695,A3,171.015,0.25,115,120.0
696,E2,171.015,0.25,115,120.0
697,E2,171.515,97/200,115,120.0
698,E2,171.515,0.25,115,120.0
699,A3,171.515,0.25,115,120.0
700,E2,172.0,61/125,115,120.0
701,G#2,173.0,0.25,115,120.0
702,E4,173.0,1.0,115,120.0
703,E4,173.052,1.0,115,120.0
704,D3,173.121,97/200,115,120.0
705,A3,173.121,97/200,115,120.0
706,B3,173.621,9/20,115,120.0
707,E3,173.621,9/20,115,120.0
708,G#2,174.0,0.25,115,120.0
709,E4,174.0,1.0,115,120.0
710,E4,174.052,1.0,115,120.0
711,B3,174.071,137/250,115,120.0
712,E3,174.071,137/250,115,120.0
713,G#2,175.0,0.25,115,120.0
714,G#4,175.0,1.0,115,120.0
715,G#4,175.052,237/250,115,120.0
716,G#2,176.0,0.25,115,120.0
717,G#4,176.0,1.0,115,120.0
718,G#4,176.0,13/250,115,120.0
719,G#4,176.052,1.0,115,120.0
720,G#2,177.0,0.25,115,120.0
721,A4,177.0,1.0,115,120.0
722,A4,177.052,1.0,115,120.0
723,G#2,178.0,0.25,115,120.0
724,A4,178.0,1.0,115,120.0
725,A4,178.052,1.0,115,120.0
726,G#2,179.0,0.25,115,120.0
727,B4,179.0,1.0,115,120.0
728,B4,179.052,237/250,115,120.0
729,G#2,180.0,0.25,115,120.0
730,E5,180.0,4.0,100,120.0
731,B4,180.0,13/250,115,120.0
732,E5,180.052,987/250,100,120.0
733,G#2,181.0,0.25,115,120.0
734,G#2,182.0,0.25,115,120.0
735,G#2,183.0,0.25,115,120.0
736,D3,183.488,97/200,115,120.0
737,A3,183.488,97/200,115,120.0
738,B-2,183.515,97/200,115,120.0
739,B3,183.988,97/200,115,120.0
740,E3,183.988,97/200,115,120.0
741,G#2,184.0,0.25,115,120.0
742,E5,184.0,297/200,100,120.0
743,E5,184.0,769/500,100,120.0
744,B3,184.473,64/125,115,120.0
745,E3,184.473,64/125,115,120.0
746,G#2,185.015,0.25,115,120.0
747,D2,186.015,0.25,115,120.0
748,C#3,186.015,0.25,115,120.0
749,D2,187.015,97/200,115,120.0
750,A3,187.015,0.25,115,120.0
751,E2,187.015,0.25,115,120.0
752,E2,187.515,97/200,115,120.0
753,E2,187.515,0.25,115,120.0
754,A3,187.515,0.25,115,120.0
755,E2,188.0,61/125,115,120.0
756,G#2,189.0,0.25,115,120.0
757,E5,189.0,1.0,115,120.0
758,E5,189.052,1.0,115,120.0
759,D3,189.121,97/200,115,120.0
760,A3,189.121,97/200,115,120.0
761,B3,189.621,9/20,115,120.0
762,E3,189.621,9/20,115,120.0
763,G#2,190.0,0.25,115,120.0
764,D5,190.0,1.0,115,120.0
765,D5,190.052,1.0,115,120.0
766,B3,190.071,629/1000,115,120.0
767,E3,190.071,629/1000,115,120.0
768,G#2,191.0,0.25,115,120.0
769,E5,191.0,1.0,115,120.0
770,E5,191.052,237/250,115,120.0
771,G#2,192.0,0.25,115,120.0
772,D5,192.0,1.0,115,120.0
773,E5,192.0,13/250,115,120.0
774,D5,192.052,1.0,115,120.0
775,G#2,193.0,0.25,115,120.0
776,B4,193.0,1.0,115,120.0
777,B4,193.052,1.0,115,120.0
778,G#2,194.0,0.25,115,120.0
779,A4,194.0,1.0,115,120.0
780,A4,194.052,1.0,115,120.0
781,G#2,195.0,0.25,115,120.0
782,A4,195.0,1.0,115,120.0
783,A4,195.052,237/250,115,120.0
784,G#2,196.0,0.25,115,120.0
785,E4,196.0,4.0,115,120.0
786,A4,196.0,13/250,115,120.0
787,E4,196.052,987/250,115,120.0
788,G#2,197.0,0.25,115,120.0
789,G#2,198.0,0.25,115,120.0
790,G#2,199.0,0.25,115,120.0
791,D3,199.488,97/200,115,120.0
792,A3,199.488,97/200,115,120.0
793,B-2,199.515,97/200,115,120.0
794,B3,199.988,97/200,115,120.0
795,E3,199.988,97/200,115,120.0
796,G#2,200.0,0.25,115,120.0
797,E4,200.0,297/200,115,120.0
798,E4,200.0,769/500,115,120.0
799,B3,200.473,0.594,115,120.0
800,E3,200.473,0.594,115,120.0
801,G#2,201.015,0.25,115,120.0
802,D2,202.015,0.25,115,120.0
803,C#3,202.015,0.25,115,120.0
804,D2,203.015,97/200,115,120.0
805,A3,203.015,0.25,115,120.0
806,E2,203.015,0.25,115,120.0
807,E2,203.515,97/200,115,120.0
808,E2,203.515,0.25,115,120.0
809,A3,203.515,0.25,115,120.0
810,E2,204.0,61/125,115,120.0
811,G#2,205.0,0.25,115,120.0
812,E4,205.0,1.0,115,120.0
813,E4,205.052,1.0,115,120.0
814,D3,205.121,97/200,115,120.0
815,A3,205.121,97/200,115,120.0
816,B3,205.621,9/20,115,120.0
817,E3,205.621,9/20,115,120.0
818,G#2,206.0,0.25,115,120.0
819,E4,206.0,1.0,115,120.0
820,E4,206.052,1.0,115,120.0
821,B3,206.071,301/500,115,120.0
822,E3,206.071,301/500,115,120.0
823,G#2,207.0,0.25,115,120.0
824,G#4,207.0,1.0,115,120.0
825,G#4,207.052,237/250,115,120.0
826,G#2,208.0,0.25,115,120.0
827,G#4,208.0,1.0,115,120.0
828,G#4,208.0,13/250,115,120.0
829,G#4,208.052,1.0,115,120.0
830,G#2,209.0,0.25,115,120.0
831,A4,209.0,1.0,115,120.0
832,A4,209.052,1.0,115,120.0
833,G#2,210.0,0.25,115,120.0
834,A4,210.0,1.0,115,120.0
835,A4,210.052,1.0,115,120.0
836,G#2,211.0,0.25,115,120.0
837,B4,211.0,1.0,115,120.0
838,B4,211.052,237/250,115,120.0
839,G#2,212.0,0.25,115,120.0
840,E5,212.0,4.0,100,120.0
841,B4,212.0,13/250,115,120.0
842,E5,212.052,987/250,100,120.0
843,G#2,213.0,0.25,115,120.0
844,G#2,214.0,0.25,115,120.0
845,G#2,215.0,0.25,115,120.0
846,D3,215.488,97/200,115,120.0
847,A3,215.488,97/200,115,120.0
848,B-2,215.515,97/200,115,120.0
849,B3,215.988,97/200,115,120.0
850,E3,215.988,97/200,115,120.0
851,G#2,216.0,0.25,115,120.0
852,E5,216.0,297/200,100,120.0
853,E5,216.0,769/500,100,120.0
854,B3,216.473,567/1000,115,120.0
855,E3,216.473,567/1000,115,120.0
856,G#2,217.015,0.25,115,120.0
857,D2,218.015,0.25,115,120.0
858,C#3,218.015,0.25,115,120.0
859,D2,219.015,97/200,115,120.0
860,A3,219.015,0.25,115,120.0
861,E2,219.015,0.25,115,120.0
862,B3,219.106,333/1000,115,120.0
863,A3,219.44,333/1000,87,120.0
864,E2,219.515,97/200,115,120.0
865,E2,219.515,0.25,115,120.0
866,A3,219.515,0.25,115,120.0
867,G3,219.773,333/1000,87,120.0
868,E2,220.0,61/125,115,120.0
869,E3,220.106,729/1000,115,120.0
870,G#2,221.0,0.25,115,120.0
871,E5,221.0,1.0,115,120.0
872,E5,221.052,1.0,115,120.0
873,D3,221.121,97/200,115,120.0
874,A3,221.121,97/200,115,120.0
875,B3,221.621,9/20,115,120.0
876,E3,221.621,9/20,115,120.0
877,G#2,222.0,0.25,115,120.0
878,D5,222.0,1.0,115,120.0
879,D5,222.052,1.0,115,120.0
880,B3,222.071,523/1000,115,120.0
881,E3,222.071,523/1000,115,120.0
882,G#2,223.0,0.25,115,120.0
883,E5,223.0,1.0,115,120.0
884,E5,223.052,237/250,115,120.0
885,G#2,224.0,0.25,115,120.0
886,D5,224.0,1.0,115,120.0
887,E5,224.0,13/250,115,120.0
888,D5,224.052,1.0,115,120.0
889,G#2,225.0,0.25,115,120.0
890,B4,225.0,1.0,115,120.0
891,B4,225.052,1.0,115,120.0
892,G#2,226.0,0.25,115,120.0
893,A4,226.0,1.0,115,120.0
894,A4,226.052,1.0,115,120.0
895,G#2,227.0,0.25,115,120.0
896,A4,227.0,1.0,115,120.0
897,A4,227.052,237/250,115,120.0
898,G#2,228.0,0.25,115,120.0
899,E4,228.0,4.0,115,120.0
900,A4,228.0,13/250,115,120.0
901,E4,228.052,987/250,115,120.0
902,G#2,229.0,0.25,115,120.0
903,B3,229.473,333/1000,115,120.0
904,A3,229.806,333/1000,87,120.0
905,G#2,230.0,0.25,115,120.0
906,G3,230.14,333/1000,87,120.0
907,E3,230.473,729/1000,115,120.0
908,G#2,231.0,0.25,115,120.0
909,D3,231.488,97/200,115,120.0
910,A3,231.488,97/200,115,120.0
911,B-2,231.515,97/200,115,120.0
912,B3,231.988,97/200,115,120.0
913,E3,231.988,97/200,115,120.0
914,G#2,232.0,0.25,115,120.0
915,E4,232.0,297/200,115,120.0
916,E4,232.0,769/500,115,120.0
917,B3,232.473,61/125,115,120.0
918,E3,232.473,61/125,115,120.0
919,G#2,233.015,0.25,115,120.0
920,D3,233.106,0.25,115,120.0
921,E3,233.356,0.25,77,120.0
922,D3,233.606,0.25,77,120.0
923,E3,233.856,43/200,77,120.0
924,D2,234.015,0.25,115,120.0
925,C#3,234.015,0.25,115,120.0
926,E3,234.071,7/200,77,120.0
927,D3,234.106,0.25,77,120.0
928,E3,234.356,0.25,77,120.0
929,D3,234.606,0.25,77,120.0
930,E3,234.856,0.25,77,120.0
931,D2,235.015,97/200,115,120.0
932,A3,235.015,0.25,115,120.0
933,E2,235.015,0.25,115,120.0
934,D3,235.106,0.25,77,120.0
935,E3,235.356,0.25,77,120.0
936,E2,235.515,97/200,115,120.0
937,E2,235.515,0.25,115,120.0
938,A3,235.515,0.25,115,120.0
939,D3,235.606,0.25,77,120.0
940,E3,235.856,0.25,77,120.0
941,E2,236.0,61/125,115,120.0
942,D3,236.106,1.0,87,120.0
943,G#2,237.0,0.25,115,120.0
944,E4,237.0,1.0,115,120.0
945,E4,237.052,1.0,115,120.0
946,D3,237.121,97/200,115,120.0
947,A3,237.121,97/200,115,120.0
948,E3,237.621,9/20,115,120.0
949,B3,237.621,9/20,115,120.0
950,G#2,238.0,0.25,115,120.0
951,E4,238.0,1.0,115,120.0
952,E4,238.052,1.0,115,120.0
953,E3,238.071,523/1000,115,120.0
954,B3,238.071,523/1000,115,120.0
955,G#2,239.0,0.25,115,120.0
956,G#4,239.0,1.0,115,120.0
957,G#4,239.052,237/250,115,120.0
958,G#2,240.0,0.25,115,120.0
959,G#4,240.0,1.0,115,120.0
960,G#4,240.0,13/250,115,120.0
961,G#4,240.052,1.0,115,120.0
962,G#2,241.0,0.25,115,120.0
963,A4,241.0,1.0,115,120.0
964,A4,241.052,1.0,115,120.0
965,G#2,242.0,0.25,115,120.0
966,A4,242.0,1.0,115,120.0
967,A4,242.052,1.0,115,120.0
968,G#2,243.0,0.25,115,120.0
969,B4,243.0,1.0,115,120.0
970,B4,243.052,237/250,115,120.0
971,D3,243.473,0.25,115,120.0
972,E3,243.723,0.25,77,120.0
973,D3,243.973,0.25,77,120.0
974,G#2,244.0,0.25,115,120.0
975,E5,244.0,4.0,100,120.0
976,B4,244.0,13/250,115,120.0
977,E5,244.052,987/250,100,120.0
978,E3,244.223,0.25,77,120.0
979,D3,244.473,0.25,77,120.0
980,E3,244.723,0.25,77,120.0
981,D2,244.956,0.062,115,120.0
982,D3,244.973,0.25,77,120.0
983,D2,245.0,0.25,115,120.0
984,E3,245.223,0.25,77,120.0
985,D3,245.473,0.25,77,120.0
986,C2,245.5,0.25,115,120.0
987,E3,245.723,0.25,77,120.0
988,D3,245.973,0.25,77,120.0
989,E3,246.223,0.25,77,120.0
990,D2,246.442,0.062,115,120.0
991,D3,246.473,1.0,87,120.0
992,D2,246.485,0.25,115,120.0
993,D2,247.442,0.062,115,120.0
994,D2,247.485,0.25,115,120.0
995,D3,247.488,97/200,115,120.0
996,A3,247.488,97/200,115,120.0
997,E3,247.988,97/200,115,120.0
998,B3,247.988,97/200,115,120.0
999,E5,248.0,297/200,100,120.0
1000,E5,248.0,769/500,100,120.0
1001,D2,248.425,0.062,115,120.0
1002,E3,248.473,61/125,115,120.0
1003,B3,248.473,61/125,115,120.0
1004,D2,248.485,0.25,115,120.0
1005,C2,248.735,0.25,115,120.0
1006,D2,250.015,0.25,115,120.0
1007,C#3,250.015,0.25,115,120.0
1008,D2,251.015,97/200,115,120.0
1009,A3,251.015,0.25,115,120.0
1010,E2,251.015,0.25,115,120.0
1011,E5,251.106,2.0,115,120.0
1012,B4,251.106,2.0,115,120.0
1013,G4,251.106,2.0,115,120.0
1014,E2,251.515,97/200,115,120.0
1015,E2,251.515,0.25,115,120.0
1016,A3,251.515,0.25,115,120.0
1017,E2,252.0,229/500,115,120.0
1018,G#2,253.0,0.25,115,120.0
1019,E5,253.0,1.0,115,120.0
1020,E5,253.052,1.0,115,120.0
1021,D3,253.121,97/200,115,120.0
1022,A3,253.121,97/200,115,120.0
1023,E3,253.621,9/20,115,120.0
1024,B3,253.621,9/20,115,120.0
1025,G#2,254.0,0.25,115,120.0
1026,D5,254.0,1.0,115,120.0
1027,D5,254.052,1.0,115,120.0
1028,E3,254.071,523/1000,115,120.0
1029,B3,254.071,523/1000,115,120.0
1030,G#2,255.0,0.25,115,120.0
1031,E5,255.0,1.0,115,120.0
1032,E5,255.052,237/250,115,120.0
1033,G#2,256.0,0.25,115,120.0
1034,D5,256.0,1.0,115,120.0
1035,E5,256.0,13/250,115,120.0
1036,D5,256.052,1.0,115,120.0
1037,G#2,257.0,0.25,115,120.0
1038,B4,257.0,1.0,115,120.0
1039,B4,257.052,1.0,115,120.0
1040,G#2,258.0,0.25,115,120.0
1041,A4,258.0,1.0,115,120.0
1042,A4,258.052,1.0,115,120.0
1043,G#2,259.0,0.25,115,120.0
1044,A4,259.0,1.0,115,120.0
1045,A4,259.052,237/250,115,120.0
1046,G#2,260.0,0.25,115,120.0
1047,E4,260.0,3729/1000,115,120.0
1048,A4,260.0,13/250,115,120.0
1049,E4,260.052,3729/1000,115,120.0
1050,G#2,261.0,0.25,115,120.0
1051,E5,261.473,2.0,115,120.0
1052,B4,261.473,2.0,115,120.0
1053,G4,261.473,2.0,115,120.0
1054,G#2,262.0,0.25,115,120.0
1055,G#2,263.0,0.25,115,120.0
1056,D3,263.488,97/200,115,120.0
1057,A3,263.488,97/200,115,120.0
1058,B-2,263.515,97/200,115,120.0
1059,E3,263.988,97/200,115,120.0
1060,B3,263.988,97/200,115,120.0
1061,G#2,264.0,0.25,115,120.0
1062,A5,264.0,1.0,127,120.0
1063,A5,264.052,1.0,127,120.0
1064,E3,264.473,61/125,115,120.0
1065,B3,264.473,61/125,115,120.0
1066,G5,265.0,1.0,127,120.0
1067,G#2,265.015,0.25,115,120.0
1068,G5,265.052,1.0,127,120.0
1069,E5,266.0,1.0,127,120.0
1070,D2,266.015,0.25,115,120.0
1071,C#3,266.015,0.25,115,120.0
1072,E5,266.052,1.0,127,120.0
1073,D2,267.015,97/200,115,120.0
1074,A3,267.015,0.25,115,120.0
1075,E2,267.015,0.25,115,120.0
1076,E2,267.515,97/200,115,120.0
1077,E2,267.515,0.25,115,120.0
1078,A3,267.515,0.25,115,120.0
1079,E2,268.0,229/500,115,120.0
1080,C2,268.494,0.25,115,120.0
1081,D2,269.0,0.25,115,120.0
1082,D3,269.121,97/200,115,120.0
1083,A3,269.121,97/200,115,120.0
1084,D2,269.515,0.25,115,120.0
1085,E3,269.621,9/20,115,120.0
1086,B3,269.621,9/20,115,120.0
1087,E3,270.071,519/500,115,120.0
1088,B3,270.071,519/500,115,120.0
1089,D2,270.5,0.25,115,120.0
1090,E3,271.106,0.062,115,120.0
1091,D2,271.515,0.25,115,120.0
1092,E3,271.606,0.062,115,120.0
1093,D2,272.015,0.25,115,120.0
1094,D2,272.5,0.25,115,120.0
1095,E3,272.606,0.062,115,120.0
1096,B2,273.0,0.25,115,120.0
1097,G2,273.0,1.0,115,120.0
1098,B2,273.5,0.25,115,120.0
1099,E3,273.606,0.062,115,120.0
1100,A2,274.0,0.25,115,120.0
1101,F#2,274.0,1.0,115,120.0
1102,E3,274.106,0.062,115,120.0
1103,A2,274.5,0.25,115,120.0
1104,E3,274.606,0.062,115,120.0
1105,F2,275.0,1.0,115,120.0
1106,C2,275.0,0.25,115,120.0
1107,A3,275.0,0.25,115,120.0
1108,D4,275.106,729/1000,115,120.0
1109,G3,275.106,729/1000,115,120.0
1110,F2,276.0,97/200,115,120.0
1111,C#4,276.106,729/1000,115,120.0
1112,F#3,276.106,729/1000,115,120.0
1113,F2,276.5,0.5,115,120.0
1114,C2,276.5,0.25,115,120.0
1115,B-2,276.5,0.25,115,120.0
1116,F2,277.0,297/200,115,120.0
1117,A3,277.0,0.25,115,120.0
1118,D2,277.0,0.25,115,120.0
1119,C4,277.106,193/200,115,120.0
1120,F3,277.106,193/200,115,120.0
1121,B-2,278.0,0.25,115,120.0
1122,C2,278.0,0.25,115,120.0
1123,C4,278.071,607/200,115,120.0
1124,F3,278.071,607/200,115,120.0
1125,F2,278.5,103/200,115,120.0
1126,E2,279.0,1.0,115,120.0
1127,B-2,279.0,0.25,115,120.0
1128,C2,279.0,0.25,115,120.0
1129,D3,279.488,97/200,115,120.0
1130,A3,279.488,97/200,115,120.0
1131,E3,279.988,97/200,115,120.0
1132,B3,279.988,97/200,115,120.0
1133,B-2,280.0,0.25,115,120.0
1134,E2,280.0,1.0,115,120.0
1135,E3,280.473,501/500,115,120.0
1136,B3,280.473,501/500,115,120.0
1137,C2,280.5,0.25,115,120.0
1138,E2,281.0,1.0,115,120.0
1139,C#3,281.0,0.25,115,120.0
1140,D2,281.0,0.25,115,120.0
1141,B3,281.106,193/200,115,120.0
1142,E3,281.106,193/200,115,120.0
1143,E3,281.473,0.062,115,120.0
1144,E3,281.973,0.062,115,120.0
1145,B-2,282.0,0.25,115,120.0
1146,E3,282.973,0.062,115,120.0
1147,D2,283.0,0.5,115,120.0
1148,A3,283.015,0.25,115,120.0
1149,C2,283.015,0.25,115,120.0
1150,B3,283.106,207/200,115,120.0
1151,E3,283.106,207/200,115,120.0
1152,E2,283.5,0.5,115,120.0
1153,E3,283.973,0.062,115,120.0
1154,E2,284.0,0.5,115,120.0
1155,G4,284.142,2.0,115,120.0
1156,E3,284.473,0.062,115,120.0
1157,C2,284.494,0.25,115,120.0
1158,E3,284.973,0.062,115,120.0
1159,D2,285.0,0.25,115,120.0
1160,D2,285.25,0.25,115,120.0
1161,D4,285.473,729/1000,115,120.0
1162,G3,285.473,729/1000,115,120.0
1163,D2,285.515,0.25,115,120.0
1164,D2,285.75,0.25,115,120.0
1165,A3,286.156,97/200,115,120.0
1166,D3,286.156,97/200,115,120.0
1167,C#4,286.473,729/1000,115,120.0
1168,F#3,286.473,729/1000,115,120.0
1169,D2,286.5,0.25,115,120.0
1170,E3,286.656,9/20,115,120.0
1171,B3,286.656,9/20,115,120.0
1172,E3,287.106,519/500,115,120.0
1173,B3,287.106,519/500,115,120.0
1174,C4,287.473,1.0,115,120.0
1175,F3,287.473,1.0,115,120.0
1176,D2,287.515,0.25,115,120.0
1177,D2,288.015,0.25,115,120.0
1178,E3,288.142,0.062,115,120.0
1179,C4,288.473,3.0,115,120.0
1180,F3,288.473,3.0,115,120.0
1181,D2,288.5,0.25,115,120.0
1182,E3,288.642,0.062,115,120.0
1183,B2,289.0,0.25,115,120.0
1184,G2,289.0,1.0,115,120.0
1185,B2,289.25,0.25,115,120.0
1186,B2,289.5,0.25,115,120.0
1187,E3,289.642,0.062,115,120.0
1188,C3,289.75,0.25,115,120.0
1189,C3,290.0,0.25,115,120.0
1190,F#2,290.0,1.0,115,120.0
1191,B2,290.25,0.25,115,120.0
1192,A2,290.5,0.25,115,120.0
1193,E3,290.642,0.062,115,120.0
1194,G2,290.75,0.25,115,120.0
1195,F2,291.0,1.0,115,120.0
1196,C2,291.0,0.25,115,120.0
1197,A3,291.0,0.25,115,120.0
1198,E3,291.142,0.062,115,120.0
1199,B3,291.473,1.0,115,120.0
1200,E3,291.473,1.0,115,120.0
1201,E3,291.642,0.062,115,120.0
1202,B-2,292.0,0.25,115,120.0
1203,F2,292.0,97/200,115,120.0
1204,D4,292.142,729/1000,115,120.0
1205,G3,292.142,729/1000,115,120.0
1206,F2,292.5,0.5,115,120.0
1207,F2,293.0,297/200,115,120.0
1208,B-2,293.0,0.25,115,120.0
1209,D2,293.0,0.25,115,120.0
1210,C#4,293.142,729/1000,115,120.0
1211,F#3,293.142,729/1000,115,120.0
1212,B3,293.473,1.0,115,120.0
1213,E3,293.473,1.0,115,120.0
1214,C2,293.5,0.25,115,120.0
1215,B-2,294.0,0.25,115,120.0
1216,C2,294.0,0.25,115,120.0
1217,C4,294.142,193/200,115,120.0
1218,F3,294.142,193/200,115,120.0
1219,G4,294.473,2.0,115,120.0
1220,F2,294.5,103/200,115,120.0
1221,E2,295.0,1.0,115,120.0
1222,C2,295.0,0.25,115,120.0
1223,A3,295.0,0.25,115,120.0
1224,C4,295.106,607/200,115,120.0
1225,F3,295.106,607/200,115,120.0
1226,E2,296.0,1.0,115,120.0
1227,C2,296.0,0.25,115,120.0
1228,B-2,296.0,0.25,115,120.0
1229,A3,296.488,97/200,115,120.0
1230,D3,296.488,97/200,115,120.0
1231,D2,296.515,0.25,115,120.0
1232,D2,296.765,0.25,115,120.0
1233,E3,296.988,97/200,115,120.0
1234,B3,296.988,97/200,115,120.0
1235,D2,297.0,0.25,115,120.0
1236,E2,297.0,0.25,115,120.0
1237,E2,297.25,0.25,115,120.0
1238,C3,297.265,0.25,115,120.0
1239,E3,297.473,501/500,115,120.0
1240,B3,297.473,501/500,115,120.0
1241,E2,297.5,0.25,115,120.0
1242,C3,297.515,0.25,115,120.0
1243,E2,297.75,0.25,115,120.0
1244,B2,297.765,0.25,115,120.0
1245,E2,298.0,0.25,115,120.0
1246,B2,298.015,0.25,115,120.0
1247,B3,298.142,193/200,115,120.0
1248,E3,298.142,193/200,115,120.0
1249,E2,298.25,0.25,115,120.0
1250,A2,298.265,0.25,115,120.0
1251,E3,298.473,0.062,115,120.0
1252,E2,298.5,0.25,115,120.0
1253,A2,298.515,0.25,115,120.0
1254,E2,298.75,0.25,115,120.0
1255,E3,298.973,0.062,115,120.0
1256,C2,299.0,0.25,115,120.0
1257,A3,299.0,0.25,115,120.0
1258,D2,299.015,97/200,115,120.0
1259,E2,299.515,97/200,115,120.0
1260,E3,299.973,0.062,115,120.0
1261,E2,300.0,229/500,115,120.0
1262,B3,300.142,207/200,115,120.0
1263,E3,300.142,207/200,115,120.0
1264,C2,300.5,0.25,115,120.0
1265,E3,300.973,0.062,115,120.0
1266,D2,301.0,0.25,115,120.0
1267,D4,301.177,0.25,115,120.0
1268,E4,301.427,0.25,115,120.0
1269,E3,301.473,0.062,115,120.0
1270,D2,301.5,0.25,115,120.0
1271,D4,301.677,0.25,115,120.0
1272,E4,301.927,0.25,115,120.0
1273,E3,301.973,0.062,115,120.0
1274,D2,302.0,0.25,115,120.0
1275,D4,302.177,0.25,115,120.0
1276,E4,302.427,0.25,115,120.0
1277,D4,302.473,729/1000,115,120.0
1278,G3,302.473,729/1000,115,120.0
1279,D2,302.5,0.25,115,120.0
1280,D4,302.677,103/200,115,120.0
1281,D2,303.0,0.25,115,120.0
1282,A3,303.192,97/200,115,120.0
1283,D3,303.192,97/200,115,120.0
1284,D2,303.25,0.25,115,120.0
1285,C#4,303.473,729/1000,115,120.0
1286,F#3,303.473,729/1000,115,120.0
1287,D2,303.485,0.25,115,120.0
1288,E3,303.692,9/20,115,120.0
1289,B3,303.692,9/20,115,120.0
1290,D2,303.985,3/200,115,120.0
1291,D2,304.0,47/200,115,120.0
1292,E3,304.142,519/500,115,120.0
1293,B3,304.142,519/500,115,120.0
1294,D2,304.235,0.25,115,120.0
1295,C4,304.473,1.0,115,120.0
1296,F3,304.473,1.0,115,120.0
1297,D2,304.485,0.25,115,120.0
1298,D2,304.735,0.25,115,120.0
1299,D2,305.0,0.25,115,120.0
1300,G2,305.0,1.0,115,120.0
1301,E3,305.177,0.062,115,120.0
1302,C4,305.473,3.0,115,120.0
1303,F3,305.473,3.0,115,120.0
1304,D2,305.5,0.25,115,120.0
1305,E3,305.677,0.062,115,120.0
1306,A2,306.0,0.25,115,120.0
1307,F#2,306.0,1.0,115,120.0
1308,G2,306.5,0.25,115,120.0
1309,E3,306.677,0.062,115,120.0
1310,F2,307.0,1.0,115,120.0
1311,C2,307.0,0.25,115,120.0
1312,C#3,307.0,0.25,115,120.0
1313,E3,307.677,0.062,115,120.0
1314,B-2,308.0,0.25,115,120.0
1315,F2,308.0,97/200,115,120.0
1316,E3,308.177,0.062,115,120.0
1317,B3,308.473,1.0,115,120.0
1318,E3,308.473,1.0,115,120.0
1319,F2,308.5,0.5,115,120.0
1320,E3,308.677,0.062,115,120.0
1321,F2,309.0,297/200,115,120.0
1322,B-2,309.0,0.25,115,120.0
1323,D2,309.0,0.25,115,120.0
1324,D4,309.177,729/1000,115,120.0
1325,G3,309.177,729/1000,115,120.0
1326,C2,309.5,0.25,115,120.0
1327,B-2,310.0,0.25,115,120.0
1328,C2,310.0,0.25,115,120.0
1329,C#4,310.177,729/1000,115,120.0
1330,F#3,310.177,729/1000,115,120.0
1331,B3,310.473,1.0,115,120.0
1332,E3,310.473,1.0,115,120.0
1333,F2,310.5,103/200,115,120.0
1334,E2,311.0,1.0,115,120.0
1335,C2,311.0,0.25,115,120.0
1336,A3,311.0,0.25,115,120.0
1337,C4,311.177,193/200,115,120.0
1338,F3,311.177,193/200,115,120.0
1339,D4,311.473,0.25,115,120.0
1340,E4,311.723,0.25,115,120.0
1341,D4,311.973,0.25,115,120.0
1342,E2,312.0,1.0,115,120.0
1343,C2,312.0,0.25,115,120.0
1344,B-2,312.0,0.25,115,120.0
1345,C4,312.142,607/200,115,120.0
1346,F3,312.142,607/200,115,120.0
1347,E4,312.223,0.25,115,120.0
1348,D4,312.473,0.25,115,120.0
1349,D2,312.515,0.25,115,120.0
1350,E4,312.723,0.25,115,120.0
1351,D2,312.765,0.25,115,120.0
1352,D4,312.973,103/200,115,120.0
1353,D2,313.0,0.25,115,120.0
1354,E2,313.0,1.0,115,120.0
1355,C3,313.265,0.25,115,120.0
1356,A3,313.488,97/200,115,120.0
1357,D3,313.488,97/200,115,120.0
1358,C3,313.515,0.25,115,120.0
1359,D3,313.765,0.25,115,120.0
1360,E3,313.988,97/200,115,120.0
1361,B3,313.988,97/200,115,120.0
1362,D3,314.015,0.25,115,120.0
1363,C3,314.265,0.25,115,120.0
1364,E3,314.473,501/500,115,120.0
1365,B3,314.473,501/500,115,120.0
1366,C3,314.515,0.25,115,120.0
1367,D2,315.0,0.5,115,120.0
1368,C2,315.0,0.25,115,120.0
1369,A3,315.0,0.25,115,120.0
1370,B3,315.177,193/200,115,120.0
1371,E3,315.177,193/200,115,120.0
1372,E3,315.473,0.062,115,120.0
1373,E2,315.5,0.5,115,120.0
1374,E3,315.973,0.062,115,120.0
1375,E2,316.0,0.5,115,120.0
1376,C2,316.5,0.25,115,120.0
1377,E3,316.973,0.062,115,120.0
1378,D2,317.0,0.25,115,120.0
1379,B3,317.177,207/200,115,120.0
1380,E3,317.177,207/200,115,120.0
1381,D2,317.25,0.25,115,120.0
1382,D2,317.5,0.25,115,120.0
1383,D2,317.75,0.25,115,120.0
1384,E3,317.973,0.062,115,120.0
1385,D2,318.0,0.25,115,120.0
1386,G4,318.212,2.0,115,120.0
1387,E3,318.473,0.062,115,120.0
1388,D2,318.5,0.25,115,120.0
1389,E3,318.973,0.062,115,120.0
1390,D2,319.0,0.25,115,120.0
1391,D4,319.473,729/1000,115,120.0
1392,G3,319.473,729/1000,115,120.0
1393,D2,319.485,0.25,115,120.0
1394,D2,319.985,3/200,115,120.0
1395,D2,320.0,47/200,115,120.0
1396,A3,320.227,97/200,115,120.0
1397,D3,320.227,97/200,115,120.0
1398,D2,320.235,0.25,115,120.0
1399,C#4,320.473,729/1000,115,120.0
1400,F#3,320.473,729/1000,115,120.0
1401,D2,320.485,0.25,115,120.0
1402,E3,320.727,9/20,115,120.0
1403,B3,320.727,9/20,115,120.0
1404,D2,320.735,0.25,115,120.0
1405,D2,321.0,0.25,115,120.0
1406,G2,321.0,1.0,115,120.0
1407,E3,321.177,519/500,115,120.0
1408,B3,321.177,519/500,115,120.0
1409,C4,321.473,1.0,115,120.0
1410,F3,321.473,1.0,115,120.0
1411,D2,321.5,0.25,115,120.0
1412,A2,322.0,0.25,115,120.0
1413,F#2,322.0,1.0,115,120.0
1414,E3,322.212,0.062,115,120.0
1415,C4,322.473,3.0,115,120.0
1416,F3,322.473,3.0,115,120.0
1417,G2,322.5,0.25,115,120.0
1418,E3,322.712,0.062,115,120.0
1419,F2,323.0,1.0,115,120.0
1420,C2,323.0,0.25,115,120.0
1421,C#3,323.0,0.25,115,120.0
1422,E3,323.712,0.062,115,120.0
1423,B-2,324.0,0.25,115,120.0
1424,F2,324.0,97/200,115,120.0
1425,F2,324.5,0.5,115,120.0
1426,E3,324.712,0.062,115,120.0
1427,F2,325.0,297/200,115,120.0
1428,B-2,325.0,0.25,115,120.0
1429,D2,325.0,0.25,115,120.0
1430,E3,325.212,0.062,115,120.0
1431,B3,325.473,1.0,115,120.0
1432,E3,325.473,1.0,115,120.0
1433,C2,325.5,0.25,115,120.0
1434,E3,325.712,0.062,115,120.0
1435,B-2,326.0,0.25,115,120.0
1436,C2,326.0,0.25,115,120.0
1437,D4,326.212,729/1000,115,120.0
1438,G3,326.212,729/1000,115,120.0
1439,F2,326.5,103/200,115,120.0
1440,E2,327.0,1.0,115,120.0
1441,C2,327.0,0.25,115,120.0
1442,A3,327.0,0.25,115,120.0
1443,C#4,327.212,729/1000,115,120.0
1444,F#3,327.212,729/1000,115,120.0
1445,B3,327.473,1.0,115,120.0
1446,E3,327.473,1.0,115,120.0
1447,E2,328.0,3.0,115,120.0
1448,B-2,328.0,0.25,115,120.0
1449,C2,328.0,0.25,115,120.0
1450,C4,328.212,193/200,115,120.0
1451,F3,328.212,193/200,115,120.0
1452,D2,328.392,0.062,115,120.0
1453,G4,328.473,2.0,115,120.0
1454,D2,328.515,0.25,115,120.0
1455,D2,329.0,0.25,115,120.0
1456,C4,329.177,607/200,115,120.0
1457,F3,329.177,607/200,115,120.0
1458,D2,329.515,0.25,115,120.0
1459,D2,330.015,0.25,115,120.0
1460,A3,330.488,97/200,115,120.0
1461,D3,330.488,97/200,115,120.0
1462,D2,330.515,0.25,115,120.0
1463,E3,330.988,97/200,115,120.0
1464,B3,330.988,97/200,115,120.0
1465,E1,331.0,97/200,115,120.0
1466,C2,331.0,0.25,115,120.0
1467,A3,331.0,0.25,115,120.0
1468,E3,331.473,501/500,115,120.0
1469,B3,331.473,501/500,115,120.0
1470,E1,331.5,0.5,115,120.0
1471,B-2,332.0,0.25,115,120.0
1472,E1,332.0,0.5,115,120.0
1473,B3,332.212,193/200,115,120.0
1474,E3,332.212,193/200,115,120.0
1475,E3,332.473,0.062,115,120.0
1476,E1,332.5,0.5,115,120.0
1477,E3,332.973,0.062,115,120.0
1478,E3,333.0,497/200,115,120.0
1479,B-2,333.0,0.25,115,120.0
1480,D2,333.0,0.25,115,120.0
1481,E3,333.973,0.062,115,120.0
1482,B-2,334.0,0.25,115,120.0
1483,B3,334.212,207/200,115,120.0
1484,E3,334.212,207/200,115,120.0
1485,E3,334.973,0.062,115,120.0
1486,B-2,335.0,0.25,115,120.0
1487,C2,335.0,0.25,115,120.0
1488,C#4,335.265,171/1000,115,120.0
1489,A3,335.265,171/1000,115,120.0
1490,C4,335.385,37/200,115,120.0
1491,G#3,335.385,37/200,115,120.0
1492,E3,335.473,0.062,115,120.0
1493,D2,335.5,0.25,115,120.0
1494,E1,335.5,0.5,115,120.0
1495,B3,335.5,179/1000,115,120.0
1496,G3,335.5,179/1000,115,120.0
1497,B-3,335.596,33/200,115,120.0
1498,F#3,335.596,33/200,115,120.0
1499,A3,335.721,7/40,115,120.0
1500,F3,335.721,7/40,115,120.0
1501,G#3,335.846,37/200,115,120.0
1502,E3,335.846,37/200,115,120.0
1503,G3,335.971,169/1000,115,120.0
1504,E-3,335.971,169/1000,115,120.0
1505,E3,335.973,0.062,115,120.0
1506,B-2,336.0,0.25,115,120.0
1507,F#3,336.096,177/1000,115,120.0
1508,D3,336.096,177/1000,115,120.0
1509,F3,336.221,4/25,115,120.0
1510,C#3,336.221,4/25,115,120.0
1511,E3,336.346,63/250,115,120.0
1512,C3,336.346,63/250,115,120.0
1513,D4,336.473,729/1000,115,120.0
1514,G3,336.473,729/1000,115,120.0
1515,C2,336.5,0.25,115,120.0
1516,E1,336.5,0.5,115,120.0
1517,E-3,336.554,13/50,115,120.0
1518,B2,336.554,13/50,115,120.0
1519,C#3,336.748,21/40,115,120.0
1520,A2,336.748,21/40,115,120.0
1521,G2,337.0,2.0,115,120.0
1522,D2,337.0,0.25,115,120.0
1523,C#3,337.0,0.25,115,120.0
1524,E2,337.248,0.5,115,120.0
1525,C#4,337.473,729/1000,115,120.0
1526,F#3,337.473,729/1000,115,120.0
1527,E2,337.748,93/200,115,120.0
1528,B-2,338.0,0.25,115,120.0
1529,C2,338.0,0.25,115,120.0
1530,E2,338.212,7/200,115,120.0
1531,E2,338.248,0.5,115,120.0
1532,C4,338.473,1.0,115,120.0
1533,F3,338.473,1.0,115,120.0
1534,E2,338.748,0.5,115,120.0
1535,E1,339.0,97/200,115,120.0
1536,A3,339.0,0.25,115,120.0
1537,C2,339.0,0.25,115,120.0
1538,B4,339.248,2.0,102,120.0
1539,G4,339.248,2.0,102,120.0
1540,E5,339.248,2.0,102,120.0
1541,C4,339.473,3.0,115,120.0
1542,F3,339.473,3.0,115,120.0
1543,E1,339.5,0.5,115,120.0
1544,B-2,340.0,0.25,115,120.0
1545,E1,340.0,0.5,115,120.0
1546,E1,340.5,0.5,115,120.0
1547,E3,341.0,2.0,115,120.0
1548,B-2,341.0,0.25,115,120.0
1549,D2,341.0,0.25,115,120.0
1550,E2,341.748,93/200,115,120.0
1551,B-2,342.0,0.25,115,120.0
1552,E2,342.212,21/1000,115,120.0
1553,B3,342.473,1.0,115,120.0
1554,E3,342.473,1.0,115,120.0
1555,E2,342.748,0.5,115,120.0
1556,B-2,343.0,0.25,115,120.0
1557,C2,343.0,0.25,115,120.0
1558,G2,343.248,2.0,115,120.0
1559,D2,343.5,0.25,115,120.0
1560,E1,343.5,0.5,115,120.0
1561,B-2,344.0,0.25,115,120.0
1562,B3,344.473,1.0,115,120.0
1563,E3,344.473,1.0,115,120.0
1564,C2,344.5,0.25,115,120.0
1565,E1,344.5,0.5,115,120.0
1566,G2,345.0,2.0,115,120.0
1567,D2,345.0,0.25,115,120.0
1568,C#3,345.0,0.25,115,120.0
1569,E2,345.248,0.5,115,120.0
1570,C#4,345.49,171/1000,115,120.0
1571,A3,345.49,171/1000,115,120.0
1572,C4,345.61,37/200,115,120.0
1573,G#3,345.61,37/200,115,120.0
1574,B3,345.725,179/1000,115,120.0
1575,G3,345.725,179/1000,115,120.0
1576,E2,345.748,93/200,115,120.0
1577,B-3,345.821,33/200,115,120.0
1578,F#3,345.821,33/200,115,120.0
1579,A3,345.946,7/40,115,120.0
1580,F3,345.946,7/40,115,120.0
1581,C2,346.0,0.25,115,120.0
1582,C#3,346.0,0.25,115,120.0
1583,G#3,346.071,37/200,115,120.0
1584,E3,346.071,37/200,115,120.0
1585,G3,346.196,169/1000,115,120.0
1586,E-3,346.196,169/1000,115,120.0
1587,E2,346.212,7/200,115,120.0
1588,E2,346.248,0.5,115,120.0
1589,F#3,346.321,177/1000,115,120.0
1590,D3,346.321,177/1000,115,120.0
1591,F3,346.446,4/25,115,120.0
1592,C#3,346.446,4/25,115,120.0
1593,E3,346.571,63/250,115,120.0
1594,C3,346.571,63/250,115,120.0
1595,E2,346.748,0.5,115,120.0
1596,E-3,346.779,13/50,115,120.0
1597,B2,346.779,13/50,115,120.0
1598,C#3,346.973,21/40,115,120.0
1599,A2,346.973,21/40,115,120.0
1600,E1,347.0,97/200,115,120.0
1601,A3,347.0,0.25,115,120.0
1602,C2,347.0,0.25,115,120.0
1603,B4,347.248,2.0,102,120.0
1604,G4,347.248,2.0,102,120.0
1605,E5,347.248,2.0,102,120.0
1606,E2,347.473,0.5,115,120.0
1607,E1,347.5,0.5,115,120.0
1608,E2,347.973,0.5,115,120.0
1609,B-2,348.0,0.25,115,120.0
1610,E1,348.0,0.5,115,120.0
1611,E2,348.473,0.5,115,120.0
1612,E1,348.5,0.5,115,120.0
1613,E2,348.973,0.5,115,120.0
1614,E3,349.0,2.0,115,120.0
1615,B-2,349.0,0.25,115,120.0
1616,D2,349.0,0.25,115,120.0
1617,B4,349.473,2.0,102,120.0
1618,G4,349.473,2.0,102,120.0
1619,E5,349.473,2.0,102,120.0
1620,E2,349.748,93/200,115,120.0
1621,B-2,350.0,0.25,115,120.0
1622,E2,350.212,21/1000,115,120.0
1623,E2,350.748,0.5,115,120.0
1624,B-2,351.0,0.25,115,120.0
1625,C2,351.0,0.25,115,120.0
1626,G2,351.248,2.0,115,120.0
1627,D2,351.5,0.25,115,120.0
1628,E1,351.5,0.5,115,120.0
1629,E2,351.973,97/200,115,120.0
1630,B-2,352.0,0.25,115,120.0
1631,C2,352.5,0.25,115,120.0
1632,E1,352.5,0.5,115,120.0
1633,E2,352.973,0.5,115,120.0
1634,G2,353.0,2.0,115,120.0
1635,D2,353.0,0.25,115,120.0
1636,C#3,353.0,0.25,115,120.0
1637,E2,353.248,0.5,115,120.0
1638,G2,353.473,2.0,115,120.0
1639,E2,353.748,93/200,115,120.0
1640,B-2,354.0,0.25,115,120.0
1641,C2,354.0,0.25,115,120.0
1642,E2,354.212,7/200,115,120.0
1643,E2,354.248,0.5,115,120.0
1644,E2,354.748,0.5,115,120.0
1645,E1,355.0,97/200,115,120.0
1646,A3,355.0,0.25,115,120.0
1647,C2,355.0,0.25,115,120.0
1648,B4,355.248,2.0,102,120.0
1649,G4,355.248,2.0,102,120.0
1650,E5,355.248,2.0,102,120.0
1651,E2,355.473,0.5,115,120.0
1652,E1,355.5,0.5,115,120.0
1653,E2,355.973,0.5,115,120.0
1654,B-2,356.0,0.25,115,120.0
1655,E1,356.0,0.5,115,120.0
1656,E2,356.473,0.5,115,120.0
1657,E1,356.5,0.5,115,120.0
1658,E2,356.973,0.5,115,120.0
1659,E3,357.0,2.0,115,120.0
1660,B-2,357.0,0.25,115,120.0
1661,D2,357.0,0.25,115,120.0
1662,B4,357.473,2.0,102,120.0
1663,G4,357.473,2.0,102,120.0
1664,E5,357.473,2.0,102,120.0
1665,E2,357.748,93/200,115,120.0
1666,B-2,358.0,0.25,115,120.0
1667,E2,358.212,21/1000,115,120.0
1668,E2,358.748,0.5,115,120.0
1669,B-2,359.0,0.25,115,120.0
1670,C2,359.0,0.25,115,120.0
1671,G2,359.248,2.0,115,120.0
1672,D2,359.5,0.25,115,120.0
1673,E1,359.5,0.5,115,120.0
1674,D2,359.75,0.25,115,120.0
1675,E2,359.973,97/200,115,120.0
1676,D2,360.0,0.25,115,120.0
1677,D2,360.5,0.25,115,120.0
1678,E1,360.5,0.5,115,120.0
1679,E2,360.973,0.5,115,120.0
1680,C2,361.0,0.25,115,120.0
1681,G2,361.0,2.0,115,120.0
1682,E2,361.248,0.5,115,120.0
1683,G2,361.473,2.0,115,120.0
1684,D2,361.5,0.25,115,120.0
1685,E2,361.748,93/200,115,120.0
1686,D2,361.75,0.25,115,120.0
1687,D2,362.0,0.25,115,120.0
1688,E2,362.212,7/200,115,120.0
1689,E2,362.248,0.5,115,120.0
1690,D2,362.5,0.25,115,120.0
1691,E2,362.748,0.5,115,120.0
1692,D5,363.0,1.0,115,120.0
1693,C2,363.0,0.25,115,120.0
1694,C#3,363.0,0.25,115,120.0
1695,D5,363.052,237/250,115,120.0
1696,E5,363.248,2.0,102,120.0
1697,B4,363.248,2.0,102,120.0
1698,G4,363.248,2.0,102,120.0
1699,E2,363.473,0.5,115,120.0
1700,E2,363.973,0.5,115,120.0
1701,B-2,364.0,0.25,115,120.0
1702,E1,364.0,0.5,115,120.0
1703,D5,364.0,1.0,115,120.0
1704,D5,364.0,263/250,115,120.0
1705,E2,364.473,0.5,115,120.0
1706,E1,364.5,0.5,115,120.0
1707,E2,364.973,0.5,115,120.0
1708,D5,365.0,2.0,115,120.0
1709,B-2,365.0,0.25,115,120.0
1710,D2,365.0,0.25,115,120.0
1711,E2,365.015,297/200,115,120.0
1712,D5,365.052,2.0,115,120.0
1713,B4,365.473,2.0,102,120.0
1714,G4,365.473,2.0,102,120.0
1715,E5,365.473,2.0,102,120.0
1716,E2,365.748,93/200,115,120.0
1717,B-2,366.0,0.25,115,120.0
1718,E2,366.212,21/1000,115,120.0
1719,E1,366.515,0.5,115,120.0
1720,E2,366.748,0.5,115,120.0
1721,D5,367.0,1.0,115,120.0
1722,B-2,367.0,0.25,115,120.0
1723,C2,367.0,0.25,115,120.0
1724,D5,367.052,237/250,115,120.0
1725,G2,367.248,2.0,115,120.0
1726,D2,367.5,0.25,115,120.0
1727,E1,367.5,0.5,115,120.0
1728,E2,367.973,97/200,115,120.0
1729,B-2,368.0,0.25,115,120.0
1730,E1,368.0,0.5,115,120.0
1731,D5,368.0,1.0,115,120.0
1732,D5,368.0,13/250,115,120.0
1733,D5,368.052,1.0,115,120.0
1734,C2,368.5,0.25,115,120.0
1735,E1,368.5,0.5,115,120.0
1736,E2,368.973,0.5,115,120.0
1737,E5,369.0,1.0,115,120.0
1738,D2,369.0,0.25,115,120.0
1739,C#3,369.0,0.25,115,120.0
1740,E2,369.015,297/200,115,120.0
1741,E5,369.052,1.0,115,120.0
1742,E2,369.248,0.5,115,120.0
1743,G2,369.473,2.0,115,120.0
1744,E2,369.748,93/200,115,120.0
1745,A5,370.0,1.0,115,120.0
1746,B-2,370.0,0.25,115,120.0
1747,C2,370.0,0.25,115,120.0
1748,A5,370.052,1.0,115,120.0
1749,E2,370.212,7/200,115,120.0
1750,E2,370.248,0.5,115,120.0
1751,E1,370.515,0.5,115,120.0
1752,E2,370.748,0.5,115,120.0
1753,G#5,371.0,1.0,115,120.0
1754,C2,371.0,0.25,115,120.0
1755,B-2,371.0,0.25,115,120.0
1756,G#5,371.052,237/250,115,120.0
1757,E3,371.262,297/200,115,120.0
1758,E2,371.473,0.5,115,120.0
1759,E1,371.5,0.5,115,120.0
1760,E2,371.973,0.5,115,120.0
1761,B-2,372.0,0.25,115,120.0
1762,E1,372.0,0.5,115,120.0
1763,G#5,372.0,1.0,115,120.0
1764,G#5,372.0,263/250,115,120.0
1765,E2,372.473,0.5,115,120.0
1766,E1,372.5,0.5,115,120.0
1767,E2,372.762,0.5,115,120.0
1768,E2,372.973,0.5,115,120.0
1769,E5,373.0,1.0,115,120.0
1770,B-2,373.0,0.25,115,120.0
1771,D2,373.0,0.25,115,120.0
1772,E2,373.015,297/200,115,120.0
1773,E5,373.052,1.0,115,120.0
1774,E5,373.473,2.0,102,120.0
1775,B4,373.473,2.0,102,120.0
1776,G4,373.473,2.0,102,120.0
1777,E2,373.748,93/200,115,120.0
1778,B-2,374.0,0.25,115,120.0
1779,E5,374.0,1.0,115,120.0
1780,E5,374.052,1.0,115,120.0
1781,E2,374.212,7/200,115,120.0
1782,E2,374.248,0.5,115,120.0
1783,E1,374.515,0.5,115,120.0
1784,E2,374.748,0.5,115,120.0
1785,D5,375.0,1.0,115,120.0
1786,B-2,375.0,0.25,115,120.0
1787,C2,375.0,0.25,115,120.0
1788,D5,375.052,237/250,115,120.0
1789,E3,375.262,297/200,115,120.0
1790,D2,375.5,0.25,115,120.0
1791,E1,375.5,0.5,115,120.0
1792,E2,375.973,97/200,115,120.0
1793,B-2,376.0,0.25,115,120.0
1794,E1,376.0,0.5,115,120.0
1795,D5,376.0,1.0,115,120.0
1796,D5,376.0,263/250,115,120.0
1797,C2,376.5,0.25,115,120.0
1798,E1,376.5,0.5,115,120.0
1799,E2,376.762,0.5,115,120.0
1800,E2,376.973,0.5,115,120.0
1801,D2,377.0,0.25,115,120.0
1802,C#3,377.0,0.25,115,120.0
1803,E2,377.015,297/200,115,120.0
1804,G2,377.473,2.0,115,120.0
1805,E2,377.748,93/200,115,120.0
1806,C2,378.0,0.25,115,120.0
1807,C#3,378.0,0.25,115,120.0
1808,E2,378.212,7/200,115,120.0
1809,E2,378.248,0.5,115,120.0
1810,E1,378.515,0.5,115,120.0
1811,E2,378.748,0.5,115,120.0
1812,D5,379.0,1.0,115,120.0
1813,C2,379.0,0.25,115,120.0
1814,A3,379.0,0.25,115,120.0
1815,D5,379.052,237/250,115,120.0
1816,E3,379.262,297/200,115,120.0
1817,E2,379.473,0.5,115,120.0
1818,E1,379.5,0.5,115,120.0
1819,E2,379.973,0.5,115,120.0
1820,B-2,380.0,0.25,115,120.0
1821,E1,380.0,0.5,115,120.0
1822,D5,380.0,1.0,115,120.0
1823,D5,380.0,263/250,115,120.0
1824,E2,380.473,0.5,115,120.0
1825,E1,380.5,0.5,115,120.0
1826,E2,380.762,0.5,115,120.0
1827,E2,380.973,0.5,115,120.0
1828,D5,381.0,2.0,115,120.0
1829,B-2,381.0,0.25,115,120.0
1830,D2,381.0,0.25,115,120.0
1831,E2,381.015,297/200,115,120.0
1832,D5,381.052,2.0,115,120.0
1833,E3,381.488,297/200,115,120.0
1834,E2,381.748,93/200,115,120.0
1835,B-2,382.0,0.25,115,120.0
1836,E2,382.212,7/200,115,120.0
1837,E2,382.248,0.5,115,120.0
1838,E1,382.515,0.5,115,120.0
1839,E2,382.748,0.5,115,120.0
1840,E2,382.988,0.5,115,120.0
1841,E5,383.0,1.0,115,120.0
1842,B-2,383.0,0.25,115,120.0
1843,C2,383.0,0.25,115,120.0
1844,E5,383.052,237/250,115,120.0
1845,E3,383.262,297/200,115,120.0
1846,D2,383.5,0.25,115,120.0
1847,E1,383.5,0.5,115,120.0
1848,E2,383.973,0.5,115,120.0
1849,B-2,384.0,0.25,115,120.0
1850,E1,384.0,0.5,115,120.0
1851,D5,384.0,1.0,115,120.0
1852,E5,384.0,13/250,115,120.0
1853,D5,384.052,1.0,115,120.0
1854,E2,384.473,0.5,115,120.0
1855,C2,384.5,0.25,115,120.0
1856,E1,384.5,0.5,115,120.0
1857,E2,384.762,0.5,115,120.0
1858,E2,384.973,0.5,115,120.0
1859,G#5,385.0,1.0,115,120.0
1860,D2,385.0,0.25,115,120.0
1861,C#3,385.0,0.25,115,120.0
1862,E2,385.015,297/200,115,120.0
1863,G#5,385.052,1.0,115,120.0
1864,E3,385.488,297/200,115,120.0
1865,E2,385.748,93/200,115,120.0
1866,A5,386.0,1.0,115,120.0
1867,B-2,386.0,0.25,115,120.0
1868,C2,386.0,0.25,115,120.0
1869,A5,386.052,1.0,115,120.0
1870,E2,386.212,7/200,115,120.0
1871,E2,386.248,0.5,115,120.0
1872,E1,386.515,0.5,115,120.0
1873,E2,386.748,0.5,115,120.0
1874,E2,386.988,0.5,115,120.0
1875,G#5,387.0,1.0,115,120.0
1876,C2,387.0,0.25,115,120.0
1877,B-2,387.0,0.25,115,120.0
1878,G#5,387.052,237/250,115,120.0
1879,E3,387.262,297/200,115,120.0
1880,E1,387.5,0.5,115,120.0
1881,E2,387.973,0.5,115,120.0
1882,B-2,388.0,0.25,115,120.0
1883,E1,388.0,0.5,115,120.0
1884,G#5,388.0,1.0,115,120.0
1885,G#5,388.0,263/250,115,120.0
1886,E2,388.473,0.5,115,120.0
1887,E1,388.5,0.5,115,120.0
1888,E2,388.762,0.5,115,120.0
1889,E2,388.973,0.5,115,120.0
1890,B-2,389.0,0.25,115,120.0
1891,D2,389.0,0.25,115,120.0
1892,E2,389.015,297/200,115,120.0
1893,E3,389.488,297/200,115,120.0
1894,E2,389.748,93/200,115,120.0
1895,B-2,390.0,0.25,115,120.0
1896,E2,390.212,7/200,115,120.0
1897,E2,390.248,0.5,115,120.0
1898,E1,390.515,0.5,115,120.0
1899,E2,390.748,0.5,115,120.0
1900,E2,390.988,0.5,115,120.0
1901,B-2,391.0,0.25,115,120.0
1902,C2,391.0,0.25,115,120.0
1903,E3,391.262,297/200,115,120.0
1904,D2,391.5,0.25,115,120.0
1905,E1,391.5,0.5,115,120.0
1906,E2,391.973,0.5,115,120.0
1907,B-2,392.0,0.25,115,120.0
1908,E1,392.0,0.5,115,120.0
1909,E2,392.473,0.5,115,120.0
1910,C2,392.5,0.25,115,120.0
1911,E1,392.5,0.5,115,120.0
1912,E2,392.762,0.5,115,120.0
1913,E2,392.973,0.5,115,120.0
1914,D2,393.0,0.25,115,120.0
1915,C#3,393.0,0.25,115,120.0
1916,E2,393.015,297/200,115,120.0
1917,E3,393.488,297/200,115,120.0
1918,E2,393.748,93/200,115,120.0
1919,C2,394.0,0.25,115,120.0
1920,C#3,394.0,0.25,115,120.0
1921,E2,394.212,7/200,115,120.0
1922,E2,394.248,0.5,115,120.0
1923,E1,394.515,0.5,115,120.0
1924,E2,394.748,0.5,115,120.0
1925,E2,394.988,0.5,115,120.0
1926,D5,395.0,1.0,115,120.0
1927,C2,395.0,0.25,115,120.0
1928,B-2,395.0,0.25,115,120.0
1929,D5,395.052,237/250,115,120.0
1930,E3,395.262,297/200,115,120.0
1931,E1,395.5,0.5,115,120.0
1932,E2,395.973,0.5,115,120.0
1933,B-2,396.0,0.25,115,120.0
1934,E1,396.0,0.5,115,120.0
1935,D5,396.0,1.0,115,120.0
1936,D5,396.0,263/250,115,120.0
1937,E2,396.473,0.5,115,120.0
1938,E1,396.5,0.5,115,120.0
1939,E2,396.762,0.5,115,120.0
1940,E2,396.973,0.5,115,120.0
1941,D5,397.0,2.0,115,120.0
1942,B-2,397.0,0.25,115,120.0
1943,D2,397.0,0.25,115,120.0
1944,E2,397.015,297/200,115,120.0
1945,D5,397.052,2.0,115,120.0
1946,E3,397.488,297/200,115,120.0
1947,E2,397.748,93/200,115,120.0
1948,B-2,398.0,0.25,115,120.0
1949,E2,398.212,7/200,115,120.0
1950,E2,398.248,0.5,115,120.0
1951,E1,398.515,0.5,115,120.0
1952,E2,398.748,0.5,115,120.0
1953,E2,398.988,0.5,115,120.0
1954,D5,399.0,1.0,115,120.0
1955,B-2,399.0,0.25,115,120.0
1956,C2,399.0,0.25,115,120.0
1957,D5,399.052,237/250,115,120.0
1958,E3,399.262,297/200,115,120.0
1959,D2,399.5,0.25,115,120.0
1960,E1,399.5,0.5,115,120.0
1961,E2,399.973,0.5,115,120.0
1962,B-2,400.0,0.25,115,120.0
1963,E1,400.0,0.5,115,120.0
1964,D5,400.0,1.0,115,120.0
1965,D5,400.0,13/250,115,120.0
1966,D5,400.052,1.0,115,120.0
1967,E2,400.473,0.5,115,120.0
1968,C2,400.5,0.25,115,120.0
1969,E1,400.5,0.5,115,120.0
1970,E2,400.762,0.5,115,120.0
1971,E2,400.973,0.5,115,120.0
1972,E5,401.0,1.0,115,120.0
1973,D2,401.0,0.25,115,120.0
1974,C#3,401.0,0.25,115,120.0
1975,E2,401.015,297/200,115,120.0
1976,E5,401.052,1.0,115,120.0
1977,E3,401.488,297/200,115,120.0
1978,E2,401.748,93/200,115,120.0
1979,A5,402.0,1.0,115,120.0
1980,B-2,402.0,0.25,115,120.0
1981,C2,402.0,0.25,115,120.0
1982,A5,402.052,1.0,115,120.0
1983,E2,402.212,7/200,115,120.0
1984,E2,402.248,0.5,115,120.0
1985,E1,402.515,0.5,115,120.0
1986,E2,402.748,0.5,115,120.0
1987,E2,402.988,0.5,115,120.0
1988,G#5,403.0,1.0,115,120.0
1989,C2,403.0,0.25,115,120.0
1990,B-2,403.0,0.25,115,120.0
1991,G#5,403.052,237/250,115,120.0
1992,E3,403.262,297/200,115,120.0
1993,E1,403.5,0.5,115,120.0
1994,E2,403.973,0.5,115,120.0
1995,B-2,404.0,0.25,115,120.0
1996,E1,404.0,0.5,115,120.0
1997,G#5,404.0,1.0,115,120.0
1998,G#5,404.0,263/250,115,120.0
1999,E2,404.473,0.5,115,120.0
2000,E1,404.5,0.5,115,120.0
2001,E2,404.762,0.5,115,120.0
2002,E2,404.973,0.5,115,120.0
2003,E5,405.0,1.0,115,120.0
2004,B-2,405.0,0.25,115,120.0
2005,D2,405.0,0.25,115,120.0
2006,E2,405.015,297/200,115,120.0
2007,E5,405.052,1.0,115,120.0
2008,E3,405.488,297/200,115,120.0
2009,E2,405.748,93/200,115,120.0
2010,B-2,406.0,0.25,115,120.0
2011,E5,406.0,1.0,115,120.0
2012,E5,406.052,1.0,115,120.0
2013,E2,406.212,7/200,115,120.0
2014,E2,406.248,0.5,115,120.0
2015,E1,406.515,0.5,115,120.0
2016,E2,406.748,0.5,115,120.0
2017,E2,406.988,0.5,115,120.0
2018,D5,407.0,1.0,115,120.0
2019,B-2,407.0,0.25,115,120.0
2020,C2,407.0,0.25,115,120.0
2021,D5,407.052,237/250,115,120.0
2022,E3,407.262,297/200,115,120.0
2023,D2,407.5,0.25,115,120.0
2024,E1,407.5,0.5,115,120.0
2025,E2,407.973,0.5,115,120.0
2026,B-2,408.0,0.25,115,120.0
2027,E1,408.0,0.5,115,120.0
2028,D5,408.0,1.0,115,120.0
2029,D5,408.0,263/250,115,120.0
2030,E2,408.473,0.5,115,120.0
2031,C2,408.5,0.25,115,120.0
2032,E1,408.5,0.5,115,120.0
2033,E2,408.762,0.5,115,120.0
2034,E2,408.973,0.5,115,120.0
2035,D2,409.0,0.25,115,120.0
2036,C#3,409.0,0.25,115,120.0
2037,E2,409.015,297/200,115,120.0
2038,E3,409.488,297/200,115,120.0
2039,E2,409.748,93/200,115,120.0
2040,C2,410.0,0.25,115,120.0
2041,C#3,410.0,0.25,115,120.0
2042,E2,410.212,7/200,115,120.0
2043,E2,410.248,0.5,115,120.0
2044,E1,410.515,0.5,115,120.0
2045,E2,410.748,0.5,115,120.0
2046,E2,410.988,0.5,115,120.0
2047,D5,411.0,1.0,115,120.0
2048,C2,411.0,0.25,115,120.0
2049,B-2,411.0,0.25,115,120.0
2050,D5,411.052,237/250,115,120.0
2051,E3,411.262,297/200,115,120.0
2052,E1,411.5,0.5,115,120.0
2053,E2,411.973,0.5,115,120.0
2054,B-2,412.0,0.25,115,120.0
2055,E1,412.0,0.5,115,120.0
2056,D5,412.0,1.0,115,120.0
2057,D5,412.0,263/250,115,120.0
2058,E2,412.473,0.5,115,120.0
2059,E1,412.5,0.5,115,120.0
2060,E2,412.762,0.5,115,120.0
2061,E2,412.973,0.5,115,120.0
2062,D5,413.0,2.0,115,120.0
2063,B-2,413.0,0.25,115,120.0
2064,D2,413.0,0.25,115,120.0
2065,E2,413.015,297/200,115,120.0
2066,D5,413.052,2.0,115,120.0
2067,E3,413.488,297/200,115,120.0
2068,E2,413.748,93/200,115,120.0
2069,B-2,414.0,0.25,115,120.0
2070,E2,414.212,7/200,115,120.0
2071,E2,414.248,0.5,115,120.0
2072,E1,414.515,0.5,115,120.0
2073,E2,414.748,0.5,115,120.0
2074,E2,414.988,0.5,115,120.0
2075,E5,415.0,1.0,115,120.0
2076,B-2,415.0,0.25,115,120.0
2077,C2,415.0,0.25,115,120.0
2078,E5,415.052,237/250,115,120.0
2079,E3,415.262,297/200,115,120.0
2080,D2,415.5,0.25,115,120.0
2081,E1,415.5,0.5,115,120.0
2082,E2,415.973,0.5,115,120.0
2083,B-2,416.0,0.25,115,120.0
2084,E1,416.0,0.5,115,120.0
2085,D5,416.0,1.0,115,120.0
2086,E5,416.0,13/250,115,120.0
2087,D5,416.052,1.0,115,120.0
2088,E2,416.473,0.5,115,120.0
2089,C2,416.5,0.25,115,120.0
2090,E1,416.5,0.5,115,120.0
2091,E2,416.762,0.5,115,120.0
2092,E2,416.973,0.5,115,120.0
2093,G#5,417.0,1.0,115,120.0
2094,D2,417.0,0.25,115,120.0
2095,C#3,417.0,0.25,115,120.0
2096,E2,417.015,297/200,115,120.0
2097,G#5,417.052,1.0,115,120.0
2098,E3,417.488,297/200,115,120.0
2099,E2,417.748,93/200,115,120.0
2100,A5,418.0,1.0,115,120.0
2101,B-2,418.0,0.25,115,120.0
2102,C2,418.0,0.25,115,120.0
2103,A5,418.052,1.0,115,120.0
2104,E2,418.212,7/200,115,120.0
2105,E2,418.248,0.5,115,120.0
2106,E1,418.515,0.5,115,120.0
2107,E2,418.748,0.5,115,120.0
2108,E2,418.988,0.5,115,120.0
2109,G#5,419.0,1.0,115,120.0
2110,C2,419.0,0.25,115,120.0
2111,B-2,419.0,0.25,115,120.0
2112,G#5,419.052,237/250,115,120.0
2113,E3,419.262,297/200,115,120.0
2114,E1,419.5,0.5,115,120.0
2115,E2,419.973,0.5,115,120.0
2116,B-2,420.0,0.25,115,120.0
2117,E1,420.0,0.5,115,120.0
2118,G#5,420.0,1.0,115,120.0
2119,G#5,420.0,263/250,115,120.0
2120,E2,420.473,0.5,115,120.0
2121,C2,420.5,0.25,115,120.0
2122,E1,420.5,0.5,115,120.0
2123,E2,420.762,0.5,115,120.0
2124,E2,420.973,0.5,115,120.0
2125,D2,421.0,0.25,115,120.0
2126,C#3,421.0,0.25,115,120.0
2127,E2,421.015,297/200,115,120.0
2128,E3,421.488,297/200,115,120.0
2129,E2,421.748,93/200,115,120.0
2130,C2,422.0,0.25,115,120.0
2131,B-2,422.0,0.25,115,120.0
2132,E2,422.212,7/200,115,120.0
2133,E2,422.248,0.5,115,120.0
2134,E1,422.515,0.5,115,120.0
2135,E2,422.748,0.5,115,120.0
2136,E2,422.988,0.5,115,120.0
2137,C2,423.0,0.25,115,120.0
2138,B-2,423.0,0.25,115,120.0
2139,E3,423.262,297/200,115,120.0
2140,E1,423.5,0.5,115,120.0
2141,E2,423.973,0.5,115,120.0
2142,D2,424.0,0.25,115,120.0
2143,E1,424.0,0.5,115,120.0
2144,D2,424.25,0.25,115,120.0
2145,E2,424.473,0.5,115,120.0
2146,D2,424.5,0.25,115,120.0
2147,E1,424.5,0.5,115,120.0
2148,D2,424.75,0.25,115,120.0
2149,E2,424.762,0.5,115,120.0
2150,E2,424.973,0.5,115,120.0
2151,D2,425.0,0.25,115,120.0
2152,E2,425.015,297/200,115,120.0
2153,D2,425.25,0.25,115,120.0
2154,E3,425.488,297/200,115,120.0
2155,D2,425.5,0.25,115,120.0
2156,E2,425.748,93/200,115,120.0
2157,D2,425.75,271/1000,115,120.0
2158,D2,426.0,0.25,115,120.0
2159,E2,426.212,7/200,115,120.0
2160,E2,426.248,0.5,115,120.0
2161,D2,426.25,0.25,115,120.0
2162,D2,426.5,0.25,115,120.0
2163,E1,426.515,0.5,115,120.0
2164,E2,426.748,0.5,115,120.0
2165,E2,426.988,0.5,115,120.0
2166,C2,427.0,0.25,115,120.0
2167,C#3,427.0,0.25,115,120.0
2168,E3,427.262,297/200,115,120.0
2169,E1,427.5,0.5,115,120.0
2170,E2,427.973,0.5,115,120.0
2171,E-3,428.0,0.25,115,120.0
2172,E1,428.0,0.5,115,120.0
2173,E2,428.473,0.5,115,120.0
2174,E1,428.5,0.5,115,120.0
2175,E2,428.762,0.5,115,120.0
2176,E2,428.973,0.5,115,120.0
2177,E3,429.0,497/200,115,120.0
2178,D2,429.0,0.25,115,120.0
2179,C#3,429.0,0.25,115,120.0
2180,E3,429.488,297/200,115,120.0
2181,E2,429.748,93/200,115,120.0
2182,E-3,430.0,0.25,115,120.0
2183,E2,430.212,7/200,115,120.0
2184,E2,430.248,0.5,115,120.0
2185,E2,430.748,0.5,115,120.0
2186,E2,430.988,0.5,115,120.0
2187,C2,431.0,0.25,115,120.0
2188,E-3,431.0,0.25,115,120.0
2189,E3,431.262,297/200,115,120.0
2190,D2,431.5,0.25,115,120.0
2191,E1,431.5,0.5,115,120.0
2192,D2,431.75,0.25,115,120.0
2193,E2,431.973,0.5,115,120.0
2194,D2,432.0,0.25,115,120.0
2195,D2,432.25,0.25,115,120.0
2196,E2,432.473,0.5,115,120.0
2197,C2,432.5,0.25,115,120.0
2198,E1,432.5,0.5,115,120.0
2199,E2,432.762,0.5,115,120.0
2200,E2,432.973,0.5,115,120.0
2201,G2,433.0,2.0,115,120.0
2202,D2,433.0,0.25,115,120.0
2203,C#3,433.0,0.25,115,120.0
2204,E3,433.488,297/200,115,120.0
2205,E2,433.748,93/200,115,120.0
2206,C2,434.0,0.25,115,120.0
2207,E-3,434.0,0.25,115,120.0
2208,E2,434.212,7/200,115,120.0
2209,E2,434.248,0.5,115,120.0
2210,E2,434.748,0.5,115,120.0
2211,E2,434.988,0.5,115,120.0
2212,E1,435.0,97/200,115,120.0
2213,A3,435.0,0.25,115,120.0
2214,C2,435.0,0.25,115,120.0
2215,B4,435.248,2.0,102,120.0
2216,G4,435.248,2.0,102,120.0
2217,E5,435.248,2.0,102,120.0
2218,E1,435.5,0.5,115,120.0
2219,E2,435.973,0.5,115,120.0
2220,E-3,436.0,0.25,115,120.0
2221,E1,436.0,0.5,115,120.0
2222,E2,436.473,0.5,115,120.0
2223,E1,436.5,0.5,115,120.0
2224,E2,436.973,0.5,115,120.0
2225,E3,437.0,2.0,115,120.0
2226,D2,437.0,0.25,115,120.0
2227,C#3,437.0,0.25,115,120.0
2228,E3,437.488,297/200,115,120.0
2229,E2,437.748,93/200,115,120.0
2230,E-3,438.0,0.25,115,120.0
2231,E2,438.212,21/1000,115,120.0
2232,E2,438.748,0.5,115,120.0
2233,E2,438.988,0.5,115,120.0
2234,C2,439.0,0.25,115,120.0
2235,E-3,439.0,0.25,115,120.0
2236,G2,439.248,2.0,115,120.0
2237,D2,439.5,0.25,115,120.0
2238,E1,439.5,0.5,115,120.0
2239,E2,439.973,0.5,115,120.0
2240,E-3,440.0,0.25,115,120.0
2241,E2,440.473,0.5,115,120.0
2242,C2,440.5,0.25,115,120.0
2243,E1,440.5,0.5,115,120.0
2244,E2,440.973,0.5,115,120.0
2245,G2,441.0,2.0,115,120.0
2246,D2,441.0,0.25,115,120.0
2247,C#3,441.0,0.25,115,120.0
2248,E2,441.248,0.5,115,120.0
2249,E3,441.488,297/200,115,120.0
2250,E2,441.748,93/200,115,120.0
2251,C2,442.0,0.25,115,120.0
2252,E-3,442.0,0.25,115,120.0
2253,E2,442.212,7/200,115,120.0
2254,E2,442.248,0.5,115,120.0
2255,E2,442.748,0.5,115,120.0
2256,E2,442.988,0.5,115,120.0
2257,E1,443.0,97/200,115,120.0
2258,C2,443.0,0.25,115,120.0
2259,E-3,443.0,0.25,115,120.0
2260,B4,443.248,2.0,102,120.0
2261,G4,443.248,2.0,102,120.0
2262,E5,443.248,2.0,102,120.0
2263,E1,443.5,0.5,115,120.0
2264,E2,443.973,0.5,115,120.0
2265,E-3,444.0,0.25,115,120.0
2266,E1,444.0,0.5,115,120.0
2267,E2,444.473,0.5,115,120.0
2268,E1,444.5,0.5,115,120.0
2269,E2,444.973,0.5,115,120.0
2270,E3,445.0,2.0,115,120.0
2271,D2,445.0,0.25,115,120.0
2272,E-3,445.0,0.25,115,120.0
2273,B4,445.473,2.0,102,120.0
2274,G4,445.473,2.0,102,120.0
2275,E5,445.473,2.0,102,120.0
2276,E2,445.748,93/200,115,120.0
2277,E-3,446.0,0.25,115,120.0
2278,E2,446.212,21/1000,115,120.0
2279,E2,446.748,0.5,115,120.0
2280,C2,447.0,0.25,115,120.0
2281,E-3,447.0,0.25,115,120.0
2282,G2,447.248,2.0,115,120.0
2283,D2,447.5,0.25,115,120.0
2284,E1,447.5,0.5,115,120.0
2285,D2,447.75,0.25,115,120.0
2286,E2,447.973,97/200,115,120.0
2287,D2,448.0,0.25,115,120.0
2288,C2,448.5,0.25,115,120.0
2289,E1,448.5,0.5,115,120.0
2290,E2,448.973,0.5,115,120.0
2291,G2,449.0,2.0,115,120.0
2292,D2,449.0,0.25,115,120.0
2293,C#3,449.0,0.25,115,120.0
2294,E2,449.248,0.5,115,120.0
2295,G2,449.473,2.0,115,120.0
2296,E2,449.748,93/200,115,120.0
2297,C2,450.0,0.25,115,120.0
2298,E-3,450.0,0.25,115,120.0
2299,E2,450.212,7/200,115,120.0
2300,E2,450.248,0.5,115,120.0
2301,E2,450.748,0.5,115,120.0
2302,E1,451.0,97/200,115,120.0
2303,A3,451.0,0.25,115,120.0
2304,C2,451.0,0.25,115,120.0
2305,B4,451.248,2.0,102,120.0
2306,G4,451.248,2.0,102,120.0
2307,E5,451.248,2.0,102,120.0
2308,E2,451.473,0.5,115,120.0
2309,E1,451.5,0.5,115,120.0
2310,E2,451.973,0.5,115,120.0
2311,E-3,452.0,0.25,115,120.0
2312,E1,452.0,0.5,115,120.0
2313,E2,452.473,0.5,115,120.0
2314,E1,452.5,0.5,115,120.0
2315,E2,452.973,0.5,115,120.0
2316,E3,453.0,2.0,115,120.0
2317,D2,453.0,0.25,115,120.0
2318,E-3,453.0,0.25,115,120.0
2319,B4,453.473,2.0,102,120.0
2320,G4,453.473,2.0,102,120.0
2321,E5,453.473,2.0,102,120.0
2322,E2,453.748,93/200,115,120.0
2323,E-3,454.0,0.25,115,120.0
2324,E2,454.212,21/1000,115,120.0
2325,E2,454.748,0.5,115,120.0
2326,C2,455.0,0.25,115,120.0
2327,E-3,455.0,0.25,115,120.0
2328,G2,455.248,2.0,115,120.0
2329,D2,455.5,0.25,115,120.0
2330,E1,455.5,0.5,115,120.0
2331,D2,455.75,0.25,115,120.0
2332,E2,455.973,97/200,115,120.0
2333,D2,456.0,0.25,115,120.0
2334,D2,456.5,0.25,115,120.0
2335,E1,456.5,0.5,115,120.0
2336,E2,456.973,0.5,115,120.0
2337,C2,457.0,0.25,115,120.0
2338,G2,457.0,2.0,115,120.0
2339,E2,457.248,0.5,115,120.0
2340,G2,457.473,2.0,115,120.0
2341,D2,457.5,0.25,115,120.0
2342,E2,457.748,93/200,115,120.0
2343,D2,457.75,0.25,115,120.0
2344,D2,458.0,0.25,115,120.0
2345,E2,458.212,7/200,115,120.0
2346,E2,458.248,0.5,115,120.0
2347,D2,458.5,0.25,115,120.0
2348,E2,458.748,0.5,115,120.0
2349,D5,459.0,1.0,115,120.0
2350,C2,459.0,0.25,115,120.0
2351,C#3,459.0,0.25,115,120.0
2352,D5,459.052,237/250,115,120.0
2353,E5,459.248,2.0,102,120.0
2354,B4,459.248,2.0,102,120.0
2355,G4,459.248,2.0,102,120.0
2356,E2,459.473,0.5,115,120.0
2357,E2,459.973,0.5,115,120.0
2358,B-2,460.0,0.25,115,120.0
2359,E1,460.0,0.5,115,120.0
2360,D5,460.0,1.0,115,120.0
2361,D5,460.0,263/250,115,120.0
2362,E2,460.473,0.5,115,120.0
2363,E1,460.5,0.5,115,120.0
2364,E2,460.973,0.5,115,120.0
2365,D5,461.0,2.0,115,120.0
2366,B-2,461.0,0.25,115,120.0
2367,D2,461.0,0.25,115,120.0
2368,E2,461.015,297/200,115,120.0
2369,D5,461.052,2.0,115,120.0
2370,B4,461.473,2.0,102,120.0
2371,G4,461.473,2.0,102,120.0
2372,E5,461.473,2.0,102,120.0
2373,E2,461.748,93/200,115,120.0
2374,B-2,462.0,0.25,115,120.0
2375,E2,462.212,21/1000,115,120.0
2376,E1,462.515,0.5,115,120.0
2377,E2,462.748,0.5,115,120.0
2378,D5,463.0,1.0,115,120.0
2379,B-2,463.0,0.25,115,120.0
2380,C2,463.0,0.25,115,120.0
2381,D5,463.052,237/250,115,120.0
2382,G2,463.248,2.0,115,120.0
2383,D2,463.5,0.25,115,120.0
2384,E1,463.5,0.5,115,120.0
2385,E2,463.973,97/200,115,120.0
2386,B-2,464.0,0.25,115,120.0
2387,E1,464.0,0.5,115,120.0
2388,D5,464.0,1.0,115,120.0
2389,D5,464.0,13/250,115,120.0
2390,D5,464.052,1.0,115,120.0
2391,C2,464.5,0.25,115,120.0
2392,E1,464.5,0.5,115,120.0
2393,E2,464.973,0.5,115,120.0
2394,E5,465.0,1.0,115,120.0
2395,D2,465.0,0.25,115,120.0
2396,C#3,465.0,0.25,115,120.0
2397,E2,465.015,297/200,115,120.0
2398,E5,465.052,1.0,115,120.0
2399,E2,465.248,0.5,115,120.0
2400,G2,465.473,2.0,115,120.0
2401,E2,465.748,93/200,115,120.0
2402,A5,466.0,1.0,115,120.0
2403,B-2,466.0,0.25,115,120.0
2404,C2,466.0,0.25,115,120.0
2405,A5,466.052,1.0,115,120.0
2406,E2,466.212,7/200,115,120.0
2407,E2,466.248,0.5,115,120.0
2408,E1,466.515,0.5,115,120.0
2409,E2,466.748,0.5,115,120.0
2410,G#5,467.0,1.0,115,120.0
2411,C2,467.0,0.25,115,120.0
2412,B-2,467.0,0.25,115,120.0
2413,G#5,467.052,237/250,115,120.0
2414,E3,467.262,297/200,115,120.0
2415,E2,467.473,0.5,115,120.0
2416,E1,467.5,0.5,115,120.0
2417,E2,467.973,0.5,115,120.0
2418,B-2,468.0,0.25,115,120.0
2419,E1,468.0,0.5,115,120.0
2420,G#5,468.0,1.0,115,120.0
2421,G#5,468.0,263/250,115,120.0
2422,E2,468.473,0.5,115,120.0
2423,E1,468.5,0.5,115,120.0
2424,E2,468.762,0.5,115,120.0
2425,E2,468.973,0.5,115,120.0
2426,E5,469.0,1.0,115,120.0
2427,B-2,469.0,0.25,115,120.0
2428,D2,469.0,0.25,115,120.0
2429,E2,469.015,297/200,115,120.0
2430,E5,469.052,1.0,115,120.0
2431,E5,469.473,2.0,102,120.0
2432,B4,469.473,2.0,102,120.0
2433,G4,469.473,2.0,102,120.0
2434,E2,469.748,93/200,115,120.0
2435,B-2,470.0,0.25,115,120.0
2436,E5,470.0,1.0,115,120.0
2437,E5,470.052,1.0,115,120.0
2438,E2,470.212,7/200,115,120.0
2439,E2,470.248,0.5,115,120.0
2440,E1,470.515,0.5,115,120.0
2441,E2,470.748,0.5,115,120.0
2442,D5,471.0,1.0,115,120.0
2443,B-2,471.0,0.25,115,120.0
2444,C2,471.0,0.25,115,120.0
2445,D5,471.052,237/250,115,120.0
2446,E3,471.262,297/200,115,120.0
2447,D2,471.5,0.25,115,120.0
2448,E1,471.5,0.5,115,120.0
2449,E2,471.973,97/200,115,120.0
2450,B-2,472.0,0.25,115,120.0
2451,E1,472.0,0.5,115,120.0
2452,D5,472.0,1.0,115,120.0
2453,D5,472.0,263/250,115,120.0
2454,C2,472.5,0.25,115,120.0
2455,E1,472.5,0.5,115,120.0
2456,E2,472.762,0.5,115,120.0
2457,E2,472.973,0.5,115,120.0
2458,D2,473.0,0.25,115,120.0
2459,C#3,473.0,0.25,115,120.0
2460,E2,473.015,297/200,115,120.0
2461,G2,473.473,2.0,115,120.0
2462,E2,473.748,93/200,115,120.0
2463,C2,474.0,0.25,115,120.0
2464,C#3,474.0,0.25,115,120.0
2465,E2,474.212,7/200,115,120.0
2466,E2,474.248,0.5,115,120.0
2467,E1,474.515,0.5,115,120.0
2468,E2,474.748,0.5,115,120.0
2469,D5,475.0,1.0,115,120.0
2470,C2,475.0,0.25,115,120.0
2471,A3,475.0,0.25,115,120.0
2472,D5,475.052,237/250,115,120.0
2473,E3,475.262,297/200,115,120.0
2474,E2,475.473,0.5,115,120.0
2475,E1,475.5,0.5,115,120.0
2476,E2,475.973,0.5,115,120.0
2477,B-2,476.0,0.25,115,120.0
2478,E1,476.0,0.5,115,120.0
2479,D5,476.0,1.0,115,120.0
2480,D5,476.0,263/250,115,120.0
2481,E2,476.473,0.5,115,120.0
2482,E1,476.5,0.5,115,120.0
2483,E2,476.762,0.5,115,120.0
2484,E2,476.973,0.5,115,120.0
2485,D5,477.0,2.0,115,120.0
2486,B-2,477.0,0.25,115,120.0
2487,D2,477.0,0.25,115,120.0
2488,E2,477.015,297/200,115,120.0
2489,D5,477.052,2.0,115,120.0
2490,E3,477.488,297/200,115,120.0
2491,E2,477.748,93/200,115,120.0
2492,B-2,478.0,0.25,115,120.0
2493,E2,478.212,7/200,115,120.0
2494,E2,478.248,0.5,115,120.0
2495,E1,478.515,0.5,115,120.0
2496,E2,478.748,0.5,115,120.0
2497,E2,478.988,0.5,115,120.0
2498,E5,479.0,1.0,115,120.0
2499,B-2,479.0,0.25,115,120.0
2500,C2,479.0,0.25,115,120.0
2501,E5,479.052,237/250,115,120.0
2502,E3,479.262,297/200,115,120.0
2503,D2,479.5,0.25,115,120.0
2504,E1,479.5,0.5,115,120.0
2505,E2,479.973,0.5,115,120.0
2506,B-2,480.0,0.25,115,120.0
2507,E1,480.0,0.5,115,120.0
2508,D5,480.0,1.0,115,120.0
2509,E5,480.0,13/250,115,120.0
2510,D5,480.052,1.0,115,120.0
2511,E2,480.473,0.5,115,120.0
2512,C2,480.5,0.25,115,120.0
2513,E1,480.5,0.5,115,120.0
2514,E2,480.762,0.5,115,120.0
2515,E2,480.973,0.5,115,120.0
2516,G#5,481.0,1.0,115,120.0
2517,D2,481.0,0.25,115,120.0
2518,C#3,481.0,0.25,115,120.0
2519,E2,481.015,297/200,115,120.0
2520,G#5,481.052,1.0,115,120.0
2521,E3,481.488,297/200,115,120.0
2522,E2,481.748,93/200,115,120.0
2523,A5,482.0,1.0,115,120.0
2524,B-2,482.0,0.25,115,120.0
2525,C2,482.0,0.25,115,120.0
2526,A5,482.052,1.0,115,120.0
2527,E2,482.212,7/200,115,120.0
2528,E2,482.248,0.5,115,120.0
2529,E1,482.515,0.5,115,120.0
2530,E2,482.748,0.5,115,120.0
2531,E2,482.988,0.5,115,120.0
2532,G#5,483.0,1.0,115,120.0
2533,C2,483.0,0.25,115,120.0
2534,B-2,483.0,0.25,115,120.0
2535,G#5,483.052,237/250,115,120.0
2536,E3,483.262,297/200,115,120.0
2537,E1,483.5,0.5,115,120.0
2538,E2,483.973,0.5,115,120.0
2539,B-2,484.0,0.25,115,120.0
2540,E1,484.0,0.5,115,120.0
2541,G#5,484.0,1.0,115,120.0
2542,G#5,484.0,263/250,115,120.0
2543,E2,484.473,0.5,115,120.0
2544,E1,484.5,0.5,115,120.0
2545,E2,484.762,0.5,115,120.0
2546,E2,484.973,0.5,115,120.0
2547,B-2,485.0,0.25,115,120.0
2548,D2,485.0,0.25,115,120.0
2549,E2,485.015,297/200,115,120.0
2550,E3,485.488,297/200,115,120.0
2551,E2,485.748,93/200,115,120.0
2552,B-2,486.0,0.25,115,120.0
2553,E2,486.212,7/200,115,120.0
2554,E2,486.248,0.5,115,120.0
2555,E1,486.515,0.5,115,120.0
2556,E2,486.748,0.5,115,120.0
2557,E2,486.988,0.5,115,120.0
2558,B-2,487.0,0.25,115,120.0
2559,C2,487.0,0.25,115,120.0
2560,E3,487.262,297/200,115,120.0
2561,D2,487.5,0.25,115,120.0
2562,E1,487.5,0.5,115,120.0
2563,E2,487.973,0.5,115,120.0
2564,B-2,488.0,0.25,115,120.0
2565,E1,488.0,0.5,115,120.0
2566,E2,488.473,0.5,115,120.0
2567,C2,488.5,0.25,115,120.0
2568,E1,488.5,0.5,115,120.0
2569,E2,488.762,0.5,115,120.0
2570,E2,488.973,0.5,115,120.0
2571,D2,489.0,0.25,115,120.0
2572,C#3,489.0,0.25,115,120.0
2573,E2,489.015,297/200,115,120.0
2574,E3,489.488,297/200,115,120.0
2575,E2,489.748,93/200,115,120.0
2576,C2,490.0,0.25,115,120.0
2577,C#3,490.0,0.25,115,120.0
2578,E2,490.212,7/200,115,120.0
2579,E2,490.248,0.5,115,120.0
2580,E1,490.515,0.5,115,120.0
2581,E2,490.748,0.5,115,120.0
2582,E2,490.988,0.5,115,120.0
2583,D5,491.0,1.0,115,120.0
2584,C2,491.0,0.25,115,120.0
2585,A3,491.0,0.25,115,120.0
2586,D5,491.052,237/250,115,120.0
2587,E3,491.262,297/200,115,120.0
2588,E1,491.5,0.5,115,120.0
2589,E2,491.973,0.5,115,120.0
2590,B-2,492.0,0.25,115,120.0
2591,E1,492.0,0.5,115,120.0
2592,D5,492.0,1.0,115,120.0
2593,D5,492.0,263/250,115,120.0
2594,E2,492.473,0.5,115,120.0
2595,E1,492.5,0.5,115,120.0
2596,E2,492.762,0.5,115,120.0
2597,E2,492.973,0.5,115,120.0
2598,D5,493.0,2.0,115,120.0
2599,B-2,493.0,0.25,115,120.0
2600,D2,493.0,0.25,115,120.0
2601,E2,493.015,297/200,115,120.0
2602,D5,493.052,2.0,115,120.0
2603,E3,493.488,297/200,115,120.0
2604,E2,493.748,93/200,115,120.0
2605,B-2,494.0,0.25,115,120.0
2606,E2,494.212,7/200,115,120.0
2607,E2,494.248,0.5,115,120.0
2608,E1,494.515,0.5,115,120.0
2609,E2,494.748,0.5,115,120.0
2610,E2,494.988,0.5,115,120.0
2611,D5,495.0,1.0,115,120.0
2612,B-2,495.0,0.25,115,120.0
2613,C2,495.0,0.25,115,120.0
2614,D5,495.052,237/250,115,120.0
2615,E3,495.262,297/200,115,120.0
2616,D2,495.5,0.25,115,120.0
2617,E1,495.5,0.5,115,120.0
2618,E2,495.973,0.5,115,120.0
2619,B-2,496.0,0.25,115,120.0
2620,E1,496.0,0.5,115,120.0
2621,D5,496.0,1.0,115,120.0
2622,D5,496.0,13/250,115,120.0
2623,D5,496.052,1.0,115,120.0
2624,E2,496.473,0.5,115,120.0
2625,C2,496.5,0.25,115,120.0
2626,E1,496.5,0.5,115,120.0
2627,E2,496.762,0.5,115,120.0
2628,E2,496.973,0.5,115,120.0
2629,E5,497.0,1.0,115,120.0
2630,D2,497.0,0.25,115,120.0
2631,C#3,497.0,0.25,115,120.0
2632,E2,497.015,297/200,115,120.0
2633,E5,497.052,1.0,115,120.0
2634,E3,497.488,297/200,115,120.0
2635,E2,497.748,93/200,115,120.0
2636,A5,498.0,1.0,115,120.0
2637,B-2,498.0,0.25,115,120.0
2638,C2,498.0,0.25,115,120.0
2639,A5,498.052,1.0,115,120.0
2640,E2,498.212,7/200,115,120.0
2641,E2,498.248,0.5,115,120.0
2642,E1,498.515,0.5,115,120.0
2643,E2,498.748,0.5,115,120.0
2644,E2,498.988,0.5,115,120.0
2645,G#5,499.0,1.0,115,120.0
2646,C2,499.0,0.25,115,120.0
2647,B-2,499.0,0.25,115,120.0
2648,G#5,499.052,237/250,115,120.0
2649,E3,499.262,297/200,115,120.0
2650,E1,499.5,0.5,115,120.0
2651,E2,499.973,0.5,115,120.0
2652,B-2,500.0,0.25,115,120.0
2653,E1,500.0,0.5,115,120.0
2654,G#5,500.0,1.0,115,120.0
2655,G#5,500.0,263/250,115,120.0
2656,E2,500.473,0.5,115,120.0
2657,E1,500.5,0.5,115,120.0
2658,E2,500.762,0.5,115,120.0
2659,E2,500.973,0.5,115,120.0
2660,E5,501.0,1.0,115,120.0
2661,B-2,501.0,0.25,115,120.0
2662,D2,501.0,0.25,115,120.0
2663,E2,501.015,297/200,115,120.0
2664,E5,501.052,1.0,115,120.0
2665,E3,501.488,297/200,115,120.0
2666,E2,501.748,93/200,115,120.0
2667,B-2,502.0,0.25,115,120.0
2668,E5,502.0,1.0,115,120.0
2669,E5,502.052,1.0,115,120.0
2670,E2,502.212,7/200,115,120.0
2671,E2,502.248,0.5,115,120.0
2672,E1,502.515,0.5,115,120.0
2673,E2,502.748,0.5,115,120.0
2674,E2,502.988,0.5,115,120.0
2675,D5,503.0,1.0,115,120.0
2676,B-2,503.0,0.25,115,120.0
2677,C2,503.0,0.25,115,120.0
2678,D5,503.052,237/250,115,120.0
2679,E3,503.262,297/200,115,120.0
2680,D2,503.5,0.25,115,120.0
2681,E1,503.5,0.5,115,120.0
2682,E2,503.973,0.5,115,120.0
2683,B-2,504.0,0.25,115,120.0
2684,E1,504.0,0.5,115,120.0
2685,D5,504.0,1.0,115,120.0
2686,D5,504.0,263/250,115,120.0
2687,E2,504.473,0.5,115,120.0
2688,C2,504.5,0.25,115,120.0
2689,E1,504.5,0.5,115,120.0
2690,E2,504.762,0.5,115,120.0
2691,E2,504.973,0.5,115,120.0
2692,D2,505.0,0.25,115,120.0
2693,C#3,505.0,0.25,115,120.0
2694,E2,505.015,297/200,115,120.0
2695,E3,505.488,297/200,115,120.0
2696,E2,505.748,93/200,115,120.0
2697,C2,506.0,0.25,115,120.0
2698,C#3,506.0,0.25,115,120.0
2699,E2,506.212,7/200,115,120.0
2700,E2,506.248,0.5,115,120.0
2701,E1,506.515,0.5,115,120.0
2702,E2,506.748,0.5,115,120.0
2703,E2,506.988,0.5,115,120.0
2704,D5,507.0,1.0,115,120.0
2705,C2,507.0,0.25,115,120.0
2706,A3,507.0,0.25,115,120.0
2707,D5,507.052,237/250,115,120.0
2708,E3,507.262,297/200,115,120.0
2709,E1,507.5,0.5,115,120.0
2710,E2,507.973,0.5,115,120.0
2711,B-2,508.0,0.25,115,120.0
2712,E1,508.0,0.5,115,120.0
2713,D5,508.0,1.0,115,120.0
2714,D5,508.0,263/250,115,120.0
2715,E2,508.473,0.5,115,120.0
2716,E1,508.5,0.5,115,120.0
2717,E2,508.762,0.5,115,120.0
2718,E2,508.973,0.5,115,120.0
2719,D5,509.0,2.0,115,120.0
2720,B-2,509.0,0.25,115,120.0
2721,D2,509.0,0.25,115,120.0
2722,E2,509.015,297/200,115,120.0
2723,D5,509.052,2.0,115,120.0
2724,E3,509.488,297/200,115,120.0
2725,E2,509.748,93/200,115,120.0
2726,B-2,510.0,0.25,115,120.0
2727,E2,510.212,7/200,115,120.0
2728,E2,510.248,0.5,115,120.0
2729,E1,510.515,0.5,115,120.0
2730,E2,510.748,0.5,115,120.0
2731,E2,510.988,0.5,115,120.0
2732,E5,511.0,1.0,115,120.0
2733,B-2,511.0,0.25,115,120.0
2734,C2,511.0,0.25,115,120.0
2735,E5,511.052,237/250,115,120.0
2736,E3,511.262,297/200,115,120.0
2737,D2,511.5,0.25,115,120.0
2738,E1,511.5,0.5,115,120.0
2739,E2,511.973,0.5,115,120.0
2740,B-2,512.0,0.25,115,120.0
2741,E1,512.0,0.5,115,120.0
2742,D5,512.0,1.0,115,120.0
2743,E5,512.0,13/250,115,120.0
2744,D5,512.052,1.0,115,120.0
2745,E2,512.473,0.5,115,120.0
2746,C2,512.5,0.25,115,120.0
2747,E1,512.5,0.5,115,120.0
2748,E2,512.763,0.5,115,120.0
2749,E2,512.973,0.5,115,120.0
2750,G#5,513.0,1.0,115,120.0
2751,D2,513.0,0.25,115,120.0
2752,C#3,513.0,0.25,115,120.0
2753,E2,513.015,297/200,115,120.0
2754,G#5,513.052,1.0,115,120.0
2755,E3,513.487,297/200,115,120.0
2756,E2,513.748,93/200,115,120.0
2757,A5,514.0,1.0,115,120.0
2758,B-2,514.0,0.25,115,120.0
2759,C2,514.0,0.25,115,120.0
2760,A5,514.052,1.0,115,120.0
2761,E2,514.212,7/200,115,120.0
2762,E2,514.248,0.5,115,120.0
2763,E1,514.515,0.5,115,120.0
2764,E2,514.748,0.5,115,120.0
2765,E2,514.987,0.5,115,120.0
2766,G#5,515.0,1.0,115,120.0
2767,C2,515.0,0.25,115,120.0
2768,B-2,515.0,0.25,115,120.0
2769,G#5,515.052,237/250,115,120.0
2770,E3,515.263,297/200,115,120.0
2771,E1,515.5,0.5,115,120.0
2772,E2,515.973,0.5,115,120.0
2773,B-2,516.0,0.25,115,120.0
2774,E1,516.0,0.5,115,120.0
2775,G#5,516.0,1.0,115,120.0
2776,G#5,516.0,263/250,115,120.0
2777,E2,516.473,0.5,115,120.0
2778,E1,516.5,0.5,115,120.0
2779,E2,516.763,0.5,115,120.0
2780,E2,516.973,0.5,115,120.0
2781,B-2,517.0,0.25,115,120.0
2782,D2,517.0,0.25,115,120.0
2783,E2,517.015,297/200,115,120.0
2784,E3,517.487,297/200,115,120.0
2785,E2,517.748,93/200,115,120.0
2786,B-2,518.0,0.25,115,120.0
2787,E2,518.212,7/200,115,120.0
2788,E2,518.248,0.5,115,120.0
2789,E1,518.515,0.5,115,120.0
2790,E2,518.748,0.5,115,120.0
2791,E2,518.987,0.5,115,120.0
2792,B-2,519.0,0.25,115,120.0
2793,C2,519.0,0.25,115,120.0
2794,E3,519.263,297/200,115,120.0
2795,D2,519.5,0.25,115,120.0
2796,E1,519.5,0.5,115,120.0
2797,E2,519.973,0.5,115,120.0
2798,B-2,520.0,0.25,115,120.0
2799,E1,520.0,0.5,115,120.0
2800,E2,520.473,0.5,115,120.0
2801,C2,520.5,0.25,115,120.0
2802,E1,520.5,0.5,115,120.0
2803,E2,520.763,0.5,115,120.0
2804,E2,520.973,0.5,115,120.0
2805,D2,521.0,0.25,115,120.0
2806,C#3,521.0,0.25,115,120.0
2807,E2,521.015,297/200,115,120.0
2808,E3,521.487,297/200,115,120.0
2809,E2,521.748,93/200,115,120.0
2810,C2,522.0,0.25,115,120.0
2811,C#3,522.0,0.25,115,120.0
2812,E2,522.212,7/200,115,120.0
2813,E2,522.248,0.5,115,120.0
2814,E2,522.748,0.5,115,120.0
2815,E2,522.987,0.5,115,120.0
2816,D5,523.0,1.0,115,120.0
2817,A3,523.0,0.25,115,120.0
2818,D2,523.0,0.25,115,120.0
2819,D2,523.015,97/200,115,120.0
2820,D5,523.052,237/250,115,120.0
2821,E3,523.263,297/200,115,120.0
2822,D2,523.5,0.25,115,120.0
2823,A3,523.5,0.25,115,120.0
2824,E2,523.515,97/200,115,120.0
2825,E2,523.973,0.5,115,120.0
2826,E2,524.0,229/500,115,120.0
2827,E5,524.0,1.0,115,120.0
2828,D5,524.0,13/250,115,120.0
2829,E5,524.052,1.0,115,120.0
2830,E2,524.473,0.5,115,120.0
2831,C2,524.494,0.25,115,120.0
2832,E2,524.763,0.5,115,120.0
2833,E2,524.973,0.5,115,120.0
2834,D2,525.0,0.25,115,120.0
2835,D2,525.25,0.25,115,120.0
2836,E3,525.487,297/200,115,120.0
2837,D2,525.515,0.25,115,120.0
2838,E2,525.748,93/200,115,120.0
2839,D2,525.75,0.25,115,120.0
2840,D2,526.0,0.25,115,120.0
2841,E2,526.212,7/200,115,120.0
2842,E2,526.248,0.5,115,120.0
2843,D2,526.5,0.25,115,120.0
2844,E2,526.748,0.5,115,120.0
2845,E2,526.987,0.5,115,120.0
2846,E3,527.263,297/200,115,120.0
2847,D2,527.515,0.25,115,120.0
2848,D2,527.75,0.25,115,120.0
2849,E2,527.973,0.5,115,120.0
2850,D2,528.015,0.25,115,120.0
2851,E2,528.473,0.5,115,120.0
2852,D2,528.5,0.25,115,120.0
2853,E2,528.973,0.5,115,120.0
2854,B2,529.0,0.25,115,120.0
2855,G2,529.0,1.0,115,120.0
2856,B2,529.25,0.25,115,120.0
2857,A3,529.263,97/200,115,120.0
2858,D3,529.263,97/200,115,120.0
2859,E3,529.487,297/200,115,120.0
2860,B2,529.5,0.25,115,120.0
2861,B2,529.75,0.25,115,120.0
2862,E3,529.763,9/20,115,120.0
2863,B3,529.763,9/20,115,120.0
2864,A2,530.0,0.25,115,120.0
2865,F#2,530.0,1.0,115,120.0
2866,E3,530.212,519/500,115,120.0
2867,B3,530.212,519/500,115,120.0
2868,A2,530.25,0.25,115,120.0
2869,A2,530.5,0.25,115,120.0
2870,A2,530.75,0.25,115,120.0
2871,E2,530.987,0.5,115,120.0
2872,F2,531.0,1.0,115,120.0
2873,C2,531.0,0.25,115,120.0
2874,A3,531.0,0.25,115,120.0
2875,E3,531.248,0.062,115,120.0
2876,E3,531.748,0.062,115,120.0
2877,E2,531.973,0.5,115,120.0
2878,C2,532.0,0.25,115,120.0
2879,F2,532.0,97/200,115,120.0
2880,E2,532.473,0.5,115,120.0
2881,F2,532.5,0.5,115,120.0
2882,C2,532.5,0.25,115,120.0
2883,B-2,532.5,0.25,115,120.0
2884,E3,532.748,0.062,115,120.0
2885,E2,532.973,0.5,115,120.0
2886,F2,533.0,297/200,115,120.0
2887,A3,533.0,0.25,115,120.0
2888,D2,533.0,0.25,115,120.0
2889,E3,533.487,297/200,115,120.0
2890,E3,533.748,0.062,115,120.0
2891,B-2,534.0,0.25,115,120.0
2892,C2,534.0,0.25,115,120.0
2893,E3,534.248,0.062,115,120.0
2894,F2,534.5,103/200,115,120.0
2895,E3,534.748,0.062,115,120.0
2896,E2,534.987,0.5,115,120.0
2897,E2,535.0,1.0,115,120.0
2898,B-2,535.0,0.25,115,120.0
2899,C2,535.0,0.25,115,120.0
2900,D4,535.248,729/1000,115,120.0
2901,G3,535.248,729/1000,115,120.0
2902,E2,535.973,0.5,115,120.0
2903,B-2,536.0,0.25,115,120.0
2904,E2,536.0,1.0,115,120.0
2905,C#4,536.248,729/1000,115,120.0
2906,F#3,536.248,729/1000,115,120.0
2907,E2,536.473,0.5,115,120.0
2908,C2,536.5,0.25,115,120.0
2909,E2,536.973,0.5,115,120.0
2910,E2,537.0,1.0,115,120.0
2911,C#3,537.0,0.25,115,120.0
2912,D2,537.0,0.25,115,120.0
2913,C4,537.248,193/200,115,120.0
2914,F3,537.248,193/200,115,120.0
2915,E3,537.487,297/200,115,120.0
2916,B-2,538.0,0.25,115,120.0
2917,C4,538.212,607/200,115,120.0
2918,F3,538.212,607/200,115,120.0
2919,D2,539.0,0.5,115,120.0
2920,A3,539.015,0.25,115,120.0
2921,C2,539.015,0.25,115,120.0
2922,A3,539.487,97/200,115,120.0
2923,D3,539.487,97/200,115,120.0
2924,E2,539.5,0.5,115,120.0
2925,E3,539.987,97/200,115,120.0
2926,B3,539.987,97/200,115,120.0
2927,E2,540.0,0.5,115,120.0
2928,E3,540.473,501/500,115,120.0
2929,B3,540.473,501/500,115,120.0
2930,C2,540.494,0.25,115,120.0
2931,D2,541.0,0.25,115,120.0
2932,B3,541.248,193/200,115,120.0
2933,E3,541.248,193/200,115,120.0
2934,D2,541.25,0.25,115,120.0
2935,E3,541.473,0.062,115,120.0
2936,D2,541.515,0.25,115,120.0
2937,D2,541.75,0.25,115,120.0
2938,E3,541.973,0.062,115,120.0
2939,D2,542.5,0.25,115,120.0
2940,E3,542.973,0.062,115,120.0
2941,B3,543.248,207/200,115,120.0
2942,E3,543.248,207/200,115,120.0
2943,D2,543.515,0.25,115,120.0
2944,E3,543.973,0.062,115,120.0
2945,D2,544.015,0.25,115,120.0
2946,G4,544.283,2.0,115,120.0
2947,E3,544.473,0.062,115,120.0
2948,D2,544.5,0.25,115,120.0
2949,E3,544.973,0.062,115,120.0
2950,B2,545.0,0.25,115,120.0
2951,G2,545.0,1.0,115,120.0
2952,B2,545.25,0.25,115,120.0
2953,D4,545.473,729/1000,115,120.0
2954,G3,545.473,729/1000,115,120.0
2955,B2,545.5,0.25,115,120.0
2956,C3,545.75,0.25,115,120.0
2957,C3,546.0,0.25,115,120.0
2958,F#2,546.0,1.0,115,120.0
2959,B2,546.25,0.25,115,120.0
2960,A3,546.298,97/200,115,120.0
2961,D3,546.298,97/200,115,120.0
2962,C#4,546.473,729/1000,115,120.0
2963,F#3,546.473,729/1000,115,120.0
2964,A2,546.5,0.25,115,120.0
2965,G2,546.75,0.25,115,120.0
2966,E3,546.798,9/20,115,120.0
2967,B3,546.798,9/20,115,120.0
2968,F2,547.0,1.0,115,120.0
2969,C2,547.0,0.25,115,120.0
2970,A3,547.0,0.25,115,120.0
2971,E3,547.248,519/500,115,120.0
2972,B3,547.248,519/500,115,120.0
2973,C4,547.473,1.0,115,120.0
2974,F3,547.473,1.0,115,120.0
2975,B-2,548.0,0.25,115,120.0
2976,F2,548.0,97/200,115,120.0
2977,E3,548.283,0.062,115,120.0
2978,C4,548.473,3.0,115,120.0
2979,F3,548.473,3.0,115,120.0
2980,F2,548.5,0.5,115,120.0
2981,E3,548.783,0.062,115,120.0
2982,F2,549.0,297/200,115,120.0
2983,B-2,549.0,0.25,115,120.0
2984,D2,549.0,0.25,115,120.0
2985,C2,549.5,0.25,115,120.0
2986,E3,549.783,0.062,115,120.0
2987,B-2,550.0,0.25,115,120.0
2988,C2,550.0,0.25,115,120.0
2989,F2,550.5,103/200,115,120.0
2990,E3,550.783,0.062,115,120.0
2991,E2,551.0,1.0,115,120.0
2992,C2,551.0,0.25,115,120.0
2993,A3,551.0,0.25,115,120.0
2994,E3,551.283,0.062,115,120.0
2995,B3,551.473,1.0,115,120.0
2996,E3,551.473,1.0,115,120.0
2997,E3,551.783,0.062,115,120.0
2998,E2,552.0,1.0,115,120.0
2999,C2,552.0,0.25,115,120.0
3000,B-2,552.0,0.25,115,120.0
3001,D4,552.283,729/1000,115,120.0
3002,G3,552.283,729/1000,115,120.0
3003,D2,552.515,0.25,115,120.0
3004,D2,552.765,0.25,115,120.0
3005,D2,553.0,0.25,115,120.0
3006,E2,553.0,0.25,115,120.0
3007,E2,553.25,0.25,115,120.0
3008,C3,553.265,0.25,115,120.0
3009,C#4,553.283,729/1000,115,120.0
3010,F#3,553.283,729/1000,115,120.0
3011,B3,553.473,1.0,115,120.0
3012,E3,553.473,1.0,115,120.0
3013,E2,553.5,0.25,115,120.0
3014,C3,553.515,0.25,115,120.0
3015,E2,553.75,0.25,115,120.0
3016,B2,553.765,0.25,115,120.0
3017,E2,554.0,0.25,115,120.0
3018,B2,554.015,0.25,115,120.0
3019,E2,554.25,0.25,115,120.0
3020,A2,554.265,0.25,115,120.0
3021,C4,554.283,193/200,115,120.0
3022,F3,554.283,193/200,115,120.0
3023,G4,554.473,2.0,115,120.0
3024,E2,554.5,0.25,115,120.0
3025,A2,554.515,0.25,115,120.0
3026,E2,554.75,0.25,115,120.0
3027,C2,555.0,0.25,115,120.0
3028,A3,555.0,0.25,115,120.0
3029,D2,555.015,97/200,115,120.0
3030,C4,555.248,607/200,115,120.0
3031,F3,555.248,607/200,115,120.0
3032,E2,555.515,97/200,115,120.0
3033,E2,556.0,229/500,115,120.0
3034,A3,556.487,97/200,115,120.0
3035,D3,556.487,97/200,115,120.0
3036,C2,556.5,0.25,115,120.0
3037,E3,556.987,97/200,115,120.0
3038,B3,556.987,97/200,115,120.0
3039,D2,557.0,0.25,115,120.0
3040,E3,557.473,501/500,115,120.0
3041,B3,557.473,501/500,115,120.0
3042,D2,557.5,0.25,115,120.0
3043,D2,558.0,0.25,115,120.0
3044,B3,558.283,193/200,115,120.0
3045,E3,558.283,193/200,115,120.0
3046,E3,558.473,0.062,115,120.0
3047,D2,558.5,0.25,115,120.0
3048,E3,558.973,0.062,115,120.0
3049,D2,559.0,0.25,115,120.0
3050,D2,559.25,0.25,115,120.0
3051,D2,559.485,0.25,115,120.0
3052,E3,559.973,0.062,115,120.0
3053,D2,559.985,3/200,115,120.0
3054,D2,560.0,47/200,115,120.0
3055,D2,560.235,0.25,115,120.0
3056,B3,560.283,207/200,115,120.0
3057,E3,560.283,207/200,115,120.0
3058,D2,560.485,0.25,115,120.0
3059,D2,560.735,0.25,115,120.0
3060,E3,560.973,0.062,115,120.0
3061,D2,561.0,0.25,115,120.0
3062,G2,561.0,1.0,115,120.0
3063,D4,561.319,0.25,115,120.0
3064,E3,561.473,0.062,115,120.0
3065,D2,561.5,0.25,115,120.0
3066,E4,561.569,0.25,115,120.0
3067,D4,561.819,0.25,115,120.0
3068,E3,561.973,0.062,115,120.0
3069,A2,562.0,0.25,115,120.0
3070,F#2,562.0,1.0,115,120.0
3071,E4,562.069,0.25,115,120.0
3072,D4,562.319,0.25,115,120.0
3073,D4,562.473,729/1000,115,120.0
3074,G3,562.473,729/1000,115,120.0
3075,G2,562.5,0.25,115,120.0
3076,E4,562.569,0.25,115,120.0
3077,D4,562.819,103/200,115,120.0
3078,F2,563.0,1.0,115,120.0
3079,C2,563.0,0.25,115,120.0
3080,C#3,563.0,0.25,115,120.0
3081,A3,563.333,97/200,115,120.0
3082,D3,563.333,97/200,115,120.0
3083,C#4,563.473,729/1000,115,120.0
3084,F#3,563.473,729/1000,115,120.0
3085,E3,563.833,9/20,115,120.0
3086,B3,563.833,9/20,115,120.0
3087,B-2,564.0,0.25,115,120.0
3088,F2,564.0,97/200,115,120.0
3089,E3,564.283,519/500,115,120.0
3090,B3,564.283,519/500,115,120.0
3091,C4,564.473,1.0,115,120.0
3092,F3,564.473,1.0,115,120.0
3093,F2,564.5,0.5,115,120.0
3094,F2,565.0,297/200,115,120.0
3095,B-2,565.0,0.25,115,120.0
3096,D2,565.0,0.25,115,120.0
3097,E3,565.319,0.062,115,120.0
3098,C4,565.473,3.0,115,120.0
3099,F3,565.473,3.0,115,120.0
3100,C2,565.5,0.25,115,120.0
3101,E3,565.819,0.062,115,120.0
3102,B-2,566.0,0.25,115,120.0
3103,C2,566.0,0.25,115,120.0
3104,F2,566.5,103/200,115,120.0
3105,E3,566.819,0.062,115,120.0
3106,E2,567.0,1.0,115,120.0
3107,C2,567.0,0.25,115,120.0
3108,A3,567.0,0.25,115,120.0
3109,E3,567.819,0.062,115,120.0
3110,E2,568.0,1.0,115,120.0
3111,C2,568.0,0.25,115,120.0
3112,B-2,568.0,0.25,115,120.0
3113,E3,568.319,0.062,115,120.0
3114,B3,568.473,1.0,115,120.0
3115,E3,568.473,1.0,115,120.0
3116,D2,568.515,0.25,115,120.0
3117,D2,568.765,0.25,115,120.0
3118,E3,568.819,0.062,115,120.0
3119,D2,569.0,0.25,115,120.0
3120,E2,569.0,1.0,115,120.0
3121,C3,569.265,0.25,115,120.0
3122,D4,569.319,729/1000,115,120.0
3123,G3,569.319,729/1000,115,120.0
3124,C3,569.515,0.25,115,120.0
3125,D3,569.765,0.25,115,120.0
3126,D3,570.015,0.25,115,120.0
3127,C3,570.265,0.25,115,120.0
3128,C#4,570.319,729/1000,115,120.0
3129,F#3,570.319,729/1000,115,120.0
3130,B3,570.473,1.0,115,120.0
3131,E3,570.473,1.0,115,120.0
3132,C3,570.515,0.25,115,120.0
3133,D2,571.0,0.5,115,120.0
3134,C2,571.0,0.25,115,120.0
3135,A3,571.0,0.25,115,120.0
3136,C4,571.319,193/200,115,120.0
3137,F3,571.319,193/200,115,120.0
3138,D4,571.473,0.25,115,120.0
3139,E2,571.5,0.5,115,120.0
3140,E4,571.723,0.25,115,120.0
3141,D4,571.973,0.25,115,120.0
3142,E2,572.0,0.5,115,120.0
3143,E4,572.223,0.25,115,120.0
3144,C4,572.283,607/200,115,120.0
3145,F3,572.283,607/200,115,120.0
3146,D4,572.473,0.25,115,120.0
3147,C2,572.5,0.25,115,120.0
3148,E4,572.723,0.25,115,120.0
3149,D4,572.973,103/200,115,120.0
3150,D2,573.0,0.25,115,120.0
3151,D2,573.25,0.25,115,120.0
3152,A3,573.487,97/200,115,120.0
3153,D3,573.487,97/200,115,120.0
3154,D2,573.5,0.25,115,120.0
3155,D2,573.75,0.25,115,120.0
3156,E3,573.987,97/200,115,120.0
3157,B3,573.987,97/200,115,120.0
3158,D2,574.0,0.25,115,120.0
3159,E3,574.473,501/500,115,120.0
3160,B3,574.473,501/500,115,120.0
3161,D2,574.5,0.25,115,120.0
3162,D2,575.0,0.25,115,120.0
3163,B3,575.319,193/200,115,120.0
3164,E3,575.319,193/200,115,120.0
3165,E3,575.473,0.062,115,120.0
3166,D2,575.485,0.25,115,120.0
3167,E3,575.973,0.062,115,120.0
3168,D2,575.985,3/200,115,120.0
3169,D2,576.0,47/200,115,120.0
3170,D2,576.235,0.25,115,120.0
3171,D2,576.485,0.25,115,120.0
3172,D2,576.735,0.25,115,120.0
3173,E3,576.973,0.062,115,120.0
3174,D2,577.0,0.25,115,120.0
3175,G2,577.0,1.0,115,120.0
3176,B3,577.319,207/200,115,120.0
3177,E3,577.319,207/200,115,120.0
3178,D2,577.5,0.25,115,120.0
3179,E3,577.973,0.062,115,120.0
3180,A2,578.0,0.25,115,120.0
3181,F#2,578.0,1.0,115,120.0
3182,G4,578.354,2.0,115,120.0
3183,E3,578.473,0.062,115,120.0
3184,G2,578.5,0.25,115,120.0
3185,E3,578.973,0.062,115,120.0
3186,F2,579.0,1.0,115,120.0
3187,C2,579.0,0.25,115,120.0
3188,C#3,579.0,0.25,115,120.0
3189,D4,579.473,729/1000,115,120.0
3190,G3,579.473,729/1000,115,120.0
3191,B-2,580.0,0.25,115,120.0
3192,F2,580.0,97/200,115,120.0
3193,A3,580.369,97/200,115,120.0
3194,D3,580.369,97/200,115,120.0
3195,C#4,580.473,729/1000,115,120.0
3196,F#3,580.473,729/1000,115,120.0
3197,F2,580.5,0.5,115,120.0
3198,E3,580.869,9/20,115,120.0
3199,B3,580.869,9/20,115,120.0
3200,F2,581.0,297/200,115,120.0
3201,B-2,581.0,0.25,115,120.0
3202,D2,581.0,0.25,115,120.0
3203,E3,581.319,519/500,115,120.0
3204,B3,581.319,519/500,115,120.0
3205,C4,581.473,1.0,115,120.0
3206,F3,581.473,1.0,115,120.0
3207,C2,581.5,0.25,115,120.0
3208,B-2,582.0,0.25,115,120.0
3209,C2,582.0,0.25,115,120.0
3210,E3,582.354,0.062,115,120.0
3211,C4,582.473,3.0,115,120.0
3212,F3,582.473,3.0,115,120.0
3213,F2,582.5,103/200,115,120.0
3214,E3,582.854,0.062,115,120.0
3215,E2,583.0,1.0,115,120.0
3216,C2,583.0,0.25,115,120.0
3217,A3,583.0,0.25,115,120.0
3218,E3,583.854,0.062,115,120.0
3219,E2,584.0,3.0,115,120.0
3220,B-2,584.0,0.25,115,120.0
3221,C2,584.0,0.25,115,120.0
3222,D2,584.392,0.062,115,120.0
3223,D2,584.515,0.25,115,120.0
3224,E3,584.854,0.062,115,120.0
3225,D2,585.0,0.25,115,120.0
3226,E3,585.354,0.062,115,120.0
3227,B3,585.473,1.0,115,120.0
3228,E3,585.473,1.0,115,120.0
3229,D2,585.515,0.25,115,120.0
3230,E3,585.854,0.062,115,120.0
3231,D2,586.015,0.25,115,120.0
3232,D4,586.354,729/1000,115,120.0
3233,G3,586.354,729/1000,115,120.0
3234,D2,586.515,0.25,115,120.0
3235,G#2,587.0,97/200,115,120.0
3236,G#4,587.0,97/200,115,120.0
3237,C2,587.0,0.25,115,120.0
3238,A3,587.0,0.25,115,120.0
3239,G#4,587.031,97/200,115,120.0
3240,C#4,587.354,729/1000,115,120.0
3241,F#3,587.354,729/1000,115,120.0
3242,B3,587.473,1.0,115,120.0
3243,E3,587.473,1.0,115,120.0
3244,A2,587.5,0.5,115,120.0
3245,A4,587.5,0.5,115,120.0
3246,A4,587.531,0.469,115,120.0
3247,B-2,588.0,0.25,115,120.0
3248,A2,588.0,0.5,115,120.0
3249,E3,588.0,297/200,115,120.0
3250,A4,588.0,0.5,115,120.0
3251,A4,588.0,0.531,115,120.0
3252,E3,588.031,297/200,115,120.0
3253,C4,588.354,193/200,115,120.0
3254,F3,588.354,193/200,115,120.0
3255,G4,588.473,2.0,115,120.0
3256,A2,588.5,0.5,115,120.0
3257,A4,588.5,0.5,115,120.0
3258,A4,588.531,0.5,115,120.0
3259,G#2,589.0,1.0,115,120.0
3260,G#4,589.0,1.0,115,120.0
3261,B-2,589.0,0.25,115,120.0
3262,D2,589.0,0.25,115,120.0
3263,G#4,589.031,1.0,115,120.0
3264,C4,589.319,607/200,115,120.0
3265,F3,589.319,607/200,115,120.0
3266,E3,589.5,1.5,115,120.0
3267,E3,589.531,1.5,115,120.0
3268,B-2,590.0,0.25,115,120.0
3269,G#2,590.0,0.5,115,120.0
3270,G#4,590.0,0.5,115,120.0
3271,G#4,590.031,0.5,115,120.0
3272,A3,590.487,97/200,115,120.0
3273,D3,590.487,97/200,115,120.0
3274,E2,590.5,1.0,115,120.0
3275,E4,590.5,1.0,115,120.0
3276,E4,590.531,1.0,115,120.0
3277,E3,590.987,97/200,115,120.0
3278,B3,590.987,97/200,115,120.0
3279,E3,591.0,1.0,115,120.0
3280,B-2,591.0,0.25,115,120.0
3281,C2,591.0,0.25,115,120.0
3282,E3,591.031,0.969,115,120.0
3283,E3,591.473,501/500,115,120.0
3284,B3,591.473,501/500,115,120.0
3285,D2,591.5,0.25,115,120.0
3286,E2,591.5,0.5,115,120.0
3287,E4,591.5,0.5,115,120.0
3288,E4,591.531,0.469,115,120.0
3289,B-2,592.0,0.25,115,120.0
3290,D2,592.0,1.0,115,120.0
3291,D4,592.0,1.0,115,120.0
3292,E3,592.0,0.5,115,120.0
3293,E3,592.0,0.531,115,120.0
3294,E4,592.0,0.031,115,120.0
3295,D4,592.031,1.0,115,120.0
3296,E3,592.354,193/200,115,120.0
3297,B3,592.354,193/200,115,120.0
3298,E3,592.473,0.062,115,120.0
3299,C2,592.5,0.25,115,120.0
3300,E3,592.5,1.5,115,120.0
3301,E3,592.531,1.5,115,120.0
3302,E3,592.973,0.062,115,120.0
3303,D2,593.0,0.5,115,120.0
3304,D4,593.0,0.5,115,120.0
3305,D2,593.0,0.25,115,120.0
3306,C#3,593.0,0.25,115,120.0
3307,D4,593.031,0.5,115,120.0
3308,E2,593.5,1.5,115,120.0
3309,E4,593.5,1.5,115,120.0
3310,E4,593.531,1.5,115,120.0
3311,E3,593.973,0.062,115,120.0
3312,B-2,594.0,0.25,115,120.0
3313,C2,594.0,0.25,115,120.0
3314,E3,594.973,0.062,115,120.0
3315,E2,595.0,0.5,115,120.0
3316,E4,595.0,0.5,115,120.0
3317,C2,595.0,0.25,115,120.0
3318,B-2,595.0,0.25,115,120.0
3319,E4,595.031,0.5,115,120.0
3320,E3,595.473,0.062,115,120.0
3321,D2,595.5,0.5,115,120.0
3322,D4,595.5,0.5,115,120.0
3323,D4,595.531,0.469,115,120.0
3324,E3,595.973,0.062,115,120.0
3325,B-2,596.0,0.25,115,120.0
3326,D2,596.0,0.5,115,120.0
3327,E3,596.0,1.5,115,120.0
3328,D4,596.0,0.5,115,120.0
3329,D4,596.0,0.531,115,120.0
3330,E3,596.031,1.5,115,120.0
3331,D4,596.473,729/1000,115,120.0
3332,G3,596.473,729/1000,115,120.0
3333,D2,596.5,0.5,115,120.0
3334,D4,596.5,0.5,115,120.0
3335,E3,596.515,799/250,115,120.0
3336,B3,596.515,799/250,115,120.0
3337,D4,596.531,0.5,115,120.0
3338,E2,597.0,1.0,115,120.0
3339,E4,597.0,1.0,115,120.0
3340,B-2,597.0,0.25,115,120.0
3341,D2,597.0,0.25,115,120.0
3342,E4,597.031,1.0,115,120.0
3343,C#4,597.473,729/1000,115,120.0
3344,F#3,597.473,729/1000,115,120.0
3345,E3,597.5,1.5,115,120.0
3346,E3,597.531,1.5,115,120.0
3347,B-2,598.0,0.25,115,120.0
3348,E2,598.0,0.5,115,120.0
3349,E4,598.0,0.5,115,120.0
3350,E4,598.031,0.5,115,120.0
3351,C4,598.473,1.0,115,120.0
3352,F3,598.473,1.0,115,120.0
3353,G#2,598.5,1.0,115,120.0
3354,G#4,598.5,1.0,115,120.0
3355,G#4,598.531,1.0,115,120.0
3356,E3,599.0,1.0,115,120.0
3357,B-2,599.0,0.25,115,120.0
3358,C2,599.0,0.25,115,120.0
3359,E3,599.031,0.969,115,120.0
3360,C4,599.473,3.0,115,120.0
3361,F3,599.473,3.0,115,120.0
3362,D2,599.5,0.25,115,120.0
3363,G#2,599.5,0.5,115,120.0
3364,G#4,599.5,0.5,115,120.0
3365,G#4,599.531,0.469,115,120.0
3366,B-2,600.0,0.25,115,120.0
3367,A2,600.0,1.0,115,120.0
3368,A4,600.0,1.0,115,120.0
3369,E3,600.0,0.5,115,120.0
3370,E3,600.0,0.531,115,120.0
3371,G#4,600.0,0.031,115,120.0
3372,A4,600.031,1.0,115,120.0
3373,C2,600.5,0.25,115,120.0
3374,E3,600.5,1.5,115,120.0
3375,E3,600.531,1.5,115,120.0
3376,A2,601.0,0.5,115,120.0
3377,A4,601.0,0.5,115,120.0
3378,D2,601.0,0.25,115,120.0
3379,C#3,601.0,0.25,115,120.0
3380,A4,601.031,0.5,115,120.0
3381,G#2,601.5,1.0,115,120.0
3382,G#4,601.5,1.0,115,120.0
3383,G#4,601.531,1.0,115,120.0
3384,E3,602.0,1.5,115,120.0
3385,B-2,602.0,0.25,115,120.0
3386,C2,602.0,0.25,115,120.0
3387,E3,602.031,1.5,115,120.0
3388,E3,602.473,1.0,115,120.0
3389,B3,602.473,1.0,115,120.0
3390,G#2,602.5,0.5,115,120.0
3391,G#4,602.5,0.5,115,120.0
3392,G#4,602.531,0.5,115,120.0
3393,A2,603.0,1.0,115,120.0
3394,A4,603.0,1.0,115,120.0
3395,C2,603.0,0.25,115,120.0
3396,B-2,603.0,0.25,115,120.0
3397,A4,603.031,0.969,115,120.0
3398,E3,603.5,0.5,115,120.0
3399,E3,603.531,0.469,115,120.0
3400,B-2,604.0,0.25,115,120.0
3401,A2,604.0,0.5,115,120.0
3402,A4,604.0,0.5,115,120.0
3403,E3,604.0,1.0,115,120.0
3404,A4,604.0,0.031,115,120.0
3405,E3,604.0,1.031,115,120.0
3406,A4,604.031,0.5,115,120.0
3407,B2,604.5,303/200,115,120.0
3408,B4,604.5,303/200,115,120.0
3409,B4,604.531,303/200,115,120.0
3410,B-2,605.0,0.25,115,120.0
3411,D2,605.0,0.25,115,120.0
3412,B-2,606.0,0.25,115,120.0
3413,A2,606.0,0.5,115,120.0
3414,A4,606.0,0.5,115,120.0
3415,A4,606.031,0.5,115,120.0
3416,B2,606.5,0.5,115,120.0
3417,B4,606.5,0.5,115,120.0
3418,B4,606.531,0.5,115,120.0
3419,E3,606.633,79/25,115,120.0
3420,B3,606.633,79/25,115,120.0
3421,D3,607.0,0.5,115,120.0
3422,D5,607.0,0.5,115,120.0
3423,B-2,607.0,0.25,115,120.0
3424,C2,607.0,0.25,115,120.0
3425,D5,607.031,0.5,115,120.0
3426,D2,607.5,0.25,115,120.0
3427,E3,607.5,0.5,115,120.0
3428,E5,607.5,0.5,115,120.0
3429,E5,607.531,0.469,115,120.0
3430,B-2,608.0,0.25,115,120.0
3431,E3,608.0,1.0,115,120.0
3432,E5,608.0,1.0,115,120.0
3433,E5,608.0,0.031,115,120.0
3434,E5,608.031,1.0,115,120.0
3435,C2,608.5,0.25,115,120.0
3436,A2,609.0,0.5,115,120.0
3437,A4,609.0,0.5,115,120.0
3438,D2,609.0,0.25,115,120.0
3439,C#3,609.0,0.25,115,120.0
3440,A4,609.031,0.5,115,120.0
3441,B2,609.5,0.5,115,120.0
3442,B4,609.5,0.5,115,120.0
3443,B4,609.531,0.5,115,120.0
3444,D3,610.0,0.5,115,120.0
3445,D5,610.0,0.5,115,120.0
3446,B-2,610.0,0.25,115,120.0
3447,C2,610.0,0.25,115,120.0
3448,D5,610.031,0.5,115,120.0
3449,E3,610.5,0.5,115,120.0
3450,E5,610.5,0.5,115,120.0
3451,E5,610.531,0.5,115,120.0
3452,G3,611.0,1.0,115,120.0
3453,G5,611.0,1.0,115,120.0
3454,C2,611.0,0.25,115,120.0
3455,B-2,611.0,0.25,115,120.0
3456,G5,611.031,0.969,115,120.0
3457,B-2,612.0,0.25,115,120.0
3458,A2,612.0,0.5,115,120.0
3459,A4,612.0,0.5,115,120.0
3460,G5,612.0,0.031,115,120.0
3461,A4,612.031,0.5,115,120.0
3462,B2,612.5,0.5,115,120.0
3463,B4,612.5,0.5,115,120.0
3464,B4,612.531,0.5,115,120.0
3465,D3,613.0,0.5,115,120.0
3466,D5,613.0,0.5,115,120.0
3467,B-2,613.0,0.25,115,120.0
3468,D2,613.0,0.25,115,120.0
3469,D5,613.031,0.5,115,120.0
3470,E3,613.5,0.5,115,120.0
3471,E5,613.5,0.5,115,120.0
3472,E5,613.531,0.5,115,120.0
3473,B-2,614.0,0.25,115,120.0
3474,G3,614.0,97/200,115,120.0
3475,G5,614.0,97/200,115,120.0
3476,G5,614.031,97/200,115,120.0
3477,E3,614.5,1.5,115,120.0
3478,B5,614.5,0.25,115,120.0
3479,B5,614.531,0.25,115,120.0
3480,B5,614.75,0.25,115,120.0
3481,B5,614.781,0.25,115,120.0
3482,E6,615.0,97/200,115,120.0
3483,B-2,615.0,0.25,115,120.0
3484,C2,615.0,0.25,115,120.0
3485,E6,615.031,97/200,115,120.0
3486,D2,615.5,0.25,115,120.0
3487,B5,615.5,0.25,115,120.0
3488,B5,615.531,0.25,115,120.0
3489,B5,615.75,0.25,115,120.0
3490,B5,615.781,0.219,115,120.0
3491,B-2,616.0,0.25,115,120.0
3492,E3,616.0,1.0,115,120.0
3493,E6,616.0,1.0,115,120.0
3494,B5,616.0,0.031,115,120.0
3495,E6,616.031,1.0,115,120.0
3496,C2,616.5,0.25,115,120.0
3497,E3,617.0,1.0,115,120.0
3498,E6,617.0,1.0,115,120.0
3499,D2,617.0,0.25,115,120.0
3500,C#3,617.0,0.25,115,120.0
3501,E6,617.031,1.0,115,120.0
3502,E3,618.0,2.0,115,120.0
3503,E6,618.0,2.0,115,120.0
3504,B-2,618.0,0.25,115,120.0
3505,C2,618.0,0.25,115,120.0
3506,E6,618.031,1.969,115,120.0
3507,C2,619.0,0.25,115,120.0
3508,B-2,619.0,0.25,115,120.0
3509,B-2,620.0,0.25,115,120.0
3510,E3,620.0,0.5,115,120.0
3511,E6,620.0,0.5,115,120.0
3512,E6,620.0,0.031,115,120.0
3513,E6,620.031,0.5,115,120.0
3514,D3,620.5,0.5,115,120.0
3515,D6,620.5,0.5,115,120.0
3516,D6,620.531,0.5,115,120.0
3517,B2,621.0,0.5,115,120.0
3518,B5,621.0,0.5,115,120.0
3519,B-2,621.0,0.25,115,120.0
3520,D2,621.0,0.25,115,120.0
3521,B5,621.031,0.5,115,120.0
3522,B2,621.5,1.0,115,120.0
3523,B5,621.5,1.0,115,120.0
3524,B5,621.531,1.0,115,120.0
3525,B-2,622.0,0.25,115,120.0
3526,B2,622.5,0.5,115,120.0
3527,B5,622.5,0.5,115,120.0
3528,B5,622.531,0.5,115,120.0
3529,D3,623.0,0.5,115,120.0
3530,D6,623.0,0.5,115,120.0
3531,B-2,623.0,0.25,115,120.0
3532,C2,623.0,0.25,115,120.0
3533,D6,623.031,0.5,115,120.0
3534,D2,623.5,0.25,115,120.0
3535,B2,623.5,0.5,115,120.0
3536,B5,623.5,0.5,115,120.0
3537,B5,623.531,0.469,115,120.0
3538,B-2,624.0,0.25,115,120.0
3539,B2,624.0,203/200,115,120.0
3540,B5,624.0,203/200,115,120.0
3541,B5,624.0,523/500,115,120.0
3542,C2,624.5,0.25,115,120.0
3543,D2,625.0,0.25,115,120.0
3544,C#3,625.0,0.25,115,120.0
3545,D3,625.021,97/200,115,120.0
3546,D6,625.021,97/200,115,120.0
3547,D6,625.052,97/200,115,120.0
3548,B2,625.5,97/200,115,120.0
3549,B5,625.5,97/200,115,120.0
3550,B5,625.531,97/200,115,120.0
3551,A2,626.0,97/200,115,120.0
3552,A5,626.0,97/200,115,120.0
3553,B-2,626.0,0.25,115,120.0
3554,C2,626.0,0.25,115,120.0
3555,A5,626.031,97/200,115,120.0
3556,D3,626.533,61/125,115,120.0
3557,D6,626.533,61/125,115,120.0
3558,D6,626.565,61/125,115,120.0
3559,B2,627.0,0.5,115,120.0
3560,B5,627.0,0.5,115,120.0
3561,C2,627.0,0.25,115,120.0
3562,B-2,627.0,0.25,115,120.0
3563,B5,627.031,0.5,115,120.0
3564,A2,627.5,23/50,115,120.0
3565,A5,627.5,23/50,115,120.0
3566,A5,627.531,23/50,115,120.0
3567,B-2,628.0,0.25,115,120.0
3568,D3,628.033,23/50,115,120.0
3569,D6,628.033,23/50,115,120.0
3570,D6,628.065,23/50,115,120.0
3571,B2,628.5,0.5,115,120.0
3572,B5,628.5,0.5,115,120.0
3573,B5,628.531,0.5,115,120.0
3574,A2,629.0,97/200,115,120.0
3575,A5,629.0,97/200,115,120.0
3576,B-2,629.0,0.25,115,120.0
3577,D2,629.0,0.25,115,120.0
3578,A5,629.031,97/200,115,120.0
3579,B2,629.5,0.5,115,120.0
3580,B5,629.5,0.5,115,120.0
3581,B5,629.531,0.5,115,120.0
3582,B-2,630.0,0.25,115,120.0
3583,E3,630.0,0.5,115,120.0
3584,E6,630.0,0.5,115,120.0
3585,E6,630.031,0.5,115,120.0
3586,E3,630.5,0.75,115,120.0
3587,E6,630.5,0.75,115,120.0
3588,E6,630.531,0.75,115,120.0
3589,B-2,631.0,0.25,115,120.0
3590,C2,631.0,0.25,115,120.0
3591,A2,631.25,0.75,115,120.0
3592,A6,631.25,0.75,115,120.0
3593,A6,631.281,0.719,115,120.0
3594,D2,631.5,0.25,115,120.0
3595,B-2,632.0,0.25,115,120.0
3596,A2,632.0,1.0,115,120.0
3597,A6,632.0,1.0,115,120.0
3598,A6,632.0,0.031,115,120.0
3599,A6,632.031,1.0,115,120.0
3600,C2,632.5,0.25,115,120.0
3601,A2,633.0,1.0,115,120.0
3602,A6,633.0,1.0,115,120.0
3603,D2,633.0,0.25,115,120.0
3604,C#3,633.0,0.25,115,120.0
3605,A6,633.031,1.0,115,120.0
3606,A2,634.0,297/200,115,120.0
3607,A6,634.0,297/200,115,120.0
3608,B-2,634.0,0.25,115,120.0
3609,C2,634.0,0.25,115,120.0
3610,A6,634.031,297/200,115,120.0
3611,C2,635.0,0.25,115,120.0
3612,B-2,635.0,0.25,115,120.0
3613,E3,635.5,0.25,115,120.0
3614,E6,635.5,0.25,115,120.0
3615,E6,635.531,0.25,115,120.0
3616,D3,635.75,0.25,115,120.0
3617,D6,635.75,0.25,115,120.0
3618,D6,635.781,0.219,115,120.0
3619,B-2,636.0,0.25,115,120.0
3620,E3,636.0,1.0,115,120.0
3621,E6,636.0,1.0,115,120.0
3622,D6,636.0,0.031,115,120.0
3623,E6,636.031,1.0,115,120.0
3624,E3,637.0,0.5,115,120.0
3625,E6,637.0,0.5,115,120.0
3626,B-2,637.0,0.25,115,120.0
3627,D2,637.0,0.25,115,120.0
3628,E6,637.031,0.5,115,120.0
3629,D3,637.5,0.5,115,120.0
3630,D6,637.5,0.5,115,120.0
3631,D6,637.531,0.5,115,120.0
3632,B-2,638.0,0.25,115,120.0
3633,D3,638.0,0.5,115,120.0
3634,D6,638.0,0.5,115,120.0
3635,D6,638.031,0.5,115,120.0
3636,B2,638.5,0.5,115,120.0
3637,B5,638.5,0.5,115,120.0
3638,B5,638.531,0.5,115,120.0
3639,A2,639.0,0.5,115,120.0
3640,A5,639.0,0.5,115,120.0
3641,B-2,639.0,0.25,115,120.0
3642,C2,639.0,0.25,115,120.0
3643,A5,639.031,0.5,115,120.0
3644,D2,639.5,0.25,115,120.0
3645,B2,639.5,0.5,115,120.0
3646,B5,639.5,0.5,115,120.0
3647,B5,639.531,0.469,115,120.0
3648,B-2,640.0,0.25,115,120.0
3649,D3,640.0,0.25,115,120.0
3650,D6,640.0,0.25,115,120.0
3651,B5,640.0,0.031,115,120.0
3652,D6,640.031,0.25,115,120.0
3653,B2,640.25,0.25,115,120.0
3654,B5,640.25,0.25,115,120.0
3655,B5,640.281,0.25,115,120.0
3656,C2,640.5,0.25,115,120.0
3657,A2,640.5,0.5,115,120.0
3658,A5,640.5,0.5,115,120.0
3659,A5,640.531,0.5,115,120.0
3660,A2,641.0,0.25,115,120.0
3661,A5,641.0,0.25,115,120.0
3662,D2,641.0,0.25,115,120.0
3663,C#3,641.0,0.25,115,120.0
3664,A5,641.031,0.25,115,120.0
3665,G2,641.25,0.25,115,120.0
3666,G5,641.25,0.25,115,120.0
3667,G5,641.281,0.25,115,120.0
3668,E2,641.5,0.5,115,120.0
3669,E5,641.5,0.5,115,120.0
3670,E5,641.531,0.5,115,120.0
3671,G2,642.0,0.5,115,120.0
3672,G5,642.0,0.5,115,120.0
3673,B-2,642.0,0.25,115,120.0
3674,C2,642.0,0.25,115,120.0
3675,G5,642.031,0.5,115,120.0
3676,E2,642.5,0.5,115,120.0
3677,E5,642.5,0.5,115,120.0
3678,E5,642.531,0.5,115,120.0
3679,E2,643.0,1.0,115,120.0
3680,E5,643.0,1.0,115,120.0
3681,C2,643.0,0.25,115,120.0
3682,B-2,643.0,0.25,115,120.0
3683,E5,643.031,0.969,115,120.0
3684,B-2,644.0,0.25,115,120.0
3685,F#3,644.0,1.0,115,120.0
3686,F#5,644.0,1.0,115,120.0
3687,E5,644.0,0.031,115,120.0
3688,F#5,644.031,1.0,115,120.0
3689,F#3,645.0,1.0,115,120.0
3690,F#5,645.0,1.0,115,120.0
3691,B-2,645.0,0.25,115,120.0
3692,D2,645.0,0.25,115,120.0
3693,F#5,645.031,1.0,115,120.0
3694,B-2,646.0,0.25,115,120.0
3695,F#3,646.0,1.0,115,120.0
3696,F#5,646.0,1.0,115,120.0
3697,F#5,646.031,1.0,115,120.0
3698,F3,647.0,479/1000,115,120.0
3699,F5,647.0,479/1000,115,120.0
3700,B-2,647.0,0.25,115,120.0
3701,C2,647.0,0.25,115,120.0
3702,F5,647.031,479/1000,115,120.0
3703,D2,647.5,0.25,115,120.0
3704,E3,647.5,0.5,115,120.0
3705,E5,647.5,0.5,115,120.0
3706,E5,647.531,0.469,115,120.0
3707,B-2,648.0,0.25,115,120.0
3708,E3,648.0,3/200,115,120.0
3709,E5,648.0,3/200,115,120.0
3710,E5,648.0,23/500,115,120.0
3711,D3,648.015,97/200,115,120.0
3712,D5,648.015,97/200,115,120.0
3713,D5,648.046,97/200,115,120.0
3714,C2,648.5,0.25,115,120.0
3715,B2,648.5,103/200,115,120.0
3716,B4,648.5,103/200,115,120.0
3717,B4,648.531,103/200,115,120.0
3718,D3,649.0,97/200,115,120.0
3719,D5,649.0,97/200,115,120.0
3720,D2,649.0,0.25,115,120.0
3721,C#3,649.0,0.25,115,120.0
3722,D5,649.031,97/200,115,120.0
3723,E3,649.5,2.5,115,120.0
3724,E5,649.5,2.5,115,120.0
3725,E5,649.531,2.469,115,120.0
3726,B-2,650.0,0.25,115,120.0
3727,C2,650.0,0.25,115,120.0
3728,C2,651.0,0.25,115,120.0
3729,B-2,651.0,0.25,115,120.0
3730,B-2,652.0,0.25,115,120.0
3731,A2,652.0,0.5,115,120.0
3732,E3,652.0,3/200,115,120.0
3733,A4,652.0,0.5,115,120.0
3734,E5,652.0,3/200,115,120.0
3735,E5,652.0,23/500,115,120.0
3736,A4,652.031,0.5,115,120.0
3737,B2,652.5,103/200,115,120.0
3738,B4,652.5,103/200,115,120.0
3739,B4,652.531,103/200,115,120.0
3740,D3,653.0,97/200,115,120.0
3741,D5,653.0,97/200,115,120.0
3742,B-2,653.0,0.25,115,120.0
3743,D2,653.0,0.25,115,120.0
3744,D5,653.031,97/200,115,120.0
3745,E3,653.5,303/200,115,120.0
3746,E5,653.5,303/200,115,120.0
3747,E5,653.531,303/200,115,120.0
3748,B-2,654.0,0.25,115,120.0
3749,A2,655.0,0.5,115,120.0
3750,A4,655.0,0.5,115,120.0
3751,B-2,655.0,0.25,115,120.0
3752,C2,655.0,0.25,115,120.0
3753,A4,655.031,0.5,115,120.0
3754,D2,655.5,0.25,115,120.0
3755,B2,655.5,0.5,115,120.0
3756,B4,655.5,0.5,115,120.0
3757,B4,655.531,0.469,115,120.0
3758,B-2,656.0,0.25,115,120.0
3759,D3,656.0,97/200,115,120.0
3760,B2,656.0,3/200,115,120.0
3761,D5,656.0,97/200,115,120.0
3762,B4,656.0,3/200,115,120.0
3763,B4,656.0,23/500,115,120.0
3764,D5,656.031,97/200,115,120.0
3765,C2,656.5,0.25,115,120.0
3766,E3,656.5,1.5,115,120.0
3767,E5,656.5,1.5,115,120.0
3768,E5,656.531,1.5,115,120.0
3769,D2,657.0,0.25,115,120.0
3770,C#3,657.0,0.25,115,120.0
3771,E3,658.0,97/200,115,120.0
3772,E5,658.0,97/200,115,120.0
3773,B-2,658.0,0.25,115,120.0
3774,C2,658.0,0.25,115,120.0
3775,E5,658.031,97/200,115,120.0
3776,D3,658.5,0.5,115,120.0
3777,D5,658.5,0.5,115,120.0
3778,D5,658.531,0.5,115,120.0
3779,E3,659.0,0.5,115,120.0
3780,E5,659.0,0.5,115,120.0
3781,C2,659.0,0.25,115,120.0
3782,B-2,659.0,0.25,115,120.0
3783,E5,659.031,0.5,115,120.0
3784,F#5,659.485,0.25,115,120.0
3785,D3,659.5,0.5,115,120.0
3786,F#5,659.517,0.25,115,120.0
3787,E5,659.735,0.25,91,120.0
3788,E5,659.767,233/1000,91,120.0
3789,D5,659.985,3/200,91,120.0
3790,B-2,660.0,0.25,115,120.0
3791,F#3,660.0,64/125,115,120.0
3792,D3,660.0,21/500,115,120.0
3793,D5,660.0,47/200,91,120.0
3794,E5,660.0,17/1000,91,120.0
3795,D5,660.017,0.25,91,120.0
3796,E5,660.235,0.25,91,120.0
3797,E5,660.267,0.25,91,120.0
3798,D5,660.485,0.25,91,120.0
3799,E3,660.5,271/500,115,120.0
3800,D5,660.517,0.25,91,120.0
3801,E5,660.735,0.25,91,120.0
3802,E5,660.767,0.25,91,120.0
3803,D3,661.0,271/500,115,120.0
3804,F#5,661.0,0.25,115,120.0
3805,B-2,661.0,0.25,115,120.0
3806,D2,661.0,0.25,115,120.0
3807,F#5,661.031,0.25,115,120.0
3808,E5,661.235,0.25,91,120.0
3809,E5,661.267,0.25,91,120.0
3810,D5,661.485,0.25,91,120.0
3811,F#3,661.5,64/125,115,120.0
3812,D5,661.517,0.25,91,120.0
3813,E5,661.735,0.25,91,120.0
3814,E5,661.767,0.25,91,120.0
3815,D5,661.985,0.25,91,120.0
3816,B-2,662.0,0.25,115,120.0
3817,E3,662.0,271/500,115,120.0
3818,D5,662.017,0.25,91,120.0
3819,E5,662.235,0.25,91,120.0
3820,E5,662.267,0.25,91,120.0
3821,D3,662.5,271/500,115,120.0
3822,F#5,662.5,0.25,115,120.0
3823,F#5,662.531,0.25,115,120.0
3824,E5,662.735,0.25,91,120.0
3825,E5,662.767,0.25,91,120.0
3826,D5,662.985,0.25,91,120.0
3827,F#3,663.0,64/125,115,120.0
3828,B-2,663.0,0.25,115,120.0
3829,C2,663.0,0.25,115,120.0
3830,D5,663.017,0.25,91,120.0
3831,E5,663.235,0.25,91,120.0
3832,E5,663.267,0.25,91,120.0
3833,D5,663.485,0.25,91,120.0
3834,D2,663.5,0.25,115,120.0
3835,E3,663.5,0.5,115,120.0
3836,D5,663.517,0.25,91,120.0
3837,E5,663.735,0.25,91,120.0
3838,E5,663.767,233/1000,91,120.0
3839,B-2,664.0,0.25,115,120.0
3840,D3,664.0,271/500,115,120.0
3841,E3,664.0,21/500,115,120.0
3842,F#5,664.0,0.25,115,120.0
3843,E5,664.0,17/1000,91,120.0
3844,F#5,664.031,0.25,115,120.0
3845,E5,664.235,0.25,91,120.0
3846,E5,664.267,0.25,91,120.0
3847,D5,664.485,0.25,91,120.0
3848,C2,664.5,0.25,115,120.0
3849,F#3,664.5,64/125,115,120.0
3850,D5,664.517,0.25,91,120.0
3851,E5,664.735,0.25,91,120.0
3852,E5,664.767,0.25,91,120.0
3853,D5,664.985,0.25,91,120.0
3854,E3,665.0,271/500,115,120.0
3855,D2,665.0,0.25,115,120.0
3856,C#3,665.0,0.25,115,120.0
3857,D5,665.017,0.25,91,120.0
3858,E5,665.235,0.25,91,120.0
3859,E5,665.267,0.25,91,120.0
3860,D3,665.5,271/500,115,120.0
3861,F#5,665.5,0.25,115,120.0
3862,F#5,665.531,0.25,115,120.0
3863,E5,665.735,0.25,91,120.0
3864,E5,665.767,0.25,91,120.0
3865,D5,665.985,0.25,91,120.0
3866,F#3,666.0,64/125,115,120.0
3867,B-2,666.0,0.25,115,120.0
3868,C2,666.0,0.25,115,120.0
3869,D5,666.017,0.25,91,120.0
3870,E5,666.235,0.25,91,120.0
3871,E5,666.267,0.25,91,120.0
3872,D5,666.485,0.25,91,120.0
3873,E3,666.5,271/500,115,120.0
3874,D5,666.517,0.25,91,120.0
3875,E5,666.735,0.25,91,120.0
3876,E5,666.767,0.25,91,120.0
3877,D3,667.0,271/500,115,120.0
3878,F#5,667.0,0.25,115,120.0
3879,C2,667.0,0.25,115,120.0
3880,B-2,667.0,0.25,115,120.0
3881,F#5,667.031,0.25,115,120.0
3882,E5,667.235,0.25,91,120.0
3883,E5,667.267,0.25,91,120.0
3884,D5,667.485,0.25,91,120.0
3885,F#3,667.5,0.5,115,120.0
3886,D5,667.517,0.25,91,120.0
3887,E5,667.735,0.25,91,120.0
3888,E5,667.767,233/1000,91,120.0
3889,D5,667.985,3/200,91,120.0
3890,B-2,668.0,0.25,115,120.0
3891,E3,668.0,271/500,115,120.0
3892,F#3,668.0,3/250,115,120.0
3893,D5,668.0,47/200,91,120.0
3894,E5,668.0,17/1000,91,120.0
3895,D5,668.017,0.25,91,120.0
3896,E5,668.235,0.25,91,120.0
3897,E5,668.267,0.25,91,120.0
3898,D3,668.5,271/500,115,120.0
3899,F#5,668.5,0.25,115,120.0
3900,F#5,668.531,0.25,115,120.0
3901,E5,668.735,0.25,91,120.0
3902,E5,668.767,0.25,91,120.0
3903,D5,668.985,0.25,91,120.0
3904,F#3,669.0,64/125,115,120.0
3905,B-2,669.0,0.25,115,120.0
3906,D2,669.0,0.25,115,120.0
3907,D5,669.017,0.25,91,120.0
3908,E5,669.235,0.25,91,120.0
3909,E5,669.267,0.25,91,120.0
3910,D5,669.485,0.25,91,120.0
3911,E3,669.5,271/500,115,120.0
3912,D5,669.517,0.25,91,120.0
3913,E5,669.735,0.25,91,120.0
3914,E5,669.767,0.25,91,120.0
3915,B-2,670.0,0.25,115,120.0
3916,D3,670.0,271/500,115,120.0
3917,F#5,670.0,0.25,115,120.0
3918,F#5,670.031,0.25,115,120.0
3919,E5,670.235,0.25,91,120.0
3920,E5,670.267,0.25,91,120.0
3921,D5,670.485,0.25,91,120.0
3922,F#3,670.5,64/125,115,120.0
3923,D5,670.517,0.25,91,120.0
3924,E5,670.735,0.25,91,120.0
3925,E5,670.767,0.25,91,120.0
3926,D5,670.985,0.25,91,120.0
3927,E3,671.0,271/500,115,120.0
3928,B-2,671.0,0.25,115,120.0
3929,C2,671.0,0.25,115,120.0
3930,D5,671.017,0.25,91,120.0
3931,E5,671.235,0.25,91,120.0
3932,E5,671.267,0.25,91,120.0
3933,D2,671.5,0.25,115,120.0
3934,D3,671.5,0.5,115,120.0
3935,F#5,671.5,0.25,115,120.0
3936,F#5,671.531,0.25,115,120.0
3937,E5,671.735,0.25,91,120.0
3938,E5,671.767,233/1000,91,120.0
3939,D5,671.985,3/200,91,120.0
3940,B-2,672.0,0.25,115,120.0
3941,D3,672.0,343/125,115,120.0
3942,D5,672.0,47/200,91,120.0
3943,E5,672.0,17/1000,91,120.0
3944,D5,672.017,0.25,91,120.0
3945,E5,672.235,0.25,91,120.0
3946,E5,672.267,0.25,91,120.0
3947,D5,672.485,0.25,91,120.0
3948,C2,672.5,0.25,115,120.0
3949,D5,672.517,0.25,91,120.0
3950,E5,672.735,0.25,91,120.0
3951,E5,672.767,0.25,91,120.0
3952,F#5,673.0,0.25,115,120.0
3953,D2,673.0,0.25,115,120.0
3954,C#3,673.0,0.25,115,120.0
3955,F#5,673.031,0.25,115,120.0
3956,E5,673.235,0.25,91,120.0
3957,E5,673.267,0.25,91,120.0
3958,D5,673.485,0.25,91,120.0
3959,D5,673.517,0.25,91,120.0
3960,E5,673.735,0.25,91,120.0
3961,E5,673.767,0.25,91,120.0
3962,D5,673.985,0.25,91,120.0
3963,B-2,674.0,0.25,115,120.0
3964,C2,674.0,0.25,115,120.0
3965,D5,674.017,0.25,91,120.0
3966,E5,674.235,0.25,91,120.0
3967,E5,674.267,0.25,91,120.0
3968,F#5,674.5,0.25,115,120.0
3969,F#5,674.531,0.25,115,120.0
3970,D3,674.75,1.25,115,120.0
3971,E5,674.75,0.25,115,120.0
3972,E5,674.781,0.25,115,120.0
3973,D5,674.985,0.25,61,120.0
3974,C2,675.0,0.25,115,120.0
3975,B-2,675.0,0.25,115,120.0
3976,D5,675.017,0.25,61,120.0
3977,E5,675.235,0.25,61,120.0
3978,E5,675.267,0.25,61,120.0
3979,D5,675.485,0.25,61,120.0
3980,D5,675.517,0.25,61,120.0
3981,E5,675.735,0.25,61,120.0
3982,E5,675.767,233/1000,61,120.0
3983,B-2,676.0,0.25,115,120.0
3984,F#3,676.0,1.0,115,120.0
3985,D3,676.0,21/1000,115,120.0
3986,F#5,676.0,1.0,115,120.0
3987,E5,676.0,17/1000,61,120.0
3988,F#5,676.031,1.0,115,120.0
3989,F#3,677.0,1.0,115,120.0
3990,F#5,677.0,1.0,115,120.0
3991,B-2,677.0,0.25,115,120.0
3992,D2,677.0,0.25,115,120.0
3993,F#5,677.031,1.0,115,120.0
3994,B-2,678.0,0.25,115,120.0
3995,F#3,678.0,1.0,115,120.0
3996,F#5,678.0,1.0,115,120.0
3997,F#5,678.031,1.0,115,120.0
3998,F#3,679.0,1.0,115,120.0
3999,F#5,679.0,1.0,115,120.0
4000,B-2,679.0,0.25,115,120.0
4001,C2,679.0,0.25,115,120.0
4002,F#5,679.031,0.969,115,120.0
4003,D2,679.5,0.25,115,120.0
4004,B-2,680.0,0.25,115,120.0
4005,F#3,680.0,2.0,115,120.0
4006,F#5,680.0,2.0,115,120.0
4007,F#5,680.0,0.031,115,120.0
4008,F#5,680.031,2.0,115,120.0
4009,C2,680.5,0.25,115,120.0
4010,D2,681.0,0.25,115,120.0
4011,C#3,681.0,0.25,115,120.0
4012,E3,682.0,97/200,115,120.0
4013,E5,682.0,97/200,115,120.0
4014,B-2,682.0,0.25,115,120.0
4015,C2,682.0,0.25,115,120.0
4016,E5,682.031,97/200,115,120.0
4017,D3,682.5,61/125,115,120.0
4018,D5,682.5,61/125,115,120.0
4019,D5,682.531,61/125,115,120.0
4020,D3,683.0,97/200,115,120.0
4021,D5,683.0,97/200,115,120.0
4022,C2,683.0,0.25,115,120.0
4023,B-2,683.0,0.25,115,120.0
4024,D5,683.031,97/200,115,120.0
4025,E3,683.5,0.5,115,120.0
4026,E5,683.5,0.5,115,120.0
4027,E5,683.531,0.469,115,120.0
4028,B-2,684.0,0.25,115,120.0
4029,E3,684.0,4.0,115,120.0
4030,E5,684.0,4.0,115,120.0
4031,E5,684.0,4.0,115,120.0
4032,B-2,685.0,0.25,115,120.0
4033,D2,685.0,0.25,115,120.0
4034,B-2,686.0,0.25,115,120.0
4035,B-2,687.0,0.25,115,120.0
4036,C2,687.0,0.25,115,120.0
4037,D2,687.5,0.25,115,120.0
4038,B-2,688.0,0.25,115,120.0
4039,E3,688.0,603/200,115,120.0
4040,E5,688.0,603/200,115,120.0
4041,E5,688.0,1523/500,115,120.0
4042,C2,688.5,0.25,115,120.0
4043,D2,689.0,0.25,115,120.0
4044,C#3,689.0,0.25,115,120.0
4045,B-2,690.0,0.25,115,120.0
4046,C2,690.0,0.25,115,120.0
4047,G#2,691.0,97/200,115,120.0
4048,G#4,691.0,97/200,115,120.0
4049,C2,691.0,0.25,115,120.0
4050,B-2,691.0,0.25,115,120.0
4051,G#4,691.031,97/200,115,120.0
4052,A2,691.5,0.5,115,120.0
4053,A4,691.5,0.5,115,120.0
4054,A4,691.531,0.469,115,120.0
4055,B-2,692.0,0.25,115,120.0
4056,A2,692.0,0.5,115,120.0
4057,E3,692.0,297/200,115,120.0
4058,A4,692.0,0.5,115,120.0
4059,A4,692.0,0.531,115,120.0
4060,E3,692.031,297/200,115,120.0
4061,A2,692.5,0.5,115,120.0
4062,A4,692.5,0.5,115,120.0
4063,A4,692.531,0.5,115,120.0
4064,G#2,693.0,1.0,115,120.0
4065,G#4,693.0,1.0,115,120.0
4066,B-2,693.0,0.25,115,120.0
4067,D2,693.0,0.25,115,120.0
4068,G#4,693.031,1.0,115,120.0
4069,E3,693.5,1.5,115,120.0
4070,E3,693.531,1.5,115,120.0
4071,B-2,694.0,0.25,115,120.0
4072,G#2,694.0,0.5,115,120.0
4073,G#4,694.0,0.5,115,120.0
4074,G#4,694.031,0.5,115,120.0
4075,E2,694.5,1.0,115,120.0
4076,E4,694.5,1.0,115,120.0
4077,E4,694.531,1.0,115,120.0
4078,E3,695.0,1.0,115,120.0
4079,B-2,695.0,0.25,115,120.0
4080,C2,695.0,0.25,115,120.0
4081,E3,695.031,0.969,115,120.0
4082,D2,695.5,0.25,115,120.0
4083,E2,695.5,0.5,115,120.0
4084,E4,695.5,0.5,115,120.0
4085,E4,695.531,0.469,115,120.0
4086,B-2,696.0,0.25,115,120.0
4087,D2,696.0,1.0,115,120.0
4088,D4,696.0,1.0,115,120.0
4089,E3,696.0,0.5,115,120.0
4090,E3,696.0,0.531,115,120.0
4091,E4,696.0,0.031,115,120.0
4092,D4,696.031,1.0,115,120.0
4093,C2,696.5,0.25,115,120.0
4094,E3,696.5,3.5,115,120.0
4095,E3,696.531,3.469,115,120.0
4096,D2,697.0,0.5,115,120.0
4097,D4,697.0,0.5,115,120.0
4098,D2,697.0,0.25,115,120.0
4099,C#3,697.0,0.25,115,120.0
4100,D4,697.031,0.5,115,120.0
4101,E2,697.5,2.5,115,120.0
4102,E4,697.5,2.5,115,120.0
4103,E4,697.531,2.469,115,120.0
4104,B-2,698.0,0.25,115,120.0
4105,C2,698.0,0.25,115,120.0
4106,C2,699.0,0.25,115,120.0
4107,B-2,699.0,0.25,115,120.0
4108,B-2,700.0,0.25,115,120.0
4109,E-2,700.0,297/200,115,120.0
4110,E2,700.0,3/200,115,120.0
4111,E-4,700.0,297/200,115,120.0
4112,E4,700.0,3/200,115,120.0
4113,E3,700.0,3/200,115,120.0
4114,E4,700.0,23/500,115,120.0
4115,E3,700.0,23/500,115,120.0
4116,E-4,700.031,297/200,115,120.0
4117,B-2,701.0,0.25,115,120.0
4118,D2,701.0,0.25,115,120.0
4119,E-2,701.5,1.5,115,120.0
4120,E-4,701.5,1.5,115,120.0
4121,E-4,701.531,1.5,115,120.0
4122,B-2,702.0,0.25,115,120.0
4123,E-2,703.0,1.0,115,120.0
4124,E-4,703.0,1.0,115,120.0
4125,B-2,703.0,0.25,115,120.0
4126,C2,703.0,0.25,115,120.0
4127,E-4,703.031,0.969,115,120.0
4128,D2,703.5,0.25,115,120.0
4129,B-2,704.0,0.25,115,120.0
4130,E-2,704.0,0.5,115,120.0
4131,E-4,704.0,0.5,115,120.0
4132,E-4,704.0,0.531,115,120.0
4133,C2,704.5,0.25,115,120.0
4134,E-2,704.5,3.5,115,120.0
4135,E-4,704.5,3.5,115,120.0
4136,E-4,704.531,3.469,115,120.0
4137,D2,705.0,0.25,115,120.0
4138,C#3,705.0,0.25,115,120.0
4139,B-2,706.0,0.25,115,120.0
4140,C2,706.0,0.25,115,120.0
4141,C2,707.0,0.25,115,120.0
4142,B-2,707.0,0.25,115,120.0
4143,B-2,708.0,0.25,115,120.0
4144,E-2,708.0,297/200,115,120.0
4145,E-4,708.0,297/200,115,120.0
4146,E-4,708.0,0.031,115,120.0
4147,E-4,708.031,297/200,115,120.0
4148,B-2,709.0,0.25,115,120.0
4149,D2,709.0,0.25,115,120.0
4150,E-2,709.5,1.5,115,120.0
4151,E-4,709.5,1.5,115,120.0
4152,E-4,709.531,1.5,115,120.0
4153,B-2,710.0,0.25,115,120.0
4154,E-2,711.0,1.0,115,120.0
4155,E-4,711.0,1.0,115,120.0
4156,B-2,711.0,0.25,115,120.0
4157,C2,711.0,0.25,115,120.0
4158,E-4,711.031,0.969,115,120.0
4159,D2,711.5,0.25,115,120.0
4160,B-2,712.0,0.25,115,120.0
4161,E-2,712.0,0.5,115,120.0
4162,E-4,712.0,0.5,115,120.0
4163,E-4,712.0,0.531,115,120.0
4164,E-4,712.5,303/200,115,120.0
4165,E-4,712.531,303/200,115,120.0
4166,E-2,712.615,1.406,115,120.0
4167,B-2,713.0,0.25,115,120.0
4168,D2,713.0,0.25,115,120.0
4169,D2,713.985,1.0,115,120.0
4170,B-2,714.0,0.25,115,120.0
4171,E2,714.985,203/200,115,120.0
4172,B-2,715.0,0.25,115,120.0
4173,C2,715.0,0.25,115,120.0
4174,B-2,716.0,0.25,115,120.0
4175,E2,716.0,4.0,115,120.0
4176,C2,716.5,0.25,115,120.0
4177,D2,717.0,0.25,115,120.0
4178,C#3,717.0,0.25,115,120.0
4179,B-2,718.0,0.25,115,120.0
4180,C2,718.0,0.25,115,120.0
4181,C2,719.0,0.25,115,120.0
4182,B-2,719.0,0.25,115,120.0
4183,D2,719.5,0.25,115,120.0
4184,D2,720.0,0.25,115,120.0
4185,E2,720.0,1471/1000,115,120.0
4186,D2,720.5,0.25,115,120.0
4187,D2,721.0,0.25,115,120.0
4188,E2,721.471,0.5,115,120.0
4189,E2,721.471,0.5,115,120.0
4190,D2,721.5,0.25,115,120.0
4191,E2,721.971,0.5,115,120.0
4192,C2,722.0,0.25,115,120.0
4193,C#3,722.0,0.25,115,120.0
4194,E2,722.471,0.5,115,120.0
4195,E2,722.971,0.5,115,120.0
4196,C2,723.0,0.25,115,120.0
4197,A3,723.0,0.25,115,120.0
4198,D2,723.471,529/1000,115,120.0
4199,B-2,724.0,0.25,115,120.0
4200,D2,724.0,4.0,115,120.0
4201,B-2,725.0,0.25,115,120.0
4202,D2,725.0,0.25,115,120.0
4203,B-2,726.0,0.25,115,120.0
4204,D3,726.55,1.0,115,120.0
4205,A3,726.55,1.0,115,120.0
4206,B-2,727.0,0.25,115,120.0
4207,C2,727.0,0.25,115,120.0
4208,D2,727.5,0.25,115,120.0
4209,B3,727.55,193/200,115,120.0
4210,E3,727.55,193/200,115,120.0
4211,B-2,728.0,0.25,115,120.0
4212,D2,728.0,1471/1000,115,120.0
4213,C2,728.5,0.25,115,120.0
4214,B3,728.515,4.0,115,120.0
4215,E3,728.515,4.0,115,120.0
4216,D2,729.0,0.25,115,120.0
4217,C#3,729.0,0.25,115,120.0
4218,D2,729.471,0.5,115,120.0
4219,D2,729.971,0.5,115,120.0
4220,B-2,730.0,0.25,115,120.0
4221,C2,730.0,0.25,115,120.0
4222,D2,730.471,0.5,115,120.0
4223,D2,730.971,0.5,115,120.0
4224,C2,731.0,0.25,115,120.0
4225,B-2,731.0,0.25,115,120.0
4226,E2,731.485,103/200,115,120.0
4227,B-2,732.0,0.25,115,120.0
4228,E2,732.0,4.0,115,120.0
4229,B-2,733.0,0.25,115,120.0
4230,D2,733.0,0.25,115,120.0
4231,B-2,734.0,0.25,115,120.0
4232,B3,734.035,1521/1000,115,120.0
4233,E3,734.035,1521/1000,115,120.0
4234,B-2,735.0,0.25,115,120.0
4235,C2,735.0,0.25,115,120.0
4236,D2,735.5,0.25,115,120.0
4237,B3,735.556,0.5,115,120.0
4238,E3,735.556,0.5,115,120.0
4239,B-2,736.0,0.25,115,120.0
4240,E2,736.0,1971/1000,115,120.0
4241,E3,736.056,0.5,115,120.0
4242,B3,736.056,0.5,115,120.0
4243,C2,736.5,0.25,115,120.0
4244,E3,736.556,0.5,115,120.0
4245,B3,736.556,0.5,115,120.0
4246,D3,736.633,1.0,115,120.0
4247,A3,736.633,1.0,115,120.0
4248,D2,737.0,0.25,115,120.0
4249,C#3,737.0,0.25,115,120.0
4250,E3,737.056,0.5,115,120.0
4251,B3,737.056,0.5,115,120.0
4252,E2,737.471,0.5,115,120.0
4253,A3,737.556,479/1000,115,120.0
4254,D3,737.556,479/1000,115,120.0
4255,B3,737.633,1.0,115,120.0
4256,E3,737.633,1.0,115,120.0
4257,E2,737.971,0.5,115,120.0
4258,B-2,738.0,0.25,115,120.0
4259,C2,738.0,0.25,115,120.0
4260,E2,738.471,0.5,115,120.0
4261,B3,738.633,4.0,115,120.0
4262,E3,738.633,4.0,115,120.0
4263,E2,738.971,0.5,115,120.0
4264,C2,739.0,0.25,115,120.0
4265,B-2,739.0,0.25,115,120.0
4266,D2,739.471,529/1000,115,120.0
4267,B-2,740.0,0.25,115,120.0
4268,D2,740.0,4.0,115,120.0
4269,B-2,741.0,0.25,115,120.0
4270,D2,741.0,0.25,115,120.0
4271,B-2,742.0,0.25,115,120.0
4272,B-2,743.0,0.25,115,120.0
4273,C2,743.0,0.25,115,120.0
4274,D2,743.5,0.25,115,120.0
4275,A3,743.556,4.0,115,120.0
4276,D3,743.556,4.0,115,120.0
4277,B-2,744.0,0.25,115,120.0
4278,D2,744.0,753/250,115,120.0
4279,B3,744.119,297/200,115,120.0
4280,E3,744.119,297/200,115,120.0
4281,C2,744.5,0.25,115,120.0
4282,D2,745.0,0.25,115,120.0
4283,C#3,745.0,0.25,115,120.0
4284,B3,745.604,0.5,115,120.0
4285,E3,745.604,0.5,115,120.0
4286,B-2,746.0,0.25,115,120.0
4287,C2,746.0,0.25,115,120.0
4288,E3,746.104,0.5,115,120.0
4289,B3,746.104,0.5,115,120.0
4290,E3,746.604,0.5,115,120.0
4291,B3,746.604,0.5,115,120.0
4292,D2,747.0,0.5,115,120.0
4293,C2,747.0,0.25,115,120.0
4294,C#3,747.0,0.25,115,120.0
4295,E3,747.104,0.5,115,120.0
4296,B3,747.104,0.5,115,120.0
4297,E2,747.5,0.5,115,120.0
4298,C2,747.5,0.5,115,120.0
4299,A3,747.5,0.5,115,120.0
4300,A3,747.604,103/200,115,120.0
4301,D3,747.604,103/200,115,120.0
4302,E2,748.0,0.5,115,120.0
4303,G#2,749.0,0.25,115,120.0
4304,A3,749.077,1521/1000,115,120.0
4305,D3,749.077,1521/1000,115,120.0
4306,G#2,750.0,0.25,115,120.0
4307,D3,750.598,0.5,115,120.0
4308,A3,750.598,0.5,115,120.0
4309,G#2,751.0,0.25,115,120.0
4310,D3,751.098,0.5,115,120.0
4311,A3,751.098,0.5,115,120.0
4312,D3,751.598,0.5,115,120.0
4313,A3,751.598,0.5,115,120.0
4314,G#2,752.0,0.25,115,120.0
4315,D3,752.098,0.5,115,120.0
4316,A3,752.098,0.5,115,120.0
4317,B3,752.612,93/200,115,120.0
4318,E3,752.612,93/200,115,120.0
4319,G#2,753.0,0.25,115,120.0
4320,B3,753.077,4.0,115,120.0
4321,E3,753.077,4.0,115,120.0
4322,A3,753.604,4.0,115,120.0
4323,D3,753.604,4.0,115,120.0
4324,G#2,754.0,0.25,115,120.0
4325,G#2,755.0,0.25,115,120.0
4326,G#2,756.0,0.25,115,120.0
4327,G#2,757.0,0.25,115,120.0
4328,G#2,758.0,0.25,115,120.0
4329,G#2,759.0,0.25,115,120.0
4330,A3,759.09,297/200,115,120.0
4331,D3,759.09,297/200,115,120.0
4332,B3,759.098,2021/1000,115,120.0
4333,E3,759.098,2021/1000,115,120.0
4334,B-2,759.515,97/200,115,120.0
4335,G#2,760.0,0.25,115,120.0
4336,D3,760.575,0.5,115,120.0
4337,A3,760.575,0.5,115,120.0
4338,B3,760.619,0.5,115,120.0
4339,E3,760.619,0.5,115,120.0
4340,G#2,761.015,0.25,115,120.0
4341,D3,761.075,0.5,115,120.0
4342,A3,761.075,0.5,115,120.0
4343,E3,761.119,0.5,115,120.0
4344,B3,761.119,0.5,115,120.0
4345,D3,761.575,0.5,115,120.0
4346,A3,761.575,0.5,115,120.0
4347,E3,761.619,0.5,115,120.0
4348,B3,761.619,0.5,115,120.0
4349,D2,762.015,0.25,115,120.0
4350,C#3,762.015,0.25,115,120.0
4351,D3,762.075,0.5,115,120.0
4352,A3,762.075,0.5,115,120.0
4353,E3,762.119,0.5,115,120.0
4354,B3,762.119,0.5,115,120.0
4355,B3,762.59,0.5,115,120.0
4356,E3,762.59,0.5,115,120.0
4357,D3,762.633,93/200,115,120.0
4358,A3,762.633,93/200,115,120.0
4359,D2,763.015,97/200,115,120.0
4360,A3,763.015,0.25,115,120.0
4361,E2,763.015,0.25,115,120.0
4362,B3,763.09,4.0,115,120.0
4363,E3,763.09,4.0,115,120.0
4364,D3,763.098,4.0,115,120.0
4365,A3,763.098,4.0,115,120.0
4366,E2,763.515,97/200,115,120.0
4367,E2,763.515,0.25,115,120.0
4368,A3,763.515,0.25,115,120.0
4369,E2,764.0,61/125,115,120.0
4370,G#2,765.0,0.25,115,120.0
4371,G#2,766.0,0.25,115,120.0
4372,G#2,767.0,0.25,115,120.0
4373,G#2,768.0,0.25,115,120.0
4374,G#2,769.0,0.25,115,120.0
4375,B3,769.075,397/200,115,120.0
4376,E3,769.075,397/200,115,120.0
4377,G#2,770.0,0.25,115,120.0
4378,D3,770.133,607/200,115,120.0
4379,A3,770.133,607/200,115,120.0
4380,B3,770.56,0.5,115,120.0
4381,E3,770.56,0.5,115,120.0
4382,G#2,771.0,0.25,115,120.0
4383,E3,771.06,0.5,115,120.0
4384,B3,771.06,0.5,115,120.0
4385,E3,771.56,0.5,115,120.0
4386,B3,771.56,0.5,115,120.0
4387,G#2,772.0,0.25,115,120.0
4388,E3,772.06,0.5,115,120.0
4389,B3,772.06,0.5,115,120.0
4390,D3,772.575,0.5,115,120.0
4391,A3,772.575,0.5,115,120.0
4392,G#2,773.0,0.25,115,120.0
4393,D3,773.075,4.0,115,120.0
4394,A3,773.075,4.0,115,120.0
4395,D3,773.169,0.5,115,120.0
4396,A3,773.169,0.5,115,120.0
4397,E3,773.669,93/200,115,120.0
4398,B3,773.669,93/200,115,120.0
4399,G#2,774.0,0.25,115,120.0
4400,E3,774.669,107/200,115,120.0
4401,B3,774.669,107/200,115,120.0
4402,G#2,775.0,0.25,115,120.0
4403,B-2,775.515,97/200,115,120.0
4404,G#2,776.0,0.25,115,120.0
4405,G#2,777.015,0.25,115,120.0
4406,D2,778.015,0.25,115,120.0
4407,C#3,778.015,0.25,115,120.0
4408,D2,779.015,97/200,115,120.0
4409,A3,779.015,0.25,115,120.0
4410,E2,779.015,0.25,115,120.0
4411,E2,779.515,97/200,115,120.0
4412,E2,779.515,0.25,115,120.0
4413,A3,779.515,0.25,115,120.0
4414,E2,780.0,61/125,115,120.0
4415,D3,780.075,3.0,115,120.0
4416,A3,780.075,3.0,115,120.0
4417,G#2,781.0,0.25,115,120.0
4418,E4,781.0,1.0,115,120.0
4419,E4,781.052,1.0,115,120.0
4420,G#2,782.0,0.25,115,120.0
4421,E4,782.0,1.0,115,120.0
4422,E4,782.052,1.0,115,120.0
4423,G#2,783.0,0.25,115,120.0
4424,G#4,783.0,1.0,115,120.0
4425,G#4,783.052,237/250,115,120.0
4426,D3,783.075,0.5,115,120.0
4427,A3,783.075,0.5,115,120.0
4428,E3,783.575,0.5,115,120.0
4429,B3,783.575,0.5,115,120.0
4430,G#2,784.0,0.25,115,120.0
4431,G#4,784.0,1.0,115,120.0
4432,G#4,784.0,13/250,115,120.0
4433,G#4,784.052,1.0,115,120.0
4434,E3,784.575,0.5,115,120.0
4435,B3,784.575,0.5,115,120.0
4436,G#2,785.0,0.25,115,120.0
4437,A4,785.0,1.0,115,120.0
4438,A4,785.052,1.0,115,120.0
4439,G#2,786.0,0.25,115,120.0
4440,A4,786.0,1.0,115,120.0
4441,A4,786.052,1.0,115,120.0
4442,G#2,787.0,0.25,115,120.0
4443,B4,787.0,1.0,115,120.0
4444,B4,787.052,237/250,115,120.0
4445,G#2,788.0,0.25,115,120.0
4446,E5,788.0,4.0,100,120.0
4447,B4,788.0,13/250,115,120.0
4448,E5,788.052,987/250,100,120.0
4449,G#2,789.0,0.25,115,120.0
4450,D3,789.719,97/200,115,120.0
4451,A3,789.719,97/200,115,120.0
4452,G#2,790.0,0.25,115,120.0
4453,B3,790.219,9/20,115,120.0
4454,E3,790.219,9/20,115,120.0
4455,B3,790.669,523/1000,115,120.0
4456,E3,790.669,523/1000,115,120.0
4457,G#2,791.0,0.25,115,120.0
4458,B-2,791.515,97/200,115,120.0
4459,G#2,792.0,0.25,115,120.0
4460,E5,792.0,297/200,100,120.0
4461,E5,792.0,769/500,100,120.0
4462,G#2,793.015,0.25,115,120.0
4463,D2,794.015,0.25,115,120.0
4464,C#3,794.015,0.25,115,120.0
4465,D2,795.015,97/200,115,120.0
4466,A3,795.015,0.25,115,120.0
4467,E2,795.015,0.25,115,120.0
4468,E2,795.515,97/200,115,120.0
4469,E2,795.515,0.25,115,120.0
4470,A3,795.515,0.25,115,120.0
4471,E2,796.0,61/125,115,120.0
4472,G#2,797.0,0.25,115,120.0
4473,E5,797.0,1.0,115,120.0
4474,E5,797.052,1.0,115,120.0
4475,G#2,798.0,0.25,115,120.0
4476,D5,798.0,1.0,115,120.0
4477,D5,798.052,1.0,115,120.0
4478,G#2,799.0,0.25,115,120.0
4479,E5,799.0,1.0,115,120.0
4480,E5,799.052,237/250,115,120.0
4481,D3,799.59,97/200,115,120.0
4482,A3,799.59,97/200,115,120.0
4483,G#2,800.0,0.25,115,120.0
4484,D5,800.0,1.0,115,120.0
4485,E5,800.0,13/250,115,120.0
4486,D5,800.052,1.0,115,120.0
4487,B3,800.09,97/200,115,120.0
4488,E3,800.09,97/200,115,120.0
4489,B3,800.575,61/125,115,120.0
4490,E3,800.575,61/125,115,120.0
4491,G#2,801.0,0.25,115,120.0
4492,B4,801.0,1.0,115,120.0
4493,B4,801.052,1.0,115,120.0
4494,G#2,802.0,0.25,115,120.0
4495,A4,802.0,1.0,115,120.0
4496,A4,802.052,1.0,115,120.0
4497,G#2,803.0,0.25,115,120.0
4498,A4,803.0,1.0,115,120.0
4499,A4,803.052,237/250,115,120.0
4500,G#2,804.0,0.25,115,120.0
4501,E4,804.0,4.0,115,120.0
4502,A4,804.0,13/250,115,120.0
4503,E4,804.052,987/250,115,120.0
4504,G#2,805.0,0.25,115,120.0
4505,D3,805.719,97/200,115,120.0
4506,A3,805.719,97/200,115,120.0
4507,G#2,806.0,0.25,115,120.0
4508,B3,806.219,9/20,115,120.0
4509,E3,806.219,9/20,115,120.0
4510,B3,806.669,301/500,115,120.0
4511,E3,806.669,301/500,115,120.0
4512,G#2,807.0,0.25,115,120.0
4513,B-2,807.515,97/200,115,120.0
4514,G#2,808.0,0.25,115,120.0
4515,E4,808.0,297/200,115,120.0
4516,E4,808.0,769/500,115,120.0
4517,G#2,809.015,0.25,115,120.0
4518,D2,810.015,0.25,115,120.0
4519,C#3,810.015,0.25,115,120.0
4520,D2,811.015,97/200,115,120.0
4521,A3,811.015,0.25,115,120.0
4522,E2,811.015,0.25,115,120.0
4523,E2,811.515,97/200,115,120.0
4524,E2,811.515,0.25,115,120.0
4525,A3,811.515,0.25,115,120.0
4526,E2,812.0,61/125,115,120.0
4527,G#2,813.0,0.25,115,120.0
4528,E4,813.0,1.0,115,120.0
4529,E4,813.052,1.0,115,120.0
4530,G#2,814.0,0.25,115,120.0
4531,E4,814.0,1.0,115,120.0
4532,E4,814.052,1.0,115,120.0
4533,G#2,815.0,0.25,115,120.0
4534,G#4,815.0,1.0,115,120.0
4535,G#4,815.052,237/250,115,120.0
4536,D3,815.59,97/200,115,120.0
4537,A3,815.59,97/200,115,120.0
4538,G#2,816.0,0.25,115,120.0
4539,G#4,816.0,1.0,115,120.0
4540,G#4,816.0,13/250,115,120.0
4541,G#4,816.052,1.0,115,120.0
4542,B3,816.09,97/200,115,120.0
4543,E3,816.09,97/200,115,120.0
4544,B3,816.575,567/1000,115,120.0
4545,E3,816.575,567/1000,115,120.0
4546,G#2,817.0,0.25,115,120.0
4547,A4,817.0,1.0,115,120.0
4548,A4,817.052,1.0,115,120.0
4549,G#2,818.0,0.25,115,120.0
4550,A4,818.0,1.0,115,120.0
4551,A4,818.052,1.0,115,120.0
4552,G#2,819.0,0.25,115,120.0
4553,B4,819.0,1.0,115,120.0
4554,B4,819.052,237/250,115,120.0
4555,G#2,820.0,0.25,115,120.0
4556,E5,820.0,4.0,100,120.0
4557,B4,820.0,13/250,115,120.0
4558,E5,820.052,987/250,100,120.0
4559,G#2,821.0,0.25,115,120.0
4560,D3,821.719,97/200,115,120.0
4561,A3,821.719,97/200,115,120.0
4562,G#2,822.0,0.25,115,120.0
4563,B3,822.219,9/20,115,120.0
4564,E3,822.219,9/20,115,120.0
4565,B3,822.669,11/25,115,120.0
4566,E3,822.669,11/25,115,120.0
4567,G#2,823.0,0.25,115,120.0
4568,B-2,823.515,97/200,115,120.0
4569,G#2,824.0,0.25,115,120.0
4570,E5,824.0,297/200,100,120.0
4571,E5,824.0,769/500,100,120.0
4572,G#2,825.015,0.25,115,120.0
4573,D2,826.015,0.25,115,120.0
4574,C#3,826.015,0.25,115,120.0
4575,D2,827.015,97/200,115,120.0
4576,A3,827.015,0.25,115,120.0
4577,E2,827.015,0.25,115,120.0
4578,E2,827.515,97/200,115,120.0
4579,E2,827.515,0.25,115,120.0
4580,A3,827.515,0.25,115,120.0
4581,E2,828.0,61/125,115,120.0
4582,G#2,829.0,0.25,115,120.0
4583,E5,829.0,1.0,115,120.0
4584,E5,829.052,1.0,115,120.0
4585,G#2,830.0,0.25,115,120.0
4586,D5,830.0,1.0,115,120.0
4587,D5,830.052,1.0,115,120.0
4588,G#2,831.0,0.25,115,120.0
4589,E5,831.0,1.0,115,120.0
4590,E5,831.052,237/250,115,120.0
4591,D3,831.59,97/200,115,120.0
4592,A3,831.59,97/200,115,120.0
4593,G#2,832.0,0.25,115,120.0
4594,D5,832.0,1.0,115,120.0
4595,E5,832.0,13/250,115,120.0
4596,D5,832.052,1.0,115,120.0
4597,B3,832.09,97/200,115,120.0
4598,E3,832.09,97/200,115,120.0
4599,B3,832.575,101/250,115,120.0
4600,E3,832.575,101/250,115,120.0
4601,G#2,833.0,0.25,115,120.0
4602,B4,833.0,1.0,115,120.0
4603,B4,833.052,1.0,115,120.0
4604,G#2,834.0,0.25,115,120.0
4605,A4,834.0,1.0,115,120.0
4606,A4,834.052,1.0,115,120.0
4607,G#2,835.0,0.25,115,120.0
4608,A4,835.0,1.0,115,120.0
4609,A4,835.052,237/250,115,120.0
4610,G#2,836.0,0.25,115,120.0
4611,E4,836.0,4.0,115,120.0
4612,A4,836.0,13/250,115,120.0
4613,E4,836.052,987/250,115,120.0
4614,G#2,837.0,0.25,115,120.0
4615,D3,837.719,97/200,115,120.0
4616,A3,837.719,97/200,115,120.0
4617,G#2,838.0,0.25,115,120.0
4618,B3,838.219,9/20,115,120.0
4619,E3,838.219,9/20,115,120.0
4620,B3,838.669,137/250,115,120.0
4621,E3,838.669,137/250,115,120.0
4622,G#2,839.0,0.25,115,120.0
4623,B-2,839.515,97/200,115,120.0
4624,G#2,840.0,0.25,115,120.0
4625,E4,840.0,297/200,115,120.0
4626,E4,840.0,769/500,115,120.0
4627,G#2,841.015,0.25,115,120.0
4628,D2,842.015,0.25,115,120.0
4629,C#3,842.015,0.25,115,120.0
4630,D2,843.015,97/200,115,120.0
4631,A3,843.015,0.25,115,120.0
4632,E2,843.015,0.25,115,120.0
4633,E2,843.515,97/200,115,120.0
4634,E2,843.515,0.25,115,120.0
4635,A3,843.515,0.25,115,120.0
4636,E2,844.0,61/125,115,120.0
4637,G#2,845.0,0.25,115,120.0
4638,E4,845.0,1.0,115,120.0
4639,E4,845.052,1.0,115,120.0
4640,G#2,846.0,0.25,115,120.0
4641,E4,846.0,1.0,115,120.0
4642,E4,846.052,1.0,115,120.0
4643,G#2,847.0,0.25,115,120.0
4644,G#4,847.0,1.0,115,120.0
4645,G#4,847.052,237/250,115,120.0
4646,D3,847.59,97/200,115,120.0
4647,A3,847.59,97/200,115,120.0
4648,G#2,848.0,0.25,115,120.0
4649,G#4,848.0,1.0,115,120.0
4650,G#4,848.0,13/250,115,120.0
4651,G#4,848.052,1.0,115,120.0
4652,B3,848.09,97/200,115,120.0
4653,E3,848.09,97/200,115,120.0
4654,B3,848.575,64/125,115,120.0
4655,E3,848.575,64/125,115,120.0
4656,G#2,849.0,0.25,115,120.0
4657,A4,849.0,1.0,115,120.0
4658,A4,849.052,1.0,115,120.0
4659,G#2,850.0,0.25,115,120.0
4660,A4,850.0,1.0,115,120.0
4661,A4,850.052,1.0,115,120.0
4662,G#2,851.0,0.25,115,120.0
4663,B4,851.0,1.0,115,120.0
4664,B4,851.052,237/250,115,120.0
4665,G#2,852.0,0.25,115,120.0
4666,E5,852.0,4.0,100,120.0
4667,B4,852.0,13/250,115,120.0
4668,E5,852.052,987/250,100,120.0
4669,G#2,853.0,0.25,115,120.0
4670,D3,853.719,97/200,115,120.0
4671,A3,853.719,97/200,115,120.0
4672,G#2,854.0,0.25,115,120.0
4673,B3,854.219,9/20,115,120.0
4674,E3,854.219,9/20,115,120.0
4675,B3,854.669,629/1000,115,120.0
4676,E3,854.669,629/1000,115,120.0
4677,G#2,855.0,0.25,115,120.0
4678,B-2,855.515,97/200,115,120.0
4679,G#2,856.0,0.25,115,120.0
4680,E5,856.0,297/200,100,120.0
4681,E5,856.0,769/500,100,120.0
4682,G#2,857.015,0.25,115,120.0
4683,D2,858.015,0.25,115,120.0
4684,C#3,858.015,0.25,115,120.0
4685,D2,859.015,97/200,115,120.0
4686,A3,859.015,0.25,115,120.0
4687,E2,859.015,0.25,115,120.0
4688,E2,859.515,97/200,115,120.0
4689,E2,859.515,0.25,115,120.0
4690,A3,859.515,0.25,115,120.0
4691,E2,860.0,61/125,115,120.0
4692,G#2,861.0,0.25,115,120.0
4693,E5,861.0,1.0,115,120.0
4694,E5,861.052,1.0,115,120.0
4695,G#2,862.0,0.25,115,120.0
4696,D5,862.0,1.0,115,120.0
4697,D5,862.052,1.0,115,120.0
4698,G#2,863.0,0.25,115,120.0
4699,E5,863.0,1.0,115,120.0
4700,E5,863.052,237/250,115,120.0
4701,D3,863.59,97/200,115,120.0
4702,A3,863.59,97/200,115,120.0
4703,G#2,864.0,0.25,115,120.0
4704,D5,864.0,1.0,115,120.0
4705,E5,864.0,13/250,115,120.0
4706,D5,864.052,1.0,115,120.0
4707,B3,864.09,97/200,115,120.0
4708,E3,864.09,97/200,115,120.0
4709,B3,864.575,0.594,115,120.0
4710,E3,864.575,0.594,115,120.0
4711,G#2,865.0,0.25,115,120.0
4712,B4,865.0,1.0,115,120.0
4713,B4,865.052,1.0,115,120.0
4714,G#2,866.0,0.25,115,120.0
4715,A4,866.0,1.0,115,120.0
4716,A4,866.052,1.0,115,120.0
4717,G#2,867.0,0.25,115,120.0
4718,A4,867.0,1.0,115,120.0
4719,A4,867.052,237/250,115,120.0
4720,G#2,868.0,0.25,115,120.0
4721,E4,868.0,4.0,115,120.0
4722,A4,868.0,13/250,115,120.0
4723,E4,868.052,987/250,115,120.0
4724,G#2,869.0,0.25,115,120.0
4725,D3,869.719,97/200,115,120.0
4726,A3,869.719,97/200,115,120.0
4727,G#2,870.0,0.25,115,120.0
4728,B3,870.219,9/20,115,120.0
4729,E3,870.219,9/20,115,120.0
4730,B3,870.669,301/500,115,120.0
4731,E3,870.669,301/500,115,120.0
4732,G#2,871.0,0.25,115,120.0
4733,B-2,871.515,97/200,115,120.0
4734,G#2,872.0,0.25,115,120.0
4735,E4,872.0,297/200,115,120.0
4736,E4,872.0,769/500,115,120.0
4737,G#2,873.015,0.25,115,120.0
4738,D2,874.015,0.25,115,120.0
4739,C#3,874.015,0.25,115,120.0
4740,D2,875.015,97/200,115,120.0
4741,A3,875.015,0.25,115,120.0
4742,E2,875.015,0.25,115,120.0
4743,E2,875.515,97/200,115,120.0
4744,E2,875.515,0.25,115,120.0
4745,A3,875.515,0.25,115,120.0
4746,E2,876.0,61/125,115,120.0
4747,G#2,877.0,0.25,115,120.0
4748,E4,877.0,1.0,115,120.0
4749,E4,877.052,1.0,115,120.0
4750,G#2,878.0,0.25,115,120.0
4751,E4,878.0,1.0,115,120.0
4752,E4,878.052,1.0,115,120.0
4753,G#2,879.0,0.25,115,120.0
4754,G#4,879.0,1.0,115,120.0
4755,G#4,879.052,237/250,115,120.0
4756,D3,879.59,97/200,115,120.0
4757,A3,879.59,97/200,115,120.0
4758,G#2,880.0,0.25,115,120.0
4759,G#4,880.0,1.0,115,120.0
4760,G#4,880.0,13/250,115,120.0
4761,G#4,880.052,1.0,115,120.0
4762,B3,880.09,97/200,115,120.0
4763,E3,880.09,97/200,115,120.0
4764,B3,880.575,567/1000,115,120.0
4765,E3,880.575,567/1000,115,120.0
4766,G#2,881.0,0.25,115,120.0
4767,A4,881.0,1.0,115,120.0
4768,A4,881.052,1.0,115,120.0
4769,G#2,882.0,0.25,115,120.0
4770,A4,882.0,1.0,115,120.0
4771,A4,882.052,1.0,115,120.0
4772,G#2,883.0,0.25,115,120.0
4773,B4,883.0,1.0,115,120.0
4774,B4,883.052,237/250,115,120.0
4775,B3,883.704,333/1000,115,120.0
4776,G#2,884.0,0.25,115,120.0
4777,E5,884.0,4.0,100,120.0
4778,B4,884.0,13/250,115,120.0
4779,A3,884.038,333/1000,87,120.0
4780,E5,884.052,987/250,100,120.0
4781,G3,884.371,333/1000,87,120.0
4782,E3,884.704,729/1000,115,120.0
4783,D2,884.956,0.062,115,120.0
4784,D2,885.0,0.25,115,120.0
4785,C2,885.5,0.25,115,120.0
4786,D3,885.719,97/200,115,120.0
4787,A3,885.719,97/200,115,120.0
4788,B3,886.219,9/20,115,120.0
4789,E3,886.219,9/20,115,120.0
4790,D2,886.442,0.062,115,120.0
4791,D2,886.485,0.25,115,120.0
4792,B3,886.669,523/1000,115,120.0
4793,E3,886.669,523/1000,115,120.0
4794,D2,887.442,0.062,115,120.0
4795,D2,887.485,0.25,115,120.0
4796,E5,888.0,297/200,100,120.0
4797,E5,888.0,769/500,100,120.0
4798,D2,888.425,0.062,115,120.0
4799,D2,888.485,0.25,115,120.0
4800,C2,888.735,0.25,115,120.0
4801,D2,890.015,0.25,115,120.0
4802,C#3,890.015,0.25,115,120.0
4803,D2,891.015,97/200,115,120.0
4804,A3,891.015,0.25,115,120.0
4805,E2,891.015,0.25,115,120.0
4806,E2,891.515,97/200,115,120.0
4807,E2,891.515,0.25,115,120.0
4808,A3,891.515,0.25,115,120.0
4809,E2,892.0,229/500,115,120.0
4810,G#2,893.0,0.25,115,120.0
4811,E5,893.0,1.0,115,120.0
4812,E5,893.052,1.0,115,120.0
4813,B3,893.575,333/1000,115,120.0
4814,A3,893.908,333/1000,87,120.0
4815,G#2,894.0,0.25,115,120.0
4816,D5,894.0,1.0,115,120.0
4817,D5,894.052,1.0,115,120.0
4818,G3,894.242,333/1000,87,120.0
4819,E3,894.575,729/1000,115,120.0
4820,G#2,895.0,0.25,115,120.0
4821,E5,895.0,1.0,115,120.0
4822,E5,895.052,237/250,115,120.0
4823,D3,895.59,97/200,115,120.0
4824,A3,895.59,97/200,115,120.0
4825,G#2,896.0,0.25,115,120.0
4826,D5,896.0,1.0,115,120.0
4827,E5,896.0,13/250,115,120.0
4828,D5,896.052,1.0,115,120.0
4829,B3,896.09,97/200,115,120.0
4830,E3,896.09,97/200,115,120.0
4831,B3,896.575,61/125,115,120.0
4832,E3,896.575,61/125,115,120.0
4833,G#2,897.0,0.25,115,120.0
4834,B4,897.0,1.0,115,120.0
4835,B4,897.052,1.0,115,120.0
4836,D3,897.704,0.25,115,120.0
4837,E3,897.954,0.25,77,120.0
4838,G#2,898.0,0.25,115,120.0
4839,A4,898.0,1.0,115,120.0
4840,A4,898.052,1.0,115,120.0
4841,D3,898.204,0.25,77,120.0
4842,E3,898.454,43/200,77,120.0
4843,E3,898.669,7/200,77,120.0
4844,D3,898.704,0.25,77,120.0
4845,E3,898.954,0.25,77,120.0
4846,G#2,899.0,0.25,115,120.0
4847,A4,899.0,1.0,115,120.0
4848,A4,899.052,237/250,115,120.0
4849,D3,899.204,0.25,77,120.0
4850,E3,899.454,0.25,77,120.0
4851,D3,899.704,0.25,77,120.0
4852,E3,899.954,0.25,77,120.0
4853,G#2,900.0,0.25,115,120.0
4854,E4,900.0,3729/1000,115,120.0
4855,A4,900.0,13/250,115,120.0
4856,E4,900.052,3729/1000,115,120.0
4857,D3,900.204,0.25,77,120.0
4858,E3,900.454,0.25,77,120.0
4859,D3,900.704,1.0,87,120.0
4860,G#2,901.0,0.25,115,120.0
4861,D3,901.719,97/200,115,120.0
4862,A3,901.719,97/200,115,120.0
4863,G#2,902.0,0.25,115,120.0
4864,E3,902.219,9/20,115,120.0
4865,B3,902.219,9/20,115,120.0
4866,E3,902.669,523/1000,115,120.0
4867,B3,902.669,523/1000,115,120.0
4868,G#2,903.0,0.25,115,120.0
4869,B-2,903.515,97/200,115,120.0
4870,G#2,904.0,0.25,115,120.0
4871,A5,904.0,1.0,127,120.0
4872,A5,904.052,1.0,127,120.0
4873,G5,905.0,1.0,127,120.0
4874,G#2,905.015,0.25,115,120.0
4875,G5,905.052,1.0,127,120.0
4876,E5,906.0,1.0,127,120.0
4877,D2,906.015,0.25,115,120.0
4878,C#3,906.015,0.25,115,120.0
4879,E5,906.052,1.0,127,120.0
4880,D2,907.015,97/200,115,120.0
4881,A3,907.015,0.25,115,120.0
4882,E2,907.015,0.25,115,120.0
4883,E2,907.515,97/200,115,120.0
4884,E2,907.515,0.25,115,120.0
4885,A3,907.515,0.25,115,120.0
4886,D3,907.575,0.25,115,120.0
4887,E3,907.825,0.25,77,120.0
4888,E2,908.0,229/500,115,120.0
4889,D3,908.075,0.25,77,120.0
4890,E3,908.325,0.25,77,120.0
4891,D2,908.494,0.25,115,120.0
4892,D3,908.575,0.25,77,120.0
4893,D2,908.75,0.25,115,120.0
4894,E3,908.825,0.25,77,120.0
4895,D2,909.0,0.25,115,120.0
4896,D3,909.075,0.25,77,120.0
4897,D2,909.25,0.25,115,120.0
4898,E3,909.325,0.25,77,120.0
4899,D2,909.515,0.25,115,120.0
4900,D3,909.575,0.25,77,120.0
4901,D2,909.75,0.25,115,120.0
4902,E3,909.825,0.25,77,120.0
4903,C2,910.0,0.25,115,120.0
4904,D3,910.075,0.25,77,120.0
4905,E3,910.325,0.25,77,120.0
4906,D2,910.5,0.25,115,120.0
4907,D3,910.575,1.0,87,120.0
4908,D2,910.75,0.25,115,120.0
4909,D2,911.0,0.25,115,120.0
4910,C2,911.25,0.25,115,120.0
4911,D2,911.515,0.25,115,120.0
4912,D3,911.59,97/200,115,120.0
4913,A3,911.59,97/200,115,120.0
4914,D2,912.015,0.25,115,120.0
4915,E3,912.09,97/200,115,120.0
4916,B3,912.09,97/200,115,120.0
4917,D2,912.5,0.25,115,120.0
4918,E3,912.575,61/125,115,120.0
4919,B3,912.575,61/125,115,120.0
4920,B2,913.0,0.25,115,120.0
4921,G2,913.0,1.0,115,120.0
4922,C3,913.25,0.25,115,120.0
4923,B2,913.5,0.25,115,120.0
4924,C3,913.75,0.25,115,120.0
4925,A2,914.0,0.25,115,120.0
4926,F#2,914.0,1.0,115,120.0
4927,A2,914.25,0.25,115,120.0
4928,A2,914.5,0.25,115,120.0
4929,A2,914.75,0.25,115,120.0
4930,F2,915.0,1.0,115,120.0
4931,C2,915.0,0.25,115,120.0
4932,A3,915.0,0.25,115,120.0
4933,E5,915.704,2.0,115,120.0
4934,B4,915.704,2.0,115,120.0
4935,G4,915.704,2.0,115,120.0
4936,C2,916.0,0.25,115,120.0
4937,F2,916.0,97/200,115,120.0
4938,C2,916.25,0.25,115,120.0
4939,F2,916.5,0.5,115,120.0
4940,C2,916.5,0.25,115,120.0
4941,B-2,916.5,0.25,115,120.0
4942,F2,917.0,297/200,115,120.0
4943,A3,917.0,0.25,115,120.0
4944,D2,917.0,0.25,115,120.0
4945,D3,917.719,97/200,115,120.0
4946,A3,917.719,97/200,115,120.0
4947,B-2,918.0,0.25,115,120.0
4948,C2,918.0,0.25,115,120.0
4949,E3,918.219,9/20,115,120.0
4950,B3,918.219,9/20,115,120.0
4951,C2,918.5,0.25,115,120.0
4952,F2,918.5,103/200,115,120.0
4953,E3,918.669,523/1000,115,120.0
4954,B3,918.669,523/1000,115,120.0
4955,D2,919.0,0.25,115,120.0
4956,E2,919.0,1.0,115,120.0
4957,G3,919.5,0.25,115,120.0
4958,C2,919.5,0.25,115,120.0
4959,E2,920.0,1.0,115,120.0
4960,G3,920.5,0.25,115,120.0
4961,C2,920.5,0.25,115,120.0
4962,E2,921.0,1.0,115,120.0
4963,C#3,921.0,0.25,115,120.0
4964,D2,921.0,0.25,115,120.0
4965,B-2,922.0,0.25,115,120.0
4966,D2,923.0,0.5,115,120.0
4967,A3,923.015,0.25,115,120.0
4968,C2,923.015,0.25,115,120.0
4969,E2,923.5,0.5,115,120.0
4970,E2,924.0,0.5,115,120.0
4971,C2,924.494,0.25,115,120.0
4972,D2,925.0,0.25,115,120.0
4973,D2,925.25,0.25,115,120.0
4974,D2,925.515,0.25,115,120.0
4975,E5,925.575,2.0,115,120.0
4976,B4,925.575,2.0,115,120.0
4977,G4,925.575,2.0,115,120.0
4978,D2,925.75,0.25,115,120.0
4979,C3,926.25,0.25,115,120.0
4980,C3,926.5,0.25,115,120.0
4981,C3,926.75,0.25,115,120.0
4982,C3,927.0,0.25,115,120.0
4983,B2,927.515,0.25,115,120.0
4984,D3,927.59,97/200,115,120.0
4985,A3,927.59,97/200,115,120.0
4986,B2,928.015,0.25,115,120.0
4987,E3,928.09,97/200,115,120.0
4988,B3,928.09,97/200,115,120.0
4989,B2,928.5,0.25,115,120.0
4990,E3,928.575,61/125,115,120.0
4991,B3,928.575,61/125,115,120.0
4992,B2,929.0,0.25,115,120.0
4993,G2,929.0,1.0,115,120.0
4994,B2,929.25,0.25,115,120.0
4995,B2,929.5,0.25,115,120.0
4996,A2,929.75,0.25,115,120.0
4997,A2,930.0,0.25,115,120.0
4998,F#2,930.0,1.0,115,120.0
4999,G2,930.25,0.25,115,120.0
5000,G2,930.5,0.25,115,120.0
5001,G2,930.75,0.25,115,120.0
5002,F2,931.0,1.0,115,120.0
5003,C2,931.0,0.25,115,120.0
5004,A3,931.0,0.25,115,120.0
5005,F2,932.0,97/200,115,120.0
5006,B-2,932.0,0.25,115,120.0
5007,C2,932.0,0.25,115,120.0
5008,C2,932.25,0.25,115,120.0
5009,C2,932.5,0.25,115,120.0
5010,F2,932.5,0.5,115,120.0
5011,F2,933.0,297/200,115,120.0
5012,B-2,933.0,0.25,115,120.0
5013,D2,933.0,0.25,115,120.0
5014,C2,933.5,0.25,115,120.0
5015,D3,933.719,97/200,115,120.0
5016,A3,933.719,97/200,115,120.0
5017,B-2,934.0,0.25,115,120.0
5018,C2,934.0,0.25,115,120.0
5019,E3,934.219,9/20,115,120.0
5020,B3,934.219,9/20,115,120.0
5021,F2,934.5,103/200,115,120.0
5022,E3,934.669,519/500,115,120.0
5023,B3,934.669,519/500,115,120.0
5024,E2,935.0,1.0,115,120.0
5025,C2,935.0,0.25,115,120.0
5026,A3,935.0,0.25,115,120.0
5027,E3,935.704,0.062,115,120.0
5028,E2,936.0,1.0,115,120.0
5029,C2,936.0,0.25,115,120.0
5030,B-2,936.0,0.25,115,120.0
5031,E3,936.204,0.062,115,120.0
5032,D2,936.515,0.25,115,120.0
5033,D2,936.765,0.25,115,120.0
5034,D2,937.0,0.25,115,120.0
5035,E2,937.0,0.25,115,120.0
5036,E3,937.204,0.062,115,120.0
5037,E2,937.25,0.25,115,120.0
5038,C3,937.265,0.25,115,120.0
5039,E2,937.5,0.25,115,120.0
5040,C3,937.515,0.25,115,120.0
5041,E2,937.75,0.25,115,120.0
5042,B2,937.765,0.25,115,120.0
5043,E2,938.0,0.25,115,120.0
5044,B2,938.015,0.25,115,120.0
5045,E3,938.204,0.062,115,120.0
5046,E2,938.25,0.25,115,120.0
5047,A2,938.265,0.25,115,120.0
5048,E2,938.5,0.25,115,120.0
5049,A2,938.515,0.25,115,120.0
5050,E3,938.704,0.062,115,120.0
5051,E2,938.75,0.25,115,120.0
5052,C2,939.0,0.25,115,120.0
5053,A3,939.0,0.25,115,120.0
5054,D2,939.015,97/200,115,120.0
5055,E3,939.204,0.062,115,120.0
5056,E2,939.515,97/200,115,120.0
5057,D4,939.704,729/1000,115,120.0
5058,G3,939.704,729/1000,115,120.0
5059,E2,940.0,229/500,115,120.0
5060,C2,940.5,0.25,115,120.0
5061,C#4,940.704,729/1000,115,120.0
5062,F#3,940.704,729/1000,115,120.0
5063,D2,941.0,0.25,115,120.0
5064,D2,941.5,0.25,115,120.0
5065,C4,941.704,193/200,115,120.0
5066,F3,941.704,193/200,115,120.0
5067,D2,942.0,0.25,115,120.0
5068,D2,942.5,0.25,115,120.0
5069,C4,942.669,607/200,115,120.0
5070,F3,942.669,607/200,115,120.0
5071,D2,943.0,0.25,115,120.0
5072,D2,943.25,0.25,115,120.0
5073,D2,943.485,0.25,115,120.0
5074,D3,943.59,97/200,115,120.0
5075,A3,943.59,97/200,115,120.0
5076,D2,943.985,3/200,115,120.0
5077,D2,944.0,47/200,115,120.0
5078,E3,944.09,97/200,115,120.0
5079,B3,944.09,97/200,115,120.0
5080,D2,944.235,0.25,115,120.0
5081,D2,944.485,0.25,115,120.0
5082,E3,944.575,501/500,115,120.0
5083,B3,944.575,501/500,115,120.0
5084,D2,944.735,0.25,115,120.0
5085,D2,945.0,0.25,115,120.0
5086,G2,945.0,1.0,115,120.0
5087,B2,945.5,0.25,115,120.0
5088,E3,945.575,0.062,115,120.0
5089,B3,945.704,193/200,115,120.0
5090,E3,945.704,193/200,115,120.0
5091,B2,945.75,0.25,115,120.0
5092,A2,946.0,0.25,115,120.0
5093,F#2,946.0,1.0,115,120.0
5094,E3,946.075,0.062,115,120.0
5095,A2,946.25,0.25,115,120.0
5096,G2,946.5,0.25,115,120.0
5097,G2,946.75,0.25,115,120.0
5098,F2,947.0,1.0,115,120.0
5099,C2,947.0,0.25,115,120.0
5100,C#3,947.0,0.25,115,120.0
5101,E3,947.075,0.062,115,120.0
5102,B3,947.704,207/200,115,120.0
5103,E3,947.704,207/200,115,120.0
5104,F2,948.0,97/200,115,120.0
5105,B-2,948.0,0.25,115,120.0
5106,C2,948.0,0.25,115,120.0
5107,E3,948.075,0.062,115,120.0
5108,C2,948.5,0.25,115,120.0
5109,F2,948.5,0.5,115,120.0
5110,E3,948.575,0.062,115,120.0
5111,G4,948.74,2.0,115,120.0
5112,F2,949.0,297/200,115,120.0
5113,D2,949.0,0.25,115,120.0
5114,C#3,949.0,0.25,115,120.0
5115,E3,949.075,0.062,115,120.0
5116,C2,949.5,0.25,115,120.0
5117,D4,949.575,729/1000,115,120.0
5118,G3,949.575,729/1000,115,120.0
5119,B-2,950.0,0.25,115,120.0
5120,C2,950.0,0.25,115,120.0
5121,F2,950.5,103/200,115,120.0
5122,C#4,950.575,729/1000,115,120.0
5123,F#3,950.575,729/1000,115,120.0
5124,A3,950.754,97/200,115,120.0
5125,D3,950.754,97/200,115,120.0
5126,E2,951.0,1.0,115,120.0
5127,C2,951.0,0.25,115,120.0
5128,A3,951.0,0.25,115,120.0
5129,E3,951.254,9/20,115,120.0
5130,B3,951.254,9/20,115,120.0
5131,C4,951.575,1.0,115,120.0
5132,F3,951.575,1.0,115,120.0
5133,E3,951.704,519/500,115,120.0
5134,B3,951.704,519/500,115,120.0
5135,E2,952.0,1.0,115,120.0
5136,C2,952.0,0.25,115,120.0
5137,B-2,952.0,0.25,115,120.0
5138,D2,952.515,0.25,115,120.0
5139,C4,952.575,3.0,115,120.0
5140,F3,952.575,3.0,115,120.0
5141,E3,952.74,0.062,115,120.0
5142,D2,952.765,0.25,115,120.0
5143,D2,953.0,0.25,115,120.0
5144,E2,953.0,1.0,115,120.0
5145,E3,953.24,0.062,115,120.0
5146,C3,953.265,0.25,115,120.0
5147,C3,953.515,0.25,115,120.0
5148,D3,953.765,0.25,115,120.0
5149,D3,954.015,0.25,115,120.0
5150,E3,954.24,0.062,115,120.0
5151,C3,954.265,0.25,115,120.0
5152,C3,954.515,0.25,115,120.0
5153,D2,955.0,0.5,115,120.0
5154,C2,955.0,0.25,115,120.0
5155,A3,955.0,0.25,115,120.0
5156,E3,955.24,0.062,115,120.0
5157,E2,955.5,0.5,115,120.0
5158,B3,955.575,1.0,115,120.0
5159,E3,955.575,1.0,115,120.0
5160,E3,955.74,0.062,115,120.0
5161,E2,956.0,0.5,115,120.0
5162,E3,956.24,0.062,115,120.0
5163,C2,956.5,0.25,115,120.0
5164,D4,956.74,729/1000,115,120.0
5165,G3,956.74,729/1000,115,120.0
5166,D2,957.0,0.25,115,120.0
5167,D2,957.25,0.25,115,120.0
5168,D2,957.5,0.25,115,120.0
5169,B3,957.575,1.0,115,120.0
5170,E3,957.575,1.0,115,120.0
5171,C#4,957.74,729/1000,115,120.0
5172,F#3,957.74,729/1000,115,120.0
5173,D2,957.75,0.25,115,120.0
5174,D2,958.0,0.25,115,120.0
5175,D2,958.5,0.25,115,120.0
5176,G4,958.575,2.0,115,120.0
5177,C4,958.74,193/200,115,120.0
5178,F3,958.74,193/200,115,120.0
5179,D2,959.0,0.25,115,120.0
5180,D2,959.485,0.25,115,120.0
5181,C4,959.704,607/200,115,120.0
5182,F3,959.704,607/200,115,120.0
5183,D2,959.985,3/200,115,120.0
5184,D2,960.0,47/200,115,120.0
5185,D2,960.235,0.25,115,120.0
5186,D2,960.485,0.25,115,120.0
5187,A3,960.59,97/200,115,120.0
5188,D3,960.59,97/200,115,120.0
5189,D2,960.735,0.25,115,120.0
5190,D2,961.0,0.25,115,120.0
5191,G2,961.0,1.0,115,120.0
5192,E3,961.09,97/200,115,120.0
5193,B3,961.09,97/200,115,120.0
5194,A2,961.5,0.25,115,120.0
5195,E3,961.575,501/500,115,120.0
5196,B3,961.575,501/500,115,120.0
5197,A2,962.0,0.25,115,120.0
5198,F#2,962.0,1.0,115,120.0
5199,G2,962.5,0.25,115,120.0
5200,E3,962.575,0.062,115,120.0
5201,B3,962.74,193/200,115,120.0
5202,E3,962.74,193/200,115,120.0
5203,F2,963.0,1.0,115,120.0
5204,C2,963.0,0.25,115,120.0
5205,C#3,963.0,0.25,115,120.0
5206,E3,963.075,0.062,115,120.0
5207,B-2,964.0,0.25,115,120.0
5208,F2,964.0,97/200,115,120.0
5209,E3,964.075,0.062,115,120.0
5210,F2,964.5,0.5,115,120.0
5211,B3,964.74,207/200,115,120.0
5212,E3,964.74,207/200,115,120.0
5213,F2,965.0,297/200,115,120.0
5214,B-2,965.0,0.25,115,120.0
5215,D2,965.0,0.25,115,120.0
5216,E3,965.075,0.062,115,120.0
5217,C2,965.5,0.25,115,120.0
5218,E3,965.575,0.062,115,120.0
5219,D4,965.775,0.25,115,120.0
5220,B-2,966.0,0.25,115,120.0
5221,C2,966.0,0.25,115,120.0
5222,E4,966.025,0.25,115,120.0
5223,E3,966.075,0.062,115,120.0
5224,D4,966.275,0.25,115,120.0
5225,F2,966.5,103/200,115,120.0
5226,E4,966.525,0.25,115,120.0
5227,D4,966.575,729/1000,115,120.0
5228,G3,966.575,729/1000,115,120.0
5229,D4,966.775,0.25,115,120.0
5230,E2,967.0,1.0,115,120.0
5231,C2,967.0,0.25,115,120.0
5232,A3,967.0,0.25,115,120.0
5233,E4,967.025,0.25,115,120.0
5234,D4,967.275,103/200,115,120.0
5235,C#4,967.575,729/1000,115,120.0
5236,F#3,967.575,729/1000,115,120.0
5237,A3,967.79,97/200,115,120.0
5238,D3,967.79,97/200,115,120.0
5239,B-2,968.0,0.25,115,120.0
5240,E2,968.0,3.0,115,120.0
5241,E3,968.29,9/20,115,120.0
5242,B3,968.29,9/20,115,120.0
5243,C4,968.575,1.0,115,120.0
5244,F3,968.575,1.0,115,120.0
5245,E3,968.74,519/500,115,120.0
5246,B3,968.74,519/500,115,120.0
5247,B-2,969.0,0.25,115,120.0
5248,C4,969.575,3.0,115,120.0
5249,F3,969.575,3.0,115,120.0
5250,E3,969.775,0.062,115,120.0
5251,B-2,970.0,0.25,115,120.0
5252,E3,970.275,0.062,115,120.0
5253,E2,971.0,1.0,115,120.0
5254,C2,971.0,0.25,115,120.0
5255,C#3,971.0,0.25,115,120.0
5256,E3,971.275,0.062,115,120.0
5257,B-2,972.0,0.125,115,120.0
5258,E2,972.0,4.0,115,120.0
5259,E3,972.275,0.062,115,120.0
5260,B3,972.575,1.0,115,120.0
5261,E3,972.575,1.0,115,120.0
5262,E3,972.775,0.062,115,120.0
5263,B-2,973.0,0.125,115,120.0
5264,E3,973.275,0.062,115,120.0
5265,D4,973.775,729/1000,115,120.0
5266,G3,973.775,729/1000,115,120.0
5267,B-2,974.0,0.125,115,120.0
5268,B3,974.575,1.0,115,120.0
5269,E3,974.575,1.0,115,120.0
5270,C#4,974.775,729/1000,115,120.0
5271,F#3,974.775,729/1000,115,120.0
5272,B-2,975.0,0.125,115,120.0
5273,D4,975.575,0.25,115,120.0
5274,C4,975.775,193/200,115,120.0
5275,F3,975.775,193/200,115,120.0
5276,E4,975.825,0.25,115,120.0
5277,B-2,976.0,0.125,115,120.0
5278,E2,976.0,3.0,115,120.0
5279,D4,976.075,0.25,115,120.0
5280,E4,976.325,0.25,115,120.0
5281,D4,976.575,0.25,115,120.0
5282,C4,976.74,607/200,115,120.0
5283,F3,976.74,607/200,115,120.0
5284,E4,976.825,0.25,115,120.0
5285,B-2,977.0,0.125,115,120.0
5286,D4,977.075,103/200,115,120.0
5287,A3,977.59,97/200,115,120.0
5288,D3,977.59,97/200,115,120.0
5289,B-2,978.0,0.125,115,120.0
5290,E3,978.09,97/200,115,120.0
5291,B3,978.09,97/200,115,120.0
5292,E3,978.575,501/500,115,120.0
5293,B3,978.575,501/500,115,120.0
5294,B-2,979.0,0.125,115,120.0
5295,E3,979.575,0.062,115,120.0
5296,B3,979.775,193/200,115,120.0
5297,E3,979.775,193/200,115,120.0
5298,B-2,980.0,0.125,115,120.0
5299,E3,980.075,0.062,115,120.0
5300,B-2,981.0,0.125,115,120.0
5301,E3,981.075,0.062,115,120.0
5302,B3,981.775,207/200,115,120.0
5303,E3,981.775,207/200,115,120.0
5304,B-2,982.0,0.125,115,120.0
5305,E3,982.075,0.062,115,120.0
5306,E3,982.575,0.062,115,120.0
5307,G4,982.81,2.0,115,120.0
5308,B-2,983.0,0.125,115,120.0
5309,E3,983.075,0.062,115,120.0
5310,D4,983.575,729/1000,115,120.0
5311,G3,983.575,729/1000,115,120.0
5312,B-2,984.0,0.125,115,120.0
5313,C#4,984.575,729/1000,115,120.0
5314,F#3,984.575,729/1000,115,120.0
5315,A3,984.825,97/200,115,120.0
5316,D3,984.825,97/200,115,120.0
5317,B-2,985.0,0.125,115,120.0
5318,E3,985.325,9/20,115,120.0
5319,B3,985.325,9/20,115,120.0
5320,C4,985.575,1.0,115,120.0
5321,F3,985.575,1.0,115,120.0
5322,E3,985.775,519/500,115,120.0
5323,B3,985.775,519/500,115,120.0
5324,B-2,986.0,0.125,115,120.0
5325,C4,986.575,3.0,115,120.0
5326,F3,986.575,3.0,115,120.0
5327,E3,986.81,0.062,115,120.0
5328,E2,987.0,1.0,115,120.0
5329,C#3,987.0,0.25,115,120.0
5330,D2,987.0,0.25,115,120.0
5331,E3,987.31,0.062,115,120.0
5332,E3,988.31,0.062,115,120.0
5333,B1,988.5,1.0,115,120.0
5334,D2,988.5,0.25,115,120.0
5335,A3,988.5,0.25,115,120.0
5336,E3,989.31,0.062,115,120.0
5337,B3,989.575,1.0,115,120.0
5338,E3,989.575,1.0,115,120.0
5339,E3,989.81,0.062,115,120.0
5340,D2,990.0,2.0,115,120.0
5341,C#3,990.0,0.25,115,120.0
5342,D2,990.0,0.25,115,120.0
5343,E3,990.31,0.062,115,120.0
5344,D4,990.81,729/1000,115,120.0
5345,G3,990.81,729/1000,115,120.0
5346,G2,991.485,0.25,87,120.0
5347,B3,991.575,1.0,115,120.0
5348,E3,991.575,1.0,115,120.0
5349,C#4,991.81,729/1000,115,120.0
5350,F#3,991.81,729/1000,115,120.0
5351,G2,991.985,3/200,87,120.0
5352,G2,992.0,47/200,87,120.0
5353,D2,992.0,3.0,115,120.0
5354,G2,992.5,0.25,87,120.0
5355,G4,992.575,2.0,115,120.0
5356,C4,992.81,193/200,115,120.0
5357,F3,992.81,193/200,115,120.0
5358,G2,992.985,0.25,87,120.0
5359,G2,993.5,0.25,87,120.0
5360,C4,993.775,607/200,115,120.0
5361,F3,993.775,607/200,115,120.0
5362,G2,993.985,0.25,87,120.0
5363,G2,994.485,0.25,87,120.0
5364,A3,994.59,97/200,115,120.0
5365,D3,994.59,97/200,115,120.0
5366,B1,995.0,0.25,87,120.0
5367,C#3,995.0,0.5,115,120.0
5368,E2,995.0,1.0,115,120.0
5369,E3,995.09,97/200,115,120.0
5370,B3,995.09,97/200,115,120.0
5371,E3,995.575,501/500,115,120.0
5372,B3,995.575,501/500,115,120.0
5373,B-2,996.0,0.125,115,120.0
5374,E2,996.0,4.0,115,120.0
5375,E3,996.575,0.062,115,120.0
5376,B3,996.81,193/200,115,120.0
5377,E3,996.81,193/200,115,120.0
5378,B-2,997.0,0.125,115,120.0
5379,E3,997.075,0.062,115,120.0
5380,B3,997.775,3169/1000,115,120.0
5381,E3,997.775,3033/1000,115,120.0
5382,B-2,998.0,0.125,115,120.0
5383,E3,998.075,0.062,115,120.0
5384,B-2,999.0,0.125,115,120.0
5385,E3,999.075,0.062,115,120.0
5386,E3,999.575,0.062,115,120.0
5387,B-2,1000.0,0.125,115,120.0
5388,E2,1000.0,3.0,115,120.0
5389,E3,1000.075,0.062,115,120.0
5390,D4,1000.575,729/1000,115,120.0
5391,G3,1000.575,729/1000,115,120.0
5392,E3,1000.81,193/200,115,120.0
5393,B-2,1001.0,0.125,115,120.0
5394,B3,1001.31,93/200,115,120.0
5395,C#4,1001.575,729/1000,115,120.0
5396,F#3,1001.575,729/1000,115,120.0
5397,E3,1001.775,4.0,115,120.0
5398,B3,1001.775,7/200,115,120.0
5399,B3,1001.81,0.5,115,120.0
5400,B-2,1002.0,0.125,115,120.0
5401,B3,1002.31,0.5,115,120.0
5402,C4,1002.575,1.0,115,120.0
5403,F3,1002.575,1.0,115,120.0
5404,D4,1002.81,297/200,115,120.0
5405,E2,1003.0,1.0,115,120.0
5406,C#3,1003.0,0.25,115,120.0
5407,D2,1003.0,0.25,115,120.0
5408,C4,1003.575,3.0,115,120.0
5409,F3,1003.575,3.0,115,120.0
5410,D2,1004.0,0.25,115,120.0
5411,E2,1004.0,97/200,115,120.0
5412,B3,1004.31,0.5,115,120.0
5413,G2,1004.5,1.0,115,120.0
5414,C#3,1004.5,0.25,115,120.0
5415,D2,1004.5,0.25,115,120.0
5416,B3,1004.81,0.5,115,120.0
5417,B3,1005.31,93/200,115,120.0
5418,D2,1005.5,0.25,115,120.0
5419,G2,1005.5,0.5,115,120.0
5420,E3,1005.775,607/200,115,120.0
5421,B3,1005.775,7/200,115,120.0
5422,D4,1005.825,1.0,115,120.0
5423,E2,1006.0,2.0,115,120.0
5424,C#3,1006.0,0.25,115,120.0
5425,D2,1006.0,0.25,115,120.0
5426,B3,1006.575,1.0,115,120.0
5427,E3,1006.575,1.0,115,120.0
5428,B3,1006.825,1.0,115,120.0
5429,G2,1007.485,0.25,87,120.0
5430,B3,1007.575,3133/1000,115,120.0
5431,E3,1007.575,1499/500,115,120.0
5432,D4,1007.825,297/200,115,120.0
5433,G2,1007.985,3/200,87,120.0
5434,G2,1008.0,47/200,87,120.0
5435,E2,1008.0,3.0,115,120.0
5436,G2,1008.5,0.25,87,120.0
5437,E3,1008.81,193/200,115,120.0
5438,G2,1008.985,0.25,87,120.0
5439,B3,1009.31,93/200,115,120.0
5440,G2,1009.5,0.25,87,120.0
5441,B3,1009.775,7/200,115,120.0
5442,E3,1009.775,4.0,115,120.0
5443,B3,1009.81,0.5,115,120.0
5444,G2,1009.985,0.25,87,120.0
5445,B3,1010.31,0.5,115,120.0
5446,G2,1010.485,0.25,87,120.0
5447,E3,1010.575,1.0,115,120.0
5448,D4,1010.81,297/200,115,120.0
5449,E2,1011.0,1.0,115,120.0
5450,C#3,1011.0,0.25,115,120.0
5451,C2,1011.0,0.25,115,120.0
5452,B3,1011.075,0.5,115,120.0
5453,B3,1011.575,0.5,115,120.0
5454,E3,1011.575,4.0,115,120.0
5455,B-2,1012.0,0.125,115,120.0
5456,E2,1012.0,4.0,115,120.0
5457,B3,1012.075,0.5,115,120.0
5458,B3,1012.31,0.5,115,120.0
5459,D4,1012.575,297/200,115,120.0
5460,B3,1012.81,0.5,115,120.0
5461,B-2,1013.0,0.125,115,120.0
5462,B3,1013.31,93/200,115,120.0
5463,E3,1013.775,607/200,115,120.0
5464,B3,1013.775,7/200,115,120.0
5465,D4,1013.825,1.0,115,120.0
5466,B-2,1014.0,0.125,115,120.0
5467,B3,1014.075,0.5,115,120.0
5468,B3,1014.575,0.5,115,120.0
5469,B3,1014.825,1.0,115,120.0
5470,B-2,1015.0,0.125,115,120.0
5471,B3,1015.075,0.5,115,120.0
5472,E3,1015.575,3.0,115,120.0
5473,D4,1015.59,1.0,115,120.0
5474,D4,1015.825,1.0,115,120.0
5475,B-2,1016.0,0.125,115,120.0
5476,E2,1016.0,3.0,115,120.0
5477,B3,1016.59,1.0,115,120.0
5478,E3,1016.81,193/200,127,120.0
5479,B3,1016.81,193/200,127,120.0
5480,E4,1016.81,193/200,127,120.0
5481,B-2,1017.0,0.125,115,120.0
5482,D4,1017.59,297/200,115,120.0
5483,E3,1017.775,7/200,127,120.0
5484,B3,1017.775,7/200,127,120.0
5485,E4,1017.775,7/200,127,120.0
5486,B-2,1018.0,0.125,115,120.0
5487,F#3,1018.296,1.0,127,120.0
5488,B2,1018.296,1.0,127,120.0
5489,B3,1018.296,1.0,127,120.0
5490,E3,1018.575,1.0,115,120.0
5491,E2,1019.0,1.0,115,120.0
5492,C#3,1019.0,0.25,115,120.0
5493,D2,1019.0,0.25,115,120.0
5494,B3,1019.075,0.5,115,120.0
5495,B3,1019.575,0.5,115,120.0
5496,E3,1019.575,4.0,115,120.0
5497,D4,1019.81,393/200,127,120.0
5498,D3,1019.81,393/200,127,120.0
5499,A3,1019.81,393/200,127,120.0
5500,B3,1020.075,0.5,115,120.0
5501,B1,1020.5,1.0,115,120.0
5502,C#3,1020.5,0.25,115,120.0
5503,D2,1020.5,0.25,115,120.0
5504,D4,1020.575,297/200,115,120.0
5505,D4,1021.775,607/200,127,120.0
5506,D3,1021.775,607/200,127,120.0
5507,A3,1021.775,607/200,127,120.0
5508,D2,1022.0,297/200,115,120.0
5509,C#3,1022.0,0.25,115,120.0
5510,D2,1022.0,0.25,115,120.0
5511,B3,1022.075,0.5,115,120.0
5512,B3,1022.575,0.5,115,120.0
5513,B3,1023.075,0.5,115,120.0
5514,D2,1023.5,0.25,93,120.0
5515,D2,1023.5,0.5,115,120.0
5516,E3,1023.575,3.0,115,120.0
5517,D4,1023.59,1.0,115,120.0
5518,D2,1024.0,0.25,100,120.0
5519,D2,1024.0,0.5,115,120.0
5520,D2,1024.5,0.25,106,120.0
5521,D2,1024.5,0.5,115,120.0
5522,B3,1024.59,1.0,115,120.0
5523,E3,1024.81,193/200,115,120.0
5524,D2,1025.0,0.25,113,120.0
5525,D2,1025.0,0.5,115,120.0
5526,B3,1025.31,93/200,115,120.0
5527,D2,1025.5,0.25,120,120.0
5528,D2,1025.5,0.5,115,120.0
5529,D4,1025.59,1.0,115,120.0
5530,E3,1025.775,4.0,115,120.0
5531,B3,1025.775,7/200,115,120.0
5532,B3,1025.81,0.5,115,120.0
5533,D2,1026.0,0.25,126,120.0
5534,D2,1026.0,0.5,115,120.0
5535,B3,1026.31,0.5,115,120.0
5536,D2,1026.5,0.25,127,120.0
5537,D2,1026.5,0.5,115,120.0
5538,E3,1026.575,1.0,127,120.0
5539,B3,1026.575,1.0,127,120.0
5540,E4,1026.575,1.0,127,120.0
5541,D4,1026.81,297/200,115,120.0
5542,E2,1027.0,1.0,115,120.0
5543,C2,1027.0,0.25,127,120.0
5544,C#3,1027.0,0.25,127,120.0
5545,B-2,1028.0,0.125,115,120.0
5546,E2,1028.0,4.0,115,120.0
5547,F#3,1028.06,1.0,127,120.0
5548,B2,1028.06,1.0,127,120.0
5549,B3,1028.06,1.0,127,120.0
5550,B3,1028.31,0.5,115,120.0
5551,B3,1028.81,0.5,115,120.0
5552,B-2,1029.0,0.125,115,120.0
5553,B3,1029.31,93/200,115,120.0
5554,D4,1029.575,2.0,127,120.0
5555,D3,1029.575,2.0,127,120.0
5556,A3,1029.575,2.0,127,120.0
5557,E3,1029.775,607/200,115,120.0
5558,B3,1029.775,7/200,115,120.0
5559,D4,1029.825,1.0,115,120.0
5560,B-2,1030.0,0.125,115,120.0
5561,B3,1030.825,1.0,115,120.0
5562,B-2,1031.0,0.125,115,120.0
5563,D4,1031.575,3.0,127,120.0
5564,D3,1031.575,3.0,127,120.0
5565,A3,1031.575,3.0,127,120.0
5566,D4,1031.825,1.0,115,120.0
5567,B-2,1032.0,0.125,115,120.0
5568,E2,1032.0,3.0,115,120.0
5569,E4,1032.81,193/200,127,120.0
5570,B3,1032.81,193/200,127,120.0
5571,E3,1032.81,193/200,127,120.0
5572,B-2,1033.0,0.125,115,120.0
5573,E4,1033.775,7/200,127,120.0
5574,B3,1033.775,7/200,127,120.0
5575,E3,1033.775,7/200,127,120.0
5576,B-2,1034.0,0.125,115,120.0
5577,G3,1034.31,1.0,127,120.0
5578,D4,1034.31,1.0,127,120.0
5579,G4,1034.31,1.0,127,120.0
5580,E3,1034.575,1.0,115,120.0
5581,E2,1035.0,1.0,115,120.0
5582,C#3,1035.0,0.25,115,120.0
5583,D2,1035.0,0.25,115,120.0
5584,B3,1035.075,0.5,115,120.0
5585,B3,1035.575,0.5,115,120.0
5586,E3,1035.575,4.0,115,120.0
5587,E4,1035.81,393/200,127,120.0
5588,E3,1035.81,393/200,127,120.0
5589,B3,1035.81,393/200,127,120.0
5590,B3,1036.075,0.5,115,120.0
5591,G2,1036.5,1.0,115,120.0
5592,C#3,1036.5,0.25,115,120.0
5593,D2,1036.5,0.25,115,120.0
5594,D4,1036.575,297/200,115,120.0
5595,E4,1037.775,607/200,127,120.0
5596,E3,1037.775,607/200,127,120.0
5597,B3,1037.775,607/200,127,120.0
5598,E2,1038.0,2.0,115,120.0
5599,C#3,1038.0,0.25,115,120.0
5600,D2,1038.0,0.25,115,120.0
5601,B3,1038.075,0.5,115,120.0
5602,B3,1038.575,0.5,115,120.0
5603,B3,1039.075,0.5,115,120.0
5604,D2,1039.485,0.25,115,120.0
5605,E3,1039.575,3.0,115,120.0
5606,D4,1039.59,1.0,115,120.0
5607,D2,1039.985,3/200,115,120.0
5608,D2,1040.0,47/200,115,120.0
5609,E2,1040.0,3.0,115,120.0
5610,B3,1040.59,1.0,115,120.0
5611,E3,1040.81,193/200,115,120.0
5612,D2,1040.985,0.25,115,120.0
5613,B3,1041.31,93/200,115,120.0
5614,D4,1041.59,1.0,115,120.0
5615,E3,1041.775,4.0,115,120.0
5616,B3,1041.775,7/200,115,120.0
5617,B3,1041.81,0.5,115,120.0
5618,D2,1041.985,0.25,115,120.0
5619,B3,1042.31,0.5,115,120.0
5620,D2,1042.485,0.25,115,120.0
5621,E4,1042.575,1.0,127,120.0
5622,B3,1042.575,1.0,127,120.0
5623,E3,1042.575,1.0,127,120.0
5624,D4,1042.81,297/200,115,120.0
5625,E2,1043.0,1.0,115,120.0
5626,C#3,1043.0,0.25,115,120.0
5627,C2,1043.0,0.25,115,120.0
5628,B-2,1044.0,0.25,115,120.0
5629,E2,1044.0,1.0,115,120.0
5630,G3,1044.075,1.0,127,120.0
5631,D4,1044.075,1.0,127,120.0
5632,G4,1044.075,1.0,127,120.0
5633,B3,1044.31,0.5,115,120.0
5634,B3,1044.81,0.5,115,120.0
5635,D3,1045.0,297/200,115,120.0
5636,B-2,1045.0,0.25,115,120.0
5637,D2,1045.0,0.25,115,120.0
5638,B3,1045.31,93/200,115,120.0
5639,E4,1045.575,2.0,127,120.0
5640,E3,1045.575,2.0,127,120.0
5641,B3,1045.575,2.0,127,120.0
5642,E3,1045.775,607/200,115,120.0
5643,B3,1045.775,7/200,115,120.0
5644,D4,1045.825,1.0,115,120.0
5645,B-2,1046.0,0.25,115,120.0
5646,E2,1046.5,0.5,115,120.0
5647,B3,1046.825,1.0,115,120.0
5648,E2,1047.0,1.0,115,120.0
5649,B-2,1047.0,0.25,115,120.0
5650,C2,1047.0,0.25,115,120.0
5651,D2,1047.5,0.25,115,120.0
5652,E4,1047.575,3.0,127,120.0
5653,E3,1047.575,3.0,127,120.0
5654,B3,1047.575,3.0,127,120.0
5655,D4,1047.825,1.0,115,120.0
5656,B-2,1048.0,0.25,115,120.0
5657,D3,1048.0,1.0,115,120.0
5658,C2,1048.5,0.25,115,120.0
5659,E3,1048.81,193/200,127,120.0
5660,B3,1048.81,193/200,127,120.0
5661,E4,1048.81,193/200,127,120.0
5662,E2,1049.0,1.0,115,120.0
5663,D2,1049.0,0.25,115,120.0
5664,B-2,1049.0,0.25,115,120.0
5665,E3,1049.775,7/200,127,120.0
5666,B3,1049.775,7/200,127,120.0
5667,E4,1049.775,7/200,127,120.0
5668,D3,1050.0,1.0,115,120.0
5669,B-2,1050.0,0.25,115,120.0
5670,C2,1050.0,0.25,115,120.0
5671,F#3,1050.296,1.0,127,120.0
5672,B2,1050.296,1.0,127,120.0
5673,B3,1050.296,1.0,127,120.0
5674,E3,1050.575,1.0,115,120.0
5675,E2,1051.0,1.0,115,120.0
5676,C2,1051.0,0.25,115,120.0
5677,B-2,1051.0,0.25,115,120.0
5678,B3,1051.075,0.5,115,120.0
5679,B3,1051.575,0.5,115,120.0
5680,E3,1051.575,4.0,115,120.0
5681,D3,1051.81,297/200,127,120.0
5682,A3,1051.81,297/200,127,120.0
5683,D4,1051.81,297/200,127,120.0
5684,B-2,1052.0,0.25,115,120.0
5685,E2,1052.0,1.0,115,120.0
5686,B3,1052.075,0.5,115,120.0
5687,D4,1052.575,297/200,115,120.0
5688,D3,1053.0,297/200,115,120.0
5689,B-2,1053.0,0.25,115,120.0
5690,D2,1053.0,0.25,115,120.0
5691,D3,1053.31,0.25,127,120.0
5692,A3,1053.31,0.25,127,120.0
5693,D3,1053.81,0.25,127,120.0
5694,A3,1053.81,0.25,127,120.0
5695,B-2,1054.0,0.25,115,120.0
5696,B3,1054.075,0.5,115,120.0
5697,D3,1054.31,0.25,127,120.0
5698,A3,1054.31,0.25,127,120.0
5699,E2,1054.5,0.5,115,120.0
5700,B3,1054.575,0.5,115,120.0
5701,D3,1054.81,0.25,127,120.0
5702,A3,1054.81,0.25,127,120.0
5703,E2,1055.0,1.0,115,120.0
5704,B-2,1055.0,0.25,115,120.0
5705,C2,1055.0,0.25,115,120.0
5706,B3,1055.075,0.5,115,120.0
5707,D3,1055.31,0.25,127,120.0
5708,A3,1055.31,0.25,127,120.0
5709,D2,1055.5,0.25,115,120.0
5710,E3,1055.575,3.0,115,120.0
5711,D4,1055.59,1.0,115,120.0
5712,D3,1055.81,0.25,127,120.0
5713,A3,1055.81,0.25,127,120.0
5714,B-2,1056.0,0.25,115,120.0
5715,D3,1056.0,1.0,115,120.0
5716,D3,1056.31,0.25,127,120.0
5717,A3,1056.31,0.25,127,120.0
5718,C2,1056.5,0.25,115,120.0
5719,B3,1056.59,1.0,115,120.0
5720,E3,1056.81,193/200,115,120.0
5721,E2,1057.0,1.0,115,120.0
5722,D2,1057.0,0.25,115,120.0
5723,B-2,1057.0,0.25,115,120.0
5724,B3,1057.31,93/200,115,120.0
5725,D4,1057.59,1.0,115,120.0
5726,E3,1057.775,4.0,115,120.0
5727,B3,1057.775,7/200,115,120.0
5728,B3,1057.81,0.5,115,120.0
5729,D3,1058.0,1.0,115,120.0
5730,B-2,1058.0,0.25,115,120.0
5731,C2,1058.0,0.25,115,120.0
5732,B3,1058.31,0.5,115,120.0
5733,E3,1058.575,1.0,127,120.0
5734,B3,1058.575,1.0,127,120.0
5735,E4,1058.575,1.0,127,120.0
5736,D4,1058.81,297/200,115,120.0
5737,E2,1059.0,1.0,115,120.0
5738,C2,1059.0,0.25,115,120.0
5739,B-2,1059.0,0.25,115,120.0
5740,B-2,1060.0,0.25,115,120.0
5741,E2,1060.0,1.0,115,120.0
5742,F#3,1060.06,1.0,127,120.0
5743,B2,1060.06,1.0,127,120.0
5744,B3,1060.06,1.0,127,120.0
5745,B3,1060.31,0.5,115,120.0
5746,B3,1060.81,0.5,115,120.0
5747,D3,1061.0,297/200,115,120.0
5748,B-2,1061.0,0.25,115,120.0
5749,D2,1061.0,0.25,115,120.0
5750,B3,1061.31,93/200,115,120.0
5751,D3,1061.575,297/200,127,120.0
5752,A3,1061.575,297/200,127,120.0
5753,D4,1061.575,297/200,127,120.0
5754,E3,1061.775,607/200,115,120.0
5755,B3,1061.775,7/200,115,120.0
5756,D4,1061.825,1.0,115,120.0
5757,B-2,1062.0,0.25,115,120.0
5758,E2,1062.5,0.5,115,120.0
5759,B3,1062.825,1.0,115,120.0
5760,E2,1063.0,1.0,115,120.0
5761,B-2,1063.0,0.25,115,120.0
5762,C2,1063.0,0.25,115,120.0
5763,D3,1063.075,0.25,127,120.0
5764,A3,1063.075,0.25,127,120.0
5765,D2,1063.5,0.25,115,120.0
5766,D3,1063.575,0.25,127,120.0
5767,A3,1063.575,0.25,127,120.0
5768,D4,1063.825,1.0,115,120.0
5769,B-2,1064.0,0.25,115,120.0
5770,D3,1064.0,1.0,115,120.0
5771,D3,1064.075,0.25,127,120.0
5772,A3,1064.075,0.25,127,120.0
5773,C2,1064.5,0.25,115,120.0
5774,D3,1064.575,0.25,127,120.0
5775,A3,1064.575,0.25,127,120.0
5776,E3,1064.81,193/200,127,120.0
5777,B3,1064.81,193/200,127,120.0
5778,E4,1064.81,193/200,127,120.0
5779,E2,1065.0,1.0,115,120.0
5780,D2,1065.0,0.25,115,120.0
5781,B-2,1065.0,0.25,115,120.0
5782,D3,1065.075,0.25,127,120.0
5783,A3,1065.075,0.25,127,120.0
5784,D3,1065.575,0.25,127,120.0
5785,A3,1065.575,0.25,127,120.0
5786,E3,1065.775,7/200,127,120.0
5787,B3,1065.775,7/200,127,120.0
5788,E4,1065.775,7/200,127,120.0
5789,D3,1066.0,1.0,115,120.0
5790,B-2,1066.0,0.25,115,120.0
5791,C2,1066.0,0.25,115,120.0
5792,D3,1066.075,0.25,127,120.0
5793,A3,1066.075,0.25,127,120.0
5794,G3,1066.31,1.0,127,120.0
5795,D4,1066.31,1.0,127,120.0
5796,G4,1066.31,1.0,127,120.0
5797,E3,1066.575,1.0,115,120.0
5798,E2,1067.0,1.0,115,120.0
5799,C2,1067.0,0.25,115,120.0
5800,B-2,1067.0,0.25,115,120.0
5801,B3,1067.075,0.5,115,120.0
5802,B3,1067.575,0.5,115,120.0
5803,E3,1067.575,4.0,115,120.0
5804,E4,1067.81,393/200,127,120.0
5805,E3,1067.81,393/200,127,120.0
5806,B3,1067.81,393/200,127,120.0
5807,B-2,1068.0,0.25,115,120.0
5808,E2,1068.0,1.0,115,120.0
5809,B3,1068.075,0.5,115,120.0
5810,D4,1068.575,297/200,115,120.0
5811,D3,1069.0,297/200,115,120.0
5812,B-2,1069.0,0.25,115,120.0
5813,D2,1069.0,0.25,115,120.0
5814,E4,1069.775,607/200,127,120.0
5815,E3,1069.775,607/200,127,120.0
5816,B3,1069.775,607/200,127,120.0
5817,B-2,1070.0,0.25,115,120.0
5818,B3,1070.075,0.5,115,120.0
5819,E2,1070.5,0.5,115,120.0
5820,B3,1070.575,0.5,115,120.0
5821,E2,1071.0,1.0,115,120.0
5822,B-2,1071.0,0.25,115,120.0
5823,C2,1071.0,0.25,115,120.0
5824,B3,1071.075,0.5,115,120.0
5825,D2,1071.5,0.25,115,120.0
5826,E3,1071.575,3.0,115,120.0
5827,D4,1071.59,1.0,115,120.0
5828,B-2,1072.0,0.25,115,120.0
5829,D3,1072.0,1.0,115,120.0
5830,C2,1072.5,0.25,115,120.0
5831,B3,1072.59,1.0,115,120.0
5832,E3,1072.81,193/200,115,120.0
5833,E2,1073.0,1.0,115,120.0
5834,D2,1073.0,0.25,115,120.0
5835,B-2,1073.0,0.25,115,120.0
5836,B3,1073.31,93/200,115,120.0
5837,D4,1073.59,1.0,115,120.0
5838,E3,1073.775,4.0,115,120.0
5839,B3,1073.775,7/200,115,120.0
5840,B3,1073.81,0.5,115,120.0
5841,D3,1074.0,1.0,115,120.0
5842,B-2,1074.0,0.25,115,120.0
5843,C2,1074.0,0.25,115,120.0
5844,B3,1074.31,0.5,115,120.0
5845,E3,1074.575,1.0,127,120.0
5846,B3,1074.575,1.0,127,120.0
5847,E4,1074.575,1.0,127,120.0
5848,D4,1074.81,297/200,115,120.0
5849,D1,1075.0,1.0,115,120.0
5850,C2,1075.0,0.25,115,120.0
5851,C#3,1075.0,0.25,115,120.0
5852,A1,1075.5,0.5,115,120.0
5853,B-2,1076.0,0.25,115,120.0
5854,A1,1076.0,0.5,115,120.0
5855,D1,1076.0,4.0,115,120.0
5856,G3,1076.075,1.0,127,120.0
5857,D4,1076.075,1.0,127,120.0
5858,G4,1076.075,1.0,127,120.0
5859,B3,1076.31,0.5,115,120.0
5860,A1,1076.5,0.5,115,120.0
5861,B3,1076.81,0.5,115,120.0
5862,C2,1077.0,297/200,115,120.0
5863,B-2,1077.0,0.25,115,120.0
5864,D2,1077.0,0.25,115,120.0
5865,B3,1077.31,93/200,115,120.0
5866,E4,1077.575,2.0,127,120.0
5867,E3,1077.575,2.0,127,120.0
5868,B3,1077.575,2.0,127,120.0
5869,E3,1077.775,607/200,115,120.0
5870,B3,1077.775,7/200,115,120.0
5871,D4,1077.825,1.0,115,120.0
5872,B-2,1078.0,0.25,115,120.0
5873,F2,1078.5,0.5,115,120.0
5874,B3,1078.825,1.0,115,120.0
5875,F2,1079.0,0.5,115,120.0
5876,B-2,1079.0,0.25,115,120.0
5877,C2,1079.0,0.25,115,120.0
5878,D2,1079.5,0.25,115,120.0
5879,F2,1079.5,0.5,115,120.0
5880,E4,1079.575,3.0,127,120.0
5881,E3,1079.575,3.0,127,120.0
5882,B3,1079.575,3.0,127,120.0
5883,D4,1079.825,297/200,115,120.0
5884,B-2,1080.0,0.25,115,120.0
5885,D1,1080.0,3.0,115,120.0
5886,G2,1080.015,1.0,115,120.0
5887,C2,1080.5,0.25,115,120.0
5888,E3,1080.81,193/200,115,120.0
5889,D2,1081.0,0.25,115,120.0
5890,B-2,1081.0,0.25,115,120.0
5891,A2,1081.015,1.0,115,120.0
5892,B3,1081.31,93/200,115,120.0
5893,B3,1081.775,7/200,115,120.0
5894,E3,1081.775,4.0,115,120.0
5895,B3,1081.81,0.5,115,120.0
5896,B-2,1082.0,0.25,115,120.0
5897,C2,1082.0,0.25,115,120.0
5898,C3,1082.015,297/200,115,120.0
5899,B3,1082.31,0.5,115,120.0
5900,E3,1082.575,1.0,115,120.0
5901,D4,1082.81,297/200,115,120.0
5902,D1,1083.0,1.0,115,120.0
5903,C2,1083.0,0.25,115,120.0
5904,B-2,1083.0,0.25,115,120.0
5905,B3,1083.075,0.5,115,120.0
5906,C3,1083.5,0.5,115,120.0
5907,B3,1083.575,0.5,115,120.0
5908,E3,1083.575,4.0,115,120.0
5909,B-2,1084.0,0.25,115,120.0
5910,C3,1084.0,0.5,115,120.0
5911,D1,1084.0,4.0,115,120.0
5912,B3,1084.075,0.5,115,120.0
5913,B3,1084.31,0.5,115,120.0
5914,C3,1084.5,0.5,115,120.0
5915,D4,1084.575,297/200,115,120.0
5916,B3,1084.81,0.5,115,120.0
5917,D3,1085.0,297/200,115,120.0
5918,B-2,1085.0,0.25,115,120.0
5919,D2,1085.0,0.25,115,120.0
5920,B3,1085.31,93/200,115,120.0
5921,E3,1085.775,607/200,115,120.0
5922,B3,1085.775,7/200,115,120.0
5923,D4,1085.825,1.0,115,120.0
5924,B-2,1086.0,0.25,115,120.0
5925,B3,1086.075,0.5,115,120.0
5926,F3,1086.5,0.5,115,120.0
5927,B3,1086.575,0.5,115,120.0
5928,B3,1086.825,1.0,115,120.0
5929,F3,1087.0,0.5,115,120.0
5930,B-2,1087.0,0.25,115,120.0
5931,C2,1087.0,0.25,115,120.0
5932,B3,1087.075,0.5,115,120.0
5933,D2,1087.5,0.25,115,120.0
5934,F3,1087.5,0.5,115,120.0
5935,E3,1087.575,3.0,115,120.0
5936,D4,1087.59,1.0,115,120.0
5937,D4,1087.825,297/200,115,120.0
5938,B-2,1088.0,0.25,115,120.0
5939,D1,1088.0,3.0,115,120.0
5940,G3,1088.015,1.0,115,120.0
5941,C2,1088.5,0.25,115,120.0
5942,B3,1088.59,1.0,115,120.0
5943,E3,1088.81,193/200,115,120.0
5944,D2,1089.0,0.25,115,120.0
5945,B-2,1089.0,0.25,115,120.0
5946,A3,1089.015,1.0,115,120.0
5947,B3,1089.31,93/200,115,120.0
5948,D4,1089.59,297/200,115,120.0
5949,B3,1089.775,7/200,115,120.0
5950,E3,1089.775,4.0,115,120.0
5951,B3,1089.81,0.5,115,120.0
5952,B-2,1090.0,0.25,115,120.0
5953,C2,1090.0,0.25,115,120.0
5954,C4,1090.015,297/200,115,120.0
5955,B3,1090.31,0.5,115,120.0
5956,E3,1090.575,1.0,115,120.0
5957,D4,1090.81,297/200,115,120.0
5958,C2,1091.0,1.0,115,120.0
5959,C2,1091.0,0.25,115,120.0
5960,B-2,1091.0,0.25,115,120.0
5961,B3,1091.075,0.5,115,120.0
5962,B3,1091.575,0.5,115,120.0
5963,E3,1091.575,4.0,115,120.0
5964,B-2,1092.0,0.25,115,120.0
5965,C2,1092.0,1.0,115,120.0
5966,B3,1092.075,0.5,115,120.0
5967,B3,1092.31,0.5,115,120.0
5968,D4,1092.575,297/200,115,120.0
5969,B3,1092.81,0.5,115,120.0
5970,B-2,1093.0,297/200,115,120.0
5971,B-2,1093.0,0.25,115,120.0
5972,D2,1093.0,0.25,115,120.0
5973,B3,1093.31,93/200,115,120.0
5974,E3,1093.775,607/200,115,120.0
5975,B3,1093.775,7/200,115,120.0
5976,D4,1093.825,1.0,115,120.0
5977,B-2,1094.0,0.25,115,120.0
5978,B3,1094.075,0.5,115,120.0
5979,C2,1094.5,0.5,115,120.0
5980,B3,1094.575,0.5,115,120.0
5981,B3,1094.825,1.0,115,120.0
5982,C2,1095.0,1.0,115,120.0
5983,B-2,1095.0,0.25,115,120.0
5984,C2,1095.0,0.25,115,120.0
5985,B3,1095.075,0.5,115,120.0
5986,D2,1095.5,0.25,115,120.0
5987,E3,1095.575,3.0,115,120.0
5988,D4,1095.59,1.0,115,120.0
5989,D4,1095.825,297/200,115,120.0
5990,B-2,1096.0,0.25,115,120.0
5991,B-2,1096.0,1.0,115,120.0
5992,C2,1096.5,0.25,115,120.0
5993,B3,1096.59,1.0,115,120.0
5994,E3,1096.81,193/200,115,120.0
5995,C2,1097.0,1.0,115,120.0
5996,D2,1097.0,0.25,115,120.0
5997,B-2,1097.0,0.25,115,120.0
5998,B3,1097.31,93/200,115,120.0
5999,D4,1097.59,297/200,115,120.0
6000,B3,1097.775,7/200,115,120.0
6001,E3,1097.775,4.0,115,120.0
6002,B3,1097.81,0.5,115,120.0
6003,B-2,1098.0,1.0,115,120.0
6004,B-2,1098.0,0.25,115,120.0
6005,C2,1098.0,0.25,115,120.0
6006,B3,1098.31,0.5,115,120.0
6007,E3,1098.575,1.0,115,120.0
6008,D4,1098.81,297/200,115,120.0
6009,C2,1099.0,1.0,115,120.0
6010,C2,1099.0,0.25,115,120.0
6011,B-2,1099.0,0.25,115,120.0
6012,B3,1099.075,0.5,115,120.0
6013,B3,1099.575,0.5,115,120.0
6014,E3,1099.575,4.0,115,120.0
6015,B-2,1100.0,0.25,115,120.0
6016,C2,1100.0,1.0,115,120.0
6017,B3,1100.075,0.5,115,120.0
6018,B3,1100.31,0.5,115,120.0
6019,D4,1100.575,297/200,115,120.0
6020,B3,1100.81,0.5,115,120.0
6021,B-2,1101.0,297/200,115,120.0
6022,B-2,1101.0,0.25,115,120.0
6023,D2,1101.0,0.25,115,120.0
6024,B3,1101.31,93/200,115,120.0
6025,E3,1101.775,607/200,115,120.0
6026,B3,1101.775,7/200,115,120.0
6027,D4,1101.825,1.0,115,120.0
6028,B-2,1102.0,0.25,115,120.0
6029,B3,1102.075,0.5,115,120.0
6030,C2,1102.5,0.5,115,120.0
6031,B3,1102.575,0.5,115,120.0
6032,B3,1102.825,1.0,115,120.0
6033,C2,1103.0,1.0,115,120.0
6034,B-2,1103.0,0.25,115,120.0
6035,C2,1103.0,0.25,115,120.0
6036,B3,1103.075,0.5,115,120.0
6037,D2,1103.5,0.25,115,120.0
6038,E3,1103.575,3.0,115,120.0
6039,D4,1103.59,1.0,115,120.0
6040,D4,1103.825,297/200,115,120.0
6041,B-2,1104.0,0.25,115,120.0
6042,B-2,1104.0,1.0,115,120.0
6043,C2,1104.5,0.25,115,120.0
6044,B3,1104.59,1.0,115,120.0
6045,D3,1104.81,193/200,115,120.0
6046,C2,1105.0,1.0,115,120.0
6047,D2,1105.0,0.25,115,120.0
6048,B-2,1105.0,0.25,115,120.0
6049,A3,1105.31,93/200,115,120.0
6050,D4,1105.59,297/200,115,120.0
6051,A3,1105.775,7/200,115,120.0
6052,D3,1105.775,4.0,115,120.0
6053,A3,1105.81,0.5,115,120.0
6054,B-2,1106.0,1.0,115,120.0
6055,B-2,1106.0,0.25,115,120.0
6056,C2,1106.0,0.25,115,120.0
6057,A3,1106.31,0.5,115,120.0
6058,E3,1106.575,1.0,115,120.0
6059,C4,1106.81,297/200,115,120.0
6060,B1,1107.0,1.0,115,120.0
6061,C2,1107.0,0.25,115,120.0
6062,C#3,1107.0,0.25,115,120.0
6063,B3,1107.075,0.5,115,120.0
6064,B3,1107.575,0.5,115,120.0
6065,E3,1107.575,4.0,115,120.0
6066,B-2,1108.0,0.25,115,120.0
6067,B1,1108.0,4.0,115,120.0
6068,B3,1108.075,0.5,115,120.0
6069,A3,1108.31,0.5,115,120.0
6070,D4,1108.575,297/200,115,120.0
6071,A3,1108.81,0.5,115,120.0
6072,B-2,1109.0,0.25,115,120.0
6073,A3,1109.31,93/200,115,120.0
6074,D3,1109.775,607/200,115,120.0
6075,A3,1109.775,7/200,115,120.0
6076,C4,1109.825,1.0,115,120.0
6077,B-2,1110.0,0.25,115,120.0
6078,B3,1110.075,0.5,115,120.0
6079,B3,1110.575,0.5,115,120.0
6080,A3,1110.825,1.0,115,120.0
6081,B-2,1111.0,0.25,115,120.0
6082,B3,1111.075,0.5,115,120.0
6083,E3,1111.575,3.0,115,120.0
6084,D4,1111.59,1.0,115,120.0
6085,C4,1111.825,297/200,115,120.0
6086,C2,1112.0,2.0,115,120.0
6087,B1,1112.0,0.25,115,120.0
6088,C#3,1112.0,0.25,115,120.0
6089,B3,1112.59,1.0,115,120.0
6090,D3,1112.81,193/200,115,120.0
6091,A3,1113.31,93/200,115,120.0
6092,D4,1113.59,297/200,115,120.0
6093,A3,1113.775,7/200,115,120.0
6094,D3,1113.775,4.0,115,120.0
6095,A3,1113.81,0.5,115,120.0
6096,C2,1114.0,1.0,115,120.0
6097,B1,1114.0,0.25,115,120.0
6098,C#3,1114.0,0.25,115,120.0
6099,A3,1114.31,0.5,115,120.0
6100,D3,1114.575,1.0,115,120.0
6101,C4,1114.81,297/200,115,120.0
6102,B1,1115.0,1.0,115,120.0
6103,B1,1115.0,0.25,115,120.0
6104,C#3,1115.0,0.25,115,120.0
6105,A3,1115.075,0.5,115,120.0
6106,A3,1115.575,0.5,115,120.0
6107,D3,1115.575,4.0,115,120.0
6108,B-2,1116.0,0.25,115,120.0
6109,B1,1116.0,1729/500,115,120.0
6110,A3,1116.075,0.5,115,120.0
6111,A3,1116.31,0.5,115,120.0
6112,C4,1116.575,297/200,115,120.0
6113,A3,1116.81,0.5,115,120.0
6114,B-2,1117.0,0.25,115,120.0
6115,A3,1117.31,93/200,115,120.0
6116,D3,1117.775,607/200,115,120.0
6117,A3,1117.775,7/200,115,120.0
6118,C4,1117.825,1.0,115,120.0
6119,B-2,1118.0,0.25,115,120.0
6120,A3,1118.075,0.5,115,120.0
6121,A3,1118.575,0.5,115,120.0
6122,A3,1118.825,1.0,115,120.0
6123,B-2,1119.0,0.25,115,120.0
6124,A3,1119.075,0.5,115,120.0
6125,D2,1119.5,0.25,63,120.0
6126,B1,1119.5,0.5,115,120.0
6127,D3,1119.575,3.0,115,120.0
6128,C4,1119.59,1.0,115,120.0
6129,C4,1119.825,297/200,115,120.0
6130,D2,1120.0,0.25,70,120.0
6131,B1,1120.0,0.5,115,120.0
6132,D2,1120.5,0.25,76,120.0
6133,B1,1120.5,0.5,115,120.0
6134,A3,1120.59,1.0,115,120.0
6135,C3,1120.81,193/200,115,120.0
6136,D2,1121.0,0.25,83,120.0
6137,B1,1121.0,0.5,115,120.0
6138,G3,1121.31,93/200,115,120.0
6139,D2,1121.5,0.25,90,120.0
6140,B1,1121.5,0.5,115,120.0
6141,C4,1121.59,297/200,115,120.0
6142,G3,1121.775,7/200,115,120.0
6143,C3,1121.775,4.0,115,120.0
6144,G3,1121.81,0.5,115,120.0
6145,D2,1122.0,0.25,96,120.0
6146,B1,1122.0,0.5,115,120.0
6147,G3,1122.31,0.5,115,120.0
6148,D2,1122.5,0.25,103,120.0
6149,B1,1122.5,0.5,115,120.0
6150,D3,1122.575,1.0,115,120.0
6151,B-3,1122.81,297/200,115,120.0
6152,E2,1123.0,1.0,115,120.0
6153,E4,1123.0,1.0,115,120.0
6154,B1,1123.0,0.25,115,120.0
6155,C#3,1123.0,0.25,115,120.0
6156,E4,1123.031,0.969,115,120.0
6157,A3,1123.075,0.5,115,120.0
6158,A3,1123.575,0.5,115,120.0
6159,D3,1123.575,4.0,115,120.0
6160,B-2,1124.0,0.25,115,120.0
6161,E1,1124.0,0.5,115,120.0
6162,E4,1124.0,3.0,115,120.0
6163,E4,1124.0,3.031,115,120.0
6164,A3,1124.075,0.5,115,120.0
6165,G3,1124.31,0.5,115,120.0
6166,E1,1124.5,0.5,115,120.0
6167,C4,1124.575,297/200,115,120.0
6168,G3,1124.81,0.5,115,120.0
6169,E2,1125.0,1.0,115,120.0
6170,B-2,1125.0,0.25,115,120.0
6171,D2,1125.0,0.25,115,120.0
6172,G3,1125.31,93/200,115,120.0
6173,C3,1125.775,607/200,115,120.0
6174,G3,1125.775,7/200,115,120.0
6175,B-3,1125.825,1.0,115,120.0
6176,B-2,1126.0,0.25,115,120.0
6177,E1,1126.0,0.5,115,120.0
6178,A3,1126.075,0.5,115,120.0
6179,E1,1126.5,0.5,115,120.0
6180,A3,1126.575,0.5,115,120.0
6181,G3,1126.825,1.0,115,120.0
6182,E2,1127.0,1.0,115,120.0
6183,F#4,1127.0,1.0,115,120.0
6184,B-2,1127.0,0.25,115,120.0
6185,C2,1127.0,0.25,115,120.0
6186,F#4,1127.031,0.969,115,120.0
6187,A3,1127.075,0.5,115,120.0
6188,D2,1127.5,0.25,115,120.0
6189,D3,1127.575,3.0,115,120.0
6190,C4,1127.59,1.0,115,120.0
6191,B-3,1127.825,297/200,115,120.0
6192,B-2,1128.0,0.25,115,120.0
6193,E1,1128.0,0.5,115,120.0
6194,F#4,1128.0,1.0,115,120.0
6195,F#4,1128.0,1.031,115,120.0
6196,C2,1128.5,0.25,115,120.0
6197,E1,1128.5,0.5,115,120.0
6198,A3,1128.59,1.0,115,120.0
6199,C3,1128.81,193/200,115,120.0
6200,E2,1129.0,1.0,115,120.0
6201,G4,1129.0,1.0,115,120.0
6202,D2,1129.0,0.25,115,120.0
6203,B-2,1129.0,0.25,115,120.0
6204,G4,1129.031,1.0,115,120.0
6205,G3,1129.31,93/200,115,120.0
6206,C4,1129.59,297/200,115,120.0
6207,G3,1129.775,7/200,115,120.0
6208,C3,1129.775,4.0,115,120.0
6209,G3,1129.81,0.5,115,120.0
6210,E1,1130.0,0.5,115,120.0
6211,F#4,1130.0,0.5,115,120.0
6212,B-2,1130.0,0.25,115,120.0
6213,C2,1130.0,0.25,115,120.0
6214,F#4,1130.031,0.5,115,120.0
6215,G3,1130.31,0.5,115,120.0
6216,E1,1130.5,0.5,115,120.0
6217,G4,1130.5,0.5,115,120.0
6218,G4,1130.531,0.5,115,120.0
6219,C3,1130.575,1.0,115,120.0
6220,B-3,1130.81,297/200,115,120.0
6221,D2,1131.0,1.0,115,120.0
6222,F#4,1131.0,1.0,115,120.0
6223,C2,1131.0,0.25,115,120.0
6224,B-2,1131.0,0.25,115,120.0
6225,F#4,1131.031,0.969,115,120.0
6226,G3,1131.075,0.5,115,120.0
6227,G3,1131.575,0.5,115,120.0
6228,C3,1131.575,4.0,115,120.0
6229,B-2,1132.0,0.25,115,120.0
6230,E1,1132.0,0.5,115,120.0
6231,F#4,1132.0,2.0,115,120.0
6232,F#4,1132.0,2.031,115,120.0
6233,G3,1132.075,0.5,115,120.0
6234,G3,1132.31,0.5,115,120.0
6235,E1,1132.5,0.5,115,120.0
6236,B-3,1132.575,297/200,115,120.0
6237,G3,1132.81,0.5,115,120.0
6238,D2,1133.0,1.0,115,120.0
6239,B-2,1133.0,0.25,115,120.0
6240,D2,1133.0,0.25,115,120.0
6241,G3,1133.31,93/200,115,120.0
6242,C3,1133.775,607/200,115,120.0
6243,G3,1133.775,7/200,115,120.0
6244,B-3,1133.825,1.0,115,120.0
6245,B-2,1134.0,0.25,115,120.0
6246,E1,1134.0,0.5,115,120.0
6247,G4,1134.0,0.5,115,120.0
6248,G4,1134.031,0.5,115,120.0
6249,G3,1134.075,0.5,115,120.0
6250,E1,1134.5,0.5,115,120.0
6251,F#4,1134.5,0.5,115,120.0
6252,F#4,1134.531,0.5,115,120.0
6253,G3,1134.575,0.5,115,120.0
6254,G3,1134.825,1.0,115,120.0
6255,B1,1135.0,1.0,115,120.0
6256,D4,1135.0,1.0,115,120.0
6257,B-2,1135.0,0.25,115,120.0
6258,C2,1135.0,0.25,115,120.0
6259,D4,1135.031,0.969,115,120.0
6260,G3,1135.075,0.5,115,120.0
6261,D2,1135.5,0.25,115,120.0
6262,C3,1135.575,3.0,115,120.0
6263,B-3,1135.59,1.0,115,120.0
6264,B-3,1135.825,1.0,115,120.0
6265,B-2,1136.0,0.25,115,120.0
6266,E1,1136.0,0.5,115,120.0
6267,D4,1136.0,1.0,115,120.0
6268,D4,1136.0,1.031,115,120.0
6269,C2,1136.5,0.25,115,120.0
6270,E1,1136.5,0.5,115,120.0
6271,G3,1136.59,1.0,115,120.0
6272,B3,1136.81,193/200,115,120.0
6273,F#3,1136.81,193/200,115,120.0
6274,B2,1136.81,193/200,115,120.0
6275,A1,1137.0,1.0,115,120.0
6276,B3,1137.0,1.0,115,120.0
6277,D2,1137.0,0.25,115,120.0
6278,B-2,1137.0,0.25,115,120.0
6279,B3,1137.031,1.0,115,120.0
6280,B-3,1137.59,297/200,115,120.0
6281,B3,1137.775,4.0,115,120.0
6282,F#3,1137.775,4.0,115,120.0
6283,B2,1137.775,4.0,115,120.0
6284,D2,1138.0,1.0,115,120.0
6285,D4,1138.0,1.0,115,120.0
6286,B-2,1138.0,0.25,115,120.0
6287,C2,1138.0,0.25,115,120.0
6288,D4,1138.031,1.0,115,120.0
6289,C3,1138.575,1.0,115,120.0
6290,E2,1139.0,1.0,115,120.0
6291,E4,1139.0,1.0,115,120.0
6292,C2,1139.0,0.25,115,120.0
6293,B-2,1139.0,0.25,115,120.0
6294,E4,1139.031,0.969,115,120.0
6295,G3,1139.075,0.5,115,120.0
6296,G3,1139.575,0.5,115,120.0
6297,C3,1139.575,4.0,115,120.0
6298,B-2,1140.0,0.25,115,120.0
6299,E1,1140.0,0.5,115,120.0
6300,E4,1140.0,3.0,115,120.0
6301,E4,1140.0,3.031,115,120.0
6302,G3,1140.075,0.5,115,120.0
6303,E1,1140.5,0.5,115,120.0
6304,B-3,1140.575,297/200,115,120.0
6305,E2,1141.0,1.0,115,120.0
6306,B-2,1141.0,0.25,115,120.0
6307,D2,1141.0,0.25,115,120.0
6308,B3,1141.775,11/125,115,120.0
6309,F#3,1141.775,11/125,115,120.0
6310,B2,1141.775,11/125,115,120.0
6311,C3,1141.81,1.0,115,120.0
6312,G3,1141.81,1.0,115,120.0
6313,C4,1141.81,1.0,115,120.0
6314,B-2,1142.0,0.25,115,120.0
6315,E1,1142.0,0.5,115,120.0
6316,G3,1142.075,0.5,115,120.0
6317,E1,1142.5,0.5,115,120.0
6318,G3,1142.575,0.5,115,120.0
6319,E2,1143.0,1.0,115,120.0
6320,F#4,1143.0,1.0,115,120.0
6321,B-2,1143.0,0.25,115,120.0
6322,C2,1143.0,0.25,115,120.0
6323,F#4,1143.031,0.969,115,120.0
6324,G3,1143.075,0.5,115,120.0
6325,D2,1143.5,0.25,115,120.0
6326,C3,1143.575,3.0,115,120.0
6327,B-3,1143.59,1.0,115,120.0
6328,C4,1143.825,1.0,115,120.0
6329,G3,1143.825,1.0,115,120.0
6330,C3,1143.825,1.0,115,120.0
6331,B-2,1144.0,0.25,115,120.0
6332,E1,1144.0,0.5,115,120.0
6333,F#4,1144.0,1.0,115,120.0
6334,F#4,1144.0,1.031,115,120.0
6335,C2,1144.5,0.25,115,120.0
6336,E1,1144.5,0.5,115,120.0
6337,G3,1144.59,1.0,115,120.0
6338,B3,1144.81,193/200,115,120.0
6339,F#3,1144.81,193/200,115,120.0
6340,B2,1144.81,193/200,115,120.0
6341,E2,1145.0,1.0,115,120.0
6342,G4,1145.0,1.0,115,120.0
6343,D2,1145.0,0.25,115,120.0
6344,B-2,1145.0,0.25,115,120.0
6345,G4,1145.031,1.0,115,120.0
6346,B-3,1145.59,1.0,115,120.0
6347,B3,1145.775,4.0,115,120.0
6348,F#3,1145.775,4.0,115,120.0
6349,B2,1145.775,4.0,115,120.0
6350,E1,1146.0,0.5,115,120.0
6351,F#4,1146.0,0.5,115,120.0
6352,B-2,1146.0,0.25,115,120.0
6353,C2,1146.0,0.25,115,120.0
6354,F#4,1146.031,0.5,115,120.0
6355,E1,1146.5,0.5,115,120.0
6356,G4,1146.5,0.5,115,120.0
6357,G4,1146.531,0.5,115,120.0
6358,B3,1146.575,1.0,115,120.0
6359,F#3,1146.575,1.0,115,120.0
6360,B2,1146.575,1.0,115,120.0
6361,D2,1147.0,1.0,115,120.0
6362,A4,1147.0,1.0,115,120.0
6363,C2,1147.0,0.25,115,120.0
6364,B-2,1147.0,0.25,115,120.0
6365,A4,1147.031,0.969,115,120.0
6366,B3,1147.575,4.0,115,120.0
6367,F#3,1147.575,4.0,115,120.0
6368,B2,1147.575,4.0,115,120.0
6369,B-2,1148.0,0.25,115,120.0
6370,E1,1148.0,0.5,115,120.0
6371,A4,1148.0,2.0,115,120.0
6372,A4,1148.0,2.031,115,120.0
6373,E1,1148.5,0.5,115,120.0
6374,D2,1149.0,1.0,115,120.0
6375,B-2,1149.0,0.25,115,120.0
6376,D2,1149.0,0.25,115,120.0
6377,B3,1149.775,607/200,115,120.0
6378,F#3,1149.775,607/200,115,120.0
6379,B2,1149.775,607/200,115,120.0
6380,B-2,1150.0,0.25,115,120.0
6381,E1,1150.0,0.5,115,120.0
6382,A4,1150.0,0.5,115,120.0
6383,A4,1150.031,0.5,115,120.0
6384,E1,1150.5,0.5,115,120.0
6385,G4,1150.5,0.5,115,120.0
6386,G4,1150.531,0.5,115,120.0
6387,B1,1151.0,1.0,115,120.0
6388,D4,1151.0,1.0,115,120.0
6389,B-2,1151.0,0.25,115,120.0
6390,C2,1151.0,0.25,115,120.0
6391,D4,1151.031,0.969,115,120.0
6392,D2,1151.5,0.25,115,120.0
6393,C3,1151.575,1.0,115,120.0
6394,G3,1151.575,1.0,115,120.0
6395,C4,1151.575,1.0,115,120.0
6396,B3,1151.575,13/250,115,120.0
6397,F#3,1151.575,13/250,115,120.0
6398,B2,1151.575,13/250,115,120.0
6399,B-2,1152.0,0.25,115,120.0
6400,E1,1152.0,0.5,115,120.0
6401,D4,1152.0,1.0,115,120.0
6402,D4,1152.0,1.031,115,120.0
6403,C2,1152.5,0.25,115,120.0
6404,E1,1152.5,0.5,115,120.0
6405,A1,1153.0,1.0,115,120.0
6406,B3,1153.0,1.0,115,120.0
6407,D2,1153.0,0.25,115,120.0
6408,B-2,1153.0,0.25,115,120.0
6409,B3,1153.031,1.0,115,120.0
6410,C4,1153.59,1.0,115,120.0
6411,G3,1153.59,1.0,115,120.0
6412,C3,1153.59,1.0,115,120.0
6413,D2,1154.0,1.0,115,120.0
6414,D4,1154.0,1.0,115,120.0
6415,B-2,1154.0,0.25,115,120.0
6416,C2,1154.0,0.25,115,120.0
6417,D4,1154.031,1.0,115,120.0
6418,B3,1154.575,1.0,115,120.0
6419,F#3,1154.575,1.0,115,120.0
6420,B2,1154.575,1.0,115,120.0
6421,E2,1155.0,1.0,115,120.0
6422,E4,1155.0,1.0,115,120.0
6423,C2,1155.0,0.25,115,120.0
6424,B-2,1155.0,0.25,115,120.0
6425,E4,1155.031,0.969,115,120.0
6426,B3,1155.575,4.0,115,120.0
6427,F#3,1155.575,4.0,115,120.0
6428,B2,1155.575,4.0,115,120.0
6429,B-2,1156.0,0.25,115,120.0
6430,E1,1156.0,0.5,115,120.0
6431,E4,1156.0,3.0,115,120.0
6432,E4,1156.0,3.031,115,120.0
6433,E1,1156.5,0.5,115,120.0
6434,E2,1157.0,1.0,115,120.0
6435,B-2,1157.0,0.25,115,120.0
6436,D2,1157.0,0.25,115,120.0
6437,B-2,1158.0,0.25,115,120.0
6438,E1,1158.0,0.5,115,120.0
6439,E1,1158.5,0.5,115,120.0
6440,E2,1159.0,1.0,115,120.0
6441,F#4,1159.0,1.0,115,120.0
6442,B-2,1159.0,0.25,115,120.0
6443,C2,1159.0,0.25,115,120.0
6444,F#4,1159.031,0.969,115,120.0
6445,D2,1159.5,0.25,115,120.0
6446,B3,1159.575,3.0,115,120.0
6447,F#3,1159.575,3.0,115,120.0
6448,B2,1159.575,3.0,115,120.0
6449,B-2,1160.0,0.25,115,120.0
6450,E1,1160.0,0.5,115,120.0
6451,F#4,1160.0,1.0,115,120.0
6452,F#4,1160.0,1.031,115,120.0
6453,C2,1160.5,0.25,115,120.0
6454,E1,1160.5,0.5,115,120.0
6455,E2,1161.0,1.0,115,120.0
6456,G4,1161.0,1.0,115,120.0
6457,D2,1161.0,0.25,115,120.0
6458,B-2,1161.0,0.25,115,120.0
6459,G4,1161.031,1.0,115,120.0
6460,E1,1162.0,0.5,115,120.0
6461,F#4,1162.0,0.5,115,120.0
6462,B-2,1162.0,0.25,115,120.0
6463,C2,1162.0,0.25,115,120.0
6464,F#4,1162.031,0.5,115,120.0
6465,E1,1162.5,0.5,115,120.0
6466,G4,1162.5,0.5,115,120.0
6467,G4,1162.531,0.5,115,120.0
6468,D2,1163.0,1.0,115,120.0
6469,F#4,1163.0,1.0,115,120.0
6470,C2,1163.0,0.25,115,120.0
6471,B-2,1163.0,0.25,115,120.0
6472,F#4,1163.031,0.969,115,120.0
6473,B-2,1164.0,0.25,115,120.0
6474,E1,1164.0,0.5,115,120.0
6475,F#4,1164.0,2.0,115,120.0
6476,F#4,1164.0,2.031,115,120.0
6477,E1,1164.5,0.5,115,120.0
6478,D2,1165.0,1.0,115,120.0
6479,B-2,1165.0,0.25,115,120.0
6480,D2,1165.0,0.25,115,120.0
6481,B-2,1166.0,0.25,115,120.0
6482,E1,1166.0,0.5,115,120.0
6483,G4,1166.0,0.5,115,120.0
6484,G4,1166.031,0.5,115,120.0
6485,E1,1166.5,0.5,115,120.0
6486,F#4,1166.5,0.5,115,120.0
6487,F#4,1166.531,0.5,115,120.0
6488,B1,1167.0,1.0,115,120.0
6489,D4,1167.0,1.0,115,120.0
6490,B-2,1167.0,0.25,115,120.0
6491,C2,1167.0,0.25,115,120.0
6492,D4,1167.031,0.969,115,120.0
6493,D2,1167.5,0.25,115,120.0
6494,B-2,1168.0,0.25,115,120.0
6495,E1,1168.0,0.5,115,120.0
6496,D4,1168.0,1.0,115,120.0
6497,D4,1168.0,1.031,115,120.0
6498,C2,1168.5,0.25,115,120.0
6499,E1,1168.5,0.5,115,120.0
6500,A1,1169.0,1.0,115,120.0
6501,B3,1169.0,1.0,115,120.0
6502,D2,1169.0,0.25,115,120.0
6503,B-2,1169.0,0.25,115,120.0
6504,B3,1169.031,1.0,115,120.0
6505,D2,1170.0,1.0,115,120.0
6506,D4,1170.0,1.0,115,120.0
6507,B-2,1170.0,0.25,115,120.0
6508,C2,1170.0,0.25,115,120.0
6509,D4,1170.031,1.0,115,120.0
6510,E2,1171.0,1.0,115,120.0
6511,E4,1171.0,1.0,115,120.0
6512,C2,1171.0,0.25,115,120.0
6513,B-2,1171.0,0.25,115,120.0
6514,E4,1171.031,0.969,115,120.0
6515,B-2,1172.0,0.25,115,120.0
6516,E1,1172.0,0.5,115,120.0
6517,E4,1172.0,3.0,115,120.0
6518,E4,1172.0,3.031,115,120.0
6519,E1,1172.5,0.5,115,120.0
6520,E2,1173.0,1.0,115,120.0
6521,B-2,1173.0,0.25,115,120.0
6522,D2,1173.0,0.25,115,120.0
6523,B-2,1174.0,0.25,115,120.0
6524,E1,1174.0,0.5,115,120.0
6525,E1,1174.5,0.5,115,120.0
6526,E2,1175.0,1.0,115,120.0
6527,F#4,1175.0,1.0,115,120.0
6528,B-2,1175.0,0.25,115,120.0
6529,C2,1175.0,0.25,115,120.0
6530,F#4,1175.031,0.969,115,120.0
6531,D2,1175.5,0.25,115,120.0
6532,B-2,1176.0,0.25,115,120.0
6533,E1,1176.0,0.5,115,120.0
6534,F#4,1176.0,1.0,115,120.0
6535,F#4,1176.0,1.031,115,120.0
6536,C2,1176.5,0.25,115,120.0
6537,E1,1176.5,0.5,115,120.0
6538,E2,1177.0,1.0,115,120.0
6539,G4,1177.0,1.0,115,120.0
6540,D2,1177.0,0.25,115,120.0
6541,B-2,1177.0,0.25,115,120.0
6542,G4,1177.031,1.0,115,120.0
6543,E1,1178.0,0.5,115,120.0
6544,F#4,1178.0,0.5,115,120.0
6545,B-2,1178.0,0.25,115,120.0
6546,C2,1178.0,0.25,115,120.0
6547,F#4,1178.031,0.5,115,120.0
6548,E1,1178.5,0.5,115,120.0
6549,G4,1178.5,0.5,115,120.0
6550,G4,1178.531,0.5,115,120.0
6551,D2,1179.0,1.0,115,120.0
6552,A4,1179.0,1.0,115,120.0
6553,C2,1179.0,0.25,115,120.0
6554,B-2,1179.0,0.25,115,120.0
6555,A4,1179.031,0.969,115,120.0
6556,B-2,1180.0,0.25,115,120.0
6557,E1,1180.0,0.5,115,120.0
6558,A4,1180.0,3.0,115,120.0
6559,A4,1180.0,3.031,115,120.0
6560,E1,1180.5,0.5,115,120.0
6561,D2,1181.0,1.0,115,120.0
6562,B-2,1181.0,0.25,115,120.0
6563,D2,1181.0,0.25,115,120.0
6564,B-2,1182.0,0.25,115,120.0
6565,E1,1182.0,0.5,115,120.0
6566,E1,1182.5,0.5,115,120.0
6567,B1,1183.0,1.0,115,120.0
6568,B4,1183.0,1.0,115,120.0
6569,B-2,1183.0,0.25,115,120.0
6570,C2,1183.0,0.25,115,120.0
6571,B4,1183.031,0.969,115,120.0
6572,D2,1183.5,0.25,115,120.0
6573,B-2,1184.0,0.25,115,120.0
6574,E1,1184.0,0.5,115,120.0
6575,B4,1184.0,2.0,115,120.0
6576,B4,1184.0,2.031,115,120.0
6577,C2,1184.5,0.25,115,120.0
6578,E1,1184.5,0.5,115,120.0
6579,A1,1185.0,1.0,115,120.0
6580,D2,1185.0,0.25,115,120.0
6581,B-2,1185.0,0.25,115,120.0
6582,D2,1186.0,1.0,115,120.0
6583,B4,1186.0,0.25,115,120.0
6584,B-2,1186.0,0.25,115,120.0
6585,C2,1186.0,0.25,115,120.0
6586,B4,1186.031,0.25,115,120.0
6587,C5,1186.25,0.062,115,120.0
6588,C5,1186.281,0.062,115,120.0
6589,C#5,1186.375,0.062,115,120.0
6590,C#5,1186.406,0.062,115,120.0
6591,D5,1186.5,61/250,115,120.0
6592,D5,1186.531,61/250,115,120.0
6593,E5,1186.75,0.25,115,120.0
6594,E5,1186.781,0.25,115,120.0
6595,E2,1187.0,0.5,115,120.0
6596,E5,1187.0,729/1000,115,120.0
6597,C2,1187.0,0.25,115,120.0
6598,B-2,1187.0,0.25,115,120.0
6599,E5,1187.031,729/1000,115,120.0
6600,E2,1187.5,0.5,115,120.0
6601,B-2,1188.0,0.25,115,120.0
6602,E2,1188.0,0.5,115,120.0
6603,D5,1188.0,0.125,115,120.0
6604,E5,1188.021,177/250,115,120.0
6605,D5,1188.031,0.125,115,120.0
6606,E5,1188.052,177/250,115,120.0
6607,E2,1188.5,103/200,115,120.0
6608,E3,1189.0,2.0,115,120.0
6609,E5,1189.0,1.0,115,120.0
6610,B-2,1189.0,0.25,115,120.0
6611,D2,1189.0,0.25,115,120.0
6612,E5,1189.031,1.0,115,120.0
6613,B-2,1190.0,0.25,115,120.0
6614,D5,1190.0,0.25,115,120.0
6615,D5,1190.031,0.25,115,120.0
6616,E5,1190.25,0.25,115,120.0
6617,E5,1190.281,0.25,115,120.0
6618,F#5,1190.5,103/200,115,120.0
6619,F#5,1190.531,103/200,115,120.0
6620,E2,1191.0,0.5,115,120.0
6621,B-2,1191.0,0.25,115,120.0
6622,C2,1191.0,0.25,115,120.0
6623,D2,1191.5,0.25,115,120.0
6624,E2,1191.5,0.5,115,120.0
6625,F#5,1191.5,0.5,115,120.0
6626,F#5,1191.531,0.469,115,120.0
6627,B-2,1192.0,0.25,115,120.0
6628,E2,1192.0,0.5,115,120.0
6629,F#5,1192.0,3/200,115,120.0
6630,F#5,1192.0,23/500,115,120.0
6631,C2,1192.5,0.25,115,120.0
6632,E2,1192.5,103/200,115,120.0
6633,F#5,1192.5,103/200,115,120.0
6634,F#5,1192.531,103/200,115,120.0
6635,E3,1193.0,2.0,115,120.0
6636,D5,1193.0,97/200,115,120.0
6637,D2,1193.0,0.25,115,120.0
6638,B-2,1193.0,0.25,115,120.0
6639,D5,1193.031,97/200,115,120.0
6640,E5,1193.5,0.5,115,120.0
6641,E5,1193.531,0.5,115,120.0
6642,B-2,1194.0,0.25,115,120.0
6643,C2,1194.0,0.25,115,120.0
6644,D5,1194.015,103/200,115,120.0
6645,D5,1194.046,103/200,115,120.0
6646,B4,1194.515,0.5,115,120.0
6647,B4,1194.546,0.5,115,120.0
6648,D2,1195.0,0.5,115,120.0
6649,C2,1195.0,0.25,115,120.0
6650,B-2,1195.0,0.25,115,120.0
6651,D5,1195.015,97/200,115,120.0
6652,D5,1195.046,97/200,115,120.0
6653,D2,1195.5,0.5,115,120.0
6654,E5,1195.5,0.5,115,120.0
6655,E5,1195.531,0.469,115,120.0
6656,B-2,1196.0,0.25,115,120.0
6657,D2,1196.0,0.5,115,120.0
6658,F#5,1196.0,0.5,115,120.0
6659,E5,1196.0,3/200,115,120.0
6660,E5,1196.0,23/500,115,120.0
6661,F#5,1196.031,0.5,115,120.0
6662,D2,1196.5,103/200,115,120.0
6663,E5,1196.5,0.25,115,120.0
6664,E5,1196.531,0.25,115,120.0
6665,D5,1196.75,0.25,115,120.0
6666,D5,1196.781,0.25,115,120.0
6667,D3,1197.0,2.0,115,120.0
6668,E5,1197.0,0.25,115,120.0
6669,B-2,1197.0,0.25,115,120.0
6670,D2,1197.0,0.25,115,120.0
6671,E5,1197.031,0.25,115,120.0
6672,D5,1197.25,0.25,115,120.0
6673,D5,1197.281,0.25,115,120.0
6674,E5,1197.5,0.5,115,120.0
6675,E5,1197.531,0.5,115,120.0
6676,B-2,1198.0,0.25,115,120.0
6677,E5,1198.0,0.25,115,120.0
6678,E5,1198.031,0.25,115,120.0
6679,D5,1198.25,0.25,115,120.0
6680,D5,1198.281,0.25,115,120.0
6681,E5,1198.5,0.5,115,120.0
6682,E5,1198.531,0.5,115,120.0
6683,D2,1199.0,0.5,115,120.0
6684,E5,1199.0,0.25,115,120.0
6685,B-2,1199.0,0.25,115,120.0
6686,C2,1199.0,0.25,115,120.0
6687,E5,1199.031,0.25,115,120.0
6688,D5,1199.25,0.25,115,120.0
6689,D5,1199.281,0.25,115,120.0
6690,D2,1199.5,0.25,115,120.0
6691,D2,1199.5,0.5,115,120.0
6692,E5,1199.5,0.5,115,120.0
6693,E5,1199.531,0.469,115,120.0
6694,B-2,1200.0,0.25,115,120.0
6695,D2,1200.0,0.5,115,120.0
6696,E5,1200.0,0.25,115,120.0
6697,E5,1200.0,0.031,115,120.0
6698,E5,1200.031,0.25,115,120.0
6699,D5,1200.25,0.25,115,120.0
6700,D5,1200.281,0.25,115,120.0
6701,C2,1200.5,0.25,115,120.0
6702,D2,1200.5,103/200,115,120.0
6703,E5,1200.5,0.5,115,120.0
6704,E5,1200.531,0.5,115,120.0
6705,D3,1201.0,2.0,115,120.0
6706,E5,1201.0,0.25,115,120.0
6707,D2,1201.0,0.25,115,120.0
6708,B-2,1201.0,0.25,115,120.0
6709,E5,1201.031,0.25,115,120.0
6710,D5,1201.25,0.25,115,120.0
6711,D5,1201.281,0.25,115,120.0
6712,E5,1201.5,0.5,115,120.0
6713,E5,1201.531,0.5,115,120.0
6714,E5,1202.0,0.25,115,120.0
6715,B-2,1202.0,0.25,115,120.0
6716,C2,1202.0,0.25,115,120.0
6717,E5,1202.031,0.25,115,120.0
6718,D5,1202.25,0.25,115,120.0
6719,D5,1202.281,0.25,115,120.0
6720,E5,1202.5,0.5,115,120.0
6721,E5,1202.531,0.5,115,120.0
6722,E2,1203.0,0.5,115,120.0
6723,E5,1203.0,0.25,115,120.0
6724,C2,1203.0,0.25,115,120.0
6725,B-2,1203.0,0.25,115,120.0
6726,E5,1203.031,0.25,115,120.0
6727,D5,1203.25,0.25,115,120.0
6728,D5,1203.281,0.25,115,120.0
6729,E2,1203.5,0.5,115,120.0
6730,E5,1203.5,0.5,115,120.0
6731,E5,1203.531,0.469,115,120.0
6732,B-2,1204.0,0.25,115,120.0
6733,E2,1204.0,0.5,115,120.0
6734,E5,1204.0,0.25,115,120.0
6735,E5,1204.0,0.031,115,120.0
6736,E5,1204.031,0.25,115,120.0
6737,D5,1204.25,0.25,115,120.0
6738,D5,1204.281,0.25,115,120.0
6739,E2,1204.5,103/200,115,120.0
6740,E5,1204.5,0.5,115,120.0
6741,E5,1204.531,0.5,115,120.0
6742,E3,1205.0,2.0,115,120.0
6743,F#5,1205.0,1.0,115,120.0
6744,B-2,1205.0,0.25,115,120.0
6745,D2,1205.0,0.25,115,120.0
6746,F#5,1205.031,1.0,115,120.0
6747,B-2,1206.0,0.25,115,120.0
6748,F#5,1206.0,1.0,115,120.0
6749,F#5,1206.031,1.0,115,120.0
6750,E2,1207.0,0.5,115,120.0
6751,F#5,1207.0,1.0,115,120.0
6752,B-2,1207.0,0.25,115,120.0
6753,C2,1207.0,0.25,115,120.0
6754,F#5,1207.031,0.969,115,120.0
6755,D2,1207.5,0.25,115,120.0
6756,E2,1207.5,0.5,115,120.0
6757,B-2,1208.0,0.25,115,120.0
6758,E2,1208.0,0.5,115,120.0
6759,F#5,1208.0,0.5,115,120.0
6760,F#5,1208.0,0.031,115,120.0
6761,F#5,1208.031,0.5,115,120.0
6762,C2,1208.5,0.25,115,120.0
6763,E2,1208.5,103/200,115,120.0
6764,F#5,1208.5,0.5,115,120.0
6765,F#5,1208.531,0.5,115,120.0
6766,E3,1209.0,2.0,115,120.0
6767,D5,1209.0,1.0,115,120.0
6768,D2,1209.0,0.25,115,120.0
6769,B-2,1209.0,0.25,115,120.0
6770,D5,1209.031,1.0,115,120.0
6771,B4,1210.0,1.0,115,120.0
6772,B-2,1210.0,0.25,115,120.0
6773,C2,1210.0,0.25,115,120.0
6774,B4,1210.031,1.0,115,120.0
6775,D2,1211.0,0.5,115,120.0
6776,D5,1211.0,0.5,115,120.0
6777,C2,1211.0,0.25,115,120.0
6778,B-2,1211.0,0.25,115,120.0
6779,D5,1211.031,0.5,115,120.0
6780,D2,1211.5,0.5,115,120.0
6781,E5,1211.5,0.5,115,120.0
6782,E5,1211.531,0.469,115,120.0
6783,B-2,1212.0,0.25,115,120.0
6784,D2,1212.0,0.5,115,120.0
6785,E5,1212.0,0.5,115,120.0
6786,E5,1212.0,0.031,115,120.0
6787,E5,1212.031,0.5,115,120.0
6788,D2,1212.5,103/200,115,120.0
6789,D5,1212.5,0.5,115,120.0
6790,D5,1212.531,0.5,115,120.0
6791,D3,1213.0,2.0,115,120.0
6792,D5,1213.0,0.5,115,120.0
6793,B-2,1213.0,0.25,115,120.0
6794,D2,1213.0,0.25,115,120.0
6795,D5,1213.031,0.5,115,120.0
6796,E5,1213.5,2.5,115,120.0
6797,E5,1213.531,2.469,115,120.0
6798,B-2,1214.0,0.25,115,120.0
6799,D2,1215.0,0.5,115,120.0
6800,B-2,1215.0,0.25,115,120.0
6801,C2,1215.0,0.25,115,120.0
6802,D2,1215.5,0.25,115,120.0
6803,D2,1215.5,0.5,115,120.0
6804,B-2,1216.0,0.25,115,120.0
6805,D2,1216.0,0.5,115,120.0
6806,A4,1216.0,97/200,115,120.0
6807,E5,1216.0,3/200,115,120.0
6808,E5,1216.0,23/500,115,120.0
6809,A4,1216.031,97/200,115,120.0
6810,C2,1216.5,0.25,115,120.0
6811,D2,1216.5,103/200,115,120.0
6812,B4,1216.5,103/200,115,120.0
6813,B4,1216.531,103/200,115,120.0
6814,D3,1217.0,2.0,115,120.0
6815,D5,1217.0,0.5,115,120.0
6816,D2,1217.0,0.25,115,120.0
6817,B-2,1217.0,0.25,115,120.0
6818,D5,1217.031,0.5,115,120.0
6819,E5,1217.5,303/200,115,120.0
6820,E5,1217.531,303/200,115,120.0
6821,B-2,1218.0,0.25,115,120.0
6822,C2,1218.0,0.25,115,120.0
6823,E2,1219.0,0.5,115,120.0
6824,A4,1219.0,97/200,115,120.0
6825,C2,1219.0,0.25,115,120.0
6826,B-2,1219.0,0.25,115,120.0
6827,A4,1219.031,97/200,115,120.0
6828,E2,1219.5,0.5,115,120.0
6829,B4,1219.5,0.5,115,120.0
6830,B4,1219.531,0.469,115,120.0
6831,B-2,1220.0,0.25,115,120.0
6832,E2,1220.0,0.5,115,120.0
6833,D5,1220.0,0.5,115,120.0
6834,B4,1220.0,3/200,115,120.0
6835,B4,1220.0,23/500,115,120.0
6836,D5,1220.031,0.5,115,120.0
6837,E2,1220.5,103/200,115,120.0
6838,E5,1220.5,303/200,115,120.0
6839,E5,1220.531,303/200,115,120.0
6840,E3,1221.0,2.0,115,120.0
6841,B-2,1221.0,0.25,115,120.0
6842,D2,1221.0,0.25,115,120.0
6843,B-2,1222.0,0.25,115,120.0
6844,A4,1222.0,97/200,115,120.0
6845,A4,1222.031,97/200,115,120.0
6846,B4,1222.5,103/200,115,120.0
6847,B4,1222.531,103/200,115,120.0
6848,E2,1223.0,0.5,115,120.0
6849,D5,1223.0,0.5,115,120.0
6850,B-2,1223.0,0.25,115,120.0
6851,C2,1223.0,0.25,115,120.0
6852,D5,1223.031,0.5,115,120.0
6853,D2,1223.5,0.25,115,120.0
6854,E2,1223.5,0.5,115,120.0
6855,E5,1223.5,0.5,115,120.0
6856,E5,1223.531,0.469,115,120.0
6857,B-2,1224.0,0.25,115,120.0
6858,E2,1224.0,0.5,115,120.0
6859,E5,1224.0,203/200,115,120.0
6860,E5,1224.0,523/500,115,120.0
6861,C2,1224.5,0.25,115,120.0
6862,E2,1224.5,103/200,115,120.0
6863,E3,1225.0,2.0,115,120.0
6864,A4,1225.0,97/200,115,120.0
6865,D2,1225.0,0.25,115,120.0
6866,B-2,1225.0,0.25,115,120.0
6867,A4,1225.031,97/200,115,120.0
6868,B4,1225.5,103/200,115,120.0
6869,B4,1225.531,103/200,115,120.0
6870,D5,1226.0,0.5,115,120.0
6871,B-2,1226.0,0.25,115,120.0
6872,C2,1226.0,0.25,115,120.0
6873,D5,1226.031,0.5,115,120.0
6874,E5,1226.5,1.5,115,120.0
6875,E5,1226.531,1.469,115,120.0
6876,D2,1227.0,0.5,115,120.0
6877,C2,1227.0,0.25,115,120.0
6878,B-2,1227.0,0.25,115,120.0
6879,D2,1227.5,0.5,115,120.0
6880,B-2,1228.0,0.25,115,120.0
6881,D2,1228.0,0.5,115,120.0
6882,D5,1228.0,97/200,115,120.0
6883,E5,1228.0,3/200,115,120.0
6884,E5,1228.0,23/500,115,120.0
6885,D5,1228.031,97/200,115,120.0
6886,D2,1228.5,103/200,115,120.0
6887,E5,1228.5,0.5,115,120.0
6888,E5,1228.531,0.5,115,120.0
6889,D3,1229.0,2.0,115,120.0
6890,F#5,1229.0,0.25,115,120.0
6891,B-2,1229.0,0.25,115,120.0
6892,D2,1229.0,0.25,115,120.0
6893,F#5,1229.031,0.25,115,120.0
6894,E5,1229.25,0.25,115,120.0
6895,E5,1229.281,0.25,115,120.0
6896,D5,1229.5,0.25,115,120.0
6897,D5,1229.531,0.25,115,120.0
6898,E5,1229.75,271/1000,115,120.0
6899,E5,1229.781,271/1000,115,120.0
6900,B-2,1230.0,0.25,115,120.0
6901,D5,1230.0,97/200,115,120.0
6902,D5,1230.031,97/200,115,120.0
6903,B4,1230.5,0.5,115,120.0
6904,B4,1230.531,0.5,115,120.0
6905,D2,1231.0,0.5,115,120.0
6906,A4,1231.0,0.5,115,120.0
6907,B-2,1231.0,0.25,115,120.0
6908,C2,1231.0,0.25,115,120.0
6909,A4,1231.031,0.5,115,120.0
6910,D2,1231.5,0.25,115,120.0
6911,D2,1231.5,0.5,115,120.0
6912,A4,1231.5,0.5,115,120.0
6913,A4,1231.531,0.469,115,120.0
6914,B-2,1232.0,0.25,115,120.0
6915,D2,1232.0,0.5,115,120.0
6916,G4,1232.0,0.5,115,120.0
6917,A4,1232.0,0.031,115,120.0
6918,G4,1232.031,0.5,115,120.0
6919,C2,1232.5,0.25,115,120.0
6920,D2,1232.5,103/200,115,120.0
6921,G4,1232.5,0.5,115,120.0
6922,G4,1232.531,0.5,115,120.0
6923,D3,1233.0,2.0,115,120.0
6924,F#4,1233.0,0.5,115,120.0
6925,D2,1233.0,0.25,115,120.0
6926,B-2,1233.0,0.25,115,120.0
6927,F#4,1233.031,0.5,115,120.0
6928,E4,1233.5,0.5,115,120.0
6929,E4,1233.531,0.5,115,120.0
6930,F#4,1234.0,0.5,115,120.0
6931,B-2,1234.0,0.25,115,120.0
6932,C2,1234.0,0.25,115,120.0
6933,F#4,1234.031,0.5,115,120.0
6934,G4,1234.5,0.5,115,120.0
6935,G4,1234.531,0.5,115,120.0
6936,E2,1235.0,0.5,115,120.0
6937,G4,1235.0,0.5,115,120.0
6938,C2,1235.0,0.25,115,120.0
6939,B-2,1235.0,0.25,115,120.0
6940,G4,1235.031,0.5,115,120.0
6941,E2,1235.5,0.5,115,120.0
6942,F#4,1235.5,0.5,115,120.0
6943,F#4,1235.531,0.469,115,120.0
6944,B-2,1236.0,0.25,115,120.0
6945,E2,1236.0,0.5,115,120.0
6946,E4,1236.0,0.5,115,120.0
6947,F#4,1236.0,0.031,115,120.0
6948,E4,1236.031,0.5,115,120.0
6949,E2,1236.5,103/200,115,120.0
6950,G4,1236.5,0.5,115,120.0
6951,G4,1236.531,0.5,115,120.0
6952,E3,1237.0,2.0,115,120.0
6953,F#4,1237.0,0.5,115,120.0
6954,B-2,1237.0,0.25,115,120.0
6955,D2,1237.0,0.25,115,120.0
6956,F#4,1237.031,0.5,115,120.0
6957,E4,1237.5,0.5,115,120.0
6958,E4,1237.531,0.5,115,120.0
6959,B-2,1238.0,0.25,115,120.0
6960,G4,1238.0,0.5,115,120.0
6961,G4,1238.031,0.5,115,120.0
6962,F#4,1238.5,0.5,115,120.0
6963,F#4,1238.531,0.5,115,120.0
6964,E2,1239.0,0.5,115,120.0
6965,E4,1239.0,0.5,115,120.0
6966,B-2,1239.0,0.25,115,120.0
6967,C2,1239.0,0.25,115,120.0
6968,E4,1239.031,0.5,115,120.0
6969,D2,1239.5,0.25,115,120.0
6970,E2,1239.5,0.5,115,120.0
6971,G4,1239.5,0.5,115,120.0
6972,G4,1239.531,0.469,115,120.0
6973,B-2,1240.0,0.25,115,120.0
6974,E2,1240.0,0.5,115,120.0
6975,F#4,1240.0,0.5,115,120.0
6976,G4,1240.0,0.031,115,120.0
6977,F#4,1240.031,0.5,115,120.0
6978,C2,1240.5,0.25,115,120.0
6979,E2,1240.5,103/200,115,120.0
6980,E4,1240.5,0.5,115,120.0
6981,E4,1240.531,0.5,115,120.0
6982,E3,1241.0,2.0,115,120.0
6983,G4,1241.0,0.5,115,120.0
6984,D2,1241.0,0.25,115,120.0
6985,B-2,1241.0,0.25,115,120.0
6986,G4,1241.031,0.5,115,120.0
6987,F#4,1241.5,0.5,115,120.0
6988,F#4,1241.531,0.5,115,120.0
6989,E4,1242.0,1.0,115,120.0
6990,B-2,1242.0,0.25,115,120.0
6991,C2,1242.0,0.25,115,120.0
6992,E4,1242.031,1.0,115,120.0
6993,D2,1243.0,0.5,115,120.0
6994,A4,1243.0,0.5,115,120.0
6995,C2,1243.0,0.25,115,120.0
6996,B-2,1243.0,0.25,115,120.0
6997,A4,1243.031,0.5,115,120.0
6998,D2,1243.5,0.5,115,120.0
6999,G4,1243.5,0.5,115,120.0
7000,G4,1243.531,0.469,115,120.0
7001,B-2,1244.0,0.25,115,120.0
7002,D2,1244.0,0.5,115,120.0
7003,F#4,1244.0,0.5,115,120.0
7004,G4,1244.0,0.031,115,120.0
7005,F#4,1244.031,0.5,115,120.0
7006,D2,1244.5,103/200,115,120.0
7007,A4,1244.5,0.5,115,120.0
7008,A4,1244.531,0.5,115,120.0
7009,D3,1245.0,2.0,115,120.0
7010,G4,1245.0,0.5,115,120.0
7011,B-2,1245.0,0.25,115,120.0
7012,D2,1245.0,0.25,115,120.0
7013,G4,1245.031,0.5,115,120.0
7014,F#4,1245.5,0.5,115,120.0
7015,F#4,1245.531,0.5,115,120.0
7016,B-2,1246.0,0.25,115,120.0
7017,A4,1246.0,0.5,115,120.0
7018,A4,1246.031,0.5,115,120.0
7019,G4,1246.5,0.5,115,120.0
7020,G4,1246.531,0.5,115,120.0
7021,D2,1247.0,0.5,115,120.0
7022,F#4,1247.0,0.5,115,120.0
7023,B-2,1247.0,0.25,115,120.0
7024,C2,1247.0,0.25,115,120.0
7025,F#4,1247.031,0.5,115,120.0
7026,D2,1247.5,0.25,115,120.0
7027,D2,1247.5,0.5,115,120.0
7028,A4,1247.5,0.5,115,120.0
7029,A4,1247.531,0.469,115,120.0
7030,B-2,1248.0,0.25,115,120.0
7031,D2,1248.0,0.5,115,120.0
7032,G4,1248.0,0.5,115,120.0
7033,A4,1248.0,0.031,115,120.0
7034,G4,1248.031,0.5,115,120.0
7035,C2,1248.5,0.25,115,120.0
7036,D2,1248.5,103/200,115,120.0
7037,F#4,1248.5,0.5,115,120.0
7038,F#4,1248.531,0.5,115,120.0
7039,D3,1249.0,2.0,115,120.0
7040,A4,1249.0,0.5,115,120.0
7041,D2,1249.0,0.25,115,120.0
7042,B-2,1249.0,0.25,115,120.0
7043,A4,1249.031,0.5,115,120.0
7044,G4,1249.5,0.5,115,120.0
7045,G4,1249.531,0.5,115,120.0
7046,F#4,1250.0,1.0,115,120.0
7047,B-2,1250.0,0.25,115,120.0
7048,C2,1250.0,0.25,115,120.0
7049,F#4,1250.031,1.0,115,120.0
7050,E2,1251.0,1.0,115,120.0
7051,E4,1251.0,1.0,115,120.0
7052,C2,1251.0,0.25,115,120.0
7053,B-2,1251.0,0.25,115,120.0
7054,E4,1251.031,0.969,115,120.0
7055,B-2,1252.0,0.25,115,120.0
7056,E1,1252.0,0.5,115,120.0
7057,E4,1252.0,3.0,115,120.0
7058,E4,1252.0,3.031,115,120.0
7059,E1,1252.5,0.5,115,120.0
7060,E2,1253.0,1.0,115,120.0
7061,B-2,1253.0,0.25,115,120.0
7062,D2,1253.0,0.25,115,120.0
7063,B-2,1254.0,0.25,115,120.0
7064,E1,1254.0,0.5,115,120.0
7065,E1,1254.5,0.5,115,120.0
7066,E2,1255.0,1.0,115,120.0
7067,F#4,1255.0,1.0,115,120.0
7068,B-2,1255.0,0.25,115,120.0
7069,C2,1255.0,0.25,115,120.0
7070,F#4,1255.031,0.969,115,120.0
7071,D2,1255.5,0.25,115,120.0
7072,B-2,1256.0,0.25,115,120.0
7073,E1,1256.0,0.5,115,120.0
7074,F#4,1256.0,1.0,115,120.0
7075,F#4,1256.0,1.031,115,120.0
7076,C2,1256.5,0.25,115,120.0
7077,E1,1256.5,0.5,115,120.0
7078,E2,1257.0,1.0,115,120.0
7079,G4,1257.0,1.0,115,120.0
7080,D2,1257.0,0.25,115,120.0
7081,B-2,1257.0,0.25,115,120.0
7082,G4,1257.031,1.0,115,120.0
7083,E1,1258.0,0.5,115,120.0
7084,F#4,1258.0,0.5,115,120.0
7085,B-2,1258.0,0.25,115,120.0
7086,C2,1258.0,0.25,115,120.0
7087,F#4,1258.031,0.5,115,120.0
7088,E1,1258.5,0.5,115,120.0
7089,G4,1258.5,0.5,115,120.0
7090,G4,1258.531,0.5,115,120.0
7091,D2,1259.0,1.0,115,120.0
7092,F#4,1259.0,1.0,115,120.0
7093,C2,1259.0,0.25,115,120.0
7094,B-2,1259.0,0.25,115,120.0
7095,F#4,1259.031,0.969,115,120.0
7096,B-2,1260.0,0.25,115,120.0
7097,E1,1260.0,0.5,115,120.0
7098,F#4,1260.0,2.0,115,120.0
7099,F#4,1260.0,2.031,115,120.0
7100,E1,1260.5,0.5,115,120.0
7101,D2,1261.0,1.0,115,120.0
7102,B-2,1261.0,0.25,115,120.0
7103,D2,1261.0,0.25,115,120.0
7104,B-2,1262.0,0.25,115,120.0
7105,E1,1262.0,0.5,115,120.0
7106,G4,1262.0,0.5,115,120.0
7107,G4,1262.031,0.5,115,120.0
7108,E1,1262.5,0.5,115,120.0
7109,F#4,1262.5,0.5,115,120.0
7110,F#4,1262.531,0.5,115,120.0
7111,B1,1263.0,1.0,115,120.0
7112,D4,1263.0,1.0,115,120.0
7113,B-2,1263.0,0.25,115,120.0
7114,C2,1263.0,0.25,115,120.0
7115,D4,1263.031,0.969,115,120.0
7116,D2,1263.5,0.25,115,120.0
7117,B-2,1264.0,0.25,115,120.0
7118,E1,1264.0,0.5,115,120.0
7119,D4,1264.0,1.0,115,120.0
7120,D4,1264.0,1.031,115,120.0
7121,C2,1264.5,0.25,115,120.0
7122,E1,1264.5,0.5,115,120.0
7123,A1,1265.0,1.0,115,120.0
7124,B3,1265.0,1.0,115,120.0
7125,D2,1265.0,0.25,115,120.0
7126,B-2,1265.0,0.25,115,120.0
7127,B3,1265.031,1.0,115,120.0
7128,D2,1266.0,1.0,115,120.0
7129,D4,1266.0,1.0,115,120.0
7130,B-2,1266.0,0.25,115,120.0
7131,C2,1266.0,0.25,115,120.0
7132,D4,1266.031,1.0,115,120.0
7133,E2,1267.0,1.0,115,120.0
7134,E4,1267.0,1.0,115,120.0
7135,C2,1267.0,0.25,115,120.0
7136,B-2,1267.0,0.25,115,120.0
7137,E4,1267.031,0.969,115,120.0
7138,B-2,1268.0,0.25,115,120.0
7139,E1,1268.0,0.5,115,120.0
7140,E4,1268.0,3.0,115,120.0
7141,E4,1268.0,3.031,115,120.0
7142,E1,1268.5,0.5,115,120.0
7143,E2,1269.0,1.0,115,120.0
7144,B-2,1269.0,0.25,115,120.0
7145,D2,1269.0,0.25,115,120.0
7146,B-2,1270.0,0.25,115,120.0
7147,E1,1270.0,0.5,115,120.0
7148,E1,1270.5,0.5,115,120.0
7149,E2,1271.0,1.0,115,120.0
7150,F#4,1271.0,1.0,115,120.0
7151,B-2,1271.0,0.25,115,120.0
7152,C2,1271.0,0.25,115,120.0
7153,F#4,1271.031,0.969,115,120.0
7154,D2,1271.5,0.25,115,120.0
7155,B-2,1272.0,0.25,115,120.0
7156,E1,1272.0,0.5,115,120.0
7157,F#4,1272.0,1.0,115,120.0
7158,F#4,1272.0,1.031,115,120.0
7159,C2,1272.5,0.25,115,120.0
7160,E1,1272.5,0.5,115,120.0
7161,E2,1273.0,1.0,115,120.0
7162,G4,1273.0,1.0,115,120.0
7163,D2,1273.0,0.25,115,120.0
7164,B-2,1273.0,0.25,115,120.0
7165,G4,1273.031,1.0,115,120.0
7166,E1,1274.0,0.5,115,120.0
7167,F#4,1274.0,0.5,115,120.0
7168,B-2,1274.0,0.25,115,120.0
7169,C2,1274.0,0.25,115,120.0
7170,F#4,1274.031,0.5,115,120.0
7171,E1,1274.5,0.5,115,120.0
7172,G4,1274.5,0.5,115,120.0
7173,G4,1274.531,0.5,115,120.0
7174,D2,1275.0,1.0,115,120.0
7175,A4,1275.0,1.0,115,120.0
7176,C2,1275.0,0.25,115,120.0
7177,B-2,1275.0,0.25,115,120.0
7178,A4,1275.031,0.969,115,120.0
7179,B-2,1276.0,0.25,115,120.0
7180,E1,1276.0,0.5,115,120.0
7181,A4,1276.0,2.0,115,120.0
7182,A4,1276.0,2.031,115,120.0
7183,E1,1276.5,0.5,115,120.0
7184,D2,1277.0,1.0,115,120.0
7185,B-2,1277.0,0.25,115,120.0
7186,D2,1277.0,0.25,115,120.0
7187,B-2,1278.0,0.25,115,120.0
7188,E1,1278.0,0.5,115,120.0
7189,A4,1278.0,0.5,115,120.0
7190,A4,1278.031,0.5,115,120.0
7191,E1,1278.5,0.5,115,120.0
7192,G4,1278.5,0.5,115,120.0
7193,G4,1278.531,0.5,115,120.0
7194,B1,1279.0,1.0,115,120.0
7195,D4,1279.0,1.0,115,120.0
7196,B-2,1279.0,0.25,115,120.0
7197,C2,1279.0,0.25,115,120.0
7198,D4,1279.031,0.969,115,120.0
7199,D2,1279.5,0.25,115,120.0
7200,B-2,1280.0,0.25,115,120.0
7201,E1,1280.0,0.5,115,120.0
7202,D4,1280.0,1.0,115,120.0
7203,D4,1280.0,1.031,115,120.0
7204,C2,1280.5,0.25,115,120.0
7205,E1,1280.5,0.5,115,120.0
7206,A1,1281.0,1.0,115,120.0
7207,B3,1281.0,1.0,115,120.0
7208,D2,1281.0,0.25,115,120.0
7209,B-2,1281.0,0.25,115,120.0
7210,B3,1281.031,1.0,115,120.0
7211,D2,1282.0,1.0,115,120.0
7212,D4,1282.0,1.0,115,120.0
7213,B-2,1282.0,0.25,115,120.0
7214,C2,1282.0,0.25,115,120.0
7215,D4,1282.031,1.0,115,120.0
7216,E2,1283.0,1.0,115,120.0
7217,E4,1283.0,1.0,115,120.0
7218,C2,1283.0,0.25,115,120.0
7219,B-2,1283.0,0.25,115,120.0
7220,E4,1283.031,0.969,115,120.0
7221,B-2,1284.0,0.25,115,120.0
7222,E1,1284.0,0.5,115,120.0
7223,E4,1284.0,3.0,115,120.0
7224,E4,1284.0,3.031,115,120.0
7225,E1,1284.5,0.5,115,120.0
7226,E2,1285.0,1.0,115,120.0
7227,B-2,1285.0,0.25,115,120.0
7228,D2,1285.0,0.25,115,120.0
7229,B-2,1286.0,0.25,115,120.0
7230,E1,1286.0,0.5,115,120.0
7231,E1,1286.5,0.5,115,120.0
7232,E2,1287.0,1.0,115,120.0
7233,F#4,1287.0,1.0,115,120.0
7234,B-2,1287.0,0.25,115,120.0
7235,C2,1287.0,0.25,115,120.0
7236,F#4,1287.031,0.969,115,120.0
7237,D2,1287.5,0.25,115,120.0
7238,B-2,1288.0,0.25,115,120.0
7239,E1,1288.0,0.5,115,120.0
7240,F#4,1288.0,1.0,115,120.0
7241,F#4,1288.0,1.031,115,120.0
7242,C2,1288.5,0.25,115,120.0
7243,E1,1288.5,0.5,115,120.0
7244,E2,1289.0,1.0,115,120.0
7245,G4,1289.0,1.0,115,120.0
7246,D2,1289.0,0.25,115,120.0
7247,B-2,1289.0,0.25,115,120.0
7248,G4,1289.031,1.0,115,120.0
7249,E1,1290.0,0.5,115,120.0
7250,F#4,1290.0,0.5,115,120.0
7251,B-2,1290.0,0.25,115,120.0
7252,C2,1290.0,0.25,115,120.0
7253,F#4,1290.031,0.5,115,120.0
7254,E1,1290.5,0.5,115,120.0
7255,G4,1290.5,0.5,115,120.0
7256,G4,1290.531,0.5,115,120.0
7257,D2,1291.0,1.0,115,120.0
7258,F#4,1291.0,1.0,115,120.0
7259,C2,1291.0,0.25,115,120.0
7260,B-2,1291.0,0.25,115,120.0
7261,F#4,1291.031,0.969,115,120.0
7262,B-2,1292.0,0.25,115,120.0
7263,E1,1292.0,0.5,115,120.0
7264,F#4,1292.0,2.0,115,120.0
7265,F#4,1292.0,2.031,115,120.0
7266,E1,1292.5,0.5,115,120.0
7267,D2,1293.0,1.0,115,120.0
7268,B-2,1293.0,0.25,115,120.0
7269,D2,1293.0,0.25,115,120.0
7270,B-2,1294.0,0.25,115,120.0
7271,E1,1294.0,0.5,115,120.0
7272,G4,1294.0,0.5,115,120.0
7273,G4,1294.031,0.5,115,120.0
7274,E1,1294.5,0.5,115,120.0
7275,F#4,1294.5,0.5,115,120.0
7276,F#4,1294.531,0.5,115,120.0
7277,B1,1295.0,1.0,115,120.0
7278,D4,1295.0,1.0,115,120.0
7279,B-2,1295.0,0.25,115,120.0
7280,C2,1295.0,0.25,115,120.0
7281,D4,1295.031,0.969,115,120.0
7282,D2,1295.5,0.25,115,120.0
7283,B-2,1296.0,0.25,115,120.0
7284,E1,1296.0,0.5,115,120.0
7285,D4,1296.0,1.0,115,120.0
7286,D4,1296.0,1.031,115,120.0
7287,C2,1296.5,0.25,115,120.0
7288,E1,1296.5,0.5,115,120.0
7289,A1,1297.0,1.0,115,120.0
7290,B3,1297.0,1.0,115,120.0
7291,D2,1297.0,0.25,115,120.0
7292,B-2,1297.0,0.25,115,120.0
7293,B3,1297.031,1.0,115,120.0
7294,D2,1298.0,1.0,115,120.0
7295,D4,1298.0,1.0,115,120.0
7296,B-2,1298.0,0.25,115,120.0
7297,C2,1298.0,0.25,115,120.0
7298,D4,1298.031,1.0,115,120.0
7299,E2,1299.0,1.0,115,120.0
7300,E4,1299.0,1.0,115,120.0
7301,C2,1299.0,0.25,115,120.0
7302,B-2,1299.0,0.25,115,120.0
7303,E4,1299.031,0.969,115,120.0
7304,B-2,1300.0,0.25,115,120.0
7305,E1,1300.0,0.5,115,120.0
7306,E4,1300.0,3.0,115,120.0
7307,E4,1300.0,3.031,115,120.0
7308,E1,1300.5,0.5,115,120.0
7309,E2,1301.0,1.0,115,120.0
7310,B-2,1301.0,0.25,115,120.0
7311,D2,1301.0,0.25,115,120.0
7312,B-2,1302.0,0.25,115,120.0
7313,E1,1302.0,0.5,115,120.0
7314,E1,1302.5,0.5,115,120.0
7315,E2,1303.0,1.0,115,120.0
7316,F#4,1303.0,1.0,115,120.0
7317,B-2,1303.0,0.25,115,120.0
7318,C2,1303.0,0.25,115,120.0
7319,F#4,1303.031,0.969,115,120.0
7320,D2,1303.5,0.25,115,120.0
7321,B-2,1304.0,0.25,115,120.0
7322,E1,1304.0,0.5,115,120.0
7323,F#4,1304.0,1.0,115,120.0
7324,F#4,1304.0,1.031,115,120.0
7325,C2,1304.5,0.25,115,120.0
7326,E1,1304.5,0.5,115,120.0
7327,E2,1305.0,1.0,115,120.0
7328,G4,1305.0,1.0,115,120.0
7329,D2,1305.0,0.25,115,120.0
7330,B-2,1305.0,0.25,115,120.0
7331,G4,1305.031,1.0,115,120.0
7332,E1,1306.0,0.5,115,120.0
7333,F#4,1306.0,0.5,115,120.0
7334,B-2,1306.0,0.25,115,120.0
7335,C2,1306.0,0.25,115,120.0
7336,F#4,1306.031,0.5,115,120.0
7337,E1,1306.5,0.5,115,120.0
7338,G4,1306.5,0.5,115,120.0
7339,G4,1306.531,0.5,115,120.0
7340,D2,1307.0,1.0,115,120.0
7341,A4,1307.0,1.0,115,120.0
7342,C2,1307.0,0.25,115,120.0
7343,B-2,1307.0,0.25,115,120.0
7344,A4,1307.031,0.969,115,120.0
7345,B-2,1308.0,0.25,115,120.0
7346,E1,1308.0,0.5,115,120.0
7347,A4,1308.0,3.0,115,120.0
7348,A4,1308.0,3.031,115,120.0
7349,E1,1308.5,0.5,115,120.0
7350,D2,1309.0,1.0,115,120.0
7351,B-2,1309.0,0.25,115,120.0
7352,D2,1309.0,0.25,115,120.0
7353,B-2,1310.0,0.25,115,120.0
7354,E1,1310.0,0.5,115,120.0
7355,E1,1310.5,0.5,115,120.0
7356,B1,1311.0,1.0,115,120.0
7357,B3,1311.0,1.0,115,120.0
7358,B-2,1311.0,0.25,115,120.0
7359,C2,1311.0,0.25,115,120.0
7360,B3,1311.031,0.969,115,120.0
7361,D2,1311.5,0.25,115,120.0
7362,E1,1312.0,0.5,115,120.0
7363,B3,1312.0,3.0,115,120.0
7364,B3,1312.0,3.031,115,120.0
7365,B-2,1312.0,0.25,115,120.0
7366,D2,1312.0,0.25,115,120.0
7367,D2,1312.5,0.25,115,120.0
7368,E1,1312.5,0.5,115,120.0
7369,A1,1313.0,1.0,115,120.0
7370,D2,1313.0,0.25,115,120.0
7371,B-2,1313.0,0.25,115,120.0
7372,C2,1313.5,0.25,115,120.0
7373,D2,1314.0,1.0,115,120.0
7374,B-2,1314.0,0.25,115,120.0
7375,D2,1314.0,0.25,115,120.0
7376,C2,1314.5,0.25,115,120.0
7377,E1,1315.0,1.0,115,120.0
7378,C2,1315.0,0.25,115,120.0
7379,C#3,1315.0,0.25,115,120.0
7380,E2,1315.0,1.0,115,120.0
7381,B2,1315.0,1.0,115,120.0
7382,E3,1315.0,1.0,115,120.0
7383,E2,1315.031,0.969,115,120.0
7384,B2,1315.031,0.969,115,120.0
7385,E3,1315.031,0.969,115,120.0
7386,E1,1316.0,3.0,115,120.0
7387,E2,1316.0,1.031,115,120.0
7388,B2,1316.0,1.031,115,120.0
7389,E3,1316.0,1.031,115,120.0
7390,E2,1317.0,1.0,115,120.0
7391,B2,1317.0,1.0,115,120.0
7392,E3,1317.0,1.0,115,120.0
7393,E2,1344.806,0.969,115,120.0
7394,B2,1344.806,0.969,115,120.0
7395,E3,1344.806,0.969,115,120.0
7396,E2,1345.775,3.031,115,120.0
7397,B2,1345.775,3.031,115,120.0
7398,E3,1345.775,3.031,115,120.0
7399,E3,1354.575,1.0,115,120.0
7400,B2,1354.575,1.0,115,120.0
7401,E2,1354.575,1.0,115,120.0
7402,E3,1355.575,3.0,115,120.0
7403,B2,1355.575,3.0,115,120.0
7404,E2,1355.575,3.0,115,120.0
