,note_name,start_time,duration,velocity,tempo
0,D4,0.0,4.0,95,115.0
1,D4,0.0,4.0,95,115.0
2,D4,16.0,4.0,95,115.0
3,D4,16.0,4.0,95,115.0
4,D4,16.0,4.0,95,115.0
5,D4,16.0,4.0,95,115.0
6,D3,16.0,4.0,95,115.0
7,A4,16.5,0.25,95,115.0
8,F3,16.5,0.25,95,115.0
9,G4,17.0,0.25,95,115.0
10,E3,17.0,0.25,95,115.0
11,F4,17.5,0.25,95,115.0
12,D3,17.5,0.25,95,115.0
13,E4,18.0,0.25,95,115.0
14,C3,18.0,0.25,95,115.0
15,F4,18.25,0.25,95,115.0
16,D3,18.25,0.25,95,115.0
17,E4,18.5,0.25,95,115.0
18,C3,18.5,0.25,95,115.0
19,D4,19.0,0.25,95,115.0
20,B-2,19.0,0.25,95,115.0
21,E4,19.5,0.5,95,115.0
22,C3,19.5,0.5,95,115.0
23,D4,20.0,4.0,95,115.0
24,D4,20.0,4.0,95,115.0
25,D3,20.0,4.0,95,115.0
26,A4,20.5,0.25,95,115.0
27,F3,20.5,0.25,95,115.0
28,G4,21.0,0.25,95,115.0
29,E3,21.0,0.25,95,115.0
30,F4,21.5,0.25,95,115.0
31,D3,21.5,0.25,95,115.0
32,E4,22.0,0.25,95,115.0
33,C3,22.0,0.25,95,115.0
34,F4,22.25,0.25,95,115.0
35,D3,22.25,0.25,95,115.0
36,E4,22.5,0.25,95,115.0
37,C3,22.5,0.25,95,115.0
38,D4,23.0,0.25,95,115.0
39,B-2,23.0,0.25,95,115.0
40,C#4,23.5,0.5,95,115.0
41,A2,23.5,0.5,95,115.0
42,D4,24.0,4.0,95,115.0
43,D4,24.0,4.0,95,115.0
44,D3,24.0,4.0,95,115.0
45,A4,24.5,0.25,95,115.0
46,F3,24.5,0.25,95,115.0
47,G4,25.0,0.25,95,115.0
48,E3,25.0,0.25,95,115.0
49,F4,25.5,0.25,95,115.0
50,D3,25.5,0.25,95,115.0
51,E4,26.0,0.25,95,115.0
52,C3,26.0,0.25,95,115.0
53,F4,26.25,0.25,95,115.0
54,D3,26.25,0.25,95,115.0
55,E4,26.5,0.25,95,115.0
56,C3,26.5,0.25,95,115.0
57,D4,27.0,0.25,95,115.0
58,B-2,27.0,0.25,95,115.0
59,E4,27.5,0.5,95,115.0
60,C3,27.5,0.5,95,115.0
61,D4,28.0,4.0,95,115.0
62,D4,28.0,4.0,95,115.0
63,D4,28.0,4.0,95,115.0
64,D4,28.0,4.0,95,115.0
65,D3,28.0,4.0,95,115.0
66,A4,28.5,0.25,95,115.0
67,F3,28.5,0.25,95,115.0
68,G4,29.0,0.25,95,115.0
69,E3,29.0,0.25,95,115.0
70,F4,29.5,0.25,95,115.0
71,D3,29.5,0.25,95,115.0
72,E4,30.0,0.25,95,115.0
73,C3,30.0,0.25,95,115.0
74,F4,30.25,0.25,95,115.0
75,D3,30.25,0.25,95,115.0
76,E4,30.5,0.25,95,115.0
77,C3,30.5,0.25,95,115.0
78,D4,31.0,0.25,95,115.0
79,B-2,31.0,0.25,95,115.0
80,C#4,31.5,0.5,95,115.0
81,A2,31.5,0.5,95,115.0
82,D4,31.5,0.5,127,115.0
83,A4,32.0,0.5,127,115.0
84,D4,32.0,4.0,95,115.0
85,D4,32.0,4.0,95,115.0
86,D3,32.0,4.0,95,115.0
87,A4,32.5,0.25,95,115.0
88,F3,32.5,0.25,95,115.0
89,A4,32.5,0.75,127,115.0
90,G4,33.0,0.25,95,115.0
91,E3,33.0,0.25,95,115.0
92,F4,33.5,0.25,95,115.0
93,D3,33.5,0.25,95,115.0
94,E4,34.0,0.25,95,115.0
95,C3,34.0,0.25,95,115.0
96,F4,34.25,0.25,95,115.0
97,D3,34.25,0.25,95,115.0
98,E4,34.5,0.25,95,115.0
99,C3,34.5,0.25,95,115.0
100,G4,34.5,0.5,127,115.0
101,D4,35.0,0.25,95,115.0
102,B-2,35.0,0.25,95,115.0
103,F4,35.0,0.5,127,115.0
104,E4,35.5,0.5,95,115.0
105,C3,35.5,0.5,95,115.0
106,G4,35.5,0.5,127,115.0
107,G4,36.0,0.5,127,115.0
108,D4,36.0,4.0,95,115.0
109,D4,36.0,4.0,95,115.0
110,D4,36.0,4.0,95,115.0
111,D4,36.0,4.0,95,115.0
112,D3,36.0,4.0,95,115.0
113,A4,36.5,0.25,95,115.0
114,F3,36.5,0.25,95,115.0
115,A4,36.5,0.75,127,115.0
116,G4,37.0,0.25,95,115.0
117,E3,37.0,0.25,95,115.0
118,F4,37.5,0.25,95,115.0
119,D3,37.5,0.25,95,115.0
120,E4,38.0,0.25,95,115.0
121,C3,38.0,0.25,95,115.0
122,F4,38.25,0.25,95,115.0
123,D3,38.25,0.25,95,115.0
124,E4,38.5,0.25,95,115.0
125,C3,38.5,0.25,95,115.0
126,D4,39.0,0.25,95,115.0
127,B-2,39.0,0.25,95,115.0
128,D4,39.0,0.5,127,115.0
129,C#4,39.5,0.5,95,115.0
130,A2,39.5,0.5,95,115.0
131,D4,39.5,0.5,127,115.0
132,A4,40.0,0.75,127,115.0
133,D4,40.0,4.0,95,115.0
134,D4,40.0,4.0,95,115.0
135,D4,40.0,4.0,95,115.0
136,D4,40.0,4.0,95,115.0
137,D3,40.0,4.0,95,115.0
138,A4,40.5,0.25,95,115.0
139,F3,40.5,0.25,95,115.0
140,G4,41.0,0.25,95,115.0
141,E3,41.0,0.25,95,115.0
142,F4,41.5,0.25,95,115.0
143,D3,41.5,0.25,95,115.0
144,F4,41.5,0.5,127,115.0
145,E4,42.0,0.25,95,115.0
146,C3,42.0,0.25,95,115.0
147,D4,42.0,0.75,127,115.0
148,F4,42.25,0.25,95,115.0
149,D3,42.25,0.25,95,115.0
150,E4,42.5,0.25,95,115.0
151,C3,42.5,0.25,95,115.0
152,D4,43.0,0.25,95,115.0
153,B-2,43.0,0.25,95,115.0
154,F4,43.0,0.5,127,115.0
155,E4,43.5,0.5,95,115.0
156,C3,43.5,0.5,95,115.0
157,C4,43.5,0.5,127,115.0
158,D4,44.0,1.75,127,115.0
159,D4,44.0,4.0,95,115.0
160,D4,44.0,4.0,95,115.0
161,D3,44.0,4.0,95,115.0
162,A4,44.5,0.25,95,115.0
163,F3,44.5,0.25,95,115.0
164,G4,45.0,0.25,95,115.0
165,E3,45.0,0.25,95,115.0
166,F4,45.5,0.25,95,115.0
167,D3,45.5,0.25,95,115.0
168,E4,46.0,0.25,95,115.0
169,C3,46.0,0.25,95,115.0
170,F4,46.25,0.25,95,115.0
171,D3,46.25,0.25,95,115.0
172,E4,46.5,0.25,95,115.0
173,C3,46.5,0.25,95,115.0
174,D4,47.0,0.25,95,115.0
175,B-2,47.0,0.25,95,115.0
176,C#4,47.5,0.5,95,115.0
177,A2,47.5,0.5,95,115.0
178,D4,47.5,0.5,127,115.0
179,A4,48.0,0.5,127,115.0
180,D4,48.0,4.0,95,115.0
181,D4,48.0,4.0,95,115.0
182,D4,48.0,4.0,95,115.0
183,D4,48.0,4.0,95,115.0
184,D3,48.0,4.0,95,115.0
185,A4,48.5,0.25,95,115.0
186,F3,48.5,0.25,95,115.0
187,A4,48.5,0.75,127,115.0
188,G4,49.0,0.25,95,115.0
189,E3,49.0,0.25,95,115.0
190,F4,49.5,0.25,95,115.0
191,D3,49.5,0.25,95,115.0
192,E4,50.0,0.25,95,115.0
193,C3,50.0,0.25,95,115.0
194,F4,50.25,0.25,95,115.0
195,D3,50.25,0.25,95,115.0
196,E4,50.5,0.25,95,115.0
197,C3,50.5,0.25,95,115.0
198,G4,50.5,0.5,127,115.0
199,D4,51.0,0.25,95,115.0
200,B-2,51.0,0.25,95,115.0
201,F4,51.0,0.5,127,115.0
202,E4,51.5,0.5,95,115.0
203,C3,51.5,0.5,95,115.0
204,G4,51.5,0.5,127,115.0
205,G4,52.0,0.5,127,115.0
206,D4,52.0,4.0,95,115.0
207,D4,52.0,4.0,95,115.0
208,D4,52.0,4.0,95,115.0
209,D4,52.0,4.0,95,115.0
210,D3,52.0,4.0,95,115.0
211,A4,52.5,0.25,95,115.0
212,F3,52.5,0.25,95,115.0
213,A4,52.5,0.75,127,115.0
214,G4,53.0,0.25,95,115.0
215,E3,53.0,0.25,95,115.0
216,F4,53.5,0.25,95,115.0
217,D3,53.5,0.25,95,115.0
218,E4,54.0,0.25,95,115.0
219,C3,54.0,0.25,95,115.0
220,F4,54.25,0.25,95,115.0
221,D3,54.25,0.25,95,115.0
222,E4,54.5,0.25,95,115.0
223,C3,54.5,0.25,95,115.0
224,D4,55.0,0.25,95,115.0
225,B-2,55.0,0.25,95,115.0
226,D4,55.0,0.5,127,115.0
227,C#4,55.5,0.5,95,115.0
228,A2,55.5,0.5,95,115.0
229,D4,55.5,0.5,127,115.0
230,A4,56.0,0.5,127,115.0
231,D4,56.0,4.0,95,115.0
232,D4,56.0,4.0,95,115.0
233,D3,56.0,4.0,95,115.0
234,A4,56.5,0.25,95,115.0
235,F3,56.5,0.25,95,115.0
236,A4,56.5,0.75,127,115.0
237,G4,57.0,0.25,95,115.0
238,E3,57.0,0.25,95,115.0
239,F4,57.5,0.25,95,115.0
240,D3,57.5,0.25,95,115.0
241,E4,58.0,0.25,95,115.0
242,C3,58.0,0.25,95,115.0
243,D4,58.0,0.75,127,115.0
244,F4,58.25,0.25,95,115.0
245,D3,58.25,0.25,95,115.0
246,E4,58.5,0.25,95,115.0
247,C3,58.5,0.25,95,115.0
248,D4,59.0,0.25,95,115.0
249,B-2,59.0,0.25,95,115.0
250,F4,59.0,0.5,127,115.0
251,E4,59.5,0.5,95,115.0
252,C3,59.5,0.5,95,115.0
253,D4,59.5,0.5,127,115.0
254,D4,60.0,1.5,127,115.0
255,D4,60.0,4.0,95,115.0
256,D4,60.0,4.0,95,115.0
257,D4,60.0,4.0,95,115.0
258,D4,60.0,4.0,95,115.0
259,D3,60.0,4.0,95,115.0
260,A4,60.5,0.25,95,115.0
261,F3,60.5,0.25,95,115.0
262,G4,61.0,0.25,95,115.0
263,E3,61.0,0.25,95,115.0
264,F4,61.5,0.25,95,115.0
265,D3,61.5,0.25,95,115.0
266,E4,62.0,0.25,95,115.0
267,C3,62.0,0.25,95,115.0
268,F4,62.25,0.25,95,115.0
269,D3,62.25,0.25,95,115.0
270,E4,62.5,0.25,95,115.0
271,C3,62.5,0.25,95,115.0
272,B3,62.5,0.5,95,115.0
273,D4,63.0,0.25,95,115.0
274,B-2,63.0,0.25,95,115.0
275,B-3,63.0,0.75,95,115.0
276,C#4,63.5,0.5,95,115.0
277,A2,63.5,0.5,95,115.0
278,B-4,64.0,0.75,127,115.0
279,D4,64.0,4.0,95,115.0
280,D4,64.0,4.0,95,115.0
281,D4,64.0,4.0,95,115.0
282,D4,64.0,4.0,95,115.0
283,D3,64.0,4.0,95,115.0
284,A4,64.5,0.25,95,115.0
285,F3,64.5,0.25,95,115.0
286,G4,65.0,0.25,95,115.0
287,E3,65.0,0.25,95,115.0
288,B-4,65.0,0.5,127,115.0
289,F4,65.5,0.25,95,115.0
290,D3,65.5,0.25,95,115.0
291,B-4,65.5,0.5,127,115.0
292,E4,66.0,0.25,95,115.0
293,C3,66.0,0.25,95,115.0
294,F4,66.25,0.25,95,115.0
295,D3,66.25,0.25,95,115.0
296,E4,66.5,0.25,95,115.0
297,C3,66.5,0.25,95,115.0
298,D4,67.0,0.25,95,115.0
299,B-2,67.0,0.25,95,115.0
300,E4,67.5,0.5,95,115.0
301,C3,67.5,0.5,95,115.0
302,D4,67.5,0.5,127,115.0
303,F4,68.0,0.5,127,115.0
304,D4,68.0,4.0,95,115.0
305,D4,68.0,4.0,95,115.0
306,D3,68.0,4.0,95,115.0
307,A4,68.5,0.25,95,115.0
308,F3,68.5,0.25,95,115.0
309,A4,68.5,1.0,127,115.0
310,G4,69.0,0.25,95,115.0
311,E3,69.0,0.25,95,115.0
312,F4,69.5,0.25,95,115.0
313,D3,69.5,0.25,95,115.0
314,F4,69.5,0.25,127,115.0
315,F4,69.75,0.25,127,115.0
316,E4,70.0,0.25,95,115.0
317,C3,70.0,0.25,95,115.0
318,G4,70.0,0.5,127,115.0
319,F4,70.25,0.25,95,115.0
320,D3,70.25,0.25,95,115.0
321,E4,70.5,0.25,95,115.0
322,C3,70.5,0.25,95,115.0
323,A4,70.5,1.0,127,115.0
324,D4,71.0,0.25,95,115.0
325,B-2,71.0,0.25,95,115.0
326,C#4,71.5,0.5,95,115.0
327,A2,71.5,0.5,95,115.0
328,G4,71.5,0.25,127,115.0
329,A4,71.75,0.25,127,115.0
330,A4,72.0,3.75,127,115.0
331,D4,72.0,4.0,95,115.0
332,D4,72.0,4.0,95,115.0
333,D4,72.0,4.0,95,115.0
334,D4,72.0,4.0,95,115.0
335,D3,72.0,4.0,95,115.0
336,A4,72.5,0.25,95,115.0
337,F3,72.5,0.25,95,115.0
338,G4,73.0,0.25,95,115.0
339,E3,73.0,0.25,95,115.0
340,F4,73.5,0.25,95,115.0
341,D3,73.5,0.25,95,115.0
342,E4,74.0,0.25,95,115.0
343,C3,74.0,0.25,95,115.0
344,F4,74.25,0.25,95,115.0
345,D3,74.25,0.25,95,115.0
346,E4,74.5,0.25,95,115.0
347,C3,74.5,0.25,95,115.0
348,D4,75.0,0.25,95,115.0
349,B-2,75.0,0.25,95,115.0
350,E4,75.5,0.5,95,115.0
351,C3,75.5,0.5,95,115.0
352,D4,76.0,4.0,95,115.0
353,D4,76.0,4.0,95,115.0
354,D4,76.0,4.0,95,115.0
355,D4,76.0,4.0,95,115.0
356,D3,76.0,4.0,95,115.0
357,A4,76.5,0.25,95,115.0
358,F3,76.5,0.25,95,115.0
359,G4,77.0,0.25,95,115.0
360,E3,77.0,0.25,95,115.0
361,F4,77.5,0.25,95,115.0
362,D3,77.5,0.25,95,115.0
363,E4,78.0,0.25,95,115.0
364,C3,78.0,0.25,95,115.0
365,F4,78.25,0.25,95,115.0
366,D3,78.25,0.25,95,115.0
367,E4,78.5,0.25,95,115.0
368,C3,78.5,0.25,95,115.0
369,D4,79.0,0.25,95,115.0
370,B-2,79.0,0.25,95,115.0
371,A4,79.0,0.5,127,115.0
372,C#4,79.5,0.5,95,115.0
373,A2,79.5,0.5,95,115.0
374,B-4,79.5,0.5,127,115.0
375,B-4,80.0,0.75,127,115.0
376,D4,80.0,4.0,95,115.0
377,D4,80.0,4.0,95,115.0
378,D3,80.0,4.0,95,115.0
379,A4,80.5,0.25,95,115.0
380,F3,80.5,0.25,95,115.0
381,G4,81.0,0.25,95,115.0
382,E3,81.0,0.25,95,115.0
383,B-4,81.0,0.5,127,115.0
384,F4,81.5,0.25,95,115.0
385,D3,81.5,0.25,95,115.0
386,B-4,81.5,0.5,127,115.0
387,E4,82.0,0.25,95,115.0
388,C3,82.0,0.25,95,115.0
389,F4,82.25,0.25,95,115.0
390,D3,82.25,0.25,95,115.0
391,E4,82.5,0.25,95,115.0
392,C3,82.5,0.25,95,115.0
393,D4,83.0,0.25,95,115.0
394,B-2,83.0,0.25,95,115.0
395,E4,83.5,0.5,95,115.0
396,C3,83.5,0.5,95,115.0
397,B-4,83.5,0.5,127,115.0
398,C5,84.0,0.75,127,115.0
399,D4,84.0,4.0,95,115.0
400,D4,84.0,4.0,95,115.0
401,D4,84.0,4.0,95,115.0
402,D4,84.0,4.0,95,115.0
403,D3,84.0,4.0,95,115.0
404,A4,84.5,0.25,95,115.0
405,F3,84.5,0.25,95,115.0
406,G4,85.0,0.25,95,115.0
407,E3,85.0,0.25,95,115.0
408,F4,85.5,0.25,95,115.0
409,D3,85.5,0.25,95,115.0
410,B-4,85.5,0.5,127,115.0
411,E4,86.0,0.25,95,115.0
412,C3,86.0,0.25,95,115.0
413,C5,86.0,0.5,127,115.0
414,F4,86.25,0.25,95,115.0
415,D3,86.25,0.25,95,115.0
416,E4,86.5,0.25,95,115.0
417,C3,86.5,0.25,95,115.0
418,B-4,86.5,1.0,127,115.0
419,D4,87.0,0.25,95,115.0
420,B-2,87.0,0.25,95,115.0
421,C#4,87.5,0.5,95,115.0
422,A2,87.5,0.5,95,115.0
423,A4,87.5,0.5,127,115.0
424,A4,88.0,4.0,127,115.0
425,D4,88.0,4.0,95,115.0
426,D4,88.0,4.0,95,115.0
427,D4,88.0,4.0,95,115.0
428,D4,88.0,4.0,95,115.0
429,D3,88.0,4.0,95,115.0
430,A4,88.5,0.25,95,115.0
431,F3,88.5,0.25,95,115.0
432,G4,89.0,0.25,95,115.0
433,E3,89.0,0.25,95,115.0
434,F4,89.5,0.25,95,115.0
435,D3,89.5,0.25,95,115.0
436,E4,90.0,0.25,95,115.0
437,C3,90.0,0.25,95,115.0
438,F4,90.25,0.25,95,115.0
439,D3,90.25,0.25,95,115.0
440,E4,90.5,0.25,95,115.0
441,C3,90.5,0.25,95,115.0
442,D4,91.0,0.25,95,115.0
443,B-2,91.0,0.25,95,115.0
444,E4,91.5,0.5,95,115.0
445,C3,91.5,0.5,95,115.0
446,A4,92.0,4.0,127,115.0
447,D4,92.0,4.0,95,115.0
448,D4,92.0,4.0,95,115.0
449,D3,92.0,4.0,95,115.0
450,A4,92.5,0.25,95,115.0
451,F3,92.5,0.25,95,115.0
452,G4,93.0,0.25,95,115.0
453,E3,93.0,0.25,95,115.0
454,F4,93.5,0.25,95,115.0
455,D3,93.5,0.25,95,115.0
456,E4,94.0,0.25,95,115.0
457,C3,94.0,0.25,95,115.0
458,F4,94.25,0.25,95,115.0
459,D3,94.25,0.25,95,115.0
460,E4,94.5,0.25,95,115.0
461,C3,94.5,0.25,95,115.0
462,D4,95.0,0.25,95,115.0
463,B-2,95.0,0.25,95,115.0
464,C#4,95.5,0.5,95,115.0
465,A2,95.5,0.5,95,115.0
466,C2,96.0,4.0,95,115.0
467,A3,96.0,0.5,95,115.0
468,D3,96.0,0.5,95,115.0
469,B1,96.0,0.25,95,115.0
470,E-3,96.0,0.25,95,115.0
471,D4,96.0,4.0,95,115.0
472,D4,96.0,4.0,95,115.0
473,B1,96.25,0.25,95,115.0
474,G4,96.5,1.0,95,115.0
475,A3,96.5,0.25,95,115.0
476,D3,96.5,0.25,95,115.0
477,B1,96.5,0.25,95,115.0
478,E-3,96.5,0.25,95,115.0
479,B1,96.75,0.25,95,115.0
480,A3,96.75,0.25,95,115.0
481,D3,96.75,0.25,95,115.0
482,A3,97.0,0.5,95,115.0
483,D3,97.0,0.5,95,115.0
484,B1,97.0,0.25,95,115.0
485,D2,97.0,0.25,95,115.0
486,E-3,97.0,0.25,95,115.0
487,B1,97.25,0.25,95,115.0
488,F4,97.5,0.5,95,115.0
489,A3,97.5,0.25,95,115.0
490,D3,97.5,0.25,95,115.0
491,B1,97.5,0.25,95,115.0
492,E-3,97.5,0.25,95,115.0
493,B1,97.75,0.25,95,115.0
494,A3,97.75,0.25,95,115.0
495,D3,97.75,0.25,95,115.0
496,E4,98.0,0.25,95,115.0
497,A3,98.0,0.5,95,115.0
498,D3,98.0,0.5,95,115.0
499,B1,98.0,0.25,95,115.0
500,E-3,98.0,0.25,95,115.0
501,F4,98.25,0.25,95,115.0
502,B1,98.25,0.25,95,115.0
503,E4,98.5,0.5,95,115.0
504,A3,98.5,0.25,95,115.0
505,D3,98.5,0.25,95,115.0
506,B1,98.5,0.25,95,115.0
507,E-3,98.5,0.25,95,115.0
508,B1,98.75,0.25,95,115.0
509,A3,98.75,0.25,95,115.0
510,D3,98.75,0.25,95,115.0
511,D4,99.0,0.5,95,115.0
512,A3,99.0,0.5,95,115.0
513,D3,99.0,0.5,95,115.0
514,B1,99.0,0.25,95,115.0
515,D2,99.0,0.25,95,115.0
516,E-3,99.0,0.25,95,115.0
517,B1,99.25,0.25,95,115.0
518,E4,99.5,0.5,95,115.0
519,A3,99.5,0.25,95,115.0
520,D3,99.5,0.25,95,115.0
521,B1,99.5,0.25,95,115.0
522,E-3,99.5,0.25,95,115.0
523,B1,99.75,0.25,95,115.0
524,A3,99.75,0.25,95,115.0
525,D3,99.75,0.25,95,115.0
526,B-1,100.0,4.0,95,115.0
527,F3,100.0,0.5,95,115.0
528,B-2,100.0,0.5,95,115.0
529,B1,100.0,0.25,95,115.0
530,E-3,100.0,0.25,95,115.0
531,D4,100.0,4.0,95,115.0
532,D4,100.0,4.0,95,115.0
533,B1,100.25,0.25,95,115.0
534,G4,100.5,1.0,95,115.0
535,F3,100.5,0.25,95,115.0
536,B-2,100.5,0.25,95,115.0
537,B1,100.5,0.25,95,115.0
538,E-3,100.5,0.25,95,115.0
539,B1,100.75,0.25,95,115.0
540,F3,100.75,0.25,95,115.0
541,B-2,100.75,0.25,95,115.0
542,F3,101.0,0.5,95,115.0
543,B-2,101.0,0.5,95,115.0
544,B1,101.0,0.25,95,115.0
545,D2,101.0,0.25,95,115.0
546,E-3,101.0,0.25,95,115.0
547,B1,101.25,0.25,95,115.0
548,F4,101.5,0.5,95,115.0
549,F3,101.5,0.25,95,115.0
550,B-2,101.5,0.25,95,115.0
551,B1,101.5,0.25,95,115.0
552,E-3,101.5,0.25,95,115.0
553,B1,101.75,0.25,95,115.0
554,F3,101.75,0.25,95,115.0
555,B-2,101.75,0.25,95,115.0
556,E4,102.0,0.25,95,115.0
557,F3,102.0,0.5,95,115.0
558,B-2,102.0,0.5,95,115.0
559,B1,102.0,0.25,95,115.0
560,E-3,102.0,0.25,95,115.0
561,F4,102.25,0.25,95,115.0
562,B1,102.25,0.25,95,115.0
563,E4,102.5,0.5,95,115.0
564,F3,102.5,0.25,95,115.0
565,B-2,102.5,0.25,95,115.0
566,B1,102.5,0.25,95,115.0
567,E-3,102.5,0.25,95,115.0
568,B1,102.75,0.25,95,115.0
569,F3,102.75,0.25,95,115.0
570,B-2,102.75,0.25,95,115.0
571,D4,103.0,0.5,95,115.0
572,F3,103.0,0.5,95,115.0
573,B-2,103.0,0.5,95,115.0
574,B1,103.0,0.25,95,115.0
575,D2,103.0,0.25,95,115.0
576,E-3,103.0,0.25,95,115.0
577,B1,103.25,0.25,95,115.0
578,C#4,103.5,0.5,95,115.0
579,F3,103.5,0.25,95,115.0
580,B-2,103.5,0.25,95,115.0
581,B1,103.5,0.25,95,115.0
582,E-3,103.5,0.25,95,115.0
583,B1,103.75,0.25,95,115.0
584,F3,103.75,0.25,95,115.0
585,B-2,103.75,0.25,95,115.0
586,B1,104.0,4.0,95,115.0
587,G3,104.0,0.5,95,115.0
588,C3,104.0,0.5,95,115.0
589,B1,104.0,0.25,95,115.0
590,E-3,104.0,0.25,95,115.0
591,B1,104.25,0.25,95,115.0
592,G4,104.5,1.0,95,115.0
593,G3,104.5,0.25,95,115.0
594,C3,104.5,0.25,95,115.0
595,B1,104.5,0.25,95,115.0
596,E-3,104.5,0.25,95,115.0
597,B1,104.75,0.25,95,115.0
598,G3,104.75,0.25,95,115.0
599,C3,104.75,0.25,95,115.0
600,G3,105.0,0.5,95,115.0
601,C3,105.0,0.5,95,115.0
602,B1,105.0,0.25,95,115.0
603,D2,105.0,0.25,95,115.0
604,E-3,105.0,0.25,95,115.0
605,B1,105.25,0.25,95,115.0
606,F4,105.5,0.5,95,115.0
607,G3,105.5,0.25,95,115.0
608,C3,105.5,0.25,95,115.0
609,B1,105.5,0.25,95,115.0
610,E-3,105.5,0.25,95,115.0
611,B1,105.75,0.25,95,115.0
612,G3,105.75,0.25,95,115.0
613,C3,105.75,0.25,95,115.0
614,E4,106.0,0.25,95,115.0
615,G3,106.0,0.5,95,115.0
616,C3,106.0,0.5,95,115.0
617,B1,106.0,0.25,95,115.0
618,E-3,106.0,0.25,95,115.0
619,F4,106.25,0.25,95,115.0
620,B1,106.25,0.25,95,115.0
621,E4,106.5,0.5,95,115.0
622,G3,106.5,0.25,95,115.0
623,C3,106.5,0.25,95,115.0
624,B1,106.5,0.25,95,115.0
625,E-3,106.5,0.25,95,115.0
626,B1,106.75,0.25,95,115.0
627,G3,106.75,0.25,95,115.0
628,C3,106.75,0.25,95,115.0
629,D4,107.0,0.5,95,115.0
630,G3,107.0,0.5,95,115.0
631,C3,107.0,0.5,95,115.0
632,B1,107.0,0.25,95,115.0
633,D2,107.0,0.25,95,115.0
634,E-3,107.0,0.25,95,115.0
635,B1,107.25,0.25,95,115.0
636,E4,107.5,0.5,95,115.0
637,G3,107.5,0.25,95,115.0
638,C3,107.5,0.25,95,115.0
639,B1,107.5,0.25,95,115.0
640,E-3,107.5,0.25,95,115.0
641,B1,107.75,0.25,95,115.0
642,G3,107.75,0.25,95,115.0
643,C3,107.75,0.25,95,115.0
644,G4,108.0,0.25,95,115.0
645,G1,108.0,0.5,95,115.0
646,A3,108.0,0.5,95,115.0
647,D3,108.0,0.5,95,115.0
648,C2,108.0,0.25,95,115.0
649,E-3,108.0,0.25,95,115.0
650,D4,108.0,4.0,95,115.0
651,D4,108.0,4.0,95,115.0
652,A4,108.25,0.25,95,115.0
653,C2,108.25,0.25,95,115.0
654,E-3,108.25,0.25,95,115.0
655,G4,108.5,0.25,95,115.0
656,G#1,108.5,0.5,95,115.0
657,A3,108.5,0.25,95,115.0
658,D3,108.5,0.25,95,115.0
659,C2,108.5,0.5,95,115.0
660,E-3,108.5,0.5,95,115.0
661,A4,108.75,0.25,95,115.0
662,A3,108.75,0.25,95,115.0
663,D3,108.75,0.25,95,115.0
664,G4,109.0,0.25,95,115.0
665,G1,109.0,0.5,95,115.0
666,D2,109.0,0.5,95,115.0
667,A3,109.0,0.5,95,115.0
668,D3,109.0,0.5,95,115.0
669,A4,109.25,0.25,95,115.0
670,G4,109.5,0.25,95,115.0
671,G#1,109.5,0.5,95,115.0
672,D2,109.5,0.5,95,115.0
673,A3,109.5,0.25,95,115.0
674,D3,109.5,0.25,95,115.0
675,A4,109.75,0.25,95,115.0
676,A3,109.75,0.25,95,115.0
677,D3,109.75,0.25,95,115.0
678,G4,110.0,0.25,95,115.0
679,F3,110.0,0.25,95,115.0
680,G1,110.0,0.5,95,115.0
681,D2,110.0,0.25,95,115.0
682,A4,110.25,0.25,95,115.0
683,E3,110.25,0.25,95,115.0
684,D2,110.25,0.25,95,115.0
685,G4,110.5,0.25,95,115.0
686,D3,110.5,0.5,95,115.0
687,G#1,110.5,0.5,95,115.0
688,D2,110.5,0.5,95,115.0
689,A4,110.75,0.25,95,115.0
690,G4,111.0,0.25,95,115.0
691,F3,111.0,0.25,95,115.0
692,G1,111.0,0.5,95,115.0
693,D2,111.0,0.25,95,115.0
694,A4,111.25,0.25,95,115.0
695,E3,111.25,0.25,95,115.0
696,D2,111.25,0.25,95,115.0
697,G4,111.5,0.25,95,115.0
698,D3,111.5,0.5,95,115.0
699,G#1,111.5,0.5,95,115.0
700,D2,111.5,0.5,95,115.0
701,A4,111.75,0.25,95,115.0
702,C2,112.0,4.0,95,115.0
703,A3,112.0,0.5,95,115.0
704,D3,112.0,0.5,95,115.0
705,B1,112.0,0.25,95,115.0
706,E-3,112.0,0.25,95,115.0
707,D4,112.0,4.0,95,115.0
708,D4,112.0,4.0,95,115.0
709,B1,112.25,0.25,95,115.0
710,G4,112.5,1.0,95,115.0
711,A3,112.5,0.25,95,115.0
712,D3,112.5,0.25,95,115.0
713,B1,112.5,0.25,95,115.0
714,E-3,112.5,0.25,95,115.0
715,B1,112.75,0.25,95,115.0
716,A3,112.75,0.25,95,115.0
717,D3,112.75,0.25,95,115.0
718,A3,113.0,0.5,95,115.0
719,D3,113.0,0.5,95,115.0
720,B1,113.0,0.25,95,115.0
721,D2,113.0,0.25,95,115.0
722,E-3,113.0,0.25,95,115.0
723,B1,113.25,0.25,95,115.0
724,F4,113.5,0.5,95,115.0
725,A3,113.5,0.25,95,115.0
726,D3,113.5,0.25,95,115.0
727,B1,113.5,0.25,95,115.0
728,E-3,113.5,0.25,95,115.0
729,B1,113.75,0.25,95,115.0
730,A3,113.75,0.25,95,115.0
731,D3,113.75,0.25,95,115.0
732,E4,114.0,0.25,95,115.0
733,A3,114.0,0.5,95,115.0
734,D3,114.0,0.5,95,115.0
735,B1,114.0,0.25,95,115.0
736,E-3,114.0,0.25,95,115.0
737,F4,114.25,0.25,95,115.0
738,B1,114.25,0.25,95,115.0
739,E4,114.5,0.5,95,115.0
740,A3,114.5,0.25,95,115.0
741,D3,114.5,0.25,95,115.0
742,B1,114.5,0.25,95,115.0
743,E-3,114.5,0.25,95,115.0
744,B1,114.75,0.25,95,115.0
745,A3,114.75,0.25,95,115.0
746,D3,114.75,0.25,95,115.0
747,D4,115.0,0.5,95,115.0
748,A3,115.0,0.5,95,115.0
749,D3,115.0,0.5,95,115.0
750,B1,115.0,0.25,95,115.0
751,D2,115.0,0.25,95,115.0
752,E-3,115.0,0.25,95,115.0
753,B1,115.25,0.25,95,115.0
754,E4,115.5,0.5,95,115.0
755,A3,115.5,0.25,95,115.0
756,D3,115.5,0.25,95,115.0
757,B1,115.5,0.25,95,115.0
758,E-3,115.5,0.25,95,115.0
759,B1,115.75,0.25,95,115.0
760,A3,115.75,0.25,95,115.0
761,D3,115.75,0.25,95,115.0
762,B-1,116.0,4.0,95,115.0
763,F3,116.0,0.5,95,115.0
764,B-2,116.0,0.5,95,115.0
765,B1,116.0,0.25,95,115.0
766,E-3,116.0,0.25,95,115.0
767,B1,116.25,0.25,95,115.0
768,G4,116.5,1.0,95,115.0
769,F3,116.5,0.25,95,115.0
770,B-2,116.5,0.25,95,115.0
771,B1,116.5,0.25,95,115.0
772,E-3,116.5,0.25,95,115.0
773,B1,116.75,0.25,95,115.0
774,F3,116.75,0.25,95,115.0
775,B-2,116.75,0.25,95,115.0
776,F3,117.0,0.5,95,115.0
777,B-2,117.0,0.5,95,115.0
778,B1,117.0,0.25,95,115.0
779,D2,117.0,0.25,95,115.0
780,E-3,117.0,0.25,95,115.0
781,B1,117.25,0.25,95,115.0
782,F4,117.5,0.5,95,115.0
783,F3,117.5,0.25,95,115.0
784,B-2,117.5,0.25,95,115.0
785,B1,117.5,0.25,95,115.0
786,E-3,117.5,0.25,95,115.0
787,B1,117.75,0.25,95,115.0
788,F3,117.75,0.25,95,115.0
789,B-2,117.75,0.25,95,115.0
790,E4,118.0,0.25,95,115.0
791,F3,118.0,0.5,95,115.0
792,B-2,118.0,0.5,95,115.0
793,B1,118.0,0.25,95,115.0
794,E-3,118.0,0.25,95,115.0
795,F4,118.25,0.25,95,115.0
796,B1,118.25,0.25,95,115.0
797,E4,118.5,0.5,95,115.0
798,F3,118.5,0.25,95,115.0
799,B-2,118.5,0.25,95,115.0
800,B1,118.5,0.25,95,115.0
801,E-3,118.5,0.25,95,115.0
802,B1,118.75,0.25,95,115.0
803,F3,118.75,0.25,95,115.0
804,B-2,118.75,0.25,95,115.0
805,D4,119.0,0.5,95,115.0
806,F3,119.0,0.5,95,115.0
807,B-2,119.0,0.5,95,115.0
808,B1,119.0,0.25,95,115.0
809,D2,119.0,0.25,95,115.0
810,E-3,119.0,0.25,95,115.0
811,B1,119.25,0.25,95,115.0
812,C#4,119.5,0.5,95,115.0
813,F3,119.5,0.25,95,115.0
814,B-2,119.5,0.25,95,115.0
815,B1,119.5,0.25,95,115.0
816,E-3,119.5,0.25,95,115.0
817,B1,119.75,0.25,95,115.0
818,F3,119.75,0.25,95,115.0
819,B-2,119.75,0.25,95,115.0
820,B1,120.0,4.0,95,115.0
821,G3,120.0,0.5,95,115.0
822,C3,120.0,0.5,95,115.0
823,B1,120.0,0.25,95,115.0
824,E-3,120.0,0.25,95,115.0
825,D4,120.0,4.0,95,115.0
826,D4,120.0,4.0,95,115.0
827,B1,120.25,0.25,95,115.0
828,G4,120.5,1.0,95,115.0
829,G3,120.5,0.25,95,115.0
830,C3,120.5,0.25,95,115.0
831,B1,120.5,0.25,95,115.0
832,E-3,120.5,0.25,95,115.0
833,B1,120.75,0.25,95,115.0
834,G3,120.75,0.25,95,115.0
835,C3,120.75,0.25,95,115.0
836,G3,121.0,0.5,95,115.0
837,C3,121.0,0.5,95,115.0
838,B1,121.0,0.25,95,115.0
839,D2,121.0,0.25,95,115.0
840,E-3,121.0,0.25,95,115.0
841,B1,121.25,0.25,95,115.0
842,F4,121.5,0.5,95,115.0
843,G3,121.5,0.25,95,115.0
844,C3,121.5,0.25,95,115.0
845,B1,121.5,0.25,95,115.0
846,E-3,121.5,0.25,95,115.0
847,B1,121.75,0.25,95,115.0
848,G3,121.75,0.25,95,115.0
849,C3,121.75,0.25,95,115.0
850,E4,122.0,0.25,95,115.0
851,G3,122.0,0.5,95,115.0
852,C3,122.0,0.5,95,115.0
853,B1,122.0,0.25,95,115.0
854,E-3,122.0,0.25,95,115.0
855,F4,122.25,0.25,95,115.0
856,B1,122.25,0.25,95,115.0
857,E4,122.5,0.5,95,115.0
858,G3,122.5,0.25,95,115.0
859,C3,122.5,0.25,95,115.0
860,B1,122.5,0.25,95,115.0
861,E-3,122.5,0.25,95,115.0
862,B1,122.75,0.25,95,115.0
863,G3,122.75,0.25,95,115.0
864,C3,122.75,0.25,95,115.0
865,D4,123.0,0.5,95,115.0
866,G3,123.0,0.5,95,115.0
867,C3,123.0,0.5,95,115.0
868,B1,123.0,0.25,95,115.0
869,D2,123.0,0.25,95,115.0
870,E-3,123.0,0.25,95,115.0
871,B1,123.25,0.25,95,115.0
872,E4,123.5,0.5,95,115.0
873,G3,123.5,0.25,95,115.0
874,C3,123.5,0.25,95,115.0
875,B1,123.5,0.25,95,115.0
876,E-3,123.5,0.25,95,115.0
877,B1,123.75,0.25,95,115.0
878,G3,123.75,0.25,95,115.0
879,C3,123.75,0.25,95,115.0
880,G4,124.0,0.25,95,115.0
881,G1,124.0,0.5,95,115.0
882,A3,124.0,0.5,95,115.0
883,D3,124.0,0.5,95,115.0
884,C2,124.0,0.25,95,115.0
885,E-3,124.0,0.25,95,115.0
886,D4,124.0,4.0,95,115.0
887,D4,124.0,4.0,95,115.0
888,A4,124.25,0.25,95,115.0
889,E-3,124.25,0.25,95,115.0
890,G4,124.5,0.25,95,115.0
891,G#1,124.5,0.5,95,115.0
892,E-3,124.5,0.5,95,115.0
893,A3,124.5,0.25,95,115.0
894,D3,124.5,0.25,95,115.0
895,A4,124.75,0.25,95,115.0
896,A3,124.75,0.25,95,115.0
897,D3,124.75,0.25,95,115.0
898,G4,125.0,0.25,95,115.0
899,G1,125.0,0.5,95,115.0
900,D2,125.0,0.5,95,115.0
901,A3,125.0,0.5,95,115.0
902,D3,125.0,0.5,95,115.0
903,A4,125.25,0.25,95,115.0
904,G4,125.5,0.25,95,115.0
905,G#1,125.5,0.5,95,115.0
906,D2,125.5,0.5,95,115.0
907,A3,125.5,0.25,95,115.0
908,D3,125.5,0.25,95,115.0
909,A4,125.75,0.25,95,115.0
910,A3,125.75,0.25,95,115.0
911,D3,125.75,0.25,95,115.0
912,G4,126.0,0.25,95,115.0
913,F3,126.0,0.25,95,115.0
914,G1,126.0,0.5,95,115.0
915,D2,126.0,0.25,95,115.0
916,A4,126.25,0.25,95,115.0
917,E3,126.25,0.25,95,115.0
918,D2,126.25,0.25,95,115.0
919,G4,126.5,0.25,95,115.0
920,D3,126.5,0.5,95,115.0
921,G#1,126.5,0.5,95,115.0
922,D2,126.5,0.5,95,115.0
923,A4,126.75,0.25,95,115.0
924,G4,127.0,0.25,95,115.0
925,F3,127.0,0.25,95,115.0
926,G1,127.0,0.5,95,115.0
927,B2,127.0,0.25,95,115.0
928,A4,127.25,0.25,95,115.0
929,E3,127.25,0.25,95,115.0
930,A2,127.25,0.25,95,115.0
931,G4,127.5,0.25,95,115.0
932,D3,127.5,0.5,95,115.0
933,G#1,127.5,0.5,95,115.0
934,G2,127.5,0.25,95,115.0
935,A4,127.75,0.25,95,115.0
936,F2,127.75,0.25,95,115.0
937,D3,128.0,0.25,95,115.0
938,D3,128.0,0.25,95,115.0
939,B1,128.0,0.25,95,115.0
940,E-3,128.0,0.25,95,115.0
941,C#3,128.0,0.25,95,115.0
942,E3,128.25,0.25,95,115.0
943,E3,128.25,0.25,95,115.0
944,B1,128.25,0.25,95,115.0
945,F3,128.5,0.25,95,115.0
946,F3,128.5,0.25,95,115.0
947,B1,128.5,0.25,95,115.0
948,E-3,128.5,0.25,95,115.0
949,E3,128.75,0.25,95,115.0
950,E3,128.75,0.25,95,115.0
951,B1,128.75,0.25,95,115.0
952,F3,129.0,0.25,95,115.0
953,F3,129.0,0.25,95,115.0
954,B1,129.0,0.25,95,115.0
955,D2,129.0,0.25,95,115.0
956,E-3,129.0,0.25,95,115.0
957,G3,129.25,0.25,95,115.0
958,G3,129.25,0.25,95,115.0
959,B1,129.25,0.25,95,115.0
960,F3,129.5,0.25,95,115.0
961,F3,129.5,0.25,95,115.0
962,B1,129.5,0.25,95,115.0
963,E-3,129.5,0.25,95,115.0
964,E3,129.75,0.25,95,115.0
965,E3,129.75,0.25,95,115.0
966,B1,129.75,0.25,95,115.0
967,A3,130.0,0.5,95,115.0
968,A3,130.0,0.5,95,115.0
969,B1,130.0,0.25,95,115.0
970,E-3,130.0,0.25,95,115.0
971,B1,130.25,0.25,95,115.0
972,F3,130.5,0.25,95,115.0
973,F3,130.5,0.25,95,115.0
974,B1,130.5,0.25,95,115.0
975,E-3,130.5,0.25,95,115.0
976,E3,130.75,0.25,95,115.0
977,E3,130.75,0.25,95,115.0
978,B1,130.75,0.25,95,115.0
979,F3,131.0,0.25,95,115.0
980,F3,131.0,0.25,95,115.0
981,B1,131.0,0.25,95,115.0
982,D2,131.0,0.25,95,115.0
983,E-3,131.0,0.25,95,115.0
984,E3,131.25,0.25,95,115.0
985,E3,131.25,0.25,95,115.0
986,B1,131.25,0.25,95,115.0
987,D3,131.5,0.5,95,115.0
988,D3,131.5,0.5,95,115.0
989,B1,131.5,0.25,95,115.0
990,E-3,131.5,0.25,95,115.0
991,B1,131.75,0.25,95,115.0
992,D3,132.0,0.25,95,115.0
993,D3,132.0,0.25,95,115.0
994,B1,132.0,0.25,95,115.0
995,E-3,132.0,0.25,95,115.0
996,C#3,132.0,0.25,95,115.0
997,D4,132.0,4.0,95,115.0
998,D4,132.0,4.0,95,115.0
999,D3,132.25,0.25,95,115.0
1000,D3,132.25,0.25,95,115.0
1001,B1,132.25,0.25,95,115.0
1002,E3,132.5,0.25,95,115.0
1003,E3,132.5,0.25,95,115.0
1004,B1,132.5,0.25,95,115.0
1005,E-3,132.5,0.25,95,115.0
1006,D3,132.75,0.25,95,115.0
1007,D3,132.75,0.25,95,115.0
1008,B1,132.75,0.25,95,115.0
1009,E3,133.0,0.25,95,115.0
1010,E3,133.0,0.25,95,115.0
1011,B1,133.0,0.25,95,115.0
1012,D2,133.0,0.25,95,115.0
1013,E-3,133.0,0.25,95,115.0
1014,F3,133.25,0.25,95,115.0
1015,F3,133.25,0.25,95,115.0
1016,B1,133.25,0.25,95,115.0
1017,E3,133.5,0.25,95,115.0
1018,E3,133.5,0.25,95,115.0
1019,B1,133.5,0.25,95,115.0
1020,E-3,133.5,0.25,95,115.0
1021,G3,133.75,0.25,95,115.0
1022,G3,133.75,0.25,95,115.0
1023,B1,133.75,0.25,95,115.0
1024,A3,134.0,0.5,95,115.0
1025,A3,134.0,0.5,95,115.0
1026,B1,134.0,0.25,95,115.0
1027,E-3,134.0,0.25,95,115.0
1028,B1,134.25,0.25,95,115.0
1029,F3,134.5,0.25,95,115.0
1030,F3,134.5,0.25,95,115.0
1031,B1,134.5,0.25,95,115.0
1032,E-3,134.5,0.25,95,115.0
1033,E3,134.75,0.25,95,115.0
1034,E3,134.75,0.25,95,115.0
1035,B1,134.75,0.25,95,115.0
1036,F3,135.0,0.25,95,115.0
1037,F3,135.0,0.25,95,115.0
1038,B1,135.0,0.25,95,115.0
1039,D2,135.0,0.25,95,115.0
1040,E-3,135.0,0.25,95,115.0
1041,E3,135.25,0.25,95,115.0
1042,E3,135.25,0.25,95,115.0
1043,B1,135.25,0.25,95,115.0
1044,D3,135.5,0.5,95,115.0
1045,D3,135.5,0.5,95,115.0
1046,B1,135.5,0.25,95,115.0
1047,E-3,135.5,0.25,95,115.0
1048,B1,135.75,0.25,95,115.0
1049,D3,136.0,0.25,95,115.0
1050,D3,136.0,0.25,95,115.0
1051,B1,136.0,0.25,95,115.0
1052,E-3,136.0,0.25,95,115.0
1053,C#3,136.0,0.25,95,115.0
1054,D4,136.0,4.0,95,115.0
1055,D4,136.0,4.0,95,115.0
1056,E3,136.25,0.25,95,115.0
1057,E3,136.25,0.25,95,115.0
1058,B1,136.25,0.25,95,115.0
1059,F3,136.5,0.25,95,115.0
1060,F3,136.5,0.25,95,115.0
1061,B1,136.5,0.25,95,115.0
1062,E-3,136.5,0.25,95,115.0
1063,E3,136.75,0.25,95,115.0
1064,E3,136.75,0.25,95,115.0
1065,B1,136.75,0.25,95,115.0
1066,F3,137.0,0.25,95,115.0
1067,F3,137.0,0.25,95,115.0
1068,B1,137.0,0.25,95,115.0
1069,D2,137.0,0.25,95,115.0
1070,E-3,137.0,0.25,95,115.0
1071,G3,137.25,0.25,95,115.0
1072,G3,137.25,0.25,95,115.0
1073,B1,137.25,0.25,95,115.0
1074,F3,137.5,0.25,95,115.0
1075,F3,137.5,0.25,95,115.0
1076,B1,137.5,0.25,95,115.0
1077,E-3,137.5,0.25,95,115.0
1078,E3,137.75,0.25,95,115.0
1079,E3,137.75,0.25,95,115.0
1080,B1,137.75,0.25,95,115.0
1081,A3,138.0,0.5,95,115.0
1082,A3,138.0,0.5,95,115.0
1083,B1,138.0,0.25,95,115.0
1084,E-3,138.0,0.25,95,115.0
1085,B1,138.25,0.25,95,115.0
1086,F3,138.5,0.25,95,115.0
1087,F3,138.5,0.25,95,115.0
1088,B1,138.5,0.25,95,115.0
1089,E-3,138.5,0.25,95,115.0
1090,E3,138.75,0.25,95,115.0
1091,E3,138.75,0.25,95,115.0
1092,B1,138.75,0.25,95,115.0
1093,F3,139.0,0.25,95,115.0
1094,F3,139.0,0.25,95,115.0
1095,B1,139.0,0.25,95,115.0
1096,D2,139.0,0.25,95,115.0
1097,E-3,139.0,0.25,95,115.0
1098,E3,139.25,0.25,95,115.0
1099,E3,139.25,0.25,95,115.0
1100,B1,139.25,0.25,95,115.0
1101,D3,139.5,0.5,95,115.0
1102,D3,139.5,0.5,95,115.0
1103,B1,139.5,0.25,95,115.0
1104,E-3,139.5,0.25,95,115.0
1105,B1,139.75,0.25,95,115.0
1106,D3,140.0,0.25,95,115.0
1107,D3,140.0,0.25,95,115.0
1108,B1,140.0,0.25,95,115.0
1109,E-3,140.0,0.25,95,115.0
1110,C#3,140.0,0.25,95,115.0
1111,E3,140.25,0.25,95,115.0
1112,D3,140.25,0.25,95,115.0
1113,B1,140.25,0.25,95,115.0
1114,F3,140.5,0.25,95,115.0
1115,E3,140.5,0.25,95,115.0
1116,B1,140.5,0.25,95,115.0
1117,E-3,140.5,0.25,95,115.0
1118,E3,140.75,0.25,95,115.0
1119,D3,140.75,0.25,95,115.0
1120,B1,140.75,0.25,95,115.0
1121,F3,141.0,0.25,95,115.0
1122,E3,141.0,0.25,95,115.0
1123,B1,141.0,0.25,95,115.0
1124,D2,141.0,0.25,95,115.0
1125,E-3,141.0,0.25,95,115.0
1126,G3,141.25,0.25,95,115.0
1127,F3,141.25,0.25,95,115.0
1128,B1,141.25,0.25,95,115.0
1129,F3,141.5,0.25,95,115.0
1130,E3,141.5,0.25,95,115.0
1131,B1,141.5,0.25,95,115.0
1132,E-3,141.5,0.25,95,115.0
1133,E3,141.75,0.25,95,115.0
1134,G3,141.75,0.25,95,115.0
1135,B1,141.75,0.25,95,115.0
1136,A3,142.0,0.5,95,115.0
1137,A3,142.0,0.5,95,115.0
1138,B1,142.0,0.25,95,115.0
1139,E-3,142.0,0.25,95,115.0
1140,B1,142.25,0.25,95,115.0
1141,F3,142.5,0.25,95,115.0
1142,F3,142.5,0.25,95,115.0
1143,B1,142.5,0.25,95,115.0
1144,E-3,142.5,0.25,95,115.0
1145,E3,142.75,0.25,95,115.0
1146,E3,142.75,0.25,95,115.0
1147,B1,142.75,0.25,95,115.0
1148,F3,143.0,0.25,95,115.0
1149,F3,143.0,0.25,95,115.0
1150,B1,143.0,0.25,95,115.0
1151,D2,143.0,0.25,95,115.0
1152,E-3,143.0,0.25,95,115.0
1153,E3,143.25,0.25,95,115.0
1154,E3,143.25,0.25,95,115.0
1155,B1,143.25,0.25,95,115.0
1156,D3,143.5,0.5,95,115.0
1157,D3,143.5,0.5,95,115.0
1158,B1,143.5,0.25,95,115.0
1159,E-3,143.5,0.25,95,115.0
1160,B1,143.75,0.25,95,115.0
1161,D3,144.0,0.25,95,115.0
1162,D3,144.0,0.25,95,115.0
1163,B1,144.0,0.25,95,115.0
1164,E-3,144.0,0.25,95,115.0
1165,C#3,144.0,0.25,95,115.0
1166,D4,144.0,4.0,95,115.0
1167,D4,144.0,4.0,95,115.0
1168,E3,144.25,0.25,95,115.0
1169,E3,144.25,0.25,95,115.0
1170,B1,144.25,0.25,95,115.0
1171,F3,144.5,0.25,95,115.0
1172,F3,144.5,0.25,95,115.0
1173,B1,144.5,0.25,95,115.0
1174,E-3,144.5,0.25,95,115.0
1175,E3,144.75,0.25,95,115.0
1176,E3,144.75,0.25,95,115.0
1177,B1,144.75,0.25,95,115.0
1178,F3,145.0,0.25,95,115.0
1179,F3,145.0,0.25,95,115.0
1180,B1,145.0,0.25,95,115.0
1181,D2,145.0,0.25,95,115.0
1182,E-3,145.0,0.25,95,115.0
1183,G3,145.25,0.25,95,115.0
1184,G3,145.25,0.25,95,115.0
1185,B1,145.25,0.25,95,115.0
1186,F3,145.5,0.25,95,115.0
1187,F3,145.5,0.25,95,115.0
1188,B1,145.5,0.25,95,115.0
1189,E-3,145.5,0.25,95,115.0
1190,E3,145.75,0.25,95,115.0
1191,E3,145.75,0.25,95,115.0
1192,B1,145.75,0.25,95,115.0
1193,A3,146.0,0.5,95,115.0
1194,A3,146.0,0.5,95,115.0
1195,B1,146.0,0.25,95,115.0
1196,E-3,146.0,0.25,95,115.0
1197,B1,146.25,0.25,95,115.0
1198,F3,146.5,0.25,95,115.0
1199,F3,146.5,0.25,95,115.0
1200,B1,146.5,0.25,95,115.0
1201,E-3,146.5,0.25,95,115.0
1202,E3,146.75,0.25,95,115.0
1203,E3,146.75,0.25,95,115.0
1204,B1,146.75,0.25,95,115.0
1205,F3,147.0,0.25,95,115.0
1206,F3,147.0,0.25,95,115.0
1207,B1,147.0,0.25,95,115.0
1208,D2,147.0,0.25,95,115.0
1209,E-3,147.0,0.25,95,115.0
1210,E3,147.25,0.25,95,115.0
1211,E3,147.25,0.25,95,115.0
1212,B1,147.25,0.25,95,115.0
1213,D3,147.5,0.5,95,115.0
1214,D3,147.5,0.5,95,115.0
1215,B1,147.5,0.25,95,115.0
1216,E-3,147.5,0.25,95,115.0
1217,B1,147.75,0.25,95,115.0
1218,D3,148.0,0.25,95,115.0
1219,D3,148.0,0.25,95,115.0
1220,B1,148.0,0.25,95,115.0
1221,E-3,148.0,0.25,95,115.0
1222,C#3,148.0,0.25,95,115.0
1223,D4,148.0,4.0,95,115.0
1224,D4,148.0,4.0,95,115.0
1225,E3,148.25,0.25,95,115.0
1226,D3,148.25,0.25,95,115.0
1227,B1,148.25,0.25,95,115.0
1228,F3,148.5,0.25,95,115.0
1229,E3,148.5,0.25,95,115.0
1230,B1,148.5,0.25,95,115.0
1231,E-3,148.5,0.25,95,115.0
1232,E3,148.75,0.25,95,115.0
1233,D3,148.75,0.25,95,115.0
1234,B1,148.75,0.25,95,115.0
1235,F3,149.0,0.25,95,115.0
1236,E3,149.0,0.25,95,115.0
1237,B1,149.0,0.25,95,115.0
1238,D2,149.0,0.25,95,115.0
1239,E-3,149.0,0.25,95,115.0
1240,G3,149.25,0.25,95,115.0
1241,F3,149.25,0.25,95,115.0
1242,B1,149.25,0.25,95,115.0
1243,F3,149.5,0.25,95,115.0
1244,E3,149.5,0.25,95,115.0
1245,B1,149.5,0.25,95,115.0
1246,E-3,149.5,0.25,95,115.0
1247,E3,149.75,0.25,95,115.0
1248,G3,149.75,0.25,95,115.0
1249,B1,149.75,0.25,95,115.0
1250,A3,150.0,0.5,95,115.0
1251,A3,150.0,0.5,95,115.0
1252,B1,150.0,0.25,95,115.0
1253,E-3,150.0,0.25,95,115.0
1254,B1,150.25,0.25,95,115.0
1255,F3,150.5,0.25,95,115.0
1256,F3,150.5,0.25,95,115.0
1257,B1,150.5,0.25,95,115.0
1258,E-3,150.5,0.25,95,115.0
1259,E3,150.75,0.25,95,115.0
1260,E3,150.75,0.25,95,115.0
1261,B1,150.75,0.25,95,115.0
1262,F3,151.0,0.25,95,115.0
1263,F3,151.0,0.25,95,115.0
1264,B1,151.0,0.25,95,115.0
1265,D2,151.0,0.25,95,115.0
1266,E-3,151.0,0.25,95,115.0
1267,E3,151.25,0.25,95,115.0
1268,E3,151.25,0.25,95,115.0
1269,B1,151.25,0.25,95,115.0
1270,D3,151.5,0.5,95,115.0
1271,D3,151.5,0.5,95,115.0
1272,B1,151.5,0.25,95,115.0
1273,E-3,151.5,0.25,95,115.0
1274,B1,151.75,0.25,95,115.0
1275,D3,152.0,0.25,95,115.0
1276,D3,152.0,0.25,95,115.0
1277,B1,152.0,0.25,95,115.0
1278,E-3,152.0,0.25,95,115.0
1279,C#3,152.0,0.25,95,115.0
1280,E3,152.25,0.25,95,115.0
1281,E3,152.25,0.25,95,115.0
1282,B1,152.25,0.25,95,115.0
1283,F3,152.5,0.25,95,115.0
1284,F3,152.5,0.25,95,115.0
1285,B1,152.5,0.25,95,115.0
1286,E-3,152.5,0.25,95,115.0
1287,E3,152.75,0.25,95,115.0
1288,E3,152.75,0.25,95,115.0
1289,B1,152.75,0.25,95,115.0
1290,F3,153.0,0.25,95,115.0
1291,F3,153.0,0.25,95,115.0
1292,B1,153.0,0.25,95,115.0
1293,D2,153.0,0.25,95,115.0
1294,E-3,153.0,0.25,95,115.0
1295,G3,153.25,0.25,95,115.0
1296,G3,153.25,0.25,95,115.0
1297,B1,153.25,0.25,95,115.0
1298,F3,153.5,0.25,95,115.0
1299,F3,153.5,0.25,95,115.0
1300,B1,153.5,0.25,95,115.0
1301,E-3,153.5,0.25,95,115.0
1302,E3,153.75,0.25,95,115.0
1303,E3,153.75,0.25,95,115.0
1304,B1,153.75,0.25,95,115.0
1305,A3,154.0,0.5,95,115.0
1306,A3,154.0,0.5,95,115.0
1307,B1,154.0,0.25,95,115.0
1308,E-3,154.0,0.25,95,115.0
1309,B1,154.25,0.25,95,115.0
1310,F3,154.5,0.25,95,115.0
1311,F3,154.5,0.25,95,115.0
1312,B1,154.5,0.25,95,115.0
1313,E-3,154.5,0.25,95,115.0
1314,E3,154.75,0.25,95,115.0
1315,E3,154.75,0.25,95,115.0
1316,B1,154.75,0.25,95,115.0
1317,F3,155.0,0.25,95,115.0
1318,F3,155.0,0.25,95,115.0
1319,B1,155.0,0.25,95,115.0
1320,D2,155.0,0.25,95,115.0
1321,E-3,155.0,0.25,95,115.0
1322,E3,155.25,0.25,95,115.0
1323,E3,155.25,0.25,95,115.0
1324,B1,155.25,0.25,95,115.0
1325,D3,155.5,0.5,95,115.0
1326,D3,155.5,0.5,95,115.0
1327,B1,155.5,0.25,95,115.0
1328,E-3,155.5,0.25,95,115.0
1329,B1,155.75,0.25,95,115.0
1330,D3,156.0,0.25,95,115.0
1331,D3,156.0,0.25,95,115.0
1332,B1,156.0,0.25,95,115.0
1333,E-3,156.0,0.25,95,115.0
1334,C#3,156.0,0.25,95,115.0
1335,D4,156.0,4.0,95,115.0
1336,D4,156.0,4.0,95,115.0
1337,D3,156.25,0.25,95,115.0
1338,D3,156.25,0.25,95,115.0
1339,B1,156.25,0.25,95,115.0
1340,E3,156.5,0.25,95,115.0
1341,E3,156.5,0.25,95,115.0
1342,B1,156.5,0.25,95,115.0
1343,E-3,156.5,0.25,95,115.0
1344,D3,156.75,0.25,95,115.0
1345,D3,156.75,0.25,95,115.0
1346,B1,156.75,0.25,95,115.0
1347,E3,157.0,0.25,95,115.0
1348,E3,157.0,0.25,95,115.0
1349,B1,157.0,0.25,95,115.0
1350,D2,157.0,0.25,95,115.0
1351,E-3,157.0,0.25,95,115.0
1352,F3,157.25,0.25,95,115.0
1353,F3,157.25,0.25,95,115.0
1354,B1,157.25,0.25,95,115.0
1355,E3,157.5,0.25,95,115.0
1356,E3,157.5,0.25,95,115.0
1357,B1,157.5,0.25,95,115.0
1358,E-3,157.5,0.25,95,115.0
1359,G3,157.75,0.25,95,115.0
1360,G3,157.75,0.25,95,115.0
1361,B1,157.75,0.25,95,115.0
1362,A3,158.0,0.5,95,115.0
1363,A3,158.0,0.5,95,115.0
1364,B1,158.0,0.25,95,115.0
1365,E-3,158.0,0.25,95,115.0
1366,B1,158.25,0.25,95,115.0
1367,F3,158.5,0.25,95,115.0
1368,F3,158.5,0.25,95,115.0
1369,B1,158.5,0.25,95,115.0
1370,E-3,158.5,0.25,95,115.0
1371,E3,158.75,0.25,95,115.0
1372,E3,158.75,0.25,95,115.0
1373,B1,158.75,0.25,95,115.0
1374,F3,159.0,0.25,95,115.0
1375,F3,159.0,0.25,95,115.0
1376,B1,159.0,0.25,95,115.0
1377,D2,159.0,0.25,95,115.0
1378,E-3,159.0,0.25,95,115.0
1379,E3,159.25,0.25,95,115.0
1380,E3,159.25,0.25,95,115.0
1381,B1,159.25,0.25,95,115.0
1382,D3,159.5,0.5,95,115.0
1383,D3,159.5,0.5,95,115.0
1384,B1,159.5,0.25,95,115.0
1385,E-3,159.5,0.25,95,115.0
1386,B1,159.75,0.25,95,115.0
1387,A1,160.0,0.75,95,115.0
1388,A3,160.0,0.75,95,115.0
1389,D3,160.0,0.75,95,115.0
1390,A3,160.0,0.75,95,115.0
1391,D3,160.0,0.75,95,115.0
1392,C2,160.0,0.75,95,115.0
1393,B-2,160.0,0.75,95,115.0
1394,D1,163.5,0.5,95,115.0
1395,D2,163.5,0.5,95,115.0
1396,C3,163.5,0.5,95,115.0
1397,F2,163.5,0.5,95,115.0
1398,C3,163.5,0.5,95,115.0
1399,F2,163.5,0.5,95,115.0
1400,F1,164.0,0.75,95,115.0
1401,F3,164.0,0.75,95,115.0
1402,B-2,164.0,0.75,95,115.0
1403,F3,164.0,0.75,95,115.0
1404,B-2,164.0,0.75,95,115.0
1405,C2,164.0,0.75,95,115.0
1406,B-2,164.0,0.75,95,115.0
1407,D1,167.5,0.5,95,115.0
1408,D2,167.5,0.5,95,115.0
1409,D3,167.5,0.5,95,115.0
1410,G2,167.5,0.5,95,115.0
1411,D3,167.5,0.5,95,115.0
1412,G2,167.5,0.5,95,115.0
1413,G1,168.0,0.75,95,115.0
1414,G3,168.0,0.75,95,115.0
1415,C3,168.0,0.75,95,115.0
1416,G3,168.0,0.75,95,115.0
1417,C3,168.0,0.75,95,115.0
1418,C2,168.0,0.75,95,115.0
1419,B-2,168.0,0.75,95,115.0
1420,D2,171.5,0.5,95,115.0
1421,E3,171.5,0.5,95,115.0
1422,A2,171.5,0.5,95,115.0
1423,E3,171.5,0.5,95,115.0
1424,A2,171.5,0.5,95,115.0
1425,A3,172.0,0.75,95,115.0
1426,D3,172.0,0.75,95,115.0
1427,A3,172.0,0.75,95,115.0
1428,D3,172.0,0.75,95,115.0
1429,C2,172.0,0.5,95,115.0
1430,C#3,172.0,0.5,95,115.0
1431,D2,172.5,0.25,95,115.0
1432,E3,172.75,0.75,95,115.0
1433,A2,172.75,0.75,95,115.0
1434,E3,172.75,0.75,95,115.0
1435,A2,172.75,0.75,95,115.0
1436,C2,172.75,0.5,95,115.0
1437,C#3,172.75,0.5,95,115.0
1438,D2,173.25,0.25,95,115.0
1439,F3,173.5,0.75,95,115.0
1440,B-2,173.5,0.75,95,115.0
1441,F3,173.5,0.75,95,115.0
1442,B-2,173.5,0.75,95,115.0
1443,C2,173.5,0.5,95,115.0
1444,C#3,173.5,0.5,95,115.0
1445,A2,174.25,0.25,95,115.0
1446,A2,174.25,0.25,95,115.0
1447,D2,174.25,0.25,95,115.0
1448,B-2,174.5,0.25,95,115.0
1449,B-2,174.5,0.25,95,115.0
1450,D2,174.5,0.25,95,115.0
1451,A2,174.75,0.25,95,115.0
1452,A2,174.75,0.25,95,115.0
1453,C2,174.75,0.25,95,115.0
1454,F3,175.0,0.25,95,115.0
1455,F3,175.0,0.25,95,115.0
1456,B2,175.0,0.25,95,115.0
1457,E3,175.25,0.25,95,115.0
1458,E3,175.25,0.25,95,115.0
1459,A2,175.25,0.25,95,115.0
1460,D3,175.5,0.25,95,115.0
1461,D3,175.5,0.25,95,115.0
1462,G2,175.5,0.25,95,115.0
1463,C3,175.75,0.25,95,115.0
1464,C3,175.75,0.25,95,115.0
1465,F2,175.75,0.25,95,115.0
1466,A1,176.0,0.75,95,115.0
1467,A3,176.0,0.75,95,115.0
1468,D3,176.0,0.75,95,115.0
1469,A3,176.0,0.75,95,115.0
1470,D3,176.0,0.75,95,115.0
1471,C2,176.0,0.75,95,115.0
1472,B-2,176.0,0.75,95,115.0
1473,D1,179.5,0.5,95,115.0
1474,D2,179.5,0.5,95,115.0
1475,C3,179.5,0.5,95,115.0
1476,F2,179.5,0.5,95,115.0
1477,C3,179.5,0.5,95,115.0
1478,F2,179.5,0.5,95,115.0
1479,F1,180.0,0.75,95,115.0
1480,F3,180.0,0.75,95,115.0
1481,B-2,180.0,0.75,95,115.0
1482,F3,180.0,0.75,95,115.0
1483,B-2,180.0,0.75,95,115.0
1484,C2,180.0,0.75,95,115.0
1485,B-2,180.0,0.75,95,115.0
1486,D1,183.5,0.5,95,115.0
1487,D2,183.5,0.5,95,115.0
1488,D3,183.5,0.5,95,115.0
1489,G2,183.5,0.5,95,115.0
1490,D3,183.5,0.5,95,115.0
1491,G2,183.5,0.5,95,115.0
1492,G1,184.0,0.75,95,115.0
1493,G3,184.0,0.75,95,115.0
1494,C3,184.0,0.75,95,115.0
1495,G3,184.0,0.75,95,115.0
1496,C3,184.0,0.75,95,115.0
1497,C2,184.0,0.75,95,115.0
1498,B-2,184.0,0.75,95,115.0
1499,D2,187.5,0.5,95,115.0
1500,E3,187.5,0.5,95,115.0
1501,A2,187.5,0.5,95,115.0
1502,E3,187.5,0.5,95,115.0
1503,A2,187.5,0.5,95,115.0
1504,A3,188.0,0.75,95,115.0
1505,D3,188.0,0.75,95,115.0
1506,A3,188.0,0.75,95,115.0
1507,D3,188.0,0.75,95,115.0
1508,C2,188.0,0.5,95,115.0
1509,C#3,188.0,0.5,95,115.0
1510,D2,188.5,0.25,95,115.0
1511,E3,188.75,0.75,95,115.0
1512,A2,188.75,0.75,95,115.0
1513,E3,188.75,0.75,95,115.0
1514,A2,188.75,0.75,95,115.0
1515,C2,188.75,0.5,95,115.0
1516,C#3,188.75,0.5,95,115.0
1517,D2,189.25,0.25,95,115.0
1518,F3,189.5,0.75,95,115.0
1519,B-2,189.5,0.75,95,115.0
1520,F3,189.5,0.75,95,115.0
1521,B-2,189.5,0.75,95,115.0
1522,C2,189.5,0.5,95,115.0
1523,C#3,189.5,0.5,95,115.0
1524,A2,190.25,0.25,95,115.0
1525,A2,190.25,0.25,95,115.0
1526,D2,190.25,0.25,95,115.0
1527,B-2,190.5,0.25,95,115.0
1528,B-2,190.5,0.25,95,115.0
1529,D2,190.5,0.25,95,115.0
1530,A2,190.75,0.25,95,115.0
1531,A2,190.75,0.25,95,115.0
1532,C2,190.75,0.25,95,115.0
1533,F3,191.0,0.25,95,115.0
1534,F3,191.0,0.25,95,115.0
1535,B2,191.0,0.25,95,115.0
1536,E3,191.25,0.25,95,115.0
1537,E3,191.25,0.25,95,115.0
1538,A2,191.25,0.25,95,115.0
1539,D3,191.5,0.25,95,115.0
1540,D3,191.5,0.25,95,115.0
1541,G2,191.5,0.25,95,115.0
1542,C3,191.75,0.25,95,115.0
1543,C3,191.75,0.25,95,115.0
1544,F2,191.75,0.25,95,115.0
1545,E-1,192.0,1.0,95,115.0
1546,A3,192.0,0.5,95,115.0
1547,D3,192.0,0.5,95,115.0
1548,A3,192.0,0.5,95,115.0
1549,D3,192.0,0.5,95,115.0
1550,B1,192.0,0.25,95,115.0
1551,E-3,192.0,0.25,95,115.0
1552,C#3,192.0,0.25,95,115.0
1553,B1,192.25,0.25,95,115.0
1554,A3,192.5,0.25,95,115.0
1555,D3,192.5,0.25,95,115.0
1556,A3,192.5,0.25,95,115.0
1557,D3,192.5,0.25,95,115.0
1558,B1,192.5,0.25,95,115.0
1559,E-3,192.5,0.25,95,115.0
1560,B1,192.75,0.25,95,115.0
1561,A3,192.75,0.25,95,115.0
1562,D3,192.75,0.25,95,115.0
1563,A3,192.75,0.25,95,115.0
1564,D3,192.75,0.25,95,115.0
1565,E-1,193.0,1.0,95,115.0
1566,A3,193.0,0.5,95,115.0
1567,D3,193.0,0.5,95,115.0
1568,A3,193.0,0.5,95,115.0
1569,D3,193.0,0.5,95,115.0
1570,B1,193.0,0.25,95,115.0
1571,D2,193.0,0.25,95,115.0
1572,E-3,193.0,0.25,95,115.0
1573,B1,193.25,0.25,95,115.0
1574,A3,193.5,0.25,95,115.0
1575,D3,193.5,0.25,95,115.0
1576,A3,193.5,0.25,95,115.0
1577,D3,193.5,0.25,95,115.0
1578,B1,193.5,0.25,95,115.0
1579,E-3,193.5,0.25,95,115.0
1580,B1,193.75,0.25,95,115.0
1581,A3,193.75,0.25,95,115.0
1582,D3,193.75,0.25,95,115.0
1583,A3,193.75,0.25,95,115.0
1584,D3,193.75,0.25,95,115.0
1585,E-1,194.0,1.0,95,115.0
1586,A3,194.0,0.5,95,115.0
1587,D3,194.0,0.5,95,115.0
1588,A3,194.0,0.5,95,115.0
1589,D3,194.0,0.5,95,115.0
1590,B1,194.0,0.25,95,115.0
1591,E-3,194.0,0.25,95,115.0
1592,B1,194.25,0.25,95,115.0
1593,A3,194.5,0.25,95,115.0
1594,D3,194.5,0.25,95,115.0
1595,A3,194.5,0.25,95,115.0
1596,D3,194.5,0.25,95,115.0
1597,B1,194.5,0.25,95,115.0
1598,E-3,194.5,0.25,95,115.0
1599,B1,194.75,0.25,95,115.0
1600,A3,194.75,0.25,95,115.0
1601,D3,194.75,0.25,95,115.0
1602,A3,194.75,0.25,95,115.0
1603,D3,194.75,0.25,95,115.0
1604,E-1,195.0,1.0,95,115.0
1605,A3,195.0,0.5,95,115.0
1606,D3,195.0,0.5,95,115.0
1607,A3,195.0,0.5,95,115.0
1608,D3,195.0,0.5,95,115.0
1609,B1,195.0,0.25,95,115.0
1610,D2,195.0,0.25,95,115.0
1611,E-3,195.0,0.25,95,115.0
1612,B1,195.25,0.25,95,115.0
1613,A3,195.5,0.5,95,115.0
1614,D3,195.5,0.5,95,115.0
1615,A3,195.5,0.5,95,115.0
1616,D3,195.5,0.5,95,115.0
1617,B1,195.5,0.25,95,115.0
1618,E-3,195.5,0.25,95,115.0
1619,B1,195.75,0.25,95,115.0
1620,B-0,196.0,1.0,95,115.0
1621,F3,196.0,0.5,95,115.0
1622,B-2,196.0,0.5,95,115.0
1623,F3,196.0,0.5,95,115.0
1624,B-2,196.0,0.5,95,115.0
1625,B1,196.0,0.25,95,115.0
1626,E-3,196.0,0.25,95,115.0
1627,C#3,196.0,0.25,95,115.0
1628,B1,196.25,0.25,95,115.0
1629,F3,196.5,0.25,95,115.0
1630,B-2,196.5,0.25,95,115.0
1631,F3,196.5,0.25,95,115.0
1632,B-2,196.5,0.25,95,115.0
1633,B1,196.5,0.25,95,115.0
1634,E-3,196.5,0.25,95,115.0
1635,B1,196.75,0.25,95,115.0
1636,F3,196.75,0.25,95,115.0
1637,B-2,196.75,0.25,95,115.0
1638,F3,196.75,0.25,95,115.0
1639,B-2,196.75,0.25,95,115.0
1640,B-0,197.0,1.0,95,115.0
1641,F3,197.0,0.5,95,115.0
1642,B-2,197.0,0.5,95,115.0
1643,F3,197.0,0.5,95,115.0
1644,B-2,197.0,0.5,95,115.0
1645,B1,197.0,0.25,95,115.0
1646,D2,197.0,0.25,95,115.0
1647,E-3,197.0,0.25,95,115.0
1648,B1,197.25,0.25,95,115.0
1649,F3,197.5,0.25,95,115.0
1650,B-2,197.5,0.25,95,115.0
1651,F3,197.5,0.25,95,115.0
1652,B-2,197.5,0.25,95,115.0
1653,B1,197.5,0.25,95,115.0
1654,E-3,197.5,0.25,95,115.0
1655,B1,197.75,0.25,95,115.0
1656,F3,197.75,0.25,95,115.0
1657,B-2,197.75,0.25,95,115.0
1658,F3,197.75,0.25,95,115.0
1659,B-2,197.75,0.25,95,115.0
1660,B-0,198.0,1.0,95,115.0
1661,F3,198.0,0.5,95,115.0
1662,B-2,198.0,0.5,95,115.0
1663,F3,198.0,0.5,95,115.0
1664,B-2,198.0,0.5,95,115.0
1665,B1,198.0,0.25,95,115.0
1666,E-3,198.0,0.25,95,115.0
1667,B1,198.25,0.25,95,115.0
1668,F3,198.5,0.25,95,115.0
1669,B-2,198.5,0.25,95,115.0
1670,F3,198.5,0.25,95,115.0
1671,B-2,198.5,0.25,95,115.0
1672,B1,198.5,0.25,95,115.0
1673,E-3,198.5,0.25,95,115.0
1674,B1,198.75,0.25,95,115.0
1675,F3,198.75,0.25,95,115.0
1676,B-2,198.75,0.25,95,115.0
1677,F3,198.75,0.25,95,115.0
1678,B-2,198.75,0.25,95,115.0
1679,B-0,199.0,1.0,95,115.0
1680,F3,199.0,0.5,95,115.0
1681,B-2,199.0,0.5,95,115.0
1682,F3,199.0,0.5,95,115.0
1683,B-2,199.0,0.5,95,115.0
1684,B1,199.0,0.25,95,115.0
1685,D2,199.0,0.25,95,115.0
1686,E-3,199.0,0.25,95,115.0
1687,B1,199.25,0.25,95,115.0
1688,F3,199.5,0.5,95,115.0
1689,B-2,199.5,0.5,95,115.0
1690,F3,199.5,0.5,95,115.0
1691,B-2,199.5,0.5,95,115.0
1692,B1,199.5,0.25,95,115.0
1693,E-3,199.5,0.25,95,115.0
1694,B1,199.75,0.25,95,115.0
1695,E1,200.0,1.0,95,115.0
1696,G3,200.0,0.5,95,115.0
1697,C3,200.0,0.5,95,115.0
1698,G3,200.0,0.5,95,115.0
1699,C3,200.0,0.5,95,115.0
1700,B1,200.0,0.25,95,115.0
1701,E-3,200.0,0.25,95,115.0
1702,C#3,200.0,0.25,95,115.0
1703,B1,200.25,0.25,95,115.0
1704,G3,200.5,0.25,95,115.0
1705,C3,200.5,0.25,95,115.0
1706,G3,200.5,0.25,95,115.0
1707,C3,200.5,0.25,95,115.0
1708,B1,200.5,0.25,95,115.0
1709,E-3,200.5,0.25,95,115.0
1710,B1,200.75,0.25,95,115.0
1711,G3,200.75,0.25,95,115.0
1712,C3,200.75,0.25,95,115.0
1713,G3,200.75,0.25,95,115.0
1714,C3,200.75,0.25,95,115.0
1715,E1,201.0,1.0,95,115.0
1716,G3,201.0,0.5,95,115.0
1717,C3,201.0,0.5,95,115.0
1718,G3,201.0,0.5,95,115.0
1719,C3,201.0,0.5,95,115.0
1720,B1,201.0,0.25,95,115.0
1721,D2,201.0,0.25,95,115.0
1722,E-3,201.0,0.25,95,115.0
1723,B1,201.25,0.25,95,115.0
1724,G3,201.5,0.25,95,115.0
1725,C3,201.5,0.25,95,115.0
1726,G3,201.5,0.25,95,115.0
1727,C3,201.5,0.25,95,115.0
1728,B1,201.5,0.25,95,115.0
1729,E-3,201.5,0.25,95,115.0
1730,B1,201.75,0.25,95,115.0
1731,G3,201.75,0.25,95,115.0
1732,C3,201.75,0.25,95,115.0
1733,G3,201.75,0.25,95,115.0
1734,C3,201.75,0.25,95,115.0
1735,E1,202.0,1.0,95,115.0
1736,G3,202.0,0.5,95,115.0
1737,C3,202.0,0.5,95,115.0
1738,G3,202.0,0.5,95,115.0
1739,C3,202.0,0.5,95,115.0
1740,B1,202.0,0.25,95,115.0
1741,E-3,202.0,0.25,95,115.0
1742,B1,202.25,0.25,95,115.0
1743,G3,202.5,0.25,95,115.0
1744,C3,202.5,0.25,95,115.0
1745,G3,202.5,0.25,95,115.0
1746,C3,202.5,0.25,95,115.0
1747,B1,202.5,0.25,95,115.0
1748,E-3,202.5,0.25,95,115.0
1749,B1,202.75,0.25,95,115.0
1750,G3,202.75,0.25,95,115.0
1751,C3,202.75,0.25,95,115.0
1752,G3,202.75,0.25,95,115.0
1753,C3,202.75,0.25,95,115.0
1754,E1,203.0,1.0,95,115.0
1755,G3,203.0,0.5,95,115.0
1756,C3,203.0,0.5,95,115.0
1757,G3,203.0,0.5,95,115.0
1758,C3,203.0,0.5,95,115.0
1759,B1,203.0,0.25,95,115.0
1760,D2,203.0,0.25,95,115.0
1761,E-3,203.0,0.25,95,115.0
1762,B1,203.25,0.25,95,115.0
1763,G3,203.5,0.5,95,115.0
1764,C3,203.5,0.5,95,115.0
1765,G3,203.5,0.5,95,115.0
1766,C3,203.5,0.5,95,115.0
1767,B1,203.5,0.25,95,115.0
1768,E-3,203.5,0.25,95,115.0
1769,B1,203.75,0.25,95,115.0
1770,A3,204.0,0.75,95,115.0
1771,D3,204.0,0.75,95,115.0
1772,A3,204.0,0.75,95,115.0
1773,D3,204.0,0.75,95,115.0
1774,C2,204.0,0.5,95,115.0
1775,C#3,204.0,0.5,95,115.0
1776,D2,204.5,0.25,95,115.0
1777,E3,204.75,0.75,95,115.0
1778,A2,204.75,0.75,95,115.0
1779,E3,204.75,0.75,95,115.0
1780,A2,204.75,0.75,95,115.0
1781,C2,204.75,0.5,95,115.0
1782,C#3,204.75,0.5,95,115.0
1783,D2,205.25,0.25,95,115.0
1784,F3,205.5,0.75,95,115.0
1785,B-2,205.5,0.75,95,115.0
1786,F3,205.5,0.75,95,115.0
1787,B-2,205.5,0.75,95,115.0
1788,C2,205.5,0.5,95,115.0
1789,C#3,205.5,0.5,95,115.0
1790,A2,206.25,0.25,95,115.0
1791,A2,206.25,0.25,95,115.0
1792,D2,206.25,0.25,95,115.0
1793,B-2,206.5,0.25,95,115.0
1794,B-2,206.5,0.25,95,115.0
1795,D2,206.5,0.25,95,115.0
1796,A2,206.75,0.25,95,115.0
1797,A2,206.75,0.25,95,115.0
1798,C2,206.75,0.25,95,115.0
1799,F3,207.0,0.25,95,115.0
1800,F3,207.0,0.25,95,115.0
1801,B2,207.0,0.25,95,115.0
1802,E3,207.25,0.25,95,115.0
1803,E3,207.25,0.25,95,115.0
1804,A2,207.25,0.25,95,115.0
1805,D3,207.5,0.25,95,115.0
1806,D3,207.5,0.25,95,115.0
1807,G2,207.5,0.25,95,115.0
1808,C3,207.75,0.25,95,115.0
1809,C3,207.75,0.25,95,115.0
1810,F2,207.75,0.25,95,115.0
1811,E-1,208.0,1.0,95,115.0
1812,A3,208.0,0.5,95,115.0
1813,D3,208.0,0.5,95,115.0
1814,A3,208.0,0.5,95,115.0
1815,D3,208.0,0.5,95,115.0
1816,B1,208.0,0.25,95,115.0
1817,E-3,208.0,0.25,95,115.0
1818,C#3,208.0,0.25,95,115.0
1819,B1,208.25,0.25,95,115.0
1820,A3,208.5,0.25,95,115.0
1821,D3,208.5,0.25,95,115.0
1822,A3,208.5,0.25,95,115.0
1823,D3,208.5,0.25,95,115.0
1824,B1,208.5,0.25,95,115.0
1825,E-3,208.5,0.25,95,115.0
1826,B1,208.75,0.25,95,115.0
1827,A3,208.75,0.25,95,115.0
1828,D3,208.75,0.25,95,115.0
1829,A3,208.75,0.25,95,115.0
1830,D3,208.75,0.25,95,115.0
1831,E-1,209.0,1.0,95,115.0
1832,A3,209.0,0.5,95,115.0
1833,D3,209.0,0.5,95,115.0
1834,A3,209.0,0.5,95,115.0
1835,D3,209.0,0.5,95,115.0
1836,B1,209.0,0.25,95,115.0
1837,D2,209.0,0.25,95,115.0
1838,E-3,209.0,0.25,95,115.0
1839,B1,209.25,0.25,95,115.0
1840,A3,209.5,0.25,95,115.0
1841,D3,209.5,0.25,95,115.0
1842,A3,209.5,0.25,95,115.0
1843,D3,209.5,0.25,95,115.0
1844,B1,209.5,0.25,95,115.0
1845,E-3,209.5,0.25,95,115.0
1846,B1,209.75,0.25,95,115.0
1847,A3,209.75,0.25,95,115.0
1848,D3,209.75,0.25,95,115.0
1849,A3,209.75,0.25,95,115.0
1850,D3,209.75,0.25,95,115.0
1851,E-1,210.0,1.0,95,115.0
1852,A3,210.0,0.5,95,115.0
1853,D3,210.0,0.5,95,115.0
1854,A3,210.0,0.5,95,115.0
1855,D3,210.0,0.5,95,115.0
1856,B1,210.0,0.25,95,115.0
1857,E-3,210.0,0.25,95,115.0
1858,B1,210.25,0.25,95,115.0
1859,A3,210.5,0.25,95,115.0
1860,D3,210.5,0.25,95,115.0
1861,A3,210.5,0.25,95,115.0
1862,D3,210.5,0.25,95,115.0
1863,B1,210.5,0.25,95,115.0
1864,E-3,210.5,0.25,95,115.0
1865,B1,210.75,0.25,95,115.0
1866,A3,210.75,0.25,95,115.0
1867,D3,210.75,0.25,95,115.0
1868,A3,210.75,0.25,95,115.0
1869,D3,210.75,0.25,95,115.0
1870,E-1,211.0,1.0,95,115.0
1871,A3,211.0,0.5,95,115.0
1872,D3,211.0,0.5,95,115.0
1873,A3,211.0,0.5,95,115.0
1874,D3,211.0,0.5,95,115.0
1875,B1,211.0,0.25,95,115.0
1876,D2,211.0,0.25,95,115.0
1877,E-3,211.0,0.25,95,115.0
1878,B1,211.25,0.25,95,115.0
1879,A3,211.5,0.5,95,115.0
1880,D3,211.5,0.5,95,115.0
1881,A3,211.5,0.5,95,115.0
1882,D3,211.5,0.5,95,115.0
1883,B1,211.5,0.25,95,115.0
1884,E-3,211.5,0.25,95,115.0
1885,B1,211.75,0.25,95,115.0
1886,B-0,212.0,1.0,95,115.0
1887,F3,212.0,0.5,95,115.0
1888,B-2,212.0,0.5,95,115.0
1889,F3,212.0,0.5,95,115.0
1890,B-2,212.0,0.5,95,115.0
1891,B1,212.0,0.25,95,115.0
1892,E-3,212.0,0.25,95,115.0
1893,C#3,212.0,0.25,95,115.0
1894,B1,212.25,0.25,95,115.0
1895,F3,212.5,0.25,95,115.0
1896,B-2,212.5,0.25,95,115.0
1897,F3,212.5,0.25,95,115.0
1898,B-2,212.5,0.25,95,115.0
1899,B1,212.5,0.25,95,115.0
1900,E-3,212.5,0.25,95,115.0
1901,B1,212.75,0.25,95,115.0
1902,F3,212.75,0.25,95,115.0
1903,B-2,212.75,0.25,95,115.0
1904,F3,212.75,0.25,95,115.0
1905,B-2,212.75,0.25,95,115.0
1906,B-0,213.0,1.0,95,115.0
1907,F3,213.0,0.5,95,115.0
1908,B-2,213.0,0.5,95,115.0
1909,F3,213.0,0.5,95,115.0
1910,B-2,213.0,0.5,95,115.0
1911,B1,213.0,0.25,95,115.0
1912,D2,213.0,0.25,95,115.0
1913,E-3,213.0,0.25,95,115.0
1914,B1,213.25,0.25,95,115.0
1915,F3,213.5,0.25,95,115.0
1916,B-2,213.5,0.25,95,115.0
1917,F3,213.5,0.25,95,115.0
1918,B-2,213.5,0.25,95,115.0
1919,B1,213.5,0.25,95,115.0
1920,E-3,213.5,0.25,95,115.0
1921,B1,213.75,0.25,95,115.0
1922,F3,213.75,0.25,95,115.0
1923,B-2,213.75,0.25,95,115.0
1924,F3,213.75,0.25,95,115.0
1925,B-2,213.75,0.25,95,115.0
1926,B-0,214.0,1.0,95,115.0
1927,F3,214.0,0.5,95,115.0
1928,B-2,214.0,0.5,95,115.0
1929,F3,214.0,0.5,95,115.0
1930,B-2,214.0,0.5,95,115.0
1931,B1,214.0,0.25,95,115.0
1932,E-3,214.0,0.25,95,115.0
1933,B1,214.25,0.25,95,115.0
1934,F3,214.5,0.25,95,115.0
1935,B-2,214.5,0.25,95,115.0
1936,F3,214.5,0.25,95,115.0
1937,B-2,214.5,0.25,95,115.0
1938,B1,214.5,0.25,95,115.0
1939,E-3,214.5,0.25,95,115.0
1940,B1,214.75,0.25,95,115.0
1941,F3,214.75,0.25,95,115.0
1942,B-2,214.75,0.25,95,115.0
1943,F3,214.75,0.25,95,115.0
1944,B-2,214.75,0.25,95,115.0
1945,B-0,215.0,1.0,95,115.0
1946,F3,215.0,0.5,95,115.0
1947,B-2,215.0,0.5,95,115.0
1948,F3,215.0,0.5,95,115.0
1949,B-2,215.0,0.5,95,115.0
1950,B1,215.0,0.25,95,115.0
1951,D2,215.0,0.25,95,115.0
1952,E-3,215.0,0.25,95,115.0
1953,B1,215.25,0.25,95,115.0
1954,F3,215.5,0.5,95,115.0
1955,B-2,215.5,0.5,95,115.0
1956,F3,215.5,0.5,95,115.0
1957,B-2,215.5,0.5,95,115.0
1958,B1,215.5,0.25,95,115.0
1959,E-3,215.5,0.25,95,115.0
1960,B1,215.75,0.25,95,115.0
1961,E1,216.0,1.0,95,115.0
1962,G3,216.0,0.5,95,115.0
1963,C3,216.0,0.5,95,115.0
1964,G3,216.0,0.5,95,115.0
1965,C3,216.0,0.5,95,115.0
1966,B1,216.0,0.25,95,115.0
1967,E-3,216.0,0.25,95,115.0
1968,C#3,216.0,0.25,95,115.0
1969,B1,216.25,0.25,95,115.0
1970,G3,216.5,0.25,95,115.0
1971,C3,216.5,0.25,95,115.0
1972,G3,216.5,0.25,95,115.0
1973,C3,216.5,0.25,95,115.0
1974,B1,216.5,0.25,95,115.0
1975,E-3,216.5,0.25,95,115.0
1976,B1,216.75,0.25,95,115.0
1977,G3,216.75,0.25,95,115.0
1978,C3,216.75,0.25,95,115.0
1979,G3,216.75,0.25,95,115.0
1980,C3,216.75,0.25,95,115.0
1981,E1,217.0,1.0,95,115.0
1982,G3,217.0,0.5,95,115.0
1983,C3,217.0,0.5,95,115.0
1984,G3,217.0,0.5,95,115.0
1985,C3,217.0,0.5,95,115.0
1986,B1,217.0,0.25,95,115.0
1987,D2,217.0,0.25,95,115.0
1988,E-3,217.0,0.25,95,115.0
1989,B1,217.25,0.25,95,115.0
1990,G3,217.5,0.25,95,115.0
1991,C3,217.5,0.25,95,115.0
1992,G3,217.5,0.25,95,115.0
1993,C3,217.5,0.25,95,115.0
1994,B1,217.5,0.25,95,115.0
1995,E-3,217.5,0.25,95,115.0
1996,B1,217.75,0.25,95,115.0
1997,G3,217.75,0.25,95,115.0
1998,C3,217.75,0.25,95,115.0
1999,G3,217.75,0.25,95,115.0
2000,C3,217.75,0.25,95,115.0
2001,E1,218.0,1.0,95,115.0
2002,G3,218.0,0.5,95,115.0
2003,C3,218.0,0.5,95,115.0
2004,G3,218.0,0.5,95,115.0
2005,C3,218.0,0.5,95,115.0
2006,B1,218.0,0.25,95,115.0
2007,E-3,218.0,0.25,95,115.0
2008,B1,218.25,0.25,95,115.0
2009,G3,218.5,0.25,95,115.0
2010,C3,218.5,0.25,95,115.0
2011,G3,218.5,0.25,95,115.0
2012,C3,218.5,0.25,95,115.0
2013,B1,218.5,0.25,95,115.0
2014,E-3,218.5,0.25,95,115.0
2015,B1,218.75,0.25,95,115.0
2016,G3,218.75,0.25,95,115.0
2017,C3,218.75,0.25,95,115.0
2018,G3,218.75,0.25,95,115.0
2019,C3,218.75,0.25,95,115.0
2020,E1,219.0,1.0,95,115.0
2021,G3,219.0,0.5,95,115.0
2022,C3,219.0,0.5,95,115.0
2023,G3,219.0,0.5,95,115.0
2024,C3,219.0,0.5,95,115.0
2025,B1,219.0,0.25,95,115.0
2026,D2,219.0,0.25,95,115.0
2027,E-3,219.0,0.25,95,115.0
2028,B1,219.25,0.25,95,115.0
2029,G3,219.5,0.5,95,115.0
2030,C3,219.5,0.5,95,115.0
2031,G3,219.5,0.5,95,115.0
2032,C3,219.5,0.5,95,115.0
2033,B1,219.5,0.25,95,115.0
2034,E-3,219.5,0.25,95,115.0
2035,B1,219.75,0.25,95,115.0
2036,A3,220.0,0.75,95,115.0
2037,D3,220.0,0.75,95,115.0
2038,A3,220.0,0.75,95,115.0
2039,D3,220.0,0.75,95,115.0
2040,C2,220.0,0.5,95,115.0
2041,C#3,220.0,0.5,95,115.0
2042,D2,220.5,0.25,95,115.0
2043,E3,220.75,0.75,95,115.0
2044,A2,220.75,0.75,95,115.0
2045,E3,220.75,0.75,95,115.0
2046,A2,220.75,0.75,95,115.0
2047,C2,220.75,0.5,95,115.0
2048,C#3,220.75,0.5,95,115.0
2049,D2,221.25,0.25,95,115.0
2050,F3,221.5,0.75,95,115.0
2051,B-2,221.5,0.75,95,115.0
2052,F3,221.5,0.75,95,115.0
2053,B-2,221.5,0.75,95,115.0
2054,C2,221.5,0.5,95,115.0
2055,C#3,221.5,0.5,95,115.0
2056,A2,222.25,0.25,95,115.0
2057,A2,222.25,0.25,95,115.0
2058,D2,222.25,0.25,95,115.0
2059,B-2,222.5,0.25,95,115.0
2060,B-2,222.5,0.25,95,115.0
2061,D2,222.5,0.25,95,115.0
2062,A2,222.75,0.25,95,115.0
2063,A2,222.75,0.25,95,115.0
2064,C2,222.75,0.25,95,115.0
2065,F3,223.0,0.25,95,115.0
2066,F3,223.0,0.25,95,115.0
2067,B2,223.0,0.25,95,115.0
2068,E3,223.25,0.25,95,115.0
2069,E3,223.25,0.25,95,115.0
2070,A2,223.25,0.25,95,115.0
2071,D3,223.5,0.25,95,115.0
2072,D3,223.5,0.25,95,115.0
2073,G2,223.5,0.25,95,115.0
2074,C3,223.75,0.25,95,115.0
2075,C3,223.75,0.25,95,115.0
2076,F2,223.75,0.25,95,115.0
2077,D3,224.0,0.25,95,115.0
2078,D3,224.0,0.25,95,115.0
2079,B1,224.0,0.25,95,115.0
2080,E-3,224.0,0.25,95,115.0
2081,C#3,224.0,0.25,95,115.0
2082,D6,224.0,0.75,95,115.0
2083,D5,224.0,0.75,95,115.0
2084,E3,224.25,0.25,95,115.0
2085,E3,224.25,0.25,95,115.0
2086,B1,224.25,0.25,95,115.0
2087,F3,224.5,0.25,95,115.0
2088,F3,224.5,0.25,95,115.0
2089,B1,224.5,0.25,95,115.0
2090,E-3,224.5,0.25,95,115.0
2091,E3,224.75,0.25,95,115.0
2092,E3,224.75,0.25,95,115.0
2093,B1,224.75,0.25,95,115.0
2094,F3,225.0,0.25,95,115.0
2095,F3,225.0,0.25,95,115.0
2096,B1,225.0,0.25,95,115.0
2097,D2,225.0,0.25,95,115.0
2098,E-3,225.0,0.25,95,115.0
2099,G3,225.25,0.25,95,115.0
2100,G3,225.25,0.25,95,115.0
2101,B1,225.25,0.25,95,115.0
2102,F3,225.5,0.25,95,115.0
2103,F3,225.5,0.25,95,115.0
2104,B1,225.5,0.25,95,115.0
2105,E-3,225.5,0.25,95,115.0
2106,E3,225.75,0.25,95,115.0
2107,E3,225.75,0.25,95,115.0
2108,B1,225.75,0.25,95,115.0
2109,A3,226.0,0.5,95,115.0
2110,A3,226.0,0.5,95,115.0
2111,B1,226.0,0.25,95,115.0
2112,E-3,226.0,0.25,95,115.0
2113,B1,226.25,0.25,95,115.0
2114,F3,226.5,0.25,95,115.0
2115,F3,226.5,0.25,95,115.0
2116,B1,226.5,0.25,95,115.0
2117,E-3,226.5,0.25,95,115.0
2118,E3,226.75,0.25,95,115.0
2119,E3,226.75,0.25,95,115.0
2120,B1,226.75,0.25,95,115.0
2121,F3,227.0,0.25,95,115.0
2122,F3,227.0,0.25,95,115.0
2123,B1,227.0,0.25,95,115.0
2124,D2,227.0,0.25,95,115.0
2125,E-3,227.0,0.25,95,115.0
2126,E3,227.25,0.25,95,115.0
2127,E3,227.25,0.25,95,115.0
2128,B1,227.25,0.25,95,115.0
2129,D3,227.5,0.5,95,115.0
2130,D3,227.5,0.5,95,115.0
2131,B1,227.5,0.25,95,115.0
2132,E-3,227.5,0.25,95,115.0
2133,F5,227.5,0.5,95,115.0
2134,F4,227.5,0.5,95,115.0
2135,B1,227.75,0.25,95,115.0
2136,D3,228.0,0.25,95,115.0
2137,D3,228.0,0.25,95,115.0
2138,B1,228.0,0.25,95,115.0
2139,E-3,228.0,0.25,95,115.0
2140,C#3,228.0,0.25,95,115.0
2141,B-5,228.0,0.75,95,115.0
2142,B-4,228.0,0.75,95,115.0
2143,E3,228.25,0.25,95,115.0
2144,E3,228.25,0.25,95,115.0
2145,B1,228.25,0.25,95,115.0
2146,F3,228.5,0.25,95,115.0
2147,F3,228.5,0.25,95,115.0
2148,B1,228.5,0.25,95,115.0
2149,E-3,228.5,0.25,95,115.0
2150,E3,228.75,0.25,95,115.0
2151,E3,228.75,0.25,95,115.0
2152,B1,228.75,0.25,95,115.0
2153,F3,229.0,0.25,95,115.0
2154,F3,229.0,0.25,95,115.0
2155,B1,229.0,0.25,95,115.0
2156,D2,229.0,0.25,95,115.0
2157,E-3,229.0,0.25,95,115.0
2158,G3,229.25,0.25,95,115.0
2159,G3,229.25,0.25,95,115.0
2160,B1,229.25,0.25,95,115.0
2161,F3,229.5,0.25,95,115.0
2162,F3,229.5,0.25,95,115.0
2163,B1,229.5,0.25,95,115.0
2164,E-3,229.5,0.25,95,115.0
2165,E3,229.75,0.25,95,115.0
2166,E3,229.75,0.25,95,115.0
2167,B1,229.75,0.25,95,115.0
2168,A3,230.0,0.5,95,115.0
2169,A3,230.0,0.5,95,115.0
2170,B1,230.0,0.25,95,115.0
2171,E-3,230.0,0.25,95,115.0
2172,B1,230.25,0.25,95,115.0
2173,F3,230.5,0.25,95,115.0
2174,F3,230.5,0.25,95,115.0
2175,B1,230.5,0.25,95,115.0
2176,E-3,230.5,0.25,95,115.0
2177,E3,230.75,0.25,95,115.0
2178,E3,230.75,0.25,95,115.0
2179,B1,230.75,0.25,95,115.0
2180,F3,231.0,0.25,95,115.0
2181,F3,231.0,0.25,95,115.0
2182,B1,231.0,0.25,95,115.0
2183,D2,231.0,0.25,95,115.0
2184,E-3,231.0,0.25,95,115.0
2185,E3,231.25,0.25,95,115.0
2186,E3,231.25,0.25,95,115.0
2187,B1,231.25,0.25,95,115.0
2188,D3,231.5,0.5,95,115.0
2189,D3,231.5,0.5,95,115.0
2190,B1,231.5,0.25,95,115.0
2191,E-3,231.5,0.25,95,115.0
2192,G5,231.5,0.5,95,115.0
2193,G4,231.5,0.5,95,115.0
2194,B1,231.75,0.25,95,115.0
2195,D3,232.0,0.25,95,115.0
2196,D3,232.0,0.25,95,115.0
2197,B1,232.0,0.25,95,115.0
2198,E-3,232.0,0.25,95,115.0
2199,C#3,232.0,0.25,95,115.0
2200,C6,232.0,0.75,95,115.0
2201,C5,232.0,0.75,95,115.0
2202,E3,232.25,0.25,95,115.0
2203,E3,232.25,0.25,95,115.0
2204,B1,232.25,0.25,95,115.0
2205,F3,232.5,0.25,95,115.0
2206,F3,232.5,0.25,95,115.0
2207,B1,232.5,0.25,95,115.0
2208,E-3,232.5,0.25,95,115.0
2209,E3,232.75,0.25,95,115.0
2210,E3,232.75,0.25,95,115.0
2211,B1,232.75,0.25,95,115.0
2212,F3,233.0,0.25,95,115.0
2213,F3,233.0,0.25,95,115.0
2214,B1,233.0,0.25,95,115.0
2215,D2,233.0,0.25,95,115.0
2216,E-3,233.0,0.25,95,115.0
2217,G3,233.25,0.25,95,115.0
2218,G3,233.25,0.25,95,115.0
2219,B1,233.25,0.25,95,115.0
2220,F3,233.5,0.25,95,115.0
2221,F3,233.5,0.25,95,115.0
2222,B1,233.5,0.25,95,115.0
2223,E-3,233.5,0.25,95,115.0
2224,E3,233.75,0.25,95,115.0
2225,E3,233.75,0.25,95,115.0
2226,B1,233.75,0.25,95,115.0
2227,A3,234.0,0.5,95,115.0
2228,A3,234.0,0.5,95,115.0
2229,B1,234.0,0.25,95,115.0
2230,E-3,234.0,0.25,95,115.0
2231,B1,234.25,0.25,95,115.0
2232,F3,234.5,0.25,95,115.0
2233,F3,234.5,0.25,95,115.0
2234,B1,234.5,0.25,95,115.0
2235,E-3,234.5,0.25,95,115.0
2236,E3,234.75,0.25,95,115.0
2237,E3,234.75,0.25,95,115.0
2238,B1,234.75,0.25,95,115.0
2239,F3,235.0,0.25,95,115.0
2240,F3,235.0,0.25,95,115.0
2241,B1,235.0,0.25,95,115.0
2242,D2,235.0,0.25,95,115.0
2243,E-3,235.0,0.25,95,115.0
2244,E3,235.25,0.25,95,115.0
2245,E3,235.25,0.25,95,115.0
2246,B1,235.25,0.25,95,115.0
2247,D3,235.5,0.5,95,115.0
2248,D3,235.5,0.5,95,115.0
2249,B1,235.5,0.25,95,115.0
2250,E-3,235.5,0.25,95,115.0
2251,A5,235.5,0.5,95,115.0
2252,A4,235.5,0.5,95,115.0
2253,B1,235.75,0.25,95,115.0
2254,D3,236.0,0.25,95,115.0
2255,D3,236.0,0.25,95,115.0
2256,B1,236.0,0.25,95,115.0
2257,E-3,236.0,0.25,95,115.0
2258,C#3,236.0,0.25,95,115.0
2259,D6,236.0,0.75,95,115.0
2260,D5,236.0,0.75,95,115.0
2261,E3,236.25,0.25,95,115.0
2262,E3,236.25,0.25,95,115.0
2263,B1,236.25,0.25,95,115.0
2264,F3,236.5,0.25,95,115.0
2265,F3,236.5,0.25,95,115.0
2266,B1,236.5,0.25,95,115.0
2267,E-3,236.5,0.25,95,115.0
2268,E3,236.75,0.25,95,115.0
2269,E3,236.75,0.25,95,115.0
2270,B1,236.75,0.25,95,115.0
2271,A5,236.75,0.75,95,115.0
2272,A4,236.75,0.75,95,115.0
2273,F3,237.0,0.25,95,115.0
2274,F3,237.0,0.25,95,115.0
2275,B1,237.0,0.25,95,115.0
2276,D2,237.0,0.25,95,115.0
2277,E-3,237.0,0.25,95,115.0
2278,G3,237.25,0.25,95,115.0
2279,G3,237.25,0.25,95,115.0
2280,B1,237.25,0.25,95,115.0
2281,F3,237.5,0.25,95,115.0
2282,F3,237.5,0.25,95,115.0
2283,B1,237.5,0.25,95,115.0
2284,E-3,237.5,0.25,95,115.0
2285,B-5,237.5,0.75,95,115.0
2286,B-4,237.5,0.75,95,115.0
2287,E3,237.75,0.25,95,115.0
2288,E3,237.75,0.25,95,115.0
2289,B1,237.75,0.25,95,115.0
2290,A3,238.0,0.5,95,115.0
2291,A3,238.0,0.5,95,115.0
2292,B1,238.0,0.25,95,115.0
2293,E-3,238.0,0.25,95,115.0
2294,B1,238.25,0.25,95,115.0
2295,A5,238.25,0.25,95,115.0
2296,A4,238.25,0.25,95,115.0
2297,F3,238.5,0.25,95,115.0
2298,F3,238.5,0.25,95,115.0
2299,B1,238.5,0.25,95,115.0
2300,E-3,238.5,0.25,95,115.0
2301,B-5,238.5,0.25,95,115.0
2302,B-4,238.5,0.25,95,115.0
2303,E3,238.75,0.25,95,115.0
2304,E3,238.75,0.25,95,115.0
2305,B1,238.75,0.25,95,115.0
2306,A5,238.75,0.25,95,115.0
2307,A4,238.75,0.25,95,115.0
2308,F3,239.0,0.25,95,115.0
2309,F3,239.0,0.25,95,115.0
2310,B1,239.0,0.25,95,115.0
2311,D2,239.0,0.25,95,115.0
2312,E-3,239.0,0.25,95,115.0
2313,F6,239.0,0.25,95,115.0
2314,F5,239.0,0.25,95,115.0
2315,E3,239.25,0.25,95,115.0
2316,E3,239.25,0.25,95,115.0
2317,B1,239.25,0.25,95,115.0
2318,E6,239.25,0.25,95,115.0
2319,E5,239.25,0.25,95,115.0
2320,D3,239.5,0.5,95,115.0
2321,D3,239.5,0.5,95,115.0
2322,B1,239.5,0.25,95,115.0
2323,E-3,239.5,0.25,95,115.0
2324,D6,239.5,0.25,95,115.0
2325,D5,239.5,0.25,95,115.0
2326,B1,239.75,0.25,95,115.0
2327,C6,239.75,0.25,95,115.0
2328,C5,239.75,0.25,95,115.0
2329,D3,240.0,0.25,95,115.0
2330,D3,240.0,0.25,95,115.0
2331,B1,240.0,0.25,95,115.0
2332,E-3,240.0,0.25,95,115.0
2333,C#3,240.0,0.25,95,115.0
2334,D6,240.0,0.75,95,115.0
2335,D5,240.0,0.75,95,115.0
2336,E3,240.25,0.25,95,115.0
2337,E3,240.25,0.25,95,115.0
2338,B1,240.25,0.25,95,115.0
2339,F3,240.5,0.25,95,115.0
2340,F3,240.5,0.25,95,115.0
2341,B1,240.5,0.25,95,115.0
2342,E-3,240.5,0.25,95,115.0
2343,E3,240.75,0.25,95,115.0
2344,E3,240.75,0.25,95,115.0
2345,B1,240.75,0.25,95,115.0
2346,F3,241.0,0.25,95,115.0
2347,F3,241.0,0.25,95,115.0
2348,B1,241.0,0.25,95,115.0
2349,D2,241.0,0.25,95,115.0
2350,E-3,241.0,0.25,95,115.0
2351,G3,241.25,0.25,95,115.0
2352,G3,241.25,0.25,95,115.0
2353,B1,241.25,0.25,95,115.0
2354,F3,241.5,0.25,95,115.0
2355,F3,241.5,0.25,95,115.0
2356,B1,241.5,0.25,95,115.0
2357,E-3,241.5,0.25,95,115.0
2358,E3,241.75,0.25,95,115.0
2359,E3,241.75,0.25,95,115.0
2360,B1,241.75,0.25,95,115.0
2361,A3,242.0,0.5,95,115.0
2362,A3,242.0,0.5,95,115.0
2363,B1,242.0,0.25,95,115.0
2364,E-3,242.0,0.25,95,115.0
2365,B1,242.25,0.25,95,115.0
2366,F3,242.5,0.25,95,115.0
2367,F3,242.5,0.25,95,115.0
2368,B1,242.5,0.25,95,115.0
2369,E-3,242.5,0.25,95,115.0
2370,E3,242.75,0.25,95,115.0
2371,E3,242.75,0.25,95,115.0
2372,B1,242.75,0.25,95,115.0
2373,F3,243.0,0.25,95,115.0
2374,F3,243.0,0.25,95,115.0
2375,B1,243.0,0.25,95,115.0
2376,D2,243.0,0.25,95,115.0
2377,E-3,243.0,0.25,95,115.0
2378,E3,243.25,0.25,95,115.0
2379,E3,243.25,0.25,95,115.0
2380,B1,243.25,0.25,95,115.0
2381,D3,243.5,0.5,95,115.0
2382,D3,243.5,0.5,95,115.0
2383,B1,243.5,0.25,95,115.0
2384,E-3,243.5,0.25,95,115.0
2385,F5,243.5,0.5,95,115.0
2386,F4,243.5,0.5,95,115.0
2387,B1,243.75,0.25,95,115.0
2388,D3,244.0,0.25,95,115.0
2389,D3,244.0,0.25,95,115.0
2390,B1,244.0,0.25,95,115.0
2391,E-3,244.0,0.25,95,115.0
2392,C#3,244.0,0.25,95,115.0
2393,B-5,244.0,0.75,95,115.0
2394,B-4,244.0,0.75,95,115.0
2395,E3,244.25,0.25,95,115.0
2396,E3,244.25,0.25,95,115.0
2397,B1,244.25,0.25,95,115.0
2398,F3,244.5,0.25,95,115.0
2399,F3,244.5,0.25,95,115.0
2400,B1,244.5,0.25,95,115.0
2401,E-3,244.5,0.25,95,115.0
2402,E3,244.75,0.25,95,115.0
2403,E3,244.75,0.25,95,115.0
2404,B1,244.75,0.25,95,115.0
2405,F3,245.0,0.25,95,115.0
2406,F3,245.0,0.25,95,115.0
2407,B1,245.0,0.25,95,115.0
2408,D2,245.0,0.25,95,115.0
2409,E-3,245.0,0.25,95,115.0
2410,G3,245.25,0.25,95,115.0
2411,G3,245.25,0.25,95,115.0
2412,B1,245.25,0.25,95,115.0
2413,F3,245.5,0.25,95,115.0
2414,F3,245.5,0.25,95,115.0
2415,B1,245.5,0.25,95,115.0
2416,E-3,245.5,0.25,95,115.0
2417,E3,245.75,0.25,95,115.0
2418,E3,245.75,0.25,95,115.0
2419,B1,245.75,0.25,95,115.0
2420,A3,246.0,0.5,95,115.0
2421,A3,246.0,0.5,95,115.0
2422,B1,246.0,0.25,95,115.0
2423,E-3,246.0,0.25,95,115.0
2424,B1,246.25,0.25,95,115.0
2425,F3,246.5,0.25,95,115.0
2426,F3,246.5,0.25,95,115.0
2427,B1,246.5,0.25,95,115.0
2428,E-3,246.5,0.25,95,115.0
2429,E3,246.75,0.25,95,115.0
2430,E3,246.75,0.25,95,115.0
2431,B1,246.75,0.25,95,115.0
2432,F3,247.0,0.25,95,115.0
2433,F3,247.0,0.25,95,115.0
2434,B1,247.0,0.25,95,115.0
2435,D2,247.0,0.25,95,115.0
2436,E-3,247.0,0.25,95,115.0
2437,E3,247.25,0.25,95,115.0
2438,E3,247.25,0.25,95,115.0
2439,B1,247.25,0.25,95,115.0
2440,D3,247.5,0.5,95,115.0
2441,D3,247.5,0.5,95,115.0
2442,B1,247.5,0.25,95,115.0
2443,E-3,247.5,0.25,95,115.0
2444,G5,247.5,0.5,95,115.0
2445,G4,247.5,0.5,95,115.0
2446,B1,247.75,0.25,95,115.0
2447,D3,248.0,0.25,95,115.0
2448,D3,248.0,0.25,95,115.0
2449,B1,248.0,0.25,95,115.0
2450,E-3,248.0,0.25,95,115.0
2451,C#3,248.0,0.25,95,115.0
2452,C6,248.0,0.75,95,115.0
2453,C5,248.0,0.75,95,115.0
2454,E3,248.25,0.25,95,115.0
2455,E3,248.25,0.25,95,115.0
2456,B1,248.25,0.25,95,115.0
2457,F3,248.5,0.25,95,115.0
2458,F3,248.5,0.25,95,115.0
2459,B1,248.5,0.25,95,115.0
2460,E-3,248.5,0.25,95,115.0
2461,E3,248.75,0.25,95,115.0
2462,E3,248.75,0.25,95,115.0
2463,B1,248.75,0.25,95,115.0
2464,F3,249.0,0.25,95,115.0
2465,F3,249.0,0.25,95,115.0
2466,B1,249.0,0.25,95,115.0
2467,D2,249.0,0.25,95,115.0
2468,E-3,249.0,0.25,95,115.0
2469,G3,249.25,0.25,95,115.0
2470,G3,249.25,0.25,95,115.0
2471,B1,249.25,0.25,95,115.0
2472,F3,249.5,0.25,95,115.0
2473,F3,249.5,0.25,95,115.0
2474,B1,249.5,0.25,95,115.0
2475,E-3,249.5,0.25,95,115.0
2476,E3,249.75,0.25,95,115.0
2477,E3,249.75,0.25,95,115.0
2478,B1,249.75,0.25,95,115.0
2479,A3,250.0,0.5,95,115.0
2480,A3,250.0,0.5,95,115.0
2481,B1,250.0,0.25,95,115.0
2482,E-3,250.0,0.25,95,115.0
2483,B1,250.25,0.25,95,115.0
2484,F3,250.5,0.25,95,115.0
2485,F3,250.5,0.25,95,115.0
2486,B1,250.5,0.25,95,115.0
2487,E-3,250.5,0.25,95,115.0
2488,E3,250.75,0.25,95,115.0
2489,E3,250.75,0.25,95,115.0
2490,B1,250.75,0.25,95,115.0
2491,F3,251.0,0.25,95,115.0
2492,F3,251.0,0.25,95,115.0
2493,B1,251.0,0.25,95,115.0
2494,D2,251.0,0.25,95,115.0
2495,E-3,251.0,0.25,95,115.0
2496,E3,251.25,0.25,95,115.0
2497,E3,251.25,0.25,95,115.0
2498,B1,251.25,0.25,95,115.0
2499,D3,251.5,0.5,95,115.0
2500,D3,251.5,0.5,95,115.0
2501,B1,251.5,0.25,95,115.0
2502,E-3,251.5,0.25,95,115.0
2503,A5,251.5,0.5,95,115.0
2504,A4,251.5,0.5,95,115.0
2505,B1,251.75,0.25,95,115.0
2506,D3,252.0,0.25,95,115.0
2507,D3,252.0,0.25,95,115.0
2508,B1,252.0,0.25,95,115.0
2509,E-3,252.0,0.25,95,115.0
2510,C#3,252.0,0.25,95,115.0
2511,D6,252.0,0.75,95,115.0
2512,D5,252.0,0.75,95,115.0
2513,E3,252.25,0.25,95,115.0
2514,E3,252.25,0.25,95,115.0
2515,B1,252.25,0.25,95,115.0
2516,F3,252.5,0.25,95,115.0
2517,F3,252.5,0.25,95,115.0
2518,B1,252.5,0.25,95,115.0
2519,E-3,252.5,0.25,95,115.0
2520,E3,252.75,0.25,95,115.0
2521,E3,252.75,0.25,95,115.0
2522,B1,252.75,0.25,95,115.0
2523,A5,252.75,0.75,95,115.0
2524,A4,252.75,0.75,95,115.0
2525,F3,253.0,0.25,95,115.0
2526,F3,253.0,0.25,95,115.0
2527,B1,253.0,0.25,95,115.0
2528,D2,253.0,0.25,95,115.0
2529,E-3,253.0,0.25,95,115.0
2530,G3,253.25,0.25,95,115.0
2531,G3,253.25,0.25,95,115.0
2532,B1,253.25,0.25,95,115.0
2533,F3,253.5,0.25,95,115.0
2534,F3,253.5,0.25,95,115.0
2535,B1,253.5,0.25,95,115.0
2536,E-3,253.5,0.25,95,115.0
2537,B-5,253.5,0.75,95,115.0
2538,B-4,253.5,0.75,95,115.0
2539,E3,253.75,0.25,95,115.0
2540,E3,253.75,0.25,95,115.0
2541,B1,253.75,0.25,95,115.0
2542,A3,254.0,0.5,95,115.0
2543,A3,254.0,0.5,95,115.0
2544,D2,254.0,0.25,95,115.0
2545,D2,254.25,0.25,95,115.0
2546,A5,254.25,0.25,95,115.0
2547,A4,254.25,0.25,95,115.0
2548,F3,254.5,0.25,95,115.0
2549,F3,254.5,0.25,95,115.0
2550,D2,254.5,0.5,95,115.0
2551,B-5,254.5,0.25,95,115.0
2552,B-4,254.5,0.25,95,115.0
2553,E3,254.75,0.25,95,115.0
2554,E3,254.75,0.25,95,115.0
2555,A5,254.75,0.25,95,115.0
2556,A4,254.75,0.25,95,115.0
2557,F3,255.0,0.25,95,115.0
2558,F3,255.0,0.25,95,115.0
2559,B2,255.0,0.25,95,115.0
2560,F6,255.0,0.25,95,115.0
2561,F5,255.0,0.25,95,115.0
2562,E3,255.25,0.25,95,115.0
2563,E3,255.25,0.25,95,115.0
2564,A2,255.25,0.25,95,115.0
2565,E6,255.25,0.25,95,115.0
2566,E5,255.25,0.25,95,115.0
2567,D3,255.5,0.5,95,115.0
2568,D3,255.5,0.5,95,115.0
2569,G2,255.5,0.25,95,115.0
2570,D6,255.5,0.25,95,115.0
2571,D5,255.5,0.25,95,115.0
2572,F2,255.75,0.25,95,115.0
2573,C6,255.75,0.25,95,115.0
2574,C5,255.75,0.25,95,115.0
2575,D3,256.0,1.25,95,115.0
2576,D3,256.0,1.25,95,115.0
2577,C1,256.0,4.0,95,115.0
2578,C2,256.0,1.25,95,115.0
2579,C#3,256.0,1.25,95,115.0
2580,D6,256.0,0.75,95,115.0
2581,D5,256.0,0.75,95,115.0
2582,D3,257.25,0.25,95,115.0
2583,D3,257.25,0.25,95,115.0
2584,D2,257.25,0.25,95,115.0
2585,E3,257.5,0.25,95,115.0
2586,E3,257.5,0.25,95,115.0
2587,D2,257.5,0.25,95,115.0
2588,F3,257.75,0.25,95,115.0
2589,F3,257.75,0.25,95,115.0
2590,D2,257.75,0.25,95,115.0
2591,A3,258.0,1.25,95,115.0
2592,A3,258.0,1.25,95,115.0
2593,C2,258.0,1.25,95,115.0
2594,C#3,258.0,1.25,95,115.0
2595,A3,259.25,0.25,95,115.0
2596,A3,259.25,0.25,95,115.0
2597,D2,259.25,0.25,95,115.0
2598,F3,259.5,0.25,95,115.0
2599,F3,259.5,0.25,95,115.0
2600,D2,259.5,0.25,95,115.0
2601,F5,259.5,0.5,95,115.0
2602,F4,259.5,0.5,95,115.0
2603,E3,259.75,0.25,95,115.0
2604,E3,259.75,0.25,95,115.0
2605,D2,259.75,0.25,95,115.0
2606,D3,260.0,0.25,95,115.0
2607,D3,260.0,0.5,95,115.0
2608,A0,260.0,4.0,95,115.0
2609,C2,260.0,0.5,95,115.0
2610,C#3,260.0,0.5,95,115.0
2611,B-5,260.0,0.75,95,115.0
2612,B-4,260.0,0.75,95,115.0
2613,E3,260.25,0.25,95,115.0
2614,F3,260.5,0.25,95,115.0
2615,E3,260.5,0.25,95,115.0
2616,D2,260.5,0.25,95,115.0
2617,E3,260.75,0.25,95,115.0
2618,F3,260.75,0.25,95,115.0
2619,D2,260.75,0.25,95,115.0
2620,F3,261.0,0.25,95,115.0
2621,A3,261.0,0.5,95,115.0
2622,C2,261.0,0.5,95,115.0
2623,C#3,261.0,0.5,95,115.0
2624,G3,261.25,0.25,95,115.0
2625,F3,261.5,0.25,95,115.0
2626,F3,261.5,0.25,95,115.0
2627,D2,261.5,0.25,95,115.0
2628,E3,261.75,0.25,95,115.0
2629,E3,261.75,0.25,95,115.0
2630,D2,261.75,0.25,95,115.0
2631,A3,262.0,0.5,95,115.0
2632,D3,262.0,0.5,95,115.0
2633,C2,262.0,0.5,95,115.0
2634,C#3,262.0,0.5,95,115.0
2635,F3,262.5,0.25,95,115.0
2636,E3,262.5,0.25,95,115.0
2637,D2,262.5,0.25,95,115.0
2638,E3,262.75,0.25,95,115.0
2639,F3,262.75,0.25,95,115.0
2640,D2,262.75,0.25,95,115.0
2641,F3,263.0,0.25,95,115.0
2642,A3,263.0,0.25,95,115.0
2643,B2,263.0,0.25,95,115.0
2644,E3,263.25,0.25,95,115.0
2645,F3,263.25,0.25,95,115.0
2646,A2,263.25,0.25,95,115.0
2647,D3,263.5,0.5,95,115.0
2648,E3,263.5,0.5,95,115.0
2649,G2,263.5,0.25,95,115.0
2650,G5,263.5,0.5,95,115.0
2651,G4,263.5,0.5,95,115.0
2652,F2,263.75,0.25,95,115.0
2653,D3,264.0,1.25,95,115.0
2654,D3,264.0,1.25,95,115.0
2655,C1,264.0,4.0,95,115.0
2656,C2,264.0,1.25,95,115.0
2657,C#3,264.0,1.25,95,115.0
2658,C6,264.0,0.75,95,115.0
2659,C5,264.0,0.75,95,115.0
2660,D3,265.25,0.25,95,115.0
2661,D3,265.25,0.25,95,115.0
2662,D2,265.25,0.25,95,115.0
2663,E3,265.5,0.25,95,115.0
2664,D2,265.5,0.25,95,115.0
2665,E3,265.5,0.25,95,115.0
2666,E3,265.5,0.25,95,115.0
2667,F3,265.75,0.25,95,115.0
2668,D2,265.75,0.25,95,115.0
2669,F3,265.75,0.25,95,115.0
2670,F3,265.75,0.25,95,115.0
2671,A3,266.0,1.25,95,115.0
2672,A3,266.0,1.25,95,115.0
2673,C2,266.0,1.25,95,115.0
2674,C#3,266.0,1.25,95,115.0
2675,A3,267.25,0.25,95,115.0
2676,A3,267.25,0.25,95,115.0
2677,D2,267.25,0.25,95,115.0
2678,F3,267.5,0.25,95,115.0
2679,F3,267.5,0.25,95,115.0
2680,D2,267.5,0.25,95,115.0
2681,A5,267.5,0.5,95,115.0
2682,A4,267.5,0.5,95,115.0
2683,E3,267.75,0.25,95,115.0
2684,E3,267.75,0.25,95,115.0
2685,D2,267.75,0.25,95,115.0
2686,B-2,268.0,0.5,95,115.0
2687,D3,268.0,0.5,95,115.0
2688,A0,268.0,4.0,95,115.0
2689,C2,268.0,0.5,95,115.0
2690,C#3,268.0,0.5,95,115.0
2691,D6,268.0,0.75,95,115.0
2692,D5,268.0,0.75,95,115.0
2693,E3,268.5,0.25,95,115.0
2694,E3,268.5,0.25,95,115.0
2695,D2,268.5,0.25,95,115.0
2696,F3,268.75,0.25,95,115.0
2697,F3,268.75,0.25,95,115.0
2698,D2,268.75,0.25,95,115.0
2699,A5,268.75,0.75,95,115.0
2700,A4,268.75,0.75,95,115.0
2701,A3,269.0,0.5,95,115.0
2702,A3,269.0,0.5,95,115.0
2703,C2,269.0,0.5,95,115.0
2704,C#3,269.0,0.5,95,115.0
2705,F3,269.5,0.25,95,115.0
2706,F3,269.5,0.25,95,115.0
2707,D2,269.5,0.25,95,115.0
2708,B-5,269.5,0.75,95,115.0
2709,B-4,269.5,0.75,95,115.0
2710,E3,269.75,0.25,95,115.0
2711,E3,269.75,0.25,95,115.0
2712,D2,269.75,0.25,95,115.0
2713,B-2,270.0,2.0,95,115.0
2714,D3,270.0,0.5,95,115.0
2715,C2,270.0,0.5,95,115.0
2716,C#3,270.0,0.5,95,115.0
2717,A5,270.25,0.25,95,115.0
2718,A4,270.25,0.25,95,115.0
2719,E3,270.5,0.25,95,115.0
2720,E3,270.5,0.25,95,115.0
2721,D2,270.5,0.25,95,115.0
2722,B-5,270.5,0.25,95,115.0
2723,B-4,270.5,0.25,95,115.0
2724,F3,270.75,0.25,95,115.0
2725,F3,270.75,0.25,95,115.0
2726,D2,270.75,0.25,95,115.0
2727,A5,270.75,0.25,95,115.0
2728,A4,270.75,0.25,95,115.0
2729,A3,271.0,0.25,95,115.0
2730,A3,271.0,0.25,95,115.0
2731,B2,271.0,0.25,95,115.0
2732,F6,271.0,0.25,95,115.0
2733,F5,271.0,0.25,95,115.0
2734,F3,271.25,0.25,95,115.0
2735,F3,271.25,0.25,95,115.0
2736,A2,271.25,0.25,95,115.0
2737,E6,271.25,0.25,95,115.0
2738,E5,271.25,0.25,95,115.0
2739,E3,271.5,0.5,95,115.0
2740,E3,271.5,0.5,95,115.0
2741,G2,271.5,0.25,95,115.0
2742,D6,271.5,0.25,95,115.0
2743,D5,271.5,0.25,95,115.0
2744,F2,271.75,0.25,95,115.0
2745,C6,271.75,0.25,95,115.0
2746,C5,271.75,0.25,95,115.0
2747,D3,272.0,1.25,95,115.0
2748,B-2,272.0,4.0,95,115.0
2749,D3,272.0,1.25,95,115.0
2750,C1,272.0,4.0,95,115.0
2751,C2,272.0,1.25,95,115.0
2752,C#3,272.0,1.25,95,115.0
2753,D6,272.0,0.75,95,115.0
2754,D5,272.0,0.75,95,115.0
2755,D3,273.25,0.25,95,115.0
2756,D3,273.25,0.25,95,115.0
2757,D2,273.25,0.25,95,115.0
2758,E3,273.5,0.25,95,115.0
2759,E3,273.5,0.25,95,115.0
2760,D2,273.5,0.25,95,115.0
2761,F3,273.75,0.25,95,115.0
2762,F3,273.75,0.25,95,115.0
2763,D2,273.75,0.25,95,115.0
2764,A3,274.0,1.25,95,115.0
2765,A3,274.0,1.25,95,115.0
2766,C2,274.0,1.25,95,115.0
2767,C#3,274.0,1.25,95,115.0
2768,A3,275.25,0.25,95,115.0
2769,A3,275.25,0.25,95,115.0
2770,D2,275.25,0.25,95,115.0
2771,F3,275.5,0.25,95,115.0
2772,F3,275.5,0.25,95,115.0
2773,D2,275.5,0.25,95,115.0
2774,F5,275.5,0.5,95,115.0
2775,F4,275.5,0.5,95,115.0
2776,E3,275.75,0.25,95,115.0
2777,E3,275.75,0.25,95,115.0
2778,D2,275.75,0.25,95,115.0
2779,D3,276.0,0.5,95,115.0
2780,B-2,276.0,4.0,95,115.0
2781,D3,276.0,0.5,95,115.0
2782,A0,276.0,4.0,95,115.0
2783,C2,276.0,0.5,95,115.0
2784,C#3,276.0,0.5,95,115.0
2785,B-5,276.0,0.75,95,115.0
2786,B-4,276.0,0.75,95,115.0
2787,E3,276.5,0.25,95,115.0
2788,E3,276.5,0.25,95,115.0
2789,D2,276.5,0.25,95,115.0
2790,F3,276.75,0.25,95,115.0
2791,F3,276.75,0.25,95,115.0
2792,D2,276.75,0.25,95,115.0
2793,A3,277.0,0.5,95,115.0
2794,A3,277.0,0.5,95,115.0
2795,C2,277.0,0.5,95,115.0
2796,C#3,277.0,0.5,95,115.0
2797,F3,277.5,0.25,95,115.0
2798,F3,277.5,0.25,95,115.0
2799,D2,277.5,0.25,95,115.0
2800,E3,277.75,0.25,95,115.0
2801,E3,277.75,0.25,95,115.0
2802,D2,277.75,0.25,95,115.0
2803,D3,278.0,0.5,95,115.0
2804,D3,278.0,0.5,95,115.0
2805,C2,278.0,0.5,95,115.0
2806,C#3,278.0,0.5,95,115.0
2807,E3,278.5,0.25,95,115.0
2808,E3,278.5,0.25,95,115.0
2809,D2,278.5,0.25,95,115.0
2810,F3,278.75,0.25,95,115.0
2811,F3,278.75,0.25,95,115.0
2812,D2,278.75,0.25,95,115.0
2813,A3,279.0,0.25,95,115.0
2814,A3,279.0,0.25,95,115.0
2815,B2,279.0,0.25,95,115.0
2816,F3,279.25,0.25,95,115.0
2817,F3,279.25,0.25,95,115.0
2818,A2,279.25,0.25,95,115.0
2819,E3,279.5,0.5,95,115.0
2820,E3,279.5,0.5,95,115.0
2821,G2,279.5,0.25,95,115.0
2822,G5,279.5,0.5,95,115.0
2823,G4,279.5,0.5,95,115.0
2824,F2,279.75,0.25,95,115.0
2825,D3,280.0,1.25,95,115.0
2826,B-2,280.0,1.25,95,115.0
2827,D3,280.0,1.25,95,115.0
2828,C1,280.0,4.0,95,115.0
2829,C2,280.0,1.25,95,115.0
2830,C#3,280.0,1.25,95,115.0
2831,C6,280.0,0.75,95,115.0
2832,C5,280.0,0.75,95,115.0
2833,D3,281.25,0.25,95,115.0
2834,D3,281.25,0.25,95,115.0
2835,D2,281.25,0.25,95,115.0
2836,E3,281.5,0.25,95,115.0
2837,E3,281.5,0.25,95,115.0
2838,D2,281.5,0.25,95,115.0
2839,F3,281.75,0.25,95,115.0
2840,F3,281.75,0.25,95,115.0
2841,D2,281.75,0.25,95,115.0
2842,A3,282.0,1.25,95,115.0
2843,A3,282.0,1.25,95,115.0
2844,C2,282.0,1.25,95,115.0
2845,C#3,282.0,1.25,95,115.0
2846,A3,283.25,0.25,95,115.0
2847,A3,283.25,0.25,95,115.0
2848,D2,283.25,0.25,95,115.0
2849,F3,283.5,0.25,95,115.0
2850,F3,283.5,0.25,95,115.0
2851,D2,283.5,0.25,95,115.0
2852,A5,283.5,0.5,95,115.0
2853,A4,283.5,0.5,95,115.0
2854,E3,283.75,0.25,95,115.0
2855,E3,283.75,0.25,95,115.0
2856,D2,283.75,0.25,95,115.0
2857,D3,284.0,0.5,95,115.0
2858,D3,284.0,0.5,95,115.0
2859,A0,284.0,4.0,95,115.0
2860,C2,284.0,0.5,95,115.0
2861,C#3,284.0,0.5,95,115.0
2862,D6,284.0,0.75,95,115.0
2863,D5,284.0,0.75,95,115.0
2864,E3,284.5,0.25,95,115.0
2865,E3,284.5,0.25,95,115.0
2866,D2,284.5,0.25,95,115.0
2867,F3,284.75,0.25,95,115.0
2868,F3,284.75,0.25,95,115.0
2869,D2,284.75,0.25,95,115.0
2870,A5,284.75,0.75,95,115.0
2871,A4,284.75,0.75,95,115.0
2872,A3,285.0,0.5,95,115.0
2873,A3,285.0,0.5,95,115.0
2874,C2,285.0,0.5,95,115.0
2875,C#3,285.0,0.5,95,115.0
2876,F3,285.5,0.25,95,115.0
2877,F3,285.5,0.25,95,115.0
2878,D2,285.5,0.25,95,115.0
2879,B-5,285.5,0.75,95,115.0
2880,B-4,285.5,0.75,95,115.0
2881,E3,285.75,0.25,95,115.0
2882,E3,285.75,0.25,95,115.0
2883,D2,285.75,0.25,95,115.0
2884,D3,286.0,0.5,95,115.0
2885,D3,286.0,0.5,95,115.0
2886,C2,286.0,0.5,95,115.0
2887,C#3,286.0,0.5,95,115.0
2888,A5,286.25,0.25,95,115.0
2889,A4,286.25,0.25,95,115.0
2890,E3,286.5,0.25,95,115.0
2891,E3,286.5,0.25,95,115.0
2892,D2,286.5,0.25,95,115.0
2893,B-5,286.5,0.25,95,115.0
2894,B-4,286.5,0.25,95,115.0
2895,F3,286.75,0.25,95,115.0
2896,F3,286.75,0.25,95,115.0
2897,D2,286.75,0.25,95,115.0
2898,A5,286.75,0.25,95,115.0
2899,A4,286.75,0.25,95,115.0
2900,A3,287.0,0.25,95,115.0
2901,A3,287.0,0.25,95,115.0
2902,B2,287.0,0.25,95,115.0
2903,F6,287.0,0.25,95,115.0
2904,F5,287.0,0.25,95,115.0
2905,F3,287.25,0.25,95,115.0
2906,F3,287.25,0.25,95,115.0
2907,A2,287.25,0.25,95,115.0
2908,E6,287.25,0.25,95,115.0
2909,E5,287.25,0.25,95,115.0
2910,E3,287.5,0.5,95,115.0
2911,E3,287.5,0.5,95,115.0
2912,G2,287.5,0.25,95,115.0
2913,D6,287.5,0.25,95,115.0
2914,D5,287.5,0.25,95,115.0
2915,F2,287.75,0.25,95,115.0
2916,C6,287.75,0.25,95,115.0
2917,C5,287.75,0.25,95,115.0
2918,D3,288.0,1.25,95,115.0
2919,F3,288.0,1.25,95,115.0
2920,D1,288.0,2.0,95,115.0
2921,B1,288.0,0.25,95,115.0
2922,E-3,288.0,0.25,95,115.0
2923,C#3,288.0,0.25,95,115.0
2924,B1,288.25,0.25,95,115.0
2925,B1,288.5,0.25,95,115.0
2926,E-3,288.5,0.25,95,115.0
2927,B1,288.75,0.25,95,115.0
2928,B1,289.0,0.25,95,115.0
2929,D2,289.0,0.25,95,115.0
2930,E-3,289.0,0.25,95,115.0
2931,D3,289.25,0.25,95,115.0
2932,F3,289.25,0.25,95,115.0
2933,B1,289.25,0.25,95,115.0
2934,E3,289.5,0.25,95,115.0
2935,G3,289.5,0.25,95,115.0
2936,B1,289.5,0.25,95,115.0
2937,E-3,289.5,0.25,95,115.0
2938,F3,289.75,0.25,95,115.0
2939,A3,289.75,0.25,95,115.0
2940,B1,289.75,0.25,95,115.0
2941,A3,290.0,1.25,95,115.0
2942,C4,290.0,1.25,95,115.0
2943,F1,290.0,2.0,95,115.0
2944,B1,290.0,0.25,95,115.0
2945,E-3,290.0,0.25,95,115.0
2946,B1,290.25,0.25,95,115.0
2947,B1,290.5,0.25,95,115.0
2948,E-3,290.5,0.25,95,115.0
2949,B1,290.75,0.25,95,115.0
2950,B1,291.0,0.25,95,115.0
2951,D2,291.0,0.25,95,115.0
2952,E-3,291.0,0.25,95,115.0
2953,A3,291.25,0.25,95,115.0
2954,C4,291.25,0.25,95,115.0
2955,B1,291.25,0.25,95,115.0
2956,F3,291.5,0.25,95,115.0
2957,A3,291.5,0.25,95,115.0
2958,B1,291.5,0.25,95,115.0
2959,E-3,291.5,0.25,95,115.0
2960,E3,291.75,0.25,95,115.0
2961,G3,291.75,0.25,95,115.0
2962,B1,291.75,0.25,95,115.0
2963,D3,292.0,0.5,95,115.0
2964,F3,292.0,0.5,95,115.0
2965,D1,292.0,1.0,95,115.0
2966,B1,292.0,0.25,95,115.0
2967,E-3,292.0,0.25,95,115.0
2968,C#3,292.0,0.25,95,115.0
2969,B1,292.25,0.25,95,115.0
2970,E3,292.5,0.25,95,115.0
2971,G3,292.5,0.25,95,115.0
2972,B1,292.5,0.25,95,115.0
2973,E-3,292.5,0.25,95,115.0
2974,F3,292.75,0.25,95,115.0
2975,A3,292.75,0.25,95,115.0
2976,B1,292.75,0.25,95,115.0
2977,A3,293.0,0.5,95,115.0
2978,C4,293.0,0.5,95,115.0
2979,F1,293.0,1.0,95,115.0
2980,B1,293.0,0.25,95,115.0
2981,D2,293.0,0.25,95,115.0
2982,E-3,293.0,0.25,95,115.0
2983,B1,293.25,0.25,95,115.0
2984,F3,293.5,0.25,95,115.0
2985,A3,293.5,0.25,95,115.0
2986,B1,293.5,0.25,95,115.0
2987,E-3,293.5,0.25,95,115.0
2988,E3,293.75,0.25,95,115.0
2989,G3,293.75,0.25,95,115.0
2990,B1,293.75,0.25,95,115.0
2991,D3,294.0,0.5,95,115.0
2992,F3,294.0,0.5,95,115.0
2993,D1,294.0,1.0,95,115.0
2994,B1,294.0,0.25,95,115.0
2995,E-3,294.0,0.25,95,115.0
2996,B1,294.25,0.25,95,115.0
2997,E3,294.5,0.25,95,115.0
2998,G3,294.5,0.25,95,115.0
2999,B1,294.5,0.25,95,115.0
3000,E-3,294.5,0.25,95,115.0
3001,F3,294.75,0.25,95,115.0
3002,A3,294.75,0.25,95,115.0
3003,B1,294.75,0.25,95,115.0
3004,A3,295.0,0.25,95,115.0
3005,C4,295.0,0.25,95,115.0
3006,F1,295.0,1.0,95,115.0
3007,B1,295.0,0.25,95,115.0
3008,D2,295.0,0.25,95,115.0
3009,E-3,295.0,0.25,95,115.0
3010,F3,295.25,0.25,95,115.0
3011,A3,295.25,0.25,95,115.0
3012,B1,295.25,0.25,95,115.0
3013,E3,295.5,0.5,95,115.0
3014,G3,295.5,0.5,95,115.0
3015,B1,295.5,0.25,95,115.0
3016,E-3,295.5,0.25,95,115.0
3017,B1,295.75,0.25,95,115.0
3018,D3,296.0,1.25,95,115.0
3019,F3,296.0,1.25,95,115.0
3020,D1,296.0,2.0,95,115.0
3021,B1,296.0,0.25,95,115.0
3022,E-3,296.0,0.25,95,115.0
3023,C#3,296.0,0.25,95,115.0
3024,B1,296.25,0.25,95,115.0
3025,B1,296.5,0.25,95,115.0
3026,E-3,296.5,0.25,95,115.0
3027,B1,296.75,0.25,95,115.0
3028,B1,297.0,0.25,95,115.0
3029,D2,297.0,0.25,95,115.0
3030,E-3,297.0,0.25,95,115.0
3031,D3,297.25,0.25,95,115.0
3032,F3,297.25,0.25,95,115.0
3033,B1,297.25,0.25,95,115.0
3034,E3,297.5,0.25,95,115.0
3035,G3,297.5,0.25,95,115.0
3036,B1,297.5,0.25,95,115.0
3037,E-3,297.5,0.25,95,115.0
3038,F3,297.75,0.25,95,115.0
3039,A3,297.75,0.25,95,115.0
3040,B1,297.75,0.25,95,115.0
3041,A3,298.0,1.25,95,115.0
3042,D4,298.0,1.25,95,115.0
3043,F1,298.0,2.0,95,115.0
3044,B1,298.0,0.25,95,115.0
3045,E-3,298.0,0.25,95,115.0
3046,B1,298.25,0.25,95,115.0
3047,B1,298.5,0.25,95,115.0
3048,E-3,298.5,0.25,95,115.0
3049,B1,298.75,0.25,95,115.0
3050,B1,299.0,0.25,95,115.0
3051,D2,299.0,0.25,95,115.0
3052,E-3,299.0,0.25,95,115.0
3053,A3,299.25,0.25,95,115.0
3054,C4,299.25,0.25,95,115.0
3055,B1,299.25,0.25,95,115.0
3056,F3,299.5,0.25,95,115.0
3057,A3,299.5,0.25,95,115.0
3058,B1,299.5,0.25,95,115.0
3059,E-3,299.5,0.25,95,115.0
3060,E3,299.75,0.25,95,115.0
3061,G3,299.75,0.25,95,115.0
3062,B1,299.75,0.25,95,115.0
3063,D3,300.0,0.5,95,115.0
3064,F3,300.0,0.5,95,115.0
3065,D1,300.0,1.0,95,115.0
3066,B1,300.0,0.25,95,115.0
3067,E-3,300.0,0.25,95,115.0
3068,C#3,300.0,0.25,95,115.0
3069,B1,300.25,0.25,95,115.0
3070,E3,300.5,0.25,95,115.0
3071,G3,300.5,0.25,95,115.0
3072,B1,300.5,0.25,95,115.0
3073,E-3,300.5,0.25,95,115.0
3074,F3,300.75,0.25,95,115.0
3075,A3,300.75,0.25,95,115.0
3076,B1,300.75,0.25,95,115.0
3077,A3,301.0,0.5,95,115.0
3078,C4,301.0,0.5,95,115.0
3079,F1,301.0,1.0,95,115.0
3080,B1,301.0,0.25,95,115.0
3081,D2,301.0,0.25,95,115.0
3082,E-3,301.0,0.25,95,115.0
3083,B1,301.25,0.25,95,115.0
3084,F3,301.5,0.25,95,115.0
3085,A3,301.5,0.25,95,115.0
3086,B1,301.5,0.25,95,115.0
3087,E-3,301.5,0.25,95,115.0
3088,E3,301.75,0.25,95,115.0
3089,G3,301.75,0.25,95,115.0
3090,B1,301.75,0.25,95,115.0
3091,D3,302.0,0.5,95,115.0
3092,F3,302.0,0.5,95,115.0
3093,D1,302.0,1.0,95,115.0
3094,B1,302.0,0.25,95,115.0
3095,E-3,302.0,0.25,95,115.0
3096,C#3,302.0,0.25,95,115.0
3097,B1,302.25,0.25,95,115.0
3098,E3,302.5,0.25,95,115.0
3099,G3,302.5,0.25,95,115.0
3100,B1,302.5,0.25,95,115.0
3101,E-3,302.5,0.25,95,115.0
3102,F3,302.75,0.25,95,115.0
3103,A3,302.75,0.25,95,115.0
3104,B1,302.75,0.25,95,115.0
3105,A3,303.0,0.25,95,115.0
3106,C4,303.0,0.25,95,115.0
3107,F1,303.0,1.0,95,115.0
3108,B1,303.0,0.25,95,115.0
3109,D2,303.0,0.25,95,115.0
3110,E-3,303.0,0.25,95,115.0
3111,F3,303.25,0.25,95,115.0
3112,A3,303.25,0.25,95,115.0
3113,B1,303.25,0.25,95,115.0
3114,E3,303.5,0.5,95,115.0
3115,G3,303.5,0.5,95,115.0
3116,B1,303.5,0.25,95,115.0
3117,E-3,303.5,0.25,95,115.0
3118,B1,303.75,0.25,95,115.0
3119,D3,304.0,1.25,95,115.0
3120,F3,304.0,1.25,95,115.0
3121,D1,304.0,2.0,95,115.0
3122,B1,304.0,0.25,95,115.0
3123,E-3,304.0,0.25,95,115.0
3124,C#3,304.0,0.25,95,115.0
3125,B1,304.25,0.25,95,115.0
3126,B1,304.5,0.25,95,115.0
3127,E-3,304.5,0.25,95,115.0
3128,B1,304.75,0.25,95,115.0
3129,B1,305.0,0.25,95,115.0
3130,D2,305.0,0.25,95,115.0
3131,E-3,305.0,0.25,95,115.0
3132,D3,305.25,0.25,95,115.0
3133,F3,305.25,0.25,95,115.0
3134,B1,305.25,0.25,95,115.0
3135,E3,305.5,0.25,95,115.0
3136,G3,305.5,0.25,95,115.0
3137,B1,305.5,0.25,95,115.0
3138,E-3,305.5,0.25,95,115.0
3139,F3,305.75,0.25,95,115.0
3140,A3,305.75,0.25,95,115.0
3141,B1,305.75,0.25,95,115.0
3142,A3,306.0,1.25,95,115.0
3143,C4,306.0,1.25,95,115.0
3144,F1,306.0,2.0,95,115.0
3145,B1,306.0,0.25,95,115.0
3146,E-3,306.0,0.25,95,115.0
3147,B1,306.25,0.25,95,115.0
3148,B1,306.5,0.25,95,115.0
3149,E-3,306.5,0.25,95,115.0
3150,B1,306.75,0.25,95,115.0
3151,B1,307.0,0.25,95,115.0
3152,D2,307.0,0.25,95,115.0
3153,E-3,307.0,0.25,95,115.0
3154,A3,307.25,0.25,95,115.0
3155,C4,307.25,0.25,95,115.0
3156,B1,307.25,0.25,95,115.0
3157,F3,307.5,0.25,95,115.0
3158,A3,307.5,0.25,95,115.0
3159,B1,307.5,0.25,95,115.0
3160,E-3,307.5,0.25,95,115.0
3161,E3,307.75,0.25,95,115.0
3162,G3,307.75,0.25,95,115.0
3163,B1,307.75,0.25,95,115.0
3164,D3,308.0,0.5,95,115.0
3165,F3,308.0,0.5,95,115.0
3166,D1,308.0,1.0,95,115.0
3167,B1,308.0,0.25,95,115.0
3168,E-3,308.0,0.25,95,115.0
3169,C#3,308.0,0.25,95,115.0
3170,B1,308.25,0.25,95,115.0
3171,E3,308.5,0.25,95,115.0
3172,G3,308.5,0.25,95,115.0
3173,B1,308.5,0.25,95,115.0
3174,E-3,308.5,0.25,95,115.0
3175,F3,308.75,0.25,95,115.0
3176,A3,308.75,0.25,95,115.0
3177,B1,308.75,0.25,95,115.0
3178,A3,309.0,0.5,95,115.0
3179,C4,309.0,0.5,95,115.0
3180,F1,309.0,1.0,95,115.0
3181,B1,309.0,0.25,95,115.0
3182,D2,309.0,0.25,95,115.0
3183,E-3,309.0,0.25,95,115.0
3184,B1,309.25,0.25,95,115.0
3185,F3,309.5,0.25,95,115.0
3186,A3,309.5,0.25,95,115.0
3187,B1,309.5,0.25,95,115.0
3188,E-3,309.5,0.25,95,115.0
3189,E3,309.75,0.25,95,115.0
3190,G3,309.75,0.25,95,115.0
3191,B1,309.75,0.25,95,115.0
3192,D3,310.0,0.5,95,115.0
3193,F3,310.0,0.5,95,115.0
3194,D1,310.0,1.0,95,115.0
3195,B1,310.0,0.25,95,115.0
3196,E-3,310.0,0.25,95,115.0
3197,B1,310.25,0.25,95,115.0
3198,E3,310.5,0.25,95,115.0
3199,G3,310.5,0.25,95,115.0
3200,B1,310.5,0.25,95,115.0
3201,E-3,310.5,0.25,95,115.0
3202,F3,310.75,0.25,95,115.0
3203,A3,310.75,0.25,95,115.0
3204,B1,310.75,0.25,95,115.0
3205,A3,311.0,0.25,95,115.0
3206,C4,311.0,0.25,95,115.0
3207,F1,311.0,1.0,95,115.0
3208,B1,311.0,0.25,95,115.0
3209,D2,311.0,0.25,95,115.0
3210,E-3,311.0,0.25,95,115.0
3211,F3,311.25,0.25,95,115.0
3212,A3,311.25,0.25,95,115.0
3213,B1,311.25,0.25,95,115.0
3214,E3,311.5,0.5,95,115.0
3215,G3,311.5,0.5,95,115.0
3216,B1,311.5,0.25,95,115.0
3217,E-3,311.5,0.25,95,115.0
3218,B1,311.75,0.25,95,115.0
3219,D3,312.0,1.25,95,115.0
3220,F3,312.0,1.25,95,115.0
3221,D1,312.0,2.0,95,115.0
3222,B1,312.0,0.25,95,115.0
3223,E-3,312.0,0.25,95,115.0
3224,C#3,312.0,0.25,95,115.0
3225,B1,312.25,0.25,95,115.0
3226,B1,312.5,0.25,95,115.0
3227,E-3,312.5,0.25,95,115.0
3228,B1,312.75,0.25,95,115.0
3229,B1,313.0,0.25,95,115.0
3230,D2,313.0,0.25,95,115.0
3231,E-3,313.0,0.25,95,115.0
3232,D3,313.25,0.25,95,115.0
3233,F3,313.25,0.25,95,115.0
3234,B1,313.25,0.25,95,115.0
3235,E3,313.5,0.25,95,115.0
3236,G3,313.5,0.25,95,115.0
3237,B1,313.5,0.25,95,115.0
3238,E-3,313.5,0.25,95,115.0
3239,F3,313.75,0.25,95,115.0
3240,A3,313.75,0.25,95,115.0
3241,B1,313.75,0.25,95,115.0
3242,A3,314.0,1.25,95,115.0
3243,D4,314.0,1.25,95,115.0
3244,F1,314.0,2.0,95,115.0
3245,B1,314.0,0.25,95,115.0
3246,E-3,314.0,0.25,95,115.0
3247,C#3,314.0,0.25,95,115.0
3248,B1,314.25,0.25,95,115.0
3249,B1,314.5,0.25,95,115.0
3250,E-3,314.5,0.25,95,115.0
3251,B1,314.75,0.25,95,115.0
3252,B1,315.0,0.25,95,115.0
3253,D2,315.0,0.25,95,115.0
3254,E-3,315.0,0.25,95,115.0
3255,A3,315.25,0.25,95,115.0
3256,C4,315.25,0.25,95,115.0
3257,B1,315.25,0.25,95,115.0
3258,F3,315.5,0.25,95,115.0
3259,A3,315.5,0.25,95,115.0
3260,B1,315.5,0.25,95,115.0
3261,E-3,315.5,0.25,95,115.0
3262,E3,315.75,0.25,95,115.0
3263,G3,315.75,0.25,95,115.0
3264,B1,315.75,0.25,95,115.0
3265,D3,316.0,0.5,95,115.0
3266,F3,316.0,0.5,95,115.0
3267,D1,316.0,1.0,95,115.0
3268,B1,316.0,0.25,95,115.0
3269,E-3,316.0,0.25,95,115.0
3270,C#3,316.0,0.25,95,115.0
3271,B1,316.25,0.25,95,115.0
3272,E3,316.5,0.25,95,115.0
3273,G3,316.5,0.25,95,115.0
3274,B1,316.5,0.25,95,115.0
3275,E-3,316.5,0.25,95,115.0
3276,F3,316.75,0.25,95,115.0
3277,A3,316.75,0.25,95,115.0
3278,B1,316.75,0.25,95,115.0
3279,A3,317.0,0.5,95,115.0
3280,C4,317.0,0.5,95,115.0
3281,F1,317.0,1.0,95,115.0
3282,B1,317.0,0.25,95,115.0
3283,D2,317.0,0.25,95,115.0
3284,E-3,317.0,0.25,95,115.0
3285,B1,317.25,0.25,95,115.0
3286,F3,317.5,0.25,95,115.0
3287,A3,317.5,0.25,95,115.0
3288,B1,317.5,0.25,95,115.0
3289,E-3,317.5,0.25,95,115.0
3290,E3,317.75,0.25,95,115.0
3291,G3,317.75,0.25,95,115.0
3292,B1,317.75,0.25,95,115.0
3293,D3,318.0,0.5,95,115.0
3294,F3,318.0,0.5,95,115.0
3295,D1,318.0,1.0,95,115.0
3296,B1,318.0,0.25,95,115.0
3297,E-3,318.0,0.25,95,115.0
3298,B1,318.25,0.25,95,115.0
3299,E3,318.5,0.25,95,115.0
3300,G3,318.5,0.25,95,115.0
3301,B1,318.5,0.25,95,115.0
3302,E-3,318.5,0.25,95,115.0
3303,F3,318.75,0.25,95,115.0
3304,A3,318.75,0.25,95,115.0
3305,B1,318.75,0.25,95,115.0
3306,A3,319.0,0.25,95,115.0
3307,C4,319.0,0.25,95,115.0
3308,F1,319.0,1.0,95,115.0
3309,B1,319.0,0.25,95,115.0
3310,D2,319.0,0.25,95,115.0
3311,E-3,319.0,0.25,95,115.0
3312,F3,319.25,0.25,95,115.0
3313,A3,319.25,0.25,95,115.0
3314,B1,319.25,0.25,95,115.0
3315,E3,319.5,0.5,95,115.0
3316,G3,319.5,0.5,95,115.0
3317,B1,319.5,0.25,95,115.0
3318,E-3,319.5,0.25,95,115.0
3319,B1,319.75,0.25,95,115.0
3320,E-1,320.0,1.0,95,115.0
3321,A3,320.0,0.5,95,115.0
3322,D3,320.0,0.5,95,115.0
3323,A3,320.0,0.5,95,115.0
3324,D3,320.0,0.5,95,115.0
3325,B1,320.0,0.25,95,115.0
3326,E-3,320.0,0.25,95,115.0
3327,C#3,320.0,0.25,95,115.0
3328,B1,320.25,0.25,95,115.0
3329,A3,320.5,0.25,95,115.0
3330,D3,320.5,0.25,95,115.0
3331,A3,320.5,0.25,95,115.0
3332,D3,320.5,0.25,95,115.0
3333,B1,320.5,0.25,95,115.0
3334,E-3,320.5,0.25,95,115.0
3335,B1,320.75,0.25,95,115.0
3336,A3,320.75,0.25,95,115.0
3337,D3,320.75,0.25,95,115.0
3338,A3,320.75,0.25,95,115.0
3339,D3,320.75,0.25,95,115.0
3340,E-1,321.0,1.0,95,115.0
3341,A3,321.0,0.5,95,115.0
3342,D3,321.0,0.5,95,115.0
3343,A3,321.0,0.5,95,115.0
3344,D3,321.0,0.5,95,115.0
3345,B1,321.0,0.25,95,115.0
3346,D2,321.0,0.25,95,115.0
3347,E-3,321.0,0.25,95,115.0
3348,B1,321.25,0.25,95,115.0
3349,A3,321.5,0.25,95,115.0
3350,D3,321.5,0.25,95,115.0
3351,A3,321.5,0.25,95,115.0
3352,D3,321.5,0.25,95,115.0
3353,B1,321.5,0.25,95,115.0
3354,E-3,321.5,0.25,95,115.0
3355,B1,321.75,0.25,95,115.0
3356,A3,321.75,0.25,95,115.0
3357,D3,321.75,0.25,95,115.0
3358,A3,321.75,0.25,95,115.0
3359,D3,321.75,0.25,95,115.0
3360,E-1,322.0,1.0,95,115.0
3361,A3,322.0,0.5,95,115.0
3362,D3,322.0,0.5,95,115.0
3363,A3,322.0,0.5,95,115.0
3364,D3,322.0,0.5,95,115.0
3365,B1,322.0,0.25,95,115.0
3366,E-3,322.0,0.25,95,115.0
3367,B1,322.25,0.25,95,115.0
3368,A3,322.5,0.25,95,115.0
3369,D3,322.5,0.25,95,115.0
3370,A3,322.5,0.25,95,115.0
3371,D3,322.5,0.25,95,115.0
3372,B1,322.5,0.25,95,115.0
3373,E-3,322.5,0.25,95,115.0
3374,B1,322.75,0.25,95,115.0
3375,A3,322.75,0.25,95,115.0
3376,D3,322.75,0.25,95,115.0
3377,A3,322.75,0.25,95,115.0
3378,D3,322.75,0.25,95,115.0
3379,E-1,323.0,1.0,95,115.0
3380,A3,323.0,0.5,95,115.0
3381,D3,323.0,0.5,95,115.0
3382,A3,323.0,0.5,95,115.0
3383,D3,323.0,0.5,95,115.0
3384,B1,323.0,0.25,95,115.0
3385,D2,323.0,0.25,95,115.0
3386,E-3,323.0,0.25,95,115.0
3387,B1,323.25,0.25,95,115.0
3388,A3,323.5,0.5,95,115.0
3389,D3,323.5,0.5,95,115.0
3390,A3,323.5,0.5,95,115.0
3391,D3,323.5,0.5,95,115.0
3392,B1,323.5,0.25,95,115.0
3393,E-3,323.5,0.25,95,115.0
3394,B1,323.75,0.25,95,115.0
3395,B-0,324.0,1.0,95,115.0
3396,F3,324.0,0.5,95,115.0
3397,B-2,324.0,0.5,95,115.0
3398,F3,324.0,0.5,95,115.0
3399,B-2,324.0,0.5,95,115.0
3400,B1,324.0,0.25,95,115.0
3401,E-3,324.0,0.25,95,115.0
3402,C#3,324.0,0.25,95,115.0
3403,B1,324.25,0.25,95,115.0
3404,F3,324.5,0.25,95,115.0
3405,B-2,324.5,0.25,95,115.0
3406,F3,324.5,0.25,95,115.0
3407,B-2,324.5,0.25,95,115.0
3408,B1,324.5,0.25,95,115.0
3409,E-3,324.5,0.25,95,115.0
3410,B1,324.75,0.25,95,115.0
3411,F3,324.75,0.25,95,115.0
3412,B-2,324.75,0.25,95,115.0
3413,F3,324.75,0.25,95,115.0
3414,B-2,324.75,0.25,95,115.0
3415,B-0,325.0,1.0,95,115.0
3416,F3,325.0,0.5,95,115.0
3417,B-2,325.0,0.5,95,115.0
3418,F3,325.0,0.5,95,115.0
3419,B-2,325.0,0.5,95,115.0
3420,B1,325.0,0.25,95,115.0
3421,D2,325.0,0.25,95,115.0
3422,E-3,325.0,0.25,95,115.0
3423,B1,325.25,0.25,95,115.0
3424,F3,325.5,0.25,95,115.0
3425,B-2,325.5,0.25,95,115.0
3426,F3,325.5,0.25,95,115.0
3427,B-2,325.5,0.25,95,115.0
3428,B1,325.5,0.25,95,115.0
3429,E-3,325.5,0.25,95,115.0
3430,B1,325.75,0.25,95,115.0
3431,F3,325.75,0.25,95,115.0
3432,B-2,325.75,0.25,95,115.0
3433,F3,325.75,0.25,95,115.0
3434,B-2,325.75,0.25,95,115.0
3435,B-0,326.0,1.0,95,115.0
3436,F3,326.0,0.5,95,115.0
3437,B-2,326.0,0.5,95,115.0
3438,F3,326.0,0.5,95,115.0
3439,B-2,326.0,0.5,95,115.0
3440,B1,326.0,0.25,95,115.0
3441,E-3,326.0,0.25,95,115.0
3442,B1,326.25,0.25,95,115.0
3443,F3,326.5,0.25,95,115.0
3444,B-2,326.5,0.25,95,115.0
3445,F3,326.5,0.25,95,115.0
3446,B-2,326.5,0.25,95,115.0
3447,B1,326.5,0.25,95,115.0
3448,E-3,326.5,0.25,95,115.0
3449,B1,326.75,0.25,95,115.0
3450,F3,326.75,0.25,95,115.0
3451,B-2,326.75,0.25,95,115.0
3452,F3,326.75,0.25,95,115.0
3453,B-2,326.75,0.25,95,115.0
3454,B-0,327.0,1.0,95,115.0
3455,F3,327.0,0.5,95,115.0
3456,B-2,327.0,0.5,95,115.0
3457,F3,327.0,0.5,95,115.0
3458,B-2,327.0,0.5,95,115.0
3459,B1,327.0,0.25,95,115.0
3460,D2,327.0,0.25,95,115.0
3461,E-3,327.0,0.25,95,115.0
3462,B1,327.25,0.25,95,115.0
3463,F3,327.5,0.5,95,115.0
3464,B-2,327.5,0.5,95,115.0
3465,F3,327.5,0.5,95,115.0
3466,B-2,327.5,0.5,95,115.0
3467,B1,327.5,0.25,95,115.0
3468,E-3,327.5,0.25,95,115.0
3469,B1,327.75,0.25,95,115.0
3470,E1,328.0,1.0,95,115.0
3471,G3,328.0,0.5,95,115.0
3472,C3,328.0,0.5,95,115.0
3473,G3,328.0,0.5,95,115.0
3474,C3,328.0,0.5,95,115.0
3475,B1,328.0,0.25,95,115.0
3476,E-3,328.0,0.25,95,115.0
3477,C#3,328.0,0.25,95,115.0
3478,B1,328.25,0.25,95,115.0
3479,G3,328.5,0.25,95,115.0
3480,C3,328.5,0.25,95,115.0
3481,G3,328.5,0.25,95,115.0
3482,C3,328.5,0.25,95,115.0
3483,B1,328.5,0.25,95,115.0
3484,E-3,328.5,0.25,95,115.0
3485,B1,328.75,0.25,95,115.0
3486,G3,328.75,0.25,95,115.0
3487,C3,328.75,0.25,95,115.0
3488,G3,328.75,0.25,95,115.0
3489,C3,328.75,0.25,95,115.0
3490,E1,329.0,1.0,95,115.0
3491,G3,329.0,0.5,95,115.0
3492,C3,329.0,0.5,95,115.0
3493,G3,329.0,0.5,95,115.0
3494,C3,329.0,0.5,95,115.0
3495,B1,329.0,0.25,95,115.0
3496,D2,329.0,0.25,95,115.0
3497,E-3,329.0,0.25,95,115.0
3498,B1,329.25,0.25,95,115.0
3499,G3,329.5,0.25,95,115.0
3500,C3,329.5,0.25,95,115.0
3501,G3,329.5,0.25,95,115.0
3502,C3,329.5,0.25,95,115.0
3503,B1,329.5,0.25,95,115.0
3504,E-3,329.5,0.25,95,115.0
3505,B1,329.75,0.25,95,115.0
3506,G3,329.75,0.25,95,115.0
3507,C3,329.75,0.25,95,115.0
3508,G3,329.75,0.25,95,115.0
3509,C3,329.75,0.25,95,115.0
3510,E1,330.0,1.0,95,115.0
3511,G3,330.0,0.5,95,115.0
3512,C3,330.0,0.5,95,115.0
3513,G3,330.0,0.5,95,115.0
3514,C3,330.0,0.5,95,115.0
3515,B1,330.0,0.25,95,115.0
3516,E-3,330.0,0.25,95,115.0
3517,B1,330.25,0.25,95,115.0
3518,G3,330.5,0.25,95,115.0
3519,C3,330.5,0.25,95,115.0
3520,G3,330.5,0.25,95,115.0
3521,C3,330.5,0.25,95,115.0
3522,B1,330.5,0.25,95,115.0
3523,E-3,330.5,0.25,95,115.0
3524,B1,330.75,0.25,95,115.0
3525,G3,330.75,0.25,95,115.0
3526,C3,330.75,0.25,95,115.0
3527,G3,330.75,0.25,95,115.0
3528,C3,330.75,0.25,95,115.0
3529,E1,331.0,1.0,95,115.0
3530,G3,331.0,0.5,95,115.0
3531,C3,331.0,0.5,95,115.0
3532,G3,331.0,0.5,95,115.0
3533,C3,331.0,0.5,95,115.0
3534,B1,331.0,0.25,95,115.0
3535,D2,331.0,0.25,95,115.0
3536,E-3,331.0,0.25,95,115.0
3537,B1,331.25,0.25,95,115.0
3538,G3,331.5,0.5,95,115.0
3539,C3,331.5,0.5,95,115.0
3540,G3,331.5,0.5,95,115.0
3541,C3,331.5,0.5,95,115.0
3542,B1,331.5,0.25,95,115.0
3543,E-3,331.5,0.25,95,115.0
3544,B1,331.75,0.25,95,115.0
3545,A3,332.0,0.5,95,115.0
3546,D3,332.0,0.5,95,115.0
3547,A3,332.0,0.5,95,115.0
3548,D3,332.0,0.5,95,115.0
3549,B1,332.0,0.25,95,115.0
3550,E-3,332.0,0.25,95,115.0
3551,C#3,332.0,0.25,95,115.0
3552,B1,332.25,0.25,95,115.0
3553,A3,332.5,0.25,95,115.0
3554,D3,332.5,0.25,95,115.0
3555,A3,332.5,0.25,95,115.0
3556,D3,332.5,0.25,95,115.0
3557,B1,332.5,0.25,95,115.0
3558,E-3,332.5,0.25,95,115.0
3559,B1,332.75,0.25,95,115.0
3560,A3,332.75,0.25,95,115.0
3561,D3,332.75,0.25,95,115.0
3562,A3,332.75,0.25,95,115.0
3563,D3,332.75,0.25,95,115.0
3564,A3,333.0,0.5,95,115.0
3565,D3,333.0,0.5,95,115.0
3566,A3,333.0,0.5,95,115.0
3567,D3,333.0,0.5,95,115.0
3568,B1,333.0,0.25,95,115.0
3569,D2,333.0,0.25,95,115.0
3570,E-3,333.0,0.25,95,115.0
3571,B1,333.25,0.25,95,115.0
3572,A3,333.5,0.25,95,115.0
3573,D3,333.5,0.25,95,115.0
3574,A3,333.5,0.25,95,115.0
3575,D3,333.5,0.25,95,115.0
3576,B1,333.5,0.25,95,115.0
3577,E-3,333.5,0.25,95,115.0
3578,B1,333.75,0.25,95,115.0
3579,A3,333.75,0.25,95,115.0
3580,D3,333.75,0.25,95,115.0
3581,A3,333.75,0.25,95,115.0
3582,D3,333.75,0.25,95,115.0
3583,F3,334.0,0.25,95,115.0
3584,F3,334.0,0.25,95,115.0
3585,B1,334.0,0.25,95,115.0
3586,E-3,334.0,0.25,95,115.0
3587,E3,334.25,0.25,95,115.0
3588,E3,334.25,0.25,95,115.0
3589,B1,334.25,0.25,95,115.0
3590,D3,334.5,0.5,95,115.0
3591,D3,334.5,0.5,95,115.0
3592,B1,334.5,0.25,95,115.0
3593,E-3,334.5,0.25,95,115.0
3594,B1,334.75,0.25,95,115.0
3595,F3,335.0,0.25,95,115.0
3596,F3,335.0,0.25,95,115.0
3597,B1,335.0,0.25,95,115.0
3598,D2,335.0,0.25,95,115.0
3599,E-3,335.0,0.25,95,115.0
3600,E3,335.25,0.25,95,115.0
3601,E3,335.25,0.25,95,115.0
3602,B1,335.25,0.25,95,115.0
3603,D3,335.5,0.5,95,115.0
3604,D3,335.5,0.5,95,115.0
3605,B1,335.5,0.25,95,115.0
3606,E-3,335.5,0.25,95,115.0
3607,B1,335.75,0.25,95,115.0
3608,E-1,336.0,1.0,95,115.0
3609,A3,336.0,0.5,95,115.0
3610,D3,336.0,0.5,95,115.0
3611,A3,336.0,0.5,95,115.0
3612,D3,336.0,0.5,95,115.0
3613,B1,336.0,0.25,95,115.0
3614,E-3,336.0,0.25,95,115.0
3615,C#3,336.0,0.25,95,115.0
3616,B1,336.25,0.25,95,115.0
3617,A3,336.5,0.25,95,115.0
3618,D3,336.5,0.25,95,115.0
3619,A3,336.5,0.25,95,115.0
3620,D3,336.5,0.25,95,115.0
3621,B1,336.5,0.25,95,115.0
3622,E-3,336.5,0.25,95,115.0
3623,B1,336.75,0.25,95,115.0
3624,A3,336.75,0.25,95,115.0
3625,D3,336.75,0.25,95,115.0
3626,A3,336.75,0.25,95,115.0
3627,D3,336.75,0.25,95,115.0
3628,E-1,337.0,1.0,95,115.0
3629,A3,337.0,0.5,95,115.0
3630,D3,337.0,0.5,95,115.0
3631,A3,337.0,0.5,95,115.0
3632,D3,337.0,0.5,95,115.0
3633,B1,337.0,0.25,95,115.0
3634,D2,337.0,0.25,95,115.0
3635,E-3,337.0,0.25,95,115.0
3636,B1,337.25,0.25,95,115.0
3637,A3,337.5,0.25,95,115.0
3638,D3,337.5,0.25,95,115.0
3639,A3,337.5,0.25,95,115.0
3640,D3,337.5,0.25,95,115.0
3641,B1,337.5,0.25,95,115.0
3642,E-3,337.5,0.25,95,115.0
3643,B1,337.75,0.25,95,115.0
3644,A3,337.75,0.25,95,115.0
3645,D3,337.75,0.25,95,115.0
3646,A3,337.75,0.25,95,115.0
3647,D3,337.75,0.25,95,115.0
3648,E-1,338.0,1.0,95,115.0
3649,A3,338.0,0.5,95,115.0
3650,D3,338.0,0.5,95,115.0
3651,A3,338.0,0.5,95,115.0
3652,D3,338.0,0.5,95,115.0
3653,B1,338.0,0.25,95,115.0
3654,E-3,338.0,0.25,95,115.0
3655,B1,338.25,0.25,95,115.0
3656,A3,338.5,0.25,95,115.0
3657,D3,338.5,0.25,95,115.0
3658,A3,338.5,0.25,95,115.0
3659,D3,338.5,0.25,95,115.0
3660,B1,338.5,0.25,95,115.0
3661,E-3,338.5,0.25,95,115.0
3662,B1,338.75,0.25,95,115.0
3663,A3,338.75,0.25,95,115.0
3664,D3,338.75,0.25,95,115.0
3665,A3,338.75,0.25,95,115.0
3666,D3,338.75,0.25,95,115.0
3667,E-1,339.0,1.0,95,115.0
3668,A3,339.0,0.5,95,115.0
3669,D3,339.0,0.5,95,115.0
3670,A3,339.0,0.5,95,115.0
3671,D3,339.0,0.5,95,115.0
3672,B1,339.0,0.25,95,115.0
3673,D2,339.0,0.25,95,115.0
3674,E-3,339.0,0.25,95,115.0
3675,B1,339.25,0.25,95,115.0
3676,A3,339.5,0.5,95,115.0
3677,D3,339.5,0.5,95,115.0
3678,A3,339.5,0.5,95,115.0
3679,D3,339.5,0.5,95,115.0
3680,B1,339.5,0.25,95,115.0
3681,E-3,339.5,0.25,95,115.0
3682,B1,339.75,0.25,95,115.0
3683,B-0,340.0,1.0,95,115.0
3684,F3,340.0,0.5,95,115.0
3685,B-2,340.0,0.5,95,115.0
3686,F3,340.0,0.5,95,115.0
3687,B-2,340.0,0.5,95,115.0
3688,B1,340.0,0.25,95,115.0
3689,E-3,340.0,0.25,95,115.0
3690,C#3,340.0,0.25,95,115.0
3691,B1,340.25,0.25,95,115.0
3692,F3,340.5,0.25,95,115.0
3693,B-2,340.5,0.25,95,115.0
3694,F3,340.5,0.25,95,115.0
3695,B-2,340.5,0.25,95,115.0
3696,B1,340.5,0.25,95,115.0
3697,E-3,340.5,0.25,95,115.0
3698,B1,340.75,0.25,95,115.0
3699,F3,340.75,0.25,95,115.0
3700,B-2,340.75,0.25,95,115.0
3701,F3,340.75,0.25,95,115.0
3702,B-2,340.75,0.25,95,115.0
3703,B-0,341.0,1.0,95,115.0
3704,F3,341.0,0.5,95,115.0
3705,B-2,341.0,0.5,95,115.0
3706,F3,341.0,0.5,95,115.0
3707,B-2,341.0,0.5,95,115.0
3708,B1,341.0,0.25,95,115.0
3709,D2,341.0,0.25,95,115.0
3710,E-3,341.0,0.25,95,115.0
3711,B1,341.25,0.25,95,115.0
3712,F3,341.5,0.25,95,115.0
3713,B-2,341.5,0.25,95,115.0
3714,F3,341.5,0.25,95,115.0
3715,B-2,341.5,0.25,95,115.0
3716,B1,341.5,0.25,95,115.0
3717,E-3,341.5,0.25,95,115.0
3718,B1,341.75,0.25,95,115.0
3719,F3,341.75,0.25,95,115.0
3720,B-2,341.75,0.25,95,115.0
3721,F3,341.75,0.25,95,115.0
3722,B-2,341.75,0.25,95,115.0
3723,B-0,342.0,1.0,95,115.0
3724,F3,342.0,0.5,95,115.0
3725,B-2,342.0,0.5,95,115.0
3726,F3,342.0,0.5,95,115.0
3727,B-2,342.0,0.5,95,115.0
3728,B1,342.0,0.25,95,115.0
3729,E-3,342.0,0.25,95,115.0
3730,B1,342.25,0.25,95,115.0
3731,F3,342.5,0.25,95,115.0
3732,B-2,342.5,0.25,95,115.0
3733,F3,342.5,0.25,95,115.0
3734,B-2,342.5,0.25,95,115.0
3735,B1,342.5,0.25,95,115.0
3736,E-3,342.5,0.25,95,115.0
3737,B1,342.75,0.25,95,115.0
3738,F3,342.75,0.25,95,115.0
3739,B-2,342.75,0.25,95,115.0
3740,F3,342.75,0.25,95,115.0
3741,B-2,342.75,0.25,95,115.0
3742,B-0,343.0,1.0,95,115.0
3743,F3,343.0,0.5,95,115.0
3744,B-2,343.0,0.5,95,115.0
3745,F3,343.0,0.5,95,115.0
3746,B-2,343.0,0.5,95,115.0
3747,B1,343.0,0.25,95,115.0
3748,D2,343.0,0.25,95,115.0
3749,E-3,343.0,0.25,95,115.0
3750,B1,343.25,0.25,95,115.0
3751,F3,343.5,0.5,95,115.0
3752,B-2,343.5,0.5,95,115.0
3753,F3,343.5,0.5,95,115.0
3754,B-2,343.5,0.5,95,115.0
3755,B1,343.5,0.25,95,115.0
3756,E-3,343.5,0.25,95,115.0
3757,B1,343.75,0.25,95,115.0
3758,E1,344.0,1.0,95,115.0
3759,G3,344.0,0.5,95,115.0
3760,C3,344.0,0.5,95,115.0
3761,G3,344.0,0.5,95,115.0
3762,C3,344.0,0.5,95,115.0
3763,B1,344.0,0.25,95,115.0
3764,E-3,344.0,0.25,95,115.0
3765,C#3,344.0,0.25,95,115.0
3766,B1,344.25,0.25,95,115.0
3767,G3,344.5,0.25,95,115.0
3768,C3,344.5,0.25,95,115.0
3769,G3,344.5,0.25,95,115.0
3770,C3,344.5,0.25,95,115.0
3771,B1,344.5,0.25,95,115.0
3772,E-3,344.5,0.25,95,115.0
3773,B1,344.75,0.25,95,115.0
3774,G3,344.75,0.25,95,115.0
3775,C3,344.75,0.25,95,115.0
3776,G3,344.75,0.25,95,115.0
3777,C3,344.75,0.25,95,115.0
3778,E1,345.0,1.0,95,115.0
3779,G3,345.0,0.5,95,115.0
3780,C3,345.0,0.5,95,115.0
3781,G3,345.0,0.5,95,115.0
3782,C3,345.0,0.5,95,115.0
3783,B1,345.0,0.25,95,115.0
3784,D2,345.0,0.25,95,115.0
3785,E-3,345.0,0.25,95,115.0
3786,B1,345.25,0.25,95,115.0
3787,G3,345.5,0.25,95,115.0
3788,C3,345.5,0.25,95,115.0
3789,G3,345.5,0.25,95,115.0
3790,C3,345.5,0.25,95,115.0
3791,B1,345.5,0.25,95,115.0
3792,E-3,345.5,0.25,95,115.0
3793,B1,345.75,0.25,95,115.0
3794,G3,345.75,0.25,95,115.0
3795,C3,345.75,0.25,95,115.0
3796,G3,345.75,0.25,95,115.0
3797,C3,345.75,0.25,95,115.0
3798,E1,346.0,1.0,95,115.0
3799,G3,346.0,0.5,95,115.0
3800,C3,346.0,0.5,95,115.0
3801,G3,346.0,0.5,95,115.0
3802,C3,346.0,0.5,95,115.0
3803,B1,346.0,0.25,95,115.0
3804,E-3,346.0,0.25,95,115.0
3805,B1,346.25,0.25,95,115.0
3806,G3,346.5,0.25,95,115.0
3807,C3,346.5,0.25,95,115.0
3808,G3,346.5,0.25,95,115.0
3809,C3,346.5,0.25,95,115.0
3810,B1,346.5,0.25,95,115.0
3811,E-3,346.5,0.25,95,115.0
3812,B1,346.75,0.25,95,115.0
3813,G3,346.75,0.25,95,115.0
3814,C3,346.75,0.25,95,115.0
3815,G3,346.75,0.25,95,115.0
3816,C3,346.75,0.25,95,115.0
3817,E1,347.0,1.0,95,115.0
3818,G3,347.0,0.5,95,115.0
3819,C3,347.0,0.5,95,115.0
3820,G3,347.0,0.5,95,115.0
3821,C3,347.0,0.5,95,115.0
3822,B1,347.0,0.25,95,115.0
3823,D2,347.0,0.25,95,115.0
3824,E-3,347.0,0.25,95,115.0
3825,B1,347.25,0.25,95,115.0
3826,G3,347.5,0.5,95,115.0
3827,C3,347.5,0.5,95,115.0
3828,G3,347.5,0.5,95,115.0
3829,C3,347.5,0.5,95,115.0
3830,B1,347.5,0.25,95,115.0
3831,E-3,347.5,0.25,95,115.0
3832,B1,347.75,0.25,95,115.0
3833,A3,348.0,0.5,95,115.0
3834,D3,348.0,0.5,95,115.0
3835,A3,348.0,0.5,95,115.0
3836,D3,348.0,0.5,95,115.0
3837,B1,348.0,0.25,95,115.0
3838,E-3,348.0,0.25,95,115.0
3839,C#3,348.0,0.25,95,115.0
3840,B1,348.25,0.25,95,115.0
3841,A3,348.5,0.25,95,115.0
3842,D3,348.5,0.25,95,115.0
3843,A3,348.5,0.25,95,115.0
3844,D3,348.5,0.25,95,115.0
3845,B1,348.5,0.25,95,115.0
3846,E-3,348.5,0.25,95,115.0
3847,B1,348.75,0.25,95,115.0
3848,A3,348.75,0.25,95,115.0
3849,D3,348.75,0.25,95,115.0
3850,A3,348.75,0.25,95,115.0
3851,D3,348.75,0.25,95,115.0
3852,A3,349.0,0.5,95,115.0
3853,D3,349.0,0.5,95,115.0
3854,A3,349.0,0.5,95,115.0
3855,D3,349.0,0.5,95,115.0
3856,B1,349.0,0.25,95,115.0
3857,D2,349.0,0.25,95,115.0
3858,E-3,349.0,0.25,95,115.0
3859,B1,349.25,0.25,95,115.0
3860,A3,349.5,0.25,95,115.0
3861,D3,349.5,0.25,95,115.0
3862,A3,349.5,0.25,95,115.0
3863,D3,349.5,0.25,95,115.0
3864,B1,349.5,0.25,95,115.0
3865,E-3,349.5,0.25,95,115.0
3866,B1,349.75,0.25,95,115.0
3867,A3,349.75,0.25,95,115.0
3868,D3,349.75,0.25,95,115.0
3869,A3,349.75,0.25,95,115.0
3870,D3,349.75,0.25,95,115.0
3871,F3,350.0,0.25,95,115.0
3872,F3,350.0,0.25,95,115.0
3873,B1,350.0,0.25,95,115.0
3874,E-3,350.0,0.25,95,115.0
3875,E3,350.25,0.25,95,115.0
3876,E3,350.25,0.25,95,115.0
3877,B1,350.25,0.25,95,115.0
3878,D3,350.5,0.5,95,115.0
3879,D3,350.5,0.5,95,115.0
3880,B1,350.5,0.25,95,115.0
3881,E-3,350.5,0.25,95,115.0
3882,B1,350.75,0.25,95,115.0
3883,F3,351.0,0.25,95,115.0
3884,F3,351.0,0.25,95,115.0
3885,B1,351.0,0.25,95,115.0
3886,D2,351.0,0.25,95,115.0
3887,E-3,351.0,0.25,95,115.0
3888,E3,351.25,0.25,95,115.0
3889,E3,351.25,0.25,95,115.0
3890,B1,351.25,0.25,95,115.0
3891,D3,351.5,0.5,95,115.0
3892,D3,351.5,0.5,95,115.0
3893,B1,351.5,0.25,95,115.0
3894,E-3,351.5,0.25,95,115.0
3895,B1,351.75,0.25,95,115.0
3896,E-1,352.0,1.0,95,115.0
3897,A3,352.0,0.5,95,115.0
3898,D3,352.0,0.5,95,115.0
3899,A3,352.0,0.5,95,115.0
3900,D3,352.0,0.5,95,115.0
3901,B1,352.0,0.25,95,115.0
3902,E-3,352.0,0.25,95,115.0
3903,C#3,352.0,0.25,95,115.0
3904,B1,352.25,0.25,95,115.0
3905,A3,352.5,0.25,95,115.0
3906,D3,352.5,0.25,95,115.0
3907,A3,352.5,0.25,95,115.0
3908,D3,352.5,0.25,95,115.0
3909,B1,352.5,0.25,95,115.0
3910,E-3,352.5,0.25,95,115.0
3911,B1,352.75,0.25,95,115.0
3912,A3,352.75,0.25,95,115.0
3913,D3,352.75,0.25,95,115.0
3914,A3,352.75,0.25,95,115.0
3915,D3,352.75,0.25,95,115.0
3916,E-1,353.0,1.0,95,115.0
3917,A3,353.0,0.5,95,115.0
3918,D3,353.0,0.5,95,115.0
3919,A3,353.0,0.5,95,115.0
3920,D3,353.0,0.5,95,115.0
3921,B1,353.0,0.25,95,115.0
3922,D2,353.0,0.25,95,115.0
3923,E-3,353.0,0.25,95,115.0
3924,B1,353.25,0.25,95,115.0
3925,A3,353.5,0.25,95,115.0
3926,D3,353.5,0.25,95,115.0
3927,A3,353.5,0.25,95,115.0
3928,D3,353.5,0.25,95,115.0
3929,B1,353.5,0.25,95,115.0
3930,E-3,353.5,0.25,95,115.0
3931,B1,353.75,0.25,95,115.0
3932,A3,353.75,0.25,95,115.0
3933,D3,353.75,0.25,95,115.0
3934,A3,353.75,0.25,95,115.0
3935,D3,353.75,0.25,95,115.0
3936,E-1,354.0,1.0,95,115.0
3937,A3,354.0,0.5,95,115.0
3938,D3,354.0,0.5,95,115.0
3939,A3,354.0,0.5,95,115.0
3940,D3,354.0,0.5,95,115.0
3941,B1,354.0,0.25,95,115.0
3942,E-3,354.0,0.25,95,115.0
3943,B1,354.25,0.25,95,115.0
3944,A3,354.5,0.25,95,115.0
3945,D3,354.5,0.25,95,115.0
3946,A3,354.5,0.25,95,115.0
3947,D3,354.5,0.25,95,115.0
3948,B1,354.5,0.25,95,115.0
3949,E-3,354.5,0.25,95,115.0
3950,B1,354.75,0.25,95,115.0
3951,A3,354.75,0.25,95,115.0
3952,D3,354.75,0.25,95,115.0
3953,A3,354.75,0.25,95,115.0
3954,D3,354.75,0.25,95,115.0
3955,E-1,355.0,1.0,95,115.0
3956,A3,355.0,0.5,95,115.0
3957,D3,355.0,0.5,95,115.0
3958,A3,355.0,0.5,95,115.0
3959,D3,355.0,0.5,95,115.0
3960,B1,355.0,0.25,95,115.0
3961,D2,355.0,0.25,95,115.0
3962,E-3,355.0,0.25,95,115.0
3963,B1,355.25,0.25,95,115.0
3964,A3,355.5,0.5,95,115.0
3965,D3,355.5,0.5,95,115.0
3966,A3,355.5,0.5,95,115.0
3967,D3,355.5,0.5,95,115.0
3968,B1,355.5,0.25,95,115.0
3969,E-3,355.5,0.25,95,115.0
3970,B1,355.75,0.25,95,115.0
3971,B-0,356.0,1.0,95,115.0
3972,F3,356.0,0.5,95,115.0
3973,B-2,356.0,0.5,95,115.0
3974,F3,356.0,0.5,95,115.0
3975,B-2,356.0,0.5,95,115.0
3976,B1,356.0,0.25,95,115.0
3977,E-3,356.0,0.25,95,115.0
3978,C#3,356.0,0.25,95,115.0
3979,B1,356.25,0.25,95,115.0
3980,F3,356.5,0.25,95,115.0
3981,B-2,356.5,0.25,95,115.0
3982,F3,356.5,0.25,95,115.0
3983,B-2,356.5,0.25,95,115.0
3984,B1,356.5,0.25,95,115.0
3985,E-3,356.5,0.25,95,115.0
3986,B1,356.75,0.25,95,115.0
3987,F3,356.75,0.25,95,115.0
3988,B-2,356.75,0.25,95,115.0
3989,F3,356.75,0.25,95,115.0
3990,B-2,356.75,0.25,95,115.0
3991,B-0,357.0,1.0,95,115.0
3992,F3,357.0,0.5,95,115.0
3993,B-2,357.0,0.5,95,115.0
3994,F3,357.0,0.5,95,115.0
3995,B-2,357.0,0.5,95,115.0
3996,B1,357.0,0.25,95,115.0
3997,D2,357.0,0.25,95,115.0
3998,E-3,357.0,0.25,95,115.0
3999,B1,357.25,0.25,95,115.0
4000,F3,357.5,0.25,95,115.0
4001,B-2,357.5,0.25,95,115.0
4002,F3,357.5,0.25,95,115.0
4003,B-2,357.5,0.25,95,115.0
4004,B1,357.5,0.25,95,115.0
4005,E-3,357.5,0.25,95,115.0
4006,B1,357.75,0.25,95,115.0
4007,F3,357.75,0.25,95,115.0
4008,B-2,357.75,0.25,95,115.0
4009,F3,357.75,0.25,95,115.0
4010,B-2,357.75,0.25,95,115.0
4011,B-0,358.0,1.0,95,115.0
4012,F3,358.0,0.5,95,115.0
4013,B-2,358.0,0.5,95,115.0
4014,F3,358.0,0.5,95,115.0
4015,B-2,358.0,0.5,95,115.0
4016,B1,358.0,0.25,95,115.0
4017,E-3,358.0,0.25,95,115.0
4018,B1,358.25,0.25,95,115.0
4019,F3,358.5,0.25,95,115.0
4020,B-2,358.5,0.25,95,115.0
4021,F3,358.5,0.25,95,115.0
4022,B-2,358.5,0.25,95,115.0
4023,B1,358.5,0.25,95,115.0
4024,E-3,358.5,0.25,95,115.0
4025,B1,358.75,0.25,95,115.0
4026,F3,358.75,0.25,95,115.0
4027,B-2,358.75,0.25,95,115.0
4028,F3,358.75,0.25,95,115.0
4029,B-2,358.75,0.25,95,115.0
4030,B-0,359.0,1.0,95,115.0
4031,F3,359.0,0.5,95,115.0
4032,B-2,359.0,0.5,95,115.0
4033,F3,359.0,0.5,95,115.0
4034,B-2,359.0,0.5,95,115.0
4035,B1,359.0,0.25,95,115.0
4036,D2,359.0,0.25,95,115.0
4037,E-3,359.0,0.25,95,115.0
4038,B1,359.25,0.25,95,115.0
4039,F3,359.5,0.5,95,115.0
4040,B-2,359.5,0.5,95,115.0
4041,F3,359.5,0.5,95,115.0
4042,B-2,359.5,0.5,95,115.0
4043,B1,359.5,0.25,95,115.0
4044,E-3,359.5,0.25,95,115.0
4045,B1,359.75,0.25,95,115.0
4046,E1,360.0,1.0,95,115.0
4047,G3,360.0,0.5,95,115.0
4048,C3,360.0,0.5,95,115.0
4049,G3,360.0,0.5,95,115.0
4050,C3,360.0,0.5,95,115.0
4051,B1,360.0,0.25,95,115.0
4052,E-3,360.0,0.25,95,115.0
4053,C#3,360.0,0.25,95,115.0
4054,B1,360.25,0.25,95,115.0
4055,G3,360.5,0.25,95,115.0
4056,C3,360.5,0.25,95,115.0
4057,G3,360.5,0.25,95,115.0
4058,C3,360.5,0.25,95,115.0
4059,B1,360.5,0.25,95,115.0
4060,E-3,360.5,0.25,95,115.0
4061,B1,360.75,0.25,95,115.0
4062,G3,360.75,0.25,95,115.0
4063,C3,360.75,0.25,95,115.0
4064,G3,360.75,0.25,95,115.0
4065,C3,360.75,0.25,95,115.0
4066,E1,361.0,1.0,95,115.0
4067,G3,361.0,0.5,95,115.0
4068,C3,361.0,0.5,95,115.0
4069,G3,361.0,0.5,95,115.0
4070,C3,361.0,0.5,95,115.0
4071,B1,361.0,0.25,95,115.0
4072,D2,361.0,0.25,95,115.0
4073,E-3,361.0,0.25,95,115.0
4074,B1,361.25,0.25,95,115.0
4075,G3,361.5,0.25,95,115.0
4076,C3,361.5,0.25,95,115.0
4077,G3,361.5,0.25,95,115.0
4078,C3,361.5,0.25,95,115.0
4079,B1,361.5,0.25,95,115.0
4080,E-3,361.5,0.25,95,115.0
4081,B1,361.75,0.25,95,115.0
4082,G3,361.75,0.25,95,115.0
4083,C3,361.75,0.25,95,115.0
4084,G3,361.75,0.25,95,115.0
4085,C3,361.75,0.25,95,115.0
4086,E1,362.0,1.0,95,115.0
4087,G3,362.0,0.5,95,115.0
4088,C3,362.0,0.5,95,115.0
4089,G3,362.0,0.5,95,115.0
4090,C3,362.0,0.5,95,115.0
4091,B1,362.0,0.25,95,115.0
4092,E-3,362.0,0.25,95,115.0
4093,B1,362.25,0.25,95,115.0
4094,G3,362.5,0.25,95,115.0
4095,C3,362.5,0.25,95,115.0
4096,G3,362.5,0.25,95,115.0
4097,C3,362.5,0.25,95,115.0
4098,B1,362.5,0.25,95,115.0
4099,E-3,362.5,0.25,95,115.0
4100,B1,362.75,0.25,95,115.0
4101,G3,362.75,0.25,95,115.0
4102,C3,362.75,0.25,95,115.0
4103,G3,362.75,0.25,95,115.0
4104,C3,362.75,0.25,95,115.0
4105,E1,363.0,1.0,95,115.0
4106,G3,363.0,0.5,95,115.0
4107,C3,363.0,0.5,95,115.0
4108,G3,363.0,0.5,95,115.0
4109,C3,363.0,0.5,95,115.0
4110,B1,363.0,0.25,95,115.0
4111,D2,363.0,0.25,95,115.0
4112,E-3,363.0,0.25,95,115.0
4113,B1,363.25,0.25,95,115.0
4114,G3,363.5,0.5,95,115.0
4115,C3,363.5,0.5,95,115.0
4116,G3,363.5,0.5,95,115.0
4117,C3,363.5,0.5,95,115.0
4118,B1,363.5,0.25,95,115.0
4119,E-3,363.5,0.25,95,115.0
4120,B1,363.75,0.25,95,115.0
4121,A3,364.0,0.5,95,115.0
4122,D3,364.0,0.5,95,115.0
4123,A3,364.0,0.5,95,115.0
4124,D3,364.0,0.5,95,115.0
4125,B1,364.0,0.25,95,115.0
4126,E-3,364.0,0.25,95,115.0
4127,B1,364.25,0.25,95,115.0
4128,E-3,364.25,0.25,95,115.0
4129,A3,364.5,0.25,95,115.0
4130,D3,364.5,0.25,95,115.0
4131,A3,364.5,0.25,95,115.0
4132,D3,364.5,0.25,95,115.0
4133,B1,364.5,0.5,95,115.0
4134,E-3,364.5,0.5,95,115.0
4135,A3,364.75,0.25,95,115.0
4136,D3,364.75,0.25,95,115.0
4137,A3,364.75,0.25,95,115.0
4138,D3,364.75,0.25,95,115.0
4139,D2,365.0,0.5,95,115.0
4140,A3,365.0,0.5,95,115.0
4141,D3,365.0,0.5,95,115.0
4142,A3,365.0,0.5,95,115.0
4143,D3,365.0,0.5,95,115.0
4144,D2,365.5,0.5,95,115.0
4145,A3,365.5,0.25,95,115.0
4146,D3,365.5,0.25,95,115.0
4147,A3,365.5,0.25,95,115.0
4148,D3,365.5,0.25,95,115.0
4149,A3,365.75,0.25,95,115.0
4150,D3,365.75,0.25,95,115.0
4151,A3,365.75,0.25,95,115.0
4152,D3,365.75,0.25,95,115.0
4153,F3,366.0,0.25,95,115.0
4154,F3,366.0,0.25,95,115.0
4155,D2,366.0,0.25,95,115.0
4156,E3,366.25,0.25,95,115.0
4157,E3,366.25,0.25,95,115.0
4158,D2,366.25,0.25,95,115.0
4159,D3,366.5,0.5,95,115.0
4160,D3,366.5,0.5,95,115.0
4161,D2,366.5,0.5,95,115.0
4162,F3,367.0,0.25,95,115.0
4163,F3,367.0,0.25,95,115.0
4164,B2,367.0,0.25,95,115.0
4165,E3,367.25,0.25,95,115.0
4166,E3,367.25,0.25,95,115.0
4167,A2,367.25,0.25,95,115.0
4168,D3,367.5,0.5,95,115.0
4169,D3,367.5,0.5,95,115.0
4170,G2,367.5,0.25,95,115.0
4171,F2,367.75,0.25,95,115.0
4172,E-1,368.0,1.0,95,115.0
4173,A3,368.0,0.5,95,115.0
4174,D3,368.0,0.5,95,115.0
4175,A3,368.0,0.5,95,115.0
4176,D3,368.0,0.5,95,115.0
4177,B1,368.0,0.25,95,115.0
4178,E-3,368.0,0.25,95,115.0
4179,C#3,368.0,0.25,95,115.0
4180,B1,368.25,0.25,95,115.0
4181,A3,368.5,0.25,95,115.0
4182,D3,368.5,0.25,95,115.0
4183,A3,368.5,0.25,95,115.0
4184,D3,368.5,0.25,95,115.0
4185,B1,368.5,0.25,95,115.0
4186,E-3,368.5,0.25,95,115.0
4187,B1,368.75,0.25,95,115.0
4188,A3,368.75,0.25,95,115.0
4189,D3,368.75,0.25,95,115.0
4190,A3,368.75,0.25,95,115.0
4191,D3,368.75,0.25,95,115.0
4192,E-1,369.0,1.0,95,115.0
4193,A3,369.0,0.5,95,115.0
4194,D3,369.0,0.5,95,115.0
4195,A3,369.0,0.5,95,115.0
4196,D3,369.0,0.5,95,115.0
4197,B1,369.0,0.25,95,115.0
4198,D2,369.0,0.25,95,115.0
4199,E-3,369.0,0.25,95,115.0
4200,B1,369.25,0.25,95,115.0
4201,A3,369.5,0.25,95,115.0
4202,D3,369.5,0.25,95,115.0
4203,A3,369.5,0.25,95,115.0
4204,D3,369.5,0.25,95,115.0
4205,B1,369.5,0.25,95,115.0
4206,E-3,369.5,0.25,95,115.0
4207,B1,369.75,0.25,95,115.0
4208,A3,369.75,0.25,95,115.0
4209,D3,369.75,0.25,95,115.0
4210,A3,369.75,0.25,95,115.0
4211,D3,369.75,0.25,95,115.0
4212,E-1,370.0,1.0,95,115.0
4213,A3,370.0,0.5,95,115.0
4214,D3,370.0,0.5,95,115.0
4215,A3,370.0,0.5,95,115.0
4216,D3,370.0,0.5,95,115.0
4217,B1,370.0,0.25,95,115.0
4218,E-3,370.0,0.25,95,115.0
4219,B1,370.25,0.25,95,115.0
4220,A3,370.5,0.25,95,115.0
4221,D3,370.5,0.25,95,115.0
4222,A3,370.5,0.25,95,115.0
4223,D3,370.5,0.25,95,115.0
4224,B1,370.5,0.25,95,115.0
4225,E-3,370.5,0.25,95,115.0
4226,B1,370.75,0.25,95,115.0
4227,A3,370.75,0.25,95,115.0
4228,D3,370.75,0.25,95,115.0
4229,A3,370.75,0.25,95,115.0
4230,D3,370.75,0.25,95,115.0
4231,E-1,371.0,1.0,95,115.0
4232,A3,371.0,0.5,95,115.0
4233,D3,371.0,0.5,95,115.0
4234,A3,371.0,0.5,95,115.0
4235,D3,371.0,0.5,95,115.0
4236,B1,371.0,0.25,95,115.0
4237,D2,371.0,0.25,95,115.0
4238,E-3,371.0,0.25,95,115.0
4239,B1,371.25,0.25,95,115.0
4240,A3,371.5,0.5,95,115.0
4241,D3,371.5,0.5,95,115.0
4242,A3,371.5,0.5,95,115.0
4243,D3,371.5,0.5,95,115.0
4244,B1,371.5,0.25,95,115.0
4245,E-3,371.5,0.25,95,115.0
4246,B1,371.75,0.25,95,115.0
4247,B-0,372.0,1.0,95,115.0
4248,F3,372.0,0.5,95,115.0
4249,B-2,372.0,0.5,95,115.0
4250,F3,372.0,0.5,95,115.0
4251,B-2,372.0,0.5,95,115.0
4252,B1,372.0,0.25,95,115.0
4253,E-3,372.0,0.25,95,115.0
4254,C#3,372.0,0.25,95,115.0
4255,B1,372.25,0.25,95,115.0
4256,F3,372.5,0.25,95,115.0
4257,B-2,372.5,0.25,95,115.0
4258,F3,372.5,0.25,95,115.0
4259,B-2,372.5,0.25,95,115.0
4260,B1,372.5,0.25,95,115.0
4261,E-3,372.5,0.25,95,115.0
4262,B1,372.75,0.25,95,115.0
4263,F3,372.75,0.25,95,115.0
4264,B-2,372.75,0.25,95,115.0
4265,F3,372.75,0.25,95,115.0
4266,B-2,372.75,0.25,95,115.0
4267,B-0,373.0,1.0,95,115.0
4268,F3,373.0,0.5,95,115.0
4269,B-2,373.0,0.5,95,115.0
4270,F3,373.0,0.5,95,115.0
4271,B-2,373.0,0.5,95,115.0
4272,B1,373.0,0.25,95,115.0
4273,D2,373.0,0.25,95,115.0
4274,E-3,373.0,0.25,95,115.0
4275,B1,373.25,0.25,95,115.0
4276,F3,373.5,0.25,95,115.0
4277,B-2,373.5,0.25,95,115.0
4278,F3,373.5,0.25,95,115.0
4279,B-2,373.5,0.25,95,115.0
4280,B1,373.5,0.25,95,115.0
4281,E-3,373.5,0.25,95,115.0
4282,B1,373.75,0.25,95,115.0
4283,F3,373.75,0.25,95,115.0
4284,B-2,373.75,0.25,95,115.0
4285,F3,373.75,0.25,95,115.0
4286,B-2,373.75,0.25,95,115.0
4287,B-0,374.0,1.0,95,115.0
4288,F3,374.0,0.5,95,115.0
4289,B-2,374.0,0.5,95,115.0
4290,F3,374.0,0.5,95,115.0
4291,B-2,374.0,0.5,95,115.0
4292,B1,374.0,0.25,95,115.0
4293,E-3,374.0,0.25,95,115.0
4294,B1,374.25,0.25,95,115.0
4295,F3,374.5,0.25,95,115.0
4296,B-2,374.5,0.25,95,115.0
4297,F3,374.5,0.25,95,115.0
4298,B-2,374.5,0.25,95,115.0
4299,B1,374.5,0.25,95,115.0
4300,E-3,374.5,0.25,95,115.0
4301,B1,374.75,0.25,95,115.0
4302,F3,374.75,0.25,95,115.0
4303,B-2,374.75,0.25,95,115.0
4304,F3,374.75,0.25,95,115.0
4305,B-2,374.75,0.25,95,115.0
4306,B-0,375.0,1.0,95,115.0
4307,F3,375.0,0.5,95,115.0
4308,B-2,375.0,0.5,95,115.0
4309,F3,375.0,0.5,95,115.0
4310,B-2,375.0,0.5,95,115.0
4311,B1,375.0,0.25,95,115.0
4312,D2,375.0,0.25,95,115.0
4313,E-3,375.0,0.25,95,115.0
4314,B1,375.25,0.25,95,115.0
4315,F3,375.5,0.5,95,115.0
4316,B-2,375.5,0.5,95,115.0
4317,F3,375.5,0.5,95,115.0
4318,B-2,375.5,0.5,95,115.0
4319,B1,375.5,0.25,95,115.0
4320,E-3,375.5,0.25,95,115.0
4321,B1,375.75,0.25,95,115.0
4322,E1,376.0,1.0,95,115.0
4323,G3,376.0,0.5,95,115.0
4324,C3,376.0,0.5,95,115.0
4325,G3,376.0,0.5,95,115.0
4326,C3,376.0,0.5,95,115.0
4327,B1,376.0,0.25,95,115.0
4328,E-3,376.0,0.25,95,115.0
4329,C#3,376.0,0.25,95,115.0
4330,B1,376.25,0.25,95,115.0
4331,G3,376.5,0.25,95,115.0
4332,C3,376.5,0.25,95,115.0
4333,G3,376.5,0.25,95,115.0
4334,C3,376.5,0.25,95,115.0
4335,B1,376.5,0.25,95,115.0
4336,E-3,376.5,0.25,95,115.0
4337,B1,376.75,0.25,95,115.0
4338,G3,376.75,0.25,95,115.0
4339,C3,376.75,0.25,95,115.0
4340,G3,376.75,0.25,95,115.0
4341,C3,376.75,0.25,95,115.0
4342,E1,377.0,1.0,95,115.0
4343,G3,377.0,0.5,95,115.0
4344,C3,377.0,0.5,95,115.0
4345,G3,377.0,0.5,95,115.0
4346,C3,377.0,0.5,95,115.0
4347,B1,377.0,0.25,95,115.0
4348,D2,377.0,0.25,95,115.0
4349,E-3,377.0,0.25,95,115.0
4350,B1,377.25,0.25,95,115.0
4351,G3,377.5,0.25,95,115.0
4352,C3,377.5,0.25,95,115.0
4353,G3,377.5,0.25,95,115.0
4354,C3,377.5,0.25,95,115.0
4355,B1,377.5,0.25,95,115.0
4356,E-3,377.5,0.25,95,115.0
4357,B1,377.75,0.25,95,115.0
4358,G3,377.75,0.25,95,115.0
4359,C3,377.75,0.25,95,115.0
4360,G3,377.75,0.25,95,115.0
4361,C3,377.75,0.25,95,115.0
4362,E1,378.0,1.0,95,115.0
4363,G3,378.0,0.5,95,115.0
4364,C3,378.0,0.5,95,115.0
4365,G3,378.0,0.5,95,115.0
4366,C3,378.0,0.5,95,115.0
4367,B1,378.0,0.25,95,115.0
4368,E-3,378.0,0.25,95,115.0
4369,B1,378.25,0.25,95,115.0
4370,G3,378.5,0.25,95,115.0
4371,C3,378.5,0.25,95,115.0
4372,G3,378.5,0.25,95,115.0
4373,C3,378.5,0.25,95,115.0
4374,B1,378.5,0.25,95,115.0
4375,E-3,378.5,0.25,95,115.0
4376,B1,378.75,0.25,95,115.0
4377,G3,378.75,0.25,95,115.0
4378,C3,378.75,0.25,95,115.0
4379,G3,378.75,0.25,95,115.0
4380,C3,378.75,0.25,95,115.0
4381,E1,379.0,1.0,95,115.0
4382,G3,379.0,0.5,95,115.0
4383,C3,379.0,0.5,95,115.0
4384,G3,379.0,0.5,95,115.0
4385,C3,379.0,0.5,95,115.0
4386,B1,379.0,0.25,95,115.0
4387,D2,379.0,0.25,95,115.0
4388,E-3,379.0,0.25,95,115.0
4389,B1,379.25,0.25,95,115.0
4390,G3,379.5,0.5,95,115.0
4391,C3,379.5,0.5,95,115.0
4392,G3,379.5,0.5,95,115.0
4393,C3,379.5,0.5,95,115.0
4394,B1,379.5,0.25,95,115.0
4395,E-3,379.5,0.25,95,115.0
4396,B1,379.75,0.25,95,115.0
4397,A3,380.0,0.5,95,115.0
4398,D3,380.0,0.5,95,115.0
4399,A3,380.0,0.5,95,115.0
4400,D3,380.0,0.5,95,115.0
4401,B1,380.0,0.25,95,115.0
4402,E-3,380.0,0.25,95,115.0
4403,E-3,380.25,0.25,95,115.0
4404,E-3,380.5,0.5,95,115.0
4405,A3,380.5,0.25,95,115.0
4406,D3,380.5,0.25,95,115.0
4407,A3,380.5,0.25,95,115.0
4408,D3,380.5,0.25,95,115.0
4409,A3,380.75,0.25,95,115.0
4410,D3,380.75,0.25,95,115.0
4411,A3,380.75,0.25,95,115.0
4412,D3,380.75,0.25,95,115.0
4413,D2,381.0,0.5,95,115.0
4414,A3,381.0,0.5,95,115.0
4415,D3,381.0,0.5,95,115.0
4416,A3,381.0,0.5,95,115.0
4417,D3,381.0,0.5,95,115.0
4418,D2,381.5,0.5,95,115.0
4419,A3,381.5,0.25,95,115.0
4420,D3,381.5,0.25,95,115.0
4421,A3,381.5,0.25,95,115.0
4422,D3,381.5,0.25,95,115.0
4423,A3,381.75,0.25,95,115.0
4424,D3,381.75,0.25,95,115.0
4425,A3,381.75,0.25,95,115.0
4426,D3,381.75,0.25,95,115.0
4427,F3,382.0,0.25,95,115.0
4428,F3,382.0,0.25,95,115.0
4429,D2,382.0,0.25,95,115.0
4430,E3,382.25,0.25,95,115.0
4431,E3,382.25,0.25,95,115.0
4432,D2,382.25,0.25,95,115.0
4433,D3,382.5,0.5,95,115.0
4434,D3,382.5,0.5,95,115.0
4435,D2,382.5,0.5,95,115.0
4436,F3,383.0,0.25,95,115.0
4437,F3,383.0,0.25,95,115.0
4438,B2,383.0,0.25,95,115.0
4439,E3,383.25,0.25,95,115.0
4440,E3,383.25,0.25,95,115.0
4441,A2,383.25,0.25,95,115.0
4442,D3,383.5,0.5,95,115.0
4443,D3,383.5,0.5,95,115.0
4444,G2,383.5,0.25,95,115.0
4445,F2,383.75,0.25,95,115.0
4446,D3,384.0,1.25,95,115.0
4447,D3,384.0,1.25,95,115.0
4448,C1,384.0,4.0,95,115.0
4449,B1,384.0,0.25,95,115.0
4450,E-3,384.0,0.25,95,115.0
4451,C#3,384.0,0.25,95,115.0
4452,D6,384.0,0.75,95,115.0
4453,D5,384.0,0.75,95,115.0
4454,B1,384.25,0.25,95,115.0
4455,B1,384.5,0.25,95,115.0
4456,E-3,384.5,0.25,95,115.0
4457,B1,384.75,0.25,95,115.0
4458,B1,385.0,0.25,95,115.0
4459,D2,385.0,0.25,95,115.0
4460,E-3,385.0,0.25,95,115.0
4461,D3,385.25,0.25,95,115.0
4462,D3,385.25,0.25,95,115.0
4463,B1,385.25,0.25,95,115.0
4464,E3,385.5,0.25,95,115.0
4465,E3,385.5,0.25,95,115.0
4466,B1,385.5,0.25,95,115.0
4467,E-3,385.5,0.25,95,115.0
4468,F3,385.75,0.25,95,115.0
4469,F3,385.75,0.25,95,115.0
4470,B1,385.75,0.25,95,115.0
4471,A3,386.0,1.25,95,115.0
4472,A3,386.0,1.25,95,115.0
4473,B1,386.0,0.25,95,115.0
4474,E-3,386.0,0.25,95,115.0
4475,B1,386.25,0.25,95,115.0
4476,B1,386.5,0.25,95,115.0
4477,E-3,386.5,0.25,95,115.0
4478,B1,386.75,0.25,95,115.0
4479,B1,387.0,0.25,95,115.0
4480,D2,387.0,0.25,95,115.0
4481,E-3,387.0,0.25,95,115.0
4482,A3,387.25,0.25,95,115.0
4483,A3,387.25,0.25,95,115.0
4484,B1,387.25,0.25,95,115.0
4485,F3,387.5,0.25,95,115.0
4486,F3,387.5,0.25,95,115.0
4487,B1,387.5,0.25,95,115.0
4488,E-3,387.5,0.25,95,115.0
4489,F5,387.5,0.5,95,115.0
4490,F4,387.5,0.5,95,115.0
4491,E3,387.75,0.25,95,115.0
4492,E3,387.75,0.25,95,115.0
4493,B1,387.75,0.25,95,115.0
4494,D3,388.0,0.5,95,115.0
4495,D3,388.0,0.5,95,115.0
4496,A0,388.0,4.0,95,115.0
4497,B1,388.0,0.25,95,115.0
4498,E-3,388.0,0.25,95,115.0
4499,C#3,388.0,0.25,95,115.0
4500,B-5,388.0,0.75,95,115.0
4501,B-4,388.0,0.75,95,115.0
4502,B1,388.25,0.25,95,115.0
4503,E3,388.5,0.25,95,115.0
4504,E3,388.5,0.25,95,115.0
4505,B1,388.5,0.25,95,115.0
4506,E-3,388.5,0.25,95,115.0
4507,F3,388.75,0.25,95,115.0
4508,F3,388.75,0.25,95,115.0
4509,B1,388.75,0.25,95,115.0
4510,A3,389.0,0.5,95,115.0
4511,A3,389.0,0.5,95,115.0
4512,B1,389.0,0.25,95,115.0
4513,D2,389.0,0.25,95,115.0
4514,E-3,389.0,0.25,95,115.0
4515,B1,389.25,0.25,95,115.0
4516,F3,389.5,0.25,95,115.0
4517,F3,389.5,0.25,95,115.0
4518,B1,389.5,0.25,95,115.0
4519,E-3,389.5,0.25,95,115.0
4520,E3,389.75,0.25,95,115.0
4521,E3,389.75,0.25,95,115.0
4522,B1,389.75,0.25,95,115.0
4523,D3,390.0,0.5,95,115.0
4524,D3,390.0,0.5,95,115.0
4525,B1,390.0,0.25,95,115.0
4526,E-3,390.0,0.25,95,115.0
4527,C#3,390.0,0.25,95,115.0
4528,B1,390.25,0.25,95,115.0
4529,E3,390.5,0.25,95,115.0
4530,E3,390.5,0.25,95,115.0
4531,B1,390.5,0.25,95,115.0
4532,E-3,390.5,0.25,95,115.0
4533,F3,390.75,0.25,95,115.0
4534,F3,390.75,0.25,95,115.0
4535,B1,390.75,0.25,95,115.0
4536,A3,391.0,0.25,95,115.0
4537,A3,391.0,0.25,95,115.0
4538,B1,391.0,0.25,95,115.0
4539,D2,391.0,0.25,95,115.0
4540,E-3,391.0,0.25,95,115.0
4541,F3,391.25,0.25,95,115.0
4542,F3,391.25,0.25,95,115.0
4543,B1,391.25,0.25,95,115.0
4544,E3,391.5,0.5,95,115.0
4545,E3,391.5,0.5,95,115.0
4546,B1,391.5,0.25,95,115.0
4547,E-3,391.5,0.25,95,115.0
4548,G5,391.5,0.5,95,115.0
4549,G4,391.5,0.5,95,115.0
4550,B1,391.75,0.25,95,115.0
4551,D3,392.0,1.25,95,115.0
4552,D3,392.0,1.25,95,115.0
4553,C1,392.0,4.0,95,115.0
4554,B1,392.0,0.25,95,115.0
4555,E-3,392.0,0.25,95,115.0
4556,C#3,392.0,0.25,95,115.0
4557,C6,392.0,0.75,95,115.0
4558,C5,392.0,0.75,95,115.0
4559,B1,392.25,0.25,95,115.0
4560,B1,392.5,0.25,95,115.0
4561,E-3,392.5,0.25,95,115.0
4562,B1,392.75,0.25,95,115.0
4563,B1,393.0,0.25,95,115.0
4564,D2,393.0,0.25,95,115.0
4565,E-3,393.0,0.25,95,115.0
4566,D3,393.25,0.25,95,115.0
4567,D3,393.25,0.25,95,115.0
4568,B1,393.25,0.25,95,115.0
4569,E3,393.5,0.25,95,115.0
4570,E3,393.5,0.25,95,115.0
4571,B1,393.5,0.25,95,115.0
4572,E-3,393.5,0.25,95,115.0
4573,F3,393.75,0.25,95,115.0
4574,F3,393.75,0.25,95,115.0
4575,B1,393.75,0.25,95,115.0
4576,A3,394.0,1.25,95,115.0
4577,A3,394.0,1.25,95,115.0
4578,B1,394.0,0.25,95,115.0
4579,E-3,394.0,0.25,95,115.0
4580,B1,394.25,0.25,95,115.0
4581,B1,394.5,0.25,95,115.0
4582,E-3,394.5,0.25,95,115.0
4583,B1,394.75,0.25,95,115.0
4584,B1,395.0,0.25,95,115.0
4585,D2,395.0,0.25,95,115.0
4586,E-3,395.0,0.25,95,115.0
4587,A3,395.25,0.25,95,115.0
4588,A3,395.25,0.25,95,115.0
4589,B1,395.25,0.25,95,115.0
4590,F3,395.5,0.25,95,115.0
4591,F3,395.5,0.25,95,115.0
4592,B1,395.5,0.25,95,115.0
4593,E-3,395.5,0.25,95,115.0
4594,A5,395.5,0.5,95,115.0
4595,A4,395.5,0.5,95,115.0
4596,E3,395.75,0.25,95,115.0
4597,E3,395.75,0.25,95,115.0
4598,B1,395.75,0.25,95,115.0
4599,D3,396.0,0.5,95,115.0
4600,D3,396.0,0.5,95,115.0
4601,A0,396.0,4.0,95,115.0
4602,B1,396.0,0.25,95,115.0
4603,E-3,396.0,0.25,95,115.0
4604,C#3,396.0,0.25,95,115.0
4605,D6,396.0,0.5,95,115.0
4606,D5,396.0,0.5,95,115.0
4607,B1,396.25,0.25,95,115.0
4608,E3,396.5,0.25,95,115.0
4609,E3,396.5,0.25,95,115.0
4610,B1,396.5,0.25,95,115.0
4611,E-3,396.5,0.25,95,115.0
4612,F3,396.75,0.25,95,115.0
4613,F3,396.75,0.25,95,115.0
4614,B1,396.75,0.25,95,115.0
4615,A3,397.0,0.5,95,115.0
4616,A3,397.0,0.5,95,115.0
4617,B1,397.0,0.25,95,115.0
4618,D2,397.0,0.25,95,115.0
4619,E-3,397.0,0.25,95,115.0
4620,B1,397.25,0.25,95,115.0
4621,F3,397.5,0.25,95,115.0
4622,F3,397.5,0.25,95,115.0
4623,B1,397.5,0.25,95,115.0
4624,E-3,397.5,0.25,95,115.0
4625,E3,397.75,0.25,95,115.0
4626,E3,397.75,0.25,95,115.0
4627,B1,397.75,0.25,95,115.0
4628,D3,398.0,0.5,95,115.0
4629,D3,398.0,0.5,95,115.0
4630,B1,398.0,0.25,95,115.0
4631,E-3,398.0,0.25,95,115.0
4632,C#3,398.0,0.25,95,115.0
4633,F6,398.0,0.25,95,115.0
4634,F5,398.0,0.25,95,115.0
4635,B1,398.25,0.25,95,115.0
4636,E6,398.25,0.25,95,115.0
4637,E5,398.25,0.25,95,115.0
4638,E3,398.5,0.25,95,115.0
4639,E3,398.5,0.25,95,115.0
4640,B1,398.5,0.25,95,115.0
4641,E-3,398.5,0.25,95,115.0
4642,D6,398.5,0.5,95,115.0
4643,D5,398.5,0.5,95,115.0
4644,F3,398.75,0.25,95,115.0
4645,F3,398.75,0.25,95,115.0
4646,B1,398.75,0.25,95,115.0
4647,A3,399.0,0.25,95,115.0
4648,A3,399.0,0.25,95,115.0
4649,B1,399.0,0.25,95,115.0
4650,D2,399.0,0.25,95,115.0
4651,E-3,399.0,0.25,95,115.0
4652,F6,399.0,0.25,95,115.0
4653,F5,399.0,0.25,95,115.0
4654,F3,399.25,0.25,95,115.0
4655,F3,399.25,0.25,95,115.0
4656,B1,399.25,0.25,95,115.0
4657,E6,399.25,0.25,95,115.0
4658,E5,399.25,0.25,95,115.0
4659,E3,399.5,0.5,95,115.0
4660,E3,399.5,0.5,95,115.0
4661,B1,399.5,0.25,95,115.0
4662,E-3,399.5,0.25,95,115.0
4663,D6,399.5,0.5,95,115.0
4664,D5,399.5,0.5,95,115.0
4665,B1,399.75,0.25,95,115.0
4666,D3,400.0,1.25,95,115.0
4667,D3,400.0,1.25,95,115.0
4668,C1,400.0,4.0,95,115.0
4669,B1,400.0,0.25,95,115.0
4670,E-3,400.0,0.25,95,115.0
4671,C#3,400.0,0.25,95,115.0
4672,D6,400.0,0.75,95,115.0
4673,D5,400.0,0.75,95,115.0
4674,B1,400.25,0.25,95,115.0
4675,B1,400.5,0.25,95,115.0
4676,E-3,400.5,0.25,95,115.0
4677,B1,400.75,0.25,95,115.0
4678,B1,401.0,0.25,95,115.0
4679,D2,401.0,0.25,95,115.0
4680,E-3,401.0,0.25,95,115.0
4681,D3,401.25,0.25,95,115.0
4682,D3,401.25,0.25,95,115.0
4683,B1,401.25,0.25,95,115.0
4684,E3,401.5,0.25,95,115.0
4685,E3,401.5,0.25,95,115.0
4686,B1,401.5,0.25,95,115.0
4687,E-3,401.5,0.25,95,115.0
4688,F3,401.75,0.25,95,115.0
4689,F3,401.75,0.25,95,115.0
4690,B1,401.75,0.25,95,115.0
4691,A3,402.0,1.25,95,115.0
4692,A3,402.0,1.25,95,115.0
4693,B1,402.0,0.25,95,115.0
4694,E-3,402.0,0.25,95,115.0
4695,B1,402.25,0.25,95,115.0
4696,B1,402.5,0.25,95,115.0
4697,E-3,402.5,0.25,95,115.0
4698,B1,402.75,0.25,95,115.0
4699,B1,403.0,0.25,95,115.0
4700,D2,403.0,0.25,95,115.0
4701,E-3,403.0,0.25,95,115.0
4702,A3,403.25,0.25,95,115.0
4703,A3,403.25,0.25,95,115.0
4704,B1,403.25,0.25,95,115.0
4705,F3,403.5,0.25,95,115.0
4706,F3,403.5,0.25,95,115.0
4707,B1,403.5,0.25,95,115.0
4708,E-3,403.5,0.25,95,115.0
4709,F5,403.5,0.5,95,115.0
4710,F4,403.5,0.5,95,115.0
4711,E3,403.75,0.25,95,115.0
4712,E3,403.75,0.25,95,115.0
4713,B1,403.75,0.25,95,115.0
4714,D3,404.0,0.5,95,115.0
4715,D3,404.0,0.5,95,115.0
4716,A0,404.0,4.0,95,115.0
4717,B1,404.0,0.25,95,115.0
4718,E-3,404.0,0.25,95,115.0
4719,C#3,404.0,0.25,95,115.0
4720,B-5,404.0,0.75,95,115.0
4721,B-4,404.0,0.75,95,115.0
4722,B1,404.25,0.25,95,115.0
4723,E3,404.5,0.25,95,115.0
4724,E3,404.5,0.25,95,115.0
4725,B1,404.5,0.25,95,115.0
4726,E-3,404.5,0.25,95,115.0
4727,F3,404.75,0.25,95,115.0
4728,F3,404.75,0.25,95,115.0
4729,B1,404.75,0.25,95,115.0
4730,A3,405.0,0.5,95,115.0
4731,A3,405.0,0.5,95,115.0
4732,B1,405.0,0.25,95,115.0
4733,D2,405.0,0.25,95,115.0
4734,E-3,405.0,0.25,95,115.0
4735,B1,405.25,0.25,95,115.0
4736,F3,405.5,0.25,95,115.0
4737,F3,405.5,0.25,95,115.0
4738,B1,405.5,0.25,95,115.0
4739,E-3,405.5,0.25,95,115.0
4740,E3,405.75,0.25,95,115.0
4741,E3,405.75,0.25,95,115.0
4742,B1,405.75,0.25,95,115.0
4743,D3,406.0,0.5,95,115.0
4744,D3,406.0,0.5,95,115.0
4745,B1,406.0,0.25,95,115.0
4746,E-3,406.0,0.25,95,115.0
4747,B1,406.25,0.25,95,115.0
4748,E3,406.5,0.25,95,115.0
4749,E3,406.5,0.25,95,115.0
4750,B1,406.5,0.25,95,115.0
4751,E-3,406.5,0.25,95,115.0
4752,F3,406.75,0.25,95,115.0
4753,F3,406.75,0.25,95,115.0
4754,B1,406.75,0.25,95,115.0
4755,A3,407.0,0.25,95,115.0
4756,A3,407.0,0.25,95,115.0
4757,B1,407.0,0.25,95,115.0
4758,D2,407.0,0.25,95,115.0
4759,E-3,407.0,0.25,95,115.0
4760,F3,407.25,0.25,95,115.0
4761,F3,407.25,0.25,95,115.0
4762,B1,407.25,0.25,95,115.0
4763,E3,407.5,0.5,95,115.0
4764,E3,407.5,0.5,95,115.0
4765,B1,407.5,0.25,95,115.0
4766,E-3,407.5,0.25,95,115.0
4767,G5,407.5,0.5,95,115.0
4768,G4,407.5,0.5,95,115.0
4769,B1,407.75,0.25,95,115.0
4770,D3,408.0,1.25,95,115.0
4771,D3,408.0,1.25,95,115.0
4772,C1,408.0,4.0,95,115.0
4773,B1,408.0,0.25,95,115.0
4774,E-3,408.0,0.25,95,115.0
4775,C#3,408.0,0.25,95,115.0
4776,C6,408.0,0.75,95,115.0
4777,C5,408.0,0.75,95,115.0
4778,B1,408.25,0.25,95,115.0
4779,B1,408.5,0.25,95,115.0
4780,E-3,408.5,0.25,95,115.0
4781,B1,408.75,0.25,95,115.0
4782,B1,409.0,0.25,95,115.0
4783,D2,409.0,0.25,95,115.0
4784,E-3,409.0,0.25,95,115.0
4785,D3,409.25,0.25,95,115.0
4786,D3,409.25,0.25,95,115.0
4787,B1,409.25,0.25,95,115.0
4788,E3,409.5,0.25,95,115.0
4789,E3,409.5,0.25,95,115.0
4790,B1,409.5,0.25,95,115.0
4791,E-3,409.5,0.25,95,115.0
4792,F3,409.75,0.25,95,115.0
4793,F3,409.75,0.25,95,115.0
4794,B1,409.75,0.25,95,115.0
4795,A3,410.0,1.25,95,115.0
4796,A3,410.0,1.25,95,115.0
4797,B1,410.0,0.25,95,115.0
4798,E-3,410.0,0.25,95,115.0
4799,B1,410.25,0.25,95,115.0
4800,B1,410.5,0.25,95,115.0
4801,E-3,410.5,0.25,95,115.0
4802,B1,410.75,0.25,95,115.0
4803,B1,411.0,0.25,95,115.0
4804,D2,411.0,0.25,95,115.0
4805,E-3,411.0,0.25,95,115.0
4806,A3,411.25,0.25,95,115.0
4807,A3,411.25,0.25,95,115.0
4808,B1,411.25,0.25,95,115.0
4809,F3,411.5,0.25,95,115.0
4810,F3,411.5,0.25,95,115.0
4811,B1,411.5,0.25,95,115.0
4812,E-3,411.5,0.25,95,115.0
4813,A5,411.5,0.5,95,115.0
4814,A4,411.5,0.5,95,115.0
4815,E3,411.75,0.25,95,115.0
4816,E3,411.75,0.25,95,115.0
4817,B1,411.75,0.25,95,115.0
4818,D3,412.0,0.5,95,115.0
4819,D3,412.0,0.5,95,115.0
4820,A0,412.0,4.0,95,115.0
4821,B1,412.0,0.25,95,115.0
4822,E-3,412.0,0.25,95,115.0
4823,C#3,412.0,0.25,95,115.0
4824,D6,412.0,0.5,95,115.0
4825,D5,412.0,0.5,95,115.0
4826,B1,412.25,0.25,95,115.0
4827,E3,412.5,0.25,95,115.0
4828,E3,412.5,0.25,95,115.0
4829,B1,412.5,0.25,95,115.0
4830,E-3,412.5,0.25,95,115.0
4831,F3,412.75,0.25,95,115.0
4832,F3,412.75,0.25,95,115.0
4833,B1,412.75,0.25,95,115.0
4834,A3,413.0,0.5,95,115.0
4835,A3,413.0,0.5,95,115.0
4836,B1,413.0,0.25,95,115.0
4837,D2,413.0,0.25,95,115.0
4838,E-3,413.0,0.25,95,115.0
4839,B1,413.25,0.25,95,115.0
4840,F3,413.5,0.25,95,115.0
4841,F3,413.5,0.25,95,115.0
4842,B1,413.5,0.25,95,115.0
4843,E-3,413.5,0.25,95,115.0
4844,E3,413.75,0.25,95,115.0
4845,E3,413.75,0.25,95,115.0
4846,B1,413.75,0.25,95,115.0
4847,D3,414.0,0.5,95,115.0
4848,D3,414.0,0.5,95,115.0
4849,B1,414.0,0.25,95,115.0
4850,E-3,414.0,0.25,95,115.0
4851,C#3,414.0,0.25,95,115.0
4852,F6,414.0,0.25,95,115.0
4853,F5,414.0,0.25,95,115.0
4854,B1,414.25,0.25,95,115.0
4855,E6,414.25,0.25,95,115.0
4856,E5,414.25,0.25,95,115.0
4857,E3,414.5,0.25,95,115.0
4858,E3,414.5,0.25,95,115.0
4859,B1,414.5,0.25,95,115.0
4860,E-3,414.5,0.25,95,115.0
4861,D6,414.5,0.5,95,115.0
4862,D5,414.5,0.5,95,115.0
4863,F3,414.75,0.25,95,115.0
4864,F3,414.75,0.25,95,115.0
4865,B1,414.75,0.25,95,115.0
4866,A3,415.0,0.25,95,115.0
4867,A3,415.0,0.25,95,115.0
4868,B1,415.0,0.25,95,115.0
4869,D2,415.0,0.25,95,115.0
4870,E-3,415.0,0.25,95,115.0
4871,F6,415.0,0.25,95,115.0
4872,F5,415.0,0.25,95,115.0
4873,F3,415.25,0.25,95,115.0
4874,F3,415.25,0.25,95,115.0
4875,B1,415.25,0.25,95,115.0
4876,E6,415.25,0.25,95,115.0
4877,E5,415.25,0.25,95,115.0
4878,E3,415.5,0.5,95,115.0
4879,E3,415.5,0.5,95,115.0
4880,B1,415.5,0.25,95,115.0
4881,E-3,415.5,0.25,95,115.0
4882,D6,415.5,0.5,95,115.0
4883,D5,415.5,0.5,95,115.0
4884,B1,415.75,0.25,95,115.0
4885,D4,416.0,0.5,95,115.0
4886,D3,416.0,4.0,95,115.0
4887,A1,416.0,4.0,95,115.0
4888,D4,416.0,4.0,95,115.0
4889,A3,416.0,4.0,95,115.0
4890,B1,416.0,3.75,95,115.0
4891,C#3,416.0,3.75,95,115.0
4892,D6,416.0,0.75,95,115.0
4893,D5,416.0,0.75,95,115.0
4894,A4,416.5,0.5,95,115.0
4895,E4,417.0,0.5,95,115.0
4896,F4,417.5,0.5,95,115.0
4897,D4,418.0,0.5,95,115.0
4898,A4,418.5,0.5,95,115.0
4899,E4,419.0,0.5,95,115.0
4900,F4,419.5,0.5,95,115.0
4901,F5,419.5,0.5,95,115.0
4902,F4,419.5,0.5,95,115.0
4903,D4,420.0,0.5,95,115.0
4904,A1,420.0,3.5,95,115.0
4905,B-5,420.0,0.75,95,115.0
4906,B-4,420.0,0.75,95,115.0
4907,A4,420.5,0.5,95,115.0
4908,D3,420.5,0.5,95,115.0
4909,E4,421.0,0.5,95,115.0
4910,F4,421.5,0.5,95,115.0
4911,C3,421.5,0.5,95,115.0
4912,D4,422.0,0.5,95,115.0
4913,B2,422.0,0.5,95,115.0
4914,A4,422.5,0.5,95,115.0
4915,A2,422.75,0.25,95,115.0
4916,E4,423.0,0.5,95,115.0
4917,G2,423.0,0.5,95,115.0
4918,F4,423.5,0.5,95,115.0
4919,G1,423.5,0.5,95,115.0
4920,D4,423.5,3.5,95,115.0
4921,A3,423.5,3.5,95,115.0
4922,B1,423.5,0.5,95,115.0
4923,C#3,423.5,0.5,95,115.0
4924,G5,423.5,0.5,95,115.0
4925,G4,423.5,0.5,95,115.0
4926,D4,424.0,0.5,95,115.0
4927,F1,424.0,4.0,95,115.0
4928,C2,424.0,3.75,95,115.0
4929,C#3,424.0,3.75,95,115.0
4930,C6,424.0,0.75,95,115.0
4931,C5,424.0,0.75,95,115.0
4932,A4,424.5,0.5,95,115.0
4933,E4,425.0,0.5,95,115.0
4934,F4,425.5,0.5,95,115.0
4935,D4,426.0,0.5,95,115.0
4936,A4,426.5,0.5,95,115.0
4937,E4,427.0,0.5,95,115.0
4938,F3,427.0,0.5,95,115.0
4939,C3,427.0,0.5,95,115.0
4940,F2,427.0,0.5,95,115.0
4941,F4,427.5,0.5,95,115.0
4942,B-3,427.5,4.0,95,115.0
4943,F3,427.5,4.0,95,115.0
4944,B-2,427.5,4.0,95,115.0
4945,A5,427.5,0.5,95,115.0
4946,A4,427.5,0.5,95,115.0
4947,D4,428.0,0.5,95,115.0
4948,F1,428.0,3.5,95,115.0
4949,D3,428.0,0.25,95,115.0
4950,D6,428.0,0.5,95,115.0
4951,D5,428.0,0.5,95,115.0
4952,D3,428.25,0.5,95,115.0
4953,A4,428.5,0.5,95,115.0
4954,D3,428.75,0.25,95,115.0
4955,E4,429.0,0.5,95,115.0
4956,D3,429.0,0.25,95,115.0
4957,C3,429.25,0.25,95,115.0
4958,F4,429.5,0.5,95,115.0
4959,C3,429.5,0.25,95,115.0
4960,C3,429.75,0.25,95,115.0
4961,D4,430.0,0.5,95,115.0
4962,C3,430.0,0.25,95,115.0
4963,F6,430.0,0.25,95,115.0
4964,F5,430.0,0.25,95,115.0
4965,B2,430.25,0.25,95,115.0
4966,E6,430.25,0.25,95,115.0
4967,E5,430.25,0.25,95,115.0
4968,A4,430.5,0.5,95,115.0
4969,B2,430.5,0.25,95,115.0
4970,D6,430.5,0.5,95,115.0
4971,D5,430.5,0.5,95,115.0
4972,B2,430.75,0.25,95,115.0
4973,E4,431.0,0.5,95,115.0
4974,B2,431.0,0.25,95,115.0
4975,F6,431.0,0.25,95,115.0
4976,F5,431.0,0.25,95,115.0
4977,A2,431.25,0.25,95,115.0
4978,E6,431.25,0.25,95,115.0
4979,E5,431.25,0.25,95,115.0
4980,F4,431.5,0.5,95,115.0
4981,A1,431.5,0.5,95,115.0
4982,B1,431.5,0.5,95,115.0
4983,C#3,431.5,0.5,95,115.0
4984,D6,431.5,0.5,95,115.0
4985,D5,431.5,0.5,95,115.0
4986,D4,432.0,0.5,95,115.0
4987,G1,432.0,4.0,95,115.0
4988,C2,432.0,3.75,95,115.0
4989,C#3,432.0,3.75,95,115.0
4990,D6,432.0,0.75,95,115.0
4991,D5,432.0,0.75,95,115.0
4992,A4,432.5,0.5,95,115.0
4993,E4,433.0,0.5,95,115.0
4994,F4,433.5,0.5,95,115.0
4995,D4,434.0,0.5,95,115.0
4996,A4,434.5,0.5,95,115.0
4997,E4,435.0,0.5,95,115.0
4998,B-3,435.0,3.5,95,115.0
4999,F3,435.0,3.5,95,115.0
5000,B-2,435.0,3.5,95,115.0
5001,F4,435.5,0.5,95,115.0
5002,F5,435.5,0.5,95,115.0
5003,F4,435.5,0.5,95,115.0
5004,D4,436.0,0.5,95,115.0
5005,G1,436.0,3.5,95,115.0
5006,D3,436.0,0.25,95,115.0
5007,B-5,436.0,0.75,95,115.0
5008,B-4,436.0,0.75,95,115.0
5009,D3,436.25,0.25,95,115.0
5010,A4,436.5,0.5,95,115.0
5011,D3,436.5,0.25,95,115.0
5012,D3,436.75,0.25,95,115.0
5013,E4,437.0,0.5,95,115.0
5014,C3,437.0,0.25,95,115.0
5015,C3,437.25,0.25,95,115.0
5016,F4,437.5,0.5,95,115.0
5017,C3,437.5,0.25,95,115.0
5018,C3,437.75,0.25,95,115.0
5019,D4,438.0,0.5,95,115.0
5020,B2,438.0,0.25,95,115.0
5021,B2,438.25,0.25,95,115.0
5022,A4,438.5,0.5,95,115.0
5023,B2,438.5,0.25,95,115.0
5024,G3,438.5,0.5,95,115.0
5025,D3,438.5,0.5,95,115.0
5026,G2,438.5,0.5,95,115.0
5027,B2,438.75,0.25,95,115.0
5028,E4,439.0,0.5,95,115.0
5029,A2,439.0,0.25,95,115.0
5030,C4,439.0,4.0,95,115.0
5031,G3,439.0,4.0,95,115.0
5032,C3,439.0,4.0,95,115.0
5033,A2,439.25,0.25,95,115.0
5034,F4,439.5,0.5,95,115.0
5035,B1,439.5,0.5,95,115.0
5036,B1,439.5,0.5,95,115.0
5037,C#3,439.5,0.5,95,115.0
5038,G5,439.5,0.5,95,115.0
5039,G4,439.5,0.5,95,115.0
5040,D4,440.0,0.5,95,115.0
5041,A1,440.0,4.0,95,115.0
5042,C2,440.0,3.75,95,115.0
5043,C#3,440.0,3.75,95,115.0
5044,C6,440.0,0.75,95,115.0
5045,C5,440.0,0.75,95,115.0
5046,A4,440.5,0.5,95,115.0
5047,E4,441.0,0.5,95,115.0
5048,F4,441.5,0.5,95,115.0
5049,D4,442.0,0.5,95,115.0
5050,A4,442.5,0.5,95,115.0
5051,E4,443.0,0.5,95,115.0
5052,F4,443.5,0.5,95,115.0
5053,A5,443.5,0.5,95,115.0
5054,A4,443.5,0.5,95,115.0
5055,D4,444.0,0.5,95,115.0
5056,A1,444.0,3.75,95,115.0
5057,D6,444.0,0.5,95,115.0
5058,D5,444.0,0.5,95,115.0
5059,A4,444.5,0.5,95,115.0
5060,D2,444.5,0.5,95,115.0
5061,E4,445.0,0.5,95,115.0
5062,F4,445.5,0.5,95,115.0
5063,B2,445.5,0.5,95,115.0
5064,D4,446.0,0.5,95,115.0
5065,A2,446.0,0.5,95,115.0
5066,F6,446.0,0.25,95,115.0
5067,F5,446.0,0.25,95,115.0
5068,E6,446.25,0.25,95,115.0
5069,E5,446.25,0.25,95,115.0
5070,A4,446.5,0.5,95,115.0
5071,C4,446.5,3.5,95,115.0
5072,G3,446.5,3.5,95,115.0
5073,C3,446.5,3.5,95,115.0
5074,D6,446.5,0.5,95,115.0
5075,D5,446.5,0.5,95,115.0
5076,D2,446.75,0.25,95,115.0
5077,E4,447.0,0.5,95,115.0
5078,D2,447.0,0.5,95,115.0
5079,F6,447.0,0.25,95,115.0
5080,F5,447.0,0.25,95,115.0
5081,E6,447.25,0.25,95,115.0
5082,E5,447.25,0.25,95,115.0
5083,F4,447.5,0.5,95,115.0
5084,B1,447.5,0.5,95,115.0
5085,D6,447.5,0.5,95,115.0
5086,D5,447.5,0.5,95,115.0
5087,D3,448.0,0.25,95,115.0
5088,D2,448.0,0.25,95,115.0
5089,C#3,448.0,0.25,95,115.0
5090,E3,448.25,0.25,95,115.0
5091,D2,448.25,0.25,95,115.0
5092,F3,448.5,0.25,95,115.0
5093,D2,448.5,0.25,95,115.0
5094,E3,448.75,0.25,95,115.0
5095,D2,448.75,0.25,95,115.0
5096,F3,449.0,0.25,95,115.0
5097,D3,449.0,0.25,95,115.0
5098,A3,449.25,0.25,95,115.0
5099,C3,449.25,0.25,95,115.0
5100,F3,449.5,0.25,95,115.0
5101,B2,449.5,0.25,95,115.0
5102,E3,449.75,0.25,95,115.0
5103,A2,449.75,0.25,95,115.0
5104,F3,450.0,0.25,95,115.0
5105,C3,450.0,0.25,95,115.0
5106,A3,450.0,0.5,95,115.0
5107,E3,450.0,0.5,95,115.0
5108,A2,450.0,0.5,95,115.0
5109,E3,450.25,0.25,95,115.0
5110,B2,450.25,0.25,95,115.0
5111,D3,450.5,0.25,95,115.0
5112,A2,450.5,0.25,95,115.0
5113,D4,450.5,4.0,95,115.0
5114,A3,450.5,4.0,95,115.0
5115,D3,450.5,4.0,95,115.0
5116,C3,450.75,0.25,95,115.0
5117,G2,450.75,0.25,95,115.0
5118,F3,451.0,0.5,95,115.0
5119,B-2,451.0,0.5,95,115.0
5120,B2,451.0,0.25,95,115.0
5121,C#3,451.0,0.25,95,115.0
5122,A2,451.25,0.25,95,115.0
5123,G3,451.5,0.5,95,115.0
5124,C3,451.5,0.5,95,115.0
5125,G2,451.5,0.25,95,115.0
5126,C#3,451.5,0.25,95,115.0
5127,F2,451.75,0.25,95,115.0
5128,D3,452.0,0.25,95,115.0
5129,D2,452.0,0.25,95,115.0
5130,C#3,452.0,0.25,95,115.0
5131,E3,452.25,0.25,95,115.0
5132,D2,452.25,0.25,95,115.0
5133,F3,452.5,0.25,95,115.0
5134,D2,452.5,0.25,95,115.0
5135,E3,452.75,0.25,95,115.0
5136,D2,452.75,0.25,95,115.0
5137,F3,453.0,0.25,95,115.0
5138,D3,453.0,0.25,95,115.0
5139,A3,453.25,0.25,95,115.0
5140,C3,453.25,0.25,95,115.0
5141,F3,453.5,0.25,95,115.0
5142,B2,453.5,0.25,95,115.0
5143,E3,453.75,0.25,95,115.0
5144,A2,453.75,0.25,95,115.0
5145,F3,454.0,0.25,95,115.0
5146,C3,454.0,0.25,95,115.0
5147,E3,454.25,0.25,95,115.0
5148,B2,454.25,0.25,95,115.0
5149,D3,454.5,0.25,95,115.0
5150,A2,454.5,0.25,95,115.0
5151,C3,454.75,0.25,95,115.0
5152,G2,454.75,0.25,95,115.0
5153,F3,455.0,0.5,95,115.0
5154,B-2,455.0,0.5,95,115.0
5155,B2,455.0,0.25,95,115.0
5156,C#3,455.0,0.25,95,115.0
5157,A2,455.25,0.25,95,115.0
5158,G3,455.5,0.5,95,115.0
5159,C3,455.5,0.5,95,115.0
5160,G2,455.5,0.25,95,115.0
5161,C#3,455.5,0.25,95,115.0
5162,F2,455.75,0.25,95,115.0
5163,D3,456.0,0.25,95,115.0
5164,D2,456.0,0.25,95,115.0
5165,C#3,456.0,0.25,95,115.0
5166,E3,456.25,0.25,95,115.0
5167,D2,456.25,0.25,95,115.0
5168,F3,456.5,0.25,95,115.0
5169,D2,456.5,0.25,95,115.0
5170,E3,456.75,0.25,95,115.0
5171,D2,456.75,0.25,95,115.0
5172,F3,457.0,0.25,95,115.0
5173,D3,457.0,0.25,95,115.0
5174,A3,457.25,0.25,95,115.0
5175,C3,457.25,0.25,95,115.0
5176,F3,457.5,0.25,95,115.0
5177,B2,457.5,0.25,95,115.0
5178,E3,457.75,0.25,95,115.0
5179,A2,457.75,0.25,95,115.0
5180,F3,458.0,0.25,95,115.0
5181,C3,458.0,0.25,95,115.0
5182,E3,458.25,0.25,95,115.0
5183,B2,458.25,0.25,95,115.0
5184,D4,458.25,3.75,95,115.0
5185,A3,458.25,3.75,95,115.0
5186,D3,458.25,3.75,95,115.0
5187,D3,458.5,0.25,95,115.0
5188,A2,458.5,0.25,95,115.0
5189,C3,458.75,0.25,95,115.0
5190,G2,458.75,0.25,95,115.0
5191,F3,459.0,0.5,95,115.0
5192,B-2,459.0,0.5,95,115.0
5193,B2,459.0,0.25,95,115.0
5194,C#3,459.0,0.25,95,115.0
5195,A2,459.25,0.25,95,115.0
5196,G3,459.5,0.5,95,115.0
5197,C3,459.5,0.5,95,115.0
5198,G2,459.5,0.25,95,115.0
5199,C#3,459.5,0.25,95,115.0
5200,F2,459.75,0.25,95,115.0
5201,D3,460.0,0.25,95,115.0
5202,D2,460.0,0.25,95,115.0
5203,C#3,460.0,0.25,95,115.0
5204,E3,460.25,0.25,95,115.0
5205,D2,460.25,0.25,95,115.0
5206,F3,460.5,0.25,95,115.0
5207,D2,460.5,0.25,95,115.0
5208,E3,460.75,0.25,95,115.0
5209,D2,460.75,0.25,95,115.0
5210,F3,461.0,0.25,95,115.0
5211,D3,461.0,0.25,95,115.0
5212,A3,461.25,0.25,95,115.0
5213,C3,461.25,0.25,95,115.0
5214,F3,461.5,0.25,95,115.0
5215,B2,461.5,0.25,95,115.0
5216,E3,461.75,0.25,95,115.0
5217,A2,461.75,0.25,95,115.0
5218,F3,462.0,0.25,95,115.0
5219,C3,462.0,0.25,95,115.0
5220,E3,462.25,0.25,95,115.0
5221,D3,462.25,0.25,95,115.0
5222,B2,462.25,0.25,95,115.0
5223,D3,462.5,0.25,95,115.0
5224,E3,462.5,0.25,95,115.0
5225,A2,462.5,0.25,95,115.0
5226,C3,462.75,0.25,95,115.0
5227,F3,462.75,0.25,95,115.0
5228,G2,462.75,0.25,95,115.0
5229,E3,463.0,0.25,95,115.0
5230,F3,463.0,0.5,95,115.0
5231,B-2,463.0,0.5,95,115.0
5232,B2,463.0,0.25,95,115.0
5233,C#3,463.0,0.25,95,115.0
5234,F3,463.25,0.25,95,115.0
5235,A2,463.25,0.25,95,115.0
5236,A3,463.5,0.25,95,115.0
5237,G3,463.5,0.5,95,115.0
5238,C3,463.5,0.5,95,115.0
5239,G2,463.5,0.25,95,115.0
5240,C#3,463.5,0.25,95,115.0
5241,F3,463.75,0.25,95,115.0
5242,F2,463.75,0.25,95,115.0
5243,E3,464.0,0.25,95,115.0
5244,A1,464.0,0.75,95,115.0
5245,D4,464.0,0.75,95,115.0
5246,A3,464.0,0.75,95,115.0
5247,D3,464.0,0.75,95,115.0
5248,C2,464.0,0.75,95,115.0
5249,B-2,464.0,0.75,95,115.0
5250,C#3,464.0,0.75,95,115.0
5251,F3,464.25,0.25,95,115.0
5252,E3,464.5,0.25,95,115.0
5253,D3,464.75,0.25,95,115.0
5254,D3,465.0,0.5,95,115.0
5255,C3,465.0,0.25,95,115.0
5256,A1,465.0,0.75,95,115.0
5257,D2,465.0,0.5,95,115.0
5258,B-2,465.0,0.5,95,115.0
5259,F3,465.25,0.5,95,115.0
5260,B-2,465.25,0.5,95,115.0
5261,C2,465.5,0.5,95,115.0
5262,D4,465.5,1.0,95,115.0
5263,A3,465.5,1.0,95,115.0
5264,D3,465.5,1.0,95,115.0
5265,A1,465.75,1.0,95,115.0
5266,G3,465.75,0.5,95,115.0
5267,C3,465.75,0.5,95,115.0
5268,B-2,466.0,0.5,95,115.0
5269,D3,466.25,0.25,95,115.0
5270,D3,466.5,0.5,95,115.0
5271,E3,466.5,0.25,95,115.0
5272,C2,466.5,0.5,95,115.0
5273,F3,466.75,0.25,95,115.0
5274,A1,466.75,0.5,95,115.0
5275,E3,467.0,0.25,95,115.0
5276,D4,467.0,0.75,95,115.0
5277,A3,467.0,0.75,95,115.0
5278,D3,467.0,0.75,95,115.0
5279,D2,467.0,0.75,95,115.0
5280,B-2,467.0,0.75,95,115.0
5281,F3,467.25,0.25,95,115.0
5282,A1,467.25,0.75,95,115.0
5283,A3,467.5,0.25,95,115.0
5284,F3,467.75,0.25,95,115.0
5285,D3,468.0,0.5,95,115.0
5286,E3,468.0,0.25,95,115.0
5287,A1,468.0,0.5,95,115.0
5288,B-2,468.0,0.5,95,115.0
5289,F3,468.25,0.25,95,115.0
5290,E3,468.5,0.25,95,115.0
5291,A1,468.5,0.75,95,115.0
5292,C2,468.5,0.5,95,115.0
5293,D4,468.5,0.75,95,115.0
5294,A3,468.5,0.75,95,115.0
5295,D3,468.5,0.75,95,115.0
5296,D3,468.75,0.25,95,115.0
5297,C3,469.0,0.25,95,115.0
5298,D2,469.0,0.75,95,115.0
5299,B-2,469.0,0.75,95,115.0
5300,F3,469.25,0.5,95,115.0
5301,B-2,469.25,0.5,95,115.0
5302,D3,469.5,0.5,95,115.0
5303,A1,469.5,0.5,95,115.0
5304,G3,469.75,0.5,95,115.0
5305,C3,469.75,0.5,95,115.0
5306,A1,470.0,0.75,95,115.0
5307,D4,470.0,0.75,95,115.0
5308,A3,470.0,0.75,95,115.0
5309,D3,470.0,0.75,95,115.0
5310,C2,470.0,0.75,95,115.0
5311,B-2,470.0,0.75,95,115.0
5312,D3,470.25,0.25,95,115.0
5313,E3,470.5,0.25,95,115.0
5314,F3,470.75,0.25,95,115.0
5315,E3,471.0,0.25,95,115.0
5316,A1,471.0,0.75,95,115.0
5317,D4,471.0,0.75,95,115.0
5318,A3,471.0,0.75,95,115.0
5319,D3,471.0,0.75,95,115.0
5320,D2,471.0,0.75,95,115.0
5321,B-2,471.0,0.75,95,115.0
5322,F3,471.25,0.25,95,115.0
5323,A3,471.5,0.25,95,115.0
5324,F3,471.75,0.25,95,115.0
5325,E3,472.0,0.25,95,115.0
5326,A1,472.0,0.75,95,115.0
5327,D4,472.0,0.75,95,115.0
5328,A3,472.0,0.75,95,115.0
5329,D3,472.0,0.75,95,115.0
5330,C2,472.0,0.75,95,115.0
5331,B-2,472.0,0.75,95,115.0
5332,F3,472.25,0.25,95,115.0
5333,E3,472.5,0.25,95,115.0
5334,D3,472.75,0.25,95,115.0
5335,D3,473.0,0.5,95,115.0
5336,C3,473.0,0.25,95,115.0
5337,A1,473.0,0.75,95,115.0
5338,D2,473.0,0.5,95,115.0
5339,B-2,473.0,0.5,95,115.0
5340,F3,473.25,0.5,95,115.0
5341,B-2,473.25,0.5,95,115.0
5342,D4,473.5,1.0,95,115.0
5343,A3,473.5,1.0,95,115.0
5344,D3,473.5,1.0,95,115.0
5345,C-1,473.5,0.5,95,115.0
5346,C2,473.5,0.5,95,115.0
5347,A1,473.75,1.0,95,115.0
5348,G3,473.75,0.5,95,115.0
5349,C3,473.75,0.5,95,115.0
5350,C-1,474.0,0.5,95,115.0
5351,B-2,474.0,0.5,95,115.0
5352,D3,474.25,0.25,95,115.0
5353,D3,474.5,0.5,95,115.0
5354,E3,474.5,0.25,95,115.0
5355,C2,474.5,0.5,95,115.0
5356,F3,474.75,0.25,95,115.0
5357,A1,474.75,0.5,95,115.0
5358,E3,475.0,0.25,95,115.0
5359,D4,475.0,0.75,95,115.0
5360,A3,475.0,0.75,95,115.0
5361,D3,475.0,0.75,95,115.0
5362,C-1,475.0,0.75,95,115.0
5363,D2,475.0,0.75,95,115.0
5364,B-2,475.0,0.75,95,115.0
5365,F3,475.25,0.25,95,115.0
5366,A1,475.25,0.75,95,115.0
5367,A3,475.5,0.25,95,115.0
5368,F3,475.75,0.25,95,115.0
5369,F3,476.0,0.5,95,115.0
5370,E3,476.0,0.25,95,115.0
5371,B-2,476.0,0.5,95,115.0
5372,F3,476.25,0.25,95,115.0
5373,E3,476.5,0.5,95,115.0
5374,E3,476.5,0.25,95,115.0
5375,C2,476.5,0.5,95,115.0
5376,D3,476.75,0.25,95,115.0
5377,C3,477.0,0.75,95,115.0
5378,C3,477.0,0.25,95,115.0
5379,C-1,477.0,0.75,95,115.0
5380,D2,477.0,0.75,95,115.0
5381,B-2,477.0,0.75,95,115.0
5382,C#3,477.0,0.75,95,115.0
5383,F3,477.25,0.5,95,115.0
5384,B-2,477.25,0.5,95,115.0
5385,G3,477.75,0.5,95,115.0
5386,C3,477.75,0.5,95,115.0
5387,B-2,478.0,0.5,95,115.0
5388,C2,478.0,0.75,95,115.0
5389,B-2,478.0,0.75,95,115.0
5390,D4,478.25,0.75,95,115.0
5391,A3,478.25,0.75,95,115.0
5392,D3,478.25,0.75,95,115.0
5393,A2,478.5,0.5,95,115.0
5394,F2,479.0,0.75,95,115.0
5395,D2,479.0,0.75,95,115.0
5396,B-2,479.0,0.75,95,115.0
5397,C#3,479.0,0.75,95,115.0
5398,D3,479.25,0.5,95,115.0
5399,D4,479.75,1.0,95,115.0
5400,A3,479.75,1.0,95,115.0
5401,D3,479.75,1.0,95,115.0
5402,G1,480.0,0.75,95,115.0
5403,C4,480.0,0.75,95,115.0
5404,G3,480.0,0.75,95,115.0
5405,C3,480.0,0.75,95,115.0
5406,C2,480.0,0.75,95,115.0
5407,B-2,480.0,0.75,95,115.0
5408,C#3,480.0,0.75,95,115.0
5409,D3,480.75,0.5,95,115.0
5410,C3,481.0,0.5,95,115.0
5411,G1,481.0,0.75,95,115.0
5412,D2,481.0,0.5,95,115.0
5413,B-2,481.0,0.5,95,115.0
5414,D4,481.25,0.75,95,115.0
5415,A3,481.25,0.75,95,115.0
5416,D3,481.25,0.75,95,115.0
5417,C4,481.5,1.0,95,115.0
5418,G3,481.5,1.0,95,115.0
5419,C3,481.5,1.0,95,115.0
5420,C-1,481.5,0.5,95,115.0
5421,C2,481.5,0.5,95,115.0
5422,G1,481.75,1.0,95,115.0
5423,C-1,482.0,0.5,95,115.0
5424,B-2,482.0,0.5,95,115.0
5425,D3,482.25,0.5,95,115.0
5426,C3,482.5,0.5,95,115.0
5427,C2,482.5,0.5,95,115.0
5428,G1,482.75,0.5,95,115.0
5429,D4,482.75,0.75,95,115.0
5430,A3,482.75,0.75,95,115.0
5431,D3,482.75,0.75,95,115.0
5432,C4,483.0,0.75,95,115.0
5433,G3,483.0,0.75,95,115.0
5434,C3,483.0,0.75,95,115.0
5435,C-1,483.0,0.75,95,115.0
5436,D2,483.0,0.75,95,115.0
5437,B-2,483.0,0.75,95,115.0
5438,G1,483.25,0.75,95,115.0
5439,D3,483.75,0.5,95,115.0
5440,C3,484.0,0.5,95,115.0
5441,G1,484.0,0.5,95,115.0
5442,B-2,484.0,0.5,95,115.0
5443,D4,484.25,0.75,95,115.0
5444,A3,484.25,0.75,95,115.0
5445,D3,484.25,0.75,95,115.0
5446,G1,484.5,0.75,95,115.0
5447,C2,484.5,0.5,95,115.0
5448,C4,484.5,0.75,95,115.0
5449,G3,484.5,0.75,95,115.0
5450,C3,484.5,0.75,95,115.0
5451,C-1,485.0,0.75,95,115.0
5452,D2,485.0,0.75,95,115.0
5453,B-2,485.0,0.75,95,115.0
5454,D4,485.25,0.75,95,115.0
5455,A3,485.25,0.75,95,115.0
5456,D3,485.25,0.75,95,115.0
5457,C3,485.5,0.5,95,115.0
5458,G1,485.5,0.5,95,115.0
5459,G1,486.0,0.75,95,115.0
5460,C4,486.0,0.75,95,115.0
5461,G3,486.0,0.75,95,115.0
5462,C3,486.0,0.75,95,115.0
5463,C2,486.0,0.75,95,115.0
5464,B-2,486.0,0.75,95,115.0
5465,D4,486.25,0.75,95,115.0
5466,A3,486.25,0.75,95,115.0
5467,D3,486.25,0.75,95,115.0
5468,G1,487.0,0.75,95,115.0
5469,C4,487.0,0.75,95,115.0
5470,G3,487.0,0.75,95,115.0
5471,C3,487.0,0.75,95,115.0
5472,D2,487.0,0.75,95,115.0
5473,B-2,487.0,0.75,95,115.0
5474,D3,487.25,0.5,95,115.0
5475,D4,487.75,1.0,95,115.0
5476,A3,487.75,1.0,95,115.0
5477,D3,487.75,1.0,95,115.0
5478,G1,488.0,0.75,95,115.0
5479,C4,488.0,0.75,95,115.0
5480,G3,488.0,0.75,95,115.0
5481,C3,488.0,0.75,95,115.0
5482,C2,488.0,0.75,95,115.0
5483,B-2,488.0,0.75,95,115.0
5484,D3,488.75,0.5,95,115.0
5485,C3,489.0,0.5,95,115.0
5486,G1,489.0,0.75,95,115.0
5487,D2,489.0,0.5,95,115.0
5488,B-2,489.0,0.5,95,115.0
5489,D4,489.25,0.75,95,115.0
5490,A3,489.25,0.75,95,115.0
5491,D3,489.25,0.75,95,115.0
5492,C4,489.5,1.0,95,115.0
5493,G3,489.5,1.0,95,115.0
5494,C3,489.5,1.0,95,115.0
5495,C-1,489.5,0.5,95,115.0
5496,C2,489.5,0.5,95,115.0
5497,G1,489.75,1.0,95,115.0
5498,C-1,490.0,0.5,95,115.0
5499,B-2,490.0,0.5,95,115.0
5500,F3,490.25,0.5,95,115.0
5501,C3,490.5,0.5,95,115.0
5502,C2,490.5,0.5,95,115.0
5503,E3,490.75,0.5,95,115.0
5504,G1,490.75,0.5,95,115.0
5505,C4,491.0,0.75,95,115.0
5506,G3,491.0,0.75,95,115.0
5507,C3,491.0,0.75,95,115.0
5508,C-1,491.0,0.75,95,115.0
5509,D2,491.0,0.75,95,115.0
5510,B-2,491.0,0.75,95,115.0
5511,C3,491.25,0.75,95,115.0
5512,G1,491.25,0.75,95,115.0
5513,F3,492.0,0.5,95,115.0
5514,B-2,492.0,0.5,95,115.0
5515,B-2,492.25,0.5,95,115.0
5516,E3,492.5,0.5,95,115.0
5517,C2,492.5,0.5,95,115.0
5518,A2,492.75,0.5,95,115.0
5519,C3,493.0,0.75,95,115.0
5520,C-1,493.0,0.75,95,115.0
5521,D2,493.0,0.75,95,115.0
5522,B-2,493.0,0.75,95,115.0
5523,C#3,493.0,0.75,95,115.0
5524,F2,493.25,0.75,95,115.0
5525,B-2,494.0,0.5,95,115.0
5526,C2,494.0,0.75,95,115.0
5527,B-2,494.0,0.75,95,115.0
5528,C4,494.25,0.75,95,115.0
5529,G3,494.25,0.75,95,115.0
5530,C3,494.25,0.75,95,115.0
5531,A2,494.5,0.5,95,115.0
5532,F2,495.0,0.75,95,115.0
5533,D2,495.0,0.75,95,115.0
5534,B-2,495.0,0.75,95,115.0
5535,C#3,495.0,0.75,95,115.0
5536,C3,495.25,0.5,95,115.0
5537,C4,495.75,1.0,95,115.0
5538,G3,495.75,1.0,95,115.0
5539,C3,495.75,1.0,95,115.0
5540,A1,496.0,0.75,95,115.0
5541,D4,496.0,0.75,95,115.0
5542,A3,496.0,0.75,95,115.0
5543,D3,496.0,0.75,95,115.0
5544,C2,496.0,0.75,95,115.0
5545,B-2,496.0,0.75,95,115.0
5546,C#3,496.0,0.75,95,115.0
5547,C3,496.75,0.5,95,115.0
5548,D3,497.0,0.5,95,115.0
5549,A1,497.0,0.75,95,115.0
5550,D2,497.0,0.5,95,115.0
5551,B-2,497.0,0.5,95,115.0
5552,C4,497.25,0.75,95,115.0
5553,G3,497.25,0.75,95,115.0
5554,C3,497.25,0.75,95,115.0
5555,D4,497.5,1.0,95,115.0
5556,A3,497.5,1.0,95,115.0
5557,D3,497.5,1.0,95,115.0
5558,C-1,497.5,0.5,95,115.0
5559,C2,497.5,0.5,95,115.0
5560,A1,497.75,1.0,95,115.0
5561,C-1,498.0,0.5,95,115.0
5562,B-2,498.0,0.5,95,115.0
5563,C3,498.25,0.5,95,115.0
5564,D3,498.5,0.5,95,115.0
5565,C2,498.5,0.5,95,115.0
5566,A1,498.75,0.5,95,115.0
5567,C4,498.75,0.75,95,115.0
5568,G3,498.75,0.75,95,115.0
5569,C3,498.75,0.75,95,115.0
5570,D4,499.0,0.75,95,115.0
5571,A3,499.0,0.75,95,115.0
5572,D3,499.0,0.75,95,115.0
5573,C-1,499.0,0.75,95,115.0
5574,D2,499.0,0.75,95,115.0
5575,B-2,499.0,0.75,95,115.0
5576,A1,499.25,0.75,95,115.0
5577,C3,499.75,0.5,95,115.0
5578,D3,500.0,0.5,95,115.0
5579,A1,500.0,0.5,95,115.0
5580,B-2,500.0,0.5,95,115.0
5581,C4,500.25,0.75,95,115.0
5582,G3,500.25,0.75,95,115.0
5583,C3,500.25,0.75,95,115.0
5584,A1,500.5,0.75,95,115.0
5585,C2,500.5,0.5,95,115.0
5586,D4,500.5,0.75,95,115.0
5587,A3,500.5,0.75,95,115.0
5588,D3,500.5,0.75,95,115.0
5589,C-1,501.0,0.75,95,115.0
5590,D2,501.0,0.75,95,115.0
5591,B-2,501.0,0.75,95,115.0
5592,C4,501.25,0.75,95,115.0
5593,G3,501.25,0.75,95,115.0
5594,C3,501.25,0.75,95,115.0
5595,D3,501.5,0.5,95,115.0
5596,A1,501.5,0.5,95,115.0
5597,A1,502.0,0.75,95,115.0
5598,D4,502.0,0.75,95,115.0
5599,A3,502.0,0.75,95,115.0
5600,D3,502.0,0.75,95,115.0
5601,C2,502.0,0.75,95,115.0
5602,B-2,502.0,0.75,95,115.0
5603,C4,502.25,0.75,95,115.0
5604,G3,502.25,0.75,95,115.0
5605,C3,502.25,0.75,95,115.0
5606,A1,503.0,0.75,95,115.0
5607,D4,503.0,0.75,95,115.0
5608,A3,503.0,0.75,95,115.0
5609,D3,503.0,0.75,95,115.0
5610,D2,503.0,0.75,95,115.0
5611,B-2,503.0,0.75,95,115.0
5612,C3,503.25,0.5,95,115.0
5613,C4,503.75,1.0,95,115.0
5614,G3,503.75,1.0,95,115.0
5615,C3,503.75,1.0,95,115.0
5616,A1,504.0,0.75,95,115.0
5617,D4,504.0,0.75,95,115.0
5618,A3,504.0,0.75,95,115.0
5619,D3,504.0,0.75,95,115.0
5620,C2,504.0,0.75,95,115.0
5621,B-2,504.0,0.75,95,115.0
5622,C3,504.75,0.5,95,115.0
5623,D3,505.0,0.5,95,115.0
5624,A1,505.0,0.75,95,115.0
5625,D2,505.0,0.5,95,115.0
5626,B-2,505.0,0.5,95,115.0
5627,C4,505.25,0.75,95,115.0
5628,G3,505.25,0.75,95,115.0
5629,C3,505.25,0.75,95,115.0
5630,D4,505.5,1.0,95,115.0
5631,A3,505.5,1.0,95,115.0
5632,D3,505.5,1.0,95,115.0
5633,C-1,505.5,0.5,95,115.0
5634,C2,505.5,0.5,95,115.0
5635,A1,505.75,1.0,95,115.0
5636,C-1,506.0,0.5,95,115.0
5637,B-2,506.0,0.5,95,115.0
5638,F3,506.25,0.5,95,115.0
5639,D3,506.5,0.5,95,115.0
5640,C2,506.5,0.5,95,115.0
5641,E3,506.75,0.5,95,115.0
5642,A1,506.75,0.5,95,115.0
5643,D4,507.0,0.75,95,115.0
5644,A3,507.0,0.75,95,115.0
5645,D3,507.0,0.75,95,115.0
5646,C-1,507.0,0.75,95,115.0
5647,D2,507.0,0.75,95,115.0
5648,B-2,507.0,0.75,95,115.0
5649,C3,507.25,0.75,95,115.0
5650,A1,507.25,0.75,95,115.0
5651,F3,508.0,0.5,95,115.0
5652,B-2,508.0,0.5,95,115.0
5653,B-2,508.25,0.5,95,115.0
5654,E3,508.5,0.5,95,115.0
5655,C2,508.5,0.5,95,115.0
5656,A2,508.75,0.5,95,115.0
5657,C3,509.0,0.75,95,115.0
5658,C-1,509.0,0.75,95,115.0
5659,D2,509.0,0.75,95,115.0
5660,B-2,509.0,0.75,95,115.0
5661,C#3,509.0,0.75,95,115.0
5662,F2,509.25,0.75,95,115.0
5663,B-2,510.0,0.5,95,115.0
5664,C2,510.0,0.75,95,115.0
5665,B-2,510.0,0.75,95,115.0
5666,D4,510.25,0.75,95,115.0
5667,A3,510.25,0.75,95,115.0
5668,D3,510.25,0.75,95,115.0
5669,A2,510.5,0.5,95,115.0
5670,F2,511.0,0.75,95,115.0
5671,D2,511.0,0.75,95,115.0
5672,B-2,511.0,0.75,95,115.0
5673,C#3,511.0,0.75,95,115.0
5674,D3,511.25,0.5,95,115.0
5675,D4,511.75,1.0,95,115.0
5676,A3,511.75,1.0,95,115.0
5677,D3,511.75,1.0,95,115.0
5678,G1,512.0,0.75,95,115.0
5679,C4,512.0,0.75,95,115.0
5680,G3,512.0,0.75,95,115.0
5681,C3,512.0,0.75,95,115.0
5682,C2,512.0,0.75,95,115.0
5683,B-2,512.0,0.75,95,115.0
5684,C#3,512.0,0.75,95,115.0
5685,D3,512.75,0.5,95,115.0
5686,C3,513.0,0.5,95,115.0
5687,G1,513.0,0.75,95,115.0
5688,D2,513.0,0.5,95,115.0
5689,B-2,513.0,0.5,95,115.0
5690,D4,513.25,0.75,95,115.0
5691,A3,513.25,0.75,95,115.0
5692,D3,513.25,0.75,95,115.0
5693,C4,513.5,1.0,95,115.0
5694,G3,513.5,1.0,95,115.0
5695,C3,513.5,1.0,95,115.0
5696,C-1,513.5,0.5,95,115.0
5697,C2,513.5,0.5,95,115.0
5698,G1,513.75,1.0,95,115.0
5699,C-1,514.0,0.5,95,115.0
5700,B-2,514.0,0.5,95,115.0
5701,D3,514.25,0.5,95,115.0
5702,C3,514.5,0.5,95,115.0
5703,C2,514.5,0.5,95,115.0
5704,G1,514.75,0.5,95,115.0
5705,D4,514.75,0.75,95,115.0
5706,A3,514.75,0.75,95,115.0
5707,D3,514.75,0.75,95,115.0
5708,C4,515.0,0.75,95,115.0
5709,G3,515.0,0.75,95,115.0
5710,C3,515.0,0.75,95,115.0
5711,C-1,515.0,0.75,95,115.0
5712,D2,515.0,0.75,95,115.0
5713,B-2,515.0,0.75,95,115.0
5714,G1,515.25,0.75,95,115.0
5715,D3,515.75,0.5,95,115.0
5716,C3,516.0,0.5,95,115.0
5717,G1,516.0,0.5,95,115.0
5718,B-2,516.0,0.5,95,115.0
5719,D4,516.25,0.75,95,115.0
5720,A3,516.25,0.75,95,115.0
5721,D3,516.25,0.75,95,115.0
5722,G1,516.5,0.75,95,115.0
5723,C2,516.5,0.5,95,115.0
5724,C4,516.5,0.75,95,115.0
5725,G3,516.5,0.75,95,115.0
5726,C3,516.5,0.75,95,115.0
5727,C-1,517.0,0.75,95,115.0
5728,D2,517.0,0.75,95,115.0
5729,B-2,517.0,0.75,95,115.0
5730,D4,517.25,0.75,95,115.0
5731,A3,517.25,0.75,95,115.0
5732,D3,517.25,0.75,95,115.0
5733,C3,517.5,0.5,95,115.0
5734,G1,517.5,0.5,95,115.0
5735,G1,518.0,0.75,95,115.0
5736,C4,518.0,0.75,95,115.0
5737,G3,518.0,0.75,95,115.0
5738,C3,518.0,0.75,95,115.0
5739,C2,518.0,0.75,95,115.0
5740,B-2,518.0,0.75,95,115.0
5741,D4,518.25,0.75,95,115.0
5742,A3,518.25,0.75,95,115.0
5743,D3,518.25,0.75,95,115.0
5744,G1,519.0,0.75,95,115.0
5745,C4,519.0,0.75,95,115.0
5746,G3,519.0,0.75,95,115.0
5747,C3,519.0,0.75,95,115.0
5748,D2,519.0,0.75,95,115.0
5749,B-2,519.0,0.75,95,115.0
5750,D3,519.25,0.5,95,115.0
5751,D4,519.75,1.0,95,115.0
5752,A3,519.75,1.0,95,115.0
5753,D3,519.75,1.0,95,115.0
5754,G1,520.0,0.75,95,115.0
5755,C4,520.0,0.75,95,115.0
5756,G3,520.0,0.75,95,115.0
5757,C3,520.0,0.75,95,115.0
5758,C2,520.0,0.75,95,115.0
5759,B-2,520.0,0.75,95,115.0
5760,D3,520.75,0.5,95,115.0
5761,C3,521.0,0.5,95,115.0
5762,G1,521.0,0.75,95,115.0
5763,D2,521.0,0.5,95,115.0
5764,B-2,521.0,0.5,95,115.0
5765,D4,521.25,0.75,95,115.0
5766,A3,521.25,0.75,95,115.0
5767,D3,521.25,0.75,95,115.0
5768,C4,521.5,1.0,95,115.0
5769,G3,521.5,1.0,95,115.0
5770,C3,521.5,1.0,95,115.0
5771,C-1,521.5,0.5,95,115.0
5772,C2,521.5,0.5,95,115.0
5773,G1,521.75,1.0,95,115.0
5774,C-1,522.0,0.5,95,115.0
5775,B-2,522.0,0.5,95,115.0
5776,F3,522.25,0.5,95,115.0
5777,C3,522.5,0.5,95,115.0
5778,C2,522.5,0.5,95,115.0
5779,E3,522.75,0.5,95,115.0
5780,G1,522.75,0.5,95,115.0
5781,C4,523.0,0.75,95,115.0
5782,G3,523.0,0.75,95,115.0
5783,C3,523.0,0.75,95,115.0
5784,C-1,523.0,0.75,95,115.0
5785,D2,523.0,0.75,95,115.0
5786,B-2,523.0,0.75,95,115.0
5787,C3,523.25,0.75,95,115.0
5788,G1,523.25,0.75,95,115.0
5789,F3,524.0,0.5,95,115.0
5790,B-2,524.0,0.5,95,115.0
5791,B-2,524.25,0.5,95,115.0
5792,E3,524.5,0.5,95,115.0
5793,C2,524.5,0.5,95,115.0
5794,A2,524.75,0.5,95,115.0
5795,C3,525.0,0.75,95,115.0
5796,C-1,525.0,0.75,95,115.0
5797,D2,525.0,0.75,95,115.0
5798,B-2,525.0,0.75,95,115.0
5799,C#3,525.0,0.75,95,115.0
5800,F2,525.25,0.75,95,115.0
5801,B-2,526.0,0.5,95,115.0
5802,C2,526.0,0.75,95,115.0
5803,B-2,526.0,0.75,95,115.0
5804,C4,526.25,0.75,95,115.0
5805,G3,526.25,0.75,95,115.0
5806,C3,526.25,0.75,95,115.0
5807,A2,526.5,0.5,95,115.0
5808,F2,527.0,0.75,95,115.0
5809,D2,527.0,0.75,95,115.0
5810,B-2,527.0,0.75,95,115.0
5811,C#3,527.0,0.75,95,115.0
5812,C3,527.25,0.5,95,115.0
5813,C4,527.75,1.0,95,115.0
5814,G3,527.75,1.0,95,115.0
5815,C3,527.75,1.0,95,115.0
5816,D5,528.0,333/1000,95,115.0
5817,A1,528.0,0.75,95,115.0
5818,C2,528.0,0.75,95,115.0
5819,B-2,528.0,0.75,95,115.0
5820,C#3,528.0,0.75,95,115.0
5821,B-4,528.333,333/1000,95,115.0
5822,G4,528.667,333/1000,95,115.0
5823,C3,528.75,0.5,95,115.0
5824,D5,529.0,333/1000,95,115.0
5825,A1,529.0,0.75,95,115.0
5826,D2,529.0,0.5,95,115.0
5827,B-2,529.0,0.5,95,115.0
5828,C4,529.25,0.75,95,115.0
5829,G3,529.25,0.75,95,115.0
5830,C3,529.25,0.75,95,115.0
5831,B-4,529.333,333/1000,95,115.0
5832,C-1,529.5,0.5,95,115.0
5833,C2,529.5,0.5,95,115.0
5834,G4,529.667,333/1000,95,115.0
5835,A1,529.75,1.0,95,115.0
5836,D5,530.0,333/1000,95,115.0
5837,C-1,530.0,0.5,95,115.0
5838,B-2,530.0,0.5,95,115.0
5839,C3,530.25,0.5,95,115.0
5840,B-4,530.333,333/1000,95,115.0
5841,C2,530.5,0.5,95,115.0
5842,G4,530.667,333/1000,95,115.0
5843,A1,530.75,0.5,95,115.0
5844,C4,530.75,0.75,95,115.0
5845,G3,530.75,0.75,95,115.0
5846,C3,530.75,0.75,95,115.0
5847,D5,531.0,333/1000,95,115.0
5848,C-1,531.0,0.75,95,115.0
5849,D2,531.0,0.75,95,115.0
5850,B-2,531.0,0.75,95,115.0
5851,A1,531.25,0.75,95,115.0
5852,B-4,531.333,333/1000,95,115.0
5853,G4,531.667,333/1000,95,115.0
5854,C3,531.75,0.5,95,115.0
5855,D5,532.0,333/1000,95,115.0
5856,A1,532.0,0.5,95,115.0
5857,B-2,532.0,0.5,95,115.0
5858,C4,532.25,0.75,95,115.0
5859,G3,532.25,0.75,95,115.0
5860,C3,532.25,0.75,95,115.0
5861,B-4,532.333,333/1000,95,115.0
5862,A1,532.5,0.75,95,115.0
5863,C2,532.5,0.5,95,115.0
5864,G4,532.667,333/1000,95,115.0
5865,D5,533.0,333/1000,95,115.0
5866,C-1,533.0,0.75,95,115.0
5867,D2,533.0,0.75,95,115.0
5868,B-2,533.0,0.75,95,115.0
5869,C4,533.25,0.75,95,115.0
5870,G3,533.25,0.75,95,115.0
5871,C3,533.25,0.75,95,115.0
5872,B-4,533.333,333/1000,95,115.0
5873,A1,533.5,0.5,95,115.0
5874,G4,533.667,333/1000,95,115.0
5875,D5,534.0,333/1000,95,115.0
5876,A1,534.0,0.75,95,115.0
5877,C2,534.0,0.75,95,115.0
5878,B-2,534.0,0.75,95,115.0
5879,C4,534.25,0.75,95,115.0
5880,G3,534.25,0.75,95,115.0
5881,C3,534.25,0.75,95,115.0
5882,B-4,534.333,333/1000,95,115.0
5883,G4,534.667,333/1000,95,115.0
5884,D5,535.0,333/1000,95,115.0
5885,A1,535.0,0.75,95,115.0
5886,D2,535.0,0.75,95,115.0
5887,B-2,535.0,0.75,95,115.0
5888,C3,535.25,0.5,95,115.0
5889,B-4,535.333,333/1000,95,115.0
5890,G4,535.667,333/1000,95,115.0
5891,C4,535.75,1.0,95,115.0
5892,G3,535.75,1.0,95,115.0
5893,C3,535.75,1.0,95,115.0
5894,D5,536.0,333/1000,95,115.0
5895,A1,536.0,0.75,95,115.0
5896,C2,536.0,0.75,95,115.0
5897,B-2,536.0,0.75,95,115.0
5898,B-4,536.333,333/1000,95,115.0
5899,G4,536.667,333/1000,95,115.0
5900,C3,536.75,0.5,95,115.0
5901,D5,537.0,333/1000,95,115.0
5902,A1,537.0,0.75,95,115.0
5903,D2,537.0,0.5,95,115.0
5904,B-2,537.0,0.5,95,115.0
5905,C4,537.25,0.75,95,115.0
5906,G3,537.25,0.75,95,115.0
5907,C3,537.25,0.75,95,115.0
5908,B-4,537.333,333/1000,95,115.0
5909,C-1,537.5,0.5,95,115.0
5910,C2,537.5,0.5,95,115.0
5911,G4,537.667,333/1000,95,115.0
5912,A1,537.75,1.0,95,115.0
5913,D5,538.0,333/1000,95,115.0
5914,C-1,538.0,0.5,95,115.0
5915,B-2,538.0,0.5,95,115.0
5916,F3,538.25,0.5,95,115.0
5917,B-4,538.333,333/1000,95,115.0
5918,C2,538.5,0.5,95,115.0
5919,G4,538.667,333/1000,95,115.0
5920,E3,538.75,0.5,95,115.0
5921,A1,538.75,0.5,95,115.0
5922,D5,539.0,333/1000,95,115.0
5923,C-1,539.0,0.75,95,115.0
5924,D2,539.0,0.75,95,115.0
5925,B-2,539.0,0.75,95,115.0
5926,C3,539.25,0.75,95,115.0
5927,A1,539.25,0.75,95,115.0
5928,B-4,539.333,333/1000,95,115.0
5929,G4,539.667,333/1000,95,115.0
5930,D5,540.0,333/1000,95,115.0
5931,B-2,540.0,0.5,95,115.0
5932,B-2,540.25,0.5,95,115.0
5933,B-4,540.333,333/1000,95,115.0
5934,C2,540.5,0.5,95,115.0
5935,G4,540.667,333/1000,95,115.0
5936,A2,540.75,0.5,95,115.0
5937,D5,541.0,333/1000,95,115.0
5938,C-1,541.0,0.75,95,115.0
5939,D2,541.0,0.75,95,115.0
5940,B-2,541.0,0.75,95,115.0
5941,C#3,541.0,0.75,95,115.0
5942,F2,541.25,0.75,95,115.0
5943,B-4,541.333,333/1000,95,115.0
5944,G4,541.667,333/1000,95,115.0
5945,D5,542.0,333/1000,95,115.0
5946,C2,542.0,0.75,95,115.0
5947,B-2,542.0,0.75,95,115.0
5948,D4,542.25,0.75,95,115.0
5949,A3,542.25,0.75,95,115.0
5950,D3,542.25,0.75,95,115.0
5951,B-4,542.333,333/1000,95,115.0
5952,G4,542.667,333/1000,95,115.0
5953,D5,543.0,333/1000,95,115.0
5954,D2,543.0,0.75,95,115.0
5955,B-2,543.0,0.75,95,115.0
5956,C#3,543.0,0.75,95,115.0
5957,D3,543.25,0.5,95,115.0
5958,B-4,543.333,333/1000,95,115.0
5959,G4,543.667,333/1000,95,115.0
5960,D4,543.75,1.0,95,115.0
5961,A3,543.75,1.0,95,115.0
5962,D3,543.75,1.0,95,115.0
5963,C5,544.0,333/1000,95,115.0
5964,G1,544.0,0.75,95,115.0
5965,C2,544.0,0.75,95,115.0
5966,B-2,544.0,0.75,95,115.0
5967,C#3,544.0,0.75,95,115.0
5968,A4,544.333,333/1000,95,115.0
5969,A3,544.667,333/1000,95,115.0
5970,D3,544.75,0.5,95,115.0
5971,C5,545.0,333/1000,95,115.0
5972,G1,545.0,0.75,95,115.0
5973,D2,545.0,0.5,95,115.0
5974,B-2,545.0,0.5,95,115.0
5975,D4,545.25,0.75,95,115.0
5976,A3,545.25,0.75,95,115.0
5977,D3,545.25,0.75,95,115.0
5978,A4,545.333,333/1000,95,115.0
5979,C-1,545.5,0.5,95,115.0
5980,C2,545.5,0.5,95,115.0
5981,A3,545.667,333/1000,95,115.0
5982,G1,545.75,1.0,95,115.0
5983,C5,546.0,333/1000,95,115.0
5984,C-1,546.0,0.5,95,115.0
5985,B-2,546.0,0.5,95,115.0
5986,D3,546.25,0.5,95,115.0
5987,A4,546.333,333/1000,95,115.0
5988,C2,546.5,0.5,95,115.0
5989,A3,546.667,333/1000,95,115.0
5990,G1,546.75,0.5,95,115.0
5991,D4,546.75,0.75,95,115.0
5992,A3,546.75,0.75,95,115.0
5993,D3,546.75,0.75,95,115.0
5994,C5,547.0,333/1000,95,115.0
5995,C-1,547.0,0.75,95,115.0
5996,D2,547.0,0.75,95,115.0
5997,B-2,547.0,0.75,95,115.0
5998,G1,547.25,0.75,95,115.0
5999,A4,547.333,333/1000,95,115.0
6000,A3,547.667,333/1000,95,115.0
6001,D3,547.75,0.5,95,115.0
6002,C5,548.0,333/1000,95,115.0
6003,G1,548.0,0.5,95,115.0
6004,B-2,548.0,0.5,95,115.0
6005,D4,548.25,0.75,95,115.0
6006,A3,548.25,0.75,95,115.0
6007,D3,548.25,0.75,95,115.0
6008,A4,548.333,333/1000,95,115.0
6009,G1,548.5,0.75,95,115.0
6010,C2,548.5,0.5,95,115.0
6011,A3,548.667,333/1000,95,115.0
6012,C5,549.0,333/1000,95,115.0
6013,C-1,549.0,0.75,95,115.0
6014,D2,549.0,0.75,95,115.0
6015,B-2,549.0,0.75,95,115.0
6016,D4,549.25,0.75,95,115.0
6017,A3,549.25,0.75,95,115.0
6018,D3,549.25,0.75,95,115.0
6019,A4,549.333,333/1000,95,115.0
6020,G1,549.5,0.5,95,115.0
6021,A3,549.667,333/1000,95,115.0
6022,C5,550.0,333/1000,95,115.0
6023,G1,550.0,0.75,95,115.0
6024,C2,550.0,0.75,95,115.0
6025,B-2,550.0,0.75,95,115.0
6026,D4,550.25,0.75,95,115.0
6027,A3,550.25,0.75,95,115.0
6028,D3,550.25,0.75,95,115.0
6029,A4,550.333,333/1000,95,115.0
6030,A3,550.667,333/1000,95,115.0
6031,C5,551.0,333/1000,95,115.0
6032,G1,551.0,0.75,95,115.0
6033,D2,551.0,0.75,95,115.0
6034,B-2,551.0,0.75,95,115.0
6035,D3,551.25,0.5,95,115.0
6036,A4,551.333,333/1000,95,115.0
6037,A3,551.667,333/1000,95,115.0
6038,D4,551.75,1.0,95,115.0
6039,A3,551.75,1.0,95,115.0
6040,D3,551.75,1.0,95,115.0
6041,C5,552.0,333/1000,95,115.0
6042,G1,552.0,0.75,95,115.0
6043,C2,552.0,0.75,95,115.0
6044,B-2,552.0,0.75,95,115.0
6045,A4,552.333,333/1000,95,115.0
6046,A3,552.667,333/1000,95,115.0
6047,D3,552.75,0.5,95,115.0
6048,C5,553.0,333/1000,95,115.0
6049,G1,553.0,0.75,95,115.0
6050,D2,553.0,0.5,95,115.0
6051,B-2,553.0,0.5,95,115.0
6052,D4,553.25,0.75,95,115.0
6053,A3,553.25,0.75,95,115.0
6054,D3,553.25,0.75,95,115.0
6055,A4,553.333,333/1000,95,115.0
6056,C-1,553.5,0.5,95,115.0
6057,C2,553.5,0.5,95,115.0
6058,A3,553.667,333/1000,95,115.0
6059,G1,553.75,1.0,95,115.0
6060,C5,554.0,333/1000,95,115.0
6061,C-1,554.0,0.5,95,115.0
6062,B-2,554.0,0.5,95,115.0
6063,F3,554.25,0.5,95,115.0
6064,A4,554.333,333/1000,95,115.0
6065,C2,554.5,0.5,95,115.0
6066,A3,554.667,333/1000,95,115.0
6067,E3,554.75,0.5,95,115.0
6068,G1,554.75,0.5,95,115.0
6069,C5,555.0,333/1000,95,115.0
6070,C-1,555.0,0.75,95,115.0
6071,D2,555.0,0.75,95,115.0
6072,B-2,555.0,0.75,95,115.0
6073,C3,555.25,0.75,95,115.0
6074,G1,555.25,0.75,95,115.0
6075,A4,555.333,333/1000,95,115.0
6076,A3,555.667,333/1000,95,115.0
6077,F5,556.0,0.5,95,115.0
6078,B-2,556.0,0.5,95,115.0
6079,B-2,556.25,0.5,95,115.0
6080,E5,556.5,0.5,95,115.0
6081,C2,556.5,0.5,95,115.0
6082,A2,556.75,0.5,95,115.0
6083,C5,557.0,0.75,95,115.0
6084,C-1,557.0,0.75,95,115.0
6085,D2,557.0,0.75,95,115.0
6086,B-2,557.0,0.75,95,115.0
6087,C#3,557.0,0.75,95,115.0
6088,F2,557.25,0.75,95,115.0
6089,B-4,558.0,0.5,95,115.0
6090,C2,558.0,0.75,95,115.0
6091,B-2,558.0,0.75,95,115.0
6092,C4,558.25,0.75,95,115.0
6093,G3,558.25,0.75,95,115.0
6094,C3,558.25,0.75,95,115.0
6095,A4,558.5,0.5,95,115.0
6096,F4,559.0,0.75,95,115.0
6097,D2,559.0,0.75,95,115.0
6098,B-2,559.0,0.75,95,115.0
6099,C#3,559.0,0.75,95,115.0
6100,C3,559.25,0.5,95,115.0
6101,C4,559.75,1.0,95,115.0
6102,G3,559.75,1.0,95,115.0
6103,C3,559.75,1.0,95,115.0
6104,B-4,560.0,0.5,95,115.0
6105,A1,560.0,0.75,95,115.0
6106,C2,560.0,0.75,95,115.0
6107,B-2,560.0,0.75,95,115.0
6108,C#3,560.0,0.75,95,115.0
6109,C5,560.5,0.5,95,115.0
6110,C3,560.75,0.5,95,115.0
6111,D5,561.0,0.5,95,115.0
6112,A1,561.0,0.75,95,115.0
6113,D2,561.0,0.5,95,115.0
6114,B-2,561.0,0.5,95,115.0
6115,C4,561.25,0.75,95,115.0
6116,G3,561.25,0.75,95,115.0
6117,C3,561.25,0.75,95,115.0
6118,A4,561.5,0.5,95,115.0
6119,C-1,561.5,0.5,95,115.0
6120,C2,561.5,0.5,95,115.0
6121,A1,561.75,1.0,95,115.0
6122,C5,562.0,1.0,95,115.0
6123,C-1,562.0,0.5,95,115.0
6124,B-2,562.0,0.5,95,115.0
6125,C3,562.25,0.5,95,115.0
6126,C2,562.5,0.5,95,115.0
6127,A1,562.75,0.5,95,115.0
6128,C4,562.75,0.75,95,115.0
6129,G3,562.75,0.75,95,115.0
6130,C3,562.75,0.75,95,115.0
6131,D5,563.0,0.5,95,115.0
6132,C-1,563.0,0.75,95,115.0
6133,D2,563.0,0.75,95,115.0
6134,B-2,563.0,0.75,95,115.0
6135,A1,563.25,0.75,95,115.0
6136,F5,563.5,0.5,95,115.0
6137,C3,563.75,0.5,95,115.0
6138,D5,564.0,0.5,95,115.0
6139,A1,564.0,0.5,95,115.0
6140,B-2,564.0,0.5,95,115.0
6141,C4,564.25,0.75,95,115.0
6142,G3,564.25,0.75,95,115.0
6143,C3,564.25,0.75,95,115.0
6144,A4,564.5,0.5,95,115.0
6145,A1,564.5,0.75,95,115.0
6146,C2,564.5,0.5,95,115.0
6147,D5,565.0,0.5,95,115.0
6148,C-1,565.0,0.75,95,115.0
6149,D2,565.0,0.75,95,115.0
6150,B-2,565.0,0.75,95,115.0
6151,C4,565.25,0.75,95,115.0
6152,G3,565.25,0.75,95,115.0
6153,C3,565.25,0.75,95,115.0
6154,F5,565.5,0.5,95,115.0
6155,A1,565.5,0.5,95,115.0
6156,D5,566.0,0.5,95,115.0
6157,A1,566.0,0.75,95,115.0
6158,C2,566.0,0.75,95,115.0
6159,B-2,566.0,0.75,95,115.0
6160,C4,566.25,0.75,95,115.0
6161,G3,566.25,0.75,95,115.0
6162,C3,566.25,0.75,95,115.0
6163,D5,566.5,0.5,95,115.0
6164,C5,567.0,0.5,95,115.0
6165,A1,567.0,0.75,95,115.0
6166,D2,567.0,0.75,95,115.0
6167,B-2,567.0,0.75,95,115.0
6168,C3,567.25,0.5,95,115.0
6169,D5,567.5,0.5,95,115.0
6170,C4,567.75,1.0,95,115.0
6171,G3,567.75,1.0,95,115.0
6172,C3,567.75,1.0,95,115.0
6173,D5,568.0,0.5,95,115.0
6174,A1,568.0,0.75,95,115.0
6175,C2,568.0,0.75,95,115.0
6176,B-2,568.0,0.75,95,115.0
6177,C5,568.5,0.5,95,115.0
6178,C3,568.75,0.5,95,115.0
6179,C5,569.0,0.5,95,115.0
6180,A1,569.0,0.75,95,115.0
6181,D2,569.0,0.5,95,115.0
6182,B-2,569.0,0.5,95,115.0
6183,C4,569.25,0.75,95,115.0
6184,G3,569.25,0.75,95,115.0
6185,C3,569.25,0.75,95,115.0
6186,A4,569.5,0.5,95,115.0
6187,C-1,569.5,0.5,95,115.0
6188,C2,569.5,0.5,95,115.0
6189,A1,569.75,1.0,95,115.0
6190,C5,570.0,0.5,95,115.0
6191,C-1,570.0,0.5,95,115.0
6192,B-2,570.0,0.5,95,115.0
6193,F3,570.25,0.5,95,115.0
6194,A4,570.5,0.5,95,115.0
6195,C2,570.5,0.5,95,115.0
6196,E3,570.75,0.5,95,115.0
6197,A1,570.75,0.5,95,115.0
6198,A4,571.0,1.0,95,115.0
6199,C-1,571.0,0.75,95,115.0
6200,D2,571.0,0.75,95,115.0
6201,B-2,571.0,0.75,95,115.0
6202,C3,571.25,0.75,95,115.0
6203,A1,571.25,0.75,95,115.0
6204,G4,572.0,0.5,95,115.0
6205,B-2,572.0,0.5,95,115.0
6206,B-2,572.25,0.5,95,115.0
6207,F4,572.5,0.5,95,115.0
6208,C2,572.5,0.5,95,115.0
6209,A2,572.75,0.5,95,115.0
6210,G4,573.0,0.5,95,115.0
6211,C-1,573.0,0.75,95,115.0
6212,D2,573.0,0.75,95,115.0
6213,B-2,573.0,0.75,95,115.0
6214,C#3,573.0,0.75,95,115.0
6215,F2,573.25,0.75,95,115.0
6216,F4,573.5,0.5,95,115.0
6217,F4,574.0,0.5,95,115.0
6218,C2,574.0,0.75,95,115.0
6219,B-2,574.0,0.75,95,115.0
6220,D4,574.25,0.75,95,115.0
6221,A3,574.25,0.75,95,115.0
6222,D3,574.25,0.75,95,115.0
6223,C4,574.5,0.5,95,115.0
6224,A3,575.0,0.5,95,115.0
6225,D2,575.0,0.75,95,115.0
6226,B-2,575.0,0.75,95,115.0
6227,C#3,575.0,0.75,95,115.0
6228,D3,575.25,0.5,95,115.0
6229,D4,575.5,0.5,95,115.0
6230,D4,575.75,1.0,95,115.0
6231,A3,575.75,1.0,95,115.0
6232,D3,575.75,1.0,95,115.0
6233,A3,576.0,0.5,95,115.0
6234,G1,576.0,0.75,95,115.0
6235,C2,576.0,0.75,95,115.0
6236,B-2,576.0,0.75,95,115.0
6237,C#3,576.0,0.75,95,115.0
6238,C4,576.5,0.5,95,115.0
6239,D3,576.75,0.5,95,115.0
6240,A3,577.0,0.25,95,115.0
6241,G1,577.0,0.75,95,115.0
6242,D2,577.0,0.5,95,115.0
6243,B-2,577.0,0.5,95,115.0
6244,G#3,577.25,0.25,50,115.0
6245,D4,577.25,0.75,95,115.0
6246,A3,577.25,0.75,95,115.0
6247,D3,577.25,0.75,95,115.0
6248,G3,577.5,0.25,50,115.0
6249,C-1,577.5,0.5,95,115.0
6250,C2,577.5,0.5,95,115.0
6251,F#3,577.75,0.25,50,115.0
6252,G1,577.75,1.0,95,115.0
6253,F3,578.0,0.25,50,115.0
6254,C-1,578.0,0.5,95,115.0
6255,B-2,578.0,0.5,95,115.0
6256,E3,578.25,0.25,50,115.0
6257,D3,578.25,0.5,95,115.0
6258,E-3,578.5,0.25,50,115.0
6259,C2,578.5,0.5,95,115.0
6260,D3,578.75,0.25,50,115.0
6261,G1,578.75,0.5,95,115.0
6262,D4,578.75,0.75,95,115.0
6263,A3,578.75,0.75,95,115.0
6264,D3,578.75,0.75,95,115.0
6265,A2,579.0,1.0,95,115.0
6266,C-1,579.0,0.75,95,115.0
6267,D2,579.0,0.75,95,115.0
6268,B-2,579.0,0.75,95,115.0
6269,G1,579.25,0.75,95,115.0
6270,D3,579.75,0.5,95,115.0
6271,G1,580.0,0.5,95,115.0
6272,B-2,580.0,0.5,95,115.0
6273,A4,580.0,1.0,95,115.0
6274,F4,580.0,1.0,95,115.0
6275,D4,580.25,0.75,95,115.0
6276,A3,580.25,0.75,95,115.0
6277,D3,580.25,0.75,95,115.0
6278,G1,580.5,0.75,95,115.0
6279,C2,580.5,0.5,95,115.0
6280,D6,581.0,3.0,95,115.0
6281,C-1,581.0,0.75,95,115.0
6282,D2,581.0,0.75,95,115.0
6283,B-2,581.0,0.75,95,115.0
6284,D4,581.25,0.75,95,115.0
6285,A3,581.25,0.75,95,115.0
6286,D3,581.25,0.75,95,115.0
6287,G1,581.5,0.5,95,115.0
6288,G1,582.0,0.75,95,115.0
6289,C2,582.0,0.75,95,115.0
6290,B-2,582.0,0.75,95,115.0
6291,D4,582.25,0.75,95,115.0
6292,A3,582.25,0.75,95,115.0
6293,D3,582.25,0.75,95,115.0
6294,G1,583.0,0.75,95,115.0
6295,D2,583.0,0.75,95,115.0
6296,B-2,583.0,0.75,95,115.0
6297,D3,583.25,0.5,95,115.0
6298,D4,583.75,1.0,95,115.0
6299,A3,583.75,1.0,95,115.0
6300,D3,583.75,1.0,95,115.0
6301,G1,584.0,0.75,95,115.0
6302,D5,584.0,3.0,95,115.0
6303,B-4,584.0,3.0,95,115.0
6304,C2,584.0,0.75,95,115.0
6305,B-2,584.0,0.75,95,115.0
6306,D3,584.75,0.5,95,115.0
6307,G1,585.0,0.75,95,115.0
6308,D2,585.0,0.5,95,115.0
6309,B-2,585.0,0.5,95,115.0
6310,D4,585.25,0.75,95,115.0
6311,A3,585.25,0.75,95,115.0
6312,D3,585.25,0.75,95,115.0
6313,C-1,585.5,0.5,95,115.0
6314,C2,585.5,0.5,95,115.0
6315,G1,585.75,1.0,95,115.0
6316,C-1,586.0,0.5,95,115.0
6317,B-2,586.0,0.5,95,115.0
6318,F3,586.25,0.5,95,115.0
6319,C2,586.5,0.5,95,115.0
6320,E3,586.75,0.5,95,115.0
6321,G1,586.75,0.5,95,115.0
6322,D5,587.0,0.25,95,115.0
6323,B-4,587.0,0.25,95,115.0
6324,C-1,587.0,0.75,95,115.0
6325,D2,587.0,0.75,95,115.0
6326,B-2,587.0,0.75,95,115.0
6327,C3,587.25,0.75,95,115.0
6328,G1,587.25,0.75,95,115.0
6329,C5,587.25,0.25,95,115.0
6330,G#4,587.25,0.25,95,115.0
6331,B-4,587.5,0.25,95,115.0
6332,F4,587.5,0.25,95,115.0
6333,G#4,587.75,0.25,95,115.0
6334,E-4,587.75,0.25,95,115.0
6335,B-2,588.0,0.5,95,115.0
6336,F5,588.0,0.5,95,115.0
6337,C#5,588.0,0.5,95,115.0
6338,B-2,588.25,0.5,95,115.0
6339,C2,588.5,0.5,95,115.0
6340,E5,588.5,0.5,95,115.0
6341,C5,588.5,0.5,95,115.0
6342,A2,588.75,0.5,95,115.0
6343,C5,589.0,0.75,95,115.0
6344,G#4,589.0,0.75,95,115.0
6345,C-1,589.0,0.75,95,115.0
6346,D2,589.0,0.75,95,115.0
6347,B-2,589.0,0.75,95,115.0
6348,C#3,589.0,0.75,95,115.0
6349,F2,589.25,0.75,95,115.0
6350,B-4,590.0,0.5,95,115.0
6351,F4,590.0,0.5,95,115.0
6352,C2,590.0,0.75,95,115.0
6353,B-2,590.0,0.75,95,115.0
6354,C4,590.25,0.75,95,115.0
6355,G3,590.25,0.75,95,115.0
6356,C3,590.25,0.75,95,115.0
6357,A4,590.5,0.5,95,115.0
6358,E4,590.5,0.5,95,115.0
6359,F4,591.0,0.75,95,115.0
6360,C4,591.0,0.75,95,115.0
6361,D2,591.0,0.75,95,115.0
6362,B-2,591.0,0.75,95,115.0
6363,C#3,591.0,0.75,95,115.0
6364,C3,591.25,0.5,95,115.0
6365,C4,591.75,1.0,95,115.0
6366,G3,591.75,1.0,95,115.0
6367,C3,591.75,1.0,95,115.0
6368,A1,592.0,0.75,95,115.0
6369,D4,592.0,0.75,95,115.0
6370,A3,592.0,0.75,95,115.0
6371,D3,592.0,0.75,95,115.0
6372,C2,592.0,0.75,95,115.0
6373,B-2,592.0,0.75,95,115.0
6374,C#3,592.0,0.75,95,115.0
6375,C3,592.75,0.5,95,115.0
6376,D3,593.0,0.5,95,115.0
6377,A1,593.0,0.75,95,115.0
6378,D2,593.0,0.5,95,115.0
6379,B-2,593.0,0.5,95,115.0
6380,C4,593.25,0.75,95,115.0
6381,G3,593.25,0.75,95,115.0
6382,C3,593.25,0.75,95,115.0
6383,D4,593.5,1.0,95,115.0
6384,A3,593.5,1.0,95,115.0
6385,D3,593.5,1.0,95,115.0
6386,C-1,593.5,0.5,95,115.0
6387,C2,593.5,0.5,95,115.0
6388,A1,593.75,1.0,95,115.0
6389,C-1,594.0,0.5,95,115.0
6390,B-2,594.0,0.5,95,115.0
6391,C3,594.25,0.5,95,115.0
6392,D3,594.5,0.5,95,115.0
6393,C2,594.5,0.5,95,115.0
6394,A1,594.75,0.5,95,115.0
6395,C4,594.75,0.75,95,115.0
6396,G3,594.75,0.75,95,115.0
6397,C3,594.75,0.75,95,115.0
6398,D4,595.0,0.75,95,115.0
6399,A3,595.0,0.75,95,115.0
6400,D3,595.0,0.75,95,115.0
6401,C-1,595.0,0.75,95,115.0
6402,D2,595.0,0.75,95,115.0
6403,B-2,595.0,0.75,95,115.0
6404,A1,595.25,0.75,95,115.0
6405,C3,595.75,0.5,95,115.0
6406,D3,596.0,0.5,95,115.0
6407,A1,596.0,0.5,95,115.0
6408,B-2,596.0,0.5,95,115.0
6409,C4,596.25,0.75,95,115.0
6410,G3,596.25,0.75,95,115.0
6411,C3,596.25,0.75,95,115.0
6412,A1,596.5,0.75,95,115.0
6413,C2,596.5,0.5,95,115.0
6414,D4,596.5,0.75,95,115.0
6415,A3,596.5,0.75,95,115.0
6416,D3,596.5,0.75,95,115.0
6417,C-1,597.0,0.75,95,115.0
6418,D2,597.0,0.75,95,115.0
6419,B-2,597.0,0.75,95,115.0
6420,C4,597.25,0.75,95,115.0
6421,G3,597.25,0.75,95,115.0
6422,C3,597.25,0.75,95,115.0
6423,D3,597.5,0.5,95,115.0
6424,A1,597.5,0.5,95,115.0
6425,A1,598.0,0.75,95,115.0
6426,D4,598.0,0.75,95,115.0
6427,A3,598.0,0.75,95,115.0
6428,D3,598.0,0.75,95,115.0
6429,C2,598.0,0.75,95,115.0
6430,B-2,598.0,0.75,95,115.0
6431,C4,598.25,0.75,95,115.0
6432,G3,598.25,0.75,95,115.0
6433,C3,598.25,0.75,95,115.0
6434,A1,599.0,0.75,95,115.0
6435,D4,599.0,0.75,95,115.0
6436,A3,599.0,0.75,95,115.0
6437,D3,599.0,0.75,95,115.0
6438,D2,599.0,0.75,95,115.0
6439,B-2,599.0,0.75,95,115.0
6440,C3,599.25,0.5,95,115.0
6441,C4,599.75,1.0,95,115.0
6442,G3,599.75,1.0,95,115.0
6443,C3,599.75,1.0,95,115.0
6444,A1,600.0,0.75,95,115.0
6445,D4,600.0,0.75,95,115.0
6446,A3,600.0,0.75,95,115.0
6447,D3,600.0,0.75,95,115.0
6448,C2,600.0,0.75,95,115.0
6449,B-2,600.0,0.75,95,115.0
6450,C3,600.75,0.5,95,115.0
6451,D3,601.0,0.5,95,115.0
6452,A1,601.0,0.75,95,115.0
6453,D2,601.0,0.5,95,115.0
6454,B-2,601.0,0.5,95,115.0
6455,C4,601.25,0.75,95,115.0
6456,G3,601.25,0.75,95,115.0
6457,C3,601.25,0.75,95,115.0
6458,D4,601.5,1.0,95,115.0
6459,A3,601.5,1.0,95,115.0
6460,D3,601.5,1.0,95,115.0
6461,C-1,601.5,0.5,95,115.0
6462,C2,601.5,0.5,95,115.0
6463,A1,601.75,1.0,95,115.0
6464,C-1,602.0,0.5,95,115.0
6465,B-2,602.0,0.5,95,115.0
6466,F3,602.25,0.5,95,115.0
6467,D3,602.5,0.5,95,115.0
6468,C2,602.5,0.5,95,115.0
6469,E3,602.75,0.5,95,115.0
6470,A1,602.75,0.5,95,115.0
6471,D4,603.0,0.75,95,115.0
6472,A3,603.0,0.75,95,115.0
6473,D3,603.0,0.75,95,115.0
6474,C-1,603.0,0.75,95,115.0
6475,D2,603.0,0.75,95,115.0
6476,B-2,603.0,0.75,95,115.0
6477,C3,603.25,0.75,95,115.0
6478,A1,603.25,0.75,95,115.0
6479,F3,604.0,0.5,95,115.0
6480,B-2,604.0,0.5,95,115.0
6481,B-2,604.25,0.5,95,115.0
6482,E3,604.5,0.5,95,115.0
6483,C2,604.5,0.5,95,115.0
6484,A2,604.75,0.5,95,115.0
6485,C3,605.0,0.75,95,115.0
6486,C-1,605.0,0.75,95,115.0
6487,D2,605.0,0.75,95,115.0
6488,B-2,605.0,0.75,95,115.0
6489,C#3,605.0,0.75,95,115.0
6490,F2,605.25,0.75,95,115.0
6491,B-2,606.0,0.5,95,115.0
6492,C2,606.0,0.75,95,115.0
6493,B-2,606.0,0.75,95,115.0
6494,C5,606.25,4.0,95,115.0
6495,A2,606.5,0.5,95,115.0
6496,F2,607.0,0.75,95,115.0
6497,D2,607.0,0.75,95,115.0
6498,B-2,607.0,0.75,95,115.0
6499,C#3,607.0,0.75,95,115.0
6500,G1,608.0,0.75,95,115.0
6501,C4,608.0,0.75,95,115.0
6502,G3,608.0,0.75,95,115.0
6503,C3,608.0,0.75,95,115.0
6504,C2,608.0,0.75,95,115.0
6505,B-2,608.0,0.75,95,115.0
6506,C#3,608.0,0.75,95,115.0
6507,C3,609.0,0.5,95,115.0
6508,G1,609.0,0.75,95,115.0
6509,D2,609.0,0.5,95,115.0
6510,B-2,609.0,0.5,95,115.0
6511,C4,609.5,1.0,95,115.0
6512,G3,609.5,1.0,95,115.0
6513,C3,609.5,1.0,95,115.0
6514,C-1,609.5,0.5,95,115.0
6515,C2,609.5,0.5,95,115.0
6516,G1,609.75,1.0,95,115.0
6517,C-1,610.0,0.5,95,115.0
6518,B-2,610.0,0.5,95,115.0
6519,C5,610.25,4.0,50,115.0
6520,G#4,610.25,4.0,50,115.0
6521,C3,610.5,0.5,95,115.0
6522,C2,610.5,0.5,95,115.0
6523,G1,610.75,0.5,95,115.0
6524,C4,611.0,0.75,95,115.0
6525,G3,611.0,0.75,95,115.0
6526,C3,611.0,0.75,95,115.0
6527,C-1,611.0,0.75,95,115.0
6528,D2,611.0,0.75,95,115.0
6529,B-2,611.0,0.75,95,115.0
6530,G1,611.25,0.75,95,115.0
6531,C3,612.0,0.5,95,115.0
6532,G1,612.0,0.5,95,115.0
6533,B-2,612.0,0.5,95,115.0
6534,G1,612.5,0.75,95,115.0
6535,C2,612.5,0.5,95,115.0
6536,C4,612.5,0.75,95,115.0
6537,G3,612.5,0.75,95,115.0
6538,C3,612.5,0.75,95,115.0
6539,C-1,613.0,0.75,95,115.0
6540,D2,613.0,0.75,95,115.0
6541,B-2,613.0,0.75,95,115.0
6542,C3,613.5,0.5,95,115.0
6543,G1,613.5,0.5,95,115.0
6544,G1,614.0,0.75,95,115.0
6545,C4,614.0,0.75,95,115.0
6546,G3,614.0,0.75,95,115.0
6547,C3,614.0,0.75,95,115.0
6548,C2,614.0,0.75,95,115.0
6549,B-2,614.0,0.75,95,115.0
6550,A4,614.25,0.5,95,115.0
6551,G4,614.75,1.5,95,115.0
6552,G1,615.0,0.75,95,115.0
6553,C4,615.0,0.75,95,115.0
6554,G3,615.0,0.75,95,115.0
6555,C3,615.0,0.75,95,115.0
6556,D2,615.0,0.75,95,115.0
6557,B-2,615.0,0.75,95,115.0
6558,G1,616.0,0.75,95,115.0
6559,C4,616.0,0.75,95,115.0
6560,G3,616.0,0.75,95,115.0
6561,C3,616.0,0.75,95,115.0
6562,C2,616.0,0.75,95,115.0
6563,B-2,616.0,0.75,95,115.0
6564,A4,616.25,0.5,95,115.0
6565,G4,616.75,0.5,95,115.0
6566,C3,617.0,0.5,95,115.0
6567,G1,617.0,0.75,95,115.0
6568,D2,617.0,0.5,95,115.0
6569,B-2,617.0,0.5,95,115.0
6570,A4,617.25,0.5,95,115.0
6571,C4,617.5,1.0,95,115.0
6572,G3,617.5,1.0,95,115.0
6573,C3,617.5,1.0,95,115.0
6574,C-1,617.5,0.5,95,115.0
6575,C2,617.5,0.5,95,115.0
6576,G4,617.75,0.5,95,115.0
6577,G1,617.75,1.0,95,115.0
6578,C-1,618.0,0.5,95,115.0
6579,B-2,618.0,0.5,95,115.0
6580,F4,618.25,0.5,95,115.0
6581,C3,618.5,0.5,95,115.0
6582,C2,618.5,0.5,95,115.0
6583,G4,618.75,0.5,95,115.0
6584,G1,618.75,0.5,95,115.0
6585,C4,619.0,0.75,95,115.0
6586,G3,619.0,0.75,95,115.0
6587,C3,619.0,0.75,95,115.0
6588,C-1,619.0,0.75,95,115.0
6589,D2,619.0,0.75,95,115.0
6590,B-2,619.0,0.75,95,115.0
6591,F4,619.25,0.5,95,115.0
6592,G1,619.25,0.75,95,115.0
6593,D4,619.75,0.5,95,115.0
6594,F3,620.0,0.5,95,115.0
6595,B-2,620.0,0.5,95,115.0
6596,C5,620.25,2.0,95,115.0
6597,E3,620.5,0.5,95,115.0
6598,C2,620.5,0.5,95,115.0
6599,C3,621.0,0.75,95,115.0
6600,C-1,621.0,0.75,95,115.0
6601,D2,621.0,0.75,95,115.0
6602,B-2,621.0,0.75,95,115.0
6603,C#3,621.0,0.75,95,115.0
6604,B-2,622.0,0.5,95,115.0
6605,C2,622.0,0.75,95,115.0
6606,B-2,622.0,0.75,95,115.0
6607,A5,622.25,333/1000,95,115.0
6608,A2,622.5,0.5,95,115.0
6609,F5,622.583,333/1000,95,115.0
6610,D5,622.917,333/1000,95,115.0
6611,F2,623.0,0.75,95,115.0
6612,D2,623.0,0.75,95,115.0
6613,B-2,623.0,0.75,95,115.0
6614,C#3,623.0,0.75,95,115.0
6615,B-5,623.25,333/1000,95,115.0
6616,F5,623.583,333/1000,95,115.0
6617,D5,623.917,333/1000,95,115.0
6618,A1,624.0,0.75,95,115.0
6619,D4,624.0,0.75,95,115.0
6620,A3,624.0,0.75,95,115.0
6621,D3,624.0,0.75,95,115.0
6622,C2,624.0,0.75,95,115.0
6623,B-2,624.0,0.75,95,115.0
6624,C#3,624.0,0.75,95,115.0
6625,A5,624.25,333/1000,95,115.0
6626,F5,624.583,333/1000,95,115.0
6627,D5,624.917,333/1000,95,115.0
6628,D3,625.0,0.5,95,115.0
6629,A1,625.0,0.75,95,115.0
6630,D2,625.0,0.5,95,115.0
6631,B-2,625.0,0.5,95,115.0
6632,B-5,625.25,333/1000,95,115.0
6633,D4,625.5,1.0,95,115.0
6634,A3,625.5,1.0,95,115.0
6635,D3,625.5,1.0,95,115.0
6636,C-1,625.5,0.5,95,115.0
6637,C2,625.5,0.5,95,115.0
6638,F5,625.583,333/1000,95,115.0
6639,A1,625.75,1.0,95,115.0
6640,D5,625.917,333/1000,95,115.0
6641,C-1,626.0,0.5,95,115.0
6642,B-2,626.0,0.5,95,115.0
6643,A5,626.25,333/1000,95,115.0
6644,D3,626.5,0.5,95,115.0
6645,C2,626.5,0.5,95,115.0
6646,F5,626.583,333/1000,95,115.0
6647,A1,626.75,0.5,95,115.0
6648,D5,626.917,333/1000,95,115.0
6649,D4,627.0,0.75,95,115.0
6650,A3,627.0,0.75,95,115.0
6651,D3,627.0,0.75,95,115.0
6652,C-1,627.0,0.75,95,115.0
6653,D2,627.0,0.75,95,115.0
6654,B-2,627.0,0.75,95,115.0
6655,B-5,627.25,333/1000,95,115.0
6656,A1,627.25,0.75,95,115.0
6657,F5,627.583,333/1000,95,115.0
6658,D5,627.917,333/1000,95,115.0
6659,D3,628.0,0.5,95,115.0
6660,A1,628.0,0.5,95,115.0
6661,B-2,628.0,0.5,95,115.0
6662,A5,628.25,333/1000,95,115.0
6663,A1,628.5,0.75,95,115.0
6664,C2,628.5,0.5,95,115.0
6665,D4,628.5,0.75,95,115.0
6666,A3,628.5,0.75,95,115.0
6667,D3,628.5,0.75,95,115.0
6668,F5,628.583,333/1000,95,115.0
6669,D5,628.917,333/1000,95,115.0
6670,C-1,629.0,0.75,95,115.0
6671,D2,629.0,0.75,95,115.0
6672,B-2,629.0,0.75,95,115.0
6673,B-5,629.25,333/1000,95,115.0
6674,D3,629.5,0.5,95,115.0
6675,A1,629.5,0.5,95,115.0
6676,F5,629.583,333/1000,95,115.0
6677,D5,629.917,333/1000,95,115.0
6678,A1,630.0,0.75,95,115.0
6679,D4,630.0,0.75,95,115.0
6680,A3,630.0,0.75,95,115.0
6681,D3,630.0,0.75,95,115.0
6682,C2,630.0,0.75,95,115.0
6683,B-2,630.0,0.75,95,115.0
6684,A5,630.25,333/1000,95,115.0
6685,F5,630.583,333/1000,95,115.0
6686,D5,630.917,333/1000,95,115.0
6687,A1,631.0,0.75,95,115.0
6688,D4,631.0,0.75,95,115.0
6689,A3,631.0,0.75,95,115.0
6690,D3,631.0,0.75,95,115.0
6691,D2,631.0,0.75,95,115.0
6692,B-2,631.0,0.75,95,115.0
6693,B-5,631.25,333/1000,95,115.0
6694,F5,631.583,333/1000,95,115.0
6695,D5,631.917,333/1000,95,115.0
6696,A1,632.0,0.75,95,115.0
6697,D4,632.0,0.75,95,115.0
6698,A3,632.0,0.75,95,115.0
6699,D3,632.0,0.75,95,115.0
6700,C2,632.0,0.75,95,115.0
6701,B-2,632.0,0.75,95,115.0
6702,A5,632.25,333/1000,95,115.0
6703,F5,632.583,333/1000,95,115.0
6704,D5,632.917,333/1000,95,115.0
6705,D3,633.0,0.5,95,115.0
6706,A1,633.0,0.75,95,115.0
6707,D2,633.0,0.5,95,115.0
6708,B-2,633.0,0.5,95,115.0
6709,B-5,633.25,333/1000,95,115.0
6710,D4,633.5,1.0,95,115.0
6711,A3,633.5,1.0,95,115.0
6712,D3,633.5,1.0,95,115.0
6713,C-1,633.5,0.5,95,115.0
6714,C2,633.5,0.5,95,115.0
6715,F5,633.583,333/1000,95,115.0
6716,A1,633.75,1.0,95,115.0
6717,D5,633.917,333/1000,95,115.0
6718,C-1,634.0,0.5,95,115.0
6719,B-2,634.0,0.5,95,115.0
6720,E5,634.25,2.0,95,115.0
6721,C5,634.25,2.0,95,115.0
6722,D3,634.5,0.5,95,115.0
6723,C2,634.5,0.5,95,115.0
6724,A1,634.75,0.5,95,115.0
6725,D4,635.0,0.75,95,115.0
6726,A3,635.0,0.75,95,115.0
6727,D3,635.0,0.75,95,115.0
6728,C-1,635.0,0.75,95,115.0
6729,D2,635.0,0.75,95,115.0
6730,B-2,635.0,0.75,95,115.0
6731,A1,635.25,0.75,95,115.0
6732,F3,636.0,0.5,95,115.0
6733,B-2,636.0,0.5,95,115.0
6734,E3,636.5,0.5,95,115.0
6735,C2,636.5,0.5,95,115.0
6736,C5,636.75,0.5,95,115.0
6737,C3,637.0,0.75,95,115.0
6738,C-1,637.0,0.75,95,115.0
6739,D2,637.0,0.75,95,115.0
6740,B-2,637.0,0.75,95,115.0
6741,C#3,637.0,0.75,95,115.0
6742,D5,637.25,0.5,95,115.0
6743,D5,637.75,0.5,95,115.0
6744,B-2,638.0,0.5,95,115.0
6745,C2,638.0,0.75,95,115.0
6746,B-2,638.0,0.75,95,115.0
6747,F5,638.25,0.5,95,115.0
6748,A2,638.5,0.5,95,115.0
6749,D5,638.75,0.5,95,115.0
6750,F2,639.0,0.75,95,115.0
6751,D2,639.0,0.75,95,115.0
6752,B-2,639.0,0.75,95,115.0
6753,C#3,639.0,0.75,95,115.0
6754,C5,639.25,0.5,95,115.0
6755,D5,639.75,0.5,95,115.0
6756,G1,640.0,0.75,95,115.0
6757,C4,640.0,0.75,95,115.0
6758,G3,640.0,0.75,95,115.0
6759,C3,640.0,0.75,95,115.0
6760,C2,640.0,0.75,95,115.0
6761,B-2,640.0,0.75,95,115.0
6762,C#3,640.0,0.75,95,115.0
6763,C5,640.25,0.5,95,115.0
6764,A4,640.75,0.5,95,115.0
6765,C3,641.0,0.5,95,115.0
6766,G1,641.0,0.75,95,115.0
6767,D2,641.0,0.5,95,115.0
6768,B-2,641.0,0.5,95,115.0
6769,G4,641.25,0.5,95,115.0
6770,C4,641.5,1.0,95,115.0
6771,G3,641.5,1.0,95,115.0
6772,C3,641.5,1.0,95,115.0
6773,C-1,641.5,0.5,95,115.0
6774,C2,641.5,0.5,95,115.0
6775,A4,641.75,0.5,95,115.0
6776,G1,641.75,1.0,95,115.0
6777,C-1,642.0,0.5,95,115.0
6778,B-2,642.0,0.5,95,115.0
6779,C5,642.25,0.5,95,115.0
6780,C3,642.5,0.5,95,115.0
6781,C2,642.5,0.5,95,115.0
6782,A4,642.75,0.5,95,115.0
6783,G1,642.75,0.5,95,115.0
6784,C4,643.0,0.75,95,115.0
6785,G3,643.0,0.75,95,115.0
6786,C3,643.0,0.75,95,115.0
6787,C-1,643.0,0.75,95,115.0
6788,D2,643.0,0.75,95,115.0
6789,B-2,643.0,0.75,95,115.0
6790,G4,643.25,0.5,95,115.0
6791,G1,643.25,0.75,95,115.0
6792,A4,643.75,0.5,95,115.0
6793,C3,644.0,0.5,95,115.0
6794,G1,644.0,0.5,95,115.0
6795,B-2,644.0,0.5,95,115.0
6796,G4,644.25,0.5,95,115.0
6797,G1,644.5,0.75,95,115.0
6798,C2,644.5,0.5,95,115.0
6799,C4,644.5,0.75,95,115.0
6800,G3,644.5,0.75,95,115.0
6801,C3,644.5,0.75,95,115.0
6802,F4,644.75,0.5,95,115.0
6803,C-1,645.0,0.75,95,115.0
6804,D2,645.0,0.75,95,115.0
6805,B-2,645.0,0.75,95,115.0
6806,D4,645.25,0.5,95,115.0
6807,C3,645.5,0.5,95,115.0
6808,G1,645.5,0.5,95,115.0
6809,F4,645.75,0.5,95,115.0
6810,G1,646.0,0.75,95,115.0
6811,C4,646.0,0.75,95,115.0
6812,G3,646.0,0.75,95,115.0
6813,C3,646.0,0.75,95,115.0
6814,C2,646.0,0.75,95,115.0
6815,B-2,646.0,0.75,95,115.0
6816,G4,646.25,0.5,95,115.0
6817,F4,646.75,0.5,95,115.0
6818,G1,647.0,0.75,95,115.0
6819,C4,647.0,0.75,95,115.0
6820,G3,647.0,0.75,95,115.0
6821,C3,647.0,0.75,95,115.0
6822,D2,647.0,0.75,95,115.0
6823,B-2,647.0,0.75,95,115.0
6824,D4,647.25,0.5,95,115.0
6825,F4,647.75,0.5,95,115.0
6826,G1,648.0,0.75,95,115.0
6827,C4,648.0,0.75,95,115.0
6828,G3,648.0,0.75,95,115.0
6829,C3,648.0,0.75,95,115.0
6830,C2,648.0,0.75,95,115.0
6831,B-2,648.0,0.75,95,115.0
6832,D4,648.25,1.0,95,115.0
6833,C3,649.0,0.5,95,115.0
6834,G1,649.0,0.75,95,115.0
6835,D2,649.0,0.5,95,115.0
6836,B-2,649.0,0.5,95,115.0
6837,C4,649.25,1.0,95,115.0
6838,C4,649.5,1.0,95,115.0
6839,G3,649.5,1.0,95,115.0
6840,C3,649.5,1.0,95,115.0
6841,C-1,649.5,0.5,95,115.0
6842,C2,649.5,0.5,95,115.0
6843,G1,649.75,1.0,95,115.0
6844,C-1,650.0,0.5,95,115.0
6845,B-2,650.0,0.5,95,115.0
6846,D4,650.25,0.5,95,115.0
6847,C3,650.5,0.5,95,115.0
6848,C2,650.5,0.5,95,115.0
6849,C4,650.75,0.5,95,115.0
6850,G1,650.75,0.5,95,115.0
6851,C4,651.0,0.75,95,115.0
6852,G3,651.0,0.75,95,115.0
6853,C3,651.0,0.75,95,115.0
6854,C-1,651.0,0.75,95,115.0
6855,D2,651.0,0.75,95,115.0
6856,B-2,651.0,0.75,95,115.0
6857,A3,651.25,1.0,95,115.0
6858,G1,651.25,0.75,95,115.0
6859,F3,652.0,0.5,95,115.0
6860,B-2,652.0,0.5,95,115.0
6861,G3,652.25,0.5,95,115.0
6862,E3,652.5,0.5,95,115.0
6863,C2,652.5,0.5,95,115.0
6864,A3,652.75,0.5,95,115.0
6865,C3,653.0,0.75,95,115.0
6866,C-1,653.0,0.75,95,115.0
6867,D2,653.0,0.75,95,115.0
6868,B-2,653.0,0.75,95,115.0
6869,C#3,653.0,0.75,95,115.0
6870,C4,653.25,0.5,95,115.0
6871,F4,653.75,0.5,95,115.0
6872,C4,653.75,0.5,95,115.0
6873,B-2,654.0,0.5,95,115.0
6874,C2,654.0,0.75,95,115.0
6875,B-2,654.0,0.75,95,115.0
6876,A2,654.5,0.5,95,115.0
6877,F2,655.0,0.75,95,115.0
6878,D2,655.0,0.75,95,115.0
6879,B-2,655.0,0.75,95,115.0
6880,C#3,655.0,0.75,95,115.0
6881,F4,655.25,1.0,95,115.0
6882,C4,655.25,1.0,95,115.0
6883,A1,656.0,0.75,95,115.0
6884,D4,656.0,0.75,95,115.0
6885,A3,656.0,0.75,95,115.0
6886,D3,656.0,0.75,95,115.0
6887,C2,656.0,0.75,95,115.0
6888,B-2,656.0,0.75,95,115.0
6889,C#3,656.0,0.75,95,115.0
6890,D4,656.25,0.5,95,115.0
6891,F4,656.75,0.5,95,115.0
6892,D3,657.0,0.5,95,115.0
6893,A1,657.0,0.75,95,115.0
6894,D2,657.0,0.5,95,115.0
6895,B-2,657.0,0.5,95,115.0
6896,G4,657.25,1.0,95,115.0
6897,D4,657.5,1.0,95,115.0
6898,A3,657.5,1.0,95,115.0
6899,D3,657.5,1.0,95,115.0
6900,C-1,657.5,0.5,95,115.0
6901,C2,657.5,0.5,95,115.0
6902,A1,657.75,1.0,95,115.0
6903,C-1,658.0,0.5,95,115.0
6904,B-2,658.0,0.5,95,115.0
6905,G4,658.25,0.5,95,115.0
6906,D3,658.5,0.5,95,115.0
6907,C2,658.5,0.5,95,115.0
6908,F4,658.75,0.5,95,115.0
6909,A1,658.75,0.5,95,115.0
6910,D4,659.0,0.75,95,115.0
6911,A3,659.0,0.75,95,115.0
6912,D3,659.0,0.75,95,115.0
6913,C-1,659.0,0.75,95,115.0
6914,D2,659.0,0.75,95,115.0
6915,B-2,659.0,0.75,95,115.0
6916,D4,659.25,0.5,95,115.0
6917,A1,659.25,0.75,95,115.0
6918,D4,659.75,1.0,95,115.0
6919,D3,660.0,0.5,95,115.0
6920,A1,660.0,0.5,95,115.0
6921,B-2,660.0,0.5,95,115.0
6922,A1,660.5,0.75,95,115.0
6923,C2,660.5,0.5,95,115.0
6924,D4,660.5,0.75,95,115.0
6925,A3,660.5,0.75,95,115.0
6926,D3,660.5,0.75,95,115.0
6927,D4,660.75,0.5,95,115.0
6928,C-1,661.0,0.75,95,115.0
6929,D2,661.0,0.75,95,115.0
6930,B-2,661.0,0.75,95,115.0
6931,B-5,661.25,0.5,95,115.0
6932,D3,661.5,0.5,95,115.0
6933,A1,661.5,0.5,95,115.0
6934,G5,661.75,0.5,95,115.0
6935,A1,662.0,0.75,95,115.0
6936,D4,662.0,0.75,95,115.0
6937,A3,662.0,0.75,95,115.0
6938,D3,662.0,0.75,95,115.0
6939,C2,662.0,0.75,95,115.0
6940,B-2,662.0,0.75,95,115.0
6941,F5,662.25,0.5,95,115.0
6942,G5,662.75,0.5,95,115.0
6943,A1,663.0,0.75,95,115.0
6944,D4,663.0,0.75,95,115.0
6945,A3,663.0,0.75,95,115.0
6946,D3,663.0,0.75,95,115.0
6947,D2,663.0,0.75,95,115.0
6948,B-2,663.0,0.75,95,115.0
6949,F5,663.25,0.5,95,115.0
6950,D5,663.75,0.5,95,115.0
6951,A1,664.0,0.75,95,115.0
6952,D4,664.0,0.75,95,115.0
6953,A3,664.0,0.75,95,115.0
6954,D3,664.0,0.75,95,115.0
6955,C2,664.0,0.75,95,115.0
6956,B-2,664.0,0.75,95,115.0
6957,C#3,664.0,0.75,95,115.0
6958,C5,664.25,0.5,95,115.0
6959,F5,664.75,0.5,95,115.0
6960,D3,665.0,0.5,95,115.0
6961,A1,665.0,0.75,95,115.0
6962,D2,665.0,0.5,95,115.0
6963,B-2,665.0,0.5,95,115.0
6964,D5,665.25,0.5,95,115.0
6965,D4,665.5,1.0,95,115.0
6966,A3,665.5,1.0,95,115.0
6967,D3,665.5,1.0,95,115.0
6968,C-1,665.5,0.5,95,115.0
6969,C2,665.5,0.5,95,115.0
6970,C5,665.75,0.5,95,115.0
6971,A1,665.75,1.0,95,115.0
6972,C-1,666.0,0.5,95,115.0
6973,B-2,666.0,0.5,95,115.0
6974,A4,666.25,0.5,95,115.0
6975,D3,666.5,0.5,95,115.0
6976,C2,666.5,0.5,95,115.0
6977,G#4,666.75,0.5,95,115.0
6978,A1,666.75,0.5,95,115.0
6979,D4,667.0,0.75,95,115.0
6980,A3,667.0,0.75,95,115.0
6981,D3,667.0,0.75,95,115.0
6982,C-1,667.0,0.75,95,115.0
6983,D2,667.0,0.75,95,115.0
6984,B-2,667.0,0.75,95,115.0
6985,G4,667.25,0.5,95,115.0
6986,A1,667.25,0.75,95,115.0
6987,F4,667.75,0.5,95,115.0
6988,D3,668.0,0.5,95,115.0
6989,A1,668.0,0.5,95,115.0
6990,B-2,668.0,0.5,95,115.0
6991,E-4,668.25,0.5,95,115.0
6992,A1,668.5,0.75,95,115.0
6993,C2,668.5,0.5,95,115.0
6994,D4,668.5,0.75,95,115.0
6995,A3,668.5,0.75,95,115.0
6996,D3,668.5,0.75,95,115.0
6997,D4,668.75,0.5,95,115.0
6998,C-1,669.0,0.75,95,115.0
6999,D2,669.0,0.75,95,115.0
7000,B-2,669.0,0.75,95,115.0
7001,C4,669.25,0.5,95,115.0
7002,D3,669.5,0.5,95,115.0
7003,A1,669.5,0.5,95,115.0
7004,B-3,669.75,0.5,95,115.0
7005,A1,670.0,0.75,95,115.0
7006,D4,670.0,0.75,95,115.0
7007,A3,670.0,0.75,95,115.0
7008,D3,670.0,0.75,95,115.0
7009,C2,670.0,0.5,95,115.0
7010,B-2,670.0,0.5,95,115.0
7011,A3,670.25,0.5,95,115.0
7012,C-1,670.5,0.5,95,115.0
7013,D2,670.5,0.5,95,115.0
7014,G3,670.75,0.5,95,115.0
7015,D3,671.0,0.5,95,115.0
7016,A1,671.0,0.5,95,115.0
7017,C-1,671.0,0.5,95,115.0
7018,D2,671.0,0.5,95,115.0
7019,B-2,671.0,0.5,95,115.0
7020,D4,671.25,0.75,95,115.0
7021,A3,671.25,0.75,95,115.0
7022,D3,671.25,0.75,95,115.0
7023,F3,671.5,0.5,95,115.0
7024,C2,671.5,0.5,95,115.0
7025,C-1,671.5,0.5,95,115.0
7026,C2,671.5,0.5,95,115.0
7027,C#3,671.5,0.5,95,115.0
7028,F3,672.0,0.75,95,115.0
7029,C2,672.0,0.75,95,115.0
7030,C-1,672.0,0.5,95,115.0
7031,C2,672.0,0.5,95,115.0
7032,C#3,672.0,0.5,95,115.0
7033,D3,672.25,0.5,95,115.0
7034,C-1,672.5,0.5,95,115.0
7035,D2,672.5,0.5,95,115.0
7036,D4,672.75,1.0,95,115.0
7037,A3,672.75,1.0,95,115.0
7038,D3,672.75,1.0,95,115.0
7039,D3,673.0,0.5,95,115.0
7040,A1,673.0,0.5,95,115.0
7041,C-1,673.0,0.5,95,115.0
7042,D2,673.0,0.5,95,115.0
7043,C3,673.5,1.25,95,115.0
7044,G1,673.5,1.25,95,115.0
7045,C-1,673.5,1.0,95,115.0
7046,C2,673.5,1.0,95,115.0
7047,C#3,673.5,1.0,95,115.0
7048,D3,673.75,0.5,95,115.0
7049,D4,674.25,0.75,95,115.0
7050,A3,674.25,0.75,95,115.0
7051,D3,674.25,0.75,95,115.0
7052,C-1,674.5,0.5,95,115.0
7053,D2,674.5,0.5,95,115.0
7054,D3,675.0,0.5,95,115.0
7055,A1,675.0,0.5,95,115.0
7056,C-1,675.0,0.5,95,115.0
7057,D2,675.0,0.5,95,115.0
7058,D3,675.25,0.5,95,115.0
7059,F3,675.5,0.5,95,115.0
7060,C2,675.5,0.5,95,115.0
7061,C-1,675.5,0.5,95,115.0
7062,C2,675.5,0.5,95,115.0
7063,C#3,675.5,0.5,95,115.0
7064,D4,675.75,0.75,95,115.0
7065,A3,675.75,0.75,95,115.0
7066,D3,675.75,0.75,95,115.0
7067,F3,676.0,0.75,95,115.0
7068,C2,676.0,0.75,95,115.0
7069,C-1,676.5,0.5,95,115.0
7070,C2,676.5,0.5,95,115.0
7071,C#3,676.5,0.5,95,115.0
7072,D3,676.75,0.5,95,115.0
7073,D3,677.0,0.5,95,115.0
7074,A1,677.0,0.5,95,115.0
7075,C-1,677.0,0.5,95,115.0
7076,D2,677.0,0.5,95,115.0
7077,D4,677.25,0.75,95,115.0
7078,A3,677.25,0.75,95,115.0
7079,D3,677.25,0.75,95,115.0
7080,C3,677.5,1.25,95,115.0
7081,G1,677.5,1.25,95,115.0
7082,C-1,677.5,0.5,95,115.0
7083,D2,677.5,0.5,95,115.0
7084,C-1,678.0,1.0,95,115.0
7085,C2,678.0,1.0,95,115.0
7086,C#3,678.0,1.0,95,115.0
7087,D4,678.25,0.75,95,115.0
7088,A3,678.25,0.75,95,115.0
7089,D3,678.25,0.75,95,115.0
7090,D3,679.0,0.5,95,115.0
7091,A1,679.0,0.5,95,115.0
7092,C-1,679.0,0.5,95,115.0
7093,D2,679.0,0.5,95,115.0
7094,D4,679.25,0.75,95,115.0
7095,A3,679.25,0.75,95,115.0
7096,D3,679.25,0.75,95,115.0
7097,A1,679.5,0.5,95,115.0
7098,D4,679.5,0.5,95,115.0
7099,A3,679.5,0.5,95,115.0
7100,D3,679.5,0.5,95,115.0
7101,C-1,679.5,0.5,95,115.0
7102,D2,679.5,0.5,95,115.0
7103,A1,680.0,0.75,95,115.0
7104,D4,680.0,0.75,95,115.0
7105,A3,680.0,0.75,95,115.0
7106,D3,680.0,0.75,95,115.0
7107,C-1,680.0,0.5,95,115.0
7108,C2,680.0,0.5,95,115.0
7109,C#3,680.0,0.5,95,115.0
7110,D3,680.25,0.5,95,115.0
7111,D4,680.75,1.0,95,115.0
7112,A3,680.75,1.0,95,115.0
7113,D3,680.75,1.0,95,115.0
7114,D3,681.0,0.5,95,115.0
7115,A1,681.0,0.75,95,115.0
7116,C-1,681.0,0.5,95,115.0
7117,C2,681.0,0.5,95,115.0
7118,C#3,681.0,0.5,95,115.0
7119,D4,681.5,1.0,95,115.0
7120,A3,681.5,1.0,95,115.0
7121,D3,681.5,1.0,95,115.0
7122,C-1,681.5,0.5,95,115.0
7123,C2,681.5,0.5,95,115.0
7124,D3,681.75,0.5,95,115.0
7125,A1,681.75,1.0,95,115.0
7126,C-1,682.0,0.75,95,115.0
7127,D2,682.0,0.75,95,115.0
7128,B-2,682.0,0.75,95,115.0
7129,D4,682.25,0.75,95,115.0
7130,A3,682.25,0.75,95,115.0
7131,D3,682.25,0.75,95,115.0
7132,D3,682.5,0.5,95,115.0
7133,A1,682.75,0.5,95,115.0
7134,B-2,683.0,0.5,95,115.0
7135,D4,683.0,0.75,95,115.0
7136,A3,683.0,0.75,95,115.0
7137,D3,683.0,0.75,95,115.0
7138,D3,683.25,0.5,95,115.0
7139,A1,683.25,0.75,95,115.0
7140,C2,683.5,0.5,95,115.0
7141,D4,683.75,0.75,95,115.0
7142,A3,683.75,0.75,95,115.0
7143,D3,683.75,0.75,95,115.0
7144,D3,684.0,0.5,95,115.0
7145,A1,684.0,0.5,95,115.0
7146,C-1,684.0,0.75,95,115.0
7147,D2,684.0,0.75,95,115.0
7148,B-2,684.0,0.75,95,115.0
7149,A1,684.5,0.75,95,115.0
7150,D4,684.5,0.75,95,115.0
7151,A3,684.5,0.75,95,115.0
7152,D3,684.5,0.75,95,115.0
7153,D3,684.75,0.5,95,115.0
7154,B-2,685.0,0.5,95,115.0
7155,D4,685.25,0.75,95,115.0
7156,A3,685.25,0.75,95,115.0
7157,D3,685.25,0.75,95,115.0
7158,D3,685.5,0.5,95,115.0
7159,A1,685.5,0.5,95,115.0
7160,C2,685.5,0.5,95,115.0
7161,A1,686.0,0.75,95,115.0
7162,D4,686.0,0.75,95,115.0
7163,A3,686.0,0.75,95,115.0
7164,D3,686.0,0.75,95,115.0
7165,C-1,686.0,0.75,95,115.0
7166,D2,686.0,0.75,95,115.0
7167,B-2,686.0,0.75,95,115.0
7168,D3,686.25,0.5,95,115.0
7169,F3,686.75,0.5,95,115.0
7170,A1,687.0,0.75,95,115.0
7171,D4,687.0,0.75,95,115.0
7172,A3,687.0,0.75,95,115.0
7173,D3,687.0,0.75,95,115.0
7174,C2,687.0,0.75,95,115.0
7175,B-2,687.0,0.75,95,115.0
7176,F3,687.25,0.75,95,115.0
7177,A1,688.0,0.75,95,115.0
7178,D4,688.0,0.75,95,115.0
7179,A3,688.0,0.75,95,115.0
7180,D3,688.0,0.75,95,115.0
7181,D2,688.0,0.75,95,115.0
7182,B-2,688.0,0.75,95,115.0
7183,D3,688.25,0.5,95,115.0
7184,C3,688.75,1.25,95,115.0
7185,D3,689.0,0.5,95,115.0
7186,A1,689.0,0.75,95,115.0
7187,C2,689.0,0.75,95,115.0
7188,B-2,689.0,0.75,95,115.0
7189,C#3,689.0,0.75,95,115.0
7190,D4,689.5,1.0,95,115.0
7191,A3,689.5,1.0,95,115.0
7192,D3,689.5,1.0,95,115.0
7193,A1,689.75,1.0,95,115.0
7194,D2,690.0,0.5,95,115.0
7195,B-2,690.0,0.5,95,115.0
7196,D3,690.25,0.5,95,115.0
7197,D3,690.5,0.5,95,115.0
7198,C-1,690.5,0.5,95,115.0
7199,C2,690.5,0.5,95,115.0
7200,F3,690.75,0.5,95,115.0
7201,A1,690.75,0.5,95,115.0
7202,D4,691.0,0.75,95,115.0
7203,A3,691.0,0.75,95,115.0
7204,D3,691.0,0.75,95,115.0
7205,C-1,691.0,0.5,95,115.0
7206,B-2,691.0,0.5,95,115.0
7207,F3,691.25,0.75,95,115.0
7208,A1,691.25,0.75,95,115.0
7209,C2,691.5,0.5,95,115.0
7210,D3,692.0,0.5,95,115.0
7211,A1,692.0,0.5,95,115.0
7212,C-1,692.0,0.75,95,115.0
7213,D2,692.0,0.75,95,115.0
7214,B-2,692.0,0.75,95,115.0
7215,D3,692.25,0.5,95,115.0
7216,A1,692.5,0.75,95,115.0
7217,D4,692.5,0.75,95,115.0
7218,A3,692.5,0.75,95,115.0
7219,D3,692.5,0.75,95,115.0
7220,C3,692.75,1.25,95,115.0
7221,B-2,693.0,0.5,95,115.0
7222,D3,693.5,0.5,95,115.0
7223,A1,693.5,0.5,95,115.0
7224,C2,693.5,0.5,95,115.0
7225,A1,694.0,0.75,95,115.0
7226,D4,694.0,0.75,95,115.0
7227,A3,694.0,0.75,95,115.0
7228,D3,694.0,0.75,95,115.0
7229,C-1,694.0,0.75,95,115.0
7230,D2,694.0,0.75,95,115.0
7231,B-2,694.0,0.75,95,115.0
7232,D3,694.25,0.5,95,115.0
7233,D4,694.75,0.5,95,115.0
7234,A3,694.75,0.5,95,115.0
7235,D3,694.75,0.5,95,115.0
7236,D3,695.0,0.5,95,115.0
7237,A1,695.0,0.5,95,115.0
7238,C2,695.0,0.5,95,115.0
7239,B-2,695.0,0.5,95,115.0
7240,D4,695.25,0.75,95,115.0
7241,A3,695.25,0.75,95,115.0
7242,D3,695.25,0.75,95,115.0
7243,F3,695.5,0.5,95,115.0
7244,C2,695.5,0.5,95,115.0
7245,C-1,695.5,0.5,95,115.0
7246,D2,695.5,0.5,95,115.0
7247,F3,696.0,0.75,95,115.0
7248,C2,696.0,0.75,95,115.0
7249,C-1,696.0,0.5,95,115.0
7250,D2,696.0,0.5,95,115.0
7251,B-2,696.0,0.5,95,115.0
7252,D3,696.25,0.5,95,115.0
7253,C-1,696.5,0.5,95,115.0
7254,C2,696.5,0.5,95,115.0
7255,C#3,696.5,0.5,95,115.0
7256,D4,696.75,1.0,95,115.0
7257,A3,696.75,1.0,95,115.0
7258,D3,696.75,1.0,95,115.0
7259,D3,697.0,0.5,95,115.0
7260,A1,697.0,0.5,95,115.0
7261,C-1,697.0,0.5,95,115.0
7262,C2,697.0,0.5,95,115.0
7263,C#3,697.0,0.5,95,115.0
7264,C3,697.5,1.25,95,115.0
7265,G1,697.5,1.25,95,115.0
7266,C-1,697.5,0.5,95,115.0
7267,D2,697.5,0.5,95,115.0
7268,D3,697.75,0.5,95,115.0
7269,C-1,698.0,0.5,95,115.0
7270,D2,698.0,0.5,95,115.0
7271,D4,698.25,0.75,95,115.0
7272,A3,698.25,0.75,95,115.0
7273,D3,698.25,0.75,95,115.0
7274,C-1,698.5,1.0,95,115.0
7275,C2,698.5,1.0,95,115.0
7276,C#3,698.5,1.0,95,115.0
7277,D3,699.0,0.5,95,115.0
7278,A1,699.0,0.5,95,115.0
7279,D3,699.25,0.5,95,115.0
7280,F3,699.5,0.5,95,115.0
7281,C2,699.5,0.5,95,115.0
7282,C-1,699.5,0.5,95,115.0
7283,D2,699.5,0.5,95,115.0
7284,D4,699.75,0.75,95,115.0
7285,A3,699.75,0.75,95,115.0
7286,D3,699.75,0.75,95,115.0
7287,F3,700.0,0.75,95,115.0
7288,C2,700.0,0.75,95,115.0
7289,C-1,700.0,0.5,95,115.0
7290,D2,700.0,0.5,95,115.0
7291,C-1,700.5,0.5,95,115.0
7292,C2,700.5,0.5,95,115.0
7293,C#3,700.5,0.5,95,115.0
7294,D3,700.75,0.5,95,115.0
7295,D3,701.0,0.5,95,115.0
7296,A1,701.0,0.5,95,115.0
7297,D4,701.25,0.75,95,115.0
7298,A3,701.25,0.75,95,115.0
7299,D3,701.25,0.75,95,115.0
7300,C3,701.5,1.25,95,115.0
7301,G1,701.5,1.25,95,115.0
7302,C-1,701.5,0.5,95,115.0
7303,C2,701.5,0.5,95,115.0
7304,C#3,701.5,0.5,95,115.0
7305,C-1,702.0,0.5,95,115.0
7306,D2,702.0,0.5,95,115.0
7307,D4,702.25,0.75,95,115.0
7308,A3,702.25,0.75,95,115.0
7309,D3,702.25,0.75,95,115.0
7310,C-1,702.5,0.5,95,115.0
7311,D2,702.5,0.5,95,115.0
7312,D3,703.0,0.5,95,115.0
7313,A1,703.0,0.5,95,115.0
7314,C-1,703.0,1.0,95,115.0
7315,C2,703.0,1.0,95,115.0
7316,C#3,703.0,1.0,95,115.0
7317,D4,703.25,0.75,95,115.0
7318,A3,703.25,0.75,95,115.0
7319,D3,703.25,0.75,95,115.0
7320,A1,703.5,0.5,95,115.0
7321,D4,703.5,0.5,95,115.0
7322,A3,703.5,0.5,95,115.0
7323,D3,703.5,0.5,95,115.0
7324,A1,704.0,0.75,95,115.0
7325,D4,704.0,0.75,95,115.0
7326,A3,704.0,0.75,95,115.0
7327,D3,704.0,0.75,95,115.0
7328,C-1,704.0,0.5,95,115.0
7329,D2,704.0,0.5,95,115.0
7330,D3,704.25,0.5,95,115.0
7331,C-1,704.5,0.5,95,115.0
7332,D2,704.5,0.5,95,115.0
7333,D4,704.75,1.0,95,115.0
7334,A3,704.75,1.0,95,115.0
7335,D3,704.75,1.0,95,115.0
7336,D3,705.0,0.5,95,115.0
7337,A1,705.0,0.75,95,115.0
7338,C-1,705.0,0.5,95,115.0
7339,C2,705.0,0.5,95,115.0
7340,C#3,705.0,0.5,95,115.0
7341,D4,705.5,1.0,95,115.0
7342,A3,705.5,1.0,95,115.0
7343,D3,705.5,1.0,95,115.0
7344,D3,705.75,0.5,95,115.0
7345,A1,705.75,1.0,95,115.0
7346,C-1,706.0,0.5,95,115.0
7347,C2,706.0,0.5,95,115.0
7348,C#3,706.0,0.5,95,115.0
7349,D4,706.25,0.75,95,115.0
7350,A3,706.25,0.75,95,115.0
7351,D3,706.25,0.75,95,115.0
7352,D3,706.5,0.5,95,115.0
7353,C-1,706.5,0.5,95,115.0
7354,C2,706.5,0.5,95,115.0
7355,A1,706.75,0.5,95,115.0
7356,D4,707.0,0.75,95,115.0
7357,A3,707.0,0.75,95,115.0
7358,D3,707.0,0.75,95,115.0
7359,C-1,707.0,0.75,95,115.0
7360,D2,707.0,0.75,95,115.0
7361,B-2,707.0,0.75,95,115.0
7362,D3,707.25,0.5,95,115.0
7363,A1,707.25,0.75,95,115.0
7364,D4,707.75,0.75,95,115.0
7365,A3,707.75,0.75,95,115.0
7366,D3,707.75,0.75,95,115.0
7367,D3,708.0,0.5,95,115.0
7368,A1,708.0,0.5,95,115.0
7369,B-2,708.0,0.5,95,115.0
7370,A1,708.5,0.75,95,115.0
7371,C2,708.5,0.5,95,115.0
7372,D4,708.5,0.75,95,115.0
7373,A3,708.5,0.75,95,115.0
7374,D3,708.5,0.75,95,115.0
7375,D3,708.75,0.5,95,115.0
7376,C-1,709.0,0.75,95,115.0
7377,D2,709.0,0.75,95,115.0
7378,B-2,709.0,0.75,95,115.0
7379,D4,709.25,0.75,95,115.0
7380,A3,709.25,0.75,95,115.0
7381,D3,709.25,0.75,95,115.0
7382,D3,709.5,0.5,95,115.0
7383,A1,709.5,0.5,95,115.0
7384,A1,710.0,0.75,95,115.0
7385,B-2,710.0,0.5,95,115.0
7386,D4,710.0,0.75,95,115.0
7387,A3,710.0,0.75,95,115.0
7388,D3,710.0,0.75,95,115.0
7389,D3,710.25,0.5,95,115.0
7390,C2,710.5,0.5,95,115.0
7391,F3,710.75,0.5,95,115.0
7392,A1,711.0,0.75,95,115.0
7393,D4,711.0,0.75,95,115.0
7394,A3,711.0,0.75,95,115.0
7395,D3,711.0,0.75,95,115.0
7396,C-1,711.0,0.75,95,115.0
7397,D2,711.0,0.75,95,115.0
7398,B-2,711.0,0.75,95,115.0
7399,F3,711.25,0.75,95,115.0
7400,A1,712.0,0.75,95,115.0
7401,D4,712.0,0.75,95,115.0
7402,A3,712.0,0.75,95,115.0
7403,D3,712.0,0.75,95,115.0
7404,C2,712.0,0.75,95,115.0
7405,B-2,712.0,0.75,95,115.0
7406,D3,712.25,0.5,95,115.0
7407,C3,712.75,1.25,95,115.0
7408,D3,713.0,0.5,95,115.0
7409,A1,713.0,0.75,95,115.0
7410,D2,713.0,0.75,95,115.0
7411,B-2,713.0,0.75,95,115.0
7412,D4,713.5,1.0,95,115.0
7413,A3,713.5,1.0,95,115.0
7414,D3,713.5,1.0,95,115.0
7415,A1,713.75,1.0,95,115.0
7416,C2,714.0,0.75,95,115.0
7417,B-2,714.0,0.75,95,115.0
7418,C#3,714.0,0.75,95,115.0
7419,D3,714.25,0.5,95,115.0
7420,D3,714.5,0.5,95,115.0
7421,F3,714.75,0.5,95,115.0
7422,A1,714.75,0.5,95,115.0
7423,D4,715.0,0.75,95,115.0
7424,A3,715.0,0.75,95,115.0
7425,D3,715.0,0.75,95,115.0
7426,D2,715.0,0.5,95,115.0
7427,B-2,715.0,0.5,95,115.0
7428,F3,715.25,0.75,95,115.0
7429,A1,715.25,0.75,95,115.0
7430,C-1,715.5,0.5,95,115.0
7431,C2,715.5,0.5,95,115.0
7432,D3,716.0,0.5,95,115.0
7433,A1,716.0,0.5,95,115.0
7434,C-1,716.0,0.5,95,115.0
7435,B-2,716.0,0.5,95,115.0
7436,D3,716.25,0.5,95,115.0
7437,A1,716.5,0.75,95,115.0
7438,C2,716.5,0.5,95,115.0
7439,D4,716.5,0.75,95,115.0
7440,A3,716.5,0.75,95,115.0
7441,D3,716.5,0.75,95,115.0
7442,C3,716.75,1.25,95,115.0
7443,C-1,717.0,0.75,95,115.0
7444,D2,717.0,0.75,95,115.0
7445,B-2,717.0,0.75,95,115.0
7446,D3,717.5,0.5,95,115.0
7447,A1,717.5,0.5,95,115.0
7448,A1,718.0,0.75,95,115.0
7449,B-2,718.0,0.5,95,115.0
7450,D4,718.0,0.75,95,115.0
7451,A3,718.0,0.75,95,115.0
7452,D3,718.0,0.75,95,115.0
7453,D3,718.25,0.5,95,115.0
7454,C2,718.5,0.5,95,115.0
7455,D4,718.75,0.5,95,115.0
7456,A3,718.75,0.5,95,115.0
7457,D3,718.75,0.5,95,115.0
7458,D3,719.0,0.5,95,115.0
7459,A1,719.0,0.5,95,115.0
7460,C-1,719.0,0.75,95,115.0
7461,D2,719.0,0.75,95,115.0
7462,B-2,719.0,0.75,95,115.0
7463,D4,719.25,0.75,95,115.0
7464,A3,719.25,0.75,95,115.0
7465,D3,719.25,0.75,95,115.0
7466,F3,719.5,0.5,95,115.0
7467,C2,719.5,0.5,95,115.0
7468,F3,720.0,0.75,95,115.0
7469,C2,720.0,0.75,95,115.0
7470,C2,720.0,0.5,95,115.0
7471,B-2,720.0,0.5,95,115.0
7472,D3,720.25,0.5,95,115.0
7473,C-1,720.5,0.5,95,115.0
7474,D2,720.5,0.5,95,115.0
7475,D4,720.75,1.0,95,115.0
7476,A3,720.75,1.0,95,115.0
7477,D3,720.75,1.0,95,115.0
7478,D3,721.0,0.5,95,115.0
7479,A1,721.0,0.5,95,115.0
7480,C-1,721.0,0.5,95,115.0
7481,D2,721.0,0.5,95,115.0
7482,B-2,721.0,0.5,95,115.0
7483,C3,721.5,1.25,95,115.0
7484,G1,721.5,1.25,95,115.0
7485,C-1,721.5,0.5,95,115.0
7486,C2,721.5,0.5,95,115.0
7487,C#3,721.5,0.5,95,115.0
7488,D3,721.75,0.5,95,115.0
7489,C-1,722.0,0.5,95,115.0
7490,C2,722.0,0.5,95,115.0
7491,C#3,722.0,0.5,95,115.0
7492,D4,722.25,0.75,95,115.0
7493,A3,722.25,0.75,95,115.0
7494,D3,722.25,0.75,95,115.0
7495,C-1,722.5,0.5,95,115.0
7496,D2,722.5,0.5,95,115.0
7497,D3,723.0,0.5,95,115.0
7498,A1,723.0,0.5,95,115.0
7499,C-1,723.0,0.5,95,115.0
7500,D2,723.0,0.5,95,115.0
7501,D3,723.25,0.5,95,115.0
7502,F3,723.5,0.5,95,115.0
7503,C2,723.5,0.5,95,115.0
7504,C-1,723.5,1.0,95,115.0
7505,C2,723.5,1.0,95,115.0
7506,C#3,723.5,1.0,95,115.0
7507,D4,723.75,0.75,95,115.0
7508,A3,723.75,0.75,95,115.0
7509,D3,723.75,0.75,95,115.0
7510,F3,724.0,0.75,95,115.0
7511,C2,724.0,0.75,95,115.0
7512,C-1,724.5,0.5,95,115.0
7513,D2,724.5,0.5,95,115.0
7514,D3,724.75,0.5,95,115.0
7515,D3,725.0,0.5,95,115.0
7516,A1,725.0,0.5,95,115.0
7517,C-1,725.0,0.5,95,115.0
7518,D2,725.0,0.5,95,115.0
7519,D4,725.25,0.75,95,115.0
7520,A3,725.25,0.75,95,115.0
7521,D3,725.25,0.75,95,115.0
7522,C3,725.5,1.25,95,115.0
7523,G1,725.5,1.25,95,115.0
7524,C-1,725.5,0.5,95,115.0
7525,C2,725.5,0.5,95,115.0
7526,C#3,725.5,0.5,95,115.0
7527,D4,726.25,0.75,95,115.0
7528,A3,726.25,0.75,95,115.0
7529,D3,726.25,0.75,95,115.0
7530,C-1,726.5,0.5,95,115.0
7531,C2,726.5,0.5,95,115.0
7532,C#3,726.5,0.5,95,115.0
7533,D3,727.0,0.5,95,115.0
7534,A1,727.0,0.5,95,115.0
7535,C-1,727.0,0.5,95,115.0
7536,D2,727.0,0.5,95,115.0
7537,D4,727.25,0.75,95,115.0
7538,A3,727.25,0.75,95,115.0
7539,D3,727.25,0.75,95,115.0
7540,A1,727.5,0.5,95,115.0
7541,D4,727.5,0.5,95,115.0
7542,A3,727.5,0.5,95,115.0
7543,D3,727.5,0.5,95,115.0
7544,C-1,727.5,0.5,95,115.0
7545,D2,727.5,0.5,95,115.0
7546,A1,728.0,0.75,95,115.0
7547,D4,728.0,0.75,95,115.0
7548,A3,728.0,0.75,95,115.0
7549,D3,728.0,0.75,95,115.0
7550,C-1,728.0,1.0,95,115.0
7551,C2,728.0,1.0,95,115.0
7552,C#3,728.0,1.0,95,115.0
7553,D3,728.25,0.5,95,115.0
7554,D4,728.75,1.0,95,115.0
7555,A3,728.75,1.0,95,115.0
7556,D3,728.75,1.0,95,115.0
7557,D3,729.0,0.5,95,115.0
7558,A1,729.0,0.75,95,115.0
7559,C-1,729.0,0.5,95,115.0
7560,D2,729.0,0.5,95,115.0
7561,D4,729.5,1.0,95,115.0
7562,A3,729.5,1.0,95,115.0
7563,D3,729.5,1.0,95,115.0
7564,C-1,729.5,0.5,95,115.0
7565,D2,729.5,0.5,95,115.0
7566,D3,729.75,0.5,95,115.0
7567,A1,729.75,1.0,95,115.0
7568,C-1,730.0,0.5,95,115.0
7569,C2,730.0,0.5,95,115.0
7570,C#3,730.0,0.5,95,115.0
7571,D4,730.25,0.75,95,115.0
7572,A3,730.25,0.75,95,115.0
7573,D3,730.25,0.75,95,115.0
7574,D3,730.5,0.5,95,115.0
7575,A1,730.75,0.5,95,115.0
7576,D4,731.0,0.75,95,115.0
7577,A3,731.0,0.75,95,115.0
7578,D3,731.0,0.75,95,115.0
7579,C-1,731.0,0.5,95,115.0
7580,C2,731.0,0.5,95,115.0
7581,C#3,731.0,0.5,95,115.0
7582,D3,731.25,0.5,95,115.0
7583,A1,731.25,0.75,95,115.0
7584,C-1,731.5,0.5,95,115.0
7585,C2,731.5,0.5,95,115.0
7586,D4,731.75,0.75,95,115.0
7587,A3,731.75,0.75,95,115.0
7588,D3,731.75,0.75,95,115.0
7589,D3,732.0,0.5,95,115.0
7590,A1,732.0,0.5,95,115.0
7591,C-1,732.0,0.75,95,115.0
7592,D2,732.0,0.75,95,115.0
7593,B-2,732.0,0.75,95,115.0
7594,A1,732.5,0.75,95,115.0
7595,D4,732.5,0.75,95,115.0
7596,A3,732.5,0.75,95,115.0
7597,D3,732.5,0.75,95,115.0
7598,D3,732.75,0.5,95,115.0
7599,B-2,733.0,0.5,95,115.0
7600,D4,733.25,0.75,95,115.0
7601,A3,733.25,0.75,95,115.0
7602,D3,733.25,0.75,95,115.0
7603,D3,733.5,0.5,95,115.0
7604,A1,733.5,0.5,95,115.0
7605,C2,733.5,0.5,95,115.0
7606,A1,734.0,0.75,95,115.0
7607,D4,734.0,0.75,95,115.0
7608,A3,734.0,0.75,95,115.0
7609,D3,734.0,0.75,95,115.0
7610,C-1,734.0,0.75,95,115.0
7611,D2,734.0,0.75,95,115.0
7612,B-2,734.0,0.75,95,115.0
7613,D3,734.25,0.5,95,115.0
7614,F3,734.75,0.5,95,115.0
7615,A1,735.0,0.75,95,115.0
7616,B-2,735.0,0.5,95,115.0
7617,D4,735.0,0.75,95,115.0
7618,A3,735.0,0.75,95,115.0
7619,D3,735.0,0.75,95,115.0
7620,F3,735.25,0.75,95,115.0
7621,C2,735.5,0.5,95,115.0
7622,A1,736.0,0.75,95,115.0
7623,D4,736.0,0.75,95,115.0
7624,A3,736.0,0.75,95,115.0
7625,D3,736.0,0.75,95,115.0
7626,C-1,736.0,0.75,95,115.0
7627,D2,736.0,0.75,95,115.0
7628,B-2,736.0,0.75,95,115.0
7629,D3,736.25,0.5,95,115.0
7630,C3,736.75,1.25,95,115.0
7631,D3,737.0,0.5,95,115.0
7632,A1,737.0,0.75,95,115.0
7633,C2,737.0,0.75,95,115.0
7634,B-2,737.0,0.75,95,115.0
7635,D4,737.5,1.0,95,115.0
7636,A3,737.5,1.0,95,115.0
7637,D3,737.5,1.0,95,115.0
7638,A1,737.75,1.0,95,115.0
7639,D2,738.0,0.75,95,115.0
7640,B-2,738.0,0.75,95,115.0
7641,D3,738.25,0.5,95,115.0
7642,D3,738.5,0.5,95,115.0
7643,F3,738.75,0.5,95,115.0
7644,A1,738.75,0.5,95,115.0
7645,D4,739.0,0.75,95,115.0
7646,A3,739.0,0.75,95,115.0
7647,D3,739.0,0.75,95,115.0
7648,C2,739.0,0.75,95,115.0
7649,B-2,739.0,0.75,95,115.0
7650,C#3,739.0,0.75,95,115.0
7651,F3,739.25,0.75,95,115.0
7652,A1,739.25,0.75,95,115.0
7653,D3,740.0,0.5,95,115.0
7654,A1,740.0,0.5,95,115.0
7655,D2,740.0,0.5,95,115.0
7656,B-2,740.0,0.5,95,115.0
7657,D3,740.25,0.5,95,115.0
7658,A1,740.5,0.75,95,115.0
7659,D4,740.5,0.75,95,115.0
7660,A3,740.5,0.75,95,115.0
7661,D3,740.5,0.75,95,115.0
7662,C-1,740.5,0.5,95,115.0
7663,C2,740.5,0.5,95,115.0
7664,C3,740.75,1.25,95,115.0
7665,C-1,741.0,0.5,95,115.0
7666,B-2,741.0,0.5,95,115.0
7667,D3,741.5,0.5,95,115.0
7668,A1,741.5,0.5,95,115.0
7669,C2,741.5,0.5,95,115.0
7670,A1,742.0,0.75,95,115.0
7671,D4,742.0,0.75,95,115.0
7672,A3,742.0,0.75,95,115.0
7673,D3,742.0,0.75,95,115.0
7674,C-1,742.0,0.75,95,115.0
7675,D2,742.0,0.75,95,115.0
7676,B-2,742.0,0.75,95,115.0
7677,D3,742.25,0.5,95,115.0
7678,D4,742.75,0.5,95,115.0
7679,A3,742.75,0.5,95,115.0
7680,D3,742.75,0.5,95,115.0
7681,D3,743.0,0.5,95,115.0
7682,A1,743.0,0.5,95,115.0
7683,B-2,743.0,0.5,95,115.0
7684,D4,743.25,0.75,95,115.0
7685,A3,743.25,0.75,95,115.0
7686,D3,743.25,0.75,95,115.0
7687,F3,743.5,0.5,95,115.0
7688,C2,743.5,0.5,95,115.0
7689,C2,743.5,0.5,95,115.0
7690,F3,744.0,0.75,95,115.0
7691,C2,744.0,0.75,95,115.0
7692,C-1,744.0,0.75,95,115.0
7693,D2,744.0,0.75,95,115.0
7694,B-2,744.0,0.75,95,115.0
7695,D3,744.25,0.5,95,115.0
7696,D4,744.75,1.0,95,115.0
7697,A3,744.75,1.0,95,115.0
7698,D3,744.75,1.0,95,115.0
7699,D3,745.0,0.5,95,115.0
7700,A1,745.0,0.5,95,115.0
7701,C2,745.0,0.5,95,115.0
7702,B-2,745.0,0.5,95,115.0
7703,C3,745.5,1.25,95,115.0
7704,G1,745.5,1.25,95,115.0
7705,C-1,745.5,0.5,95,115.0
7706,D2,745.5,0.5,95,115.0
7707,D3,745.75,0.5,95,115.0
7708,C-1,746.0,0.5,95,115.0
7709,D2,746.0,0.5,95,115.0
7710,B-2,746.0,0.5,95,115.0
7711,D4,746.25,0.75,95,115.0
7712,A3,746.25,0.75,95,115.0
7713,D3,746.25,0.75,95,115.0
7714,C-1,746.5,0.5,95,115.0
7715,C2,746.5,0.5,95,115.0
7716,C#3,746.5,0.5,95,115.0
7717,D3,747.0,0.5,95,115.0
7718,A1,747.0,0.5,95,115.0
7719,C-1,747.0,0.5,95,115.0
7720,C2,747.0,0.5,95,115.0
7721,C#3,747.0,0.5,95,115.0
7722,D3,747.25,0.5,95,115.0
7723,F3,747.5,0.5,95,115.0
7724,C2,747.5,0.5,95,115.0
7725,C-1,747.5,0.5,95,115.0
7726,D2,747.5,0.5,95,115.0
7727,D4,747.75,0.75,95,115.0
7728,A3,747.75,0.75,95,115.0
7729,D3,747.75,0.75,95,115.0
7730,F3,748.0,0.75,95,115.0
7731,C2,748.0,0.75,95,115.0
7732,C-1,748.0,0.5,95,115.0
7733,D2,748.0,0.5,95,115.0
7734,C-1,748.5,1.0,95,115.0
7735,C2,748.5,1.0,95,115.0
7736,C#3,748.5,1.0,95,115.0
7737,D3,748.75,0.5,95,115.0
7738,D3,749.0,0.5,95,115.0
7739,A1,749.0,0.5,95,115.0
7740,D4,749.25,0.75,95,115.0
7741,A3,749.25,0.75,95,115.0
7742,D3,749.25,0.75,95,115.0
7743,C3,749.5,1.25,95,115.0
7744,G1,749.5,1.25,95,115.0
7745,C-1,749.5,0.5,95,115.0
7746,D2,749.5,0.5,95,115.0
7747,C-1,750.0,0.5,95,115.0
7748,D2,750.0,0.5,95,115.0
7749,D4,750.25,0.75,95,115.0
7750,A3,750.25,0.75,95,115.0
7751,D3,750.25,0.75,95,115.0
7752,C-1,750.5,0.5,95,115.0
7753,C2,750.5,0.5,95,115.0
7754,C#3,750.5,0.5,95,115.0
7755,D3,751.0,0.5,95,115.0
7756,A1,751.0,0.5,95,115.0
7757,D4,751.25,0.75,95,115.0
7758,A3,751.25,0.75,95,115.0
7759,D3,751.25,0.75,95,115.0
7760,A1,751.5,0.5,95,115.0
7761,D4,751.5,0.5,95,115.0
7762,A3,751.5,0.5,95,115.0
7763,D3,751.5,0.5,95,115.0
7764,C-1,751.5,0.5,95,115.0
7765,C2,751.5,0.5,95,115.0
7766,C#3,751.5,0.5,95,115.0
7767,A1,752.0,0.75,95,115.0
7768,D4,752.0,0.75,95,115.0
7769,A3,752.0,0.75,95,115.0
7770,D3,752.0,0.75,95,115.0
7771,C-1,752.0,0.5,95,115.0
7772,D2,752.0,0.5,95,115.0
7773,D3,752.25,0.5,95,115.0
7774,C-1,752.5,0.5,95,115.0
7775,D2,752.5,0.5,95,115.0
7776,D4,752.75,1.0,95,115.0
7777,A3,752.75,1.0,95,115.0
7778,D3,752.75,1.0,95,115.0
7779,D3,753.0,0.5,95,115.0
7780,A1,753.0,0.75,95,115.0
7781,C-1,753.0,1.0,95,115.0
7782,C2,753.0,1.0,95,115.0
7783,C#3,753.0,1.0,95,115.0
7784,D4,753.5,1.0,95,115.0
7785,A3,753.5,1.0,95,115.0
7786,D3,753.5,1.0,95,115.0
7787,D3,753.75,0.5,95,115.0
7788,A1,753.75,1.0,95,115.0
7789,C-1,754.0,0.5,95,115.0
7790,D2,754.0,0.5,95,115.0
7791,D4,754.25,0.75,95,115.0
7792,A3,754.25,0.75,95,115.0
7793,D3,754.25,0.75,95,115.0
7794,D3,754.5,0.5,95,115.0
7795,C-1,754.5,0.5,95,115.0
7796,D2,754.5,0.5,95,115.0
7797,A1,754.75,0.5,95,115.0
7798,D4,755.0,0.75,95,115.0
7799,A3,755.0,0.75,95,115.0
7800,D3,755.0,0.75,95,115.0
7801,C-1,755.0,0.5,95,115.0
7802,C2,755.0,0.5,95,115.0
7803,C#3,755.0,0.5,95,115.0
7804,D3,755.25,0.5,95,115.0
7805,A1,755.25,0.75,95,115.0
7806,D4,755.75,0.75,95,115.0
7807,A3,755.75,0.75,95,115.0
7808,D3,755.75,0.75,95,115.0
7809,D3,756.0,0.5,95,115.0
7810,A1,756.0,0.5,95,115.0
7811,C-1,756.25,0.75,95,115.0
7812,C2,756.25,0.75,95,115.0
7813,C#3,756.25,0.75,95,115.0
7814,A1,756.5,0.75,95,115.0
7815,D4,756.5,0.75,95,115.0
7816,A3,756.5,0.75,95,115.0
7817,D3,756.5,0.75,95,115.0
7818,D3,756.75,0.5,95,115.0
7819,D4,757.25,0.75,95,115.0
7820,A3,757.25,0.75,95,115.0
7821,D3,757.25,0.75,95,115.0
7822,D2,757.25,0.5,95,115.0
7823,B-2,757.25,0.5,95,115.0
7824,D3,757.5,0.5,95,115.0
7825,A1,757.5,0.5,95,115.0
7826,C-1,757.75,0.5,95,115.0
7827,C2,757.75,0.5,95,115.0
7828,A1,758.0,0.75,95,115.0
7829,D4,758.0,0.75,95,115.0
7830,A3,758.0,0.75,95,115.0
7831,D3,758.0,0.75,95,115.0
7832,D3,758.25,0.5,95,115.0
7833,C-1,758.25,0.5,95,115.0
7834,B-2,758.25,0.5,95,115.0
7835,F3,758.75,0.5,95,115.0
7836,C2,758.75,0.5,95,115.0
7837,A1,759.0,0.75,95,115.0
7838,D4,759.0,0.75,95,115.0
7839,A3,759.0,0.75,95,115.0
7840,D3,759.0,0.75,95,115.0
7841,F3,759.25,0.75,95,115.0
7842,C-1,759.25,0.75,95,115.0
7843,D2,759.25,0.75,95,115.0
7844,B-2,759.25,0.75,95,115.0
7845,A1,760.0,0.75,95,115.0
7846,D4,760.0,0.75,95,115.0
7847,A3,760.0,0.75,95,115.0
7848,D3,760.0,0.75,95,115.0
7849,D3,760.25,0.5,95,115.0
7850,B-2,760.25,0.5,95,115.0
7851,C3,760.75,1.25,95,115.0
7852,C2,760.75,0.5,95,115.0
7853,D3,761.0,0.5,95,115.0
7854,A1,761.0,0.75,95,115.0
7855,C-1,761.25,0.75,95,115.0
7856,D2,761.25,0.75,95,115.0
7857,B-2,761.25,0.75,95,115.0
7858,D4,761.5,1.0,95,115.0
7859,A3,761.5,1.0,95,115.0
7860,D3,761.5,1.0,95,115.0
7861,A1,761.75,1.0,95,115.0
7862,D3,762.25,0.5,95,115.0
7863,C2,762.25,0.75,95,115.0
7864,B-2,762.25,0.75,95,115.0
7865,D3,762.5,0.5,95,115.0
7866,F3,762.75,0.5,95,115.0
7867,A1,762.75,0.5,95,115.0
7868,D4,763.0,0.75,95,115.0
7869,A3,763.0,0.75,95,115.0
7870,D3,763.0,0.75,95,115.0
7871,F3,763.25,0.75,95,115.0
7872,A1,763.25,0.75,95,115.0
7873,D2,763.25,0.75,95,115.0
7874,B-2,763.25,0.75,95,115.0
7875,A1,764.0,0.75,95,115.0
7876,D4,764.0,0.75,95,115.0
7877,A3,764.0,0.75,95,115.0
7878,D3,764.0,0.75,95,115.0
7879,D3,764.25,0.5,95,115.0
7880,C2,764.25,0.75,95,115.0
7881,B-2,764.25,0.75,95,115.0
7882,C#3,764.25,0.75,95,115.0
7883,C3,764.75,1.25,95,115.0
7884,D3,765.0,0.5,95,115.0
7885,A1,765.0,0.75,95,115.0
7886,D2,765.25,0.5,95,115.0
7887,B-2,765.25,0.5,95,115.0
7888,D4,765.5,1.0,95,115.0
7889,A3,765.5,1.0,95,115.0
7890,D3,765.5,1.0,95,115.0
7891,A1,765.75,1.0,95,115.0
7892,C-1,765.75,0.5,95,115.0
7893,C2,765.75,0.5,95,115.0
7894,D3,766.25,0.5,95,115.0
7895,C-1,766.25,0.5,95,115.0
7896,B-2,766.25,0.5,95,115.0
7897,D3,766.5,0.5,95,115.0
7898,A1,766.75,0.5,95,115.0
7899,C2,766.75,0.5,95,115.0
7900,D4,766.75,0.5,95,115.0
7901,A3,766.75,0.5,95,115.0
7902,D3,766.75,0.5,95,115.0
7903,D4,767.0,0.75,95,115.0
7904,A3,767.0,0.75,95,115.0
7905,D3,767.0,0.75,95,115.0
7906,A1,767.25,0.75,95,115.0
7907,D4,767.25,0.75,95,115.0
7908,A3,767.25,0.75,95,115.0
7909,D3,767.25,0.75,95,115.0
7910,C-1,767.25,0.75,95,115.0
7911,D2,767.25,0.75,95,115.0
7912,B-2,767.25,0.75,95,115.0
7913,D3,768.0,0.5,95,115.0
7914,D3,768.25,0.5,95,115.0
7915,C2,768.25,0.75,95,115.0
7916,B-2,768.25,0.75,95,115.0
7917,C#3,768.25,0.75,95,115.0
7918,E3,768.5,0.5,95,115.0
7919,D4,768.75,1.0,95,115.0
7920,A3,768.75,1.0,95,115.0
7921,D3,768.75,1.0,95,115.0
7922,F3,769.0,0.5,95,115.0
7923,D2,769.25,0.5,95,115.0
7924,B-2,769.25,0.5,95,115.0
7925,E3,769.5,0.5,95,115.0
7926,D3,769.75,0.5,95,115.0
7927,C-1,769.75,0.5,95,115.0
7928,C2,769.75,0.5,95,115.0
7929,F3,770.0,0.5,95,115.0
7930,D4,770.25,0.75,95,115.0
7931,A3,770.25,0.75,95,115.0
7932,D3,770.25,0.75,95,115.0
7933,C-1,770.25,0.5,95,115.0
7934,B-2,770.25,0.5,95,115.0
7935,G3,770.5,0.5,95,115.0
7936,C2,770.75,0.5,95,115.0
7937,F3,771.0,0.5,95,115.0
7938,D3,771.25,0.5,95,115.0
7939,C-1,771.25,0.75,95,115.0
7940,D2,771.25,0.75,95,115.0
7941,B-2,771.25,0.75,95,115.0
7942,E3,771.5,0.5,95,115.0
7943,D4,771.75,0.75,95,115.0
7944,A3,771.75,0.75,95,115.0
7945,D3,771.75,0.75,95,115.0
7946,A3,772.0,1.0,95,115.0
7947,C-1,772.25,0.75,95,115.0
7948,C2,772.25,0.75,95,115.0
7949,B-2,772.25,0.75,95,115.0
7950,C#3,772.25,0.75,95,115.0
7951,D3,772.75,0.5,95,115.0
7952,F3,773.0,0.5,95,115.0
7953,D4,773.25,0.75,95,115.0
7954,A3,773.25,0.75,95,115.0
7955,D3,773.25,0.75,95,115.0
7956,D2,773.25,0.75,95,115.0
7957,B-2,773.25,0.75,95,115.0
7958,E3,773.5,0.5,95,115.0
7959,F3,774.0,0.5,95,115.0
7960,D4,774.25,0.75,95,115.0
7961,A3,774.25,0.75,95,115.0
7962,D3,774.25,0.75,95,115.0
7963,C2,774.25,0.5,95,115.0
7964,B-2,774.25,0.5,95,115.0
7965,E3,774.5,0.5,95,115.0
7966,C-1,774.75,0.5,95,115.0
7967,C2,774.75,0.5,95,115.0
7968,D3,775.0,1.0,95,115.0
7969,D4,775.25,0.75,95,115.0
7970,A3,775.25,0.75,95,115.0
7971,D3,775.25,0.75,95,115.0
7972,C-1,775.25,0.75,95,115.0
7973,D2,775.25,0.75,95,115.0
7974,B-2,775.25,0.75,95,115.0
7975,D3,776.0,0.5,95,115.0
7976,D3,776.25,0.5,95,115.0
7977,C2,776.25,0.5,95,115.0
7978,B-2,776.25,0.5,95,115.0
7979,D3,776.5,0.5,95,115.0
7980,D4,776.75,1.0,95,115.0
7981,A3,776.75,1.0,95,115.0
7982,D3,776.75,1.0,95,115.0
7983,C-1,776.75,0.5,95,115.0
7984,C2,776.75,0.5,95,115.0
7985,E3,777.0,0.5,95,115.0
7986,C-1,777.25,0.75,95,115.0
7987,D2,777.25,0.75,95,115.0
7988,B-2,777.25,0.75,95,115.0
7989,D3,777.5,0.5,95,115.0
7990,D3,777.75,0.5,95,115.0
7991,E3,778.0,0.5,95,115.0
7992,D4,778.25,0.75,95,115.0
7993,A3,778.25,0.75,95,115.0
7994,D3,778.25,0.75,95,115.0
7995,C2,778.25,0.5,95,115.0
7996,B-2,778.25,0.5,95,115.0
7997,F3,778.5,0.5,95,115.0
7998,C-1,778.75,0.5,95,115.0
7999,C2,778.75,0.5,95,115.0
8000,E3,779.0,0.5,95,115.0
8001,D4,779.25,0.75,95,115.0
8002,A3,779.25,0.75,95,115.0
8003,D3,779.25,0.75,95,115.0
8004,C-1,779.25,0.75,95,115.0
8005,D2,779.25,0.75,95,115.0
8006,B-2,779.25,0.75,95,115.0
8007,G3,779.5,0.5,95,115.0
8008,A3,780.0,1.0,95,115.0
8009,D3,780.25,0.5,95,115.0
8010,C2,780.25,0.75,95,115.0
8011,B-2,780.25,0.75,95,115.0
8012,D4,780.75,1.0,95,115.0
8013,A3,780.75,1.0,95,115.0
8014,D3,780.75,1.0,95,115.0
8015,F3,781.0,0.5,95,115.0
8016,D2,781.25,0.75,95,115.0
8017,B-2,781.25,0.75,95,115.0
8018,E3,781.5,0.5,95,115.0
8019,D3,781.75,0.5,95,115.0
8020,F3,782.0,0.5,95,115.0
8021,D4,782.25,0.75,95,115.0
8022,A3,782.25,0.75,95,115.0
8023,D3,782.25,0.75,95,115.0
8024,C2,782.25,0.5,95,115.0
8025,B-2,782.25,0.5,95,115.0
8026,E3,782.5,0.5,95,115.0
8027,C-1,782.75,0.5,95,115.0
8028,C2,782.75,0.5,95,115.0
8029,D3,783.0,1.0,95,115.0
8030,D3,783.25,0.5,95,115.0
8031,C-1,783.25,0.75,95,115.0
8032,D2,783.25,0.75,95,115.0
8033,B-2,783.25,0.75,95,115.0
8034,E3,783.75,0.5,95,115.0
8035,D3,784.0,0.5,95,115.0
8036,F3,784.25,0.5,95,115.0
8037,C2,784.25,0.5,95,115.0
8038,B-2,784.25,0.5,95,115.0
8039,E3,784.5,0.5,95,115.0
8040,E3,784.75,0.5,95,115.0
8041,C-1,784.75,0.5,95,115.0
8042,C2,784.75,0.5,95,115.0
8043,F3,785.0,0.5,95,115.0
8044,F3,785.25,0.5,95,115.0
8045,C-1,785.25,0.75,95,115.0
8046,D2,785.25,0.75,95,115.0
8047,B-2,785.25,0.75,95,115.0
8048,E3,785.5,0.5,95,115.0
8049,G3,785.75,0.5,95,115.0
8050,F3,786.0,0.5,95,115.0
8051,F3,786.25,0.5,95,115.0
8052,C2,786.25,0.5,95,115.0
8053,B-2,786.25,0.5,95,115.0
8054,G3,786.5,0.5,95,115.0
8055,E3,786.75,0.5,95,115.0
8056,C-1,786.75,0.5,95,115.0
8057,C2,786.75,0.5,95,115.0
8058,F3,787.0,0.5,95,115.0
8059,A3,787.25,1.0,95,115.0
8060,C-1,787.25,0.75,95,115.0
8061,D2,787.25,0.75,95,115.0
8062,B-2,787.25,0.75,95,115.0
8063,E3,787.5,0.5,95,115.0
8064,A3,788.0,1.0,95,115.0
8065,F3,788.25,0.5,95,115.0
8066,C2,788.25,0.75,95,115.0
8067,B-2,788.25,0.75,95,115.0
8068,E3,788.75,0.5,95,115.0
8069,F3,789.0,0.5,95,115.0
8070,F3,789.25,0.5,95,115.0
8071,D2,789.25,0.75,95,115.0
8072,B-2,789.25,0.75,95,115.0
8073,E3,789.5,0.5,95,115.0
8074,E3,789.75,0.5,95,115.0
8075,F3,790.0,0.5,95,115.0
8076,D3,790.25,1.0,95,115.0
8077,C2,790.25,0.5,95,115.0
8078,B-2,790.25,0.5,95,115.0
8079,E3,790.5,0.5,95,115.0
8080,C-1,790.75,0.5,95,115.0
8081,C2,790.75,0.5,95,115.0
8082,D3,791.0,1.0,95,115.0
8083,D3,791.25,0.5,95,115.0
8084,C-1,791.25,0.75,95,115.0
8085,D2,791.25,0.75,95,115.0
8086,B-2,791.25,0.75,95,115.0
8087,D3,791.75,0.5,95,115.0
8088,D3,792.0,0.5,95,115.0
8089,E3,792.25,0.5,95,115.0
8090,C2,792.25,0.5,95,115.0
8091,B-2,792.25,0.5,95,115.0
8092,D3,792.5,0.5,95,115.0
8093,D3,792.75,0.5,95,115.0
8094,C-1,792.75,0.5,95,115.0
8095,C2,792.75,0.5,95,115.0
8096,E3,793.0,0.5,95,115.0
8097,E3,793.25,0.5,95,115.0
8098,C-1,793.25,0.75,95,115.0
8099,D2,793.25,0.75,95,115.0
8100,B-2,793.25,0.75,95,115.0
8101,D3,793.5,0.5,95,115.0
8102,F3,793.75,0.5,95,115.0
8103,E3,794.0,0.5,95,115.0
8104,E3,794.25,0.5,95,115.0
8105,C2,794.25,0.5,95,115.0
8106,B-2,794.25,0.5,95,115.0
8107,F3,794.5,0.5,95,115.0
8108,G3,794.75,0.5,95,115.0
8109,C-1,794.75,0.5,95,115.0
8110,C2,794.75,0.5,95,115.0
8111,E3,795.0,0.5,95,115.0
8112,A3,795.25,1.0,95,115.0
8113,C-1,795.25,0.75,95,115.0
8114,D2,795.25,0.75,95,115.0
8115,B-2,795.25,0.75,95,115.0
8116,G3,795.5,0.5,95,115.0
8117,A3,796.0,1.0,95,115.0
8118,F3,796.25,0.5,95,115.0
8119,C2,796.25,0.75,95,115.0
8120,B-2,796.25,0.75,95,115.0
8121,E3,796.75,0.5,95,115.0
8122,F3,797.0,0.5,95,115.0
8123,F3,797.25,0.5,95,115.0
8124,D2,797.25,0.75,95,115.0
8125,B-2,797.25,0.75,95,115.0
8126,E3,797.5,0.5,95,115.0
8127,E3,797.75,0.5,95,115.0
8128,F3,798.0,0.5,95,115.0
8129,D3,798.25,1.0,95,115.0
8130,C2,798.25,0.5,95,115.0
8131,B-2,798.25,0.5,95,115.0
8132,E3,798.5,0.5,95,115.0
8133,C-1,798.75,0.5,95,115.0
8134,C2,798.75,0.5,95,115.0
8135,D3,799.0,1.0,95,115.0
8136,D3,799.25,0.5,95,115.0
8137,C-1,799.25,0.75,95,115.0
8138,D2,799.25,0.75,95,115.0
8139,B-2,799.25,0.75,95,115.0
8140,E3,799.75,0.5,95,115.0
8141,D3,800.0,0.5,95,115.0
8142,F3,800.25,0.5,95,115.0
8143,C2,800.25,0.5,95,115.0
8144,B-2,800.25,0.5,95,115.0
8145,E3,800.5,0.5,95,115.0
8146,E3,800.75,0.5,95,115.0
8147,C-1,800.75,0.5,95,115.0
8148,C2,800.75,0.5,95,115.0
8149,F3,801.0,0.5,95,115.0
8150,F3,801.25,0.5,95,115.0
8151,C-1,801.25,0.75,95,115.0
8152,D2,801.25,0.75,95,115.0
8153,B-2,801.25,0.75,95,115.0
8154,E3,801.5,0.5,95,115.0
8155,G3,801.75,0.5,95,115.0
8156,F3,802.0,0.5,95,115.0
8157,F3,802.25,0.5,95,115.0
8158,C2,802.25,0.5,95,115.0
8159,B-2,802.25,0.5,95,115.0
8160,G3,802.5,0.5,95,115.0
8161,E3,802.75,0.5,95,115.0
8162,C-1,802.75,0.5,95,115.0
8163,C2,802.75,0.5,95,115.0
8164,F3,803.0,0.5,95,115.0
8165,A3,803.25,1.0,95,115.0
8166,C-1,803.25,0.75,95,115.0
8167,D2,803.25,0.75,95,115.0
8168,B-2,803.25,0.75,95,115.0
8169,E3,803.5,0.5,95,115.0
8170,A3,804.0,1.0,95,115.0
8171,F3,804.25,0.5,95,115.0
8172,C2,804.25,0.75,95,115.0
8173,B-2,804.25,0.75,95,115.0
8174,E3,804.75,0.5,95,115.0
8175,F3,805.0,0.5,95,115.0
8176,F3,805.25,0.5,95,115.0
8177,D2,805.25,0.75,95,115.0
8178,B-2,805.25,0.75,95,115.0
8179,E3,805.5,0.5,95,115.0
8180,E3,805.75,0.5,95,115.0
8181,F3,806.0,0.5,95,115.0
8182,D3,806.25,1.0,95,115.0
8183,C2,806.25,0.5,95,115.0
8184,B-2,806.25,0.5,95,115.0
8185,E3,806.5,0.5,95,115.0
8186,C-1,806.75,0.5,95,115.0
8187,C2,806.75,0.5,95,115.0
8188,D3,807.0,1.0,95,115.0
8189,D3,807.25,0.5,95,115.0
8190,C-1,807.25,0.75,95,115.0
8191,D2,807.25,0.75,95,115.0
8192,B-2,807.25,0.75,95,115.0
8193,D3,807.75,0.5,95,115.0
8194,D3,808.0,0.5,95,115.0
8195,E3,808.25,0.5,95,115.0
8196,C2,808.25,0.5,95,115.0
8197,B-2,808.25,0.5,95,115.0
8198,D3,808.5,0.5,95,115.0
8199,D3,808.75,0.5,95,115.0
8200,C-1,808.75,0.5,95,115.0
8201,C2,808.75,0.5,95,115.0
8202,E3,809.0,0.5,95,115.0
8203,E3,809.25,0.5,95,115.0
8204,C-1,809.25,0.75,95,115.0
8205,D2,809.25,0.75,95,115.0
8206,B-2,809.25,0.75,95,115.0
8207,D3,809.5,0.5,95,115.0
8208,F3,809.75,0.5,95,115.0
8209,E3,810.0,0.5,95,115.0
8210,E3,810.25,0.5,95,115.0
8211,C2,810.25,0.5,95,115.0
8212,B-2,810.25,0.5,95,115.0
8213,F3,810.5,0.5,95,115.0
8214,G3,810.75,0.5,95,115.0
8215,C-1,810.75,0.5,95,115.0
8216,C2,810.75,0.5,95,115.0
8217,E3,811.0,0.5,95,115.0
8218,A3,811.25,1.0,95,115.0
8219,C-1,811.25,0.75,95,115.0
8220,D2,811.25,0.75,95,115.0
8221,B-2,811.25,0.75,95,115.0
8222,G3,811.5,0.5,95,115.0
8223,A3,812.0,1.0,95,115.0
8224,F3,812.25,0.5,95,115.0
8225,C2,812.25,0.75,95,115.0
8226,B-2,812.25,0.75,95,115.0
8227,E3,812.75,0.5,95,115.0
8228,F3,813.0,0.5,95,115.0
8229,F3,813.25,0.5,95,115.0
8230,D2,813.25,0.75,95,115.0
8231,B-2,813.25,0.75,95,115.0
8232,E3,813.5,0.5,95,115.0
8233,E3,813.75,0.5,95,115.0
8234,F3,814.0,0.5,95,115.0
8235,D3,814.25,1.0,95,115.0
8236,C2,814.25,0.5,95,115.0
8237,B-2,814.25,0.5,95,115.0
8238,E3,814.5,0.5,95,115.0
8239,C-1,814.75,0.5,95,115.0
8240,C2,814.75,0.5,95,115.0
8241,D3,815.0,1.0,95,115.0
8242,F3,815.25,0.5,95,115.0
8243,C-1,815.25,0.75,95,115.0
8244,D2,815.25,0.75,95,115.0
8245,B-2,815.25,0.75,95,115.0
8246,G3,815.75,0.5,95,115.0
8247,D3,816.0,0.5,95,115.0
8248,A3,816.25,0.5,95,115.0
8249,C2,816.25,0.5,95,115.0
8250,B-2,816.25,0.5,95,115.0
8251,E3,816.5,0.5,95,115.0
8252,E3,816.5,0.5,95,115.0
8253,G3,816.75,0.5,95,115.0
8254,C-1,816.75,0.5,95,115.0
8255,C2,816.75,0.5,95,115.0
8256,F3,817.0,0.5,95,115.0
8257,A3,817.25,0.5,95,115.0
8258,C-1,817.25,0.75,95,115.0
8259,D2,817.25,0.75,95,115.0
8260,B-2,817.25,0.75,95,115.0
8261,E3,817.5,0.5,95,115.0
8262,B-3,817.75,0.5,95,115.0
8263,F3,818.0,0.5,95,115.0
8264,A3,818.25,0.5,95,115.0
8265,C2,818.25,0.5,95,115.0
8266,B-2,818.25,0.5,95,115.0
8267,G3,818.5,0.5,95,115.0
8268,G3,818.75,0.5,95,115.0
8269,C-1,818.75,0.5,95,115.0
8270,C2,818.75,0.5,95,115.0
8271,F3,819.0,0.5,95,115.0
8272,C4,819.25,1.0,95,115.0
8273,C-1,819.25,0.75,95,115.0
8274,D2,819.25,0.75,95,115.0
8275,B-2,819.25,0.75,95,115.0
8276,E3,819.5,0.5,95,115.0
8277,A3,820.0,1.0,95,115.0
8278,A3,820.25,0.5,95,115.0
8279,C2,820.25,0.75,95,115.0
8280,B-2,820.25,0.75,95,115.0
8281,G3,820.75,0.5,95,115.0
8282,F3,821.0,0.5,95,115.0
8283,A3,821.25,0.5,95,115.0
8284,D2,821.25,0.75,95,115.0
8285,B-2,821.25,0.75,95,115.0
8286,E3,821.5,0.5,95,115.0
8287,G3,821.75,0.5,95,115.0
8288,F3,822.0,0.5,95,115.0
8289,F3,822.25,1.0,95,115.0
8290,C2,822.25,0.5,95,115.0
8291,B-2,822.25,0.5,95,115.0
8292,E3,822.5,0.5,95,115.0
8293,C-1,822.75,0.5,95,115.0
8294,C2,822.75,0.5,95,115.0
8295,D3,823.0,1.0,95,115.0
8296,F3,823.25,0.5,95,115.0
8297,C-1,823.25,0.75,95,115.0
8298,D2,823.25,0.75,95,115.0
8299,B-2,823.25,0.75,95,115.0
8300,F3,823.75,0.5,95,115.0
8301,D3,824.0,0.5,95,115.0
8302,G3,824.25,0.5,95,115.0
8303,C2,824.25,0.5,95,115.0
8304,B-2,824.25,0.5,95,115.0
8305,D3,824.5,0.5,95,115.0
8306,F3,824.75,0.5,95,115.0
8307,C-1,824.75,0.5,95,115.0
8308,C2,824.75,0.5,95,115.0
8309,E3,825.0,0.5,95,115.0
8310,G3,825.25,0.5,95,115.0
8311,C-1,825.25,0.75,95,115.0
8312,D2,825.25,0.75,95,115.0
8313,B-2,825.25,0.75,95,115.0
8314,D3,825.5,0.5,95,115.0
8315,A3,825.75,0.5,95,115.0
8316,E3,826.0,0.5,95,115.0
8317,G3,826.25,0.5,95,115.0
8318,C2,826.25,0.5,95,115.0
8319,B-2,826.25,0.5,95,115.0
8320,F3,826.5,0.5,95,115.0
8321,B-3,826.75,0.5,95,115.0
8322,C-1,826.75,0.5,95,115.0
8323,C2,826.75,0.5,95,115.0
8324,E3,827.0,0.5,95,115.0
8325,C4,827.25,1.0,95,115.0
8326,C-1,827.25,0.75,95,115.0
8327,D2,827.25,0.75,95,115.0
8328,B-2,827.25,0.75,95,115.0
8329,G3,827.5,0.5,95,115.0
8330,A3,828.0,1.0,95,115.0
8331,A3,828.25,0.5,95,115.0
8332,C2,828.25,0.75,95,115.0
8333,B-2,828.25,0.75,95,115.0
8334,G3,828.75,0.5,95,115.0
8335,F3,829.0,0.5,95,115.0
8336,A3,829.25,0.5,95,115.0
8337,D2,829.25,0.75,95,115.0
8338,B-2,829.25,0.75,95,115.0
8339,E3,829.5,0.5,95,115.0
8340,G3,829.75,0.5,95,115.0
8341,F3,830.0,0.5,95,115.0
8342,F3,830.25,1.0,95,115.0
8343,C2,830.25,0.5,95,115.0
8344,B-2,830.25,0.5,95,115.0
8345,E3,830.5,0.5,95,115.0
8346,C-1,830.75,0.5,95,115.0
8347,C2,830.75,0.5,95,115.0
8348,D3,831.0,1.0,95,115.0
8349,F3,831.25,0.5,95,115.0
8350,C-1,831.25,0.75,95,115.0
8351,D2,831.25,0.75,95,115.0
8352,B-2,831.25,0.75,95,115.0
8353,G3,831.75,0.5,95,115.0
8354,D3,832.0,0.5,95,115.0
8355,G1,832.0,0.5,95,115.0
8356,A3,832.25,0.5,95,115.0
8357,C2,832.25,0.5,95,115.0
8358,B-2,832.25,0.5,95,115.0
8359,E3,832.5,0.5,95,115.0
8360,A1,832.5,0.5,95,115.0
8361,G3,832.75,0.5,95,115.0
8362,C-1,832.75,0.5,95,115.0
8363,C2,832.75,0.5,95,115.0
8364,F3,833.0,0.5,95,115.0
8365,B1,833.0,0.5,95,115.0
8366,A3,833.25,0.5,95,115.0
8367,C-1,833.25,0.75,95,115.0
8368,D2,833.25,0.75,95,115.0
8369,B-2,833.25,0.75,95,115.0
8370,E3,833.5,0.5,95,115.0
8371,A1,833.5,0.5,95,115.0
8372,B-3,833.75,0.5,95,115.0
8373,F3,834.0,0.5,95,115.0
8374,B1,834.0,0.5,95,115.0
8375,A3,834.25,0.5,95,115.0
8376,C2,834.25,0.5,95,115.0
8377,B-2,834.25,0.5,95,115.0
8378,G3,834.5,0.5,95,115.0
8379,C2,834.5,0.5,95,115.0
8380,G3,834.75,0.5,95,115.0
8381,C-1,834.75,0.5,95,115.0
8382,C2,834.75,0.5,95,115.0
8383,F3,835.0,0.5,95,115.0
8384,B1,835.0,0.5,95,115.0
8385,C4,835.25,1.0,95,115.0
8386,C-1,835.25,0.75,95,115.0
8387,D2,835.25,0.75,95,115.0
8388,B-2,835.25,0.75,95,115.0
8389,E3,835.5,0.5,95,115.0
8390,A1,835.5,0.5,95,115.0
8391,A3,836.0,1.0,95,115.0
8392,D2,836.0,1.0,95,115.0
8393,A3,836.25,0.5,95,115.0
8394,C2,836.25,0.75,95,115.0
8395,B-2,836.25,0.75,95,115.0
8396,C#3,836.25,0.75,95,115.0
8397,G3,836.75,0.5,95,115.0
8398,F3,837.0,0.5,95,115.0
8399,B1,837.0,0.5,95,115.0
8400,A3,837.25,0.5,95,115.0
8401,D2,837.25,0.75,95,115.0
8402,B-2,837.25,0.75,95,115.0
8403,E3,837.5,0.5,95,115.0
8404,A1,837.5,0.5,95,115.0
8405,G3,837.75,0.5,95,115.0
8406,F3,838.0,0.5,95,115.0
8407,B1,838.0,0.5,95,115.0
8408,F3,838.25,1.0,95,115.0
8409,C2,838.25,0.5,95,115.0
8410,B-2,838.25,0.5,95,115.0
8411,E3,838.5,0.5,95,115.0
8412,A1,838.5,0.5,95,115.0
8413,C-1,838.75,0.5,95,115.0
8414,C2,838.75,0.5,95,115.0
8415,D3,839.0,1.0,95,115.0
8416,G1,839.0,1.0,95,115.0
8417,F3,839.25,0.5,95,115.0
8418,C-1,839.25,0.75,95,115.0
8419,D2,839.25,0.75,95,115.0
8420,B-2,839.25,0.75,95,115.0
8421,F3,839.75,0.5,95,115.0
8422,D3,840.0,0.5,95,115.0
8423,G1,840.0,0.5,95,115.0
8424,G3,840.25,0.5,95,115.0
8425,C2,840.25,0.5,95,115.0
8426,B-2,840.25,0.5,95,115.0
8427,D3,840.5,0.5,95,115.0
8428,G1,840.5,0.5,95,115.0
8429,F3,840.75,0.5,95,115.0
8430,C-1,840.75,0.5,95,115.0
8431,C2,840.75,0.5,95,115.0
8432,E3,841.0,0.5,95,115.0
8433,A1,841.0,0.5,95,115.0
8434,G3,841.25,0.5,95,115.0
8435,C-1,841.25,0.75,95,115.0
8436,D2,841.25,0.75,95,115.0
8437,B-2,841.25,0.75,95,115.0
8438,D3,841.5,0.5,95,115.0
8439,G1,841.5,0.5,95,115.0
8440,A3,841.75,0.5,95,115.0
8441,E3,842.0,0.5,95,115.0
8442,A1,842.0,0.5,95,115.0
8443,G3,842.25,0.5,95,115.0
8444,C2,842.25,0.5,95,115.0
8445,B-2,842.25,0.5,95,115.0
8446,F3,842.5,0.5,95,115.0
8447,B1,842.5,0.5,95,115.0
8448,B-3,842.75,0.5,95,115.0
8449,C-1,842.75,0.5,95,115.0
8450,C2,842.75,0.5,95,115.0
8451,E3,843.0,0.5,95,115.0
8452,A1,843.0,0.5,95,115.0
8453,C4,843.25,1.0,95,115.0
8454,C-1,843.25,0.75,95,115.0
8455,D2,843.25,0.75,95,115.0
8456,B-2,843.25,0.75,95,115.0
8457,G3,843.5,0.5,95,115.0
8458,G1,843.5,0.5,95,115.0
8459,A3,844.0,1.0,95,115.0
8460,D2,844.0,1.0,95,115.0
8461,A3,844.25,0.5,95,115.0
8462,C2,844.25,0.75,95,115.0
8463,B-2,844.25,0.75,95,115.0
8464,G3,844.75,0.5,95,115.0
8465,F3,845.0,0.5,95,115.0
8466,B1,845.0,0.5,95,115.0
8467,A3,845.25,0.5,95,115.0
8468,D2,845.25,0.75,95,115.0
8469,B-2,845.25,0.75,95,115.0
8470,E3,845.5,0.5,95,115.0
8471,A1,845.5,0.5,95,115.0
8472,G3,845.75,0.5,95,115.0
8473,F3,846.0,0.5,95,115.0
8474,B1,846.0,0.5,95,115.0
8475,F3,846.25,1.0,95,115.0
8476,C2,846.25,0.5,95,115.0
8477,B-2,846.25,0.5,95,115.0
8478,E3,846.5,0.5,95,115.0
8479,A1,846.5,0.5,95,115.0
8480,C-1,846.75,0.5,95,115.0
8481,C2,846.75,0.5,95,115.0
8482,D3,847.0,1.0,95,115.0
8483,G1,847.0,1.0,95,115.0
8484,F3,847.25,0.5,95,115.0
8485,C-1,847.25,0.75,95,115.0
8486,D2,847.25,0.75,95,115.0
8487,B-2,847.25,0.75,95,115.0
8488,G3,847.75,0.5,95,115.0
8489,D3,848.0,0.5,95,115.0
8490,G1,848.0,0.5,95,115.0
8491,A3,848.25,0.5,95,115.0
8492,C2,848.25,0.5,95,115.0
8493,B-2,848.25,0.5,95,115.0
8494,E3,848.5,0.5,95,115.0
8495,A1,848.5,0.5,95,115.0
8496,G3,848.75,0.5,95,115.0
8497,C-1,848.75,0.5,95,115.0
8498,C2,848.75,0.5,95,115.0
8499,F3,849.0,0.5,95,115.0
8500,B1,849.0,0.5,95,115.0
8501,A3,849.25,0.5,95,115.0
8502,C-1,849.25,0.75,95,115.0
8503,D2,849.25,0.75,95,115.0
8504,B-2,849.25,0.75,95,115.0
8505,E3,849.5,0.5,95,115.0
8506,A1,849.5,0.5,95,115.0
8507,B-3,849.75,0.5,95,115.0
8508,F3,850.0,0.5,95,115.0
8509,B1,850.0,0.5,95,115.0
8510,A3,850.25,0.5,95,115.0
8511,C2,850.25,0.5,95,115.0
8512,B-2,850.25,0.5,95,115.0
8513,G3,850.5,0.5,95,115.0
8514,C2,850.5,0.5,95,115.0
8515,G3,850.75,0.5,95,115.0
8516,C-1,850.75,0.5,95,115.0
8517,C2,850.75,0.5,95,115.0
8518,F3,851.0,0.5,95,115.0
8519,B1,851.0,0.5,95,115.0
8520,C4,851.25,1.0,95,115.0
8521,C-1,851.25,0.75,95,115.0
8522,D2,851.25,0.75,95,115.0
8523,B-2,851.25,0.75,95,115.0
8524,E3,851.5,0.5,95,115.0
8525,A1,851.5,0.5,95,115.0
8526,A3,852.0,1.0,95,115.0
8527,D2,852.0,1.0,95,115.0
8528,A3,852.25,0.5,95,115.0
8529,C2,852.25,0.75,95,115.0
8530,B-2,852.25,0.75,95,115.0
8531,C#3,852.25,0.75,95,115.0
8532,G3,852.75,0.5,95,115.0
8533,F3,853.0,0.5,95,115.0
8534,B1,853.0,0.5,95,115.0
8535,A3,853.25,0.5,95,115.0
8536,D2,853.25,0.75,95,115.0
8537,B-2,853.25,0.75,95,115.0
8538,E3,853.5,0.5,95,115.0
8539,A1,853.5,0.5,95,115.0
8540,G3,853.75,0.5,95,115.0
8541,F3,854.0,0.5,95,115.0
8542,B1,854.0,0.5,95,115.0
8543,F3,854.25,1.0,95,115.0
8544,C2,854.25,0.5,95,115.0
8545,B-2,854.25,0.5,95,115.0
8546,E3,854.5,0.5,95,115.0
8547,A1,854.5,0.5,95,115.0
8548,C-1,854.75,0.5,95,115.0
8549,C2,854.75,0.5,95,115.0
8550,D3,855.0,1.0,95,115.0
8551,G1,855.0,1.0,95,115.0
8552,F3,855.25,0.5,95,115.0
8553,C-1,855.25,0.75,95,115.0
8554,D2,855.25,0.75,95,115.0
8555,B-2,855.25,0.75,95,115.0
8556,F3,855.75,0.5,95,115.0
8557,A3,856.0,1.0,95,115.0
8558,D2,856.0,1.0,95,115.0
8559,G3,856.25,0.5,95,115.0
8560,C2,856.25,0.5,95,115.0
8561,B-2,856.25,0.5,95,115.0
8562,F3,856.75,0.5,95,115.0
8563,C-1,856.75,0.5,95,115.0
8564,C2,856.75,0.5,95,115.0
8565,F3,857.0,0.5,95,115.0
8566,B1,857.0,0.5,95,115.0
8567,G3,857.25,0.5,95,115.0
8568,C-1,857.25,0.75,95,115.0
8569,D2,857.25,0.75,95,115.0
8570,B-2,857.25,0.75,95,115.0
8571,E3,857.5,0.5,95,115.0
8572,A1,857.5,0.5,95,115.0
8573,A3,857.75,0.5,95,115.0
8574,F3,858.0,0.5,95,115.0
8575,B1,858.0,0.5,95,115.0
8576,G3,858.25,0.5,95,115.0
8577,C2,858.25,0.5,95,115.0
8578,B-2,858.25,0.5,95,115.0
8579,E3,858.5,0.5,95,115.0
8580,A1,858.5,0.5,95,115.0
8581,B-3,858.75,0.5,95,115.0
8582,C-1,858.75,0.5,95,115.0
8583,C2,858.75,0.5,95,115.0
8584,D3,859.0,1.0,95,115.0
8585,G1,859.0,1.0,95,115.0
8586,C4,859.25,1.0,95,115.0
8587,C-1,859.25,0.75,95,115.0
8588,D2,859.25,0.75,95,115.0
8589,B-2,859.25,0.75,95,115.0
8590,D3,860.0,0.5,95,115.0
8591,G1,860.0,0.5,95,115.0
8592,A3,860.25,0.5,95,115.0
8593,C2,860.25,0.5,95,115.0
8594,B-2,860.25,0.5,95,115.0
8595,E3,860.5,0.5,95,115.0
8596,A1,860.5,0.5,95,115.0
8597,G3,860.75,0.5,95,115.0
8598,C-1,860.75,0.5,95,115.0
8599,C2,860.75,0.5,95,115.0
8600,F3,861.0,0.5,95,115.0
8601,B1,861.0,0.5,95,115.0
8602,A3,861.25,0.5,95,115.0
8603,C-1,861.25,0.75,95,115.0
8604,D2,861.25,0.75,95,115.0
8605,B-2,861.25,0.75,95,115.0
8606,E3,861.5,0.5,95,115.0
8607,A1,861.5,0.5,95,115.0
8608,G3,861.75,0.5,95,115.0
8609,F3,862.0,0.5,95,115.0
8610,B1,862.0,0.5,95,115.0
8611,F3,862.25,1.0,95,115.0
8612,C2,862.25,0.5,95,115.0
8613,B-2,862.25,0.5,95,115.0
8614,G3,862.5,0.5,95,115.0
8615,C2,862.5,0.5,95,115.0
8616,C-1,862.75,0.5,95,115.0
8617,C2,862.75,0.5,95,115.0
8618,F3,863.0,0.5,95,115.0
8619,B1,863.0,0.5,95,115.0
8620,F3,863.25,0.5,95,115.0
8621,C-1,863.25,0.75,95,115.0
8622,D2,863.25,0.75,95,115.0
8623,B-2,863.25,0.75,95,115.0
8624,E3,863.5,0.5,95,115.0
8625,A1,863.5,0.5,95,115.0
8626,G3,863.75,0.5,95,115.0
8627,A3,864.0,1.0,95,115.0
8628,D2,864.0,1.0,95,115.0
8629,A3,864.25,0.5,95,115.0
8630,C-1,864.25,0.75,95,115.0
8631,C2,864.25,0.75,95,115.0
8632,B-2,864.25,0.75,95,115.0
8633,C#3,864.25,0.75,95,115.0
8634,G3,864.75,0.5,95,115.0
8635,F3,865.0,0.5,95,115.0
8636,B1,865.0,0.5,95,115.0
8637,A3,865.25,0.5,95,115.0
8638,D2,865.25,0.75,95,115.0
8639,B-2,865.25,0.75,95,115.0
8640,E3,865.5,0.5,95,115.0
8641,A1,865.5,0.5,95,115.0
8642,B-3,865.75,0.5,95,115.0
8643,F3,866.0,0.5,95,115.0
8644,B1,866.0,0.5,95,115.0
8645,A3,866.25,0.5,95,115.0
8646,C2,866.25,0.5,95,115.0
8647,B-2,866.25,0.5,95,115.0
8648,E3,866.5,0.5,95,115.0
8649,A1,866.5,0.5,95,115.0
8650,G3,866.75,0.5,95,115.0
8651,C-1,866.75,0.5,95,115.0
8652,C2,866.75,0.5,95,115.0
8653,D3,867.0,1.0,95,115.0
8654,G1,867.0,1.0,95,115.0
8655,C4,867.25,1.0,95,115.0
8656,C-1,867.25,0.75,95,115.0
8657,D2,867.25,0.75,95,115.0
8658,B-2,867.25,0.75,95,115.0
8659,D3,868.0,0.5,95,115.0
8660,G1,868.0,0.5,95,115.0
8661,A3,868.25,0.5,95,115.0
8662,C2,868.25,0.5,95,115.0
8663,B-2,868.25,0.5,95,115.0
8664,D3,868.5,0.5,95,115.0
8665,G1,868.5,0.5,95,115.0
8666,G3,868.75,0.5,95,115.0
8667,C-1,868.75,0.5,95,115.0
8668,C2,868.75,0.5,95,115.0
8669,E3,869.0,0.5,95,115.0
8670,A1,869.0,0.5,95,115.0
8671,A3,869.25,0.5,95,115.0
8672,C-1,869.25,0.75,95,115.0
8673,D2,869.25,0.75,95,115.0
8674,B-2,869.25,0.75,95,115.0
8675,D3,869.5,0.5,95,115.0
8676,G1,869.5,0.5,95,115.0
8677,G3,869.75,0.5,95,115.0
8678,E3,870.0,0.5,95,115.0
8679,A1,870.0,0.5,95,115.0
8680,F3,870.25,1.0,95,115.0
8681,C2,870.25,0.5,95,115.0
8682,B-2,870.25,0.5,95,115.0
8683,F3,870.5,0.5,95,115.0
8684,B1,870.5,0.5,95,115.0
8685,C-1,870.75,0.5,95,115.0
8686,C2,870.75,0.5,95,115.0
8687,E3,871.0,0.5,95,115.0
8688,A1,871.0,0.5,95,115.0
8689,C4,871.25,1.0,95,115.0
8690,C-1,871.25,0.75,95,115.0
8691,D2,871.25,0.75,95,115.0
8692,B-2,871.25,0.75,95,115.0
8693,G3,871.5,0.5,95,115.0
8694,G1,871.5,0.5,95,115.0
8695,A3,872.0,1.0,95,115.0
8696,D2,872.0,1.0,95,115.0
8697,A3,872.25,0.5,95,115.0
8698,C2,872.25,0.75,95,115.0
8699,B-2,872.25,0.75,95,115.0
8700,G3,872.75,0.5,95,115.0
8701,F3,873.0,0.5,95,115.0
8702,B1,873.0,0.5,95,115.0
8703,A3,873.25,0.5,95,115.0
8704,D2,873.25,0.75,95,115.0
8705,B-2,873.25,0.75,95,115.0
8706,E3,873.5,0.5,95,115.0
8707,A1,873.5,0.5,95,115.0
8708,G3,873.75,0.5,95,115.0
8709,F3,874.0,0.5,95,115.0
8710,B1,874.0,0.5,95,115.0
8711,F3,874.25,1.0,95,115.0
8712,C2,874.25,0.5,95,115.0
8713,B-2,874.25,0.5,95,115.0
8714,E3,874.5,0.5,95,115.0
8715,A1,874.5,0.5,95,115.0
8716,C2,874.75,0.5,95,115.0
8717,D3,875.0,1.0,95,115.0
8718,G1,875.0,1.0,95,115.0
8719,F3,875.25,0.5,95,115.0
8720,D2,875.25,0.75,95,115.0
8721,B-2,875.25,0.75,95,115.0
8722,G3,875.75,0.5,95,115.0
8723,D3,876.0,0.5,95,115.0
8724,G1,876.0,0.5,95,115.0
8725,A3,876.25,0.5,95,115.0
8726,C2,876.25,0.5,95,115.0
8727,B-2,876.25,0.5,95,115.0
8728,E3,876.5,0.5,95,115.0
8729,A1,876.5,0.5,95,115.0
8730,G3,876.75,0.5,95,115.0
8731,C2,876.75,0.5,95,115.0
8732,F3,877.0,0.5,95,115.0
8733,B1,877.0,0.5,95,115.0
8734,A3,877.25,0.5,95,115.0
8735,D2,877.25,0.75,95,115.0
8736,B-2,877.25,0.75,95,115.0
8737,E3,877.5,0.5,95,115.0
8738,A1,877.5,0.5,95,115.0
8739,B-3,877.75,0.5,95,115.0
8740,F3,878.0,0.5,95,115.0
8741,B1,878.0,0.5,95,115.0
8742,A3,878.25,0.5,95,115.0
8743,C2,878.25,0.5,95,115.0
8744,B-2,878.25,0.5,95,115.0
8745,G3,878.5,0.5,95,115.0
8746,C2,878.5,0.5,95,115.0
8747,G3,878.75,0.5,95,115.0
8748,C2,878.75,0.5,95,115.0
8749,F3,879.0,0.5,95,115.0
8750,B1,879.0,0.5,95,115.0
8751,C4,879.25,1.0,95,115.0
8752,D2,879.25,0.75,95,115.0
8753,B-2,879.25,0.75,95,115.0
8754,E3,879.5,0.5,95,115.0
8755,A1,879.5,0.5,95,115.0
8756,A3,880.0,1.0,95,115.0
8757,D2,880.0,1.0,95,115.0
8758,A3,880.25,0.5,95,115.0
8759,C2,880.25,0.75,95,115.0
8760,B-2,880.25,0.75,95,115.0
8761,G3,880.75,0.5,95,115.0
8762,F3,881.0,0.5,95,115.0
8763,B1,881.0,0.5,95,115.0
8764,A3,881.25,0.5,95,115.0
8765,D2,881.25,0.75,95,115.0
8766,B-2,881.25,0.75,95,115.0
8767,E3,881.5,0.5,95,115.0
8768,A1,881.5,0.5,95,115.0
8769,G3,881.75,0.5,95,115.0
8770,F3,882.0,0.5,95,115.0
8771,B1,882.0,0.5,95,115.0
8772,F3,882.25,1.0,95,115.0
8773,C2,882.25,0.5,95,115.0
8774,B-2,882.25,0.5,95,115.0
8775,E3,882.5,0.5,95,115.0
8776,A1,882.5,0.5,95,115.0
8777,C2,882.75,0.5,95,115.0
8778,D3,883.0,1.0,95,115.0
8779,G1,883.0,1.0,95,115.0
8780,F3,883.25,0.5,95,115.0
8781,D2,883.25,0.75,95,115.0
8782,B-2,883.25,0.75,95,115.0
8783,F3,883.75,0.5,95,115.0
8784,A3,884.0,1.0,95,115.0
8785,D2,884.0,1.0,95,115.0
8786,G3,884.25,0.5,95,115.0
8787,C2,884.25,0.5,95,115.0
8788,B-2,884.25,0.5,95,115.0
8789,F3,884.75,0.5,95,115.0
8790,C2,884.75,0.5,95,115.0
8791,F3,885.0,0.5,95,115.0
8792,B1,885.0,0.5,95,115.0
8793,G3,885.25,0.5,95,115.0
8794,D2,885.25,0.75,95,115.0
8795,B-2,885.25,0.75,95,115.0
8796,E3,885.5,0.5,95,115.0
8797,A1,885.5,0.5,95,115.0
8798,A3,885.75,0.5,95,115.0
8799,F3,886.0,0.5,95,115.0
8800,B1,886.0,0.5,95,115.0
8801,G3,886.25,0.5,95,115.0
8802,C2,886.25,0.5,95,115.0
8803,B-2,886.25,0.5,95,115.0
8804,E3,886.5,0.5,95,115.0
8805,A1,886.5,0.5,95,115.0
8806,B-3,886.75,0.5,95,115.0
8807,C2,886.75,0.5,95,115.0
8808,D3,887.0,1.0,95,115.0
8809,G1,887.0,1.0,95,115.0
8810,C4,887.25,1.0,95,115.0
8811,D2,887.25,0.75,95,115.0
8812,B-2,887.25,0.75,95,115.0
8813,D3,888.0,0.5,95,115.0
8814,A3,888.25,0.5,95,115.0
8815,C2,888.25,0.5,95,115.0
8816,B-2,888.25,0.5,95,115.0
8817,A2,888.5,0.5,95,115.0
8818,G3,888.75,0.5,95,115.0
8819,C-1,888.75,0.5,95,115.0
8820,C2,888.75,0.5,95,115.0
8821,B-2,889.0,0.5,95,115.0
8822,A3,889.25,0.5,95,115.0
8823,C-1,889.25,0.75,95,115.0
8824,D2,889.25,0.75,95,115.0
8825,B-2,889.25,0.75,95,115.0
8826,A2,889.5,0.5,95,115.0
8827,G3,889.75,0.5,95,115.0
8828,F3,890.0,0.5,95,115.0
8829,F3,890.25,1.0,95,115.0
8830,C2,890.25,0.5,95,115.0
8831,B-2,890.25,0.5,95,115.0
8832,E3,890.5,0.5,95,115.0
8833,C-1,890.75,0.5,95,115.0
8834,C2,890.75,0.5,95,115.0
8835,D3,891.0,0.5,95,115.0
8836,F3,891.25,0.5,95,115.0
8837,C-1,891.25,0.75,95,115.0
8838,D2,891.25,1.0,95,115.0
8839,B-2,891.25,1.0,95,115.0
8840,C3,891.5,0.5,95,115.0
8841,G3,891.75,0.5,95,115.0
8842,A1,892.0,0.75,95,115.0
8843,D4,892.0,0.75,95,115.0
8844,A3,892.0,0.75,95,115.0
8845,D3,892.0,0.75,95,115.0
8846,A3,892.25,0.5,95,115.0
8847,D2,892.25,0.5,95,115.0
8848,B-2,892.25,0.5,95,115.0
8849,G3,892.75,0.5,95,115.0
8850,D2,892.75,0.5,95,115.0
8851,D3,893.0,0.5,95,115.0
8852,A1,893.0,0.75,95,115.0
8853,A3,893.25,0.5,95,115.0
8854,D2,893.25,0.5,95,115.0
8855,D4,893.5,1.0,95,115.0
8856,A3,893.5,1.0,95,115.0
8857,D3,893.5,1.0,95,115.0
8858,B-3,893.75,0.5,95,115.0
8859,A1,893.75,1.0,95,115.0
8860,C2,893.75,0.5,95,115.0
8861,A3,894.25,0.5,95,115.0
8862,B2,894.25,0.5,95,115.0
8863,D3,894.5,0.5,95,115.0
8864,G3,894.75,0.5,95,115.0
8865,A1,894.75,0.5,95,115.0
8866,A2,894.75,0.5,95,115.0
8867,D4,895.0,0.75,95,115.0
8868,A3,895.0,0.75,95,115.0
8869,D3,895.0,0.75,95,115.0
8870,C4,895.25,1.0,95,115.0
8871,A1,895.25,0.75,95,115.0
8872,G2,895.25,0.5,95,115.0
8873,F2,895.75,0.5,95,115.0
8874,D3,896.0,0.5,95,115.0
8875,A1,896.0,0.5,95,115.0
8876,A3,896.25,0.5,95,115.0
8877,C2,896.25,0.75,95,115.0
8878,B-2,896.25,0.75,95,115.0
8879,C#3,896.25,0.75,95,115.0
8880,A1,896.5,0.75,95,115.0
8881,D4,896.5,0.75,95,115.0
8882,A3,896.5,0.75,95,115.0
8883,D3,896.5,0.75,95,115.0
8884,G3,896.75,0.5,95,115.0
8885,A3,897.25,0.5,95,115.0
8886,D2,897.25,0.5,95,115.0
8887,B-2,897.25,0.5,95,115.0
8888,D3,897.5,0.5,95,115.0
8889,A1,897.5,0.5,95,115.0
8890,G3,897.75,0.5,95,115.0
8891,C2,897.75,0.5,95,115.0
8892,A1,898.0,0.75,95,115.0
8893,D4,898.0,0.75,95,115.0
8894,A3,898.0,0.75,95,115.0
8895,D3,898.0,0.75,95,115.0
8896,F3,898.25,1.0,95,115.0
8897,B-2,898.25,0.5,95,115.0
8898,C2,898.75,0.5,95,115.0
8899,A1,899.0,0.75,95,115.0
8900,D4,899.0,0.75,95,115.0
8901,A3,899.0,0.75,95,115.0
8902,D3,899.0,0.75,95,115.0
8903,C4,899.25,1.0,95,115.0
8904,D2,899.25,0.75,95,115.0
8905,B-2,899.25,0.75,95,115.0
8906,F1,900.0,0.75,95,115.0
8907,B-3,900.0,0.75,95,115.0
8908,F3,900.0,0.75,95,115.0
8909,B-2,900.0,0.75,95,115.0
8910,A3,900.25,0.5,95,115.0
8911,B-2,900.25,0.5,95,115.0
8912,G3,900.75,0.5,95,115.0
8913,C2,900.75,0.5,95,115.0
8914,B-2,901.0,0.5,95,115.0
8915,F1,901.0,0.75,95,115.0
8916,A3,901.25,0.5,95,115.0
8917,D2,901.25,0.75,95,115.0
8918,B-2,901.25,0.75,95,115.0
8919,B-3,901.5,1.0,95,115.0
8920,F3,901.5,1.0,95,115.0
8921,B-2,901.5,1.0,95,115.0
8922,G3,901.75,0.5,95,115.0
8923,F1,901.75,1.0,95,115.0
8924,F3,902.25,1.0,95,115.0
8925,C2,902.25,0.75,95,115.0
8926,B-2,902.25,0.75,95,115.0
8927,B-2,902.5,0.5,95,115.0
8928,F1,902.75,0.5,95,115.0
8929,B-3,903.0,0.75,95,115.0
8930,F3,903.0,0.75,95,115.0
8931,B-2,903.0,0.75,95,115.0
8932,F3,903.25,0.5,95,115.0
8933,F1,903.25,0.75,95,115.0
8934,D2,903.25,0.75,95,115.0
8935,B-2,903.25,0.75,95,115.0
8936,A2,903.75,0.5,95,115.0
8937,B-2,904.0,0.5,95,115.0
8938,F1,904.0,0.75,95,115.0
8939,B-2,904.25,0.5,95,115.0
8940,C2,904.25,0.75,95,115.0
8941,B-2,904.25,0.75,95,115.0
8942,C#3,904.25,0.75,95,115.0
8943,B-3,904.5,0.75,95,115.0
8944,F3,904.5,0.75,95,115.0
8945,B-2,904.5,0.75,95,115.0
8946,A2,904.75,0.5,95,115.0
8947,F1,905.0,0.75,95,115.0
8948,F3,905.25,0.5,95,115.0
8949,D2,905.25,0.5,95,115.0
8950,B-2,905.25,0.5,95,115.0
8951,B-2,905.5,0.5,95,115.0
8952,E3,905.75,0.5,95,115.0
8953,F1,905.75,1.0,95,115.0
8954,C2,905.75,0.5,95,115.0
8955,B-3,906.0,0.75,95,115.0
8956,F3,906.0,0.75,95,115.0
8957,B-2,906.0,0.75,95,115.0
8958,D3,906.25,0.5,95,115.0
8959,B-2,906.25,0.5,95,115.0
8960,C3,906.75,0.5,95,115.0
8961,F1,906.75,0.5,95,115.0
8962,C2,906.75,0.5,95,115.0
8963,B-3,907.0,0.75,95,115.0
8964,F3,907.0,0.75,95,115.0
8965,B-2,907.0,0.75,95,115.0
8966,F1,907.25,0.75,95,115.0
8967,D4,907.25,0.75,95,115.0
8968,A3,907.25,0.75,95,115.0
8969,D3,907.25,0.75,95,115.0
8970,D2,907.25,0.75,95,115.0
8971,B-2,907.25,0.75,95,115.0
8972,G1,908.0,0.5,95,115.0
8973,C4,908.0,0.75,95,115.0
8974,G3,908.0,0.75,95,115.0
8975,C3,908.0,0.75,95,115.0
8976,D3,908.25,0.5,95,115.0
8977,B-2,908.25,0.5,95,115.0
8978,G1,908.5,0.75,95,115.0
8979,C2,908.75,0.5,95,115.0
8980,D4,908.75,1.0,95,115.0
8981,A3,908.75,1.0,95,115.0
8982,D3,908.75,1.0,95,115.0
8983,C3,909.0,0.5,95,115.0
8984,D2,909.25,0.75,95,115.0
8985,B-2,909.25,0.75,95,115.0
8986,G1,909.5,0.5,95,115.0
8987,C4,909.5,1.0,95,115.0
8988,G3,909.5,1.0,95,115.0
8989,C3,909.5,1.0,95,115.0
8990,D3,909.75,0.5,95,115.0
8991,G1,910.0,0.75,95,115.0
8992,D4,910.25,0.75,95,115.0
8993,A3,910.25,0.75,95,115.0
8994,D3,910.25,0.75,95,115.0
8995,C2,910.25,0.75,95,115.0
8996,B-2,910.25,0.75,95,115.0
8997,C3,910.5,0.5,95,115.0
8998,G1,911.0,0.75,95,115.0
8999,C4,911.0,0.75,95,115.0
9000,G3,911.0,0.75,95,115.0
9001,C3,911.0,0.75,95,115.0
9002,D3,911.25,0.5,95,115.0
9003,D2,911.25,0.75,95,115.0
9004,B-2,911.25,0.75,95,115.0
9005,D4,911.75,0.75,95,115.0
9006,A3,911.75,0.75,95,115.0
9007,D3,911.75,0.75,95,115.0
9008,C3,912.0,0.5,95,115.0
9009,G1,912.0,0.75,95,115.0
9010,C2,912.25,0.75,95,115.0
9011,B-2,912.25,0.75,95,115.0
9012,C#3,912.25,0.75,95,115.0
9013,C4,912.5,0.75,95,115.0
9014,G3,912.5,0.75,95,115.0
9015,C3,912.5,0.75,95,115.0
9016,D3,912.75,0.5,95,115.0
9017,G1,913.0,0.75,95,115.0
9018,D4,913.25,0.75,95,115.0
9019,A3,913.25,0.75,95,115.0
9020,D3,913.25,0.75,95,115.0
9021,D2,913.25,0.5,95,115.0
9022,B-2,913.25,0.5,95,115.0
9023,C3,913.5,0.5,95,115.0
9024,G1,913.75,1.0,95,115.0
9025,C2,913.75,0.5,95,115.0
9026,C4,914.0,0.75,95,115.0
9027,G3,914.0,0.75,95,115.0
9028,C3,914.0,0.75,95,115.0
9029,B-2,914.25,0.5,95,115.0
9030,D4,914.25,0.75,95,115.0
9031,A3,914.25,0.75,95,115.0
9032,D3,914.25,0.75,95,115.0
9033,G1,914.75,0.5,95,115.0
9034,C2,914.75,0.5,95,115.0
9035,C4,915.0,0.75,95,115.0
9036,G3,915.0,0.75,95,115.0
9037,C3,915.0,0.75,95,115.0
9038,G1,915.25,0.75,95,115.0
9039,B-3,915.25,0.75,95,115.0
9040,F3,915.25,0.75,95,115.0
9041,B-2,915.25,0.75,95,115.0
9042,D2,915.25,0.75,95,115.0
9043,B-2,915.25,0.75,95,115.0
9044,A1,916.0,0.75,95,115.0
9045,D4,916.0,0.75,95,115.0
9046,A3,916.0,0.75,95,115.0
9047,D3,916.0,0.75,95,115.0
9048,B-2,916.25,0.5,95,115.0
9049,B-2,916.25,0.5,95,115.0
9050,C2,916.75,0.5,95,115.0
9051,B-3,916.75,1.0,95,115.0
9052,F3,916.75,1.0,95,115.0
9053,B-2,916.75,1.0,95,115.0
9054,D3,917.0,0.5,95,115.0
9055,A1,917.0,0.75,95,115.0
9056,D2,917.25,0.75,95,115.0
9057,B-2,917.25,0.75,95,115.0
9058,D4,917.5,1.0,95,115.0
9059,A3,917.5,1.0,95,115.0
9060,D3,917.5,1.0,95,115.0
9061,B-2,917.75,0.5,95,115.0
9062,A1,917.75,1.0,95,115.0
9063,B-3,918.25,0.75,95,115.0
9064,F3,918.25,0.75,95,115.0
9065,B-2,918.25,0.75,95,115.0
9066,C2,918.25,0.75,95,115.0
9067,B-2,918.25,0.75,95,115.0
9068,D3,918.5,0.5,95,115.0
9069,A1,918.75,0.5,95,115.0
9070,D4,919.0,0.75,95,115.0
9071,A3,919.0,0.75,95,115.0
9072,D3,919.0,0.75,95,115.0
9073,B-2,919.25,0.5,95,115.0
9074,A1,919.25,0.75,95,115.0
9075,D2,919.25,0.75,95,115.0
9076,B-2,919.25,0.75,95,115.0
9077,B-3,919.75,0.75,95,115.0
9078,F3,919.75,0.75,95,115.0
9079,B-2,919.75,0.75,95,115.0
9080,F3,920.0,0.5,95,115.0
9081,C2,920.25,0.75,95,115.0
9082,B-2,920.25,0.75,95,115.0
9083,C#3,920.25,0.75,95,115.0
9084,E3,920.5,0.5,95,115.0
9085,B-2,920.75,0.5,95,115.0
9086,D3,921.0,0.75,95,115.0
9087,B-3,921.25,0.75,95,115.0
9088,F3,921.25,0.75,95,115.0
9089,B-2,921.25,0.75,95,115.0
9090,D2,921.25,0.5,95,115.0
9091,B-2,921.25,0.5,95,115.0
9092,C2,921.75,0.5,95,115.0
9093,F3,922.0,0.5,95,115.0
9094,B-2,922.25,0.5,95,115.0
9095,B-3,922.25,0.75,95,115.0
9096,F3,922.25,0.75,95,115.0
9097,B-2,922.25,0.75,95,115.0
9098,E3,922.5,0.5,95,115.0
9099,C2,922.75,0.5,95,115.0
9100,D3,923.0,0.5,95,115.0
9101,C4,923.25,0.75,95,115.0
9102,G3,923.25,0.75,95,115.0
9103,C3,923.25,0.75,95,115.0
9104,D2,923.25,0.75,95,115.0
9105,B-2,923.25,0.75,95,115.0
9106,C3,923.5,0.5,95,115.0
9107,A1,924.0,0.75,95,115.0
9108,D4,924.0,0.75,95,115.0
9109,A3,924.0,0.75,95,115.0
9110,D3,924.0,0.75,95,115.0
9111,C3,924.25,0.5,95,115.0
9112,B-2,924.25,0.5,95,115.0
9113,C2,924.75,0.5,95,115.0
9114,C4,924.75,1.0,95,115.0
9115,G3,924.75,1.0,95,115.0
9116,C3,924.75,1.0,95,115.0
9117,D3,925.0,0.5,95,115.0
9118,A1,925.0,0.75,95,115.0
9119,D2,925.25,0.75,95,115.0
9120,B-2,925.25,0.75,95,115.0
9121,D4,925.5,1.0,95,115.0
9122,A3,925.5,1.0,95,115.0
9123,D3,925.5,1.0,95,115.0
9124,C3,925.75,0.5,95,115.0
9125,A1,925.75,1.0,95,115.0
9126,C4,926.25,0.75,95,115.0
9127,G3,926.25,0.75,95,115.0
9128,C3,926.25,0.75,95,115.0
9129,C2,926.25,0.75,95,115.0
9130,B-2,926.25,0.75,95,115.0
9131,D3,926.5,0.5,95,115.0
9132,A1,926.75,0.5,95,115.0
9133,D4,927.0,0.75,95,115.0
9134,A3,927.0,0.75,95,115.0
9135,D3,927.0,0.75,95,115.0
9136,C3,927.25,0.5,95,115.0
9137,A1,927.25,0.75,95,115.0
9138,D2,927.25,0.75,95,115.0
9139,B-2,927.25,0.75,95,115.0
9140,C4,927.75,0.75,95,115.0
9141,G3,927.75,0.75,95,115.0
9142,C3,927.75,0.75,95,115.0
9143,D3,928.0,0.5,95,115.0
9144,A1,928.0,0.5,95,115.0
9145,C2,928.25,0.75,95,115.0
9146,B-2,928.25,0.75,95,115.0
9147,C#3,928.25,0.75,95,115.0
9148,A1,928.5,0.75,95,115.0
9149,D4,928.5,0.75,95,115.0
9150,A3,928.5,0.75,95,115.0
9151,D3,928.5,0.75,95,115.0
9152,C3,928.75,0.5,95,115.0
9153,C4,929.25,0.75,95,115.0
9154,G3,929.25,0.75,95,115.0
9155,C3,929.25,0.75,95,115.0
9156,D2,929.25,0.5,95,115.0
9157,B-2,929.25,0.5,95,115.0
9158,D3,929.5,0.5,95,115.0
9159,A1,929.5,0.5,95,115.0
9160,C2,929.75,0.5,95,115.0
9161,A1,930.0,0.75,95,115.0
9162,D4,930.0,0.75,95,115.0
9163,A3,930.0,0.75,95,115.0
9164,D3,930.0,0.75,95,115.0
9165,B-2,930.25,0.5,95,115.0
9166,C4,930.25,0.75,95,115.0
9167,G3,930.25,0.75,95,115.0
9168,C3,930.25,0.75,95,115.0
9169,C2,930.75,0.5,95,115.0
9170,A1,931.0,0.75,95,115.0
9171,D4,931.0,0.75,95,115.0
9172,A3,931.0,0.75,95,115.0
9173,D3,931.0,0.75,95,115.0
9174,D4,931.25,0.75,95,115.0
9175,A3,931.25,0.75,95,115.0
9176,D3,931.25,0.75,95,115.0
9177,D2,931.25,0.75,95,115.0
9178,B-2,931.25,0.75,95,115.0
9179,F1,932.0,0.75,95,115.0
9180,B-3,932.0,0.75,95,115.0
9181,F3,932.0,0.75,95,115.0
9182,B-2,932.0,0.75,95,115.0
9183,D3,932.25,0.5,95,115.0
9184,B-2,932.25,0.5,95,115.0
9185,C2,932.75,0.5,95,115.0
9186,D4,932.75,1.0,95,115.0
9187,A3,932.75,1.0,95,115.0
9188,D3,932.75,1.0,95,115.0
9189,B-2,933.0,0.5,95,115.0
9190,F1,933.0,0.75,95,115.0
9191,D2,933.25,0.75,95,115.0
9192,B-2,933.25,0.75,95,115.0
9193,B-3,933.5,1.0,95,115.0
9194,F3,933.5,1.0,95,115.0
9195,B-2,933.5,1.0,95,115.0
9196,D3,933.75,0.5,95,115.0
9197,F1,933.75,1.0,95,115.0
9198,D4,934.25,0.75,95,115.0
9199,A3,934.25,0.75,95,115.0
9200,D3,934.25,0.75,95,115.0
9201,C2,934.25,0.75,95,115.0
9202,B-2,934.25,0.75,95,115.0
9203,B-2,934.5,0.5,95,115.0
9204,F1,934.75,0.5,95,115.0
9205,B-3,935.0,0.75,95,115.0
9206,F3,935.0,0.75,95,115.0
9207,B-2,935.0,0.75,95,115.0
9208,F3,935.25,0.5,95,115.0
9209,F1,935.25,0.75,95,115.0
9210,D2,935.25,0.75,95,115.0
9211,B-2,935.25,0.75,95,115.0
9212,E3,935.75,0.5,95,115.0
9213,B-2,936.0,0.5,95,115.0
9214,F1,936.0,0.75,95,115.0
9215,D3,936.25,0.75,95,115.0
9216,C2,936.25,0.75,95,115.0
9217,B-2,936.25,0.75,95,115.0
9218,C#3,936.25,0.75,95,115.0
9219,B-3,936.5,0.75,95,115.0
9220,F3,936.5,0.75,95,115.0
9221,B-2,936.5,0.75,95,115.0
9222,F1,937.0,0.75,95,115.0
9223,F3,937.25,0.5,95,115.0
9224,D2,937.25,0.5,95,115.0
9225,B-2,937.25,0.5,95,115.0
9226,B-2,937.5,0.5,95,115.0
9227,E3,937.75,0.5,95,115.0
9228,F1,937.75,1.0,95,115.0
9229,C2,937.75,0.5,95,115.0
9230,B-3,938.0,0.75,95,115.0
9231,F3,938.0,0.75,95,115.0
9232,B-2,938.0,0.75,95,115.0
9233,D3,938.25,0.5,95,115.0
9234,B-2,938.25,0.5,95,115.0
9235,C3,938.75,0.5,95,115.0
9236,F1,938.75,0.5,95,115.0
9237,C2,938.75,0.5,95,115.0
9238,B-3,939.0,0.75,95,115.0
9239,F3,939.0,0.75,95,115.0
9240,B-2,939.0,0.75,95,115.0
9241,F1,939.25,0.75,95,115.0
9242,D4,939.25,0.75,95,115.0
9243,A3,939.25,0.75,95,115.0
9244,D3,939.25,0.75,95,115.0
9245,D2,939.25,0.75,95,115.0
9246,B-2,939.25,0.75,95,115.0
9247,G1,940.0,0.5,95,115.0
9248,C4,940.0,0.75,95,115.0
9249,G3,940.0,0.75,95,115.0
9250,C3,940.0,0.75,95,115.0
9251,D3,940.25,0.5,95,115.0
9252,B-2,940.25,0.5,95,115.0
9253,G1,940.5,0.75,95,115.0
9254,C2,940.75,0.5,95,115.0
9255,D4,940.75,1.0,95,115.0
9256,A3,940.75,1.0,95,115.0
9257,D3,940.75,1.0,95,115.0
9258,C3,941.0,0.5,95,115.0
9259,D2,941.25,0.75,95,115.0
9260,B-2,941.25,0.75,95,115.0
9261,G1,941.5,0.5,95,115.0
9262,C4,941.5,1.0,95,115.0
9263,G3,941.5,1.0,95,115.0
9264,C3,941.5,1.0,95,115.0
9265,D3,941.75,0.5,95,115.0
9266,G1,942.0,0.75,95,115.0
9267,D4,942.25,0.75,95,115.0
9268,A3,942.25,0.75,95,115.0
9269,D3,942.25,0.75,95,115.0
9270,C2,942.25,0.75,95,115.0
9271,B-2,942.25,0.75,95,115.0
9272,C3,942.5,0.5,95,115.0
9273,G1,943.0,0.75,95,115.0
9274,C4,943.0,0.75,95,115.0
9275,G3,943.0,0.75,95,115.0
9276,C3,943.0,0.75,95,115.0
9277,D3,943.25,0.5,95,115.0
9278,D2,943.25,0.75,95,115.0
9279,B-2,943.25,0.75,95,115.0
9280,D4,943.75,0.75,95,115.0
9281,A3,943.75,0.75,95,115.0
9282,D3,943.75,0.75,95,115.0
9283,C3,944.0,0.5,95,115.0
9284,G1,944.0,0.75,95,115.0
9285,C2,944.25,0.75,95,115.0
9286,B-2,944.25,0.75,95,115.0
9287,C#3,944.25,0.75,95,115.0
9288,C4,944.5,0.75,95,115.0
9289,G3,944.5,0.75,95,115.0
9290,C3,944.5,0.75,95,115.0
9291,D3,944.75,0.5,95,115.0
9292,G1,945.0,0.75,95,115.0
9293,D4,945.25,0.75,95,115.0
9294,A3,945.25,0.75,95,115.0
9295,D3,945.25,0.75,95,115.0
9296,D2,945.25,0.5,95,115.0
9297,B-2,945.25,0.5,95,115.0
9298,C3,945.5,0.5,95,115.0
9299,G1,945.75,1.0,95,115.0
9300,C2,945.75,0.5,95,115.0
9301,C4,946.0,0.75,95,115.0
9302,G3,946.0,0.75,95,115.0
9303,C3,946.0,0.75,95,115.0
9304,B-2,946.25,0.5,95,115.0
9305,D4,946.25,0.75,95,115.0
9306,A3,946.25,0.75,95,115.0
9307,D3,946.25,0.75,95,115.0
9308,G1,946.75,0.5,95,115.0
9309,C2,946.75,0.5,95,115.0
9310,C4,947.0,0.75,95,115.0
9311,G3,947.0,0.75,95,115.0
9312,C3,947.0,0.75,95,115.0
9313,G1,947.25,0.75,95,115.0
9314,B-3,947.25,0.75,95,115.0
9315,F3,947.25,0.75,95,115.0
9316,B-2,947.25,0.75,95,115.0
9317,D2,947.25,0.75,95,115.0
9318,B-2,947.25,0.75,95,115.0
9319,D4,948.0,0.5,95,115.0
9320,A1,948.0,4.0,95,115.0
9321,B-2,948.25,0.5,95,115.0
9322,B-2,948.25,0.5,95,115.0
9323,A4,948.5,0.5,95,115.0
9324,C2,948.75,0.5,95,115.0
9325,B-3,948.75,1.0,95,115.0
9326,F3,948.75,1.0,95,115.0
9327,B-2,948.75,1.0,95,115.0
9328,E4,949.0,0.5,95,115.0
9329,D2,949.25,0.75,95,115.0
9330,B-2,949.25,0.75,95,115.0
9331,F4,949.5,0.5,95,115.0
9332,B-2,949.75,0.5,95,115.0
9333,D4,950.0,0.5,95,115.0
9334,B-3,950.25,0.75,95,115.0
9335,F3,950.25,0.75,95,115.0
9336,B-2,950.25,0.75,95,115.0
9337,C2,950.25,0.75,95,115.0
9338,B-2,950.25,0.75,95,115.0
9339,A4,950.5,0.5,95,115.0
9340,E4,951.0,0.5,95,115.0
9341,B-2,951.25,0.5,95,115.0
9342,D2,951.25,0.75,95,115.0
9343,B-2,951.25,0.75,95,115.0
9344,F4,951.5,0.5,95,115.0
9345,B-3,951.75,0.75,95,115.0
9346,F3,951.75,0.75,95,115.0
9347,B-2,951.75,0.75,95,115.0
9348,D4,952.0,0.5,95,115.0
9349,A1,952.0,3.5,95,115.0
9350,C2,952.25,3.75,95,115.0
9351,C#3,952.25,3.75,95,115.0
9352,A4,952.5,0.5,95,115.0
9353,B-2,952.75,0.5,95,115.0
9354,E4,953.0,0.5,95,115.0
9355,B-3,953.25,0.75,95,115.0
9356,F3,953.25,0.75,95,115.0
9357,B-2,953.25,0.75,95,115.0
9358,F4,953.5,0.5,95,115.0
9359,D4,954.0,0.5,95,115.0
9360,B-3,954.25,0.75,95,115.0
9361,F3,954.25,0.75,95,115.0
9362,B-2,954.25,0.75,95,115.0
9363,A4,954.5,0.5,95,115.0
9364,E4,955.0,0.5,95,115.0
9365,C4,955.25,0.75,95,115.0
9366,G3,955.25,0.75,95,115.0
9367,C3,955.25,0.75,95,115.0
9368,F4,955.5,0.5,95,115.0
9369,A1,955.5,0.5,95,115.0
9370,D4,956.0,0.5,95,115.0
9371,G1,956.0,4.0,95,115.0
9372,C3,956.25,0.5,95,115.0
9373,A4,956.5,0.5,95,115.0
9374,D3,956.75,0.5,95,115.0
9375,C4,956.75,1.0,95,115.0
9376,G3,956.75,1.0,95,115.0
9377,C3,956.75,1.0,95,115.0
9378,E4,957.0,0.5,95,115.0
9379,F4,957.5,0.5,95,115.0
9380,C3,957.75,0.5,95,115.0
9381,C3,957.75,0.5,95,115.0
9382,D4,958.0,0.5,95,115.0
9383,B2,958.25,0.5,95,115.0
9384,C4,958.25,0.75,95,115.0
9385,G3,958.25,0.75,95,115.0
9386,C3,958.25,0.75,95,115.0
9387,A4,958.5,0.5,95,115.0
9388,E4,959.0,0.5,95,115.0
9389,A2,959.0,0.25,95,115.0
9390,C3,959.25,0.5,95,115.0
9391,G2,959.25,0.5,95,115.0
9392,F4,959.5,0.5,95,115.0
9393,C4,959.75,0.75,95,115.0
9394,G3,959.75,0.75,95,115.0
9395,C3,959.75,0.75,95,115.0
9396,C2,959.75,0.5,95,115.0
9397,C#3,959.75,0.5,95,115.0
9398,D4,960.0,0.5,95,115.0
9399,G1,960.0,3.5,95,115.0
9400,C2,960.25,3.75,95,115.0
9401,C#3,960.25,3.75,95,115.0
9402,A4,960.5,0.5,95,115.0
9403,C3,960.75,0.5,95,115.0
9404,E4,961.0,0.5,95,115.0
9405,C4,961.25,0.75,95,115.0
9406,G3,961.25,0.75,95,115.0
9407,C3,961.25,0.75,95,115.0
9408,F4,961.5,0.5,95,115.0
9409,D4,962.0,0.5,95,115.0
9410,C4,962.25,0.75,95,115.0
9411,G3,962.25,0.75,95,115.0
9412,C3,962.25,0.75,95,115.0
9413,A4,962.5,0.5,95,115.0
9414,E4,963.0,0.5,95,115.0
9415,D4,963.25,4.0,95,115.0
9416,A3,963.25,4.0,95,115.0
9417,D3,963.25,4.0,95,115.0
9418,F4,963.5,0.5,95,115.0
9419,G1,963.5,0.5,95,115.0
9420,D4,964.0,0.5,95,115.0
9421,F1,964.0,4.0,95,115.0
9422,D3,964.25,0.25,95,115.0
9423,A4,964.5,0.5,95,115.0
9424,D3,964.5,0.5,95,115.0
9425,E4,965.0,0.5,95,115.0
9426,D3,965.0,0.25,95,115.0
9427,D3,965.25,0.25,95,115.0
9428,F4,965.5,0.5,95,115.0
9429,C3,965.5,0.25,95,115.0
9430,C3,965.75,0.25,95,115.0
9431,D4,966.0,0.5,95,115.0
9432,C3,966.0,0.25,95,115.0
9433,C3,966.25,0.25,95,115.0
9434,A4,966.5,0.5,95,115.0
9435,B2,966.5,0.25,95,115.0
9436,B2,966.75,0.25,95,115.0
9437,E4,967.0,0.5,95,115.0
9438,B2,967.0,0.25,95,115.0
9439,B2,967.25,0.25,95,115.0
9440,F4,967.5,0.5,95,115.0
9441,A2,967.5,0.25,95,115.0
9442,C2,967.75,0.5,95,115.0
9443,C#3,967.75,0.5,95,115.0
9444,D4,968.0,0.5,95,115.0
9445,F1,968.0,3.5,95,115.0
9446,C2,968.25,3.75,95,115.0
9447,C#3,968.25,3.75,95,115.0
9448,A4,968.5,0.5,95,115.0
9449,E4,969.0,0.5,95,115.0
9450,F4,969.5,0.5,95,115.0
9451,D4,970.0,0.5,95,115.0
9452,A4,970.5,0.5,95,115.0
9453,D4,970.75,3.5,95,115.0
9454,A3,970.75,3.5,95,115.0
9455,D3,970.75,3.5,95,115.0
9456,E4,971.0,0.5,95,115.0
9457,F4,971.5,0.5,95,115.0
9458,A1,971.5,0.5,95,115.0
9459,D4,972.0,0.5,95,115.0
9460,G1,972.0,4.0,95,115.0
9461,D3,972.25,0.25,95,115.0
9462,A4,972.5,0.5,95,115.0
9463,D3,972.5,0.25,95,115.0
9464,D3,972.75,0.25,95,115.0
9465,E4,973.0,0.5,95,115.0
9466,D3,973.0,0.25,95,115.0
9467,C3,973.25,0.25,95,115.0
9468,F4,973.5,0.5,95,115.0
9469,C3,973.5,0.25,95,115.0
9470,C3,973.75,0.25,95,115.0
9471,D4,974.0,0.5,95,115.0
9472,C3,974.0,0.25,95,115.0
9473,B2,974.25,0.25,95,115.0
9474,G3,974.25,0.5,95,115.0
9475,D3,974.25,0.5,95,115.0
9476,G2,974.25,0.5,95,115.0
9477,A4,974.5,0.5,95,115.0
9478,B2,974.5,0.25,95,115.0
9479,B2,974.75,0.25,95,115.0
9480,C4,974.75,4.0,95,115.0
9481,G3,974.75,4.0,95,115.0
9482,C3,974.75,4.0,95,115.0
9483,E4,975.0,0.5,95,115.0
9484,B2,975.0,0.25,95,115.0
9485,A2,975.25,0.25,95,115.0
9486,F4,975.5,0.5,95,115.0
9487,A2,975.5,0.25,95,115.0
9488,C2,975.75,0.5,95,115.0
9489,C#3,975.75,0.5,95,115.0
9490,D4,976.0,0.5,95,115.0
9491,G1,976.0,3.5,95,115.0
9492,C2,976.25,3.75,95,115.0
9493,C#3,976.25,3.75,95,115.0
9494,A4,976.5,0.5,95,115.0
9495,E4,977.0,0.5,95,115.0
9496,F4,977.5,0.5,95,115.0
9497,D4,978.0,0.5,95,115.0
9498,A4,978.5,0.5,95,115.0
9499,E4,979.0,0.5,95,115.0
9500,F4,979.5,0.5,95,115.0
9501,B1,979.5,0.5,95,115.0
9502,D4,980.0,0.5,95,115.0
9503,A1,980.0,1.0,95,115.0
9504,A4,980.5,0.5,95,115.0
9505,D2,980.75,0.5,95,115.0
9506,E4,981.0,0.5,95,115.0
9507,A1,981.0,1.0,95,115.0
9508,F4,981.5,0.5,95,115.0
9509,B2,981.75,0.5,95,115.0
9510,D4,982.0,0.5,95,115.0
9511,A1,982.0,1.0,95,115.0
9512,A2,982.25,0.5,95,115.0
9513,C4,982.25,3.5,95,115.0
9514,G3,982.25,3.5,95,115.0
9515,C3,982.25,3.5,95,115.0
9516,A4,982.5,0.5,95,115.0
9517,E4,983.0,0.5,95,115.0
9518,A1,983.0,1.0,95,115.0
9519,D2,983.0,0.25,95,115.0
9520,D2,983.25,0.5,95,115.0
9521,F4,983.5,0.5,95,115.0
9522,C2,983.75,0.5,95,115.0
9523,D4,984.0,0.5,95,115.0
9524,A1,984.0,0.5,95,115.0
9525,B1,984.25,0.5,95,115.0
9526,C#3,984.25,0.5,95,115.0
9527,A4,984.5,0.5,95,115.0
9528,A1,984.5,0.5,95,115.0
9529,E4,985.0,0.5,95,115.0
9530,A1,985.0,0.5,95,115.0
9531,B1,985.25,0.5,95,115.0
9532,C#3,985.25,0.5,95,115.0
9533,F4,985.5,0.5,95,115.0
9534,A1,985.5,0.5,95,115.0
9535,F3,985.75,0.5,95,115.0
9536,C3,985.75,0.5,95,115.0
9537,F2,985.75,0.5,95,115.0
9538,D4,986.0,0.5,95,115.0
9539,A1,986.0,0.5,95,115.0
9540,B-3,986.25,4.0,95,115.0
9541,F3,986.25,4.0,95,115.0
9542,B-2,986.25,4.0,95,115.0
9543,B1,986.25,0.5,95,115.0
9544,C#3,986.25,0.5,95,115.0
9545,A4,986.5,0.5,95,115.0
9546,A1,986.5,0.5,95,115.0
9547,E4,987.0,0.5,95,115.0
9548,A1,987.0,0.5,95,115.0
9549,B1,987.25,0.5,95,115.0
9550,C#3,987.25,0.5,95,115.0
9551,F4,987.5,0.5,95,115.0
9552,A1,987.5,0.5,95,115.0
9553,D4,988.0,0.5,95,115.0
9554,A1,988.0,333/1000,95,115.0
9555,B1,988.25,0.5,95,115.0
9556,C#3,988.25,0.5,95,115.0
9557,A1,988.333,333/1000,95,115.0
9558,A4,988.5,0.5,95,115.0
9559,A1,988.667,333/1000,95,115.0
9560,B1,988.75,0.5,95,115.0
9561,C#3,988.75,0.5,95,115.0
9562,E4,989.0,0.5,95,115.0
9563,A1,989.0,333/1000,95,115.0
9564,B1,989.25,0.5,95,115.0
9565,C#3,989.25,0.5,95,115.0
9566,A1,989.333,333/1000,95,115.0
9567,F4,989.5,0.5,95,115.0
9568,A1,989.667,333/1000,95,115.0
9569,B1,989.75,0.5,95,115.0
9570,C#3,989.75,0.5,95,115.0
9571,D4,990.0,0.5,95,115.0
9572,A1,990.0,333/1000,95,115.0
9573,B1,990.25,0.5,95,115.0
9574,C#3,990.25,0.5,95,115.0
9575,A1,990.333,333/1000,95,115.0
9576,A4,990.5,0.5,95,115.0
9577,A1,990.667,333/1000,95,115.0
9578,B1,990.75,0.5,95,115.0
9579,C#3,990.75,0.5,95,115.0
9580,E4,991.0,0.5,95,115.0
9581,A1,991.0,333/1000,95,115.0
9582,B1,991.25,0.5,95,115.0
9583,C#3,991.25,0.5,95,115.0
9584,A1,991.333,333/1000,95,115.0
9585,F4,991.5,0.5,95,115.0
9586,A1,991.667,333/1000,95,115.0
9587,B1,991.75,0.5,95,115.0
9588,C#3,991.75,0.5,95,115.0
9589,D4,992.0,0.5,95,115.0
9590,A1,992.0,0.25,95,115.0
9591,A1,992.25,0.25,95,115.0
9592,B1,992.25,333/1000,95,115.0
9593,C#3,992.25,333/1000,95,115.0
9594,A4,992.5,0.5,95,115.0
9595,A1,992.5,0.25,95,115.0
9596,B1,992.583,333/1000,95,115.0
9597,C#3,992.583,333/1000,95,115.0
9598,A1,992.75,0.25,95,115.0
9599,B1,992.917,333/1000,95,115.0
9600,C#3,992.917,333/1000,95,115.0
9601,E4,993.0,0.5,95,115.0
9602,A1,993.0,0.25,95,115.0
9603,A1,993.25,0.25,95,115.0
9604,B1,993.25,333/1000,95,115.0
9605,C#3,993.25,333/1000,95,115.0
9606,F4,993.5,0.5,95,115.0
9607,A1,993.5,0.25,95,115.0
9608,B1,993.583,333/1000,95,115.0
9609,C#3,993.583,333/1000,95,115.0
9610,A1,993.75,0.25,95,115.0
9611,B-3,993.75,3.5,95,115.0
9612,F3,993.75,3.5,95,115.0
9613,B-2,993.75,3.5,95,115.0
9614,B1,993.917,333/1000,95,115.0
9615,C#3,993.917,333/1000,95,115.0
9616,D4,994.0,0.5,95,115.0
9617,A1,994.0,0.25,95,115.0
9618,A1,994.25,0.25,95,115.0
9619,B1,994.25,333/1000,95,115.0
9620,C#3,994.25,333/1000,95,115.0
9621,A4,994.5,0.5,95,115.0
9622,A1,994.5,0.25,95,115.0
9623,B1,994.583,333/1000,95,115.0
9624,C#3,994.583,333/1000,95,115.0
9625,A1,994.75,0.25,95,115.0
9626,B1,994.917,333/1000,95,115.0
9627,C#3,994.917,333/1000,95,115.0
9628,E4,995.0,0.5,95,115.0
9629,A1,995.0,0.25,95,115.0
9630,A1,995.25,0.25,95,115.0
9631,B1,995.25,333/1000,95,115.0
9632,C#3,995.25,333/1000,95,115.0
9633,F4,995.5,0.5,95,115.0
9634,A1,995.5,0.25,95,115.0
9635,B1,995.583,333/1000,95,115.0
9636,C#3,995.583,333/1000,95,115.0
9637,A1,995.75,0.25,95,115.0
9638,B1,995.917,333/1000,95,115.0
9639,C#3,995.917,333/1000,95,115.0
9640,D4,996.0,0.5,95,115.0
9641,A1,996.0,4.0,95,115.0
9642,B1,996.25,0.25,95,115.0
9643,C#3,996.25,0.25,95,115.0
9644,A4,996.5,0.5,95,115.0
9645,B1,996.5,0.25,95,115.0
9646,C#3,996.5,0.25,95,115.0
9647,B1,996.75,0.25,95,115.0
9648,C#3,996.75,0.25,95,115.0
9649,E4,997.0,0.5,95,115.0
9650,B1,997.0,0.25,95,115.0
9651,C#3,997.0,0.25,95,115.0
9652,G3,997.25,0.5,95,115.0
9653,D3,997.25,0.5,95,115.0
9654,G2,997.25,0.5,95,115.0
9655,B1,997.25,0.25,95,115.0
9656,C#3,997.25,0.25,95,115.0
9657,F4,997.5,0.5,95,115.0
9658,B1,997.5,0.25,95,115.0
9659,C#3,997.5,0.25,95,115.0
9660,C3,997.75,4.0,95,115.0
9661,C4,997.75,4.0,95,115.0
9662,G3,997.75,4.0,95,115.0
9663,B1,997.75,0.25,95,115.0
9664,C#3,997.75,0.25,95,115.0
9665,D4,998.0,0.5,95,115.0
9666,B1,998.0,0.25,95,115.0
9667,C#3,998.0,0.25,95,115.0
9668,B1,998.25,0.25,95,115.0
9669,C#3,998.25,0.25,95,115.0
9670,A4,998.5,0.5,95,115.0
9671,B1,998.5,0.25,95,115.0
9672,C#3,998.5,0.25,95,115.0
9673,B1,998.75,0.25,95,115.0
9674,C#3,998.75,0.25,95,115.0
9675,E4,999.0,0.5,95,115.0
9676,B1,999.0,0.25,95,115.0
9677,C#3,999.0,0.25,95,115.0
9678,B1,999.25,0.25,95,115.0
9679,C#3,999.25,0.25,95,115.0
9680,F4,999.5,0.5,95,115.0
9681,B1,999.5,0.25,95,115.0
9682,C#3,999.5,0.25,95,115.0
9683,B1,999.75,0.25,95,115.0
9684,C#3,999.75,0.25,95,115.0
9685,D4,1000.0,0.5,95,115.0
9686,A1,1000.0,4.0,95,115.0
9687,B1,1000.0,0.25,95,115.0
9688,C#3,1000.0,0.25,95,115.0
9689,B1,1000.25,167/1000,95,115.0
9690,C#3,1000.25,167/1000,95,115.0
9691,B1,1000.417,167/1000,95,115.0
9692,C#3,1000.417,167/1000,95,115.0
9693,A4,1000.5,0.5,95,115.0
9694,B1,1000.583,167/1000,95,115.0
9695,C#3,1000.583,167/1000,95,115.0
9696,B1,1000.75,167/1000,95,115.0
9697,C#3,1000.75,167/1000,95,115.0
9698,B1,1000.917,167/1000,95,115.0
9699,C#3,1000.917,167/1000,95,115.0
9700,E4,1001.0,0.5,95,115.0
9701,B1,1001.083,167/1000,95,115.0
9702,C#3,1001.083,167/1000,95,115.0
9703,B1,1001.25,167/1000,95,115.0
9704,C#3,1001.25,167/1000,95,115.0
9705,B1,1001.417,167/1000,95,115.0
9706,C#3,1001.417,167/1000,95,115.0
9707,F4,1001.5,0.5,95,115.0
9708,B1,1001.583,167/1000,95,115.0
9709,C#3,1001.583,167/1000,95,115.0
9710,B1,1001.75,167/1000,95,115.0
9711,C#3,1001.75,167/1000,95,115.0
9712,B1,1001.917,167/1000,95,115.0
9713,C#3,1001.917,167/1000,95,115.0
9714,D4,1002.0,0.5,95,115.0
9715,B1,1002.083,167/1000,95,115.0
9716,C#3,1002.083,167/1000,95,115.0
9717,B1,1002.25,167/1000,95,115.0
9718,C#3,1002.25,167/1000,95,115.0
9719,B1,1002.417,167/1000,95,115.0
9720,C#3,1002.417,167/1000,95,115.0
9721,A4,1002.5,0.5,95,115.0
9722,B1,1002.583,167/1000,95,115.0
9723,C#3,1002.583,167/1000,95,115.0
9724,B1,1002.75,167/1000,95,115.0
9725,C#3,1002.75,167/1000,95,115.0
9726,B1,1002.917,167/1000,95,115.0
9727,C#3,1002.917,167/1000,95,115.0
9728,E4,1003.0,0.5,95,115.0
9729,B1,1003.083,167/1000,95,115.0
9730,C#3,1003.083,167/1000,95,115.0
9731,B1,1003.25,167/1000,95,115.0
9732,C#3,1003.25,167/1000,95,115.0
9733,B1,1003.417,167/1000,95,115.0
9734,C#3,1003.417,167/1000,95,115.0
9735,F4,1003.5,0.5,95,115.0
9736,B1,1003.583,167/1000,95,115.0
9737,C#3,1003.583,167/1000,95,115.0
9738,B1,1003.75,167/1000,95,115.0
9739,C#3,1003.75,167/1000,95,115.0
9740,B1,1003.917,167/1000,95,115.0
9741,C#3,1003.917,167/1000,95,115.0
9742,D4,1004.0,0.5,95,115.0
9743,A1,1004.0,4.0,95,115.0
9744,B1,1004.083,167/1000,95,115.0
9745,C#3,1004.083,167/1000,95,115.0
9746,B1,1004.25,0.125,95,115.0
9747,C#3,1004.25,0.125,95,115.0
9748,B1,1004.375,0.125,95,115.0
9749,C#3,1004.375,0.125,95,115.0
9750,A4,1004.5,0.5,95,115.0
9751,B1,1004.5,0.125,95,115.0
9752,C#3,1004.5,0.125,95,115.0
9753,B1,1004.625,0.125,95,115.0
9754,C#3,1004.625,0.125,95,115.0
9755,B1,1004.75,0.125,95,115.0
9756,C#3,1004.75,0.125,95,115.0
9757,B1,1004.875,0.125,95,115.0
9758,C#3,1004.875,0.125,95,115.0
9759,E4,1005.0,0.5,95,115.0
9760,B1,1005.0,0.125,95,115.0
9761,C#3,1005.0,0.125,95,115.0
9762,B1,1005.125,0.125,95,115.0
9763,C#3,1005.125,0.125,95,115.0
9764,C4,1005.25,3.5,95,115.0
9765,G3,1005.25,3.5,95,115.0
9766,B1,1005.25,0.125,95,115.0
9767,C#3,1005.25,0.125,95,115.0
9768,B1,1005.375,0.125,95,115.0
9769,C#3,1005.375,0.125,95,115.0
9770,F4,1005.5,0.5,95,115.0
9771,B1,1005.5,0.125,95,115.0
9772,C#3,1005.5,0.125,95,115.0
9773,B1,1005.625,0.125,95,115.0
9774,C#3,1005.625,0.125,95,115.0
9775,B1,1005.75,0.125,95,115.0
9776,C#3,1005.75,0.125,95,115.0
9777,B1,1005.875,0.125,95,115.0
9778,C#3,1005.875,0.125,95,115.0
9779,D4,1006.0,0.5,95,115.0
9780,B1,1006.0,0.125,95,115.0
9781,C#3,1006.0,0.125,95,115.0
9782,B1,1006.125,0.125,95,115.0
9783,C#3,1006.125,0.125,95,115.0
9784,B1,1006.25,0.125,95,115.0
9785,C#3,1006.25,0.125,95,115.0
9786,B1,1006.375,0.125,95,115.0
9787,C#3,1006.375,0.125,95,115.0
9788,A4,1006.5,0.5,95,115.0
9789,B1,1006.5,0.125,95,115.0
9790,C#3,1006.5,0.125,95,115.0
9791,B1,1006.625,0.125,95,115.0
9792,C#3,1006.625,0.125,95,115.0
9793,B1,1006.75,0.125,95,115.0
9794,C#3,1006.75,0.125,95,115.0
9795,B1,1006.875,0.125,95,115.0
9796,C#3,1006.875,0.125,95,115.0
9797,E4,1007.0,0.5,95,115.0
9798,B1,1007.0,0.125,95,115.0
9799,C#3,1007.0,0.125,95,115.0
9800,B1,1007.125,0.125,95,115.0
9801,C#3,1007.125,0.125,95,115.0
9802,B1,1007.25,0.125,95,115.0
9803,C#3,1007.25,0.125,95,115.0
9804,B1,1007.375,0.125,95,115.0
9805,C#3,1007.375,0.125,95,115.0
9806,F4,1007.5,0.5,95,115.0
9807,B1,1007.5,0.125,95,115.0
9808,C#3,1007.5,0.125,95,115.0
9809,B1,1007.625,0.125,95,115.0
9810,C#3,1007.625,0.125,95,115.0
9811,B1,1007.75,0.125,95,115.0
9812,C#3,1007.75,0.125,95,115.0
9813,B1,1007.875,0.125,95,115.0
9814,C#3,1007.875,0.125,95,115.0
9815,D4,1008.0,0.5,95,115.0
9816,A1,1008.0,4.0,95,115.0
9817,B1,1008.0,0.125,95,115.0
9818,C#3,1008.0,0.125,95,115.0
9819,B1,1008.125,0.125,95,115.0
9820,C#3,1008.125,0.125,95,115.0
9821,B1,1008.25,83/1000,95,115.0
9822,C#3,1008.25,83/1000,95,115.0
9823,B1,1008.333,83/1000,95,115.0
9824,C#3,1008.333,83/1000,95,115.0
9825,B1,1008.417,83/1000,95,115.0
9826,C#3,1008.417,83/1000,95,115.0
9827,A4,1008.5,0.5,95,115.0
9828,B1,1008.5,83/1000,95,115.0
9829,C#3,1008.5,83/1000,95,115.0
9830,B1,1008.583,83/1000,95,115.0
9831,C#3,1008.583,83/1000,95,115.0
9832,B1,1008.667,83/1000,95,115.0
9833,C#3,1008.667,83/1000,95,115.0
9834,A3,1008.75,0.5,95,115.0
9835,E3,1008.75,0.5,95,115.0
9836,A2,1008.75,0.5,95,115.0
9837,B1,1008.75,83/1000,95,115.0
9838,C#3,1008.75,83/1000,95,115.0
9839,B1,1008.833,83/1000,95,115.0
9840,C#3,1008.833,83/1000,95,115.0
9841,B1,1008.917,83/1000,95,115.0
9842,C#3,1008.917,83/1000,95,115.0
9843,E4,1009.0,0.5,95,115.0
9844,B1,1009.0,83/1000,95,115.0
9845,C#3,1009.0,83/1000,95,115.0
9846,B1,1009.083,83/1000,95,115.0
9847,C#3,1009.083,83/1000,95,115.0
9848,B1,1009.167,83/1000,95,115.0
9849,C#3,1009.167,83/1000,95,115.0
9850,D4,1009.25,1.0,95,115.0
9851,A3,1009.25,1.0,95,115.0
9852,D3,1009.25,1.0,95,115.0
9853,B1,1009.25,83/1000,95,115.0
9854,C#3,1009.25,83/1000,95,115.0
9855,B1,1009.333,83/1000,95,115.0
9856,C#3,1009.333,83/1000,95,115.0
9857,B1,1009.417,83/1000,95,115.0
9858,C#3,1009.417,83/1000,95,115.0
9859,F4,1009.5,0.5,95,115.0
9860,B1,1009.5,83/1000,95,115.0
9861,C#3,1009.5,83/1000,95,115.0
9862,B1,1009.583,83/1000,95,115.0
9863,C#3,1009.583,83/1000,95,115.0
9864,B1,1009.667,83/1000,95,115.0
9865,C#3,1009.667,83/1000,95,115.0
9866,B1,1009.75,83/1000,95,115.0
9867,C#3,1009.75,83/1000,95,115.0
9868,B1,1009.833,83/1000,95,115.0
9869,C#3,1009.833,83/1000,95,115.0
9870,B1,1009.917,83/1000,95,115.0
9871,C#3,1009.917,83/1000,95,115.0
9872,D4,1010.0,0.5,95,115.0
9873,B1,1010.0,83/1000,95,115.0
9874,C#3,1010.0,83/1000,95,115.0
9875,B1,1010.083,83/1000,95,115.0
9876,C#3,1010.083,83/1000,95,115.0
9877,B1,1010.167,83/1000,95,115.0
9878,C#3,1010.167,83/1000,95,115.0
9879,D4,1010.25,1.0,95,115.0
9880,A3,1010.25,1.0,95,115.0
9881,D3,1010.25,1.0,95,115.0
9882,B1,1010.25,83/1000,95,115.0
9883,C#3,1010.25,83/1000,95,115.0
9884,B1,1010.333,83/1000,95,115.0
9885,C#3,1010.333,83/1000,95,115.0
9886,B1,1010.417,83/1000,95,115.0
9887,C#3,1010.417,83/1000,95,115.0
9888,A4,1010.5,0.5,95,115.0
9889,B1,1010.5,83/1000,95,115.0
9890,C#3,1010.5,83/1000,95,115.0
9891,B1,1010.583,83/1000,95,115.0
9892,C#3,1010.583,83/1000,95,115.0
9893,B1,1010.667,83/1000,95,115.0
9894,C#3,1010.667,83/1000,95,115.0
9895,B1,1010.75,83/1000,95,115.0
9896,C#3,1010.75,83/1000,95,115.0
9897,B1,1010.833,83/1000,95,115.0
9898,C#3,1010.833,83/1000,95,115.0
9899,B1,1010.917,83/1000,95,115.0
9900,C#3,1010.917,83/1000,95,115.0
9901,E4,1011.0,0.5,95,115.0
9902,B1,1011.0,83/1000,95,115.0
9903,C#3,1011.0,83/1000,95,115.0
9904,B1,1011.083,83/1000,95,115.0
9905,C#3,1011.083,83/1000,95,115.0
9906,B1,1011.167,83/1000,95,115.0
9907,C#3,1011.167,83/1000,95,115.0
9908,D4,1011.25,1.0,95,115.0
9909,A3,1011.25,1.0,95,115.0
9910,D3,1011.25,1.0,95,115.0
9911,B1,1011.25,83/1000,95,115.0
9912,C#3,1011.25,83/1000,95,115.0
9913,B1,1011.333,83/1000,95,115.0
9914,C#3,1011.333,83/1000,95,115.0
9915,B1,1011.417,83/1000,95,115.0
9916,C#3,1011.417,83/1000,95,115.0
9917,F4,1011.5,0.5,95,115.0
9918,B1,1011.5,83/1000,95,115.0
9919,C#3,1011.5,83/1000,95,115.0
9920,B1,1011.583,83/1000,95,115.0
9921,C#3,1011.583,83/1000,95,115.0
9922,B1,1011.667,83/1000,95,115.0
9923,C#3,1011.667,83/1000,95,115.0
9924,B1,1011.75,83/1000,95,115.0
9925,C#3,1011.75,83/1000,95,115.0
9926,B1,1011.833,83/1000,95,115.0
9927,C#3,1011.833,83/1000,95,115.0
9928,B1,1011.917,83/1000,95,115.0
9929,C#3,1011.917,83/1000,95,115.0
9930,D4,1012.0,1.0,95,115.0
9931,A1,1012.0,1.0,95,115.0
9932,B1,1012.0,83/1000,95,115.0
9933,C#3,1012.0,83/1000,95,115.0
9934,B1,1012.083,83/1000,95,115.0
9935,C#3,1012.083,83/1000,95,115.0
9936,B1,1012.167,83/1000,95,115.0
9937,C#3,1012.167,83/1000,95,115.0
9938,D4,1012.25,1.0,95,115.0
9939,A3,1012.25,1.0,95,115.0
9940,D3,1012.25,1.0,95,115.0
9941,B1,1012.25,83/1000,95,115.0
9942,C#3,1012.25,83/1000,95,115.0
9943,B1,1012.333,83/1000,95,115.0
9944,C#3,1012.333,83/1000,95,115.0
9945,B1,1012.417,83/1000,95,115.0
9946,C#3,1012.417,83/1000,95,115.0
9947,B1,1012.5,83/1000,95,115.0
9948,C#3,1012.5,83/1000,95,115.0
9949,B1,1012.583,83/1000,95,115.0
9950,C#3,1012.583,83/1000,95,115.0
9951,B1,1012.667,83/1000,95,115.0
9952,C#3,1012.667,83/1000,95,115.0
9953,B1,1012.75,83/1000,95,115.0
9954,C#3,1012.75,83/1000,95,115.0
9955,B1,1012.833,83/1000,95,115.0
9956,C#3,1012.833,83/1000,95,115.0
9957,B1,1012.917,83/1000,95,115.0
9958,C#3,1012.917,83/1000,95,115.0
9959,A4,1013.0,1.0,95,115.0
9960,A1,1013.0,1.0,95,115.0
9961,B1,1013.0,83/1000,95,115.0
9962,C#3,1013.0,83/1000,95,115.0
9963,B1,1013.083,83/1000,95,115.0
9964,C#3,1013.083,83/1000,95,115.0
9965,B1,1013.167,83/1000,95,115.0
9966,C#3,1013.167,83/1000,95,115.0
9967,D4,1013.25,0.5,95,115.0
9968,A3,1013.25,0.5,95,115.0
9969,D3,1013.25,0.5,95,115.0
9970,B1,1013.25,83/1000,95,115.0
9971,C#3,1013.25,83/1000,95,115.0
9972,B1,1013.333,83/1000,95,115.0
9973,C#3,1013.333,83/1000,95,115.0
9974,B1,1013.417,83/1000,95,115.0
9975,C#3,1013.417,83/1000,95,115.0
9976,B1,1013.5,83/1000,95,115.0
9977,C#3,1013.5,83/1000,95,115.0
9978,B1,1013.583,83/1000,95,115.0
9979,C#3,1013.583,83/1000,95,115.0
9980,B1,1013.667,83/1000,95,115.0
9981,C#3,1013.667,83/1000,95,115.0
9982,D4,1013.75,0.5,95,115.0
9983,A3,1013.75,0.5,95,115.0
9984,D3,1013.75,0.5,95,115.0
9985,B1,1013.75,83/1000,95,115.0
9986,C#3,1013.75,83/1000,95,115.0
9987,B1,1013.833,83/1000,95,115.0
9988,C#3,1013.833,83/1000,95,115.0
9989,B1,1013.917,83/1000,95,115.0
9990,C#3,1013.917,83/1000,95,115.0
9991,E4,1014.0,1.0,95,115.0
9992,A1,1014.0,1.0,95,115.0
9993,B1,1014.0,83/1000,95,115.0
9994,C#3,1014.0,83/1000,95,115.0
9995,B1,1014.083,83/1000,95,115.0
9996,C#3,1014.083,83/1000,95,115.0
9997,B1,1014.167,83/1000,95,115.0
9998,C#3,1014.167,83/1000,95,115.0
9999,D4,1014.25,0.5,95,115.0
10000,A3,1014.25,0.5,95,115.0
10001,D3,1014.25,0.5,95,115.0
10002,B1,1014.25,83/1000,95,115.0
10003,C#3,1014.25,83/1000,95,115.0
10004,B1,1014.333,83/1000,95,115.0
10005,C#3,1014.333,83/1000,95,115.0
10006,B1,1014.417,83/1000,95,115.0
10007,C#3,1014.417,83/1000,95,115.0
10008,B1,1014.5,83/1000,95,115.0
10009,C#3,1014.5,83/1000,95,115.0
10010,B1,1014.583,83/1000,95,115.0
10011,C#3,1014.583,83/1000,95,115.0
10012,B1,1014.667,83/1000,95,115.0
10013,C#3,1014.667,83/1000,95,115.0
10014,D4,1014.75,0.5,95,115.0
10015,A3,1014.75,0.5,95,115.0
10016,D3,1014.75,0.5,95,115.0
10017,B1,1014.75,83/1000,95,115.0
10018,C#3,1014.75,83/1000,95,115.0
10019,B1,1014.833,83/1000,95,115.0
10020,C#3,1014.833,83/1000,95,115.0
10021,B1,1014.917,83/1000,95,115.0
10022,C#3,1014.917,83/1000,95,115.0
10023,F4,1015.0,1.0,95,115.0
10024,A1,1015.0,1.0,95,115.0
10025,B1,1015.0,83/1000,95,115.0
10026,C#3,1015.0,83/1000,95,115.0
10027,B1,1015.083,83/1000,95,115.0
10028,C#3,1015.083,83/1000,95,115.0
10029,B1,1015.167,83/1000,95,115.0
10030,C#3,1015.167,83/1000,95,115.0
10031,D4,1015.25,0.5,95,115.0
10032,A3,1015.25,0.5,95,115.0
10033,D3,1015.25,0.5,95,115.0
10034,B1,1015.25,83/1000,95,115.0
10035,C#3,1015.25,83/1000,95,115.0
10036,B1,1015.333,83/1000,95,115.0
10037,C#3,1015.333,83/1000,95,115.0
10038,B1,1015.417,83/1000,95,115.0
10039,C#3,1015.417,83/1000,95,115.0
10040,B1,1015.5,83/1000,95,115.0
10041,C#3,1015.5,83/1000,95,115.0
10042,B1,1015.583,83/1000,95,115.0
10043,C#3,1015.583,83/1000,95,115.0
10044,B1,1015.667,83/1000,95,115.0
10045,C#3,1015.667,83/1000,95,115.0
10046,D4,1015.75,0.5,95,115.0
10047,A3,1015.75,0.5,95,115.0
10048,D3,1015.75,0.5,95,115.0
10049,B1,1015.75,83/1000,95,115.0
10050,C#3,1015.75,83/1000,95,115.0
10051,B1,1015.833,83/1000,95,115.0
10052,C#3,1015.833,83/1000,95,115.0
10053,B1,1015.917,83/1000,95,115.0
10054,C#3,1015.917,83/1000,95,115.0
10055,A1,1016.0,4.0,95,115.0
10056,D4,1016.0,4.0,95,115.0
10057,A3,1016.0,4.0,95,115.0
10058,D3,1016.0,4.0,95,115.0
10059,B1,1016.0,83/1000,95,115.0
10060,C#3,1016.0,83/1000,95,115.0
10061,B1,1016.083,83/1000,95,115.0
10062,C#3,1016.083,83/1000,95,115.0
10063,B1,1016.167,83/1000,95,115.0
10064,C#3,1016.167,83/1000,95,115.0
10065,D4,1016.25,0.5,95,115.0
10066,A3,1016.25,0.5,95,115.0
10067,D3,1016.25,0.5,95,115.0
10068,B1,1016.25,1.0,95,115.0
10069,C#3,1016.25,1.0,95,115.0
10070,D4,1016.75,0.5,95,115.0
10071,A3,1016.75,0.5,95,115.0
10072,D3,1016.75,0.5,95,115.0
10073,D4,1017.25,333/1000,95,115.0
10074,A3,1017.25,333/1000,95,115.0
10075,D3,1017.25,333/1000,95,115.0
10076,B1,1017.25,1.0,95,115.0
10077,C#3,1017.25,1.0,95,115.0
10078,D4,1017.583,333/1000,95,115.0
10079,A3,1017.583,333/1000,95,115.0
10080,D3,1017.583,333/1000,95,115.0
10081,D4,1017.917,333/1000,95,115.0
10082,A3,1017.917,333/1000,95,115.0
10083,D3,1017.917,333/1000,95,115.0
10084,D4,1018.25,333/1000,95,115.0
10085,A3,1018.25,333/1000,95,115.0
10086,D3,1018.25,333/1000,95,115.0
10087,B1,1018.25,1.0,95,115.0
10088,C#3,1018.25,1.0,95,115.0
10089,D4,1018.583,333/1000,95,115.0
10090,A3,1018.583,333/1000,95,115.0
10091,D3,1018.583,333/1000,95,115.0
10092,D4,1018.917,333/1000,95,115.0
10093,A3,1018.917,333/1000,95,115.0
10094,D3,1018.917,333/1000,95,115.0
10095,D4,1019.25,333/1000,95,115.0
10096,A3,1019.25,333/1000,95,115.0
10097,D3,1019.25,333/1000,95,115.0
10098,B1,1019.25,1.0,95,115.0
10099,C#3,1019.25,1.0,95,115.0
10100,D4,1019.583,333/1000,95,115.0
10101,A3,1019.583,333/1000,95,115.0
10102,D3,1019.583,333/1000,95,115.0
10103,D4,1019.917,333/1000,95,115.0
10104,A3,1019.917,333/1000,95,115.0
10105,D3,1019.917,333/1000,95,115.0
10106,A1,1020.0,4.0,95,115.0
10107,D4,1020.25,333/1000,95,115.0
10108,A3,1020.25,333/1000,95,115.0
10109,D3,1020.25,333/1000,95,115.0
10110,B1,1020.25,83/1000,95,115.0
10111,C#3,1020.25,83/1000,95,115.0
10112,B1,1020.333,83/1000,95,115.0
10113,C#3,1020.333,83/1000,95,115.0
10114,B1,1020.417,83/1000,95,115.0
10115,C#3,1020.417,83/1000,95,115.0
10116,B1,1020.5,83/1000,95,115.0
10117,C#3,1020.5,83/1000,95,115.0
10118,D4,1020.583,333/1000,95,115.0
10119,A3,1020.583,333/1000,95,115.0
10120,D3,1020.583,333/1000,95,115.0
10121,B1,1020.583,83/1000,95,115.0
10122,C#3,1020.583,83/1000,95,115.0
10123,B1,1020.667,83/1000,95,115.0
10124,C#3,1020.667,83/1000,95,115.0
10125,B1,1020.75,83/1000,95,115.0
10126,C#3,1020.75,83/1000,95,115.0
10127,B1,1020.833,83/1000,95,115.0
10128,C#3,1020.833,83/1000,95,115.0
10129,D4,1020.917,333/1000,95,115.0
10130,A3,1020.917,333/1000,95,115.0
10131,D3,1020.917,333/1000,95,115.0
10132,B1,1020.917,83/1000,95,115.0
10133,C#3,1020.917,83/1000,95,115.0
10134,B1,1021.0,83/1000,95,115.0
10135,C#3,1021.0,83/1000,95,115.0
10136,B1,1021.083,83/1000,95,115.0
10137,C#3,1021.083,83/1000,95,115.0
10138,B1,1021.167,83/1000,95,115.0
10139,C#3,1021.167,83/1000,95,115.0
10140,D4,1021.25,0.25,95,115.0
10141,A3,1021.25,0.25,95,115.0
10142,D3,1021.25,0.25,95,115.0
10143,B1,1021.25,83/1000,95,115.0
10144,C#3,1021.25,83/1000,95,115.0
10145,B1,1021.333,83/1000,95,115.0
10146,C#3,1021.333,83/1000,95,115.0
10147,B1,1021.417,83/1000,95,115.0
10148,C#3,1021.417,83/1000,95,115.0
10149,D4,1021.5,0.25,95,115.0
10150,A3,1021.5,0.25,95,115.0
10151,D3,1021.5,0.25,95,115.0
10152,B1,1021.5,83/1000,95,115.0
10153,C#3,1021.5,83/1000,95,115.0
10154,B1,1021.583,83/1000,95,115.0
10155,C#3,1021.583,83/1000,95,115.0
10156,B1,1021.667,83/1000,95,115.0
10157,C#3,1021.667,83/1000,95,115.0
10158,D4,1021.75,0.25,95,115.0
10159,A3,1021.75,0.25,95,115.0
10160,D3,1021.75,0.25,95,115.0
10161,B1,1021.75,83/1000,95,115.0
10162,C#3,1021.75,83/1000,95,115.0
10163,B1,1021.833,83/1000,95,115.0
10164,C#3,1021.833,83/1000,95,115.0
10165,B1,1021.917,83/1000,95,115.0
10166,C#3,1021.917,83/1000,95,115.0
10167,D4,1022.0,0.25,95,115.0
10168,A3,1022.0,0.25,95,115.0
10169,D3,1022.0,0.25,95,115.0
10170,B1,1022.0,83/1000,95,115.0
10171,C#3,1022.0,83/1000,95,115.0
10172,B1,1022.083,83/1000,95,115.0
10173,C#3,1022.083,83/1000,95,115.0
10174,B1,1022.167,83/1000,95,115.0
10175,C#3,1022.167,83/1000,95,115.0
10176,D4,1022.25,0.25,95,115.0
10177,A3,1022.25,0.25,95,115.0
10178,D3,1022.25,0.25,95,115.0
10179,B1,1022.25,83/1000,95,115.0
10180,C#3,1022.25,83/1000,95,115.0
10181,B1,1022.333,83/1000,95,115.0
10182,C#3,1022.333,83/1000,95,115.0
10183,B1,1022.417,83/1000,95,115.0
10184,C#3,1022.417,83/1000,95,115.0
10185,D4,1022.5,0.25,95,115.0
10186,A3,1022.5,0.25,95,115.0
10187,D3,1022.5,0.25,95,115.0
10188,B1,1022.5,83/1000,95,115.0
10189,C#3,1022.5,83/1000,95,115.0
10190,B1,1022.583,83/1000,95,115.0
10191,C#3,1022.583,83/1000,95,115.0
10192,B1,1022.667,83/1000,95,115.0
10193,C#3,1022.667,83/1000,95,115.0
10194,D4,1022.75,0.25,95,115.0
10195,A3,1022.75,0.25,95,115.0
10196,D3,1022.75,0.25,95,115.0
10197,B1,1022.75,83/1000,95,115.0
10198,C#3,1022.75,83/1000,95,115.0
10199,B1,1022.833,83/1000,95,115.0
10200,C#3,1022.833,83/1000,95,115.0
10201,B1,1022.917,83/1000,95,115.0
10202,C#3,1022.917,83/1000,95,115.0
10203,D4,1023.0,0.25,95,115.0
10204,A3,1023.0,0.25,95,115.0
10205,D3,1023.0,0.25,95,115.0
10206,B1,1023.0,83/1000,95,115.0
10207,C#3,1023.0,83/1000,95,115.0
10208,B1,1023.083,83/1000,95,115.0
10209,C#3,1023.083,83/1000,95,115.0
10210,B1,1023.167,83/1000,95,115.0
10211,C#3,1023.167,83/1000,95,115.0
10212,D4,1023.25,0.25,95,115.0
10213,A3,1023.25,0.25,95,115.0
10214,D3,1023.25,0.25,95,115.0
10215,B1,1023.25,83/1000,95,115.0
10216,C#3,1023.25,83/1000,95,115.0
10217,B1,1023.333,83/1000,95,115.0
10218,C#3,1023.333,83/1000,95,115.0
10219,B1,1023.417,83/1000,95,115.0
10220,C#3,1023.417,83/1000,95,115.0
10221,D4,1023.5,0.25,95,115.0
10222,A3,1023.5,0.25,95,115.0
10223,D3,1023.5,0.25,95,115.0
10224,B1,1023.5,83/1000,95,115.0
10225,C#3,1023.5,83/1000,95,115.0
10226,B1,1023.583,83/1000,95,115.0
10227,C#3,1023.583,83/1000,95,115.0
10228,B1,1023.667,83/1000,95,115.0
10229,C#3,1023.667,83/1000,95,115.0
10230,D4,1023.75,0.25,95,115.0
10231,A3,1023.75,0.25,95,115.0
10232,D3,1023.75,0.25,95,115.0
10233,B1,1023.75,83/1000,95,115.0
10234,C#3,1023.75,83/1000,95,115.0
10235,B1,1023.833,83/1000,95,115.0
10236,C#3,1023.833,83/1000,95,115.0
10237,B1,1023.917,83/1000,95,115.0
10238,C#3,1023.917,83/1000,95,115.0
10239,A1,1024.0,4.0,95,115.0
10240,D4,1024.0,0.25,95,115.0
10241,A3,1024.0,0.25,95,115.0
10242,D3,1024.0,0.25,95,115.0
10243,B1,1024.0,83/1000,95,115.0
10244,C#3,1024.0,83/1000,95,115.0
10245,B1,1024.083,83/1000,95,115.0
10246,C#3,1024.083,83/1000,95,115.0
10247,B1,1024.167,83/1000,95,115.0
10248,C#3,1024.167,83/1000,95,115.0
10249,D4,1024.25,0.25,95,115.0
10250,A3,1024.25,0.25,95,115.0
10251,D3,1024.25,0.25,95,115.0
10252,B1,1024.25,83/1000,95,115.0
10253,C#3,1024.25,83/1000,95,115.0
10254,B1,1024.333,83/1000,95,115.0
10255,C#3,1024.333,83/1000,95,115.0
10256,B1,1024.417,83/1000,95,115.0
10257,C#3,1024.417,83/1000,95,115.0
10258,D4,1024.5,0.25,95,115.0
10259,A3,1024.5,0.25,95,115.0
10260,D3,1024.5,0.25,95,115.0
10261,B1,1024.5,83/1000,95,115.0
10262,C#3,1024.5,83/1000,95,115.0
10263,B1,1024.583,83/1000,95,115.0
10264,C#3,1024.583,83/1000,95,115.0
10265,B1,1024.667,83/1000,95,115.0
10266,C#3,1024.667,83/1000,95,115.0
10267,D4,1024.75,0.25,95,115.0
10268,A3,1024.75,0.25,95,115.0
10269,D3,1024.75,0.25,95,115.0
10270,B1,1024.75,83/1000,95,115.0
10271,C#3,1024.75,83/1000,95,115.0
10272,B1,1024.833,83/1000,95,115.0
10273,C#3,1024.833,83/1000,95,115.0
10274,B1,1024.917,83/1000,95,115.0
10275,C#3,1024.917,83/1000,95,115.0
10276,D4,1025.0,0.25,95,115.0
10277,A3,1025.0,0.25,95,115.0
10278,D3,1025.0,0.25,95,115.0
10279,B1,1025.0,83/1000,95,115.0
10280,C#3,1025.0,83/1000,95,115.0
10281,B1,1025.083,83/1000,95,115.0
10282,C#3,1025.083,83/1000,95,115.0
10283,B1,1025.167,83/1000,95,115.0
10284,C#3,1025.167,83/1000,95,115.0
10285,D4,1025.25,4.0,95,115.0
10286,A3,1025.25,4.0,95,115.0
10287,D3,1025.25,4.0,95,115.0
10288,B1,1025.25,83/1000,95,115.0
10289,C#3,1025.25,83/1000,95,115.0
10290,B1,1025.333,83/1000,95,115.0
10291,C#3,1025.333,83/1000,95,115.0
10292,B1,1025.417,83/1000,95,115.0
10293,C#3,1025.417,83/1000,95,115.0
10294,B1,1025.5,83/1000,95,115.0
10295,C#3,1025.5,83/1000,95,115.0
10296,B1,1025.583,83/1000,95,115.0
10297,C#3,1025.583,83/1000,95,115.0
10298,B1,1025.667,83/1000,95,115.0
10299,C#3,1025.667,83/1000,95,115.0
10300,B1,1025.75,83/1000,95,115.0
10301,C#3,1025.75,83/1000,95,115.0
10302,B1,1025.833,83/1000,95,115.0
10303,C#3,1025.833,83/1000,95,115.0
10304,B1,1025.917,83/1000,95,115.0
10305,C#3,1025.917,83/1000,95,115.0
10306,B1,1026.0,83/1000,95,115.0
10307,C#3,1026.0,83/1000,95,115.0
10308,B1,1026.083,83/1000,95,115.0
10309,C#3,1026.083,83/1000,95,115.0
10310,B1,1026.167,83/1000,95,115.0
10311,C#3,1026.167,83/1000,95,115.0
10312,B1,1026.25,83/1000,95,115.0
10313,C#3,1026.25,83/1000,95,115.0
10314,B1,1026.333,83/1000,95,115.0
10315,C#3,1026.333,83/1000,95,115.0
10316,B1,1026.417,83/1000,95,115.0
10317,C#3,1026.417,83/1000,95,115.0
10318,B1,1026.5,83/1000,95,115.0
10319,C#3,1026.5,83/1000,95,115.0
10320,B1,1026.583,83/1000,95,115.0
10321,C#3,1026.583,83/1000,95,115.0
10322,B1,1026.667,83/1000,95,115.0
10323,C#3,1026.667,83/1000,95,115.0
10324,B1,1026.75,83/1000,95,115.0
10325,C#3,1026.75,83/1000,95,115.0
10326,B1,1026.833,83/1000,95,115.0
10327,C#3,1026.833,83/1000,95,115.0
10328,B1,1026.917,83/1000,95,115.0
10329,C#3,1026.917,83/1000,95,115.0
10330,B1,1027.0,83/1000,95,115.0
10331,C#3,1027.0,83/1000,95,115.0
10332,B1,1027.083,83/1000,95,115.0
10333,C#3,1027.083,83/1000,95,115.0
10334,B1,1027.167,83/1000,95,115.0
10335,C#3,1027.167,83/1000,95,115.0
10336,B1,1027.25,83/1000,95,115.0
10337,C#3,1027.25,83/1000,95,115.0
10338,B1,1027.333,83/1000,95,115.0
10339,C#3,1027.333,83/1000,95,115.0
10340,B1,1027.417,83/1000,95,115.0
10341,C#3,1027.417,83/1000,95,115.0
10342,B1,1027.5,83/1000,95,115.0
10343,C#3,1027.5,83/1000,95,115.0
10344,B1,1027.583,83/1000,95,115.0
10345,C#3,1027.583,83/1000,95,115.0
10346,B1,1027.667,83/1000,95,115.0
10347,C#3,1027.667,83/1000,95,115.0
10348,B1,1027.75,83/1000,95,115.0
10349,C#3,1027.75,83/1000,95,115.0
10350,B1,1027.833,83/1000,95,115.0
10351,C#3,1027.833,83/1000,95,115.0
10352,B1,1027.917,83/1000,95,115.0
10353,C#3,1027.917,83/1000,95,115.0
10354,A1,1028.0,4.0,95,115.0
10355,D4,1028.0,4.0,95,115.0
10356,A3,1028.0,4.0,95,115.0
10357,D3,1028.0,4.0,95,115.0
10358,B1,1028.0,83/1000,95,115.0
10359,C#3,1028.0,83/1000,95,115.0
10360,B1,1028.083,83/1000,95,115.0
10361,C#3,1028.083,83/1000,95,115.0
10362,B1,1028.167,83/1000,95,115.0
10363,C#3,1028.167,83/1000,95,115.0
10364,B1,1028.25,83/1000,95,115.0
10365,C#3,1028.25,83/1000,95,115.0
10366,B1,1028.333,83/1000,95,115.0
10367,C#3,1028.333,83/1000,95,115.0
10368,B1,1028.417,83/1000,95,115.0
10369,C#3,1028.417,83/1000,95,115.0
10370,B1,1028.5,83/1000,95,115.0
10371,C#3,1028.5,83/1000,95,115.0
10372,B1,1028.583,83/1000,95,115.0
10373,C#3,1028.583,83/1000,95,115.0
10374,B1,1028.667,83/1000,95,115.0
10375,C#3,1028.667,83/1000,95,115.0
10376,B1,1028.75,83/1000,95,115.0
10377,C#3,1028.75,83/1000,95,115.0
10378,B1,1028.833,83/1000,95,115.0
10379,C#3,1028.833,83/1000,95,115.0
10380,B1,1028.917,83/1000,95,115.0
10381,C#3,1028.917,83/1000,95,115.0
10382,B1,1029.0,83/1000,95,115.0
10383,C#3,1029.0,83/1000,95,115.0
10384,B1,1029.083,83/1000,95,115.0
10385,C#3,1029.083,83/1000,95,115.0
10386,B1,1029.167,83/1000,95,115.0
10387,C#3,1029.167,83/1000,95,115.0
10388,B1,1029.25,83/1000,95,115.0
10389,C#3,1029.25,83/1000,95,115.0
10390,B1,1029.333,83/1000,95,115.0
10391,C#3,1029.333,83/1000,95,115.0
10392,B1,1029.417,83/1000,95,115.0
10393,C#3,1029.417,83/1000,95,115.0
10394,B1,1029.5,83/1000,95,115.0
10395,C#3,1029.5,83/1000,95,115.0
10396,B1,1029.583,83/1000,95,115.0
10397,C#3,1029.583,83/1000,95,115.0
10398,B1,1029.667,83/1000,95,115.0
10399,C#3,1029.667,83/1000,95,115.0
10400,B1,1029.75,83/1000,95,115.0
10401,C#3,1029.75,83/1000,95,115.0
10402,B1,1029.833,83/1000,95,115.0
10403,C#3,1029.833,83/1000,95,115.0
10404,B1,1029.917,83/1000,95,115.0
10405,C#3,1029.917,83/1000,95,115.0
10406,B1,1030.0,83/1000,95,115.0
10407,C#3,1030.0,83/1000,95,115.0
10408,B1,1030.083,83/1000,95,115.0
10409,C#3,1030.083,83/1000,95,115.0
10410,B1,1030.167,83/1000,95,115.0
10411,C#3,1030.167,83/1000,95,115.0
10412,B1,1030.25,83/1000,95,115.0
10413,C#3,1030.25,83/1000,95,115.0
10414,B1,1030.333,83/1000,95,115.0
10415,C#3,1030.333,83/1000,95,115.0
10416,B1,1030.417,83/1000,95,115.0
10417,C#3,1030.417,83/1000,95,115.0
10418,B1,1030.5,83/1000,95,115.0
10419,C#3,1030.5,83/1000,95,115.0
10420,B1,1030.583,83/1000,95,115.0
10421,C#3,1030.583,83/1000,95,115.0
10422,B1,1030.667,83/1000,95,115.0
10423,C#3,1030.667,83/1000,95,115.0
10424,B1,1030.75,83/1000,95,115.0
10425,C#3,1030.75,83/1000,95,115.0
10426,B1,1030.833,83/1000,95,115.0
10427,C#3,1030.833,83/1000,95,115.0
10428,B1,1030.917,83/1000,95,115.0
10429,C#3,1030.917,83/1000,95,115.0
10430,B1,1031.0,83/1000,95,115.0
10431,C#3,1031.0,83/1000,95,115.0
10432,B1,1031.083,83/1000,95,115.0
10433,C#3,1031.083,83/1000,95,115.0
10434,B1,1031.167,83/1000,95,115.0
10435,C#3,1031.167,83/1000,95,115.0
10436,B1,1031.25,83/1000,95,115.0
10437,C#3,1031.25,83/1000,95,115.0
10438,B1,1031.333,83/1000,95,115.0
10439,C#3,1031.333,83/1000,95,115.0
10440,B1,1031.417,83/1000,95,115.0
10441,C#3,1031.417,83/1000,95,115.0
10442,B1,1031.5,83/1000,95,115.0
10443,C#3,1031.5,83/1000,95,115.0
10444,B1,1031.583,83/1000,95,115.0
10445,C#3,1031.583,83/1000,95,115.0
10446,B1,1031.667,83/1000,95,115.0
10447,C#3,1031.667,83/1000,95,115.0
10448,B1,1031.75,83/1000,95,115.0
10449,C#3,1031.75,83/1000,95,115.0
10450,B1,1031.833,83/1000,95,115.0
10451,C#3,1031.833,83/1000,95,115.0
10452,B1,1031.917,83/1000,95,115.0
10453,C#3,1031.917,83/1000,95,115.0
10454,A1,1032.0,2.0,95,115.0
10455,B1,1032.0,83/1000,95,115.0
10456,C#3,1032.0,83/1000,95,115.0
10457,B1,1032.083,83/1000,95,115.0
10458,C#3,1032.083,83/1000,95,115.0
10459,B1,1032.167,83/1000,95,115.0
10460,C#3,1032.167,83/1000,95,115.0
10461,C2,1032.25,4.0,95,115.0
10462,D2,1032.25,4.0,95,115.0
10463,F#2,1032.25,4.0,95,115.0
10464,B-2,1032.25,4.0,95,115.0
10465,C#3,1032.25,4.0,95,115.0
10466,A1,1034.0,333/1000,95,115.0
10467,A1,1034.333,333/1000,95,115.0
10468,A1,1034.667,333/1000,95,115.0
10469,A1,1035.0,1.0,95,115.0
10470,A1,1036.0,333/1000,95,115.0
10471,D4,1036.0,4.0,95,115.0
10472,A3,1036.0,4.0,95,115.0
10473,D3,1036.0,4.0,95,115.0
10474,C#3,1036.25,0.5,95,115.0
10475,A1,1036.333,333/1000,95,115.0
10476,A1,1036.667,333/1000,95,115.0
10477,A1,1037.0,1.0,95,115.0
10478,C#3,1037.25,0.5,95,115.0
10479,D2,1038.25,333/1000,95,115.0
10480,C2,1038.25,333/1000,95,115.0
10481,D2,1038.583,333/1000,95,115.0
10482,C2,1038.583,333/1000,95,115.0
10483,D2,1038.917,333/1000,95,115.0
10484,C2,1038.917,333/1000,95,115.0
10485,D2,1039.25,1.0,95,115.0
10486,C2,1039.25,1.0,95,115.0
10487,D4,1040.0,4.0,95,115.0
10488,A3,1040.0,4.0,95,115.0
10489,D3,1040.0,4.0,95,115.0
10490,D2,1040.25,333/1000,95,115.0
10491,C2,1040.25,333/1000,95,115.0
10492,D2,1040.583,333/1000,95,115.0
10493,C2,1040.583,333/1000,95,115.0
10494,D2,1040.917,333/1000,95,115.0
10495,C2,1040.917,333/1000,95,115.0
10496,D4,1041.25,4.0,95,115.0
10497,A3,1041.25,4.0,95,115.0
10498,D3,1041.25,4.0,95,115.0
10499,D2,1041.25,1.0,95,115.0
10500,C2,1041.25,1.0,95,115.0
10501,D4,1046.0,2.0,95,115.0
10502,A3,1046.0,2.0,95,115.0
10503,D3,1046.0,2.0,95,115.0
10504,D4,1048.0,333/1000,95,115.0
10505,A3,1048.0,333/1000,95,115.0
10506,D4,1048.0,333/1000,95,115.0
10507,A3,1048.0,333/1000,95,115.0
10508,D3,1048.0,333/1000,95,115.0
10509,D2,1048.0,333/1000,95,115.0
10510,D4,1048.333,333/1000,95,115.0
10511,A3,1048.333,333/1000,95,115.0
10512,D4,1048.333,333/1000,95,115.0
10513,A3,1048.333,333/1000,95,115.0
10514,D3,1048.333,333/1000,95,115.0
10515,D2,1048.333,333/1000,95,115.0
10516,D4,1048.667,333/1000,95,115.0
10517,A3,1048.667,333/1000,95,115.0
10518,D4,1048.667,333/1000,95,115.0
10519,A3,1048.667,333/1000,95,115.0
10520,D3,1048.667,333/1000,95,115.0
10521,D2,1048.667,333/1000,95,115.0
10522,D4,1049.0,1.0,95,115.0
10523,A3,1049.0,1.0,95,115.0
10524,D4,1049.0,1.0,95,115.0
10525,A3,1049.0,1.0,95,115.0
10526,D3,1049.0,1.0,95,115.0
10527,D2,1049.0,1.0,95,115.0
10528,D4,1050.0,333/1000,95,115.0
10529,A3,1050.0,333/1000,95,115.0
10530,D4,1050.0,333/1000,95,115.0
10531,A3,1050.0,333/1000,95,115.0
10532,D3,1050.0,333/1000,95,115.0
10533,D2,1050.0,333/1000,95,115.0
10534,D4,1050.333,333/1000,95,115.0
10535,A3,1050.333,333/1000,95,115.0
10536,D4,1050.333,333/1000,95,115.0
10537,A3,1050.333,333/1000,95,115.0
10538,D3,1050.333,333/1000,95,115.0
10539,D2,1050.333,333/1000,95,115.0
10540,D4,1050.667,333/1000,95,115.0
10541,A3,1050.667,333/1000,95,115.0
10542,D4,1050.667,333/1000,95,115.0
10543,A3,1050.667,333/1000,95,115.0
10544,D3,1050.667,333/1000,95,115.0
10545,D2,1050.667,333/1000,95,115.0
10546,D4,1051.0,1.0,95,115.0
10547,A3,1051.0,1.0,95,115.0
10548,D4,1051.0,1.0,95,115.0
10549,A3,1051.0,1.0,95,115.0
10550,D3,1051.0,1.0,95,115.0
10551,D2,1051.0,1.0,95,115.0
10552,D4,1053.25,4.0,95,115.0
10553,A3,1053.25,4.0,95,115.0
10554,D3,1053.25,4.0,95,115.0
10555,D4,1061.25,4.0,95,115.0
10556,A3,1061.25,4.0,95,115.0
10557,D3,1061.25,4.0,95,115.0
10558,D4,1065.25,1.0,95,115.0
10559,A3,1065.25,1.0,95,115.0
10560,D3,1065.25,1.0,95,115.0
10561,D4,1066.25,1.0,95,115.0
10562,A3,1066.25,1.0,95,115.0
10563,D3,1066.25,1.0,95,115.0
10564,D4,1067.25,1.0,95,115.0
10565,A3,1067.25,1.0,95,115.0
10566,D3,1067.25,1.0,95,115.0
10567,D4,1068.25,1.0,95,115.0
10568,A3,1068.25,1.0,95,115.0
10569,D3,1068.25,1.0,95,115.0
10570,D4,1069.25,4.0,95,115.0
10571,A3,1069.25,4.0,95,115.0
10572,D3,1069.25,4.0,95,115.0
10573,D4,1081.25,4.0,95,115.0
10574,A3,1081.25,4.0,95,115.0
10575,D3,1081.25,4.0,95,115.0
10576,D4,1089.25,4.0,95,115.0
10577,A3,1089.25,4.0,95,115.0
10578,D3,1089.25,4.0,95,115.0
10579,D4,1093.25,4.0,95,115.0
10580,A3,1093.25,4.0,95,115.0
10581,D3,1093.25,4.0,95,115.0
10582,D4,1099.25,2.0,95,115.0
10583,A3,1099.25,2.0,95,115.0
10584,D3,1099.25,2.0,95,115.0
10585,D4,1101.25,333/1000,95,115.0
10586,A3,1101.25,333/1000,95,115.0
10587,D4,1101.25,333/1000,95,115.0
10588,A3,1101.25,333/1000,95,115.0
10589,D3,1101.25,333/1000,95,115.0
10590,D2,1101.25,333/1000,95,115.0
10591,D4,1101.583,333/1000,95,115.0
10592,A3,1101.583,333/1000,95,115.0
10593,D4,1101.583,333/1000,95,115.0
10594,A3,1101.583,333/1000,95,115.0
10595,D3,1101.583,333/1000,95,115.0
10596,D2,1101.583,333/1000,95,115.0
10597,D4,1101.917,333/1000,95,115.0
10598,A3,1101.917,333/1000,95,115.0
10599,D4,1101.917,333/1000,95,115.0
10600,A3,1101.917,333/1000,95,115.0
10601,D3,1101.917,333/1000,95,115.0
10602,D2,1101.917,333/1000,95,115.0
10603,D4,1102.25,1.0,95,115.0
10604,A3,1102.25,1.0,95,115.0
10605,D4,1102.25,1.0,95,115.0
10606,A3,1102.25,1.0,95,115.0
10607,D3,1102.25,1.0,95,115.0
10608,D2,1102.25,1.0,95,115.0
10609,D4,1103.25,333/1000,95,115.0
10610,A3,1103.25,333/1000,95,115.0
10611,D4,1103.25,333/1000,95,115.0
10612,A3,1103.25,333/1000,95,115.0
10613,D3,1103.25,333/1000,95,115.0
10614,D2,1103.25,333/1000,95,115.0
10615,D4,1103.583,333/1000,95,115.0
10616,A3,1103.583,333/1000,95,115.0
10617,D4,1103.583,333/1000,95,115.0
10618,A3,1103.583,333/1000,95,115.0
10619,D3,1103.583,333/1000,95,115.0
10620,D2,1103.583,333/1000,95,115.0
10621,D4,1103.917,333/1000,95,115.0
10622,A3,1103.917,333/1000,95,115.0
10623,D4,1103.917,333/1000,95,115.0
10624,A3,1103.917,333/1000,95,115.0
10625,D3,1103.917,333/1000,95,115.0
10626,D2,1103.917,333/1000,95,115.0
10627,D4,1104.25,1.0,95,115.0
10628,A3,1104.25,1.0,95,115.0
10629,D4,1104.25,1.0,95,115.0
10630,A3,1104.25,1.0,95,115.0
10631,D3,1104.25,1.0,95,115.0
10632,D2,1104.25,1.0,95,115.0
