,note_name,start_time,duration,velocity,tempo
0,D3,0.0,0.5,95,130.0
1,D3,0.0,0.5,95,130.0
2,A3,0.5,0.5,95,130.0
3,A3,0.5,0.5,95,130.0
4,D4,1.0,0.5,95,130.0
5,D4,1.0,0.5,95,130.0
6,E4,1.5,167/1000,95,130.0
7,E4,1.5,167/1000,95,130.0
8,F4,1.667,167/1000,76,130.0
9,F4,1.667,167/1000,76,130.0
10,E4,1.833,167/1000,76,130.0
11,E4,1.833,167/1000,76,130.0
12,D4,2.0,0.5,95,130.0
13,F4,2.0,167/1000,76,130.0
14,E4,2.167,167/1000,76,130.0
15,F4,2.333,167/1000,76,130.0
16,A3,2.5,0.5,95,130.0
17,D4,2.5,0.5,95,130.0
18,G2,3.0,0.5,95,130.0
19,G2,3.0,0.5,95,130.0
20,D3,3.5,0.5,95,130.0
21,D3,3.5,0.5,95,130.0
22,A3,4.0,1.0,95,130.0
23,A3,4.0,1.0,95,130.0
24,G2,4.5,0.5,95,130.0
25,G2,4.5,0.5,95,130.0
26,D3,5.0,0.5,95,130.0
27,D3,5.0,0.5,95,130.0
28,A3,5.5,1.0,95,130.0
29,A3,5.5,1.0,95,130.0
30,D3,6.0,0.5,95,130.0
31,D3,6.0,0.5,95,130.0
32,A3,6.5,0.5,95,130.0
33,A3,6.5,0.5,95,130.0
34,D4,7.0,0.5,95,130.0
35,D4,7.0,0.5,95,130.0
36,E4,7.5,167/1000,76,130.0
37,E4,7.5,167/1000,95,130.0
38,F4,7.667,167/1000,76,130.0
39,F4,7.667,167/1000,76,130.0
40,E4,7.833,167/1000,76,130.0
41,E4,7.833,167/1000,76,130.0
42,D4,8.0,0.5,95,130.0
43,F4,8.0,167/1000,76,130.0
44,E4,8.167,167/1000,76,130.0
45,F4,8.333,167/1000,76,130.0
46,A3,8.5,0.5,95,130.0
47,D4,8.5,0.5,76,130.0
48,G2,9.0,0.5,95,130.0
49,G2,9.0,0.5,95,130.0
50,D3,9.5,0.5,95,130.0
51,D3,9.5,0.5,95,130.0
52,A3,10.0,1.0,95,130.0
53,A3,10.0,1.0,95,130.0
54,G2,10.5,0.5,95,130.0
55,G2,10.5,0.5,95,130.0
56,D3,11.0,0.5,95,130.0
57,D3,11.0,0.5,95,130.0
58,A3,11.5,0.5,95,130.0
59,A3,11.5,0.5,95,130.0
60,D3,12.0,0.5,95,130.0
61,A3,12.0,0.5,95,130.0
62,D3,12.0,0.5,95,130.0
63,A3,12.5,0.5,95,130.0
64,A3,12.5,0.5,95,130.0
65,D4,13.0,0.5,95,130.0
66,D4,13.0,0.5,95,130.0
67,E4,13.5,167/1000,76,130.0
68,E4,13.5,167/1000,95,130.0
69,F4,13.667,167/1000,76,130.0
70,F4,13.667,167/1000,76,130.0
71,E4,13.833,167/1000,76,130.0
72,E4,13.833,167/1000,76,130.0
73,D4,14.0,0.5,95,130.0
74,F4,14.0,167/1000,76,130.0
75,E4,14.167,167/1000,76,130.0
76,F4,14.333,167/1000,76,130.0
77,A3,14.5,0.5,95,130.0
78,D4,14.5,0.5,95,130.0
79,C3,15.0,0.5,95,130.0
80,C3,15.0,0.5,95,130.0
81,C4,15.5,0.5,95,130.0
82,C4,15.5,0.5,95,130.0
83,G4,16.0,0.5,76,130.0
84,G4,16.0,0.5,95,130.0
85,C3,16.5,0.5,95,130.0
86,C3,16.5,0.5,95,130.0
87,C4,17.0,0.5,95,130.0
88,C4,17.0,0.5,95,130.0
89,A3,17.5,0.5,95,130.0
90,A3,17.5,0.5,95,130.0
91,F3,18.0,0.5,95,130.0
92,F3,18.0,0.5,95,130.0
93,C4,18.5,0.5,95,130.0
94,C4,18.5,0.5,95,130.0
95,F4,19.0,0.5,95,130.0
96,F4,19.0,0.5,95,130.0
97,F3,19.5,0.5,95,130.0
98,F3,19.5,0.5,95,130.0
99,C4,20.0,0.5,95,130.0
100,C4,20.0,0.5,95,130.0
101,F4,20.5,0.5,95,130.0
102,F4,20.5,0.5,95,130.0
103,F2,21.0,0.5,95,130.0
104,F2,21.0,0.5,95,130.0
105,C3,21.5,0.5,95,130.0
106,C3,21.5,0.5,95,130.0
107,F3,22.0,0.5,95,130.0
108,F3,22.0,0.5,95,130.0
109,G2,22.5,0.5,95,130.0
110,G2,22.5,0.5,95,130.0
111,D3,23.0,0.5,95,130.0
112,D3,23.0,0.5,95,130.0
113,G3,23.5,0.5,95,130.0
114,G3,23.5,0.5,95,130.0
115,D3,24.0,0.5,95,130.0
116,D3,24.0,0.5,95,130.0
117,A5,24.0,4.0,95,130.0
118,A3,24.5,0.5,95,130.0
119,A3,24.5,0.5,95,130.0
120,D4,25.0,0.5,95,130.0
121,D4,25.0,0.5,95,130.0
122,E4,25.5,167/1000,95,130.0
123,E4,25.5,167/1000,95,130.0
124,F4,25.667,167/1000,76,130.0
125,F4,25.667,167/1000,76,130.0
126,E4,25.833,167/1000,76,130.0
127,E4,25.833,167/1000,76,130.0
128,D4,26.0,0.5,95,130.0
129,F4,26.0,167/1000,76,130.0
130,E4,26.167,167/1000,76,130.0
131,F4,26.333,167/1000,76,130.0
132,A3,26.5,0.5,95,130.0
133,D4,26.5,0.5,95,130.0
134,G2,27.0,0.5,95,130.0
135,G2,27.0,0.5,95,130.0
136,D3,27.5,0.5,95,130.0
137,D3,27.5,0.5,95,130.0
138,A3,28.0,1.0,95,130.0
139,A3,28.0,1.0,95,130.0
140,A5,28.0,4.0,95,130.0
141,G2,28.5,0.5,95,130.0
142,G2,28.5,0.5,95,130.0
143,D3,29.0,0.5,95,130.0
144,D3,29.0,0.5,95,130.0
145,A3,29.5,1.0,95,130.0
146,A3,29.5,1.0,95,130.0
147,D3,30.0,0.5,95,130.0
148,D3,30.0,0.5,95,130.0
149,A3,30.5,0.5,95,130.0
150,A3,30.5,0.5,95,130.0
151,D4,31.0,0.5,95,130.0
152,D4,31.0,0.5,95,130.0
153,E4,31.5,167/1000,76,130.0
154,E4,31.5,167/1000,95,130.0
155,F4,31.667,167/1000,76,130.0
156,F4,31.667,167/1000,76,130.0
157,E4,31.833,167/1000,76,130.0
158,E4,31.833,167/1000,76,130.0
159,D4,32.0,0.5,95,130.0
160,F4,32.0,167/1000,76,130.0
161,A5,32.0,2.5,95,130.0
162,E4,32.167,167/1000,76,130.0
163,F4,32.333,167/1000,76,130.0
164,A3,32.5,0.5,95,130.0
165,D4,32.5,0.5,76,130.0
166,G2,33.0,0.5,95,130.0
167,G2,33.0,0.5,95,130.0
168,D3,33.5,0.5,95,130.0
169,D3,33.5,0.5,95,130.0
170,A3,34.0,1.0,95,130.0
171,A3,34.0,1.0,95,130.0
172,G2,34.5,0.5,95,130.0
173,G2,34.5,0.5,95,130.0
174,G5,34.5,1.5,95,130.0
175,D3,35.0,0.5,95,130.0
176,D3,35.0,0.5,95,130.0
177,A3,35.5,0.5,95,130.0
178,A3,35.5,0.5,95,130.0
179,D3,36.0,0.5,95,130.0
180,A3,36.0,0.5,95,130.0
181,D3,36.0,0.5,95,130.0
182,A5,36.0,4.0,95,130.0
183,A3,36.5,0.5,95,130.0
184,A3,36.5,0.5,95,130.0
185,D4,37.0,0.5,95,130.0
186,D4,37.0,0.5,95,130.0
187,E4,37.5,167/1000,76,130.0
188,E4,37.5,167/1000,95,130.0
189,F4,37.667,167/1000,76,130.0
190,F4,37.667,167/1000,76,130.0
191,E4,37.833,167/1000,76,130.0
192,E4,37.833,167/1000,76,130.0
193,D4,38.0,0.5,95,130.0
194,F4,38.0,167/1000,76,130.0
195,E4,38.167,167/1000,76,130.0
196,F4,38.333,167/1000,76,130.0
197,A3,38.5,0.5,95,130.0
198,D4,38.5,0.5,95,130.0
199,C3,39.0,0.5,95,130.0
200,C3,39.0,0.5,95,130.0
201,C4,39.5,0.5,95,130.0
202,C4,39.5,0.5,95,130.0
203,G4,40.0,0.5,76,130.0
204,G4,40.0,0.5,95,130.0
205,A5,40.0,2.0,95,130.0
206,C3,40.5,0.5,95,130.0
207,C3,40.5,0.5,95,130.0
208,C4,41.0,0.5,95,130.0
209,C4,41.0,0.5,95,130.0
210,A3,41.5,0.5,95,130.0
211,A3,41.5,0.5,95,130.0
212,F3,42.0,0.5,95,130.0
213,F3,42.0,0.5,95,130.0
214,F5,42.0,2.0,95,130.0
215,C4,42.5,0.5,95,130.0
216,C4,42.5,0.5,95,130.0
217,F4,43.0,0.5,95,130.0
218,F4,43.0,0.5,95,130.0
219,F3,43.5,0.5,95,130.0
220,F3,43.5,0.5,95,130.0
221,C4,44.0,0.5,95,130.0
222,C4,44.0,0.5,95,130.0
223,F5,44.0,4.0,95,130.0
224,F4,44.5,0.5,95,130.0
225,F4,44.5,0.5,95,130.0
226,F2,45.0,0.5,95,130.0
227,F2,45.0,0.5,95,130.0
228,C3,45.5,0.5,95,130.0
229,C3,45.5,0.5,95,130.0
230,F3,46.0,0.5,95,130.0
231,F3,46.0,0.5,95,130.0
232,G2,46.5,0.5,95,130.0
233,G2,46.5,0.5,95,130.0
234,G2,46.5,0.5,95,130.0
235,C2,46.5,0.5,95,130.0
236,D3,47.0,0.5,95,130.0
237,D3,47.0,0.5,95,130.0
238,G2,47.0,0.5,95,130.0
239,G3,47.5,0.5,95,130.0
240,G3,47.5,0.5,95,130.0
241,G2,47.5,0.5,95,130.0
242,C2,47.5,0.5,95,130.0
243,D3,48.0,0.5,95,130.0
244,D3,48.0,0.5,95,130.0
245,D1,48.0,3.0,95,130.0
246,G3,48.0,0.5,95,130.0
247,C2,48.0,0.5,95,130.0
248,A3,48.5,0.5,95,130.0
249,A3,48.5,0.5,95,130.0
250,G#2,48.5,0.5,95,130.0
251,D4,49.0,0.5,95,130.0
252,D4,49.0,0.5,95,130.0
253,G#2,49.0,0.5,95,130.0
254,E4,49.5,167/1000,95,130.0
255,E4,49.5,167/1000,95,130.0
256,B-2,49.5,0.5,72,130.0
257,E2,49.5,0.5,72,130.0
258,F4,49.667,167/1000,76,130.0
259,F4,49.667,167/1000,76,130.0
260,E4,49.833,167/1000,76,130.0
261,E4,49.833,167/1000,76,130.0
262,D4,50.0,0.5,95,130.0
263,F4,50.0,167/1000,76,130.0
264,G#2,50.0,0.5,95,130.0
265,E4,50.167,167/1000,76,130.0
266,F4,50.333,167/1000,76,130.0
267,A3,50.5,0.5,95,130.0
268,D4,50.5,0.5,95,130.0
269,G#2,50.5,0.5,95,130.0
270,C2,50.5,0.5,95,130.0
271,G2,51.0,0.5,95,130.0
272,G2,51.0,0.5,95,130.0
273,G1,51.0,1.0,95,130.0
274,G#2,51.0,0.5,95,130.0
275,C2,51.0,0.5,95,130.0
276,D3,51.5,0.5,95,130.0
277,D3,51.5,0.5,95,130.0
278,G#2,51.5,0.5,95,130.0
279,A3,52.0,1.0,95,130.0
280,A3,52.0,1.0,95,130.0
281,G1,52.0,2.0,95,130.0
282,G#2,52.0,0.5,95,130.0
283,G2,52.5,0.5,95,130.0
284,G2,52.5,0.5,95,130.0
285,B-2,52.5,0.5,72,130.0
286,E2,52.5,0.5,72,130.0
287,D3,53.0,0.5,95,130.0
288,D3,53.0,0.5,95,130.0
289,G#2,53.0,0.5,95,130.0
290,A3,53.5,1.0,95,130.0
291,A3,53.5,1.0,95,130.0
292,G#2,53.5,0.5,95,130.0
293,D3,54.0,0.5,95,130.0
294,D3,54.0,0.5,95,130.0
295,D1,54.0,2.0,95,130.0
296,G#2,54.0,0.5,95,130.0
297,C2,54.0,0.5,95,130.0
298,A3,54.5,0.5,95,130.0
299,A3,54.5,0.5,95,130.0
300,G#2,54.5,0.5,95,130.0
301,D4,55.0,0.5,95,130.0
302,D4,55.0,0.5,95,130.0
303,G#2,55.0,0.5,95,130.0
304,E4,55.5,167/1000,76,130.0
305,E4,55.5,167/1000,95,130.0
306,B-2,55.5,0.5,72,130.0
307,E2,55.5,0.5,72,130.0
308,F4,55.667,167/1000,76,130.0
309,F4,55.667,167/1000,76,130.0
310,E4,55.833,167/1000,76,130.0
311,E4,55.833,167/1000,76,130.0
312,D4,56.0,0.5,95,130.0
313,F4,56.0,167/1000,76,130.0
314,D1,56.0,1.0,95,130.0
315,G#2,56.0,0.5,95,130.0
316,E4,56.167,167/1000,76,130.0
317,F4,56.333,167/1000,76,130.0
318,A3,56.5,0.5,95,130.0
319,D4,56.5,0.5,76,130.0
320,G#2,56.5,0.5,95,130.0
321,C2,56.5,0.5,95,130.0
322,G2,57.0,0.5,95,130.0
323,G2,57.0,0.5,95,130.0
324,G1,57.0,3.0,95,130.0
325,G#2,57.0,0.5,95,130.0
326,C2,57.0,0.5,95,130.0
327,D3,57.5,0.5,95,130.0
328,D3,57.5,0.5,95,130.0
329,G#2,57.5,0.5,95,130.0
330,A3,58.0,1.0,95,130.0
331,A3,58.0,1.0,95,130.0
332,G#2,58.0,0.5,95,130.0
333,G2,58.5,0.5,95,130.0
334,G2,58.5,0.5,95,130.0
335,B-2,58.5,0.5,72,130.0
336,E2,58.5,0.5,72,130.0
337,D3,59.0,0.5,95,130.0
338,D3,59.0,0.5,95,130.0
339,G#2,59.0,0.5,95,130.0
340,A3,59.5,0.5,95,130.0
341,A3,59.5,0.5,95,130.0
342,G#2,59.5,0.5,95,130.0
343,D3,60.0,0.5,95,130.0
344,A3,60.0,0.5,95,130.0
345,D3,60.0,0.5,95,130.0
346,D1,60.0,3.0,95,130.0
347,G#2,60.0,0.5,95,130.0
348,C2,60.0,0.5,95,130.0
349,A3,60.5,0.5,95,130.0
350,A3,60.5,0.5,95,130.0
351,G#2,60.5,0.5,95,130.0
352,D4,61.0,0.5,95,130.0
353,D4,61.0,0.5,95,130.0
354,G#2,61.0,0.5,95,130.0
355,E4,61.5,167/1000,76,130.0
356,E4,61.5,167/1000,95,130.0
357,B-2,61.5,0.5,72,130.0
358,E2,61.5,0.5,72,130.0
359,F4,61.667,167/1000,76,130.0
360,F4,61.667,167/1000,76,130.0
361,E4,61.833,167/1000,76,130.0
362,E4,61.833,167/1000,76,130.0
363,D4,62.0,0.5,95,130.0
364,F4,62.0,167/1000,76,130.0
365,G#2,62.0,0.5,95,130.0
366,E4,62.167,167/1000,76,130.0
367,F4,62.333,167/1000,76,130.0
368,A3,62.5,0.5,95,130.0
369,D4,62.5,0.5,95,130.0
370,G#2,62.5,0.5,95,130.0
371,C2,62.5,0.5,95,130.0
372,C3,63.0,0.5,95,130.0
373,C3,63.0,0.5,95,130.0
374,C2,63.0,1.0,95,130.0
375,G#2,63.0,0.5,95,130.0
376,C2,63.0,0.5,95,130.0
377,C4,63.5,0.5,95,130.0
378,C4,63.5,0.5,95,130.0
379,G#2,63.5,0.5,95,130.0
380,G4,64.0,0.5,76,130.0
381,G4,64.0,0.5,95,130.0
382,C2,64.0,2.0,95,130.0
383,G#2,64.0,0.5,95,130.0
384,C3,64.5,0.5,95,130.0
385,C3,64.5,0.5,95,130.0
386,B-2,64.5,0.5,72,130.0
387,E2,64.5,0.5,72,130.0
388,C4,65.0,0.5,95,130.0
389,C4,65.0,0.5,95,130.0
390,G#2,65.0,0.5,95,130.0
391,A3,65.5,0.5,95,130.0
392,A3,65.5,0.5,95,130.0
393,G#2,65.5,0.5,95,130.0
394,F3,66.0,0.5,95,130.0
395,F3,66.0,0.5,95,130.0
396,F1,66.0,2.0,95,130.0
397,G#2,66.0,0.5,95,130.0
398,C2,66.0,0.5,95,130.0
399,C4,66.5,0.5,95,130.0
400,C4,66.5,0.5,95,130.0
401,G#2,66.5,0.5,95,130.0
402,F4,67.0,0.5,95,130.0
403,F4,67.0,0.5,95,130.0
404,G#2,67.0,0.5,95,130.0
405,F3,67.5,0.5,95,130.0
406,F3,67.5,0.5,95,130.0
407,B-2,67.5,0.5,72,130.0
408,E2,67.5,0.5,72,130.0
409,C4,68.0,0.5,95,130.0
410,C4,68.0,0.5,95,130.0
411,F1,68.0,1.0,95,130.0
412,G#2,68.0,0.5,95,130.0
413,F4,68.5,0.5,95,130.0
414,F4,68.5,0.5,95,130.0
415,G#2,68.5,0.5,95,130.0
416,C2,68.5,0.5,95,130.0
417,F2,69.0,0.5,95,130.0
418,F2,69.0,0.5,95,130.0
419,F1,69.0,1.5,95,130.0
420,G#2,69.0,0.5,95,130.0
421,C2,69.0,0.5,95,130.0
422,C3,69.5,0.5,95,130.0
423,C3,69.5,0.5,95,130.0
424,G#2,69.5,0.5,95,130.0
425,F3,70.0,0.5,95,130.0
426,F3,70.0,0.5,95,130.0
427,G#2,70.0,0.5,95,130.0
428,G2,70.5,0.5,95,130.0
429,G2,70.5,0.5,95,130.0
430,G1,70.5,1.5,95,130.0
431,B-2,70.5,0.5,72,130.0
432,E2,70.5,0.5,72,130.0
433,D3,71.0,0.5,95,130.0
434,D3,71.0,0.5,95,130.0
435,G#2,71.0,0.5,95,130.0
436,G3,71.5,0.5,95,130.0
437,G3,71.5,0.5,95,130.0
438,G#2,71.5,0.5,95,130.0
439,D3,72.0,0.5,95,130.0
440,D3,72.0,0.5,95,130.0
441,D1,72.0,3.0,95,130.0
442,G3,72.0,0.5,95,130.0
443,C2,72.0,0.5,95,130.0
444,A3,72.5,0.5,95,130.0
445,A3,72.5,0.5,95,130.0
446,G#2,72.5,0.5,95,130.0
447,D4,73.0,0.5,95,130.0
448,D4,73.0,0.5,95,130.0
449,G#2,73.0,0.5,95,130.0
450,E4,73.5,167/1000,95,130.0
451,E4,73.5,167/1000,95,130.0
452,B-2,73.5,0.5,72,130.0
453,E2,73.5,0.5,72,130.0
454,F4,73.667,167/1000,76,130.0
455,F4,73.667,167/1000,76,130.0
456,E4,73.833,167/1000,76,130.0
457,E4,73.833,167/1000,76,130.0
458,D4,74.0,0.5,95,130.0
459,F4,74.0,167/1000,76,130.0
460,G#2,74.0,0.5,95,130.0
461,E4,74.167,167/1000,76,130.0
462,F4,74.333,167/1000,76,130.0
463,A3,74.5,0.5,95,130.0
464,D4,74.5,0.5,95,130.0
465,G#2,74.5,0.5,95,130.0
466,C2,74.5,0.5,95,130.0
467,G2,75.0,0.5,95,130.0
468,G2,75.0,0.5,95,130.0
469,G1,75.0,1.0,95,130.0
470,G#2,75.0,0.5,95,130.0
471,C2,75.0,0.5,95,130.0
472,D3,75.5,0.5,95,130.0
473,D3,75.5,0.5,95,130.0
474,G#2,75.5,0.5,95,130.0
475,A3,76.0,1.0,95,130.0
476,A3,76.0,1.0,95,130.0
477,G1,76.0,2.0,95,130.0
478,G#2,76.0,0.5,95,130.0
479,G2,76.5,0.5,95,130.0
480,G2,76.5,0.5,95,130.0
481,B-2,76.5,0.5,72,130.0
482,E2,76.5,0.5,72,130.0
483,D3,77.0,0.5,95,130.0
484,D3,77.0,0.5,95,130.0
485,G#2,77.0,0.5,95,130.0
486,A3,77.5,1.0,95,130.0
487,A3,77.5,1.0,95,130.0
488,G#2,77.5,0.5,95,130.0
489,D3,78.0,0.5,95,130.0
490,D3,78.0,0.5,95,130.0
491,D1,78.0,2.0,95,130.0
492,G#2,78.0,0.5,95,130.0
493,C2,78.0,0.5,95,130.0
494,A3,78.5,0.5,95,130.0
495,A3,78.5,0.5,95,130.0
496,G#2,78.5,0.5,95,130.0
497,D4,79.0,0.5,95,130.0
498,D4,79.0,0.5,95,130.0
499,G#2,79.0,0.5,95,130.0
500,E4,79.5,167/1000,76,130.0
501,E4,79.5,167/1000,95,130.0
502,B-2,79.5,0.5,72,130.0
503,E2,79.5,0.5,72,130.0
504,F4,79.667,167/1000,76,130.0
505,F4,79.667,167/1000,76,130.0
506,E4,79.833,167/1000,76,130.0
507,E4,79.833,167/1000,76,130.0
508,D4,80.0,0.5,95,130.0
509,F4,80.0,167/1000,76,130.0
510,D1,80.0,1.0,95,130.0
511,A2,80.0,0.5,95,130.0
512,E4,80.167,167/1000,95,130.0
513,F4,80.333,167/1000,95,130.0
514,A3,80.5,0.5,95,130.0
515,D4,80.5,0.5,95,130.0
516,G2,80.5,0.5,95,130.0
517,F1,81.0,1.0,95,130.0
518,F3,81.0,1.0,95,130.0
519,C3,81.0,1.0,95,130.0
520,F2,81.0,1.0,95,130.0
521,A3,81.0,1.0,95,130.0
522,C2,81.0,1.0,95,130.0
523,G1,82.0,1.0,95,130.0
524,G3,82.0,1.0,95,130.0
525,D3,82.0,1.0,95,130.0
526,G2,82.0,1.0,95,130.0
527,C#3,82.0,1.0,95,130.0
528,C2,82.0,1.0,95,130.0
529,A1,83.0,1.0,95,130.0
530,A3,83.0,1.0,95,130.0
531,E3,83.0,1.0,95,130.0
532,A2,83.0,1.0,95,130.0
533,A3,83.0,1.0,95,130.0
534,C2,83.0,1.0,95,130.0
535,E-1,84.0,1.0,95,130.0
536,E-3,84.0,1.0,95,130.0
537,B-2,84.0,1.0,95,130.0
538,E-2,84.0,1.0,95,130.0
539,C#3,84.0,0.5,95,130.0
540,C2,84.0,0.5,95,130.0
541,B3,84.5,0.25,95,130.0
542,B3,84.75,0.25,95,130.0
543,C2,84.75,0.25,95,130.0
544,E-1,85.0,0.5,95,130.0
545,B3,85.0,0.5,95,130.0
546,E-3,85.0,0.5,95,130.0
547,B-2,85.0,0.5,95,130.0
548,E-2,85.0,0.5,95,130.0
549,E-1,85.5,0.5,95,130.0
550,E2,85.5,0.5,95,130.0
551,E-3,85.5,0.5,95,130.0
552,B-2,85.5,0.5,95,130.0
553,E-2,85.5,0.5,95,130.0
554,E-1,86.0,0.25,95,130.0
555,B3,86.0,0.5,95,130.0
556,E-3,86.0,0.25,95,130.0
557,B-2,86.0,0.25,95,130.0
558,E-2,86.0,0.25,95,130.0
559,E-1,86.25,0.25,95,130.0
560,E-3,86.25,0.25,95,130.0
561,B-2,86.25,0.25,95,130.0
562,E-2,86.25,0.25,95,130.0
563,E-1,86.5,0.25,95,130.0
564,E-3,86.5,0.25,95,130.0
565,B-2,86.5,0.25,95,130.0
566,E-2,86.5,0.25,95,130.0
567,B3,86.5,0.25,95,130.0
568,C2,86.5,0.25,95,130.0
569,E-1,86.75,0.25,95,130.0
570,B3,86.75,0.25,95,130.0
571,E-3,86.75,0.25,95,130.0
572,B-2,86.75,0.25,95,130.0
573,E-2,86.75,0.25,95,130.0
574,E-1,87.0,1.0,95,130.0
575,E-3,87.0,1.0,95,130.0
576,B-2,87.0,1.0,95,130.0
577,E-2,87.0,1.0,95,130.0
578,B3,87.0,0.5,95,130.0
579,C2,87.0,0.5,95,130.0
580,B3,87.5,0.5,95,130.0
581,E-1,88.0,0.5,95,130.0
582,E-3,88.0,0.5,95,130.0
583,B-2,88.0,0.5,95,130.0
584,E-2,88.0,0.5,95,130.0
585,B3,88.0,0.5,95,130.0
586,C2,88.0,0.5,95,130.0
587,E-1,88.5,0.5,95,130.0
588,E-3,88.5,0.5,95,130.0
589,B-2,88.5,0.5,95,130.0
590,E-2,88.5,0.5,95,130.0
591,B3,88.5,0.25,95,130.0
592,E2,88.5,0.25,95,130.0
593,B3,88.75,0.25,95,130.0
594,E-1,89.0,0.25,95,130.0
595,B3,89.0,0.5,95,130.0
596,E-3,89.0,0.25,95,130.0
597,B-2,89.0,0.25,95,130.0
598,E-2,89.0,0.25,95,130.0
599,E-1,89.25,0.25,95,130.0
600,E-3,89.25,0.25,95,130.0
601,B-2,89.25,0.25,95,130.0
602,E-2,89.25,0.25,95,130.0
603,E-1,89.5,0.25,95,130.0
604,B3,89.5,0.5,95,130.0
605,E-3,89.5,0.25,95,130.0
606,B-2,89.5,0.25,95,130.0
607,E-2,89.5,0.25,95,130.0
608,E-1,89.75,0.25,95,130.0
609,E-3,89.75,0.25,95,130.0
610,B-2,89.75,0.25,95,130.0
611,E-2,89.75,0.25,95,130.0
612,D1,90.0,1.0,95,130.0
613,D3,90.0,1.0,95,130.0
614,A2,90.0,1.0,95,130.0
615,D2,90.0,1.0,95,130.0
616,C#3,90.0,0.5,95,130.0
617,C2,90.0,0.5,95,130.0
618,B3,90.5,0.25,95,130.0
619,B3,90.75,0.25,95,130.0
620,C2,90.75,0.25,95,130.0
621,D1,91.0,0.5,95,130.0
622,B3,91.0,0.5,95,130.0
623,D3,91.0,0.5,95,130.0
624,A2,91.0,0.5,95,130.0
625,D2,91.0,0.5,95,130.0
626,D1,91.5,0.5,95,130.0
627,D3,91.5,0.5,95,130.0
628,A2,91.5,0.5,95,130.0
629,D2,91.5,0.5,95,130.0
630,B3,91.5,0.5,95,130.0
631,E2,91.5,0.5,95,130.0
632,D1,92.0,0.25,95,130.0
633,C2,92.0,0.5,95,130.0
634,D3,92.0,0.25,95,130.0
635,A2,92.0,0.25,95,130.0
636,D2,92.0,0.25,95,130.0
637,D1,92.25,0.25,95,130.0
638,D3,92.25,0.25,95,130.0
639,A2,92.25,0.25,95,130.0
640,D2,92.25,0.25,95,130.0
641,D1,92.5,0.25,95,130.0
642,B3,92.5,0.25,95,130.0
643,D3,92.5,0.25,95,130.0
644,A2,92.5,0.25,95,130.0
645,D2,92.5,0.25,95,130.0
646,D1,92.75,0.25,95,130.0
647,B3,92.75,0.25,95,130.0
648,D3,92.75,0.25,95,130.0
649,A2,92.75,0.25,95,130.0
650,D2,92.75,0.25,95,130.0
651,D1,93.0,1.0,95,130.0
652,D3,93.0,1.0,95,130.0
653,A2,93.0,1.0,95,130.0
654,D2,93.0,1.0,95,130.0
655,B3,93.0,0.5,95,130.0
656,C2,93.0,0.5,95,130.0
657,B3,93.5,0.5,95,130.0
658,D1,94.0,0.5,95,130.0
659,D3,94.0,0.5,95,130.0
660,A2,94.0,0.5,95,130.0
661,D2,94.0,0.5,95,130.0
662,B3,94.0,0.5,95,130.0
663,C2,94.0,0.5,95,130.0
664,D1,94.5,0.5,95,130.0
665,D3,94.5,0.5,95,130.0
666,A2,94.5,0.5,95,130.0
667,D2,94.5,0.5,95,130.0
668,B3,94.5,0.25,95,130.0
669,E2,94.5,0.25,95,130.0
670,B3,94.75,0.25,95,130.0
671,D1,95.0,0.25,95,130.0
672,B3,95.0,0.5,95,130.0
673,D3,95.0,0.25,95,130.0
674,A2,95.0,0.25,95,130.0
675,D2,95.0,0.25,95,130.0
676,D1,95.25,0.25,95,130.0
677,D3,95.25,0.25,95,130.0
678,A2,95.25,0.25,95,130.0
679,D2,95.25,0.25,95,130.0
680,D1,95.5,0.25,95,130.0
681,D3,95.5,0.25,95,130.0
682,A2,95.5,0.25,95,130.0
683,D2,95.5,0.25,95,130.0
684,B3,95.5,0.5,95,130.0
685,C2,95.5,0.5,95,130.0
686,D1,95.75,0.25,95,130.0
687,D3,95.75,0.25,95,130.0
688,A2,95.75,0.25,95,130.0
689,D2,95.75,0.25,95,130.0
690,E-1,96.0,1.0,95,130.0
691,E-3,96.0,1.0,95,130.0
692,B-2,96.0,1.0,95,130.0
693,E-2,96.0,1.0,95,130.0
694,C#3,96.0,0.5,95,130.0
695,C2,96.0,0.5,95,130.0
696,B3,96.5,0.25,95,130.0
697,B3,96.75,0.25,95,130.0
698,C2,96.75,0.25,95,130.0
699,E-1,97.0,0.5,95,130.0
700,B3,97.0,0.5,95,130.0
701,E-3,97.0,0.5,95,130.0
702,B-2,97.0,0.5,95,130.0
703,E-2,97.0,0.5,95,130.0
704,E-1,97.5,0.5,95,130.0
705,E2,97.5,0.5,95,130.0
706,E-3,97.5,0.5,95,130.0
707,B-2,97.5,0.5,95,130.0
708,E-2,97.5,0.5,95,130.0
709,E-1,98.0,0.25,95,130.0
710,B3,98.0,0.5,95,130.0
711,E-3,98.0,0.25,95,130.0
712,B-2,98.0,0.25,95,130.0
713,E-2,98.0,0.25,95,130.0
714,E-1,98.25,0.25,95,130.0
715,E-3,98.25,0.25,95,130.0
716,B-2,98.25,0.25,95,130.0
717,E-2,98.25,0.25,95,130.0
718,E-1,98.5,0.25,95,130.0
719,E-3,98.5,0.25,95,130.0
720,B-2,98.5,0.25,95,130.0
721,E-2,98.5,0.25,95,130.0
722,B3,98.5,0.25,95,130.0
723,C2,98.5,0.25,95,130.0
724,E-1,98.75,0.25,95,130.0
725,B3,98.75,0.25,95,130.0
726,E-3,98.75,0.25,95,130.0
727,B-2,98.75,0.25,95,130.0
728,E-2,98.75,0.25,95,130.0
729,E-1,99.0,1.0,95,130.0
730,E-3,99.0,1.0,95,130.0
731,B-2,99.0,1.0,95,130.0
732,E-2,99.0,1.0,95,130.0
733,B3,99.0,0.5,95,130.0
734,C2,99.0,0.5,95,130.0
735,B3,99.5,0.5,95,130.0
736,E-1,100.0,0.5,95,130.0
737,E-3,100.0,0.5,95,130.0
738,B-2,100.0,0.5,95,130.0
739,E-2,100.0,0.5,95,130.0
740,B3,100.0,0.5,95,130.0
741,C2,100.0,0.5,95,130.0
742,E-1,100.5,0.5,95,130.0
743,E-3,100.5,0.5,95,130.0
744,B-2,100.5,0.5,95,130.0
745,E-2,100.5,0.5,95,130.0
746,B3,100.5,0.25,95,130.0
747,E2,100.5,0.25,95,130.0
748,B3,100.75,0.25,95,130.0
749,E-1,101.0,0.25,95,130.0
750,B3,101.0,0.5,95,130.0
751,E-3,101.0,0.25,95,130.0
752,B-2,101.0,0.25,95,130.0
753,E-2,101.0,0.25,95,130.0
754,E-1,101.25,0.25,95,130.0
755,E-3,101.25,0.25,95,130.0
756,B-2,101.25,0.25,95,130.0
757,E-2,101.25,0.25,95,130.0
758,E-1,101.5,0.25,95,130.0
759,B3,101.5,0.5,95,130.0
760,E-3,101.5,0.25,95,130.0
761,B-2,101.5,0.25,95,130.0
762,E-2,101.5,0.25,95,130.0
763,E-1,101.75,0.25,95,130.0
764,E-3,101.75,0.25,95,130.0
765,B-2,101.75,0.25,95,130.0
766,E-2,101.75,0.25,95,130.0
767,D1,102.0,1.0,95,130.0
768,D3,102.0,1.0,95,130.0
769,A2,102.0,1.0,95,130.0
770,D2,102.0,1.0,95,130.0
771,C#3,102.0,0.5,95,130.0
772,C2,102.0,0.5,95,130.0
773,B3,102.5,0.25,95,130.0
774,B3,102.75,0.25,95,130.0
775,C2,102.75,0.25,95,130.0
776,D1,103.0,0.5,95,130.0
777,B3,103.0,0.5,95,130.0
778,D3,103.0,0.5,95,130.0
779,A2,103.0,0.5,95,130.0
780,D2,103.0,0.5,95,130.0
781,D1,103.5,0.5,95,130.0
782,D3,103.5,0.5,95,130.0
783,A2,103.5,0.5,95,130.0
784,D2,103.5,0.5,95,130.0
785,B3,103.5,0.5,95,130.0
786,E2,103.5,0.5,95,130.0
787,D1,104.0,0.25,95,130.0
788,D3,104.0,0.25,95,130.0
789,A2,104.0,0.25,95,130.0
790,D2,104.0,0.25,95,130.0
791,B3,104.0,0.5,95,130.0
792,C2,104.0,0.5,95,130.0
793,D1,104.25,0.25,95,130.0
794,D3,104.25,0.25,95,130.0
795,A2,104.25,0.25,95,130.0
796,D2,104.25,0.25,95,130.0
797,D1,104.5,0.25,95,130.0
798,B3,104.5,0.25,95,130.0
799,D3,104.5,0.25,95,130.0
800,A2,104.5,0.25,95,130.0
801,D2,104.5,0.25,95,130.0
802,D1,104.75,0.25,95,130.0
803,B3,104.75,0.25,95,130.0
804,D3,104.75,0.25,95,130.0
805,A2,104.75,0.25,95,130.0
806,D2,104.75,0.25,95,130.0
807,D1,105.0,1.0,95,130.0
808,D3,105.0,1.0,95,130.0
809,A2,105.0,1.0,95,130.0
810,D2,105.0,1.0,95,130.0
811,B3,105.0,0.5,95,130.0
812,C2,105.0,0.5,95,130.0
813,B3,105.5,0.5,95,130.0
814,D1,106.0,0.5,95,130.0
815,D3,106.0,0.5,95,130.0
816,A2,106.0,0.5,95,130.0
817,D2,106.0,0.5,95,130.0
818,B3,106.0,0.5,95,130.0
819,C2,106.0,0.5,95,130.0
820,D1,106.5,0.5,95,130.0
821,D3,106.5,0.5,95,130.0
822,A2,106.5,0.5,95,130.0
823,D2,106.5,0.5,95,130.0
824,B3,106.5,0.5,95,130.0
825,C2,106.5,0.5,95,130.0
826,D1,107.0,0.5,95,130.0
827,D3,107.0,0.5,95,130.0
828,A2,107.0,0.5,95,130.0
829,D2,107.0,0.5,95,130.0
830,B3,107.0,0.5,95,130.0
831,C2,107.0,0.5,95,130.0
832,D1,107.5,0.5,95,130.0
833,D3,107.5,0.5,95,130.0
834,A2,107.5,0.5,95,130.0
835,D2,107.5,0.5,95,130.0
836,B3,107.5,0.5,95,130.0
837,C2,107.5,0.5,95,130.0
838,D1,108.0,1.0,95,130.0
839,C2,108.0,0.5,95,130.0
840,A2,108.0,1.0,95,130.0
841,D2,108.0,1.0,95,130.0
842,A3,108.0,1.0,95,130.0
843,G3,108.0,1.0,95,130.0
844,D1,109.0,0.5,95,130.0
845,A2,109.0,0.5,95,130.0
846,D2,109.0,0.5,95,130.0
847,B-2,109.0,0.5,95,130.0
848,C2,109.0,0.5,95,130.0
849,D3,109.5,1.5,95,130.0
850,D1,109.5,1.0,95,130.0
851,G3,109.5,1.0,95,130.0
852,E2,109.5,0.5,95,130.0
853,D1,110.5,0.5,95,130.0
854,B-2,110.5,0.5,95,130.0
855,C2,110.5,0.5,95,130.0
856,B-2,111.0,1.0,95,130.0
857,D1,111.0,1.0,95,130.0
858,G3,111.0,1.0,95,130.0
859,C2,111.0,0.5,95,130.0
860,B-2,112.0,0.5,95,130.0
861,D1,112.0,0.5,95,130.0
862,B-2,112.0,0.5,95,130.0
863,C2,112.0,0.5,95,130.0
864,A2,112.5,0.5,95,130.0
865,D1,112.5,1.0,95,130.0
866,G3,112.5,1.0,95,130.0
867,E2,112.5,0.5,95,130.0
868,B-2,113.0,0.5,95,130.0
869,A2,113.5,0.5,95,130.0
870,D1,113.5,0.5,95,130.0
871,B-2,113.5,0.5,95,130.0
872,C2,113.5,0.5,95,130.0
873,D1,114.0,1.0,95,130.0
874,A3,114.0,1.0,95,130.0
875,A2,114.0,1.0,95,130.0
876,D2,114.0,1.0,95,130.0
877,G3,114.0,0.5,95,130.0
878,C2,114.0,0.5,95,130.0
879,D1,115.0,0.5,95,130.0
880,A2,115.0,0.5,95,130.0
881,D2,115.0,0.5,95,130.0
882,B-2,115.0,0.5,95,130.0
883,C2,115.0,0.5,95,130.0
884,D3,115.5,0.5,95,130.0
885,D1,115.5,0.5,95,130.0
886,G3,115.5,0.5,95,130.0
887,E2,115.5,0.5,95,130.0
888,D3,116.0,1.0,95,130.0
889,D1,116.0,0.5,95,130.0
890,D1,116.5,0.5,95,130.0
891,B-2,116.5,0.5,95,130.0
892,C2,116.5,0.5,95,130.0
893,B-2,117.0,1.5,95,130.0
894,D1,117.0,1.0,95,130.0
895,G3,117.0,1.0,95,130.0
896,C2,117.0,0.5,95,130.0
897,D1,118.0,0.5,95,130.0
898,B-2,118.0,0.5,95,130.0
899,C2,118.0,0.5,95,130.0
900,A2,118.5,0.5,95,130.0
901,D1,118.5,1.0,95,130.0
902,G3,118.5,1.0,95,130.0
903,E2,118.5,0.5,95,130.0
904,B-2,119.0,0.5,95,130.0
905,A2,119.5,0.5,95,130.0
906,D1,119.5,0.5,95,130.0
907,B-2,119.5,0.5,95,130.0
908,C2,119.5,0.5,95,130.0
909,E-1,120.0,1.0,95,130.0
910,C2,120.0,0.5,95,130.0
911,B-2,120.0,1.0,95,130.0
912,E-2,120.0,1.0,95,130.0
913,A3,120.0,1.0,95,130.0
914,G3,120.0,1.0,95,130.0
915,E-1,121.0,0.5,95,130.0
916,B-2,121.0,0.5,95,130.0
917,E-2,121.0,0.5,95,130.0
918,B-2,121.0,0.5,95,130.0
919,C2,121.0,0.5,95,130.0
920,E-3,121.5,0.5,95,130.0
921,E-1,121.5,1.0,95,130.0
922,G3,121.5,1.0,95,130.0
923,E2,121.5,0.5,95,130.0
924,F3,122.0,0.5,95,130.0
925,E-3,122.5,0.5,95,130.0
926,E-1,122.5,0.5,95,130.0
927,B-2,122.5,0.5,95,130.0
928,C2,122.5,0.5,95,130.0
929,E-3,123.0,167/1000,95,130.0
930,E-1,123.0,1.0,95,130.0
931,G3,123.0,1.0,95,130.0
932,C2,123.0,0.5,95,130.0
933,F3,123.167,167/1000,76,130.0
934,E-3,123.333,167/1000,76,130.0
935,F3,123.5,0.5,95,130.0
936,F3,124.0,0.5,95,130.0
937,E-1,124.0,0.5,95,130.0
938,B-2,124.0,0.5,95,130.0
939,C2,124.0,0.5,95,130.0
940,D3,124.5,0.5,95,130.0
941,E-1,124.5,1.0,95,130.0
942,G3,124.5,1.0,95,130.0
943,E2,124.5,0.5,95,130.0
944,E-3,125.0,0.5,95,130.0
945,D3,125.5,167/1000,95,130.0
946,E-1,125.5,0.5,95,130.0
947,B-2,125.5,0.5,95,130.0
948,C2,125.5,0.5,95,130.0
949,E-3,125.667,167/1000,76,130.0
950,D3,125.833,167/1000,76,130.0
951,D1,126.0,1.0,95,130.0
952,A3,126.0,1.0,95,130.0
953,A2,126.0,1.0,95,130.0
954,D2,126.0,1.0,95,130.0
955,G3,126.0,0.5,95,130.0
956,C2,126.0,0.5,95,130.0
957,D1,127.0,0.5,95,130.0
958,A2,127.0,0.5,95,130.0
959,D2,127.0,0.5,95,130.0
960,B-2,127.0,0.5,95,130.0
961,C2,127.0,0.5,95,130.0
962,D3,127.5,0.5,95,130.0
963,D1,127.5,0.5,95,130.0
964,G3,127.5,0.5,95,130.0
965,E2,127.5,0.5,95,130.0
966,D3,128.0,1.0,95,130.0
967,D1,128.0,0.5,95,130.0
968,D1,128.5,0.5,95,130.0
969,B-2,128.5,0.5,95,130.0
970,C2,128.5,0.5,95,130.0
971,B-2,129.0,1.5,95,130.0
972,D1,129.0,1.0,95,130.0
973,G3,129.0,1.0,95,130.0
974,C2,129.0,0.5,95,130.0
975,E2,129.5,0.5,95,130.0
976,D1,130.0,0.5,95,130.0
977,B-2,130.0,0.5,95,130.0
978,C2,130.0,0.5,95,130.0
979,A2,130.5,0.5,95,130.0
980,D1,130.5,1.0,95,130.0
981,G3,130.5,1.0,95,130.0
982,E2,130.5,0.5,95,130.0
983,B-2,131.0,0.5,95,130.0
984,C2,131.0,0.5,95,130.0
985,A2,131.5,0.5,95,130.0
986,D1,131.5,0.5,95,130.0
987,B-2,131.5,0.5,95,130.0
988,E2,131.5,0.5,95,130.0
989,D1,132.0,1.0,95,130.0
990,C2,132.0,0.5,95,130.0
991,A2,132.0,1.0,95,130.0
992,D2,132.0,1.0,95,130.0
993,A3,132.0,1.0,95,130.0
994,G3,132.0,1.0,95,130.0
995,D1,133.0,0.5,95,130.0
996,A2,133.0,0.5,95,130.0
997,D2,133.0,0.5,95,130.0
998,B-2,133.0,0.5,95,130.0
999,C2,133.0,0.5,95,130.0
1000,D3,133.5,1.5,95,130.0
1001,D1,133.5,1.0,95,130.0
1002,G3,133.5,1.0,95,130.0
1003,E2,133.5,0.5,95,130.0
1004,D1,134.5,0.5,95,130.0
1005,B-2,134.5,0.5,95,130.0
1006,C2,134.5,0.5,95,130.0
1007,B-2,135.0,1.0,95,130.0
1008,D1,135.0,1.0,95,130.0
1009,G3,135.0,1.0,95,130.0
1010,C2,135.0,0.5,95,130.0
1011,B-2,136.0,0.5,95,130.0
1012,D1,136.0,0.5,95,130.0
1013,B-2,136.0,0.5,95,130.0
1014,C2,136.0,0.5,95,130.0
1015,A2,136.5,0.5,95,130.0
1016,D1,136.5,1.0,95,130.0
1017,G3,136.5,1.0,95,130.0
1018,E2,136.5,0.5,95,130.0
1019,B-2,137.0,0.5,95,130.0
1020,A2,137.5,0.5,95,130.0
1021,D1,137.5,0.5,95,130.0
1022,B-2,137.5,0.5,95,130.0
1023,C2,137.5,0.5,95,130.0
1024,D1,138.0,1.0,95,130.0
1025,A3,138.0,1.0,95,130.0
1026,A2,138.0,1.0,95,130.0
1027,D2,138.0,1.0,95,130.0
1028,G3,138.0,0.5,95,130.0
1029,C2,138.0,0.5,95,130.0
1030,D1,139.0,0.5,95,130.0
1031,A2,139.0,0.5,95,130.0
1032,D2,139.0,0.5,95,130.0
1033,B-2,139.0,0.5,95,130.0
1034,C2,139.0,0.5,95,130.0
1035,D3,139.5,0.5,95,130.0
1036,D1,139.5,0.5,95,130.0
1037,G3,139.5,0.5,95,130.0
1038,E2,139.5,0.5,95,130.0
1039,D3,140.0,1.0,95,130.0
1040,D1,140.0,0.5,95,130.0
1041,D1,140.5,0.5,95,130.0
1042,B-2,140.5,0.5,95,130.0
1043,C2,140.5,0.5,95,130.0
1044,B-2,141.0,1.5,95,130.0
1045,D1,141.0,1.0,95,130.0
1046,G3,141.0,1.0,95,130.0
1047,C2,141.0,0.5,95,130.0
1048,D1,142.0,0.5,95,130.0
1049,B-2,142.0,0.5,95,130.0
1050,C2,142.0,0.5,95,130.0
1051,A2,142.5,0.5,95,130.0
1052,D1,142.5,1.0,95,130.0
1053,G3,142.5,1.0,95,130.0
1054,E2,142.5,0.5,95,130.0
1055,B-2,143.0,0.5,95,130.0
1056,A2,143.5,0.5,95,130.0
1057,D1,143.5,0.5,95,130.0
1058,B-2,143.5,0.5,95,130.0
1059,C2,143.5,0.5,95,130.0
1060,E-1,144.0,1.0,95,130.0
1061,C2,144.0,0.5,95,130.0
1062,B-2,144.0,1.0,95,130.0
1063,E-2,144.0,1.0,95,130.0
1064,A3,144.0,1.0,95,130.0
1065,G3,144.0,1.0,95,130.0
1066,E-1,145.0,0.5,95,130.0
1067,B-2,145.0,0.5,95,130.0
1068,E-2,145.0,0.5,95,130.0
1069,B-2,145.0,0.5,95,130.0
1070,C2,145.0,0.5,95,130.0
1071,E-3,145.5,0.5,95,130.0
1072,E-1,145.5,1.0,95,130.0
1073,G3,145.5,1.0,95,130.0
1074,E2,145.5,0.5,95,130.0
1075,F3,146.0,0.5,95,130.0
1076,E-3,146.5,0.5,95,130.0
1077,E-1,146.5,0.5,95,130.0
1078,B-2,146.5,0.5,95,130.0
1079,C2,146.5,0.5,95,130.0
1080,E-3,147.0,167/1000,95,130.0
1081,E-1,147.0,1.0,95,130.0
1082,G3,147.0,1.0,95,130.0
1083,C2,147.0,0.5,95,130.0
1084,F3,147.167,167/1000,76,130.0
1085,E-3,147.333,167/1000,76,130.0
1086,F3,147.5,0.5,95,130.0
1087,F3,148.0,0.5,95,130.0
1088,E-1,148.0,0.5,95,130.0
1089,B-2,148.0,0.5,95,130.0
1090,C2,148.0,0.5,95,130.0
1091,D3,148.5,0.5,95,130.0
1092,E-1,148.5,1.0,95,130.0
1093,G3,148.5,1.0,95,130.0
1094,E2,148.5,0.5,95,130.0
1095,E-3,149.0,0.5,95,130.0
1096,D3,149.5,167/1000,95,130.0
1097,E-1,149.5,0.5,95,130.0
1098,B-2,149.5,0.5,95,130.0
1099,C2,149.5,0.5,95,130.0
1100,E-3,149.667,167/1000,76,130.0
1101,D3,149.833,167/1000,76,130.0
1102,D1,150.0,1.0,95,130.0
1103,A3,150.0,1.0,95,130.0
1104,A2,150.0,1.0,95,130.0
1105,D2,150.0,1.0,95,130.0
1106,G3,150.0,0.5,95,130.0
1107,C2,150.0,0.5,95,130.0
1108,D1,151.0,0.5,95,130.0
1109,A2,151.0,0.5,95,130.0
1110,D2,151.0,0.5,95,130.0
1111,B-2,151.0,0.5,95,130.0
1112,C2,151.0,0.5,95,130.0
1113,D3,151.5,0.5,95,130.0
1114,D1,151.5,0.5,95,130.0
1115,G3,151.5,0.5,95,130.0
1116,E2,151.5,0.5,95,130.0
1117,D3,152.0,1.0,95,130.0
1118,D1,152.0,0.5,95,130.0
1119,D1,152.5,0.5,95,130.0
1120,B-2,152.5,0.5,95,130.0
1121,C2,152.5,0.5,95,130.0
1122,B-2,153.0,1.5,95,130.0
1123,D1,153.0,1.0,95,130.0
1124,G3,153.0,1.0,95,130.0
1125,C2,153.0,0.5,95,130.0
1126,E2,153.5,0.5,95,130.0
1127,D1,154.0,0.5,95,130.0
1128,B-2,154.0,0.5,95,130.0
1129,C2,154.0,0.5,95,130.0
1130,A2,154.5,0.5,95,130.0
1131,D1,154.5,1.0,95,130.0
1132,G3,154.5,1.0,95,130.0
1133,E2,154.5,0.5,95,130.0
1134,B-2,155.0,0.5,95,130.0
1135,C2,155.0,0.5,95,130.0
1136,A2,155.5,0.5,95,130.0
1137,D1,155.5,0.5,95,130.0
1138,B-2,155.5,0.5,95,130.0
1139,E2,155.5,0.5,95,130.0
1140,D3,156.0,0.5,95,130.0
1141,D3,156.0,0.5,95,130.0
1142,D1,156.0,3.0,95,130.0
1143,G3,156.0,0.5,95,130.0
1144,C2,156.0,0.5,95,130.0
1145,A3,156.5,0.5,95,130.0
1146,A3,156.5,0.5,95,130.0
1147,G#2,156.5,0.5,95,130.0
1148,D4,157.0,0.5,95,130.0
1149,D4,157.0,0.5,95,130.0
1150,G#2,157.0,0.5,95,130.0
1151,E4,157.5,167/1000,76,130.0
1152,E4,157.5,167/1000,95,130.0
1153,B-2,157.5,0.5,72,130.0
1154,E2,157.5,0.5,72,130.0
1155,F4,157.667,167/1000,76,130.0
1156,F4,157.667,167/1000,76,130.0
1157,E4,157.833,167/1000,76,130.0
1158,E4,157.833,167/1000,76,130.0
1159,D4,158.0,0.5,95,130.0
1160,F4,158.0,167/1000,76,130.0
1161,G#2,158.0,0.5,95,130.0
1162,E4,158.167,167/1000,76,130.0
1163,F4,158.333,167/1000,76,130.0
1164,A3,158.5,0.5,95,130.0
1165,D4,158.5,0.5,95,130.0
1166,G#2,158.5,0.5,95,130.0
1167,C2,158.5,0.5,95,130.0
1168,G2,159.0,0.5,95,130.0
1169,G2,159.0,0.5,95,130.0
1170,G1,159.0,1.0,95,130.0
1171,G#2,159.0,0.5,95,130.0
1172,C2,159.0,0.5,95,130.0
1173,D3,159.5,0.5,95,130.0
1174,D3,159.5,0.5,95,130.0
1175,G#2,159.5,0.5,95,130.0
1176,A3,160.0,1.0,95,130.0
1177,A3,160.0,1.0,95,130.0
1178,G1,160.0,2.0,95,130.0
1179,G#2,160.0,0.5,95,130.0
1180,G2,160.5,0.5,95,130.0
1181,G2,160.5,0.5,95,130.0
1182,B-2,160.5,0.5,72,130.0
1183,E2,160.5,0.5,72,130.0
1184,D3,161.0,0.5,95,130.0
1185,D3,161.0,0.5,95,130.0
1186,G#2,161.0,0.5,95,130.0
1187,A3,161.5,1.0,95,130.0
1188,A3,161.5,1.0,95,130.0
1189,G#2,161.5,0.5,95,130.0
1190,D3,162.0,0.5,95,130.0
1191,D3,162.0,0.5,95,130.0
1192,D1,162.0,2.0,95,130.0
1193,G#2,162.0,0.5,95,130.0
1194,C2,162.0,0.5,95,130.0
1195,A3,162.5,0.5,95,130.0
1196,A3,162.5,0.5,95,130.0
1197,G#2,162.5,0.5,95,130.0
1198,D4,163.0,0.5,95,130.0
1199,D4,163.0,0.5,95,130.0
1200,G#2,163.0,0.5,95,130.0
1201,E4,163.5,167/1000,76,130.0
1202,E4,163.5,167/1000,95,130.0
1203,B-2,163.5,0.5,72,130.0
1204,E2,163.5,0.5,72,130.0
1205,F4,163.667,167/1000,76,130.0
1206,F4,163.667,167/1000,76,130.0
1207,E4,163.833,167/1000,76,130.0
1208,E4,163.833,167/1000,76,130.0
1209,D4,164.0,0.5,95,130.0
1210,F4,164.0,167/1000,76,130.0
1211,D1,164.0,1.0,95,130.0
1212,G#2,164.0,0.5,95,130.0
1213,E4,164.167,167/1000,76,130.0
1214,F4,164.333,167/1000,76,130.0
1215,A3,164.5,0.5,95,130.0
1216,D4,164.5,0.5,76,130.0
1217,G#2,164.5,0.5,95,130.0
1218,C2,164.5,0.5,95,130.0
1219,G2,165.0,0.5,95,130.0
1220,G2,165.0,0.5,95,130.0
1221,G1,165.0,3.0,95,130.0
1222,G#2,165.0,0.5,95,130.0
1223,C2,165.0,0.5,95,130.0
1224,D3,165.5,0.5,95,130.0
1225,D3,165.5,0.5,95,130.0
1226,G#2,165.5,0.5,95,130.0
1227,A3,166.0,1.0,95,130.0
1228,A3,166.0,1.0,95,130.0
1229,G#2,166.0,0.5,95,130.0
1230,G2,166.5,0.5,95,130.0
1231,G2,166.5,0.5,95,130.0
1232,B-2,166.5,0.5,72,130.0
1233,E2,166.5,0.5,72,130.0
1234,D3,167.0,0.5,95,130.0
1235,D3,167.0,0.5,95,130.0
1236,G#2,167.0,0.5,95,130.0
1237,A3,167.5,0.5,95,130.0
1238,A3,167.5,0.5,95,130.0
1239,G#2,167.5,0.5,95,130.0
1240,D3,168.0,0.5,95,130.0
1241,A3,168.0,0.5,95,130.0
1242,D3,168.0,0.5,95,130.0
1243,D1,168.0,3.0,95,130.0
1244,G#2,168.0,0.5,95,130.0
1245,C2,168.0,0.5,95,130.0
1246,A3,168.5,0.5,95,130.0
1247,A3,168.5,0.5,95,130.0
1248,G#2,168.5,0.5,95,130.0
1249,D4,169.0,0.5,95,130.0
1250,D4,169.0,0.5,95,130.0
1251,G#2,169.0,0.5,95,130.0
1252,E4,169.5,167/1000,76,130.0
1253,E4,169.5,167/1000,95,130.0
1254,B-2,169.5,0.5,72,130.0
1255,E2,169.5,0.5,72,130.0
1256,F4,169.667,167/1000,76,130.0
1257,F4,169.667,167/1000,76,130.0
1258,E4,169.833,167/1000,76,130.0
1259,E4,169.833,167/1000,76,130.0
1260,D4,170.0,0.5,95,130.0
1261,F4,170.0,167/1000,76,130.0
1262,G#2,170.0,0.5,95,130.0
1263,E4,170.167,167/1000,76,130.0
1264,F4,170.333,167/1000,76,130.0
1265,A3,170.5,0.5,95,130.0
1266,D4,170.5,0.5,95,130.0
1267,G#2,170.5,0.5,95,130.0
1268,C2,170.5,0.5,95,130.0
1269,C3,171.0,0.5,95,130.0
1270,C3,171.0,0.5,95,130.0
1271,C2,171.0,1.0,95,130.0
1272,G#2,171.0,0.5,95,130.0
1273,C2,171.0,0.5,95,130.0
1274,C4,171.5,0.5,95,130.0
1275,C4,171.5,0.5,95,130.0
1276,G#2,171.5,0.5,95,130.0
1277,G4,172.0,0.5,76,130.0
1278,G4,172.0,0.5,95,130.0
1279,C2,172.0,2.0,95,130.0
1280,G#2,172.0,0.5,95,130.0
1281,C3,172.5,0.5,95,130.0
1282,C3,172.5,0.5,95,130.0
1283,B-2,172.5,0.5,72,130.0
1284,E2,172.5,0.5,72,130.0
1285,C4,173.0,0.5,95,130.0
1286,C4,173.0,0.5,95,130.0
1287,G#2,173.0,0.5,95,130.0
1288,A3,173.5,0.5,95,130.0
1289,A3,173.5,0.5,95,130.0
1290,G#2,173.5,0.5,95,130.0
1291,F3,174.0,0.5,95,130.0
1292,F3,174.0,0.5,95,130.0
1293,F1,174.0,2.0,95,130.0
1294,G#2,174.0,0.5,95,130.0
1295,C2,174.0,0.5,95,130.0
1296,C4,174.5,0.5,95,130.0
1297,C4,174.5,0.5,95,130.0
1298,G#2,174.5,0.5,95,130.0
1299,F4,175.0,0.5,95,130.0
1300,F4,175.0,0.5,95,130.0
1301,G#2,175.0,0.5,95,130.0
1302,F3,175.5,0.5,95,130.0
1303,F3,175.5,0.5,95,130.0
1304,B-2,175.5,0.5,72,130.0
1305,E2,175.5,0.5,72,130.0
1306,C4,176.0,0.5,95,130.0
1307,C4,176.0,0.5,95,130.0
1308,F1,176.0,1.0,95,130.0
1309,G#2,176.0,0.5,95,130.0
1310,F4,176.5,0.5,95,130.0
1311,F4,176.5,0.5,95,130.0
1312,G#2,176.5,0.5,95,130.0
1313,C2,176.5,0.5,95,130.0
1314,F2,177.0,0.5,95,130.0
1315,F2,177.0,0.5,95,130.0
1316,F1,177.0,1.5,95,130.0
1317,G#2,177.0,0.5,95,130.0
1318,C2,177.0,0.5,95,130.0
1319,C3,177.5,0.5,95,130.0
1320,C3,177.5,0.5,95,130.0
1321,G#2,177.5,0.5,95,130.0
1322,F3,178.0,0.5,95,130.0
1323,F3,178.0,0.5,95,130.0
1324,G#2,178.0,0.5,95,130.0
1325,G2,178.5,0.5,95,130.0
1326,G2,178.5,0.5,95,130.0
1327,G1,178.5,1.5,95,130.0
1328,B-2,178.5,0.5,72,130.0
1329,E2,178.5,0.5,72,130.0
1330,D3,179.0,0.5,95,130.0
1331,D3,179.0,0.5,95,130.0
1332,G#2,179.0,0.5,95,130.0
1333,G3,179.5,0.5,95,130.0
1334,G3,179.5,0.5,95,130.0
1335,G#2,179.5,0.5,95,130.0
1336,D3,180.0,0.5,95,130.0
1337,D3,180.0,0.5,95,130.0
1338,D1,180.0,3.0,95,130.0
1339,G3,180.0,0.5,95,130.0
1340,C2,180.0,0.5,95,130.0
1341,A3,180.5,0.5,95,130.0
1342,A3,180.5,0.5,95,130.0
1343,G#2,180.5,0.5,95,130.0
1344,D4,181.0,0.5,95,130.0
1345,D4,181.0,0.5,95,130.0
1346,G#2,181.0,0.5,95,130.0
1347,E4,181.5,167/1000,95,130.0
1348,E4,181.5,167/1000,95,130.0
1349,B-2,181.5,0.5,72,130.0
1350,E2,181.5,0.5,72,130.0
1351,F4,181.667,167/1000,76,130.0
1352,F4,181.667,167/1000,76,130.0
1353,E4,181.833,167/1000,76,130.0
1354,E4,181.833,167/1000,76,130.0
1355,D4,182.0,0.5,95,130.0
1356,F4,182.0,167/1000,76,130.0
1357,G#2,182.0,0.5,95,130.0
1358,E4,182.167,167/1000,76,130.0
1359,F4,182.333,167/1000,76,130.0
1360,A3,182.5,0.5,95,130.0
1361,D4,182.5,0.5,95,130.0
1362,G#2,182.5,0.5,95,130.0
1363,C2,182.5,0.5,95,130.0
1364,G2,183.0,0.5,95,130.0
1365,G2,183.0,0.5,95,130.0
1366,G1,183.0,1.0,95,130.0
1367,G#2,183.0,0.5,95,130.0
1368,C2,183.0,0.5,95,130.0
1369,D3,183.5,0.5,95,130.0
1370,D3,183.5,0.5,95,130.0
1371,G#2,183.5,0.5,95,130.0
1372,A3,184.0,1.0,95,130.0
1373,A3,184.0,1.0,95,130.0
1374,G1,184.0,2.0,95,130.0
1375,G#2,184.0,0.5,95,130.0
1376,G2,184.5,0.5,95,130.0
1377,G2,184.5,0.5,95,130.0
1378,B-2,184.5,0.5,72,130.0
1379,E2,184.5,0.5,72,130.0
1380,D3,185.0,0.5,95,130.0
1381,D3,185.0,0.5,95,130.0
1382,G#2,185.0,0.5,95,130.0
1383,A3,185.5,1.0,95,130.0
1384,A3,185.5,1.0,95,130.0
1385,G#2,185.5,0.5,95,130.0
1386,D3,186.0,0.5,95,130.0
1387,D3,186.0,0.5,95,130.0
1388,D1,186.0,2.0,95,130.0
1389,G#2,186.0,0.5,95,130.0
1390,C2,186.0,0.5,95,130.0
1391,A3,186.5,0.5,95,130.0
1392,A3,186.5,0.5,95,130.0
1393,G#2,186.5,0.5,95,130.0
1394,D4,187.0,0.5,95,130.0
1395,D4,187.0,0.5,95,130.0
1396,G#2,187.0,0.5,95,130.0
1397,E4,187.5,167/1000,76,130.0
1398,E4,187.5,167/1000,95,130.0
1399,B-2,187.5,0.5,72,130.0
1400,E2,187.5,0.5,72,130.0
1401,F4,187.667,167/1000,76,130.0
1402,F4,187.667,167/1000,76,130.0
1403,E4,187.833,167/1000,76,130.0
1404,E4,187.833,167/1000,76,130.0
1405,D4,188.0,0.5,95,130.0
1406,F4,188.0,167/1000,76,130.0
1407,D1,188.0,1.0,95,130.0
1408,A2,188.0,0.5,95,130.0
1409,E4,188.167,167/1000,76,130.0
1410,F4,188.333,167/1000,76,130.0
1411,A3,188.5,0.5,95,130.0
1412,D4,188.5,0.5,76,130.0
1413,G2,188.5,0.5,95,130.0
1414,F1,189.0,1.0,95,130.0
1415,F3,189.0,1.0,95,130.0
1416,C3,189.0,1.0,95,130.0
1417,F2,189.0,1.0,95,130.0
1418,A3,189.0,1.0,95,130.0
1419,C2,189.0,1.0,95,130.0
1420,G1,190.0,1.0,95,130.0
1421,G3,190.0,1.0,95,130.0
1422,D3,190.0,1.0,95,130.0
1423,G2,190.0,1.0,95,130.0
1424,C#3,190.0,1.0,95,130.0
1425,C2,190.0,1.0,95,130.0
1426,A1,191.0,1.0,95,130.0
1427,A3,191.0,1.0,95,130.0
1428,E3,191.0,1.0,95,130.0
1429,A2,191.0,1.0,95,130.0
1430,A3,191.0,1.0,95,130.0
1431,C2,191.0,1.0,95,130.0
1432,E-1,192.0,1.0,95,130.0
1433,E-3,192.0,1.0,95,130.0
1434,B-2,192.0,1.0,95,130.0
1435,E-2,192.0,1.0,95,130.0
1436,C#3,192.0,0.5,95,130.0
1437,C2,192.0,0.5,95,130.0
1438,B3,192.5,0.25,95,130.0
1439,B3,192.75,0.25,95,130.0
1440,C2,192.75,0.25,95,130.0
1441,E-1,193.0,0.5,95,130.0
1442,B3,193.0,0.5,95,130.0
1443,E-3,193.0,0.5,95,130.0
1444,B-2,193.0,0.5,95,130.0
1445,E-2,193.0,0.5,95,130.0
1446,E-1,193.5,0.5,95,130.0
1447,E2,193.5,0.5,95,130.0
1448,E-3,193.5,0.5,95,130.0
1449,B-2,193.5,0.5,95,130.0
1450,E-2,193.5,0.5,95,130.0
1451,E-1,194.0,0.25,95,130.0
1452,B3,194.0,0.5,95,130.0
1453,E-3,194.0,0.25,95,130.0
1454,B-2,194.0,0.25,95,130.0
1455,E-2,194.0,0.25,95,130.0
1456,E-1,194.25,0.25,95,130.0
1457,E-3,194.25,0.25,95,130.0
1458,B-2,194.25,0.25,95,130.0
1459,E-2,194.25,0.25,95,130.0
1460,E-1,194.5,0.25,95,130.0
1461,E-3,194.5,0.25,95,130.0
1462,B-2,194.5,0.25,95,130.0
1463,E-2,194.5,0.25,95,130.0
1464,B3,194.5,0.25,95,130.0
1465,C2,194.5,0.25,95,130.0
1466,E-1,194.75,0.25,95,130.0
1467,B3,194.75,0.25,95,130.0
1468,E-3,194.75,0.25,95,130.0
1469,B-2,194.75,0.25,95,130.0
1470,E-2,194.75,0.25,95,130.0
1471,E-1,195.0,1.0,95,130.0
1472,E-3,195.0,1.0,95,130.0
1473,B-2,195.0,1.0,95,130.0
1474,E-2,195.0,1.0,95,130.0
1475,B3,195.0,0.5,95,130.0
1476,C2,195.0,0.5,95,130.0
1477,B3,195.5,0.5,95,130.0
1478,E-1,196.0,0.5,95,130.0
1479,E-3,196.0,0.5,95,130.0
1480,B-2,196.0,0.5,95,130.0
1481,E-2,196.0,0.5,95,130.0
1482,B3,196.0,0.5,95,130.0
1483,C2,196.0,0.5,95,130.0
1484,E-1,196.5,0.5,95,130.0
1485,E-3,196.5,0.5,95,130.0
1486,B-2,196.5,0.5,95,130.0
1487,E-2,196.5,0.5,95,130.0
1488,B3,196.5,0.25,95,130.0
1489,E2,196.5,0.25,95,130.0
1490,B3,196.75,0.25,95,130.0
1491,E-1,197.0,0.25,95,130.0
1492,B3,197.0,0.5,95,130.0
1493,E-3,197.0,0.25,95,130.0
1494,B-2,197.0,0.25,95,130.0
1495,E-2,197.0,0.25,95,130.0
1496,E-1,197.25,0.25,95,130.0
1497,E-3,197.25,0.25,95,130.0
1498,B-2,197.25,0.25,95,130.0
1499,E-2,197.25,0.25,95,130.0
1500,E-1,197.5,0.25,95,130.0
1501,B3,197.5,0.5,95,130.0
1502,E-3,197.5,0.25,95,130.0
1503,B-2,197.5,0.25,95,130.0
1504,E-2,197.5,0.25,95,130.0
1505,E-1,197.75,0.25,95,130.0
1506,E-3,197.75,0.25,95,130.0
1507,B-2,197.75,0.25,95,130.0
1508,E-2,197.75,0.25,95,130.0
1509,D1,198.0,1.0,95,130.0
1510,D3,198.0,1.0,95,130.0
1511,A2,198.0,1.0,95,130.0
1512,D2,198.0,1.0,95,130.0
1513,C#3,198.0,0.5,95,130.0
1514,C2,198.0,0.5,95,130.0
1515,B3,198.5,0.25,95,130.0
1516,B3,198.75,0.25,95,130.0
1517,C2,198.75,0.25,95,130.0
1518,D1,199.0,0.5,95,130.0
1519,B3,199.0,0.5,95,130.0
1520,D3,199.0,0.5,95,130.0
1521,A2,199.0,0.5,95,130.0
1522,D2,199.0,0.5,95,130.0
1523,D1,199.5,0.5,95,130.0
1524,D3,199.5,0.5,95,130.0
1525,A2,199.5,0.5,95,130.0
1526,D2,199.5,0.5,95,130.0
1527,B3,199.5,0.5,95,130.0
1528,E2,199.5,0.5,95,130.0
1529,D1,200.0,0.25,95,130.0
1530,C2,200.0,0.5,95,130.0
1531,D3,200.0,0.25,95,130.0
1532,A2,200.0,0.25,95,130.0
1533,D2,200.0,0.25,95,130.0
1534,D1,200.25,0.25,95,130.0
1535,D3,200.25,0.25,95,130.0
1536,A2,200.25,0.25,95,130.0
1537,D2,200.25,0.25,95,130.0
1538,D1,200.5,0.25,95,130.0
1539,B3,200.5,0.25,95,130.0
1540,D3,200.5,0.25,95,130.0
1541,A2,200.5,0.25,95,130.0
1542,D2,200.5,0.25,95,130.0
1543,D1,200.75,0.25,95,130.0
1544,B3,200.75,0.25,95,130.0
1545,D3,200.75,0.25,95,130.0
1546,A2,200.75,0.25,95,130.0
1547,D2,200.75,0.25,95,130.0
1548,D1,201.0,1.0,95,130.0
1549,D3,201.0,1.0,95,130.0
1550,A2,201.0,1.0,95,130.0
1551,D2,201.0,1.0,95,130.0
1552,B3,201.0,0.5,95,130.0
1553,C2,201.0,0.5,95,130.0
1554,B3,201.5,0.5,95,130.0
1555,D1,202.0,0.5,95,130.0
1556,D3,202.0,0.5,95,130.0
1557,A2,202.0,0.5,95,130.0
1558,D2,202.0,0.5,95,130.0
1559,B3,202.0,0.5,95,130.0
1560,C2,202.0,0.5,95,130.0
1561,D1,202.5,0.5,95,130.0
1562,D3,202.5,0.5,95,130.0
1563,A2,202.5,0.5,95,130.0
1564,D2,202.5,0.5,95,130.0
1565,B3,202.5,0.25,95,130.0
1566,E2,202.5,0.25,95,130.0
1567,B3,202.75,0.25,95,130.0
1568,D1,203.0,0.25,95,130.0
1569,B3,203.0,0.5,95,130.0
1570,D3,203.0,0.25,95,130.0
1571,A2,203.0,0.25,95,130.0
1572,D2,203.0,0.25,95,130.0
1573,D1,203.25,0.25,95,130.0
1574,D3,203.25,0.25,95,130.0
1575,A2,203.25,0.25,95,130.0
1576,D2,203.25,0.25,95,130.0
1577,D1,203.5,0.25,95,130.0
1578,D3,203.5,0.25,95,130.0
1579,A2,203.5,0.25,95,130.0
1580,D2,203.5,0.25,95,130.0
1581,B3,203.5,0.5,95,130.0
1582,C2,203.5,0.5,95,130.0
1583,D1,203.75,0.25,95,130.0
1584,D3,203.75,0.25,95,130.0
1585,A2,203.75,0.25,95,130.0
1586,D2,203.75,0.25,95,130.0
1587,E-1,204.0,1.0,95,130.0
1588,E-3,204.0,1.0,95,130.0
1589,B-2,204.0,1.0,95,130.0
1590,E-2,204.0,1.0,95,130.0
1591,C#3,204.0,0.5,95,130.0
1592,C2,204.0,0.5,95,130.0
1593,B3,204.5,0.25,95,130.0
1594,B3,204.75,0.25,95,130.0
1595,C2,204.75,0.25,95,130.0
1596,E-1,205.0,0.5,95,130.0
1597,B3,205.0,0.5,95,130.0
1598,E-3,205.0,0.5,95,130.0
1599,B-2,205.0,0.5,95,130.0
1600,E-2,205.0,0.5,95,130.0
1601,E-1,205.5,0.5,95,130.0
1602,E2,205.5,0.5,95,130.0
1603,E-3,205.5,0.5,95,130.0
1604,B-2,205.5,0.5,95,130.0
1605,E-2,205.5,0.5,95,130.0
1606,E-1,206.0,0.25,95,130.0
1607,B3,206.0,0.5,95,130.0
1608,E-3,206.0,0.25,95,130.0
1609,B-2,206.0,0.25,95,130.0
1610,E-2,206.0,0.25,95,130.0
1611,E-1,206.25,0.25,95,130.0
1612,E-3,206.25,0.25,95,130.0
1613,B-2,206.25,0.25,95,130.0
1614,E-2,206.25,0.25,95,130.0
1615,E-1,206.5,0.25,95,130.0
1616,E-3,206.5,0.25,95,130.0
1617,B-2,206.5,0.25,95,130.0
1618,E-2,206.5,0.25,95,130.0
1619,B3,206.5,0.25,95,130.0
1620,C2,206.5,0.25,95,130.0
1621,E-1,206.75,0.25,95,130.0
1622,B3,206.75,0.25,95,130.0
1623,E-3,206.75,0.25,95,130.0
1624,B-2,206.75,0.25,95,130.0
1625,E-2,206.75,0.25,95,130.0
1626,E-1,207.0,1.0,95,130.0
1627,E-3,207.0,1.0,95,130.0
1628,B-2,207.0,1.0,95,130.0
1629,E-2,207.0,1.0,95,130.0
1630,B3,207.0,0.5,95,130.0
1631,C2,207.0,0.5,95,130.0
1632,B3,207.5,0.5,95,130.0
1633,E-1,208.0,0.5,95,130.0
1634,E-3,208.0,0.5,95,130.0
1635,B-2,208.0,0.5,95,130.0
1636,E-2,208.0,0.5,95,130.0
1637,B3,208.0,0.5,95,130.0
1638,C2,208.0,0.5,95,130.0
1639,E-1,208.5,0.5,95,130.0
1640,E-3,208.5,0.5,95,130.0
1641,B-2,208.5,0.5,95,130.0
1642,E-2,208.5,0.5,95,130.0
1643,B3,208.5,0.25,95,130.0
1644,E2,208.5,0.25,95,130.0
1645,B3,208.75,0.25,95,130.0
1646,E-1,209.0,0.25,95,130.0
1647,B3,209.0,0.5,95,130.0
1648,E-3,209.0,0.25,95,130.0
1649,B-2,209.0,0.25,95,130.0
1650,E-2,209.0,0.25,95,130.0
1651,E-1,209.25,0.25,95,130.0
1652,E-3,209.25,0.25,95,130.0
1653,B-2,209.25,0.25,95,130.0
1654,E-2,209.25,0.25,95,130.0
1655,E-1,209.5,0.25,95,130.0
1656,B3,209.5,0.5,95,130.0
1657,E-3,209.5,0.25,95,130.0
1658,B-2,209.5,0.25,95,130.0
1659,E-2,209.5,0.25,95,130.0
1660,E-1,209.75,0.25,95,130.0
1661,E-3,209.75,0.25,95,130.0
1662,B-2,209.75,0.25,95,130.0
1663,E-2,209.75,0.25,95,130.0
1664,D1,210.0,1.0,95,130.0
1665,D3,210.0,1.0,95,130.0
1666,A2,210.0,1.0,95,130.0
1667,D2,210.0,1.0,95,130.0
1668,C#3,210.0,0.5,95,130.0
1669,C2,210.0,0.5,95,130.0
1670,B3,210.5,0.25,95,130.0
1671,B3,210.75,0.25,95,130.0
1672,C2,210.75,0.25,95,130.0
1673,D1,211.0,0.5,95,130.0
1674,B3,211.0,0.5,95,130.0
1675,D3,211.0,0.5,95,130.0
1676,A2,211.0,0.5,95,130.0
1677,D2,211.0,0.5,95,130.0
1678,D1,211.5,0.5,95,130.0
1679,D3,211.5,0.5,95,130.0
1680,A2,211.5,0.5,95,130.0
1681,D2,211.5,0.5,95,130.0
1682,B3,211.5,0.5,95,130.0
1683,E2,211.5,0.5,95,130.0
1684,D1,212.0,0.25,95,130.0
1685,D3,212.0,0.25,95,130.0
1686,A2,212.0,0.25,95,130.0
1687,D2,212.0,0.25,95,130.0
1688,B3,212.0,0.5,95,130.0
1689,C2,212.0,0.5,95,130.0
1690,D1,212.25,0.25,95,130.0
1691,D3,212.25,0.25,95,130.0
1692,A2,212.25,0.25,95,130.0
1693,D2,212.25,0.25,95,130.0
1694,D1,212.5,0.25,95,130.0
1695,B3,212.5,0.25,95,130.0
1696,D3,212.5,0.25,95,130.0
1697,A2,212.5,0.25,95,130.0
1698,D2,212.5,0.25,95,130.0
1699,D1,212.75,0.25,95,130.0
1700,B3,212.75,0.25,95,130.0
1701,D3,212.75,0.25,95,130.0
1702,A2,212.75,0.25,95,130.0
1703,D2,212.75,0.25,95,130.0
1704,D1,213.0,1.0,95,130.0
1705,D3,213.0,1.0,95,130.0
1706,A2,213.0,1.0,95,130.0
1707,D2,213.0,1.0,95,130.0
1708,B3,213.0,0.5,95,130.0
1709,C2,213.0,0.5,95,130.0
1710,B3,213.5,0.5,95,130.0
1711,D1,214.0,0.5,95,130.0
1712,D3,214.0,0.5,95,130.0
1713,A2,214.0,0.5,95,130.0
1714,D2,214.0,0.5,95,130.0
1715,B3,214.0,0.5,95,130.0
1716,C2,214.0,0.5,95,130.0
1717,D1,214.5,0.5,95,130.0
1718,D3,214.5,0.5,95,130.0
1719,A2,214.5,0.5,95,130.0
1720,D2,214.5,0.5,95,130.0
1721,B3,214.5,0.5,95,130.0
1722,C2,214.5,0.5,95,130.0
1723,D1,215.0,0.5,95,130.0
1724,D3,215.0,0.5,95,130.0
1725,A2,215.0,0.5,95,130.0
1726,D2,215.0,0.5,95,130.0
1727,B3,215.0,0.5,95,130.0
1728,C2,215.0,0.5,95,130.0
1729,D1,215.5,0.5,95,130.0
1730,D3,215.5,0.5,95,130.0
1731,A2,215.5,0.5,95,130.0
1732,D2,215.5,0.5,95,130.0
1733,B3,215.5,0.5,95,130.0
1734,C2,215.5,0.5,95,130.0
1735,D1,216.0,1.0,95,130.0
1736,C2,216.0,0.5,95,130.0
1737,A2,216.0,1.0,95,130.0
1738,D2,216.0,1.0,95,130.0
1739,A3,216.0,1.0,95,130.0
1740,G3,216.0,1.0,95,130.0
1741,D1,217.0,0.5,95,130.0
1742,A2,217.0,0.5,95,130.0
1743,D2,217.0,0.5,95,130.0
1744,B-2,217.0,0.5,95,130.0
1745,C2,217.0,0.5,95,130.0
1746,D3,217.5,1.5,95,130.0
1747,D1,217.5,1.0,95,130.0
1748,G3,217.5,1.0,95,130.0
1749,E2,217.5,0.5,95,130.0
1750,D1,218.5,0.5,95,130.0
1751,B-2,218.5,0.5,95,130.0
1752,C2,218.5,0.5,95,130.0
1753,B-2,219.0,1.0,95,130.0
1754,D1,219.0,1.0,95,130.0
1755,G3,219.0,1.0,95,130.0
1756,C2,219.0,0.5,95,130.0
1757,B-2,220.0,0.5,95,130.0
1758,D1,220.0,0.5,95,130.0
1759,B-2,220.0,0.5,95,130.0
1760,C2,220.0,0.5,95,130.0
1761,A2,220.5,0.5,95,130.0
1762,D1,220.5,1.0,95,130.0
1763,G3,220.5,1.0,95,130.0
1764,E2,220.5,0.5,95,130.0
1765,B-2,221.0,0.5,95,130.0
1766,A2,221.5,0.5,95,130.0
1767,D1,221.5,0.5,95,130.0
1768,B-2,221.5,0.5,95,130.0
1769,C2,221.5,0.5,95,130.0
1770,D1,222.0,1.0,95,130.0
1771,A3,222.0,1.0,95,130.0
1772,A2,222.0,1.0,95,130.0
1773,D2,222.0,1.0,95,130.0
1774,G3,222.0,0.5,95,130.0
1775,C2,222.0,0.5,95,130.0
1776,D1,223.0,0.5,95,130.0
1777,A2,223.0,0.5,95,130.0
1778,D2,223.0,0.5,95,130.0
1779,B-2,223.0,0.5,95,130.0
1780,C2,223.0,0.5,95,130.0
1781,D3,223.5,0.5,95,130.0
1782,D1,223.5,0.5,95,130.0
1783,G3,223.5,0.5,95,130.0
1784,E2,223.5,0.5,95,130.0
1785,D3,224.0,1.0,95,130.0
1786,D1,224.0,0.5,95,130.0
1787,D1,224.5,0.5,95,130.0
1788,B-2,224.5,0.5,95,130.0
1789,C2,224.5,0.5,95,130.0
1790,B-2,225.0,1.5,95,130.0
1791,D1,225.0,1.0,95,130.0
1792,G3,225.0,1.0,95,130.0
1793,C2,225.0,0.5,95,130.0
1794,D1,226.0,0.5,95,130.0
1795,B-2,226.0,0.5,95,130.0
1796,C2,226.0,0.5,95,130.0
1797,A2,226.5,0.5,95,130.0
1798,D1,226.5,1.0,95,130.0
1799,G3,226.5,1.0,95,130.0
1800,E2,226.5,0.5,95,130.0
1801,B-2,227.0,0.5,95,130.0
1802,A2,227.5,0.5,95,130.0
1803,D1,227.5,0.5,95,130.0
1804,B-2,227.5,0.5,95,130.0
1805,C2,227.5,0.5,95,130.0
1806,E-1,228.0,1.0,95,130.0
1807,C2,228.0,0.5,95,130.0
1808,B-2,228.0,1.0,95,130.0
1809,E-2,228.0,1.0,95,130.0
1810,A3,228.0,1.0,95,130.0
1811,G3,228.0,1.0,95,130.0
1812,E-1,229.0,0.5,95,130.0
1813,B-2,229.0,0.5,95,130.0
1814,E-2,229.0,0.5,95,130.0
1815,B-2,229.0,0.5,95,130.0
1816,C2,229.0,0.5,95,130.0
1817,E-3,229.5,0.5,95,130.0
1818,E-1,229.5,1.0,95,130.0
1819,G3,229.5,1.0,95,130.0
1820,E2,229.5,0.5,95,130.0
1821,F3,230.0,0.5,95,130.0
1822,E-3,230.5,0.5,95,130.0
1823,E-1,230.5,0.5,95,130.0
1824,B-2,230.5,0.5,95,130.0
1825,C2,230.5,0.5,95,130.0
1826,E-3,231.0,167/1000,95,130.0
1827,E-1,231.0,1.0,95,130.0
1828,G3,231.0,1.0,95,130.0
1829,C2,231.0,0.5,95,130.0
1830,F3,231.167,167/1000,76,130.0
1831,E-3,231.333,167/1000,76,130.0
1832,F3,231.5,0.5,95,130.0
1833,F3,232.0,0.5,95,130.0
1834,E-1,232.0,0.5,95,130.0
1835,B-2,232.0,0.5,95,130.0
1836,C2,232.0,0.5,95,130.0
1837,D3,232.5,0.5,95,130.0
1838,E-1,232.5,1.0,95,130.0
1839,G3,232.5,1.0,95,130.0
1840,E2,232.5,0.5,95,130.0
1841,E-3,233.0,0.5,95,130.0
1842,D3,233.5,167/1000,95,130.0
1843,E-1,233.5,0.5,95,130.0
1844,B-2,233.5,0.5,95,130.0
1845,C2,233.5,0.5,95,130.0
1846,E-3,233.667,167/1000,76,130.0
1847,D3,233.833,167/1000,76,130.0
1848,D1,234.0,1.0,95,130.0
1849,A3,234.0,1.0,95,130.0
1850,A2,234.0,1.0,95,130.0
1851,D2,234.0,1.0,95,130.0
1852,G3,234.0,0.5,95,130.0
1853,C2,234.0,0.5,95,130.0
1854,D1,235.0,0.5,95,130.0
1855,A2,235.0,0.5,95,130.0
1856,D2,235.0,0.5,95,130.0
1857,B-2,235.0,0.5,95,130.0
1858,C2,235.0,0.5,95,130.0
1859,D3,235.5,0.5,95,130.0
1860,D1,235.5,0.5,95,130.0
1861,G3,235.5,0.5,95,130.0
1862,E2,235.5,0.5,95,130.0
1863,D3,236.0,1.0,95,130.0
1864,D1,236.0,0.5,95,130.0
1865,D1,236.5,0.5,95,130.0
1866,B-2,236.5,0.5,95,130.0
1867,C2,236.5,0.5,95,130.0
1868,B-2,237.0,1.5,95,130.0
1869,D1,237.0,1.0,95,130.0
1870,G3,237.0,1.0,95,130.0
1871,C2,237.0,0.5,95,130.0
1872,E2,237.5,0.5,95,130.0
1873,D1,238.0,0.5,95,130.0
1874,B-2,238.0,0.5,95,130.0
1875,C2,238.0,0.5,95,130.0
1876,A2,238.5,0.5,95,130.0
1877,D1,238.5,1.0,95,130.0
1878,G3,238.5,1.0,95,130.0
1879,E2,238.5,0.5,95,130.0
1880,B-2,239.0,0.5,95,130.0
1881,C2,239.0,0.5,95,130.0
1882,A2,239.5,0.5,95,130.0
1883,D1,239.5,0.5,95,130.0
1884,B-2,239.5,0.5,95,130.0
1885,E2,239.5,0.5,95,130.0
1886,D1,240.0,1.0,95,130.0
1887,C2,240.0,0.5,95,130.0
1888,A2,240.0,1.0,95,130.0
1889,D2,240.0,1.0,95,130.0
1890,A3,240.0,1.0,95,130.0
1891,G3,240.0,1.0,95,130.0
1892,D1,241.0,0.5,95,130.0
1893,A2,241.0,0.5,95,130.0
1894,D2,241.0,0.5,95,130.0
1895,B-2,241.0,0.5,95,130.0
1896,C2,241.0,0.5,95,130.0
1897,D3,241.5,1.5,95,130.0
1898,D1,241.5,1.0,95,130.0
1899,G3,241.5,1.0,95,130.0
1900,E2,241.5,0.5,95,130.0
1901,D1,242.5,0.5,95,130.0
1902,B-2,242.5,0.5,95,130.0
1903,C2,242.5,0.5,95,130.0
1904,B-2,243.0,1.0,95,130.0
1905,D1,243.0,1.0,95,130.0
1906,G3,243.0,1.0,95,130.0
1907,C2,243.0,0.5,95,130.0
1908,B-2,244.0,0.5,95,130.0
1909,D1,244.0,0.5,95,130.0
1910,B-2,244.0,0.5,95,130.0
1911,C2,244.0,0.5,95,130.0
1912,A2,244.5,0.5,95,130.0
1913,D1,244.5,1.0,95,130.0
1914,G3,244.5,1.0,95,130.0
1915,E2,244.5,0.5,95,130.0
1916,B-2,245.0,0.5,95,130.0
1917,A2,245.5,0.5,95,130.0
1918,D1,245.5,0.5,95,130.0
1919,B-2,245.5,0.5,95,130.0
1920,C2,245.5,0.5,95,130.0
1921,D1,246.0,1.0,95,130.0
1922,A3,246.0,1.0,95,130.0
1923,A2,246.0,1.0,95,130.0
1924,D2,246.0,1.0,95,130.0
1925,G3,246.0,0.5,95,130.0
1926,C2,246.0,0.5,95,130.0
1927,D1,247.0,0.5,95,130.0
1928,A2,247.0,0.5,95,130.0
1929,D2,247.0,0.5,95,130.0
1930,B-2,247.0,0.5,95,130.0
1931,C2,247.0,0.5,95,130.0
1932,D3,247.5,0.5,95,130.0
1933,D1,247.5,0.5,95,130.0
1934,G3,247.5,0.5,95,130.0
1935,E2,247.5,0.5,95,130.0
1936,D3,248.0,1.0,95,130.0
1937,D1,248.0,0.5,95,130.0
1938,D1,248.5,0.5,95,130.0
1939,B-2,248.5,0.5,95,130.0
1940,C2,248.5,0.5,95,130.0
1941,B-2,249.0,1.5,95,130.0
1942,D1,249.0,1.0,95,130.0
1943,G3,249.0,1.0,95,130.0
1944,C2,249.0,0.5,95,130.0
1945,D1,250.0,0.5,95,130.0
1946,B-2,250.0,0.5,95,130.0
1947,C2,250.0,0.5,95,130.0
1948,A2,250.5,0.5,95,130.0
1949,D1,250.5,1.0,95,130.0
1950,G3,250.5,1.0,95,130.0
1951,E2,250.5,0.5,95,130.0
1952,B-2,251.0,0.5,95,130.0
1953,A2,251.5,0.5,95,130.0
1954,D1,251.5,0.5,95,130.0
1955,B-2,251.5,0.5,95,130.0
1956,C2,251.5,0.5,95,130.0
1957,E-1,252.0,1.0,95,130.0
1958,C2,252.0,0.5,95,130.0
1959,B-2,252.0,1.0,95,130.0
1960,E-2,252.0,1.0,95,130.0
1961,A3,252.0,1.0,95,130.0
1962,G3,252.0,1.0,95,130.0
1963,E-1,253.0,0.5,95,130.0
1964,B-2,253.0,0.5,95,130.0
1965,E-2,253.0,0.5,95,130.0
1966,B-2,253.0,0.5,95,130.0
1967,C2,253.0,0.5,95,130.0
1968,E-3,253.5,0.5,95,130.0
1969,E-1,253.5,1.0,95,130.0
1970,G3,253.5,1.0,95,130.0
1971,E2,253.5,0.5,95,130.0
1972,F3,254.0,0.5,95,130.0
1973,E-3,254.5,0.5,95,130.0
1974,E-1,254.5,0.5,95,130.0
1975,B-2,254.5,0.5,95,130.0
1976,C2,254.5,0.5,95,130.0
1977,E-3,255.0,167/1000,95,130.0
1978,E-1,255.0,1.0,95,130.0
1979,G3,255.0,1.0,95,130.0
1980,C2,255.0,0.5,95,130.0
1981,F3,255.167,167/1000,76,130.0
1982,E-3,255.333,167/1000,76,130.0
1983,F3,255.5,0.5,95,130.0
1984,F3,256.0,0.5,95,130.0
1985,E-1,256.0,0.5,95,130.0
1986,B-2,256.0,0.5,95,130.0
1987,C2,256.0,0.5,95,130.0
1988,D3,256.5,0.5,95,130.0
1989,E-1,256.5,1.0,95,130.0
1990,G3,256.5,1.0,95,130.0
1991,E2,256.5,0.5,95,130.0
1992,E-3,257.0,0.5,95,130.0
1993,D3,257.5,167/1000,95,130.0
1994,E-1,257.5,0.5,95,130.0
1995,B-2,257.5,0.5,95,130.0
1996,C2,257.5,0.5,95,130.0
1997,E-3,257.667,167/1000,76,130.0
1998,D3,257.833,167/1000,76,130.0
1999,D1,258.0,1.0,95,130.0
2000,A3,258.0,1.0,95,130.0
2001,A2,258.0,1.0,95,130.0
2002,D2,258.0,1.0,95,130.0
2003,G3,258.0,0.5,95,130.0
2004,C2,258.0,0.5,95,130.0
2005,D1,259.0,0.5,95,130.0
2006,A2,259.0,0.5,95,130.0
2007,D2,259.0,0.5,95,130.0
2008,B-2,259.0,0.5,95,130.0
2009,C2,259.0,0.5,95,130.0
2010,D3,259.5,0.5,95,130.0
2011,D1,259.5,0.5,95,130.0
2012,G3,259.5,0.5,95,130.0
2013,E2,259.5,0.5,95,130.0
2014,D3,260.0,1.0,95,130.0
2015,D1,260.0,0.5,95,130.0
2016,D1,260.5,0.5,95,130.0
2017,B-2,260.5,0.5,95,130.0
2018,C2,260.5,0.5,95,130.0
2019,B-2,261.0,1.5,95,130.0
2020,D1,261.0,1.0,95,130.0
2021,G3,261.0,1.0,95,130.0
2022,C2,261.0,0.5,95,130.0
2023,E2,261.5,0.5,95,130.0
2024,D1,262.0,0.5,95,130.0
2025,B-2,262.0,0.5,95,130.0
2026,C2,262.0,0.5,95,130.0
2027,A2,262.5,0.5,95,130.0
2028,D1,262.5,1.0,95,130.0
2029,G3,262.5,1.0,95,130.0
2030,E2,262.5,0.5,95,130.0
2031,B-2,263.0,0.5,95,130.0
2032,C2,263.0,0.5,95,130.0
2033,A2,263.5,0.5,95,130.0
2034,D1,263.5,0.5,95,130.0
2035,B-2,263.5,0.5,95,130.0
2036,E2,263.5,0.5,95,130.0
2037,D3,264.0,0.5,95,130.0
2038,A3,264.0,21/500,95,130.0
2039,F5,264.0,1.0,95,130.0
2040,D1,264.0,3.0,95,130.0
2041,G3,264.0,0.5,95,130.0
2042,C2,264.0,0.5,95,130.0
2043,A3,264.5,0.5,95,130.0
2044,D4,264.5,1.5,95,130.0
2045,G#2,264.5,0.5,95,130.0
2046,D4,265.0,0.5,95,130.0
2047,D5,265.0,0.5,95,130.0
2048,G#2,265.0,0.5,95,130.0
2049,E4,265.5,167/1000,76,130.0
2050,E5,265.5,1.5,95,130.0
2051,B-2,265.5,0.5,72,130.0
2052,E2,265.5,0.5,72,130.0
2053,F4,265.667,167/1000,76,130.0
2054,E4,265.833,167/1000,76,130.0
2055,D4,266.0,0.5,95,130.0
2056,A3,266.0,21/500,95,130.0
2057,G#2,266.0,0.5,95,130.0
2058,A3,266.5,0.5,95,130.0
2059,D4,266.5,1.5,95,130.0
2060,G#2,266.5,0.5,95,130.0
2061,C2,266.5,0.5,95,130.0
2062,G2,267.0,0.5,95,130.0
2063,D5,267.0,1.0,95,130.0
2064,G1,267.0,1.0,95,130.0
2065,G#2,267.0,0.5,95,130.0
2066,C2,267.0,0.5,95,130.0
2067,D3,267.5,0.5,95,130.0
2068,G#2,267.5,0.5,95,130.0
2069,A3,268.0,1.0,95,130.0
2070,A3,268.0,21/500,95,130.0
2071,D5,268.0,0.5,95,130.0
2072,G1,268.0,2.0,95,130.0
2073,G#2,268.0,0.5,95,130.0
2074,G2,268.5,0.5,95,130.0
2075,D4,268.5,1.5,95,130.0
2076,A4,268.5,1.5,95,130.0
2077,B-2,268.5,0.5,72,130.0
2078,E2,268.5,0.5,72,130.0
2079,D3,269.0,0.5,95,130.0
2080,G#2,269.0,0.5,95,130.0
2081,A3,269.5,1.0,95,130.0
2082,G#2,269.5,0.5,95,130.0
2083,D3,270.0,0.5,95,130.0
2084,A3,270.0,21/500,95,130.0
2085,F5,270.0,2.0,95,130.0
2086,D1,270.0,2.0,95,130.0
2087,G#2,270.0,0.5,95,130.0
2088,C2,270.0,0.5,95,130.0
2089,A3,270.5,0.5,95,130.0
2090,D4,270.5,1.5,95,130.0
2091,G#2,270.5,0.5,95,130.0
2092,D4,271.0,0.5,95,130.0
2093,G#2,271.0,0.5,95,130.0
2094,E4,271.5,167/1000,76,130.0
2095,B-2,271.5,0.5,72,130.0
2096,E2,271.5,0.5,72,130.0
2097,F4,271.667,167/1000,76,130.0
2098,E4,271.833,167/1000,76,130.0
2099,D4,272.0,0.5,95,130.0
2100,A3,272.0,21/500,95,130.0
2101,F5,272.0,1.0,95,130.0
2102,D1,272.0,1.0,95,130.0
2103,G#2,272.0,0.5,95,130.0
2104,A3,272.5,0.5,95,130.0
2105,D4,272.5,1.5,95,130.0
2106,G#2,272.5,0.5,95,130.0
2107,C2,272.5,0.5,95,130.0
2108,G2,273.0,0.5,95,130.0
2109,G5,273.0,1.5,95,130.0
2110,G1,273.0,3.0,95,130.0
2111,G#2,273.0,0.5,95,130.0
2112,C2,273.0,0.5,95,130.0
2113,D3,273.5,0.5,95,130.0
2114,G#2,273.5,0.5,95,130.0
2115,A3,274.0,1.0,95,130.0
2116,A3,274.0,21/500,95,130.0
2117,G#2,274.0,0.5,95,130.0
2118,G2,274.5,0.5,95,130.0
2119,D4,274.5,1.5,95,130.0
2120,D5,274.5,1.5,95,130.0
2121,B-2,274.5,0.5,72,130.0
2122,E2,274.5,0.5,72,130.0
2123,D3,275.0,0.5,95,130.0
2124,G#2,275.0,0.5,95,130.0
2125,A3,275.5,0.5,95,130.0
2126,G#2,275.5,0.5,95,130.0
2127,D3,276.0,0.5,95,130.0
2128,A3,276.0,0.5,95,130.0
2129,A3,276.0,21/500,95,130.0
2130,F5,276.0,1.0,95,130.0
2131,D1,276.0,3.0,95,130.0
2132,G#2,276.0,0.5,95,130.0
2133,C2,276.0,0.5,95,130.0
2134,A3,276.5,0.5,95,130.0
2135,D4,276.5,1.5,95,130.0
2136,G#2,276.5,0.5,95,130.0
2137,D4,277.0,0.5,95,130.0
2138,D5,277.0,0.5,95,130.0
2139,G#2,277.0,0.5,95,130.0
2140,E4,277.5,167/1000,76,130.0
2141,E5,277.5,1.5,95,130.0
2142,B-2,277.5,0.5,72,130.0
2143,E2,277.5,0.5,72,130.0
2144,F4,277.667,167/1000,76,130.0
2145,E4,277.833,167/1000,76,130.0
2146,D4,278.0,0.5,95,130.0
2147,A3,278.0,21/500,95,130.0
2148,G#2,278.0,0.5,95,130.0
2149,A3,278.5,0.5,95,130.0
2150,D4,278.5,1.5,95,130.0
2151,G#2,278.5,0.5,95,130.0
2152,C2,278.5,0.5,95,130.0
2153,C3,279.0,0.5,95,130.0
2154,D5,279.0,1.0,95,130.0
2155,C2,279.0,1.0,95,130.0
2156,G#2,279.0,0.5,95,130.0
2157,C2,279.0,0.5,95,130.0
2158,C4,279.5,0.5,95,130.0
2159,G#2,279.5,0.5,95,130.0
2160,G4,280.0,0.5,76,130.0
2161,A3,280.0,21/500,95,130.0
2162,D5,280.0,0.5,95,130.0
2163,C2,280.0,2.0,95,130.0
2164,G#2,280.0,0.5,95,130.0
2165,C3,280.5,0.5,95,130.0
2166,D4,280.5,1.5,95,130.0
2167,A4,280.5,1.5,95,130.0
2168,B-2,280.5,0.5,72,130.0
2169,E2,280.5,0.5,72,130.0
2170,C4,281.0,0.5,95,130.0
2171,G#2,281.0,0.5,95,130.0
2172,A3,281.5,0.5,95,130.0
2173,G#2,281.5,0.5,95,130.0
2174,F3,282.0,0.5,95,130.0
2175,A3,282.0,21/500,95,130.0
2176,F5,282.0,2.0,95,130.0
2177,F1,282.0,2.0,95,130.0
2178,G#2,282.0,0.5,95,130.0
2179,C2,282.0,0.5,95,130.0
2180,C4,282.5,0.5,95,130.0
2181,D4,282.5,1.5,95,130.0
2182,G#2,282.5,0.5,95,130.0
2183,F4,283.0,0.5,95,130.0
2184,G#2,283.0,0.5,95,130.0
2185,F3,283.5,0.5,95,130.0
2186,B-2,283.5,0.5,72,130.0
2187,E2,283.5,0.5,72,130.0
2188,C4,284.0,0.5,95,130.0
2189,A3,284.0,21/500,95,130.0
2190,F5,284.0,4.0,95,130.0
2191,F1,284.0,1.0,95,130.0
2192,G#2,284.0,0.5,95,130.0
2193,F4,284.5,0.5,95,130.0
2194,D4,284.5,1.5,95,130.0
2195,G#2,284.5,0.5,95,130.0
2196,C2,284.5,0.5,95,130.0
2197,F2,285.0,0.5,95,130.0
2198,F1,285.0,1.5,95,130.0
2199,G#2,285.0,0.5,95,130.0
2200,C2,285.0,0.5,95,130.0
2201,C3,285.5,0.5,95,130.0
2202,G#2,285.5,0.5,95,130.0
2203,F3,286.0,0.5,95,130.0
2204,A3,286.0,21/500,95,130.0
2205,G#2,286.0,0.5,95,130.0
2206,G2,286.5,0.5,95,130.0
2207,D4,286.5,1.5,95,130.0
2208,G1,286.5,1.5,95,130.0
2209,B-2,286.5,0.5,72,130.0
2210,E2,286.5,0.5,72,130.0
2211,D3,287.0,0.5,95,130.0
2212,G#2,287.0,0.5,95,130.0
2213,G3,287.5,0.5,95,130.0
2214,G#2,287.5,0.5,95,130.0
2215,D3,288.0,0.5,95,130.0
2216,A3,288.0,21/500,95,130.0
2217,F5,288.0,1.0,95,130.0
2218,F5,288.0,0.5,95,130.0
2219,D1,288.0,3.0,95,130.0
2220,G3,288.0,0.5,95,130.0
2221,C2,288.0,0.5,95,130.0
2222,A3,288.5,0.5,95,130.0
2223,D4,288.5,1.5,95,130.0
2224,G#2,288.5,0.5,95,130.0
2225,D4,289.0,0.5,95,130.0
2226,D5,289.0,0.5,95,130.0
2227,G#2,289.0,0.5,95,130.0
2228,E4,289.5,167/1000,95,130.0
2229,E5,289.5,1.5,95,130.0
2230,B-2,289.5,0.5,72,130.0
2231,E2,289.5,0.5,72,130.0
2232,F4,289.667,167/1000,76,130.0
2233,E4,289.833,167/1000,76,130.0
2234,D4,290.0,0.5,95,130.0
2235,A3,290.0,21/500,95,130.0
2236,G#2,290.0,0.5,95,130.0
2237,A3,290.5,0.5,95,130.0
2238,D4,290.5,1.5,95,130.0
2239,G#2,290.5,0.5,95,130.0
2240,C2,290.5,0.5,95,130.0
2241,G2,291.0,0.5,95,130.0
2242,D5,291.0,1.0,95,130.0
2243,G1,291.0,1.0,95,130.0
2244,G#2,291.0,0.5,95,130.0
2245,C2,291.0,0.5,95,130.0
2246,D3,291.5,0.5,95,130.0
2247,G#2,291.5,0.5,95,130.0
2248,A3,292.0,1.0,95,130.0
2249,A3,292.0,21/500,95,130.0
2250,D5,292.0,0.5,95,130.0
2251,G1,292.0,2.0,95,130.0
2252,G#2,292.0,0.5,95,130.0
2253,G2,292.5,0.5,95,130.0
2254,D4,292.5,1.5,95,130.0
2255,A4,292.5,1.5,95,130.0
2256,B-2,292.5,0.5,72,130.0
2257,E2,292.5,0.5,72,130.0
2258,D3,293.0,0.5,95,130.0
2259,G#2,293.0,0.5,95,130.0
2260,A3,293.5,1.0,95,130.0
2261,G#2,293.5,0.5,95,130.0
2262,D3,294.0,0.5,95,130.0
2263,A3,294.0,21/500,95,130.0
2264,F5,294.0,2.0,95,130.0
2265,D1,294.0,2.0,95,130.0
2266,G#2,294.0,0.5,95,130.0
2267,C2,294.0,0.5,95,130.0
2268,A3,294.5,0.5,95,130.0
2269,D4,294.5,1.5,95,130.0
2270,G#2,294.5,0.5,95,130.0
2271,D4,295.0,0.5,95,130.0
2272,G#2,295.0,0.5,95,130.0
2273,E4,295.5,167/1000,76,130.0
2274,B-2,295.5,0.5,72,130.0
2275,E2,295.5,0.5,72,130.0
2276,F4,295.667,167/1000,76,130.0
2277,E4,295.833,167/1000,76,130.0
2278,D4,296.0,0.5,95,130.0
2279,A3,296.0,21/500,95,130.0
2280,F5,296.0,1.0,95,130.0
2281,D1,296.0,1.0,95,130.0
2282,G#2,296.0,0.5,95,130.0
2283,A3,296.5,0.5,95,130.0
2284,D4,296.5,1.5,95,130.0
2285,G#2,296.5,0.5,95,130.0
2286,C2,296.5,0.5,95,130.0
2287,G2,297.0,0.5,95,130.0
2288,G5,297.0,1.5,95,130.0
2289,G1,297.0,3.0,95,130.0
2290,G#2,297.0,0.5,95,130.0
2291,C2,297.0,0.5,95,130.0
2292,D3,297.5,0.5,95,130.0
2293,G#2,297.5,0.5,95,130.0
2294,A3,298.0,1.0,95,130.0
2295,A3,298.0,21/500,95,130.0
2296,G#2,298.0,0.5,95,130.0
2297,G2,298.5,0.5,95,130.0
2298,D4,298.5,1.5,95,130.0
2299,D5,298.5,1.5,95,130.0
2300,B-2,298.5,0.5,72,130.0
2301,E2,298.5,0.5,72,130.0
2302,D3,299.0,0.5,95,130.0
2303,G#2,299.0,0.5,95,130.0
2304,A3,299.5,0.5,95,130.0
2305,G#2,299.5,0.5,95,130.0
2306,D3,300.0,0.5,95,130.0
2307,A3,300.0,0.5,95,130.0
2308,A3,300.0,21/500,95,130.0
2309,F5,300.0,1.0,95,130.0
2310,D1,300.0,3.0,95,130.0
2311,G#2,300.0,0.5,95,130.0
2312,C2,300.0,0.5,95,130.0
2313,A3,300.5,0.5,95,130.0
2314,D4,300.5,1.5,95,130.0
2315,G#2,300.5,0.5,95,130.0
2316,D4,301.0,0.5,95,130.0
2317,D5,301.0,0.5,95,130.0
2318,G#2,301.0,0.5,95,130.0
2319,E4,301.5,167/1000,76,130.0
2320,E5,301.5,1.5,95,130.0
2321,B-2,301.5,0.5,72,130.0
2322,E2,301.5,0.5,72,130.0
2323,F4,301.667,167/1000,76,130.0
2324,E4,301.833,167/1000,76,130.0
2325,D4,302.0,0.5,95,130.0
2326,A3,302.0,21/500,95,130.0
2327,G#2,302.0,0.5,95,130.0
2328,A3,302.5,0.5,95,130.0
2329,D4,302.5,1.5,95,130.0
2330,G#2,302.5,0.5,95,130.0
2331,C2,302.5,0.5,95,130.0
2332,C3,303.0,0.5,95,130.0
2333,D5,303.0,1.0,95,130.0
2334,C2,303.0,1.0,95,130.0
2335,G#2,303.0,0.5,95,130.0
2336,C2,303.0,0.5,95,130.0
2337,C4,303.5,0.5,95,130.0
2338,G#2,303.5,0.5,95,130.0
2339,G4,304.0,0.5,76,130.0
2340,A3,304.0,21/500,95,130.0
2341,D5,304.0,0.5,95,130.0
2342,C2,304.0,2.0,95,130.0
2343,G#2,304.0,0.5,95,130.0
2344,C3,304.5,0.5,95,130.0
2345,D4,304.5,1.5,95,130.0
2346,A4,304.5,1.5,95,130.0
2347,B-2,304.5,0.5,72,130.0
2348,E2,304.5,0.5,72,130.0
2349,C4,305.0,0.5,95,130.0
2350,G#2,305.0,0.5,95,130.0
2351,A3,305.5,0.5,95,130.0
2352,G#2,305.5,0.5,95,130.0
2353,F3,306.0,0.5,95,130.0
2354,A3,306.0,21/500,95,130.0
2355,F4,306.0,2.0,95,130.0
2356,F1,306.0,2.0,95,130.0
2357,G#2,306.0,0.5,95,130.0
2358,C2,306.0,0.5,95,130.0
2359,C4,306.5,0.5,95,130.0
2360,D4,306.5,1.5,95,130.0
2361,G#2,306.5,0.5,95,130.0
2362,F4,307.0,0.5,95,130.0
2363,G#2,307.0,0.5,95,130.0
2364,F3,307.5,0.5,95,130.0
2365,B-2,307.5,0.5,72,130.0
2366,E2,307.5,0.5,72,130.0
2367,C4,308.0,0.5,95,130.0
2368,A3,308.0,21/500,95,130.0
2369,F4,308.0,1.0,95,130.0
2370,F1,308.0,1.0,95,130.0
2371,G#2,308.0,0.5,95,130.0
2372,F4,308.5,0.5,95,130.0
2373,D4,308.5,1.5,95,130.0
2374,G#2,308.5,0.5,95,130.0
2375,C2,308.5,0.5,95,130.0
2376,F2,309.0,0.5,95,130.0
2377,F4,309.0,1.5,95,130.0
2378,F1,309.0,1.5,95,130.0
2379,G#2,309.0,0.5,95,130.0
2380,C2,309.0,0.5,95,130.0
2381,C3,309.5,0.5,95,130.0
2382,G#2,309.5,0.5,95,130.0
2383,F3,310.0,0.5,95,130.0
2384,A3,310.0,21/500,95,130.0
2385,G#2,310.0,0.5,95,130.0
2386,G2,310.5,0.5,95,130.0
2387,D4,310.5,1.5,95,130.0
2388,G4,310.5,1.5,95,130.0
2389,G1,310.5,1.5,95,130.0
2390,B-2,310.5,0.5,72,130.0
2391,E2,310.5,0.5,72,130.0
2392,D3,311.0,0.5,95,130.0
2393,G#2,311.0,0.5,95,130.0
2394,G3,311.5,0.5,95,130.0
2395,G#2,311.5,0.5,95,130.0
2396,D3,312.0,0.5,95,130.0
2397,A3,312.0,21/500,95,130.0
2398,D5,312.0,4.0,95,130.0
2399,D1,312.0,3.0,95,130.0
2400,G3,312.0,0.5,95,130.0
2401,C2,312.0,0.5,95,130.0
2402,A3,312.5,0.5,95,130.0
2403,D4,312.5,1.5,95,130.0
2404,G#2,312.5,0.5,95,130.0
2405,D4,313.0,0.5,95,130.0
2406,G#2,313.0,0.5,95,130.0
2407,E4,313.5,167/1000,95,130.0
2408,B-2,313.5,0.5,72,130.0
2409,E2,313.5,0.5,72,130.0
2410,F4,313.667,167/1000,76,130.0
2411,E4,313.833,167/1000,76,130.0
2412,D4,314.0,0.5,95,130.0
2413,A3,314.0,21/500,95,130.0
2414,G#2,314.0,0.5,95,130.0
2415,A3,314.5,0.5,95,130.0
2416,D4,314.5,1.5,95,130.0
2417,G#2,314.5,0.5,95,130.0
2418,C2,314.5,0.5,95,130.0
2419,G2,315.0,0.5,95,130.0
2420,G1,315.0,1.0,95,130.0
2421,G#2,315.0,0.5,95,130.0
2422,C2,315.0,0.5,95,130.0
2423,D3,315.5,0.5,95,130.0
2424,G#2,315.5,0.5,95,130.0
2425,A3,316.0,1.0,95,130.0
2426,A3,316.0,21/500,95,130.0
2427,D5,316.0,4.0,95,130.0
2428,G1,316.0,2.0,95,130.0
2429,G#2,316.0,0.5,95,130.0
2430,G2,316.5,0.5,95,130.0
2431,D4,316.5,1.5,95,130.0
2432,B-2,316.5,0.5,72,130.0
2433,E2,316.5,0.5,72,130.0
2434,D3,317.0,0.5,95,130.0
2435,G#2,317.0,0.5,95,130.0
2436,A3,317.5,1.0,95,130.0
2437,G#2,317.5,0.5,95,130.0
2438,D3,318.0,0.5,95,130.0
2439,A3,318.0,21/500,95,130.0
2440,D1,318.0,2.0,95,130.0
2441,G#2,318.0,0.5,95,130.0
2442,C2,318.0,0.5,95,130.0
2443,A3,318.5,0.5,95,130.0
2444,D4,318.5,1.5,95,130.0
2445,G#2,318.5,0.5,95,130.0
2446,D4,319.0,0.5,95,130.0
2447,G#2,319.0,0.5,95,130.0
2448,E4,319.5,167/1000,76,130.0
2449,B-2,319.5,0.5,72,130.0
2450,E2,319.5,0.5,72,130.0
2451,F4,319.667,167/1000,76,130.0
2452,E4,319.833,167/1000,76,130.0
2453,D4,320.0,0.5,95,130.0
2454,A3,320.0,21/500,95,130.0
2455,A2,320.0,0.5,95,130.0
2456,A3,320.5,0.5,95,130.0
2457,D4,320.5,0.5,95,130.0
2458,G2,320.5,0.5,95,130.0
2459,F1,321.0,1.0,95,130.0
2460,F3,321.0,1.0,95,130.0
2461,C3,321.0,1.0,95,130.0
2462,F2,321.0,1.0,95,130.0
2463,A3,321.0,1.0,95,130.0
2464,C2,321.0,1.0,95,130.0
2465,G1,322.0,1.0,95,130.0
2466,G3,322.0,1.0,95,130.0
2467,D3,322.0,1.0,95,130.0
2468,G2,322.0,1.0,95,130.0
2469,C#3,322.0,1.0,95,130.0
2470,C2,322.0,1.0,95,130.0
2471,A1,323.0,1.0,95,130.0
2472,A3,323.0,1.0,95,130.0
2473,E3,323.0,1.0,95,130.0
2474,A2,323.0,1.0,95,130.0
2475,A3,323.0,1.0,95,130.0
2476,C2,323.0,1.0,95,130.0
2477,E-1,324.0,1.0,95,130.0
2478,E-3,324.0,1.0,95,130.0
2479,B-2,324.0,1.0,95,130.0
2480,E-2,324.0,1.0,95,130.0
2481,C#3,324.0,0.5,95,130.0
2482,C2,324.0,0.5,95,130.0
2483,B3,324.5,0.25,95,130.0
2484,B3,324.75,0.25,95,130.0
2485,C2,324.75,0.25,95,130.0
2486,E-1,325.0,0.5,95,130.0
2487,B3,325.0,0.5,95,130.0
2488,E-3,325.0,0.5,95,130.0
2489,B-2,325.0,0.5,95,130.0
2490,E-2,325.0,0.5,95,130.0
2491,E-1,325.5,0.5,95,130.0
2492,E2,325.5,0.5,95,130.0
2493,E-3,325.5,0.5,95,130.0
2494,B-2,325.5,0.5,95,130.0
2495,E-2,325.5,0.5,95,130.0
2496,E-1,326.0,0.25,95,130.0
2497,B3,326.0,0.5,95,130.0
2498,E-3,326.0,0.25,95,130.0
2499,B-2,326.0,0.25,95,130.0
2500,E-2,326.0,0.25,95,130.0
2501,E-1,326.25,0.25,95,130.0
2502,E-3,326.25,0.25,95,130.0
2503,B-2,326.25,0.25,95,130.0
2504,E-2,326.25,0.25,95,130.0
2505,E-1,326.5,0.25,95,130.0
2506,E-3,326.5,0.25,95,130.0
2507,B-2,326.5,0.25,95,130.0
2508,E-2,326.5,0.25,95,130.0
2509,B3,326.5,0.25,95,130.0
2510,C2,326.5,0.25,95,130.0
2511,E-1,326.75,0.25,95,130.0
2512,B3,326.75,0.25,95,130.0
2513,E-3,326.75,0.25,95,130.0
2514,B-2,326.75,0.25,95,130.0
2515,E-2,326.75,0.25,95,130.0
2516,E-1,327.0,1.0,95,130.0
2517,E-3,327.0,1.0,95,130.0
2518,B-2,327.0,1.0,95,130.0
2519,E-2,327.0,1.0,95,130.0
2520,B3,327.0,0.5,95,130.0
2521,C2,327.0,0.5,95,130.0
2522,B3,327.5,0.5,95,130.0
2523,E-1,328.0,0.5,95,130.0
2524,E-3,328.0,0.5,95,130.0
2525,B-2,328.0,0.5,95,130.0
2526,E-2,328.0,0.5,95,130.0
2527,B3,328.0,0.5,95,130.0
2528,C2,328.0,0.5,95,130.0
2529,E-1,328.5,0.5,95,130.0
2530,E-3,328.5,0.5,95,130.0
2531,B-2,328.5,0.5,95,130.0
2532,E-2,328.5,0.5,95,130.0
2533,B3,328.5,0.25,95,130.0
2534,E2,328.5,0.25,95,130.0
2535,B3,328.75,0.25,95,130.0
2536,E-1,329.0,0.25,95,130.0
2537,B3,329.0,0.5,95,130.0
2538,E-3,329.0,0.25,95,130.0
2539,B-2,329.0,0.25,95,130.0
2540,E-2,329.0,0.25,95,130.0
2541,E-1,329.25,0.25,95,130.0
2542,E-3,329.25,0.25,95,130.0
2543,B-2,329.25,0.25,95,130.0
2544,E-2,329.25,0.25,95,130.0
2545,E-1,329.5,0.25,95,130.0
2546,B3,329.5,0.5,95,130.0
2547,E-3,329.5,0.25,95,130.0
2548,B-2,329.5,0.25,95,130.0
2549,E-2,329.5,0.25,95,130.0
2550,E-1,329.75,0.25,95,130.0
2551,E-3,329.75,0.25,95,130.0
2552,B-2,329.75,0.25,95,130.0
2553,E-2,329.75,0.25,95,130.0
2554,D1,330.0,1.0,95,130.0
2555,D3,330.0,1.0,95,130.0
2556,A2,330.0,1.0,95,130.0
2557,D2,330.0,1.0,95,130.0
2558,C#3,330.0,0.5,95,130.0
2559,C2,330.0,0.5,95,130.0
2560,B3,330.5,0.25,95,130.0
2561,B3,330.75,0.25,95,130.0
2562,C2,330.75,0.25,95,130.0
2563,D1,331.0,0.5,95,130.0
2564,B3,331.0,0.5,95,130.0
2565,D3,331.0,0.5,95,130.0
2566,A2,331.0,0.5,95,130.0
2567,D2,331.0,0.5,95,130.0
2568,D1,331.5,0.5,95,130.0
2569,D3,331.5,0.5,95,130.0
2570,A2,331.5,0.5,95,130.0
2571,D2,331.5,0.5,95,130.0
2572,B3,331.5,0.5,95,130.0
2573,E2,331.5,0.5,95,130.0
2574,D1,332.0,0.25,95,130.0
2575,C2,332.0,0.5,95,130.0
2576,D3,332.0,0.25,95,130.0
2577,A2,332.0,0.25,95,130.0
2578,D2,332.0,0.25,95,130.0
2579,D1,332.25,0.25,95,130.0
2580,D3,332.25,0.25,95,130.0
2581,A2,332.25,0.25,95,130.0
2582,D2,332.25,0.25,95,130.0
2583,D1,332.5,0.25,95,130.0
2584,B3,332.5,0.25,95,130.0
2585,D3,332.5,0.25,95,130.0
2586,A2,332.5,0.25,95,130.0
2587,D2,332.5,0.25,95,130.0
2588,D1,332.75,0.25,95,130.0
2589,B3,332.75,0.25,95,130.0
2590,D3,332.75,0.25,95,130.0
2591,A2,332.75,0.25,95,130.0
2592,D2,332.75,0.25,95,130.0
2593,D1,333.0,1.0,95,130.0
2594,D3,333.0,1.0,95,130.0
2595,A2,333.0,1.0,95,130.0
2596,D2,333.0,1.0,95,130.0
2597,B3,333.0,0.5,95,130.0
2598,C2,333.0,0.5,95,130.0
2599,B3,333.5,0.5,95,130.0
2600,D1,334.0,0.5,95,130.0
2601,D3,334.0,0.5,95,130.0
2602,A2,334.0,0.5,95,130.0
2603,D2,334.0,0.5,95,130.0
2604,B3,334.0,0.5,95,130.0
2605,C2,334.0,0.5,95,130.0
2606,D1,334.5,0.5,95,130.0
2607,D3,334.5,0.5,95,130.0
2608,A2,334.5,0.5,95,130.0
2609,D2,334.5,0.5,95,130.0
2610,B3,334.5,0.25,95,130.0
2611,E2,334.5,0.25,95,130.0
2612,B3,334.75,0.25,95,130.0
2613,D1,335.0,0.25,95,130.0
2614,B3,335.0,0.5,95,130.0
2615,D3,335.0,0.25,95,130.0
2616,A2,335.0,0.25,95,130.0
2617,D2,335.0,0.25,95,130.0
2618,D1,335.25,0.25,95,130.0
2619,D3,335.25,0.25,95,130.0
2620,A2,335.25,0.25,95,130.0
2621,D2,335.25,0.25,95,130.0
2622,D1,335.5,0.25,95,130.0
2623,D3,335.5,0.25,95,130.0
2624,A2,335.5,0.25,95,130.0
2625,D2,335.5,0.25,95,130.0
2626,B3,335.5,0.5,95,130.0
2627,C2,335.5,0.5,95,130.0
2628,D1,335.75,0.25,95,130.0
2629,D3,335.75,0.25,95,130.0
2630,A2,335.75,0.25,95,130.0
2631,D2,335.75,0.25,95,130.0
2632,E-1,336.0,1.0,95,130.0
2633,E-3,336.0,1.0,95,130.0
2634,B-2,336.0,1.0,95,130.0
2635,E-2,336.0,1.0,95,130.0
2636,C#3,336.0,0.5,95,130.0
2637,C2,336.0,0.5,95,130.0
2638,B3,336.5,0.25,95,130.0
2639,B3,336.75,0.25,95,130.0
2640,C2,336.75,0.25,95,130.0
2641,E-1,337.0,0.5,95,130.0
2642,B3,337.0,0.5,95,130.0
2643,E-3,337.0,0.5,95,130.0
2644,B-2,337.0,0.5,95,130.0
2645,E-2,337.0,0.5,95,130.0
2646,E-1,337.5,0.5,95,130.0
2647,E2,337.5,0.5,95,130.0
2648,E-3,337.5,0.5,95,130.0
2649,B-2,337.5,0.5,95,130.0
2650,E-2,337.5,0.5,95,130.0
2651,E-1,338.0,0.25,95,130.0
2652,B3,338.0,0.5,95,130.0
2653,E-3,338.0,0.25,95,130.0
2654,B-2,338.0,0.25,95,130.0
2655,E-2,338.0,0.25,95,130.0
2656,E-1,338.25,0.25,95,130.0
2657,E-3,338.25,0.25,95,130.0
2658,B-2,338.25,0.25,95,130.0
2659,E-2,338.25,0.25,95,130.0
2660,E-1,338.5,0.25,95,130.0
2661,E-3,338.5,0.25,95,130.0
2662,B-2,338.5,0.25,95,130.0
2663,E-2,338.5,0.25,95,130.0
2664,B3,338.5,0.25,95,130.0
2665,C2,338.5,0.25,95,130.0
2666,E-1,338.75,0.25,95,130.0
2667,B3,338.75,0.25,95,130.0
2668,E-3,338.75,0.25,95,130.0
2669,B-2,338.75,0.25,95,130.0
2670,E-2,338.75,0.25,95,130.0
2671,E-1,339.0,1.0,95,130.0
2672,E-3,339.0,1.0,95,130.0
2673,B-2,339.0,1.0,95,130.0
2674,E-2,339.0,1.0,95,130.0
2675,B3,339.0,0.5,95,130.0
2676,C2,339.0,0.5,95,130.0
2677,B3,339.5,0.5,95,130.0
2678,E-1,340.0,0.5,95,130.0
2679,E-3,340.0,0.5,95,130.0
2680,B-2,340.0,0.5,95,130.0
2681,E-2,340.0,0.5,95,130.0
2682,B3,340.0,0.5,95,130.0
2683,C2,340.0,0.5,95,130.0
2684,E-1,340.5,0.5,95,130.0
2685,E-3,340.5,0.5,95,130.0
2686,B-2,340.5,0.5,95,130.0
2687,E-2,340.5,0.5,95,130.0
2688,B3,340.5,0.25,95,130.0
2689,E2,340.5,0.25,95,130.0
2690,B3,340.75,0.25,95,130.0
2691,E-1,341.0,0.25,95,130.0
2692,B3,341.0,0.5,95,130.0
2693,E-3,341.0,0.25,95,130.0
2694,B-2,341.0,0.25,95,130.0
2695,E-2,341.0,0.25,95,130.0
2696,E-1,341.25,0.25,95,130.0
2697,E-3,341.25,0.25,95,130.0
2698,B-2,341.25,0.25,95,130.0
2699,E-2,341.25,0.25,95,130.0
2700,E-1,341.5,0.25,95,130.0
2701,B3,341.5,0.5,95,130.0
2702,E-3,341.5,0.25,95,130.0
2703,B-2,341.5,0.25,95,130.0
2704,E-2,341.5,0.25,95,130.0
2705,E-1,341.75,0.25,95,130.0
2706,E-3,341.75,0.25,95,130.0
2707,B-2,341.75,0.25,95,130.0
2708,E-2,341.75,0.25,95,130.0
2709,D1,342.0,1.0,95,130.0
2710,D3,342.0,1.0,95,130.0
2711,A2,342.0,1.0,95,130.0
2712,D2,342.0,1.0,95,130.0
2713,C#3,342.0,0.5,95,130.0
2714,C2,342.0,0.5,95,130.0
2715,B3,342.5,0.25,95,130.0
2716,B3,342.75,0.25,95,130.0
2717,C2,342.75,0.25,95,130.0
2718,D1,343.0,0.5,95,130.0
2719,B3,343.0,0.5,95,130.0
2720,D3,343.0,0.5,95,130.0
2721,A2,343.0,0.5,95,130.0
2722,D2,343.0,0.5,95,130.0
2723,D1,343.5,0.5,95,130.0
2724,D3,343.5,0.5,95,130.0
2725,A2,343.5,0.5,95,130.0
2726,D2,343.5,0.5,95,130.0
2727,B3,343.5,0.5,95,130.0
2728,E2,343.5,0.5,95,130.0
2729,D1,344.0,0.25,95,130.0
2730,D3,344.0,0.25,95,130.0
2731,A2,344.0,0.25,95,130.0
2732,D2,344.0,0.25,95,130.0
2733,B3,344.0,0.5,95,130.0
2734,C2,344.0,0.5,95,130.0
2735,D1,344.25,0.25,95,130.0
2736,D3,344.25,0.25,95,130.0
2737,A2,344.25,0.25,95,130.0
2738,D2,344.25,0.25,95,130.0
2739,D1,344.5,0.25,95,130.0
2740,B3,344.5,0.25,95,130.0
2741,D3,344.5,0.25,95,130.0
2742,A2,344.5,0.25,95,130.0
2743,D2,344.5,0.25,95,130.0
2744,D1,344.75,0.25,95,130.0
2745,B3,344.75,0.25,95,130.0
2746,D3,344.75,0.25,95,130.0
2747,A2,344.75,0.25,95,130.0
2748,D2,344.75,0.25,95,130.0
2749,D1,345.0,1.0,95,130.0
2750,D3,345.0,1.0,95,130.0
2751,A2,345.0,1.0,95,130.0
2752,D2,345.0,1.0,95,130.0
2753,B3,345.0,0.5,95,130.0
2754,C2,345.0,0.5,95,130.0
2755,B3,345.5,0.5,95,130.0
2756,D1,346.0,0.5,95,130.0
2757,D3,346.0,0.5,95,130.0
2758,A2,346.0,0.5,95,130.0
2759,D2,346.0,0.5,95,130.0
2760,B3,346.0,0.5,95,130.0
2761,C2,346.0,0.5,95,130.0
2762,D1,346.5,0.5,95,130.0
2763,D3,346.5,0.5,95,130.0
2764,A2,346.5,0.5,95,130.0
2765,D2,346.5,0.5,95,130.0
2766,B3,346.5,0.5,95,130.0
2767,C2,346.5,0.5,95,130.0
2768,D1,347.0,0.5,95,130.0
2769,D3,347.0,0.5,95,130.0
2770,A2,347.0,0.5,95,130.0
2771,D2,347.0,0.5,95,130.0
2772,B3,347.0,0.5,95,130.0
2773,C2,347.0,0.5,95,130.0
2774,D1,347.5,0.5,95,130.0
2775,D3,347.5,0.5,95,130.0
2776,A2,347.5,0.5,95,130.0
2777,D2,347.5,0.5,95,130.0
2778,B3,347.5,0.5,95,130.0
2779,C2,347.5,0.5,95,130.0
2780,D1,348.0,1.0,95,130.0
2781,C2,348.0,0.5,95,130.0
2782,A2,348.0,1.0,95,130.0
2783,D2,348.0,1.0,95,130.0
2784,A3,348.0,1.0,95,130.0
2785,G3,348.0,1.0,95,130.0
2786,D1,349.0,0.5,95,130.0
2787,A2,349.0,0.5,95,130.0
2788,D2,349.0,0.5,95,130.0
2789,B-2,349.0,0.5,95,130.0
2790,C2,349.0,0.5,95,130.0
2791,D3,349.5,1.5,95,130.0
2792,D1,349.5,1.0,95,130.0
2793,G3,349.5,1.0,95,130.0
2794,E2,349.5,0.5,95,130.0
2795,D1,350.5,0.5,95,130.0
2796,B-2,350.5,0.5,95,130.0
2797,C2,350.5,0.5,95,130.0
2798,B-2,351.0,1.0,95,130.0
2799,D1,351.0,1.0,95,130.0
2800,G3,351.0,1.0,95,130.0
2801,C2,351.0,0.5,95,130.0
2802,B-2,352.0,0.5,95,130.0
2803,D1,352.0,0.5,95,130.0
2804,B-2,352.0,0.5,95,130.0
2805,C2,352.0,0.5,95,130.0
2806,A2,352.5,0.5,95,130.0
2807,D1,352.5,1.0,95,130.0
2808,G3,352.5,1.0,95,130.0
2809,E2,352.5,0.5,95,130.0
2810,B-2,353.0,0.5,95,130.0
2811,A2,353.5,0.5,95,130.0
2812,D1,353.5,0.5,95,130.0
2813,B-2,353.5,0.5,95,130.0
2814,C2,353.5,0.5,95,130.0
2815,D1,354.0,1.0,95,130.0
2816,A3,354.0,1.0,95,130.0
2817,A2,354.0,1.0,95,130.0
2818,D2,354.0,1.0,95,130.0
2819,G3,354.0,0.5,95,130.0
2820,C2,354.0,0.5,95,130.0
2821,D1,355.0,0.5,95,130.0
2822,A2,355.0,0.5,95,130.0
2823,D2,355.0,0.5,95,130.0
2824,B-2,355.0,0.5,95,130.0
2825,C2,355.0,0.5,95,130.0
2826,D3,355.5,0.5,95,130.0
2827,D1,355.5,0.5,95,130.0
2828,G3,355.5,0.5,95,130.0
2829,E2,355.5,0.5,95,130.0
2830,D3,356.0,1.0,95,130.0
2831,D1,356.0,0.5,95,130.0
2832,D1,356.5,0.5,95,130.0
2833,B-2,356.5,0.5,95,130.0
2834,C2,356.5,0.5,95,130.0
2835,B-2,357.0,1.5,95,130.0
2836,D1,357.0,1.0,95,130.0
2837,G3,357.0,1.0,95,130.0
2838,C2,357.0,0.5,95,130.0
2839,D1,358.0,0.5,95,130.0
2840,B-2,358.0,0.5,95,130.0
2841,C2,358.0,0.5,95,130.0
2842,A2,358.5,0.5,95,130.0
2843,D1,358.5,1.0,95,130.0
2844,G3,358.5,1.0,95,130.0
2845,E2,358.5,0.5,95,130.0
2846,B-2,359.0,0.5,95,130.0
2847,A2,359.5,0.5,95,130.0
2848,D1,359.5,0.5,95,130.0
2849,B-2,359.5,0.5,95,130.0
2850,C2,359.5,0.5,95,130.0
2851,E-1,360.0,1.0,95,130.0
2852,C2,360.0,0.5,95,130.0
2853,B-2,360.0,1.0,95,130.0
2854,E-2,360.0,1.0,95,130.0
2855,A3,360.0,1.0,95,130.0
2856,G3,360.0,1.0,95,130.0
2857,E-1,361.0,0.5,95,130.0
2858,B-2,361.0,0.5,95,130.0
2859,E-2,361.0,0.5,95,130.0
2860,B-2,361.0,0.5,95,130.0
2861,C2,361.0,0.5,95,130.0
2862,E-3,361.5,0.5,95,130.0
2863,E-1,361.5,1.0,95,130.0
2864,G3,361.5,1.0,95,130.0
2865,E2,361.5,0.5,95,130.0
2866,F3,362.0,0.5,95,130.0
2867,E-3,362.5,0.5,95,130.0
2868,E-1,362.5,0.5,95,130.0
2869,B-2,362.5,0.5,95,130.0
2870,C2,362.5,0.5,95,130.0
2871,E-3,363.0,167/1000,95,130.0
2872,E-1,363.0,1.0,95,130.0
2873,G3,363.0,1.0,95,130.0
2874,C2,363.0,0.5,95,130.0
2875,F3,363.167,167/1000,76,130.0
2876,E-3,363.333,167/1000,76,130.0
2877,F3,363.5,0.5,95,130.0
2878,F3,364.0,0.5,95,130.0
2879,E-1,364.0,0.5,95,130.0
2880,B-2,364.0,0.5,95,130.0
2881,C2,364.0,0.5,95,130.0
2882,D3,364.5,0.5,95,130.0
2883,E-1,364.5,1.0,95,130.0
2884,G3,364.5,1.0,95,130.0
2885,E2,364.5,0.5,95,130.0
2886,E-3,365.0,0.5,95,130.0
2887,D3,365.5,167/1000,95,130.0
2888,E-1,365.5,0.5,95,130.0
2889,B-2,365.5,0.5,95,130.0
2890,C2,365.5,0.5,95,130.0
2891,E-3,365.667,167/1000,76,130.0
2892,D3,365.833,167/1000,76,130.0
2893,D1,366.0,1.0,95,130.0
2894,A3,366.0,1.0,95,130.0
2895,A2,366.0,1.0,95,130.0
2896,D2,366.0,1.0,95,130.0
2897,G3,366.0,0.5,95,130.0
2898,C2,366.0,0.5,95,130.0
2899,D1,367.0,0.5,95,130.0
2900,A2,367.0,0.5,95,130.0
2901,D2,367.0,0.5,95,130.0
2902,B-2,367.0,0.5,95,130.0
2903,C2,367.0,0.5,95,130.0
2904,D3,367.5,0.5,95,130.0
2905,D1,367.5,0.5,95,130.0
2906,G3,367.5,0.5,95,130.0
2907,E2,367.5,0.5,95,130.0
2908,D3,368.0,1.0,95,130.0
2909,D1,368.0,0.5,95,130.0
2910,D1,368.5,0.5,95,130.0
2911,B-2,368.5,0.5,95,130.0
2912,C2,368.5,0.5,95,130.0
2913,B-2,369.0,1.5,95,130.0
2914,D1,369.0,1.0,95,130.0
2915,G3,369.0,1.0,95,130.0
2916,C2,369.0,0.5,95,130.0
2917,E2,369.5,0.5,95,130.0
2918,D1,370.0,0.5,95,130.0
2919,B-2,370.0,0.5,95,130.0
2920,C2,370.0,0.5,95,130.0
2921,A2,370.5,0.5,95,130.0
2922,D1,370.5,1.0,95,130.0
2923,G3,370.5,1.0,95,130.0
2924,E2,370.5,0.5,95,130.0
2925,B-2,371.0,0.5,95,130.0
2926,C2,371.0,0.5,95,130.0
2927,A2,371.5,0.5,95,130.0
2928,D1,371.5,0.5,95,130.0
2929,B-2,371.5,0.5,95,130.0
2930,E2,371.5,0.5,95,130.0
2931,D1,372.0,1.0,95,130.0
2932,C2,372.0,0.5,95,130.0
2933,A2,372.0,1.0,95,130.0
2934,D2,372.0,1.0,95,130.0
2935,A3,372.0,1.0,95,130.0
2936,G3,372.0,1.0,95,130.0
2937,D1,373.0,0.5,95,130.0
2938,A2,373.0,0.5,95,130.0
2939,D2,373.0,0.5,95,130.0
2940,B-2,373.0,0.5,95,130.0
2941,C2,373.0,0.5,95,130.0
2942,D3,373.5,1.5,95,130.0
2943,D1,373.5,1.0,95,130.0
2944,G3,373.5,1.0,95,130.0
2945,E2,373.5,0.5,95,130.0
2946,D1,374.5,0.5,95,130.0
2947,B-2,374.5,0.5,95,130.0
2948,C2,374.5,0.5,95,130.0
2949,B-2,375.0,1.0,95,130.0
2950,D1,375.0,1.0,95,130.0
2951,G3,375.0,1.0,95,130.0
2952,C2,375.0,0.5,95,130.0
2953,B-2,376.0,0.5,95,130.0
2954,D1,376.0,0.5,95,130.0
2955,B-2,376.0,0.5,95,130.0
2956,C2,376.0,0.5,95,130.0
2957,A2,376.5,0.5,95,130.0
2958,D1,376.5,1.0,95,130.0
2959,G3,376.5,1.0,95,130.0
2960,E2,376.5,0.5,95,130.0
2961,B-2,377.0,0.5,95,130.0
2962,A2,377.5,0.5,95,130.0
2963,D1,377.5,0.5,95,130.0
2964,B-2,377.5,0.5,95,130.0
2965,C2,377.5,0.5,95,130.0
2966,D1,378.0,1.0,95,130.0
2967,A3,378.0,1.0,95,130.0
2968,A2,378.0,1.0,95,130.0
2969,D2,378.0,1.0,95,130.0
2970,G3,378.0,0.5,95,130.0
2971,C2,378.0,0.5,95,130.0
2972,D1,379.0,0.5,95,130.0
2973,A2,379.0,0.5,95,130.0
2974,D2,379.0,0.5,95,130.0
2975,B-2,379.0,0.5,95,130.0
2976,C2,379.0,0.5,95,130.0
2977,D3,379.5,0.5,95,130.0
2978,D1,379.5,0.5,95,130.0
2979,G3,379.5,0.5,95,130.0
2980,E2,379.5,0.5,95,130.0
2981,D3,380.0,1.0,95,130.0
2982,D1,380.0,0.5,95,130.0
2983,D1,380.5,0.5,95,130.0
2984,B-2,380.5,0.5,95,130.0
2985,C2,380.5,0.5,95,130.0
2986,B-2,381.0,1.5,95,130.0
2987,D1,381.0,1.0,95,130.0
2988,G3,381.0,1.0,95,130.0
2989,C2,381.0,0.5,95,130.0
2990,D1,382.0,0.5,95,130.0
2991,B-2,382.0,0.5,95,130.0
2992,C2,382.0,0.5,95,130.0
2993,A2,382.5,0.5,95,130.0
2994,D1,382.5,1.0,95,130.0
2995,G3,382.5,1.0,95,130.0
2996,E2,382.5,0.5,95,130.0
2997,B-2,383.0,0.5,95,130.0
2998,A2,383.5,0.5,95,130.0
2999,D1,383.5,0.5,95,130.0
3000,B-2,383.5,0.5,95,130.0
3001,C2,383.5,0.5,95,130.0
3002,E-1,384.0,1.0,95,130.0
3003,C2,384.0,0.5,95,130.0
3004,B-2,384.0,1.0,95,130.0
3005,E-2,384.0,1.0,95,130.0
3006,A3,384.0,1.0,95,130.0
3007,G3,384.0,1.0,95,130.0
3008,E-1,385.0,0.5,95,130.0
3009,B-2,385.0,0.5,95,130.0
3010,E-2,385.0,0.5,95,130.0
3011,B-2,385.0,0.5,95,130.0
3012,C2,385.0,0.5,95,130.0
3013,E-3,385.5,0.5,95,130.0
3014,E-1,385.5,1.0,95,130.0
3015,G3,385.5,1.0,95,130.0
3016,E2,385.5,0.5,95,130.0
3017,F3,386.0,0.5,95,130.0
3018,E-3,386.5,0.5,95,130.0
3019,E-1,386.5,0.5,95,130.0
3020,B-2,386.5,0.5,95,130.0
3021,C2,386.5,0.5,95,130.0
3022,E-3,387.0,167/1000,95,130.0
3023,E-1,387.0,1.0,95,130.0
3024,G3,387.0,1.0,95,130.0
3025,C2,387.0,0.5,95,130.0
3026,F3,387.167,167/1000,76,130.0
3027,E-3,387.333,167/1000,76,130.0
3028,F3,387.5,0.5,95,130.0
3029,F3,388.0,0.5,95,130.0
3030,E-1,388.0,0.5,95,130.0
3031,B-2,388.0,0.5,95,130.0
3032,C2,388.0,0.5,95,130.0
3033,D3,388.5,0.5,95,130.0
3034,E-1,388.5,1.0,95,130.0
3035,G3,388.5,1.0,95,130.0
3036,E2,388.5,0.5,95,130.0
3037,E-3,389.0,0.5,95,130.0
3038,D3,389.5,167/1000,95,130.0
3039,E-1,389.5,0.5,95,130.0
3040,B-2,389.5,0.5,95,130.0
3041,C2,389.5,0.5,95,130.0
3042,E-3,389.667,167/1000,76,130.0
3043,D3,389.833,167/1000,76,130.0
3044,D1,390.0,1.0,95,130.0
3045,A3,390.0,1.0,95,130.0
3046,A2,390.0,1.0,95,130.0
3047,D2,390.0,1.0,95,130.0
3048,G3,390.0,0.5,95,130.0
3049,C2,390.0,0.5,95,130.0
3050,D1,391.0,0.5,95,130.0
3051,A2,391.0,0.5,95,130.0
3052,D2,391.0,0.5,95,130.0
3053,B-2,391.0,0.5,95,130.0
3054,C2,391.0,0.5,95,130.0
3055,D3,391.5,0.5,95,130.0
3056,D1,391.5,0.5,95,130.0
3057,G3,391.5,0.5,95,130.0
3058,E2,391.5,0.5,95,130.0
3059,D3,392.0,1.0,95,130.0
3060,D1,392.0,0.5,95,130.0
3061,D1,392.5,0.5,95,130.0
3062,B-2,392.5,0.5,95,130.0
3063,C2,392.5,0.5,95,130.0
3064,B-2,393.0,1.5,95,130.0
3065,D1,393.0,1.0,95,130.0
3066,G3,393.0,1.0,95,130.0
3067,C2,393.0,0.5,95,130.0
3068,E2,393.5,0.5,95,130.0
3069,D1,394.0,0.5,95,130.0
3070,B-2,394.0,0.5,95,130.0
3071,C2,394.0,0.5,95,130.0
3072,A2,394.5,0.5,95,130.0
3073,D1,394.5,1.0,95,130.0
3074,G3,394.5,1.0,95,130.0
3075,E2,394.5,0.5,95,130.0
3076,B-2,395.0,0.5,95,130.0
3077,C2,395.0,0.5,95,130.0
3078,A2,395.5,0.5,95,130.0
3079,D1,395.5,0.5,95,130.0
3080,B-2,395.5,0.5,95,130.0
3081,E2,395.5,0.5,95,130.0
3082,D3,396.0,0.5,95,130.0
3083,D3,396.0,0.5,95,130.0
3084,D5,396.0,4.0,95,130.0
3085,D1,396.0,3.0,95,130.0
3086,A3,396.5,0.5,95,130.0
3087,A3,396.5,0.5,95,130.0
3088,D4,397.0,0.5,95,130.0
3089,D4,397.0,0.5,95,130.0
3090,E4,397.5,167/1000,76,130.0
3091,E4,397.5,167/1000,95,130.0
3092,F4,397.667,167/1000,76,130.0
3093,F4,397.667,167/1000,76,130.0
3094,E4,397.833,167/1000,76,130.0
3095,E4,397.833,167/1000,76,130.0
3096,D4,398.0,0.5,95,130.0
3097,F4,398.0,167/1000,76,130.0
3098,E4,398.167,167/1000,76,130.0
3099,F4,398.333,167/1000,76,130.0
3100,A3,398.5,0.5,95,130.0
3101,D4,398.5,0.5,95,130.0
3102,G2,399.0,0.5,95,130.0
3103,G2,399.0,0.5,95,130.0
3104,G1,399.0,1.0,95,130.0
3105,D3,399.5,0.5,95,130.0
3106,D3,399.5,0.5,95,130.0
3107,A3,400.0,1.0,95,130.0
3108,A3,400.0,1.0,95,130.0
3109,D5,400.0,4.0,95,130.0
3110,G1,400.0,2.0,95,130.0
3111,G2,400.5,0.5,95,130.0
3112,G2,400.5,0.5,95,130.0
3113,D3,401.0,0.5,95,130.0
3114,D3,401.0,0.5,95,130.0
3115,A3,401.5,1.0,95,130.0
3116,A3,401.5,1.0,95,130.0
3117,D3,402.0,0.5,95,130.0
3118,D3,402.0,0.5,95,130.0
3119,D1,402.0,2.0,95,130.0
3120,A3,402.5,0.5,95,130.0
3121,A3,402.5,0.5,95,130.0
3122,D4,403.0,0.5,95,130.0
3123,D4,403.0,0.5,95,130.0
3124,E4,403.5,167/1000,76,130.0
3125,E4,403.5,167/1000,95,130.0
3126,F4,403.667,167/1000,76,130.0
3127,F4,403.667,167/1000,76,130.0
3128,E4,403.833,167/1000,76,130.0
3129,E4,403.833,167/1000,76,130.0
3130,D4,404.0,0.5,95,130.0
3131,F4,404.0,167/1000,76,130.0
3132,D5,404.0,4.0,95,130.0
3133,D1,404.0,1.0,95,130.0
3134,E4,404.167,167/1000,76,130.0
3135,F4,404.333,167/1000,76,130.0
3136,A3,404.5,0.5,95,130.0
3137,D4,404.5,0.5,76,130.0
3138,G2,405.0,0.5,95,130.0
3139,G2,405.0,0.5,95,130.0
3140,G1,405.0,3.0,95,130.0
3141,D3,405.5,0.5,95,130.0
3142,D3,405.5,0.5,95,130.0
3143,A3,406.0,1.0,95,130.0
3144,A3,406.0,1.0,95,130.0
3145,G2,406.5,0.5,95,130.0
3146,G2,406.5,0.5,95,130.0
3147,D3,407.0,0.5,95,130.0
3148,D3,407.0,0.5,95,130.0
3149,A3,407.5,0.5,95,130.0
3150,A3,407.5,0.5,95,130.0
3151,D3,408.0,0.5,95,130.0
3152,A3,408.0,0.5,95,130.0
3153,D3,408.0,0.5,95,130.0
3154,D5,408.0,4.0,95,130.0
3155,D1,408.0,3.0,95,130.0
3156,A3,408.5,0.5,95,130.0
3157,A3,408.5,0.5,95,130.0
3158,D4,409.0,0.5,95,130.0
3159,D4,409.0,0.5,95,130.0
3160,E4,409.5,167/1000,76,130.0
3161,E4,409.5,167/1000,95,130.0
3162,F4,409.667,167/1000,76,130.0
3163,F4,409.667,167/1000,76,130.0
3164,E4,409.833,167/1000,76,130.0
3165,E4,409.833,167/1000,76,130.0
3166,D4,410.0,0.5,95,130.0
3167,F4,410.0,167/1000,76,130.0
3168,E4,410.167,167/1000,76,130.0
3169,F4,410.333,167/1000,76,130.0
3170,A3,410.5,0.5,95,130.0
3171,D4,410.5,0.5,95,130.0
3172,C3,411.0,0.5,95,130.0
3173,C3,411.0,0.5,95,130.0
3174,C2,411.0,1.0,95,130.0
3175,G#2,411.0,0.5,50,130.0
3176,C4,411.5,0.5,95,130.0
3177,C4,411.5,0.5,95,130.0
3178,G#2,411.5,0.5,50,130.0
3179,G4,412.0,0.5,76,130.0
3180,G4,412.0,0.5,95,130.0
3181,D5,412.0,2.0,95,130.0
3182,C2,412.0,2.0,95,130.0
3183,G#2,412.0,0.5,50,130.0
3184,C3,412.5,0.5,95,130.0
3185,C3,412.5,0.5,95,130.0
3186,G#2,412.5,0.5,50,130.0
3187,C4,413.0,0.5,95,130.0
3188,C4,413.0,0.5,95,130.0
3189,G#2,413.0,0.5,50,130.0
3190,A3,413.5,0.5,95,130.0
3191,A3,413.5,0.5,95,130.0
3192,G#2,413.5,0.5,50,130.0
3193,F3,414.0,0.5,95,130.0
3194,F3,414.0,0.5,95,130.0
3195,F5,414.0,2.0,95,130.0
3196,F1,414.0,2.0,95,130.0
3197,G#2,414.0,0.5,50,130.0
3198,C4,414.5,0.5,95,130.0
3199,C4,414.5,0.5,95,130.0
3200,G#2,414.5,0.5,50,130.0
3201,F4,415.0,0.5,95,130.0
3202,F4,415.0,0.5,95,130.0
3203,G#2,415.0,0.5,50,130.0
3204,F3,415.5,0.5,95,130.0
3205,F3,415.5,0.5,95,130.0
3206,G#2,415.5,0.5,50,130.0
3207,C4,416.0,0.5,95,130.0
3208,C4,416.0,0.5,95,130.0
3209,F5,416.0,1.0,95,130.0
3210,F1,416.0,1.0,95,130.0
3211,G#2,416.0,0.5,50,130.0
3212,F4,416.5,0.5,95,130.0
3213,F4,416.5,0.5,95,130.0
3214,G#2,416.5,0.5,50,130.0
3215,F2,417.0,0.5,95,130.0
3216,F2,417.0,0.5,95,130.0
3217,G5,417.0,3.0,95,130.0
3218,F1,417.0,1.5,95,130.0
3219,G#2,417.0,0.5,50,130.0
3220,C3,417.5,0.5,95,130.0
3221,C3,417.5,0.5,95,130.0
3222,G#2,417.5,0.5,50,130.0
3223,F3,418.0,0.5,95,130.0
3224,F3,418.0,0.5,95,130.0
3225,G#2,418.0,0.5,50,130.0
3226,G2,418.5,0.5,95,130.0
3227,G2,418.5,0.5,95,130.0
3228,G1,418.5,1.5,95,130.0
3229,G#2,418.5,0.5,50,130.0
3230,D3,419.0,0.5,95,130.0
3231,D3,419.0,0.5,95,130.0
3232,G#2,419.0,0.5,50,130.0
3233,G3,419.5,0.5,95,130.0
3234,G3,419.5,0.5,95,130.0
3235,G#2,419.5,0.5,50,130.0
3236,A3,420.0,4.0,95,130.0
3237,D3,420.0,4.0,95,130.0
3238,D5,420.0,4.0,95,130.0
3239,D1,420.0,4.0,95,130.0
3240,A3,420.0,4.0,50,130.0
3241,D4,420.083,3917/1000,95,130.0
3242,F3,420.083,21/500,95,130.0
3243,D3,420.167,3833/1000,95,130.0
3244,A3,420.167,3833/1000,95,130.0
3245,G3,420.25,21/500,95,130.0
3246,D4,420.25,3.75,95,130.0
