,note_name,start_time,duration,velocity,tempo
0,E4,0.0,0.5,115,162.0
1,E3,0.0,0.5,115,162.0
2,E4,0.0,0.5,115,162.0
3,D2,0.0,0.5,115,162.0
4,E4,0.5,0.5,115,162.0
5,E3,0.5,0.5,115,162.0
6,E4,0.5,0.5,115,162.0
7,E4,1.0,0.25,115,162.0
8,E3,1.0,0.25,115,162.0
9,E4,1.0,0.25,115,162.0
10,D4,1.25,0.25,115,162.0
11,D3,1.25,0.25,115,162.0
12,D4,1.25,0.25,115,162.0
13,B3,1.5,0.5,115,162.0
14,B2,1.5,0.5,115,162.0
15,B3,1.5,0.5,115,162.0
16,D4,2.0,0.5,115,162.0
17,D3,2.0,0.5,115,162.0
18,D4,2.0,0.5,115,162.0
19,D4,2.5,0.5,115,162.0
20,D3,2.5,0.5,115,162.0
21,D4,2.5,0.5,115,162.0
22,D4,3.0,0.25,115,162.0
23,D3,3.0,0.25,115,162.0
24,D4,3.0,0.25,115,162.0
25,C4,3.25,0.25,115,162.0
26,C3,3.25,0.25,115,162.0
27,C4,3.25,0.25,115,162.0
28,A3,3.5,0.5,115,162.0
29,A2,3.5,0.5,115,162.0
30,A3,3.5,0.5,115,162.0
31,C4,4.0,0.5,115,162.0
32,C3,4.0,0.5,115,162.0
33,C4,4.0,0.5,115,162.0
34,C4,4.5,0.5,115,162.0
35,C3,4.5,0.5,115,162.0
36,C4,4.5,0.5,115,162.0
37,C4,5.0,0.25,115,162.0
38,C3,5.0,0.25,115,162.0
39,C4,5.0,0.25,115,162.0
40,B-3,5.25,0.25,115,162.0
41,B2,5.25,0.25,115,162.0
42,B-3,5.25,0.25,115,162.0
43,G3,5.5,0.5,115,162.0
44,G2,5.5,0.5,115,162.0
45,G3,5.5,0.5,115,162.0
46,D4,6.0,0.5,115,162.0
47,G2,6.0,0.5,115,162.0
48,D4,6.0,0.5,115,162.0
49,D2,6.0,0.5,115,162.0
50,B2,6.5,0.125,115,162.0
51,G4,6.5,0.5,115,162.0
52,A2,6.5,0.5,115,162.0
53,G4,6.5,0.5,115,162.0
54,B2,6.75,0.125,115,162.0
55,A2,7.0,0.125,115,162.0
56,D4,7.0,0.5,115,162.0
57,G2,7.0,0.5,115,162.0
58,D4,7.0,0.5,115,162.0
59,E4,7.5,0.5,115,162.0
60,E2,7.5,0.5,115,162.0
61,E4,7.5,0.5,115,162.0
62,B1,7.5,0.5,115,162.0
63,C#3,7.5,0.5,115,162.0
64,E4,8.5,0.5,115,162.0
65,E2,8.5,0.5,115,162.0
66,E4,8.5,0.5,115,162.0
67,E4,9.0,0.5,115,162.0
68,E3,9.0,0.5,115,162.0
69,E4,9.0,0.5,115,162.0
70,E4,9.5,0.25,115,162.0
71,E3,9.5,0.25,115,162.0
72,E4,9.5,0.25,115,162.0
73,D4,9.75,0.25,115,162.0
74,D3,9.75,0.25,115,162.0
75,D4,9.75,0.25,115,162.0
76,B3,10.0,0.5,115,162.0
77,B2,10.0,0.5,115,162.0
78,B3,10.0,0.5,115,162.0
79,D4,10.5,0.5,115,162.0
80,D3,10.5,0.5,115,162.0
81,D4,10.5,0.5,115,162.0
82,D4,11.0,0.5,115,162.0
83,D3,11.0,0.5,115,162.0
84,D4,11.0,0.5,115,162.0
85,D4,11.5,0.25,115,162.0
86,D3,11.5,0.25,115,162.0
87,D4,11.5,0.25,115,162.0
88,C4,11.75,0.25,115,162.0
89,C3,11.75,0.25,115,162.0
90,C4,11.75,0.25,115,162.0
91,A3,12.0,0.5,115,162.0
92,A2,12.0,0.5,115,162.0
93,A3,12.0,0.5,115,162.0
94,C4,12.5,0.5,115,162.0
95,C3,12.5,0.5,115,162.0
96,C4,12.5,0.5,115,162.0
97,C4,13.0,0.5,115,162.0
98,C3,13.0,0.5,115,162.0
99,C4,13.0,0.5,115,162.0
100,C4,13.5,0.25,115,162.0
101,C3,13.5,0.25,115,162.0
102,C4,13.5,0.25,115,162.0
103,B-3,13.75,0.25,115,162.0
104,B2,13.75,0.25,115,162.0
105,B-3,13.75,0.25,115,162.0
106,G3,14.0,0.5,115,162.0
107,G2,14.0,0.5,115,162.0
108,G3,14.0,0.5,115,162.0
109,D4,14.5,0.5,115,162.0
110,G2,14.5,0.5,115,162.0
111,D4,14.5,0.5,115,162.0
112,D2,14.5,0.5,115,162.0
113,A2,15.0,0.125,115,162.0
114,G4,15.0,0.5,115,162.0
115,A2,15.0,0.5,115,162.0
116,G4,15.0,0.5,115,162.0
117,A2,15.25,0.125,115,162.0
118,G2,15.5,0.125,115,162.0
119,D4,15.5,0.5,115,162.0
120,G2,15.5,0.5,115,162.0
121,D4,15.5,0.5,115,162.0
122,E4,16.0,0.5,115,162.0
123,E2,16.0,0.5,115,162.0
124,G4,16.0,0.5,115,162.0
125,B1,16.0,0.5,115,162.0
126,C#3,16.0,0.5,115,162.0
127,E4,17.0,0.5,115,162.0
128,E2,17.0,0.5,115,162.0
129,G4,17.0,0.5,115,162.0
130,E4,17.5,0.5,115,162.0
131,E3,17.5,0.5,115,162.0
132,G4,17.5,0.5,115,162.0
133,E4,18.0,0.25,115,162.0
134,E3,18.0,0.25,115,162.0
135,G4,18.0,0.25,115,162.0
136,D4,18.25,0.25,115,162.0
137,D3,18.25,0.25,115,162.0
138,F#4,18.25,0.25,115,162.0
139,B3,18.5,0.5,115,162.0
140,B2,18.5,0.5,115,162.0
141,E4,18.5,0.5,115,162.0
142,D4,19.0,0.5,115,162.0
143,D3,19.0,0.5,115,162.0
144,F#4,19.0,0.5,115,162.0
145,D4,19.5,0.5,115,162.0
146,D3,19.5,0.5,115,162.0
147,F#4,19.5,0.5,115,162.0
148,D4,20.0,0.25,115,162.0
149,D3,20.0,0.25,115,162.0
150,F#4,20.0,0.25,115,162.0
151,C4,20.25,0.25,115,162.0
152,C3,20.25,0.25,115,162.0
153,E4,20.25,0.25,115,162.0
154,A3,20.5,0.5,115,162.0
155,A2,20.5,0.5,115,162.0
156,D4,20.5,0.5,115,162.0
157,G#2,21.0,0.125,115,162.0
158,C4,21.0,0.5,115,162.0
159,C3,21.0,0.5,115,162.0
160,E4,21.0,0.5,115,162.0
161,C4,21.5,0.5,115,162.0
162,C3,21.5,0.5,115,162.0
163,E4,21.5,0.5,115,162.0
164,G#2,22.0,0.125,115,162.0
165,C4,22.0,0.25,115,162.0
166,C3,22.0,0.25,115,162.0
167,E4,22.0,0.25,115,162.0
168,B-3,22.25,0.25,115,162.0
169,B2,22.25,0.25,115,162.0
170,D4,22.25,0.25,115,162.0
171,G3,22.5,0.5,115,162.0
172,G2,22.5,0.5,115,162.0
173,C4,22.5,0.5,115,162.0
174,D4,23.0,0.5,115,162.0
175,G2,23.0,0.5,115,162.0
176,F#4,23.0,0.5,115,162.0
177,D2,23.0,0.5,115,162.0
178,A2,23.5,0.125,115,162.0
179,G4,23.5,0.5,115,162.0
180,A2,23.5,0.5,115,162.0
181,G4,23.5,0.5,115,162.0
182,A2,23.75,0.125,115,162.0
183,G2,24.0,0.125,115,162.0
184,D4,24.0,0.5,115,162.0
185,G2,24.0,0.5,115,162.0
186,F#4,24.0,0.5,115,162.0
187,E4,24.5,0.5,115,162.0
188,E2,24.5,0.5,115,162.0
189,G4,24.5,0.5,115,162.0
190,B1,24.5,0.5,115,162.0
191,C#3,24.5,0.5,115,162.0
192,E4,25.5,0.5,115,162.0
193,E2,25.5,0.5,115,162.0
194,G4,25.5,0.5,115,162.0
195,D3,26.0,0.125,115,162.0
196,E4,26.0,0.5,115,162.0
197,E3,26.0,0.5,115,162.0
198,G4,26.0,0.5,115,162.0
199,D3,26.5,0.125,115,162.0
200,E4,26.5,0.25,115,162.0
201,E3,26.5,0.25,115,162.0
202,G4,26.5,0.25,115,162.0
203,D3,26.75,0.125,115,162.0
204,D4,26.75,0.25,115,162.0
205,D3,26.75,0.25,115,162.0
206,F#4,26.75,0.25,115,162.0
207,D3,27.0,0.125,115,162.0
208,B3,27.0,0.5,115,162.0
209,B2,27.0,0.5,115,162.0
210,E4,27.0,0.5,115,162.0
211,D3,27.25,0.125,115,162.0
212,C3,27.5,0.125,115,162.0
213,D4,27.5,0.5,115,162.0
214,D3,27.5,0.5,115,162.0
215,F#4,27.5,0.5,115,162.0
216,C3,28.0,0.125,115,162.0
217,D4,28.0,0.5,115,162.0
218,D3,28.0,0.5,115,162.0
219,F#4,28.0,0.5,115,162.0
220,C3,28.5,0.125,115,162.0
221,D4,28.5,0.25,115,162.0
222,D3,28.5,0.25,115,162.0
223,F#4,28.5,0.25,115,162.0
224,C3,28.75,0.125,115,162.0
225,C4,28.75,0.25,115,162.0
226,C3,28.75,0.25,115,162.0
227,E4,28.75,0.25,115,162.0
228,C3,29.0,0.125,115,162.0
229,A3,29.0,0.5,115,162.0
230,A2,29.0,0.5,115,162.0
231,D4,29.0,0.5,115,162.0
232,C3,29.25,0.125,115,162.0
233,B2,29.5,0.125,115,162.0
234,C4,29.5,0.5,115,162.0
235,C3,29.5,0.5,115,162.0
236,E4,29.5,0.5,115,162.0
237,B2,30.0,0.125,115,162.0
238,C4,30.0,0.5,115,162.0
239,C3,30.0,0.5,115,162.0
240,E4,30.0,0.5,115,162.0
241,B2,30.5,0.125,115,162.0
242,C4,30.5,0.25,115,162.0
243,C3,30.5,0.25,115,162.0
244,E4,30.5,0.25,115,162.0
245,B2,30.75,0.125,115,162.0
246,B-3,30.75,0.25,115,162.0
247,B2,30.75,0.25,115,162.0
248,D4,30.75,0.25,115,162.0
249,B2,31.0,0.125,115,162.0
250,G3,31.0,0.5,115,162.0
251,G2,31.0,0.5,115,162.0
252,C4,31.0,0.5,115,162.0
253,B2,31.25,0.125,115,162.0
254,A2,31.5,0.125,115,162.0
255,D4,31.5,0.5,115,162.0
256,G2,31.5,0.5,115,162.0
257,F#4,31.5,0.5,115,162.0
258,A2,32.0,0.125,115,162.0
259,G4,32.0,0.5,115,162.0
260,A2,32.0,0.5,115,162.0
261,G4,32.0,0.5,115,162.0
262,A2,32.5,0.125,115,162.0
263,D4,32.5,0.5,115,162.0
264,G2,32.5,0.5,115,162.0
265,F#4,32.5,0.5,115,162.0
266,E4,33.0,0.5,115,162.0
267,E2,33.0,0.5,115,162.0
268,G4,33.0,0.5,115,162.0
269,B1,33.0,0.125,115,162.0
270,C#3,33.0,0.125,115,162.0
271,E4,34.0,0.5,115,162.0
272,E2,34.0,0.5,115,162.0
273,G4,34.0,0.5,115,162.0
274,B4,34.5,103/200,115,162.0
275,G5,34.5,103/200,115,162.0
276,E2,34.5,0.25,115,162.0
277,B1,34.5,0.25,115,162.0
278,E2,34.75,0.25,115,162.0
279,B1,34.75,0.25,115,162.0
280,E2,35.0,479/1000,115,162.0
281,A4,35.0,0.25,115,162.0
282,F#5,35.0,0.25,115,162.0
283,E-3,35.0,0.25,115,162.0
284,D2,35.0,0.25,115,162.0
285,B4,35.25,0.25,115,162.0
286,G5,35.25,0.25,115,162.0
287,E2,35.485,0.25,115,162.0
288,A4,35.485,0.25,115,162.0
289,F#5,35.485,0.25,115,162.0
290,B1,35.485,0.25,115,162.0
291,B4,35.75,0.25,115,162.0
292,E2,35.75,0.25,115,162.0
293,G5,35.75,0.25,115,162.0
294,B1,35.75,0.25,115,162.0
295,D5,36.0,0.5,115,162.0
296,E2,36.0,0.5,115,162.0
297,B5,36.0,0.5,115,162.0
298,E-3,36.0,0.25,115,162.0
299,B1,36.0,0.25,115,162.0
300,B4,36.5,103/200,115,162.0
301,G5,36.5,103/200,115,162.0
302,E2,36.5,0.25,115,162.0
303,B1,36.5,0.25,115,162.0
304,E2,36.75,0.25,115,162.0
305,B1,36.75,0.25,115,162.0
306,E2,37.0,0.5,115,162.0
307,A4,37.0,0.25,115,162.0
308,F#5,37.0,0.25,115,162.0
309,E-3,37.0,0.25,115,162.0
310,D2,37.0,0.25,115,162.0
311,B4,37.25,0.25,115,162.0
312,G5,37.25,0.25,115,162.0
313,A4,37.5,0.25,115,162.0
314,E2,37.5,0.25,115,162.0
315,F#5,37.5,0.25,115,162.0
316,B1,37.5,0.25,115,162.0
317,B4,37.75,0.25,115,162.0
318,E2,37.75,0.25,115,162.0
319,G5,37.75,0.25,115,162.0
320,B1,37.75,0.25,115,162.0
321,B4,38.0,0.5,115,162.0
322,E2,38.0,0.5,115,162.0
323,G5,38.0,0.5,115,162.0
324,B1,38.0,0.25,115,162.0
325,E-3,38.0,0.25,115,162.0
326,G4,38.5,0.5,115,162.0
327,E5,38.5,0.5,115,162.0
328,E2,38.5,0.25,115,162.0
329,B1,38.5,0.25,115,162.0
330,E2,38.75,0.25,115,162.0
331,B1,38.75,0.25,115,162.0
332,E2,39.0,0.5,115,162.0
333,G4,39.0,1.0,115,162.0
334,E5,39.0,1.0,115,162.0
335,E-3,39.0,0.25,115,162.0
336,D2,39.0,0.25,115,162.0
337,E2,39.5,0.25,115,162.0
338,B1,39.5,0.25,115,162.0
339,E2,39.75,0.25,115,162.0
340,B2,39.75,0.25,115,162.0
341,B2,40.0,0.25,115,162.0
342,F#4,40.0,0.5,115,162.0
343,D2,40.0,0.5,115,162.0
344,B4,40.0,0.5,115,162.0
345,A2,40.25,0.25,115,162.0
346,A2,40.5,0.25,115,162.0
347,G4,40.5,0.5,115,162.0
348,G2,40.5,0.5,115,162.0
349,D5,40.5,0.5,115,162.0
350,G2,40.75,0.25,115,162.0
351,G2,41.0,0.25,115,162.0
352,F#4,41.0,0.5,115,162.0
353,D2,41.0,0.5,115,162.0
354,B4,41.0,0.5,115,162.0
355,G4,41.5,0.5,115,162.0
356,E2,41.5,0.5,115,162.0
357,E5,41.5,0.5,115,162.0
358,B1,41.5,0.25,115,162.0
359,C#3,41.5,0.25,115,162.0
360,G4,42.473,473/1000,115,162.0
361,E2,42.473,473/1000,115,162.0
362,E5,42.473,473/1000,115,162.0
363,B4,42.973,103/200,115,162.0
364,G5,42.973,103/200,115,162.0
365,E2,42.973,0.25,115,162.0
366,B1,42.973,0.25,115,162.0
367,E2,43.223,0.25,115,162.0
368,B1,43.223,0.25,115,162.0
369,E2,43.473,479/1000,115,162.0
370,A4,43.473,0.25,115,162.0
371,F#5,43.473,0.25,115,162.0
372,E-3,43.473,0.25,115,162.0
373,D2,43.473,0.25,115,162.0
374,B4,43.723,0.25,115,162.0
375,G5,43.723,0.25,115,162.0
376,E2,43.958,0.25,115,162.0
377,A4,43.958,0.25,115,162.0
378,F#5,43.958,0.25,115,162.0
379,B1,43.958,0.25,115,162.0
380,B4,44.223,0.25,115,162.0
381,E2,44.223,0.25,115,162.0
382,G5,44.223,0.25,115,162.0
383,B1,44.223,0.25,115,162.0
384,D5,44.473,0.5,115,162.0
385,E2,44.473,0.5,115,162.0
386,B5,44.473,0.5,115,162.0
387,E-3,44.473,0.25,115,162.0
388,B1,44.473,0.25,115,162.0
389,B4,44.973,103/200,115,162.0
390,G5,44.973,103/200,115,162.0
391,E2,44.973,0.25,115,162.0
392,B1,44.973,0.25,115,162.0
393,E2,45.223,0.25,115,162.0
394,B1,45.223,0.25,115,162.0
395,E2,45.473,0.5,115,162.0
396,A4,45.473,0.25,115,162.0
397,F#5,45.473,0.25,115,162.0
398,E-3,45.473,0.25,115,162.0
399,D2,45.473,0.25,115,162.0
400,B4,45.723,0.25,115,162.0
401,G5,45.723,0.25,115,162.0
402,A4,45.973,0.25,115,162.0
403,E2,45.973,0.25,115,162.0
404,F#5,45.973,0.25,115,162.0
405,B1,45.973,0.25,115,162.0
406,B4,46.223,0.25,115,162.0
407,E2,46.223,0.25,115,162.0
408,G5,46.223,0.25,115,162.0
409,B1,46.223,0.25,115,162.0
410,B4,46.473,0.5,115,162.0
411,E2,46.473,0.5,115,162.0
412,G5,46.473,0.5,115,162.0
413,B1,46.473,0.25,115,162.0
414,E-3,46.473,0.25,115,162.0
415,G4,46.973,0.5,115,162.0
416,E5,46.973,0.5,115,162.0
417,E2,46.973,0.25,115,162.0
418,B1,46.973,0.25,115,162.0
419,E2,47.223,0.25,115,162.0
420,B1,47.223,0.25,115,162.0
421,E2,47.473,0.5,115,162.0
422,G4,47.473,1.0,115,162.0
423,E5,47.473,1.0,115,162.0
424,E-3,47.473,0.25,115,162.0
425,D2,47.473,0.25,115,162.0
426,E2,47.973,0.25,115,162.0
427,B1,47.973,0.25,115,162.0
428,E2,48.223,0.25,115,162.0
429,F#4,48.473,0.5,115,162.0
430,D2,48.473,0.5,115,162.0
431,B4,48.473,0.5,115,162.0
432,E-3,48.473,0.25,115,162.0
433,B1,48.473,0.25,115,162.0
434,B1,48.973,0.25,115,162.0
435,G4,48.973,0.5,115,162.0
436,G2,48.973,0.5,115,162.0
437,D5,48.973,0.5,115,162.0
438,F#4,49.473,0.5,115,162.0
439,D2,49.473,0.5,115,162.0
440,B4,49.473,0.5,115,162.0
441,E-3,49.473,0.25,115,162.0
442,D2,49.473,0.25,115,162.0
443,G4,49.973,0.5,115,162.0
444,C2,49.973,0.5,115,162.0
445,C5,49.973,0.5,115,162.0
446,B1,49.973,0.25,115,162.0
447,C#3,49.973,0.25,115,162.0
448,G4,50.946,473/1000,115,162.0
449,C2,50.946,473/1000,115,162.0
450,C5,50.946,473/1000,115,162.0
451,B4,51.446,103/200,115,162.0
452,G5,51.446,103/200,115,162.0
453,C2,51.446,0.25,115,162.0
454,B1,51.446,0.25,115,162.0
455,C2,51.696,0.25,115,162.0
456,B1,51.696,0.25,115,162.0
457,C2,51.946,479/1000,115,162.0
458,A4,51.946,0.25,115,162.0
459,F#5,51.946,0.25,115,162.0
460,E-3,51.946,0.25,115,162.0
461,D2,51.946,0.25,115,162.0
462,B4,52.196,0.25,115,162.0
463,G5,52.196,0.25,115,162.0
464,C2,52.431,0.25,115,162.0
465,A4,52.431,0.25,115,162.0
466,F#5,52.431,0.25,115,162.0
467,B1,52.431,0.25,115,162.0
468,B4,52.696,0.25,115,162.0
469,C2,52.696,0.25,115,162.0
470,G5,52.696,0.25,115,162.0
471,B1,52.696,0.25,115,162.0
472,D5,52.946,0.5,115,162.0
473,C2,52.946,0.5,115,162.0
474,B5,52.946,0.5,115,162.0
475,E-3,52.946,0.25,115,162.0
476,B1,52.946,0.25,115,162.0
477,B4,53.446,103/200,115,162.0
478,G5,53.446,103/200,115,162.0
479,C2,53.446,0.25,115,162.0
480,B1,53.446,0.25,115,162.0
481,C2,53.696,0.25,115,162.0
482,B1,53.696,0.25,115,162.0
483,C2,53.946,0.5,115,162.0
484,A4,53.946,0.25,115,162.0
485,F#5,53.946,0.25,115,162.0
486,E-3,53.946,0.25,115,162.0
487,D2,53.946,0.25,115,162.0
488,B4,54.196,0.25,115,162.0
489,G5,54.196,0.25,115,162.0
490,A4,54.446,0.25,115,162.0
491,C2,54.446,0.25,115,162.0
492,F#5,54.446,0.25,115,162.0
493,B1,54.446,0.25,115,162.0
494,B4,54.696,0.25,115,162.0
495,C2,54.696,0.25,115,162.0
496,G5,54.696,0.25,115,162.0
497,B1,54.696,0.25,115,162.0
498,B4,54.946,0.5,115,162.0
499,C2,54.946,0.5,115,162.0
500,G5,54.946,0.5,115,162.0
501,B1,54.946,0.25,115,162.0
502,E-3,54.946,0.25,115,162.0
503,G4,55.446,0.5,115,162.0
504,E5,55.446,0.5,115,162.0
505,C2,55.446,0.25,115,162.0
506,B1,55.446,0.25,115,162.0
507,C2,55.696,0.25,115,162.0
508,B1,55.696,0.25,115,162.0
509,C2,55.946,0.5,115,162.0
510,G4,55.946,1.0,115,162.0
511,E5,55.946,1.0,115,162.0
512,E-3,55.946,0.25,115,162.0
513,D2,55.946,0.25,115,162.0
514,C2,56.446,0.25,115,162.0
515,B1,56.446,0.25,115,162.0
516,C2,56.696,0.25,115,162.0
517,F#4,56.946,0.5,115,162.0
518,D2,56.946,0.5,115,162.0
519,B4,56.946,0.5,115,162.0
520,E-3,56.946,0.25,115,162.0
521,B1,56.946,0.25,115,162.0
522,B1,57.446,0.25,115,162.0
523,G4,57.446,0.5,115,162.0
524,G2,57.446,0.5,115,162.0
525,D5,57.446,0.5,115,162.0
526,F#4,57.946,0.5,115,162.0
527,D2,57.946,0.5,115,162.0
528,B4,57.946,0.5,115,162.0
529,E-3,57.946,0.25,115,162.0
530,D2,57.946,0.25,115,162.0
531,G4,58.446,0.5,115,162.0
532,E2,58.446,0.5,115,162.0
533,E5,58.446,0.5,115,162.0
534,B1,58.446,0.25,115,162.0
535,C#3,58.446,0.25,115,162.0
536,G4,59.419,473/1000,115,162.0
537,E2,59.419,473/1000,115,162.0
538,E5,59.419,473/1000,115,162.0
539,B4,59.919,103/200,115,162.0
540,G5,59.919,103/200,115,162.0
541,E2,59.919,0.25,115,162.0
542,B1,59.919,0.25,115,162.0
543,E2,60.169,0.25,115,162.0
544,B1,60.169,0.25,115,162.0
545,E2,60.419,479/1000,115,162.0
546,A4,60.419,0.25,115,162.0
547,F#5,60.419,0.25,115,162.0
548,E-3,60.419,0.25,115,162.0
549,D2,60.419,0.25,115,162.0
550,B4,60.669,0.25,115,162.0
551,G5,60.669,0.25,115,162.0
552,E2,60.904,0.25,115,162.0
553,A4,60.904,0.25,115,162.0
554,F#5,60.904,0.25,115,162.0
555,B1,60.904,0.25,115,162.0
556,B4,61.169,0.25,115,162.0
557,E2,61.169,0.25,115,162.0
558,G5,61.169,0.25,115,162.0
559,B1,61.169,0.25,115,162.0
560,D5,61.419,0.5,115,162.0
561,E2,61.419,0.5,115,162.0
562,B5,61.419,0.5,115,162.0
563,E-3,61.419,0.25,115,162.0
564,B1,61.419,0.25,115,162.0
565,B4,61.919,103/200,115,162.0
566,G5,61.919,103/200,115,162.0
567,E2,61.919,0.25,115,162.0
568,B1,61.919,0.25,115,162.0
569,E2,62.169,0.25,115,162.0
570,B1,62.169,0.25,115,162.0
571,E2,62.419,0.5,115,162.0
572,A4,62.419,0.25,115,162.0
573,F#5,62.419,0.25,115,162.0
574,E-3,62.419,0.25,115,162.0
575,D2,62.419,0.25,115,162.0
576,B4,62.669,0.25,115,162.0
577,G5,62.669,0.25,115,162.0
578,A4,62.919,0.25,115,162.0
579,E2,62.919,0.25,115,162.0
580,F#5,62.919,0.25,115,162.0
581,B1,62.919,0.25,115,162.0
582,B4,63.169,0.25,115,162.0
583,E2,63.169,0.25,115,162.0
584,G5,63.169,0.25,115,162.0
585,B1,63.169,0.25,115,162.0
586,B4,63.419,0.5,115,162.0
587,E2,63.419,0.5,115,162.0
588,G5,63.419,0.5,115,162.0
589,E2,63.419,0.25,115,162.0
590,D3,63.419,0.25,115,162.0
591,E2,63.669,0.25,115,162.0
592,G4,63.919,0.5,115,162.0
593,E5,63.919,0.5,115,162.0
594,E2,63.919,0.25,115,162.0
595,E2,63.919,0.25,115,162.0
596,E2,64.169,0.25,115,162.0
597,A2,64.169,0.25,115,162.0
598,E2,64.419,0.5,115,162.0
599,C3,64.419,0.25,115,162.0
600,G4,64.419,1.0,115,162.0
601,E5,64.419,1.0,115,162.0
602,C3,64.669,0.25,115,162.0
603,E2,64.919,0.25,115,162.0
604,C3,64.919,0.25,115,162.0
605,E2,65.169,0.25,115,162.0
606,C3,65.169,0.25,115,162.0
607,B2,65.419,0.25,115,162.0
608,F#4,65.419,0.5,115,162.0
609,D2,65.419,0.5,115,162.0
610,B4,65.419,0.5,115,162.0
611,B2,65.669,0.25,115,162.0
612,A2,65.919,0.25,115,162.0
613,G4,65.919,0.5,115,162.0
614,G2,65.919,0.5,115,162.0
615,D5,65.919,0.5,115,162.0
616,A2,66.169,0.25,115,162.0
617,G2,66.419,0.25,115,162.0
618,F#4,66.419,0.5,115,162.0
619,D2,66.419,0.5,115,162.0
620,B4,66.419,0.5,115,162.0
621,G4,66.919,0.5,115,162.0
622,E2,66.919,0.5,115,162.0
623,E5,66.919,0.5,115,162.0
624,B1,66.919,0.25,115,162.0
625,C#3,66.919,0.25,115,162.0
626,G4,67.892,473/1000,115,162.0
627,E2,67.892,473/1000,115,162.0
628,E5,67.892,473/1000,115,162.0
629,B4,68.392,103/200,115,162.0
630,G5,68.392,103/200,115,162.0
631,E2,68.392,0.25,115,162.0
632,B1,68.392,0.25,115,162.0
633,E2,68.642,0.25,115,162.0
634,B1,68.642,0.25,115,162.0
635,E2,68.892,479/1000,115,162.0
636,A4,68.892,0.25,115,162.0
637,F#5,68.892,0.25,115,162.0
638,E-3,68.892,0.25,115,162.0
639,D2,68.892,0.25,115,162.0
640,B4,69.142,0.25,115,162.0
641,G5,69.142,0.25,115,162.0
642,E2,69.377,0.25,115,162.0
643,A4,69.377,0.25,115,162.0
644,F#5,69.377,0.25,115,162.0
645,B1,69.377,0.25,115,162.0
646,B4,69.642,0.25,115,162.0
647,E2,69.642,0.25,115,162.0
648,G5,69.642,0.25,115,162.0
649,B1,69.642,0.25,115,162.0
650,D5,69.892,0.5,115,162.0
651,E2,69.892,0.5,115,162.0
652,B5,69.892,0.5,115,162.0
653,E-3,69.892,0.25,115,162.0
654,B1,69.892,0.25,115,162.0
655,B4,70.392,103/200,115,162.0
656,G5,70.392,103/200,115,162.0
657,E2,70.392,0.25,115,162.0
658,B1,70.392,0.25,115,162.0
659,E2,70.642,0.25,115,162.0
660,B1,70.642,0.25,115,162.0
661,E2,70.892,0.5,115,162.0
662,A4,70.892,0.25,115,162.0
663,F#5,70.892,0.25,115,162.0
664,E-3,70.892,0.25,115,162.0
665,D2,70.892,0.25,115,162.0
666,B4,71.142,0.25,115,162.0
667,G5,71.142,0.25,115,162.0
668,A4,71.392,0.25,115,162.0
669,E2,71.392,0.25,115,162.0
670,F#5,71.392,0.25,115,162.0
671,B1,71.392,0.25,115,162.0
672,B4,71.642,0.25,115,162.0
673,E2,71.642,0.25,115,162.0
674,G5,71.642,0.25,115,162.0
675,B1,71.642,0.25,115,162.0
676,B4,71.892,0.5,115,162.0
677,E2,71.892,0.5,115,162.0
678,G5,71.892,0.5,115,162.0
679,B1,71.892,0.25,115,162.0
680,E-3,71.892,0.25,115,162.0
681,G4,72.392,0.5,115,162.0
682,E5,72.392,0.5,115,162.0
683,E2,72.392,0.25,115,162.0
684,B1,72.392,0.25,115,162.0
685,E2,72.642,0.25,115,162.0
686,B1,72.642,0.25,115,162.0
687,E2,72.892,0.5,115,162.0
688,G4,72.892,1.0,115,162.0
689,E5,72.892,1.0,115,162.0
690,E-3,72.892,0.25,115,162.0
691,D2,72.892,0.25,115,162.0
692,E2,73.392,0.25,115,162.0
693,B1,73.392,0.25,115,162.0
694,E2,73.642,0.25,115,162.0
695,F#4,73.892,0.5,115,162.0
696,D2,73.892,0.5,115,162.0
697,B4,73.892,0.5,115,162.0
698,E-3,73.892,0.25,115,162.0
699,B1,73.892,0.25,115,162.0
700,B1,74.392,0.25,115,162.0
701,G4,74.392,0.5,115,162.0
702,G2,74.392,0.5,115,162.0
703,D5,74.392,0.5,115,162.0
704,F#4,74.892,0.5,115,162.0
705,D2,74.892,0.5,115,162.0
706,B4,74.892,0.5,115,162.0
707,E-3,74.892,0.25,115,162.0
708,D2,74.892,0.25,115,162.0
709,G4,75.392,0.5,115,162.0
710,E2,75.392,0.5,115,162.0
711,E5,75.392,0.5,115,162.0
712,B1,75.392,0.25,115,162.0
713,C#3,75.392,0.25,115,162.0
714,G4,76.365,473/1000,115,162.0
715,E2,76.365,473/1000,115,162.0
716,E5,76.365,473/1000,115,162.0
717,B4,76.865,103/200,115,162.0
718,G5,76.865,103/200,115,162.0
719,E2,76.865,0.25,115,162.0
720,B1,76.865,0.25,115,162.0
721,E2,77.115,0.25,115,162.0
722,B1,77.115,0.25,115,162.0
723,E2,77.365,479/1000,115,162.0
724,A4,77.365,0.25,115,162.0
725,F#5,77.365,0.25,115,162.0
726,E-3,77.365,0.25,115,162.0
727,D2,77.365,0.25,115,162.0
728,B4,77.615,0.25,115,162.0
729,G5,77.615,0.25,115,162.0
730,E2,77.85,0.25,115,162.0
731,A4,77.85,0.25,115,162.0
732,F#5,77.85,0.25,115,162.0
733,B1,77.85,0.25,115,162.0
734,B4,78.115,0.25,115,162.0
735,E2,78.115,0.25,115,162.0
736,G5,78.115,0.25,115,162.0
737,B1,78.115,0.25,115,162.0
738,D5,78.365,0.5,115,162.0
739,E2,78.365,0.5,115,162.0
740,B5,78.365,0.5,115,162.0
741,E-3,78.365,0.25,115,162.0
742,B1,78.365,0.25,115,162.0
743,B4,78.865,103/200,115,162.0
744,G5,78.865,103/200,115,162.0
745,E2,78.865,0.25,115,162.0
746,B1,78.865,0.25,115,162.0
747,E2,79.115,0.25,115,162.0
748,B1,79.115,0.25,115,162.0
749,E2,79.365,0.5,115,162.0
750,A4,79.365,0.25,115,162.0
751,F#5,79.365,0.25,115,162.0
752,E-3,79.365,0.25,115,162.0
753,D2,79.365,0.25,115,162.0
754,B4,79.615,0.25,115,162.0
755,G5,79.615,0.25,115,162.0
756,A4,79.865,0.25,115,162.0
757,E2,79.865,0.25,115,162.0
758,F#5,79.865,0.25,115,162.0
759,B1,79.865,0.25,115,162.0
760,B4,80.115,0.25,115,162.0
761,E2,80.115,0.25,115,162.0
762,G5,80.115,0.25,115,162.0
763,B1,80.115,0.25,115,162.0
764,B4,80.365,0.5,115,162.0
765,E2,80.365,0.5,115,162.0
766,G5,80.365,0.5,115,162.0
767,B1,80.365,0.25,115,162.0
768,E-3,80.365,0.25,115,162.0
769,G4,80.865,0.5,115,162.0
770,E5,80.865,0.5,115,162.0
771,E2,80.865,0.25,115,162.0
772,B1,80.865,0.25,115,162.0
773,E2,81.115,0.25,115,162.0
774,B1,81.115,0.25,115,162.0
775,E2,81.365,0.5,115,162.0
776,G4,81.365,1.0,115,162.0
777,E5,81.365,1.0,115,162.0
778,E-3,81.365,0.25,115,162.0
779,D2,81.365,0.25,115,162.0
780,E2,81.865,0.25,115,162.0
781,B1,81.865,0.25,115,162.0
782,E2,82.115,0.25,115,162.0
783,F#4,82.365,0.5,115,162.0
784,D2,82.365,0.5,115,162.0
785,B4,82.365,0.5,115,162.0
786,E-3,82.365,0.25,115,162.0
787,B1,82.365,0.25,115,162.0
788,B1,82.865,0.25,115,162.0
789,G4,82.865,0.5,115,162.0
790,G2,82.865,0.5,115,162.0
791,D5,82.865,0.5,115,162.0
792,F#4,83.365,0.5,115,162.0
793,D2,83.365,0.5,115,162.0
794,B4,83.365,0.5,115,162.0
795,E-3,83.365,0.25,115,162.0
796,D2,83.365,0.25,115,162.0
797,G4,83.865,0.5,115,162.0
798,C2,83.865,0.5,115,162.0
799,C5,83.865,0.5,115,162.0
800,B1,83.865,0.25,115,162.0
801,C#3,83.865,0.25,115,162.0
802,G4,84.838,473/1000,115,162.0
803,C2,84.838,473/1000,115,162.0
804,C5,84.838,473/1000,115,162.0
805,B4,85.338,103/200,115,162.0
806,G5,85.338,103/200,115,162.0
807,C2,85.338,0.25,115,162.0
808,B1,85.338,0.25,115,162.0
809,C2,85.588,0.25,115,162.0
810,B1,85.588,0.25,115,162.0
811,C2,85.838,479/1000,115,162.0
812,A4,85.838,0.25,115,162.0
813,F#5,85.838,0.25,115,162.0
814,E-3,85.838,0.25,115,162.0
815,D2,85.838,0.25,115,162.0
816,B4,86.088,0.25,115,162.0
817,G5,86.088,0.25,115,162.0
818,C2,86.323,0.25,115,162.0
819,A4,86.323,0.25,115,162.0
820,F#5,86.323,0.25,115,162.0
821,B1,86.323,0.25,115,162.0
822,B4,86.588,0.25,115,162.0
823,C2,86.588,0.25,115,162.0
824,G5,86.588,0.25,115,162.0
825,B1,86.588,0.25,115,162.0
826,D5,86.838,0.5,115,162.0
827,C2,86.838,0.5,115,162.0
828,B5,86.838,0.5,115,162.0
829,E-3,86.838,0.25,115,162.0
830,B1,86.838,0.25,115,162.0
831,B4,87.338,103/200,115,162.0
832,G5,87.338,103/200,115,162.0
833,C2,87.338,0.25,115,162.0
834,B1,87.338,0.25,115,162.0
835,C2,87.588,0.25,115,162.0
836,B1,87.588,0.25,115,162.0
837,C2,87.838,0.5,115,162.0
838,A4,87.838,0.25,115,162.0
839,F#5,87.838,0.25,115,162.0
840,E-3,87.838,0.25,115,162.0
841,D2,87.838,0.25,115,162.0
842,B4,88.088,0.25,115,162.0
843,G5,88.088,0.25,115,162.0
844,A4,88.338,0.25,115,162.0
845,C2,88.338,0.25,115,162.0
846,F#5,88.338,0.25,115,162.0
847,B1,88.338,0.25,115,162.0
848,B4,88.588,0.25,115,162.0
849,C2,88.588,0.25,115,162.0
850,G5,88.588,0.25,115,162.0
851,B1,88.588,0.25,115,162.0
852,B4,88.838,0.5,115,162.0
853,C2,88.838,0.5,115,162.0
854,G5,88.838,0.5,115,162.0
855,B1,88.838,0.25,115,162.0
856,E-3,88.838,0.25,115,162.0
857,G4,89.338,0.5,115,162.0
858,E5,89.338,0.5,115,162.0
859,C2,89.338,0.25,115,162.0
860,B1,89.338,0.25,115,162.0
861,C2,89.588,0.25,115,162.0
862,B1,89.588,0.25,115,162.0
863,C2,89.838,0.5,115,162.0
864,G4,89.838,1.0,115,162.0
865,E5,89.838,1.0,115,162.0
866,E-3,89.838,0.25,115,162.0
867,D2,89.838,0.25,115,162.0
868,C2,90.338,0.25,115,162.0
869,B1,90.338,0.25,115,162.0
870,C2,90.588,0.25,115,162.0
871,F#4,90.838,0.5,115,162.0
872,D2,90.838,0.5,115,162.0
873,B4,90.838,0.5,115,162.0
874,E-3,90.838,0.25,115,162.0
875,B1,90.838,0.25,115,162.0
876,B1,91.338,0.25,115,162.0
877,G4,91.338,0.5,115,162.0
878,G2,91.338,0.5,115,162.0
879,D5,91.338,0.5,115,162.0
880,F#4,91.838,0.5,115,162.0
881,D2,91.838,0.5,115,162.0
882,B4,91.838,0.5,115,162.0
883,E-3,91.838,0.25,115,162.0
884,D2,91.838,0.25,115,162.0
885,G4,92.338,0.5,115,162.0
886,E2,92.338,0.5,115,162.0
887,E5,92.338,0.5,115,162.0
888,B1,92.338,0.25,115,162.0
889,C#3,92.338,0.25,115,162.0
890,G4,93.31,473/1000,115,162.0
891,E2,93.31,473/1000,115,162.0
892,E5,93.31,473/1000,115,162.0
893,B4,93.81,103/200,115,162.0
894,G5,93.81,103/200,115,162.0
895,E2,93.81,0.25,115,162.0
896,B1,93.81,0.25,115,162.0
897,E2,94.06,0.25,115,162.0
898,B1,94.06,0.25,115,162.0
899,E2,94.31,479/1000,115,162.0
900,A4,94.31,0.25,115,162.0
901,F#5,94.31,0.25,115,162.0
902,E-3,94.31,0.25,115,162.0
903,D2,94.31,0.25,115,162.0
904,B4,94.56,0.25,115,162.0
905,G5,94.56,0.25,115,162.0
906,E2,94.796,0.25,115,162.0
907,A4,94.796,0.25,115,162.0
908,F#5,94.796,0.25,115,162.0
909,B1,94.796,0.25,115,162.0
910,B4,95.06,0.25,115,162.0
911,E2,95.06,0.25,115,162.0
912,G5,95.06,0.25,115,162.0
913,B1,95.06,0.25,115,162.0
914,D5,95.31,0.5,115,162.0
915,E2,95.31,0.5,115,162.0
916,B5,95.31,0.5,115,162.0
917,E-3,95.31,0.25,115,162.0
918,B1,95.31,0.25,115,162.0
919,B4,95.81,103/200,115,162.0
920,G5,95.81,103/200,115,162.0
921,E2,95.81,0.25,115,162.0
922,B1,95.81,0.25,115,162.0
923,E2,96.06,0.25,115,162.0
924,B1,96.06,0.25,115,162.0
925,E2,96.31,0.5,115,162.0
926,A4,96.31,0.25,115,162.0
927,F#5,96.31,0.25,115,162.0
928,E-3,96.31,0.25,115,162.0
929,D2,96.31,0.25,115,162.0
930,B4,96.56,0.25,115,162.0
931,G5,96.56,0.25,115,162.0
932,A4,96.81,0.25,115,162.0
933,E2,96.81,0.25,115,162.0
934,F#5,96.81,0.25,115,162.0
935,B1,96.81,0.25,115,162.0
936,B4,97.06,0.25,115,162.0
937,E2,97.06,0.25,115,162.0
938,G5,97.06,0.25,115,162.0
939,B1,97.06,0.25,115,162.0
940,D2,97.31,0.25,115,162.0
941,B4,97.31,0.5,115,162.0
942,E2,97.31,0.5,115,162.0
943,G5,97.31,0.5,115,162.0
944,G4,97.81,0.5,115,162.0
945,E5,97.81,0.5,115,162.0
946,E2,97.81,0.25,115,162.0
947,D2,97.81,0.25,115,162.0
948,E2,98.06,0.25,115,162.0
949,D2,98.06,0.25,115,162.0
950,E2,98.31,0.5,115,162.0
951,D2,98.31,0.25,115,162.0
952,G4,98.31,1.0,115,162.0
953,E5,98.31,1.0,115,162.0
954,E2,98.81,0.25,115,162.0
955,B2,98.81,0.25,115,162.0
956,E2,99.06,0.25,115,162.0
957,A2,99.31,0.25,115,162.0
958,D3,99.31,0.5,115,162.0
959,A3,99.31,0.5,115,162.0
960,D2,99.31,0.5,115,162.0
961,A3,99.31,0.5,115,162.0
962,D3,99.31,0.5,115,162.0
963,A2,99.56,0.25,115,162.0
964,A2,99.81,0.25,115,162.0
965,A3,99.81,0.5,115,162.0
966,G2,99.81,0.5,115,162.0
967,A3,99.81,0.5,115,162.0
968,D3,100.06,0.25,115,162.0
969,D3,100.06,0.25,115,162.0
970,A2,100.31,0.25,115,162.0
971,D3,100.31,0.5,115,162.0
972,A3,100.31,0.5,115,162.0
973,D2,100.31,0.5,115,162.0
974,D3,100.31,0.5,115,162.0
975,A3,100.31,0.5,115,162.0
976,E3,100.81,0.5,115,162.0
977,B3,100.81,0.5,115,162.0
978,E2,100.81,0.5,115,162.0
979,E3,100.81,0.5,115,162.0
980,B3,100.81,0.5,115,162.0
981,B1,100.81,0.25,115,162.0
982,D2,100.81,0.25,115,162.0
983,B5,101.546,0.5,115,162.0
984,B5,102.046,0.5,115,162.0
985,B5,102.546,0.5,115,162.0
986,B5,103.046,1.0,115,162.0
987,A5,104.046,0.5,115,162.0
988,G5,104.546,0.5,115,162.0
989,A5,105.046,53/200,115,162.0
990,A5,105.31,47/200,115,162.0
991,G5,105.546,1027/1000,115,162.0
992,B5,106.56,297/200,115,162.0
993,D2,107.225,0.062,115,162.0
994,D2,107.31,0.25,115,162.0
995,A3,107.31,0.5,115,162.0
996,D3,107.31,0.5,115,162.0
997,D2,107.31,0.5,115,162.0
998,D3,107.31,0.5,115,162.0
999,A3,107.31,0.5,115,162.0
1000,B2,107.81,0.25,115,162.0
1001,A3,107.81,0.5,115,162.0
1002,G2,107.81,0.5,115,162.0
1003,A3,107.81,0.5,115,162.0
1004,D3,108.06,0.25,115,162.0
1005,B2,108.06,0.25,115,162.0
1006,D3,108.06,0.25,115,162.0
1007,A2,108.31,0.25,115,162.0
1008,D3,108.31,0.5,115,162.0
1009,A3,108.31,0.5,115,162.0
1010,D2,108.31,0.5,115,162.0
1011,D3,108.31,0.5,115,162.0
1012,A3,108.31,0.5,115,162.0
1013,E3,108.81,0.5,115,162.0
1014,B3,108.81,0.5,115,162.0
1015,E2,108.81,0.5,115,162.0
1016,E3,108.81,0.5,115,162.0
1017,B3,108.81,0.5,115,162.0
1018,C2,108.81,0.25,115,162.0
1019,D2,108.81,0.25,115,162.0
1020,B5,109.546,0.5,115,162.0
1021,B5,110.046,0.5,115,162.0
1022,B5,110.546,0.5,115,162.0
1023,B5,111.046,1.0,115,162.0
1024,A5,112.046,0.5,115,162.0
1025,G5,112.546,0.5,115,162.0
1026,A5,113.046,53/200,115,162.0
1027,A5,113.31,47/200,115,162.0
1028,B5,113.546,271/500,115,162.0
1029,A5,114.06,271/500,115,162.0
1030,G5,114.56,1.0,115,162.0
1031,D2,115.233,0.062,115,162.0
1032,D2,115.31,0.25,115,162.0
1033,A3,115.31,0.5,115,162.0
1034,D3,115.31,0.5,115,162.0
1035,D2,115.31,0.5,115,162.0
1036,A3,115.31,0.5,115,162.0
1037,D3,115.31,0.5,115,162.0
1038,A2,115.81,0.25,115,162.0
1039,A3,115.81,0.5,115,162.0
1040,G2,115.81,0.5,115,162.0
1041,A3,115.81,0.5,115,162.0
1042,D3,116.06,0.25,115,162.0
1043,D3,116.06,0.25,115,162.0
1044,A2,116.31,0.25,115,162.0
1045,D3,116.31,0.5,115,162.0
1046,A3,116.31,0.5,115,162.0
1047,D2,116.31,0.5,115,162.0
1048,D3,116.31,0.5,115,162.0
1049,A3,116.31,0.5,115,162.0
1050,G2,116.81,0.25,115,162.0
1051,G3,116.81,0.5,115,162.0
1052,C3,116.81,0.5,115,162.0
1053,C2,116.81,0.5,115,162.0
1054,G3,116.81,0.5,115,162.0
1055,C3,116.81,0.5,115,162.0
1056,G3,117.31,3/200,115,162.0
1057,C3,117.31,3/200,115,162.0
1058,C2,117.31,3/200,115,162.0
1059,G3,117.31,3/200,115,162.0
1060,C3,117.31,3/200,115,162.0
1061,B5,117.546,0.5,115,162.0
1062,B5,118.046,0.5,115,162.0
1063,B5,118.546,0.5,115,162.0
1064,B5,119.046,1.0,115,162.0
1065,A5,120.046,0.5,115,162.0
1066,G5,120.546,0.5,115,162.0
1067,A5,121.046,53/200,115,162.0
1068,A5,121.31,47/200,115,162.0
1069,G5,121.546,271/500,115,162.0
1070,B5,122.06,297/200,115,162.0
1071,D2,123.225,0.062,115,162.0
1072,D2,123.31,0.25,115,162.0
1073,A3,123.31,0.5,115,162.0
1074,D3,123.31,0.5,115,162.0
1075,D2,123.31,0.5,115,162.0
1076,A3,123.31,0.5,115,162.0
1077,D3,123.31,0.5,115,162.0
1078,B2,123.81,0.25,115,162.0
1079,A3,123.81,0.5,115,162.0
1080,G2,123.81,0.5,115,162.0
1081,A3,123.81,0.5,115,162.0
1082,D3,124.06,0.25,115,162.0
1083,B2,124.06,0.25,115,162.0
1084,D3,124.06,0.25,115,162.0
1085,A2,124.31,0.25,115,162.0
1086,D3,124.31,0.5,115,162.0
1087,A3,124.31,0.5,115,162.0
1088,D2,124.31,0.5,115,162.0
1089,D3,124.31,0.5,115,162.0
1090,A3,124.31,0.5,115,162.0
1091,E3,124.81,0.5,115,162.0
1092,B3,124.81,0.5,115,162.0
1093,E2,124.81,0.5,115,162.0
1094,E3,124.81,0.5,115,162.0
1095,B3,124.81,0.5,115,162.0
1096,C2,124.81,0.25,115,162.0
1097,C#3,124.81,0.25,115,162.0
1098,B5,125.546,0.5,115,162.0
1099,B5,126.046,0.5,115,162.0
1100,B5,126.546,0.5,115,162.0
1101,B5,127.046,1.0,115,162.0
1102,A5,128.046,0.5,115,162.0
1103,G5,128.546,0.5,115,162.0
1104,A5,129.046,53/200,115,162.0
1105,C3,129.31,0.25,115,162.0
1106,A5,129.31,47/200,115,162.0
1107,B5,129.546,271/500,115,162.0
1108,C3,129.56,0.25,115,162.0
1109,C3,129.81,0.25,115,162.0
1110,C3,130.06,0.25,115,162.0
1111,A5,130.06,271/500,115,162.0
1112,B2,130.31,0.25,115,162.0
1113,B2,130.56,0.25,115,162.0
1114,G5,130.56,1.0,115,162.0
1115,B2,130.81,0.25,115,162.0
1116,B2,131.06,0.25,115,162.0
1117,A2,131.31,0.25,115,162.0
1118,A3,131.31,0.5,115,162.0
1119,D3,131.31,0.5,115,162.0
1120,D2,131.31,0.5,115,162.0
1121,A3,131.31,0.5,115,162.0
1122,D3,131.31,0.5,115,162.0
1123,A2,131.81,0.25,115,162.0
1124,A3,131.81,0.5,115,162.0
1125,G2,131.81,0.5,115,162.0
1126,A3,131.81,0.5,115,162.0
1127,D3,132.06,0.25,115,162.0
1128,D3,132.06,0.25,115,162.0
1129,G2,132.31,0.25,115,162.0
1130,D3,132.31,0.5,115,162.0
1131,A3,132.31,0.5,115,162.0
1132,D2,132.31,0.5,115,162.0
1133,D3,132.31,0.5,115,162.0
1134,A3,132.31,0.5,115,162.0
1135,B3,132.81,0.5,115,162.0
1136,E3,132.81,0.5,115,162.0
1137,E2,132.81,0.5,115,162.0
1138,B3,132.81,0.5,115,162.0
1139,E3,132.81,0.5,115,162.0
1140,C#3,132.81,0.25,115,162.0
1141,B1,132.81,0.25,115,162.0
1142,B3,133.31,0.5,115,162.0
1143,E3,133.31,0.5,115,162.0
1144,E2,133.31,0.5,115,162.0
1145,B3,133.31,0.5,115,162.0
1146,E3,133.31,0.5,115,162.0
1147,B5,133.796,0.5,115,162.0
1148,E3,133.81,0.188,115,162.0
1149,B3,133.81,0.188,115,162.0
1150,E2,133.81,0.188,115,162.0
1151,B1,133.81,0.188,115,162.0
1152,E3,133.81,0.188,115,162.0
1153,B3,133.81,0.188,115,162.0
1154,E3,134.06,0.188,115,162.0
1155,B3,134.06,0.188,115,162.0
1156,E2,134.06,0.188,115,162.0
1157,B1,134.06,0.188,115,162.0
1158,E3,134.06,0.188,115,162.0
1159,B3,134.06,0.188,115,162.0
1160,B5,134.296,479/1000,115,162.0
1161,E2,134.296,479/1000,115,162.0
1162,E3,134.31,0.375,115,162.0
1163,B3,134.31,0.375,115,162.0
1164,E3,134.31,0.375,115,162.0
1165,B3,134.31,0.375,115,162.0
1166,E-3,134.31,0.25,115,162.0
1167,D2,134.31,0.25,115,162.0
1168,B5,134.796,0.5,115,162.0
1169,E2,134.796,0.188,115,162.0
1170,B3,134.796,0.188,115,162.0
1171,E3,134.796,0.188,115,162.0
1172,B3,134.796,0.188,115,162.0
1173,E3,134.796,0.188,115,162.0
1174,B1,134.81,0.125,115,162.0
1175,E3,135.06,0.188,115,162.0
1176,B3,135.06,0.188,115,162.0
1177,E2,135.06,0.188,115,162.0
1178,B1,135.06,0.188,115,162.0
1179,E3,135.06,0.188,115,162.0
1180,B3,135.06,0.188,115,162.0
1181,B5,135.296,1.0,115,162.0
1182,E2,135.31,0.5,115,162.0
1183,E3,135.31,0.375,115,162.0
1184,B3,135.31,0.375,115,162.0
1185,E3,135.31,0.375,115,162.0
1186,B3,135.31,0.375,115,162.0
1187,E-3,135.31,0.25,115,162.0
1188,B1,135.31,0.25,115,162.0
1189,B3,135.81,0.188,115,162.0
1190,E3,135.81,0.188,115,162.0
1191,E2,135.81,0.188,115,162.0
1192,B1,135.81,0.188,115,162.0
1193,B3,135.81,0.188,115,162.0
1194,E3,135.81,0.188,115,162.0
1195,E3,136.06,0.188,115,162.0
1196,B3,136.06,0.188,115,162.0
1197,E2,136.06,0.188,115,162.0
1198,B1,136.06,0.188,115,162.0
1199,E3,136.06,0.188,115,162.0
1200,B3,136.06,0.188,115,162.0
1201,G5,136.296,0.5,115,162.0
1202,E2,136.296,0.5,115,162.0
1203,E3,136.31,0.375,115,162.0
1204,B3,136.31,0.375,115,162.0
1205,E3,136.31,0.375,115,162.0
1206,B3,136.31,0.375,115,162.0
1207,E-3,136.31,0.25,115,162.0
1208,D2,136.31,0.25,115,162.0
1209,A5,136.796,103/200,115,162.0
1210,B3,136.81,0.188,115,162.0
1211,E3,136.81,0.188,115,162.0
1212,E2,136.81,0.188,115,162.0
1213,B1,136.81,0.188,115,162.0
1214,B3,136.81,0.188,115,162.0
1215,E3,136.81,0.188,115,162.0
1216,E3,137.06,0.188,115,162.0
1217,B3,137.06,0.188,115,162.0
1218,E2,137.06,0.188,115,162.0
1219,B1,137.06,0.188,115,162.0
1220,E3,137.06,0.188,115,162.0
1221,B3,137.06,0.188,115,162.0
1222,E2,137.31,0.5,115,162.0
1223,A5,137.31,97/200,115,162.0
1224,E3,137.31,0.375,115,162.0
1225,B3,137.31,0.375,115,162.0
1226,E3,137.31,0.375,115,162.0
1227,B3,137.31,0.375,115,162.0
1228,E-3,137.31,0.25,115,162.0
1229,B1,137.31,0.25,115,162.0
1230,G5,137.796,0.5,115,162.0
1231,B3,137.81,0.188,115,162.0
1232,E3,137.81,0.188,115,162.0
1233,E2,137.81,0.188,115,162.0
1234,B1,137.81,0.188,115,162.0
1235,B3,137.81,0.188,115,162.0
1236,E3,137.81,0.188,115,162.0
1237,E3,138.06,0.188,115,162.0
1238,B3,138.06,0.188,115,162.0
1239,E2,138.06,0.188,115,162.0
1240,B1,138.06,0.188,115,162.0
1241,E3,138.06,0.188,115,162.0
1242,B3,138.06,0.188,115,162.0
1243,B5,138.296,2.0,115,162.0
1244,E2,138.31,0.5,115,162.0
1245,E3,138.31,0.375,115,162.0
1246,B3,138.31,0.375,115,162.0
1247,E3,138.31,0.375,115,162.0
1248,B3,138.31,0.375,115,162.0
1249,D2,138.31,0.25,115,162.0
1250,E-3,138.31,0.25,115,162.0
1251,B3,138.81,0.188,115,162.0
1252,E3,138.81,0.188,115,162.0
1253,E2,138.81,0.188,115,162.0
1254,B1,138.81,0.188,115,162.0
1255,B3,138.81,0.188,115,162.0
1256,E3,138.81,0.188,115,162.0
1257,E3,139.06,0.188,115,162.0
1258,B3,139.06,0.188,115,162.0
1259,E2,139.06,0.188,115,162.0
1260,B1,139.06,0.188,115,162.0
1261,E3,139.06,0.188,115,162.0
1262,B3,139.06,0.188,115,162.0
1263,D3,139.31,0.5,115,162.0
1264,A3,139.31,0.5,115,162.0
1265,D2,139.31,0.5,115,162.0
1266,D3,139.31,0.5,115,162.0
1267,A3,139.31,0.5,115,162.0
1268,E-3,139.31,0.25,115,162.0
1269,B1,139.31,0.25,115,162.0
1270,A3,139.81,0.5,115,162.0
1271,G2,139.81,0.5,115,162.0
1272,A3,139.81,0.5,115,162.0
1273,D3,140.06,0.25,115,162.0
1274,D3,140.06,0.25,115,162.0
1275,D3,140.31,0.5,115,162.0
1276,A3,140.31,0.5,115,162.0
1277,D2,140.31,0.5,115,162.0
1278,D3,140.31,0.5,115,162.0
1279,A3,140.31,0.5,115,162.0
1280,E-3,140.31,0.25,115,162.0
1281,D2,140.31,0.25,115,162.0
1282,B3,140.81,0.5,115,162.0
1283,E3,140.81,0.5,115,162.0
1284,E2,140.81,0.5,115,162.0
1285,B3,140.81,0.5,115,162.0
1286,E3,140.81,0.5,115,162.0
1287,C#3,140.81,0.25,115,162.0
1288,B1,140.81,0.25,115,162.0
1289,B3,141.31,0.5,115,162.0
1290,E3,141.31,0.5,115,162.0
1291,E2,141.31,0.5,115,162.0
1292,B3,141.31,0.5,115,162.0
1293,E3,141.31,0.5,115,162.0
1294,B5,141.796,0.5,115,162.0
1295,E3,141.81,0.188,115,162.0
1296,B3,141.81,0.188,115,162.0
1297,E2,141.81,0.188,115,162.0
1298,B1,141.81,0.188,115,162.0
1299,E3,141.81,0.188,115,162.0
1300,B3,141.81,0.188,115,162.0
1301,E3,142.06,0.188,115,162.0
1302,B3,142.06,0.188,115,162.0
1303,E2,142.06,0.188,115,162.0
1304,B1,142.06,0.188,115,162.0
1305,E3,142.06,0.188,115,162.0
1306,B3,142.06,0.188,115,162.0
1307,B5,142.296,479/1000,115,162.0
1308,E2,142.296,479/1000,115,162.0
1309,E3,142.31,0.375,115,162.0
1310,B3,142.31,0.375,115,162.0
1311,E3,142.31,0.375,115,162.0
1312,B3,142.31,0.375,115,162.0
1313,D2,142.31,0.25,115,162.0
1314,E-3,142.31,0.25,115,162.0
1315,B5,142.796,0.5,115,162.0
1316,E2,142.796,0.188,115,162.0
1317,B3,142.796,0.188,115,162.0
1318,E3,142.796,0.188,115,162.0
1319,B3,142.796,0.188,115,162.0
1320,E3,142.796,0.188,115,162.0
1321,B1,142.81,0.125,115,162.0
1322,E3,143.06,0.188,115,162.0
1323,B3,143.06,0.188,115,162.0
1324,E2,143.06,0.188,115,162.0
1325,B1,143.06,0.188,115,162.0
1326,E3,143.06,0.188,115,162.0
1327,B3,143.06,0.188,115,162.0
1328,B5,143.296,0.5,115,162.0
1329,E2,143.296,0.5,115,162.0
1330,E3,143.31,0.375,115,162.0
1331,B3,143.31,0.375,115,162.0
1332,E3,143.31,0.375,115,162.0
1333,B3,143.31,0.375,115,162.0
1334,E-3,143.31,0.25,115,162.0
1335,B1,143.31,0.25,115,162.0
1336,B5,143.796,0.5,115,162.0
1337,B3,143.81,0.188,115,162.0
1338,E3,143.81,0.188,115,162.0
1339,E2,143.81,0.188,115,162.0
1340,B1,143.81,0.188,115,162.0
1341,B3,143.81,0.188,115,162.0
1342,E3,143.81,0.188,115,162.0
1343,E3,144.06,0.188,115,162.0
1344,B3,144.06,0.188,115,162.0
1345,E2,144.06,0.188,115,162.0
1346,B1,144.06,0.188,115,162.0
1347,E3,144.06,0.188,115,162.0
1348,B3,144.06,0.188,115,162.0
1349,A5,144.296,0.5,115,162.0
1350,E2,144.296,0.5,115,162.0
1351,E3,144.31,0.375,115,162.0
1352,B3,144.31,0.375,115,162.0
1353,E3,144.31,0.375,115,162.0
1354,B3,144.31,0.375,115,162.0
1355,E-3,144.31,0.25,115,162.0
1356,D2,144.31,0.25,115,162.0
1357,G5,144.796,0.5,115,162.0
1358,B3,144.81,0.188,115,162.0
1359,E3,144.81,0.188,115,162.0
1360,E2,144.81,0.188,115,162.0
1361,B1,144.81,0.188,115,162.0
1362,B3,144.81,0.188,115,162.0
1363,E3,144.81,0.188,115,162.0
1364,E3,145.06,0.188,115,162.0
1365,B3,145.06,0.188,115,162.0
1366,E2,145.06,0.188,115,162.0
1367,B1,145.06,0.188,115,162.0
1368,E3,145.06,0.188,115,162.0
1369,B3,145.06,0.188,115,162.0
1370,A5,145.296,3/200,115,162.0
1371,E2,145.296,3/200,115,162.0
1372,E3,145.31,0.375,115,162.0
1373,B3,145.31,0.375,115,162.0
1374,E3,145.31,0.375,115,162.0
1375,B3,145.31,0.375,115,162.0
1376,B1,145.31,0.25,115,162.0
1377,E-3,145.31,0.25,115,162.0
1378,A5,145.31,97/200,115,162.0
1379,E2,145.31,97/200,115,162.0
1380,B5,145.796,0.5,115,162.0
1381,B3,145.81,0.188,115,162.0
1382,E3,145.81,0.188,115,162.0
1383,E2,145.81,0.188,115,162.0
1384,B1,145.81,0.188,115,162.0
1385,B3,145.81,0.188,115,162.0
1386,E3,145.81,0.188,115,162.0
1387,E3,146.06,0.188,115,162.0
1388,B3,146.06,0.188,115,162.0
1389,E2,146.06,0.188,115,162.0
1390,B1,146.06,0.188,115,162.0
1391,E3,146.06,0.188,115,162.0
1392,B3,146.06,0.188,115,162.0
1393,A5,146.296,0.5,115,162.0
1394,E2,146.296,0.5,115,162.0
1395,E3,146.31,0.375,115,162.0
1396,B3,146.31,0.375,115,162.0
1397,E3,146.31,0.375,115,162.0
1398,B3,146.31,0.375,115,162.0
1399,D2,146.31,0.25,115,162.0
1400,E-3,146.31,0.25,115,162.0
1401,G5,146.796,1.0,115,162.0
1402,B3,146.81,0.188,115,162.0
1403,E3,146.81,0.188,115,162.0
1404,E2,146.81,0.188,115,162.0
1405,B1,146.81,0.188,115,162.0
1406,B3,146.81,0.188,115,162.0
1407,E3,146.81,0.188,115,162.0
1408,E3,147.06,0.188,115,162.0
1409,B3,147.06,0.188,115,162.0
1410,E2,147.06,0.188,115,162.0
1411,B1,147.06,0.188,115,162.0
1412,E3,147.06,0.188,115,162.0
1413,B3,147.06,0.188,115,162.0
1414,D3,147.31,0.5,115,162.0
1415,A3,147.31,0.5,115,162.0
1416,D2,147.31,0.5,115,162.0
1417,D3,147.31,0.5,115,162.0
1418,A3,147.31,0.5,115,162.0
1419,E-3,147.31,0.25,115,162.0
1420,B1,147.31,0.25,115,162.0
1421,A3,147.81,0.5,115,162.0
1422,G2,147.81,0.5,115,162.0
1423,A3,147.81,0.5,115,162.0
1424,D3,148.06,0.25,115,162.0
1425,D3,148.06,0.25,115,162.0
1426,D3,148.31,0.5,115,162.0
1427,A3,148.31,0.5,115,162.0
1428,D2,148.31,0.5,115,162.0
1429,D3,148.31,0.5,115,162.0
1430,A3,148.31,0.5,115,162.0
1431,E-3,148.31,0.25,115,162.0
1432,D2,148.31,0.25,115,162.0
1433,C3,148.81,0.5,115,162.0
1434,G3,148.81,0.5,115,162.0
1435,C2,148.81,0.5,115,162.0
1436,C3,148.81,0.5,115,162.0
1437,G3,148.81,0.5,115,162.0
1438,B1,148.81,0.25,115,162.0
1439,C#3,148.81,0.25,115,162.0
1440,C3,149.31,0.5,115,162.0
1441,G3,149.31,0.5,115,162.0
1442,C2,149.31,0.5,115,162.0
1443,C3,149.31,0.5,115,162.0
1444,G3,149.31,0.5,115,162.0
1445,B5,149.804,0.5,115,162.0
1446,C3,149.81,0.188,115,162.0
1447,G3,149.81,0.188,115,162.0
1448,C2,149.81,0.188,115,162.0
1449,B1,149.81,0.188,115,162.0
1450,C3,149.81,0.188,115,162.0
1451,G3,149.81,0.188,115,162.0
1452,C3,150.06,0.188,115,162.0
1453,G3,150.06,0.188,115,162.0
1454,C2,150.06,0.188,115,162.0
1455,B1,150.06,0.188,115,162.0
1456,C3,150.06,0.188,115,162.0
1457,G3,150.06,0.188,115,162.0
1458,B5,150.304,479/1000,115,162.0
1459,C2,150.304,479/1000,115,162.0
1460,C3,150.31,0.375,115,162.0
1461,G3,150.31,0.375,115,162.0
1462,C3,150.31,0.375,115,162.0
1463,G3,150.31,0.375,115,162.0
1464,D2,150.31,0.25,115,162.0
1465,E-3,150.31,0.25,115,162.0
1466,C2,150.796,0.188,115,162.0
1467,G3,150.796,0.188,115,162.0
1468,C3,150.796,0.188,115,162.0
1469,G3,150.796,0.188,115,162.0
1470,C3,150.796,0.188,115,162.0
1471,B5,150.804,0.5,115,162.0
1472,B1,150.81,0.125,115,162.0
1473,C3,151.06,0.188,115,162.0
1474,G3,151.06,0.188,115,162.0
1475,C2,151.06,0.188,115,162.0
1476,B1,151.06,0.188,115,162.0
1477,C3,151.06,0.188,115,162.0
1478,G3,151.06,0.188,115,162.0
1479,B5,151.304,0.5,115,162.0
1480,C2,151.304,0.5,115,162.0
1481,C3,151.31,0.375,115,162.0
1482,G3,151.31,0.375,115,162.0
1483,C3,151.31,0.375,115,162.0
1484,G3,151.31,0.375,115,162.0
1485,E-3,151.31,0.25,115,162.0
1486,B1,151.31,0.25,115,162.0
1487,A5,151.804,0.5,115,162.0
1488,G3,151.81,0.188,115,162.0
1489,C3,151.81,0.188,115,162.0
1490,C2,151.81,0.188,115,162.0
1491,B1,151.81,0.188,115,162.0
1492,G3,151.81,0.188,115,162.0
1493,C3,151.81,0.188,115,162.0
1494,C3,152.06,0.188,115,162.0
1495,G3,152.06,0.188,115,162.0
1496,C2,152.06,0.188,115,162.0
1497,B1,152.06,0.188,115,162.0
1498,C3,152.06,0.188,115,162.0
1499,G3,152.06,0.188,115,162.0
1500,A5,152.304,0.5,115,162.0
1501,C2,152.304,0.5,115,162.0
1502,C3,152.31,0.375,115,162.0
1503,G3,152.31,0.375,115,162.0
1504,C3,152.31,0.375,115,162.0
1505,G3,152.31,0.375,115,162.0
1506,E-3,152.31,0.25,115,162.0
1507,D2,152.31,0.25,115,162.0
1508,G5,152.81,0.5,115,162.0
1509,G3,152.81,0.188,115,162.0
1510,C3,152.81,0.188,115,162.0
1511,C2,152.81,0.188,115,162.0
1512,B1,152.81,0.188,115,162.0
1513,G3,152.81,0.188,115,162.0
1514,C3,152.81,0.188,115,162.0
1515,C3,153.06,0.188,115,162.0
1516,G3,153.06,0.188,115,162.0
1517,C2,153.06,0.188,115,162.0
1518,B1,153.06,0.188,115,162.0
1519,C3,153.06,0.188,115,162.0
1520,G3,153.06,0.188,115,162.0
1521,A5,153.29,21/1000,115,162.0
1522,C2,153.29,21/1000,115,162.0
1523,C3,153.31,0.375,115,162.0
1524,G3,153.31,0.375,115,162.0
1525,C3,153.31,0.375,115,162.0
1526,G3,153.31,0.375,115,162.0
1527,B1,153.31,0.25,115,162.0
1528,E-3,153.31,0.25,115,162.0
1529,A5,153.31,479/1000,115,162.0
1530,C2,153.31,479/1000,115,162.0
1531,G5,153.79,64/125,115,162.0
1532,G3,153.81,0.188,115,162.0
1533,C3,153.81,0.188,115,162.0
1534,C2,153.81,0.188,115,162.0
1535,B1,153.81,0.188,115,162.0
1536,G3,153.81,0.188,115,162.0
1537,C3,153.81,0.188,115,162.0
1538,C3,154.06,0.188,115,162.0
1539,G3,154.06,0.188,115,162.0
1540,C2,154.06,0.188,115,162.0
1541,B1,154.06,0.188,115,162.0
1542,C3,154.06,0.188,115,162.0
1543,G3,154.06,0.188,115,162.0
1544,B5,154.29,1.0,115,162.0
1545,C2,154.31,0.5,115,162.0
1546,C3,154.31,0.375,115,162.0
1547,G3,154.31,0.375,115,162.0
1548,C3,154.31,0.375,115,162.0
1549,G3,154.31,0.375,115,162.0
1550,D2,154.31,0.25,115,162.0
1551,E-3,154.31,0.25,115,162.0
1552,G3,154.81,0.188,115,162.0
1553,C3,154.81,0.188,115,162.0
1554,C2,154.81,0.188,115,162.0
1555,B1,154.81,0.188,115,162.0
1556,G3,154.81,0.188,115,162.0
1557,C3,154.81,0.188,115,162.0
1558,C3,155.06,0.188,115,162.0
1559,G3,155.06,0.188,115,162.0
1560,C2,155.06,0.188,115,162.0
1561,B1,155.06,0.188,115,162.0
1562,C3,155.06,0.188,115,162.0
1563,G3,155.06,0.188,115,162.0
1564,D3,155.31,0.5,115,162.0
1565,A3,155.31,0.5,115,162.0
1566,D2,155.31,0.5,115,162.0
1567,D3,155.31,0.5,115,162.0
1568,A3,155.31,0.5,115,162.0
1569,E-3,155.31,0.25,115,162.0
1570,B1,155.31,0.25,115,162.0
1571,A3,155.81,0.5,115,162.0
1572,G2,155.81,0.5,115,162.0
1573,A3,155.81,0.5,115,162.0
1574,D3,156.06,0.25,115,162.0
1575,D3,156.06,0.25,115,162.0
1576,D3,156.31,0.5,115,162.0
1577,A3,156.31,0.5,115,162.0
1578,D2,156.31,0.5,115,162.0
1579,D3,156.31,0.5,115,162.0
1580,A3,156.31,0.5,115,162.0
1581,E-3,156.31,0.25,115,162.0
1582,D2,156.31,0.25,115,162.0
1583,B3,156.81,0.5,115,162.0
1584,E3,156.81,0.5,115,162.0
1585,E2,156.81,0.5,115,162.0
1586,B3,156.81,0.5,115,162.0
1587,E3,156.81,0.5,115,162.0
1588,B1,156.81,0.25,115,162.0
1589,C#3,156.81,0.25,115,162.0
1590,B3,157.31,0.5,115,162.0
1591,E3,157.31,0.5,115,162.0
1592,E2,157.31,0.5,115,162.0
1593,B3,157.31,0.5,115,162.0
1594,E3,157.31,0.5,115,162.0
1595,B5,157.804,0.5,115,162.0
1596,E3,157.81,0.188,115,162.0
1597,B3,157.81,0.188,115,162.0
1598,E2,157.81,0.188,115,162.0
1599,B1,157.81,0.188,115,162.0
1600,E3,157.81,0.188,115,162.0
1601,B3,157.81,0.188,115,162.0
1602,E3,158.06,0.188,115,162.0
1603,B3,158.06,0.188,115,162.0
1604,E2,158.06,0.188,115,162.0
1605,B1,158.06,0.188,115,162.0
1606,E3,158.06,0.188,115,162.0
1607,B3,158.06,0.188,115,162.0
1608,B5,158.304,479/1000,115,162.0
1609,E2,158.304,479/1000,115,162.0
1610,E3,158.31,0.375,115,162.0
1611,B3,158.31,0.375,115,162.0
1612,E3,158.31,0.375,115,162.0
1613,B3,158.31,0.375,115,162.0
1614,D2,158.31,0.25,115,162.0
1615,E-3,158.31,0.25,115,162.0
1616,E2,158.796,0.188,115,162.0
1617,B3,158.796,0.188,115,162.0
1618,E3,158.796,0.188,115,162.0
1619,B3,158.796,0.188,115,162.0
1620,E3,158.796,0.188,115,162.0
1621,B5,158.804,0.5,115,162.0
1622,B1,158.81,0.125,115,162.0
1623,E3,159.06,0.188,115,162.0
1624,B3,159.06,0.188,115,162.0
1625,E2,159.06,0.188,115,162.0
1626,B1,159.06,0.188,115,162.0
1627,E3,159.06,0.188,115,162.0
1628,B3,159.06,0.188,115,162.0
1629,B5,159.304,0.5,115,162.0
1630,E2,159.304,0.5,115,162.0
1631,E3,159.31,0.375,115,162.0
1632,B3,159.31,0.375,115,162.0
1633,E3,159.31,0.375,115,162.0
1634,B3,159.31,0.375,115,162.0
1635,E-3,159.31,0.25,115,162.0
1636,B1,159.31,0.25,115,162.0
1637,A5,159.804,0.5,115,162.0
1638,B3,159.81,0.188,115,162.0
1639,E3,159.81,0.188,115,162.0
1640,E2,159.81,0.188,115,162.0
1641,B1,159.81,0.188,115,162.0
1642,B3,159.81,0.188,115,162.0
1643,E3,159.81,0.188,115,162.0
1644,E3,160.06,0.188,115,162.0
1645,B3,160.06,0.188,115,162.0
1646,E2,160.06,0.188,115,162.0
1647,B1,160.06,0.188,115,162.0
1648,E3,160.06,0.188,115,162.0
1649,B3,160.06,0.188,115,162.0
1650,A5,160.304,0.5,115,162.0
1651,E2,160.304,0.5,115,162.0
1652,E3,160.31,0.375,115,162.0
1653,B3,160.31,0.375,115,162.0
1654,E3,160.31,0.375,115,162.0
1655,B3,160.31,0.375,115,162.0
1656,E-3,160.31,0.25,115,162.0
1657,D2,160.31,0.25,115,162.0
1658,G5,160.81,0.5,115,162.0
1659,B3,160.81,0.188,115,162.0
1660,E3,160.81,0.188,115,162.0
1661,E2,160.81,0.188,115,162.0
1662,B1,160.81,0.188,115,162.0
1663,B3,160.81,0.188,115,162.0
1664,E3,160.81,0.188,115,162.0
1665,E3,161.06,0.188,115,162.0
1666,B3,161.06,0.188,115,162.0
1667,E2,161.06,0.188,115,162.0
1668,B1,161.06,0.188,115,162.0
1669,E3,161.06,0.188,115,162.0
1670,B3,161.06,0.188,115,162.0
1671,A5,161.29,21/1000,115,162.0
1672,E2,161.29,21/1000,115,162.0
1673,B2,161.31,0.25,115,162.0
1674,E3,161.31,0.375,115,162.0
1675,B3,161.31,0.375,115,162.0
1676,E3,161.31,0.375,115,162.0
1677,B3,161.31,0.375,115,162.0
1678,A5,161.31,479/1000,115,162.0
1679,E2,161.31,479/1000,115,162.0
1680,B2,161.56,0.25,115,162.0
1681,G5,161.79,64/125,115,162.0
1682,B3,161.81,0.188,115,162.0
1683,E3,161.81,0.188,115,162.0
1684,E2,161.81,0.188,115,162.0
1685,B2,161.81,0.188,115,162.0
1686,B3,161.81,0.188,115,162.0
1687,E3,161.81,0.188,115,162.0
1688,E3,162.06,0.188,115,162.0
1689,B3,162.06,0.188,115,162.0
1690,E2,162.06,0.188,115,162.0
1691,E3,162.06,0.188,115,162.0
1692,B3,162.06,0.188,115,162.0
1693,B5,162.29,1.0,115,162.0
1694,E2,162.31,0.5,115,162.0
1695,D2,162.31,0.25,115,162.0
1696,E3,162.31,0.375,115,162.0
1697,B3,162.31,0.375,115,162.0
1698,E3,162.31,0.375,115,162.0
1699,B3,162.31,0.375,115,162.0
1700,B3,162.81,0.188,115,162.0
1701,E3,162.81,0.188,115,162.0
1702,E2,162.81,0.188,115,162.0
1703,B2,162.81,0.188,115,162.0
1704,B3,162.81,0.188,115,162.0
1705,E3,162.81,0.188,115,162.0
1706,E3,163.06,0.188,115,162.0
1707,B3,163.06,0.188,115,162.0
1708,E2,163.06,0.188,115,162.0
1709,B2,163.06,0.188,115,162.0
1710,E3,163.06,0.188,115,162.0
1711,B3,163.06,0.188,115,162.0
1712,E2,163.31,0.5,115,162.0
1713,D2,163.31,0.25,115,162.0
1714,B3,163.31,0.375,115,162.0
1715,E3,163.31,0.375,115,162.0
1716,B3,163.31,0.375,115,162.0
1717,E3,163.31,0.375,115,162.0
1718,B3,163.81,0.188,115,162.0
1719,E3,163.81,0.188,115,162.0
1720,E2,163.81,0.188,115,162.0
1721,A2,163.81,0.188,115,162.0
1722,B3,163.81,0.188,115,162.0
1723,E3,163.81,0.188,115,162.0
1724,E3,164.06,0.188,115,162.0
1725,B3,164.06,0.188,115,162.0
1726,E2,164.06,0.188,115,162.0
1727,E3,164.06,0.188,115,162.0
1728,B3,164.06,0.188,115,162.0
1729,E2,164.31,0.5,115,162.0
1730,A2,164.31,0.25,115,162.0
1731,E3,164.31,0.375,115,162.0
1732,B3,164.31,0.375,115,162.0
1733,E3,164.31,0.375,115,162.0
1734,B3,164.31,0.375,115,162.0
1735,D2,164.81,0.5,115,162.0
1736,A3,164.81,0.5,115,162.0
1737,D3,164.81,0.5,115,162.0
1738,D4,164.81,0.5,115,162.0
1739,A2,164.81,0.5,115,162.0
1740,D3,164.81,0.5,115,162.0
1741,A3,164.81,0.5,115,162.0
1742,D4,164.81,0.5,115,162.0
1743,F#4,164.81,0.5,115,162.0
1744,B1,164.81,0.25,115,162.0
1745,C#3,164.81,0.25,115,162.0
1746,B5,164.81,0.5,115,162.0
1747,E5,164.81,0.5,115,162.0
1748,B5,164.81,0.5,115,162.0
1749,B5,164.81,0.5,115,162.0
1750,E5,164.81,0.5,115,162.0
1751,D2,165.31,0.5,115,162.0
1752,A3,165.31,4.5,115,162.0
1753,D3,165.31,4.5,115,162.0
1754,D4,165.31,4.5,115,162.0
1755,A2,165.31,7.5,115,162.0
1756,D3,165.31,7.5,115,162.0
1757,A3,165.31,7.5,115,162.0
1758,D4,165.31,7.5,115,162.0
1759,F#4,165.31,7.5,115,162.0
1760,B5,165.31,203/200,115,162.0
1761,E5,165.31,203/200,115,162.0
1762,B5,165.31,203/200,115,162.0
1763,B5,165.31,203/200,115,162.0
1764,E5,165.31,203/200,115,162.0
1765,D2,165.81,0.25,115,162.0
1766,B1,165.81,0.125,115,162.0
1767,D2,166.06,0.25,115,162.0
1768,B1,166.06,0.125,115,162.0
1769,D2,166.31,479/1000,115,162.0
1770,E-3,166.31,0.25,115,162.0
1771,D2,166.31,0.25,115,162.0
1772,A5,166.31,1.0,115,162.0
1773,A5,166.31,1.0,115,162.0
1774,D5,166.31,1.0,115,162.0
1775,A5,166.31,1.0,115,162.0
1776,D5,166.31,1.0,115,162.0
1777,D2,166.796,0.25,115,162.0
1778,B1,166.81,0.125,115,162.0
1779,D2,167.06,0.25,115,162.0
1780,B1,167.06,0.125,115,162.0
1781,D2,167.31,0.5,115,162.0
1782,E-3,167.31,0.25,115,162.0
1783,B1,167.31,0.25,115,162.0
1784,G5,167.31,1.0,115,162.0
1785,C5,167.31,1.0,115,162.0
1786,G5,167.31,1.0,115,162.0
1787,C5,167.31,1.0,115,162.0
1788,G5,167.31,1.0,115,162.0
1789,D2,167.81,0.25,115,162.0
1790,B1,167.81,0.125,115,162.0
1791,D2,168.06,0.25,115,162.0
1792,B1,168.06,0.125,115,162.0
1793,D2,168.31,0.5,115,162.0
1794,E-3,168.31,0.25,115,162.0
1795,D2,168.31,0.25,115,162.0
1796,F#5,168.31,1.0,115,162.0
1797,B4,168.31,1.0,115,162.0
1798,F#5,168.31,1.0,115,162.0
1799,B4,168.31,1.0,115,162.0
1800,F#5,168.31,1.0,115,162.0
1801,D2,168.81,0.25,115,162.0
1802,B1,168.81,0.125,115,162.0
1803,D2,169.06,0.25,115,162.0
1804,B1,169.06,0.125,115,162.0
1805,D2,172.81,0.5,115,162.0
1806,B1,172.81,0.25,115,162.0
1807,E-3,172.81,0.25,115,162.0
1808,G5,172.81,1.0,115,162.0
1809,C5,172.81,1.0,115,162.0
1810,G5,172.81,1.0,115,162.0
1811,C5,172.81,1.0,115,162.0
1812,G5,172.81,1.0,115,162.0
1813,D2,173.31,0.25,115,162.0
1814,B1,173.31,0.125,115,162.0
1815,D4,173.31,1.0,115,162.0
1816,A3,173.31,1.0,115,162.0
1817,D3,173.31,1.0,115,162.0
1818,D2,173.56,0.25,115,162.0
1819,B1,173.56,0.125,115,162.0
1820,D2,173.81,0.5,115,162.0
1821,E-3,173.81,0.25,115,162.0
1822,D2,173.81,0.25,115,162.0
1823,F#5,173.81,1.0,115,162.0
1824,B4,173.81,1.0,115,162.0
1825,F#5,173.81,1.0,115,162.0
1826,B4,173.81,1.0,115,162.0
1827,F#5,173.81,1.0,115,162.0
1828,D2,174.31,0.25,115,162.0
1829,B1,174.31,0.125,115,162.0
1830,D4,174.31,1.0,115,162.0
1831,A3,174.31,1.0,115,162.0
1832,D3,174.31,1.0,115,162.0
1833,D2,174.56,0.25,115,162.0
1834,B1,174.56,0.125,115,162.0
1835,D2,174.81,0.5,115,162.0
1836,E-3,174.81,0.25,115,162.0
1837,B1,174.81,0.25,115,162.0
1838,E5,174.81,1.0,115,162.0
1839,A4,174.81,1.0,115,162.0
1840,E5,174.81,1.0,115,162.0
1841,A4,174.81,1.0,115,162.0
1842,E5,174.81,1.0,115,162.0
1843,D2,175.31,0.25,115,162.0
1844,D4,175.31,1.0,115,162.0
1845,A3,175.31,1.0,115,162.0
1846,D3,175.31,1.0,115,162.0
1847,D2,175.56,0.25,115,162.0
1848,D2,175.81,0.5,115,162.0
1849,D5,175.81,0.5,115,162.0
1850,G4,175.81,0.5,115,162.0
1851,D5,175.81,0.5,115,162.0
1852,G4,175.81,0.5,115,162.0
1853,D5,175.81,0.5,115,162.0
1854,E-3,175.81,0.25,115,162.0
1855,D2,175.81,0.25,115,162.0
1856,E2,176.31,0.5,115,162.0
1857,E3,176.31,0.5,115,162.0
1858,B3,176.31,0.5,115,162.0
1859,E4,176.31,0.5,115,162.0
1860,E2,176.31,0.5,115,162.0
1861,E4,176.31,0.5,115,162.0
1862,B3,176.31,0.5,115,162.0
1863,E3,176.31,0.5,115,162.0
1864,B1,176.31,0.25,115,162.0
1865,C#3,176.31,0.25,115,162.0
1866,E5,176.31,0.5,115,162.0
1867,E5,176.31,0.5,115,162.0
1868,A4,176.31,0.5,115,162.0
1869,E5,176.31,0.5,115,162.0
1870,A4,176.31,0.5,115,162.0
1871,E2,184.31,0.5,115,162.0
1872,E3,184.31,7.5,115,162.0
1873,B3,184.31,7.5,115,162.0
1874,E4,184.31,7.5,115,162.0
1875,E2,184.31,7.5,115,162.0
1876,E4,184.31,7.5,115,162.0
1877,B3,184.31,7.5,115,162.0
1878,E3,184.31,7.5,115,162.0
1879,E5,184.31,3.5,115,162.0
1880,E5,184.31,3.5,115,162.0
1881,A4,184.31,3.5,115,162.0
1882,E5,184.31,3.5,115,162.0
1883,A4,184.31,3.5,115,162.0
1884,E2,184.81,0.25,115,162.0
1885,B1,184.81,0.125,115,162.0
1886,E2,185.06,0.25,115,162.0
1887,B1,185.06,0.125,115,162.0
1888,E2,185.31,479/1000,115,162.0
1889,E-3,185.31,0.25,115,162.0
1890,D2,185.31,0.25,115,162.0
1891,E2,185.796,0.25,115,162.0
1892,B1,185.81,0.125,115,162.0
1893,E2,186.06,0.25,115,162.0
1894,B1,186.06,0.125,115,162.0
1895,E2,186.31,0.5,115,162.0
1896,E-3,186.31,0.25,115,162.0
1897,B1,186.31,0.25,115,162.0
1898,E2,186.81,0.25,115,162.0
1899,B1,186.81,0.25,115,162.0
1900,E2,187.06,0.25,115,162.0
1901,B1,187.06,0.25,115,162.0
1902,E2,187.31,0.5,115,162.0
1903,E-3,187.31,0.25,115,162.0
1904,D2,187.31,0.25,115,162.0
1905,E2,187.81,0.25,115,162.0
1906,B1,187.81,0.25,115,162.0
1907,E2,188.06,0.25,115,162.0
1908,E2,191.81,0.5,115,162.0
1909,D3,191.81,0.25,115,162.0
1910,D3,192.06,0.25,115,162.0
1911,E2,192.31,0.25,115,162.0
1912,D3,192.31,0.25,115,162.0
1913,E2,192.56,0.25,115,162.0
1914,D3,192.56,0.25,115,162.0
1915,E2,192.81,0.5,115,162.0
1916,C3,192.81,0.25,115,162.0
1917,C3,193.06,0.25,115,162.0
1918,E2,193.31,0.25,115,162.0
1919,C3,193.31,0.25,115,162.0
1920,E2,193.56,0.25,115,162.0
1921,C3,193.56,0.25,115,162.0
1922,E2,193.81,0.5,115,162.0
1923,B2,193.81,0.25,115,162.0
1924,B2,194.06,0.25,115,162.0
1925,E2,194.31,0.25,115,162.0
1926,B2,194.31,0.25,115,162.0
1927,E2,194.56,0.25,115,162.0
1928,B2,194.56,0.25,115,162.0
1929,E2,194.81,0.5,115,162.0
1930,A2,194.81,0.25,115,162.0
1931,D2,195.31,0.5,115,162.0
1932,D4,195.31,0.5,115,162.0
1933,D3,195.31,0.5,115,162.0
1934,A3,195.31,0.5,115,162.0
1935,F#4,195.31,0.5,115,162.0
1936,D4,195.31,0.5,115,162.0
1937,A3,195.31,0.5,115,162.0
1938,D3,195.31,0.5,115,162.0
1939,A2,195.31,0.5,115,162.0
1940,B1,195.31,0.25,115,162.0
1941,C#3,195.31,0.25,115,162.0
1942,B5,195.31,0.5,115,162.0
1943,B5,195.31,0.5,115,162.0
1944,E5,195.31,0.5,115,162.0
1945,B5,195.31,0.5,115,162.0
1946,E5,195.31,0.5,115,162.0
1947,D2,200.31,0.5,115,162.0
1948,D4,200.31,4.5,115,162.0
1949,D3,200.31,4.5,115,162.0
1950,A3,200.31,4.5,115,162.0
1951,F#4,200.31,7.5,115,162.0
1952,D4,200.31,7.5,115,162.0
1953,A3,200.31,7.5,115,162.0
1954,D3,200.31,7.5,115,162.0
1955,A2,200.31,7.5,115,162.0
1956,B5,200.31,203/200,115,162.0
1957,B5,200.31,203/200,115,162.0
1958,E5,200.31,203/200,115,162.0
1959,B5,200.31,203/200,115,162.0
1960,E5,200.31,203/200,115,162.0
1961,D2,200.81,0.25,115,162.0
1962,B1,200.81,0.125,115,162.0
1963,D2,201.06,0.25,115,162.0
1964,B1,201.06,0.125,115,162.0
1965,D2,201.31,479/1000,115,162.0
1966,E-3,201.31,0.25,115,162.0
1967,D2,201.31,0.25,115,162.0
1968,A5,201.31,1.0,115,162.0
1969,D5,201.31,1.0,115,162.0
1970,A5,201.31,1.0,115,162.0
1971,D5,201.31,1.0,115,162.0
1972,A5,201.31,1.0,115,162.0
1973,D2,201.796,0.25,115,162.0
1974,B1,201.81,0.125,115,162.0
1975,D2,202.06,0.25,115,162.0
1976,B1,202.06,0.125,115,162.0
1977,D2,202.31,0.5,115,162.0
1978,E-3,202.31,0.25,115,162.0
1979,B1,202.31,0.25,115,162.0
1980,G5,202.31,1.0,115,162.0
1981,C5,202.31,1.0,115,162.0
1982,G5,202.31,1.0,115,162.0
1983,C5,202.31,1.0,115,162.0
1984,G5,202.31,1.0,115,162.0
1985,D2,202.81,0.25,115,162.0
1986,B1,202.81,0.125,115,162.0
1987,D2,203.06,0.25,115,162.0
1988,B1,203.06,0.125,115,162.0
1989,D2,203.31,0.5,115,162.0
1990,E-3,203.31,0.25,115,162.0
1991,D2,203.31,0.25,115,162.0
1992,F#5,203.31,1.0,115,162.0
1993,B4,203.31,1.0,115,162.0
1994,F#5,203.31,1.0,115,162.0
1995,B4,203.31,1.0,115,162.0
1996,F#5,203.31,1.0,115,162.0
1997,D2,203.81,0.25,115,162.0
1998,B1,203.81,0.125,115,162.0
1999,D2,204.06,0.25,115,162.0
2000,B1,204.06,0.125,115,162.0
2001,D2,207.81,0.5,115,162.0
2002,B1,207.81,0.25,115,162.0
2003,E-3,207.81,0.25,115,162.0
2004,G5,207.81,1.0,115,162.0
2005,C5,207.81,1.0,115,162.0
2006,G5,207.81,1.0,115,162.0
2007,C5,207.81,1.0,115,162.0
2008,G5,207.81,1.0,115,162.0
2009,D2,208.31,0.25,115,162.0
2010,B1,208.31,0.125,115,162.0
2011,D4,208.31,1.0,115,162.0
2012,A3,208.31,1.0,115,162.0
2013,D3,208.31,1.0,115,162.0
2014,D2,208.56,0.25,115,162.0
2015,B1,208.56,0.125,115,162.0
2016,D2,208.81,0.5,115,162.0
2017,E-3,208.81,0.25,115,162.0
2018,D2,208.81,0.25,115,162.0
2019,F#5,208.81,1.0,115,162.0
2020,B4,208.81,1.0,115,162.0
2021,F#5,208.81,1.0,115,162.0
2022,B4,208.81,1.0,115,162.0
2023,F#5,208.81,1.0,115,162.0
2024,D2,209.31,0.25,115,162.0
2025,B1,209.31,0.125,115,162.0
2026,D4,209.31,1.0,115,162.0
2027,A3,209.31,1.0,115,162.0
2028,D3,209.31,1.0,115,162.0
2029,D2,209.56,0.25,115,162.0
2030,B1,209.56,0.125,115,162.0
2031,D2,209.81,0.5,115,162.0
2032,E-3,209.81,0.25,115,162.0
2033,B1,209.81,0.25,115,162.0
2034,G5,209.81,1.0,115,162.0
2035,G5,209.81,1.0,115,162.0
2036,C5,209.81,1.0,115,162.0
2037,G5,209.81,1.0,115,162.0
2038,C5,209.81,1.0,115,162.0
2039,D2,210.31,0.25,115,162.0
2040,D4,210.31,1.0,115,162.0
2041,A3,210.31,1.0,115,162.0
2042,D3,210.31,1.0,115,162.0
2043,D2,210.56,0.25,115,162.0
2044,D2,210.81,0.5,115,162.0
2045,B5,210.81,0.5,115,162.0
2046,B5,210.81,0.5,115,162.0
2047,E5,210.81,0.5,115,162.0
2048,B5,210.81,0.5,115,162.0
2049,E5,210.81,0.5,115,162.0
2050,E-3,210.81,0.25,115,162.0
2051,D2,210.81,0.25,115,162.0
2052,E4,211.31,0.5,115,162.0
2053,E3,211.31,0.5,115,162.0
2054,B3,211.31,0.5,115,162.0
2055,E2,211.31,0.5,115,162.0
2056,B3,211.31,0.5,115,162.0
2057,E3,211.31,0.5,115,162.0
2058,E4,211.31,0.5,115,162.0
2059,B1,211.31,0.25,115,162.0
2060,C#3,211.31,0.25,115,162.0
2061,G5,211.31,0.5,115,162.0
2062,G5,211.31,0.5,115,162.0
2063,C5,211.31,0.5,115,162.0
2064,G5,211.31,0.5,115,162.0
2065,C5,211.31,0.5,115,162.0
2066,E4,212.31,0.5,115,162.0
2067,E3,212.31,0.5,115,162.0
2068,B3,212.31,0.5,115,162.0
2069,E2,212.31,0.5,115,162.0
2070,B3,212.31,0.5,115,162.0
2071,E3,212.31,0.5,115,162.0
2072,E4,212.31,0.5,115,162.0
2073,G5,212.31,3.5,115,162.0
2074,G5,212.31,3.5,115,162.0
2075,C5,212.31,3.5,115,162.0
2076,G5,212.31,3.5,115,162.0
2077,C5,212.31,3.5,115,162.0
2078,B3,212.81,0.188,115,162.0
2079,E3,212.81,0.188,115,162.0
2080,E2,212.81,0.188,115,162.0
2081,B1,212.81,0.188,115,162.0
2082,B3,212.81,0.188,115,162.0
2083,E3,212.81,0.188,115,162.0
2084,E3,213.046,0.188,115,162.0
2085,B3,213.046,0.188,115,162.0
2086,B1,213.046,0.188,115,162.0
2087,E3,213.046,0.188,115,162.0
2088,B3,213.046,0.188,115,162.0
2089,E2,213.06,0.188,115,162.0
2090,E3,213.06,0.188,115,162.0
2091,B3,213.06,0.188,115,162.0
2092,E3,213.296,0.375,115,162.0
2093,B3,213.296,0.375,115,162.0
2094,E3,213.296,0.375,115,162.0
2095,B3,213.296,0.375,115,162.0
2096,E2,213.31,479/1000,115,162.0
2097,E-3,213.31,0.25,115,162.0
2098,D2,213.31,0.25,115,162.0
2099,B3,213.796,0.188,115,162.0
2100,E3,213.796,0.188,115,162.0
2101,E2,213.796,0.188,115,162.0
2102,B1,213.796,0.188,115,162.0
2103,B3,213.796,0.188,115,162.0
2104,E3,213.796,0.188,115,162.0
2105,E3,214.046,0.188,115,162.0
2106,B3,214.046,0.188,115,162.0
2107,B1,214.046,0.188,115,162.0
2108,E3,214.046,0.188,115,162.0
2109,B3,214.046,0.188,115,162.0
2110,E2,214.06,0.188,115,162.0
2111,E3,214.06,0.188,115,162.0
2112,B3,214.06,0.188,115,162.0
2113,E3,214.296,0.375,115,162.0
2114,B3,214.296,0.375,115,162.0
2115,E3,214.296,0.375,115,162.0
2116,B3,214.296,0.375,115,162.0
2117,E2,214.31,0.5,115,162.0
2118,E-3,214.31,0.25,115,162.0
2119,B1,214.31,0.25,115,162.0
2120,B3,214.796,0.188,115,162.0
2121,E3,214.796,0.188,115,162.0
2122,B3,214.796,0.188,115,162.0
2123,E3,214.796,0.188,115,162.0
2124,E2,214.81,0.188,115,162.0
2125,B1,214.81,0.188,115,162.0
2126,B3,214.81,0.188,115,162.0
2127,E3,214.81,0.188,115,162.0
2128,E3,215.046,0.188,115,162.0
2129,B3,215.046,0.188,115,162.0
2130,E3,215.046,0.188,115,162.0
2131,B3,215.046,0.188,115,162.0
2132,E2,215.06,0.188,115,162.0
2133,B1,215.06,0.188,115,162.0
2134,E3,215.06,0.188,115,162.0
2135,B3,215.06,0.188,115,162.0
2136,E3,215.296,0.375,115,162.0
2137,B3,215.296,0.375,115,162.0
2138,E3,215.296,0.375,115,162.0
2139,B3,215.296,0.375,115,162.0
2140,E2,215.31,0.5,115,162.0
2141,E-3,215.31,0.25,115,162.0
2142,D2,215.31,0.25,115,162.0
2143,B3,215.796,0.188,115,162.0
2144,E3,215.796,0.188,115,162.0
2145,B3,215.796,0.188,115,162.0
2146,E3,215.796,0.188,115,162.0
2147,E2,215.81,0.188,115,162.0
2148,B1,215.81,0.188,115,162.0
2149,B3,215.81,0.188,115,162.0
2150,E3,215.81,0.188,115,162.0
2151,E3,216.046,0.188,115,162.0
2152,B3,216.046,0.188,115,162.0
2153,E3,216.046,0.188,115,162.0
2154,B3,216.046,0.188,115,162.0
2155,E2,216.06,0.188,115,162.0
2156,E3,216.06,0.188,115,162.0
2157,B3,216.06,0.188,115,162.0
2158,E3,216.296,3/200,115,162.0
2159,B3,216.296,3/200,115,162.0
2160,E3,216.296,3/200,115,162.0
2161,B3,216.296,3/200,115,162.0
2162,E2,216.31,0.5,115,162.0
2163,E-3,216.31,0.25,115,162.0
2164,E3,216.31,9/25,115,162.0
2165,B3,216.31,9/25,115,162.0
2166,E3,216.31,9/25,115,162.0
2167,B3,216.31,9/25,115,162.0
2168,B3,216.796,0.188,115,162.0
2169,E3,216.796,0.188,115,162.0
2170,B3,216.796,0.188,115,162.0
2171,E3,216.796,0.188,115,162.0
2172,E2,216.81,0.188,115,162.0
2173,B1,216.81,0.188,115,162.0
2174,B3,216.81,0.188,115,162.0
2175,E3,216.81,0.188,115,162.0
2176,E3,217.046,0.188,115,162.0
2177,B3,217.046,0.188,115,162.0
2178,E3,217.046,0.188,115,162.0
2179,B3,217.046,0.188,115,162.0
2180,E2,217.06,0.188,115,162.0
2181,B1,217.06,0.188,115,162.0
2182,E3,217.06,0.188,115,162.0
2183,B3,217.06,0.188,115,162.0
2184,E3,217.296,0.375,115,162.0
2185,B3,217.296,0.375,115,162.0
2186,E3,217.296,0.375,115,162.0
2187,B3,217.296,0.375,115,162.0
2188,E2,217.31,0.5,115,162.0
2189,E-3,217.31,0.25,115,162.0
2190,D2,217.31,0.25,115,162.0
2191,B3,217.796,0.188,115,162.0
2192,E3,217.796,0.188,115,162.0
2193,B3,217.796,0.188,115,162.0
2194,E3,217.796,0.188,115,162.0
2195,E2,217.81,0.188,115,162.0
2196,B1,217.81,0.188,115,162.0
2197,B3,217.81,0.188,115,162.0
2198,E3,217.81,0.188,115,162.0
2199,E3,218.046,0.188,115,162.0
2200,B3,218.046,0.188,115,162.0
2201,E3,218.046,0.188,115,162.0
2202,B3,218.046,0.188,115,162.0
2203,E2,218.06,0.188,115,162.0
2204,E3,218.06,0.188,115,162.0
2205,B3,218.06,0.188,115,162.0
2206,D2,218.242,0.062,127,162.0
2207,D2,218.31,0.25,127,162.0
2208,D3,218.31,0.5,115,162.0
2209,A3,218.31,0.5,115,162.0
2210,D2,218.31,0.5,115,162.0
2211,D3,218.31,0.5,115,162.0
2212,A3,218.31,0.5,115,162.0
2213,B2,218.81,0.25,115,162.0
2214,A3,218.81,0.5,115,162.0
2215,G2,218.81,0.5,115,162.0
2216,A3,218.81,0.5,115,162.0
2217,D3,219.06,0.25,115,162.0
2218,B2,219.06,0.25,115,162.0
2219,D3,219.06,0.25,115,162.0
2220,A2,219.31,0.25,115,162.0
2221,D3,219.31,0.5,115,162.0
2222,A3,219.31,0.5,115,162.0
2223,D2,219.31,0.5,115,162.0
2224,D3,219.31,0.5,115,162.0
2225,A3,219.31,0.5,115,162.0
2226,B3,219.81,0.5,115,162.0
2227,E3,219.81,0.5,115,162.0
2228,E2,219.81,0.5,115,162.0
2229,B3,219.81,0.5,115,162.0
2230,E3,219.81,0.5,115,162.0
2231,B1,219.81,0.25,115,162.0
2232,C#3,219.81,0.25,115,162.0
2233,B3,220.31,0.5,115,162.0
2234,E3,220.31,0.5,115,162.0
2235,E2,220.31,0.5,115,162.0
2236,B3,220.31,0.5,115,162.0
2237,E3,220.31,0.5,115,162.0
2238,B4,220.81,103/200,115,162.0
2239,G5,220.81,103/200,115,162.0
2240,E2,220.81,0.25,115,162.0
2241,B1,220.81,0.25,115,162.0
2242,E2,221.06,0.25,115,162.0
2243,B1,221.06,0.25,115,162.0
2244,E2,221.31,479/1000,115,162.0
2245,A4,221.31,0.25,115,162.0
2246,F#5,221.31,0.25,115,162.0
2247,E-3,221.31,0.25,115,162.0
2248,D2,221.31,0.25,115,162.0
2249,B4,221.56,0.25,115,162.0
2250,G5,221.56,0.25,115,162.0
2251,E2,221.796,0.25,115,162.0
2252,A4,221.796,0.25,115,162.0
2253,F#5,221.796,0.25,115,162.0
2254,B1,221.796,0.25,115,162.0
2255,B4,222.06,0.25,115,162.0
2256,E2,222.06,0.25,115,162.0
2257,G5,222.06,0.25,115,162.0
2258,B1,222.06,0.25,115,162.0
2259,D5,222.31,0.5,115,162.0
2260,E2,222.31,0.5,115,162.0
2261,B5,222.31,0.5,115,162.0
2262,E-3,222.31,0.25,115,162.0
2263,B1,222.31,0.25,115,162.0
2264,B4,222.81,103/200,115,162.0
2265,G5,222.81,103/200,115,162.0
2266,E2,222.81,0.25,115,162.0
2267,B1,222.81,0.25,115,162.0
2268,E2,223.06,0.25,115,162.0
2269,B1,223.06,0.25,115,162.0
2270,E2,223.31,0.5,115,162.0
2271,A4,223.31,0.25,115,162.0
2272,F#5,223.31,0.25,115,162.0
2273,E-3,223.31,0.25,115,162.0
2274,D2,223.31,0.25,115,162.0
2275,B4,223.56,0.25,115,162.0
2276,G5,223.56,0.25,115,162.0
2277,A4,223.81,0.25,115,162.0
2278,E2,223.81,0.25,115,162.0
2279,F#5,223.81,0.25,115,162.0
2280,B1,223.81,0.25,115,162.0
2281,B4,224.06,0.25,115,162.0
2282,E2,224.06,0.25,115,162.0
2283,G5,224.06,0.25,115,162.0
2284,B1,224.06,0.25,115,162.0
2285,B4,224.31,0.5,115,162.0
2286,E2,224.31,0.5,115,162.0
2287,G5,224.31,0.5,115,162.0
2288,B1,224.31,0.25,115,162.0
2289,E-3,224.31,0.25,115,162.0
2290,G4,224.81,0.5,115,162.0
2291,E5,224.81,0.5,115,162.0
2292,E2,224.81,0.25,115,162.0
2293,B1,224.81,0.25,115,162.0
2294,E2,225.06,0.25,115,162.0
2295,B1,225.06,0.25,115,162.0
2296,E2,225.31,0.5,115,162.0
2297,G4,225.31,1.0,115,162.0
2298,E5,225.31,1.0,115,162.0
2299,E-3,225.31,0.25,115,162.0
2300,D2,225.31,0.25,115,162.0
2301,E2,225.81,0.25,115,162.0
2302,B1,225.81,0.25,115,162.0
2303,E2,226.06,0.25,115,162.0
2304,B2,226.06,0.25,115,162.0
2305,B2,226.31,0.25,115,162.0
2306,F#4,226.31,0.5,115,162.0
2307,D2,226.31,0.5,115,162.0
2308,B4,226.31,0.5,115,162.0
2309,A2,226.56,0.25,115,162.0
2310,A2,226.81,0.25,115,162.0
2311,G4,226.81,0.5,115,162.0
2312,G2,226.81,0.5,115,162.0
2313,D5,226.81,0.5,115,162.0
2314,G2,227.06,0.25,115,162.0
2315,G2,227.31,0.25,115,162.0
2316,F#4,227.31,0.5,115,162.0
2317,D2,227.31,0.5,115,162.0
2318,B4,227.31,0.5,115,162.0
2319,G4,227.81,0.5,115,162.0
2320,E2,227.81,0.5,115,162.0
2321,E5,227.81,0.5,115,162.0
2322,B1,227.81,0.25,115,162.0
2323,C#3,227.81,0.25,115,162.0
2324,G4,228.783,473/1000,115,162.0
2325,E2,228.783,473/1000,115,162.0
2326,E5,228.783,473/1000,115,162.0
2327,B4,229.283,103/200,115,162.0
2328,G5,229.283,103/200,115,162.0
2329,E2,229.283,0.25,115,162.0
2330,B1,229.283,0.25,115,162.0
2331,E2,229.533,0.25,115,162.0
2332,B1,229.533,0.25,115,162.0
2333,E2,229.783,479/1000,115,162.0
2334,A4,229.783,0.25,115,162.0
2335,F#5,229.783,0.25,115,162.0
2336,E-3,229.783,0.25,115,162.0
2337,D2,229.783,0.25,115,162.0
2338,B4,230.033,0.25,115,162.0
2339,G5,230.033,0.25,115,162.0
2340,E2,230.269,0.25,115,162.0
2341,A4,230.269,0.25,115,162.0
2342,F#5,230.269,0.25,115,162.0
2343,B1,230.269,0.25,115,162.0
2344,B4,230.533,0.25,115,162.0
2345,E2,230.533,0.25,115,162.0
2346,G5,230.533,0.25,115,162.0
2347,B1,230.533,0.25,115,162.0
2348,D5,230.783,0.5,115,162.0
2349,E2,230.783,0.5,115,162.0
2350,B5,230.783,0.5,115,162.0
2351,E-3,230.783,0.25,115,162.0
2352,B1,230.783,0.25,115,162.0
2353,B4,231.283,103/200,115,162.0
2354,G5,231.283,103/200,115,162.0
2355,E2,231.283,0.25,115,162.0
2356,B1,231.283,0.25,115,162.0
2357,E2,231.533,0.25,115,162.0
2358,B1,231.533,0.25,115,162.0
2359,E2,231.783,0.5,115,162.0
2360,A4,231.783,0.25,115,162.0
2361,F#5,231.783,0.25,115,162.0
2362,E-3,231.783,0.25,115,162.0
2363,D2,231.783,0.25,115,162.0
2364,B4,232.033,0.25,115,162.0
2365,G5,232.033,0.25,115,162.0
2366,A4,232.283,0.25,115,162.0
2367,E2,232.283,0.25,115,162.0
2368,F#5,232.283,0.25,115,162.0
2369,B1,232.283,0.25,115,162.0
2370,B4,232.533,0.25,115,162.0
2371,E2,232.533,0.25,115,162.0
2372,G5,232.533,0.25,115,162.0
2373,B1,232.533,0.25,115,162.0
2374,B4,232.783,0.5,115,162.0
2375,E2,232.783,0.5,115,162.0
2376,G5,232.783,0.5,115,162.0
2377,B1,232.783,0.25,115,162.0
2378,E-3,232.783,0.25,115,162.0
2379,G4,233.283,0.5,115,162.0
2380,E5,233.283,0.5,115,162.0
2381,E2,233.283,0.25,115,162.0
2382,B1,233.283,0.25,115,162.0
2383,E2,233.533,0.25,115,162.0
2384,B1,233.533,0.25,115,162.0
2385,E2,233.783,0.5,115,162.0
2386,G4,233.783,1.0,115,162.0
2387,E5,233.783,1.0,115,162.0
2388,E-3,233.783,0.25,115,162.0
2389,D2,233.783,0.25,115,162.0
2390,E2,234.283,0.25,115,162.0
2391,B1,234.283,0.25,115,162.0
2392,E2,234.533,0.25,115,162.0
2393,F#4,234.783,0.5,115,162.0
2394,D2,234.783,0.5,115,162.0
2395,B4,234.783,0.5,115,162.0
2396,E-3,234.783,0.25,115,162.0
2397,B1,234.783,0.25,115,162.0
2398,B1,235.283,0.25,115,162.0
2399,G4,235.283,0.5,115,162.0
2400,G2,235.283,0.5,115,162.0
2401,D5,235.283,0.5,115,162.0
2402,F#4,235.783,0.5,115,162.0
2403,D2,235.783,0.5,115,162.0
2404,B4,235.783,0.5,115,162.0
2405,E-3,235.783,0.25,115,162.0
2406,D2,235.783,0.25,115,162.0
2407,G4,236.283,0.5,115,162.0
2408,C2,236.283,0.5,115,162.0
2409,C5,236.283,0.5,115,162.0
2410,B1,236.283,0.25,115,162.0
2411,C#3,236.283,0.25,115,162.0
2412,G4,237.256,473/1000,115,162.0
2413,C2,237.256,473/1000,115,162.0
2414,C5,237.256,473/1000,115,162.0
2415,B4,237.756,103/200,115,162.0
2416,G5,237.756,103/200,115,162.0
2417,C2,237.756,0.25,115,162.0
2418,B1,237.756,0.25,115,162.0
2419,C2,238.006,0.25,115,162.0
2420,B1,238.006,0.25,115,162.0
2421,C2,238.256,479/1000,115,162.0
2422,A4,238.256,0.25,115,162.0
2423,F#5,238.256,0.25,115,162.0
2424,E-3,238.256,0.25,115,162.0
2425,D2,238.256,0.25,115,162.0
2426,B4,238.506,0.25,115,162.0
2427,G5,238.506,0.25,115,162.0
2428,C2,238.742,0.25,115,162.0
2429,A4,238.742,0.25,115,162.0
2430,F#5,238.742,0.25,115,162.0
2431,B1,238.742,0.25,115,162.0
2432,B4,239.006,0.25,115,162.0
2433,C2,239.006,0.25,115,162.0
2434,G5,239.006,0.25,115,162.0
2435,B1,239.006,0.25,115,162.0
2436,D5,239.256,0.5,115,162.0
2437,C2,239.256,0.5,115,162.0
2438,B5,239.256,0.5,115,162.0
2439,E-3,239.256,0.25,115,162.0
2440,B1,239.256,0.25,115,162.0
2441,B4,239.756,103/200,115,162.0
2442,G5,239.756,103/200,115,162.0
2443,C2,239.756,0.25,115,162.0
2444,B1,239.756,0.25,115,162.0
2445,C2,240.006,0.25,115,162.0
2446,B1,240.006,0.25,115,162.0
2447,C2,240.256,0.5,115,162.0
2448,A4,240.256,0.25,115,162.0
2449,F#5,240.256,0.25,115,162.0
2450,E-3,240.256,0.25,115,162.0
2451,D2,240.256,0.25,115,162.0
2452,B4,240.506,0.25,115,162.0
2453,G5,240.506,0.25,115,162.0
2454,A4,240.756,0.25,115,162.0
2455,C2,240.756,0.25,115,162.0
2456,F#5,240.756,0.25,115,162.0
2457,B1,240.756,0.25,115,162.0
2458,B4,241.006,0.25,115,162.0
2459,C2,241.006,0.25,115,162.0
2460,G5,241.006,0.25,115,162.0
2461,B1,241.006,0.25,115,162.0
2462,B4,241.256,0.5,115,162.0
2463,C2,241.256,0.5,115,162.0
2464,G5,241.256,0.5,115,162.0
2465,B1,241.256,0.25,115,162.0
2466,E-3,241.256,0.25,115,162.0
2467,G4,241.756,0.5,115,162.0
2468,E5,241.756,0.5,115,162.0
2469,C2,241.756,0.25,115,162.0
2470,B1,241.756,0.25,115,162.0
2471,C2,242.006,0.25,115,162.0
2472,B1,242.006,0.25,115,162.0
2473,C2,242.256,0.5,115,162.0
2474,G4,242.256,1.0,115,162.0
2475,E5,242.256,1.0,115,162.0
2476,E-3,242.256,0.25,115,162.0
2477,D2,242.256,0.25,115,162.0
2478,C2,242.756,0.25,115,162.0
2479,B1,242.756,0.25,115,162.0
2480,C2,243.006,0.25,115,162.0
2481,F#4,243.256,0.5,115,162.0
2482,D2,243.256,0.5,115,162.0
2483,B4,243.256,0.5,115,162.0
2484,E-3,243.256,0.25,115,162.0
2485,B1,243.256,0.25,115,162.0
2486,B1,243.756,0.25,115,162.0
2487,G4,243.756,0.5,115,162.0
2488,G2,243.756,0.5,115,162.0
2489,D5,243.756,0.5,115,162.0
2490,F#4,244.256,0.5,115,162.0
2491,D2,244.256,0.5,115,162.0
2492,B4,244.256,0.5,115,162.0
2493,E-3,244.256,0.25,115,162.0
2494,D2,244.256,0.25,115,162.0
2495,G4,244.756,0.5,115,162.0
2496,D2,244.756,0.5,115,162.0
2497,E5,244.756,0.5,115,162.0
2498,B1,244.756,0.25,115,162.0
2499,C#3,244.756,0.25,115,162.0
2500,G4,245.729,473/1000,115,162.0
2501,D2,245.729,473/1000,115,162.0
2502,E5,245.729,473/1000,115,162.0
2503,B4,246.229,103/200,115,162.0
2504,G5,246.229,103/200,115,162.0
2505,D2,246.229,0.25,115,162.0
2506,B1,246.229,0.25,115,162.0
2507,D2,246.479,0.25,115,162.0
2508,B1,246.479,0.25,115,162.0
2509,D2,246.729,479/1000,115,162.0
2510,A4,246.729,0.25,115,162.0
2511,F#5,246.729,0.25,115,162.0
2512,E-3,246.729,0.25,115,162.0
2513,D2,246.729,0.25,115,162.0
2514,B4,246.979,0.25,115,162.0
2515,G5,246.979,0.25,115,162.0
2516,D2,247.215,0.25,115,162.0
2517,A4,247.215,0.25,115,162.0
2518,F#5,247.215,0.25,115,162.0
2519,B1,247.215,0.25,115,162.0
2520,B4,247.479,0.25,115,162.0
2521,D2,247.479,0.25,115,162.0
2522,G5,247.479,0.25,115,162.0
2523,B1,247.479,0.25,115,162.0
2524,D5,247.729,0.5,115,162.0
2525,D2,247.729,0.5,115,162.0
2526,B5,247.729,0.5,115,162.0
2527,E-3,247.729,0.25,115,162.0
2528,B1,247.729,0.25,115,162.0
2529,B4,248.229,103/200,115,162.0
2530,G5,248.229,103/200,115,162.0
2531,D2,248.229,0.25,115,162.0
2532,B1,248.229,0.25,115,162.0
2533,D2,248.479,0.25,115,162.0
2534,B1,248.479,0.25,115,162.0
2535,D2,248.729,0.5,115,162.0
2536,A4,248.729,0.25,115,162.0
2537,F#5,248.729,0.25,115,162.0
2538,E-3,248.729,0.25,115,162.0
2539,D2,248.729,0.25,115,162.0
2540,B4,248.979,0.25,115,162.0
2541,G5,248.979,0.25,115,162.0
2542,A4,249.229,0.25,115,162.0
2543,D2,249.229,0.25,115,162.0
2544,F#5,249.229,0.25,115,162.0
2545,B1,249.229,0.25,115,162.0
2546,B4,249.479,0.25,115,162.0
2547,D2,249.479,0.25,115,162.0
2548,G5,249.479,0.25,115,162.0
2549,B1,249.479,0.25,115,162.0
2550,B4,249.729,0.5,115,162.0
2551,D2,249.729,0.5,115,162.0
2552,G5,249.729,0.5,115,162.0
2553,E2,249.729,0.25,115,162.0
2554,D3,249.729,0.25,115,162.0
2555,E2,249.979,0.25,115,162.0
2556,G4,250.229,0.5,115,162.0
2557,E5,250.229,0.5,115,162.0
2558,D2,250.229,0.25,115,162.0
2559,E2,250.229,0.25,115,162.0
2560,D2,250.479,0.25,115,162.0
2561,A2,250.479,0.25,115,162.0
2562,D2,250.729,0.5,115,162.0
2563,C3,250.729,0.25,115,162.0
2564,G4,250.729,1.0,115,162.0
2565,E5,250.729,1.0,115,162.0
2566,C3,250.979,0.25,115,162.0
2567,D2,251.229,0.25,115,162.0
2568,C3,251.229,0.25,115,162.0
2569,D2,251.479,0.25,115,162.0
2570,C3,251.479,0.25,115,162.0
2571,B2,251.729,0.25,115,162.0
2572,F#4,251.729,0.5,115,162.0
2573,D2,251.729,0.5,115,162.0
2574,B4,251.729,0.5,115,162.0
2575,B2,251.979,0.25,115,162.0
2576,A2,252.229,0.25,115,162.0
2577,G4,252.229,0.5,115,162.0
2578,G2,252.229,0.5,115,162.0
2579,D5,252.229,0.5,115,162.0
2580,A2,252.479,0.25,115,162.0
2581,G2,252.729,0.25,115,162.0
2582,F#4,252.729,0.5,115,162.0
2583,D2,252.729,0.5,115,162.0
2584,B4,252.729,0.5,115,162.0
2585,G4,253.229,0.5,115,162.0
2586,E2,253.229,0.5,115,162.0
2587,E5,253.229,0.5,115,162.0
2588,B1,253.229,0.25,115,162.0
2589,C#3,253.229,0.25,115,162.0
2590,G4,254.202,473/1000,115,162.0
2591,E2,254.202,473/1000,115,162.0
2592,E5,254.202,473/1000,115,162.0
2593,B4,254.702,103/200,115,162.0
2594,G5,254.702,103/200,115,162.0
2595,E2,254.702,0.25,115,162.0
2596,B1,254.702,0.25,115,162.0
2597,E2,254.952,0.25,115,162.0
2598,B1,254.952,0.25,115,162.0
2599,E2,255.202,479/1000,115,162.0
2600,A4,255.202,0.25,115,162.0
2601,F#5,255.202,0.25,115,162.0
2602,E-3,255.202,0.25,115,162.0
2603,D2,255.202,0.25,115,162.0
2604,B4,255.452,0.25,115,162.0
2605,G5,255.452,0.25,115,162.0
2606,E2,255.688,0.25,115,162.0
2607,A4,255.688,0.25,115,162.0
2608,F#5,255.688,0.25,115,162.0
2609,B1,255.688,0.25,115,162.0
2610,B4,255.952,0.25,115,162.0
2611,E2,255.952,0.25,115,162.0
2612,G5,255.952,0.25,115,162.0
2613,B1,255.952,0.25,115,162.0
2614,D5,256.202,0.5,115,162.0
2615,E2,256.202,0.5,115,162.0
2616,B5,256.202,0.5,115,162.0
2617,E-3,256.202,0.25,115,162.0
2618,B1,256.202,0.25,115,162.0
2619,B4,256.702,103/200,115,162.0
2620,G5,256.702,103/200,115,162.0
2621,E2,256.702,0.25,115,162.0
2622,B1,256.702,0.25,115,162.0
2623,E2,256.952,0.25,115,162.0
2624,B1,256.952,0.25,115,162.0
2625,E2,257.202,0.5,115,162.0
2626,A4,257.202,0.25,115,162.0
2627,F#5,257.202,0.25,115,162.0
2628,E-3,257.202,0.25,115,162.0
2629,D2,257.202,0.25,115,162.0
2630,B4,257.452,0.25,115,162.0
2631,G5,257.452,0.25,115,162.0
2632,A4,257.702,0.25,115,162.0
2633,E2,257.702,0.25,115,162.0
2634,F#5,257.702,0.25,115,162.0
2635,B1,257.702,0.25,115,162.0
2636,B4,257.952,0.25,115,162.0
2637,E2,257.952,0.25,115,162.0
2638,G5,257.952,0.25,115,162.0
2639,B1,257.952,0.25,115,162.0
2640,B4,258.202,0.5,115,162.0
2641,E2,258.202,0.5,115,162.0
2642,G5,258.202,0.5,115,162.0
2643,B1,258.202,0.25,115,162.0
2644,E-3,258.202,0.25,115,162.0
2645,G4,258.702,0.5,115,162.0
2646,E5,258.702,0.5,115,162.0
2647,E2,258.702,0.25,115,162.0
2648,B1,258.702,0.25,115,162.0
2649,E2,258.952,0.25,115,162.0
2650,B1,258.952,0.25,115,162.0
2651,E2,259.202,0.5,115,162.0
2652,G4,259.202,1.0,115,162.0
2653,E5,259.202,1.0,115,162.0
2654,E-3,259.202,0.25,115,162.0
2655,D2,259.202,0.25,115,162.0
2656,E2,259.702,0.25,115,162.0
2657,B1,259.702,0.25,115,162.0
2658,E2,259.952,0.25,115,162.0
2659,F#4,260.202,0.5,115,162.0
2660,D2,260.202,0.5,115,162.0
2661,B4,260.202,0.5,115,162.0
2662,E-3,260.202,0.25,115,162.0
2663,B1,260.202,0.25,115,162.0
2664,B1,260.702,0.25,115,162.0
2665,G4,260.702,0.5,115,162.0
2666,G2,260.702,0.5,115,162.0
2667,D5,260.702,0.5,115,162.0
2668,F#4,261.202,0.5,115,162.0
2669,D2,261.202,0.5,115,162.0
2670,B4,261.202,0.5,115,162.0
2671,E-3,261.202,0.25,115,162.0
2672,D2,261.202,0.25,115,162.0
2673,G4,261.702,0.5,115,162.0
2674,E2,261.702,0.5,115,162.0
2675,E5,261.702,0.5,115,162.0
2676,B1,261.702,0.25,115,162.0
2677,C#3,261.702,0.25,115,162.0
2678,G4,262.675,473/1000,115,162.0
2679,E2,262.675,473/1000,115,162.0
2680,E5,262.675,473/1000,115,162.0
2681,B4,263.175,103/200,115,162.0
2682,G5,263.175,103/200,115,162.0
2683,E2,263.175,0.25,115,162.0
2684,B1,263.175,0.25,115,162.0
2685,E2,263.425,0.25,115,162.0
2686,B1,263.425,0.25,115,162.0
2687,E2,263.675,479/1000,115,162.0
2688,A4,263.675,0.25,115,162.0
2689,F#5,263.675,0.25,115,162.0
2690,E-3,263.675,0.25,115,162.0
2691,D2,263.675,0.25,115,162.0
2692,B4,263.925,0.25,115,162.0
2693,G5,263.925,0.25,115,162.0
2694,E2,264.16,0.25,115,162.0
2695,A4,264.16,0.25,115,162.0
2696,F#5,264.16,0.25,115,162.0
2697,B1,264.16,0.25,115,162.0
2698,B4,264.425,0.25,115,162.0
2699,E2,264.425,0.25,115,162.0
2700,G5,264.425,0.25,115,162.0
2701,B1,264.425,0.25,115,162.0
2702,D5,264.675,0.5,115,162.0
2703,E2,264.675,0.5,115,162.0
2704,B5,264.675,0.5,115,162.0
2705,E-3,264.675,0.25,115,162.0
2706,B1,264.675,0.25,115,162.0
2707,B4,265.175,103/200,115,162.0
2708,G5,265.175,103/200,115,162.0
2709,E2,265.175,0.25,115,162.0
2710,B1,265.175,0.25,115,162.0
2711,E2,265.425,0.25,115,162.0
2712,B1,265.425,0.25,115,162.0
2713,E2,265.675,0.5,115,162.0
2714,A4,265.675,0.25,115,162.0
2715,F#5,265.675,0.25,115,162.0
2716,E-3,265.675,0.25,115,162.0
2717,D2,265.675,0.25,115,162.0
2718,B4,265.925,0.25,115,162.0
2719,G5,265.925,0.25,115,162.0
2720,A4,266.175,0.25,115,162.0
2721,E2,266.175,0.25,115,162.0
2722,F#5,266.175,0.25,115,162.0
2723,B1,266.175,0.25,115,162.0
2724,B4,266.425,0.25,115,162.0
2725,E2,266.425,0.25,115,162.0
2726,G5,266.425,0.25,115,162.0
2727,B1,266.425,0.25,115,162.0
2728,B4,266.675,0.5,115,162.0
2729,E2,266.675,0.5,115,162.0
2730,G5,266.675,0.5,115,162.0
2731,B1,266.675,0.25,115,162.0
2732,E-3,266.675,0.25,115,162.0
2733,G4,267.175,0.5,115,162.0
2734,E5,267.175,0.5,115,162.0
2735,E2,267.175,0.25,115,162.0
2736,B1,267.175,0.25,115,162.0
2737,E2,267.425,0.25,115,162.0
2738,B1,267.425,0.25,115,162.0
2739,E2,267.675,0.5,115,162.0
2740,G4,267.675,1.0,115,162.0
2741,E5,267.675,1.0,115,162.0
2742,E-3,267.675,0.25,115,162.0
2743,D2,267.675,0.25,115,162.0
2744,E2,268.175,0.25,115,162.0
2745,B1,268.175,0.25,115,162.0
2746,E2,268.425,0.25,115,162.0
2747,F#4,268.675,0.5,115,162.0
2748,D2,268.675,0.5,115,162.0
2749,B4,268.675,0.5,115,162.0
2750,E-3,268.675,0.25,115,162.0
2751,B1,268.675,0.25,115,162.0
2752,B1,269.175,0.25,115,162.0
2753,G4,269.175,0.5,115,162.0
2754,G2,269.175,0.5,115,162.0
2755,D5,269.175,0.5,115,162.0
2756,F#4,269.675,0.5,115,162.0
2757,D2,269.675,0.5,115,162.0
2758,B4,269.675,0.5,115,162.0
2759,E-3,269.675,0.25,115,162.0
2760,D2,269.675,0.25,115,162.0
2761,G4,270.175,0.5,115,162.0
2762,C2,270.175,0.5,115,162.0
2763,C5,270.175,0.5,115,162.0
2764,B1,270.175,0.25,115,162.0
2765,C#3,270.175,0.25,115,162.0
2766,G4,271.148,473/1000,115,162.0
2767,C2,271.148,473/1000,115,162.0
2768,C5,271.148,473/1000,115,162.0
2769,B4,271.648,103/200,115,162.0
2770,G5,271.648,103/200,115,162.0
2771,C2,271.648,0.25,115,162.0
2772,B1,271.648,0.25,115,162.0
2773,C2,271.898,0.25,115,162.0
2774,B1,271.898,0.25,115,162.0
2775,C2,272.148,479/1000,115,162.0
2776,A4,272.148,0.25,115,162.0
2777,F#5,272.148,0.25,115,162.0
2778,E-3,272.148,0.25,115,162.0
2779,D2,272.148,0.25,115,162.0
2780,B4,272.398,0.25,115,162.0
2781,G5,272.398,0.25,115,162.0
2782,C2,272.633,0.25,115,162.0
2783,A4,272.633,0.25,115,162.0
2784,F#5,272.633,0.25,115,162.0
2785,B1,272.633,0.25,115,162.0
2786,B4,272.898,0.25,115,162.0
2787,C2,272.898,0.25,115,162.0
2788,G5,272.898,0.25,115,162.0
2789,B1,272.898,0.25,115,162.0
2790,D5,273.148,0.5,115,162.0
2791,C2,273.148,0.5,115,162.0
2792,B5,273.148,0.5,115,162.0
2793,E-3,273.148,0.25,115,162.0
2794,B1,273.148,0.25,115,162.0
2795,B4,273.648,103/200,115,162.0
2796,G5,273.648,103/200,115,162.0
2797,C2,273.648,0.25,115,162.0
2798,B1,273.648,0.25,115,162.0
2799,C2,273.898,0.25,115,162.0
2800,B1,273.898,0.25,115,162.0
2801,C2,274.148,0.5,115,162.0
2802,A4,274.148,0.25,115,162.0
2803,F#5,274.148,0.25,115,162.0
2804,E-3,274.148,0.25,115,162.0
2805,D2,274.148,0.25,115,162.0
2806,B4,274.398,0.25,115,162.0
2807,G5,274.398,0.25,115,162.0
2808,A4,274.648,0.25,115,162.0
2809,C2,274.648,0.25,115,162.0
2810,F#5,274.648,0.25,115,162.0
2811,B1,274.648,0.25,115,162.0
2812,B4,274.898,0.25,115,162.0
2813,C2,274.898,0.25,115,162.0
2814,G5,274.898,0.25,115,162.0
2815,B1,274.898,0.25,115,162.0
2816,B4,275.148,0.5,115,162.0
2817,C2,275.148,0.5,115,162.0
2818,G5,275.148,0.5,115,162.0
2819,B1,275.148,0.25,115,162.0
2820,E-3,275.148,0.25,115,162.0
2821,G4,275.648,0.5,115,162.0
2822,E5,275.648,0.5,115,162.0
2823,C2,275.648,0.25,115,162.0
2824,B1,275.648,0.25,115,162.0
2825,C2,275.898,0.25,115,162.0
2826,B1,275.898,0.25,115,162.0
2827,C2,276.148,0.5,115,162.0
2828,G4,276.148,1.0,115,162.0
2829,E5,276.148,1.0,115,162.0
2830,E-3,276.148,0.25,115,162.0
2831,D2,276.148,0.25,115,162.0
2832,C2,276.648,0.25,115,162.0
2833,B1,276.648,0.25,115,162.0
2834,C2,276.898,0.25,115,162.0
2835,F#4,277.148,0.5,115,162.0
2836,D2,277.148,0.5,115,162.0
2837,B4,277.148,0.5,115,162.0
2838,E-3,277.148,0.25,115,162.0
2839,B1,277.148,0.25,115,162.0
2840,B1,277.648,0.25,115,162.0
2841,G4,277.648,0.5,115,162.0
2842,G2,277.648,0.5,115,162.0
2843,D5,277.648,0.5,115,162.0
2844,F#4,278.148,0.5,115,162.0
2845,D2,278.148,0.5,115,162.0
2846,B4,278.148,0.5,115,162.0
2847,E-3,278.148,0.25,115,162.0
2848,D2,278.148,0.25,115,162.0
2849,G4,278.648,0.5,115,162.0
2850,D2,278.648,0.5,115,162.0
2851,E5,278.648,0.5,115,162.0
2852,B1,278.648,0.25,115,162.0
2853,C#3,278.648,0.25,115,162.0
2854,G4,279.621,473/1000,115,162.0
2855,D2,279.621,473/1000,115,162.0
2856,E5,279.621,473/1000,115,162.0
2857,B4,280.121,103/200,115,162.0
2858,G5,280.121,103/200,115,162.0
2859,D2,280.121,0.25,115,162.0
2860,B1,280.121,0.25,115,162.0
2861,D2,280.371,0.25,115,162.0
2862,B1,280.371,0.25,115,162.0
2863,D2,280.621,479/1000,115,162.0
2864,A4,280.621,0.25,115,162.0
2865,F#5,280.621,0.25,115,162.0
2866,E-3,280.621,0.25,115,162.0
2867,D2,280.621,0.25,115,162.0
2868,B4,280.871,0.25,115,162.0
2869,G5,280.871,0.25,115,162.0
2870,D2,281.106,0.25,115,162.0
2871,A4,281.106,0.25,115,162.0
2872,F#5,281.106,0.25,115,162.0
2873,B1,281.106,0.25,115,162.0
2874,B4,281.371,0.25,115,162.0
2875,D2,281.371,0.25,115,162.0
2876,G5,281.371,0.25,115,162.0
2877,B1,281.371,0.25,115,162.0
2878,D5,281.621,0.5,115,162.0
2879,D2,281.621,0.5,115,162.0
2880,B5,281.621,0.5,115,162.0
2881,E-3,281.621,0.25,115,162.0
2882,B1,281.621,0.25,115,162.0
2883,B4,282.121,103/200,115,162.0
2884,G5,282.121,103/200,115,162.0
2885,D2,282.121,0.25,115,162.0
2886,B1,282.121,0.25,115,162.0
2887,D2,282.371,0.25,115,162.0
2888,B1,282.371,0.25,115,162.0
2889,D2,282.621,0.5,115,162.0
2890,A4,282.621,0.25,115,162.0
2891,F#5,282.621,0.25,115,162.0
2892,E-3,282.621,0.25,115,162.0
2893,D2,282.621,0.25,115,162.0
2894,B4,282.871,0.25,115,162.0
2895,G5,282.871,0.25,115,162.0
2896,A4,283.121,0.25,115,162.0
2897,D2,283.121,0.25,115,162.0
2898,F#5,283.121,0.25,115,162.0
2899,B1,283.121,0.25,115,162.0
2900,B4,283.371,0.25,115,162.0
2901,D2,283.371,0.25,115,162.0
2902,G5,283.371,0.25,115,162.0
2903,B1,283.371,0.25,115,162.0
2904,D2,283.621,0.25,115,162.0
2905,B4,283.621,0.5,115,162.0
2906,D2,283.621,0.5,115,162.0
2907,G5,283.621,0.5,115,162.0
2908,G4,284.121,0.5,115,162.0
2909,E5,284.121,0.5,115,162.0
2910,D2,284.121,0.25,115,162.0
2911,D2,284.121,0.25,115,162.0
2912,D2,284.371,0.25,115,162.0
2913,D2,284.371,0.25,115,162.0
2914,D2,284.621,0.5,115,162.0
2915,D2,284.621,0.25,115,162.0
2916,G4,284.621,1.0,115,162.0
2917,E5,284.621,1.0,115,162.0
2918,D2,285.121,0.25,115,162.0
2919,B2,285.121,0.25,115,162.0
2920,D2,285.371,0.25,115,162.0
2921,A2,285.621,0.25,115,162.0
2922,D3,285.621,0.5,115,162.0
2923,A3,285.621,0.5,115,162.0
2924,D2,285.621,0.5,115,162.0
2925,A3,285.621,0.5,115,162.0
2926,D3,285.621,0.5,115,162.0
2927,A2,285.871,0.25,115,162.0
2928,A2,286.121,0.25,115,162.0
2929,A3,286.121,0.5,115,162.0
2930,G2,286.121,0.5,115,162.0
2931,A3,286.121,0.5,115,162.0
2932,D3,286.371,0.25,115,162.0
2933,D3,286.371,0.25,115,162.0
2934,A2,286.621,0.25,115,162.0
2935,D3,286.621,0.5,115,162.0
2936,A3,286.621,0.5,115,162.0
2937,D2,286.621,0.5,115,162.0
2938,D3,286.621,0.5,115,162.0
2939,A3,286.621,0.5,115,162.0
2940,B3,287.121,0.5,115,162.0
2941,E3,287.121,0.5,115,162.0
2942,E2,287.121,0.5,115,162.0
2943,B3,287.121,0.5,115,162.0
2944,E3,287.121,0.5,115,162.0
2945,B1,287.121,0.25,115,162.0
2946,C#3,287.121,0.25,115,162.0
2947,B3,288.121,0.5,115,162.0
2948,E3,288.121,0.5,115,162.0
2949,E2,288.121,0.5,115,162.0
2950,B3,288.121,0.5,115,162.0
2951,E3,288.121,0.5,115,162.0
2952,B5,288.606,0.5,115,162.0
2953,E3,288.621,0.188,115,162.0
2954,B3,288.621,0.188,115,162.0
2955,E2,288.621,0.188,115,162.0
2956,B1,288.621,0.188,115,162.0
2957,E3,288.621,0.188,115,162.0
2958,B3,288.621,0.188,115,162.0
2959,E3,288.871,0.188,115,162.0
2960,B3,288.871,0.188,115,162.0
2961,E2,288.871,0.188,115,162.0
2962,B1,288.871,0.188,115,162.0
2963,E3,288.871,0.188,115,162.0
2964,B3,288.871,0.188,115,162.0
2965,B5,289.106,479/1000,115,162.0
2966,E2,289.106,479/1000,115,162.0
2967,E3,289.121,0.375,115,162.0
2968,B3,289.121,0.375,115,162.0
2969,E3,289.121,0.375,115,162.0
2970,B3,289.121,0.375,115,162.0
2971,E-3,289.121,0.25,115,162.0
2972,D2,289.121,0.25,115,162.0
2973,B5,289.606,0.5,115,162.0
2974,E2,289.606,0.188,115,162.0
2975,B3,289.606,0.188,115,162.0
2976,E3,289.606,0.188,115,162.0
2977,B3,289.606,0.188,115,162.0
2978,E3,289.606,0.188,115,162.0
2979,B1,289.621,0.125,115,162.0
2980,E3,289.871,0.188,115,162.0
2981,B3,289.871,0.188,115,162.0
2982,E2,289.871,0.188,115,162.0
2983,B1,289.871,0.188,115,162.0
2984,E3,289.871,0.188,115,162.0
2985,B3,289.871,0.188,115,162.0
2986,B5,290.106,0.5,115,162.0
2987,E2,290.106,0.5,115,162.0
2988,E3,290.121,0.375,115,162.0
2989,B3,290.121,0.375,115,162.0
2990,E3,290.121,0.375,115,162.0
2991,B3,290.121,0.375,115,162.0
2992,E-3,290.121,0.25,115,162.0
2993,B1,290.121,0.25,115,162.0
2994,A5,290.621,0.5,115,162.0
2995,B3,290.621,0.188,115,162.0
2996,E3,290.621,0.188,115,162.0
2997,E2,290.621,0.188,115,162.0
2998,B1,290.621,0.188,115,162.0
2999,B3,290.621,0.188,115,162.0
3000,E3,290.621,0.188,115,162.0
3001,E3,290.871,0.188,115,162.0
3002,B3,290.871,0.188,115,162.0
3003,E2,290.871,0.188,115,162.0
3004,B1,290.871,0.188,115,162.0
3005,E3,290.871,0.188,115,162.0
3006,B3,290.871,0.188,115,162.0
3007,E3,291.121,0.375,115,162.0
3008,B3,291.121,0.375,115,162.0
3009,E3,291.121,0.375,115,162.0
3010,B3,291.121,0.375,115,162.0
3011,E2,291.121,0.5,115,162.0
3012,A5,291.121,0.5,115,162.0
3013,E-3,291.121,0.25,115,162.0
3014,D2,291.121,0.25,115,162.0
3015,G5,291.621,0.5,115,162.0
3016,B3,291.621,0.188,115,162.0
3017,E3,291.621,0.188,115,162.0
3018,E2,291.621,0.188,115,162.0
3019,B1,291.621,0.188,115,162.0
3020,B3,291.621,0.188,115,162.0
3021,E3,291.621,0.188,115,162.0
3022,E3,291.871,0.188,115,162.0
3023,B3,291.871,0.188,115,162.0
3024,E2,291.871,0.188,115,162.0
3025,B1,291.871,0.188,115,162.0
3026,E3,291.871,0.188,115,162.0
3027,B3,291.871,0.188,115,162.0
3028,E3,292.121,0.375,115,162.0
3029,B3,292.121,0.375,115,162.0
3030,E3,292.121,0.375,115,162.0
3031,B3,292.121,0.375,115,162.0
3032,E2,292.121,0.5,115,162.0
3033,G5,292.121,0.5,115,162.0
3034,E-3,292.121,0.25,115,162.0
3035,B1,292.121,0.25,115,162.0
3036,F#5,292.621,0.5,115,162.0
3037,B3,292.621,0.188,115,162.0
3038,E3,292.621,0.188,115,162.0
3039,E2,292.621,0.188,115,162.0
3040,B1,292.621,0.188,115,162.0
3041,B3,292.621,0.188,115,162.0
3042,E3,292.621,0.188,115,162.0
3043,E3,292.871,0.188,115,162.0
3044,B3,292.871,0.188,115,162.0
3045,E2,292.871,0.188,115,162.0
3046,B1,292.871,0.188,115,162.0
3047,E3,292.871,0.188,115,162.0
3048,B3,292.871,0.188,115,162.0
3049,B5,293.106,2.0,115,162.0
3050,E2,293.121,0.5,115,162.0
3051,E3,293.121,0.375,115,162.0
3052,B3,293.121,0.375,115,162.0
3053,E3,293.121,0.375,115,162.0
3054,B3,293.121,0.375,115,162.0
3055,D2,293.121,0.25,115,162.0
3056,E-3,293.121,0.25,115,162.0
3057,B3,293.621,0.188,115,162.0
3058,E3,293.621,0.188,115,162.0
3059,E2,293.621,0.188,115,162.0
3060,B1,293.621,0.188,115,162.0
3061,B3,293.621,0.188,115,162.0
3062,E3,293.621,0.188,115,162.0
3063,E3,293.871,0.188,115,162.0
3064,B3,293.871,0.188,115,162.0
3065,E2,293.871,0.188,115,162.0
3066,B1,293.871,0.188,115,162.0
3067,E3,293.871,0.188,115,162.0
3068,B3,293.871,0.188,115,162.0
3069,D3,294.121,0.5,115,162.0
3070,A3,294.121,0.5,115,162.0
3071,D2,294.121,0.5,115,162.0
3072,D3,294.121,0.5,115,162.0
3073,A3,294.121,0.5,115,162.0
3074,E-3,294.121,0.25,115,162.0
3075,B1,294.121,0.25,115,162.0
3076,A3,294.621,0.5,115,162.0
3077,G2,294.621,0.5,115,162.0
3078,A3,294.621,0.5,115,162.0
3079,D3,294.871,0.25,115,162.0
3080,D3,294.871,0.25,115,162.0
3081,D3,295.121,0.5,115,162.0
3082,A3,295.121,0.5,115,162.0
3083,D2,295.121,0.5,115,162.0
3084,D3,295.121,0.5,115,162.0
3085,A3,295.121,0.5,115,162.0
3086,E-3,295.121,0.25,115,162.0
3087,D2,295.121,0.25,115,162.0
3088,B3,295.621,0.5,115,162.0
3089,E3,295.621,0.5,115,162.0
3090,E2,295.621,0.5,115,162.0
3091,B3,295.621,0.5,115,162.0
3092,E3,295.621,0.5,115,162.0
3093,C#3,295.621,0.25,115,162.0
3094,B1,295.621,0.25,115,162.0
3095,B3,296.121,0.5,115,162.0
3096,E3,296.121,0.5,115,162.0
3097,E2,296.121,0.5,115,162.0
3098,B3,296.121,0.5,115,162.0
3099,E3,296.121,0.5,115,162.0
3100,B5,296.606,0.5,115,162.0
3101,E3,296.621,0.188,115,162.0
3102,B3,296.621,0.188,115,162.0
3103,E2,296.621,0.188,115,162.0
3104,B1,296.621,0.188,115,162.0
3105,E3,296.621,0.188,115,162.0
3106,B3,296.621,0.188,115,162.0
3107,E3,296.871,0.188,115,162.0
3108,B3,296.871,0.188,115,162.0
3109,E2,296.871,0.188,115,162.0
3110,B1,296.871,0.188,115,162.0
3111,E3,296.871,0.188,115,162.0
3112,B3,296.871,0.188,115,162.0
3113,B5,297.106,479/1000,115,162.0
3114,E2,297.106,479/1000,115,162.0
3115,E3,297.121,0.375,115,162.0
3116,B3,297.121,0.375,115,162.0
3117,E3,297.121,0.375,115,162.0
3118,B3,297.121,0.375,115,162.0
3119,D2,297.121,0.25,115,162.0
3120,E-3,297.121,0.25,115,162.0
3121,B5,297.606,0.5,115,162.0
3122,E2,297.606,0.188,115,162.0
3123,B3,297.606,0.188,115,162.0
3124,E3,297.606,0.188,115,162.0
3125,B3,297.606,0.188,115,162.0
3126,E3,297.606,0.188,115,162.0
3127,B1,297.621,0.125,115,162.0
3128,E3,297.871,0.188,115,162.0
3129,B3,297.871,0.188,115,162.0
3130,E2,297.871,0.188,115,162.0
3131,B1,297.871,0.188,115,162.0
3132,E3,297.871,0.188,115,162.0
3133,B3,297.871,0.188,115,162.0
3134,B5,298.106,0.5,115,162.0
3135,E2,298.106,0.5,115,162.0
3136,E3,298.121,0.375,115,162.0
3137,B3,298.121,0.375,115,162.0
3138,E3,298.121,0.375,115,162.0
3139,B3,298.121,0.375,115,162.0
3140,E-3,298.121,0.25,115,162.0
3141,B1,298.121,0.25,115,162.0
3142,B5,298.606,0.5,115,162.0
3143,B3,298.621,0.188,115,162.0
3144,E3,298.621,0.188,115,162.0
3145,E2,298.621,0.188,115,162.0
3146,B1,298.621,0.188,115,162.0
3147,B3,298.621,0.188,115,162.0
3148,E3,298.621,0.188,115,162.0
3149,E3,298.871,0.188,115,162.0
3150,B3,298.871,0.188,115,162.0
3151,E2,298.871,0.188,115,162.0
3152,B1,298.871,0.188,115,162.0
3153,E3,298.871,0.188,115,162.0
3154,B3,298.871,0.188,115,162.0
3155,A5,299.106,0.5,115,162.0
3156,E2,299.106,0.5,115,162.0
3157,E3,299.121,0.375,115,162.0
3158,B3,299.121,0.375,115,162.0
3159,E3,299.121,0.375,115,162.0
3160,B3,299.121,0.375,115,162.0
3161,E-3,299.121,0.25,115,162.0
3162,D2,299.121,0.25,115,162.0
3163,G5,299.606,0.5,115,162.0
3164,B3,299.621,0.188,115,162.0
3165,E3,299.621,0.188,115,162.0
3166,E2,299.621,0.188,115,162.0
3167,B1,299.621,0.188,115,162.0
3168,B3,299.621,0.188,115,162.0
3169,E3,299.621,0.188,115,162.0
3170,E3,299.871,0.188,115,162.0
3171,B3,299.871,0.188,115,162.0
3172,E2,299.871,0.188,115,162.0
3173,B1,299.871,0.188,115,162.0
3174,E3,299.871,0.188,115,162.0
3175,B3,299.871,0.188,115,162.0
3176,A5,300.106,3/200,115,162.0
3177,E2,300.106,3/200,115,162.0
3178,E3,300.121,0.375,115,162.0
3179,B3,300.121,0.375,115,162.0
3180,E3,300.121,0.375,115,162.0
3181,B3,300.121,0.375,115,162.0
3182,B1,300.121,0.25,115,162.0
3183,E-3,300.121,0.25,115,162.0
3184,A5,300.121,97/200,115,162.0
3185,E2,300.121,97/200,115,162.0
3186,B5,300.606,0.5,115,162.0
3187,B3,300.621,0.188,115,162.0
3188,E3,300.621,0.188,115,162.0
3189,E2,300.621,0.188,115,162.0
3190,B1,300.621,0.188,115,162.0
3191,B3,300.621,0.188,115,162.0
3192,E3,300.621,0.188,115,162.0
3193,E3,300.871,0.188,115,162.0
3194,B3,300.871,0.188,115,162.0
3195,E2,300.871,0.188,115,162.0
3196,B1,300.871,0.188,115,162.0
3197,E3,300.871,0.188,115,162.0
3198,B3,300.871,0.188,115,162.0
3199,A5,301.106,0.5,115,162.0
3200,E2,301.106,0.5,115,162.0
3201,E3,301.121,0.375,115,162.0
3202,B3,301.121,0.375,115,162.0
3203,E3,301.121,0.375,115,162.0
3204,B3,301.121,0.375,115,162.0
3205,D2,301.121,0.25,115,162.0
3206,E-3,301.121,0.25,115,162.0
3207,G5,301.606,1.0,115,162.0
3208,B3,301.621,0.188,115,162.0
3209,E3,301.621,0.188,115,162.0
3210,E2,301.621,0.188,115,162.0
3211,B1,301.621,0.188,115,162.0
3212,B3,301.621,0.188,115,162.0
3213,E3,301.621,0.188,115,162.0
3214,E3,301.871,0.188,115,162.0
3215,B3,301.871,0.188,115,162.0
3216,E2,301.871,0.188,115,162.0
3217,B1,301.871,0.188,115,162.0
3218,E3,301.871,0.188,115,162.0
3219,B3,301.871,0.188,115,162.0
3220,D3,302.121,0.5,115,162.0
3221,A3,302.121,0.5,115,162.0
3222,D2,302.121,0.5,115,162.0
3223,D3,302.121,0.5,115,162.0
3224,A3,302.121,0.5,115,162.0
3225,E-3,302.121,0.25,115,162.0
3226,B1,302.121,0.25,115,162.0
3227,A3,302.621,0.5,115,162.0
3228,G2,302.621,0.5,115,162.0
3229,A3,302.621,0.5,115,162.0
3230,D3,302.871,0.25,115,162.0
3231,D3,302.871,0.25,115,162.0
3232,D3,303.121,0.5,115,162.0
3233,A3,303.121,0.5,115,162.0
3234,D2,303.121,0.5,115,162.0
3235,D3,303.121,0.5,115,162.0
3236,A3,303.121,0.5,115,162.0
3237,E-3,303.121,0.25,115,162.0
3238,D2,303.121,0.25,115,162.0
3239,C3,303.621,0.5,115,162.0
3240,G3,303.621,0.5,115,162.0
3241,C2,303.621,0.5,115,162.0
3242,C3,303.621,0.5,115,162.0
3243,G3,303.621,0.5,115,162.0
3244,B1,303.621,0.25,115,162.0
3245,C#3,303.621,0.25,115,162.0
3246,C3,304.121,0.5,115,162.0
3247,G3,304.121,0.5,115,162.0
3248,C2,304.121,0.5,115,162.0
3249,C3,304.121,0.5,115,162.0
3250,G3,304.121,0.5,115,162.0
3251,B5,304.615,0.5,115,162.0
3252,C3,304.621,0.188,115,162.0
3253,G3,304.621,0.188,115,162.0
3254,C2,304.621,0.188,115,162.0
3255,B1,304.621,0.188,115,162.0
3256,C3,304.621,0.188,115,162.0
3257,G3,304.621,0.188,115,162.0
3258,C3,304.871,0.188,115,162.0
3259,G3,304.871,0.188,115,162.0
3260,C2,304.871,0.188,115,162.0
3261,B1,304.871,0.188,115,162.0
3262,C3,304.871,0.188,115,162.0
3263,G3,304.871,0.188,115,162.0
3264,B5,305.115,479/1000,115,162.0
3265,C2,305.115,479/1000,115,162.0
3266,C3,305.121,0.375,115,162.0
3267,G3,305.121,0.375,115,162.0
3268,C3,305.121,0.375,115,162.0
3269,G3,305.121,0.375,115,162.0
3270,D2,305.121,0.25,115,162.0
3271,E-3,305.121,0.25,115,162.0
3272,C2,305.606,0.188,115,162.0
3273,G3,305.606,0.188,115,162.0
3274,C3,305.606,0.188,115,162.0
3275,G3,305.606,0.188,115,162.0
3276,C3,305.606,0.188,115,162.0
3277,B5,305.615,0.5,115,162.0
3278,B1,305.621,0.125,115,162.0
3279,C3,305.871,0.188,115,162.0
3280,G3,305.871,0.188,115,162.0
3281,C2,305.871,0.188,115,162.0
3282,B1,305.871,0.188,115,162.0
3283,C3,305.871,0.188,115,162.0
3284,G3,305.871,0.188,115,162.0
3285,B5,306.115,0.5,115,162.0
3286,C2,306.115,0.5,115,162.0
3287,C3,306.121,0.375,115,162.0
3288,G3,306.121,0.375,115,162.0
3289,C3,306.121,0.375,115,162.0
3290,G3,306.121,0.375,115,162.0
3291,E-3,306.121,0.25,115,162.0
3292,B1,306.121,0.25,115,162.0
3293,A5,306.615,0.5,115,162.0
3294,G3,306.621,0.188,115,162.0
3295,C3,306.621,0.188,115,162.0
3296,C2,306.621,0.188,115,162.0
3297,B1,306.621,0.188,115,162.0
3298,G3,306.621,0.188,115,162.0
3299,C3,306.621,0.188,115,162.0
3300,C3,306.871,0.188,115,162.0
3301,G3,306.871,0.188,115,162.0
3302,C2,306.871,0.188,115,162.0
3303,B1,306.871,0.188,115,162.0
3304,C3,306.871,0.188,115,162.0
3305,G3,306.871,0.188,115,162.0
3306,A5,307.115,0.5,115,162.0
3307,C2,307.115,0.5,115,162.0
3308,C3,307.121,0.375,115,162.0
3309,G3,307.121,0.375,115,162.0
3310,C3,307.121,0.375,115,162.0
3311,G3,307.121,0.375,115,162.0
3312,E-3,307.121,0.25,115,162.0
3313,D2,307.121,0.25,115,162.0
3314,G5,307.621,0.5,115,162.0
3315,G3,307.621,0.188,115,162.0
3316,C3,307.621,0.188,115,162.0
3317,C2,307.621,0.188,115,162.0
3318,B1,307.621,0.188,115,162.0
3319,G3,307.621,0.188,115,162.0
3320,C3,307.621,0.188,115,162.0
3321,C3,307.871,0.188,115,162.0
3322,G3,307.871,0.188,115,162.0
3323,C2,307.871,0.188,115,162.0
3324,B1,307.871,0.188,115,162.0
3325,C3,307.871,0.188,115,162.0
3326,G3,307.871,0.188,115,162.0
3327,A5,308.1,21/1000,115,162.0
3328,C2,308.1,21/1000,115,162.0
3329,C3,308.121,0.375,115,162.0
3330,G3,308.121,0.375,115,162.0
3331,C3,308.121,0.375,115,162.0
3332,G3,308.121,0.375,115,162.0
3333,B1,308.121,0.25,115,162.0
3334,E-3,308.121,0.25,115,162.0
3335,A5,308.121,479/1000,115,162.0
3336,C2,308.121,479/1000,115,162.0
3337,G5,308.6,64/125,115,162.0
3338,G3,308.621,0.188,115,162.0
3339,C3,308.621,0.188,115,162.0
3340,C2,308.621,0.188,115,162.0
3341,B1,308.621,0.188,115,162.0
3342,G3,308.621,0.188,115,162.0
3343,C3,308.621,0.188,115,162.0
3344,C3,308.871,0.188,115,162.0
3345,G3,308.871,0.188,115,162.0
3346,C2,308.871,0.188,115,162.0
3347,B1,308.871,0.188,115,162.0
3348,C3,308.871,0.188,115,162.0
3349,G3,308.871,0.188,115,162.0
3350,B5,309.1,1.0,115,162.0
3351,C2,309.121,0.5,115,162.0
3352,C3,309.121,0.375,115,162.0
3353,G3,309.121,0.375,115,162.0
3354,C3,309.121,0.375,115,162.0
3355,G3,309.121,0.375,115,162.0
3356,D2,309.121,0.25,115,162.0
3357,E-3,309.121,0.25,115,162.0
3358,G3,309.621,0.188,115,162.0
3359,C3,309.621,0.188,115,162.0
3360,C2,309.621,0.188,115,162.0
3361,B1,309.621,0.188,115,162.0
3362,G3,309.621,0.188,115,162.0
3363,C3,309.621,0.188,115,162.0
3364,C3,309.871,0.188,115,162.0
3365,G3,309.871,0.188,115,162.0
3366,C2,309.871,0.188,115,162.0
3367,B1,309.871,0.188,115,162.0
3368,C3,309.871,0.188,115,162.0
3369,G3,309.871,0.188,115,162.0
3370,D3,310.121,0.5,115,162.0
3371,A3,310.121,0.5,115,162.0
3372,D2,310.121,0.5,115,162.0
3373,D3,310.121,0.5,115,162.0
3374,A3,310.121,0.5,115,162.0
3375,E-3,310.121,0.25,115,162.0
3376,B1,310.121,0.25,115,162.0
3377,A3,310.621,0.5,115,162.0
3378,G2,310.621,0.5,115,162.0
3379,A3,310.621,0.5,115,162.0
3380,D3,310.871,0.25,115,162.0
3381,D3,310.871,0.25,115,162.0
3382,D3,311.121,0.5,115,162.0
3383,A3,311.121,0.5,115,162.0
3384,D2,311.121,0.5,115,162.0
3385,D3,311.121,0.5,115,162.0
3386,A3,311.121,0.5,115,162.0
3387,E-3,311.121,0.25,115,162.0
3388,D2,311.121,0.25,115,162.0
3389,B3,311.621,0.5,115,162.0
3390,E3,311.621,0.5,115,162.0
3391,E2,311.621,0.5,115,162.0
3392,B3,311.621,0.5,115,162.0
3393,E3,311.621,0.5,115,162.0
3394,B1,311.621,0.25,115,162.0
3395,C#3,311.621,0.25,115,162.0
3396,B3,312.121,0.5,115,162.0
3397,E3,312.121,0.5,115,162.0
3398,E2,312.121,0.5,115,162.0
3399,B3,312.121,0.5,115,162.0
3400,E3,312.121,0.5,115,162.0
3401,B5,312.615,0.5,115,162.0
3402,E3,312.621,0.188,115,162.0
3403,B3,312.621,0.188,115,162.0
3404,E2,312.621,0.188,115,162.0
3405,B1,312.621,0.188,115,162.0
3406,E3,312.621,0.188,115,162.0
3407,B3,312.621,0.188,115,162.0
3408,E3,312.871,0.188,115,162.0
3409,B3,312.871,0.188,115,162.0
3410,E2,312.871,0.188,115,162.0
3411,B1,312.871,0.188,115,162.0
3412,E3,312.871,0.188,115,162.0
3413,B3,312.871,0.188,115,162.0
3414,B5,313.115,479/1000,115,162.0
3415,E2,313.115,479/1000,115,162.0
3416,E3,313.121,0.375,115,162.0
3417,B3,313.121,0.375,115,162.0
3418,E3,313.121,0.375,115,162.0
3419,B3,313.121,0.375,115,162.0
3420,D2,313.121,0.25,115,162.0
3421,E-3,313.121,0.25,115,162.0
3422,E2,313.606,0.188,115,162.0
3423,B3,313.606,0.188,115,162.0
3424,E3,313.606,0.188,115,162.0
3425,B3,313.606,0.188,115,162.0
3426,E3,313.606,0.188,115,162.0
3427,B5,313.615,0.5,115,162.0
3428,B1,313.621,0.125,115,162.0
3429,E3,313.871,0.188,115,162.0
3430,B3,313.871,0.188,115,162.0
3431,E2,313.871,0.188,115,162.0
3432,B1,313.871,0.188,115,162.0
3433,E3,313.871,0.188,115,162.0
3434,B3,313.871,0.188,115,162.0
3435,D6,314.115,1027/1000,115,162.0
3436,E2,314.121,0.5,115,162.0
3437,E3,314.121,0.375,115,162.0
3438,B3,314.121,0.375,115,162.0
3439,E3,314.121,0.375,115,162.0
3440,B3,314.121,0.375,115,162.0
3441,E-3,314.121,0.25,115,162.0
3442,B1,314.121,0.25,115,162.0
3443,B3,314.621,0.188,115,162.0
3444,E3,314.621,0.188,115,162.0
3445,E2,314.621,0.188,115,162.0
3446,B1,314.621,0.188,115,162.0
3447,B3,314.621,0.188,115,162.0
3448,E3,314.621,0.188,115,162.0
3449,E3,314.871,0.188,115,162.0
3450,B3,314.871,0.188,115,162.0
3451,E2,314.871,0.188,115,162.0
3452,B1,314.871,0.188,115,162.0
3453,E3,314.871,0.188,115,162.0
3454,B3,314.871,0.188,115,162.0
3455,B5,315.115,0.5,115,162.0
3456,E2,315.115,0.5,115,162.0
3457,E3,315.121,0.375,115,162.0
3458,B3,315.121,0.375,115,162.0
3459,E3,315.121,0.375,115,162.0
3460,B3,315.121,0.375,115,162.0
3461,E-3,315.121,0.25,115,162.0
3462,D2,315.121,0.25,115,162.0
3463,B5,315.621,0.5,115,162.0
3464,B3,315.621,0.188,115,162.0
3465,E3,315.621,0.188,115,162.0
3466,E2,315.621,0.188,115,162.0
3467,B1,315.621,0.188,115,162.0
3468,B3,315.621,0.188,115,162.0
3469,E3,315.621,0.188,115,162.0
3470,E3,315.871,0.188,115,162.0
3471,B3,315.871,0.188,115,162.0
3472,E2,315.871,0.188,115,162.0
3473,B1,315.871,0.188,115,162.0
3474,E3,315.871,0.188,115,162.0
3475,B3,315.871,0.188,115,162.0
3476,B2,316.121,0.25,115,162.0
3477,E3,316.121,0.375,115,162.0
3478,B3,316.121,0.375,115,162.0
3479,E3,316.121,0.375,115,162.0
3480,B3,316.121,0.375,115,162.0
3481,E2,316.121,0.5,115,162.0
3482,B5,316.121,0.5,115,162.0
3483,B2,316.371,0.25,115,162.0
3484,B5,316.621,0.5,115,162.0
3485,B3,316.621,0.188,115,162.0
3486,E3,316.621,0.188,115,162.0
3487,E2,316.621,0.188,115,162.0
3488,B2,316.621,0.188,115,162.0
3489,B3,316.621,0.188,115,162.0
3490,E3,316.621,0.188,115,162.0
3491,E3,316.871,0.188,115,162.0
3492,B3,316.871,0.188,115,162.0
3493,E2,316.871,0.188,115,162.0
3494,E3,316.871,0.188,115,162.0
3495,B3,316.871,0.188,115,162.0
3496,E2,317.121,0.5,115,162.0
3497,D2,317.121,0.25,115,162.0
3498,B5,317.121,297/200,115,162.0
3499,E3,317.121,0.375,115,162.0
3500,B3,317.121,0.375,115,162.0
3501,E3,317.121,0.375,115,162.0
3502,B3,317.121,0.375,115,162.0
3503,B3,317.621,0.188,115,162.0
3504,E3,317.621,0.188,115,162.0
3505,E2,317.621,0.188,115,162.0
3506,B2,317.621,0.188,115,162.0
3507,B3,317.621,0.188,115,162.0
3508,E3,317.621,0.188,115,162.0
3509,E3,317.871,0.188,115,162.0
3510,B3,317.871,0.188,115,162.0
3511,E2,317.871,0.188,115,162.0
3512,B2,317.871,0.188,115,162.0
3513,E3,317.871,0.188,115,162.0
3514,B3,317.871,0.188,115,162.0
3515,D2,318.121,0.25,115,162.0
3516,A3,318.121,0.5,115,162.0
3517,D3,318.121,0.5,115,162.0
3518,D2,318.121,0.5,115,162.0
3519,A3,318.121,0.5,115,162.0
3520,D3,318.121,0.5,115,162.0
3521,A2,318.621,0.25,115,162.0
3522,A3,318.621,0.5,115,162.0
3523,G2,318.621,0.5,115,162.0
3524,A3,318.621,0.5,115,162.0
3525,D3,318.871,0.25,115,162.0
3526,D3,318.871,0.25,115,162.0
3527,A2,319.121,0.25,115,162.0
3528,D3,319.121,0.5,115,162.0
3529,A3,319.121,0.5,115,162.0
3530,D2,319.121,0.5,115,162.0
3531,D3,319.121,0.5,115,162.0
3532,A3,319.121,0.5,115,162.0
3533,E3,319.621,0.5,115,162.0
3534,B3,319.621,0.5,115,162.0
3535,E2,319.621,0.5,115,162.0
3536,E3,319.621,0.5,115,162.0
3537,B3,319.621,0.5,115,162.0
3538,B1,319.621,0.25,115,162.0
3539,C#3,319.621,0.25,115,162.0
3540,E3,320.121,0.5,115,162.0
3541,B3,320.121,0.5,115,162.0
3542,E2,320.121,0.5,115,162.0
3543,E3,320.121,0.5,115,162.0
3544,B3,320.121,0.5,115,162.0
3545,B5,320.606,0.5,115,162.0
3546,E3,320.621,0.188,115,162.0
3547,B3,320.621,0.188,115,162.0
3548,E2,320.621,0.188,115,162.0
3549,B1,320.621,0.188,115,162.0
3550,E3,320.621,0.188,115,162.0
3551,B3,320.621,0.188,115,162.0
3552,E3,320.871,0.188,115,162.0
3553,B3,320.871,0.188,115,162.0
3554,E2,320.871,0.188,115,162.0
3555,B1,320.871,0.188,115,162.0
3556,E3,320.871,0.188,115,162.0
3557,B3,320.871,0.188,115,162.0
3558,B5,321.106,479/1000,115,162.0
3559,E2,321.106,479/1000,115,162.0
3560,E3,321.121,0.375,115,162.0
3561,B3,321.121,0.375,115,162.0
3562,E3,321.121,0.375,115,162.0
3563,B3,321.121,0.375,115,162.0
3564,E-3,321.121,0.25,115,162.0
3565,D2,321.121,0.25,115,162.0
3566,B5,321.606,0.5,115,162.0
3567,E2,321.606,0.188,115,162.0
3568,B3,321.606,0.188,115,162.0
3569,E3,321.606,0.188,115,162.0
3570,B3,321.606,0.188,115,162.0
3571,E3,321.606,0.188,115,162.0
3572,B1,321.621,0.125,115,162.0
3573,E3,321.871,0.188,115,162.0
3574,B3,321.871,0.188,115,162.0
3575,E2,321.871,0.188,115,162.0
3576,B1,321.871,0.188,115,162.0
3577,E3,321.871,0.188,115,162.0
3578,B3,321.871,0.188,115,162.0
3579,B5,322.106,0.5,115,162.0
3580,E2,322.106,0.5,115,162.0
3581,E3,322.121,0.375,115,162.0
3582,B3,322.121,0.375,115,162.0
3583,E3,322.121,0.375,115,162.0
3584,B3,322.121,0.375,115,162.0
3585,E-3,322.121,0.25,115,162.0
3586,B1,322.121,0.25,115,162.0
3587,A5,322.621,0.5,115,162.0
3588,B3,322.621,0.188,115,162.0
3589,E3,322.621,0.188,115,162.0
3590,E2,322.621,0.188,115,162.0
3591,B1,322.621,0.188,115,162.0
3592,B3,322.621,0.188,115,162.0
3593,E3,322.621,0.188,115,162.0
3594,E3,322.871,0.188,115,162.0
3595,B3,322.871,0.188,115,162.0
3596,E2,322.871,0.188,115,162.0
3597,B1,322.871,0.188,115,162.0
3598,E3,322.871,0.188,115,162.0
3599,B3,322.871,0.188,115,162.0
3600,E3,323.121,0.375,115,162.0
3601,B3,323.121,0.375,115,162.0
3602,E3,323.121,0.375,115,162.0
3603,B3,323.121,0.375,115,162.0
3604,E2,323.121,0.5,115,162.0
3605,A5,323.121,0.5,115,162.0
3606,E-3,323.121,0.25,115,162.0
3607,D2,323.121,0.25,115,162.0
3608,G5,323.621,0.5,115,162.0
3609,B3,323.621,0.188,115,162.0
3610,E3,323.621,0.188,115,162.0
3611,E2,323.621,0.188,115,162.0
3612,B1,323.621,0.188,115,162.0
3613,B3,323.621,0.188,115,162.0
3614,E3,323.621,0.188,115,162.0
3615,E3,323.871,0.188,115,162.0
3616,B3,323.871,0.188,115,162.0
3617,E2,323.871,0.188,115,162.0
3618,B1,323.871,0.188,115,162.0
3619,E3,323.871,0.188,115,162.0
3620,B3,323.871,0.188,115,162.0
3621,E3,324.121,0.375,115,162.0
3622,B3,324.121,0.375,115,162.0
3623,E3,324.121,0.375,115,162.0
3624,B3,324.121,0.375,115,162.0
3625,E2,324.121,0.5,115,162.0
3626,A5,324.121,0.5,115,162.0
3627,E-3,324.121,0.25,115,162.0
3628,B1,324.121,0.25,115,162.0
3629,G5,324.621,0.5,115,162.0
3630,B3,324.621,0.188,115,162.0
3631,E3,324.621,0.188,115,162.0
3632,E2,324.621,0.188,115,162.0
3633,B1,324.621,0.188,115,162.0
3634,B3,324.621,0.188,115,162.0
3635,E3,324.621,0.188,115,162.0
3636,E3,324.871,0.188,115,162.0
3637,B3,324.871,0.188,115,162.0
3638,E2,324.871,0.188,115,162.0
3639,B1,324.871,0.188,115,162.0
3640,E3,324.871,0.188,115,162.0
3641,B3,324.871,0.188,115,162.0
3642,B5,325.106,2.0,115,162.0
3643,E2,325.121,0.5,115,162.0
3644,E3,325.121,0.375,115,162.0
3645,B3,325.121,0.375,115,162.0
3646,E3,325.121,0.375,115,162.0
3647,B3,325.121,0.375,115,162.0
3648,D2,325.121,0.25,115,162.0
3649,E-3,325.121,0.25,115,162.0
3650,B3,325.621,0.188,115,162.0
3651,E3,325.621,0.188,115,162.0
3652,E2,325.621,0.188,115,162.0
3653,B1,325.621,0.188,115,162.0
3654,B3,325.621,0.188,115,162.0
3655,E3,325.621,0.188,115,162.0
3656,E3,325.871,0.188,115,162.0
3657,B3,325.871,0.188,115,162.0
3658,E2,325.871,0.188,115,162.0
3659,B1,325.871,0.188,115,162.0
3660,E3,325.871,0.188,115,162.0
3661,B3,325.871,0.188,115,162.0
3662,D3,326.121,0.5,115,162.0
3663,A3,326.121,0.5,115,162.0
3664,D2,326.121,0.5,115,162.0
3665,D3,326.121,0.5,115,162.0
3666,A3,326.121,0.5,115,162.0
3667,E-3,326.121,0.25,115,162.0
3668,B1,326.121,0.25,115,162.0
3669,A3,326.621,0.5,115,162.0
3670,G2,326.621,0.5,115,162.0
3671,A3,326.621,0.5,115,162.0
3672,D3,326.871,0.25,115,162.0
3673,D3,326.871,0.25,115,162.0
3674,D3,327.121,0.5,115,162.0
3675,A3,327.121,0.5,115,162.0
3676,D2,327.121,0.5,115,162.0
3677,D3,327.121,0.5,115,162.0
3678,A3,327.121,0.5,115,162.0
3679,E-3,327.121,0.25,115,162.0
3680,D2,327.121,0.25,115,162.0
3681,B3,327.621,0.5,115,162.0
3682,E3,327.621,0.5,115,162.0
3683,E2,327.621,0.5,115,162.0
3684,B3,327.621,0.5,115,162.0
3685,E3,327.621,0.5,115,162.0
3686,C#3,327.621,0.25,115,162.0
3687,B1,327.621,0.25,115,162.0
3688,B3,328.121,0.5,115,162.0
3689,E3,328.121,0.5,115,162.0
3690,E2,328.121,0.5,115,162.0
3691,B3,328.121,0.5,115,162.0
3692,E3,328.121,0.5,115,162.0
3693,B5,328.606,0.5,115,162.0
3694,E3,328.621,0.188,115,162.0
3695,B3,328.621,0.188,115,162.0
3696,E2,328.621,0.188,115,162.0
3697,B1,328.621,0.188,115,162.0
3698,E3,328.621,0.188,115,162.0
3699,B3,328.621,0.188,115,162.0
3700,E3,328.871,0.188,115,162.0
3701,B3,328.871,0.188,115,162.0
3702,E2,328.871,0.188,115,162.0
3703,B1,328.871,0.188,115,162.0
3704,E3,328.871,0.188,115,162.0
3705,B3,328.871,0.188,115,162.0
3706,B5,329.106,479/1000,115,162.0
3707,E2,329.106,479/1000,115,162.0
3708,E3,329.121,0.375,115,162.0
3709,B3,329.121,0.375,115,162.0
3710,E3,329.121,0.375,115,162.0
3711,B3,329.121,0.375,115,162.0
3712,D2,329.121,0.25,115,162.0
3713,E-3,329.121,0.25,115,162.0
3714,B5,329.606,0.5,115,162.0
3715,E2,329.606,0.188,115,162.0
3716,B3,329.606,0.188,115,162.0
3717,E3,329.606,0.188,115,162.0
3718,B3,329.606,0.188,115,162.0
3719,E3,329.606,0.188,115,162.0
3720,B1,329.621,0.125,115,162.0
3721,E3,329.871,0.188,115,162.0
3722,B3,329.871,0.188,115,162.0
3723,E2,329.871,0.188,115,162.0
3724,B1,329.871,0.188,115,162.0
3725,E3,329.871,0.188,115,162.0
3726,B3,329.871,0.188,115,162.0
3727,B5,330.106,0.5,115,162.0
3728,E2,330.106,0.5,115,162.0
3729,E3,330.121,0.375,115,162.0
3730,B3,330.121,0.375,115,162.0
3731,E3,330.121,0.375,115,162.0
3732,B3,330.121,0.375,115,162.0
3733,E-3,330.121,0.25,115,162.0
3734,B1,330.121,0.25,115,162.0
3735,B5,330.606,0.5,115,162.0
3736,B3,330.621,0.188,115,162.0
3737,E3,330.621,0.188,115,162.0
3738,E2,330.621,0.188,115,162.0
3739,B1,330.621,0.188,115,162.0
3740,B3,330.621,0.188,115,162.0
3741,E3,330.621,0.188,115,162.0
3742,E3,330.871,0.188,115,162.0
3743,B3,330.871,0.188,115,162.0
3744,E2,330.871,0.188,115,162.0
3745,B1,330.871,0.188,115,162.0
3746,E3,330.871,0.188,115,162.0
3747,B3,330.871,0.188,115,162.0
3748,A5,331.106,0.5,115,162.0
3749,E2,331.106,0.5,115,162.0
3750,E3,331.121,0.375,115,162.0
3751,B3,331.121,0.375,115,162.0
3752,E3,331.121,0.375,115,162.0
3753,B3,331.121,0.375,115,162.0
3754,E-3,331.121,0.25,115,162.0
3755,D2,331.121,0.25,115,162.0
3756,G5,331.606,0.5,115,162.0
3757,B3,331.621,0.188,115,162.0
3758,E3,331.621,0.188,115,162.0
3759,E2,331.621,0.188,115,162.0
3760,B1,331.621,0.188,115,162.0
3761,B3,331.621,0.188,115,162.0
3762,E3,331.621,0.188,115,162.0
3763,E3,331.871,0.188,115,162.0
3764,B3,331.871,0.188,115,162.0
3765,E2,331.871,0.188,115,162.0
3766,B1,331.871,0.188,115,162.0
3767,E3,331.871,0.188,115,162.0
3768,B3,331.871,0.188,115,162.0
3769,A5,332.106,3/200,115,162.0
3770,E2,332.106,3/200,115,162.0
3771,E3,332.121,0.375,115,162.0
3772,B3,332.121,0.375,115,162.0
3773,E3,332.121,0.375,115,162.0
3774,B3,332.121,0.375,115,162.0
3775,B1,332.121,0.25,115,162.0
3776,E-3,332.121,0.25,115,162.0
3777,A5,332.121,97/200,115,162.0
3778,E2,332.121,97/200,115,162.0
3779,B5,332.606,0.5,115,162.0
3780,B3,332.621,0.188,115,162.0
3781,E3,332.621,0.188,115,162.0
3782,E2,332.621,0.188,115,162.0
3783,B1,332.621,0.188,115,162.0
3784,B3,332.621,0.188,115,162.0
3785,E3,332.621,0.188,115,162.0
3786,E3,332.871,0.188,115,162.0
3787,B3,332.871,0.188,115,162.0
3788,E2,332.871,0.188,115,162.0
3789,B1,332.871,0.188,115,162.0
3790,E3,332.871,0.188,115,162.0
3791,B3,332.871,0.188,115,162.0
3792,A5,333.106,0.5,115,162.0
3793,E2,333.106,0.5,115,162.0
3794,E3,333.121,0.375,115,162.0
3795,B3,333.121,0.375,115,162.0
3796,E3,333.121,0.375,115,162.0
3797,B3,333.121,0.375,115,162.0
3798,D2,333.121,0.25,115,162.0
3799,E-3,333.121,0.25,115,162.0
3800,G5,333.606,1.0,115,162.0
3801,B3,333.621,0.188,115,162.0
3802,E3,333.621,0.188,115,162.0
3803,E2,333.621,0.188,115,162.0
3804,B1,333.621,0.188,115,162.0
3805,B3,333.621,0.188,115,162.0
3806,E3,333.621,0.188,115,162.0
3807,E3,333.871,0.188,115,162.0
3808,B3,333.871,0.188,115,162.0
3809,E2,333.871,0.188,115,162.0
3810,B1,333.871,0.188,115,162.0
3811,E3,333.871,0.188,115,162.0
3812,B3,333.871,0.188,115,162.0
3813,D3,334.121,0.5,115,162.0
3814,A3,334.121,0.5,115,162.0
3815,D2,334.121,0.5,115,162.0
3816,D3,334.121,0.5,115,162.0
3817,A3,334.121,0.5,115,162.0
3818,E-3,334.121,0.25,115,162.0
3819,B1,334.121,0.25,115,162.0
3820,A3,334.621,0.5,115,162.0
3821,G2,334.621,0.5,115,162.0
3822,A3,334.621,0.5,115,162.0
3823,D3,334.871,0.25,115,162.0
3824,D3,334.871,0.25,115,162.0
3825,D3,335.121,0.5,115,162.0
3826,A3,335.121,0.5,115,162.0
3827,D2,335.121,0.5,115,162.0
3828,D3,335.121,0.5,115,162.0
3829,A3,335.121,0.5,115,162.0
3830,E-3,335.121,0.25,115,162.0
3831,D2,335.121,0.25,115,162.0
3832,C3,335.621,0.5,115,162.0
3833,G3,335.621,0.5,115,162.0
3834,C2,335.621,0.5,115,162.0
3835,C3,335.621,0.5,115,162.0
3836,G3,335.621,0.5,115,162.0
3837,B1,335.621,0.25,115,162.0
3838,C#3,335.621,0.25,115,162.0
3839,C3,336.121,0.5,115,162.0
3840,G3,336.121,0.5,115,162.0
3841,C2,336.121,0.5,115,162.0
3842,C3,336.121,0.5,115,162.0
3843,G3,336.121,0.5,115,162.0
3844,B5,336.615,0.5,115,162.0
3845,C3,336.621,0.188,115,162.0
3846,G3,336.621,0.188,115,162.0
3847,C2,336.621,0.188,115,162.0
3848,B1,336.621,0.188,115,162.0
3849,C3,336.621,0.188,115,162.0
3850,G3,336.621,0.188,115,162.0
3851,C3,336.871,0.188,115,162.0
3852,G3,336.871,0.188,115,162.0
3853,C2,336.871,0.188,115,162.0
3854,B1,336.871,0.188,115,162.0
3855,C3,336.871,0.188,115,162.0
3856,G3,336.871,0.188,115,162.0
3857,B5,337.115,479/1000,115,162.0
3858,C2,337.115,479/1000,115,162.0
3859,C3,337.121,0.375,115,162.0
3860,G3,337.121,0.375,115,162.0
3861,C3,337.121,0.375,115,162.0
3862,G3,337.121,0.375,115,162.0
3863,D2,337.121,0.25,115,162.0
3864,E-3,337.121,0.25,115,162.0
3865,C2,337.606,0.188,115,162.0
3866,G3,337.606,0.188,115,162.0
3867,C3,337.606,0.188,115,162.0
3868,G3,337.606,0.188,115,162.0
3869,C3,337.606,0.188,115,162.0
3870,B5,337.615,0.5,115,162.0
3871,B1,337.621,0.125,115,162.0
3872,C3,337.871,0.188,115,162.0
3873,G3,337.871,0.188,115,162.0
3874,C2,337.871,0.188,115,162.0
3875,B1,337.871,0.188,115,162.0
3876,C3,337.871,0.188,115,162.0
3877,G3,337.871,0.188,115,162.0
3878,B5,338.115,1027/1000,115,162.0
3879,C2,338.121,0.5,115,162.0
3880,C3,338.121,0.375,115,162.0
3881,G3,338.121,0.375,115,162.0
3882,C3,338.121,0.375,115,162.0
3883,G3,338.121,0.375,115,162.0
3884,E-3,338.121,0.25,115,162.0
3885,B1,338.121,0.25,115,162.0
3886,G3,338.621,0.188,115,162.0
3887,C3,338.621,0.188,115,162.0
3888,C2,338.621,0.188,115,162.0
3889,B1,338.621,0.188,115,162.0
3890,G3,338.621,0.188,115,162.0
3891,C3,338.621,0.188,115,162.0
3892,C3,338.871,0.188,115,162.0
3893,G3,338.871,0.188,115,162.0
3894,C2,338.871,0.188,115,162.0
3895,B1,338.871,0.188,115,162.0
3896,C3,338.871,0.188,115,162.0
3897,G3,338.871,0.188,115,162.0
3898,A5,339.115,0.5,115,162.0
3899,C2,339.115,0.5,115,162.0
3900,C3,339.121,0.375,115,162.0
3901,G3,339.121,0.375,115,162.0
3902,C3,339.121,0.375,115,162.0
3903,G3,339.121,0.375,115,162.0
3904,E-3,339.121,0.25,115,162.0
3905,D2,339.121,0.25,115,162.0
3906,G5,339.621,0.5,115,162.0
3907,G3,339.621,0.188,115,162.0
3908,C3,339.621,0.188,115,162.0
3909,C2,339.621,0.188,115,162.0
3910,B1,339.621,0.188,115,162.0
3911,G3,339.621,0.188,115,162.0
3912,C3,339.621,0.188,115,162.0
3913,C3,339.871,0.188,115,162.0
3914,G3,339.871,0.188,115,162.0
3915,C2,339.871,0.188,115,162.0
3916,B1,339.871,0.188,115,162.0
3917,C3,339.871,0.188,115,162.0
3918,G3,339.871,0.188,115,162.0
3919,C3,340.121,0.375,115,162.0
3920,G3,340.121,0.375,115,162.0
3921,C3,340.121,0.375,115,162.0
3922,G3,340.121,0.375,115,162.0
3923,C2,340.121,0.5,115,162.0
3924,A5,340.121,0.5,115,162.0
3925,B1,340.121,0.25,115,162.0
3926,E-3,340.121,0.25,115,162.0
3927,G5,340.621,64/125,115,162.0
3928,G3,340.621,0.188,115,162.0
3929,C3,340.621,0.188,115,162.0
3930,C2,340.621,0.188,115,162.0
3931,B1,340.621,0.188,115,162.0
3932,G3,340.621,0.188,115,162.0
3933,C3,340.621,0.188,115,162.0
3934,C3,340.871,0.188,115,162.0
3935,G3,340.871,0.188,115,162.0
3936,C2,340.871,0.188,115,162.0
3937,B1,340.871,0.188,115,162.0
3938,C3,340.871,0.188,115,162.0
3939,G3,340.871,0.188,115,162.0
3940,C2,341.121,0.5,115,162.0
3941,B5,341.121,1.0,115,162.0
3942,C3,341.121,0.375,115,162.0
3943,G3,341.121,0.375,115,162.0
3944,C3,341.121,0.375,115,162.0
3945,G3,341.121,0.375,115,162.0
3946,D2,341.121,0.25,115,162.0
3947,E-3,341.121,0.25,115,162.0
3948,G3,341.621,0.188,115,162.0
3949,C3,341.621,0.188,115,162.0
3950,C2,341.621,0.188,115,162.0
3951,B1,341.621,0.188,115,162.0
3952,G3,341.621,0.188,115,162.0
3953,C3,341.621,0.188,115,162.0
3954,C3,341.871,0.188,115,162.0
3955,G3,341.871,0.188,115,162.0
3956,C2,341.871,0.188,115,162.0
3957,B1,341.871,0.188,115,162.0
3958,C3,341.871,0.188,115,162.0
3959,G3,341.871,0.188,115,162.0
3960,D3,342.121,0.5,115,162.0
3961,A3,342.121,0.5,115,162.0
3962,D2,342.121,0.5,115,162.0
3963,D3,342.121,0.5,115,162.0
3964,A3,342.121,0.5,115,162.0
3965,E-3,342.121,0.25,115,162.0
3966,B1,342.121,0.25,115,162.0
3967,A3,342.621,0.5,115,162.0
3968,G2,342.621,0.5,115,162.0
3969,A3,342.621,0.5,115,162.0
3970,D3,342.871,0.25,115,162.0
3971,D3,342.871,0.25,115,162.0
3972,D3,343.121,0.5,115,162.0
3973,A3,343.121,0.5,115,162.0
3974,D2,343.121,0.5,115,162.0
3975,D3,343.121,0.5,115,162.0
3976,A3,343.121,0.5,115,162.0
3977,E-3,343.121,0.25,115,162.0
3978,D2,343.121,0.25,115,162.0
3979,B3,343.621,0.5,115,162.0
3980,E3,343.621,0.5,115,162.0
3981,E2,343.621,0.5,115,162.0
3982,B3,343.621,0.5,115,162.0
3983,E3,343.621,0.5,115,162.0
3984,B1,343.621,0.25,115,162.0
3985,C#3,343.621,0.25,115,162.0
3986,B3,344.121,0.5,115,162.0
3987,E3,344.121,0.5,115,162.0
3988,E2,344.121,0.5,115,162.0
3989,B3,344.121,0.5,115,162.0
3990,E3,344.121,0.5,115,162.0
3991,B5,344.615,0.5,115,162.0
3992,E3,344.621,0.188,115,162.0
3993,B3,344.621,0.188,115,162.0
3994,E2,344.621,0.188,115,162.0
3995,B1,344.621,0.188,115,162.0
3996,E3,344.621,0.188,115,162.0
3997,B3,344.621,0.188,115,162.0
3998,E3,344.871,0.188,115,162.0
3999,B3,344.871,0.188,115,162.0
4000,E2,344.871,0.188,115,162.0
4001,B1,344.871,0.188,115,162.0
4002,E3,344.871,0.188,115,162.0
4003,B3,344.871,0.188,115,162.0
4004,B5,345.115,479/1000,115,162.0
4005,E2,345.115,479/1000,115,162.0
4006,E3,345.121,0.375,115,162.0
4007,B3,345.121,0.375,115,162.0
4008,E3,345.121,0.375,115,162.0
4009,B3,345.121,0.375,115,162.0
4010,D2,345.121,0.25,115,162.0
4011,E-3,345.121,0.25,115,162.0
4012,E2,345.606,0.188,115,162.0
4013,B3,345.606,0.188,115,162.0
4014,E3,345.606,0.188,115,162.0
4015,B3,345.606,0.188,115,162.0
4016,E3,345.606,0.188,115,162.0
4017,D6,345.615,1.0,115,162.0
4018,B1,345.621,0.125,115,162.0
4019,E3,345.871,0.188,115,162.0
4020,B3,345.871,0.188,115,162.0
4021,E2,345.871,0.188,115,162.0
4022,B1,345.871,0.188,115,162.0
4023,E3,345.871,0.188,115,162.0
4024,B3,345.871,0.188,115,162.0
4025,E2,346.121,0.5,115,162.0
4026,E3,346.121,0.375,115,162.0
4027,B3,346.121,0.375,115,162.0
4028,E3,346.121,0.375,115,162.0
4029,B3,346.121,0.375,115,162.0
4030,E-3,346.121,0.25,115,162.0
4031,B1,346.121,0.25,115,162.0
4032,B5,346.621,0.5,115,162.0
4033,B3,346.621,0.188,115,162.0
4034,E3,346.621,0.188,115,162.0
4035,E2,346.621,0.188,115,162.0
4036,B1,346.621,0.188,115,162.0
4037,B3,346.621,0.188,115,162.0
4038,E3,346.621,0.188,115,162.0
4039,E3,346.871,0.188,115,162.0
4040,B3,346.871,0.188,115,162.0
4041,E2,346.871,0.188,115,162.0
4042,B1,346.871,0.188,115,162.0
4043,E3,346.871,0.188,115,162.0
4044,B3,346.871,0.188,115,162.0
4045,E3,347.121,0.375,115,162.0
4046,B3,347.121,0.375,115,162.0
4047,E3,347.121,0.375,115,162.0
4048,B3,347.121,0.375,115,162.0
4049,E2,347.121,0.5,115,162.0
4050,D6,347.121,0.5,115,162.0
4051,E-3,347.121,0.25,115,162.0
4052,D2,347.121,0.25,115,162.0
4053,B5,347.621,0.5,115,162.0
4054,B3,347.621,0.188,115,162.0
4055,E3,347.621,0.188,115,162.0
4056,E2,347.621,0.188,115,162.0
4057,B1,347.621,0.188,115,162.0
4058,B3,347.621,0.188,115,162.0
4059,E3,347.621,0.188,115,162.0
4060,E3,347.871,0.188,115,162.0
4061,B3,347.871,0.188,115,162.0
4062,E2,347.871,0.188,115,162.0
4063,B1,347.871,0.188,115,162.0
4064,E3,347.871,0.188,115,162.0
4065,B3,347.871,0.188,115,162.0
4066,B2,348.121,0.25,115,162.0
4067,E3,348.121,0.375,115,162.0
4068,B3,348.121,0.375,115,162.0
4069,E3,348.121,0.375,115,162.0
4070,B3,348.121,0.375,115,162.0
4071,E2,348.121,0.5,115,162.0
4072,D6,348.121,0.5,115,162.0
4073,B2,348.371,0.25,115,162.0
4074,B5,348.621,0.5,115,162.0
4075,B3,348.621,0.188,115,162.0
4076,E3,348.621,0.188,115,162.0
4077,E2,348.621,0.188,115,162.0
4078,B2,348.621,0.188,115,162.0
4079,B3,348.621,0.188,115,162.0
4080,E3,348.621,0.188,115,162.0
4081,E3,348.871,0.188,115,162.0
4082,B3,348.871,0.188,115,162.0
4083,E2,348.871,0.188,115,162.0
4084,E3,348.871,0.188,115,162.0
4085,B3,348.871,0.188,115,162.0
4086,E2,349.121,0.5,115,162.0
4087,D2,349.121,0.25,115,162.0
4088,E6,349.121,297/200,115,162.0
4089,E3,349.121,0.375,115,162.0
4090,B3,349.121,0.375,115,162.0
4091,E3,349.121,0.375,115,162.0
4092,B3,349.121,0.375,115,162.0
4093,B3,349.621,0.188,115,162.0
4094,E3,349.621,0.188,115,162.0
4095,E2,349.621,0.188,115,162.0
4096,B2,349.621,0.188,115,162.0
4097,B3,349.621,0.188,115,162.0
4098,E3,349.621,0.188,115,162.0
4099,E3,349.871,0.188,115,162.0
4100,B3,349.871,0.188,115,162.0
4101,E2,349.871,0.188,115,162.0
4102,B2,349.871,0.188,115,162.0
4103,E3,349.871,0.188,115,162.0
4104,B3,349.871,0.188,115,162.0
4105,D2,350.121,0.25,115,162.0
4106,A3,350.121,0.5,115,162.0
4107,D3,350.121,0.5,115,162.0
4108,D2,350.121,0.5,115,162.0
4109,A3,350.121,0.5,115,162.0
4110,D3,350.121,0.5,115,162.0
4111,A2,350.621,0.25,115,162.0
4112,A3,350.621,0.5,115,162.0
4113,G2,350.621,0.5,115,162.0
4114,A3,350.621,0.5,115,162.0
4115,D3,350.871,0.25,115,162.0
4116,D3,350.871,0.25,115,162.0
4117,A2,351.121,0.25,115,162.0
4118,D3,351.121,0.5,115,162.0
4119,A3,351.121,0.5,115,162.0
4120,D2,351.121,0.5,115,162.0
4121,D3,351.121,0.5,115,162.0
4122,A3,351.121,0.5,115,162.0
4123,E2,351.621,0.5,115,162.0
4124,A3,351.621,0.5,115,162.0
4125,D3,351.621,0.5,115,162.0
4126,D4,351.621,0.5,115,162.0
4127,A2,351.621,0.5,115,162.0
4128,D3,351.621,0.5,115,162.0
4129,A3,351.621,0.5,115,162.0
4130,D4,351.621,0.5,115,162.0
4131,F#4,351.621,0.5,115,162.0
4132,B1,351.621,0.25,115,162.0
4133,C#3,351.621,0.25,115,162.0
4134,B5,351.621,0.5,115,162.0
4135,E5,351.621,0.5,115,162.0
4136,B4,351.621,0.5,115,162.0
4137,E5,351.621,0.5,115,162.0
4138,B4,351.621,0.5,115,162.0
4139,E2,352.121,0.5,115,162.0
4140,A3,352.121,4.5,115,162.0
4141,D3,352.121,4.5,115,162.0
4142,D4,352.121,4.5,115,162.0
4143,A2,352.121,7.5,115,162.0
4144,D3,352.121,7.5,115,162.0
4145,A3,352.121,7.5,115,162.0
4146,D4,352.121,7.5,115,162.0
4147,F#4,352.121,7.5,115,162.0
4148,B5,352.121,203/200,115,162.0
4149,E5,352.121,203/200,115,162.0
4150,B4,352.121,203/200,115,162.0
4151,E5,352.121,203/200,115,162.0
4152,B4,352.121,203/200,115,162.0
4153,D2,352.621,0.25,115,162.0
4154,B1,352.621,0.125,115,162.0
4155,D2,352.871,0.25,115,162.0
4156,B1,352.871,0.125,115,162.0
4157,D2,353.121,479/1000,115,162.0
4158,E-3,353.121,0.25,115,162.0
4159,D2,353.121,0.25,115,162.0
4160,A5,353.121,1.0,115,162.0
4161,D5,353.121,1.0,115,162.0
4162,A4,353.121,1.0,115,162.0
4163,D5,353.121,1.0,115,162.0
4164,A4,353.121,1.0,115,162.0
4165,D2,353.606,0.25,115,162.0
4166,B1,353.621,0.125,115,162.0
4167,D2,353.871,0.25,115,162.0
4168,B1,353.871,0.125,115,162.0
4169,D2,354.121,0.5,115,162.0
4170,E-3,354.121,0.25,115,162.0
4171,B1,354.121,0.25,115,162.0
4172,G5,354.121,1.0,115,162.0
4173,C5,354.121,1.0,115,162.0
4174,G4,354.121,1.0,115,162.0
4175,C5,354.121,1.0,115,162.0
4176,G4,354.121,1.0,115,162.0
4177,D2,354.621,0.25,115,162.0
4178,B1,354.621,0.125,115,162.0
4179,D2,354.871,0.25,115,162.0
4180,B1,354.871,0.125,115,162.0
4181,D2,355.121,0.5,115,162.0
4182,E-3,355.121,0.25,115,162.0
4183,D2,355.121,0.25,115,162.0
4184,F#5,355.121,1.0,115,162.0
4185,B4,355.121,1.0,115,162.0
4186,F#4,355.121,1.0,115,162.0
4187,B4,355.121,1.0,115,162.0
4188,F#4,355.121,1.0,115,162.0
4189,D2,355.621,0.25,115,162.0
4190,B1,355.621,0.125,115,162.0
4191,D2,355.871,0.25,115,162.0
4192,B1,355.871,0.125,115,162.0
4193,D2,359.621,0.5,115,162.0
4194,B1,359.621,0.25,115,162.0
4195,E-3,359.621,0.25,115,162.0
4196,G5,359.621,1.0,115,162.0
4197,C5,359.621,1.0,115,162.0
4198,G4,359.621,1.0,115,162.0
4199,C5,359.621,1.0,115,162.0
4200,G4,359.621,1.0,115,162.0
4201,D2,360.121,0.25,115,162.0
4202,B1,360.121,0.125,115,162.0
4203,D4,360.121,1.0,115,162.0
4204,A3,360.121,1.0,115,162.0
4205,D3,360.121,1.0,115,162.0
4206,D2,360.371,0.25,115,162.0
4207,B1,360.371,0.125,115,162.0
4208,D2,360.621,0.5,115,162.0
4209,E-3,360.621,0.25,115,162.0
4210,D2,360.621,0.25,115,162.0
4211,F#5,360.621,1.0,115,162.0
4212,B4,360.621,1.0,115,162.0
4213,F#4,360.621,1.0,115,162.0
4214,B4,360.621,1.0,115,162.0
4215,F#4,360.621,1.0,115,162.0
4216,D2,361.121,0.25,115,162.0
4217,B1,361.121,0.125,115,162.0
4218,D4,361.121,1.0,115,162.0
4219,A3,361.121,1.0,115,162.0
4220,D3,361.121,1.0,115,162.0
4221,D2,361.371,0.25,115,162.0
4222,B1,361.371,0.125,115,162.0
4223,D2,361.621,0.5,115,162.0
4224,E-3,361.621,0.25,115,162.0
4225,B1,361.621,0.25,115,162.0
4226,E5,361.621,1.0,115,162.0
4227,A4,361.621,1.0,115,162.0
4228,E4,361.621,1.0,115,162.0
4229,A4,361.621,1.0,115,162.0
4230,E4,361.621,1.0,115,162.0
4231,D2,362.121,0.25,115,162.0
4232,D4,362.121,1.0,115,162.0
4233,A3,362.121,1.0,115,162.0
4234,D3,362.121,1.0,115,162.0
4235,D2,362.371,0.25,115,162.0
4236,D2,362.621,0.5,115,162.0
4237,D5,362.621,0.5,115,162.0
4238,G4,362.621,0.5,115,162.0
4239,D4,362.621,0.5,115,162.0
4240,G4,362.621,0.5,115,162.0
4241,D4,362.621,0.5,115,162.0
4242,E-3,362.621,0.25,115,162.0
4243,D2,362.621,0.25,115,162.0
4244,E2,363.121,0.5,115,162.0
4245,E3,363.121,0.5,115,162.0
4246,B3,363.121,0.5,115,162.0
4247,E4,363.121,0.5,115,162.0
4248,E2,363.121,0.5,115,162.0
4249,E4,363.121,0.5,115,162.0
4250,B3,363.121,0.5,115,162.0
4251,E3,363.121,0.5,115,162.0
4252,B1,363.121,0.25,115,162.0
4253,C#3,363.121,0.25,115,162.0
4254,E5,363.121,0.5,115,162.0
4255,A4,363.121,0.5,115,162.0
4256,E4,363.121,0.5,115,162.0
4257,A4,363.121,0.5,115,162.0
4258,E4,363.121,0.5,115,162.0
4259,E2,371.121,0.5,115,162.0
4260,E3,371.121,7.5,115,162.0
4261,B3,371.121,7.5,115,162.0
4262,E4,371.121,7.5,115,162.0
4263,E2,371.121,7.5,115,162.0
4264,E4,371.121,7.5,115,162.0
4265,B3,371.121,7.5,115,162.0
4266,E3,371.121,7.5,115,162.0
4267,E5,371.121,3.5,115,162.0
4268,A4,371.121,3.5,115,162.0
4269,E4,371.121,3.5,115,162.0
4270,A4,371.121,3.5,115,162.0
4271,E4,371.121,3.5,115,162.0
4272,E2,371.621,0.25,115,162.0
4273,B1,371.621,0.125,115,162.0
4274,E2,371.871,0.25,115,162.0
4275,B1,371.871,0.125,115,162.0
4276,E2,372.121,479/1000,115,162.0
4277,E-3,372.121,0.25,115,162.0
4278,D2,372.121,0.25,115,162.0
4279,E2,372.606,0.25,115,162.0
4280,B1,372.621,0.125,115,162.0
4281,E2,372.871,0.25,115,162.0
4282,B1,372.871,0.125,115,162.0
4283,E2,373.121,0.5,115,162.0
4284,E-3,373.121,0.25,115,162.0
4285,B1,373.121,0.25,115,162.0
4286,E2,373.621,0.25,115,162.0
4287,B1,373.621,0.25,115,162.0
4288,E2,373.871,0.25,115,162.0
4289,B1,373.871,0.25,115,162.0
4290,E2,374.121,0.5,115,162.0
4291,E-3,374.121,0.25,115,162.0
4292,D2,374.121,0.25,115,162.0
4293,E2,374.621,0.25,115,162.0
4294,B1,374.621,0.25,115,162.0
4295,E2,374.871,0.25,115,162.0
4296,E2,378.621,0.5,115,162.0
4297,D3,378.621,0.25,115,162.0
4298,D3,378.871,0.25,115,162.0
4299,E2,379.121,0.25,115,162.0
4300,D3,379.121,0.25,115,162.0
4301,E2,379.371,0.25,115,162.0
4302,D3,379.371,0.25,115,162.0
4303,E2,379.621,0.5,115,162.0
4304,C3,379.621,0.25,115,162.0
4305,C3,379.871,0.25,115,162.0
4306,E2,380.121,0.25,115,162.0
4307,C3,380.121,0.25,115,162.0
4308,E2,380.371,0.25,115,162.0
4309,C3,380.371,0.25,115,162.0
4310,E2,380.621,0.5,115,162.0
4311,B2,380.621,0.25,115,162.0
4312,B2,380.871,0.25,115,162.0
4313,E2,381.121,0.25,115,162.0
4314,B2,381.121,0.25,115,162.0
4315,E2,381.371,0.25,115,162.0
4316,B2,381.371,0.25,115,162.0
4317,E2,381.621,0.5,115,162.0
4318,A2,381.621,0.25,115,162.0
4319,D2,382.121,0.5,115,162.0
4320,D4,382.121,0.5,115,162.0
4321,D3,382.121,0.5,115,162.0
4322,A3,382.121,0.5,115,162.0
4323,F#4,382.121,0.5,115,162.0
4324,D4,382.121,0.5,115,162.0
4325,A3,382.121,0.5,115,162.0
4326,D3,382.121,0.5,115,162.0
4327,A2,382.121,0.5,115,162.0
4328,B1,382.121,0.25,115,162.0
4329,C#3,382.121,0.25,115,162.0
4330,B5,382.121,0.5,115,162.0
4331,E5,382.121,0.5,115,162.0
4332,E5,382.121,0.5,115,162.0
4333,B4,382.121,0.5,115,162.0
4334,E5,382.121,0.5,115,162.0
4335,B4,382.121,0.5,115,162.0
4336,D2,387.121,0.5,115,162.0
4337,D4,387.121,4.5,115,162.0
4338,D3,387.121,4.5,115,162.0
4339,A3,387.121,4.5,115,162.0
4340,F#4,387.121,7.5,115,162.0
4341,D4,387.121,7.5,115,162.0
4342,A3,387.121,7.5,115,162.0
4343,D3,387.121,7.5,115,162.0
4344,A2,387.121,7.5,115,162.0
4345,B5,387.121,203/200,115,162.0
4346,E5,387.121,203/200,115,162.0
4347,E5,387.121,203/200,115,162.0
4348,B4,387.121,203/200,115,162.0
4349,E5,387.121,203/200,115,162.0
4350,B4,387.121,203/200,115,162.0
4351,D2,387.621,0.25,115,162.0
4352,B1,387.621,0.125,115,162.0
4353,D2,387.871,0.25,115,162.0
4354,B1,387.871,0.125,115,162.0
4355,D2,388.121,479/1000,115,162.0
4356,E-3,388.121,0.25,115,162.0
4357,D2,388.121,0.25,115,162.0
4358,A5,388.121,1.0,115,162.0
4359,D5,388.121,1.0,115,162.0
4360,A4,388.121,1.0,115,162.0
4361,D5,388.121,1.0,115,162.0
4362,A4,388.121,1.0,115,162.0
4363,D2,388.606,0.25,115,162.0
4364,B1,388.621,0.125,115,162.0
4365,D2,388.871,0.25,115,162.0
4366,B1,388.871,0.125,115,162.0
4367,D2,389.121,0.5,115,162.0
4368,E-3,389.121,0.25,115,162.0
4369,B1,389.121,0.25,115,162.0
4370,G5,389.121,1.0,115,162.0
4371,C5,389.121,1.0,115,162.0
4372,G4,389.121,1.0,115,162.0
4373,C5,389.121,1.0,115,162.0
4374,G4,389.121,1.0,115,162.0
4375,D2,389.621,0.25,115,162.0
4376,B1,389.621,0.125,115,162.0
4377,D2,389.871,0.25,115,162.0
4378,B1,389.871,0.125,115,162.0
4379,D2,390.121,0.5,115,162.0
4380,E-3,390.121,0.25,115,162.0
4381,D2,390.121,0.25,115,162.0
4382,F#5,390.121,1.0,115,162.0
4383,B4,390.121,1.0,115,162.0
4384,F#4,390.121,1.0,115,162.0
4385,B4,390.121,1.0,115,162.0
4386,F#4,390.121,1.0,115,162.0
4387,D2,390.621,0.25,115,162.0
4388,B1,390.621,0.125,115,162.0
4389,D2,390.871,0.25,115,162.0
4390,B1,390.871,0.125,115,162.0
4391,D2,394.621,0.5,115,162.0
4392,B1,394.621,0.25,115,162.0
4393,E-3,394.621,0.25,115,162.0
4394,G5,394.621,1.0,115,162.0
4395,C5,394.621,1.0,115,162.0
4396,G4,394.621,1.0,115,162.0
4397,C5,394.621,1.0,115,162.0
4398,G4,394.621,1.0,115,162.0
4399,D2,395.121,0.25,115,162.0
4400,B1,395.121,0.125,115,162.0
4401,D4,395.121,1.0,115,162.0
4402,A3,395.121,1.0,115,162.0
4403,D3,395.121,1.0,115,162.0
4404,D2,395.371,0.25,115,162.0
4405,B1,395.371,0.125,115,162.0
4406,D2,395.621,0.5,115,162.0
4407,E-3,395.621,0.25,115,162.0
4408,D2,395.621,0.25,115,162.0
4409,F#5,395.621,1.0,115,162.0
4410,B4,395.621,1.0,115,162.0
4411,F#4,395.621,1.0,115,162.0
4412,B4,395.621,1.0,115,162.0
4413,F#4,395.621,1.0,115,162.0
4414,D2,396.121,0.25,115,162.0
4415,B1,396.121,0.125,115,162.0
4416,D4,396.121,1.0,115,162.0
4417,A3,396.121,1.0,115,162.0
4418,D3,396.121,1.0,115,162.0
4419,D2,396.371,0.25,115,162.0
4420,B1,396.371,0.125,115,162.0
4421,D2,396.621,0.5,115,162.0
4422,E-3,396.621,0.25,115,162.0
4423,B1,396.621,0.25,115,162.0
4424,G5,396.621,1.0,115,162.0
4425,C5,396.621,1.0,115,162.0
4426,G4,396.621,1.0,115,162.0
4427,C5,396.621,1.0,115,162.0
4428,G4,396.621,1.0,115,162.0
4429,D2,397.121,0.25,115,162.0
4430,D4,397.121,1.0,115,162.0
4431,A3,397.121,1.0,115,162.0
4432,D3,397.121,1.0,115,162.0
4433,D2,397.371,0.25,115,162.0
4434,D2,397.621,0.5,115,162.0
4435,B5,397.621,0.5,115,162.0
4436,E5,397.621,0.5,115,162.0
4437,B4,397.621,0.5,115,162.0
4438,E5,397.621,0.5,115,162.0
4439,B4,397.621,0.5,115,162.0
4440,E-3,397.621,0.25,115,162.0
4441,D2,397.621,0.25,115,162.0
4442,E4,398.121,0.5,115,162.0
4443,E3,398.121,0.5,115,162.0
4444,B3,398.121,0.5,115,162.0
4445,E2,398.121,0.5,115,162.0
4446,B3,398.121,0.5,115,162.0
4447,E3,398.121,0.5,115,162.0
4448,E4,398.121,0.5,115,162.0
4449,B1,398.121,0.25,115,162.0
4450,C#3,398.121,0.25,115,162.0
4451,G5,398.121,0.5,115,162.0
4452,C5,398.121,0.5,115,162.0
4453,G4,398.121,0.5,115,162.0
4454,C5,398.121,0.5,115,162.0
4455,G4,398.121,0.5,115,162.0
4456,E4,399.121,0.5,115,162.0
4457,E3,399.121,0.5,115,162.0
4458,B3,399.121,0.5,115,162.0
4459,E2,399.121,0.5,115,162.0
4460,B3,399.121,0.5,115,162.0
4461,E3,399.121,0.5,115,162.0
4462,E4,399.121,0.5,115,162.0
4463,G5,399.121,3.5,115,162.0
4464,C5,399.121,3.5,115,162.0
4465,G4,399.121,3.5,115,162.0
4466,C5,399.121,3.5,115,162.0
4467,G4,399.121,3.5,115,162.0
4468,B3,399.621,0.188,115,162.0
4469,E3,399.621,0.188,115,162.0
4470,E2,399.621,0.188,115,162.0
4471,B1,399.621,0.188,115,162.0
4472,B3,399.621,0.188,115,162.0
4473,E3,399.621,0.188,115,162.0
4474,E3,399.856,0.188,115,162.0
4475,B3,399.856,0.188,115,162.0
4476,B1,399.856,0.188,115,162.0
4477,E3,399.856,0.188,115,162.0
4478,B3,399.856,0.188,115,162.0
4479,E2,399.871,0.188,115,162.0
4480,E3,399.871,0.188,115,162.0
4481,B3,399.871,0.188,115,162.0
4482,E3,400.106,0.375,115,162.0
4483,B3,400.106,0.375,115,162.0
4484,E3,400.106,0.375,115,162.0
4485,B3,400.106,0.375,115,162.0
4486,E2,400.121,479/1000,115,162.0
4487,E-3,400.121,0.25,115,162.0
4488,D2,400.121,0.25,115,162.0
4489,B3,400.606,0.188,115,162.0
4490,E3,400.606,0.188,115,162.0
4491,E2,400.606,0.188,115,162.0
4492,B1,400.606,0.188,115,162.0
4493,B3,400.606,0.188,115,162.0
4494,E3,400.606,0.188,115,162.0
4495,E3,400.856,0.188,115,162.0
4496,B3,400.856,0.188,115,162.0
4497,B1,400.856,0.188,115,162.0
4498,E3,400.856,0.188,115,162.0
4499,B3,400.856,0.188,115,162.0
4500,E2,400.871,0.188,115,162.0
4501,E3,400.871,0.188,115,162.0
4502,B3,400.871,0.188,115,162.0
4503,E3,401.106,0.375,115,162.0
4504,B3,401.106,0.375,115,162.0
4505,E3,401.106,0.375,115,162.0
4506,B3,401.106,0.375,115,162.0
4507,E2,401.121,0.5,115,162.0
4508,E-3,401.121,0.25,115,162.0
4509,B1,401.121,0.25,115,162.0
4510,B3,401.606,0.188,115,162.0
4511,E3,401.606,0.188,115,162.0
4512,B3,401.606,0.188,115,162.0
4513,E3,401.606,0.188,115,162.0
4514,E2,401.621,0.188,115,162.0
4515,B1,401.621,0.188,115,162.0
4516,B3,401.621,0.188,115,162.0
4517,E3,401.621,0.188,115,162.0
4518,E3,401.856,0.188,115,162.0
4519,B3,401.856,0.188,115,162.0
4520,E3,401.856,0.188,115,162.0
4521,B3,401.856,0.188,115,162.0
4522,E2,401.871,0.188,115,162.0
4523,B1,401.871,0.188,115,162.0
4524,E3,401.871,0.188,115,162.0
4525,B3,401.871,0.188,115,162.0
4526,E3,402.106,0.375,115,162.0
4527,B3,402.106,0.375,115,162.0
4528,E3,402.106,0.375,115,162.0
4529,B3,402.106,0.375,115,162.0
4530,E2,402.121,0.5,115,162.0
4531,E-3,402.121,0.25,115,162.0
4532,D2,402.121,0.25,115,162.0
4533,B3,402.606,0.188,115,162.0
4534,E3,402.606,0.188,115,162.0
4535,B3,402.606,0.188,115,162.0
4536,E3,402.606,0.188,115,162.0
4537,E2,402.621,0.188,115,162.0
4538,B3,402.621,0.188,115,162.0
4539,E3,402.621,0.188,115,162.0
4540,E3,402.856,0.188,115,162.0
4541,B3,402.856,0.188,115,162.0
4542,E3,402.856,0.188,115,162.0
4543,B3,402.856,0.188,115,162.0
4544,E2,402.871,0.188,115,162.0
4545,B1,402.871,0.188,115,162.0
4546,E3,402.871,0.188,115,162.0
4547,B3,402.871,0.188,115,162.0
4548,E2,403.121,479/1000,115,162.0
4549,D2,403.121,0.25,115,162.0
4550,B3,403.121,0.375,115,162.0
4551,E3,403.121,0.375,115,162.0
4552,B3,403.121,0.375,115,162.0
4553,E3,403.121,0.375,115,162.0
4554,E2,403.606,0.188,115,162.0
4555,E3,403.606,0.188,115,162.0
4556,B3,403.606,0.188,115,162.0
4557,D2,403.606,0.188,115,162.0
4558,B3,403.606,0.188,115,162.0
4559,E3,403.606,0.188,115,162.0
4560,E3,403.856,0.188,115,162.0
4561,B3,403.856,0.188,115,162.0
4562,E3,403.856,0.188,115,162.0
4563,B3,403.856,0.188,115,162.0
4564,E2,403.871,0.188,115,162.0
4565,D2,403.871,0.188,115,162.0
4566,E3,403.871,0.188,115,162.0
4567,B3,403.871,0.188,115,162.0
4568,E3,404.106,0.375,115,162.0
4569,B3,404.106,0.375,115,162.0
4570,E3,404.106,0.375,115,162.0
4571,B3,404.106,0.375,115,162.0
4572,E2,404.121,0.5,115,162.0
4573,D2,404.121,0.25,115,162.0
4574,B3,404.606,0.188,115,162.0
4575,E3,404.606,0.188,115,162.0
4576,B3,404.606,0.188,115,162.0
4577,E3,404.606,0.188,115,162.0
4578,E2,404.621,0.188,115,162.0
4579,B1,404.621,0.188,115,162.0
4580,B3,404.621,0.188,115,162.0
4581,E3,404.621,0.188,115,162.0
4582,E3,404.856,0.188,115,162.0
4583,B3,404.856,0.188,115,162.0
4584,E3,404.856,0.188,115,162.0
4585,B3,404.856,0.188,115,162.0
4586,E2,404.871,0.188,115,162.0
4587,E3,404.871,0.188,115,162.0
4588,B3,404.871,0.188,115,162.0
4589,A3,405.121,0.5,115,162.0
4590,D3,405.121,0.5,115,162.0
4591,D2,405.121,0.5,115,162.0
4592,A3,405.121,0.5,115,162.0
4593,D3,405.121,0.5,115,162.0
4594,B1,405.121,0.25,115,162.0
4595,C#3,405.121,0.25,115,162.0
4596,A3,405.621,0.5,115,162.0
4597,G2,405.621,0.5,115,162.0
4598,A3,405.621,0.5,115,162.0
4599,B1,405.621,0.25,115,162.0
4600,C#3,405.621,0.25,115,162.0
4601,D3,405.871,0.25,115,162.0
4602,D3,405.871,0.25,115,162.0
4603,D3,406.121,0.5,115,162.0
4604,A3,406.121,0.5,115,162.0
4605,D2,406.121,0.5,115,162.0
4606,D3,406.121,0.5,115,162.0
4607,A3,406.121,0.5,115,162.0
4608,B1,406.121,0.25,115,162.0
4609,C#3,406.121,0.25,115,162.0
4610,E2,406.621,0.5,115,162.0
4611,B3,406.621,0.5,115,162.0
4612,E4,406.621,0.5,115,162.0
4613,E3,406.621,0.5,115,162.0
4614,D5,406.621,0.5,115,162.0
4615,D5,406.621,0.5,115,162.0
4616,B1,406.621,0.25,115,162.0
4617,C#3,406.621,0.25,115,162.0
4618,E2,407.121,0.5,115,162.0
4619,B3,407.121,161/40,115,162.0
4620,E4,407.121,161/40,115,162.0
4621,E3,407.121,161/40,115,162.0
4622,D5,407.121,1.5,115,162.0
4623,D5,407.121,1.5,115,162.0
4624,E2,407.621,101/500,115,162.0
4625,B1,407.621,0.125,115,162.0
4626,E2,407.856,21/100,115,162.0
4627,B1,407.871,0.125,115,162.0
4628,E2,408.106,49/125,115,162.0
4629,E-3,408.121,0.25,115,162.0
4630,D2,408.121,0.25,115,162.0
4631,E2,408.621,101/500,115,162.0
4632,B1,408.621,0.125,115,162.0
4633,D5,408.621,2.0,115,162.0
4634,D5,408.621,2.0,115,162.0
4635,E2,408.856,21/100,115,162.0
4636,B1,408.871,0.125,115,162.0
4637,E2,409.106,49/125,115,162.0
4638,E-3,409.121,0.25,115,162.0
4639,B1,409.121,0.25,115,162.0
4640,E2,409.606,0.125,115,162.0
4641,B1,409.606,0.125,115,162.0
4642,E2,409.856,21/100,115,162.0
4643,B1,409.871,0.125,115,162.0
4644,E2,410.106,49/125,115,162.0
4645,E-3,410.121,0.25,115,162.0
4646,D2,410.121,0.25,115,162.0
4647,E2,410.621,101/500,115,162.0
4648,B1,410.621,0.125,115,162.0
4649,D5,410.621,0.5,115,162.0
4650,D5,410.621,0.5,115,162.0
4651,E2,410.856,21/100,115,162.0
4652,B1,410.871,0.125,115,162.0
4653,D2,411.146,377/1000,115,162.0
4654,A3,411.146,4.0,115,162.0
4655,D4,411.146,4.0,115,162.0
4656,D3,411.146,4.0,115,162.0
4657,C#3,411.146,0.25,115,162.0
4658,B1,411.146,0.25,115,162.0
4659,D5,411.146,93/125,115,162.0
4660,D5,411.146,93/125,115,162.0
4661,D2,411.646,101/500,115,162.0
4662,B1,411.646,0.125,115,162.0
4663,D2,411.881,0.25,115,162.0
4664,B4,411.881,0.25,115,162.0
4665,B1,411.896,0.125,115,162.0
4666,B4,411.927,0.25,115,162.0
4667,D2,412.131,49/125,115,162.0
4668,D5,412.146,1121/500,115,162.0
4669,D5,412.146,1121/500,115,162.0
4670,E-3,412.146,0.25,115,162.0
4671,D2,412.146,0.25,115,162.0
4672,D2,412.631,0.125,115,162.0
4673,B1,412.631,0.125,115,162.0
4674,D2,412.881,21/100,115,162.0
4675,B1,412.896,0.125,115,162.0
4676,D2,413.146,377/1000,115,162.0
4677,E-3,413.146,0.25,115,162.0
4678,B1,413.146,0.25,115,162.0
4679,D2,413.646,101/500,115,162.0
4680,B1,413.646,0.125,115,162.0
4681,D2,413.881,21/100,115,162.0
4682,B1,413.896,0.125,115,162.0
4683,D2,414.131,49/125,115,162.0
4684,E-3,414.146,0.25,115,162.0
4685,D2,414.146,0.25,115,162.0
4686,B4,414.396,0.25,115,162.0
4687,B4,414.396,0.25,115,162.0
4688,D2,414.631,0.125,115,162.0
4689,B1,414.631,0.125,115,162.0
4690,G5,414.646,0.5,115,162.0
4691,G5,414.646,0.5,115,162.0
4692,D2,414.881,53/200,115,162.0
4693,B1,414.896,0.125,115,162.0
4694,B1,415.198,377/1000,115,162.0
4695,D2,415.198,1/40,115,162.0
4696,F#3,415.198,4.0,115,162.0
4697,B3,415.198,4.0,115,162.0
4698,B2,415.198,4.0,115,162.0
4699,C#3,415.198,0.25,115,162.0
4700,B1,415.198,0.25,115,162.0
4701,A3,415.198,13/250,115,162.0
4702,D4,415.198,13/250,115,162.0
4703,D3,415.198,13/250,115,162.0
4704,G5,415.198,2.0,115,162.0
4705,G5,415.198,2.0,115,162.0
4706,B1,415.698,101/500,115,162.0
4707,B1,415.698,0.125,115,162.0
4708,B1,415.933,21/100,115,162.0
4709,B1,415.948,0.125,115,162.0
4710,B1,416.183,49/125,115,162.0
4711,E-3,416.198,0.25,115,162.0
4712,D2,416.198,0.25,115,162.0
4713,B1,416.683,0.125,115,162.0
4714,B1,416.683,0.125,115,162.0
4715,B1,416.933,21/100,115,162.0
4716,B1,416.948,0.125,115,162.0
4717,B1,417.198,377/1000,115,162.0
4718,G5,417.198,0.25,115,162.0
4719,E-3,417.198,0.25,115,162.0
4720,B1,417.198,0.25,115,162.0
4721,G5,417.198,0.25,115,162.0
4722,E5,417.448,0.25,115,162.0
4723,E5,417.448,0.25,115,162.0
4724,B1,417.698,0.125,115,162.0
4725,B1,417.698,0.25,115,162.0
4726,B-4,417.698,0.25,115,162.0
4727,B-4,417.729,0.25,115,162.0
4728,B1,417.933,0.25,115,162.0
4729,A4,417.933,0.25,115,162.0
4730,B1,417.948,0.125,115,162.0
4731,A4,417.979,0.25,115,162.0
4732,B1,418.183,49/125,115,162.0
4733,G4,418.198,0.25,115,162.0
4734,E-3,418.198,0.25,115,162.0
4735,D2,418.198,0.25,115,162.0
4736,G4,418.198,0.25,115,162.0
4737,E4,418.448,0.75,115,162.0
4738,E4,418.448,0.75,115,162.0
4739,B1,418.683,0.125,115,162.0
4740,B1,418.683,0.125,115,162.0
4741,B1,418.933,53/200,115,162.0
4742,B1,418.948,0.125,115,162.0
4743,C2,419.25,377/1000,115,162.0
4744,E-3,419.25,0.25,115,162.0
4745,B1,419.25,1/40,115,162.0
4746,G3,419.25,2.0,115,162.0
4747,C4,419.25,2.0,115,162.0
4748,C3,419.25,2.0,115,162.0
4749,F#3,419.25,13/250,115,162.0
4750,B3,419.25,13/250,115,162.0
4751,B2,419.25,13/250,115,162.0
4752,E4,419.25,747/500,115,162.0
4753,E4,419.25,747/500,115,162.0
4754,C2,419.75,101/500,115,162.0
4755,B1,419.75,0.125,115,162.0
4756,C2,419.985,21/100,115,162.0
4757,B1,420.0,0.125,115,162.0
4758,G2,420.235,49/125,115,162.0
4759,D2,420.25,0.25,115,162.0
4760,C#3,420.25,0.25,115,162.0
4761,C2,420.735,0.125,115,162.0
4762,B1,420.735,0.125,115,162.0
4763,D4,420.75,0.5,115,162.0
4764,D4,420.75,0.5,115,162.0
4765,C2,420.985,21/100,115,162.0
4766,B1,421.0,0.125,115,162.0
4767,D2,421.25,377/1000,115,162.0
4768,A3,421.25,2.0,115,162.0
4769,D4,421.25,2.0,115,162.0
4770,D3,421.25,2.0,115,162.0
4771,B3,421.25,1.5,115,162.0
4772,B3,421.25,1.5,115,162.0
4773,E-3,421.25,0.25,115,162.0
4774,B1,421.25,0.25,115,162.0
4775,D2,421.75,101/500,115,162.0
4776,B1,421.75,0.125,115,162.0
4777,D2,421.985,21/100,115,162.0
4778,B1,422.0,0.125,115,162.0
4779,A2,422.235,49/125,115,162.0
4780,D2,422.25,0.25,115,162.0
4781,C#3,422.25,0.25,115,162.0
4782,D2,422.735,0.125,115,162.0
4783,B1,422.735,0.125,115,162.0
4784,A4,422.75,0.5,115,162.0
4785,A4,422.75,0.5,115,162.0
4786,D2,422.985,53/200,115,162.0
4787,B1,423.0,0.125,115,162.0
4788,E2,423.25,0.5,115,162.0
4789,E-3,423.25,0.25,115,162.0
4790,D2,423.25,1/40,115,162.0
4791,B3,423.25,4.0,115,162.0
4792,E4,423.25,4.0,115,162.0
4793,E3,423.25,4.0,115,162.0
4794,A4,423.25,157/125,115,162.0
4795,A4,423.25,157/125,115,162.0
4796,E2,423.75,101/500,115,162.0
4797,B1,423.75,0.125,115,162.0
4798,E2,423.985,21/100,115,162.0
4799,B1,424.0,0.125,115,162.0
4800,E2,424.235,49/125,115,162.0
4801,E-3,424.25,0.25,115,162.0
4802,D2,424.25,0.25,115,162.0
4803,B4,424.512,0.25,115,162.0
4804,B4,424.512,0.25,115,162.0
4805,B1,424.75,0.125,115,162.0
4806,E2,424.75,0.25,115,162.0
4807,C5,424.75,0.25,115,162.0
4808,C5,424.794,0.25,115,162.0
4809,E2,424.985,0.25,115,162.0
4810,A4,424.985,0.25,115,162.0
4811,B1,425.0,0.125,115,162.0
4812,A4,425.023,0.25,115,162.0
4813,E2,425.235,49/125,115,162.0
4814,B4,425.242,0.25,115,162.0
4815,E-3,425.242,0.25,115,162.0
4816,B1,425.242,0.25,115,162.0
4817,B4,425.242,0.25,115,162.0
4818,B4,425.492,0.25,115,162.0
4819,B4,425.492,0.25,115,162.0
4820,E2,425.735,0.125,115,162.0
4821,B1,425.735,0.125,115,162.0
4822,C5,425.742,0.25,115,162.0
4823,C5,425.742,0.25,115,162.0
4824,E2,425.985,0.25,115,162.0
4825,A4,425.985,0.25,115,162.0
4826,B1,426.0,0.125,115,162.0
4827,A4,426.023,0.25,115,162.0
4828,E2,426.235,49/125,115,162.0
4829,B4,426.242,0.25,115,162.0
4830,E-3,426.242,0.25,115,162.0
4831,D2,426.242,0.25,115,162.0
4832,B4,426.242,0.25,115,162.0
4833,B4,426.506,0.25,115,162.0
4834,B4,426.506,0.25,115,162.0
4835,C5,426.742,0.25,115,162.0
4836,E2,426.742,0.25,115,162.0
4837,C5,426.742,0.25,115,162.0
4838,B1,426.75,0.125,115,162.0
4839,E2,426.985,0.25,115,162.0
4840,A4,426.985,0.25,115,162.0
4841,B1,427.0,0.125,115,162.0
4842,A4,427.023,227/1000,115,162.0
4843,B4,427.242,1/125,115,162.0
4844,C#3,427.242,1/125,115,162.0
4845,B1,427.242,1/125,115,162.0
4846,B4,427.242,1/125,115,162.0
4847,D2,427.25,377/1000,115,162.0
4848,A4,427.25,23/1000,115,162.0
4849,D3,427.25,4.0,115,162.0
4850,D4,427.25,4.0,115,162.0
4851,A3,427.25,4.0,115,162.0
4852,B4,427.25,121/500,115,162.0
4853,C#3,427.25,121/500,115,162.0
4854,B1,427.25,121/500,115,162.0
4855,B4,427.25,121/500,115,162.0
4856,B4,427.506,0.25,115,162.0
4857,B4,427.506,0.25,115,162.0
4858,C5,427.742,0.25,115,162.0
4859,D2,427.742,0.25,115,162.0
4860,C5,427.742,0.25,115,162.0
4861,B1,427.75,0.125,115,162.0
4862,D2,427.985,0.25,115,162.0
4863,A4,427.985,0.25,115,162.0
4864,B1,428.0,0.125,115,162.0
4865,A4,428.023,0.25,115,162.0
4866,D2,428.235,49/125,115,162.0
4867,B4,428.242,0.25,115,162.0
4868,E-3,428.242,0.25,115,162.0
4869,D2,428.242,0.25,115,162.0
4870,B4,428.242,0.25,115,162.0
4871,B4,428.506,0.25,115,162.0
4872,B4,428.506,0.25,115,162.0
4873,D2,428.735,0.125,115,162.0
4874,B1,428.735,0.125,115,162.0
4875,C5,428.742,0.25,115,162.0
4876,C5,428.742,0.25,115,162.0
4877,D2,428.985,0.25,115,162.0
4878,A4,428.985,0.25,115,162.0
4879,B1,429.0,0.125,115,162.0
4880,A4,429.023,0.25,115,162.0
4881,B4,429.242,0.25,115,162.0
4882,E-3,429.242,0.25,115,162.0
4883,B1,429.242,0.25,115,162.0
4884,B4,429.242,0.25,115,162.0
4885,D2,429.25,377/1000,115,162.0
4886,B4,429.506,0.25,115,162.0
4887,B4,429.506,0.25,115,162.0
4888,C5,429.742,0.25,115,162.0
4889,D2,429.742,0.25,115,162.0
4890,C5,429.742,0.25,115,162.0
4891,B1,429.75,0.125,115,162.0
4892,D2,429.985,0.25,115,162.0
4893,A4,429.985,0.25,115,162.0
4894,B1,430.0,0.125,115,162.0
4895,A4,430.023,0.25,115,162.0
4896,D2,430.235,49/125,115,162.0
4897,B4,430.242,0.25,115,162.0
4898,E-3,430.242,0.25,115,162.0
4899,D2,430.242,0.25,115,162.0
4900,B4,430.242,0.25,115,162.0
4901,B4,430.506,0.25,115,162.0
4902,B4,430.506,0.25,115,162.0
4903,D2,430.735,0.125,115,162.0
4904,B1,430.735,0.125,115,162.0
4905,C5,430.742,0.25,115,162.0
4906,C5,430.742,0.25,115,162.0
4907,D2,430.985,0.25,115,162.0
4908,A4,430.985,0.25,115,162.0
4909,A4,430.985,0.25,115,162.0
4910,B1,431.0,0.125,115,162.0
4911,B4,431.242,1/125,115,162.0
4912,C#3,431.242,1/125,115,162.0
4913,B1,431.242,1/125,115,162.0
4914,B4,431.242,1/125,115,162.0
4915,B1,431.302,377/1000,115,162.0
4916,F#3,431.302,4.0,115,162.0
4917,B3,431.302,4.0,115,162.0
4918,B2,431.302,4.0,115,162.0
4919,D3,431.302,13/250,115,162.0
4920,D4,431.302,13/250,115,162.0
4921,A3,431.302,13/250,115,162.0
4922,B4,431.302,121/500,115,162.0
4923,C#3,431.302,121/500,115,162.0
4924,B1,431.302,121/500,115,162.0
4925,B4,431.302,121/500,115,162.0
4926,B4,431.558,0.25,115,162.0
4927,B4,431.558,0.25,115,162.0
4928,C5,431.794,0.25,115,162.0
4929,B1,431.794,0.25,115,162.0
4930,C5,431.794,0.25,115,162.0
4931,B1,431.802,0.125,115,162.0
4932,B1,432.038,0.25,115,162.0
4933,A4,432.038,0.25,115,162.0
4934,B1,432.052,0.125,115,162.0
4935,A4,432.075,0.25,115,162.0
4936,B1,432.288,49/125,115,162.0
4937,B4,432.294,0.25,115,162.0
4938,E-3,432.294,0.25,115,162.0
4939,D2,432.294,0.25,115,162.0
4940,B4,432.294,0.25,115,162.0
4941,B4,432.558,0.25,115,162.0
4942,B4,432.558,0.25,115,162.0
4943,B1,432.788,0.125,115,162.0
4944,B1,432.788,0.125,115,162.0
4945,C5,432.794,0.25,115,162.0
4946,C5,432.794,0.25,115,162.0
4947,B1,433.038,0.25,115,162.0
4948,A4,433.038,0.25,115,162.0
4949,B1,433.052,0.125,115,162.0
4950,A4,433.075,0.25,115,162.0
4951,B4,433.294,0.25,115,162.0
4952,E-3,433.294,0.25,115,162.0
4953,B1,433.294,0.25,115,162.0
4954,B4,433.294,0.25,115,162.0
4955,B1,433.302,377/1000,115,162.0
4956,B4,433.558,0.25,115,162.0
4957,B4,433.558,0.25,115,162.0
4958,C5,433.794,0.25,115,162.0
4959,B1,433.794,0.25,115,162.0
4960,C5,433.794,0.25,115,162.0
4961,B1,433.802,0.125,115,162.0
4962,B1,434.038,0.25,115,162.0
4963,A4,434.038,0.25,115,162.0
4964,B1,434.052,0.125,115,162.0
4965,A4,434.075,0.25,115,162.0
4966,B1,434.288,49/125,115,162.0
4967,B-4,434.294,0.25,115,162.0
4968,E-3,434.294,0.25,115,162.0
4969,D2,434.294,0.25,115,162.0
4970,B-4,434.294,0.25,115,162.0
4971,A4,434.558,0.25,115,162.0
4972,A4,434.558,0.25,115,162.0
4973,B1,434.788,0.125,115,162.0
4974,B1,434.788,0.125,115,162.0
4975,G4,434.794,0.25,115,162.0
4976,G4,434.794,0.25,115,162.0
4977,B1,435.038,0.25,115,162.0
4978,A4,435.038,0.25,115,162.0
4979,A4,435.038,0.25,115,162.0
4980,B1,435.052,0.125,115,162.0
4981,C2,435.354,377/1000,115,162.0
4982,G3,435.354,2.0,115,162.0
4983,C4,435.354,2.0,115,162.0
4984,C3,435.354,2.0,115,162.0
4985,E-3,435.354,0.25,115,162.0
4986,A4,435.354,0.25,115,162.0
4987,A4,435.354,0.25,115,162.0
4988,F#3,435.354,13/250,115,162.0
4989,B3,435.354,13/250,115,162.0
4990,B2,435.354,13/250,115,162.0
4991,G4,435.61,689/250,115,162.0
4992,G4,435.61,689/250,115,162.0
4993,C2,435.854,101/500,115,162.0
4994,B1,435.854,0.125,115,162.0
4995,C2,436.09,21/100,115,162.0
4996,B1,436.104,0.125,115,162.0
4997,G2,436.34,49/125,115,162.0
4998,D2,436.354,0.25,115,162.0
4999,C#3,436.354,0.25,115,162.0
5000,C2,436.84,0.125,115,162.0
5001,B1,436.84,0.125,115,162.0
5002,C2,437.09,21/100,115,162.0
5003,B1,437.104,0.125,115,162.0
5004,D2,437.354,377/1000,115,162.0
5005,A3,437.354,2.0,115,162.0
5006,D4,437.354,2.0,115,162.0
5007,D3,437.354,2.0,115,162.0
5008,E-3,437.354,0.25,115,162.0
5009,B1,437.354,0.25,115,162.0
5010,D2,437.854,101/500,115,162.0
5011,B1,437.854,0.125,115,162.0
5012,D2,438.09,21/100,115,162.0
5013,B1,438.104,0.125,115,162.0
5014,A2,438.34,49/125,115,162.0
5015,D2,438.354,0.25,115,162.0
5016,C#3,438.354,0.25,115,162.0
5017,D2,438.84,0.125,115,162.0
5018,B1,438.84,0.125,115,162.0
5019,E5,438.854,0.5,115,162.0
5020,E5,438.854,0.5,115,162.0
5021,D2,439.09,53/200,115,162.0
5022,B1,439.104,0.125,115,162.0
5023,E2,439.354,0.5,115,162.0
5024,D2,439.354,1/40,115,162.0
5025,E3,439.354,4.0,115,162.0
5026,E4,439.354,4.0,115,162.0
5027,B3,439.354,4.0,115,162.0
5028,G5,439.354,0.25,115,162.0
5029,E-3,439.354,0.25,115,162.0
5030,G5,439.354,0.25,115,162.0
5031,B5,439.61,0.25,115,162.0
5032,B5,439.61,0.25,115,162.0
5033,B1,439.854,0.125,115,162.0
5034,E2,439.854,0.25,115,162.0
5035,G5,439.854,0.25,115,162.0
5036,G5,439.892,0.25,115,162.0
5037,E2,440.09,0.25,115,162.0
5038,A5,440.09,0.25,115,162.0
5039,B1,440.104,0.125,115,162.0
5040,A5,440.142,0.25,115,162.0
5041,E2,440.34,49/125,115,162.0
5042,E-3,440.354,0.25,115,162.0
5043,D2,440.354,0.25,115,162.0
5044,G5,440.354,0.25,115,162.0
5045,G5,440.354,0.25,115,162.0
5046,E5,440.61,0.25,115,162.0
5047,E5,440.61,0.25,115,162.0
5048,B1,440.854,0.125,115,162.0
5049,E2,440.854,0.25,115,162.0
5050,G5,440.854,0.25,115,162.0
5051,G5,440.885,0.25,115,162.0
5052,E2,441.09,0.25,115,162.0
5053,B5,441.09,0.25,115,162.0
5054,B1,441.104,0.125,115,162.0
5055,B5,441.142,0.25,115,162.0
5056,E2,441.34,49/125,115,162.0
5057,E-3,441.354,0.25,115,162.0
5058,B1,441.354,0.25,115,162.0
5059,G5,441.354,0.25,115,162.0
5060,G5,441.354,0.25,115,162.0
5061,A5,441.61,0.25,115,162.0
5062,A5,441.61,0.25,115,162.0
5063,E2,441.84,0.125,115,162.0
5064,B1,441.84,0.125,115,162.0
5065,G5,441.86,0.25,115,162.0
5066,G5,441.86,0.25,115,162.0
5067,E2,442.09,0.25,115,162.0
5068,E5,442.09,0.25,115,162.0
5069,B1,442.104,0.125,115,162.0
5070,E5,442.142,0.25,115,162.0
5071,E2,442.34,49/125,115,162.0
5072,G5,442.354,0.25,115,162.0
5073,E-3,442.354,0.25,115,162.0
5074,D2,442.354,0.25,115,162.0
5075,G5,442.354,0.25,115,162.0
5076,B5,442.61,0.25,115,162.0
5077,B5,442.61,0.25,115,162.0
5078,B1,442.854,0.125,115,162.0
5079,E2,442.854,0.25,115,162.0
5080,G5,442.854,0.25,115,162.0
5081,G5,442.892,0.25,115,162.0
5082,E2,443.09,0.25,115,162.0
5083,A5,443.09,0.25,115,162.0
5084,B1,443.104,0.125,115,162.0
5085,A5,443.142,53/250,115,162.0
5086,D2,443.354,377/1000,115,162.0
5087,A5,443.354,19/500,115,162.0
5088,D3,443.354,4.0,115,162.0
5089,D4,443.354,4.0,115,162.0
5090,A3,443.354,4.0,115,162.0
5091,C#3,443.354,0.25,115,162.0
5092,B1,443.354,0.25,115,162.0
5093,G5,443.354,0.25,115,162.0
5094,G5,443.354,0.25,115,162.0
5095,E5,443.61,0.25,115,162.0
5096,E5,443.61,0.25,115,162.0
5097,B1,443.854,0.125,115,162.0
5098,D2,443.854,0.25,115,162.0
5099,G5,443.854,0.25,115,162.0
5100,G5,443.885,0.25,115,162.0
5101,D2,444.09,0.25,115,162.0
5102,B5,444.09,0.25,115,162.0
5103,B1,444.104,0.125,115,162.0
5104,B5,444.142,0.25,115,162.0
5105,D2,444.34,49/125,115,162.0
5106,E-3,444.354,0.25,115,162.0
5107,D2,444.354,0.25,115,162.0
5108,G5,444.354,0.25,115,162.0
5109,G5,444.354,0.25,115,162.0
5110,A5,444.61,0.25,115,162.0
5111,A5,444.61,0.25,115,162.0
5112,D2,444.84,0.125,115,162.0
5113,B1,444.84,0.125,115,162.0
5114,G5,444.86,0.25,115,162.0
5115,G5,444.86,0.25,115,162.0
5116,D2,445.09,0.25,115,162.0
5117,E5,445.09,0.25,115,162.0
5118,B1,445.104,0.125,115,162.0
5119,E5,445.142,0.25,115,162.0
5120,D2,445.354,377/1000,115,162.0
5121,G5,445.354,0.25,115,162.0
5122,E-3,445.354,0.25,115,162.0
5123,B1,445.354,0.25,115,162.0
5124,G5,445.354,0.25,115,162.0
5125,B5,445.61,0.25,115,162.0
5126,B5,445.61,0.25,115,162.0
5127,B1,445.854,0.125,115,162.0
5128,D2,445.854,0.25,115,162.0
5129,G5,445.854,0.25,115,162.0
5130,G5,445.892,0.25,115,162.0
5131,D2,446.09,0.25,115,162.0
5132,A5,446.09,0.25,115,162.0
5133,B1,446.104,0.125,115,162.0
5134,A5,446.142,0.25,115,162.0
5135,D2,446.34,49/125,115,162.0
5136,E-3,446.354,0.25,115,162.0
5137,D2,446.354,0.25,115,162.0
5138,G5,446.354,0.25,115,162.0
5139,G5,446.354,0.25,115,162.0
5140,E5,446.61,0.25,115,162.0
5141,E5,446.61,0.25,115,162.0
5142,D2,446.84,0.125,115,162.0
5143,B1,446.84,0.125,115,162.0
5144,G5,446.854,0.25,115,162.0
5145,G5,446.854,0.25,115,162.0
5146,D2,447.09,0.25,115,162.0
5147,B5,447.09,0.25,115,162.0
5148,B5,447.09,0.25,115,162.0
5149,B1,447.104,0.125,115,162.0
5150,B1,447.406,377/1000,115,162.0
5151,F#3,447.406,4.0,115,162.0
5152,B3,447.406,4.0,115,162.0
5153,B2,447.406,4.0,115,162.0
5154,C#3,447.406,0.25,115,162.0
5155,B1,447.406,0.25,115,162.0
5156,G5,447.406,0.25,115,162.0
5157,G5,447.406,0.25,115,162.0
5158,D3,447.406,13/250,115,162.0
5159,D4,447.406,13/250,115,162.0
5160,A3,447.406,13/250,115,162.0
5161,A5,447.663,0.25,115,162.0
5162,A5,447.663,0.25,115,162.0
5163,B1,447.906,0.125,115,162.0
5164,B1,447.906,0.25,115,162.0
5165,G5,447.906,0.25,115,162.0
5166,G5,447.944,0.25,115,162.0
5167,B1,448.142,0.25,115,162.0
5168,E5,448.142,0.25,115,162.0
5169,B1,448.156,0.125,115,162.0
5170,E5,448.194,0.25,115,162.0
5171,B1,448.392,49/125,115,162.0
5172,G5,448.406,0.25,115,162.0
5173,E-3,448.406,0.25,115,162.0
5174,D2,448.406,0.25,115,162.0
5175,G5,448.406,0.25,115,162.0
5176,B5,448.663,0.25,115,162.0
5177,B5,448.663,0.25,115,162.0
5178,B1,448.892,0.125,115,162.0
5179,B1,448.892,0.125,115,162.0
5180,G5,448.913,0.25,115,162.0
5181,G5,448.913,0.25,115,162.0
5182,B1,449.142,0.25,115,162.0
5183,A5,449.142,0.25,115,162.0
5184,B1,449.156,0.125,115,162.0
5185,A5,449.194,0.25,115,162.0
5186,B1,449.406,377/1000,115,162.0
5187,E-3,449.406,0.25,115,162.0
5188,B1,449.406,0.25,115,162.0
5189,G5,449.406,0.25,115,162.0
5190,G5,449.406,0.25,115,162.0
5191,E5,449.663,0.25,115,162.0
5192,E5,449.663,0.25,115,162.0
5193,B1,449.906,101/500,115,162.0
5194,B1,449.906,0.125,115,162.0
5195,C#5,449.906,0.5,115,162.0
5196,C#5,449.906,0.5,115,162.0
5197,C#5,449.906,0.5,115,162.0
5198,C#5,449.906,0.5,115,162.0
5199,B1,450.142,21/100,115,162.0
5200,B1,450.156,0.125,115,162.0
5201,B1,450.392,49/125,115,162.0
5202,C6,450.406,0.25,115,162.0
5203,E-3,450.406,0.25,115,162.0
5204,D2,450.406,0.25,115,162.0
5205,C6,450.406,0.25,115,162.0
5206,D6,450.656,61/125,115,162.0
5207,D6,450.656,61/125,115,162.0
5208,B1,450.892,0.125,115,162.0
5209,B1,450.892,0.125,115,162.0
5210,B1,451.142,0.25,115,162.0
5211,C6,451.142,0.25,115,162.0
5212,C6,451.142,0.25,115,162.0
5213,B1,451.156,0.125,115,162.0
5214,C2,451.458,377/1000,115,162.0
5215,E-3,451.458,0.25,115,162.0
5216,G3,451.458,2.0,115,162.0
5217,C4,451.458,2.0,115,162.0
5218,C3,451.458,2.0,115,162.0
5219,D6,451.458,0.5,115,162.0
5220,D6,451.458,0.5,115,162.0
5221,F#3,451.458,13/250,115,162.0
5222,B3,451.458,13/250,115,162.0
5223,B2,451.458,13/250,115,162.0
5224,B1,451.958,0.125,115,162.0
5225,C2,451.958,0.25,115,162.0
5226,C6,451.958,0.25,115,162.0
5227,C6,451.99,0.25,115,162.0
5228,C2,452.194,21/100,115,162.0
5229,B1,452.208,0.125,115,162.0
5230,D6,452.208,61/125,115,162.0
5231,D6,452.208,61/125,115,162.0
5232,G2,452.444,49/125,115,162.0
5233,D2,452.458,0.25,115,162.0
5234,C#3,452.458,0.25,115,162.0
5235,C6,452.708,0.25,115,162.0
5236,C6,452.708,0.25,115,162.0
5237,C2,452.944,0.125,115,162.0
5238,B1,452.944,0.125,115,162.0
5239,D6,452.958,0.5,115,162.0
5240,D6,452.958,0.5,115,162.0
5241,C2,453.194,21/100,115,162.0
5242,B1,453.208,0.125,115,162.0
5243,D2,453.458,377/1000,115,162.0
5244,A3,453.458,2.0,115,162.0
5245,D4,453.458,2.0,115,162.0
5246,D3,453.458,2.0,115,162.0
5247,C6,453.458,0.25,115,162.0
5248,E-3,453.458,0.25,115,162.0
5249,B1,453.458,0.25,115,162.0
5250,C6,453.458,0.25,115,162.0
5251,C6,453.708,0.25,115,162.0
5252,C6,453.708,0.25,115,162.0
5253,B1,453.958,0.125,115,162.0
5254,D2,453.958,0.25,115,162.0
5255,D6,453.958,0.25,115,162.0
5256,D6,453.99,0.25,115,162.0
5257,D2,454.194,0.25,115,162.0
5258,C6,454.194,0.25,115,162.0
5259,B1,454.208,0.125,115,162.0
5260,C6,454.24,0.25,115,162.0
5261,A2,454.444,49/125,115,162.0
5262,C6,454.458,0.25,115,162.0
5263,D2,454.458,0.25,115,162.0
5264,C#3,454.458,0.25,115,162.0
5265,C6,454.458,0.25,115,162.0
5266,D6,454.708,0.25,115,162.0
5267,D6,454.708,0.25,115,162.0
5268,D2,454.944,0.125,115,162.0
5269,B1,454.944,0.125,115,162.0
5270,C6,454.958,0.25,115,162.0
5271,C6,454.958,0.25,115,162.0
5272,D2,455.194,0.25,115,162.0
5273,C6,455.194,0.25,115,162.0
5274,C6,455.194,0.25,115,162.0
5275,B1,455.208,0.125,115,162.0
5276,E2,455.458,0.5,115,162.0
5277,E-3,455.458,0.25,115,162.0
5278,E3,455.458,4.0,115,162.0
5279,E4,455.458,4.0,115,162.0
5280,B3,455.458,4.0,115,162.0
5281,D6,455.458,1.0,115,162.0
5282,D6,455.458,1.0,115,162.0
5283,E2,455.958,101/500,115,162.0
5284,B1,455.958,0.125,115,162.0
5285,E2,456.194,21/100,115,162.0
5286,B1,456.208,0.125,115,162.0
5287,E2,456.444,49/125,115,162.0
5288,B5,456.458,0.5,115,162.0
5289,B5,456.458,0.5,115,162.0
5290,E-3,456.458,0.25,115,162.0
5291,D2,456.458,0.25,115,162.0
5292,E2,456.958,101/500,115,162.0
5293,B1,456.958,0.125,115,162.0
5294,C6,456.958,0.5,115,162.0
5295,C6,456.958,0.5,115,162.0
5296,E2,457.194,21/100,115,162.0
5297,B1,457.208,0.125,115,162.0
5298,E2,457.444,49/125,115,162.0
5299,A5,457.458,0.5,115,162.0
5300,A5,457.458,0.5,115,162.0
5301,E-3,457.458,0.25,115,162.0
5302,B1,457.458,0.25,115,162.0
5303,E2,457.944,0.125,115,162.0
5304,B1,457.944,0.125,115,162.0
5305,B5,457.958,0.5,115,162.0
5306,B5,457.958,0.5,115,162.0
5307,E2,458.194,21/100,115,162.0
5308,B1,458.208,0.125,115,162.0
5309,E2,458.444,49/125,115,162.0
5310,G5,458.458,0.5,115,162.0
5311,G5,458.458,0.5,115,162.0
5312,E-3,458.458,0.25,115,162.0
5313,D2,458.458,0.25,115,162.0
5314,E2,458.958,101/500,115,162.0
5315,B1,458.958,0.125,115,162.0
5316,A5,458.958,0.5,115,162.0
5317,A5,458.958,0.5,115,162.0
5318,E2,459.194,21/100,115,162.0
5319,B1,459.208,0.125,115,162.0
5320,D2,459.458,377/1000,115,162.0
5321,D3,459.458,4.0,115,162.0
5322,D4,459.458,4.0,115,162.0
5323,A3,459.458,4.0,115,162.0
5324,F#5,459.458,0.25,115,162.0
5325,C#3,459.458,0.25,115,162.0
5326,B1,459.458,0.25,115,162.0
5327,F#5,459.458,0.25,115,162.0
5328,G5,459.708,0.25,115,162.0
5329,G5,459.708,0.25,115,162.0
5330,D2,459.958,101/500,115,162.0
5331,B1,459.958,0.125,115,162.0
5332,E5,459.958,503/200,115,162.0
5333,E5,459.958,503/200,115,162.0
5334,D2,460.194,21/100,115,162.0
5335,B1,460.208,0.125,115,162.0
5336,D2,460.444,49/125,115,162.0
5337,E-3,460.458,0.25,115,162.0
5338,D2,460.458,0.25,115,162.0
5339,D2,460.944,0.125,115,162.0
5340,B1,460.944,0.125,115,162.0
5341,D2,461.194,21/100,115,162.0
5342,B1,461.208,0.125,115,162.0
5343,D2,461.458,377/1000,115,162.0
5344,E-3,461.458,0.25,115,162.0
5345,B1,461.458,0.25,115,162.0
5346,D2,461.958,101/500,115,162.0
5347,B1,461.958,0.125,115,162.0
5348,D2,462.194,21/100,115,162.0
5349,B1,462.208,0.125,115,162.0
5350,D2,462.444,49/125,115,162.0
5351,E-3,462.458,0.25,115,162.0
5352,D2,462.458,0.25,115,162.0
5353,D2,462.944,0.125,115,162.0
5354,B1,462.944,0.125,115,162.0
5355,D2,463.194,53/200,115,162.0
5356,B1,463.208,0.125,115,162.0
5357,B1,463.51,377/1000,115,162.0
5358,D2,463.51,1/40,115,162.0
5359,F#3,463.51,4.0,115,162.0
5360,B3,463.51,4.0,115,162.0
5361,B2,463.51,4.0,115,162.0
5362,A4,463.51,97/200,115,162.0
5363,A4,463.51,97/200,115,162.0
5364,C#3,463.51,0.25,115,162.0
5365,B1,463.51,0.25,115,162.0
5366,D3,463.51,13/250,115,162.0
5367,D4,463.51,13/250,115,162.0
5368,A3,463.51,13/250,115,162.0
5369,B1,464.01,101/500,115,162.0
5370,B1,464.01,0.125,115,162.0
5371,B4,464.01,103/200,115,162.0
5372,B4,464.01,103/200,115,162.0
5373,B1,464.246,21/100,115,162.0
5374,B1,464.26,0.125,115,162.0
5375,B1,464.496,49/125,115,162.0
5376,E5,464.51,0.5,115,162.0
5377,E5,464.51,0.5,115,162.0
5378,E-3,464.51,0.25,115,162.0
5379,D2,464.51,0.25,115,162.0
5380,B1,464.996,0.125,115,162.0
5381,B1,464.996,0.125,115,162.0
5382,D5,465.01,1.0,115,162.0
5383,D5,465.01,1.0,115,162.0
5384,B1,465.246,21/100,115,162.0
5385,B1,465.26,0.125,115,162.0
5386,B1,465.51,377/1000,115,162.0
5387,E-3,465.51,0.25,115,162.0
5388,B1,465.51,0.25,115,162.0
5389,B1,466.01,101/500,115,162.0
5390,B1,466.01,0.125,115,162.0
5391,E5,466.01,103/200,115,162.0
5392,E5,466.01,103/200,115,162.0
5393,B1,466.246,21/100,115,162.0
5394,B1,466.26,0.125,115,162.0
5395,B1,466.496,49/125,115,162.0
5396,D5,466.51,97/200,115,162.0
5397,D5,466.51,97/200,115,162.0
5398,E-3,466.51,0.25,115,162.0
5399,D2,466.51,0.25,115,162.0
5400,B1,466.996,0.125,115,162.0
5401,B1,466.996,0.125,115,162.0
5402,B4,467.01,0.25,115,162.0
5403,B4,467.01,0.25,115,162.0
5404,B1,467.246,0.25,115,162.0
5405,A4,467.246,0.25,115,162.0
5406,A4,467.246,0.25,115,162.0
5407,B1,467.26,0.125,115,162.0
5408,C2,467.562,377/1000,115,162.0
5409,D2,467.562,0.25,115,162.0
5410,G3,467.562,2.0,115,162.0
5411,C4,467.562,2.0,115,162.0
5412,C3,467.562,2.0,115,162.0
5413,B4,467.562,97/200,115,162.0
5414,B4,467.562,97/200,115,162.0
5415,F#3,467.562,13/250,115,162.0
5416,B3,467.562,13/250,115,162.0
5417,B2,467.562,13/250,115,162.0
5418,D2,467.812,0.25,115,162.0
5419,C2,468.062,0.25,115,162.0
5420,A4,468.062,0.25,115,162.0
5421,D2,468.062,0.25,115,162.0
5422,A4,468.094,0.25,115,162.0
5423,C2,468.298,0.25,115,162.0
5424,G4,468.298,0.25,115,162.0
5425,D2,468.298,0.25,115,162.0
5426,G4,468.344,0.25,115,162.0
5427,G2,468.548,49/125,115,162.0
5428,D2,468.562,0.25,115,162.0
5429,A4,468.562,0.5,115,162.0
5430,A4,468.562,0.5,115,162.0
5431,C2,469.048,19/100,115,162.0
5432,G4,469.062,0.5,115,162.0
5433,G4,469.062,0.5,115,162.0
5434,C2,469.298,21/100,115,162.0
5435,D2,469.562,97/200,115,162.0
5436,D2,469.562,0.25,115,162.0
5437,D4,469.562,297/200,115,162.0
5438,A3,469.562,297/200,115,162.0
5439,D3,469.562,297/200,115,162.0
5440,B3,469.562,2.0,115,162.0
5441,B3,469.562,2.0,115,162.0
5442,A2,470.062,103/200,115,162.0
5443,B1,470.062,0.25,115,162.0
5444,C#3,470.062,0.25,115,162.0
5445,D2,470.562,97/200,115,162.0
5446,B1,470.562,0.25,115,162.0
5447,C#3,470.562,0.25,115,162.0
5448,E5,471.048,0.25,115,162.0
5449,B1,471.048,0.25,115,162.0
5450,E5,471.048,0.25,115,162.0
5451,A2,471.062,0.5,115,162.0
5452,C#3,471.062,0.5,115,162.0
5453,G5,471.298,0.25,115,162.0
5454,G5,471.298,0.25,115,162.0
5455,A5,471.562,0.25,115,162.0
5456,A5,471.562,0.25,115,162.0
5457,A3,471.562,4.0,115,162.0
5458,A4,471.562,4.0,115,162.0
5459,E4,471.562,4.0,115,162.0
5460,A2,471.562,0.5,115,162.0
5461,C#3,471.562,0.5,115,162.0
5462,C6,471.812,0.25,115,162.0
5463,C6,471.812,0.25,115,162.0
5464,B1,472.062,0.125,115,162.0
5465,A5,472.062,0.25,115,162.0
5466,A2,472.062,0.25,115,162.0
5467,A5,472.062,0.25,115,162.0
5468,A2,472.298,0.25,115,162.0
5469,C6,472.298,0.25,115,162.0
5470,B1,472.312,0.125,115,162.0
5471,C6,472.344,0.25,115,162.0
5472,A2,472.548,49/125,115,162.0
5473,A5,472.562,0.25,115,162.0
5474,E-3,472.562,0.25,115,162.0
5475,D2,472.562,0.25,115,162.0
5476,A5,472.562,0.25,115,162.0
5477,C6,472.812,0.25,115,162.0
5478,C6,472.812,0.25,115,162.0
5479,B1,473.062,0.125,115,162.0
5480,A5,473.062,0.25,115,162.0
5481,A2,473.062,0.25,115,162.0
5482,A5,473.062,0.25,115,162.0
5483,A2,473.298,0.25,115,162.0
5484,C6,473.298,0.25,115,162.0
5485,B1,473.312,0.125,115,162.0
5486,C6,473.344,0.25,115,162.0
5487,A2,473.548,49/125,115,162.0
5488,G5,473.562,0.25,115,162.0
5489,E-3,473.562,0.25,115,162.0
5490,B1,473.562,0.25,115,162.0
5491,G5,473.562,0.25,115,162.0
5492,E5,473.812,0.25,115,162.0
5493,E5,473.812,0.25,115,162.0
5494,A2,474.048,0.125,115,162.0
5495,B1,474.048,0.125,115,162.0
5496,G5,474.062,0.25,115,162.0
5497,G5,474.062,0.25,115,162.0
5498,A2,474.298,0.25,115,162.0
5499,E5,474.298,0.25,115,162.0
5500,B1,474.312,0.125,115,162.0
5501,E5,474.344,0.25,115,162.0
5502,A2,474.548,49/125,115,162.0
5503,G5,474.562,0.25,115,162.0
5504,E-3,474.562,0.25,115,162.0
5505,D2,474.562,0.25,115,162.0
5506,G5,474.562,0.25,115,162.0
5507,E5,474.812,0.25,115,162.0
5508,E5,474.812,0.25,115,162.0
5509,B1,475.062,0.125,115,162.0
5510,G5,475.062,0.25,115,162.0
5511,A2,475.062,0.25,115,162.0
5512,G5,475.062,0.25,115,162.0
5513,A2,475.298,0.25,115,162.0
5514,E5,475.298,0.25,115,162.0
5515,B1,475.312,0.125,115,162.0
5516,E5,475.344,0.219,115,162.0
5517,G2,475.562,377/1000,115,162.0
5518,E5,475.562,0.031,115,162.0
5519,D5,475.562,3.0,115,162.0
5520,D5,475.562,3.0,115,162.0
5521,D4,475.562,4.0,115,162.0
5522,G4,475.562,4.0,115,162.0
5523,B4,475.562,4.0,115,162.0
5524,D5,475.562,4.0,115,162.0
5525,C#3,475.562,0.25,115,162.0
5526,B1,475.562,0.25,115,162.0
5527,G2,476.062,101/500,115,162.0
5528,B1,476.062,0.125,115,162.0
5529,G2,476.298,21/100,115,162.0
5530,B1,476.312,0.125,115,162.0
5531,G2,476.548,49/125,115,162.0
5532,E-3,476.562,0.25,115,162.0
5533,D2,476.562,0.25,115,162.0
5534,G2,477.048,0.125,115,162.0
5535,B1,477.048,0.125,115,162.0
5536,G2,477.298,21/100,115,162.0
5537,B1,477.312,0.125,115,162.0
5538,G2,477.562,377/1000,115,162.0
5539,E-3,477.562,0.25,115,162.0
5540,B1,477.562,0.25,115,162.0
5541,G2,478.062,101/500,115,162.0
5542,B1,478.062,0.125,115,162.0
5543,G2,478.298,21/100,115,162.0
5544,B1,478.312,0.125,115,162.0
5545,G2,478.548,49/125,115,162.0
5546,D5,478.562,0.25,115,162.0
5547,E-3,478.562,0.25,115,162.0
5548,D2,478.562,0.25,115,162.0
5549,D5,478.562,0.25,115,162.0
5550,C#5,478.812,0.25,115,162.0
5551,C#5,478.812,0.25,115,162.0
5552,G2,479.048,0.125,115,162.0
5553,B1,479.048,0.125,115,162.0
5554,C5,479.062,0.5,115,162.0
5555,C5,479.062,0.5,115,162.0
5556,G2,479.298,53/200,115,162.0
5557,B1,479.312,0.125,115,162.0
5558,E2,479.577,377/1000,115,162.0
5559,G2,479.577,1/40,115,162.0
5560,A4,479.577,0.5,115,162.0
5561,A4,479.577,0.5,115,162.0
5562,E3,479.577,4.0,115,162.0
5563,B3,479.577,4.0,115,162.0
5564,E4,479.577,4.0,115,162.0
5565,G4,479.577,4.0,115,162.0
5566,B4,479.577,4.0,115,162.0
5567,E5,479.577,4.0,115,162.0
5568,C#3,479.577,0.25,115,162.0
5569,B1,479.577,0.25,115,162.0
5570,C5,479.577,3/200,115,162.0
5571,C5,479.577,3/200,115,162.0
5572,C#5,480.071,0.5,115,162.0
5573,C#5,480.071,0.5,115,162.0
5574,E2,480.077,101/500,115,162.0
5575,B1,480.077,0.125,115,162.0
5576,E2,480.312,21/100,115,162.0
5577,B1,480.327,0.125,115,162.0
5578,E2,480.562,49/125,115,162.0
5579,C5,480.577,0.5,115,162.0
5580,C5,480.577,0.5,115,162.0
5581,E-3,480.577,0.25,115,162.0
5582,D2,480.577,0.25,115,162.0
5583,E2,481.062,0.125,115,162.0
5584,B1,481.062,0.125,115,162.0
5585,A4,481.077,0.5,115,162.0
5586,A4,481.077,0.5,115,162.0
5587,E2,481.312,21/100,115,162.0
5588,B1,481.327,0.125,115,162.0
5589,E2,481.577,377/1000,115,162.0
5590,E-4,481.577,0.5,115,162.0
5591,E-4,481.577,0.5,115,162.0
5592,E-3,481.577,0.25,115,162.0
5593,B1,481.577,0.25,115,162.0
5594,E2,482.077,101/500,115,162.0
5595,B1,482.077,0.125,115,162.0
5596,D4,482.077,0.5,115,162.0
5597,D4,482.077,0.5,115,162.0
5598,E2,482.312,21/100,115,162.0
5599,B1,482.327,0.125,115,162.0
5600,E2,482.562,49/125,115,162.0
5601,C4,482.577,0.5,115,162.0
5602,C4,482.577,0.5,115,162.0
5603,E-3,482.577,0.25,115,162.0
5604,D2,482.577,0.25,115,162.0
5605,E2,483.062,0.125,115,162.0
5606,B1,483.062,0.125,115,162.0
5607,A3,483.077,0.5,115,162.0
5608,A3,483.077,0.5,115,162.0
5609,E2,483.312,53/200,115,162.0
5610,B1,483.327,0.125,115,162.0
5611,F2,483.577,377/1000,115,162.0
5612,E-3,483.577,0.25,115,162.0
5613,E2,483.577,1/40,115,162.0
5614,C4,483.577,2.0,115,162.0
5615,F4,483.577,2.0,115,162.0
5616,A4,483.577,2.0,115,162.0
5617,C5,483.577,2.0,115,162.0
5618,A3,483.577,3.5,115,162.0
5619,A3,483.577,3.5,115,162.0
5620,F2,484.077,101/500,115,162.0
5621,B1,484.077,0.125,115,162.0
5622,F2,484.312,21/100,115,162.0
5623,B1,484.327,0.125,115,162.0
5624,C3,484.562,49/125,115,162.0
5625,D2,484.577,0.25,115,162.0
5626,C#3,484.577,0.25,115,162.0
5627,F2,485.062,0.125,115,162.0
5628,B1,485.062,0.125,115,162.0
5629,F2,485.312,21/100,115,162.0
5630,B1,485.327,0.125,115,162.0
5631,G2,485.577,377/1000,115,162.0
5632,D5,485.577,2.0,115,162.0
5633,B4,485.577,2.0,115,162.0
5634,G4,485.577,2.0,115,162.0
5635,D4,485.577,2.0,115,162.0
5636,E-3,485.577,0.25,115,162.0
5637,B1,485.577,0.25,115,162.0
5638,G2,486.077,101/500,115,162.0
5639,B1,486.077,0.125,115,162.0
5640,G2,486.312,21/100,115,162.0
5641,B1,486.327,0.125,115,162.0
5642,D3,486.562,49/125,115,162.0
5643,D2,486.577,0.25,115,162.0
5644,C#3,486.577,0.25,115,162.0
5645,G2,487.062,0.125,115,162.0
5646,B1,487.062,0.125,115,162.0
5647,E4,487.077,0.25,115,162.0
5648,E4,487.077,0.25,115,162.0
5649,G2,487.312,0.25,115,162.0
5650,F#4,487.312,0.25,115,162.0
5651,F#4,487.312,0.25,115,162.0
5652,B1,487.327,0.125,115,162.0
5653,A2,487.577,0.5,115,162.0
5654,E4,487.577,0.25,115,162.0
5655,E-3,487.577,0.25,115,162.0
5656,E4,487.577,0.25,115,162.0
5657,E4,487.577,4.0,115,162.0
5658,A4,487.577,4.0,115,162.0
5659,A3,487.577,4.0,115,162.0
5660,F#4,487.827,0.25,115,162.0
5661,F#4,487.827,0.25,115,162.0
5662,B1,488.077,0.125,115,162.0
5663,E4,488.077,0.25,115,162.0
5664,A2,488.077,0.25,115,162.0
5665,E4,488.077,0.25,115,162.0
5666,A2,488.312,0.25,115,162.0
5667,F#4,488.312,0.25,115,162.0
5668,B1,488.327,0.125,115,162.0
5669,F#4,488.358,0.25,115,162.0
5670,A2,488.562,49/125,115,162.0
5671,E4,488.577,0.25,115,162.0
5672,E-3,488.577,0.25,115,162.0
5673,D2,488.577,0.25,115,162.0
5674,E4,488.577,0.25,115,162.0
5675,A4,488.827,0.25,115,162.0
5676,A4,488.827,0.25,115,162.0
5677,B1,489.077,0.125,115,162.0
5678,B4,489.077,0.25,115,162.0
5679,A2,489.077,0.25,115,162.0
5680,B4,489.077,0.25,115,162.0
5681,A2,489.312,0.25,115,162.0
5682,A4,489.312,0.25,115,162.0
5683,B1,489.327,0.125,115,162.0
5684,A4,489.358,0.25,115,162.0
5685,A2,489.562,49/125,115,162.0
5686,B4,489.577,0.25,115,162.0
5687,E-3,489.577,0.25,115,162.0
5688,B1,489.577,0.25,115,162.0
5689,B4,489.577,0.25,115,162.0
5690,A4,489.827,0.25,115,162.0
5691,A4,489.827,0.25,115,162.0
5692,A2,490.062,0.125,115,162.0
5693,B1,490.062,0.125,115,162.0
5694,B4,490.077,0.25,115,162.0
5695,B4,490.077,0.25,115,162.0
5696,A2,490.312,0.25,115,162.0
5697,E4,490.312,0.25,115,162.0
5698,B1,490.327,0.125,115,162.0
5699,E4,490.358,0.25,115,162.0
5700,A2,490.562,49/125,115,162.0
5701,F#4,490.577,0.25,115,162.0
5702,E-3,490.577,0.25,115,162.0
5703,D2,490.577,0.25,115,162.0
5704,F#4,490.577,0.25,115,162.0
5705,E4,490.827,0.25,115,162.0
5706,E4,490.827,0.25,115,162.0
5707,B1,491.077,0.125,115,162.0
5708,F#4,491.077,0.25,115,162.0
5709,A2,491.077,0.25,115,162.0
5710,F#4,491.077,0.25,115,162.0
5711,A2,491.312,0.25,115,162.0
5712,F4,491.312,0.25,115,162.0
5713,B1,491.327,0.125,115,162.0
5714,F4,491.358,0.219,115,162.0
5715,G2,491.577,377/1000,115,162.0
5716,F4,491.577,0.031,115,162.0
5717,G4,491.577,0.25,115,162.0
5718,C#3,491.577,0.25,115,162.0
5719,B1,491.577,0.25,115,162.0
5720,G4,491.577,0.25,115,162.0
5721,D4,491.577,4.0,115,162.0
5722,G4,491.577,4.0,115,162.0
5723,B4,491.577,4.0,115,162.0
5724,D5,491.577,4.0,115,162.0
5725,A4,491.827,0.25,115,162.0
5726,A4,491.827,0.25,115,162.0
5727,B1,492.077,0.125,115,162.0
5728,B4,492.077,0.25,115,162.0
5729,G2,492.077,0.25,115,162.0
5730,B4,492.077,0.25,115,162.0
5731,G2,492.312,0.25,115,162.0
5732,A4,492.312,0.25,115,162.0
5733,B1,492.327,0.125,115,162.0
5734,A4,492.358,0.25,115,162.0
5735,G2,492.562,49/125,115,162.0
5736,B4,492.577,0.25,115,162.0
5737,E-3,492.577,0.25,115,162.0
5738,D2,492.577,0.25,115,162.0
5739,B4,492.577,0.25,115,162.0
5740,A4,492.827,0.25,115,162.0
5741,A4,492.827,0.25,115,162.0
5742,G2,493.062,0.125,115,162.0
5743,B1,493.062,0.125,115,162.0
5744,B4,493.077,103/200,115,162.0
5745,B4,493.077,103/200,115,162.0
5746,G2,493.312,21/100,115,162.0
5747,B1,493.327,0.125,115,162.0
5748,G2,493.577,377/1000,115,162.0
5749,C5,493.577,0.25,115,162.0
5750,E-3,493.577,0.25,115,162.0
5751,B1,493.577,0.25,115,162.0
5752,C5,493.577,0.25,115,162.0
5753,B4,493.827,0.25,115,162.0
5754,B4,493.827,0.25,115,162.0
5755,B1,494.077,0.125,115,162.0
5756,C5,494.077,0.25,115,162.0
5757,G2,494.077,0.25,115,162.0
5758,C5,494.077,0.25,115,162.0
5759,G2,494.312,0.25,115,162.0
5760,B4,494.312,0.25,115,162.0
5761,B1,494.327,0.125,115,162.0
5762,B4,494.358,0.25,115,162.0
5763,G2,494.562,49/125,115,162.0
5764,A4,494.577,0.25,115,162.0
5765,E-3,494.577,0.25,115,162.0
5766,D2,494.577,0.25,115,162.0
5767,A4,494.577,0.25,115,162.0
5768,B4,494.827,0.25,115,162.0
5769,B4,494.827,0.25,115,162.0
5770,G2,495.062,0.125,115,162.0
5771,B1,495.062,0.125,115,162.0
5772,B4,495.077,0.5,115,162.0
5773,B4,495.077,0.5,115,162.0
5774,G2,495.312,53/200,115,162.0
5775,B1,495.327,0.125,115,162.0
5776,E2,495.577,377/1000,115,162.0
5777,G2,495.577,1/40,115,162.0
5778,C5,495.577,0.5,115,162.0
5779,C5,495.577,0.5,115,162.0
5780,E3,495.577,4.0,115,162.0
5781,B3,495.577,4.0,115,162.0
5782,E4,495.577,4.0,115,162.0
5783,G4,495.577,4.0,115,162.0
5784,B4,495.577,4.0,115,162.0
5785,E5,495.577,4.0,115,162.0
5786,C#3,495.577,0.25,115,162.0
5787,B1,495.577,0.25,115,162.0
5788,B4,495.577,3/200,115,162.0
5789,B4,495.577,3/200,115,162.0
5790,E2,496.077,101/500,115,162.0
5791,B1,496.077,0.125,115,162.0
5792,B4,496.077,0.5,115,162.0
5793,B4,496.077,0.5,115,162.0
5794,E2,496.312,21/100,115,162.0
5795,B1,496.327,0.125,115,162.0
5796,E2,496.562,49/125,115,162.0
5797,C5,496.577,0.5,115,162.0
5798,C5,496.577,0.5,115,162.0
5799,E-3,496.577,0.25,115,162.0
5800,D2,496.577,0.25,115,162.0
5801,E2,497.062,0.125,115,162.0
5802,B1,497.062,0.125,115,162.0
5803,B4,497.077,0.5,115,162.0
5804,B4,497.077,0.5,115,162.0
5805,E2,497.312,21/100,115,162.0
5806,B1,497.327,0.125,115,162.0
5807,E2,497.577,377/1000,115,162.0
5808,C5,497.577,0.5,115,162.0
5809,C5,497.577,0.5,115,162.0
5810,E-3,497.577,0.25,115,162.0
5811,B1,497.577,0.25,115,162.0
5812,E2,498.077,101/500,115,162.0
5813,B1,498.077,0.125,115,162.0
5814,C5,498.077,0.5,115,162.0
5815,C5,498.077,0.5,115,162.0
5816,E2,498.312,21/100,115,162.0
5817,B1,498.327,0.125,115,162.0
5818,E2,498.562,49/125,115,162.0
5819,B4,498.577,0.5,115,162.0
5820,B4,498.577,0.5,115,162.0
5821,E-3,498.577,0.25,115,162.0
5822,D2,498.577,0.25,115,162.0
5823,E2,499.062,0.125,115,162.0
5824,B1,499.062,0.125,115,162.0
5825,A4,499.077,0.5,115,162.0
5826,A4,499.077,0.5,115,162.0
5827,E2,499.312,53/200,115,162.0
5828,B1,499.327,0.125,115,162.0
5829,F2,499.577,377/1000,115,162.0
5830,E-3,499.577,0.25,115,162.0
5831,E2,499.577,1/40,115,162.0
5832,B4,499.577,297/200,115,162.0
5833,B4,499.577,297/200,115,162.0
5834,C4,499.577,2.0,115,162.0
5835,F4,499.577,2.0,115,162.0
5836,A4,499.577,2.0,115,162.0
5837,C5,499.577,2.0,115,162.0
5838,F2,500.077,101/500,115,162.0
5839,B1,500.077,0.125,115,162.0
5840,F2,500.312,21/100,115,162.0
5841,B1,500.327,0.125,115,162.0
5842,C3,500.562,49/125,115,162.0
5843,D2,500.577,0.25,115,162.0
5844,C#3,500.577,0.25,115,162.0
5845,F2,501.062,0.125,115,162.0
5846,B1,501.062,0.125,115,162.0
5847,A4,501.077,0.5,115,162.0
5848,A4,501.077,0.5,115,162.0
5849,F2,501.312,21/100,115,162.0
5850,B1,501.327,0.125,115,162.0
5851,G2,501.577,377/1000,115,162.0
5852,D5,501.577,0.5,115,162.0
5853,D5,501.577,0.5,115,162.0
5854,D5,501.577,2.0,115,162.0
5855,B4,501.577,2.0,115,162.0
5856,G4,501.577,2.0,115,162.0
5857,D4,501.577,2.0,115,162.0
5858,E-3,501.577,0.25,115,162.0
5859,B1,501.577,0.25,115,162.0
5860,B1,502.077,0.125,115,162.0
5861,E5,502.077,0.25,115,162.0
5862,G2,502.077,0.25,115,162.0
5863,E5,502.077,0.25,115,162.0
5864,G2,502.312,0.25,115,162.0
5865,D5,502.312,0.25,115,162.0
5866,B1,502.327,0.125,115,162.0
5867,D5,502.358,0.25,115,162.0
5868,D3,502.562,49/125,115,162.0
5869,E5,502.577,0.25,115,162.0
5870,D2,502.577,0.25,115,162.0
5871,C#3,502.577,0.25,115,162.0
5872,E5,502.577,0.25,115,162.0
5873,E5,502.827,0.25,115,162.0
5874,E5,502.827,0.25,115,162.0
5875,G2,503.062,0.125,115,162.0
5876,B1,503.062,0.125,115,162.0
5877,G5,503.077,0.25,115,162.0
5878,G5,503.077,0.25,115,162.0
5879,G2,503.312,0.25,115,162.0
5880,E5,503.312,0.25,115,162.0
5881,E5,503.312,0.25,115,162.0
5882,B1,503.327,0.125,115,162.0
5883,A2,503.577,0.5,115,162.0
5884,G5,503.577,0.25,115,162.0
5885,E-3,503.577,0.25,115,162.0
5886,G5,503.577,0.25,115,162.0
5887,E4,503.577,4.0,115,162.0
5888,A4,503.577,4.0,115,162.0
5889,A3,503.577,4.0,115,162.0
5890,E5,503.827,0.25,115,162.0
5891,E5,503.827,0.25,115,162.0
5892,B1,504.077,0.125,115,162.0
5893,E5,504.077,0.25,115,162.0
5894,A2,504.077,0.25,115,162.0
5895,E5,504.077,0.25,115,162.0
5896,A2,504.312,0.25,115,162.0
5897,D5,504.312,0.25,115,162.0
5898,B1,504.327,0.125,115,162.0
5899,D5,504.358,0.25,115,162.0
5900,A2,504.562,49/125,115,162.0
5901,E5,504.577,0.25,115,162.0
5902,E-3,504.577,0.25,115,162.0
5903,D2,504.577,0.25,115,162.0
5904,E5,504.577,0.25,115,162.0
5905,E5,504.827,0.25,115,162.0
5906,E5,504.827,0.25,115,162.0
5907,B1,505.077,0.125,115,162.0
5908,D5,505.077,0.25,115,162.0
5909,A2,505.077,0.25,115,162.0
5910,D5,505.077,0.25,115,162.0
5911,A2,505.312,0.25,115,162.0
5912,C5,505.312,0.25,115,162.0
5913,B1,505.327,0.125,115,162.0
5914,C5,505.358,0.25,115,162.0
5915,A2,505.562,49/125,115,162.0
5916,B4,505.577,0.25,115,162.0
5917,E-3,505.577,0.25,115,162.0
5918,B1,505.577,0.25,115,162.0
5919,B4,505.577,0.25,115,162.0
5920,C5,505.827,0.25,115,162.0
5921,C5,505.827,0.25,115,162.0
5922,A2,506.062,0.125,115,162.0
5923,B1,506.062,0.125,115,162.0
5924,B4,506.077,0.25,115,162.0
5925,B4,506.077,0.25,115,162.0
5926,A2,506.312,21/100,115,162.0
5927,B1,506.327,0.125,115,162.0
5928,B4,506.327,189/250,115,162.0
5929,B4,506.327,189/250,115,162.0
5930,A2,506.562,49/125,115,162.0
5931,E-3,506.577,0.25,115,162.0
5932,D2,506.577,0.25,115,162.0
5933,A2,507.077,101/500,115,162.0
5934,B1,507.077,0.125,115,162.0
5935,A4,507.077,0.5,115,162.0
5936,A4,507.077,0.5,115,162.0
5937,A2,507.312,21/100,115,162.0
5938,B1,507.327,0.125,115,162.0
5939,G2,507.577,377/1000,115,162.0
5940,D5,507.577,0.25,115,162.0
5941,C#3,507.577,0.25,115,162.0
5942,B1,507.577,0.25,115,162.0
5943,D5,507.577,0.25,115,162.0
5944,D4,507.577,4.0,115,162.0
5945,G4,507.577,4.0,115,162.0
5946,B4,507.577,4.0,115,162.0
5947,D5,507.577,4.0,115,162.0
5948,E5,507.827,0.25,115,162.0
5949,E5,507.827,0.25,115,162.0
5950,B1,508.077,0.125,115,162.0
5951,D5,508.077,0.25,115,162.0
5952,G2,508.077,0.25,115,162.0
5953,D5,508.077,0.25,115,162.0
5954,G2,508.312,0.25,115,162.0
5955,A4,508.312,0.25,115,162.0
5956,B1,508.327,0.125,115,162.0
5957,A4,508.358,0.25,115,162.0
5958,G2,508.562,49/125,115,162.0
5959,C5,508.577,497/200,115,162.0
5960,C5,508.577,497/200,115,162.0
5961,E-3,508.577,0.25,115,162.0
5962,D2,508.577,0.25,115,162.0
5963,G2,509.062,0.125,115,162.0
5964,B1,509.062,0.125,115,162.0
5965,G2,509.312,21/100,115,162.0
5966,B1,509.327,0.125,115,162.0
5967,G2,509.577,377/1000,115,162.0
5968,E-3,509.577,0.25,115,162.0
5969,B1,509.577,0.25,115,162.0
5970,G2,510.077,101/500,115,162.0
5971,B1,510.077,0.125,115,162.0
5972,G2,510.312,21/100,115,162.0
5973,B1,510.327,0.125,115,162.0
5974,G2,510.562,49/125,115,162.0
5975,E-3,510.577,0.25,115,162.0
5976,D2,510.577,0.25,115,162.0
5977,G2,511.062,0.125,115,162.0
5978,B1,511.062,0.125,115,162.0
5979,E4,511.077,0.25,115,162.0
5980,E4,511.077,0.25,115,162.0
5981,G2,511.312,0.25,115,162.0
5982,G4,511.312,0.25,115,162.0
5983,G4,511.312,0.25,115,162.0
5984,B1,511.327,0.125,115,162.0
5985,E2,511.577,377/1000,115,162.0
5986,E4,511.577,697/200,115,162.0
5987,E4,511.577,697/200,115,162.0
5988,E3,511.577,4.0,115,162.0
5989,B3,511.577,4.0,115,162.0
5990,E4,511.577,4.0,115,162.0
5991,G4,511.577,4.0,115,162.0
5992,B4,511.577,4.0,115,162.0
5993,E5,511.577,4.0,115,162.0
5994,C#3,511.577,0.25,115,162.0
5995,B1,511.577,0.25,115,162.0
5996,E2,512.077,101/500,115,162.0
5997,B1,512.077,0.125,115,162.0
5998,E2,512.312,21/100,115,162.0
5999,B1,512.327,0.125,115,162.0
6000,E2,512.562,49/125,115,162.0
6001,E-3,512.577,0.25,115,162.0
6002,D2,512.577,0.25,115,162.0
6003,E2,513.062,0.125,115,162.0
6004,B1,513.062,0.125,115,162.0
6005,E2,513.312,21/100,115,162.0
6006,B1,513.327,0.125,115,162.0
6007,E2,513.577,377/1000,115,162.0
6008,E-3,513.577,0.25,115,162.0
6009,B1,513.577,0.25,115,162.0
6010,E2,514.077,101/500,115,162.0
6011,B1,514.077,0.125,115,162.0
6012,E2,514.312,21/100,115,162.0
6013,B1,514.327,0.125,115,162.0
6014,E2,514.562,49/125,115,162.0
6015,E-3,514.577,0.25,115,162.0
6016,D2,514.577,0.25,115,162.0
6017,E2,515.062,0.125,115,162.0
6018,B1,515.062,0.125,115,162.0
6019,C5,515.077,0.5,115,162.0
6020,C5,515.077,0.5,115,162.0
6021,E2,515.312,53/200,115,162.0
6022,B1,515.327,0.125,115,162.0
6023,F2,515.577,377/1000,115,162.0
6024,E-3,515.577,0.25,115,162.0
6025,E2,515.577,1/40,115,162.0
6026,D5,515.577,2.0,115,162.0
6027,C4,515.577,2.0,115,162.0
6028,F4,515.577,2.0,115,162.0
6029,A4,515.577,2.0,115,162.0
6030,C5,515.577,2.0,115,162.0
6031,D5,515.577,2.0,115,162.0
6032,C5,515.577,3/200,115,162.0
6033,C5,515.577,3/200,115,162.0
6034,F2,516.077,101/500,115,162.0
6035,B1,516.077,0.125,115,162.0
6036,F2,516.312,21/100,115,162.0
6037,B1,516.327,0.125,115,162.0
6038,C3,516.562,49/125,115,162.0
6039,D2,516.577,0.25,115,162.0
6040,C#3,516.577,0.25,115,162.0
6041,F2,517.062,0.125,115,162.0
6042,B1,517.062,0.125,115,162.0
6043,F2,517.312,21/100,115,162.0
6044,B1,517.327,0.125,115,162.0
6045,G2,517.577,377/1000,115,162.0
6046,C5,517.577,1.0,115,162.0
6047,C5,517.577,1.0,115,162.0
6048,D5,517.577,2.0,115,162.0
6049,B4,517.577,2.0,115,162.0
6050,G4,517.577,2.0,115,162.0
6051,D4,517.577,2.0,115,162.0
6052,E-3,517.577,0.25,115,162.0
6053,B1,517.577,0.25,115,162.0
6054,G2,518.077,101/500,115,162.0
6055,B1,518.077,0.125,115,162.0
6056,G2,518.312,21/100,115,162.0
6057,B1,518.327,0.125,115,162.0
6058,D3,518.562,49/125,115,162.0
6059,D5,518.577,1.0,115,162.0
6060,D5,518.577,1.0,115,162.0
6061,D2,518.577,0.25,115,162.0
6062,C#3,518.577,0.25,115,162.0
6063,G2,519.062,0.125,115,162.0
6064,B1,519.062,0.125,115,162.0
6065,G2,519.312,53/200,115,162.0
6066,B1,519.327,0.125,115,162.0
6067,A2,519.577,0.5,115,162.0
6068,E-3,519.577,0.25,115,162.0
6069,G2,519.577,1/40,115,162.0
6070,D5,519.577,1.0,115,162.0
6071,D5,519.577,1.0,115,162.0
6072,E4,519.577,4.0,115,162.0
6073,A4,519.577,4.0,115,162.0
6074,A3,519.577,4.0,115,162.0
6075,A2,520.077,101/500,115,162.0
6076,B1,520.077,0.125,115,162.0
6077,A2,520.312,21/100,115,162.0
6078,B1,520.327,0.125,115,162.0
6079,A2,520.562,49/125,115,162.0
6080,C5,520.577,0.5,115,162.0
6081,C5,520.577,0.5,115,162.0
6082,E-3,520.577,0.25,115,162.0
6083,D2,520.577,0.25,115,162.0
6084,B1,521.077,0.125,115,162.0
6085,G5,521.077,0.25,115,162.0
6086,A2,521.077,0.25,115,162.0
6087,G5,521.077,0.25,115,162.0
6088,A2,521.312,21/100,115,162.0
6089,B1,521.327,0.125,115,162.0
6090,A5,521.327,0.5,115,162.0
6091,A5,521.327,0.5,115,162.0
6092,A2,521.562,49/125,115,162.0
6093,E-3,521.577,0.25,115,162.0
6094,B1,521.577,0.25,115,162.0
6095,A5,521.827,61/125,115,162.0
6096,A5,521.827,61/125,115,162.0
6097,A2,522.062,0.125,115,162.0
6098,B1,522.062,0.125,115,162.0
6099,A2,522.312,0.25,115,162.0
6100,G5,522.312,0.25,115,162.0
6101,B1,522.327,0.125,115,162.0
6102,G5,522.358,0.25,115,162.0
6103,A2,522.562,49/125,115,162.0
6104,E5,522.577,97/200,115,162.0
6105,E5,522.577,97/200,115,162.0
6106,E-3,522.577,0.25,115,162.0
6107,D2,522.577,0.25,115,162.0
6108,A2,523.077,101/500,115,162.0
6109,B1,523.077,0.125,115,162.0
6110,C6,523.077,0.5,115,162.0
6111,C6,523.077,0.5,115,162.0
6112,A2,523.312,21/100,115,162.0
6113,B1,523.327,0.125,115,162.0
6114,G2,523.577,377/1000,115,162.0
6115,D6,523.577,0.5,115,162.0
6116,D6,523.577,0.5,115,162.0
6117,D4,523.577,4.0,115,162.0
6118,G4,523.577,4.0,115,162.0
6119,B4,523.577,4.0,115,162.0
6120,D5,523.577,4.0,115,162.0
6121,C#3,523.577,0.25,115,162.0
6122,B1,523.577,0.25,115,162.0
6123,G2,524.077,101/500,115,162.0
6124,B1,524.077,0.125,115,162.0
6125,D6,524.077,0.5,115,162.0
6126,D6,524.077,0.5,115,162.0
6127,G2,524.312,21/100,115,162.0
6128,B1,524.327,0.125,115,162.0
6129,G2,524.562,49/125,115,162.0
6130,C6,524.577,97/200,115,162.0
6131,C6,524.577,97/200,115,162.0
6132,E-3,524.577,0.25,115,162.0
6133,D2,524.577,0.25,115,162.0
6134,G2,525.062,0.125,115,162.0
6135,B1,525.062,0.125,115,162.0
6136,A5,525.077,2.5,115,162.0
6137,A5,525.077,2.5,115,162.0
6138,G2,525.312,21/100,115,162.0
6139,B1,525.327,0.125,115,162.0
6140,G2,525.577,377/1000,115,162.0
6141,E-3,525.577,0.25,115,162.0
6142,B1,525.577,0.25,115,162.0
6143,G2,526.077,101/500,115,162.0
6144,B1,526.077,0.125,115,162.0
6145,G2,526.312,21/100,115,162.0
6146,B1,526.327,0.125,115,162.0
6147,G2,526.562,49/125,115,162.0
6148,E-3,526.577,0.25,115,162.0
6149,D2,526.577,0.25,115,162.0
6150,G2,527.062,0.125,115,162.0
6151,B1,527.062,0.125,115,162.0
6152,G2,527.312,53/200,115,162.0
6153,B1,527.327,0.125,115,162.0
6154,E2,527.577,377/1000,115,162.0
6155,G2,527.577,1/40,115,162.0
6156,E3,527.577,4.0,115,162.0
6157,B3,527.577,4.0,115,162.0
6158,E4,527.577,4.0,115,162.0
6159,G4,527.577,4.0,115,162.0
6160,B4,527.577,4.0,115,162.0
6161,E5,527.577,4.0,115,162.0
6162,C#3,527.577,0.25,115,162.0
6163,B1,527.577,0.25,115,162.0
6164,A5,527.577,203/200,115,162.0
6165,A5,527.577,203/200,115,162.0
6166,E2,528.077,101/500,115,162.0
6167,B1,528.077,0.125,115,162.0
6168,E2,528.312,21/100,115,162.0
6169,B1,528.327,0.125,115,162.0
6170,E2,528.562,49/125,115,162.0
6171,F#5,528.577,97/200,115,162.0
6172,F#5,528.577,97/200,115,162.0
6173,E-3,528.577,0.25,115,162.0
6174,D2,528.577,0.25,115,162.0
6175,E2,529.062,0.125,115,162.0
6176,B1,529.062,0.125,115,162.0
6177,D6,529.077,0.5,115,162.0
6178,D6,529.077,0.5,115,162.0
6179,E2,529.312,21/100,115,162.0
6180,B1,529.327,0.125,115,162.0
6181,E2,529.577,377/1000,115,162.0
6182,D6,529.577,0.25,115,162.0
6183,E-3,529.577,0.25,115,162.0
6184,B1,529.577,0.25,115,162.0
6185,D6,529.577,0.25,115,162.0
6186,C#6,529.827,0.25,115,162.0
6187,C#6,529.827,0.25,115,162.0
6188,B1,530.077,0.125,115,162.0
6189,B5,530.077,0.25,115,162.0
6190,E2,530.077,0.25,115,162.0
6191,B5,530.077,0.25,115,162.0
6192,E2,530.312,21/100,115,162.0
6193,B1,530.327,0.125,115,162.0
6194,A5,530.327,64/125,115,162.0
6195,A5,530.327,64/125,115,162.0
6196,E2,530.562,49/125,115,162.0
6197,E-3,530.577,0.25,115,162.0
6198,D2,530.577,0.25,115,162.0
6199,F5,530.827,0.25,115,162.0
6200,F5,530.827,0.25,115,162.0
6201,E2,531.062,0.125,115,162.0
6202,B1,531.062,0.125,115,162.0
6203,G#5,531.077,0.25,115,162.0
6204,G#5,531.077,0.25,115,162.0
6205,E2,531.312,0.25,115,162.0
6206,F#5,531.312,0.25,115,162.0
6207,F#5,531.312,0.25,115,162.0
6208,B1,531.327,0.125,115,162.0
6209,F2,531.577,377/1000,115,162.0
6210,D2,531.577,0.25,115,162.0
6211,E5,531.577,0.5,115,162.0
6212,E5,531.577,0.5,115,162.0
6213,C4,531.577,2.0,115,162.0
6214,F4,531.577,2.0,115,162.0
6215,A4,531.577,2.0,115,162.0
6216,C5,531.577,2.0,115,162.0
6217,D2,531.827,0.25,115,162.0
6218,D5,532.077,0.5,115,162.0
6219,D5,532.077,0.5,115,162.0
6220,F2,532.077,0.25,115,162.0
6221,D2,532.077,0.25,115,162.0
6222,F2,532.312,0.25,115,162.0
6223,D2,532.312,0.25,115,162.0
6224,C3,532.562,49/125,115,162.0
6225,D2,532.577,0.25,115,162.0
6226,C5,532.577,97/200,115,162.0
6227,C5,532.577,97/200,115,162.0
6228,F2,533.062,19/100,115,162.0
6229,D2,533.077,0.25,115,162.0
6230,C5,533.077,103/200,115,162.0
6231,C5,533.077,103/200,115,162.0
6232,F2,533.312,21/100,115,162.0
6233,D2,533.577,97/200,115,162.0
6234,A4,533.577,1.0,115,162.0
6235,A4,533.577,1.0,115,162.0
6236,D4,533.577,2.0,115,162.0
6237,G4,533.577,2.0,115,162.0
6238,B4,533.577,2.0,115,162.0
6239,D5,533.577,2.0,115,162.0
6240,C#3,533.592,0.25,115,162.0
6241,B1,533.592,0.25,115,162.0
6242,A2,534.077,103/200,115,162.0
6243,B1,534.092,0.25,115,162.0
6244,C#3,534.092,0.25,115,162.0
6245,G#4,534.567,0.125,115,162.0
6246,G#4,534.567,0.125,115,162.0
6247,D2,534.577,97/200,115,162.0
6248,B1,534.592,0.25,115,162.0
6249,C#3,534.592,0.25,115,162.0
6250,G4,534.635,0.125,115,162.0
6251,G4,534.635,0.125,115,162.0
6252,F#4,534.635,0.125,115,162.0
6253,F#4,534.719,0.125,115,162.0
6254,F4,534.719,0.125,115,162.0
6255,F4,534.788,0.125,115,162.0
6256,E4,534.858,0.125,115,162.0
6257,E4,534.858,0.125,115,162.0
6258,E4,535.077,0.5,115,162.0
6259,E2,535.077,0.5,115,162.0
6260,B1,535.077,0.25,115,162.0
6261,C#3,535.077,0.25,115,162.0
6262,E4,535.577,0.5,115,162.0
6263,E4,535.577,0.5,115,162.0
6264,E2,535.577,0.5,115,162.0
6265,B4,536.077,103/200,115,162.0
6266,G5,536.077,103/200,115,162.0
6267,E2,536.077,0.25,115,162.0
6268,B1,536.077,0.25,115,162.0
6269,E2,536.327,0.25,115,162.0
6270,B1,536.327,0.25,115,162.0
6271,E2,536.577,479/1000,115,162.0
6272,A4,536.577,0.25,115,162.0
6273,F#5,536.577,0.25,115,162.0
6274,E-3,536.577,0.25,115,162.0
6275,D2,536.577,0.25,115,162.0
6276,B4,536.827,0.25,115,162.0
6277,G5,536.827,0.25,115,162.0
6278,E2,537.062,0.25,115,162.0
6279,A4,537.062,0.25,115,162.0
6280,F#5,537.062,0.25,115,162.0
6281,B1,537.062,0.25,115,162.0
6282,B4,537.327,0.25,115,162.0
6283,E2,537.327,0.25,115,162.0
6284,G5,537.327,0.25,115,162.0
6285,B1,537.327,0.25,115,162.0
6286,D5,537.577,0.5,115,162.0
6287,E2,537.577,0.5,115,162.0
6288,B5,537.577,0.5,115,162.0
6289,E-3,537.577,0.25,115,162.0
6290,B1,537.577,0.25,115,162.0
6291,B4,538.077,103/200,115,162.0
6292,G5,538.077,103/200,115,162.0
6293,E2,538.077,0.25,115,162.0
6294,B1,538.077,0.25,115,162.0
6295,E2,538.327,0.25,115,162.0
6296,B1,538.327,0.25,115,162.0
6297,E2,538.577,0.5,115,162.0
6298,A4,538.577,0.25,115,162.0
6299,F#5,538.577,0.25,115,162.0
6300,E-3,538.577,0.25,115,162.0
6301,D2,538.577,0.25,115,162.0
6302,B4,538.827,0.25,115,162.0
6303,G5,538.827,0.25,115,162.0
6304,A4,539.077,0.25,115,162.0
6305,E2,539.077,0.25,115,162.0
6306,F#5,539.077,0.25,115,162.0
6307,B1,539.077,0.25,115,162.0
6308,B4,539.327,0.25,115,162.0
6309,E2,539.327,0.25,115,162.0
6310,G5,539.327,0.25,115,162.0
6311,B1,539.327,0.25,115,162.0
6312,B4,539.577,0.5,115,162.0
6313,E2,539.577,0.5,115,162.0
6314,G5,539.577,0.5,115,162.0
6315,B1,539.577,0.25,115,162.0
6316,E-3,539.577,0.25,115,162.0
6317,G4,540.077,0.5,115,162.0
6318,E5,540.077,0.5,115,162.0
6319,E2,540.077,0.25,115,162.0
6320,B1,540.077,0.25,115,162.0
6321,E2,540.327,0.25,115,162.0
6322,B1,540.327,0.25,115,162.0
6323,E2,540.577,0.5,115,162.0
6324,G4,540.577,1.0,115,162.0
6325,E5,540.577,1.0,115,162.0
6326,E-3,540.577,0.25,115,162.0
6327,D2,540.577,0.25,115,162.0
6328,E2,541.077,0.25,115,162.0
6329,B1,541.077,0.25,115,162.0
6330,E2,541.327,0.25,115,162.0
6331,B2,541.327,0.25,115,162.0
6332,B2,541.577,0.25,115,162.0
6333,F#4,541.577,0.5,115,162.0
6334,D2,541.577,0.5,115,162.0
6335,B4,541.577,0.5,115,162.0
6336,A2,541.827,0.25,115,162.0
6337,A2,542.077,0.25,115,162.0
6338,G4,542.077,0.5,115,162.0
6339,G2,542.077,0.5,115,162.0
6340,D5,542.077,0.5,115,162.0
6341,G2,542.327,0.25,115,162.0
6342,G2,542.577,0.25,115,162.0
6343,F#4,542.577,0.5,115,162.0
6344,D2,542.577,0.5,115,162.0
6345,B4,542.577,0.5,115,162.0
6346,G4,543.077,0.5,115,162.0
6347,E2,543.077,0.5,115,162.0
6348,E5,543.077,0.5,115,162.0
6349,B1,543.077,0.25,115,162.0
6350,C#3,543.077,0.25,115,162.0
6351,G4,544.05,473/1000,115,162.0
6352,E2,544.05,473/1000,115,162.0
6353,E5,544.05,473/1000,115,162.0
6354,B4,544.55,103/200,115,162.0
6355,G5,544.55,103/200,115,162.0
6356,E2,544.55,0.25,115,162.0
6357,B1,544.55,0.25,115,162.0
6358,E2,544.8,0.25,115,162.0
6359,B1,544.8,0.25,115,162.0
6360,E2,545.05,479/1000,115,162.0
6361,A4,545.05,0.25,115,162.0
6362,F#5,545.05,0.25,115,162.0
6363,E-3,545.05,0.25,115,162.0
6364,D2,545.05,0.25,115,162.0
6365,B4,545.3,0.25,115,162.0
6366,G5,545.3,0.25,115,162.0
6367,E2,545.535,0.25,115,162.0
6368,A4,545.535,0.25,115,162.0
6369,F#5,545.535,0.25,115,162.0
6370,B1,545.535,0.25,115,162.0
6371,B4,545.8,0.25,115,162.0
6372,E2,545.8,0.25,115,162.0
6373,G5,545.8,0.25,115,162.0
6374,B1,545.8,0.25,115,162.0
6375,D5,546.05,0.5,115,162.0
6376,E2,546.05,0.5,115,162.0
6377,B5,546.05,0.5,115,162.0
6378,E-3,546.05,0.25,115,162.0
6379,B1,546.05,0.25,115,162.0
6380,B4,546.55,103/200,115,162.0
6381,G5,546.55,103/200,115,162.0
6382,E2,546.55,0.25,115,162.0
6383,B1,546.55,0.25,115,162.0
6384,E2,546.8,0.25,115,162.0
6385,B1,546.8,0.25,115,162.0
6386,E2,547.05,0.5,115,162.0
6387,A4,547.05,0.25,115,162.0
6388,F#5,547.05,0.25,115,162.0
6389,E-3,547.05,0.25,115,162.0
6390,D2,547.05,0.25,115,162.0
6391,B4,547.3,0.25,115,162.0
6392,G5,547.3,0.25,115,162.0
6393,A4,547.55,0.25,115,162.0
6394,E2,547.55,0.25,115,162.0
6395,F#5,547.55,0.25,115,162.0
6396,B1,547.55,0.25,115,162.0
6397,B4,547.8,0.25,115,162.0
6398,E2,547.8,0.25,115,162.0
6399,G5,547.8,0.25,115,162.0
6400,B1,547.8,0.25,115,162.0
6401,B4,548.05,0.5,115,162.0
6402,E2,548.05,0.5,115,162.0
6403,G5,548.05,0.5,115,162.0
6404,B1,548.05,0.25,115,162.0
6405,E-3,548.05,0.25,115,162.0
6406,G4,548.55,0.5,115,162.0
6407,E5,548.55,0.5,115,162.0
6408,E2,548.55,0.25,115,162.0
6409,B1,548.55,0.25,115,162.0
6410,E2,548.8,0.25,115,162.0
6411,B1,548.8,0.25,115,162.0
6412,E2,549.05,0.5,115,162.0
6413,G4,549.05,1.0,115,162.0
6414,E5,549.05,1.0,115,162.0
6415,E-3,549.05,0.25,115,162.0
6416,D2,549.05,0.25,115,162.0
6417,E2,549.55,0.25,115,162.0
6418,B1,549.55,0.25,115,162.0
6419,E2,549.8,0.25,115,162.0
6420,F#4,550.05,0.5,115,162.0
6421,D2,550.05,0.5,115,162.0
6422,B4,550.05,0.5,115,162.0
6423,E-3,550.05,0.25,115,162.0
6424,B1,550.05,0.25,115,162.0
6425,B1,550.55,0.25,115,162.0
6426,G4,550.55,0.5,115,162.0
6427,G2,550.55,0.5,115,162.0
6428,D5,550.55,0.5,115,162.0
6429,F#4,551.05,0.5,115,162.0
6430,D2,551.05,0.5,115,162.0
6431,B4,551.05,0.5,115,162.0
6432,E-3,551.05,0.25,115,162.0
6433,D2,551.05,0.25,115,162.0
6434,G4,551.55,0.5,115,162.0
6435,C2,551.55,0.5,115,162.0
6436,C5,551.55,0.5,115,162.0
6437,B1,551.55,0.25,115,162.0
6438,C#3,551.55,0.25,115,162.0
6439,G4,552.523,473/1000,115,162.0
6440,C2,552.523,473/1000,115,162.0
6441,C5,552.523,473/1000,115,162.0
6442,B4,553.023,103/200,115,162.0
6443,G5,553.023,103/200,115,162.0
6444,C2,553.023,0.25,115,162.0
6445,B1,553.023,0.25,115,162.0
6446,C2,553.273,0.25,115,162.0
6447,B1,553.273,0.25,115,162.0
6448,C2,553.523,479/1000,115,162.0
6449,A4,553.523,0.25,115,162.0
6450,F#5,553.523,0.25,115,162.0
6451,E-3,553.523,0.25,115,162.0
6452,D2,553.523,0.25,115,162.0
6453,B4,553.773,0.25,115,162.0
6454,G5,553.773,0.25,115,162.0
6455,C2,554.008,0.25,115,162.0
6456,A4,554.008,0.25,115,162.0
6457,F#5,554.008,0.25,115,162.0
6458,B1,554.008,0.25,115,162.0
6459,B4,554.273,0.25,115,162.0
6460,C2,554.273,0.25,115,162.0
6461,G5,554.273,0.25,115,162.0
6462,B1,554.273,0.25,115,162.0
6463,D5,554.523,0.5,115,162.0
6464,C2,554.523,0.5,115,162.0
6465,B5,554.523,0.5,115,162.0
6466,E-3,554.523,0.25,115,162.0
6467,B1,554.523,0.25,115,162.0
6468,B4,555.023,103/200,115,162.0
6469,G5,555.023,103/200,115,162.0
6470,C2,555.023,0.25,115,162.0
6471,B1,555.023,0.25,115,162.0
6472,C2,555.273,0.25,115,162.0
6473,B1,555.273,0.25,115,162.0
6474,C2,555.523,0.5,115,162.0
6475,A4,555.523,0.25,115,162.0
6476,F#5,555.523,0.25,115,162.0
6477,E-3,555.523,0.25,115,162.0
6478,D2,555.523,0.25,115,162.0
6479,B4,555.773,0.25,115,162.0
6480,G5,555.773,0.25,115,162.0
6481,A4,556.023,0.25,115,162.0
6482,C2,556.023,0.25,115,162.0
6483,F#5,556.023,0.25,115,162.0
6484,B1,556.023,0.25,115,162.0
6485,B4,556.273,0.25,115,162.0
6486,C2,556.273,0.25,115,162.0
6487,G5,556.273,0.25,115,162.0
6488,B1,556.273,0.25,115,162.0
6489,B4,556.523,0.5,115,162.0
6490,C2,556.523,0.5,115,162.0
6491,G5,556.523,0.5,115,162.0
6492,B1,556.523,0.25,115,162.0
6493,E-3,556.523,0.25,115,162.0
6494,G4,557.023,0.5,115,162.0
6495,E5,557.023,0.5,115,162.0
6496,C2,557.023,0.25,115,162.0
6497,B1,557.023,0.25,115,162.0
6498,C2,557.273,0.25,115,162.0
6499,B1,557.273,0.25,115,162.0
6500,C2,557.523,0.5,115,162.0
6501,G4,557.523,1.0,115,162.0
6502,E5,557.523,1.0,115,162.0
6503,E-3,557.523,0.25,115,162.0
6504,D2,557.523,0.25,115,162.0
6505,C2,558.023,0.25,115,162.0
6506,B1,558.023,0.25,115,162.0
6507,C2,558.273,0.25,115,162.0
6508,F#4,558.523,0.5,115,162.0
6509,D2,558.523,0.5,115,162.0
6510,B4,558.523,0.5,115,162.0
6511,E-3,558.523,0.25,115,162.0
6512,B1,558.523,0.25,115,162.0
6513,B1,559.023,0.25,115,162.0
6514,G4,559.023,0.5,115,162.0
6515,G2,559.023,0.5,115,162.0
6516,D5,559.023,0.5,115,162.0
6517,F#4,559.523,0.5,115,162.0
6518,D2,559.523,0.5,115,162.0
6519,B4,559.523,0.5,115,162.0
6520,E-3,559.523,0.25,115,162.0
6521,D2,559.523,0.25,115,162.0
6522,G4,560.023,0.5,115,162.0
6523,D2,560.023,0.5,115,162.0
6524,E5,560.023,0.5,115,162.0
6525,B1,560.023,0.25,115,162.0
6526,C#3,560.023,0.25,115,162.0
6527,G4,560.996,473/1000,115,162.0
6528,D2,560.996,473/1000,115,162.0
6529,E5,560.996,473/1000,115,162.0
6530,B4,561.496,103/200,115,162.0
6531,G5,561.496,103/200,115,162.0
6532,D2,561.496,0.25,115,162.0
6533,B1,561.496,0.25,115,162.0
6534,D2,561.746,0.25,115,162.0
6535,B1,561.746,0.25,115,162.0
6536,D2,561.996,479/1000,115,162.0
6537,A4,561.996,0.25,115,162.0
6538,F#5,561.996,0.25,115,162.0
6539,E-3,561.996,0.25,115,162.0
6540,D2,561.996,0.25,115,162.0
6541,B4,562.246,0.25,115,162.0
6542,G5,562.246,0.25,115,162.0
6543,D2,562.481,0.25,115,162.0
6544,A4,562.481,0.25,115,162.0
6545,F#5,562.481,0.25,115,162.0
6546,B1,562.481,0.25,115,162.0
6547,B4,562.746,0.25,115,162.0
6548,D2,562.746,0.25,115,162.0
6549,G5,562.746,0.25,115,162.0
6550,B1,562.746,0.25,115,162.0
6551,D5,562.996,0.5,115,162.0
6552,D2,562.996,0.5,115,162.0
6553,B5,562.996,0.5,115,162.0
6554,E-3,562.996,0.25,115,162.0
6555,B1,562.996,0.25,115,162.0
6556,B4,563.496,103/200,115,162.0
6557,G5,563.496,103/200,115,162.0
6558,D2,563.496,0.25,115,162.0
6559,B1,563.496,0.25,115,162.0
6560,D2,563.746,0.25,115,162.0
6561,B1,563.746,0.25,115,162.0
6562,D2,563.996,0.5,115,162.0
6563,A4,563.996,0.25,115,162.0
6564,F#5,563.996,0.25,115,162.0
6565,E-3,563.996,0.25,115,162.0
6566,D2,563.996,0.25,115,162.0
6567,B4,564.246,0.25,115,162.0
6568,G5,564.246,0.25,115,162.0
6569,A4,564.496,0.25,115,162.0
6570,D2,564.496,0.25,115,162.0
6571,F#5,564.496,0.25,115,162.0
6572,B1,564.496,0.25,115,162.0
6573,B4,564.746,0.25,115,162.0
6574,D2,564.746,0.25,115,162.0
6575,G5,564.746,0.25,115,162.0
6576,B1,564.746,0.25,115,162.0
6577,B4,564.996,0.5,115,162.0
6578,D2,564.996,0.5,115,162.0
6579,G5,564.996,0.5,115,162.0
6580,E2,564.996,0.25,115,162.0
6581,D3,564.996,0.25,115,162.0
6582,E2,565.246,0.25,115,162.0
6583,G4,565.496,0.5,115,162.0
6584,E5,565.496,0.5,115,162.0
6585,D2,565.496,0.25,115,162.0
6586,E2,565.496,0.25,115,162.0
6587,D2,565.746,0.25,115,162.0
6588,A2,565.746,0.25,115,162.0
6589,D2,565.996,0.5,115,162.0
6590,C3,565.996,0.25,115,162.0
6591,G4,565.996,1.0,115,162.0
6592,E5,565.996,1.0,115,162.0
6593,C3,566.246,0.25,115,162.0
6594,D2,566.496,0.25,115,162.0
6595,C3,566.496,0.25,115,162.0
6596,D2,566.746,0.25,115,162.0
6597,C3,566.746,0.25,115,162.0
6598,B2,566.996,0.25,115,162.0
6599,F#4,566.996,0.5,115,162.0
6600,D2,566.996,0.5,115,162.0
6601,B4,566.996,0.5,115,162.0
6602,B2,567.246,0.25,115,162.0
6603,A2,567.496,0.25,115,162.0
6604,G4,567.496,0.5,115,162.0
6605,G2,567.496,0.5,115,162.0
6606,D5,567.496,0.5,115,162.0
6607,A2,567.746,0.25,115,162.0
6608,G2,567.996,0.25,115,162.0
6609,F#4,567.996,0.5,115,162.0
6610,D2,567.996,0.5,115,162.0
6611,B4,567.996,0.5,115,162.0
6612,G4,568.496,0.5,115,162.0
6613,E2,568.496,0.5,115,162.0
6614,E5,568.496,0.5,115,162.0
6615,B1,568.496,0.25,115,162.0
6616,C#3,568.496,0.25,115,162.0
6617,G4,569.469,473/1000,115,162.0
6618,E2,569.469,473/1000,115,162.0
6619,E5,569.469,473/1000,115,162.0
6620,B4,569.969,103/200,115,162.0
6621,G5,569.969,103/200,115,162.0
6622,E2,569.969,0.25,115,162.0
6623,B1,569.969,0.25,115,162.0
6624,E2,570.219,0.25,115,162.0
6625,B1,570.219,0.25,115,162.0
6626,E2,570.469,479/1000,115,162.0
6627,A4,570.469,0.25,115,162.0
6628,F#5,570.469,0.25,115,162.0
6629,E-3,570.469,0.25,115,162.0
6630,D2,570.469,0.25,115,162.0
6631,B4,570.719,0.25,115,162.0
6632,G5,570.719,0.25,115,162.0
6633,E2,570.954,0.25,115,162.0
6634,A4,570.954,0.25,115,162.0
6635,F#5,570.954,0.25,115,162.0
6636,B1,570.954,0.25,115,162.0
6637,B4,571.219,0.25,115,162.0
6638,E2,571.219,0.25,115,162.0
6639,G5,571.219,0.25,115,162.0
6640,B1,571.219,0.25,115,162.0
6641,D5,571.469,0.5,115,162.0
6642,E2,571.469,0.5,115,162.0
6643,B5,571.469,0.5,115,162.0
6644,E-3,571.469,0.25,115,162.0
6645,B1,571.469,0.25,115,162.0
6646,B4,571.969,103/200,115,162.0
6647,G5,571.969,103/200,115,162.0
6648,E2,571.969,0.25,115,162.0
6649,B1,571.969,0.25,115,162.0
6650,E2,572.219,0.25,115,162.0
6651,B1,572.219,0.25,115,162.0
6652,E2,572.469,0.5,115,162.0
6653,A4,572.469,0.25,115,162.0
6654,F#5,572.469,0.25,115,162.0
6655,E-3,572.469,0.25,115,162.0
6656,D2,572.469,0.25,115,162.0
6657,B4,572.719,0.25,115,162.0
6658,G5,572.719,0.25,115,162.0
6659,A4,572.969,0.25,115,162.0
6660,E2,572.969,0.25,115,162.0
6661,F#5,572.969,0.25,115,162.0
6662,B1,572.969,0.25,115,162.0
6663,B4,573.219,0.25,115,162.0
6664,E2,573.219,0.25,115,162.0
6665,G5,573.219,0.25,115,162.0
6666,B1,573.219,0.25,115,162.0
6667,B4,573.469,0.5,115,162.0
6668,E2,573.469,0.5,115,162.0
6669,G5,573.469,0.5,115,162.0
6670,B1,573.469,0.25,115,162.0
6671,E-3,573.469,0.25,115,162.0
6672,G4,573.969,0.5,115,162.0
6673,E5,573.969,0.5,115,162.0
6674,E2,573.969,0.25,115,162.0
6675,B1,573.969,0.25,115,162.0
6676,E2,574.219,0.25,115,162.0
6677,B1,574.219,0.25,115,162.0
6678,E2,574.469,0.5,115,162.0
6679,G4,574.469,1.0,115,162.0
6680,E5,574.469,1.0,115,162.0
6681,E-3,574.469,0.25,115,162.0
6682,D2,574.469,0.25,115,162.0
6683,E2,574.969,0.25,115,162.0
6684,B1,574.969,0.25,115,162.0
6685,E2,575.219,0.25,115,162.0
6686,F#4,575.469,0.5,115,162.0
6687,D2,575.469,0.5,115,162.0
6688,B4,575.469,0.5,115,162.0
6689,E-3,575.469,0.25,115,162.0
6690,B1,575.469,0.25,115,162.0
6691,B1,575.969,0.25,115,162.0
6692,G4,575.969,0.5,115,162.0
6693,G2,575.969,0.5,115,162.0
6694,D5,575.969,0.5,115,162.0
6695,F#4,576.469,0.5,115,162.0
6696,D2,576.469,0.5,115,162.0
6697,B4,576.469,0.5,115,162.0
6698,E-3,576.469,0.25,115,162.0
6699,D2,576.469,0.25,115,162.0
6700,G4,576.969,0.5,115,162.0
6701,E2,576.969,0.5,115,162.0
6702,E5,576.969,0.5,115,162.0
6703,B1,576.969,0.25,115,162.0
6704,C#3,576.969,0.25,115,162.0
6705,G4,577.942,473/1000,115,162.0
6706,E2,577.942,473/1000,115,162.0
6707,E5,577.942,473/1000,115,162.0
6708,B4,578.442,103/200,115,162.0
6709,G5,578.442,103/200,115,162.0
6710,E2,578.442,0.25,115,162.0
6711,B1,578.442,0.25,115,162.0
6712,E2,578.692,0.25,115,162.0
6713,B1,578.692,0.25,115,162.0
6714,E2,578.942,479/1000,115,162.0
6715,A4,578.942,0.25,115,162.0
6716,F#5,578.942,0.25,115,162.0
6717,E-3,578.942,0.25,115,162.0
6718,D2,578.942,0.25,115,162.0
6719,B4,579.192,0.25,115,162.0
6720,G5,579.192,0.25,115,162.0
6721,E2,579.427,0.25,115,162.0
6722,A4,579.427,0.25,115,162.0
6723,F#5,579.427,0.25,115,162.0
6724,B1,579.427,0.25,115,162.0
6725,B4,579.692,0.25,115,162.0
6726,E2,579.692,0.25,115,162.0
6727,G5,579.692,0.25,115,162.0
6728,B1,579.692,0.25,115,162.0
6729,D5,579.942,0.5,115,162.0
6730,E2,579.942,0.5,115,162.0
6731,B5,579.942,0.5,115,162.0
6732,E-3,579.942,0.25,115,162.0
6733,B1,579.942,0.25,115,162.0
6734,B4,580.442,103/200,115,162.0
6735,G5,580.442,103/200,115,162.0
6736,E2,580.442,0.25,115,162.0
6737,B1,580.442,0.25,115,162.0
6738,E2,580.692,0.25,115,162.0
6739,B1,580.692,0.25,115,162.0
6740,E2,580.942,0.5,115,162.0
6741,A4,580.942,0.25,115,162.0
6742,F#5,580.942,0.25,115,162.0
6743,E-3,580.942,0.25,115,162.0
6744,D2,580.942,0.25,115,162.0
6745,B4,581.192,0.25,115,162.0
6746,G5,581.192,0.25,115,162.0
6747,A4,581.442,0.25,115,162.0
6748,E2,581.442,0.25,115,162.0
6749,F#5,581.442,0.25,115,162.0
6750,B1,581.442,0.25,115,162.0
6751,B4,581.692,0.25,115,162.0
6752,E2,581.692,0.25,115,162.0
6753,G5,581.692,0.25,115,162.0
6754,B1,581.692,0.25,115,162.0
6755,B4,581.942,0.5,115,162.0
6756,E2,581.942,0.5,115,162.0
6757,G5,581.942,0.5,115,162.0
6758,B1,581.942,0.25,115,162.0
6759,E-3,581.942,0.25,115,162.0
6760,G4,582.442,0.5,115,162.0
6761,E5,582.442,0.5,115,162.0
6762,E2,582.442,0.25,115,162.0
6763,B1,582.442,0.25,115,162.0
6764,E2,582.692,0.25,115,162.0
6765,B1,582.692,0.25,115,162.0
6766,E2,582.942,0.5,115,162.0
6767,G4,582.942,1.0,115,162.0
6768,E5,582.942,1.0,115,162.0
6769,E-3,582.942,0.25,115,162.0
6770,D2,582.942,0.25,115,162.0
6771,E2,583.442,0.25,115,162.0
6772,B1,583.442,0.25,115,162.0
6773,E2,583.692,0.25,115,162.0
6774,F#4,583.942,0.5,115,162.0
6775,D2,583.942,0.5,115,162.0
6776,B4,583.942,0.5,115,162.0
6777,E-3,583.942,0.25,115,162.0
6778,B1,583.942,0.25,115,162.0
6779,B1,584.442,0.25,115,162.0
6780,G4,584.442,0.5,115,162.0
6781,G2,584.442,0.5,115,162.0
6782,D5,584.442,0.5,115,162.0
6783,F#4,584.942,0.5,115,162.0
6784,D2,584.942,0.5,115,162.0
6785,B4,584.942,0.5,115,162.0
6786,E-3,584.942,0.25,115,162.0
6787,D2,584.942,0.25,115,162.0
6788,G4,585.442,0.5,115,162.0
6789,C2,585.442,0.5,115,162.0
6790,C5,585.442,0.5,115,162.0
6791,B1,585.442,0.25,115,162.0
6792,C#3,585.442,0.25,115,162.0
6793,G4,586.415,473/1000,115,162.0
6794,C2,586.415,473/1000,115,162.0
6795,C5,586.415,473/1000,115,162.0
6796,B4,586.915,103/200,115,162.0
6797,G5,586.915,103/200,115,162.0
6798,C2,586.915,0.25,115,162.0
6799,B1,586.915,0.25,115,162.0
6800,C2,587.165,0.25,115,162.0
6801,B1,587.165,0.25,115,162.0
6802,C2,587.415,479/1000,115,162.0
6803,A4,587.415,0.25,115,162.0
6804,F#5,587.415,0.25,115,162.0
6805,E-3,587.415,0.25,115,162.0
6806,D2,587.415,0.25,115,162.0
6807,B4,587.665,0.25,115,162.0
6808,G5,587.665,0.25,115,162.0
6809,C2,587.9,0.25,115,162.0
6810,A4,587.9,0.25,115,162.0
6811,F#5,587.9,0.25,115,162.0
6812,B1,587.9,0.25,115,162.0
6813,B4,588.165,0.25,115,162.0
6814,C2,588.165,0.25,115,162.0
6815,G5,588.165,0.25,115,162.0
6816,B1,588.165,0.25,115,162.0
6817,D5,588.415,0.5,115,162.0
6818,C2,588.415,0.5,115,162.0
6819,B5,588.415,0.5,115,162.0
6820,E-3,588.415,0.25,115,162.0
6821,B1,588.415,0.25,115,162.0
6822,B4,588.915,103/200,115,162.0
6823,G5,588.915,103/200,115,162.0
6824,C2,588.915,0.25,115,162.0
6825,B1,588.915,0.25,115,162.0
6826,C2,589.165,0.25,115,162.0
6827,B1,589.165,0.25,115,162.0
6828,C2,589.415,0.5,115,162.0
6829,A4,589.415,0.25,115,162.0
6830,F#5,589.415,0.25,115,162.0
6831,E-3,589.415,0.25,115,162.0
6832,D2,589.415,0.25,115,162.0
6833,B4,589.665,0.25,115,162.0
6834,G5,589.665,0.25,115,162.0
6835,A4,589.915,0.25,115,162.0
6836,C2,589.915,0.25,115,162.0
6837,F#5,589.915,0.25,115,162.0
6838,B1,589.915,0.25,115,162.0
6839,B4,590.165,0.25,115,162.0
6840,C2,590.165,0.25,115,162.0
6841,G5,590.165,0.25,115,162.0
6842,B1,590.165,0.25,115,162.0
6843,B4,590.415,0.5,115,162.0
6844,C2,590.415,0.5,115,162.0
6845,G5,590.415,0.5,115,162.0
6846,B1,590.415,0.25,115,162.0
6847,E-3,590.415,0.25,115,162.0
6848,G4,590.915,0.5,115,162.0
6849,E5,590.915,0.5,115,162.0
6850,C2,590.915,0.25,115,162.0
6851,B1,590.915,0.25,115,162.0
6852,C2,591.165,0.25,115,162.0
6853,B1,591.165,0.25,115,162.0
6854,C2,591.415,0.5,115,162.0
6855,G4,591.415,1.0,115,162.0
6856,E5,591.415,1.0,115,162.0
6857,E-3,591.415,0.25,115,162.0
6858,D2,591.415,0.25,115,162.0
6859,C2,591.915,0.25,115,162.0
6860,B1,591.915,0.25,115,162.0
6861,C2,592.165,0.25,115,162.0
6862,F#4,592.415,0.5,115,162.0
6863,D2,592.415,0.5,115,162.0
6864,B4,592.415,0.5,115,162.0
6865,E-3,592.415,0.25,115,162.0
6866,B1,592.415,0.25,115,162.0
6867,B1,592.915,0.25,115,162.0
6868,G4,592.915,0.5,115,162.0
6869,G2,592.915,0.5,115,162.0
6870,D5,592.915,0.5,115,162.0
6871,F#4,593.415,0.5,115,162.0
6872,D2,593.415,0.5,115,162.0
6873,B4,593.415,0.5,115,162.0
6874,E-3,593.415,0.25,115,162.0
6875,D2,593.415,0.25,115,162.0
6876,G4,593.915,0.5,115,162.0
6877,D2,593.915,0.5,115,162.0
6878,E5,593.915,0.5,115,162.0
6879,B1,593.915,0.25,115,162.0
6880,C#3,593.915,0.25,115,162.0
6881,G4,594.888,473/1000,115,162.0
6882,D2,594.888,473/1000,115,162.0
6883,E5,594.888,473/1000,115,162.0
6884,B4,595.388,103/200,115,162.0
6885,G5,595.388,103/200,115,162.0
6886,D2,595.388,0.25,115,162.0
6887,B1,595.388,0.25,115,162.0
6888,D2,595.638,0.25,115,162.0
6889,B1,595.638,0.25,115,162.0
6890,D2,595.888,479/1000,115,162.0
6891,A4,595.888,0.25,115,162.0
6892,F#5,595.888,0.25,115,162.0
6893,E-3,595.888,0.25,115,162.0
6894,D2,595.888,0.25,115,162.0
6895,B4,596.138,0.25,115,162.0
6896,G5,596.138,0.25,115,162.0
6897,D2,596.373,0.25,115,162.0
6898,A4,596.373,0.25,115,162.0
6899,F#5,596.373,0.25,115,162.0
6900,B1,596.373,0.25,115,162.0
6901,B4,596.638,0.25,115,162.0
6902,D2,596.638,0.25,115,162.0
6903,G5,596.638,0.25,115,162.0
6904,B1,596.638,0.25,115,162.0
6905,D5,596.888,0.5,115,162.0
6906,D2,596.888,0.5,115,162.0
6907,B5,596.888,0.5,115,162.0
6908,E-3,596.888,0.25,115,162.0
6909,B1,596.888,0.25,115,162.0
6910,B4,597.388,103/200,115,162.0
6911,G5,597.388,103/200,115,162.0
6912,D2,597.388,0.25,115,162.0
6913,B1,597.388,0.25,115,162.0
6914,D2,597.638,0.25,115,162.0
6915,B1,597.638,0.25,115,162.0
6916,D2,597.888,0.5,115,162.0
6917,A4,597.888,0.25,115,162.0
6918,F#5,597.888,0.25,115,162.0
6919,E-3,597.888,0.25,115,162.0
6920,D2,597.888,0.25,115,162.0
6921,B4,598.138,0.25,115,162.0
6922,G5,598.138,0.25,115,162.0
6923,A4,598.388,0.25,115,162.0
6924,D2,598.388,0.25,115,162.0
6925,F#5,598.388,0.25,115,162.0
6926,B1,598.388,0.25,115,162.0
6927,B4,598.638,0.25,115,162.0
6928,D2,598.638,0.25,115,162.0
6929,G5,598.638,0.25,115,162.0
6930,B1,598.638,0.25,115,162.0
6931,D2,598.888,0.25,115,162.0
6932,B4,598.888,0.5,115,162.0
6933,D2,598.888,0.5,115,162.0
6934,G5,598.888,0.5,115,162.0
6935,G4,599.388,0.5,115,162.0
6936,E5,599.388,0.5,115,162.0
6937,D2,599.388,0.25,115,162.0
6938,D2,599.388,0.25,115,162.0
6939,D2,599.638,0.25,115,162.0
6940,D2,599.638,0.25,115,162.0
6941,D2,599.888,0.5,115,162.0
6942,D2,599.888,0.25,115,162.0
6943,G4,599.888,1.0,115,162.0
6944,E5,599.888,1.0,115,162.0
6945,D2,600.388,0.25,115,162.0
6946,B2,600.388,0.25,115,162.0
6947,D2,600.638,0.25,115,162.0
6948,A2,600.888,0.25,115,162.0
6949,D3,600.888,0.5,115,162.0
6950,A3,600.888,0.5,115,162.0
6951,D2,600.888,0.5,115,162.0
6952,A3,600.888,0.5,115,162.0
6953,D3,600.888,0.5,115,162.0
6954,A2,601.138,0.25,115,162.0
6955,A2,601.388,0.25,115,162.0
6956,A3,601.388,0.5,115,162.0
6957,G2,601.388,0.5,115,162.0
6958,A3,601.388,0.5,115,162.0
6959,D3,601.638,0.25,115,162.0
6960,D3,601.638,0.25,115,162.0
6961,A2,601.888,0.25,115,162.0
6962,D3,601.888,0.5,115,162.0
6963,A3,601.888,0.5,115,162.0
6964,D2,601.888,0.5,115,162.0
6965,D3,601.888,0.5,115,162.0
6966,A3,601.888,0.5,115,162.0
6967,B3,602.388,0.5,115,162.0
6968,E3,602.388,0.5,115,162.0
6969,E2,602.388,0.5,115,162.0
6970,B3,602.388,0.5,115,162.0
6971,E3,602.388,0.5,115,162.0
6972,B1,602.388,0.25,115,162.0
6973,C#3,602.388,0.25,115,162.0
6974,B3,603.388,0.5,115,162.0
6975,E3,603.388,0.5,115,162.0
6976,E2,603.388,0.5,115,162.0
6977,B3,603.388,0.5,115,162.0
6978,E3,603.388,0.5,115,162.0
6979,B5,603.873,0.5,115,162.0
6980,E3,603.888,0.188,115,162.0
6981,B3,603.888,0.188,115,162.0
6982,E2,603.888,0.188,115,162.0
6983,B1,603.888,0.188,115,162.0
6984,E3,603.888,0.188,115,162.0
6985,B3,603.888,0.188,115,162.0
6986,E3,604.138,0.188,115,162.0
6987,B3,604.138,0.188,115,162.0
6988,E2,604.138,0.188,115,162.0
6989,B1,604.138,0.188,115,162.0
6990,E3,604.138,0.188,115,162.0
6991,B3,604.138,0.188,115,162.0
6992,B5,604.373,479/1000,115,162.0
6993,E2,604.373,479/1000,115,162.0
6994,E3,604.388,0.375,115,162.0
6995,B3,604.388,0.375,115,162.0
6996,E3,604.388,0.375,115,162.0
6997,B3,604.388,0.375,115,162.0
6998,E-3,604.388,0.25,115,162.0
6999,D2,604.388,0.25,115,162.0
7000,B5,604.873,0.5,115,162.0
7001,E2,604.873,0.188,115,162.0
7002,B3,604.873,0.188,115,162.0
7003,E3,604.873,0.188,115,162.0
7004,B3,604.873,0.188,115,162.0
7005,E3,604.873,0.188,115,162.0
7006,B1,604.888,0.125,115,162.0
7007,E3,605.138,0.188,115,162.0
7008,B3,605.138,0.188,115,162.0
7009,E2,605.138,0.188,115,162.0
7010,B1,605.138,0.188,115,162.0
7011,E3,605.138,0.188,115,162.0
7012,B3,605.138,0.188,115,162.0
7013,B5,605.373,1.0,115,162.0
7014,E2,605.388,0.5,115,162.0
7015,E3,605.388,0.375,115,162.0
7016,B3,605.388,0.375,115,162.0
7017,E3,605.388,0.375,115,162.0
7018,B3,605.388,0.375,115,162.0
7019,E-3,605.388,0.25,115,162.0
7020,B1,605.388,0.25,115,162.0
7021,B3,605.888,0.188,115,162.0
7022,E3,605.888,0.188,115,162.0
7023,E2,605.888,0.188,115,162.0
7024,B1,605.888,0.188,115,162.0
7025,B3,605.888,0.188,115,162.0
7026,E3,605.888,0.188,115,162.0
7027,E3,606.138,0.188,115,162.0
7028,B3,606.138,0.188,115,162.0
7029,E2,606.138,0.188,115,162.0
7030,B1,606.138,0.188,115,162.0
7031,E3,606.138,0.188,115,162.0
7032,B3,606.138,0.188,115,162.0
7033,A5,606.373,0.5,115,162.0
7034,E2,606.373,0.5,115,162.0
7035,E3,606.388,0.375,115,162.0
7036,B3,606.388,0.375,115,162.0
7037,E3,606.388,0.375,115,162.0
7038,B3,606.388,0.375,115,162.0
7039,E-3,606.388,0.25,115,162.0
7040,D2,606.388,0.25,115,162.0
7041,G5,606.873,103/200,115,162.0
7042,B3,606.888,0.188,115,162.0
7043,E3,606.888,0.188,115,162.0
7044,E2,606.888,0.188,115,162.0
7045,B1,606.888,0.188,115,162.0
7046,B3,606.888,0.188,115,162.0
7047,E3,606.888,0.188,115,162.0
7048,E3,607.138,0.188,115,162.0
7049,B3,607.138,0.188,115,162.0
7050,E2,607.138,0.188,115,162.0
7051,B1,607.138,0.188,115,162.0
7052,E3,607.138,0.188,115,162.0
7053,B3,607.138,0.188,115,162.0
7054,G5,607.388,27/1000,115,162.0
7055,E3,607.388,0.375,115,162.0
7056,B3,607.388,0.375,115,162.0
7057,E3,607.388,0.375,115,162.0
7058,B3,607.388,0.375,115,162.0
7059,E2,607.388,0.5,115,162.0
7060,A5,607.388,0.5,115,162.0
7061,E-3,607.388,0.25,115,162.0
7062,B1,607.388,0.25,115,162.0
7063,G5,607.888,0.5,115,162.0
7064,B3,607.888,0.188,115,162.0
7065,E3,607.888,0.188,115,162.0
7066,E2,607.888,0.188,115,162.0
7067,B1,607.888,0.188,115,162.0
7068,B3,607.888,0.188,115,162.0
7069,E3,607.888,0.188,115,162.0
7070,E3,608.138,0.188,115,162.0
7071,B3,608.138,0.188,115,162.0
7072,E2,608.138,0.188,115,162.0
7073,B1,608.138,0.188,115,162.0
7074,E3,608.138,0.188,115,162.0
7075,B3,608.138,0.188,115,162.0
7076,B5,608.373,1027/1000,115,162.0
7077,E2,608.388,0.5,115,162.0
7078,E3,608.388,0.375,115,162.0
7079,B3,608.388,0.375,115,162.0
7080,E3,608.388,0.375,115,162.0
7081,B3,608.388,0.375,115,162.0
7082,D2,608.388,0.25,115,162.0
7083,E-3,608.388,0.25,115,162.0
7084,B3,608.888,0.188,115,162.0
7085,E3,608.888,0.188,115,162.0
7086,E2,608.888,0.188,115,162.0
7087,B1,608.888,0.188,115,162.0
7088,B3,608.888,0.188,115,162.0
7089,E3,608.888,0.188,115,162.0
7090,E3,609.138,0.188,115,162.0
7091,B3,609.138,0.188,115,162.0
7092,E2,609.138,0.188,115,162.0
7093,B1,609.138,0.188,115,162.0
7094,E3,609.138,0.188,115,162.0
7095,B3,609.138,0.188,115,162.0
7096,D3,609.388,0.5,115,162.0
7097,A3,609.388,0.5,115,162.0
7098,D2,609.388,0.5,115,162.0
7099,D3,609.388,0.5,115,162.0
7100,A3,609.388,0.5,115,162.0
7101,E-3,609.388,0.25,115,162.0
7102,B1,609.388,0.25,115,162.0
7103,A3,609.888,0.5,115,162.0
7104,G2,609.888,0.5,115,162.0
7105,A3,609.888,0.5,115,162.0
7106,D3,610.138,0.25,115,162.0
7107,D3,610.138,0.25,115,162.0
7108,D3,610.388,0.5,115,162.0
7109,A3,610.388,0.5,115,162.0
7110,D2,610.388,0.5,115,162.0
7111,D3,610.388,0.5,115,162.0
7112,A3,610.388,0.5,115,162.0
7113,E-3,610.388,0.25,115,162.0
7114,D2,610.388,0.25,115,162.0
7115,B3,610.888,0.5,115,162.0
7116,E3,610.888,0.5,115,162.0
7117,E2,610.888,0.5,115,162.0
7118,B3,610.888,0.5,115,162.0
7119,E3,610.888,0.5,115,162.0
7120,C#3,610.888,0.25,115,162.0
7121,B1,610.888,0.25,115,162.0
7122,B3,611.388,0.5,115,162.0
7123,E3,611.388,0.5,115,162.0
7124,E2,611.388,0.5,115,162.0
7125,B3,611.388,0.5,115,162.0
7126,E3,611.388,0.5,115,162.0
7127,B5,611.873,0.5,115,162.0
7128,E3,611.888,0.188,115,162.0
7129,B3,611.888,0.188,115,162.0
7130,E2,611.888,0.188,115,162.0
7131,B1,611.888,0.188,115,162.0
7132,E3,611.888,0.188,115,162.0
7133,B3,611.888,0.188,115,162.0
7134,E3,612.138,0.188,115,162.0
7135,B3,612.138,0.188,115,162.0
7136,E2,612.138,0.188,115,162.0
7137,B1,612.138,0.188,115,162.0
7138,E3,612.138,0.188,115,162.0
7139,B3,612.138,0.188,115,162.0
7140,B5,612.373,479/1000,115,162.0
7141,E2,612.373,479/1000,115,162.0
7142,E3,612.388,0.375,115,162.0
7143,B3,612.388,0.375,115,162.0
7144,E3,612.388,0.375,115,162.0
7145,B3,612.388,0.375,115,162.0
7146,D2,612.388,0.25,115,162.0
7147,E-3,612.388,0.25,115,162.0
7148,B5,612.873,0.5,115,162.0
7149,E2,612.873,0.188,115,162.0
7150,B3,612.873,0.188,115,162.0
7151,E3,612.873,0.188,115,162.0
7152,B3,612.873,0.188,115,162.0
7153,E3,612.873,0.188,115,162.0
7154,B1,612.888,0.125,115,162.0
7155,E3,613.138,0.188,115,162.0
7156,B3,613.138,0.188,115,162.0
7157,E2,613.138,0.188,115,162.0
7158,B1,613.138,0.188,115,162.0
7159,E3,613.138,0.188,115,162.0
7160,B3,613.138,0.188,115,162.0
7161,B5,613.373,0.5,115,162.0
7162,E2,613.373,0.5,115,162.0
7163,E3,613.388,0.375,115,162.0
7164,B3,613.388,0.375,115,162.0
7165,E3,613.388,0.375,115,162.0
7166,B3,613.388,0.375,115,162.0
7167,E-3,613.388,0.25,115,162.0
7168,B1,613.388,0.25,115,162.0
7169,B5,613.873,0.5,115,162.0
7170,B3,613.888,0.188,115,162.0
7171,E3,613.888,0.188,115,162.0
7172,E2,613.888,0.188,115,162.0
7173,B1,613.888,0.188,115,162.0
7174,B3,613.888,0.188,115,162.0
7175,E3,613.888,0.188,115,162.0
7176,E3,614.138,0.188,115,162.0
7177,B3,614.138,0.188,115,162.0
7178,E2,614.138,0.188,115,162.0
7179,B1,614.138,0.188,115,162.0
7180,E3,614.138,0.188,115,162.0
7181,B3,614.138,0.188,115,162.0
7182,A5,614.373,0.5,115,162.0
7183,E2,614.373,0.5,115,162.0
7184,E3,614.388,0.375,115,162.0
7185,B3,614.388,0.375,115,162.0
7186,E3,614.388,0.375,115,162.0
7187,B3,614.388,0.375,115,162.0
7188,E-3,614.388,0.25,115,162.0
7189,D2,614.388,0.25,115,162.0
7190,G5,614.873,0.5,115,162.0
7191,B3,614.888,0.188,115,162.0
7192,E3,614.888,0.188,115,162.0
7193,E2,614.888,0.188,115,162.0
7194,B1,614.888,0.188,115,162.0
7195,B3,614.888,0.188,115,162.0
7196,E3,614.888,0.188,115,162.0
7197,E3,615.138,0.188,115,162.0
7198,B3,615.138,0.188,115,162.0
7199,E2,615.138,0.188,115,162.0
7200,B1,615.138,0.188,115,162.0
7201,E3,615.138,0.188,115,162.0
7202,B3,615.138,0.188,115,162.0
7203,A5,615.373,3/200,115,162.0
7204,E2,615.373,3/200,115,162.0
7205,E3,615.388,0.375,115,162.0
7206,B3,615.388,0.375,115,162.0
7207,E3,615.388,0.375,115,162.0
7208,B3,615.388,0.375,115,162.0
7209,B1,615.388,0.25,115,162.0
7210,E-3,615.388,0.25,115,162.0
7211,A5,615.388,97/200,115,162.0
7212,E2,615.388,97/200,115,162.0
7213,B5,615.873,0.5,115,162.0
7214,B3,615.888,0.188,115,162.0
7215,E3,615.888,0.188,115,162.0
7216,E2,615.888,0.188,115,162.0
7217,B1,615.888,0.188,115,162.0
7218,B3,615.888,0.188,115,162.0
7219,E3,615.888,0.188,115,162.0
7220,E3,616.138,0.188,115,162.0
7221,B3,616.138,0.188,115,162.0
7222,E2,616.138,0.188,115,162.0
7223,B1,616.138,0.188,115,162.0
7224,E3,616.138,0.188,115,162.0
7225,B3,616.138,0.188,115,162.0
7226,A5,616.373,0.5,115,162.0
7227,E2,616.373,0.5,115,162.0
7228,E3,616.388,0.375,115,162.0
7229,B3,616.388,0.375,115,162.0
7230,E3,616.388,0.375,115,162.0
7231,B3,616.388,0.375,115,162.0
7232,D2,616.388,0.25,115,162.0
7233,E-3,616.388,0.25,115,162.0
7234,G5,616.873,1.0,115,162.0
7235,B3,616.888,0.188,115,162.0
7236,E3,616.888,0.188,115,162.0
7237,E2,616.888,0.188,115,162.0
7238,B1,616.888,0.188,115,162.0
7239,B3,616.888,0.188,115,162.0
7240,E3,616.888,0.188,115,162.0
7241,E3,617.138,0.188,115,162.0
7242,B3,617.138,0.188,115,162.0
7243,E2,617.138,0.188,115,162.0
7244,B1,617.138,0.188,115,162.0
7245,E3,617.138,0.188,115,162.0
7246,B3,617.138,0.188,115,162.0
7247,D3,617.388,0.5,115,162.0
7248,A3,617.388,0.5,115,162.0
7249,D2,617.388,0.5,115,162.0
7250,D3,617.388,0.5,115,162.0
7251,A3,617.388,0.5,115,162.0
7252,E-3,617.388,0.25,115,162.0
7253,B1,617.388,0.25,115,162.0
7254,A3,617.888,0.5,115,162.0
7255,G2,617.888,0.5,115,162.0
7256,A3,617.888,0.5,115,162.0
7257,D3,618.138,0.25,115,162.0
7258,D3,618.138,0.25,115,162.0
7259,D3,618.388,0.5,115,162.0
7260,A3,618.388,0.5,115,162.0
7261,D2,618.388,0.5,115,162.0
7262,D3,618.388,0.5,115,162.0
7263,A3,618.388,0.5,115,162.0
7264,E-3,618.388,0.25,115,162.0
7265,D2,618.388,0.25,115,162.0
7266,C3,618.888,0.5,115,162.0
7267,G3,618.888,0.5,115,162.0
7268,C2,618.888,0.5,115,162.0
7269,C3,618.888,0.5,115,162.0
7270,G3,618.888,0.5,115,162.0
7271,B1,618.888,0.25,115,162.0
7272,C#3,618.888,0.25,115,162.0
7273,C3,619.388,0.5,115,162.0
7274,G3,619.388,0.5,115,162.0
7275,C2,619.388,0.5,115,162.0
7276,C3,619.388,0.5,115,162.0
7277,G3,619.388,0.5,115,162.0
7278,B5,619.881,0.5,115,162.0
7279,C3,619.888,0.188,115,162.0
7280,G3,619.888,0.188,115,162.0
7281,C2,619.888,0.188,115,162.0
7282,B1,619.888,0.188,115,162.0
7283,C3,619.888,0.188,115,162.0
7284,G3,619.888,0.188,115,162.0
7285,C3,620.138,0.188,115,162.0
7286,G3,620.138,0.188,115,162.0
7287,C2,620.138,0.188,115,162.0
7288,B1,620.138,0.188,115,162.0
7289,C3,620.138,0.188,115,162.0
7290,G3,620.138,0.188,115,162.0
7291,B5,620.381,479/1000,115,162.0
7292,C2,620.381,479/1000,115,162.0
7293,C3,620.388,0.375,115,162.0
7294,G3,620.388,0.375,115,162.0
7295,C3,620.388,0.375,115,162.0
7296,G3,620.388,0.375,115,162.0
7297,D2,620.388,0.25,115,162.0
7298,E-3,620.388,0.25,115,162.0
7299,C2,620.873,0.188,115,162.0
7300,G3,620.873,0.188,115,162.0
7301,C3,620.873,0.188,115,162.0
7302,G3,620.873,0.188,115,162.0
7303,C3,620.873,0.188,115,162.0
7304,B5,620.881,0.5,115,162.0
7305,B1,620.888,0.125,115,162.0
7306,C3,621.138,0.188,115,162.0
7307,G3,621.138,0.188,115,162.0
7308,C2,621.138,0.188,115,162.0
7309,B1,621.138,0.188,115,162.0
7310,C3,621.138,0.188,115,162.0
7311,G3,621.138,0.188,115,162.0
7312,B5,621.381,0.5,115,162.0
7313,C2,621.381,0.5,115,162.0
7314,C3,621.388,0.375,115,162.0
7315,G3,621.388,0.375,115,162.0
7316,C3,621.388,0.375,115,162.0
7317,G3,621.388,0.375,115,162.0
7318,E-3,621.388,0.25,115,162.0
7319,B1,621.388,0.25,115,162.0
7320,A5,621.881,0.5,115,162.0
7321,G3,621.888,0.188,115,162.0
7322,C3,621.888,0.188,115,162.0
7323,C2,621.888,0.188,115,162.0
7324,B1,621.888,0.188,115,162.0
7325,G3,621.888,0.188,115,162.0
7326,C3,621.888,0.188,115,162.0
7327,C3,622.138,0.188,115,162.0
7328,G3,622.138,0.188,115,162.0
7329,C2,622.138,0.188,115,162.0
7330,B1,622.138,0.188,115,162.0
7331,C3,622.138,0.188,115,162.0
7332,G3,622.138,0.188,115,162.0
7333,A5,622.381,0.5,115,162.0
7334,C2,622.381,0.5,115,162.0
7335,C3,622.388,0.375,115,162.0
7336,G3,622.388,0.375,115,162.0
7337,C3,622.388,0.375,115,162.0
7338,G3,622.388,0.375,115,162.0
7339,E-3,622.388,0.25,115,162.0
7340,D2,622.388,0.25,115,162.0
7341,G5,622.888,0.5,115,162.0
7342,G3,622.888,0.188,115,162.0
7343,C3,622.888,0.188,115,162.0
7344,C2,622.888,0.188,115,162.0
7345,B1,622.888,0.188,115,162.0
7346,G3,622.888,0.188,115,162.0
7347,C3,622.888,0.188,115,162.0
7348,C3,623.138,0.188,115,162.0
7349,G3,623.138,0.188,115,162.0
7350,C2,623.138,0.188,115,162.0
7351,B1,623.138,0.188,115,162.0
7352,C3,623.138,0.188,115,162.0
7353,G3,623.138,0.188,115,162.0
7354,A5,623.367,21/1000,115,162.0
7355,C2,623.367,21/1000,115,162.0
7356,C3,623.388,0.375,115,162.0
7357,G3,623.388,0.375,115,162.0
7358,C3,623.388,0.375,115,162.0
7359,G3,623.388,0.375,115,162.0
7360,B1,623.388,0.25,115,162.0
7361,E-3,623.388,0.25,115,162.0
7362,A5,623.388,479/1000,115,162.0
7363,C2,623.388,479/1000,115,162.0
7364,G5,623.867,64/125,115,162.0
7365,G3,623.888,0.188,115,162.0
7366,C3,623.888,0.188,115,162.0
7367,C2,623.888,0.188,115,162.0
7368,B1,623.888,0.188,115,162.0
7369,G3,623.888,0.188,115,162.0
7370,C3,623.888,0.188,115,162.0
7371,C3,624.138,0.188,115,162.0
7372,G3,624.138,0.188,115,162.0
7373,C2,624.138,0.188,115,162.0
7374,B1,624.138,0.188,115,162.0
7375,C3,624.138,0.188,115,162.0
7376,G3,624.138,0.188,115,162.0
7377,B5,624.367,1.0,115,162.0
7378,C2,624.388,0.5,115,162.0
7379,C3,624.388,0.375,115,162.0
7380,G3,624.388,0.375,115,162.0
7381,C3,624.388,0.375,115,162.0
7382,G3,624.388,0.375,115,162.0
7383,D2,624.388,0.25,115,162.0
7384,E-3,624.388,0.25,115,162.0
7385,G3,624.888,0.188,115,162.0
7386,C3,624.888,0.188,115,162.0
7387,C2,624.888,0.188,115,162.0
7388,B1,624.888,0.188,115,162.0
7389,G3,624.888,0.188,115,162.0
7390,C3,624.888,0.188,115,162.0
7391,C3,625.138,0.188,115,162.0
7392,G3,625.138,0.188,115,162.0
7393,C2,625.138,0.188,115,162.0
7394,B1,625.138,0.188,115,162.0
7395,C3,625.138,0.188,115,162.0
7396,G3,625.138,0.188,115,162.0
7397,D3,625.388,0.5,115,162.0
7398,A3,625.388,0.5,115,162.0
7399,D2,625.388,0.5,115,162.0
7400,D3,625.388,0.5,115,162.0
7401,A3,625.388,0.5,115,162.0
7402,E-3,625.388,0.25,115,162.0
7403,B1,625.388,0.25,115,162.0
7404,A3,625.888,0.5,115,162.0
7405,G2,625.888,0.5,115,162.0
7406,A3,625.888,0.5,115,162.0
7407,D3,626.138,0.25,115,162.0
7408,D3,626.138,0.25,115,162.0
7409,D3,626.388,0.5,115,162.0
7410,A3,626.388,0.5,115,162.0
7411,D2,626.388,0.5,115,162.0
7412,D3,626.388,0.5,115,162.0
7413,A3,626.388,0.5,115,162.0
7414,E-3,626.388,0.25,115,162.0
7415,D2,626.388,0.25,115,162.0
7416,B3,626.888,0.5,115,162.0
7417,E3,626.888,0.5,115,162.0
7418,E2,626.888,0.5,115,162.0
7419,B3,626.888,0.5,115,162.0
7420,E3,626.888,0.5,115,162.0
7421,B1,626.888,0.25,115,162.0
7422,C#3,626.888,0.25,115,162.0
7423,B3,627.388,0.5,115,162.0
7424,E3,627.388,0.5,115,162.0
7425,E2,627.388,0.5,115,162.0
7426,B3,627.388,0.5,115,162.0
7427,E3,627.388,0.5,115,162.0
7428,B5,627.881,0.5,115,162.0
7429,E3,627.888,0.188,115,162.0
7430,B3,627.888,0.188,115,162.0
7431,E2,627.888,0.188,115,162.0
7432,B1,627.888,0.188,115,162.0
7433,E3,627.888,0.188,115,162.0
7434,B3,627.888,0.188,115,162.0
7435,E3,628.138,0.188,115,162.0
7436,B3,628.138,0.188,115,162.0
7437,E2,628.138,0.188,115,162.0
7438,B1,628.138,0.188,115,162.0
7439,E3,628.138,0.188,115,162.0
7440,B3,628.138,0.188,115,162.0
7441,B5,628.381,479/1000,115,162.0
7442,E2,628.381,479/1000,115,162.0
7443,E3,628.388,0.375,115,162.0
7444,B3,628.388,0.375,115,162.0
7445,E3,628.388,0.375,115,162.0
7446,B3,628.388,0.375,115,162.0
7447,D2,628.388,0.25,115,162.0
7448,E-3,628.388,0.25,115,162.0
7449,E2,628.873,0.188,115,162.0
7450,B3,628.873,0.188,115,162.0
7451,E3,628.873,0.188,115,162.0
7452,B3,628.873,0.188,115,162.0
7453,E3,628.873,0.188,115,162.0
7454,B5,628.881,0.5,115,162.0
7455,B1,628.888,0.125,115,162.0
7456,E3,629.138,0.188,115,162.0
7457,B3,629.138,0.188,115,162.0
7458,E2,629.138,0.188,115,162.0
7459,B1,629.138,0.188,115,162.0
7460,E3,629.138,0.188,115,162.0
7461,B3,629.138,0.188,115,162.0
7462,D6,629.381,1027/1000,115,162.0
7463,E2,629.388,0.5,115,162.0
7464,E3,629.388,0.375,115,162.0
7465,B3,629.388,0.375,115,162.0
7466,E3,629.388,0.375,115,162.0
7467,B3,629.388,0.375,115,162.0
7468,E-3,629.388,0.25,115,162.0
7469,B1,629.388,0.25,115,162.0
7470,B3,629.888,0.188,115,162.0
7471,E3,629.888,0.188,115,162.0
7472,E2,629.888,0.188,115,162.0
7473,B1,629.888,0.188,115,162.0
7474,B3,629.888,0.188,115,162.0
7475,E3,629.888,0.188,115,162.0
7476,E3,630.138,0.188,115,162.0
7477,B3,630.138,0.188,115,162.0
7478,E2,630.138,0.188,115,162.0
7479,B1,630.138,0.188,115,162.0
7480,E3,630.138,0.188,115,162.0
7481,B3,630.138,0.188,115,162.0
7482,A5,630.381,0.5,115,162.0
7483,E2,630.381,0.5,115,162.0
7484,E3,630.388,0.375,115,162.0
7485,B3,630.388,0.375,115,162.0
7486,E3,630.388,0.375,115,162.0
7487,B3,630.388,0.375,115,162.0
7488,E-3,630.388,0.25,115,162.0
7489,D2,630.388,0.25,115,162.0
7490,A5,630.888,0.5,115,162.0
7491,B3,630.888,0.188,115,162.0
7492,E3,630.888,0.188,115,162.0
7493,E2,630.888,0.188,115,162.0
7494,B1,630.888,0.188,115,162.0
7495,B3,630.888,0.188,115,162.0
7496,E3,630.888,0.188,115,162.0
7497,E3,631.138,0.188,115,162.0
7498,B3,631.138,0.188,115,162.0
7499,E2,631.138,0.188,115,162.0
7500,B1,631.138,0.188,115,162.0
7501,E3,631.138,0.188,115,162.0
7502,B3,631.138,0.188,115,162.0
7503,B5,631.367,21/1000,115,162.0
7504,E2,631.367,21/1000,115,162.0
7505,B2,631.388,0.25,115,162.0
7506,E3,631.388,0.375,115,162.0
7507,B3,631.388,0.375,115,162.0
7508,E3,631.388,0.375,115,162.0
7509,B3,631.388,0.375,115,162.0
7510,B5,631.388,479/1000,115,162.0
7511,E2,631.388,479/1000,115,162.0
7512,B2,631.638,0.25,115,162.0
7513,B5,631.867,64/125,115,162.0
7514,B3,631.888,0.188,115,162.0
7515,E3,631.888,0.188,115,162.0
7516,E2,631.888,0.188,115,162.0
7517,B2,631.888,0.188,115,162.0
7518,B3,631.888,0.188,115,162.0
7519,E3,631.888,0.188,115,162.0
7520,E3,632.138,0.188,115,162.0
7521,B3,632.138,0.188,115,162.0
7522,E2,632.138,0.188,115,162.0
7523,E3,632.138,0.188,115,162.0
7524,B3,632.138,0.188,115,162.0
7525,E2,632.388,0.5,115,162.0
7526,D2,632.388,0.25,115,162.0
7527,B5,632.388,1.0,115,162.0
7528,E3,632.388,0.375,115,162.0
7529,B3,632.388,0.375,115,162.0
7530,E3,632.388,0.375,115,162.0
7531,B3,632.388,0.375,115,162.0
7532,B3,632.888,0.188,115,162.0
7533,E3,632.888,0.188,115,162.0
7534,E2,632.888,0.188,115,162.0
7535,B2,632.888,0.188,115,162.0
7536,B3,632.888,0.188,115,162.0
7537,E3,632.888,0.188,115,162.0
7538,E3,633.138,0.188,115,162.0
7539,B3,633.138,0.188,115,162.0
7540,E2,633.138,0.188,115,162.0
7541,B2,633.138,0.188,115,162.0
7542,E3,633.138,0.188,115,162.0
7543,B3,633.138,0.188,115,162.0
7544,D2,633.388,0.25,115,162.0
7545,A3,633.388,0.5,115,162.0
7546,D3,633.388,0.5,115,162.0
7547,D2,633.388,0.5,115,162.0
7548,A3,633.388,0.5,115,162.0
7549,D3,633.388,0.5,115,162.0
7550,A2,633.888,0.25,115,162.0
7551,A3,633.888,0.5,115,162.0
7552,G2,633.888,0.5,115,162.0
7553,A3,633.888,0.5,115,162.0
7554,D3,634.138,0.25,115,162.0
7555,D3,634.138,0.25,115,162.0
7556,A2,634.388,0.25,115,162.0
7557,D3,634.388,0.5,115,162.0
7558,A3,634.388,0.5,115,162.0
7559,D2,634.388,0.5,115,162.0
7560,D3,634.388,0.5,115,162.0
7561,A3,634.388,0.5,115,162.0
7562,E3,634.888,0.5,115,162.0
7563,B3,634.888,0.5,115,162.0
7564,E2,634.888,0.5,115,162.0
7565,E3,634.888,0.5,115,162.0
7566,B3,634.888,0.5,115,162.0
7567,B1,634.888,0.25,115,162.0
7568,C#3,634.888,0.25,115,162.0
7569,E3,635.388,0.5,115,162.0
7570,B3,635.388,0.5,115,162.0
7571,E2,635.388,0.5,115,162.0
7572,E3,635.388,0.5,115,162.0
7573,B3,635.388,0.5,115,162.0
7574,B5,635.873,0.5,115,162.0
7575,E3,635.888,0.188,115,162.0
7576,B3,635.888,0.188,115,162.0
7577,E2,635.888,0.188,115,162.0
7578,B1,635.888,0.188,115,162.0
7579,E3,635.888,0.188,115,162.0
7580,B3,635.888,0.188,115,162.0
7581,E3,636.138,0.188,115,162.0
7582,B3,636.138,0.188,115,162.0
7583,E2,636.138,0.188,115,162.0
7584,B1,636.138,0.188,115,162.0
7585,E3,636.138,0.188,115,162.0
7586,B3,636.138,0.188,115,162.0
7587,B5,636.373,479/1000,115,162.0
7588,E2,636.373,479/1000,115,162.0
7589,E3,636.388,0.375,115,162.0
7590,B3,636.388,0.375,115,162.0
7591,E3,636.388,0.375,115,162.0
7592,B3,636.388,0.375,115,162.0
7593,E-3,636.388,0.25,115,162.0
7594,D2,636.388,0.25,115,162.0
7595,B5,636.873,0.5,115,162.0
7596,E2,636.873,0.188,115,162.0
7597,B3,636.873,0.188,115,162.0
7598,E3,636.873,0.188,115,162.0
7599,B3,636.873,0.188,115,162.0
7600,E3,636.873,0.188,115,162.0
7601,B1,636.888,0.125,115,162.0
7602,E3,637.138,0.188,115,162.0
7603,B3,637.138,0.188,115,162.0
7604,E2,637.138,0.188,115,162.0
7605,B1,637.138,0.188,115,162.0
7606,E3,637.138,0.188,115,162.0
7607,B3,637.138,0.188,115,162.0
7608,B5,637.373,1.0,115,162.0
7609,E2,637.388,0.5,115,162.0
7610,E3,637.388,0.375,115,162.0
7611,B3,637.388,0.375,115,162.0
7612,E3,637.388,0.375,115,162.0
7613,B3,637.388,0.375,115,162.0
7614,E-3,637.388,0.25,115,162.0
7615,B1,637.388,0.25,115,162.0
7616,B3,637.888,0.188,115,162.0
7617,E3,637.888,0.188,115,162.0
7618,E2,637.888,0.188,115,162.0
7619,B1,637.888,0.188,115,162.0
7620,B3,637.888,0.188,115,162.0
7621,E3,637.888,0.188,115,162.0
7622,E3,638.138,0.188,115,162.0
7623,B3,638.138,0.188,115,162.0
7624,E2,638.138,0.188,115,162.0
7625,B1,638.138,0.188,115,162.0
7626,E3,638.138,0.188,115,162.0
7627,B3,638.138,0.188,115,162.0
7628,A5,638.373,0.5,115,162.0
7629,E2,638.373,0.5,115,162.0
7630,E3,638.388,0.375,115,162.0
7631,B3,638.388,0.375,115,162.0
7632,E3,638.388,0.375,115,162.0
7633,B3,638.388,0.375,115,162.0
7634,E-3,638.388,0.25,115,162.0
7635,D2,638.388,0.25,115,162.0
7636,G5,638.873,103/200,115,162.0
7637,B3,638.888,0.188,115,162.0
7638,E3,638.888,0.188,115,162.0
7639,E2,638.888,0.188,115,162.0
7640,B1,638.888,0.188,115,162.0
7641,B3,638.888,0.188,115,162.0
7642,E3,638.888,0.188,115,162.0
7643,E3,639.138,0.188,115,162.0
7644,B3,639.138,0.188,115,162.0
7645,E2,639.138,0.188,115,162.0
7646,B1,639.138,0.188,115,162.0
7647,E3,639.138,0.188,115,162.0
7648,B3,639.138,0.188,115,162.0
7649,G5,639.388,27/1000,115,162.0
7650,E3,639.388,0.375,115,162.0
7651,B3,639.388,0.375,115,162.0
7652,E3,639.388,0.375,115,162.0
7653,B3,639.388,0.375,115,162.0
7654,E2,639.388,0.5,115,162.0
7655,A5,639.388,0.5,115,162.0
7656,E-3,639.388,0.25,115,162.0
7657,B1,639.388,0.25,115,162.0
7658,G5,639.888,0.5,115,162.0
7659,B3,639.888,0.188,115,162.0
7660,E3,639.888,0.188,115,162.0
7661,E2,639.888,0.188,115,162.0
7662,B1,639.888,0.188,115,162.0
7663,B3,639.888,0.188,115,162.0
7664,E3,639.888,0.188,115,162.0
7665,E3,640.138,0.188,115,162.0
7666,B3,640.138,0.188,115,162.0
7667,E2,640.138,0.188,115,162.0
7668,B1,640.138,0.188,115,162.0
7669,E3,640.138,0.188,115,162.0
7670,B3,640.138,0.188,115,162.0
7671,B5,640.373,1027/1000,115,162.0
7672,E2,640.388,0.5,115,162.0
7673,E3,640.388,0.375,115,162.0
7674,B3,640.388,0.375,115,162.0
7675,E3,640.388,0.375,115,162.0
7676,B3,640.388,0.375,115,162.0
7677,D2,640.388,0.25,115,162.0
7678,E-3,640.388,0.25,115,162.0
7679,B3,640.888,0.188,115,162.0
7680,E3,640.888,0.188,115,162.0
7681,E2,640.888,0.188,115,162.0
7682,B1,640.888,0.188,115,162.0
7683,B3,640.888,0.188,115,162.0
7684,E3,640.888,0.188,115,162.0
7685,E3,641.138,0.188,115,162.0
7686,B3,641.138,0.188,115,162.0
7687,E2,641.138,0.188,115,162.0
7688,B1,641.138,0.188,115,162.0
7689,E3,641.138,0.188,115,162.0
7690,B3,641.138,0.188,115,162.0
7691,D3,641.388,0.5,115,162.0
7692,A3,641.388,0.5,115,162.0
7693,D2,641.388,0.5,115,162.0
7694,D3,641.388,0.5,115,162.0
7695,A3,641.388,0.5,115,162.0
7696,E-3,641.388,0.25,115,162.0
7697,B1,641.388,0.25,115,162.0
7698,A3,641.888,0.5,115,162.0
7699,G2,641.888,0.5,115,162.0
7700,A3,641.888,0.5,115,162.0
7701,D3,642.138,0.25,115,162.0
7702,D3,642.138,0.25,115,162.0
7703,D3,642.388,0.5,115,162.0
7704,A3,642.388,0.5,115,162.0
7705,D2,642.388,0.5,115,162.0
7706,D3,642.388,0.5,115,162.0
7707,A3,642.388,0.5,115,162.0
7708,E-3,642.388,0.25,115,162.0
7709,D2,642.388,0.25,115,162.0
7710,B3,642.888,0.5,115,162.0
7711,E3,642.888,0.5,115,162.0
7712,E2,642.888,0.5,115,162.0
7713,B3,642.888,0.5,115,162.0
7714,E3,642.888,0.5,115,162.0
7715,C#3,642.888,0.25,115,162.0
7716,B1,642.888,0.25,115,162.0
7717,B3,643.388,0.5,115,162.0
7718,E3,643.388,0.5,115,162.0
7719,E2,643.388,0.5,115,162.0
7720,B3,643.388,0.5,115,162.0
7721,E3,643.388,0.5,115,162.0
7722,B5,643.873,0.5,115,162.0
7723,E3,643.888,0.188,115,162.0
7724,B3,643.888,0.188,115,162.0
7725,E2,643.888,0.188,115,162.0
7726,B1,643.888,0.188,115,162.0
7727,E3,643.888,0.188,115,162.0
7728,B3,643.888,0.188,115,162.0
7729,E3,644.138,0.188,115,162.0
7730,B3,644.138,0.188,115,162.0
7731,E2,644.138,0.188,115,162.0
7732,B1,644.138,0.188,115,162.0
7733,E3,644.138,0.188,115,162.0
7734,B3,644.138,0.188,115,162.0
7735,B5,644.373,479/1000,115,162.0
7736,E2,644.373,479/1000,115,162.0
7737,E3,644.388,0.375,115,162.0
7738,B3,644.388,0.375,115,162.0
7739,E3,644.388,0.375,115,162.0
7740,B3,644.388,0.375,115,162.0
7741,D2,644.388,0.25,115,162.0
7742,E-3,644.388,0.25,115,162.0
7743,B5,644.873,0.5,115,162.0
7744,E2,644.873,0.188,115,162.0
7745,B3,644.873,0.188,115,162.0
7746,E3,644.873,0.188,115,162.0
7747,B3,644.873,0.188,115,162.0
7748,E3,644.873,0.188,115,162.0
7749,B1,644.888,0.125,115,162.0
7750,E3,645.138,0.188,115,162.0
7751,B3,645.138,0.188,115,162.0
7752,E2,645.138,0.188,115,162.0
7753,B1,645.138,0.188,115,162.0
7754,E3,645.138,0.188,115,162.0
7755,B3,645.138,0.188,115,162.0
7756,B5,645.373,0.5,115,162.0
7757,E2,645.373,0.5,115,162.0
7758,E3,645.388,0.375,115,162.0
7759,B3,645.388,0.375,115,162.0
7760,E3,645.388,0.375,115,162.0
7761,B3,645.388,0.375,115,162.0
7762,E-3,645.388,0.25,115,162.0
7763,B1,645.388,0.25,115,162.0
7764,B5,645.873,0.5,115,162.0
7765,B3,645.888,0.188,115,162.0
7766,E3,645.888,0.188,115,162.0
7767,E2,645.888,0.188,115,162.0
7768,B1,645.888,0.188,115,162.0
7769,B3,645.888,0.188,115,162.0
7770,E3,645.888,0.188,115,162.0
7771,E3,646.138,0.188,115,162.0
7772,B3,646.138,0.188,115,162.0
7773,E2,646.138,0.188,115,162.0
7774,B1,646.138,0.188,115,162.0
7775,E3,646.138,0.188,115,162.0
7776,B3,646.138,0.188,115,162.0
7777,A5,646.373,0.5,115,162.0
7778,E2,646.373,0.5,115,162.0
7779,E3,646.388,0.375,115,162.0
7780,B3,646.388,0.375,115,162.0
7781,E3,646.388,0.375,115,162.0
7782,B3,646.388,0.375,115,162.0
7783,E-3,646.388,0.25,115,162.0
7784,D2,646.388,0.25,115,162.0
7785,G5,646.873,0.5,115,162.0
7786,B3,646.888,0.188,115,162.0
7787,E3,646.888,0.188,115,162.0
7788,E2,646.888,0.188,115,162.0
7789,B1,646.888,0.188,115,162.0
7790,B3,646.888,0.188,115,162.0
7791,E3,646.888,0.188,115,162.0
7792,E3,647.138,0.188,115,162.0
7793,B3,647.138,0.188,115,162.0
7794,E2,647.138,0.188,115,162.0
7795,B1,647.138,0.188,115,162.0
7796,E3,647.138,0.188,115,162.0
7797,B3,647.138,0.188,115,162.0
7798,A5,647.373,3/200,115,162.0
7799,E2,647.373,3/200,115,162.0
7800,E3,647.388,0.375,115,162.0
7801,B3,647.388,0.375,115,162.0
7802,E3,647.388,0.375,115,162.0
7803,B3,647.388,0.375,115,162.0
7804,B1,647.388,0.25,115,162.0
7805,E-3,647.388,0.25,115,162.0
7806,A5,647.388,97/200,115,162.0
7807,E2,647.388,97/200,115,162.0
7808,B5,647.873,0.5,115,162.0
7809,B3,647.888,0.188,115,162.0
7810,E3,647.888,0.188,115,162.0
7811,E2,647.888,0.188,115,162.0
7812,B1,647.888,0.188,115,162.0
7813,B3,647.888,0.188,115,162.0
7814,E3,647.888,0.188,115,162.0
7815,E3,648.138,0.188,115,162.0
7816,B3,648.138,0.188,115,162.0
7817,E2,648.138,0.188,115,162.0
7818,B1,648.138,0.188,115,162.0
7819,E3,648.138,0.188,115,162.0
7820,B3,648.138,0.188,115,162.0
7821,A5,648.373,0.5,115,162.0
7822,E2,648.373,0.5,115,162.0
7823,E3,648.388,0.375,115,162.0
7824,B3,648.388,0.375,115,162.0
7825,E3,648.388,0.375,115,162.0
7826,B3,648.388,0.375,115,162.0
7827,D2,648.388,0.25,115,162.0
7828,E-3,648.388,0.25,115,162.0
7829,G5,648.873,1.0,115,162.0
7830,B3,648.888,0.188,115,162.0
7831,E3,648.888,0.188,115,162.0
7832,E2,648.888,0.188,115,162.0
7833,B1,648.888,0.188,115,162.0
7834,B3,648.888,0.188,115,162.0
7835,E3,648.888,0.188,115,162.0
7836,E3,649.138,0.188,115,162.0
7837,B3,649.138,0.188,115,162.0
7838,E2,649.138,0.188,115,162.0
7839,B1,649.138,0.188,115,162.0
7840,E3,649.138,0.188,115,162.0
7841,B3,649.138,0.188,115,162.0
7842,D3,649.388,0.5,115,162.0
7843,A3,649.388,0.5,115,162.0
7844,D2,649.388,0.5,115,162.0
7845,D3,649.388,0.5,115,162.0
7846,A3,649.388,0.5,115,162.0
7847,E-3,649.388,0.25,115,162.0
7848,B1,649.388,0.25,115,162.0
7849,A3,649.888,0.5,115,162.0
7850,G2,649.888,0.5,115,162.0
7851,A3,649.888,0.5,115,162.0
7852,D3,650.138,0.25,115,162.0
7853,D3,650.138,0.25,115,162.0
7854,D3,650.388,0.5,115,162.0
7855,A3,650.388,0.5,115,162.0
7856,D2,650.388,0.5,115,162.0
7857,D3,650.388,0.5,115,162.0
7858,A3,650.388,0.5,115,162.0
7859,E-3,650.388,0.25,115,162.0
7860,D2,650.388,0.25,115,162.0
7861,C3,650.888,0.5,115,162.0
7862,G3,650.888,0.5,115,162.0
7863,C2,650.888,0.5,115,162.0
7864,C3,650.888,0.5,115,162.0
7865,G3,650.888,0.5,115,162.0
7866,B1,650.888,0.25,115,162.0
7867,C#3,650.888,0.25,115,162.0
7868,C3,651.388,0.5,115,162.0
7869,G3,651.388,0.5,115,162.0
7870,C2,651.388,0.5,115,162.0
7871,C3,651.388,0.5,115,162.0
7872,G3,651.388,0.5,115,162.0
7873,B5,651.881,0.5,115,162.0
7874,C3,651.888,0.188,115,162.0
7875,G3,651.888,0.188,115,162.0
7876,C2,651.888,0.188,115,162.0
7877,B1,651.888,0.188,115,162.0
7878,C3,651.888,0.188,115,162.0
7879,G3,651.888,0.188,115,162.0
7880,C3,652.138,0.188,115,162.0
7881,G3,652.138,0.188,115,162.0
7882,C2,652.138,0.188,115,162.0
7883,B1,652.138,0.188,115,162.0
7884,C3,652.138,0.188,115,162.0
7885,G3,652.138,0.188,115,162.0
7886,B5,652.381,479/1000,115,162.0
7887,C2,652.381,479/1000,115,162.0
7888,C3,652.388,0.375,115,162.0
7889,G3,652.388,0.375,115,162.0
7890,C3,652.388,0.375,115,162.0
7891,G3,652.388,0.375,115,162.0
7892,D2,652.388,0.25,115,162.0
7893,E-3,652.388,0.25,115,162.0
7894,C2,652.873,0.188,115,162.0
7895,G3,652.873,0.188,115,162.0
7896,C3,652.873,0.188,115,162.0
7897,G3,652.873,0.188,115,162.0
7898,C3,652.873,0.188,115,162.0
7899,B5,652.881,0.5,115,162.0
7900,B1,652.888,0.125,115,162.0
7901,C3,653.138,0.188,115,162.0
7902,G3,653.138,0.188,115,162.0
7903,C2,653.138,0.188,115,162.0
7904,B1,653.138,0.188,115,162.0
7905,C3,653.138,0.188,115,162.0
7906,G3,653.138,0.188,115,162.0
7907,B5,653.381,0.5,115,162.0
7908,C2,653.381,0.5,115,162.0
7909,C3,653.388,0.375,115,162.0
7910,G3,653.388,0.375,115,162.0
7911,C3,653.388,0.375,115,162.0
7912,G3,653.388,0.375,115,162.0
7913,E-3,653.388,0.25,115,162.0
7914,B1,653.388,0.25,115,162.0
7915,A5,653.881,0.5,115,162.0
7916,G3,653.888,0.188,115,162.0
7917,C3,653.888,0.188,115,162.0
7918,C2,653.888,0.188,115,162.0
7919,B1,653.888,0.188,115,162.0
7920,G3,653.888,0.188,115,162.0
7921,C3,653.888,0.188,115,162.0
7922,C3,654.138,0.188,115,162.0
7923,G3,654.138,0.188,115,162.0
7924,C2,654.138,0.188,115,162.0
7925,B1,654.138,0.188,115,162.0
7926,C3,654.138,0.188,115,162.0
7927,G3,654.138,0.188,115,162.0
7928,A5,654.381,0.5,115,162.0
7929,C2,654.381,0.5,115,162.0
7930,C3,654.388,0.375,115,162.0
7931,G3,654.388,0.375,115,162.0
7932,C3,654.388,0.375,115,162.0
7933,G3,654.388,0.375,115,162.0
7934,E-3,654.388,0.25,115,162.0
7935,D2,654.388,0.25,115,162.0
7936,G5,654.888,0.5,115,162.0
7937,G3,654.888,0.188,115,162.0
7938,C3,654.888,0.188,115,162.0
7939,C2,654.888,0.188,115,162.0
7940,B1,654.888,0.188,115,162.0
7941,G3,654.888,0.188,115,162.0
7942,C3,654.888,0.188,115,162.0
7943,C3,655.138,0.188,115,162.0
7944,G3,655.138,0.188,115,162.0
7945,C2,655.138,0.188,115,162.0
7946,B1,655.138,0.188,115,162.0
7947,C3,655.138,0.188,115,162.0
7948,G3,655.138,0.188,115,162.0
7949,A5,655.367,21/1000,115,162.0
7950,C2,655.367,21/1000,115,162.0
7951,C3,655.388,0.375,115,162.0
7952,G3,655.388,0.375,115,162.0
7953,C3,655.388,0.375,115,162.0
7954,G3,655.388,0.375,115,162.0
7955,B1,655.388,0.25,115,162.0
7956,E-3,655.388,0.25,115,162.0
7957,A5,655.388,479/1000,115,162.0
7958,C2,655.388,479/1000,115,162.0
7959,G5,655.867,64/125,115,162.0
7960,G3,655.888,0.188,115,162.0
7961,C3,655.888,0.188,115,162.0
7962,C2,655.888,0.188,115,162.0
7963,B1,655.888,0.188,115,162.0
7964,G3,655.888,0.188,115,162.0
7965,C3,655.888,0.188,115,162.0
7966,C3,656.138,0.188,115,162.0
7967,G3,656.138,0.188,115,162.0
7968,C2,656.138,0.188,115,162.0
7969,B1,656.138,0.188,115,162.0
7970,C3,656.138,0.188,115,162.0
7971,G3,656.138,0.188,115,162.0
7972,B5,656.367,1.0,115,162.0
7973,C2,656.388,0.5,115,162.0
7974,C3,656.388,0.375,115,162.0
7975,G3,656.388,0.375,115,162.0
7976,C3,656.388,0.375,115,162.0
7977,G3,656.388,0.375,115,162.0
7978,D2,656.388,0.25,115,162.0
7979,E-3,656.388,0.25,115,162.0
7980,G3,656.888,0.188,115,162.0
7981,C3,656.888,0.188,115,162.0
7982,C2,656.888,0.188,115,162.0
7983,B1,656.888,0.188,115,162.0
7984,G3,656.888,0.188,115,162.0
7985,C3,656.888,0.188,115,162.0
7986,C3,657.138,0.188,115,162.0
7987,G3,657.138,0.188,115,162.0
7988,C2,657.138,0.188,115,162.0
7989,B1,657.138,0.188,115,162.0
7990,C3,657.138,0.188,115,162.0
7991,G3,657.138,0.188,115,162.0
7992,D3,657.388,0.5,115,162.0
7993,A3,657.388,0.5,115,162.0
7994,D2,657.388,0.5,115,162.0
7995,D3,657.388,0.5,115,162.0
7996,A3,657.388,0.5,115,162.0
7997,E-3,657.388,0.25,115,162.0
7998,B1,657.388,0.25,115,162.0
7999,A3,657.888,0.5,115,162.0
8000,G2,657.888,0.5,115,162.0
8001,A3,657.888,0.5,115,162.0
8002,D3,658.138,0.25,115,162.0
8003,D3,658.138,0.25,115,162.0
8004,D3,658.388,0.5,115,162.0
8005,A3,658.388,0.5,115,162.0
8006,D2,658.388,0.5,115,162.0
8007,D3,658.388,0.5,115,162.0
8008,A3,658.388,0.5,115,162.0
8009,E-3,658.388,0.25,115,162.0
8010,D2,658.388,0.25,115,162.0
8011,B3,658.888,0.5,115,162.0
8012,E3,658.888,0.5,115,162.0
8013,E2,658.888,0.5,115,162.0
8014,B3,658.888,0.5,115,162.0
8015,E3,658.888,0.5,115,162.0
8016,B1,658.888,0.25,115,162.0
8017,C#3,658.888,0.25,115,162.0
8018,B3,659.388,0.5,115,162.0
8019,E3,659.388,0.5,115,162.0
8020,E2,659.388,0.5,115,162.0
8021,B3,659.388,0.5,115,162.0
8022,E3,659.388,0.5,115,162.0
8023,B5,659.881,0.5,115,162.0
8024,E3,659.888,0.188,115,162.0
8025,B3,659.888,0.188,115,162.0
8026,E2,659.888,0.188,115,162.0
8027,B1,659.888,0.188,115,162.0
8028,E3,659.888,0.188,115,162.0
8029,B3,659.888,0.188,115,162.0
8030,E3,660.138,0.188,115,162.0
8031,B3,660.138,0.188,115,162.0
8032,E2,660.138,0.188,115,162.0
8033,B1,660.138,0.188,115,162.0
8034,E3,660.138,0.188,115,162.0
8035,B3,660.138,0.188,115,162.0
8036,B5,660.381,479/1000,115,162.0
8037,E2,660.381,479/1000,115,162.0
8038,E3,660.388,0.375,115,162.0
8039,B3,660.388,0.375,115,162.0
8040,E3,660.388,0.375,115,162.0
8041,B3,660.388,0.375,115,162.0
8042,D2,660.388,0.25,115,162.0
8043,E-3,660.388,0.25,115,162.0
8044,E2,660.873,0.188,115,162.0
8045,B3,660.873,0.188,115,162.0
8046,E3,660.873,0.188,115,162.0
8047,B3,660.873,0.188,115,162.0
8048,E3,660.873,0.188,115,162.0
8049,B5,660.881,0.5,115,162.0
8050,B1,660.888,0.125,115,162.0
8051,E3,661.138,0.188,115,162.0
8052,B3,661.138,0.188,115,162.0
8053,E2,661.138,0.188,115,162.0
8054,B1,661.138,0.188,115,162.0
8055,E3,661.138,0.188,115,162.0
8056,B3,661.138,0.188,115,162.0
8057,B5,661.381,0.5,115,162.0
8058,E2,661.381,0.5,115,162.0
8059,E3,661.388,0.375,115,162.0
8060,B3,661.388,0.375,115,162.0
8061,E3,661.388,0.375,115,162.0
8062,B3,661.388,0.375,115,162.0
8063,E-3,661.388,0.25,115,162.0
8064,B1,661.388,0.25,115,162.0
8065,A5,661.888,0.5,115,162.0
8066,B3,661.888,0.188,115,162.0
8067,E3,661.888,0.188,115,162.0
8068,E2,661.888,0.188,115,162.0
8069,B1,661.888,0.188,115,162.0
8070,B3,661.888,0.188,115,162.0
8071,E3,661.888,0.188,115,162.0
8072,E3,662.138,0.188,115,162.0
8073,B3,662.138,0.188,115,162.0
8074,E2,662.138,0.188,115,162.0
8075,B1,662.138,0.188,115,162.0
8076,E3,662.138,0.188,115,162.0
8077,B3,662.138,0.188,115,162.0
8078,E3,662.388,0.375,115,162.0
8079,B3,662.388,0.375,115,162.0
8080,E3,662.388,0.375,115,162.0
8081,B3,662.388,0.375,115,162.0
8082,E2,662.388,0.5,115,162.0
8083,A5,662.388,0.5,115,162.0
8084,E-3,662.388,0.25,115,162.0
8085,D2,662.388,0.25,115,162.0
8086,G5,662.888,0.5,115,162.0
8087,B3,662.888,0.188,115,162.0
8088,E3,662.888,0.188,115,162.0
8089,E2,662.888,0.188,115,162.0
8090,B1,662.888,0.188,115,162.0
8091,B3,662.888,0.188,115,162.0
8092,E3,662.888,0.188,115,162.0
8093,E3,663.138,0.188,115,162.0
8094,B3,663.138,0.188,115,162.0
8095,E2,663.138,0.188,115,162.0
8096,B1,663.138,0.188,115,162.0
8097,E3,663.138,0.188,115,162.0
8098,B3,663.138,0.188,115,162.0
8099,A5,663.367,21/1000,115,162.0
8100,E2,663.367,21/1000,115,162.0
8101,B2,663.388,0.25,115,162.0
8102,E3,663.388,0.375,115,162.0
8103,B3,663.388,0.375,115,162.0
8104,E3,663.388,0.375,115,162.0
8105,B3,663.388,0.375,115,162.0
8106,A5,663.388,479/1000,115,162.0
8107,E2,663.388,479/1000,115,162.0
8108,B2,663.638,0.25,115,162.0
8109,G5,663.867,64/125,115,162.0
8110,B3,663.888,0.188,115,162.0
8111,E3,663.888,0.188,115,162.0
8112,E2,663.888,0.188,115,162.0
8113,B2,663.888,0.188,115,162.0
8114,B3,663.888,0.188,115,162.0
8115,E3,663.888,0.188,115,162.0
8116,E3,664.138,0.188,115,162.0
8117,B3,664.138,0.188,115,162.0
8118,E2,664.138,0.188,115,162.0
8119,E3,664.138,0.188,115,162.0
8120,B3,664.138,0.188,115,162.0
8121,E2,664.388,0.5,115,162.0
8122,D2,664.388,0.25,115,162.0
8123,B5,664.388,1.0,115,162.0
8124,E3,664.388,0.375,115,162.0
8125,B3,664.388,0.375,115,162.0
8126,E3,664.388,0.375,115,162.0
8127,B3,664.388,0.375,115,162.0
8128,B3,664.888,0.188,115,162.0
8129,E3,664.888,0.188,115,162.0
8130,E2,664.888,0.188,115,162.0
8131,B2,664.888,0.188,115,162.0
8132,B3,664.888,0.188,115,162.0
8133,E3,664.888,0.188,115,162.0
8134,E3,665.138,0.188,115,162.0
8135,B3,665.138,0.188,115,162.0
8136,E2,665.138,0.188,115,162.0
8137,B2,665.138,0.188,115,162.0
8138,E3,665.138,0.188,115,162.0
8139,B3,665.138,0.188,115,162.0
8140,D2,665.388,0.25,115,162.0
8141,A3,665.388,0.5,115,162.0
8142,D3,665.388,0.5,115,162.0
8143,D2,665.388,0.5,115,162.0
8144,A3,665.388,0.5,115,162.0
8145,D3,665.388,0.5,115,162.0
8146,A2,665.888,0.25,115,162.0
8147,A3,665.888,0.5,115,162.0
8148,G2,665.888,0.5,115,162.0
8149,A3,665.888,0.5,115,162.0
8150,D3,666.138,0.25,115,162.0
8151,D3,666.138,0.25,115,162.0
8152,A2,666.388,0.25,115,162.0
8153,D3,666.388,0.5,115,162.0
8154,A3,666.388,0.5,115,162.0
8155,D2,666.388,0.5,115,162.0
8156,D3,666.388,0.5,115,162.0
8157,A3,666.388,0.5,115,162.0
8158,E2,666.888,0.5,115,162.0
8159,A3,666.888,0.5,115,162.0
8160,D3,666.888,0.5,115,162.0
8161,D4,666.888,0.5,115,162.0
8162,A2,666.888,0.5,115,162.0
8163,D3,666.888,0.5,115,162.0
8164,A3,666.888,0.5,115,162.0
8165,D4,666.888,0.5,115,162.0
8166,F#4,666.888,0.5,115,162.0
8167,B1,666.888,0.25,115,162.0
8168,C#3,666.888,0.25,115,162.0
8169,B5,666.888,0.5,115,162.0
8170,E5,666.888,0.5,115,162.0
8171,B4,666.888,0.5,115,162.0
8172,E5,666.888,0.5,115,162.0
8173,B4,666.888,0.5,115,162.0
8174,E2,667.388,0.5,115,162.0
8175,A3,667.388,4.5,115,162.0
8176,D3,667.388,4.5,115,162.0
8177,D4,667.388,4.5,115,162.0
8178,A2,667.388,7.5,115,162.0
8179,D3,667.388,7.5,115,162.0
8180,A3,667.388,7.5,115,162.0
8181,D4,667.388,7.5,115,162.0
8182,F#4,667.388,7.5,115,162.0
8183,B5,667.388,203/200,115,162.0
8184,E5,667.388,203/200,115,162.0
8185,B4,667.388,203/200,115,162.0
8186,E5,667.388,203/200,115,162.0
8187,B4,667.388,203/200,115,162.0
8188,D2,667.888,0.25,115,162.0
8189,B1,667.888,0.125,115,162.0
8190,D2,668.138,0.25,115,162.0
8191,B1,668.138,0.125,115,162.0
8192,D2,668.388,479/1000,115,162.0
8193,E-3,668.388,0.25,115,162.0
8194,D2,668.388,0.25,115,162.0
8195,A5,668.388,1.0,115,162.0
8196,D5,668.388,1.0,115,162.0
8197,A4,668.388,1.0,115,162.0
8198,D5,668.388,1.0,115,162.0
8199,A4,668.388,1.0,115,162.0
8200,D2,668.873,0.25,115,162.0
8201,B1,668.888,0.125,115,162.0
8202,D2,669.138,0.25,115,162.0
8203,B1,669.138,0.125,115,162.0
8204,D2,669.388,0.5,115,162.0
8205,E-3,669.388,0.25,115,162.0
8206,B1,669.388,0.25,115,162.0
8207,G5,669.388,1.0,115,162.0
8208,C5,669.388,1.0,115,162.0
8209,G4,669.388,1.0,115,162.0
8210,C5,669.388,1.0,115,162.0
8211,G4,669.388,1.0,115,162.0
8212,D2,669.888,0.25,115,162.0
8213,B1,669.888,0.125,115,162.0
8214,D2,670.138,0.25,115,162.0
8215,B1,670.138,0.125,115,162.0
8216,D2,670.388,0.5,115,162.0
8217,E-3,670.388,0.25,115,162.0
8218,D2,670.388,0.25,115,162.0
8219,F#5,670.388,1.0,115,162.0
8220,B4,670.388,1.0,115,162.0
8221,F#4,670.388,1.0,115,162.0
8222,B4,670.388,1.0,115,162.0
8223,F#4,670.388,1.0,115,162.0
8224,D2,670.888,0.25,115,162.0
8225,B1,670.888,0.125,115,162.0
8226,D2,671.138,0.25,115,162.0
8227,B1,671.138,0.125,115,162.0
8228,D2,674.888,0.5,115,162.0
8229,B1,674.888,0.25,115,162.0
8230,E-3,674.888,0.25,115,162.0
8231,G5,674.888,1.0,115,162.0
8232,C5,674.888,1.0,115,162.0
8233,G4,674.888,1.0,115,162.0
8234,C5,674.888,1.0,115,162.0
8235,G4,674.888,1.0,115,162.0
8236,D2,675.388,0.25,115,162.0
8237,B1,675.388,0.125,115,162.0
8238,D4,675.388,1.0,115,162.0
8239,A3,675.388,1.0,115,162.0
8240,D3,675.388,1.0,115,162.0
8241,D2,675.638,0.25,115,162.0
8242,B1,675.638,0.125,115,162.0
8243,D2,675.888,0.5,115,162.0
8244,E-3,675.888,0.25,115,162.0
8245,D2,675.888,0.25,115,162.0
8246,F#5,675.888,1.0,115,162.0
8247,B4,675.888,1.0,115,162.0
8248,F#4,675.888,1.0,115,162.0
8249,B4,675.888,1.0,115,162.0
8250,F#4,675.888,1.0,115,162.0
8251,D2,676.388,0.25,115,162.0
8252,B1,676.388,0.125,115,162.0
8253,D4,676.388,1.0,115,162.0
8254,A3,676.388,1.0,115,162.0
8255,D3,676.388,1.0,115,162.0
8256,D2,676.638,0.25,115,162.0
8257,B1,676.638,0.125,115,162.0
8258,D2,676.888,0.5,115,162.0
8259,E-3,676.888,0.25,115,162.0
8260,B1,676.888,0.25,115,162.0
8261,E5,676.888,1.0,115,162.0
8262,A4,676.888,1.0,115,162.0
8263,E4,676.888,1.0,115,162.0
8264,A4,676.888,1.0,115,162.0
8265,E4,676.888,1.0,115,162.0
8266,D2,677.388,0.25,115,162.0
8267,D4,677.388,1.0,115,162.0
8268,A3,677.388,1.0,115,162.0
8269,D3,677.388,1.0,115,162.0
8270,D2,677.638,0.25,115,162.0
8271,D2,677.888,0.5,115,162.0
8272,D5,677.888,0.5,115,162.0
8273,G4,677.888,0.5,115,162.0
8274,D4,677.888,0.5,115,162.0
8275,G4,677.888,0.5,115,162.0
8276,D4,677.888,0.5,115,162.0
8277,E-3,677.888,0.25,115,162.0
8278,D2,677.888,0.25,115,162.0
8279,E2,678.388,0.5,115,162.0
8280,E3,678.388,0.5,115,162.0
8281,B3,678.388,0.5,115,162.0
8282,E4,678.388,0.5,115,162.0
8283,E2,678.388,0.5,115,162.0
8284,E4,678.388,0.5,115,162.0
8285,B3,678.388,0.5,115,162.0
8286,E3,678.388,0.5,115,162.0
8287,B1,678.388,0.25,115,162.0
8288,C#3,678.388,0.25,115,162.0
8289,E5,678.388,0.5,115,162.0
8290,A4,678.388,0.5,115,162.0
8291,E4,678.388,0.5,115,162.0
8292,A4,678.388,0.5,115,162.0
8293,E4,678.388,0.5,115,162.0
8294,E2,686.388,0.5,115,162.0
8295,E3,686.388,7.5,115,162.0
8296,B3,686.388,7.5,115,162.0
8297,E4,686.388,7.5,115,162.0
8298,E2,686.388,7.5,115,162.0
8299,E4,686.388,7.5,115,162.0
8300,B3,686.388,7.5,115,162.0
8301,E3,686.388,7.5,115,162.0
8302,E5,686.388,3.5,115,162.0
8303,A4,686.388,3.5,115,162.0
8304,E4,686.388,3.5,115,162.0
8305,A4,686.388,3.5,115,162.0
8306,E4,686.388,3.5,115,162.0
8307,E2,686.888,0.25,115,162.0
8308,B1,686.888,0.125,115,162.0
8309,E2,687.138,0.25,115,162.0
8310,B1,687.138,0.125,115,162.0
8311,E2,687.388,479/1000,115,162.0
8312,E-3,687.388,0.25,115,162.0
8313,D2,687.388,0.25,115,162.0
8314,E2,687.873,0.25,115,162.0
8315,B1,687.888,0.125,115,162.0
8316,E2,688.138,0.25,115,162.0
8317,B1,688.138,0.125,115,162.0
8318,E2,688.388,0.5,115,162.0
8319,E-3,688.388,0.25,115,162.0
8320,B1,688.388,0.25,115,162.0
8321,E2,688.888,0.25,115,162.0
8322,B1,688.888,0.25,115,162.0
8323,E2,689.138,0.25,115,162.0
8324,B1,689.138,0.25,115,162.0
8325,E2,689.388,0.5,115,162.0
8326,E-3,689.388,0.25,115,162.0
8327,D2,689.388,0.25,115,162.0
8328,E2,689.888,0.25,115,162.0
8329,B1,689.888,0.25,115,162.0
8330,E2,690.138,0.25,115,162.0
8331,E2,693.888,0.5,115,162.0
8332,D3,693.888,0.25,115,162.0
8333,D3,694.138,0.25,115,162.0
8334,E2,694.388,0.25,115,162.0
8335,D3,694.388,0.25,115,162.0
8336,E2,694.638,0.25,115,162.0
8337,D3,694.638,0.25,115,162.0
8338,E2,694.888,0.5,115,162.0
8339,C3,694.888,0.25,115,162.0
8340,C3,695.138,0.25,115,162.0
8341,E2,695.388,0.25,115,162.0
8342,C3,695.388,0.25,115,162.0
8343,E2,695.638,0.25,115,162.0
8344,C3,695.638,0.25,115,162.0
8345,E2,695.888,0.5,115,162.0
8346,B2,695.888,0.25,115,162.0
8347,B2,696.138,0.25,115,162.0
8348,E2,696.388,0.25,115,162.0
8349,B2,696.388,0.25,115,162.0
8350,E2,696.638,0.25,115,162.0
8351,B2,696.638,0.25,115,162.0
8352,E2,696.888,0.5,115,162.0
8353,A2,696.888,0.25,115,162.0
8354,D2,697.388,0.5,115,162.0
8355,D4,697.388,0.5,115,162.0
8356,D3,697.388,0.5,115,162.0
8357,A3,697.388,0.5,115,162.0
8358,F#4,697.388,0.5,115,162.0
8359,D4,697.388,0.5,115,162.0
8360,A3,697.388,0.5,115,162.0
8361,D3,697.388,0.5,115,162.0
8362,A2,697.388,0.5,115,162.0
8363,B1,697.388,0.25,115,162.0
8364,C#3,697.388,0.25,115,162.0
8365,B5,697.388,0.5,115,162.0
8366,E5,697.388,0.5,115,162.0
8367,B4,697.388,0.5,115,162.0
8368,E5,697.388,0.5,115,162.0
8369,B4,697.388,0.5,115,162.0
8370,D2,702.388,0.5,115,162.0
8371,D4,702.388,4.5,115,162.0
8372,D3,702.388,4.5,115,162.0
8373,A3,702.388,4.5,115,162.0
8374,F#4,702.388,7.5,115,162.0
8375,D4,702.388,7.5,115,162.0
8376,A3,702.388,7.5,115,162.0
8377,D3,702.388,7.5,115,162.0
8378,A2,702.388,7.5,115,162.0
8379,B5,702.388,203/200,115,162.0
8380,E5,702.388,203/200,115,162.0
8381,B4,702.388,203/200,115,162.0
8382,E5,702.388,203/200,115,162.0
8383,B4,702.388,203/200,115,162.0
8384,D2,702.888,0.25,115,162.0
8385,B1,702.888,0.125,115,162.0
8386,D2,703.138,0.25,115,162.0
8387,B1,703.138,0.125,115,162.0
8388,D2,703.388,479/1000,115,162.0
8389,E-3,703.388,0.25,115,162.0
8390,D2,703.388,0.25,115,162.0
8391,A5,703.388,1.0,115,162.0
8392,D5,703.388,1.0,115,162.0
8393,A4,703.388,1.0,115,162.0
8394,D5,703.388,1.0,115,162.0
8395,A4,703.388,1.0,115,162.0
8396,D2,703.873,0.25,115,162.0
8397,B1,703.888,0.125,115,162.0
8398,D2,704.138,0.25,115,162.0
8399,B1,704.138,0.125,115,162.0
8400,D2,704.388,0.5,115,162.0
8401,E-3,704.388,0.25,115,162.0
8402,B1,704.388,0.25,115,162.0
8403,G5,704.388,1.0,115,162.0
8404,C5,704.388,1.0,115,162.0
8405,G4,704.388,1.0,115,162.0
8406,C5,704.388,1.0,115,162.0
8407,G4,704.388,1.0,115,162.0
8408,D2,704.888,0.25,115,162.0
8409,B1,704.888,0.125,115,162.0
8410,D2,705.138,0.25,115,162.0
8411,B1,705.138,0.125,115,162.0
8412,D2,705.388,0.5,115,162.0
8413,E-3,705.388,0.25,115,162.0
8414,D2,705.388,0.25,115,162.0
8415,F#5,705.388,1.0,115,162.0
8416,B4,705.388,1.0,115,162.0
8417,F#4,705.388,1.0,115,162.0
8418,B4,705.388,1.0,115,162.0
8419,F#4,705.388,1.0,115,162.0
8420,D2,705.888,0.25,115,162.0
8421,B1,705.888,0.125,115,162.0
8422,D2,706.138,0.25,115,162.0
8423,B1,706.138,0.125,115,162.0
8424,D2,709.888,0.5,115,162.0
8425,B1,709.888,0.25,115,162.0
8426,E-3,709.888,0.25,115,162.0
8427,G5,709.888,1.0,115,162.0
8428,C5,709.888,1.0,115,162.0
8429,G4,709.888,1.0,115,162.0
8430,C5,709.888,1.0,115,162.0
8431,G4,709.888,1.0,115,162.0
8432,D2,710.388,0.25,115,162.0
8433,B1,710.388,0.125,115,162.0
8434,D4,710.388,1.0,115,162.0
8435,A3,710.388,1.0,115,162.0
8436,D3,710.388,1.0,115,162.0
8437,D2,710.638,0.25,115,162.0
8438,B1,710.638,0.125,115,162.0
8439,D2,710.888,0.5,115,162.0
8440,E-3,710.888,0.25,115,162.0
8441,D2,710.888,0.25,115,162.0
8442,F#5,710.888,1.0,115,162.0
8443,B4,710.888,1.0,115,162.0
8444,F#4,710.888,1.0,115,162.0
8445,B4,710.888,1.0,115,162.0
8446,F#4,710.888,1.0,115,162.0
8447,D2,711.388,0.25,115,162.0
8448,B1,711.388,0.125,115,162.0
8449,D4,711.388,1.0,115,162.0
8450,A3,711.388,1.0,115,162.0
8451,D3,711.388,1.0,115,162.0
8452,D2,711.638,0.25,115,162.0
8453,B1,711.638,0.125,115,162.0
8454,D2,711.888,0.5,115,162.0
8455,E-3,711.888,0.25,115,162.0
8456,B1,711.888,0.25,115,162.0
8457,G5,711.888,1.0,115,162.0
8458,C5,711.888,1.0,115,162.0
8459,G4,711.888,1.0,115,162.0
8460,C5,711.888,1.0,115,162.0
8461,G4,711.888,1.0,115,162.0
8462,D2,712.388,0.25,115,162.0
8463,D4,712.388,1.0,115,162.0
8464,A3,712.388,1.0,115,162.0
8465,D3,712.388,1.0,115,162.0
8466,D2,712.638,0.25,115,162.0
8467,D2,712.888,0.5,115,162.0
8468,B5,712.888,0.5,115,162.0
8469,E5,712.888,0.5,115,162.0
8470,B4,712.888,0.5,115,162.0
8471,E5,712.888,0.5,115,162.0
8472,B4,712.888,0.5,115,162.0
8473,E-3,712.888,0.25,115,162.0
8474,D2,712.888,0.25,115,162.0
8475,E4,713.388,0.5,115,162.0
8476,E3,713.388,0.5,115,162.0
8477,B3,713.388,0.5,115,162.0
8478,E2,713.388,0.5,115,162.0
8479,B3,713.388,0.5,115,162.0
8480,E3,713.388,0.5,115,162.0
8481,E4,713.388,0.5,115,162.0
8482,B1,713.388,0.25,115,162.0
8483,C#3,713.388,0.25,115,162.0
8484,G5,713.388,0.5,115,162.0
8485,C5,713.388,0.5,115,162.0
8486,G4,713.388,0.5,115,162.0
8487,C5,713.388,0.5,115,162.0
8488,G4,713.388,0.5,115,162.0
8489,E4,714.388,0.5,115,162.0
8490,E3,714.388,0.5,115,162.0
8491,B3,714.388,0.5,115,162.0
8492,E2,714.388,0.5,115,162.0
8493,B3,714.388,0.5,115,162.0
8494,E3,714.388,0.5,115,162.0
8495,E4,714.388,0.5,115,162.0
8496,G5,714.388,3.5,115,162.0
8497,C5,714.388,3.5,115,162.0
8498,G4,714.388,3.5,115,162.0
8499,C5,714.388,3.5,115,162.0
8500,G4,714.388,3.5,115,162.0
8501,B3,714.888,0.188,115,162.0
8502,E3,714.888,0.188,115,162.0
8503,E2,714.888,0.188,115,162.0
8504,B1,714.888,0.188,115,162.0
8505,B3,714.888,0.188,115,162.0
8506,E3,714.888,0.188,115,162.0
8507,E3,715.123,0.188,115,162.0
8508,B3,715.123,0.188,115,162.0
8509,B1,715.123,0.188,115,162.0
8510,E3,715.123,0.188,115,162.0
8511,B3,715.123,0.188,115,162.0
8512,E2,715.138,0.188,115,162.0
8513,E3,715.138,0.188,115,162.0
8514,B3,715.138,0.188,115,162.0
8515,E3,715.373,0.375,115,162.0
8516,B3,715.373,0.375,115,162.0
8517,E3,715.373,0.375,115,162.0
8518,B3,715.373,0.375,115,162.0
8519,E2,715.388,479/1000,115,162.0
8520,E-3,715.388,0.25,115,162.0
8521,D2,715.388,0.25,115,162.0
8522,B3,715.873,0.188,115,162.0
8523,E3,715.873,0.188,115,162.0
8524,E2,715.873,0.188,115,162.0
8525,B1,715.873,0.188,115,162.0
8526,B3,715.873,0.188,115,162.0
8527,E3,715.873,0.188,115,162.0
8528,E3,716.123,0.188,115,162.0
8529,B3,716.123,0.188,115,162.0
8530,B1,716.123,0.188,115,162.0
8531,E3,716.123,0.188,115,162.0
8532,B3,716.123,0.188,115,162.0
8533,E2,716.138,0.188,115,162.0
8534,E3,716.138,0.188,115,162.0
8535,B3,716.138,0.188,115,162.0
8536,E3,716.373,0.375,115,162.0
8537,B3,716.373,0.375,115,162.0
8538,E3,716.373,0.375,115,162.0
8539,B3,716.373,0.375,115,162.0
8540,E2,716.388,0.5,115,162.0
8541,E-3,716.388,0.25,115,162.0
8542,B1,716.388,0.25,115,162.0
8543,B3,716.873,0.188,115,162.0
8544,E3,716.873,0.188,115,162.0
8545,B3,716.873,0.188,115,162.0
8546,E3,716.873,0.188,115,162.0
8547,E2,716.888,0.188,115,162.0
8548,B1,716.888,0.188,115,162.0
8549,B3,716.888,0.188,115,162.0
8550,E3,716.888,0.188,115,162.0
8551,E3,717.123,0.188,115,162.0
8552,B3,717.123,0.188,115,162.0
8553,E3,717.123,0.188,115,162.0
8554,B3,717.123,0.188,115,162.0
8555,E2,717.138,0.188,115,162.0
8556,B1,717.138,0.188,115,162.0
8557,E3,717.138,0.188,115,162.0
8558,B3,717.138,0.188,115,162.0
8559,E3,717.373,0.375,115,162.0
8560,B3,717.373,0.375,115,162.0
8561,E3,717.373,0.375,115,162.0
8562,B3,717.373,0.375,115,162.0
8563,E2,717.388,0.5,115,162.0
8564,E-3,717.388,0.25,115,162.0
8565,D2,717.388,0.25,115,162.0
8566,B3,717.873,0.188,115,162.0
8567,E3,717.873,0.188,115,162.0
8568,B3,717.873,0.188,115,162.0
8569,E3,717.873,0.188,115,162.0
8570,E2,717.888,0.188,115,162.0
8571,B1,717.888,0.188,115,162.0
8572,B3,717.888,0.188,115,162.0
8573,E3,717.888,0.188,115,162.0
8574,E3,718.123,0.188,115,162.0
8575,B3,718.123,0.188,115,162.0
8576,E3,718.123,0.188,115,162.0
8577,B3,718.123,0.188,115,162.0
8578,E2,718.138,0.188,115,162.0
8579,E3,718.138,0.188,115,162.0
8580,B3,718.138,0.188,115,162.0
8581,E-3,718.388,0.125,115,162.0
8582,B3,718.388,0.375,115,162.0
8583,E3,718.388,0.375,115,162.0
8584,E2,718.388,0.375,115,162.0
8585,B3,718.388,0.375,115,162.0
8586,E3,718.388,0.375,115,162.0
8587,E3,718.888,0.188,115,162.0
8588,B3,718.888,0.188,115,162.0
8589,E2,718.888,0.188,115,162.0
8590,B1,718.888,0.188,115,162.0
8591,E3,718.888,0.188,115,162.0
8592,B3,718.888,0.188,115,162.0
8593,E3,719.123,0.188,115,162.0
8594,B3,719.123,0.188,115,162.0
8595,B1,719.123,0.188,115,162.0
8596,E3,719.123,0.188,115,162.0
8597,B3,719.123,0.188,115,162.0
8598,E2,719.138,0.188,115,162.0
8599,E3,719.138,0.188,115,162.0
8600,B3,719.138,0.188,115,162.0
8601,E3,719.373,0.375,115,162.0
8602,B3,719.373,0.375,115,162.0
8603,E3,719.373,0.375,115,162.0
8604,B3,719.373,0.375,115,162.0
8605,E2,719.388,479/1000,115,162.0
8606,D2,719.388,0.125,115,162.0
8607,E-3,719.388,0.125,115,162.0
8608,B3,719.873,0.188,115,162.0
8609,E3,719.873,0.188,115,162.0
8610,E2,719.873,0.188,115,162.0
8611,B1,719.873,0.188,115,162.0
8612,B3,719.873,0.188,115,162.0
8613,E3,719.873,0.188,115,162.0
8614,E3,720.123,0.188,115,162.0
8615,B3,720.123,0.188,115,162.0
8616,B1,720.123,0.188,115,162.0
8617,E3,720.123,0.188,115,162.0
8618,B3,720.123,0.188,115,162.0
8619,E2,720.138,0.188,115,162.0
8620,E3,720.138,0.188,115,162.0
8621,B3,720.138,0.188,115,162.0
8622,D2,720.388,0.125,115,162.0
8623,D3,720.388,0.5,115,162.0
8624,A3,720.388,0.5,115,162.0
8625,D2,720.388,0.5,115,162.0
8626,A3,720.388,0.5,115,162.0
8627,D3,720.388,0.5,115,162.0
8628,D2,720.638,0.125,115,162.0
8629,D2,720.888,0.125,115,162.0
8630,A3,720.888,0.5,115,162.0
8631,G2,720.888,0.5,115,162.0
8632,A3,720.888,0.5,115,162.0
8633,B2,721.138,0.125,115,162.0
8634,D3,721.138,0.25,115,162.0
8635,D3,721.138,0.25,115,162.0
8636,B2,721.388,0.125,115,162.0
8637,D3,721.388,0.5,115,162.0
8638,A3,721.388,0.5,115,162.0
8639,D2,721.388,0.5,115,162.0
8640,D3,721.388,0.5,115,162.0
8641,A3,721.388,0.5,115,162.0
8642,D2,721.888,0.5,115,162.0
8643,E4,721.888,0.5,115,162.0
8644,E3,721.888,0.5,115,162.0
8645,E4,721.888,0.5,115,162.0
8646,E4,722.388,0.5,115,162.0
8647,E3,722.388,0.5,115,162.0
8648,E4,722.388,0.5,115,162.0
8649,E4,722.888,0.5,115,162.0
8650,E3,722.888,0.5,115,162.0
8651,E4,722.888,0.5,115,162.0
8652,E4,723.388,0.25,115,162.0
8653,E3,723.388,0.25,115,162.0
8654,E4,723.388,0.25,115,162.0
8655,D4,723.638,0.25,115,162.0
8656,D3,723.638,0.25,115,162.0
8657,D4,723.638,0.25,115,162.0
8658,B3,723.888,0.5,115,162.0
8659,B2,723.888,0.5,115,162.0
8660,B3,723.888,0.5,115,162.0
8661,D4,724.388,0.5,115,162.0
8662,D3,724.388,0.5,115,162.0
8663,D4,724.388,0.5,115,162.0
8664,D4,724.888,0.5,115,162.0
8665,D3,724.888,0.5,115,162.0
8666,D4,724.888,0.5,115,162.0
8667,D4,725.388,0.25,115,162.0
8668,D3,725.388,0.25,115,162.0
8669,D4,725.388,0.25,115,162.0
8670,C4,725.638,0.25,115,162.0
8671,C3,725.638,0.25,115,162.0
8672,C4,725.638,0.25,115,162.0
8673,A3,725.888,0.5,115,162.0
8674,A2,725.888,0.5,115,162.0
8675,A3,725.888,0.5,115,162.0
8676,C4,726.388,0.5,115,162.0
8677,C3,726.388,0.5,115,162.0
8678,C4,726.388,0.5,115,162.0
8679,C4,726.888,0.5,115,162.0
8680,C3,726.888,0.5,115,162.0
8681,C4,726.888,0.5,115,162.0
8682,C4,727.388,0.25,115,162.0
8683,C3,727.388,0.25,115,162.0
8684,C4,727.388,0.25,115,162.0
8685,B-3,727.638,0.25,115,162.0
8686,B2,727.638,0.25,115,162.0
8687,B-3,727.638,0.25,115,162.0
8688,G3,727.888,0.5,115,162.0
8689,G2,727.888,0.5,115,162.0
8690,G3,727.888,0.5,115,162.0
8691,D4,728.388,0.5,115,162.0
8692,G2,728.388,0.5,115,162.0
8693,D4,728.388,0.5,115,162.0
8694,D2,728.388,0.5,115,162.0
8695,B2,728.888,0.125,115,162.0
8696,G4,728.888,0.5,115,162.0
8697,A2,728.888,0.5,115,162.0
8698,G4,728.888,0.5,115,162.0
8699,B2,729.138,0.125,115,162.0
8700,A2,729.388,0.125,115,162.0
8701,D4,729.388,0.5,115,162.0
8702,G2,729.388,0.5,115,162.0
8703,D4,729.388,0.5,115,162.0
8704,E4,729.888,0.5,115,162.0
8705,E2,729.888,0.5,115,162.0
8706,E4,729.888,0.5,115,162.0
8707,B1,729.888,0.5,115,162.0
8708,C#3,729.888,0.5,115,162.0
8709,E4,730.888,0.5,115,162.0
8710,E2,730.888,0.5,115,162.0
8711,E4,730.888,0.5,115,162.0
8712,E4,731.388,0.5,115,162.0
8713,E3,731.388,0.5,115,162.0
8714,E4,731.388,0.5,115,162.0
8715,E4,731.888,0.25,115,162.0
8716,E3,731.888,0.25,115,162.0
8717,E4,731.888,0.25,115,162.0
8718,D4,732.138,0.25,115,162.0
8719,D3,732.138,0.25,115,162.0
8720,D4,732.138,0.25,115,162.0
8721,B3,732.388,0.5,115,162.0
8722,B2,732.388,0.5,115,162.0
8723,B3,732.388,0.5,115,162.0
8724,D4,732.888,0.5,115,162.0
8725,D3,732.888,0.5,115,162.0
8726,D4,732.888,0.5,115,162.0
8727,D4,733.388,0.5,115,162.0
8728,D3,733.388,0.5,115,162.0
8729,D4,733.388,0.5,115,162.0
8730,D4,733.888,0.25,115,162.0
8731,D3,733.888,0.25,115,162.0
8732,D4,733.888,0.25,115,162.0
8733,C4,734.138,0.25,115,162.0
8734,C3,734.138,0.25,115,162.0
8735,C4,734.138,0.25,115,162.0
8736,A3,734.388,0.5,115,162.0
8737,A2,734.388,0.5,115,162.0
8738,A3,734.388,0.5,115,162.0
8739,C4,734.888,0.5,115,162.0
8740,C3,734.888,0.5,115,162.0
8741,C4,734.888,0.5,115,162.0
8742,C4,735.388,0.5,115,162.0
8743,C3,735.388,0.5,115,162.0
8744,C4,735.388,0.5,115,162.0
8745,C4,735.888,0.25,115,162.0
8746,C3,735.888,0.25,115,162.0
8747,C4,735.888,0.25,115,162.0
8748,B-3,736.138,0.25,115,162.0
8749,B2,736.138,0.25,115,162.0
8750,B-3,736.138,0.25,115,162.0
8751,G3,736.388,0.5,115,162.0
8752,G2,736.388,0.5,115,162.0
8753,G3,736.388,0.5,115,162.0
8754,F2,736.888,0.25,115,162.0
8755,D4,736.888,0.5,115,162.0
8756,G2,736.888,0.5,115,162.0
8757,D4,736.888,0.5,115,162.0
8758,F2,737.388,0.125,115,162.0
8759,G4,737.388,0.5,115,162.0
8760,A2,737.388,0.5,115,162.0
8761,G4,737.388,0.5,115,162.0
8762,F2,737.638,0.125,115,162.0
8763,F2,737.888,0.125,115,162.0
8764,D4,737.888,0.5,115,162.0
8765,G2,737.888,0.5,115,162.0
8766,D4,737.888,0.5,115,162.0
8767,E4,738.388,0.5,115,162.0
8768,E2,738.388,0.5,115,162.0
8769,G4,738.388,0.5,115,162.0
8770,B1,738.388,0.5,115,162.0
8771,C#3,738.388,0.5,115,162.0
8772,E4,739.388,0.5,115,162.0
8773,E2,739.388,0.5,115,162.0
8774,G4,739.388,0.5,115,162.0
8775,E4,739.888,0.5,115,162.0
8776,E3,739.888,0.5,115,162.0
8777,G4,739.888,0.5,115,162.0
8778,E4,740.388,0.25,115,162.0
8779,E3,740.388,0.25,115,162.0
8780,G4,740.388,0.25,115,162.0
8781,D4,740.638,0.25,115,162.0
8782,D3,740.638,0.25,115,162.0
8783,F#4,740.638,0.25,115,162.0
8784,B3,740.888,0.5,115,162.0
8785,B2,740.888,0.5,115,162.0
8786,E4,740.888,0.5,115,162.0
8787,D4,741.388,0.5,115,162.0
8788,D3,741.388,0.5,115,162.0
8789,F#4,741.388,0.5,115,162.0
8790,D4,741.888,0.5,115,162.0
8791,D3,741.888,0.5,115,162.0
8792,F#4,741.888,0.5,115,162.0
8793,D4,742.388,0.25,115,162.0
8794,D3,742.388,0.25,115,162.0
8795,F#4,742.388,0.25,115,162.0
8796,C4,742.638,0.25,115,162.0
8797,C3,742.638,0.25,115,162.0
8798,E4,742.638,0.25,115,162.0
8799,A3,742.888,0.5,115,162.0
8800,A2,742.888,0.5,115,162.0
8801,D4,742.888,0.5,115,162.0
8802,C4,743.388,0.5,115,162.0
8803,C3,743.388,0.5,115,162.0
8804,E4,743.388,0.5,115,162.0
8805,C4,743.888,0.5,115,162.0
8806,C3,743.888,0.5,115,162.0
8807,E4,743.888,0.5,115,162.0
8808,C4,744.388,0.25,115,162.0
8809,C3,744.388,0.25,115,162.0
8810,E4,744.388,0.25,115,162.0
8811,B-3,744.638,0.25,115,162.0
8812,B2,744.638,0.25,115,162.0
8813,D4,744.638,0.25,115,162.0
8814,G3,744.888,0.5,115,162.0
8815,G2,744.888,0.5,115,162.0
8816,C4,744.888,0.5,115,162.0
8817,D4,745.388,0.5,115,162.0
8818,G2,745.388,0.5,115,162.0
8819,F#4,745.388,0.5,115,162.0
8820,D2,745.388,0.5,115,162.0
8821,A2,745.888,0.125,115,162.0
8822,G4,745.888,0.5,115,162.0
8823,A2,745.888,0.5,115,162.0
8824,G4,745.888,0.5,115,162.0
8825,A2,746.138,0.125,115,162.0
8826,G2,746.388,0.125,115,162.0
8827,D4,746.388,0.5,115,162.0
8828,G2,746.388,0.5,115,162.0
8829,F#4,746.388,0.5,115,162.0
8830,E4,746.888,0.5,115,162.0
8831,E2,746.888,0.5,115,162.0
8832,G4,746.888,0.5,115,162.0
8833,B1,746.888,0.5,115,162.0
8834,C#3,746.888,0.5,115,162.0
8835,E4,747.888,0.5,115,162.0
8836,E2,747.888,0.5,115,162.0
8837,G4,747.888,0.5,115,162.0
8838,D3,748.388,0.125,115,162.0
8839,E4,748.388,0.5,115,162.0
8840,E3,748.388,0.5,115,162.0
8841,G4,748.388,0.5,115,162.0
8842,D3,748.888,0.125,115,162.0
8843,E4,748.888,0.25,115,162.0
8844,E3,748.888,0.25,115,162.0
8845,G4,748.888,0.25,115,162.0
8846,D3,749.138,0.125,115,162.0
8847,D4,749.138,0.25,115,162.0
8848,D3,749.138,0.25,115,162.0
8849,F#4,749.138,0.25,115,162.0
8850,D3,749.388,0.125,115,162.0
8851,B3,749.388,0.5,115,162.0
8852,B2,749.388,0.5,115,162.0
8853,E4,749.388,0.5,115,162.0
8854,D3,749.638,0.125,115,162.0
8855,C3,749.888,0.125,115,162.0
8856,D4,749.888,0.5,115,162.0
8857,D3,749.888,0.5,115,162.0
8858,F#4,749.888,0.5,115,162.0
8859,C3,750.388,0.125,115,162.0
8860,D4,750.388,0.5,115,162.0
8861,D3,750.388,0.5,115,162.0
8862,F#4,750.388,0.5,115,162.0
8863,C3,750.888,0.125,115,162.0
8864,D4,750.888,0.25,115,162.0
8865,D3,750.888,0.25,115,162.0
8866,F#4,750.888,0.25,115,162.0
8867,C3,751.138,0.125,115,162.0
8868,C4,751.138,0.25,115,162.0
8869,C3,751.138,0.25,115,162.0
8870,E4,751.138,0.25,115,162.0
8871,C3,751.388,0.125,115,162.0
8872,A3,751.388,0.5,115,162.0
8873,A2,751.388,0.5,115,162.0
8874,D4,751.388,0.5,115,162.0
8875,C3,751.638,0.125,115,162.0
8876,B2,751.888,0.125,115,162.0
8877,C4,751.888,0.5,115,162.0
8878,C3,751.888,0.5,115,162.0
8879,E4,751.888,0.5,115,162.0
8880,B2,752.388,0.125,115,162.0
8881,C4,752.388,0.5,115,162.0
8882,C3,752.388,0.5,115,162.0
8883,E4,752.388,0.5,115,162.0
8884,B2,752.888,0.125,115,162.0
8885,C4,752.888,0.25,115,162.0
8886,C3,752.888,0.25,115,162.0
8887,E4,752.888,0.25,115,162.0
8888,B2,753.138,0.125,115,162.0
8889,B-3,753.138,0.25,115,162.0
8890,B2,753.138,0.25,115,162.0
8891,D4,753.138,0.25,115,162.0
8892,B2,753.388,0.125,115,162.0
8893,G3,753.388,0.5,115,162.0
8894,G2,753.388,0.5,115,162.0
8895,C4,753.388,0.5,115,162.0
8896,B2,753.638,0.125,115,162.0
8897,A2,753.888,0.125,115,162.0
8898,D4,753.888,0.5,115,162.0
8899,D2,753.888,0.5,115,162.0
8900,F#4,753.888,0.5,115,162.0
8901,A2,754.388,0.125,115,162.0
8902,G4,754.388,0.5,115,162.0
8903,G2,754.388,0.5,115,162.0
8904,G4,754.388,0.5,115,162.0
8905,A2,754.888,0.125,115,162.0
8906,D4,754.888,0.5,115,162.0
8907,D2,754.888,0.5,115,162.0
8908,F#4,754.888,0.5,115,162.0
8909,B3,755.388,0.5,115,162.0
8910,E3,755.388,0.5,115,162.0
8911,E2,755.388,0.5,115,162.0
8912,B3,755.388,0.5,115,162.0
8913,E3,755.388,0.5,115,162.0
8914,B1,755.388,0.125,115,162.0
8915,C#3,755.388,0.125,115,162.0
8916,B3,756.388,0.5,115,162.0
8917,E3,756.388,0.5,115,162.0
8918,E2,756.388,0.5,115,162.0
8919,B3,756.388,0.5,115,162.0
8920,E3,756.388,0.5,115,162.0
