,note_name,start_time,duration,velocity,tempo
0,E2,0.0,0.5,127,123.0
1,E2,0.5,0.5,127,123.0
2,E3,1.0,0.5,127,123.0
3,G3,1.5,0.5,127,123.0
4,F#2,1.5,1.0,127,123.0
5,B-2,2.0,0.5,127,123.0
6,A2,2.5,1.0,127,123.0
7,E3,3.5,0.5,127,123.0
8,F#2,3.5,1.0,127,123.0
9,E2,4.0,0.5,127,123.0
10,E2,4.5,0.5,127,123.0
11,E3,5.0,0.5,127,123.0
12,G3,5.5,0.5,127,123.0
13,F#2,5.5,1.0,127,123.0
14,B-2,6.0,0.5,127,123.0
15,A2,6.5,1.0,127,123.0
16,E3,7.5,0.5,127,123.0
17,F#2,7.5,1.0,127,123.0
18,E2,8.008,123/250,127,123.0
19,E2,8.5,127/250,127,123.0
20,E3,9.008,0.5,127,123.0
21,F#2,9.5,1.0,127,123.0
22,G3,9.508,0.5,127,123.0
23,B-2,10.008,0.5,127,123.0
24,A2,10.508,1.0,127,123.0
25,F#2,11.5,1.0,127,123.0
26,E3,11.508,0.5,127,123.0
27,E2,12.017,483/1000,127,123.0
28,E2,12.5,517/1000,127,123.0
29,E3,13.017,0.5,127,123.0
30,F#2,13.5,1.0,127,123.0
31,G3,13.517,0.5,127,123.0
32,B-2,14.017,0.5,127,123.0
33,A2,14.517,1.0,127,123.0
34,F#2,15.0,167/1000,127,123.0
35,F#2,15.167,167/1000,127,123.0
36,F#2,15.333,167/1000,127,123.0
37,F#2,15.5,1.0,127,123.0
38,E3,15.517,0.5,127,123.0
39,E3,16.0,0.5,127,123.0
40,G3,16.0,0.5,127,123.0
41,B3,16.0,0.5,127,123.0
42,E4,16.0,0.5,127,123.0
43,E2,16.025,19/40,127,123.0
44,E2,16.5,21/40,127,123.0
45,E3,16.5,4.0,127,123.0
46,G3,16.5,4.0,127,123.0
47,B3,16.5,4.0,127,123.0
48,E4,16.5,4.0,127,123.0
49,E3,17.025,0.5,127,123.0
50,F#2,17.5,1.0,127,123.0
51,G3,17.525,0.5,127,123.0
52,B-2,18.025,0.5,127,123.0
53,A2,18.525,1.0,127,123.0
54,F#2,19.5,1.0,127,123.0
55,E3,19.525,0.5,127,123.0
56,E2,20.033,467/1000,127,123.0
57,E2,20.5,533/1000,127,123.0
58,E3,21.033,0.5,127,123.0
59,F#2,21.5,1.0,127,123.0
60,G3,21.533,0.5,127,123.0
61,B-2,22.033,0.5,127,123.0
62,A2,22.533,1.0,127,123.0
63,F#2,23.5,1.0,127,123.0
64,E3,23.533,0.5,127,123.0
65,E2,24.042,229/500,127,123.0
66,E2,24.5,271/500,127,123.0
67,E3,24.5,4.0,127,123.0
68,G3,24.5,4.0,127,123.0
69,B3,24.5,4.0,127,123.0
70,E4,24.5,4.0,127,123.0
71,E3,25.042,0.5,127,123.0
72,F#2,25.5,1.0,127,123.0
73,G3,25.542,0.5,127,123.0
74,B-2,26.042,0.5,127,123.0
75,A2,26.542,1.0,127,123.0
76,F#2,27.5,1.0,127,123.0
77,E3,27.542,0.5,127,123.0
78,E2,28.05,9/20,127,123.0
79,E2,28.5,11/20,127,123.0
80,F#2,28.5,1.0,127,123.0
81,E3,29.05,0.5,127,123.0
82,F#2,29.5,1.0,127,123.0
83,G3,29.55,0.5,127,123.0
84,B-2,30.05,0.5,127,123.0
85,F#2,30.5,1.0,127,123.0
86,A2,30.55,1.0,127,123.0
87,F#2,31.5,1.0,127,123.0
88,E3,31.55,0.5,127,123.0
89,E2,32.058,221/500,127,123.0
90,E2,32.5,279/500,127,123.0
91,E1,32.5,0.5,127,123.0
92,G2,32.5,0.5,127,123.0
93,C2,32.5,1.0,127,123.0
94,E1,33.0,0.5,127,123.0
95,G2,33.0,0.5,127,123.0
96,E3,33.058,0.5,127,123.0
97,E1,33.5,0.5,127,123.0
98,C2,33.5,1.0,127,123.0
99,C3,33.5,0.5,127,123.0
100,G2,33.5,0.5,127,123.0
101,G3,33.558,0.5,127,123.0
102,E1,34.0,0.5,127,123.0
103,G2,34.0,0.5,127,123.0
104,B-2,34.058,0.5,127,123.0
105,E1,34.5,0.5,127,123.0
106,G2,34.5,0.5,127,123.0
107,C2,34.5,1.0,127,123.0
108,A2,34.558,1.0,127,123.0
109,E1,35.0,0.5,127,123.0
110,G2,35.0,0.5,127,123.0
111,E1,35.5,0.5,127,123.0
112,C2,35.5,1.0,127,123.0
113,C3,35.5,0.5,127,123.0
114,G2,35.5,0.5,127,123.0
115,E3,35.558,0.5,127,123.0
116,E2,36.0,0.5,127,123.0
117,E1,36.0,0.5,127,123.0
118,E3,36.0,0.5,127,123.0
119,G3,36.0,0.5,127,123.0
120,B3,36.0,0.5,127,123.0
121,E4,36.0,0.5,127,123.0
122,D3,36.0,0.5,127,123.0
123,G2,36.0,0.5,127,123.0
124,E2,36.5,0.5,127,123.0
125,E1,36.5,0.5,127,123.0
126,G2,36.5,0.5,127,123.0
127,C2,36.5,1.0,127,123.0
128,E3,36.5,4.0,127,123.0
129,G3,36.5,4.0,127,123.0
130,B3,36.5,4.0,127,123.0
131,E4,36.5,4.0,127,123.0
132,E3,37.0,0.5,127,123.0
133,E1,37.0,0.5,127,123.0
134,G2,37.0,0.5,127,123.0
135,G3,37.5,0.5,127,123.0
136,E1,37.5,0.5,127,123.0
137,C2,37.5,1.0,127,123.0
138,C3,37.5,0.5,127,123.0
139,G2,37.5,0.5,127,123.0
140,B-2,38.0,0.5,127,123.0
141,E1,38.0,0.5,127,123.0
142,G2,38.0,0.5,127,123.0
143,A2,38.5,1.0,127,123.0
144,E1,38.5,0.5,127,123.0
145,G2,38.5,0.5,127,123.0
146,C2,38.5,1.0,127,123.0
147,E1,39.0,0.5,127,123.0
148,G2,39.0,0.5,127,123.0
149,E3,39.5,0.5,127,123.0
150,E1,39.5,0.5,127,123.0
151,C2,39.5,1.0,127,123.0
152,C3,39.5,0.5,127,123.0
153,G2,39.5,0.5,127,123.0
154,E1,40.0,0.5,127,123.0
155,D3,40.0,0.5,127,123.0
156,G2,40.0,0.5,127,123.0
157,E2,40.008,123/250,127,123.0
158,E2,40.5,127/250,127,123.0
159,E1,40.5,0.5,127,123.0
160,G2,40.5,0.5,127,123.0
161,C2,40.5,1.0,127,123.0
162,E1,41.0,0.5,127,123.0
163,G2,41.0,0.5,127,123.0
164,E3,41.008,0.5,127,123.0
165,E1,41.5,0.5,127,123.0
166,C2,41.5,1.0,127,123.0
167,C3,41.5,0.5,127,123.0
168,G2,41.5,0.5,127,123.0
169,G3,41.508,0.5,127,123.0
170,E1,42.0,0.5,127,123.0
171,G2,42.0,0.5,127,123.0
172,B-2,42.008,0.5,127,123.0
173,E1,42.5,0.5,127,123.0
174,G2,42.5,0.5,127,123.0
175,C2,42.5,1.0,127,123.0
176,A2,42.508,1.0,127,123.0
177,E1,43.0,0.5,127,123.0
178,G2,43.0,0.5,127,123.0
179,E1,43.5,0.5,127,123.0
180,C2,43.5,1.0,127,123.0
181,C3,43.5,0.5,127,123.0
182,G2,43.5,0.5,127,123.0
183,E3,43.508,0.5,127,123.0
184,E2,44.0,0.5,127,123.0
185,E1,44.0,0.5,127,123.0
186,D3,44.0,0.5,127,123.0
187,G2,44.0,0.5,127,123.0
188,E2,44.5,0.5,127,123.0
189,E1,44.5,0.5,127,123.0
190,G2,44.5,0.5,127,123.0
191,C2,44.5,1.0,127,123.0
192,E3,44.5,4.0,127,123.0
193,G3,44.5,4.0,127,123.0
194,B3,44.5,4.0,127,123.0
195,E4,44.5,4.0,127,123.0
196,E3,45.0,0.5,127,123.0
197,E1,45.0,0.5,127,123.0
198,G2,45.0,0.5,127,123.0
199,G3,45.5,0.5,127,123.0
200,E1,45.5,0.5,127,123.0
201,C2,45.5,1.0,127,123.0
202,C3,45.5,0.5,127,123.0
203,G2,45.5,0.5,127,123.0
204,B-2,46.0,0.5,127,123.0
205,E1,46.0,0.5,127,123.0
206,G2,46.0,0.5,127,123.0
207,A2,46.5,1.0,127,123.0
208,E1,46.5,0.5,127,123.0
209,G2,46.5,0.5,127,123.0
210,C2,46.5,1.0,127,123.0
211,E1,47.0,0.5,127,123.0
212,G2,47.0,0.5,127,123.0
213,E3,47.5,0.5,127,123.0
214,E1,47.5,0.5,127,123.0
215,C2,47.5,1.0,127,123.0
216,C3,47.5,0.5,127,123.0
217,G2,47.5,0.5,127,123.0
218,E1,48.0,0.5,127,123.0
219,E2,48.0,0.5,127,123.0
220,B2,48.0,0.5,127,123.0
221,B2,48.0,0.5,127,123.0
222,E2,48.0,0.5,127,123.0
223,D2,48.0,0.5,127,123.0
224,A3,48.0,0.5,127,123.0
225,E1,48.5,0.5,127,123.0
226,G2,48.5,0.5,127,123.0
227,C2,48.5,1.0,127,123.0
228,E2,48.5,0.5,127,123.0
229,B2,48.5,0.5,127,123.0
230,B2,48.5,4.0,127,123.0
231,E2,48.5,4.0,127,123.0
232,E2,49.0,0.5,127,123.0
233,E1,49.0,0.5,127,123.0
234,G2,49.0,0.5,127,123.0
235,E2,49.5,0.5,127,123.0
236,E1,49.5,0.5,127,123.0
237,C2,49.5,1.0,127,123.0
238,C3,49.5,0.5,127,123.0
239,G2,49.5,0.5,127,123.0
240,E2,50.0,0.5,127,123.0
241,E1,50.0,0.5,127,123.0
242,G2,50.0,0.5,127,123.0
243,E2,50.5,0.5,127,123.0
244,E1,50.5,0.5,127,123.0
245,G2,50.5,0.5,127,123.0
246,C2,50.5,1.0,127,123.0
247,E2,51.0,0.5,127,123.0
248,E1,51.0,0.5,127,123.0
249,G2,51.0,0.5,127,123.0
250,E2,51.5,0.5,127,123.0
251,E1,51.5,0.5,127,123.0
252,C2,51.5,1.0,127,123.0
253,C3,51.5,0.5,127,123.0
254,G2,51.5,0.5,127,123.0
255,E3,52.0,0.5,127,123.0
256,F1,52.0,0.5,127,123.0
257,D3,52.0,0.5,127,123.0
258,G2,52.0,0.5,127,123.0
259,E2,52.5,0.5,127,123.0
260,E1,52.5,0.5,127,123.0
261,G2,52.5,0.5,127,123.0
262,C2,52.5,1.0,127,123.0
263,E2,53.0,0.5,127,123.0
264,E1,53.0,0.5,127,123.0
265,G2,53.0,0.5,127,123.0
266,E2,53.5,0.5,127,123.0
267,E1,53.5,0.5,127,123.0
268,C2,53.5,1.0,127,123.0
269,C3,53.5,0.5,127,123.0
270,G2,53.5,0.5,127,123.0
271,E2,54.0,0.5,127,123.0
272,E1,54.0,0.5,127,123.0
273,G2,54.0,0.5,127,123.0
274,E2,54.5,0.5,127,123.0
275,E1,54.5,0.5,127,123.0
276,G2,54.5,0.5,127,123.0
277,C2,54.5,1.0,127,123.0
278,E2,55.0,0.5,127,123.0
279,E1,55.0,0.5,127,123.0
280,G2,55.0,0.5,127,123.0
281,E2,55.5,0.5,127,123.0
282,E1,55.5,0.5,127,123.0
283,C2,55.5,1.0,127,123.0
284,C3,55.5,0.5,127,123.0
285,G2,55.5,0.5,127,123.0
286,E3,56.0,0.5,127,123.0
287,F1,56.0,0.5,127,123.0
288,D3,56.0,0.5,127,123.0
289,G2,56.0,0.5,127,123.0
290,E2,56.5,0.5,127,123.0
291,E1,56.5,0.5,127,123.0
292,G2,56.5,0.5,127,123.0
293,C2,56.5,1.0,127,123.0
294,E2,57.0,0.5,127,123.0
295,E1,57.0,0.5,127,123.0
296,G2,57.0,0.5,127,123.0
297,E2,57.5,0.5,127,123.0
298,E1,57.5,0.5,127,123.0
299,C2,57.5,1.0,127,123.0
300,C3,57.5,0.5,127,123.0
301,G2,57.5,0.5,127,123.0
302,E2,58.0,0.5,127,123.0
303,F1,58.0,0.5,127,123.0
304,G2,58.0,0.5,127,123.0
305,E2,58.5,0.5,127,123.0
306,E1,58.5,0.5,127,123.0
307,G2,58.5,0.5,127,123.0
308,C2,58.5,1.0,127,123.0
309,E2,59.0,0.5,127,123.0
310,E1,59.0,0.5,127,123.0
311,G2,59.0,0.5,127,123.0
312,E2,59.5,0.5,127,123.0
313,E1,59.5,0.5,127,123.0
314,C2,59.5,1.0,127,123.0
315,C3,59.5,0.5,127,123.0
316,G2,59.5,0.5,127,123.0
317,E3,60.0,0.5,127,123.0
318,F1,60.0,0.5,127,123.0
319,D3,60.0,0.5,127,123.0
320,G2,60.0,0.5,127,123.0
321,E2,60.5,0.5,127,123.0
322,E1,60.5,0.5,127,123.0
323,G2,60.5,0.5,127,123.0
324,C2,60.5,1.0,127,123.0
325,E2,61.0,0.5,127,123.0
326,E1,61.0,0.5,127,123.0
327,G2,61.0,0.5,127,123.0
328,E2,61.5,0.5,127,123.0
329,E1,61.5,0.5,127,123.0
330,C2,61.5,1.0,127,123.0
331,C3,61.5,0.5,127,123.0
332,G2,61.5,0.5,127,123.0
333,E2,62.0,0.5,127,123.0
334,F1,62.0,0.5,127,123.0
335,D2,62.0,0.5,127,123.0
336,A3,62.0,0.5,127,123.0
337,E2,62.5,0.5,127,123.0
338,E1,62.5,0.5,127,123.0
339,G2,62.5,0.5,127,123.0
340,C2,62.5,1.0,127,123.0
341,E2,63.0,0.5,127,123.0
342,E1,63.0,0.5,127,123.0
343,G2,63.0,0.5,127,123.0
344,E2,63.5,0.5,127,123.0
345,E1,63.5,0.5,127,123.0
346,C2,63.5,1.0,127,123.0
347,C3,63.5,0.5,127,123.0
348,G2,63.5,0.5,127,123.0
349,E3,64.0,0.5,127,123.0
350,F1,64.0,0.5,127,123.0
351,B2,64.0,4.0,127,123.0
352,E2,64.0,4.0,127,123.0
353,D2,64.0,0.5,127,123.0
354,A3,64.0,0.5,127,123.0
355,E2,64.5,0.5,127,123.0
356,E1,64.5,0.5,127,123.0
357,G2,64.5,0.5,127,123.0
358,C2,64.5,1.0,127,123.0
359,E2,65.0,0.5,127,123.0
360,E1,65.0,0.5,127,123.0
361,G2,65.0,0.5,127,123.0
362,E3,65.5,0.5,127,123.0
363,E1,65.5,0.5,127,123.0
364,C2,65.5,1.0,127,123.0
365,C3,65.5,0.5,127,123.0
366,G2,65.5,0.5,127,123.0
367,B-2,66.0,0.5,127,123.0
368,E1,66.0,0.5,127,123.0
369,G2,66.0,0.5,127,123.0
370,E2,66.5,0.5,127,123.0
371,E1,66.5,0.5,127,123.0
372,G2,66.5,0.5,127,123.0
373,C2,66.5,1.0,127,123.0
374,E2,67.0,0.5,127,123.0
375,E1,67.0,0.5,127,123.0
376,G2,67.0,0.5,127,123.0
377,E2,67.5,0.5,127,123.0
378,E1,67.5,0.5,127,123.0
379,C2,67.5,1.0,127,123.0
380,C3,67.5,0.5,127,123.0
381,G2,67.5,0.5,127,123.0
382,F1,68.0,0.5,127,123.0
383,C3,68.0,0.5,127,123.0
384,F2,68.0,0.5,127,123.0
385,D3,68.0,0.5,127,123.0
386,G2,68.0,0.5,127,123.0
387,E2,68.5,0.5,127,123.0
388,E1,68.5,0.5,127,123.0
389,G2,68.5,0.5,127,123.0
390,C2,68.5,1.0,127,123.0
391,E2,69.0,0.5,127,123.0
392,E1,69.0,0.5,127,123.0
393,G2,69.0,0.5,127,123.0
394,E3,69.5,0.5,127,123.0
395,E1,69.5,0.5,127,123.0
396,C2,69.5,1.0,127,123.0
397,C3,69.5,0.5,127,123.0
398,G2,69.5,0.5,127,123.0
399,B-2,70.0,0.5,127,123.0
400,E1,70.0,0.5,127,123.0
401,G2,70.0,0.5,127,123.0
402,E2,70.5,0.5,127,123.0
403,E1,70.5,0.5,127,123.0
404,G2,70.5,0.5,127,123.0
405,C2,70.5,1.0,127,123.0
406,E2,71.0,0.5,127,123.0
407,E1,71.0,0.5,127,123.0
408,G2,71.0,0.5,127,123.0
409,E2,71.5,0.5,127,123.0
410,E1,71.5,0.5,127,123.0
411,C2,71.5,1.0,127,123.0
412,C3,71.5,0.5,127,123.0
413,G2,71.5,0.5,127,123.0
414,F1,72.0,0.5,127,123.0
415,C3,72.0,0.5,127,123.0
416,F2,72.0,0.5,127,123.0
417,D3,72.0,0.5,127,123.0
418,G2,72.0,0.5,127,123.0
419,E2,72.5,0.5,127,123.0
420,E1,72.5,0.5,127,123.0
421,G2,72.5,0.5,127,123.0
422,C2,72.5,1.0,127,123.0
423,E2,73.0,0.5,127,123.0
424,E1,73.0,0.5,127,123.0
425,G2,73.0,0.5,127,123.0
426,E3,73.5,0.5,127,123.0
427,E1,73.5,0.5,127,123.0
428,C2,73.5,1.0,127,123.0
429,C3,73.5,0.5,127,123.0
430,G2,73.5,0.5,127,123.0
431,B-2,74.0,0.5,127,123.0
432,E1,74.0,0.5,127,123.0
433,G2,74.0,0.5,127,123.0
434,E2,74.5,0.5,127,123.0
435,E1,74.5,0.5,127,123.0
436,G2,74.5,0.5,127,123.0
437,C2,74.5,1.0,127,123.0
438,E2,75.0,0.5,127,123.0
439,E1,75.0,0.5,127,123.0
440,G2,75.0,0.5,127,123.0
441,E2,75.5,0.5,127,123.0
442,E1,75.5,0.5,127,123.0
443,C2,75.5,1.0,127,123.0
444,B2,75.5,4.0,127,123.0
445,E2,75.5,4.0,127,123.0
446,C3,75.5,0.5,127,123.0
447,G2,75.5,0.5,127,123.0
448,F1,76.0,0.5,127,123.0
449,C3,76.0,0.5,127,123.0
450,F2,76.0,0.5,127,123.0
451,D3,76.0,0.5,127,123.0
452,G2,76.0,0.5,127,123.0
453,E2,76.5,0.5,127,123.0
454,E1,76.5,0.5,127,123.0
455,G2,76.5,0.5,127,123.0
456,C2,76.5,1.0,127,123.0
457,E2,77.0,0.5,127,123.0
458,E1,77.0,0.5,127,123.0
459,G2,77.0,0.5,127,123.0
460,E3,77.5,0.5,127,123.0
461,E1,77.5,0.5,127,123.0
462,C2,77.5,1.0,127,123.0
463,C3,77.5,0.5,127,123.0
464,G2,77.5,0.5,127,123.0
465,B-2,78.0,0.5,127,123.0
466,A1,78.0,1.0,127,123.0
467,A3,78.0,0.5,127,123.0
468,D2,78.0,0.5,127,123.0
469,E2,78.5,0.5,127,123.0
470,C2,78.5,1.0,127,123.0
471,E2,79.0,0.5,127,123.0
472,A1,79.0,1.0,127,123.0
473,A3,79.0,0.5,127,123.0
474,D2,79.0,0.5,127,123.0
475,E2,79.5,0.5,127,123.0
476,C2,79.5,1.0,127,123.0
477,F1,80.0,0.5,127,123.0
478,C3,80.0,0.5,127,123.0
479,F2,80.0,0.5,127,123.0
480,A3,80.0,0.5,127,123.0
481,D2,80.0,0.5,127,123.0
482,E2,80.5,0.5,127,123.0
483,E1,80.5,0.5,127,123.0
484,C2,80.5,1.0,127,123.0
485,G2,80.5,0.5,127,123.0
486,E2,81.0,0.5,127,123.0
487,E1,81.0,0.5,127,123.0
488,G2,81.0,0.5,127,123.0
489,E3,81.5,0.5,127,123.0
490,E1,81.5,0.5,127,123.0
491,C2,81.5,1.0,127,123.0
492,G2,81.5,0.5,127,123.0
493,B-2,82.0,0.5,127,123.0
494,E1,82.0,0.5,127,123.0
495,C3,82.0,0.5,127,123.0
496,G2,82.0,0.5,127,123.0
497,A2,82.5,0.5,127,123.0
498,E1,82.5,0.5,127,123.0
499,C2,82.5,1.0,127,123.0
500,G2,82.5,0.5,127,123.0
501,E2,83.0,0.5,127,123.0
502,E1,83.0,0.5,127,123.0
503,G2,83.0,0.5,127,123.0
504,B2,83.0,3.5,127,123.0
505,E2,83.0,3.5,127,123.0
506,E2,83.5,0.5,127,123.0
507,E1,83.5,0.5,127,123.0
508,C2,83.5,1.0,127,123.0
509,C3,83.5,0.5,127,123.0
510,G2,83.5,0.5,127,123.0
511,F1,84.0,0.5,127,123.0
512,C3,84.0,0.5,127,123.0
513,F2,84.0,0.5,127,123.0
514,D2,84.0,0.5,127,123.0
515,G2,84.0,0.5,127,123.0
516,E2,84.5,0.5,127,123.0
517,E1,84.5,0.5,127,123.0
518,C2,84.5,1.0,127,123.0
519,G2,84.5,0.5,127,123.0
520,E2,85.0,0.5,127,123.0
521,E1,85.0,0.5,127,123.0
522,G2,85.0,0.5,127,123.0
523,E3,85.5,0.5,127,123.0
524,E1,85.5,0.5,127,123.0
525,C2,85.5,1.0,127,123.0
526,G2,85.5,0.5,127,123.0
527,B-2,86.0,0.5,127,123.0
528,E1,86.0,0.5,127,123.0
529,C3,86.0,0.5,127,123.0
530,G2,86.0,0.5,127,123.0
531,A2,86.5,0.5,127,123.0
532,E1,86.5,0.5,127,123.0
533,C2,86.5,1.0,127,123.0
534,G2,86.5,0.5,127,123.0
535,E2,86.5,0.5,127,123.0
536,B2,86.5,0.5,127,123.0
537,E2,87.0,0.5,127,123.0
538,E1,87.0,0.5,127,123.0
539,G2,87.0,0.5,127,123.0
540,E2,87.5,0.5,127,123.0
541,E1,87.5,0.5,127,123.0
542,C2,87.5,1.0,127,123.0
543,C3,87.5,0.5,127,123.0
544,G2,87.5,0.5,127,123.0
545,F1,88.0,0.5,127,123.0
546,C3,88.0,0.5,127,123.0
547,F2,88.0,0.5,127,123.0
548,D2,88.0,0.5,127,123.0
549,G2,88.0,0.5,127,123.0
550,E2,88.5,0.5,127,123.0
551,E1,88.5,0.5,127,123.0
552,C2,88.5,1.0,127,123.0
553,G2,88.5,0.5,127,123.0
554,E2,89.0,0.5,127,123.0
555,E1,89.0,0.5,127,123.0
556,G2,89.0,0.5,127,123.0
557,E3,89.5,0.5,127,123.0
558,E1,89.5,0.5,127,123.0
559,C2,89.5,1.0,127,123.0
560,G2,89.5,0.5,127,123.0
561,B-2,90.0,0.5,127,123.0
562,E1,90.0,0.5,127,123.0
563,C3,90.0,0.5,127,123.0
564,G2,90.0,0.5,127,123.0
565,A2,90.5,0.5,127,123.0
566,E1,90.5,0.5,127,123.0
567,C2,90.5,1.0,127,123.0
568,G2,90.5,0.5,127,123.0
569,E2,91.0,0.5,127,123.0
570,E1,91.0,0.5,127,123.0
571,G2,91.0,0.5,127,123.0
572,E2,91.5,0.5,127,123.0
573,E1,91.5,0.5,127,123.0
574,C2,91.5,1.0,127,123.0
575,C3,91.5,0.5,127,123.0
576,G2,91.5,0.5,127,123.0
577,F1,92.0,0.5,127,123.0
578,C3,92.0,0.5,127,123.0
579,F2,92.0,0.5,127,123.0
580,D2,92.0,0.5,127,123.0
581,G2,92.0,0.5,127,123.0
582,E2,92.5,0.5,127,123.0
583,E1,92.5,0.5,127,123.0
584,G2,92.5,0.5,127,123.0
585,C2,92.5,1.0,127,123.0
586,E2,93.0,0.5,127,123.0
587,E1,93.0,0.5,127,123.0
588,G2,93.0,0.5,127,123.0
589,E3,93.5,0.5,127,123.0
590,E1,93.5,0.5,127,123.0
591,G2,93.5,0.5,127,123.0
592,C2,93.5,1.0,127,123.0
593,B-2,94.0,0.5,127,123.0
594,E1,94.0,0.5,127,123.0
595,C3,94.0,0.5,127,123.0
596,G2,94.0,0.5,127,123.0
597,A2,94.5,0.5,127,123.0
598,E1,94.5,0.5,127,123.0
599,G2,94.5,0.5,127,123.0
600,C2,94.5,1.0,127,123.0
601,E2,95.0,0.5,127,123.0
602,E1,95.0,0.5,127,123.0
603,G2,95.0,0.5,127,123.0
604,E2,95.5,0.5,127,123.0
605,E1,95.5,0.5,127,123.0
606,G2,95.5,0.5,127,123.0
607,C2,95.5,1.0,127,123.0
608,F1,96.0,0.5,127,123.0
609,C3,96.0,0.5,127,123.0
610,F2,96.0,0.5,127,123.0
611,A3,96.0,0.5,127,123.0
612,D2,96.0,0.5,127,123.0
613,E2,96.5,0.5,127,123.0
614,E1,96.5,0.5,127,123.0
615,C2,96.5,1.0,127,123.0
616,G2,96.5,0.5,127,123.0
617,E2,97.0,0.5,127,123.0
618,E1,97.0,0.5,127,123.0
619,G2,97.0,0.5,127,123.0
620,E3,97.5,0.5,127,123.0
621,E1,97.5,0.5,127,123.0
622,C2,97.5,1.0,127,123.0
623,G2,97.5,0.5,127,123.0
624,B-2,98.0,0.5,127,123.0
625,E1,98.0,0.5,127,123.0
626,C3,98.0,0.5,127,123.0
627,G2,98.0,0.5,127,123.0
628,A2,98.5,0.5,127,123.0
629,E1,98.5,0.5,127,123.0
630,C2,98.5,1.0,127,123.0
631,G2,98.5,0.5,127,123.0
632,E2,99.0,0.5,127,123.0
633,E1,99.0,0.5,127,123.0
634,G2,99.0,0.5,127,123.0
635,E2,99.5,0.5,127,123.0
636,E1,99.5,0.5,127,123.0
637,C2,99.5,1.0,127,123.0
638,C3,99.5,0.5,127,123.0
639,G2,99.5,0.5,127,123.0
640,F1,100.0,0.5,127,123.0
641,C3,100.0,0.5,127,123.0
642,F2,100.0,0.5,127,123.0
643,D2,100.0,0.5,127,123.0
644,G2,100.0,0.5,127,123.0
645,E2,100.5,0.5,127,123.0
646,E1,100.5,0.5,127,123.0
647,C2,100.5,1.0,127,123.0
648,G2,100.5,0.5,127,123.0
649,E2,100.5,4.0,127,123.0
650,B2,100.5,4.0,127,123.0
651,E2,101.0,0.5,127,123.0
652,E1,101.0,0.5,127,123.0
653,G2,101.0,0.5,127,123.0
654,E3,101.5,0.5,127,123.0
655,E1,101.5,0.5,127,123.0
656,C2,101.5,1.0,127,123.0
657,G2,101.5,0.5,127,123.0
658,B-2,102.0,0.5,127,123.0
659,E1,102.0,0.5,127,123.0
660,C3,102.0,0.5,127,123.0
661,G2,102.0,0.5,127,123.0
662,A2,102.5,0.5,127,123.0
663,E1,102.5,0.5,127,123.0
664,C2,102.5,1.0,127,123.0
665,G2,102.5,0.5,127,123.0
666,E2,103.0,0.5,127,123.0
667,E1,103.0,0.5,127,123.0
668,G2,103.0,0.5,127,123.0
669,E2,103.5,0.5,127,123.0
670,E1,103.5,0.5,127,123.0
671,C2,103.5,1.0,127,123.0
672,C3,103.5,0.5,127,123.0
673,G2,103.5,0.5,127,123.0
674,F1,104.0,0.5,127,123.0
675,C3,104.0,0.5,127,123.0
676,F2,104.0,0.5,127,123.0
677,D2,104.0,0.5,127,123.0
678,G2,104.0,0.5,127,123.0
679,E2,104.5,0.5,127,123.0
680,E1,104.5,0.5,127,123.0
681,C2,104.5,1.0,127,123.0
682,D3,104.5,0.5,127,123.0
683,D2,104.5,0.5,127,123.0
684,E2,105.0,0.5,127,123.0
685,E1,105.0,0.5,127,123.0
686,D3,105.0,0.5,127,123.0
687,D2,105.0,0.5,127,123.0
688,E3,105.5,0.5,127,123.0
689,E1,105.5,0.5,127,123.0
690,C2,105.5,1.0,127,123.0
691,D3,105.5,0.5,127,123.0
692,D2,105.5,0.5,127,123.0
693,B-2,106.0,0.5,127,123.0
694,E1,106.0,0.5,127,123.0
695,D3,106.0,0.5,127,123.0
696,D2,106.0,0.5,127,123.0
697,A2,106.5,0.5,127,123.0
698,E1,106.5,0.5,127,123.0
699,C2,106.5,1.0,127,123.0
700,D3,106.5,0.5,127,123.0
701,D2,106.5,0.5,127,123.0
702,E2,107.0,0.5,127,123.0
703,E1,107.0,0.5,127,123.0
704,D3,107.0,0.5,127,123.0
705,D2,107.0,0.5,127,123.0
706,E2,107.5,0.5,127,123.0
707,E1,107.5,0.5,127,123.0
708,C2,107.5,1.0,127,123.0
709,D3,107.5,0.5,127,123.0
710,D2,107.5,0.5,127,123.0
711,F1,108.0,0.5,127,123.0
712,C3,108.0,0.5,127,123.0
713,F2,108.0,0.5,127,123.0
714,D3,108.0,0.5,127,123.0
715,D2,108.0,0.5,127,123.0
716,E2,108.5,0.5,127,123.0
717,E1,108.5,0.5,127,123.0
718,C2,108.5,1.0,127,123.0
719,D3,108.5,0.5,127,123.0
720,D2,108.5,0.5,127,123.0
721,E2,109.0,0.5,127,123.0
722,E1,109.0,0.5,127,123.0
723,D3,109.0,0.5,127,123.0
724,D2,109.0,0.5,127,123.0
725,E3,109.5,0.5,127,123.0
726,E1,109.5,0.5,127,123.0
727,C2,109.5,1.0,127,123.0
728,D3,109.5,0.5,127,123.0
729,D2,109.5,0.5,127,123.0
730,B-2,110.0,0.5,127,123.0
731,E1,110.0,0.5,127,123.0
732,D3,110.0,0.5,127,123.0
733,D2,110.0,0.5,127,123.0
734,A2,110.5,0.5,127,123.0
735,E1,110.5,0.5,127,123.0
736,C2,110.5,1.0,127,123.0
737,D3,110.5,0.5,127,123.0
738,D2,110.5,0.5,127,123.0
739,E2,111.0,0.5,127,123.0
740,E1,111.0,0.5,127,123.0
741,D3,111.0,0.5,127,123.0
742,D2,111.0,0.5,127,123.0
743,E2,111.5,0.5,127,123.0
744,E1,111.5,0.5,127,123.0
745,D3,111.5,0.5,127,123.0
746,D2,111.5,0.5,127,123.0
747,E1,112.0,0.5,127,123.0
748,B2,112.0,0.5,127,123.0
749,E2,112.0,0.5,127,123.0
750,C2,112.0,0.5,127,123.0
751,A3,112.0,0.5,127,123.0
752,E1,112.5,0.5,127,123.0
753,E1,113.0,0.5,127,123.0
754,F#2,113.0,0.5,127,123.0
755,B2,113.0,0.5,127,123.0
756,E2,113.0,0.5,127,123.0
757,E1,113.5,0.5,127,123.0
758,F#2,113.5,0.5,127,123.0
759,E2,113.5,0.5,127,123.0
760,B2,113.5,0.5,127,123.0
761,E3,114.0,0.5,127,123.0
762,B-1,114.0,0.5,127,123.0
763,E2,114.0,4.0,127,123.0
764,B2,114.0,4.0,127,123.0
765,D2,114.0,0.5,127,123.0
766,F#2,114.0,0.5,127,123.0
767,B-2,114.5,0.5,127,123.0
768,A1,114.5,0.5,127,123.0
769,C2,114.5,1.0,127,123.0
770,F#2,114.5,0.5,127,123.0
771,A2,115.0,1.0,127,123.0
772,A1,115.0,0.5,127,123.0
773,F#2,115.0,0.5,127,123.0
774,E1,115.5,0.5,127,123.0
775,D2,115.5,0.5,127,123.0
776,F#2,115.5,0.5,127,123.0
777,E2,116.0,0.5,127,123.0
778,E1,116.0,0.5,127,123.0
779,F#2,116.0,0.5,127,123.0
780,E1,116.5,0.5,127,123.0
781,C2,116.5,1.0,127,123.0
782,F#2,116.5,0.5,127,123.0
783,B2,116.5,0.5,127,123.0
784,E2,116.5,0.5,127,123.0
785,E1,117.0,0.5,127,123.0
786,F#2,117.0,0.5,127,123.0
787,E1,117.5,0.5,127,123.0
788,B2,117.5,0.5,127,123.0
789,E2,117.5,0.5,127,123.0
790,D2,117.5,0.5,127,123.0
791,F#2,117.5,0.5,127,123.0
792,B-1,118.0,0.5,127,123.0
793,F#2,118.0,0.5,127,123.0
794,E2,118.0,0.5,127,123.0
795,B2,118.0,0.5,127,123.0
796,E3,118.5,0.5,127,123.0
797,A1,118.5,0.5,127,123.0
798,C2,118.5,1.0,127,123.0
799,F#2,118.5,0.5,127,123.0
800,B-2,119.0,0.5,127,123.0
801,A1,119.0,0.5,127,123.0
802,F#2,119.0,0.5,127,123.0
803,A2,119.5,1.0,127,123.0
804,E1,119.5,0.5,127,123.0
805,D2,119.5,0.5,127,123.0
806,F#2,119.5,0.5,127,123.0
807,E1,120.0,0.5,127,123.0
808,F#2,120.0,0.5,127,123.0
809,E2,120.5,0.5,127,123.0
810,E1,120.5,0.5,127,123.0
811,C2,120.5,1.0,127,123.0
812,F#2,120.5,0.5,127,123.0
813,E1,121.0,0.5,127,123.0
814,F#2,121.0,0.5,127,123.0
815,B2,121.0,0.5,127,123.0
816,E2,121.0,0.5,127,123.0
817,E1,121.5,0.5,127,123.0
818,D2,121.5,0.5,127,123.0
819,F#2,121.5,0.5,127,123.0
820,B-1,122.0,0.5,127,123.0
821,F#2,122.0,0.5,127,123.0
822,B2,122.0,0.5,127,123.0
823,E2,122.0,0.5,127,123.0
824,A1,122.5,1.0,127,123.0
825,C2,122.5,1.0,127,123.0
826,F#2,122.5,0.5,127,123.0
827,E2,122.5,0.5,127,123.0
828,B2,122.5,0.5,127,123.0
829,E3,123.0,0.5,127,123.0
830,F#2,123.0,0.5,127,123.0
831,B-2,123.5,0.5,127,123.0
832,E1,123.5,0.5,127,123.0
833,E2,123.5,4.0,127,123.0
834,B2,123.5,4.0,127,123.0
835,D2,123.5,0.5,127,123.0
836,F#2,123.5,0.5,127,123.0
837,A2,124.0,1.0,127,123.0
838,G1,124.0,0.5,127,123.0
839,F#2,124.0,0.5,127,123.0
840,G1,124.5,0.5,127,123.0
841,C2,124.5,1.0,127,123.0
842,F#2,124.5,0.5,127,123.0
843,E2,125.0,0.5,127,123.0
844,E1,125.0,0.5,127,123.0
845,F#2,125.0,0.5,127,123.0
846,F#1,125.5,0.5,127,123.0
847,G2,125.5,0.5,127,123.0
848,D3,125.5,0.5,127,123.0
849,D2,125.5,0.5,127,123.0
850,F#2,125.5,0.5,127,123.0
851,E1,126.0,0.5,127,123.0
852,F#2,126.0,0.5,127,123.0
853,F#1,126.5,0.5,127,123.0
854,C2,126.5,1.0,127,123.0
855,F#2,126.5,0.5,127,123.0
856,G2,126.5,0.5,127,123.0
857,D3,126.5,0.5,127,123.0
858,E2,127.0,0.5,127,123.0
859,G1,127.0,0.5,127,123.0
860,F#2,127.0,0.5,127,123.0
861,F#1,127.5,0.5,127,123.0
862,C#3,127.5,0.5,127,123.0
863,F#2,127.5,0.5,127,123.0
864,D2,127.5,0.5,127,123.0
865,F#2,127.5,0.5,127,123.0
866,E2,128.0,0.5,127,123.0
867,E1,128.0,0.5,127,123.0
868,A3,128.0,0.5,127,123.0
869,C2,128.0,0.5,127,123.0
870,E1,128.5,0.5,127,123.0
871,F#2,128.5,0.5,127,123.0
872,C#3,128.5,0.5,127,123.0
873,F#2,128.5,0.5,127,123.0
874,E1,129.0,0.5,127,123.0
875,F#2,129.0,0.5,127,123.0
876,G2,129.0,0.5,127,123.0
877,D3,129.0,0.5,127,123.0
878,E2,129.0,1.5,127,123.0
879,B2,129.0,1.5,127,123.0
880,E1,129.5,0.5,127,123.0
881,F#2,129.5,0.5,127,123.0
882,C#3,129.5,0.5,127,123.0
883,D2,129.5,0.5,127,123.0
884,F#2,129.5,0.5,127,123.0
885,B-1,130.0,0.5,127,123.0
886,F#2,130.0,0.5,127,123.0
887,E2,130.0,0.5,127,123.0
888,B2,130.0,0.5,127,123.0
889,A1,130.5,0.5,127,123.0
890,C2,130.5,1.0,127,123.0
891,F#2,130.5,0.5,127,123.0
892,A3,130.5,1.0,127,123.0
893,E3,130.5,1.0,127,123.0
894,A2,130.5,1.0,127,123.0
895,A1,131.0,0.5,127,123.0
896,F#2,131.0,0.5,127,123.0
897,E2,131.0,0.5,127,123.0
898,B2,131.0,0.5,127,123.0
899,E1,131.5,0.5,127,123.0
900,E2,131.5,0.5,127,123.0
901,B2,131.5,0.5,127,123.0
902,E3,131.5,1.0,127,123.0
903,A3,131.5,1.0,127,123.0
904,A2,131.5,1.0,127,123.0
905,D2,131.5,0.5,127,123.0
906,F#2,131.5,0.5,127,123.0
907,E3,132.0,0.5,127,123.0
908,E1,132.0,0.5,127,123.0
909,F#2,132.0,0.5,127,123.0
910,B-2,132.5,0.5,127,123.0
911,E1,132.5,0.5,127,123.0
912,C2,132.5,1.0,127,123.0
913,F#2,132.5,0.5,127,123.0
914,E2,132.5,0.5,127,123.0
915,B2,132.5,0.5,127,123.0
916,A2,133.0,1.0,127,123.0
917,E1,133.0,0.5,127,123.0
918,F#2,133.0,0.5,127,123.0
919,E1,133.5,0.5,127,123.0
920,D2,133.5,0.5,127,123.0
921,F#2,133.5,0.5,127,123.0
922,E2,134.0,0.5,127,123.0
923,B-1,134.0,0.5,127,123.0
924,F#2,134.0,0.5,127,123.0
925,A1,134.5,0.5,127,123.0
926,C2,134.5,1.0,127,123.0
927,F#2,134.5,0.5,127,123.0
928,B2,134.5,0.5,127,123.0
929,E2,134.5,0.5,127,123.0
930,A1,135.0,0.5,127,123.0
931,F#2,135.0,0.5,127,123.0
932,E1,135.5,0.5,127,123.0
933,B2,135.5,0.5,127,123.0
934,E2,135.5,0.5,127,123.0
935,D2,135.5,0.5,127,123.0
936,F#2,135.5,0.5,127,123.0
937,E1,136.0,0.5,127,123.0
938,F#2,136.0,0.5,127,123.0
939,E2,136.0,0.5,127,123.0
940,B2,136.0,0.5,127,123.0
941,E3,136.5,0.5,127,123.0
942,E1,136.5,0.5,127,123.0
943,C2,136.5,1.0,127,123.0
944,F#2,136.5,0.5,127,123.0
945,E2,136.5,3.5,127,123.0
946,B2,136.5,3.5,127,123.0
947,B-2,137.0,0.5,127,123.0
948,E1,137.0,0.5,127,123.0
949,F#2,137.0,0.5,127,123.0
950,A2,137.5,1.0,127,123.0
951,E1,137.5,0.5,127,123.0
952,D2,137.5,0.5,127,123.0
953,F#2,137.5,0.5,127,123.0
954,B-1,138.0,0.5,127,123.0
955,F#2,138.0,0.5,127,123.0
956,E2,138.5,0.5,127,123.0
957,A1,138.5,1.0,127,123.0
958,C2,138.5,1.0,127,123.0
959,F#2,138.5,0.5,127,123.0
960,F#2,139.0,0.5,127,123.0
961,B2,139.0,0.5,127,123.0
962,E2,139.0,0.5,127,123.0
963,E1,139.5,0.5,127,123.0
964,D2,139.5,0.5,127,123.0
965,F#2,139.5,0.5,127,123.0
966,G1,140.0,0.5,127,123.0
967,F#2,140.0,0.5,127,123.0
968,B2,140.0,0.5,127,123.0
969,E2,140.0,0.5,127,123.0
970,E2,140.0,0.5,127,123.0
971,B2,140.0,0.5,127,123.0
972,G1,140.5,0.5,127,123.0
973,C2,140.5,1.0,127,123.0
974,F#2,140.5,0.5,127,123.0
975,E2,140.5,0.5,127,123.0
976,B2,140.5,0.5,127,123.0
977,E3,141.0,0.5,127,123.0
978,E1,141.0,0.5,127,123.0
979,F#2,141.0,0.5,127,123.0
980,B-2,141.5,0.5,127,123.0
981,F#1,141.5,0.5,127,123.0
982,D2,141.5,0.5,127,123.0
983,F#2,141.5,0.5,127,123.0
984,A2,142.0,1.0,127,123.0
985,E1,142.0,0.5,127,123.0
986,F#2,142.0,0.5,127,123.0
987,F#1,142.5,0.5,127,123.0
988,C2,142.5,1.0,127,123.0
989,F#2,142.5,0.5,127,123.0
990,E2,143.0,0.5,127,123.0
991,G1,143.0,0.5,127,123.0
992,F#2,143.0,0.5,127,123.0
993,F#1,143.5,0.5,127,123.0
994,G2,143.5,0.5,127,123.0
995,D3,143.5,0.5,127,123.0
996,D2,143.5,0.5,127,123.0
997,F#2,143.5,0.5,127,123.0
998,E1,144.0,0.5,127,123.0
999,E2,144.0,3.5,127,123.0
1000,B2,144.0,3.5,127,123.0
1001,C2,144.0,0.5,127,123.0
1002,A3,144.0,0.5,127,123.0
1003,E1,144.5,0.5,127,123.0
1004,F#2,144.5,0.5,127,123.0
1005,G2,144.5,0.5,127,123.0
1006,D3,144.5,0.5,127,123.0
1007,E2,145.0,0.5,127,123.0
1008,E1,145.0,0.5,127,123.0
1009,F#2,145.0,0.5,127,123.0
1010,G#5,145.5,0.5,127,123.0
1011,E1,145.5,0.5,127,123.0
1012,C#3,145.5,0.5,127,123.0
1013,F#2,145.5,0.5,127,123.0
1014,D2,145.5,0.5,127,123.0
1015,F#2,145.5,0.5,127,123.0
1016,G5,146.0,0.5,127,123.0
1017,E2,146.0,0.5,127,123.0
1018,E1,146.0,0.5,127,123.0
1019,F#2,146.0,0.5,127,123.0
1020,G#5,146.5,1.0,127,123.0
1021,E1,146.5,0.5,127,123.0
1022,C2,146.5,1.0,127,123.0
1023,F#2,146.5,0.5,127,123.0
1024,C#3,146.5,0.5,127,123.0
1025,F#2,146.5,0.5,127,123.0
1026,E1,147.0,0.5,127,123.0
1027,F#2,147.0,0.5,127,123.0
1028,G2,147.0,0.5,127,123.0
1029,D3,147.0,0.5,127,123.0
1030,D5,147.5,0.5,127,123.0
1031,E1,147.5,0.5,127,123.0
1032,F#2,147.5,0.5,127,123.0
1033,C#3,147.5,0.5,127,123.0
1034,E2,147.5,0.5,127,123.0
1035,B2,147.5,0.5,127,123.0
1036,D2,147.5,0.5,127,123.0
1037,F#2,147.5,0.5,127,123.0
1038,E5,148.0,0.5,127,123.0
1039,F1,148.0,0.5,127,123.0
1040,F#2,148.0,0.5,127,123.0
1041,E2,148.0,0.5,127,123.0
1042,B2,148.0,0.5,127,123.0
1043,E5,148.5,1.0,127,123.0
1044,E1,148.5,0.5,127,123.0
1045,C2,148.5,1.0,127,123.0
1046,F#2,148.5,0.5,127,123.0
1047,E1,149.0,0.5,127,123.0
1048,F#2,149.0,0.5,127,123.0
1049,E2,149.0,0.5,127,123.0
1050,B2,149.0,0.5,127,123.0
1051,E5,149.5,0.5,127,123.0
1052,E2,149.5,0.5,127,123.0
1053,E1,149.5,0.5,127,123.0
1054,D2,149.5,0.5,127,123.0
1055,F#2,149.5,0.5,127,123.0
1056,E5,150.0,0.5,127,123.0
1057,E2,150.0,0.5,127,123.0
1058,E1,150.0,0.5,127,123.0
1059,F#2,150.0,0.5,127,123.0
1060,E5,150.5,0.5,127,123.0
1061,E2,150.5,0.5,127,123.0
1062,E1,150.5,0.5,127,123.0
1063,C2,150.5,1.0,127,123.0
1064,F#2,150.5,0.5,127,123.0
1065,D5,151.0,1.0,127,123.0
1066,E2,151.0,0.5,127,123.0
1067,E1,151.0,0.5,127,123.0
1068,F#2,151.0,0.5,127,123.0
1069,E2,151.5,0.5,127,123.0
1070,E1,151.5,0.5,127,123.0
1071,E2,151.5,3.5,127,123.0
1072,B2,151.5,3.5,127,123.0
1073,D2,151.5,0.5,127,123.0
1074,F#2,151.5,0.5,127,123.0
1075,E5,152.0,0.5,127,123.0
1076,E2,152.0,0.5,127,123.0
1077,F1,152.0,0.5,127,123.0
1078,F#2,152.0,0.5,127,123.0
1079,E5,152.5,0.5,127,123.0
1080,E1,152.5,0.5,127,123.0
1081,C2,152.5,1.0,127,123.0
1082,F#2,152.5,0.5,127,123.0
1083,C3,152.5,0.5,127,123.0
1084,F2,152.5,0.5,127,123.0
1085,E2,153.0,0.5,127,123.0
1086,E1,153.0,0.5,127,123.0
1087,F#2,153.0,0.5,127,123.0
1088,E5,153.5,0.5,127,123.0
1089,E2,153.5,0.5,127,123.0
1090,E1,153.5,0.5,127,123.0
1091,D2,153.5,0.5,127,123.0
1092,F#2,153.5,0.5,127,123.0
1093,E5,154.0,0.5,127,123.0
1094,E2,154.0,0.5,127,123.0
1095,E1,154.0,0.5,127,123.0
1096,F#2,154.0,0.5,127,123.0
1097,E5,154.5,0.5,127,123.0
1098,E2,154.5,0.5,127,123.0
1099,E1,154.5,0.5,127,123.0
1100,C2,154.5,1.0,127,123.0
1101,F#2,154.5,0.5,127,123.0
1102,B4,155.0,0.5,127,123.0
1103,E2,155.0,0.5,127,123.0
1104,E1,155.0,0.5,127,123.0
1105,F#2,155.0,0.5,127,123.0
1106,E2,155.0,0.5,127,123.0
1107,B2,155.0,0.5,127,123.0
1108,D5,155.5,0.5,127,123.0
1109,E2,155.5,0.5,127,123.0
1110,E1,155.5,0.5,127,123.0
1111,D2,155.5,0.5,127,123.0
1112,F#2,155.5,0.5,127,123.0
1113,E5,156.0,0.5,127,123.0
1114,E2,156.0,0.5,127,123.0
1115,G1,156.0,0.5,127,123.0
1116,F#2,156.0,0.5,127,123.0
1117,D5,156.5,0.5,127,123.0
1118,G1,156.5,0.5,127,123.0
1119,C2,156.5,1.0,127,123.0
1120,F#2,156.5,0.5,127,123.0
1121,C3,156.5,0.5,127,123.0
1122,F2,156.5,0.5,127,123.0
1123,D5,156.958,21/500,75,123.0
1124,E5,157.0,2.0,127,123.0
1125,E2,157.0,0.5,127,123.0
1126,E1,157.0,0.5,127,123.0
1127,F#2,157.0,0.5,127,123.0
1128,E2,157.5,0.5,127,123.0
1129,F#1,157.5,0.5,127,123.0
1130,D2,157.5,0.5,127,123.0
1131,F#2,157.5,0.5,127,123.0
1132,E2,158.0,0.5,127,123.0
1133,E1,158.0,0.5,127,123.0
1134,F#2,158.0,0.5,127,123.0
1135,E2,158.5,0.5,127,123.0
1136,F#1,158.5,0.5,127,123.0
1137,C2,158.5,1.0,127,123.0
1138,F#2,158.5,0.5,127,123.0
1139,E2,159.0,0.5,127,123.0
1140,G1,159.0,0.5,127,123.0
1141,F#2,159.0,0.5,127,123.0
1142,E2,159.0,3.5,127,123.0
1143,B2,159.0,3.5,127,123.0
1144,E2,159.5,0.5,127,123.0
1145,F#1,159.5,0.5,127,123.0
1146,D2,159.5,0.5,127,123.0
1147,F#2,159.5,0.5,127,123.0
1148,E2,160.0,0.5,127,123.0
1149,E1,160.0,0.5,127,123.0
1150,C2,160.0,0.5,127,123.0
1151,A3,160.0,0.5,127,123.0
1152,E1,160.5,0.5,127,123.0
1153,F#2,160.5,0.5,127,123.0
1154,D3,160.5,0.5,127,123.0
1155,G2,160.5,0.5,127,123.0
1156,E5,161.0,0.5,127,123.0
1157,E1,161.0,0.5,127,123.0
1158,F#2,161.0,0.5,127,123.0
1159,G5,161.5,0.5,127,123.0
1160,E1,161.5,0.5,127,123.0
1161,D3,161.5,0.5,127,123.0
1162,G2,161.5,0.5,127,123.0
1163,D2,161.5,0.5,127,123.0
1164,F#2,161.5,0.5,127,123.0
1165,G5,162.0,0.5,127,123.0
1166,E2,162.0,0.5,127,123.0
1167,E1,162.0,0.5,127,123.0
1168,F#2,162.0,0.5,127,123.0
1169,G5,162.5,1.0,127,123.0
1170,E1,162.5,0.5,127,123.0
1171,C2,162.5,1.0,127,123.0
1172,F#2,162.5,0.5,127,123.0
1173,C#3,162.5,0.5,127,123.0
1174,F#2,162.5,0.5,127,123.0
1175,E2,162.5,0.5,127,123.0
1176,B2,162.5,0.5,127,123.0
1177,E2,163.0,0.5,127,123.0
1178,E1,163.0,0.5,127,123.0
1179,F#2,163.0,0.5,127,123.0
1180,D5,163.5,0.5,127,123.0
1181,E1,163.5,0.5,127,123.0
1182,C#3,163.5,0.5,127,123.0
1183,F#2,163.5,0.5,127,123.0
1184,D2,163.5,0.5,127,123.0
1185,F#2,163.5,0.5,127,123.0
1186,E5,164.0,0.5,127,123.0
1187,F1,164.0,0.5,127,123.0
1188,F#2,164.0,0.5,127,123.0
1189,G2,164.0,0.5,127,123.0
1190,D3,164.0,0.5,127,123.0
1191,E5,164.5,1.0,127,123.0
1192,E1,164.5,0.5,127,123.0
1193,C2,164.5,1.0,127,123.0
1194,F#2,164.5,0.5,127,123.0
1195,C#3,164.5,0.5,127,123.0
1196,F#2,164.5,0.5,127,123.0
1197,E1,165.0,0.5,127,123.0
1198,F#2,165.0,0.5,127,123.0
1199,E2,165.0,0.5,127,123.0
1200,B2,165.0,0.5,127,123.0
1201,E5,165.5,0.5,127,123.0
1202,E1,165.5,0.5,127,123.0
1203,D2,165.5,0.5,127,123.0
1204,F#2,165.5,0.5,127,123.0
1205,E5,166.0,0.5,127,123.0
1206,E1,166.0,0.5,127,123.0
1207,F#2,166.0,0.5,127,123.0
1208,E2,166.0,0.5,127,123.0
1209,B2,166.0,0.5,127,123.0
1210,E5,166.5,0.5,127,123.0
1211,E2,166.5,0.5,127,123.0
1212,E1,166.5,0.5,127,123.0
1213,C2,166.5,1.0,127,123.0
1214,F#2,166.5,0.5,127,123.0
1215,E2,166.5,3.5,127,123.0
1216,B2,166.5,3.5,127,123.0
1217,D5,167.0,1.0,127,123.0
1218,E2,167.0,0.5,127,123.0
1219,E1,167.0,0.5,127,123.0
1220,F#2,167.0,0.5,127,123.0
1221,E2,167.5,0.5,127,123.0
1222,E1,167.5,0.5,127,123.0
1223,D2,167.5,0.5,127,123.0
1224,F#2,167.5,0.5,127,123.0
1225,E5,168.0,0.5,127,123.0
1226,E2,168.0,0.5,127,123.0
1227,F1,168.0,0.5,127,123.0
1228,F#2,168.0,0.5,127,123.0
1229,E5,168.5,0.5,127,123.0
1230,E2,168.5,0.5,127,123.0
1231,E1,168.5,0.5,127,123.0
1232,C2,168.5,1.0,127,123.0
1233,F#2,168.5,0.5,127,123.0
1234,E2,169.0,0.5,127,123.0
1235,E1,169.0,0.5,127,123.0
1236,F#2,169.0,0.5,127,123.0
1237,E5,169.5,0.5,127,123.0
1238,E1,169.5,0.5,127,123.0
1239,C3,169.5,0.5,127,123.0
1240,F2,169.5,0.5,127,123.0
1241,D2,169.5,0.5,127,123.0
1242,F#2,169.5,0.5,127,123.0
1243,E5,170.0,0.5,127,123.0
1244,E2,170.0,0.5,127,123.0
1245,E1,170.0,0.5,127,123.0
1246,F#2,170.0,0.5,127,123.0
1247,E2,170.0,0.5,127,123.0
1248,B2,170.0,0.5,127,123.0
1249,E5,170.5,0.5,127,123.0
1250,E2,170.5,0.5,127,123.0
1251,E1,170.5,0.5,127,123.0
1252,C2,170.5,1.0,127,123.0
1253,F#2,170.5,0.5,127,123.0
1254,B4,171.0,0.5,127,123.0
1255,E2,171.0,0.5,127,123.0
1256,E1,171.0,0.5,127,123.0
1257,F#2,171.0,0.5,127,123.0
1258,D5,171.5,0.5,127,123.0
1259,E2,171.5,0.5,127,123.0
1260,E1,171.5,0.5,127,123.0
1261,D2,171.5,0.5,127,123.0
1262,F#2,171.5,0.5,127,123.0
1263,E5,172.0,0.5,127,123.0
1264,E2,172.0,0.5,127,123.0
1265,G1,172.0,0.5,127,123.0
1266,F#2,172.0,0.5,127,123.0
1267,D5,172.5,0.5,127,123.0
1268,E2,172.5,0.5,127,123.0
1269,G1,172.5,0.5,127,123.0
1270,C2,172.5,1.0,127,123.0
1271,F#2,172.5,0.5,127,123.0
1272,D5,172.958,21/500,75,123.0
1273,E5,173.0,2.0,127,123.0
1274,E2,173.0,0.5,127,123.0
1275,E1,173.0,0.5,127,123.0
1276,F#2,173.0,0.5,127,123.0
1277,F#1,173.5,0.5,127,123.0
1278,C3,173.5,0.5,127,123.0
1279,F2,173.5,0.5,127,123.0
1280,D2,173.5,0.5,127,123.0
1281,F#2,173.5,0.5,127,123.0
1282,E2,174.0,0.5,127,123.0
1283,E1,174.0,0.5,127,123.0
1284,F#2,174.0,0.5,127,123.0
1285,E2,174.0,3.5,127,123.0
1286,B2,174.0,3.5,127,123.0
1287,E2,174.5,0.5,127,123.0
1288,F#1,174.5,0.5,127,123.0
1289,C2,174.5,1.0,127,123.0
1290,F#2,174.5,0.5,127,123.0
1291,E5,175.0,0.5,127,123.0
1292,E2,175.0,0.5,127,123.0
1293,G1,175.0,0.5,127,123.0
1294,F#2,175.0,0.5,127,123.0
1295,E2,175.5,0.5,127,123.0
1296,E1,175.5,0.5,127,123.0
1297,D2,175.5,0.5,127,123.0
1298,F#2,175.5,0.5,127,123.0
1299,E2,176.0,0.5,127,123.0
1300,F#1,176.0,0.5,127,123.0
1301,C2,176.0,0.5,127,123.0
1302,A3,176.0,0.5,127,123.0
1303,E2,176.5,0.5,127,123.0
1304,F#1,176.5,2.0,127,123.0
1305,E2,177.0,0.5,127,123.0
1306,F#2,177.0,0.5,127,123.0
1307,F#2,177.5,0.5,127,123.0
1308,G2,177.5,0.5,127,123.0
1309,D3,177.5,0.5,127,123.0
1310,E2,177.5,0.5,127,123.0
1311,B2,177.5,0.5,127,123.0
1312,F#2,178.0,0.5,127,123.0
1313,F#5,178.5,0.5,127,123.0
1314,B1,178.5,1.5,127,123.0
1315,G2,178.5,0.5,127,123.0
1316,D3,178.5,0.5,127,123.0
1317,D2,178.5,0.5,127,123.0
1318,F#2,178.5,0.5,127,123.0
1319,F#5,179.0,1.0,127,123.0
1320,E2,179.0,0.5,127,123.0
1321,F#2,179.0,0.5,127,123.0
1322,F#2,179.5,0.5,127,123.0
1323,C#3,179.5,0.5,127,123.0
1324,F#2,179.5,0.5,127,123.0
1325,F#5,180.0,0.5,127,123.0
1326,E2,180.0,0.5,127,123.0
1327,F#1,180.0,0.5,127,123.0
1328,C2,180.0,0.5,127,123.0
1329,A3,180.0,0.5,127,123.0
1330,F#5,180.5,0.5,127,123.0
1331,F#1,180.5,2.0,127,123.0
1332,F#2,180.5,0.5,127,123.0
1333,C#3,180.5,0.5,127,123.0
1334,F#2,180.5,0.5,127,123.0
1335,F#5,181.0,1.0,127,123.0
1336,F#2,181.0,0.5,127,123.0
1337,G2,181.0,0.5,127,123.0
1338,D3,181.0,0.5,127,123.0
1339,F#2,181.5,0.5,127,123.0
1340,C#3,181.5,0.5,127,123.0
1341,F#2,181.5,0.5,127,123.0
1342,E2,181.5,3.5,127,123.0
1343,B2,181.5,3.5,127,123.0
1344,F#5,181.958,21/500,75,123.0
1345,A5,182.0,0.5,127,123.0
1346,F#2,182.0,0.5,127,123.0
1347,F#2,182.0,0.5,127,123.0
1348,G5,182.5,0.5,127,123.0
1349,F#2,182.5,0.5,127,123.0
1350,B1,182.5,1.5,127,123.0
1351,D2,182.5,0.5,127,123.0
1352,F#2,182.5,0.5,127,123.0
1353,F#5,183.0,1.0,127,123.0
1354,F#3,183.0,0.5,127,123.0
1355,F#2,183.0,0.5,127,123.0
1356,A3,183.5,0.5,127,123.0
1357,F#2,183.5,0.5,127,123.0
1358,C3,184.0,0.5,127,123.0
1359,F#1,184.0,0.5,127,123.0
1360,A3,184.0,0.5,127,123.0
1361,C2,184.0,0.5,127,123.0
1362,B2,184.5,1.0,127,123.0
1363,F#1,184.5,2.0,127,123.0
1364,F#2,184.5,0.5,127,123.0
1365,F#2,185.0,0.5,127,123.0
1366,E2,185.0,0.5,127,123.0
1367,B2,185.0,0.5,127,123.0
1368,F#3,185.5,0.5,127,123.0
1369,F#2,185.5,0.5,127,123.0
1370,F#2,186.0,0.5,127,123.0
1371,F#2,186.0,0.5,127,123.0
1372,A5,186.5,0.5,127,123.0
1373,F#2,186.5,0.5,127,123.0
1374,B1,186.5,1.5,127,123.0
1375,D2,186.5,0.5,127,123.0
1376,F#2,186.5,0.5,127,123.0
1377,G#5,187.0,0.5,127,123.0
1378,F#3,187.0,0.5,127,123.0
1379,F#2,187.0,0.5,127,123.0
1380,F#5,187.5,0.5,127,123.0
1381,A3,187.5,0.5,127,123.0
1382,F#2,187.5,0.5,127,123.0
1383,G#5,187.958,21/500,75,123.0
1384,A5,188.0,0.5,127,123.0
1385,C3,188.0,0.5,127,123.0
1386,F#1,188.0,0.5,127,123.0
1387,F#2,188.0,0.5,127,123.0
1388,A5,188.5,0.5,127,123.0
1389,B2,188.5,1.0,127,123.0
1390,F#1,188.5,0.5,127,123.0
1391,C2,188.5,1.0,127,123.0
1392,D2,188.5,0.5,127,123.0
1393,D3,188.5,0.5,127,123.0
1394,F#5,189.0,1.0,127,123.0
1395,F#1,189.0,0.5,127,123.0
1396,E2,189.0,3.5,127,123.0
1397,B2,189.0,3.5,127,123.0
1398,D2,189.0,0.5,127,123.0
1399,D3,189.0,0.5,127,123.0
1400,F#3,189.5,0.5,127,123.0
1401,F#1,189.5,0.5,127,123.0
1402,C2,189.5,1.0,127,123.0
1403,D2,189.5,0.5,127,123.0
1404,D3,189.5,0.5,127,123.0
1405,F#5,190.0,1.0,127,123.0
1406,F#2,190.0,0.5,127,123.0
1407,F#1,190.0,0.5,127,123.0
1408,D2,190.0,0.5,127,123.0
1409,D3,190.0,0.5,127,123.0
1410,F#2,190.5,0.5,127,123.0
1411,F#1,190.5,0.5,127,123.0
1412,C2,190.5,1.0,127,123.0
1413,D2,190.5,0.5,127,123.0
1414,D3,190.5,0.5,127,123.0
1415,C#5,191.0,0.5,127,123.0
1416,F#3,191.0,0.5,127,123.0
1417,E1,191.0,0.5,127,123.0
1418,D2,191.0,0.5,127,123.0
1419,D3,191.0,0.5,127,123.0
1420,A3,191.5,0.5,127,123.0
1421,E1,191.5,0.5,127,123.0
1422,A3,191.5,1.0,127,123.0
1423,D2,191.5,1.0,127,123.0
1424,C3,192.0,0.5,127,123.0
1425,F1,192.0,0.5,127,123.0
1426,F#5,192.5,2.0,127,123.0
1427,B2,192.5,1.0,127,123.0
1428,F#1,192.5,0.5,127,123.0
1429,E2,192.5,0.5,127,123.0
1430,B2,192.5,0.5,127,123.0
1431,C2,192.5,1.0,127,123.0
1432,A3,192.5,1.0,127,123.0
1433,F#1,193.0,0.5,127,123.0
1434,F#3,193.5,0.5,127,123.0
1435,F#1,193.5,0.5,127,123.0
1436,E2,193.5,0.5,127,123.0
1437,B2,193.5,0.5,127,123.0
1438,D2,193.5,0.5,127,123.0
1439,F#2,193.5,0.5,127,123.0
1440,F#2,194.0,0.5,127,123.0
1441,C2,194.0,0.5,127,123.0
1442,F#2,194.0,0.5,127,123.0
1443,E2,194.0,0.5,127,123.0
1444,B2,194.0,0.5,127,123.0
1445,E5,194.5,1.5,127,123.0
1446,F#2,194.5,0.5,127,123.0
1447,E3,194.5,0.5,127,123.0
1448,B1,194.5,0.5,127,123.0
1449,F#2,194.5,0.5,127,123.0
1450,C2,194.5,1.0,127,123.0
1451,F#3,195.0,0.5,127,123.0
1452,B-2,195.0,0.5,127,123.0
1453,B1,195.0,0.5,127,123.0
1454,F#2,195.0,0.5,127,123.0
1455,A3,195.5,0.5,127,123.0
1456,A2,195.5,1.0,127,123.0
1457,B1,195.5,0.5,127,123.0
1458,D2,195.5,0.5,127,123.0
1459,F#2,195.5,0.5,127,123.0
1460,F#5,196.0,0.5,127,123.0
1461,C3,196.0,0.5,127,123.0
1462,F#1,196.0,0.5,127,123.0
1463,F#2,196.0,0.5,127,123.0
1464,F#5,196.5,2.0,127,123.0
1465,B2,196.5,1.0,127,123.0
1466,E2,196.5,0.5,127,123.0
1467,F#1,196.5,0.5,127,123.0
1468,F#2,196.5,0.5,127,123.0
1469,C2,196.5,1.0,127,123.0
1470,F#1,197.0,0.5,127,123.0
1471,F#2,197.0,0.5,127,123.0
1472,B2,197.0,0.5,127,123.0
1473,E2,197.0,0.5,127,123.0
1474,F#3,197.5,1.0,127,123.0
1475,F#1,197.5,0.5,127,123.0
1476,D2,197.5,0.5,127,123.0
1477,F#2,197.5,0.5,127,123.0
1478,C2,198.0,0.5,127,123.0
1479,F#2,198.0,0.5,127,123.0
1480,B2,198.0,0.5,127,123.0
1481,E2,198.0,0.5,127,123.0
1482,B1,198.5,0.5,127,123.0
1483,F#2,198.5,1.0,127,123.0
1484,C#3,198.5,1.0,127,123.0
1485,E2,198.5,0.5,127,123.0
1486,B2,198.5,0.5,127,123.0
1487,C2,198.5,0.5,127,123.0
1488,F#2,198.5,0.5,127,123.0
1489,E3,199.0,0.5,127,123.0
1490,B1,199.0,0.5,127,123.0
1491,C2,199.0,0.5,127,123.0
1492,F#2,199.0,0.5,127,123.0
1493,C#3,199.5,0.5,127,123.0
1494,B-2,199.5,0.5,127,123.0
1495,B1,199.5,0.5,127,123.0
1496,D2,199.5,0.5,127,123.0
1497,F#2,199.5,0.5,127,123.0
1498,C3,200.0,0.5,127,123.0
1499,A2,200.0,1.0,127,123.0
1500,F#1,200.0,0.5,127,123.0
1501,F#2,200.0,0.5,127,123.0
1502,F#5,200.5,1.5,127,123.0
1503,F#1,200.5,0.5,127,123.0
1504,F#2,200.5,0.5,127,123.0
1505,C2,200.5,1.0,127,123.0
1506,B2,200.5,1.5,127,123.0
1507,F#3,200.5,1.5,127,123.0
1508,E2,201.0,0.5,127,123.0
1509,F#1,201.0,0.5,127,123.0
1510,F#2,201.0,0.5,127,123.0
1511,F#1,201.5,0.5,127,123.0
1512,B2,201.5,0.5,127,123.0
1513,E2,201.5,0.5,127,123.0
1514,D2,201.5,0.5,127,123.0
1515,F#2,201.5,0.5,127,123.0
1516,E5,202.0,0.5,127,123.0
1517,C2,202.0,0.5,127,123.0
1518,F#2,202.0,0.5,127,123.0
1519,F#2,202.0,0.5,127,123.0
1520,C#3,202.0,0.5,127,123.0
1521,E5,202.5,1.5,127,123.0
1522,B1,202.5,0.5,127,123.0
1523,F#2,202.5,0.5,127,123.0
1524,C2,202.5,1.0,127,123.0
1525,B2,202.5,0.5,127,123.0
1526,E2,202.5,0.5,127,123.0
1527,B1,203.0,0.5,127,123.0
1528,F#2,203.0,0.5,127,123.0
1529,E2,203.0,0.5,127,123.0
1530,B2,203.0,0.5,127,123.0
1531,E3,203.5,0.5,127,123.0
1532,B1,203.5,0.5,127,123.0
1533,F#2,203.5,0.5,127,123.0
1534,C2,203.5,1.0,127,123.0
1535,F#2,203.5,1.0,127,123.0
1536,C#3,203.5,1.0,127,123.0
1537,G#5,204.0,0.5,127,123.0
1538,B-2,204.0,0.5,127,123.0
1539,E1,204.0,0.5,127,123.0
1540,A3,204.0,0.5,127,123.0
1541,D2,204.0,0.5,127,123.0
1542,E5,204.5,2.5,127,123.0
1543,C#3,204.5,0.5,127,123.0
1544,A2,204.5,1.0,127,123.0
1545,E1,204.5,0.5,127,123.0
1546,F#2,204.5,0.5,127,123.0
1547,C2,204.5,1.0,127,123.0
1548,C3,205.0,0.5,127,123.0
1549,A1,205.0,0.25,127,123.0
1550,F#2,205.0,0.5,127,123.0
1551,B1,205.25,0.25,127,123.0
1552,E2,205.5,0.5,127,123.0
1553,D2,205.5,0.5,127,123.0
1554,B2,205.5,1.5,127,123.0
1555,F#3,205.5,1.5,127,123.0
1556,D2,205.5,0.5,127,123.0
1557,F#2,205.5,0.5,127,123.0
1558,B1,206.0,0.5,127,123.0
1559,F#2,206.0,0.5,127,123.0
1560,G2,206.0,0.5,127,123.0
1561,D3,206.0,0.5,127,123.0
1562,E2,206.5,0.5,127,123.0
1563,C2,206.5,0.5,127,123.0
1564,F#2,206.5,0.5,127,123.0
1565,D2,207.0,0.5,127,123.0
1566,F#2,207.0,0.5,127,123.0
1567,C#3,207.0,0.5,127,123.0
1568,G2,207.0,0.5,127,123.0
1569,D3,207.0,0.5,127,123.0
1570,C2,207.0,0.5,127,123.0
1571,F#2,207.0,0.5,127,123.0
1572,E2,207.5,0.5,127,123.0
1573,B1,207.5,0.5,127,123.0
1574,D2,207.5,0.5,127,123.0
1575,F#2,207.5,0.5,127,123.0
1576,G1,208.0,0.5,127,123.0
1577,C#3,208.0,0.5,127,123.0
1578,F#2,208.0,0.5,127,123.0
1579,C2,208.0,0.5,127,123.0
1580,F#2,208.0,0.5,127,123.0
1581,E5,208.458,21/500,75,123.0
1582,F#5,208.5,1.5,127,123.0
1583,E2,208.5,0.5,127,123.0
1584,F#1,208.5,1.0,127,123.0
1585,F#2,208.5,1.0,127,123.0
1586,C#3,208.5,1.0,127,123.0
1587,C2,208.5,1.0,127,123.0
1588,A3,208.5,1.0,127,123.0
1589,C#3,209.0,0.5,127,123.0
1590,F#2,209.0,0.5,127,123.0
1591,C#3,209.5,0.5,127,123.0
1592,F#1,209.5,0.5,127,123.0
1593,G2,209.5,0.5,127,123.0
1594,D3,209.5,0.5,127,123.0
1595,F#2,209.5,0.5,127,123.0
1596,D2,209.5,0.5,127,123.0
1597,E5,210.0,1.0,127,123.0
1598,C3,210.0,0.5,127,123.0
1599,C2,210.0,0.5,127,123.0
1600,F#2,210.0,0.5,127,123.0
1601,F#2,210.0,0.5,127,123.0
1602,C#3,210.0,0.5,127,123.0
1603,B1,210.5,0.5,127,123.0
1604,C2,210.5,1.0,127,123.0
1605,F#2,210.5,0.5,127,123.0
1606,B2,210.5,1.5,127,123.0
1607,F#3,210.5,1.5,127,123.0
1608,E2,210.5,0.5,127,123.0
1609,B2,210.5,0.5,127,123.0
1610,E5,211.0,1.0,127,123.0
1611,B1,211.0,0.5,127,123.0
1612,F#2,211.0,0.5,127,123.0
1613,B1,211.5,0.5,127,123.0
1614,C2,211.5,1.0,127,123.0
1615,F#2,211.5,0.5,127,123.0
1616,E2,211.5,0.5,127,123.0
1617,B2,211.5,0.5,127,123.0
1618,D5,211.958,21/500,75,123.0
1619,E5,212.0,0.5,127,123.0
1620,E1,212.0,0.5,127,123.0
1621,E2,212.0,0.5,127,123.0
1622,B2,212.0,0.5,127,123.0
1623,E2,212.0,0.5,127,123.0
1624,B2,212.0,0.5,127,123.0
1625,A3,212.0,0.5,127,123.0
1626,D2,212.0,0.5,127,123.0
1627,E5,212.5,2.0,127,123.0
1628,E3,212.5,0.5,127,123.0
1629,E1,212.5,0.5,127,123.0
1630,C2,212.5,1.0,127,123.0
1631,F#2,212.5,0.5,127,123.0
1632,B-2,213.0,0.5,127,123.0
1633,E1,213.0,0.5,127,123.0
1634,F#2,213.0,0.5,127,123.0
1635,A2,213.5,1.0,127,123.0
1636,F#1,213.5,0.5,127,123.0
1637,D2,213.5,0.5,127,123.0
1638,F#2,213.5,0.5,127,123.0
1639,E1,214.0,0.5,127,123.0
1640,F#2,214.0,0.5,127,123.0
1641,E2,214.5,0.5,127,123.0
1642,G1,214.5,0.5,127,123.0
1643,C2,214.5,0.5,127,123.0
1644,F#2,214.5,0.5,127,123.0
1645,E1,215.0,0.5,127,123.0
1646,B2,215.0,0.5,127,123.0
1647,E2,215.0,0.5,127,123.0
1648,C2,215.0,0.5,127,123.0
1649,F#2,215.0,0.5,127,123.0
1650,A1,215.5,0.5,127,123.0
1651,D2,215.5,0.5,127,123.0
1652,F#2,215.5,0.5,127,123.0
1653,E1,216.0,0.5,127,123.0
1654,B2,216.0,0.5,127,123.0
1655,E2,216.0,0.5,127,123.0
1656,C2,216.0,0.5,127,123.0
1657,F#2,216.0,0.5,127,123.0
1658,D5,216.25,0.25,127,123.0
1659,D5,216.458,21/500,75,123.0
1660,E5,216.5,0.5,127,123.0
1661,G1,216.5,0.5,127,123.0
1662,E2,216.5,4.0,127,123.0
1663,B2,216.5,4.0,127,123.0
1664,E2,216.5,0.5,127,123.0
1665,B2,216.5,0.5,127,123.0
1666,E5,217.0,0.5,127,123.0
1667,E3,217.0,0.5,127,123.0
1668,E5,217.5,0.5,127,123.0
1669,B-2,217.5,0.5,127,123.0
1670,B4,218.0,0.5,127,123.0
1671,A2,218.0,1.0,127,123.0
1672,B4,218.458,21/500,75,123.0
1673,D5,218.5,0.5,127,123.0
1674,E5,219.0,0.5,127,123.0
1675,E2,219.0,0.5,127,123.0
1676,E5,219.5,1.0,127,123.0
1677,B2,219.5,0.5,127,123.0
1678,E2,219.5,0.5,127,123.0
1679,E1,220.0,0.5,127,123.0
1680,C2,220.0,0.5,127,123.0
1681,A3,220.0,0.5,127,123.0
1682,E5,220.5,1.0,127,123.0
1683,E1,220.5,0.5,127,123.0
1684,F#2,220.5,0.5,127,123.0
1685,F#2,220.5,1.0,127,123.0
1686,C#3,220.5,1.0,127,123.0
1687,B2,220.5,0.5,127,123.0
1688,E2,220.5,0.5,127,123.0
1689,E1,221.0,0.5,127,123.0
1690,F#2,221.0,0.5,127,123.0
1691,E2,221.0,0.5,127,123.0
1692,B2,221.0,0.5,127,123.0
1693,C#3,221.5,0.5,127,123.0
1694,E3,221.5,0.5,127,123.0
1695,E1,221.5,0.5,127,123.0
1696,D2,221.5,0.5,127,123.0
1697,F#2,221.5,0.5,127,123.0
1698,C3,222.0,0.5,127,123.0
1699,B-2,222.0,0.5,127,123.0
1700,B-1,222.0,0.5,127,123.0
1701,F#2,222.0,0.5,127,123.0
1702,A2,222.5,1.0,127,123.0
1703,A1,222.5,0.5,127,123.0
1704,C2,222.5,1.0,127,123.0
1705,F#2,222.5,0.5,127,123.0
1706,B2,222.5,1.5,127,123.0
1707,F#3,222.5,1.5,127,123.0
1708,A1,223.0,0.5,127,123.0
1709,F#2,223.0,0.5,127,123.0
1710,E2,223.5,0.5,127,123.0
1711,E1,223.5,0.5,127,123.0
1712,D2,223.5,0.5,127,123.0
1713,F#2,223.5,0.5,127,123.0
1714,E1,224.0,0.5,127,123.0
1715,F#2,224.0,0.5,127,123.0
1716,E2,224.0,0.5,127,123.0
1717,B2,224.0,0.5,127,123.0
1718,G2,224.0,0.5,127,123.0
1719,D3,224.0,0.5,127,123.0
1720,E1,224.5,0.5,127,123.0
1721,C2,224.5,1.0,127,123.0
1722,F#2,224.5,0.5,127,123.0
1723,E1,225.0,0.5,127,123.0
1724,F#2,225.0,0.5,127,123.0
1725,G2,225.0,0.5,127,123.0
1726,D3,225.0,0.5,127,123.0
1727,E2,225.5,0.5,127,123.0
1728,E1,225.5,0.5,127,123.0
1729,D2,225.5,0.5,127,123.0
1730,F#2,225.5,0.5,127,123.0
1731,B-1,226.0,0.5,127,123.0
1732,F#2,226.0,0.5,127,123.0
1733,C#3,226.0,0.5,127,123.0
1734,F#2,226.0,0.5,127,123.0
1735,E2,226.5,0.5,127,123.0
1736,A1,226.5,0.5,127,123.0
1737,C2,226.5,1.0,127,123.0
1738,F#2,226.5,0.5,127,123.0
1739,A1,227.0,0.5,127,123.0
1740,F#2,227.0,0.5,127,123.0
1741,C#3,227.0,0.5,127,123.0
1742,F#2,227.0,0.5,127,123.0
1743,E1,227.5,0.5,127,123.0
1744,G2,227.5,0.5,127,123.0
1745,D3,227.5,0.5,127,123.0
1746,D2,227.5,0.5,127,123.0
1747,F#2,227.5,0.5,127,123.0
1748,E1,228.0,0.5,127,123.0
1749,F#2,228.0,0.5,127,123.0
1750,F#2,228.0,0.5,127,123.0
1751,C#3,228.0,0.5,127,123.0
1752,E1,228.5,0.5,127,123.0
1753,C2,228.5,1.0,127,123.0
1754,F#2,228.5,0.5,127,123.0
1755,E2,228.5,4.0,127,123.0
1756,B2,228.5,4.0,127,123.0
1757,E2,228.5,0.5,127,123.0
1758,B2,228.5,0.5,127,123.0
1759,E1,229.0,0.5,127,123.0
1760,F#2,229.0,0.5,127,123.0
1761,E1,229.5,0.5,127,123.0
1762,E2,229.5,0.5,127,123.0
1763,B2,229.5,0.5,127,123.0
1764,D2,229.5,0.5,127,123.0
1765,F#2,229.5,0.5,127,123.0
1766,E2,230.0,0.5,127,123.0
1767,B-1,230.0,0.5,127,123.0
1768,F#2,230.0,0.5,127,123.0
1769,E2,230.5,0.5,127,123.0
1770,A1,230.5,1.0,127,123.0
1771,C2,230.5,1.0,127,123.0
1772,F#2,230.5,0.5,127,123.0
1773,E2,231.0,0.5,127,123.0
1774,F#2,231.0,0.5,127,123.0
1775,E2,231.5,0.5,127,123.0
1776,E1,231.5,0.5,127,123.0
1777,D2,231.5,0.5,127,123.0
1778,F#2,231.5,0.5,127,123.0
1779,E2,232.0,0.5,127,123.0
1780,G1,232.0,0.5,127,123.0
1781,F#2,232.0,0.5,127,123.0
1782,E2,232.5,0.5,127,123.0
1783,G1,232.5,0.5,127,123.0
1784,G2,232.5,0.5,127,123.0
1785,E3,232.5,0.5,127,123.0
1786,D2,232.5,0.5,127,123.0
1787,F#2,232.5,0.5,127,123.0
1788,E2,233.0,0.5,127,123.0
1789,E1,233.0,0.5,127,123.0
1790,C3,233.0,0.5,127,123.0
1791,F2,233.0,0.5,127,123.0
1792,C2,233.0,0.5,127,123.0
1793,F#2,233.0,0.5,127,123.0
1794,E2,233.5,0.5,127,123.0
1795,F#1,233.5,0.5,127,123.0
1796,C#3,233.5,0.5,127,123.0
1797,F#2,233.5,0.5,127,123.0
1798,D2,233.5,0.5,127,123.0
1799,F#2,233.5,0.5,127,123.0
1800,E2,234.0,0.5,127,123.0
1801,E2,234.0,0.5,127,123.0
1802,E1,234.0,0.5,127,123.0
1803,F#2,234.0,0.5,127,123.0
1804,E2,234.5,0.5,127,123.0
1805,F#1,234.5,0.5,127,123.0
1806,C#3,234.5,0.5,127,123.0
1807,F#2,234.5,0.5,127,123.0
1808,D2,234.5,0.5,127,123.0
1809,F#2,234.5,0.5,127,123.0
1810,E2,235.0,0.5,127,123.0
1811,G1,235.0,0.5,127,123.0
1812,G2,235.0,0.5,127,123.0
1813,D3,235.0,0.5,127,123.0
1814,C2,235.0,0.5,127,123.0
1815,F#2,235.0,0.5,127,123.0
1816,E2,235.5,0.5,127,123.0
1817,F#1,235.5,0.5,127,123.0
1818,C#3,235.5,0.5,127,123.0
1819,F#2,235.5,0.5,127,123.0
1820,D2,235.5,0.5,127,123.0
1821,F#2,235.5,0.5,127,123.0
1822,E2,236.0,0.5,127,123.0
1823,E1,236.0,0.5,127,123.0
1824,E2,236.0,0.5,127,123.0
1825,B2,236.0,0.5,127,123.0
1826,C2,236.0,0.5,127,123.0
1827,A3,236.0,0.5,127,123.0
1828,E2,236.5,0.5,127,123.0
1829,E1,236.5,0.5,127,123.0
1830,F#2,236.5,0.5,127,123.0
1831,E1,237.0,0.5,127,123.0
1832,F#2,237.0,0.5,127,123.0
1833,E2,237.0,0.5,127,123.0
1834,B2,237.0,0.5,127,123.0
1835,C3,237.0,0.5,127,123.0
1836,F2,237.0,0.5,127,123.0
1837,E2,237.5,0.5,127,123.0
1838,E1,237.5,0.5,127,123.0
1839,E2,237.5,0.5,127,123.0
1840,B2,237.5,0.5,127,123.0
1841,D2,237.5,0.5,127,123.0
1842,F#2,237.5,0.5,127,123.0
1843,E3,238.0,0.5,127,123.0
1844,E2,238.0,0.5,127,123.0
1845,B-1,238.0,0.5,127,123.0
1846,F#2,238.0,0.5,127,123.0
1847,B-2,238.5,0.5,127,123.0
1848,E2,238.5,0.5,127,123.0
1849,A1,238.5,0.5,127,123.0
1850,C2,238.5,1.0,127,123.0
1851,F#2,238.5,0.5,127,123.0
1852,A2,239.0,1.0,127,123.0
1853,E2,239.0,0.5,127,123.0
1854,A1,239.0,0.5,127,123.0
1855,F#2,239.0,0.5,127,123.0
1856,E2,239.5,0.5,127,123.0
1857,E1,239.5,0.5,127,123.0
1858,D2,239.5,0.5,127,123.0
1859,F#2,239.5,0.5,127,123.0
1860,E2,240.0,0.5,127,123.0
1861,E2,240.0,0.5,127,123.0
1862,E1,240.0,0.5,127,123.0
1863,F#2,240.0,0.5,127,123.0
1864,E2,240.5,0.5,127,123.0
1865,E1,240.5,0.5,127,123.0
1866,C2,240.5,1.0,127,123.0
1867,F#2,240.5,0.5,127,123.0
1868,B2,240.5,0.5,127,123.0
1869,E2,240.5,0.5,127,123.0
1870,E1,241.0,0.5,127,123.0
1871,F#2,241.0,0.5,127,123.0
1872,D3,241.0,0.5,127,123.0
1873,G2,241.0,0.5,127,123.0
1874,E1,241.5,0.5,127,123.0
1875,B2,241.5,0.5,127,123.0
1876,E2,241.5,0.5,127,123.0
1877,D2,241.5,0.5,127,123.0
1878,F#2,241.5,0.5,127,123.0
1879,B-1,242.0,0.5,127,123.0
1880,F#2,242.0,0.5,127,123.0
1881,E2,242.0,0.5,127,123.0
1882,B2,242.0,0.5,127,123.0
1883,D3,242.0,0.5,127,123.0
1884,G2,242.0,0.5,127,123.0
1885,E3,242.5,0.5,127,123.0
1886,E2,242.5,0.5,127,123.0
1887,A1,242.5,0.5,127,123.0
1888,C2,242.5,1.0,127,123.0
1889,F#2,242.5,0.5,127,123.0
1890,B-2,243.0,0.5,127,123.0
1891,A1,243.0,0.5,127,123.0
1892,F#2,243.0,0.5,127,123.0
1893,C#3,243.0,0.5,127,123.0
1894,F#2,243.0,0.5,127,123.0
1895,A2,243.5,1.0,127,123.0
1896,E2,243.5,0.5,127,123.0
1897,E1,243.5,0.5,127,123.0
1898,D2,243.5,0.5,127,123.0
1899,F#2,243.5,0.5,127,123.0
1900,E1,244.0,0.5,127,123.0
1901,F#2,244.0,0.5,127,123.0
1902,C#3,244.0,0.5,127,123.0
1903,F#2,244.0,0.5,127,123.0
1904,E2,244.5,0.5,127,123.0
1905,E1,244.5,0.5,127,123.0
1906,C2,244.5,1.0,127,123.0
1907,F#2,244.5,0.5,127,123.0
1908,G2,244.5,0.5,127,123.0
1909,D3,244.5,0.5,127,123.0
1910,E1,245.0,0.5,127,123.0
1911,F#2,245.0,0.5,127,123.0
1912,B2,245.0,0.5,127,123.0
1913,E2,245.0,0.5,127,123.0
1914,C#3,245.0,0.5,127,123.0
1915,F#2,245.0,0.5,127,123.0
1916,E1,245.5,0.5,127,123.0
1917,E2,245.5,0.5,127,123.0
1918,B2,245.5,0.5,127,123.0
1919,D2,245.5,0.5,127,123.0
1920,F#2,245.5,0.5,127,123.0
1921,B-1,246.0,0.5,127,123.0
1922,F#2,246.0,0.5,127,123.0
1923,B2,246.0,0.5,127,123.0
1924,E2,246.0,0.5,127,123.0
1925,A1,246.5,1.0,127,123.0
1926,C2,246.5,1.0,127,123.0
1927,F#2,246.5,0.5,127,123.0
1928,E2,246.5,0.5,127,123.0
1929,B2,246.5,0.5,127,123.0
1930,E2,246.5,0.5,127,123.0
1931,B2,246.5,0.5,127,123.0
1932,E3,247.0,0.5,127,123.0
1933,E2,247.0,0.5,127,123.0
1934,F#2,247.0,0.5,127,123.0
1935,B-2,247.5,0.5,127,123.0
1936,E2,247.5,0.5,127,123.0
1937,E1,247.5,0.5,127,123.0
1938,D2,247.5,0.5,127,123.0
1939,F#2,247.5,0.5,127,123.0
1940,A2,248.0,1.0,127,123.0
1941,E2,248.0,0.5,127,123.0
1942,G1,248.0,0.5,127,123.0
1943,F#2,248.0,0.5,127,123.0
1944,E2,248.5,0.5,127,123.0
1945,G1,248.5,0.5,127,123.0
1946,C2,248.5,1.0,127,123.0
1947,D2,248.5,0.5,127,123.0
1948,A3,248.5,0.5,127,123.0
1949,E2,249.0,0.5,127,123.0
1950,E2,249.0,0.5,127,123.0
1951,E1,249.0,0.5,127,123.0
1952,C3,249.0,0.5,127,123.0
1953,B2,249.0,0.5,127,123.0
1954,E2,249.5,0.5,127,123.0
1955,F#1,249.5,0.5,127,123.0
1956,C2,249.5,1.0,127,123.0
1957,G2,249.5,0.5,127,123.0
1958,D3,249.5,0.5,127,123.0
1959,C3,249.5,0.5,127,123.0
1960,B2,249.5,0.5,127,123.0
1961,E1,250.0,0.5,127,123.0
1962,C3,250.0,0.5,127,123.0
1963,F2,250.0,0.5,127,123.0
1964,C3,250.0,0.5,127,123.0
1965,B2,250.0,0.5,127,123.0
1966,E2,250.5,0.5,127,123.0
1967,F#1,250.5,0.5,127,123.0
1968,C2,250.5,1.0,127,123.0
1969,G2,250.5,0.5,127,123.0
1970,D3,250.5,0.5,127,123.0
1971,C3,250.5,0.5,127,123.0
1972,B2,250.5,0.5,127,123.0
1973,E2,251.0,0.5,127,123.0
1974,E2,251.0,0.5,127,123.0
1975,G1,251.0,0.5,127,123.0
1976,C3,251.0,0.5,127,123.0
1977,B2,251.0,0.5,127,123.0
1978,E2,251.5,0.5,127,123.0
1979,F#1,251.5,0.5,127,123.0
1980,C#3,251.5,0.5,127,123.0
1981,F#2,251.5,0.5,127,123.0
1982,C3,251.5,0.5,127,123.0
1983,B2,251.5,0.5,127,123.0
1984,E2,252.0,0.5,127,123.0
1985,E2,252.0,0.5,127,123.0
1986,E1,252.0,0.5,127,123.0
1987,B4,252.0,0.5,127,123.0
1988,G4,252.0,0.5,127,123.0
1989,A3,252.0,0.5,127,123.0
1990,C2,252.0,0.5,127,123.0
1991,E2,252.5,0.5,127,123.0
1992,E1,252.5,0.5,127,123.0
1993,F#2,252.5,0.5,127,123.0
1994,B4,252.5,0.5,127,123.0
1995,G4,252.5,0.5,127,123.0
1996,C#3,252.5,0.5,127,123.0
1997,F#2,252.5,0.5,127,123.0
1998,E4,253.0,0.5,127,123.0
1999,E2,253.0,0.5,127,123.0
2000,E1,253.0,0.5,127,123.0
2001,F#2,253.0,0.5,127,123.0
2002,G2,253.0,0.5,127,123.0
2003,D3,253.0,0.5,127,123.0
2004,G#5,253.5,0.5,127,123.0
2005,G4,253.5,0.5,127,123.0
2006,E2,253.5,0.5,127,123.0
2007,E1,253.5,0.5,127,123.0
2008,F#2,253.5,0.5,127,123.0
2009,C#3,253.5,0.5,127,123.0
2010,D2,253.5,0.5,127,123.0
2011,F#2,253.5,0.5,127,123.0
2012,G5,254.0,0.5,127,123.0
2013,A4,254.0,0.5,127,123.0
2014,E1,254.0,0.5,127,123.0
2015,F#2,254.0,0.5,127,123.0
2016,E2,254.0,0.5,127,123.0
2017,B2,254.0,0.5,127,123.0
2018,C3,254.0,0.5,127,123.0
2019,F2,254.0,0.5,127,123.0
2020,G#5,254.5,1.0,127,123.0
2021,A4,254.5,0.25,127,123.0
2022,E2,254.5,0.5,127,123.0
2023,E1,254.5,0.5,127,123.0
2024,C2,254.5,1.0,127,123.0
2025,F#2,254.5,0.5,127,123.0
2026,G4,254.75,0.25,127,123.0
2027,E4,255.0,0.5,127,123.0
2028,E2,255.0,0.5,127,123.0
2029,E1,255.0,0.5,127,123.0
2030,F#2,255.0,0.5,127,123.0
2031,E2,255.0,0.5,127,123.0
2032,B2,255.0,0.5,127,123.0
2033,D5,255.5,0.5,127,123.0
2034,G4,255.5,0.5,127,123.0
2035,E2,255.5,0.5,127,123.0
2036,E1,255.5,0.5,127,123.0
2037,E2,255.5,0.5,127,123.0
2038,B2,255.5,0.5,127,123.0
2039,D2,255.5,0.5,127,123.0
2040,F#2,255.5,0.5,127,123.0
2041,E5,256.0,0.5,127,123.0
2042,E3,256.0,0.5,127,123.0
2043,E2,256.0,0.5,127,123.0
2044,F1,256.0,0.5,127,123.0
2045,F#2,256.0,0.5,127,123.0
2046,C#5,256.0,0.5,127,123.0
2047,A4,256.0,0.5,127,123.0
2048,E5,256.5,1.0,127,123.0
2049,B-2,256.5,0.5,127,123.0
2050,E2,256.5,0.5,127,123.0
2051,E1,256.5,0.5,127,123.0
2052,C2,256.5,1.0,127,123.0
2053,F#2,256.5,0.5,127,123.0
2054,A2,257.0,1.0,127,123.0
2055,E2,257.0,0.5,127,123.0
2056,E1,257.0,0.5,127,123.0
2057,F#2,257.0,0.5,127,123.0
2058,E5,257.5,0.5,127,123.0
2059,E2,257.5,0.5,127,123.0
2060,E1,257.5,0.5,127,123.0
2061,D2,257.5,0.5,127,123.0
2062,F#2,257.5,0.5,127,123.0
2063,E5,258.0,0.5,127,123.0
2064,E2,258.0,0.5,127,123.0
2065,E1,258.0,0.5,127,123.0
2066,F#2,258.0,0.5,127,123.0
2067,G2,258.0,0.5,127,123.0
2068,D3,258.0,0.5,127,123.0
2069,E5,258.5,0.5,127,123.0
2070,E1,258.5,0.5,127,123.0
2071,C2,258.5,1.0,127,123.0
2072,F#2,258.5,0.5,127,123.0
2073,B2,258.5,0.5,127,123.0
2074,E2,258.5,0.5,127,123.0
2075,D5,259.0,1.0,127,123.0
2076,E1,259.0,0.5,127,123.0
2077,F#2,259.0,0.5,127,123.0
2078,G2,259.0,0.5,127,123.0
2079,D3,259.0,0.5,127,123.0
2080,E2,259.5,0.5,127,123.0
2081,E1,259.5,0.5,127,123.0
2082,B2,259.5,0.5,127,123.0
2083,E2,259.5,0.5,127,123.0
2084,D2,259.5,0.5,127,123.0
2085,F#2,259.5,0.5,127,123.0
2086,E5,260.0,0.5,127,123.0
2087,F1,260.0,0.5,127,123.0
2088,F#2,260.0,0.5,127,123.0
2089,C#5,260.0,3.5,127,123.0
2090,A4,260.0,3.5,127,123.0
2091,E2,260.0,0.5,127,123.0
2092,B2,260.0,0.5,127,123.0
2093,C#3,260.0,0.5,127,123.0
2094,F#2,260.0,0.5,127,123.0
2095,E5,260.5,0.5,127,123.0
2096,E3,260.5,0.5,127,123.0
2097,E2,260.5,0.5,127,123.0
2098,E1,260.5,0.5,127,123.0
2099,C2,260.5,1.0,127,123.0
2100,F#2,260.5,0.5,127,123.0
2101,B-2,261.0,0.5,127,123.0
2102,E1,261.0,0.5,127,123.0
2103,F#2,261.0,0.5,127,123.0
2104,C#3,261.0,0.5,127,123.0
2105,F#2,261.0,0.5,127,123.0
2106,E5,261.5,0.5,127,123.0
2107,A2,261.5,1.0,127,123.0
2108,E1,261.5,0.5,127,123.0
2109,G2,261.5,0.5,127,123.0
2110,D3,261.5,0.5,127,123.0
2111,D2,261.5,0.5,127,123.0
2112,F#2,261.5,0.5,127,123.0
2113,E5,262.0,0.5,127,123.0
2114,E1,262.0,0.5,127,123.0
2115,F#2,262.0,0.5,127,123.0
2116,C#3,262.0,0.5,127,123.0
2117,F#2,262.0,0.5,127,123.0
2118,E5,262.5,0.5,127,123.0
2119,E2,262.5,0.5,127,123.0
2120,F#2,262.5,0.5,127,123.0
2121,E1,262.5,0.5,127,123.0
2122,C2,262.5,1.0,127,123.0
2123,F#2,262.5,0.5,127,123.0
2124,B4,263.0,0.5,127,123.0
2125,F#2,263.0,0.5,127,123.0
2126,E1,263.0,0.5,127,123.0
2127,F#2,263.0,0.5,127,123.0
2128,B2,263.0,0.5,127,123.0
2129,E2,263.0,0.5,127,123.0
2130,D5,263.5,0.5,127,123.0
2131,F#3,263.5,0.5,127,123.0
2132,E1,263.5,0.5,127,123.0
2133,E5,263.5,0.5,127,123.0
2134,B4,263.5,0.5,127,123.0
2135,D2,263.5,0.5,127,123.0
2136,F#2,263.5,0.5,127,123.0
2137,E5,264.0,0.5,127,123.0
2138,A3,264.0,0.5,127,123.0
2139,G1,264.0,0.5,127,123.0
2140,F#2,264.0,0.5,127,123.0
2141,B2,264.0,0.5,127,123.0
2142,E2,264.0,0.5,127,123.0
2143,D5,264.5,0.5,127,123.0
2144,C3,264.5,0.5,127,123.0
2145,G1,264.5,0.5,127,123.0
2146,C2,264.5,1.0,127,123.0
2147,F#2,264.5,0.5,127,123.0
2148,E2,264.5,0.5,127,123.0
2149,B2,264.5,0.5,127,123.0
2150,D5,264.958,21/500,75,123.0
2151,E5,265.0,2.0,127,123.0
2152,E3,265.0,0.5,127,123.0
2153,B2,265.0,1.0,127,123.0
2154,E1,265.0,0.5,127,123.0
2155,F#2,265.0,0.5,127,123.0
2156,E5,265.0,1.0,127,123.0
2157,B4,265.0,1.0,127,123.0
2158,B-2,265.5,0.5,127,123.0
2159,F#1,265.5,0.5,127,123.0
2160,D2,265.5,0.5,127,123.0
2161,F#2,265.5,0.5,127,123.0
2162,A2,266.0,1.0,127,123.0
2163,F#3,266.0,0.5,127,123.0
2164,E1,266.0,0.5,127,123.0
2165,F#2,266.0,0.5,127,123.0
2166,F#2,266.5,0.5,127,123.0
2167,F#1,266.5,0.5,127,123.0
2168,C2,266.5,1.0,127,123.0
2169,F#2,266.5,0.5,127,123.0
2170,E2,267.0,0.5,127,123.0
2171,F#2,267.0,0.5,127,123.0
2172,G1,267.0,0.5,127,123.0
2173,F#2,267.0,0.5,127,123.0
2174,F#3,267.5,0.5,127,123.0
2175,F#1,267.5,0.5,127,123.0
2176,G2,267.5,0.5,127,123.0
2177,D3,267.5,0.5,127,123.0
2178,D2,267.5,0.5,127,123.0
2179,F#2,267.5,0.5,127,123.0
2180,A3,268.0,0.5,127,123.0
2181,E1,268.0,0.5,127,123.0
2182,C2,268.0,0.5,127,123.0
2183,A3,268.0,0.5,127,123.0
2184,C3,268.5,0.5,127,123.0
2185,E1,268.5,0.5,127,123.0
2186,F#2,268.5,0.5,127,123.0
2187,G2,268.5,0.5,127,123.0
2188,D3,268.5,0.5,127,123.0
2189,E5,269.0,0.5,127,123.0
2190,E2,269.0,0.5,127,123.0
2191,B2,269.0,1.0,127,123.0
2192,E1,269.0,0.5,127,123.0
2193,F#2,269.0,0.5,127,123.0
2194,G5,269.5,0.5,127,123.0
2195,E1,269.5,0.5,127,123.0
2196,C#3,269.5,0.5,127,123.0
2197,F#2,269.5,0.5,127,123.0
2198,D2,269.5,0.5,127,123.0
2199,F#2,269.5,0.5,127,123.0
2200,G5,270.0,0.5,127,123.0
2201,E2,270.0,0.5,127,123.0
2202,F#3,270.0,0.5,127,123.0
2203,E1,270.0,0.5,127,123.0
2204,F#2,270.0,0.5,127,123.0
2205,G5,270.5,1.0,127,123.0
2206,F#2,270.5,0.5,127,123.0
2207,E1,270.5,0.5,127,123.0
2208,C2,270.5,1.0,127,123.0
2209,F#2,270.5,0.5,127,123.0
2210,C#3,270.5,0.5,127,123.0
2211,F#2,270.5,0.5,127,123.0
2212,F#2,271.0,0.5,127,123.0
2213,E1,271.0,0.5,127,123.0
2214,F#2,271.0,0.5,127,123.0
2215,G2,271.0,0.5,127,123.0
2216,D3,271.0,0.5,127,123.0
2217,D5,271.5,0.5,127,123.0
2218,F#3,271.5,0.5,127,123.0
2219,E1,271.5,0.5,127,123.0
2220,F#2,271.5,0.5,127,123.0
2221,C#3,271.5,0.5,127,123.0
2222,D2,271.5,0.5,127,123.0
2223,F#2,271.5,0.5,127,123.0
2224,E5,272.0,0.5,127,123.0
2225,A3,272.0,0.5,127,123.0
2226,F1,272.0,0.5,127,123.0
2227,F#2,272.0,0.5,127,123.0
2228,E2,272.0,0.5,127,123.0
2229,B2,272.0,0.5,127,123.0
2230,E5,272.5,1.0,127,123.0
2231,C3,272.5,0.5,127,123.0
2232,E1,272.5,0.5,127,123.0
2233,C2,272.5,1.0,127,123.0
2234,F#2,272.5,0.5,127,123.0
2235,B2,273.0,1.0,127,123.0
2236,E1,273.0,0.5,127,123.0
2237,F#2,273.0,0.5,127,123.0
2238,E2,273.0,0.5,127,123.0
2239,B2,273.0,0.5,127,123.0
2240,E5,273.5,0.5,127,123.0
2241,E2,273.5,0.5,127,123.0
2242,E1,273.5,0.5,127,123.0
2243,D2,273.5,0.5,127,123.0
2244,F#2,273.5,0.5,127,123.0
2245,E5,274.0,0.5,127,123.0
2246,E2,274.0,0.5,127,123.0
2247,F#3,274.0,0.5,127,123.0
2248,E1,274.0,0.5,127,123.0
2249,F#2,274.0,0.5,127,123.0
2250,E5,274.5,0.5,127,123.0
2251,E2,274.5,0.5,127,123.0
2252,F#2,274.5,0.5,127,123.0
2253,E1,274.5,0.5,127,123.0
2254,C2,274.5,1.0,127,123.0
2255,F#2,274.5,0.5,127,123.0
2256,D5,275.0,1.0,127,123.0
2257,E2,275.0,0.5,127,123.0
2258,F#2,275.0,0.5,127,123.0
2259,G#1,275.0,0.5,127,123.0
2260,F#2,275.0,0.5,127,123.0
2261,E2,275.5,0.5,127,123.0
2262,F#3,275.5,0.5,127,123.0
2263,E1,275.5,0.5,127,123.0
2264,D2,275.5,0.5,127,123.0
2265,F#2,275.5,0.5,127,123.0
2266,E5,276.0,0.5,127,123.0
2267,E2,276.0,0.5,127,123.0
2268,A3,276.0,0.5,127,123.0
2269,F1,276.0,0.5,127,123.0
2270,F#2,276.0,0.5,127,123.0
2271,E5,276.5,0.5,127,123.0
2272,C3,276.5,0.5,127,123.0
2273,E1,276.5,0.5,127,123.0
2274,C2,276.5,1.0,127,123.0
2275,F#2,276.5,0.5,127,123.0
2276,C3,276.5,0.5,127,123.0
2277,F2,276.5,0.5,127,123.0
2278,E2,277.0,0.5,127,123.0
2279,B2,277.0,1.0,127,123.0
2280,E1,277.0,0.5,127,123.0
2281,F#2,277.0,0.5,127,123.0
2282,E5,277.5,0.5,127,123.0
2283,E2,277.5,0.5,127,123.0
2284,E1,277.5,0.5,127,123.0
2285,D2,277.5,0.5,127,123.0
2286,F#2,277.5,0.5,127,123.0
2287,E5,278.0,0.5,127,123.0
2288,E2,278.0,0.5,127,123.0
2289,F#3,278.0,1.0,127,123.0
2290,E1,278.0,0.5,127,123.0
2291,F#2,278.0,0.5,127,123.0
2292,B4,278.0,1.0,127,123.0
2293,G4,278.0,1.0,127,123.0
2294,E5,278.5,0.5,127,123.0
2295,E2,278.5,0.5,127,123.0
2296,E1,278.5,0.5,127,123.0
2297,C2,278.5,1.0,127,123.0
2298,F#2,278.5,0.5,127,123.0
2299,B4,279.0,0.5,127,123.0
2300,E2,279.0,0.5,127,123.0
2301,E1,279.0,0.5,127,123.0
2302,F#2,279.0,0.5,127,123.0
2303,G4,279.0,1.0,127,123.0
2304,B4,279.0,1.0,127,123.0
2305,F#2,279.0,1.0,127,123.0
2306,C#3,279.0,1.0,127,123.0
2307,D5,279.5,0.5,127,123.0
2308,E2,279.5,0.5,127,123.0
2309,E1,279.5,0.5,127,123.0
2310,D2,279.5,0.5,127,123.0
2311,F#2,279.5,0.5,127,123.0
2312,E5,280.0,0.5,127,123.0
2313,E2,280.0,0.5,127,123.0
2314,C#3,280.0,0.5,127,123.0
2315,G1,280.0,0.5,127,123.0
2316,F#2,280.0,0.5,127,123.0
2317,B4,280.0,0.5,127,123.0
2318,G4,280.0,0.5,127,123.0
2319,D5,280.5,0.5,127,123.0
2320,E4,280.5,0.5,127,123.0
2321,C3,280.5,0.5,127,123.0
2322,G1,280.5,0.5,127,123.0
2323,C2,280.5,1.0,127,123.0
2324,F#2,280.5,0.5,127,123.0
2325,C3,280.5,0.5,127,123.0
2326,F2,280.5,0.5,127,123.0
2327,D5,280.958,21/500,75,123.0
2328,E5,281.0,2.0,127,123.0
2329,E4,281.0,1.0,127,123.0
2330,E2,281.0,0.5,127,123.0
2331,E1,281.0,0.5,127,123.0
2332,F#2,281.0,0.5,127,123.0
2333,B2,281.0,1.5,127,123.0
2334,F#3,281.0,1.5,127,123.0
2335,E2,281.5,0.5,127,123.0
2336,F#1,281.5,0.5,127,123.0
2337,D2,281.5,0.5,127,123.0
2338,F#2,281.5,0.5,127,123.0
2339,E2,282.0,0.5,127,123.0
2340,E1,282.0,0.5,127,123.0
2341,F#2,282.0,0.5,127,123.0
2342,E2,282.5,0.5,127,123.0
2343,F#1,282.5,0.5,127,123.0
2344,C2,282.5,1.0,127,123.0
2345,F#2,282.5,0.5,127,123.0
2346,F#2,282.5,0.5,127,123.0
2347,C#3,282.5,0.5,127,123.0
2348,E5,283.0,0.5,127,123.0
2349,E2,283.0,0.5,127,123.0
2350,G1,283.0,0.5,127,123.0
2351,F#2,283.0,0.5,127,123.0
2352,E2,283.5,0.5,127,123.0
2353,E1,283.5,0.5,127,123.0
2354,D2,283.5,0.5,127,123.0
2355,F#2,283.5,0.5,127,123.0
2356,E2,284.0,0.5,127,123.0
2357,F#1,284.0,0.5,127,123.0
2358,F#2,284.0,1.0,127,123.0
2359,C#3,284.0,1.0,127,123.0
2360,C2,284.0,0.5,127,123.0
2361,A3,284.0,0.5,127,123.0
2362,F#1,284.5,2.0,127,123.0
2363,D3,284.5,0.5,127,123.0
2364,G2,284.5,0.5,127,123.0
2365,C#3,285.0,0.5,127,123.0
2366,F#2,285.0,0.5,127,123.0
2367,C3,285.5,0.5,127,123.0
2368,F#2,285.5,0.5,127,123.0
2369,D3,285.5,0.5,127,123.0
2370,G2,285.5,0.5,127,123.0
2371,E2,286.0,0.5,127,123.0
2372,F#2,286.0,0.5,127,123.0
2373,B2,286.0,1.5,127,123.0
2374,F#3,286.0,1.5,127,123.0
2375,F#5,286.5,0.5,127,123.0
2376,B1,286.5,1.5,127,123.0
2377,C#3,286.5,0.5,127,123.0
2378,F#2,286.5,0.5,127,123.0
2379,D2,286.5,0.5,127,123.0
2380,F#2,286.5,0.5,127,123.0
2381,F#5,287.0,1.0,127,123.0
2382,E2,287.0,0.5,127,123.0
2383,F#2,287.0,0.5,127,123.0
2384,F#2,287.5,0.5,127,123.0
2385,C#3,287.5,0.5,127,123.0
2386,F#2,287.5,0.5,127,123.0
2387,F#2,287.5,0.5,127,123.0
2388,C#3,287.5,0.5,127,123.0
2389,F#5,288.0,0.5,127,123.0
2390,F#1,288.0,0.5,127,123.0
2391,G2,288.0,0.5,127,123.0
2392,D3,288.0,0.5,127,123.0
2393,C2,288.0,0.5,127,123.0
2394,A3,288.0,0.5,127,123.0
2395,F#5,288.5,0.5,127,123.0
2396,F#1,288.5,2.0,127,123.0
2397,F#2,288.5,0.5,127,123.0
2398,C#3,288.5,0.5,127,123.0
2399,F#2,288.5,0.5,127,123.0
2400,F#5,289.0,1.0,127,123.0
2401,F#2,289.0,0.5,127,123.0
2402,E2,289.0,0.5,127,123.0
2403,B2,289.0,0.5,127,123.0
2404,F#2,289.0,1.0,127,123.0
2405,C#3,289.0,1.0,127,123.0
2406,F#2,289.5,0.5,127,123.0
2407,F#5,289.958,21/500,75,123.0
2408,A5,290.0,0.5,127,123.0
2409,C#3,290.0,0.5,127,123.0
2410,F#2,290.0,0.5,127,123.0
2411,E2,290.0,0.5,127,123.0
2412,B2,290.0,0.5,127,123.0
2413,G5,290.5,0.5,127,123.0
2414,E2,290.5,0.5,127,123.0
2415,C3,290.5,0.5,127,123.0
2416,B1,290.5,1.5,127,123.0
2417,D2,290.5,0.5,127,123.0
2418,F#2,290.5,0.5,127,123.0
2419,F#5,291.0,1.0,127,123.0
2420,E2,291.0,0.5,127,123.0
2421,F#2,291.0,0.5,127,123.0
2422,B2,291.0,1.5,127,123.0
2423,F#3,291.0,1.5,127,123.0
2424,E2,291.5,0.5,127,123.0
2425,F#2,291.5,0.5,127,123.0
2426,E2,292.0,0.5,127,123.0
2427,F#1,292.0,0.5,127,123.0
2428,A3,292.0,0.5,127,123.0
2429,C2,292.0,0.5,127,123.0
2430,E2,292.5,0.5,127,123.0
2431,F#1,292.5,2.0,127,123.0
2432,F#2,292.5,0.5,127,123.0
2433,E2,292.5,0.5,127,123.0
2434,B2,292.5,0.5,127,123.0
2435,E2,293.0,0.5,127,123.0
2436,F#2,293.0,0.5,127,123.0
2437,F#2,293.5,0.5,127,123.0
2438,C3,293.5,0.5,127,123.0
2439,F2,293.5,0.5,127,123.0
2440,E2,294.0,0.5,127,123.0
2441,F#2,294.0,0.5,127,123.0
2442,E2,294.0,1.0,127,123.0
2443,B2,294.0,1.0,127,123.0
2444,A5,294.5,0.5,127,123.0
2445,E2,294.5,0.5,127,123.0
2446,B1,294.5,1.5,127,123.0
2447,D2,294.5,0.5,127,123.0
2448,F#2,294.5,0.5,127,123.0
2449,G#5,295.0,0.5,127,123.0
2450,E2,295.0,0.5,127,123.0
2451,G3,295.0,0.5,127,123.0
2452,F#2,295.0,0.5,127,123.0
2453,F#5,295.5,0.5,127,123.0
2454,E2,295.5,0.5,127,123.0
2455,E3,295.5,0.5,127,123.0
2456,F#2,295.5,0.5,127,123.0
2457,G#5,295.958,21/500,75,123.0
2458,A5,296.0,0.5,127,123.0
2459,E2,296.0,0.5,127,123.0
2460,A3,296.0,0.5,127,123.0
2461,F#1,296.0,0.5,127,123.0
2462,F#2,296.0,0.5,127,123.0
2463,A5,296.5,0.5,127,123.0
2464,E2,296.5,0.5,127,123.0
2465,E3,296.5,0.5,127,123.0
2466,F#1,296.5,0.5,127,123.0
2467,C2,296.5,1.0,127,123.0
2468,D2,296.5,0.5,127,123.0
2469,D3,296.5,0.5,127,123.0
2470,F#5,297.0,1.0,127,123.0
2471,E2,297.0,0.5,127,123.0
2472,B3,297.0,0.5,127,123.0
2473,F#1,297.0,0.5,127,123.0
2474,D2,297.0,0.5,127,123.0
2475,D3,297.0,0.5,127,123.0
2476,G3,297.5,0.5,127,123.0
2477,F#1,297.5,0.5,127,123.0
2478,C2,297.5,1.0,127,123.0
2479,C3,297.5,0.5,127,123.0
2480,F2,297.5,0.5,127,123.0
2481,D2,297.5,0.5,127,123.0
2482,D3,297.5,0.5,127,123.0
2483,F#5,298.0,1.0,127,123.0
2484,E2,298.0,0.5,127,123.0
2485,F#1,298.0,0.5,127,123.0
2486,F#2,298.0,1.0,127,123.0
2487,C#3,298.0,1.0,127,123.0
2488,D2,298.0,0.5,127,123.0
2489,D3,298.0,0.5,127,123.0
2490,E2,298.5,0.5,127,123.0
2491,F#1,298.5,0.5,127,123.0
2492,C2,298.5,1.0,127,123.0
2493,D2,298.5,0.5,127,123.0
2494,D3,298.5,0.5,127,123.0
2495,C#5,299.0,0.5,127,123.0
2496,E2,299.0,0.5,127,123.0
2497,C#3,299.0,0.5,127,123.0
2498,E1,299.0,0.5,127,123.0
2499,D2,299.0,0.5,127,123.0
2500,D3,299.0,0.5,127,123.0
2501,E2,299.5,0.5,127,123.0
2502,C3,299.5,0.5,127,123.0
2503,E1,299.5,0.5,127,123.0
2504,A3,299.5,1.0,127,123.0
2505,D2,299.5,1.0,127,123.0
2506,E2,300.0,0.5,127,123.0
2507,F1,300.0,0.5,127,123.0
2508,B2,300.0,1.5,127,123.0
2509,F#3,300.0,1.5,127,123.0
2510,F#5,300.5,2.0,127,123.0
2511,E2,300.5,0.5,127,123.0
2512,F#1,300.5,0.5,127,123.0
2513,C2,300.5,1.0,127,123.0
2514,A3,300.5,1.0,127,123.0
2515,E2,301.0,0.5,127,123.0
2516,F#1,301.0,0.5,127,123.0
2517,F#1,301.5,0.5,127,123.0
2518,G2,301.5,0.5,127,123.0
2519,D3,301.5,0.5,127,123.0
2520,E2,301.5,0.5,127,123.0
2521,B2,301.5,0.5,127,123.0
2522,D2,301.5,0.5,127,123.0
2523,F#2,301.5,0.5,127,123.0
2524,C2,302.0,0.5,127,123.0
2525,F#2,302.0,0.5,127,123.0
2526,E5,302.5,1.5,127,123.0
2527,B1,302.5,0.5,127,123.0
2528,F#2,302.5,0.5,127,123.0
2529,C2,302.5,1.0,127,123.0
2530,G2,302.5,0.5,127,123.0
2531,D3,302.5,0.5,127,123.0
2532,E2,303.0,0.5,127,123.0
2533,B1,303.0,0.5,127,123.0
2534,F#2,303.0,0.5,127,123.0
2535,E2,303.0,1.0,127,123.0
2536,B2,303.0,1.0,127,123.0
2537,B1,303.5,0.5,127,123.0
2538,C#3,303.5,0.5,127,123.0
2539,F#2,303.5,0.5,127,123.0
2540,D2,303.5,0.5,127,123.0
2541,F#2,303.5,0.5,127,123.0
2542,F#5,304.0,0.5,127,123.0
2543,E2,304.0,0.5,127,123.0
2544,G3,304.0,0.5,127,123.0
2545,F#1,304.0,0.5,127,123.0
2546,F#2,304.0,0.5,127,123.0
2547,F#5,304.5,2.0,127,123.0
2548,E3,304.5,0.5,127,123.0
2549,F#1,304.5,0.5,127,123.0
2550,F#2,304.5,0.5,127,123.0
2551,C2,304.5,1.0,127,123.0
2552,C#3,304.5,0.5,127,123.0
2553,F#2,304.5,0.5,127,123.0
2554,G3,305.0,0.5,127,123.0
2555,F#1,305.0,0.5,127,123.0
2556,F#2,305.0,0.5,127,123.0
2557,G2,305.0,0.5,127,123.0
2558,D3,305.0,0.5,127,123.0
2559,E3,305.5,0.5,127,123.0
2560,F#1,305.5,0.5,127,123.0
2561,C#3,305.5,0.5,127,123.0
2562,F#2,305.5,0.5,127,123.0
2563,D2,305.5,0.5,127,123.0
2564,F#2,305.5,0.5,127,123.0
2565,F#2,306.0,0.5,127,123.0
2566,A3,306.0,0.5,127,123.0
2567,C2,306.0,0.5,127,123.0
2568,F#2,306.0,0.5,127,123.0
2569,F#2,306.5,0.5,127,123.0
2570,E3,306.5,0.5,127,123.0
2571,B1,306.5,0.5,127,123.0
2572,C2,306.5,0.5,127,123.0
2573,F#2,306.5,0.5,127,123.0
2574,F#3,307.0,0.5,127,123.0
2575,B1,307.0,0.5,127,123.0
2576,C2,307.0,0.5,127,123.0
2577,F#2,307.0,0.5,127,123.0
2578,A3,307.5,0.5,127,123.0
2579,B1,307.5,0.5,127,123.0
2580,D2,307.5,0.5,127,123.0
2581,F#2,307.5,0.5,127,123.0
2582,C3,308.0,0.5,127,123.0
2583,F#1,308.0,0.5,127,123.0
2584,F#2,308.0,0.5,127,123.0
2585,F#5,308.5,1.5,127,123.0
2586,B2,308.5,1.0,127,123.0
2587,F#1,308.5,0.5,127,123.0
2588,F#2,308.5,0.5,127,123.0
2589,C2,308.5,1.0,127,123.0
2590,F#1,309.0,0.5,127,123.0
2591,F#2,309.0,0.5,127,123.0
2592,F#3,309.5,0.5,127,123.0
2593,F#1,309.5,0.5,127,123.0
2594,D2,309.5,0.5,127,123.0
2595,F#2,309.5,0.5,127,123.0
2596,E5,310.0,0.5,127,123.0
2597,F#2,310.0,0.5,127,123.0
2598,C2,310.0,0.5,127,123.0
2599,F#2,310.0,0.5,127,123.0
2600,E5,310.5,1.5,127,123.0
2601,F#2,310.5,0.5,127,123.0
2602,B1,310.5,0.5,127,123.0
2603,F#2,310.5,0.5,127,123.0
2604,C2,310.5,1.0,127,123.0
2605,E2,310.5,0.5,127,123.0
2606,B2,310.5,0.5,127,123.0
2607,F#3,311.0,0.5,127,123.0
2608,B1,311.0,0.5,127,123.0
2609,F#2,311.0,0.5,127,123.0
2610,E2,311.0,0.5,127,123.0
2611,B2,311.0,0.5,127,123.0
2612,A3,311.5,0.5,127,123.0
2613,B1,311.5,0.5,127,123.0
2614,F#2,311.5,0.5,127,123.0
2615,C2,311.5,1.0,127,123.0
2616,E2,311.5,0.5,127,123.0
2617,B2,311.5,0.5,127,123.0
2618,G#5,312.0,0.5,127,123.0
2619,C3,312.0,0.5,127,123.0
2620,E3,312.0,0.5,127,123.0
2621,E1,312.0,0.5,127,123.0
2622,A3,312.0,0.5,127,123.0
2623,D2,312.0,0.5,127,123.0
2624,E5,312.5,2.5,127,123.0
2625,B2,312.5,1.0,127,123.0
2626,B-2,312.5,0.5,127,123.0
2627,E1,312.5,0.5,127,123.0
2628,F#2,312.5,0.5,127,123.0
2629,C2,312.5,1.0,127,123.0
2630,A2,313.0,1.0,127,123.0
2631,E2,313.0,0.5,127,123.0
2632,F#2,313.0,0.5,127,123.0
2633,F#3,313.5,0.5,127,123.0
2634,D2,313.5,1.0,127,123.0
2635,D2,313.5,0.5,127,123.0
2636,F#2,313.5,0.5,127,123.0
2637,F#2,314.0,0.5,127,123.0
2638,E2,314.0,0.5,127,123.0
2639,F#2,314.0,0.5,127,123.0
2640,F#2,314.5,0.5,127,123.0
2641,C2,314.5,0.5,127,123.0
2642,B2,314.5,0.5,127,123.0
2643,E2,314.5,0.5,127,123.0
2644,C2,314.5,0.5,127,123.0
2645,F#2,314.5,0.5,127,123.0
2646,F#3,315.0,0.5,127,123.0
2647,B1,315.0,0.5,127,123.0
2648,C2,315.0,0.5,127,123.0
2649,F#2,315.0,0.5,127,123.0
2650,A3,315.5,0.5,127,123.0
2651,A1,315.5,0.5,127,123.0
2652,B2,315.5,0.5,127,123.0
2653,E2,315.5,0.5,127,123.0
2654,D2,315.5,0.5,127,123.0
2655,F#2,315.5,0.5,127,123.0
2656,C3,316.0,0.5,127,123.0
2657,G1,316.0,0.5,127,123.0
2658,E2,316.0,0.5,127,123.0
2659,B2,316.0,0.5,127,123.0
2660,C2,316.0,0.5,127,123.0
2661,F#2,316.0,0.5,127,123.0
2662,E5,316.458,21/500,75,123.0
2663,F#5,316.5,1.5,127,123.0
2664,B2,316.5,1.0,127,123.0
2665,E3,316.5,0.5,127,123.0
2666,F#1,316.5,1.0,127,123.0
2667,C2,316.5,1.0,127,123.0
2668,A3,316.5,1.0,127,123.0
2669,B-2,317.0,0.5,127,123.0
2670,F#3,317.5,0.5,127,123.0
2671,A2,317.5,1.0,127,123.0
2672,F#1,317.5,0.5,127,123.0
2673,F#2,317.5,0.5,127,123.0
2674,D2,317.5,0.5,127,123.0
2675,E5,318.0,1.0,127,123.0
2676,F#2,318.0,0.5,127,123.0
2677,C2,318.0,0.5,127,123.0
2678,F#2,318.0,0.5,127,123.0
2679,F#2,318.5,0.5,127,123.0
2680,E2,318.5,0.5,127,123.0
2681,B1,318.5,0.5,127,123.0
2682,C2,318.5,1.0,127,123.0
2683,F#2,318.5,0.5,127,123.0
2684,E5,319.0,1.0,127,123.0
2685,F#3,319.0,0.5,127,123.0
2686,B1,319.0,0.5,127,123.0
2687,F#2,319.0,0.5,127,123.0
2688,B2,319.0,0.5,127,123.0
2689,E2,319.0,0.5,127,123.0
2690,A3,319.5,0.5,127,123.0
2691,B1,319.5,0.5,127,123.0
2692,C2,319.5,1.0,127,123.0
2693,F#2,319.5,0.5,127,123.0
2694,D5,319.958,21/500,75,123.0
2695,E5,320.0,0.5,127,123.0
2696,C3,320.0,0.5,127,123.0
2697,E1,320.0,0.5,127,123.0
2698,B2,320.0,0.5,127,123.0
2699,E2,320.0,0.5,127,123.0
2700,A3,320.0,0.5,127,123.0
2701,D2,320.0,0.5,127,123.0
2702,E5,320.5,2.0,127,123.0
2703,B2,320.5,1.0,127,123.0
2704,E1,320.5,0.5,127,123.0
2705,C2,320.5,1.0,127,123.0
2706,F#2,320.5,0.5,127,123.0
2707,E2,320.5,0.5,127,123.0
2708,B2,320.5,0.5,127,123.0
2709,E3,321.0,0.5,127,123.0
2710,E1,321.0,0.5,127,123.0
2711,F#2,321.0,0.5,127,123.0
2712,F#3,321.5,1.0,127,123.0
2713,B-2,321.5,0.5,127,123.0
2714,F#1,321.5,0.5,127,123.0
2715,D2,321.5,0.5,127,123.0
2716,F#2,321.5,0.5,127,123.0
2717,A2,322.0,1.0,127,123.0
2718,E1,322.0,0.5,127,123.0
2719,F#2,322.0,0.5,127,123.0
2720,G1,322.5,0.5,127,123.0
2721,F#2,322.5,1.0,127,123.0
2722,C#3,322.5,1.0,127,123.0
2723,C2,322.5,0.5,127,123.0
2724,F#2,322.5,0.5,127,123.0
2725,E2,323.0,0.5,127,123.0
2726,E1,323.0,0.5,127,123.0
2727,C2,323.0,0.5,127,123.0
2728,F#2,323.0,0.5,127,123.0
2729,C#3,323.5,0.5,127,123.0
2730,A1,323.5,0.5,127,123.0
2731,G2,323.5,0.5,127,123.0
2732,D3,323.5,0.5,127,123.0
2733,D2,323.5,0.5,127,123.0
2734,F#2,323.5,0.5,127,123.0
2735,C3,324.0,0.5,127,123.0
2736,E1,324.0,0.5,127,123.0
2737,C2,324.0,0.5,127,123.0
2738,F#2,324.0,0.5,127,123.0
2739,D5,324.25,0.25,127,123.0
2740,D5,324.458,21/500,101,123.0
2741,E4,324.458,21/500,101,123.0
2742,G1,324.5,0.5,127,123.0
2743,D5,324.5,229/500,101,123.0
2744,E4,324.5,229/500,101,123.0
2745,B2,324.5,1.5,127,123.0
2746,F#3,324.5,1.5,127,123.0
2747,G2,324.5,0.5,127,123.0
2748,D3,324.5,0.5,127,123.0
2749,C2,324.5,1.0,127,123.0
2750,A3,324.5,1.0,127,123.0
2751,E4,325.0,0.5,127,123.0
2752,E2,325.0,0.5,127,123.0
2753,E4,325.5,0.5,127,123.0
2754,C#3,325.5,0.5,127,123.0
2755,F#2,325.5,0.5,127,123.0
2756,B3,326.0,0.5,127,123.0
2757,E2,326.0,0.5,127,123.0
2758,F#2,326.0,0.5,127,123.0
2759,C#3,326.0,0.5,127,123.0
2760,B3,326.458,21/500,75,123.0
2761,D4,326.5,0.5,127,123.0
2762,C#3,326.5,0.5,127,123.0
2763,F#2,326.5,0.5,127,123.0
2764,E4,327.0,0.5,127,123.0
2765,G2,327.0,0.5,127,123.0
2766,D3,327.0,0.5,127,123.0
2767,D2,327.458,21/500,100,123.0
2768,E4,327.5,1.0,127,123.0
2769,F#2,327.5,1.0,127,123.0
2770,C#3,327.5,1.0,127,123.0
2771,F#2,327.5,0.5,127,123.0
2772,C#3,327.5,0.5,127,123.0
2773,E1,328.0,0.5,127,123.0
2774,E2,328.0,0.5,127,123.0
2775,B2,328.0,0.5,127,123.0
2776,C2,328.0,0.5,127,123.0
2777,A3,328.0,0.5,127,123.0
2778,E4,328.5,1.0,127,123.0
2779,C#3,328.5,0.5,127,123.0
2780,E1,328.5,0.5,127,123.0
2781,C3,329.0,0.5,127,123.0
2782,E1,329.0,0.5,127,123.0
2783,C2,329.0,0.5,127,123.0
2784,E2,329.0,0.5,127,123.0
2785,B2,329.0,0.5,127,123.0
2786,D2,329.458,21/500,100,123.0
2787,E1,329.5,0.5,127,123.0
2788,D2,329.5,1.0,127,123.0
2789,B2,329.5,1.5,127,123.0
2790,F#3,329.5,1.5,127,123.0
2791,E2,329.5,0.5,127,123.0
2792,B2,329.5,0.5,127,123.0
2793,E3,330.0,0.5,127,123.0
2794,E1,330.0,0.5,127,123.0
2795,C2,330.0,0.5,127,123.0
2796,D2,330.458,21/500,100,123.0
2797,B-2,330.5,0.5,127,123.0
2798,D2,330.5,1.0,127,123.0
2799,E2,330.5,0.5,127,123.0
2800,E1,330.5,0.5,127,123.0
2801,B3,331.0,0.5,120,123.0
2802,A2,331.0,1.0,127,123.0
2803,C2,331.0,0.5,127,123.0
2804,F#2,331.0,0.5,127,123.0
2805,C#3,331.0,0.5,127,123.0
2806,E2,331.0,0.5,127,123.0
2807,E1,331.0,0.5,127,123.0
2808,A3,331.5,1.0,120,123.0
2809,D2,331.5,0.5,127,123.0
2810,E2,331.5,0.5,127,123.0
2811,E1,331.5,0.5,127,123.0
2812,E2,332.0,0.5,127,123.0
2813,E1,332.0,0.5,127,123.0
2814,A3,332.0,0.5,127,123.0
2815,C2,332.0,0.5,127,123.0
2816,E1,332.5,0.5,127,123.0
2817,F#2,332.5,0.5,127,123.0
2818,F#2,332.5,1.0,127,123.0
2819,C#3,332.5,1.0,127,123.0
2820,B2,332.5,0.5,127,123.0
2821,E2,332.5,0.5,127,123.0
2822,E1,333.0,0.5,127,123.0
2823,F#2,333.0,0.5,127,123.0
2824,C#3,333.5,0.5,127,123.0
2825,E1,333.5,0.5,127,123.0
2826,B2,333.5,0.5,127,123.0
2827,E2,333.5,0.5,127,123.0
2828,D2,333.5,0.5,127,123.0
2829,F#2,333.5,0.5,127,123.0
2830,C3,334.0,0.5,127,123.0
2831,B-1,334.0,0.5,127,123.0
2832,F#2,334.0,0.5,127,123.0
2833,E2,334.0,0.5,127,123.0
2834,B2,334.0,0.5,127,123.0
2835,E3,334.5,0.5,127,123.0
2836,A1,334.5,0.5,127,123.0
2837,C2,334.5,1.0,127,123.0
2838,F#2,334.5,0.5,127,123.0
2839,B2,334.5,1.5,127,123.0
2840,F#3,334.5,1.5,127,123.0
2841,B-2,335.0,0.5,127,123.0
2842,A1,335.0,0.5,127,123.0
2843,F#2,335.0,0.5,127,123.0
2844,A2,335.5,1.0,127,123.0
2845,E1,335.5,0.5,127,123.0
2846,D2,335.5,0.5,127,123.0
2847,F#2,335.5,0.5,127,123.0
2848,E1,336.0,0.5,127,123.0
2849,F#2,336.0,0.5,127,123.0
2850,E2,336.0,0.5,127,123.0
2851,B2,336.0,0.5,127,123.0
2852,E2,336.5,0.5,127,123.0
2853,E1,336.5,0.5,127,123.0
2854,C2,336.5,1.0,127,123.0
2855,F#2,336.5,0.5,127,123.0
2856,E1,337.0,0.5,127,123.0
2857,F#2,337.0,0.5,127,123.0
2858,B2,337.0,0.5,127,123.0
2859,E2,337.0,0.5,127,123.0
2860,E1,337.5,0.5,127,123.0
2861,D2,337.5,0.5,127,123.0
2862,F#2,337.5,0.5,127,123.0
2863,B-1,338.0,0.5,127,123.0
2864,F#2,338.0,0.5,127,123.0
2865,B2,338.0,0.5,127,123.0
2866,E2,338.0,0.5,127,123.0
2867,A1,338.5,0.5,127,123.0
2868,C2,338.5,1.0,127,123.0
2869,F#2,338.5,0.5,127,123.0
2870,E2,338.5,0.5,127,123.0
2871,B2,338.5,0.5,127,123.0
2872,E3,339.0,0.5,127,123.0
2873,A1,339.0,0.5,127,123.0
2874,F#2,339.0,0.5,127,123.0
2875,B-2,339.5,0.5,127,123.0
2876,E1,339.5,0.5,127,123.0
2877,D2,339.5,0.5,127,123.0
2878,F#2,339.5,0.5,127,123.0
2879,A2,340.0,1.0,127,123.0
2880,E1,340.0,0.5,127,123.0
2881,F#2,340.0,0.5,127,123.0
2882,E1,340.5,0.5,127,123.0
2883,C2,340.5,1.0,127,123.0
2884,F#2,340.5,0.5,127,123.0
2885,E2,340.5,4.0,127,123.0
2886,B2,340.5,4.0,127,123.0
2887,E2,341.0,0.5,127,123.0
2888,E1,341.0,0.5,127,123.0
2889,F#2,341.0,0.5,127,123.0
2890,E1,341.5,0.5,127,123.0
2891,G2,341.5,0.5,127,123.0
2892,D3,341.5,0.5,127,123.0
2893,D2,341.5,0.5,127,123.0
2894,F#2,341.5,0.5,127,123.0
2895,B-1,342.0,0.5,127,123.0
2896,F#2,342.0,0.5,127,123.0
2897,A1,342.5,1.0,127,123.0
2898,C2,342.5,1.0,127,123.0
2899,F#2,342.5,0.5,127,123.0
2900,G2,342.5,0.5,127,123.0
2901,D3,342.5,0.5,127,123.0
2902,E2,343.0,0.5,127,123.0
2903,F#2,343.0,0.5,127,123.0
2904,E1,343.5,0.5,127,123.0
2905,C#3,343.5,0.5,127,123.0
2906,F#2,343.5,0.5,127,123.0
2907,D2,343.5,0.5,127,123.0
2908,F#2,343.5,0.5,127,123.0
2909,E2,344.0,0.5,127,123.0
2910,G1,344.0,0.5,127,123.0
2911,F#2,344.0,0.5,127,123.0
2912,G1,344.5,0.5,127,123.0
2913,F#2,344.5,0.5,127,123.0
2914,C2,344.5,1.0,127,123.0
2915,F#2,344.5,1.0,127,123.0
2916,C#3,344.5,1.0,127,123.0
2917,C#3,344.5,0.5,127,123.0
2918,F#2,344.5,0.5,127,123.0
2919,D5,345.0,0.5,127,123.0
2920,E1,345.0,0.5,127,123.0
2921,F#2,345.0,0.5,127,123.0
2922,G2,345.0,0.5,127,123.0
2923,D3,345.0,0.5,127,123.0
2924,D5,345.5,0.5,127,123.0
2925,C#3,345.5,0.5,127,123.0
2926,F#1,345.5,0.5,127,123.0
2927,F#2,345.5,0.5,127,123.0
2928,C#3,345.5,0.5,127,123.0
2929,D2,345.5,0.5,127,123.0
2930,F#2,345.5,0.5,127,123.0
2931,D5,346.0,0.5,127,123.0
2932,C3,346.0,0.5,127,123.0
2933,E1,346.0,0.5,127,123.0
2934,E2,346.0,0.5,127,123.0
2935,B2,346.0,0.5,127,123.0
2936,C2,346.0,0.5,127,123.0
2937,F#2,346.0,0.5,127,123.0
2938,B4,346.5,0.5,127,123.0
2939,F#1,346.5,0.5,127,123.0
2940,B2,346.5,1.5,127,123.0
2941,F#3,346.5,1.5,127,123.0
2942,D2,346.5,0.5,127,123.0
2943,F#2,346.5,0.5,127,123.0
2944,A4,347.0,0.5,127,123.0
2945,G1,347.0,0.5,127,123.0
2946,E2,347.0,0.5,127,123.0
2947,B2,347.0,0.5,127,123.0
2948,F#2,347.0,0.5,127,123.0
2949,C2,347.0,0.5,127,123.0
2950,B4,347.5,1.0,127,123.0
2951,E2,347.5,0.5,127,123.0
2952,F#1,347.5,0.5,127,123.0
2953,D2,347.5,0.5,127,123.0
2954,F#2,347.5,0.5,127,123.0
2955,E2,348.0,0.5,127,123.0
2956,E1,348.0,0.5,127,123.0
2957,E2,348.0,0.5,127,123.0
2958,B2,348.0,0.5,127,123.0
2959,A3,348.0,0.5,127,123.0
2960,C2,348.0,0.5,127,123.0
2961,C5,348.5,0.5,127,123.0
2962,E2,348.5,0.5,127,123.0
2963,E1,348.5,0.5,127,123.0
2964,F#2,348.5,0.5,127,123.0
2965,C5,349.0,0.5,127,123.0
2966,E2,349.0,0.5,127,123.0
2967,E1,349.0,0.5,127,123.0
2968,F#2,349.0,0.5,127,123.0
2969,D5,349.5,0.5,127,123.0
2970,E2,349.5,0.5,127,123.0
2971,E1,349.5,0.5,127,123.0
2972,D2,349.5,0.5,127,123.0
2973,F#2,349.5,0.5,127,123.0
2974,D5,350.0,0.5,127,123.0
2975,E2,350.0,0.5,127,123.0
2976,B-1,350.0,0.5,127,123.0
2977,F#2,350.0,0.5,127,123.0
2978,C5,350.5,0.5,127,123.0
2979,A1,350.5,0.5,127,123.0
2980,C2,350.5,1.0,127,123.0
2981,F#2,350.5,0.5,127,123.0
2982,C3,350.5,0.5,127,123.0
2983,F2,350.5,0.5,127,123.0
2984,F#5,351.0,1.0,127,123.0
2985,E2,351.0,0.5,127,123.0
2986,A1,351.0,0.5,127,123.0
2987,F#2,351.0,0.5,127,123.0
2988,E2,351.5,0.5,127,123.0
2989,E1,351.5,0.5,127,123.0
2990,D2,351.5,0.5,127,123.0
2991,F#2,351.5,0.5,127,123.0
2992,F#5,352.0,1.0,127,123.0
2993,E2,352.0,0.5,127,123.0
2994,E1,352.0,0.5,127,123.0
2995,F#2,352.0,0.5,127,123.0
2996,E2,352.5,0.5,127,123.0
2997,E1,352.5,0.5,127,123.0
2998,C2,352.5,1.0,127,123.0
2999,F#2,352.5,0.5,127,123.0
3000,E2,352.5,4.0,127,123.0
3001,B2,352.5,4.0,127,123.0
3002,G4,353.0,0.25,127,123.0
3003,E2,353.0,0.5,127,123.0
3004,E1,353.0,0.5,127,123.0
3005,F#2,353.0,0.5,127,123.0
3006,A4,353.25,0.25,127,123.0
3007,A4,353.5,0.25,127,123.0
3008,E2,353.5,0.5,127,123.0
3009,E1,353.5,0.5,127,123.0
3010,D2,353.5,0.5,127,123.0
3011,F#2,353.5,0.5,127,123.0
3012,A4,353.75,0.25,127,123.0
3013,A4,354.0,0.25,127,123.0
3014,E2,354.0,0.5,127,123.0
3015,B-1,354.0,0.5,127,123.0
3016,F#2,354.0,0.5,127,123.0
3017,G4,354.25,0.25,127,123.0
3018,G4,354.5,0.25,127,123.0
3019,A1,354.5,0.5,127,123.0
3020,C2,354.5,1.0,127,123.0
3021,F#2,354.5,0.5,127,123.0
3022,C3,354.5,0.5,127,123.0
3023,F2,354.5,0.5,127,123.0
3024,G4,354.75,0.25,127,123.0
3025,G4,355.0,0.25,127,123.0
3026,E2,355.0,0.5,127,123.0
3027,A1,355.0,0.5,127,123.0
3028,F#2,355.0,0.5,127,123.0
3029,A4,355.25,0.25,127,123.0
3030,A4,355.5,0.25,127,123.0
3031,E2,355.5,0.5,127,123.0
3032,E1,355.5,0.5,127,123.0
3033,D2,355.5,0.5,127,123.0
3034,F#2,355.5,0.5,127,123.0
3035,A4,355.75,0.25,127,123.0
3036,A4,356.0,0.25,127,123.0
3037,E2,356.0,0.5,127,123.0
3038,E1,356.0,0.5,127,123.0
3039,F#2,356.0,0.5,127,123.0
3040,G4,356.25,0.25,127,123.0
3041,G4,356.5,0.25,127,123.0
3042,E2,356.5,0.5,127,123.0
3043,E1,356.5,0.5,127,123.0
3044,C2,356.5,1.0,127,123.0
3045,F#2,356.5,0.5,127,123.0
3046,G2,356.5,0.5,127,123.0
3047,D3,356.5,0.5,127,123.0
3048,G4,356.75,0.25,127,123.0
3049,A4,357.0,0.25,127,123.0
3050,E2,357.0,0.5,127,123.0
3051,E2,357.0,0.5,127,123.0
3052,E1,357.0,0.5,127,123.0
3053,F#2,357.0,0.5,127,123.0
3054,G4,357.25,0.25,127,123.0
3055,E4,357.5,0.5,127,123.0
3056,E2,357.5,0.5,127,123.0
3057,E1,357.5,0.5,127,123.0
3058,C#3,357.5,0.5,127,123.0
3059,F#2,357.5,0.5,127,123.0
3060,D2,357.5,0.5,127,123.0
3061,F#2,357.5,0.5,127,123.0
3062,E4,358.0,0.25,127,123.0
3063,E2,358.0,0.5,127,123.0
3064,E2,358.0,0.5,127,123.0
3065,B-1,358.0,0.5,127,123.0
3066,F#2,358.0,0.5,127,123.0
3067,D4,358.25,0.25,127,123.0
3068,B3,358.5,0.5,127,123.0
3069,A1,358.5,1.0,127,123.0
3070,C2,358.5,1.0,127,123.0
3071,F#2,358.5,0.5,127,123.0
3072,C#3,358.5,0.5,127,123.0
3073,F#2,358.5,0.5,127,123.0
3074,D3,358.5,0.5,127,123.0
3075,G2,358.5,0.5,127,123.0
3076,B3,359.0,0.25,127,123.0
3077,F#2,359.0,0.5,127,123.0
3078,G2,359.0,0.5,127,123.0
3079,D3,359.0,0.5,127,123.0
3080,A3,359.25,0.25,127,123.0
3081,G3,359.5,0.5,127,123.0
3082,E1,359.5,0.5,127,123.0
3083,D3,359.5,0.5,127,123.0
3084,G2,359.5,0.5,127,123.0
3085,D3,359.5,0.5,127,123.0
3086,G2,359.5,0.5,127,123.0
3087,A2,359.5,0.5,127,123.0
3088,D2,359.5,0.5,127,123.0
3089,F#2,359.5,0.5,127,123.0
3090,E3,360.0,1.0,127,123.0
3091,E2,360.0,0.5,127,123.0
3092,G1,360.0,0.5,127,123.0
3093,E2,360.0,0.5,127,123.0
3094,B2,360.0,0.5,127,123.0
3095,C2,360.0,0.5,127,123.0
3096,F#2,360.0,0.5,127,123.0
3097,G1,360.5,0.5,127,123.0
3098,C#3,360.5,0.5,127,123.0
3099,F#2,360.5,0.5,127,123.0
3100,D2,360.5,0.5,127,123.0
3101,F#2,360.5,0.5,127,123.0
3102,D5,361.0,0.25,127,123.0
3103,E2,361.0,0.5,127,123.0
3104,E1,361.0,0.5,127,123.0
3105,D2,361.0,0.5,127,123.0
3106,F#2,361.0,0.5,127,123.0
3107,E5,361.25,0.25,127,123.0
3108,E5,361.5,0.25,127,123.0
3109,F#1,361.5,0.5,127,123.0
3110,C#3,361.5,0.5,127,123.0
3111,F#2,361.5,0.5,127,123.0
3112,C2,361.5,0.5,127,123.0
3113,F#2,361.5,0.5,127,123.0
3114,E5,361.75,0.25,127,123.0
3115,D5,362.0,0.25,127,123.0
3116,E1,362.0,0.5,127,123.0
3117,G2,362.0,0.5,127,123.0
3118,D3,362.0,0.5,127,123.0
3119,C2,362.0,0.5,127,123.0
3120,F#2,362.0,0.5,127,123.0
3121,E5,362.25,0.25,127,123.0
3122,E5,362.5,0.25,127,123.0
3123,F#1,362.5,0.5,127,123.0
3124,C#3,362.5,0.5,127,123.0
3125,F#2,362.5,0.5,127,123.0
3126,F#2,362.5,0.5,127,123.0
3127,C2,362.5,0.5,127,123.0
3128,E5,362.75,0.25,127,123.0
3129,D5,363.0,0.25,127,123.0
3130,G1,363.0,0.5,127,123.0
3131,E2,363.0,0.5,127,123.0
3132,B2,363.0,0.5,127,123.0
3133,F#2,363.0,0.5,127,123.0
3134,C2,363.0,0.5,127,123.0
3135,E5,363.25,0.25,127,123.0
3136,E5,363.5,0.25,127,123.0
3137,E1,363.5,0.5,127,123.0
3138,D2,363.5,0.5,127,123.0
3139,F#2,363.5,0.5,127,123.0
3140,E5,363.75,0.25,127,123.0
3141,D5,364.0,0.25,127,123.0
3142,F#1,364.0,0.5,127,123.0
3143,E2,364.0,3.5,127,123.0
3144,B2,364.0,3.5,127,123.0
3145,E2,364.0,0.5,127,123.0
3146,B2,364.0,0.5,127,123.0
3147,A3,364.0,0.5,127,123.0
3148,C2,364.0,0.5,127,123.0
3149,E5,364.25,0.25,127,123.0
3150,E5,364.5,0.25,127,123.0
3151,E2,364.5,0.5,127,123.0
3152,F#1,364.5,2.0,127,123.0
3153,F#2,364.5,0.5,127,123.0
3154,E5,364.75,0.25,127,123.0
3155,D5,365.0,0.25,127,123.0
3156,E2,365.0,0.5,127,123.0
3157,F#2,365.0,0.5,127,123.0
3158,E5,365.25,0.25,127,123.0
3159,E5,365.5,0.25,127,123.0
3160,E2,365.5,0.5,127,123.0
3161,F#2,365.5,0.5,127,123.0
3162,E5,365.75,0.125,127,123.0
3163,G5,365.875,0.125,127,123.0
3164,E5,366.0,0.5,127,123.0
3165,E2,366.0,0.5,127,123.0
3166,F#2,366.0,0.5,127,123.0
3167,E5,366.5,0.125,127,123.0
3168,E2,366.5,0.5,127,123.0
3169,B1,366.5,1.5,127,123.0
3170,D2,366.5,0.5,127,123.0
3171,F#2,366.5,0.5,127,123.0
3172,G5,366.625,0.125,127,123.0
3173,E5,366.75,0.25,127,123.0
3174,E5,367.0,0.125,127,123.0
3175,E2,367.0,0.5,127,123.0
3176,F#2,367.0,0.5,127,123.0
3177,G5,367.125,0.125,127,123.0
3178,E5,367.25,0.25,127,123.0
3179,E5,367.5,0.25,127,123.0
3180,F#2,367.5,0.5,127,123.0
3181,E2,367.5,0.5,127,123.0
3182,B2,367.5,0.5,127,123.0
3183,C3,367.5,0.5,127,123.0
3184,F2,367.5,0.5,127,123.0
3185,G5,367.75,0.25,127,123.0
3186,E5,368.0,0.25,127,123.0
3187,E2,368.0,0.5,127,123.0
3188,F#1,368.0,0.5,127,123.0
3189,C2,368.0,0.5,127,123.0
3190,A3,368.0,0.5,127,123.0
3191,E5,368.25,0.25,127,123.0
3192,F#5,368.5,0.25,127,123.0
3193,E2,368.5,0.5,127,123.0
3194,F#1,368.5,2.0,127,123.0
3195,F#2,368.5,0.5,127,123.0
3196,E2,368.5,0.5,127,123.0
3197,B2,368.5,0.5,127,123.0
3198,F#5,368.75,0.25,127,123.0
3199,A5,369.0,0.25,127,123.0
3200,E2,369.0,0.5,127,123.0
3201,F#2,369.0,0.5,127,123.0
3202,E2,369.0,0.5,127,123.0
3203,B2,369.0,0.5,127,123.0
3204,F#5,369.25,0.25,127,123.0
3205,D5,369.5,0.25,127,123.0
3206,E3,369.5,0.5,127,123.0
3207,E2,369.5,0.5,127,123.0
3208,F#2,369.5,0.5,127,123.0
3209,A5,369.75,0.25,127,123.0
3210,F#5,370.0,0.25,127,123.0
3211,B-2,370.0,0.5,127,123.0
3212,E2,370.0,0.5,127,123.0
3213,F#2,370.0,0.5,127,123.0
3214,D5,370.25,0.25,127,123.0
3215,A5,370.5,0.25,127,123.0
3216,A2,370.5,1.0,127,123.0
3217,E2,370.5,0.5,127,123.0
3218,B1,370.5,1.5,127,123.0
3219,D2,370.5,0.5,127,123.0
3220,F#2,370.5,0.5,127,123.0
3221,F#5,370.75,0.25,127,123.0
3222,B5,371.0,0.25,127,123.0
3223,E2,371.0,0.5,127,123.0
3224,F#2,371.0,0.5,127,123.0
3225,G5,371.25,0.25,127,123.0
3226,E5,371.5,0.25,127,123.0
3227,E2,371.5,0.5,127,123.0
3228,F#2,371.5,0.5,127,123.0
3229,C3,371.5,0.5,127,123.0
3230,F2,371.5,0.5,127,123.0
3231,B5,371.75,0.25,127,123.0
3232,G5,372.0,0.25,127,123.0
3233,E2,372.0,0.5,127,123.0
3234,F#1,372.0,0.5,127,123.0
3235,B2,372.0,0.5,127,123.0
3236,E2,372.0,0.5,127,123.0
3237,C2,372.0,0.5,127,123.0
3238,A3,372.0,0.5,127,123.0
3239,E5,372.25,0.25,127,123.0
3240,B5,372.5,0.25,127,123.0
3241,E2,372.5,0.5,127,123.0
3242,F#1,372.5,2.0,127,123.0
3243,F#2,372.5,0.5,127,123.0
3244,G5,372.75,0.25,127,123.0
3245,C#6,373.0,0.25,127,123.0
3246,E2,373.0,0.5,127,123.0
3247,F#2,373.0,0.5,127,123.0
3248,B2,373.0,0.5,127,123.0
3249,E2,373.0,0.5,127,123.0
3250,A5,373.25,0.25,127,123.0
3251,E5,373.5,0.25,127,123.0
3252,E2,373.5,0.5,127,123.0
3253,F#2,373.5,0.5,127,123.0
3254,E2,373.5,0.5,127,123.0
3255,B2,373.5,0.5,127,123.0
3256,C#6,373.75,0.25,127,123.0
3257,A5,374.0,0.25,127,123.0
3258,E3,374.0,0.5,127,123.0
3259,E2,374.0,0.5,127,123.0
3260,F#2,374.0,0.5,127,123.0
3261,E5,374.25,0.125,127,123.0
3262,C#6,374.375,0.125,127,123.0
3263,A5,374.5,0.25,127,123.0
3264,B-2,374.5,0.5,127,123.0
3265,E2,374.5,0.5,127,123.0
3266,B1,374.5,1.5,127,123.0
3267,D2,374.5,0.5,127,123.0
3268,F#2,374.5,0.5,127,123.0
3269,E5,374.75,0.25,127,123.0
3270,D6,375.0,1.5,127,123.0
3271,A2,375.0,1.0,127,123.0
3272,E2,375.0,0.5,127,123.0
3273,F#2,375.0,0.5,127,123.0
3274,F#2,375.5,0.5,127,123.0
3275,G2,375.5,0.5,127,123.0
3276,D3,375.5,0.5,127,123.0
3277,E2,376.0,0.5,127,123.0
3278,F#1,376.0,0.5,127,123.0
3279,F#2,376.0,0.5,127,123.0
3280,F#1,376.5,0.5,127,123.0
3281,C2,376.5,1.0,127,123.0
3282,G#4,376.5,0.5,127,123.0
3283,E4,376.5,0.5,127,123.0
3284,B2,376.5,0.5,127,123.0
3285,E2,376.5,0.5,127,123.0
3286,G2,376.5,0.5,127,123.0
3287,D3,376.5,0.5,127,123.0
3288,D3,376.5,0.5,127,123.0
3289,D2,376.5,0.5,127,123.0
3290,E2,377.0,0.5,127,123.0
3291,F#1,377.0,0.5,127,123.0
3292,D3,377.0,0.5,127,123.0
3293,D2,377.0,0.5,127,123.0
3294,F#1,377.5,0.5,127,123.0
3295,C2,377.5,1.0,127,123.0
3296,B2,377.5,0.5,127,123.0
3297,E2,377.5,0.5,127,123.0
3298,C#3,377.5,0.5,127,123.0
3299,F#2,377.5,0.5,127,123.0
3300,D3,377.5,0.5,127,123.0
3301,D2,377.5,0.5,127,123.0
3302,E2,378.0,0.5,127,123.0
3303,F#1,378.0,0.5,127,123.0
3304,G#4,378.0,1.0,127,123.0
3305,E4,378.0,1.0,127,123.0
3306,E2,378.0,0.5,127,123.0
3307,B2,378.0,0.5,127,123.0
3308,D3,378.0,0.5,127,123.0
3309,D2,378.0,0.5,127,123.0
3310,E3,378.5,0.5,127,123.0
3311,F#1,378.5,0.5,127,123.0
3312,C2,378.5,1.0,127,123.0
3313,C#3,378.5,0.5,127,123.0
3314,F#2,378.5,0.5,127,123.0
3315,D3,378.5,0.5,127,123.0
3316,D2,378.5,0.5,127,123.0
3317,B-2,379.0,0.5,127,123.0
3318,E1,379.0,0.5,127,123.0
3319,G#4,379.0,1.5,127,123.0
3320,E4,379.0,1.5,127,123.0
3321,G2,379.0,0.5,127,123.0
3322,D3,379.0,0.5,127,123.0
3323,D3,379.0,0.5,127,123.0
3324,D2,379.0,0.5,127,123.0
3325,A2,379.5,1.0,127,123.0
3326,E1,379.5,0.5,127,123.0
3327,C#3,379.5,0.5,127,123.0
3328,F#2,379.5,0.5,127,123.0
3329,A3,379.5,1.0,127,123.0
3330,D2,379.5,1.0,127,123.0
3331,F#2,380.0,0.5,127,123.0
3332,F1,380.0,0.5,127,123.0
3333,E2,380.5,0.5,127,123.0
3334,F#2,380.5,0.5,127,123.0
3335,F#1,380.5,0.5,127,123.0
3336,E4,380.5,1.5,127,123.0
3337,G#4,380.5,1.5,127,123.0
3338,A3,380.5,1.0,127,123.0
3339,C2,380.5,1.0,127,123.0
3340,F#3,381.0,0.5,127,123.0
3341,F#1,381.0,0.5,127,123.0
3342,G2,381.0,0.5,127,123.0
3343,D3,381.0,0.5,127,123.0
3344,A3,381.5,0.5,127,123.0
3345,F#1,381.5,0.5,127,123.0
3346,F#2,381.5,0.5,127,123.0
3347,D2,381.5,0.5,127,123.0
3348,C3,382.0,0.5,127,123.0
3349,C2,382.0,0.5,127,123.0
3350,F#2,382.0,0.5,127,123.0
3351,E4,382.0,1.0,127,123.0
3352,G#4,382.0,1.0,127,123.0
3353,G2,382.0,0.5,127,123.0
3354,D3,382.0,0.5,127,123.0
3355,E2,382.5,0.5,127,123.0
3356,B2,382.5,1.0,127,123.0
3357,B1,382.5,0.5,127,123.0
3358,F#2,382.5,0.5,127,123.0
3359,C2,382.5,1.0,127,123.0
3360,B1,383.0,0.5,127,123.0
3361,F#2,383.0,0.5,127,123.0
3362,G#4,383.0,1.0,127,123.0
3363,E4,383.0,1.0,127,123.0
3364,C#3,383.0,0.5,127,123.0
3365,F#2,383.0,0.5,127,123.0
3366,E2,383.5,0.5,127,123.0
3367,F#3,383.5,0.5,127,123.0
3368,B1,383.5,0.5,127,123.0
3369,D2,383.5,0.5,127,123.0
3370,F#2,383.5,0.5,127,123.0
3371,D4,384.0,0.25,127,123.0
3372,F#2,384.0,0.5,127,123.0
3373,F#1,384.0,0.5,127,123.0
3374,F#2,384.0,0.5,127,123.0
3375,C#3,384.0,0.5,127,123.0
3376,F#2,384.0,0.5,127,123.0
3377,B3,384.25,0.75,127,123.0
3378,F#2,384.5,0.5,127,123.0
3379,F#1,384.5,0.5,127,123.0
3380,F#2,384.5,0.5,127,123.0
3381,C2,384.5,1.0,127,123.0
3382,G2,384.5,0.5,127,123.0
3383,D3,384.5,0.5,127,123.0
3384,A3,385.0,0.25,127,123.0
3385,F#3,385.0,0.5,127,123.0
3386,F#1,385.0,0.5,127,123.0
3387,F#2,385.0,0.5,127,123.0
3388,F#2,385.0,0.5,127,123.0
3389,C#3,385.0,0.5,127,123.0
3390,B3,385.25,0.25,127,123.0
3391,D4,385.5,0.25,127,123.0
3392,A3,385.5,0.5,127,123.0
3393,F#1,385.5,0.5,127,123.0
3394,E2,385.5,0.5,127,123.0
3395,B2,385.5,0.5,127,123.0
3396,D2,385.5,0.5,127,123.0
3397,F#2,385.5,0.5,127,123.0
3398,A4,385.75,0.25,127,123.0
3399,A4,386.0,1.0,127,123.0
3400,C3,386.0,0.5,127,123.0
3401,C2,386.0,0.5,127,123.0
3402,F#2,386.0,0.5,127,123.0
3403,B2,386.5,1.0,127,123.0
3404,B1,386.5,0.5,127,123.0
3405,E2,386.5,0.5,127,123.0
3406,B2,386.5,0.5,127,123.0
3407,C2,386.5,0.5,127,123.0
3408,F#2,386.5,0.5,127,123.0
3409,A4,387.0,0.25,127,123.0
3410,B1,387.0,0.5,127,123.0
3411,E2,387.0,0.5,127,123.0
3412,B2,387.0,0.5,127,123.0
3413,C2,387.0,0.5,127,123.0
3414,F#2,387.0,0.5,127,123.0
3415,G#4,387.25,0.25,127,123.0
3416,F#4,387.5,0.25,127,123.0
3417,E3,387.5,0.5,127,123.0
3418,F#3,387.5,0.5,127,123.0
3419,B1,387.5,0.5,127,123.0
3420,D2,387.5,0.5,127,123.0
3421,F#2,387.5,0.5,127,123.0
3422,E4,387.75,0.25,127,123.0
3423,F#4,387.958,21/500,75,123.0
3424,G#4,388.0,0.25,127,123.0
3425,B-2,388.0,0.5,127,123.0
3426,F#2,388.0,0.5,127,123.0
3427,F#1,388.0,0.5,127,123.0
3428,F#2,388.0,0.5,127,123.0
3429,F#4,388.25,0.25,127,123.0
3430,E4,388.5,0.25,127,123.0
3431,A2,388.5,1.0,127,123.0
3432,F#2,388.5,0.5,127,123.0
3433,F#1,388.5,0.5,127,123.0
3434,F#2,388.5,0.5,127,123.0
3435,C2,388.5,1.0,127,123.0
3436,F#4,388.75,0.25,127,123.0
3437,E4,389.0,0.25,127,123.0
3438,F#3,389.0,0.5,127,123.0
3439,F#1,389.0,0.5,127,123.0
3440,F#2,389.0,0.5,127,123.0
3441,D4,389.25,0.25,127,123.0
3442,B3,389.5,0.25,127,123.0
3443,E2,389.5,0.5,127,123.0
3444,A3,389.5,0.5,127,123.0
3445,F#1,389.5,0.5,127,123.0
3446,D2,389.5,0.5,127,123.0
3447,F#2,389.5,0.5,127,123.0
3448,D4,389.75,0.25,127,123.0
3449,E4,390.0,0.25,127,123.0
3450,C3,390.0,0.5,127,123.0
3451,C2,390.0,0.5,127,123.0
3452,F#2,390.0,0.5,127,123.0
3453,B2,390.0,0.5,127,123.0
3454,E2,390.0,0.5,127,123.0
3455,D4,390.25,0.25,127,123.0
3456,B3,390.5,0.25,127,123.0
3457,B2,390.5,1.0,127,123.0
3458,B1,390.5,0.5,127,123.0
3459,F#2,390.5,0.5,127,123.0
3460,C2,390.5,1.0,127,123.0
3461,A3,390.75,0.25,127,123.0
3462,F#3,391.0,0.25,127,123.0
3463,B1,391.0,0.5,127,123.0
3464,F#2,391.0,0.5,127,123.0
3465,B2,391.0,0.5,127,123.0
3466,E2,391.0,0.5,127,123.0
3467,A3,391.25,0.25,127,123.0
3468,B3,391.5,0.25,127,123.0
3469,F#3,391.5,0.5,127,123.0
3470,B1,391.5,0.5,127,123.0
3471,F#2,391.5,0.5,127,123.0
3472,C2,391.5,1.0,127,123.0
3473,E2,391.5,0.5,127,123.0
3474,B2,391.5,0.5,127,123.0
3475,A3,391.75,0.25,127,123.0
3476,F#3,392.0,0.25,127,123.0
3477,E3,392.0,0.5,127,123.0
3478,F#2,392.0,0.5,127,123.0
3479,E1,392.0,0.5,127,123.0
3480,A3,392.0,0.5,127,123.0
3481,D2,392.0,0.5,127,123.0
3482,F3,392.25,0.25,127,123.0
3483,E3,392.5,0.25,127,123.0
3484,B-2,392.5,0.5,127,123.0
3485,F#2,392.5,0.5,127,123.0
3486,E1,392.5,0.5,127,123.0
3487,F#2,392.5,0.5,127,123.0
3488,C2,392.5,1.0,127,123.0
3489,D3,392.75,0.25,127,123.0
3490,B2,393.0,0.5,127,123.0
3491,A2,393.0,1.0,127,123.0
3492,F#3,393.0,0.5,127,123.0
3493,E2,393.0,0.5,127,123.0
3494,F#2,393.0,0.5,127,123.0
3495,A3,393.5,0.5,127,123.0
3496,D2,393.5,1.0,127,123.0
3497,D2,393.5,0.5,127,123.0
3498,F#2,393.5,0.5,127,123.0
3499,B4,394.0,0.5,127,123.0
3500,E2,394.0,0.5,127,123.0
3501,C3,394.0,0.5,127,123.0
3502,F#2,394.0,0.5,127,123.0
3503,A4,394.5,0.5,127,123.0
3504,B2,394.5,1.0,127,123.0
3505,C2,394.5,0.5,127,123.0
3506,B2,394.5,0.5,127,123.0
3507,E2,394.5,0.5,127,123.0
3508,C2,394.5,0.5,127,123.0
3509,F#2,394.5,0.5,127,123.0
3510,F#4,395.0,0.75,127,123.0
3511,B1,395.0,0.5,127,123.0
3512,C2,395.0,0.5,127,123.0
3513,F#2,395.0,0.5,127,123.0
3514,F#3,395.5,1.0,127,123.0
3515,A1,395.5,0.5,127,123.0
3516,B2,395.5,0.5,127,123.0
3517,E2,395.5,0.5,127,123.0
3518,D2,395.5,0.5,127,123.0
3519,F#2,395.5,0.5,127,123.0
3520,A4,395.75,0.25,127,123.0
3521,B4,396.0,0.5,127,123.0
3522,G1,396.0,0.5,127,123.0
3523,E2,396.0,0.5,127,123.0
3524,B2,396.0,0.5,127,123.0
3525,C2,396.0,0.5,127,123.0
3526,F#2,396.0,0.5,127,123.0
3527,A4,396.5,0.5,127,123.0
3528,E3,396.5,0.5,127,123.0
3529,F#1,396.5,1.0,127,123.0
3530,F#2,396.5,1.0,127,123.0
3531,C#3,396.5,1.0,127,123.0
3532,C2,396.5,1.0,127,123.0
3533,A3,396.5,1.0,127,123.0
3534,F#4,397.0,0.75,127,123.0
3535,B-2,397.0,0.5,127,123.0
3536,A2,397.5,1.0,127,123.0
3537,C#3,397.5,0.5,127,123.0
3538,F#1,397.5,0.5,127,123.0
3539,D2,397.5,0.5,127,123.0
3540,F#2,397.5,0.5,127,123.0
3541,A4,397.75,0.25,127,123.0
3542,B4,398.0,0.5,127,123.0
3543,C3,398.0,0.5,127,123.0
3544,C2,398.0,0.5,127,123.0
3545,F#2,398.0,0.5,127,123.0
3546,A4,398.5,0.5,127,123.0
3547,E2,398.5,0.5,127,123.0
3548,B1,398.5,0.5,127,123.0
3549,F#2,398.5,0.5,127,123.0
3550,C2,398.5,1.0,127,123.0
3551,B2,398.5,1.5,127,123.0
3552,F#3,398.5,1.5,127,123.0
3553,F#4,399.0,0.75,127,123.0
3554,B1,399.0,0.5,127,123.0
3555,F#2,399.0,0.5,127,123.0
3556,G2,399.0,0.5,127,123.0
3557,D3,399.0,0.5,127,123.0
3558,B1,399.5,0.5,127,123.0
3559,F#2,399.5,0.5,127,123.0
3560,C2,399.5,1.0,127,123.0
3561,A4,399.75,0.25,127,123.0
3562,B4,400.0,0.5,127,123.0
3563,E1,400.0,0.5,127,123.0
3564,G2,400.0,0.5,127,123.0
3565,D3,400.0,0.5,127,123.0
3566,F#2,400.0,0.5,127,123.0
3567,C#3,400.0,0.5,127,123.0
3568,A3,400.0,0.5,127,123.0
3569,D2,400.0,0.5,127,123.0
3570,A4,400.5,0.5,127,123.0
3571,E2,400.5,0.5,127,123.0
3572,E1,400.5,0.5,127,123.0
3573,F#2,400.5,0.5,127,123.0
3574,C2,400.5,1.0,127,123.0
3575,F#4,401.0,0.5,127,123.0
3576,E1,401.0,0.5,127,123.0
3577,F#2,401.0,0.5,127,123.0
3578,C#3,401.0,0.5,127,123.0
3579,F#2,401.0,0.5,127,123.0
3580,F#4,401.5,0.25,127,123.0
3581,E2,401.5,0.5,127,123.0
3582,F#1,401.5,0.5,127,123.0
3583,F#2,401.5,1.0,127,123.0
3584,C#3,401.5,1.0,127,123.0
3585,D2,401.5,0.5,127,123.0
3586,F#2,401.5,0.5,127,123.0
3587,A4,401.75,0.25,127,123.0
3588,B4,402.0,0.5,127,123.0
3589,E1,402.0,0.5,127,123.0
3590,F#2,402.0,0.5,127,123.0
3591,C#3,402.0,0.5,127,123.0
3592,F#2,402.0,0.5,127,123.0
3593,E5,402.5,0.25,127,123.0
3594,C#3,402.5,0.5,127,123.0
3595,G1,402.5,0.5,127,123.0
3596,G2,402.5,0.5,127,123.0
3597,D3,402.5,0.5,127,123.0
3598,C2,402.5,0.5,127,123.0
3599,F#2,402.5,0.5,127,123.0
3600,B4,402.75,0.5,127,123.0
3601,C3,403.0,0.5,127,123.0
3602,E1,403.0,0.5,127,123.0
3603,C#3,403.0,0.5,127,123.0
3604,F#2,403.0,0.5,127,123.0
3605,C2,403.0,0.5,127,123.0
3606,F#2,403.0,0.5,127,123.0
3607,E5,403.25,0.25,127,123.0
3608,B4,403.5,1.5,127,123.0
3609,F#2,403.5,0.5,127,123.0
3610,A1,403.5,0.5,127,123.0
3611,B2,403.5,1.5,127,123.0
3612,F#3,403.5,1.5,127,123.0
3613,D2,403.5,0.5,127,123.0
3614,F#2,403.5,0.5,127,123.0
3615,F#2,404.0,0.5,127,123.0
3616,E1,404.0,0.5,127,123.0
3617,C2,404.0,0.5,127,123.0
3618,F#2,404.0,0.5,127,123.0
3619,F#3,404.5,0.5,127,123.0
3620,A1,404.5,0.5,127,123.0
3621,C2,404.5,1.0,127,123.0
3622,A3,404.5,1.0,127,123.0
3623,E5,405.0,0.5,127,123.0
3624,A3,405.0,0.5,127,123.0
3625,F#2,405.0,0.5,127,123.0
3626,C#3,405.0,0.5,127,123.0
3627,B4,405.5,0.5,127,123.0
3628,C3,405.5,0.5,127,123.0
3629,B4,406.0,4.0,127,123.0
3630,B2,406.0,1.0,127,123.0
3631,F#2,406.5,1.0,127,123.0
3632,C#3,406.5,1.0,127,123.0
3633,F#3,407.0,0.5,127,123.0
3634,F#2,407.5,0.5,127,123.0
3635,C#3,407.5,0.5,127,123.0
3636,F#2,408.0,0.5,127,123.0
3637,C3,408.0,0.5,127,123.0
3638,F#3,408.5,0.5,127,123.0
3639,E1,408.5,0.5,127,123.0
3640,G2,408.5,0.5,127,123.0
3641,C2,408.5,1.0,127,123.0
3642,B2,408.5,1.5,127,123.0
3643,F#3,408.5,1.5,127,123.0
3644,A3,409.0,0.5,127,123.0
3645,E1,409.0,0.5,127,123.0
3646,G2,409.0,0.5,127,123.0
3647,C3,409.5,0.5,127,123.0
3648,E1,409.5,0.5,127,123.0
3649,C2,409.5,1.0,127,123.0
3650,C3,409.5,0.5,127,123.0
3651,G2,409.5,0.5,127,123.0
3652,C#6,410.0,0.25,127,123.0
3653,B2,410.0,1.0,127,123.0
3654,E1,410.0,0.5,127,123.0
3655,G2,410.0,0.5,127,123.0
3656,E2,410.0,0.5,127,123.0
3657,B2,410.0,0.5,127,123.0
3658,A5,410.25,0.25,127,123.0
3659,E5,410.5,0.25,127,123.0
3660,E1,410.5,0.5,127,123.0
3661,G2,410.5,0.5,127,123.0
3662,C2,410.5,1.0,127,123.0
3663,C#6,410.75,0.25,127,123.0
3664,A5,411.0,0.25,127,123.0
3665,F#3,411.0,0.5,127,123.0
3666,E1,411.0,0.5,127,123.0
3667,G2,411.0,0.5,127,123.0
3668,E5,411.25,0.25,127,123.0
3669,C#6,411.5,0.125,127,123.0
3670,F#2,411.5,0.5,127,123.0
3671,E1,411.5,0.5,127,123.0
3672,C2,411.5,1.0,127,123.0
3673,E2,411.5,1.0,127,123.0
3674,B2,411.5,1.0,127,123.0
3675,C3,411.5,0.5,127,123.0
3676,G2,411.5,0.5,127,123.0
3677,A5,411.625,0.125,127,123.0
3678,E5,411.75,0.25,127,123.0
3679,C#6,412.0,0.25,127,123.0
3680,F#2,412.0,0.5,127,123.0
3681,F1,412.0,0.5,127,123.0
3682,C3,412.0,0.5,127,123.0
3683,G2,412.0,0.5,127,123.0
3684,A5,412.25,0.25,127,123.0
3685,E5,412.5,0.25,127,123.0
3686,F#3,412.5,0.5,127,123.0
3687,G3,412.5,0.5,127,123.0
3688,E1,412.5,0.5,127,123.0
3689,G2,412.5,0.5,127,123.0
3690,C2,412.5,1.0,127,123.0
3691,C#6,412.75,0.25,127,123.0
3692,A5,413.0,0.25,127,123.0
3693,A3,413.0,0.5,127,123.0
3694,E3,413.0,0.5,127,123.0
3695,E1,413.0,0.5,127,123.0
3696,G2,413.0,0.5,127,123.0
3697,E5,413.25,0.25,127,123.0
3698,C#6,413.5,0.125,127,123.0
3699,C3,413.5,0.5,127,123.0
3700,A3,413.5,0.5,127,123.0
3701,E1,413.5,0.5,127,123.0
3702,C2,413.5,1.0,127,123.0
3703,C3,413.5,0.5,127,123.0
3704,G2,413.5,0.5,127,123.0
3705,A5,413.625,0.125,127,123.0
3706,E5,413.75,0.25,127,123.0
3707,D6,414.0,0.5,127,123.0
3708,B2,414.0,1.0,127,123.0
3709,E3,414.0,0.5,127,123.0
3710,E1,414.0,0.5,127,123.0
3711,G2,414.0,0.5,127,123.0
3712,D6,414.5,0.25,127,123.0
3713,B3,414.5,0.5,127,123.0
3714,E1,414.5,0.5,127,123.0
3715,G2,414.5,0.5,127,123.0
3716,C2,414.5,1.0,127,123.0
3717,D6,414.75,0.25,127,123.0
3718,D6,415.0,0.5,127,123.0
3719,F#3,415.0,0.5,127,123.0
3720,G3,415.0,0.5,127,123.0
3721,E1,415.0,0.5,127,123.0
3722,G2,415.0,0.5,127,123.0
3723,D6,415.5,0.25,127,123.0
3724,F#2,415.5,0.5,127,123.0
3725,E1,415.5,0.5,127,123.0
3726,C2,415.5,1.0,127,123.0
3727,F#2,415.5,1.0,127,123.0
3728,C#3,415.5,1.0,127,123.0
3729,C3,415.5,0.5,127,123.0
3730,G2,415.5,0.5,127,123.0
3731,D6,415.75,0.25,127,123.0
3732,D6,416.0,2.0,127,123.0
3733,F#2,416.0,0.5,127,123.0
3734,F1,416.0,0.5,127,123.0
3735,C3,416.0,0.5,127,123.0
3736,G2,416.0,0.5,127,123.0
3737,F#3,416.5,0.5,127,123.0
3738,C#3,416.5,0.5,127,123.0
3739,E1,416.5,0.5,127,123.0
3740,G2,416.5,0.5,127,123.0
3741,C2,416.5,1.0,127,123.0
3742,A3,417.0,0.5,127,123.0
3743,C3,417.0,0.5,127,123.0
3744,E1,417.0,0.5,127,123.0
3745,G2,417.0,0.5,127,123.0
3746,C3,417.5,0.5,127,123.0
3747,E1,417.5,0.5,127,123.0
3748,C2,417.5,1.0,127,123.0
3749,B2,417.5,1.5,127,123.0
3750,F#3,417.5,1.5,127,123.0
3751,C3,417.5,0.5,127,123.0
3752,G2,417.5,0.5,127,123.0
3753,B2,418.0,1.0,127,123.0
3754,E1,418.0,0.5,127,123.0
3755,G2,418.0,0.5,127,123.0
3756,A4,418.5,167/1000,127,123.0
3757,E1,418.5,0.5,127,123.0
3758,G2,418.5,0.5,127,123.0
3759,C2,418.5,1.0,127,123.0
3760,G4,418.667,167/1000,127,123.0
3761,F#4,418.833,167/1000,127,123.0
3762,E4,419.0,0.5,127,123.0
3763,F#3,419.0,1.0,127,123.0
3764,E1,419.0,0.5,127,123.0
3765,G2,419.0,0.5,127,123.0
3766,E2,419.0,0.5,127,123.0
3767,B2,419.0,0.5,127,123.0
3768,E4,419.5,0.25,127,123.0
3769,E1,419.5,0.5,127,123.0
3770,C2,419.5,1.0,127,123.0
3771,C3,419.5,0.5,127,123.0
3772,G2,419.5,0.5,127,123.0
3773,D4,419.75,0.25,127,123.0
3774,B3,420.0,0.5,127,123.0
3775,F1,420.0,0.5,127,123.0
3776,F#2,420.0,1.0,127,123.0
3777,C#3,420.0,1.0,127,123.0
3778,C3,420.0,0.5,127,123.0
3779,G2,420.0,0.5,127,123.0
3780,B3,420.5,0.25,127,123.0
3781,E1,420.5,0.5,127,123.0
3782,C2,420.5,1.0,127,123.0
3783,G2,420.5,0.5,127,123.0
3784,E2,420.5,1.0,127,123.0
3785,B2,420.5,1.0,127,123.0
3786,A3,420.75,0.25,127,123.0
3787,G3,421.0,0.5,127,123.0
3788,C#3,421.0,0.5,127,123.0
3789,E1,421.0,0.5,127,123.0
3790,A3,421.0,0.5,127,123.0
3791,D2,421.0,0.5,127,123.0
3792,A3,421.5,0.5,127,123.0
3793,C3,421.5,0.5,127,123.0
3794,G3,421.5,0.5,127,123.0
3795,E1,421.5,0.5,127,123.0
3796,C2,421.5,1.0,127,123.0
3797,G3,422.0,0.25,127,123.0
3798,E3,422.0,0.5,127,123.0
3799,E1,422.0,0.5,127,123.0
3800,B2,422.0,1.5,127,123.0
3801,F#3,422.0,1.5,127,123.0
3802,D2,422.0,0.5,127,123.0
3803,A3,422.0,0.5,127,123.0
3804,E3,422.25,3.25,127,123.0
3805,G3,422.5,0.5,127,123.0
3806,E1,422.5,0.5,127,123.0
3807,C2,422.5,1.0,127,123.0
3808,E3,423.0,0.5,127,123.0
3809,E1,423.0,0.5,127,123.0
3810,A3,423.0,0.5,127,123.0
3811,D2,423.0,0.5,127,123.0
3812,A3,423.5,0.5,127,123.0
3813,E1,423.5,0.5,127,123.0
3814,C2,423.5,1.0,127,123.0
3815,F#2,423.5,0.5,127,123.0
3816,C#3,423.5,0.5,127,123.0
3817,E2,424.0,0.5,127,123.0
3818,E3,424.0,0.5,127,123.0
3819,F1,424.0,0.5,127,123.0
3820,A3,424.0,0.5,127,123.0
3821,D2,424.0,0.5,127,123.0
3822,C3,424.5,1.0,127,123.0
3823,E2,424.5,0.5,127,123.0
3824,E1,424.5,0.5,127,123.0
3825,G2,424.5,1.0,127,123.0
3826,C2,424.5,1.0,127,123.0
3827,E3,425.0,0.5,127,123.0
3828,E1,425.0,0.5,127,123.0
3829,F#2,425.0,1.0,127,123.0
3830,C#3,425.0,1.0,127,123.0
3831,C3,425.5,0.5,127,123.0
3832,G3,425.5,0.5,127,123.0
3833,D3,425.5,0.25,127,123.0
3834,E1,425.5,0.5,127,123.0
3835,C2,425.5,1.0,127,123.0
3836,C3,425.5,0.5,127,123.0
3837,G2,425.5,0.5,127,123.0
3838,E3,425.75,0.25,127,123.0
3839,C3,426.0,0.5,127,123.0
3840,B-2,426.0,0.5,127,123.0
3841,C#3,426.0,3.5,127,123.0
3842,C#3,426.0,0.5,127,123.0
3843,E1,426.0,0.5,127,123.0
3844,G2,426.0,0.5,127,123.0
3845,C3,426.5,0.5,127,123.0
3846,A2,426.5,1.0,127,123.0
3847,C3,426.5,0.5,127,123.0
3848,E1,426.5,0.5,127,123.0
3849,G2,426.5,0.5,127,123.0
3850,C2,426.5,1.0,127,123.0
3851,C3,427.0,0.5,127,123.0
3852,E1,427.0,0.5,127,123.0
3853,G2,427.0,0.5,127,123.0
3854,B2,427.0,1.5,127,123.0
3855,F#3,427.0,1.5,127,123.0
3856,C3,427.5,0.5,127,123.0
3857,E3,427.5,0.5,127,123.0
3858,E1,427.5,0.5,127,123.0
3859,C2,427.5,1.0,127,123.0
3860,C3,427.5,0.5,127,123.0
3861,G2,427.5,0.5,127,123.0
3862,C3,428.0,0.5,127,123.0
3863,E2,428.0,0.5,127,123.0
3864,F1,428.0,0.5,127,123.0
3865,E2,428.0,0.5,127,123.0
3866,B2,428.0,0.5,127,123.0
3867,D3,428.0,0.5,127,123.0
3868,G2,428.0,0.5,127,123.0
3869,B3,428.5,1.0,127,123.0
3870,E2,428.5,0.5,127,123.0
3871,E1,428.5,0.5,127,123.0
3872,F#2,428.5,0.5,127,123.0
3873,C#3,428.5,0.5,127,123.0
3874,E2,428.5,3.5,127,123.0
3875,B2,428.5,3.5,127,123.0
3876,G2,428.5,1.0,127,123.0
3877,C2,428.5,1.0,127,123.0
3878,E3,429.0,0.5,127,123.0
3879,E1,429.0,0.5,127,123.0
3880,B3,429.5,0.5,127,123.0
3881,G3,429.5,0.5,127,123.0
3882,A2,429.5,0.5,127,123.0
3883,E1,429.5,0.5,127,123.0
3884,C2,429.5,1.0,127,123.0
3885,C3,429.5,0.5,127,123.0
3886,G2,429.5,0.5,127,123.0
3887,B3,430.0,0.5,127,123.0
3888,B-2,430.0,0.5,127,123.0
3889,B2,430.0,4.0,127,123.0
3890,E1,430.0,0.5,127,123.0
3891,G2,430.0,0.5,127,123.0
3892,F#2,430.0,1.0,127,123.0
3893,C#3,430.0,1.0,127,123.0
3894,B3,430.5,0.5,127,123.0
3895,A2,430.5,1.0,127,123.0
3896,E1,430.5,0.5,127,123.0
3897,G2,430.5,0.5,127,123.0
3898,C2,430.5,1.0,127,123.0
3899,B3,431.0,0.5,127,123.0
3900,C#3,431.0,0.5,127,123.0
3901,E1,431.0,0.5,127,123.0
3902,G2,431.0,0.5,127,123.0
3903,B3,431.5,0.5,127,123.0
3904,E3,431.5,0.5,127,123.0
3905,C3,431.5,0.5,127,123.0
3906,E1,431.5,0.5,127,123.0
3907,C2,431.5,1.0,127,123.0
3908,C3,431.5,0.5,127,123.0
3909,G2,431.5,0.5,127,123.0
3910,B3,432.0,0.5,127,123.0
3911,E2,432.0,0.5,127,123.0
3912,F1,432.0,0.5,127,123.0
3913,B2,432.0,1.5,127,123.0
3914,F#3,432.0,1.5,127,123.0
3915,E2,432.0,0.5,127,123.0
3916,B2,432.0,0.5,127,123.0
3917,D3,432.0,0.5,127,123.0
3918,G2,432.0,0.5,127,123.0
3919,C3,432.5,1.0,127,123.0
3920,E2,432.5,0.5,127,123.0
3921,E1,432.5,0.5,127,123.0
3922,G2,432.5,1.0,127,123.0
3923,C2,432.5,1.0,127,123.0
3924,E3,433.0,0.5,127,123.0
3925,E1,433.0,0.5,127,123.0
3926,E2,433.0,0.5,127,123.0
3927,B2,433.0,0.5,127,123.0
3928,C3,433.5,0.5,127,123.0
3929,G3,433.5,0.5,127,123.0
3930,E1,433.5,0.5,127,123.0
3931,C2,433.5,1.0,127,123.0
3932,E2,433.5,0.5,127,123.0
3933,B2,433.5,0.5,127,123.0
3934,E2,433.5,0.5,127,123.0
3935,B2,433.5,0.5,127,123.0
3936,C3,433.5,0.5,127,123.0
3937,G2,433.5,0.5,127,123.0
3938,C3,434.0,0.5,127,123.0
3939,B-2,434.0,0.5,127,123.0
3940,B2,434.0,4.0,127,123.0
3941,E3,434.0,0.5,127,123.0
3942,E1,434.0,0.5,127,123.0
3943,G2,434.0,0.5,127,123.0
3944,C3,434.5,0.5,127,123.0
3945,A2,434.5,1.0,127,123.0
3946,B-2,434.5,0.5,127,123.0
3947,E1,434.5,0.5,127,123.0
3948,G2,434.5,0.5,127,123.0
3949,C2,434.5,1.0,127,123.0
3950,C3,435.0,0.5,127,123.0
3951,A2,435.0,1.0,127,123.0
3952,E1,435.0,0.5,127,123.0
3953,G2,435.0,0.5,127,123.0
3954,C3,435.5,0.5,127,123.0
3955,E3,435.5,0.5,127,123.0
3956,E1,435.5,0.5,127,123.0
3957,C2,435.5,1.0,127,123.0
3958,C3,435.5,0.5,127,123.0
3959,G2,435.5,0.5,127,123.0
3960,C3,436.0,0.5,127,123.0
3961,E2,436.0,0.5,127,123.0
3962,E2,436.0,0.5,127,123.0
3963,F1,436.0,0.5,127,123.0
3964,D3,436.0,0.5,127,123.0
3965,G2,436.0,0.5,127,123.0
3966,B3,436.5,1.0,127,123.0
3967,E2,436.5,0.5,127,123.0
3968,E1,436.5,0.5,127,123.0
3969,G2,436.5,0.5,127,123.0
3970,C2,436.5,1.0,127,123.0
3971,B2,436.5,0.5,127,123.0
3972,E2,436.5,0.5,127,123.0
3973,E3,437.0,0.5,127,123.0
3974,E1,437.0,0.5,127,123.0
3975,C3,437.0,0.5,127,123.0
3976,G2,437.0,0.5,127,123.0
3977,B3,437.5,0.5,127,123.0
3978,G3,437.5,0.5,127,123.0
3979,E1,437.5,0.5,127,123.0
3980,G2,437.5,0.5,127,123.0
3981,C2,437.5,1.0,127,123.0
3982,B2,437.5,0.5,127,123.0
3983,E2,437.5,0.5,127,123.0
3984,B3,438.0,0.5,127,123.0
3985,B-2,438.0,0.5,127,123.0
3986,B2,438.0,4.0,127,123.0
3987,E1,438.0,0.5,127,123.0
3988,E2,438.0,4.0,127,123.0
3989,B2,438.0,4.0,127,123.0
3990,E2,438.0,0.5,127,123.0
3991,B2,438.0,0.5,127,123.0
3992,C3,438.0,0.5,127,123.0
3993,G2,438.0,0.5,127,123.0
3994,B3,438.5,0.5,127,123.0
3995,A2,438.5,1.0,127,123.0
3996,E3,438.5,0.5,127,123.0
3997,E1,438.5,0.5,127,123.0
3998,G2,438.5,0.5,127,123.0
3999,C2,438.5,1.0,127,123.0
4000,B3,439.0,0.5,127,123.0
4001,B-2,439.0,0.5,127,123.0
4002,E1,439.0,0.5,127,123.0
4003,A3,439.0,0.5,127,123.0
4004,D2,439.0,0.5,127,123.0
4005,B3,439.5,0.5,127,123.0
4006,E3,439.5,0.5,127,123.0
4007,A2,439.5,1.0,127,123.0
4008,E1,439.5,0.5,127,123.0
4009,C2,439.5,1.0,127,123.0
4010,B3,440.0,0.5,127,123.0
4011,E2,440.0,0.5,127,123.0
4012,F1,440.0,0.5,127,123.0
4013,D2,440.0,0.5,127,123.0
4014,A3,440.0,0.5,127,123.0
4015,C3,440.5,1.0,127,123.0
4016,E2,440.5,0.5,127,123.0
4017,E2,440.5,0.5,127,123.0
4018,E1,440.5,0.5,127,123.0
4019,G2,440.5,0.5,127,123.0
4020,C2,440.5,1.0,127,123.0
4021,E3,441.0,0.5,127,123.0
4022,E1,441.0,0.5,127,123.0
4023,G2,441.0,0.5,127,123.0
4024,B2,441.0,0.5,127,123.0
4025,E2,441.0,0.5,127,123.0
4026,C3,441.5,0.5,127,123.0
4027,G3,441.5,0.5,127,123.0
4028,E1,441.5,0.5,127,123.0
4029,C2,441.5,1.0,127,123.0
4030,C3,441.5,0.5,127,123.0
4031,G2,441.5,0.5,127,123.0
4032,C3,442.0,0.5,127,123.0
4033,B-2,442.0,0.5,127,123.0
4034,E2,442.0,2.5,127,123.0
4035,E1,442.0,0.5,127,123.0
4036,G2,442.0,0.5,127,123.0
4037,F#2,442.0,1.0,127,123.0
4038,C#3,442.0,1.0,127,123.0
4039,B2,442.0,0.5,127,123.0
4040,E2,442.0,0.5,127,123.0
4041,C3,442.5,0.5,127,123.0
4042,A2,442.5,1.0,127,123.0
4043,E1,442.5,0.5,127,123.0
4044,G2,442.5,0.5,127,123.0
4045,C2,442.5,1.0,127,123.0
4046,E2,442.5,0.5,127,123.0
4047,B2,442.5,0.5,127,123.0
4048,C3,443.0,0.5,127,123.0
4049,C#3,443.0,0.5,127,123.0
4050,E3,443.0,0.5,127,123.0
4051,E1,443.0,0.5,127,123.0
4052,G2,443.0,0.5,127,123.0
4053,C3,443.5,0.5,127,123.0
4054,E3,443.5,0.5,127,123.0
4055,C3,443.5,0.5,127,123.0
4056,B-2,443.5,0.5,127,123.0
4057,E1,443.5,0.5,127,123.0
4058,C2,443.5,1.0,127,123.0
4059,C3,443.5,0.5,127,123.0
4060,G2,443.5,0.5,127,123.0
4061,C3,444.0,0.5,127,123.0
4062,E2,444.0,0.5,127,123.0
4063,A2,444.0,1.0,127,123.0
4064,F1,444.0,0.5,127,123.0
4065,B2,444.0,1.5,127,123.0
4066,F#3,444.0,1.5,127,123.0
4067,D3,444.0,0.5,127,123.0
4068,G2,444.0,0.5,127,123.0
4069,B3,444.5,1.0,127,123.0
4070,E2,444.5,0.5,127,123.0
4071,E1,444.5,0.5,127,123.0
4072,G2,444.5,0.5,127,123.0
4073,C2,444.5,1.0,127,123.0
4074,E3,445.0,0.5,127,123.0
4075,E2,445.0,0.5,127,123.0
4076,E1,445.0,0.5,127,123.0
4077,G2,445.0,0.5,127,123.0
4078,B3,445.5,0.5,127,123.0
4079,G3,445.5,0.5,127,123.0
4080,E1,445.5,0.5,127,123.0
4081,C2,445.5,1.0,127,123.0
4082,E2,445.5,0.5,127,123.0
4083,B2,445.5,0.5,127,123.0
4084,G2,445.5,0.5,127,123.0
4085,D3,445.5,0.5,127,123.0
4086,C3,445.5,0.5,127,123.0
4087,G2,445.5,0.5,127,123.0
4088,B3,446.0,0.5,127,123.0
4089,B-2,446.0,0.5,127,123.0
4090,E1,446.0,0.5,127,123.0
4091,G2,446.0,0.5,127,123.0
4092,B3,446.5,0.5,127,123.0
4093,A2,446.5,1.0,127,123.0
4094,E1,446.5,0.5,127,123.0
4095,G2,446.5,0.5,127,123.0
4096,C2,446.5,1.0,127,123.0
4097,G2,446.5,0.5,127,123.0
4098,D3,446.5,0.5,127,123.0
4099,B3,447.0,0.5,127,123.0
4100,E2,447.0,0.5,127,123.0
4101,E1,447.0,0.5,127,123.0
4102,G2,447.0,0.5,127,123.0
4103,B3,447.5,0.5,127,123.0
4104,E3,447.5,0.5,127,123.0
4105,E1,447.5,0.5,127,123.0
4106,C2,447.5,1.0,127,123.0
4107,C#3,447.5,0.5,127,123.0
4108,F#2,447.5,0.5,127,123.0
4109,C3,447.5,0.5,127,123.0
4110,G2,447.5,0.5,127,123.0
4111,B3,448.0,0.5,127,123.0
4112,C3,448.0,0.5,127,123.0
4113,E2,448.0,0.5,127,123.0
4114,E2,448.0,0.5,127,123.0
4115,F1,448.0,0.5,127,123.0
4116,D3,448.0,0.5,127,123.0
4117,G2,448.0,0.5,127,123.0
4118,C3,448.5,0.5,127,123.0
4119,E2,448.5,0.5,127,123.0
4120,E1,448.5,0.5,127,123.0
4121,G2,448.5,0.5,127,123.0
4122,C2,448.5,1.0,127,123.0
4123,C#3,448.5,0.5,127,123.0
4124,F#2,448.5,0.5,127,123.0
4125,C3,449.0,0.5,127,123.0
4126,E3,449.0,0.5,127,123.0
4127,E1,449.0,0.5,127,123.0
4128,G2,449.0,0.5,127,123.0
4129,G2,449.0,0.5,127,123.0
4130,D3,449.0,0.5,127,123.0
4131,C3,449.5,0.5,127,123.0
4132,G3,449.5,0.5,127,123.0
4133,E1,449.5,0.5,127,123.0
4134,C2,449.5,1.0,127,123.0
4135,F#2,449.5,0.5,127,123.0
4136,C#3,449.5,0.5,127,123.0
4137,C3,449.5,0.5,127,123.0
4138,G2,449.5,0.5,127,123.0
4139,C3,450.0,0.5,127,123.0
4140,B-2,450.0,0.5,127,123.0
4141,E1,450.0,0.5,127,123.0
4142,G2,450.0,0.5,127,123.0
4143,E2,450.0,4.0,127,123.0
4144,B2,450.0,4.0,127,123.0
4145,E2,450.0,0.5,127,123.0
4146,B2,450.0,0.5,127,123.0
4147,C3,450.5,0.5,127,123.0
4148,A2,450.5,1.0,127,123.0
4149,E1,450.5,0.5,127,123.0
4150,G2,450.5,0.5,127,123.0
4151,C2,450.5,1.0,127,123.0
4152,C3,451.0,0.5,127,123.0
4153,E1,451.0,0.5,127,123.0
4154,G2,451.0,0.5,127,123.0
4155,E2,451.0,0.5,127,123.0
4156,B2,451.0,0.5,127,123.0
4157,C3,451.5,0.5,127,123.0
4158,E3,451.5,0.5,127,123.0
4159,E1,451.5,0.5,127,123.0
4160,C2,451.5,1.0,127,123.0
4161,E2,451.5,0.5,127,123.0
4162,B2,451.5,0.5,127,123.0
4163,C3,451.5,0.5,127,123.0
4164,G2,451.5,0.5,127,123.0
4165,B3,452.0,0.5,127,123.0
4166,E2,452.0,0.5,127,123.0
4167,E3,452.0,0.5,127,123.0
4168,F1,452.0,0.5,127,123.0
4169,B2,452.0,0.25,127,123.0
4170,B2,452.25,0.25,127,123.0
4171,B3,452.5,0.5,127,123.0
4172,E2,452.5,0.5,127,123.0
4173,B-2,452.5,0.5,127,123.0
4174,E1,452.5,0.5,127,123.0
4175,B2,452.5,0.25,127,123.0
4176,C2,452.5,1.0,127,123.0
4177,B2,452.75,0.25,127,123.0
4178,B3,453.0,0.5,127,123.0
4179,E3,453.0,0.5,127,123.0
4180,A2,453.0,1.0,127,123.0
4181,E1,453.0,0.5,127,123.0
4182,B2,453.0,0.25,127,123.0
4183,B2,453.25,0.25,127,123.0
4184,B3,453.5,0.5,127,123.0
4185,G3,453.5,0.5,127,123.0
4186,E1,453.5,0.5,127,123.0
4187,C3,453.5,0.5,127,123.0
4188,C2,453.5,1.0,127,123.0
4189,B3,454.0,0.5,127,123.0
4190,B-2,454.0,0.5,127,123.0
4191,E2,454.0,0.5,127,123.0
4192,E1,454.0,0.5,127,123.0
4193,C3,454.0,0.25,127,123.0
4194,B2,454.0,0.5,127,123.0
4195,E2,454.0,0.5,127,123.0
4196,C3,454.25,0.25,127,123.0
4197,B3,454.5,0.5,127,123.0
4198,A2,454.5,1.0,127,123.0
4199,E1,454.5,0.5,127,123.0
4200,D3,454.5,0.25,127,123.0
4201,C2,454.5,1.0,127,123.0
4202,B2,454.5,0.5,127,123.0
4203,E2,454.5,0.5,127,123.0
4204,D3,454.75,0.25,127,123.0
4205,B3,455.0,0.5,127,123.0
4206,E1,455.0,0.5,127,123.0
4207,D3,455.0,0.25,127,123.0
4208,D3,455.25,0.25,127,123.0
4209,B3,455.5,1.0,127,123.0
4210,E3,455.5,0.5,127,123.0
4211,E1,455.5,0.5,127,123.0
4212,G2,455.5,0.5,127,123.0
4213,C2,455.5,1.0,127,123.0
4214,B2,455.5,0.5,127,123.0
4215,E2,455.5,0.5,127,123.0
4216,F#1,456.0,0.5,127,123.0
4217,G2,456.0,0.5,127,123.0
4218,E2,456.0,0.5,127,123.0
4219,B2,456.0,0.5,127,123.0
4220,F#3,456.5,1.0,127,123.0
4221,E3,456.5,0.5,127,123.0
4222,F#1,456.5,0.5,127,123.0
4223,G2,456.5,0.5,127,123.0
4224,C2,456.5,1.0,127,123.0
4225,B-2,457.0,0.5,127,123.0
4226,F#1,457.0,0.5,127,123.0
4227,G2,457.0,0.5,127,123.0
4228,F#3,457.5,0.5,127,123.0
4229,A2,457.5,1.0,127,123.0
4230,F#1,457.5,0.5,127,123.0
4231,A3,457.5,1.0,127,123.0
4232,D2,457.5,1.0,127,123.0
4233,C2,457.5,1.0,127,123.0
4234,F#3,458.0,0.5,127,123.0
4235,F#1,458.0,0.5,127,123.0
4236,F#3,458.5,0.5,127,123.0
4237,E2,458.5,0.5,127,123.0
4238,F#1,458.5,0.5,127,123.0
4239,G2,458.5,0.5,127,123.0
4240,C2,458.5,1.0,127,123.0
4241,F#3,459.0,1.0,127,123.0
4242,F#1,459.0,0.5,127,123.0
4243,G2,459.0,0.5,127,123.0
4244,B2,459.0,0.5,127,123.0
4245,E2,459.0,0.5,127,123.0
4246,F#1,459.5,0.5,127,123.0
4247,C2,459.5,1.0,127,123.0
4248,C3,459.5,0.5,127,123.0
4249,G2,459.5,0.5,127,123.0
4250,E3,460.0,0.5,127,123.0
4251,F#1,460.0,0.5,127,123.0
4252,G2,460.0,0.5,127,123.0
4253,B2,460.0,0.5,127,123.0
4254,E2,460.0,0.5,127,123.0
4255,E3,460.5,0.5,127,123.0
4256,F#1,460.5,0.5,127,123.0
4257,G2,460.5,0.5,127,123.0
4258,C2,460.5,1.0,127,123.0
4259,E2,460.5,0.5,127,123.0
4260,B2,460.5,0.5,127,123.0
4261,F#3,461.0,0.5,127,123.0
4262,E3,461.0,0.5,127,123.0
4263,F#1,461.0,0.5,127,123.0
4264,G2,461.0,0.5,127,123.0
4265,F#3,461.5,0.5,127,123.0
4266,B-2,461.5,0.5,127,123.0
4267,F#1,461.5,0.5,127,123.0
4268,G2,461.5,0.5,127,123.0
4269,C2,461.5,1.0,127,123.0
4270,F#3,462.0,1.5,127,123.0
4271,A2,462.0,1.0,127,123.0
4272,F#1,462.0,0.5,127,123.0
4273,C3,462.0,0.5,127,123.0
4274,G2,462.0,0.5,127,123.0
4275,F#1,462.5,0.5,127,123.0
4276,G2,462.5,0.5,127,123.0
4277,C2,462.5,1.0,127,123.0
4278,E2,463.0,0.5,127,123.0
4279,F#1,463.0,0.5,127,123.0
4280,D2,463.0,0.5,127,123.0
4281,A3,463.0,0.5,127,123.0
4282,F#1,463.5,0.5,127,123.0
4283,C2,463.5,1.0,127,123.0
4284,G2,463.5,0.5,127,123.0
4285,D3,463.5,0.5,127,123.0
4286,G1,464.0,0.5,127,123.0
4287,A3,464.0,0.5,127,123.0
4288,D2,464.0,0.5,127,123.0
4289,F#1,464.5,0.5,127,123.0
4290,G2,464.5,0.5,127,123.0
4291,C2,464.5,1.0,127,123.0
4292,G2,464.5,0.5,127,123.0
4293,D3,464.5,0.5,127,123.0
4294,F#3,465.0,0.5,127,123.0
4295,E2,465.0,0.5,127,123.0
4296,F#1,465.0,0.5,127,123.0
4297,G2,465.0,0.5,127,123.0
4298,F#3,465.5,0.5,127,123.0
4299,F#1,465.5,0.5,127,123.0
4300,C2,465.5,1.0,127,123.0
4301,C#3,465.5,0.5,127,123.0
4302,F#2,465.5,0.5,127,123.0
4303,C3,465.5,0.5,127,123.0
4304,G2,465.5,0.5,127,123.0
4305,F#3,466.0,0.5,127,123.0
4306,E2,466.0,0.5,127,123.0
4307,F#1,466.0,0.5,127,123.0
4308,G2,466.0,0.5,127,123.0
4309,F#3,466.5,0.5,127,123.0
4310,F#1,466.5,0.5,127,123.0
4311,G2,466.5,0.5,127,123.0
4312,C2,466.5,1.0,127,123.0
4313,C#3,466.5,0.5,127,123.0
4314,F#2,466.5,0.5,127,123.0
4315,F#3,467.0,1.0,127,123.0
4316,F#1,467.0,0.5,127,123.0
4317,G2,467.0,0.5,127,123.0
4318,G2,467.0,0.5,127,123.0
4319,D3,467.0,0.5,127,123.0
4320,F#1,467.5,0.5,127,123.0
4321,C2,467.5,1.0,127,123.0
4322,C#3,467.5,0.5,127,123.0
4323,F#2,467.5,0.5,127,123.0
4324,C3,467.5,0.5,127,123.0
4325,G2,467.5,0.5,127,123.0
4326,E3,468.0,0.5,127,123.0
4327,F#2,468.0,0.5,127,123.0
4328,F#1,468.0,0.5,127,123.0
4329,D3,468.0,0.5,127,123.0
4330,G2,468.0,0.5,127,123.0
4331,F#3,468.5,0.5,127,123.0
4332,F#2,468.5,0.5,127,123.0
4333,F#1,468.5,0.5,127,123.0
4334,G2,468.5,0.5,127,123.0
4335,C2,468.5,1.0,127,123.0
4336,F#3,469.0,1.5,127,123.0
4337,F#3,469.0,0.5,127,123.0
4338,F#1,469.0,0.5,127,123.0
4339,G2,469.0,0.5,127,123.0
4340,A3,469.5,0.5,127,123.0
4341,F#1,469.5,0.5,127,123.0
4342,C2,469.5,1.0,127,123.0
4343,C3,469.5,0.5,127,123.0
4344,G2,469.5,0.5,127,123.0
4345,C3,470.0,0.5,127,123.0
4346,F#1,470.0,0.5,127,123.0
4347,G2,470.0,0.5,127,123.0
4348,B2,470.5,1.0,127,123.0
4349,F#1,470.5,0.5,127,123.0
4350,G2,470.5,0.5,127,123.0
4351,C2,470.5,1.0,127,123.0
4352,F#1,471.0,0.5,127,123.0
4353,D2,471.0,0.5,127,123.0
4354,A3,471.0,0.5,127,123.0
4355,F#3,471.5,0.5,127,123.0
4356,F#1,471.5,0.5,127,123.0
4357,C2,471.5,1.0,127,123.0
4358,F#2,472.0,0.5,127,123.0
4359,G1,472.0,0.5,127,123.0
4360,D2,472.0,0.5,127,123.0
4361,A3,472.0,0.5,127,123.0
4362,F#2,472.5,0.5,127,123.0
4363,F#1,472.5,0.5,127,123.0
4364,G2,472.5,0.5,127,123.0
4365,C2,472.5,1.0,127,123.0
4366,F#3,473.0,0.5,127,123.0
4367,F#1,473.0,0.5,127,123.0
4368,G2,473.0,0.5,127,123.0
4369,C#5,473.0,0.5,109,123.0
4370,F#5,473.0,0.5,109,123.0
4371,F#3,473.0,0.5,109,123.0
4372,A3,473.5,0.5,127,123.0
4373,F#1,473.5,0.5,127,123.0
4374,C2,473.5,1.0,127,123.0
4375,C#5,473.5,0.5,109,123.0
4376,F#5,473.5,0.5,109,123.0
4377,F#3,473.5,0.5,109,123.0
4378,C3,473.5,0.5,127,123.0
4379,G2,473.5,0.5,127,123.0
4380,C3,474.0,0.5,127,123.0
4381,F#1,474.0,0.5,127,123.0
4382,G2,474.0,0.5,127,123.0
4383,C#5,474.0,0.5,109,123.0
4384,F#5,474.0,0.5,109,123.0
4385,F#3,474.0,0.5,109,123.0
4386,B2,474.5,1.0,127,123.0
4387,F#1,474.5,0.5,127,123.0
4388,G2,474.5,0.5,127,123.0
4389,C2,474.5,1.0,127,123.0
4390,C#5,474.5,1.0,109,123.0
4391,F#5,474.5,1.0,109,123.0
4392,F#3,474.5,1.0,109,123.0
4393,F#1,475.0,0.5,127,123.0
4394,G2,475.0,0.5,127,123.0
4395,F#3,475.5,0.5,127,123.0
4396,F#1,475.5,0.5,127,123.0
4397,C2,475.5,1.0,127,123.0
4398,C#5,475.5,0.5,109,123.0
4399,F#5,475.5,0.5,109,123.0
4400,F#3,475.5,0.5,109,123.0
4401,C3,475.5,0.5,127,123.0
4402,G2,475.5,0.5,127,123.0
4403,F#2,476.0,0.5,127,123.0
4404,F#1,476.0,0.5,127,123.0
4405,B4,476.0,0.5,109,123.0
4406,E5,476.0,0.5,109,123.0
4407,E3,476.0,0.5,109,123.0
4408,D3,476.0,0.5,127,123.0
4409,G2,476.0,0.5,127,123.0
4410,F#2,476.5,0.5,127,123.0
4411,F#1,476.5,0.5,127,123.0
4412,G2,476.5,0.5,127,123.0
4413,C2,476.5,1.0,127,123.0
4414,B4,476.5,0.5,109,123.0
4415,E5,476.5,0.5,109,123.0
4416,E3,476.5,0.5,109,123.0
4417,F#3,477.0,0.5,127,123.0
4418,F#1,477.0,0.5,127,123.0
4419,G2,477.0,0.5,127,123.0
4420,C#5,477.0,1.0,109,123.0
4421,F#5,477.0,1.0,109,123.0
4422,F#3,477.0,1.0,109,123.0
4423,A3,477.5,0.5,127,123.0
4424,F#1,477.5,0.5,127,123.0
4425,C2,477.5,1.0,127,123.0
4426,C3,477.5,0.5,127,123.0
4427,G2,477.5,0.5,127,123.0
4428,C3,478.0,0.5,127,123.0
4429,F#1,478.0,0.5,127,123.0
4430,G2,478.0,0.5,127,123.0
4431,C#5,478.0,1.5,109,123.0
4432,F#5,478.0,1.5,109,123.0
4433,F#3,478.0,1.5,109,123.0
4434,B2,478.5,1.0,127,123.0
4435,F#1,478.5,0.5,127,123.0
4436,G2,478.5,0.5,127,123.0
4437,C2,478.5,1.0,127,123.0
4438,F#1,479.0,0.5,127,123.0
4439,G2,479.0,0.5,127,123.0
4440,F#3,479.5,0.5,127,123.0
4441,F#1,479.5,0.5,127,123.0
4442,C2,479.5,1.0,127,123.0
4443,C3,479.5,0.5,127,123.0
4444,G2,479.5,0.5,127,123.0
4445,F#2,480.0,0.5,127,123.0
4446,G1,480.0,0.5,127,123.0
4447,D3,480.0,0.5,127,123.0
4448,G2,480.0,0.5,127,123.0
4449,F#2,480.5,0.5,127,123.0
4450,F#1,480.5,0.5,127,123.0
4451,C2,480.5,1.0,127,123.0
4452,D3,480.5,0.5,127,123.0
4453,D2,480.5,0.5,127,123.0
4454,F#3,481.0,0.5,127,123.0
4455,F#1,481.0,0.5,127,123.0
4456,D3,481.0,0.5,127,123.0
4457,D2,481.0,0.5,127,123.0
4458,A3,481.5,0.5,127,123.0
4459,F#1,481.5,0.5,127,123.0
4460,C2,481.5,1.0,127,123.0
4461,F#3,481.5,0.5,109,123.0
4462,C#5,481.5,0.5,109,123.0
4463,F#5,481.5,0.5,109,123.0
4464,D3,481.5,0.5,127,123.0
4465,D2,481.5,0.5,127,123.0
4466,C3,482.0,0.5,127,123.0
4467,F#1,482.0,0.5,127,123.0
4468,F#3,482.0,0.5,109,123.0
4469,C#5,482.0,0.5,109,123.0
4470,F#5,482.0,0.5,109,123.0
4471,D3,482.0,0.5,127,123.0
4472,D2,482.0,0.5,127,123.0
4473,B2,482.5,1.0,127,123.0
4474,F#1,482.5,0.5,127,123.0
4475,C2,482.5,1.0,127,123.0
4476,F#3,482.5,0.5,109,123.0
4477,B4,482.5,0.5,109,123.0
4478,F#5,482.5,0.5,109,123.0
4479,D3,482.5,0.5,127,123.0
4480,D2,482.5,0.5,127,123.0
4481,F#1,483.0,0.5,127,123.0
4482,F#3,483.0,1.0,109,123.0
4483,C#5,483.0,1.0,109,123.0
4484,F#5,483.0,1.0,109,123.0
4485,D3,483.0,0.5,127,123.0
4486,D2,483.0,0.5,127,123.0
4487,F#3,483.5,1.0,127,123.0
4488,F#1,483.5,0.5,127,123.0
4489,C2,483.5,1.0,127,123.0
4490,D3,483.5,0.5,127,123.0
4491,D2,483.5,0.5,127,123.0
4492,F#1,484.0,0.5,127,123.0
4493,F#3,484.0,0.5,109,123.0
4494,C#5,484.0,0.5,109,123.0
4495,F#5,484.0,0.5,109,123.0
4496,D3,484.0,0.5,127,123.0
4497,D2,484.0,0.5,127,123.0
4498,F#1,484.5,0.5,127,123.0
4499,C2,484.5,1.0,127,123.0
4500,F#3,484.5,0.5,109,123.0
4501,C#5,484.5,0.5,109,123.0
4502,F#5,484.5,0.5,109,123.0
4503,F#2,484.5,1.0,127,123.0
4504,C#3,484.5,1.0,127,123.0
4505,D2,484.5,0.5,127,123.0
4506,D3,484.5,0.5,127,123.0
4507,F#1,485.0,0.5,127,123.0
4508,G#3,485.0,1.0,109,123.0
4509,B4,485.0,1.0,109,123.0
4510,G#5,485.0,1.0,109,123.0
4511,D2,485.0,0.5,127,123.0
4512,D3,485.0,0.5,127,123.0
4513,C#3,485.5,0.5,127,123.0
4514,F#1,485.5,0.5,127,123.0
4515,C2,485.5,1.0,127,123.0
4516,D2,485.5,0.5,127,123.0
4517,D3,485.5,0.5,127,123.0
4518,G#3,485.958,21/500,89,123.0
4519,B4,485.958,21/500,89,123.0
4520,G#5,485.958,21/500,89,123.0
4521,C3,486.0,0.5,127,123.0
4522,F#1,486.0,0.5,127,123.0
4523,A3,486.0,2.5,109,123.0
4524,C#5,486.0,2.5,109,123.0
4525,A5,486.0,2.5,109,123.0
4526,D2,486.0,0.5,127,123.0
4527,D3,486.0,0.5,127,123.0
4528,D2,486.458,21/500,100,123.0
4529,F#1,486.5,0.5,127,123.0
4530,D2,486.5,1.0,127,123.0
4531,B2,486.5,1.5,127,123.0
4532,F#3,486.5,1.5,127,123.0
4533,E1,487.0,0.5,127,123.0
4534,C2,487.0,0.5,127,123.0
4535,D2,487.458,21/500,100,123.0
4536,E1,487.5,0.5,127,123.0
4537,D2,487.5,1.0,127,123.0
4538,F1,488.0,0.5,127,123.0
4539,C2,488.0,0.5,127,123.0
4540,F#2,488.0,0.5,127,123.0
4541,C#3,488.0,0.5,127,123.0
4542,F#5,488.5,2.0,127,123.0
4543,F#1,488.5,1.0,127,123.0
4544,C2,488.5,1.0,127,123.0
4545,A3,488.5,1.0,127,123.0
4546,F#1,489.5,0.5,127,123.0
4547,F#2,489.5,1.0,127,123.0
4548,C#3,489.5,1.0,127,123.0
4549,D2,489.5,0.5,127,123.0
4550,F#2,489.5,0.5,127,123.0
4551,C2,490.0,0.5,127,123.0
4552,F#2,490.0,0.5,127,123.0
4553,E5,490.5,1.5,127,123.0
4554,C#3,490.5,0.5,127,123.0
4555,B1,490.5,0.5,127,123.0
4556,F#2,490.5,0.5,127,123.0
4557,C2,490.5,1.0,127,123.0
4558,C3,491.0,0.5,127,123.0
4559,B1,491.0,0.5,127,123.0
4560,F#2,491.0,0.5,127,123.0
4561,B1,491.5,0.5,127,123.0
4562,B2,491.5,1.5,127,123.0
4563,F#3,491.5,1.5,127,123.0
4564,D2,491.5,0.5,127,123.0
4565,F#2,491.5,0.5,127,123.0
4566,F#5,492.0,0.5,127,123.0
4567,F#1,492.0,0.5,127,123.0
4568,F#2,492.0,0.5,127,123.0
4569,F#5,492.5,2.0,127,123.0
4570,F#1,492.5,0.5,127,123.0
4571,F#2,492.5,0.5,127,123.0
4572,C2,492.5,1.0,127,123.0
4573,F#1,493.0,0.5,127,123.0
4574,F#2,493.0,0.5,127,123.0
4575,F#2,493.0,0.5,127,123.0
4576,C#3,493.0,0.5,127,123.0
4577,F#1,493.5,0.5,127,123.0
4578,D2,493.5,0.5,127,123.0
4579,F#2,493.5,0.5,127,123.0
4580,C2,494.0,0.5,127,123.0
4581,F#2,494.0,0.5,127,123.0
4582,B1,494.5,0.5,127,123.0
4583,F#2,494.5,1.0,127,123.0
4584,C#3,494.5,1.0,127,123.0
4585,C2,494.5,0.5,127,123.0
4586,F#2,494.5,0.5,127,123.0
4587,B1,495.0,0.5,127,123.0
4588,C2,495.0,0.5,127,123.0
4589,F#2,495.0,0.5,127,123.0
4590,C#3,495.5,0.5,127,123.0
4591,B1,495.5,0.5,127,123.0
4592,D2,495.5,0.5,127,123.0
4593,F#2,495.5,0.5,127,123.0
4594,C3,496.0,0.5,127,123.0
4595,F#1,496.0,0.5,127,123.0
4596,F#2,496.0,0.5,127,123.0
4597,F#5,496.5,1.5,127,123.0
4598,F#1,496.5,0.5,127,123.0
4599,F#2,496.5,0.5,127,123.0
4600,C2,496.5,1.0,127,123.0
4601,B2,496.5,1.5,127,123.0
4602,F#3,496.5,1.5,127,123.0
4603,F#1,497.0,0.5,127,123.0
4604,F#2,497.0,0.5,127,123.0
4605,F#1,497.5,0.5,127,123.0
4606,D2,497.5,0.5,127,123.0
4607,F#2,497.5,0.5,127,123.0
4608,E5,498.0,0.5,127,123.0
4609,C2,498.0,0.5,127,123.0
4610,F#2,498.0,0.5,127,123.0
4611,E2,498.0,0.5,127,123.0
4612,B2,498.0,0.5,127,123.0
4613,E5,498.5,1.5,127,123.0
4614,B1,498.5,0.5,127,123.0
4615,F#2,498.5,0.5,127,123.0
4616,C2,498.5,1.0,127,123.0
4617,B1,499.0,0.5,127,123.0
4618,F#2,499.0,0.5,127,123.0
4619,B1,499.5,0.5,127,123.0
4620,F#2,499.5,0.5,127,123.0
4621,C2,499.5,1.0,127,123.0
4622,E2,499.5,1.0,127,123.0
4623,B2,499.5,1.0,127,123.0
4624,G#5,500.0,0.5,127,123.0
4625,E1,500.0,0.5,127,123.0
4626,A3,500.0,0.5,127,123.0
4627,D2,500.0,0.5,127,123.0
4628,E5,500.5,2.5,127,123.0
4629,G3,500.5,0.5,127,123.0
4630,E1,500.5,0.5,127,123.0
4631,F#2,500.5,0.5,127,123.0
4632,C2,500.5,1.0,127,123.0
4633,E3,501.0,0.5,127,123.0
4634,E2,501.0,0.5,127,123.0
4635,F#2,501.0,0.5,127,123.0
4636,A3,501.5,0.5,127,123.0
4637,E1,501.5,0.5,127,123.0
4638,D2,501.5,0.5,127,123.0
4639,F#2,501.5,0.5,127,123.0
4640,E3,502.0,0.5,127,123.0
4641,D2,502.0,0.5,127,123.0
4642,F#2,502.0,0.5,127,123.0
4643,B3,502.5,0.5,127,123.0
4644,E1,502.5,0.5,127,123.0
4645,C2,502.5,0.5,127,123.0
4646,F#2,502.5,0.5,127,123.0
4647,G3,503.0,0.5,127,123.0
4648,B1,503.0,0.5,127,123.0
4649,C2,503.0,0.5,127,123.0
4650,F#2,503.0,0.5,127,123.0
4651,E2,503.5,0.5,127,123.0
4652,F#2,503.5,1.0,127,123.0
4653,C#3,503.5,1.0,127,123.0
4654,D2,503.5,0.5,127,123.0
4655,F#2,503.5,0.5,127,123.0
4656,G1,504.0,0.5,127,123.0
4657,C2,504.0,0.5,127,123.0
4658,F#2,504.0,0.5,127,123.0
4659,B4,504.458,21/500,70,123.0
4660,E5,504.458,21/500,108,123.0
4661,C#5,504.458,21/500,108,123.0
4662,F#5,504.458,21/500,108,123.0
4663,C#3,504.5,0.5,127,123.0
4664,F#1,504.5,0.5,127,123.0
4665,E5,504.5,729/500,108,123.0
4666,C#5,504.5,729/500,108,123.0
4667,F#5,504.5,729/500,108,123.0
4668,C2,504.5,1.0,127,123.0
4669,A3,504.5,1.0,127,123.0
4670,C3,505.0,0.5,127,123.0
4671,F#1,505.0,0.5,127,123.0
4672,F#2,505.5,0.5,127,123.0
4673,F#1,505.5,0.5,127,123.0
4674,B2,505.5,1.5,127,123.0
4675,F#3,505.5,1.5,127,123.0
4676,F#2,505.5,0.5,127,123.0
4677,D2,505.5,0.5,127,123.0
4678,F#2,506.0,0.5,127,123.0
4679,C2,506.0,0.5,127,123.0
4680,F#2,506.0,0.5,127,123.0
4681,B4,506.0,1.0,108,123.0
4682,E5,506.0,1.0,108,123.0
4683,F#3,506.5,0.5,127,123.0
4684,B1,506.5,0.5,127,123.0
4685,C2,506.5,1.0,127,123.0
4686,F#2,506.5,0.5,127,123.0
4687,A3,507.0,0.5,127,123.0
4688,B1,507.0,0.5,127,123.0
4689,F#2,507.0,0.5,127,123.0
4690,B4,507.0,1.0,108,123.0
4691,E5,507.0,1.0,108,123.0
4692,E2,507.0,0.5,127,123.0
4693,B2,507.0,0.5,127,123.0
4694,C3,507.5,0.5,127,123.0
4695,B1,507.5,0.5,127,123.0
4696,C2,507.5,1.0,127,123.0
4697,F#2,507.5,0.5,127,123.0
4698,B2,508.0,1.0,127,123.0
4699,E1,508.0,0.5,127,123.0
4700,B4,508.0,0.5,108,123.0
4701,E5,508.0,0.5,108,123.0
4702,A3,508.0,0.5,127,123.0
4703,D2,508.0,0.5,127,123.0
4704,E1,508.5,0.5,127,123.0
4705,C2,508.5,1.0,127,123.0
4706,F#2,508.5,0.5,127,123.0
4707,B4,508.5,3.0,108,123.0
4708,E5,508.5,3.0,108,123.0
4709,E2,508.5,1.0,127,123.0
4710,B2,508.5,1.0,127,123.0
4711,F#3,509.0,0.5,127,123.0
4712,E1,509.0,0.5,127,123.0
4713,F#2,509.0,0.5,127,123.0
4714,F#2,509.5,0.5,127,123.0
4715,G3,509.5,0.5,127,123.0
4716,E1,509.5,0.5,127,123.0
4717,D2,509.5,0.5,127,123.0
4718,F#2,509.5,0.5,127,123.0
4719,F#2,510.0,0.5,127,123.0
4720,E3,510.0,0.5,127,123.0
4721,E1,510.0,0.5,127,123.0
4722,F#2,510.0,0.5,127,123.0
4723,D2,510.458,21/500,100,123.0
4724,F#3,510.5,0.5,127,123.0
4725,G3,510.5,0.5,127,123.0
4726,E1,510.5,0.5,127,123.0
4727,D2,510.5,1.0,127,123.0
4728,A3,511.0,0.5,127,123.0
4729,E3,511.0,0.5,127,123.0
4730,E1,511.0,0.5,127,123.0
4731,C2,511.0,0.5,127,123.0
4732,D2,511.458,21/500,100,123.0
4733,C3,511.5,0.5,127,123.0
4734,A3,511.5,0.5,127,123.0
4735,E1,511.5,0.5,127,123.0
4736,D2,511.5,1.0,127,123.0
4737,B2,512.0,1.0,127,123.0
4738,E3,512.0,0.5,127,123.0
4739,F1,512.0,0.5,127,123.0
4740,C2,512.0,0.5,127,123.0
4741,F#5,512.5,2.0,127,123.0
4742,F#1,512.5,0.5,127,123.0
4743,E2,512.5,0.5,127,123.0
4744,B2,512.5,0.5,127,123.0
4745,C2,512.5,1.0,127,123.0
4746,A3,512.5,1.0,127,123.0
4747,F#3,513.0,0.5,127,123.0
4748,F#1,513.0,0.5,127,123.0
4749,F#2,513.5,0.5,127,123.0
4750,F#1,513.5,0.5,127,123.0
4751,D2,513.5,0.5,127,123.0
4752,F#2,513.5,0.5,127,123.0
4753,F#2,514.0,0.5,127,123.0
4754,C2,514.0,0.5,127,123.0
4755,F#2,514.0,0.5,127,123.0
4756,E5,514.5,1.5,127,123.0
4757,F#3,514.5,0.5,127,123.0
4758,B1,514.5,0.5,127,123.0
4759,F#2,514.5,0.5,127,123.0
4760,C2,514.5,1.0,127,123.0
4761,A3,515.0,0.5,127,123.0
4762,B1,515.0,0.5,127,123.0
4763,F#2,515.0,0.5,127,123.0
4764,C3,515.5,0.5,127,123.0
4765,B1,515.5,0.5,127,123.0
4766,D2,515.5,0.5,127,123.0
4767,F#2,515.5,0.5,127,123.0
4768,F#5,516.0,0.5,127,123.0
4769,B2,516.0,1.0,127,123.0
4770,F#1,516.0,0.5,127,123.0
4771,F#2,516.0,0.5,127,123.0
4772,F#5,516.5,2.0,127,123.0
4773,F#1,516.5,0.5,127,123.0
4774,F#2,516.5,0.5,127,123.0
4775,C2,516.5,1.0,127,123.0
4776,F#3,517.0,0.5,127,123.0
4777,F#1,517.0,0.5,127,123.0
4778,F#2,517.0,0.5,127,123.0
4779,F#2,517.5,0.5,127,123.0
4780,F#1,517.5,0.5,127,123.0
4781,D2,517.5,0.5,127,123.0
4782,F#2,517.5,0.5,127,123.0
4783,F#2,518.0,0.5,127,123.0
4784,C2,518.0,0.5,127,123.0
4785,F#2,518.0,0.5,127,123.0
4786,F#3,518.5,0.5,127,123.0
4787,B1,518.5,0.5,127,123.0
4788,C2,518.5,0.5,127,123.0
4789,F#2,518.5,0.5,127,123.0
4790,A3,519.0,0.5,127,123.0
4791,B1,519.0,0.5,127,123.0
4792,C2,519.0,0.5,127,123.0
4793,F#2,519.0,0.5,127,123.0
4794,C3,519.5,0.5,127,123.0
4795,B1,519.5,0.5,127,123.0
4796,D2,519.5,0.5,127,123.0
4797,F#2,519.5,0.5,127,123.0
4798,B2,520.0,1.0,127,123.0
4799,F#1,520.0,0.5,127,123.0
4800,F#2,520.0,0.5,127,123.0
4801,F#5,520.5,1.5,127,123.0
4802,F#1,520.5,0.5,127,123.0
4803,F#2,520.5,0.5,127,123.0
4804,C2,520.5,1.0,127,123.0
4805,F#3,521.0,0.5,127,123.0
4806,F#1,521.0,0.5,127,123.0
4807,F#2,521.0,0.5,127,123.0
4808,F#2,521.5,0.5,127,123.0
4809,F#1,521.5,0.5,127,123.0
4810,D2,521.5,0.5,127,123.0
4811,F#2,521.5,0.5,127,123.0
4812,E5,522.0,0.5,127,123.0
4813,F#2,522.0,0.5,127,123.0
4814,C2,522.0,0.5,127,123.0
4815,F#2,522.0,0.5,127,123.0
4816,E5,522.5,1.5,127,123.0
4817,F#3,522.5,0.5,127,123.0
4818,B1,522.5,0.5,127,123.0
4819,F#2,522.5,0.5,127,123.0
4820,C2,522.5,1.0,127,123.0
4821,A3,523.0,0.5,127,123.0
4822,B1,523.0,0.5,127,123.0
4823,F#2,523.0,0.5,127,123.0
4824,C3,523.5,0.5,127,123.0
4825,B1,523.5,0.5,127,123.0
4826,F#2,523.5,0.5,127,123.0
4827,C2,523.5,1.0,127,123.0
4828,G#5,524.0,0.5,127,123.0
4829,B2,524.0,1.0,127,123.0
4830,E1,524.0,0.5,127,123.0
4831,A3,524.0,0.5,127,123.0
4832,D2,524.0,0.5,127,123.0
4833,F#5,524.458,21/500,107,123.0
4834,G#5,524.5,0.5,127,123.0
4835,E1,524.5,0.5,127,123.0
4836,F#2,524.5,0.5,127,123.0
4837,C2,524.5,1.0,127,123.0
4838,E5,525.0,2.0,127,123.0
4839,F#3,525.0,0.5,127,123.0
4840,A1,525.0,0.25,127,123.0
4841,F#2,525.0,0.5,127,123.0
4842,B1,525.25,0.25,127,123.0
4843,F#2,525.5,0.5,127,123.0
4844,D2,525.5,1.0,127,123.0
4845,D2,525.5,0.5,127,123.0
4846,F#2,525.5,0.5,127,123.0
4847,F#2,526.0,0.5,127,123.0
4848,F#2,526.0,0.5,127,123.0
4849,F#3,526.5,0.5,127,123.0
4850,E2,526.5,0.5,127,123.0
4851,C2,526.5,0.5,127,123.0
4852,F#2,526.5,0.5,127,123.0
4853,A3,527.0,0.5,127,123.0
4854,D2,527.0,0.5,127,123.0
4855,C2,527.0,0.5,127,123.0
4856,F#2,527.0,0.5,127,123.0
4857,C3,527.5,0.5,127,123.0
4858,B1,527.5,0.5,127,123.0
4859,D2,527.5,0.5,127,123.0
4860,F#2,527.5,0.5,127,123.0
4861,B2,528.0,1.0,127,123.0
4862,G1,528.0,0.5,127,123.0
4863,C2,528.0,0.5,127,123.0
4864,F#2,528.0,0.5,127,123.0
4865,B4,528.458,21/500,70,123.0
4866,E5,528.458,21/500,108,123.0
4867,C#5,528.458,21/500,108,123.0
4868,F#5,528.458,21/500,108,123.0
4869,F#1,528.5,0.5,127,123.0
4870,E5,528.5,1229/500,108,123.0
4871,C#5,528.5,1229/500,108,123.0
4872,F#5,528.5,1229/500,108,123.0
4873,C2,528.5,1.0,127,123.0
4874,A3,528.5,1.0,127,123.0
4875,F#3,529.0,0.5,127,123.0
4876,F#1,529.0,0.5,127,123.0
4877,F#2,529.5,0.5,127,123.0
4878,F#1,529.5,0.5,127,123.0
4879,F#2,529.5,0.5,127,123.0
4880,D2,529.5,0.5,127,123.0
4881,F#2,530.0,0.5,127,123.0
4882,C2,530.0,0.5,127,123.0
4883,F#2,530.0,0.5,127,123.0
4884,F#3,530.5,0.5,127,123.0
4885,B1,530.5,0.5,127,123.0
4886,C2,530.5,1.0,127,123.0
4887,F#2,530.5,0.5,127,123.0
4888,F#5,530.958,1.0,117,123.0
4889,G#5,530.958,1.0,117,123.0
4890,A3,531.0,0.5,127,123.0
4891,B1,531.0,0.5,127,123.0
4892,F#2,531.0,0.5,127,123.0
4893,C3,531.5,0.5,127,123.0
4894,B1,531.5,0.5,127,123.0
4895,C2,531.5,1.0,127,123.0
4896,F#2,531.5,0.5,127,123.0
4897,D5,531.958,21/500,107,123.0
4898,E5,532.0,0.5,127,123.0
4899,B2,532.0,1.0,127,123.0
4900,E1,532.0,0.5,127,123.0
4901,A3,532.0,0.5,127,123.0
4902,D2,532.0,0.5,127,123.0
4903,E5,532.5,3.0,127,123.0
4904,E1,532.5,0.5,127,123.0
4905,C2,532.5,1.0,127,123.0
4906,F#2,532.5,0.5,127,123.0
4907,F#3,533.0,0.5,127,123.0
4908,E1,533.0,0.5,127,123.0
4909,F#2,533.0,0.5,127,123.0
4910,F#2,533.5,0.5,127,123.0
4911,F#1,533.5,0.5,127,123.0
4912,D2,533.5,0.5,127,123.0
4913,F#2,533.5,0.5,127,123.0
4914,F#2,534.0,0.5,127,123.0
4915,E1,534.0,0.5,127,123.0
4916,F#2,534.0,0.5,127,123.0
4917,F#3,534.5,0.5,127,123.0
4918,G1,534.5,0.5,127,123.0
4919,C2,534.5,0.5,127,123.0
4920,F#2,534.5,0.5,127,123.0
4921,A3,535.0,0.5,127,123.0
4922,E1,535.0,0.5,127,123.0
4923,C2,535.0,0.5,127,123.0
4924,F#2,535.0,0.5,127,123.0
4925,C3,535.5,0.5,127,123.0
4926,A1,535.5,0.5,127,123.0
4927,D2,535.5,0.5,127,123.0
4928,F#2,535.5,0.5,127,123.0
4929,B2,536.0,1.0,127,123.0
4930,E1,536.0,0.5,127,123.0
4931,C2,536.0,0.5,127,123.0
4932,F#2,536.0,0.5,127,123.0
4933,D5,536.25,0.25,127,123.0
4934,D5,536.458,21/500,107,123.0
4935,E5,536.5,0.5,127,123.0
4936,G1,536.5,0.5,127,123.0
4937,E5,537.0,0.5,127,123.0
4938,F#3,537.0,1.0,127,123.0
4939,E5,537.5,0.5,127,123.0
4940,B4,538.0,0.5,127,123.0
4941,F#2,538.0,1.0,127,123.0
4942,C#3,538.0,1.0,127,123.0
4943,B4,538.458,21/500,107,123.0
4944,D5,538.5,0.5,127,123.0
4945,E5,539.0,0.5,127,123.0
4946,C#3,539.0,0.5,127,123.0
4947,E5,539.5,1.0,127,123.0
4948,C3,539.5,0.5,127,123.0
4949,E1,540.0,0.5,127,123.0
4950,B2,540.0,1.5,127,123.0
4951,F#3,540.0,1.5,127,123.0
4952,C2,540.0,0.5,127,123.0
4953,A3,540.0,0.5,127,123.0
4954,E5,540.5,1.0,127,123.0
4955,E1,540.5,4.0,127,123.0
4956,F#2,541.5,0.5,127,123.0
4957,C#3,541.5,0.5,127,123.0
4958,E4,543.0,1.5,127,123.0
4959,F#2,543.0,1.0,127,123.0
4960,C#3,543.0,1.0,127,123.0
4961,C#3,544.0,0.5,127,123.0
4962,C3,544.5,0.5,127,123.0
4963,E1,544.5,4.0,127,123.0
4964,B2,545.0,1.5,127,123.0
4965,F#3,545.0,1.5,127,123.0
4966,E4,545.5,0.5,127,123.0
4967,E4,546.0,0.5,127,123.0
4968,E4,546.5,0.5,127,123.0
4969,F#2,546.5,0.5,127,123.0
4970,C#3,546.5,0.5,127,123.0
4971,E4,547.0,0.5,127,123.0
4972,E4,547.5,0.5,127,123.0
4973,E4,548.0,0.5,127,123.0
4974,F#2,548.0,1.0,127,123.0
4975,C#3,548.0,1.0,127,123.0
4976,E1,548.5,3.5,127,123.0
4977,C#3,549.0,0.5,127,123.0
4978,C3,549.5,0.5,127,123.0
4979,B2,550.0,1.5,127,123.0
4980,F#3,550.0,1.5,127,123.0
4981,E2,551.5,0.5,127,123.0
4982,B2,551.5,0.5,127,123.0
4983,E5,552.0,0.5,127,123.0
4984,E1,552.0,0.5,127,123.0
4985,D2,552.0,0.5,127,123.0
4986,A3,552.0,0.5,127,123.0
4987,E5,552.5,1.0,127,123.0
4988,E1,552.5,0.5,127,123.0
4989,E1,553.0,0.5,127,123.0
4990,F#2,553.0,0.5,127,123.0
4991,E1,553.5,0.5,127,123.0
4992,F#2,553.5,0.5,127,123.0
4993,B-1,554.0,0.5,127,123.0
4994,D2,554.0,0.5,127,123.0
4995,F#2,554.0,0.5,127,123.0
4996,A1,554.5,0.5,127,123.0
4997,C2,554.5,1.0,127,123.0
4998,F#2,554.5,0.5,127,123.0
4999,A1,555.0,0.5,127,123.0
5000,F#2,555.0,0.5,127,123.0
5001,A1,555.5,0.5,127,123.0
5002,D2,555.5,0.5,127,123.0
5003,F#2,555.5,0.5,127,123.0
5004,E1,556.0,0.5,127,123.0
5005,F#2,556.0,0.5,127,123.0
5006,E2,556.0,4.0,127,123.0
5007,B2,556.0,4.0,127,123.0
5008,E1,556.5,0.5,127,123.0
5009,C2,556.5,1.0,127,123.0
5010,F#2,556.5,0.5,127,123.0
5011,E1,557.0,0.5,127,123.0
5012,F#2,557.0,0.5,127,123.0
5013,E1,557.5,0.5,127,123.0
5014,D2,557.5,0.5,127,123.0
5015,F#2,557.5,0.5,127,123.0
5016,B-1,558.0,0.5,127,123.0
5017,F#2,558.0,0.5,127,123.0
5018,A1,558.5,0.5,127,123.0
5019,C2,558.5,1.0,127,123.0
5020,F#2,558.5,0.5,127,123.0
5021,G#5,559.0,0.5,127,123.0
5022,A1,559.0,0.5,127,123.0
5023,F#2,559.0,0.5,127,123.0
5024,E5,559.5,0.5,127,123.0
5025,A1,559.5,0.5,127,123.0
5026,D2,559.5,0.5,127,123.0
5027,F#2,559.5,0.5,127,123.0
5028,F#5,559.958,21/500,107,123.0
5029,G#5,560.0,0.5,127,123.0
5030,E1,560.0,0.5,127,123.0
5031,F#2,560.0,1.0,127,123.0
5032,C#3,560.0,1.0,127,123.0
5033,A3,560.0,0.5,127,123.0
5034,C2,560.0,0.5,127,123.0
5035,E5,560.458,21/500,107,123.0
5036,G#5,560.5,3.0,127,123.0
5037,E1,560.5,0.5,127,123.0
5038,F#2,560.5,0.5,127,123.0
5039,C#3,561.0,0.5,127,123.0
5040,E1,561.0,0.5,127,123.0
5041,F#2,561.0,0.5,127,123.0
5042,C3,561.5,0.5,127,123.0
5043,E1,561.5,0.5,127,123.0
5044,D2,561.5,0.5,127,123.0
5045,F#2,561.5,0.5,127,123.0
5046,B-1,562.0,0.5,127,123.0
5047,F#2,562.0,0.5,127,123.0
5048,B2,562.0,1.5,127,123.0
5049,F#3,562.0,1.5,127,123.0
5050,A1,562.5,0.5,127,123.0
5051,C2,562.5,1.0,127,123.0
5052,F#2,562.5,0.5,127,123.0
5053,A1,563.0,0.5,127,123.0
5054,F#2,563.0,0.5,127,123.0
5055,A1,563.5,0.5,127,123.0
5056,E2,563.5,0.5,127,123.0
5057,B2,563.5,0.5,127,123.0
5058,D2,563.5,0.5,127,123.0
5059,F#2,563.5,0.5,127,123.0
5060,E1,564.0,0.5,127,123.0
5061,F#2,564.0,0.5,127,123.0
5062,E1,564.5,0.5,127,123.0
5063,C2,564.5,1.0,127,123.0
5064,F#2,564.5,0.5,127,123.0
5065,E1,565.0,0.5,127,123.0
5066,F#2,565.0,0.5,127,123.0
5067,E1,565.5,0.5,127,123.0
5068,D2,565.5,0.5,127,123.0
5069,F#2,565.5,0.5,127,123.0
5070,B-1,566.0,0.5,127,123.0
5071,F#2,566.0,0.5,127,123.0
5072,A1,566.5,0.5,127,123.0
5073,C2,566.5,1.0,127,123.0
5074,F#2,566.5,0.5,127,123.0
5075,A1,567.0,0.5,127,123.0
5076,F#2,567.0,0.5,127,123.0
5077,E2,567.0,3.0,127,123.0
5078,B2,567.0,3.0,127,123.0
5079,A1,567.5,0.5,127,123.0
5080,D2,567.5,0.5,127,123.0
5081,F#2,567.5,0.5,127,123.0
5082,E1,568.0,0.5,127,123.0
5083,F#2,568.0,0.5,127,123.0
5084,E1,568.5,0.5,127,123.0
5085,C2,568.5,1.0,127,123.0
5086,F#2,568.5,0.5,127,123.0
5087,E1,569.0,0.5,127,123.0
5088,F#2,569.0,0.5,127,123.0
5089,E1,569.5,0.5,127,123.0
5090,D2,569.5,0.5,127,123.0
5091,F#2,569.5,0.5,127,123.0
5092,E2,570.0,0.5,127,123.0
5093,B-1,570.0,0.5,127,123.0
5094,F#2,570.0,0.5,127,123.0
5095,E2,570.5,0.5,127,123.0
5096,A1,570.5,0.5,127,123.0
5097,C2,570.5,1.0,127,123.0
5098,F#2,570.5,0.5,127,123.0
5099,A1,571.0,0.5,127,123.0
5100,F#2,571.0,0.5,127,123.0
5101,F#2,571.0,1.0,127,123.0
5102,C#3,571.0,1.0,127,123.0
5103,E1,571.5,0.5,127,123.0
5104,D2,571.5,0.5,127,123.0
5105,F#2,571.5,0.5,127,123.0
5106,F#5,572.0,0.5,127,123.0
5107,C#3,572.0,0.5,127,123.0
5108,G1,572.0,0.5,127,123.0
5109,F#2,572.0,0.25,127,123.0
5110,D2,572.25,0.25,127,123.0
5111,F#5,572.5,0.25,127,123.0
5112,C3,572.5,0.5,127,123.0
5113,G1,572.5,0.5,127,123.0
5114,D2,572.5,0.5,127,123.0
5115,E5,572.75,0.25,127,123.0
5116,D5,573.0,1.5,127,123.0
5117,E1,573.0,0.5,127,123.0
5118,B2,573.0,0.5,127,123.0
5119,B2,573.0,1.5,127,123.0
5120,F#3,573.0,1.5,127,123.0
5121,F#1,573.5,0.5,127,123.0
5122,B2,573.5,0.5,127,123.0
5123,E1,574.0,0.5,127,123.0
5124,C3,574.0,0.25,127,123.0
5125,C3,574.25,0.25,127,123.0
5126,E5,574.5,1.5,127,123.0
5127,F#1,574.5,0.5,127,123.0
5128,D2,574.5,0.25,127,123.0
5129,F#2,574.5,0.5,127,123.0
5130,C#3,574.5,0.5,127,123.0
5131,D2,574.75,0.25,127,123.0
5132,G1,575.0,0.5,127,123.0
5133,C3,575.0,0.25,127,123.0
5134,C3,575.25,0.25,127,123.0
5135,F#1,575.5,0.5,127,123.0
5136,D2,575.5,0.25,127,123.0
5137,D2,575.75,0.25,127,123.0
5138,E2,576.0,0.5,127,123.0
5139,E1,576.0,0.5,127,123.0
5140,C3,576.0,0.25,127,123.0
5141,F#2,576.0,1.0,127,123.0
5142,C#3,576.0,1.0,127,123.0
5143,C3,576.25,0.25,127,123.0
5144,E2,576.5,0.5,127,123.0
5145,E1,576.5,0.5,127,123.0
5146,G2,576.5,0.5,127,123.0
5147,C2,576.5,1.0,127,123.0
5148,E3,577.0,0.5,127,123.0
5149,C#3,577.0,0.5,127,123.0
5150,E1,577.0,0.5,127,123.0
5151,G2,577.0,0.5,127,123.0
5152,G3,577.5,0.5,127,123.0
5153,C3,577.5,0.5,127,123.0
5154,E1,577.5,0.5,127,123.0
5155,A3,577.5,1.0,127,123.0
5156,D2,577.5,1.0,127,123.0
5157,C2,577.5,1.0,127,123.0
5158,B-2,578.0,0.5,127,123.0
5159,E1,578.0,0.5,127,123.0
5160,B2,578.0,1.5,127,123.0
5161,F#3,578.0,1.5,127,123.0
5162,A2,578.5,1.0,127,123.0
5163,E1,578.5,0.5,127,123.0
5164,G2,578.5,0.5,127,123.0
5165,C2,578.5,1.0,127,123.0
5166,E1,579.0,0.5,127,123.0
5167,G2,579.0,0.5,127,123.0
5168,E3,579.5,0.5,127,123.0
5169,E1,579.5,0.5,127,123.0
5170,C2,579.5,1.0,127,123.0
5171,F#2,579.5,0.5,127,123.0
5172,C#3,579.5,0.5,127,123.0
5173,C3,579.5,0.5,127,123.0
5174,G2,579.5,0.5,127,123.0
5175,E2,580.0,0.5,127,123.0
5176,F1,580.0,0.5,127,123.0
5177,D3,580.0,0.5,127,123.0
5178,G2,580.0,0.5,127,123.0
5179,E2,580.5,0.5,127,123.0
5180,E1,580.5,0.5,127,123.0
5181,G2,580.5,0.5,127,123.0
5182,C2,580.5,1.0,127,123.0
5183,E3,581.0,0.5,127,123.0
5184,E1,581.0,0.5,127,123.0
5185,G2,581.0,0.5,127,123.0
5186,F#2,581.0,1.0,127,123.0
5187,C#3,581.0,1.0,127,123.0
5188,G3,581.5,0.5,127,123.0
5189,E1,581.5,0.5,127,123.0
5190,G2,581.5,0.5,127,123.0
5191,C2,581.5,1.0,127,123.0
5192,B-2,582.0,0.5,127,123.0
5193,C#3,582.0,0.5,127,123.0
5194,E1,582.0,0.5,127,123.0
5195,C3,582.0,0.5,127,123.0
5196,G2,582.0,0.5,127,123.0
5197,A2,582.5,1.0,127,123.0
5198,C3,582.5,0.5,127,123.0
5199,E1,582.5,0.5,127,123.0
5200,G2,582.5,0.5,127,123.0
5201,C2,582.5,1.0,127,123.0
5202,E1,583.0,0.5,127,123.0
5203,G2,583.0,0.5,127,123.0
5204,B2,583.0,1.5,127,123.0
5205,F#3,583.0,1.5,127,123.0
5206,E3,583.5,0.5,127,123.0
5207,E1,583.5,0.5,127,123.0
5208,C2,583.5,1.0,127,123.0
5209,C3,583.5,0.5,127,123.0
5210,G2,583.5,0.5,127,123.0
5211,E2,584.0,0.5,127,123.0
5212,F1,584.0,0.5,127,123.0
5213,D3,584.0,0.5,127,123.0
5214,G2,584.0,0.5,127,123.0
5215,E2,584.5,0.5,127,123.0
5216,E1,584.5,0.5,127,123.0
5217,G2,584.5,0.5,127,123.0
5218,C2,584.5,1.0,127,123.0
5219,E2,584.5,0.5,127,123.0
5220,B2,584.5,0.5,127,123.0
5221,E3,585.0,0.5,127,123.0
5222,E1,585.0,0.5,127,123.0
5223,G2,585.0,0.5,127,123.0
5224,G3,585.5,0.5,127,123.0
5225,E1,585.5,0.5,127,123.0
5226,G2,585.5,0.5,127,123.0
5227,C2,585.5,1.0,127,123.0
5228,B-2,586.0,0.5,127,123.0
5229,E1,586.0,0.5,127,123.0
5230,C3,586.0,0.5,127,123.0
5231,G2,586.0,0.5,127,123.0
5232,A2,586.5,1.0,127,123.0
5233,E1,586.5,0.5,127,123.0
5234,G2,586.5,0.5,127,123.0
5235,C2,586.5,1.0,127,123.0
5236,E1,587.0,0.5,127,123.0
5237,G2,587.0,0.5,127,123.0
5238,E3,587.5,0.5,127,123.0
5239,E1,587.5,0.5,127,123.0
5240,C2,587.5,1.0,127,123.0
5241,C3,587.5,0.5,127,123.0
5242,G2,587.5,0.5,127,123.0
5243,E2,588.0,0.5,127,123.0
5244,F1,588.0,0.5,127,123.0
5245,C#3,588.0,0.5,127,123.0
5246,F#2,588.0,0.5,127,123.0
5247,D3,588.0,0.5,127,123.0
5248,G2,588.0,0.5,127,123.0
5249,E2,588.5,0.5,127,123.0
5250,E1,588.5,0.5,127,123.0
5251,G2,588.5,0.5,127,123.0
5252,C2,588.5,1.0,127,123.0
5253,C#3,588.5,0.5,127,123.0
5254,F#2,588.5,0.5,127,123.0
5255,E3,589.0,0.5,127,123.0
5256,E1,589.0,0.5,127,123.0
5257,E2,589.0,4.0,127,123.0
5258,B2,589.0,4.0,127,123.0
5259,C#3,589.0,0.5,127,123.0
5260,F#2,589.0,0.5,127,123.0
5261,A3,589.0,0.5,127,123.0
5262,D2,589.0,0.5,127,123.0
5263,G3,589.5,0.5,127,123.0
5264,E1,589.5,0.5,127,123.0
5265,C2,589.5,1.0,127,123.0
5266,C#3,589.5,0.5,127,123.0
5267,F#2,589.5,0.5,127,123.0
5268,B-2,590.0,0.5,127,123.0
5269,E1,590.0,0.5,127,123.0
5270,C#3,590.0,0.5,127,123.0
5271,F#2,590.0,0.5,127,123.0
5272,D2,590.0,0.5,127,123.0
5273,A3,590.0,0.5,127,123.0
5274,A2,590.5,1.0,127,123.0
5275,E1,590.5,0.5,127,123.0
5276,G2,590.5,0.5,127,123.0
5277,C2,590.5,1.0,127,123.0
5278,C#3,590.5,0.5,127,123.0
5279,F#2,590.5,0.5,127,123.0
5280,E1,591.0,0.5,127,123.0
5281,G2,591.0,0.5,127,123.0
5282,C#3,591.0,0.5,127,123.0
5283,F#2,591.0,0.5,127,123.0
5284,E3,591.5,0.5,127,123.0
5285,E1,591.5,0.5,127,123.0
5286,G2,591.5,0.5,127,123.0
5287,C2,591.5,1.0,127,123.0
5288,C#3,591.5,0.5,127,123.0
5289,F#2,591.5,0.5,127,123.0
5290,E2,592.0,0.5,127,123.0
5291,F1,592.0,0.5,127,123.0
5292,G2,592.0,0.5,127,123.0
5293,C#3,592.0,0.5,127,123.0
5294,F#2,592.0,0.5,127,123.0
5295,E2,592.5,0.5,127,123.0
5296,E1,592.5,0.5,127,123.0
5297,G2,592.5,0.5,127,123.0
5298,C2,592.5,1.0,127,123.0
5299,C#3,592.5,0.5,127,123.0
5300,F#2,592.5,0.5,127,123.0
5301,E3,593.0,0.5,127,123.0
5302,E1,593.0,0.5,127,123.0
5303,G2,593.0,0.5,127,123.0
5304,F#2,593.0,1.0,127,123.0
5305,C#3,593.0,1.0,127,123.0
5306,C#3,593.0,0.5,127,123.0
5307,F#2,593.0,0.5,127,123.0
5308,G3,593.5,0.5,127,123.0
5309,E1,593.5,0.5,127,123.0
5310,C#3,593.5,0.5,127,123.0
5311,F#2,593.5,0.5,127,123.0
5312,D2,593.5,1.0,127,123.0
5313,A3,593.5,1.0,127,123.0
5314,C2,593.5,1.0,127,123.0
5315,B-2,594.0,0.5,127,123.0
5316,C#3,594.0,0.5,127,123.0
5317,E1,594.0,0.5,127,123.0
5318,C#3,594.0,0.5,127,123.0
5319,F#2,594.0,0.5,127,123.0
5320,A2,594.5,1.0,127,123.0
5321,C3,594.5,0.5,127,123.0
5322,E1,594.5,0.5,127,123.0
5323,G2,594.5,0.5,127,123.0
5324,C2,594.5,1.0,127,123.0
5325,C#3,594.5,0.5,127,123.0
5326,F#2,594.5,0.5,127,123.0
5327,E1,595.0,0.5,127,123.0
5328,G2,595.0,0.5,127,123.0
5329,B2,595.0,1.5,127,123.0
5330,F#3,595.0,1.5,127,123.0
5331,C#3,595.0,0.5,127,123.0
5332,F#2,595.0,0.5,127,123.0
5333,E3,595.5,0.5,127,123.0
5334,E1,595.5,0.5,127,123.0
5335,C2,595.5,1.0,127,123.0
5336,C#3,595.5,0.5,127,123.0
5337,F#2,595.5,0.5,127,123.0
5338,C3,595.5,0.5,127,123.0
5339,G2,595.5,0.5,127,123.0
5340,E2,596.0,0.5,127,123.0
5341,F1,596.0,0.5,127,123.0
5342,C#3,596.0,0.5,127,123.0
5343,F#2,596.0,0.5,127,123.0
5344,A3,596.0,0.5,127,123.0
5345,D2,596.0,0.5,127,123.0
5346,E2,596.5,0.5,127,123.0
5347,E1,596.5,0.5,127,123.0
5348,C2,596.5,1.0,127,123.0
5349,E2,596.5,0.5,127,123.0
5350,B2,596.5,0.5,127,123.0
5351,F#2,596.5,1.0,127,123.0
5352,C#3,596.5,1.0,127,123.0
5353,E3,597.0,0.5,127,123.0
5354,E1,597.0,0.5,127,123.0
5355,D2,597.0,0.5,127,123.0
5356,A3,597.0,0.5,127,123.0
5357,G3,597.5,0.5,127,123.0
5358,C#3,597.5,0.5,127,123.0
5359,E1,597.5,0.5,127,123.0
5360,C2,597.5,1.0,127,123.0
5361,B-2,598.0,0.5,127,123.0
5362,C3,598.0,0.5,127,123.0
5363,E1,598.0,0.5,127,123.0
5364,A2,598.5,1.0,127,123.0
5365,E1,598.5,0.5,127,123.0
5366,G2,598.5,0.5,127,123.0
5367,C2,598.5,1.0,127,123.0
5368,B2,598.5,1.5,127,123.0
5369,F#3,598.5,1.5,127,123.0
5370,E1,599.0,0.5,127,123.0
5371,G2,599.0,0.5,127,123.0
5372,E3,599.5,0.5,127,123.0
5373,E1,599.5,0.5,127,123.0
5374,G2,599.5,0.5,127,123.0
5375,C2,599.5,1.0,127,123.0
5376,E2,600.0,0.5,127,123.0
5377,F1,600.0,0.5,127,123.0
5378,F#2,600.0,0.5,127,123.0
5379,C#3,600.0,0.5,127,123.0
5380,B2,600.0,0.5,127,123.0
5381,G2,600.0,0.5,127,123.0
5382,E2,600.5,0.5,127,123.0
5383,E1,600.5,0.5,127,123.0
5384,C2,600.5,1.0,127,123.0
5385,B2,600.5,0.5,127,123.0
5386,G2,600.5,0.5,127,123.0
5387,E3,601.0,0.5,127,123.0
5388,E1,601.0,0.5,127,123.0
5389,E2,601.0,4.0,127,123.0
5390,B2,601.0,4.0,127,123.0
5391,B2,601.0,0.5,127,123.0
5392,G2,601.0,0.5,127,123.0
5393,G3,601.5,0.5,127,123.0
5394,E1,601.5,0.5,127,123.0
5395,C2,601.5,1.0,127,123.0
5396,F#2,601.5,1.0,127,123.0
5397,C#3,601.5,1.0,127,123.0
5398,B2,601.5,0.5,127,123.0
5399,G2,601.5,0.5,127,123.0
5400,B-2,602.0,0.5,127,123.0
5401,E1,602.0,0.5,127,123.0
5402,B2,602.0,0.5,127,123.0
5403,G2,602.0,0.5,127,123.0
5404,A2,602.5,1.0,127,123.0
5405,C#3,602.5,0.5,127,123.0
5406,E1,602.5,0.5,127,123.0
5407,C2,602.5,1.0,127,123.0
5408,B2,602.5,0.5,127,123.0
5409,G2,602.5,0.5,127,123.0
5410,C3,603.0,0.5,127,123.0
5411,E1,603.0,0.5,127,123.0
5412,B2,603.0,0.5,127,123.0
5413,G2,603.0,0.5,127,123.0
5414,E3,603.5,0.5,127,123.0
5415,E1,603.5,0.5,127,123.0
5416,C2,603.5,1.0,127,123.0
5417,B2,603.5,1.5,127,123.0
5418,F#3,603.5,1.5,127,123.0
5419,B2,603.5,0.5,127,123.0
5420,G2,603.5,0.5,127,123.0
5421,E2,604.0,0.5,127,123.0
5422,F1,604.0,0.5,127,123.0
5423,B2,604.0,0.5,127,123.0
5424,G2,604.0,0.5,127,123.0
5425,E2,604.5,0.5,127,123.0
5426,E1,604.5,0.5,127,123.0
5427,G2,604.5,0.5,127,123.0
5428,C2,604.5,1.0,127,123.0
5429,E3,605.0,0.5,127,123.0
5430,E1,605.0,0.5,127,123.0
5431,G2,605.0,0.5,127,123.0
5432,G2,605.0,0.5,127,123.0
5433,D3,605.0,0.5,127,123.0
5434,F#2,605.0,0.5,127,123.0
5435,C#3,605.0,0.5,127,123.0
5436,G3,605.5,0.5,127,123.0
5437,E2,605.5,0.5,127,123.0
5438,E1,605.5,0.5,127,123.0
5439,A3,605.5,1.0,127,123.0
5440,D2,605.5,1.0,127,123.0
5441,C2,605.5,1.0,127,123.0
5442,B-2,606.0,0.5,127,123.0
5443,E1,606.0,0.5,127,123.0
5444,F#2,606.0,0.5,127,123.0
5445,C3,606.0,0.5,127,123.0
5446,A2,606.5,1.0,127,123.0
5447,E2,606.5,0.5,127,123.0
5448,E1,606.5,0.5,127,123.0
5449,C2,606.5,1.0,127,123.0
5450,F#2,606.5,1.0,127,123.0
5451,C#3,606.5,1.0,127,123.0
5452,E1,607.0,0.5,127,123.0
5453,C3,607.0,0.5,127,123.0
5454,F#2,607.0,0.5,127,123.0
5455,C3,607.0,0.5,127,123.0
5456,G2,607.0,0.5,127,123.0
5457,E3,607.5,0.5,127,123.0
5458,C#3,607.5,0.5,127,123.0
5459,E1,607.5,0.5,127,123.0
5460,C2,607.5,1.0,127,123.0
5461,D3,607.5,0.5,127,123.0
5462,G2,607.5,0.5,127,123.0
5463,E2,608.0,0.5,127,123.0
5464,C3,608.0,0.5,127,123.0
5465,F1,608.0,0.5,127,123.0
5466,G2,608.0,0.5,127,123.0
5467,D3,608.0,0.5,127,123.0
5468,C3,608.0,0.5,127,123.0
5469,G2,608.0,0.5,127,123.0
5470,E2,608.5,0.5,127,123.0
5471,E1,608.5,0.5,127,123.0
5472,G2,608.5,0.5,127,123.0
5473,C2,608.5,1.0,127,123.0
5474,E2,608.5,0.5,127,123.0
5475,B2,608.5,0.5,127,123.0
5476,B2,608.5,1.5,127,123.0
5477,F#3,608.5,1.5,127,123.0
5478,E3,609.0,0.5,127,123.0
5479,E1,609.0,0.5,127,123.0
5480,G2,609.0,0.5,127,123.0
5481,G3,609.5,0.5,127,123.0
5482,E1,609.5,0.5,127,123.0
5483,A3,609.5,1.0,127,123.0
5484,D2,609.5,1.0,127,123.0
5485,C2,609.5,1.0,127,123.0
5486,B-2,610.0,0.5,127,123.0
5487,E1,610.0,0.5,127,123.0
5488,E2,610.0,0.5,127,123.0
5489,B2,610.0,0.5,127,123.0
5490,A2,610.5,1.0,127,123.0
5491,E1,610.5,0.5,127,123.0
5492,C2,610.5,1.0,127,123.0
5493,E1,611.0,0.5,127,123.0
5494,C3,611.0,0.5,127,123.0
5495,G2,611.0,0.5,127,123.0
5496,E3,611.5,0.5,127,123.0
5497,E1,611.5,0.5,127,123.0
5498,C2,611.5,1.0,127,123.0
5499,E2,611.5,1.0,127,123.0
5500,B2,611.5,1.0,127,123.0
5501,E2,612.0,0.5,127,123.0
5502,E1,612.0,0.5,127,123.0
5503,E2,612.0,3.0,127,123.0
5504,B2,612.0,3.0,127,123.0
5505,C3,612.0,0.5,127,123.0
5506,G2,612.0,0.5,127,123.0
5507,E2,612.5,0.5,127,123.0
5508,G3,612.5,0.5,127,123.0
5509,E1,612.5,0.5,127,123.0
5510,G2,612.5,0.5,127,123.0
5511,C2,612.5,1.0,127,123.0
5512,E3,613.0,0.5,127,123.0
5513,E3,613.0,0.5,127,123.0
5514,E1,613.0,0.5,127,123.0
5515,G2,613.0,0.5,127,123.0
5516,G3,613.5,0.5,127,123.0
5517,A3,613.5,0.5,127,123.0
5518,E1,613.5,0.5,127,123.0
5519,A3,613.5,1.0,127,123.0
5520,D2,613.5,1.0,127,123.0
5521,C2,613.5,1.0,127,123.0
5522,B-2,614.0,0.5,127,123.0
5523,E3,614.0,0.5,127,123.0
5524,E1,614.0,0.5,127,123.0
5525,A2,614.5,1.0,127,123.0
5526,B3,614.5,0.5,127,123.0
5527,E1,614.5,0.5,127,123.0
5528,C2,614.5,1.0,127,123.0
5529,G3,615.0,0.5,127,123.0
5530,E1,615.0,0.5,127,123.0
5531,C3,615.0,0.5,127,123.0
5532,G2,615.0,0.5,127,123.0
5533,E3,615.5,0.5,127,123.0
5534,E1,615.5,0.5,127,123.0
5535,C2,615.5,1.0,127,123.0
5536,E2,615.5,0.5,127,123.0
5537,B2,615.5,0.5,127,123.0
5538,F#2,615.5,1.0,127,123.0
5539,C#3,615.5,1.0,127,123.0
5540,E2,616.0,0.5,127,123.0
5541,E1,616.0,0.5,127,123.0
5542,E2,616.0,0.5,127,123.0
5543,B2,616.0,0.5,127,123.0
5544,C3,616.0,0.5,127,123.0
5545,G2,616.0,0.5,127,123.0
5546,E2,616.5,0.5,127,123.0
5547,C#3,616.5,0.5,127,123.0
5548,E1,616.5,0.5,127,123.0
5549,G2,616.5,0.5,127,123.0
5550,C2,616.5,1.0,127,123.0
5551,E2,616.5,0.5,127,123.0
5552,B2,616.5,0.5,127,123.0
5553,E3,617.0,0.5,127,123.0
5554,F#3,617.0,0.5,127,123.0
5555,C3,617.0,0.5,127,123.0
5556,E1,617.0,0.5,127,123.0
5557,G2,617.0,0.5,127,123.0
5558,G3,617.5,0.5,127,123.0
5559,B-2,617.5,0.5,127,123.0
5560,E1,617.5,0.5,127,123.0
5561,G2,617.5,0.5,127,123.0
5562,C2,617.5,1.0,127,123.0
5563,B2,617.5,1.5,127,123.0
5564,F#3,617.5,1.5,127,123.0
5565,B-2,618.0,0.5,127,123.0
5566,A2,618.0,1.0,127,123.0
5567,E1,618.0,0.5,127,123.0
5568,A3,618.0,0.5,127,123.0
5569,D2,618.0,0.5,127,123.0
5570,A2,618.5,1.0,127,123.0
5571,E1,618.5,0.5,127,123.0
5572,C2,618.5,1.0,127,123.0
5573,E2,619.0,0.5,127,123.0
5574,E1,619.0,0.5,127,123.0
5575,E2,619.0,0.5,127,123.0
5576,B2,619.0,0.5,127,123.0
5577,D2,619.0,0.5,127,123.0
5578,A3,619.0,0.5,127,123.0
5579,E3,619.5,0.5,127,123.0
5580,E1,619.5,0.5,127,123.0
5581,C2,619.5,1.0,127,123.0
5582,B2,619.5,0.5,127,123.0
5583,E2,619.5,0.5,127,123.0
5584,E2,620.0,0.5,127,123.0
5585,E1,620.0,0.5,127,123.0
5586,D2,620.0,0.5,127,123.0
5587,A3,620.0,0.5,127,123.0
5588,E2,620.5,0.5,127,123.0
5589,E1,620.5,0.5,127,123.0
5590,G2,620.5,0.5,127,123.0
5591,C2,620.5,1.0,127,123.0
5592,B2,620.5,0.5,127,123.0
5593,E2,620.5,0.5,127,123.0
5594,E3,621.0,0.5,127,123.0
5595,E1,621.0,0.5,127,123.0
5596,G2,621.0,0.5,127,123.0
5597,E2,621.0,0.5,127,123.0
5598,B2,621.0,0.5,127,123.0
5599,G3,621.5,0.5,127,123.0
5600,F#3,621.5,0.5,127,123.0
5601,E1,621.5,0.5,127,123.0
5602,C2,621.5,1.0,127,123.0
5603,C3,621.5,0.5,127,123.0
5604,G2,621.5,0.5,127,123.0
5605,B-2,622.0,0.5,127,123.0
5606,B-2,622.0,0.5,127,123.0
5607,E1,622.0,0.5,127,123.0
5608,G2,622.0,0.5,127,123.0
5609,A2,622.5,1.0,127,123.0
5610,A2,622.5,1.0,127,123.0
5611,E1,622.5,0.5,127,123.0
5612,G2,622.5,0.5,127,123.0
5613,C2,622.5,1.0,127,123.0
5614,E2,622.5,3.0,127,123.0
5615,B2,622.5,3.0,127,123.0
5616,E1,623.0,0.5,127,123.0
5617,G2,623.0,0.5,127,123.0
5618,E3,623.5,0.5,127,123.0
5619,E2,623.5,0.5,127,123.0
5620,E1,623.5,0.5,127,123.0
5621,C2,623.5,1.0,127,123.0
5622,C3,623.5,0.5,127,123.0
5623,G2,623.5,0.5,127,123.0
5624,E2,624.0,0.5,127,123.0
5625,E1,624.0,0.5,127,123.0
5626,B2,624.0,0.5,127,123.0
5627,E2,624.0,0.5,127,123.0
5628,D3,624.0,0.5,127,123.0
5629,G2,624.0,0.5,127,123.0
5630,E2,624.5,0.5,127,123.0
5631,E1,624.5,0.5,127,123.0
5632,G2,624.5,0.5,127,123.0
5633,C2,624.5,1.0,127,123.0
5634,E3,625.0,0.5,127,123.0
5635,E1,625.0,0.5,127,123.0
5636,G2,625.0,0.5,127,123.0
5637,B2,625.0,0.5,127,123.0
5638,E2,625.0,0.5,127,123.0
5639,G3,625.5,0.5,127,123.0
5640,E2,625.5,0.5,127,123.0
5641,E1,625.5,0.5,127,123.0
5642,E2,625.5,0.5,127,123.0
5643,B2,625.5,0.5,127,123.0
5644,D2,625.5,1.0,127,123.0
5645,A3,625.5,1.0,127,123.0
5646,C2,625.5,1.0,127,123.0
5647,B-2,626.0,0.5,127,123.0
5648,F#3,626.0,0.5,127,123.0
5649,E2,626.0,0.5,127,123.0
5650,E1,626.0,0.5,127,123.0
5651,A2,626.5,1.0,127,123.0
5652,B-2,626.5,0.5,127,123.0
5653,E1,626.5,0.5,127,123.0
5654,C2,626.5,1.0,127,123.0
5655,F#2,626.5,1.0,127,123.0
5656,C#3,626.5,1.0,127,123.0
5657,A2,627.0,1.0,127,123.0
5658,E1,627.0,0.5,127,123.0
5659,D2,627.0,0.5,127,123.0
5660,A3,627.0,0.5,127,123.0
5661,E3,627.5,0.5,127,123.0
5662,C#3,627.5,0.5,127,123.0
5663,E1,627.5,0.5,127,123.0
5664,C2,627.5,1.0,127,123.0
5665,E2,628.0,0.5,127,123.0
5666,E2,628.0,0.5,127,123.0
5667,C3,628.0,0.5,127,123.0
5668,E1,628.0,0.5,127,123.0
5669,D2,628.0,0.5,127,123.0
5670,A3,628.0,0.5,127,123.0
5671,E2,628.5,0.5,127,123.0
5672,E1,628.5,0.5,127,123.0
5673,G2,628.5,0.5,127,123.0
5674,C2,628.5,1.0,127,123.0
5675,B2,628.5,0.5,127,123.0
5676,E2,628.5,0.5,127,123.0
5677,B2,628.5,1.5,127,123.0
5678,F#3,628.5,1.5,127,123.0
5679,E3,629.0,0.5,127,123.0
5680,E1,629.0,0.5,127,123.0
5681,G2,629.0,0.5,127,123.0
5682,G3,629.5,0.5,127,123.0
5683,E1,629.5,0.5,127,123.0
5684,B2,629.5,0.5,127,123.0
5685,E2,629.5,0.5,127,123.0
5686,A3,629.5,1.0,127,123.0
5687,D2,629.5,1.0,127,123.0
5688,C2,629.5,1.0,127,123.0
5689,B-2,630.0,0.5,127,123.0
5690,E1,630.0,0.5,127,123.0
5691,E2,630.0,0.5,127,123.0
5692,B2,630.0,0.5,127,123.0
5693,F#2,630.0,0.5,127,123.0
5694,C#3,630.0,0.5,127,123.0
5695,A2,630.5,1.0,127,123.0
5696,F#3,630.5,0.5,127,123.0
5697,E1,630.5,0.5,127,123.0
5698,G2,630.5,0.5,127,123.0
5699,C2,630.5,1.0,127,123.0
5700,B-2,631.0,0.5,127,123.0
5701,E1,631.0,0.5,127,123.0
5702,G2,631.0,0.5,127,123.0
5703,E3,631.5,0.5,127,123.0
5704,A2,631.5,1.0,127,123.0
5705,E1,631.5,0.5,127,123.0
5706,G2,631.5,0.5,127,123.0
5707,C2,631.5,1.0,127,123.0
5708,F#2,631.5,1.0,127,123.0
5709,C#3,631.5,1.0,127,123.0
5710,E2,632.0,0.5,127,123.0
5711,E1,632.0,0.5,127,123.0
5712,D2,632.0,0.5,127,123.0
5713,G2,632.0,0.5,127,123.0
5714,E2,632.5,0.5,127,123.0
5715,E2,632.5,0.5,127,123.0
5716,C#3,632.5,0.5,127,123.0
5717,E1,632.5,0.5,127,123.0
5718,G2,632.5,0.5,127,123.0
5719,C2,632.5,1.0,127,123.0
5720,E3,633.0,0.5,127,123.0
5721,C3,633.0,0.5,127,123.0
5722,E1,633.0,0.5,127,123.0
5723,G2,633.0,0.5,127,123.0
5724,B2,633.0,0.5,127,123.0
5725,E2,633.0,0.5,127,123.0
5726,G3,633.5,0.5,127,123.0
5727,E1,633.5,0.5,127,123.0
5728,G2,633.5,0.5,127,123.0
5729,C2,633.5,1.0,127,123.0
5730,B2,633.5,1.5,127,123.0
5731,F#3,633.5,1.5,127,123.0
5732,B-2,634.0,0.5,127,123.0
5733,E1,634.0,0.5,127,123.0
5734,B2,634.0,0.5,127,123.0
5735,E2,634.0,0.5,127,123.0
5736,D2,634.0,0.5,127,123.0
5737,G2,634.0,0.5,127,123.0
5738,A2,634.5,1.0,127,123.0
5739,E1,634.5,0.5,127,123.0
5740,G2,634.5,0.5,127,123.0
5741,C2,634.5,1.0,127,123.0
5742,E2,634.5,0.5,127,123.0
5743,B2,634.5,0.5,127,123.0
5744,D2,634.958,21/500,100,123.0
5745,F#3,635.0,0.5,127,123.0
5746,E1,635.0,0.5,127,123.0
5747,D2,635.0,0.5,127,123.0
5748,F#2,635.0,0.5,127,123.0
5749,C#3,635.0,0.5,127,123.0
5750,E3,635.5,0.5,127,123.0
5751,B-2,635.5,0.5,127,123.0
5752,E1,635.5,0.5,127,123.0
5753,G2,635.5,0.5,127,123.0
5754,C2,635.5,1.0,127,123.0
5755,E2,636.0,0.5,127,123.0
5756,A2,636.0,1.0,127,123.0
5757,E1,636.0,0.5,127,123.0
5758,G2,636.0,0.5,127,123.0
5759,E2,636.5,0.5,127,123.0
5760,E1,636.5,0.5,127,123.0
5761,G2,636.5,0.5,127,123.0
5762,C2,636.5,1.0,127,123.0
5763,F#2,636.5,1.0,127,123.0
5764,C#3,636.5,1.0,127,123.0
5765,E3,637.0,0.5,127,123.0
5766,E2,637.0,0.5,127,123.0
5767,E1,637.0,0.5,127,123.0
5768,G2,637.0,0.5,127,123.0
5769,G3,637.5,0.5,127,123.0
5770,C#3,637.5,0.5,127,123.0
5771,E1,637.5,0.5,127,123.0
5772,B2,637.5,0.5,127,123.0
5773,E2,637.5,0.5,127,123.0
5774,A3,637.5,1.0,127,123.0
5775,D2,637.5,1.0,127,123.0
5776,C2,637.5,1.0,127,123.0
5777,B-2,638.0,0.5,127,123.0
5778,C3,638.0,0.5,127,123.0
5779,E1,638.0,0.5,127,123.0
5780,A2,638.5,1.0,127,123.0
5781,E1,638.5,0.5,127,123.0
5782,B2,638.5,0.5,127,123.0
5783,E2,638.5,0.5,127,123.0
5784,B2,638.5,1.5,127,123.0
5785,F#3,638.5,1.5,127,123.0
5786,G2,638.5,1.0,127,123.0
5787,C2,638.5,1.0,127,123.0
5788,E1,639.0,0.5,127,123.0
5789,E2,639.0,0.5,127,123.0
5790,B2,639.0,0.5,127,123.0
5791,E3,639.5,0.5,127,123.0
5792,F#3,639.5,0.5,127,123.0
5793,E1,639.5,0.5,127,123.0
5794,C2,639.5,1.0,127,123.0
5795,C3,639.5,0.5,127,123.0
5796,G2,639.5,0.5,127,123.0
5797,E2,640.0,0.5,127,123.0
5798,B-2,640.0,0.5,127,123.0
5799,E1,640.0,0.5,127,123.0
5800,E2,640.0,0.5,127,123.0
5801,B2,640.0,0.5,127,123.0
5802,D3,640.0,0.5,127,123.0
5803,G2,640.0,0.5,127,123.0
5804,E2,640.5,0.5,127,123.0
5805,G4,640.5,0.5,127,123.0
5806,A2,640.5,1.0,127,123.0
5807,E1,640.5,0.5,127,123.0
5808,G2,640.5,0.5,127,123.0
5809,C2,640.5,1.0,127,123.0
5810,E3,641.0,0.5,127,123.0
5811,F#4,641.0,167/1000,127,123.0
5812,E1,641.0,0.5,127,123.0
5813,G2,641.0,0.5,127,123.0
5814,G4,641.167,167/1000,127,123.0
5815,F#4,641.333,167/1000,127,123.0
5816,G3,641.5,0.5,127,123.0
5817,D4,641.5,0.5,127,123.0
5818,E2,641.5,0.5,127,123.0
5819,E1,641.5,0.5,127,123.0
5820,E2,641.5,1.0,127,123.0
5821,B2,641.5,1.0,127,123.0
5822,A3,641.5,1.0,127,123.0
5823,D2,641.5,1.0,127,123.0
5824,C2,641.5,1.0,127,123.0
5825,B-2,642.0,0.5,127,123.0
5826,D4,642.0,167/1000,127,123.0
5827,E1,642.0,0.5,127,123.0
5828,B2,642.0,0.5,127,123.0
5829,E2,642.0,0.5,127,123.0
5830,E4,642.167,167/1000,127,123.0
5831,D4,642.333,167/1000,127,123.0
5832,A2,642.5,1.0,127,123.0
5833,B3,642.5,0.5,127,123.0
5834,G3,642.5,0.5,127,123.0
5835,E1,642.5,0.5,127,123.0
5836,G2,642.5,1.0,127,123.0
5837,C2,642.5,1.0,127,123.0
5838,A3,643.0,0.5,127,123.0
5839,E3,643.0,0.5,127,123.0
5840,E1,643.0,0.5,127,123.0
5841,B2,643.0,0.5,127,123.0
5842,E2,643.0,0.5,127,123.0
5843,E3,643.5,0.5,127,123.0
5844,F#3,643.5,0.5,127,123.0
5845,A3,643.5,0.5,127,123.0
5846,E1,643.5,0.5,127,123.0
5847,C2,643.5,1.0,127,123.0
5848,E2,643.5,0.5,127,123.0
5849,B2,643.5,0.5,127,123.0
5850,C3,643.5,0.5,127,123.0
5851,G2,643.5,0.5,127,123.0
5852,E2,644.0,0.5,127,123.0
5853,A3,644.0,0.5,127,123.0
5854,F#3,644.0,0.5,127,123.0
5855,E3,644.0,0.5,127,123.0
5856,E1,644.0,0.5,127,123.0
5857,D3,644.0,0.5,127,123.0
5858,G2,644.0,0.5,127,123.0
5859,E2,644.5,0.5,127,123.0
5860,D4,644.5,0.5,127,123.0
5861,B-2,644.5,0.5,127,123.0
5862,B3,644.5,0.5,127,123.0
5863,E1,644.5,0.5,127,123.0
5864,G2,644.5,0.5,127,123.0
5865,C2,644.5,1.0,127,123.0
5866,E3,645.0,0.5,127,123.0
5867,A2,645.0,1.0,127,123.0
5868,G3,645.0,0.5,127,123.0
5869,E1,645.0,0.5,127,123.0
5870,G2,645.0,0.5,127,123.0
5871,G3,645.5,0.5,127,123.0
5872,E1,645.5,0.5,127,123.0
5873,B3,645.5,0.5,127,123.0
5874,E4,645.5,0.5,127,123.0
5875,F#2,645.5,1.0,127,123.0
5876,C#3,645.5,1.0,127,123.0
5877,A3,645.5,1.0,127,123.0
5878,D2,645.5,1.0,127,123.0
5879,C2,645.5,1.0,127,123.0
5880,B-2,646.0,0.5,127,123.0
5881,E2,646.0,0.5,127,123.0
5882,E1,646.0,0.5,127,123.0
5883,B3,646.0,4.0,127,123.0
5884,E4,646.0,4.0,127,123.0
5885,A2,646.5,1.0,127,123.0
5886,C#3,646.5,0.5,127,123.0
5887,E1,646.5,0.5,127,123.0
5888,G2,646.5,0.5,127,123.0
5889,C2,646.5,1.0,127,123.0
5890,G2,646.5,0.5,127,123.0
5891,D3,646.5,0.5,127,123.0
5892,D2,646.958,21/500,100,123.0
5893,C3,647.0,0.5,127,123.0
5894,E1,647.0,0.5,127,123.0
5895,D2,647.0,0.5,127,123.0
5896,D2,647.458,21/500,100,123.0
5897,E3,647.5,0.5,127,123.0
5898,E1,647.5,0.5,127,123.0
5899,D2,647.5,0.5,127,123.0
5900,C2,647.5,1.0,127,123.0
5901,G2,647.5,0.5,127,123.0
5902,D3,647.5,0.5,127,123.0
5903,B2,647.5,1.5,127,123.0
5904,F#3,647.5,1.5,127,123.0
5905,D2,647.958,21/500,100,123.0
5906,E2,648.0,0.5,127,123.0
5907,E2,648.0,0.5,127,123.0
5908,E1,648.0,0.5,127,123.0
5909,D2,648.0,0.5,127,123.0
5910,E2,648.5,0.5,127,123.0
5911,E1,648.5,0.5,127,123.0
5912,G2,648.5,0.5,127,123.0
5913,C2,648.5,1.0,127,123.0
5914,F#2,648.5,0.5,127,123.0
5915,C#3,648.5,0.5,127,123.0
5916,E3,649.0,0.5,127,123.0
5917,E2,649.0,0.5,127,123.0
5918,E1,649.0,0.5,127,123.0
5919,G2,649.0,0.5,127,123.0
5920,E2,649.0,0.5,127,123.0
5921,B2,649.0,0.5,127,123.0
5922,G3,649.5,0.5,127,123.0
5923,E1,649.5,0.5,127,123.0
5924,C#3,649.5,0.5,127,123.0
5925,F#2,649.5,0.5,127,123.0
5926,D2,649.5,1.0,127,123.0
5927,A3,649.5,1.0,127,123.0
5928,C2,649.5,1.0,127,123.0
5929,B-2,650.0,0.5,127,123.0
5930,E1,650.0,0.5,127,123.0
5931,G2,650.0,0.5,127,123.0
5932,D3,650.0,0.5,127,123.0
5933,A2,650.5,1.0,127,123.0
5934,E1,650.5,0.5,127,123.0
5935,G2,650.5,0.5,127,123.0
5936,C2,650.5,1.0,127,123.0
5937,F#2,650.5,0.5,127,123.0
5938,C#3,650.5,0.5,127,123.0
5939,E2,650.5,1.0,127,123.0
5940,B2,650.5,1.0,127,123.0
5941,E1,651.0,0.5,127,123.0
5942,E2,651.0,0.5,127,123.0
5943,B2,651.0,0.5,127,123.0
5944,A3,651.0,0.5,127,123.0
5945,D2,651.0,0.5,127,123.0
5946,E3,651.5,0.5,127,123.0
5947,G3,651.5,0.5,127,123.0
5948,E1,651.5,0.5,127,123.0
5949,C2,651.5,1.0,127,123.0
5950,E2,652.0,0.5,127,123.0
5951,E3,652.0,0.5,127,123.0
5952,E1,652.0,0.5,127,123.0
5953,B3,652.0,2.0,127,123.0
5954,E4,652.0,2.0,127,123.0
5955,E2,652.0,0.5,127,123.0
5956,B2,652.0,0.5,127,123.0
5957,A3,652.0,0.5,127,123.0
5958,D2,652.0,0.5,127,123.0
5959,E2,652.5,0.5,127,123.0
5960,E2,652.5,0.5,127,123.0
5961,G3,652.5,0.5,127,123.0
5962,E1,652.5,0.5,127,123.0
5963,G2,652.5,0.5,127,123.0
5964,C2,652.5,1.0,127,123.0
5965,E3,653.0,0.5,127,123.0
5966,E3,653.0,0.5,127,123.0
5967,E3,653.0,0.5,127,123.0
5968,E1,653.0,0.5,127,123.0
5969,G2,653.0,0.5,127,123.0
5970,G3,653.5,0.5,127,123.0
5971,B-2,653.5,0.5,127,123.0
5972,A3,653.5,0.5,127,123.0
5973,E1,653.5,0.5,127,123.0
5974,A3,653.5,1.0,127,123.0
5975,D2,653.5,1.0,127,123.0
5976,C2,653.5,1.0,127,123.0
5977,B-2,654.0,0.5,127,123.0
5978,A2,654.0,0.5,127,123.0
5979,E3,654.0,0.5,127,123.0
5980,E1,654.0,0.5,127,123.0
5981,A2,654.5,1.0,127,123.0
5982,E2,654.5,0.5,127,123.0
5983,E1,654.5,0.5,127,123.0
5984,G2,654.5,1.0,127,123.0
5985,C2,654.5,1.0,127,123.0
5986,E2,655.0,0.5,127,123.0
5987,E1,655.0,0.5,127,123.0
5988,E3,655.5,0.5,127,123.0
5989,E1,655.5,0.5,127,123.0
5990,C2,655.5,1.0,127,123.0
5991,C3,655.5,0.5,127,123.0
5992,F2,655.5,0.5,127,123.0
5993,E2,656.0,0.5,127,123.0
5994,E2,656.0,0.5,127,123.0
5995,E1,656.0,0.5,127,123.0
5996,A3,656.0,0.5,127,123.0
5997,D2,656.0,0.5,127,123.0
5998,E2,656.5,0.5,127,123.0
5999,E2,656.5,0.5,127,123.0
6000,E1,656.5,0.5,127,123.0
6001,C2,656.5,1.0,127,123.0
6002,E3,657.0,0.5,127,123.0
6003,E3,657.0,0.5,127,123.0
6004,E1,657.0,0.5,127,123.0
6005,D2,657.0,0.5,127,123.0
6006,A3,657.0,0.5,127,123.0
6007,G3,657.5,0.5,127,123.0
6008,B-2,657.5,0.5,127,123.0
6009,E1,657.5,0.5,127,123.0
6010,C2,657.5,1.0,127,123.0
6011,B-2,658.0,0.5,127,123.0
6012,A2,658.0,0.5,127,123.0
6013,E1,658.0,0.5,127,123.0
6014,B2,658.0,0.5,127,123.0
6015,E2,658.0,0.5,127,123.0
6016,D2,658.0,0.5,127,123.0
6017,A3,658.0,0.5,127,123.0
6018,A2,658.5,1.0,127,123.0
6019,E2,658.5,0.5,127,123.0
6020,E1,658.5,0.5,127,123.0
6021,B2,658.5,4.0,127,123.0
6022,E2,658.5,4.0,127,123.0
6023,G2,658.5,1.0,127,123.0
6024,C2,658.5,1.0,127,123.0
6025,E2,659.0,0.5,127,123.0
6026,E1,659.0,0.5,127,123.0
6027,E3,659.5,0.5,127,123.0
6028,E1,659.5,0.5,127,123.0
6029,G2,659.5,0.5,127,123.0
6030,C2,659.5,1.0,127,123.0
6031,F2,659.5,0.5,127,123.0
6032,C3,659.5,0.5,127,123.0
6033,E2,660.0,0.5,127,123.0
6034,E2,660.0,0.5,127,123.0
6035,E1,660.0,0.5,127,123.0
6036,D2,660.0,0.5,127,123.0
6037,G2,660.0,0.5,127,123.0
6038,E2,660.5,0.5,127,123.0
6039,E2,660.5,0.5,127,123.0
6040,E1,660.5,0.5,127,123.0
6041,G2,660.5,0.5,127,123.0
6042,C2,660.5,1.0,127,123.0
6043,E3,661.0,0.5,127,123.0
6044,E3,661.0,0.5,127,123.0
6045,E1,661.0,0.5,127,123.0
6046,G2,661.0,0.5,127,123.0
6047,G3,661.5,0.5,127,123.0
6048,B-2,661.5,0.5,127,123.0
6049,E1,661.5,0.5,127,123.0
6050,G2,661.5,0.5,127,123.0
6051,C2,661.5,1.0,127,123.0
6052,B-2,662.0,0.5,127,123.0
6053,A2,662.0,0.5,127,123.0
6054,E1,662.0,0.5,127,123.0
6055,D2,662.0,0.5,127,123.0
6056,G2,662.0,0.5,127,123.0
6057,A2,662.5,1.0,127,123.0
6058,E2,662.5,0.5,127,123.0
6059,E1,662.5,0.5,127,123.0
6060,G2,662.5,0.5,127,123.0
6061,C2,662.5,1.0,127,123.0
6062,E2,663.0,0.5,127,123.0
6063,E1,663.0,0.5,127,123.0
6064,D2,663.0,0.25,127,123.0
6065,D2,663.25,0.25,127,123.0
6066,E3,663.5,0.5,127,123.0
6067,E1,663.5,0.5,127,123.0
6068,B2,663.5,0.25,127,123.0
6069,C2,663.5,1.0,127,123.0
6070,F2,663.5,0.5,127,123.0
6071,C3,663.5,0.5,127,123.0
6072,B2,663.75,0.25,127,123.0
6073,E2,664.0,0.5,127,123.0
6074,E2,664.0,0.5,127,123.0
6075,E1,664.0,0.5,127,123.0
6076,D2,664.0,0.25,127,123.0
6077,D2,664.25,0.25,127,123.0
6078,E2,664.5,0.5,127,123.0
6079,E2,664.5,0.5,127,123.0
6080,E3,665.0,0.5,127,123.0
6081,B-2,665.5,0.5,127,123.0
6082,A2,666.0,0.5,127,123.0
6083,E2,666.5,0.5,127,123.0
6084,E2,667.0,0.5,127,123.0
6085,F2,667.5,0.5,127,123.0
6086,C3,667.5,0.5,127,123.0
6087,E2,668.0,0.5,127,123.0
6088,E2,668.5,0.5,127,123.0
6089,E3,669.0,0.5,127,123.0
6090,B-2,669.5,0.5,127,123.0
6091,E2,670.0,0.5,127,123.0
6092,B2,670.0,4.0,127,123.0
6093,E2,670.0,4.0,127,123.0
6094,E2,670.5,0.5,127,123.0
6095,E2,671.0,0.5,127,123.0
6096,C3,671.5,0.5,127,123.0
6097,F2,671.5,0.5,127,123.0
6098,E2,672.0,0.5,127,123.0
6099,E2,672.5,0.5,127,123.0
6100,E3,673.0,0.5,127,123.0
6101,B-2,673.5,0.5,127,123.0
6102,E2,674.0,0.5,127,123.0
6103,E2,674.5,0.5,127,123.0
6104,E2,675.0,0.5,127,123.0
6105,C3,675.5,0.5,127,123.0
6106,F2,675.5,0.5,127,123.0
6107,E2,676.0,0.5,127,123.0
6108,E2,676.5,0.5,127,123.0
6109,E3,677.0,0.5,127,123.0
6110,B-2,677.5,0.5,127,123.0
6111,B2,677.5,3.5,127,123.0
6112,E2,677.5,3.5,127,123.0
6113,E2,678.0,0.5,127,123.0
6114,E2,678.5,0.5,127,123.0
6115,E2,679.0,0.5,127,123.0
6116,C3,679.5,0.5,127,123.0
6117,F2,679.5,0.5,127,123.0
6118,E2,680.0,0.5,127,123.0
6119,E2,680.5,0.5,127,123.0
6120,E3,681.0,0.5,127,123.0
6121,E2,681.0,0.5,127,123.0
6122,B2,681.0,0.5,127,123.0
6123,B-2,681.5,0.5,127,123.0
6124,E2,682.0,0.5,127,123.0
6125,E2,682.0,0.5,127,123.0
6126,B2,682.0,0.5,127,123.0
6127,E2,682.5,0.5,127,123.0
6128,E2,682.5,0.5,127,123.0
6129,B2,682.5,0.5,127,123.0
6130,E2,683.0,0.5,127,123.0
6131,F#3,683.0,0.5,127,123.0
6132,B-2,683.5,0.5,127,123.0
6133,C3,683.5,0.5,127,123.0
6134,F2,683.5,0.5,127,123.0
6135,E2,684.0,0.5,127,123.0
6136,A2,684.0,1.0,127,123.0
6137,E2,684.5,0.5,127,123.0
6138,E3,685.0,0.5,127,123.0
6139,E2,685.0,0.5,127,123.0
6140,E2,685.5,0.5,127,123.0
6141,B2,685.5,0.5,127,123.0
6142,E2,685.5,0.5,127,123.0
6143,E2,686.0,0.5,127,123.0
6144,E2,686.5,0.5,127,123.0
6145,B2,686.5,0.5,127,123.0
6146,E2,686.5,0.5,127,123.0
6147,E2,687.0,0.5,127,123.0
6148,E2,687.0,0.5,127,123.0
6149,B2,687.0,0.5,127,123.0
6150,E2,687.5,0.5,127,123.0
6151,F#3,687.5,0.5,127,123.0
6152,E2,688.0,0.5,127,123.0
6153,B-2,688.0,0.5,127,123.0
6154,E2,688.5,0.5,127,123.0
6155,A2,688.5,1.0,127,123.0
6156,E3,689.0,0.5,127,123.0
6157,E2,689.5,0.5,127,123.0
6158,E2,689.5,0.5,127,123.0
6159,E2,690.0,0.5,127,123.0
6160,B2,690.0,0.5,127,123.0
6161,E2,690.0,0.5,127,123.0
6162,E2,690.5,0.5,127,123.0
6163,E2,691.0,0.5,127,123.0
6164,B2,691.0,0.5,127,123.0
6165,E2,691.0,0.5,127,123.0
6166,E2,691.5,0.5,127,123.0
6167,E2,691.5,0.5,127,123.0
6168,B2,691.5,0.5,127,123.0
6169,E2,692.0,0.5,127,123.0
6170,F#3,692.0,0.5,127,123.0
6171,E2,692.5,0.5,127,123.0
6172,B-2,692.5,0.5,127,123.0
6173,E3,693.0,0.5,127,123.0
6174,A2,693.0,1.0,127,123.0
6175,E2,693.5,0.5,127,123.0
6176,E2,694.0,0.5,127,123.0
6177,E2,694.0,0.5,127,123.0
6178,E2,694.5,0.5,127,123.0
6179,B2,694.5,0.5,127,123.0
6180,E2,694.5,0.5,127,123.0
6181,E2,695.0,0.5,127,123.0
6182,E2,695.5,0.5,127,123.0
6183,B2,695.5,0.5,127,123.0
6184,E2,695.5,0.5,127,123.0
6185,E2,696.0,0.5,127,123.0
6186,E2,696.0,0.5,127,123.0
6187,B2,696.0,0.5,127,123.0
6188,E2,696.5,0.5,127,123.0
6189,F#3,696.5,0.5,127,123.0
6190,E3,697.0,0.5,127,123.0
6191,B-2,697.0,0.5,127,123.0
6192,E2,697.5,0.5,127,123.0
6193,A2,697.5,1.0,127,123.0
6194,E2,698.0,0.5,127,123.0
6195,E2,698.5,0.5,127,123.0
6196,E2,698.5,0.5,127,123.0
6197,E2,699.0,0.5,127,123.0
6198,B2,699.0,0.5,127,123.0
6199,E2,699.0,0.5,127,123.0
6200,E2,699.5,0.5,127,123.0
6201,E2,700.0,0.5,127,123.0
6202,B2,700.0,0.5,127,123.0
6203,E2,700.0,0.5,127,123.0
6204,E2,700.5,0.5,127,123.0
6205,E2,700.5,0.5,127,123.0
6206,B2,700.5,0.5,127,123.0
6207,E3,701.0,0.5,127,123.0
6208,F#3,701.0,0.5,127,123.0
6209,E2,701.5,0.5,127,123.0
6210,B-2,701.5,0.5,127,123.0
6211,E2,702.0,0.5,127,123.0
6212,A2,702.0,1.0,127,123.0
6213,E2,702.5,0.5,127,123.0
6214,E2,703.0,0.5,127,123.0
6215,E2,703.0,0.5,127,123.0
6216,E2,703.5,0.5,127,123.0
6217,G2,703.5,0.5,127,123.0
6218,D3,703.5,0.5,127,123.0
6219,E2,704.0,0.5,127,123.0
6220,E2,704.5,0.5,127,123.0
6221,G2,704.5,0.5,127,123.0
6222,D3,704.5,0.5,127,123.0
6223,E3,705.0,0.5,127,123.0
6224,E2,705.0,0.5,127,123.0
6225,E2,705.5,0.5,127,123.0
6226,F#2,705.5,0.5,127,123.0
6227,C#3,705.5,0.5,127,123.0
6228,E2,706.0,0.5,127,123.0
6229,E2,706.0,0.5,127,123.0
6230,E2,706.5,0.5,127,123.0
6231,C#3,706.5,0.5,127,123.0
6232,F#2,706.5,0.5,127,123.0
6233,E2,707.0,0.5,127,123.0
6234,G2,707.0,0.5,127,123.0
6235,D3,707.0,0.5,127,123.0
6236,E2,707.5,0.5,127,123.0
6237,F#2,707.5,0.5,127,123.0
6238,C#3,707.5,0.5,127,123.0
6239,E2,708.0,0.5,127,123.0
6240,E2,708.0,0.5,127,123.0
6241,B2,708.0,0.5,127,123.0
6242,E2,708.5,0.5,127,123.0
6243,E3,709.0,0.5,127,123.0
6244,E2,709.0,0.5,127,123.0
6245,B2,709.0,0.5,127,123.0
6246,E2,709.5,0.5,127,123.0
6247,E2,709.5,0.5,127,123.0
6248,E2,710.0,0.5,127,123.0
6249,E3,710.0,0.5,127,123.0
6250,E2,710.5,0.5,127,123.0
6251,B-2,710.5,0.5,127,123.0
6252,E2,711.0,0.5,127,123.0
6253,A2,711.0,0.5,127,123.0
6254,E2,711.5,0.5,127,123.0
6255,E2,711.5,0.5,127,123.0
6256,E2,712.0,0.5,127,123.0
6257,E2,712.0,0.5,127,123.0
6258,E2,712.5,0.5,127,123.0
6259,C3,712.5,0.5,127,123.0
6260,F2,712.5,0.5,127,123.0
6261,E3,713.0,0.5,127,123.0
6262,E2,713.0,0.5,127,123.0
6263,E2,713.5,0.5,127,123.0
6264,E2,713.5,0.5,127,123.0
6265,E2,714.0,0.5,127,123.0
6266,E3,714.0,0.5,127,123.0
6267,E2,714.5,0.5,127,123.0
6268,B-2,714.5,0.5,127,123.0
6269,E2,715.0,0.5,127,123.0
6270,A2,715.0,0.5,127,123.0
6271,E2,715.5,0.5,127,123.0
6272,E2,715.5,0.5,127,123.0
6273,E2,716.0,0.5,127,123.0
6274,E2,716.0,0.5,127,123.0
6275,E2,716.5,0.5,127,123.0
6276,F2,716.5,0.5,127,123.0
6277,C3,716.5,0.5,127,123.0
6278,E3,717.0,0.5,127,123.0
6279,E2,717.0,0.5,127,123.0
6280,E2,717.5,0.5,127,123.0
6281,E2,717.5,0.5,127,123.0
6282,E2,718.0,0.5,127,123.0
6283,E3,718.0,0.5,127,123.0
6284,E2,718.5,0.5,127,123.0
6285,B-2,718.5,0.5,127,123.0
6286,E2,719.0,0.5,127,123.0
6287,A2,719.0,0.5,127,123.0
6288,E2,719.5,0.5,127,123.0
6289,E2,719.5,0.5,127,123.0
6290,E2,720.0,0.5,127,123.0
6291,E2,720.0,0.5,127,123.0
6292,E2,720.5,0.5,127,123.0
6293,F2,720.5,0.5,127,123.0
6294,C3,720.5,0.5,127,123.0
6295,E3,721.0,0.5,127,123.0
6296,E2,721.0,0.5,127,123.0
6297,E2,721.5,0.5,127,123.0
6298,E2,721.5,0.5,127,123.0
6299,E2,722.0,0.5,127,123.0
6300,E3,722.0,0.5,127,123.0
6301,E2,722.5,0.5,127,123.0
6302,B-2,722.5,0.5,127,123.0
6303,E2,723.0,0.5,127,123.0
6304,A2,723.0,0.5,127,123.0
6305,E2,723.5,0.5,127,123.0
6306,E2,723.5,0.5,127,123.0
6307,E2,724.0,0.5,127,123.0
6308,E2,724.0,0.5,127,123.0
6309,E2,724.5,0.5,127,123.0
6310,F2,724.5,0.5,127,123.0
6311,C3,724.5,0.5,127,123.0
6312,E3,725.0,0.5,127,123.0
6313,E2,725.0,0.5,127,123.0
6314,E2,725.5,0.5,127,123.0
6315,E2,725.5,0.5,127,123.0
6316,E2,726.0,0.5,127,123.0
6317,E3,726.0,0.5,127,123.0
6318,E2,726.5,0.5,127,123.0
6319,B-2,726.5,0.5,127,123.0
6320,E2,727.0,0.5,127,123.0
6321,E2,727.0,0.5,127,123.0
6322,E2,727.5,0.5,127,123.0
6323,E2,727.5,0.5,127,123.0
6324,E2,728.0,0.5,127,123.0
6325,E2,728.0,0.5,127,123.0
6326,E2,728.5,0.5,127,123.0
6327,C3,728.5,0.5,127,123.0
6328,F2,728.5,0.5,127,123.0
6329,E3,729.0,0.5,127,123.0
6330,E2,729.0,0.5,127,123.0
6331,E2,729.5,0.5,127,123.0
6332,E2,729.5,0.5,127,123.0
6333,E2,730.0,0.5,127,123.0
6334,E3,730.0,0.5,127,123.0
6335,E2,730.5,0.5,127,123.0
6336,B-2,730.5,0.5,127,123.0
6337,E2,731.0,0.5,127,123.0
6338,E2,731.0,0.5,127,123.0
6339,E2,731.5,0.5,127,123.0
6340,E2,731.5,0.5,127,123.0
6341,E2,732.0,0.5,127,123.0
6342,E2,732.0,0.5,127,123.0
6343,E2,732.5,0.5,127,123.0
6344,C3,732.5,0.5,127,123.0
6345,F2,732.5,0.5,127,123.0
6346,E3,733.0,0.5,127,123.0
6347,E2,733.0,0.5,127,123.0
6348,E2,733.5,0.5,127,123.0
6349,E2,733.5,0.5,127,123.0
6350,E2,734.0,0.5,127,123.0
6351,E3,734.0,0.5,127,123.0
6352,E2,734.5,0.5,127,123.0
6353,B-2,734.5,0.5,127,123.0
6354,E2,735.0,0.5,127,123.0
6355,E2,735.0,0.5,127,123.0
6356,E2,735.5,0.5,127,123.0
6357,E2,735.5,0.5,127,123.0
6358,E2,736.0,0.5,127,123.0
6359,E2,736.0,0.5,127,123.0
6360,E2,736.5,0.5,127,123.0
6361,C3,736.5,0.5,127,123.0
6362,F2,736.5,0.5,127,123.0
6363,E3,737.0,0.5,127,123.0
6364,E2,737.0,0.5,127,123.0
6365,E2,737.5,0.5,127,123.0
6366,E2,737.5,0.5,127,123.0
6367,E2,738.0,0.5,127,123.0
6368,E3,738.0,0.5,127,123.0
6369,E2,738.5,0.5,127,123.0
6370,B-2,738.5,0.5,127,123.0
6371,E2,739.0,0.5,127,123.0
6372,E2,739.0,0.5,127,123.0
6373,E2,739.5,0.5,127,123.0
6374,E2,739.5,0.5,127,123.0
6375,E2,740.0,0.5,127,123.0
6376,C3,740.5,0.5,127,123.0
6377,F2,740.5,0.5,127,123.0
6378,E2,741.0,0.5,127,123.0
6379,E2,741.5,0.5,127,123.0
6380,E3,742.0,0.5,127,123.0
6381,E2,742.5,0.5,127,123.0
6382,E2,743.0,0.5,127,123.0
6383,E2,743.5,0.5,127,123.0
6384,E2,744.0,0.5,127,123.0
6385,E2,744.5,0.5,127,123.0
6386,E2,745.0,0.5,127,123.0
6387,E2,745.5,0.5,127,123.0
6388,E3,746.0,0.5,127,123.0
6389,E2,746.5,0.5,127,123.0
6390,E2,747.0,0.5,127,123.0
6391,E2,747.5,0.5,127,123.0
6392,E2,748.0,0.5,127,123.0
6393,E2,748.5,0.5,127,123.0
6394,E2,749.0,0.5,127,123.0
6395,E2,749.5,0.5,127,123.0
6396,E3,750.0,0.5,127,123.0
6397,E2,750.5,0.5,127,123.0
6398,E2,751.0,0.5,127,123.0
6399,E2,751.5,0.5,127,123.0
6400,E2,752.0,0.5,127,123.0
6401,E2,752.5,0.5,127,123.0
6402,E2,753.0,0.5,127,123.0
6403,E2,753.5,0.5,127,123.0
6404,E3,754.0,0.5,127,123.0
6405,E2,754.5,0.5,127,123.0
6406,E2,755.0,0.5,127,123.0
6407,E2,755.5,0.5,127,123.0
6408,E2,756.0,0.5,127,123.0
6409,E2,756.5,0.5,127,123.0
6410,E2,757.0,0.5,127,123.0
6411,E2,757.5,0.5,127,123.0
6412,E3,758.0,0.5,127,123.0
6413,E2,758.5,0.5,127,123.0
6414,E2,759.0,0.5,127,123.0
6415,E2,759.5,0.5,127,123.0
6416,E2,760.0,0.5,127,123.0
6417,E2,760.5,0.5,127,123.0
6418,E2,761.0,0.5,127,123.0
6419,E2,761.5,0.5,127,123.0
6420,E3,762.0,0.5,127,123.0
6421,E2,762.5,0.5,127,123.0
6422,E2,763.0,0.5,127,123.0
6423,E2,763.5,0.5,127,123.0
6424,E2,764.0,0.5,127,123.0
6425,E2,764.5,0.5,127,123.0
6426,E2,765.0,0.5,127,123.0
6427,E2,765.5,0.5,127,123.0
6428,E3,766.0,0.5,127,123.0
6429,E2,766.5,0.5,127,123.0
6430,E2,767.0,0.5,127,123.0
6431,E2,767.5,0.5,127,123.0
6432,E2,768.0,0.5,127,123.0
6433,E2,768.5,0.5,127,123.0
6434,E2,769.0,0.5,127,123.0
6435,E2,769.5,0.5,127,123.0
6436,E3,770.0,0.5,127,123.0
6437,E2,770.5,0.5,127,123.0
6438,E2,771.0,0.5,127,123.0
6439,E2,771.5,0.5,127,123.0
6440,E2,772.0,0.5,127,123.0
6441,E2,772.5,0.5,127,123.0
6442,E2,773.0,0.5,127,123.0
6443,E2,773.5,0.5,127,123.0
6444,E3,774.0,0.5,127,123.0
6445,E2,774.5,0.5,127,123.0
6446,E2,775.0,0.5,127,123.0
6447,E2,775.5,0.5,127,123.0
6448,E2,776.0,0.5,127,123.0
6449,E2,776.5,0.5,127,123.0
6450,E2,777.0,0.5,127,123.0
6451,E2,777.5,0.5,127,123.0
6452,E3,778.0,0.5,127,123.0
6453,E2,778.5,0.5,127,123.0
6454,E2,779.0,0.5,127,123.0
6455,E2,779.5,0.5,127,123.0
6456,E2,780.0,0.5,127,123.0
6457,E2,780.5,0.5,127,123.0
6458,E2,781.0,0.5,127,123.0
6459,E2,781.5,0.5,127,123.0
6460,E3,782.0,0.5,127,123.0
6461,E2,782.5,0.5,127,123.0
6462,E2,783.0,0.5,127,123.0
6463,E2,783.5,0.5,127,123.0
6464,E2,784.0,0.5,127,123.0
6465,E2,784.5,0.5,127,123.0
6466,E2,785.0,0.5,127,123.0
6467,E2,785.5,0.5,127,123.0
6468,E3,786.0,0.5,127,123.0
6469,E2,786.5,0.5,127,123.0
6470,E2,787.0,0.5,127,123.0
6471,E2,787.5,0.5,127,123.0
6472,E2,788.0,0.5,127,123.0
6473,E2,788.5,0.5,127,123.0
6474,E2,789.0,0.5,127,123.0
6475,E2,789.5,0.5,127,123.0
6476,E3,790.0,0.5,127,123.0
6477,E2,790.5,0.5,127,123.0
6478,E2,791.0,0.5,127,123.0
6479,E2,791.5,0.5,127,123.0
6480,E2,792.0,0.5,127,123.0
6481,E2,792.5,0.5,127,123.0
6482,E2,793.0,0.5,127,123.0
6483,E2,793.5,0.5,127,123.0
6484,E3,794.0,0.5,127,123.0
6485,E2,794.5,0.5,127,123.0
6486,E2,795.0,0.5,127,123.0
6487,E2,795.5,0.5,127,123.0
6488,E2,796.0,0.5,127,123.0
6489,E2,796.5,0.5,127,123.0
