,note_name,start_time,duration,velocity,tempo
0,E2,0.0,0.5,127,69.0
1,G3,0.5,0.5,127,69.0
2,B3,1.0,0.5,127,69.0
3,E4,1.5,0.5,127,69.0
4,B3,2.0,0.5,127,69.0
5,G3,2.5,0.5,127,69.0
6,E2,3.0,0.5,127,69.0
7,G3,3.5,0.5,127,69.0
8,B3,4.0,0.5,127,69.0
9,E4,4.5,0.5,127,69.0
10,B3,5.0,0.5,127,69.0
11,G3,5.5,0.5,127,69.0
12,E2,6.0,0.5,127,69.0
13,G3,6.5,0.5,127,69.0
14,B3,7.0,0.5,127,69.0
15,E4,7.5,0.5,127,69.0
16,B3,8.0,0.5,127,69.0
17,G3,8.5,0.5,127,69.0
18,E2,9.0,0.5,127,69.0
19,G3,9.5,0.5,127,69.0
20,B3,10.0,0.5,127,69.0
21,E4,10.5,0.5,127,69.0
22,B3,11.0,0.5,127,69.0
23,B4,11.5,0.5,127,69.0
24,E2,12.0,0.5,127,69.0
25,B4,12.0,0.5,127,69.0
26,B3,12.5,0.5,127,69.0
27,G3,13.0,0.5,127,69.0
28,B3,13.5,0.25,127,69.0
29,B4,13.5,0.25,127,69.0
30,E4,13.75,0.25,127,69.0
31,B3,14.0,0.5,127,69.0
32,G3,14.5,0.5,127,69.0
33,E2,15.0,0.5,127,69.0
34,B3,15.0,0.5,127,69.0
35,G3,15.5,0.5,127,69.0
36,B4,16.0,0.5,127,69.0
37,B3,16.0,0.5,127,69.0
38,B3,16.5,0.5,127,69.0
39,C5,16.5,0.5,127,69.0
40,B4,17.0,0.375,127,69.0
41,C5,17.375,0.125,127,69.0
42,A4,17.5,0.5,127,69.0
43,B3,18.0,0.5,127,69.0
44,B4,18.0,0.5,127,69.0
45,A4,18.5,167/1000,127,69.0
46,G4,18.667,167/1000,127,69.0
47,F#4,18.833,167/1000,127,69.0
48,E4,19.0,0.5,127,69.0
49,A2,19.5,0.5,127,69.0
50,E4,19.5,0.5,127,69.0
51,C4,20.0,0.5,127,69.0
52,E4,20.5,0.5,127,69.0
53,F#4,21.0,0.25,127,69.0
54,E4,21.25,0.25,127,69.0
55,E4,21.5,0.5,127,69.0
56,C4,22.0,0.5,127,69.0
57,A2,22.5,0.5,127,69.0
58,C4,23.0,0.5,127,69.0
59,E4,23.5,0.5,127,69.0
60,E4,24.0,0.5,127,69.0
61,A2,24.5,0.5,127,69.0
62,C4,24.5,0.5,127,69.0
63,E4,24.5,0.5,127,69.0
64,E4,24.5,0.5,127,69.0
65,A2,25.0,0.5,127,69.0
66,C4,25.0,0.5,127,69.0
67,E4,25.0,0.5,127,69.0
68,E4,25.0,0.5,127,69.0
69,C3,25.5,0.5,127,69.0
70,C4,25.5,0.5,127,69.0
71,E4,25.5,0.5,127,69.0
72,E4,25.5,0.5,127,69.0
73,C3,26.0,0.25,127,69.0
74,C4,26.25,0.25,127,69.0
75,E4,26.5,0.25,127,69.0
76,C4,26.75,0.25,127,69.0
77,G4,27.0,0.25,127,69.0
78,E4,27.25,0.25,127,69.0
79,E4,27.5,0.25,127,69.0
80,C4,27.75,0.25,127,69.0
81,C3,28.0,0.5,127,69.0
82,C4,28.0,0.5,127,69.0
83,E4,28.0,0.5,127,69.0
84,E4,28.0,0.5,127,69.0
85,D3,28.5,0.5,127,69.0
86,D4,28.5,0.5,127,69.0
87,F#4,28.5,0.5,127,69.0
88,E4,28.5,0.5,127,69.0
89,D3,29.0,0.25,127,69.0
90,D4,29.25,0.25,127,69.0
91,F#4,29.5,0.25,127,69.0
92,D4,29.75,0.25,127,69.0
93,E4,30.0,0.25,127,69.0
94,A4,30.25,0.125,127,69.0
95,E4,30.375,0.125,127,69.0
96,F#4,30.5,0.25,127,69.0
97,B3,30.75,0.25,127,69.0
98,B3,31.0,0.25,127,69.0
99,E4,31.25,0.25,127,69.0
100,E2,31.5,0.5,127,69.0
101,B4,32.0,0.5,127,69.0
102,G4,32.0,0.5,127,69.0
103,B4,32.5,0.5,127,69.0
104,E5,33.0,0.5,127,69.0
105,B3,33.5,0.5,127,69.0
106,G3,34.0,0.5,127,69.0
107,E2,34.5,0.5,127,69.0
108,G3,35.0,0.5,127,69.0
109,B3,35.5,0.5,127,69.0
110,E4,36.0,0.5,127,69.0
111,B3,36.5,0.5,127,69.0
112,G3,37.0,0.5,127,69.0
113,E2,37.5,0.5,127,69.0
114,G3,38.0,0.5,127,69.0
115,B3,38.5,0.5,127,69.0
116,E4,39.0,0.5,127,69.0
117,B3,39.5,0.5,127,69.0
118,G3,40.0,0.5,127,69.0
119,E2,40.5,0.5,127,69.0
120,G3,41.0,0.5,127,69.0
121,B3,41.5,0.5,127,69.0
122,E4,42.0,0.5,127,69.0
123,B3,42.5,0.5,127,69.0
124,G3,43.0,0.5,127,69.0
125,E2,43.5,0.75,127,69.0
126,E3,44.25,0.25,127,69.0
127,B3,44.5,0.25,127,69.0
128,E4,44.75,0.25,127,69.0
129,B4,45.0,1.5,127,69.0
130,G4,45.0,1.5,127,69.0
131,D3,46.5,0.5,127,69.0
132,A3,47.0,0.5,127,69.0
133,F#4,47.5,0.5,127,69.0
134,D4,47.5,0.5,127,69.0
135,C3,48.0,0.5,127,69.0
136,G3,48.5,0.5,127,69.0
137,C4,49.0,0.5,127,69.0
138,E4,49.0,0.5,127,69.0
139,E2,49.5,0.75,127,69.0
140,E3,50.25,0.25,127,69.0
141,B3,50.5,0.25,127,69.0
142,E4,50.75,0.25,127,69.0
143,B4,51.0,1.5,127,69.0
144,G4,51.0,1.5,127,69.0
145,D3,52.5,0.5,127,69.0
146,A3,53.0,0.5,127,69.0
147,F#4,53.5,0.5,127,69.0
148,D4,53.5,0.5,127,69.0
149,C3,54.0,0.5,127,69.0
150,G3,54.5,0.5,127,69.0
151,C4,55.0,0.5,127,69.0
152,E4,55.0,0.5,127,69.0
153,E2,55.5,0.75,127,69.0
154,E3,56.25,0.25,127,69.0
155,B3,56.5,0.25,127,69.0
156,E4,56.5,0.25,127,69.0
157,E4,56.75,0.25,127,69.0
158,G4,56.75,0.25,127,69.0
159,B4,57.0,1.5,127,69.0
160,B4,57.0,1.5,127,69.0
161,G4,57.0,1.5,127,69.0
162,D3,58.5,0.5,127,69.0
163,A3,59.0,0.5,127,69.0
164,A4,59.0,0.25,127,69.0
165,F#4,59.25,0.25,127,69.0
166,D4,59.5,0.5,127,69.0
167,D4,59.5,0.5,127,69.0
168,F#4,59.5,0.5,127,69.0
169,C3,60.0,0.5,127,69.0
170,G3,60.5,0.5,127,69.0
171,G4,60.5,0.25,127,69.0
172,E4,60.75,0.25,127,69.0
173,C4,61.0,0.5,127,69.0
174,C4,61.0,0.5,127,69.0
175,E4,61.0,0.5,127,69.0
176,G2,61.5,0.5,127,69.0
177,G3,62.0,0.5,127,69.0
178,G4,62.0,0.25,127,69.0
179,D4,62.25,0.25,127,69.0
180,B3,62.5,0.5,127,69.0
181,B3,62.5,0.5,127,69.0
182,D4,62.5,0.5,127,69.0
183,B2,63.0,0.5,127,69.0
184,F#3,63.5,0.5,127,69.0
185,F#4,63.5,0.25,127,69.0
186,E-4,63.75,0.25,127,69.0
187,A3,64.0,0.5,127,69.0
188,A3,64.0,0.5,127,69.0
189,E-4,64.0,0.5,127,69.0
190,E2,64.5,0.5,127,69.0
191,A3,64.5,167/1000,127,69.0
192,G3,64.667,167/1000,127,69.0
193,F#3,64.833,167/1000,127,69.0
194,G3,65.0,0.5,127,69.0
195,G3,65.0,1.0,127,69.0
196,B3,65.5,0.5,127,69.0
197,E4,66.0,0.5,127,69.0
198,B3,66.5,0.5,127,69.0
199,G3,67.0,0.5,127,69.0
200,E2,67.5,0.5,127,69.0
201,E5,67.5,3.0,127,69.0
202,B4,67.5,3.0,127,69.0
203,G4,67.5,3.0,127,69.0
204,G3,68.0,0.5,127,69.0
205,B3,68.5,0.5,127,69.0
206,E4,69.0,0.5,127,69.0
207,B3,69.5,0.5,127,69.0
208,G3,70.0,0.5,127,69.0
209,E2,70.5,0.5,127,69.0
210,E1,70.5,1.5,127,69.0
211,C2,70.5,1.5,127,69.0
212,A3,70.5,1.5,127,69.0
213,G3,71.0,0.5,127,69.0
214,B3,71.5,0.5,127,69.0
215,E4,71.508,0.5,127,69.0
216,G4,72.0,0.5,127,69.0
217,E2,72.0,1.5,127,69.0
218,D2,72.0,1.0,127,69.0
219,F#2,72.0,1.0,127,69.0
220,E4,72.008,0.75,127,69.0
221,G3,72.5,0.25,127,69.0
222,E4,72.75,0.25,127,69.0
223,E4,72.758,0.25,127,69.0
224,B3,73.0,0.25,127,69.0
225,F#2,73.0,0.5,127,69.0
226,E4,73.008,0.25,127,69.0
227,G3,73.25,0.25,127,69.0
228,E4,73.258,121/500,127,69.0
229,E4,73.5,1/125,127,69.0
230,C2,73.5,1.5,127,69.0
231,F#2,73.5,0.5,127,69.0
232,D2,73.5,1.5,127,69.0
233,F#4,73.5,0.5,127,69.0
234,D3,73.5,0.5,127,69.0
235,F#4,73.508,0.25,127,69.0
236,E4,73.758,0.25,127,69.0
237,D3,74.0,0.25,127,69.0
238,F#2,74.0,0.5,127,69.0
239,E4,74.008,623/250,127,69.0
240,G4,74.25,0.25,127,69.0
241,D4,74.5,0.25,127,69.0
242,F#2,74.5,0.5,127,69.0
243,G3,74.75,0.25,127,69.0
244,C2,75.0,1.0,127,69.0
245,E4,75.0,0.5,127,69.0
246,C3,75.0,0.5,127,69.0
247,D2,75.0,0.5,127,69.0
248,F#2,75.0,0.5,127,69.0
249,D4,75.5,0.25,127,69.0
250,F#2,75.5,0.5,127,69.0
251,G3,75.75,0.25,127,69.0
252,G2,76.0,0.25,127,69.0
253,G1,76.0,0.25,127,69.0
254,C2,76.0,0.5,127,69.0
255,F#2,76.0,0.5,127,69.0
256,F#2,76.25,0.25,127,69.0
257,F#1,76.25,0.25,127,69.0
258,E4,76.5,1/125,127,69.0
259,E2,76.5,0.5,127,69.0
260,C2,76.5,1.5,127,69.0
261,F#2,76.5,0.5,127,69.0
262,E1,76.5,1.5,127,69.0
263,G3,77.0,0.5,127,69.0
264,F#2,77.0,0.5,127,69.0
265,B3,77.5,0.5,127,69.0
266,F#2,77.5,0.5,127,69.0
267,D4,77.508,0.25,127,69.0
268,E4,77.758,0.25,127,69.0
269,G4,78.0,0.5,127,69.0
270,E2,78.0,1.5,127,69.0
271,D2,78.0,0.5,127,69.0
272,F#2,78.0,0.5,127,69.0
273,E4,78.008,0.5,127,69.0
274,G3,78.5,0.25,127,69.0
275,F#2,78.5,0.5,127,69.0
276,E4,78.508,0.5,127,69.0
277,E4,78.75,0.25,127,69.0
278,B3,79.0,0.25,127,69.0
279,F#2,79.0,0.5,127,69.0
280,E4,79.008,0.25,127,69.0
281,G3,79.25,0.25,127,69.0
282,D4,79.258,121/500,127,69.0
283,D4,79.5,1/125,127,69.0
284,C2,79.5,1.5,127,69.0
285,F#2,79.5,0.5,127,69.0
286,D2,79.5,1.5,127,69.0
287,D3,79.5,0.5,127,69.0
288,F#4,79.5,0.5,127,69.0
289,D4,79.508,0.5,127,69.0
290,D3,80.0,0.25,127,69.0
291,F#2,80.0,0.5,127,69.0
292,D4,80.008,0.25,127,69.0
293,D4,80.25,0.25,127,69.0
294,D4,80.258,0.25,127,69.0
295,A3,80.5,0.25,127,69.0
296,F#2,80.5,0.5,127,69.0
297,E4,80.508,249/125,127,69.0
298,G3,80.75,0.25,127,69.0
299,C2,81.0,1.0,127,69.0
300,D4,81.0,0.5,127,69.0
301,C3,81.0,0.5,127,69.0
302,D2,81.0,0.5,127,69.0
303,F#2,81.0,0.5,127,69.0
304,G3,81.5,0.25,127,69.0
305,F#2,81.5,0.5,127,69.0
306,D4,81.75,0.25,127,69.0
307,G2,82.0,0.25,127,69.0
308,G1,82.0,0.25,127,69.0
309,C2,82.0,0.5,127,69.0
310,F#2,82.0,0.5,127,69.0
311,F#2,82.25,0.25,127,69.0
312,F#1,82.25,0.25,127,69.0
313,E4,82.5,1/125,127,69.0
314,E2,82.5,0.5,127,69.0
315,C2,82.5,1.5,127,69.0
316,F#2,82.5,0.5,127,69.0
317,E1,82.5,1.5,127,69.0
318,G3,83.0,0.5,127,69.0
319,F#2,83.0,0.5,127,69.0
320,B3,83.5,0.5,127,69.0
321,F#2,83.5,0.5,127,69.0
322,F#4,83.758,0.25,127,69.0
323,G4,84.0,0.5,127,69.0
324,E2,84.0,1.5,127,69.0
325,D2,84.0,0.5,127,69.0
326,F#2,84.0,0.5,127,69.0
327,G4,84.008,0.25,127,69.0
328,G4,84.258,0.5,127,69.0
329,G3,84.5,0.25,127,69.0
330,F#2,84.5,0.5,127,69.0
331,E4,84.75,0.25,127,69.0
332,G4,84.758,0.5,127,69.0
333,B3,85.0,0.25,127,69.0
334,F#2,85.0,0.5,127,69.0
335,G3,85.25,0.25,127,69.0
336,D4,85.258,121/500,127,69.0
337,D4,85.5,1/125,127,69.0
338,C2,85.5,1.5,127,69.0
339,F#2,85.5,0.5,127,69.0
340,D2,85.5,1.5,127,69.0
341,D3,85.5,0.5,127,69.0
342,F#4,85.5,0.5,127,69.0
343,D4,85.508,0.5,127,69.0
344,D3,86.0,0.25,127,69.0
345,F#2,86.0,0.5,127,69.0
346,D4,86.008,0.25,127,69.0
347,G4,86.25,0.25,127,69.0
348,D4,86.258,0.25,127,69.0
349,D4,86.5,0.25,127,69.0
350,F#2,86.5,0.5,127,69.0
351,E4,86.508,249/125,127,69.0
352,G3,86.75,0.25,127,69.0
353,C2,87.0,1.0,127,69.0
354,G4,87.0,0.5,127,69.0
355,C3,87.0,0.5,127,69.0
356,D2,87.0,0.5,127,69.0
357,F#2,87.0,0.5,127,69.0
358,D4,87.5,0.5,127,69.0
359,F#2,87.5,0.5,127,69.0
360,G3,88.0,0.5,127,69.0
361,C2,88.0,0.25,127,69.0
362,F#2,88.0,0.5,127,69.0
363,G1,88.0,0.25,127,69.0
364,F#1,88.25,0.25,127,69.0
365,E4,88.5,1/125,127,69.0
366,G2,88.5,0.5,127,69.0
367,C2,88.5,1.5,127,69.0
368,F#2,88.5,0.5,127,69.0
369,G1,88.5,1.5,127,69.0
370,G3,89.0,0.5,127,69.0
371,F#2,89.0,0.5,127,69.0
372,F#2,89.5,0.5,127,69.0
373,G4,89.5,0.5,127,69.0
374,D4,89.5,0.5,127,69.0
375,G4,89.508,0.5,127,69.0
376,B1,90.0,1.5,127,69.0
377,B2,90.0,0.5,127,69.0
378,B3,90.0,0.5,127,69.0
379,A3,90.0,0.5,127,69.0
380,F#4,90.0,0.5,127,69.0
381,D2,90.0,0.5,127,69.0
382,F#2,90.0,0.5,127,69.0
383,F#4,90.008,0.5,127,69.0
384,B2,90.5,0.25,127,69.0
385,F#2,90.5,0.5,127,69.0
386,F#4,90.508,0.25,127,69.0
387,F#4,90.75,0.25,127,69.0
388,F#4,90.758,0.25,127,69.0
389,B3,91.0,0.5,127,69.0
390,F#2,91.0,0.5,127,69.0
391,G4,91.008,123/250,127,69.0
392,G4,91.5,1/125,127,69.0
393,A3,91.5,0.5,127,69.0
394,C2,91.5,1.5,127,69.0
395,E1,91.5,1.5,127,69.0
396,E2,91.5,0.5,127,69.0
397,E4,91.5,0.5,127,69.0
398,F#4,91.508,0.25,127,69.0
399,E4,91.758,1371/500,127,69.0
400,G3,92.0,0.5,127,69.0
401,F#2,92.0,0.5,127,69.0
402,B3,92.5,0.5,127,69.0
403,F#2,92.5,0.5,127,69.0
404,E4,93.0,0.5,127,69.0
405,E2,93.0,1.5,127,69.0
406,D2,93.0,0.5,127,69.0
407,F#2,93.0,0.5,127,69.0
408,B3,93.5,0.5,127,69.0
409,F#2,93.5,0.5,127,69.0
410,G3,94.0,0.5,127,69.0
411,F#2,94.0,0.5,127,69.0
412,E4,94.5,1/125,127,69.0
413,E2,94.5,0.5,127,69.0
414,C2,94.5,0.25,127,69.0
415,F#2,94.5,0.5,127,69.0
416,E1,94.5,0.25,127,69.0
417,C2,94.75,0.5,127,69.0
418,E1,94.75,0.5,127,69.0
419,G3,95.0,0.5,127,69.0
420,F#2,95.0,0.5,127,69.0
421,C2,95.25,0.25,127,69.0
422,E1,95.25,0.25,127,69.0
423,B3,95.5,0.5,127,69.0
424,E1,95.5,0.5,127,69.0
425,D2,95.5,0.5,127,69.0
426,F#2,95.5,0.5,127,69.0
427,E4,96.0,0.5,127,69.0
428,E2,96.0,1.0,127,69.0
429,D2,96.0,0.5,127,69.0
430,F#2,96.0,0.5,127,69.0
431,B3,96.5,0.5,127,69.0
432,F#2,96.5,0.5,127,69.0
433,G2,97.0,0.25,127,69.0
434,C3,97.0,0.25,127,69.0
435,G1,97.0,0.25,127,69.0
436,F#2,97.25,0.25,127,69.0
437,C3,97.25,0.25,127,69.0
438,F#1,97.25,0.25,127,69.0
439,E2,97.5,0.5,127,69.0
440,G4,97.5,3.0,127,69.0
441,E4,97.5,3.0,127,69.0
442,C2,97.5,1.5,127,69.0
443,A3,97.5,0.5,127,69.0
444,E1,97.5,1.5,127,69.0
445,G3,98.0,0.5,127,69.0
446,F#2,98.0,0.5,127,69.0
447,D4,98.467,21/500,75,69.0
448,B3,98.5,0.5,127,69.0
449,F#2,98.5,0.5,127,69.0
450,E4,98.508,0.25,127,69.0
451,E4,98.758,0.25,127,69.0
452,G4,99.0,0.5,127,69.0
453,E2,99.0,1.5,127,69.0
454,D2,99.0,0.5,127,69.0
455,F#2,99.0,0.5,127,69.0
456,E4,99.008,0.5,127,69.0
457,G3,99.5,0.25,127,69.0
458,F#2,99.5,0.5,127,69.0
459,E4,99.508,0.25,127,69.0
460,E4,99.75,0.25,127,69.0
461,E4,99.758,371/500,127,69.0
462,B3,100.0,0.25,127,69.0
463,F#2,100.0,0.5,127,69.0
464,G3,100.25,0.25,127,69.0
465,E4,100.5,1/125,127,69.0
466,A4,100.5,0.75,127,69.0
467,F#4,100.5,0.75,127,69.0
468,C2,100.5,1.5,127,69.0
469,F#2,100.5,0.5,127,69.0
470,D2,100.5,1.5,127,69.0
471,F#4,100.5,0.5,127,69.0
472,D3,100.5,0.5,127,69.0
473,F#4,100.508,0.5,127,69.0
474,D3,101.0,0.25,127,69.0
475,F#2,101.0,0.5,127,69.0
476,G4,101.008,0.5,127,69.0
477,G4,101.25,0.25,127,69.0
478,B4,101.25,0.75,127,69.0
479,G4,101.25,0.75,127,69.0
480,D4,101.5,0.25,127,69.0
481,F#2,101.5,0.5,127,69.0
482,D4,101.508,0.25,127,69.0
483,G3,101.75,0.25,127,69.0
484,E4,101.758,871/500,127,69.0
485,G4,102.0,1.5,127,69.0
486,E4,102.0,1.5,127,69.0
487,C2,102.0,1.0,127,69.0
488,E4,102.0,0.5,127,69.0
489,C3,102.0,0.5,127,69.0
490,D2,102.0,0.5,127,69.0
491,F#2,102.0,0.5,127,69.0
492,D4,102.5,0.25,127,69.0
493,F#2,102.5,0.5,127,69.0
494,G3,102.75,0.25,127,69.0
495,G2,103.0,0.25,127,69.0
496,G1,103.0,0.25,127,69.0
497,C2,103.0,0.5,127,69.0
498,F#2,103.0,0.5,127,69.0
499,F#2,103.25,0.25,127,69.0
500,F#1,103.25,0.25,127,69.0
501,E4,103.5,1/125,127,69.0
502,E2,103.5,0.5,127,69.0
503,G4,103.5,3.0,127,69.0
504,E4,103.5,3.0,127,69.0
505,C2,103.5,1.5,127,69.0
506,F#2,103.5,0.5,127,69.0
507,E1,103.5,1.5,127,69.0
508,G3,104.0,0.5,127,69.0
509,F#2,104.0,0.5,127,69.0
510,B3,104.5,0.5,127,69.0
511,F#2,104.5,0.5,127,69.0
512,D4,104.508,0.25,127,69.0
513,E4,104.758,0.25,127,69.0
514,G4,105.0,0.5,127,69.0
515,E2,105.0,1.5,127,69.0
516,D2,105.0,0.5,127,69.0
517,F#2,105.0,0.5,127,69.0
518,E4,105.008,0.75,127,69.0
519,G3,105.5,0.25,127,69.0
520,F#2,105.5,0.5,127,69.0
521,E4,105.75,0.25,127,69.0
522,E4,105.758,0.25,127,69.0
523,B3,106.0,0.25,127,69.0
524,F#2,106.0,0.5,127,69.0
525,E4,106.008,0.25,127,69.0
526,G3,106.25,0.25,127,69.0
527,B3,106.258,121/500,127,69.0
528,B3,106.5,1/125,127,69.0
529,A4,106.5,0.75,127,69.0
530,F#4,106.5,0.75,127,69.0
531,C2,106.5,1.5,127,69.0
532,F#2,106.5,0.5,127,69.0
533,D2,106.5,1.5,127,69.0
534,D3,106.5,0.5,127,69.0
535,F#4,106.5,0.5,127,69.0
536,D4,106.508,0.5,127,69.0
537,D3,107.0,0.25,127,69.0
538,F#2,107.0,0.5,127,69.0
539,D4,107.008,0.25,127,69.0
540,D4,107.25,0.25,127,69.0
541,B4,107.25,0.75,127,69.0
542,G4,107.25,0.75,127,69.0
543,E4,107.258,1121/500,127,69.0
544,A3,107.5,0.25,127,69.0
545,F#2,107.5,0.5,127,69.0
546,G3,107.75,0.25,127,69.0
547,C5,108.0,1.5,127,69.0
548,G4,108.0,1.5,127,69.0
549,C2,108.0,1.0,127,69.0
550,D4,108.0,0.5,127,69.0
551,C3,108.0,0.5,127,69.0
552,D2,108.0,0.5,127,69.0
553,F#2,108.0,0.5,127,69.0
554,G3,108.5,0.25,127,69.0
555,F#2,108.5,0.5,127,69.0
556,D4,108.75,0.25,127,69.0
557,G2,109.0,0.25,127,69.0
558,G1,109.0,0.25,127,69.0
559,C2,109.0,0.5,127,69.0
560,F#2,109.0,0.5,127,69.0
561,F#2,109.25,0.25,127,69.0
562,F#1,109.25,0.25,127,69.0
563,E4,109.5,1/125,127,69.0
564,E2,109.5,0.5,127,69.0
565,G4,109.5,3.0,127,69.0
566,E4,109.5,3.0,127,69.0
567,C2,109.5,1.5,127,69.0
568,F#2,109.5,0.5,127,69.0
569,E1,109.5,1.5,127,69.0
570,G3,110.0,0.5,127,69.0
571,F#2,110.0,0.5,127,69.0
572,A4,110.008,0.25,127,69.0
573,B4,110.258,0.25,127,69.0
574,B3,110.5,0.5,127,69.0
575,F#2,110.5,0.5,127,69.0
576,A4,110.508,229/500,127,69.0
577,G4,110.967,21/500,75,69.0
578,G4,111.0,0.5,127,69.0
579,E2,111.0,1.5,127,69.0
580,D2,111.0,0.5,127,69.0
581,F#2,111.0,0.5,127,69.0
582,F#4,111.008,0.5,127,69.0
583,G3,111.5,0.25,127,69.0
584,F#2,111.5,0.5,127,69.0
585,F#4,111.508,0.5,127,69.0
586,E4,111.75,0.25,127,69.0
587,B3,112.0,0.25,127,69.0
588,F#2,112.0,0.5,127,69.0
589,E4,112.008,123/250,127,69.0
590,G3,112.25,0.25,127,69.0
591,E4,112.5,1/125,127,69.0
592,A4,112.5,0.75,127,69.0
593,F#4,112.5,0.75,127,69.0
594,C2,112.5,1.5,127,69.0
595,F#2,112.5,0.5,127,69.0
596,D2,112.5,1.5,127,69.0
597,D3,112.5,0.5,127,69.0
598,F#4,112.5,0.5,127,69.0
599,F#4,112.508,0.5,127,69.0
600,D3,113.0,0.25,127,69.0
601,F#2,113.0,0.5,127,69.0
602,G4,113.008,623/250,127,69.0
603,G4,113.25,0.25,127,69.0
604,B4,113.25,0.75,127,69.0
605,G4,113.25,0.75,127,69.0
606,D4,113.5,0.25,127,69.0
607,F#2,113.5,0.5,127,69.0
608,G3,113.75,0.25,127,69.0
609,G4,114.0,1.5,127,69.0
610,E4,114.0,1.5,127,69.0
611,C2,114.0,1.0,127,69.0
612,G4,114.0,0.5,127,69.0
613,C3,114.0,0.5,127,69.0
614,D2,114.0,0.5,127,69.0
615,F#2,114.0,0.5,127,69.0
616,D4,114.5,0.5,127,69.0
617,F#2,114.5,0.5,127,69.0
618,G3,115.0,0.5,127,69.0
619,C2,115.0,0.25,127,69.0
620,F#2,115.0,0.5,127,69.0
621,G1,115.0,0.25,127,69.0
622,F#1,115.25,0.25,127,69.0
623,G4,115.5,1/125,127,69.0
624,G2,115.5,0.5,127,69.0
625,G4,115.5,1.5,127,69.0
626,B3,115.5,3.0,127,69.0
627,C2,115.5,1.5,127,69.0
628,F#2,115.5,0.5,127,69.0
629,G1,115.5,1.5,127,69.0
630,G3,116.0,0.5,127,69.0
631,F#2,116.0,0.5,127,69.0
632,F#2,116.5,0.5,127,69.0
633,G4,116.5,0.5,127,69.0
634,D4,116.5,0.5,127,69.0
635,B4,116.508,0.5,101,69.0
636,G4,116.508,0.5,101,69.0
637,F#4,117.0,1.5,127,69.0
638,B1,117.0,1.5,127,69.0
639,B2,117.0,0.5,127,69.0
640,B3,117.0,0.5,127,69.0
641,A3,117.0,0.5,127,69.0
642,F#4,117.0,0.5,127,69.0
643,D2,117.0,0.5,127,69.0
644,F#2,117.0,0.5,127,69.0
645,A4,117.008,0.5,101,69.0
646,F#4,117.008,0.5,101,69.0
647,B2,117.5,0.25,127,69.0
648,F#2,117.5,0.5,127,69.0
649,A4,117.508,0.25,101,69.0
650,F#4,117.508,0.25,101,69.0
651,F#4,117.75,0.25,127,69.0
652,A4,117.758,0.25,101,69.0
653,F#4,117.758,0.25,101,69.0
654,B3,118.0,0.5,127,69.0
655,F#2,118.0,0.5,127,69.0
656,B4,118.008,123/250,101,69.0
657,G4,118.008,123/250,101,69.0
658,E4,118.5,3.0,127,69.0
659,B3,118.5,3.0,127,69.0
660,C2,118.5,1.5,127,69.0
661,A3,118.5,0.5,127,69.0
662,E1,118.5,1.5,127,69.0
663,B4,118.5,1/125,101,69.0
664,G4,118.5,1/125,101,69.0
665,E2,118.5,0.5,127,69.0
666,E4,118.5,0.5,127,69.0
667,A4,118.508,0.25,101,69.0
668,F#4,118.508,0.25,101,69.0
669,G4,118.758,1371/500,101,69.0
670,E4,118.758,1371/500,101,69.0
671,G3,119.0,0.5,127,69.0
672,F#2,119.0,0.5,127,69.0
673,B3,119.5,0.5,127,69.0
674,F#2,119.5,0.5,127,69.0
675,E4,120.0,0.5,127,69.0
676,E2,120.0,1.5,127,69.0
677,D2,120.0,0.5,127,69.0
678,F#2,120.0,0.5,127,69.0
679,B3,120.5,0.5,127,69.0
680,D2,120.5,0.5,127,69.0
681,F#2,120.5,0.5,127,69.0
682,G3,121.0,0.5,127,69.0
683,C2,121.0,0.5,127,69.0
684,F#2,121.0,0.5,127,69.0
685,E2,121.5,0.5,127,69.0
686,E4,121.5,3.0,127,69.0
687,B3,121.5,3.0,127,69.0
688,C2,121.5,0.25,127,69.0
689,F#2,121.5,0.5,127,69.0
690,E1,121.5,0.25,127,69.0
691,G4,121.508,1/125,101,69.0
692,E4,121.508,1/125,101,69.0
693,C2,121.75,0.5,127,69.0
694,E1,121.75,0.5,127,69.0
695,G3,122.0,0.5,127,69.0
696,F#2,122.0,0.5,127,69.0
697,C2,122.25,0.25,127,69.0
698,E1,122.25,0.25,127,69.0
699,B3,122.5,0.5,127,69.0
700,E1,122.5,0.5,127,69.0
701,D2,122.5,0.5,127,69.0
702,F#2,122.5,0.5,127,69.0
703,E4,123.0,0.5,127,69.0
704,E2,123.0,1.0,127,69.0
705,D2,123.0,0.5,127,69.0
706,F#2,123.0,0.5,127,69.0
707,B3,123.5,0.5,127,69.0
708,F#2,123.5,0.25,127,69.0
709,D2,123.75,0.25,127,69.0
710,G2,124.0,0.25,127,69.0
711,D2,124.0,0.25,127,69.0
712,G1,124.0,0.25,127,69.0
713,F#2,124.25,0.25,127,69.0
714,D2,124.25,0.25,127,69.0
715,F#1,124.25,0.25,127,69.0
716,E2,124.5,0.5,127,69.0
717,C2,124.5,1.5,127,69.0
718,A3,124.5,0.5,127,69.0
719,E1,124.5,1.5,127,69.0
720,G3,125.0,0.5,127,69.0
721,F#2,125.0,0.5,127,69.0
722,G4,125.017,0.5,101,69.0
723,E4,125.017,0.5,101,69.0
724,B3,125.5,0.5,127,69.0
725,F#2,125.5,0.5,127,69.0
726,G3,125.5,0.5,127,69.0
727,E3,125.5,0.5,127,69.0
728,G4,125.517,0.5,101,69.0
729,E4,125.517,0.5,101,69.0
730,G4,126.0,0.5,127,69.0
731,E2,126.0,1.5,127,69.0
732,E3,126.0,0.25,127,69.0
733,G3,126.0,0.25,127,69.0
734,D2,126.0,0.5,127,69.0
735,F#2,126.0,0.5,127,69.0
736,G4,126.017,0.5,101,69.0
737,E4,126.017,0.5,101,69.0
738,A3,126.25,0.5,127,69.0
739,F#3,126.25,0.5,127,69.0
740,G3,126.5,0.25,127,69.0
741,F#2,126.5,0.5,127,69.0
742,E4,126.75,0.25,127,69.0
743,F#3,126.75,0.25,127,69.0
744,A3,126.75,0.25,127,69.0
745,G4,126.767,0.25,101,69.0
746,E4,126.767,0.25,101,69.0
747,B3,127.0,0.25,127,69.0
748,F#2,127.0,0.5,127,69.0
749,E3,127.0,0.5,127,69.0
750,G3,127.0,0.5,127,69.0
751,G4,127.017,123/250,101,69.0
752,E4,127.017,123/250,101,69.0
753,G3,127.25,0.25,127,69.0
754,C2,127.5,1.5,127,69.0
755,F#2,127.5,0.5,127,69.0
756,D2,127.5,1.5,127,69.0
757,F#4,127.5,0.5,127,69.0
758,D3,127.5,0.5,127,69.0
759,D3,127.5,0.75,127,69.0
760,F#3,127.5,0.75,127,69.0
761,G4,127.508,1/125,101,69.0
762,E4,127.508,1/125,101,69.0
763,A4,127.517,0.5,101,69.0
764,F#4,127.517,0.5,101,69.0
765,D3,128.0,0.25,127,69.0
766,F#2,128.0,0.5,127,69.0
767,B4,128.017,0.25,101,69.0
768,G4,128.017,0.25,101,69.0
769,G4,128.25,0.25,127,69.0
770,E3,128.25,0.75,127,69.0
771,G4,128.267,0.25,101,69.0
772,E4,128.267,0.25,101,69.0
773,D4,128.5,0.25,127,69.0
774,F#2,128.5,0.5,127,69.0
775,G4,128.517,249/125,101,69.0
776,E4,128.517,249/125,101,69.0
777,G3,128.75,0.25,127,69.0
778,E3,129.0,1.5,127,69.0
779,C2,129.0,1.0,127,69.0
780,E4,129.0,0.5,127,69.0
781,C3,129.0,0.5,127,69.0
782,D2,129.0,0.5,127,69.0
783,F#2,129.0,0.5,127,69.0
784,D4,129.5,0.25,127,69.0
785,F#2,129.5,0.5,127,69.0
786,G3,129.75,0.25,127,69.0
787,G2,130.0,0.25,127,69.0
788,G1,130.0,0.25,127,69.0
789,C2,130.0,0.5,127,69.0
790,A3,130.0,0.5,127,69.0
791,F#2,130.25,0.25,127,69.0
792,F#1,130.25,0.25,127,69.0
793,E2,130.5,0.5,127,69.0
794,C2,130.5,1.5,127,69.0
795,A3,130.5,0.5,127,69.0
796,E1,130.5,1.5,127,69.0
797,G4,130.517,1/125,101,69.0
798,E4,130.517,1/125,101,69.0
799,G3,131.0,0.5,127,69.0
800,F#2,131.0,0.5,127,69.0
801,B3,131.5,0.5,127,69.0
802,F#2,131.5,0.5,127,69.0
803,G3,131.5,0.5,127,69.0
804,E3,131.5,0.5,127,69.0
805,E5,131.525,0.25,101,69.0
806,B4,131.525,0.25,101,69.0
807,B4,131.775,0.25,101,69.0
808,G4,131.775,0.25,101,69.0
809,G4,132.0,0.5,127,69.0
810,E2,132.0,1.5,127,69.0
811,E3,132.0,0.25,127,69.0
812,G3,132.0,0.25,127,69.0
813,D2,132.0,0.5,127,69.0
814,F#2,132.0,0.5,127,69.0
815,B4,132.025,0.25,101,69.0
816,G4,132.025,0.25,101,69.0
817,A3,132.25,0.5,127,69.0
818,F#3,132.25,0.5,127,69.0
819,C5,132.275,0.25,101,69.0
820,A4,132.275,0.25,101,69.0
821,G3,132.5,0.25,127,69.0
822,F#2,132.5,0.5,127,69.0
823,C5,132.525,0.25,101,69.0
824,A4,132.525,0.25,101,69.0
825,E4,132.75,0.25,127,69.0
826,F#3,132.75,0.25,127,69.0
827,A3,132.75,0.25,127,69.0
828,A4,132.775,371/500,101,69.0
829,E4,132.775,371/500,101,69.0
830,B3,133.0,0.25,127,69.0
831,F#2,133.0,0.5,127,69.0
832,G3,133.0,0.5,127,69.0
833,E3,133.0,0.5,127,69.0
834,G3,133.25,0.25,127,69.0
835,C2,133.5,1.5,127,69.0
836,F#2,133.5,0.5,127,69.0
837,D2,133.5,1.5,127,69.0
838,D3,133.5,0.5,127,69.0
839,F#4,133.5,0.5,127,69.0
840,D3,133.5,0.75,127,69.0
841,F#3,133.5,0.75,127,69.0
842,A4,133.517,1/125,101,69.0
843,E4,133.517,1/125,101,69.0
844,A4,133.525,0.5,101,69.0
845,F#4,133.525,0.5,101,69.0
846,D3,134.0,0.25,127,69.0
847,F#2,134.0,0.5,127,69.0
848,B4,134.025,0.5,101,69.0
849,G4,134.025,0.5,101,69.0
850,D4,134.25,0.25,127,69.0
851,D3,134.25,0.75,127,69.0
852,A3,134.5,0.25,127,69.0
853,F#2,134.5,0.5,127,69.0
854,B4,134.525,0.75,101,69.0
855,G4,134.525,0.75,101,69.0
856,G3,134.75,0.25,127,69.0
857,D3,135.0,1.5,127,69.0
858,C2,135.0,1.0,127,69.0
859,D4,135.0,0.5,127,69.0
860,C3,135.0,0.5,127,69.0
861,D2,135.0,0.5,127,69.0
862,F#2,135.0,0.5,127,69.0
863,C5,135.275,621/500,75,69.0
864,G3,135.5,0.25,127,69.0
865,F#2,135.5,0.5,127,69.0
866,D4,135.75,0.25,127,69.0
867,G2,136.0,0.25,127,69.0
868,G1,136.0,0.25,127,69.0
869,C2,136.0,0.5,127,69.0
870,A3,136.0,0.5,127,69.0
871,F#2,136.25,0.25,127,69.0
872,F#1,136.25,0.25,127,69.0
873,E2,136.5,0.5,127,69.0
874,A3,136.5,0.5,127,69.0
875,C2,136.5,1.5,127,69.0
876,E1,136.5,1.5,127,69.0
877,C5,136.517,1/125,75,69.0
878,G3,137.0,0.5,127,69.0
879,F#2,137.0,0.5,127,69.0
880,B3,137.5,0.5,127,69.0
881,F#2,137.5,0.5,127,69.0
882,E3,137.5,0.5,127,69.0
883,G3,137.5,0.5,127,69.0
884,A4,137.525,0.25,101,69.0
885,F#4,137.525,0.25,101,69.0
886,B4,137.775,0.25,101,69.0
887,G4,137.775,0.25,101,69.0
888,G4,138.0,0.5,127,69.0
889,E2,138.0,1.5,127,69.0
890,G3,138.0,0.25,127,69.0
891,E3,138.0,0.25,127,69.0
892,D2,138.0,0.5,127,69.0
893,F#2,138.0,0.5,127,69.0
894,A4,138.025,0.25,101,69.0
895,F#4,138.025,0.25,101,69.0
896,F#3,138.25,0.5,127,69.0
897,A3,138.25,0.5,127,69.0
898,B4,138.275,0.5,101,69.0
899,G4,138.275,0.5,101,69.0
900,G3,138.5,0.25,127,69.0
901,F#2,138.5,0.5,127,69.0
902,E4,138.75,0.25,127,69.0
903,A3,138.75,0.25,127,69.0
904,F#3,138.75,0.25,127,69.0
905,A4,138.775,0.5,101,69.0
906,F#4,138.775,0.5,101,69.0
907,B3,139.0,0.25,127,69.0
908,F#2,139.0,0.5,127,69.0
909,E3,139.0,0.5,127,69.0
910,G3,139.0,0.5,127,69.0
911,G3,139.25,0.25,127,69.0
912,G4,139.275,121/500,101,69.0
913,E4,139.275,121/500,101,69.0
914,F#2,139.5,0.5,127,69.0
915,C2,139.5,1.5,127,69.0
916,D2,139.5,1.5,127,69.0
917,D3,139.5,0.5,127,69.0
918,F#4,139.5,0.5,127,69.0
919,D3,139.5,0.75,127,69.0
920,F#3,139.5,0.75,127,69.0
921,G4,139.517,1/125,101,69.0
922,E4,139.517,1/125,101,69.0
923,A4,139.525,0.5,101,69.0
924,F#4,139.525,0.5,101,69.0
925,D3,140.0,0.25,127,69.0
926,F#2,140.0,0.5,127,69.0
927,B4,140.025,0.5,101,69.0
928,G4,140.025,0.5,101,69.0
929,G4,140.25,0.25,127,69.0
930,G3,140.25,0.75,127,69.0
931,D4,140.5,0.25,127,69.0
932,F#2,140.5,0.5,127,69.0
933,G4,140.525,249/125,101,69.0
934,E4,140.525,249/125,101,69.0
935,G3,140.75,0.25,127,69.0
936,C2,141.0,1.0,127,69.0
937,G4,141.0,0.5,127,69.0
938,C3,141.0,0.5,127,69.0
939,C3,141.0,1.5,127,69.0
940,E3,141.0,1.5,127,69.0
941,D2,141.0,0.5,127,69.0
942,F#2,141.0,0.5,127,69.0
943,D4,141.5,0.5,127,69.0
944,F#2,141.5,0.5,127,69.0
945,G3,142.0,0.5,127,69.0
946,G1,142.0,0.25,127,69.0
947,A3,142.0,0.5,127,69.0
948,C2,142.0,0.5,127,69.0
949,F#1,142.25,0.25,127,69.0
950,G2,142.5,0.5,127,69.0
951,C2,142.5,1.5,127,69.0
952,A3,142.5,0.5,127,69.0
953,G1,142.5,1.5,127,69.0
954,B2,142.5,0.5,127,69.0
955,D3,142.5,0.5,127,69.0
956,G4,142.525,1/125,101,69.0
957,E4,142.525,1/125,101,69.0
958,G3,143.0,0.5,127,69.0
959,B2,143.0,0.25,127,69.0
960,F#2,143.0,0.5,127,69.0
961,C3,143.25,0.25,127,69.0
962,B2,143.5,0.5,127,69.0
963,F#2,143.5,0.5,127,69.0
964,G4,143.5,0.5,127,69.0
965,D4,143.5,0.5,127,69.0
966,B4,143.533,0.5,101,69.0
967,G4,143.533,0.5,101,69.0
968,B1,144.0,1.5,127,69.0
969,B2,144.0,0.5,127,69.0
970,B3,144.0,0.5,127,69.0
971,A3,144.0,0.5,127,69.0
972,F#4,144.0,0.5,127,69.0
973,D2,144.0,0.5,127,69.0
974,F#2,144.0,0.5,127,69.0
975,A4,144.033,0.5,101,69.0
976,F#4,144.033,0.5,101,69.0
977,B2,144.5,0.25,127,69.0
978,B2,144.5,0.25,127,69.0
979,F#2,144.5,0.5,127,69.0
980,A4,144.533,0.25,101,69.0
981,F#4,144.533,0.25,101,69.0
982,F#4,144.75,0.25,127,69.0
983,C3,144.75,0.25,127,69.0
984,A4,144.783,371/500,101,69.0
985,F#4,144.783,371/500,101,69.0
986,B3,145.0,0.5,127,69.0
987,B2,145.0,0.5,127,69.0
988,F#2,145.0,0.5,127,69.0
989,C2,145.5,1.5,127,69.0
990,A3,145.5,0.5,127,69.0
991,E1,145.5,1.5,127,69.0
992,E2,145.5,0.5,127,69.0
993,E4,145.5,0.5,127,69.0
994,A4,145.525,1/125,101,69.0
995,F#4,145.525,1/125,101,69.0
996,A4,145.533,0.25,101,69.0
997,F#4,145.533,0.25,101,69.0
998,A4,145.783,0.25,101,69.0
999,F#4,145.783,0.25,101,69.0
1000,G3,146.0,0.5,127,69.0
1001,E4,146.0,0.5,127,69.0
1002,F#2,146.0,0.5,127,69.0
1003,B4,146.033,623/250,101,69.0
1004,G4,146.033,623/250,101,69.0
1005,B3,146.5,0.5,127,69.0
1006,F#4,146.5,0.5,127,69.0
1007,F#2,146.5,0.5,127,69.0
1008,E4,147.0,0.5,127,69.0
1009,G4,147.0,0.5,127,69.0
1010,E2,147.0,1.5,127,69.0
1011,D2,147.0,0.5,127,69.0
1012,F#2,147.0,0.5,127,69.0
1013,B3,147.5,0.5,127,69.0
1014,F#4,147.5,0.5,127,69.0
1015,F#2,147.5,0.5,127,69.0
1016,G3,148.0,0.5,127,69.0
1017,E4,148.0,0.5,127,69.0
1018,F#2,148.0,0.5,127,69.0
1019,G4,148.5,0.5,127,69.0
1020,A3,148.5,0.5,127,69.0
1021,C2,148.5,1.5,127,69.0
1022,C2,148.5,1.5,127,69.0
1023,E4,148.5,1.5,127,69.0
1024,C4,148.5,1.5,127,69.0
1025,G3,148.5,1.5,127,69.0
1026,E3,148.5,1.5,127,69.0
1027,C3,148.5,1.5,127,69.0
1028,E4,148.5,1.5,127,69.0
1029,C4,148.5,1.5,127,69.0
1030,G3,148.5,1.5,127,69.0
1031,E3,148.5,1.5,127,69.0
1032,C3,148.5,1.5,127,69.0
1033,B4,148.533,1/125,101,69.0
1034,G4,148.533,1/125,101,69.0
1035,F#4,149.0,0.5,127,69.0
1036,F#2,149.0,0.5,127,69.0
1037,E4,149.5,0.5,127,69.0
1038,F#2,149.5,0.5,127,69.0
1039,A4,150.0,1.5,127,69.0
1040,A1,150.0,1.5,127,69.0
1041,C4,150.0,1.5,127,69.0
1042,G#3,150.0,1.5,127,69.0
1043,E-3,150.0,1.5,127,69.0
1044,A2,150.0,1.5,127,69.0
1045,C4,150.0,1.5,127,69.0
1046,G#3,150.0,1.5,127,69.0
1047,E-3,150.0,1.5,127,69.0
1048,A2,150.0,1.5,127,69.0
1049,A3,150.0,0.5,127,69.0
1050,D2,150.0,0.5,127,69.0
1051,F#2,150.5,0.5,127,69.0
1052,F#2,151.0,0.5,127,69.0
1053,C2,151.5,1.5,127,69.0
1054,A3,151.5,0.5,127,69.0
1055,D2,151.5,0.5,127,69.0
1056,F#4,151.5,0.75,127,69.0
1057,D4,151.5,0.75,127,69.0
1058,A3,151.5,0.75,127,69.0
1059,D3,151.5,0.75,127,69.0
1060,D2,152.0,0.5,127,69.0
1061,A2,152.0,0.5,127,69.0
1062,F#2,152.0,0.5,127,69.0
1063,D3,152.25,0.25,127,69.0
1064,A3,152.25,0.25,127,69.0
1065,D4,152.25,0.25,127,69.0
1066,F#4,152.25,0.25,127,69.0
1067,F#2,152.5,0.5,127,69.0
1068,D2,152.5,0.5,127,69.0
1069,F#4,152.5,0.25,127,69.0
1070,D4,152.5,0.25,127,69.0
1071,A3,152.5,0.25,127,69.0
1072,D3,152.5,0.25,127,69.0
1073,A4,152.542,0.25,101,69.0
1074,F#5,152.542,0.25,101,69.0
1075,F#4,152.75,0.25,127,69.0
1076,D4,152.75,0.25,127,69.0
1077,A3,152.75,0.25,127,69.0
1078,D3,152.75,0.25,127,69.0
1079,A4,152.792,26/125,101,69.0
1080,F#5,152.792,26/125,101,69.0
1081,A4,153.0,21/500,75,69.0
1082,C2,153.0,1.5,127,69.0
1083,F#2,153.0,0.5,127,69.0
1084,D2,153.0,0.5,127,69.0
1085,F#5,153.0,0.5,92,69.0
1086,B4,153.0,0.5,92,69.0
1087,G5,153.0,0.5,92,69.0
1088,G4,153.0,0.25,127,69.0
1089,D4,153.0,0.25,127,69.0
1090,A3,153.0,0.25,127,69.0
1091,D3,153.0,0.25,127,69.0
1092,D3,153.25,0.5,127,69.0
1093,A3,153.25,0.5,127,69.0
1094,D4,153.25,0.5,127,69.0
1095,F#4,153.25,0.5,127,69.0
1096,D2,153.5,0.5,127,69.0
1097,F#2,153.5,0.5,127,69.0
1098,A2,153.5,0.5,127,69.0
1099,A4,153.542,0.25,101,69.0
1100,F#5,153.542,0.25,101,69.0
1101,G#4,153.75,0.5,127,69.0
1102,D4,153.75,0.5,127,69.0
1103,A3,153.75,0.5,127,69.0
1104,D3,153.75,0.5,127,69.0
1105,G4,153.792,0.375,101,69.0
1106,E5,153.792,0.375,101,69.0
1107,F#2,154.0,0.5,127,69.0
1108,D2,154.0,0.5,127,69.0
1109,A4,154.167,367/1000,101,69.0
1110,F#5,154.167,367/1000,101,69.0
1111,F#4,154.25,0.25,127,69.0
1112,D4,154.25,0.25,127,69.0
1113,A3,154.25,0.25,127,69.0
1114,D3,154.25,0.25,127,69.0
1115,C2,154.5,1.5,127,69.0
1116,A3,154.5,1.0,127,69.0
1117,C2,154.5,1.5,127,69.0
1118,E4,154.5,1.5,127,69.0
1119,C4,154.5,1.5,127,69.0
1120,G3,154.5,1.5,127,69.0
1121,E3,154.5,1.5,127,69.0
1122,C3,154.5,1.5,127,69.0
1123,A4,154.533,1/125,101,69.0
1124,F#5,154.533,1/125,101,69.0
1125,A4,154.542,0.25,101,69.0
1126,F#5,154.542,0.25,101,69.0
1127,G4,154.792,1371/500,101,69.0
1128,E5,154.792,1371/500,101,69.0
1129,F#2,155.5,0.5,127,69.0
1130,A1,156.0,1.5,127,69.0
1131,C#4,156.0,1.5,127,69.0
1132,A3,156.0,1.5,127,69.0
1133,E3,156.0,1.5,127,69.0
1134,A2,156.0,1.5,127,69.0
1135,A3,156.0,0.5,127,69.0
1136,D2,156.0,0.5,127,69.0
1137,F#2,156.5,0.5,127,69.0
1138,F#2,157.0,0.5,127,69.0
1139,C2,157.5,1.5,127,69.0
1140,A3,157.5,0.5,127,69.0
1141,D2,157.5,0.5,127,69.0
1142,F#4,157.5,0.75,127,69.0
1143,D4,157.5,0.75,127,69.0
1144,A3,157.5,0.75,127,69.0
1145,D3,157.5,0.75,127,69.0
1146,G4,157.533,1/125,101,69.0
1147,E5,157.533,1/125,101,69.0
1148,D2,158.0,0.5,127,69.0
1149,A2,158.0,0.5,127,69.0
1150,F#2,158.0,0.5,127,69.0
1151,D3,158.25,0.25,127,69.0
1152,A3,158.25,0.25,127,69.0
1153,D4,158.25,0.25,127,69.0
1154,F#4,158.25,0.25,127,69.0
1155,F#2,158.5,0.5,127,69.0
1156,D2,158.5,0.5,127,69.0
1157,F#4,158.5,0.25,127,69.0
1158,D4,158.5,0.25,127,69.0
1159,A3,158.5,0.25,127,69.0
1160,D3,158.5,0.25,127,69.0
1161,A4,158.542,0.25,101,69.0
1162,F#5,158.542,0.25,101,69.0
1163,F#4,158.75,0.25,127,69.0
1164,D4,158.75,0.25,127,69.0
1165,A3,158.75,0.25,127,69.0
1166,D3,158.75,0.25,127,69.0
1167,A4,158.792,26/125,101,69.0
1168,F#5,158.792,26/125,101,69.0
1169,A4,159.0,21/500,75,69.0
1170,C2,159.0,1.5,127,69.0
1171,F#2,159.0,0.5,127,69.0
1172,D2,159.0,0.5,127,69.0
1173,F#5,159.0,0.5,92,69.0
1174,B4,159.0,0.5,92,69.0
1175,G5,159.0,0.5,92,69.0
1176,G4,159.0,0.25,127,69.0
1177,D4,159.0,0.25,127,69.0
1178,A3,159.0,0.25,127,69.0
1179,D3,159.0,0.25,127,69.0
1180,D3,159.25,0.5,127,69.0
1181,A3,159.25,0.5,127,69.0
1182,D4,159.25,0.5,127,69.0
1183,F#4,159.25,0.5,127,69.0
1184,D2,159.5,0.5,127,69.0
1185,F#2,159.5,0.5,127,69.0
1186,A2,159.5,0.5,127,69.0
1187,A4,159.542,0.25,101,69.0
1188,F#5,159.542,0.25,101,69.0
1189,G#4,159.75,0.5,127,69.0
1190,D4,159.75,0.5,127,69.0
1191,A3,159.75,0.5,127,69.0
1192,D3,159.75,0.5,127,69.0
1193,G4,159.792,0.375,101,69.0
1194,E5,159.792,0.375,101,69.0
1195,F#2,160.0,0.5,127,69.0
1196,D2,160.0,0.5,127,69.0
1197,A4,160.167,367/1000,101,69.0
1198,F#5,160.167,367/1000,101,69.0
1199,F#4,160.25,0.25,127,69.0
1200,D4,160.25,0.25,127,69.0
1201,A3,160.25,0.25,127,69.0
1202,D3,160.25,0.25,127,69.0
1203,C2,160.5,1.5,127,69.0
1204,A3,160.5,0.5,127,69.0
1205,C2,160.5,1.5,127,69.0
1206,E4,160.5,1.5,127,69.0
1207,C4,160.5,1.5,127,69.0
1208,G3,160.5,1.5,127,69.0
1209,E3,160.5,1.5,127,69.0
1210,C3,160.5,1.5,127,69.0
1211,A4,160.533,1/125,101,69.0
1212,F#5,160.533,1/125,101,69.0
1213,A4,160.542,0.25,101,69.0
1214,F#5,160.542,0.25,101,69.0
1215,B4,160.792,0.25,101,69.0
1216,G5,160.792,0.25,101,69.0
1217,C3,161.0,0.25,127,69.0
1218,F#2,161.0,0.5,127,69.0
1219,G4,161.042,2.25,101,69.0
1220,E5,161.042,2.25,101,69.0
1221,E3,161.25,0.25,127,69.0
1222,G3,161.5,1.0,127,69.0
1223,F#2,161.5,0.5,127,69.0
1224,A1,162.0,1.5,127,69.0
1225,C#4,162.0,1.5,127,69.0
1226,A3,162.0,1.5,127,69.0
1227,E3,162.0,1.5,127,69.0
1228,A2,162.0,1.5,127,69.0
1229,A3,162.0,0.5,127,69.0
1230,D2,162.0,0.5,127,69.0
1231,A2,162.5,0.25,127,69.0
1232,F#2,162.5,0.5,127,69.0
1233,E3,162.75,0.25,127,69.0
1234,A3,163.0,0.5,127,69.0
1235,F#2,163.0,0.5,127,69.0
1236,A4,163.292,121/500,101,69.0
1237,F#5,163.292,121/500,101,69.0
1238,A3,163.5,0.5,127,69.0
1239,A3,163.5,0.5,127,69.0
1240,C2,163.5,1.5,127,69.0
1241,D2,163.5,0.5,127,69.0
1242,F#4,163.5,0.5,127,69.0
1243,D4,163.5,0.5,127,69.0
1244,A3,163.5,0.5,127,69.0
1245,D3,163.5,0.5,127,69.0
1246,A4,163.533,1/125,101,69.0
1247,F#5,163.533,1/125,101,69.0
1248,A4,163.542,0.5,101,69.0
1249,F#5,163.542,0.5,101,69.0
1250,D3,164.0,0.25,127,69.0
1251,F#2,164.0,0.5,127,69.0
1252,D2,164.0,0.5,127,69.0
1253,D3,164.0,0.25,127,69.0
1254,A3,164.0,0.25,127,69.0
1255,D4,164.0,0.25,127,69.0
1256,F#4,164.0,0.25,127,69.0
1257,A3,164.25,0.25,127,69.0
1258,F#4,164.25,0.25,127,69.0
1259,D4,164.25,0.25,127,69.0
1260,A3,164.25,0.25,127,69.0
1261,D3,164.25,0.25,127,69.0
1262,A4,164.292,0.25,101,69.0
1263,F#5,164.292,0.25,101,69.0
1264,D4,164.5,0.5,127,69.0
1265,F#2,164.5,0.5,127,69.0
1266,D2,164.5,0.5,127,69.0
1267,F#4,164.5,0.5,127,69.0
1268,D4,164.5,0.5,127,69.0
1269,A3,164.5,0.5,127,69.0
1270,D3,164.5,0.5,127,69.0
1271,A4,164.542,123/250,101,69.0
1272,F#5,164.542,123/250,101,69.0
1273,E2,165.0,0.5,127,69.0
1274,E4,165.0,3.0,127,69.0
1275,B4,165.0,3.0,100,69.0
1276,C2,165.0,1.5,127,69.0
1277,A3,165.0,0.5,127,69.0
1278,E1,165.0,3.0,127,69.0
1279,E4,165.0,3.0,127,69.0
1280,B3,165.0,3.0,127,69.0
1281,G3,165.0,3.0,127,69.0
1282,E3,165.0,3.0,127,69.0
1283,B2,165.0,3.0,127,69.0
1284,E2,165.0,3.0,127,69.0
1285,A4,165.033,1/125,101,69.0
1286,F#5,165.033,1/125,101,69.0
1287,A4,165.042,0.25,101,69.0
1288,F#5,165.042,0.25,101,69.0
1289,B4,165.292,1371/500,127,69.0
1290,E5,165.292,1371/500,127,69.0
1291,G3,165.5,0.5,127,69.0
1292,F#2,165.5,0.5,127,69.0
1293,B3,166.0,0.5,127,69.0
1294,F#2,166.0,0.5,127,69.0
1295,E4,166.5,0.5,127,69.0
1296,D2,166.5,0.5,127,69.0
1297,F#2,166.5,0.5,127,69.0
1298,B3,167.0,0.5,127,69.0
1299,F#2,167.0,0.25,127,69.0
1300,D2,167.25,0.25,127,69.0
1301,G3,167.5,0.5,127,69.0
1302,D2,167.5,0.25,127,69.0
1303,D2,167.75,0.25,127,69.0
1304,E2,168.0,0.5,127,69.0
1305,B4,168.0,0.5,100,69.0
1306,E2,168.0,1.5,127,69.0
1307,C2,168.0,0.5,127,69.0
1308,F#2,168.0,0.5,127,69.0
1309,B4,168.033,1/125,127,69.0
1310,E5,168.033,1/125,127,69.0
1311,G3,168.5,0.5,127,69.0
1312,A4,168.5,0.5,100,69.0
1313,F#2,168.5,0.25,127,69.0
1314,C2,168.5,0.5,127,69.0
1315,D2,168.75,0.25,127,69.0
1316,B3,169.0,0.5,127,69.0
1317,G4,169.0,0.5,100,69.0
1318,D2,169.0,0.25,127,69.0
1319,D2,169.25,0.25,127,69.0
1320,E4,169.5,0.5,127,69.0
1321,F#4,169.5,0.5,100,69.0
1322,C2,169.5,1.5,127,69.0
1323,E1,169.5,1.0,127,69.0
1324,C3,169.5,0.5,127,69.0
1325,B2,169.5,0.5,127,69.0
1326,B3,170.0,0.5,127,69.0
1327,G4,170.0,0.5,100,69.0
1328,C3,170.0,0.25,127,69.0
1329,B2,170.0,0.25,127,69.0
1330,D2,170.25,0.25,127,69.0
1331,G3,170.5,0.5,127,69.0
1332,A4,170.5,0.5,100,69.0
1333,D2,170.5,0.25,127,69.0
1334,G1,170.5,0.25,127,69.0
1335,D2,170.75,0.25,127,69.0
1336,F#1,170.75,0.25,127,69.0
1337,E2,171.0,0.5,127,69.0
1338,E4,171.0,3.0,100,69.0
1339,C2,171.0,1.5,127,69.0
1340,A3,171.0,0.5,127,69.0
1341,E1,171.0,1.5,127,69.0
1342,G3,171.5,0.5,127,69.0
1343,F#2,171.5,0.5,127,69.0
1344,B3,172.0,0.5,127,69.0
1345,F#2,172.0,0.5,127,69.0
1346,D4,172.042,0.5,127,69.0
1347,G4,172.5,0.5,127,69.0
1348,E2,172.5,1.5,127,69.0
1349,D2,172.5,0.5,127,69.0
1350,F#2,172.5,0.5,127,69.0
1351,E4,172.542,0.5,127,69.0
1352,G3,173.0,0.25,127,69.0
1353,F#2,173.0,0.5,127,69.0
1354,E4,173.25,0.25,127,69.0
1355,E4,173.292,0.25,127,69.0
1356,B3,173.5,0.25,127,69.0
1357,F#2,173.5,0.5,127,69.0
1358,E4,173.542,0.25,127,69.0
1359,G3,173.75,0.25,127,69.0
1360,E4,173.792,121/500,127,69.0
1361,C2,174.0,1.5,127,69.0
1362,F#2,174.0,0.5,127,69.0
1363,D2,174.0,1.5,127,69.0
1364,F#4,174.0,0.5,127,69.0
1365,D3,174.0,0.5,127,69.0
1366,E4,174.033,1/125,127,69.0
1367,F#4,174.042,0.25,127,69.0
1368,E4,174.292,0.25,127,69.0
1369,D3,174.5,0.25,127,69.0
1370,F#2,174.5,0.5,127,69.0
1371,D4,174.542,0.25,127,69.0
1372,G4,174.75,0.25,127,69.0
1373,E4,174.792,1121/500,127,69.0
1374,D4,175.0,0.25,127,69.0
1375,F#2,175.0,0.5,127,69.0
1376,G3,175.25,0.25,127,69.0
1377,C2,175.5,1.0,127,69.0
1378,E4,175.5,0.5,127,69.0
1379,C3,175.5,0.5,127,69.0
1380,D2,175.5,0.5,127,69.0
1381,F#2,175.5,0.5,127,69.0
1382,D4,176.0,0.25,127,69.0
1383,F#2,176.0,0.5,127,69.0
1384,G3,176.25,0.25,127,69.0
1385,G2,176.5,0.25,127,69.0
1386,G1,176.5,0.25,127,69.0
1387,C2,176.5,0.5,127,69.0
1388,F#2,176.5,0.5,127,69.0
1389,F#2,176.75,0.25,127,69.0
1390,F#1,176.75,0.25,127,69.0
1391,E2,177.0,0.5,127,69.0
1392,F#2,177.0,0.5,127,69.0
1393,C2,177.0,1.5,127,69.0
1394,E1,177.0,1.5,127,69.0
1395,E4,177.033,1/125,127,69.0
1396,G3,177.5,0.5,127,69.0
1397,F#2,177.5,0.5,127,69.0
1398,B3,178.0,0.5,127,69.0
1399,F#2,178.0,0.5,127,69.0
1400,D4,178.042,0.25,127,69.0
1401,E4,178.292,0.25,127,69.0
1402,G4,178.5,0.5,127,69.0
1403,E2,178.5,1.5,127,69.0
1404,D2,178.5,0.5,127,69.0
1405,F#2,178.5,0.5,127,69.0
1406,E4,178.542,0.5,127,69.0
1407,G3,179.0,0.25,127,69.0
1408,F#2,179.0,0.5,127,69.0
1409,E4,179.042,0.5,127,69.0
1410,E4,179.25,0.25,127,69.0
1411,B3,179.5,0.25,127,69.0
1412,F#2,179.5,0.5,127,69.0
1413,E4,179.542,0.25,127,69.0
1414,G3,179.75,0.25,127,69.0
1415,D4,179.792,121/500,127,69.0
1416,C2,180.0,1.5,127,69.0
1417,F#2,180.0,0.5,127,69.0
1418,D2,180.0,1.5,127,69.0
1419,D3,180.0,0.5,127,69.0
1420,F#4,180.0,0.5,127,69.0
1421,D4,180.033,1/125,127,69.0
1422,D4,180.042,0.5,127,69.0
1423,D3,180.5,0.25,127,69.0
1424,F#2,180.5,0.5,127,69.0
1425,E4,180.542,0.25,127,69.0
1426,D4,180.75,0.25,127,69.0
1427,F4,180.792,0.25,127,69.0
1428,A3,181.0,0.25,127,69.0
1429,F#2,181.0,0.5,127,69.0
1430,G4,181.042,249/125,127,69.0
1431,G3,181.25,0.25,127,69.0
1432,G2,181.5,1.0,127,69.0
1433,D4,181.5,0.5,127,69.0
1434,C3,181.5,0.5,127,69.0
1435,D2,181.5,0.5,127,69.0
1436,F#2,181.5,0.5,127,69.0
1437,G3,182.0,0.25,127,69.0
1438,F#2,182.0,0.5,127,69.0
1439,D4,182.25,0.25,127,69.0
1440,G2,182.5,0.25,127,69.0
1441,G1,182.5,0.25,127,69.0
1442,C2,182.5,0.5,127,69.0
1443,F#2,182.5,0.5,127,69.0
1444,F#2,182.75,0.25,127,69.0
1445,F#1,182.75,0.25,127,69.0
1446,E2,183.0,0.5,127,69.0
1447,C2,183.0,1.5,127,69.0
1448,F#2,183.0,0.5,127,69.0
1449,E1,183.0,1.5,127,69.0
1450,G4,183.033,126/125,127,69.0
1451,G3,183.5,0.5,127,69.0
1452,F#2,183.5,0.5,127,69.0
1453,B3,184.0,0.5,127,69.0
1454,F#2,184.0,0.5,127,69.0
1455,F#4,184.292,0.25,127,69.0
1456,G4,184.5,0.5,127,69.0
1457,E2,184.5,1.5,127,69.0
1458,D2,184.5,0.5,127,69.0
1459,F#2,184.5,0.5,127,69.0
1460,G4,184.542,0.25,127,69.0
1461,G4,184.792,0.5,127,69.0
1462,G3,185.0,0.25,127,69.0
1463,F#2,185.0,0.5,127,69.0
1464,E4,185.25,0.25,127,69.0
1465,G4,185.292,0.5,127,69.0
1466,B3,185.5,0.25,127,69.0
1467,F#2,185.5,0.5,127,69.0
1468,G3,185.75,0.25,127,69.0
1469,D4,185.792,121/500,127,69.0
1470,C2,186.0,1.5,127,69.0
1471,F#2,186.0,0.5,127,69.0
1472,D2,186.0,1.5,127,69.0
1473,D3,186.0,0.5,127,69.0
1474,F#4,186.0,0.5,127,69.0
1475,D4,186.033,1/125,127,69.0
1476,D4,186.042,0.5,127,69.0
1477,D3,186.5,0.25,127,69.0
1478,F#2,186.5,0.5,127,69.0
1479,D4,186.542,0.25,127,69.0
1480,G4,186.75,0.25,127,69.0
1481,D4,186.792,1121/500,127,69.0
1482,D4,187.0,0.25,127,69.0
1483,F#2,187.0,0.5,127,69.0
1484,G3,187.25,0.25,127,69.0
1485,C2,187.5,1.0,127,69.0
1486,G4,187.5,0.5,127,69.0
1487,C3,187.5,0.5,127,69.0
1488,D2,187.5,0.5,127,69.0
1489,F#2,187.5,0.5,127,69.0
1490,D4,188.0,0.5,127,69.0
1491,F#2,188.0,0.5,127,69.0
1492,G3,188.5,0.5,127,69.0
1493,G1,188.5,0.25,127,69.0
1494,C2,188.5,0.5,127,69.0
1495,F#2,188.5,0.5,127,69.0
1496,F#1,188.75,0.25,127,69.0
1497,G2,189.0,0.5,127,69.0
1498,C2,189.0,1.5,127,69.0
1499,F#2,189.0,0.5,127,69.0
1500,G1,189.0,1.5,127,69.0
1501,D4,189.033,1/125,127,69.0
1502,G3,189.5,0.5,127,69.0
1503,F#2,189.5,0.5,127,69.0
1504,F#2,190.0,0.5,127,69.0
1505,G4,190.0,0.5,127,69.0
1506,D4,190.0,0.5,127,69.0
1507,B4,190.042,0.5,101,69.0
1508,G4,190.042,0.5,101,69.0
1509,B1,190.5,1.5,127,69.0
1510,B2,190.5,0.5,127,69.0
1511,B3,190.5,0.5,127,69.0
1512,A3,190.5,0.5,127,69.0
1513,F#4,190.5,0.5,127,69.0
1514,D2,190.5,0.5,127,69.0
1515,F#2,190.5,0.5,127,69.0
1516,A4,190.542,0.5,101,69.0
1517,F#4,190.542,0.5,101,69.0
1518,B2,191.0,0.25,127,69.0
1519,F#2,191.0,0.5,127,69.0
1520,A4,191.042,0.25,101,69.0
1521,F#4,191.042,0.25,101,69.0
1522,F#4,191.25,0.25,127,69.0
1523,A4,191.292,0.25,101,69.0
1524,F#4,191.292,0.25,101,69.0
1525,B3,191.5,0.5,127,69.0
1526,F#2,191.5,0.5,127,69.0
1527,B4,191.542,123/250,101,69.0
1528,G4,191.542,123/250,101,69.0
1529,C2,192.0,1.5,127,69.0
1530,A3,192.0,0.5,127,69.0
1531,E1,192.0,1.5,127,69.0
1532,E2,192.0,0.5,127,69.0
1533,E4,192.0,0.5,127,69.0
1534,B4,192.033,1/125,101,69.0
1535,G4,192.033,1/125,101,69.0
1536,A4,192.042,0.25,101,69.0
1537,F#4,192.042,0.25,101,69.0
1538,G4,192.292,1371/500,101,69.0
1539,E4,192.292,1371/500,101,69.0
1540,G3,192.5,0.5,127,69.0
1541,F#2,192.5,0.5,127,69.0
1542,B3,193.0,0.5,127,69.0
1543,F#2,193.0,0.5,127,69.0
1544,E4,193.5,0.5,127,69.0
1545,E2,193.5,1.5,127,69.0
1546,D2,193.5,0.5,127,69.0
1547,F#2,193.5,0.5,127,69.0
1548,B3,194.0,0.5,127,69.0
1549,F#2,194.0,0.5,127,69.0
1550,G3,194.5,0.5,127,69.0
1551,F#2,194.5,0.5,127,69.0
1552,C2,195.0,1.5,127,69.0
1553,A3,195.0,0.5,127,69.0
1554,C2,195.0,1.5,127,69.0
1555,E4,195.0,3.0,127,69.0
1556,C4,195.0,3.0,127,69.0
1557,G3,195.0,3.0,127,69.0
1558,E3,195.0,3.0,127,69.0
1559,C3,195.0,3.0,127,69.0
1560,G4,195.042,1/125,101,69.0
1561,E4,195.042,1/125,101,69.0
1562,F#2,195.5,0.5,127,69.0
1563,F#2,196.0,0.5,127,69.0
1564,A1,196.5,1.5,127,69.0
1565,C#4,196.5,1.5,127,69.0
1566,A3,196.5,1.5,127,69.0
1567,E3,196.5,1.5,127,69.0
1568,A2,196.5,1.5,127,69.0
1569,D2,196.5,0.5,127,69.0
1570,A3,196.5,0.5,127,69.0
1571,F#2,197.0,0.5,127,69.0
1572,F#2,197.5,0.5,127,69.0
1573,C2,198.0,1.5,127,69.0
1574,A3,198.0,0.5,127,69.0
1575,D2,198.0,0.5,127,69.0
1576,F#4,198.0,0.75,127,69.0
1577,D4,198.0,0.75,127,69.0
1578,A3,198.0,0.75,127,69.0
1579,D3,198.0,0.75,127,69.0
1580,D2,198.5,0.5,127,69.0
1581,B2,198.5,0.5,127,69.0
1582,F#2,198.5,0.5,127,69.0
1583,D3,198.75,0.25,127,69.0
1584,A3,198.75,0.25,127,69.0
1585,D4,198.75,0.25,127,69.0
1586,F#4,198.75,0.25,127,69.0
1587,F#2,199.0,0.5,127,69.0
1588,D2,199.0,0.5,127,69.0
1589,F#4,199.0,0.25,127,69.0
1590,D4,199.0,0.25,127,69.0
1591,A3,199.0,0.25,127,69.0
1592,D3,199.0,0.25,127,69.0
1593,A4,199.05,0.25,101,69.0
1594,F#5,199.05,0.25,101,69.0
1595,F#4,199.25,0.25,127,69.0
1596,D4,199.25,0.25,127,69.0
1597,A3,199.25,0.25,127,69.0
1598,D3,199.25,0.25,127,69.0
1599,A4,199.3,26/125,101,69.0
1600,F#5,199.3,26/125,101,69.0
1601,B1,199.5,1.5,127,69.0
1602,F#2,199.5,0.5,127,69.0
1603,D2,199.5,0.5,127,69.0
1604,G4,199.5,0.25,127,69.0
1605,D4,199.5,0.25,127,69.0
1606,A3,199.5,0.25,127,69.0
1607,D3,199.5,0.25,127,69.0
1608,A4,199.508,0.5,82,69.0
1609,F#5,199.508,0.5,82,69.0
1610,G5,199.508,0.5,82,69.0
1611,B4,199.508,0.5,82,69.0
1612,D3,199.75,0.5,127,69.0
1613,A3,199.75,0.5,127,69.0
1614,D4,199.75,0.5,127,69.0
1615,F#4,199.75,0.5,127,69.0
1616,D2,200.0,0.5,127,69.0
1617,B2,200.0,0.5,127,69.0
1618,F#2,200.0,0.5,127,69.0
1619,F#5,200.05,0.25,101,69.0
1620,A4,200.05,0.25,101,69.0
1621,G#4,200.25,0.5,127,69.0
1622,D4,200.25,0.5,127,69.0
1623,A3,200.25,0.5,127,69.0
1624,D3,200.25,0.5,127,69.0
1625,G4,200.3,0.375,101,69.0
1626,E5,200.3,0.375,101,69.0
1627,F#2,200.5,0.5,127,69.0
1628,D2,200.5,0.5,127,69.0
1629,F#5,200.675,367/1000,101,69.0
1630,A4,200.675,367/1000,101,69.0
1631,F#4,200.75,0.25,127,69.0
1632,D4,200.75,0.25,127,69.0
1633,A3,200.75,0.25,127,69.0
1634,D3,200.75,0.25,127,69.0
1635,C2,201.0,1.5,127,69.0
1636,A3,201.0,0.5,127,69.0
1637,C2,201.0,1.5,127,69.0
1638,E4,201.0,1.5,127,69.0
1639,C4,201.0,1.5,127,69.0
1640,G3,201.0,1.5,127,69.0
1641,E3,201.0,1.5,127,69.0
1642,C3,201.0,1.5,127,69.0
1643,F#5,201.042,1/125,101,69.0
1644,A4,201.042,1/125,101,69.0
1645,A4,201.05,0.25,127,69.0
1646,F#5,201.05,0.25,127,69.0
1647,G4,201.3,1371/500,127,69.0
1648,E5,201.3,1371/500,127,69.0
1649,F#2,201.5,0.5,127,69.0
1650,F#2,202.0,0.5,127,69.0
1651,A1,202.5,1.5,127,69.0
1652,C#4,202.5,1.5,127,69.0
1653,A3,202.5,1.5,127,69.0
1654,E3,202.5,1.5,127,69.0
1655,A2,202.5,1.5,127,69.0
1656,D2,202.5,0.5,127,69.0
1657,A3,202.5,0.5,127,69.0
1658,F#2,203.0,0.5,127,69.0
1659,F#2,203.5,0.5,127,69.0
1660,C2,204.0,1.5,127,69.0
1661,A3,204.0,0.5,127,69.0
1662,D2,204.0,0.5,127,69.0
1663,F#4,204.0,0.75,127,69.0
1664,D4,204.0,0.75,127,69.0
1665,A3,204.0,0.75,127,69.0
1666,D3,204.0,0.75,127,69.0
1667,G4,204.05,1/125,127,69.0
1668,E5,204.05,1/125,127,69.0
1669,D2,204.5,0.5,127,69.0
1670,B2,204.5,0.5,127,69.0
1671,F#2,204.5,0.5,127,69.0
1672,D3,204.75,0.25,127,69.0
1673,A3,204.75,0.25,127,69.0
1674,D4,204.75,0.25,127,69.0
1675,F#4,204.75,0.25,127,69.0
1676,F#2,205.0,0.5,127,69.0
1677,D2,205.0,0.5,127,69.0
1678,F#4,205.0,0.25,127,69.0
1679,D4,205.0,0.25,127,69.0
1680,A3,205.0,0.25,127,69.0
1681,D3,205.0,0.25,127,69.0
1682,A4,205.058,0.25,101,69.0
1683,F#5,205.058,0.25,101,69.0
1684,F#4,205.25,0.25,127,69.0
1685,D4,205.25,0.25,127,69.0
1686,A3,205.25,0.25,127,69.0
1687,D3,205.25,0.25,127,69.0
1688,A4,205.308,26/125,101,69.0
1689,F#5,205.308,26/125,101,69.0
1690,C2,205.5,1.5,127,69.0
1691,F#2,205.5,0.5,127,69.0
1692,D2,205.5,0.5,127,69.0
1693,G4,205.5,0.25,127,69.0
1694,D4,205.5,0.25,127,69.0
1695,A3,205.5,0.25,127,69.0
1696,D3,205.5,0.25,127,69.0
1697,A4,205.517,0.5,82,69.0
1698,F#5,205.517,0.5,82,69.0
1699,G5,205.517,0.5,82,69.0
1700,B4,205.517,0.5,82,69.0
1701,D3,205.75,0.5,127,69.0
1702,A3,205.75,0.5,127,69.0
1703,D4,205.75,0.5,127,69.0
1704,F#4,205.75,0.5,127,69.0
1705,D2,206.0,0.5,127,69.0
1706,B2,206.0,0.5,127,69.0
1707,F#2,206.0,0.5,127,69.0
1708,F#5,206.058,0.25,101,69.0
1709,A4,206.058,0.25,101,69.0
1710,G#4,206.25,0.5,127,69.0
1711,D4,206.25,0.5,127,69.0
1712,A3,206.25,0.5,127,69.0
1713,D3,206.25,0.5,127,69.0
1714,G4,206.308,0.375,101,69.0
1715,E5,206.308,0.375,101,69.0
1716,F#2,206.5,0.5,127,69.0
1717,D2,206.5,0.5,127,69.0
1718,F#5,206.683,367/1000,101,69.0
1719,A4,206.683,367/1000,101,69.0
1720,F#4,206.75,0.25,127,69.0
1721,D4,206.75,0.25,127,69.0
1722,A3,206.75,0.25,127,69.0
1723,D3,206.75,0.25,127,69.0
1724,C2,207.0,1.5,127,69.0
1725,A3,207.0,0.5,127,69.0
1726,C2,207.0,1.5,127,69.0
1727,E4,207.0,1.5,127,69.0
1728,C4,207.0,1.5,127,69.0
1729,G3,207.0,1.5,127,69.0
1730,E3,207.0,1.5,127,69.0
1731,C3,207.0,1.5,127,69.0
1732,F#5,207.05,1/125,101,69.0
1733,A4,207.05,1/125,101,69.0
1734,A4,207.058,0.25,101,69.0
1735,F#5,207.058,0.25,101,69.0
1736,B4,207.308,0.25,101,69.0
1737,G5,207.308,0.25,101,69.0
1738,C3,207.5,0.25,127,69.0
1739,F#2,207.5,0.5,127,69.0
1740,G4,207.558,623/250,101,69.0
1741,E5,207.558,623/250,101,69.0
1742,E3,207.75,0.25,127,69.0
1743,G3,208.0,1.0,127,69.0
1744,F#2,208.0,0.5,127,69.0
1745,A1,208.5,1.5,127,69.0
1746,C#4,208.5,1.5,127,69.0
1747,A3,208.5,1.5,127,69.0
1748,E3,208.5,1.5,127,69.0
1749,A2,208.5,1.5,127,69.0
1750,D2,208.5,0.5,127,69.0
1751,A3,208.5,0.5,127,69.0
1752,A2,209.0,0.25,127,69.0
1753,F#2,209.0,0.5,127,69.0
1754,E3,209.25,0.25,127,69.0
1755,A3,209.5,0.5,127,69.0
1756,F#2,209.5,0.5,127,69.0
1757,A3,210.0,0.5,127,69.0
1758,C2,210.0,1.5,127,69.0
1759,A3,210.0,0.5,127,69.0
1760,D2,210.0,0.5,127,69.0
1761,F#4,210.0,0.5,127,69.0
1762,D4,210.0,0.5,127,69.0
1763,A3,210.0,0.5,127,69.0
1764,D3,210.0,0.5,127,69.0
1765,G4,210.058,1/125,101,69.0
1766,E5,210.058,1/125,101,69.0
1767,A4,210.067,0.75,75,69.0
1768,F#5,210.067,0.5,127,69.0
1769,D3,210.5,0.25,127,69.0
1770,F#2,210.5,0.5,127,69.0
1771,D2,210.5,0.5,127,69.0
1772,D3,210.5,0.25,127,69.0
1773,A3,210.5,0.25,127,69.0
1774,D4,210.5,0.25,127,69.0
1775,F#4,210.5,0.25,127,69.0
1776,A3,210.75,0.25,127,69.0
1777,F#4,210.75,0.25,127,69.0
1778,D4,210.75,0.25,127,69.0
1779,A3,210.75,0.25,127,69.0
1780,D3,210.75,0.25,127,69.0
1781,A4,210.817,0.25,101,69.0
1782,F#5,210.817,0.25,101,69.0
1783,D4,211.0,0.5,127,69.0
1784,F#2,211.0,0.5,127,69.0
1785,D2,211.0,0.5,127,69.0
1786,F#4,211.0,0.5,127,69.0
1787,D4,211.0,0.5,127,69.0
1788,A3,211.0,0.5,127,69.0
1789,D3,211.0,0.5,127,69.0
1790,A4,211.067,123/250,101,69.0
1791,F#5,211.067,123/250,101,69.0
1792,E2,211.5,0.5,127,69.0
1793,E4,211.5,3.0,127,69.0
1794,E4,211.5,2.0,127,69.0
1795,C2,211.5,1.5,127,69.0
1796,A3,211.5,0.5,127,69.0
1797,E1,211.5,3.0,127,69.0
1798,E4,211.5,3.0,127,69.0
1799,B3,211.5,3.0,127,69.0
1800,G3,211.5,3.0,127,69.0
1801,E3,211.5,3.0,127,69.0
1802,B2,211.5,3.0,127,69.0
1803,E2,211.5,3.0,127,69.0
1804,A4,211.558,1/125,101,69.0
1805,F#5,211.558,1/125,101,69.0
1806,A4,211.567,0.25,101,69.0
1807,F#5,211.567,0.25,101,69.0
1808,B4,211.817,1371/500,101,69.0
1809,E5,211.817,1371/500,101,69.0
1810,G3,212.0,0.5,127,69.0
1811,F#2,212.0,0.5,127,69.0
1812,B3,212.5,0.5,127,69.0
1813,F#2,212.5,0.5,127,69.0
1814,E4,213.0,0.5,127,69.0
1815,D2,213.0,0.5,127,69.0
1816,F#2,213.0,0.5,127,69.0
1817,B3,213.5,0.5,127,69.0
1818,G4,213.5,1.0,127,69.0
1819,F#2,213.5,0.25,127,69.0
1820,D2,213.75,0.25,127,69.0
1821,G3,214.0,0.5,127,69.0
1822,C3,214.0,0.5,127,69.0
1823,E2,214.5,0.5,127,69.0
1824,A4,214.5,1.0,127,69.0
1825,E2,214.5,1.5,127,69.0
1826,B2,214.5,0.5,127,69.0
1827,D2,214.5,0.5,127,69.0
1828,B4,214.558,1/125,101,69.0
1829,E5,214.558,1/125,101,69.0
1830,G3,215.0,0.5,127,69.0
1831,B2,215.0,0.25,127,69.0
1832,D2,215.25,0.25,127,69.0
1833,B3,215.5,0.5,127,69.0
1834,B4,215.5,1.0,127,69.0
1835,B2,215.5,0.5,127,69.0
1836,E4,216.0,0.5,127,69.0
1837,E1,216.0,1.0,127,69.0
1838,C3,216.0,0.5,127,69.0
1839,D2,216.0,0.5,127,69.0
1840,B3,216.5,0.5,127,69.0
1841,D5,216.5,1.0,127,69.0
1842,C3,216.5,0.25,127,69.0
1843,D2,216.75,0.25,127,69.0
1844,G3,217.0,0.5,127,69.0
1845,C3,217.0,0.5,127,69.0
1846,G1,217.0,0.25,127,69.0
1847,F#1,217.25,0.25,127,69.0
1848,E5,217.5,0.5,127,69.0
1849,G5,217.5,0.5,127,69.0
1850,E5,217.5,1.5,127,69.0
1851,C2,217.5,1.5,127,69.0
1852,A3,217.5,0.5,127,69.0
1853,E1,217.5,0.5,127,69.0
1854,B4,218.0,1.0,127,69.0
1855,E5,218.0,1.0,127,69.0
1856,F#2,218.0,0.5,127,69.0
1857,E2,218.0,0.5,127,69.0
1858,F#2,218.5,0.5,127,69.0
1859,E2,218.5,0.25,127,69.0
1860,E2,218.75,0.25,127,69.0
1861,F#5,219.0,0.5,127,69.0
1862,A5,219.0,0.5,127,69.0
1863,F#5,219.0,1.5,127,69.0
1864,E1,219.0,0.5,127,69.0
1865,E5,219.0,0.5,127,69.0
1866,F#2,219.0,0.5,127,69.0
1867,B4,219.5,1.0,127,69.0
1868,E5,219.5,1.0,127,69.0
1869,F#2,219.5,0.5,127,69.0
1870,E2,219.5,0.5,127,69.0
1871,F#2,220.0,0.5,127,69.0
1872,E2,220.0,0.25,127,69.0
1873,E2,220.25,0.25,127,69.0
1874,G5,220.5,0.5,127,69.0
1875,B5,220.5,0.5,127,69.0
1876,G5,220.5,1.5,127,69.0
1877,C2,220.5,1.5,127,69.0
1878,F#2,220.5,0.5,127,69.0
1879,E1,220.5,0.5,127,69.0
1880,B4,221.0,1.0,127,69.0
1881,E5,221.0,1.0,127,69.0
1882,F#2,221.0,0.5,127,69.0
1883,E2,221.0,0.5,127,69.0
1884,F#2,221.5,0.5,127,69.0
1885,E2,221.5,0.25,127,69.0
1886,E2,221.75,0.25,127,69.0
1887,A5,222.0,0.5,127,69.0
1888,C6,222.0,0.5,127,69.0
1889,A5,222.0,1.5,127,69.0
1890,E1,222.0,0.5,127,69.0
1891,E5,222.0,0.5,127,69.0
1892,F#2,222.0,0.5,127,69.0
1893,B4,222.5,1.0,127,69.0
1894,E5,222.5,1.0,127,69.0
1895,F#2,222.5,0.5,127,69.0
1896,E2,222.5,0.5,127,69.0
1897,F#2,223.0,0.5,127,69.0
1898,B1,223.0,0.5,127,69.0
1899,C5,223.5,0.5,127,69.0
1900,E5,223.5,0.5,127,69.0
1901,C2,223.5,1.5,127,69.0
1902,A3,223.5,0.5,127,69.0
1903,A1,223.5,2.75,127,69.0
1904,E4,224.0,0.5,127,69.0
1905,C5,224.0,2.5,127,69.0
1906,F#2,224.0,0.5,127,69.0
1907,C4,224.5,0.5,127,69.0
1908,F#2,224.5,0.5,127,69.0
1909,C5,225.0,0.5,127,69.0
1910,E5,225.0,0.5,127,69.0
1911,F#2,225.0,0.5,127,69.0
1912,E4,225.5,0.5,127,69.0
1913,F#2,225.5,0.5,127,69.0
1914,C4,226.0,0.5,127,69.0
1915,F#2,226.0,0.5,127,69.0
1916,A1,226.25,0.25,127,69.0
1917,C2,226.5,1.5,127,69.0
1918,F#2,226.5,0.5,127,69.0
1919,A1,226.5,2.5,127,69.0
1920,C4,227.0,0.5,127,69.0
1921,F#2,227.0,0.5,127,69.0
1922,E4,227.5,0.5,127,69.0
1923,F#2,227.5,0.5,127,69.0
1924,C5,228.0,0.5,127,69.0
1925,E5,228.0,0.5,127,69.0
1926,F#2,228.0,0.5,127,69.0
1927,E4,228.5,0.5,127,69.0
1928,F#2,228.5,0.5,127,69.0
1929,C4,229.0,0.5,127,69.0
1930,F#2,229.0,0.5,127,69.0
1931,A1,229.0,0.5,127,69.0
1932,E4,229.5,0.5,127,69.0
1933,E5,229.5,0.5,127,69.0
1934,C2,229.5,1.5,127,69.0
1935,A3,229.5,0.5,127,69.0
1936,C2,229.5,1.5,127,69.0
1937,C4,230.0,0.5,127,69.0
1938,C5,230.0,0.5,127,69.0
1939,F#2,230.0,0.5,127,69.0
1940,G3,230.5,1.0,127,69.0
1941,G4,230.5,2.0,127,69.0
1942,F#2,230.5,0.5,127,69.0
1943,C2,231.0,0.5,127,69.0
1944,E5,231.0,0.5,127,69.0
1945,F#2,231.0,0.5,127,69.0
1946,E4,231.5,0.5,127,69.0
1947,F#2,231.5,0.5,127,69.0
1948,C2,231.5,0.5,127,69.0
1949,C4,232.0,0.5,127,69.0
1950,F#2,232.0,0.5,127,69.0
1951,B1,232.0,0.25,127,69.0
1952,C2,232.25,0.25,127,69.0
1953,E5,232.458,21/500,101,69.0
1954,F#5,232.458,21/500,101,69.0
1955,E4,232.5,0.5,127,69.0
1956,C2,232.5,1.5,127,69.0
1957,F#2,232.5,0.5,127,69.0
1958,D2,232.5,1.5,127,69.0
1959,E5,232.5,229/500,101,69.0
1960,F#5,232.5,229/500,101,69.0
1961,D4,233.0,0.5,127,69.0
1962,D5,233.0,0.5,127,69.0
1963,F#2,233.0,0.5,127,69.0
1964,A3,233.5,1.0,127,69.0
1965,A4,233.5,2.0,127,69.0
1966,F#2,233.5,0.5,127,69.0
1967,D2,234.0,0.5,127,69.0
1968,E5,234.0,0.5,127,69.0
1969,F#2,234.0,0.5,127,69.0
1970,E4,234.5,0.5,127,69.0
1971,F#2,234.5,0.5,127,69.0
1972,D2,234.5,0.5,127,69.0
1973,D4,235.0,0.5,127,69.0
1974,F#2,235.0,0.5,127,69.0
1975,D2,235.0,0.25,127,69.0
1976,E2,235.25,0.25,127,69.0
1977,E4,235.5,0.25,127,69.0
1978,B4,235.5,0.25,127,69.0
1979,C2,235.5,1.5,127,69.0
1980,A3,235.5,0.5,127,69.0
1981,E1,235.5,1.5,127,69.0
1982,B4,235.75,0.25,127,69.0
1983,E5,235.75,1.25,127,69.0
1984,B3,236.0,0.5,127,69.0
1985,F#2,236.0,0.5,127,69.0
1986,G3,236.5,0.5,127,69.0
1987,F#2,236.5,0.5,127,69.0
1988,B4,237.0,0.25,127,69.0
1989,E5,237.0,0.25,127,69.0
1990,E2,237.0,0.25,127,69.0
1991,D2,237.0,0.5,127,69.0
1992,F#2,237.0,0.5,127,69.0
1993,E4,237.25,0.25,127,69.0
1994,B4,237.25,1.25,127,69.0
1995,C2,237.25,0.5,127,69.0
1996,E1,237.25,0.5,127,69.0
1997,B3,237.5,0.5,127,69.0
1998,F#2,237.5,0.5,127,69.0
1999,C2,237.75,0.5,127,69.0
2000,E1,237.75,0.25,127,69.0
2001,G3,238.0,0.5,127,69.0
2002,F#2,238.0,0.5,127,69.0
2003,E2,238.0,0.5,127,69.0
2004,C2,238.25,0.25,127,69.0
2005,E2,238.5,0.5,127,69.0
2006,E1,238.5,2.25,127,69.0
2007,D2,238.5,0.5,127,69.0
2008,F#2,238.5,0.5,127,69.0
2009,G3,239.0,0.5,127,69.0
2010,F#2,239.0,0.5,127,69.0
2011,B3,239.5,0.5,127,69.0
2012,D2,239.5,0.5,127,69.0
2013,F#2,239.5,0.5,127,69.0
2014,E4,240.0,1.5,127,69.0
2015,D2,240.0,0.5,127,69.0
2016,F#2,240.0,0.5,127,69.0
2017,C2,240.25,0.5,127,69.0
2018,F#2,240.5,0.5,127,69.0
2019,C2,240.75,0.25,127,69.0
2020,E1,240.75,0.25,127,69.0
2021,G1,241.0,0.25,127,69.0
2022,D2,241.0,0.5,127,69.0
2023,F#2,241.0,0.5,127,69.0
2024,F#1,241.25,0.25,127,69.0
2025,E5,241.5,0.5,127,69.0
2026,G5,241.5,0.5,127,69.0
2027,C2,241.5,1.5,127,69.0
2028,A3,241.5,0.5,127,69.0
2029,E1,241.5,0.5,127,69.0
2030,B4,242.0,1.0,127,69.0
2031,E5,242.0,1.0,127,69.0
2032,F#2,242.0,0.5,127,69.0
2033,E2,242.0,0.5,127,69.0
2034,F#2,242.5,0.5,127,69.0
2035,E2,242.5,0.25,127,69.0
2036,E2,242.75,0.25,127,69.0
2037,F#5,243.0,0.5,127,69.0
2038,A5,243.0,0.5,127,69.0
2039,E1,243.0,0.5,127,69.0
2040,D2,243.0,0.5,127,69.0
2041,F#2,243.0,0.5,127,69.0
2042,B4,243.5,1.0,127,69.0
2043,E5,243.5,1.0,127,69.0
2044,F#2,243.5,0.5,127,69.0
2045,E2,243.5,0.5,127,69.0
2046,F#2,244.0,0.5,127,69.0
2047,E2,244.0,0.25,127,69.0
2048,E2,244.25,0.25,127,69.0
2049,G5,244.5,0.5,127,69.0
2050,B5,244.5,0.5,127,69.0
2051,C2,244.5,1.5,127,69.0
2052,F#2,244.5,0.5,127,69.0
2053,E1,244.5,0.5,127,69.0
2054,B4,245.0,1.0,127,69.0
2055,E5,245.0,1.0,127,69.0
2056,F#2,245.0,0.5,127,69.0
2057,E2,245.0,0.5,127,69.0
2058,F#2,245.5,0.5,127,69.0
2059,E2,245.5,0.25,127,69.0
2060,E2,245.75,0.25,127,69.0
2061,A5,246.0,0.5,127,69.0
2062,C6,246.0,0.5,127,69.0
2063,E1,246.0,0.5,127,69.0
2064,D2,246.0,0.5,127,69.0
2065,B2,246.0,0.5,127,69.0
2066,B4,246.5,1.0,127,69.0
2067,E5,246.5,1.0,127,69.0
2068,C3,246.5,0.5,127,69.0
2069,E2,246.5,0.5,127,69.0
2070,D3,247.0,0.5,127,69.0
2071,B1,247.0,0.5,127,69.0
2072,C5,247.5,0.5,127,69.0
2073,E5,247.5,0.5,127,69.0
2074,C2,247.5,1.5,127,69.0
2075,A3,247.5,0.5,127,69.0
2076,A1,247.5,1.5,127,69.0
2077,E4,248.0,0.5,127,69.0
2078,C5,248.0,2.5,127,69.0
2079,F#2,248.0,0.5,127,69.0
2080,C4,248.5,0.5,127,69.0
2081,F#2,248.5,0.5,127,69.0
2082,C5,249.0,0.5,127,69.0
2083,A2,249.0,1.0,127,69.0
2084,D2,249.0,0.5,127,69.0
2085,F#2,249.0,0.5,127,69.0
2086,E4,249.5,0.5,127,69.0
2087,F#2,249.5,0.5,127,69.0
2088,C4,250.0,0.5,127,69.0
2089,F#2,250.0,0.5,127,69.0
2090,E2,250.0,0.5,127,69.0
2091,C2,250.5,1.5,127,69.0
2092,F#2,250.5,0.5,127,69.0
2093,A1,250.5,2.5,127,69.0
2094,C4,251.0,0.5,127,69.0
2095,F#2,251.0,0.5,127,69.0
2096,E4,251.5,0.5,127,69.0
2097,F#2,251.5,0.5,127,69.0
2098,C5,252.0,0.5,127,69.0
2099,D2,252.0,0.375,127,69.0
2100,B-2,252.0,0.375,127,69.0
2101,B-2,252.375,0.125,127,69.0
2102,E4,252.5,0.5,127,69.0
2103,B-2,252.5,0.375,127,69.0
2104,B-2,252.875,0.125,127,69.0
2105,C4,253.0,0.5,127,69.0
2106,B-2,253.0,0.5,127,69.0
2107,A1,253.0,0.25,127,69.0
2108,B1,253.25,0.25,127,69.0
2109,E4,253.5,0.5,127,69.0
2110,E5,253.5,0.5,127,69.0
2111,C2,253.5,1.5,127,69.0
2112,A3,253.5,0.5,127,69.0
2113,C2,253.5,1.5,127,69.0
2114,C4,254.0,0.5,127,69.0
2115,C5,254.0,0.5,127,69.0
2116,F#2,254.0,0.5,127,69.0
2117,G3,254.5,1.0,127,69.0
2118,G4,254.5,2.0,127,69.0
2119,F#2,254.5,0.5,127,69.0
2120,C2,255.0,0.5,127,69.0
2121,D2,255.0,0.5,127,69.0
2122,F#2,255.0,0.5,127,69.0
2123,E4,255.5,0.5,127,69.0
2124,F#2,255.5,0.5,127,69.0
2125,C2,255.5,0.5,127,69.0
2126,C4,256.0,0.5,127,69.0
2127,F#2,256.0,0.5,127,69.0
2128,B1,256.0,0.25,127,69.0
2129,C2,256.25,0.25,127,69.0
2130,E4,256.5,0.5,127,69.0
2131,C2,256.5,1.5,127,69.0
2132,A3,256.5,0.5,127,69.0
2133,D2,256.5,1.5,127,69.0
2134,D4,257.0,0.5,127,69.0
2135,G4,257.0,0.5,127,69.0
2136,F#2,257.0,0.5,127,69.0
2137,A3,257.5,1.0,127,69.0
2138,G4,257.5,0.25,127,69.0
2139,F#2,257.5,0.5,127,69.0
2140,A4,257.75,0.75,127,69.0
2141,A2,258.0,0.5,127,69.0
2142,D2,258.0,0.5,127,69.0
2143,F#2,258.0,0.5,127,69.0
2144,E4,258.5,0.5,127,69.0
2145,G4,258.5,0.25,127,69.0
2146,F#2,258.5,0.5,127,69.0
2147,D2,258.5,0.5,127,69.0
2148,A4,258.75,0.25,127,69.0
2149,D4,259.0,0.5,127,69.0
2150,A4,259.0,0.5,127,69.0
2151,F#2,259.0,0.5,127,69.0
2152,G2,259.0,0.5,127,69.0
2153,E4,259.5,0.25,127,69.0
2154,G4,259.5,0.25,127,69.0
2155,C2,259.5,1.5,127,69.0
2156,A3,259.5,0.5,127,69.0
2157,E2,259.5,1.5,127,69.0
2158,B4,259.75,0.25,127,69.0
2159,B4,259.75,1.25,127,69.0
2160,B3,260.0,0.5,127,69.0
2161,F#2,260.0,0.5,127,69.0
2162,G3,260.5,0.5,127,69.0
2163,F#2,260.5,0.5,127,69.0
2164,B4,261.0,0.25,127,69.0
2165,B4,261.0,0.25,127,69.0
2166,E1,261.0,1.0,127,69.0
2167,D2,261.0,0.5,127,69.0
2168,F#2,261.0,0.5,127,69.0
2169,E4,261.25,0.25,127,69.0
2170,E4,261.25,1.25,127,69.0
2171,B3,261.5,0.5,127,69.0
2172,F#2,261.5,0.5,127,69.0
2173,G3,262.0,0.5,127,69.0
2174,E2,262.0,0.5,127,69.0
2175,D2,262.0,0.5,127,69.0
2176,F#2,262.0,0.5,127,69.0
2177,E2,262.5,0.5,127,69.0
2178,E2,262.5,1.5,127,69.0
2179,D2,262.5,0.5,127,69.0
2180,F#2,262.5,0.5,127,69.0
2181,G3,263.0,0.5,127,69.0
2182,D5,263.0,0.5,127,69.0
2183,A4,263.0,0.25,127,69.0
2184,F#2,263.0,0.25,127,69.0
2185,D2,263.25,0.25,127,69.0
2186,B3,263.5,0.5,127,69.0
2187,D2,263.5,0.25,127,69.0
2188,A4,263.5,0.5,127,69.0
2189,D5,263.5,0.5,127,69.0
2190,D2,263.75,0.25,127,69.0
2191,E4,264.0,0.5,127,69.0
2192,F#2,264.0,0.5,127,69.0
2193,E1,264.0,1.0,127,69.0
2194,D5,264.0,167/1000,127,69.0
2195,A4,264.0,167/1000,127,69.0
2196,A4,264.167,167/1000,127,69.0
2197,G4,264.333,167/1000,127,69.0
2198,B3,264.5,0.5,127,69.0
2199,E4,264.5,0.5,127,69.0
2200,G2,264.5,0.25,127,69.0
2201,G2,264.75,0.25,127,69.0
2202,G2,265.0,0.25,127,69.0
2203,D4,265.0,0.125,127,69.0
2204,G2,265.0,0.25,127,69.0
2205,G1,265.0,0.25,127,69.0
2206,E4,265.125,0.125,127,69.0
2207,F#2,265.25,0.25,127,69.0
2208,G4,265.25,0.25,127,69.0
2209,G2,265.25,0.25,127,69.0
2210,F#1,265.25,0.25,127,69.0
2211,E2,265.5,0.5,127,69.0
2212,E4,265.5,1.5,127,69.0
2213,G4,265.5,3.0,127,69.0
2214,E4,265.5,3.0,127,69.0
2215,C2,265.5,1.5,127,69.0
2216,A3,265.5,0.5,127,69.0
2217,E1,265.5,1.5,127,69.0
2218,G3,266.0,0.5,127,69.0
2219,F#2,266.0,0.5,127,69.0
2220,D4,266.317,0.25,127,69.0
2221,B3,266.5,0.5,127,69.0
2222,F#2,266.5,0.5,127,69.0
2223,E4,266.567,0.25,127,69.0
2224,E4,266.817,0.25,127,69.0
2225,G4,267.0,0.5,127,69.0
2226,E2,267.0,1.5,127,69.0
2227,D2,267.0,0.5,127,69.0
2228,F#2,267.0,0.5,127,69.0
2229,E4,267.067,0.5,127,69.0
2230,G3,267.5,0.25,127,69.0
2231,F#2,267.5,0.5,127,69.0
2232,E4,267.567,0.25,127,69.0
2233,E4,267.75,0.25,127,69.0
2234,E4,267.817,371/500,127,69.0
2235,B3,268.0,0.25,127,69.0
2236,F#2,268.0,0.5,127,69.0
2237,G3,268.25,0.25,127,69.0
2238,A4,268.5,0.75,127,69.0
2239,F#4,268.5,0.75,127,69.0
2240,C2,268.5,1.5,127,69.0
2241,F#2,268.5,0.5,127,69.0
2242,D2,268.5,1.5,127,69.0
2243,F#4,268.5,0.5,127,69.0
2244,D3,268.5,0.5,127,69.0
2245,E4,268.558,1/125,127,69.0
2246,F#4,268.567,0.5,127,69.0
2247,D3,269.0,0.25,127,69.0
2248,F#2,269.0,0.5,127,69.0
2249,G4,269.067,0.5,127,69.0
2250,G4,269.25,0.25,127,69.0
2251,B4,269.25,0.75,127,69.0
2252,G4,269.25,0.75,127,69.0
2253,D4,269.5,0.25,127,69.0
2254,F#2,269.5,0.5,127,69.0
2255,E4,269.567,249/125,127,69.0
2256,G3,269.75,0.25,127,69.0
2257,G4,270.0,1.5,127,69.0
2258,E4,270.0,1.5,127,69.0
2259,C2,270.0,1.0,127,69.0
2260,E4,270.0,0.5,127,69.0
2261,C3,270.0,0.5,127,69.0
2262,D2,270.0,0.5,127,69.0
2263,F#2,270.0,0.5,127,69.0
2264,D4,270.5,0.25,127,69.0
2265,F#2,270.5,0.5,127,69.0
2266,G3,270.75,0.25,127,69.0
2267,G2,271.0,0.25,127,69.0
2268,G1,271.0,0.25,127,69.0
2269,C2,271.0,0.5,127,69.0
2270,F#2,271.0,0.5,127,69.0
2271,F#2,271.25,0.25,127,69.0
2272,F#1,271.25,0.25,127,69.0
2273,E2,271.5,0.5,127,69.0
2274,G4,271.5,3.0,127,69.0
2275,E4,271.5,3.0,127,69.0
2276,C2,271.5,1.5,127,69.0
2277,F#2,271.5,0.5,127,69.0
2278,E1,271.5,1.5,127,69.0
2279,E4,271.558,1/125,127,69.0
2280,G3,272.0,0.5,127,69.0
2281,F#2,272.0,0.5,127,69.0
2282,B3,272.5,0.5,127,69.0
2283,F#2,272.5,0.5,127,69.0
2284,E4,272.567,0.25,127,69.0
2285,E4,272.817,0.25,127,69.0
2286,G4,273.0,0.5,127,69.0
2287,E2,273.0,1.5,127,69.0
2288,D2,273.0,0.5,127,69.0
2289,F#2,273.0,0.5,127,69.0
2290,E4,273.067,0.75,127,69.0
2291,G3,273.5,0.25,127,69.0
2292,F#2,273.5,0.5,127,69.0
2293,E4,273.75,0.25,127,69.0
2294,E4,273.817,0.25,127,69.0
2295,B3,274.0,0.25,127,69.0
2296,F#2,274.0,0.5,127,69.0
2297,E4,274.067,0.25,127,69.0
2298,G3,274.25,0.25,127,69.0
2299,B3,274.317,121/500,127,69.0
2300,A4,274.5,0.75,127,69.0
2301,F#4,274.5,0.75,127,69.0
2302,C2,274.5,1.5,127,69.0
2303,F#2,274.5,0.5,127,69.0
2304,D2,274.5,1.5,127,69.0
2305,D3,274.5,0.5,127,69.0
2306,F#4,274.5,0.5,127,69.0
2307,B3,274.558,1/125,127,69.0
2308,D4,274.567,0.5,127,69.0
2309,D3,275.0,0.25,127,69.0
2310,F#2,275.0,0.5,127,69.0
2311,D4,275.067,0.25,127,69.0
2312,D4,275.25,0.25,127,69.0
2313,B4,275.25,0.75,127,69.0
2314,G4,275.25,0.75,127,69.0
2315,E4,275.317,0.75,127,69.0
2316,A3,275.5,0.25,127,69.0
2317,F#2,275.5,0.5,127,69.0
2318,G3,275.75,0.25,127,69.0
2319,C5,276.0,1.5,127,69.0
2320,G4,276.0,1.5,127,69.0
2321,C2,276.0,1.0,127,69.0
2322,D4,276.0,0.5,127,69.0
2323,C3,276.0,0.5,127,69.0
2324,D2,276.0,0.5,127,69.0
2325,F#2,276.0,0.5,127,69.0
2326,G4,276.067,583/1000,127,69.0
2327,G3,276.5,0.25,127,69.0
2328,F#2,276.5,0.5,127,69.0
2329,F#4,276.65,227/250,127,69.0
2330,E4,276.733,33/40,127,69.0
2331,D4,276.75,0.25,127,69.0
2332,G2,277.0,0.25,127,69.0
2333,G1,277.0,0.25,127,69.0
2334,C2,277.0,0.5,127,69.0
2335,F#2,277.0,0.5,127,69.0
2336,F#2,277.25,0.25,127,69.0
2337,F#1,277.25,0.25,127,69.0
2338,E2,277.5,0.5,127,69.0
2339,G4,277.5,3.0,127,69.0
2340,E4,277.5,3.0,127,69.0
2341,C2,277.5,1.5,127,69.0
2342,F#2,277.5,0.5,127,69.0
2343,E1,277.5,1.5,127,69.0
2344,F#4,277.558,1/125,127,69.0
2345,E4,277.558,1/125,127,69.0
2346,G3,278.0,0.5,127,69.0
2347,F#2,278.0,0.5,127,69.0
2348,A4,278.067,0.25,127,69.0
2349,B4,278.317,0.25,127,69.0
2350,B3,278.5,0.5,127,69.0
2351,F#2,278.5,0.5,127,69.0
2352,A4,278.567,229/500,127,69.0
2353,G4,279.0,0.5,127,69.0
2354,E2,279.0,1.5,127,69.0
2355,D2,279.0,0.5,127,69.0
2356,F#2,279.0,0.5,127,69.0
2357,G4,279.025,0.75,101,69.0
2358,F#4,279.025,0.75,101,69.0
2359,G3,279.5,0.25,127,69.0
2360,F#2,279.5,0.5,127,69.0
2361,E4,279.75,0.25,127,69.0
2362,F#4,279.817,0.25,127,69.0
2363,B3,280.0,0.25,127,69.0
2364,F#2,280.0,0.5,127,69.0
2365,E4,280.067,123/250,127,69.0
2366,G3,280.25,0.25,127,69.0
2367,A4,280.5,0.75,127,69.0
2368,F#4,280.5,0.75,127,69.0
2369,C2,280.5,1.5,127,69.0
2370,F#2,280.5,0.5,127,69.0
2371,D2,280.5,1.5,127,69.0
2372,D3,280.5,0.5,127,69.0
2373,F#4,280.5,0.5,127,69.0
2374,E4,280.558,1/125,127,69.0
2375,F#4,280.567,0.5,127,69.0
2376,D3,281.0,0.25,127,69.0
2377,F#2,281.0,0.5,127,69.0
2378,G4,281.067,623/250,127,69.0
2379,G4,281.25,0.25,127,69.0
2380,B4,281.25,0.75,127,69.0
2381,G4,281.25,0.75,127,69.0
2382,D4,281.5,0.25,127,69.0
2383,F#2,281.5,0.5,127,69.0
2384,G3,281.75,0.25,127,69.0
2385,G4,282.0,1.5,127,69.0
2386,E4,282.0,1.5,127,69.0
2387,C2,282.0,1.0,127,69.0
2388,G4,282.0,0.5,127,69.0
2389,C3,282.0,0.5,127,69.0
2390,D2,282.0,0.5,127,69.0
2391,F#2,282.0,0.5,127,69.0
2392,D4,282.5,0.5,127,69.0
2393,F#2,282.5,0.5,127,69.0
2394,G3,283.0,0.5,127,69.0
2395,G1,283.0,0.25,127,69.0
2396,C2,283.0,0.5,127,69.0
2397,F#2,283.0,0.5,127,69.0
2398,F#1,283.25,0.25,127,69.0
2399,G2,283.5,0.5,127,69.0
2400,G4,283.5,1.5,127,69.0
2401,B3,283.5,3.0,127,69.0
2402,C2,283.5,1.5,127,69.0
2403,F#2,283.5,0.5,127,69.0
2404,G1,283.5,1.5,127,69.0
2405,G4,283.558,1/125,127,69.0
2406,G3,284.0,0.5,127,69.0
2407,F#2,284.0,0.5,127,69.0
2408,F#2,284.5,0.5,127,69.0
2409,G4,284.5,0.5,127,69.0
2410,D4,284.5,0.5,127,69.0
2411,A4,284.567,0.25,127,69.0
2412,B4,284.817,0.25,127,69.0
2413,F#4,285.0,1.5,127,69.0
2414,B1,285.0,1.5,127,69.0
2415,B2,285.0,0.5,127,69.0
2416,B3,285.0,0.5,127,69.0
2417,A3,285.0,0.5,127,69.0
2418,F#4,285.0,0.5,127,69.0
2419,D2,285.0,0.5,127,69.0
2420,F#2,285.0,0.5,127,69.0
2421,A4,285.067,0.5,127,69.0
2422,B2,285.5,0.25,127,69.0
2423,F#2,285.5,0.5,127,69.0
2424,A4,285.567,0.25,127,69.0
2425,F#4,285.75,0.25,127,69.0
2426,A4,285.817,371/500,127,69.0
2427,B3,286.0,0.5,127,69.0
2428,F#2,286.0,0.5,127,69.0
2429,E4,286.5,3.0,127,69.0
2430,B3,286.5,3.0,127,69.0
2431,C2,286.5,1.5,127,69.0
2432,A3,286.5,0.5,127,69.0
2433,E1,286.5,1.5,127,69.0
2434,E2,286.5,0.5,127,69.0
2435,E4,286.5,0.5,127,69.0
2436,A4,286.558,1/125,127,69.0
2437,A4,286.567,0.25,127,69.0
2438,A4,286.817,0.25,127,69.0
2439,G3,287.0,0.5,127,69.0
2440,F#2,287.0,0.5,127,69.0
2441,B4,287.067,623/250,127,69.0
2442,B3,287.5,0.5,127,69.0
2443,F#2,287.5,0.5,127,69.0
2444,E4,288.0,0.5,127,69.0
2445,E2,288.0,1.5,127,69.0
2446,D2,288.0,0.5,127,69.0
2447,F#2,288.0,0.5,127,69.0
2448,B3,288.5,0.5,127,69.0
2449,D2,288.5,0.5,127,69.0
2450,F#2,288.5,0.5,127,69.0
2451,G3,289.0,0.5,127,69.0
2452,D2,289.0,0.5,127,69.0
2453,F#2,289.0,0.5,127,69.0
2454,E2,289.5,0.5,127,69.0
2455,E4,289.5,3.0,127,69.0
2456,B3,289.5,3.0,127,69.0
2457,F#2,289.5,0.25,127,69.0
2458,E1,289.5,0.25,127,69.0
2459,B4,289.558,126/125,127,69.0
2460,D2,289.75,0.25,127,69.0
2461,E1,289.75,0.5,127,69.0
2462,G3,290.0,0.5,127,69.0
2463,A2,290.0,0.25,127,69.0
2464,D2,290.25,0.25,127,69.0
2465,E1,290.25,0.25,127,69.0
2466,B3,290.5,0.5,127,69.0
2467,B2,290.5,0.25,127,69.0
2468,E1,290.5,0.5,127,69.0
2469,D2,290.75,0.25,127,69.0
2470,E4,291.0,0.5,127,69.0
2471,C3,291.0,0.25,127,69.0
2472,E2,291.0,1.0,127,69.0
2473,C3,291.25,0.25,127,69.0
2474,B3,291.5,0.5,127,69.0
2475,D3,291.5,0.25,127,69.0
2476,D3,291.75,0.25,127,69.0
2477,G2,292.0,0.25,127,69.0
2478,G2,292.0,0.25,127,69.0
2479,G1,292.0,0.25,127,69.0
2480,F#2,292.25,0.25,127,69.0
2481,G2,292.25,0.25,127,69.0
2482,F#1,292.25,0.25,127,69.0
2483,E2,292.5,0.5,127,69.0
2484,C2,292.5,1.5,127,69.0
2485,A3,292.5,0.5,127,69.0
2486,E1,292.5,1.5,127,69.0
2487,G3,293.0,0.5,127,69.0
2488,F#2,293.0,0.5,127,69.0
2489,G4,293.067,0.5,127,69.0
2490,B3,293.5,0.5,127,69.0
2491,F#2,293.5,0.5,127,69.0
2492,G3,293.5,0.5,127,69.0
2493,E3,293.5,0.5,127,69.0
2494,G4,293.567,0.5,127,69.0
2495,G4,294.0,0.5,127,69.0
2496,E2,294.0,1.5,127,69.0
2497,E3,294.0,0.25,127,69.0
2498,G3,294.0,0.25,127,69.0
2499,D2,294.0,0.5,127,69.0
2500,F#2,294.0,0.5,127,69.0
2501,G4,294.067,0.5,127,69.0
2502,A3,294.25,0.5,127,69.0
2503,F#3,294.25,0.5,127,69.0
2504,G3,294.5,0.25,127,69.0
2505,F#2,294.5,0.5,127,69.0
2506,E4,294.75,0.25,127,69.0
2507,F#3,294.75,0.25,127,69.0
2508,A3,294.75,0.25,127,69.0
2509,G4,294.817,0.25,127,69.0
2510,B3,295.0,0.25,127,69.0
2511,F#2,295.0,0.5,127,69.0
2512,E3,295.0,0.5,127,69.0
2513,G3,295.0,0.5,127,69.0
2514,G4,295.067,123/250,127,69.0
2515,G3,295.25,0.25,127,69.0
2516,C2,295.5,1.5,127,69.0
2517,F#2,295.5,0.5,127,69.0
2518,D2,295.5,1.5,127,69.0
2519,F#4,295.5,0.5,127,69.0
2520,D3,295.5,0.5,127,69.0
2521,D3,295.5,0.75,127,69.0
2522,F#3,295.5,0.75,127,69.0
2523,G4,295.558,1/125,127,69.0
2524,A4,295.567,0.5,127,69.0
2525,D3,296.0,0.25,127,69.0
2526,F#2,296.0,0.5,127,69.0
2527,B4,296.067,0.25,127,69.0
2528,G4,296.25,0.25,127,69.0
2529,E3,296.25,0.75,127,69.0
2530,G4,296.317,0.25,127,69.0
2531,D4,296.5,0.25,127,69.0
2532,F#2,296.5,0.5,127,69.0
2533,G4,296.567,249/125,127,69.0
2534,G3,296.75,0.25,127,69.0
2535,E3,297.0,1.5,127,69.0
2536,C2,297.0,1.0,127,69.0
2537,E4,297.0,0.5,127,69.0
2538,C3,297.0,0.5,127,69.0
2539,D2,297.0,0.5,127,69.0
2540,F#2,297.0,0.5,127,69.0
2541,D4,297.5,0.25,127,69.0
2542,F#2,297.5,0.5,127,69.0
2543,G3,297.75,0.25,127,69.0
2544,G2,298.0,0.25,127,69.0
2545,G1,298.0,0.25,127,69.0
2546,C2,298.0,0.5,127,69.0
2547,A3,298.0,0.5,127,69.0
2548,F#2,298.25,0.25,127,69.0
2549,F#1,298.25,0.25,127,69.0
2550,E2,298.5,0.5,127,69.0
2551,C2,298.5,1.5,127,69.0
2552,A3,298.5,0.5,127,69.0
2553,E1,298.5,1.5,127,69.0
2554,G4,298.558,1/125,127,69.0
2555,G3,299.0,0.5,127,69.0
2556,F#2,299.0,0.5,127,69.0
2557,B3,299.5,0.5,127,69.0
2558,F#2,299.5,0.5,127,69.0
2559,G3,299.5,0.5,127,69.0
2560,E3,299.5,0.5,127,69.0
2561,E5,299.567,0.25,127,69.0
2562,E5,299.817,0.25,127,69.0
2563,G4,300.0,0.5,127,69.0
2564,E2,300.0,1.5,127,69.0
2565,E3,300.0,0.25,127,69.0
2566,G3,300.0,0.25,127,69.0
2567,D2,300.0,0.5,127,69.0
2568,F#2,300.0,0.5,127,69.0
2569,D5,300.067,0.25,127,69.0
2570,A3,300.25,0.5,127,69.0
2571,F#3,300.25,0.5,127,69.0
2572,E5,300.317,0.25,127,69.0
2573,G3,300.5,0.25,127,69.0
2574,F#2,300.5,0.5,127,69.0
2575,B4,300.567,0.25,127,69.0
2576,E4,300.75,0.25,127,69.0
2577,F#3,300.75,0.25,127,69.0
2578,A3,300.75,0.25,127,69.0
2579,G4,300.817,0.25,127,69.0
2580,B3,301.0,0.25,127,69.0
2581,F#2,301.0,0.5,127,69.0
2582,G3,301.0,0.5,127,69.0
2583,E3,301.0,0.5,127,69.0
2584,G4,301.067,123/250,127,69.0
2585,G3,301.25,0.25,127,69.0
2586,C2,301.5,1.5,127,69.0
2587,F#2,301.5,0.5,127,69.0
2588,D2,301.5,1.5,127,69.0
2589,D3,301.5,0.5,127,69.0
2590,F#4,301.5,0.5,127,69.0
2591,D3,301.5,0.75,127,69.0
2592,F#3,301.5,0.75,127,69.0
2593,G4,301.558,1/125,127,69.0
2594,A4,301.567,0.5,127,69.0
2595,D3,302.0,0.25,127,69.0
2596,F#2,302.0,0.5,127,69.0
2597,B4,302.067,0.5,127,69.0
2598,D4,302.25,0.25,127,69.0
2599,D3,302.25,0.75,127,69.0
2600,A3,302.5,0.25,127,69.0
2601,F#2,302.5,0.5,127,69.0
2602,B4,302.567,0.5,127,69.0
2603,G3,302.75,0.25,127,69.0
2604,D3,303.0,1.5,127,69.0
2605,C2,303.0,1.0,127,69.0
2606,D4,303.0,0.5,127,69.0
2607,C3,303.0,0.5,127,69.0
2608,D2,303.0,0.5,127,69.0
2609,F#2,303.0,0.5,127,69.0
2610,C5,303.067,373/250,127,69.0
2611,G3,303.5,0.25,127,69.0
2612,F#2,303.5,0.5,127,69.0
2613,D4,303.75,0.25,127,69.0
2614,G2,304.0,0.25,127,69.0
2615,G1,304.0,0.25,127,69.0
2616,C2,304.0,0.5,127,69.0
2617,A3,304.0,0.5,127,69.0
2618,F#2,304.25,0.25,127,69.0
2619,F#1,304.25,0.25,127,69.0
2620,E2,304.5,0.5,127,69.0
2621,C2,304.5,1.5,127,69.0
2622,A3,304.5,0.5,127,69.0
2623,E1,304.5,1.5,127,69.0
2624,C5,304.558,1/125,127,69.0
2625,G3,305.0,0.5,127,69.0
2626,F#2,305.0,0.5,127,69.0
2627,B3,305.5,0.5,127,69.0
2628,F#2,305.5,0.5,127,69.0
2629,E3,305.5,0.5,127,69.0
2630,G3,305.5,0.5,127,69.0
2631,A4,305.525,21/500,75,69.0
2632,B4,305.567,0.25,127,69.0
2633,B4,305.817,0.25,127,69.0
2634,G4,306.0,0.5,127,69.0
2635,E2,306.0,1.5,127,69.0
2636,G3,306.0,0.25,127,69.0
2637,E3,306.0,0.25,127,69.0
2638,D2,306.0,0.5,127,69.0
2639,F#2,306.0,0.5,127,69.0
2640,A4,306.067,0.25,127,69.0
2641,F#3,306.25,0.5,127,69.0
2642,A3,306.25,0.5,127,69.0
2643,B4,306.317,0.5,127,69.0
2644,G3,306.5,0.25,127,69.0
2645,F#2,306.5,0.5,127,69.0
2646,E4,306.75,0.25,127,69.0
2647,A3,306.75,0.25,127,69.0
2648,F#3,306.75,0.25,127,69.0
2649,A4,306.817,0.5,127,69.0
2650,B3,307.0,0.25,127,69.0
2651,F#2,307.0,0.5,127,69.0
2652,E3,307.0,0.5,127,69.0
2653,G3,307.0,0.5,127,69.0
2654,G3,307.25,0.25,127,69.0
2655,G4,307.317,121/500,127,69.0
2656,C2,307.5,1.5,127,69.0
2657,F#2,307.5,0.5,127,69.0
2658,D2,307.5,1.5,127,69.0
2659,D3,307.5,0.5,127,69.0
2660,F#4,307.5,0.5,127,69.0
2661,D3,307.5,0.75,127,69.0
2662,F#3,307.5,0.75,127,69.0
2663,G4,307.558,1/125,127,69.0
2664,A4,307.567,0.5,127,69.0
2665,D3,308.0,0.25,127,69.0
2666,F#2,308.0,0.5,127,69.0
2667,B4,308.067,0.5,127,69.0
2668,G4,308.25,0.25,127,69.0
2669,G3,308.25,0.75,127,69.0
2670,D4,308.5,0.25,127,69.0
2671,F#2,308.5,0.5,127,69.0
2672,G4,308.567,249/125,127,69.0
2673,G3,308.75,0.25,127,69.0
2674,C2,309.0,1.0,127,69.0
2675,G4,309.0,0.5,127,69.0
2676,C3,309.0,0.5,127,69.0
2677,C3,309.0,1.5,127,69.0
2678,E3,309.0,1.5,127,69.0
2679,D2,309.0,0.5,127,69.0
2680,F#2,309.0,0.5,127,69.0
2681,D4,309.5,0.5,127,69.0
2682,F#2,309.5,0.5,127,69.0
2683,G3,310.0,0.5,127,69.0
2684,G1,310.0,0.25,127,69.0
2685,C2,310.0,0.5,127,69.0
2686,A3,310.0,0.5,127,69.0
2687,F#1,310.25,0.25,127,69.0
2688,G2,310.5,0.5,127,69.0
2689,C2,310.5,1.5,127,69.0
2690,A3,310.5,0.5,127,69.0
2691,G1,310.5,1.5,127,69.0
2692,B2,310.5,0.5,127,69.0
2693,D3,310.5,0.5,127,69.0
2694,G4,310.558,1/125,127,69.0
2695,G3,311.0,0.5,127,69.0
2696,B2,311.0,0.25,127,69.0
2697,F#2,311.0,0.5,127,69.0
2698,C3,311.25,0.25,127,69.0
2699,B2,311.5,0.5,127,69.0
2700,F#2,311.5,0.5,127,69.0
2701,G4,311.5,0.5,127,69.0
2702,D4,311.5,0.5,127,69.0
2703,B4,311.567,0.25,127,69.0
2704,G4,311.817,0.25,127,69.0
2705,B1,312.0,1.5,127,69.0
2706,B2,312.0,0.5,127,69.0
2707,B3,312.0,0.5,127,69.0
2708,A3,312.0,0.5,127,69.0
2709,F#4,312.0,0.5,127,69.0
2710,D2,312.0,0.5,127,69.0
2711,F#2,312.0,0.5,127,69.0
2712,A4,312.067,0.5,127,69.0
2713,B2,312.5,0.25,127,69.0
2714,B2,312.5,0.25,127,69.0
2715,F#2,312.5,0.5,127,69.0
2716,A4,312.567,0.25,127,69.0
2717,F#4,312.75,0.25,127,69.0
2718,C3,312.75,0.25,127,69.0
2719,A4,312.817,371/500,127,69.0
2720,B3,313.0,0.5,127,69.0
2721,B2,313.0,0.5,127,69.0
2722,F#2,313.0,0.5,127,69.0
2723,C2,313.5,1.5,127,69.0
2724,A3,313.5,0.5,127,69.0
2725,E1,313.5,1.5,127,69.0
2726,E2,313.5,0.5,127,69.0
2727,E4,313.5,0.5,127,69.0
2728,A4,313.558,1/125,127,69.0
2729,A4,313.567,0.25,127,69.0
2730,A4,313.817,0.25,127,69.0
2731,G3,314.0,0.5,127,69.0
2732,F#2,314.0,0.5,127,69.0
2733,B4,314.067,623/250,127,69.0
2734,B3,314.5,0.5,127,69.0
2735,F#2,314.5,0.5,127,69.0
2736,E4,315.0,0.5,127,69.0
2737,E2,315.0,1.5,127,69.0
2738,D2,315.0,0.5,127,69.0
2739,F#2,315.0,0.5,127,69.0
2740,B3,315.5,0.5,127,69.0
2741,F#2,315.5,0.5,127,69.0
2742,G3,316.0,0.5,127,69.0
2743,F#2,316.0,0.5,127,69.0
2744,C2,316.5,1.5,127,69.0
2745,A3,316.5,0.5,127,69.0
2746,C2,316.5,1.5,127,69.0
2747,E4,316.5,3.0,127,69.0
2748,C4,316.5,3.0,127,69.0
2749,G3,316.5,3.0,127,69.0
2750,E3,316.5,3.0,127,69.0
2751,C3,316.5,3.0,127,69.0
2752,E4,316.5,3.0,127,69.0
2753,C4,316.5,3.0,127,69.0
2754,G3,316.5,3.0,127,69.0
2755,E3,316.5,3.0,127,69.0
2756,C3,316.5,3.0,127,69.0
2757,B4,316.558,377/250,127,69.0
2758,F#2,317.0,0.5,127,69.0
2759,F#2,317.5,0.5,127,69.0
2760,A1,318.0,1.5,127,69.0
2761,C#4,318.0,1.5,127,69.0
2762,A3,318.0,1.5,127,69.0
2763,E3,318.0,1.5,127,69.0
2764,A2,318.0,1.5,127,69.0
2765,C#4,318.0,1.5,127,69.0
2766,A3,318.0,1.5,127,69.0
2767,E3,318.0,1.5,127,69.0
2768,A2,318.0,1.5,127,69.0
2769,D2,318.0,0.5,127,69.0
2770,F#2,318.0,0.5,127,69.0
2771,F#2,318.5,0.5,127,69.0
2772,F#2,319.0,0.5,127,69.0
2773,C2,319.5,1.5,127,69.0
2774,A3,319.5,0.5,127,69.0
2775,D2,319.5,0.5,127,69.0
2776,F#4,319.5,0.75,127,69.0
2777,D4,319.5,0.75,127,69.0
2778,A3,319.5,0.75,127,69.0
2779,D3,319.5,0.75,127,69.0
2780,D2,320.0,0.5,127,69.0
2781,A2,320.0,0.5,127,69.0
2782,F#2,320.0,0.5,127,69.0
2783,D3,320.25,0.25,127,69.0
2784,A3,320.25,0.25,127,69.0
2785,D4,320.25,0.25,127,69.0
2786,F#4,320.25,0.25,127,69.0
2787,F#2,320.5,0.5,127,69.0
2788,D2,320.5,0.5,127,69.0
2789,F#4,320.5,0.25,127,69.0
2790,D4,320.5,0.25,127,69.0
2791,A3,320.5,0.25,127,69.0
2792,D3,320.5,0.25,127,69.0
2793,A4,320.567,0.25,101,69.0
2794,F#5,320.567,0.25,101,69.0
2795,F#4,320.75,0.25,127,69.0
2796,D4,320.75,0.25,127,69.0
2797,A3,320.75,0.25,127,69.0
2798,D3,320.75,0.25,127,69.0
2799,F#5,320.817,0.25,101,69.0
2800,A4,320.817,0.25,101,69.0
2801,C2,321.0,1.5,127,69.0
2802,F#2,321.0,0.5,127,69.0
2803,D2,321.0,0.5,127,69.0
2804,G4,321.0,0.25,127,69.0
2805,D4,321.0,0.25,127,69.0
2806,A3,321.0,0.25,127,69.0
2807,D3,321.0,0.25,127,69.0
2808,A4,321.025,21/500,62,69.0
2809,F#5,321.025,21/500,62,69.0
2810,B4,321.067,0.5,101,69.0
2811,G5,321.067,0.5,101,69.0
2812,D3,321.25,0.5,127,69.0
2813,A3,321.25,0.5,127,69.0
2814,D4,321.25,0.5,127,69.0
2815,F#4,321.25,0.5,127,69.0
2816,D2,321.5,0.5,127,69.0
2817,A2,321.5,0.5,127,69.0
2818,F#2,321.5,0.5,127,69.0
2819,F#5,321.567,0.25,101,69.0
2820,A4,321.567,0.25,101,69.0
2821,G#4,321.75,0.5,127,69.0
2822,D4,321.75,0.5,127,69.0
2823,A3,321.75,0.5,127,69.0
2824,D3,321.75,0.5,127,69.0
2825,G4,321.817,0.375,101,69.0
2826,E5,321.817,0.375,101,69.0
2827,F#2,322.0,0.5,127,69.0
2828,D2,322.0,0.5,127,69.0
2829,F#5,322.192,367/1000,101,69.0
2830,A4,322.192,367/1000,101,69.0
2831,F#4,322.25,0.25,127,69.0
2832,D4,322.25,0.25,127,69.0
2833,A3,322.25,0.25,127,69.0
2834,D3,322.25,0.25,127,69.0
2835,C2,322.5,1.5,127,69.0
2836,A3,322.5,0.5,127,69.0
2837,C2,322.5,1.5,127,69.0
2838,E4,322.5,1.5,127,69.0
2839,C4,322.5,1.5,127,69.0
2840,G3,322.5,1.5,127,69.0
2841,E3,322.5,1.5,127,69.0
2842,C3,322.5,1.5,127,69.0
2843,F#5,322.558,1/125,101,69.0
2844,A4,322.558,1/125,101,69.0
2845,A4,322.567,0.25,101,69.0
2846,F#5,322.567,0.25,101,69.0
2847,G4,322.817,2.25,101,69.0
2848,E5,322.817,2.25,101,69.0
2849,F#2,323.0,0.5,127,69.0
2850,F#2,323.5,0.5,127,69.0
2851,A1,324.0,1.5,127,69.0
2852,C#4,324.0,1.5,127,69.0
2853,A3,324.0,1.5,127,69.0
2854,E3,324.0,1.5,127,69.0
2855,A2,324.0,1.5,127,69.0
2856,D2,324.0,0.5,127,69.0
2857,A3,324.0,0.5,127,69.0
2858,F#2,324.5,0.5,127,69.0
2859,F#2,325.0,0.5,127,69.0
2860,C2,325.5,1.5,127,69.0
2861,A3,325.5,0.5,127,69.0
2862,D2,325.5,0.5,127,69.0
2863,F#4,325.5,0.75,127,69.0
2864,D4,325.5,0.75,127,69.0
2865,A3,325.5,0.75,127,69.0
2866,D3,325.5,0.75,127,69.0
2867,D2,326.0,0.5,127,69.0
2868,A2,326.0,0.5,127,69.0
2869,F#2,326.0,0.5,127,69.0
2870,D3,326.25,0.25,127,69.0
2871,A3,326.25,0.25,127,69.0
2872,D4,326.25,0.25,127,69.0
2873,F#4,326.25,0.25,127,69.0
2874,F#2,326.5,0.5,127,69.0
2875,D2,326.5,0.5,127,69.0
2876,F#4,326.5,0.25,127,69.0
2877,D4,326.5,0.25,127,69.0
2878,A3,326.5,0.25,127,69.0
2879,D3,326.5,0.25,127,69.0
2880,A4,326.567,0.25,101,69.0
2881,F#5,326.567,0.25,101,69.0
2882,F#4,326.75,0.25,127,69.0
2883,D4,326.75,0.25,127,69.0
2884,A3,326.75,0.25,127,69.0
2885,D3,326.75,0.25,127,69.0
2886,F#5,326.817,0.25,101,69.0
2887,A4,326.817,0.25,101,69.0
2888,C2,327.0,1.5,127,69.0
2889,F#2,327.0,0.5,127,69.0
2890,D2,327.0,0.5,127,69.0
2891,G4,327.0,0.25,127,69.0
2892,D4,327.0,0.25,127,69.0
2893,A3,327.0,0.25,127,69.0
2894,D3,327.0,0.25,127,69.0
2895,A4,327.025,21/500,62,69.0
2896,F#5,327.025,21/500,62,69.0
2897,B4,327.067,0.5,101,69.0
2898,G5,327.067,0.5,101,69.0
2899,D3,327.25,0.5,127,69.0
2900,A3,327.25,0.5,127,69.0
2901,D4,327.25,0.5,127,69.0
2902,F#4,327.25,0.5,127,69.0
2903,D2,327.5,0.5,127,69.0
2904,A2,327.5,0.5,127,69.0
2905,F#2,327.5,0.5,127,69.0
2906,F#5,327.567,0.25,101,69.0
2907,A4,327.567,0.25,101,69.0
2908,G#4,327.75,0.5,127,69.0
2909,D4,327.75,0.5,127,69.0
2910,A3,327.75,0.5,127,69.0
2911,D3,327.75,0.5,127,69.0
2912,G4,327.817,0.375,101,69.0
2913,E5,327.817,0.375,101,69.0
2914,F#2,328.0,0.5,127,69.0
2915,D2,328.0,0.5,127,69.0
2916,F#5,328.192,367/1000,101,69.0
2917,A4,328.192,367/1000,101,69.0
2918,F#4,328.25,0.25,127,69.0
2919,D4,328.25,0.25,127,69.0
2920,A3,328.25,0.25,127,69.0
2921,D3,328.25,0.25,127,69.0
2922,C2,328.5,1.5,127,69.0
2923,A3,328.5,0.5,127,69.0
2924,C2,328.5,1.5,127,69.0
2925,E4,328.5,1.5,127,69.0
2926,C4,328.5,1.5,127,69.0
2927,G3,328.5,1.5,127,69.0
2928,E3,328.5,1.5,127,69.0
2929,C3,328.5,1.5,127,69.0
2930,F#5,328.558,1/125,101,69.0
2931,A4,328.558,1/125,101,69.0
2932,A4,328.567,0.25,101,69.0
2933,F#5,328.567,0.25,101,69.0
2934,B4,328.817,0.25,101,69.0
2935,G5,328.817,0.25,101,69.0
2936,F#2,329.0,0.5,127,69.0
2937,G4,329.067,623/250,101,69.0
2938,E5,329.067,623/250,101,69.0
2939,F#2,329.5,0.5,127,69.0
2940,A1,330.0,1.5,127,69.0
2941,C#4,330.0,1.5,127,69.0
2942,A3,330.0,1.5,127,69.0
2943,E3,330.0,1.5,127,69.0
2944,A2,330.0,1.5,127,69.0
2945,A3,330.0,0.5,127,69.0
2946,D2,330.0,0.5,127,69.0
2947,F#2,330.5,0.5,127,69.0
2948,F#2,331.0,0.5,127,69.0
2949,C2,331.5,1.5,127,69.0
2950,A3,331.5,0.5,127,69.0
2951,D2,331.5,0.5,127,69.0
2952,F#4,331.5,0.75,127,69.0
2953,D4,331.5,0.75,127,69.0
2954,A3,331.5,0.75,127,69.0
2955,D3,331.5,0.75,127,69.0
2956,G4,331.558,1/125,101,69.0
2957,E5,331.558,1/125,101,69.0
2958,D2,332.0,0.5,127,69.0
2959,A2,332.0,0.5,127,69.0
2960,F#2,332.0,0.5,127,69.0
2961,D3,332.25,0.25,127,69.0
2962,A3,332.25,0.25,127,69.0
2963,D4,332.25,0.25,127,69.0
2964,F#4,332.25,0.25,127,69.0
2965,F#2,332.5,0.5,127,69.0
2966,D2,332.5,0.5,127,69.0
2967,F#4,332.5,0.25,127,69.0
2968,D4,332.5,0.25,127,69.0
2969,A3,332.5,0.25,127,69.0
2970,D3,332.5,0.25,127,69.0
2971,A4,332.567,0.25,101,69.0
2972,F#5,332.567,0.25,101,69.0
2973,F#4,332.75,0.25,127,69.0
2974,D4,332.75,0.25,127,69.0
2975,A3,332.75,0.25,127,69.0
2976,D3,332.75,0.25,127,69.0
2977,F#5,332.817,0.25,101,69.0
2978,A4,332.817,0.25,101,69.0
2979,C2,333.0,1.5,127,69.0
2980,F#2,333.0,0.5,127,69.0
2981,D2,333.0,0.5,127,69.0
2982,G4,333.0,0.25,127,69.0
2983,D4,333.0,0.25,127,69.0
2984,A3,333.0,0.25,127,69.0
2985,D3,333.0,0.25,127,69.0
2986,A4,333.025,21/500,62,69.0
2987,F#5,333.025,21/500,62,69.0
2988,B4,333.067,0.5,101,69.0
2989,G5,333.067,0.5,101,69.0
2990,D3,333.25,0.5,127,69.0
2991,A3,333.25,0.5,127,69.0
2992,D4,333.25,0.5,127,69.0
2993,F#4,333.25,0.5,127,69.0
2994,D2,333.5,0.5,127,69.0
2995,A2,333.5,0.5,127,69.0
2996,F#2,333.5,0.5,127,69.0
2997,E5,333.567,0.25,101,69.0
2998,G4,333.567,0.25,101,69.0
2999,G#4,333.75,0.5,127,69.0
3000,D4,333.75,0.5,127,69.0
3001,A3,333.75,0.5,127,69.0
3002,D3,333.75,0.5,127,69.0
3003,D5,333.817,0.375,101,69.0
3004,F#4,333.817,0.375,101,69.0
3005,F#2,334.0,0.5,127,69.0
3006,D2,334.0,0.5,127,69.0
3007,F#5,334.192,367/1000,101,69.0
3008,A4,334.192,367/1000,101,69.0
3009,F#4,334.25,0.25,127,69.0
3010,D4,334.25,0.25,127,69.0
3011,A3,334.25,0.25,127,69.0
3012,D3,334.25,0.25,127,69.0
3013,C2,334.5,1.5,127,69.0
3014,A3,334.5,0.5,127,69.0
3015,C2,334.5,1.5,127,69.0
3016,E4,334.5,1.5,127,69.0
3017,C4,334.5,1.5,127,69.0
3018,G3,334.5,1.5,127,69.0
3019,E3,334.5,1.5,127,69.0
3020,C3,334.5,1.5,127,69.0
3021,F#5,334.558,1/125,101,69.0
3022,A4,334.558,1/125,101,69.0
3023,A4,334.567,0.25,101,69.0
3024,F#5,334.567,0.25,101,69.0
3025,G4,334.817,1371/500,101,69.0
3026,E5,334.817,1371/500,101,69.0
3027,F#2,335.0,0.5,127,69.0
3028,F#2,335.5,0.5,127,69.0
3029,A1,336.0,1.5,127,69.0
3030,C#4,336.0,1.5,127,69.0
3031,A3,336.0,1.5,127,69.0
3032,E3,336.0,1.5,127,69.0
3033,A2,336.0,1.5,127,69.0
3034,D2,336.0,0.5,127,69.0
3035,A3,336.0,0.5,127,69.0
3036,F#2,336.5,0.5,127,69.0
3037,F#2,337.0,0.5,127,69.0
3038,C2,337.5,1.5,127,69.0
3039,A3,337.5,0.5,127,69.0
3040,D2,337.5,0.5,127,69.0
3041,F#4,337.5,0.75,127,69.0
3042,D4,337.5,0.75,127,69.0
3043,A3,337.5,0.75,127,69.0
3044,D3,337.5,0.75,127,69.0
3045,G4,337.558,1/125,101,69.0
3046,E5,337.558,1/125,101,69.0
3047,D2,338.0,0.5,127,69.0
3048,A2,338.0,0.5,127,69.0
3049,F#2,338.0,0.5,127,69.0
3050,D3,338.25,0.25,127,69.0
3051,A3,338.25,0.25,127,69.0
3052,D4,338.25,0.25,127,69.0
3053,F#4,338.25,0.25,127,69.0
3054,F#2,338.5,0.5,127,69.0
3055,D2,338.5,0.5,127,69.0
3056,F#4,338.5,0.25,127,69.0
3057,D4,338.5,0.25,127,69.0
3058,A3,338.5,0.25,127,69.0
3059,D3,338.5,0.25,127,69.0
3060,A4,338.567,0.25,101,69.0
3061,F#5,338.567,0.25,101,69.0
3062,F#4,338.75,0.25,127,69.0
3063,D4,338.75,0.25,127,69.0
3064,A3,338.75,0.25,127,69.0
3065,D3,338.75,0.25,127,69.0
3066,F#5,338.817,0.25,101,69.0
3067,A4,338.817,0.25,101,69.0
3068,C2,339.0,1.5,127,69.0
3069,F#2,339.0,0.5,127,69.0
3070,D2,339.0,0.5,127,69.0
3071,G4,339.0,0.25,127,69.0
3072,D4,339.0,0.25,127,69.0
3073,A3,339.0,0.25,127,69.0
3074,D3,339.0,0.25,127,69.0
3075,A4,339.025,21/500,62,69.0
3076,F#5,339.025,21/500,62,69.0
3077,B4,339.067,0.5,101,69.0
3078,G5,339.067,0.5,101,69.0
3079,D3,339.25,0.5,127,69.0
3080,A3,339.25,0.5,127,69.0
3081,D4,339.25,0.5,127,69.0
3082,F#4,339.25,0.5,127,69.0
3083,D2,339.5,0.5,127,69.0
3084,A2,339.5,0.5,127,69.0
3085,F#2,339.5,0.5,127,69.0
3086,F#5,339.567,0.25,101,69.0
3087,A4,339.567,0.25,101,69.0
3088,G#4,339.75,0.5,127,69.0
3089,D4,339.75,0.5,127,69.0
3090,A3,339.75,0.5,127,69.0
3091,D3,339.75,0.5,127,69.0
3092,G4,339.817,0.375,101,69.0
3093,E5,339.817,0.375,101,69.0
3094,F#2,340.0,0.5,127,69.0
3095,D2,340.0,0.5,127,69.0
3096,F#5,340.192,367/1000,101,69.0
3097,A4,340.192,367/1000,101,69.0
3098,F#4,340.25,0.25,127,69.0
3099,D4,340.25,0.25,127,69.0
3100,A3,340.25,0.25,127,69.0
3101,D3,340.25,0.25,127,69.0
3102,C2,340.5,1.5,127,69.0
3103,A3,340.5,0.5,127,69.0
3104,C2,340.5,1.5,127,69.0
3105,E4,340.5,1.5,127,69.0
3106,C4,340.5,1.5,127,69.0
3107,G3,340.5,1.5,127,69.0
3108,E3,340.5,1.5,127,69.0
3109,C3,340.5,1.5,127,69.0
3110,F#5,340.558,1/125,101,69.0
3111,A4,340.558,1/125,101,69.0
3112,A4,340.567,0.25,101,69.0
3113,F#5,340.567,0.25,101,69.0
3114,B4,340.817,0.25,101,69.0
3115,G5,340.817,0.25,101,69.0
3116,C3,341.0,0.25,127,69.0
3117,F#2,341.0,0.5,127,69.0
3118,G4,341.067,623/250,101,69.0
3119,E5,341.067,623/250,101,69.0
3120,E3,341.25,0.25,127,69.0
3121,G3,341.5,1.0,127,69.0
3122,F#2,341.5,0.5,127,69.0
3123,A1,342.0,1.5,127,69.0
3124,C#4,342.0,1.5,127,69.0
3125,A3,342.0,1.5,127,69.0
3126,E3,342.0,1.5,127,69.0
3127,A2,342.0,1.5,127,69.0
3128,D2,342.0,0.5,127,69.0
3129,A3,342.0,0.5,127,69.0
3130,A2,342.5,0.25,127,69.0
3131,F#2,342.5,0.5,127,69.0
3132,E3,342.75,0.25,127,69.0
3133,A3,343.0,0.5,127,69.0
3134,F#2,343.0,0.5,127,69.0
3135,A3,343.5,0.5,127,69.0
3136,C2,343.5,1.5,127,69.0
3137,A3,343.5,0.5,127,69.0
3138,D2,343.5,0.5,127,69.0
3139,F#4,343.5,0.5,127,69.0
3140,D4,343.5,0.5,127,69.0
3141,A3,343.5,0.5,127,69.0
3142,D3,343.5,0.5,127,69.0
3143,G4,343.558,1/125,101,69.0
3144,E5,343.558,1/125,101,69.0
3145,A4,343.567,0.75,75,69.0
3146,F#5,343.567,0.5,127,69.0
3147,D3,344.0,0.25,127,69.0
3148,F#2,344.0,0.5,127,69.0
3149,D2,344.0,0.5,127,69.0
3150,D3,344.0,0.25,127,69.0
3151,A3,344.0,0.25,127,69.0
3152,D4,344.0,0.25,127,69.0
3153,F#4,344.0,0.25,127,69.0
3154,A3,344.25,0.25,127,69.0
3155,F#4,344.25,0.25,127,69.0
3156,D4,344.25,0.25,127,69.0
3157,A3,344.25,0.25,127,69.0
3158,D3,344.25,0.25,127,69.0
3159,F#5,344.317,0.25,101,69.0
3160,A4,344.317,0.25,101,69.0
3161,D4,344.5,0.5,127,69.0
3162,F#2,344.5,0.5,127,69.0
3163,D2,344.5,0.5,127,69.0
3164,F#4,344.5,0.5,127,69.0
3165,D4,344.5,0.5,127,69.0
3166,A3,344.5,0.5,127,69.0
3167,D3,344.5,0.5,127,69.0
3168,F#5,344.567,123/250,101,69.0
3169,A4,344.567,123/250,101,69.0
3170,E2,345.0,0.5,127,69.0
3171,E4,345.0,3.0,127,69.0
3172,E4,345.0,1.5,127,69.0
3173,C2,345.0,1.5,127,69.0
3174,A3,345.0,0.5,127,69.0
3175,E1,345.0,3.0,127,69.0
3176,E4,345.0,3.0,127,69.0
3177,B3,345.0,3.0,127,69.0
3178,G3,345.0,3.0,127,69.0
3179,E3,345.0,3.0,127,69.0
3180,B2,345.0,3.0,127,69.0
3181,E2,345.0,3.0,127,69.0
3182,F#5,345.058,1/125,101,69.0
3183,A4,345.058,1/125,101,69.0
3184,A4,345.067,0.25,127,69.0
3185,F#5,345.067,0.25,127,69.0
3186,B4,345.317,1371/500,127,69.0
3187,G5,345.317,1371/500,127,69.0
3188,G3,345.5,0.5,127,69.0
3189,F#2,345.5,0.5,127,69.0
3190,B3,346.0,0.5,127,69.0
3191,F#2,346.0,0.5,127,69.0
3192,E4,346.5,0.5,127,69.0
3193,F#4,346.5,1.5,127,69.0
3194,D2,346.5,0.5,127,69.0
3195,F#2,346.5,0.5,127,69.0
3196,B3,347.0,0.5,127,69.0
3197,F#2,347.0,0.5,127,69.0
3198,D2,347.0,0.5,127,69.0
3199,G3,347.5,0.5,127,69.0
3200,D2,347.5,0.5,127,69.0
3201,F#2,347.5,0.5,127,69.0
3202,E2,348.0,0.5,127,69.0
3203,E3,348.0,0.25,127,69.0
3204,G4,348.0,1.5,127,69.0
3205,E1,348.0,0.25,127,69.0
3206,D3,348.0,0.25,127,69.0
3207,D2,348.0,0.25,127,69.0
3208,B4,348.058,126/125,127,69.0
3209,G5,348.058,377/250,127,69.0
3210,E3,348.25,0.25,127,69.0
3211,E1,348.25,0.25,127,69.0
3212,D3,348.25,0.25,127,69.0
3213,D2,348.25,0.25,127,69.0
3214,G3,348.5,0.5,127,69.0
3215,E2,348.5,0.25,127,69.0
3216,E1,348.5,0.25,127,69.0
3217,D3,348.5,0.25,127,69.0
3218,D2,348.5,0.25,127,69.0
3219,E2,348.75,0.25,127,69.0
3220,E1,348.75,0.25,127,69.0
3221,D3,348.75,0.25,127,69.0
3222,D2,348.75,0.25,127,69.0
3223,B3,349.0,0.5,127,69.0
3224,E2,349.0,0.25,127,69.0
3225,E1,349.0,0.25,127,69.0
3226,D3,349.0,0.25,127,69.0
3227,D2,349.0,0.25,127,69.0
3228,E2,349.25,0.25,127,69.0
3229,E1,349.25,0.25,127,69.0
3230,D3,349.25,0.25,127,69.0
3231,D2,349.25,0.25,127,69.0
3232,E4,349.5,0.5,127,69.0
3233,A4,349.5,1.5,127,69.0
3234,E1,349.5,0.25,127,69.0
3235,B2,349.5,0.5,127,69.0
3236,E2,349.5,0.5,127,69.0
3237,G2,349.5,0.25,127,69.0
3238,D2,349.5,0.25,127,69.0
3239,G5,349.567,0.25,127,69.0
3240,E1,349.75,0.25,127,69.0
3241,G2,349.75,0.25,127,69.0
3242,D2,349.75,0.25,127,69.0
3243,G5,349.775,21/500,75,69.0
3244,G5,349.817,621/500,127,69.0
3245,B3,350.0,0.5,127,69.0
3246,E1,350.0,0.25,127,69.0
3247,E2,350.0,0.5,127,69.0
3248,B2,350.0,0.5,127,69.0
3249,G2,350.0,0.25,127,69.0
3250,D2,350.0,0.25,127,69.0
3251,E1,350.25,0.25,127,69.0
3252,G2,350.25,0.25,127,69.0
3253,D2,350.25,0.25,127,69.0
3254,G3,350.5,0.5,127,69.0
3255,E1,350.5,0.25,127,69.0
3256,E2,350.5,0.5,127,69.0
3257,B2,350.5,0.5,127,69.0
3258,G2,350.5,0.25,127,69.0
3259,D2,350.5,0.25,127,69.0
3260,E1,350.75,0.25,127,69.0
3261,G2,350.75,0.25,127,69.0
3262,D2,350.75,0.25,127,69.0
3263,C2,351.0,1.5,127,69.0
3264,A3,351.0,0.5,127,69.0
3265,E1,351.0,1.0,127,69.0
3266,B2,351.0,1.0,127,69.0
3267,E2,351.0,1.0,127,69.0
3268,D5,351.0,1.0,127,69.0
3269,A4,351.0,1.0,127,69.0
3270,G5,351.058,1/125,127,69.0
3271,F#2,351.5,0.5,127,69.0
3272,B2,352.0,0.25,127,69.0
3273,A4,352.0,0.5,127,69.0
3274,F#2,352.0,0.5,127,69.0
3275,E1,352.0,0.5,127,69.0
3276,E3,352.25,0.25,127,69.0
3277,G4,352.5,1.0,127,69.0
3278,E2,352.5,1.0,127,69.0
3279,B3,352.5,1.0,127,69.0
3280,E3,352.5,1.0,127,69.0
3281,D2,352.5,0.5,127,69.0
3282,F#2,352.5,0.5,127,69.0
3283,F#2,353.0,0.5,127,69.0
3284,A4,353.5,0.25,127,69.0
3285,F#2,353.5,0.5,127,69.0
3286,E2,353.5,0.5,127,69.0
3287,E3,353.5,0.5,127,69.0
3288,B3,353.5,0.5,127,69.0
3289,G4,353.75,0.25,127,69.0
3290,F#4,354.0,0.25,127,69.0
3291,C2,354.0,1.0,127,69.0
3292,F#2,354.0,0.5,127,69.0
3293,D2,354.0,1.0,127,69.0
3294,A3,354.0,1.0,127,69.0
3295,D3,354.0,1.0,127,69.0
3296,G4,354.25,0.25,127,69.0
3297,F#4,354.5,0.25,127,69.0
3298,F#2,354.5,0.5,127,69.0
3299,E4,354.75,0.25,127,69.0
3300,F#4,355.0,0.25,127,69.0
3301,F#2,355.0,0.5,127,69.0
3302,D2,355.0,0.5,127,69.0
3303,D3,355.0,0.5,127,69.0
3304,A3,355.0,0.5,127,69.0
3305,D4,355.25,0.25,127,69.0
3306,E4,355.5,0.75,127,69.0
3307,C2,355.5,1.0,127,69.0
3308,G3,355.5,1.0,127,69.0
3309,C3,355.5,1.0,127,69.0
3310,D2,355.5,0.5,127,69.0
3311,F#2,355.5,0.5,127,69.0
3312,F#2,356.0,0.25,127,69.0
3313,G4,356.25,0.25,127,69.0
3314,D2,356.25,0.25,127,69.0
3315,G2,356.5,0.25,127,69.0
3316,A4,356.5,0.25,127,69.0
3317,D2,356.5,0.25,127,69.0
3318,G1,356.5,0.25,127,69.0
3319,F#2,356.75,0.25,127,69.0
3320,G4,356.75,0.25,127,69.0
3321,D2,356.75,0.25,127,69.0
3322,F#1,356.75,0.25,127,69.0
3323,A4,357.0,0.25,127,69.0
3324,C2,357.0,1.5,127,69.0
3325,A3,357.0,0.5,127,69.0
3326,E1,357.0,1.0,127,69.0
3327,B2,357.0,1.0,127,69.0
3328,E2,357.0,1.0,127,69.0
3329,B4,357.25,0.25,127,69.0
3330,E5,357.5,0.25,127,69.0
3331,F#2,357.5,0.5,127,69.0
3332,A4,357.75,0.25,127,69.0
3333,B2,358.0,0.25,127,69.0
3334,B4,358.0,0.25,127,69.0
3335,F#2,358.0,0.5,127,69.0
3336,E1,358.0,0.5,127,69.0
3337,E3,358.25,0.25,127,69.0
3338,E5,358.25,0.25,127,69.0
3339,D5,358.5,0.25,127,69.0
3340,E2,358.5,1.0,127,69.0
3341,B3,358.5,1.0,127,69.0
3342,E3,358.5,1.0,127,69.0
3343,D2,358.5,0.5,127,69.0
3344,A3,358.5,0.5,127,69.0
3345,B4,358.75,0.25,127,69.0
3346,B-4,359.0,0.25,127,69.0
3347,F#2,359.0,0.5,127,69.0
3348,B4,359.25,0.25,127,69.0
3349,C2,359.25,0.25,127,69.0
3350,B-4,359.5,0.25,127,69.0
3351,E2,359.5,0.5,127,69.0
3352,E3,359.5,0.5,127,69.0
3353,B3,359.5,0.5,127,69.0
3354,D2,359.5,0.5,127,69.0
3355,F#2,359.5,0.5,127,69.0
3356,A4,359.75,0.25,127,69.0
3357,G4,360.0,0.625,127,69.0
3358,D2,360.0,1.0,127,69.0
3359,A3,360.0,1.0,127,69.0
3360,D3,360.0,1.0,127,69.0
3361,D2,360.0,0.5,127,69.0
3362,F#2,360.0,0.5,127,69.0
3363,F#2,360.5,0.5,127,69.0
3364,E4,360.625,0.125,127,69.0
3365,C2,360.75,0.25,127,69.0
3366,C#5,360.75,0.25,127,69.0
3367,A4,360.75,0.25,127,69.0
3368,D2,361.0,0.5,127,69.0
3369,D3,361.0,0.5,127,69.0
3370,A3,361.0,0.5,127,69.0
3371,D2,361.0,0.5,127,69.0
3372,F#2,361.0,0.5,127,69.0
3373,C#5,361.25,0.25,127,69.0
3374,A4,361.25,0.25,127,69.0
3375,C2,361.5,1.0,127,69.0
3376,G3,361.5,1.0,127,69.0
3377,C3,361.5,1.0,127,69.0
3378,C5,361.5,0.25,127,69.0
3379,G#4,361.5,0.25,127,69.0
3380,D2,361.5,0.5,127,69.0
3381,F#2,361.5,0.5,127,69.0
3382,G4,361.75,1.25,127,69.0
3383,F#2,362.0,0.25,127,69.0
3384,D2,362.25,0.25,127,69.0
3385,G2,362.5,0.25,127,69.0
3386,B2,362.5,0.25,127,69.0
3387,G1,362.5,0.25,127,69.0
3388,F#2,362.75,0.25,127,69.0
3389,B2,362.75,0.25,127,69.0
3390,F#1,362.75,0.25,127,69.0
3391,G5,363.0,0.5,127,69.0
3392,C2,363.0,1.5,127,69.0
3393,A3,363.0,0.5,127,69.0
3394,E1,363.0,1.0,127,69.0
3395,B2,363.0,1.0,127,69.0
3396,E2,363.0,1.0,127,69.0
3397,F#5,363.5,0.5,127,69.0
3398,F#2,363.5,0.5,127,69.0
3399,B2,364.0,0.25,127,69.0
3400,B4,364.0,0.5,127,69.0
3401,F#2,364.0,0.5,127,69.0
3402,E1,364.0,0.5,127,69.0
3403,E3,364.25,0.25,127,69.0
3404,G5,364.5,0.5,127,69.0
3405,E2,364.5,1.0,127,69.0
3406,B3,364.5,1.0,127,69.0
3407,E3,364.5,1.0,127,69.0
3408,D2,364.5,0.5,127,69.0
3409,A3,364.5,0.5,127,69.0
3410,F#5,365.0,0.375,127,69.0
3411,F#2,365.0,0.25,127,69.0
3412,D2,365.25,0.25,127,69.0
3413,G5,365.375,0.125,127,69.0
3414,A5,365.5,0.375,127,69.0
3415,B2,365.5,0.5,127,69.0
3416,E2,365.5,0.5,127,69.0
3417,E3,365.5,0.5,127,69.0
3418,B3,365.5,0.5,127,69.0
3419,A5,365.875,0.125,127,69.0
3420,G5,366.0,0.25,127,69.0
3421,D2,366.0,1.0,127,69.0
3422,A3,366.0,1.0,127,69.0
3423,D3,366.0,1.0,127,69.0
3424,B2,366.0,0.5,127,69.0
3425,D2,366.0,0.5,127,69.0
3426,F#5,366.25,0.25,127,69.0
3427,G5,366.333,83/1000,127,69.0
3428,F#5,366.417,83/1000,127,69.0
3429,E5,366.5,0.25,127,69.0
3430,B2,366.5,0.25,127,69.0
3431,B4,366.75,0.25,127,69.0
3432,D2,366.75,0.25,127,69.0
3433,G5,367.0,0.25,127,69.0
3434,B2,367.0,0.5,127,69.0
3435,D2,367.0,0.5,127,69.0
3436,D3,367.0,0.5,127,69.0
3437,A3,367.0,0.5,127,69.0
3438,F#5,367.25,0.25,127,69.0
3439,B4,367.5,0.75,127,69.0
3440,C2,367.5,1.0,127,69.0
3441,G3,367.5,1.0,127,69.0
3442,C3,367.5,1.0,127,69.0
3443,C3,367.5,0.5,127,69.0
3444,D2,367.5,0.5,127,69.0
3445,C3,368.0,0.25,127,69.0
3446,G4,368.25,0.25,127,69.0
3447,D2,368.25,0.25,127,69.0
3448,G2,368.5,0.25,127,69.0
3449,A4,368.5,0.25,127,69.0
3450,C3,368.5,0.5,127,69.0
3451,G1,368.5,0.25,127,69.0
3452,F#2,368.75,0.25,127,69.0
3453,G4,368.75,0.25,127,69.0
3454,F#1,368.75,0.25,127,69.0
3455,D5,369.0,333/1000,127,69.0
3456,A4,369.0,417/1000,127,69.0
3457,G1,369.0,1.5,127,69.0
3458,D3,369.0,1.5,127,69.0
3459,G2,369.0,1.5,127,69.0
3460,D2,369.0,0.5,127,69.0
3461,A3,369.0,0.5,127,69.0
3462,G4,369.417,83/1000,127,69.0
3463,E4,369.5,0.25,127,69.0
3464,F#2,369.5,0.5,127,69.0
3465,G4,369.75,0.25,127,69.0
3466,A4,370.0,0.25,127,69.0
3467,F#2,370.0,0.5,127,69.0
3468,B4,370.25,0.25,127,69.0
3469,E5,370.5,0.5,127,69.0
3470,B1,370.5,1.0,127,69.0
3471,F#3,370.5,1.5,127,69.0
3472,B2,370.5,1.5,127,69.0
3473,D2,370.5,0.5,127,69.0
3474,A3,370.5,0.5,127,69.0
3475,D5,371.0,0.25,127,69.0
3476,F#2,371.0,0.5,127,69.0
3477,D5,371.25,667/1000,127,69.0
3478,E1,371.5,0.5,127,69.0
3479,C2,371.5,0.5,127,69.0
3480,A3,371.5,0.5,127,69.0
3481,B4,371.917,83/1000,127,69.0
3482,E2,372.0,0.5,127,69.0
3483,D5,372.0,3.0,127,69.0
3484,C2,372.0,1.5,127,69.0
3485,A3,372.0,3.0,127,69.0
3486,E1,372.0,3.0,127,69.0
3487,B2,372.0,3.0,127,69.0
3488,E2,372.0,3.0,127,69.0
3489,G3,372.5,0.5,127,69.0
3490,B3,373.0,0.5,127,69.0
3491,E4,373.5,0.5,127,69.0
3492,B3,374.0,0.5,127,69.0
3493,G3,374.5,0.5,127,69.0
3494,E2,375.0,0.5,127,69.0
3495,D5,375.0,3.0,127,69.0
3496,E1,375.0,3.0,127,69.0
3497,G3,375.5,0.5,127,69.0
3498,B3,376.0,0.5,127,69.0
3499,E4,376.5,0.5,127,69.0
3500,B3,377.0,0.5,127,69.0
3501,G3,377.5,0.5,127,69.0
3502,E2,378.0,0.5,127,69.0
3503,B4,378.0,0.25,127,69.0
3504,E1,378.0,3.0,127,69.0
3505,D5,378.25,0.25,127,69.0
3506,G3,378.5,0.5,127,69.0
3507,B4,378.5,2.0,127,69.0
3508,B3,379.0,0.5,127,69.0
3509,E4,379.5,0.5,127,69.0
3510,B3,380.0,0.5,127,69.0
3511,G3,380.5,0.5,127,69.0
3512,F#4,380.5,0.5,127,69.0
3513,E2,381.0,0.5,127,69.0
3514,E4,381.0,0.25,127,69.0
3515,E1,381.0,3.0,127,69.0
3516,F#4,381.25,0.25,127,69.0
3517,G3,381.5,0.5,127,69.0
3518,E4,381.5,2.5,127,69.0
3519,B3,382.0,0.5,127,69.0
3520,E4,382.5,0.5,127,69.0
3521,B3,383.0,0.5,127,69.0
3522,G3,383.5,0.5,127,69.0
3523,E2,384.0,0.5,127,69.0
3524,E4,384.0,3.0,127,69.0
3525,E1,384.0,3.0,127,69.0
3526,B2,384.0,3.0,127,69.0
3527,E2,384.0,3.0,127,69.0
3528,G3,384.5,0.5,127,69.0
3529,B3,385.0,0.5,127,69.0
3530,D4,385.067,0.5,127,69.0
3531,G4,385.5,0.5,127,69.0
3532,E4,385.567,0.75,127,69.0
3533,G3,386.0,0.25,127,69.0
3534,E4,386.25,0.25,127,69.0
3535,E4,386.317,0.25,127,69.0
3536,B3,386.5,0.25,127,69.0
3537,E4,386.567,0.25,127,69.0
3538,G3,386.75,0.25,127,69.0
3539,E4,386.817,121/500,127,69.0
3540,F#4,387.0,0.75,127,69.0
3541,E1,387.0,3.0,127,69.0
3542,F#4,387.0,0.5,127,69.0
3543,D3,387.0,0.5,127,69.0
3544,E4,387.058,1/125,127,69.0
3545,F#4,387.067,0.25,127,69.0
3546,E4,387.317,0.25,127,69.0
3547,D3,387.5,0.25,127,69.0
3548,D4,387.567,0.25,127,69.0
3549,G4,387.75,0.25,127,69.0
3550,G4,387.75,0.75,127,69.0
3551,E4,387.817,1121/500,127,69.0
3552,D4,388.0,0.25,127,69.0
3553,G3,388.25,0.25,127,69.0
3554,E4,388.5,1.5,127,69.0
3555,E4,388.5,0.5,127,69.0
3556,C3,388.5,0.5,127,69.0
3557,D4,389.0,0.25,127,69.0
3558,G3,389.25,0.25,127,69.0
3559,G2,389.5,0.25,127,69.0
3560,F#2,389.75,0.25,127,69.0
3561,E2,390.0,0.5,127,69.0
3562,E4,390.0,3.0,127,69.0
3563,E4,390.058,1/125,127,69.0
3564,G3,390.5,0.5,127,69.0
3565,B3,391.0,0.5,127,69.0
3566,D4,391.067,0.25,127,69.0
3567,E4,391.317,0.25,127,69.0
3568,G4,391.5,0.5,127,69.0
3569,E4,391.567,0.5,127,69.0
3570,G3,392.0,0.25,127,69.0
3571,E4,392.067,0.5,127,69.0
3572,E4,392.25,0.25,127,69.0
3573,B3,392.5,0.25,127,69.0
3574,E4,392.567,0.25,127,69.0
3575,G3,392.75,0.25,127,69.0
3576,D4,392.817,121/500,127,69.0
3577,F#4,393.0,0.75,127,69.0
3578,D3,393.0,0.5,127,69.0
3579,F#4,393.0,0.5,127,69.0
3580,B2,393.0,3.0,127,69.0
3581,E2,393.0,3.0,127,69.0
3582,D4,393.058,1/125,127,69.0
3583,D4,393.067,0.5,127,69.0
3584,D3,393.5,0.25,127,69.0
3585,D4,393.567,0.5,127,69.0
3586,D4,393.75,0.25,127,69.0
3587,G4,393.75,0.75,127,69.0
3588,A3,394.0,0.25,127,69.0
3589,E4,394.067,0.25,127,69.0
3590,G3,394.25,0.25,127,69.0
3591,F#4,394.317,0.25,127,69.0
3592,D4,394.5,1.5,127,69.0
3593,D4,394.5,0.5,127,69.0
3594,C3,394.5,0.5,127,69.0
3595,G4,394.567,0.125,127,69.0
3596,F#4,394.692,0.125,127,69.0
3597,E4,394.817,621/500,127,69.0
3598,G3,395.0,0.25,127,69.0
3599,D4,395.25,0.25,127,69.0
3600,G2,395.5,0.25,127,69.0
3601,F#2,395.75,0.25,127,69.0
3602,E2,396.0,0.5,127,69.0
3603,D4,396.0,3.0,127,69.0
3604,E4,396.058,1/125,127,69.0
3605,G3,396.5,0.5,127,69.0
3606,B3,397.0,0.5,127,69.0
3607,F#4,397.317,0.25,127,69.0
3608,G4,397.5,0.5,127,69.0
3609,G4,397.567,0.25,127,69.0
3610,G4,397.817,0.5,127,69.0
3611,G3,398.0,0.25,127,69.0
3612,E4,398.25,0.25,127,69.0
3613,E4,398.317,0.5,127,69.0
3614,B3,398.5,0.25,127,69.0
3615,G3,398.75,0.25,127,69.0
3616,B3,398.817,121/500,127,69.0
3617,F#4,399.0,0.75,127,69.0
3618,D3,399.0,0.5,127,69.0
3619,F#4,399.0,0.5,127,69.0
3620,B2,399.0,3.0,127,69.0
3621,E2,399.0,3.0,127,69.0
3622,B3,399.058,1/125,127,69.0
3623,D4,399.067,0.5,127,69.0
3624,D3,399.5,0.25,127,69.0
3625,D4,399.567,0.25,127,69.0
3626,G4,399.75,0.25,127,69.0
3627,G4,399.75,0.75,127,69.0
3628,D4,399.817,1.75,127,69.0
3629,D4,400.0,0.25,127,69.0
3630,G3,400.25,0.25,127,69.0
3631,B4,400.5,1.5,127,69.0
3632,G4,400.5,0.5,127,69.0
3633,C3,400.5,0.5,127,69.0
3634,D4,401.0,0.5,127,69.0
3635,G3,401.5,0.5,127,69.0
3636,G2,402.0,0.5,127,69.0
3637,B4,402.0,3.0,127,69.0
3638,G3,402.5,0.5,127,69.0
3639,G4,403.0,0.5,127,69.0
3640,D4,403.0,0.5,127,69.0
3641,G4,403.067,0.5,127,69.0
3642,B2,403.5,0.75,127,69.0
3643,A3,403.5,0.75,127,69.0
3644,B3,403.5,0.75,127,69.0
3645,F#4,403.5,0.75,127,69.0
3646,F#4,403.567,0.5,127,69.0
3647,F#4,404.067,0.25,127,69.0
3648,B2,404.25,0.75,127,69.0
3649,B3,404.25,0.75,127,69.0
3650,A3,404.25,0.75,127,69.0
3651,F#4,404.25,0.75,127,69.0
3652,F#4,404.317,0.25,127,69.0
3653,G4,404.567,123/250,127,69.0
3654,B4,405.0,3.0,127,69.0
3655,E2,405.0,0.5,127,69.0
3656,C4,405.0,0.5,127,69.0
3657,G4,405.058,1/125,127,69.0
3658,F#4,405.067,0.25,127,69.0
3659,E4,405.317,1371/500,127,69.0
3660,G3,405.5,0.5,127,69.0
3661,B3,406.0,0.5,127,69.0
3662,E4,406.5,0.5,127,69.0
3663,B3,407.0,0.5,127,69.0
3664,G3,407.5,0.5,127,69.0
3665,E2,408.0,0.5,127,69.0
3666,B4,408.0,3.0,127,69.0
3667,E4,408.058,1/125,127,69.0
3668,G3,408.5,0.5,127,69.0
3669,B3,409.0,0.5,127,69.0
3670,E4,409.5,0.5,127,69.0
3671,B3,410.0,0.5,127,69.0
3672,B4,410.5,0.5,127,69.0
3673,E2,411.0,0.5,127,69.0
3674,B4,411.0,0.5,127,69.0
3675,B3,411.5,0.5,127,69.0
3676,G3,412.0,0.5,127,69.0
3677,B4,412.5,0.25,127,69.0
3678,E4,412.75,0.25,127,69.0
3679,B3,413.0,0.5,127,69.0
3680,G3,413.5,0.5,127,69.0
3681,E2,414.0,0.5,127,69.0
3682,G3,414.5,0.5,127,69.0
3683,B4,415.0,0.5,127,69.0
3684,B3,415.0,0.5,127,69.0
3685,B3,415.5,0.5,127,69.0
3686,C5,415.5,0.5,127,69.0
3687,B4,416.0,333/1000,127,69.0
3688,C5,416.333,83/1000,127,69.0
3689,B4,416.417,83/1000,127,69.0
3690,A4,416.5,0.25,127,69.0
3691,B3,416.75,0.5,127,69.0
3692,B4,416.75,0.5,127,69.0
3693,A4,417.25,0.25,127,69.0
3694,G4,417.5,0.25,127,69.0
3695,E4,417.75,0.5,127,69.0
3696,E2,418.25,0.5,127,69.0
3697,E4,418.25,0.5,127,69.0
3698,G3,418.75,0.5,127,69.0
3699,B3,419.25,0.5,127,69.0
3700,E4,419.75,0.5,127,69.0
3701,B3,420.25,0.5,127,69.0
3702,G3,420.75,0.5,127,69.0
3703,E2,421.25,0.5,127,69.0
3704,G3,421.75,0.5,127,69.0
3705,B3,422.25,0.5,127,69.0
3706,E4,422.75,0.5,127,69.0
3707,B3,423.25,0.5,127,69.0
3708,B4,423.75,0.5,127,69.0
3709,E2,424.25,0.5,127,69.0
3710,B4,424.25,0.5,127,69.0
3711,B3,424.75,0.5,127,69.0
3712,G3,425.25,0.5,127,69.0
3713,B4,425.75,0.25,127,69.0
3714,E4,426.0,0.25,127,69.0
3715,B3,426.25,0.5,127,69.0
3716,G3,426.75,0.5,127,69.0
3717,E2,427.25,0.5,127,69.0
3718,G3,427.75,0.5,127,69.0
3719,B4,428.25,0.5,127,69.0
3720,B3,428.25,0.5,127,69.0
3721,B3,428.75,0.5,127,69.0
3722,C5,428.75,0.5,127,69.0
3723,B4,429.25,333/1000,127,69.0
3724,C5,429.583,83/1000,127,69.0
3725,B4,429.667,83/1000,127,69.0
3726,A4,429.75,0.25,127,69.0
3727,B3,430.0,0.5,127,69.0
3728,B4,430.0,0.5,127,69.0
3729,A4,430.5,0.25,127,69.0
3730,G4,430.75,0.25,127,69.0
3731,E4,431.0,0.5,127,69.0
3732,E2,431.5,0.5,127,69.0
3733,E4,431.5,0.5,127,69.0
3734,G3,432.0,0.5,127,69.0
3735,B3,432.5,0.5,127,69.0
3736,E4,433.0,0.5,127,69.0
3737,B3,433.5,0.5,127,69.0
3738,G3,434.0,0.5,127,69.0
3739,E2,434.5,0.5,127,69.0
3740,G3,435.0,0.5,127,69.0
3741,B3,435.5,0.5,127,69.0
3742,E4,436.0,0.5,127,69.0
3743,B3,436.5,0.5,127,69.0
3744,B4,437.0,0.5,127,69.0
3745,E2,437.5,0.5,127,69.0
3746,B4,437.5,0.5,127,69.0
3747,B3,438.0,0.5,127,69.0
3748,G3,438.5,0.5,127,69.0
3749,B4,439.0,0.25,127,69.0
3750,E4,439.25,0.25,127,69.0
3751,B3,439.5,0.5,127,69.0
3752,G3,440.0,0.5,127,69.0
3753,E2,440.5,0.5,127,69.0
3754,G3,441.0,0.5,127,69.0
3755,B4,441.5,0.5,127,69.0
3756,B3,441.5,0.5,127,69.0
3757,B3,442.0,0.5,127,69.0
3758,C5,442.0,0.5,127,69.0
3759,B4,442.5,333/1000,127,69.0
3760,C5,442.833,83/1000,127,69.0
3761,B4,442.917,83/1000,127,69.0
3762,A4,443.0,0.25,127,69.0
3763,B3,443.25,0.5,127,69.0
3764,B4,443.25,0.5,127,69.0
3765,A4,443.75,0.25,127,69.0
3766,G4,444.0,0.25,127,69.0
3767,E4,444.25,0.5,127,69.0
3768,E2,444.75,0.5,127,69.0
3769,E4,444.75,0.5,127,69.0
3770,G3,445.25,0.5,127,69.0
3771,B3,445.75,0.5,127,69.0
3772,E4,446.25,0.5,127,69.0
3773,B3,446.75,0.5,127,69.0
3774,G3,447.25,0.5,127,69.0
3775,E2,447.75,0.5,127,69.0
3776,G3,448.25,0.5,127,69.0
3777,B3,448.75,0.5,127,69.0
3778,E4,449.25,0.5,127,69.0
3779,B3,449.75,0.5,127,69.0
3780,B4,450.25,0.5,127,69.0
