,note_name,start_time,duration,velocity,tempo
0,C#3,0.0,1.0,118,187.5
1,C2,0.0,0.703,112,187.5
2,G3,0.0,1.0,122,187.5
3,C#3,1.0,2.0,118,187.5
4,E2,1.0,267/250,113,187.5
5,E3,1.0,2.0,127,187.5
6,D4,1.0,0.5,122,187.5
7,E4,1.5,0.5,122,187.5
8,E3,2.0,0.5,122,187.5
9,E3,2.5,0.5,122,187.5
10,C#3,3.0,56/25,118,187.5
11,E3,3.0,213/100,127,187.5
12,E4,3.0,0.5,122,187.5
13,E3,3.5,0.5,122,187.5
14,D4,4.0,0.5,122,187.5
15,E4,4.5,0.5,122,187.5
16,E3,5.0,0.5,122,187.5
17,E3,5.5,0.5,122,187.5
18,E4,6.0,0.5,122,187.5
19,E3,6.5,0.5,122,187.5
20,G4,7.0,0.5,122,187.5
21,E4,7.5,0.5,122,187.5
22,E3,8.0,0.5,122,187.5
23,E3,8.5,0.5,122,187.5
24,B3,9.0,1.0,122,187.5
25,C4,10.0,1.0,122,187.5
26,E3,11.0,0.5,122,187.5
27,E3,11.5,0.5,122,187.5
28,A3,12.0,1.0,122,187.5
29,E3,13.0,0.5,122,187.5
30,E3,13.5,0.5,122,187.5
31,G4,14.0,1.0,122,187.5
32,C#3,15.0,3.0,118,187.5
33,E2,15.0,267/250,113,187.5
34,E3,15.0,3.0,127,187.5
35,D4,15.0,0.5,122,187.5
36,E4,15.5,0.5,122,187.5
37,E3,16.0,0.5,122,187.5
38,E3,16.5,0.5,122,187.5
39,E4,17.0,0.5,122,187.5
40,E3,17.5,0.5,122,187.5
41,C#3,18.0,31/25,118,187.5
42,E3,18.0,113/100,127,187.5
43,D4,18.0,0.5,122,187.5
44,E4,18.5,0.5,122,187.5
45,E3,19.0,0.5,122,187.5
46,E3,19.5,0.5,122,187.5
47,E4,20.0,0.5,122,187.5
48,E3,20.5,0.5,122,187.5
49,G4,21.0,0.5,122,187.5
50,E4,21.5,0.5,122,187.5
51,E3,22.0,0.5,122,187.5
52,E3,22.5,0.5,122,187.5
53,B3,23.0,1.0,122,187.5
54,C4,24.0,1.0,122,187.5
55,E3,25.0,0.5,122,187.5
56,E3,25.5,0.5,122,187.5
57,A3,26.0,1.0,122,187.5
58,E3,27.0,0.5,122,187.5
59,E3,27.5,0.5,122,187.5
60,E3,28.0,0.25,127,187.5
61,G4,28.0,1.0,122,187.5
62,E3,28.25,0.25,127,187.5
63,E3,28.5,0.25,127,187.5
64,E3,28.75,0.25,127,187.5
65,C#3,29.0,1.0,118,187.5
66,C2,29.0,0.703,112,187.5
67,D4,29.0,0.5,127,187.5
68,D4,29.0,0.5,122,187.5
69,E4,29.5,0.5,127,187.5
70,E4,29.5,0.5,122,187.5
71,C#3,30.0,3.0,118,187.5
72,E2,30.0,1.0,113,187.5
73,E3,30.0,0.5,127,187.5
74,E3,30.0,0.5,122,187.5
75,E3,30.5,0.5,127,187.5
76,E3,30.5,0.5,122,187.5
77,C2,31.0,0.703,112,187.5
78,E4,31.0,0.5,127,187.5
79,E4,31.0,0.5,122,187.5
80,E3,31.5,0.5,127,187.5
81,E3,31.5,0.5,122,187.5
82,E2,32.0,1.0,113,187.5
83,D4,32.0,0.5,127,187.5
84,D4,32.0,0.5,122,187.5
85,E4,32.5,0.5,127,187.5
86,E4,32.5,0.5,122,187.5
87,C#3,33.0,6/25,118,187.5
88,C2,33.0,0.703,112,187.5
89,E3,33.0,0.5,127,187.5
90,E3,33.0,0.5,122,187.5
91,E3,33.5,0.5,127,187.5
92,E3,33.5,0.5,122,187.5
93,E2,34.0,1.0,113,187.5
94,E4,34.0,0.5,127,187.5
95,E4,34.0,0.5,122,187.5
96,E3,34.5,0.5,127,187.5
97,E3,34.5,0.5,122,187.5
98,C2,35.0,0.703,112,187.5
99,G4,35.0,0.5,127,187.5
100,G4,35.0,0.5,122,187.5
101,E4,35.5,0.5,127,187.5
102,E4,35.5,0.5,122,187.5
103,E2,36.0,1.0,113,187.5
104,E3,36.0,0.5,127,187.5
105,E3,36.0,0.5,122,187.5
106,E3,36.5,0.5,127,187.5
107,E3,36.5,0.5,122,187.5
108,C#3,37.0,1.0,118,187.5
109,E2,37.0,1.0,113,187.5
110,B3,37.0,1.0,127,187.5
111,B3,37.0,1.0,122,187.5
112,C#3,38.0,1.0,118,187.5
113,E2,38.0,1.0,113,187.5
114,C4,38.0,1.0,127,187.5
115,C4,38.0,1.0,122,187.5
116,C#3,39.0,1.0,118,187.5
117,C2,39.0,0.703,112,187.5
118,E3,39.0,0.5,127,187.5
119,E3,39.0,0.5,122,187.5
120,E3,39.5,0.5,127,187.5
121,E3,39.5,0.5,122,187.5
122,C#3,40.0,2.0,118,187.5
123,E2,40.0,1.0,113,187.5
124,A3,40.0,1.0,127,187.5
125,A3,40.0,1.0,122,187.5
126,C2,41.0,0.703,112,187.5
127,E3,41.0,0.5,127,187.5
128,E3,41.0,0.5,122,187.5
129,E3,41.5,0.5,127,187.5
130,E3,41.5,0.5,122,187.5
131,C#3,42.0,3.0,118,187.5
132,E2,42.0,1.0,113,187.5
133,G4,42.0,1.0,127,187.5
134,G4,42.0,1.0,122,187.5
135,C2,43.0,0.703,112,187.5
136,D4,43.0,0.5,127,187.5
137,D4,43.0,0.5,122,187.5
138,E4,43.5,0.5,127,187.5
139,E4,43.5,0.5,122,187.5
140,E2,44.0,1.0,113,187.5
141,E3,44.0,0.5,127,187.5
142,E3,44.0,0.5,122,187.5
143,E3,44.5,0.5,127,187.5
144,E3,44.5,0.5,122,187.5
145,C#3,45.0,31/25,118,187.5
146,C2,45.0,0.703,112,187.5
147,E4,45.0,0.5,127,187.5
148,E4,45.0,0.5,122,187.5
149,E3,45.5,0.5,127,187.5
150,E3,45.5,0.5,122,187.5
151,E2,46.0,1.0,113,187.5
152,D4,46.0,0.5,127,187.5
153,D4,46.0,0.5,122,187.5
154,E4,46.5,0.5,127,187.5
155,E4,46.5,0.5,122,187.5
156,C2,47.0,0.703,112,187.5
157,E3,47.0,0.5,127,187.5
158,E3,47.0,0.5,122,187.5
159,E3,47.5,0.5,127,187.5
160,E3,47.5,0.5,122,187.5
161,E2,48.0,1.0,113,187.5
162,E4,48.0,0.5,127,187.5
163,E4,48.0,0.5,122,187.5
164,E3,48.5,0.5,127,187.5
165,E3,48.5,0.5,122,187.5
166,C2,49.0,0.703,112,187.5
167,G4,49.0,0.5,127,187.5
168,G4,49.0,0.5,122,187.5
169,E4,49.5,0.5,127,187.5
170,E4,49.5,0.5,122,187.5
171,E2,50.0,1.0,113,187.5
172,E3,50.0,0.5,127,187.5
173,E3,50.0,0.5,122,187.5
174,E3,50.5,0.5,127,187.5
175,E3,50.5,0.5,122,187.5
176,C#3,51.0,1.0,118,187.5
177,E2,51.0,1.0,113,187.5
178,B3,51.0,1.0,127,187.5
179,B3,51.0,1.0,122,187.5
180,C#3,52.0,2.0,118,187.5
181,E2,52.0,1.0,113,187.5
182,C4,52.0,1.0,127,187.5
183,C4,52.0,1.0,122,187.5
184,C2,53.0,0.703,112,187.5
185,E3,53.0,0.5,127,187.5
186,E3,53.0,0.5,122,187.5
187,E3,53.5,0.5,127,187.5
188,E3,53.5,0.5,122,187.5
189,C#3,54.0,2.0,118,187.5
190,E2,54.0,1.0,113,187.5
191,A3,54.0,1.0,127,187.5
192,A3,54.0,1.0,122,187.5
193,C2,55.0,0.703,112,187.5
194,E3,55.0,0.5,127,187.5
195,E3,55.0,0.5,122,187.5
196,E3,55.5,0.5,127,187.5
197,E3,55.5,0.5,122,187.5
198,C#3,56.0,1.0,118,187.5
199,E2,56.0,1.0,113,187.5
200,G4,56.0,1.0,127,187.5
201,G4,56.0,1.0,122,187.5
202,C#3,57.0,3.0,118,187.5
203,C2,57.0,0.703,112,187.5
204,D4,57.0,0.5,127,187.5
205,D4,57.0,0.5,122,187.5
206,E4,57.5,0.5,127,187.5
207,E4,57.5,0.5,122,187.5
208,E2,58.0,1.0,113,187.5
209,E3,58.0,0.5,127,187.5
210,E3,58.0,0.5,122,187.5
211,E3,58.5,0.5,127,187.5
212,E3,58.5,0.5,122,187.5
213,C2,59.0,0.703,112,187.5
214,E4,59.0,0.5,127,187.5
215,E4,59.0,0.5,122,187.5
216,E3,59.5,0.5,127,187.5
217,E3,59.5,0.5,122,187.5
218,C#3,60.0,6/25,118,187.5
219,E2,60.0,1.0,113,187.5
220,D4,60.0,0.5,127,187.5
221,D4,60.0,0.5,122,187.5
222,E4,60.5,0.5,127,187.5
223,E4,60.5,0.5,122,187.5
224,C2,61.0,0.703,112,187.5
225,E3,61.0,0.5,127,187.5
226,E3,61.0,0.5,122,187.5
227,E3,61.5,0.5,127,187.5
228,E3,61.5,0.5,122,187.5
229,E2,62.0,1.0,113,187.5
230,E4,62.0,0.5,127,187.5
231,E4,62.0,0.5,122,187.5
232,E3,62.5,0.5,127,187.5
233,E3,62.5,0.5,122,187.5
234,C2,63.0,0.703,112,187.5
235,G4,63.0,0.5,127,187.5
236,G4,63.0,0.5,122,187.5
237,E4,63.5,0.5,127,187.5
238,E4,63.5,0.5,122,187.5
239,E2,64.0,1.0,113,187.5
240,E3,64.0,0.5,127,187.5
241,E3,64.0,0.5,122,187.5
242,E3,64.5,0.5,127,187.5
243,E3,64.5,0.5,122,187.5
244,C#3,65.0,1.0,118,187.5
245,E2,65.0,1.0,113,187.5
246,B3,65.0,1.0,127,187.5
247,B3,65.0,1.0,122,187.5
248,C#3,66.0,2.0,118,187.5
249,E2,66.0,1.0,113,187.5
250,C4,66.0,1.0,127,187.5
251,C4,66.0,1.0,122,187.5
252,C2,67.0,0.703,112,187.5
253,E3,67.0,0.5,127,187.5
254,E3,67.0,0.5,122,187.5
255,E3,67.5,0.5,127,187.5
256,E3,67.5,0.5,122,187.5
257,C#3,68.0,1.0,118,187.5
258,E2,68.0,1.0,113,187.5
259,A3,68.0,1.0,127,187.5
260,A3,68.0,1.0,122,187.5
261,C#3,69.0,1.0,118,187.5
262,C2,69.0,0.703,112,187.5
263,E3,69.0,0.5,127,187.5
264,E3,69.0,0.5,122,187.5
265,E3,69.5,0.5,127,187.5
266,E3,69.5,0.5,122,187.5
267,C#3,70.0,2.0,118,187.5
268,E2,70.0,1.0,113,187.5
269,G4,70.0,1.0,127,187.5
270,G4,70.0,1.0,122,187.5
271,C2,71.0,0.703,112,187.5
272,D4,71.0,0.5,127,187.5
273,D4,71.0,0.5,122,187.5
274,E4,71.5,0.5,127,187.5
275,E4,71.5,0.5,122,187.5
276,C#3,72.0,56/25,118,187.5
277,E2,72.0,1.0,113,187.5
278,E3,72.0,0.5,127,187.5
279,E3,72.0,0.5,122,187.5
280,E3,72.5,0.5,127,187.5
281,E3,72.5,0.5,122,187.5
282,C2,73.0,0.703,112,187.5
283,E4,73.0,0.5,127,187.5
284,E4,73.0,0.5,122,187.5
285,E3,73.5,0.5,127,187.5
286,E3,73.5,0.5,122,187.5
287,E2,74.0,1.0,113,187.5
288,D4,74.0,0.5,127,187.5
289,D4,74.0,0.5,122,187.5
290,E4,74.5,0.5,127,187.5
291,E4,74.5,0.5,122,187.5
292,C2,75.0,0.703,112,187.5
293,E3,75.0,0.5,127,187.5
294,E3,75.0,0.5,122,187.5
295,E3,75.5,0.5,127,187.5
296,E3,75.5,0.5,122,187.5
297,E2,76.0,1.0,113,187.5
298,E4,76.0,0.5,127,187.5
299,E4,76.0,0.5,122,187.5
300,E3,76.5,0.5,127,187.5
301,E3,76.5,0.5,122,187.5
302,C2,77.0,0.703,112,187.5
303,G4,77.0,0.5,127,187.5
304,G4,77.0,0.5,122,187.5
305,E4,77.5,0.5,127,187.5
306,E4,77.5,0.5,122,187.5
307,E2,78.0,1.0,113,187.5
308,E3,78.0,0.5,127,187.5
309,E3,78.0,0.5,122,187.5
310,E3,78.5,0.5,127,187.5
311,E3,78.5,0.5,122,187.5
312,C#3,79.0,1.0,118,187.5
313,E2,79.0,1.0,113,187.5
314,B3,79.0,1.0,127,187.5
315,B3,79.0,1.0,122,187.5
316,C#3,80.0,1.0,118,187.5
317,E2,80.0,1.0,113,187.5
318,C4,80.0,1.0,127,187.5
319,C4,80.0,1.0,122,187.5
320,C#3,81.0,1.0,118,187.5
321,C2,81.0,0.703,112,187.5
322,E3,81.0,0.5,127,187.5
323,E3,81.0,0.5,122,187.5
324,E3,81.5,0.5,127,187.5
325,E3,81.5,0.5,122,187.5
326,C#3,82.0,2.0,118,187.5
327,E2,82.0,1.0,113,187.5
328,A3,82.0,1.0,127,187.5
329,A3,82.0,1.0,122,187.5
330,C2,83.0,0.703,112,187.5
331,E3,83.0,0.5,127,187.5
332,E3,83.0,0.5,122,187.5
333,E3,83.5,0.5,127,187.5
334,E3,83.5,0.5,122,187.5
335,C#3,84.0,3.0,118,187.5
336,E2,84.0,1.0,113,187.5
337,G4,84.0,1.0,127,187.5
338,G4,84.0,1.0,122,187.5
339,C2,85.0,0.703,112,187.5
340,D4,85.0,0.5,127,187.5
341,D4,85.0,0.5,122,187.5
342,E4,85.5,0.5,127,187.5
343,E4,85.5,0.5,122,187.5
344,E2,86.0,1.0,113,187.5
345,E3,86.0,0.5,127,187.5
346,E3,86.0,0.5,122,187.5
347,E3,86.5,0.5,127,187.5
348,E3,86.5,0.5,122,187.5
349,C#3,87.0,31/25,118,187.5
350,C2,87.0,0.703,112,187.5
351,E4,87.0,0.5,127,187.5
352,E4,87.0,0.5,122,187.5
353,E3,87.5,0.5,127,187.5
354,E3,87.5,0.5,122,187.5
355,E2,88.0,1.0,113,187.5
356,D4,88.0,0.5,127,187.5
357,D4,88.0,0.5,122,187.5
358,E4,88.5,0.5,127,187.5
359,E4,88.5,0.5,122,187.5
360,C2,89.0,0.703,112,187.5
361,E3,89.0,0.5,127,187.5
362,E3,89.0,0.5,122,187.5
363,E3,89.5,0.5,127,187.5
364,E3,89.5,0.5,122,187.5
365,E2,90.0,1.0,113,187.5
366,E4,90.0,0.5,127,187.5
367,E4,90.0,0.5,122,187.5
368,E3,90.5,0.5,127,187.5
369,E3,90.5,0.5,122,187.5
370,C2,91.0,0.703,112,187.5
371,G4,91.0,0.5,127,187.5
372,G4,91.0,0.5,122,187.5
373,E4,91.5,0.5,127,187.5
374,E4,91.5,0.5,122,187.5
375,E2,92.0,1.0,113,187.5
376,E3,92.0,0.5,127,187.5
377,E3,92.0,0.5,122,187.5
378,E3,92.5,0.5,127,187.5
379,E3,92.5,0.5,122,187.5
380,C#3,93.0,1.0,118,187.5
381,C2,93.0,0.703,112,187.5
382,B3,93.0,1.0,127,187.5
383,B3,93.0,1.0,122,187.5
384,C#3,94.0,2.0,118,187.5
385,E2,94.0,1.0,113,187.5
386,C4,94.0,1.0,127,187.5
387,C4,94.0,1.0,122,187.5
388,C2,95.0,0.703,112,187.5
389,E3,95.0,0.5,127,187.5
390,E3,95.0,0.5,122,187.5
391,E3,95.5,0.5,127,187.5
392,E3,95.5,0.5,122,187.5
393,C#3,96.0,2.0,118,187.5
394,E2,96.0,1.0,113,187.5
395,A3,96.0,1.0,127,187.5
396,A3,96.0,1.0,122,187.5
397,C2,97.0,0.703,112,187.5
398,E3,97.0,0.5,127,187.5
399,E3,97.0,0.5,122,187.5
400,E3,97.5,0.5,127,187.5
401,E3,97.5,0.5,122,187.5
402,C#3,98.0,1.0,118,187.5
403,E2,98.0,1.0,113,187.5
404,E4,98.0,1.0,127,187.5
405,E4,98.0,0.25,122,187.5
406,E4,98.25,0.25,122,187.5
407,E4,98.5,0.5,122,187.5
408,C#3,99.0,3.0,118,187.5
409,C2,99.0,0.703,112,187.5
410,E3,99.0,0.5,127,187.5
411,E3,99.0,0.5,122,187.5
412,E3,99.5,0.5,127,187.5
413,E3,99.5,0.5,122,187.5
414,E2,100.0,1.0,113,187.5
415,F#3,100.0,0.5,127,187.5
416,F#3,100.0,0.5,122,187.5
417,E3,100.5,0.5,127,187.5
418,E3,100.5,0.5,122,187.5
419,C2,101.0,0.703,112,187.5
420,E3,101.0,0.5,127,187.5
421,E3,101.0,0.5,122,187.5
422,G3,101.5,0.5,127,187.5
423,G3,101.5,0.5,122,187.5
424,C#3,102.0,31/25,118,187.5
425,E2,102.0,1.0,113,187.5
426,E3,102.0,0.5,127,187.5
427,E3,102.0,0.5,122,187.5
428,E3,102.5,0.5,127,187.5
429,E3,102.5,0.5,122,187.5
430,C2,103.0,0.703,112,187.5
431,F#3,103.0,0.5,127,187.5
432,F#3,103.0,0.5,122,187.5
433,E3,103.5,0.5,127,187.5
434,E3,103.5,0.5,122,187.5
435,E2,104.0,1.0,113,187.5
436,E3,104.0,0.5,127,187.5
437,E3,104.0,0.5,122,187.5
438,G3,104.5,0.5,127,187.5
439,G3,104.5,0.5,122,187.5
440,C2,105.0,0.703,112,187.5
441,E3,105.0,0.5,127,187.5
442,E3,105.0,0.5,122,187.5
443,E3,105.5,0.5,127,187.5
444,E3,105.5,0.5,122,187.5
445,E2,106.0,1.0,113,187.5
446,F#3,106.0,0.5,127,187.5
447,F#3,106.0,0.5,122,187.5
448,G3,106.5,0.5,127,187.5
449,G3,106.5,0.5,122,187.5
450,C#3,107.0,1.0,118,187.5
451,C2,107.0,0.703,112,187.5
452,E3,107.0,0.5,127,187.5
453,E3,107.0,0.5,122,187.5
454,E3,107.5,0.5,127,187.5
455,E3,107.5,0.5,122,187.5
456,C#3,108.0,3.0,118,187.5
457,E2,108.0,1.0,113,187.5
458,F#3,108.0,0.5,127,187.5
459,F#3,108.0,0.5,122,187.5
460,E3,108.5,0.5,127,187.5
461,E3,108.5,0.5,122,187.5
462,C2,109.0,0.703,112,187.5
463,E3,109.0,0.5,127,187.5
464,E3,109.0,0.5,122,187.5
465,G3,109.5,0.5,127,187.5
466,G3,109.5,0.5,122,187.5
467,E2,110.0,1.0,113,187.5
468,E3,110.0,0.5,127,187.5
469,E3,110.0,0.5,122,187.5
470,E3,110.5,0.5,127,187.5
471,E3,110.5,0.5,122,187.5
472,C#3,111.0,6/25,118,187.5
473,C2,111.0,0.703,112,187.5
474,F#3,111.0,0.5,127,187.5
475,F#3,111.0,0.5,122,187.5
476,E3,111.5,0.5,127,187.5
477,E3,111.5,0.5,122,187.5
478,E2,112.0,1.0,113,187.5
479,E3,112.0,0.5,127,187.5
480,E3,112.0,0.5,122,187.5
481,G3,112.5,0.5,127,187.5
482,G3,112.5,0.5,122,187.5
483,C2,113.0,0.703,112,187.5
484,E3,113.0,0.5,127,187.5
485,E3,113.0,0.5,122,187.5
486,E3,113.5,0.5,127,187.5
487,E3,113.5,0.5,122,187.5
488,E2,114.0,1.0,113,187.5
489,F#3,114.0,0.5,127,187.5
490,F#3,114.0,0.5,122,187.5
491,G3,114.5,0.5,127,187.5
492,G3,114.5,0.5,122,187.5
493,C#3,115.0,2.0,118,187.5
494,C2,115.0,0.703,112,187.5
495,E3,115.0,0.5,127,187.5
496,E3,115.0,0.5,122,187.5
497,E3,115.5,0.5,127,187.5
498,E3,115.5,0.5,122,187.5
499,E2,116.0,1.0,113,187.5
500,F#3,116.0,0.5,127,187.5
501,F#3,116.0,0.5,122,187.5
502,E3,116.5,0.5,127,187.5
503,E3,116.5,0.5,122,187.5
504,C#3,117.0,56/25,118,187.5
505,C2,117.0,0.703,112,187.5
506,E3,117.0,0.5,127,187.5
507,E3,117.0,0.5,122,187.5
508,G3,117.5,0.5,127,187.5
509,G3,117.5,0.5,122,187.5
510,E2,118.0,1.0,113,187.5
511,E3,118.0,0.5,127,187.5
512,E3,118.0,0.5,122,187.5
513,E3,118.5,0.5,127,187.5
514,E3,118.5,0.5,122,187.5
515,C2,119.0,0.703,112,187.5
516,F#3,119.0,0.5,127,187.5
517,F#3,119.0,0.5,122,187.5
518,E3,119.5,0.5,127,187.5
519,E3,119.5,0.5,122,187.5
520,E2,120.0,1.0,113,187.5
521,E3,120.0,0.5,127,187.5
522,E3,120.0,0.5,122,187.5
523,G3,120.5,0.5,127,187.5
524,G3,120.5,0.5,122,187.5
525,C2,121.0,0.703,112,187.5
526,E3,121.0,0.5,127,187.5
527,E3,121.0,0.5,122,187.5
528,E3,121.5,0.5,127,187.5
529,E3,121.5,0.5,122,187.5
530,E2,122.0,1.0,113,187.5
531,F#3,122.0,0.5,127,187.5
532,F#3,122.0,0.5,122,187.5
533,G3,122.5,0.5,127,187.5
534,G3,122.5,0.5,122,187.5
535,C#3,123.0,3.0,118,187.5
536,C2,123.0,0.703,112,187.5
537,E3,123.0,0.5,127,187.5
538,E3,123.0,0.5,122,187.5
539,E3,123.5,0.5,127,187.5
540,E3,123.5,0.5,122,187.5
541,E2,124.0,1.0,113,187.5
542,F#3,124.0,0.5,127,187.5
543,F#3,124.0,0.5,122,187.5
544,E3,124.5,0.5,127,187.5
545,E3,124.5,0.5,122,187.5
546,C2,125.0,0.703,112,187.5
547,E3,125.0,0.5,127,187.5
548,E3,125.0,0.5,122,187.5
549,G3,125.5,0.5,127,187.5
550,G3,125.5,0.5,122,187.5
551,C#3,126.0,31/25,118,187.5
552,E2,126.0,1.0,113,187.5
553,E3,126.0,0.5,127,187.5
554,E3,126.0,0.5,122,187.5
555,E3,126.5,0.5,127,187.5
556,E3,126.5,0.5,122,187.5
557,C2,127.0,0.703,112,187.5
558,F#3,127.0,0.5,127,187.5
559,F#3,127.0,0.5,122,187.5
560,E3,127.5,0.5,127,187.5
561,E3,127.5,0.5,122,187.5
562,E2,128.0,1.0,113,187.5
563,E3,128.0,0.5,127,187.5
564,E3,128.0,0.5,122,187.5
565,G3,128.5,0.5,127,187.5
566,G3,128.5,0.5,122,187.5
567,C2,129.0,0.703,112,187.5
568,E3,129.0,0.5,127,187.5
569,E3,129.0,0.5,122,187.5
570,E3,129.5,0.5,127,187.5
571,E3,129.5,0.5,122,187.5
572,E2,130.0,1.0,113,187.5
573,C4,130.0,0.5,127,187.5
574,C4,130.0,0.5,122,187.5
575,B3,130.5,0.5,127,187.5
576,B3,130.5,0.5,122,187.5
577,C2,131.0,0.703,112,187.5
578,E3,131.0,0.5,127,187.5
579,E5,131.0,0.5,113,187.5
580,E3,131.0,0.5,122,187.5
581,E3,131.5,0.5,127,187.5
582,E5,131.5,0.5,113,187.5
583,E3,131.5,0.5,122,187.5
584,E2,132.0,1.0,113,187.5
585,F#3,132.0,0.5,127,187.5
586,E5,132.0,1.0,113,187.5
587,F#3,132.0,0.5,122,187.5
588,E3,132.5,0.5,127,187.5
589,E3,132.5,0.5,122,187.5
590,C2,133.0,0.703,112,187.5
591,E3,133.0,0.5,127,187.5
592,E5,133.0,1.375,113,187.5
593,E3,133.0,0.5,122,187.5
594,G3,133.5,0.5,127,187.5
595,G3,133.5,0.5,122,187.5
596,E2,134.0,1.0,113,187.5
597,E3,134.0,0.5,127,187.5
598,E3,134.0,0.5,122,187.5
599,E3,134.5,0.5,127,187.5
600,E3,134.5,0.5,122,187.5
601,C2,135.0,0.703,112,187.5
602,F#3,135.0,0.5,127,187.5
603,E5,135.0,0.5,113,187.5
604,F#3,135.0,0.5,122,187.5
605,E3,135.5,0.5,127,187.5
606,E5,135.5,0.5,113,187.5
607,E3,135.5,0.5,122,187.5
608,E2,136.0,1.0,113,187.5
609,E3,136.0,0.5,127,187.5
610,E5,136.0,1.0,113,187.5
611,E3,136.0,0.5,122,187.5
612,G3,136.5,0.5,127,187.5
613,G3,136.5,0.5,122,187.5
614,C2,137.0,0.703,112,187.5
615,E3,137.0,0.5,127,187.5
616,G5,137.0,0.5,113,187.5
617,E3,137.0,0.5,122,187.5
618,E3,137.5,0.5,127,187.5
619,E5,137.5,0.5,113,187.5
620,B3,137.5,0.5,122,187.5
621,E3,137.5,0.5,122,187.5
622,E2,138.0,1.0,113,187.5
623,F#3,138.0,0.5,127,187.5
624,E5,138.0,0.875,113,187.5
625,F#3,138.0,0.5,122,187.5
626,B3,138.0,1.0,122,187.5
627,G3,138.5,0.5,122,187.5
628,B3,138.5,0.5,127,187.5
629,G3,138.5,0.5,127,187.5
630,C2,139.0,0.703,112,187.5
631,E3,139.0,0.5,127,187.5
632,E5,139.0,0.5,113,187.5
633,E3,139.0,0.5,122,187.5
634,E3,139.5,0.5,127,187.5
635,E5,139.5,0.5,113,187.5
636,E3,139.5,0.5,122,187.5
637,E2,140.0,1.0,113,187.5
638,F#3,140.0,0.5,127,187.5
639,E5,140.0,0.5,113,187.5
640,F#3,140.0,0.5,122,187.5
641,E3,140.5,0.5,127,187.5
642,E5,140.5,0.5,113,187.5
643,E3,140.5,0.5,122,187.5
644,C2,141.0,0.703,112,187.5
645,E3,141.0,0.5,127,187.5
646,E5,141.0,0.5,113,187.5
647,E3,141.0,0.5,122,187.5
648,G3,141.5,0.5,127,187.5
649,E5,141.5,1.0,113,187.5
650,G3,141.5,0.5,122,187.5
651,E2,142.0,1.0,113,187.5
652,E3,142.0,0.5,127,187.5
653,E3,142.0,0.5,122,187.5
654,E3,142.5,0.5,127,187.5
655,E5,142.5,1.0,113,187.5
656,E3,142.5,0.5,122,187.5
657,C2,143.0,0.703,112,187.5
658,F#3,143.0,0.5,127,187.5
659,F#3,143.0,0.5,122,187.5
660,E3,143.5,0.5,127,187.5
661,E5,143.5,0.5,113,187.5
662,E3,143.5,0.5,122,187.5
663,E2,144.0,1.0,113,187.5
664,E3,144.0,0.5,127,187.5
665,E5,144.0,0.5,113,187.5
666,E3,144.0,0.5,122,187.5
667,G3,144.5,0.5,127,187.5
668,E5,144.5,0.5,113,187.5
669,G3,144.5,0.5,122,187.5
670,C2,145.0,0.703,112,187.5
671,G3,145.0,2.0,127,187.5
672,E3,145.0,0.5,127,187.5
673,D5,145.0,771/500,113,187.5
674,E3,145.0,0.5,122,187.5
675,G3,145.0,2.0,122,187.5
676,E3,145.5,0.5,127,187.5
677,E3,145.5,0.5,122,187.5
678,E2,146.0,1.0,113,187.5
679,C4,146.0,0.5,127,187.5
680,C4,146.0,0.5,122,187.5
681,B3,146.5,0.5,127,187.5
682,D5,146.5,0.5,113,187.5
683,B3,146.5,0.5,122,187.5
684,C2,147.0,0.703,112,187.5
685,E3,147.0,0.5,127,187.5
686,E5,147.0,0.5,113,187.5
687,E3,147.0,0.5,122,187.5
688,E3,147.5,0.5,127,187.5
689,E5,147.5,0.5,113,187.5
690,E3,147.5,0.5,122,187.5
691,E2,148.0,1.0,113,187.5
692,F#3,148.0,0.5,127,187.5
693,E5,148.0,1.0,113,187.5
694,F#3,148.0,0.5,122,187.5
695,E3,148.5,0.5,127,187.5
696,E3,148.5,0.5,122,187.5
697,C2,149.0,0.703,112,187.5
698,E3,149.0,0.5,127,187.5
699,E5,149.0,1.0,113,187.5
700,E3,149.0,0.5,122,187.5
701,G3,149.5,0.5,127,187.5
702,G3,149.5,0.5,122,187.5
703,E2,150.0,1.0,113,187.5
704,E3,150.0,0.5,127,187.5
705,E5,150.0,0.375,113,187.5
706,E3,150.0,0.5,122,187.5
707,E3,150.5,0.5,127,187.5
708,E5,150.5,1.0,113,187.5
709,E3,150.5,0.5,122,187.5
710,C2,151.0,0.703,112,187.5
711,F#3,151.0,0.5,127,187.5
712,F#3,151.0,0.5,122,187.5
713,E3,151.5,0.5,127,187.5
714,E5,151.5,0.5,113,187.5
715,E3,151.5,0.5,122,187.5
716,E2,152.0,1.0,113,187.5
717,E3,152.0,0.5,127,187.5
718,E5,152.0,1.0,113,187.5
719,E3,152.0,0.5,122,187.5
720,G3,152.5,0.5,127,187.5
721,G3,152.5,0.5,122,187.5
722,C2,153.0,0.703,112,187.5
723,E3,153.0,0.5,127,187.5
724,G5,153.0,0.5,113,187.5
725,E3,153.0,0.5,122,187.5
726,E3,153.5,0.5,127,187.5
727,E5,153.5,1.375,113,187.5
728,B3,153.5,1.5,122,187.5
729,E3,153.5,0.5,122,187.5
730,E2,154.0,1.0,113,187.5
731,F#3,154.0,0.5,127,187.5
732,F#3,154.0,0.5,122,187.5
733,E5,154.5,0.5,113,187.5
734,G3,154.5,0.5,122,187.5
735,G3,154.5,0.5,127,187.5
736,G3,154.5,0.5,127,187.5
737,C2,155.0,0.703,112,187.5
738,E3,155.0,0.5,127,187.5
739,E3,155.0,0.5,122,187.5
740,E3,155.5,0.5,127,187.5
741,E5,155.5,0.5,113,187.5
742,E3,155.5,0.5,122,187.5
743,E2,156.0,1.0,113,187.5
744,F#3,156.0,0.5,127,187.5
745,E5,156.0,0.5,113,187.5
746,F#3,156.0,0.5,122,187.5
747,E3,156.5,0.5,127,187.5
748,E5,156.5,1.0,113,187.5
749,E3,156.5,0.5,122,187.5
750,C2,157.0,0.703,112,187.5
751,E3,157.0,0.5,127,187.5
752,E3,157.0,0.5,122,187.5
753,G3,157.5,0.5,127,187.5
754,E5,157.5,1.0,113,187.5
755,G3,157.5,0.5,122,187.5
756,E2,158.0,1.0,113,187.5
757,E3,158.0,0.5,127,187.5
758,E3,158.0,0.5,122,187.5
759,E3,158.5,0.5,127,187.5
760,E5,158.5,0.5,113,187.5
761,E3,158.5,0.5,122,187.5
762,C2,159.0,0.703,112,187.5
763,F#3,159.0,0.5,127,187.5
764,E5,159.0,0.5,113,187.5
765,F#3,159.0,0.5,122,187.5
766,E3,159.5,0.5,127,187.5
767,E5,159.5,1.0,113,187.5
768,E3,159.5,0.5,122,187.5
769,E2,160.0,1.0,113,187.5
770,E3,160.0,0.5,127,187.5
771,E3,160.0,0.5,122,187.5
772,G3,160.5,0.5,127,187.5
773,E5,160.5,0.5,113,187.5
774,G3,160.5,0.5,122,187.5
775,C2,161.0,0.703,112,187.5
776,G3,161.0,1.0,127,187.5
777,E3,161.0,0.5,127,187.5
778,D5,161.0,1.0,113,187.5
779,E3,161.0,0.5,122,187.5
780,G3,161.0,1.0,122,187.5
781,E3,161.5,0.5,127,187.5
782,E3,161.5,0.5,122,187.5
783,E2,162.0,1.0,113,187.5
784,C4,162.0,0.5,127,187.5
785,G3,162.0,1.0,127,187.5
786,D5,162.0,271/500,113,187.5
787,C4,162.0,0.5,122,187.5
788,G3,162.0,1.0,122,187.5
789,B3,162.5,2.5,127,187.5
790,D5,162.5,0.5,113,187.5
791,B3,162.5,0.5,122,187.5
792,A3,163.0,1.0,91,187.5
793,C2,163.0,0.703,112,187.5
794,A3,163.0,1.0,127,187.5
795,A3,164.0,1.0,91,187.5
796,E2,164.0,1.0,113,187.5
797,A3,164.0,1.0,127,187.5
798,A3,165.0,0.5,91,187.5
799,C2,165.0,0.703,112,187.5
800,A3,165.0,0.5,127,187.5
801,B3,165.0,51/200,127,187.5
802,C4,165.5,0.5,91,187.5
803,C4,165.5,0.5,127,187.5
804,B3,166.0,0.5,91,187.5
805,E2,166.0,1.0,113,187.5
806,B3,166.0,0.5,127,187.5
807,D5,166.0,0.5,113,187.5
808,D5,166.0,0.5,113,187.5
809,B3,166.0,0.5,122,187.5
810,B3,166.0,0.5,122,187.5
811,C4,166.5,1.5,91,187.5
812,C4,166.5,1.5,127,187.5
813,C2,167.0,0.703,112,187.5
814,E5,167.5,0.5,113,187.5
815,C4,168.0,0.5,91,187.5
816,E2,168.0,1.0,113,187.5
817,C4,168.0,0.5,127,187.5
818,E5,168.0,0.5,113,187.5
819,C4,168.5,0.5,91,187.5
820,C4,168.5,0.5,127,187.5
821,E5,168.5,0.5,113,187.5
822,B3,169.0,0.5,91,187.5
823,C2,169.0,0.5,112,187.5
824,B3,169.0,0.5,127,187.5
825,D5,169.0,0.5,113,187.5
826,C4,169.5,0.5,91,187.5
827,C2,169.5,0.5,112,187.5
828,C4,169.5,0.5,127,187.5
829,E5,169.5,1.375,113,187.5
830,D5,169.5,0.5,113,187.5
831,D5,169.5,0.5,113,187.5
832,B3,169.5,0.5,122,187.5
833,B3,169.5,0.5,122,187.5
834,B3,170.0,1.0,91,187.5
835,E2,170.0,0.5,113,187.5
836,B3,170.0,1.0,127,187.5
837,E2,170.5,0.5,113,187.5
838,A3,171.0,1.0,91,187.5
839,C2,171.0,0.703,112,187.5
840,A3,171.0,1.0,127,187.5
841,A3,172.0,1.0,91,187.5
842,E2,172.0,1.0,113,187.5
843,A3,172.0,1.0,127,187.5
844,A3,173.0,0.5,91,187.5
845,C2,173.0,0.703,112,187.5
846,A3,173.0,0.5,127,187.5
847,C4,173.5,0.5,91,187.5
848,C4,173.5,0.5,127,187.5
849,E5,173.5,0.5,113,187.5
850,B3,174.0,0.5,91,187.5
851,E2,174.0,1.0,113,187.5
852,B3,174.0,0.5,127,187.5
853,E5,174.0,1.0,113,187.5
854,D5,174.0,0.5,113,187.5
855,D5,174.0,0.5,113,187.5
856,B3,174.0,0.5,122,187.5
857,B3,174.0,0.5,122,187.5
858,C4,174.5,1.5,91,187.5
859,C4,174.5,1.5,127,187.5
860,C2,175.0,0.703,112,187.5
861,G5,175.0,0.5,113,187.5
862,E5,175.5,1.0,113,187.5
863,C4,176.0,0.5,91,187.5
864,E2,176.0,1.0,113,187.5
865,C4,176.0,0.5,127,187.5
866,C4,176.5,0.5,91,187.5
867,C4,176.5,0.5,127,187.5
868,E5,176.5,0.5,113,187.5
869,B3,177.0,0.5,91,187.5
870,C2,177.0,0.703,112,187.5
871,B3,177.0,0.5,127,187.5
872,B3,177.0,2.0,127,187.5
873,D5,177.0,1.0,113,187.5
874,C4,177.5,0.5,91,187.5
875,C4,177.5,0.5,127,187.5
876,D5,177.5,0.5,113,187.5
877,D5,177.5,521/500,113,187.5
878,B3,177.5,0.5,122,187.5
879,B3,177.5,0.5,122,187.5
880,D4,178.0,1.0,91,187.5
881,E2,178.0,1.0,113,187.5
882,D4,178.0,2.0,127,187.5
883,A3,179.0,1.0,91,187.5
884,C2,179.0,0.703,112,187.5
885,A3,179.0,1.0,127,187.5
886,A3,180.0,1.0,91,187.5
887,E2,180.0,1.0,113,187.5
888,A3,180.0,1.0,127,187.5
889,D4,180.0,159/500,127,187.5
890,A3,181.0,0.5,91,187.5
891,C2,181.0,0.703,112,187.5
892,A3,181.0,0.5,127,187.5
893,C4,181.5,0.5,91,187.5
894,C4,181.5,0.5,127,187.5
895,B3,182.0,0.5,91,187.5
896,E2,182.0,1.0,113,187.5
897,B3,182.0,0.5,127,187.5
898,B3,182.0,0.5,122,187.5
899,D5,182.0,0.5,113,187.5
900,D5,182.0,0.5,113,187.5
901,C4,182.5,0.5,91,187.5
902,C4,182.5,0.5,127,187.5
903,E5,182.5,0.5,113,187.5
904,C4,183.0,1.0,91,187.5
905,C2,183.0,0.703,112,187.5
906,C4,183.0,1.0,127,187.5
907,E5,183.0,0.5,113,187.5
908,E5,183.5,1.0,113,187.5
909,C4,184.0,0.5,91,187.5
910,E2,184.0,1.0,113,187.5
911,C4,184.0,0.5,127,187.5
912,C4,184.5,0.5,91,187.5
913,C4,184.5,0.5,127,187.5
914,D5,184.5,1.0,113,187.5
915,B3,185.0,0.5,91,187.5
916,C2,185.0,0.5,112,187.5
917,B3,185.0,0.5,127,187.5
918,C4,185.5,0.5,91,187.5
919,C2,185.5,0.5,112,187.5
920,C4,185.5,0.5,127,187.5
921,E5,185.5,0.5,113,187.5
922,B3,185.5,0.5,122,187.5
923,D5,185.5,0.5,113,187.5
924,D5,185.5,0.5,113,187.5
925,B3,186.0,1.0,91,187.5
926,E2,186.0,0.5,113,187.5
927,B3,186.0,1.0,127,187.5
928,E5,186.0,0.875,113,187.5
929,E2,186.5,0.5,113,187.5
930,A3,187.0,1.0,91,187.5
931,C2,187.0,0.703,112,187.5
932,A3,187.0,1.0,127,187.5
933,A3,188.0,1.0,91,187.5
934,E2,188.0,1.0,113,187.5
935,A3,188.0,1.0,127,187.5
936,A3,189.0,0.5,91,187.5
937,C2,189.0,0.703,112,187.5
938,A3,189.0,0.5,127,187.5
939,C4,189.5,0.5,91,187.5
940,C4,189.5,0.5,127,187.5
941,D5,189.5,0.5,113,187.5
942,B3,190.0,0.5,91,187.5
943,E2,190.0,1.0,113,187.5
944,B3,190.0,0.5,127,187.5
945,B3,190.0,0.5,122,187.5
946,D5,190.0,0.5,113,187.5
947,E5,190.0,0.5,113,187.5
948,D5,190.0,0.5,113,187.5
949,C4,190.5,1.5,91,187.5
950,C4,190.5,1.5,127,187.5
951,D5,190.5,0.5,113,187.5
952,C2,191.0,0.703,112,187.5
953,E5,191.0,1.0,113,187.5
954,C4,192.0,0.5,91,187.5
955,E2,192.0,1.0,113,187.5
956,C4,192.0,0.5,127,187.5
957,E5,192.0,0.375,113,187.5
958,C4,192.5,0.5,91,187.5
959,C4,192.5,0.5,127,187.5
960,B3,193.0,0.5,91,187.5
961,B2,193.0,0.25,127,187.5
962,B3,193.0,0.5,127,187.5
963,B2,193.25,0.25,127,187.5
964,C4,193.5,0.5,91,187.5
965,B2,193.5,0.25,127,187.5
966,C4,193.5,0.5,127,187.5
967,B3,193.5,0.5,122,187.5
968,D5,193.5,0.5,113,187.5
969,D5,193.5,0.5,113,187.5
970,B2,193.75,0.25,127,187.5
971,D4,194.0,1.0,91,187.5
972,B2,194.0,0.25,127,187.5
973,D4,194.0,1.0,127,187.5
974,E5,194.0,0.5,113,187.5
975,B2,194.25,0.25,127,187.5
976,B2,194.5,0.25,127,187.5
977,G5,194.5,0.5,113,187.5
978,B2,194.75,0.25,127,187.5
979,C#3,195.0,1.0,118,187.5
980,C2,195.0,0.703,112,187.5
981,G5,195.0,0.5,113,187.5
982,D4,195.0,0.5,122,187.5
983,C4,195.5,0.5,91,187.5
984,D5,195.5,0.5,113,187.5
985,E5,195.5,1.375,113,187.5
986,E4,195.5,0.5,122,187.5
987,E2,196.0,1.0,113,187.5
988,E3,196.0,0.5,127,187.5
989,E3,196.0,0.5,122,187.5
990,E3,196.5,0.5,127,187.5
991,E3,196.5,0.5,122,187.5
992,C2,197.0,0.703,112,187.5
993,E4,197.0,0.5,127,187.5
994,E4,197.0,0.5,122,187.5
995,E3,197.5,0.5,127,187.5
996,E3,197.5,0.5,122,187.5
997,E2,198.0,1.0,113,187.5
998,D4,198.0,0.5,127,187.5
999,D4,198.0,0.5,122,187.5
1000,C4,198.5,0.5,91,187.5
1001,E4,198.5,0.5,127,187.5
1002,E4,198.5,0.5,122,187.5
1003,D5,198.5,0.5,113,187.5
1004,D5,198.5,0.5,113,187.5
1005,C2,199.0,0.703,112,187.5
1006,E3,199.0,0.5,127,187.5
1007,E3,199.0,0.5,122,187.5
1008,E3,199.5,0.5,127,187.5
1009,E3,199.5,0.5,122,187.5
1010,E2,200.0,1.0,113,187.5
1011,E4,200.0,0.5,127,187.5
1012,E4,200.0,0.5,122,187.5
1013,E3,200.5,0.5,127,187.5
1014,E3,200.5,0.5,122,187.5
1015,C2,201.0,0.5,112,187.5
1016,G4,201.0,0.5,127,187.5
1017,G4,201.0,0.5,122,187.5
1018,C4,201.5,0.5,91,187.5
1019,C2,201.5,0.5,112,187.5
1020,E4,201.5,0.5,127,187.5
1021,E4,201.5,0.5,122,187.5
1022,D5,201.5,0.5,113,187.5
1023,D5,201.5,0.5,113,187.5
1024,E2,202.0,0.5,113,187.5
1025,E3,202.0,0.5,127,187.5
1026,E3,202.0,0.5,122,187.5
1027,E2,202.5,0.5,113,187.5
1028,E3,202.5,0.5,127,187.5
1029,E3,202.5,0.5,122,187.5
1030,C2,203.0,0.703,112,187.5
1031,B3,203.0,1.0,127,187.5
1032,B3,203.0,1.0,122,187.5
1033,E2,204.0,1.0,113,187.5
1034,C4,204.0,1.0,127,187.5
1035,C4,204.0,1.0,122,187.5
1036,C2,205.0,0.5,112,187.5
1037,E3,205.0,0.5,127,187.5
1038,E3,205.0,0.5,122,187.5
1039,C2,205.5,0.5,112,187.5
1040,E3,205.5,0.5,127,187.5
1041,E3,205.5,0.5,122,187.5
1042,E2,206.0,1.0,113,187.5
1043,A3,206.0,1.0,127,187.5
1044,A3,206.0,1.0,122,187.5
1045,C2,207.0,0.5,112,187.5
1046,E3,207.0,0.5,127,187.5
1047,E3,207.0,0.5,122,187.5
1048,C2,207.5,0.5,112,187.5
1049,E3,207.5,0.5,127,187.5
1050,E3,207.5,0.5,122,187.5
1051,E2,208.0,1.0,113,187.5
1052,G4,208.0,1.0,127,187.5
1053,G4,208.0,1.0,122,187.5
1054,C2,209.0,0.703,112,187.5
1055,D4,209.0,0.5,127,187.5
1056,D4,209.0,0.5,122,187.5
1057,C4,209.5,0.5,91,187.5
1058,E4,209.5,0.5,127,187.5
1059,D5,209.5,0.5,113,187.5
1060,E4,209.5,0.5,122,187.5
1061,E2,210.0,1.0,113,187.5
1062,E3,210.0,0.5,127,187.5
1063,E5,210.0,0.5,113,187.5
1064,E3,210.0,0.5,122,187.5
1065,E3,210.5,0.5,127,187.5
1066,G5,210.5,1.0,113,187.5
1067,E3,210.5,0.5,122,187.5
1068,C2,211.0,0.703,112,187.5
1069,E4,211.0,0.5,127,187.5
1070,E4,211.0,0.5,122,187.5
1071,E3,211.5,0.5,127,187.5
1072,E5,211.5,1.375,113,187.5
1073,E3,211.5,0.5,122,187.5
1074,E2,212.0,1.0,113,187.5
1075,D4,212.0,0.5,127,187.5
1076,D4,212.0,0.5,122,187.5
1077,C4,212.5,0.5,91,187.5
1078,E4,212.5,0.5,127,187.5
1079,E4,212.5,0.5,122,187.5
1080,D5,212.5,0.5,113,187.5
1081,D5,212.5,0.5,113,187.5
1082,C2,213.0,0.703,112,187.5
1083,E3,213.0,0.5,127,187.5
1084,E3,213.0,0.5,122,187.5
1085,E3,213.5,0.5,127,187.5
1086,E3,213.5,0.5,122,187.5
1087,E2,214.0,1.0,113,187.5
1088,E4,214.0,0.5,127,187.5
1089,E4,214.0,0.5,122,187.5
1090,E3,214.5,0.5,127,187.5
1091,E3,214.5,0.5,122,187.5
1092,C2,215.0,0.5,112,187.5
1093,G4,215.0,0.5,127,187.5
1094,G4,215.0,0.5,122,187.5
1095,C4,215.5,0.5,91,187.5
1096,C2,215.5,0.5,112,187.5
1097,E4,215.5,0.5,127,187.5
1098,E4,215.5,0.5,122,187.5
1099,D5,215.5,0.5,113,187.5
1100,D5,215.5,0.5,113,187.5
1101,E2,216.0,0.5,113,187.5
1102,E3,216.0,0.5,127,187.5
1103,E3,216.0,0.5,122,187.5
1104,E2,216.5,0.5,113,187.5
1105,E3,216.5,0.5,127,187.5
1106,E3,216.5,0.5,122,187.5
1107,C2,217.0,0.703,112,187.5
1108,B3,217.0,1.0,127,187.5
1109,B3,217.0,1.0,122,187.5
1110,E2,218.0,1.0,113,187.5
1111,C4,218.0,1.0,127,187.5
1112,C4,218.0,1.0,122,187.5
1113,C2,219.0,0.5,112,187.5
1114,E3,219.0,0.5,127,187.5
1115,E3,219.0,0.5,122,187.5
1116,C2,219.5,0.5,112,187.5
1117,E3,219.5,0.5,127,187.5
1118,E3,219.5,0.5,122,187.5
1119,E2,220.0,1.0,113,187.5
1120,A3,220.0,1.0,127,187.5
1121,A3,220.0,1.0,122,187.5
1122,C2,221.0,0.5,112,187.5
1123,E3,221.0,0.5,127,187.5
1124,E3,221.0,0.5,122,187.5
1125,C2,221.5,0.5,112,187.5
1126,E3,221.5,0.5,127,187.5
1127,E3,221.5,0.5,122,187.5
1128,E2,222.0,1.0,113,187.5
1129,G4,222.0,1.0,127,187.5
1130,G4,222.0,1.0,122,187.5
1131,C#3,223.0,2.0,118,187.5
1132,C2,223.0,0.703,112,187.5
1133,D4,223.0,0.5,127,187.5
1134,D4,223.0,0.5,122,187.5
1135,C4,223.5,0.5,91,187.5
1136,E4,223.5,0.5,127,187.5
1137,D5,223.5,0.5,113,187.5
1138,E4,223.5,0.5,122,187.5
1139,E2,224.0,1.0,113,187.5
1140,E3,224.0,0.5,127,187.5
1141,E3,224.0,0.5,122,187.5
1142,E3,224.5,0.5,127,187.5
1143,E3,224.5,0.5,122,187.5
1144,C#3,225.0,56/25,118,187.5
1145,C2,225.0,0.703,112,187.5
1146,E4,225.0,0.5,127,187.5
1147,E4,225.0,0.5,122,187.5
1148,E3,225.5,0.5,127,187.5
1149,E3,225.5,0.5,122,187.5
1150,E2,226.0,1.0,113,187.5
1151,D4,226.0,0.5,127,187.5
1152,D4,226.0,0.5,122,187.5
1153,C4,226.5,0.5,91,187.5
1154,E4,226.5,0.5,127,187.5
1155,D5,226.5,0.5,113,187.5
1156,D5,226.5,0.5,113,187.5
1157,E4,226.5,0.5,122,187.5
1158,E4,226.5,0.5,122,187.5
1159,C2,227.0,0.703,112,187.5
1160,E3,227.0,0.5,127,187.5
1161,E3,227.0,0.5,122,187.5
1162,E3,227.5,0.5,127,187.5
1163,E3,227.5,0.5,122,187.5
1164,E2,228.0,1.0,113,187.5
1165,E4,228.0,0.5,127,187.5
1166,E4,228.0,0.5,122,187.5
1167,E3,228.5,0.5,127,187.5
1168,E3,228.5,0.5,122,187.5
1169,C2,229.0,0.5,112,187.5
1170,G4,229.0,0.5,127,187.5
1171,G4,229.0,0.5,122,187.5
1172,C4,229.5,0.5,91,187.5
1173,C2,229.5,0.5,112,187.5
1174,E4,229.5,0.5,127,187.5
1175,D5,229.5,0.5,113,187.5
1176,D5,229.5,0.5,113,187.5
1177,E4,229.5,0.5,122,187.5
1178,E4,229.5,0.5,122,187.5
1179,E2,230.0,0.5,113,187.5
1180,E3,230.0,0.5,127,187.5
1181,E3,230.0,0.5,122,187.5
1182,E2,230.5,0.5,113,187.5
1183,E3,230.5,0.5,127,187.5
1184,E3,230.5,0.5,122,187.5
1185,C2,231.0,0.703,112,187.5
1186,B3,231.0,1.0,127,187.5
1187,B3,231.0,1.0,122,187.5
1188,E2,232.0,1.0,113,187.5
1189,C4,232.0,1.0,127,187.5
1190,C4,232.0,1.0,122,187.5
1191,C2,233.0,0.5,112,187.5
1192,E3,233.0,0.5,127,187.5
1193,E3,233.0,0.5,122,187.5
1194,C2,233.5,0.5,112,187.5
1195,E3,233.5,0.5,127,187.5
1196,E3,233.5,0.5,122,187.5
1197,E2,234.0,1.0,113,187.5
1198,A3,234.0,1.0,127,187.5
1199,A3,234.0,1.0,122,187.5
1200,C2,235.0,0.5,112,187.5
1201,E3,235.0,0.5,127,187.5
1202,E3,235.0,0.5,122,187.5
1203,C2,235.5,0.5,112,187.5
1204,E3,235.5,0.5,127,187.5
1205,E3,235.5,0.5,122,187.5
1206,E2,236.0,1.0,113,187.5
1207,G4,236.0,1.0,127,187.5
1208,G4,236.0,1.0,122,187.5
1209,C2,237.0,0.703,112,187.5
1210,D4,237.0,0.5,127,187.5
1211,G4,237.0,0.734,127,187.5
1212,D4,237.0,0.5,122,187.5
1213,C4,237.5,0.5,91,187.5
1214,E4,237.5,0.5,127,187.5
1215,E4,237.5,0.5,122,187.5
1216,D5,237.5,0.5,113,187.5
1217,D5,237.5,0.5,113,187.5
1218,E2,238.0,1.0,113,187.5
1219,E3,238.0,0.5,127,187.5
1220,E5,238.0,0.5,113,187.5
1221,E3,238.0,0.5,122,187.5
1222,E3,238.5,0.5,127,187.5
1223,G5,238.5,1.0,113,187.5
1224,E3,238.5,0.5,122,187.5
1225,C2,239.0,0.703,112,187.5
1226,E4,239.0,0.5,127,187.5
1227,E4,239.0,0.5,122,187.5
1228,E3,239.5,0.5,127,187.5
1229,G5,239.5,0.5,113,187.5
1230,E3,239.5,0.5,122,187.5
1231,E2,240.0,1.0,113,187.5
1232,D4,240.0,0.5,127,187.5
1233,G5,240.0,0.656,113,187.5
1234,D4,240.0,0.5,122,187.5
1235,C4,240.5,0.5,91,187.5
1236,E4,240.5,0.5,127,187.5
1237,E4,240.5,0.5,122,187.5
1238,D5,240.5,0.5,113,187.5
1239,D5,240.5,0.5,113,187.5
1240,C2,241.0,0.703,112,187.5
1241,E3,241.0,0.5,127,187.5
1242,E3,241.0,0.5,122,187.5
1243,E3,241.5,0.5,127,187.5
1244,E3,241.5,0.5,122,187.5
1245,E2,242.0,1.0,113,187.5
1246,E4,242.0,0.5,127,187.5
1247,E4,242.0,0.5,122,187.5
1248,E3,242.5,0.5,127,187.5
1249,E3,242.5,0.5,122,187.5
1250,C2,243.0,0.5,112,187.5
1251,G4,243.0,0.5,127,187.5
1252,G4,243.0,0.5,122,187.5
1253,C4,243.5,0.5,91,187.5
1254,C2,243.5,0.5,112,187.5
1255,E4,243.5,0.5,127,187.5
1256,E4,243.5,0.5,122,187.5
1257,D5,243.5,0.5,113,187.5
1258,D5,243.5,0.5,113,187.5
1259,E2,244.0,0.5,113,187.5
1260,E3,244.0,0.5,127,187.5
1261,E3,244.0,0.5,122,187.5
1262,E2,244.5,0.5,113,187.5
1263,E3,244.5,0.5,127,187.5
1264,E3,244.5,0.5,122,187.5
1265,C2,245.0,0.703,112,187.5
1266,B3,245.0,1.0,127,187.5
1267,B3,245.0,1.0,122,187.5
1268,E2,246.0,1.0,113,187.5
1269,C4,246.0,1.0,127,187.5
1270,C4,246.0,1.0,122,187.5
1271,C2,247.0,0.5,112,187.5
1272,E3,247.0,0.5,127,187.5
1273,E3,247.0,0.5,122,187.5
1274,C2,247.5,0.5,112,187.5
1275,E3,247.5,0.5,127,187.5
1276,E3,247.5,0.5,122,187.5
1277,E2,248.0,1.0,113,187.5
1278,A3,248.0,1.0,127,187.5
1279,A3,248.0,1.0,122,187.5
1280,C2,249.0,0.5,112,187.5
1281,E3,249.0,0.5,127,187.5
1282,E3,249.0,0.5,122,187.5
1283,C2,249.5,0.5,112,187.5
1284,E3,249.5,0.5,127,187.5
1285,E3,249.5,0.5,122,187.5
1286,E2,250.0,1.0,113,187.5
1287,B3,250.0,0.25,127,187.5
1288,B3,250.0,0.25,122,187.5
1289,B3,250.25,0.25,127,187.5
1290,B3,250.25,0.25,122,187.5
1291,B3,250.5,0.5,127,187.5
1292,B3,250.5,0.5,122,187.5
1293,C2,251.0,0.703,112,187.5
1294,E3,251.0,0.5,127,187.5
1295,E5,251.0,0.5,113,187.5
1296,E3,251.0,0.5,122,187.5
1297,E3,251.5,0.5,127,187.5
1298,E5,251.5,0.5,113,187.5
1299,E3,251.5,0.5,122,187.5
1300,E2,252.0,1.0,113,187.5
1301,F#3,252.0,0.5,127,187.5
1302,E5,252.0,1.0,113,187.5
1303,F#3,252.0,0.5,122,187.5
1304,E3,252.5,0.5,127,187.5
1305,E3,252.5,0.5,122,187.5
1306,C2,253.0,0.703,112,187.5
1307,E3,253.0,0.5,127,187.5
1308,E5,253.0,1.375,113,187.5
1309,E3,253.0,0.5,122,187.5
1310,G3,253.5,0.5,127,187.5
1311,G3,253.5,0.5,122,187.5
1312,E2,254.0,1.0,113,187.5
1313,E3,254.0,0.5,127,187.5
1314,E3,254.0,0.5,122,187.5
1315,E3,254.5,0.5,127,187.5
1316,E3,254.5,0.5,122,187.5
1317,C2,255.0,0.703,112,187.5
1318,F#3,255.0,0.5,127,187.5
1319,E5,255.0,0.5,113,187.5
1320,F#3,255.0,0.5,122,187.5
1321,E3,255.5,0.5,127,187.5
1322,E5,255.5,0.5,113,187.5
1323,E3,255.5,0.5,122,187.5
1324,E2,256.0,1.0,113,187.5
1325,E3,256.0,0.5,127,187.5
1326,E5,256.0,1.0,113,187.5
1327,E3,256.0,0.5,122,187.5
1328,G3,256.5,0.5,127,187.5
1329,G3,256.5,0.5,122,187.5
1330,C2,257.0,0.703,112,187.5
1331,E3,257.0,0.5,127,187.5
1332,G5,257.0,0.5,113,187.5
1333,E3,257.0,0.5,122,187.5
1334,C4,257.5,0.5,91,187.5
1335,E3,257.5,0.5,127,187.5
1336,E5,257.5,0.5,113,187.5
1337,E4,257.5,0.5,122,187.5
1338,E3,257.5,0.5,122,187.5
1339,C4,258.0,1.0,91,187.5
1340,E2,258.0,1.0,113,187.5
1341,F#3,258.0,0.5,127,187.5
1342,E5,258.0,0.875,113,187.5
1343,F#3,258.0,0.5,122,187.5
1344,E4,258.0,1.0,122,187.5
1345,G3,258.5,0.5,122,187.5
1346,E4,258.5,0.5,127,187.5
1347,G3,258.5,0.5,127,187.5
1348,E5,258.5,0.5,113,187.5
1349,E5,258.5,0.5,113,187.5
1350,C2,259.0,0.703,112,187.5
1351,E3,259.0,0.5,127,187.5
1352,E3,259.0,0.5,122,187.5
1353,E3,259.5,0.5,127,187.5
1354,E5,259.5,1.0,113,187.5
1355,E3,259.5,0.5,122,187.5
1356,E2,260.0,1.0,113,187.5
1357,F#3,260.0,0.5,127,187.5
1358,F#3,260.0,0.5,122,187.5
1359,E3,260.5,0.5,127,187.5
1360,E5,260.5,0.5,113,187.5
1361,E3,260.5,0.5,122,187.5
1362,C2,261.0,0.703,112,187.5
1363,E3,261.0,0.5,127,187.5
1364,E5,261.0,1.0,113,187.5
1365,E3,261.0,0.5,122,187.5
1366,G3,261.5,0.5,127,187.5
1367,G3,261.5,0.5,122,187.5
1368,E2,262.0,1.0,113,187.5
1369,E3,262.0,0.5,127,187.5
1370,E5,262.0,0.5,113,187.5
1371,E3,262.0,0.5,122,187.5
1372,E3,262.5,0.5,127,187.5
1373,E5,262.5,1.0,113,187.5
1374,E3,262.5,0.5,122,187.5
1375,C2,263.0,0.703,112,187.5
1376,F#3,263.0,0.5,127,187.5
1377,F#3,263.0,0.5,122,187.5
1378,E3,263.5,0.5,127,187.5
1379,E5,263.5,0.5,113,187.5
1380,E3,263.5,0.5,122,187.5
1381,E2,264.0,1.0,113,187.5
1382,E3,264.0,0.5,127,187.5
1383,E5,264.0,0.5,113,187.5
1384,E3,264.0,0.5,122,187.5
1385,E5,264.5,0.5,113,187.5
1386,G3,264.5,0.5,127,187.5
1387,G3,264.5,0.5,127,187.5
1388,G3,264.5,0.5,122,187.5
1389,G3,264.5,0.5,122,187.5
1390,C2,265.0,0.703,112,187.5
1391,E3,265.0,0.5,127,187.5
1392,E5,265.0,0.5,113,187.5
1393,E3,265.0,0.5,122,187.5
1394,E3,265.5,0.5,127,187.5
1395,D5,265.5,1.5,113,187.5
1396,E3,265.5,0.5,122,187.5
1397,E2,266.0,1.0,113,187.5
1398,C4,266.0,0.5,127,187.5
1399,C4,266.0,0.5,122,187.5
1400,C4,266.5,0.5,91,187.5
1401,B3,266.5,0.5,127,187.5
1402,E5,266.5,0.5,113,187.5
1403,B3,266.5,0.5,122,187.5
1404,C2,267.0,0.703,112,187.5
1405,E3,267.0,0.5,127,187.5
1406,E5,267.0,0.5,113,187.5
1407,E3,267.0,0.5,122,187.5
1408,E3,267.5,0.5,127,187.5
1409,E5,267.5,0.5,113,187.5
1410,E3,267.5,0.5,122,187.5
1411,E2,268.0,1.0,113,187.5
1412,F#3,268.0,0.5,127,187.5
1413,E5,268.0,1.0,113,187.5
1414,F#3,268.0,0.5,122,187.5
1415,E3,268.5,0.5,127,187.5
1416,E3,268.5,0.5,122,187.5
1417,C2,269.0,0.703,112,187.5
1418,E3,269.0,0.5,127,187.5
1419,E5,269.0,1.0,113,187.5
1420,E3,269.0,0.5,122,187.5
1421,G3,269.5,0.5,127,187.5
1422,G3,269.5,0.5,122,187.5
1423,E2,270.0,1.0,113,187.5
1424,E3,270.0,0.5,127,187.5
1425,E5,270.0,0.375,113,187.5
1426,E3,270.0,0.5,122,187.5
1427,E3,270.5,0.5,127,187.5
1428,E3,270.5,0.5,122,187.5
1429,C2,271.0,0.703,112,187.5
1430,F#3,271.0,0.5,127,187.5
1431,E5,271.0,0.5,113,187.5
1432,F#3,271.0,0.5,122,187.5
1433,E3,271.5,0.5,127,187.5
1434,E5,271.5,1.0,113,187.5
1435,E3,271.5,0.5,122,187.5
1436,E2,272.0,1.0,113,187.5
1437,E3,272.0,0.5,127,187.5
1438,E3,272.0,0.5,122,187.5
1439,G3,272.5,0.5,127,187.5
1440,G5,272.5,0.5,113,187.5
1441,G3,272.5,0.5,122,187.5
1442,C4,273.0,2.0,91,187.5
1443,C2,273.0,0.703,112,187.5
1444,E3,273.0,0.5,127,187.5
1445,E5,273.0,1.375,113,187.5
1446,B3,273.0,2.0,122,187.5
1447,E3,273.0,0.5,122,187.5
1448,E3,273.5,0.5,127,187.5
1449,E3,273.5,0.5,122,187.5
1450,E2,274.0,1.0,113,187.5
1451,F#3,274.0,0.5,127,187.5
1452,F#3,274.0,0.5,122,187.5
1453,G3,274.5,0.5,122,187.5
1454,G3,274.5,0.5,127,187.5
1455,G3,274.5,0.5,127,187.5
1456,E5,274.5,0.5,113,187.5
1457,E5,274.5,0.5,113,187.5
1458,C2,275.0,0.703,112,187.5
1459,E3,275.0,0.5,127,187.5
1460,E3,275.0,0.5,122,187.5
1461,E3,275.5,0.5,127,187.5
1462,E5,275.5,0.5,113,187.5
1463,E3,275.5,0.5,122,187.5
1464,E2,276.0,1.0,113,187.5
1465,F#3,276.0,0.5,127,187.5
1466,E5,276.0,0.5,113,187.5
1467,F#3,276.0,0.5,122,187.5
1468,E3,276.5,0.5,127,187.5
1469,E5,276.5,0.5,113,187.5
1470,E3,276.5,0.5,122,187.5
1471,C2,277.0,0.703,112,187.5
1472,E3,277.0,0.5,127,187.5
1473,E5,277.0,1.0,113,187.5
1474,E3,277.0,0.5,122,187.5
1475,G3,277.5,0.5,127,187.5
1476,G3,277.5,0.5,122,187.5
1477,E2,278.0,1.0,113,187.5
1478,E3,278.0,0.5,127,187.5
1479,E5,278.0,0.5,113,187.5
1480,E3,278.0,0.5,122,187.5
1481,E3,278.5,0.5,127,187.5
1482,E5,278.5,0.5,113,187.5
1483,E3,278.5,0.5,122,187.5
1484,C2,279.0,0.703,112,187.5
1485,F#3,279.0,0.5,127,187.5
1486,E5,279.0,0.5,113,187.5
1487,F#3,279.0,0.5,122,187.5
1488,E3,279.5,0.5,127,187.5
1489,E5,279.5,0.5,113,187.5
1490,E3,279.5,0.5,122,187.5
1491,E2,280.0,1.0,113,187.5
1492,E3,280.0,0.5,127,187.5
1493,E5,280.0,1.0,113,187.5
1494,E3,280.0,0.5,122,187.5
1495,G3,280.5,0.5,127,187.5
1496,G3,280.5,0.5,122,187.5
1497,C2,281.0,0.703,112,187.5
1498,E3,281.0,0.5,127,187.5
1499,E5,281.0,0.5,113,187.5
1500,E3,281.0,0.5,122,187.5
1501,E3,281.5,0.5,127,187.5
1502,D5,281.5,0.5,113,187.5
1503,E3,281.5,0.5,122,187.5
1504,E2,282.0,1.0,113,187.5
1505,C4,282.0,0.5,127,187.5
1506,D5,282.0,1.0,113,187.5
1507,C4,282.0,0.5,122,187.5
1508,C4,282.5,0.5,91,187.5
1509,B3,282.5,2.5,127,187.5
1510,E5,282.5,0.5,113,187.5
1511,B3,282.5,0.5,122,187.5
1512,A3,283.0,1.0,91,187.5
1513,C2,283.0,0.703,112,187.5
1514,A3,283.0,1.0,127,187.5
1515,A3,284.0,1.0,91,187.5
1516,E2,284.0,1.0,113,187.5
1517,A3,284.0,1.0,127,187.5
1518,A3,285.0,0.5,91,187.5
1519,C2,285.0,0.703,112,187.5
1520,A3,285.0,0.5,127,187.5
1521,B3,285.0,51/200,127,187.5
1522,C4,285.5,0.5,91,187.5
1523,C4,285.5,0.5,127,187.5
1524,B3,286.0,0.5,91,187.5
1525,E2,286.0,1.0,113,187.5
1526,B3,286.0,0.5,127,187.5
1527,E5,286.0,0.5,113,187.5
1528,E5,286.0,0.5,113,187.5
1529,B3,286.0,0.5,122,187.5
1530,B3,286.0,0.5,122,187.5
1531,C4,286.5,1.5,91,187.5
1532,C4,286.5,1.5,127,187.5
1533,C2,287.0,0.703,112,187.5
1534,E5,287.5,0.5,113,187.5
1535,C4,288.0,0.5,91,187.5
1536,E2,288.0,1.0,113,187.5
1537,C4,288.0,0.5,127,187.5
1538,E5,288.0,0.5,113,187.5
1539,C4,288.5,0.5,91,187.5
1540,C4,288.5,0.5,127,187.5
1541,E5,288.5,0.5,113,187.5
1542,B3,289.0,0.5,91,187.5
1543,C2,289.0,0.703,112,187.5
1544,B3,289.0,0.5,127,187.5
1545,D5,289.0,0.5,113,187.5
1546,C4,289.5,0.5,91,187.5
1547,C4,289.5,0.5,127,187.5
1548,E5,289.5,1.375,113,187.5
1549,E5,289.5,0.5,113,187.5
1550,E5,289.5,0.5,113,187.5
1551,B3,289.5,0.5,122,187.5
1552,B3,289.5,0.5,122,187.5
1553,B3,290.0,1.0,91,187.5
1554,E2,290.0,1.0,113,187.5
1555,B3,290.0,1.0,127,187.5
1556,A3,291.0,1.0,91,187.5
1557,C2,291.0,0.703,112,187.5
1558,A3,291.0,1.0,127,187.5
1559,A3,292.0,1.0,91,187.5
1560,E2,292.0,1.0,113,187.5
1561,A3,292.0,1.0,127,187.5
1562,A3,293.0,0.5,91,187.5
1563,C2,293.0,0.703,112,187.5
1564,A3,293.0,0.5,127,187.5
1565,C4,293.5,0.5,91,187.5
1566,C4,293.5,0.5,127,187.5
1567,B3,294.0,0.5,91,187.5
1568,E2,294.0,1.0,113,187.5
1569,B3,294.0,0.5,127,187.5
1570,E5,294.0,0.5,113,187.5
1571,E5,294.0,0.5,113,187.5
1572,E5,294.0,0.5,113,187.5
1573,B3,294.0,0.5,122,187.5
1574,B3,294.0,0.5,122,187.5
1575,C4,294.5,1.5,91,187.5
1576,C4,294.5,1.5,127,187.5
1577,G5,294.5,1.0,113,187.5
1578,C2,295.0,0.703,112,187.5
1579,E5,295.5,1.0,113,187.5
1580,C4,296.0,0.5,91,187.5
1581,E2,296.0,1.0,113,187.5
1582,C4,296.0,0.5,127,187.5
1583,C4,296.5,0.5,91,187.5
1584,C4,296.5,0.5,127,187.5
1585,E5,296.5,0.5,113,187.5
1586,B3,297.0,0.5,91,187.5
1587,C2,297.0,0.703,112,187.5
1588,B3,297.0,0.5,127,187.5
1589,E5,297.0,0.875,113,187.5
1590,C4,297.5,0.5,91,187.5
1591,C4,297.5,0.5,127,187.5
1592,E5,297.5,0.5,113,187.5
1593,E5,297.5,0.5,113,187.5
1594,B3,297.5,0.5,122,187.5
1595,B3,297.5,0.5,122,187.5
1596,D4,298.0,1.0,91,187.5
1597,E2,298.0,1.0,113,187.5
1598,D4,298.0,2.0,127,187.5
1599,A3,299.0,1.0,91,187.5
1600,C2,299.0,0.703,112,187.5
1601,A3,299.0,1.0,127,187.5
1602,A3,300.0,1.0,91,187.5
1603,E2,300.0,1.0,113,187.5
1604,A3,300.0,1.0,127,187.5
1605,D4,300.0,159/500,127,187.5
1606,A3,301.0,0.5,91,187.5
1607,C2,301.0,0.703,112,187.5
1608,A3,301.0,0.5,127,187.5
1609,C4,301.5,0.5,91,187.5
1610,C4,301.5,0.5,127,187.5
1611,B3,302.0,0.5,91,187.5
1612,E2,302.0,1.0,113,187.5
1613,B3,302.0,0.5,127,187.5
1614,B3,302.0,0.5,122,187.5
1615,E5,302.0,0.5,113,187.5
1616,E5,302.0,0.5,113,187.5
1617,C4,302.5,0.5,91,187.5
1618,C4,302.5,0.5,127,187.5
1619,C4,303.0,1.0,91,187.5
1620,C2,303.0,0.703,112,187.5
1621,C4,303.0,1.0,127,187.5
1622,E5,303.0,0.5,113,187.5
1623,E5,303.5,0.5,113,187.5
1624,C4,304.0,0.5,91,187.5
1625,E2,304.0,1.0,113,187.5
1626,C4,304.0,0.5,127,187.5
1627,E5,304.0,0.5,113,187.5
1628,C4,304.5,0.5,91,187.5
1629,C4,304.5,0.5,127,187.5
1630,D5,304.5,1.0,113,187.5
1631,B3,305.0,0.5,91,187.5
1632,C2,305.0,0.703,112,187.5
1633,B3,305.0,0.5,127,187.5
1634,C4,305.5,0.5,91,187.5
1635,C4,305.5,0.5,127,187.5
1636,E5,305.5,0.5,113,187.5
1637,B3,305.5,0.5,122,187.5
1638,E5,305.5,0.5,113,187.5
1639,E5,305.5,0.5,113,187.5
1640,B3,306.0,1.0,91,187.5
1641,E2,306.0,1.0,113,187.5
1642,B3,306.0,1.0,127,187.5
1643,E5,306.0,0.875,113,187.5
1644,A3,307.0,1.0,91,187.5
1645,C2,307.0,0.703,112,187.5
1646,A3,307.0,1.0,127,187.5
1647,A3,308.0,1.0,91,187.5
1648,E2,308.0,1.0,113,187.5
1649,A3,308.0,1.0,127,187.5
1650,A3,309.0,0.5,91,187.5
1651,C2,309.0,0.703,112,187.5
1652,A3,309.0,0.5,127,187.5
1653,C4,309.5,0.5,91,187.5
1654,C4,309.5,0.5,127,187.5
1655,D5,309.5,0.5,113,187.5
1656,B3,310.0,0.5,91,187.5
1657,E2,310.0,1.0,113,187.5
1658,B3,310.0,0.5,127,187.5
1659,B3,310.0,0.5,122,187.5
1660,E5,310.0,0.5,113,187.5
1661,E5,310.0,0.5,113,187.5
1662,E5,310.0,0.5,113,187.5
1663,C4,310.5,1.5,91,187.5
1664,C4,310.5,1.5,127,187.5
1665,D5,310.5,0.5,113,187.5
1666,C2,311.0,0.703,112,187.5
1667,E5,311.0,1.0,113,187.5
1668,C4,312.0,0.5,91,187.5
1669,E2,312.0,1.0,113,187.5
1670,C4,312.0,0.5,127,187.5
1671,E5,312.0,0.375,113,187.5
1672,C4,312.5,0.5,91,187.5
1673,C4,312.5,0.5,127,187.5
1674,B3,313.0,0.5,91,187.5
1675,C2,313.0,0.703,112,187.5
1676,B3,313.0,0.5,127,187.5
1677,C4,313.5,0.5,91,187.5
1678,C4,313.5,0.5,127,187.5
1679,B3,313.5,0.5,122,187.5
1680,E5,313.5,0.5,113,187.5
1681,E5,313.5,0.5,113,187.5
1682,D4,314.0,1.0,91,187.5
1683,E2,314.0,1.0,113,187.5
1684,D4,314.0,1.0,127,187.5
1685,E5,314.0,0.5,113,187.5
1686,G5,314.5,0.5,113,187.5
1687,C#3,315.0,1.0,118,187.5
1688,C2,315.0,0.703,112,187.5
1689,G5,315.0,0.5,113,187.5
1690,D4,315.0,0.5,122,187.5
1691,C4,315.5,0.5,91,187.5
1692,E5,315.5,0.5,113,187.5
1693,E5,315.5,1.375,113,187.5
1694,E4,315.5,0.5,122,187.5
1695,E2,316.0,1.0,113,187.5
1696,E3,316.0,0.5,127,187.5
1697,E3,316.0,0.5,122,187.5
1698,E3,316.5,0.5,127,187.5
1699,E3,316.5,0.5,122,187.5
1700,C2,317.0,0.703,112,187.5
1701,E4,317.0,0.5,127,187.5
1702,E4,317.0,0.5,122,187.5
1703,E3,317.5,0.5,127,187.5
1704,E3,317.5,0.5,122,187.5
1705,E2,318.0,1.0,113,187.5
1706,D4,318.0,0.5,127,187.5
1707,D4,318.0,0.5,122,187.5
1708,C4,318.5,0.5,91,187.5
1709,E4,318.5,0.5,127,187.5
1710,E4,318.5,0.5,122,187.5
1711,E5,318.5,0.5,113,187.5
1712,E5,318.5,0.5,113,187.5
1713,C2,319.0,0.703,112,187.5
1714,E3,319.0,0.5,127,187.5
1715,E3,319.0,0.5,122,187.5
1716,E3,319.5,0.5,127,187.5
1717,E3,319.5,0.5,122,187.5
1718,E2,320.0,1.0,113,187.5
1719,E4,320.0,0.5,127,187.5
1720,E4,320.0,0.5,122,187.5
1721,E3,320.5,0.5,127,187.5
1722,E3,320.5,0.5,122,187.5
1723,C2,321.0,0.5,112,187.5
1724,G4,321.0,0.5,127,187.5
1725,G4,321.0,0.5,122,187.5
1726,C4,321.5,0.5,91,187.5
1727,C2,321.5,0.5,112,187.5
1728,E4,321.5,0.5,127,187.5
1729,E4,321.5,0.5,122,187.5
1730,E5,321.5,0.5,113,187.5
1731,E5,321.5,0.5,113,187.5
1732,E2,322.0,0.5,113,187.5
1733,E3,322.0,0.5,127,187.5
1734,E3,322.0,0.5,122,187.5
1735,E2,322.5,0.5,113,187.5
1736,E3,322.5,0.5,127,187.5
1737,E3,322.5,0.5,122,187.5
1738,C2,323.0,0.703,112,187.5
1739,B3,323.0,1.0,127,187.5
1740,B3,323.0,1.0,122,187.5
1741,E2,324.0,1.0,113,187.5
1742,C4,324.0,1.0,127,187.5
1743,C4,324.0,1.0,122,187.5
1744,C2,325.0,0.5,112,187.5
1745,E3,325.0,0.5,127,187.5
1746,E3,325.0,0.5,122,187.5
1747,C2,325.5,0.5,112,187.5
1748,E3,325.5,0.5,127,187.5
1749,E3,325.5,0.5,122,187.5
1750,E2,326.0,1.0,113,187.5
1751,A3,326.0,1.0,127,187.5
1752,A3,326.0,1.0,122,187.5
1753,C2,327.0,0.5,112,187.5
1754,E3,327.0,0.5,127,187.5
1755,E3,327.0,0.5,122,187.5
1756,C2,327.5,0.5,112,187.5
1757,E3,327.5,0.5,127,187.5
1758,E3,327.5,0.5,122,187.5
1759,E2,328.0,1.0,113,187.5
1760,G4,328.0,1.0,127,187.5
1761,G4,328.0,1.0,122,187.5
1762,C2,329.0,0.703,112,187.5
1763,D4,329.0,0.5,127,187.5
1764,D4,329.0,0.5,122,187.5
1765,C4,329.5,0.5,91,187.5
1766,E4,329.5,0.5,127,187.5
1767,E5,329.5,0.5,113,187.5
1768,E4,329.5,0.5,122,187.5
1769,E2,330.0,1.0,113,187.5
1770,E3,330.0,0.5,127,187.5
1771,E3,330.0,0.5,122,187.5
1772,E3,330.5,0.5,127,187.5
1773,E3,330.5,0.5,122,187.5
1774,C2,331.0,0.703,112,187.5
1775,E4,331.0,0.5,127,187.5
1776,E4,331.0,0.5,122,187.5
1777,E3,331.5,0.5,127,187.5
1778,E3,331.5,0.5,122,187.5
1779,E2,332.0,1.0,113,187.5
1780,D4,332.0,0.5,127,187.5
1781,D4,332.0,0.5,122,187.5
1782,C4,332.5,0.5,91,187.5
1783,E4,332.5,0.5,127,187.5
1784,E4,332.5,0.5,122,187.5
1785,E5,332.5,0.5,113,187.5
1786,E5,332.5,0.5,113,187.5
1787,C2,333.0,0.703,112,187.5
1788,E3,333.0,0.5,127,187.5
1789,E3,333.0,0.5,122,187.5
1790,E3,333.5,0.5,127,187.5
1791,E3,333.5,0.5,122,187.5
1792,E2,334.0,1.0,113,187.5
1793,E4,334.0,0.5,127,187.5
1794,E4,334.0,0.5,122,187.5
1795,E3,334.5,0.5,127,187.5
1796,E3,334.5,0.5,122,187.5
1797,C2,335.0,0.5,112,187.5
1798,G4,335.0,0.5,127,187.5
1799,G4,335.0,0.5,122,187.5
1800,C4,335.5,0.5,91,187.5
1801,C2,335.5,0.5,112,187.5
1802,E4,335.5,0.5,127,187.5
1803,E4,335.5,0.5,122,187.5
1804,E5,335.5,0.5,113,187.5
1805,E5,335.5,0.5,113,187.5
1806,E2,336.0,0.5,113,187.5
1807,E3,336.0,0.5,127,187.5
1808,E3,336.0,0.5,122,187.5
1809,E2,336.5,0.5,113,187.5
1810,E3,336.5,0.5,127,187.5
1811,E3,336.5,0.5,122,187.5
1812,C2,337.0,0.703,112,187.5
1813,B3,337.0,1.0,127,187.5
1814,B3,337.0,1.0,122,187.5
1815,E2,338.0,1.0,113,187.5
1816,C4,338.0,1.0,127,187.5
1817,C4,338.0,1.0,122,187.5
1818,C2,339.0,0.5,112,187.5
1819,E3,339.0,0.5,127,187.5
1820,E3,339.0,0.5,122,187.5
1821,C2,339.5,0.5,112,187.5
1822,E3,339.5,0.5,127,187.5
1823,E3,339.5,0.5,122,187.5
1824,E2,340.0,1.0,113,187.5
1825,A3,340.0,1.0,127,187.5
1826,A3,340.0,1.0,122,187.5
1827,C2,341.0,0.5,112,187.5
1828,E3,341.0,0.5,127,187.5
1829,E3,341.0,0.5,122,187.5
1830,C2,341.5,0.5,112,187.5
1831,E3,341.5,0.5,127,187.5
1832,A4,341.5,0.5,113,187.5
1833,E3,341.5,0.5,122,187.5
1834,E2,342.0,1.0,113,187.5
1835,G4,342.0,1.0,127,187.5
1836,A4,342.0,1.0,113,187.5
1837,G4,342.0,1.0,122,187.5
1838,C2,343.0,0.703,112,187.5
1839,F#4,343.0,0.25,127,187.5
1840,F#3,343.0,0.5,127,187.5
1841,F#3,343.0,0.5,122,187.5
1842,F#4,343.25,0.25,127,187.5
1843,F#4,343.5,0.25,127,187.5
1844,F#3,343.5,0.5,127,187.5
1845,F#3,343.5,0.5,122,187.5
1846,F#4,343.75,0.25,127,187.5
1847,E2,344.0,1.0,113,187.5
1848,A4,344.0,0.25,127,187.5
1849,F#3,344.0,0.5,127,187.5
1850,F#3,344.0,0.5,122,187.5
1851,F#4,344.25,0.25,127,187.5
1852,A4,344.5,0.25,127,187.5
1853,F#3,344.5,0.5,127,187.5
1854,F#3,344.5,0.5,122,187.5
1855,B4,344.75,0.25,127,187.5
1856,C2,345.0,0.703,112,187.5
1857,C#5,345.0,0.25,127,187.5
1858,F#3,345.0,0.5,127,187.5
1859,F#3,345.0,0.5,122,187.5
1860,A4,345.25,0.25,127,187.5
1861,B4,345.5,0.25,127,187.5
1862,F#3,345.5,0.5,127,187.5
1863,F#3,345.5,0.5,122,187.5
1864,C#5,345.75,0.25,127,187.5
1865,E2,346.0,1.0,113,187.5
1866,E5,346.0,0.5,127,187.5
1867,F#3,346.0,0.5,127,187.5
1868,F#3,346.0,0.5,122,187.5
1869,C#5,346.5,0.25,127,187.5
1870,F#3,346.5,0.5,127,187.5
1871,F#3,346.5,0.5,122,187.5
1872,E5,346.75,0.25,127,187.5
1873,C2,347.0,0.703,112,187.5
1874,F#5,347.0,0.5,127,187.5
1875,F#3,347.0,0.5,127,187.5
1876,F#3,347.0,0.5,122,187.5
1877,E5,347.5,0.25,127,187.5
1878,F#3,347.5,0.5,127,187.5
1879,F#3,347.5,0.5,122,187.5
1880,F#5,347.75,0.25,127,187.5
1881,E2,348.0,1.0,113,187.5
1882,A5,348.0,0.5,127,187.5
1883,F#3,348.0,0.5,127,187.5
1884,F#3,348.0,0.5,122,187.5
1885,F#5,348.5,0.25,127,187.5
1886,F#3,348.5,0.5,127,187.5
1887,F#3,348.5,0.5,122,187.5
1888,A5,348.75,0.25,127,187.5
1889,C2,349.0,0.703,112,187.5
1890,B5,349.0,0.5,127,187.5
1891,F#3,349.0,0.5,127,187.5
1892,F#3,349.0,0.5,122,187.5
1893,A5,349.5,0.25,127,187.5
1894,F#3,349.5,0.5,127,187.5
1895,F#3,349.5,0.5,122,187.5
1896,B5,349.75,0.25,127,187.5
1897,E2,350.0,1.0,113,187.5
1898,C6,350.0,0.5,127,187.5
1899,F#3,350.0,0.5,127,187.5
1900,F#3,350.0,0.5,122,187.5
1901,B5,350.5,0.25,127,187.5
1902,F#3,350.5,0.5,127,187.5
1903,F#3,350.5,0.5,122,187.5
1904,C6,350.75,0.25,127,187.5
1905,C2,351.0,0.703,112,187.5
1906,E6,351.0,0.25,127,187.5
1907,F#3,351.0,0.5,127,187.5
1908,F#3,351.0,0.5,122,187.5
1909,C6,351.25,0.25,127,187.5
1910,E6,351.5,0.5,127,187.5
1911,F#3,351.5,0.5,127,187.5
1912,F#3,351.5,0.5,122,187.5
1913,E2,352.0,1.0,113,187.5
1914,F#6,352.0,0.25,127,187.5
1915,F#3,352.0,0.5,127,187.5
1916,F#3,352.0,0.5,122,187.5
1917,E6,352.25,0.25,127,187.5
1918,C6,352.5,0.25,127,187.5
1919,F#3,352.5,0.5,127,187.5
1920,F#3,352.5,0.5,122,187.5
1921,F#6,352.75,0.25,127,187.5
1922,C2,353.0,0.703,112,187.5
1923,A6,353.0,0.25,127,187.5
1924,F#3,353.0,0.5,127,187.5
1925,F#3,353.0,0.5,122,187.5
1926,F#6,353.25,0.25,127,187.5
1927,E4,353.25,0.25,127,187.5
1928,E5,353.25,0.25,113,187.5
1929,E4,353.25,0.25,122,187.5
1930,E6,353.5,0.25,127,187.5
1931,F#3,353.5,0.5,127,187.5
1932,F#3,353.5,0.5,122,187.5
1933,C6,353.75,0.25,127,187.5
1934,E2,354.0,1.0,113,187.5
1935,C6,354.0,0.25,127,187.5
1936,F#3,354.0,0.5,127,187.5
1937,F#3,354.0,0.5,122,187.5
1938,C6,354.25,0.25,127,187.5
1939,C6,354.5,0.25,127,187.5
1940,F#3,354.5,0.5,127,187.5
1941,F#3,354.5,0.5,122,187.5
1942,E6,354.75,0.25,127,187.5
1943,C2,355.0,0.703,112,187.5
1944,C6,355.0,0.5,127,187.5
1945,F#3,355.0,0.5,127,187.5
1946,F#3,355.0,0.5,122,187.5
1947,B5,355.5,0.5,127,187.5
1948,F#3,355.5,0.5,127,187.5
1949,F#3,355.5,0.5,122,187.5
1950,E2,356.0,1.0,113,187.5
1951,A5,356.0,0.5,127,187.5
1952,F#3,356.0,0.5,127,187.5
1953,F#3,356.0,0.5,122,187.5
1954,G5,356.5,0.5,127,187.5
1955,F#3,356.5,0.5,127,187.5
1956,F#3,356.5,0.5,122,187.5
1957,C2,357.0,0.703,112,187.5
1958,A5,357.0,0.5,127,187.5
1959,F#3,357.0,0.5,127,187.5
1960,F#3,357.0,0.5,122,187.5
1961,B5,357.5,1.0,127,187.5
1962,F#3,357.5,0.5,127,187.5
1963,F#3,357.5,0.5,122,187.5
1964,E2,358.0,1.0,113,187.5
1965,F#3,358.0,0.5,127,187.5
1966,F#3,358.0,0.5,122,187.5
1967,A5,358.5,0.5,127,187.5
1968,F#3,358.5,0.5,127,187.5
1969,F#3,358.5,0.5,122,187.5
1970,C2,359.0,0.703,112,187.5
1971,E5,359.0,1.0,127,187.5
1972,F#3,359.0,0.5,127,187.5
1973,F#3,359.0,0.5,122,187.5
1974,F#3,359.5,0.5,127,187.5
1975,F#3,359.5,0.5,122,187.5
1976,E2,360.0,1.0,113,187.5
1977,E5,360.0,0.5,127,187.5
1978,F#3,360.0,0.5,127,187.5
1979,F#3,360.0,0.5,122,187.5
1980,E5,360.5,1.5,127,187.5
1981,F#3,360.5,0.5,127,187.5
1982,F#3,360.5,0.5,122,187.5
1983,C2,361.0,0.703,112,187.5
1984,F#3,361.0,0.5,127,187.5
1985,F#3,361.0,0.5,122,187.5
1986,F#3,361.5,0.5,127,187.5
1987,F#3,361.5,0.5,122,187.5
1988,E2,362.0,1.0,113,187.5
1989,E5,362.0,0.5,127,187.5
1990,F#3,362.0,0.5,127,187.5
1991,F#3,362.0,0.5,122,187.5
1992,D5,362.5,0.5,127,187.5
1993,F#3,362.5,0.5,127,187.5
1994,F#3,362.5,0.5,122,187.5
1995,C2,363.0,0.703,112,187.5
1996,C#5,363.0,0.5,127,187.5
1997,F#3,363.0,0.5,127,187.5
1998,F#3,363.0,0.5,122,187.5
1999,B4,363.5,0.5,127,187.5
2000,F#3,363.5,0.5,127,187.5
2001,F#3,363.5,0.5,122,187.5
2002,E2,364.0,1.0,113,187.5
2003,C#5,364.0,0.5,127,187.5
2004,F#3,364.0,0.5,127,187.5
2005,F#3,364.0,0.5,122,187.5
2006,D5,364.5,0.5,127,187.5
2007,E5,364.5,0.5,113,187.5
2008,E4,364.5,0.5,127,187.5
2009,F#3,364.5,0.5,127,187.5
2010,F#3,364.5,0.5,122,187.5
2011,E4,364.5,0.5,122,187.5
2012,C2,365.0,0.703,112,187.5
2013,C#5,365.0,0.25,127,187.5
2014,E4,365.0,0.25,127,187.5
2015,F#3,365.0,0.5,127,187.5
2016,E5,365.0,0.25,113,187.5
2017,F#3,365.0,0.5,122,187.5
2018,E4,365.0,0.25,122,187.5
2019,B4,365.25,0.25,127,187.5
2020,C#5,365.5,0.25,127,187.5
2021,F#3,365.5,0.5,127,187.5
2022,F#3,365.5,0.5,122,187.5
2023,B4,365.75,0.25,127,187.5
2024,E2,366.0,1.0,113,187.5
2025,C#5,366.0,0.25,127,187.5
2026,F#3,366.0,0.5,127,187.5
2027,F#3,366.0,0.5,122,187.5
2028,E-5,366.25,0.25,100,187.5
2029,A4,366.5,0.5,127,187.5
2030,F#3,366.5,0.5,127,187.5
2031,F#3,366.5,0.5,122,187.5
2032,C2,367.0,0.703,112,187.5
2033,B4,367.0,0.25,127,187.5
2034,F#3,367.0,0.5,127,187.5
2035,F#3,367.0,0.5,122,187.5
2036,A4,367.25,0.25,127,187.5
2037,E4,367.25,0.25,127,187.5
2038,E5,367.25,0.25,113,187.5
2039,E4,367.25,0.25,122,187.5
2040,F#4,367.5,0.5,127,187.5
2041,F#3,367.5,0.5,127,187.5
2042,F#3,367.5,0.5,122,187.5
2043,E2,368.0,1.0,113,187.5
2044,A4,368.0,0.25,127,187.5
2045,F#3,368.0,0.5,127,187.5
2046,F#3,368.0,0.5,122,187.5
2047,F#4,368.25,0.25,127,187.5
2048,E4,368.5,0.5,127,187.5
2049,F#3,368.5,0.5,127,187.5
2050,F#3,368.5,0.5,122,187.5
2051,C2,369.0,0.703,112,187.5
2052,F#4,369.0,0.25,127,187.5
2053,F#3,369.0,0.5,127,187.5
2054,F#3,369.0,0.5,122,187.5
2055,E4,369.25,0.25,127,187.5
2056,C#4,369.5,0.5,127,187.5
2057,F#3,369.5,0.5,127,187.5
2058,F#3,369.5,0.5,122,187.5
2059,E2,370.0,1.0,113,187.5
2060,E4,370.0,0.5,127,187.5
2061,F#3,370.0,0.5,127,187.5
2062,F#3,370.0,0.5,122,187.5
2063,F#4,370.5,0.5,127,187.5
2064,F#3,370.5,0.5,127,187.5
2065,F#3,370.5,0.5,122,187.5
2066,C2,371.0,0.703,112,187.5
2067,C#4,371.0,0.25,127,187.5
2068,F#3,371.0,0.5,127,187.5
2069,F#3,371.0,0.5,122,187.5
2070,B3,371.25,0.25,127,187.5
2071,G#3,371.5,0.5,127,187.5
2072,F#3,371.5,0.5,127,187.5
2073,F#3,371.5,0.5,122,187.5
2074,E2,372.0,1.0,113,187.5
2075,B3,372.0,0.5,127,187.5
2076,F#3,372.0,0.5,127,187.5
2077,F#3,372.0,0.5,122,187.5
2078,C#4,372.5,0.5,127,187.5
2079,F#3,372.5,0.5,127,187.5
2080,F#3,372.5,0.5,122,187.5
2081,C2,373.0,0.703,112,187.5
2082,B3,373.0,1.0,127,187.5
2083,F#3,373.0,0.5,127,187.5
2084,F#3,373.0,0.5,122,187.5
2085,F#3,373.5,0.5,127,187.5
2086,F#3,373.5,0.5,122,187.5
2087,E2,374.0,1.0,113,187.5
2088,F#3,374.0,0.5,127,187.5
2089,F#3,374.0,0.5,127,187.5
2090,F#3,374.0,0.5,122,187.5
2091,F#5,374.5,0.25,127,187.5
2092,F#3,374.5,0.5,127,187.5
2093,F#3,374.5,0.5,122,187.5
2094,G5,374.75,0.25,127,187.5
2095,C2,375.0,0.703,112,187.5
2096,B5,375.0,0.25,127,187.5
2097,G#3,375.0,0.5,127,187.5
2098,G#3,375.0,0.5,122,187.5
2099,G#5,375.25,0.25,127,187.5
2100,E4,375.25,0.25,127,187.5
2101,E5,375.25,0.25,113,187.5
2102,E4,375.25,0.25,122,187.5
2103,F#5,375.5,0.5,127,187.5
2104,G#3,375.5,0.5,127,187.5
2105,G#3,375.5,0.5,122,187.5
2106,E2,376.0,1.0,113,187.5
2107,G#5,376.0,0.25,127,187.5
2108,G#3,376.0,0.5,127,187.5
2109,G#3,376.0,0.5,122,187.5
2110,F#5,376.25,0.25,127,187.5
2111,D5,376.5,0.25,127,187.5
2112,G#3,376.5,0.5,127,187.5
2113,G#3,376.5,0.5,122,187.5
2114,F#5,376.75,0.5,127,187.5
2115,C2,377.0,0.703,112,187.5
2116,G#3,377.0,0.5,127,187.5
2117,G#3,377.0,0.5,122,187.5
2118,D5,377.25,0.25,127,187.5
2119,C5,377.5,0.25,127,187.5
2120,G#3,377.5,0.5,127,187.5
2121,G#3,377.5,0.5,122,187.5
2122,D5,377.75,0.25,127,187.5
2123,E2,378.0,1.0,113,187.5
2124,D5,378.0,0.25,127,187.5
2125,G#3,378.0,0.5,127,187.5
2126,G#3,378.0,0.5,122,187.5
2127,C5,378.25,0.25,127,187.5
2128,B4,378.5,0.5,127,187.5
2129,G#3,378.5,0.5,127,187.5
2130,G#3,378.5,0.5,122,187.5
2131,C2,379.0,0.703,112,187.5
2132,C5,379.0,0.25,127,187.5
2133,G#3,379.0,0.5,127,187.5
2134,G#3,379.0,0.5,122,187.5
2135,B4,379.25,0.25,127,187.5
2136,G#4,379.5,0.5,127,187.5
2137,G#3,379.5,0.5,127,187.5
2138,G#3,379.5,0.5,122,187.5
2139,E2,380.0,1.0,113,187.5
2140,B4,380.0,0.25,127,187.5
2141,G#3,380.0,0.5,127,187.5
2142,G#3,380.0,0.5,122,187.5
2143,G#4,380.25,0.25,127,187.5
2144,F#4,380.5,0.5,127,187.5
2145,G#3,380.5,0.5,127,187.5
2146,G#3,380.5,0.5,122,187.5
2147,C2,381.0,0.703,112,187.5
2148,G#4,381.0,0.25,127,187.5
2149,G#3,381.0,0.5,127,187.5
2150,G#3,381.0,0.5,122,187.5
2151,F#4,381.25,0.25,127,187.5
2152,E4,381.25,0.25,127,187.5
2153,E5,381.25,0.25,113,187.5
2154,E4,381.25,0.25,122,187.5
2155,E-4,381.5,0.5,127,187.5
2156,G#3,381.5,0.5,127,187.5
2157,G#3,381.5,0.5,122,187.5
2158,E2,382.0,1.0,113,187.5
2159,F#4,382.0,0.25,127,187.5
2160,G#3,382.0,0.5,127,187.5
2161,G#3,382.0,0.5,122,187.5
2162,E-4,382.25,0.25,127,187.5
2163,C#4,382.5,0.5,127,187.5
2164,G#3,382.5,0.5,127,187.5
2165,G#3,382.5,0.5,122,187.5
2166,C2,383.0,0.703,112,187.5
2167,E-4,383.0,0.25,127,187.5
2168,G#3,383.0,0.5,127,187.5
2169,G#3,383.0,0.5,122,187.5
2170,C#4,383.25,0.25,127,187.5
2171,B3,383.5,0.5,127,187.5
2172,G#3,383.5,0.5,127,187.5
2173,G#3,383.5,0.5,122,187.5
2174,E2,384.0,1.0,113,187.5
2175,C#4,384.0,0.25,127,187.5
2176,G#3,384.0,0.5,127,187.5
2177,G#3,384.0,0.5,122,187.5
2178,B3,384.25,0.25,127,187.5
2179,G#3,384.5,0.5,127,187.5
2180,G#3,384.5,0.5,127,187.5
2181,G#3,384.5,0.5,122,187.5
2182,C2,385.0,0.703,112,187.5
2183,B3,385.0,0.5,127,187.5
2184,G#3,385.0,0.5,127,187.5
2185,G#3,385.0,0.5,122,187.5
2186,C#4,385.5,0.5,127,187.5
2187,G#3,385.5,0.5,127,187.5
2188,G#3,385.5,0.5,122,187.5
2189,E2,386.0,1.0,113,187.5
2190,E-4,386.0,1.0,127,187.5
2191,G#3,386.0,0.5,127,187.5
2192,G#3,386.0,0.5,122,187.5
2193,G#3,386.5,0.5,127,187.5
2194,G#3,386.5,0.5,122,187.5
2195,C2,387.0,0.703,112,187.5
2196,F#4,387.0,0.5,127,187.5
2197,G#3,387.0,0.5,127,187.5
2198,G#3,387.0,0.5,122,187.5
2199,G#4,387.5,0.5,127,187.5
2200,E5,387.5,0.5,113,187.5
2201,E4,387.5,0.5,127,187.5
2202,G#3,387.5,0.5,127,187.5
2203,G#3,387.5,0.5,122,187.5
2204,E4,387.5,0.5,122,187.5
2205,E2,388.0,1.0,113,187.5
2206,B4,388.0,0.5,127,187.5
2207,G#3,388.0,0.5,127,187.5
2208,G#3,388.0,0.5,122,187.5
2209,G#4,388.5,1.0,127,187.5
2210,G#3,388.5,0.5,127,187.5
2211,G#3,388.5,0.5,122,187.5
2212,C2,389.0,0.703,112,187.5
2213,G#3,389.0,0.5,127,187.5
2214,G#3,389.0,0.5,122,187.5
2215,G#4,389.5,0.25,127,187.5
2216,G#3,389.5,0.5,127,187.5
2217,G#3,389.5,0.5,122,187.5
2218,F#4,389.75,0.25,127,187.5
2219,E4,389.75,0.25,127,187.5
2220,E5,389.75,0.25,113,187.5
2221,E4,389.75,0.25,122,187.5
2222,E2,390.0,1.0,113,187.5
2223,E-4,390.0,0.5,127,187.5
2224,G#3,390.0,0.5,127,187.5
2225,G#3,390.0,0.5,122,187.5
2226,B4,390.5,0.5,127,187.5
2227,G#3,390.5,0.5,127,187.5
2228,G#3,390.5,0.5,122,187.5
2229,C2,391.0,0.703,112,187.5
2230,C#4,391.0,0.25,127,187.5
2231,G#3,391.0,0.5,127,187.5
2232,G#3,391.0,0.5,122,187.5
2233,C#4,391.25,0.25,127,187.5
2234,C#4,391.5,0.25,127,187.5
2235,G#3,391.5,0.5,127,187.5
2236,G#3,391.5,0.5,122,187.5
2237,C#4,391.75,0.25,127,187.5
2238,E2,392.0,1.0,113,187.5
2239,D4,392.0,0.25,127,187.5
2240,G#3,392.0,0.5,127,187.5
2241,G#3,392.0,0.5,122,187.5
2242,D4,392.25,0.25,127,187.5
2243,D4,392.5,0.25,127,187.5
2244,G#3,392.5,0.5,127,187.5
2245,G#3,392.5,0.5,122,187.5
2246,D4,392.75,0.25,127,187.5
2247,C2,393.0,0.703,112,187.5
2248,E4,393.0,0.25,127,187.5
2249,E4,393.0,0.25,127,187.5
2250,G#3,393.0,0.5,127,187.5
2251,E5,393.0,0.25,113,187.5
2252,G#3,393.0,0.5,122,187.5
2253,E4,393.0,0.25,122,187.5
2254,E4,393.25,0.25,127,187.5
2255,E4,393.5,0.25,127,187.5
2256,G#3,393.5,0.5,127,187.5
2257,G#3,393.5,0.5,122,187.5
2258,E4,393.75,0.25,127,187.5
2259,E2,394.0,1.0,113,187.5
2260,D4,394.0,0.25,127,187.5
2261,G#3,394.0,0.5,127,187.5
2262,G#3,394.0,0.5,122,187.5
2263,D4,394.25,0.25,127,187.5
2264,D4,394.5,0.25,127,187.5
2265,G#3,394.5,0.5,127,187.5
2266,G#3,394.5,0.5,122,187.5
2267,E4,394.75,0.25,127,187.5
2268,E4,394.75,0.25,127,187.5
2269,E5,394.75,0.25,113,187.5
2270,E4,394.75,0.25,122,187.5
2271,C2,395.0,0.703,112,187.5
2272,E4,395.0,0.25,127,187.5
2273,G#3,395.0,0.5,127,187.5
2274,G#3,395.0,0.5,122,187.5
2275,E4,395.25,0.25,127,187.5
2276,E4,395.5,0.25,127,187.5
2277,G#3,395.5,0.5,127,187.5
2278,G#3,395.5,0.5,122,187.5
2279,E4,395.75,0.25,127,187.5
2280,E2,396.0,1.0,113,187.5
2281,F#4,396.0,0.25,127,187.5
2282,G#3,396.0,0.5,127,187.5
2283,G#3,396.0,0.5,122,187.5
2284,F#4,396.25,0.25,127,187.5
2285,F#4,396.5,0.25,127,187.5
2286,G#3,396.5,0.5,127,187.5
2287,G#3,396.5,0.5,122,187.5
2288,F#4,396.75,0.25,127,187.5
2289,C2,397.0,0.703,112,187.5
2290,G#4,397.0,0.25,127,187.5
2291,G#3,397.0,0.5,127,187.5
2292,G#3,397.0,0.5,122,187.5
2293,G#4,397.25,0.25,127,187.5
2294,G#4,397.5,0.25,127,187.5
2295,G#3,397.5,0.5,127,187.5
2296,G#3,397.5,0.5,122,187.5
2297,G#4,397.75,0.25,127,187.5
2298,E2,398.0,1.0,113,187.5
2299,F#4,398.0,0.25,127,187.5
2300,G#3,398.0,0.5,127,187.5
2301,G#3,398.0,0.5,122,187.5
2302,F#4,398.25,0.25,127,187.5
2303,F#4,398.5,0.25,127,187.5
2304,G#3,398.5,0.5,127,187.5
2305,G#3,398.5,0.5,122,187.5
2306,G#4,398.75,0.25,127,187.5
2307,C2,399.0,0.703,112,187.5
2308,G#4,399.0,0.25,127,187.5
2309,G#3,399.0,0.5,127,187.5
2310,G#3,399.0,0.5,122,187.5
2311,G#4,399.25,0.25,127,187.5
2312,G#4,399.5,0.25,127,187.5
2313,G#3,399.5,0.5,127,187.5
2314,G#3,399.5,0.5,122,187.5
2315,G#4,399.75,0.25,127,187.5
2316,E2,400.0,1.0,113,187.5
2317,A4,400.0,0.25,127,187.5
2318,G#3,400.0,0.5,127,187.5
2319,G#3,400.0,0.5,122,187.5
2320,A4,400.25,0.25,127,187.5
2321,A4,400.5,0.25,127,187.5
2322,G#3,400.5,0.5,127,187.5
2323,G#3,400.5,0.5,122,187.5
2324,A4,400.75,0.25,127,187.5
2325,C2,401.0,0.703,112,187.5
2326,B4,401.0,0.25,127,187.5
2327,E4,401.0,0.25,127,187.5
2328,G#3,401.0,0.5,127,187.5
2329,E5,401.0,0.25,113,187.5
2330,G#3,401.0,0.5,122,187.5
2331,E4,401.0,0.25,122,187.5
2332,B4,401.25,0.25,127,187.5
2333,B4,401.5,0.25,127,187.5
2334,G#3,401.5,0.5,127,187.5
2335,G#3,401.5,0.5,122,187.5
2336,B4,401.75,0.25,127,187.5
2337,E2,402.0,1.0,113,187.5
2338,A4,402.0,0.25,127,187.5
2339,G#3,402.0,0.5,127,187.5
2340,G#3,402.0,0.5,122,187.5
2341,A4,402.25,0.25,127,187.5
2342,B4,402.5,0.5,127,187.5
2343,G#3,402.5,0.5,127,187.5
2344,G#3,402.5,0.5,122,187.5
2345,C2,403.0,0.703,112,187.5
2346,C#5,403.0,0.25,127,187.5
2347,G#3,403.0,0.5,127,187.5
2348,G#3,403.0,0.5,122,187.5
2349,B4,403.25,0.25,127,187.5
2350,E4,403.25,0.25,127,187.5
2351,E5,403.25,0.25,113,187.5
2352,E4,403.25,0.25,122,187.5
2353,G#4,403.5,0.5,127,187.5
2354,G#3,403.5,0.5,127,187.5
2355,G#3,403.5,0.5,122,187.5
2356,E2,404.0,1.0,113,187.5
2357,C#5,404.0,0.5,127,187.5
2358,G#3,404.0,0.5,127,187.5
2359,G#3,404.0,0.5,122,187.5
2360,E5,404.5,0.5,127,187.5
2361,G#3,404.5,0.5,127,187.5
2362,G#3,404.5,0.5,122,187.5
2363,C2,405.0,0.703,112,187.5
2364,G5,405.0,1.0,127,187.5
2365,G#3,405.0,0.5,127,187.5
2366,G#3,405.0,0.5,122,187.5
2367,G#3,405.5,0.5,127,187.5
2368,G#3,405.5,0.5,122,187.5
2369,E2,406.0,1.0,113,187.5
2370,B4,406.0,0.25,127,187.5
2371,G#3,406.0,0.5,127,187.5
2372,G#3,406.0,0.5,122,187.5
2373,B4,406.25,0.25,127,187.5
2374,B-4,406.5,0.25,127,187.5
2375,G#3,406.5,0.5,127,187.5
2376,G#3,406.5,0.5,122,187.5
2377,B-4,406.75,0.25,127,187.5
2378,C2,407.0,0.703,112,187.5
2379,B-3,407.0,1.0,127,187.5
2380,B-3,407.0,0.5,127,187.5
2381,B-3,407.0,0.5,122,187.5
2382,B-3,407.5,0.5,127,187.5
2383,B-3,407.5,0.5,122,187.5
2384,E2,408.0,1.0,113,187.5
2385,B-3,408.0,1.0,127,187.5
2386,B-3,408.0,0.5,127,187.5
2387,B-3,408.0,0.5,122,187.5
2388,B-3,408.5,0.5,127,187.5
2389,B-3,408.5,0.5,122,187.5
2390,C2,409.0,0.703,112,187.5
2391,C#4,409.0,0.5,127,187.5
2392,B-3,409.0,0.5,127,187.5
2393,B-3,409.0,0.5,122,187.5
2394,B-3,409.5,0.5,127,187.5
2395,B-3,409.5,0.5,127,187.5
2396,B-3,409.5,0.5,122,187.5
2397,E2,410.0,1.0,113,187.5
2398,C#4,410.0,0.5,127,187.5
2399,B-3,410.0,0.5,127,187.5
2400,B-3,410.0,0.5,122,187.5
2401,D4,410.5,0.5,127,187.5
2402,B-3,410.5,0.5,127,187.5
2403,B-3,410.5,0.5,122,187.5
2404,C2,411.0,0.703,112,187.5
2405,D4,411.0,0.5,127,187.5
2406,B-3,411.0,0.5,127,187.5
2407,B-3,411.0,0.5,122,187.5
2408,E-4,411.5,0.5,127,187.5
2409,B-3,411.5,0.5,127,187.5
2410,B-3,411.5,0.5,122,187.5
2411,E2,412.0,1.0,113,187.5
2412,F4,412.0,1.0,127,187.5
2413,B-3,412.0,0.5,127,187.5
2414,B-3,412.0,0.5,122,187.5
2415,B-3,412.5,0.5,127,187.5
2416,B-3,412.5,0.5,122,187.5
2417,C2,413.0,0.703,112,187.5
2418,G#4,413.0,0.5,127,187.5
2419,B-3,413.0,0.5,127,187.5
2420,B-3,413.0,0.5,122,187.5
2421,F4,413.5,0.5,127,187.5
2422,B-3,413.5,0.5,127,187.5
2423,B-3,413.5,0.5,122,187.5
2424,E2,414.0,1.0,113,187.5
2425,G#4,414.0,0.5,127,187.5
2426,B-3,414.0,0.5,127,187.5
2427,B-3,414.0,0.5,122,187.5
2428,A4,414.5,1.0,127,187.5
2429,B-3,414.5,0.5,127,187.5
2430,B-3,414.5,0.5,122,187.5
2431,C2,415.0,0.703,112,187.5
2432,B-3,415.0,0.5,127,187.5
2433,B-3,415.0,0.5,122,187.5
2434,B-4,415.5,0.5,127,187.5
2435,B-3,415.5,0.5,127,187.5
2436,B-3,415.5,0.5,122,187.5
2437,E2,416.0,1.0,113,187.5
2438,B-4,416.0,1.0,127,187.5
2439,B-3,416.0,0.5,127,187.5
2440,B-3,416.0,0.5,122,187.5
2441,B-3,416.5,0.5,127,187.5
2442,B-3,416.5,0.5,122,187.5
2443,C2,417.0,0.703,112,187.5
2444,G#4,417.0,0.5,127,187.5
2445,B-3,417.0,0.5,127,187.5
2446,B-3,417.0,0.5,122,187.5
2447,C#4,417.5,0.5,127,187.5
2448,B-3,417.5,0.5,127,187.5
2449,B-3,417.5,0.5,122,187.5
2450,E2,418.0,1.0,113,187.5
2451,G#4,418.0,0.5,127,187.5
2452,B-3,418.0,0.5,127,187.5
2453,B-3,418.0,0.5,122,187.5
2454,B-4,418.5,0.25,127,187.5
2455,B-3,418.5,0.5,127,187.5
2456,B-3,418.5,0.5,122,187.5
2457,B-4,418.75,0.25,127,187.5
2458,C2,419.0,0.703,112,187.5
2459,B-4,419.0,0.25,127,187.5
2460,B-3,419.0,0.5,127,187.5
2461,B-3,419.0,0.5,122,187.5
2462,B4,419.25,0.25,127,187.5
2463,B-4,419.5,0.5,127,187.5
2464,B-3,419.5,0.5,127,187.5
2465,B-3,419.5,0.5,122,187.5
2466,E2,420.0,1.0,113,187.5
2467,G#4,420.0,0.25,127,187.5
2468,B-3,420.0,0.5,127,187.5
2469,B-3,420.0,0.5,122,187.5
2470,F4,420.25,0.25,127,187.5
2471,E4,420.25,0.25,127,187.5
2472,E5,420.25,0.25,113,187.5
2473,E4,420.25,0.25,122,187.5
2474,E-4,420.5,0.5,127,187.5
2475,B-3,420.5,0.5,127,187.5
2476,B-3,420.5,0.5,122,187.5
2477,C2,421.0,0.703,112,187.5
2478,F4,421.0,0.25,127,187.5
2479,B-3,421.0,0.5,127,187.5
2480,B-3,421.0,0.5,122,187.5
2481,C#4,421.25,0.25,127,187.5
2482,B-4,421.5,0.5,127,187.5
2483,B-3,421.5,0.5,127,187.5
2484,B-3,421.5,0.5,122,187.5
2485,E2,422.0,1.0,113,187.5
2486,C#5,422.0,0.5,127,187.5
2487,B-3,422.0,0.5,127,187.5
2488,B-3,422.0,0.5,122,187.5
2489,F5,422.5,0.5,127,187.5
2490,B-3,422.5,0.5,127,187.5
2491,B-3,422.5,0.5,122,187.5
2492,C2,423.0,0.703,112,187.5
2493,B-6,423.0,0.5,127,187.5
2494,B-4,423.0,0.5,127,187.5
2495,B-3,423.0,0.5,122,187.5
2496,F6,423.5,0.25,127,187.5
2497,B-3,423.5,0.5,127,187.5
2498,B-3,423.5,0.5,122,187.5
2499,C#6,423.75,0.25,127,187.5
2500,E2,424.0,1.0,113,187.5
2501,B-5,424.0,1.0,127,187.5
2502,B-3,424.0,0.5,127,187.5
2503,B-3,424.0,0.5,122,187.5
2504,B-3,424.5,0.5,127,187.5
2505,B-3,424.5,0.5,122,187.5
2506,C2,425.0,0.703,112,187.5
2507,B5,425.0,0.25,127,187.5
2508,B-3,425.0,0.5,127,187.5
2509,B-3,425.0,0.5,122,187.5
2510,B5,425.25,0.25,127,187.5
2511,B-5,425.5,0.25,127,187.5
2512,B-3,425.5,0.5,127,187.5
2513,B-3,425.5,0.5,122,187.5
2514,B-5,425.75,0.25,127,187.5
2515,E2,426.0,1.0,113,187.5
2516,A5,426.0,0.25,127,187.5
2517,B-3,426.0,0.5,127,187.5
2518,B-3,426.0,0.5,122,187.5
2519,G#5,426.25,0.25,127,187.5
2520,G#5,426.5,0.25,127,187.5
2521,B-3,426.5,0.5,127,187.5
2522,B-3,426.5,0.5,122,187.5
2523,G#5,426.75,0.25,127,187.5
2524,C2,427.0,0.703,112,187.5
2525,E-5,427.0,0.25,127,187.5
2526,B-3,427.0,0.5,127,187.5
2527,B-3,427.0,0.5,122,187.5
2528,C#5,427.25,0.25,127,187.5
2529,B-4,427.5,0.5,127,187.5
2530,B-3,427.5,0.5,127,187.5
2531,B-3,427.5,0.5,122,187.5
2532,E2,428.0,1.0,113,187.5
2533,G#4,428.0,0.25,127,187.5
2534,B-3,428.0,0.5,127,187.5
2535,B-3,428.0,0.5,122,187.5
2536,F4,428.25,0.25,127,187.5
2537,E-4,428.5,0.5,127,187.5
2538,B-3,428.5,0.5,127,187.5
2539,B-3,428.5,0.5,122,187.5
2540,C2,429.0,0.703,112,187.5
2541,C#4,429.0,2.0,127,187.5
2542,B-3,429.0,0.5,127,187.5
2543,B-3,429.0,0.5,122,187.5
2544,B-3,429.5,0.5,127,187.5
2545,B-3,429.5,0.5,122,187.5
2546,E2,430.0,1.0,113,187.5
2547,B-3,430.0,0.5,127,187.5
2548,B-3,430.0,0.5,122,187.5
2549,B-3,430.5,0.5,127,187.5
2550,B-3,430.5,0.5,122,187.5
2551,C2,431.0,0.703,112,187.5
2552,G#3,431.0,0.5,127,187.5
2553,B-3,431.0,0.5,127,187.5
2554,B-3,431.0,0.5,122,187.5
2555,B-3,431.5,0.5,127,187.5
2556,B-3,431.5,0.5,127,187.5
2557,B-3,431.5,0.5,122,187.5
2558,E2,432.0,1.0,113,187.5
2559,C#4,432.0,0.5,127,187.5
2560,B-3,432.0,0.5,127,187.5
2561,B-3,432.0,0.5,122,187.5
2562,E-4,432.5,0.5,127,187.5
2563,B-3,432.5,0.5,127,187.5
2564,B-3,432.5,0.5,122,187.5
2565,C2,433.0,0.703,112,187.5
2566,F4,433.0,0.5,127,187.5
2567,B-3,433.0,0.5,127,187.5
2568,B-3,433.0,0.5,122,187.5
2569,G#4,433.5,0.5,127,187.5
2570,B-3,433.5,0.5,127,187.5
2571,B-3,433.5,0.5,122,187.5
2572,E2,434.0,1.0,113,187.5
2573,B-4,434.0,0.5,127,187.5
2574,B-3,434.0,0.5,127,187.5
2575,B-3,434.0,0.5,122,187.5
2576,G#4,434.5,0.5,127,187.5
2577,B-3,434.5,0.5,127,187.5
2578,B-3,434.5,0.5,122,187.5
2579,C2,435.0,0.703,112,187.5
2580,G#4,435.0,1.0,127,187.5
2581,B-3,435.0,0.5,127,187.5
2582,B-3,435.0,0.5,122,187.5
2583,B-3,435.5,0.5,127,187.5
2584,B-3,435.5,0.5,122,187.5
2585,E2,436.0,1.0,113,187.5
2586,G#4,436.0,0.25,127,187.5
2587,B-3,436.0,0.5,127,187.5
2588,B-3,436.0,0.5,122,187.5
2589,G#4,436.25,1.75,127,187.5
2590,B-3,436.5,0.5,127,187.5
2591,B-3,436.5,0.5,122,187.5
2592,C2,437.0,0.703,112,187.5
2593,B-3,437.0,0.5,127,187.5
2594,B-3,437.0,0.5,122,187.5
2595,B-3,437.5,0.5,127,187.5
2596,B-3,437.5,0.5,122,187.5
2597,E2,438.0,1.0,113,187.5
2598,G#4,438.0,0.25,127,187.5
2599,B-3,438.0,2.922,127,187.5
2600,B-3,438.0,1.0,122,187.5
2601,G#4,438.25,0.25,127,187.5
2602,G#4,438.5,0.25,127,187.5
2603,G#4,438.75,0.25,127,187.5
2604,E3,439.0,2.0,91,187.5
2605,C2,439.0,349/1000,112,187.5
2606,E4,439.0,0.25,127,187.5
2607,E4,439.25,0.25,127,187.5
2608,E4,439.5,0.25,127,187.5
2609,E4,439.75,0.25,127,187.5
2610,E2,440.0,0.531,113,187.5
2611,E4,440.0,0.25,127,187.5
2612,E4,440.25,0.25,127,187.5
2613,E4,440.5,0.25,127,187.5
2614,E4,440.75,0.25,127,187.5
2615,E3,441.0,2.0,91,187.5
2616,C2,441.0,349/1000,112,187.5
2617,E4,441.0,0.25,127,187.5
2618,E-4,441.25,0.25,127,187.5
2619,C2,441.5,349/1000,112,187.5
2620,E-4,441.5,0.25,127,187.5
2621,E-4,441.75,0.25,127,187.5
2622,E2,442.0,0.531,113,187.5
2623,E-4,442.0,0.25,127,187.5
2624,E-4,442.25,0.25,127,187.5
2625,E-4,442.5,0.25,127,187.5
2626,E-4,442.75,0.75,127,187.5
2627,C4,443.0,1.0,91,187.5
2628,C2,443.0,349/1000,112,187.5
2629,E5,443.5,0.25,127,187.5
2630,E5,443.75,0.25,127,187.5
2631,C4,444.0,3.0,91,187.5
2632,E2,444.0,0.531,113,187.5
2633,E-5,444.0,0.25,127,187.5
2634,E-5,444.25,0.25,127,187.5
2635,E-5,444.5,0.25,127,187.5
2636,E5,444.75,0.25,127,187.5
2637,C2,445.0,349/1000,112,187.5
2638,E5,445.0,0.25,127,187.5
2639,E5,445.25,0.25,127,187.5
2640,C2,445.5,349/1000,112,187.5
2641,E5,445.5,0.25,127,187.5
2642,E5,445.75,0.25,127,187.5
2643,E2,446.0,0.531,113,187.5
2644,E5,446.0,0.25,127,187.5
2645,E5,446.25,0.25,127,187.5
2646,E4,446.5,0.5,127,187.5
2647,E3,447.0,3.0,91,187.5
2648,C2,447.0,349/1000,112,187.5
2649,E4,447.0,0.25,127,187.5
2650,E4,447.25,0.25,127,187.5
2651,E4,447.5,0.25,127,187.5
2652,E4,447.75,0.25,127,187.5
2653,E2,448.0,0.531,113,187.5
2654,E-4,448.0,0.25,127,187.5
2655,E-4,448.25,0.25,127,187.5
2656,E-4,448.5,0.25,127,187.5
2657,E-4,448.75,0.25,127,187.5
2658,C2,449.0,349/1000,112,187.5
2659,E-4,449.0,0.25,127,187.5
2660,E-4,449.25,0.25,127,187.5
2661,C2,449.5,349/1000,112,187.5
2662,E-4,449.5,0.25,127,187.5
2663,E-4,449.75,0.25,127,187.5
2664,E3,450.0,1.0,91,187.5
2665,E2,450.0,0.531,113,187.5
2666,E-4,450.0,0.25,127,187.5
2667,E4,450.25,0.25,127,187.5
2668,E4,450.5,0.25,127,187.5
2669,E4,450.75,0.25,127,187.5
2670,C4,451.0,2.0,91,187.5
2671,C2,451.0,349/1000,112,187.5
2672,D4,451.0,0.25,127,187.5
2673,D4,451.25,0.25,127,187.5
2674,D4,451.5,0.25,127,187.5
2675,D4,451.75,0.25,127,187.5
2676,E2,452.0,0.531,113,187.5
2677,D4,452.0,0.25,127,187.5
2678,E-4,452.25,0.25,127,187.5
2679,E-4,452.5,0.25,127,187.5
2680,E-4,452.75,0.25,127,187.5
2681,C4,453.0,2.0,91,187.5
2682,C2,453.0,349/1000,112,187.5
2683,E-4,453.0,0.25,127,187.5
2684,E-4,453.25,0.25,127,187.5
2685,C2,453.5,349/1000,112,187.5
2686,E-4,453.5,0.25,127,187.5
2687,E-4,453.75,0.25,127,187.5
2688,E2,454.0,0.531,113,187.5
2689,E-4,454.0,0.25,127,187.5
2690,E-4,454.25,0.25,127,187.5
2691,E-4,454.5,0.25,127,187.5
2692,E4,454.75,0.25,127,187.5
2693,E3,455.0,1.0,91,187.5
2694,C2,455.0,349/1000,112,187.5
2695,C4,455.0,0.25,127,187.5
2696,C4,455.25,0.25,127,187.5
2697,C4,455.5,0.25,127,187.5
2698,C4,455.75,0.25,127,187.5
2699,E3,456.0,3.0,91,187.5
2700,E2,456.0,0.531,113,187.5
2701,C4,456.0,0.25,127,187.5
2702,C4,456.25,0.25,127,187.5
2703,C#4,456.5,0.25,127,187.5
2704,C#4,456.75,0.25,127,187.5
2705,C2,457.0,349/1000,112,187.5
2706,C#4,457.0,0.25,127,187.5
2707,C#4,457.25,0.25,127,187.5
2708,C2,457.5,349/1000,112,187.5
2709,C#4,457.5,0.25,127,187.5
2710,C#4,457.75,0.25,127,187.5
2711,E2,458.0,0.531,113,187.5
2712,C#4,458.0,0.25,127,187.5
2713,C#4,458.25,0.25,127,187.5
2714,C#4,458.5,0.25,127,187.5
2715,C#4,458.75,0.25,127,187.5
2716,C4,459.0,3.0,91,187.5
2717,C2,459.0,349/1000,112,187.5
2718,D4,459.0,0.25,127,187.5
2719,D4,459.25,0.25,127,187.5
2720,D4,459.5,0.25,127,187.5
2721,D4,459.75,0.25,127,187.5
2722,E2,460.0,0.531,113,187.5
2723,D4,460.0,0.25,127,187.5
2724,D4,460.25,0.25,127,187.5
2725,E-4,460.5,0.25,127,187.5
2726,E-4,460.75,0.25,127,187.5
2727,C2,461.0,349/1000,112,187.5
2728,E-4,461.0,0.25,127,187.5
2729,E-4,461.25,0.25,127,187.5
2730,C2,461.5,349/1000,112,187.5
2731,E-4,461.5,0.25,127,187.5
2732,E-4,461.75,0.25,127,187.5
2733,C4,462.0,1.0,91,187.5
2734,E2,462.0,0.531,113,187.5
2735,E-4,462.0,0.25,127,187.5
2736,E-4,462.25,0.25,127,187.5
2737,E-4,462.5,0.25,127,187.5
2738,E-4,462.75,0.75,127,187.5
2739,E3,463.0,2.0,91,187.5
2740,C2,463.0,349/1000,112,187.5
2741,C5,463.5,0.25,127,187.5
2742,C5,463.75,0.25,127,187.5
2743,E2,464.0,0.531,113,187.5
2744,B4,464.0,0.25,127,187.5
2745,B4,464.25,0.25,127,187.5
2746,B4,464.5,0.25,127,187.5
2747,B4,464.75,0.25,127,187.5
2748,E3,465.0,2.0,91,187.5
2749,C2,465.0,349/1000,112,187.5
2750,B4,465.0,0.25,127,187.5
2751,B4,465.25,0.25,127,187.5
2752,C2,465.5,349/1000,112,187.5
2753,B4,465.5,0.25,127,187.5
2754,B-4,465.75,0.25,127,187.5
2755,E2,466.0,0.531,113,187.5
2756,B-4,466.0,0.25,127,187.5
2757,B-4,466.25,0.25,127,187.5
2758,B-4,466.5,0.25,127,187.5
2759,B-4,466.75,0.25,127,187.5
2760,C4,467.0,1.0,91,187.5
2761,C2,467.0,349/1000,112,187.5
2762,C5,467.0,0.25,127,187.5
2763,C5,467.25,0.25,127,187.5
2764,B4,467.5,0.25,127,187.5
2765,B4,467.75,0.25,127,187.5
2766,C4,468.0,3.0,91,187.5
2767,E2,468.0,0.531,113,187.5
2768,B4,468.0,0.25,127,187.5
2769,B4,468.25,0.25,127,187.5
2770,B4,468.5,0.25,127,187.5
2771,B4,468.75,0.25,127,187.5
2772,C2,469.0,349/1000,112,187.5
2773,B4,469.0,0.25,127,187.5
2774,B-4,469.25,0.25,127,187.5
2775,C2,469.5,349/1000,112,187.5
2776,B-4,469.5,0.25,127,187.5
2777,B-4,469.75,0.25,127,187.5
2778,E2,470.0,0.5,113,187.5
2779,G4,470.0,0.25,127,187.5
2780,G4,470.25,0.25,127,187.5
2781,E2,470.5,0.5,113,187.5
2782,G4,470.5,0.25,127,187.5
2783,G4,470.75,0.25,127,187.5
2784,E4,471.0,0.5,91,187.5
2785,B4,471.0,1.5,91,187.5
2786,C2,471.0,0.703,112,187.5
2787,E4,471.0,0.5,122,187.5
2788,E3,471.5,0.5,91,187.5
2789,E4,471.5,0.5,122,187.5
2790,E3,472.0,0.5,91,187.5
2791,E2,472.0,1.0,113,187.5
2792,E4,472.0,1.0,122,187.5
2793,E3,472.5,0.5,91,187.5
2794,D4,472.5,1.5,91,187.5
2795,E3,473.0,0.5,91,187.5
2796,C2,473.0,0.703,112,187.5
2797,E4,473.0,0.5,122,187.5
2798,E3,473.5,0.5,91,187.5
2799,E4,473.5,0.5,122,187.5
2800,E3,474.0,0.5,91,187.5
2801,B4,474.0,1.5,91,187.5
2802,E2,474.0,1.0,113,187.5
2803,E4,474.0,0.5,122,187.5
2804,E3,474.5,0.5,91,187.5
2805,E4,474.5,0.5,122,187.5
2806,E3,475.0,0.5,91,187.5
2807,C2,475.0,0.703,112,187.5
2808,E4,475.0,1.0,122,187.5
2809,E3,475.5,0.5,91,187.5
2810,D4,475.5,1.5,91,187.5
2811,E3,476.0,0.5,91,187.5
2812,E2,476.0,1.0,113,187.5
2813,E4,476.0,0.5,122,187.5
2814,E3,476.5,0.5,91,187.5
2815,E4,476.5,0.5,122,187.5
2816,E3,477.0,0.5,91,187.5
2817,B4,477.0,1.0,91,187.5
2818,C2,477.0,0.703,112,187.5
2819,E4,477.0,0.5,122,187.5
2820,E3,477.5,0.5,91,187.5
2821,E4,477.5,1.0,122,187.5
2822,E3,478.0,0.5,91,187.5
2823,D4,478.0,1.0,91,187.5
2824,E2,478.0,1.0,113,187.5
2825,E3,478.5,0.5,91,187.5
2826,E4,478.5,0.5,122,187.5
2827,C4,479.0,0.5,91,187.5
2828,B4,479.0,1.0,91,187.5
2829,C2,479.0,0.703,112,187.5
2830,E4,479.0,0.5,122,187.5
2831,C4,479.5,0.5,91,187.5
2832,E4,479.5,0.5,122,187.5
2833,C4,480.0,0.5,91,187.5
2834,B4,480.0,0.5,91,187.5
2835,E2,480.0,1.0,113,187.5
2836,E4,480.0,1.0,122,187.5
2837,C4,480.5,0.5,91,187.5
2838,D4,480.5,1.5,91,187.5
2839,C4,481.0,0.5,91,187.5
2840,C2,481.0,0.703,112,187.5
2841,E4,481.0,0.5,122,187.5
2842,C4,481.5,0.5,91,187.5
2843,E4,481.5,0.5,122,187.5
2844,E2,482.0,1.0,113,187.5
2845,E4,482.0,0.5,122,187.5
2846,C4,482.0,0.5,91,187.5
2847,E4,482.0,0.5,91,187.5
2848,C4,482.5,0.5,91,187.5
2849,E4,482.5,0.5,91,187.5
2850,E4,482.5,0.5,122,187.5
2851,C4,483.0,0.5,91,187.5
2852,E4,483.0,0.5,91,187.5
2853,C2,483.0,0.703,112,187.5
2854,E4,483.0,1.0,122,187.5
2855,C4,483.5,0.5,91,187.5
2856,D4,483.5,1.5,91,187.5
2857,B3,484.0,0.5,91,187.5
2858,E2,484.0,1.0,113,187.5
2859,E4,484.0,0.5,122,187.5
2860,B3,484.5,0.5,91,187.5
2861,E4,484.5,0.5,122,187.5
2862,A3,485.0,0.5,91,187.5
2863,E4,485.0,1.0,91,187.5
2864,C2,485.0,0.703,112,187.5
2865,E4,485.0,0.5,122,187.5
2866,A3,485.5,0.5,91,187.5
2867,E4,485.5,0.5,122,187.5
2868,G3,486.0,0.5,91,187.5
2869,D4,486.0,1.0,91,187.5
2870,E2,486.0,1.0,113,187.5
2871,E4,486.0,0.5,122,187.5
2872,G3,486.5,0.5,91,187.5
2873,E4,486.5,0.5,122,187.5
2874,E4,487.0,0.5,91,187.5
2875,B4,487.0,1.5,91,187.5
2876,C2,487.0,0.703,112,187.5
2877,E4,487.0,0.5,122,187.5
2878,E3,487.5,0.5,91,187.5
2879,E4,487.5,0.5,122,187.5
2880,E3,488.0,0.5,91,187.5
2881,E2,488.0,1.0,113,187.5
2882,E4,488.0,1.0,122,187.5
2883,E3,488.5,0.5,91,187.5
2884,D4,488.5,0.5,91,187.5
2885,E3,489.0,0.5,91,187.5
2886,D4,489.0,1.0,91,187.5
2887,C2,489.0,0.703,112,187.5
2888,E4,489.0,0.5,122,187.5
2889,E3,489.5,0.5,91,187.5
2890,E4,489.5,0.5,122,187.5
2891,E3,490.0,0.5,91,187.5
2892,B4,490.0,1.5,91,187.5
2893,E2,490.0,1.0,113,187.5
2894,E4,490.0,0.5,122,187.5
2895,E3,490.5,0.5,91,187.5
2896,E4,490.5,0.5,122,187.5
2897,E3,491.0,0.5,91,187.5
2898,C2,491.0,0.703,112,187.5
2899,E4,491.0,1.0,122,187.5
2900,E3,491.5,0.5,91,187.5
2901,D4,491.5,0.5,91,187.5
2902,E3,492.0,0.5,91,187.5
2903,D4,492.0,1.0,91,187.5
2904,E2,492.0,1.0,113,187.5
2905,E4,492.0,0.5,122,187.5
2906,E3,492.5,0.5,91,187.5
2907,E4,492.5,0.5,122,187.5
2908,E3,493.0,0.5,91,187.5
2909,B4,493.0,1.0,91,187.5
2910,C2,493.0,0.703,112,187.5
2911,E4,493.0,0.5,122,187.5
2912,E3,493.5,0.5,91,187.5
2913,E4,493.5,1.0,122,187.5
2914,E3,494.0,0.5,91,187.5
2915,D4,494.0,1.0,91,187.5
2916,E2,494.0,1.0,113,187.5
2917,E3,494.5,0.5,91,187.5
2918,E4,494.5,0.5,122,187.5
2919,C4,495.0,0.5,91,187.5
2920,B4,495.0,1.5,91,187.5
2921,C2,495.0,0.703,112,187.5
2922,E4,495.0,0.5,122,187.5
2923,C4,495.5,0.5,91,187.5
2924,E4,495.5,0.5,122,187.5
2925,C4,496.0,0.5,91,187.5
2926,E2,496.0,1.0,113,187.5
2927,E4,496.0,1.0,122,187.5
2928,C4,496.5,0.5,91,187.5
2929,D4,496.5,1.5,91,187.5
2930,C4,497.0,0.5,91,187.5
2931,C2,497.0,0.703,112,187.5
2932,E4,497.0,0.5,122,187.5
2933,C4,497.5,0.5,91,187.5
2934,E4,497.5,0.5,122,187.5
2935,E2,498.0,1.0,113,187.5
2936,E4,498.0,0.5,122,187.5
2937,C4,498.0,0.5,91,187.5
2938,E4,498.0,0.5,91,187.5
2939,C4,498.5,0.5,91,187.5
2940,E4,498.5,1.0,91,187.5
2941,E4,498.5,0.5,122,187.5
2942,C4,499.0,0.5,91,187.5
2943,C2,499.0,0.703,112,187.5
2944,E4,499.0,1.0,122,187.5
2945,C4,499.5,0.5,91,187.5
2946,D4,499.5,1.5,91,187.5
2947,B3,500.0,0.5,91,187.5
2948,E2,500.0,1.0,113,187.5
2949,E4,500.0,0.5,122,187.5
2950,B3,500.5,0.5,91,187.5
2951,E4,500.5,0.5,122,187.5
2952,A3,501.0,0.5,91,187.5
2953,E4,501.0,1.0,91,187.5
2954,C2,501.0,0.703,112,187.5
2955,E4,501.0,0.5,122,187.5
2956,A3,501.5,0.5,91,187.5
2957,E4,501.5,1.0,122,187.5
2958,G3,502.0,0.5,91,187.5
2959,D4,502.0,1.0,91,187.5
2960,E2,502.0,1.0,113,187.5
2961,G3,502.5,0.5,91,187.5
2962,E4,502.5,0.5,122,187.5
2963,E4,503.0,0.5,91,187.5
2964,B4,503.0,1.0,91,187.5
2965,C2,503.0,0.703,112,187.5
2966,E4,503.0,0.5,122,187.5
2967,E3,503.5,0.5,91,187.5
2968,E4,503.5,0.5,122,187.5
2969,E3,504.0,0.5,91,187.5
2970,B4,504.0,0.5,91,187.5
2971,E2,504.0,1.0,113,187.5
2972,E4,504.0,1.0,122,187.5
2973,E3,504.5,0.5,91,187.5
2974,D4,504.5,1.5,91,187.5
2975,E3,505.0,0.5,91,187.5
2976,C2,505.0,0.703,112,187.5
2977,E4,505.0,0.5,122,187.5
2978,E3,505.5,0.5,91,187.5
2979,E4,505.5,0.5,122,187.5
2980,E3,506.0,0.5,91,187.5
2981,B4,506.0,1.0,91,187.5
2982,E2,506.0,1.0,113,187.5
2983,E4,506.0,0.5,122,187.5
2984,E3,506.5,0.5,91,187.5
2985,E4,506.5,0.5,122,187.5
2986,E3,507.0,0.5,91,187.5
2987,B4,507.0,0.5,91,187.5
2988,C2,507.0,0.703,112,187.5
2989,E4,507.0,1.0,122,187.5
2990,E3,507.5,0.5,91,187.5
2991,D4,507.5,1.5,91,187.5
2992,E3,508.0,0.5,91,187.5
2993,E2,508.0,1.0,113,187.5
2994,E4,508.0,0.5,122,187.5
2995,E3,508.5,0.5,91,187.5
2996,E4,508.5,0.5,122,187.5
2997,E3,509.0,0.5,91,187.5
2998,B4,509.0,1.0,91,187.5
2999,C2,509.0,0.703,112,187.5
3000,E4,509.0,0.5,122,187.5
3001,E3,509.5,0.5,91,187.5
3002,E4,509.5,0.5,122,187.5
3003,E3,510.0,0.5,91,187.5
3004,D4,510.0,1.0,91,187.5
3005,E2,510.0,1.0,113,187.5
3006,E4,510.0,0.5,122,187.5
3007,E3,510.5,0.5,91,187.5
3008,E4,510.5,0.5,122,187.5
3009,C4,511.0,0.5,91,187.5
3010,B4,511.0,1.5,91,187.5
3011,C2,511.0,0.703,112,187.5
3012,E4,511.0,0.5,122,187.5
3013,C4,511.5,0.5,91,187.5
3014,E4,511.5,0.5,122,187.5
3015,C4,512.0,0.5,91,187.5
3016,E2,512.0,1.0,113,187.5
3017,E4,512.0,1.0,122,187.5
3018,C4,512.5,0.5,91,187.5
3019,D4,512.5,0.5,91,187.5
3020,C4,513.0,0.5,91,187.5
3021,D4,513.0,1.0,91,187.5
3022,C2,513.0,0.703,112,187.5
3023,E4,513.0,0.5,122,187.5
3024,C4,513.5,0.5,91,187.5
3025,E4,513.5,0.5,122,187.5
3026,E2,514.0,1.0,113,187.5
3027,E4,514.0,0.5,122,187.5
3028,C4,514.0,0.5,91,187.5
3029,E4,514.0,0.5,91,187.5
3030,C4,514.5,0.5,91,187.5
3031,E4,514.5,1.0,91,187.5
3032,E4,514.5,0.5,122,187.5
3033,C4,515.0,0.5,91,187.5
3034,C2,515.0,0.703,112,187.5
3035,E4,515.0,1.0,122,187.5
3036,C4,515.5,0.5,91,187.5
3037,D4,515.5,0.5,91,187.5
3038,B3,516.0,0.5,91,187.5
3039,D4,516.0,1.0,91,187.5
3040,E2,516.0,1.0,113,187.5
3041,E4,516.0,0.5,122,187.5
3042,B3,516.5,0.5,91,187.5
3043,E4,516.5,0.5,122,187.5
3044,A3,517.0,0.5,91,187.5
3045,E4,517.0,1.0,91,187.5
3046,C2,517.0,0.703,112,187.5
3047,E4,517.0,0.5,122,187.5
3048,A3,517.5,0.5,91,187.5
3049,E4,517.5,1.0,122,187.5
3050,G3,518.0,0.5,91,187.5
3051,D4,518.0,1.0,91,187.5
3052,E2,518.0,1.0,113,187.5
3053,G3,518.5,0.5,91,187.5
3054,E4,518.5,0.5,122,187.5
3055,E4,519.0,0.5,91,187.5
3056,B4,519.0,1.5,91,187.5
3057,C2,519.0,0.703,112,187.5
3058,E4,519.0,0.5,122,187.5
3059,E3,519.5,0.5,91,187.5
3060,E4,519.5,0.5,122,187.5
3061,E3,520.0,0.5,91,187.5
3062,E2,520.0,1.0,113,187.5
3063,E4,520.0,1.0,122,187.5
3064,E3,520.5,0.5,91,187.5
3065,D4,520.5,1.5,91,187.5
3066,E3,521.0,0.5,91,187.5
3067,C2,521.0,0.703,112,187.5
3068,E4,521.0,0.5,122,187.5
3069,E3,521.5,0.5,91,187.5
3070,E4,521.5,0.5,122,187.5
3071,E3,522.0,0.5,91,187.5
3072,B4,522.0,1.5,91,187.5
3073,E2,522.0,1.0,113,187.5
3074,E4,522.0,0.5,122,187.5
3075,E3,522.5,0.5,91,187.5
3076,E4,522.5,0.5,122,187.5
3077,E3,523.0,0.5,91,187.5
3078,C2,523.0,0.703,112,187.5
3079,E4,523.0,1.0,122,187.5
3080,E3,523.5,0.5,91,187.5
3081,D4,523.5,1.5,91,187.5
3082,E3,524.0,0.5,91,187.5
3083,E2,524.0,1.0,113,187.5
3084,E4,524.0,0.5,122,187.5
3085,E3,524.5,0.5,91,187.5
3086,E4,524.5,0.5,122,187.5
3087,E3,525.0,0.5,91,187.5
3088,B4,525.0,1.0,91,187.5
3089,C2,525.0,0.703,112,187.5
3090,E4,525.0,0.5,122,187.5
3091,E3,525.5,0.5,91,187.5
3092,E4,525.5,1.0,122,187.5
3093,E3,526.0,0.5,91,187.5
3094,D4,526.0,1.0,91,187.5
3095,E2,526.0,1.0,113,187.5
3096,E3,526.5,0.5,91,187.5
3097,E4,526.5,0.5,122,187.5
3098,C4,527.0,0.5,91,187.5
3099,B4,527.0,1.0,91,187.5
3100,C2,527.0,0.703,112,187.5
3101,E4,527.0,0.5,122,187.5
3102,C4,527.5,0.5,91,187.5
3103,E4,527.5,0.5,122,187.5
3104,C4,528.0,0.5,91,187.5
3105,B4,528.0,0.5,91,187.5
3106,E2,528.0,1.0,113,187.5
3107,E4,528.0,1.0,122,187.5
3108,C4,528.5,0.5,91,187.5
3109,D4,528.5,1.5,91,187.5
3110,C4,529.0,0.5,91,187.5
3111,C2,529.0,0.703,112,187.5
3112,E4,529.0,0.5,122,187.5
3113,C4,529.5,0.5,91,187.5
3114,E4,529.5,0.5,122,187.5
3115,E2,530.0,1.0,113,187.5
3116,E4,530.0,0.5,122,187.5
3117,C4,530.0,0.5,91,187.5
3118,E4,530.0,0.5,91,187.5
3119,C4,530.5,0.5,91,187.5
3120,E4,530.5,0.5,91,187.5
3121,E4,530.5,0.5,122,187.5
3122,C4,531.0,0.5,91,187.5
3123,E4,531.0,0.5,91,187.5
3124,C2,531.0,0.703,112,187.5
3125,E4,531.0,1.0,122,187.5
3126,C4,531.5,0.5,91,187.5
3127,D4,531.5,1.5,91,187.5
3128,B3,532.0,0.5,91,187.5
3129,E2,532.0,1.0,113,187.5
3130,E4,532.0,0.5,122,187.5
3131,B3,532.5,0.5,91,187.5
3132,E4,532.5,0.5,122,187.5
3133,A3,533.0,0.5,91,187.5
3134,E4,533.0,1.0,91,187.5
3135,C2,533.0,0.703,112,187.5
3136,E4,533.0,0.5,122,187.5
3137,A3,533.5,0.5,91,187.5
3138,E4,533.5,0.5,122,187.5
3139,G3,534.0,0.5,91,187.5
3140,D4,534.0,1.0,91,187.5
3141,E2,534.0,1.0,113,187.5
3142,E4,534.0,0.5,122,187.5
3143,G3,534.5,0.5,91,187.5
3144,E4,534.5,0.5,122,187.5
3145,B4,535.0,1.0,91,187.5
3146,C2,535.0,0.703,112,187.5
3147,E3,535.0,1.0,127,187.5
3148,E3,535.0,1.0,122,187.5
3149,C#5,536.0,1.0,91,187.5
3150,E2,536.0,1.0,113,187.5
3151,E3,536.0,0.5,127,187.5
3152,E3,536.0,0.5,122,187.5
3153,E3,536.5,0.5,127,187.5
3154,E3,536.5,0.5,122,187.5
3155,C#5,537.0,0.5,91,187.5
3156,C2,537.0,0.703,112,187.5
3157,E3,537.0,0.5,127,187.5
3158,E3,537.0,0.5,122,187.5
3159,B4,537.5,1.0,91,187.5
3160,E3,537.5,0.5,127,187.5
3161,E3,537.5,0.5,122,187.5
3162,E2,538.0,1.0,113,187.5
3163,E3,538.0,0.5,127,187.5
3164,E3,538.0,0.5,122,187.5
3165,B4,538.5,1.5,91,187.5
3166,E3,538.5,0.5,127,187.5
3167,E3,538.5,0.5,122,187.5
3168,C2,539.0,0.703,112,187.5
3169,E3,539.0,0.5,127,187.5
3170,E3,539.0,0.5,122,187.5
3171,E3,539.5,0.5,127,187.5
3172,E3,539.5,0.5,122,187.5
3173,C#5,540.0,1.0,91,187.5
3174,E2,540.0,1.0,113,187.5
3175,E3,540.0,0.5,127,187.5
3176,E3,540.0,0.5,122,187.5
3177,E3,540.5,0.5,127,187.5
3178,E3,540.5,0.5,122,187.5
3179,C#5,541.0,0.5,91,187.5
3180,C2,541.0,0.703,112,187.5
3181,E3,541.0,0.5,127,187.5
3182,E3,541.0,0.5,122,187.5
3183,B4,541.5,1.0,91,187.5
3184,E3,541.5,0.5,127,187.5
3185,E3,541.5,0.5,122,187.5
3186,E2,542.0,1.0,113,187.5
3187,E3,542.0,0.5,127,187.5
3188,E3,542.0,0.5,122,187.5
3189,G4,542.5,0.5,91,187.5
3190,C4,542.5,0.5,127,187.5
3191,C4,542.5,0.5,122,187.5
3192,G4,543.0,0.5,91,187.5
3193,C2,543.0,0.703,112,187.5
3194,C4,543.0,0.5,127,187.5
3195,C4,543.0,0.5,122,187.5
3196,G4,543.5,0.5,91,187.5
3197,C4,543.5,0.5,127,187.5
3198,C4,543.5,0.5,122,187.5
3199,A4,544.0,1.0,91,187.5
3200,E2,544.0,1.0,113,187.5
3201,C4,544.0,0.5,127,187.5
3202,C4,544.0,0.5,122,187.5
3203,A3,544.5,0.5,127,187.5
3204,A3,544.5,0.5,122,187.5
3205,F#4,545.0,0.5,91,187.5
3206,C2,545.0,0.703,112,187.5
3207,C4,545.0,0.5,127,187.5
3208,C4,545.0,0.5,122,187.5
3209,B4,545.5,0.5,91,187.5
3210,C4,545.5,0.5,127,187.5
3211,C4,545.5,0.5,122,187.5
3212,B4,546.0,0.5,91,187.5
3213,E2,546.0,1.0,113,187.5
3214,C4,546.0,0.5,127,187.5
3215,C4,546.0,0.5,122,187.5
3216,G4,546.5,1.5,91,187.5
3217,C4,546.5,0.5,127,187.5
3218,C4,546.5,0.5,122,187.5
3219,C2,547.0,0.703,112,187.5
3220,C4,547.0,0.5,127,187.5
3221,C4,547.0,0.5,122,187.5
3222,C4,547.5,0.5,127,187.5
3223,C4,547.5,0.5,122,187.5
3224,G4,548.0,1.0,91,187.5
3225,E2,548.0,1.0,113,187.5
3226,C4,548.0,0.5,127,187.5
3227,C4,548.0,0.5,122,187.5
3228,C4,548.5,0.5,127,187.5
3229,C4,548.5,0.5,122,187.5
3230,G4,549.0,0.5,91,187.5
3231,C2,549.0,0.703,112,187.5
3232,C4,549.0,0.5,127,187.5
3233,C4,549.0,0.5,122,187.5
3234,G4,549.5,1.5,91,187.5
3235,C4,549.5,0.5,127,187.5
3236,C4,549.5,0.5,122,187.5
3237,E2,550.0,1.0,113,187.5
3238,C4,550.0,0.5,127,187.5
3239,C4,550.0,0.5,122,187.5
3240,C4,550.5,0.5,127,187.5
3241,C4,550.5,0.5,122,187.5
3242,B4,551.0,1.0,91,187.5
3243,C2,551.0,0.703,112,187.5
3244,E3,551.0,1.0,127,187.5
3245,E3,551.0,1.0,122,187.5
3246,C#5,552.0,1.0,91,187.5
3247,E2,552.0,1.0,113,187.5
3248,E3,552.0,0.5,127,187.5
3249,E3,552.0,0.5,122,187.5
3250,E3,552.5,0.5,127,187.5
3251,E3,552.5,0.5,122,187.5
3252,C#5,553.0,0.5,91,187.5
3253,C2,553.0,0.703,112,187.5
3254,E3,553.0,0.5,127,187.5
3255,E3,553.0,0.5,122,187.5
3256,B4,553.5,1.0,91,187.5
3257,E3,553.5,0.5,127,187.5
3258,E3,553.5,0.5,122,187.5
3259,E2,554.0,1.0,113,187.5
3260,E3,554.0,0.5,127,187.5
3261,E3,554.0,0.5,122,187.5
3262,B4,554.5,0.5,91,187.5
3263,E3,554.5,0.5,127,187.5
3264,E3,554.5,0.5,122,187.5
3265,B4,555.0,1.0,91,187.5
3266,C2,555.0,0.703,112,187.5
3267,E3,555.0,0.5,127,187.5
3268,E3,555.0,0.5,122,187.5
3269,E3,555.5,0.5,127,187.5
3270,E3,555.5,0.5,122,187.5
3271,C#5,556.0,1.0,91,187.5
3272,E2,556.0,1.0,113,187.5
3273,E3,556.0,0.5,127,187.5
3274,E3,556.0,0.5,122,187.5
3275,E3,556.5,0.5,127,187.5
3276,E3,556.5,0.5,122,187.5
3277,C#5,557.0,0.5,91,187.5
3278,C2,557.0,0.703,112,187.5
3279,E3,557.0,0.5,127,187.5
3280,E3,557.0,0.5,122,187.5
3281,B4,557.5,0.5,91,187.5
3282,E3,557.5,0.5,127,187.5
3283,E3,557.5,0.5,122,187.5
3284,B4,558.0,0.5,91,187.5
3285,E2,558.0,1.0,113,187.5
3286,E3,558.0,0.5,127,187.5
3287,E3,558.0,0.5,122,187.5
3288,G4,558.5,0.5,91,187.5
3289,C4,558.5,0.5,127,187.5
3290,C4,558.5,0.5,122,187.5
3291,G4,559.0,0.5,91,187.5
3292,C2,559.0,0.703,112,187.5
3293,C4,559.0,0.5,127,187.5
3294,C4,559.0,0.5,122,187.5
3295,G4,559.5,0.5,91,187.5
3296,C4,559.5,0.5,127,187.5
3297,C4,559.5,0.5,122,187.5
3298,A4,560.0,1.0,91,187.5
3299,E2,560.0,1.0,113,187.5
3300,C4,560.0,0.5,127,187.5
3301,C4,560.0,0.5,122,187.5
3302,A3,560.5,0.5,127,187.5
3303,A3,560.5,0.5,122,187.5
3304,F#4,561.0,0.5,91,187.5
3305,C2,561.0,0.703,112,187.5
3306,C4,561.0,0.5,127,187.5
3307,C4,561.0,0.5,122,187.5
3308,B4,561.5,1.0,91,187.5
3309,C4,561.5,0.5,127,187.5
3310,C4,561.5,0.5,122,187.5
3311,E2,562.0,1.0,113,187.5
3312,C4,562.0,0.5,127,187.5
3313,C4,562.0,0.5,122,187.5
3314,G4,562.5,1.5,91,187.5
3315,C4,562.5,0.5,127,187.5
3316,C4,562.5,0.5,122,187.5
3317,C2,563.0,0.703,112,187.5
3318,C4,563.0,0.5,127,187.5
3319,C4,563.0,0.5,122,187.5
3320,C4,563.5,0.5,127,187.5
3321,C4,563.5,0.5,122,187.5
3322,G4,564.0,1.0,91,187.5
3323,E2,564.0,1.0,113,187.5
3324,C4,564.0,0.5,127,187.5
3325,C4,564.0,0.5,122,187.5
3326,C4,564.5,0.5,127,187.5
3327,C4,564.5,0.5,122,187.5
3328,G4,565.0,0.5,91,187.5
3329,C2,565.0,0.703,112,187.5
3330,C4,565.0,0.5,127,187.5
3331,C4,565.0,0.5,122,187.5
3332,G4,565.5,1.5,91,187.5
3333,C4,565.5,0.5,127,187.5
3334,C4,565.5,0.5,122,187.5
3335,E2,566.0,1.0,113,187.5
3336,C4,566.0,0.5,127,187.5
3337,C4,566.0,0.5,122,187.5
3338,C4,566.5,0.5,127,187.5
3339,C4,566.5,0.5,122,187.5
3340,A4,567.0,1.5,51,187.5
3341,C2,567.0,0.703,112,187.5
3342,A3,567.0,1.0,127,187.5
3343,E4,567.0,1.0,122,187.5
3344,E2,568.0,1.0,113,187.5
3345,D4,568.0,0.5,127,187.5
3346,D4,568.0,0.5,122,187.5
3347,E4,568.5,1.0,51,187.5
3348,A3,568.5,0.5,127,187.5
3349,A3,568.5,0.5,122,187.5
3350,C2,569.0,0.703,112,187.5
3351,D4,569.0,0.5,127,187.5
3352,D4,569.0,0.5,122,187.5
3353,E4,569.5,0.5,51,187.5
3354,A3,569.5,0.5,127,187.5
3355,A3,569.5,0.5,122,187.5
3356,E4,570.0,0.5,51,187.5
3357,E2,570.0,1.0,113,187.5
3358,A3,570.0,0.5,127,187.5
3359,A3,570.0,0.5,122,187.5
3360,E4,570.5,1.5,51,187.5
3361,A3,570.5,0.5,127,187.5
3362,A3,570.5,0.5,122,187.5
3363,C2,571.0,0.703,112,187.5
3364,A3,571.0,0.5,127,187.5
3365,A3,571.0,0.5,122,187.5
3366,A3,571.5,0.5,127,187.5
3367,A3,571.5,0.5,122,187.5
3368,A4,572.0,1.0,51,187.5
3369,E2,572.0,1.0,113,187.5
3370,E4,572.0,0.5,127,187.5
3371,E4,572.0,0.5,122,187.5
3372,A3,572.5,0.5,127,187.5
3373,A3,572.5,0.5,122,187.5
3374,A4,573.0,0.5,51,187.5
3375,C2,573.0,0.703,112,187.5
3376,E4,573.0,0.5,127,187.5
3377,E4,573.0,0.5,122,187.5
3378,A4,573.5,0.5,51,187.5
3379,E4,573.5,0.5,127,187.5
3380,E4,573.5,0.5,122,187.5
3381,A4,574.0,2.0,51,187.5
3382,E2,574.0,1.0,113,187.5
3383,A3,574.0,0.5,127,187.5
3384,A3,574.0,0.5,122,187.5
3385,E3,574.5,0.5,127,187.5
3386,E3,574.5,0.5,122,187.5
3387,C2,575.0,0.703,112,187.5
3388,G3,575.0,1.0,127,187.5
3389,G3,575.0,1.0,122,187.5
3390,A4,576.0,3.0,51,187.5
3391,E2,576.0,1.0,113,187.5
3392,G3,576.0,0.5,127,187.5
3393,G3,576.0,0.5,122,187.5
3394,F#3,576.5,1.5,127,187.5
3395,F#3,576.5,1.5,122,187.5
3396,C2,577.0,0.703,112,187.5
3397,E2,578.0,1.0,113,187.5
3398,G3,578.0,1.0,127,187.5
3399,G3,578.0,1.0,122,187.5
3400,A4,579.0,0.328,51,187.5
3401,C2,579.0,0.703,112,187.5
3402,G3,579.0,0.5,127,187.5
3403,G3,579.0,0.5,122,187.5
3404,E3,579.5,0.5,127,187.5
3405,E3,579.5,0.5,122,187.5
3406,E2,580.0,1.0,113,187.5
3407,F#3,580.0,0.5,127,187.5
3408,F#3,580.0,0.5,122,187.5
3409,G3,580.5,0.5,127,187.5
3410,G3,580.5,0.5,122,187.5
3411,C2,581.0,0.703,112,187.5
3412,C4,581.0,0.5,127,187.5
3413,C4,581.0,0.5,122,187.5
3414,C4,581.5,0.5,91,187.5
3415,B3,581.5,0.5,127,187.5
3416,E5,581.5,0.5,113,187.5
3417,E5,581.5,0.5,113,187.5
3418,B3,581.5,0.5,122,187.5
3419,B3,581.5,0.5,122,187.5
3420,E2,582.0,1.0,113,187.5
3421,G3,582.0,0.5,127,187.5
3422,G3,582.0,0.5,122,187.5
3423,F#3,582.5,0.5,127,187.5
3424,F#3,582.5,0.5,122,187.5
3425,C#3,583.0,2.0,118,187.5
3426,C2,583.0,0.703,112,187.5
3427,E3,583.0,0.5,127,187.5
3428,E3,583.0,0.5,122,187.5
3429,E3,583.5,0.5,127,187.5
3430,E3,583.5,0.5,122,187.5
3431,E2,584.0,1.0,113,187.5
3432,F#3,584.0,0.5,127,187.5
3433,F#3,584.0,0.5,122,187.5
3434,E3,584.5,0.5,127,187.5
3435,E3,584.5,0.5,122,187.5
3436,C#3,585.0,56/25,118,187.5
3437,C2,585.0,0.703,112,187.5
3438,F#3,585.0,0.5,127,187.5
3439,F#3,585.0,0.5,122,187.5
3440,G3,585.5,0.5,127,187.5
3441,G3,585.5,0.5,122,187.5
3442,E2,586.0,1.0,113,187.5
3443,E3,586.0,0.5,127,187.5
3444,E3,586.0,0.5,122,187.5
3445,E3,586.5,0.5,127,187.5
3446,E3,586.5,0.5,122,187.5
3447,C2,587.0,0.703,112,187.5
3448,F#3,587.0,0.5,127,187.5
3449,F#3,587.0,0.5,122,187.5
3450,E3,587.5,0.5,127,187.5
3451,E3,587.5,0.5,122,187.5
3452,E2,588.0,1.0,113,187.5
3453,E3,588.0,0.5,127,187.5
3454,E3,588.0,0.5,122,187.5
3455,G3,588.5,0.5,127,187.5
3456,G3,588.5,0.5,122,187.5
3457,C2,589.0,0.703,112,187.5
3458,E3,589.0,0.5,127,187.5
3459,E3,589.0,0.5,122,187.5
3460,F4,589.5,0.5,127,187.5
3461,E3,589.5,0.5,127,187.5
3462,C4,589.5,0.5,71,187.5
3463,C4,589.5,0.5,71,187.5
3464,E5,589.5,0.5,113,187.5
3465,E5,589.5,0.5,113,187.5
3466,E3,589.5,0.5,122,187.5
3467,B3,589.5,0.5,122,187.5
3468,E2,590.0,1.0,113,187.5
3469,F#3,590.0,0.5,127,187.5
3470,F#3,590.0,0.5,122,187.5
3471,G3,590.5,0.5,127,187.5
3472,G3,590.5,0.5,122,187.5
3473,E2,591.0,1.0,113,187.5
3474,G3,591.0,1.5,127,187.5
3475,G3,591.0,1.5,122,187.5
3476,C2,592.0,0.5,112,187.5
3477,E2,592.5,1.0,113,187.5
3478,F#3,592.5,1.5,127,187.5
3479,F#3,592.5,1.5,122,187.5
3480,C2,593.5,0.5,112,187.5
3481,E2,594.0,1.0,113,187.5
3482,G3,594.0,1.5,127,187.5
3483,G3,594.0,1.5,122,187.5
3484,C2,595.0,0.703,112,187.5
3485,E3,595.5,0.5,127,187.5
3486,E3,595.5,0.5,122,187.5
3487,B2,596.0,0.25,127,187.5
3488,F#3,596.0,0.5,127,187.5
3489,F#3,596.0,0.5,122,187.5
3490,B2,596.25,0.25,127,187.5
3491,B2,596.5,0.25,127,187.5
3492,G3,596.5,0.5,127,187.5
3493,G3,596.5,0.5,122,187.5
3494,B2,596.75,0.25,127,187.5
3495,C2,597.0,0.703,112,187.5
3496,C4,597.0,0.5,127,187.5
3497,C4,597.0,0.5,122,187.5
3498,F4,597.5,0.5,127,187.5
3499,B3,597.5,0.5,127,187.5
3500,C4,597.5,0.5,71,187.5
3501,C4,597.5,0.5,71,187.5
3502,E5,597.5,0.5,113,187.5
3503,E5,597.5,0.5,113,187.5
3504,B3,597.5,0.5,122,187.5
3505,B3,597.5,0.5,122,187.5
3506,B2,598.0,0.25,127,187.5
3507,G3,598.0,0.5,127,187.5
3508,G3,598.0,0.5,122,187.5
3509,B2,598.25,0.25,127,187.5
3510,B2,598.5,0.25,127,187.5
3511,F#3,598.5,0.5,127,187.5
3512,F#3,598.5,0.5,122,187.5
3513,B2,598.75,0.25,127,187.5
3514,C#3,599.0,1.0,118,187.5
3515,C2,599.0,0.703,112,187.5
3516,E3,599.0,0.5,127,187.5
3517,E3,599.0,0.5,122,187.5
3518,E3,599.5,0.5,127,187.5
3519,E3,599.5,0.5,122,187.5
3520,C#3,600.0,3.0,118,187.5
3521,E2,600.0,1.0,113,187.5
3522,F#3,600.0,0.5,127,187.5
3523,F#3,600.0,0.5,122,187.5
3524,E3,600.5,0.5,127,187.5
3525,E3,600.5,0.5,122,187.5
3526,C2,601.0,0.703,112,187.5
3527,F#3,601.0,0.5,127,187.5
3528,F#3,601.0,0.5,122,187.5
3529,G3,601.5,0.5,127,187.5
3530,G3,601.5,0.5,122,187.5
3531,E2,602.0,1.0,113,187.5
3532,E3,602.0,0.5,127,187.5
3533,E3,602.0,0.5,122,187.5
3534,E3,602.5,0.5,127,187.5
3535,E3,602.5,0.5,122,187.5
3536,C#3,603.0,6/25,118,187.5
3537,C2,603.0,0.703,112,187.5
3538,F#3,603.0,0.5,127,187.5
3539,F#3,603.0,0.5,122,187.5
3540,E3,603.5,0.5,127,187.5
3541,E3,603.5,0.5,122,187.5
3542,E2,604.0,1.0,113,187.5
3543,E3,604.0,0.5,127,187.5
3544,E3,604.0,0.5,122,187.5
3545,G3,604.5,0.5,127,187.5
3546,G3,604.5,0.5,122,187.5
3547,C2,605.0,0.703,112,187.5
3548,E3,605.0,0.5,127,187.5
3549,E3,605.0,0.5,122,187.5
3550,F4,605.5,0.5,127,187.5
3551,E3,605.5,0.5,127,187.5
3552,C4,605.5,0.5,71,187.5
3553,C4,605.5,0.5,71,187.5
3554,E5,605.5,0.5,113,187.5
3555,E5,605.5,0.5,113,187.5
3556,E3,605.5,0.5,122,187.5
3557,B3,605.5,0.5,122,187.5
3558,E2,606.0,1.0,113,187.5
3559,F#3,606.0,0.5,127,187.5
3560,F#3,606.0,0.5,122,187.5
3561,G3,606.5,0.5,127,187.5
3562,G3,606.5,0.5,122,187.5
3563,E2,607.0,1.0,113,187.5
3564,G3,607.0,1.5,127,187.5
3565,G3,607.0,1.5,122,187.5
3566,C2,608.0,0.5,112,187.5
3567,E2,608.5,0.5,113,187.5
3568,F#3,608.5,0.5,127,187.5
3569,F#3,608.5,0.5,122,187.5
3570,E2,609.0,0.5,113,187.5
3571,F#3,609.0,1.0,127,187.5
3572,F#3,609.0,1.0,122,187.5
3573,C2,609.5,0.5,112,187.5
3574,E2,610.0,1.0,113,187.5
3575,G3,610.0,1.5,127,187.5
3576,G3,610.0,1.5,122,187.5
3577,C2,611.0,0.703,112,187.5
3578,E3,611.5,0.5,127,187.5
3579,E3,611.5,0.5,122,187.5
3580,E2,612.0,1.0,113,187.5
3581,F#3,612.0,0.5,127,187.5
3582,F#3,612.0,0.5,122,187.5
3583,G3,612.5,0.5,127,187.5
3584,G3,612.5,0.5,122,187.5
3585,C2,613.0,0.703,112,187.5
3586,C4,613.0,0.5,127,187.5
3587,C4,613.0,0.5,122,187.5
3588,F4,613.5,0.5,127,187.5
3589,B3,613.5,0.5,127,187.5
3590,C4,613.5,0.5,71,187.5
3591,C4,613.5,0.5,71,187.5
3592,E5,613.5,0.5,113,187.5
3593,E5,613.5,0.5,113,187.5
3594,B3,613.5,0.5,122,187.5
3595,B3,613.5,0.5,122,187.5
3596,E2,614.0,1.0,113,187.5
3597,G3,614.0,0.5,127,187.5
3598,G3,614.0,0.5,122,187.5
3599,F#3,614.5,0.5,127,187.5
3600,F#3,614.5,0.5,122,187.5
3601,E3,615.0,3.0,91,187.5
3602,C#3,615.0,1.5,118,187.5
3603,E2,615.0,267/250,113,187.5
3604,E3,615.0,3.0,127,187.5
3605,C2,616.5,0.5,112,187.5
3606,C2,616.5,0.703,112,187.5
3607,B2,617.0,0.25,127,187.5
3608,B2,617.25,0.5,127,187.5
3609,B2,617.75,0.25,127,187.5
3610,E3,618.0,1.0,91,187.5
3611,B2,618.0,0.5,127,187.5
3612,E3,618.0,113/100,127,187.5
3613,B2,618.5,0.25,127,187.5
3614,B2,618.75,0.25,127,187.5
3615,E3,619.0,0.25,91,187.5
3616,B2,619.0,0.25,127,187.5
3617,E3,619.25,0.25,91,187.5
3618,B2,619.25,0.25,127,187.5
3619,E3,619.5,0.25,91,187.5
3620,B2,619.5,0.25,127,187.5
3621,E3,619.75,0.25,91,187.5
3622,B2,619.75,0.75,127,187.5
3623,C2,620.0,0.5,112,187.5
3624,D4,620.0,0.5,127,187.5
3625,D4,620.0,0.5,122,187.5
3626,C#3,620.5,0.5,118,187.5
3627,E2,620.5,0.5,113,187.5
3628,E3,620.5,0.5,127,187.5
3629,E3,620.5,0.5,122,187.5
3630,C#3,621.0,3.0,118,187.5
3631,E2,621.0,71/125,113,187.5
3632,E3,621.0,3.0,127,187.5
3633,E3,621.0,3.0,122,187.5
3634,C#3,624.0,101/200,118,187.5
3635,E3,624.0,63/100,127,187.5
3636,E3,624.0,2.297,122,187.5
