,note_name,start_time,duration,velocity,tempo
0,C3,0.0,1.0,95,122.0
1,C4,0.0,4.0,95,122.0
2,G4,0.0,4.0,95,122.0
3,E-4,0.0,4.0,95,122.0
4,C3,1.0,1.0,95,122.0
5,C3,2.0,0.5,95,122.0
6,C3,2.5,0.5,95,122.0
7,C3,3.0,0.5,95,122.0
8,E-3,3.5,0.5,95,122.0
9,G3,4.0,1.0,95,122.0
10,G3,5.0,0.5,95,122.0
11,G3,5.5,1.5,95,122.0
12,G3,7.5,0.5,95,122.0
13,F3,8.0,1.0,95,122.0
14,C4,8.0,4.0,95,122.0
15,G4,8.0,4.0,95,122.0
16,E-4,8.0,4.0,95,122.0
17,F3,9.0,0.5,95,122.0
18,F3,9.5,1.0,95,122.0
19,G3,11.5,0.5,95,122.0
20,D3,12.0,1.0,95,122.0
21,C4,12.0,4.0,95,122.0
22,G4,12.0,4.0,95,122.0
23,D4,12.0,4.0,95,122.0
24,D3,13.0,0.5,95,122.0
25,D3,13.5,1.0,95,122.0
26,C3,16.0,1.0,95,122.0
27,C4,16.0,4.0,95,122.0
28,D4,16.0,4.0,95,122.0
29,F4,16.0,4.0,95,122.0
30,C3,17.0,1.0,95,122.0
31,C3,18.0,0.5,95,122.0
32,C3,18.5,0.5,95,122.0
33,C3,19.0,0.5,95,122.0
34,E-3,19.5,0.5,95,122.0
35,G3,20.0,1.0,95,122.0
36,C4,20.0,4.0,95,122.0
37,G4,20.0,4.0,95,122.0
38,E-4,20.0,4.0,95,122.0
39,G3,21.0,0.5,95,122.0
40,G3,21.5,1.5,95,122.0
41,B-3,23.5,0.5,95,122.0
42,B-3,24.0,1.0,95,122.0
43,C4,24.0,4.0,95,122.0
44,G4,24.0,4.0,95,122.0
45,D4,24.0,4.0,95,122.0
46,B-2,24.0,0.5,95,122.0
47,F2,24.0,0.5,95,122.0
48,C2,24.0,0.5,95,122.0
49,F2,24.5,0.5,95,122.0
50,C2,24.5,0.5,95,122.0
51,D3,25.0,0.5,95,122.0
52,B-2,25.0,0.5,90,122.0
53,F2,25.0,0.5,90,122.0
54,C2,25.0,0.5,90,122.0
55,D3,25.5,1.0,95,122.0
56,B-2,25.5,0.5,90,122.0
57,F2,25.5,0.5,90,122.0
58,C2,25.5,0.5,90,122.0
59,B-2,26.0,0.5,90,122.0
60,F2,26.0,0.5,90,122.0
61,C2,26.0,0.5,90,122.0
62,B-2,26.5,0.5,90,122.0
63,F2,26.5,0.5,90,122.0
64,C2,26.5,0.5,90,122.0
65,B-2,27.0,0.5,90,122.0
66,F2,27.0,0.5,90,122.0
67,C2,27.0,0.5,90,122.0
68,B-3,27.5,0.5,95,122.0
69,B-2,27.5,0.5,90,122.0
70,F2,27.5,0.5,90,122.0
71,C2,27.5,0.5,90,122.0
72,B-3,28.0,1.0,95,122.0
73,C4,28.0,4.0,95,122.0
74,D4,28.0,4.0,95,122.0
75,F4,28.0,4.0,95,122.0
76,B-2,28.0,0.5,95,122.0
77,F2,28.0,0.5,95,122.0
78,C2,28.0,0.5,95,122.0
79,B-2,28.5,0.5,95,122.0
80,F2,28.5,0.5,95,122.0
81,C2,28.5,0.5,95,122.0
82,D3,29.0,0.5,95,122.0
83,B-2,29.0,0.5,95,122.0
84,F2,29.0,0.5,95,122.0
85,C2,29.0,0.5,95,122.0
86,D3,29.5,1.0,95,122.0
87,B-2,29.5,0.5,95,122.0
88,F2,29.5,0.5,95,122.0
89,C2,29.5,0.5,95,122.0
90,B-2,30.0,0.5,95,122.0
91,F2,30.0,0.5,95,122.0
92,C2,30.0,0.5,95,122.0
93,B-2,30.5,0.5,95,122.0
94,F2,30.5,0.5,95,122.0
95,C2,30.5,0.5,95,122.0
96,A3,31.0,1.0,95,122.0
97,D2,31.0,1.0,95,122.0
98,C1,32.0,0.5,95,122.0
99,C3,32.0,1.0,95,122.0
100,C4,32.0,4.0,95,122.0
101,G2,32.0,0.5,95,122.0
102,C2,32.0,0.5,95,122.0
103,G2,32.0,0.5,95,122.0
104,C2,32.0,0.5,95,122.0
105,D4,32.0,4.0,95,122.0
106,F4,32.0,4.0,95,122.0
107,B-2,32.0,0.5,95,122.0
108,C2,32.0,0.5,95,122.0
109,C1,32.5,0.5,95,122.0
110,B-2,32.5,0.5,95,122.0
111,G2,32.5,0.5,95,122.0
112,C2,32.5,0.5,95,122.0
113,G2,32.5,0.5,95,122.0
114,C2,32.5,0.5,95,122.0
115,C1,33.0,0.5,95,122.0
116,C3,33.0,1.0,95,122.0
117,G2,33.0,0.5,95,122.0
118,C2,33.0,0.5,95,122.0
119,G2,33.0,0.5,95,122.0
120,C2,33.0,0.5,95,122.0
121,B-2,33.0,0.5,95,122.0
122,D2,33.0,0.5,95,122.0
123,C1,33.5,0.5,95,122.0
124,B-2,33.5,0.5,95,122.0
125,G2,33.5,0.5,95,122.0
126,C2,33.5,0.5,95,122.0
127,G2,33.5,0.5,95,122.0
128,C2,33.5,0.5,95,122.0
129,C1,34.0,0.5,95,122.0
130,C3,34.0,0.5,95,122.0
131,G2,34.0,0.5,95,122.0
132,C2,34.0,0.5,95,122.0
133,G2,34.0,0.5,95,122.0
134,C2,34.0,0.5,95,122.0
135,B-2,34.0,0.5,95,122.0
136,C2,34.0,0.5,95,122.0
137,C1,34.5,0.5,95,122.0
138,C3,34.5,0.5,95,122.0
139,B-2,34.5,0.5,95,122.0
140,G2,34.5,0.5,95,122.0
141,C2,34.5,0.5,95,122.0
142,G2,34.5,0.5,95,122.0
143,C2,34.5,0.5,95,122.0
144,C1,35.0,0.5,95,122.0
145,C3,35.0,0.5,95,122.0
146,G2,35.0,0.5,95,122.0
147,C2,35.0,0.5,95,122.0
148,G2,35.0,0.5,95,122.0
149,C2,35.0,0.5,95,122.0
150,B-2,35.0,0.5,95,122.0
151,D2,35.0,0.5,95,122.0
152,C1,35.5,0.5,95,122.0
153,E-3,35.5,0.5,95,122.0
154,B-2,35.5,0.5,95,122.0
155,G2,35.5,0.5,95,122.0
156,C2,35.5,0.5,95,122.0
157,G2,35.5,0.5,95,122.0
158,C2,35.5,0.5,95,122.0
159,C1,36.0,0.5,95,122.0
160,G3,36.0,1.0,95,122.0
161,G2,36.0,0.5,95,122.0
162,C2,36.0,0.5,95,122.0
163,G2,36.0,0.5,95,122.0
164,C2,36.0,0.5,95,122.0
165,B-2,36.0,0.5,95,122.0
166,C2,36.0,0.5,95,122.0
167,C1,36.5,0.5,95,122.0
168,B-2,36.5,0.5,95,122.0
169,G2,36.5,0.5,95,122.0
170,C2,36.5,0.5,95,122.0
171,G2,36.5,0.5,95,122.0
172,C2,36.5,0.5,95,122.0
173,C1,37.0,0.5,95,122.0
174,G3,37.0,0.5,95,122.0
175,G2,37.0,0.5,95,122.0
176,C2,37.0,0.5,95,122.0
177,G2,37.0,0.5,95,122.0
178,C2,37.0,0.5,95,122.0
179,B-2,37.0,0.5,95,122.0
180,D2,37.0,0.5,95,122.0
181,C1,37.5,0.5,95,122.0
182,G3,37.5,1.5,95,122.0
183,B-2,37.5,0.5,95,122.0
184,G2,37.5,0.5,95,122.0
185,C2,37.5,0.5,95,122.0
186,G2,37.5,0.5,95,122.0
187,C2,37.5,0.5,95,122.0
188,C1,38.0,0.5,95,122.0
189,G2,38.0,0.5,95,122.0
190,C2,38.0,0.5,95,122.0
191,G2,38.0,0.5,95,122.0
192,C2,38.0,0.5,95,122.0
193,B-2,38.0,0.5,95,122.0
194,C2,38.0,0.5,95,122.0
195,C1,38.5,0.5,95,122.0
196,B-2,38.5,0.5,95,122.0
197,G2,38.5,0.5,95,122.0
198,C2,38.5,0.5,95,122.0
199,G2,38.5,0.5,95,122.0
200,C2,38.5,0.5,95,122.0
201,C1,39.0,0.5,95,122.0
202,G2,39.0,0.5,95,122.0
203,C2,39.0,0.5,95,122.0
204,G2,39.0,0.5,95,122.0
205,C2,39.0,0.5,95,122.0
206,B-2,39.0,0.5,95,122.0
207,D2,39.0,0.5,95,122.0
208,C1,39.5,0.5,95,122.0
209,G3,39.5,0.5,95,122.0
210,B-2,39.5,0.5,95,122.0
211,G2,39.5,0.5,95,122.0
212,C2,39.5,0.5,95,122.0
213,G2,39.5,0.5,95,122.0
214,C2,39.5,0.5,95,122.0
215,D1,40.0,0.5,95,122.0
216,F3,40.0,1.0,95,122.0
217,A2,40.0,0.5,95,122.0
218,D2,40.0,0.5,95,122.0
219,A2,40.0,0.5,95,122.0
220,D2,40.0,0.5,95,122.0
221,B-2,40.0,0.5,95,122.0
222,C2,40.0,0.5,95,122.0
223,D1,40.5,0.5,95,122.0
224,B-2,40.5,0.5,95,122.0
225,A2,40.5,0.5,95,122.0
226,D2,40.5,0.5,95,122.0
227,A2,40.5,0.5,95,122.0
228,D2,40.5,0.5,95,122.0
229,D1,41.0,0.5,95,122.0
230,F3,41.0,0.5,95,122.0
231,A2,41.0,0.5,95,122.0
232,D2,41.0,0.5,95,122.0
233,A2,41.0,0.5,95,122.0
234,D2,41.0,0.5,95,122.0
235,B-2,41.0,0.5,95,122.0
236,D2,41.0,0.5,95,122.0
237,D1,41.5,0.5,95,122.0
238,F3,41.5,1.0,95,122.0
239,B-2,41.5,0.5,95,122.0
240,A2,41.5,0.5,95,122.0
241,D2,41.5,0.5,95,122.0
242,A2,41.5,0.5,95,122.0
243,D2,41.5,0.5,95,122.0
244,D1,42.0,0.5,95,122.0
245,A2,42.0,0.5,95,122.0
246,D2,42.0,0.5,95,122.0
247,A2,42.0,0.5,95,122.0
248,D2,42.0,0.5,95,122.0
249,B-2,42.0,0.5,95,122.0
250,C2,42.0,0.5,95,122.0
251,D1,42.5,0.5,95,122.0
252,B-2,42.5,0.5,95,122.0
253,A2,42.5,0.5,95,122.0
254,D2,42.5,0.5,95,122.0
255,A2,42.5,0.5,95,122.0
256,D2,42.5,0.5,95,122.0
257,D1,43.0,0.5,95,122.0
258,A2,43.0,0.5,95,122.0
259,D2,43.0,0.5,95,122.0
260,A2,43.0,0.5,95,122.0
261,D2,43.0,0.5,95,122.0
262,B-2,43.0,0.5,95,122.0
263,D2,43.0,0.5,95,122.0
264,D1,43.5,0.5,95,122.0
265,G3,43.5,0.5,95,122.0
266,B-2,43.5,0.5,95,122.0
267,A2,43.5,0.5,95,122.0
268,D2,43.5,0.5,95,122.0
269,A2,43.5,0.5,95,122.0
270,D2,43.5,0.5,95,122.0
271,D1,44.0,0.5,95,122.0
272,D3,44.0,1.0,95,122.0
273,A2,44.0,0.5,95,122.0
274,D2,44.0,0.5,95,122.0
275,A2,44.0,0.5,95,122.0
276,D2,44.0,0.5,95,122.0
277,B-2,44.0,0.5,95,122.0
278,C2,44.0,0.5,95,122.0
279,D1,44.5,0.5,95,122.0
280,B-2,44.5,0.5,95,122.0
281,A2,44.5,0.5,95,122.0
282,D2,44.5,0.5,95,122.0
283,A2,44.5,0.5,95,122.0
284,D2,44.5,0.5,95,122.0
285,D1,45.0,0.5,95,122.0
286,D3,45.0,0.5,95,122.0
287,A2,45.0,0.5,95,122.0
288,D2,45.0,0.5,95,122.0
289,A2,45.0,0.5,95,122.0
290,D2,45.0,0.5,95,122.0
291,B-2,45.0,0.5,95,122.0
292,D2,45.0,0.5,95,122.0
293,D1,45.5,0.5,95,122.0
294,D3,45.5,1.0,95,122.0
295,B-2,45.5,0.5,95,122.0
296,A2,45.5,0.5,95,122.0
297,D2,45.5,0.5,95,122.0
298,A2,45.5,0.5,95,122.0
299,D2,45.5,0.5,95,122.0
300,D1,46.0,0.5,95,122.0
301,A2,46.0,0.5,95,122.0
302,D2,46.0,0.5,95,122.0
303,A2,46.0,0.5,95,122.0
304,D2,46.0,0.5,95,122.0
305,B-2,46.0,0.5,95,122.0
306,C2,46.0,0.5,95,122.0
307,D1,46.5,0.5,95,122.0
308,B-2,46.5,0.5,95,122.0
309,A2,46.5,0.5,95,122.0
310,D2,46.5,0.5,95,122.0
311,A2,46.5,0.5,95,122.0
312,D2,46.5,0.5,95,122.0
313,D1,47.0,0.5,95,122.0
314,A2,47.0,0.5,95,122.0
315,D2,47.0,0.5,95,122.0
316,A2,47.0,0.5,95,122.0
317,D2,47.0,0.5,95,122.0
318,B-2,47.0,0.5,95,122.0
319,D2,47.0,0.5,95,122.0
320,D1,47.5,0.5,95,122.0
321,B-2,47.5,0.5,95,122.0
322,A2,47.5,0.5,95,122.0
323,D2,47.5,0.5,95,122.0
324,A2,47.5,0.5,95,122.0
325,D2,47.5,0.5,95,122.0
326,C1,48.0,0.5,95,122.0
327,C3,48.0,1.0,95,122.0
328,G2,48.0,0.5,95,122.0
329,C2,48.0,0.5,95,122.0
330,G2,48.0,0.5,95,122.0
331,C2,48.0,0.5,95,122.0
332,B-2,48.0,0.5,95,122.0
333,C2,48.0,0.5,95,122.0
334,C1,48.5,0.5,95,122.0
335,B-2,48.5,0.5,95,122.0
336,G2,48.5,0.5,95,122.0
337,C2,48.5,0.5,95,122.0
338,G2,48.5,0.5,95,122.0
339,C2,48.5,0.5,95,122.0
340,C1,49.0,0.5,95,122.0
341,C3,49.0,1.0,95,122.0
342,G2,49.0,0.5,95,122.0
343,C2,49.0,0.5,95,122.0
344,G2,49.0,0.5,95,122.0
345,C2,49.0,0.5,95,122.0
346,B-2,49.0,0.5,95,122.0
347,D2,49.0,0.5,95,122.0
348,C1,49.5,0.5,95,122.0
349,B-2,49.5,0.5,95,122.0
350,G2,49.5,0.5,95,122.0
351,C2,49.5,0.5,95,122.0
352,G2,49.5,0.5,95,122.0
353,C2,49.5,0.5,95,122.0
354,C1,50.0,0.5,95,122.0
355,C3,50.0,0.5,95,122.0
356,G2,50.0,0.5,95,122.0
357,C2,50.0,0.5,95,122.0
358,G2,50.0,0.5,95,122.0
359,C2,50.0,0.5,95,122.0
360,B-2,50.0,0.5,95,122.0
361,C2,50.0,0.5,95,122.0
362,C1,50.5,0.5,95,122.0
363,C3,50.5,0.5,95,122.0
364,B-2,50.5,0.5,95,122.0
365,G2,50.5,0.5,95,122.0
366,C2,50.5,0.5,95,122.0
367,G2,50.5,0.5,95,122.0
368,C2,50.5,0.5,95,122.0
369,C1,51.0,0.5,95,122.0
370,C3,51.0,0.5,95,122.0
371,G2,51.0,0.5,95,122.0
372,C2,51.0,0.5,95,122.0
373,G2,51.0,0.5,95,122.0
374,C2,51.0,0.5,95,122.0
375,B-2,51.0,0.5,95,122.0
376,D2,51.0,0.5,95,122.0
377,C1,51.5,0.5,95,122.0
378,E-3,51.5,0.5,95,122.0
379,B-2,51.5,0.5,95,122.0
380,G2,51.5,0.5,95,122.0
381,C2,51.5,0.5,95,122.0
382,G2,51.5,0.5,95,122.0
383,C2,51.5,0.5,95,122.0
384,E-1,52.0,0.5,95,122.0
385,G3,52.0,1.0,95,122.0
386,B-2,52.0,0.5,95,122.0
387,E-2,52.0,0.5,95,122.0
388,B-2,52.0,0.5,95,122.0
389,E-2,52.0,0.5,95,122.0
390,B-2,52.0,0.5,95,122.0
391,C2,52.0,0.5,95,122.0
392,E-1,52.5,0.5,95,122.0
393,B-2,52.5,0.5,95,122.0
394,B-2,52.5,0.5,95,122.0
395,E-2,52.5,0.5,95,122.0
396,B-2,52.5,0.5,95,122.0
397,E-2,52.5,0.5,95,122.0
398,E-1,53.0,0.5,95,122.0
399,G3,53.0,0.5,95,122.0
400,B-2,53.0,0.5,95,122.0
401,E-2,53.0,0.5,95,122.0
402,B-2,53.0,0.5,95,122.0
403,E-2,53.0,0.5,95,122.0
404,B-2,53.0,0.5,95,122.0
405,D2,53.0,0.5,95,122.0
406,E-1,53.5,0.5,95,122.0
407,G3,53.5,1.5,95,122.0
408,B-2,53.5,0.5,95,122.0
409,B-2,53.5,0.5,95,122.0
410,E-2,53.5,0.5,95,122.0
411,B-2,53.5,0.5,95,122.0
412,E-2,53.5,0.5,95,122.0
413,E-1,54.0,0.5,95,122.0
414,B-2,54.0,0.5,95,122.0
415,E-2,54.0,0.5,95,122.0
416,B-2,54.0,0.5,95,122.0
417,E-2,54.0,0.5,95,122.0
418,B-2,54.0,0.5,95,122.0
419,C2,54.0,0.5,95,122.0
420,E-1,54.5,0.5,95,122.0
421,B-2,54.5,0.5,95,122.0
422,B-2,54.5,0.5,95,122.0
423,E-2,54.5,0.5,95,122.0
424,B-2,54.5,0.5,95,122.0
425,E-2,54.5,0.5,95,122.0
426,E-1,55.0,0.5,95,122.0
427,B-2,55.0,0.5,95,122.0
428,E-2,55.0,0.5,95,122.0
429,B-2,55.0,0.5,95,122.0
430,E-2,55.0,0.5,95,122.0
431,B-2,55.0,0.5,95,122.0
432,D2,55.0,0.5,95,122.0
433,E-1,55.5,0.5,95,122.0
434,B-3,55.5,0.5,95,122.0
435,B-2,55.5,0.5,95,122.0
436,B-2,55.5,0.5,95,122.0
437,E-2,55.5,0.5,95,122.0
438,B-2,55.5,0.5,95,122.0
439,E-2,55.5,0.5,95,122.0
440,D1,56.0,0.5,95,122.0
441,B-3,56.0,1.0,95,122.0
442,A2,56.0,0.5,95,122.0
443,D2,56.0,0.5,95,122.0
444,A2,56.0,0.5,95,122.0
445,D2,56.0,0.5,95,122.0
446,B-2,56.0,0.5,95,122.0
447,C2,56.0,0.5,95,122.0
448,D1,56.5,0.5,95,122.0
449,B-2,56.5,0.5,95,122.0
450,A2,56.5,0.5,95,122.0
451,D2,56.5,0.5,95,122.0
452,A2,56.5,0.5,95,122.0
453,D2,56.5,0.5,95,122.0
454,D1,57.0,0.5,95,122.0
455,D3,57.0,0.5,95,122.0
456,A2,57.0,0.5,95,122.0
457,D2,57.0,0.5,95,122.0
458,A2,57.0,0.5,95,122.0
459,D2,57.0,0.5,95,122.0
460,B-2,57.0,0.5,95,122.0
461,D2,57.0,0.5,95,122.0
462,D1,57.5,0.5,95,122.0
463,D3,57.5,1.0,95,122.0
464,B-2,57.5,0.5,95,122.0
465,A2,57.5,0.5,95,122.0
466,D2,57.5,0.5,95,122.0
467,A2,57.5,0.5,95,122.0
468,D2,57.5,0.5,95,122.0
469,D1,58.0,0.5,95,122.0
470,A2,58.0,0.5,95,122.0
471,D2,58.0,0.5,95,122.0
472,A2,58.0,0.5,95,122.0
473,D2,58.0,0.5,95,122.0
474,B-2,58.0,0.5,95,122.0
475,C2,58.0,0.5,95,122.0
476,D1,58.5,0.5,95,122.0
477,B-2,58.5,0.5,95,122.0
478,A2,58.5,0.5,95,122.0
479,D2,58.5,0.5,95,122.0
480,A2,58.5,0.5,95,122.0
481,D2,58.5,0.5,95,122.0
482,D1,59.0,0.5,95,122.0
483,A2,59.0,0.5,95,122.0
484,D2,59.0,0.5,95,122.0
485,A2,59.0,0.5,95,122.0
486,D2,59.0,0.5,95,122.0
487,B-2,59.0,0.5,95,122.0
488,D2,59.0,0.5,95,122.0
489,D1,59.5,0.5,95,122.0
490,B-3,59.5,0.5,95,122.0
491,B-2,59.5,0.5,95,122.0
492,A2,59.5,0.5,95,122.0
493,D2,59.5,0.5,95,122.0
494,A2,59.5,0.5,95,122.0
495,D2,59.5,0.5,95,122.0
496,F1,60.0,0.5,95,122.0
497,B-3,60.0,1.0,95,122.0
498,C3,60.0,0.5,95,122.0
499,F2,60.0,0.5,95,122.0
500,C3,60.0,0.5,95,122.0
501,F2,60.0,0.5,95,122.0
502,B-2,60.0,0.5,95,122.0
503,C2,60.0,0.5,95,122.0
504,F1,60.5,0.5,95,122.0
505,B-2,60.5,0.5,95,122.0
506,C3,60.5,0.5,95,122.0
507,F2,60.5,0.5,95,122.0
508,C3,60.5,0.5,95,122.0
509,F2,60.5,0.5,95,122.0
510,F1,61.0,0.5,95,122.0
511,D3,61.0,0.5,95,122.0
512,C3,61.0,0.5,95,122.0
513,F2,61.0,0.5,95,122.0
514,C3,61.0,0.5,95,122.0
515,F2,61.0,0.5,95,122.0
516,B-2,61.0,0.5,95,122.0
517,D2,61.0,0.5,95,122.0
518,F1,61.5,0.5,95,122.0
519,D3,61.5,1.0,95,122.0
520,B-2,61.5,0.5,95,122.0
521,C3,61.5,0.5,95,122.0
522,F2,61.5,0.5,95,122.0
523,C3,61.5,0.5,95,122.0
524,F2,61.5,0.5,95,122.0
525,F1,62.0,0.5,95,122.0
526,C3,62.0,0.5,95,122.0
527,F2,62.0,0.5,95,122.0
528,C3,62.0,0.5,95,122.0
529,F2,62.0,0.5,95,122.0
530,B-2,62.0,0.5,95,122.0
531,C2,62.0,0.5,95,122.0
532,F1,62.5,0.5,95,122.0
533,B-2,62.5,0.5,95,122.0
534,C3,62.5,0.5,95,122.0
535,F2,62.5,0.5,95,122.0
536,C3,62.5,0.5,95,122.0
537,F2,62.5,0.5,95,122.0
538,F1,63.0,0.5,95,122.0
539,C3,63.0,0.5,95,122.0
540,F2,63.0,0.5,95,122.0
541,C3,63.0,0.5,95,122.0
542,F2,63.0,0.5,95,122.0
543,B-2,63.0,0.5,95,122.0
544,D2,63.0,0.5,95,122.0
545,F1,63.5,0.5,95,122.0
546,B-2,63.5,0.5,95,122.0
547,C3,63.5,0.5,95,122.0
548,F2,63.5,0.5,95,122.0
549,C3,63.5,0.5,95,122.0
550,F2,63.5,0.5,95,122.0
551,D3,64.0,0.5,95,122.0
552,G2,64.0,0.25,86,122.0
553,C2,64.0,0.5,95,122.0
554,C1,64.0,0.5,95,122.0
555,G#2,64.0,0.5,95,122.0
556,C2,64.0,0.5,95,122.0
557,F3,64.5,0.5,95,122.0
558,A2,64.5,0.25,86,122.0
559,D2,64.5,0.5,95,122.0
560,D1,64.5,0.5,95,122.0
561,G#2,64.5,0.5,95,122.0
562,A3,65.0,3.0,95,122.0
563,A2,65.0,0.25,86,122.0
564,D2,65.0,0.5,95,122.0
565,D1,65.0,0.5,95,122.0
566,G#2,65.0,0.5,95,122.0
567,D2,65.0,0.5,95,122.0
568,A2,65.5,0.25,86,122.0
569,D2,65.5,0.5,95,122.0
570,D1,65.5,0.5,95,122.0
571,G#2,65.5,0.5,95,122.0
572,D1,66.0,0.5,95,122.0
573,A2,66.0,0.5,95,122.0
574,D2,66.0,0.5,95,122.0
575,G#2,66.0,0.5,95,122.0
576,C2,66.0,0.5,95,122.0
577,G#2,66.5,0.5,95,122.0
578,G#2,67.0,0.5,95,122.0
579,D2,67.0,0.5,95,122.0
580,A2,67.5,0.25,86,122.0
581,D2,67.5,0.5,95,122.0
582,D1,67.5,0.5,95,122.0
583,G#2,67.5,0.5,95,122.0
584,A3,68.0,4.0,95,122.0
585,A2,68.0,0.25,86,122.0
586,D2,68.0,0.5,95,122.0
587,D1,68.0,0.5,95,122.0
588,G#2,68.0,0.5,95,122.0
589,C2,68.0,0.5,95,122.0
590,A2,68.5,0.25,86,122.0
591,D2,68.5,0.5,95,122.0
592,D1,68.5,0.5,95,122.0
593,G#2,68.5,0.5,95,122.0
594,A2,69.0,0.25,86,122.0
595,D2,69.0,0.5,95,122.0
596,D1,69.0,0.5,95,122.0
597,G#2,69.0,0.5,95,122.0
598,D2,69.0,0.5,95,122.0
599,G#2,69.5,0.5,95,122.0
600,A2,70.0,0.5,95,122.0
601,D2,70.0,0.25,86,122.0
602,D1,70.0,0.5,95,122.0
603,G#2,70.0,0.5,95,122.0
604,C2,70.0,0.5,95,122.0
605,A2,70.5,0.5,95,122.0
606,D2,70.5,0.25,86,122.0
607,D1,70.5,0.5,95,122.0
608,G#2,70.5,0.5,95,122.0
609,A2,71.0,0.5,95,122.0
610,D2,71.0,0.25,86,122.0
611,D1,71.0,0.5,95,122.0
612,G#2,71.0,0.5,95,122.0
613,D2,71.0,0.5,95,122.0
614,G2,71.5,0.5,95,122.0
615,C2,71.5,0.25,86,122.0
616,C1,71.5,0.5,95,122.0
617,G#2,71.5,0.5,95,122.0
618,G2,72.0,0.25,86,122.0
619,C2,72.0,0.5,95,122.0
620,C1,72.0,0.5,95,122.0
621,G#2,72.0,0.5,95,122.0
622,C2,72.0,0.5,95,122.0
623,A2,72.5,0.25,86,122.0
624,D2,72.5,0.5,95,122.0
625,D1,72.5,0.5,95,122.0
626,G#2,72.5,0.5,95,122.0
627,A2,73.0,0.25,86,122.0
628,D2,73.0,0.5,95,122.0
629,D1,73.0,0.5,95,122.0
630,G#2,73.0,0.5,95,122.0
631,D2,73.0,0.5,95,122.0
632,A2,73.5,0.25,86,122.0
633,D2,73.5,0.5,95,122.0
634,D1,73.5,0.5,95,122.0
635,G#2,73.5,0.5,95,122.0
636,D1,74.0,0.5,95,122.0
637,A2,74.0,0.5,95,122.0
638,D2,74.0,0.5,95,122.0
639,G#2,74.0,0.5,95,122.0
640,C2,74.0,0.5,95,122.0
641,G#2,74.5,0.5,95,122.0
642,G#2,75.0,0.5,95,122.0
643,D2,75.0,0.5,95,122.0
644,A2,75.5,0.25,86,122.0
645,D2,75.5,0.5,95,122.0
646,D1,75.5,0.5,95,122.0
647,G#2,75.5,0.5,95,122.0
648,A2,76.0,0.25,86,122.0
649,D2,76.0,0.5,95,122.0
650,D1,76.0,0.5,95,122.0
651,G#2,76.0,0.5,95,122.0
652,C2,76.0,0.5,95,122.0
653,A2,76.5,0.25,86,122.0
654,D2,76.5,0.5,95,122.0
655,D1,76.5,0.5,95,122.0
656,G#2,76.5,0.5,95,122.0
657,A2,77.0,0.25,86,122.0
658,D2,77.0,0.5,95,122.0
659,D1,77.0,0.5,95,122.0
660,G#2,77.0,0.5,95,122.0
661,D2,77.0,0.5,95,122.0
662,G#2,77.5,0.5,95,122.0
663,C3,78.0,0.5,95,122.0
664,F2,78.0,0.25,86,122.0
665,F1,78.0,0.5,95,122.0
666,G#2,78.0,0.5,95,122.0
667,C2,78.0,0.5,95,122.0
668,C3,78.5,0.5,95,122.0
669,F2,78.5,0.25,86,122.0
670,F1,78.5,0.5,95,122.0
671,G#2,78.5,0.5,95,122.0
672,G2,79.0,0.5,95,122.0
673,C2,79.0,0.25,86,122.0
674,C1,79.0,0.5,95,122.0
675,G#2,79.0,0.5,95,122.0
676,D2,79.0,0.5,95,122.0
677,G2,79.5,0.5,95,122.0
678,C2,79.5,0.25,86,122.0
679,C1,79.5,0.5,95,122.0
680,G#2,79.5,0.5,95,122.0
681,D3,80.0,0.5,95,122.0
682,G2,80.0,0.25,86,122.0
683,C2,80.0,0.5,95,122.0
684,C1,80.0,0.5,95,122.0
685,G#2,80.0,0.5,95,122.0
686,A3,80.0,0.5,95,122.0
687,C2,80.0,0.5,95,122.0
688,F3,80.5,0.5,95,122.0
689,A2,80.5,0.25,86,122.0
690,D2,80.5,0.5,95,122.0
691,D1,80.5,0.5,95,122.0
692,G#2,80.5,0.5,95,122.0
693,A3,81.0,3.0,95,122.0
694,A2,81.0,0.25,86,122.0
695,D2,81.0,0.5,95,122.0
696,D1,81.0,0.5,95,122.0
697,G#2,81.0,0.5,95,122.0
698,D2,81.0,0.5,95,122.0
699,A2,81.5,0.25,86,122.0
700,D2,81.5,0.5,95,122.0
701,D1,81.5,0.5,95,122.0
702,G#2,81.5,0.5,95,122.0
703,D1,82.0,0.5,95,122.0
704,A2,82.0,0.5,95,122.0
705,D2,82.0,0.5,95,122.0
706,G#2,82.0,0.5,95,122.0
707,C2,82.0,0.5,95,122.0
708,G#2,82.5,0.5,95,122.0
709,G#2,83.0,0.5,95,122.0
710,D2,83.0,0.5,95,122.0
711,A2,83.5,0.25,86,122.0
712,D2,83.5,0.5,95,122.0
713,D1,83.5,0.5,95,122.0
714,G#2,83.5,0.5,95,122.0
715,A3,84.0,4.0,95,122.0
716,A2,84.0,0.25,86,122.0
717,D2,84.0,0.5,95,122.0
718,D1,84.0,0.5,95,122.0
719,G#2,84.0,0.5,95,122.0
720,C2,84.0,0.5,95,122.0
721,A2,84.5,0.25,86,122.0
722,D2,84.5,0.5,95,122.0
723,D1,84.5,0.5,95,122.0
724,G#2,84.5,0.5,95,122.0
725,A2,85.0,0.25,86,122.0
726,D2,85.0,0.5,95,122.0
727,D1,85.0,0.5,95,122.0
728,G#2,85.0,0.5,95,122.0
729,D2,85.0,0.5,95,122.0
730,G#2,85.5,0.5,95,122.0
731,A2,86.0,0.5,95,122.0
732,D2,86.0,0.25,86,122.0
733,D1,86.0,0.5,95,122.0
734,G#2,86.0,0.5,95,122.0
735,C2,86.0,0.5,95,122.0
736,A2,86.5,0.5,95,122.0
737,D2,86.5,0.25,86,122.0
738,D1,86.5,0.5,95,122.0
739,G#2,86.5,0.5,95,122.0
740,A2,87.0,0.5,95,122.0
741,D2,87.0,0.25,86,122.0
742,D1,87.0,0.5,95,122.0
743,G#2,87.0,0.5,95,122.0
744,D2,87.0,0.5,95,122.0
745,G2,87.5,0.5,95,122.0
746,C2,87.5,0.25,86,122.0
747,C1,87.5,0.5,95,122.0
748,G#2,87.5,0.5,95,122.0
749,G2,88.0,0.25,86,122.0
750,C2,88.0,0.5,95,122.0
751,C1,88.0,0.5,95,122.0
752,G#2,88.0,0.5,95,122.0
753,C2,88.0,0.5,95,122.0
754,A2,88.5,0.25,86,122.0
755,D2,88.5,0.5,95,122.0
756,D1,88.5,0.5,95,122.0
757,G#2,88.5,0.5,95,122.0
758,A2,89.0,0.25,86,122.0
759,D2,89.0,0.5,95,122.0
760,D1,89.0,0.5,95,122.0
761,G#2,89.0,0.5,95,122.0
762,D2,89.0,0.5,95,122.0
763,A2,89.5,0.25,86,122.0
764,D2,89.5,0.5,95,122.0
765,D1,89.5,0.5,95,122.0
766,G#2,89.5,0.5,95,122.0
767,D1,90.0,0.5,95,122.0
768,A2,90.0,0.5,95,122.0
769,D2,90.0,0.5,95,122.0
770,G#2,90.0,0.5,95,122.0
771,C2,90.0,0.5,95,122.0
772,G#2,90.5,0.5,95,122.0
773,G#2,91.0,0.5,95,122.0
774,D2,91.0,0.5,95,122.0
775,A2,91.5,0.25,86,122.0
776,D2,91.5,0.5,95,122.0
777,D1,91.5,0.5,95,122.0
778,G#2,91.5,0.5,95,122.0
779,A2,92.0,0.25,86,122.0
780,D2,92.0,0.5,95,122.0
781,D1,92.0,0.5,95,122.0
782,G#2,92.0,0.5,95,122.0
783,C2,92.0,0.5,95,122.0
784,A2,92.5,0.25,86,122.0
785,D2,92.5,0.5,95,122.0
786,D1,92.5,0.5,95,122.0
787,G#2,92.5,0.5,95,122.0
788,A2,93.0,0.25,86,122.0
789,D2,93.0,0.5,95,122.0
790,D1,93.0,0.5,95,122.0
791,G#2,93.0,0.5,95,122.0
792,D2,93.0,0.5,95,122.0
793,G#2,93.5,0.5,95,122.0
794,C3,94.0,0.5,95,122.0
795,F2,94.0,0.25,86,122.0
796,F1,94.0,0.5,95,122.0
797,G#2,94.0,0.5,95,122.0
798,C2,94.0,0.5,95,122.0
799,C3,94.5,0.5,95,122.0
800,F2,94.5,0.25,86,122.0
801,F1,94.5,0.5,95,122.0
802,G#2,94.5,0.5,95,122.0
803,G2,95.0,0.5,95,122.0
804,C2,95.0,0.25,86,122.0
805,C1,95.0,0.5,95,122.0
806,G#2,95.0,0.5,95,122.0
807,D2,95.0,0.5,95,122.0
808,G2,95.5,0.5,95,122.0
809,C2,95.5,0.25,86,122.0
810,C1,95.5,0.5,95,122.0
811,G#2,95.5,0.5,95,122.0
812,D3,96.0,0.5,95,122.0
813,G2,96.0,0.25,86,122.0
814,C2,96.0,0.5,95,122.0
815,C1,96.0,0.5,95,122.0
816,G#2,96.0,0.5,95,122.0
817,C2,96.0,0.5,95,122.0
818,F3,96.5,0.5,95,122.0
819,A2,96.5,0.25,86,122.0
820,D2,96.5,0.5,95,122.0
821,D1,96.5,0.5,95,122.0
822,G#2,96.5,0.5,95,122.0
823,A3,97.0,3.0,95,122.0
824,A2,97.0,0.25,86,122.0
825,D2,97.0,0.5,95,122.0
826,D1,97.0,0.5,95,122.0
827,G#2,97.0,0.5,95,122.0
828,D2,97.0,0.5,95,122.0
829,A2,97.5,0.25,86,122.0
830,D2,97.5,0.5,95,122.0
831,D1,97.5,0.5,95,122.0
832,G#2,97.5,0.5,95,122.0
833,A2,98.0,0.25,86,122.0
834,D2,98.0,0.5,95,122.0
835,D1,98.0,0.5,95,122.0
836,G#2,98.0,0.5,95,122.0
837,C2,98.0,0.5,95,122.0
838,G#2,98.5,0.5,95,122.0
839,G#2,99.0,0.5,95,122.0
840,D2,99.0,0.5,95,122.0
841,A2,99.5,0.25,86,122.0
842,D2,99.5,0.5,95,122.0
843,D1,99.5,0.5,95,122.0
844,G#2,99.5,0.5,95,122.0
845,A3,100.0,4.0,95,122.0
846,A2,100.0,0.25,86,122.0
847,D2,100.0,0.5,95,122.0
848,D1,100.0,0.5,95,122.0
849,A4,100.0,4.0,95,122.0
850,F4,100.0,4.0,95,122.0
851,G#2,100.0,0.5,95,122.0
852,C2,100.0,0.5,95,122.0
853,A2,100.5,0.25,86,122.0
854,D2,100.5,0.5,95,122.0
855,D1,100.5,0.5,95,122.0
856,G#2,100.5,0.5,95,122.0
857,A2,101.0,0.25,86,122.0
858,D2,101.0,0.5,95,122.0
859,D1,101.0,0.5,95,122.0
860,G#2,101.0,0.5,95,122.0
861,D2,101.0,0.5,95,122.0
862,G#2,101.5,0.5,95,122.0
863,A2,102.0,0.25,86,122.0
864,D2,102.0,0.5,95,122.0
865,D1,102.0,0.5,95,122.0
866,G#2,102.0,0.5,95,122.0
867,C2,102.0,0.5,95,122.0
868,A2,102.5,0.25,86,122.0
869,D2,102.5,0.5,95,122.0
870,D1,102.5,0.5,95,122.0
871,G#2,102.5,0.5,95,122.0
872,A2,103.0,0.25,86,122.0
873,D2,103.0,0.5,95,122.0
874,D1,103.0,0.5,95,122.0
875,G#2,103.0,0.5,95,122.0
876,D2,103.0,0.5,95,122.0
877,A2,103.5,0.25,86,122.0
878,D2,103.5,0.5,95,122.0
879,D1,103.5,0.5,95,122.0
880,G#2,103.5,0.5,95,122.0
881,E3,104.0,0.5,95,122.0
882,B2,104.0,0.25,86,122.0
883,E2,104.0,0.5,95,122.0
884,E1,104.0,0.5,95,122.0
885,A4,104.0,4.0,95,122.0
886,F4,104.0,4.0,95,122.0
887,G#2,104.0,0.5,95,122.0
888,C2,104.0,0.5,95,122.0
889,G3,104.5,0.5,95,122.0
890,B2,104.5,0.25,86,122.0
891,E2,104.5,0.5,95,122.0
892,E1,104.5,0.5,95,122.0
893,G#2,104.5,0.5,95,122.0
894,B3,105.0,3.0,95,122.0
895,B2,105.0,0.25,86,122.0
896,E2,105.0,0.5,95,122.0
897,E1,105.0,0.5,95,122.0
898,G#2,105.0,0.5,95,122.0
899,D2,105.0,0.5,95,122.0
900,B2,105.5,0.25,86,122.0
901,E2,105.5,0.5,95,122.0
902,E1,105.5,0.5,95,122.0
903,G#2,105.5,0.5,95,122.0
904,B2,106.0,0.25,86,122.0
905,E2,106.0,0.5,95,122.0
906,E1,106.0,0.5,95,122.0
907,G#2,106.0,0.5,95,122.0
908,C2,106.0,0.5,95,122.0
909,G#2,106.5,0.5,95,122.0
910,G#2,107.0,0.5,95,122.0
911,D2,107.0,0.5,95,122.0
912,B2,107.5,0.25,86,122.0
913,E2,107.5,0.5,95,122.0
914,E1,107.5,0.5,95,122.0
915,G#2,107.5,0.5,95,122.0
916,B3,108.0,4.0,95,122.0
917,B2,108.0,0.25,86,122.0
918,E2,108.0,0.5,95,122.0
919,E1,108.0,0.5,95,122.0
920,E4,108.0,4.0,95,122.0
921,A4,108.0,4.0,95,122.0
922,G#2,108.0,0.5,95,122.0
923,C2,108.0,0.5,95,122.0
924,B2,108.5,0.25,86,122.0
925,E2,108.5,0.5,95,122.0
926,E1,108.5,0.5,95,122.0
927,G#2,108.5,0.5,95,122.0
928,B2,109.0,0.25,86,122.0
929,E2,109.0,0.5,95,122.0
930,E1,109.0,0.5,95,122.0
931,G#2,109.0,0.5,95,122.0
932,D2,109.0,0.5,95,122.0
933,G#2,109.5,0.5,95,122.0
934,B2,110.0,0.25,86,122.0
935,E2,110.0,0.5,95,122.0
936,E1,110.0,0.5,95,122.0
937,G#2,110.0,0.5,95,122.0
938,C2,110.0,0.5,95,122.0
939,B2,110.5,0.25,86,122.0
940,E2,110.5,0.5,95,122.0
941,E1,110.5,0.5,95,122.0
942,G#2,110.5,0.5,95,122.0
943,B2,111.0,0.25,86,122.0
944,E2,111.0,0.5,95,122.0
945,E1,111.0,0.5,95,122.0
946,G#2,111.0,0.5,95,122.0
947,D2,111.0,0.5,95,122.0
948,B2,111.5,0.25,86,122.0
949,E2,111.5,0.5,95,122.0
950,E1,111.5,0.5,95,122.0
951,G#2,111.5,0.5,95,122.0
952,G2,112.0,0.25,86,122.0
953,C2,112.0,0.5,95,122.0
954,C1,112.0,0.5,95,122.0
955,E4,112.0,4.0,95,122.0
956,A4,112.0,1.0,95,122.0
957,G#2,112.0,0.5,95,122.0
958,C2,112.0,0.5,95,122.0
959,A2,112.5,0.25,86,122.0
960,D2,112.5,0.5,95,122.0
961,D1,112.5,0.5,95,122.0
962,G#2,112.5,0.5,95,122.0
963,A2,113.0,0.25,86,122.0
964,D2,113.0,0.5,95,122.0
965,D1,113.0,0.5,95,122.0
966,G4,113.0,1.0,95,122.0
967,G#2,113.0,0.5,95,122.0
968,D2,113.0,0.5,95,122.0
969,A2,113.5,0.25,86,122.0
970,D2,113.5,0.5,95,122.0
971,D1,113.5,0.5,95,122.0
972,G#2,113.5,0.5,95,122.0
973,A2,114.0,0.25,86,122.0
974,D2,114.0,0.5,95,122.0
975,D1,114.0,0.5,95,122.0
976,E4,114.0,2.0,95,122.0
977,G#2,114.0,0.5,95,122.0
978,C2,114.0,0.5,95,122.0
979,G#2,114.5,0.5,95,122.0
980,G#2,115.0,0.5,95,122.0
981,D2,115.0,0.5,95,122.0
982,A2,115.5,0.25,86,122.0
983,D2,115.5,0.5,95,122.0
984,D1,115.5,0.5,95,122.0
985,G#2,115.5,0.5,95,122.0
986,C3,116.0,0.25,86,122.0
987,F2,116.0,0.5,95,122.0
988,F1,116.0,0.5,95,122.0
989,A4,116.0,4.0,95,122.0
990,F4,116.0,4.0,95,122.0
991,G#2,116.0,0.5,95,122.0
992,C2,116.0,0.5,95,122.0
993,C3,116.5,0.25,86,122.0
994,F2,116.5,0.5,95,122.0
995,F1,116.5,0.5,95,122.0
996,G#2,116.5,0.5,95,122.0
997,C3,117.0,0.25,86,122.0
998,F2,117.0,0.5,95,122.0
999,F1,117.0,0.5,95,122.0
1000,G#2,117.0,0.5,95,122.0
1001,D2,117.0,0.5,95,122.0
1002,G#2,117.5,0.5,95,122.0
1003,C3,118.0,0.25,86,122.0
1004,F2,118.0,0.5,95,122.0
1005,F1,118.0,0.5,95,122.0
1006,G#2,118.0,0.5,95,122.0
1007,C2,118.0,0.5,95,122.0
1008,C3,118.5,0.25,86,122.0
1009,F2,118.5,0.5,95,122.0
1010,F1,118.5,0.5,95,122.0
1011,G#2,118.5,0.5,95,122.0
1012,C3,119.0,0.25,86,122.0
1013,F2,119.0,0.5,95,122.0
1014,F1,119.0,0.5,95,122.0
1015,G#2,119.0,0.5,95,122.0
1016,D2,119.0,0.5,95,122.0
1017,C3,119.5,0.25,86,122.0
1018,F2,119.5,0.5,95,122.0
1019,F1,119.5,0.5,95,122.0
1020,G#2,119.5,0.5,95,122.0
1021,E3,120.0,0.5,95,122.0
1022,B2,120.0,0.25,86,122.0
1023,E2,120.0,0.5,95,122.0
1024,E1,120.0,0.5,95,122.0
1025,E4,120.0,4.0,95,122.0
1026,A4,120.0,4.0,95,122.0
1027,G#2,120.0,0.5,95,122.0
1028,C2,120.0,0.5,95,122.0
1029,G3,120.5,0.5,95,122.0
1030,B2,120.5,0.25,86,122.0
1031,E2,120.5,0.5,95,122.0
1032,E1,120.5,0.5,95,122.0
1033,G#2,120.5,0.5,95,122.0
1034,B3,121.0,3.0,95,122.0
1035,B2,121.0,0.25,86,122.0
1036,E2,121.0,0.5,95,122.0
1037,E1,121.0,0.5,95,122.0
1038,G#2,121.0,0.5,95,122.0
1039,D2,121.0,0.5,95,122.0
1040,B2,121.5,0.25,86,122.0
1041,E2,121.5,0.5,95,122.0
1042,E1,121.5,0.5,95,122.0
1043,G#2,121.5,0.5,95,122.0
1044,B2,122.0,0.25,86,122.0
1045,E2,122.0,0.5,95,122.0
1046,E1,122.0,0.5,95,122.0
1047,G#2,122.0,0.5,95,122.0
1048,C2,122.0,0.5,95,122.0
1049,G#2,122.5,0.5,95,122.0
1050,G#2,123.0,0.5,95,122.0
1051,D2,123.0,0.5,95,122.0
1052,B2,123.5,0.25,86,122.0
1053,E2,123.5,0.5,95,122.0
1054,E1,123.5,0.5,95,122.0
1055,G#2,123.5,0.5,95,122.0
1056,B3,124.0,4.0,95,122.0
1057,B2,124.0,0.25,86,122.0
1058,E2,124.0,0.5,95,122.0
1059,E1,124.0,0.5,95,122.0
1060,G4,124.0,4.0,95,122.0
1061,E4,124.0,4.0,95,122.0
1062,G#2,124.0,0.5,95,122.0
1063,C2,124.0,0.5,95,122.0
1064,B2,124.5,0.25,86,122.0
1065,E2,124.5,0.5,95,122.0
1066,E1,124.5,0.5,95,122.0
1067,G#2,124.5,0.5,95,122.0
1068,B2,125.0,0.25,86,122.0
1069,E2,125.0,0.5,95,122.0
1070,E1,125.0,0.5,95,122.0
1071,G#2,125.0,0.5,95,122.0
1072,D2,125.0,0.5,95,122.0
1073,G#2,125.5,0.5,95,122.0
1074,B2,126.0,0.25,86,122.0
1075,E2,126.0,0.5,95,122.0
1076,E1,126.0,0.5,95,122.0
1077,B-2,126.0,0.5,95,122.0
1078,C2,126.0,0.5,95,122.0
1079,B2,126.5,0.25,86,122.0
1080,E2,126.5,0.5,95,122.0
1081,E1,126.5,0.5,95,122.0
1082,B-2,126.5,0.5,95,122.0
1083,B2,127.0,0.25,86,122.0
1084,E2,127.0,0.5,95,122.0
1085,E1,127.0,0.5,95,122.0
1086,B-2,127.0,0.5,95,122.0
1087,D2,127.0,0.5,95,122.0
1088,B2,127.5,0.25,86,122.0
1089,E2,127.5,0.5,95,122.0
1090,E1,127.5,0.5,95,122.0
1091,B-2,127.5,0.5,95,122.0
1092,G4,128.0,4.0,95,122.0
1093,E4,128.0,4.0,95,122.0
1094,B-2,128.0,0.5,95,122.0
1095,C2,128.0,0.5,95,122.0
1096,B-2,128.5,0.5,95,122.0
1097,C2,128.5,0.5,95,122.0
1098,B-2,129.0,0.5,95,122.0
1099,B2,129.0,0.5,95,122.0
1100,C2,129.0,0.5,95,122.0
1101,B-2,129.5,0.5,95,122.0
1102,A2,129.5,0.5,95,122.0
1103,C2,129.5,0.5,95,122.0
1104,B-2,130.0,0.5,95,122.0
1105,G2,130.0,0.5,95,122.0
1106,C2,130.0,0.5,95,122.0
1107,B-2,130.5,0.5,95,122.0
1108,B-2,131.0,0.5,95,122.0
1109,C2,131.0,0.5,95,122.0
1110,B-2,131.5,0.5,95,122.0
1111,C2,131.5,0.5,95,122.0
1112,B-2,132.0,0.5,95,122.0
1113,D2,132.0,0.5,95,122.0
1114,B-2,132.5,0.5,95,122.0
1115,B-2,133.0,0.5,95,122.0
1116,D2,133.0,0.5,95,122.0
1117,C2,133.0,0.5,95,122.0
1118,B-2,133.5,0.5,95,122.0
1119,D2,133.5,0.5,95,122.0
1120,B-2,134.0,0.5,95,122.0
1121,D2,134.0,0.5,95,122.0
1122,B-2,134.5,0.5,95,122.0
1123,D2,134.5,0.5,95,122.0
1124,B-2,135.0,0.5,95,122.0
1125,D2,135.0,0.5,95,122.0
1126,B-2,135.5,0.5,95,122.0
1127,D2,135.5,0.5,95,122.0
1128,C1,136.0,0.5,95,122.0
1129,G2,136.0,0.5,95,122.0
1130,C2,136.0,0.5,95,122.0
1131,G2,136.0,0.5,95,122.0
1132,C2,136.0,0.5,95,122.0
1133,B-2,136.0,0.5,95,122.0
1134,C2,136.0,0.5,95,122.0
1135,C1,136.5,0.5,95,122.0
1136,B-2,136.5,0.5,95,122.0
1137,G2,136.5,0.5,95,122.0
1138,C2,136.5,0.5,95,122.0
1139,G2,136.5,0.5,95,122.0
1140,C2,136.5,0.5,95,122.0
1141,C1,137.0,0.5,95,122.0
1142,G2,137.0,0.5,95,122.0
1143,C2,137.0,0.5,95,122.0
1144,G2,137.0,0.5,95,122.0
1145,C2,137.0,0.5,95,122.0
1146,B-2,137.0,0.5,95,122.0
1147,D2,137.0,0.5,95,122.0
1148,C1,137.5,0.5,95,122.0
1149,B-2,137.5,0.5,95,122.0
1150,G2,137.5,0.5,95,122.0
1151,C2,137.5,0.5,95,122.0
1152,G2,137.5,0.5,95,122.0
1153,C2,137.5,0.5,95,122.0
1154,C1,138.0,0.5,95,122.0
1155,G2,138.0,0.5,95,122.0
1156,C2,138.0,0.5,95,122.0
1157,G2,138.0,0.5,95,122.0
1158,C2,138.0,0.5,95,122.0
1159,B-2,138.0,0.5,95,122.0
1160,C2,138.0,0.5,95,122.0
1161,C1,138.5,0.5,95,122.0
1162,B-2,138.5,0.5,95,122.0
1163,G2,138.5,0.5,95,122.0
1164,C2,138.5,0.5,95,122.0
1165,G2,138.5,0.5,95,122.0
1166,C2,138.5,0.5,95,122.0
1167,C1,139.0,0.5,95,122.0
1168,G2,139.0,0.5,95,122.0
1169,C2,139.0,0.5,95,122.0
1170,G2,139.0,0.5,95,122.0
1171,C2,139.0,0.5,95,122.0
1172,B-2,139.0,0.5,95,122.0
1173,D2,139.0,0.5,95,122.0
1174,C1,139.5,0.5,95,122.0
1175,B-2,139.5,0.5,95,122.0
1176,G2,139.5,0.5,95,122.0
1177,C2,139.5,0.5,95,122.0
1178,G2,139.5,0.5,95,122.0
1179,C2,139.5,0.5,95,122.0
1180,C1,140.0,0.5,95,122.0
1181,G2,140.0,0.5,95,122.0
1182,C2,140.0,0.5,95,122.0
1183,G2,140.0,0.5,95,122.0
1184,C2,140.0,0.5,95,122.0
1185,B-2,140.0,0.5,95,122.0
1186,C2,140.0,0.5,95,122.0
1187,C1,140.5,0.5,95,122.0
1188,B-2,140.5,0.5,95,122.0
1189,G2,140.5,0.5,95,122.0
1190,C2,140.5,0.5,95,122.0
1191,G2,140.5,0.5,95,122.0
1192,C2,140.5,0.5,95,122.0
1193,C1,141.0,0.5,95,122.0
1194,G2,141.0,0.5,95,122.0
1195,C2,141.0,0.5,95,122.0
1196,G2,141.0,0.5,95,122.0
1197,C2,141.0,0.5,95,122.0
1198,B-2,141.0,0.5,95,122.0
1199,D2,141.0,0.5,95,122.0
1200,C1,141.5,0.5,95,122.0
1201,B-2,141.5,0.5,95,122.0
1202,G2,141.5,0.5,95,122.0
1203,C2,141.5,0.5,95,122.0
1204,G2,141.5,0.5,95,122.0
1205,C2,141.5,0.5,95,122.0
1206,C1,142.0,0.5,95,122.0
1207,G2,142.0,0.5,95,122.0
1208,C2,142.0,0.5,95,122.0
1209,G2,142.0,0.5,95,122.0
1210,C2,142.0,0.5,95,122.0
1211,B-2,142.0,0.5,95,122.0
1212,C2,142.0,0.5,95,122.0
1213,C1,142.5,0.5,95,122.0
1214,B-2,142.5,0.5,95,122.0
1215,G2,142.5,0.5,95,122.0
1216,C2,142.5,0.5,95,122.0
1217,G2,142.5,0.5,95,122.0
1218,C2,142.5,0.5,95,122.0
1219,C1,143.0,0.5,95,122.0
1220,G2,143.0,0.5,95,122.0
1221,C2,143.0,0.5,95,122.0
1222,G2,143.0,0.5,95,122.0
1223,C2,143.0,0.5,95,122.0
1224,B-2,143.0,0.5,95,122.0
1225,D2,143.0,0.5,95,122.0
1226,C1,143.5,0.5,95,122.0
1227,B-2,143.5,0.5,95,122.0
1228,G2,143.5,0.5,95,122.0
1229,C2,143.5,0.5,95,122.0
1230,G2,143.5,0.5,95,122.0
1231,C2,143.5,0.5,95,122.0
1232,D1,144.0,0.5,95,122.0
1233,A2,144.0,0.5,95,122.0
1234,D2,144.0,0.5,95,122.0
1235,A2,144.0,0.5,95,122.0
1236,D2,144.0,0.5,95,122.0
1237,B-2,144.0,0.5,95,122.0
1238,C2,144.0,0.5,95,122.0
1239,D1,144.5,0.5,95,122.0
1240,B-2,144.5,0.5,95,122.0
1241,A2,144.5,0.5,95,122.0
1242,D2,144.5,0.5,95,122.0
1243,A2,144.5,0.5,95,122.0
1244,D2,144.5,0.5,95,122.0
1245,D1,145.0,0.5,95,122.0
1246,A2,145.0,0.5,95,122.0
1247,D2,145.0,0.5,95,122.0
1248,A2,145.0,0.5,95,122.0
1249,D2,145.0,0.5,95,122.0
1250,B-2,145.0,0.5,95,122.0
1251,D2,145.0,0.5,95,122.0
1252,D1,145.5,0.5,95,122.0
1253,B-2,145.5,0.5,95,122.0
1254,A2,145.5,0.5,95,122.0
1255,D2,145.5,0.5,95,122.0
1256,A2,145.5,0.5,95,122.0
1257,D2,145.5,0.5,95,122.0
1258,D1,146.0,0.5,95,122.0
1259,A2,146.0,0.5,95,122.0
1260,D2,146.0,0.5,95,122.0
1261,A2,146.0,0.5,95,122.0
1262,D2,146.0,0.5,95,122.0
1263,B-2,146.0,0.5,95,122.0
1264,C2,146.0,0.5,95,122.0
1265,D1,146.5,0.5,95,122.0
1266,B-2,146.5,0.5,95,122.0
1267,A2,146.5,0.5,95,122.0
1268,D2,146.5,0.5,95,122.0
1269,A2,146.5,0.5,95,122.0
1270,D2,146.5,0.5,95,122.0
1271,D1,147.0,0.5,95,122.0
1272,A2,147.0,0.5,95,122.0
1273,D2,147.0,0.5,95,122.0
1274,A2,147.0,0.5,95,122.0
1275,D2,147.0,0.5,95,122.0
1276,B-2,147.0,0.5,95,122.0
1277,D2,147.0,0.5,95,122.0
1278,D1,147.5,0.5,95,122.0
1279,B-2,147.5,0.5,95,122.0
1280,A2,147.5,0.5,95,122.0
1281,D2,147.5,0.5,95,122.0
1282,A2,147.5,0.5,95,122.0
1283,D2,147.5,0.5,95,122.0
1284,D1,148.0,0.5,95,122.0
1285,A2,148.0,0.5,95,122.0
1286,D2,148.0,0.5,95,122.0
1287,A2,148.0,0.5,95,122.0
1288,D2,148.0,0.5,95,122.0
1289,B-2,148.0,0.5,95,122.0
1290,C2,148.0,0.5,95,122.0
1291,D1,148.5,0.5,95,122.0
1292,B-2,148.5,0.5,95,122.0
1293,A2,148.5,0.5,95,122.0
1294,D2,148.5,0.5,95,122.0
1295,A2,148.5,0.5,95,122.0
1296,D2,148.5,0.5,95,122.0
1297,D1,149.0,0.5,95,122.0
1298,A2,149.0,0.5,95,122.0
1299,D2,149.0,0.5,95,122.0
1300,A2,149.0,0.5,95,122.0
1301,D2,149.0,0.5,95,122.0
1302,B-2,149.0,0.5,95,122.0
1303,D2,149.0,0.5,95,122.0
1304,D1,149.5,0.5,95,122.0
1305,B-2,149.5,0.5,95,122.0
1306,A2,149.5,0.5,95,122.0
1307,D2,149.5,0.5,95,122.0
1308,A2,149.5,0.5,95,122.0
1309,D2,149.5,0.5,95,122.0
1310,D1,150.0,0.5,95,122.0
1311,A2,150.0,0.5,95,122.0
1312,D2,150.0,0.5,95,122.0
1313,A2,150.0,0.5,95,122.0
1314,D2,150.0,0.5,95,122.0
1315,B-2,150.0,0.5,95,122.0
1316,C2,150.0,0.5,95,122.0
1317,D1,150.5,0.5,95,122.0
1318,B-2,150.5,0.5,95,122.0
1319,A2,150.5,0.5,95,122.0
1320,D2,150.5,0.5,95,122.0
1321,A2,150.5,0.5,95,122.0
1322,D2,150.5,0.5,95,122.0
1323,D1,151.0,0.5,95,122.0
1324,A2,151.0,0.5,95,122.0
1325,D2,151.0,0.5,95,122.0
1326,A2,151.0,0.5,95,122.0
1327,D2,151.0,0.5,95,122.0
1328,B-2,151.0,0.5,95,122.0
1329,D2,151.0,0.5,95,122.0
1330,D1,151.5,0.5,95,122.0
1331,B-2,151.5,0.5,95,122.0
1332,A2,151.5,0.5,95,122.0
1333,D2,151.5,0.5,95,122.0
1334,A2,151.5,0.5,95,122.0
1335,D2,151.5,0.5,95,122.0
1336,C1,152.0,0.5,95,122.0
1337,G2,152.0,0.5,95,122.0
1338,C2,152.0,0.5,95,122.0
1339,G2,152.0,0.5,95,122.0
1340,C2,152.0,0.5,95,122.0
1341,B-2,152.0,0.5,95,122.0
1342,C2,152.0,0.5,95,122.0
1343,C1,152.5,0.5,95,122.0
1344,B-2,152.5,0.5,95,122.0
1345,G2,152.5,0.5,95,122.0
1346,C2,152.5,0.5,95,122.0
1347,G2,152.5,0.5,95,122.0
1348,C2,152.5,0.5,95,122.0
1349,C1,153.0,0.5,95,122.0
1350,G2,153.0,0.5,95,122.0
1351,C2,153.0,0.5,95,122.0
1352,G2,153.0,0.5,95,122.0
1353,C2,153.0,0.5,95,122.0
1354,B-2,153.0,0.5,95,122.0
1355,D2,153.0,0.5,95,122.0
1356,C1,153.5,0.5,95,122.0
1357,B-2,153.5,0.5,95,122.0
1358,G2,153.5,0.5,95,122.0
1359,C2,153.5,0.5,95,122.0
1360,G2,153.5,0.5,95,122.0
1361,C2,153.5,0.5,95,122.0
1362,C1,154.0,0.5,95,122.0
1363,G2,154.0,0.5,95,122.0
1364,C2,154.0,0.5,95,122.0
1365,G2,154.0,0.5,95,122.0
1366,C2,154.0,0.5,95,122.0
1367,B-2,154.0,0.5,95,122.0
1368,C2,154.0,0.5,95,122.0
1369,C1,154.5,0.5,95,122.0
1370,B-2,154.5,0.5,95,122.0
1371,G2,154.5,0.5,95,122.0
1372,C2,154.5,0.5,95,122.0
1373,G2,154.5,0.5,95,122.0
1374,C2,154.5,0.5,95,122.0
1375,C1,155.0,0.5,95,122.0
1376,G2,155.0,0.5,95,122.0
1377,C2,155.0,0.5,95,122.0
1378,G2,155.0,0.5,95,122.0
1379,C2,155.0,0.5,95,122.0
1380,B-2,155.0,0.5,95,122.0
1381,D2,155.0,0.5,95,122.0
1382,C1,155.5,0.5,95,122.0
1383,B-2,155.5,0.5,95,122.0
1384,G2,155.5,0.5,95,122.0
1385,C2,155.5,0.5,95,122.0
1386,G2,155.5,0.5,95,122.0
1387,C2,155.5,0.5,95,122.0
1388,E-1,156.0,0.5,95,122.0
1389,B-2,156.0,0.5,95,122.0
1390,E-2,156.0,0.5,95,122.0
1391,B-2,156.0,0.5,95,122.0
1392,E-2,156.0,0.5,95,122.0
1393,B-2,156.0,0.5,95,122.0
1394,C2,156.0,0.5,95,122.0
1395,E-1,156.5,0.5,95,122.0
1396,B-2,156.5,0.5,95,122.0
1397,B-2,156.5,0.5,95,122.0
1398,E-2,156.5,0.5,95,122.0
1399,B-2,156.5,0.5,95,122.0
1400,E-2,156.5,0.5,95,122.0
1401,E-1,157.0,0.5,95,122.0
1402,B-2,157.0,0.5,95,122.0
1403,E-2,157.0,0.5,95,122.0
1404,B-2,157.0,0.5,95,122.0
1405,E-2,157.0,0.5,95,122.0
1406,B-2,157.0,0.5,95,122.0
1407,D2,157.0,0.5,95,122.0
1408,E-1,157.5,0.5,95,122.0
1409,B-2,157.5,0.5,95,122.0
1410,B-2,157.5,0.5,95,122.0
1411,E-2,157.5,0.5,95,122.0
1412,B-2,157.5,0.5,95,122.0
1413,E-2,157.5,0.5,95,122.0
1414,E-1,158.0,0.5,95,122.0
1415,B-2,158.0,0.5,95,122.0
1416,E-2,158.0,0.5,95,122.0
1417,B-2,158.0,0.5,95,122.0
1418,E-2,158.0,0.5,95,122.0
1419,B-2,158.0,0.5,95,122.0
1420,C2,158.0,0.5,95,122.0
1421,E-1,158.5,0.5,95,122.0
1422,B-2,158.5,0.5,95,122.0
1423,B-2,158.5,0.5,95,122.0
1424,E-2,158.5,0.5,95,122.0
1425,B-2,158.5,0.5,95,122.0
1426,E-2,158.5,0.5,95,122.0
1427,E-1,159.0,0.5,95,122.0
1428,B-2,159.0,0.5,95,122.0
1429,E-2,159.0,0.5,95,122.0
1430,B-2,159.0,0.5,95,122.0
1431,E-2,159.0,0.5,95,122.0
1432,B-2,159.0,0.5,95,122.0
1433,D2,159.0,0.5,95,122.0
1434,E-1,159.5,0.5,95,122.0
1435,B-2,159.5,0.5,95,122.0
1436,B-2,159.5,0.5,95,122.0
1437,E-2,159.5,0.5,95,122.0
1438,B-2,159.5,0.5,95,122.0
1439,E-2,159.5,0.5,95,122.0
1440,D1,160.0,0.5,95,122.0
1441,A2,160.0,0.5,95,122.0
1442,D2,160.0,0.5,95,122.0
1443,A2,160.0,0.5,95,122.0
1444,D2,160.0,0.5,95,122.0
1445,B-2,160.0,0.5,95,122.0
1446,C2,160.0,0.5,95,122.0
1447,D1,160.5,0.5,95,122.0
1448,B-2,160.5,0.5,95,122.0
1449,A2,160.5,0.5,95,122.0
1450,D2,160.5,0.5,95,122.0
1451,A2,160.5,0.5,95,122.0
1452,D2,160.5,0.5,95,122.0
1453,D1,161.0,0.5,95,122.0
1454,A2,161.0,0.5,95,122.0
1455,D2,161.0,0.5,95,122.0
1456,A2,161.0,0.5,95,122.0
1457,D2,161.0,0.5,95,122.0
1458,B-2,161.0,0.5,95,122.0
1459,D2,161.0,0.5,95,122.0
1460,D1,161.5,0.5,95,122.0
1461,B-2,161.5,0.5,95,122.0
1462,A2,161.5,0.5,95,122.0
1463,D2,161.5,0.5,95,122.0
1464,A2,161.5,0.5,95,122.0
1465,D2,161.5,0.5,95,122.0
1466,D1,162.0,0.5,95,122.0
1467,A2,162.0,0.5,95,122.0
1468,D2,162.0,0.5,95,122.0
1469,A2,162.0,0.5,95,122.0
1470,D2,162.0,0.5,95,122.0
1471,B-2,162.0,0.5,95,122.0
1472,C2,162.0,0.5,95,122.0
1473,D1,162.5,0.5,95,122.0
1474,B-2,162.5,0.5,95,122.0
1475,A2,162.5,0.5,95,122.0
1476,D2,162.5,0.5,95,122.0
1477,A2,162.5,0.5,95,122.0
1478,D2,162.5,0.5,95,122.0
1479,D1,163.0,0.5,95,122.0
1480,A2,163.0,0.5,95,122.0
1481,D2,163.0,0.5,95,122.0
1482,A2,163.0,0.5,95,122.0
1483,D2,163.0,0.5,95,122.0
1484,B-2,163.0,0.5,95,122.0
1485,D2,163.0,0.5,95,122.0
1486,D1,163.5,0.5,95,122.0
1487,B-2,163.5,0.5,95,122.0
1488,A2,163.5,0.5,95,122.0
1489,D2,163.5,0.5,95,122.0
1490,A2,163.5,0.5,95,122.0
1491,D2,163.5,0.5,95,122.0
1492,F1,164.0,0.5,95,122.0
1493,C3,164.0,0.5,95,122.0
1494,F2,164.0,0.5,95,122.0
1495,C3,164.0,0.5,95,122.0
1496,F2,164.0,0.5,95,122.0
1497,B-2,164.0,0.5,95,122.0
1498,C2,164.0,0.5,95,122.0
1499,F1,164.5,0.5,95,122.0
1500,B-2,164.5,0.5,95,122.0
1501,C3,164.5,0.5,95,122.0
1502,F2,164.5,0.5,95,122.0
1503,C3,164.5,0.5,95,122.0
1504,F2,164.5,0.5,95,122.0
1505,F1,165.0,0.5,95,122.0
1506,C3,165.0,0.5,95,122.0
1507,F2,165.0,0.5,95,122.0
1508,C3,165.0,0.5,95,122.0
1509,F2,165.0,0.5,95,122.0
1510,B-2,165.0,0.5,95,122.0
1511,D2,165.0,0.5,95,122.0
1512,F1,165.5,0.5,95,122.0
1513,B-2,165.5,0.5,95,122.0
1514,C3,165.5,0.5,95,122.0
1515,F2,165.5,0.5,95,122.0
1516,C3,165.5,0.5,95,122.0
1517,F2,165.5,0.5,95,122.0
1518,F1,166.0,0.5,95,122.0
1519,C3,166.0,0.5,95,122.0
1520,F2,166.0,0.5,95,122.0
1521,C3,166.0,0.5,95,122.0
1522,F2,166.0,0.5,95,122.0
1523,B-2,166.0,0.5,95,122.0
1524,C2,166.0,0.5,95,122.0
1525,F1,166.5,0.5,95,122.0
1526,B-2,166.5,0.5,95,122.0
1527,C3,166.5,0.5,95,122.0
1528,F2,166.5,0.5,95,122.0
1529,C3,166.5,0.5,95,122.0
1530,F2,166.5,0.5,95,122.0
1531,F1,167.0,0.5,95,122.0
1532,C3,167.0,0.5,95,122.0
1533,F2,167.0,0.5,95,122.0
1534,C3,167.0,0.5,95,122.0
1535,F2,167.0,0.5,95,122.0
1536,B-2,167.0,0.5,95,122.0
1537,D2,167.0,0.5,95,122.0
1538,F1,167.5,0.5,95,122.0
1539,B-2,167.5,0.5,95,122.0
1540,C3,167.5,0.5,95,122.0
1541,F2,167.5,0.5,95,122.0
1542,C3,167.5,0.5,95,122.0
1543,F2,167.5,0.5,95,122.0
1544,D3,168.0,0.5,95,122.0
1545,G2,168.0,0.25,86,122.0
1546,C2,168.0,0.5,95,122.0
1547,C1,168.0,0.5,95,122.0
1548,G#2,168.0,0.5,95,122.0
1549,C2,168.0,0.5,95,122.0
1550,F3,168.5,0.5,95,122.0
1551,A2,168.5,0.25,86,122.0
1552,D2,168.5,0.5,95,122.0
1553,D1,168.5,0.5,95,122.0
1554,G#2,168.5,0.5,95,122.0
1555,A3,169.0,3.0,95,122.0
1556,A2,169.0,0.25,86,122.0
1557,D2,169.0,0.5,95,122.0
1558,D1,169.0,0.5,95,122.0
1559,G#2,169.0,0.5,95,122.0
1560,D2,169.0,0.5,95,122.0
1561,A2,169.5,0.25,86,122.0
1562,D2,169.5,0.5,95,122.0
1563,D1,169.5,0.5,95,122.0
1564,G#2,169.5,0.5,95,122.0
1565,D1,170.0,0.5,95,122.0
1566,A2,170.0,0.5,95,122.0
1567,D2,170.0,0.5,95,122.0
1568,G#2,170.0,0.5,95,122.0
1569,C2,170.0,0.5,95,122.0
1570,G#2,170.5,0.5,95,122.0
1571,G#2,171.0,0.5,95,122.0
1572,D2,171.0,0.5,95,122.0
1573,A2,171.5,0.25,86,122.0
1574,D2,171.5,0.5,95,122.0
1575,D1,171.5,0.5,95,122.0
1576,G#2,171.5,0.5,95,122.0
1577,A3,172.0,4.0,95,122.0
1578,A2,172.0,0.25,86,122.0
1579,D2,172.0,0.5,95,122.0
1580,D1,172.0,0.5,95,122.0
1581,G#2,172.0,0.5,95,122.0
1582,C2,172.0,0.5,95,122.0
1583,A2,172.5,0.25,86,122.0
1584,D2,172.5,0.5,95,122.0
1585,D1,172.5,0.5,95,122.0
1586,G#2,172.5,0.5,95,122.0
1587,A2,173.0,0.25,86,122.0
1588,D2,173.0,0.5,95,122.0
1589,D1,173.0,0.5,95,122.0
1590,G#2,173.0,0.5,95,122.0
1591,D2,173.0,0.5,95,122.0
1592,G#2,173.5,0.5,95,122.0
1593,A2,174.0,0.5,95,122.0
1594,D2,174.0,0.25,86,122.0
1595,D1,174.0,0.5,95,122.0
1596,G#2,174.0,0.5,95,122.0
1597,C2,174.0,0.5,95,122.0
1598,A2,174.5,0.5,95,122.0
1599,D2,174.5,0.25,86,122.0
1600,D1,174.5,0.5,95,122.0
1601,G#2,174.5,0.5,95,122.0
1602,A2,175.0,0.5,95,122.0
1603,D2,175.0,0.25,86,122.0
1604,D1,175.0,0.5,95,122.0
1605,G#2,175.0,0.5,95,122.0
1606,D2,175.0,0.5,95,122.0
1607,G2,175.5,0.5,95,122.0
1608,C2,175.5,0.25,86,122.0
1609,C1,175.5,0.5,95,122.0
1610,G#2,175.5,0.5,95,122.0
1611,G2,176.0,0.25,86,122.0
1612,C2,176.0,0.5,95,122.0
1613,C1,176.0,0.5,95,122.0
1614,G#2,176.0,0.5,95,122.0
1615,C2,176.0,0.5,95,122.0
1616,A2,176.5,0.25,86,122.0
1617,D2,176.5,0.5,95,122.0
1618,D1,176.5,0.5,95,122.0
1619,G#2,176.5,0.5,95,122.0
1620,A2,177.0,0.25,86,122.0
1621,D2,177.0,0.5,95,122.0
1622,D1,177.0,0.5,95,122.0
1623,G#2,177.0,0.5,95,122.0
1624,D2,177.0,0.5,95,122.0
1625,A2,177.5,0.25,86,122.0
1626,D2,177.5,0.5,95,122.0
1627,D1,177.5,0.5,95,122.0
1628,G#2,177.5,0.5,95,122.0
1629,D1,178.0,0.5,95,122.0
1630,A2,178.0,0.5,95,122.0
1631,D2,178.0,0.5,95,122.0
1632,G#2,178.0,0.5,95,122.0
1633,C2,178.0,0.5,95,122.0
1634,G#2,178.5,0.5,95,122.0
1635,G#2,179.0,0.5,95,122.0
1636,D2,179.0,0.5,95,122.0
1637,A2,179.5,0.25,86,122.0
1638,D2,179.5,0.5,95,122.0
1639,D1,179.5,0.5,95,122.0
1640,G#2,179.5,0.5,95,122.0
1641,A2,180.0,0.25,86,122.0
1642,D2,180.0,0.5,95,122.0
1643,D1,180.0,0.5,95,122.0
1644,G#2,180.0,0.5,95,122.0
1645,C2,180.0,0.5,95,122.0
1646,A2,180.5,0.25,86,122.0
1647,D2,180.5,0.5,95,122.0
1648,D1,180.5,0.5,95,122.0
1649,G#2,180.5,0.5,95,122.0
1650,A2,181.0,0.25,86,122.0
1651,D2,181.0,0.5,95,122.0
1652,D1,181.0,0.5,95,122.0
1653,G#2,181.0,0.5,95,122.0
1654,D2,181.0,0.5,95,122.0
1655,G#2,181.5,0.5,95,122.0
1656,C3,182.0,0.5,95,122.0
1657,F2,182.0,0.25,86,122.0
1658,F1,182.0,0.5,95,122.0
1659,G#2,182.0,0.5,95,122.0
1660,C2,182.0,0.5,95,122.0
1661,C3,182.5,0.5,95,122.0
1662,F2,182.5,0.25,86,122.0
1663,F1,182.5,0.5,95,122.0
1664,G#2,182.5,0.5,95,122.0
1665,G2,183.0,0.5,95,122.0
1666,C2,183.0,0.25,86,122.0
1667,C1,183.0,0.5,95,122.0
1668,G#2,183.0,0.5,95,122.0
1669,D2,183.0,0.5,95,122.0
1670,G2,183.5,0.5,95,122.0
1671,C2,183.5,0.25,86,122.0
1672,C1,183.5,0.5,95,122.0
1673,G#2,183.5,0.5,95,122.0
1674,D3,184.0,0.5,95,122.0
1675,G2,184.0,0.25,86,122.0
1676,C2,184.0,0.5,95,122.0
1677,C1,184.0,0.5,95,122.0
1678,G#2,184.0,0.5,95,122.0
1679,C2,184.0,0.5,95,122.0
1680,F3,184.5,0.5,95,122.0
1681,A2,184.5,0.25,86,122.0
1682,D2,184.5,0.5,95,122.0
1683,D1,184.5,0.5,95,122.0
1684,G#2,184.5,0.5,95,122.0
1685,A3,185.0,3.0,95,122.0
1686,A2,185.0,0.25,86,122.0
1687,D2,185.0,0.5,95,122.0
1688,D1,185.0,0.5,95,122.0
1689,G#2,185.0,0.5,95,122.0
1690,D2,185.0,0.5,95,122.0
1691,A2,185.5,0.25,86,122.0
1692,D2,185.5,0.5,95,122.0
1693,D1,185.5,0.5,95,122.0
1694,G#2,185.5,0.5,95,122.0
1695,D1,186.0,0.5,95,122.0
1696,A2,186.0,0.5,95,122.0
1697,D2,186.0,0.5,95,122.0
1698,G#2,186.0,0.5,95,122.0
1699,C2,186.0,0.5,95,122.0
1700,G#2,186.5,0.5,95,122.0
1701,G#2,187.0,0.5,95,122.0
1702,D2,187.0,0.5,95,122.0
1703,A2,187.5,0.25,86,122.0
1704,D2,187.5,0.5,95,122.0
1705,D1,187.5,0.5,95,122.0
1706,G#2,187.5,0.5,95,122.0
1707,A3,188.0,4.0,95,122.0
1708,A2,188.0,0.25,86,122.0
1709,D2,188.0,0.5,95,122.0
1710,D1,188.0,0.5,95,122.0
1711,G#2,188.0,0.5,95,122.0
1712,C2,188.0,0.5,95,122.0
1713,A2,188.5,0.25,86,122.0
1714,D2,188.5,0.5,95,122.0
1715,D1,188.5,0.5,95,122.0
1716,G#2,188.5,0.5,95,122.0
1717,A2,189.0,0.25,86,122.0
1718,D2,189.0,0.5,95,122.0
1719,D1,189.0,0.5,95,122.0
1720,G#2,189.0,0.5,95,122.0
1721,D2,189.0,0.5,95,122.0
1722,G#2,189.5,0.5,95,122.0
1723,A2,190.0,0.5,95,122.0
1724,D2,190.0,0.25,86,122.0
1725,D1,190.0,0.5,95,122.0
1726,G#2,190.0,0.5,95,122.0
1727,C2,190.0,0.5,95,122.0
1728,A2,190.5,0.5,95,122.0
1729,D2,190.5,0.25,86,122.0
1730,D1,190.5,0.5,95,122.0
1731,G#2,190.5,0.5,95,122.0
1732,A2,191.0,0.5,95,122.0
1733,D2,191.0,0.25,86,122.0
1734,D1,191.0,0.5,95,122.0
1735,G#2,191.0,0.5,95,122.0
1736,D2,191.0,0.5,95,122.0
1737,G2,191.5,0.5,95,122.0
1738,C2,191.5,0.25,86,122.0
1739,C1,191.5,0.5,95,122.0
1740,G#2,191.5,0.5,95,122.0
1741,G2,192.0,0.25,86,122.0
1742,C2,192.0,0.5,95,122.0
1743,C1,192.0,0.5,95,122.0
1744,G#2,192.0,0.5,95,122.0
1745,C2,192.0,0.5,95,122.0
1746,A2,192.5,0.25,86,122.0
1747,D2,192.5,0.5,95,122.0
1748,D1,192.5,0.5,95,122.0
1749,G#2,192.5,0.5,95,122.0
1750,A2,193.0,0.25,86,122.0
1751,D2,193.0,0.5,95,122.0
1752,D1,193.0,0.5,95,122.0
1753,G#2,193.0,0.5,95,122.0
1754,D2,193.0,0.5,95,122.0
1755,A2,193.5,0.25,86,122.0
1756,D2,193.5,0.5,95,122.0
1757,D1,193.5,0.5,95,122.0
1758,G#2,193.5,0.5,95,122.0
1759,D1,194.0,0.5,95,122.0
1760,A2,194.0,0.5,95,122.0
1761,D2,194.0,0.5,95,122.0
1762,G#2,194.0,0.5,95,122.0
1763,C2,194.0,0.5,95,122.0
1764,G#2,194.5,0.5,95,122.0
1765,G#2,195.0,0.5,95,122.0
1766,D2,195.0,0.5,95,122.0
1767,A2,195.5,0.25,86,122.0
1768,D2,195.5,0.5,95,122.0
1769,D1,195.5,0.5,95,122.0
1770,G#2,195.5,0.5,95,122.0
1771,A2,196.0,0.25,86,122.0
1772,D2,196.0,0.5,95,122.0
1773,D1,196.0,0.5,95,122.0
1774,G#2,196.0,0.5,95,122.0
1775,C2,196.0,0.5,95,122.0
1776,A2,196.5,0.25,86,122.0
1777,D2,196.5,0.5,95,122.0
1778,D1,196.5,0.5,95,122.0
1779,G#2,196.5,0.5,95,122.0
1780,A2,197.0,0.25,86,122.0
1781,D2,197.0,0.5,95,122.0
1782,D1,197.0,0.5,95,122.0
1783,G#2,197.0,0.5,95,122.0
1784,D2,197.0,0.5,95,122.0
1785,G#2,197.5,0.5,95,122.0
1786,C3,198.0,0.5,95,122.0
1787,F2,198.0,0.25,86,122.0
1788,F1,198.0,0.5,95,122.0
1789,G#2,198.0,0.5,95,122.0
1790,C2,198.0,0.5,95,122.0
1791,C3,198.5,0.5,95,122.0
1792,F2,198.5,0.25,86,122.0
1793,F1,198.5,0.5,95,122.0
1794,G#2,198.5,0.5,95,122.0
1795,G2,199.0,0.5,95,122.0
1796,C2,199.0,0.25,86,122.0
1797,C1,199.0,0.5,95,122.0
1798,G#2,199.0,0.5,95,122.0
1799,D2,199.0,0.5,95,122.0
1800,G2,199.5,0.5,95,122.0
1801,C2,199.5,0.25,86,122.0
1802,C1,199.5,0.5,95,122.0
1803,G#2,199.5,0.5,95,122.0
1804,D3,200.0,0.5,95,122.0
1805,G2,200.0,0.25,86,122.0
1806,C2,200.0,0.5,95,122.0
1807,C1,200.0,0.5,95,122.0
1808,G#2,200.0,0.5,95,122.0
1809,C2,200.0,0.5,95,122.0
1810,F3,200.5,0.5,95,122.0
1811,A2,200.5,0.25,86,122.0
1812,D2,200.5,0.5,95,122.0
1813,D1,200.5,0.5,95,122.0
1814,G#2,200.5,0.5,95,122.0
1815,A3,201.0,3.0,95,122.0
1816,A2,201.0,0.25,86,122.0
1817,D2,201.0,0.5,95,122.0
1818,D1,201.0,0.5,95,122.0
1819,G#2,201.0,0.5,95,122.0
1820,D2,201.0,0.5,95,122.0
1821,A2,201.5,0.25,86,122.0
1822,D2,201.5,0.5,95,122.0
1823,D1,201.5,0.5,95,122.0
1824,G#2,201.5,0.5,95,122.0
1825,A2,202.0,0.25,86,122.0
1826,D2,202.0,0.5,95,122.0
1827,D1,202.0,0.5,95,122.0
1828,G#2,202.0,0.5,95,122.0
1829,C2,202.0,0.5,95,122.0
1830,G#2,202.5,0.5,95,122.0
1831,G#2,203.0,0.5,95,122.0
1832,D2,203.0,0.5,95,122.0
1833,A2,203.5,0.25,86,122.0
1834,D2,203.5,0.5,95,122.0
1835,D1,203.5,0.5,95,122.0
1836,G#2,203.5,0.5,95,122.0
1837,A3,204.0,4.0,95,122.0
1838,A2,204.0,0.25,86,122.0
1839,D2,204.0,0.5,95,122.0
1840,D1,204.0,0.5,95,122.0
1841,A4,204.0,4.0,95,122.0
1842,F4,204.0,4.0,95,122.0
1843,G#2,204.0,0.5,95,122.0
1844,C2,204.0,0.5,95,122.0
1845,A2,204.5,0.25,86,122.0
1846,D2,204.5,0.5,95,122.0
1847,D1,204.5,0.5,95,122.0
1848,G#2,204.5,0.5,95,122.0
1849,A2,205.0,0.25,86,122.0
1850,D2,205.0,0.5,95,122.0
1851,D1,205.0,0.5,95,122.0
1852,G#2,205.0,0.5,95,122.0
1853,D2,205.0,0.5,95,122.0
1854,G#2,205.5,0.5,95,122.0
1855,A2,206.0,0.25,86,122.0
1856,D2,206.0,0.5,95,122.0
1857,D1,206.0,0.5,95,122.0
1858,G#2,206.0,0.5,95,122.0
1859,C2,206.0,0.5,95,122.0
1860,A2,206.5,0.25,86,122.0
1861,D2,206.5,0.5,95,122.0
1862,D1,206.5,0.5,95,122.0
1863,G#2,206.5,0.5,95,122.0
1864,A2,207.0,0.25,86,122.0
1865,D2,207.0,0.5,95,122.0
1866,D1,207.0,0.5,95,122.0
1867,G#2,207.0,0.5,95,122.0
1868,D2,207.0,0.5,95,122.0
1869,A2,207.5,0.25,86,122.0
1870,D2,207.5,0.5,95,122.0
1871,D1,207.5,0.5,95,122.0
1872,G#2,207.5,0.5,95,122.0
1873,E3,208.0,0.5,95,122.0
1874,B2,208.0,0.25,86,122.0
1875,E2,208.0,0.5,95,122.0
1876,E1,208.0,0.5,95,122.0
1877,A4,208.0,4.0,95,122.0
1878,F4,208.0,4.0,95,122.0
1879,G#2,208.0,0.5,95,122.0
1880,C2,208.0,0.5,95,122.0
1881,G3,208.5,0.5,95,122.0
1882,B2,208.5,0.25,86,122.0
1883,E2,208.5,0.5,95,122.0
1884,E1,208.5,0.5,95,122.0
1885,G#2,208.5,0.5,95,122.0
1886,B3,209.0,3.0,95,122.0
1887,B2,209.0,0.25,86,122.0
1888,E2,209.0,0.5,95,122.0
1889,E1,209.0,0.5,95,122.0
1890,G#2,209.0,0.5,95,122.0
1891,D2,209.0,0.5,95,122.0
1892,B2,209.5,0.25,86,122.0
1893,E2,209.5,0.5,95,122.0
1894,E1,209.5,0.5,95,122.0
1895,G#2,209.5,0.5,95,122.0
1896,B2,210.0,0.25,86,122.0
1897,E2,210.0,0.5,95,122.0
1898,E1,210.0,0.5,95,122.0
1899,G#2,210.0,0.5,95,122.0
1900,C2,210.0,0.5,95,122.0
1901,G#2,210.5,0.5,95,122.0
1902,G#2,211.0,0.5,95,122.0
1903,D2,211.0,0.5,95,122.0
1904,B2,211.5,0.25,86,122.0
1905,E2,211.5,0.5,95,122.0
1906,E1,211.5,0.5,95,122.0
1907,G#2,211.5,0.5,95,122.0
1908,B3,212.0,4.0,95,122.0
1909,B2,212.0,0.25,86,122.0
1910,E2,212.0,0.5,95,122.0
1911,E1,212.0,0.5,95,122.0
1912,E4,212.0,4.0,95,122.0
1913,A4,212.0,4.0,95,122.0
1914,G#2,212.0,0.5,95,122.0
1915,C2,212.0,0.5,95,122.0
1916,B2,212.5,0.25,86,122.0
1917,E2,212.5,0.5,95,122.0
1918,E1,212.5,0.5,95,122.0
1919,G#2,212.5,0.5,95,122.0
1920,B2,213.0,0.25,86,122.0
1921,E2,213.0,0.5,95,122.0
1922,E1,213.0,0.5,95,122.0
1923,G#2,213.0,0.5,95,122.0
1924,D2,213.0,0.5,95,122.0
1925,G#2,213.5,0.5,95,122.0
1926,B2,214.0,0.25,86,122.0
1927,E2,214.0,0.5,95,122.0
1928,E1,214.0,0.5,95,122.0
1929,G#2,214.0,0.5,95,122.0
1930,C2,214.0,0.5,95,122.0
1931,B2,214.5,0.25,86,122.0
1932,E2,214.5,0.5,95,122.0
1933,E1,214.5,0.5,95,122.0
1934,G#2,214.5,0.5,95,122.0
1935,B2,215.0,0.25,86,122.0
1936,E2,215.0,0.5,95,122.0
1937,E1,215.0,0.5,95,122.0
1938,G#2,215.0,0.5,95,122.0
1939,D2,215.0,0.5,95,122.0
1940,B2,215.5,0.25,86,122.0
1941,E2,215.5,0.5,95,122.0
1942,E1,215.5,0.5,95,122.0
1943,G#2,215.5,0.5,95,122.0
1944,G2,216.0,0.25,86,122.0
1945,C2,216.0,0.5,95,122.0
1946,C1,216.0,0.5,95,122.0
1947,E4,216.0,4.0,95,122.0
1948,A4,216.0,1.0,95,122.0
1949,G#2,216.0,0.5,95,122.0
1950,C2,216.0,0.5,95,122.0
1951,A2,216.5,0.25,86,122.0
1952,D2,216.5,0.5,95,122.0
1953,D1,216.5,0.5,95,122.0
1954,G#2,216.5,0.5,95,122.0
1955,A2,217.0,0.25,86,122.0
1956,D2,217.0,0.5,95,122.0
1957,D1,217.0,0.5,95,122.0
1958,G4,217.0,1.0,95,122.0
1959,G#2,217.0,0.5,95,122.0
1960,D2,217.0,0.5,95,122.0
1961,A2,217.5,0.25,86,122.0
1962,D2,217.5,0.5,95,122.0
1963,D1,217.5,0.5,95,122.0
1964,G#2,217.5,0.5,95,122.0
1965,A2,218.0,0.25,86,122.0
1966,D2,218.0,0.5,95,122.0
1967,D1,218.0,0.5,95,122.0
1968,E4,218.0,2.0,95,122.0
1969,G#2,218.0,0.5,95,122.0
1970,C2,218.0,0.5,95,122.0
1971,G#2,218.5,0.5,95,122.0
1972,G#2,219.0,0.5,95,122.0
1973,D2,219.0,0.5,95,122.0
1974,A2,219.5,0.25,86,122.0
1975,D2,219.5,0.5,95,122.0
1976,D1,219.5,0.5,95,122.0
1977,G#2,219.5,0.5,95,122.0
1978,C3,220.0,0.25,86,122.0
1979,F2,220.0,0.5,95,122.0
1980,F1,220.0,0.5,95,122.0
1981,A4,220.0,4.0,95,122.0
1982,F4,220.0,4.0,95,122.0
1983,G#2,220.0,0.5,95,122.0
1984,C2,220.0,0.5,95,122.0
1985,C3,220.5,0.25,86,122.0
1986,F2,220.5,0.5,95,122.0
1987,F1,220.5,0.5,95,122.0
1988,G#2,220.5,0.5,95,122.0
1989,C3,221.0,0.25,86,122.0
1990,F2,221.0,0.5,95,122.0
1991,F1,221.0,0.5,95,122.0
1992,G#2,221.0,0.5,95,122.0
1993,D2,221.0,0.5,95,122.0
1994,G#2,221.5,0.5,95,122.0
1995,C3,222.0,0.25,86,122.0
1996,F2,222.0,0.5,95,122.0
1997,F1,222.0,0.5,95,122.0
1998,G#2,222.0,0.5,95,122.0
1999,C2,222.0,0.5,95,122.0
2000,C3,222.5,0.25,86,122.0
2001,F2,222.5,0.5,95,122.0
2002,F1,222.5,0.5,95,122.0
2003,G#2,222.5,0.5,95,122.0
2004,C3,223.0,0.25,86,122.0
2005,F2,223.0,0.5,95,122.0
2006,F1,223.0,0.5,95,122.0
2007,G#2,223.0,0.5,95,122.0
2008,D2,223.0,0.5,95,122.0
2009,C3,223.5,0.25,86,122.0
2010,F2,223.5,0.5,95,122.0
2011,F1,223.5,0.5,95,122.0
2012,G#2,223.5,0.5,95,122.0
2013,E3,224.0,0.5,95,122.0
2014,B2,224.0,0.25,86,122.0
2015,E2,224.0,0.5,95,122.0
2016,E1,224.0,0.5,95,122.0
2017,E4,224.0,4.0,95,122.0
2018,A4,224.0,4.0,95,122.0
2019,G#2,224.0,0.5,95,122.0
2020,C2,224.0,0.5,95,122.0
2021,G3,224.5,0.5,95,122.0
2022,B2,224.5,0.25,86,122.0
2023,E2,224.5,0.5,95,122.0
2024,E1,224.5,0.5,95,122.0
2025,G#2,224.5,0.5,95,122.0
2026,B3,225.0,3.0,95,122.0
2027,B2,225.0,0.25,86,122.0
2028,E2,225.0,0.5,95,122.0
2029,E1,225.0,0.5,95,122.0
2030,G#2,225.0,0.5,95,122.0
2031,D2,225.0,0.5,95,122.0
2032,B2,225.5,0.25,86,122.0
2033,E2,225.5,0.5,95,122.0
2034,E1,225.5,0.5,95,122.0
2035,G#2,225.5,0.5,95,122.0
2036,B2,226.0,0.25,86,122.0
2037,E2,226.0,0.5,95,122.0
2038,E1,226.0,0.5,95,122.0
2039,G#2,226.0,0.5,95,122.0
2040,C2,226.0,0.5,95,122.0
2041,G#2,226.5,0.5,95,122.0
2042,G#2,227.0,0.5,95,122.0
2043,D2,227.0,0.5,95,122.0
2044,B2,227.5,0.25,86,122.0
2045,E2,227.5,0.5,95,122.0
2046,E1,227.5,0.5,95,122.0
2047,G#2,227.5,0.5,95,122.0
2048,B3,228.0,4.0,95,122.0
2049,B2,228.0,0.25,86,122.0
2050,E2,228.0,0.5,95,122.0
2051,E1,228.0,0.5,95,122.0
2052,G4,228.0,4.0,95,122.0
2053,E4,228.0,4.0,95,122.0
2054,G#2,228.0,0.5,95,122.0
2055,C2,228.0,0.5,95,122.0
2056,B2,228.5,0.25,86,122.0
2057,E2,228.5,0.5,95,122.0
2058,E1,228.5,0.5,95,122.0
2059,G#2,228.5,0.5,95,122.0
2060,B2,229.0,0.25,86,122.0
2061,E2,229.0,0.5,95,122.0
2062,E1,229.0,0.5,95,122.0
2063,G#2,229.0,0.5,95,122.0
2064,D2,229.0,0.5,95,122.0
2065,G#2,229.5,0.5,95,122.0
2066,B2,230.0,0.25,86,122.0
2067,E2,230.0,0.5,95,122.0
2068,E1,230.0,0.5,95,122.0
2069,B-2,230.0,0.5,95,122.0
2070,C2,230.0,0.5,95,122.0
2071,B2,230.5,0.25,86,122.0
2072,E2,230.5,0.5,95,122.0
2073,E1,230.5,0.5,95,122.0
2074,B-2,230.5,0.5,95,122.0
2075,B2,231.0,0.25,86,122.0
2076,E2,231.0,0.5,95,122.0
2077,E1,231.0,0.5,95,122.0
2078,B-2,231.0,0.5,95,122.0
2079,D2,231.0,0.5,95,122.0
2080,B2,231.5,0.25,86,122.0
2081,E2,231.5,0.5,95,122.0
2082,E1,231.5,0.5,95,122.0
2083,B-2,231.5,0.5,95,122.0
2084,G4,232.0,4.0,95,122.0
2085,E4,232.0,4.0,95,122.0
2086,B-2,232.0,0.5,95,122.0
2087,C2,232.0,0.5,95,122.0
2088,B-2,232.5,0.5,95,122.0
2089,C2,232.5,0.5,95,122.0
2090,B-2,233.0,0.5,95,122.0
2091,B2,233.0,0.5,95,122.0
2092,C2,233.0,0.5,95,122.0
2093,B-2,233.5,0.5,95,122.0
2094,A2,233.5,0.5,95,122.0
2095,C2,233.5,0.5,95,122.0
2096,B-2,234.0,0.5,95,122.0
2097,G2,234.0,0.5,95,122.0
2098,C2,234.0,0.5,95,122.0
2099,B-2,234.5,0.5,95,122.0
2100,B-2,235.0,0.5,95,122.0
2101,C2,235.0,0.5,95,122.0
2102,B-2,235.5,0.5,95,122.0
2103,C2,235.5,0.5,95,122.0
2104,D5,236.0,3.5,95,122.0
2105,B-2,236.0,0.5,95,122.0
2106,D2,236.0,0.5,95,122.0
2107,B-2,236.5,0.5,95,122.0
2108,B-2,237.0,0.5,95,122.0
2109,D2,237.0,0.5,95,122.0
2110,C2,237.0,0.5,95,122.0
2111,B-2,237.5,0.5,95,122.0
2112,D2,237.5,0.5,95,122.0
2113,B-2,238.0,0.5,95,122.0
2114,D2,238.0,0.5,95,122.0
2115,B-2,238.5,0.5,95,122.0
2116,D2,238.5,0.5,95,122.0
2117,B-2,239.0,0.5,95,122.0
2118,D2,239.0,0.5,95,122.0
2119,F5,239.5,0.5,95,122.0
2120,B-2,239.5,0.5,95,122.0
2121,D2,239.5,0.5,95,122.0
2122,C1,240.0,0.5,95,122.0
2123,C3,240.0,1.0,95,122.0
2124,A6,240.0,4.0,95,122.0
2125,G2,240.0,0.5,95,122.0
2126,C2,240.0,0.5,95,122.0
2127,G2,240.0,0.5,95,122.0
2128,C2,240.0,0.5,95,122.0
2129,B-2,240.0,0.5,95,122.0
2130,C2,240.0,0.5,95,122.0
2131,C1,240.5,0.5,95,122.0
2132,B-2,240.5,0.5,95,122.0
2133,G2,240.5,0.5,95,122.0
2134,C2,240.5,0.5,95,122.0
2135,G2,240.5,0.5,95,122.0
2136,C2,240.5,0.5,95,122.0
2137,C1,241.0,0.5,95,122.0
2138,C3,241.0,1.0,95,122.0
2139,G2,241.0,0.5,95,122.0
2140,C2,241.0,0.5,95,122.0
2141,G2,241.0,0.5,95,122.0
2142,C2,241.0,0.5,95,122.0
2143,B-2,241.0,0.5,95,122.0
2144,D2,241.0,0.5,95,122.0
2145,C1,241.5,0.5,95,122.0
2146,B-2,241.5,0.5,95,122.0
2147,G2,241.5,0.5,95,122.0
2148,C2,241.5,0.5,95,122.0
2149,G2,241.5,0.5,95,122.0
2150,C2,241.5,0.5,95,122.0
2151,C1,242.0,0.5,95,122.0
2152,C3,242.0,0.5,95,122.0
2153,G2,242.0,0.5,95,122.0
2154,C2,242.0,0.5,95,122.0
2155,G2,242.0,0.5,95,122.0
2156,C2,242.0,0.5,95,122.0
2157,B-2,242.0,0.5,95,122.0
2158,C2,242.0,0.5,95,122.0
2159,C1,242.5,0.5,95,122.0
2160,C3,242.5,0.5,95,122.0
2161,B-2,242.5,0.5,95,122.0
2162,G2,242.5,0.5,95,122.0
2163,C2,242.5,0.5,95,122.0
2164,G2,242.5,0.5,95,122.0
2165,C2,242.5,0.5,95,122.0
2166,C1,243.0,0.5,95,122.0
2167,C3,243.0,0.5,95,122.0
2168,G2,243.0,0.5,95,122.0
2169,C2,243.0,0.5,95,122.0
2170,G2,243.0,0.5,95,122.0
2171,C2,243.0,0.5,95,122.0
2172,B-2,243.0,0.5,95,122.0
2173,D2,243.0,0.5,95,122.0
2174,C1,243.5,0.5,95,122.0
2175,E-3,243.5,0.5,95,122.0
2176,B-2,243.5,0.5,95,122.0
2177,G2,243.5,0.5,95,122.0
2178,C2,243.5,0.5,95,122.0
2179,G2,243.5,0.5,95,122.0
2180,C2,243.5,0.5,95,122.0
2181,C1,244.0,0.5,95,122.0
2182,G3,244.0,1.0,95,122.0
2183,G2,244.0,0.5,95,122.0
2184,C2,244.0,0.5,95,122.0
2185,G2,244.0,0.5,95,122.0
2186,C2,244.0,0.5,95,122.0
2187,B-2,244.0,0.5,95,122.0
2188,C2,244.0,0.5,95,122.0
2189,C1,244.5,0.5,95,122.0
2190,B-2,244.5,0.5,95,122.0
2191,G2,244.5,0.5,95,122.0
2192,C2,244.5,0.5,95,122.0
2193,G2,244.5,0.5,95,122.0
2194,C2,244.5,0.5,95,122.0
2195,C1,245.0,0.5,95,122.0
2196,G3,245.0,0.5,95,122.0
2197,G2,245.0,0.5,95,122.0
2198,C2,245.0,0.5,95,122.0
2199,G2,245.0,0.5,95,122.0
2200,C2,245.0,0.5,95,122.0
2201,B-2,245.0,0.5,95,122.0
2202,D2,245.0,0.5,95,122.0
2203,C1,245.5,0.5,95,122.0
2204,G3,245.5,1.5,95,122.0
2205,B-2,245.5,0.5,95,122.0
2206,G2,245.5,0.5,95,122.0
2207,C2,245.5,0.5,95,122.0
2208,G2,245.5,0.5,95,122.0
2209,C2,245.5,0.5,95,122.0
2210,C1,246.0,0.5,95,122.0
2211,G2,246.0,0.5,95,122.0
2212,C2,246.0,0.5,95,122.0
2213,G2,246.0,0.5,95,122.0
2214,C2,246.0,0.5,95,122.0
2215,B-2,246.0,0.5,95,122.0
2216,C2,246.0,0.5,95,122.0
2217,C1,246.5,0.5,95,122.0
2218,B-2,246.5,0.5,95,122.0
2219,G2,246.5,0.5,95,122.0
2220,C2,246.5,0.5,95,122.0
2221,G2,246.5,0.5,95,122.0
2222,C2,246.5,0.5,95,122.0
2223,C1,247.0,0.5,95,122.0
2224,G2,247.0,0.5,95,122.0
2225,C2,247.0,0.5,95,122.0
2226,G2,247.0,0.5,95,122.0
2227,C2,247.0,0.5,95,122.0
2228,B-2,247.0,0.5,95,122.0
2229,D2,247.0,0.5,95,122.0
2230,C1,247.5,0.5,95,122.0
2231,G3,247.5,0.5,95,122.0
2232,B-2,247.5,0.5,95,122.0
2233,G2,247.5,0.5,95,122.0
2234,C2,247.5,0.5,95,122.0
2235,G2,247.5,0.5,95,122.0
2236,C2,247.5,0.5,95,122.0
2237,D1,248.0,0.5,95,122.0
2238,F3,248.0,1.0,95,122.0
2239,A2,248.0,0.5,95,122.0
2240,D2,248.0,0.5,95,122.0
2241,A2,248.0,0.5,95,122.0
2242,D2,248.0,0.5,95,122.0
2243,B-2,248.0,0.5,95,122.0
2244,C2,248.0,0.5,95,122.0
2245,D1,248.5,0.5,95,122.0
2246,B-2,248.5,0.5,95,122.0
2247,A2,248.5,0.5,95,122.0
2248,D2,248.5,0.5,95,122.0
2249,A2,248.5,0.5,95,122.0
2250,D2,248.5,0.5,95,122.0
2251,D1,249.0,0.5,95,122.0
2252,F3,249.0,0.5,95,122.0
2253,A2,249.0,0.5,95,122.0
2254,D2,249.0,0.5,95,122.0
2255,A2,249.0,0.5,95,122.0
2256,D2,249.0,0.5,95,122.0
2257,B-2,249.0,0.5,95,122.0
2258,D2,249.0,0.5,95,122.0
2259,D1,249.5,0.5,95,122.0
2260,F3,249.5,1.0,95,122.0
2261,B-2,249.5,0.5,95,122.0
2262,A2,249.5,0.5,95,122.0
2263,D2,249.5,0.5,95,122.0
2264,A2,249.5,0.5,95,122.0
2265,D2,249.5,0.5,95,122.0
2266,D1,250.0,0.5,95,122.0
2267,A2,250.0,0.5,95,122.0
2268,D2,250.0,0.5,95,122.0
2269,A2,250.0,0.5,95,122.0
2270,D2,250.0,0.5,95,122.0
2271,B-2,250.0,0.5,95,122.0
2272,C2,250.0,0.5,95,122.0
2273,D1,250.5,0.5,95,122.0
2274,B-2,250.5,0.5,95,122.0
2275,A2,250.5,0.5,95,122.0
2276,D2,250.5,0.5,95,122.0
2277,A2,250.5,0.5,95,122.0
2278,D2,250.5,0.5,95,122.0
2279,D1,251.0,0.5,95,122.0
2280,A2,251.0,0.5,95,122.0
2281,D2,251.0,0.5,95,122.0
2282,A2,251.0,0.5,95,122.0
2283,D2,251.0,0.5,95,122.0
2284,B-2,251.0,0.5,95,122.0
2285,D2,251.0,0.5,95,122.0
2286,D1,251.5,0.5,95,122.0
2287,G3,251.5,0.5,95,122.0
2288,B-2,251.5,0.5,95,122.0
2289,A2,251.5,0.5,95,122.0
2290,D2,251.5,0.5,95,122.0
2291,A2,251.5,0.5,95,122.0
2292,D2,251.5,0.5,95,122.0
2293,D1,252.0,0.5,95,122.0
2294,D3,252.0,1.0,95,122.0
2295,A2,252.0,0.5,95,122.0
2296,D2,252.0,0.5,95,122.0
2297,A2,252.0,0.5,95,122.0
2298,D2,252.0,0.5,95,122.0
2299,B-2,252.0,0.5,95,122.0
2300,C2,252.0,0.5,95,122.0
2301,D1,252.5,0.5,95,122.0
2302,B-2,252.5,0.5,95,122.0
2303,A2,252.5,0.5,95,122.0
2304,D2,252.5,0.5,95,122.0
2305,A2,252.5,0.5,95,122.0
2306,D2,252.5,0.5,95,122.0
2307,D1,253.0,0.5,95,122.0
2308,D3,253.0,0.5,95,122.0
2309,A2,253.0,0.5,95,122.0
2310,D2,253.0,0.5,95,122.0
2311,A2,253.0,0.5,95,122.0
2312,D2,253.0,0.5,95,122.0
2313,B-2,253.0,0.5,95,122.0
2314,D2,253.0,0.5,95,122.0
2315,D1,253.5,0.5,95,122.0
2316,D3,253.5,1.0,95,122.0
2317,B-2,253.5,0.5,95,122.0
2318,A2,253.5,0.5,95,122.0
2319,D2,253.5,0.5,95,122.0
2320,A2,253.5,0.5,95,122.0
2321,D2,253.5,0.5,95,122.0
2322,D1,254.0,0.5,95,122.0
2323,A2,254.0,0.5,95,122.0
2324,D2,254.0,0.5,95,122.0
2325,A2,254.0,0.5,95,122.0
2326,D2,254.0,0.5,95,122.0
2327,B-2,254.0,0.5,95,122.0
2328,C2,254.0,0.5,95,122.0
2329,D1,254.5,0.5,95,122.0
2330,B-2,254.5,0.5,95,122.0
2331,A2,254.5,0.5,95,122.0
2332,D2,254.5,0.5,95,122.0
2333,A2,254.5,0.5,95,122.0
2334,D2,254.5,0.5,95,122.0
2335,D1,255.0,0.5,95,122.0
2336,A2,255.0,0.5,95,122.0
2337,D2,255.0,0.5,95,122.0
2338,A2,255.0,0.5,95,122.0
2339,D2,255.0,0.5,95,122.0
2340,B-2,255.0,0.5,95,122.0
2341,D2,255.0,0.5,95,122.0
2342,D1,255.5,0.5,95,122.0
2343,B-2,255.5,0.5,95,122.0
2344,A2,255.5,0.5,95,122.0
2345,D2,255.5,0.5,95,122.0
2346,A2,255.5,0.5,95,122.0
2347,D2,255.5,0.5,95,122.0
2348,C1,256.0,0.5,95,122.0
2349,C3,256.0,1.0,95,122.0
2350,G2,256.0,0.5,95,122.0
2351,C2,256.0,0.5,95,122.0
2352,G2,256.0,0.5,95,122.0
2353,C2,256.0,0.5,95,122.0
2354,B-2,256.0,0.5,95,122.0
2355,C2,256.0,0.5,95,122.0
2356,C1,256.5,0.5,95,122.0
2357,B-2,256.5,0.5,95,122.0
2358,G2,256.5,0.5,95,122.0
2359,C2,256.5,0.5,95,122.0
2360,G2,256.5,0.5,95,122.0
2361,C2,256.5,0.5,95,122.0
2362,C1,257.0,0.5,95,122.0
2363,C3,257.0,1.0,95,122.0
2364,G2,257.0,0.5,95,122.0
2365,C2,257.0,0.5,95,122.0
2366,G2,257.0,0.5,95,122.0
2367,C2,257.0,0.5,95,122.0
2368,B-2,257.0,0.5,95,122.0
2369,D2,257.0,0.5,95,122.0
2370,C1,257.5,0.5,95,122.0
2371,B-2,257.5,0.5,95,122.0
2372,G2,257.5,0.5,95,122.0
2373,C2,257.5,0.5,95,122.0
2374,G2,257.5,0.5,95,122.0
2375,C2,257.5,0.5,95,122.0
2376,C1,258.0,0.5,95,122.0
2377,C3,258.0,0.5,95,122.0
2378,G2,258.0,0.5,95,122.0
2379,C2,258.0,0.5,95,122.0
2380,G2,258.0,0.5,95,122.0
2381,C2,258.0,0.5,95,122.0
2382,B-2,258.0,0.5,95,122.0
2383,C2,258.0,0.5,95,122.0
2384,C1,258.5,0.5,95,122.0
2385,C3,258.5,0.5,95,122.0
2386,B-2,258.5,0.5,95,122.0
2387,G2,258.5,0.5,95,122.0
2388,C2,258.5,0.5,95,122.0
2389,G2,258.5,0.5,95,122.0
2390,C2,258.5,0.5,95,122.0
2391,C1,259.0,0.5,95,122.0
2392,C3,259.0,0.5,95,122.0
2393,G2,259.0,0.5,95,122.0
2394,C2,259.0,0.5,95,122.0
2395,G2,259.0,0.5,95,122.0
2396,C2,259.0,0.5,95,122.0
2397,B-2,259.0,0.5,95,122.0
2398,D2,259.0,0.5,95,122.0
2399,C1,259.5,0.5,95,122.0
2400,E-3,259.5,0.5,95,122.0
2401,B-2,259.5,0.5,95,122.0
2402,G2,259.5,0.5,95,122.0
2403,C2,259.5,0.5,95,122.0
2404,G2,259.5,0.5,95,122.0
2405,C2,259.5,0.5,95,122.0
2406,E-1,260.0,0.5,95,122.0
2407,G3,260.0,1.0,95,122.0
2408,B-2,260.0,0.5,95,122.0
2409,E-2,260.0,0.5,95,122.0
2410,B-2,260.0,0.5,95,122.0
2411,E-2,260.0,0.5,95,122.0
2412,B-2,260.0,0.5,95,122.0
2413,C2,260.0,0.5,95,122.0
2414,E-1,260.5,0.5,95,122.0
2415,B-2,260.5,0.5,95,122.0
2416,B-2,260.5,0.5,95,122.0
2417,E-2,260.5,0.5,95,122.0
2418,B-2,260.5,0.5,95,122.0
2419,E-2,260.5,0.5,95,122.0
2420,E-1,261.0,0.5,95,122.0
2421,G3,261.0,0.5,95,122.0
2422,B-2,261.0,0.5,95,122.0
2423,E-2,261.0,0.5,95,122.0
2424,B-2,261.0,0.5,95,122.0
2425,E-2,261.0,0.5,95,122.0
2426,B-2,261.0,0.5,95,122.0
2427,D2,261.0,0.5,95,122.0
2428,E-1,261.5,0.5,95,122.0
2429,G3,261.5,1.5,95,122.0
2430,B-2,261.5,0.5,95,122.0
2431,B-2,261.5,0.5,95,122.0
2432,E-2,261.5,0.5,95,122.0
2433,B-2,261.5,0.5,95,122.0
2434,E-2,261.5,0.5,95,122.0
2435,E-1,262.0,0.5,95,122.0
2436,B-2,262.0,0.5,95,122.0
2437,E-2,262.0,0.5,95,122.0
2438,B-2,262.0,0.5,95,122.0
2439,E-2,262.0,0.5,95,122.0
2440,B-2,262.0,0.5,95,122.0
2441,C2,262.0,0.5,95,122.0
2442,E-1,262.5,0.5,95,122.0
2443,B-2,262.5,0.5,95,122.0
2444,B-2,262.5,0.5,95,122.0
2445,E-2,262.5,0.5,95,122.0
2446,B-2,262.5,0.5,95,122.0
2447,E-2,262.5,0.5,95,122.0
2448,E-1,263.0,0.5,95,122.0
2449,B-2,263.0,0.5,95,122.0
2450,E-2,263.0,0.5,95,122.0
2451,B-2,263.0,0.5,95,122.0
2452,E-2,263.0,0.5,95,122.0
2453,B-2,263.0,0.5,95,122.0
2454,D2,263.0,0.5,95,122.0
2455,E-1,263.5,0.5,95,122.0
2456,B-3,263.5,0.5,95,122.0
2457,B-2,263.5,0.5,95,122.0
2458,B-2,263.5,0.5,95,122.0
2459,E-2,263.5,0.5,95,122.0
2460,B-2,263.5,0.5,95,122.0
2461,E-2,263.5,0.5,95,122.0
2462,D1,264.0,0.5,95,122.0
2463,B-3,264.0,1.0,95,122.0
2464,A2,264.0,0.5,95,122.0
2465,D2,264.0,0.5,95,122.0
2466,A2,264.0,0.5,95,122.0
2467,D2,264.0,0.5,95,122.0
2468,B-2,264.0,0.5,95,122.0
2469,C2,264.0,0.5,95,122.0
2470,D1,264.5,0.5,95,122.0
2471,B-2,264.5,0.5,95,122.0
2472,A2,264.5,0.5,95,122.0
2473,D2,264.5,0.5,95,122.0
2474,A2,264.5,0.5,95,122.0
2475,D2,264.5,0.5,95,122.0
2476,D1,265.0,0.5,95,122.0
2477,D3,265.0,0.5,95,122.0
2478,A2,265.0,0.5,95,122.0
2479,D2,265.0,0.5,95,122.0
2480,A2,265.0,0.5,95,122.0
2481,D2,265.0,0.5,95,122.0
2482,B-2,265.0,0.5,95,122.0
2483,D2,265.0,0.5,95,122.0
2484,D1,265.5,0.5,95,122.0
2485,D3,265.5,1.0,95,122.0
2486,B-2,265.5,0.5,95,122.0
2487,A2,265.5,0.5,95,122.0
2488,D2,265.5,0.5,95,122.0
2489,A2,265.5,0.5,95,122.0
2490,D2,265.5,0.5,95,122.0
2491,D1,266.0,0.5,95,122.0
2492,A2,266.0,0.5,95,122.0
2493,D2,266.0,0.5,95,122.0
2494,A2,266.0,0.5,95,122.0
2495,D2,266.0,0.5,95,122.0
2496,B-2,266.0,0.5,95,122.0
2497,C2,266.0,0.5,95,122.0
2498,D1,266.5,0.5,95,122.0
2499,B-2,266.5,0.5,95,122.0
2500,A2,266.5,0.5,95,122.0
2501,D2,266.5,0.5,95,122.0
2502,A2,266.5,0.5,95,122.0
2503,D2,266.5,0.5,95,122.0
2504,D1,267.0,0.5,95,122.0
2505,A2,267.0,0.5,95,122.0
2506,D2,267.0,0.5,95,122.0
2507,A2,267.0,0.5,95,122.0
2508,D2,267.0,0.5,95,122.0
2509,B-2,267.0,0.5,95,122.0
2510,D2,267.0,0.5,95,122.0
2511,D1,267.5,0.5,95,122.0
2512,B-3,267.5,0.5,95,122.0
2513,B-2,267.5,0.5,95,122.0
2514,A2,267.5,0.5,95,122.0
2515,D2,267.5,0.5,95,122.0
2516,A2,267.5,0.5,95,122.0
2517,D2,267.5,0.5,95,122.0
2518,F1,268.0,0.5,95,122.0
2519,B-3,268.0,1.0,95,122.0
2520,C3,268.0,0.5,95,122.0
2521,F2,268.0,0.5,95,122.0
2522,C3,268.0,0.5,95,122.0
2523,F2,268.0,0.5,95,122.0
2524,B-2,268.0,0.5,95,122.0
2525,C2,268.0,0.5,95,122.0
2526,F1,268.5,0.5,95,122.0
2527,B-2,268.5,0.5,95,122.0
2528,C3,268.5,0.5,95,122.0
2529,F2,268.5,0.5,95,122.0
2530,C3,268.5,0.5,95,122.0
2531,F2,268.5,0.5,95,122.0
2532,F1,269.0,0.5,95,122.0
2533,D3,269.0,0.5,95,122.0
2534,C3,269.0,0.5,95,122.0
2535,F2,269.0,0.5,95,122.0
2536,C3,269.0,0.5,95,122.0
2537,F2,269.0,0.5,95,122.0
2538,B-2,269.0,0.5,95,122.0
2539,D2,269.0,0.5,95,122.0
2540,F1,269.5,0.5,95,122.0
2541,D3,269.5,1.0,95,122.0
2542,B-2,269.5,0.5,95,122.0
2543,C3,269.5,0.5,95,122.0
2544,F2,269.5,0.5,95,122.0
2545,C3,269.5,0.5,95,122.0
2546,F2,269.5,0.5,95,122.0
2547,F1,270.0,0.5,95,122.0
2548,C3,270.0,0.5,95,122.0
2549,F2,270.0,0.5,95,122.0
2550,C3,270.0,0.5,95,122.0
2551,F2,270.0,0.5,95,122.0
2552,B-2,270.0,0.5,95,122.0
2553,C2,270.0,0.5,95,122.0
2554,F1,270.5,0.5,95,122.0
2555,B-2,270.5,0.5,95,122.0
2556,C3,270.5,0.5,95,122.0
2557,F2,270.5,0.5,95,122.0
2558,C3,270.5,0.5,95,122.0
2559,F2,270.5,0.5,95,122.0
2560,F1,271.0,0.5,95,122.0
2561,C3,271.0,0.5,95,122.0
2562,F2,271.0,0.5,95,122.0
2563,C3,271.0,0.5,95,122.0
2564,F2,271.0,0.5,95,122.0
2565,B-2,271.0,0.5,95,122.0
2566,D2,271.0,0.5,95,122.0
2567,F1,271.5,0.5,95,122.0
2568,B-2,271.5,0.5,95,122.0
2569,C3,271.5,0.5,95,122.0
2570,F2,271.5,0.5,95,122.0
2571,C3,271.5,0.5,95,122.0
2572,F2,271.5,0.5,95,122.0
2573,C1,272.0,0.5,95,122.0
2574,C3,272.0,1.0,95,122.0
2575,G2,272.0,0.5,95,122.0
2576,C2,272.0,0.5,95,122.0
2577,G2,272.0,0.5,95,122.0
2578,C2,272.0,0.5,95,122.0
2579,B-2,272.0,0.5,95,122.0
2580,C2,272.0,0.5,95,122.0
2581,C1,272.5,0.5,95,122.0
2582,B-2,272.5,0.5,95,122.0
2583,G2,272.5,0.5,95,122.0
2584,C2,272.5,0.5,95,122.0
2585,G2,272.5,0.5,95,122.0
2586,C2,272.5,0.5,95,122.0
2587,C1,273.0,0.5,95,122.0
2588,C3,273.0,1.0,95,122.0
2589,G2,273.0,0.5,95,122.0
2590,C2,273.0,0.5,95,122.0
2591,G2,273.0,0.5,95,122.0
2592,C2,273.0,0.5,95,122.0
2593,B-2,273.0,0.5,95,122.0
2594,D2,273.0,0.5,95,122.0
2595,C1,273.5,0.5,95,122.0
2596,B-2,273.5,0.5,95,122.0
2597,G2,273.5,0.5,95,122.0
2598,C2,273.5,0.5,95,122.0
2599,G2,273.5,0.5,95,122.0
2600,C2,273.5,0.5,95,122.0
2601,C1,274.0,0.5,95,122.0
2602,C3,274.0,0.5,95,122.0
2603,G2,274.0,0.5,95,122.0
2604,C2,274.0,0.5,95,122.0
2605,G2,274.0,0.5,95,122.0
2606,C2,274.0,0.5,95,122.0
2607,B-2,274.0,0.5,95,122.0
2608,C2,274.0,0.5,95,122.0
2609,C1,274.5,0.5,95,122.0
2610,C3,274.5,0.5,95,122.0
2611,B-2,274.5,0.5,95,122.0
2612,G2,274.5,0.5,95,122.0
2613,C2,274.5,0.5,95,122.0
2614,G2,274.5,0.5,95,122.0
2615,C2,274.5,0.5,95,122.0
2616,C1,275.0,0.5,95,122.0
2617,C3,275.0,0.5,95,122.0
2618,G2,275.0,0.5,95,122.0
2619,C2,275.0,0.5,95,122.0
2620,G2,275.0,0.5,95,122.0
2621,C2,275.0,0.5,95,122.0
2622,B-2,275.0,0.5,95,122.0
2623,D2,275.0,0.5,95,122.0
2624,C1,275.5,0.5,95,122.0
2625,E-3,275.5,0.5,95,122.0
2626,B-2,275.5,0.5,95,122.0
2627,G2,275.5,0.5,95,122.0
2628,C2,275.5,0.5,95,122.0
2629,G2,275.5,0.5,95,122.0
2630,C2,275.5,0.5,95,122.0
2631,C1,276.0,0.5,95,122.0
2632,G3,276.0,1.0,95,122.0
2633,G2,276.0,0.5,95,122.0
2634,C2,276.0,0.5,95,122.0
2635,G2,276.0,0.5,95,122.0
2636,C2,276.0,0.5,95,122.0
2637,B-2,276.0,0.5,95,122.0
2638,C2,276.0,0.5,95,122.0
2639,C1,276.5,0.5,95,122.0
2640,B-2,276.5,0.5,95,122.0
2641,G2,276.5,0.5,95,122.0
2642,C2,276.5,0.5,95,122.0
2643,G2,276.5,0.5,95,122.0
2644,C2,276.5,0.5,95,122.0
2645,C1,277.0,0.5,95,122.0
2646,G3,277.0,0.5,95,122.0
2647,G2,277.0,0.5,95,122.0
2648,C2,277.0,0.5,95,122.0
2649,G2,277.0,0.5,95,122.0
2650,C2,277.0,0.5,95,122.0
2651,B-2,277.0,0.5,95,122.0
2652,D2,277.0,0.5,95,122.0
2653,C1,277.5,0.5,95,122.0
2654,G3,277.5,1.5,95,122.0
2655,B-2,277.5,0.5,95,122.0
2656,G2,277.5,0.5,95,122.0
2657,C2,277.5,0.5,95,122.0
2658,G2,277.5,0.5,95,122.0
2659,C2,277.5,0.5,95,122.0
2660,C1,278.0,0.5,95,122.0
2661,G2,278.0,0.5,95,122.0
2662,C2,278.0,0.5,95,122.0
2663,G2,278.0,0.5,95,122.0
2664,C2,278.0,0.5,95,122.0
2665,B-2,278.0,0.5,95,122.0
2666,C2,278.0,0.5,95,122.0
2667,C1,278.5,0.5,95,122.0
2668,B-2,278.5,0.5,95,122.0
2669,G2,278.5,0.5,95,122.0
2670,C2,278.5,0.5,95,122.0
2671,G2,278.5,0.5,95,122.0
2672,C2,278.5,0.5,95,122.0
2673,C1,279.0,0.5,95,122.0
2674,G2,279.0,0.5,95,122.0
2675,C2,279.0,0.5,95,122.0
2676,G2,279.0,0.5,95,122.0
2677,C2,279.0,0.5,95,122.0
2678,B-2,279.0,0.5,95,122.0
2679,D2,279.0,0.5,95,122.0
2680,C1,279.5,0.5,95,122.0
2681,G3,279.5,0.5,95,122.0
2682,B-2,279.5,0.5,95,122.0
2683,G2,279.5,0.5,95,122.0
2684,C2,279.5,0.5,95,122.0
2685,G2,279.5,0.5,95,122.0
2686,C2,279.5,0.5,95,122.0
2687,D1,280.0,0.5,95,122.0
2688,F3,280.0,1.0,95,122.0
2689,A2,280.0,0.5,95,122.0
2690,D2,280.0,0.5,95,122.0
2691,A2,280.0,0.5,95,122.0
2692,D2,280.0,0.5,95,122.0
2693,B-2,280.0,0.5,95,122.0
2694,C2,280.0,0.5,95,122.0
2695,D1,280.5,0.5,95,122.0
2696,B-2,280.5,0.5,95,122.0
2697,A2,280.5,0.5,95,122.0
2698,D2,280.5,0.5,95,122.0
2699,A2,280.5,0.5,95,122.0
2700,D2,280.5,0.5,95,122.0
2701,D1,281.0,0.5,95,122.0
2702,F3,281.0,0.5,95,122.0
2703,A2,281.0,0.5,95,122.0
2704,D2,281.0,0.5,95,122.0
2705,A2,281.0,0.5,95,122.0
2706,D2,281.0,0.5,95,122.0
2707,B-2,281.0,0.5,95,122.0
2708,D2,281.0,0.5,95,122.0
2709,D1,281.5,0.5,95,122.0
2710,F3,281.5,1.0,95,122.0
2711,B-2,281.5,0.5,95,122.0
2712,A2,281.5,0.5,95,122.0
2713,D2,281.5,0.5,95,122.0
2714,A2,281.5,0.5,95,122.0
2715,D2,281.5,0.5,95,122.0
2716,D1,282.0,0.5,95,122.0
2717,A2,282.0,0.5,95,122.0
2718,D2,282.0,0.5,95,122.0
2719,A2,282.0,0.5,95,122.0
2720,D2,282.0,0.5,95,122.0
2721,B-2,282.0,0.5,95,122.0
2722,C2,282.0,0.5,95,122.0
2723,D1,282.5,0.5,95,122.0
2724,B-2,282.5,0.5,95,122.0
2725,A2,282.5,0.5,95,122.0
2726,D2,282.5,0.5,95,122.0
2727,A2,282.5,0.5,95,122.0
2728,D2,282.5,0.5,95,122.0
2729,D1,283.0,0.5,95,122.0
2730,A2,283.0,0.5,95,122.0
2731,D2,283.0,0.5,95,122.0
2732,A2,283.0,0.5,95,122.0
2733,D2,283.0,0.5,95,122.0
2734,B-2,283.0,0.5,95,122.0
2735,D2,283.0,0.5,95,122.0
2736,D1,283.5,0.5,95,122.0
2737,G3,283.5,0.5,95,122.0
2738,B-2,283.5,0.5,95,122.0
2739,A2,283.5,0.5,95,122.0
2740,D2,283.5,0.5,95,122.0
2741,A2,283.5,0.5,95,122.0
2742,D2,283.5,0.5,95,122.0
2743,D1,284.0,0.5,95,122.0
2744,D3,284.0,1.0,95,122.0
2745,A2,284.0,0.5,95,122.0
2746,D2,284.0,0.5,95,122.0
2747,A2,284.0,0.5,95,122.0
2748,D2,284.0,0.5,95,122.0
2749,B-2,284.0,0.5,95,122.0
2750,C2,284.0,0.5,95,122.0
2751,D1,284.5,0.5,95,122.0
2752,B-2,284.5,0.5,95,122.0
2753,A2,284.5,0.5,95,122.0
2754,D2,284.5,0.5,95,122.0
2755,A2,284.5,0.5,95,122.0
2756,D2,284.5,0.5,95,122.0
2757,D1,285.0,0.5,95,122.0
2758,D3,285.0,0.5,95,122.0
2759,A2,285.0,0.5,95,122.0
2760,D2,285.0,0.5,95,122.0
2761,A2,285.0,0.5,95,122.0
2762,D2,285.0,0.5,95,122.0
2763,B-2,285.0,0.5,95,122.0
2764,D2,285.0,0.5,95,122.0
2765,D1,285.5,0.5,95,122.0
2766,D3,285.5,1.0,95,122.0
2767,B-2,285.5,0.5,95,122.0
2768,A2,285.5,0.5,95,122.0
2769,D2,285.5,0.5,95,122.0
2770,A2,285.5,0.5,95,122.0
2771,D2,285.5,0.5,95,122.0
2772,D1,286.0,0.5,95,122.0
2773,A2,286.0,0.5,95,122.0
2774,D2,286.0,0.5,95,122.0
2775,A2,286.0,0.5,95,122.0
2776,D2,286.0,0.5,95,122.0
2777,B-2,286.0,0.5,95,122.0
2778,C2,286.0,0.5,95,122.0
2779,D1,286.5,0.5,95,122.0
2780,B-2,286.5,0.5,95,122.0
2781,A2,286.5,0.5,95,122.0
2782,D2,286.5,0.5,95,122.0
2783,A2,286.5,0.5,95,122.0
2784,D2,286.5,0.5,95,122.0
2785,D1,287.0,0.5,95,122.0
2786,A2,287.0,0.5,95,122.0
2787,D2,287.0,0.5,95,122.0
2788,A2,287.0,0.5,95,122.0
2789,D2,287.0,0.5,95,122.0
2790,B-2,287.0,0.5,95,122.0
2791,D2,287.0,0.5,95,122.0
2792,D1,287.5,0.5,95,122.0
2793,B-2,287.5,0.5,95,122.0
2794,A2,287.5,0.5,95,122.0
2795,D2,287.5,0.5,95,122.0
2796,A2,287.5,0.5,95,122.0
2797,D2,287.5,0.5,95,122.0
2798,C1,288.0,0.5,95,122.0
2799,C3,288.0,1.0,95,122.0
2800,G2,288.0,0.5,95,122.0
2801,C2,288.0,0.5,95,122.0
2802,G2,288.0,0.5,95,122.0
2803,C2,288.0,0.5,95,122.0
2804,B-2,288.0,0.5,95,122.0
2805,C2,288.0,0.5,95,122.0
2806,C1,288.5,0.5,95,122.0
2807,B-2,288.5,0.5,95,122.0
2808,G2,288.5,0.5,95,122.0
2809,C2,288.5,0.5,95,122.0
2810,G2,288.5,0.5,95,122.0
2811,C2,288.5,0.5,95,122.0
2812,C1,289.0,0.5,95,122.0
2813,C3,289.0,1.0,95,122.0
2814,G2,289.0,0.5,95,122.0
2815,C2,289.0,0.5,95,122.0
2816,G2,289.0,0.5,95,122.0
2817,C2,289.0,0.5,95,122.0
2818,B-2,289.0,0.5,95,122.0
2819,D2,289.0,0.5,95,122.0
2820,C1,289.5,0.5,95,122.0
2821,B-2,289.5,0.5,95,122.0
2822,G2,289.5,0.5,95,122.0
2823,C2,289.5,0.5,95,122.0
2824,G2,289.5,0.5,95,122.0
2825,C2,289.5,0.5,95,122.0
2826,C1,290.0,0.5,95,122.0
2827,C3,290.0,0.5,95,122.0
2828,G2,290.0,0.5,95,122.0
2829,C2,290.0,0.5,95,122.0
2830,G2,290.0,0.5,95,122.0
2831,C2,290.0,0.5,95,122.0
2832,B-2,290.0,0.5,95,122.0
2833,C2,290.0,0.5,95,122.0
2834,C1,290.5,0.5,95,122.0
2835,C3,290.5,0.5,95,122.0
2836,B-2,290.5,0.5,95,122.0
2837,G2,290.5,0.5,95,122.0
2838,C2,290.5,0.5,95,122.0
2839,G2,290.5,0.5,95,122.0
2840,C2,290.5,0.5,95,122.0
2841,C1,291.0,0.5,95,122.0
2842,C3,291.0,0.5,95,122.0
2843,G2,291.0,0.5,95,122.0
2844,C2,291.0,0.5,95,122.0
2845,G2,291.0,0.5,95,122.0
2846,C2,291.0,0.5,95,122.0
2847,B-2,291.0,0.5,95,122.0
2848,D2,291.0,0.5,95,122.0
2849,C1,291.5,0.5,95,122.0
2850,E-3,291.5,0.5,95,122.0
2851,B-2,291.5,0.5,95,122.0
2852,G2,291.5,0.5,95,122.0
2853,C2,291.5,0.5,95,122.0
2854,G2,291.5,0.5,95,122.0
2855,C2,291.5,0.5,95,122.0
2856,E-1,292.0,0.5,95,122.0
2857,G3,292.0,1.0,95,122.0
2858,B-2,292.0,0.5,95,122.0
2859,E-2,292.0,0.5,95,122.0
2860,B-2,292.0,0.5,95,122.0
2861,E-2,292.0,0.5,95,122.0
2862,B-2,292.0,0.5,95,122.0
2863,C2,292.0,0.5,95,122.0
2864,E-1,292.5,0.5,95,122.0
2865,B-2,292.5,0.5,95,122.0
2866,B-2,292.5,0.5,95,122.0
2867,E-2,292.5,0.5,95,122.0
2868,B-2,292.5,0.5,95,122.0
2869,E-2,292.5,0.5,95,122.0
2870,E-1,293.0,0.5,95,122.0
2871,G3,293.0,0.5,95,122.0
2872,B-2,293.0,0.5,95,122.0
2873,E-2,293.0,0.5,95,122.0
2874,B-2,293.0,0.5,95,122.0
2875,E-2,293.0,0.5,95,122.0
2876,B-2,293.0,0.5,95,122.0
2877,D2,293.0,0.5,95,122.0
2878,E-1,293.5,0.5,95,122.0
2879,G3,293.5,1.5,95,122.0
2880,B-2,293.5,0.5,95,122.0
2881,B-2,293.5,0.5,95,122.0
2882,E-2,293.5,0.5,95,122.0
2883,B-2,293.5,0.5,95,122.0
2884,E-2,293.5,0.5,95,122.0
2885,E-1,294.0,0.5,95,122.0
2886,B-2,294.0,0.5,95,122.0
2887,E-2,294.0,0.5,95,122.0
2888,B-2,294.0,0.5,95,122.0
2889,E-2,294.0,0.5,95,122.0
2890,B-2,294.0,0.5,95,122.0
2891,C2,294.0,0.5,95,122.0
2892,E-1,294.5,0.5,95,122.0
2893,B-2,294.5,0.5,95,122.0
2894,B-2,294.5,0.5,95,122.0
2895,E-2,294.5,0.5,95,122.0
2896,B-2,294.5,0.5,95,122.0
2897,E-2,294.5,0.5,95,122.0
2898,E-1,295.0,0.5,95,122.0
2899,B-2,295.0,0.5,95,122.0
2900,E-2,295.0,0.5,95,122.0
2901,B-2,295.0,0.5,95,122.0
2902,E-2,295.0,0.5,95,122.0
2903,B-2,295.0,0.5,95,122.0
2904,D2,295.0,0.5,95,122.0
2905,E-1,295.5,0.5,95,122.0
2906,B-3,295.5,0.5,95,122.0
2907,B-2,295.5,0.5,95,122.0
2908,B-2,295.5,0.5,95,122.0
2909,E-2,295.5,0.5,95,122.0
2910,B-2,295.5,0.5,95,122.0
2911,E-2,295.5,0.5,95,122.0
2912,D1,296.0,0.5,95,122.0
2913,B-3,296.0,1.0,95,122.0
2914,A2,296.0,0.5,95,122.0
2915,D2,296.0,0.5,95,122.0
2916,A2,296.0,0.5,95,122.0
2917,D2,296.0,0.5,95,122.0
2918,B-2,296.0,0.5,95,122.0
2919,C2,296.0,0.5,95,122.0
2920,D1,296.5,0.5,95,122.0
2921,B-2,296.5,0.5,95,122.0
2922,A2,296.5,0.5,95,122.0
2923,D2,296.5,0.5,95,122.0
2924,A2,296.5,0.5,95,122.0
2925,D2,296.5,0.5,95,122.0
2926,D1,297.0,0.5,95,122.0
2927,D3,297.0,0.5,95,122.0
2928,A2,297.0,0.5,95,122.0
2929,D2,297.0,0.5,95,122.0
2930,A2,297.0,0.5,95,122.0
2931,D2,297.0,0.5,95,122.0
2932,B-2,297.0,0.5,95,122.0
2933,D2,297.0,0.5,95,122.0
2934,D1,297.5,0.5,95,122.0
2935,D3,297.5,1.0,95,122.0
2936,B-2,297.5,0.5,95,122.0
2937,A2,297.5,0.5,95,122.0
2938,D2,297.5,0.5,95,122.0
2939,A2,297.5,0.5,95,122.0
2940,D2,297.5,0.5,95,122.0
2941,D1,298.0,0.5,95,122.0
2942,A2,298.0,0.5,95,122.0
2943,D2,298.0,0.5,95,122.0
2944,A2,298.0,0.5,95,122.0
2945,D2,298.0,0.5,95,122.0
2946,B-2,298.0,0.5,95,122.0
2947,C2,298.0,0.5,95,122.0
2948,D1,298.5,0.5,95,122.0
2949,B-2,298.5,0.5,95,122.0
2950,A2,298.5,0.5,95,122.0
2951,D2,298.5,0.5,95,122.0
2952,A2,298.5,0.5,95,122.0
2953,D2,298.5,0.5,95,122.0
2954,D1,299.0,0.5,95,122.0
2955,A2,299.0,0.5,95,122.0
2956,D2,299.0,0.5,95,122.0
2957,A2,299.0,0.5,95,122.0
2958,D2,299.0,0.5,95,122.0
2959,B-2,299.0,0.5,95,122.0
2960,D2,299.0,0.5,95,122.0
2961,D1,299.5,0.5,95,122.0
2962,B-3,299.5,0.5,95,122.0
2963,B-2,299.5,0.5,95,122.0
2964,A2,299.5,0.5,95,122.0
2965,D2,299.5,0.5,95,122.0
2966,A2,299.5,0.5,95,122.0
2967,D2,299.5,0.5,95,122.0
2968,F1,300.0,0.5,95,122.0
2969,B-3,300.0,1.0,95,122.0
2970,C3,300.0,0.5,95,122.0
2971,F2,300.0,0.5,95,122.0
2972,C3,300.0,0.5,95,122.0
2973,F2,300.0,0.5,95,122.0
2974,B-2,300.0,0.5,95,122.0
2975,C2,300.0,0.5,95,122.0
2976,F1,300.5,0.5,95,122.0
2977,B-2,300.5,0.5,95,122.0
2978,C3,300.5,0.5,95,122.0
2979,F2,300.5,0.5,95,122.0
2980,C3,300.5,0.5,95,122.0
2981,F2,300.5,0.5,95,122.0
2982,F1,301.0,0.5,95,122.0
2983,D3,301.0,0.5,95,122.0
2984,C3,301.0,0.5,95,122.0
2985,F2,301.0,0.5,95,122.0
2986,C3,301.0,0.5,95,122.0
2987,F2,301.0,0.5,95,122.0
2988,B-2,301.0,0.5,95,122.0
2989,D2,301.0,0.5,95,122.0
2990,F1,301.5,0.5,95,122.0
2991,D3,301.5,1.0,95,122.0
2992,B-2,301.5,0.5,95,122.0
2993,C3,301.5,0.5,95,122.0
2994,F2,301.5,0.5,95,122.0
2995,C3,301.5,0.5,95,122.0
2996,F2,301.5,0.5,95,122.0
2997,F1,302.0,0.5,95,122.0
2998,C3,302.0,0.5,95,122.0
2999,F2,302.0,0.5,95,122.0
3000,C3,302.0,0.5,95,122.0
3001,F2,302.0,0.5,95,122.0
3002,B-2,302.0,0.5,95,122.0
3003,C2,302.0,0.5,95,122.0
3004,F1,302.5,0.5,95,122.0
3005,B-2,302.5,0.5,95,122.0
3006,C3,302.5,0.5,95,122.0
3007,F2,302.5,0.5,95,122.0
3008,C3,302.5,0.5,95,122.0
3009,F2,302.5,0.5,95,122.0
3010,F1,303.0,0.5,95,122.0
3011,C3,303.0,0.5,95,122.0
3012,F2,303.0,0.5,95,122.0
3013,C3,303.0,0.5,95,122.0
3014,F2,303.0,0.5,95,122.0
3015,B-2,303.0,0.5,95,122.0
3016,D2,303.0,0.5,95,122.0
3017,F1,303.5,0.5,95,122.0
3018,B-2,303.5,0.5,95,122.0
3019,C3,303.5,0.5,95,122.0
3020,F2,303.5,0.5,95,122.0
3021,C3,303.5,0.5,95,122.0
3022,F2,303.5,0.5,95,122.0
3023,C2,304.0,0.5,95,122.0
3024,C2,304.0,0.5,95,122.0
3025,C1,304.0,0.5,95,122.0
3026,B-2,304.0,0.5,95,122.0
3027,C2,304.0,0.5,95,122.0
3028,D2,304.5,0.5,95,122.0
3029,D2,304.5,0.5,95,122.0
3030,D1,304.5,0.5,95,122.0
3031,B-2,304.5,0.5,95,122.0
3032,D2,305.0,0.5,95,122.0
3033,D2,305.0,0.5,95,122.0
3034,D1,305.0,0.5,95,122.0
3035,B-2,305.0,0.5,95,122.0
3036,D2,305.0,0.5,95,122.0
3037,D2,305.5,0.5,95,122.0
3038,D2,305.5,0.5,95,122.0
3039,D1,305.5,0.5,95,122.0
3040,B-2,305.5,0.5,95,122.0
3041,D2,306.0,1.0,95,122.0
3042,D2,306.0,1.0,95,122.0
3043,D1,306.0,1.0,95,122.0
3044,B-2,306.0,0.5,95,122.0
3045,C2,306.0,0.5,95,122.0
3046,B-2,306.5,0.5,95,122.0
3047,C2,307.0,0.5,95,122.0
3048,C2,307.0,0.5,95,122.0
3049,C1,307.0,0.5,95,122.0
3050,B-2,307.0,0.5,95,122.0
3051,D2,307.0,0.5,95,122.0
3052,D2,307.5,0.5,95,122.0
3053,D2,307.5,0.5,95,122.0
3054,D1,307.5,0.5,95,122.0
3055,B-2,307.5,0.5,95,122.0
3056,D2,308.0,0.5,95,122.0
3057,D2,308.0,0.5,95,122.0
3058,D1,308.0,0.5,95,122.0
3059,B-2,308.0,0.5,95,122.0
3060,C2,308.0,0.5,95,122.0
3061,D2,308.5,0.5,95,122.0
3062,D2,308.5,0.5,95,122.0
3063,D1,308.5,0.5,95,122.0
3064,B-2,308.5,0.5,95,122.0
3065,D2,309.0,1.0,95,122.0
3066,D2,309.0,1.0,95,122.0
3067,D1,309.0,1.0,95,122.0
3068,B-2,309.0,0.5,95,122.0
3069,D2,309.0,0.5,95,122.0
3070,B-2,309.5,0.5,95,122.0
3071,C2,310.0,0.5,95,122.0
3072,C2,310.0,0.5,95,122.0
3073,C1,310.0,0.5,95,122.0
3074,B-2,310.0,0.5,95,122.0
3075,C2,310.0,0.5,95,122.0
3076,D2,310.5,0.5,95,122.0
3077,D2,310.5,0.5,95,122.0
3078,D1,310.5,0.5,95,122.0
3079,B-2,310.5,0.5,95,122.0
3080,D2,311.0,0.5,95,122.0
3081,D2,311.0,0.5,95,122.0
3082,D1,311.0,0.5,95,122.0
3083,B-2,311.0,0.5,95,122.0
3084,D2,311.0,0.5,95,122.0
3085,D2,311.5,0.5,95,122.0
3086,D2,311.5,0.5,95,122.0
3087,D1,311.5,0.5,95,122.0
3088,B-2,311.5,0.5,95,122.0
3089,C2,312.0,0.5,95,122.0
3090,C2,312.0,0.5,95,122.0
3091,C1,312.0,0.5,95,122.0
3092,B-2,312.0,0.5,95,122.0
3093,C2,312.0,0.5,95,122.0
3094,D2,312.5,0.5,95,122.0
3095,D2,312.5,0.5,95,122.0
3096,D1,312.5,0.5,95,122.0
3097,B-2,312.5,0.5,95,122.0
3098,D2,313.0,0.5,95,122.0
3099,D2,313.0,0.5,95,122.0
3100,D1,313.0,0.5,95,122.0
3101,B-2,313.0,0.5,95,122.0
3102,D2,313.0,0.5,95,122.0
3103,D2,313.5,0.5,95,122.0
3104,D2,313.5,0.5,95,122.0
3105,D1,313.5,0.5,95,122.0
3106,B-2,313.5,0.5,95,122.0
3107,D2,314.0,1.0,95,122.0
3108,D2,314.0,1.0,95,122.0
3109,D1,314.0,1.0,95,122.0
3110,B-2,314.0,0.5,95,122.0
3111,C2,314.0,0.5,95,122.0
3112,B-2,314.5,0.5,95,122.0
3113,C2,315.0,0.5,95,122.0
3114,C2,315.0,0.5,95,122.0
3115,C1,315.0,0.5,95,122.0
3116,B-2,315.0,0.5,95,122.0
3117,D2,315.0,0.5,95,122.0
3118,D2,315.5,0.5,95,122.0
3119,D2,315.5,0.5,95,122.0
3120,D1,315.5,0.5,95,122.0
3121,B-2,315.5,0.5,95,122.0
3122,D2,316.0,0.5,95,122.0
3123,D2,316.0,0.5,95,122.0
3124,D1,316.0,0.5,95,122.0
3125,B-2,316.0,0.5,95,122.0
3126,C2,316.0,0.5,95,122.0
3127,D2,316.5,0.5,95,122.0
3128,D2,316.5,0.5,95,122.0
3129,D1,316.5,0.5,95,122.0
3130,B-2,316.5,0.5,95,122.0
3131,D2,317.0,1.0,95,122.0
3132,D2,317.0,1.0,95,122.0
3133,D1,317.0,1.0,95,122.0
3134,B-2,317.0,0.5,95,122.0
3135,D2,317.0,0.5,95,122.0
3136,B-2,317.5,0.5,95,122.0
3137,F2,318.0,0.5,95,122.0
3138,F2,318.0,0.5,95,122.0
3139,F1,318.0,0.5,95,122.0
3140,B-2,318.0,0.5,95,122.0
3141,C2,318.0,0.5,95,122.0
3142,F2,318.5,0.5,95,122.0
3143,F2,318.5,0.5,95,122.0
3144,F1,318.5,0.5,95,122.0
3145,B-2,318.5,0.5,95,122.0
3146,C2,319.0,0.5,95,122.0
3147,C2,319.0,0.5,95,122.0
3148,C1,319.0,0.5,95,122.0
3149,B-2,319.0,0.5,95,122.0
3150,D2,319.0,0.5,95,122.0
3151,C2,319.5,0.5,95,122.0
3152,C2,319.5,0.5,95,122.0
3153,C1,319.5,0.5,95,122.0
3154,B-2,319.5,0.5,95,122.0
3155,C2,320.0,0.5,95,122.0
3156,C2,320.0,0.5,95,122.0
3157,C1,320.0,0.5,95,122.0
3158,B-2,320.0,0.5,95,122.0
3159,C2,320.0,0.5,95,122.0
3160,D2,320.5,0.5,95,122.0
3161,D2,320.5,0.5,95,122.0
3162,D1,320.5,0.5,95,122.0
3163,B-2,320.5,0.5,95,122.0
3164,D2,321.0,0.5,95,122.0
3165,D2,321.0,0.5,95,122.0
3166,D1,321.0,0.5,95,122.0
3167,B-2,321.0,0.5,95,122.0
3168,D2,321.0,0.5,95,122.0
3169,D2,321.5,0.5,95,122.0
3170,D2,321.5,0.5,95,122.0
3171,D1,321.5,0.5,95,122.0
3172,B-2,321.5,0.5,95,122.0
3173,D2,322.0,1.0,95,122.0
3174,D2,322.0,1.0,95,122.0
3175,D1,322.0,1.0,95,122.0
3176,B-2,322.0,0.5,95,122.0
3177,C2,322.0,0.5,95,122.0
3178,B-2,322.5,0.5,95,122.0
3179,C2,323.0,0.5,95,122.0
3180,C2,323.0,0.5,95,122.0
3181,C1,323.0,0.5,95,122.0
3182,B-2,323.0,0.5,95,122.0
3183,D2,323.0,0.5,95,122.0
3184,D2,323.5,0.5,95,122.0
3185,D2,323.5,0.5,95,122.0
3186,D1,323.5,0.5,95,122.0
3187,B-2,323.5,0.5,95,122.0
3188,D2,324.0,0.5,95,122.0
3189,D2,324.0,0.5,95,122.0
3190,D1,324.0,0.5,95,122.0
3191,B-2,324.0,0.5,95,122.0
3192,C2,324.0,0.5,95,122.0
3193,D2,324.5,0.5,95,122.0
3194,D2,324.5,0.5,95,122.0
3195,D1,324.5,0.5,95,122.0
3196,B-2,324.5,0.5,95,122.0
3197,D2,325.0,1.0,95,122.0
3198,D2,325.0,1.0,95,122.0
3199,D1,325.0,1.0,95,122.0
3200,B-2,325.0,0.5,95,122.0
3201,D2,325.0,0.5,95,122.0
3202,B-2,325.5,0.5,95,122.0
3203,C2,326.0,0.5,95,122.0
3204,C2,326.0,0.5,95,122.0
3205,C1,326.0,0.5,95,122.0
3206,B-2,326.0,0.5,95,122.0
3207,C2,326.0,0.5,95,122.0
3208,D2,326.5,0.5,95,122.0
3209,D2,326.5,0.5,95,122.0
3210,D1,326.5,0.5,95,122.0
3211,B-2,326.5,0.5,95,122.0
3212,D2,327.0,0.5,95,122.0
3213,D2,327.0,0.5,95,122.0
3214,D1,327.0,0.5,95,122.0
3215,B-2,327.0,0.5,95,122.0
3216,D2,327.0,0.5,95,122.0
3217,D2,327.5,0.5,95,122.0
3218,D2,327.5,0.5,95,122.0
3219,D1,327.5,0.5,95,122.0
3220,B-2,327.5,0.5,95,122.0
3221,C2,328.0,0.5,95,122.0
3222,C2,328.0,0.5,95,122.0
3223,C1,328.0,0.5,95,122.0
3224,B-2,328.0,0.5,95,122.0
3225,C2,328.0,0.5,95,122.0
3226,D2,328.5,0.5,95,122.0
3227,D2,328.5,0.5,95,122.0
3228,D1,328.5,0.5,95,122.0
3229,B-2,328.5,0.5,95,122.0
3230,D2,329.0,0.5,95,122.0
3231,D2,329.0,0.5,95,122.0
3232,D1,329.0,0.5,95,122.0
3233,B-2,329.0,0.5,95,122.0
3234,D2,329.0,0.5,95,122.0
3235,D2,329.5,0.5,95,122.0
3236,D2,329.5,0.5,95,122.0
3237,D1,329.5,0.5,95,122.0
3238,B-2,329.5,0.5,95,122.0
3239,D2,330.0,1.0,95,122.0
3240,D2,330.0,1.0,95,122.0
3241,D1,330.0,1.0,95,122.0
3242,B-2,330.0,0.5,95,122.0
3243,C2,330.0,0.5,95,122.0
3244,B-2,330.5,0.5,95,122.0
3245,C2,331.0,0.5,95,122.0
3246,C2,331.0,0.5,95,122.0
3247,C1,331.0,0.5,95,122.0
3248,B-2,331.0,0.5,95,122.0
3249,D2,331.0,0.5,95,122.0
3250,D2,331.5,0.5,95,122.0
3251,D2,331.5,0.5,95,122.0
3252,D1,331.5,0.5,95,122.0
3253,B-2,331.5,0.5,95,122.0
3254,D2,332.0,0.5,95,122.0
3255,D2,332.0,0.5,95,122.0
3256,D1,332.0,0.5,95,122.0
3257,B-2,332.0,0.5,95,122.0
3258,C2,332.0,0.5,95,122.0
3259,D2,332.5,0.5,95,122.0
3260,D2,332.5,0.5,95,122.0
3261,D1,332.5,0.5,95,122.0
3262,B-2,332.5,0.5,95,122.0
3263,D2,333.0,1.0,95,122.0
3264,D2,333.0,1.0,95,122.0
3265,D1,333.0,1.0,95,122.0
3266,B-2,333.0,0.5,95,122.0
3267,D2,333.0,0.5,95,122.0
3268,B-2,333.5,0.5,95,122.0
3269,F2,334.0,0.5,95,122.0
3270,F2,334.0,0.5,95,122.0
3271,F1,334.0,0.5,95,122.0
3272,B-2,334.0,0.5,95,122.0
3273,C2,334.0,0.5,95,122.0
3274,F2,334.5,0.5,95,122.0
3275,F2,334.5,0.5,95,122.0
3276,F1,334.5,0.5,95,122.0
3277,B-2,334.5,0.5,95,122.0
3278,C2,335.0,0.5,95,122.0
3279,C2,335.0,0.5,95,122.0
3280,C1,335.0,0.5,95,122.0
3281,B-2,335.0,0.5,95,122.0
3282,D2,335.0,0.5,95,122.0
3283,C2,335.5,0.5,95,122.0
3284,C2,335.5,0.5,95,122.0
3285,C1,335.5,0.5,95,122.0
3286,B-2,335.5,0.5,95,122.0
3287,E-4,336.0,0.188,95,122.0
3288,E-1,336.0,0.5,95,122.0
3289,E-3,336.0,0.5,95,122.0
3290,B-2,336.0,0.5,95,122.0
3291,E-2,336.0,0.5,95,122.0
3292,B-2,336.0,0.5,95,122.0
3293,C2,336.0,0.5,95,122.0
3294,G4,336.188,0.188,95,122.0
3295,B-4,336.375,0.188,95,122.0
3296,E-1,336.5,0.5,95,122.0
3297,B-2,336.5,0.5,95,122.0
3298,E-3,336.5,0.5,95,122.0
3299,B-2,336.5,0.5,95,122.0
3300,E-2,336.5,0.5,95,122.0
3301,E-4,336.562,0.188,95,122.0
3302,G4,336.75,0.188,95,122.0
3303,B-4,336.938,0.188,95,122.0
3304,E-1,337.0,0.5,95,122.0
3305,E-3,337.0,0.5,95,122.0
3306,B-2,337.0,0.5,95,122.0
3307,E-2,337.0,0.5,95,122.0
3308,B-2,337.0,0.5,95,122.0
3309,D2,337.0,0.5,95,122.0
3310,E-4,337.125,0.188,95,122.0
3311,G4,337.312,0.188,95,122.0
3312,B-4,337.5,0.188,95,122.0
3313,E-1,337.5,0.5,95,122.0
3314,B-2,337.5,0.5,95,122.0
3315,E-3,337.5,0.5,95,122.0
3316,B-2,337.5,0.5,95,122.0
3317,E-2,337.5,0.5,95,122.0
3318,E-4,337.688,0.188,95,122.0
3319,G4,337.875,0.188,95,122.0
3320,E-1,338.0,0.5,95,122.0
3321,E-3,338.0,0.5,95,122.0
3322,B-2,338.0,0.5,95,122.0
3323,E-2,338.0,0.5,95,122.0
3324,B-2,338.0,0.5,95,122.0
3325,C2,338.0,0.5,95,122.0
3326,B-4,338.062,0.188,95,122.0
3327,E-4,338.25,0.188,95,122.0
3328,G4,338.438,0.188,95,122.0
3329,E-1,338.5,0.5,95,122.0
3330,B-2,338.5,0.5,95,122.0
3331,E-3,338.5,0.5,95,122.0
3332,B-2,338.5,0.5,95,122.0
3333,E-2,338.5,0.5,95,122.0
3334,B-4,338.625,0.188,95,122.0
3335,E-4,338.812,0.188,95,122.0
3336,G4,339.0,0.188,95,122.0
3337,E-1,339.0,0.5,95,122.0
3338,E-3,339.0,0.5,95,122.0
3339,B-2,339.0,0.5,95,122.0
3340,E-2,339.0,0.5,95,122.0
3341,B-2,339.0,0.5,95,122.0
3342,D2,339.0,0.5,95,122.0
3343,B-4,339.188,0.188,95,122.0
3344,E-4,339.375,0.188,95,122.0
3345,E-1,339.5,0.5,95,122.0
3346,E-3,339.5,0.5,95,122.0
3347,B-2,339.5,0.5,95,122.0
3348,E-2,339.5,0.5,95,122.0
3349,B-2,339.5,0.5,95,122.0
3350,C#3,339.5,0.5,95,122.0
3351,G4,339.562,0.188,95,122.0
3352,B-4,339.75,0.188,95,122.0
3353,E-4,339.938,0.062,95,122.0
3354,D4,340.0,0.188,95,122.0
3355,G1,340.0,0.5,95,122.0
3356,G3,340.0,0.5,95,122.0
3357,D3,340.0,0.5,95,122.0
3358,G2,340.0,0.5,95,122.0
3359,B-2,340.0,0.5,95,122.0
3360,C2,340.0,0.5,95,122.0
3361,G4,340.188,0.188,95,122.0
3362,B-4,340.375,0.188,95,122.0
3363,G1,340.5,0.5,95,122.0
3364,B-2,340.5,0.5,95,122.0
3365,G3,340.5,0.5,95,122.0
3366,D3,340.5,0.5,95,122.0
3367,G2,340.5,0.5,95,122.0
3368,D4,340.562,0.188,95,122.0
3369,G4,340.75,0.188,95,122.0
3370,B-4,340.938,0.188,95,122.0
3371,G1,341.0,0.5,95,122.0
3372,G3,341.0,0.5,95,122.0
3373,D3,341.0,0.5,95,122.0
3374,G2,341.0,0.5,95,122.0
3375,B-2,341.0,0.5,95,122.0
3376,D2,341.0,0.5,95,122.0
3377,D4,341.125,0.188,95,122.0
3378,G4,341.312,0.188,95,122.0
3379,B-4,341.5,0.188,95,122.0
3380,G1,341.5,0.5,95,122.0
3381,B-2,341.5,0.5,95,122.0
3382,G3,341.5,0.5,95,122.0
3383,D3,341.5,0.5,95,122.0
3384,G2,341.5,0.5,95,122.0
3385,D4,341.688,0.188,95,122.0
3386,G4,341.875,0.188,95,122.0
3387,G1,342.0,0.5,95,122.0
3388,G3,342.0,0.5,95,122.0
3389,D3,342.0,0.5,95,122.0
3390,G2,342.0,0.5,95,122.0
3391,B-2,342.0,0.5,95,122.0
3392,C2,342.0,0.5,95,122.0
3393,B-4,342.062,0.188,95,122.0
3394,D4,342.25,0.188,95,122.0
3395,G4,342.438,0.188,95,122.0
3396,G1,342.5,0.5,95,122.0
3397,B-2,342.5,0.5,95,122.0
3398,G3,342.5,0.5,95,122.0
3399,D3,342.5,0.5,95,122.0
3400,G2,342.5,0.5,95,122.0
3401,B-4,342.625,0.188,95,122.0
3402,D4,342.812,0.188,95,122.0
3403,G4,343.0,0.188,95,122.0
3404,G1,343.0,0.5,95,122.0
3405,G3,343.0,0.5,95,122.0
3406,D3,343.0,0.5,95,122.0
3407,G2,343.0,0.5,95,122.0
3408,B-2,343.0,0.5,95,122.0
3409,D2,343.0,0.5,95,122.0
3410,C#3,343.0,0.5,95,122.0
3411,B-4,343.188,0.188,95,122.0
3412,D4,343.375,0.188,95,122.0
3413,D1,343.5,0.5,95,122.0
3414,D3,343.5,0.5,95,122.0
3415,A2,343.5,0.5,95,122.0
3416,D2,343.5,0.5,95,122.0
3417,B-2,343.5,0.5,95,122.0
3418,C#3,343.5,0.5,95,122.0
3419,G4,343.562,0.188,95,122.0
3420,B-4,343.75,0.188,95,122.0
3421,D4,343.938,0.062,95,122.0
3422,F4,344.0,0.188,95,122.0
3423,C1,344.0,0.5,95,122.0
3424,C3,344.0,0.5,95,122.0
3425,G2,344.0,0.5,95,122.0
3426,C2,344.0,0.5,95,122.0
3427,B-2,344.0,0.5,95,122.0
3428,C2,344.0,0.5,95,122.0
3429,G4,344.188,0.188,95,122.0
3430,A4,344.375,0.188,95,122.0
3431,D1,344.5,0.5,95,122.0
3432,B-2,344.5,0.5,95,122.0
3433,D3,344.5,0.5,95,122.0
3434,A2,344.5,0.5,95,122.0
3435,D2,344.5,0.5,95,122.0
3436,F4,344.562,0.188,95,122.0
3437,G4,344.75,0.188,95,122.0
3438,A4,344.938,0.188,95,122.0
3439,D1,345.0,0.5,95,122.0
3440,D3,345.0,0.5,95,122.0
3441,A2,345.0,0.5,95,122.0
3442,D2,345.0,0.5,95,122.0
3443,B-2,345.0,0.5,95,122.0
3444,D2,345.0,0.5,95,122.0
3445,F4,345.125,0.188,95,122.0
3446,G4,345.312,0.188,95,122.0
3447,A4,345.5,0.188,95,122.0
3448,D1,345.5,0.5,95,122.0
3449,B-2,345.5,0.5,95,122.0
3450,D3,345.5,0.5,95,122.0
3451,A2,345.5,0.5,95,122.0
3452,D2,345.5,0.5,95,122.0
3453,F4,345.688,0.188,95,122.0
3454,G4,345.875,0.188,95,122.0
3455,D1,346.0,0.5,95,122.0
3456,D3,346.0,0.5,95,122.0
3457,A2,346.0,0.5,95,122.0
3458,D2,346.0,0.5,95,122.0
3459,B-2,346.0,0.5,95,122.0
3460,C2,346.0,0.5,95,122.0
3461,A4,346.062,0.188,95,122.0
3462,F4,346.25,0.188,95,122.0
3463,G4,346.438,0.188,95,122.0
3464,D1,346.5,0.5,95,122.0
3465,B-2,346.5,0.5,95,122.0
3466,D3,346.5,0.5,95,122.0
3467,A2,346.5,0.5,95,122.0
3468,D2,346.5,0.5,95,122.0
3469,A4,346.625,0.188,95,122.0
3470,F4,346.812,0.188,95,122.0
3471,G4,347.0,0.188,95,122.0
3472,D1,347.0,0.5,95,122.0
3473,D3,347.0,0.5,95,122.0
3474,A2,347.0,0.5,95,122.0
3475,D2,347.0,0.5,95,122.0
3476,B-2,347.0,0.5,95,122.0
3477,D2,347.0,0.5,95,122.0
3478,A4,347.188,0.188,95,122.0
3479,F4,347.375,0.188,95,122.0
3480,D1,347.5,0.5,95,122.0
3481,D3,347.5,0.5,95,122.0
3482,A2,347.5,0.5,95,122.0
3483,D2,347.5,0.5,95,122.0
3484,B-2,347.5,0.5,95,122.0
3485,C#3,347.5,0.5,95,122.0
3486,G4,347.562,0.188,95,122.0
3487,A4,347.75,0.188,95,122.0
3488,F4,347.938,0.062,95,122.0
3489,F4,348.0,0.188,95,122.0
3490,C1,348.0,0.5,95,122.0
3491,C3,348.0,0.5,95,122.0
3492,G2,348.0,0.5,95,122.0
3493,C2,348.0,0.5,95,122.0
3494,B-2,348.0,0.5,95,122.0
3495,C2,348.0,0.5,95,122.0
3496,G4,348.188,0.188,95,122.0
3497,A4,348.375,0.188,95,122.0
3498,D1,348.5,0.5,95,122.0
3499,B-2,348.5,0.5,95,122.0
3500,D3,348.5,0.5,95,122.0
3501,A2,348.5,0.5,95,122.0
3502,D2,348.5,0.5,95,122.0
3503,F4,348.562,0.188,95,122.0
3504,G4,348.75,0.188,95,122.0
3505,A4,348.938,0.188,95,122.0
3506,D1,349.0,0.5,95,122.0
3507,D3,349.0,0.5,95,122.0
3508,A2,349.0,0.5,95,122.0
3509,D2,349.0,0.5,95,122.0
3510,B-2,349.0,0.5,95,122.0
3511,D2,349.0,0.5,95,122.0
3512,F4,349.125,0.188,95,122.0
3513,G4,349.312,0.188,95,122.0
3514,A4,349.5,0.188,95,122.0
3515,D1,349.5,0.5,95,122.0
3516,B-2,349.5,0.5,95,122.0
3517,D3,349.5,0.5,95,122.0
3518,A2,349.5,0.5,95,122.0
3519,D2,349.5,0.5,95,122.0
3520,F4,349.688,0.188,95,122.0
3521,G4,349.875,0.188,95,122.0
3522,D1,350.0,0.5,95,122.0
3523,D3,350.0,0.5,95,122.0
3524,A2,350.0,0.5,95,122.0
3525,D2,350.0,0.5,95,122.0
3526,B-2,350.0,0.5,95,122.0
3527,C2,350.0,0.5,95,122.0
3528,A4,350.062,0.188,95,122.0
3529,F4,350.25,0.188,95,122.0
3530,G4,350.438,0.188,95,122.0
3531,D1,350.5,0.5,95,122.0
3532,B-2,350.5,0.5,95,122.0
3533,D3,350.5,0.5,95,122.0
3534,A2,350.5,0.5,95,122.0
3535,D2,350.5,0.5,95,122.0
3536,A4,350.625,0.188,95,122.0
3537,F4,350.812,0.188,95,122.0
3538,G4,351.0,0.188,95,122.0
3539,D1,351.0,0.5,95,122.0
3540,D3,351.0,0.5,95,122.0
3541,A2,351.0,0.5,95,122.0
3542,D2,351.0,0.5,95,122.0
3543,B-2,351.0,0.5,95,122.0
3544,D2,351.0,0.5,95,122.0
3545,C#3,351.0,0.5,95,122.0
3546,A4,351.188,0.188,95,122.0
3547,F4,351.375,0.188,95,122.0
3548,D1,351.5,0.5,95,122.0
3549,D3,351.5,0.5,95,122.0
3550,A2,351.5,0.5,95,122.0
3551,D2,351.5,0.5,95,122.0
3552,B-2,351.5,0.5,95,122.0
3553,C#3,351.5,0.5,95,122.0
3554,G4,351.562,0.188,95,122.0
3555,A4,351.75,0.188,95,122.0
3556,F4,351.938,0.062,95,122.0
3557,E-4,352.0,0.188,95,122.0
3558,E-1,352.0,0.5,95,122.0
3559,E-3,352.0,0.5,95,122.0
3560,B-2,352.0,0.5,95,122.0
3561,E-2,352.0,0.5,95,122.0
3562,B-2,352.0,0.5,95,122.0
3563,C2,352.0,0.5,95,122.0
3564,G4,352.188,0.188,95,122.0
3565,B-4,352.375,0.188,95,122.0
3566,E-1,352.5,0.5,95,122.0
3567,B-2,352.5,0.5,95,122.0
3568,E-3,352.5,0.5,95,122.0
3569,B-2,352.5,0.5,95,122.0
3570,E-2,352.5,0.5,95,122.0
3571,E-4,352.562,0.188,95,122.0
3572,G4,352.75,0.188,95,122.0
3573,B-4,352.938,0.188,95,122.0
3574,E-1,353.0,0.5,95,122.0
3575,E-3,353.0,0.5,95,122.0
3576,B-2,353.0,0.5,95,122.0
3577,E-2,353.0,0.5,95,122.0
3578,B-2,353.0,0.5,95,122.0
3579,D2,353.0,0.5,95,122.0
3580,E-4,353.125,0.188,95,122.0
3581,G4,353.312,0.188,95,122.0
3582,B-4,353.5,0.188,95,122.0
3583,E-1,353.5,0.5,95,122.0
3584,B-2,353.5,0.5,95,122.0
3585,E-3,353.5,0.5,95,122.0
3586,B-2,353.5,0.5,95,122.0
3587,E-2,353.5,0.5,95,122.0
3588,E-4,353.688,0.188,95,122.0
3589,G4,353.875,0.188,95,122.0
3590,E-1,354.0,0.5,95,122.0
3591,E-3,354.0,0.5,95,122.0
3592,B-2,354.0,0.5,95,122.0
3593,E-2,354.0,0.5,95,122.0
3594,B-2,354.0,0.5,95,122.0
3595,C2,354.0,0.5,95,122.0
3596,B-4,354.062,0.188,95,122.0
3597,E-4,354.25,0.188,95,122.0
3598,G4,354.438,0.188,95,122.0
3599,E-1,354.5,0.5,95,122.0
3600,B-2,354.5,0.5,95,122.0
3601,E-3,354.5,0.5,95,122.0
3602,B-2,354.5,0.5,95,122.0
3603,E-2,354.5,0.5,95,122.0
3604,B-4,354.625,0.188,95,122.0
3605,E-4,354.812,0.188,95,122.0
3606,G4,355.0,0.188,95,122.0
3607,E-1,355.0,0.5,95,122.0
3608,E-3,355.0,0.5,95,122.0
3609,B-2,355.0,0.5,95,122.0
3610,E-2,355.0,0.5,95,122.0
3611,B-2,355.0,0.5,95,122.0
3612,D2,355.0,0.5,95,122.0
3613,B-4,355.188,0.188,95,122.0
3614,E-4,355.375,0.188,95,122.0
3615,E-1,355.5,0.5,95,122.0
3616,E-3,355.5,0.5,95,122.0
3617,B-2,355.5,0.5,95,122.0
3618,E-2,355.5,0.5,95,122.0
3619,B-2,355.5,0.5,95,122.0
3620,C#3,355.5,0.5,95,122.0
3621,G4,355.562,0.188,95,122.0
3622,B-4,355.75,0.188,95,122.0
3623,E-4,355.938,0.062,95,122.0
3624,D5,356.0,0.188,95,122.0
3625,G1,356.0,0.5,95,122.0
3626,G3,356.0,0.5,95,122.0
3627,D3,356.0,0.5,95,122.0
3628,G2,356.0,0.5,95,122.0
3629,B-2,356.0,0.5,95,122.0
3630,C2,356.0,0.5,95,122.0
3631,B-4,356.188,0.188,95,122.0
3632,G4,356.375,0.188,95,122.0
3633,G1,356.5,0.5,95,122.0
3634,B-2,356.5,0.5,95,122.0
3635,G3,356.5,0.5,95,122.0
3636,D3,356.5,0.5,95,122.0
3637,G2,356.5,0.5,95,122.0
3638,B-4,356.562,0.188,95,122.0
3639,D5,356.75,0.188,95,122.0
3640,B-4,356.938,0.188,95,122.0
3641,G1,357.0,0.5,95,122.0
3642,G3,357.0,0.5,95,122.0
3643,D3,357.0,0.5,95,122.0
3644,G2,357.0,0.5,95,122.0
3645,B-2,357.0,0.5,95,122.0
3646,D2,357.0,0.5,95,122.0
3647,D5,357.125,0.188,95,122.0
3648,B-4,357.312,0.188,95,122.0
3649,G4,357.5,0.188,95,122.0
3650,G1,357.5,0.5,95,122.0
3651,B-2,357.5,0.5,95,122.0
3652,G3,357.5,0.5,95,122.0
3653,D3,357.5,0.5,95,122.0
3654,G2,357.5,0.5,95,122.0
3655,B-4,357.688,0.188,95,122.0
3656,D5,357.875,0.188,95,122.0
3657,G1,358.0,0.5,95,122.0
3658,G3,358.0,0.5,95,122.0
3659,D3,358.0,0.5,95,122.0
3660,G2,358.0,0.5,95,122.0
3661,B-2,358.0,0.5,95,122.0
3662,C2,358.0,0.5,95,122.0
3663,B-4,358.062,0.188,95,122.0
3664,D5,358.25,0.188,95,122.0
3665,B-4,358.438,0.188,95,122.0
3666,G1,358.5,0.5,95,122.0
3667,B-2,358.5,0.5,95,122.0
3668,G3,358.5,0.5,95,122.0
3669,D3,358.5,0.5,95,122.0
3670,G2,358.5,0.5,95,122.0
3671,G4,358.625,0.188,95,122.0
3672,B-4,358.812,0.188,95,122.0
3673,D5,359.0,0.188,95,122.0
3674,G1,359.0,0.5,95,122.0
3675,G3,359.0,0.5,95,122.0
3676,D3,359.0,0.5,95,122.0
3677,G2,359.0,0.5,95,122.0
3678,B-2,359.0,0.5,95,122.0
3679,D2,359.0,0.5,95,122.0
3680,C#3,359.0,0.5,95,122.0
3681,B-4,359.188,0.188,95,122.0
3682,D5,359.375,0.188,95,122.0
3683,D1,359.5,0.5,95,122.0
3684,D3,359.5,0.5,95,122.0
3685,A2,359.5,0.5,95,122.0
3686,D2,359.5,0.5,95,122.0
3687,B-2,359.5,0.5,95,122.0
3688,C#3,359.5,0.5,95,122.0
3689,B-4,359.562,0.188,95,122.0
3690,G4,359.75,0.188,95,122.0
3691,D5,359.938,0.062,95,122.0
3692,D5,360.0,0.188,95,122.0
3693,C1,360.0,0.5,95,122.0
3694,C3,360.0,0.5,95,122.0
3695,G2,360.0,0.5,95,122.0
3696,C2,360.0,0.5,95,122.0
3697,B-2,360.0,0.5,95,122.0
3698,C2,360.0,0.5,95,122.0
3699,A4,360.188,0.188,95,122.0
3700,F4,360.375,0.188,95,122.0
3701,D1,360.5,0.5,95,122.0
3702,B-2,360.5,0.5,95,122.0
3703,D3,360.5,0.5,95,122.0
3704,A2,360.5,0.5,95,122.0
3705,D2,360.5,0.5,95,122.0
3706,D5,360.562,0.188,95,122.0
3707,A4,360.75,0.188,95,122.0
3708,F4,360.938,0.188,95,122.0
3709,D1,361.0,0.5,95,122.0
3710,D3,361.0,0.5,95,122.0
3711,A2,361.0,0.5,95,122.0
3712,D2,361.0,0.5,95,122.0
3713,B-2,361.0,0.5,95,122.0
3714,D2,361.0,0.5,95,122.0
3715,D5,361.125,0.188,95,122.0
3716,A4,361.312,0.188,95,122.0
3717,F4,361.5,0.188,95,122.0
3718,D1,361.5,0.5,95,122.0
3719,B-2,361.5,0.5,95,122.0
3720,D3,361.5,0.5,95,122.0
3721,A2,361.5,0.5,95,122.0
3722,D2,361.5,0.5,95,122.0
3723,D5,361.688,0.188,95,122.0
3724,A4,361.875,0.188,95,122.0
3725,D1,362.0,0.5,95,122.0
3726,D3,362.0,0.5,95,122.0
3727,A2,362.0,0.5,95,122.0
3728,D2,362.0,0.5,95,122.0
3729,B-2,362.0,0.5,95,122.0
3730,C2,362.0,0.5,95,122.0
3731,F4,362.062,0.188,95,122.0
3732,D5,362.25,0.188,95,122.0
3733,A4,362.438,0.188,95,122.0
3734,D1,362.5,0.5,95,122.0
3735,B-2,362.5,0.5,95,122.0
3736,D3,362.5,0.5,95,122.0
3737,A2,362.5,0.5,95,122.0
3738,D2,362.5,0.5,95,122.0
3739,F4,362.625,0.188,95,122.0
3740,D5,362.812,0.188,95,122.0
3741,A4,363.0,0.188,95,122.0
3742,D1,363.0,0.5,95,122.0
3743,D3,363.0,0.5,95,122.0
3744,A2,363.0,0.5,95,122.0
3745,D2,363.0,0.5,95,122.0
3746,B-2,363.0,0.5,95,122.0
3747,D2,363.0,0.5,95,122.0
3748,F4,363.188,0.188,95,122.0
3749,D5,363.375,0.188,95,122.0
3750,D1,363.5,0.5,95,122.0
3751,D3,363.5,0.5,95,122.0
3752,A2,363.5,0.5,95,122.0
3753,D2,363.5,0.5,95,122.0
3754,B-2,363.5,0.5,95,122.0
3755,C#3,363.5,0.5,95,122.0
3756,A4,363.562,0.188,95,122.0
3757,F4,363.75,0.188,95,122.0
3758,D5,363.938,0.062,95,122.0
3759,D5,364.0,0.188,95,122.0
3760,C1,364.0,0.5,95,122.0
3761,C3,364.0,0.5,95,122.0
3762,G2,364.0,0.5,95,122.0
3763,C2,364.0,0.5,95,122.0
3764,B-2,364.0,0.5,95,122.0
3765,C2,364.0,0.5,95,122.0
3766,A4,364.188,0.188,95,122.0
3767,F4,364.375,0.188,95,122.0
3768,D1,364.5,0.5,95,122.0
3769,B-2,364.5,0.5,95,122.0
3770,D3,364.5,0.5,95,122.0
3771,A2,364.5,0.5,95,122.0
3772,D2,364.5,0.5,95,122.0
3773,D5,364.562,0.188,95,122.0
3774,A4,364.75,0.188,95,122.0
3775,F4,364.938,0.188,95,122.0
3776,D1,365.0,0.5,95,122.0
3777,D3,365.0,0.5,95,122.0
3778,A2,365.0,0.5,95,122.0
3779,D2,365.0,0.5,95,122.0
3780,B-2,365.0,0.5,95,122.0
3781,D2,365.0,0.5,95,122.0
3782,D5,365.125,0.188,95,122.0
3783,A4,365.312,0.188,95,122.0
3784,F4,365.5,0.188,95,122.0
3785,D1,365.5,0.5,95,122.0
3786,B-2,365.5,0.5,95,122.0
3787,D3,365.5,0.5,95,122.0
3788,A2,365.5,0.5,95,122.0
3789,D2,365.5,0.5,95,122.0
3790,D5,365.688,0.188,95,122.0
3791,A4,365.875,0.188,95,122.0
3792,D1,366.0,0.5,95,122.0
3793,D3,366.0,0.5,95,122.0
3794,A2,366.0,0.5,95,122.0
3795,D2,366.0,0.5,95,122.0
3796,B-2,366.0,0.5,95,122.0
3797,C2,366.0,0.5,95,122.0
3798,F4,366.062,0.188,95,122.0
3799,D5,366.25,0.188,95,122.0
3800,A4,366.438,0.188,95,122.0
3801,D1,366.5,0.5,95,122.0
3802,B-2,366.5,0.5,95,122.0
3803,D3,366.5,0.5,95,122.0
3804,A2,366.5,0.5,95,122.0
3805,D2,366.5,0.5,95,122.0
3806,F4,366.625,0.188,95,122.0
3807,D5,366.812,0.188,95,122.0
3808,A4,367.0,0.188,95,122.0
3809,D1,367.0,0.5,95,122.0
3810,D3,367.0,0.5,95,122.0
3811,A2,367.0,0.5,95,122.0
3812,D2,367.0,0.5,95,122.0
3813,B-2,367.0,0.5,95,122.0
3814,D2,367.0,0.5,95,122.0
3815,C#3,367.0,0.5,95,122.0
3816,F4,367.188,0.188,95,122.0
3817,D5,367.375,0.188,95,122.0
3818,D1,367.5,0.5,95,122.0
3819,D3,367.5,0.5,95,122.0
3820,A2,367.5,0.5,95,122.0
3821,D2,367.5,0.5,95,122.0
3822,B-2,367.5,0.5,95,122.0
3823,C#3,367.5,0.5,95,122.0
3824,A4,367.562,0.188,95,122.0
3825,F4,367.75,0.188,95,122.0
3826,D5,367.938,0.062,95,122.0
3827,C2,368.0,0.5,95,122.0
3828,C2,368.0,0.5,95,122.0
3829,D2,368.5,0.5,95,122.0
3830,D2,368.5,0.5,95,122.0
3831,D2,369.0,0.5,95,122.0
3832,D2,369.0,0.5,95,122.0
3833,D2,369.5,0.5,95,122.0
3834,D2,369.5,0.5,95,122.0
3835,D2,370.0,1.0,95,122.0
3836,D2,370.0,1.0,95,122.0
3837,C2,371.0,0.5,95,122.0
3838,C2,371.0,0.5,95,122.0
3839,D2,371.5,0.5,95,122.0
3840,D2,371.5,0.5,95,122.0
3841,D2,372.0,0.5,95,122.0
3842,D2,372.0,0.5,95,122.0
3843,D2,372.5,0.5,95,122.0
3844,D2,372.5,0.5,95,122.0
3845,D2,373.0,1.0,95,122.0
3846,D2,373.0,1.0,95,122.0
3847,F2,374.0,0.5,95,122.0
3848,F2,374.0,0.5,95,122.0
3849,F2,374.5,0.5,95,122.0
3850,F2,374.5,0.5,95,122.0
3851,C2,375.0,0.5,95,122.0
3852,C2,375.0,0.5,95,122.0
3853,C2,375.5,0.5,95,122.0
3854,C2,375.5,0.5,95,122.0
3855,C1,376.0,0.5,95,122.0
3856,C3,376.0,1.0,95,122.0
3857,G2,376.0,0.5,95,122.0
3858,C2,376.0,0.5,95,122.0
3859,G2,376.0,0.5,95,122.0
3860,C2,376.0,0.5,95,122.0
3861,B-2,376.0,0.5,95,122.0
3862,C2,376.0,0.5,95,122.0
3863,C1,376.5,0.5,95,122.0
3864,B-2,376.5,0.5,95,122.0
3865,G2,376.5,0.5,95,122.0
3866,C2,376.5,0.5,95,122.0
3867,G2,376.5,0.5,95,122.0
3868,C2,376.5,0.5,95,122.0
3869,C1,377.0,0.5,95,122.0
3870,C3,377.0,1.0,95,122.0
3871,G2,377.0,0.5,95,122.0
3872,C2,377.0,0.5,95,122.0
3873,G2,377.0,0.5,95,122.0
3874,C2,377.0,0.5,95,122.0
3875,B-2,377.0,0.5,95,122.0
3876,D2,377.0,0.5,95,122.0
3877,C1,377.5,0.5,95,122.0
3878,B-2,377.5,0.5,95,122.0
3879,G2,377.5,0.5,95,122.0
3880,C2,377.5,0.5,95,122.0
3881,G2,377.5,0.5,95,122.0
3882,C2,377.5,0.5,95,122.0
3883,C1,378.0,0.5,95,122.0
3884,C3,378.0,0.5,95,122.0
3885,G2,378.0,0.5,95,122.0
3886,C2,378.0,0.5,95,122.0
3887,G2,378.0,0.5,95,122.0
3888,C2,378.0,0.5,95,122.0
3889,B-2,378.0,0.5,95,122.0
3890,C2,378.0,0.5,95,122.0
3891,C1,378.5,0.5,95,122.0
3892,C3,378.5,0.5,95,122.0
3893,B-2,378.5,0.5,95,122.0
3894,G2,378.5,0.5,95,122.0
3895,C2,378.5,0.5,95,122.0
3896,G2,378.5,0.5,95,122.0
3897,C2,378.5,0.5,95,122.0
3898,C1,379.0,0.5,95,122.0
3899,C3,379.0,0.5,95,122.0
3900,G2,379.0,0.5,95,122.0
3901,C2,379.0,0.5,95,122.0
3902,G2,379.0,0.5,95,122.0
3903,C2,379.0,0.5,95,122.0
3904,B-2,379.0,0.5,95,122.0
3905,D2,379.0,0.5,95,122.0
3906,C1,379.5,0.5,95,122.0
3907,E-3,379.5,0.5,95,122.0
3908,B-2,379.5,0.5,95,122.0
3909,G2,379.5,0.5,95,122.0
3910,C2,379.5,0.5,95,122.0
3911,G2,379.5,0.5,95,122.0
3912,C2,379.5,0.5,95,122.0
3913,C1,380.0,0.5,95,122.0
3914,G3,380.0,1.0,95,122.0
3915,C4,380.0,1.0,95,122.0
3916,G2,380.0,0.5,95,122.0
3917,C2,380.0,0.5,95,122.0
3918,G2,380.0,0.5,95,122.0
3919,C2,380.0,0.5,95,122.0
3920,B-2,380.0,0.5,95,122.0
3921,C2,380.0,0.5,95,122.0
3922,C1,380.5,0.5,95,122.0
3923,B-2,380.5,0.5,95,122.0
3924,G2,380.5,0.5,95,122.0
3925,C2,380.5,0.5,95,122.0
3926,G2,380.5,0.5,95,122.0
3927,C2,380.5,0.5,95,122.0
3928,C1,381.0,0.5,95,122.0
3929,G3,381.0,0.5,95,122.0
3930,C4,381.0,1.0,95,122.0
3931,G2,381.0,0.5,95,122.0
3932,C2,381.0,0.5,95,122.0
3933,G2,381.0,0.5,95,122.0
3934,C2,381.0,0.5,95,122.0
3935,B-2,381.0,0.5,95,122.0
3936,D2,381.0,0.5,95,122.0
3937,C1,381.5,0.5,95,122.0
3938,G3,381.5,1.5,95,122.0
3939,B-2,381.5,0.5,95,122.0
3940,G2,381.5,0.5,95,122.0
3941,C2,381.5,0.5,95,122.0
3942,G2,381.5,0.5,95,122.0
3943,C2,381.5,0.5,95,122.0
3944,C1,382.0,0.5,95,122.0
3945,C4,382.0,0.5,95,122.0
3946,G2,382.0,0.5,95,122.0
3947,C2,382.0,0.5,95,122.0
3948,G2,382.0,0.5,95,122.0
3949,C2,382.0,0.5,95,122.0
3950,B-2,382.0,0.5,95,122.0
3951,C2,382.0,0.5,95,122.0
3952,C1,382.5,0.5,95,122.0
3953,C4,382.5,0.5,95,122.0
3954,B-2,382.5,0.5,95,122.0
3955,G2,382.5,0.5,95,122.0
3956,C2,382.5,0.5,95,122.0
3957,G2,382.5,0.5,95,122.0
3958,C2,382.5,0.5,95,122.0
3959,C1,383.0,0.5,95,122.0
3960,C4,383.0,0.5,95,122.0
3961,G2,383.0,0.5,95,122.0
3962,C2,383.0,0.5,95,122.0
3963,G2,383.0,0.5,95,122.0
3964,C2,383.0,0.5,95,122.0
3965,B-2,383.0,0.5,95,122.0
3966,D2,383.0,0.5,95,122.0
3967,C1,383.5,0.5,95,122.0
3968,G3,383.5,0.5,95,122.0
3969,E-4,383.5,0.5,95,122.0
3970,B-2,383.5,0.5,95,122.0
3971,G2,383.5,0.5,95,122.0
3972,C2,383.5,0.5,95,122.0
3973,G2,383.5,0.5,95,122.0
3974,C2,383.5,0.5,95,122.0
3975,D1,384.0,0.5,95,122.0
3976,F3,384.0,1.0,95,122.0
3977,G4,384.0,1.0,95,122.0
3978,A2,384.0,0.5,95,122.0
3979,D2,384.0,0.5,95,122.0
3980,A2,384.0,0.5,95,122.0
3981,D2,384.0,0.5,95,122.0
3982,B-2,384.0,0.5,95,122.0
3983,C2,384.0,0.5,95,122.0
3984,D1,384.5,0.5,95,122.0
3985,B-2,384.5,0.5,95,122.0
3986,A2,384.5,0.5,95,122.0
3987,D2,384.5,0.5,95,122.0
3988,A2,384.5,0.5,95,122.0
3989,D2,384.5,0.5,95,122.0
3990,D1,385.0,0.5,95,122.0
3991,F3,385.0,0.5,95,122.0
3992,G4,385.0,0.5,95,122.0
3993,A2,385.0,0.5,95,122.0
3994,D2,385.0,0.5,95,122.0
3995,A2,385.0,0.5,95,122.0
3996,D2,385.0,0.5,95,122.0
3997,B-2,385.0,0.5,95,122.0
3998,D2,385.0,0.5,95,122.0
3999,D1,385.5,0.5,95,122.0
4000,F3,385.5,1.0,95,122.0
4001,G4,385.5,1.0,95,122.0
4002,B-2,385.5,0.5,95,122.0
4003,A2,385.5,0.5,95,122.0
4004,D2,385.5,0.5,95,122.0
4005,A2,385.5,0.5,95,122.0
4006,D2,385.5,0.5,95,122.0
4007,D1,386.0,0.5,95,122.0
4008,A2,386.0,0.5,95,122.0
4009,D2,386.0,0.5,95,122.0
4010,A2,386.0,0.5,95,122.0
4011,D2,386.0,0.5,95,122.0
4012,B-2,386.0,0.5,95,122.0
4013,C2,386.0,0.5,95,122.0
4014,D1,386.5,0.5,95,122.0
4015,B-2,386.5,0.5,95,122.0
4016,A2,386.5,0.5,95,122.0
4017,D2,386.5,0.5,95,122.0
4018,A2,386.5,0.5,95,122.0
4019,D2,386.5,0.5,95,122.0
4020,D1,387.0,0.5,95,122.0
4021,A2,387.0,0.5,95,122.0
4022,D2,387.0,0.5,95,122.0
4023,A2,387.0,0.5,95,122.0
4024,D2,387.0,0.5,95,122.0
4025,B-2,387.0,0.5,95,122.0
4026,D2,387.0,0.5,95,122.0
4027,D1,387.5,0.5,95,122.0
4028,G3,387.5,0.5,95,122.0
4029,G4,387.5,0.5,95,122.0
4030,B-2,387.5,0.5,95,122.0
4031,A2,387.5,0.5,95,122.0
4032,D2,387.5,0.5,95,122.0
4033,A2,387.5,0.5,95,122.0
4034,D2,387.5,0.5,95,122.0
4035,D1,388.0,0.5,95,122.0
4036,D3,388.0,1.0,95,122.0
4037,F4,388.0,1.0,95,122.0
4038,A2,388.0,0.5,95,122.0
4039,D2,388.0,0.5,95,122.0
4040,A2,388.0,0.5,95,122.0
4041,D2,388.0,0.5,95,122.0
4042,B-2,388.0,0.5,95,122.0
4043,C2,388.0,0.5,95,122.0
4044,D1,388.5,0.5,95,122.0
4045,B-2,388.5,0.5,95,122.0
4046,A2,388.5,0.5,95,122.0
4047,D2,388.5,0.5,95,122.0
4048,A2,388.5,0.5,95,122.0
4049,D2,388.5,0.5,95,122.0
4050,D1,389.0,0.5,95,122.0
4051,D3,389.0,0.5,95,122.0
4052,F4,389.0,0.5,95,122.0
4053,A2,389.0,0.5,95,122.0
4054,D2,389.0,0.5,95,122.0
4055,A2,389.0,0.5,95,122.0
4056,D2,389.0,0.5,95,122.0
4057,B-2,389.0,0.5,95,122.0
4058,D2,389.0,0.5,95,122.0
4059,D1,389.5,0.5,95,122.0
4060,D3,389.5,1.0,95,122.0
4061,F4,389.5,1.0,95,122.0
4062,B-2,389.5,0.5,95,122.0
4063,A2,389.5,0.5,95,122.0
4064,D2,389.5,0.5,95,122.0
4065,A2,389.5,0.5,95,122.0
4066,D2,389.5,0.5,95,122.0
4067,D1,390.0,0.5,95,122.0
4068,A2,390.0,0.5,95,122.0
4069,D2,390.0,0.5,95,122.0
4070,A2,390.0,0.5,95,122.0
4071,D2,390.0,0.5,95,122.0
4072,B-2,390.0,0.5,95,122.0
4073,C2,390.0,0.5,95,122.0
4074,D1,390.5,0.5,95,122.0
4075,B-2,390.5,0.5,95,122.0
4076,A2,390.5,0.5,95,122.0
4077,D2,390.5,0.5,95,122.0
4078,A2,390.5,0.5,95,122.0
4079,D2,390.5,0.5,95,122.0
4080,D1,391.0,0.5,95,122.0
4081,A2,391.0,0.5,95,122.0
4082,D2,391.0,0.5,95,122.0
4083,A2,391.0,0.5,95,122.0
4084,D2,391.0,0.5,95,122.0
4085,B-2,391.0,0.5,95,122.0
4086,D2,391.0,0.5,95,122.0
4087,D1,391.5,0.5,95,122.0
4088,G4,391.5,0.5,95,122.0
4089,B-2,391.5,0.5,95,122.0
4090,A2,391.5,0.5,95,122.0
4091,D2,391.5,0.5,95,122.0
4092,A2,391.5,0.5,95,122.0
4093,D2,391.5,0.5,95,122.0
4094,C1,392.0,0.5,95,122.0
4095,C3,392.0,1.0,95,122.0
4096,D4,392.0,1.0,95,122.0
4097,G2,392.0,0.5,95,122.0
4098,C2,392.0,0.5,95,122.0
4099,G2,392.0,0.5,95,122.0
4100,C2,392.0,0.5,95,122.0
4101,B-2,392.0,0.5,95,122.0
4102,C2,392.0,0.5,95,122.0
4103,C1,392.5,0.5,95,122.0
4104,B-2,392.5,0.5,95,122.0
4105,G2,392.5,0.5,95,122.0
4106,C2,392.5,0.5,95,122.0
4107,G2,392.5,0.5,95,122.0
4108,C2,392.5,0.5,95,122.0
4109,C1,393.0,0.5,95,122.0
4110,C3,393.0,1.0,95,122.0
4111,D4,393.0,0.5,95,122.0
4112,G2,393.0,0.5,95,122.0
4113,C2,393.0,0.5,95,122.0
4114,G2,393.0,0.5,95,122.0
4115,C2,393.0,0.5,95,122.0
4116,B-2,393.0,0.5,95,122.0
4117,D2,393.0,0.5,95,122.0
4118,C1,393.5,0.5,95,122.0
4119,D4,393.5,1.0,95,122.0
4120,B-2,393.5,0.5,95,122.0
4121,G2,393.5,0.5,95,122.0
4122,C2,393.5,0.5,95,122.0
4123,G2,393.5,0.5,95,122.0
4124,C2,393.5,0.5,95,122.0
4125,C1,394.0,0.5,95,122.0
4126,C3,394.0,0.5,95,122.0
4127,G2,394.0,0.5,95,122.0
4128,C2,394.0,0.5,95,122.0
4129,G2,394.0,0.5,95,122.0
4130,C2,394.0,0.5,95,122.0
4131,B-2,394.0,0.5,95,122.0
4132,C2,394.0,0.5,95,122.0
4133,C1,394.5,0.5,95,122.0
4134,C3,394.5,0.5,95,122.0
4135,B-2,394.5,0.5,95,122.0
4136,G2,394.5,0.5,95,122.0
4137,C2,394.5,0.5,95,122.0
4138,G2,394.5,0.5,95,122.0
4139,C2,394.5,0.5,95,122.0
4140,C1,395.0,0.5,95,122.0
4141,C3,395.0,0.5,95,122.0
4142,G2,395.0,0.5,95,122.0
4143,C2,395.0,0.5,95,122.0
4144,G2,395.0,0.5,95,122.0
4145,C2,395.0,0.5,95,122.0
4146,B-2,395.0,0.5,95,122.0
4147,D2,395.0,0.5,95,122.0
4148,C1,395.5,0.5,95,122.0
4149,E-3,395.5,0.5,95,122.0
4150,B-2,395.5,0.5,95,122.0
4151,G2,395.5,0.5,95,122.0
4152,C2,395.5,0.5,95,122.0
4153,G2,395.5,0.5,95,122.0
4154,C2,395.5,0.5,95,122.0
4155,E-1,396.0,0.5,95,122.0
4156,G3,396.0,1.0,95,122.0
4157,C4,396.0,1.0,95,122.0
4158,B-2,396.0,0.5,95,122.0
4159,E-2,396.0,0.5,95,122.0
4160,B-2,396.0,0.5,95,122.0
4161,E-2,396.0,0.5,95,122.0
4162,B-2,396.0,0.5,95,122.0
4163,C2,396.0,0.5,95,122.0
4164,E-1,396.5,0.5,95,122.0
4165,B-2,396.5,0.5,95,122.0
4166,B-2,396.5,0.5,95,122.0
4167,E-2,396.5,0.5,95,122.0
4168,B-2,396.5,0.5,95,122.0
4169,E-2,396.5,0.5,95,122.0
4170,E-1,397.0,0.5,95,122.0
4171,G3,397.0,0.5,95,122.0
4172,C4,397.0,1.0,95,122.0
4173,B-2,397.0,0.5,95,122.0
4174,E-2,397.0,0.5,95,122.0
4175,B-2,397.0,0.5,95,122.0
4176,E-2,397.0,0.5,95,122.0
4177,B-2,397.0,0.5,95,122.0
4178,D2,397.0,0.5,95,122.0
4179,E-1,397.5,0.5,95,122.0
4180,G3,397.5,1.5,95,122.0
4181,B-2,397.5,0.5,95,122.0
4182,B-2,397.5,0.5,95,122.0
4183,E-2,397.5,0.5,95,122.0
4184,B-2,397.5,0.5,95,122.0
4185,E-2,397.5,0.5,95,122.0
4186,E-1,398.0,0.5,95,122.0
4187,C4,398.0,0.5,95,122.0
4188,B-2,398.0,0.5,95,122.0
4189,E-2,398.0,0.5,95,122.0
4190,B-2,398.0,0.5,95,122.0
4191,E-2,398.0,0.5,95,122.0
4192,B-2,398.0,0.5,95,122.0
4193,C2,398.0,0.5,95,122.0
4194,E-1,398.5,0.5,95,122.0
4195,C4,398.5,0.5,95,122.0
4196,B-2,398.5,0.5,95,122.0
4197,B-2,398.5,0.5,95,122.0
4198,E-2,398.5,0.5,95,122.0
4199,B-2,398.5,0.5,95,122.0
4200,E-2,398.5,0.5,95,122.0
4201,E-1,399.0,0.5,95,122.0
4202,C4,399.0,0.5,95,122.0
4203,B-2,399.0,0.5,95,122.0
4204,E-2,399.0,0.5,95,122.0
4205,B-2,399.0,0.5,95,122.0
4206,E-2,399.0,0.5,95,122.0
4207,B-2,399.0,0.5,95,122.0
4208,D2,399.0,0.5,95,122.0
4209,E-1,399.5,0.5,95,122.0
4210,B-3,399.5,0.5,95,122.0
4211,E-4,399.5,0.5,95,122.0
4212,B-2,399.5,0.5,95,122.0
4213,B-2,399.5,0.5,95,122.0
4214,E-2,399.5,0.5,95,122.0
4215,B-2,399.5,0.5,95,122.0
4216,E-2,399.5,0.5,95,122.0
4217,D1,400.0,0.5,95,122.0
4218,B-3,400.0,1.0,95,122.0
4219,G4,400.0,1.0,95,122.0
4220,A2,400.0,0.5,95,122.0
4221,D2,400.0,0.5,95,122.0
4222,A2,400.0,0.5,95,122.0
4223,D2,400.0,0.5,95,122.0
4224,B-2,400.0,0.5,95,122.0
4225,C2,400.0,0.5,95,122.0
4226,D1,400.5,0.5,95,122.0
4227,B-2,400.5,0.5,95,122.0
4228,A2,400.5,0.5,95,122.0
4229,D2,400.5,0.5,95,122.0
4230,A2,400.5,0.5,95,122.0
4231,D2,400.5,0.5,95,122.0
4232,D1,401.0,0.5,95,122.0
4233,D3,401.0,0.5,95,122.0
4234,G4,401.0,0.5,95,122.0
4235,A2,401.0,0.5,95,122.0
4236,D2,401.0,0.5,95,122.0
4237,A2,401.0,0.5,95,122.0
4238,D2,401.0,0.5,95,122.0
4239,B-2,401.0,0.5,95,122.0
4240,D2,401.0,0.5,95,122.0
4241,D1,401.5,0.5,95,122.0
4242,D3,401.5,1.0,95,122.0
4243,G4,401.5,1.0,95,122.0
4244,B-2,401.5,0.5,95,122.0
4245,A2,401.5,0.5,95,122.0
4246,D2,401.5,0.5,95,122.0
4247,A2,401.5,0.5,95,122.0
4248,D2,401.5,0.5,95,122.0
4249,D1,402.0,0.5,95,122.0
4250,A2,402.0,0.5,95,122.0
4251,D2,402.0,0.5,95,122.0
4252,A2,402.0,0.5,95,122.0
4253,D2,402.0,0.5,95,122.0
4254,B-2,402.0,0.5,95,122.0
4255,C2,402.0,0.5,95,122.0
4256,D1,402.5,0.5,95,122.0
4257,B-2,402.5,0.5,95,122.0
4258,A2,402.5,0.5,95,122.0
4259,D2,402.5,0.5,95,122.0
4260,A2,402.5,0.5,95,122.0
4261,D2,402.5,0.5,95,122.0
4262,D1,403.0,0.5,95,122.0
4263,A2,403.0,0.5,95,122.0
4264,D2,403.0,0.5,95,122.0
4265,A2,403.0,0.5,95,122.0
4266,D2,403.0,0.5,95,122.0
4267,B-2,403.0,0.5,95,122.0
4268,D2,403.0,0.5,95,122.0
4269,D1,403.5,0.5,95,122.0
4270,B-3,403.5,0.5,95,122.0
4271,B-4,403.5,0.5,95,122.0
4272,B-2,403.5,0.5,95,122.0
4273,A2,403.5,0.5,95,122.0
4274,D2,403.5,0.5,95,122.0
4275,A2,403.5,0.5,95,122.0
4276,D2,403.5,0.5,95,122.0
4277,F1,404.0,0.5,95,122.0
4278,B-3,404.0,1.0,95,122.0
4279,B-4,404.0,1.0,95,122.0
4280,C3,404.0,0.5,95,122.0
4281,F2,404.0,0.5,95,122.0
4282,C3,404.0,0.5,95,122.0
4283,F2,404.0,0.5,95,122.0
4284,B-2,404.0,0.5,95,122.0
4285,C2,404.0,0.5,95,122.0
4286,F1,404.5,0.5,95,122.0
4287,B-2,404.5,0.5,95,122.0
4288,C3,404.5,0.5,95,122.0
4289,F2,404.5,0.5,95,122.0
4290,C3,404.5,0.5,95,122.0
4291,F2,404.5,0.5,95,122.0
4292,F1,405.0,0.5,95,122.0
4293,D3,405.0,0.5,95,122.0
4294,D4,405.0,0.5,95,122.0
4295,C3,405.0,0.5,95,122.0
4296,F2,405.0,0.5,95,122.0
4297,C3,405.0,0.5,95,122.0
4298,F2,405.0,0.5,95,122.0
4299,B-2,405.0,0.5,95,122.0
4300,D2,405.0,0.5,95,122.0
4301,F1,405.5,0.5,95,122.0
4302,D3,405.5,1.0,95,122.0
4303,D4,405.5,1.0,95,122.0
4304,B-2,405.5,0.5,95,122.0
4305,C3,405.5,0.5,95,122.0
4306,F2,405.5,0.5,95,122.0
4307,C3,405.5,0.5,95,122.0
4308,F2,405.5,0.5,95,122.0
4309,F1,406.0,0.5,95,122.0
4310,C3,406.0,0.5,95,122.0
4311,F2,406.0,0.5,95,122.0
4312,C3,406.0,0.5,95,122.0
4313,F2,406.0,0.5,95,122.0
4314,B-2,406.0,0.5,95,122.0
4315,C2,406.0,0.5,95,122.0
4316,F1,406.5,0.5,95,122.0
4317,B-2,406.5,0.5,95,122.0
4318,C3,406.5,0.5,95,122.0
4319,F2,406.5,0.5,95,122.0
4320,C3,406.5,0.5,95,122.0
4321,F2,406.5,0.5,95,122.0
4322,F1,407.0,0.5,95,122.0
4323,C3,407.0,0.5,95,122.0
4324,F2,407.0,0.5,95,122.0
4325,C3,407.0,0.5,95,122.0
4326,F2,407.0,0.5,95,122.0
4327,B-2,407.0,0.5,95,122.0
4328,D2,407.0,0.5,95,122.0
4329,F1,407.5,0.5,95,122.0
4330,B-4,407.5,0.5,95,122.0
4331,B-2,407.5,0.5,95,122.0
4332,C3,407.5,0.5,95,122.0
4333,F2,407.5,0.5,95,122.0
4334,C3,407.5,0.5,95,122.0
4335,F2,407.5,0.5,95,122.0
4336,C1,408.0,0.5,95,122.0
4337,C3,408.0,1.0,95,122.0
4338,B-4,408.0,1.0,95,122.0
4339,G2,408.0,0.5,95,122.0
4340,C2,408.0,0.5,95,122.0
4341,G2,408.0,0.5,95,122.0
4342,C2,408.0,0.5,95,122.0
4343,B-2,408.0,0.5,95,122.0
4344,C2,408.0,0.5,95,122.0
4345,C1,408.5,0.5,95,122.0
4346,B-2,408.5,0.5,95,122.0
4347,G2,408.5,0.5,95,122.0
4348,C2,408.5,0.5,95,122.0
4349,G2,408.5,0.5,95,122.0
4350,C2,408.5,0.5,95,122.0
4351,C1,409.0,0.5,95,122.0
4352,C3,409.0,1.0,95,122.0
4353,D4,409.0,0.5,95,122.0
4354,G2,409.0,0.5,95,122.0
4355,C2,409.0,0.5,95,122.0
4356,G2,409.0,0.5,95,122.0
4357,C2,409.0,0.5,95,122.0
4358,B-2,409.0,0.5,95,122.0
4359,D2,409.0,0.5,95,122.0
4360,C1,409.5,0.5,95,122.0
4361,D4,409.5,1.0,95,122.0
4362,B-2,409.5,0.5,95,122.0
4363,G2,409.5,0.5,95,122.0
4364,C2,409.5,0.5,95,122.0
4365,G2,409.5,0.5,95,122.0
4366,C2,409.5,0.5,95,122.0
4367,C1,410.0,0.5,95,122.0
4368,C3,410.0,0.5,95,122.0
4369,G2,410.0,0.5,95,122.0
4370,C2,410.0,0.5,95,122.0
4371,G2,410.0,0.5,95,122.0
4372,C2,410.0,0.5,95,122.0
4373,B-2,410.0,0.5,95,122.0
4374,C2,410.0,0.5,95,122.0
4375,C1,410.5,0.5,95,122.0
4376,C3,410.5,0.5,95,122.0
4377,B-2,410.5,0.5,95,122.0
4378,G2,410.5,0.5,95,122.0
4379,C2,410.5,0.5,95,122.0
4380,G2,410.5,0.5,95,122.0
4381,C2,410.5,0.5,95,122.0
4382,C1,411.0,0.5,95,122.0
4383,C3,411.0,0.5,95,122.0
4384,G2,411.0,0.5,95,122.0
4385,C2,411.0,0.5,95,122.0
4386,G2,411.0,0.5,95,122.0
4387,C2,411.0,0.5,95,122.0
4388,B-2,411.0,0.5,95,122.0
4389,D2,411.0,0.5,95,122.0
4390,C1,411.5,0.5,95,122.0
4391,E-3,411.5,0.5,95,122.0
4392,B-2,411.5,0.5,95,122.0
4393,G2,411.5,0.5,95,122.0
4394,C2,411.5,0.5,95,122.0
4395,G2,411.5,0.5,95,122.0
4396,C2,411.5,0.5,95,122.0
4397,C1,412.0,0.5,95,122.0
4398,G3,412.0,1.0,95,122.0
4399,C4,412.0,1.0,95,122.0
4400,G2,412.0,0.5,95,122.0
4401,C2,412.0,0.5,95,122.0
4402,G2,412.0,0.5,95,122.0
4403,C2,412.0,0.5,95,122.0
4404,B-2,412.0,0.5,95,122.0
4405,C2,412.0,0.5,95,122.0
4406,C1,412.5,0.5,95,122.0
4407,B-2,412.5,0.5,95,122.0
4408,G2,412.5,0.5,95,122.0
4409,C2,412.5,0.5,95,122.0
4410,G2,412.5,0.5,95,122.0
4411,C2,412.5,0.5,95,122.0
4412,C1,413.0,0.5,95,122.0
4413,G3,413.0,0.5,95,122.0
4414,C4,413.0,1.0,95,122.0
4415,G2,413.0,0.5,95,122.0
4416,C2,413.0,0.5,95,122.0
4417,G2,413.0,0.5,95,122.0
4418,C2,413.0,0.5,95,122.0
4419,B-2,413.0,0.5,95,122.0
4420,D2,413.0,0.5,95,122.0
4421,C1,413.5,0.5,95,122.0
4422,G3,413.5,1.5,95,122.0
4423,B-2,413.5,0.5,95,122.0
4424,G2,413.5,0.5,95,122.0
4425,C2,413.5,0.5,95,122.0
4426,G2,413.5,0.5,95,122.0
4427,C2,413.5,0.5,95,122.0
4428,C1,414.0,0.5,95,122.0
4429,C4,414.0,0.5,95,122.0
4430,G2,414.0,0.5,95,122.0
4431,C2,414.0,0.5,95,122.0
4432,G2,414.0,0.5,95,122.0
4433,C2,414.0,0.5,95,122.0
4434,B-2,414.0,0.5,95,122.0
4435,C2,414.0,0.5,95,122.0
4436,C1,414.5,0.5,95,122.0
4437,C4,414.5,0.5,95,122.0
4438,B-2,414.5,0.5,95,122.0
4439,G2,414.5,0.5,95,122.0
4440,C2,414.5,0.5,95,122.0
4441,G2,414.5,0.5,95,122.0
4442,C2,414.5,0.5,95,122.0
4443,C1,415.0,0.5,95,122.0
4444,C4,415.0,0.5,95,122.0
4445,G2,415.0,0.5,95,122.0
4446,C2,415.0,0.5,95,122.0
4447,G2,415.0,0.5,95,122.0
4448,C2,415.0,0.5,95,122.0
4449,B-2,415.0,0.5,95,122.0
4450,D2,415.0,0.5,95,122.0
4451,C1,415.5,0.5,95,122.0
4452,G3,415.5,0.5,95,122.0
4453,E-4,415.5,0.5,95,122.0
4454,B-2,415.5,0.5,95,122.0
4455,G2,415.5,0.5,95,122.0
4456,C2,415.5,0.5,95,122.0
4457,G2,415.5,0.5,95,122.0
4458,C2,415.5,0.5,95,122.0
4459,D1,416.0,0.5,95,122.0
4460,F3,416.0,1.0,95,122.0
4461,G4,416.0,1.0,95,122.0
4462,A2,416.0,0.5,95,122.0
4463,D2,416.0,0.5,95,122.0
4464,A2,416.0,0.5,95,122.0
4465,D2,416.0,0.5,95,122.0
4466,B-2,416.0,0.5,95,122.0
4467,C2,416.0,0.5,95,122.0
4468,D1,416.5,0.5,95,122.0
4469,B-2,416.5,0.5,95,122.0
4470,A2,416.5,0.5,95,122.0
4471,D2,416.5,0.5,95,122.0
4472,A2,416.5,0.5,95,122.0
4473,D2,416.5,0.5,95,122.0
4474,D1,417.0,0.5,95,122.0
4475,F3,417.0,0.5,95,122.0
4476,G4,417.0,0.5,95,122.0
4477,A2,417.0,0.5,95,122.0
4478,D2,417.0,0.5,95,122.0
4479,A2,417.0,0.5,95,122.0
4480,D2,417.0,0.5,95,122.0
4481,B-2,417.0,0.5,95,122.0
4482,D2,417.0,0.5,95,122.0
4483,D1,417.5,0.5,95,122.0
4484,F3,417.5,1.0,95,122.0
4485,G4,417.5,1.0,95,122.0
4486,B-2,417.5,0.5,95,122.0
4487,A2,417.5,0.5,95,122.0
4488,D2,417.5,0.5,95,122.0
4489,A2,417.5,0.5,95,122.0
4490,D2,417.5,0.5,95,122.0
4491,D1,418.0,0.5,95,122.0
4492,A2,418.0,0.5,95,122.0
4493,D2,418.0,0.5,95,122.0
4494,A2,418.0,0.5,95,122.0
4495,D2,418.0,0.5,95,122.0
4496,B-2,418.0,0.5,95,122.0
4497,C2,418.0,0.5,95,122.0
4498,D1,418.5,0.5,95,122.0
4499,B-2,418.5,0.5,95,122.0
4500,A2,418.5,0.5,95,122.0
4501,D2,418.5,0.5,95,122.0
4502,A2,418.5,0.5,95,122.0
4503,D2,418.5,0.5,95,122.0
4504,D1,419.0,0.5,95,122.0
4505,A2,419.0,0.5,95,122.0
4506,D2,419.0,0.5,95,122.0
4507,A2,419.0,0.5,95,122.0
4508,D2,419.0,0.5,95,122.0
4509,B-2,419.0,0.5,95,122.0
4510,D2,419.0,0.5,95,122.0
4511,D1,419.5,0.5,95,122.0
4512,G3,419.5,0.5,95,122.0
4513,G4,419.5,0.5,95,122.0
4514,B-2,419.5,0.5,95,122.0
4515,A2,419.5,0.5,95,122.0
4516,D2,419.5,0.5,95,122.0
4517,A2,419.5,0.5,95,122.0
4518,D2,419.5,0.5,95,122.0
4519,D1,420.0,0.5,95,122.0
4520,D3,420.0,1.0,95,122.0
4521,F4,420.0,1.0,95,122.0
4522,A2,420.0,0.5,95,122.0
4523,D2,420.0,0.5,95,122.0
4524,A2,420.0,0.5,95,122.0
4525,D2,420.0,0.5,95,122.0
4526,B-2,420.0,0.5,95,122.0
4527,C2,420.0,0.5,95,122.0
4528,D1,420.5,0.5,95,122.0
4529,B-2,420.5,0.5,95,122.0
4530,A2,420.5,0.5,95,122.0
4531,D2,420.5,0.5,95,122.0
4532,A2,420.5,0.5,95,122.0
4533,D2,420.5,0.5,95,122.0
4534,D1,421.0,0.5,95,122.0
4535,D3,421.0,0.5,95,122.0
4536,F4,421.0,0.5,95,122.0
4537,A2,421.0,0.5,95,122.0
4538,D2,421.0,0.5,95,122.0
4539,A2,421.0,0.5,95,122.0
4540,D2,421.0,0.5,95,122.0
4541,B-2,421.0,0.5,95,122.0
4542,D2,421.0,0.5,95,122.0
4543,D1,421.5,0.5,95,122.0
4544,D3,421.5,1.0,95,122.0
4545,F4,421.5,1.0,95,122.0
4546,B-2,421.5,0.5,95,122.0
4547,A2,421.5,0.5,95,122.0
4548,D2,421.5,0.5,95,122.0
4549,A2,421.5,0.5,95,122.0
4550,D2,421.5,0.5,95,122.0
4551,D1,422.0,0.5,95,122.0
4552,A2,422.0,0.5,95,122.0
4553,D2,422.0,0.5,95,122.0
4554,A2,422.0,0.5,95,122.0
4555,D2,422.0,0.5,95,122.0
4556,B-2,422.0,0.5,95,122.0
4557,C2,422.0,0.5,95,122.0
4558,D1,422.5,0.5,95,122.0
4559,B-2,422.5,0.5,95,122.0
4560,A2,422.5,0.5,95,122.0
4561,D2,422.5,0.5,95,122.0
4562,A2,422.5,0.5,95,122.0
4563,D2,422.5,0.5,95,122.0
4564,D1,423.0,0.5,95,122.0
4565,A2,423.0,0.5,95,122.0
4566,D2,423.0,0.5,95,122.0
4567,A2,423.0,0.5,95,122.0
4568,D2,423.0,0.5,95,122.0
4569,B-2,423.0,0.5,95,122.0
4570,D2,423.0,0.5,95,122.0
4571,D1,423.5,0.5,95,122.0
4572,G4,423.5,0.5,95,122.0
4573,B-2,423.5,0.5,95,122.0
4574,A2,423.5,0.5,95,122.0
4575,D2,423.5,0.5,95,122.0
4576,A2,423.5,0.5,95,122.0
4577,D2,423.5,0.5,95,122.0
4578,C1,424.0,0.5,95,122.0
4579,C3,424.0,1.0,95,122.0
4580,D4,424.0,1.0,95,122.0
4581,G2,424.0,0.5,95,122.0
4582,C2,424.0,0.5,95,122.0
4583,G2,424.0,0.5,95,122.0
4584,C2,424.0,0.5,95,122.0
4585,B-2,424.0,0.5,95,122.0
4586,C2,424.0,0.5,95,122.0
4587,C1,424.5,0.5,95,122.0
4588,B-2,424.5,0.5,95,122.0
4589,G2,424.5,0.5,95,122.0
4590,C2,424.5,0.5,95,122.0
4591,G2,424.5,0.5,95,122.0
4592,C2,424.5,0.5,95,122.0
4593,C1,425.0,0.5,95,122.0
4594,C3,425.0,1.0,95,122.0
4595,D4,425.0,0.5,95,122.0
4596,G2,425.0,0.5,95,122.0
4597,C2,425.0,0.5,95,122.0
4598,G2,425.0,0.5,95,122.0
4599,C2,425.0,0.5,95,122.0
4600,B-2,425.0,0.5,95,122.0
4601,D2,425.0,0.5,95,122.0
4602,C1,425.5,0.5,95,122.0
4603,D4,425.5,1.0,95,122.0
4604,B-2,425.5,0.5,95,122.0
4605,G2,425.5,0.5,95,122.0
4606,C2,425.5,0.5,95,122.0
4607,G2,425.5,0.5,95,122.0
4608,C2,425.5,0.5,95,122.0
4609,C1,426.0,0.5,95,122.0
4610,C3,426.0,0.5,95,122.0
4611,G2,426.0,0.5,95,122.0
4612,C2,426.0,0.5,95,122.0
4613,G2,426.0,0.5,95,122.0
4614,C2,426.0,0.5,95,122.0
4615,B-2,426.0,0.5,95,122.0
4616,C2,426.0,0.5,95,122.0
4617,C1,426.5,0.5,95,122.0
4618,C3,426.5,0.5,95,122.0
4619,B-2,426.5,0.5,95,122.0
4620,G2,426.5,0.5,95,122.0
4621,C2,426.5,0.5,95,122.0
4622,G2,426.5,0.5,95,122.0
4623,C2,426.5,0.5,95,122.0
4624,C1,427.0,0.5,95,122.0
4625,C3,427.0,0.5,95,122.0
4626,G2,427.0,0.5,95,122.0
4627,C2,427.0,0.5,95,122.0
4628,G2,427.0,0.5,95,122.0
4629,C2,427.0,0.5,95,122.0
4630,B-2,427.0,0.5,95,122.0
4631,D2,427.0,0.5,95,122.0
4632,C1,427.5,0.5,95,122.0
4633,E-3,427.5,0.5,95,122.0
4634,B-2,427.5,0.5,95,122.0
4635,G2,427.5,0.5,95,122.0
4636,C2,427.5,0.5,95,122.0
4637,G2,427.5,0.5,95,122.0
4638,C2,427.5,0.5,95,122.0
4639,E-1,428.0,0.5,95,122.0
4640,G3,428.0,1.0,95,122.0
4641,C4,428.0,1.0,95,122.0
4642,B-2,428.0,0.5,95,122.0
4643,E-2,428.0,0.5,95,122.0
4644,B-2,428.0,0.5,95,122.0
4645,E-2,428.0,0.5,95,122.0
4646,B-2,428.0,0.5,95,122.0
4647,C2,428.0,0.5,95,122.0
4648,E-1,428.5,0.5,95,122.0
4649,B-2,428.5,0.5,95,122.0
4650,B-2,428.5,0.5,95,122.0
4651,E-2,428.5,0.5,95,122.0
4652,B-2,428.5,0.5,95,122.0
4653,E-2,428.5,0.5,95,122.0
4654,E-1,429.0,0.5,95,122.0
4655,G3,429.0,0.5,95,122.0
4656,C4,429.0,1.0,95,122.0
4657,B-2,429.0,0.5,95,122.0
4658,E-2,429.0,0.5,95,122.0
4659,B-2,429.0,0.5,95,122.0
4660,E-2,429.0,0.5,95,122.0
4661,B-2,429.0,0.5,95,122.0
4662,D2,429.0,0.5,95,122.0
4663,E-1,429.5,0.5,95,122.0
4664,G3,429.5,1.5,95,122.0
4665,B-2,429.5,0.5,95,122.0
4666,B-2,429.5,0.5,95,122.0
4667,E-2,429.5,0.5,95,122.0
4668,B-2,429.5,0.5,95,122.0
4669,E-2,429.5,0.5,95,122.0
4670,E-1,430.0,0.5,95,122.0
4671,C4,430.0,0.5,95,122.0
4672,B-2,430.0,0.5,95,122.0
4673,E-2,430.0,0.5,95,122.0
4674,B-2,430.0,0.5,95,122.0
4675,E-2,430.0,0.5,95,122.0
4676,B-2,430.0,0.5,95,122.0
4677,C2,430.0,0.5,95,122.0
4678,E-1,430.5,0.5,95,122.0
4679,C4,430.5,0.5,95,122.0
4680,B-2,430.5,0.5,95,122.0
4681,B-2,430.5,0.5,95,122.0
4682,E-2,430.5,0.5,95,122.0
4683,B-2,430.5,0.5,95,122.0
4684,E-2,430.5,0.5,95,122.0
4685,E-1,431.0,0.5,95,122.0
4686,C4,431.0,0.5,95,122.0
4687,B-2,431.0,0.5,95,122.0
4688,E-2,431.0,0.5,95,122.0
4689,B-2,431.0,0.5,95,122.0
4690,E-2,431.0,0.5,95,122.0
4691,B-2,431.0,0.5,95,122.0
4692,D2,431.0,0.5,95,122.0
4693,E-1,431.5,0.5,95,122.0
4694,B-3,431.5,0.5,95,122.0
4695,E-4,431.5,0.5,95,122.0
4696,B-2,431.5,0.5,95,122.0
4697,B-2,431.5,0.5,95,122.0
4698,E-2,431.5,0.5,95,122.0
4699,B-2,431.5,0.5,95,122.0
4700,E-2,431.5,0.5,95,122.0
4701,D1,432.0,0.5,95,122.0
4702,B-3,432.0,1.0,95,122.0
4703,G4,432.0,1.0,95,122.0
4704,A2,432.0,0.5,95,122.0
4705,D2,432.0,0.5,95,122.0
4706,A2,432.0,0.5,95,122.0
4707,D2,432.0,0.5,95,122.0
4708,B-2,432.0,0.5,95,122.0
4709,C2,432.0,0.5,95,122.0
4710,D1,432.5,0.5,95,122.0
4711,B-2,432.5,0.5,95,122.0
4712,A2,432.5,0.5,95,122.0
4713,D2,432.5,0.5,95,122.0
4714,A2,432.5,0.5,95,122.0
4715,D2,432.5,0.5,95,122.0
4716,D1,433.0,0.5,95,122.0
4717,D3,433.0,0.5,95,122.0
4718,G4,433.0,0.5,95,122.0
4719,A2,433.0,0.5,95,122.0
4720,D2,433.0,0.5,95,122.0
4721,A2,433.0,0.5,95,122.0
4722,D2,433.0,0.5,95,122.0
4723,B-2,433.0,0.5,95,122.0
4724,D2,433.0,0.5,95,122.0
4725,D1,433.5,0.5,95,122.0
4726,D3,433.5,1.0,95,122.0
4727,G4,433.5,1.0,95,122.0
4728,B-2,433.5,0.5,95,122.0
4729,A2,433.5,0.5,95,122.0
4730,D2,433.5,0.5,95,122.0
4731,A2,433.5,0.5,95,122.0
4732,D2,433.5,0.5,95,122.0
4733,D1,434.0,0.5,95,122.0
4734,A2,434.0,0.5,95,122.0
4735,D2,434.0,0.5,95,122.0
4736,A2,434.0,0.5,95,122.0
4737,D2,434.0,0.5,95,122.0
4738,B-2,434.0,0.5,95,122.0
4739,C2,434.0,0.5,95,122.0
4740,D1,434.5,0.5,95,122.0
4741,B-2,434.5,0.5,95,122.0
4742,A2,434.5,0.5,95,122.0
4743,D2,434.5,0.5,95,122.0
4744,A2,434.5,0.5,95,122.0
4745,D2,434.5,0.5,95,122.0
4746,D1,435.0,0.5,95,122.0
4747,A2,435.0,0.5,95,122.0
4748,D2,435.0,0.5,95,122.0
4749,A2,435.0,0.5,95,122.0
4750,D2,435.0,0.5,95,122.0
4751,B-2,435.0,0.5,95,122.0
4752,D2,435.0,0.5,95,122.0
4753,D1,435.5,0.5,95,122.0
4754,B-3,435.5,0.5,95,122.0
4755,B-4,435.5,0.5,95,122.0
4756,B-2,435.5,0.5,95,122.0
4757,A2,435.5,0.5,95,122.0
4758,D2,435.5,0.5,95,122.0
4759,A2,435.5,0.5,95,122.0
4760,D2,435.5,0.5,95,122.0
4761,F1,436.0,0.5,95,122.0
4762,B-3,436.0,1.0,95,122.0
4763,B-4,436.0,1.0,95,122.0
4764,C3,436.0,0.5,95,122.0
4765,F2,436.0,0.5,95,122.0
4766,C3,436.0,0.5,95,122.0
4767,F2,436.0,0.5,95,122.0
4768,B-2,436.0,0.5,95,122.0
4769,C2,436.0,0.5,95,122.0
4770,F1,436.5,0.5,95,122.0
4771,B-2,436.5,0.5,95,122.0
4772,C3,436.5,0.5,95,122.0
4773,F2,436.5,0.5,95,122.0
4774,C3,436.5,0.5,95,122.0
4775,F2,436.5,0.5,95,122.0
4776,F1,437.0,0.5,95,122.0
4777,D3,437.0,0.5,95,122.0
4778,D4,437.0,0.5,95,122.0
4779,C3,437.0,0.5,95,122.0
4780,F2,437.0,0.5,95,122.0
4781,C3,437.0,0.5,95,122.0
4782,F2,437.0,0.5,95,122.0
4783,B-2,437.0,0.5,95,122.0
4784,D2,437.0,0.5,95,122.0
4785,F1,437.5,0.5,95,122.0
4786,D3,437.5,1.0,95,122.0
4787,D4,437.5,1.0,95,122.0
4788,B-2,437.5,0.5,95,122.0
4789,C3,437.5,0.5,95,122.0
4790,F2,437.5,0.5,95,122.0
4791,C3,437.5,0.5,95,122.0
4792,F2,437.5,0.5,95,122.0
4793,F1,438.0,0.5,95,122.0
4794,C3,438.0,0.5,95,122.0
4795,F2,438.0,0.5,95,122.0
4796,C3,438.0,0.5,95,122.0
4797,F2,438.0,0.5,95,122.0
4798,B-2,438.0,0.5,95,122.0
4799,C2,438.0,0.5,95,122.0
4800,F1,438.5,0.5,95,122.0
4801,B-2,438.5,0.5,95,122.0
4802,C3,438.5,0.5,95,122.0
4803,F2,438.5,0.5,95,122.0
4804,C3,438.5,0.5,95,122.0
4805,F2,438.5,0.5,95,122.0
4806,F1,439.0,0.5,95,122.0
4807,C3,439.0,0.5,95,122.0
4808,F2,439.0,0.5,95,122.0
4809,C3,439.0,0.5,95,122.0
4810,F2,439.0,0.5,95,122.0
4811,B-2,439.0,0.5,95,122.0
4812,D2,439.0,0.5,95,122.0
4813,F1,439.5,0.5,95,122.0
4814,B-4,439.5,0.5,95,122.0
4815,B-2,439.5,0.5,95,122.0
4816,C3,439.5,0.5,95,122.0
4817,F2,439.5,0.5,95,122.0
4818,C3,439.5,0.5,95,122.0
4819,F2,439.5,0.5,95,122.0
4820,C2,440.0,0.5,95,122.0
4821,C2,440.0,0.5,95,122.0
4822,C1,440.0,0.5,95,122.0
4823,B-4,440.0,1.0,95,122.0
4824,C#3,440.0,0.5,95,122.0
4825,C2,440.0,0.5,95,122.0
4826,D2,440.5,0.5,95,122.0
4827,D2,440.5,0.5,95,122.0
4828,D1,440.5,0.5,95,122.0
4829,D2,441.0,0.5,95,122.0
4830,D2,441.0,0.5,95,122.0
4831,D1,441.0,0.5,95,122.0
4832,D4,441.0,0.5,95,122.0
4833,C#3,441.0,0.5,95,122.0
4834,C2,441.0,0.5,95,122.0
4835,D2,441.5,0.5,95,122.0
4836,D2,441.5,0.5,95,122.0
4837,D1,441.5,0.5,95,122.0
4838,D4,441.5,1.0,95,122.0
4839,D2,442.0,1.0,95,122.0
4840,D2,442.0,1.0,95,122.0
4841,D1,442.0,1.0,95,122.0
4842,C#3,442.0,0.5,95,122.0
4843,F2,442.0,0.5,95,122.0
4844,E2,442.0,0.5,95,122.0
4845,C2,442.0,0.5,95,122.0
4846,C2,443.0,0.5,95,122.0
4847,C2,443.0,0.5,95,122.0
4848,C1,443.0,0.5,95,122.0
4849,G3,443.0,0.5,95,122.0
4850,C2,443.0,0.5,95,122.0
4851,D2,443.5,0.5,95,122.0
4852,D2,443.5,0.5,95,122.0
4853,D1,443.5,0.5,95,122.0
4854,C2,443.5,0.5,95,122.0
4855,D2,444.0,0.5,95,122.0
4856,D2,444.0,0.5,95,122.0
4857,D1,444.0,0.5,95,122.0
4858,G3,444.0,0.5,95,122.0
4859,C2,444.0,0.5,95,122.0
4860,D2,444.5,0.5,95,122.0
4861,D2,444.5,0.5,95,122.0
4862,D1,444.5,0.5,95,122.0
4863,D2,445.0,1.0,95,122.0
4864,D2,445.0,1.0,95,122.0
4865,D1,445.0,1.0,95,122.0
4866,G3,445.0,0.5,95,122.0
4867,C2,445.0,0.5,95,122.0
4868,C2,446.0,0.5,95,122.0
4869,C2,446.0,0.5,95,122.0
4870,C1,446.0,0.5,95,122.0
4871,C#3,446.0,0.5,95,122.0
4872,F2,446.0,0.5,95,122.0
4873,E2,446.0,0.5,95,122.0
4874,C2,446.0,0.5,95,122.0
4875,D2,446.5,0.5,95,122.0
4876,D2,446.5,0.5,95,122.0
4877,D1,446.5,0.5,95,122.0
4878,D2,447.0,0.5,95,122.0
4879,D2,447.0,0.5,95,122.0
4880,D1,447.0,0.5,95,122.0
4881,G3,447.0,0.5,95,122.0
4882,C2,447.0,0.5,95,122.0
4883,D2,447.5,0.5,95,122.0
4884,D2,447.5,0.5,95,122.0
4885,D1,447.5,0.5,95,122.0
4886,C2,448.0,0.5,95,122.0
4887,C2,448.0,0.5,95,122.0
4888,C1,448.0,0.5,95,122.0
4889,C#3,448.0,0.5,95,122.0
4890,C2,448.0,0.5,95,122.0
4891,D2,448.5,0.5,95,122.0
4892,D2,448.5,0.5,95,122.0
4893,D1,448.5,0.5,95,122.0
4894,D2,449.0,0.5,95,122.0
4895,D2,449.0,0.5,95,122.0
4896,D1,449.0,0.5,95,122.0
4897,C#3,449.0,0.5,95,122.0
4898,C2,449.0,0.5,95,122.0
4899,D2,449.5,0.5,95,122.0
4900,D2,449.5,0.5,95,122.0
4901,D1,449.5,0.5,95,122.0
4902,D2,450.0,1.0,95,122.0
4903,D2,450.0,1.0,95,122.0
4904,D1,450.0,1.0,95,122.0
4905,C#3,450.0,0.5,95,122.0
4906,F2,450.0,0.5,95,122.0
4907,E2,450.0,0.5,95,122.0
4908,C2,450.0,0.5,95,122.0
4909,C2,451.0,0.5,95,122.0
4910,C2,451.0,0.5,95,122.0
4911,C1,451.0,0.5,95,122.0
4912,G3,451.0,0.5,95,122.0
4913,C2,451.0,0.5,95,122.0
4914,D2,451.5,0.5,95,122.0
4915,D2,451.5,0.5,95,122.0
4916,D1,451.5,0.5,95,122.0
4917,C2,451.5,0.5,95,122.0
4918,D2,452.0,0.5,95,122.0
4919,D2,452.0,0.5,95,122.0
4920,D1,452.0,0.5,95,122.0
4921,G3,452.0,0.5,95,122.0
4922,C2,452.0,0.5,95,122.0
4923,D2,452.5,0.5,95,122.0
4924,D2,452.5,0.5,95,122.0
4925,D1,452.5,0.5,95,122.0
4926,D2,453.0,1.0,95,122.0
4927,D2,453.0,1.0,95,122.0
4928,D1,453.0,1.0,95,122.0
4929,G3,453.0,0.5,95,122.0
4930,C2,453.0,0.5,95,122.0
4931,F2,454.0,0.5,95,122.0
4932,F2,454.0,0.5,95,122.0
4933,F1,454.0,0.5,95,122.0
4934,E4,454.0,1.0,95,122.0
4935,B3,454.0,1.0,95,122.0
4936,G3,454.0,1.0,95,122.0
4937,D3,454.0,1.0,95,122.0
4938,A2,454.0,1.0,95,122.0
4939,E2,454.0,1.0,95,122.0
4940,C#3,454.0,0.5,95,122.0
4941,F2,454.0,0.5,95,122.0
4942,E2,454.0,0.5,95,122.0
4943,C2,454.0,0.5,95,122.0
4944,C2,456.0,0.5,95,122.0
4945,C2,456.0,0.5,95,122.0
4946,C1,456.0,0.5,95,122.0
4947,C#3,456.0,0.5,95,122.0
4948,C2,456.0,0.5,95,122.0
4949,D2,456.5,0.5,95,122.0
4950,D2,456.5,0.5,95,122.0
4951,D1,456.5,0.5,95,122.0
4952,D2,457.0,0.5,95,122.0
4953,D2,457.0,0.5,95,122.0
4954,D1,457.0,0.5,95,122.0
4955,C#3,457.0,0.5,95,122.0
4956,C2,457.0,0.5,95,122.0
4957,D2,457.5,0.5,95,122.0
4958,D2,457.5,0.5,95,122.0
4959,D1,457.5,0.5,95,122.0
4960,D2,458.0,1.0,95,122.0
4961,D2,458.0,1.0,95,122.0
4962,D1,458.0,1.0,95,122.0
4963,C#3,458.0,0.5,95,122.0
4964,F2,458.0,0.5,95,122.0
4965,E2,458.0,0.5,95,122.0
4966,C2,458.0,0.5,95,122.0
4967,C2,459.0,0.5,95,122.0
4968,C2,459.0,0.5,95,122.0
4969,C1,459.0,0.5,95,122.0
4970,G3,459.0,0.5,95,122.0
4971,C2,459.0,0.5,95,122.0
4972,D2,459.5,0.5,95,122.0
4973,D2,459.5,0.5,95,122.0
4974,D1,459.5,0.5,95,122.0
4975,C2,459.5,0.5,95,122.0
4976,D2,460.0,0.5,95,122.0
4977,D2,460.0,0.5,95,122.0
4978,D1,460.0,0.5,95,122.0
4979,G3,460.0,0.5,95,122.0
4980,C2,460.0,0.5,95,122.0
4981,D2,460.5,0.5,95,122.0
4982,D2,460.5,0.5,95,122.0
4983,D1,460.5,0.5,95,122.0
4984,D2,461.0,1.0,95,122.0
4985,D2,461.0,1.0,95,122.0
4986,D1,461.0,1.0,95,122.0
4987,G3,461.0,0.5,95,122.0
4988,C2,461.0,0.5,95,122.0
4989,C2,462.0,0.5,95,122.0
4990,C2,462.0,0.5,95,122.0
4991,C1,462.0,0.5,95,122.0
4992,C#3,462.0,0.5,95,122.0
4993,F2,462.0,0.5,95,122.0
4994,E2,462.0,0.5,95,122.0
4995,C2,462.0,0.5,95,122.0
4996,D2,462.5,0.5,95,122.0
4997,D2,462.5,0.5,95,122.0
4998,D1,462.5,0.5,95,122.0
4999,D2,463.0,0.5,95,122.0
5000,D2,463.0,0.5,95,122.0
5001,D1,463.0,0.5,95,122.0
5002,G3,463.0,0.5,95,122.0
5003,C2,463.0,0.5,95,122.0
5004,D2,463.5,0.5,95,122.0
5005,D2,463.5,0.5,95,122.0
5006,D1,463.5,0.5,95,122.0
5007,C2,464.0,0.5,95,122.0
5008,C2,464.0,0.5,95,122.0
5009,C1,464.0,0.5,95,122.0
5010,C#3,464.0,0.5,95,122.0
5011,C2,464.0,0.5,95,122.0
5012,D2,464.5,0.5,95,122.0
5013,D2,464.5,0.5,95,122.0
5014,D1,464.5,0.5,95,122.0
5015,D2,465.0,0.5,95,122.0
5016,D2,465.0,0.5,95,122.0
5017,D1,465.0,0.5,95,122.0
5018,C#3,465.0,0.5,95,122.0
5019,C2,465.0,0.5,95,122.0
5020,D2,465.5,0.5,95,122.0
5021,D2,465.5,0.5,95,122.0
5022,D1,465.5,0.5,95,122.0
5023,D2,466.0,1.0,95,122.0
5024,D2,466.0,1.0,95,122.0
5025,D1,466.0,1.0,95,122.0
5026,C#3,466.0,0.5,95,122.0
5027,F2,466.0,0.5,95,122.0
5028,E2,466.0,0.5,95,122.0
5029,C2,466.0,0.5,95,122.0
5030,C2,467.0,0.5,95,122.0
5031,C2,467.0,0.5,95,122.0
5032,C1,467.0,0.5,95,122.0
5033,G3,467.0,0.5,95,122.0
5034,C2,467.0,0.5,95,122.0
5035,D2,467.5,0.5,95,122.0
5036,D2,467.5,0.5,95,122.0
5037,D1,467.5,0.5,95,122.0
5038,C2,467.5,0.5,95,122.0
5039,D2,468.0,0.5,95,122.0
5040,D2,468.0,0.5,95,122.0
5041,D1,468.0,0.5,95,122.0
5042,G3,468.0,0.5,95,122.0
5043,C2,468.0,0.5,95,122.0
5044,D2,468.5,0.5,95,122.0
5045,D2,468.5,0.5,95,122.0
5046,D1,468.5,0.5,95,122.0
5047,D2,469.0,1.0,95,122.0
5048,D2,469.0,1.0,95,122.0
5049,D1,469.0,1.0,95,122.0
5050,G3,469.0,0.5,95,122.0
5051,C2,469.0,0.5,95,122.0
5052,F2,470.0,0.5,95,122.0
5053,F2,470.0,0.5,95,122.0
5054,F1,470.0,0.5,95,122.0
5055,E4,470.0,1.0,95,122.0
5056,B3,470.0,1.0,95,122.0
5057,G3,470.0,1.0,95,122.0
5058,D3,470.0,1.0,95,122.0
5059,A2,470.0,1.0,95,122.0
5060,E2,470.0,1.0,95,122.0
5061,C#3,470.0,0.5,95,122.0
5062,F2,470.0,0.5,95,122.0
5063,E2,470.0,0.5,95,122.0
5064,C2,470.0,0.5,95,122.0
