,note_name,start_time,duration,velocity,tempo
0,G5,0.0,1.0,100,175.0
1,B-5,1.0,1.0,100,175.0
2,G5,2.0,1.0,100,175.0
3,G4,3.0,1.0,100,175.0
4,A4,5.0,1.0,100,175.0
5,B-4,6.0,1.0,100,175.0
6,G4,7.0,1.0,100,175.0
7,A5,8.0,1.0,100,175.0
8,B-5,9.0,1.0,100,175.0
9,F5,10.0,1.0,100,175.0
10,F4,11.0,1.0,100,175.0
11,F4,13.0,1.0,100,175.0
12,B-4,14.0,1.0,100,175.0
13,F4,15.0,1.0,100,175.0
14,D6,16.0,1.0,100,175.0
15,A4,17.0,1.0,100,175.0
16,D5,18.0,1.0,100,175.0
17,A4,19.0,1.0,100,175.0
18,A5,20.0,667/1000,100,175.0
19,E4,21.0,1.0,100,175.0
20,F4,22.0,1.0,100,175.0
21,E4,23.0,1.0,100,175.0
22,B-5,24.0,1.0,100,175.0
23,A5,25.0,1.0,100,175.0
24,G5,26.0,1.0,100,175.0
25,F5,27.0,1.0,100,175.0
26,G5,28.0,1.0,100,175.0
27,A4,29.0,1.0,100,175.0
28,D5,30.0,1.0,100,175.0
29,A4,31.0,1.0,100,175.0
30,G2,32.0,4.0,100,175.0
31,D3,32.0,4.0,100,175.0
32,C2,32.0,4.0,100,175.0
33,C#3,32.0,4.0,100,175.0
34,C#3,32.0,4.0,100,175.0
35,G#2,36.0,1.0,100,175.0
36,G#2,37.0,1.0,100,175.0
37,G#2,38.0,1.0,100,175.0
38,G#2,39.0,1.0,100,175.0
39,G2,40.0,0.5,100,175.0
40,G2,40.0,4.0,100,175.0
41,D3,40.0,4.0,100,175.0
42,G#2,40.0,1.0,100,175.0
43,B3,40.0,1.0,100,175.0
44,G#2,40.5,0.5,100,175.0
45,G#2,41.0,1.0,100,175.0
46,B3,41.0,1.0,100,175.0
47,G2,41.5,0.5,100,175.0
48,G#2,42.0,0.5,100,175.0
49,G#2,42.0,1.0,100,175.0
50,B3,42.0,1.0,100,175.0
51,G2,43.0,0.5,100,175.0
52,G#2,43.0,1.0,100,175.0
53,B3,43.0,1.0,100,175.0
54,G#2,43.5,0.5,100,175.0
55,B3,44.0,1.0,100,175.0
56,G#2,44.0,1.0,100,175.0
57,G2,44.5,0.5,100,175.0
58,G#2,45.0,0.5,100,175.0
59,B3,45.0,1.0,100,175.0
60,G#2,45.0,1.0,100,175.0
61,B-2,46.0,0.5,100,175.0
62,B3,46.0,1.0,100,175.0
63,G#2,46.0,1.0,100,175.0
64,B-2,46.5,0.5,100,175.0
65,B-2,47.0,0.5,100,175.0
66,B3,47.0,1.0,100,175.0
67,G#2,47.0,1.0,100,175.0
68,B-2,47.5,0.5,100,175.0
69,G2,48.0,0.5,100,175.0
70,B3,48.0,1.0,100,175.0
71,G#2,48.0,1.0,100,175.0
72,G#2,48.5,0.5,100,175.0
73,B3,49.0,1.0,100,175.0
74,G#2,49.0,1.0,100,175.0
75,G2,49.5,0.5,100,175.0
76,G#2,50.0,0.5,100,175.0
77,B3,50.0,1.0,100,175.0
78,G#2,50.0,1.0,100,175.0
79,G2,51.0,0.5,100,175.0
80,B3,51.0,1.0,100,175.0
81,G#2,51.0,1.0,100,175.0
82,G#2,51.5,0.5,100,175.0
83,B3,52.0,1.0,100,175.0
84,G#2,52.0,1.0,100,175.0
85,G2,52.5,0.5,100,175.0
86,G#2,53.0,0.5,100,175.0
87,B3,53.0,1.0,100,175.0
88,G#2,53.0,1.0,100,175.0
89,B-2,54.0,0.5,100,175.0
90,B3,54.0,1.0,100,175.0
91,G#2,54.0,1.0,100,175.0
92,B-2,54.5,0.5,100,175.0
93,B-2,55.0,0.5,100,175.0
94,B3,55.0,1.0,100,175.0
95,G#2,55.0,1.0,100,175.0
96,B-2,55.5,0.5,100,175.0
97,G2,56.0,0.5,100,175.0
98,B3,56.0,1.0,100,175.0
99,G#2,56.0,1.0,100,175.0
100,G#2,56.5,0.5,100,175.0
101,B3,57.0,1.0,100,175.0
102,G#2,57.0,1.0,100,175.0
103,G2,57.5,0.5,100,175.0
104,G#2,58.0,0.5,100,175.0
105,B3,58.0,1.0,100,175.0
106,G#2,58.0,1.0,100,175.0
107,G2,59.0,0.5,100,175.0
108,B3,59.0,1.0,100,175.0
109,G#2,59.0,1.0,100,175.0
110,G#2,59.5,0.5,100,175.0
111,B3,60.0,1.0,100,175.0
112,G#2,60.0,1.0,100,175.0
113,G2,60.5,0.5,100,175.0
114,G#2,61.0,0.5,100,175.0
115,B3,61.0,1.0,100,175.0
116,G#2,61.0,1.0,100,175.0
117,B-2,62.0,0.5,100,175.0
118,B3,62.0,1.0,100,175.0
119,G#2,62.0,1.0,100,175.0
120,B-2,62.5,0.5,100,175.0
121,B-2,63.0,0.5,100,175.0
122,B3,63.0,1.0,100,175.0
123,G#2,63.0,1.0,100,175.0
124,B-2,63.5,0.5,100,175.0
125,G2,64.0,0.5,100,175.0
126,B3,64.0,1.0,100,175.0
127,G#2,64.0,1.0,100,175.0
128,G#2,64.5,0.5,100,175.0
129,B3,65.0,1.0,100,175.0
130,G#2,65.0,1.0,100,175.0
131,G2,65.5,0.5,100,175.0
132,G#2,66.0,0.5,100,175.0
133,B3,66.0,1.0,100,175.0
134,G#2,66.0,1.0,100,175.0
135,G2,67.0,0.5,100,175.0
136,B3,67.0,1.0,100,175.0
137,G#2,67.0,1.0,100,175.0
138,G#2,67.5,0.5,100,175.0
139,B3,68.0,1.0,100,175.0
140,G#2,68.0,1.0,100,175.0
141,G2,68.5,0.5,100,175.0
142,G#2,69.0,0.5,100,175.0
143,B3,69.0,1.0,100,175.0
144,G#2,69.0,1.0,100,175.0
145,B-2,70.0,0.5,100,175.0
146,B3,70.0,1.0,100,175.0
147,G#2,70.0,1.0,100,175.0
148,B-2,70.5,0.5,100,175.0
149,B-2,71.0,0.5,100,175.0
150,B3,71.0,1.0,100,175.0
151,G#2,71.0,1.0,100,175.0
152,B-2,71.5,0.5,100,175.0
153,C2,72.0,0.5,100,175.0
154,G2,72.0,0.5,100,175.0
155,B3,72.0,1.0,100,175.0
156,G#2,72.0,1.0,100,175.0
157,G#2,72.5,0.5,100,175.0
158,B3,73.0,1.0,100,175.0
159,G#2,73.0,1.0,100,175.0
160,C2,73.5,0.5,100,175.0
161,G2,73.5,0.5,100,175.0
162,G#2,74.0,0.5,100,175.0
163,B3,74.0,1.0,100,175.0
164,G#2,74.0,1.0,100,175.0
165,G2,75.0,0.5,100,175.0
166,B3,75.0,1.0,100,175.0
167,G#2,75.0,1.0,100,175.0
168,G#2,75.5,0.5,100,175.0
169,B3,76.0,1.0,100,175.0
170,G#2,76.0,1.0,100,175.0
171,G2,76.5,0.5,100,175.0
172,G#2,77.0,0.5,100,175.0
173,B3,77.0,1.0,100,175.0
174,G#2,77.0,1.0,100,175.0
175,B-2,78.0,0.5,100,175.0
176,B3,78.0,1.0,100,175.0
177,G#2,78.0,1.0,100,175.0
178,B-2,78.5,0.5,100,175.0
179,B-2,79.0,0.5,100,175.0
180,B3,79.0,1.0,100,175.0
181,G#2,79.0,1.0,100,175.0
182,B-2,79.5,0.5,100,175.0
183,C2,80.0,0.5,100,175.0
184,G2,80.0,0.5,100,175.0
185,B3,80.0,1.0,100,175.0
186,G#2,80.0,1.0,100,175.0
187,G#2,80.5,0.5,100,175.0
188,B3,81.0,1.0,100,175.0
189,G#2,81.0,1.0,100,175.0
190,C2,81.5,0.5,100,175.0
191,G2,81.5,0.5,100,175.0
192,G#2,82.0,0.5,100,175.0
193,B3,82.0,1.0,100,175.0
194,G#2,82.0,1.0,100,175.0
195,G2,83.0,0.5,100,175.0
196,B3,83.0,1.0,100,175.0
197,G#2,83.0,1.0,100,175.0
198,G#2,83.5,0.5,100,175.0
199,B3,84.0,1.0,100,175.0
200,G#2,84.0,1.0,100,175.0
201,G2,84.5,0.5,100,175.0
202,G#2,85.0,0.5,100,175.0
203,B3,85.0,1.0,100,175.0
204,G#2,85.0,1.0,100,175.0
205,B-2,86.0,0.5,100,175.0
206,B3,86.0,1.0,100,175.0
207,G#2,86.0,1.0,100,175.0
208,B-2,86.5,0.5,100,175.0
209,B-2,87.0,0.5,100,175.0
210,B3,87.0,1.0,100,175.0
211,G#2,87.0,1.0,100,175.0
212,B-2,87.5,0.5,100,175.0
213,C2,88.0,0.5,100,175.0
214,G2,88.0,0.5,100,175.0
215,B3,88.0,1.0,100,175.0
216,G#2,88.0,1.0,100,175.0
217,G#2,88.5,0.5,100,175.0
218,B3,89.0,1.0,100,175.0
219,G#2,89.0,1.0,100,175.0
220,C2,89.5,0.5,100,175.0
221,G2,89.5,0.5,100,175.0
222,G#2,90.0,0.5,100,175.0
223,B3,90.0,1.0,100,175.0
224,G#2,90.0,1.0,100,175.0
225,G2,91.0,0.5,100,175.0
226,B3,91.0,1.0,100,175.0
227,G#2,91.0,1.0,100,175.0
228,G#2,91.5,0.5,100,175.0
229,B3,92.0,1.0,100,175.0
230,G#2,92.0,1.0,100,175.0
231,G2,92.5,0.5,100,175.0
232,G#2,93.0,0.5,100,175.0
233,B3,93.0,1.0,100,175.0
234,G#2,93.0,1.0,100,175.0
235,B-2,94.0,0.5,100,175.0
236,B3,94.0,1.0,100,175.0
237,G#2,94.0,1.0,100,175.0
238,B-2,94.5,0.5,100,175.0
239,B-2,95.0,0.5,100,175.0
240,B3,95.0,1.0,100,175.0
241,G#2,95.0,1.0,100,175.0
242,B-2,95.5,0.5,100,175.0
243,C2,96.0,0.5,100,175.0
244,G2,96.0,0.5,100,175.0
245,B3,96.0,1.0,100,175.0
246,G#2,96.0,1.0,100,175.0
247,G#2,96.5,0.5,100,175.0
248,B3,97.0,1.0,100,175.0
249,G#2,97.0,1.0,100,175.0
250,C2,97.5,0.5,100,175.0
251,G2,97.5,0.5,100,175.0
252,G#2,98.0,0.5,100,175.0
253,B3,98.0,1.0,100,175.0
254,G#2,98.0,1.0,100,175.0
255,G2,99.0,0.5,100,175.0
256,B3,99.0,1.0,100,175.0
257,G#2,99.0,1.0,100,175.0
258,G#2,99.5,0.5,100,175.0
259,G#2,100.0,1.0,100,175.0
260,B3,100.0,1.0,100,175.0
261,E2,100.0,0.5,100,175.0
262,C2,100.0,0.5,100,175.0
263,G2,100.5,0.5,100,175.0
264,C2,100.5,0.5,100,175.0
265,E2,100.5,0.5,100,175.0
266,G#2,101.0,0.5,100,175.0
267,B3,101.0,1.0,100,175.0
268,G#2,101.0,1.0,100,175.0
269,B-2,102.0,0.5,100,175.0
270,B3,102.0,1.0,100,175.0
271,G#2,102.0,1.0,100,175.0
272,C2,102.0,0.5,100,175.0
273,E2,102.0,0.5,100,175.0
274,B-2,102.5,0.5,100,175.0
275,E2,102.5,0.5,100,175.0
276,C2,102.5,0.5,100,175.0
277,B3,103.0,1.0,100,175.0
278,B-2,103.0,0.5,100,175.0
279,E2,103.0,0.5,100,175.0
280,C2,103.0,0.5,100,175.0
281,E2,103.25,333/1000,100,175.0
282,C2,103.25,333/1000,100,175.0
283,E2,103.5,417/1000,100,175.0
284,C2,103.5,0.5,100,175.0
285,B-2,103.5,0.5,100,175.0
286,C2,103.75,0.25,100,175.0
287,E2,103.75,0.25,100,175.0
288,C2,104.0,83/1000,100,175.0
289,G2,104.0,0.5,100,175.0
290,C2,104.0,1.0,100,175.0
291,B-2,104.0,1.0,100,175.0
292,G#2,104.5,0.5,100,175.0
293,E2,105.0,667/1000,100,175.0
294,B-2,105.0,1.0,100,175.0
295,G2,105.5,0.5,100,175.0
296,G#2,106.0,0.5,100,175.0
297,C2,106.0,1.0,100,175.0
298,B-2,106.0,1.0,100,175.0
299,G2,107.0,0.5,100,175.0
300,D2,107.0,1.0,100,175.0
301,B-2,107.0,1.0,100,175.0
302,G#2,107.5,0.5,100,175.0
303,G2,108.0,0.5,100,175.0
304,D3,108.0,0.5,100,175.0
305,C2,108.0,1.0,100,175.0
306,B-2,108.0,1.0,100,175.0
307,C2,108.0,1.0,100,175.0
308,B-2,108.0,1.0,100,175.0
309,G2,108.5,0.5,100,175.0
310,G#2,108.5,0.5,100,175.0
311,E-3,108.5,0.5,100,175.0
312,E2,109.0,667/1000,100,175.0
313,G#2,109.0,0.5,100,175.0
314,B-2,109.0,1.0,100,175.0
315,B-2,109.0,1.0,100,175.0
316,G2,109.5,0.5,100,175.0
317,D3,109.5,0.5,100,175.0
318,B-2,110.0,0.5,100,175.0
319,G#2,110.0,0.5,100,175.0
320,E-3,110.0,0.5,100,175.0
321,C2,110.0,1.0,100,175.0
322,B-2,110.0,1.0,100,175.0
323,C2,110.0,1.0,100,175.0
324,B-2,110.0,1.0,100,175.0
325,B-2,110.5,0.5,100,175.0
326,B-2,111.0,0.5,100,175.0
327,G2,111.0,0.5,100,175.0
328,D3,111.0,0.5,100,175.0
329,D2,111.0,1.0,100,175.0
330,B-2,111.0,1.0,100,175.0
331,D2,111.0,1.0,100,175.0
332,B-2,111.0,1.0,100,175.0
333,B-2,111.5,0.5,100,175.0
334,G#2,111.5,0.5,100,175.0
335,E-3,111.5,0.5,100,175.0
336,G2,112.0,0.5,100,175.0
337,C2,112.0,1.0,100,175.0
338,B-2,112.0,1.0,100,175.0
339,C2,112.0,1.0,100,175.0
340,B-2,112.0,1.0,100,175.0
341,G#2,112.5,0.5,100,175.0
342,G2,112.5,0.5,100,175.0
343,D3,112.5,0.5,100,175.0
344,E2,113.0,667/1000,100,175.0
345,G#2,113.0,0.5,100,175.0
346,E-3,113.0,0.5,100,175.0
347,B-2,113.0,1.0,100,175.0
348,B-2,113.0,1.0,100,175.0
349,G2,113.5,0.5,100,175.0
350,G#2,114.0,0.5,100,175.0
351,B-2,114.0,0.5,100,175.0
352,F3,114.0,0.5,100,175.0
353,C2,114.0,1.0,100,175.0
354,B-2,114.0,1.0,100,175.0
355,C2,114.0,1.0,100,175.0
356,B-2,114.0,1.0,100,175.0
357,B-2,114.5,0.5,100,175.0
358,F3,114.5,0.5,100,175.0
359,G2,115.0,0.5,100,175.0
360,B-2,115.0,0.5,100,175.0
361,F3,115.0,0.5,100,175.0
362,D2,115.0,1.0,100,175.0
363,B-2,115.0,1.0,100,175.0
364,D2,115.0,1.0,100,175.0
365,B-2,115.0,1.0,100,175.0
366,G#2,115.5,0.5,100,175.0
367,B-2,115.5,0.5,100,175.0
368,F3,115.5,0.5,100,175.0
369,G2,116.0,0.5,100,175.0
370,D3,116.0,0.5,100,175.0
371,C2,116.0,1.0,100,175.0
372,B-2,116.0,1.0,100,175.0
373,C2,116.0,1.0,100,175.0
374,B-2,116.0,1.0,100,175.0
375,G2,116.5,0.5,100,175.0
376,G#2,116.5,0.5,100,175.0
377,E-3,116.5,0.5,100,175.0
378,E2,117.0,667/1000,100,175.0
379,G#2,117.0,0.5,100,175.0
380,B-2,117.0,1.0,100,175.0
381,B-2,117.0,1.0,100,175.0
382,G2,117.5,0.5,100,175.0
383,D3,117.5,0.5,100,175.0
384,B-2,118.0,0.5,100,175.0
385,G#2,118.0,0.5,100,175.0
386,E-3,118.0,0.5,100,175.0
387,C2,118.0,1.0,100,175.0
388,B-2,118.0,1.0,100,175.0
389,C2,118.0,1.0,100,175.0
390,B-2,118.0,1.0,100,175.0
391,B-2,118.5,0.5,100,175.0
392,B-2,119.0,0.5,100,175.0
393,G2,119.0,0.5,100,175.0
394,D3,119.0,0.5,100,175.0
395,D2,119.0,1.0,100,175.0
396,B-2,119.0,1.0,100,175.0
397,D2,119.0,1.0,100,175.0
398,B-2,119.0,1.0,100,175.0
399,B-2,119.5,0.5,100,175.0
400,G#2,119.5,0.5,100,175.0
401,E-3,119.5,0.5,100,175.0
402,G2,120.0,0.5,100,175.0
403,C2,120.0,1.0,100,175.0
404,B-2,120.0,1.0,100,175.0
405,G#2,120.5,0.5,100,175.0
406,G2,120.5,0.5,100,175.0
407,D3,120.5,0.5,100,175.0
408,E2,121.0,667/1000,100,175.0
409,B-2,121.0,1.0,100,175.0
410,G#2,121.0,0.5,100,175.0
411,E-3,121.0,0.5,100,175.0
412,G2,121.5,0.5,100,175.0
413,G#2,122.0,0.5,100,175.0
414,B-2,122.0,0.5,100,175.0
415,F3,122.0,0.5,100,175.0
416,C2,122.0,1.0,100,175.0
417,B-2,122.0,1.0,100,175.0
418,B-2,122.5,0.5,100,175.0
419,F3,122.5,0.5,100,175.0
420,G2,123.0,0.5,100,175.0
421,B-2,123.0,0.5,100,175.0
422,F3,123.0,0.5,100,175.0
423,D2,123.0,1.0,100,175.0
424,B-2,123.0,1.0,100,175.0
425,G#2,123.5,0.5,100,175.0
426,B-2,123.5,0.5,100,175.0
427,F3,123.5,0.5,100,175.0
428,G2,124.0,0.5,100,175.0
429,D3,124.0,0.5,100,175.0
430,C2,124.0,1.0,100,175.0
431,B-2,124.0,1.0,100,175.0
432,C2,124.0,1.0,100,175.0
433,B-2,124.0,1.0,100,175.0
434,G2,124.5,0.5,100,175.0
435,G#2,124.5,0.5,100,175.0
436,E-3,124.5,0.5,100,175.0
437,E2,125.0,667/1000,100,175.0
438,G#2,125.0,0.5,100,175.0
439,B-2,125.0,1.0,100,175.0
440,B-2,125.0,1.0,100,175.0
441,G2,125.5,0.5,100,175.0
442,D3,125.5,0.5,100,175.0
443,B-2,126.0,0.5,100,175.0
444,G#2,126.0,0.5,100,175.0
445,E-3,126.0,0.5,100,175.0
446,C2,126.0,1.0,100,175.0
447,B-2,126.0,1.0,100,175.0
448,C2,126.0,1.0,100,175.0
449,B-2,126.0,1.0,100,175.0
450,B-2,126.5,0.5,100,175.0
451,B-2,127.0,0.5,100,175.0
452,G2,127.0,0.5,100,175.0
453,D3,127.0,0.5,100,175.0
454,D2,127.0,1.0,100,175.0
455,B-2,127.0,1.0,100,175.0
456,D2,127.0,1.0,100,175.0
457,B-2,127.0,1.0,100,175.0
458,B-2,127.5,0.5,100,175.0
459,G#2,127.5,0.5,100,175.0
460,E-3,127.5,0.5,100,175.0
461,G2,128.0,0.5,100,175.0
462,C2,128.0,1.0,100,175.0
463,B-2,128.0,1.0,100,175.0
464,C2,128.0,1.0,100,175.0
465,B-2,128.0,1.0,100,175.0
466,G#2,128.5,0.5,100,175.0
467,G2,128.5,0.5,100,175.0
468,D3,128.5,0.5,100,175.0
469,E2,129.0,667/1000,100,175.0
470,G#2,129.0,0.5,100,175.0
471,E-3,129.0,0.5,100,175.0
472,B-2,129.0,1.0,100,175.0
473,B-2,129.0,1.0,100,175.0
474,G2,129.5,0.5,100,175.0
475,G#2,130.0,0.5,100,175.0
476,B-2,130.0,0.5,100,175.0
477,F3,130.0,0.5,100,175.0
478,C2,130.0,1.0,100,175.0
479,B-2,130.0,1.0,100,175.0
480,C2,130.0,1.0,100,175.0
481,B-2,130.0,1.0,100,175.0
482,B-2,130.5,0.5,100,175.0
483,F3,130.5,0.5,100,175.0
484,G2,131.0,0.5,100,175.0
485,B-2,131.0,0.5,100,175.0
486,F3,131.0,0.5,100,175.0
487,D2,131.0,1.0,100,175.0
488,B-2,131.0,1.0,100,175.0
489,D2,131.0,1.0,100,175.0
490,B-2,131.0,1.0,100,175.0
491,G#2,131.5,0.5,100,175.0
492,B-2,131.5,0.5,100,175.0
493,F3,131.5,0.5,100,175.0
494,G2,132.0,0.5,100,175.0
495,D3,132.0,0.5,100,175.0
496,C2,132.0,1.0,100,175.0
497,B-2,132.0,1.0,100,175.0
498,C2,132.0,1.0,100,175.0
499,B-2,132.0,1.0,100,175.0
500,G2,132.5,0.5,100,175.0
501,G#2,132.5,0.5,100,175.0
502,E-3,132.5,0.5,100,175.0
503,E2,133.0,667/1000,100,175.0
504,G#2,133.0,0.5,100,175.0
505,B-2,133.0,1.0,100,175.0
506,B-2,133.0,1.0,100,175.0
507,G2,133.5,0.5,100,175.0
508,D3,133.5,0.5,100,175.0
509,B-2,134.0,0.5,100,175.0
510,G#2,134.0,0.5,100,175.0
511,E-3,134.0,0.5,100,175.0
512,C2,134.0,1.0,100,175.0
513,B-2,134.0,1.0,100,175.0
514,C2,134.0,1.0,100,175.0
515,B-2,134.0,1.0,100,175.0
516,B-2,134.5,0.5,100,175.0
517,B-2,135.0,0.5,100,175.0
518,G2,135.0,0.5,100,175.0
519,D3,135.0,0.5,100,175.0
520,D2,135.0,1.0,100,175.0
521,B-2,135.0,1.0,100,175.0
522,D2,135.0,1.0,100,175.0
523,B-2,135.0,1.0,100,175.0
524,B-2,135.5,0.5,100,175.0
525,G#2,135.5,0.5,100,175.0
526,E-3,135.5,0.5,100,175.0
527,G2,136.0,0.5,100,175.0
528,A2,136.0,1333/1000,100,175.0
529,D2,136.0,1333/1000,100,175.0
530,C2,136.0,1.0,100,175.0
531,B-2,136.0,1.0,100,175.0
532,G#2,136.5,0.5,100,175.0
533,G2,136.5,0.5,100,175.0
534,D3,136.5,0.5,100,175.0
535,E2,137.0,333/1000,100,175.0
536,E2,137.0,667/1000,100,175.0
537,B-2,137.0,1.0,100,175.0
538,G#2,137.0,0.5,100,175.0
539,E-3,137.0,0.5,100,175.0
540,A2,137.25,1333/1000,100,175.0
541,D2,137.25,1333/1000,100,175.0
542,G2,137.5,0.5,100,175.0
543,G#2,138.0,0.5,100,175.0
544,B-2,138.0,0.5,100,175.0
545,F3,138.0,0.5,100,175.0
546,C2,138.0,1.0,100,175.0
547,B-2,138.0,1.0,100,175.0
548,B-2,138.5,0.5,100,175.0
549,F3,138.5,0.5,100,175.0
550,G2,139.0,0.5,100,175.0
551,B-2,139.0,0.5,100,175.0
552,F3,139.0,0.5,100,175.0
553,D2,139.0,1.0,100,175.0
554,B-2,139.0,1.0,100,175.0
555,G#2,139.5,0.5,100,175.0
556,B-2,139.5,0.5,100,175.0
557,F3,139.5,0.5,100,175.0
558,G2,140.0,0.5,100,175.0
559,D3,140.0,0.5,100,175.0
560,C2,140.0,1.0,100,175.0
561,B-2,140.0,1.0,100,175.0
562,C2,140.0,1.0,100,175.0
563,B-2,140.0,1.0,100,175.0
564,G2,140.5,0.5,100,175.0
565,G#2,140.5,0.5,100,175.0
566,E-3,140.5,0.5,100,175.0
567,E2,141.0,667/1000,100,175.0
568,G#2,141.0,0.5,100,175.0
569,B-2,141.0,1.0,100,175.0
570,B-2,141.0,1.0,100,175.0
571,G2,141.5,0.5,100,175.0
572,D3,141.5,0.5,100,175.0
573,B-2,142.0,0.5,100,175.0
574,G#2,142.0,0.5,100,175.0
575,E-3,142.0,0.5,100,175.0
576,C2,142.0,1.0,100,175.0
577,B-2,142.0,1.0,100,175.0
578,C2,142.0,1.0,100,175.0
579,B-2,142.0,1.0,100,175.0
580,B-2,142.5,0.5,100,175.0
581,B-2,143.0,0.5,100,175.0
582,G2,143.0,0.5,100,175.0
583,D3,143.0,0.5,100,175.0
584,D2,143.0,1.0,100,175.0
585,B-2,143.0,1.0,100,175.0
586,D2,143.0,1.0,100,175.0
587,B-2,143.0,1.0,100,175.0
588,B-2,143.5,0.5,100,175.0
589,G#2,143.5,0.5,100,175.0
590,E-3,143.5,0.5,100,175.0
591,G2,144.0,0.5,100,175.0
592,C2,144.0,1.0,100,175.0
593,B-2,144.0,1.0,100,175.0
594,C2,144.0,1.0,100,175.0
595,B-2,144.0,1.0,100,175.0
596,G#2,144.5,0.5,100,175.0
597,G2,144.5,0.5,100,175.0
598,D3,144.5,0.5,100,175.0
599,E2,145.0,667/1000,100,175.0
600,G#2,145.0,0.5,100,175.0
601,E-3,145.0,0.5,100,175.0
602,B-2,145.0,1.0,100,175.0
603,B-2,145.0,1.0,100,175.0
604,G2,145.5,0.5,100,175.0
605,G#2,146.0,0.5,100,175.0
606,B-2,146.0,0.5,100,175.0
607,F3,146.0,0.5,100,175.0
608,C2,146.0,1.0,100,175.0
609,B-2,146.0,1.0,100,175.0
610,C2,146.0,1.0,100,175.0
611,B-2,146.0,1.0,100,175.0
612,B-2,146.5,0.5,100,175.0
613,F3,146.5,0.5,100,175.0
614,G2,147.0,0.5,100,175.0
615,B-2,147.0,0.5,100,175.0
616,F3,147.0,0.5,100,175.0
617,D2,147.0,1.0,100,175.0
618,B-2,147.0,1.0,100,175.0
619,D2,147.0,1.0,100,175.0
620,B-2,147.0,1.0,100,175.0
621,G#2,147.5,0.5,100,175.0
622,B-2,147.5,0.5,100,175.0
623,F3,147.5,0.5,100,175.0
624,G2,148.0,0.5,100,175.0
625,D3,148.0,0.5,100,175.0
626,C2,148.0,1.0,100,175.0
627,B-2,148.0,1.0,100,175.0
628,C2,148.0,1.0,100,175.0
629,B-2,148.0,1.0,100,175.0
630,G2,148.5,0.5,100,175.0
631,G#2,148.5,0.5,100,175.0
632,E-3,148.5,0.5,100,175.0
633,E2,149.0,667/1000,100,175.0
634,G#2,149.0,0.5,100,175.0
635,B-2,149.0,1.0,100,175.0
636,B-2,149.0,1.0,100,175.0
637,G2,149.5,0.5,100,175.0
638,D3,149.5,0.5,100,175.0
639,B-2,150.0,0.5,100,175.0
640,G#2,150.0,0.5,100,175.0
641,E-3,150.0,0.5,100,175.0
642,C2,150.0,1.0,100,175.0
643,B-2,150.0,1.0,100,175.0
644,C2,150.0,1.0,100,175.0
645,B-2,150.0,1.0,100,175.0
646,B-2,150.5,0.5,100,175.0
647,B-2,151.0,0.5,100,175.0
648,G2,151.0,0.5,100,175.0
649,D3,151.0,0.5,100,175.0
650,D2,151.0,1.0,100,175.0
651,B-2,151.0,1.0,100,175.0
652,D2,151.0,1.0,100,175.0
653,B-2,151.0,1.0,100,175.0
654,B-2,151.5,0.5,100,175.0
655,G#2,151.5,0.5,100,175.0
656,E-3,151.5,0.5,100,175.0
657,G2,152.0,0.5,100,175.0
658,A2,152.0,1333/1000,100,175.0
659,D2,152.0,1333/1000,100,175.0
660,C2,152.0,1.0,100,175.0
661,B-2,152.0,1.0,100,175.0
662,G#2,152.5,0.5,100,175.0
663,G2,152.5,0.5,100,175.0
664,D3,152.5,0.5,100,175.0
665,E2,153.0,333/1000,100,175.0
666,E2,153.0,667/1000,100,175.0
667,B-2,153.0,1.0,100,175.0
668,G#2,153.0,0.5,100,175.0
669,E-3,153.0,0.5,100,175.0
670,A2,153.25,1333/1000,100,175.0
671,D2,153.25,1333/1000,100,175.0
672,G2,153.5,0.5,100,175.0
673,G#2,154.0,0.5,100,175.0
674,B-2,154.0,0.5,100,175.0
675,F3,154.0,0.5,100,175.0
676,C2,154.0,1.0,100,175.0
677,B-2,154.0,1.0,100,175.0
678,B-2,154.5,0.5,100,175.0
679,F3,154.5,0.5,100,175.0
680,G2,155.0,0.5,100,175.0
681,B-2,155.0,0.5,100,175.0
682,F3,155.0,0.5,100,175.0
683,D2,155.0,1.0,100,175.0
684,B-2,155.0,1.0,100,175.0
685,G#2,155.5,0.5,100,175.0
686,B-2,155.5,0.5,100,175.0
687,F3,155.5,0.5,100,175.0
688,G2,156.0,0.5,100,175.0
689,D3,156.0,0.5,100,175.0
690,C2,156.0,1.0,100,175.0
691,B-2,156.0,1.0,100,175.0
692,C2,156.0,1.0,100,175.0
693,B-2,156.0,1.0,100,175.0
694,C2,156.0,1.0,100,175.0
695,B-2,156.0,1.0,100,175.0
696,G2,156.5,0.5,100,175.0
697,G#2,156.5,0.5,100,175.0
698,E-3,156.5,0.5,100,175.0
699,E2,157.0,667/1000,100,175.0
700,G#2,157.0,0.5,100,175.0
701,B-2,157.0,1.0,100,175.0
702,B-2,157.0,1.0,100,175.0
703,D2,157.0,1.0,100,175.0
704,B-2,157.0,1.0,100,175.0
705,G2,157.5,0.5,100,175.0
706,D3,157.5,0.5,100,175.0
707,B-2,158.0,0.5,100,175.0
708,G#2,158.0,0.5,100,175.0
709,E-3,158.0,0.5,100,175.0
710,C2,158.0,1.0,100,175.0
711,B-2,158.0,1.0,100,175.0
712,C2,158.0,1.0,100,175.0
713,B-2,158.0,1.0,100,175.0
714,C2,158.0,1.0,100,175.0
715,B-2,158.0,1.0,100,175.0
716,B-2,158.5,0.5,100,175.0
717,B-2,159.0,0.5,100,175.0
718,G2,159.0,0.5,100,175.0
719,D3,159.0,0.5,100,175.0
720,D2,159.0,1.0,100,175.0
721,B-2,159.0,1.0,100,175.0
722,D2,159.0,1.0,100,175.0
723,B-2,159.0,1.0,100,175.0
724,D2,159.0,1.0,100,175.0
725,B-2,159.0,1.0,100,175.0
726,B-2,159.5,0.5,100,175.0
727,G#2,159.5,0.5,100,175.0
728,E-3,159.5,0.5,100,175.0
729,G2,160.0,0.5,100,175.0
730,C2,160.0,1.0,100,175.0
731,B-2,160.0,1.0,100,175.0
732,C2,160.0,1.0,100,175.0
733,B-2,160.0,1.0,100,175.0
734,C2,160.0,1.0,100,175.0
735,B-2,160.0,1.0,100,175.0
736,G#2,160.5,0.5,100,175.0
737,G2,160.5,0.5,100,175.0
738,D3,160.5,0.5,100,175.0
739,E2,161.0,667/1000,100,175.0
740,G#2,161.0,0.5,100,175.0
741,E-3,161.0,0.5,100,175.0
742,B-2,161.0,1.0,100,175.0
743,B-2,161.0,1.0,100,175.0
744,D2,161.0,1.0,100,175.0
745,B-2,161.0,1.0,100,175.0
746,G2,161.5,0.5,100,175.0
747,G#2,162.0,0.5,100,175.0
748,B-2,162.0,0.5,100,175.0
749,F3,162.0,0.5,100,175.0
750,C2,162.0,1.0,100,175.0
751,B-2,162.0,1.0,100,175.0
752,C2,162.0,1.0,100,175.0
753,B-2,162.0,1.0,100,175.0
754,C2,162.0,1.0,100,175.0
755,B-2,162.0,1.0,100,175.0
756,B-2,162.5,0.5,100,175.0
757,F3,162.5,0.5,100,175.0
758,G2,163.0,0.5,100,175.0
759,B-2,163.0,0.5,100,175.0
760,F3,163.0,0.5,100,175.0
761,D2,163.0,1.0,100,175.0
762,B-2,163.0,1.0,100,175.0
763,D2,163.0,1.0,100,175.0
764,B-2,163.0,1.0,100,175.0
765,D2,163.0,1.0,100,175.0
766,B-2,163.0,1.0,100,175.0
767,G#2,163.5,0.5,100,175.0
768,B-2,163.5,0.5,100,175.0
769,F3,163.5,0.5,100,175.0
770,G2,164.0,0.5,100,175.0
771,D3,164.0,0.5,100,175.0
772,C2,164.0,1.0,100,175.0
773,B-2,164.0,1.0,100,175.0
774,C2,164.0,1.0,100,175.0
775,B-2,164.0,1.0,100,175.0
776,C2,164.0,1.0,100,175.0
777,B-2,164.0,1.0,100,175.0
778,G2,164.5,0.5,100,175.0
779,G#2,164.5,0.5,100,175.0
780,E-3,164.5,0.5,100,175.0
781,E2,165.0,667/1000,100,175.0
782,G#2,165.0,0.5,100,175.0
783,B-2,165.0,1.0,100,175.0
784,B-2,165.0,1.0,100,175.0
785,D2,165.0,1.0,100,175.0
786,B-2,165.0,1.0,100,175.0
787,G2,165.5,0.5,100,175.0
788,D3,165.5,0.5,100,175.0
789,C2,166.0,0.5,100,175.0
790,B-2,166.0,0.5,100,175.0
791,G#2,166.0,0.5,100,175.0
792,E-3,166.0,0.5,100,175.0
793,B-2,166.0,1.0,100,175.0
794,C2,166.0,1.0,100,175.0
795,B-2,166.0,1.0,100,175.0
796,B-2,166.0,1.0,100,175.0
797,C2,166.0,1.0,100,175.0
798,E2,166.5,0.5,100,175.0
799,B-2,166.5,0.5,100,175.0
800,E2,167.0,417/1000,100,175.0
801,B-2,167.0,0.5,100,175.0
802,G2,167.0,0.5,100,175.0
803,D3,167.0,0.5,100,175.0
804,D2,167.0,1.0,100,175.0
805,B-2,167.0,1.0,100,175.0
806,D2,167.0,1.0,100,175.0
807,B-2,167.0,1.0,100,175.0
808,B-2,167.0,1.0,100,175.0
809,E2,167.25,0.25,100,175.0
810,A3,167.25,167/1000,100,175.0
811,F2,167.25,167/1000,100,175.0
812,G2,167.25,167/1000,100,175.0
813,E2,167.5,0.5,100,175.0
814,B-2,167.5,0.5,100,175.0
815,G#2,167.5,0.5,100,175.0
816,E-3,167.5,0.5,100,175.0
817,G2,168.0,0.5,100,175.0
818,B3,168.0,1.0,100,175.0
819,B-2,168.0,1.0,100,175.0
820,C2,168.0,1.0,100,175.0
821,G#2,168.0,1.0,100,175.0
822,G#2,168.5,0.5,100,175.0
823,G2,168.5,0.5,100,175.0
824,D3,168.5,0.5,100,175.0
825,G#2,169.0,0.5,100,175.0
826,E-3,169.0,0.5,100,175.0
827,B3,169.0,1.0,100,175.0
828,B-2,169.0,1.0,100,175.0
829,E2,169.0,1.0,100,175.0
830,G#2,169.0,1.0,100,175.0
831,G2,169.5,0.5,100,175.0
832,G#2,170.0,0.5,100,175.0
833,B-2,170.0,0.5,100,175.0
834,F3,170.0,0.5,100,175.0
835,B3,170.0,1.0,100,175.0
836,B-2,170.0,1.0,100,175.0
837,G#2,170.0,1.0,100,175.0
838,C2,170.5,0.5,100,175.0
839,B-2,170.5,0.5,100,175.0
840,F3,170.5,0.5,100,175.0
841,E2,171.0,0.5,100,175.0
842,G2,171.0,0.5,100,175.0
843,B-2,171.0,0.5,100,175.0
844,F3,171.0,0.5,100,175.0
845,B3,171.0,1.0,100,175.0
846,B-2,171.0,1.0,100,175.0
847,G#2,171.0,1.0,100,175.0
848,G#2,171.5,0.5,100,175.0
849,B-2,171.5,0.5,100,175.0
850,F3,171.5,0.5,100,175.0
851,B3,172.0,1.0,100,175.0
852,B-2,172.0,1.0,100,175.0
853,B-2,172.0,1.0,100,175.0
854,G#2,172.0,1.0,100,175.0
855,C2,172.0,1.0,100,175.0
856,G2,172.5,0.5,100,175.0
857,G#2,173.0,0.5,100,175.0
858,B3,173.0,1.0,100,175.0
859,B-2,173.0,1.0,100,175.0
860,B-2,173.0,1.0,100,175.0
861,G#2,173.0,1.0,100,175.0
862,E2,173.0,1.0,100,175.0
863,B-2,174.0,0.5,100,175.0
864,B3,174.0,1.0,100,175.0
865,B-2,174.0,1.0,100,175.0
866,B-2,174.0,1.0,100,175.0
867,G#2,174.0,1.0,100,175.0
868,C2,174.5,0.5,100,175.0
869,B-2,174.5,0.5,100,175.0
870,E2,175.0,0.5,100,175.0
871,B-2,175.0,0.5,100,175.0
872,B3,175.0,1.0,100,175.0
873,B-2,175.0,1.0,100,175.0
874,B-2,175.0,1.0,100,175.0
875,G#2,175.0,1.0,100,175.0
876,B-2,175.5,0.5,100,175.0
877,G2,176.0,0.5,100,175.0
878,B3,176.0,1.0,100,175.0
879,B-2,176.0,1.0,100,175.0
880,C2,176.0,1.0,100,175.0
881,G#2,176.0,1.0,100,175.0
882,B-2,176.0,1.0,100,175.0
883,C2,176.0,1.0,100,175.0
884,G#2,176.0,1.0,100,175.0
885,G#2,176.5,0.5,100,175.0
886,B3,177.0,1.0,100,175.0
887,B-2,177.0,1.0,100,175.0
888,E2,177.0,1.0,100,175.0
889,G#2,177.0,1.0,100,175.0
890,B-2,177.0,1.0,100,175.0
891,E2,177.0,1.0,100,175.0
892,G#2,177.0,1.0,100,175.0
893,G2,177.5,0.5,100,175.0
894,G#2,178.0,0.5,100,175.0
895,B3,178.0,1.0,100,175.0
896,B-2,178.0,1.0,100,175.0
897,G#2,178.0,1.0,100,175.0
898,B-2,178.0,1.0,100,175.0
899,G#2,178.0,1.0,100,175.0
900,C2,178.5,0.5,100,175.0
901,C2,178.5,0.5,100,175.0
902,G2,179.0,0.5,100,175.0
903,B3,179.0,1.0,100,175.0
904,B-2,179.0,1.0,100,175.0
905,G#2,179.0,1.0,100,175.0
906,B-2,179.0,1.0,100,175.0
907,G#2,179.0,1.0,100,175.0
908,E2,179.0,0.5,100,175.0
909,E2,179.0,0.5,100,175.0
910,G#2,179.5,0.5,100,175.0
911,B3,180.0,1.0,100,175.0
912,B-2,180.0,1.0,100,175.0
913,B-2,180.0,1.0,100,175.0
914,G#2,180.0,1.0,100,175.0
915,C2,180.0,1.0,100,175.0
916,B-2,180.0,1.0,100,175.0
917,B-2,180.0,1.0,100,175.0
918,C2,180.0,1.0,100,175.0
919,G#2,180.0,1.0,100,175.0
920,G2,180.5,0.5,100,175.0
921,G#2,181.0,0.5,100,175.0
922,B3,181.0,1.0,100,175.0
923,B-2,181.0,1.0,100,175.0
924,B-2,181.0,1.0,100,175.0
925,G#2,181.0,1.0,100,175.0
926,E2,181.0,1.0,100,175.0
927,B-2,181.0,1.0,100,175.0
928,B-2,181.0,1.0,100,175.0
929,E2,181.0,1.0,100,175.0
930,G#2,181.0,1.0,100,175.0
931,B-2,182.0,0.5,100,175.0
932,B3,182.0,1.0,100,175.0
933,B-2,182.0,1.0,100,175.0
934,B-2,182.0,1.0,100,175.0
935,G#2,182.0,1.0,100,175.0
936,B-2,182.0,1.0,100,175.0
937,B-2,182.0,1.0,100,175.0
938,G#2,182.0,1.0,100,175.0
939,B-2,182.5,0.5,100,175.0
940,C2,182.5,0.5,100,175.0
941,C2,182.5,0.5,100,175.0
942,B-2,183.0,0.5,100,175.0
943,B3,183.0,1.0,100,175.0
944,B-2,183.0,1.0,100,175.0
945,B-2,183.0,1.0,100,175.0
946,G#2,183.0,1.0,100,175.0
947,B-2,183.0,1.0,100,175.0
948,B-2,183.0,1.0,100,175.0
949,G#2,183.0,1.0,100,175.0
950,E2,183.0,0.5,100,175.0
951,E2,183.0,0.5,100,175.0
952,B-2,183.5,0.5,100,175.0
953,G2,184.0,0.5,100,175.0
954,B3,184.0,1.0,100,175.0
955,B-2,184.0,1.0,100,175.0
956,C2,184.0,1.0,100,175.0
957,G#2,184.0,1.0,100,175.0
958,C2,184.0,1.0,100,175.0
959,G#2,184.0,1.0,100,175.0
960,G#2,184.5,0.5,100,175.0
961,B3,185.0,1.0,100,175.0
962,B-2,185.0,1.0,100,175.0
963,E2,185.0,1.0,100,175.0
964,G#2,185.0,1.0,100,175.0
965,E2,185.0,1.0,100,175.0
966,G#2,185.0,1.0,100,175.0
967,G2,185.5,0.5,100,175.0
968,G#2,186.0,0.5,100,175.0
969,B3,186.0,1.0,100,175.0
970,B-2,186.0,1.0,100,175.0
971,G#2,186.0,1.0,100,175.0
972,G#2,186.0,1.0,100,175.0
973,C2,186.5,0.5,100,175.0
974,C2,186.5,0.5,100,175.0
975,G2,187.0,0.5,100,175.0
976,B3,187.0,1.0,100,175.0
977,B-2,187.0,1.0,100,175.0
978,G#2,187.0,1.0,100,175.0
979,G#2,187.0,1.0,100,175.0
980,E2,187.0,0.5,100,175.0
981,E2,187.0,0.5,100,175.0
982,G#2,187.5,0.5,100,175.0
983,B3,188.0,1.0,100,175.0
984,B-2,188.0,1.0,100,175.0
985,B-2,188.0,1.0,100,175.0
986,G#2,188.0,1.0,100,175.0
987,C2,188.0,1.0,100,175.0
988,G#2,188.0,1.0,100,175.0
989,C2,188.0,1.0,100,175.0
990,G2,188.5,0.5,100,175.0
991,G#2,189.0,0.5,100,175.0
992,B3,189.0,1.0,100,175.0
993,B-2,189.0,1.0,100,175.0
994,B-2,189.0,1.0,100,175.0
995,G#2,189.0,1.0,100,175.0
996,E2,189.0,1.0,100,175.0
997,G#2,189.0,1.0,100,175.0
998,E2,189.0,1.0,100,175.0
999,B-2,190.0,0.5,100,175.0
1000,B3,190.0,1.0,100,175.0
1001,B-2,190.0,1.0,100,175.0
1002,B-2,190.0,1.0,100,175.0
1003,G#2,190.0,1.0,100,175.0
1004,G#2,190.0,1.0,100,175.0
1005,B-2,190.5,0.5,100,175.0
1006,C2,190.5,0.5,100,175.0
1007,C2,190.5,0.5,100,175.0
1008,B-2,191.0,0.5,100,175.0
1009,B3,191.0,1.0,100,175.0
1010,B-2,191.0,1.0,100,175.0
1011,B-2,191.0,1.0,100,175.0
1012,G#2,191.0,1.0,100,175.0
1013,G#2,191.0,1.0,100,175.0
1014,E2,191.0,0.5,100,175.0
1015,E2,191.0,0.5,100,175.0
1016,B-2,191.5,0.5,100,175.0
1017,G2,192.0,0.5,100,175.0
1018,B3,192.0,1.0,100,175.0
1019,B-2,192.0,1.0,100,175.0
1020,C2,192.0,1.0,100,175.0
1021,G#2,192.0,1.0,100,175.0
1022,G#2,192.0,1.0,100,175.0
1023,C2,192.0,1.0,100,175.0
1024,G#2,192.5,0.5,100,175.0
1025,B3,193.0,1.0,100,175.0
1026,B-2,193.0,1.0,100,175.0
1027,E2,193.0,1.0,100,175.0
1028,G#2,193.0,1.0,100,175.0
1029,G#2,193.0,1.0,100,175.0
1030,E2,193.0,1.0,100,175.0
1031,G2,193.5,0.5,100,175.0
1032,G#2,194.0,0.5,100,175.0
1033,B3,194.0,1.0,100,175.0
1034,B-2,194.0,1.0,100,175.0
1035,G#2,194.0,1.0,100,175.0
1036,G#2,194.0,1.0,100,175.0
1037,C2,194.5,0.5,100,175.0
1038,C2,194.5,0.5,100,175.0
1039,G2,195.0,0.5,100,175.0
1040,B3,195.0,1.0,100,175.0
1041,B-2,195.0,1.0,100,175.0
1042,G#2,195.0,1.0,100,175.0
1043,G#2,195.0,1.0,100,175.0
1044,E2,195.0,0.5,100,175.0
1045,E2,195.0,0.5,100,175.0
1046,G#2,195.5,0.5,100,175.0
1047,B3,196.0,1.0,100,175.0
1048,B-2,196.0,1.0,100,175.0
1049,B-2,196.0,1.0,100,175.0
1050,G#2,196.0,1.0,100,175.0
1051,C2,196.0,1.0,100,175.0
1052,G#2,196.0,1.0,100,175.0
1053,C2,196.0,1.0,100,175.0
1054,G2,196.5,0.5,100,175.0
1055,G#2,197.0,0.5,100,175.0
1056,B3,197.0,1.0,100,175.0
1057,B-2,197.0,1.0,100,175.0
1058,B-2,197.0,1.0,100,175.0
1059,G#2,197.0,1.0,100,175.0
1060,E2,197.0,1.0,100,175.0
1061,G#2,197.0,1.0,100,175.0
1062,E2,197.0,1.0,100,175.0
1063,B-2,198.0,0.5,100,175.0
1064,B3,198.0,1.0,100,175.0
1065,B-2,198.0,1.0,100,175.0
1066,B-2,198.0,1.0,100,175.0
1067,G#2,198.0,1.0,100,175.0
1068,G#2,198.0,1.0,100,175.0
1069,A2,198.25,167/1000,100,175.0
1070,F2,198.25,167/1000,100,175.0
1071,B-2,198.5,0.5,100,175.0
1072,C2,198.5,0.5,100,175.0
1073,C2,198.5,0.5,100,175.0
1074,F2,198.75,167/1000,100,175.0
1075,F3,198.75,167/1000,100,175.0
1076,A3,198.75,167/1000,100,175.0
1077,D2,198.75,167/1000,100,175.0
1078,B-2,199.0,0.5,100,175.0
1079,B3,199.0,1.0,100,175.0
1080,B-2,199.0,1.0,100,175.0
1081,B-2,199.0,1.0,100,175.0
1082,G#2,199.0,1.0,100,175.0
1083,G#2,199.0,1.0,100,175.0
1084,E2,199.0,0.5,100,175.0
1085,E2,199.0,0.5,100,175.0
1086,B-2,199.5,0.5,100,175.0
1087,E3,199.5,167/1000,100,175.0
1088,C3,199.5,167/1000,100,175.0
1089,F3,199.5,167/1000,100,175.0
1090,D3,199.75,167/1000,100,175.0
1091,D4,200.0,4.0,100,175.0
1092,D4,200.0,4.0,100,175.0
1093,G2,200.0,0.5,100,175.0
1094,B3,200.0,1.0,100,175.0
1095,B-2,200.0,1.0,100,175.0
1096,C2,200.0,1.0,100,175.0
1097,G#2,200.0,1.0,100,175.0
1098,G#2,200.0,1.0,100,175.0
1099,C2,200.0,1.0,100,175.0
1100,G#2,200.5,0.5,100,175.0
1101,B3,201.0,1.0,100,175.0
1102,B-2,201.0,1.0,100,175.0
1103,E2,201.0,1.0,100,175.0
1104,G#2,201.0,1.0,100,175.0
1105,G#2,201.0,1.0,100,175.0
1106,E2,201.0,1.0,100,175.0
1107,G2,201.5,0.5,100,175.0
1108,G#2,202.0,0.5,100,175.0
1109,B3,202.0,1.0,100,175.0
1110,B-2,202.0,1.0,100,175.0
1111,G#2,202.0,1.0,100,175.0
1112,G#2,202.0,1.0,100,175.0
1113,C2,202.5,0.5,100,175.0
1114,C2,202.5,0.5,100,175.0
1115,G2,203.0,0.5,100,175.0
1116,B3,203.0,1.0,100,175.0
1117,B-2,203.0,1.0,100,175.0
1118,G#2,203.0,1.0,100,175.0
1119,G#2,203.0,1.0,100,175.0
1120,E2,203.0,0.5,100,175.0
1121,E2,203.0,0.5,100,175.0
1122,G#2,203.5,0.5,100,175.0
1123,D4,204.0,4.0,100,175.0
1124,D4,204.0,4.0,100,175.0
1125,B3,204.0,1.0,100,175.0
1126,B-2,204.0,1.0,100,175.0
1127,B-2,204.0,1.0,100,175.0
1128,G#2,204.0,1.0,100,175.0
1129,C2,204.0,1.0,100,175.0
1130,G#2,204.0,1.0,100,175.0
1131,C2,204.0,1.0,100,175.0
1132,G2,204.5,0.5,100,175.0
1133,G#2,205.0,0.5,100,175.0
1134,B3,205.0,1.0,100,175.0
1135,B-2,205.0,1.0,100,175.0
1136,B-2,205.0,1.0,100,175.0
1137,G#2,205.0,1.0,100,175.0
1138,E2,205.0,1.0,100,175.0
1139,G#2,205.0,1.0,100,175.0
1140,E2,205.0,1.0,100,175.0
1141,B-2,206.0,0.5,100,175.0
1142,B3,206.0,1.0,100,175.0
1143,B-2,206.0,1.0,100,175.0
1144,B-2,206.0,1.0,100,175.0
1145,G#2,206.0,1.0,100,175.0
1146,G#2,206.0,1.0,100,175.0
1147,B-2,206.5,0.5,100,175.0
1148,C2,206.5,0.5,100,175.0
1149,C2,206.5,0.5,100,175.0
1150,B-2,207.0,0.5,100,175.0
1151,B3,207.0,1.0,100,175.0
1152,B-2,207.0,1.0,100,175.0
1153,B-2,207.0,1.0,100,175.0
1154,G#2,207.0,1.0,100,175.0
1155,G#2,207.0,1.0,100,175.0
1156,E2,207.0,0.5,100,175.0
1157,E2,207.0,0.5,100,175.0
1158,B-2,207.5,0.5,100,175.0
1159,C4,208.0,1.0,100,175.0
1160,C4,208.0,1.0,100,175.0
1161,G2,208.0,0.5,100,175.0
1162,B3,208.0,1.0,100,175.0
1163,B-2,208.0,1.0,100,175.0
1164,C2,208.0,1.0,100,175.0
1165,G#2,208.0,1.0,100,175.0
1166,G#2,208.0,1.0,100,175.0
1167,C2,208.0,1.0,100,175.0
1168,G#2,208.5,0.5,100,175.0
1169,D4,209.0,1.0,100,175.0
1170,D4,209.0,1.0,100,175.0
1171,B3,209.0,1.0,100,175.0
1172,B-2,209.0,1.0,100,175.0
1173,E2,209.0,1.0,100,175.0
1174,G#2,209.0,1.0,100,175.0
1175,G#2,209.0,1.0,100,175.0
1176,E2,209.0,1.0,100,175.0
1177,G2,209.5,0.5,100,175.0
1178,B-2,209.958,0.5,100,175.0
1179,F3,209.958,0.5,100,175.0
1180,E-4,210.0,1.0,100,175.0
1181,E-4,210.0,1.0,100,175.0
1182,G#2,210.0,0.5,100,175.0
1183,B3,210.0,1.0,100,175.0
1184,B-2,210.0,1.0,100,175.0
1185,G#2,210.0,1.0,100,175.0
1186,G#2,210.0,1.0,100,175.0
1187,F3,210.5,0.5,100,175.0
1188,B-2,210.5,0.5,100,175.0
1189,C2,210.5,0.5,100,175.0
1190,C2,210.5,0.5,100,175.0
1191,D4,211.0,1.0,100,175.0
1192,D4,211.0,1.0,100,175.0
1193,G2,211.0,0.5,100,175.0
1194,F3,211.0,0.5,100,175.0
1195,B-2,211.0,0.5,100,175.0
1196,B3,211.0,1.0,100,175.0
1197,B-2,211.0,1.0,100,175.0
1198,G#2,211.0,1.0,100,175.0
1199,G#2,211.0,1.0,100,175.0
1200,E2,211.0,0.5,100,175.0
1201,E2,211.0,0.5,100,175.0
1202,G#2,211.5,0.5,100,175.0
1203,F3,211.5,0.5,100,175.0
1204,B-2,211.5,0.5,100,175.0
1205,D4,212.0,2.0,100,175.0
1206,D4,212.0,2.0,100,175.0
1207,B3,212.0,1.0,100,175.0
1208,B-2,212.0,1.0,100,175.0
1209,B-2,212.0,1.0,100,175.0
1210,G#2,212.0,1.0,100,175.0
1211,C2,212.0,1.0,100,175.0
1212,G#2,212.0,1.0,100,175.0
1213,C2,212.0,1.0,100,175.0
1214,G2,212.5,0.5,100,175.0
1215,G#2,213.0,0.5,100,175.0
1216,B3,213.0,1.0,100,175.0
1217,B-2,213.0,1.0,100,175.0
1218,B-2,213.0,1.0,100,175.0
1219,G#2,213.0,1.0,100,175.0
1220,E2,213.0,1.0,100,175.0
1221,G#2,213.0,1.0,100,175.0
1222,E2,213.0,1.0,100,175.0
1223,C4,214.0,2.0,100,175.0
1224,C4,214.0,2.0,100,175.0
1225,B-2,214.0,0.5,100,175.0
1226,B3,214.0,1.0,100,175.0
1227,B-2,214.0,1.0,100,175.0
1228,B-2,214.0,1.0,100,175.0
1229,G#2,214.0,1.0,100,175.0
1230,G#2,214.0,1.0,100,175.0
1231,B-2,214.5,0.5,100,175.0
1232,C2,214.5,0.5,100,175.0
1233,C2,214.5,0.5,100,175.0
1234,B-2,215.0,0.5,100,175.0
1235,B3,215.0,1.0,100,175.0
1236,B-2,215.0,1.0,100,175.0
1237,B-2,215.0,1.0,100,175.0
1238,G#2,215.0,1.0,100,175.0
1239,G#2,215.0,1.0,100,175.0
1240,E2,215.0,0.5,100,175.0
1241,E2,215.0,0.5,100,175.0
1242,B-2,215.5,0.5,100,175.0
1243,G4,216.0,4.0,100,175.0
1244,G4,216.0,4.0,100,175.0
1245,G2,216.0,0.5,100,175.0
1246,B3,216.0,1.0,100,175.0
1247,B-2,216.0,1.0,100,175.0
1248,C2,216.0,1.0,100,175.0
1249,G#2,216.0,1.0,100,175.0
1250,G#2,216.0,1.0,100,175.0
1251,C2,216.0,1.0,100,175.0
1252,G#2,216.5,0.5,100,175.0
1253,B3,217.0,1.0,100,175.0
1254,B-2,217.0,1.0,100,175.0
1255,E2,217.0,1.0,100,175.0
1256,G#2,217.0,1.0,100,175.0
1257,G#2,217.0,1.0,100,175.0
1258,E2,217.0,1.0,100,175.0
1259,G2,217.5,0.5,100,175.0
1260,G#2,218.0,0.5,100,175.0
1261,B-2,218.0,0.5,100,175.0
1262,F3,218.0,0.5,100,175.0
1263,B3,218.0,1.0,100,175.0
1264,B-2,218.0,1.0,100,175.0
1265,G#2,218.0,1.0,100,175.0
1266,G#2,218.0,1.0,100,175.0
1267,C2,218.5,0.5,100,175.0
1268,C2,218.5,0.5,100,175.0
1269,F3,218.531,0.5,100,175.0
1270,B-2,218.531,0.5,100,175.0
1271,G2,219.0,0.5,100,175.0
1272,B3,219.0,1.0,100,175.0
1273,B-2,219.0,1.0,100,175.0
1274,G#2,219.0,1.0,100,175.0
1275,G#2,219.0,1.0,100,175.0
1276,E2,219.0,0.5,100,175.0
1277,E2,219.0,0.5,100,175.0
1278,F3,219.031,0.5,100,175.0
1279,B-2,219.031,0.5,100,175.0
1280,G#2,219.5,0.5,100,175.0
1281,F3,219.531,0.469,100,175.0
1282,B-2,219.531,0.469,100,175.0
1283,G4,220.0,4.0,100,175.0
1284,G4,220.0,4.0,100,175.0
1285,F3,220.0,0.031,100,175.0
1286,B-2,220.0,0.031,100,175.0
1287,B3,220.0,1.0,100,175.0
1288,B-2,220.0,1.0,100,175.0
1289,B-2,220.0,1.0,100,175.0
1290,G#2,220.0,1.0,100,175.0
1291,C2,220.0,1.0,100,175.0
1292,G#2,220.0,1.0,100,175.0
1293,C2,220.0,1.0,100,175.0
1294,G2,220.5,0.5,100,175.0
1295,G#2,221.0,0.5,100,175.0
1296,B3,221.0,1.0,100,175.0
1297,B-2,221.0,1.0,100,175.0
1298,B-2,221.0,1.0,100,175.0
1299,G#2,221.0,1.0,100,175.0
1300,E2,221.0,1.0,100,175.0
1301,G#2,221.0,1.0,100,175.0
1302,E2,221.0,1.0,100,175.0
1303,B-2,222.0,0.5,100,175.0
1304,B3,222.0,1.0,100,175.0
1305,B-2,222.0,1.0,100,175.0
1306,B-2,222.0,1.0,100,175.0
1307,G#2,222.0,1.0,100,175.0
1308,G#2,222.0,1.0,100,175.0
1309,B-2,222.5,0.5,100,175.0
1310,C2,222.5,0.5,100,175.0
1311,C2,222.5,0.5,100,175.0
1312,B-2,223.0,0.5,100,175.0
1313,B3,223.0,1.0,100,175.0
1314,B-2,223.0,1.0,100,175.0
1315,B-2,223.0,1.0,100,175.0
1316,G#2,223.0,1.0,100,175.0
1317,G#2,223.0,1.0,100,175.0
1318,E2,223.0,0.5,100,175.0
1319,E2,223.0,0.5,100,175.0
1320,B-2,223.5,0.5,100,175.0
1321,F4,224.0,1.0,100,175.0
1322,F4,224.0,1.0,100,175.0
1323,G2,224.0,0.5,100,175.0
1324,B3,224.0,1.0,100,175.0
1325,B-2,224.0,1.0,100,175.0
1326,B-2,224.0,1.0,100,175.0
1327,G#2,224.0,1.0,100,175.0
1328,C2,224.0,1.0,100,175.0
1329,G#2,224.0,1.0,100,175.0
1330,C2,224.0,1.0,100,175.0
1331,G#2,224.0,1.0,100,175.0
1332,C2,224.0,1.0,100,175.0
1333,G#2,224.5,0.5,100,175.0
1334,G4,225.0,1.0,100,175.0
1335,G4,225.0,1.0,100,175.0
1336,B3,225.0,1.0,100,175.0
1337,B-2,225.0,1.0,100,175.0
1338,B-2,225.0,1.0,100,175.0
1339,G#2,225.0,1.0,100,175.0
1340,E2,225.0,1.0,100,175.0
1341,G#2,225.0,1.0,100,175.0
1342,E2,225.0,1.0,100,175.0
1343,G#2,225.0,1.0,100,175.0
1344,E2,225.0,1.0,100,175.0
1345,G2,225.5,0.5,100,175.0
1346,G#4,226.0,1.0,100,175.0
1347,G#4,226.0,1.0,100,175.0
1348,G#2,226.0,0.5,100,175.0
1349,B-2,226.0,0.5,100,175.0
1350,F3,226.0,0.5,100,175.0
1351,B3,226.0,1.0,100,175.0
1352,B-2,226.0,1.0,100,175.0
1353,B-2,226.0,1.0,100,175.0
1354,G#2,226.0,1.0,100,175.0
1355,G#2,226.0,1.0,100,175.0
1356,G#2,226.0,1.0,100,175.0
1357,C2,226.5,0.5,100,175.0
1358,C2,226.5,0.5,100,175.0
1359,C2,226.5,0.5,100,175.0
1360,F3,226.531,0.5,100,175.0
1361,B-2,226.531,0.5,100,175.0
1362,G4,227.0,1.0,100,175.0
1363,G4,227.0,1.0,100,175.0
1364,G2,227.0,0.5,100,175.0
1365,B3,227.0,1.0,100,175.0
1366,B-2,227.0,1.0,100,175.0
1367,B-2,227.0,1.0,100,175.0
1368,G#2,227.0,1.0,100,175.0
1369,G#2,227.0,1.0,100,175.0
1370,G#2,227.0,1.0,100,175.0
1371,E2,227.0,0.5,100,175.0
1372,E2,227.0,0.5,100,175.0
1373,E2,227.0,0.5,100,175.0
1374,F3,227.031,0.5,100,175.0
1375,B-2,227.031,0.5,100,175.0
1376,G#2,227.5,0.5,100,175.0
1377,F3,227.531,0.469,100,175.0
1378,B-2,227.531,0.469,100,175.0
1379,G4,228.0,2.0,100,175.0
1380,G4,228.0,2.0,100,175.0
1381,G#2,228.0,1.0,100,175.0
1382,F3,228.0,0.031,100,175.0
1383,B-2,228.0,0.031,100,175.0
1384,C2,228.0,0.5,100,175.0
1385,E2,228.0,0.5,100,175.0
1386,G2,228.5,0.5,100,175.0
1387,C2,228.5,0.5,100,175.0
1388,E2,228.5,0.5,100,175.0
1389,G#2,229.0,1.0,100,175.0
1390,G#2,229.0,0.5,100,175.0
1391,C2,229.5,0.5,100,175.0
1392,E2,229.5,0.5,100,175.0
1393,F4,230.0,2.0,100,175.0
1394,F4,230.0,2.0,100,175.0
1395,G#2,230.0,1.0,100,175.0
1396,B-2,230.0,0.5,100,175.0
1397,C2,230.0,0.5,100,175.0
1398,E2,230.0,0.5,100,175.0
1399,F2,230.25,167/1000,100,175.0
1400,D2,230.25,167/1000,100,175.0
1401,B-2,230.5,0.5,100,175.0
1402,E2,230.5,0.5,100,175.0
1403,C2,230.5,0.5,100,175.0
1404,D2,230.75,167/1000,100,175.0
1405,G#2,231.0,1.0,100,175.0
1406,B-2,231.0,0.5,100,175.0
1407,E2,231.0,0.5,100,175.0
1408,C2,231.0,0.5,100,175.0
1409,D2,231.25,167/1000,100,175.0
1410,A2,231.5,167/1000,100,175.0
1411,B-2,231.5,0.5,100,175.0
1412,E2,231.5,417/1000,100,175.0
1413,C2,231.5,417/1000,100,175.0
1414,D2,231.75,167/1000,100,175.0
1415,B2,231.75,167/1000,100,175.0
1416,C2,231.75,0.25,100,175.0
1417,E2,231.75,0.25,100,175.0
1418,G2,232.0,0.5,100,175.0
1419,A2,232.0,1333/1000,100,175.0
1420,D2,232.0,1333/1000,100,175.0
1421,C2,232.0,1.0,100,175.0
1422,B-2,232.0,1.0,100,175.0
1423,G#2,232.5,0.5,100,175.0
1424,E2,233.0,333/1000,100,175.0
1425,E2,233.0,667/1000,100,175.0
1426,B-2,233.0,1.0,100,175.0
1427,A2,233.25,1333/1000,100,175.0
1428,D2,233.25,1333/1000,100,175.0
1429,G2,233.5,0.5,100,175.0
1430,G#2,234.0,0.5,100,175.0
1431,C2,234.0,1.0,100,175.0
1432,B-2,234.0,1.0,100,175.0
1433,G2,235.0,0.5,100,175.0
1434,D2,235.0,1.0,100,175.0
1435,B-2,235.0,1.0,100,175.0
1436,G#2,235.5,0.5,100,175.0
1437,G2,236.0,0.5,100,175.0
1438,D3,236.0,0.5,100,175.0
1439,C2,236.0,1.0,100,175.0
1440,B-2,236.0,1.0,100,175.0
1441,C2,236.0,1.0,100,175.0
1442,B-2,236.0,1.0,100,175.0
1443,G2,236.5,0.5,100,175.0
1444,G#2,236.5,0.5,100,175.0
1445,E-3,236.5,0.5,100,175.0
1446,E2,237.0,667/1000,100,175.0
1447,G#2,237.0,0.5,100,175.0
1448,B-2,237.0,1.0,100,175.0
1449,B-2,237.0,1.0,100,175.0
1450,G2,237.5,0.5,100,175.0
1451,D3,237.5,0.5,100,175.0
1452,B-2,238.0,0.5,100,175.0
1453,G#2,238.0,0.5,100,175.0
1454,E-3,238.0,0.5,100,175.0
1455,C2,238.0,1.0,100,175.0
1456,B-2,238.0,1.0,100,175.0
1457,C2,238.0,1.0,100,175.0
1458,B-2,238.0,1.0,100,175.0
1459,B-2,238.5,0.5,100,175.0
1460,B-2,239.0,0.5,100,175.0
1461,G2,239.0,0.5,100,175.0
1462,D3,239.0,0.5,100,175.0
1463,D2,239.0,1.0,100,175.0
1464,B-2,239.0,1.0,100,175.0
1465,D2,239.0,1.0,100,175.0
1466,B-2,239.0,1.0,100,175.0
1467,B-2,239.5,0.5,100,175.0
1468,G#2,239.5,0.5,100,175.0
1469,E-3,239.5,0.5,100,175.0
1470,G2,240.0,0.5,100,175.0
1471,A2,240.0,1333/1000,100,175.0
1472,D2,240.0,1333/1000,100,175.0
1473,C2,240.0,1.0,100,175.0
1474,B-2,240.0,1.0,100,175.0
1475,G#2,240.5,0.5,100,175.0
1476,G2,240.5,0.5,100,175.0
1477,D3,240.5,0.5,100,175.0
1478,E2,241.0,333/1000,100,175.0
1479,E2,241.0,667/1000,100,175.0
1480,B-2,241.0,1.0,100,175.0
1481,G#2,241.0,0.5,100,175.0
1482,E-3,241.0,0.5,100,175.0
1483,A2,241.25,1333/1000,100,175.0
1484,D2,241.25,1333/1000,100,175.0
1485,G2,241.5,0.5,100,175.0
1486,G#2,242.0,0.5,100,175.0
1487,B-2,242.0,0.5,100,175.0
1488,F3,242.0,0.5,100,175.0
1489,C2,242.0,1.0,100,175.0
1490,B-2,242.0,1.0,100,175.0
1491,B-2,242.5,0.5,100,175.0
1492,F3,242.5,0.5,100,175.0
1493,G2,243.0,0.5,100,175.0
1494,B-2,243.0,0.5,100,175.0
1495,F3,243.0,0.5,100,175.0
1496,D2,243.0,1.0,100,175.0
1497,B-2,243.0,1.0,100,175.0
1498,G#2,243.5,0.5,100,175.0
1499,B-2,243.5,0.5,100,175.0
1500,F3,243.5,0.5,100,175.0
1501,G2,244.0,0.5,100,175.0
1502,D3,244.0,0.5,100,175.0
1503,C2,244.0,1.0,100,175.0
1504,B-2,244.0,1.0,100,175.0
1505,C2,244.0,1.0,100,175.0
1506,B-2,244.0,1.0,100,175.0
1507,G2,244.5,0.5,100,175.0
1508,G#2,244.5,0.5,100,175.0
1509,E-3,244.5,0.5,100,175.0
1510,E2,245.0,667/1000,100,175.0
1511,G#2,245.0,0.5,100,175.0
1512,B-2,245.0,1.0,100,175.0
1513,B-2,245.0,1.0,100,175.0
1514,G2,245.5,0.5,100,175.0
1515,D3,245.5,0.5,100,175.0
1516,B-2,246.0,0.5,100,175.0
1517,G#2,246.0,0.5,100,175.0
1518,E-3,246.0,0.5,100,175.0
1519,C2,246.0,1.0,100,175.0
1520,B-2,246.0,1.0,100,175.0
1521,C2,246.0,1.0,100,175.0
1522,B-2,246.0,1.0,100,175.0
1523,B-2,246.5,0.5,100,175.0
1524,B-2,247.0,0.5,100,175.0
1525,G2,247.0,0.5,100,175.0
1526,D3,247.0,0.5,100,175.0
1527,D2,247.0,1.0,100,175.0
1528,B-2,247.0,1.0,100,175.0
1529,D2,247.0,1.0,100,175.0
1530,B-2,247.0,1.0,100,175.0
1531,B-2,247.5,0.5,100,175.0
1532,G#2,247.5,0.5,100,175.0
1533,E-3,247.5,0.5,100,175.0
1534,D5,248.0,4.0,100,175.0
1535,D3,248.0,4.0,100,175.0
1536,C2,248.0,1.0,100,175.0
1537,B-2,248.0,1.0,100,175.0
1538,A3,248.0,1.0,100,175.0
1539,G2,248.5,0.5,100,175.0
1540,D3,248.5,0.5,100,175.0
1541,G#2,249.0,0.5,100,175.0
1542,E-3,249.0,0.5,100,175.0
1543,D2,249.0,1.0,100,175.0
1544,B-2,249.0,1.0,100,175.0
1545,B-2,250.0,0.5,100,175.0
1546,F3,250.0,0.5,100,175.0
1547,C2,250.0,1.0,100,175.0
1548,B-2,250.0,1.0,100,175.0
1549,B-2,250.5,0.5,100,175.0
1550,F3,250.5,0.5,100,175.0
1551,B-2,251.0,0.5,100,175.0
1552,F3,251.0,0.5,100,175.0
1553,D2,251.0,1.0,100,175.0
1554,B-2,251.0,1.0,100,175.0
1555,B-2,251.5,0.5,100,175.0
1556,F3,251.5,0.5,100,175.0
1557,C#5,252.0,2.0,100,175.0
1558,C#3,252.0,2.0,100,175.0
1559,D3,252.0,4.0,100,175.0
1560,A3,252.0,4.0,100,175.0
1561,C2,252.0,1.0,100,175.0
1562,B-2,252.0,1.0,100,175.0
1563,A3,252.0,1.0,100,175.0
1564,D2,253.0,1.0,100,175.0
1565,B-2,253.0,1.0,100,175.0
1566,B-4,254.0,2.0,100,175.0
1567,B-2,254.0,2.0,100,175.0
1568,C2,254.0,1.0,100,175.0
1569,B-2,254.0,1.0,100,175.0
1570,A3,254.0,1.0,100,175.0
1571,D2,255.0,1.0,100,175.0
1572,B-2,255.0,1.0,100,175.0
1573,G2,256.0,0.5,100,175.0
1574,C#3,256.0,2.0,100,175.0
1575,G#3,256.0,2.0,100,175.0
1576,C2,256.0,1.0,100,175.0
1577,B-2,256.0,1.0,100,175.0
1578,C2,256.0,1.0,100,175.0
1579,B-2,256.0,1.0,100,175.0
1580,G#2,256.5,0.5,100,175.0
1581,E2,257.0,667/1000,100,175.0
1582,B-2,257.0,1.0,100,175.0
1583,B-2,257.0,1.0,100,175.0
1584,G2,257.5,0.5,100,175.0
1585,G#2,258.0,0.5,100,175.0
1586,B-2,258.0,2.0,100,175.0
1587,F3,258.0,2.0,100,175.0
1588,C2,258.0,1.0,100,175.0
1589,B-2,258.0,1.0,100,175.0
1590,C2,258.0,1.0,100,175.0
1591,B-2,258.0,1.0,100,175.0
1592,G2,259.0,0.5,100,175.0
1593,D2,259.0,1.0,100,175.0
1594,B-2,259.0,1.0,100,175.0
1595,D2,259.0,1.0,100,175.0
1596,B-2,259.0,1.0,100,175.0
1597,G#2,259.5,0.5,100,175.0
1598,G2,260.0,0.5,100,175.0
1599,D3,260.0,0.5,100,175.0
1600,C2,260.0,1.0,100,175.0
1601,B-2,260.0,1.0,100,175.0
1602,C2,260.0,1.0,100,175.0
1603,B-2,260.0,1.0,100,175.0
1604,G2,260.5,0.5,100,175.0
1605,G#2,260.5,0.5,100,175.0
1606,E-3,260.5,0.5,100,175.0
1607,E2,261.0,667/1000,100,175.0
1608,G#2,261.0,0.5,100,175.0
1609,B-2,261.0,1.0,100,175.0
1610,B-2,261.0,1.0,100,175.0
1611,G2,261.5,0.5,100,175.0
1612,D3,261.5,0.5,100,175.0
1613,B-2,262.0,0.5,100,175.0
1614,G#2,262.0,0.5,100,175.0
1615,E-3,262.0,0.5,100,175.0
1616,C2,262.0,1.0,100,175.0
1617,B-2,262.0,1.0,100,175.0
1618,C2,262.0,1.0,100,175.0
1619,B-2,262.0,1.0,100,175.0
1620,B-2,262.5,0.5,100,175.0
1621,B-2,263.0,0.5,100,175.0
1622,G2,263.0,0.5,100,175.0
1623,D3,263.0,0.5,100,175.0
1624,D2,263.0,1.0,100,175.0
1625,B-2,263.0,1.0,100,175.0
1626,D2,263.0,1.0,100,175.0
1627,B-2,263.0,1.0,100,175.0
1628,B-2,263.5,0.5,100,175.0
1629,G#2,263.5,0.5,100,175.0
1630,E-3,263.5,0.5,100,175.0
1631,G2,264.0,0.5,100,175.0
1632,A2,264.0,1333/1000,100,175.0
1633,D2,264.0,1333/1000,100,175.0
1634,C2,264.0,1.0,100,175.0
1635,B-2,264.0,1.0,100,175.0
1636,G#2,264.5,0.5,100,175.0
1637,G2,264.5,0.5,100,175.0
1638,D3,264.5,0.5,100,175.0
1639,E2,265.0,333/1000,100,175.0
1640,E2,265.0,667/1000,100,175.0
1641,B-2,265.0,1.0,100,175.0
1642,G#2,265.0,0.5,100,175.0
1643,E-3,265.0,0.5,100,175.0
1644,A2,265.25,1333/1000,100,175.0
1645,D2,265.25,1333/1000,100,175.0
1646,G2,265.5,0.5,100,175.0
1647,G#2,266.0,0.5,100,175.0
1648,B-2,266.0,0.5,100,175.0
1649,F3,266.0,0.5,100,175.0
1650,C2,266.0,1.0,100,175.0
1651,B-2,266.0,1.0,100,175.0
1652,B-2,266.5,0.5,100,175.0
1653,F3,266.5,0.5,100,175.0
1654,G2,267.0,0.5,100,175.0
1655,B-2,267.0,0.5,100,175.0
1656,F3,267.0,0.5,100,175.0
1657,D2,267.0,1.0,100,175.0
1658,B-2,267.0,1.0,100,175.0
1659,G#2,267.5,0.5,100,175.0
1660,B-2,267.5,0.5,100,175.0
1661,F3,267.5,0.5,100,175.0
1662,G2,268.0,0.5,100,175.0
1663,D3,268.0,0.5,100,175.0
1664,C2,268.0,1.0,100,175.0
1665,B-2,268.0,1.0,100,175.0
1666,C2,268.0,1.0,100,175.0
1667,B-2,268.0,1.0,100,175.0
1668,G2,268.5,0.5,100,175.0
1669,G#2,268.5,0.5,100,175.0
1670,E-3,268.5,0.5,100,175.0
1671,E2,269.0,667/1000,100,175.0
1672,G#2,269.0,0.5,100,175.0
1673,B-2,269.0,1.0,100,175.0
1674,B-2,269.0,1.0,100,175.0
1675,G2,269.5,0.5,100,175.0
1676,D3,269.5,0.5,100,175.0
1677,B-2,270.0,0.5,100,175.0
1678,G#2,270.0,0.5,100,175.0
1679,E-3,270.0,0.5,100,175.0
1680,C2,270.0,1.0,100,175.0
1681,B-2,270.0,1.0,100,175.0
1682,C2,270.0,1.0,100,175.0
1683,B-2,270.0,1.0,100,175.0
1684,B-2,270.5,0.5,100,175.0
1685,B-2,271.0,0.5,100,175.0
1686,G2,271.0,0.5,100,175.0
1687,D3,271.0,0.5,100,175.0
1688,D2,271.0,1.0,100,175.0
1689,B-2,271.0,1.0,100,175.0
1690,D2,271.0,1.0,100,175.0
1691,B-2,271.0,1.0,100,175.0
1692,B-2,271.5,0.5,100,175.0
1693,G#2,271.5,0.5,100,175.0
1694,E-3,271.5,0.5,100,175.0
1695,G2,272.0,0.5,100,175.0
1696,A2,272.0,1333/1000,100,175.0
1697,D2,272.0,1333/1000,100,175.0
1698,C2,272.0,1.0,100,175.0
1699,B-2,272.0,1.0,100,175.0
1700,G#2,272.5,0.5,100,175.0
1701,G2,272.5,0.5,100,175.0
1702,D3,272.5,0.5,100,175.0
1703,E2,273.0,333/1000,100,175.0
1704,E2,273.0,667/1000,100,175.0
1705,B-2,273.0,1.0,100,175.0
1706,G#2,273.0,0.5,100,175.0
1707,E-3,273.0,0.5,100,175.0
1708,A2,273.25,1333/1000,100,175.0
1709,D2,273.25,1333/1000,100,175.0
1710,G2,273.5,0.5,100,175.0
1711,G#2,274.0,0.5,100,175.0
1712,B-2,274.0,0.5,100,175.0
1713,F3,274.0,0.5,100,175.0
1714,C2,274.0,1.0,100,175.0
1715,B-2,274.0,1.0,100,175.0
1716,B-2,274.5,0.5,100,175.0
1717,F3,274.5,0.5,100,175.0
1718,G2,275.0,0.5,100,175.0
1719,B-2,275.0,0.5,100,175.0
1720,F3,275.0,0.5,100,175.0
1721,D2,275.0,1.0,100,175.0
1722,B-2,275.0,1.0,100,175.0
1723,G#2,275.5,0.5,100,175.0
1724,B-2,275.5,0.5,100,175.0
1725,F3,275.5,0.5,100,175.0
1726,G2,276.0,0.5,100,175.0
1727,D3,276.0,0.5,100,175.0
1728,C2,276.0,1.0,100,175.0
1729,B-2,276.0,1.0,100,175.0
1730,C2,276.0,1.0,100,175.0
1731,B-2,276.0,1.0,100,175.0
1732,G2,276.5,0.5,100,175.0
1733,G#2,276.5,0.5,100,175.0
1734,E-3,276.5,0.5,100,175.0
1735,E2,277.0,667/1000,100,175.0
1736,G#2,277.0,0.5,100,175.0
1737,B-2,277.0,1.0,100,175.0
1738,B-2,277.0,1.0,100,175.0
1739,G2,277.5,0.5,100,175.0
1740,D3,277.5,0.5,100,175.0
1741,B-2,278.0,0.5,100,175.0
1742,G#2,278.0,0.5,100,175.0
1743,E-3,278.0,0.5,100,175.0
1744,C2,278.0,1.0,100,175.0
1745,B-2,278.0,1.0,100,175.0
1746,C2,278.0,1.0,100,175.0
1747,B-2,278.0,1.0,100,175.0
1748,B-2,278.5,0.5,100,175.0
1749,B-2,279.0,0.5,100,175.0
1750,G2,279.0,0.5,100,175.0
1751,D3,279.0,0.5,100,175.0
1752,D2,279.0,1.0,100,175.0
1753,B-2,279.0,1.0,100,175.0
1754,D2,279.0,1.0,100,175.0
1755,B-2,279.0,1.0,100,175.0
1756,B-2,279.5,0.5,100,175.0
1757,G#2,279.5,0.5,100,175.0
1758,E-3,279.5,0.5,100,175.0
1759,D5,280.0,4.0,100,175.0
1760,F3,280.0,333/1000,100,175.0
1761,D3,280.0,4.0,100,175.0
1762,C2,280.0,1.0,100,175.0
1763,B-2,280.0,1.0,100,175.0
1764,G2,280.5,0.5,100,175.0
1765,D3,280.5,0.5,100,175.0
1766,E2,281.0,667/1000,100,175.0
1767,B-2,281.0,1.0,100,175.0
1768,G#2,281.0,0.5,100,175.0
1769,E-3,281.0,0.5,100,175.0
1770,B-2,282.0,0.5,100,175.0
1771,F3,282.0,0.5,100,175.0
1772,C2,282.0,1.0,100,175.0
1773,B-2,282.0,1.0,100,175.0
1774,B-2,282.5,0.5,100,175.0
1775,F3,282.5,0.5,100,175.0
1776,B-2,283.0,0.5,100,175.0
1777,F3,283.0,0.5,100,175.0
1778,D2,283.0,1.0,100,175.0
1779,B-2,283.0,1.0,100,175.0
1780,B-2,283.5,0.5,100,175.0
1781,F3,283.5,0.5,100,175.0
1782,C#5,284.0,2.0,100,175.0
1783,C#3,284.0,2.0,100,175.0
1784,D3,284.0,4.0,100,175.0
1785,A3,284.0,4.0,100,175.0
1786,C2,284.0,1.0,100,175.0
1787,B-2,284.0,1.0,100,175.0
1788,C2,284.0,1.0,100,175.0
1789,B-2,284.0,1.0,100,175.0
1790,E2,285.0,667/1000,100,175.0
1791,B-2,285.0,1.0,100,175.0
1792,B-2,285.0,1.0,100,175.0
1793,B-4,286.0,2.0,100,175.0
1794,B-2,286.0,2.0,100,175.0
1795,C2,286.0,1.0,100,175.0
1796,B-2,286.0,1.0,100,175.0
1797,C2,286.0,1.0,100,175.0
1798,B-2,286.0,1.0,100,175.0
1799,D2,287.0,1.0,100,175.0
1800,B-2,287.0,1.0,100,175.0
1801,D2,287.0,1.0,100,175.0
1802,B-2,287.0,1.0,100,175.0
1803,G2,288.0,0.5,100,175.0
1804,C#3,288.0,2.0,100,175.0
1805,G#3,288.0,2.0,100,175.0
1806,C2,288.0,1.0,100,175.0
1807,B-2,288.0,1.0,100,175.0
1808,C2,288.0,1.0,100,175.0
1809,B-2,288.0,1.0,100,175.0
1810,G#2,288.5,0.5,100,175.0
1811,E2,289.0,667/1000,100,175.0
1812,B-2,289.0,1.0,100,175.0
1813,B-2,289.0,1.0,100,175.0
1814,G2,289.5,0.5,100,175.0
1815,G#2,290.0,0.5,100,175.0
1816,B-2,290.0,2.0,100,175.0
1817,F3,290.0,2.0,100,175.0
1818,C2,290.0,1.0,100,175.0
1819,B-2,290.0,1.0,100,175.0
1820,C2,290.0,1.0,100,175.0
1821,B-2,290.0,1.0,100,175.0
1822,G2,291.0,0.5,100,175.0
1823,D2,291.0,1.0,100,175.0
1824,B-2,291.0,1.0,100,175.0
1825,D2,291.0,1.0,100,175.0
1826,B-2,291.0,1.0,100,175.0
1827,G#2,291.5,0.5,100,175.0
1828,G2,292.0,0.5,100,175.0
1829,D3,292.0,0.5,100,175.0
1830,C2,292.0,1.0,100,175.0
1831,B-2,292.0,1.0,100,175.0
1832,C2,292.0,1.0,100,175.0
1833,B-2,292.0,1.0,100,175.0
1834,G2,292.5,0.5,100,175.0
1835,G#2,292.5,0.5,100,175.0
1836,E-3,292.5,0.5,100,175.0
1837,E2,293.0,667/1000,100,175.0
1838,G#2,293.0,0.5,100,175.0
1839,B-2,293.0,1.0,100,175.0
1840,B-2,293.0,1.0,100,175.0
1841,G2,293.5,0.5,100,175.0
1842,D3,293.5,0.5,100,175.0
1843,B-2,294.0,0.5,100,175.0
1844,G#2,294.0,0.5,100,175.0
1845,E-3,294.0,0.5,100,175.0
1846,C2,294.0,1.0,100,175.0
1847,B-2,294.0,1.0,100,175.0
1848,C2,294.0,1.0,100,175.0
1849,B-2,294.0,1.0,100,175.0
1850,B-2,294.5,0.5,100,175.0
1851,B-2,295.0,0.5,100,175.0
1852,G2,295.0,0.5,100,175.0
1853,D3,295.0,0.5,100,175.0
1854,D2,295.0,1.0,100,175.0
1855,B-2,295.0,1.0,100,175.0
1856,D2,295.0,1.0,100,175.0
1857,B-2,295.0,1.0,100,175.0
1858,B-2,295.5,0.5,100,175.0
1859,G#2,295.5,0.5,100,175.0
1860,E-3,295.5,0.5,100,175.0
1861,F5,296.0,333/1000,100,175.0
1862,G2,296.0,0.5,100,175.0
1863,C2,296.0,1.0,100,175.0
1864,B-2,296.0,1.0,100,175.0
1865,C2,296.0,1.0,100,175.0
1866,B-2,296.0,1.0,100,175.0
1867,F5,296.5,333/1000,100,175.0
1868,G#2,296.5,0.5,100,175.0
1869,G2,296.5,0.5,100,175.0
1870,D3,296.5,0.5,100,175.0
1871,E2,297.0,667/1000,100,175.0
1872,F5,297.0,333/1000,100,175.0
1873,G#2,297.0,0.5,100,175.0
1874,E-3,297.0,0.5,100,175.0
1875,B-2,297.0,1.0,100,175.0
1876,B-2,297.0,1.0,100,175.0
1877,F5,297.5,333/1000,100,175.0
1878,G2,297.5,0.5,100,175.0
1879,F5,297.75,167/1000,100,175.0
1880,G#2,298.0,0.5,100,175.0
1881,B-2,298.0,0.5,100,175.0
1882,F3,298.0,0.5,100,175.0
1883,C2,298.0,1.0,100,175.0
1884,B-2,298.0,1.0,100,175.0
1885,C2,298.0,1.0,100,175.0
1886,B-2,298.0,1.0,100,175.0
1887,F5,298.0,167/1000,100,175.0
1888,F5,298.0,167/1000,100,175.0
1889,F5,298.25,167/1000,100,175.0
1890,F5,298.5,167/1000,100,175.0
1891,B-2,298.5,0.5,100,175.0
1892,F3,298.5,0.5,100,175.0
1893,F5,298.75,167/1000,100,175.0
1894,G2,299.0,0.5,100,175.0
1895,B-2,299.0,0.5,100,175.0
1896,F3,299.0,0.5,100,175.0
1897,D2,299.0,1.0,100,175.0
1898,B-2,299.0,1.0,100,175.0
1899,D2,299.0,1.0,100,175.0
1900,B-2,299.0,1.0,100,175.0
1901,F5,299.0,167/1000,100,175.0
1902,F5,299.0,167/1000,100,175.0
1903,F5,299.25,167/1000,100,175.0
1904,F5,299.5,167/1000,100,175.0
1905,G#2,299.5,0.5,100,175.0
1906,B-2,299.5,0.5,100,175.0
1907,F3,299.5,0.5,100,175.0
1908,F5,299.75,167/1000,100,175.0
1909,F5,300.0,167/1000,100,175.0
1910,G2,300.0,0.5,100,175.0
1911,D3,300.0,0.5,100,175.0
1912,C2,300.0,1.0,100,175.0
1913,B-2,300.0,1.0,100,175.0
1914,C2,300.0,1.0,100,175.0
1915,B-2,300.0,1.0,100,175.0
1916,F5,300.25,167/1000,100,175.0
1917,F5,300.5,167/1000,100,175.0
1918,G2,300.5,0.5,100,175.0
1919,G#2,300.5,0.5,100,175.0
1920,E-3,300.5,0.5,100,175.0
1921,F5,300.75,167/1000,100,175.0
1922,E2,301.0,667/1000,100,175.0
1923,F5,301.0,167/1000,100,175.0
1924,G#2,301.0,0.5,100,175.0
1925,B-2,301.0,1.0,100,175.0
1926,B-2,301.0,1.0,100,175.0
1927,F5,301.25,167/1000,100,175.0
1928,F5,301.5,167/1000,100,175.0
1929,G2,301.5,0.5,100,175.0
1930,D3,301.5,0.5,100,175.0
1931,F5,301.75,167/1000,100,175.0
1932,F5,302.0,167/1000,100,175.0
1933,B-2,302.0,0.5,100,175.0
1934,G#2,302.0,0.5,100,175.0
1935,E-3,302.0,0.5,100,175.0
1936,C2,302.0,1.0,100,175.0
1937,B-2,302.0,1.0,100,175.0
1938,C2,302.0,1.0,100,175.0
1939,B-2,302.0,1.0,100,175.0
1940,F5,302.25,167/1000,100,175.0
1941,F5,302.5,167/1000,100,175.0
1942,B-2,302.5,0.5,100,175.0
1943,F5,302.75,167/1000,100,175.0
1944,F5,303.0,167/1000,100,175.0
1945,B-2,303.0,0.5,100,175.0
1946,G2,303.0,0.5,100,175.0
1947,D3,303.0,0.5,100,175.0
1948,D2,303.0,1.0,100,175.0
1949,B-2,303.0,1.0,100,175.0
1950,D2,303.0,1.0,100,175.0
1951,B-2,303.0,1.0,100,175.0
1952,F5,303.25,167/1000,100,175.0
1953,F5,303.5,167/1000,100,175.0
1954,B-2,303.5,0.5,100,175.0
1955,G#2,303.5,0.5,100,175.0
1956,E-3,303.5,0.5,100,175.0
1957,F5,303.75,167/1000,100,175.0
1958,F5,304.0,167/1000,100,175.0
1959,G2,304.0,0.5,100,175.0
1960,C2,304.0,1.0,100,175.0
1961,B-2,304.0,1.0,100,175.0
1962,C2,304.0,1.0,100,175.0
1963,B-2,304.0,1.0,100,175.0
1964,F5,304.25,167/1000,100,175.0
1965,F5,304.5,167/1000,100,175.0
1966,G#2,304.5,0.5,100,175.0
1967,G2,304.5,0.5,100,175.0
1968,D3,304.5,0.5,100,175.0
1969,F5,304.75,167/1000,100,175.0
1970,E2,305.0,667/1000,100,175.0
1971,F5,305.0,167/1000,100,175.0
1972,G#2,305.0,0.5,100,175.0
1973,E-3,305.0,0.5,100,175.0
1974,B-2,305.0,1.0,100,175.0
1975,B-2,305.0,1.0,100,175.0
1976,F5,305.25,167/1000,100,175.0
1977,F5,305.5,167/1000,100,175.0
1978,G2,305.5,0.5,100,175.0
1979,F5,305.75,167/1000,100,175.0
1980,F5,306.0,167/1000,100,175.0
1981,G#2,306.0,0.5,100,175.0
1982,B-2,306.0,0.5,100,175.0
1983,F3,306.0,0.5,100,175.0
1984,C2,306.0,1.0,100,175.0
1985,B-2,306.0,1.0,100,175.0
1986,C2,306.0,1.0,100,175.0
1987,B-2,306.0,1.0,100,175.0
1988,F5,306.25,167/1000,100,175.0
1989,F5,306.5,167/1000,100,175.0
1990,B-2,306.5,0.5,100,175.0
1991,F3,306.5,0.5,100,175.0
1992,F5,306.75,167/1000,100,175.0
1993,F5,307.0,167/1000,100,175.0
1994,G2,307.0,0.5,100,175.0
1995,B-2,307.0,0.5,100,175.0
1996,F3,307.0,0.5,100,175.0
1997,D2,307.0,1.0,100,175.0
1998,B-2,307.0,1.0,100,175.0
1999,D2,307.0,1.0,100,175.0
2000,B-2,307.0,1.0,100,175.0
2001,F5,307.25,167/1000,100,175.0
2002,F5,307.5,167/1000,100,175.0
2003,G#2,307.5,0.5,100,175.0
2004,B-2,307.5,0.5,100,175.0
2005,F3,307.5,0.5,100,175.0
2006,F5,307.75,167/1000,100,175.0
2007,F5,308.0,167/1000,100,175.0
2008,G2,308.0,0.5,100,175.0
2009,D3,308.0,0.5,100,175.0
2010,C2,308.0,1.0,100,175.0
2011,B-2,308.0,1.0,100,175.0
2012,C2,308.0,1.0,100,175.0
2013,B-2,308.0,1.0,100,175.0
2014,F5,308.25,167/1000,100,175.0
2015,F5,308.5,167/1000,100,175.0
2016,G2,308.5,0.5,100,175.0
2017,G#2,308.5,0.5,100,175.0
2018,E-3,308.5,0.5,100,175.0
2019,F5,308.75,167/1000,100,175.0
2020,E2,309.0,667/1000,100,175.0
2021,F5,309.0,167/1000,100,175.0
2022,G#2,309.0,0.5,100,175.0
2023,B-2,309.0,1.0,100,175.0
2024,B-2,309.0,1.0,100,175.0
2025,F5,309.25,167/1000,100,175.0
2026,F5,309.5,167/1000,100,175.0
2027,G2,309.5,0.5,100,175.0
2028,D3,309.5,0.5,100,175.0
2029,F5,309.75,167/1000,100,175.0
2030,F5,310.0,167/1000,100,175.0
2031,B-2,310.0,0.5,100,175.0
2032,G#2,310.0,0.5,100,175.0
2033,E-3,310.0,0.5,100,175.0
2034,C2,310.0,1.0,100,175.0
2035,B-2,310.0,1.0,100,175.0
2036,C2,310.0,1.0,100,175.0
2037,B-2,310.0,1.0,100,175.0
2038,F5,310.25,167/1000,100,175.0
2039,F5,310.5,167/1000,100,175.0
2040,B-2,310.5,0.5,100,175.0
2041,F5,310.75,167/1000,100,175.0
2042,F5,311.0,167/1000,100,175.0
2043,B-2,311.0,0.5,100,175.0
2044,G2,311.0,0.5,100,175.0
2045,D3,311.0,0.5,100,175.0
2046,D2,311.0,1.0,100,175.0
2047,B-2,311.0,1.0,100,175.0
2048,D2,311.0,1.0,100,175.0
2049,B-2,311.0,1.0,100,175.0
2050,F5,311.25,167/1000,100,175.0
2051,F5,311.5,167/1000,100,175.0
2052,B-2,311.5,0.5,100,175.0
2053,G#2,311.5,0.5,100,175.0
2054,E-3,311.5,0.5,100,175.0
2055,A5,311.75,167/1000,100,175.0
2056,D6,312.0,167/1000,100,175.0
2057,G2,312.0,0.5,100,175.0
2058,C2,312.0,1.0,100,175.0
2059,B-2,312.0,1.0,100,175.0
2060,C2,312.0,1.0,100,175.0
2061,B-2,312.0,1.0,100,175.0
2062,D6,312.25,167/1000,100,175.0
2063,D6,312.5,167/1000,100,175.0
2064,G#2,312.5,0.5,100,175.0
2065,G2,312.5,0.5,100,175.0
2066,D3,312.5,0.5,100,175.0
2067,D6,312.75,167/1000,100,175.0
2068,E2,313.0,667/1000,100,175.0
2069,D6,313.0,167/1000,100,175.0
2070,G#2,313.0,0.5,100,175.0
2071,E-3,313.0,0.5,100,175.0
2072,B-2,313.0,1.0,100,175.0
2073,B-2,313.0,1.0,100,175.0
2074,D6,313.25,167/1000,100,175.0
2075,D6,313.5,167/1000,100,175.0
2076,G2,313.5,0.5,100,175.0
2077,D6,313.75,167/1000,100,175.0
2078,D6,314.0,167/1000,100,175.0
2079,G#2,314.0,0.5,100,175.0
2080,B-2,314.0,0.5,100,175.0
2081,F3,314.0,0.5,100,175.0
2082,C2,314.0,1.0,100,175.0
2083,B-2,314.0,1.0,100,175.0
2084,C2,314.0,1.0,100,175.0
2085,B-2,314.0,1.0,100,175.0
2086,D6,314.25,167/1000,100,175.0
2087,D6,314.5,167/1000,100,175.0
2088,B-2,314.5,0.5,100,175.0
2089,F3,314.5,0.5,100,175.0
2090,D6,314.75,167/1000,100,175.0
2091,D6,315.0,167/1000,100,175.0
2092,G2,315.0,0.5,100,175.0
2093,B-2,315.0,0.5,100,175.0
2094,F3,315.0,0.5,100,175.0
2095,D2,315.0,1.0,100,175.0
2096,B-2,315.0,1.0,100,175.0
2097,D2,315.0,1.0,100,175.0
2098,B-2,315.0,1.0,100,175.0
2099,D6,315.25,167/1000,100,175.0
2100,D6,315.5,167/1000,100,175.0
2101,G#2,315.5,0.5,100,175.0
2102,B-2,315.5,0.5,100,175.0
2103,F3,315.5,0.5,100,175.0
2104,D6,315.75,167/1000,100,175.0
2105,D6,316.0,167/1000,100,175.0
2106,G2,316.0,0.5,100,175.0
2107,D3,316.0,0.5,100,175.0
2108,C2,316.0,1.0,100,175.0
2109,B-2,316.0,1.0,100,175.0
2110,D6,316.25,167/1000,100,175.0
2111,D6,316.5,167/1000,100,175.0
2112,G2,316.5,0.5,100,175.0
2113,G#2,316.5,0.5,100,175.0
2114,E-3,316.5,0.5,100,175.0
2115,D6,316.75,167/1000,100,175.0
2116,E2,317.0,667/1000,100,175.0
2117,B-2,317.0,1.0,100,175.0
2118,D6,317.0,167/1000,100,175.0
2119,G#2,317.0,0.5,100,175.0
2120,D6,317.25,167/1000,100,175.0
2121,D6,317.5,167/1000,100,175.0
2122,G2,317.5,0.5,100,175.0
2123,D3,317.5,0.5,100,175.0
2124,D6,317.75,167/1000,100,175.0
2125,B-2,318.0,1.0,100,175.0
2126,C2,318.0,0.5,100,175.0
2127,D6,318.0,167/1000,100,175.0
2128,B-2,318.0,0.5,100,175.0
2129,G#2,318.0,0.5,100,175.0
2130,E-3,318.0,0.5,100,175.0
2131,D6,318.25,167/1000,100,175.0
2132,E3,318.25,167/1000,100,175.0
2133,G2,318.25,167/1000,100,175.0
2134,F3,318.5,167/1000,100,175.0
2135,E2,318.5,0.5,100,175.0
2136,D6,318.5,167/1000,100,175.0
2137,B-2,318.5,0.5,100,175.0
2138,G2,318.75,167/1000,100,175.0
2139,D6,318.75,167/1000,100,175.0
2140,B-2,319.0,1.0,100,175.0
2141,E2,319.0,0.5,100,175.0
2142,D6,319.0,167/1000,100,175.0
2143,B-2,319.0,0.5,100,175.0
2144,G2,319.0,0.5,100,175.0
2145,D3,319.0,0.5,100,175.0
2146,D6,319.25,167/1000,100,175.0
2147,A3,319.25,167/1000,100,175.0
2148,B2,319.25,167/1000,100,175.0
2149,G2,319.25,167/1000,100,175.0
2150,E2,319.5,0.5,100,175.0
2151,D6,319.5,167/1000,100,175.0
2152,B-2,319.5,0.5,100,175.0
2153,G#2,319.5,0.5,100,175.0
2154,E-3,319.5,0.5,100,175.0
2155,D2,319.75,167/1000,100,175.0
2156,C2,319.75,167/1000,100,175.0
2157,F2,319.75,167/1000,100,175.0
2158,D4,320.0,4.0,100,175.0
2159,D4,320.0,4.0,100,175.0
2160,G2,320.0,0.5,100,175.0
2161,B3,320.0,1.0,100,175.0
2162,B-2,320.0,1.0,100,175.0
2163,C2,320.0,1.0,100,175.0
2164,G#2,320.0,1.0,100,175.0
2165,G#2,320.0,1.0,100,175.0
2166,C2,320.0,1.0,100,175.0
2167,G#2,320.5,0.5,100,175.0
2168,G2,320.5,0.5,100,175.0
2169,D3,320.5,0.5,100,175.0
2170,G#2,321.0,0.5,100,175.0
2171,E-3,321.0,0.5,100,175.0
2172,B3,321.0,1.0,100,175.0
2173,B-2,321.0,1.0,100,175.0
2174,E2,321.0,1.0,100,175.0
2175,G#2,321.0,1.0,100,175.0
2176,G#2,321.0,1.0,100,175.0
2177,E2,321.0,1.0,100,175.0
2178,G2,321.5,0.5,100,175.0
2179,G#2,322.0,0.5,100,175.0
2180,B-2,322.0,0.5,100,175.0
2181,F3,322.0,0.5,100,175.0
2182,B3,322.0,1.0,100,175.0
2183,B-2,322.0,1.0,100,175.0
2184,G#2,322.0,1.0,100,175.0
2185,G#2,322.0,1.0,100,175.0
2186,B-2,322.5,0.5,100,175.0
2187,F3,322.5,0.5,100,175.0
2188,C2,322.5,0.5,100,175.0
2189,C2,322.5,0.5,100,175.0
2190,G2,323.0,0.5,100,175.0
2191,B-2,323.0,0.5,100,175.0
2192,F3,323.0,0.5,100,175.0
2193,B3,323.0,1.0,100,175.0
2194,B-2,323.0,1.0,100,175.0
2195,G#2,323.0,1.0,100,175.0
2196,G#2,323.0,1.0,100,175.0
2197,E2,323.0,0.5,100,175.0
2198,E2,323.0,0.5,100,175.0
2199,G#2,323.5,0.5,100,175.0
2200,B-2,323.5,0.5,100,175.0
2201,F3,323.5,0.5,100,175.0
2202,D4,324.0,4.0,100,175.0
2203,D4,324.0,4.0,100,175.0
2204,B3,324.0,1.0,100,175.0
2205,B-2,324.0,1.0,100,175.0
2206,B-2,324.0,1.0,100,175.0
2207,G#2,324.0,1.0,100,175.0
2208,C2,324.0,1.0,100,175.0
2209,G#2,324.0,1.0,100,175.0
2210,C2,324.0,1.0,100,175.0
2211,G2,324.5,0.5,100,175.0
2212,G#2,325.0,0.5,100,175.0
2213,B3,325.0,1.0,100,175.0
2214,B-2,325.0,1.0,100,175.0
2215,B-2,325.0,1.0,100,175.0
2216,G#2,325.0,1.0,100,175.0
2217,E2,325.0,1.0,100,175.0
2218,G#2,325.0,1.0,100,175.0
2219,E2,325.0,1.0,100,175.0
2220,B-2,326.0,0.5,100,175.0
2221,B3,326.0,1.0,100,175.0
2222,B-2,326.0,1.0,100,175.0
2223,B-2,326.0,1.0,100,175.0
2224,G#2,326.0,1.0,100,175.0
2225,G#2,326.0,1.0,100,175.0
2226,B-2,326.5,0.5,100,175.0
2227,C2,326.5,0.5,100,175.0
2228,C2,326.5,0.5,100,175.0
2229,B-2,327.0,0.5,100,175.0
2230,B3,327.0,1.0,100,175.0
2231,B-2,327.0,1.0,100,175.0
2232,B-2,327.0,1.0,100,175.0
2233,G#2,327.0,1.0,100,175.0
2234,G#2,327.0,1.0,100,175.0
2235,E2,327.0,0.5,100,175.0
2236,E2,327.0,0.5,100,175.0
2237,B-2,327.5,0.5,100,175.0
2238,C4,328.0,1.0,100,175.0
2239,C4,328.0,1.0,100,175.0
2240,G2,328.0,0.5,100,175.0
2241,B3,328.0,0.25,100,175.0
2242,B-2,328.0,0.25,100,175.0
2243,G#2,328.0,0.25,100,175.0
2244,B-2,328.0,0.25,100,175.0
2245,C2,328.0,1.0,100,175.0
2246,G#2,328.0,1.0,100,175.0
2247,B-2,328.0,1.0,100,175.0
2248,B3,328.0,1.0,100,175.0
2249,G#2,328.0,1.0,100,175.0
2250,C2,328.0,1.0,100,175.0
2251,G#2,328.5,0.5,100,175.0
2252,D4,329.0,1.0,100,175.0
2253,D4,329.0,1.0,100,175.0
2254,B3,329.0,1.0,100,175.0
2255,B-2,329.0,1.0,100,175.0
2256,E2,329.0,1.0,100,175.0
2257,G#2,329.0,1.0,100,175.0
2258,G#2,329.0,1.0,100,175.0
2259,E2,329.0,1.0,100,175.0
2260,G2,329.5,0.5,100,175.0
2261,E-4,330.0,1.0,100,175.0
2262,E-4,330.0,1.0,100,175.0
2263,G#2,330.0,0.5,100,175.0
2264,B3,330.0,1.0,100,175.0
2265,B-2,330.0,1.0,100,175.0
2266,G#2,330.0,1.0,100,175.0
2267,G#2,330.0,1.0,100,175.0
2268,C2,330.5,0.5,100,175.0
2269,C2,330.5,0.5,100,175.0
2270,D4,331.0,1.0,100,175.0
2271,D4,331.0,1.0,100,175.0
2272,G2,331.0,0.5,100,175.0
2273,B3,331.0,1.0,100,175.0
2274,B-2,331.0,1.0,100,175.0
2275,G#2,331.0,1.0,100,175.0
2276,G#2,331.0,1.0,100,175.0
2277,E2,331.0,0.5,100,175.0
2278,E2,331.0,0.5,100,175.0
2279,G#2,331.5,0.5,100,175.0
2280,D4,332.0,2.0,100,175.0
2281,D4,332.0,2.0,100,175.0
2282,B3,332.0,1.0,100,175.0
2283,B-2,332.0,1.0,100,175.0
2284,B-2,332.0,1.0,100,175.0
2285,G#2,332.0,1.0,100,175.0
2286,C2,332.0,1.0,100,175.0
2287,G#2,332.0,1.0,100,175.0
2288,C2,332.0,1.0,100,175.0
2289,G2,332.5,0.5,100,175.0
2290,G#2,333.0,0.5,100,175.0
2291,B3,333.0,1.0,100,175.0
2292,B-2,333.0,1.0,100,175.0
2293,B-2,333.0,1.0,100,175.0
2294,G#2,333.0,1.0,100,175.0
2295,E2,333.0,1.0,100,175.0
2296,G#2,333.0,1.0,100,175.0
2297,E2,333.0,1.0,100,175.0
2298,C4,334.0,2.0,100,175.0
2299,C4,334.0,2.0,100,175.0
2300,B-2,334.0,0.5,100,175.0
2301,B3,334.0,1.0,100,175.0
2302,B-2,334.0,1.0,100,175.0
2303,B-2,334.0,1.0,100,175.0
2304,G#2,334.0,1.0,100,175.0
2305,G#2,334.0,1.0,100,175.0
2306,B-2,334.5,0.5,100,175.0
2307,C2,334.5,0.5,100,175.0
2308,C2,334.5,0.5,100,175.0
2309,B-2,335.0,0.5,100,175.0
2310,B3,335.0,1.0,100,175.0
2311,B-2,335.0,1.0,100,175.0
2312,B-2,335.0,1.0,100,175.0
2313,G#2,335.0,1.0,100,175.0
2314,G#2,335.0,1.0,100,175.0
2315,E2,335.0,0.5,100,175.0
2316,E2,335.0,0.5,100,175.0
2317,B-2,335.5,0.5,100,175.0
2318,G4,336.0,4.0,100,175.0
2319,G4,336.0,4.0,100,175.0
2320,G2,336.0,0.5,100,175.0
2321,B3,336.0,1.0,100,175.0
2322,B-2,336.0,1.0,100,175.0
2323,C2,336.0,1.0,100,175.0
2324,G#2,336.0,1.0,100,175.0
2325,G#2,336.0,1.0,100,175.0
2326,C2,336.0,1.0,100,175.0
2327,G#2,336.5,0.5,100,175.0
2328,B3,337.0,1.0,100,175.0
2329,B-2,337.0,1.0,100,175.0
2330,E2,337.0,1.0,100,175.0
2331,G#2,337.0,1.0,100,175.0
2332,G#2,337.0,1.0,100,175.0
2333,E2,337.0,1.0,100,175.0
2334,G2,337.5,0.5,100,175.0
2335,G#2,338.0,0.5,100,175.0
2336,B3,338.0,1.0,100,175.0
2337,B-2,338.0,1.0,100,175.0
2338,G#2,338.0,1.0,100,175.0
2339,G#2,338.0,1.0,100,175.0
2340,C2,338.5,0.5,100,175.0
2341,C2,338.5,0.5,100,175.0
2342,G2,339.0,0.5,100,175.0
2343,B3,339.0,1.0,100,175.0
2344,B-2,339.0,1.0,100,175.0
2345,G#2,339.0,1.0,100,175.0
2346,G#2,339.0,1.0,100,175.0
2347,E2,339.0,0.5,100,175.0
2348,E2,339.0,0.5,100,175.0
2349,G#2,339.5,0.5,100,175.0
2350,G4,340.0,4.0,100,175.0
2351,G4,340.0,4.0,100,175.0
2352,B3,340.0,1.0,100,175.0
2353,B-2,340.0,1.0,100,175.0
2354,B-2,340.0,1.0,100,175.0
2355,G#2,340.0,1.0,100,175.0
2356,C2,340.0,1.0,100,175.0
2357,G#2,340.0,1.0,100,175.0
2358,C2,340.0,1.0,100,175.0
2359,G2,340.5,0.5,100,175.0
2360,G#2,341.0,0.5,100,175.0
2361,B3,341.0,1.0,100,175.0
2362,B-2,341.0,1.0,100,175.0
2363,B-2,341.0,1.0,100,175.0
2364,G#2,341.0,1.0,100,175.0
2365,E2,341.0,1.0,100,175.0
2366,G#2,341.0,1.0,100,175.0
2367,E2,341.0,1.0,100,175.0
2368,B3,342.0,667/1000,100,175.0
2369,B-2,342.0,0.5,100,175.0
2370,B-2,342.0,1.0,100,175.0
2371,B-2,342.0,1.0,100,175.0
2372,G#2,342.0,1.0,100,175.0
2373,G#2,342.0,1.0,100,175.0
2374,B-2,342.5,0.5,100,175.0
2375,B3,342.5,0.5,100,175.0
2376,C2,342.5,0.5,100,175.0
2377,C2,342.5,0.5,100,175.0
2378,B3,343.0,167/1000,100,175.0
2379,B-2,343.0,0.5,100,175.0
2380,B3,343.0,1.0,100,175.0
2381,B-2,343.0,1.0,100,175.0
2382,B-2,343.0,1.0,100,175.0
2383,G#2,343.0,1.0,100,175.0
2384,G#2,343.0,1.0,100,175.0
2385,E2,343.0,0.5,100,175.0
2386,E2,343.0,0.5,100,175.0
2387,B-2,343.5,0.5,100,175.0
2388,F4,344.0,1.0,100,175.0
2389,F4,344.0,1.0,100,175.0
2390,G2,344.0,0.5,100,175.0
2391,B3,344.0,1.0,100,175.0
2392,B-2,344.0,1.0,100,175.0
2393,C2,344.0,1.0,100,175.0
2394,G#2,344.0,1.0,100,175.0
2395,G#2,344.0,1.0,100,175.0
2396,C2,344.0,1.0,100,175.0
2397,G#2,344.0,1.0,100,175.0
2398,C2,344.0,1.0,100,175.0
2399,G#2,344.5,0.5,100,175.0
2400,G4,345.0,1.0,100,175.0
2401,G4,345.0,1.0,100,175.0
2402,B3,345.0,1.0,100,175.0
2403,B-2,345.0,1.0,100,175.0
2404,E2,345.0,1.0,100,175.0
2405,G#2,345.0,1.0,100,175.0
2406,G#2,345.0,1.0,100,175.0
2407,E2,345.0,1.0,100,175.0
2408,G#2,345.0,1.0,100,175.0
2409,E2,345.0,1.0,100,175.0
2410,G2,345.5,0.5,100,175.0
2411,G#4,346.0,1.0,100,175.0
2412,G#4,346.0,1.0,100,175.0
2413,G#2,346.0,0.5,100,175.0
2414,B3,346.0,1.0,100,175.0
2415,B-2,346.0,1.0,100,175.0
2416,G#2,346.0,1.0,100,175.0
2417,G#2,346.0,1.0,100,175.0
2418,G#2,346.0,1.0,100,175.0
2419,C2,346.5,0.5,100,175.0
2420,C2,346.5,0.5,100,175.0
2421,C2,346.5,0.5,100,175.0
2422,G4,347.0,1.0,100,175.0
2423,G4,347.0,1.0,100,175.0
2424,G2,347.0,0.5,100,175.0
2425,B3,347.0,1.0,100,175.0
2426,B-2,347.0,1.0,100,175.0
2427,G#2,347.0,1.0,100,175.0
2428,G#2,347.0,1.0,100,175.0
2429,G#2,347.0,1.0,100,175.0
2430,E2,347.0,0.5,100,175.0
2431,E2,347.0,0.5,100,175.0
2432,E2,347.0,0.5,100,175.0
2433,G#2,347.5,0.5,100,175.0
2434,G4,348.0,2.0,100,175.0
2435,G4,348.0,2.0,100,175.0
2436,B3,348.0,1.0,100,175.0
2437,B-2,348.0,1.0,100,175.0
2438,B-2,348.0,1.0,100,175.0
2439,G#2,348.0,1.0,100,175.0
2440,C2,348.0,1.0,100,175.0
2441,G#2,348.0,1.0,100,175.0
2442,C2,348.0,1.0,100,175.0
2443,G#2,348.0,1.0,100,175.0
2444,C2,348.0,1.0,100,175.0
2445,G2,348.5,0.5,100,175.0
2446,G#2,349.0,0.5,100,175.0
2447,B3,349.0,1.0,100,175.0
2448,B-2,349.0,1.0,100,175.0
2449,B-2,349.0,1.0,100,175.0
2450,G#2,349.0,1.0,100,175.0
2451,E2,349.0,1.0,100,175.0
2452,G#2,349.0,1.0,100,175.0
2453,E2,349.0,1.0,100,175.0
2454,G#2,349.0,1.0,100,175.0
2455,E2,349.0,1.0,100,175.0
2456,F4,350.0,2.0,100,175.0
2457,F4,350.0,2.0,100,175.0
2458,B3,350.0,417/1000,100,175.0
2459,B-2,350.0,0.5,100,175.0
2460,B-2,350.0,1.0,100,175.0
2461,B-2,350.0,1.0,100,175.0
2462,G#2,350.0,1.0,100,175.0
2463,G#2,350.0,1.0,100,175.0
2464,G#2,350.0,1.0,100,175.0
2465,B3,350.25,417/1000,100,175.0
2466,B3,350.5,417/1000,100,175.0
2467,B-2,350.5,0.5,100,175.0
2468,C2,350.5,0.5,100,175.0
2469,C2,350.5,0.5,100,175.0
2470,C2,350.5,0.5,100,175.0
2471,B3,350.75,0.25,100,175.0
2472,D3,350.75,167/1000,100,175.0
2473,B3,350.75,167/1000,100,175.0
2474,E3,351.0,167/1000,100,175.0
2475,B3,351.0,417/1000,100,175.0
2476,B-2,351.0,0.5,100,175.0
2477,B-2,351.0,1.0,100,175.0
2478,B-2,351.0,1.0,100,175.0
2479,G#2,351.0,1.0,100,175.0
2480,G#2,351.0,1.0,100,175.0
2481,G#2,351.0,1.0,100,175.0
2482,E2,351.0,0.5,100,175.0
2483,E2,351.0,0.5,100,175.0
2484,E2,351.0,0.5,100,175.0
2485,E3,351.25,167/1000,100,175.0
2486,B3,351.25,417/1000,100,175.0
2487,E3,351.5,167/1000,100,175.0
2488,B3,351.5,417/1000,100,175.0
2489,B-2,351.5,0.5,100,175.0
2490,E3,351.75,167/1000,100,175.0
2491,B3,351.75,0.25,100,175.0
2492,D4,352.0,4.0,100,175.0
2493,D4,352.0,4.0,100,175.0
2494,G2,352.0,0.5,100,175.0
2495,B3,352.0,1.0,100,175.0
2496,B-2,352.0,1.0,100,175.0
2497,C2,352.0,1.0,100,175.0
2498,G#2,352.0,1.0,100,175.0
2499,G#2,352.0,1.0,100,175.0
2500,C2,352.0,1.0,100,175.0
2501,G#2,352.0,1.0,100,175.0
2502,C2,352.0,1.0,100,175.0
2503,G#2,352.5,0.5,100,175.0
2504,B3,353.0,1.0,100,175.0
2505,B-2,353.0,1.0,100,175.0
2506,E2,353.0,1.0,100,175.0
2507,G#2,353.0,1.0,100,175.0
2508,G#2,353.0,1.0,100,175.0
2509,E2,353.0,1.0,100,175.0
2510,G#2,353.0,1.0,100,175.0
2511,E2,353.0,1.0,100,175.0
2512,G2,353.5,0.5,100,175.0
2513,G#2,354.0,0.5,100,175.0
2514,B3,354.0,1.0,100,175.0
2515,B-2,354.0,1.0,100,175.0
2516,G#2,354.0,1.0,100,175.0
2517,G#2,354.0,1.0,100,175.0
2518,G#2,354.0,1.0,100,175.0
2519,C2,354.5,0.5,100,175.0
2520,C2,354.5,0.5,100,175.0
2521,C2,354.5,0.5,100,175.0
2522,G2,355.0,0.5,100,175.0
2523,B3,355.0,1.0,100,175.0
2524,B-2,355.0,1.0,100,175.0
2525,G#2,355.0,1.0,100,175.0
2526,G#2,355.0,1.0,100,175.0
2527,G#2,355.0,1.0,100,175.0
2528,E2,355.0,0.5,100,175.0
2529,E2,355.0,0.5,100,175.0
2530,E2,355.0,0.5,100,175.0
2531,G#2,355.5,0.5,100,175.0
2532,D4,356.0,4.0,100,175.0
2533,D4,356.0,4.0,100,175.0
2534,B3,356.0,1.0,100,175.0
2535,B-2,356.0,1.0,100,175.0
2536,B-2,356.0,1.0,100,175.0
2537,G#2,356.0,1.0,100,175.0
2538,C2,356.0,1.0,100,175.0
2539,G#2,356.0,1.0,100,175.0
2540,C2,356.0,1.0,100,175.0
2541,G#2,356.0,1.0,100,175.0
2542,C2,356.0,1.0,100,175.0
2543,G2,356.5,0.5,100,175.0
2544,G#2,357.0,0.5,100,175.0
2545,B3,357.0,1.0,100,175.0
2546,B-2,357.0,1.0,100,175.0
2547,B-2,357.0,1.0,100,175.0
2548,G#2,357.0,1.0,100,175.0
2549,E2,357.0,1.0,100,175.0
2550,G#2,357.0,1.0,100,175.0
2551,E2,357.0,1.0,100,175.0
2552,G#2,357.0,1.0,100,175.0
2553,E2,357.0,1.0,100,175.0
2554,B-2,358.0,0.5,100,175.0
2555,B3,358.0,1.0,100,175.0
2556,B-2,358.0,1.0,100,175.0
2557,B-2,358.0,1.0,100,175.0
2558,G#2,358.0,1.0,100,175.0
2559,G#2,358.0,1.0,100,175.0
2560,G#2,358.0,1.0,100,175.0
2561,B-2,358.5,0.5,100,175.0
2562,C2,358.5,0.5,100,175.0
2563,C2,358.5,0.5,100,175.0
2564,C2,358.5,0.5,100,175.0
2565,B-2,359.0,0.5,100,175.0
2566,B3,359.0,1.0,100,175.0
2567,B-2,359.0,1.0,100,175.0
2568,B-2,359.0,1.0,100,175.0
2569,G#2,359.0,1.0,100,175.0
2570,G#2,359.0,1.0,100,175.0
2571,G#2,359.0,1.0,100,175.0
2572,E2,359.0,0.5,100,175.0
2573,E2,359.0,0.5,100,175.0
2574,E2,359.0,0.5,100,175.0
2575,B-2,359.5,0.5,100,175.0
2576,C4,360.0,1.0,100,175.0
2577,C4,360.0,1.0,100,175.0
2578,G2,360.0,0.5,100,175.0
2579,B3,360.0,1.0,100,175.0
2580,B-2,360.0,1.0,100,175.0
2581,C2,360.0,1.0,100,175.0
2582,G#2,360.0,1.0,100,175.0
2583,G#2,360.0,1.0,100,175.0
2584,C2,360.0,1.0,100,175.0
2585,G#2,360.0,1.0,100,175.0
2586,C2,360.0,1.0,100,175.0
2587,G#2,360.5,0.5,100,175.0
2588,D4,361.0,1.0,100,175.0
2589,D4,361.0,1.0,100,175.0
2590,B3,361.0,1.0,100,175.0
2591,B-2,361.0,1.0,100,175.0
2592,E2,361.0,1.0,100,175.0
2593,G#2,361.0,1.0,100,175.0
2594,G#2,361.0,1.0,100,175.0
2595,E2,361.0,1.0,100,175.0
2596,G#2,361.0,1.0,100,175.0
2597,E2,361.0,1.0,100,175.0
2598,G2,361.5,0.5,100,175.0
2599,E-4,362.0,1.0,100,175.0
2600,E-4,362.0,1.0,100,175.0
2601,G#2,362.0,0.5,100,175.0
2602,B-2,362.0,0.5,100,175.0
2603,F3,362.0,0.5,100,175.0
2604,B3,362.0,1.0,100,175.0
2605,B-2,362.0,1.0,100,175.0
2606,G#2,362.0,1.0,100,175.0
2607,G#2,362.0,1.0,100,175.0
2608,G#2,362.0,1.0,100,175.0
2609,B-2,362.5,0.5,100,175.0
2610,F3,362.5,0.5,100,175.0
2611,C2,362.5,0.5,100,175.0
2612,C2,362.5,0.5,100,175.0
2613,C2,362.5,0.5,100,175.0
2614,D4,363.0,1.0,100,175.0
2615,D4,363.0,1.0,100,175.0
2616,G2,363.0,0.5,100,175.0
2617,B-2,363.0,0.5,100,175.0
2618,F3,363.0,0.5,100,175.0
2619,B3,363.0,1.0,100,175.0
2620,B-2,363.0,1.0,100,175.0
2621,G#2,363.0,1.0,100,175.0
2622,G#2,363.0,1.0,100,175.0
2623,G#2,363.0,1.0,100,175.0
2624,E2,363.0,0.5,100,175.0
2625,E2,363.0,0.5,100,175.0
2626,E2,363.0,0.5,100,175.0
2627,G#2,363.5,0.5,100,175.0
2628,B-2,363.5,0.5,100,175.0
2629,F3,363.5,0.5,100,175.0
2630,D4,364.0,2.0,100,175.0
2631,D4,364.0,2.0,100,175.0
2632,B3,364.0,1.0,100,175.0
2633,B-2,364.0,1.0,100,175.0
2634,B-2,364.0,1.0,100,175.0
2635,G#2,364.0,1.0,100,175.0
2636,C2,364.0,1.0,100,175.0
2637,G#2,364.0,1.0,100,175.0
2638,C2,364.0,1.0,100,175.0
2639,G#2,364.0,1.0,100,175.0
2640,C2,364.0,1.0,100,175.0
2641,G2,364.5,0.5,100,175.0
2642,G#2,365.0,0.5,100,175.0
2643,B3,365.0,1.0,100,175.0
2644,B-2,365.0,1.0,100,175.0
2645,B-2,365.0,1.0,100,175.0
2646,G#2,365.0,1.0,100,175.0
2647,E2,365.0,1.0,100,175.0
2648,G#2,365.0,1.0,100,175.0
2649,E2,365.0,1.0,100,175.0
2650,G#2,365.0,1.0,100,175.0
2651,E2,365.0,1.0,100,175.0
2652,C4,366.0,2.0,100,175.0
2653,C4,366.0,2.0,100,175.0
2654,B-2,366.0,0.5,100,175.0
2655,B3,366.0,1.0,100,175.0
2656,B-2,366.0,1.0,100,175.0
2657,B-2,366.0,1.0,100,175.0
2658,G#2,366.0,1.0,100,175.0
2659,G#2,366.0,1.0,100,175.0
2660,G#2,366.0,1.0,100,175.0
2661,B-2,366.5,0.5,100,175.0
2662,C2,366.5,0.5,100,175.0
2663,C2,366.5,0.5,100,175.0
2664,C2,366.5,0.5,100,175.0
2665,B-2,367.0,0.5,100,175.0
2666,B3,367.0,1.0,100,175.0
2667,B-2,367.0,1.0,100,175.0
2668,B-2,367.0,1.0,100,175.0
2669,G#2,367.0,1.0,100,175.0
2670,G#2,367.0,1.0,100,175.0
2671,G#2,367.0,1.0,100,175.0
2672,E2,367.0,0.5,100,175.0
2673,E2,367.0,0.5,100,175.0
2674,E2,367.0,0.5,100,175.0
2675,B-2,367.5,0.5,100,175.0
2676,G4,368.0,4.0,100,175.0
2677,G4,368.0,4.0,100,175.0
2678,G2,368.0,0.5,100,175.0
2679,B3,368.0,1.0,100,175.0
2680,B-2,368.0,1.0,100,175.0
2681,C2,368.0,1.0,100,175.0
2682,G#2,368.0,1.0,100,175.0
2683,G#2,368.0,1.0,100,175.0
2684,C2,368.0,1.0,100,175.0
2685,G#2,368.0,1.0,100,175.0
2686,C2,368.0,1.0,100,175.0
2687,G#2,368.5,0.5,100,175.0
2688,B3,369.0,1.0,100,175.0
2689,B-2,369.0,1.0,100,175.0
2690,E2,369.0,1.0,100,175.0
2691,G#2,369.0,1.0,100,175.0
2692,G#2,369.0,1.0,100,175.0
2693,E2,369.0,1.0,100,175.0
2694,G#2,369.0,1.0,100,175.0
2695,E2,369.0,1.0,100,175.0
2696,G2,369.5,0.5,100,175.0
2697,B-2,369.958,0.5,100,175.0
2698,F3,369.958,0.5,100,175.0
2699,G#2,370.0,0.5,100,175.0
2700,B3,370.0,1.0,100,175.0
2701,B-2,370.0,1.0,100,175.0
2702,G#2,370.0,1.0,100,175.0
2703,G#2,370.0,1.0,100,175.0
2704,G#2,370.0,1.0,100,175.0
2705,B-2,370.458,0.5,100,175.0
2706,F3,370.458,0.5,100,175.0
2707,C2,370.5,0.5,100,175.0
2708,C2,370.5,0.5,100,175.0
2709,C2,370.5,0.5,100,175.0
2710,B-2,370.958,0.5,100,175.0
2711,F3,370.958,0.5,100,175.0
2712,G2,371.0,0.5,100,175.0
2713,B3,371.0,1.0,100,175.0
2714,B-2,371.0,1.0,100,175.0
2715,G#2,371.0,1.0,100,175.0
2716,G#2,371.0,1.0,100,175.0
2717,G#2,371.0,1.0,100,175.0
2718,E2,371.0,0.5,100,175.0
2719,E2,371.0,0.5,100,175.0
2720,E2,371.0,0.5,100,175.0
2721,B-2,371.458,0.5,100,175.0
2722,F3,371.458,0.5,100,175.0
2723,G#2,371.5,0.5,100,175.0
2724,G4,372.0,4.0,100,175.0
2725,G4,372.0,4.0,100,175.0
2726,B3,372.0,1.0,100,175.0
2727,B-2,372.0,1.0,100,175.0
2728,B-2,372.0,1.0,100,175.0
2729,G#2,372.0,1.0,100,175.0
2730,C2,372.0,1.0,100,175.0
2731,G#2,372.0,1.0,100,175.0
2732,C2,372.0,1.0,100,175.0
2733,G#2,372.0,1.0,100,175.0
2734,C2,372.0,1.0,100,175.0
2735,G2,372.5,0.5,100,175.0
2736,G#2,373.0,0.5,100,175.0
2737,B3,373.0,1.0,100,175.0
2738,B-2,373.0,1.0,100,175.0
2739,B-2,373.0,1.0,100,175.0
2740,G#2,373.0,1.0,100,175.0
2741,E2,373.0,1.0,100,175.0
2742,G#2,373.0,1.0,100,175.0
2743,E2,373.0,1.0,100,175.0
2744,G#2,373.0,1.0,100,175.0
2745,E2,373.0,1.0,100,175.0
2746,B-2,374.0,0.5,100,175.0
2747,B3,374.0,1.0,100,175.0
2748,B-2,374.0,1.0,100,175.0
2749,B-2,374.0,1.0,100,175.0
2750,G#2,374.0,1.0,100,175.0
2751,G#2,374.0,1.0,100,175.0
2752,G#2,374.0,1.0,100,175.0
2753,B-2,374.5,0.5,100,175.0
2754,C2,374.5,0.5,100,175.0
2755,C2,374.5,0.5,100,175.0
2756,C2,374.5,0.5,100,175.0
2757,B-2,375.0,0.5,100,175.0
2758,B3,375.0,1.0,100,175.0
2759,B-2,375.0,1.0,100,175.0
2760,B-2,375.0,1.0,100,175.0
2761,G#2,375.0,1.0,100,175.0
2762,G#2,375.0,1.0,100,175.0
2763,G#2,375.0,1.0,100,175.0
2764,E2,375.0,0.5,100,175.0
2765,E2,375.0,0.5,100,175.0
2766,E2,375.0,0.5,100,175.0
2767,B-2,375.5,0.5,100,175.0
2768,F4,376.0,1.0,100,175.0
2769,F4,376.0,1.0,100,175.0
2770,G2,376.0,0.5,100,175.0
2771,B3,376.0,1.0,100,175.0
2772,B-2,376.0,1.0,100,175.0
2773,B-2,376.0,1.0,100,175.0
2774,C2,376.0,1.0,100,175.0
2775,G#2,376.0,1.0,100,175.0
2776,C2,376.0,1.0,100,175.0
2777,G#2,376.0,1.0,100,175.0
2778,C2,376.0,1.0,100,175.0
2779,G#2,376.0,1.0,100,175.0
2780,C2,376.0,1.0,100,175.0
2781,G#2,376.5,0.5,100,175.0
2782,G4,377.0,1.0,100,175.0
2783,G4,377.0,1.0,100,175.0
2784,B3,377.0,1.0,100,175.0
2785,B-2,377.0,1.0,100,175.0
2786,B-2,377.0,1.0,100,175.0
2787,G#2,377.0,1.0,100,175.0
2788,E2,377.0,1.0,100,175.0
2789,G#2,377.0,1.0,100,175.0
2790,E2,377.0,1.0,100,175.0
2791,G#2,377.0,1.0,100,175.0
2792,E2,377.0,1.0,100,175.0
2793,G#2,377.0,1.0,100,175.0
2794,E2,377.0,1.0,100,175.0
2795,G2,377.5,0.5,100,175.0
2796,G#4,378.0,1.0,100,175.0
2797,G#4,378.0,1.0,100,175.0
2798,G#2,378.0,0.5,100,175.0
2799,B-2,378.0,0.5,100,175.0
2800,F3,378.0,0.5,100,175.0
2801,B3,378.0,1.0,100,175.0
2802,B-2,378.0,1.0,100,175.0
2803,B-2,378.0,1.0,100,175.0
2804,G#2,378.0,1.0,100,175.0
2805,G#2,378.0,1.0,100,175.0
2806,G#2,378.0,1.0,100,175.0
2807,G#2,378.0,1.0,100,175.0
2808,B-2,378.5,0.5,100,175.0
2809,F3,378.5,0.5,100,175.0
2810,C2,378.5,0.5,100,175.0
2811,C2,378.5,0.5,100,175.0
2812,C2,378.5,0.5,100,175.0
2813,C2,378.5,0.5,100,175.0
2814,G4,379.0,1.0,100,175.0
2815,G4,379.0,1.0,100,175.0
2816,G2,379.0,0.5,100,175.0
2817,B-2,379.0,0.5,100,175.0
2818,F3,379.0,0.5,100,175.0
2819,B3,379.0,1.0,100,175.0
2820,B-2,379.0,1.0,100,175.0
2821,B-2,379.0,1.0,100,175.0
2822,G#2,379.0,1.0,100,175.0
2823,G#2,379.0,1.0,100,175.0
2824,G#2,379.0,1.0,100,175.0
2825,G#2,379.0,1.0,100,175.0
2826,E2,379.0,0.5,100,175.0
2827,E2,379.0,0.5,100,175.0
2828,E2,379.0,0.5,100,175.0
2829,E2,379.0,0.5,100,175.0
2830,G#2,379.5,0.5,100,175.0
2831,B-2,379.5,0.5,100,175.0
2832,F3,379.5,0.5,100,175.0
2833,G4,380.0,2.0,100,175.0
2834,G4,380.0,2.0,100,175.0
2835,G#2,380.0,1.0,100,175.0
2836,C2,380.0,1.0,100,175.0
2837,G2,380.5,0.5,100,175.0
2838,G#2,381.0,0.5,100,175.0
2839,G#2,381.0,1.0,100,175.0
2840,E2,381.0,1.0,100,175.0
2841,F4,382.0,2.0,100,175.0
2842,F4,382.0,2.0,100,175.0
2843,B3,382.0,167/1000,100,175.0
2844,G#2,382.0,1.0,100,175.0
2845,C2,382.0,0.5,100,175.0
2846,B-2,382.0,0.5,100,175.0
2847,G3,382.25,167/1000,100,175.0
2848,A2,382.25,167/1000,100,175.0
2849,A2,382.5,167/1000,100,175.0
2850,C2,382.5,0.5,100,175.0
2851,B-2,382.5,0.5,100,175.0
2852,G3,382.75,167/1000,100,175.0
2853,D3,382.75,167/1000,100,175.0
2854,E2,382.75,167/1000,100,175.0
2855,G#2,383.0,1.0,100,175.0
2856,E2,383.0,0.5,100,175.0
2857,B-2,383.0,0.5,100,175.0
2858,A3,383.25,167/1000,100,175.0
2859,C3,383.25,167/1000,100,175.0
2860,A2,383.25,167/1000,100,175.0
2861,D2,383.25,167/1000,100,175.0
2862,D3,383.5,167/1000,100,175.0
2863,C2,383.5,0.5,100,175.0
2864,B-2,383.5,0.5,100,175.0
2865,D2,383.75,167/1000,100,175.0
2866,F2,383.75,167/1000,100,175.0
2867,B2,383.75,167/1000,100,175.0
2868,G5,384.0,1.0,100,175.0
2869,A3,384.0,4.0,100,175.0
2870,B-5,385.0,1.0,100,175.0
2871,G5,386.0,1.0,100,175.0
2872,G4,387.0,1.0,100,175.0
2873,A4,389.0,1.0,100,175.0
2874,B-4,390.0,1.0,100,175.0
2875,G4,391.0,1.0,100,175.0
2876,A5,392.0,1.0,100,175.0
2877,B-5,393.0,1.0,100,175.0
2878,F5,394.0,1.0,100,175.0
2879,F4,395.0,1.0,100,175.0
2880,F4,397.0,1.0,100,175.0
2881,B-4,398.0,1.0,100,175.0
2882,F4,399.0,1.0,100,175.0
2883,D6,400.0,1.0,100,175.0
2884,A4,401.0,1.0,100,175.0
2885,D5,402.0,1.0,100,175.0
2886,A4,403.0,1.0,100,175.0
2887,A5,404.0,667/1000,100,175.0
2888,E4,405.0,1.0,100,175.0
2889,F4,406.0,1.0,100,175.0
2890,E4,407.0,1.0,100,175.0
2891,B-5,408.0,1.0,100,175.0
2892,A5,409.0,1.0,100,175.0
2893,G5,410.0,1.0,100,175.0
2894,F5,411.0,1.0,100,175.0
2895,G5,412.0,1.0,100,175.0
2896,A4,413.0,1.0,100,175.0
2897,D5,414.0,1.0,100,175.0
2898,A4,415.0,1.0,100,175.0
2899,G5,416.0,1.0,100,175.0
2900,G5,416.0,1.0,100,175.0
2901,B-5,417.0,1.0,100,175.0
2902,G5,417.0,0.5,100,175.0
2903,G5,417.5,0.5,100,175.0
2904,G5,418.0,1.0,100,175.0
2905,G5,418.5,0.5,100,175.0
2906,G4,419.0,1.0,100,175.0
2907,G5,419.0,0.5,100,175.0
2908,G5,420.0,1.0,100,175.0
2909,G4,421.0,1.0,100,175.0
2910,G5,421.0,0.5,100,175.0
2911,G5,421.5,0.5,100,175.0
2912,B-4,422.0,1.0,100,175.0
2913,G5,422.5,0.5,100,175.0
2914,G4,423.0,1.0,100,175.0
2915,G5,423.0,0.5,100,175.0
2916,A5,424.0,1.0,100,175.0
2917,F5,424.0,1.0,100,175.0
2918,B-5,425.0,1.0,100,175.0
2919,F5,425.0,0.5,100,175.0
2920,F5,425.5,0.5,100,175.0
2921,F5,426.0,1.0,100,175.0
2922,F5,426.5,0.5,100,175.0
2923,F4,427.0,1.0,100,175.0
2924,F5,427.0,0.5,100,175.0
2925,F5,428.0,1.0,100,175.0
2926,F4,429.0,1.0,100,175.0
2927,F5,429.0,0.5,100,175.0
2928,F5,429.5,0.5,100,175.0
2929,B-4,430.0,1.0,100,175.0
2930,F5,430.5,0.5,100,175.0
2931,F4,431.0,1.0,100,175.0
2932,F5,431.0,0.5,100,175.0
2933,D6,432.0,1.0,100,175.0
2934,D5,432.0,1.0,100,175.0
2935,A4,433.0,1.0,100,175.0
2936,D5,433.0,0.5,100,175.0
2937,D5,433.5,0.5,100,175.0
2938,D5,434.0,1.0,100,175.0
2939,D5,434.5,0.5,100,175.0
2940,A4,435.0,1.0,100,175.0
2941,D5,435.0,0.5,100,175.0
2942,A5,436.0,1.0,100,175.0
2943,D5,436.0,1.0,100,175.0
2944,A4,437.0,1.0,100,175.0
2945,D5,437.0,0.5,100,175.0
2946,D5,437.5,0.5,100,175.0
2947,B-4,438.0,1.0,100,175.0
2948,D5,438.5,0.5,100,175.0
2949,A4,439.0,1.0,100,175.0
2950,D5,439.0,0.5,100,175.0
2951,B-5,440.0,1.0,100,175.0
2952,F5,440.0,1.0,100,175.0
2953,G3,440.0,1333/1000,100,175.0
2954,A2,440.0,1333/1000,100,175.0
2955,A5,441.0,1.0,100,175.0
2956,F5,441.0,0.5,100,175.0
2957,F5,441.5,0.5,100,175.0
2958,G5,442.0,1.0,100,175.0
2959,G3,442.0,1333/1000,100,175.0
2960,A2,442.0,1333/1000,100,175.0
2961,F5,442.5,0.5,100,175.0
2962,F5,443.0,1.0,100,175.0
2963,F5,443.0,0.5,100,175.0
2964,G5,444.0,1.0,100,175.0
2965,G5,444.0,1.0,100,175.0
2966,G3,444.0,1333/1000,100,175.0
2967,A2,444.0,1333/1000,100,175.0
2968,A4,445.0,1.0,100,175.0
2969,G5,445.0,0.5,100,175.0
2970,E2,445.0,333/1000,100,175.0
2971,A2,445.0,333/1000,100,175.0
2972,G3,445.0,333/1000,100,175.0
2973,G5,445.5,0.5,100,175.0
2974,E2,445.5,333/1000,100,175.0
2975,G3,445.5,333/1000,100,175.0
2976,D5,446.0,1.0,100,175.0
2977,D2,446.0,333/1000,100,175.0
2978,B2,446.0,333/1000,100,175.0
2979,G3,446.0,333/1000,100,175.0
2980,G5,446.5,0.5,100,175.0
2981,E2,446.5,333/1000,100,175.0
2982,A3,446.5,333/1000,100,175.0
2983,E2,446.75,333/1000,100,175.0
2984,A2,446.75,333/1000,100,175.0
2985,A4,447.0,1.0,100,175.0
2986,G5,447.0,0.5,100,175.0
2987,E2,447.0,333/1000,100,175.0
2988,A2,447.0,333/1000,100,175.0
2989,A3,447.0,333/1000,100,175.0
2990,G3,447.0,333/1000,100,175.0
2991,E2,447.5,333/1000,100,175.0
2992,A2,447.5,333/1000,100,175.0
2993,G3,447.5,333/1000,100,175.0
2994,G5,448.0,1.0,100,175.0
2995,G5,448.0,1.0,100,175.0
2996,G2,448.0,0.5,100,175.0
2997,A2,448.0,1333/1000,100,175.0
2998,D2,448.0,1333/1000,100,175.0
2999,C2,448.0,1.0,100,175.0
3000,B-2,448.0,1.0,100,175.0
3001,C2,448.0,1.0,100,175.0
3002,B-2,448.0,1.0,100,175.0
3003,C2,448.0,1.0,100,175.0
3004,B-2,448.0,1.0,100,175.0
3005,C2,448.0,1.0,100,175.0
3006,B-2,448.0,1.0,100,175.0
3007,A3,448.0,1.0,100,175.0
3008,G#2,448.5,0.5,100,175.0
3009,E2,449.0,333/1000,100,175.0
3010,E2,449.0,667/1000,100,175.0
3011,E2,449.0,667/1000,100,175.0
3012,B-2,449.0,1.0,100,175.0
3013,B-2,449.0,1.0,100,175.0
3014,B-2,449.0,1.0,100,175.0
3015,D2,449.0,1.0,100,175.0
3016,B-2,449.0,1.0,100,175.0
3017,A2,449.25,1333/1000,100,175.0
3018,D2,449.25,1333/1000,100,175.0
3019,A3,449.5,0.5,100,175.0
3020,G2,449.5,0.5,100,175.0
3021,G#2,450.0,0.5,100,175.0
3022,C2,450.0,1.0,100,175.0
3023,B-2,450.0,1.0,100,175.0
3024,C2,450.0,1.0,100,175.0
3025,B-2,450.0,1.0,100,175.0
3026,C2,450.0,1.0,100,175.0
3027,B-2,450.0,1.0,100,175.0
3028,C2,450.0,1.0,100,175.0
3029,B-2,450.0,1.0,100,175.0
3030,G2,451.0,0.5,100,175.0
3031,D2,451.0,1.0,100,175.0
3032,B-2,451.0,1.0,100,175.0
3033,D2,451.0,1.0,100,175.0
3034,B-2,451.0,1.0,100,175.0
3035,D2,451.0,1.0,100,175.0
3036,B-2,451.0,1.0,100,175.0
3037,D2,451.0,1.0,100,175.0
3038,B-2,451.0,1.0,100,175.0
3039,G#2,451.5,0.5,100,175.0
3040,G2,452.0,0.5,100,175.0
3041,D3,452.0,0.5,100,175.0
3042,C2,452.0,1.0,100,175.0
3043,B-2,452.0,1.0,100,175.0
3044,C2,452.0,1.0,100,175.0
3045,B-2,452.0,1.0,100,175.0
3046,C2,452.0,1.0,100,175.0
3047,B-2,452.0,1.0,100,175.0
3048,C2,452.0,1.0,100,175.0
3049,B-2,452.0,1.0,100,175.0
3050,C2,452.0,1.0,100,175.0
3051,B-2,452.0,1.0,100,175.0
3052,G2,452.5,0.5,100,175.0
3053,G#2,452.5,0.5,100,175.0
3054,E-3,452.5,0.5,100,175.0
3055,G#2,453.0,0.5,100,175.0
3056,E2,453.0,667/1000,100,175.0
3057,E2,453.0,667/1000,100,175.0
3058,B-2,453.0,1.0,100,175.0
3059,B-2,453.0,1.0,100,175.0
3060,B-2,453.0,1.0,100,175.0
3061,B-2,453.0,1.0,100,175.0
3062,B-2,453.0,1.0,100,175.0
3063,G2,453.5,0.5,100,175.0
3064,D3,453.5,0.5,100,175.0
3065,B-2,454.0,0.5,100,175.0
3066,G#2,454.0,0.5,100,175.0
3067,E-3,454.0,0.5,100,175.0
3068,C2,454.0,1.0,100,175.0
3069,B-2,454.0,1.0,100,175.0
3070,C2,454.0,1.0,100,175.0
3071,B-2,454.0,1.0,100,175.0
3072,C2,454.0,1.0,100,175.0
3073,B-2,454.0,1.0,100,175.0
3074,C2,454.0,1.0,100,175.0
3075,B-2,454.0,1.0,100,175.0
3076,C2,454.0,1.0,100,175.0
3077,B-2,454.0,1.0,100,175.0
3078,B-2,454.5,0.5,100,175.0
3079,B-2,455.0,0.5,100,175.0
3080,G2,455.0,0.5,100,175.0
3081,D3,455.0,0.5,100,175.0
3082,D2,455.0,1.0,100,175.0
3083,B-2,455.0,1.0,100,175.0
3084,D2,455.0,1.0,100,175.0
3085,B-2,455.0,1.0,100,175.0
3086,D2,455.0,1.0,100,175.0
3087,B-2,455.0,1.0,100,175.0
3088,D2,455.0,1.0,100,175.0
3089,B-2,455.0,1.0,100,175.0
3090,D2,455.0,1.0,100,175.0
3091,B-2,455.0,1.0,100,175.0
3092,B-2,455.5,0.5,100,175.0
3093,G#2,455.5,0.5,100,175.0
3094,E-3,455.5,0.5,100,175.0
3095,G2,456.0,0.5,100,175.0
3096,A2,456.0,1333/1000,100,175.0
3097,D2,456.0,1333/1000,100,175.0
3098,C2,456.0,1.0,100,175.0
3099,B-2,456.0,1.0,100,175.0
3100,C2,456.0,1.0,100,175.0
3101,B-2,456.0,1.0,100,175.0
3102,A3,456.0,1.0,100,175.0
3103,G#2,456.5,0.5,100,175.0
3104,G2,456.5,0.5,100,175.0
3105,D3,456.5,0.5,100,175.0
3106,E2,457.0,333/1000,100,175.0
3107,E2,457.0,667/1000,100,175.0
3108,G#2,457.0,0.5,100,175.0
3109,E-3,457.0,0.5,100,175.0
3110,B-2,457.0,1.0,100,175.0
3111,D2,457.0,1.0,100,175.0
3112,B-2,457.0,1.0,100,175.0
3113,A2,457.25,1333/1000,100,175.0
3114,D2,457.25,1333/1000,100,175.0
3115,A3,457.5,0.5,100,175.0
3116,G2,457.5,0.5,100,175.0
3117,G#2,458.0,0.5,100,175.0
3118,B-2,458.0,0.5,100,175.0
3119,F3,458.0,0.5,100,175.0
3120,C2,458.0,1.0,100,175.0
3121,B-2,458.0,1.0,100,175.0
3122,C2,458.0,1.0,100,175.0
3123,B-2,458.0,1.0,100,175.0
3124,B-2,458.5,0.5,100,175.0
3125,F3,458.5,0.5,100,175.0
3126,G2,459.0,0.5,100,175.0
3127,B-2,459.0,0.5,100,175.0
3128,F3,459.0,0.5,100,175.0
3129,D2,459.0,1.0,100,175.0
3130,B-2,459.0,1.0,100,175.0
3131,D2,459.0,1.0,100,175.0
3132,B-2,459.0,1.0,100,175.0
3133,G#2,459.5,0.5,100,175.0
3134,B-2,459.5,0.5,100,175.0
3135,F3,459.5,0.5,100,175.0
3136,G2,460.0,0.5,100,175.0
3137,D3,460.0,0.5,100,175.0
3138,C2,460.0,1.0,100,175.0
3139,B-2,460.0,1.0,100,175.0
3140,C2,460.0,1.0,100,175.0
3141,B-2,460.0,1.0,100,175.0
3142,C2,460.0,1.0,100,175.0
3143,B-2,460.0,1.0,100,175.0
3144,G2,460.5,0.5,100,175.0
3145,G#2,460.5,0.5,100,175.0
3146,E-3,460.5,0.5,100,175.0
3147,E2,461.0,667/1000,100,175.0
3148,G#2,461.0,0.5,100,175.0
3149,B-2,461.0,1.0,100,175.0
3150,B-2,461.0,1.0,100,175.0
3151,B-2,461.0,1.0,100,175.0
3152,G2,461.5,0.5,100,175.0
3153,D3,461.5,0.5,100,175.0
3154,B-2,462.0,0.5,100,175.0
3155,G#2,462.0,0.5,100,175.0
3156,E-3,462.0,0.5,100,175.0
3157,C2,462.0,1.0,100,175.0
3158,B-2,462.0,1.0,100,175.0
3159,C2,462.0,1.0,100,175.0
3160,B-2,462.0,1.0,100,175.0
3161,C2,462.0,1.0,100,175.0
3162,B-2,462.0,1.0,100,175.0
3163,B-2,462.5,0.5,100,175.0
3164,B-2,463.0,0.5,100,175.0
3165,G2,463.0,0.5,100,175.0
3166,D3,463.0,0.5,100,175.0
3167,D2,463.0,1.0,100,175.0
3168,B-2,463.0,1.0,100,175.0
3169,D2,463.0,1.0,100,175.0
3170,B-2,463.0,1.0,100,175.0
3171,D2,463.0,1.0,100,175.0
3172,B-2,463.0,1.0,100,175.0
3173,B-2,463.5,0.5,100,175.0
3174,G#2,463.5,0.5,100,175.0
3175,E-3,463.5,0.5,100,175.0
3176,D5,464.0,4.0,100,175.0
3177,D5,464.0,4.0,100,175.0
3178,D5,464.0,4.0,100,175.0
3179,D3,464.0,4.0,100,175.0
3180,C2,464.0,1.0,100,175.0
3181,B-2,464.0,1.0,100,175.0
3182,C2,464.0,1.0,100,175.0
3183,B-2,464.0,1.0,100,175.0
3184,C2,464.0,1.0,100,175.0
3185,B-2,464.0,1.0,100,175.0
3186,C2,464.0,1.0,100,175.0
3187,B-2,464.0,1.0,100,175.0
3188,C2,464.0,1.0,100,175.0
3189,B-2,464.0,1.0,100,175.0
3190,C2,464.0,1.0,100,175.0
3191,B-2,464.0,1.0,100,175.0
3192,A3,464.0,1.0,100,175.0
3193,G2,464.5,0.5,100,175.0
3194,D3,464.5,0.5,100,175.0
3195,G#2,465.0,0.5,100,175.0
3196,E-3,465.0,0.5,100,175.0
3197,E2,465.0,667/1000,100,175.0
3198,E2,465.0,667/1000,100,175.0
3199,B-2,465.0,1.0,100,175.0
3200,B-2,465.0,1.0,100,175.0
3201,B-2,465.0,1.0,100,175.0
3202,B-2,465.0,1.0,100,175.0
3203,B-2,465.0,1.0,100,175.0
3204,B-2,465.0,1.0,100,175.0
3205,B-2,466.0,0.5,100,175.0
3206,F3,466.0,0.5,100,175.0
3207,C2,466.0,1.0,100,175.0
3208,B-2,466.0,1.0,100,175.0
3209,C2,466.0,1.0,100,175.0
3210,B-2,466.0,1.0,100,175.0
3211,C2,466.0,1.0,100,175.0
3212,B-2,466.0,1.0,100,175.0
3213,C2,466.0,1.0,100,175.0
3214,B-2,466.0,1.0,100,175.0
3215,C2,466.0,1.0,100,175.0
3216,B-2,466.0,1.0,100,175.0
3217,C2,466.0,1.0,100,175.0
3218,B-2,466.0,1.0,100,175.0
3219,B-2,466.5,0.5,100,175.0
3220,F3,466.5,0.5,100,175.0
3221,B-2,467.0,0.5,100,175.0
3222,F3,467.0,0.5,100,175.0
3223,D2,467.0,1.0,100,175.0
3224,B-2,467.0,1.0,100,175.0
3225,D2,467.0,1.0,100,175.0
3226,B-2,467.0,1.0,100,175.0
3227,D2,467.0,1.0,100,175.0
3228,B-2,467.0,1.0,100,175.0
3229,D2,467.0,1.0,100,175.0
3230,B-2,467.0,1.0,100,175.0
3231,D2,467.0,1.0,100,175.0
3232,B-2,467.0,1.0,100,175.0
3233,D2,467.0,1.0,100,175.0
3234,B-2,467.0,1.0,100,175.0
3235,B-2,467.5,0.5,100,175.0
3236,F3,467.5,0.5,100,175.0
3237,C#5,468.0,2.0,100,175.0
3238,C#5,468.0,2.0,100,175.0
3239,C#5,468.0,2.0,100,175.0
3240,C#3,468.0,2.0,100,175.0
3241,D3,468.0,4.0,100,175.0
3242,A3,468.0,4.0,100,175.0
3243,C2,468.0,1.0,100,175.0
3244,B-2,468.0,1.0,100,175.0
3245,C2,468.0,1.0,100,175.0
3246,B-2,468.0,1.0,100,175.0
3247,C2,468.0,1.0,100,175.0
3248,B-2,468.0,1.0,100,175.0
3249,C2,468.0,1.0,100,175.0
3250,B-2,468.0,1.0,100,175.0
3251,C2,468.0,1.0,100,175.0
3252,B-2,468.0,1.0,100,175.0
3253,C2,468.0,1.0,100,175.0
3254,B-2,468.0,1.0,100,175.0
3255,A3,468.0,1.0,100,175.0
3256,E2,469.0,667/1000,100,175.0
3257,E2,469.0,667/1000,100,175.0
3258,B-2,469.0,1.0,100,175.0
3259,B-2,469.0,1.0,100,175.0
3260,B-2,469.0,1.0,100,175.0
3261,B-2,469.0,1.0,100,175.0
3262,B-2,469.0,1.0,100,175.0
3263,B-2,469.0,1.0,100,175.0
3264,B-4,470.0,2.0,100,175.0
3265,B-4,470.0,2.0,100,175.0
3266,B-4,470.0,2.0,100,175.0
3267,B-2,470.0,2.0,100,175.0
3268,C2,470.0,1.0,100,175.0
3269,B-2,470.0,1.0,100,175.0
3270,C2,470.0,1.0,100,175.0
3271,B-2,470.0,1.0,100,175.0
3272,C2,470.0,1.0,100,175.0
3273,B-2,470.0,1.0,100,175.0
3274,C2,470.0,1.0,100,175.0
3275,B-2,470.0,1.0,100,175.0
3276,C2,470.0,1.0,100,175.0
3277,B-2,470.0,1.0,100,175.0
3278,C2,470.0,1.0,100,175.0
3279,B-2,470.0,1.0,100,175.0
3280,A3,470.0,1.0,100,175.0
3281,D2,471.0,1.0,100,175.0
3282,B-2,471.0,1.0,100,175.0
3283,D2,471.0,1.0,100,175.0
3284,B-2,471.0,1.0,100,175.0
3285,D2,471.0,1.0,100,175.0
3286,B-2,471.0,1.0,100,175.0
3287,D2,471.0,1.0,100,175.0
3288,B-2,471.0,1.0,100,175.0
3289,D2,471.0,1.0,100,175.0
3290,B-2,471.0,1.0,100,175.0
3291,D2,471.0,1.0,100,175.0
3292,B-2,471.0,1.0,100,175.0
3293,G2,472.0,0.5,100,175.0
3294,C#3,472.0,2.0,100,175.0
3295,G#3,472.0,2.0,100,175.0
3296,C2,472.0,1.0,100,175.0
3297,B-2,472.0,1.0,100,175.0
3298,C2,472.0,1.0,100,175.0
3299,B-2,472.0,1.0,100,175.0
3300,C2,472.0,1.0,100,175.0
3301,B-2,472.0,1.0,100,175.0
3302,C2,472.0,1.0,100,175.0
3303,B-2,472.0,1.0,100,175.0
3304,C2,472.0,1.0,100,175.0
3305,B-2,472.0,1.0,100,175.0
3306,C2,472.0,1.0,100,175.0
3307,B-2,472.0,1.0,100,175.0
3308,A3,472.0,1.0,100,175.0
3309,G#2,472.5,0.5,100,175.0
3310,E2,473.0,667/1000,100,175.0
3311,B-2,473.0,1.0,100,175.0
3312,B-2,473.0,1.0,100,175.0
3313,B-2,473.0,1.0,100,175.0
3314,B-2,473.0,1.0,100,175.0
3315,B-2,473.0,1.0,100,175.0
3316,B-2,473.0,1.0,100,175.0
3317,G2,473.5,0.5,100,175.0
3318,G#2,474.0,0.5,100,175.0
3319,B-2,474.0,2.0,100,175.0
3320,F3,474.0,2.0,100,175.0
3321,C2,474.0,1.0,100,175.0
3322,B-2,474.0,1.0,100,175.0
3323,C2,474.0,1.0,100,175.0
3324,B-2,474.0,1.0,100,175.0
3325,C2,474.0,1.0,100,175.0
3326,B-2,474.0,1.0,100,175.0
3327,C2,474.0,1.0,100,175.0
3328,B-2,474.0,1.0,100,175.0
3329,C2,474.0,1.0,100,175.0
3330,B-2,474.0,1.0,100,175.0
3331,C2,474.0,1.0,100,175.0
3332,B-2,474.0,1.0,100,175.0
3333,G2,475.0,0.5,100,175.0
3334,D2,475.0,1.0,100,175.0
3335,B-2,475.0,1.0,100,175.0
3336,D2,475.0,1.0,100,175.0
3337,B-2,475.0,1.0,100,175.0
3338,D2,475.0,1.0,100,175.0
3339,B-2,475.0,1.0,100,175.0
3340,D2,475.0,1.0,100,175.0
3341,B-2,475.0,1.0,100,175.0
3342,D2,475.0,1.0,100,175.0
3343,B-2,475.0,1.0,100,175.0
3344,D2,475.0,1.0,100,175.0
3345,B-2,475.0,1.0,100,175.0
3346,G#2,475.5,0.5,100,175.0
3347,G2,476.0,0.5,100,175.0
3348,D3,476.0,0.5,100,175.0
3349,C2,476.0,1.0,100,175.0
3350,B-2,476.0,1.0,100,175.0
3351,C2,476.0,1.0,100,175.0
3352,B-2,476.0,1.0,100,175.0
3353,C2,476.0,1.0,100,175.0
3354,B-2,476.0,1.0,100,175.0
3355,C2,476.0,1.0,100,175.0
3356,B-2,476.0,1.0,100,175.0
3357,C2,476.0,1.0,100,175.0
3358,B-2,476.0,1.0,100,175.0
3359,C2,476.0,1.0,100,175.0
3360,B-2,476.0,1.0,100,175.0
3361,G2,476.5,0.5,100,175.0
3362,G#2,476.5,0.5,100,175.0
3363,E-3,476.5,0.5,100,175.0
3364,E2,477.0,667/1000,100,175.0
3365,G#2,477.0,0.5,100,175.0
3366,B-2,477.0,1.0,100,175.0
3367,B-2,477.0,1.0,100,175.0
3368,B-2,477.0,1.0,100,175.0
3369,B-2,477.0,1.0,100,175.0
3370,B-2,477.0,1.0,100,175.0
3371,B-2,477.0,1.0,100,175.0
3372,G2,477.5,0.5,100,175.0
3373,D3,477.5,0.5,100,175.0
3374,B-2,478.0,0.5,100,175.0
3375,G#2,478.0,0.5,100,175.0
3376,E-3,478.0,0.5,100,175.0
3377,C2,478.0,1.0,100,175.0
3378,B-2,478.0,1.0,100,175.0
3379,C2,478.0,1.0,100,175.0
3380,B-2,478.0,1.0,100,175.0
3381,C2,478.0,1.0,100,175.0
3382,B-2,478.0,1.0,100,175.0
3383,C2,478.0,1.0,100,175.0
3384,B-2,478.0,1.0,100,175.0
3385,C2,478.0,1.0,100,175.0
3386,B-2,478.0,1.0,100,175.0
3387,C2,478.0,1.0,100,175.0
3388,B-2,478.0,1.0,100,175.0
3389,B-2,478.5,0.5,100,175.0
3390,B-2,479.0,0.5,100,175.0
3391,G2,479.0,0.5,100,175.0
3392,D3,479.0,0.5,100,175.0
3393,D2,479.0,1.0,100,175.0
3394,B-2,479.0,1.0,100,175.0
3395,D2,479.0,1.0,100,175.0
3396,B-2,479.0,1.0,100,175.0
3397,D2,479.0,1.0,100,175.0
3398,B-2,479.0,1.0,100,175.0
3399,D2,479.0,1.0,100,175.0
3400,B-2,479.0,1.0,100,175.0
3401,D2,479.0,1.0,100,175.0
3402,B-2,479.0,1.0,100,175.0
3403,D2,479.0,1.0,100,175.0
3404,B-2,479.0,1.0,100,175.0
3405,B-2,479.5,0.5,100,175.0
3406,G#2,479.5,0.5,100,175.0
3407,E-3,479.5,0.5,100,175.0
3408,G2,480.0,0.5,100,175.0
3409,A2,480.0,1333/1000,100,175.0
3410,D2,480.0,1333/1000,100,175.0
3411,C2,480.0,1.0,100,175.0
3412,B-2,480.0,1.0,100,175.0
3413,C2,480.0,1.0,100,175.0
3414,B-2,480.0,1.0,100,175.0
3415,A3,480.0,1.0,100,175.0
3416,C2,480.0,1.0,100,175.0
3417,B-2,480.0,1.0,100,175.0
3418,C2,480.0,1.0,100,175.0
3419,B-2,480.0,1.0,100,175.0
3420,C2,480.0,1.0,100,175.0
3421,B-2,480.0,1.0,100,175.0
3422,C2,480.0,1.0,100,175.0
3423,B-2,480.0,1.0,100,175.0
3424,C2,480.0,1.0,100,175.0
3425,B-2,480.0,1.0,100,175.0
3426,C2,480.0,1.0,100,175.0
3427,B-2,480.0,1.0,100,175.0
3428,A3,480.0,1.0,100,175.0
3429,G#2,480.5,0.5,100,175.0
3430,G2,480.5,0.5,100,175.0
3431,D3,480.5,0.5,100,175.0
3432,E2,481.0,333/1000,100,175.0
3433,G#2,481.0,0.5,100,175.0
3434,E-3,481.0,0.5,100,175.0
3435,E2,481.0,667/1000,100,175.0
3436,E2,481.0,667/1000,100,175.0
3437,E2,481.0,667/1000,100,175.0
3438,B-2,481.0,1.0,100,175.0
3439,D2,481.0,1.0,100,175.0
3440,B-2,481.0,1.0,100,175.0
3441,B-2,481.0,1.0,100,175.0
3442,B-2,481.0,1.0,100,175.0
3443,B-2,481.0,1.0,100,175.0
3444,B-2,481.0,1.0,100,175.0
3445,B-2,481.0,1.0,100,175.0
3446,B-2,481.0,1.0,100,175.0
3447,A2,481.25,1333/1000,100,175.0
3448,D2,481.25,1333/1000,100,175.0
3449,G2,481.5,0.5,100,175.0
3450,A3,481.5,0.5,100,175.0
3451,A3,481.5,0.5,100,175.0
3452,G#2,482.0,0.5,100,175.0
3453,B-2,482.0,0.5,100,175.0
3454,F3,482.0,0.5,100,175.0
3455,C2,482.0,1.0,100,175.0
3456,B-2,482.0,1.0,100,175.0
3457,C2,482.0,1.0,100,175.0
3458,B-2,482.0,1.0,100,175.0
3459,C2,482.0,1.0,100,175.0
3460,B-2,482.0,1.0,100,175.0
3461,C2,482.0,1.0,100,175.0
3462,B-2,482.0,1.0,100,175.0
3463,C2,482.0,1.0,100,175.0
3464,B-2,482.0,1.0,100,175.0
3465,C2,482.0,1.0,100,175.0
3466,B-2,482.0,1.0,100,175.0
3467,C2,482.0,1.0,100,175.0
3468,B-2,482.0,1.0,100,175.0
3469,C2,482.0,1.0,100,175.0
3470,B-2,482.0,1.0,100,175.0
3471,B-2,482.5,0.5,100,175.0
3472,F3,482.5,0.5,100,175.0
3473,G2,483.0,0.5,100,175.0
3474,B-2,483.0,0.5,100,175.0
3475,F3,483.0,0.5,100,175.0
3476,D2,483.0,1.0,100,175.0
3477,B-2,483.0,1.0,100,175.0
3478,D2,483.0,1.0,100,175.0
3479,B-2,483.0,1.0,100,175.0
3480,D2,483.0,1.0,100,175.0
3481,B-2,483.0,1.0,100,175.0
3482,D2,483.0,1.0,100,175.0
3483,B-2,483.0,1.0,100,175.0
3484,D2,483.0,1.0,100,175.0
3485,B-2,483.0,1.0,100,175.0
3486,D2,483.0,1.0,100,175.0
3487,B-2,483.0,1.0,100,175.0
3488,D2,483.0,1.0,100,175.0
3489,B-2,483.0,1.0,100,175.0
3490,D2,483.0,1.0,100,175.0
3491,B-2,483.0,1.0,100,175.0
3492,G#2,483.5,0.5,100,175.0
3493,B-2,483.5,0.5,100,175.0
3494,F3,483.5,0.5,100,175.0
3495,G2,484.0,0.5,100,175.0
3496,D3,484.0,0.5,100,175.0
3497,C2,484.0,1.0,100,175.0
3498,B-2,484.0,1.0,100,175.0
3499,C2,484.0,1.0,100,175.0
3500,B-2,484.0,1.0,100,175.0
3501,C2,484.0,1.0,100,175.0
3502,B-2,484.0,1.0,100,175.0
3503,C2,484.0,1.0,100,175.0
3504,B-2,484.0,1.0,100,175.0
3505,C2,484.0,1.0,100,175.0
3506,B-2,484.0,1.0,100,175.0
3507,C2,484.0,1.0,100,175.0
3508,B-2,484.0,1.0,100,175.0
3509,G2,484.5,0.5,100,175.0
3510,G#2,484.5,0.5,100,175.0
3511,E-3,484.5,0.5,100,175.0
3512,G#2,485.0,0.5,100,175.0
3513,E2,485.0,667/1000,100,175.0
3514,E2,485.0,667/1000,100,175.0
3515,B-2,485.0,1.0,100,175.0
3516,B-2,485.0,1.0,100,175.0
3517,B-2,485.0,1.0,100,175.0
3518,B-2,485.0,1.0,100,175.0
3519,B-2,485.0,1.0,100,175.0
3520,B-2,485.0,1.0,100,175.0
3521,G2,485.5,0.5,100,175.0
3522,D3,485.5,0.5,100,175.0
3523,B-2,486.0,0.5,100,175.0
3524,G#2,486.0,0.5,100,175.0
3525,E-3,486.0,0.5,100,175.0
3526,C2,486.0,1.0,100,175.0
3527,B-2,486.0,1.0,100,175.0
3528,C2,486.0,1.0,100,175.0
3529,B-2,486.0,1.0,100,175.0
3530,C2,486.0,1.0,100,175.0
3531,B-2,486.0,1.0,100,175.0
3532,C2,486.0,1.0,100,175.0
3533,B-2,486.0,1.0,100,175.0
3534,C2,486.0,1.0,100,175.0
3535,B-2,486.0,1.0,100,175.0
3536,C2,486.0,1.0,100,175.0
3537,B-2,486.0,1.0,100,175.0
3538,B-2,486.5,0.5,100,175.0
3539,B-2,487.0,0.5,100,175.0
3540,G2,487.0,0.5,100,175.0
3541,D3,487.0,0.5,100,175.0
3542,D2,487.0,1.0,100,175.0
3543,B-2,487.0,1.0,100,175.0
3544,D2,487.0,1.0,100,175.0
3545,B-2,487.0,1.0,100,175.0
3546,D2,487.0,1.0,100,175.0
3547,B-2,487.0,1.0,100,175.0
3548,D2,487.0,1.0,100,175.0
3549,B-2,487.0,1.0,100,175.0
3550,D2,487.0,1.0,100,175.0
3551,B-2,487.0,1.0,100,175.0
3552,D2,487.0,1.0,100,175.0
3553,B-2,487.0,1.0,100,175.0
3554,B-2,487.5,0.5,100,175.0
3555,G#2,487.5,0.5,100,175.0
3556,E-3,487.5,0.5,100,175.0
3557,G2,488.0,0.5,100,175.0
3558,A2,488.0,1333/1000,100,175.0
3559,D2,488.0,1333/1000,100,175.0
3560,C2,488.0,1.0,100,175.0
3561,B-2,488.0,1.0,100,175.0
3562,C2,488.0,1.0,100,175.0
3563,B-2,488.0,1.0,100,175.0
3564,A3,488.0,1.0,100,175.0
3565,C2,488.0,1.0,100,175.0
3566,B-2,488.0,1.0,100,175.0
3567,A3,488.0,1.0,100,175.0
3568,G#2,488.5,0.5,100,175.0
3569,G2,488.5,0.5,100,175.0
3570,D3,488.5,0.5,100,175.0
3571,E2,489.0,333/1000,100,175.0
3572,E2,489.0,667/1000,100,175.0
3573,G#2,489.0,0.5,100,175.0
3574,E-3,489.0,0.5,100,175.0
3575,B-2,489.0,1.0,100,175.0
3576,D2,489.0,1.0,100,175.0
3577,B-2,489.0,1.0,100,175.0
3578,D2,489.0,1.0,100,175.0
3579,B-2,489.0,1.0,100,175.0
3580,A2,489.25,1333/1000,100,175.0
3581,D2,489.25,1333/1000,100,175.0
3582,G2,489.5,0.5,100,175.0
3583,A3,489.5,0.5,100,175.0
3584,A3,489.5,0.5,100,175.0
3585,G#2,490.0,0.5,100,175.0
3586,B-2,490.0,0.5,100,175.0
3587,F3,490.0,0.5,100,175.0
3588,C2,490.0,1.0,100,175.0
3589,B-2,490.0,1.0,100,175.0
3590,C2,490.0,1.0,100,175.0
3591,B-2,490.0,1.0,100,175.0
3592,C2,490.0,1.0,100,175.0
3593,B-2,490.0,1.0,100,175.0
3594,B-2,490.5,0.5,100,175.0
3595,F3,490.5,0.5,100,175.0
3596,G2,491.0,0.5,100,175.0
3597,B-2,491.0,0.5,100,175.0
3598,F3,491.0,0.5,100,175.0
3599,D2,491.0,1.0,100,175.0
3600,B-2,491.0,1.0,100,175.0
3601,D2,491.0,1.0,100,175.0
3602,B-2,491.0,1.0,100,175.0
3603,D2,491.0,1.0,100,175.0
3604,B-2,491.0,1.0,100,175.0
3605,G#2,491.5,0.5,100,175.0
3606,B-2,491.5,0.5,100,175.0
3607,F3,491.5,0.5,100,175.0
3608,G2,492.0,0.5,100,175.0
3609,D3,492.0,0.5,100,175.0
3610,C2,492.0,1.0,100,175.0
3611,B-2,492.0,1.0,100,175.0
3612,C2,492.0,1.0,100,175.0
3613,B-2,492.0,1.0,100,175.0
3614,C2,492.0,1.0,100,175.0
3615,B-2,492.0,1.0,100,175.0
3616,C2,492.0,1.0,100,175.0
3617,B-2,492.0,1.0,100,175.0
3618,C2,492.0,1.0,100,175.0
3619,B-2,492.0,1.0,100,175.0
3620,C2,492.0,1.0,100,175.0
3621,B-2,492.0,1.0,100,175.0
3622,C2,492.0,1.0,100,175.0
3623,B-2,492.0,1.0,100,175.0
3624,G2,492.5,0.5,100,175.0
3625,G#2,492.5,0.5,100,175.0
3626,E-3,492.5,0.5,100,175.0
3627,E2,493.0,667/1000,100,175.0
3628,G#2,493.0,0.5,100,175.0
3629,B-2,493.0,1.0,100,175.0
3630,B-2,493.0,1.0,100,175.0
3631,B-2,493.0,1.0,100,175.0
3632,B-2,493.0,1.0,100,175.0
3633,B-2,493.0,1.0,100,175.0
3634,B-2,493.0,1.0,100,175.0
3635,B-2,493.0,1.0,100,175.0
3636,G2,493.5,0.5,100,175.0
3637,D3,493.5,0.5,100,175.0
3638,B-2,494.0,0.5,100,175.0
3639,G#2,494.0,0.5,100,175.0
3640,E-3,494.0,0.5,100,175.0
3641,C2,494.0,1.0,100,175.0
3642,B-2,494.0,1.0,100,175.0
3643,C2,494.0,1.0,100,175.0
3644,B-2,494.0,1.0,100,175.0
3645,C2,494.0,1.0,100,175.0
3646,B-2,494.0,1.0,100,175.0
3647,C2,494.0,1.0,100,175.0
3648,B-2,494.0,1.0,100,175.0
3649,C2,494.0,1.0,100,175.0
3650,B-2,494.0,1.0,100,175.0
3651,C2,494.0,1.0,100,175.0
3652,B-2,494.0,1.0,100,175.0
3653,C2,494.0,1.0,100,175.0
3654,B-2,494.0,1.0,100,175.0
3655,B-2,494.5,0.5,100,175.0
3656,B-2,495.0,0.5,100,175.0
3657,G2,495.0,0.5,100,175.0
3658,D3,495.0,0.5,100,175.0
3659,D2,495.0,1.0,100,175.0
3660,B-2,495.0,1.0,100,175.0
3661,D2,495.0,1.0,100,175.0
3662,B-2,495.0,1.0,100,175.0
3663,D2,495.0,1.0,100,175.0
3664,B-2,495.0,1.0,100,175.0
3665,D2,495.0,1.0,100,175.0
3666,B-2,495.0,1.0,100,175.0
3667,D2,495.0,1.0,100,175.0
3668,B-2,495.0,1.0,100,175.0
3669,D2,495.0,1.0,100,175.0
3670,B-2,495.0,1.0,100,175.0
3671,D2,495.0,1.0,100,175.0
3672,B-2,495.0,1.0,100,175.0
3673,B-2,495.5,0.5,100,175.0
3674,G#2,495.5,0.5,100,175.0
3675,E-3,495.5,0.5,100,175.0
3676,D5,496.0,4.0,100,175.0
3677,D5,496.0,4.0,100,175.0
3678,D5,496.0,4.0,100,175.0
3679,D3,496.0,4.0,100,175.0
3680,C2,496.0,1.0,100,175.0
3681,B-2,496.0,1.0,100,175.0
3682,C2,496.0,1.0,100,175.0
3683,B-2,496.0,1.0,100,175.0
3684,C2,496.0,1.0,100,175.0
3685,B-2,496.0,1.0,100,175.0
3686,C2,496.0,1.0,100,175.0
3687,B-2,496.0,1.0,100,175.0
3688,C2,496.0,1.0,100,175.0
3689,B-2,496.0,1.0,100,175.0
3690,C2,496.0,1.0,100,175.0
3691,B-2,496.0,1.0,100,175.0
3692,C2,496.0,1.0,100,175.0
3693,B-2,496.0,1.0,100,175.0
3694,A3,496.0,1.0,100,175.0
3695,G2,496.5,0.5,100,175.0
3696,D3,496.5,0.5,100,175.0
3697,G#2,497.0,0.5,100,175.0
3698,E-3,497.0,0.5,100,175.0
3699,E2,497.0,667/1000,100,175.0
3700,E2,497.0,667/1000,100,175.0
3701,B-2,497.0,1.0,100,175.0
3702,B-2,497.0,1.0,100,175.0
3703,B-2,497.0,1.0,100,175.0
3704,B-2,497.0,1.0,100,175.0
3705,B-2,497.0,1.0,100,175.0
3706,B-2,497.0,1.0,100,175.0
3707,B-2,497.0,1.0,100,175.0
3708,B-2,498.0,0.5,100,175.0
3709,F3,498.0,0.5,100,175.0
3710,C2,498.0,1.0,100,175.0
3711,B-2,498.0,1.0,100,175.0
3712,C2,498.0,1.0,100,175.0
3713,B-2,498.0,1.0,100,175.0
3714,C2,498.0,1.0,100,175.0
3715,B-2,498.0,1.0,100,175.0
3716,C2,498.0,1.0,100,175.0
3717,B-2,498.0,1.0,100,175.0
3718,C2,498.0,1.0,100,175.0
3719,B-2,498.0,1.0,100,175.0
3720,C2,498.0,1.0,100,175.0
3721,B-2,498.0,1.0,100,175.0
3722,C2,498.0,1.0,100,175.0
3723,B-2,498.0,1.0,100,175.0
3724,B-2,498.5,0.5,100,175.0
3725,F3,498.5,0.5,100,175.0
3726,B-2,499.0,0.5,100,175.0
3727,F3,499.0,0.5,100,175.0
3728,D2,499.0,1.0,100,175.0
3729,B-2,499.0,1.0,100,175.0
3730,D2,499.0,1.0,100,175.0
3731,B-2,499.0,1.0,100,175.0
3732,D2,499.0,1.0,100,175.0
3733,B-2,499.0,1.0,100,175.0
3734,D2,499.0,1.0,100,175.0
3735,B-2,499.0,1.0,100,175.0
3736,D2,499.0,1.0,100,175.0
3737,B-2,499.0,1.0,100,175.0
3738,D2,499.0,1.0,100,175.0
3739,B-2,499.0,1.0,100,175.0
3740,D2,499.0,1.0,100,175.0
3741,B-2,499.0,1.0,100,175.0
3742,B-2,499.5,0.5,100,175.0
3743,F3,499.5,0.5,100,175.0
3744,C#5,500.0,2.0,100,175.0
3745,C#5,500.0,2.0,100,175.0
3746,C#5,500.0,2.0,100,175.0
3747,C#3,500.0,2.0,100,175.0
3748,D3,500.0,4.0,100,175.0
3749,A3,500.0,4.0,100,175.0
3750,C2,500.0,1.0,100,175.0
3751,B-2,500.0,1.0,100,175.0
3752,C2,500.0,1.0,100,175.0
3753,B-2,500.0,1.0,100,175.0
3754,C2,500.0,1.0,100,175.0
3755,B-2,500.0,1.0,100,175.0
3756,C2,500.0,1.0,100,175.0
3757,B-2,500.0,1.0,100,175.0
3758,C2,500.0,1.0,100,175.0
3759,B-2,500.0,1.0,100,175.0
3760,C2,500.0,1.0,100,175.0
3761,B-2,500.0,1.0,100,175.0
3762,C2,500.0,1.0,100,175.0
3763,B-2,500.0,1.0,100,175.0
3764,A3,500.0,1.0,100,175.0
3765,E2,501.0,667/1000,100,175.0
3766,E2,501.0,667/1000,100,175.0
3767,B-2,501.0,1.0,100,175.0
3768,B-2,501.0,1.0,100,175.0
3769,B-2,501.0,1.0,100,175.0
3770,B-2,501.0,1.0,100,175.0
3771,B-2,501.0,1.0,100,175.0
3772,B-2,501.0,1.0,100,175.0
3773,B-2,501.0,1.0,100,175.0
3774,B-4,502.0,2.0,100,175.0
3775,B-4,502.0,2.0,100,175.0
3776,B-4,502.0,2.0,100,175.0
3777,B-2,502.0,2.0,100,175.0
3778,C2,502.0,1.0,100,175.0
3779,B-2,502.0,1.0,100,175.0
3780,C2,502.0,1.0,100,175.0
3781,B-2,502.0,1.0,100,175.0
3782,C2,502.0,1.0,100,175.0
3783,B-2,502.0,1.0,100,175.0
3784,C2,502.0,1.0,100,175.0
3785,B-2,502.0,1.0,100,175.0
3786,C2,502.0,1.0,100,175.0
3787,B-2,502.0,1.0,100,175.0
3788,C2,502.0,1.0,100,175.0
3789,B-2,502.0,1.0,100,175.0
3790,C2,502.0,1.0,100,175.0
3791,B-2,502.0,1.0,100,175.0
3792,A3,502.0,1.0,100,175.0
3793,D2,503.0,1.0,100,175.0
3794,B-2,503.0,1.0,100,175.0
3795,D2,503.0,1.0,100,175.0
3796,B-2,503.0,1.0,100,175.0
3797,D2,503.0,1.0,100,175.0
3798,B-2,503.0,1.0,100,175.0
3799,D2,503.0,1.0,100,175.0
3800,B-2,503.0,1.0,100,175.0
3801,D2,503.0,1.0,100,175.0
3802,B-2,503.0,1.0,100,175.0
3803,D2,503.0,1.0,100,175.0
3804,B-2,503.0,1.0,100,175.0
3805,D2,503.0,1.0,100,175.0
3806,B-2,503.0,1.0,100,175.0
3807,G2,504.0,0.5,100,175.0
3808,C#3,504.0,2.0,100,175.0
3809,G#3,504.0,2.0,100,175.0
3810,C2,504.0,1.0,100,175.0
3811,B-2,504.0,1.0,100,175.0
3812,C2,504.0,1.0,100,175.0
3813,B-2,504.0,1.0,100,175.0
3814,C2,504.0,1.0,100,175.0
3815,B-2,504.0,1.0,100,175.0
3816,C2,504.0,1.0,100,175.0
3817,B-2,504.0,1.0,100,175.0
3818,C2,504.0,1.0,100,175.0
3819,B-2,504.0,1.0,100,175.0
3820,C2,504.0,1.0,100,175.0
3821,B-2,504.0,1.0,100,175.0
3822,C2,504.0,1.0,100,175.0
3823,B-2,504.0,1.0,100,175.0
3824,A3,504.0,1.0,100,175.0
3825,G#2,504.5,0.5,100,175.0
3826,E2,505.0,667/1000,100,175.0
3827,E2,505.0,667/1000,100,175.0
3828,B-2,505.0,1.0,100,175.0
3829,B-2,505.0,1.0,100,175.0
3830,B-2,505.0,1.0,100,175.0
3831,B-2,505.0,1.0,100,175.0
3832,B-2,505.0,1.0,100,175.0
3833,B-2,505.0,1.0,100,175.0
3834,B-2,505.0,1.0,100,175.0
3835,G2,505.5,0.5,100,175.0
3836,G#2,506.0,0.5,100,175.0
3837,B-2,506.0,2.0,100,175.0
3838,F3,506.0,2.0,100,175.0
3839,C2,506.0,1.0,100,175.0
3840,B-2,506.0,1.0,100,175.0
3841,C2,506.0,1.0,100,175.0
3842,B-2,506.0,1.0,100,175.0
3843,C2,506.0,1.0,100,175.0
3844,B-2,506.0,1.0,100,175.0
3845,C2,506.0,1.0,100,175.0
3846,B-2,506.0,1.0,100,175.0
3847,C2,506.0,1.0,100,175.0
3848,B-2,506.0,1.0,100,175.0
3849,C2,506.0,1.0,100,175.0
3850,B-2,506.0,1.0,100,175.0
3851,C2,506.0,1.0,100,175.0
3852,B-2,506.0,1.0,100,175.0
3853,G2,507.0,0.5,100,175.0
3854,D2,507.0,1.0,100,175.0
3855,B-2,507.0,1.0,100,175.0
3856,D2,507.0,1.0,100,175.0
3857,B-2,507.0,1.0,100,175.0
3858,D2,507.0,1.0,100,175.0
3859,B-2,507.0,1.0,100,175.0
3860,D2,507.0,1.0,100,175.0
3861,B-2,507.0,1.0,100,175.0
3862,D2,507.0,1.0,100,175.0
3863,B-2,507.0,1.0,100,175.0
3864,D2,507.0,1.0,100,175.0
3865,B-2,507.0,1.0,100,175.0
3866,D2,507.0,1.0,100,175.0
3867,B-2,507.0,1.0,100,175.0
3868,G#2,507.5,0.5,100,175.0
3869,G2,508.0,0.5,100,175.0
3870,D3,508.0,0.5,100,175.0
3871,C2,508.0,1.0,100,175.0
3872,B-2,508.0,1.0,100,175.0
3873,C2,508.0,1.0,100,175.0
3874,B-2,508.0,1.0,100,175.0
3875,C2,508.0,1.0,100,175.0
3876,B-2,508.0,1.0,100,175.0
3877,C2,508.0,1.0,100,175.0
3878,B-2,508.0,1.0,100,175.0
3879,C2,508.0,1.0,100,175.0
3880,B-2,508.0,1.0,100,175.0
3881,C2,508.0,1.0,100,175.0
3882,B-2,508.0,1.0,100,175.0
3883,C2,508.0,1.0,100,175.0
3884,B-2,508.0,1.0,100,175.0
3885,G2,508.5,0.5,100,175.0
3886,G#2,508.5,0.5,100,175.0
3887,E-3,508.5,0.5,100,175.0
3888,G#2,509.0,0.5,100,175.0
3889,E2,509.0,667/1000,100,175.0
3890,E2,509.0,667/1000,100,175.0
3891,B-2,509.0,1.0,100,175.0
3892,B-2,509.0,1.0,100,175.0
3893,B-2,509.0,1.0,100,175.0
3894,B-2,509.0,1.0,100,175.0
3895,B-2,509.0,1.0,100,175.0
3896,B-2,509.0,1.0,100,175.0
3897,B-2,509.0,1.0,100,175.0
3898,G2,509.5,0.5,100,175.0
3899,D3,509.5,0.5,100,175.0
3900,B-2,510.0,0.5,100,175.0
3901,G#2,510.0,0.5,100,175.0
3902,E-3,510.0,0.5,100,175.0
3903,C2,510.0,1.0,100,175.0
3904,B-2,510.0,1.0,100,175.0
3905,C2,510.0,1.0,100,175.0
3906,B-2,510.0,1.0,100,175.0
3907,C2,510.0,1.0,100,175.0
3908,B-2,510.0,1.0,100,175.0
3909,C2,510.0,1.0,100,175.0
3910,B-2,510.0,1.0,100,175.0
3911,C2,510.0,1.0,100,175.0
3912,B-2,510.0,1.0,100,175.0
3913,C2,510.0,1.0,100,175.0
3914,B-2,510.0,1.0,100,175.0
3915,C2,510.0,1.0,100,175.0
3916,B-2,510.0,1.0,100,175.0
3917,B-2,510.5,0.5,100,175.0
3918,B-2,511.0,0.5,100,175.0
3919,G2,511.0,0.5,100,175.0
3920,D3,511.0,0.5,100,175.0
3921,D2,511.0,1.0,100,175.0
3922,B-2,511.0,1.0,100,175.0
3923,D2,511.0,1.0,100,175.0
3924,B-2,511.0,1.0,100,175.0
3925,D2,511.0,1.0,100,175.0
3926,B-2,511.0,1.0,100,175.0
3927,D2,511.0,1.0,100,175.0
3928,B-2,511.0,1.0,100,175.0
3929,D2,511.0,1.0,100,175.0
3930,B-2,511.0,1.0,100,175.0
3931,D2,511.0,1.0,100,175.0
3932,B-2,511.0,1.0,100,175.0
3933,D2,511.0,1.0,100,175.0
3934,B-2,511.0,1.0,100,175.0
3935,B-2,511.5,0.5,100,175.0
3936,G#2,511.5,0.5,100,175.0
3937,E-3,511.5,0.5,100,175.0
3938,G2,512.0,0.5,100,175.0
3939,A2,512.0,1333/1000,100,175.0
3940,D2,512.0,1333/1000,100,175.0
3941,C2,512.0,1.0,100,175.0
3942,B-2,512.0,1.0,100,175.0
3943,C2,512.0,1.0,100,175.0
3944,B-2,512.0,1.0,100,175.0
3945,A3,512.0,1.0,100,175.0
3946,C2,512.0,1.0,100,175.0
3947,B-2,512.0,1.0,100,175.0
3948,A3,512.0,1.0,100,175.0
3949,C2,512.0,1.0,100,175.0
3950,B-2,512.0,1.0,100,175.0
3951,A3,512.0,1.0,100,175.0
3952,G#2,512.5,0.5,100,175.0
3953,G2,512.5,0.5,100,175.0
3954,D3,512.5,0.5,100,175.0
3955,E2,513.0,333/1000,100,175.0
3956,E2,513.0,667/1000,100,175.0
3957,G#2,513.0,0.5,100,175.0
3958,E-3,513.0,0.5,100,175.0
3959,B-2,513.0,1.0,100,175.0
3960,D2,513.0,1.0,100,175.0
3961,B-2,513.0,1.0,100,175.0
3962,D2,513.0,1.0,100,175.0
3963,B-2,513.0,1.0,100,175.0
3964,D2,513.0,1.0,100,175.0
3965,B-2,513.0,1.0,100,175.0
3966,A2,513.25,1333/1000,100,175.0
3967,D2,513.25,1333/1000,100,175.0
3968,G2,513.5,0.5,100,175.0
3969,A3,513.5,0.5,100,175.0
3970,A3,513.5,0.5,100,175.0
3971,A3,513.5,0.5,100,175.0
3972,G#2,514.0,0.5,100,175.0
3973,B-2,514.0,0.5,100,175.0
3974,F3,514.0,0.5,100,175.0
3975,C2,514.0,1.0,100,175.0
3976,B-2,514.0,1.0,100,175.0
3977,C2,514.0,1.0,100,175.0
3978,B-2,514.0,1.0,100,175.0
3979,C2,514.0,1.0,100,175.0
3980,B-2,514.0,1.0,100,175.0
3981,C2,514.0,1.0,100,175.0
3982,B-2,514.0,1.0,100,175.0
3983,B-2,514.5,0.5,100,175.0
3984,F3,514.5,0.5,100,175.0
3985,G2,515.0,0.5,100,175.0
3986,B-2,515.0,0.5,100,175.0
3987,F3,515.0,0.5,100,175.0
3988,D2,515.0,1.0,100,175.0
3989,B-2,515.0,1.0,100,175.0
3990,D2,515.0,1.0,100,175.0
3991,B-2,515.0,1.0,100,175.0
3992,D2,515.0,1.0,100,175.0
3993,B-2,515.0,1.0,100,175.0
3994,D2,515.0,1.0,100,175.0
3995,B-2,515.0,1.0,100,175.0
3996,G#2,515.5,0.5,100,175.0
3997,B-2,515.5,0.5,100,175.0
3998,F3,515.5,0.5,100,175.0
3999,G2,516.0,0.5,100,175.0
4000,D3,516.0,0.5,100,175.0
4001,C2,516.0,1.0,100,175.0
4002,B-2,516.0,1.0,100,175.0
4003,C2,516.0,1.0,100,175.0
4004,B-2,516.0,1.0,100,175.0
4005,C2,516.0,1.0,100,175.0
4006,B-2,516.0,1.0,100,175.0
4007,C2,516.0,1.0,100,175.0
4008,B-2,516.0,1.0,100,175.0
4009,C2,516.0,1.0,100,175.0
4010,B-2,516.0,1.0,100,175.0
4011,C2,516.0,1.0,100,175.0
4012,B-2,516.0,1.0,100,175.0
4013,C2,516.0,1.0,100,175.0
4014,B-2,516.0,1.0,100,175.0
4015,C2,516.0,1.0,100,175.0
4016,B-2,516.0,1.0,100,175.0
4017,G2,516.5,0.5,100,175.0
4018,G#2,516.5,0.5,100,175.0
4019,E-3,516.5,0.5,100,175.0
4020,G#2,517.0,0.5,100,175.0
4021,E2,517.0,667/1000,100,175.0
4022,E2,517.0,667/1000,100,175.0
4023,B-2,517.0,1.0,100,175.0
4024,B-2,517.0,1.0,100,175.0
4025,B-2,517.0,1.0,100,175.0
4026,B-2,517.0,1.0,100,175.0
4027,B-2,517.0,1.0,100,175.0
4028,B-2,517.0,1.0,100,175.0
4029,B-2,517.0,1.0,100,175.0
4030,D2,517.0,1.0,100,175.0
4031,B-2,517.0,1.0,100,175.0
4032,G2,517.5,0.5,100,175.0
4033,D3,517.5,0.5,100,175.0
4034,B-2,518.0,0.5,100,175.0
4035,G#2,518.0,0.5,100,175.0
4036,E-3,518.0,0.5,100,175.0
4037,C2,518.0,1.0,100,175.0
4038,B-2,518.0,1.0,100,175.0
4039,C2,518.0,1.0,100,175.0
4040,B-2,518.0,1.0,100,175.0
4041,C2,518.0,1.0,100,175.0
4042,B-2,518.0,1.0,100,175.0
4043,C2,518.0,1.0,100,175.0
4044,B-2,518.0,1.0,100,175.0
4045,C2,518.0,1.0,100,175.0
4046,B-2,518.0,1.0,100,175.0
4047,C2,518.0,1.0,100,175.0
4048,B-2,518.0,1.0,100,175.0
4049,C2,518.0,1.0,100,175.0
4050,B-2,518.0,1.0,100,175.0
4051,C2,518.0,1.0,100,175.0
4052,B-2,518.0,1.0,100,175.0
4053,B-2,518.5,0.5,100,175.0
4054,B-2,519.0,0.5,100,175.0
4055,G2,519.0,0.5,100,175.0
4056,D3,519.0,0.5,100,175.0
4057,D2,519.0,1.0,100,175.0
4058,B-2,519.0,1.0,100,175.0
4059,D2,519.0,1.0,100,175.0
4060,B-2,519.0,1.0,100,175.0
4061,D2,519.0,1.0,100,175.0
4062,B-2,519.0,1.0,100,175.0
4063,D2,519.0,1.0,100,175.0
4064,B-2,519.0,1.0,100,175.0
4065,D2,519.0,1.0,100,175.0
4066,B-2,519.0,1.0,100,175.0
4067,D2,519.0,1.0,100,175.0
4068,B-2,519.0,1.0,100,175.0
4069,D2,519.0,1.0,100,175.0
4070,B-2,519.0,1.0,100,175.0
4071,D2,519.0,1.0,100,175.0
4072,B-2,519.0,1.0,100,175.0
4073,B-2,519.5,0.5,100,175.0
4074,G#2,519.5,0.5,100,175.0
4075,E-3,519.5,0.5,100,175.0
4076,G2,520.0,0.5,100,175.0
4077,A2,520.0,1333/1000,100,175.0
4078,D2,520.0,1333/1000,100,175.0
4079,C2,520.0,1.0,100,175.0
4080,B-2,520.0,1.0,100,175.0
4081,C2,520.0,1.0,100,175.0
4082,B-2,520.0,1.0,100,175.0
4083,A3,520.0,1.0,100,175.0
4084,C2,520.0,1.0,100,175.0
4085,B-2,520.0,1.0,100,175.0
4086,A3,520.0,1.0,100,175.0
4087,C2,520.0,1.0,100,175.0
4088,B-2,520.0,1.0,100,175.0
4089,A3,520.0,1.0,100,175.0
4090,G#2,520.5,0.5,100,175.0
4091,G2,520.5,0.5,100,175.0
4092,D3,520.5,0.5,100,175.0
4093,E2,521.0,333/1000,100,175.0
4094,E2,521.0,667/1000,100,175.0
4095,G#2,521.0,0.5,100,175.0
4096,E-3,521.0,0.5,100,175.0
4097,B-2,521.0,1.0,100,175.0
4098,D2,521.0,1.0,100,175.0
4099,B-2,521.0,1.0,100,175.0
4100,D2,521.0,1.0,100,175.0
4101,B-2,521.0,1.0,100,175.0
4102,D2,521.0,1.0,100,175.0
4103,B-2,521.0,1.0,100,175.0
4104,A2,521.25,1333/1000,100,175.0
4105,D2,521.25,1333/1000,100,175.0
4106,G2,521.5,0.5,100,175.0
4107,A3,521.5,0.5,100,175.0
4108,A3,521.5,0.5,100,175.0
4109,A3,521.5,0.5,100,175.0
4110,G#2,522.0,0.5,100,175.0
4111,B-2,522.0,0.5,100,175.0
4112,F3,522.0,0.5,100,175.0
4113,C2,522.0,1.0,100,175.0
4114,B-2,522.0,1.0,100,175.0
4115,C2,522.0,1.0,100,175.0
4116,B-2,522.0,1.0,100,175.0
4117,C2,522.0,1.0,100,175.0
4118,B-2,522.0,1.0,100,175.0
4119,C2,522.0,1.0,100,175.0
4120,B-2,522.0,1.0,100,175.0
4121,B-2,522.5,0.5,100,175.0
4122,F3,522.5,0.5,100,175.0
4123,G2,523.0,0.5,100,175.0
4124,B-2,523.0,0.5,100,175.0
4125,F3,523.0,0.5,100,175.0
4126,D2,523.0,1.0,100,175.0
4127,B-2,523.0,1.0,100,175.0
4128,D2,523.0,1.0,100,175.0
4129,B-2,523.0,1.0,100,175.0
4130,D2,523.0,1.0,100,175.0
4131,B-2,523.0,1.0,100,175.0
4132,D2,523.0,1.0,100,175.0
4133,B-2,523.0,1.0,100,175.0
4134,G#2,523.5,0.5,100,175.0
4135,B-2,523.5,0.5,100,175.0
4136,F3,523.5,0.5,100,175.0
4137,G2,524.0,0.5,100,175.0
4138,D3,524.0,0.5,100,175.0
4139,C2,524.0,1.0,100,175.0
4140,B-2,524.0,1.0,100,175.0
4141,C2,524.0,1.0,100,175.0
4142,B-2,524.0,1.0,100,175.0
4143,C2,524.0,1.0,100,175.0
4144,B-2,524.0,1.0,100,175.0
4145,C2,524.0,1.0,100,175.0
4146,B-2,524.0,1.0,100,175.0
4147,C2,524.0,1.0,100,175.0
4148,B-2,524.0,1.0,100,175.0
4149,C2,524.0,1.0,100,175.0
4150,B-2,524.0,1.0,100,175.0
4151,C2,524.0,1.0,100,175.0
4152,B-2,524.0,1.0,100,175.0
4153,C2,524.0,1.0,100,175.0
4154,B-2,524.0,1.0,100,175.0
4155,G2,524.5,0.5,100,175.0
4156,G#2,524.5,0.5,100,175.0
4157,E-3,524.5,0.5,100,175.0
4158,E2,525.0,667/1000,100,175.0
4159,G#2,525.0,0.5,100,175.0
4160,B-2,525.0,1.0,100,175.0
4161,B-2,525.0,1.0,100,175.0
4162,B-2,525.0,1.0,100,175.0
4163,B-2,525.0,1.0,100,175.0
4164,B-2,525.0,1.0,100,175.0
4165,B-2,525.0,1.0,100,175.0
4166,B-2,525.0,1.0,100,175.0
4167,B-2,525.0,1.0,100,175.0
4168,G2,525.5,0.5,100,175.0
4169,D3,525.5,0.5,100,175.0
4170,B-2,526.0,0.5,100,175.0
4171,G#2,526.0,0.5,100,175.0
4172,E-3,526.0,0.5,100,175.0
4173,C2,526.0,1.0,100,175.0
4174,B-2,526.0,1.0,100,175.0
4175,C2,526.0,1.0,100,175.0
4176,B-2,526.0,1.0,100,175.0
4177,C2,526.0,1.0,100,175.0
4178,B-2,526.0,1.0,100,175.0
4179,C2,526.0,1.0,100,175.0
4180,B-2,526.0,1.0,100,175.0
4181,C2,526.0,1.0,100,175.0
4182,B-2,526.0,1.0,100,175.0
4183,C2,526.0,1.0,100,175.0
4184,B-2,526.0,1.0,100,175.0
4185,C2,526.0,1.0,100,175.0
4186,B-2,526.0,1.0,100,175.0
4187,C2,526.0,1.0,100,175.0
4188,B-2,526.0,1.0,100,175.0
4189,B-2,526.5,0.5,100,175.0
4190,B-2,527.0,0.5,100,175.0
4191,G2,527.0,0.5,100,175.0
4192,D3,527.0,0.5,100,175.0
4193,D2,527.0,1.0,100,175.0
4194,B-2,527.0,1.0,100,175.0
4195,D2,527.0,1.0,100,175.0
4196,B-2,527.0,1.0,100,175.0
4197,D2,527.0,1.0,100,175.0
4198,B-2,527.0,1.0,100,175.0
4199,D2,527.0,1.0,100,175.0
4200,B-2,527.0,1.0,100,175.0
4201,D2,527.0,1.0,100,175.0
4202,B-2,527.0,1.0,100,175.0
4203,D2,527.0,1.0,100,175.0
4204,B-2,527.0,1.0,100,175.0
4205,D2,527.0,1.0,100,175.0
4206,B-2,527.0,1.0,100,175.0
4207,D2,527.0,1.0,100,175.0
4208,B-2,527.0,1.0,100,175.0
4209,B-2,527.5,0.5,100,175.0
4210,G#2,527.5,0.5,100,175.0
4211,E-3,527.5,0.5,100,175.0
4212,D5,528.0,4.0,100,175.0
4213,D5,528.0,4.0,100,175.0
4214,D5,528.0,4.0,100,175.0
4215,D3,528.0,4.0,100,175.0
4216,C2,528.0,1.0,100,175.0
4217,B-2,528.0,1.0,100,175.0
4218,C2,528.0,1.0,100,175.0
4219,B-2,528.0,1.0,100,175.0
4220,C2,528.0,1.0,100,175.0
4221,B-2,528.0,1.0,100,175.0
4222,C2,528.0,1.0,100,175.0
4223,B-2,528.0,1.0,100,175.0
4224,C2,528.0,1.0,100,175.0
4225,B-2,528.0,1.0,100,175.0
4226,C2,528.0,1.0,100,175.0
4227,B-2,528.0,1.0,100,175.0
4228,C2,528.0,1.0,100,175.0
4229,B-2,528.0,1.0,100,175.0
4230,C2,528.0,1.0,100,175.0
4231,B-2,528.0,1.0,100,175.0
4232,A3,528.0,1.0,100,175.0
4233,G2,528.5,0.5,100,175.0
4234,D3,528.5,0.5,100,175.0
4235,G#2,529.0,0.5,100,175.0
4236,E-3,529.0,0.5,100,175.0
4237,E2,529.0,667/1000,100,175.0
4238,E2,529.0,667/1000,100,175.0
4239,B-2,529.0,1.0,100,175.0
4240,B-2,529.0,1.0,100,175.0
4241,B-2,529.0,1.0,100,175.0
4242,B-2,529.0,1.0,100,175.0
4243,B-2,529.0,1.0,100,175.0
4244,B-2,529.0,1.0,100,175.0
4245,B-2,529.0,1.0,100,175.0
4246,B-2,529.0,1.0,100,175.0
4247,B-2,530.0,0.5,100,175.0
4248,F3,530.0,0.5,100,175.0
4249,C2,530.0,1.0,100,175.0
4250,B-2,530.0,1.0,100,175.0
4251,C2,530.0,1.0,100,175.0
4252,B-2,530.0,1.0,100,175.0
4253,C2,530.0,1.0,100,175.0
4254,B-2,530.0,1.0,100,175.0
4255,C2,530.0,1.0,100,175.0
4256,B-2,530.0,1.0,100,175.0
4257,C2,530.0,1.0,100,175.0
4258,B-2,530.0,1.0,100,175.0
4259,C2,530.0,1.0,100,175.0
4260,B-2,530.0,1.0,100,175.0
4261,C2,530.0,1.0,100,175.0
4262,B-2,530.0,1.0,100,175.0
4263,C2,530.0,1.0,100,175.0
4264,B-2,530.0,1.0,100,175.0
4265,B-2,530.5,0.5,100,175.0
4266,F3,530.5,0.5,100,175.0
4267,B-2,531.0,0.5,100,175.0
4268,F3,531.0,0.5,100,175.0
4269,D2,531.0,1.0,100,175.0
4270,B-2,531.0,1.0,100,175.0
4271,D2,531.0,1.0,100,175.0
4272,B-2,531.0,1.0,100,175.0
4273,D2,531.0,1.0,100,175.0
4274,B-2,531.0,1.0,100,175.0
4275,D2,531.0,1.0,100,175.0
4276,B-2,531.0,1.0,100,175.0
4277,D2,531.0,1.0,100,175.0
4278,B-2,531.0,1.0,100,175.0
4279,D2,531.0,1.0,100,175.0
4280,B-2,531.0,1.0,100,175.0
4281,D2,531.0,1.0,100,175.0
4282,B-2,531.0,1.0,100,175.0
4283,D2,531.0,1.0,100,175.0
4284,B-2,531.0,1.0,100,175.0
4285,B-2,531.5,0.5,100,175.0
4286,F3,531.5,0.5,100,175.0
4287,C#5,532.0,2.0,100,175.0
4288,C#5,532.0,2.0,100,175.0
4289,C#5,532.0,2.0,100,175.0
4290,C#3,532.0,2.0,100,175.0
4291,D3,532.0,4.0,100,175.0
4292,A3,532.0,4.0,100,175.0
4293,C2,532.0,1.0,100,175.0
4294,B-2,532.0,1.0,100,175.0
4295,C2,532.0,1.0,100,175.0
4296,B-2,532.0,1.0,100,175.0
4297,C2,532.0,1.0,100,175.0
4298,B-2,532.0,1.0,100,175.0
4299,C2,532.0,1.0,100,175.0
4300,B-2,532.0,1.0,100,175.0
4301,C2,532.0,1.0,100,175.0
4302,B-2,532.0,1.0,100,175.0
4303,C2,532.0,1.0,100,175.0
4304,B-2,532.0,1.0,100,175.0
4305,C2,532.0,1.0,100,175.0
4306,B-2,532.0,1.0,100,175.0
4307,C2,532.0,1.0,100,175.0
4308,B-2,532.0,1.0,100,175.0
4309,A3,532.0,1.0,100,175.0
4310,E2,533.0,667/1000,100,175.0
4311,E2,533.0,667/1000,100,175.0
4312,B-2,533.0,1.0,100,175.0
4313,B-2,533.0,1.0,100,175.0
4314,B-2,533.0,1.0,100,175.0
4315,B-2,533.0,1.0,100,175.0
4316,B-2,533.0,1.0,100,175.0
4317,B-2,533.0,1.0,100,175.0
4318,B-2,533.0,1.0,100,175.0
4319,B-2,533.0,1.0,100,175.0
4320,B-4,534.0,2.0,100,175.0
4321,B-4,534.0,2.0,100,175.0
4322,B-4,534.0,2.0,100,175.0
4323,B-2,534.0,2.0,100,175.0
4324,C2,534.0,1.0,100,175.0
4325,B-2,534.0,1.0,100,175.0
4326,C2,534.0,1.0,100,175.0
4327,B-2,534.0,1.0,100,175.0
4328,C2,534.0,1.0,100,175.0
4329,B-2,534.0,1.0,100,175.0
4330,C2,534.0,1.0,100,175.0
4331,B-2,534.0,1.0,100,175.0
4332,C2,534.0,1.0,100,175.0
4333,B-2,534.0,1.0,100,175.0
4334,C2,534.0,1.0,100,175.0
4335,B-2,534.0,1.0,100,175.0
4336,C2,534.0,1.0,100,175.0
4337,B-2,534.0,1.0,100,175.0
4338,C2,534.0,1.0,100,175.0
4339,B-2,534.0,1.0,100,175.0
4340,A3,534.0,1.0,100,175.0
4341,D2,535.0,1.0,100,175.0
4342,B-2,535.0,1.0,100,175.0
4343,D2,535.0,1.0,100,175.0
4344,B-2,535.0,1.0,100,175.0
4345,D2,535.0,1.0,100,175.0
4346,B-2,535.0,1.0,100,175.0
4347,D2,535.0,1.0,100,175.0
4348,B-2,535.0,1.0,100,175.0
4349,D2,535.0,1.0,100,175.0
4350,B-2,535.0,1.0,100,175.0
4351,D2,535.0,1.0,100,175.0
4352,B-2,535.0,1.0,100,175.0
4353,D2,535.0,1.0,100,175.0
4354,B-2,535.0,1.0,100,175.0
4355,D2,535.0,1.0,100,175.0
4356,B-2,535.0,1.0,100,175.0
4357,D5,536.0,4.0,100,175.0
4358,D5,536.0,4.0,100,175.0
4359,D5,536.0,4.0,100,175.0
4360,D3,536.0,4.0,100,175.0
4361,C#3,536.0,2.0,100,175.0
4362,G#3,536.0,2.0,100,175.0
4363,C2,536.0,1.0,100,175.0
4364,B-2,536.0,1.0,100,175.0
4365,C2,536.0,1.0,100,175.0
4366,B-2,536.0,1.0,100,175.0
4367,C2,536.0,1.0,100,175.0
4368,B-2,536.0,1.0,100,175.0
4369,C2,536.0,1.0,100,175.0
4370,B-2,536.0,1.0,100,175.0
4371,C2,536.0,1.0,100,175.0
4372,B-2,536.0,1.0,100,175.0
4373,C2,536.0,1.0,100,175.0
4374,B-2,536.0,1.0,100,175.0
4375,C2,536.0,1.0,100,175.0
4376,B-2,536.0,1.0,100,175.0
4377,C2,536.0,1.0,100,175.0
4378,B-2,536.0,1.0,100,175.0
4379,A3,536.0,1.0,100,175.0
4380,E2,537.0,667/1000,100,175.0
4381,E2,537.0,667/1000,100,175.0
4382,B-2,537.0,1.0,100,175.0
4383,B-2,537.0,1.0,100,175.0
4384,B-2,537.0,1.0,100,175.0
4385,B-2,537.0,1.0,100,175.0
4386,B-2,537.0,1.0,100,175.0
4387,B-2,537.0,1.0,100,175.0
4388,B-2,537.0,1.0,100,175.0
4389,B-2,537.0,1.0,100,175.0
4390,B-2,538.0,2.0,100,175.0
4391,F3,538.0,2.0,100,175.0
4392,C2,538.0,1.0,100,175.0
4393,B-2,538.0,1.0,100,175.0
4394,C2,538.0,1.0,100,175.0
4395,B-2,538.0,1.0,100,175.0
4396,C2,538.0,1.0,100,175.0
4397,B-2,538.0,1.0,100,175.0
4398,C2,538.0,1.0,100,175.0
4399,B-2,538.0,1.0,100,175.0
4400,C2,538.0,1.0,100,175.0
4401,B-2,538.0,1.0,100,175.0
4402,C2,538.0,1.0,100,175.0
4403,B-2,538.0,1.0,100,175.0
4404,C2,538.0,1.0,100,175.0
4405,B-2,538.0,1.0,100,175.0
4406,C2,538.0,1.0,100,175.0
4407,B-2,538.0,1.0,100,175.0
4408,D2,539.0,1.0,100,175.0
4409,B-2,539.0,1.0,100,175.0
4410,D2,539.0,1.0,100,175.0
4411,B-2,539.0,1.0,100,175.0
4412,D2,539.0,1.0,100,175.0
4413,B-2,539.0,1.0,100,175.0
4414,D2,539.0,1.0,100,175.0
4415,B-2,539.0,1.0,100,175.0
4416,D2,539.0,1.0,100,175.0
4417,B-2,539.0,1.0,100,175.0
4418,D2,539.0,1.0,100,175.0
4419,B-2,539.0,1.0,100,175.0
4420,D2,539.0,1.0,100,175.0
4421,B-2,539.0,1.0,100,175.0
4422,D2,539.0,1.0,100,175.0
4423,B-2,539.0,1.0,100,175.0
4424,C#5,540.0,2.0,100,175.0
4425,C#5,540.0,2.0,100,175.0
4426,C#5,540.0,2.0,100,175.0
4427,C#3,540.0,2.0,100,175.0
4428,D3,540.0,4.0,100,175.0
4429,A3,540.0,4.0,100,175.0
4430,C2,540.0,1.0,100,175.0
4431,B-2,540.0,1.0,100,175.0
4432,C2,540.0,1.0,100,175.0
4433,B-2,540.0,1.0,100,175.0
4434,C2,540.0,1.0,100,175.0
4435,B-2,540.0,1.0,100,175.0
4436,C2,540.0,1.0,100,175.0
4437,B-2,540.0,1.0,100,175.0
4438,C2,540.0,1.0,100,175.0
4439,B-2,540.0,1.0,100,175.0
4440,C2,540.0,1.0,100,175.0
4441,B-2,540.0,1.0,100,175.0
4442,C2,540.0,1.0,100,175.0
4443,B-2,540.0,1.0,100,175.0
4444,C2,540.0,1.0,100,175.0
4445,B-2,540.0,1.0,100,175.0
4446,A3,540.0,1.0,100,175.0
4447,E2,541.0,667/1000,100,175.0
4448,E2,541.0,667/1000,100,175.0
4449,B-2,541.0,1.0,100,175.0
4450,B-2,541.0,1.0,100,175.0
4451,B-2,541.0,1.0,100,175.0
4452,B-2,541.0,1.0,100,175.0
4453,B-2,541.0,1.0,100,175.0
4454,B-2,541.0,1.0,100,175.0
4455,B-2,541.0,1.0,100,175.0
4456,B-2,541.0,1.0,100,175.0
4457,B-4,542.0,2.0,100,175.0
4458,B-4,542.0,2.0,100,175.0
4459,B-4,542.0,2.0,100,175.0
4460,B-2,542.0,2.0,100,175.0
4461,C2,542.0,1.0,100,175.0
4462,B-2,542.0,1.0,100,175.0
4463,C2,542.0,1.0,100,175.0
4464,B-2,542.0,1.0,100,175.0
4465,C2,542.0,1.0,100,175.0
4466,B-2,542.0,1.0,100,175.0
4467,C2,542.0,1.0,100,175.0
4468,B-2,542.0,1.0,100,175.0
4469,C2,542.0,1.0,100,175.0
4470,B-2,542.0,1.0,100,175.0
4471,C2,542.0,1.0,100,175.0
4472,B-2,542.0,1.0,100,175.0
4473,C2,542.0,1.0,100,175.0
4474,B-2,542.0,1.0,100,175.0
4475,C2,542.0,1.0,100,175.0
4476,B-2,542.0,1.0,100,175.0
4477,A3,542.0,1.0,100,175.0
4478,D2,543.0,1.0,100,175.0
4479,B-2,543.0,1.0,100,175.0
4480,D2,543.0,1.0,100,175.0
4481,B-2,543.0,1.0,100,175.0
4482,D2,543.0,1.0,100,175.0
4483,B-2,543.0,1.0,100,175.0
4484,D2,543.0,1.0,100,175.0
4485,B-2,543.0,1.0,100,175.0
4486,D2,543.0,1.0,100,175.0
4487,B-2,543.0,1.0,100,175.0
4488,D2,543.0,1.0,100,175.0
4489,B-2,543.0,1.0,100,175.0
4490,D2,543.0,1.0,100,175.0
4491,B-2,543.0,1.0,100,175.0
4492,D2,543.0,1.0,100,175.0
4493,B-2,543.0,1.0,100,175.0
4494,D5,544.0,4.0,100,175.0
4495,D5,544.0,4.0,100,175.0
4496,D5,544.0,4.0,100,175.0
4497,D3,544.0,4.0,100,175.0
4498,C#3,544.0,2.0,100,175.0
4499,G#3,544.0,2.0,100,175.0
4500,C2,544.0,1.0,100,175.0
4501,B-2,544.0,1.0,100,175.0
4502,C2,544.0,1.0,100,175.0
4503,B-2,544.0,1.0,100,175.0
4504,C2,544.0,1.0,100,175.0
4505,B-2,544.0,1.0,100,175.0
4506,C2,544.0,1.0,100,175.0
4507,B-2,544.0,1.0,100,175.0
4508,C2,544.0,1.0,100,175.0
4509,B-2,544.0,1.0,100,175.0
4510,C2,544.0,1.0,100,175.0
4511,B-2,544.0,1.0,100,175.0
4512,C2,544.0,1.0,100,175.0
4513,B-2,544.0,1.0,100,175.0
4514,C2,544.0,1.0,100,175.0
4515,B-2,544.0,1.0,100,175.0
4516,A3,544.0,1.0,100,175.0
4517,E2,545.0,667/1000,100,175.0
4518,E2,545.0,667/1000,100,175.0
4519,B-2,545.0,1.0,100,175.0
4520,B-2,545.0,1.0,100,175.0
4521,B-2,545.0,1.0,100,175.0
4522,B-2,545.0,1.0,100,175.0
4523,B-2,545.0,1.0,100,175.0
4524,B-2,545.0,1.0,100,175.0
4525,B-2,545.0,1.0,100,175.0
4526,B-2,545.0,1.0,100,175.0
4527,B-2,546.0,2.0,100,175.0
4528,F3,546.0,2.0,100,175.0
4529,C2,546.0,1.0,100,175.0
4530,B-2,546.0,1.0,100,175.0
4531,C2,546.0,1.0,100,175.0
4532,B-2,546.0,1.0,100,175.0
4533,C2,546.0,1.0,100,175.0
4534,B-2,546.0,1.0,100,175.0
4535,C2,546.0,1.0,100,175.0
4536,B-2,546.0,1.0,100,175.0
4537,C2,546.0,1.0,100,175.0
4538,B-2,546.0,1.0,100,175.0
4539,C2,546.0,1.0,100,175.0
4540,B-2,546.0,1.0,100,175.0
4541,C2,546.0,1.0,100,175.0
4542,B-2,546.0,1.0,100,175.0
4543,C2,546.0,1.0,100,175.0
4544,B-2,546.0,1.0,100,175.0
4545,D2,547.0,1.0,100,175.0
4546,B-2,547.0,1.0,100,175.0
4547,D2,547.0,1.0,100,175.0
4548,B-2,547.0,1.0,100,175.0
4549,D2,547.0,1.0,100,175.0
4550,B-2,547.0,1.0,100,175.0
4551,D2,547.0,1.0,100,175.0
4552,B-2,547.0,1.0,100,175.0
4553,D2,547.0,1.0,100,175.0
4554,B-2,547.0,1.0,100,175.0
4555,D2,547.0,1.0,100,175.0
4556,B-2,547.0,1.0,100,175.0
4557,D2,547.0,1.0,100,175.0
4558,B-2,547.0,1.0,100,175.0
4559,D2,547.0,1.0,100,175.0
4560,B-2,547.0,1.0,100,175.0
4561,C#5,548.0,2.0,100,175.0
4562,C#5,548.0,2.0,100,175.0
4563,C#5,548.0,2.0,100,175.0
4564,C#3,548.0,2.0,100,175.0
4565,D3,548.0,4.0,100,175.0
4566,A3,548.0,4.0,100,175.0
4567,C2,548.0,1.0,100,175.0
4568,B-2,548.0,1.0,100,175.0
4569,C2,548.0,1.0,100,175.0
4570,B-2,548.0,1.0,100,175.0
4571,C2,548.0,1.0,100,175.0
4572,B-2,548.0,1.0,100,175.0
4573,C2,548.0,1.0,100,175.0
4574,B-2,548.0,1.0,100,175.0
4575,C2,548.0,1.0,100,175.0
4576,B-2,548.0,1.0,100,175.0
4577,C2,548.0,1.0,100,175.0
4578,B-2,548.0,1.0,100,175.0
4579,C2,548.0,1.0,100,175.0
4580,B-2,548.0,1.0,100,175.0
4581,C2,548.0,1.0,100,175.0
4582,B-2,548.0,1.0,100,175.0
4583,A3,548.0,1.0,100,175.0
4584,E2,549.0,667/1000,100,175.0
4585,E2,549.0,667/1000,100,175.0
4586,B-2,549.0,1.0,100,175.0
4587,B-2,549.0,1.0,100,175.0
4588,B-2,549.0,1.0,100,175.0
4589,B-2,549.0,1.0,100,175.0
4590,B-2,549.0,1.0,100,175.0
4591,B-2,549.0,1.0,100,175.0
4592,B-2,549.0,1.0,100,175.0
4593,D2,549.0,1.0,100,175.0
4594,B-2,549.0,1.0,100,175.0
4595,B-4,550.0,2.0,100,175.0
4596,B-4,550.0,2.0,100,175.0
4597,B-4,550.0,2.0,100,175.0
4598,A3,550.0,917/1000,100,175.0
4599,B-2,550.0,2.0,100,175.0
4600,D3,550.0,167/1000,100,175.0
4601,D3,550.0,167/1000,100,175.0
4602,C2,550.0,1.0,100,175.0
4603,B-2,550.0,1.0,100,175.0
4604,C2,550.0,1.0,100,175.0
4605,B-2,550.0,1.0,100,175.0
4606,C2,550.0,1.0,100,175.0
4607,B-2,550.0,1.0,100,175.0
4608,C2,550.0,1.0,100,175.0
4609,B-2,550.0,1.0,100,175.0
4610,C2,550.0,1.0,100,175.0
4611,B-2,550.0,1.0,100,175.0
4612,C2,550.0,1.0,100,175.0
4613,B-2,550.0,1.0,100,175.0
4614,C2,550.0,1.0,100,175.0
4615,B-2,550.0,1.0,100,175.0
4616,C2,550.0,1.0,100,175.0
4617,B-2,550.0,1.0,100,175.0
4618,F3,550.25,167/1000,100,175.0
4619,G2,550.25,333/1000,100,175.0
4620,C3,550.5,167/1000,100,175.0
4621,G2,550.5,167/1000,100,175.0
4622,A3,550.75,0.25,100,175.0
4623,E3,550.75,167/1000,100,175.0
4624,B2,550.75,167/1000,100,175.0
4625,D2,550.75,167/1000,100,175.0
4626,D2,551.0,1.0,100,175.0
4627,B-2,551.0,1.0,100,175.0
4628,D2,551.0,1.0,100,175.0
4629,B-2,551.0,1.0,100,175.0
4630,D2,551.0,1.0,100,175.0
4631,B-2,551.0,1.0,100,175.0
4632,D2,551.0,1.0,100,175.0
4633,B-2,551.0,1.0,100,175.0
4634,D2,551.0,1.0,100,175.0
4635,B-2,551.0,1.0,100,175.0
4636,D2,551.0,1.0,100,175.0
4637,B-2,551.0,1.0,100,175.0
4638,D2,551.0,1.0,100,175.0
4639,B-2,551.0,1.0,100,175.0
4640,D2,551.0,1.0,100,175.0
4641,B-2,551.0,1.0,100,175.0
4642,G2,551.5,167/1000,100,175.0
4643,D3,551.5,167/1000,100,175.0
4644,A3,551.75,167/1000,100,175.0
4645,G2,551.75,167/1000,100,175.0
4646,G4,552.0,2.0,100,175.0
4647,G4,552.0,2.0,100,175.0
4648,G4,552.0,2.0,100,175.0
4649,A3,552.0,4.0,100,175.0
4650,G2,552.0,4.0,100,175.0
4651,C#3,552.0,2.0,100,175.0
4652,G#3,552.0,2.0,100,175.0
4653,B-2,554.0,2.0,100,175.0
4654,F3,554.0,2.0,100,175.0
4655,G2,556.0,4.0,100,175.0
4656,D3,556.0,4.0,100,175.0
4657,E3,556.0,667/1000,100,175.0
4658,F2,556.0,667/1000,100,175.0
4659,C2,556.0,1.0,100,175.0
4660,G2,556.0,1.0,100,175.0
4661,D2,556.0,1.0,100,175.0
4662,C3,556.0,1.0,100,175.0
4663,A3,556.0,1.0,100,175.0
4664,D3,557.5,667/1000,100,175.0
4665,F3,557.5,667/1000,100,175.0
4666,F2,557.5,667/1000,100,175.0
4667,C2,557.5,0.5,100,175.0
4668,G2,557.5,0.5,100,175.0
4669,D2,557.5,0.5,100,175.0
4670,C3,557.5,0.5,100,175.0
4671,A3,557.5,0.5,100,175.0
