,note_name,start_time,duration,velocity,tempo
0,G3,0.0,1.75,95,75.0
1,C2,0.0,0.25,95,75.0
2,C2,0.25,0.25,95,75.0
3,C2,0.5,0.25,95,75.0
4,C2,0.75,0.25,95,75.0
5,C2,1.0,0.25,95,75.0
6,C2,1.25,0.25,95,75.0
7,C2,1.5,0.25,95,75.0
8,F#3,1.75,2.25,95,75.0
9,C2,1.75,0.25,95,75.0
10,C#2,2.0,0.25,95,75.0
11,C#2,2.25,0.25,95,75.0
12,C#2,2.5,0.25,95,75.0
13,C#2,2.75,0.25,95,75.0
14,C#2,3.0,0.25,95,75.0
15,C#2,3.25,0.25,95,75.0
16,C#2,3.5,0.25,95,75.0
17,C#2,3.75,0.25,95,75.0
18,G3,4.0,1.75,95,75.0
19,C2,4.0,0.25,95,75.0
20,C2,4.25,0.25,95,75.0
21,C2,4.5,0.25,95,75.0
22,C2,4.75,0.25,95,75.0
23,C2,5.0,0.25,95,75.0
24,C2,5.25,0.25,95,75.0
25,C2,5.5,0.25,95,75.0
26,F#3,5.75,1.25,95,75.0
27,C2,5.75,0.25,95,75.0
28,C#2,6.0,0.25,95,75.0
29,C#2,6.25,0.25,95,75.0
30,C#2,6.5,0.25,95,75.0
31,C#2,6.75,0.25,95,75.0
32,G3,7.0,0.25,95,75.0
33,E-2,7.0,0.25,95,75.0
34,B-3,7.25,0.75,86,75.0
35,E-2,7.25,0.25,95,75.0
36,E-2,7.5,0.25,95,75.0
37,E-2,7.75,0.25,95,75.0
38,G3,8.0,1.75,95,75.0
39,C2,8.0,0.25,95,75.0
40,C2,8.25,0.25,95,75.0
41,C2,8.5,0.25,95,75.0
42,C2,8.75,0.25,95,75.0
43,C2,9.0,0.25,95,75.0
44,C2,9.25,0.25,95,75.0
45,C2,9.5,0.25,95,75.0
46,F#3,9.75,2.25,95,75.0
47,C2,9.75,0.25,95,75.0
48,C#2,10.0,0.25,95,75.0
49,C#2,10.25,0.25,95,75.0
50,C#2,10.5,0.25,95,75.0
51,C#2,10.75,0.25,95,75.0
52,C#2,11.0,0.25,95,75.0
53,C#2,11.25,0.25,95,75.0
54,C#2,11.5,0.25,95,75.0
55,C#2,11.75,0.25,95,75.0
56,G3,12.0,1.75,95,75.0
57,C2,12.0,0.25,95,75.0
58,C2,12.25,0.25,95,75.0
59,C2,12.5,0.25,95,75.0
60,C2,12.75,0.25,95,75.0
61,C2,13.0,0.25,95,75.0
62,C2,13.25,0.25,95,75.0
63,C2,13.5,0.25,95,75.0
64,F#3,13.75,1.25,95,75.0
65,C2,13.75,0.25,95,75.0
66,C#2,14.0,0.25,95,75.0
67,C#2,14.25,0.25,95,75.0
68,C#2,14.5,0.25,95,75.0
69,C#2,14.75,0.25,95,75.0
70,C3,15.0,1.0,95,75.0
71,E-2,15.0,0.25,95,75.0
72,E-2,15.25,0.25,95,75.0
73,E-2,15.5,0.25,95,75.0
74,E-2,15.75,0.25,95,75.0
75,C2,16.0,0.25,95,75.0
76,G3,16.0,1.75,95,75.0
77,C2,16.0,0.25,95,75.0
78,G3,16.0,0.25,95,75.0
79,B1,16.0,0.25,95,75.0
80,C2,16.25,0.25,95,75.0
81,B1,16.25,0.25,95,75.0
82,C2,16.25,0.25,95,75.0
83,C2,16.5,0.25,95,75.0
84,C2,16.5,0.25,95,75.0
85,G3,16.5,0.25,95,75.0
86,B1,16.5,0.25,95,75.0
87,C2,16.75,0.25,95,75.0
88,B1,16.75,0.25,95,75.0
89,C2,16.75,0.25,95,75.0
90,C2,17.0,0.25,95,75.0
91,C2,17.0,0.25,95,75.0
92,G3,17.0,0.25,95,75.0
93,B1,17.0,0.25,95,75.0
94,C2,17.25,0.25,95,75.0
95,B1,17.25,0.25,95,75.0
96,C2,17.25,0.25,95,75.0
97,C2,17.5,0.25,95,75.0
98,C2,17.5,0.25,95,75.0
99,G3,17.5,0.25,95,75.0
100,B1,17.5,0.25,95,75.0
101,C2,17.75,0.25,95,75.0
102,B1,17.75,0.25,95,75.0
103,F#3,17.75,2.25,95,75.0
104,C2,17.75,0.25,95,75.0
105,C2,18.0,0.25,95,75.0
106,C2,18.0,0.25,95,75.0
107,G3,18.0,0.25,95,75.0
108,B1,18.0,0.25,95,75.0
109,C2,18.25,0.25,95,75.0
110,B1,18.25,0.25,95,75.0
111,C2,18.25,0.25,95,75.0
112,C2,18.5,0.25,95,75.0
113,C2,18.5,0.25,95,75.0
114,G3,18.5,0.25,95,75.0
115,B1,18.5,0.25,95,75.0
116,C2,18.75,0.25,95,75.0
117,B1,18.75,0.25,95,75.0
118,C2,18.75,0.25,95,75.0
119,C2,19.0,0.25,95,75.0
120,C2,19.0,0.25,95,75.0
121,G3,19.0,0.25,95,75.0
122,B1,19.0,0.25,95,75.0
123,C2,19.25,0.25,95,75.0
124,B1,19.25,0.25,95,75.0
125,C2,19.25,0.25,95,75.0
126,C2,19.5,0.25,95,75.0
127,C2,19.5,0.25,95,75.0
128,G3,19.5,0.25,95,75.0
129,B1,19.5,0.25,95,75.0
130,C2,19.75,0.25,95,75.0
131,B1,19.75,0.25,95,75.0
132,C2,19.75,0.25,95,75.0
133,C2,20.0,0.25,95,75.0
134,G3,20.0,1.75,95,75.0
135,C2,20.0,0.25,95,75.0
136,G3,20.0,0.25,95,75.0
137,B1,20.0,0.25,95,75.0
138,C2,20.25,0.25,95,75.0
139,B1,20.25,0.25,95,75.0
140,C2,20.25,0.25,95,75.0
141,C2,20.5,0.25,95,75.0
142,C2,20.5,0.25,95,75.0
143,G3,20.5,0.25,95,75.0
144,B1,20.5,0.25,95,75.0
145,C2,20.75,0.25,95,75.0
146,B1,20.75,0.25,95,75.0
147,C2,20.75,0.25,95,75.0
148,C2,21.0,0.25,95,75.0
149,C2,21.0,0.25,95,75.0
150,G3,21.0,0.25,95,75.0
151,B1,21.0,0.25,95,75.0
152,C2,21.25,0.25,95,75.0
153,B1,21.25,0.25,95,75.0
154,C2,21.25,0.25,95,75.0
155,C2,21.5,0.25,95,75.0
156,C2,21.5,0.25,95,75.0
157,G3,21.5,0.25,95,75.0
158,B1,21.5,0.25,95,75.0
159,C2,21.75,0.25,95,75.0
160,B1,21.75,0.25,95,75.0
161,F#3,21.75,1.25,95,75.0
162,C2,21.75,0.25,95,75.0
163,C#2,22.0,0.25,95,75.0
164,C#2,22.0,0.25,95,75.0
165,G3,22.0,0.25,95,75.0
166,B1,22.0,0.25,95,75.0
167,C#2,22.25,0.25,95,75.0
168,B1,22.25,0.25,95,75.0
169,C#2,22.25,0.25,95,75.0
170,C#2,22.5,0.25,95,75.0
171,C#2,22.5,0.25,95,75.0
172,G3,22.5,0.25,95,75.0
173,B1,22.5,0.25,95,75.0
174,C#2,22.75,0.25,95,75.0
175,B1,22.75,0.25,95,75.0
176,C#2,22.75,0.25,95,75.0
177,E-2,23.0,0.25,95,75.0
178,G3,23.0,0.25,95,75.0
179,E-2,23.0,0.25,95,75.0
180,G3,23.0,0.25,95,75.0
181,B1,23.0,0.25,95,75.0
182,E-2,23.25,0.25,95,75.0
183,B1,23.25,0.25,95,75.0
184,B-3,23.25,0.75,86,75.0
185,E-2,23.25,0.25,95,75.0
186,E-2,23.5,0.25,95,75.0
187,E-2,23.5,0.25,95,75.0
188,G3,23.5,0.25,95,75.0
189,B1,23.5,0.25,95,75.0
190,E-2,23.75,0.25,95,75.0
191,B1,23.75,0.25,95,75.0
192,E-2,23.75,0.25,95,75.0
193,C2,24.0,0.25,95,75.0
194,G3,24.0,1.75,95,75.0
195,C2,24.0,0.25,95,75.0
196,G3,24.0,0.25,95,75.0
197,B1,24.0,0.25,95,75.0
198,C2,24.25,0.25,95,75.0
199,B1,24.25,0.25,95,75.0
200,C2,24.25,0.25,95,75.0
201,C2,24.5,0.25,95,75.0
202,C2,24.5,0.25,95,75.0
203,G3,24.5,0.25,95,75.0
204,B1,24.5,0.25,95,75.0
205,C2,24.75,0.25,95,75.0
206,B1,24.75,0.25,95,75.0
207,C2,24.75,0.25,95,75.0
208,C2,25.0,0.25,95,75.0
209,C2,25.0,0.25,95,75.0
210,G3,25.0,0.25,95,75.0
211,B1,25.0,0.25,95,75.0
212,C2,25.25,0.25,95,75.0
213,B1,25.25,0.25,95,75.0
214,C2,25.25,0.25,95,75.0
215,C2,25.5,0.25,95,75.0
216,C2,25.5,0.25,95,75.0
217,G3,25.5,0.25,95,75.0
218,B1,25.5,0.25,95,75.0
219,C2,25.75,0.25,95,75.0
220,B1,25.75,0.25,95,75.0
221,F#3,25.75,2.25,95,75.0
222,C2,25.75,0.25,95,75.0
223,C2,26.0,0.25,95,75.0
224,C2,26.0,0.25,95,75.0
225,G3,26.0,0.25,95,75.0
226,B1,26.0,0.25,95,75.0
227,C2,26.25,0.25,95,75.0
228,B1,26.25,0.25,95,75.0
229,C2,26.25,0.25,95,75.0
230,C2,26.5,0.25,95,75.0
231,C2,26.5,0.25,95,75.0
232,G3,26.5,0.25,95,75.0
233,B1,26.5,0.25,95,75.0
234,C2,26.75,0.25,95,75.0
235,B1,26.75,0.25,95,75.0
236,C2,26.75,0.25,95,75.0
237,C2,27.0,0.25,95,75.0
238,C2,27.0,0.25,95,75.0
239,G3,27.0,0.25,95,75.0
240,B1,27.0,0.25,95,75.0
241,C2,27.25,0.25,95,75.0
242,B1,27.25,0.25,95,75.0
243,C2,27.25,0.25,95,75.0
244,C2,27.5,0.25,95,75.0
245,C2,27.5,0.25,95,75.0
246,G3,27.5,0.25,95,75.0
247,B1,27.5,0.25,95,75.0
248,C2,27.75,0.25,95,75.0
249,B1,27.75,0.25,95,75.0
250,C2,27.75,0.25,95,75.0
251,C2,28.0,0.25,95,75.0
252,D2,28.0,0.125,95,75.0
253,G3,28.0,1.75,95,75.0
254,C2,28.0,0.25,95,75.0
255,D2,28.125,0.125,95,75.0
256,C2,28.25,0.25,95,75.0
257,D2,28.25,0.125,95,75.0
258,C2,28.25,0.25,95,75.0
259,D2,28.375,0.125,95,75.0
260,C2,28.5,0.25,95,75.0
261,D2,28.5,0.125,95,75.0
262,C2,28.5,0.25,95,75.0
263,D2,28.625,0.125,95,75.0
264,C2,28.75,0.25,95,75.0
265,D2,28.75,0.125,95,75.0
266,C2,28.75,0.25,95,75.0
267,D2,28.875,0.125,95,75.0
268,C2,29.0,0.25,95,75.0
269,D2,29.0,0.125,95,75.0
270,C2,29.0,0.25,95,75.0
271,D2,29.125,0.125,95,75.0
272,C2,29.25,0.25,95,75.0
273,D2,29.25,0.125,95,75.0
274,C2,29.25,0.25,95,75.0
275,D2,29.375,0.125,95,75.0
276,C2,29.5,0.25,95,75.0
277,D2,29.5,0.125,95,75.0
278,C2,29.5,0.25,95,75.0
279,D2,29.625,0.125,95,75.0
280,C2,29.75,0.25,95,75.0
281,D2,29.75,0.125,95,75.0
282,F#3,29.75,1.25,95,75.0
283,C2,29.75,0.25,95,75.0
284,D2,29.875,0.125,95,75.0
285,C#2,30.0,0.25,95,75.0
286,D2,30.0,0.125,95,75.0
287,C#2,30.0,0.25,95,75.0
288,D2,30.125,0.125,95,75.0
289,C#2,30.25,0.25,95,75.0
290,D2,30.25,0.125,95,75.0
291,C#2,30.25,0.25,95,75.0
292,D2,30.375,0.125,95,75.0
293,C#2,30.5,0.25,95,75.0
294,D2,30.5,0.125,95,75.0
295,C#2,30.5,0.25,95,75.0
296,D2,30.625,0.125,95,75.0
297,C#2,30.75,0.25,95,75.0
298,D2,30.75,0.125,95,75.0
299,C#2,30.75,0.25,95,75.0
300,D2,30.875,0.125,95,75.0
301,E-2,31.0,0.25,95,75.0
302,D2,31.0,0.125,95,75.0
303,C3,31.0,1.0,95,75.0
304,E-2,31.0,0.25,95,75.0
305,D2,31.125,0.125,95,75.0
306,E-2,31.25,0.25,95,75.0
307,D2,31.25,0.125,95,75.0
308,E-2,31.25,0.25,95,75.0
309,D2,31.375,0.125,95,75.0
310,E-2,31.5,0.25,95,75.0
311,D2,31.5,0.125,95,75.0
312,E-2,31.5,0.25,95,75.0
313,D2,31.625,0.125,95,75.0
314,E-2,31.75,0.25,95,75.0
315,D2,31.75,0.125,95,75.0
316,E-2,31.75,0.25,95,75.0
317,D2,31.875,0.125,95,75.0
318,C1,32.0,0.25,95,75.0
319,G3,32.0,1.75,95,75.0
320,G2,32.0,0.25,95,75.0
321,C2,32.0,0.25,95,75.0
322,A3,32.0,0.25,95,75.0
323,C2,32.0,0.25,95,75.0
324,C2,32.25,0.25,95,75.0
325,C1,32.25,0.25,95,75.0
326,G2,32.25,0.25,95,75.0
327,C2,32.25,0.25,95,75.0
328,C1,32.5,0.25,95,75.0
329,G2,32.5,0.25,95,75.0
330,C2,32.5,0.25,95,75.0
331,G3,32.5,0.25,95,75.0
332,D2,32.5,0.25,95,75.0
333,C2,32.75,0.25,95,75.0
334,C1,32.75,0.25,95,75.0
335,G2,32.75,0.25,95,75.0
336,C2,32.75,0.25,95,75.0
337,C1,33.0,0.25,95,75.0
338,G2,33.0,0.25,95,75.0
339,C2,33.0,0.25,95,75.0
340,G3,33.0,0.25,95,75.0
341,C2,33.0,0.25,95,75.0
342,C2,33.25,0.25,95,75.0
343,C1,33.25,0.25,95,75.0
344,G2,33.25,0.25,95,75.0
345,C2,33.25,0.25,95,75.0
346,C1,33.5,0.25,95,75.0
347,G2,33.5,0.25,95,75.0
348,C2,33.5,0.25,95,75.0
349,G3,33.5,0.25,95,75.0
350,D2,33.5,0.25,95,75.0
351,C2,33.75,0.25,95,75.0
352,C1,33.75,0.25,95,75.0
353,F#3,33.75,2.25,95,75.0
354,G2,33.75,0.25,95,75.0
355,C2,33.75,0.25,95,75.0
356,C1,34.0,0.25,95,75.0
357,G2,34.0,0.25,95,75.0
358,C2,34.0,0.25,95,75.0
359,G3,34.0,0.25,95,75.0
360,C2,34.0,0.25,95,75.0
361,C2,34.25,0.25,95,75.0
362,C1,34.25,0.25,95,75.0
363,G2,34.25,0.25,95,75.0
364,C2,34.25,0.25,95,75.0
365,C1,34.5,0.25,95,75.0
366,G2,34.5,0.25,95,75.0
367,C2,34.5,0.25,95,75.0
368,G3,34.5,0.25,95,75.0
369,D2,34.5,0.25,95,75.0
370,C2,34.75,0.25,95,75.0
371,C1,34.75,0.25,95,75.0
372,G2,34.75,0.25,95,75.0
373,C2,34.75,0.25,95,75.0
374,C1,35.0,0.25,95,75.0
375,G2,35.0,0.25,95,75.0
376,C2,35.0,0.25,95,75.0
377,G3,35.0,0.25,95,75.0
378,C2,35.0,0.25,95,75.0
379,C2,35.25,0.25,95,75.0
380,C1,35.25,0.25,95,75.0
381,G2,35.25,0.25,95,75.0
382,C2,35.25,0.25,95,75.0
383,C1,35.5,0.25,95,75.0
384,G2,35.5,0.25,95,75.0
385,C2,35.5,0.25,95,75.0
386,G3,35.5,0.25,95,75.0
387,D2,35.5,0.25,95,75.0
388,C2,35.75,0.25,95,75.0
389,C1,35.75,0.25,95,75.0
390,G2,35.75,0.25,95,75.0
391,C2,35.75,0.25,95,75.0
392,C1,36.0,0.25,95,75.0
393,G3,36.0,1.75,95,75.0
394,G2,36.0,0.25,95,75.0
395,C2,36.0,0.25,95,75.0
396,A3,36.0,0.25,95,75.0
397,C2,36.0,0.25,95,75.0
398,C2,36.25,0.25,95,75.0
399,C1,36.25,0.25,95,75.0
400,G2,36.25,0.25,95,75.0
401,C2,36.25,0.25,95,75.0
402,C1,36.5,0.25,95,75.0
403,G2,36.5,0.25,95,75.0
404,C2,36.5,0.25,95,75.0
405,G3,36.5,0.25,95,75.0
406,D2,36.5,0.25,95,75.0
407,C2,36.75,0.25,95,75.0
408,C1,36.75,0.25,95,75.0
409,G2,36.75,0.25,95,75.0
410,C2,36.75,0.25,95,75.0
411,C1,37.0,0.25,95,75.0
412,G2,37.0,0.25,95,75.0
413,C2,37.0,0.25,95,75.0
414,G3,37.0,0.25,95,75.0
415,C2,37.0,0.25,95,75.0
416,C2,37.25,0.25,95,75.0
417,C1,37.25,0.25,95,75.0
418,G2,37.25,0.25,95,75.0
419,C2,37.25,0.25,95,75.0
420,C1,37.5,0.25,95,75.0
421,G2,37.5,0.25,95,75.0
422,C2,37.5,0.25,95,75.0
423,G3,37.5,0.25,95,75.0
424,D2,37.5,0.25,95,75.0
425,C2,37.75,0.25,95,75.0
426,C1,37.75,0.25,95,75.0
427,F#3,37.75,1.25,95,75.0
428,G2,37.75,0.25,95,75.0
429,C2,37.75,0.25,95,75.0
430,C1,38.0,0.25,95,75.0
431,G2,38.0,0.25,95,75.0
432,C2,38.0,0.25,95,75.0
433,G3,38.0,0.25,95,75.0
434,C2,38.0,0.25,95,75.0
435,C2,38.25,0.25,95,75.0
436,C1,38.25,0.25,95,75.0
437,G2,38.25,0.25,95,75.0
438,C2,38.25,0.25,95,75.0
439,C1,38.5,0.25,95,75.0
440,G2,38.5,0.25,95,75.0
441,C2,38.5,0.25,95,75.0
442,G3,38.5,0.25,95,75.0
443,D2,38.5,0.25,95,75.0
444,C2,38.75,0.25,95,75.0
445,C1,38.75,0.25,95,75.0
446,G2,38.75,0.25,95,75.0
447,C2,38.75,0.25,95,75.0
448,C1,39.0,0.25,95,75.0
449,G3,39.0,0.25,95,75.0
450,G2,39.0,0.25,95,75.0
451,C2,39.0,0.25,95,75.0
452,G3,39.0,0.25,95,75.0
453,C2,39.0,0.25,95,75.0
454,C2,39.25,0.25,95,75.0
455,C1,39.25,0.25,95,75.0
456,B-3,39.25,0.75,86,75.0
457,G2,39.25,0.25,95,75.0
458,C2,39.25,0.25,95,75.0
459,C1,39.5,0.25,95,75.0
460,G2,39.5,0.25,95,75.0
461,C2,39.5,0.25,95,75.0
462,G3,39.5,0.25,95,75.0
463,D2,39.5,0.25,95,75.0
464,C2,39.75,0.25,95,75.0
465,C1,39.75,0.25,95,75.0
466,G2,39.75,0.25,95,75.0
467,C2,39.75,0.25,95,75.0
468,C1,40.0,0.25,95,75.0
469,G3,40.0,1.75,95,75.0
470,G2,40.0,0.25,95,75.0
471,C2,40.0,0.25,95,75.0
472,A3,40.0,0.25,95,75.0
473,C2,40.0,0.25,95,75.0
474,C2,40.25,0.25,95,75.0
475,C1,40.25,0.25,95,75.0
476,G2,40.25,0.25,95,75.0
477,C2,40.25,0.25,95,75.0
478,C1,40.5,0.25,95,75.0
479,G2,40.5,0.25,95,75.0
480,C2,40.5,0.25,95,75.0
481,G3,40.5,0.25,95,75.0
482,D2,40.5,0.25,95,75.0
483,C2,40.75,0.25,95,75.0
484,C1,40.75,0.25,95,75.0
485,G2,40.75,0.25,95,75.0
486,C2,40.75,0.25,95,75.0
487,C1,41.0,0.25,95,75.0
488,G2,41.0,0.25,95,75.0
489,C2,41.0,0.25,95,75.0
490,G3,41.0,0.25,95,75.0
491,C2,41.0,0.25,95,75.0
492,C2,41.25,0.25,95,75.0
493,C1,41.25,0.25,95,75.0
494,G2,41.25,0.25,95,75.0
495,C2,41.25,0.25,95,75.0
496,C1,41.5,0.25,95,75.0
497,G2,41.5,0.25,95,75.0
498,C2,41.5,0.25,95,75.0
499,G3,41.5,0.25,95,75.0
500,D2,41.5,0.25,95,75.0
501,C1,41.75,0.25,95,75.0
502,F#3,41.75,2.25,95,75.0
503,G2,41.75,0.25,95,75.0
504,C2,41.75,0.25,95,75.0
505,C1,42.0,0.25,95,75.0
506,G2,42.0,0.25,95,75.0
507,C2,42.0,0.25,95,75.0
508,G3,42.0,0.25,95,75.0
509,C2,42.0,0.25,95,75.0
510,C2,42.25,0.25,95,75.0
511,C1,42.25,0.25,95,75.0
512,G2,42.25,0.25,95,75.0
513,C2,42.25,0.25,95,75.0
514,C1,42.5,0.25,95,75.0
515,G2,42.5,0.25,95,75.0
516,C2,42.5,0.25,95,75.0
517,G3,42.5,0.25,95,75.0
518,D2,42.5,0.25,95,75.0
519,C2,42.75,0.25,95,75.0
520,C1,42.75,0.25,95,75.0
521,G2,42.75,0.25,95,75.0
522,C2,42.75,0.25,95,75.0
523,C1,43.0,0.25,95,75.0
524,G2,43.0,0.25,95,75.0
525,C2,43.0,0.25,95,75.0
526,G3,43.0,0.25,95,75.0
527,C2,43.0,0.25,95,75.0
528,C1,43.25,0.25,95,75.0
529,G2,43.25,0.25,95,75.0
530,C2,43.25,0.25,95,75.0
531,C1,43.5,0.25,95,75.0
532,G2,43.5,0.25,95,75.0
533,C2,43.5,0.25,95,75.0
534,G3,43.5,0.25,95,75.0
535,D2,43.5,0.25,95,75.0
536,C2,43.75,0.25,95,75.0
537,C1,43.75,0.25,95,75.0
538,G2,43.75,0.25,95,75.0
539,C2,43.75,0.25,95,75.0
540,C1,44.0,0.25,95,75.0
541,G3,44.0,1.75,95,75.0
542,G2,44.0,0.25,95,75.0
543,C2,44.0,0.25,95,75.0
544,A3,44.0,0.25,95,75.0
545,C2,44.0,0.25,95,75.0
546,C2,44.25,0.25,95,75.0
547,C1,44.25,0.25,95,75.0
548,G2,44.25,0.25,95,75.0
549,C2,44.25,0.25,95,75.0
550,C1,44.5,0.25,95,75.0
551,G2,44.5,0.25,95,75.0
552,C2,44.5,0.25,95,75.0
553,G3,44.5,0.25,95,75.0
554,D2,44.5,0.25,95,75.0
555,C2,44.75,0.25,95,75.0
556,C1,44.75,0.25,95,75.0
557,G2,44.75,0.25,95,75.0
558,C2,44.75,0.25,95,75.0
559,C1,45.0,0.25,95,75.0
560,G2,45.0,0.25,95,75.0
561,C2,45.0,0.25,95,75.0
562,G3,45.0,0.25,95,75.0
563,C2,45.0,0.25,95,75.0
564,C2,45.25,0.25,95,75.0
565,C1,45.25,0.25,95,75.0
566,G2,45.25,0.25,95,75.0
567,C2,45.25,0.25,95,75.0
568,C1,45.5,0.25,95,75.0
569,G2,45.5,0.25,95,75.0
570,C2,45.5,0.25,95,75.0
571,G3,45.5,0.25,95,75.0
572,D2,45.5,0.25,95,75.0
573,C2,45.75,0.25,95,75.0
574,C1,45.75,0.25,95,75.0
575,F#3,45.75,1.25,95,75.0
576,G2,45.75,0.25,95,75.0
577,C2,45.75,0.25,95,75.0
578,C1,46.0,0.25,95,75.0
579,G2,46.0,0.25,95,75.0
580,C2,46.0,0.25,95,75.0
581,G3,46.0,0.25,95,75.0
582,C2,46.0,0.25,95,75.0
583,C2,46.25,0.25,95,75.0
584,C1,46.25,0.25,95,75.0
585,G2,46.25,0.25,95,75.0
586,C2,46.25,0.25,95,75.0
587,C1,46.5,0.25,95,75.0
588,G2,46.5,0.25,95,75.0
589,C2,46.5,0.25,95,75.0
590,G3,46.5,0.25,95,75.0
591,D2,46.5,0.25,95,75.0
592,C2,46.75,0.25,95,75.0
593,C1,46.75,0.25,95,75.0
594,G2,46.75,0.25,95,75.0
595,C2,46.75,0.25,95,75.0
596,D2,47.0,0.125,95,75.0
597,C1,47.0,0.25,95,75.0
598,G3,47.0,0.25,95,75.0
599,G2,47.0,0.25,95,75.0
600,C2,47.0,0.25,95,75.0
601,D2,47.125,0.125,95,75.0
602,D2,47.25,0.125,95,75.0
603,C1,47.25,0.25,95,75.0
604,B-3,47.25,0.75,86,75.0
605,G2,47.25,0.25,95,75.0
606,C2,47.25,0.25,95,75.0
607,D2,47.375,0.125,95,75.0
608,D2,47.5,0.125,95,75.0
609,C1,47.5,0.25,95,75.0
610,G2,47.5,0.25,95,75.0
611,C2,47.5,0.25,95,75.0
612,D2,47.625,0.125,95,75.0
613,D2,47.75,0.125,95,75.0
614,C1,47.75,0.25,95,75.0
615,G2,47.75,0.25,95,75.0
616,C2,47.75,0.25,95,75.0
617,D2,47.875,0.125,95,75.0
618,C1,48.0,0.25,95,75.0
619,G3,48.0,1.75,95,75.0
620,G2,48.0,0.25,95,75.0
621,C2,48.0,0.25,95,75.0
622,A3,48.0,0.25,95,75.0
623,C2,48.0,0.25,95,75.0
624,C2,48.25,0.25,95,75.0
625,C1,48.25,0.25,95,75.0
626,G2,48.25,0.25,95,75.0
627,C2,48.25,0.25,95,75.0
628,C1,48.5,0.25,95,75.0
629,G2,48.5,0.25,95,75.0
630,C2,48.5,0.25,95,75.0
631,G3,48.5,0.25,95,75.0
632,D2,48.5,0.25,95,75.0
633,C2,48.75,0.25,95,75.0
634,C1,48.75,0.25,95,75.0
635,G2,48.75,0.25,95,75.0
636,C2,48.75,0.25,95,75.0
637,C1,49.0,0.25,95,75.0
638,G2,49.0,0.25,95,75.0
639,C2,49.0,0.25,95,75.0
640,G3,49.0,0.25,95,75.0
641,C2,49.0,0.25,95,75.0
642,C2,49.25,0.25,95,75.0
643,C1,49.25,0.25,95,75.0
644,G2,49.25,0.25,95,75.0
645,C2,49.25,0.25,95,75.0
646,C1,49.5,0.25,95,75.0
647,G2,49.5,0.25,95,75.0
648,C2,49.5,0.25,95,75.0
649,G3,49.5,0.25,95,75.0
650,D2,49.5,0.25,95,75.0
651,C2,49.75,0.25,95,75.0
652,C1,49.75,0.25,95,75.0
653,F#3,49.75,2.25,95,75.0
654,G2,49.75,0.25,95,75.0
655,C2,49.75,0.25,95,75.0
656,C1,50.0,0.25,95,75.0
657,G2,50.0,0.25,95,75.0
658,C2,50.0,0.25,95,75.0
659,G3,50.0,0.25,95,75.0
660,C2,50.0,0.25,95,75.0
661,C2,50.25,0.25,95,75.0
662,C1,50.25,0.25,95,75.0
663,G2,50.25,0.25,95,75.0
664,C2,50.25,0.25,95,75.0
665,C1,50.5,0.25,95,75.0
666,G2,50.5,0.25,95,75.0
667,C2,50.5,0.25,95,75.0
668,G3,50.5,0.25,95,75.0
669,D2,50.5,0.25,95,75.0
670,C2,50.75,0.25,95,75.0
671,C1,50.75,0.25,95,75.0
672,G2,50.75,0.25,95,75.0
673,C2,50.75,0.25,95,75.0
674,C1,51.0,0.25,95,75.0
675,G2,51.0,0.25,95,75.0
676,C2,51.0,0.25,95,75.0
677,G3,51.0,0.25,95,75.0
678,C2,51.0,0.25,95,75.0
679,C2,51.25,0.25,95,75.0
680,C1,51.25,0.25,95,75.0
681,G2,51.25,0.25,95,75.0
682,C2,51.25,0.25,95,75.0
683,C1,51.5,0.25,95,75.0
684,G2,51.5,0.25,95,75.0
685,C2,51.5,0.25,95,75.0
686,G3,51.5,0.25,95,75.0
687,D2,51.5,0.25,95,75.0
688,C2,51.75,0.25,95,75.0
689,C1,51.75,0.25,95,75.0
690,G2,51.75,0.25,95,75.0
691,C2,51.75,0.25,95,75.0
692,C1,52.0,0.25,95,75.0
693,G3,52.0,1.75,95,75.0
694,G2,52.0,0.25,95,75.0
695,C2,52.0,0.25,95,75.0
696,A3,52.0,0.25,95,75.0
697,C2,52.0,0.25,95,75.0
698,C2,52.25,0.25,95,75.0
699,C1,52.25,0.25,95,75.0
700,G2,52.25,0.25,95,75.0
701,C2,52.25,0.25,95,75.0
702,C1,52.5,0.25,95,75.0
703,G2,52.5,0.25,95,75.0
704,C2,52.5,0.25,95,75.0
705,G3,52.5,0.25,95,75.0
706,D2,52.5,0.25,95,75.0
707,C2,52.75,0.25,95,75.0
708,C1,52.75,0.25,95,75.0
709,G2,52.75,0.25,95,75.0
710,C2,52.75,0.25,95,75.0
711,C1,53.0,0.25,95,75.0
712,G2,53.0,0.25,95,75.0
713,C2,53.0,0.25,95,75.0
714,G3,53.0,0.25,95,75.0
715,C2,53.0,0.25,95,75.0
716,C2,53.25,0.25,95,75.0
717,C1,53.25,0.25,95,75.0
718,G2,53.25,0.25,95,75.0
719,C2,53.25,0.25,95,75.0
720,C1,53.5,0.25,95,75.0
721,G2,53.5,0.25,95,75.0
722,C2,53.5,0.25,95,75.0
723,G3,53.5,0.25,95,75.0
724,D2,53.5,0.25,95,75.0
725,C2,53.75,0.25,95,75.0
726,C1,53.75,0.25,95,75.0
727,F#3,53.75,1.25,95,75.0
728,G2,53.75,0.25,95,75.0
729,C2,53.75,0.25,95,75.0
730,C1,54.0,0.25,95,75.0
731,G2,54.0,0.25,95,75.0
732,C2,54.0,0.25,95,75.0
733,G3,54.0,0.25,95,75.0
734,C2,54.0,0.25,95,75.0
735,C2,54.25,0.25,95,75.0
736,C1,54.25,0.25,95,75.0
737,G2,54.25,0.25,95,75.0
738,C2,54.25,0.25,95,75.0
739,C1,54.5,0.25,95,75.0
740,G2,54.5,0.25,95,75.0
741,C2,54.5,0.25,95,75.0
742,G3,54.5,0.25,95,75.0
743,D2,54.5,0.25,95,75.0
744,C2,54.75,0.25,95,75.0
745,C1,54.75,0.25,95,75.0
746,G2,54.75,0.25,95,75.0
747,C2,54.75,0.25,95,75.0
748,C1,55.0,0.25,95,75.0
749,G3,55.0,0.25,95,75.0
750,G2,55.0,0.25,95,75.0
751,C2,55.0,0.25,95,75.0
752,G3,55.0,0.25,95,75.0
753,C2,55.0,0.25,95,75.0
754,C2,55.25,0.25,95,75.0
755,C1,55.25,0.25,95,75.0
756,B-3,55.25,0.75,86,75.0
757,G2,55.25,0.25,95,75.0
758,C2,55.25,0.25,95,75.0
759,C1,55.5,0.25,95,75.0
760,G2,55.5,0.25,95,75.0
761,C2,55.5,0.25,95,75.0
762,G3,55.5,0.25,95,75.0
763,D2,55.5,0.25,95,75.0
764,C2,55.75,0.25,95,75.0
765,C1,55.75,0.25,95,75.0
766,G2,55.75,0.25,95,75.0
767,C2,55.75,0.25,95,75.0
768,C1,56.0,0.25,95,75.0
769,G3,56.0,1.75,95,75.0
770,G2,56.0,0.25,95,75.0
771,C2,56.0,0.25,95,75.0
772,A3,56.0,0.25,95,75.0
773,C2,56.0,0.25,95,75.0
774,C2,56.25,0.25,95,75.0
775,C1,56.25,0.25,95,75.0
776,G2,56.25,0.25,95,75.0
777,C2,56.25,0.25,95,75.0
778,C1,56.5,0.25,95,75.0
779,G2,56.5,0.25,95,75.0
780,C2,56.5,0.25,95,75.0
781,G3,56.5,0.25,95,75.0
782,D2,56.5,0.25,95,75.0
783,C2,56.75,0.25,95,75.0
784,C1,56.75,0.25,95,75.0
785,G2,56.75,0.25,95,75.0
786,C2,56.75,0.25,95,75.0
787,C1,57.0,0.25,95,75.0
788,G2,57.0,0.25,95,75.0
789,C2,57.0,0.25,95,75.0
790,G3,57.0,0.25,95,75.0
791,C2,57.0,0.25,95,75.0
792,C2,57.25,0.25,95,75.0
793,C1,57.25,0.25,95,75.0
794,G2,57.25,0.25,95,75.0
795,C2,57.25,0.25,95,75.0
796,C1,57.5,0.25,95,75.0
797,G2,57.5,0.25,95,75.0
798,C2,57.5,0.25,95,75.0
799,G3,57.5,0.25,95,75.0
800,D2,57.5,0.25,95,75.0
801,C1,57.75,0.25,95,75.0
802,F#3,57.75,2.25,95,75.0
803,G2,57.75,0.25,95,75.0
804,C2,57.75,0.25,95,75.0
805,C1,58.0,0.25,95,75.0
806,G2,58.0,0.25,95,75.0
807,C2,58.0,0.25,95,75.0
808,G3,58.0,0.25,95,75.0
809,C2,58.0,0.25,95,75.0
810,C2,58.25,0.25,95,75.0
811,C1,58.25,0.25,95,75.0
812,G2,58.25,0.25,95,75.0
813,C2,58.25,0.25,95,75.0
814,C1,58.5,0.25,95,75.0
815,G2,58.5,0.25,95,75.0
816,C2,58.5,0.25,95,75.0
817,G3,58.5,0.25,95,75.0
818,D2,58.5,0.25,95,75.0
819,C2,58.75,0.25,95,75.0
820,C1,58.75,0.25,95,75.0
821,G2,58.75,0.25,95,75.0
822,C2,58.75,0.25,95,75.0
823,C1,59.0,0.25,95,75.0
824,G2,59.0,0.25,95,75.0
825,C2,59.0,0.25,95,75.0
826,G3,59.0,0.25,95,75.0
827,C2,59.0,0.25,95,75.0
828,C1,59.25,0.25,95,75.0
829,G2,59.25,0.25,95,75.0
830,C2,59.25,0.25,95,75.0
831,C1,59.5,0.25,95,75.0
832,G2,59.5,0.25,95,75.0
833,C2,59.5,0.25,95,75.0
834,G3,59.5,0.25,95,75.0
835,D2,59.5,0.25,95,75.0
836,C2,59.75,0.25,95,75.0
837,C1,59.75,0.25,95,75.0
838,G2,59.75,0.25,95,75.0
839,C2,59.75,0.25,95,75.0
840,C1,60.0,0.25,95,75.0
841,G3,60.0,1.75,95,75.0
842,G2,60.0,0.25,95,75.0
843,C2,60.0,0.25,95,75.0
844,A3,60.0,0.25,95,75.0
845,C2,60.0,0.25,95,75.0
846,C2,60.25,0.25,95,75.0
847,C1,60.25,0.25,95,75.0
848,G2,60.25,0.25,95,75.0
849,C2,60.25,0.25,95,75.0
850,C1,60.5,0.25,95,75.0
851,G2,60.5,0.25,95,75.0
852,C2,60.5,0.25,95,75.0
853,G3,60.5,0.25,95,75.0
854,D2,60.5,0.25,95,75.0
855,C2,60.75,0.25,95,75.0
856,C1,60.75,0.25,95,75.0
857,G2,60.75,0.25,95,75.0
858,C2,60.75,0.25,95,75.0
859,C1,61.0,0.25,95,75.0
860,G2,61.0,0.25,95,75.0
861,C2,61.0,0.25,95,75.0
862,G3,61.0,0.25,95,75.0
863,C2,61.0,0.25,95,75.0
864,C2,61.25,0.25,95,75.0
865,C1,61.25,0.25,95,75.0
866,G2,61.25,0.25,95,75.0
867,C2,61.25,0.25,95,75.0
868,C1,61.5,0.25,95,75.0
869,G2,61.5,0.25,95,75.0
870,C2,61.5,0.25,95,75.0
871,G3,61.5,0.25,95,75.0
872,D2,61.5,0.25,95,75.0
873,C2,61.75,0.25,95,75.0
874,C1,61.75,0.25,95,75.0
875,F#3,61.75,1.25,95,75.0
876,G2,61.75,0.25,95,75.0
877,C2,61.75,0.25,95,75.0
878,C1,62.0,0.25,95,75.0
879,G2,62.0,0.25,95,75.0
880,C2,62.0,0.25,95,75.0
881,G3,62.0,0.25,95,75.0
882,C2,62.0,0.25,95,75.0
883,C2,62.25,0.25,95,75.0
884,C1,62.25,0.25,95,75.0
885,G2,62.25,0.25,95,75.0
886,C2,62.25,0.25,95,75.0
887,C1,62.5,0.25,95,75.0
888,G2,62.5,0.25,95,75.0
889,C2,62.5,0.25,95,75.0
890,G3,62.5,0.25,95,75.0
891,D2,62.5,0.25,95,75.0
892,C2,62.75,0.25,95,75.0
893,C1,62.75,0.25,95,75.0
894,G2,62.75,0.25,95,75.0
895,C2,62.75,0.25,95,75.0
896,D2,63.0,0.125,95,75.0
897,C1,63.0,0.25,95,75.0
898,G3,63.0,0.25,95,75.0
899,G2,63.0,0.25,95,75.0
900,C2,63.0,0.25,95,75.0
901,D2,63.125,0.125,95,75.0
902,D2,63.25,0.125,95,75.0
903,C1,63.25,0.25,95,75.0
904,B-3,63.25,0.75,86,75.0
905,G2,63.25,0.25,95,75.0
906,C2,63.25,0.25,95,75.0
907,D2,63.375,0.125,95,75.0
908,D2,63.5,0.125,95,75.0
909,C1,63.5,0.25,95,75.0
910,G2,63.5,0.25,95,75.0
911,C2,63.5,0.25,95,75.0
912,D2,63.625,0.125,95,75.0
913,D2,63.75,0.125,95,75.0
914,C1,63.75,0.25,95,75.0
915,G2,63.75,0.25,95,75.0
916,C2,63.75,0.25,95,75.0
917,D2,63.875,0.125,95,75.0
918,C2,64.0,0.25,95,75.0
919,G3,64.0,1.75,95,75.0
920,G2,64.0,0.25,86,75.0
921,C2,64.0,0.25,86,75.0
922,A3,64.0,0.5,95,75.0
923,C2,64.0,0.5,95,75.0
924,C2,64.25,0.25,95,75.0
925,G2,64.25,0.25,86,75.0
926,C2,64.25,0.25,86,75.0
927,C2,64.5,0.25,95,75.0
928,B-2,64.5,0.25,95,75.0
929,D2,64.5,0.25,95,75.0
930,C2,64.75,0.25,95,75.0
931,C2,64.75,0.25,95,75.0
932,C2,65.0,0.25,95,75.0
933,B-2,65.0,0.125,95,75.0
934,C2,65.0,0.125,95,75.0
935,C2,65.125,0.125,95,75.0
936,C2,65.25,0.125,95,75.0
937,C2,65.25,0.25,95,75.0
938,C2,65.375,0.125,95,75.0
939,C2,65.5,0.25,95,75.0
940,B-2,65.5,0.25,95,75.0
941,D2,65.5,0.25,95,75.0
942,C2,65.75,0.25,95,75.0
943,C2,65.75,0.25,95,75.0
944,F#3,65.75,2.25,95,75.0
945,B-2,66.0,0.25,95,75.0
946,C2,66.0,0.25,95,75.0
947,C2,66.25,0.25,95,75.0
948,C2,66.5,0.25,95,75.0
949,B-2,66.5,0.25,95,75.0
950,D2,66.5,0.25,95,75.0
951,C2,66.75,0.25,95,75.0
952,C2,66.75,0.25,95,75.0
953,C2,67.0,0.25,95,75.0
954,B-2,67.0,0.25,95,75.0
955,C2,67.0,0.25,95,75.0
956,C2,67.25,0.25,95,75.0
957,C2,67.25,0.25,95,75.0
958,C2,67.5,0.25,95,75.0
959,B-2,67.5,0.25,95,75.0
960,D2,67.5,0.25,95,75.0
961,C2,67.75,0.25,95,75.0
962,C2,68.0,0.25,95,75.0
963,G3,68.0,1.75,95,75.0
964,B-2,68.0,0.5,95,75.0
965,C2,68.0,0.5,95,75.0
966,C2,68.25,0.25,95,75.0
967,C2,68.5,0.25,95,75.0
968,B-2,68.5,0.25,95,75.0
969,D2,68.5,0.25,95,75.0
970,C2,68.75,0.25,95,75.0
971,C2,68.75,0.25,95,75.0
972,C2,69.0,0.25,95,75.0
973,B-2,69.0,0.125,95,75.0
974,C2,69.0,0.125,95,75.0
975,C2,69.125,0.125,95,75.0
976,C2,69.25,0.125,95,75.0
977,C2,69.25,0.25,95,75.0
978,C2,69.375,0.125,95,75.0
979,C2,69.5,0.25,95,75.0
980,B-2,69.5,0.25,95,75.0
981,D2,69.5,0.25,95,75.0
982,C2,69.75,0.25,95,75.0
983,C2,69.75,0.25,95,75.0
984,F#3,69.75,1.25,95,75.0
985,B-2,70.0,0.25,95,75.0
986,C2,70.0,0.25,95,75.0
987,C2,70.25,0.25,95,75.0
988,C2,70.5,0.25,95,75.0
989,B-2,70.5,0.25,95,75.0
990,D2,70.5,0.25,95,75.0
991,C2,70.75,0.25,95,75.0
992,C2,70.75,0.25,95,75.0
993,C2,71.0,0.25,95,75.0
994,G3,71.0,0.25,95,75.0
995,B-2,71.0,0.25,95,75.0
996,C2,71.0,0.25,95,75.0
997,C2,71.25,0.25,95,75.0
998,C2,71.25,0.25,95,75.0
999,B-3,71.25,0.75,86,75.0
1000,C2,71.5,0.25,95,75.0
1001,B-2,71.5,0.25,95,75.0
1002,D2,71.5,0.25,95,75.0
1003,C2,71.75,0.25,95,75.0
1004,C2,71.75,0.25,95,75.0
1005,C5,72.0,1.5,95,75.0
1006,C2,72.0,0.25,95,75.0
1007,G3,72.0,1.75,95,75.0
1008,B-2,72.0,0.5,95,75.0
1009,C2,72.0,0.5,95,75.0
1010,C2,72.25,0.25,95,75.0
1011,C2,72.5,0.25,95,75.0
1012,B-2,72.5,0.25,95,75.0
1013,D2,72.5,0.25,95,75.0
1014,C2,72.75,0.25,95,75.0
1015,C2,72.75,0.25,95,75.0
1016,C2,73.0,0.25,95,75.0
1017,B-2,73.0,0.125,95,75.0
1018,C2,73.0,0.125,95,75.0
1019,C2,73.125,0.125,95,75.0
1020,C2,73.25,0.125,95,75.0
1021,C2,73.25,0.25,95,75.0
1022,C2,73.375,0.125,95,75.0
1023,D5,73.5,0.25,95,75.0
1024,C2,73.5,0.25,95,75.0
1025,B-2,73.5,0.25,95,75.0
1026,D2,73.5,0.25,95,75.0
1027,C2,73.75,0.25,95,75.0
1028,E-5,73.75,0.25,95,75.0
1029,C2,73.75,0.25,95,75.0
1030,F#3,73.75,2.25,95,75.0
1031,B-2,74.0,0.25,95,75.0
1032,A4,74.0,2.0,95,75.0
1033,C2,74.0,0.25,95,75.0
1034,C2,74.25,0.25,95,75.0
1035,C2,74.5,0.25,95,75.0
1036,B-2,74.5,0.25,95,75.0
1037,D2,74.5,0.25,95,75.0
1038,C2,74.75,0.25,95,75.0
1039,C2,74.75,0.25,95,75.0
1040,C2,75.0,0.25,95,75.0
1041,B-2,75.0,0.25,95,75.0
1042,C2,75.0,0.25,95,75.0
1043,C2,75.25,0.25,95,75.0
1044,C2,75.25,0.25,95,75.0
1045,C2,75.5,0.25,95,75.0
1046,B-2,75.5,0.25,95,75.0
1047,D2,75.5,0.25,95,75.0
1048,C2,75.75,0.25,95,75.0
1049,G4,76.0,2.0,95,75.0
1050,C2,76.0,0.25,95,75.0
1051,G3,76.0,1.75,95,75.0
1052,B-2,76.0,0.5,95,75.0
1053,C2,76.0,0.5,95,75.0
1054,C2,76.25,0.25,95,75.0
1055,C2,76.5,0.25,95,75.0
1056,B-2,76.5,0.25,95,75.0
1057,D2,76.5,0.25,95,75.0
1058,C2,76.75,0.25,95,75.0
1059,C2,76.75,0.25,95,75.0
1060,C2,77.0,0.25,95,75.0
1061,B-2,77.0,0.125,95,75.0
1062,C2,77.0,0.125,95,75.0
1063,C2,77.125,0.125,95,75.0
1064,C2,77.25,0.125,95,75.0
1065,C2,77.25,0.25,95,75.0
1066,C2,77.375,0.125,95,75.0
1067,C2,77.5,0.25,95,75.0
1068,B-2,77.5,0.25,95,75.0
1069,D2,77.5,0.25,95,75.0
1070,C2,77.75,0.25,95,75.0
1071,C2,77.75,0.25,95,75.0
1072,F#3,77.75,1.25,95,75.0
1073,B-2,78.0,0.25,95,75.0
1074,B4,78.0,2.0,95,75.0
1075,C2,78.0,0.25,95,75.0
1076,C2,78.25,0.25,95,75.0
1077,C2,78.5,0.25,95,75.0
1078,B-2,78.5,0.25,95,75.0
1079,D2,78.5,0.25,95,75.0
1080,C2,78.75,0.25,95,75.0
1081,C2,78.75,0.25,95,75.0
1082,C2,79.0,0.25,95,75.0
1083,G3,79.0,0.25,95,75.0
1084,B-2,79.0,0.25,95,75.0
1085,C2,79.0,0.25,95,75.0
1086,C2,79.25,0.25,95,75.0
1087,C2,79.25,0.25,95,75.0
1088,B-3,79.25,0.75,86,75.0
1089,C2,79.5,0.25,95,75.0
1090,G3,79.5,0.25,95,75.0
1091,D2,79.5,0.25,95,75.0
1092,C2,79.75,0.25,95,75.0
1093,C2,79.75,0.25,95,75.0
1094,C2,80.0,0.25,95,75.0
1095,G3,80.0,1.75,95,75.0
1096,G2,80.0,0.25,86,75.0
1097,C2,80.0,0.25,86,75.0
1098,A3,80.0,0.5,95,75.0
1099,C2,80.0,0.5,95,75.0
1100,C2,80.25,0.25,95,75.0
1101,G2,80.25,0.25,86,75.0
1102,C2,80.25,0.25,86,75.0
1103,C2,80.5,0.25,95,75.0
1104,B-2,80.5,0.25,95,75.0
1105,D2,80.5,0.25,95,75.0
1106,C2,80.75,0.25,95,75.0
1107,C2,80.75,0.25,95,75.0
1108,C2,81.0,0.25,95,75.0
1109,B-2,81.0,0.125,95,75.0
1110,C2,81.0,0.125,95,75.0
1111,C2,81.125,0.125,95,75.0
1112,C2,81.25,0.125,95,75.0
1113,C2,81.25,0.25,95,75.0
1114,C2,81.375,0.125,95,75.0
1115,C2,81.5,0.25,95,75.0
1116,B-2,81.5,0.25,95,75.0
1117,D2,81.5,0.25,95,75.0
1118,C2,81.75,0.25,95,75.0
1119,C2,81.75,0.25,95,75.0
1120,F#3,81.75,2.25,95,75.0
1121,B-2,82.0,0.25,95,75.0
1122,C2,82.0,0.25,95,75.0
1123,C2,82.25,0.25,95,75.0
1124,C2,82.5,0.25,95,75.0
1125,B-2,82.5,0.25,95,75.0
1126,D2,82.5,0.25,95,75.0
1127,C2,82.75,0.25,95,75.0
1128,C2,82.75,0.25,95,75.0
1129,C2,83.0,0.25,95,75.0
1130,B-2,83.0,0.25,95,75.0
1131,C2,83.0,0.25,95,75.0
1132,C2,83.25,0.25,95,75.0
1133,C2,83.25,0.25,95,75.0
1134,C2,83.5,0.25,95,75.0
1135,B-2,83.5,0.25,95,75.0
1136,D2,83.5,0.25,95,75.0
1137,C2,83.75,0.25,95,75.0
1138,C2,84.0,0.25,95,75.0
1139,G3,84.0,1.75,95,75.0
1140,B-2,84.0,0.5,95,75.0
1141,C2,84.0,0.5,95,75.0
1142,C2,84.25,0.25,95,75.0
1143,C2,84.5,0.25,95,75.0
1144,B-2,84.5,0.25,95,75.0
1145,D2,84.5,0.25,95,75.0
1146,C2,84.75,0.25,95,75.0
1147,C2,84.75,0.25,95,75.0
1148,C2,85.0,0.25,95,75.0
1149,B-2,85.0,0.125,95,75.0
1150,C2,85.0,0.125,95,75.0
1151,C2,85.125,0.125,95,75.0
1152,C2,85.25,0.125,95,75.0
1153,C2,85.25,0.25,95,75.0
1154,C2,85.375,0.125,95,75.0
1155,C2,85.5,0.25,95,75.0
1156,B-2,85.5,0.25,95,75.0
1157,D2,85.5,0.25,95,75.0
1158,C2,85.75,0.25,95,75.0
1159,C2,85.75,0.25,95,75.0
1160,F#3,85.75,1.25,95,75.0
1161,B-2,86.0,0.25,95,75.0
1162,C2,86.0,0.25,95,75.0
1163,C2,86.25,0.25,95,75.0
1164,C2,86.5,0.25,95,75.0
1165,B-2,86.5,0.25,95,75.0
1166,D2,86.5,0.25,95,75.0
1167,C2,86.75,0.25,95,75.0
1168,C2,86.75,0.25,95,75.0
1169,C2,87.0,0.25,95,75.0
1170,G3,87.0,0.25,95,75.0
1171,B-2,87.0,0.25,95,75.0
1172,C2,87.0,0.25,95,75.0
1173,C2,87.25,0.25,95,75.0
1174,C2,87.25,0.25,95,75.0
1175,B-3,87.25,0.75,86,75.0
1176,C2,87.5,0.25,95,75.0
1177,B-2,87.5,0.25,95,75.0
1178,D2,87.5,0.25,95,75.0
1179,C2,87.75,0.25,95,75.0
1180,C2,87.75,0.25,95,75.0
1181,C5,88.0,2.0,95,75.0
1182,C2,88.0,0.25,95,75.0
1183,G3,88.0,1.75,95,75.0
1184,B-2,88.0,0.5,95,75.0
1185,C2,88.0,0.5,95,75.0
1186,C2,88.25,0.25,95,75.0
1187,C2,88.5,0.25,95,75.0
1188,B-2,88.5,0.25,95,75.0
1189,D2,88.5,0.25,95,75.0
1190,C2,88.75,0.25,95,75.0
1191,C2,88.75,0.25,95,75.0
1192,C2,89.0,0.25,95,75.0
1193,B-2,89.0,0.125,95,75.0
1194,C2,89.0,0.125,95,75.0
1195,C2,89.125,0.125,95,75.0
1196,C2,89.25,0.125,95,75.0
1197,C2,89.25,0.25,95,75.0
1198,C2,89.375,0.125,95,75.0
1199,C2,89.5,0.25,95,75.0
1200,B-2,89.5,0.25,95,75.0
1201,D2,89.5,0.25,95,75.0
1202,C2,89.75,0.25,95,75.0
1203,C2,89.75,0.25,95,75.0
1204,F#3,89.75,2.25,95,75.0
1205,B-2,90.0,0.25,95,75.0
1206,G#5,90.0,1.0,95,75.0
1207,C2,90.0,0.25,95,75.0
1208,C2,90.25,0.25,95,75.0
1209,C2,90.5,0.25,95,75.0
1210,B-2,90.5,0.25,95,75.0
1211,D2,90.5,0.25,95,75.0
1212,C2,90.75,0.25,95,75.0
1213,C2,90.75,0.25,95,75.0
1214,G5,91.0,1.0,95,75.0
1215,C2,91.0,0.25,95,75.0
1216,B-2,91.0,0.25,95,75.0
1217,C2,91.0,0.25,95,75.0
1218,C2,91.25,0.25,95,75.0
1219,C2,91.25,0.25,95,75.0
1220,C2,91.5,0.25,95,75.0
1221,B-2,91.5,0.25,95,75.0
1222,D2,91.5,0.25,95,75.0
1223,C2,91.75,0.25,95,75.0
1224,F#5,92.0,2.0,95,75.0
1225,C2,92.0,0.25,95,75.0
1226,G3,92.0,1.75,95,75.0
1227,B-2,92.0,0.5,95,75.0
1228,C2,92.0,0.5,95,75.0
1229,C2,92.25,0.25,95,75.0
1230,C2,92.5,0.25,95,75.0
1231,B-2,92.5,0.25,95,75.0
1232,D2,92.5,0.25,95,75.0
1233,C2,92.75,0.25,95,75.0
1234,C2,92.75,0.25,95,75.0
1235,C2,93.0,0.25,95,75.0
1236,B-2,93.0,0.125,95,75.0
1237,C2,93.0,0.125,95,75.0
1238,C2,93.125,0.125,95,75.0
1239,C2,93.25,0.125,95,75.0
1240,C2,93.25,0.25,95,75.0
1241,C2,93.375,0.125,95,75.0
1242,C2,93.5,0.25,95,75.0
1243,B-2,93.5,0.25,95,75.0
1244,D2,93.5,0.25,95,75.0
1245,C2,93.75,0.25,95,75.0
1246,C2,93.75,0.25,95,75.0
1247,F#3,93.75,1.25,95,75.0
1248,B-2,94.0,0.25,95,75.0
1249,C2,94.0,0.25,95,75.0
1250,C2,94.25,0.25,95,75.0
1251,C2,94.5,0.25,95,75.0
1252,B-2,94.5,0.25,95,75.0
1253,D2,94.5,0.25,95,75.0
1254,C2,94.75,0.25,95,75.0
1255,C2,94.75,0.25,95,75.0
1256,C2,95.0,0.25,95,75.0
1257,G3,95.0,0.25,95,75.0
1258,B-2,95.0,0.25,95,75.0
1259,C2,95.0,0.25,95,75.0
1260,C2,95.25,0.25,95,75.0
1261,C2,95.25,0.25,95,75.0
1262,B-3,95.25,0.75,86,75.0
1263,C2,95.5,0.25,95,75.0
1264,B-2,95.5,0.125,95,75.0
1265,D2,95.5,0.125,95,75.0
1266,D2,95.625,0.125,95,75.0
1267,D2,95.75,0.125,95,75.0
1268,C2,95.75,0.25,95,75.0
1269,D2,95.875,0.125,95,75.0
1270,C1,96.0,2.0,95,75.0
1271,C3,96.0,2.0,95,75.0
1272,G2,96.0,2.0,95,75.0
1273,C2,96.0,2.0,95,75.0
1274,A3,96.0,0.25,95,75.0
1275,C2,96.0,0.25,95,75.0
1276,G4,96.0,2.0,95,75.0
1277,G3,96.0,2.0,95,75.0
1278,C2,96.25,0.25,95,75.0
1279,G3,96.5,0.25,95,75.0
1280,D2,96.5,0.25,95,75.0
1281,C2,96.75,0.25,95,75.0
1282,G3,97.0,0.25,95,75.0
1283,C2,97.0,0.25,95,75.0
1284,C2,97.25,0.25,95,75.0
1285,G3,97.5,0.25,95,75.0
1286,D2,97.5,0.25,95,75.0
1287,C2,97.75,0.25,95,75.0
1288,C#1,98.0,2.0,95,75.0
1289,C#3,98.0,2.0,95,75.0
1290,G#2,98.0,2.0,95,75.0
1291,C#2,98.0,2.0,95,75.0
1292,G3,98.0,0.25,95,75.0
1293,C2,98.0,0.25,95,75.0
1294,F#4,98.0,2.0,95,75.0
1295,F#3,98.0,2.0,95,75.0
1296,C2,98.25,0.25,95,75.0
1297,G3,98.5,0.25,95,75.0
1298,D2,98.5,0.25,95,75.0
1299,C2,98.75,0.25,95,75.0
1300,G3,99.0,0.25,95,75.0
1301,C2,99.0,0.25,95,75.0
1302,C2,99.25,0.25,95,75.0
1303,G3,99.5,0.25,95,75.0
1304,D2,99.5,0.25,95,75.0
1305,C2,99.75,0.25,95,75.0
1306,C1,100.0,1.0,95,75.0
1307,C3,100.0,1.0,95,75.0
1308,G2,100.0,1.0,95,75.0
1309,C2,100.0,1.0,95,75.0
1310,A3,100.0,0.25,95,75.0
1311,C2,100.0,0.25,95,75.0
1312,E-4,100.0,3.5,95,75.0
1313,E-3,100.0,3.5,95,75.0
1314,C2,100.25,0.25,95,75.0
1315,G3,100.5,0.25,95,75.0
1316,D2,100.5,0.25,95,75.0
1317,C2,100.75,0.25,95,75.0
1318,C1,101.0,21/500,95,75.0
1319,C3,101.0,0.25,86,75.0
1320,G2,101.0,0.25,86,75.0
1321,C2,101.0,0.25,86,75.0
1322,G3,101.0,0.25,95,75.0
1323,C2,101.0,0.25,95,75.0
1324,C2,101.25,0.25,95,75.0
1325,C1,101.333,21/500,95,75.0
1326,C3,101.333,0.25,86,75.0
1327,G2,101.333,0.25,86,75.0
1328,C2,101.333,0.25,86,75.0
1329,G3,101.5,0.25,95,75.0
1330,D2,101.5,0.25,95,75.0
1331,C1,101.667,21/500,95,75.0
1332,C3,101.667,0.25,86,75.0
1333,G2,101.667,0.25,86,75.0
1334,C2,101.667,0.25,86,75.0
1335,C2,101.75,0.25,95,75.0
1336,C#1,102.0,1.0,95,75.0
1337,C#3,102.0,1.0,95,75.0
1338,G#2,102.0,1.0,95,75.0
1339,C#2,102.0,1.0,95,75.0
1340,G3,102.0,0.25,95,75.0
1341,C2,102.0,0.25,95,75.0
1342,C2,102.25,0.25,95,75.0
1343,G3,102.5,0.25,95,75.0
1344,D2,102.5,0.25,95,75.0
1345,C2,102.75,0.25,95,75.0
1346,E-1,103.0,1.0,95,75.0
1347,E-3,103.0,1.0,95,75.0
1348,B-2,103.0,1.0,95,75.0
1349,E-2,103.0,1.0,95,75.0
1350,G3,103.0,0.25,95,75.0
1351,C2,103.0,0.25,95,75.0
1352,C2,103.25,0.25,95,75.0
1353,D2,103.5,0.125,95,75.0
1354,G#4,103.5,0.5,95,75.0
1355,G#3,103.5,0.5,95,75.0
1356,D2,103.625,0.125,95,75.0
1357,D2,103.75,0.125,95,75.0
1358,D2,103.875,0.125,95,75.0
1359,C1,104.0,2.0,95,75.0
1360,C3,104.0,2.0,95,75.0
1361,G2,104.0,2.0,95,75.0
1362,C2,104.0,2.0,95,75.0
1363,A3,104.0,0.25,95,75.0
1364,C2,104.0,0.25,95,75.0
1365,G4,104.0,2.0,95,75.0
1366,G3,104.0,2.0,95,75.0
1367,C2,104.25,0.25,95,75.0
1368,G3,104.5,0.25,95,75.0
1369,D2,104.5,0.25,95,75.0
1370,C2,104.75,0.25,95,75.0
1371,G3,105.0,0.25,95,75.0
1372,C2,105.0,0.25,95,75.0
1373,C2,105.25,0.25,95,75.0
1374,G3,105.5,0.25,95,75.0
1375,D2,105.5,0.25,95,75.0
1376,C2,105.75,0.25,95,75.0
1377,C#1,106.0,2.0,95,75.0
1378,C#3,106.0,2.0,95,75.0
1379,G#2,106.0,2.0,95,75.0
1380,C#2,106.0,2.0,95,75.0
1381,G3,106.0,0.25,95,75.0
1382,C2,106.0,0.25,95,75.0
1383,F#4,106.0,2.0,95,75.0
1384,F#3,106.0,2.0,95,75.0
1385,C2,106.25,0.25,95,75.0
1386,G3,106.5,0.25,95,75.0
1387,D2,106.5,0.25,95,75.0
1388,C2,106.75,0.25,95,75.0
1389,G3,107.0,0.25,95,75.0
1390,C2,107.0,0.25,95,75.0
1391,C2,107.25,0.25,95,75.0
1392,G3,107.5,0.25,95,75.0
1393,D2,107.5,0.25,95,75.0
1394,C2,107.75,0.25,95,75.0
1395,C1,108.0,2.0,95,75.0
1396,C3,108.0,2.0,95,75.0
1397,G2,108.0,2.0,95,75.0
1398,C2,108.0,2.0,95,75.0
1399,A3,108.0,0.25,95,75.0
1400,C2,108.0,0.25,95,75.0
1401,E-4,108.0,2.0,95,75.0
1402,E-3,108.0,2.0,95,75.0
1403,C2,108.25,0.25,95,75.0
1404,G3,108.5,0.25,95,75.0
1405,D2,108.5,0.25,95,75.0
1406,C2,108.75,0.25,95,75.0
1407,G3,109.0,0.25,95,75.0
1408,C2,109.0,0.25,95,75.0
1409,C2,109.25,0.25,95,75.0
1410,G3,109.5,0.25,95,75.0
1411,D2,109.5,0.25,95,75.0
1412,C2,109.75,0.25,95,75.0
1413,C#1,110.0,1.0,95,75.0
1414,C#3,110.0,1.0,95,75.0
1415,G#2,110.0,1.0,95,75.0
1416,C#2,110.0,1.0,95,75.0
1417,G3,110.0,0.25,95,75.0
1418,C2,110.0,0.25,95,75.0
1419,C2,110.25,0.25,95,75.0
1420,G3,110.5,0.25,95,75.0
1421,D2,110.5,0.25,95,75.0
1422,C2,110.75,0.25,95,75.0
1423,E-1,111.0,1.0,95,75.0
1424,E-3,111.0,1.0,95,75.0
1425,B-2,111.0,1.0,95,75.0
1426,E-2,111.0,1.0,95,75.0
1427,G3,111.0,0.25,95,75.0
1428,C2,111.0,0.25,95,75.0
1429,C2,111.25,0.25,95,75.0
1430,D2,111.5,0.125,95,75.0
1431,D2,111.625,0.125,95,75.0
1432,D2,111.75,0.125,95,75.0
1433,D2,111.875,0.125,95,75.0
1434,C1,112.0,0.25,95,75.0
1435,G4,112.0,0.25,95,75.0
1436,G3,112.0,0.25,95,75.0
1437,A3,112.0,0.25,95,75.0
1438,C2,112.0,0.25,95,75.0
1439,C2,112.25,0.25,95,75.0
1440,C1,112.25,0.25,95,75.0
1441,G4,112.25,0.25,95,75.0
1442,G3,112.25,0.25,95,75.0
1443,C1,112.5,0.25,95,75.0
1444,G4,112.5,0.25,95,75.0
1445,G3,112.5,0.25,95,75.0
1446,G3,112.5,0.25,95,75.0
1447,D2,112.5,0.25,95,75.0
1448,C2,112.75,0.25,95,75.0
1449,C1,112.75,0.25,95,75.0
1450,G4,112.75,0.25,95,75.0
1451,G3,112.75,0.25,95,75.0
1452,C1,113.0,0.25,95,75.0
1453,G4,113.0,0.25,95,75.0
1454,G3,113.0,0.25,95,75.0
1455,G3,113.0,0.25,95,75.0
1456,C2,113.0,0.25,95,75.0
1457,C5,113.0,1.0,95,75.0
1458,C4,113.0,1.0,95,75.0
1459,C2,113.25,0.25,95,75.0
1460,C1,113.25,0.25,95,75.0
1461,G4,113.25,0.25,95,75.0
1462,G3,113.25,0.25,95,75.0
1463,C1,113.5,0.25,95,75.0
1464,G4,113.5,0.25,95,75.0
1465,G3,113.5,0.25,95,75.0
1466,G3,113.5,0.25,95,75.0
1467,D2,113.5,0.25,95,75.0
1468,C2,113.75,0.25,95,75.0
1469,C1,113.75,0.25,95,75.0
1470,F#4,113.75,0.25,86,75.0
1471,F#3,113.75,0.25,86,75.0
1472,C1,114.0,0.25,95,75.0
1473,F#4,114.0,0.25,95,75.0
1474,F#3,114.0,0.25,95,75.0
1475,G3,114.0,0.25,95,75.0
1476,C2,114.0,0.25,95,75.0
1477,C2,114.25,0.25,95,75.0
1478,C1,114.25,0.25,95,75.0
1479,F#4,114.25,0.25,95,75.0
1480,F#3,114.25,0.25,95,75.0
1481,C1,114.5,0.25,95,75.0
1482,F#4,114.5,0.25,95,75.0
1483,F#3,114.5,0.25,95,75.0
1484,G3,114.5,0.25,95,75.0
1485,D2,114.5,0.25,95,75.0
1486,C2,114.75,0.25,95,75.0
1487,C1,114.75,0.25,95,75.0
1488,F#4,114.75,0.25,95,75.0
1489,F#3,114.75,0.25,95,75.0
1490,C1,115.0,0.25,95,75.0
1491,F#4,115.0,0.25,95,75.0
1492,F#3,115.0,0.25,95,75.0
1493,G3,115.0,0.25,95,75.0
1494,C2,115.0,0.25,95,75.0
1495,C5,115.0,1.0,95,75.0
1496,C4,115.0,1.0,95,75.0
1497,C2,115.25,0.25,95,75.0
1498,C1,115.25,0.25,95,75.0
1499,F#4,115.25,0.25,95,75.0
1500,F#3,115.25,0.25,95,75.0
1501,C1,115.5,0.25,95,75.0
1502,F#4,115.5,0.25,95,75.0
1503,F#3,115.5,0.25,95,75.0
1504,G3,115.5,0.25,95,75.0
1505,D2,115.5,0.25,95,75.0
1506,C2,115.75,0.25,95,75.0
1507,C1,115.75,0.25,95,75.0
1508,F#4,115.75,0.25,95,75.0
1509,F#3,115.75,0.25,95,75.0
1510,C1,116.0,0.25,95,75.0
1511,G4,116.0,0.25,95,75.0
1512,G3,116.0,0.25,95,75.0
1513,A3,116.0,0.25,95,75.0
1514,C2,116.0,0.25,95,75.0
1515,C2,116.25,0.25,95,75.0
1516,C1,116.25,0.25,95,75.0
1517,G4,116.25,0.25,95,75.0
1518,G3,116.25,0.25,95,75.0
1519,C1,116.5,0.25,95,75.0
1520,G4,116.5,0.25,95,75.0
1521,G3,116.5,0.25,95,75.0
1522,G3,116.5,0.25,95,75.0
1523,D2,116.5,0.25,95,75.0
1524,C2,116.75,0.25,95,75.0
1525,C1,116.75,0.25,95,75.0
1526,G4,116.75,0.25,95,75.0
1527,G3,116.75,0.25,95,75.0
1528,C1,117.0,0.25,95,75.0
1529,G4,117.0,0.25,95,75.0
1530,G3,117.0,0.25,95,75.0
1531,G3,117.0,0.25,95,75.0
1532,C2,117.0,0.25,95,75.0
1533,C5,117.0,1.0,95,75.0
1534,C4,117.0,1.0,95,75.0
1535,C2,117.25,0.25,95,75.0
1536,C1,117.25,0.25,95,75.0
1537,G4,117.25,0.25,95,75.0
1538,G3,117.25,0.25,95,75.0
1539,C1,117.5,0.25,95,75.0
1540,G4,117.5,0.25,95,75.0
1541,G3,117.5,0.25,95,75.0
1542,G3,117.5,0.25,95,75.0
1543,D2,117.5,0.25,95,75.0
1544,C2,117.75,0.25,95,75.0
1545,C1,117.75,0.25,95,75.0
1546,F#4,117.75,0.25,86,75.0
1547,F#3,117.75,0.25,86,75.0
1548,C1,118.0,0.25,95,75.0
1549,F#4,118.0,0.25,95,75.0
1550,F#3,118.0,0.25,95,75.0
1551,G3,118.0,0.25,95,75.0
1552,C2,118.0,0.25,95,75.0
1553,C2,118.25,0.25,95,75.0
1554,C1,118.25,0.25,95,75.0
1555,F#4,118.25,0.25,95,75.0
1556,F#3,118.25,0.25,95,75.0
1557,C1,118.5,0.25,95,75.0
1558,F#4,118.5,0.25,95,75.0
1559,F#3,118.5,0.25,95,75.0
1560,G3,118.5,0.25,95,75.0
1561,D2,118.5,0.25,95,75.0
1562,C2,118.75,0.25,95,75.0
1563,C1,118.75,0.25,95,75.0
1564,F#4,118.75,0.25,95,75.0
1565,F#3,118.75,0.25,95,75.0
1566,C1,119.0,0.25,95,75.0
1567,F#4,119.0,0.25,95,75.0
1568,F#3,119.0,0.25,95,75.0
1569,G3,119.0,0.25,95,75.0
1570,C2,119.0,0.25,95,75.0
1571,E-5,119.0,1.0,95,75.0
1572,E-4,119.0,1.0,95,75.0
1573,C2,119.25,0.25,95,75.0
1574,C1,119.25,0.25,95,75.0
1575,B-4,119.25,0.25,86,75.0
1576,B-3,119.25,0.25,86,75.0
1577,C1,119.5,0.25,95,75.0
1578,B-4,119.5,0.25,95,75.0
1579,B-3,119.5,0.25,95,75.0
1580,G3,119.5,0.25,95,75.0
1581,D2,119.5,0.25,95,75.0
1582,C2,119.75,0.25,95,75.0
1583,C1,119.75,0.25,95,75.0
1584,B-4,119.75,0.25,95,75.0
1585,B-3,119.75,0.25,95,75.0
1586,C1,120.0,0.25,95,75.0
1587,G4,120.0,0.25,95,75.0
1588,G3,120.0,0.25,95,75.0
1589,A3,120.0,0.25,95,75.0
1590,C2,120.0,0.25,95,75.0
1591,C2,120.25,0.25,95,75.0
1592,C1,120.25,0.25,95,75.0
1593,G4,120.25,0.25,95,75.0
1594,G3,120.25,0.25,95,75.0
1595,C1,120.5,0.25,95,75.0
1596,G4,120.5,0.25,95,75.0
1597,G3,120.5,0.25,95,75.0
1598,G3,120.5,0.25,95,75.0
1599,D2,120.5,0.25,95,75.0
1600,C2,120.75,0.25,95,75.0
1601,C1,120.75,0.25,95,75.0
1602,G4,120.75,0.25,95,75.0
1603,G3,120.75,0.25,95,75.0
1604,C1,121.0,0.25,95,75.0
1605,G4,121.0,0.25,95,75.0
1606,G3,121.0,0.25,95,75.0
1607,G3,121.0,0.25,95,75.0
1608,C2,121.0,0.25,95,75.0
1609,C5,121.0,1.0,95,75.0
1610,C4,121.0,1.0,95,75.0
1611,C2,121.25,0.25,95,75.0
1612,C1,121.25,0.25,95,75.0
1613,G4,121.25,0.25,95,75.0
1614,G3,121.25,0.25,95,75.0
1615,C1,121.5,0.25,95,75.0
1616,G4,121.5,0.25,95,75.0
1617,G3,121.5,0.25,95,75.0
1618,G3,121.5,0.25,95,75.0
1619,D2,121.5,0.25,95,75.0
1620,C2,121.75,0.25,95,75.0
1621,C1,121.75,0.25,95,75.0
1622,F#4,121.75,0.25,86,75.0
1623,F#3,121.75,0.25,86,75.0
1624,C1,122.0,0.25,95,75.0
1625,F#4,122.0,0.25,95,75.0
1626,F#3,122.0,0.25,95,75.0
1627,G3,122.0,0.25,95,75.0
1628,C2,122.0,0.25,95,75.0
1629,C2,122.25,0.25,95,75.0
1630,C1,122.25,0.25,95,75.0
1631,F#4,122.25,0.25,95,75.0
1632,F#3,122.25,0.25,95,75.0
1633,C1,122.5,0.25,95,75.0
1634,F#4,122.5,0.25,95,75.0
1635,F#3,122.5,0.25,95,75.0
1636,G3,122.5,0.25,95,75.0
1637,D2,122.5,0.25,95,75.0
1638,C2,122.75,0.25,95,75.0
1639,C1,122.75,0.25,95,75.0
1640,F#4,122.75,0.25,95,75.0
1641,F#3,122.75,0.25,95,75.0
1642,C1,123.0,0.25,95,75.0
1643,F#4,123.0,0.25,95,75.0
1644,F#3,123.0,0.25,95,75.0
1645,G3,123.0,0.25,95,75.0
1646,C2,123.0,0.25,95,75.0
1647,C5,123.0,1.0,95,75.0
1648,C4,123.0,1.0,95,75.0
1649,C2,123.25,0.25,95,75.0
1650,C1,123.25,0.25,95,75.0
1651,F#4,123.25,0.25,95,75.0
1652,F#3,123.25,0.25,95,75.0
1653,C1,123.5,0.25,95,75.0
1654,F#4,123.5,0.25,95,75.0
1655,F#3,123.5,0.25,95,75.0
1656,G3,123.5,0.25,95,75.0
1657,D2,123.5,0.25,95,75.0
1658,C2,123.75,0.25,95,75.0
1659,C1,123.75,0.25,95,75.0
1660,F#4,123.75,0.25,95,75.0
1661,F#3,123.75,0.25,95,75.0
1662,C1,124.0,0.25,95,75.0
1663,G4,124.0,0.25,95,75.0
1664,G3,124.0,0.25,95,75.0
1665,A3,124.0,0.25,95,75.0
1666,C2,124.0,0.25,95,75.0
1667,C2,124.25,0.25,95,75.0
1668,C1,124.25,0.25,95,75.0
1669,G4,124.25,0.25,95,75.0
1670,G3,124.25,0.25,95,75.0
1671,C1,124.5,0.25,95,75.0
1672,G4,124.5,0.25,95,75.0
1673,G3,124.5,0.25,95,75.0
1674,G3,124.5,0.25,95,75.0
1675,D2,124.5,0.25,95,75.0
1676,C2,124.75,0.25,95,75.0
1677,C1,124.75,0.25,95,75.0
1678,G4,124.75,0.25,95,75.0
1679,G3,124.75,0.25,95,75.0
1680,C1,125.0,0.25,95,75.0
1681,G4,125.0,0.25,95,75.0
1682,G3,125.0,0.25,95,75.0
1683,G3,125.0,0.25,95,75.0
1684,C2,125.0,0.25,95,75.0
1685,C5,125.0,1.0,95,75.0
1686,C4,125.0,1.0,95,75.0
1687,C2,125.25,0.25,95,75.0
1688,C1,125.25,0.25,95,75.0
1689,G4,125.25,0.25,95,75.0
1690,G3,125.25,0.25,95,75.0
1691,C1,125.5,0.25,95,75.0
1692,G4,125.5,0.25,95,75.0
1693,G3,125.5,0.25,95,75.0
1694,G3,125.5,0.25,95,75.0
1695,D2,125.5,0.25,95,75.0
1696,C2,125.75,0.25,95,75.0
1697,C1,125.75,0.25,95,75.0
1698,F#4,125.75,0.25,86,75.0
1699,F#3,125.75,0.25,86,75.0
1700,C1,126.0,0.25,95,75.0
1701,F#4,126.0,0.25,95,75.0
1702,F#3,126.0,0.25,95,75.0
1703,G3,126.0,0.25,95,75.0
1704,C2,126.0,0.25,95,75.0
1705,C2,126.25,0.25,95,75.0
1706,C1,126.25,0.25,95,75.0
1707,F#4,126.25,0.25,95,75.0
1708,F#3,126.25,0.25,95,75.0
1709,C1,126.5,0.25,95,75.0
1710,F#4,126.5,0.25,95,75.0
1711,F#3,126.5,0.25,95,75.0
1712,G3,126.5,0.25,95,75.0
1713,D2,126.5,0.25,95,75.0
1714,C2,126.75,0.25,95,75.0
1715,C1,126.75,0.25,95,75.0
1716,F#4,126.75,0.25,95,75.0
1717,F#3,126.75,0.25,95,75.0
1718,C1,127.0,0.25,95,75.0
1719,F#4,127.0,0.25,95,75.0
1720,F#3,127.0,0.25,95,75.0
1721,G3,127.0,0.25,95,75.0
1722,C2,127.0,0.25,95,75.0
1723,E-5,127.0,1.0,95,75.0
1724,E-4,127.0,1.0,95,75.0
1725,C2,127.25,0.25,95,75.0
1726,C1,127.25,0.25,95,75.0
1727,B-4,127.25,0.25,86,75.0
1728,B-3,127.25,0.25,86,75.0
1729,C1,127.5,0.25,95,75.0
1730,B-4,127.5,0.25,95,75.0
1731,B-3,127.5,0.25,95,75.0
1732,G3,127.5,0.25,95,75.0
1733,D2,127.5,0.25,95,75.0
1734,C2,127.75,0.25,95,75.0
1735,C1,127.75,0.25,95,75.0
1736,B-4,127.75,0.25,95,75.0
1737,B-3,127.75,0.25,95,75.0
1738,G3,128.0,1.75,95,75.0
1739,C2,128.0,0.25,95,75.0
1740,G3,128.0,1.75,95,75.0
1741,A3,128.0,0.5,95,75.0
1742,C2,128.0,0.5,95,75.0
1743,C2,128.25,0.25,95,75.0
1744,C2,128.5,0.25,95,75.0
1745,B-2,128.5,0.25,95,75.0
1746,D2,128.5,0.25,95,75.0
1747,C2,128.75,0.25,95,75.0
1748,C2,128.75,0.25,95,75.0
1749,C2,129.0,0.25,95,75.0
1750,B-2,129.0,0.125,95,75.0
1751,C2,129.0,0.125,95,75.0
1752,C2,129.125,0.125,95,75.0
1753,C2,129.25,0.125,95,75.0
1754,C2,129.25,0.25,95,75.0
1755,C2,129.375,0.125,95,75.0
1756,C2,129.5,0.25,95,75.0
1757,B-2,129.5,0.25,95,75.0
1758,D2,129.5,0.25,95,75.0
1759,C2,129.75,0.25,95,75.0
1760,F#3,129.75,2.25,95,75.0
1761,C2,129.75,0.25,95,75.0
1762,F#3,129.75,2.25,95,75.0
1763,B-2,130.0,0.25,95,75.0
1764,C2,130.0,0.25,95,75.0
1765,C2,130.25,0.25,95,75.0
1766,C2,130.5,0.25,95,75.0
1767,B-2,130.5,0.25,95,75.0
1768,D2,130.5,0.25,95,75.0
1769,C2,130.75,0.25,95,75.0
1770,C2,130.75,0.25,95,75.0
1771,C2,131.0,0.25,95,75.0
1772,B-2,131.0,0.25,95,75.0
1773,C2,131.0,0.25,95,75.0
1774,C2,131.25,0.25,95,75.0
1775,C2,131.25,0.25,95,75.0
1776,C2,131.5,0.25,95,75.0
1777,B-2,131.5,0.25,95,75.0
1778,D2,131.5,0.25,95,75.0
1779,C2,131.75,0.25,95,75.0
1780,G3,132.0,1.75,95,75.0
1781,C2,132.0,0.25,95,75.0
1782,G3,132.0,1.75,95,75.0
1783,B-2,132.0,0.5,95,75.0
1784,C2,132.0,0.5,95,75.0
1785,C2,132.25,0.25,95,75.0
1786,C2,132.5,0.25,95,75.0
1787,B-2,132.5,0.25,95,75.0
1788,D2,132.5,0.25,95,75.0
1789,C2,132.75,0.25,95,75.0
1790,C2,132.75,0.25,95,75.0
1791,C2,133.0,0.25,95,75.0
1792,B-2,133.0,0.125,95,75.0
1793,C2,133.0,0.125,95,75.0
1794,C2,133.125,0.125,95,75.0
1795,C2,133.25,0.125,95,75.0
1796,C2,133.25,0.25,95,75.0
1797,C2,133.375,0.125,95,75.0
1798,C2,133.5,0.25,95,75.0
1799,B-2,133.5,0.25,95,75.0
1800,D2,133.5,0.25,95,75.0
1801,C2,133.75,0.25,95,75.0
1802,F#3,133.75,1.25,95,75.0
1803,C2,133.75,0.25,95,75.0
1804,F#3,133.75,1.25,95,75.0
1805,B-2,134.0,0.25,95,75.0
1806,C2,134.0,0.25,95,75.0
1807,C2,134.25,0.25,95,75.0
1808,C2,134.5,0.25,95,75.0
1809,B-2,134.5,0.25,95,75.0
1810,D2,134.5,0.25,95,75.0
1811,C2,134.75,0.25,95,75.0
1812,C2,134.75,0.25,95,75.0
1813,G3,135.0,0.25,95,75.0
1814,C2,135.0,0.25,95,75.0
1815,G3,135.0,0.25,95,75.0
1816,B-2,135.0,0.25,95,75.0
1817,C2,135.0,0.25,95,75.0
1818,C2,135.25,0.25,95,75.0
1819,B-3,135.25,0.75,86,75.0
1820,C2,135.25,0.25,95,75.0
1821,B-3,135.25,0.75,86,75.0
1822,C2,135.5,0.25,95,75.0
1823,B-2,135.5,0.25,95,75.0
1824,D2,135.5,0.25,95,75.0
1825,C2,135.75,0.25,95,75.0
1826,C2,135.75,0.25,95,75.0
1827,G3,136.0,1.75,95,75.0
1828,C2,136.0,0.25,95,75.0
1829,G3,136.0,1.75,95,75.0
1830,A3,136.0,0.5,95,75.0
1831,C2,136.0,0.5,95,75.0
1832,C2,136.25,0.25,95,75.0
1833,C2,136.5,0.25,95,75.0
1834,B-2,136.5,0.25,95,75.0
1835,D2,136.5,0.25,95,75.0
1836,C2,136.75,0.25,95,75.0
1837,C2,136.75,0.25,95,75.0
1838,C2,137.0,0.25,95,75.0
1839,B-2,137.0,0.125,95,75.0
1840,C2,137.0,0.125,95,75.0
1841,C2,137.125,0.125,95,75.0
1842,C2,137.25,0.125,95,75.0
1843,C2,137.25,0.25,95,75.0
1844,C2,137.375,0.125,95,75.0
1845,C2,137.5,0.25,95,75.0
1846,B-2,137.5,0.25,95,75.0
1847,D2,137.5,0.25,95,75.0
1848,C2,137.75,0.25,95,75.0
1849,F#3,137.75,2.25,95,75.0
1850,C2,137.75,0.25,95,75.0
1851,F#3,137.75,2.25,95,75.0
1852,B-2,138.0,0.25,95,75.0
1853,C2,138.0,0.25,95,75.0
1854,C2,138.25,0.25,95,75.0
1855,C2,138.5,0.25,95,75.0
1856,B-2,138.5,0.25,95,75.0
1857,D2,138.5,0.25,95,75.0
1858,C2,138.75,0.25,95,75.0
1859,C2,138.75,0.25,95,75.0
1860,C2,139.0,0.25,95,75.0
1861,B-2,139.0,0.25,95,75.0
1862,C2,139.0,0.25,95,75.0
1863,C2,139.25,0.25,95,75.0
1864,C2,139.25,0.25,95,75.0
1865,C2,139.5,0.25,95,75.0
1866,B-2,139.5,0.25,95,75.0
1867,D2,139.5,0.25,95,75.0
1868,C2,139.75,0.25,95,75.0
1869,G3,140.0,1.75,95,75.0
1870,C2,140.0,0.25,95,75.0
1871,G3,140.0,1.75,95,75.0
1872,B-2,140.0,0.5,95,75.0
1873,C2,140.0,0.5,95,75.0
1874,C2,140.25,0.25,95,75.0
1875,C2,140.5,0.25,95,75.0
1876,B-2,140.5,0.25,95,75.0
1877,D2,140.5,0.25,95,75.0
1878,C2,140.75,0.25,95,75.0
1879,C2,140.75,0.25,95,75.0
1880,C2,141.0,0.25,95,75.0
1881,B-2,141.0,0.125,95,75.0
1882,C2,141.0,0.125,95,75.0
1883,C2,141.125,0.125,95,75.0
1884,C2,141.25,0.125,95,75.0
1885,C2,141.25,0.25,95,75.0
1886,C2,141.375,0.125,95,75.0
1887,C2,141.5,0.25,95,75.0
1888,B-2,141.5,0.25,95,75.0
1889,D2,141.5,0.25,95,75.0
1890,C2,141.75,0.25,95,75.0
1891,F#3,141.75,1.25,95,75.0
1892,C2,141.75,0.25,95,75.0
1893,F#3,141.75,1.25,95,75.0
1894,B-2,142.0,0.25,95,75.0
1895,C2,142.0,0.25,95,75.0
1896,C2,142.25,0.25,95,75.0
1897,C2,142.5,0.25,95,75.0
1898,B-2,142.5,0.25,95,75.0
1899,D2,142.5,0.25,95,75.0
1900,C2,142.75,0.25,95,75.0
1901,C2,142.75,0.25,95,75.0
1902,G3,143.0,0.25,95,75.0
1903,C2,143.0,0.25,95,75.0
1904,G3,143.0,0.25,95,75.0
1905,B-2,143.0,0.25,95,75.0
1906,C2,143.0,0.25,95,75.0
1907,C2,143.25,0.25,95,75.0
1908,B-3,143.25,0.75,86,75.0
1909,C2,143.25,0.25,95,75.0
1910,B-3,143.25,0.75,86,75.0
1911,C2,143.5,0.25,95,75.0
1912,B-2,143.5,0.25,95,75.0
1913,D2,143.5,0.25,95,75.0
1914,C2,143.75,0.25,95,75.0
1915,C2,143.75,0.25,95,75.0
1916,G3,144.0,1.75,95,75.0
1917,C2,144.0,0.25,95,75.0
1918,G3,144.0,1.75,95,75.0
1919,A3,144.0,0.5,95,75.0
1920,C2,144.0,0.5,95,75.0
1921,C2,144.25,0.25,95,75.0
1922,C2,144.5,0.25,95,75.0
1923,B-2,144.5,0.25,95,75.0
1924,D2,144.5,0.25,95,75.0
1925,C2,144.75,0.25,95,75.0
1926,C2,144.75,0.25,95,75.0
1927,C2,145.0,0.25,95,75.0
1928,B-2,145.0,0.125,95,75.0
1929,C2,145.0,0.125,95,75.0
1930,C2,145.125,0.125,95,75.0
1931,C2,145.25,0.125,95,75.0
1932,C2,145.25,0.25,95,75.0
1933,C2,145.375,0.125,95,75.0
1934,C2,145.5,0.25,95,75.0
1935,B-2,145.5,0.25,95,75.0
1936,D2,145.5,0.25,95,75.0
1937,C2,145.75,0.25,95,75.0
1938,F#3,145.75,2.25,95,75.0
1939,C2,145.75,0.25,95,75.0
1940,F#3,145.75,2.25,95,75.0
1941,B-2,146.0,0.25,95,75.0
1942,C2,146.0,0.25,95,75.0
1943,C2,146.25,0.25,95,75.0
1944,C2,146.5,0.25,95,75.0
1945,B-2,146.5,0.25,95,75.0
1946,D2,146.5,0.25,95,75.0
1947,C2,146.75,0.25,95,75.0
1948,C2,146.75,0.25,95,75.0
1949,C2,147.0,0.25,95,75.0
1950,B-2,147.0,0.25,95,75.0
1951,C2,147.0,0.25,95,75.0
1952,C2,147.25,0.25,95,75.0
1953,C2,147.25,0.25,95,75.0
1954,C2,147.5,0.25,95,75.0
1955,B-2,147.5,0.25,95,75.0
1956,D2,147.5,0.25,95,75.0
1957,C2,147.75,0.25,95,75.0
1958,G3,148.0,1.75,95,75.0
1959,C2,148.0,0.25,95,75.0
1960,G3,148.0,1.75,95,75.0
1961,B-2,148.0,0.5,95,75.0
1962,C2,148.0,0.5,95,75.0
1963,C2,148.25,0.25,95,75.0
1964,C2,148.5,0.25,95,75.0
1965,B-2,148.5,0.25,95,75.0
1966,D2,148.5,0.25,95,75.0
1967,C2,148.75,0.25,95,75.0
1968,C2,148.75,0.25,95,75.0
1969,C2,149.0,0.25,95,75.0
1970,B-2,149.0,0.125,95,75.0
1971,C2,149.0,0.125,95,75.0
1972,C2,149.125,0.125,95,75.0
1973,C2,149.25,0.125,95,75.0
1974,C2,149.25,0.25,95,75.0
1975,C2,149.375,0.125,95,75.0
1976,C2,149.5,0.25,95,75.0
1977,B-2,149.5,0.25,95,75.0
1978,D2,149.5,0.25,95,75.0
1979,C2,149.75,0.25,95,75.0
1980,F#3,149.75,1.25,95,75.0
1981,C2,149.75,0.25,95,75.0
1982,F#3,149.75,1.25,95,75.0
1983,B-2,150.0,0.25,95,75.0
1984,C2,150.0,0.25,95,75.0
1985,C2,150.25,0.25,95,75.0
1986,C2,150.5,0.25,95,75.0
1987,B-2,150.5,0.25,95,75.0
1988,D2,150.5,0.25,95,75.0
1989,C2,150.75,0.25,95,75.0
1990,C2,150.75,0.25,95,75.0
1991,G3,151.0,0.25,95,75.0
1992,C2,151.0,0.25,95,75.0
1993,G3,151.0,0.25,95,75.0
1994,B-2,151.0,0.25,95,75.0
1995,C2,151.0,0.25,95,75.0
1996,C2,151.25,0.25,95,75.0
1997,B-3,151.25,0.75,86,75.0
1998,C2,151.25,0.25,95,75.0
1999,B-3,151.25,0.75,86,75.0
2000,C2,151.5,0.25,95,75.0
2001,B-2,151.5,0.25,95,75.0
2002,D2,151.5,0.25,95,75.0
2003,C2,151.75,0.25,95,75.0
2004,C2,151.75,0.25,95,75.0
2005,G3,152.0,1.75,95,75.0
2006,C2,152.0,0.25,95,75.0
2007,G3,152.0,1.75,95,75.0
2008,A3,152.0,0.5,95,75.0
2009,C2,152.0,0.5,95,75.0
2010,C2,152.25,0.25,95,75.0
2011,C2,152.5,0.25,95,75.0
2012,B-2,152.5,0.25,95,75.0
2013,D2,152.5,0.25,95,75.0
2014,C2,152.75,0.25,95,75.0
2015,C2,152.75,0.25,95,75.0
2016,C2,153.0,0.25,95,75.0
2017,B-2,153.0,0.125,95,75.0
2018,C2,153.0,0.125,95,75.0
2019,C2,153.125,0.125,95,75.0
2020,C2,153.25,0.125,95,75.0
2021,C2,153.25,0.25,95,75.0
2022,C2,153.375,0.125,95,75.0
2023,C2,153.5,0.25,95,75.0
2024,B-2,153.5,0.25,95,75.0
2025,D2,153.5,0.25,95,75.0
2026,C2,153.75,0.25,95,75.0
2027,F#3,153.75,2.25,95,75.0
2028,C2,153.75,0.25,95,75.0
2029,F#3,153.75,2.25,95,75.0
2030,B-2,154.0,0.25,95,75.0
2031,C2,154.0,0.25,95,75.0
2032,C2,154.25,0.25,95,75.0
2033,C2,154.5,0.25,95,75.0
2034,B-2,154.5,0.25,95,75.0
2035,D2,154.5,0.25,95,75.0
2036,C2,154.75,0.25,95,75.0
2037,C2,154.75,0.25,95,75.0
2038,C2,155.0,0.25,95,75.0
2039,B-2,155.0,0.25,95,75.0
2040,C2,155.0,0.25,95,75.0
2041,C2,155.25,0.25,95,75.0
2042,C2,155.25,0.25,95,75.0
2043,C2,155.5,0.25,95,75.0
2044,B-2,155.5,0.25,95,75.0
2045,D2,155.5,0.25,95,75.0
2046,C2,155.75,0.25,95,75.0
2047,G3,156.0,1.75,95,75.0
2048,C2,156.0,0.25,95,75.0
2049,G3,156.0,1.75,95,75.0
2050,B-2,156.0,0.5,95,75.0
2051,C2,156.0,0.5,95,75.0
2052,C2,156.25,0.25,95,75.0
2053,C2,156.5,0.25,95,75.0
2054,B-2,156.5,0.25,95,75.0
2055,D2,156.5,0.25,95,75.0
2056,C2,156.75,0.25,95,75.0
2057,C2,156.75,0.25,95,75.0
2058,C2,157.0,0.25,95,75.0
2059,B-2,157.0,0.125,95,75.0
2060,C2,157.0,0.125,95,75.0
2061,C2,157.125,0.125,95,75.0
2062,C2,157.25,0.125,95,75.0
2063,C2,157.25,0.25,95,75.0
2064,C2,157.375,0.125,95,75.0
2065,C2,157.5,0.25,95,75.0
2066,B-2,157.5,0.25,95,75.0
2067,D2,157.5,0.25,95,75.0
2068,C2,157.75,0.25,95,75.0
2069,F#3,157.75,1.25,95,75.0
2070,C2,157.75,0.25,95,75.0
2071,F#3,157.75,1.25,95,75.0
2072,B-2,158.0,0.25,95,75.0
2073,C2,158.0,0.25,95,75.0
2074,C2,158.25,0.25,95,75.0
2075,C2,158.5,0.25,95,75.0
2076,B-2,158.5,0.25,95,75.0
2077,D2,158.5,0.25,95,75.0
2078,C2,158.75,0.25,95,75.0
2079,C2,158.75,0.25,95,75.0
2080,G3,159.0,0.25,95,75.0
2081,C2,159.0,0.25,95,75.0
2082,G3,159.0,0.25,95,75.0
2083,B-2,159.0,0.125,95,75.0
2084,D2,159.0,0.125,95,75.0
2085,D2,159.125,0.125,95,75.0
2086,B-3,159.25,0.75,86,75.0
2087,C2,159.25,0.25,95,75.0
2088,B-3,159.25,0.75,86,75.0
2089,B-2,159.25,0.125,95,75.0
2090,D2,159.25,0.125,95,75.0
2091,A2,159.375,0.125,95,75.0
2092,D2,159.5,0.125,95,75.0
2093,C2,159.5,0.25,95,75.0
2094,B2,159.625,0.125,95,75.0
2095,B2,159.75,0.125,95,75.0
2096,C2,159.75,0.25,95,75.0
2097,B2,159.875,0.125,95,75.0
2098,C1,160.0,2.0,95,75.0
2099,C3,160.0,2.0,95,75.0
2100,G2,160.0,2.0,95,75.0
2101,C2,160.0,2.0,95,75.0
2102,A3,160.0,0.25,95,75.0
2103,C2,160.0,0.25,95,75.0
2104,G4,160.0,2.0,95,75.0
2105,G3,160.0,2.0,95,75.0
2106,C2,160.25,0.25,95,75.0
2107,G3,160.5,0.25,95,75.0
2108,D2,160.5,0.25,95,75.0
2109,C2,160.75,0.25,95,75.0
2110,G3,161.0,0.25,95,75.0
2111,C2,161.0,0.25,95,75.0
2112,C2,161.25,0.25,95,75.0
2113,G3,161.5,0.25,95,75.0
2114,D2,161.5,0.25,95,75.0
2115,C2,161.75,0.25,95,75.0
2116,C#1,162.0,2.0,95,75.0
2117,C#3,162.0,2.0,95,75.0
2118,G#2,162.0,2.0,95,75.0
2119,C#2,162.0,2.0,95,75.0
2120,G3,162.0,0.25,95,75.0
2121,C2,162.0,0.25,95,75.0
2122,F#4,162.0,2.0,95,75.0
2123,F#3,162.0,2.0,95,75.0
2124,C2,162.25,0.25,95,75.0
2125,G3,162.5,0.25,95,75.0
2126,D2,162.5,0.25,95,75.0
2127,C2,162.75,0.25,95,75.0
2128,G3,163.0,0.25,95,75.0
2129,C2,163.0,0.25,95,75.0
2130,C2,163.25,0.25,95,75.0
2131,G3,163.5,0.25,95,75.0
2132,D2,163.5,0.25,95,75.0
2133,C2,163.75,0.25,95,75.0
2134,C1,164.0,1.0,95,75.0
2135,C3,164.0,1.0,95,75.0
2136,G2,164.0,1.0,95,75.0
2137,C2,164.0,1.0,95,75.0
2138,A3,164.0,0.25,95,75.0
2139,C2,164.0,0.25,95,75.0
2140,E-4,164.0,3.5,95,75.0
2141,E-3,164.0,3.5,95,75.0
2142,C2,164.25,0.25,95,75.0
2143,G3,164.5,0.25,95,75.0
2144,D2,164.5,0.25,95,75.0
2145,C2,164.75,0.25,95,75.0
2146,C1,165.0,21/500,95,75.0
2147,C3,165.0,0.25,86,75.0
2148,G2,165.0,0.25,86,75.0
2149,C2,165.0,0.25,86,75.0
2150,G3,165.0,0.25,95,75.0
2151,C2,165.0,0.25,95,75.0
2152,C2,165.25,0.25,95,75.0
2153,C1,165.333,21/500,95,75.0
2154,C3,165.333,0.25,86,75.0
2155,G2,165.333,0.25,86,75.0
2156,C2,165.333,0.25,86,75.0
2157,G3,165.5,0.25,95,75.0
2158,D2,165.5,0.25,95,75.0
2159,C1,165.667,21/500,95,75.0
2160,C3,165.667,0.25,86,75.0
2161,G2,165.667,0.25,86,75.0
2162,C2,165.667,0.25,86,75.0
2163,C2,165.75,0.25,95,75.0
2164,C#1,166.0,1.0,95,75.0
2165,C#3,166.0,1.0,95,75.0
2166,G#2,166.0,1.0,95,75.0
2167,C#2,166.0,1.0,95,75.0
2168,G3,166.0,0.25,95,75.0
2169,C2,166.0,0.25,95,75.0
2170,C2,166.25,0.25,95,75.0
2171,G3,166.5,0.25,95,75.0
2172,D2,166.5,0.25,95,75.0
2173,C2,166.75,0.25,95,75.0
2174,E-1,167.0,1.0,95,75.0
2175,E-3,167.0,1.0,95,75.0
2176,B-2,167.0,1.0,95,75.0
2177,E-2,167.0,1.0,95,75.0
2178,G3,167.0,0.25,95,75.0
2179,C2,167.0,0.25,95,75.0
2180,C2,167.25,0.25,95,75.0
2181,D2,167.5,0.125,95,75.0
2182,G#4,167.5,0.5,95,75.0
2183,G#3,167.5,0.5,95,75.0
2184,D2,167.625,0.125,95,75.0
2185,D2,167.75,0.125,95,75.0
2186,D2,167.875,0.125,95,75.0
2187,C1,168.0,2.0,95,75.0
2188,C3,168.0,2.0,95,75.0
2189,G2,168.0,2.0,95,75.0
2190,C2,168.0,2.0,95,75.0
2191,A3,168.0,0.25,95,75.0
2192,C2,168.0,0.25,95,75.0
2193,G4,168.0,2.0,95,75.0
2194,G3,168.0,2.0,95,75.0
2195,C2,168.25,0.25,95,75.0
2196,G3,168.5,0.25,95,75.0
2197,D2,168.5,0.25,95,75.0
2198,C2,168.75,0.25,95,75.0
2199,G3,169.0,0.25,95,75.0
2200,C2,169.0,0.25,95,75.0
2201,C2,169.25,0.25,95,75.0
2202,G3,169.5,0.25,95,75.0
2203,D2,169.5,0.25,95,75.0
2204,C2,169.75,0.25,95,75.0
2205,C#1,170.0,2.0,95,75.0
2206,C#3,170.0,2.0,95,75.0
2207,G#2,170.0,2.0,95,75.0
2208,C#2,170.0,2.0,95,75.0
2209,G3,170.0,0.25,95,75.0
2210,C2,170.0,0.25,95,75.0
2211,F#4,170.0,2.0,95,75.0
2212,F#3,170.0,2.0,95,75.0
2213,C2,170.25,0.25,95,75.0
2214,G3,170.5,0.25,95,75.0
2215,D2,170.5,0.25,95,75.0
2216,C2,170.75,0.25,95,75.0
2217,G3,171.0,0.25,95,75.0
2218,C2,171.0,0.25,95,75.0
2219,C2,171.25,0.25,95,75.0
2220,G3,171.5,0.25,95,75.0
2221,D2,171.5,0.25,95,75.0
2222,C2,171.75,0.25,95,75.0
2223,C1,172.0,2.0,95,75.0
2224,C3,172.0,2.0,95,75.0
2225,G2,172.0,2.0,95,75.0
2226,C2,172.0,2.0,95,75.0
2227,A3,172.0,0.25,95,75.0
2228,C2,172.0,0.25,95,75.0
2229,E-4,172.0,2.0,95,75.0
2230,E-3,172.0,2.0,95,75.0
2231,C2,172.25,0.25,95,75.0
2232,G3,172.5,0.25,95,75.0
2233,D2,172.5,0.25,95,75.0
2234,C2,172.75,0.25,95,75.0
2235,G3,173.0,0.25,95,75.0
2236,C2,173.0,0.25,95,75.0
2237,C2,173.25,0.25,95,75.0
2238,G3,173.5,0.25,95,75.0
2239,D2,173.5,0.25,95,75.0
2240,C2,173.75,0.25,95,75.0
2241,C#1,174.0,1.0,95,75.0
2242,C#3,174.0,1.0,95,75.0
2243,G#2,174.0,1.0,95,75.0
2244,C#2,174.0,1.0,95,75.0
2245,G3,174.0,0.25,95,75.0
2246,C2,174.0,0.25,95,75.0
2247,C2,174.25,0.25,95,75.0
2248,G3,174.5,0.25,95,75.0
2249,D2,174.5,0.25,95,75.0
2250,C2,174.75,0.25,95,75.0
2251,E-1,175.0,1.0,95,75.0
2252,E-3,175.0,1.0,95,75.0
2253,B-2,175.0,1.0,95,75.0
2254,E-2,175.0,1.0,95,75.0
2255,G3,175.0,0.25,95,75.0
2256,C2,175.0,0.25,95,75.0
2257,C2,175.25,0.25,95,75.0
2258,D2,175.5,0.125,95,75.0
2259,D2,175.625,0.125,95,75.0
2260,D2,175.75,0.125,95,75.0
2261,D2,175.875,0.125,95,75.0
2262,C1,176.0,2.0,95,75.0
2263,C3,176.0,2.0,95,75.0
2264,G2,176.0,2.0,95,75.0
2265,C2,176.0,2.0,95,75.0
2266,A3,176.0,0.25,95,75.0
2267,C2,176.0,0.25,95,75.0
2268,G4,176.0,2.0,95,75.0
2269,G3,176.0,2.0,95,75.0
2270,C2,176.25,0.25,95,75.0
2271,G3,176.5,0.25,95,75.0
2272,D2,176.5,0.25,95,75.0
2273,C2,176.75,0.25,95,75.0
2274,G3,177.0,0.25,95,75.0
2275,C2,177.0,0.25,95,75.0
2276,C2,177.25,0.25,95,75.0
2277,G3,177.5,0.25,95,75.0
2278,D2,177.5,0.25,95,75.0
2279,C2,177.75,0.25,95,75.0
2280,C#1,178.0,2.0,95,75.0
2281,C#3,178.0,2.0,95,75.0
2282,G#2,178.0,2.0,95,75.0
2283,C#2,178.0,2.0,95,75.0
2284,G3,178.0,0.25,95,75.0
2285,C2,178.0,0.25,95,75.0
2286,F#4,178.0,2.0,95,75.0
2287,F#3,178.0,2.0,95,75.0
2288,C2,178.25,0.25,95,75.0
2289,G3,178.5,0.25,95,75.0
2290,D2,178.5,0.25,95,75.0
2291,C2,178.75,0.25,95,75.0
2292,G3,179.0,0.25,95,75.0
2293,C2,179.0,0.25,95,75.0
2294,C2,179.25,0.25,95,75.0
2295,G3,179.5,0.25,95,75.0
2296,D2,179.5,0.25,95,75.0
2297,C2,179.75,0.25,95,75.0
2298,C1,180.0,1.0,95,75.0
2299,C3,180.0,1.0,95,75.0
2300,G2,180.0,1.0,95,75.0
2301,C2,180.0,1.0,95,75.0
2302,A3,180.0,0.25,95,75.0
2303,C2,180.0,0.25,95,75.0
2304,E-4,180.0,3.5,95,75.0
2305,E-3,180.0,3.5,95,75.0
2306,C2,180.25,0.25,95,75.0
2307,G3,180.5,0.25,95,75.0
2308,D2,180.5,0.25,95,75.0
2309,C2,180.75,0.25,95,75.0
2310,C1,181.0,21/500,95,75.0
2311,C3,181.0,0.25,86,75.0
2312,G2,181.0,0.25,86,75.0
2313,C2,181.0,0.25,86,75.0
2314,G3,181.0,0.25,95,75.0
2315,C2,181.0,0.25,95,75.0
2316,C2,181.25,0.25,95,75.0
2317,C1,181.333,21/500,95,75.0
2318,C3,181.333,0.25,86,75.0
2319,G2,181.333,0.25,86,75.0
2320,C2,181.333,0.25,86,75.0
2321,G3,181.5,0.25,95,75.0
2322,D2,181.5,0.25,95,75.0
2323,C1,181.667,21/500,95,75.0
2324,C3,181.667,0.25,86,75.0
2325,G2,181.667,0.25,86,75.0
2326,C2,181.667,0.25,86,75.0
2327,C2,181.75,0.25,95,75.0
2328,C#1,182.0,1.0,95,75.0
2329,C#3,182.0,1.0,95,75.0
2330,G#2,182.0,1.0,95,75.0
2331,C#2,182.0,1.0,95,75.0
2332,G3,182.0,0.25,95,75.0
2333,C2,182.0,0.25,95,75.0
2334,C2,182.25,0.25,95,75.0
2335,G3,182.5,0.25,95,75.0
2336,D2,182.5,0.25,95,75.0
2337,C2,182.75,0.25,95,75.0
2338,E-1,183.0,1.0,95,75.0
2339,E-3,183.0,1.0,95,75.0
2340,B-2,183.0,1.0,95,75.0
2341,E-2,183.0,1.0,95,75.0
2342,G3,183.0,0.25,95,75.0
2343,C2,183.0,0.25,95,75.0
2344,C2,183.25,0.25,95,75.0
2345,D2,183.5,0.125,95,75.0
2346,G#4,183.5,0.5,95,75.0
2347,G#3,183.5,0.5,95,75.0
2348,D2,183.625,0.125,95,75.0
2349,D2,183.75,0.125,95,75.0
2350,D2,183.875,0.125,95,75.0
2351,C1,184.0,2.0,95,75.0
2352,C3,184.0,2.0,95,75.0
2353,G2,184.0,2.0,95,75.0
2354,C2,184.0,2.0,95,75.0
2355,A3,184.0,0.25,95,75.0
2356,C2,184.0,0.25,95,75.0
2357,G4,184.0,2.0,95,75.0
2358,G3,184.0,2.0,95,75.0
2359,C2,184.25,0.25,95,75.0
2360,G3,184.5,0.25,95,75.0
2361,D2,184.5,0.25,95,75.0
2362,C2,184.75,0.25,95,75.0
2363,G3,185.0,0.25,95,75.0
2364,C2,185.0,0.25,95,75.0
2365,C2,185.25,0.25,95,75.0
2366,G3,185.5,0.25,95,75.0
2367,D2,185.5,0.25,95,75.0
2368,C2,185.75,0.25,95,75.0
2369,C#1,186.0,2.0,95,75.0
2370,C#3,186.0,2.0,95,75.0
2371,G#2,186.0,2.0,95,75.0
2372,C#2,186.0,2.0,95,75.0
2373,G3,186.0,0.25,95,75.0
2374,C2,186.0,0.25,95,75.0
2375,F#4,186.0,2.0,95,75.0
2376,F#3,186.0,2.0,95,75.0
2377,C2,186.25,0.25,95,75.0
2378,G3,186.5,0.25,95,75.0
2379,D2,186.5,0.25,95,75.0
2380,C2,186.75,0.25,95,75.0
2381,G3,187.0,0.25,95,75.0
2382,C2,187.0,0.25,95,75.0
2383,C2,187.25,0.25,95,75.0
2384,G3,187.5,0.25,95,75.0
2385,D2,187.5,0.25,95,75.0
2386,C2,187.75,0.25,95,75.0
2387,C1,188.0,2.0,95,75.0
2388,C3,188.0,2.0,95,75.0
2389,G2,188.0,2.0,95,75.0
2390,C2,188.0,2.0,95,75.0
2391,A3,188.0,0.25,95,75.0
2392,C2,188.0,0.25,95,75.0
2393,E-4,188.0,2.0,95,75.0
2394,E-3,188.0,2.0,95,75.0
2395,C2,188.25,0.25,95,75.0
2396,G3,188.5,0.25,95,75.0
2397,D2,188.5,0.25,95,75.0
2398,C2,188.75,0.25,95,75.0
2399,G3,189.0,0.25,95,75.0
2400,C2,189.0,0.25,95,75.0
2401,C2,189.25,0.25,95,75.0
2402,G3,189.5,0.25,95,75.0
2403,D2,189.5,0.25,95,75.0
2404,C2,189.75,0.25,95,75.0
2405,C#1,190.0,1.0,95,75.0
2406,C#3,190.0,1.0,95,75.0
2407,G#2,190.0,1.0,95,75.0
2408,C#2,190.0,1.0,95,75.0
2409,G3,190.0,0.25,95,75.0
2410,C2,190.0,0.25,95,75.0
2411,C2,190.25,0.25,95,75.0
2412,G3,190.5,0.25,95,75.0
2413,D2,190.5,0.25,95,75.0
2414,C2,190.75,0.25,95,75.0
2415,E-1,191.0,1.0,95,75.0
2416,E-3,191.0,1.0,95,75.0
2417,B-2,191.0,1.0,95,75.0
2418,E-2,191.0,1.0,95,75.0
2419,G3,191.0,0.25,95,75.0
2420,C2,191.0,0.25,95,75.0
2421,C2,191.25,0.25,95,75.0
2422,D2,191.5,0.125,95,75.0
2423,D2,191.625,0.125,95,75.0
2424,D2,191.75,0.125,95,75.0
2425,D2,191.875,0.125,95,75.0
2426,C1,192.0,0.25,95,75.0
2427,C5,192.0,1.0,95,75.0
2428,G4,192.0,0.25,95,75.0
2429,G3,192.0,0.25,95,75.0
2430,A3,192.0,0.25,95,75.0
2431,C2,192.0,0.25,95,75.0
2432,C2,192.25,0.25,95,75.0
2433,C1,192.25,0.25,95,75.0
2434,G4,192.25,0.25,95,75.0
2435,G3,192.25,0.25,95,75.0
2436,C1,192.5,0.25,95,75.0
2437,G4,192.5,0.25,95,75.0
2438,G3,192.5,0.25,95,75.0
2439,G3,192.5,0.25,95,75.0
2440,D2,192.5,0.25,95,75.0
2441,C2,192.75,0.25,95,75.0
2442,C1,192.75,0.25,95,75.0
2443,G4,192.75,0.25,95,75.0
2444,G3,192.75,0.25,95,75.0
2445,C1,193.0,0.25,95,75.0
2446,D5,193.0,0.25,95,75.0
2447,G4,193.0,0.25,95,75.0
2448,G3,193.0,0.25,95,75.0
2449,G3,193.0,0.25,95,75.0
2450,C2,193.0,0.25,95,75.0
2451,C2,193.25,0.25,95,75.0
2452,C1,193.25,0.25,95,75.0
2453,E-5,193.25,0.5,86,75.0
2454,G4,193.25,0.25,95,75.0
2455,G3,193.25,0.25,95,75.0
2456,C1,193.5,0.25,95,75.0
2457,G4,193.5,0.25,95,75.0
2458,G3,193.5,0.25,95,75.0
2459,G3,193.5,0.25,95,75.0
2460,D2,193.5,0.25,95,75.0
2461,C2,193.75,0.25,95,75.0
2462,C1,193.75,0.25,95,75.0
2463,G5,193.75,1.0,86,75.0
2464,F#4,193.75,0.25,86,75.0
2465,F#3,193.75,0.25,86,75.0
2466,C1,194.0,0.25,95,75.0
2467,F#4,194.0,0.25,95,75.0
2468,F#3,194.0,0.25,95,75.0
2469,G3,194.0,0.25,95,75.0
2470,C2,194.0,0.25,95,75.0
2471,C2,194.25,0.25,95,75.0
2472,C1,194.25,0.25,95,75.0
2473,F#4,194.25,0.25,95,75.0
2474,F#3,194.25,0.25,95,75.0
2475,C1,194.5,0.25,95,75.0
2476,F#4,194.5,0.25,95,75.0
2477,F#3,194.5,0.25,95,75.0
2478,G3,194.5,0.25,95,75.0
2479,D2,194.5,0.25,95,75.0
2480,C2,194.75,0.25,95,75.0
2481,C1,194.75,0.25,95,75.0
2482,C#6,194.75,0.75,86,75.0
2483,F#4,194.75,0.25,95,75.0
2484,F#3,194.75,0.25,95,75.0
2485,C1,195.0,0.25,95,75.0
2486,F#4,195.0,0.25,95,75.0
2487,F#3,195.0,0.25,95,75.0
2488,G3,195.0,0.25,95,75.0
2489,C2,195.0,0.25,95,75.0
2490,C2,195.25,0.25,95,75.0
2491,C1,195.25,0.25,95,75.0
2492,F#4,195.25,0.25,95,75.0
2493,F#3,195.25,0.25,95,75.0
2494,C1,195.5,0.25,95,75.0
2495,C6,195.5,0.5,86,75.0
2496,F#4,195.5,0.25,95,75.0
2497,F#3,195.5,0.25,95,75.0
2498,G3,195.5,0.25,95,75.0
2499,D2,195.5,0.25,95,75.0
2500,C2,195.75,0.25,95,75.0
2501,C1,195.75,0.25,95,75.0
2502,F#4,195.75,0.25,95,75.0
2503,F#3,195.75,0.25,95,75.0
2504,C1,196.0,0.25,95,75.0
2505,C6,196.0,1.0,95,75.0
2506,G4,196.0,0.25,95,75.0
2507,G3,196.0,0.25,95,75.0
2508,A3,196.0,0.25,95,75.0
2509,C2,196.0,0.25,95,75.0
2510,C2,196.25,0.25,95,75.0
2511,C1,196.25,0.25,95,75.0
2512,G4,196.25,0.25,95,75.0
2513,G3,196.25,0.25,95,75.0
2514,C1,196.5,0.25,95,75.0
2515,G4,196.5,0.25,95,75.0
2516,G3,196.5,0.25,95,75.0
2517,G3,196.5,0.25,95,75.0
2518,D2,196.5,0.25,95,75.0
2519,C2,196.75,0.25,95,75.0
2520,C1,196.75,0.25,95,75.0
2521,G4,196.75,0.25,95,75.0
2522,G3,196.75,0.25,95,75.0
2523,C1,197.0,0.25,95,75.0
2524,D6,197.0,0.25,95,75.0
2525,G4,197.0,0.25,95,75.0
2526,G3,197.0,0.25,95,75.0
2527,G3,197.0,0.25,95,75.0
2528,C2,197.0,0.25,95,75.0
2529,C2,197.25,0.25,95,75.0
2530,C1,197.25,0.25,95,75.0
2531,E-6,197.25,0.5,86,75.0
2532,G4,197.25,0.25,95,75.0
2533,G3,197.25,0.25,95,75.0
2534,C1,197.5,0.25,95,75.0
2535,G4,197.5,0.25,95,75.0
2536,G3,197.5,0.25,95,75.0
2537,G3,197.5,0.25,95,75.0
2538,D2,197.5,0.25,95,75.0
2539,C2,197.75,0.25,95,75.0
2540,C1,197.75,0.25,95,75.0
2541,G6,197.75,1.0,86,75.0
2542,F#4,197.75,0.25,86,75.0
2543,F#3,197.75,0.25,86,75.0
2544,C1,198.0,0.25,95,75.0
2545,F#4,198.0,0.25,95,75.0
2546,F#3,198.0,0.25,95,75.0
2547,G3,198.0,0.25,95,75.0
2548,C2,198.0,0.25,95,75.0
2549,C2,198.25,0.25,95,75.0
2550,C1,198.25,0.25,95,75.0
2551,F#4,198.25,0.25,95,75.0
2552,F#3,198.25,0.25,95,75.0
2553,C1,198.5,0.25,95,75.0
2554,F#4,198.5,0.25,95,75.0
2555,F#3,198.5,0.25,95,75.0
2556,G3,198.5,0.25,95,75.0
2557,D2,198.5,0.25,95,75.0
2558,C2,198.75,0.25,95,75.0
2559,C1,198.75,0.25,95,75.0
2560,C#7,198.75,0.75,86,75.0
2561,F#4,198.75,0.25,95,75.0
2562,F#3,198.75,0.25,95,75.0
2563,C1,199.0,0.25,95,75.0
2564,F#4,199.0,0.25,95,75.0
2565,F#3,199.0,0.25,95,75.0
2566,G3,199.0,0.25,95,75.0
2567,C2,199.0,0.25,95,75.0
2568,C2,199.25,0.25,95,75.0
2569,C1,199.25,0.25,95,75.0
2570,B-4,199.25,0.25,86,75.0
2571,B-3,199.25,0.25,86,75.0
2572,C1,199.5,0.25,95,75.0
2573,C7,199.5,0.5,95,75.0
2574,B-4,199.5,0.25,95,75.0
2575,B-3,199.5,0.25,95,75.0
2576,G3,199.5,0.25,95,75.0
2577,D2,199.5,0.25,95,75.0
2578,C2,199.75,0.25,95,75.0
2579,C1,199.75,0.25,95,75.0
2580,B-4,199.75,0.25,95,75.0
2581,B-3,199.75,0.25,95,75.0
2582,C1,200.0,0.25,95,75.0
2583,C5,200.0,1.0,95,75.0
2584,G4,200.0,0.25,95,75.0
2585,G3,200.0,0.25,95,75.0
2586,A3,200.0,0.25,95,75.0
2587,C2,200.0,0.25,95,75.0
2588,C2,200.25,0.25,95,75.0
2589,C1,200.25,0.25,95,75.0
2590,G4,200.25,0.25,95,75.0
2591,G3,200.25,0.25,95,75.0
2592,C1,200.5,0.25,95,75.0
2593,G4,200.5,0.25,95,75.0
2594,G3,200.5,0.25,95,75.0
2595,G3,200.5,0.25,95,75.0
2596,D2,200.5,0.25,95,75.0
2597,C2,200.75,0.25,95,75.0
2598,C1,200.75,0.25,95,75.0
2599,G4,200.75,0.25,95,75.0
2600,G3,200.75,0.25,95,75.0
2601,C1,201.0,0.25,95,75.0
2602,D5,201.0,0.25,95,75.0
2603,G4,201.0,0.25,95,75.0
2604,G3,201.0,0.25,95,75.0
2605,G3,201.0,0.25,95,75.0
2606,C2,201.0,0.25,95,75.0
2607,C2,201.25,0.25,95,75.0
2608,C1,201.25,0.25,95,75.0
2609,E-5,201.25,0.5,86,75.0
2610,G4,201.25,0.25,95,75.0
2611,G3,201.25,0.25,95,75.0
2612,C1,201.5,0.25,95,75.0
2613,G4,201.5,0.25,95,75.0
2614,G3,201.5,0.25,95,75.0
2615,G3,201.5,0.25,95,75.0
2616,D2,201.5,0.25,95,75.0
2617,C2,201.75,0.25,95,75.0
2618,C1,201.75,0.25,95,75.0
2619,G5,201.75,1.0,86,75.0
2620,F#4,201.75,0.25,86,75.0
2621,F#3,201.75,0.25,86,75.0
2622,C1,202.0,0.25,95,75.0
2623,F#4,202.0,0.25,95,75.0
2624,F#3,202.0,0.25,95,75.0
2625,G3,202.0,0.25,95,75.0
2626,C2,202.0,0.25,95,75.0
2627,C2,202.25,0.25,95,75.0
2628,C1,202.25,0.25,95,75.0
2629,F#4,202.25,0.25,95,75.0
2630,F#3,202.25,0.25,95,75.0
2631,C1,202.5,0.25,95,75.0
2632,F#4,202.5,0.25,95,75.0
2633,F#3,202.5,0.25,95,75.0
2634,G3,202.5,0.25,95,75.0
2635,D2,202.5,0.25,95,75.0
2636,C2,202.75,0.25,95,75.0
2637,C1,202.75,0.25,95,75.0
2638,C#6,202.75,0.75,86,75.0
2639,F#4,202.75,0.25,95,75.0
2640,F#3,202.75,0.25,95,75.0
2641,C1,203.0,0.25,95,75.0
2642,F#4,203.0,0.25,95,75.0
2643,F#3,203.0,0.25,95,75.0
2644,G3,203.0,0.25,95,75.0
2645,C2,203.0,0.25,95,75.0
2646,C2,203.25,0.25,95,75.0
2647,C1,203.25,0.25,95,75.0
2648,F#4,203.25,0.25,95,75.0
2649,F#3,203.25,0.25,95,75.0
2650,C1,203.5,0.25,95,75.0
2651,C6,203.5,0.5,86,75.0
2652,F#4,203.5,0.25,95,75.0
2653,F#3,203.5,0.25,95,75.0
2654,G3,203.5,0.25,95,75.0
2655,D2,203.5,0.25,95,75.0
2656,C2,203.75,0.25,95,75.0
2657,C1,203.75,0.25,95,75.0
2658,F#4,203.75,0.25,95,75.0
2659,F#3,203.75,0.25,95,75.0
2660,C1,204.0,0.25,95,75.0
2661,C6,204.0,1.0,95,75.0
2662,G4,204.0,0.25,95,75.0
2663,G3,204.0,0.25,95,75.0
2664,A3,204.0,0.25,95,75.0
2665,C2,204.0,0.25,95,75.0
2666,C2,204.25,0.25,95,75.0
2667,C1,204.25,0.25,95,75.0
2668,G4,204.25,0.25,95,75.0
2669,G3,204.25,0.25,95,75.0
2670,C1,204.5,0.25,95,75.0
2671,G4,204.5,0.25,95,75.0
2672,G3,204.5,0.25,95,75.0
2673,G3,204.5,0.25,95,75.0
2674,D2,204.5,0.25,95,75.0
2675,C2,204.75,0.25,95,75.0
2676,C1,204.75,0.25,95,75.0
2677,G4,204.75,0.25,95,75.0
2678,G3,204.75,0.25,95,75.0
2679,C1,205.0,0.25,95,75.0
2680,D6,205.0,0.25,95,75.0
2681,G4,205.0,0.25,95,75.0
2682,G3,205.0,0.25,95,75.0
2683,G3,205.0,0.25,95,75.0
2684,C2,205.0,0.25,95,75.0
2685,C2,205.25,0.25,95,75.0
2686,C1,205.25,0.25,95,75.0
2687,E-6,205.25,0.5,86,75.0
2688,G4,205.25,0.25,95,75.0
2689,G3,205.25,0.25,95,75.0
2690,C1,205.5,0.25,95,75.0
2691,G4,205.5,0.25,95,75.0
2692,G3,205.5,0.25,95,75.0
2693,G3,205.5,0.25,95,75.0
2694,D2,205.5,0.25,95,75.0
2695,C2,205.75,0.25,95,75.0
2696,C1,205.75,0.25,95,75.0
2697,G6,205.75,1.0,86,75.0
2698,F#4,205.75,0.25,86,75.0
2699,F#3,205.75,0.25,86,75.0
2700,C1,206.0,0.25,95,75.0
2701,F#4,206.0,0.25,95,75.0
2702,F#3,206.0,0.25,95,75.0
2703,G3,206.0,0.25,95,75.0
2704,C2,206.0,0.25,95,75.0
2705,C2,206.25,0.25,95,75.0
2706,C1,206.25,0.25,95,75.0
2707,F#4,206.25,0.25,95,75.0
2708,F#3,206.25,0.25,95,75.0
2709,C1,206.5,0.25,95,75.0
2710,F#4,206.5,0.25,95,75.0
2711,F#3,206.5,0.25,95,75.0
2712,G3,206.5,0.25,95,75.0
2713,D2,206.5,0.25,95,75.0
2714,C2,206.75,0.25,95,75.0
2715,C1,206.75,0.25,95,75.0
2716,C#7,206.75,0.75,86,75.0
2717,F#4,206.75,0.25,95,75.0
2718,F#3,206.75,0.25,95,75.0
2719,C1,207.0,0.25,95,75.0
2720,F#4,207.0,0.25,95,75.0
2721,F#3,207.0,0.25,95,75.0
2722,G3,207.0,0.125,95,75.0
2723,D2,207.0,0.125,95,75.0
2724,D2,207.125,0.125,95,75.0
2725,D2,207.25,0.125,95,75.0
2726,C1,207.25,0.25,95,75.0
2727,B-4,207.25,0.25,86,75.0
2728,B-3,207.25,0.25,86,75.0
2729,A2,207.375,0.125,95,75.0
2730,D2,207.5,0.125,95,75.0
2731,C1,207.5,0.25,95,75.0
2732,C7,207.5,0.5,95,75.0
2733,B-4,207.5,0.25,95,75.0
2734,B-3,207.5,0.25,95,75.0
2735,B2,207.625,0.125,95,75.0
2736,A2,207.75,0.125,95,75.0
2737,C1,207.75,0.25,95,75.0
2738,B-4,207.75,0.25,95,75.0
2739,B-3,207.75,0.25,95,75.0
2740,G2,207.875,0.125,95,75.0
2741,G3,208.0,1.75,95,75.0
2742,C2,208.0,0.25,95,75.0
2743,G3,208.0,3.0,95,75.0
2744,C2,208.0,3.0,95,75.0
2745,C2,208.25,0.25,95,75.0
2746,C2,208.5,0.25,95,75.0
2747,C2,208.75,0.25,95,75.0
2748,C2,209.0,0.25,95,75.0
2749,C2,209.25,0.25,95,75.0
2750,C2,209.5,0.25,95,75.0
2751,F#3,209.75,2.25,95,75.0
2752,C2,209.75,0.25,95,75.0
2753,C#2,210.0,0.25,95,75.0
2754,C#2,210.25,0.25,95,75.0
2755,C#2,210.5,0.25,95,75.0
2756,C#2,210.75,0.25,95,75.0
2757,E-2,211.0,0.25,95,75.0
2758,G3,211.0,0.25,95,75.0
2759,C2,211.0,0.25,95,75.0
2760,E-2,211.25,0.25,95,75.0
2761,G3,211.25,0.25,95,75.0
2762,C2,211.25,0.25,95,75.0
2763,E-2,211.5,0.25,95,75.0
2764,G3,211.5,0.25,95,75.0
2765,C2,211.5,0.25,95,75.0
2766,E-2,211.75,0.25,95,75.0
2767,G3,211.75,0.25,95,75.0
2768,C2,211.75,0.25,95,75.0
2769,G3,212.0,1.75,95,75.0
2770,C2,212.0,0.25,95,75.0
2771,G3,212.0,2.0,95,75.0
2772,C2,212.0,2.0,95,75.0
2773,C2,212.25,0.25,95,75.0
2774,C2,212.5,0.25,95,75.0
2775,C2,212.75,0.25,95,75.0
2776,C2,213.0,0.25,95,75.0
2777,C2,213.25,0.25,95,75.0
2778,C2,213.5,0.25,95,75.0
2779,F#3,213.75,1.25,95,75.0
2780,C2,213.75,0.25,95,75.0
2781,C#2,214.0,0.25,95,75.0
2782,C#2,214.25,0.25,95,75.0
2783,G3,214.5,0.5,95,75.0
2784,C#2,214.5,0.25,95,75.0
2785,C#2,214.75,0.25,95,75.0
2786,G3,215.0,0.5,95,75.0
2787,G3,215.0,0.25,95,75.0
2788,E-2,215.0,0.25,95,75.0
2789,B-3,215.25,0.75,86,75.0
2790,E-2,215.25,0.25,95,75.0
2791,G3,215.5,0.5,95,75.0
2792,F2,215.5,0.5,95,75.0
2793,C2,216.0,0.25,95,75.0
2794,C1,216.0,0.25,95,75.0
2795,G3,216.0,1.75,95,75.0
2796,G3,216.0,1.5,95,75.0
2797,C2,216.0,1.5,95,75.0
2798,C2,216.25,0.25,95,75.0
2799,C1,216.25,0.25,95,75.0
2800,C2,216.5,0.25,95,75.0
2801,C1,216.5,0.25,95,75.0
2802,C2,216.75,0.25,95,75.0
2803,C1,216.75,0.25,95,75.0
2804,C2,217.0,0.25,95,75.0
2805,C1,217.0,0.25,95,75.0
2806,C2,217.25,0.25,95,75.0
2807,C1,217.25,0.25,95,75.0
2808,C2,217.5,0.25,95,75.0
2809,C1,217.5,0.25,95,75.0
2810,G3,217.5,0.25,95,75.0
2811,C2,217.5,0.25,95,75.0
2812,C#2,217.75,0.25,95,75.0
2813,C2,217.75,0.25,95,75.0
2814,C#1,217.75,0.25,95,75.0
2815,F#3,217.75,2.25,95,75.0
2816,C#2,218.0,0.25,95,75.0
2817,C#1,218.0,0.25,95,75.0
2818,G3,218.0,0.25,95,75.0
2819,C2,218.0,0.25,95,75.0
2820,C#2,218.25,0.25,95,75.0
2821,C2,218.25,0.25,95,75.0
2822,C#1,218.25,0.25,95,75.0
2823,C#2,218.5,0.25,95,75.0
2824,C#1,218.5,0.25,95,75.0
2825,G3,218.5,0.25,95,75.0
2826,C2,218.5,0.25,95,75.0
2827,C#2,218.75,0.25,95,75.0
2828,C2,218.75,0.25,95,75.0
2829,C#1,218.75,0.25,95,75.0
2830,C#2,219.0,0.25,95,75.0
2831,C#1,219.0,0.25,95,75.0
2832,G3,219.0,0.5,95,75.0
2833,C2,219.0,0.5,95,75.0
2834,C#2,219.25,0.25,95,75.0
2835,C#1,219.25,0.25,95,75.0
2836,C#2,219.5,0.25,95,75.0
2837,C#1,219.5,0.25,95,75.0
2838,G3,219.5,0.25,95,75.0
2839,C2,219.5,0.25,95,75.0
2840,C#2,219.75,0.25,95,75.0
2841,C2,219.75,0.25,95,75.0
2842,C#1,219.75,0.25,95,75.0
2843,C2,220.0,0.25,95,75.0
2844,C1,220.0,0.25,95,75.0
2845,G3,220.0,1.75,95,75.0
2846,G3,220.0,1.5,95,75.0
2847,C2,220.0,1.5,95,75.0
2848,C2,220.25,0.25,95,75.0
2849,C1,220.25,0.25,95,75.0
2850,C2,220.5,0.25,95,75.0
2851,C1,220.5,0.25,95,75.0
2852,C2,220.75,0.25,95,75.0
2853,C1,220.75,0.25,95,75.0
2854,C2,221.0,0.25,95,75.0
2855,C1,221.0,0.25,95,75.0
2856,C2,221.25,0.25,95,75.0
2857,C1,221.25,0.25,95,75.0
2858,C2,221.5,0.25,95,75.0
2859,C1,221.5,0.25,95,75.0
2860,G3,221.5,0.25,95,75.0
2861,C2,221.5,0.25,95,75.0
2862,C2,221.75,0.25,95,75.0
2863,C2,221.75,0.25,95,75.0
2864,C#1,221.75,0.25,95,75.0
2865,F#3,221.75,1.25,95,75.0
2866,C#2,222.0,0.25,95,75.0
2867,C#1,222.0,0.25,95,75.0
2868,G3,222.0,0.25,95,75.0
2869,C2,222.0,0.25,95,75.0
2870,C#2,222.25,0.25,95,75.0
2871,C2,222.25,0.25,95,75.0
2872,C#1,222.25,0.25,95,75.0
2873,C#2,222.5,0.25,95,75.0
2874,C#1,222.5,0.25,95,75.0
2875,G3,222.5,0.25,95,75.0
2876,C2,222.5,0.25,95,75.0
2877,C#2,222.75,0.25,95,75.0
2878,C2,222.75,0.25,95,75.0
2879,C#1,222.75,0.25,95,75.0
2880,E-2,223.0,0.25,95,75.0
2881,C#1,223.0,0.25,95,75.0
2882,C3,223.0,1.0,95,75.0
2883,G3,223.0,0.5,95,75.0
2884,C2,223.0,0.5,95,75.0
2885,E-2,223.25,0.25,95,75.0
2886,E-1,223.25,0.25,95,75.0
2887,E-2,223.5,0.25,95,75.0
2888,E-1,223.5,0.25,95,75.0
2889,G3,223.5,0.25,95,75.0
2890,C2,223.5,0.25,95,75.0
2891,E-2,223.75,0.25,95,75.0
2892,C2,223.75,0.25,95,75.0
2893,E-1,223.75,0.25,95,75.0
2894,C2,224.0,0.25,95,75.0
2895,D2,224.0,0.125,95,75.0
2896,C1,224.0,0.25,95,75.0
2897,G3,224.0,1.75,95,75.0
2898,D2,224.125,0.125,95,75.0
2899,C2,224.25,0.25,95,75.0
2900,D2,224.25,0.125,95,75.0
2901,C1,224.25,0.25,95,75.0
2902,D2,224.375,0.125,95,75.0
2903,C2,224.5,0.25,95,75.0
2904,D2,224.5,0.125,95,75.0
2905,C1,224.5,0.25,95,75.0
2906,D2,224.625,0.125,95,75.0
2907,C2,224.75,0.25,95,75.0
2908,D2,224.75,0.125,95,75.0
2909,C1,224.75,0.25,95,75.0
2910,D2,224.875,0.125,95,75.0
2911,C2,225.0,0.25,95,75.0
2912,D2,225.0,0.125,95,75.0
2913,C1,225.0,0.25,95,75.0
2914,D2,225.125,0.125,95,75.0
2915,C2,225.25,0.25,95,75.0
2916,D2,225.25,0.125,95,75.0
2917,C1,225.25,0.25,95,75.0
2918,D2,225.375,0.125,95,75.0
2919,C2,225.5,0.25,95,75.0
2920,D2,225.5,0.125,95,75.0
2921,C1,225.5,0.25,95,75.0
2922,D2,225.625,0.125,95,75.0
2923,C2,225.75,0.25,95,75.0
2924,D2,225.75,0.125,95,75.0
2925,C#1,225.75,0.25,95,75.0
2926,F#3,225.75,2.25,95,75.0
2927,D2,225.875,0.125,95,75.0
2928,C2,226.0,0.25,95,75.0
2929,D2,226.0,0.125,95,75.0
2930,C#1,226.0,0.25,95,75.0
2931,D2,226.125,0.125,95,75.0
2932,C2,226.25,0.25,95,75.0
2933,D2,226.25,0.125,95,75.0
2934,C#1,226.25,0.25,95,75.0
2935,D2,226.375,0.125,95,75.0
2936,C2,226.5,0.25,95,75.0
2937,D2,226.5,0.125,95,75.0
2938,C#1,226.5,0.25,95,75.0
2939,D2,226.625,0.125,95,75.0
2940,C2,226.75,0.25,95,75.0
2941,D2,226.75,0.125,95,75.0
2942,C#1,226.75,0.25,95,75.0
2943,D2,226.875,0.125,95,75.0
2944,C2,227.0,0.25,95,75.0
2945,D2,227.0,0.125,95,75.0
2946,C#1,227.0,0.25,95,75.0
2947,D2,227.125,0.125,95,75.0
2948,C2,227.25,0.25,95,75.0
2949,D2,227.25,0.125,95,75.0
2950,C#1,227.25,0.25,95,75.0
2951,D2,227.375,0.125,95,75.0
2952,C2,227.5,0.25,95,75.0
2953,D2,227.5,0.125,95,75.0
2954,C#1,227.5,0.25,95,75.0
2955,D2,227.625,0.125,95,75.0
2956,C2,227.75,0.25,95,75.0
2957,D2,227.75,0.125,95,75.0
2958,C#1,227.75,0.25,95,75.0
2959,D2,227.875,0.125,95,75.0
2960,C2,228.0,0.25,95,75.0
2961,D3,228.0,0.125,95,75.0
2962,C1,228.0,0.25,95,75.0
2963,G3,228.0,1.75,95,75.0
2964,D3,228.125,0.125,76,75.0
2965,C2,228.25,0.25,95,75.0
2966,B2,228.25,0.125,95,75.0
2967,C1,228.25,0.25,95,75.0
2968,B2,228.375,0.125,76,75.0
2969,C2,228.5,0.25,95,75.0
2970,A2,228.5,0.125,95,75.0
2971,C1,228.5,0.25,95,75.0
2972,A2,228.625,0.125,76,75.0
2973,C2,228.75,0.25,95,75.0
2974,B2,228.75,0.125,95,75.0
2975,C1,228.75,0.25,95,75.0
2976,B2,228.875,0.125,76,75.0
2977,C2,229.0,0.25,95,75.0
2978,D3,229.0,0.125,95,75.0
2979,C1,229.0,0.25,95,75.0
2980,D3,229.125,0.125,76,75.0
2981,C2,229.25,0.25,95,75.0
2982,A2,229.25,0.125,95,75.0
2983,C1,229.25,0.25,95,75.0
2984,A2,229.375,0.125,76,75.0
2985,C2,229.5,0.25,95,75.0
2986,G2,229.5,0.125,95,75.0
2987,C1,229.5,0.25,95,75.0
2988,G2,229.625,0.125,76,75.0
2989,C2,229.75,0.25,95,75.0
2990,F2,229.75,0.125,95,75.0
2991,C#1,229.75,0.25,95,75.0
2992,F#3,229.75,1.25,95,75.0
2993,F2,229.875,0.125,76,75.0
2994,C#2,230.0,0.25,95,75.0
2995,D2,230.0,0.25,95,75.0
2996,C#1,230.0,0.25,95,75.0
2997,C#2,230.25,0.25,95,75.0
2998,D2,230.25,0.25,95,75.0
2999,C#1,230.25,0.25,95,75.0
3000,C#2,230.5,0.25,95,75.0
3001,C2,230.5,0.125,95,75.0
3002,C#1,230.5,0.25,95,75.0
3003,D2,230.625,0.125,95,75.0
3004,C#2,230.75,0.25,95,75.0
3005,D2,230.75,0.125,95,75.0
3006,C#1,230.75,0.25,95,75.0
3007,D2,230.875,0.125,95,75.0
3008,E-2,231.0,0.25,95,75.0
3009,D2,231.0,0.125,95,75.0
3010,C#1,231.0,0.25,95,75.0
3011,G3,231.0,0.25,95,75.0
3012,D2,231.125,0.125,95,75.0
3013,E-2,231.25,0.25,95,75.0
3014,D2,231.25,0.125,95,75.0
3015,E-1,231.25,0.25,95,75.0
3016,B-3,231.25,0.75,86,75.0
3017,D2,231.375,0.125,95,75.0
3018,E-2,231.5,0.25,95,75.0
3019,D2,231.5,0.125,95,75.0
3020,E-1,231.5,0.25,95,75.0
3021,D2,231.625,0.125,95,75.0
3022,E-2,231.75,0.25,95,75.0
3023,D2,231.75,0.125,95,75.0
3024,E-1,231.75,0.25,95,75.0
3025,D2,231.875,0.125,95,75.0
3026,C2,232.0,0.25,95,75.0
3027,C2,232.0,0.25,95,75.0
3028,C2,232.0,0.25,95,75.0
3029,G4,232.0,0.25,95,75.0
3030,G3,232.0,0.25,95,75.0
3031,A3,232.0,0.25,95,75.0
3032,C2,232.0,0.25,95,75.0
3033,G4,232.0,2.0,95,75.0
3034,G3,232.0,2.0,95,75.0
3035,C2,232.25,0.25,95,75.0
3036,C2,232.25,0.25,95,75.0
3037,C2,232.25,0.25,95,75.0
3038,C2,232.25,0.25,95,75.0
3039,G4,232.25,0.25,95,75.0
3040,G3,232.25,0.25,95,75.0
3041,C2,232.5,0.25,95,75.0
3042,C2,232.5,0.25,95,75.0
3043,C2,232.5,0.25,95,75.0
3044,G4,232.5,0.25,95,75.0
3045,G3,232.5,0.25,95,75.0
3046,G3,232.5,0.375,95,75.0
3047,D2,232.5,0.375,95,75.0
3048,C2,232.75,0.25,95,75.0
3049,C2,232.75,0.25,95,75.0
3050,C2,232.75,0.25,95,75.0
3051,G4,232.75,0.25,95,75.0
3052,G3,232.75,0.25,95,75.0
3053,D2,232.875,0.125,95,75.0
3054,C2,233.0,0.25,95,75.0
3055,C2,233.0,0.25,95,75.0
3056,C2,233.0,0.25,95,75.0
3057,G4,233.0,0.25,95,75.0
3058,G3,233.0,0.25,95,75.0
3059,G3,233.0,0.25,95,75.0
3060,C2,233.0,0.25,95,75.0
3061,C2,233.25,0.25,95,75.0
3062,C2,233.25,0.25,95,75.0
3063,C2,233.25,0.25,95,75.0
3064,C2,233.25,0.25,95,75.0
3065,G4,233.25,0.25,95,75.0
3066,G3,233.25,0.25,95,75.0
3067,C2,233.5,0.25,95,75.0
3068,C2,233.5,0.25,95,75.0
3069,C2,233.5,0.25,95,75.0
3070,G4,233.5,0.25,95,75.0
3071,G3,233.5,0.25,95,75.0
3072,G3,233.5,0.25,95,75.0
3073,D2,233.5,0.25,95,75.0
3074,C2,233.75,0.25,95,75.0
3075,C2,233.75,0.25,95,75.0
3076,C2,233.75,0.25,95,75.0
3077,C2,233.75,0.25,95,75.0
3078,F#4,233.75,0.25,86,75.0
3079,F#3,233.75,0.25,86,75.0
3080,C2,234.0,0.25,95,75.0
3081,C2,234.0,0.25,95,75.0
3082,C#2,234.0,0.25,95,75.0
3083,F#4,234.0,0.25,95,75.0
3084,F#3,234.0,0.25,95,75.0
3085,G3,234.0,0.25,95,75.0
3086,C2,234.0,0.25,95,75.0
3087,F#4,234.0,2.0,95,75.0
3088,F#3,234.0,2.0,95,75.0
3089,C2,234.25,0.25,95,75.0
3090,C2,234.25,0.25,95,75.0
3091,C2,234.25,0.25,95,75.0
3092,C#2,234.25,0.25,95,75.0
3093,F#4,234.25,0.25,95,75.0
3094,F#3,234.25,0.25,95,75.0
3095,C2,234.5,0.25,95,75.0
3096,C2,234.5,0.25,95,75.0
3097,C#2,234.5,0.25,95,75.0
3098,F#4,234.5,0.25,95,75.0
3099,F#3,234.5,0.25,95,75.0
3100,G3,234.5,0.375,95,75.0
3101,D2,234.5,0.375,95,75.0
3102,C2,234.75,0.25,95,75.0
3103,C2,234.75,0.25,95,75.0
3104,C#2,234.75,0.25,95,75.0
3105,F#4,234.75,0.25,95,75.0
3106,F#3,234.75,0.25,95,75.0
3107,D2,234.875,0.125,95,75.0
3108,C2,235.0,0.25,95,75.0
3109,C2,235.0,0.25,95,75.0
3110,E-2,235.0,0.25,95,75.0
3111,F#4,235.0,0.25,95,75.0
3112,F#3,235.0,0.25,95,75.0
3113,G3,235.0,0.25,95,75.0
3114,C2,235.0,0.25,95,75.0
3115,C2,235.25,0.25,95,75.0
3116,C2,235.25,0.25,95,75.0
3117,C2,235.25,0.25,95,75.0
3118,E-2,235.25,0.25,95,75.0
3119,F#4,235.25,0.25,95,75.0
3120,F#3,235.25,0.25,95,75.0
3121,C2,235.5,0.25,95,75.0
3122,C2,235.5,0.25,95,75.0
3123,E-2,235.5,0.25,95,75.0
3124,F#4,235.5,0.25,95,75.0
3125,F#3,235.5,0.25,95,75.0
3126,A3,235.5,0.25,95,75.0
3127,D2,235.5,0.25,95,75.0
3128,C2,235.75,0.25,95,75.0
3129,C2,235.75,0.25,95,75.0
3130,C2,235.75,0.25,95,75.0
3131,E-2,235.75,0.25,95,75.0
3132,F#4,235.75,0.25,95,75.0
3133,F#3,235.75,0.25,95,75.0
3134,C2,236.0,0.25,95,75.0
3135,C2,236.0,0.25,95,75.0
3136,C2,236.0,0.25,95,75.0
3137,G4,236.0,0.25,95,75.0
3138,G3,236.0,0.25,95,75.0
3139,A3,236.0,0.25,95,75.0
3140,C2,236.0,0.25,95,75.0
3141,E-4,236.0,3.5,95,75.0
3142,E-3,236.0,3.5,95,75.0
3143,C2,236.25,0.25,95,75.0
3144,C2,236.25,0.25,95,75.0
3145,C2,236.25,0.25,95,75.0
3146,C2,236.25,0.25,95,75.0
3147,G4,236.25,0.25,95,75.0
3148,G3,236.25,0.25,95,75.0
3149,C2,236.5,0.25,95,75.0
3150,C2,236.5,0.25,95,75.0
3151,C2,236.5,0.25,95,75.0
3152,G4,236.5,0.25,95,75.0
3153,G3,236.5,0.25,95,75.0
3154,G3,236.5,0.375,95,75.0
3155,D2,236.5,0.375,95,75.0
3156,C2,236.75,0.25,95,75.0
3157,C2,236.75,0.25,95,75.0
3158,C2,236.75,0.25,95,75.0
3159,G4,236.75,0.25,95,75.0
3160,G3,236.75,0.25,95,75.0
3161,D2,236.875,0.125,95,75.0
3162,C2,237.0,0.25,95,75.0
3163,C2,237.0,0.25,95,75.0
3164,C2,237.0,0.25,95,75.0
3165,G4,237.0,0.25,95,75.0
3166,G3,237.0,0.25,95,75.0
3167,G3,237.0,0.25,95,75.0
3168,C2,237.0,0.25,95,75.0
3169,C2,237.25,0.25,95,75.0
3170,C2,237.25,0.25,95,75.0
3171,C2,237.25,0.25,95,75.0
3172,C2,237.25,0.25,95,75.0
3173,G4,237.25,0.25,95,75.0
3174,G3,237.25,0.25,95,75.0
3175,C2,237.5,0.25,95,75.0
3176,C2,237.5,0.25,95,75.0
3177,C2,237.5,0.25,95,75.0
3178,G4,237.5,0.25,95,75.0
3179,G3,237.5,0.25,95,75.0
3180,G3,237.5,0.25,95,75.0
3181,D2,237.5,0.25,95,75.0
3182,C2,237.75,0.25,95,75.0
3183,C2,237.75,0.25,95,75.0
3184,C2,237.75,0.25,95,75.0
3185,C2,237.75,0.25,95,75.0
3186,F#4,237.75,0.25,86,75.0
3187,F#3,237.75,0.25,86,75.0
3188,C2,238.0,0.25,95,75.0
3189,C2,238.0,0.25,95,75.0
3190,C#2,238.0,0.25,95,75.0
3191,F#4,238.0,0.25,95,75.0
3192,F#3,238.0,0.25,95,75.0
3193,G3,238.0,0.25,95,75.0
3194,C2,238.0,0.25,95,75.0
3195,C2,238.25,0.25,95,75.0
3196,C2,238.25,0.25,95,75.0
3197,C2,238.25,0.25,95,75.0
3198,C#2,238.25,0.25,95,75.0
3199,F#4,238.25,0.25,95,75.0
3200,F#3,238.25,0.25,95,75.0
3201,C2,238.5,0.25,95,75.0
3202,C2,238.5,0.25,95,75.0
3203,C#2,238.5,0.25,95,75.0
3204,F#4,238.5,0.25,95,75.0
3205,F#3,238.5,0.25,95,75.0
3206,G3,238.5,0.375,95,75.0
3207,D2,238.5,0.375,95,75.0
3208,C2,238.75,0.25,95,75.0
3209,C2,238.75,0.25,95,75.0
3210,C#2,238.75,0.25,95,75.0
3211,F#4,238.75,0.25,95,75.0
3212,F#3,238.75,0.25,95,75.0
3213,D2,238.875,0.125,95,75.0
3214,C2,239.0,0.25,95,75.0
3215,C2,239.0,0.25,95,75.0
3216,E-2,239.0,0.25,95,75.0
3217,F#4,239.0,0.25,95,75.0
3218,F#3,239.0,0.25,95,75.0
3219,G3,239.0,0.25,95,75.0
3220,C2,239.0,0.25,95,75.0
3221,C2,239.25,0.25,95,75.0
3222,C2,239.25,0.25,95,75.0
3223,C2,239.25,0.25,95,75.0
3224,E-2,239.25,0.25,95,75.0
3225,B-4,239.25,0.25,86,75.0
3226,B-3,239.25,0.25,86,75.0
3227,C2,239.5,0.25,95,75.0
3228,C2,239.5,0.25,95,75.0
3229,E-2,239.5,0.25,95,75.0
3230,B-4,239.5,0.25,95,75.0
3231,B-3,239.5,0.25,95,75.0
3232,G3,239.5,0.125,95,75.0
3233,D2,239.5,0.125,95,75.0
3234,G#4,239.5,0.5,95,75.0
3235,G#3,239.5,0.5,95,75.0
3236,D2,239.625,0.125,95,75.0
3237,D2,239.75,0.125,95,75.0
3238,C2,239.75,0.25,95,75.0
3239,C2,239.75,0.25,95,75.0
3240,E-2,239.75,0.25,95,75.0
3241,B-4,239.75,0.25,95,75.0
3242,B-3,239.75,0.25,95,75.0
3243,D2,239.875,0.125,95,75.0
3244,C2,240.0,0.25,95,75.0
3245,C2,240.0,0.25,95,75.0
3246,C2,240.0,0.25,95,75.0
3247,G4,240.0,0.25,95,75.0
3248,G3,240.0,0.25,95,75.0
3249,A3,240.0,0.25,95,75.0
3250,C2,240.0,0.25,95,75.0
3251,G4,240.0,2.0,95,75.0
3252,G3,240.0,2.0,95,75.0
3253,C2,240.25,0.25,95,75.0
3254,C2,240.25,0.25,95,75.0
3255,C2,240.25,0.25,95,75.0
3256,C2,240.25,0.25,95,75.0
3257,G4,240.25,0.25,95,75.0
3258,G3,240.25,0.25,95,75.0
3259,C2,240.5,0.25,95,75.0
3260,C2,240.5,0.25,95,75.0
3261,C2,240.5,0.25,95,75.0
3262,G4,240.5,0.25,95,75.0
3263,G3,240.5,0.25,95,75.0
3264,G3,240.5,0.375,95,75.0
3265,D2,240.5,0.375,95,75.0
3266,C2,240.75,0.25,95,75.0
3267,C2,240.75,0.25,95,75.0
3268,C2,240.75,0.25,95,75.0
3269,G4,240.75,0.25,95,75.0
3270,G3,240.75,0.25,95,75.0
3271,D2,240.875,0.125,95,75.0
3272,C2,241.0,0.25,95,75.0
3273,C2,241.0,0.25,95,75.0
3274,C2,241.0,0.25,95,75.0
3275,G4,241.0,0.25,95,75.0
3276,G3,241.0,0.25,95,75.0
3277,G3,241.0,0.25,95,75.0
3278,C2,241.0,0.25,95,75.0
3279,C2,241.25,0.25,95,75.0
3280,C2,241.25,0.25,95,75.0
3281,C2,241.25,0.25,95,75.0
3282,C2,241.25,0.25,95,75.0
3283,G4,241.25,0.25,95,75.0
3284,G3,241.25,0.25,95,75.0
3285,C2,241.5,0.25,95,75.0
3286,C2,241.5,0.25,95,75.0
3287,C2,241.5,0.25,95,75.0
3288,G4,241.5,0.25,95,75.0
3289,G3,241.5,0.25,95,75.0
3290,G3,241.5,0.25,95,75.0
3291,D2,241.5,0.25,95,75.0
3292,C2,241.75,0.25,95,75.0
3293,C2,241.75,0.25,95,75.0
3294,C2,241.75,0.25,95,75.0
3295,C2,241.75,0.25,95,75.0
3296,F#4,241.75,0.25,86,75.0
3297,F#3,241.75,0.25,86,75.0
3298,C2,242.0,0.25,95,75.0
3299,C2,242.0,0.25,95,75.0
3300,C#2,242.0,0.25,95,75.0
3301,F#4,242.0,0.25,95,75.0
3302,F#3,242.0,0.25,95,75.0
3303,G3,242.0,0.25,95,75.0
3304,C2,242.0,0.25,95,75.0
3305,F#4,242.0,2.0,95,75.0
3306,F#3,242.0,2.0,95,75.0
3307,C2,242.25,0.25,95,75.0
3308,C2,242.25,0.25,95,75.0
3309,C2,242.25,0.25,95,75.0
3310,C#2,242.25,0.25,95,75.0
3311,F#4,242.25,0.25,95,75.0
3312,F#3,242.25,0.25,95,75.0
3313,C2,242.5,0.25,95,75.0
3314,C2,242.5,0.25,95,75.0
3315,C#2,242.5,0.25,95,75.0
3316,F#4,242.5,0.25,95,75.0
3317,F#3,242.5,0.25,95,75.0
3318,G3,242.5,0.375,95,75.0
3319,D2,242.5,0.375,95,75.0
3320,C2,242.75,0.25,95,75.0
3321,C2,242.75,0.25,95,75.0
3322,C#2,242.75,0.25,95,75.0
3323,F#4,242.75,0.25,95,75.0
3324,F#3,242.75,0.25,95,75.0
3325,D2,242.875,0.125,95,75.0
3326,C2,243.0,0.25,95,75.0
3327,C2,243.0,0.25,95,75.0
3328,E-2,243.0,0.25,95,75.0
3329,F#4,243.0,0.25,95,75.0
3330,F#3,243.0,0.25,95,75.0
3331,G3,243.0,0.25,95,75.0
3332,C2,243.0,0.25,95,75.0
3333,C2,243.25,0.25,95,75.0
3334,C2,243.25,0.25,95,75.0
3335,C2,243.25,0.25,95,75.0
3336,E-2,243.25,0.25,95,75.0
3337,F#4,243.25,0.25,95,75.0
3338,F#3,243.25,0.25,95,75.0
3339,C2,243.5,0.25,95,75.0
3340,C2,243.5,0.25,95,75.0
3341,E-2,243.5,0.25,95,75.0
3342,F#4,243.5,0.25,95,75.0
3343,F#3,243.5,0.25,95,75.0
3344,A3,243.5,0.25,95,75.0
3345,D2,243.5,0.25,95,75.0
3346,C2,243.75,0.25,95,75.0
3347,C2,243.75,0.25,95,75.0
3348,C2,243.75,0.25,95,75.0
3349,E-2,243.75,0.25,95,75.0
3350,F#4,243.75,0.25,95,75.0
3351,F#3,243.75,0.25,95,75.0
3352,C2,244.0,0.25,95,75.0
3353,C2,244.0,0.25,95,75.0
3354,C2,244.0,0.25,95,75.0
3355,G4,244.0,0.25,95,75.0
3356,G3,244.0,0.25,95,75.0
3357,A3,244.0,0.25,95,75.0
3358,C2,244.0,0.25,95,75.0
3359,E-4,244.0,2.0,95,75.0
3360,E-3,244.0,2.0,95,75.0
3361,C2,244.25,0.25,95,75.0
3362,C2,244.25,0.25,95,75.0
3363,C2,244.25,0.25,95,75.0
3364,C2,244.25,0.25,95,75.0
3365,G4,244.25,0.25,95,75.0
3366,G3,244.25,0.25,95,75.0
3367,C2,244.5,0.25,95,75.0
3368,C2,244.5,0.25,95,75.0
3369,C2,244.5,0.25,95,75.0
3370,G4,244.5,0.25,95,75.0
3371,G3,244.5,0.25,95,75.0
3372,G3,244.5,0.375,95,75.0
3373,D2,244.5,0.375,95,75.0
3374,C2,244.75,0.25,95,75.0
3375,C2,244.75,0.25,95,75.0
3376,C2,244.75,0.25,95,75.0
3377,G4,244.75,0.25,95,75.0
3378,G3,244.75,0.25,95,75.0
3379,D2,244.875,0.125,95,75.0
3380,C2,245.0,0.25,95,75.0
3381,C2,245.0,0.25,95,75.0
3382,C2,245.0,0.25,95,75.0
3383,G4,245.0,0.25,95,75.0
3384,G3,245.0,0.25,95,75.0
3385,G3,245.0,0.25,95,75.0
3386,C2,245.0,0.25,95,75.0
3387,C2,245.25,0.25,95,75.0
3388,C2,245.25,0.25,95,75.0
3389,C2,245.25,0.25,95,75.0
3390,C2,245.25,0.25,95,75.0
3391,G4,245.25,0.25,95,75.0
3392,G3,245.25,0.25,95,75.0
3393,C2,245.5,0.25,95,75.0
3394,C2,245.5,0.25,95,75.0
3395,C2,245.5,0.25,95,75.0
3396,G4,245.5,0.25,95,75.0
3397,G3,245.5,0.25,95,75.0
3398,G3,245.5,0.25,95,75.0
3399,D2,245.5,0.25,95,75.0
3400,C2,245.75,0.25,95,75.0
3401,C2,245.75,0.25,95,75.0
3402,C2,245.75,0.25,95,75.0
3403,C2,245.75,0.25,95,75.0
3404,F#4,245.75,0.25,86,75.0
3405,F#3,245.75,0.25,86,75.0
3406,C2,246.0,0.25,95,75.0
3407,C2,246.0,0.25,95,75.0
3408,C#2,246.0,0.25,95,75.0
3409,F#4,246.0,0.25,95,75.0
3410,F#3,246.0,0.25,95,75.0
3411,G3,246.0,0.25,95,75.0
3412,C2,246.0,0.25,95,75.0
3413,C2,246.25,0.25,95,75.0
3414,C2,246.25,0.25,95,75.0
3415,C2,246.25,0.25,95,75.0
3416,C#2,246.25,0.25,95,75.0
3417,F#4,246.25,0.25,95,75.0
3418,F#3,246.25,0.25,95,75.0
3419,C2,246.5,0.25,95,75.0
3420,C2,246.5,0.25,95,75.0
3421,C#2,246.5,0.25,95,75.0
3422,F#4,246.5,0.25,95,75.0
3423,F#3,246.5,0.25,95,75.0
3424,G3,246.5,0.375,95,75.0
3425,D2,246.5,0.375,95,75.0
3426,C2,246.75,0.25,95,75.0
3427,C2,246.75,0.25,95,75.0
3428,C#2,246.75,0.25,95,75.0
3429,F#4,246.75,0.25,95,75.0
3430,F#3,246.75,0.25,95,75.0
3431,D2,246.875,0.125,95,75.0
3432,C2,247.0,0.25,95,75.0
3433,C2,247.0,0.25,95,75.0
3434,E-2,247.0,0.25,95,75.0
3435,F#4,247.0,0.25,95,75.0
3436,F#3,247.0,0.25,95,75.0
3437,G3,247.0,0.25,95,75.0
3438,C2,247.0,0.25,95,75.0
3439,C2,247.25,0.25,95,75.0
3440,C2,247.25,0.25,95,75.0
3441,C2,247.25,0.25,95,75.0
3442,E-2,247.25,0.25,95,75.0
3443,B-4,247.25,0.25,86,75.0
3444,B-3,247.25,0.25,86,75.0
3445,C2,247.5,0.25,95,75.0
3446,C2,247.5,0.25,95,75.0
3447,E-2,247.5,0.25,95,75.0
3448,B-4,247.5,0.25,95,75.0
3449,B-3,247.5,0.25,95,75.0
3450,A3,247.5,0.125,95,75.0
3451,D2,247.5,0.125,95,75.0
3452,D2,247.625,0.125,95,75.0
3453,D2,247.75,0.125,95,75.0
3454,C2,247.75,0.25,95,75.0
3455,C2,247.75,0.25,95,75.0
3456,E-2,247.75,0.25,95,75.0
3457,B-4,247.75,0.25,95,75.0
3458,B-3,247.75,0.25,95,75.0
3459,D2,247.875,0.125,95,75.0
3460,C1,248.0,2.0,95,75.0
3461,C2,248.0,0.25,95,75.0
3462,G4,248.0,0.25,95,75.0
3463,G3,248.0,0.25,95,75.0
3464,G3,248.0,0.25,95,75.0
3465,D2,248.0,0.25,95,75.0
3466,C2,248.25,0.125,95,75.0
3467,C2,248.25,0.25,95,75.0
3468,G4,248.25,0.25,95,75.0
3469,G3,248.25,0.25,95,75.0
3470,C2,248.375,0.125,95,75.0
3471,C2,248.5,0.25,95,75.0
3472,G4,248.5,0.25,95,75.0
3473,G3,248.5,0.25,95,75.0
3474,A3,248.5,0.25,95,75.0
3475,D2,248.5,0.25,95,75.0
3476,C2,248.75,0.25,95,75.0
3477,C2,248.75,0.25,95,75.0
3478,G4,248.75,0.25,95,75.0
3479,G3,248.75,0.25,95,75.0
3480,C2,249.0,0.25,95,75.0
3481,G4,249.0,0.25,95,75.0
3482,G3,249.0,0.25,95,75.0
3483,A3,249.0,0.25,95,75.0
3484,D2,249.0,0.25,95,75.0
3485,C5,249.0,1.0,95,75.0
3486,C4,249.0,1.0,95,75.0
3487,C2,249.25,0.25,95,75.0
3488,C2,249.25,0.25,95,75.0
3489,G4,249.25,0.25,95,75.0
3490,G3,249.25,0.25,95,75.0
3491,C2,249.5,0.25,95,75.0
3492,G4,249.5,0.25,95,75.0
3493,G3,249.5,0.25,95,75.0
3494,A3,249.5,0.25,95,75.0
3495,D2,249.5,0.25,95,75.0
3496,C2,249.75,0.25,95,75.0
3497,C2,249.75,0.25,95,75.0
3498,F#4,249.75,0.25,86,75.0
3499,F#3,249.75,0.25,86,75.0
3500,E-1,250.0,1.0,95,75.0
3501,E-2,250.0,0.25,95,75.0
3502,F#4,250.0,0.25,95,75.0
3503,F#3,250.0,0.25,95,75.0
3504,A3,250.0,0.25,95,75.0
3505,D2,250.0,0.25,95,75.0
3506,C2,250.25,0.25,95,75.0
3507,E-2,250.25,0.25,95,75.0
3508,F#4,250.25,0.25,95,75.0
3509,F#3,250.25,0.25,95,75.0
3510,E-2,250.5,0.25,95,75.0
3511,F#4,250.5,0.25,95,75.0
3512,F#3,250.5,0.25,95,75.0
3513,A3,250.5,0.25,95,75.0
3514,D2,250.5,0.25,95,75.0
3515,C2,250.75,0.25,95,75.0
3516,E-2,250.75,0.25,95,75.0
3517,F#4,250.75,0.25,95,75.0
3518,F#3,250.75,0.25,95,75.0
3519,G#1,251.0,1.0,95,75.0
3520,G#2,251.0,0.25,95,75.0
3521,F#4,251.0,0.25,95,75.0
3522,F#3,251.0,0.25,95,75.0
3523,A3,251.0,0.25,95,75.0
3524,D2,251.0,0.25,95,75.0
3525,C5,251.0,1.0,95,75.0
3526,C4,251.0,1.0,95,75.0
3527,C2,251.25,0.25,95,75.0
3528,G#2,251.25,0.25,95,75.0
3529,F#4,251.25,0.25,95,75.0
3530,F#3,251.25,0.25,95,75.0
3531,G#2,251.5,0.25,95,75.0
3532,F#4,251.5,0.25,95,75.0
3533,F#3,251.5,0.25,95,75.0
3534,A3,251.5,0.25,95,75.0
3535,D2,251.5,0.25,95,75.0
3536,C2,251.75,0.25,95,75.0
3537,G#2,251.75,0.25,95,75.0
3538,F#4,251.75,0.25,95,75.0
3539,F#3,251.75,0.25,95,75.0
3540,C1,252.0,2.0,95,75.0
3541,C2,252.0,0.25,95,75.0
3542,G4,252.0,0.25,95,75.0
3543,G3,252.0,0.25,95,75.0
3544,G3,252.0,0.25,95,75.0
3545,D2,252.0,0.25,95,75.0
3546,C2,252.25,0.125,95,75.0
3547,C2,252.25,0.25,95,75.0
3548,G4,252.25,0.25,95,75.0
3549,G3,252.25,0.25,95,75.0
3550,C2,252.375,0.125,95,75.0
3551,C2,252.5,0.25,95,75.0
3552,G4,252.5,0.25,95,75.0
3553,G3,252.5,0.25,95,75.0
3554,A3,252.5,0.25,95,75.0
3555,D2,252.5,0.25,95,75.0
3556,C2,252.75,0.25,95,75.0
3557,C2,252.75,0.25,95,75.0
3558,G4,252.75,0.25,95,75.0
3559,G3,252.75,0.25,95,75.0
3560,C2,253.0,0.25,95,75.0
3561,G4,253.0,0.25,95,75.0
3562,G3,253.0,0.25,95,75.0
3563,A3,253.0,0.25,95,75.0
3564,D2,253.0,0.25,95,75.0
3565,C5,253.0,1.0,95,75.0
3566,C4,253.0,1.0,95,75.0
3567,C2,253.25,0.25,95,75.0
3568,C2,253.25,0.25,95,75.0
3569,G4,253.25,0.25,95,75.0
3570,G3,253.25,0.25,95,75.0
3571,C2,253.5,0.25,95,75.0
3572,G4,253.5,0.25,95,75.0
3573,G3,253.5,0.25,95,75.0
3574,A3,253.5,0.25,95,75.0
3575,D2,253.5,0.25,95,75.0
3576,C2,253.75,0.25,95,75.0
3577,C2,253.75,0.25,95,75.0
3578,F#4,253.75,0.25,86,75.0
3579,F#3,253.75,0.25,86,75.0
3580,G#1,254.0,1.0,95,75.0
3581,G#2,254.0,0.25,95,75.0
3582,F#4,254.0,0.25,95,75.0
3583,F#3,254.0,0.25,95,75.0
3584,A3,254.0,0.25,95,75.0
3585,D2,254.0,0.25,95,75.0
3586,C2,254.25,0.25,95,75.0
3587,G#2,254.25,0.25,95,75.0
3588,F#4,254.25,0.25,95,75.0
3589,F#3,254.25,0.25,95,75.0
3590,G#2,254.5,0.25,95,75.0
3591,F#4,254.5,0.25,95,75.0
3592,F#3,254.5,0.25,95,75.0
3593,A3,254.5,0.25,95,75.0
3594,D2,254.5,0.25,95,75.0
3595,C2,254.75,0.25,95,75.0
3596,G#2,254.75,0.25,95,75.0
3597,F#4,254.75,0.25,95,75.0
3598,F#3,254.75,0.25,95,75.0
3599,E-1,255.0,1.0,95,75.0
3600,E-2,255.0,0.25,95,75.0
3601,F#4,255.0,0.25,95,75.0
3602,F#3,255.0,0.25,95,75.0
3603,A3,255.0,0.25,95,75.0
3604,D2,255.0,0.25,95,75.0
3605,E-5,255.0,1.0,95,75.0
3606,E-4,255.0,1.0,95,75.0
3607,C2,255.25,0.25,95,75.0
3608,E-2,255.25,0.25,95,75.0
3609,B-4,255.25,0.25,86,75.0
3610,B-3,255.25,0.25,86,75.0
3611,E-2,255.5,0.25,95,75.0
3612,B-4,255.5,0.25,95,75.0
3613,B-3,255.5,0.25,95,75.0
3614,A3,255.5,0.25,95,75.0
3615,D2,255.5,0.25,95,75.0
3616,C2,255.75,0.25,95,75.0
3617,E-2,255.75,0.25,95,75.0
3618,B-4,255.75,0.25,95,75.0
3619,B-3,255.75,0.25,95,75.0
3620,C1,256.0,2.0,95,75.0
3621,C2,256.0,0.25,95,75.0
3622,G4,256.0,0.25,95,75.0
3623,G3,256.0,0.25,95,75.0
3624,A3,256.0,0.125,95,75.0
3625,D2,256.0,0.125,95,75.0
3626,C2,256.0,0.125,95,75.0
3627,C2,256.125,0.125,95,75.0
3628,C2,256.25,0.125,95,75.0
3629,C2,256.25,0.25,95,75.0
3630,G4,256.25,0.25,95,75.0
3631,G3,256.25,0.25,95,75.0
3632,C2,256.375,0.125,95,75.0
3633,C2,256.5,0.25,95,75.0
3634,G4,256.5,0.25,95,75.0
3635,G3,256.5,0.25,95,75.0
3636,A3,256.5,0.125,95,75.0
3637,D2,256.5,0.125,95,75.0
3638,C2,256.5,0.125,95,75.0
3639,C2,256.625,0.125,95,75.0
3640,C2,256.75,0.125,95,75.0
3641,C2,256.75,0.25,95,75.0
3642,G4,256.75,0.25,95,75.0
3643,G3,256.75,0.25,95,75.0
3644,C2,256.875,0.125,95,75.0
3645,C2,257.0,0.25,95,75.0
3646,G4,257.0,0.25,95,75.0
3647,G3,257.0,0.25,95,75.0
3648,A3,257.0,0.125,95,75.0
3649,D2,257.0,0.125,95,75.0
3650,C2,257.0,0.125,95,75.0
3651,C5,257.0,1.0,95,75.0
3652,C4,257.0,1.0,95,75.0
3653,C2,257.25,0.125,95,75.0
3654,C2,257.25,0.25,95,75.0
3655,G4,257.25,0.25,95,75.0
3656,G3,257.25,0.25,95,75.0
3657,C2,257.5,0.25,95,75.0
3658,G4,257.5,0.25,95,75.0
3659,G3,257.5,0.25,95,75.0
3660,A3,257.5,0.125,95,75.0
3661,D2,257.5,0.125,95,75.0
3662,C2,257.5,0.125,95,75.0
3663,C2,257.75,0.125,95,75.0
3664,C2,257.75,0.25,95,75.0
3665,F#4,257.75,0.25,86,75.0
3666,F#3,257.75,0.25,86,75.0
3667,E-1,258.0,1.0,95,75.0
3668,E-2,258.0,0.25,95,75.0
3669,F#4,258.0,0.25,95,75.0
3670,F#3,258.0,0.25,95,75.0
3671,A3,258.0,0.125,95,75.0
3672,D2,258.0,0.125,95,75.0
3673,C2,258.0,0.125,95,75.0
3674,C2,258.125,0.125,95,75.0
3675,C2,258.25,0.125,95,75.0
3676,E-2,258.25,0.25,95,75.0
3677,F#4,258.25,0.25,95,75.0
3678,F#3,258.25,0.25,95,75.0
3679,C2,258.375,0.125,95,75.0
3680,E-2,258.5,0.25,95,75.0
3681,F#4,258.5,0.25,95,75.0
3682,F#3,258.5,0.25,95,75.0
3683,A3,258.5,0.125,95,75.0
3684,D2,258.5,0.125,95,75.0
3685,C2,258.5,0.125,95,75.0
3686,C2,258.625,0.125,95,75.0
3687,C2,258.75,0.125,95,75.0
3688,E-2,258.75,0.25,95,75.0
3689,F#4,258.75,0.25,95,75.0
3690,F#3,258.75,0.25,95,75.0
3691,C2,258.875,0.125,95,75.0
3692,G#1,259.0,1.0,95,75.0
3693,G#2,259.0,0.25,95,75.0
3694,F#4,259.0,0.25,95,75.0
3695,F#3,259.0,0.25,95,75.0
3696,A3,259.0,0.125,95,75.0
3697,D2,259.0,0.125,95,75.0
3698,C2,259.0,0.125,95,75.0
3699,C5,259.0,1.0,95,75.0
3700,C4,259.0,1.0,95,75.0
3701,C2,259.25,0.125,95,75.0
3702,G#2,259.25,0.25,95,75.0
3703,F#4,259.25,0.25,95,75.0
3704,F#3,259.25,0.25,95,75.0
3705,G#2,259.5,0.25,95,75.0
3706,F#4,259.5,0.25,95,75.0
3707,F#3,259.5,0.25,95,75.0
3708,A3,259.5,0.125,95,75.0
3709,D2,259.5,0.125,95,75.0
3710,C2,259.5,0.125,95,75.0
3711,C2,259.75,0.125,95,75.0
3712,G#2,259.75,0.25,95,75.0
3713,F#4,259.75,0.25,95,75.0
3714,F#3,259.75,0.25,95,75.0
3715,C1,260.0,2.0,95,75.0
3716,C2,260.0,0.25,95,75.0
3717,G4,260.0,0.25,95,75.0
3718,G3,260.0,0.25,95,75.0
3719,A3,260.0,0.125,95,75.0
3720,D2,260.0,0.125,95,75.0
3721,C2,260.0,0.125,95,75.0
3722,C2,260.125,0.125,95,75.0
3723,C2,260.25,0.125,95,75.0
3724,C2,260.25,0.25,95,75.0
3725,G4,260.25,0.25,95,75.0
3726,G3,260.25,0.25,95,75.0
3727,C2,260.375,0.125,95,75.0
3728,C2,260.5,0.25,95,75.0
3729,G4,260.5,0.25,95,75.0
3730,G3,260.5,0.25,95,75.0
3731,A3,260.5,0.125,95,75.0
3732,D2,260.5,0.125,95,75.0
3733,C2,260.5,0.125,95,75.0
3734,C2,260.625,0.125,95,75.0
3735,C2,260.75,0.125,95,75.0
3736,C2,260.75,0.25,95,75.0
3737,G4,260.75,0.25,95,75.0
3738,G3,260.75,0.25,95,75.0
3739,C2,260.875,0.125,95,75.0
3740,C2,261.0,0.25,95,75.0
3741,G4,261.0,0.25,95,75.0
3742,G3,261.0,0.25,95,75.0
3743,A3,261.0,0.125,95,75.0
3744,D2,261.0,0.125,95,75.0
3745,C2,261.0,0.125,95,75.0
3746,C5,261.0,1.0,95,75.0
3747,C4,261.0,1.0,95,75.0
3748,C2,261.25,0.125,95,75.0
3749,C2,261.25,0.25,95,75.0
3750,G4,261.25,0.25,95,75.0
3751,G3,261.25,0.25,95,75.0
3752,C2,261.5,0.25,95,75.0
3753,G4,261.5,0.25,95,75.0
3754,G3,261.5,0.25,95,75.0
3755,A3,261.5,0.125,95,75.0
3756,D2,261.5,0.125,95,75.0
3757,C2,261.5,0.125,95,75.0
3758,C2,261.75,0.125,95,75.0
3759,C2,261.75,0.25,95,75.0
3760,F#4,261.75,0.25,86,75.0
3761,F#3,261.75,0.25,86,75.0
3762,G#1,262.0,1.0,95,75.0
3763,G#2,262.0,0.25,95,75.0
3764,F#4,262.0,0.25,95,75.0
3765,F#3,262.0,0.25,95,75.0
3766,A3,262.0,0.125,95,75.0
3767,D2,262.0,0.125,95,75.0
3768,C2,262.0,0.125,95,75.0
3769,C2,262.125,0.125,95,75.0
3770,C2,262.25,0.125,95,75.0
3771,G#2,262.25,0.25,95,75.0
3772,F#4,262.25,0.25,95,75.0
3773,F#3,262.25,0.25,95,75.0
3774,C2,262.375,0.125,95,75.0
3775,G#2,262.5,0.25,95,75.0
3776,F#4,262.5,0.25,95,75.0
3777,F#3,262.5,0.25,95,75.0
3778,A3,262.5,0.125,95,75.0
3779,D2,262.5,0.125,95,75.0
3780,C2,262.5,0.125,95,75.0
3781,C2,262.625,0.125,95,75.0
3782,C2,262.75,0.125,95,75.0
3783,G#2,262.75,0.25,95,75.0
3784,F#4,262.75,0.25,95,75.0
3785,F#3,262.75,0.25,95,75.0
3786,C2,262.875,0.125,95,75.0
3787,E-1,263.0,1.0,95,75.0
3788,E-2,263.0,0.25,95,75.0
3789,F#4,263.0,0.25,95,75.0
3790,F#3,263.0,0.25,95,75.0
3791,A3,263.0,0.125,95,75.0
3792,B2,263.0,0.125,95,75.0
3793,E-5,263.0,1.0,95,75.0
3794,E-4,263.0,1.0,95,75.0
3795,B2,263.125,0.125,95,75.0
3796,A2,263.25,0.125,95,75.0
3797,E-2,263.25,0.25,95,75.0
3798,B-4,263.25,0.25,86,75.0
3799,B-3,263.25,0.25,86,75.0
3800,A2,263.375,0.125,95,75.0
3801,E-2,263.5,0.25,95,75.0
3802,B-4,263.5,0.25,95,75.0
3803,B-3,263.5,0.25,95,75.0
3804,A3,263.5,0.125,95,75.0
3805,G2,263.5,0.125,95,75.0
3806,G2,263.625,0.125,95,75.0
3807,F2,263.75,0.125,95,75.0
3808,E-2,263.75,0.25,95,75.0
3809,B-4,263.75,0.25,95,75.0
3810,B-3,263.75,0.25,95,75.0
3811,F2,263.875,0.125,95,75.0
3812,C1,264.0,0.5,95,75.0
3813,G4,264.0,0.5,95,75.0
3814,G3,264.0,0.5,95,75.0
3815,A3,264.0,4.0,95,75.0
3816,D2,264.0,4.0,95,75.0
3817,C2,264.0,4.0,95,75.0
3818,G4,264.0,0.5,95,75.0
3819,G3,264.0,0.5,95,75.0
3820,C3,264.0,0.5,95,75.0
3821,C2,264.0,0.5,95,75.0
3822,C3,264.0,0.5,95,75.0
3823,G2,264.0,0.5,95,75.0
3824,C2,264.0,0.5,95,75.0
