,note_name,start_time,duration,velocity,tempo
0,D3,4.0,4.0,100,83.0
1,D4,6.925,1.0,100,83.0
2,D2,8.0,0.25,100,83.0
3,D2,8.25,0.25,100,83.0
4,G#2,8.5,0.25,100,83.0
5,D2,8.75,0.25,100,83.0
6,D2,9.0,0.25,100,83.0
7,D2,9.25,0.25,100,83.0
8,G2,9.5,0.25,100,83.0
9,D2,9.75,0.25,100,83.0
10,D2,10.0,0.25,100,83.0
11,D2,10.25,0.25,100,83.0
12,G#2,10.5,0.25,100,83.0
13,D2,10.75,0.25,100,83.0
14,D2,11.0,0.25,100,83.0
15,D2,11.25,0.25,100,83.0
16,G2,11.5,0.25,100,83.0
17,D2,11.75,0.25,100,83.0
18,D2,12.0,0.25,100,83.0
19,D2,12.25,0.25,100,83.0
20,G#2,12.5,0.25,100,83.0
21,D2,12.75,0.25,100,83.0
22,D2,13.0,0.25,100,83.0
23,D2,13.25,0.25,100,83.0
24,G2,13.5,0.25,100,83.0
25,D2,13.75,0.25,100,83.0
26,D2,14.0,0.25,100,83.0
27,D2,14.25,0.25,100,83.0
28,G#2,14.5,0.25,100,83.0
29,D2,14.75,0.25,100,83.0
30,D2,15.0,0.25,100,83.0
31,D2,15.25,0.25,100,83.0
32,G2,15.5,0.25,100,83.0
33,D2,15.75,0.25,100,83.0
34,D2,16.0,0.25,100,83.0
35,D3,16.0,2.0,100,83.0
36,D3,16.0,2.0,100,83.0
37,D2,16.25,0.25,100,83.0
38,G#2,16.5,0.25,100,83.0
39,D2,16.75,0.25,100,83.0
40,D2,17.0,0.25,100,83.0
41,D2,17.25,0.25,100,83.0
42,G2,17.5,0.25,100,83.0
43,D2,17.75,0.25,100,83.0
44,D2,18.0,0.25,100,83.0
45,D2,18.25,0.25,100,83.0
46,G#2,18.5,0.25,100,83.0
47,D2,18.75,0.25,100,83.0
48,D2,19.0,0.25,100,83.0
49,D2,19.25,0.25,100,83.0
50,G2,19.5,0.25,100,83.0
51,D2,19.75,0.25,100,83.0
52,D2,20.0,0.25,100,83.0
53,D2,20.25,0.25,100,83.0
54,G#2,20.5,0.25,100,83.0
55,D2,20.75,0.25,100,83.0
56,D2,21.0,0.25,100,83.0
57,D2,21.25,0.25,100,83.0
58,G2,21.5,0.25,100,83.0
59,D2,21.75,0.25,100,83.0
60,D2,22.0,0.25,100,83.0
61,D2,22.25,0.25,100,83.0
62,G#2,22.5,0.25,100,83.0
63,D2,22.75,0.25,100,83.0
64,D2,23.0,0.25,100,83.0
65,D2,23.25,0.25,100,83.0
66,G2,23.5,0.25,100,83.0
67,D2,23.75,0.25,100,83.0
68,D2,24.0,0.25,100,83.0
69,D3,24.0,2.0,100,83.0
70,D3,24.0,2.0,100,83.0
71,D2,24.25,0.25,100,83.0
72,G#2,24.5,0.25,100,83.0
73,D2,24.75,0.25,100,83.0
74,D2,25.0,0.25,100,83.0
75,D2,25.25,0.25,100,83.0
76,G2,25.5,0.25,100,83.0
77,D2,25.75,0.25,100,83.0
78,D2,26.0,0.25,100,83.0
79,D2,26.25,0.25,100,83.0
80,G#2,26.5,0.25,100,83.0
81,D2,26.75,0.25,100,83.0
82,E-5,26.85,23/20,100,83.0
83,E-4,26.925,43/40,100,83.0
84,D2,27.0,0.25,100,83.0
85,D2,27.25,0.25,100,83.0
86,G2,27.5,0.25,100,83.0
87,D2,27.75,0.25,100,83.0
88,E-5,28.0,7/20,100,83.0
89,E-4,28.0,17/40,100,83.0
90,D2,28.0,0.25,100,83.0
91,A2,28.0,0.25,100,83.0
92,D2,28.0,0.25,100,83.0
93,A2,28.0,0.25,100,83.0
94,D2,28.0,0.25,100,83.0
95,A2,28.0,0.25,100,83.0
96,D2,28.0,0.25,100,83.0
97,C#3,28.0,0.5,100,83.0
98,D2,28.0,0.5,100,83.0
99,B-2,28.0,0.5,100,83.0
100,C2,28.0,0.5,100,83.0
101,D2,28.25,0.25,100,83.0
102,A2,28.25,0.25,100,83.0
103,D2,28.25,0.25,100,83.0
104,A2,28.25,0.25,100,83.0
105,D2,28.25,0.25,100,83.0
106,A2,28.25,0.25,100,83.0
107,D2,28.25,0.25,100,83.0
108,B-2,28.5,0.5,100,83.0
109,G#2,28.5,0.25,100,83.0
110,E-3,28.5,0.25,100,83.0
111,G#2,28.5,0.25,100,83.0
112,E-3,28.5,0.25,100,83.0
113,G#2,28.5,0.25,100,83.0
114,E-3,28.5,0.25,100,83.0
115,G#2,28.5,0.25,100,83.0
116,C2,28.75,0.25,100,83.0
117,D2,28.75,0.25,100,83.0
118,A2,28.75,0.25,100,83.0
119,D2,28.75,0.25,100,83.0
120,A2,28.75,0.25,100,83.0
121,D2,28.75,0.25,100,83.0
122,A2,28.75,0.25,100,83.0
123,D2,28.75,0.25,100,83.0
124,E2,29.0,0.5,100,83.0
125,B-2,29.0,0.375,100,83.0
126,D2,29.0,0.25,100,83.0
127,D2,29.0,0.25,100,83.0
128,E-3,29.0,0.25,100,83.0
129,G#2,29.0,0.25,100,83.0
130,E-3,29.0,0.25,100,83.0
131,G#2,29.0,0.25,100,83.0
132,E-3,29.0,0.25,100,83.0
133,G#2,29.0,0.25,100,83.0
134,C2,29.25,0.25,100,83.0
135,D2,29.25,0.25,100,83.0
136,D3,29.25,0.25,100,83.0
137,G2,29.25,0.25,100,83.0
138,D3,29.25,0.25,100,83.0
139,G2,29.25,0.25,100,83.0
140,D3,29.25,0.25,100,83.0
141,G2,29.25,0.25,100,83.0
142,B-2,29.5,0.5,100,83.0
143,G2,29.5,0.25,100,83.0
144,A2,29.5,0.5,100,83.0
145,D2,29.5,0.5,100,83.0
146,A2,29.5,0.5,100,83.0
147,D2,29.5,0.5,100,83.0
148,A2,29.5,0.5,100,83.0
149,D2,29.5,0.5,100,83.0
150,D2,29.75,0.25,100,83.0
151,D2,30.0,0.25,100,83.0
152,A2,30.0,0.25,100,83.0
153,D2,30.0,0.25,100,83.0
154,A2,30.0,0.25,100,83.0
155,D2,30.0,0.25,100,83.0
156,A2,30.0,0.25,100,83.0
157,D2,30.0,0.25,100,83.0
158,D2,30.0,0.5,100,83.0
159,B-2,30.0,0.5,100,83.0
160,C2,30.0,0.5,100,83.0
161,D2,30.25,0.25,100,83.0
162,A2,30.25,0.25,100,83.0
163,D2,30.25,0.25,100,83.0
164,A2,30.25,0.25,100,83.0
165,D2,30.25,0.25,100,83.0
166,A2,30.25,0.25,100,83.0
167,D2,30.25,0.25,100,83.0
168,B-2,30.5,0.5,100,83.0
169,G#2,30.5,0.25,100,83.0
170,E-3,30.5,0.25,100,83.0
171,G#2,30.5,0.25,100,83.0
172,E-3,30.5,0.25,100,83.0
173,G#2,30.5,0.25,100,83.0
174,E-3,30.5,0.25,100,83.0
175,G#2,30.5,0.25,100,83.0
176,C2,30.75,0.25,100,83.0
177,D2,30.75,0.25,100,83.0
178,A2,30.75,0.25,100,83.0
179,D2,30.75,0.25,100,83.0
180,A2,30.75,0.25,100,83.0
181,D2,30.75,0.25,100,83.0
182,A2,30.75,0.25,100,83.0
183,D2,30.75,0.25,100,83.0
184,E2,31.0,0.5,100,83.0
185,B-2,31.0,0.375,100,83.0
186,D2,31.0,0.25,100,83.0
187,D2,31.0,0.25,100,83.0
188,E-3,31.0,0.25,100,83.0
189,G#2,31.0,0.25,100,83.0
190,E-3,31.0,0.25,100,83.0
191,G#2,31.0,0.25,100,83.0
192,E-3,31.0,0.25,100,83.0
193,G#2,31.0,0.25,100,83.0
194,C2,31.25,0.25,100,83.0
195,D2,31.25,0.25,100,83.0
196,A2,31.25,0.75,100,83.0
197,D2,31.25,0.75,100,83.0
198,A2,31.25,0.75,100,83.0
199,D2,31.25,0.75,100,83.0
200,A2,31.25,0.75,100,83.0
201,D2,31.25,0.75,100,83.0
202,B-2,31.5,0.5,100,83.0
203,G2,31.5,0.25,100,83.0
204,D2,31.75,0.25,100,83.0
205,D2,32.0,0.25,100,83.0
206,A2,32.0,0.25,100,83.0
207,D2,32.0,0.25,100,83.0
208,A2,32.0,0.25,100,83.0
209,D2,32.0,0.25,100,83.0
210,A2,32.0,0.25,100,83.0
211,D2,32.0,0.25,100,83.0
212,D2,32.0,0.5,100,83.0
213,B-2,32.0,0.5,100,83.0
214,C2,32.0,0.5,100,83.0
215,D2,32.25,0.25,100,83.0
216,A2,32.25,0.25,100,83.0
217,D2,32.25,0.25,100,83.0
218,A2,32.25,0.25,100,83.0
219,D2,32.25,0.25,100,83.0
220,A2,32.25,0.25,100,83.0
221,D2,32.25,0.25,100,83.0
222,B-2,32.5,0.5,100,83.0
223,G#2,32.5,0.25,100,83.0
224,E-3,32.5,0.25,100,83.0
225,G#2,32.5,0.25,100,83.0
226,E-3,32.5,0.25,100,83.0
227,G#2,32.5,0.25,100,83.0
228,E-3,32.5,0.25,100,83.0
229,G#2,32.5,0.25,100,83.0
230,C2,32.75,0.25,100,83.0
231,D2,32.75,0.25,100,83.0
232,A2,32.75,0.25,100,83.0
233,D2,32.75,0.25,100,83.0
234,A2,32.75,0.25,100,83.0
235,D2,32.75,0.25,100,83.0
236,A2,32.75,0.25,100,83.0
237,D2,32.75,0.25,100,83.0
238,E2,33.0,0.5,100,83.0
239,B-2,33.0,0.375,100,83.0
240,D2,33.0,0.25,100,83.0
241,D2,33.0,0.25,100,83.0
242,E-3,33.0,0.25,100,83.0
243,G#2,33.0,0.25,100,83.0
244,E-3,33.0,0.25,100,83.0
245,G#2,33.0,0.25,100,83.0
246,E-3,33.0,0.25,100,83.0
247,G#2,33.0,0.25,100,83.0
248,C2,33.25,0.25,100,83.0
249,D2,33.25,0.25,100,83.0
250,D3,33.25,0.25,100,83.0
251,G2,33.25,0.25,100,83.0
252,D3,33.25,0.25,100,83.0
253,G2,33.25,0.25,100,83.0
254,D3,33.25,0.25,100,83.0
255,G2,33.25,0.25,100,83.0
256,B-2,33.5,0.5,100,83.0
257,G2,33.5,0.25,100,83.0
258,A2,33.5,0.5,100,83.0
259,D2,33.5,0.5,100,83.0
260,A2,33.5,0.5,100,83.0
261,D2,33.5,0.5,100,83.0
262,A2,33.5,0.5,100,83.0
263,D2,33.5,0.5,100,83.0
264,D2,33.75,0.25,100,83.0
265,D2,34.0,0.25,100,83.0
266,A2,34.0,0.25,100,83.0
267,D2,34.0,0.25,100,83.0
268,A2,34.0,0.25,100,83.0
269,D2,34.0,0.25,100,83.0
270,A2,34.0,0.25,100,83.0
271,D2,34.0,0.25,100,83.0
272,D2,34.0,0.5,100,83.0
273,B-2,34.0,0.5,100,83.0
274,C2,34.0,0.5,100,83.0
275,D2,34.25,0.25,100,83.0
276,A2,34.25,0.25,100,83.0
277,D2,34.25,0.25,100,83.0
278,A2,34.25,0.25,100,83.0
279,D2,34.25,0.25,100,83.0
280,A2,34.25,0.25,100,83.0
281,D2,34.25,0.25,100,83.0
282,B-2,34.5,0.5,100,83.0
283,G#2,34.5,0.25,100,83.0
284,E-3,34.5,0.25,100,83.0
285,G#2,34.5,0.25,100,83.0
286,E-3,34.5,0.25,100,83.0
287,G#2,34.5,0.25,100,83.0
288,E-3,34.5,0.25,100,83.0
289,G#2,34.5,0.25,100,83.0
290,C2,34.75,0.25,100,83.0
291,D2,34.75,0.25,100,83.0
292,A2,34.75,0.25,100,83.0
293,D2,34.75,0.25,100,83.0
294,A2,34.75,0.25,100,83.0
295,D2,34.75,0.25,100,83.0
296,A2,34.75,0.25,100,83.0
297,D2,34.75,0.25,100,83.0
298,E2,35.0,0.5,100,83.0
299,B-2,35.0,0.375,100,83.0
300,D2,35.0,0.25,100,83.0
301,D2,35.0,0.25,100,83.0
302,E-3,35.0,0.25,100,83.0
303,G#2,35.0,0.25,100,83.0
304,E-3,35.0,0.25,100,83.0
305,G#2,35.0,0.25,100,83.0
306,E-3,35.0,0.25,100,83.0
307,G#2,35.0,0.25,100,83.0
308,C2,35.25,0.25,100,83.0
309,D2,35.25,0.25,100,83.0
310,D3,35.25,0.5,100,83.0
311,G2,35.25,0.5,100,83.0
312,D3,35.25,0.5,100,83.0
313,G2,35.25,0.5,100,83.0
314,D3,35.25,0.5,100,83.0
315,G2,35.25,0.5,100,83.0
316,B-2,35.5,0.5,100,83.0
317,G2,35.5,0.25,100,83.0
318,D2,35.75,0.25,100,83.0
319,D3,35.75,0.25,100,83.0
320,G2,35.75,0.25,100,83.0
321,D3,35.75,0.25,100,83.0
322,G2,35.75,0.25,100,83.0
323,D3,35.75,0.25,100,83.0
324,G2,35.75,0.25,100,83.0
325,D2,36.0,0.25,100,83.0
326,A2,36.0,0.25,100,83.0
327,D2,36.0,0.25,100,83.0
328,A2,36.0,0.25,100,83.0
329,D2,36.0,0.25,100,83.0
330,A2,36.0,0.25,100,83.0
331,D2,36.0,0.25,100,83.0
332,D2,36.0,0.5,100,83.0
333,B-2,36.0,0.5,100,83.0
334,C2,36.0,0.5,100,83.0
335,D2,36.25,0.25,100,83.0
336,A2,36.25,0.25,100,83.0
337,D2,36.25,0.25,100,83.0
338,A2,36.25,0.25,100,83.0
339,D2,36.25,0.25,100,83.0
340,A2,36.25,0.25,100,83.0
341,D2,36.25,0.25,100,83.0
342,B-2,36.5,0.5,100,83.0
343,G#2,36.5,0.25,100,83.0
344,E-3,36.5,0.25,100,83.0
345,G#2,36.5,0.25,100,83.0
346,E-3,36.5,0.25,100,83.0
347,G#2,36.5,0.25,100,83.0
348,E-3,36.5,0.25,100,83.0
349,G#2,36.5,0.25,100,83.0
350,C2,36.75,0.25,100,83.0
351,D2,36.75,0.25,100,83.0
352,A2,36.75,0.25,100,83.0
353,D2,36.75,0.25,100,83.0
354,A2,36.75,0.25,100,83.0
355,D2,36.75,0.25,100,83.0
356,A2,36.75,0.25,100,83.0
357,D2,36.75,0.25,100,83.0
358,E2,37.0,0.5,100,83.0
359,B-2,37.0,0.375,100,83.0
360,D2,37.0,0.25,100,83.0
361,D2,37.0,0.25,100,83.0
362,E-3,37.0,0.25,100,83.0
363,G#2,37.0,0.25,100,83.0
364,E-3,37.0,0.25,100,83.0
365,G#2,37.0,0.25,100,83.0
366,E-3,37.0,0.25,100,83.0
367,G#2,37.0,0.25,100,83.0
368,C2,37.25,0.25,100,83.0
369,D2,37.25,0.25,100,83.0
370,D3,37.25,0.25,100,83.0
371,G2,37.25,0.25,100,83.0
372,D3,37.25,0.25,100,83.0
373,G2,37.25,0.25,100,83.0
374,D3,37.25,0.25,100,83.0
375,G2,37.25,0.25,100,83.0
376,B-2,37.5,0.5,100,83.0
377,G2,37.5,0.25,100,83.0
378,A2,37.5,0.5,100,83.0
379,D2,37.5,0.5,100,83.0
380,A2,37.5,0.5,100,83.0
381,D2,37.5,0.5,100,83.0
382,A2,37.5,0.5,100,83.0
383,D2,37.5,0.5,100,83.0
384,D2,37.75,0.25,100,83.0
385,D5,38.0,2.0,100,83.0
386,D2,38.0,0.25,100,83.0
387,A2,38.0,0.25,100,83.0
388,D2,38.0,0.25,100,83.0
389,A2,38.0,0.25,100,83.0
390,D2,38.0,0.25,100,83.0
391,A2,38.0,0.25,100,83.0
392,D2,38.0,0.25,100,83.0
393,D2,38.0,0.5,100,83.0
394,B-2,38.0,0.5,100,83.0
395,C2,38.0,0.5,100,83.0
396,D4,38.0,2.0,100,83.0
397,D4,38.0,2.0,100,83.0
398,D4,38.0,2.0,100,83.0
399,D2,38.25,0.25,100,83.0
400,A2,38.25,0.25,100,83.0
401,D2,38.25,0.25,100,83.0
402,A2,38.25,0.25,100,83.0
403,D2,38.25,0.25,100,83.0
404,A2,38.25,0.25,100,83.0
405,D2,38.25,0.25,100,83.0
406,B-2,38.5,0.5,100,83.0
407,G#2,38.5,0.25,100,83.0
408,E-3,38.5,0.25,100,83.0
409,G#2,38.5,0.25,100,83.0
410,E-3,38.5,0.25,100,83.0
411,G#2,38.5,0.25,100,83.0
412,E-3,38.5,0.25,100,83.0
413,G#2,38.5,0.25,100,83.0
414,C2,38.75,0.25,100,83.0
415,D2,38.75,0.25,100,83.0
416,A2,38.75,0.25,100,83.0
417,D2,38.75,0.25,100,83.0
418,A2,38.75,0.25,100,83.0
419,D2,38.75,0.25,100,83.0
420,A2,38.75,0.25,100,83.0
421,D2,38.75,0.25,100,83.0
422,E2,39.0,0.5,100,83.0
423,B-2,39.0,0.375,100,83.0
424,D2,39.0,0.25,100,83.0
425,D2,39.0,0.25,100,83.0
426,E-3,39.0,0.25,100,83.0
427,G#2,39.0,0.25,100,83.0
428,E-3,39.0,0.25,100,83.0
429,G#2,39.0,0.25,100,83.0
430,E-3,39.0,0.25,100,83.0
431,G#2,39.0,0.25,100,83.0
432,C2,39.25,0.25,100,83.0
433,D2,39.25,0.25,100,83.0
434,A2,39.25,0.75,100,83.0
435,D2,39.25,0.75,100,83.0
436,A2,39.25,0.75,100,83.0
437,D2,39.25,0.75,100,83.0
438,A2,39.25,0.75,100,83.0
439,D2,39.25,0.75,100,83.0
440,B-2,39.5,0.5,100,83.0
441,G2,39.5,0.25,100,83.0
442,D2,39.75,0.25,100,83.0
443,E-5,40.0,2.0,100,83.0
444,D2,40.0,0.25,100,83.0
445,A2,40.0,0.25,100,83.0
446,D2,40.0,0.25,100,83.0
447,A2,40.0,0.25,100,83.0
448,D2,40.0,0.25,100,83.0
449,A2,40.0,0.25,100,83.0
450,D2,40.0,0.25,100,83.0
451,D2,40.0,0.5,100,83.0
452,B-2,40.0,0.5,100,83.0
453,C2,40.0,0.5,100,83.0
454,E-5,40.0,2.0,100,83.0
455,E-4,40.0,2.0,100,83.0
456,D2,40.25,0.25,100,83.0
457,A2,40.25,0.25,100,83.0
458,D2,40.25,0.25,100,83.0
459,A2,40.25,0.25,100,83.0
460,D2,40.25,0.25,100,83.0
461,A2,40.25,0.25,100,83.0
462,D2,40.25,0.25,100,83.0
463,B-2,40.5,0.5,100,83.0
464,G#2,40.5,0.25,100,83.0
465,E-3,40.5,0.25,100,83.0
466,G#2,40.5,0.25,100,83.0
467,E-3,40.5,0.25,100,83.0
468,G#2,40.5,0.25,100,83.0
469,E-3,40.5,0.25,100,83.0
470,G#2,40.5,0.25,100,83.0
471,C2,40.75,0.25,100,83.0
472,D2,40.75,0.25,100,83.0
473,A2,40.75,0.25,100,83.0
474,D2,40.75,0.25,100,83.0
475,A2,40.75,0.25,100,83.0
476,D2,40.75,0.25,100,83.0
477,A2,40.75,0.25,100,83.0
478,D2,40.75,0.25,100,83.0
479,E2,41.0,0.5,100,83.0
480,B-2,41.0,0.375,100,83.0
481,D2,41.0,0.25,100,83.0
482,D2,41.0,0.25,100,83.0
483,E-3,41.0,0.25,100,83.0
484,G#2,41.0,0.25,100,83.0
485,E-3,41.0,0.25,100,83.0
486,G#2,41.0,0.25,100,83.0
487,E-3,41.0,0.25,100,83.0
488,G#2,41.0,0.25,100,83.0
489,C2,41.25,0.25,100,83.0
490,D2,41.25,0.25,100,83.0
491,D3,41.25,0.25,100,83.0
492,G2,41.25,0.25,100,83.0
493,D3,41.25,0.25,100,83.0
494,G2,41.25,0.25,100,83.0
495,D3,41.25,0.25,100,83.0
496,G2,41.25,0.25,100,83.0
497,B-2,41.5,0.5,100,83.0
498,G2,41.5,0.25,100,83.0
499,A2,41.5,0.5,100,83.0
500,D2,41.5,0.5,100,83.0
501,A2,41.5,0.5,100,83.0
502,D2,41.5,0.5,100,83.0
503,A2,41.5,0.5,100,83.0
504,D2,41.5,0.5,100,83.0
505,D2,41.75,0.25,100,83.0
506,D2,42.0,0.25,100,83.0
507,A2,42.0,0.25,100,83.0
508,D2,42.0,0.25,100,83.0
509,A2,42.0,0.25,100,83.0
510,D2,42.0,0.25,100,83.0
511,A2,42.0,0.25,100,83.0
512,D2,42.0,0.25,100,83.0
513,D2,42.0,0.5,100,83.0
514,B-2,42.0,0.5,100,83.0
515,C2,42.0,0.5,100,83.0
516,D2,42.25,0.25,100,83.0
517,A2,42.25,0.25,100,83.0
518,D2,42.25,0.25,100,83.0
519,A2,42.25,0.25,100,83.0
520,D2,42.25,0.25,100,83.0
521,A2,42.25,0.25,100,83.0
522,D2,42.25,0.25,100,83.0
523,B-2,42.5,0.5,100,83.0
524,G#2,42.5,0.25,100,83.0
525,E-3,42.5,0.25,100,83.0
526,G#2,42.5,0.25,100,83.0
527,E-3,42.5,0.25,100,83.0
528,G#2,42.5,0.25,100,83.0
529,E-3,42.5,0.25,100,83.0
530,G#2,42.5,0.25,100,83.0
531,C2,42.75,0.25,100,83.0
532,D2,42.75,0.25,100,83.0
533,A2,42.75,0.25,100,83.0
534,D2,42.75,0.25,100,83.0
535,A2,42.75,0.25,100,83.0
536,D2,42.75,0.25,100,83.0
537,A2,42.75,0.25,100,83.0
538,D2,42.75,0.25,100,83.0
539,D2,43.0,0.25,100,83.0
540,D2,43.0,0.25,100,83.0
541,E-3,43.0,0.25,100,83.0
542,G#2,43.0,0.25,100,83.0
543,E-3,43.0,0.25,100,83.0
544,G#2,43.0,0.25,100,83.0
545,E-3,43.0,0.25,100,83.0
546,G#2,43.0,0.25,100,83.0
547,A3,43.0,0.5,100,83.0
548,E2,43.0,0.5,100,83.0
549,C2,43.25,0.25,100,83.0
550,D2,43.25,0.25,100,83.0
551,D3,43.25,0.5,100,83.0
552,G2,43.25,0.5,100,83.0
553,D3,43.25,0.5,100,83.0
554,G2,43.25,0.5,100,83.0
555,D3,43.25,0.5,100,83.0
556,G2,43.25,0.5,100,83.0
557,B-2,43.5,0.5,100,83.0
558,G2,43.5,0.25,100,83.0
559,D2,43.75,0.25,100,83.0
560,D3,43.75,0.25,100,83.0
561,G2,43.75,0.25,100,83.0
562,D3,43.75,0.25,100,83.0
563,G2,43.75,0.25,100,83.0
564,D3,43.75,0.25,100,83.0
565,G2,43.75,0.25,100,83.0
566,D3,44.0,2.0,100,83.0
567,D2,44.0,0.25,100,83.0
568,D3,44.0,2.0,100,83.0
569,D2,44.0,4.0,100,83.0
570,D2,44.0,4.0,100,83.0
571,D2,44.0,0.5,100,83.0
572,B-2,44.0,0.5,100,83.0
573,C2,44.0,0.5,100,83.0
574,D2,44.25,0.25,100,83.0
575,B-2,44.5,0.5,100,83.0
576,G#2,44.5,0.25,100,83.0
577,C2,44.75,0.25,100,83.0
578,D2,44.75,0.25,100,83.0
579,E2,45.0,0.5,100,83.0
580,B-2,45.0,0.375,100,83.0
581,D2,45.0,0.25,100,83.0
582,D2,45.0,0.25,100,83.0
583,C2,45.25,0.25,100,83.0
584,D2,45.25,0.25,100,83.0
585,B-2,45.5,0.5,100,83.0
586,G2,45.5,0.25,100,83.0
587,D2,45.75,0.25,100,83.0
588,D2,46.0,0.25,100,83.0
589,D2,46.0,0.5,100,83.0
590,B-2,46.0,0.5,100,83.0
591,C2,46.0,0.5,100,83.0
592,D2,46.25,0.25,100,83.0
593,B-2,46.5,0.5,100,83.0
594,G#2,46.5,0.25,100,83.0
595,C2,46.75,0.25,100,83.0
596,D2,46.75,0.25,100,83.0
597,E2,47.0,0.5,100,83.0
598,B-2,47.0,0.375,100,83.0
599,D2,47.0,0.25,100,83.0
600,D2,47.0,0.25,100,83.0
601,C2,47.25,0.25,100,83.0
602,D2,47.25,0.25,100,83.0
603,B-2,47.5,0.5,100,83.0
604,G2,47.5,0.25,100,83.0
605,D2,47.75,0.25,100,83.0
606,D2,48.0,0.25,100,83.0
607,A2,48.0,0.25,100,83.0
608,D2,48.0,0.25,100,83.0
609,A2,48.0,0.25,100,83.0
610,D2,48.0,0.25,100,83.0
611,A2,48.0,0.25,100,83.0
612,D2,48.0,0.25,100,83.0
613,D2,48.0,0.5,100,83.0
614,B-2,48.0,0.5,100,83.0
615,C2,48.0,0.5,100,83.0
616,D2,48.25,0.25,100,83.0
617,A2,48.25,0.25,100,83.0
618,D2,48.25,0.25,100,83.0
619,A2,48.25,0.25,100,83.0
620,D2,48.25,0.25,100,83.0
621,A2,48.25,0.25,100,83.0
622,D2,48.25,0.25,100,83.0
623,B-2,48.5,0.5,100,83.0
624,G#2,48.5,0.25,100,83.0
625,E-3,48.5,0.25,100,83.0
626,G#2,48.5,0.25,100,83.0
627,E-3,48.5,0.25,100,83.0
628,G#2,48.5,0.25,100,83.0
629,E-3,48.5,0.25,100,83.0
630,G#2,48.5,0.25,100,83.0
631,C2,48.75,0.25,100,83.0
632,D2,48.75,0.25,100,83.0
633,A2,48.75,0.25,100,83.0
634,D2,48.75,0.25,100,83.0
635,A2,48.75,0.25,100,83.0
636,D2,48.75,0.25,100,83.0
637,A2,48.75,0.25,100,83.0
638,D2,48.75,0.25,100,83.0
639,E2,49.0,0.5,100,83.0
640,B-2,49.0,0.375,100,83.0
641,D2,49.0,0.25,100,83.0
642,D2,49.0,0.25,100,83.0
643,E-3,49.0,0.25,100,83.0
644,G#2,49.0,0.25,100,83.0
645,E-3,49.0,0.25,100,83.0
646,G#2,49.0,0.25,100,83.0
647,E-3,49.0,0.25,100,83.0
648,G#2,49.0,0.25,100,83.0
649,C2,49.25,0.25,100,83.0
650,D2,49.25,0.25,100,83.0
651,D3,49.25,0.25,100,83.0
652,G2,49.25,0.25,100,83.0
653,D3,49.25,0.25,100,83.0
654,G2,49.25,0.25,100,83.0
655,D3,49.25,0.25,100,83.0
656,G2,49.25,0.25,100,83.0
657,B-2,49.5,0.5,100,83.0
658,G2,49.5,0.25,100,83.0
659,A2,49.5,0.5,100,83.0
660,D2,49.5,0.5,100,83.0
661,A2,49.5,0.5,100,83.0
662,D2,49.5,0.5,100,83.0
663,A2,49.5,0.5,100,83.0
664,D2,49.5,0.5,100,83.0
665,D2,49.75,0.25,100,83.0
666,D2,50.0,0.25,100,83.0
667,A2,50.0,0.25,100,83.0
668,D2,50.0,0.25,100,83.0
669,A2,50.0,0.25,100,83.0
670,D2,50.0,0.25,100,83.0
671,A2,50.0,0.25,100,83.0
672,D2,50.0,0.25,100,83.0
673,D2,50.0,0.5,100,83.0
674,B-2,50.0,0.5,100,83.0
675,C2,50.0,0.5,100,83.0
676,D2,50.25,0.25,100,83.0
677,A2,50.25,0.25,100,83.0
678,D2,50.25,0.25,100,83.0
679,A2,50.25,0.25,100,83.0
680,D2,50.25,0.25,100,83.0
681,A2,50.25,0.25,100,83.0
682,D2,50.25,0.25,100,83.0
683,B-2,50.5,0.5,100,83.0
684,G#2,50.5,0.25,100,83.0
685,E-3,50.5,0.25,100,83.0
686,G#2,50.5,0.25,100,83.0
687,E-3,50.5,0.25,100,83.0
688,G#2,50.5,0.25,100,83.0
689,E-3,50.5,0.25,100,83.0
690,G#2,50.5,0.25,100,83.0
691,C2,50.75,0.25,100,83.0
692,D2,50.75,0.25,100,83.0
693,A2,50.75,0.25,100,83.0
694,D2,50.75,0.25,100,83.0
695,A2,50.75,0.25,100,83.0
696,D2,50.75,0.25,100,83.0
697,A2,50.75,0.25,100,83.0
698,D2,50.75,0.25,100,83.0
699,E2,51.0,0.5,100,83.0
700,B-2,51.0,0.375,100,83.0
701,D2,51.0,0.25,100,83.0
702,D2,51.0,0.25,100,83.0
703,E-3,51.0,0.25,100,83.0
704,G#2,51.0,0.25,100,83.0
705,E-3,51.0,0.25,100,83.0
706,G#2,51.0,0.25,100,83.0
707,E-3,51.0,0.25,100,83.0
708,G#2,51.0,0.25,100,83.0
709,C2,51.25,0.25,100,83.0
710,D2,51.25,0.25,100,83.0
711,A2,51.25,0.75,100,83.0
712,D2,51.25,0.75,100,83.0
713,A2,51.25,0.75,100,83.0
714,D2,51.25,0.75,100,83.0
715,A2,51.25,0.75,100,83.0
716,D2,51.25,0.75,100,83.0
717,B-2,51.5,0.5,100,83.0
718,G2,51.5,0.25,100,83.0
719,D2,51.75,0.25,100,83.0
720,D3,52.0,2.0,100,83.0
721,D2,52.0,0.25,100,83.0
722,D3,52.0,2.0,100,83.0
723,D2,52.0,4.0,100,83.0
724,D2,52.0,4.0,100,83.0
725,D2,52.0,0.5,100,83.0
726,B-2,52.0,0.5,100,83.0
727,C2,52.0,0.5,100,83.0
728,D2,52.25,0.25,100,83.0
729,B-2,52.5,0.5,100,83.0
730,G#2,52.5,0.25,100,83.0
731,C2,52.75,0.25,100,83.0
732,D2,52.75,0.25,100,83.0
733,E2,53.0,0.5,100,83.0
734,B-2,53.0,0.375,100,83.0
735,D2,53.0,0.25,100,83.0
736,D2,53.0,0.25,100,83.0
737,C2,53.25,0.25,100,83.0
738,D2,53.25,0.25,100,83.0
739,B-2,53.5,0.5,100,83.0
740,G2,53.5,0.25,100,83.0
741,D2,53.75,0.25,100,83.0
742,D2,54.0,0.25,100,83.0
743,D2,54.0,0.5,100,83.0
744,B-2,54.0,0.5,100,83.0
745,C2,54.0,0.5,100,83.0
746,D2,54.25,0.25,100,83.0
747,B-2,54.5,0.5,100,83.0
748,G#2,54.5,0.25,100,83.0
749,C2,54.75,0.25,100,83.0
750,D2,54.75,0.25,100,83.0
751,E2,55.0,0.5,100,83.0
752,B-2,55.0,0.375,100,83.0
753,D2,55.0,0.25,100,83.0
754,D2,55.0,0.25,100,83.0
755,C2,55.25,0.25,100,83.0
756,D2,55.25,0.25,100,83.0
757,B-2,55.5,0.5,100,83.0
758,G2,55.5,0.25,100,83.0
759,D2,55.75,0.25,100,83.0
760,D2,56.0,0.25,100,83.0
761,A2,56.0,0.25,100,83.0
762,D2,56.0,0.25,100,83.0
763,A2,56.0,0.25,100,83.0
764,D2,56.0,0.25,100,83.0
765,A2,56.0,0.25,100,83.0
766,D2,56.0,0.25,100,83.0
767,A3,56.0,0.5,100,83.0
768,D2,56.0,0.5,100,83.0
769,C2,56.0,0.5,100,83.0
770,D2,56.25,0.25,100,83.0
771,A2,56.25,0.25,100,83.0
772,D2,56.25,0.25,100,83.0
773,A2,56.25,0.25,100,83.0
774,D2,56.25,0.25,100,83.0
775,A2,56.25,0.25,100,83.0
776,D2,56.25,0.25,100,83.0
777,B-2,56.5,0.5,100,83.0
778,G#2,56.5,0.25,100,83.0
779,E-3,56.5,0.25,100,83.0
780,G#2,56.5,0.25,100,83.0
781,E-3,56.5,0.25,100,83.0
782,G#2,56.5,0.25,100,83.0
783,E-3,56.5,0.25,100,83.0
784,G#2,56.5,0.25,100,83.0
785,C2,56.75,0.25,100,83.0
786,D2,56.75,0.25,100,83.0
787,A2,56.75,0.25,100,83.0
788,D2,56.75,0.25,100,83.0
789,A2,56.75,0.25,100,83.0
790,D2,56.75,0.25,100,83.0
791,A2,56.75,0.25,100,83.0
792,D2,56.75,0.25,100,83.0
793,E2,57.0,0.5,100,83.0
794,B-2,57.0,0.375,100,83.0
795,D2,57.0,0.25,100,83.0
796,D2,57.0,0.25,100,83.0
797,E-3,57.0,0.25,100,83.0
798,G#2,57.0,0.25,100,83.0
799,E-3,57.0,0.25,100,83.0
800,G#2,57.0,0.25,100,83.0
801,E-3,57.0,0.25,100,83.0
802,G#2,57.0,0.25,100,83.0
803,C2,57.25,0.25,100,83.0
804,D2,57.25,0.25,100,83.0
805,D3,57.25,0.25,100,83.0
806,G2,57.25,0.25,100,83.0
807,D3,57.25,0.25,100,83.0
808,G2,57.25,0.25,100,83.0
809,D3,57.25,0.25,100,83.0
810,G2,57.25,0.25,100,83.0
811,B-2,57.5,0.5,100,83.0
812,G2,57.5,0.25,100,83.0
813,A2,57.5,0.5,100,83.0
814,D2,57.5,0.5,100,83.0
815,A2,57.5,0.5,100,83.0
816,D2,57.5,0.5,100,83.0
817,A2,57.5,0.5,100,83.0
818,D2,57.5,0.5,100,83.0
819,D2,57.75,0.25,100,83.0
820,D2,58.0,0.25,100,83.0
821,A2,58.0,0.25,100,83.0
822,D2,58.0,0.25,100,83.0
823,A2,58.0,0.25,100,83.0
824,D2,58.0,0.25,100,83.0
825,A2,58.0,0.25,100,83.0
826,D2,58.0,0.25,100,83.0
827,D2,58.0,0.5,100,83.0
828,B-2,58.0,0.5,100,83.0
829,C2,58.0,0.5,100,83.0
830,D2,58.25,0.25,100,83.0
831,A2,58.25,0.25,100,83.0
832,D2,58.25,0.25,100,83.0
833,A2,58.25,0.25,100,83.0
834,D2,58.25,0.25,100,83.0
835,A2,58.25,0.25,100,83.0
836,D2,58.25,0.25,100,83.0
837,B-2,58.5,0.5,100,83.0
838,G#2,58.5,0.25,100,83.0
839,E-3,58.5,0.25,100,83.0
840,G#2,58.5,0.25,100,83.0
841,E-3,58.5,0.25,100,83.0
842,G#2,58.5,0.25,100,83.0
843,E-3,58.5,0.25,100,83.0
844,G#2,58.5,0.25,100,83.0
845,C2,58.75,0.25,100,83.0
846,D2,58.75,0.25,100,83.0
847,A2,58.75,0.25,100,83.0
848,D2,58.75,0.25,100,83.0
849,A2,58.75,0.25,100,83.0
850,D2,58.75,0.25,100,83.0
851,A2,58.75,0.25,100,83.0
852,D2,58.75,0.25,100,83.0
853,E2,59.0,0.5,100,83.0
854,B-2,59.0,0.375,100,83.0
855,D2,59.0,0.25,100,83.0
856,D2,59.0,0.25,100,83.0
857,E-3,59.0,0.25,100,83.0
858,G#2,59.0,0.25,100,83.0
859,E-3,59.0,0.25,100,83.0
860,G#2,59.0,0.25,100,83.0
861,E-3,59.0,0.25,100,83.0
862,G#2,59.0,0.25,100,83.0
863,C2,59.25,0.25,100,83.0
864,D2,59.25,0.25,100,83.0
865,A2,59.25,0.75,100,83.0
866,D2,59.25,0.75,100,83.0
867,A2,59.25,0.75,100,83.0
868,D2,59.25,0.75,100,83.0
869,A2,59.25,0.75,100,83.0
870,D2,59.25,0.75,100,83.0
871,B-2,59.5,0.5,100,83.0
872,G2,59.5,0.25,100,83.0
873,D2,59.75,0.25,100,83.0
874,D3,60.0,2.0,100,83.0
875,D2,60.0,0.25,100,83.0
876,D3,60.0,2.0,100,83.0
877,D2,60.0,4.0,100,83.0
878,D2,60.0,4.0,100,83.0
879,D2,60.0,0.5,100,83.0
880,B-2,60.0,0.5,100,83.0
881,C2,60.0,0.5,100,83.0
882,D2,60.25,0.25,100,83.0
883,B-2,60.5,0.5,100,83.0
884,G#2,60.5,0.25,100,83.0
885,C2,60.75,0.25,100,83.0
886,D2,60.75,0.25,100,83.0
887,E2,61.0,0.5,100,83.0
888,B-2,61.0,0.375,100,83.0
889,D2,61.0,0.25,100,83.0
890,D2,61.0,0.25,100,83.0
891,C2,61.25,0.25,100,83.0
892,D2,61.25,0.25,100,83.0
893,B-2,61.5,0.5,100,83.0
894,G2,61.5,0.25,100,83.0
895,D2,61.75,0.25,100,83.0
896,D2,62.0,0.25,100,83.0
897,D2,62.0,0.5,100,83.0
898,B-2,62.0,0.5,100,83.0
899,C2,62.0,0.5,100,83.0
900,D2,62.25,0.25,100,83.0
901,B-2,62.5,0.5,100,83.0
902,G#2,62.5,0.25,100,83.0
903,C2,62.75,0.25,100,83.0
904,D2,62.75,0.25,100,83.0
905,E2,63.0,0.5,100,83.0
906,B-2,63.0,0.375,100,83.0
907,D2,63.0,0.25,100,83.0
908,D2,63.0,0.25,100,83.0
909,C2,63.25,0.25,100,83.0
910,D2,63.25,0.25,100,83.0
911,B-2,63.5,0.5,100,83.0
912,G2,63.5,0.25,100,83.0
913,D2,63.75,0.25,100,83.0
914,D2,64.0,0.25,100,83.0
915,A2,64.0,0.25,100,83.0
916,D2,64.0,0.25,100,83.0
917,A2,64.0,0.25,100,83.0
918,D2,64.0,0.25,100,83.0
919,D2,64.0,0.5,100,83.0
920,B-2,64.0,0.5,100,83.0
921,C2,64.0,0.5,100,83.0
922,A2,64.05,0.25,100,83.0
923,D2,64.05,0.25,100,83.0
924,D2,64.25,0.25,100,83.0
925,A2,64.25,0.25,100,83.0
926,D2,64.25,0.25,100,83.0
927,A2,64.25,0.25,100,83.0
928,D2,64.25,0.25,100,83.0
929,A2,64.3,0.25,100,83.0
930,D2,64.3,0.25,100,83.0
931,B-2,64.5,0.5,100,83.0
932,G#2,64.5,0.25,100,83.0
933,E-3,64.5,0.25,100,83.0
934,G#2,64.5,0.25,100,83.0
935,E-3,64.5,0.25,100,83.0
936,G#2,64.5,0.25,100,83.0
937,E-3,64.55,0.25,100,83.0
938,G#2,64.55,0.25,100,83.0
939,C2,64.75,0.25,100,83.0
940,D2,64.75,0.25,100,83.0
941,A2,64.75,0.25,100,83.0
942,D2,64.75,0.25,100,83.0
943,A2,64.75,0.25,100,83.0
944,D2,64.75,0.25,100,83.0
945,A2,64.8,0.25,100,83.0
946,D2,64.8,0.25,100,83.0
947,E2,65.0,0.5,100,83.0
948,B-2,65.0,0.375,100,83.0
949,D2,65.0,0.25,100,83.0
950,D2,65.0,0.25,100,83.0
951,E-3,65.0,0.25,100,83.0
952,G#2,65.0,0.25,100,83.0
953,E-3,65.0,0.25,100,83.0
954,G#2,65.0,0.25,100,83.0
955,E-3,65.05,0.25,100,83.0
956,G#2,65.05,0.25,100,83.0
957,C2,65.25,0.25,100,83.0
958,D2,65.25,0.25,100,83.0
959,D3,65.25,0.25,100,83.0
960,G2,65.25,0.25,100,83.0
961,D3,65.25,0.25,100,83.0
962,G2,65.25,0.25,100,83.0
963,D3,65.3,0.25,100,83.0
964,G2,65.3,0.25,100,83.0
965,B-2,65.5,0.5,100,83.0
966,G2,65.5,0.25,100,83.0
967,A2,65.5,0.5,100,83.0
968,D2,65.5,0.5,100,83.0
969,A2,65.5,0.5,100,83.0
970,D2,65.5,0.5,100,83.0
971,A2,65.55,0.5,100,83.0
972,D2,65.55,0.5,100,83.0
973,D2,65.75,0.25,100,83.0
974,D2,66.0,0.25,100,83.0
975,A2,66.0,0.25,100,83.0
976,D2,66.0,0.25,100,83.0
977,A2,66.0,0.25,100,83.0
978,D2,66.0,0.25,100,83.0
979,D2,66.0,0.5,100,83.0
980,B-2,66.0,0.5,100,83.0
981,C2,66.0,0.5,100,83.0
982,A2,66.05,0.25,100,83.0
983,D2,66.05,0.25,100,83.0
984,D2,66.25,0.25,100,83.0
985,A2,66.25,0.25,100,83.0
986,D2,66.25,0.25,100,83.0
987,A2,66.25,0.25,100,83.0
988,D2,66.25,0.25,100,83.0
989,A2,66.3,0.25,100,83.0
990,D2,66.3,0.25,100,83.0
991,B-2,66.5,0.5,100,83.0
992,G#2,66.5,0.25,100,83.0
993,E-3,66.5,0.25,100,83.0
994,G#2,66.5,0.25,100,83.0
995,E-3,66.5,0.25,100,83.0
996,G#2,66.5,0.25,100,83.0
997,E-3,66.55,0.25,100,83.0
998,G#2,66.55,0.25,100,83.0
999,C2,66.75,0.25,100,83.0
1000,D2,66.75,0.25,100,83.0
1001,A2,66.75,0.25,100,83.0
1002,D2,66.75,0.25,100,83.0
1003,A2,66.75,0.25,100,83.0
1004,D2,66.75,0.25,100,83.0
1005,A2,66.8,0.25,100,83.0
1006,D2,66.8,0.25,100,83.0
1007,E2,67.0,0.5,100,83.0
1008,B-2,67.0,0.375,100,83.0
1009,D2,67.0,0.25,100,83.0
1010,D2,67.0,0.25,100,83.0
1011,E-3,67.0,0.25,100,83.0
1012,G#2,67.0,0.25,100,83.0
1013,E-3,67.0,0.25,100,83.0
1014,G#2,67.0,0.25,100,83.0
1015,E-3,67.05,0.25,100,83.0
1016,G#2,67.05,0.25,100,83.0
1017,C2,67.25,0.25,100,83.0
1018,D2,67.25,0.25,100,83.0
1019,A2,67.25,0.75,100,83.0
1020,D2,67.25,0.75,100,83.0
1021,A2,67.25,0.75,100,83.0
1022,D2,67.25,0.75,100,83.0
1023,A2,67.3,7/10,100,83.0
1024,D2,67.3,7/10,100,83.0
1025,B-2,67.5,0.5,100,83.0
1026,G2,67.5,0.25,100,83.0
1027,D2,67.75,0.25,100,83.0
1028,D3,68.0,2.0,100,83.0
1029,D2,68.0,0.25,100,83.0
1030,D3,68.0,2.0,100,83.0
1031,A2,68.0,1/20,100,83.0
1032,D2,68.0,1/20,100,83.0
1033,D2,68.0,4.0,100,83.0
1034,D2,68.0,4.0,100,83.0
1035,D2,68.0,0.5,100,83.0
1036,B-2,68.0,0.5,100,83.0
1037,C2,68.0,0.5,100,83.0
1038,D2,68.25,0.25,100,83.0
1039,B-2,68.5,0.5,100,83.0
1040,G#2,68.5,0.25,100,83.0
1041,C2,68.75,0.25,100,83.0
1042,D2,68.75,0.25,100,83.0
1043,E2,69.0,0.5,100,83.0
1044,B-2,69.0,0.375,100,83.0
1045,D2,69.0,0.25,100,83.0
1046,D2,69.0,0.25,100,83.0
1047,C2,69.25,0.25,100,83.0
1048,D2,69.25,0.25,100,83.0
1049,B-2,69.5,0.5,100,83.0
1050,G2,69.5,0.25,100,83.0
1051,D2,69.75,0.25,100,83.0
1052,D2,70.0,0.25,100,83.0
1053,D2,70.0,0.5,100,83.0
1054,B-2,70.0,0.5,100,83.0
1055,C2,70.0,0.5,100,83.0
1056,D2,70.25,0.25,100,83.0
1057,B-2,70.5,0.5,100,83.0
1058,G#2,70.5,0.25,100,83.0
1059,C2,70.75,0.25,100,83.0
1060,D2,70.75,0.25,100,83.0
1061,E2,71.0,0.5,100,83.0
1062,B-2,71.0,0.375,100,83.0
1063,D2,71.0,0.25,100,83.0
1064,D2,71.0,0.25,100,83.0
1065,C2,71.25,0.25,100,83.0
1066,D2,71.25,0.25,100,83.0
1067,B-2,71.5,0.5,100,83.0
1068,G2,71.5,0.25,100,83.0
1069,D2,71.75,0.25,100,83.0
1070,C2,71.75,0.25,100,83.0
1071,C2,71.75,0.25,100,83.0
1072,B1,72.0,4.0,100,83.0
1073,B1,72.0,4.0,100,83.0
1074,D2,72.0,1.0,100,83.0
1075,E2,72.0,1.0,100,83.0
1076,C2,72.0,1.0,100,83.0
1077,E2,75.008,0.25,100,83.0
1078,B-2,75.008,0.25,100,83.0
1079,B2,75.008,0.25,100,83.0
1080,A2,75.258,0.25,100,83.0
1081,G2,75.508,0.25,100,83.0
1082,F2,75.758,121/500,100,83.0
1083,F2,76.0,1/125,100,83.0
1084,D2,76.0,0.25,100,83.0
1085,F#3,76.0,2.0,100,83.0
1086,B2,76.0,2.0,100,83.0
1087,B3,76.0,2.0,100,83.0
1088,C#3,76.0,1.0,100,83.0
1089,C#3,76.0,1.0,100,83.0
1090,F#3,76.0,2.0,100,83.0
1091,B2,76.0,2.0,100,83.0
1092,B3,76.0,2.0,100,83.0
1093,B3,76.017,2.0,100,83.0
1094,B3,76.017,2.0,100,83.0
1095,B3,76.017,2.0,100,83.0
1096,F#3,76.025,2.0,100,83.0
1097,B2,76.025,2.0,100,83.0
1098,B3,76.025,2.0,100,83.0
1099,F#3,76.025,2.0,100,83.0
1100,B2,76.025,2.0,100,83.0
1101,B3,76.025,2.0,100,83.0
1102,F#3,76.042,2.0,100,83.0
1103,B2,76.042,2.0,100,83.0
1104,B3,76.042,2.0,100,83.0
1105,F#3,76.05,2.0,100,83.0
1106,B2,76.05,2.0,100,83.0
1107,B3,76.05,2.0,100,83.0
1108,D2,76.05,0.5,100,83.0
1109,C2,76.05,0.5,100,83.0
1110,D2,76.25,0.25,100,83.0
1111,G#2,76.5,0.25,100,83.0
1112,B-2,76.55,0.5,100,83.0
1113,D2,76.75,0.25,100,83.0
1114,C2,76.8,0.25,100,83.0
1115,D2,77.0,0.25,100,83.0
1116,E2,77.05,0.5,100,83.0
1117,B-2,77.05,0.375,100,83.0
1118,D2,77.05,0.25,100,83.0
1119,D2,77.25,0.25,100,83.0
1120,C2,77.3,0.25,100,83.0
1121,G2,77.5,0.25,100,83.0
1122,B-2,77.55,0.5,100,83.0
1123,D2,77.75,0.25,100,83.0
1124,D2,78.0,0.25,100,83.0
1125,E2,78.0,2.0,100,83.0
1126,B2,78.0,2.0,100,83.0
1127,E3,78.0,2.0,100,83.0
1128,B3,78.0,2.0,100,83.0
1129,E2,78.0,2.0,100,83.0
1130,B2,78.0,2.0,100,83.0
1131,E3,78.0,2.0,100,83.0
1132,B3,78.0,2.0,100,83.0
1133,G3,78.017,1983/1000,100,83.0
1134,G3,78.017,1983/1000,100,83.0
1135,G3,78.017,1983/1000,100,83.0
1136,E2,78.025,79/40,100,83.0
1137,B2,78.025,79/40,100,83.0
1138,E3,78.025,79/40,100,83.0
1139,B3,78.025,79/40,100,83.0
1140,E2,78.025,79/40,100,83.0
1141,B2,78.025,79/40,100,83.0
1142,E3,78.025,79/40,100,83.0
1143,B3,78.025,79/40,100,83.0
1144,E2,78.042,979/500,100,83.0
1145,B2,78.042,979/500,100,83.0
1146,E3,78.042,979/500,100,83.0
1147,B3,78.042,979/500,100,83.0
1148,E2,78.05,39/20,100,83.0
1149,B2,78.05,39/20,100,83.0
1150,E3,78.05,39/20,100,83.0
1151,B3,78.05,39/20,100,83.0
1152,D2,78.05,0.5,100,83.0
1153,B-2,78.05,0.5,100,83.0
1154,C2,78.05,0.5,100,83.0
1155,D2,78.25,0.25,100,83.0
1156,G#2,78.5,0.25,100,83.0
1157,B-2,78.55,0.5,100,83.0
1158,D2,78.75,0.25,100,83.0
1159,C2,78.8,0.25,100,83.0
1160,D2,79.0,0.25,100,83.0
1161,E2,79.05,0.5,100,83.0
1162,B-2,79.05,0.375,100,83.0
1163,D2,79.05,0.25,100,83.0
1164,D2,79.25,0.25,100,83.0
1165,C2,79.3,0.25,100,83.0
1166,G2,79.5,0.25,100,83.0
1167,B-2,79.55,9/20,100,83.0
1168,D2,79.75,0.25,100,83.0
1169,B-2,80.0,1/20,100,83.0
1170,G3,80.0,17/1000,100,83.0
1171,G3,80.0,17/1000,100,83.0
1172,D2,80.0,0.25,100,83.0
1173,G3,80.0,17/1000,100,83.0
1174,D2,80.0,2.0,100,83.0
1175,A2,80.0,2.0,100,83.0
1176,D3,80.0,2.0,100,83.0
1177,F#3,80.0,2.0,100,83.0
1178,E2,80.0,21/500,100,83.0
1179,B2,80.0,21/500,100,83.0
1180,E3,80.0,21/500,100,83.0
1181,B3,80.0,21/500,100,83.0
1182,E2,80.0,1/20,100,83.0
1183,B2,80.0,1/20,100,83.0
1184,E3,80.0,1/20,100,83.0
1185,B3,80.0,1/20,100,83.0
1186,E2,80.0,1/40,100,83.0
1187,B2,80.0,1/40,100,83.0
1188,E3,80.0,1/40,100,83.0
1189,B3,80.0,1/40,100,83.0
1190,D2,80.0,2.0,100,83.0
1191,A2,80.0,2.0,100,83.0
1192,D3,80.0,2.0,100,83.0
1193,F#3,80.0,2.0,100,83.0
1194,E2,80.0,1/40,100,83.0
1195,B2,80.0,1/40,100,83.0
1196,E3,80.0,1/40,100,83.0
1197,B3,80.0,1/40,100,83.0
1198,F#3,80.017,2.0,100,83.0
1199,F#3,80.017,2.0,100,83.0
1200,F#3,80.017,2.0,100,83.0
1201,D2,80.025,2.0,100,83.0
1202,A2,80.025,2.0,100,83.0
1203,D3,80.025,2.0,100,83.0
1204,F#3,80.025,2.0,100,83.0
1205,D2,80.025,2.0,100,83.0
1206,A2,80.025,2.0,100,83.0
1207,D3,80.025,2.0,100,83.0
1208,F#3,80.025,2.0,100,83.0
1209,D2,80.042,2.0,100,83.0
1210,A2,80.042,2.0,100,83.0
1211,D3,80.042,2.0,100,83.0
1212,F#3,80.042,2.0,100,83.0
1213,D2,80.05,2.0,100,83.0
1214,A2,80.05,2.0,100,83.0
1215,D3,80.05,2.0,100,83.0
1216,F#3,80.05,2.0,100,83.0
1217,D2,80.05,0.5,100,83.0
1218,B-2,80.05,0.5,100,83.0
1219,C2,80.05,0.5,100,83.0
1220,D2,80.25,0.25,100,83.0
1221,G#2,80.5,0.25,100,83.0
1222,B-2,80.55,0.5,100,83.0
1223,D2,80.75,0.25,100,83.0
1224,C2,80.8,0.25,100,83.0
1225,D2,81.0,0.25,100,83.0
1226,E2,81.05,0.5,100,83.0
1227,B-2,81.05,0.375,100,83.0
1228,D2,81.05,0.25,100,83.0
1229,D2,81.25,0.25,100,83.0
1230,C2,81.3,0.25,100,83.0
1231,G2,81.5,0.25,100,83.0
1232,B-2,81.55,0.5,100,83.0
1233,D2,81.75,0.25,100,83.0
1234,D2,82.0,0.25,100,83.0
1235,C2,82.0,2.0,100,83.0
1236,G2,82.0,2.0,100,83.0
1237,C3,82.0,2.0,100,83.0
1238,G3,82.0,2.0,100,83.0
1239,C2,82.0,2.0,100,83.0
1240,G2,82.0,2.0,100,83.0
1241,C3,82.0,2.0,100,83.0
1242,G3,82.0,2.0,100,83.0
1243,E3,82.017,1983/1000,100,83.0
1244,E3,82.017,1983/1000,100,83.0
1245,E3,82.017,1983/1000,100,83.0
1246,C2,82.025,79/40,100,83.0
1247,G2,82.025,79/40,100,83.0
1248,C3,82.025,79/40,100,83.0
1249,G3,82.025,79/40,100,83.0
1250,C2,82.025,79/40,100,83.0
1251,G2,82.025,79/40,100,83.0
1252,C3,82.025,79/40,100,83.0
1253,G3,82.025,79/40,100,83.0
1254,C2,82.042,979/500,100,83.0
1255,G2,82.042,979/500,100,83.0
1256,C3,82.042,979/500,100,83.0
1257,G3,82.042,979/500,100,83.0
1258,C2,82.05,39/20,100,83.0
1259,G2,82.05,39/20,100,83.0
1260,C3,82.05,39/20,100,83.0
1261,G3,82.05,39/20,100,83.0
1262,D2,82.05,0.5,100,83.0
1263,B-2,82.05,0.5,100,83.0
1264,C2,82.05,0.5,100,83.0
1265,D2,82.25,0.25,100,83.0
1266,G#2,82.5,0.25,100,83.0
1267,B-2,82.55,0.5,100,83.0
1268,D2,82.75,0.25,100,83.0
1269,C2,82.8,0.25,100,83.0
1270,D2,83.0,0.25,100,83.0
1271,E2,83.05,0.5,100,83.0
1272,B-2,83.05,0.375,100,83.0
1273,D2,83.05,0.25,100,83.0
1274,D2,83.25,0.25,100,83.0
1275,C2,83.3,0.25,100,83.0
1276,G2,83.5,0.25,100,83.0
1277,B-2,83.55,9/20,100,83.0
1278,D2,83.75,0.25,100,83.0
1279,C#3,84.0,1.0,100,83.0
1280,B-2,84.0,1/20,100,83.0
1281,E3,84.0,17/1000,100,83.0
1282,E3,84.0,17/1000,100,83.0
1283,D2,84.0,0.25,100,83.0
1284,E3,84.0,17/1000,100,83.0
1285,F#3,84.0,2.0,100,83.0
1286,B2,84.0,2.0,100,83.0
1287,B3,84.0,2.0,100,83.0
1288,C#3,84.0,0.5,100,83.0
1289,D2,84.0,0.5,100,83.0
1290,C2,84.0,0.5,100,83.0
1291,F#3,84.0,2.0,100,83.0
1292,B2,84.0,2.0,100,83.0
1293,B3,84.0,2.0,100,83.0
1294,B3,84.017,2.0,100,83.0
1295,B3,84.017,2.0,100,83.0
1296,B3,84.017,2.0,100,83.0
1297,C2,84.025,1/40,100,83.0
1298,G2,84.025,1/40,100,83.0
1299,C3,84.025,1/40,100,83.0
1300,G3,84.025,1/40,100,83.0
1301,C2,84.025,1/40,100,83.0
1302,G2,84.025,1/40,100,83.0
1303,C3,84.025,1/40,100,83.0
1304,G3,84.025,1/40,100,83.0
1305,C2,84.042,21/500,100,83.0
1306,G2,84.042,21/500,100,83.0
1307,C3,84.042,21/500,100,83.0
1308,G3,84.042,21/500,100,83.0
1309,C2,84.05,1/20,100,83.0
1310,G2,84.05,1/20,100,83.0
1311,C3,84.05,1/20,100,83.0
1312,G3,84.05,1/20,100,83.0
1313,F#3,84.05,2.0,100,83.0
1314,B2,84.05,2.0,100,83.0
1315,B3,84.05,2.0,100,83.0
1316,F#3,84.05,2.0,100,83.0
1317,B2,84.05,2.0,100,83.0
1318,B3,84.05,2.0,100,83.0
1319,F#3,84.083,2.0,100,83.0
1320,B2,84.083,2.0,100,83.0
1321,B3,84.083,2.0,100,83.0
1322,F#3,84.1,2.0,100,83.0
1323,B2,84.1,2.0,100,83.0
1324,B3,84.1,2.0,100,83.0
1325,D2,84.25,0.25,100,83.0
1326,G#2,84.5,0.25,100,83.0
1327,B-2,84.55,0.5,100,83.0
1328,D2,84.75,0.25,100,83.0
1329,C2,84.8,0.25,100,83.0
1330,D2,85.0,0.25,100,83.0
1331,E2,85.05,0.5,100,83.0
1332,B-2,85.05,0.375,100,83.0
1333,D2,85.05,0.25,100,83.0
1334,D2,85.25,0.25,100,83.0
1335,C2,85.3,0.25,100,83.0
1336,G2,85.5,0.25,100,83.0
1337,B-2,85.55,0.5,100,83.0
1338,D2,85.75,0.25,100,83.0
1339,D2,86.0,0.25,100,83.0
1340,E2,86.0,2.0,100,83.0
1341,B2,86.0,2.0,100,83.0
1342,E3,86.0,2.0,100,83.0
1343,B3,86.0,2.0,100,83.0
1344,E2,86.0,2.0,100,83.0
1345,B2,86.0,2.0,100,83.0
1346,E3,86.0,2.0,100,83.0
1347,B3,86.0,2.0,100,83.0
1348,A3,86.017,1983/1000,100,83.0
1349,A3,86.017,1983/1000,100,83.0
1350,A3,86.017,1983/1000,100,83.0
1351,D2,86.05,0.5,100,83.0
1352,B-2,86.05,0.5,100,83.0
1353,C2,86.05,0.5,100,83.0
1354,E2,86.05,79/40,100,83.0
1355,B2,86.05,79/40,100,83.0
1356,E3,86.05,79/40,100,83.0
1357,B3,86.05,79/40,100,83.0
1358,E2,86.05,79/40,100,83.0
1359,B2,86.05,79/40,100,83.0
1360,E3,86.05,79/40,100,83.0
1361,B3,86.05,79/40,100,83.0
1362,E2,86.083,979/500,100,83.0
1363,B2,86.083,979/500,100,83.0
1364,E3,86.083,979/500,100,83.0
1365,B3,86.083,979/500,100,83.0
1366,E2,86.1,39/20,100,83.0
1367,B2,86.1,39/20,100,83.0
1368,E3,86.1,39/20,100,83.0
1369,B3,86.1,39/20,100,83.0
1370,D2,86.25,0.25,100,83.0
1371,G#2,86.5,0.25,100,83.0
1372,B-2,86.55,0.5,100,83.0
1373,D2,86.75,0.25,100,83.0
1374,C2,86.8,0.25,100,83.0
1375,D2,87.0,0.25,100,83.0
1376,E2,87.05,0.5,100,83.0
1377,B-2,87.05,0.375,100,83.0
1378,D2,87.05,0.25,100,83.0
1379,D2,87.25,0.25,100,83.0
1380,C2,87.3,0.25,100,83.0
1381,G2,87.5,0.25,100,83.0
1382,B-2,87.55,9/20,100,83.0
1383,D2,87.75,0.25,100,83.0
1384,B-2,88.0,1/20,100,83.0
1385,A3,88.0,17/1000,100,83.0
1386,A3,88.0,17/1000,100,83.0
1387,D2,88.0,0.25,100,83.0
1388,A3,88.0,17/1000,100,83.0
1389,D2,88.0,2.0,100,83.0
1390,A2,88.0,2.0,100,83.0
1391,D3,88.0,2.0,100,83.0
1392,F#3,88.0,2.0,100,83.0
1393,D2,88.0,2.0,100,83.0
1394,A2,88.0,2.0,100,83.0
1395,D3,88.0,2.0,100,83.0
1396,F#3,88.0,2.0,100,83.0
1397,G3,88.017,2.0,100,83.0
1398,G3,88.017,2.0,100,83.0
1399,G3,88.017,2.0,100,83.0
1400,D2,88.05,0.5,100,83.0
1401,B-2,88.05,0.5,100,83.0
1402,C2,88.05,0.5,100,83.0
1403,E2,88.05,1/40,100,83.0
1404,B2,88.05,1/40,100,83.0
1405,E3,88.05,1/40,100,83.0
1406,B3,88.05,1/40,100,83.0
1407,E2,88.05,1/40,100,83.0
1408,B2,88.05,1/40,100,83.0
1409,E3,88.05,1/40,100,83.0
1410,B3,88.05,1/40,100,83.0
1411,D2,88.075,2.0,100,83.0
1412,A2,88.075,2.0,100,83.0
1413,D3,88.075,2.0,100,83.0
1414,F#3,88.075,2.0,100,83.0
1415,D2,88.075,2.0,100,83.0
1416,A2,88.075,2.0,100,83.0
1417,D3,88.075,2.0,100,83.0
1418,F#3,88.075,2.0,100,83.0
1419,E2,88.083,21/500,100,83.0
1420,B2,88.083,21/500,100,83.0
1421,E3,88.083,21/500,100,83.0
1422,B3,88.083,21/500,100,83.0
1423,E2,88.1,1/20,100,83.0
1424,B2,88.1,1/20,100,83.0
1425,E3,88.1,1/20,100,83.0
1426,B3,88.1,1/20,100,83.0
1427,D2,88.125,2.0,100,83.0
1428,A2,88.125,2.0,100,83.0
1429,D3,88.125,2.0,100,83.0
1430,F#3,88.125,2.0,100,83.0
1431,D2,88.15,2.0,100,83.0
1432,A2,88.15,2.0,100,83.0
1433,D3,88.15,2.0,100,83.0
1434,F#3,88.15,2.0,100,83.0
1435,D2,88.25,0.25,100,83.0
1436,G#2,88.5,0.25,100,83.0
1437,B-2,88.55,0.5,100,83.0
1438,D2,88.75,0.25,100,83.0
1439,C2,88.8,0.25,100,83.0
1440,D2,89.0,0.25,100,83.0
1441,E2,89.05,0.5,100,83.0
1442,B-2,89.05,0.375,100,83.0
1443,D2,89.05,0.25,100,83.0
1444,D2,89.25,0.25,100,83.0
1445,C2,89.3,0.25,100,83.0
1446,G2,89.5,0.25,100,83.0
1447,B-2,89.55,0.5,100,83.0
1448,D2,89.75,0.25,100,83.0
1449,D2,90.0,0.25,100,83.0
1450,C2,90.0,2.0,100,83.0
1451,G2,90.0,2.0,100,83.0
1452,C3,90.0,2.0,100,83.0
1453,G3,90.0,2.0,100,83.0
1454,C2,90.0,2.0,100,83.0
1455,G2,90.0,2.0,100,83.0
1456,C3,90.0,2.0,100,83.0
1457,G3,90.0,2.0,100,83.0
1458,F#3,90.017,1983/1000,100,83.0
1459,F#3,90.017,1983/1000,100,83.0
1460,F#3,90.017,1983/1000,100,83.0
1461,D2,90.05,0.5,100,83.0
1462,B-2,90.05,0.5,100,83.0
1463,C2,90.05,0.5,100,83.0
1464,C2,90.075,79/40,100,83.0
1465,G2,90.075,79/40,100,83.0
1466,C3,90.075,79/40,100,83.0
1467,G3,90.075,79/40,100,83.0
1468,C2,90.075,79/40,100,83.0
1469,G2,90.075,79/40,100,83.0
1470,C3,90.075,79/40,100,83.0
1471,G3,90.075,79/40,100,83.0
1472,C2,90.125,979/500,100,83.0
1473,G2,90.125,979/500,100,83.0
1474,C3,90.125,979/500,100,83.0
1475,G3,90.125,979/500,100,83.0
1476,C2,90.15,39/20,100,83.0
1477,G2,90.15,39/20,100,83.0
1478,C3,90.15,39/20,100,83.0
1479,G3,90.15,39/20,100,83.0
1480,D2,90.25,0.25,100,83.0
1481,G#2,90.5,0.25,100,83.0
1482,B-2,90.55,0.5,100,83.0
1483,D2,90.75,0.25,100,83.0
1484,C2,90.8,0.25,100,83.0
1485,D2,91.0,0.25,100,83.0
1486,E2,91.05,0.5,100,83.0
1487,B-2,91.05,0.375,100,83.0
1488,D2,91.05,0.25,100,83.0
1489,D2,91.25,0.25,100,83.0
1490,C2,91.3,0.25,100,83.0
1491,G2,91.5,0.25,100,83.0
1492,B-2,91.55,9/20,100,83.0
1493,D2,91.75,0.25,100,83.0
1494,B-2,92.0,1/20,100,83.0
1495,F#3,92.0,17/1000,100,83.0
1496,F#3,92.0,17/1000,100,83.0
1497,D2,92.0,0.25,100,83.0
1498,F#3,92.0,17/1000,100,83.0
1499,E3,92.0,2.0,100,83.0
1500,B2,92.0,2.0,100,83.0
1501,E2,92.0,2.0,100,83.0
1502,E3,92.0,2.0,100,83.0
1503,B2,92.0,2.0,100,83.0
1504,E2,92.0,2.0,100,83.0
1505,D4,92.017,2.0,100,83.0
1506,D4,92.017,2.0,100,83.0
1507,D4,92.017,2.0,100,83.0
1508,D2,92.017,0.5,100,83.0
1509,B-2,92.017,0.5,100,83.0
1510,C2,92.017,0.5,100,83.0
1511,C2,92.075,1/40,100,83.0
1512,G2,92.075,1/40,100,83.0
1513,C3,92.075,1/40,100,83.0
1514,G3,92.075,1/40,100,83.0
1515,C2,92.075,1/40,100,83.0
1516,G2,92.075,1/40,100,83.0
1517,C3,92.075,1/40,100,83.0
1518,G3,92.075,1/40,100,83.0
1519,E3,92.1,2.0,100,83.0
1520,B2,92.1,2.0,100,83.0
1521,E2,92.1,2.0,100,83.0
1522,E3,92.1,2.0,100,83.0
1523,B2,92.1,2.0,100,83.0
1524,E2,92.1,2.0,100,83.0
1525,C2,92.125,21/500,100,83.0
1526,G2,92.125,21/500,100,83.0
1527,C3,92.125,21/500,100,83.0
1528,G3,92.125,21/500,100,83.0
1529,C2,92.15,1/20,100,83.0
1530,G2,92.15,1/20,100,83.0
1531,C3,92.15,1/20,100,83.0
1532,G3,92.15,1/20,100,83.0
1533,E3,92.167,2.0,100,83.0
1534,B2,92.167,2.0,100,83.0
1535,E2,92.167,2.0,100,83.0
1536,E3,92.2,2.0,100,83.0
1537,B2,92.2,2.0,100,83.0
1538,E2,92.2,2.0,100,83.0
1539,D2,92.25,0.25,100,83.0
1540,G#2,92.5,0.25,100,83.0
1541,B-2,92.517,0.5,100,83.0
1542,D2,92.75,0.25,100,83.0
1543,C2,92.767,0.25,100,83.0
1544,D2,93.0,0.25,100,83.0
1545,E2,93.017,0.5,100,83.0
1546,B-2,93.017,0.375,100,83.0
1547,D2,93.017,0.25,100,83.0
1548,D2,93.25,0.25,100,83.0
1549,C2,93.267,0.25,100,83.0
1550,G2,93.5,0.25,100,83.0
1551,B-2,93.517,0.5,100,83.0
1552,D2,93.75,0.25,100,83.0
1553,D2,94.0,0.25,100,83.0
1554,B2,94.0,2.0,100,83.0
1555,B3,94.0,2.0,100,83.0
1556,F#3,94.0,2.0,100,83.0
1557,B2,94.0,2.0,100,83.0
1558,B3,94.0,2.0,100,83.0
1559,F#3,94.0,2.0,100,83.0
1560,B4,94.017,1983/1000,100,83.0
1561,B4,94.017,1983/1000,100,83.0
1562,B4,94.017,1983/1000,100,83.0
1563,D2,94.017,0.5,100,83.0
1564,B-2,94.017,0.5,100,83.0
1565,C2,94.017,0.5,100,83.0
1566,B2,94.1,79/40,100,83.0
1567,B3,94.1,79/40,100,83.0
1568,F#3,94.1,79/40,100,83.0
1569,B2,94.1,79/40,100,83.0
1570,B3,94.1,79/40,100,83.0
1571,F#3,94.1,79/40,100,83.0
1572,B2,94.167,979/500,100,83.0
1573,B3,94.167,979/500,100,83.0
1574,F#3,94.167,979/500,100,83.0
1575,B2,94.2,39/20,100,83.0
1576,B3,94.2,39/20,100,83.0
1577,F#3,94.2,39/20,100,83.0
1578,D2,94.25,0.25,100,83.0
1579,G#2,94.5,0.25,100,83.0
1580,B-2,94.517,0.5,100,83.0
1581,D2,94.75,0.25,100,83.0
1582,C2,94.767,0.25,100,83.0
1583,D2,95.0,0.25,100,83.0
1584,E2,95.017,0.5,100,83.0
1585,B-2,95.017,0.375,100,83.0
1586,D2,95.017,0.25,100,83.0
1587,D2,95.25,0.25,100,83.0
1588,C2,95.267,0.25,100,83.0
1589,G2,95.5,0.25,100,83.0
1590,B-2,95.517,483/1000,100,83.0
1591,D2,95.75,0.25,100,83.0
1592,B-2,96.0,17/1000,100,83.0
1593,B4,96.0,17/1000,100,83.0
1594,B4,96.0,17/1000,100,83.0
1595,D2,96.0,0.25,100,83.0
1596,B4,96.0,17/1000,100,83.0
1597,G2,96.0,2.0,100,83.0
1598,D3,96.0,2.0,100,83.0
1599,G3,96.0,2.0,100,83.0
1600,G2,96.0,2.0,100,83.0
1601,D3,96.0,2.0,100,83.0
1602,G3,96.0,2.0,100,83.0
1603,A4,96.017,2.0,100,83.0
1604,A4,96.017,2.0,100,83.0
1605,A4,96.017,2.0,100,83.0
1606,D2,96.017,0.5,100,83.0
1607,B-2,96.017,0.5,100,83.0
1608,C2,96.017,0.5,100,83.0
1609,B2,96.1,1/40,100,83.0
1610,B3,96.1,1/40,100,83.0
1611,F#3,96.1,1/40,100,83.0
1612,B2,96.1,1/40,100,83.0
1613,B3,96.1,1/40,100,83.0
1614,F#3,96.1,1/40,100,83.0
1615,G2,96.125,2.0,100,83.0
1616,D3,96.125,2.0,100,83.0
1617,G3,96.125,2.0,100,83.0
1618,G2,96.125,2.0,100,83.0
1619,D3,96.125,2.0,100,83.0
1620,G3,96.125,2.0,100,83.0
1621,B2,96.167,21/500,100,83.0
1622,B3,96.167,21/500,100,83.0
1623,F#3,96.167,21/500,100,83.0
1624,B2,96.2,1/20,100,83.0
1625,B3,96.2,1/20,100,83.0
1626,F#3,96.2,1/20,100,83.0
1627,G2,96.208,2.0,100,83.0
1628,D3,96.208,2.0,100,83.0
1629,G3,96.208,2.0,100,83.0
1630,D2,96.25,0.25,100,83.0
1631,G2,96.25,2.0,100,83.0
1632,D3,96.25,2.0,100,83.0
1633,G3,96.25,2.0,100,83.0
1634,G#2,96.5,0.25,100,83.0
1635,B-2,96.517,0.5,100,83.0
1636,D2,96.75,0.25,100,83.0
1637,C2,96.767,0.25,100,83.0
1638,D2,97.0,0.25,100,83.0
1639,E2,97.017,0.5,100,83.0
1640,B-2,97.017,0.375,100,83.0
1641,D2,97.017,0.25,100,83.0
1642,D2,97.25,0.25,100,83.0
1643,C2,97.267,0.25,100,83.0
1644,G2,97.5,0.25,100,83.0
1645,B-2,97.517,0.5,100,83.0
1646,D2,97.75,0.25,100,83.0
1647,D2,98.0,0.25,100,83.0
1648,C#3,98.0,2.0,100,83.0
1649,F#2,98.0,2.0,100,83.0
1650,F#3,98.0,2.0,100,83.0
1651,C#3,98.0,2.0,100,83.0
1652,F#2,98.0,2.0,100,83.0
1653,F#3,98.0,2.0,100,83.0
1654,E4,98.017,1983/1000,100,83.0
1655,E4,98.017,1983/1000,100,83.0
1656,E4,98.017,1983/1000,100,83.0
1657,D2,98.017,0.5,100,83.0
1658,B-2,98.017,0.5,100,83.0
1659,C2,98.017,0.5,100,83.0
1660,C#3,98.125,79/40,100,83.0
1661,F#2,98.125,79/40,100,83.0
1662,F#3,98.125,79/40,100,83.0
1663,C#3,98.125,79/40,100,83.0
1664,F#2,98.125,79/40,100,83.0
1665,F#3,98.125,79/40,100,83.0
1666,C#3,98.208,979/500,100,83.0
1667,F#2,98.208,979/500,100,83.0
1668,F#3,98.208,979/500,100,83.0
1669,D2,98.25,0.25,100,83.0
1670,C#3,98.25,39/20,100,83.0
1671,F#2,98.25,39/20,100,83.0
1672,F#3,98.25,39/20,100,83.0
1673,G#2,98.5,0.25,100,83.0
1674,B-2,98.517,0.5,100,83.0
1675,D2,98.75,0.25,100,83.0
1676,C2,98.767,0.25,100,83.0
1677,D2,99.0,0.25,100,83.0
1678,E2,99.017,0.5,100,83.0
1679,B-2,99.017,0.375,100,83.0
1680,D2,99.017,0.25,100,83.0
1681,D2,99.25,0.25,100,83.0
1682,C2,99.267,0.25,100,83.0
1683,G2,99.5,0.25,100,83.0
1684,B-2,99.517,483/1000,100,83.0
1685,D2,99.75,0.25,100,83.0
1686,B-2,100.0,17/1000,100,83.0
1687,E4,100.0,17/1000,100,83.0
1688,E4,100.0,17/1000,100,83.0
1689,D2,100.0,0.25,100,83.0
1690,E4,100.0,17/1000,100,83.0
1691,E3,100.0,2.0,100,83.0
1692,B2,100.0,2.0,100,83.0
1693,E2,100.0,2.0,100,83.0
1694,E3,100.0,2.0,100,83.0
1695,B2,100.0,2.0,100,83.0
1696,E2,100.0,2.0,100,83.0
1697,E4,100.017,0.25,100,83.0
1698,E4,100.017,0.25,100,83.0
1699,E4,100.017,0.25,100,83.0
1700,D2,100.017,0.5,100,83.0
1701,B-2,100.017,0.5,100,83.0
1702,C2,100.017,0.5,100,83.0
1703,C#3,100.125,1/40,100,83.0
1704,F#2,100.125,1/40,100,83.0
1705,F#3,100.125,1/40,100,83.0
1706,C#3,100.125,1/40,100,83.0
1707,F#2,100.125,1/40,100,83.0
1708,F#3,100.125,1/40,100,83.0
1709,E3,100.15,2.0,100,83.0
1710,B2,100.15,2.0,100,83.0
1711,E2,100.15,2.0,100,83.0
1712,E3,100.15,2.0,100,83.0
1713,B2,100.15,2.0,100,83.0
1714,E2,100.15,2.0,100,83.0
1715,C#3,100.208,21/500,100,83.0
1716,F#2,100.208,21/500,100,83.0
1717,F#3,100.208,21/500,100,83.0
1718,D2,100.25,0.25,100,83.0
1719,E3,100.25,2.0,100,83.0
1720,B2,100.25,2.0,100,83.0
1721,E2,100.25,2.0,100,83.0
1722,C#3,100.25,1/20,100,83.0
1723,F#2,100.25,1/20,100,83.0
1724,F#3,100.25,1/20,100,83.0
1725,F#4,100.267,0.25,100,83.0
1726,F#4,100.267,0.25,100,83.0
1727,F#4,100.267,0.25,100,83.0
1728,E3,100.3,2.0,100,83.0
1729,B2,100.3,2.0,100,83.0
1730,E2,100.3,2.0,100,83.0
1731,G#2,100.5,0.25,100,83.0
1732,B-2,100.517,0.5,100,83.0
1733,F#4,100.517,1.5,100,83.0
1734,F#4,100.517,1.5,100,83.0
1735,F#4,100.517,1.5,100,83.0
1736,D2,100.75,0.25,100,83.0
1737,C2,100.767,0.25,100,83.0
1738,D2,101.0,0.25,100,83.0
1739,E2,101.017,0.5,100,83.0
1740,B-2,101.017,0.375,100,83.0
1741,D2,101.017,0.25,100,83.0
1742,D2,101.25,0.25,100,83.0
1743,C2,101.267,0.25,100,83.0
1744,G2,101.5,0.25,100,83.0
1745,B-2,101.517,0.5,100,83.0
1746,D2,101.75,0.25,100,83.0
1747,D2,102.0,0.25,100,83.0
1748,B2,102.0,2.0,100,83.0
1749,B3,102.0,2.0,100,83.0
1750,F#3,102.0,2.0,100,83.0
1751,B2,102.0,2.0,100,83.0
1752,B3,102.0,2.0,100,83.0
1753,F#3,102.0,2.0,100,83.0
1754,G4,102.017,1983/1000,100,83.0
1755,G4,102.017,1983/1000,100,83.0
1756,G4,102.017,1983/1000,100,83.0
1757,D2,102.017,0.5,100,83.0
1758,B-2,102.017,0.5,100,83.0
1759,C2,102.017,0.5,100,83.0
1760,B2,102.15,79/40,100,83.0
1761,B3,102.15,79/40,100,83.0
1762,F#3,102.15,79/40,100,83.0
1763,B2,102.15,79/40,100,83.0
1764,B3,102.15,79/40,100,83.0
1765,F#3,102.15,79/40,100,83.0
1766,D2,102.25,0.25,100,83.0
1767,B2,102.25,979/500,100,83.0
1768,B3,102.25,979/500,100,83.0
1769,F#3,102.25,979/500,100,83.0
1770,B2,102.3,39/20,100,83.0
1771,B3,102.3,39/20,100,83.0
1772,F#3,102.3,39/20,100,83.0
1773,G#2,102.5,0.25,100,83.0
1774,B-2,102.517,0.5,100,83.0
1775,D2,102.75,0.25,100,83.0
1776,C2,102.767,0.25,100,83.0
1777,D2,103.0,0.25,100,83.0
1778,E2,103.017,0.5,100,83.0
1779,B-2,103.017,0.375,100,83.0
1780,D2,103.017,0.25,100,83.0
1781,D2,103.25,0.25,100,83.0
1782,C2,103.267,0.25,100,83.0
1783,G2,103.5,0.25,100,83.0
1784,B-2,103.517,483/1000,100,83.0
1785,D2,103.75,0.25,100,83.0
1786,B-2,104.0,17/1000,100,83.0
1787,G4,104.0,17/1000,100,83.0
1788,G4,104.0,17/1000,100,83.0
1789,D2,104.0,0.25,100,83.0
1790,G4,104.0,17/1000,100,83.0
1791,G2,104.0,2.0,100,83.0
1792,D3,104.0,2.0,100,83.0
1793,G3,104.0,2.0,100,83.0
1794,G2,104.0,2.0,100,83.0
1795,D3,104.0,2.0,100,83.0
1796,G3,104.0,2.0,100,83.0
1797,B4,104.017,2.0,100,83.0
1798,B4,104.017,2.0,100,83.0
1799,B4,104.017,2.0,100,83.0
1800,D2,104.017,0.5,100,83.0
1801,B-2,104.017,0.5,100,83.0
1802,C2,104.017,0.5,100,83.0
1803,B2,104.15,1/40,100,83.0
1804,B3,104.15,1/40,100,83.0
1805,F#3,104.15,1/40,100,83.0
1806,B2,104.15,1/40,100,83.0
1807,B3,104.15,1/40,100,83.0
1808,F#3,104.15,1/40,100,83.0
1809,G2,104.175,2.0,100,83.0
1810,D3,104.175,2.0,100,83.0
1811,G3,104.175,2.0,100,83.0
1812,G2,104.175,2.0,100,83.0
1813,D3,104.175,2.0,100,83.0
1814,G3,104.175,2.0,100,83.0
1815,D2,104.25,0.25,100,83.0
1816,B2,104.25,21/500,100,83.0
1817,B3,104.25,21/500,100,83.0
1818,F#3,104.25,21/500,100,83.0
1819,G2,104.292,2.0,100,83.0
1820,D3,104.292,2.0,100,83.0
1821,G3,104.292,2.0,100,83.0
1822,B2,104.3,1/20,100,83.0
1823,B3,104.3,1/20,100,83.0
1824,F#3,104.3,1/20,100,83.0
1825,G2,104.35,2.0,100,83.0
1826,D3,104.35,2.0,100,83.0
1827,G3,104.35,2.0,100,83.0
1828,G#2,104.5,0.25,100,83.0
1829,B-2,104.517,0.5,100,83.0
1830,D2,104.75,0.25,100,83.0
1831,C2,104.767,0.25,100,83.0
1832,D2,105.0,0.25,100,83.0
1833,E2,105.017,0.5,100,83.0
1834,B-2,105.017,0.375,100,83.0
1835,D2,105.017,0.25,100,83.0
1836,D2,105.25,0.25,100,83.0
1837,C2,105.267,0.25,100,83.0
1838,G2,105.5,0.25,100,83.0
1839,B-2,105.517,0.5,100,83.0
1840,D2,105.75,0.25,100,83.0
1841,D2,106.0,0.25,100,83.0
1842,C#3,106.0,2.0,100,83.0
1843,F#2,106.0,2.0,100,83.0
1844,F#3,106.0,2.0,100,83.0
1845,E2,106.0,0.25,100,83.0
1846,B-2,106.0,0.25,100,83.0
1847,C#3,106.0,2.0,100,83.0
1848,F#2,106.0,2.0,100,83.0
1849,F#3,106.0,2.0,100,83.0
1850,A4,106.017,1983/1000,100,83.0
1851,A4,106.017,1983/1000,100,83.0
1852,A4,106.017,1983/1000,100,83.0
1853,C#3,106.175,79/40,100,83.0
1854,F#2,106.175,79/40,100,83.0
1855,F#3,106.175,79/40,100,83.0
1856,C#3,106.175,79/40,100,83.0
1857,F#2,106.175,79/40,100,83.0
1858,F#3,106.175,79/40,100,83.0
1859,A2,106.25,0.25,100,83.0
1860,D2,106.25,0.25,100,83.0
1861,C#3,106.292,979/500,100,83.0
1862,F#2,106.292,979/500,100,83.0
1863,F#3,106.292,979/500,100,83.0
1864,C#3,106.35,39/20,100,83.0
1865,F#2,106.35,39/20,100,83.0
1866,F#3,106.35,39/20,100,83.0
1867,G2,106.5,0.25,100,83.0
1868,G#2,106.5,0.25,100,83.0
1869,D2,106.75,0.25,100,83.0
1870,D2,107.0,0.25,100,83.0
1871,E2,107.008,0.25,100,83.0
1872,B-2,107.008,0.25,100,83.0
1873,B2,107.008,0.25,100,83.0
1874,D2,107.25,0.25,100,83.0
1875,A2,107.258,0.25,100,83.0
1876,G2,107.5,0.25,100,83.0
1877,G2,107.508,0.25,100,83.0
1878,D2,107.75,0.25,100,83.0
1879,F2,107.758,121/500,100,83.0
1880,F2,108.0,1/125,100,83.0
1881,A4,108.0,17/1000,100,83.0
1882,A4,108.0,17/1000,100,83.0
1883,D2,108.0,0.25,100,83.0
1884,A4,108.0,17/1000,100,83.0
1885,A2,108.0,0.25,100,83.0
1886,D2,108.0,0.25,100,83.0
1887,C#3,108.0,0.5,100,83.0
1888,D2,108.0,0.5,100,83.0
1889,B-2,108.0,0.5,100,83.0
1890,C2,108.0,0.5,100,83.0
1891,C#3,108.175,1/40,100,83.0
1892,F#2,108.175,1/40,100,83.0
1893,F#3,108.175,1/40,100,83.0
1894,C#3,108.175,1/40,100,83.0
1895,F#2,108.175,1/40,100,83.0
1896,F#3,108.175,1/40,100,83.0
1897,D2,108.25,0.25,100,83.0
1898,A2,108.25,0.25,100,83.0
1899,D2,108.25,0.25,100,83.0
1900,C#3,108.292,21/500,100,83.0
1901,F#2,108.292,21/500,100,83.0
1902,F#3,108.292,21/500,100,83.0
1903,A2,108.342,0.25,100,83.0
1904,D2,108.342,0.25,100,83.0
1905,C#3,108.35,1/20,100,83.0
1906,F#2,108.35,1/20,100,83.0
1907,F#3,108.35,1/20,100,83.0
1908,A2,108.4,0.25,100,83.0
1909,D2,108.4,0.25,100,83.0
1910,B-2,108.5,0.5,100,83.0
1911,G#2,108.5,0.25,100,83.0
1912,E-3,108.5,0.25,100,83.0
1913,G#2,108.5,0.25,100,83.0
1914,A2,108.592,0.25,100,83.0
1915,D2,108.592,0.25,100,83.0
1916,A2,108.65,0.25,100,83.0
1917,D2,108.65,0.25,100,83.0
1918,C2,108.75,0.25,100,83.0
1919,D2,108.75,0.25,100,83.0
1920,A2,108.75,0.25,100,83.0
1921,D2,108.75,0.25,100,83.0
1922,E-3,108.842,0.25,100,83.0
1923,G#2,108.842,0.25,100,83.0
1924,E-3,108.9,0.25,100,83.0
1925,G#2,108.9,0.25,100,83.0
1926,E2,109.0,0.5,100,83.0
1927,B-2,109.0,0.375,100,83.0
1928,D2,109.0,0.25,100,83.0
1929,D2,109.0,0.25,100,83.0
1930,E-3,109.0,0.25,100,83.0
1931,G#2,109.0,0.25,100,83.0
1932,A2,109.092,0.25,100,83.0
1933,D2,109.092,0.25,100,83.0
1934,A2,109.15,0.25,100,83.0
1935,D2,109.15,0.25,100,83.0
1936,C2,109.25,0.25,100,83.0
1937,D2,109.25,0.25,100,83.0
1938,D3,109.25,0.25,100,83.0
1939,G2,109.25,0.25,100,83.0
1940,E-3,109.342,0.25,100,83.0
1941,G#2,109.342,0.25,100,83.0
1942,E-3,109.4,0.25,100,83.0
1943,G#2,109.4,0.25,100,83.0
1944,B-2,109.5,0.5,100,83.0
1945,G2,109.5,0.25,100,83.0
1946,A2,109.5,0.5,100,83.0
1947,D2,109.5,0.5,100,83.0
1948,D3,109.592,0.25,100,83.0
1949,G2,109.592,0.25,100,83.0
1950,D3,109.65,0.25,100,83.0
1951,G2,109.65,0.25,100,83.0
1952,D2,109.75,0.25,100,83.0
1953,A2,109.842,0.5,100,83.0
1954,D2,109.842,0.5,100,83.0
1955,A2,109.9,0.5,100,83.0
1956,D2,109.9,0.5,100,83.0
1957,D2,110.0,0.25,100,83.0
1958,A2,110.0,0.25,100,83.0
1959,D2,110.0,0.25,100,83.0
1960,D2,110.0,0.5,100,83.0
1961,B-2,110.0,0.5,100,83.0
1962,C2,110.0,0.5,100,83.0
1963,D4,110.0,2.0,100,83.0
1964,D4,110.0,2.0,100,83.0
1965,D4,110.0,2.0,100,83.0
1966,D2,110.25,0.25,100,83.0
1967,A2,110.25,0.25,100,83.0
1968,D2,110.25,0.25,100,83.0
1969,A2,110.342,0.25,100,83.0
1970,D2,110.342,0.25,100,83.0
1971,A2,110.4,0.25,100,83.0
1972,D2,110.4,0.25,100,83.0
1973,B-2,110.5,0.5,100,83.0
1974,G#2,110.5,0.25,100,83.0
1975,E-3,110.5,0.25,100,83.0
1976,G#2,110.5,0.25,100,83.0
1977,A2,110.592,0.25,100,83.0
1978,D2,110.592,0.25,100,83.0
1979,A2,110.65,0.25,100,83.0
1980,D2,110.65,0.25,100,83.0
1981,C2,110.75,0.25,100,83.0
1982,D2,110.75,0.25,100,83.0
1983,A2,110.75,0.25,100,83.0
1984,D2,110.75,0.25,100,83.0
1985,E-3,110.842,0.25,100,83.0
1986,G#2,110.842,0.25,100,83.0
1987,E-3,110.9,0.25,100,83.0
1988,G#2,110.9,0.25,100,83.0
1989,E2,111.0,0.5,100,83.0
1990,B-2,111.0,0.375,100,83.0
1991,D2,111.0,0.25,100,83.0
1992,D2,111.0,0.25,100,83.0
1993,E-3,111.0,0.25,100,83.0
1994,G#2,111.0,0.25,100,83.0
1995,A2,111.092,0.25,100,83.0
1996,D2,111.092,0.25,100,83.0
1997,A2,111.15,0.25,100,83.0
1998,D2,111.15,0.25,100,83.0
1999,C2,111.25,0.25,100,83.0
2000,D2,111.25,0.25,100,83.0
2001,A2,111.25,0.75,100,83.0
2002,D2,111.25,0.75,100,83.0
2003,E-3,111.342,0.25,100,83.0
2004,G#2,111.342,0.25,100,83.0
2005,E-3,111.4,0.25,100,83.0
2006,G#2,111.4,0.25,100,83.0
2007,B-2,111.5,0.5,100,83.0
2008,G2,111.5,0.25,100,83.0
2009,A2,111.592,7/10,100,83.0
2010,D2,111.592,7/10,100,83.0
2011,A2,111.65,7/10,100,83.0
2012,D2,111.65,7/10,100,83.0
2013,D2,111.75,0.25,100,83.0
2014,D2,112.0,0.25,100,83.0
2015,A2,112.0,0.25,100,83.0
2016,D2,112.0,0.25,100,83.0
2017,D2,112.0,0.5,100,83.0
2018,B-2,112.0,0.5,100,83.0
2019,C2,112.0,0.5,100,83.0
2020,E-5,112.0,2.0,100,83.0
2021,E-4,112.0,2.0,100,83.0
2022,D2,112.25,0.25,100,83.0
2023,A2,112.25,0.25,100,83.0
2024,D2,112.25,0.25,100,83.0
2025,A2,112.292,1/20,100,83.0
2026,D2,112.292,1/20,100,83.0
2027,A2,112.342,0.25,100,83.0
2028,D2,112.342,0.25,100,83.0
2029,A2,112.4,1/20,100,83.0
2030,D2,112.4,1/20,100,83.0
2031,A2,112.45,0.25,100,83.0
2032,D2,112.45,0.25,100,83.0
2033,B-2,112.5,0.5,100,83.0
2034,G#2,112.5,0.25,100,83.0
2035,E-3,112.5,0.25,100,83.0
2036,G#2,112.5,0.25,100,83.0
2037,A2,112.592,0.25,100,83.0
2038,D2,112.592,0.25,100,83.0
2039,A2,112.7,0.25,100,83.0
2040,D2,112.7,0.25,100,83.0
2041,C2,112.75,0.25,100,83.0
2042,D2,112.75,0.25,100,83.0
2043,A2,112.75,0.25,100,83.0
2044,D2,112.75,0.25,100,83.0
2045,E-3,112.842,0.25,100,83.0
2046,G#2,112.842,0.25,100,83.0
2047,E-3,112.95,0.25,100,83.0
2048,G#2,112.95,0.25,100,83.0
2049,E2,113.0,0.5,100,83.0
2050,B-2,113.0,0.375,100,83.0
2051,D2,113.0,0.25,100,83.0
2052,D2,113.0,0.25,100,83.0
2053,E-3,113.0,0.25,100,83.0
2054,G#2,113.0,0.25,100,83.0
2055,A2,113.092,0.25,100,83.0
2056,D2,113.092,0.25,100,83.0
2057,A2,113.2,0.25,100,83.0
2058,D2,113.2,0.25,100,83.0
2059,C2,113.25,0.25,100,83.0
2060,D2,113.25,0.25,100,83.0
2061,D3,113.25,0.25,100,83.0
2062,G2,113.25,0.25,100,83.0
2063,E-3,113.342,0.25,100,83.0
2064,G#2,113.342,0.25,100,83.0
2065,E-3,113.45,0.25,100,83.0
2066,G#2,113.45,0.25,100,83.0
2067,B-2,113.5,0.5,100,83.0
2068,G2,113.5,0.25,100,83.0
2069,A2,113.5,0.5,100,83.0
2070,D2,113.5,0.5,100,83.0
2071,D3,113.592,0.25,100,83.0
2072,G2,113.592,0.25,100,83.0
2073,D3,113.7,0.25,100,83.0
2074,G2,113.7,0.25,100,83.0
2075,D2,113.75,0.25,100,83.0
2076,A2,113.842,0.5,100,83.0
2077,D2,113.842,0.5,100,83.0
2078,A2,113.95,0.5,100,83.0
2079,D2,113.95,0.5,100,83.0
2080,C2,114.0,0.25,100,83.0
2081,D2,114.0,0.25,100,83.0
2082,A2,114.0,0.25,100,83.0
2083,D2,114.0,0.25,100,83.0
2084,D2,114.25,0.25,100,83.0
2085,A2,114.25,0.25,100,83.0
2086,D2,114.25,0.25,100,83.0
2087,A2,114.342,0.25,100,83.0
2088,D2,114.342,0.25,100,83.0
2089,A2,114.45,0.25,100,83.0
2090,D2,114.45,0.25,100,83.0
2091,D2,114.5,0.25,100,83.0
2092,E2,114.5,0.5,100,83.0
2093,G#2,114.5,0.25,100,83.0
2094,E-3,114.5,0.25,100,83.0
2095,G#2,114.5,0.25,100,83.0
2096,A2,114.592,0.25,100,83.0
2097,D2,114.592,0.25,100,83.0
2098,A2,114.7,0.25,100,83.0
2099,D2,114.7,0.25,100,83.0
2100,D2,114.75,0.25,100,83.0
2101,A2,114.75,0.25,100,83.0
2102,D2,114.75,0.25,100,83.0
2103,E-3,114.842,0.25,100,83.0
2104,G#2,114.842,0.25,100,83.0
2105,E-3,114.95,0.25,100,83.0
2106,G#2,114.95,0.25,100,83.0
2107,D2,115.0,0.25,100,83.0
2108,E-3,115.0,0.25,100,83.0
2109,G#2,115.0,0.25,100,83.0
2110,A2,115.092,0.25,100,83.0
2111,D2,115.092,0.25,100,83.0
2112,A2,115.2,0.25,100,83.0
2113,D2,115.2,0.25,100,83.0
2114,D2,115.25,0.25,100,83.0
2115,D3,115.25,0.5,100,83.0
2116,G2,115.25,0.5,100,83.0
2117,D2,115.25,0.25,100,83.0
2118,E2,115.25,0.25,100,83.0
2119,E-3,115.342,0.25,100,83.0
2120,G#2,115.342,0.25,100,83.0
2121,E-3,115.45,0.25,100,83.0
2122,G#2,115.45,0.25,100,83.0
2123,E2,115.5,0.25,100,83.0
2124,G2,115.5,0.25,100,83.0
2125,D3,115.592,0.5,100,83.0
2126,G2,115.592,0.5,100,83.0
2127,D3,115.7,0.5,100,83.0
2128,G2,115.7,0.5,100,83.0
2129,E2,115.75,0.25,100,83.0
2130,D2,115.75,0.25,100,83.0
2131,D3,115.75,0.25,100,83.0
2132,G2,115.75,0.25,100,83.0
2133,D2,116.0,0.25,100,83.0
2134,D3,116.0,2.0,100,83.0
2135,D2,116.0,4.0,100,83.0
2136,D2,116.0,4.0,100,83.0
2137,A3,116.05,0.25,100,83.0
2138,D2,116.05,0.5,100,83.0
2139,B-2,116.05,0.5,100,83.0
2140,C2,116.05,0.5,100,83.0
2141,D3,116.092,1/5,100,83.0
2142,G2,116.092,1/5,100,83.0
2143,D3,116.2,1/5,100,83.0
2144,G2,116.2,1/5,100,83.0
2145,D2,116.25,0.25,100,83.0
2146,D3,116.342,1/20,100,83.0
2147,G2,116.342,1/20,100,83.0
2148,D3,116.45,1/20,100,83.0
2149,G2,116.45,1/20,100,83.0
2150,G#2,116.5,0.25,100,83.0
2151,B-2,116.55,0.5,100,83.0
2152,D2,116.75,0.25,100,83.0
2153,C2,116.8,0.25,100,83.0
2154,D2,117.0,0.25,100,83.0
2155,E2,117.05,0.5,100,83.0
2156,B-2,117.05,0.375,100,83.0
2157,D2,117.05,0.25,100,83.0
2158,D2,117.25,0.25,100,83.0
2159,C2,117.3,0.25,100,83.0
2160,G2,117.5,0.25,100,83.0
2161,B-2,117.55,0.5,100,83.0
2162,D2,117.75,0.25,100,83.0
2163,D2,118.0,0.25,100,83.0
2164,D2,118.05,0.5,100,83.0
2165,B-2,118.05,0.5,100,83.0
2166,C2,118.05,0.5,100,83.0
2167,D2,118.25,0.25,100,83.0
2168,G#2,118.5,0.25,100,83.0
2169,B-2,118.55,0.5,100,83.0
2170,D2,118.75,0.25,100,83.0
2171,C2,118.8,0.25,100,83.0
2172,D2,119.0,0.25,100,83.0
2173,E2,119.05,0.5,100,83.0
2174,B-2,119.05,0.375,100,83.0
2175,D2,119.05,0.25,100,83.0
2176,D2,119.25,0.25,100,83.0
2177,C2,119.3,0.25,100,83.0
2178,G2,119.5,0.25,100,83.0
2179,B-2,119.55,9/20,100,83.0
2180,D2,119.75,0.25,100,83.0
2181,B-2,120.0,1/20,100,83.0
2182,D2,120.0,0.25,100,83.0
2183,D2,120.0,0.5,100,83.0
2184,B-2,120.0,0.5,100,83.0
2185,C2,120.0,0.5,100,83.0
2186,D2,120.25,0.25,100,83.0
2187,B-2,120.5,0.5,100,83.0
2188,G#2,120.5,0.25,100,83.0
2189,C2,120.75,0.25,100,83.0
2190,D2,120.75,0.25,100,83.0
2191,E2,121.0,0.5,100,83.0
2192,B-2,121.0,0.375,100,83.0
2193,D2,121.0,0.25,100,83.0
2194,D2,121.0,0.25,100,83.0
2195,C2,121.25,0.25,100,83.0
2196,D2,121.25,0.25,100,83.0
2197,B-2,121.5,0.5,100,83.0
2198,G2,121.5,0.25,100,83.0
2199,D2,121.75,0.25,100,83.0
2200,D2,122.0,0.25,100,83.0
2201,D2,122.0,0.5,100,83.0
2202,B-2,122.0,0.5,100,83.0
2203,C2,122.0,0.5,100,83.0
2204,D2,122.25,0.25,100,83.0
2205,B-2,122.5,0.5,100,83.0
2206,G#2,122.5,0.25,100,83.0
2207,C2,122.75,0.25,100,83.0
2208,D2,122.75,0.25,100,83.0
2209,E2,123.0,0.5,100,83.0
2210,B-2,123.0,0.375,100,83.0
2211,D2,123.0,0.25,100,83.0
2212,D2,123.0,0.25,100,83.0
2213,C2,123.25,0.25,100,83.0
2214,D2,123.25,0.25,100,83.0
2215,B-2,123.5,0.5,100,83.0
2216,G2,123.5,0.25,100,83.0
2217,D2,123.75,0.25,100,83.0
2218,A3,124.0,0.25,100,83.0
2219,D2,124.0,0.25,100,83.0
2220,D3,124.0,2.0,100,83.0
2221,D2,124.0,4.0,100,83.0
2222,D2,124.0,4.0,100,83.0
2223,D2,124.0,0.5,100,83.0
2224,B-2,124.0,0.5,100,83.0
2225,C2,124.0,0.5,100,83.0
2226,D2,124.25,0.25,100,83.0
2227,B-2,124.5,0.5,100,83.0
2228,G#2,124.5,0.25,100,83.0
2229,C2,124.75,0.25,100,83.0
2230,D2,124.75,0.25,100,83.0
2231,E2,125.0,0.5,100,83.0
2232,B-2,125.0,0.375,100,83.0
2233,D2,125.0,0.25,100,83.0
2234,D2,125.0,0.25,100,83.0
2235,C2,125.25,0.25,100,83.0
2236,D2,125.25,0.25,100,83.0
2237,B-2,125.5,0.5,100,83.0
2238,G2,125.5,0.25,100,83.0
2239,D2,125.75,0.25,100,83.0
2240,D2,126.0,0.25,100,83.0
2241,D2,126.0,0.5,100,83.0
2242,B-2,126.0,0.5,100,83.0
2243,C2,126.0,0.5,100,83.0
2244,D2,126.25,0.25,100,83.0
2245,B-2,126.5,0.5,100,83.0
2246,G#2,126.5,0.25,100,83.0
2247,C2,126.75,0.25,100,83.0
2248,D2,126.75,0.25,100,83.0
2249,E2,127.0,0.5,100,83.0
2250,B-2,127.0,0.375,100,83.0
2251,D2,127.0,0.25,100,83.0
2252,D2,127.0,0.25,100,83.0
2253,C2,127.25,0.25,100,83.0
2254,D2,127.25,0.25,100,83.0
2255,B-2,127.5,0.5,100,83.0
2256,G2,127.5,0.25,100,83.0
2257,D2,127.75,0.25,100,83.0
2258,D2,128.0,0.25,100,83.0
2259,D2,128.0,0.5,100,83.0
2260,B-2,128.0,0.5,100,83.0
2261,C2,128.0,0.5,100,83.0
2262,D2,128.25,0.25,100,83.0
2263,B-2,128.5,0.5,100,83.0
2264,G#2,128.5,0.25,100,83.0
2265,C2,128.75,0.25,100,83.0
2266,D2,128.75,0.25,100,83.0
2267,E2,129.0,0.5,100,83.0
2268,B-2,129.0,0.375,100,83.0
2269,D2,129.0,0.25,100,83.0
2270,D2,129.0,0.25,100,83.0
2271,C2,129.25,0.25,100,83.0
2272,D2,129.25,0.25,100,83.0
2273,B-2,129.5,0.5,100,83.0
2274,G2,129.5,0.25,100,83.0
2275,D2,129.75,0.25,100,83.0
2276,D2,130.0,0.25,100,83.0
2277,D2,130.0,0.5,100,83.0
2278,B-2,130.0,0.5,100,83.0
2279,C2,130.0,0.5,100,83.0
2280,D2,130.25,0.25,100,83.0
2281,B-2,130.5,0.5,100,83.0
2282,G#2,130.5,0.25,100,83.0
2283,D2,130.75,0.25,100,83.0
2284,C2,130.75,0.25,100,83.0
2285,C2,130.75,0.25,100,83.0
2286,D2,131.0,0.25,100,83.0
2287,E2,131.0,1.0,100,83.0
2288,D2,131.0,1.0,100,83.0
2289,C2,131.0,1.0,100,83.0
2290,D2,131.25,0.25,100,83.0
2291,G2,131.5,0.25,100,83.0
2292,D2,131.75,0.25,100,83.0
2293,D2,132.0,0.25,100,83.0
2294,D3,132.0,2.0,100,83.0
2295,D2,132.0,4.0,100,83.0
2296,D2,132.0,4.0,100,83.0
2297,A3,132.0,0.5,100,83.0
2298,A3,132.0,0.5,100,83.0
2299,D2,132.0,0.5,100,83.0
2300,C2,132.0,0.5,100,83.0
2301,A2,132.008,0.25,100,83.0
2302,D2,132.008,0.25,100,83.0
2303,D2,132.25,0.25,100,83.0
2304,A2,132.258,0.25,100,83.0
2305,D2,132.258,0.25,100,83.0
2306,A2,132.35,0.25,100,83.0
2307,D2,132.35,0.25,100,83.0
2308,A2,132.458,0.25,100,83.0
2309,D2,132.458,0.25,100,83.0
2310,B-2,132.5,0.5,100,83.0
2311,G#2,132.5,0.25,100,83.0
2312,E-3,132.508,0.25,100,83.0
2313,G#2,132.508,0.25,100,83.0
2314,A2,132.6,0.25,100,83.0
2315,D2,132.6,0.25,100,83.0
2316,A2,132.708,0.25,100,83.0
2317,D2,132.708,0.25,100,83.0
2318,C2,132.75,0.25,100,83.0
2319,D2,132.75,0.25,100,83.0
2320,A2,132.758,0.25,100,83.0
2321,D2,132.758,0.25,100,83.0
2322,E-3,132.85,0.25,100,83.0
2323,G#2,132.85,0.25,100,83.0
2324,E-3,132.958,0.25,100,83.0
2325,G#2,132.958,0.25,100,83.0
2326,E2,133.0,0.5,100,83.0
2327,B-2,133.0,0.375,100,83.0
2328,D2,133.0,0.25,100,83.0
2329,D2,133.0,0.25,100,83.0
2330,E-3,133.008,0.25,100,83.0
2331,G#2,133.008,0.25,100,83.0
2332,A2,133.1,0.25,100,83.0
2333,D2,133.1,0.25,100,83.0
2334,A2,133.208,0.25,100,83.0
2335,D2,133.208,0.25,100,83.0
2336,C2,133.25,0.25,100,83.0
2337,D2,133.25,0.25,100,83.0
2338,D3,133.258,0.25,100,83.0
2339,G2,133.258,0.25,100,83.0
2340,E-3,133.35,0.25,100,83.0
2341,G#2,133.35,0.25,100,83.0
2342,E-3,133.458,0.25,100,83.0
2343,G#2,133.458,0.25,100,83.0
2344,B-2,133.5,0.5,100,83.0
2345,G2,133.5,0.25,100,83.0
2346,A2,133.508,0.5,100,83.0
2347,D2,133.508,0.5,100,83.0
2348,D3,133.6,0.25,100,83.0
2349,G2,133.6,0.25,100,83.0
2350,D3,133.708,0.25,100,83.0
2351,G2,133.708,0.25,100,83.0
2352,D2,133.75,0.25,100,83.0
2353,A2,133.85,0.5,100,83.0
2354,D2,133.85,0.5,100,83.0
2355,A2,133.958,0.5,100,83.0
2356,D2,133.958,0.5,100,83.0
2357,D2,134.0,0.25,100,83.0
2358,D2,134.0,0.5,100,83.0
2359,B-2,134.0,0.5,100,83.0
2360,C2,134.0,0.5,100,83.0
2361,A2,134.008,0.25,100,83.0
2362,D2,134.008,0.25,100,83.0
2363,D2,134.25,0.25,100,83.0
2364,A2,134.258,0.25,100,83.0
2365,D2,134.258,0.25,100,83.0
2366,A2,134.35,0.25,100,83.0
2367,D2,134.35,0.25,100,83.0
2368,A2,134.458,0.25,100,83.0
2369,D2,134.458,0.25,100,83.0
2370,B-2,134.5,0.5,100,83.0
2371,G#2,134.5,0.25,100,83.0
2372,E-3,134.508,0.25,100,83.0
2373,G#2,134.508,0.25,100,83.0
2374,A2,134.6,0.25,100,83.0
2375,D2,134.6,0.25,100,83.0
2376,A2,134.708,0.25,100,83.0
2377,D2,134.708,0.25,100,83.0
2378,C2,134.75,0.25,100,83.0
2379,D2,134.75,0.25,100,83.0
2380,A2,134.758,0.25,100,83.0
2381,D2,134.758,0.25,100,83.0
2382,E-3,134.85,0.25,100,83.0
2383,G#2,134.85,0.25,100,83.0
2384,E-3,134.958,0.25,100,83.0
2385,G#2,134.958,0.25,100,83.0
2386,E2,135.0,0.5,100,83.0
2387,B-2,135.0,0.375,100,83.0
2388,D2,135.0,0.25,100,83.0
2389,D2,135.0,0.25,100,83.0
2390,E-3,135.008,0.25,100,83.0
2391,G#2,135.008,0.25,100,83.0
2392,A2,135.1,0.25,100,83.0
2393,D2,135.1,0.25,100,83.0
2394,A2,135.208,0.25,100,83.0
2395,D2,135.208,0.25,100,83.0
2396,C2,135.25,0.25,100,83.0
2397,D2,135.25,0.25,100,83.0
2398,A2,135.258,371/500,100,83.0
2399,D2,135.258,371/500,100,83.0
2400,E-3,135.35,0.25,100,83.0
2401,G#2,135.35,0.25,100,83.0
2402,E-3,135.458,0.25,100,83.0
2403,G#2,135.458,0.25,100,83.0
2404,B-2,135.5,0.5,100,83.0
2405,G2,135.5,0.25,100,83.0
2406,A2,135.6,371/500,100,83.0
2407,D2,135.6,371/500,100,83.0
2408,A2,135.708,371/500,100,83.0
2409,D2,135.708,371/500,100,83.0
2410,D2,135.75,0.25,100,83.0
2411,D2,136.0,0.25,100,83.0
2412,A2,136.0,1/125,100,83.0
2413,D2,136.0,1/125,100,83.0
2414,D2,136.008,0.5,100,83.0
2415,B-2,136.008,0.5,100,83.0
2416,C2,136.008,0.5,100,83.0
2417,D2,136.25,0.25,100,83.0
2418,A2,136.342,1/125,100,83.0
2419,D2,136.342,1/125,100,83.0
2420,A2,136.45,1/125,100,83.0
2421,D2,136.45,1/125,100,83.0
2422,A2,136.458,0.25,100,83.0
2423,D2,136.458,0.25,100,83.0
2424,G#2,136.5,0.25,100,83.0
2425,B-2,136.508,0.5,100,83.0
2426,A2,136.708,0.25,100,83.0
2427,D2,136.708,0.25,100,83.0
2428,D2,136.75,0.25,100,83.0
2429,C2,136.758,0.25,100,83.0
2430,E-3,136.958,0.25,100,83.0
2431,G#2,136.958,0.25,100,83.0
2432,D2,137.0,0.25,100,83.0
2433,E2,137.008,0.5,100,83.0
2434,B-2,137.008,0.375,100,83.0
2435,D2,137.008,0.25,100,83.0
2436,A2,137.208,0.25,100,83.0
2437,D2,137.208,0.25,100,83.0
2438,D2,137.25,0.25,100,83.0
2439,C2,137.258,0.25,100,83.0
2440,E-3,137.458,0.25,100,83.0
2441,G#2,137.458,0.25,100,83.0
2442,G2,137.5,0.25,100,83.0
2443,B-2,137.508,0.5,100,83.0
2444,D3,137.708,0.25,100,83.0
2445,G2,137.708,0.25,100,83.0
2446,D2,137.75,0.25,100,83.0
2447,A2,137.958,0.5,100,83.0
2448,D2,137.958,0.5,100,83.0
2449,D2,138.0,0.25,100,83.0
2450,D2,138.008,0.5,100,83.0
2451,B-2,138.008,0.5,100,83.0
2452,C2,138.008,0.5,100,83.0
2453,D2,138.25,0.25,100,83.0
2454,A2,138.458,0.25,100,83.0
2455,D2,138.458,0.25,100,83.0
2456,G#2,138.5,0.25,100,83.0
2457,B-2,138.508,0.5,100,83.0
2458,A2,138.708,0.25,100,83.0
2459,D2,138.708,0.25,100,83.0
2460,D2,138.75,0.25,100,83.0
2461,C2,138.758,0.25,100,83.0
2462,E-3,138.958,0.25,100,83.0
2463,G#2,138.958,0.25,100,83.0
2464,D2,139.0,0.25,100,83.0
2465,A3,139.0,0.5,100,83.0
2466,E2,139.0,0.5,100,83.0
2467,B-2,139.008,0.375,100,83.0
2468,D2,139.008,0.25,100,83.0
2469,A2,139.208,0.25,100,83.0
2470,D2,139.208,0.25,100,83.0
2471,D2,139.25,0.25,100,83.0
2472,C2,139.258,0.25,100,83.0
2473,E-3,139.458,0.25,100,83.0
2474,G#2,139.458,0.25,100,83.0
2475,G2,139.5,0.25,100,83.0
2476,B-2,139.508,123/250,100,83.0
2477,A2,139.708,371/500,100,83.0
2478,D2,139.708,371/500,100,83.0
2479,D2,139.75,0.25,100,83.0
2480,B-2,140.0,1/125,100,83.0
2481,D2,140.0,0.25,100,83.0
2482,D3,140.0,2.0,100,83.0
2483,D2,140.0,4.0,100,83.0
2484,D2,140.0,4.0,100,83.0
2485,A3,140.0,0.5,100,83.0
2486,A3,140.0,0.5,100,83.0
2487,D2,140.0,0.5,100,83.0
2488,C2,140.0,0.5,100,83.0
2489,A2,140.008,0.25,100,83.0
2490,D2,140.008,0.25,100,83.0
2491,D2,140.25,0.25,100,83.0
2492,A2,140.258,0.25,100,83.0
2493,D2,140.258,0.25,100,83.0
2494,A2,140.35,0.25,100,83.0
2495,D2,140.35,0.25,100,83.0
2496,A2,140.458,1/125,100,83.0
2497,D2,140.458,1/125,100,83.0
2498,A2,140.467,0.25,100,83.0
2499,D2,140.467,0.25,100,83.0
2500,B-2,140.5,0.5,100,83.0
2501,G#2,140.5,0.25,100,83.0
2502,E-3,140.508,0.25,100,83.0
2503,G#2,140.508,0.25,100,83.0
2504,A2,140.6,0.25,100,83.0
2505,D2,140.6,0.25,100,83.0
2506,A2,140.717,0.25,100,83.0
2507,D2,140.717,0.25,100,83.0
2508,C2,140.75,0.25,100,83.0
2509,D2,140.75,0.25,100,83.0
2510,A2,140.758,0.25,100,83.0
2511,D2,140.758,0.25,100,83.0
2512,E-3,140.85,0.25,100,83.0
2513,G#2,140.85,0.25,100,83.0
2514,E-3,140.967,0.25,100,83.0
2515,G#2,140.967,0.25,100,83.0
2516,E2,141.0,0.5,100,83.0
2517,B-2,141.0,0.375,100,83.0
2518,D2,141.0,0.25,100,83.0
2519,D2,141.0,0.25,100,83.0
2520,E-3,141.008,0.25,100,83.0
2521,G#2,141.008,0.25,100,83.0
2522,A2,141.1,0.25,100,83.0
2523,D2,141.1,0.25,100,83.0
2524,A2,141.217,0.25,100,83.0
2525,D2,141.217,0.25,100,83.0
2526,C2,141.25,0.25,100,83.0
2527,D2,141.25,0.25,100,83.0
2528,D3,141.258,0.25,100,83.0
2529,G2,141.258,0.25,100,83.0
2530,E-3,141.35,0.25,100,83.0
2531,G#2,141.35,0.25,100,83.0
2532,E-3,141.467,0.25,100,83.0
2533,G#2,141.467,0.25,100,83.0
2534,B-2,141.5,0.5,100,83.0
2535,G2,141.5,0.25,100,83.0
2536,A2,141.508,0.5,100,83.0
2537,D2,141.508,0.5,100,83.0
2538,D3,141.6,0.25,100,83.0
2539,G2,141.6,0.25,100,83.0
2540,D3,141.717,0.25,100,83.0
2541,G2,141.717,0.25,100,83.0
2542,D2,141.75,0.25,100,83.0
2543,A2,141.85,0.5,100,83.0
2544,D2,141.85,0.5,100,83.0
2545,A2,141.967,0.5,100,83.0
2546,D2,141.967,0.5,100,83.0
2547,D2,142.0,0.25,100,83.0
2548,D2,142.0,0.5,100,83.0
2549,B-2,142.0,0.5,100,83.0
2550,C2,142.0,0.5,100,83.0
2551,A2,142.008,0.25,100,83.0
2552,D2,142.008,0.25,100,83.0
2553,D2,142.25,0.25,100,83.0
2554,A2,142.258,0.25,100,83.0
2555,D2,142.258,0.25,100,83.0
2556,A2,142.35,0.25,100,83.0
2557,D2,142.35,0.25,100,83.0
2558,A2,142.467,0.25,100,83.0
2559,D2,142.467,0.25,100,83.0
2560,B-2,142.5,0.5,100,83.0
2561,G#2,142.5,0.25,100,83.0
2562,E-3,142.508,0.25,100,83.0
2563,G#2,142.508,0.25,100,83.0
2564,A2,142.6,0.25,100,83.0
2565,D2,142.6,0.25,100,83.0
2566,A2,142.717,0.25,100,83.0
2567,D2,142.717,0.25,100,83.0
2568,C2,142.75,0.25,100,83.0
2569,D2,142.75,0.25,100,83.0
2570,A2,142.758,0.25,100,83.0
2571,D2,142.758,0.25,100,83.0
2572,E-3,142.85,0.25,100,83.0
2573,G#2,142.85,0.25,100,83.0
2574,E-3,142.967,0.25,100,83.0
2575,G#2,142.967,0.25,100,83.0
2576,E2,143.0,0.5,100,83.0
2577,B-2,143.0,0.375,100,83.0
2578,D2,143.0,0.25,100,83.0
2579,D2,143.0,0.25,100,83.0
2580,E-3,143.008,0.25,100,83.0
2581,G#2,143.008,0.25,100,83.0
2582,A2,143.1,0.25,100,83.0
2583,D2,143.1,0.25,100,83.0
2584,A2,143.217,0.25,100,83.0
2585,D2,143.217,0.25,100,83.0
2586,C2,143.25,0.25,100,83.0
2587,D2,143.25,0.25,100,83.0
2588,A2,143.258,371/500,100,83.0
2589,D2,143.258,371/500,100,83.0
2590,E-3,143.35,0.25,100,83.0
2591,G#2,143.35,0.25,100,83.0
2592,E-3,143.467,0.25,100,83.0
2593,G#2,143.467,0.25,100,83.0
2594,B-2,143.5,0.5,100,83.0
2595,G2,143.5,0.25,100,83.0
2596,A2,143.6,371/500,100,83.0
2597,D2,143.6,371/500,100,83.0
2598,A2,143.717,371/500,100,83.0
2599,D2,143.717,371/500,100,83.0
2600,D2,143.75,0.25,100,83.0
2601,C2,143.75,0.25,100,83.0
2602,C2,143.75,0.25,100,83.0
2603,A2,144.0,1/125,100,83.0
2604,D2,144.0,1/125,100,83.0
2605,B1,144.0,4.0,100,83.0
2606,B1,144.0,4.0,100,83.0
2607,D2,144.0,1.0,100,83.0
2608,E2,144.0,1.0,100,83.0
2609,C2,144.0,1.0,100,83.0
2610,A2,144.342,1/125,100,83.0
2611,D2,144.342,1/125,100,83.0
2612,A2,144.467,1/125,100,83.0
2613,D2,144.467,1/125,100,83.0
2614,E2,147.008,0.25,100,83.0
2615,B-2,147.008,0.25,100,83.0
2616,B2,147.008,0.25,100,83.0
2617,A2,147.258,0.25,100,83.0
2618,G2,147.508,0.25,100,83.0
2619,F2,147.758,121/500,100,83.0
2620,F2,148.0,1/125,100,83.0
2621,D2,148.0,0.25,100,83.0
2622,F#3,148.0,2.0,100,83.0
2623,B2,148.0,2.0,100,83.0
2624,B3,148.0,2.0,100,83.0
2625,C#3,148.0,1.0,100,83.0
2626,C#3,148.0,1.0,100,83.0
2627,B3,148.017,2.0,100,83.0
2628,F#3,148.033,2.0,100,83.0
2629,B2,148.033,2.0,100,83.0
2630,B3,148.033,2.0,100,83.0
2631,D2,148.05,0.5,100,83.0
2632,C2,148.05,0.5,100,83.0
2633,B3,148.075,2.0,100,83.0
2634,B3,148.075,2.0,100,83.0
2635,F#3,148.175,2.0,100,83.0
2636,B2,148.175,2.0,100,83.0
2637,B3,148.175,2.0,100,83.0
2638,F#3,148.242,2.0,100,83.0
2639,B2,148.242,2.0,100,83.0
2640,B3,148.242,2.0,100,83.0
2641,D2,148.25,0.25,100,83.0
2642,F#3,148.417,2.0,100,83.0
2643,B2,148.417,2.0,100,83.0
2644,B3,148.417,2.0,100,83.0
2645,G#2,148.5,0.25,100,83.0
2646,F#3,148.542,2.0,100,83.0
2647,B2,148.542,2.0,100,83.0
2648,B3,148.542,2.0,100,83.0
2649,B-2,148.55,0.5,100,83.0
2650,D2,148.75,0.25,100,83.0
2651,C2,148.8,0.25,100,83.0
2652,D2,149.0,0.25,100,83.0
2653,E2,149.05,0.5,100,83.0
2654,B-2,149.05,0.375,100,83.0
2655,D2,149.05,0.25,100,83.0
2656,D2,149.25,0.25,100,83.0
2657,C2,149.3,0.25,100,83.0
2658,G2,149.5,0.25,100,83.0
2659,B-2,149.55,0.5,100,83.0
2660,D2,149.75,0.25,100,83.0
2661,D2,150.0,0.25,100,83.0
2662,E2,150.0,2.0,100,83.0
2663,B2,150.0,2.0,100,83.0
2664,E3,150.0,2.0,100,83.0
2665,B3,150.0,2.0,100,83.0
2666,G3,150.017,1983/1000,100,83.0
2667,E2,150.033,1967/1000,100,83.0
2668,B2,150.033,1967/1000,100,83.0
2669,E3,150.033,1967/1000,100,83.0
2670,B3,150.033,1967/1000,100,83.0
2671,D2,150.05,0.5,100,83.0
2672,B-2,150.05,0.5,100,83.0
2673,C2,150.05,0.5,100,83.0
2674,G3,150.075,77/40,100,83.0
2675,G3,150.075,77/40,100,83.0
2676,E2,150.175,2.0,100,83.0
2677,B2,150.175,2.0,100,83.0
2678,E3,150.175,2.0,100,83.0
2679,B3,150.175,2.0,100,83.0
2680,E2,150.242,1933/1000,100,83.0
2681,B2,150.242,1933/1000,100,83.0
2682,E3,150.242,1933/1000,100,83.0
2683,B3,150.242,1933/1000,100,83.0
2684,D2,150.25,0.25,100,83.0
2685,E2,150.417,77/40,100,83.0
2686,B2,150.417,77/40,100,83.0
2687,E3,150.417,77/40,100,83.0
2688,B3,150.417,77/40,100,83.0
2689,G#2,150.5,0.25,100,83.0
2690,E2,150.542,77/40,100,83.0
2691,B2,150.542,77/40,100,83.0
2692,E3,150.542,77/40,100,83.0
2693,B3,150.542,77/40,100,83.0
2694,B-2,150.55,0.5,100,83.0
2695,D2,150.75,0.25,100,83.0
2696,C2,150.8,0.25,100,83.0
2697,D2,151.0,0.25,100,83.0
2698,E2,151.05,0.5,100,83.0
2699,B-2,151.05,0.375,100,83.0
2700,D2,151.05,0.25,100,83.0
2701,D2,151.25,0.25,100,83.0
2702,C2,151.3,0.25,100,83.0
2703,G2,151.5,0.25,100,83.0
2704,B-2,151.55,9/20,100,83.0
2705,D2,151.75,0.25,100,83.0
2706,B-2,152.0,1/20,100,83.0
2707,G3,152.0,3/40,100,83.0
2708,G3,152.0,17/1000,100,83.0
2709,D2,152.0,0.25,100,83.0
2710,G3,152.0,3/40,100,83.0
2711,D2,152.0,2.0,100,83.0
2712,A2,152.0,2.0,100,83.0
2713,D3,152.0,2.0,100,83.0
2714,F#3,152.0,2.0,100,83.0
2715,E2,152.0,33/1000,100,83.0
2716,B2,152.0,33/1000,100,83.0
2717,E3,152.0,33/1000,100,83.0
2718,B3,152.0,33/1000,100,83.0
2719,F#3,152.017,2.0,100,83.0
2720,D2,152.033,2.0,100,83.0
2721,A2,152.033,2.0,100,83.0
2722,D3,152.033,2.0,100,83.0
2723,F#3,152.033,2.0,100,83.0
2724,D2,152.05,0.5,100,83.0
2725,B-2,152.05,0.5,100,83.0
2726,C2,152.05,0.5,100,83.0
2727,F#3,152.075,2.0,100,83.0
2728,F#3,152.075,2.0,100,83.0
2729,D2,152.175,2.0,100,83.0
2730,A2,152.175,2.0,100,83.0
2731,D3,152.175,2.0,100,83.0
2732,F#3,152.175,2.0,100,83.0
2733,E2,152.175,67/1000,100,83.0
2734,B2,152.175,67/1000,100,83.0
2735,E3,152.175,67/1000,100,83.0
2736,B3,152.175,67/1000,100,83.0
2737,D2,152.242,2.0,100,83.0
2738,A2,152.242,2.0,100,83.0
2739,D3,152.242,2.0,100,83.0
2740,F#3,152.242,2.0,100,83.0
2741,D2,152.25,0.25,100,83.0
2742,E2,152.342,3/40,100,83.0
2743,B2,152.342,3/40,100,83.0
2744,E3,152.342,3/40,100,83.0
2745,B3,152.342,3/40,100,83.0
2746,D2,152.417,2.0,100,83.0
2747,A2,152.417,2.0,100,83.0
2748,D3,152.417,2.0,100,83.0
2749,F#3,152.417,2.0,100,83.0
2750,E2,152.467,3/40,100,83.0
2751,B2,152.467,3/40,100,83.0
2752,E3,152.467,3/40,100,83.0
2753,B3,152.467,3/40,100,83.0
2754,G#2,152.5,0.25,100,83.0
2755,D2,152.542,2.0,100,83.0
2756,A2,152.542,2.0,100,83.0
2757,D3,152.542,2.0,100,83.0
2758,F#3,152.542,2.0,100,83.0
2759,B-2,152.55,0.5,100,83.0
2760,D2,152.75,0.25,100,83.0
2761,C2,152.8,0.25,100,83.0
2762,D2,153.0,0.25,100,83.0
2763,E2,153.05,0.5,100,83.0
2764,B-2,153.05,0.375,100,83.0
2765,D2,153.05,0.25,100,83.0
2766,D2,153.25,0.25,100,83.0
2767,C2,153.3,0.25,100,83.0
2768,G2,153.5,0.25,100,83.0
2769,B-2,153.55,0.5,100,83.0
2770,D2,153.75,0.25,100,83.0
2771,D2,154.0,0.25,100,83.0
2772,C2,154.0,2.0,100,83.0
2773,G2,154.0,2.0,100,83.0
2774,C3,154.0,2.0,100,83.0
2775,G3,154.0,2.0,100,83.0
2776,E3,154.017,1983/1000,100,83.0
2777,C2,154.033,1967/1000,100,83.0
2778,G2,154.033,1967/1000,100,83.0
2779,C3,154.033,1967/1000,100,83.0
2780,G3,154.033,1967/1000,100,83.0
2781,D2,154.05,0.5,100,83.0
2782,B-2,154.05,0.5,100,83.0
2783,C2,154.05,0.5,100,83.0
2784,E3,154.075,77/40,100,83.0
2785,E3,154.075,77/40,100,83.0
2786,C2,154.175,2.0,100,83.0
2787,G2,154.175,2.0,100,83.0
2788,C3,154.175,2.0,100,83.0
2789,G3,154.175,2.0,100,83.0
2790,C2,154.242,1933/1000,100,83.0
2791,G2,154.242,1933/1000,100,83.0
2792,C3,154.242,1933/1000,100,83.0
2793,G3,154.242,1933/1000,100,83.0
2794,D2,154.25,0.25,100,83.0
2795,C2,154.417,77/40,100,83.0
2796,G2,154.417,77/40,100,83.0
2797,C3,154.417,77/40,100,83.0
2798,G3,154.417,77/40,100,83.0
2799,G#2,154.5,0.25,100,83.0
2800,C2,154.542,77/40,100,83.0
2801,G2,154.542,77/40,100,83.0
2802,C3,154.542,77/40,100,83.0
2803,G3,154.542,77/40,100,83.0
2804,B-2,154.55,0.5,100,83.0
2805,D2,154.75,0.25,100,83.0
2806,C2,154.8,0.25,100,83.0
2807,D2,155.0,0.25,100,83.0
2808,E2,155.05,0.5,100,83.0
2809,B-2,155.05,0.375,100,83.0
2810,D2,155.05,0.25,100,83.0
2811,D2,155.25,0.25,100,83.0
2812,C2,155.3,0.25,100,83.0
2813,G2,155.5,0.25,100,83.0
2814,B-2,155.55,9/20,100,83.0
2815,D2,155.75,0.25,100,83.0
2816,C#3,156.0,1.0,100,83.0
2817,B-2,156.0,1/20,100,83.0
2818,E3,156.0,3/40,100,83.0
2819,E3,156.0,17/1000,100,83.0
2820,D2,156.0,0.25,100,83.0
2821,E3,156.0,3/40,100,83.0
2822,F#3,156.0,2.0,100,83.0
2823,B2,156.0,2.0,100,83.0
2824,B3,156.0,2.0,100,83.0
2825,C#3,156.0,0.5,100,83.0
2826,D2,156.0,0.5,100,83.0
2827,C2,156.0,0.5,100,83.0
2828,B3,156.017,2.0,100,83.0
2829,C2,156.033,33/1000,100,83.0
2830,G2,156.033,33/1000,100,83.0
2831,C3,156.033,33/1000,100,83.0
2832,G3,156.033,33/1000,100,83.0
2833,F#3,156.067,2.0,100,83.0
2834,B2,156.067,2.0,100,83.0
2835,B3,156.067,2.0,100,83.0
2836,B3,156.075,2.0,100,83.0
2837,B3,156.075,2.0,100,83.0
2838,F#3,156.175,2.0,100,83.0
2839,B2,156.175,2.0,100,83.0
2840,B3,156.175,2.0,100,83.0
2841,C2,156.242,67/1000,100,83.0
2842,G2,156.242,67/1000,100,83.0
2843,C3,156.242,67/1000,100,83.0
2844,G3,156.242,67/1000,100,83.0
2845,D2,156.25,0.25,100,83.0
2846,F#3,156.308,2.0,100,83.0
2847,B2,156.308,2.0,100,83.0
2848,B3,156.308,2.0,100,83.0
2849,C2,156.417,3/40,100,83.0
2850,G2,156.417,3/40,100,83.0
2851,C3,156.417,3/40,100,83.0
2852,G3,156.417,3/40,100,83.0
2853,F#3,156.492,2.0,100,83.0
2854,B2,156.492,2.0,100,83.0
2855,B3,156.492,2.0,100,83.0
2856,G#2,156.5,0.25,100,83.0
2857,C2,156.542,3/40,100,83.0
2858,G2,156.542,3/40,100,83.0
2859,C3,156.542,3/40,100,83.0
2860,G3,156.542,3/40,100,83.0
2861,B-2,156.55,0.5,100,83.0
2862,F#3,156.617,2.0,100,83.0
2863,B2,156.617,2.0,100,83.0
2864,B3,156.617,2.0,100,83.0
2865,D2,156.75,0.25,100,83.0
2866,C2,156.8,0.25,100,83.0
2867,D2,157.0,0.25,100,83.0
2868,E2,157.05,0.5,100,83.0
2869,B-2,157.05,0.375,100,83.0
2870,D2,157.05,0.25,100,83.0
2871,D2,157.25,0.25,100,83.0
2872,C2,157.3,0.25,100,83.0
2873,G2,157.5,0.25,100,83.0
2874,B-2,157.55,0.5,100,83.0
2875,D2,157.75,0.25,100,83.0
2876,D2,158.0,0.25,100,83.0
2877,E2,158.0,2.0,100,83.0
2878,B2,158.0,2.0,100,83.0
2879,E3,158.0,2.0,100,83.0
2880,B3,158.0,2.0,100,83.0
2881,A3,158.017,1983/1000,100,83.0
2882,D2,158.05,0.5,100,83.0
2883,B-2,158.05,0.5,100,83.0
2884,C2,158.05,0.5,100,83.0
2885,E2,158.067,1967/1000,100,83.0
2886,B2,158.067,1967/1000,100,83.0
2887,E3,158.067,1967/1000,100,83.0
2888,B3,158.067,1967/1000,100,83.0
2889,A3,158.075,77/40,100,83.0
2890,A3,158.075,77/40,100,83.0
2891,E2,158.175,2.0,100,83.0
2892,B2,158.175,2.0,100,83.0
2893,E3,158.175,2.0,100,83.0
2894,B3,158.175,2.0,100,83.0
2895,D2,158.25,0.25,100,83.0
2896,E2,158.308,1933/1000,100,83.0
2897,B2,158.308,1933/1000,100,83.0
2898,E3,158.308,1933/1000,100,83.0
2899,B3,158.308,1933/1000,100,83.0
2900,E2,158.492,77/40,100,83.0
2901,B2,158.492,77/40,100,83.0
2902,E3,158.492,77/40,100,83.0
2903,B3,158.492,77/40,100,83.0
2904,G#2,158.5,0.25,100,83.0
2905,B-2,158.55,0.5,100,83.0
2906,E2,158.617,77/40,100,83.0
2907,B2,158.617,77/40,100,83.0
2908,E3,158.617,77/40,100,83.0
2909,B3,158.617,77/40,100,83.0
2910,D2,158.75,0.25,100,83.0
2911,C2,158.8,0.25,100,83.0
2912,D2,159.0,0.25,100,83.0
2913,E2,159.05,0.5,100,83.0
2914,B-2,159.05,0.375,100,83.0
2915,D2,159.05,0.25,100,83.0
2916,D2,159.25,0.25,100,83.0
2917,C2,159.3,0.25,100,83.0
2918,G2,159.5,0.25,100,83.0
2919,B-2,159.55,9/20,100,83.0
2920,D2,159.75,0.25,100,83.0
2921,B-2,160.0,1/20,100,83.0
2922,A3,160.0,3/40,100,83.0
2923,A3,160.0,17/1000,100,83.0
2924,D2,160.0,0.25,100,83.0
2925,A3,160.0,3/40,100,83.0
2926,D2,160.0,2.0,100,83.0
2927,A2,160.0,2.0,100,83.0
2928,D3,160.0,2.0,100,83.0
2929,F#3,160.0,2.0,100,83.0
2930,G3,160.017,2.0,100,83.0
2931,D2,160.05,0.5,100,83.0
2932,B-2,160.05,0.5,100,83.0
2933,C2,160.05,0.5,100,83.0
2934,E2,160.067,33/1000,100,83.0
2935,B2,160.067,33/1000,100,83.0
2936,E3,160.067,33/1000,100,83.0
2937,B3,160.067,33/1000,100,83.0
2938,G3,160.075,2.0,100,83.0
2939,G3,160.075,2.0,100,83.0
2940,D2,160.1,2.0,100,83.0
2941,A2,160.1,2.0,100,83.0
2942,D3,160.1,2.0,100,83.0
2943,F#3,160.1,2.0,100,83.0
2944,D2,160.175,2.0,100,83.0
2945,A2,160.175,2.0,100,83.0
2946,D3,160.175,2.0,100,83.0
2947,F#3,160.175,2.0,100,83.0
2948,D2,160.25,0.25,100,83.0
2949,E2,160.308,67/1000,100,83.0
2950,B2,160.308,67/1000,100,83.0
2951,E3,160.308,67/1000,100,83.0
2952,B3,160.308,67/1000,100,83.0
2953,D2,160.375,2.0,100,83.0
2954,A2,160.375,2.0,100,83.0
2955,D3,160.375,2.0,100,83.0
2956,F#3,160.375,2.0,100,83.0
2957,E2,160.492,3/40,100,83.0
2958,B2,160.492,3/40,100,83.0
2959,E3,160.492,3/40,100,83.0
2960,B3,160.492,3/40,100,83.0
2961,G#2,160.5,0.25,100,83.0
2962,B-2,160.55,0.5,100,83.0
2963,D2,160.567,2.0,100,83.0
2964,A2,160.567,2.0,100,83.0
2965,D3,160.567,2.0,100,83.0
2966,F#3,160.567,2.0,100,83.0
2967,E2,160.617,3/40,100,83.0
2968,B2,160.617,3/40,100,83.0
2969,E3,160.617,3/40,100,83.0
2970,B3,160.617,3/40,100,83.0
2971,D2,160.692,2.0,100,83.0
2972,A2,160.692,2.0,100,83.0
2973,D3,160.692,2.0,100,83.0
2974,F#3,160.692,2.0,100,83.0
2975,D2,160.75,0.25,100,83.0
2976,C2,160.8,0.25,100,83.0
2977,D2,161.0,0.25,100,83.0
2978,E2,161.05,0.5,100,83.0
2979,B-2,161.05,0.375,100,83.0
2980,D2,161.05,0.25,100,83.0
2981,D2,161.25,0.25,100,83.0
2982,C2,161.3,0.25,100,83.0
2983,G2,161.5,0.25,100,83.0
2984,B-2,161.55,0.5,100,83.0
2985,D2,161.75,0.25,100,83.0
2986,D2,162.0,0.25,100,83.0
2987,C2,162.0,2.0,100,83.0
2988,G2,162.0,2.0,100,83.0
2989,C3,162.0,2.0,100,83.0
2990,G3,162.0,2.0,100,83.0
2991,F#3,162.017,1983/1000,100,83.0
2992,D2,162.05,0.5,100,83.0
2993,B-2,162.05,0.5,100,83.0
2994,C2,162.05,0.5,100,83.0
2995,F#3,162.075,77/40,100,83.0
2996,F#3,162.075,77/40,100,83.0
2997,C2,162.1,1967/1000,100,83.0
2998,G2,162.1,1967/1000,100,83.0
2999,C3,162.1,1967/1000,100,83.0
3000,G3,162.1,1967/1000,100,83.0
3001,C2,162.175,2.0,100,83.0
3002,G2,162.175,2.0,100,83.0
3003,C3,162.175,2.0,100,83.0
3004,G3,162.175,2.0,100,83.0
3005,D2,162.25,0.25,100,83.0
3006,C2,162.375,1933/1000,100,83.0
3007,G2,162.375,1933/1000,100,83.0
3008,C3,162.375,1933/1000,100,83.0
3009,G3,162.375,1933/1000,100,83.0
3010,G#2,162.5,0.25,100,83.0
3011,B-2,162.55,0.5,100,83.0
3012,C2,162.567,77/40,100,83.0
3013,G2,162.567,77/40,100,83.0
3014,C3,162.567,77/40,100,83.0
3015,G3,162.567,77/40,100,83.0
3016,C2,162.692,77/40,100,83.0
3017,G2,162.692,77/40,100,83.0
3018,C3,162.692,77/40,100,83.0
3019,G3,162.692,77/40,100,83.0
3020,D2,162.75,0.25,100,83.0
3021,D2,163.0,0.25,100,83.0
3022,E2,163.008,0.25,100,83.0
3023,B-2,163.008,0.25,100,83.0
3024,B2,163.008,0.25,100,83.0
3025,D2,163.25,0.25,100,83.0
3026,A2,163.258,0.25,100,83.0
3027,G2,163.5,0.25,100,83.0
3028,G2,163.508,0.25,100,83.0
3029,D2,163.75,0.25,100,83.0
3030,F2,163.758,121/500,100,83.0
3031,F2,164.0,1/125,100,83.0
3032,F#3,164.0,3/40,100,83.0
3033,F#3,164.0,17/1000,100,83.0
3034,D2,164.0,0.25,100,83.0
3035,F#3,164.0,3/40,100,83.0
3036,E3,164.0,2.0,100,83.0
3037,B2,164.0,2.0,100,83.0
3038,E2,164.0,2.0,100,83.0
3039,D4,164.017,2.0,100,83.0
3040,C#3,164.017,0.5,100,83.0
3041,D2,164.017,0.5,100,83.0
3042,C#3,164.017,0.5,100,83.0
3043,C2,164.017,0.5,100,83.0
3044,D4,164.075,2.0,100,83.0
3045,D4,164.075,2.0,100,83.0
3046,C2,164.1,33/1000,100,83.0
3047,G2,164.1,33/1000,100,83.0
3048,C3,164.1,33/1000,100,83.0
3049,G3,164.1,33/1000,100,83.0
3050,E3,164.133,2.0,100,83.0
3051,B2,164.133,2.0,100,83.0
3052,E2,164.133,2.0,100,83.0
3053,E3,164.175,2.0,100,83.0
3054,B2,164.175,2.0,100,83.0
3055,E2,164.175,2.0,100,83.0
3056,D2,164.25,0.25,100,83.0
3057,C2,164.375,67/1000,100,83.0
3058,G2,164.375,67/1000,100,83.0
3059,C3,164.375,67/1000,100,83.0
3060,G3,164.375,67/1000,100,83.0
3061,E3,164.442,2.0,100,83.0
3062,B2,164.442,2.0,100,83.0
3063,E2,164.442,2.0,100,83.0
3064,G#2,164.5,0.25,100,83.0
3065,B-2,164.517,0.5,100,83.0
3066,C2,164.567,3/40,100,83.0
3067,G2,164.567,3/40,100,83.0
3068,C3,164.567,3/40,100,83.0
3069,G3,164.567,3/40,100,83.0
3070,E3,164.642,2.0,100,83.0
3071,B2,164.642,2.0,100,83.0
3072,E2,164.642,2.0,100,83.0
3073,C2,164.692,3/40,100,83.0
3074,G2,164.692,3/40,100,83.0
3075,C3,164.692,3/40,100,83.0
3076,G3,164.692,3/40,100,83.0
3077,D2,164.75,0.25,100,83.0
3078,C2,164.767,0.25,100,83.0
3079,E3,164.767,2.0,100,83.0
3080,B2,164.767,2.0,100,83.0
3081,E2,164.767,2.0,100,83.0
3082,D2,165.0,0.25,100,83.0
3083,E2,165.017,0.5,100,83.0
3084,B-2,165.017,0.375,100,83.0
3085,D2,165.017,0.25,100,83.0
3086,D2,165.25,0.25,100,83.0
3087,C2,165.267,0.25,100,83.0
3088,G2,165.5,0.25,100,83.0
3089,B-2,165.517,0.5,100,83.0
3090,D2,165.75,0.25,100,83.0
3091,D2,166.0,0.25,100,83.0
3092,B2,166.0,2.0,100,83.0
3093,B3,166.0,2.0,100,83.0
3094,F#3,166.0,2.0,100,83.0
3095,B4,166.017,1983/1000,100,83.0
3096,D2,166.017,0.5,100,83.0
3097,B-2,166.017,0.5,100,83.0
3098,C2,166.017,0.5,100,83.0
3099,B4,166.075,77/40,100,83.0
3100,B4,166.075,77/40,100,83.0
3101,B2,166.133,1967/1000,100,83.0
3102,B3,166.133,1967/1000,100,83.0
3103,F#3,166.133,1967/1000,100,83.0
3104,B2,166.175,2.0,100,83.0
3105,B3,166.175,2.0,100,83.0
3106,F#3,166.175,2.0,100,83.0
3107,D2,166.25,0.25,100,83.0
3108,B2,166.442,1933/1000,100,83.0
3109,B3,166.442,1933/1000,100,83.0
3110,F#3,166.442,1933/1000,100,83.0
3111,G#2,166.5,0.25,100,83.0
3112,B-2,166.517,0.5,100,83.0
3113,B2,166.642,77/40,100,83.0
3114,B3,166.642,77/40,100,83.0
3115,F#3,166.642,77/40,100,83.0
3116,D2,166.75,0.25,100,83.0
3117,C2,166.767,0.25,100,83.0
3118,B2,166.767,77/40,100,83.0
3119,B3,166.767,77/40,100,83.0
3120,F#3,166.767,77/40,100,83.0
3121,D2,167.0,0.25,100,83.0
3122,E2,167.017,0.5,100,83.0
3123,B-2,167.017,0.375,100,83.0
3124,D2,167.017,0.25,100,83.0
3125,D2,167.25,0.25,100,83.0
3126,C2,167.267,0.25,100,83.0
3127,G2,167.5,0.25,100,83.0
3128,B-2,167.517,483/1000,100,83.0
3129,D2,167.75,0.25,100,83.0
3130,B-2,168.0,17/1000,100,83.0
3131,B4,168.0,3/40,100,83.0
3132,B4,168.0,17/1000,100,83.0
3133,D2,168.0,0.25,100,83.0
3134,B4,168.0,3/40,100,83.0
3135,G2,168.0,2.0,100,83.0
3136,D3,168.0,2.0,100,83.0
3137,G3,168.0,2.0,100,83.0
3138,A4,168.017,2.0,100,83.0
3139,D2,168.017,0.5,100,83.0
3140,B-2,168.017,0.5,100,83.0
3141,C2,168.017,0.5,100,83.0
3142,A4,168.075,2.0,100,83.0
3143,A4,168.075,2.0,100,83.0
3144,B2,168.133,33/1000,100,83.0
3145,B3,168.133,33/1000,100,83.0
3146,F#3,168.133,33/1000,100,83.0
3147,G2,168.167,2.0,100,83.0
3148,D3,168.167,2.0,100,83.0
3149,G3,168.167,2.0,100,83.0
3150,G2,168.175,2.0,100,83.0
3151,D3,168.175,2.0,100,83.0
3152,G3,168.175,2.0,100,83.0
3153,D2,168.25,0.25,100,83.0
3154,B2,168.442,67/1000,100,83.0
3155,B3,168.442,67/1000,100,83.0
3156,F#3,168.442,67/1000,100,83.0
3157,G#2,168.5,0.25,100,83.0
3158,G2,168.508,2.0,100,83.0
3159,D3,168.508,2.0,100,83.0
3160,G3,168.508,2.0,100,83.0
3161,B-2,168.517,0.5,100,83.0
3162,B2,168.642,3/40,100,83.0
3163,B3,168.642,3/40,100,83.0
3164,F#3,168.642,3/40,100,83.0
3165,G2,168.717,2.0,100,83.0
3166,D3,168.717,2.0,100,83.0
3167,G3,168.717,2.0,100,83.0
3168,D2,168.75,0.25,100,83.0
3169,C2,168.767,0.25,100,83.0
3170,B2,168.767,3/40,100,83.0
3171,B3,168.767,3/40,100,83.0
3172,F#3,168.767,3/40,100,83.0
3173,G2,168.842,2.0,100,83.0
3174,D3,168.842,2.0,100,83.0
3175,G3,168.842,2.0,100,83.0
3176,D2,169.0,0.25,100,83.0
3177,E2,169.017,0.5,100,83.0
3178,B-2,169.017,0.375,100,83.0
3179,D2,169.017,0.25,100,83.0
3180,D2,169.25,0.25,100,83.0
3181,C2,169.267,0.25,100,83.0
3182,G2,169.5,0.25,100,83.0
3183,B-2,169.517,0.5,100,83.0
3184,D2,169.75,0.25,100,83.0
3185,D2,170.0,0.25,100,83.0
3186,C#3,170.0,2.0,100,83.0
3187,F#2,170.0,2.0,100,83.0
3188,F#3,170.0,2.0,100,83.0
3189,E4,170.017,1983/1000,100,83.0
3190,D2,170.017,0.5,100,83.0
3191,B-2,170.017,0.5,100,83.0
3192,C2,170.017,0.5,100,83.0
3193,E4,170.075,77/40,100,83.0
3194,E4,170.075,77/40,100,83.0
3195,C#3,170.167,1967/1000,100,83.0
3196,F#2,170.167,1967/1000,100,83.0
3197,F#3,170.167,1967/1000,100,83.0
3198,C#3,170.175,2.0,100,83.0
3199,F#2,170.175,2.0,100,83.0
3200,F#3,170.175,2.0,100,83.0
3201,D2,170.25,0.25,100,83.0
3202,G#2,170.5,0.25,100,83.0
3203,C#3,170.508,1933/1000,100,83.0
3204,F#2,170.508,1933/1000,100,83.0
3205,F#3,170.508,1933/1000,100,83.0
3206,B-2,170.517,0.5,100,83.0
3207,C#3,170.717,77/40,100,83.0
3208,F#2,170.717,77/40,100,83.0
3209,F#3,170.717,77/40,100,83.0
3210,D2,170.75,0.25,100,83.0
3211,C2,170.767,0.25,100,83.0
3212,C#3,170.842,77/40,100,83.0
3213,F#2,170.842,77/40,100,83.0
3214,F#3,170.842,77/40,100,83.0
3215,D2,171.0,0.25,100,83.0
3216,B-2,171.017,0.375,100,83.0
3217,C2,171.25,267/1000,100,83.0
3218,D2,171.25,0.25,100,83.0
3219,D2,171.25,483/1000,100,83.0
3220,C2,171.25,483/1000,100,83.0
3221,G2,171.5,0.25,100,83.0
3222,B-2,171.517,483/1000,100,83.0
3223,D2,171.75,0.25,100,83.0
3224,C#3,172.0,1.0,100,83.0
3225,B-2,172.0,17/1000,100,83.0
3226,E4,172.0,3/40,100,83.0
3227,E4,172.0,17/1000,100,83.0
3228,D2,172.0,0.25,100,83.0
3229,E4,172.0,3/40,100,83.0
3230,E3,172.0,2.0,100,83.0
3231,B2,172.0,2.0,100,83.0
3232,E2,172.0,2.0,100,83.0
3233,E4,172.017,0.25,100,83.0
3234,D2,172.017,0.5,100,83.0
3235,C2,172.017,0.5,100,83.0
3236,E4,172.075,0.25,100,83.0
3237,E4,172.075,0.25,100,83.0
3238,C#3,172.167,33/1000,100,83.0
3239,F#2,172.167,33/1000,100,83.0
3240,F#3,172.167,33/1000,100,83.0
3241,E3,172.175,2.0,100,83.0
3242,B2,172.175,2.0,100,83.0
3243,E2,172.175,2.0,100,83.0
3244,E3,172.2,2.0,100,83.0
3245,B2,172.2,2.0,100,83.0
3246,E2,172.2,2.0,100,83.0
3247,D2,172.25,0.25,100,83.0
3248,F#4,172.267,0.25,100,83.0
3249,F#4,172.325,0.25,100,83.0
3250,F#4,172.325,0.25,100,83.0
3251,G#2,172.5,0.25,100,83.0
3252,C#3,172.508,67/1000,100,83.0
3253,F#2,172.508,67/1000,100,83.0
3254,F#3,172.508,67/1000,100,83.0
3255,B-2,172.517,0.5,100,83.0
3256,F#4,172.517,1.5,100,83.0
3257,F#4,172.575,1.5,100,83.0
3258,F#4,172.575,1.5,100,83.0
3259,E3,172.575,2.0,100,83.0
3260,B2,172.575,2.0,100,83.0
3261,E2,172.575,2.0,100,83.0
3262,C#3,172.717,3/40,100,83.0
3263,F#2,172.717,3/40,100,83.0
3264,F#3,172.717,3/40,100,83.0
3265,D2,172.75,0.25,100,83.0
3266,C2,172.767,0.25,100,83.0
3267,E3,172.792,2.0,100,83.0
3268,B2,172.792,2.0,100,83.0
3269,E2,172.792,2.0,100,83.0
3270,C#3,172.842,3/40,100,83.0
3271,F#2,172.842,3/40,100,83.0
3272,F#3,172.842,3/40,100,83.0
3273,E3,172.917,2.0,100,83.0
3274,B2,172.917,2.0,100,83.0
3275,E2,172.917,2.0,100,83.0
3276,D2,173.0,0.25,100,83.0
3277,E2,173.017,0.5,100,83.0
3278,B-2,173.017,0.375,100,83.0
3279,D2,173.017,0.25,100,83.0
3280,D2,173.25,0.25,100,83.0
3281,C2,173.267,0.25,100,83.0
3282,G2,173.5,0.25,100,83.0
3283,B-2,173.517,0.5,100,83.0
3284,D2,173.75,0.25,100,83.0
3285,D2,174.0,0.25,100,83.0
3286,B2,174.0,2.0,100,83.0
3287,B3,174.0,2.0,100,83.0
3288,F#3,174.0,2.0,100,83.0
3289,G4,174.017,1983/1000,100,83.0
3290,D2,174.017,0.5,100,83.0
3291,B-2,174.017,0.5,100,83.0
3292,C2,174.017,0.5,100,83.0
3293,G4,174.075,77/40,100,83.0
3294,G4,174.075,77/40,100,83.0
3295,B2,174.175,2.0,100,83.0
3296,B3,174.175,2.0,100,83.0
3297,F#3,174.175,2.0,100,83.0
3298,B2,174.2,1967/1000,100,83.0
3299,B3,174.2,1967/1000,100,83.0
3300,F#3,174.2,1967/1000,100,83.0
3301,D2,174.25,0.25,100,83.0
3302,G#2,174.5,0.25,100,83.0
3303,B-2,174.517,0.5,100,83.0
3304,B2,174.575,1933/1000,100,83.0
3305,B3,174.575,1933/1000,100,83.0
3306,F#3,174.575,1933/1000,100,83.0
3307,D2,174.75,0.25,100,83.0
3308,C2,174.767,0.25,100,83.0
3309,B2,174.792,77/40,100,83.0
3310,B3,174.792,77/40,100,83.0
3311,F#3,174.792,77/40,100,83.0
3312,B2,174.917,77/40,100,83.0
3313,B3,174.917,77/40,100,83.0
3314,F#3,174.917,77/40,100,83.0
3315,D2,175.0,0.25,100,83.0
3316,E2,175.017,0.5,100,83.0
3317,B-2,175.017,0.375,100,83.0
3318,D2,175.017,0.25,100,83.0
3319,D2,175.25,0.25,100,83.0
3320,C2,175.267,0.25,100,83.0
3321,G2,175.5,0.25,100,83.0
3322,B-2,175.517,483/1000,100,83.0
3323,D2,175.75,0.25,100,83.0
3324,B-2,176.0,17/1000,100,83.0
3325,G4,176.0,3/40,100,83.0
3326,G4,176.0,17/1000,100,83.0
3327,D2,176.0,0.25,100,83.0
3328,G4,176.0,3/40,100,83.0
3329,G2,176.0,2.0,100,83.0
3330,D3,176.0,2.0,100,83.0
3331,G3,176.0,2.0,100,83.0
3332,B4,176.017,2.0,100,83.0
3333,D2,176.017,0.5,100,83.0
3334,B-2,176.017,0.5,100,83.0
3335,C2,176.017,0.5,100,83.0
3336,B4,176.075,2.0,100,83.0
3337,B4,176.075,2.0,100,83.0
3338,G2,176.175,2.0,100,83.0
3339,D3,176.175,2.0,100,83.0
3340,G3,176.175,2.0,100,83.0
3341,B2,176.2,33/1000,100,83.0
3342,B3,176.2,33/1000,100,83.0
3343,F#3,176.2,33/1000,100,83.0
3344,G2,176.233,2.0,100,83.0
3345,D3,176.233,2.0,100,83.0
3346,G3,176.233,2.0,100,83.0
3347,D2,176.25,0.25,100,83.0
3348,G#2,176.5,0.25,100,83.0
3349,B-2,176.517,0.5,100,83.0
3350,B2,176.575,67/1000,100,83.0
3351,B3,176.575,67/1000,100,83.0
3352,F#3,176.575,67/1000,100,83.0
3353,G2,176.642,2.0,100,83.0
3354,D3,176.642,2.0,100,83.0
3355,G3,176.642,2.0,100,83.0
3356,D2,176.75,0.25,100,83.0
3357,C2,176.767,0.25,100,83.0
3358,B2,176.792,3/40,100,83.0
3359,B3,176.792,3/40,100,83.0
3360,F#3,176.792,3/40,100,83.0
3361,G2,176.867,2.0,100,83.0
3362,D3,176.867,2.0,100,83.0
3363,G3,176.867,2.0,100,83.0
3364,B2,176.917,3/40,100,83.0
3365,B3,176.917,3/40,100,83.0
3366,F#3,176.917,3/40,100,83.0
3367,G2,176.992,2.0,100,83.0
3368,D3,176.992,2.0,100,83.0
3369,G3,176.992,2.0,100,83.0
3370,D2,177.0,0.25,100,83.0
3371,E2,177.017,0.5,100,83.0
3372,B-2,177.017,0.375,100,83.0
3373,D2,177.017,0.25,100,83.0
3374,D2,177.25,0.25,100,83.0
3375,C2,177.267,0.25,100,83.0
3376,G2,177.5,0.25,100,83.0
3377,B-2,177.517,0.5,100,83.0
3378,D2,177.75,0.25,100,83.0
3379,D2,178.0,0.25,100,83.0
3380,C#3,178.0,2.0,100,83.0
3381,F#2,178.0,2.0,100,83.0
3382,F#3,178.0,2.0,100,83.0
3383,C2,178.0,0.25,100,83.0
3384,D2,178.0,0.25,100,83.0
3385,A4,178.017,1983/1000,100,83.0
3386,A4,178.075,77/40,100,83.0
3387,A4,178.075,77/40,100,83.0
3388,C#3,178.175,2.0,100,83.0
3389,F#2,178.175,2.0,100,83.0
3390,F#3,178.175,2.0,100,83.0
3391,C#3,178.233,1967/1000,100,83.0
3392,F#2,178.233,1967/1000,100,83.0
3393,F#3,178.233,1967/1000,100,83.0
3394,E2,178.25,0.25,100,83.0
3395,D2,178.25,0.25,100,83.0
3396,E2,178.5,0.25,100,83.0
3397,G#2,178.5,0.25,100,83.0
3398,C#3,178.642,1933/1000,100,83.0
3399,F#2,178.642,1933/1000,100,83.0
3400,F#3,178.642,1933/1000,100,83.0
3401,E2,178.75,0.25,100,83.0
3402,D2,178.75,0.25,100,83.0
3403,C#3,178.867,77/40,100,83.0
3404,F#2,178.867,77/40,100,83.0
3405,F#3,178.867,77/40,100,83.0
3406,C#3,178.992,77/40,100,83.0
3407,F#2,178.992,77/40,100,83.0
3408,F#3,178.992,77/40,100,83.0
3409,D2,179.0,0.25,100,83.0
3410,E2,179.008,0.25,100,83.0
3411,G2,179.25,0.25,100,83.0
3412,D2,179.25,0.25,100,83.0
3413,G2,179.5,0.25,100,83.0
3414,G2,179.5,0.25,100,83.0
3415,G2,179.75,0.25,100,83.0
3416,D2,179.75,0.25,100,83.0
3417,D2,179.95,1/20,100,83.0
3418,A4,180.0,3/40,100,83.0
3419,A4,180.0,17/1000,100,83.0
3420,D2,180.0,1/5,100,83.0
3421,A4,180.0,3/40,100,83.0
3422,C#3,180.0,1.0,100,83.0
3423,C#3,180.0,1.0,100,83.0
3424,F#3,180.042,2.0,100,83.0
3425,B2,180.042,2.0,100,83.0
3426,B3,180.042,2.0,100,83.0
3427,B3,180.05,2.0,100,83.0
3428,D2,180.05,0.5,100,83.0
3429,C2,180.05,0.5,100,83.0
3430,B3,180.058,2.0,100,83.0
3431,B3,180.067,2.0,100,83.0
3432,D2,180.2,0.25,100,83.0
3433,F#3,180.208,2.0,100,83.0
3434,B2,180.208,2.0,100,83.0
3435,B3,180.208,2.0,100,83.0
3436,C#3,180.233,33/1000,100,83.0
3437,F#2,180.233,33/1000,100,83.0
3438,F#3,180.233,33/1000,100,83.0
3439,F#3,180.283,2.0,100,83.0
3440,B2,180.283,2.0,100,83.0
3441,B3,180.283,2.0,100,83.0
3442,G#2,180.45,0.25,100,83.0
3443,B4,180.5,0.25,100,83.0
3444,B-2,180.55,0.5,100,83.0
3445,C#3,180.642,67/1000,100,83.0
3446,F#2,180.642,67/1000,100,83.0
3447,F#3,180.642,67/1000,100,83.0
3448,F#3,180.658,2.0,100,83.0
3449,B2,180.658,2.0,100,83.0
3450,B3,180.658,2.0,100,83.0
3451,D2,180.7,0.25,100,83.0
3452,C#5,180.75,0.25,100,83.0
3453,C2,180.8,0.25,100,83.0
3454,C#3,180.867,3/40,100,83.0
3455,F#2,180.867,3/40,100,83.0
3456,F#3,180.867,3/40,100,83.0
3457,F#3,180.908,2.0,100,83.0
3458,B2,180.908,2.0,100,83.0
3459,B3,180.908,2.0,100,83.0
3460,D2,180.95,0.25,100,83.0
3461,C#3,180.992,3/40,100,83.0
3462,F#2,180.992,3/40,100,83.0
3463,F#3,180.992,3/40,100,83.0
3464,D5,181.0,1.0,100,83.0
3465,F#3,181.033,2.0,100,83.0
3466,B2,181.033,2.0,100,83.0
3467,B3,181.033,2.0,100,83.0
3468,E2,181.05,0.5,100,83.0
3469,B-2,181.05,0.375,100,83.0
3470,D2,181.05,0.25,100,83.0
3471,D2,181.2,0.25,100,83.0
3472,C2,181.3,0.25,100,83.0
3473,G2,181.45,0.25,100,83.0
3474,B-2,181.55,0.5,100,83.0
3475,D2,181.7,0.25,100,83.0
3476,D2,181.95,0.25,100,83.0
3477,F#5,182.0,1.0,100,83.0
3478,E2,182.042,979/500,100,83.0
3479,B2,182.042,979/500,100,83.0
3480,E3,182.042,979/500,100,83.0
3481,B3,182.042,979/500,100,83.0
3482,G3,182.05,39/20,100,83.0
3483,D2,182.05,0.5,100,83.0
3484,B-2,182.05,0.5,100,83.0
3485,C2,182.05,0.5,100,83.0
3486,G3,182.058,971/500,100,83.0
3487,G3,182.067,1933/1000,100,83.0
3488,D2,182.2,0.25,100,83.0
3489,E2,182.208,1967/1000,100,83.0
3490,B2,182.208,1967/1000,100,83.0
3491,E3,182.208,1967/1000,100,83.0
3492,B3,182.208,1967/1000,100,83.0
3493,E2,182.283,39/20,100,83.0
3494,B2,182.283,39/20,100,83.0
3495,E3,182.283,39/20,100,83.0
3496,B3,182.283,39/20,100,83.0
3497,G#2,182.45,0.25,100,83.0
3498,B-2,182.55,0.5,100,83.0
3499,E2,182.658,1983/1000,100,83.0
3500,B2,182.658,1983/1000,100,83.0
3501,E3,182.658,1983/1000,100,83.0
3502,B3,182.658,1983/1000,100,83.0
3503,D2,182.7,0.25,100,83.0
3504,C2,182.8,0.25,100,83.0
3505,E2,182.908,979/500,100,83.0
3506,B2,182.908,979/500,100,83.0
3507,E3,182.908,979/500,100,83.0
3508,B3,182.908,979/500,100,83.0
3509,D2,182.95,0.25,100,83.0
3510,B4,183.0,1.0,100,83.0
3511,E2,183.033,979/500,100,83.0
3512,B2,183.033,979/500,100,83.0
3513,E3,183.033,979/500,100,83.0
3514,B3,183.033,979/500,100,83.0
3515,E2,183.05,0.5,100,83.0
3516,B-2,183.05,0.375,100,83.0
3517,D2,183.05,0.25,100,83.0
3518,D2,183.2,0.25,100,83.0
3519,C2,183.3,0.25,100,83.0
3520,G2,183.45,0.25,100,83.0
3521,B-2,183.55,9/20,100,83.0
3522,D2,183.7,0.25,100,83.0
3523,D2,183.95,1/20,100,83.0
3524,B-2,184.0,1/20,100,83.0
3525,G3,184.0,67/1000,100,83.0
3526,G3,184.0,1/20,100,83.0
3527,D2,184.0,1/5,100,83.0
3528,G3,184.0,29/500,100,83.0
3529,E2,184.0,21/500,100,83.0
3530,B2,184.0,21/500,100,83.0
3531,E3,184.0,21/500,100,83.0
3532,B3,184.0,21/500,100,83.0
3533,D2,184.042,2.0,100,83.0
3534,A2,184.042,2.0,100,83.0
3535,D3,184.042,2.0,100,83.0
3536,F#3,184.042,2.0,100,83.0
3537,F#3,184.05,2.0,100,83.0
3538,D2,184.05,0.5,100,83.0
3539,B-2,184.05,0.5,100,83.0
3540,C2,184.05,0.5,100,83.0
3541,F#3,184.058,2.0,100,83.0
3542,F#3,184.067,2.0,100,83.0
3543,E2,184.175,33/1000,100,83.0
3544,B2,184.175,33/1000,100,83.0
3545,E3,184.175,33/1000,100,83.0
3546,B3,184.175,33/1000,100,83.0
3547,D2,184.2,0.25,100,83.0
3548,D2,184.208,2.0,100,83.0
3549,A2,184.208,2.0,100,83.0
3550,D3,184.208,2.0,100,83.0
3551,F#3,184.208,2.0,100,83.0
3552,E2,184.233,1/20,100,83.0
3553,B2,184.233,1/20,100,83.0
3554,E3,184.233,1/20,100,83.0
3555,B3,184.233,1/20,100,83.0
3556,D2,184.283,2.0,100,83.0
3557,A2,184.283,2.0,100,83.0
3558,D3,184.283,2.0,100,83.0
3559,F#3,184.283,2.0,100,83.0
3560,G#2,184.45,0.25,100,83.0
3561,B-2,184.55,0.5,100,83.0
3562,E2,184.658,17/1000,100,83.0
3563,B2,184.658,17/1000,100,83.0
3564,E3,184.658,17/1000,100,83.0
3565,B3,184.658,17/1000,100,83.0
3566,D2,184.675,2.0,100,83.0
3567,A2,184.675,2.0,100,83.0
3568,D3,184.675,2.0,100,83.0
3569,F#3,184.675,2.0,100,83.0
3570,D2,184.7,0.25,100,83.0
3571,C2,184.8,0.25,100,83.0
3572,E2,184.908,21/500,100,83.0
3573,B2,184.908,21/500,100,83.0
3574,E3,184.908,21/500,100,83.0
3575,B3,184.908,21/500,100,83.0
3576,D2,184.95,0.25,100,83.0
3577,D2,184.95,2.0,100,83.0
3578,A2,184.95,2.0,100,83.0
3579,D3,184.95,2.0,100,83.0
3580,F#3,184.95,2.0,100,83.0
3581,E2,185.033,21/500,100,83.0
3582,B2,185.033,21/500,100,83.0
3583,E3,185.033,21/500,100,83.0
3584,B3,185.033,21/500,100,83.0
3585,E2,185.05,0.5,100,83.0
3586,B-2,185.05,0.375,100,83.0
3587,D2,185.05,0.25,100,83.0
3588,D2,185.075,2.0,100,83.0
3589,A2,185.075,2.0,100,83.0
3590,D3,185.075,2.0,100,83.0
3591,F#3,185.075,2.0,100,83.0
3592,D2,185.2,0.25,100,83.0
3593,C2,185.3,0.25,100,83.0
3594,G2,185.45,0.25,100,83.0
3595,B-2,185.55,0.5,100,83.0
3596,D2,185.7,0.25,100,83.0
3597,D2,185.95,0.25,100,83.0
3598,C2,186.042,979/500,100,83.0
3599,G2,186.042,979/500,100,83.0
3600,C3,186.042,979/500,100,83.0
3601,G3,186.042,979/500,100,83.0
3602,E3,186.05,39/20,100,83.0
3603,D2,186.05,0.5,100,83.0
3604,B-2,186.05,0.5,100,83.0
3605,C2,186.05,0.5,100,83.0
3606,E3,186.058,971/500,100,83.0
3607,E3,186.067,1933/1000,100,83.0
3608,D2,186.2,0.25,100,83.0
3609,C2,186.208,1967/1000,100,83.0
3610,G2,186.208,1967/1000,100,83.0
3611,C3,186.208,1967/1000,100,83.0
3612,G3,186.208,1967/1000,100,83.0
3613,C2,186.283,39/20,100,83.0
3614,G2,186.283,39/20,100,83.0
3615,C3,186.283,39/20,100,83.0
3616,G3,186.283,39/20,100,83.0
3617,G#2,186.45,0.25,100,83.0
3618,B-2,186.55,0.5,100,83.0
3619,C2,186.675,1983/1000,100,83.0
3620,G2,186.675,1983/1000,100,83.0
3621,C3,186.675,1983/1000,100,83.0
3622,G3,186.675,1983/1000,100,83.0
3623,D2,186.7,0.25,100,83.0
3624,C2,186.8,0.25,100,83.0
3625,D2,186.95,0.25,100,83.0
3626,C2,186.95,979/500,100,83.0
3627,G2,186.95,979/500,100,83.0
3628,C3,186.95,979/500,100,83.0
3629,G3,186.95,979/500,100,83.0
3630,E2,187.05,0.5,100,83.0
3631,B-2,187.05,0.375,100,83.0
3632,D2,187.05,0.25,100,83.0
3633,C2,187.075,979/500,100,83.0
3634,G2,187.075,979/500,100,83.0
3635,C3,187.075,979/500,100,83.0
3636,G3,187.075,979/500,100,83.0
3637,D2,187.2,0.25,100,83.0
3638,C2,187.3,0.25,100,83.0
3639,G2,187.45,0.25,100,83.0
3640,B-2,187.55,9/20,100,83.0
3641,D2,187.7,0.25,100,83.0
3642,D2,187.95,1/20,100,83.0
3643,C#3,188.0,1.0,100,83.0
3644,B-2,188.0,1/20,100,83.0
3645,E3,188.0,67/1000,100,83.0
3646,E3,188.0,1/20,100,83.0
3647,D2,188.0,1/5,100,83.0
3648,E3,188.0,29/500,100,83.0
3649,C#3,188.0,0.5,100,83.0
3650,D2,188.0,0.5,100,83.0
3651,C2,188.0,0.5,100,83.0
3652,C2,188.042,21/500,100,83.0
3653,G2,188.042,21/500,100,83.0
3654,C3,188.042,21/500,100,83.0
3655,G3,188.042,21/500,100,83.0
3656,B3,188.05,2.0,100,83.0
3657,B3,188.058,2.0,100,83.0
3658,B3,188.067,2.0,100,83.0
3659,F#3,188.083,2.0,100,83.0
3660,B2,188.083,2.0,100,83.0
3661,B3,188.083,2.0,100,83.0
3662,D2,188.2,0.25,100,83.0
3663,C2,188.208,33/1000,100,83.0
3664,G2,188.208,33/1000,100,83.0
3665,C3,188.208,33/1000,100,83.0
3666,G3,188.208,33/1000,100,83.0
3667,F#3,188.242,2.0,100,83.0
3668,B2,188.242,2.0,100,83.0
3669,B3,188.242,2.0,100,83.0
3670,C2,188.283,1/20,100,83.0
3671,G2,188.283,1/20,100,83.0
3672,C3,188.283,1/20,100,83.0
3673,G3,188.283,1/20,100,83.0
3674,F#3,188.333,2.0,100,83.0
3675,B2,188.333,2.0,100,83.0
3676,B3,188.333,2.0,100,83.0
3677,G#2,188.45,0.25,100,83.0
3678,B4,188.5,0.25,100,83.0
3679,B-2,188.55,0.5,100,83.0
3680,C2,188.675,17/1000,100,83.0
3681,G2,188.675,17/1000,100,83.0
3682,C3,188.675,17/1000,100,83.0
3683,G3,188.675,17/1000,100,83.0
3684,F#3,188.692,2.0,100,83.0
3685,B2,188.692,2.0,100,83.0
3686,B3,188.692,2.0,100,83.0
3687,D2,188.7,0.25,100,83.0
3688,C#5,188.75,0.25,100,83.0
3689,C2,188.8,0.25,100,83.0
3690,D2,188.95,0.25,100,83.0
3691,C2,188.95,21/500,100,83.0
3692,G2,188.95,21/500,100,83.0
3693,C3,188.95,21/500,100,83.0
3694,G3,188.95,21/500,100,83.0
3695,F#3,188.992,2.0,100,83.0
3696,B2,188.992,2.0,100,83.0
3697,B3,188.992,2.0,100,83.0
3698,D5,189.0,1.0,100,83.0
3699,E2,189.05,0.5,100,83.0
3700,B-2,189.05,0.375,100,83.0
3701,D2,189.05,0.25,100,83.0
3702,C2,189.075,21/500,100,83.0
3703,G2,189.075,21/500,100,83.0
3704,C3,189.075,21/500,100,83.0
3705,G3,189.075,21/500,100,83.0
3706,F#3,189.117,2.0,100,83.0
3707,B2,189.117,2.0,100,83.0
3708,B3,189.117,2.0,100,83.0
3709,D2,189.2,0.25,100,83.0
3710,C2,189.3,0.25,100,83.0
3711,G2,189.45,0.25,100,83.0
3712,B-2,189.55,0.5,100,83.0
3713,D2,189.7,0.25,100,83.0
3714,D2,189.95,0.25,100,83.0
3715,F#5,190.0,1.0,100,83.0
3716,A3,190.05,39/20,100,83.0
3717,D2,190.05,0.5,100,83.0
3718,B-2,190.05,0.5,100,83.0
3719,C2,190.05,0.5,100,83.0
3720,A3,190.058,971/500,100,83.0
3721,A3,190.067,1933/1000,100,83.0
3722,E2,190.083,979/500,100,83.0
3723,B2,190.083,979/500,100,83.0
3724,E3,190.083,979/500,100,83.0
3725,B3,190.083,979/500,100,83.0
3726,D2,190.2,0.25,100,83.0
3727,E2,190.242,1967/1000,100,83.0
3728,B2,190.242,1967/1000,100,83.0
3729,E3,190.242,1967/1000,100,83.0
3730,B3,190.242,1967/1000,100,83.0
3731,E2,190.333,39/20,100,83.0
3732,B2,190.333,39/20,100,83.0
3733,E3,190.333,39/20,100,83.0
3734,B3,190.333,39/20,100,83.0
3735,G#2,190.45,0.25,100,83.0
3736,B-2,190.55,0.5,100,83.0
3737,E2,190.692,1983/1000,100,83.0
3738,B2,190.692,1983/1000,100,83.0
3739,E3,190.692,1983/1000,100,83.0
3740,B3,190.692,1983/1000,100,83.0
3741,D2,190.7,0.25,100,83.0
3742,C2,190.8,0.25,100,83.0
3743,D2,190.95,0.25,100,83.0
3744,E2,190.992,979/500,100,83.0
3745,B2,190.992,979/500,100,83.0
3746,E3,190.992,979/500,100,83.0
3747,B3,190.992,979/500,100,83.0
3748,B4,191.0,1.0,100,83.0
3749,E2,191.05,0.5,100,83.0
3750,B-2,191.05,0.375,100,83.0
3751,D2,191.05,0.25,100,83.0
3752,E2,191.117,979/500,100,83.0
3753,B2,191.117,979/500,100,83.0
3754,E3,191.117,979/500,100,83.0
3755,B3,191.117,979/500,100,83.0
3756,D2,191.2,0.25,100,83.0
3757,C2,191.3,0.25,100,83.0
3758,G2,191.45,0.25,100,83.0
3759,B-2,191.55,9/20,100,83.0
3760,D2,191.7,0.25,100,83.0
3761,D2,191.95,1/20,100,83.0
3762,B-2,192.0,1/20,100,83.0
3763,A3,192.0,67/1000,100,83.0
3764,A3,192.0,1/20,100,83.0
3765,D2,192.0,1/5,100,83.0
3766,A3,192.0,29/500,100,83.0
3767,G3,192.05,2.0,100,83.0
3768,D2,192.05,0.5,100,83.0
3769,B-2,192.05,0.5,100,83.0
3770,C2,192.05,0.5,100,83.0
3771,G3,192.058,2.0,100,83.0
3772,G3,192.067,2.0,100,83.0
3773,E2,192.083,21/500,100,83.0
3774,B2,192.083,21/500,100,83.0
3775,E3,192.083,21/500,100,83.0
3776,B3,192.083,21/500,100,83.0
3777,D2,192.125,2.0,100,83.0
3778,A2,192.125,2.0,100,83.0
3779,D3,192.125,2.0,100,83.0
3780,F#3,192.125,2.0,100,83.0
3781,D2,192.2,0.25,100,83.0
3782,E2,192.242,33/1000,100,83.0
3783,B2,192.242,33/1000,100,83.0
3784,E3,192.242,33/1000,100,83.0
3785,B3,192.242,33/1000,100,83.0
3786,D2,192.275,2.0,100,83.0
3787,A2,192.275,2.0,100,83.0
3788,D3,192.275,2.0,100,83.0
3789,F#3,192.275,2.0,100,83.0
3790,E2,192.333,1/20,100,83.0
3791,B2,192.333,1/20,100,83.0
3792,E3,192.333,1/20,100,83.0
3793,B3,192.333,1/20,100,83.0
3794,D2,192.383,2.0,100,83.0
3795,A2,192.383,2.0,100,83.0
3796,D3,192.383,2.0,100,83.0
3797,F#3,192.383,2.0,100,83.0
3798,G#2,192.45,0.25,100,83.0
3799,B-2,192.55,0.5,100,83.0
3800,E2,192.692,17/1000,100,83.0
3801,B2,192.692,17/1000,100,83.0
3802,E3,192.692,17/1000,100,83.0
3803,B3,192.692,17/1000,100,83.0
3804,D2,192.7,0.25,100,83.0
3805,D2,192.708,2.0,100,83.0
3806,A2,192.708,2.0,100,83.0
3807,D3,192.708,2.0,100,83.0
3808,F#3,192.708,2.0,100,83.0
3809,C2,192.8,0.25,100,83.0
3810,D2,192.95,0.25,100,83.0
3811,E2,192.992,21/500,100,83.0
3812,B2,192.992,21/500,100,83.0
3813,E3,192.992,21/500,100,83.0
3814,B3,192.992,21/500,100,83.0
3815,D2,193.033,2.0,100,83.0
3816,A2,193.033,2.0,100,83.0
3817,D3,193.033,2.0,100,83.0
3818,F#3,193.033,2.0,100,83.0
3819,E2,193.05,0.5,100,83.0
3820,B-2,193.05,0.375,100,83.0
3821,D2,193.05,0.25,100,83.0
3822,E2,193.117,21/500,100,83.0
3823,B2,193.117,21/500,100,83.0
3824,E3,193.117,21/500,100,83.0
3825,B3,193.117,21/500,100,83.0
3826,D2,193.158,2.0,100,83.0
3827,A2,193.158,2.0,100,83.0
3828,D3,193.158,2.0,100,83.0
3829,F#3,193.158,2.0,100,83.0
3830,D2,193.2,0.25,100,83.0
3831,C2,193.3,0.25,100,83.0
3832,G2,193.45,0.25,100,83.0
3833,B-2,193.55,0.5,100,83.0
3834,D2,193.7,0.25,100,83.0
3835,D2,193.95,0.25,100,83.0
3836,F#3,194.05,39/20,100,83.0
3837,D2,194.05,0.5,100,83.0
3838,B-2,194.05,0.5,100,83.0
3839,C2,194.05,0.5,100,83.0
3840,F#3,194.058,971/500,100,83.0
3841,F#3,194.067,1933/1000,100,83.0
3842,C2,194.125,979/500,100,83.0
3843,G2,194.125,979/500,100,83.0
3844,C3,194.125,979/500,100,83.0
3845,G3,194.125,979/500,100,83.0
3846,D2,194.2,0.25,100,83.0
3847,C2,194.275,1967/1000,100,83.0
3848,G2,194.275,1967/1000,100,83.0
3849,C3,194.275,1967/1000,100,83.0
3850,G3,194.275,1967/1000,100,83.0
3851,C2,194.383,39/20,100,83.0
3852,G2,194.383,39/20,100,83.0
3853,C3,194.383,39/20,100,83.0
3854,G3,194.383,39/20,100,83.0
3855,G#2,194.45,0.25,100,83.0
3856,B-2,194.55,0.5,100,83.0
3857,D2,194.7,0.25,100,83.0
3858,C2,194.708,1983/1000,100,83.0
3859,G2,194.708,1983/1000,100,83.0
3860,C3,194.708,1983/1000,100,83.0
3861,G3,194.708,1983/1000,100,83.0
3862,D2,194.95,0.25,100,83.0
3863,E2,195.008,0.25,100,83.0
3864,B-2,195.008,0.25,100,83.0
3865,B2,195.008,0.25,100,83.0
3866,C2,195.033,979/500,100,83.0
3867,G2,195.033,979/500,100,83.0
3868,C3,195.033,979/500,100,83.0
3869,G3,195.033,979/500,100,83.0
3870,C2,195.158,979/500,100,83.0
3871,G2,195.158,979/500,100,83.0
3872,C3,195.158,979/500,100,83.0
3873,G3,195.158,979/500,100,83.0
3874,D2,195.2,0.25,100,83.0
3875,A2,195.258,0.25,100,83.0
3876,G2,195.45,0.25,100,83.0
3877,G2,195.508,0.25,100,83.0
3878,D2,195.7,0.25,100,83.0
3879,F2,195.758,121/500,100,83.0
3880,D2,195.95,1/20,100,83.0
3881,F2,196.0,1/125,100,83.0
3882,F#3,196.0,67/1000,100,83.0
3883,F#3,196.0,1/20,100,83.0
3884,D2,196.0,1/5,100,83.0
3885,F#3,196.0,29/500,100,83.0
3886,C#3,196.017,0.5,100,83.0
3887,D2,196.017,0.5,100,83.0
3888,C#3,196.017,0.5,100,83.0
3889,C2,196.017,0.5,100,83.0
3890,D4,196.05,2.0,100,83.0
3891,D4,196.058,2.0,100,83.0
3892,D4,196.067,2.0,100,83.0
3893,C2,196.125,21/500,100,83.0
3894,G2,196.125,21/500,100,83.0
3895,C3,196.125,21/500,100,83.0
3896,G3,196.125,21/500,100,83.0
3897,E3,196.167,2.0,100,83.0
3898,B2,196.167,2.0,100,83.0
3899,E2,196.167,2.0,100,83.0
3900,D2,196.2,0.25,100,83.0
3901,C2,196.275,33/1000,100,83.0
3902,G2,196.275,33/1000,100,83.0
3903,C3,196.275,33/1000,100,83.0
3904,G3,196.275,33/1000,100,83.0
3905,E3,196.308,2.0,100,83.0
3906,B2,196.308,2.0,100,83.0
3907,E2,196.308,2.0,100,83.0
3908,C2,196.383,1/20,100,83.0
3909,G2,196.383,1/20,100,83.0
3910,C3,196.383,1/20,100,83.0
3911,G3,196.383,1/20,100,83.0
3912,E3,196.433,2.0,100,83.0
3913,B2,196.433,2.0,100,83.0
3914,E2,196.433,2.0,100,83.0
3915,G#2,196.45,0.25,100,83.0
3916,B-2,196.517,0.5,100,83.0
3917,D2,196.7,0.25,100,83.0
3918,C2,196.708,17/1000,100,83.0
3919,G2,196.708,17/1000,100,83.0
3920,C3,196.708,17/1000,100,83.0
3921,G3,196.708,17/1000,100,83.0
3922,E3,196.725,2.0,100,83.0
3923,B2,196.725,2.0,100,83.0
3924,E2,196.725,2.0,100,83.0
3925,C2,196.767,0.25,100,83.0
3926,D2,196.95,0.25,100,83.0
3927,E2,197.017,0.5,100,83.0
3928,B-2,197.017,0.375,100,83.0
3929,D2,197.017,0.25,100,83.0
3930,C2,197.033,21/500,100,83.0
3931,G2,197.033,21/500,100,83.0
3932,C3,197.033,21/500,100,83.0
3933,G3,197.033,21/500,100,83.0
3934,E3,197.075,2.0,100,83.0
3935,B2,197.075,2.0,100,83.0
3936,E2,197.075,2.0,100,83.0
3937,C2,197.158,21/500,100,83.0
3938,G2,197.158,21/500,100,83.0
3939,C3,197.158,21/500,100,83.0
3940,G3,197.158,21/500,100,83.0
3941,D2,197.2,0.25,100,83.0
3942,E3,197.2,2.0,100,83.0
3943,B2,197.2,2.0,100,83.0
3944,E2,197.2,2.0,100,83.0
3945,C2,197.267,0.25,100,83.0
3946,G2,197.45,0.25,100,83.0
3947,B-2,197.517,0.5,100,83.0
3948,D2,197.7,0.25,100,83.0
3949,D2,197.95,0.25,100,83.0
3950,D2,198.017,0.5,100,83.0
3951,B-2,198.017,0.5,100,83.0
3952,C2,198.017,0.5,100,83.0
3953,B4,198.05,39/20,100,83.0
3954,B4,198.058,971/500,100,83.0
3955,B4,198.067,1933/1000,100,83.0
3956,B2,198.167,979/500,100,83.0
3957,B3,198.167,979/500,100,83.0
3958,F#3,198.167,979/500,100,83.0
3959,D2,198.2,0.25,100,83.0
3960,B2,198.308,1967/1000,100,83.0
3961,B3,198.308,1967/1000,100,83.0
3962,F#3,198.308,1967/1000,100,83.0
3963,B2,198.433,39/20,100,83.0
3964,B3,198.433,39/20,100,83.0
3965,F#3,198.433,39/20,100,83.0
3966,G#2,198.45,0.25,100,83.0
3967,B-2,198.517,0.5,100,83.0
3968,D2,198.7,0.25,100,83.0
3969,B2,198.725,1983/1000,100,83.0
3970,B3,198.725,1983/1000,100,83.0
3971,F#3,198.725,1983/1000,100,83.0
3972,C2,198.767,0.25,100,83.0
3973,D2,198.95,0.25,100,83.0
3974,E2,199.017,0.5,100,83.0
3975,B-2,199.017,0.375,100,83.0
3976,D2,199.017,0.25,100,83.0
3977,B2,199.075,979/500,100,83.0
3978,B3,199.075,979/500,100,83.0
3979,F#3,199.075,979/500,100,83.0
3980,D2,199.2,0.25,100,83.0
3981,B2,199.2,979/500,100,83.0
3982,B3,199.2,979/500,100,83.0
3983,F#3,199.2,979/500,100,83.0
3984,C2,199.267,0.25,100,83.0
3985,G2,199.45,0.25,100,83.0
3986,B-2,199.517,483/1000,100,83.0
3987,D2,199.7,0.25,100,83.0
3988,D2,199.95,1/20,100,83.0
3989,B-2,200.0,17/1000,100,83.0
3990,B4,200.0,67/1000,100,83.0
3991,B4,200.0,1/20,100,83.0
3992,D2,200.0,1/5,100,83.0
3993,B4,200.0,29/500,100,83.0
3994,D2,200.017,0.5,100,83.0
3995,B-2,200.017,0.5,100,83.0
3996,C2,200.017,0.5,100,83.0
3997,A4,200.05,2.0,100,83.0
3998,A4,200.058,2.0,100,83.0
3999,A4,200.067,2.0,100,83.0
4000,B2,200.167,21/500,100,83.0
4001,B3,200.167,21/500,100,83.0
4002,F#3,200.167,21/500,100,83.0
4003,D2,200.2,0.25,100,83.0
4004,G2,200.208,2.0,100,83.0
4005,D3,200.208,2.0,100,83.0
4006,G3,200.208,2.0,100,83.0
4007,B2,200.308,33/1000,100,83.0
4008,B3,200.308,33/1000,100,83.0
4009,F#3,200.308,33/1000,100,83.0
4010,G2,200.342,2.0,100,83.0
4011,D3,200.342,2.0,100,83.0
4012,G3,200.342,2.0,100,83.0
4013,B2,200.433,1/20,100,83.0
4014,B3,200.433,1/20,100,83.0
4015,F#3,200.433,1/20,100,83.0
4016,G#2,200.45,0.25,100,83.0
4017,G2,200.483,2.0,100,83.0
4018,D3,200.483,2.0,100,83.0
4019,G3,200.483,2.0,100,83.0
4020,B-2,200.517,0.5,100,83.0
4021,D2,200.7,0.25,100,83.0
4022,B2,200.725,17/1000,100,83.0
4023,B3,200.725,17/1000,100,83.0
4024,F#3,200.725,17/1000,100,83.0
4025,G2,200.742,2.0,100,83.0
4026,D3,200.742,2.0,100,83.0
4027,G3,200.742,2.0,100,83.0
4028,C2,200.767,0.25,100,83.0
4029,D2,200.95,0.25,100,83.0
4030,E2,201.017,0.5,100,83.0
4031,B-2,201.017,0.375,100,83.0
4032,D2,201.017,0.25,100,83.0
4033,B2,201.075,21/500,100,83.0
4034,B3,201.075,21/500,100,83.0
4035,F#3,201.075,21/500,100,83.0
4036,G2,201.117,2.0,100,83.0
4037,D3,201.117,2.0,100,83.0
4038,G3,201.117,2.0,100,83.0
4039,D2,201.2,0.25,100,83.0
4040,B2,201.2,21/500,100,83.0
4041,B3,201.2,21/500,100,83.0
4042,F#3,201.2,21/500,100,83.0
4043,G2,201.242,2.0,100,83.0
4044,D3,201.242,2.0,100,83.0
4045,G3,201.242,2.0,100,83.0
4046,C2,201.267,0.25,100,83.0
4047,G2,201.45,0.25,100,83.0
4048,B-2,201.517,0.5,100,83.0
4049,D2,201.7,0.25,100,83.0
4050,D2,201.95,0.25,100,83.0
4051,D2,202.017,0.5,100,83.0
4052,B-2,202.017,0.5,100,83.0
4053,C2,202.017,0.5,100,83.0
4054,E4,202.05,39/20,100,83.0
4055,E4,202.058,971/500,100,83.0
4056,E4,202.067,1933/1000,100,83.0
4057,D2,202.2,0.25,100,83.0
4058,C#3,202.208,979/500,100,83.0
4059,F#2,202.208,979/500,100,83.0
4060,F#3,202.208,979/500,100,83.0
4061,C#3,202.342,1967/1000,100,83.0
4062,F#2,202.342,1967/1000,100,83.0
4063,F#3,202.342,1967/1000,100,83.0
4064,G#2,202.45,0.25,100,83.0
4065,C#3,202.483,39/20,100,83.0
4066,F#2,202.483,39/20,100,83.0
4067,F#3,202.483,39/20,100,83.0
4068,B-2,202.517,0.5,100,83.0
4069,D2,202.7,0.25,100,83.0
4070,C#3,202.742,1983/1000,100,83.0
4071,F#2,202.742,1983/1000,100,83.0
4072,F#3,202.742,1983/1000,100,83.0
4073,C2,202.767,0.25,100,83.0
4074,D2,202.95,0.25,100,83.0
4075,B-2,203.017,0.375,100,83.0
4076,C#3,203.117,979/500,100,83.0
4077,F#2,203.117,979/500,100,83.0
4078,F#3,203.117,979/500,100,83.0
4079,D2,203.2,0.25,100,83.0
4080,C#3,203.242,979/500,100,83.0
4081,F#2,203.242,979/500,100,83.0
4082,F#3,203.242,979/500,100,83.0
4083,C2,203.25,267/1000,100,83.0
4084,D2,203.25,483/1000,100,83.0
4085,C2,203.25,483/1000,100,83.0
4086,G2,203.45,0.25,100,83.0
4087,B-2,203.517,483/1000,100,83.0
4088,D2,203.7,0.25,100,83.0
4089,D2,203.95,1/20,100,83.0
4090,C#3,204.0,1.0,100,83.0
4091,B-2,204.0,17/1000,100,83.0
4092,E4,204.0,67/1000,100,83.0
4093,E4,204.0,1/20,100,83.0
4094,D2,204.0,1/5,100,83.0
4095,E4,204.0,29/500,100,83.0
4096,F#4,204.0,1.0,100,83.0
4097,D2,204.017,0.5,100,83.0
4098,C2,204.017,0.5,100,83.0
4099,E4,204.05,0.25,100,83.0
4100,E4,204.058,0.25,100,83.0
4101,E4,204.067,0.25,100,83.0
4102,D2,204.2,0.25,100,83.0
4103,C#3,204.208,21/500,100,83.0
4104,F#2,204.208,21/500,100,83.0
4105,F#3,204.208,21/500,100,83.0
4106,E3,204.25,2.0,100,83.0
4107,B2,204.25,2.0,100,83.0
4108,E2,204.25,2.0,100,83.0
4109,F#4,204.3,0.25,100,83.0
4110,F#4,204.308,0.25,100,83.0
4111,F#4,204.317,0.25,100,83.0
4112,C#3,204.342,33/1000,100,83.0
4113,F#2,204.342,33/1000,100,83.0
4114,F#3,204.342,33/1000,100,83.0
4115,E3,204.375,2.0,100,83.0
4116,B2,204.375,2.0,100,83.0
4117,E2,204.375,2.0,100,83.0
4118,G#2,204.45,0.25,100,83.0
4119,C#3,204.483,1/20,100,83.0
4120,F#2,204.483,1/20,100,83.0
4121,F#3,204.483,1/20,100,83.0
4122,B-2,204.517,0.5,100,83.0
4123,E3,204.533,2.0,100,83.0
4124,B2,204.533,2.0,100,83.0
4125,E2,204.533,2.0,100,83.0
4126,F#4,204.55,1.5,100,83.0
4127,F#4,204.558,1.5,100,83.0
4128,F#4,204.567,1.5,100,83.0
4129,D2,204.7,0.25,100,83.0
4130,C#3,204.742,17/1000,100,83.0
4131,F#2,204.742,17/1000,100,83.0
4132,F#3,204.742,17/1000,100,83.0
4133,E3,204.758,2.0,100,83.0
4134,B2,204.758,2.0,100,83.0
4135,E2,204.758,2.0,100,83.0
4136,C2,204.767,0.25,100,83.0
4137,D2,204.95,0.25,100,83.0
4138,E4,205.0,0.25,100,83.0
4139,E2,205.017,0.5,100,83.0
4140,B-2,205.017,0.375,100,83.0
4141,D2,205.017,0.25,100,83.0
4142,C#3,205.117,21/500,100,83.0
4143,F#2,205.117,21/500,100,83.0
4144,F#3,205.117,21/500,100,83.0
4145,E3,205.158,2.0,100,83.0
4146,B2,205.158,2.0,100,83.0
4147,E2,205.158,2.0,100,83.0
4148,D2,205.2,0.25,100,83.0
4149,C#3,205.242,21/500,100,83.0
4150,F#2,205.242,21/500,100,83.0
4151,F#3,205.242,21/500,100,83.0
4152,F#4,205.25,0.25,100,83.0
4153,C2,205.267,0.25,100,83.0
4154,E3,205.283,2.0,100,83.0
4155,B2,205.283,2.0,100,83.0
4156,E2,205.283,2.0,100,83.0
4157,G2,205.45,0.25,100,83.0
4158,G4,205.5,2.0,100,83.0
4159,B-2,205.517,0.5,100,83.0
4160,D2,205.7,0.25,100,83.0
4161,D2,205.95,0.25,100,83.0
4162,D2,206.017,0.5,100,83.0
4163,B-2,206.017,0.5,100,83.0
4164,C2,206.017,0.5,100,83.0
4165,G4,206.05,39/20,100,83.0
4166,G4,206.058,971/500,100,83.0
4167,G4,206.067,1933/1000,100,83.0
4168,D2,206.2,0.25,100,83.0
4169,B2,206.25,979/500,100,83.0
4170,B3,206.25,979/500,100,83.0
4171,F#3,206.25,979/500,100,83.0
4172,B2,206.375,1967/1000,100,83.0
4173,B3,206.375,1967/1000,100,83.0
4174,F#3,206.375,1967/1000,100,83.0
4175,G#2,206.45,0.25,100,83.0
4176,B-2,206.517,0.5,100,83.0
4177,B2,206.533,39/20,100,83.0
4178,B3,206.533,39/20,100,83.0
4179,F#3,206.533,39/20,100,83.0
4180,D2,206.7,0.25,100,83.0
4181,B2,206.758,1983/1000,100,83.0
4182,B3,206.758,1983/1000,100,83.0
4183,F#3,206.758,1983/1000,100,83.0
4184,C2,206.767,0.25,100,83.0
4185,D2,206.95,0.25,100,83.0
4186,F#4,207.0,0.25,100,83.0
4187,E2,207.017,0.5,100,83.0
4188,B-2,207.017,0.375,100,83.0
4189,D2,207.017,0.25,100,83.0
4190,B2,207.158,979/500,100,83.0
4191,B3,207.158,979/500,100,83.0
4192,F#3,207.158,979/500,100,83.0
4193,D2,207.2,0.25,100,83.0
4194,C2,207.267,0.25,100,83.0
4195,B2,207.283,979/500,100,83.0
4196,B3,207.283,979/500,100,83.0
4197,F#3,207.283,979/500,100,83.0
4198,G2,207.45,0.25,100,83.0
4199,B-2,207.517,483/1000,100,83.0
4200,D2,207.7,0.25,100,83.0
4201,D2,207.95,1/20,100,83.0
4202,B-2,208.0,17/1000,100,83.0
4203,G4,208.0,67/1000,100,83.0
4204,G4,208.0,1/20,100,83.0
4205,D2,208.0,1/5,100,83.0
4206,G4,208.0,29/500,100,83.0
4207,D2,208.017,0.5,100,83.0
4208,B-2,208.017,0.5,100,83.0
4209,C2,208.017,0.5,100,83.0
4210,B4,208.05,2.0,100,83.0
4211,B4,208.058,2.0,100,83.0
4212,B4,208.067,2.0,100,83.0
4213,D2,208.2,0.25,100,83.0
4214,B2,208.25,21/500,100,83.0
4215,B3,208.25,21/500,100,83.0
4216,F#3,208.25,21/500,100,83.0
4217,G2,208.292,2.0,100,83.0
4218,D3,208.292,2.0,100,83.0
4219,G3,208.292,2.0,100,83.0
4220,B2,208.375,33/1000,100,83.0
4221,B3,208.375,33/1000,100,83.0
4222,F#3,208.375,33/1000,100,83.0
4223,G2,208.408,2.0,100,83.0
4224,D3,208.408,2.0,100,83.0
4225,G3,208.408,2.0,100,83.0
4226,G#2,208.45,0.25,100,83.0
4227,B-2,208.517,0.5,100,83.0
4228,B2,208.533,1/20,100,83.0
4229,B3,208.533,1/20,100,83.0
4230,F#3,208.533,1/20,100,83.0
4231,G2,208.583,2.0,100,83.0
4232,D3,208.583,2.0,100,83.0
4233,G3,208.583,2.0,100,83.0
4234,D2,208.7,0.25,100,83.0
4235,B2,208.758,17/1000,100,83.0
4236,B3,208.758,17/1000,100,83.0
4237,F#3,208.758,17/1000,100,83.0
4238,C2,208.767,0.25,100,83.0
4239,G2,208.775,2.0,100,83.0
4240,D3,208.775,2.0,100,83.0
4241,G3,208.775,2.0,100,83.0
4242,D2,208.95,0.25,100,83.0
4243,E2,209.017,0.5,100,83.0
4244,B-2,209.017,0.375,100,83.0
4245,D2,209.017,0.25,100,83.0
4246,B2,209.158,21/500,100,83.0
4247,B3,209.158,21/500,100,83.0
4248,F#3,209.158,21/500,100,83.0
4249,D2,209.2,0.25,100,83.0
4250,G2,209.2,2.0,100,83.0
4251,D3,209.2,2.0,100,83.0
4252,G3,209.2,2.0,100,83.0
4253,C2,209.267,0.25,100,83.0
4254,B2,209.283,21/500,100,83.0
4255,B3,209.283,21/500,100,83.0
4256,F#3,209.283,21/500,100,83.0
4257,G2,209.325,2.0,100,83.0
4258,D3,209.325,2.0,100,83.0
4259,G3,209.325,2.0,100,83.0
4260,G2,209.45,0.25,100,83.0
4261,B-2,209.517,0.5,100,83.0
4262,D2,209.7,0.25,100,83.0
4263,D2,209.95,0.25,100,83.0
4264,C2,210.0,0.25,100,83.0
4265,D2,210.0,0.25,100,83.0
4266,A4,210.05,39/20,100,83.0
4267,A4,210.058,971/500,100,83.0
4268,A4,210.067,1933/1000,100,83.0
4269,D2,210.2,0.25,100,83.0
4270,E2,210.25,0.25,100,83.0
4271,C#3,210.292,979/500,100,83.0
4272,F#2,210.292,979/500,100,83.0
4273,F#3,210.292,979/500,100,83.0
4274,C#3,210.408,1967/1000,100,83.0
4275,F#2,210.408,1967/1000,100,83.0
4276,F#3,210.408,1967/1000,100,83.0
4277,G#2,210.45,0.25,100,83.0
4278,E2,210.5,0.25,100,83.0
4279,C#3,210.583,39/20,100,83.0
4280,F#2,210.583,39/20,100,83.0
4281,F#3,210.583,39/20,100,83.0
4282,D2,210.7,0.25,100,83.0
4283,E2,210.75,0.25,100,83.0
4284,C#3,210.775,1983/1000,100,83.0
4285,F#2,210.775,1983/1000,100,83.0
4286,F#3,210.775,1983/1000,100,83.0
4287,D2,210.95,0.25,100,83.0
4288,E2,211.008,0.25,100,83.0
4289,D2,211.2,0.25,100,83.0
4290,C#3,211.2,979/500,100,83.0
4291,F#2,211.2,979/500,100,83.0
4292,F#3,211.2,979/500,100,83.0
4293,G2,211.25,0.25,100,83.0
4294,C#3,211.325,979/500,100,83.0
4295,F#2,211.325,979/500,100,83.0
4296,F#3,211.325,979/500,100,83.0
4297,G2,211.45,0.25,100,83.0
4298,G2,211.5,0.25,100,83.0
4299,D2,211.7,0.25,100,83.0
4300,G2,211.75,0.25,100,83.0
4301,A4,212.0,67/1000,100,83.0
4302,A4,212.0,1/20,100,83.0
4303,A4,212.0,29/500,100,83.0
4304,C#3,212.0,0.5,100,83.0
4305,D2,212.0,0.5,100,83.0
4306,B-2,212.0,0.5,100,83.0
4307,C2,212.0,0.5,100,83.0
4308,C#3,212.292,21/500,100,83.0
4309,F#2,212.292,21/500,100,83.0
4310,F#3,212.292,21/500,100,83.0
4311,E2,212.408,2.0,100,83.0
4312,B2,212.408,2.0,100,83.0
4313,C#3,212.408,33/1000,100,83.0
4314,F#2,212.408,33/1000,100,83.0
4315,F#3,212.408,33/1000,100,83.0
4316,B-2,212.5,0.5,100,83.0
4317,C#3,212.583,1/20,100,83.0
4318,F#2,212.583,1/20,100,83.0
4319,F#3,212.583,1/20,100,83.0
4320,C2,212.75,0.25,100,83.0
4321,C#3,212.775,17/1000,100,83.0
4322,F#2,212.775,17/1000,100,83.0
4323,F#3,212.775,17/1000,100,83.0
4324,E2,213.0,0.5,100,83.0
4325,B-2,213.0,0.375,100,83.0
4326,D2,213.0,0.25,100,83.0
4327,C#3,213.2,21/500,100,83.0
4328,F#2,213.2,21/500,100,83.0
4329,F#3,213.2,21/500,100,83.0
4330,C2,213.25,0.25,100,83.0
4331,C#3,213.325,21/500,100,83.0
4332,F#2,213.325,21/500,100,83.0
4333,F#3,213.325,21/500,100,83.0
4334,B-2,213.5,0.5,100,83.0
4335,D2,214.0,0.5,100,83.0
4336,B-2,214.0,0.5,100,83.0
4337,C2,214.0,0.5,100,83.0
4338,A2,214.408,2.0,100,83.0
4339,E3,214.408,2.0,100,83.0
4340,B-2,214.5,0.5,100,83.0
4341,C2,214.75,0.25,100,83.0
4342,E2,215.0,0.5,100,83.0
4343,B-2,215.0,0.375,100,83.0
4344,D2,215.0,0.25,100,83.0
4345,C2,215.25,0.25,100,83.0
4346,B-2,215.5,0.5,100,83.0
4347,D2,216.0,0.5,100,83.0
4348,B-2,216.0,0.5,100,83.0
4349,C2,216.0,0.5,100,83.0
4350,D3,216.408,2.0,100,83.0
4351,G2,216.408,2.0,100,83.0
4352,B-2,216.5,0.5,100,83.0
4353,C2,216.75,0.25,100,83.0
4354,E2,217.0,0.5,100,83.0
4355,B-2,217.0,0.375,100,83.0
4356,D2,217.0,0.25,100,83.0
4357,C2,217.25,0.25,100,83.0
4358,B-2,217.5,0.5,100,83.0
4359,D2,218.0,0.5,100,83.0
4360,B-2,218.0,0.5,100,83.0
4361,C2,218.0,0.5,100,83.0
4362,C#3,218.408,2.0,100,83.0
4363,F#2,218.408,2.0,100,83.0
4364,B-2,218.5,0.5,100,83.0
4365,C2,218.75,0.25,100,83.0
4366,E2,219.0,0.5,100,83.0
4367,B-2,219.0,0.375,100,83.0
4368,D2,219.0,0.25,100,83.0
4369,C2,219.25,0.25,100,83.0
4370,B-2,219.5,0.5,100,83.0
4371,D2,220.0,0.5,100,83.0
4372,B-2,220.0,0.5,100,83.0
4373,C2,220.0,0.5,100,83.0
4374,B2,220.408,2.0,100,83.0
4375,E2,220.408,2.0,100,83.0
4376,B-2,220.5,0.5,100,83.0
4377,C2,220.75,0.25,100,83.0
4378,E2,221.0,0.5,100,83.0
4379,B-2,221.0,0.375,100,83.0
4380,D2,221.0,0.25,100,83.0
4381,C2,221.25,0.25,100,83.0
4382,B-2,221.5,0.5,100,83.0
4383,D2,222.0,0.5,100,83.0
4384,B-2,222.0,0.5,100,83.0
4385,C2,222.0,0.5,100,83.0
4386,A2,222.408,2.0,100,83.0
4387,E3,222.408,2.0,100,83.0
4388,B-2,222.5,0.5,100,83.0
4389,C2,222.75,0.25,100,83.0
4390,E2,223.0,0.5,100,83.0
4391,B-2,223.0,0.375,100,83.0
4392,D2,223.0,0.25,100,83.0
4393,C2,223.25,0.25,100,83.0
4394,B-2,223.5,0.5,100,83.0
4395,D2,224.0,0.5,100,83.0
4396,B-2,224.0,0.5,100,83.0
4397,C2,224.0,0.5,100,83.0
4398,D3,224.408,2.0,100,83.0
4399,G2,224.408,2.0,100,83.0
4400,B-2,224.5,0.5,100,83.0
4401,C2,224.75,0.25,100,83.0
4402,E2,225.0,0.5,100,83.0
4403,B-2,225.0,0.375,100,83.0
4404,D2,225.0,0.25,100,83.0
4405,C2,225.25,0.25,100,83.0
4406,B-2,225.5,0.5,100,83.0
4407,D2,226.0,0.5,100,83.0
4408,B-2,226.0,0.5,100,83.0
4409,C2,226.0,0.5,100,83.0
4410,C#3,226.408,2.0,100,83.0
4411,F#2,226.408,2.0,100,83.0
4412,B-2,226.5,0.5,100,83.0
4413,C2,226.75,0.25,100,83.0
4414,E2,227.0,0.5,100,83.0
4415,B-2,227.0,0.375,100,83.0
4416,D2,227.0,0.25,100,83.0
4417,C#3,228.0,0.5,100,83.0
4418,D2,228.0,0.5,100,83.0
4419,B-2,228.0,0.5,100,83.0
4420,C2,228.0,0.5,100,83.0
4421,E3,228.408,2.0,100,83.0
4422,B-2,228.5,0.5,100,83.0
4423,C2,228.75,0.25,100,83.0
4424,E2,229.0,0.5,100,83.0
4425,B-2,229.0,0.375,100,83.0
4426,D2,229.0,0.25,100,83.0
4427,C2,229.25,0.25,100,83.0
4428,B-2,229.5,0.5,100,83.0
4429,D2,230.0,0.5,100,83.0
4430,B-2,230.0,0.5,100,83.0
4431,C2,230.0,0.5,100,83.0
4432,B3,230.408,2.0,100,83.0
4433,B-2,230.5,0.5,100,83.0
4434,C2,230.75,0.25,100,83.0
4435,E2,231.0,0.5,100,83.0
4436,B-2,231.0,0.375,100,83.0
4437,D2,231.0,0.25,100,83.0
4438,C2,231.25,0.25,100,83.0
4439,B-2,231.5,0.5,100,83.0
4440,D2,232.0,0.5,100,83.0
4441,B-2,232.0,0.5,100,83.0
4442,C2,232.0,0.5,100,83.0
4443,G3,232.408,2.0,100,83.0
4444,B-2,232.5,0.5,100,83.0
4445,C2,232.75,0.25,100,83.0
4446,E2,233.0,0.5,100,83.0
4447,B-2,233.0,0.375,100,83.0
4448,D2,233.0,0.25,100,83.0
4449,C2,233.25,0.25,100,83.0
4450,B-2,233.5,0.5,100,83.0
4451,D2,234.0,0.5,100,83.0
4452,B-2,234.0,0.5,100,83.0
4453,C2,234.0,0.5,100,83.0
4454,F#3,234.408,2.0,100,83.0
4455,B-2,234.5,0.5,100,83.0
4456,C2,234.75,0.25,100,83.0
4457,E2,235.0,0.5,100,83.0
4458,B-2,235.0,0.375,100,83.0
4459,D2,235.0,0.25,100,83.0
4460,C2,235.25,0.25,100,83.0
4461,B-2,235.5,0.5,100,83.0
4462,D2,236.0,0.5,100,83.0
4463,B-2,236.0,0.5,100,83.0
4464,C2,236.0,0.5,100,83.0
4465,E3,236.408,2.0,100,83.0
4466,B-2,236.5,0.5,100,83.0
4467,C2,236.75,0.25,100,83.0
4468,E2,237.0,0.5,100,83.0
4469,B-2,237.0,0.375,100,83.0
4470,D2,237.0,0.25,100,83.0
4471,C2,237.25,0.25,100,83.0
4472,B-2,237.5,0.5,100,83.0
4473,D2,238.0,0.5,100,83.0
4474,B-2,238.0,0.5,100,83.0
4475,C2,238.0,0.5,100,83.0
4476,B3,238.408,2.0,100,83.0
4477,B-2,238.5,0.5,100,83.0
4478,C2,238.75,0.25,100,83.0
4479,E2,239.0,0.5,100,83.0
4480,B-2,239.0,0.375,100,83.0
4481,D2,239.0,0.25,100,83.0
4482,C2,239.25,0.25,100,83.0
4483,B-2,239.5,0.5,100,83.0
4484,D2,240.017,0.5,100,83.0
4485,B-2,240.017,0.5,100,83.0
4486,C2,240.017,0.5,100,83.0
4487,G3,240.408,2.0,100,83.0
4488,B-2,240.517,0.5,100,83.0
4489,C2,240.767,0.25,100,83.0
4490,E2,241.017,0.5,100,83.0
4491,B-2,241.017,0.375,100,83.0
4492,D2,241.017,0.25,100,83.0
4493,C2,241.267,0.25,100,83.0
4494,B-2,241.517,0.5,100,83.0
4495,C2,241.875,0.125,100,83.0
4496,A1,242.0,1.0,100,83.0
4497,E2,242.0,0.25,100,83.0
4498,B-2,242.0,0.25,100,83.0
4499,A2,242.25,0.25,100,83.0
4500,F#3,242.408,2.0,100,83.0
4501,G2,242.5,0.25,100,83.0
4502,A1,243.0,0.125,100,83.0
4503,E2,243.008,0.25,100,83.0
4504,B-2,243.008,0.25,100,83.0
4505,B2,243.008,0.25,100,83.0
4506,A2,243.258,0.25,100,83.0
4507,G2,243.508,0.25,100,83.0
4508,F2,243.758,121/500,100,83.0
4509,F2,244.0,1/125,100,83.0
4510,B3,244.0,2.0,100,83.0
4511,D2,244.0,0.25,100,83.0
4512,C#3,244.0,1.0,100,83.0
4513,C#3,244.0,1.0,100,83.0
4514,B3,244.017,2.0,100,83.0
4515,B3,244.05,2.0,100,83.0
4516,D2,244.05,0.5,100,83.0
4517,C2,244.05,0.5,100,83.0
4518,D2,244.25,0.25,100,83.0
4519,F#3,244.292,2.0,100,83.0
4520,B2,244.292,2.0,100,83.0
4521,B3,244.292,2.0,100,83.0
4522,G#2,244.5,0.25,100,83.0
4523,B4,244.5,0.25,100,83.0
4524,F#3,244.5,2.0,100,83.0
4525,B2,244.5,2.0,100,83.0
4526,B3,244.5,2.0,100,83.0
4527,B-2,244.55,0.5,100,83.0
4528,F#3,244.583,2.0,100,83.0
4529,B2,244.583,2.0,100,83.0
4530,B3,244.583,2.0,100,83.0
4531,D2,244.75,0.25,100,83.0
4532,C#5,244.75,0.25,100,83.0
4533,F#3,244.783,2.0,100,83.0
4534,B2,244.783,2.0,100,83.0
4535,B3,244.783,2.0,100,83.0
4536,C2,244.8,0.25,100,83.0
4537,D2,245.0,0.25,100,83.0
4538,D5,245.0,1.0,100,83.0
4539,E2,245.05,0.5,100,83.0
4540,B-2,245.05,0.375,100,83.0
4541,D2,245.05,0.25,100,83.0
4542,F#3,245.208,2.0,100,83.0
4543,B2,245.208,2.0,100,83.0
4544,B3,245.208,2.0,100,83.0
4545,D2,245.25,0.25,100,83.0
4546,C2,245.3,0.25,100,83.0
4547,F#3,245.333,2.0,100,83.0
4548,B2,245.333,2.0,100,83.0
4549,B3,245.333,2.0,100,83.0
4550,G2,245.5,0.25,100,83.0
4551,B-2,245.55,0.5,100,83.0
4552,D2,245.75,0.25,100,83.0
4553,G3,246.0,2.0,100,83.0
4554,D2,246.0,0.25,100,83.0
4555,F#5,246.0,1.0,100,83.0
4556,G3,246.017,1983/1000,100,83.0
4557,G3,246.05,39/20,100,83.0
4558,D2,246.05,0.5,100,83.0
4559,B-2,246.05,0.5,100,83.0
4560,C2,246.05,0.5,100,83.0
4561,D2,246.25,0.25,100,83.0
4562,E2,246.292,2.0,100,83.0
4563,B2,246.292,2.0,100,83.0
4564,E3,246.292,2.0,100,83.0
4565,B3,246.292,2.0,100,83.0
4566,G#2,246.5,0.25,100,83.0
4567,E2,246.5,477/250,100,83.0
4568,B2,246.5,477/250,100,83.0
4569,E3,246.5,477/250,100,83.0
4570,B3,246.5,477/250,100,83.0
4571,B-2,246.55,0.5,100,83.0
4572,E2,246.583,2.0,100,83.0
4573,B2,246.583,2.0,100,83.0
4574,E3,246.583,2.0,100,83.0
4575,B3,246.583,2.0,100,83.0
4576,D2,246.75,0.25,100,83.0
4577,E2,246.783,249/125,100,83.0
4578,B2,246.783,249/125,100,83.0
4579,E3,246.783,249/125,100,83.0
4580,B3,246.783,249/125,100,83.0
4581,C2,246.8,0.25,100,83.0
4582,D2,247.0,0.25,100,83.0
4583,B4,247.0,1.0,100,83.0
4584,E2,247.05,0.5,100,83.0
4585,B-2,247.05,0.375,100,83.0
4586,D2,247.05,0.25,100,83.0
4587,E2,247.208,249/125,100,83.0
4588,B2,247.208,249/125,100,83.0
4589,E3,247.208,249/125,100,83.0
4590,B3,247.208,249/125,100,83.0
4591,D2,247.25,0.25,100,83.0
4592,C2,247.3,0.25,100,83.0
4593,E2,247.333,249/125,100,83.0
4594,B2,247.333,249/125,100,83.0
4595,E3,247.333,249/125,100,83.0
4596,B3,247.333,249/125,100,83.0
4597,G2,247.5,0.25,100,83.0
4598,B-2,247.55,9/20,100,83.0
4599,D2,247.75,0.25,100,83.0
4600,B-2,248.0,1/20,100,83.0
4601,F#3,248.0,2.0,100,83.0
4602,G3,248.0,1/20,100,83.0
4603,D2,248.0,0.25,100,83.0
4604,G3,248.0,17/1000,100,83.0
4605,F#3,248.017,2.0,100,83.0
4606,F#3,248.05,2.0,100,83.0
4607,D2,248.05,0.5,100,83.0
4608,B-2,248.05,0.5,100,83.0
4609,C2,248.05,0.5,100,83.0
4610,D2,248.25,0.25,100,83.0
4611,D2,248.292,2.0,100,83.0
4612,A2,248.292,2.0,100,83.0
4613,D3,248.292,2.0,100,83.0
4614,F#3,248.292,2.0,100,83.0
4615,E2,248.408,23/250,100,83.0
4616,B2,248.408,23/250,100,83.0
4617,E3,248.408,23/250,100,83.0
4618,B3,248.408,23/250,100,83.0
4619,G#2,248.5,0.25,100,83.0
4620,D2,248.5,2.0,100,83.0
4621,A2,248.5,2.0,100,83.0
4622,D3,248.5,2.0,100,83.0
4623,F#3,248.5,2.0,100,83.0
4624,B-2,248.55,0.5,100,83.0
4625,D2,248.583,2.0,100,83.0
4626,A2,248.583,2.0,100,83.0
4627,D3,248.583,2.0,100,83.0
4628,F#3,248.583,2.0,100,83.0
4629,D2,248.75,0.25,100,83.0
4630,E2,248.775,1/125,100,83.0
4631,B2,248.775,1/125,100,83.0
4632,E3,248.775,1/125,100,83.0
4633,B3,248.775,1/125,100,83.0
4634,D2,248.783,2.0,100,83.0
4635,A2,248.783,2.0,100,83.0
4636,D3,248.783,2.0,100,83.0
4637,F#3,248.783,2.0,100,83.0
4638,C2,248.8,0.25,100,83.0
4639,D2,249.0,0.25,100,83.0
4640,E2,249.05,0.5,100,83.0
4641,B-2,249.05,0.375,100,83.0
4642,D2,249.05,0.25,100,83.0
4643,E2,249.2,1/125,100,83.0
4644,B2,249.2,1/125,100,83.0
4645,E3,249.2,1/125,100,83.0
4646,B3,249.2,1/125,100,83.0
4647,D2,249.208,2.0,100,83.0
4648,A2,249.208,2.0,100,83.0
4649,D3,249.208,2.0,100,83.0
4650,F#3,249.208,2.0,100,83.0
4651,D2,249.25,0.25,100,83.0
4652,C2,249.3,0.25,100,83.0
4653,E2,249.325,1/125,100,83.0
4654,B2,249.325,1/125,100,83.0
4655,E3,249.325,1/125,100,83.0
4656,B3,249.325,1/125,100,83.0
4657,D2,249.333,2.0,100,83.0
4658,A2,249.333,2.0,100,83.0
4659,D3,249.333,2.0,100,83.0
4660,F#3,249.333,2.0,100,83.0
4661,G2,249.5,0.25,100,83.0
4662,B-2,249.55,0.5,100,83.0
4663,D2,249.75,0.25,100,83.0
4664,E3,250.0,2.0,100,83.0
4665,D2,250.0,0.25,100,83.0
4666,E3,250.017,1983/1000,100,83.0
4667,E3,250.05,39/20,100,83.0
4668,D2,250.05,0.5,100,83.0
4669,B-2,250.05,0.5,100,83.0
4670,C2,250.05,0.5,100,83.0
4671,D2,250.25,0.25,100,83.0
4672,C2,250.292,2.0,100,83.0
4673,G2,250.292,2.0,100,83.0
4674,C3,250.292,2.0,100,83.0
4675,G3,250.292,2.0,100,83.0
4676,G#2,250.5,0.25,100,83.0
4677,C2,250.5,477/250,100,83.0
4678,G2,250.5,477/250,100,83.0
4679,C3,250.5,477/250,100,83.0
4680,G3,250.5,477/250,100,83.0
4681,B-2,250.55,0.5,100,83.0
4682,C2,250.583,2.0,100,83.0
4683,G2,250.583,2.0,100,83.0
4684,C3,250.583,2.0,100,83.0
4685,G3,250.583,2.0,100,83.0
4686,D2,250.75,0.25,100,83.0
4687,C2,250.783,249/125,100,83.0
4688,G2,250.783,249/125,100,83.0
4689,C3,250.783,249/125,100,83.0
4690,G3,250.783,249/125,100,83.0
4691,C2,250.8,0.25,100,83.0
4692,D2,251.0,0.25,100,83.0
4693,E2,251.05,0.5,100,83.0
4694,B-2,251.05,0.375,100,83.0
4695,D2,251.05,0.25,100,83.0
4696,C2,251.208,249/125,100,83.0
4697,G2,251.208,249/125,100,83.0
4698,C3,251.208,249/125,100,83.0
4699,G3,251.208,249/125,100,83.0
4700,D2,251.25,0.25,100,83.0
4701,C2,251.3,0.25,100,83.0
4702,C2,251.333,249/125,100,83.0
4703,G2,251.333,249/125,100,83.0
4704,C3,251.333,249/125,100,83.0
4705,G3,251.333,249/125,100,83.0
4706,G2,251.5,0.25,100,83.0
4707,B-2,251.55,9/20,100,83.0
4708,D2,251.75,0.25,100,83.0
4709,C#3,252.0,1.0,100,83.0
4710,B-2,252.0,1/20,100,83.0
4711,B3,252.0,2.0,100,83.0
4712,E3,252.0,1/20,100,83.0
4713,D2,252.0,0.25,100,83.0
4714,E3,252.0,17/1000,100,83.0
4715,C#3,252.0,0.5,100,83.0
4716,D2,252.0,0.5,100,83.0
4717,C2,252.0,0.5,100,83.0
4718,B3,252.017,2.0,100,83.0
4719,B3,252.05,2.0,100,83.0
4720,D2,252.25,0.25,100,83.0
4721,F#3,252.292,2.0,100,83.0
4722,B2,252.292,2.0,100,83.0
4723,B3,252.292,2.0,100,83.0
4724,G#2,252.5,0.25,100,83.0
4725,B4,252.5,0.25,100,83.0
4726,C2,252.5,23/250,100,83.0
4727,G2,252.5,23/250,100,83.0
4728,C3,252.5,23/250,100,83.0
4729,G3,252.5,23/250,100,83.0
4730,B-2,252.55,0.5,100,83.0
4731,F#3,252.583,2.0,100,83.0
4732,B2,252.583,2.0,100,83.0
4733,B3,252.583,2.0,100,83.0
4734,F#3,252.592,2.0,100,83.0
4735,B2,252.592,2.0,100,83.0
4736,B3,252.592,2.0,100,83.0
4737,D2,252.75,0.25,100,83.0
4738,C#5,252.75,0.25,100,83.0
4739,C2,252.783,1/125,100,83.0
4740,G2,252.783,1/125,100,83.0
4741,C3,252.783,1/125,100,83.0
4742,G3,252.783,1/125,100,83.0
4743,F#3,252.792,2.0,100,83.0
4744,B2,252.792,2.0,100,83.0
4745,B3,252.792,2.0,100,83.0
4746,C2,252.8,0.25,100,83.0
4747,D2,253.0,0.25,100,83.0
4748,D5,253.0,1.0,100,83.0
4749,E2,253.05,0.5,100,83.0
4750,B-2,253.05,0.375,100,83.0
4751,D2,253.05,0.25,100,83.0
4752,C2,253.208,1/125,100,83.0
4753,G2,253.208,1/125,100,83.0
4754,C3,253.208,1/125,100,83.0
4755,G3,253.208,1/125,100,83.0
4756,F#3,253.217,2.0,100,83.0
4757,B2,253.217,2.0,100,83.0
4758,B3,253.217,2.0,100,83.0
4759,D2,253.25,0.25,100,83.0
4760,C2,253.3,0.25,100,83.0
4761,C2,253.333,1/125,100,83.0
4762,G2,253.333,1/125,100,83.0
4763,C3,253.333,1/125,100,83.0
4764,G3,253.333,1/125,100,83.0
4765,F#3,253.342,2.0,100,83.0
4766,B2,253.342,2.0,100,83.0
4767,B3,253.342,2.0,100,83.0
4768,G2,253.5,0.25,100,83.0
4769,B-2,253.55,0.5,100,83.0
4770,D2,253.75,0.25,100,83.0
4771,A3,254.0,2.0,100,83.0
4772,D2,254.0,0.25,100,83.0
4773,F#5,254.0,1.0,100,83.0
4774,A3,254.017,1983/1000,100,83.0
4775,A3,254.05,39/20,100,83.0
4776,D2,254.05,0.5,100,83.0
4777,B-2,254.05,0.5,100,83.0
4778,C2,254.05,0.5,100,83.0
4779,D2,254.25,0.25,100,83.0
4780,E2,254.292,2.0,100,83.0
4781,B2,254.292,2.0,100,83.0
4782,E3,254.292,2.0,100,83.0
4783,B3,254.292,2.0,100,83.0
4784,G#2,254.5,0.25,100,83.0
4785,B-2,254.55,0.5,100,83.0
4786,E2,254.583,2.0,100,83.0
4787,B2,254.583,2.0,100,83.0
4788,E3,254.583,2.0,100,83.0
4789,B3,254.583,2.0,100,83.0
4790,E2,254.592,477/250,100,83.0
4791,B2,254.592,477/250,100,83.0
4792,E3,254.592,477/250,100,83.0
4793,B3,254.592,477/250,100,83.0
4794,D2,254.75,0.25,100,83.0
4795,E2,254.792,249/125,100,83.0
4796,B2,254.792,249/125,100,83.0
4797,E3,254.792,249/125,100,83.0
4798,B3,254.792,249/125,100,83.0
4799,C2,254.8,0.25,100,83.0
4800,D2,255.0,0.25,100,83.0
4801,B4,255.0,1.0,100,83.0
4802,E2,255.05,0.5,100,83.0
4803,B-2,255.05,0.375,100,83.0
4804,D2,255.05,0.25,100,83.0
4805,E2,255.217,249/125,100,83.0
4806,B2,255.217,249/125,100,83.0
4807,E3,255.217,249/125,100,83.0
4808,B3,255.217,249/125,100,83.0
4809,D2,255.25,0.25,100,83.0
4810,C2,255.3,0.25,100,83.0
4811,E2,255.342,249/125,100,83.0
4812,B2,255.342,249/125,100,83.0
4813,E3,255.342,249/125,100,83.0
4814,B3,255.342,249/125,100,83.0
4815,G2,255.5,0.25,100,83.0
4816,B-2,255.55,9/20,100,83.0
4817,D2,255.75,0.25,100,83.0
4818,B-2,256.0,1/20,100,83.0
4819,G3,256.0,2.0,100,83.0
4820,A3,256.0,1/20,100,83.0
4821,D2,256.0,0.25,100,83.0
4822,A3,256.0,17/1000,100,83.0
4823,G3,256.017,2.0,100,83.0
4824,G3,256.05,2.0,100,83.0
4825,D2,256.05,0.5,100,83.0
4826,B-2,256.05,0.5,100,83.0
4827,C2,256.05,0.5,100,83.0
4828,D2,256.25,0.25,100,83.0
4829,D2,256.292,2.0,100,83.0
4830,A2,256.292,2.0,100,83.0
4831,D3,256.292,2.0,100,83.0
4832,F#3,256.292,2.0,100,83.0
4833,G#2,256.5,0.25,100,83.0
4834,B-2,256.55,0.5,100,83.0
4835,D2,256.583,2.0,100,83.0
4836,A2,256.583,2.0,100,83.0
4837,D3,256.583,2.0,100,83.0
4838,F#3,256.583,2.0,100,83.0
4839,E2,256.592,23/250,100,83.0
4840,B2,256.592,23/250,100,83.0
4841,E3,256.592,23/250,100,83.0
4842,B3,256.592,23/250,100,83.0
4843,D2,256.683,2.0,100,83.0
4844,A2,256.683,2.0,100,83.0
4845,D3,256.683,2.0,100,83.0
4846,F#3,256.683,2.0,100,83.0
4847,D2,256.75,0.25,100,83.0
4848,E2,256.792,1/125,100,83.0
4849,B2,256.792,1/125,100,83.0
4850,E3,256.792,1/125,100,83.0
4851,B3,256.792,1/125,100,83.0
4852,C2,256.8,0.25,100,83.0
4853,D2,256.8,2.0,100,83.0
4854,A2,256.8,2.0,100,83.0
4855,D3,256.8,2.0,100,83.0
4856,F#3,256.8,2.0,100,83.0
4857,D2,257.0,0.25,100,83.0
4858,E2,257.05,0.5,100,83.0
4859,B-2,257.05,0.375,100,83.0
4860,D2,257.05,0.25,100,83.0
4861,E2,257.217,1/125,100,83.0
4862,B2,257.217,1/125,100,83.0
4863,E3,257.217,1/125,100,83.0
4864,B3,257.217,1/125,100,83.0
4865,D2,257.225,2.0,100,83.0
4866,A2,257.225,2.0,100,83.0
4867,D3,257.225,2.0,100,83.0
4868,F#3,257.225,2.0,100,83.0
4869,D2,257.25,0.25,100,83.0
4870,C2,257.3,0.25,100,83.0
4871,E2,257.342,1/125,100,83.0
4872,B2,257.342,1/125,100,83.0
4873,E3,257.342,1/125,100,83.0
4874,B3,257.342,1/125,100,83.0
4875,D2,257.35,2.0,100,83.0
4876,A2,257.35,2.0,100,83.0
4877,D3,257.35,2.0,100,83.0
4878,F#3,257.35,2.0,100,83.0
4879,G2,257.5,0.25,100,83.0
4880,B-2,257.55,0.5,100,83.0
4881,D2,257.75,0.25,100,83.0
4882,F#3,258.0,2.0,100,83.0
4883,D2,258.0,0.25,100,83.0
4884,F#3,258.017,1983/1000,100,83.0
4885,F#3,258.05,39/20,100,83.0
4886,D2,258.05,0.5,100,83.0
4887,B-2,258.05,0.5,100,83.0
4888,C2,258.05,0.5,100,83.0
4889,D2,258.25,0.25,100,83.0
4890,C2,258.292,2.0,100,83.0
4891,G2,258.292,2.0,100,83.0
4892,C3,258.292,2.0,100,83.0
4893,G3,258.292,2.0,100,83.0
4894,G#2,258.5,0.25,100,83.0
4895,B-2,258.55,0.5,100,83.0
4896,C2,258.583,2.0,100,83.0
4897,G2,258.583,2.0,100,83.0
4898,C3,258.583,2.0,100,83.0
4899,G3,258.583,2.0,100,83.0
4900,C2,258.683,477/250,100,83.0
4901,G2,258.683,477/250,100,83.0
4902,C3,258.683,477/250,100,83.0
4903,G3,258.683,477/250,100,83.0
4904,D2,258.75,0.25,100,83.0
4905,C2,258.8,249/125,100,83.0
4906,G2,258.8,249/125,100,83.0
4907,C3,258.8,249/125,100,83.0
4908,G3,258.8,249/125,100,83.0
4909,D2,259.0,0.25,100,83.0
4910,E2,259.008,0.25,100,83.0
4911,B-2,259.008,0.25,100,83.0
4912,B2,259.008,0.25,100,83.0
4913,C2,259.225,249/125,100,83.0
4914,G2,259.225,249/125,100,83.0
4915,C3,259.225,249/125,100,83.0
4916,G3,259.225,249/125,100,83.0
4917,D2,259.25,0.25,100,83.0
4918,A2,259.258,0.25,100,83.0
4919,C2,259.35,249/125,100,83.0
4920,G2,259.35,249/125,100,83.0
4921,C3,259.35,249/125,100,83.0
4922,G3,259.35,249/125,100,83.0
4923,G2,259.5,0.25,100,83.0
4924,G2,259.508,0.25,100,83.0
4925,D2,259.75,0.25,100,83.0
4926,F2,259.758,121/500,100,83.0
4927,F2,260.0,1/125,100,83.0
4928,D4,260.0,2.0,100,83.0
4929,F#3,260.0,1/20,100,83.0
4930,D2,260.0,0.25,100,83.0
4931,F#3,260.0,17/1000,100,83.0
4932,D4,260.017,2.0,100,83.0
4933,C#3,260.017,0.5,100,83.0
4934,D2,260.017,0.5,100,83.0
4935,C#3,260.017,0.5,100,83.0
4936,C2,260.017,0.5,100,83.0
4937,D4,260.05,2.0,100,83.0
4938,D2,260.25,0.25,100,83.0
4939,E3,260.292,2.0,100,83.0
4940,B2,260.292,2.0,100,83.0
4941,E2,260.292,2.0,100,83.0
4942,G#2,260.5,0.25,100,83.0
4943,B-2,260.517,0.5,100,83.0
4944,E3,260.583,2.0,100,83.0
4945,B2,260.583,2.0,100,83.0
4946,E2,260.583,2.0,100,83.0
4947,C2,260.683,23/250,100,83.0
4948,G2,260.683,23/250,100,83.0
4949,C3,260.683,23/250,100,83.0
4950,G3,260.683,23/250,100,83.0
4951,D2,260.75,0.25,100,83.0
4952,C2,260.767,0.25,100,83.0
4953,E3,260.775,2.0,100,83.0
4954,B2,260.775,2.0,100,83.0
4955,E2,260.775,2.0,100,83.0
4956,C2,260.8,1/125,100,83.0
4957,G2,260.8,1/125,100,83.0
4958,C3,260.8,1/125,100,83.0
4959,G3,260.8,1/125,100,83.0
4960,E3,260.808,2.0,100,83.0
4961,B2,260.808,2.0,100,83.0
4962,E2,260.808,2.0,100,83.0
4963,D2,261.0,0.25,100,83.0
4964,E2,261.017,0.5,100,83.0
4965,B-2,261.017,0.375,100,83.0
4966,D2,261.017,0.25,100,83.0
4967,C2,261.225,1/125,100,83.0
4968,G2,261.225,1/125,100,83.0
4969,C3,261.225,1/125,100,83.0
4970,G3,261.225,1/125,100,83.0
4971,E3,261.233,2.0,100,83.0
4972,B2,261.233,2.0,100,83.0
4973,E2,261.233,2.0,100,83.0
4974,D2,261.25,0.25,100,83.0
4975,C2,261.267,0.25,100,83.0
4976,C2,261.35,1/125,100,83.0
4977,G2,261.35,1/125,100,83.0
4978,C3,261.35,1/125,100,83.0
4979,G3,261.35,1/125,100,83.0
4980,E3,261.358,2.0,100,83.0
4981,B2,261.358,2.0,100,83.0
4982,E2,261.358,2.0,100,83.0
4983,G2,261.5,0.25,100,83.0
4984,B-2,261.517,0.5,100,83.0
4985,D2,261.75,0.25,100,83.0
4986,B4,262.0,2.0,100,83.0
4987,D2,262.0,0.25,100,83.0
4988,B4,262.017,1983/1000,100,83.0
4989,D2,262.017,0.5,100,83.0
4990,B-2,262.017,0.5,100,83.0
4991,C2,262.017,0.5,100,83.0
4992,B4,262.05,39/20,100,83.0
4993,D2,262.25,0.25,100,83.0
4994,B2,262.292,2.0,100,83.0
4995,B3,262.292,2.0,100,83.0
4996,F#3,262.292,2.0,100,83.0
4997,G#2,262.5,0.25,100,83.0
4998,B-2,262.517,0.5,100,83.0
4999,B2,262.583,2.0,100,83.0
5000,B3,262.583,2.0,100,83.0
5001,F#3,262.583,2.0,100,83.0
5002,D2,262.75,0.25,100,83.0
5003,C2,262.767,0.25,100,83.0
5004,B2,262.775,477/250,100,83.0
5005,B3,262.775,477/250,100,83.0
5006,F#3,262.775,477/250,100,83.0
5007,B2,262.808,249/125,100,83.0
5008,B3,262.808,249/125,100,83.0
5009,F#3,262.808,249/125,100,83.0
5010,D2,263.0,0.25,100,83.0
5011,E2,263.017,0.5,100,83.0
5012,B-2,263.017,0.375,100,83.0
5013,D2,263.017,0.25,100,83.0
5014,B2,263.233,249/125,100,83.0
5015,B3,263.233,249/125,100,83.0
5016,F#3,263.233,249/125,100,83.0
5017,D2,263.25,0.25,100,83.0
5018,C2,263.267,0.25,100,83.0
5019,B2,263.358,249/125,100,83.0
5020,B3,263.358,249/125,100,83.0
5021,F#3,263.358,249/125,100,83.0
5022,G2,263.5,0.25,100,83.0
5023,B-2,263.517,483/1000,100,83.0
5024,D2,263.75,0.25,100,83.0
5025,B-2,264.0,17/1000,100,83.0
5026,A4,264.0,2.0,100,83.0
5027,B4,264.0,1/20,100,83.0
5028,D2,264.0,0.25,100,83.0
5029,B4,264.0,17/1000,100,83.0
5030,E4,264.0,0.25,100,83.0
5031,A4,264.017,2.0,100,83.0
5032,D2,264.017,0.5,100,83.0
5033,B-2,264.017,0.5,100,83.0
5034,C2,264.017,0.5,100,83.0
5035,A4,264.05,2.0,100,83.0
5036,D2,264.25,0.25,100,83.0
5037,F#4,264.25,0.25,100,83.0
5038,G2,264.292,2.0,100,83.0
5039,D3,264.292,2.0,100,83.0
5040,G3,264.292,2.0,100,83.0
5041,G#2,264.5,0.25,100,83.0
5042,G4,264.5,1.0,100,83.0
5043,B-2,264.517,0.5,100,83.0
5044,G2,264.583,2.0,100,83.0
5045,D3,264.583,2.0,100,83.0
5046,G3,264.583,2.0,100,83.0
5047,D2,264.75,0.25,100,83.0
5048,C2,264.767,0.25,100,83.0
5049,B2,264.775,23/250,100,83.0
5050,B3,264.775,23/250,100,83.0
5051,F#3,264.775,23/250,100,83.0
5052,B2,264.808,1/125,100,83.0
5053,B3,264.808,1/125,100,83.0
5054,F#3,264.808,1/125,100,83.0
5055,G2,264.817,2.0,100,83.0
5056,D3,264.817,2.0,100,83.0
5057,G3,264.817,2.0,100,83.0
5058,G2,264.867,2.0,100,83.0
5059,D3,264.867,2.0,100,83.0
5060,G3,264.867,2.0,100,83.0
5061,D2,265.0,0.25,100,83.0
5062,E2,265.017,0.5,100,83.0
5063,B-2,265.017,0.375,100,83.0
5064,D2,265.017,0.25,100,83.0
5065,B2,265.233,1/125,100,83.0
5066,B3,265.233,1/125,100,83.0
5067,F#3,265.233,1/125,100,83.0
5068,G2,265.242,2.0,100,83.0
5069,D3,265.242,2.0,100,83.0
5070,G3,265.242,2.0,100,83.0
5071,D2,265.25,0.25,100,83.0
5072,C2,265.267,0.25,100,83.0
5073,B2,265.358,1/125,100,83.0
5074,B3,265.358,1/125,100,83.0
5075,F#3,265.358,1/125,100,83.0
5076,G2,265.367,2.0,100,83.0
5077,D3,265.367,2.0,100,83.0
5078,G3,265.367,2.0,100,83.0
5079,G2,265.5,0.25,100,83.0
5080,A4,265.5,0.5,100,83.0
5081,B-2,265.517,0.5,100,83.0
5082,D2,265.75,0.25,100,83.0
5083,E4,266.0,2.0,100,83.0
5084,D2,266.0,0.25,100,83.0
5085,F#4,266.0,1.0,100,83.0
5086,E4,266.017,1983/1000,100,83.0
5087,D2,266.017,0.5,100,83.0
5088,B-2,266.017,0.5,100,83.0
5089,C2,266.017,0.5,100,83.0
5090,E4,266.05,39/20,100,83.0
5091,D2,266.25,0.25,100,83.0
5092,C#3,266.292,2.0,100,83.0
5093,F#2,266.292,2.0,100,83.0
5094,F#3,266.292,2.0,100,83.0
5095,G#2,266.5,0.25,100,83.0
5096,B-2,266.517,0.5,100,83.0
5097,C#3,266.583,2.0,100,83.0
5098,F#2,266.583,2.0,100,83.0
5099,F#3,266.583,2.0,100,83.0
5100,D2,266.75,0.25,100,83.0
5101,C2,266.767,0.25,100,83.0
5102,C#3,266.817,249/125,100,83.0
5103,F#2,266.817,249/125,100,83.0
5104,F#3,266.817,249/125,100,83.0
5105,C#3,266.867,477/250,100,83.0
5106,F#2,266.867,477/250,100,83.0
5107,F#3,266.867,477/250,100,83.0
5108,D2,267.0,0.25,100,83.0
5109,B-2,267.017,0.375,100,83.0
5110,C#3,267.242,249/125,100,83.0
5111,F#2,267.242,249/125,100,83.0
5112,F#3,267.242,249/125,100,83.0
5113,C2,267.25,267/1000,100,83.0
5114,D2,267.25,0.25,100,83.0
5115,D2,267.25,483/1000,100,83.0
5116,C2,267.25,483/1000,100,83.0
5117,C#3,267.367,249/125,100,83.0
5118,F#2,267.367,249/125,100,83.0
5119,F#3,267.367,249/125,100,83.0
5120,G2,267.5,0.25,100,83.0
5121,B-2,267.517,483/1000,100,83.0
5122,D2,267.75,0.25,100,83.0
5123,C#3,268.0,1.0,100,83.0
5124,B-2,268.0,17/1000,100,83.0
5125,E4,268.0,0.25,100,83.0
5126,E4,268.0,1/20,100,83.0
5127,D2,268.0,0.25,100,83.0
5128,E4,268.0,17/1000,100,83.0
5129,E4,268.017,0.25,100,83.0
5130,D2,268.017,0.5,100,83.0
5131,C2,268.017,0.5,100,83.0
5132,E4,268.05,0.25,100,83.0
5133,F#4,268.25,0.25,100,83.0
5134,D2,268.25,0.25,100,83.0
5135,F#4,268.267,0.25,100,83.0
5136,E3,268.292,2.0,100,83.0
5137,B2,268.292,2.0,100,83.0
5138,E2,268.292,2.0,100,83.0
5139,F#4,268.3,0.25,100,83.0
5140,F#4,268.5,1.5,100,83.0
5141,G#2,268.5,0.25,100,83.0
5142,B-2,268.517,0.5,100,83.0
5143,F#4,268.517,1.5,100,83.0
5144,F#4,268.55,1.5,100,83.0
5145,E3,268.583,2.0,100,83.0
5146,B2,268.583,2.0,100,83.0
5147,E2,268.583,2.0,100,83.0
5148,D2,268.75,0.25,100,83.0
5149,C2,268.767,0.25,100,83.0
5150,C#3,268.817,1/125,100,83.0
5151,F#2,268.817,1/125,100,83.0
5152,F#3,268.817,1/125,100,83.0
5153,E3,268.825,2.0,100,83.0
5154,B2,268.825,2.0,100,83.0
5155,E2,268.825,2.0,100,83.0
5156,C#3,268.867,23/250,100,83.0
5157,F#2,268.867,23/250,100,83.0
5158,F#3,268.867,23/250,100,83.0
5159,E3,268.958,2.0,100,83.0
5160,B2,268.958,2.0,100,83.0
5161,E2,268.958,2.0,100,83.0
5162,D2,269.0,0.25,100,83.0
5163,E2,269.017,0.5,100,83.0
5164,B-2,269.017,0.375,100,83.0
5165,D2,269.017,0.25,100,83.0
5166,C#3,269.242,1/125,100,83.0
5167,F#2,269.242,1/125,100,83.0
5168,F#3,269.242,1/125,100,83.0
5169,D2,269.25,0.25,100,83.0
5170,E3,269.25,2.0,100,83.0
5171,B2,269.25,2.0,100,83.0
5172,E2,269.25,2.0,100,83.0
5173,C2,269.267,0.25,100,83.0
5174,C#3,269.367,1/125,100,83.0
5175,F#2,269.367,1/125,100,83.0
5176,F#3,269.367,1/125,100,83.0
5177,E3,269.375,2.0,100,83.0
5178,B2,269.375,2.0,100,83.0
5179,E2,269.375,2.0,100,83.0
5180,G2,269.5,0.25,100,83.0
5181,B-2,269.517,0.5,100,83.0
5182,D2,269.75,0.25,100,83.0
5183,G4,270.0,2.0,100,83.0
5184,D2,270.0,0.25,100,83.0
5185,G4,270.017,1983/1000,100,83.0
5186,D2,270.017,0.5,100,83.0
5187,B-2,270.017,0.5,100,83.0
5188,C2,270.017,0.5,100,83.0
5189,G4,270.05,39/20,100,83.0
5190,D2,270.25,0.25,100,83.0
5191,B2,270.292,2.0,100,83.0
5192,B3,270.292,2.0,100,83.0
5193,F#3,270.292,2.0,100,83.0
5194,G#2,270.5,0.25,100,83.0
5195,B-2,270.517,0.5,100,83.0
5196,B2,270.583,2.0,100,83.0
5197,B3,270.583,2.0,100,83.0
5198,F#3,270.583,2.0,100,83.0
5199,D2,270.75,0.25,100,83.0
5200,C2,270.767,0.25,100,83.0
5201,B2,270.825,249/125,100,83.0
5202,B3,270.825,249/125,100,83.0
5203,F#3,270.825,249/125,100,83.0
5204,B2,270.958,477/250,100,83.0
5205,B3,270.958,477/250,100,83.0
5206,F#3,270.958,477/250,100,83.0
5207,D2,271.0,0.25,100,83.0
5208,E2,271.017,0.5,100,83.0
5209,B-2,271.017,0.375,100,83.0
5210,D2,271.017,0.25,100,83.0
5211,D2,271.25,0.25,100,83.0
5212,B2,271.25,249/125,100,83.0
5213,B3,271.25,249/125,100,83.0
5214,F#3,271.25,249/125,100,83.0
5215,C2,271.267,0.25,100,83.0
5216,B2,271.375,249/125,100,83.0
5217,B3,271.375,249/125,100,83.0
5218,F#3,271.375,249/125,100,83.0
5219,G2,271.5,0.25,100,83.0
5220,B-2,271.517,483/1000,100,83.0
5221,D2,271.75,0.25,100,83.0
5222,B-2,272.0,17/1000,100,83.0
5223,B4,272.0,2.0,100,83.0
5224,G4,272.0,1/20,100,83.0
5225,D2,272.0,0.25,100,83.0
5226,G4,272.0,17/1000,100,83.0
5227,E4,272.0,0.25,100,83.0
5228,B4,272.017,2.0,100,83.0
5229,D2,272.017,0.5,100,83.0
5230,B-2,272.017,0.5,100,83.0
5231,C2,272.017,0.5,100,83.0
5232,B4,272.05,2.0,100,83.0
5233,D2,272.25,0.25,100,83.0
5234,F#4,272.25,0.25,100,83.0
5235,G2,272.292,2.0,100,83.0
5236,D3,272.292,2.0,100,83.0
5237,G3,272.292,2.0,100,83.0
5238,G#2,272.5,0.25,100,83.0
5239,G4,272.5,1.0,100,83.0
5240,B-2,272.517,0.5,100,83.0
5241,G2,272.583,2.0,100,83.0
5242,D3,272.583,2.0,100,83.0
5243,G3,272.583,2.0,100,83.0
5244,D2,272.75,0.25,100,83.0
5245,C2,272.767,0.25,100,83.0
5246,B2,272.825,1/125,100,83.0
5247,B3,272.825,1/125,100,83.0
5248,F#3,272.825,1/125,100,83.0
5249,G2,272.833,2.0,100,83.0
5250,D3,272.833,2.0,100,83.0
5251,G3,272.833,2.0,100,83.0
5252,B2,272.958,23/250,100,83.0
5253,B3,272.958,23/250,100,83.0
5254,F#3,272.958,23/250,100,83.0
5255,D2,273.0,0.25,100,83.0
5256,E2,273.017,0.5,100,83.0
5257,B-2,273.017,0.375,100,83.0
5258,D2,273.017,0.25,100,83.0
5259,G2,273.05,2.0,100,83.0
5260,D3,273.05,2.0,100,83.0
5261,G3,273.05,2.0,100,83.0
5262,D2,273.25,0.25,100,83.0
5263,B2,273.25,1/125,100,83.0
5264,B3,273.25,1/125,100,83.0
5265,F#3,273.25,1/125,100,83.0
5266,G2,273.258,2.0,100,83.0
5267,D3,273.258,2.0,100,83.0
5268,G3,273.258,2.0,100,83.0
5269,C2,273.267,0.25,100,83.0
5270,B2,273.375,1/125,100,83.0
5271,B3,273.375,1/125,100,83.0
5272,F#3,273.375,1/125,100,83.0
5273,G2,273.383,2.0,100,83.0
5274,D3,273.383,2.0,100,83.0
5275,G3,273.383,2.0,100,83.0
5276,G2,273.5,0.25,100,83.0
5277,A4,273.5,0.5,100,83.0
5278,B-2,273.517,0.5,100,83.0
5279,D2,273.75,0.25,100,83.0
5280,A4,274.0,2.0,100,83.0
5281,D2,274.0,0.25,100,83.0
5282,F#4,274.0,1.0,100,83.0
5283,A1,274.0,0.5,100,83.0
5284,D2,274.0,0.5,100,83.0
5285,C2,274.0,0.5,100,83.0
5286,A4,274.017,1983/1000,100,83.0
5287,A4,274.05,39/20,100,83.0
5288,D2,274.25,0.25,100,83.0
5289,C#3,274.292,2.0,100,83.0
5290,F#2,274.292,2.0,100,83.0
5291,F#3,274.292,2.0,100,83.0
5292,G#2,274.5,0.25,100,83.0
5293,C#3,274.583,2.0,100,83.0
5294,F#2,274.583,2.0,100,83.0
5295,F#3,274.583,2.0,100,83.0
5296,E2,274.75,0.25,100,83.0
5297,D2,274.75,0.25,100,83.0
5298,C#3,274.833,249/125,100,83.0
5299,F#2,274.833,249/125,100,83.0
5300,F#3,274.833,249/125,100,83.0
5301,E2,275.0,0.25,100,83.0
5302,D2,275.0,0.25,100,83.0
5303,C#3,275.05,477/250,100,83.0
5304,F#2,275.05,477/250,100,83.0
5305,F#3,275.05,477/250,100,83.0
5306,G2,275.25,0.25,100,83.0
5307,D2,275.25,0.25,100,83.0
5308,C#3,275.258,249/125,100,83.0
5309,F#2,275.258,249/125,100,83.0
5310,F#3,275.258,249/125,100,83.0
5311,C#3,275.383,249/125,100,83.0
5312,F#2,275.383,249/125,100,83.0
5313,F#3,275.383,249/125,100,83.0
5314,G2,275.5,0.25,100,83.0
5315,G2,275.5,0.25,100,83.0
5316,G2,275.75,0.25,100,83.0
5317,D2,275.75,0.25,100,83.0
5318,D2,275.95,1/20,100,83.0
5319,A4,276.0,1/20,100,83.0
5320,D2,276.0,1/5,100,83.0
5321,A4,276.0,17/1000,100,83.0
5322,A1,276.0,0.5,100,83.0
5323,D2,276.0,0.5,100,83.0
5324,C2,276.0,0.5,100,83.0
5325,C#3,276.0,1.0,100,83.0
5326,C#3,276.0,1.0,100,83.0
5327,B3,276.083,2.0,100,83.0
5328,B3,276.083,2.0,100,83.0
5329,B3,276.083,2.0,100,83.0
5330,D2,276.2,0.25,100,83.0
5331,F#3,276.35,2.0,100,83.0
5332,B2,276.35,2.0,100,83.0
5333,B3,276.35,2.0,100,83.0
5334,G#2,276.45,0.25,100,83.0
5335,B4,276.5,0.25,100,83.0
5336,B-2,276.55,0.5,100,83.0
5337,F#3,276.667,2.0,100,83.0
5338,B2,276.667,2.0,100,83.0
5339,B3,276.667,2.0,100,83.0
5340,D2,276.7,0.25,100,83.0
5341,C#5,276.75,0.25,100,83.0
5342,C2,276.8,0.25,100,83.0
5343,C#3,276.833,1/125,100,83.0
5344,F#2,276.833,1/125,100,83.0
5345,F#3,276.833,1/125,100,83.0
5346,F#3,276.917,2.0,100,83.0
5347,B2,276.917,2.0,100,83.0
5348,B3,276.917,2.0,100,83.0
5349,D2,276.95,0.25,100,83.0
5350,D5,277.0,1.0,100,83.0
5351,E2,277.05,0.5,100,83.0
5352,B-2,277.05,0.375,100,83.0
5353,D2,277.05,0.25,100,83.0
5354,C#3,277.05,23/250,100,83.0
5355,F#2,277.05,23/250,100,83.0
5356,F#3,277.05,23/250,100,83.0
5357,F#3,277.133,2.0,100,83.0
5358,B2,277.133,2.0,100,83.0
5359,B3,277.133,2.0,100,83.0
5360,D2,277.2,0.25,100,83.0
5361,C#3,277.258,1/125,100,83.0
5362,F#2,277.258,1/125,100,83.0
5363,F#3,277.258,1/125,100,83.0
5364,C2,277.3,0.25,100,83.0
5365,F#3,277.342,2.0,100,83.0
5366,B2,277.342,2.0,100,83.0
5367,B3,277.342,2.0,100,83.0
5368,C#3,277.383,1/125,100,83.0
5369,F#2,277.383,1/125,100,83.0
5370,F#3,277.383,1/125,100,83.0
5371,G2,277.45,0.25,100,83.0
5372,F#3,277.467,2.0,100,83.0
5373,B2,277.467,2.0,100,83.0
5374,B3,277.467,2.0,100,83.0
5375,B-2,277.55,0.5,100,83.0
5376,D2,277.7,0.25,100,83.0
5377,D2,277.95,0.25,100,83.0
5378,F#5,278.0,1.0,100,83.0
5379,A1,278.0,0.5,100,83.0
5380,A3,278.0,0.5,100,83.0
5381,D2,278.0,0.5,100,83.0
5382,B-2,278.0,0.5,100,83.0
5383,C2,278.0,0.5,100,83.0
5384,G3,278.083,1917/1000,100,83.0
5385,G3,278.083,1917/1000,100,83.0
5386,G3,278.083,1917/1000,100,83.0
5387,D2,278.2,0.25,100,83.0
5388,E2,278.35,971/500,100,83.0
5389,B2,278.35,971/500,100,83.0
5390,E3,278.35,971/500,100,83.0
5391,B3,278.35,971/500,100,83.0
5392,G#2,278.45,0.25,100,83.0
5393,B-2,278.55,0.5,100,83.0
5394,E2,278.667,1917/1000,100,83.0
5395,B2,278.667,1917/1000,100,83.0
5396,E3,278.667,1917/1000,100,83.0
5397,B3,278.667,1917/1000,100,83.0
5398,D2,278.7,0.25,100,83.0
5399,C2,278.8,0.25,100,83.0
5400,E2,278.917,1917/1000,100,83.0
5401,B2,278.917,1917/1000,100,83.0
5402,E3,278.917,1917/1000,100,83.0
5403,B3,278.917,1917/1000,100,83.0
5404,D2,278.95,0.25,100,83.0
5405,B4,279.0,1.0,100,83.0
5406,E2,279.05,0.5,100,83.0
5407,B-2,279.05,0.375,100,83.0
5408,D2,279.05,0.25,100,83.0
5409,E2,279.133,1917/1000,100,83.0
5410,B2,279.133,1917/1000,100,83.0
5411,E3,279.133,1917/1000,100,83.0
5412,B3,279.133,1917/1000,100,83.0
5413,D2,279.2,0.25,100,83.0
5414,C2,279.3,0.25,100,83.0
5415,E2,279.342,1917/1000,100,83.0
5416,B2,279.342,1917/1000,100,83.0
5417,E3,279.342,1917/1000,100,83.0
5418,B3,279.342,1917/1000,100,83.0
5419,G2,279.45,0.25,100,83.0
5420,E2,279.467,1917/1000,100,83.0
5421,B2,279.467,1917/1000,100,83.0
5422,E3,279.467,1917/1000,100,83.0
5423,B3,279.467,1917/1000,100,83.0
5424,B-2,279.55,9/20,100,83.0
5425,D2,279.7,0.25,100,83.0
5426,D2,279.95,1/20,100,83.0
5427,B-2,280.0,1/20,100,83.0
5428,G3,280.0,83/1000,100,83.0
5429,G3,280.0,83/1000,100,83.0
5430,D2,280.0,1/5,100,83.0
5431,G3,280.0,83/1000,100,83.0
5432,D2,280.05,0.5,100,83.0
5433,B-2,280.05,0.5,100,83.0
5434,C2,280.05,0.5,100,83.0
5435,F#3,280.083,2.0,100,83.0
5436,F#3,280.083,2.0,100,83.0
5437,F#3,280.083,2.0,100,83.0
5438,D2,280.2,0.25,100,83.0
5439,E2,280.292,29/500,100,83.0
5440,B2,280.292,29/500,100,83.0
5441,E3,280.292,29/500,100,83.0
5442,B3,280.292,29/500,100,83.0
5443,D2,280.35,2.0,100,83.0
5444,A2,280.35,2.0,100,83.0
5445,D3,280.35,2.0,100,83.0
5446,F#3,280.35,2.0,100,83.0
5447,G#2,280.45,0.25,100,83.0
5448,B-2,280.55,0.5,100,83.0
5449,E2,280.583,83/1000,100,83.0
5450,B2,280.583,83/1000,100,83.0
5451,E3,280.583,83/1000,100,83.0
5452,B3,280.583,83/1000,100,83.0
5453,D2,280.667,2.0,100,83.0
5454,A2,280.667,2.0,100,83.0
5455,D3,280.667,2.0,100,83.0
5456,F#3,280.667,2.0,100,83.0
5457,D2,280.7,0.25,100,83.0
5458,C2,280.8,0.25,100,83.0
5459,E2,280.833,83/1000,100,83.0
5460,B2,280.833,83/1000,100,83.0
5461,E3,280.833,83/1000,100,83.0
5462,B3,280.833,83/1000,100,83.0
5463,D2,280.917,2.0,100,83.0
5464,A2,280.917,2.0,100,83.0
5465,D3,280.917,2.0,100,83.0
5466,F#3,280.917,2.0,100,83.0
5467,D2,280.95,0.25,100,83.0
5468,E2,281.05,0.5,100,83.0
5469,B-2,281.05,0.375,100,83.0
5470,D2,281.05,0.25,100,83.0
5471,E2,281.133,83/1000,100,83.0
5472,B2,281.133,83/1000,100,83.0
5473,E3,281.133,83/1000,100,83.0
5474,B3,281.133,83/1000,100,83.0
5475,D2,281.2,0.25,100,83.0
5476,D2,281.217,2.0,100,83.0
5477,A2,281.217,2.0,100,83.0
5478,D3,281.217,2.0,100,83.0
5479,F#3,281.217,2.0,100,83.0
5480,E2,281.258,83/1000,100,83.0
5481,B2,281.258,83/1000,100,83.0
5482,E3,281.258,83/1000,100,83.0
5483,B3,281.258,83/1000,100,83.0
5484,C2,281.3,0.25,100,83.0
5485,D2,281.342,2.0,100,83.0
5486,A2,281.342,2.0,100,83.0
5487,D3,281.342,2.0,100,83.0
5488,F#3,281.342,2.0,100,83.0
5489,E2,281.383,83/1000,100,83.0
5490,B2,281.383,83/1000,100,83.0
5491,E3,281.383,83/1000,100,83.0
5492,B3,281.383,83/1000,100,83.0
5493,G2,281.45,0.25,100,83.0
5494,D2,281.467,2.0,100,83.0
5495,A2,281.467,2.0,100,83.0
5496,D3,281.467,2.0,100,83.0
5497,F#3,281.467,2.0,100,83.0
5498,B-2,281.55,0.5,100,83.0
5499,D2,281.7,0.25,100,83.0
5500,D2,281.95,0.25,100,83.0
5501,D2,282.05,0.5,100,83.0
5502,B-2,282.05,0.5,100,83.0
5503,C2,282.05,0.5,100,83.0
5504,E3,282.083,1917/1000,100,83.0
5505,E3,282.083,1917/1000,100,83.0
5506,E3,282.083,1917/1000,100,83.0
5507,D2,282.2,0.25,100,83.0
5508,C2,282.35,971/500,100,83.0
5509,G2,282.35,971/500,100,83.0
5510,C3,282.35,971/500,100,83.0
5511,G3,282.35,971/500,100,83.0
5512,G#2,282.45,0.25,100,83.0
5513,B-2,282.55,0.5,100,83.0
5514,C2,282.667,1917/1000,100,83.0
5515,G2,282.667,1917/1000,100,83.0
5516,C3,282.667,1917/1000,100,83.0
5517,G3,282.667,1917/1000,100,83.0
5518,D2,282.7,0.25,100,83.0
5519,C2,282.8,0.25,100,83.0
5520,C2,282.917,1917/1000,100,83.0
5521,G2,282.917,1917/1000,100,83.0
5522,C3,282.917,1917/1000,100,83.0
5523,G3,282.917,1917/1000,100,83.0
5524,D2,282.95,0.25,100,83.0
5525,A3,283.0,0.5,100,83.0
5526,E2,283.0,0.5,100,83.0
5527,B-2,283.05,0.375,100,83.0
5528,D2,283.05,0.25,100,83.0
5529,D2,283.2,0.25,100,83.0
5530,C2,283.217,1917/1000,100,83.0
5531,G2,283.217,1917/1000,100,83.0
5532,C3,283.217,1917/1000,100,83.0
5533,G3,283.217,1917/1000,100,83.0
5534,C2,283.3,0.25,100,83.0
5535,C2,283.342,1917/1000,100,83.0
5536,G2,283.342,1917/1000,100,83.0
5537,C3,283.342,1917/1000,100,83.0
5538,G3,283.342,1917/1000,100,83.0
5539,G2,283.45,0.25,100,83.0
5540,C2,283.467,1917/1000,100,83.0
5541,G2,283.467,1917/1000,100,83.0
5542,C3,283.467,1917/1000,100,83.0
5543,G3,283.467,1917/1000,100,83.0
5544,B-2,283.55,9/20,100,83.0
5545,D2,283.7,0.25,100,83.0
5546,D2,283.95,1/20,100,83.0
5547,C#3,284.0,1.0,100,83.0
5548,B-2,284.0,1/20,100,83.0
5549,E3,284.0,83/1000,100,83.0
5550,E3,284.0,83/1000,100,83.0
5551,D2,284.0,1/5,100,83.0
5552,E3,284.0,83/1000,100,83.0
5553,C#3,284.0,0.5,100,83.0
5554,D2,284.0,0.5,100,83.0
5555,C2,284.0,0.5,100,83.0
5556,B3,284.083,2.0,100,83.0
5557,B3,284.083,2.0,100,83.0
5558,B3,284.083,2.0,100,83.0
5559,D2,284.2,0.25,100,83.0
5560,C2,284.35,29/500,100,83.0
5561,G2,284.35,29/500,100,83.0
5562,C3,284.35,29/500,100,83.0
5563,G3,284.35,29/500,100,83.0
5564,F#3,284.408,2.0,100,83.0
5565,B2,284.408,2.0,100,83.0
5566,B3,284.408,2.0,100,83.0
5567,G#2,284.45,0.25,100,83.0
5568,B4,284.5,0.25,100,83.0
5569,B-2,284.55,0.5,100,83.0
5570,C2,284.667,83/1000,100,83.0
5571,G2,284.667,83/1000,100,83.0
5572,C3,284.667,83/1000,100,83.0
5573,G3,284.667,83/1000,100,83.0
5574,D2,284.7,0.25,100,83.0
5575,C#5,284.75,0.25,100,83.0
5576,F#3,284.75,2.0,100,83.0
5577,B2,284.75,2.0,100,83.0
5578,B3,284.75,2.0,100,83.0
5579,C2,284.8,0.25,100,83.0
5580,C2,284.917,83/1000,100,83.0
5581,G2,284.917,83/1000,100,83.0
5582,C3,284.917,83/1000,100,83.0
5583,G3,284.917,83/1000,100,83.0
5584,D2,284.95,0.25,100,83.0
5585,D5,285.0,1.0,100,83.0
5586,F#3,285.0,2.0,100,83.0
5587,B2,285.0,2.0,100,83.0
5588,B3,285.0,2.0,100,83.0
5589,E2,285.05,0.5,100,83.0
5590,B-2,285.05,0.375,100,83.0
5591,D2,285.05,0.25,100,83.0
5592,D2,285.2,0.25,100,83.0
5593,C2,285.217,83/1000,100,83.0
5594,G2,285.217,83/1000,100,83.0
5595,C3,285.217,83/1000,100,83.0
5596,G3,285.217,83/1000,100,83.0
5597,C2,285.3,0.25,100,83.0
5598,F#3,285.3,2.0,100,83.0
5599,B2,285.3,2.0,100,83.0
5600,B3,285.3,2.0,100,83.0
5601,C2,285.342,83/1000,100,83.0
5602,G2,285.342,83/1000,100,83.0
5603,C3,285.342,83/1000,100,83.0
5604,G3,285.342,83/1000,100,83.0
5605,F#3,285.425,2.0,100,83.0
5606,B2,285.425,2.0,100,83.0
5607,B3,285.425,2.0,100,83.0
5608,G2,285.45,0.25,100,83.0
5609,C2,285.467,83/1000,100,83.0
5610,G2,285.467,83/1000,100,83.0
5611,C3,285.467,83/1000,100,83.0
5612,G3,285.467,83/1000,100,83.0
5613,B-2,285.55,0.5,100,83.0
5614,F#3,285.55,2.0,100,83.0
5615,B2,285.55,2.0,100,83.0
5616,B3,285.55,2.0,100,83.0
5617,D2,285.7,0.25,100,83.0
5618,D2,285.95,0.25,100,83.0
5619,F#5,286.0,1.0,100,83.0
5620,D2,286.05,0.5,100,83.0
5621,B-2,286.05,0.5,100,83.0
5622,C2,286.05,0.5,100,83.0
5623,A3,286.083,1917/1000,100,83.0
5624,A3,286.083,1917/1000,100,83.0
5625,A3,286.083,1917/1000,100,83.0
5626,D2,286.2,0.25,100,83.0
5627,E2,286.25,0.5,100,83.0
5628,E2,286.408,971/500,100,83.0
5629,B2,286.408,971/500,100,83.0
5630,E3,286.408,971/500,100,83.0
5631,B3,286.408,971/500,100,83.0
5632,G#2,286.45,0.25,100,83.0
5633,B-2,286.55,0.5,100,83.0
5634,D2,286.7,0.25,100,83.0
5635,E2,286.75,1917/1000,100,83.0
5636,B2,286.75,1917/1000,100,83.0
5637,E3,286.75,1917/1000,100,83.0
5638,B3,286.75,1917/1000,100,83.0
5639,D2,286.95,0.25,100,83.0
5640,B4,287.0,1.0,100,83.0
5641,E2,287.0,1917/1000,100,83.0
5642,B2,287.0,1917/1000,100,83.0
5643,E3,287.0,1917/1000,100,83.0
5644,B3,287.0,1917/1000,100,83.0
5645,E2,287.05,0.5,100,83.0
5646,B-2,287.05,0.375,100,83.0
5647,D2,287.05,0.25,100,83.0
5648,D2,287.2,0.25,100,83.0
5649,C2,287.3,0.25,100,83.0
5650,E2,287.3,1917/1000,100,83.0
5651,B2,287.3,1917/1000,100,83.0
5652,E3,287.3,1917/1000,100,83.0
5653,B3,287.3,1917/1000,100,83.0
5654,E2,287.425,1917/1000,100,83.0
5655,B2,287.425,1917/1000,100,83.0
5656,E3,287.425,1917/1000,100,83.0
5657,B3,287.425,1917/1000,100,83.0
5658,G2,287.45,0.25,100,83.0
5659,B-2,287.55,9/20,100,83.0
5660,E2,287.55,1917/1000,100,83.0
5661,B2,287.55,1917/1000,100,83.0
5662,E3,287.55,1917/1000,100,83.0
5663,B3,287.55,1917/1000,100,83.0
5664,D2,287.7,0.25,100,83.0
5665,D2,287.95,1/20,100,83.0
5666,B-2,288.0,1/20,100,83.0
5667,A3,288.0,83/1000,100,83.0
5668,A3,288.0,83/1000,100,83.0
5669,D2,288.0,1/5,100,83.0
5670,A3,288.0,83/1000,100,83.0
5671,D2,288.05,0.5,100,83.0
5672,B-2,288.05,0.5,100,83.0
5673,C2,288.05,0.5,100,83.0
5674,G3,288.083,2.0,100,83.0
5675,G3,288.083,2.0,100,83.0
5676,G3,288.083,2.0,100,83.0
5677,D2,288.2,0.25,100,83.0
5678,E2,288.408,29/500,100,83.0
5679,B2,288.408,29/500,100,83.0
5680,E3,288.408,29/500,100,83.0
5681,B3,288.408,29/500,100,83.0
5682,G#2,288.45,0.25,100,83.0
5683,D2,288.467,2.0,100,83.0
5684,A2,288.467,2.0,100,83.0
5685,D3,288.467,2.0,100,83.0
5686,F#3,288.467,2.0,100,83.0
5687,B-2,288.55,0.5,100,83.0
5688,D2,288.7,0.25,100,83.0
5689,E2,288.75,83/1000,100,83.0
5690,B2,288.75,83/1000,100,83.0
5691,E3,288.75,83/1000,100,83.0
5692,B3,288.75,83/1000,100,83.0
5693,C2,288.8,0.25,100,83.0
5694,D2,288.833,2.0,100,83.0
5695,A2,288.833,2.0,100,83.0
5696,D3,288.833,2.0,100,83.0
5697,F#3,288.833,2.0,100,83.0
5698,D2,288.95,0.25,100,83.0
5699,E2,289.0,83/1000,100,83.0
5700,B2,289.0,83/1000,100,83.0
5701,E3,289.0,83/1000,100,83.0
5702,B3,289.0,83/1000,100,83.0
5703,E2,289.05,0.5,100,83.0
5704,B-2,289.05,0.375,100,83.0
5705,D2,289.05,0.25,100,83.0
5706,D2,289.083,2.0,100,83.0
5707,A2,289.083,2.0,100,83.0
5708,D3,289.083,2.0,100,83.0
5709,F#3,289.083,2.0,100,83.0
5710,D2,289.2,0.25,100,83.0
5711,C2,289.3,0.25,100,83.0
5712,E2,289.3,83/1000,100,83.0
5713,B2,289.3,83/1000,100,83.0
5714,E3,289.3,83/1000,100,83.0
5715,B3,289.3,83/1000,100,83.0
5716,D2,289.383,2.0,100,83.0
5717,A2,289.383,2.0,100,83.0
5718,D3,289.383,2.0,100,83.0
5719,F#3,289.383,2.0,100,83.0
5720,E2,289.425,83/1000,100,83.0
5721,B2,289.425,83/1000,100,83.0
5722,E3,289.425,83/1000,100,83.0
5723,B3,289.425,83/1000,100,83.0
5724,G2,289.45,0.25,100,83.0
5725,D2,289.508,2.0,100,83.0
5726,A2,289.508,2.0,100,83.0
5727,D3,289.508,2.0,100,83.0
5728,F#3,289.508,2.0,100,83.0
5729,B-2,289.55,0.5,100,83.0
5730,E2,289.55,83/1000,100,83.0
5731,B2,289.55,83/1000,100,83.0
5732,E3,289.55,83/1000,100,83.0
5733,B3,289.55,83/1000,100,83.0
5734,D2,289.633,2.0,100,83.0
5735,A2,289.633,2.0,100,83.0
5736,D3,289.633,2.0,100,83.0
5737,F#3,289.633,2.0,100,83.0
5738,D2,289.7,0.25,100,83.0
5739,D2,289.95,0.25,100,83.0
5740,D2,290.05,0.5,100,83.0
5741,B-2,290.05,0.5,100,83.0
5742,C2,290.05,0.5,100,83.0
5743,F#3,290.083,1917/1000,100,83.0
5744,F#3,290.083,1917/1000,100,83.0
5745,F#3,290.083,1917/1000,100,83.0
5746,D2,290.2,0.25,100,83.0
5747,G#2,290.45,0.25,100,83.0
5748,C2,290.467,971/500,100,83.0
5749,G2,290.467,971/500,100,83.0
5750,C3,290.467,971/500,100,83.0
5751,G3,290.467,971/500,100,83.0
5752,B-2,290.55,0.5,100,83.0
5753,D2,290.7,0.25,100,83.0
5754,C2,290.833,1917/1000,100,83.0
5755,G2,290.833,1917/1000,100,83.0
5756,C3,290.833,1917/1000,100,83.0
5757,G3,290.833,1917/1000,100,83.0
5758,D2,290.95,0.25,100,83.0
5759,E2,291.008,0.25,100,83.0
5760,B-2,291.008,0.25,100,83.0
5761,B2,291.008,0.25,100,83.0
5762,C2,291.083,1917/1000,100,83.0
5763,G2,291.083,1917/1000,100,83.0
5764,C3,291.083,1917/1000,100,83.0
5765,G3,291.083,1917/1000,100,83.0
5766,D2,291.2,0.25,100,83.0
5767,A2,291.258,0.25,100,83.0
5768,C2,291.383,1917/1000,100,83.0
5769,G2,291.383,1917/1000,100,83.0
5770,C3,291.383,1917/1000,100,83.0
5771,G3,291.383,1917/1000,100,83.0
5772,G2,291.45,0.25,100,83.0
5773,G2,291.508,0.25,100,83.0
5774,C2,291.508,1917/1000,100,83.0
5775,G2,291.508,1917/1000,100,83.0
5776,C3,291.508,1917/1000,100,83.0
5777,G3,291.508,1917/1000,100,83.0
5778,C2,291.633,1917/1000,100,83.0
5779,G2,291.633,1917/1000,100,83.0
5780,C3,291.633,1917/1000,100,83.0
5781,G3,291.633,1917/1000,100,83.0
5782,D2,291.7,0.25,100,83.0
5783,F2,291.758,121/500,100,83.0
5784,D2,291.95,1/20,100,83.0
5785,F2,292.0,1/125,100,83.0
5786,F#3,292.0,83/1000,100,83.0
5787,F#3,292.0,83/1000,100,83.0
5788,D2,292.0,1/5,100,83.0
5789,F#3,292.0,83/1000,100,83.0
5790,C#3,292.017,0.5,100,83.0
5791,D2,292.017,0.5,100,83.0
5792,C#3,292.017,0.5,100,83.0
5793,C2,292.017,0.5,100,83.0
5794,D4,292.083,2.0,100,83.0
5795,D4,292.083,2.0,100,83.0
5796,D4,292.083,2.0,100,83.0
5797,D2,292.2,0.25,100,83.0
5798,G#2,292.45,0.25,100,83.0
5799,C2,292.467,29/500,100,83.0
5800,G2,292.467,29/500,100,83.0
5801,C3,292.467,29/500,100,83.0
5802,G3,292.467,29/500,100,83.0
5803,B-2,292.517,0.5,100,83.0
5804,E3,292.525,2.0,100,83.0
5805,B2,292.525,2.0,100,83.0
5806,E2,292.525,2.0,100,83.0
5807,D2,292.7,0.25,100,83.0
5808,C2,292.767,0.25,100,83.0
5809,C2,292.833,83/1000,100,83.0
5810,G2,292.833,83/1000,100,83.0
5811,C3,292.833,83/1000,100,83.0
5812,G3,292.833,83/1000,100,83.0
5813,E3,292.917,2.0,100,83.0
5814,B2,292.917,2.0,100,83.0
5815,E2,292.917,2.0,100,83.0
5816,D2,292.95,0.25,100,83.0
5817,E2,293.017,0.5,100,83.0
5818,B-2,293.017,0.375,100,83.0
5819,D2,293.017,0.25,100,83.0
5820,C2,293.083,83/1000,100,83.0
5821,G2,293.083,83/1000,100,83.0
5822,C3,293.083,83/1000,100,83.0
5823,G3,293.083,83/1000,100,83.0
5824,E3,293.167,2.0,100,83.0
5825,B2,293.167,2.0,100,83.0
5826,E2,293.167,2.0,100,83.0
5827,D2,293.2,0.25,100,83.0
5828,C2,293.267,0.25,100,83.0
5829,C2,293.383,83/1000,100,83.0
5830,G2,293.383,83/1000,100,83.0
5831,C3,293.383,83/1000,100,83.0
5832,G3,293.383,83/1000,100,83.0
5833,G2,293.45,0.25,100,83.0
5834,E3,293.467,2.0,100,83.0
5835,B2,293.467,2.0,100,83.0
5836,E2,293.467,2.0,100,83.0
5837,C2,293.508,83/1000,100,83.0
5838,G2,293.508,83/1000,100,83.0
5839,C3,293.508,83/1000,100,83.0
5840,G3,293.508,83/1000,100,83.0
5841,B-2,293.517,0.5,100,83.0
5842,E3,293.592,2.0,100,83.0
5843,B2,293.592,2.0,100,83.0
5844,E2,293.592,2.0,100,83.0
5845,C2,293.633,83/1000,100,83.0
5846,G2,293.633,83/1000,100,83.0
5847,C3,293.633,83/1000,100,83.0
5848,G3,293.633,83/1000,100,83.0
5849,D2,293.7,0.25,100,83.0
5850,E3,293.717,2.0,100,83.0
5851,B2,293.717,2.0,100,83.0
5852,E2,293.717,2.0,100,83.0
5853,D2,293.95,0.25,100,83.0
5854,A3,294.0,0.5,100,83.0
5855,D2,294.0,0.5,100,83.0
5856,B-2,294.0,0.5,100,83.0
5857,C2,294.0,0.5,100,83.0
5858,B4,294.083,1917/1000,100,83.0
5859,B4,294.083,1917/1000,100,83.0
5860,B4,294.083,1917/1000,100,83.0
5861,D2,294.2,0.25,100,83.0
5862,G#2,294.45,0.25,100,83.0
5863,B-2,294.517,0.5,100,83.0
5864,B2,294.525,971/500,100,83.0
5865,B3,294.525,971/500,100,83.0
5866,F#3,294.525,971/500,100,83.0
5867,D2,294.7,0.25,100,83.0
5868,C2,294.767,0.25,100,83.0
5869,B2,294.917,1917/1000,100,83.0
5870,B3,294.917,1917/1000,100,83.0
5871,F#3,294.917,1917/1000,100,83.0
5872,D2,294.95,0.25,100,83.0
5873,E2,295.017,0.5,100,83.0
5874,B-2,295.017,0.375,100,83.0
5875,D2,295.017,0.25,100,83.0
5876,B2,295.167,1917/1000,100,83.0
5877,B3,295.167,1917/1000,100,83.0
5878,F#3,295.167,1917/1000,100,83.0
5879,D2,295.2,0.25,100,83.0
5880,C2,295.267,0.25,100,83.0
5881,G2,295.45,0.25,100,83.0
5882,B2,295.467,1917/1000,100,83.0
5883,B3,295.467,1917/1000,100,83.0
5884,F#3,295.467,1917/1000,100,83.0
5885,B-2,295.517,483/1000,100,83.0
5886,B2,295.592,1917/1000,100,83.0
5887,B3,295.592,1917/1000,100,83.0
5888,F#3,295.592,1917/1000,100,83.0
5889,D2,295.7,0.25,100,83.0
5890,B2,295.717,1917/1000,100,83.0
5891,B3,295.717,1917/1000,100,83.0
5892,F#3,295.717,1917/1000,100,83.0
5893,D2,295.95,1/20,100,83.0
5894,B-2,296.0,17/1000,100,83.0
5895,B4,296.0,83/1000,100,83.0
5896,B4,296.0,83/1000,100,83.0
5897,D2,296.0,1/5,100,83.0
5898,B4,296.0,83/1000,100,83.0
5899,E4,296.0,0.25,100,83.0
5900,D2,296.017,0.5,100,83.0
5901,B-2,296.017,0.5,100,83.0
5902,C2,296.017,0.5,100,83.0
5903,A4,296.083,2.0,100,83.0
5904,A4,296.083,2.0,100,83.0
5905,A4,296.083,2.0,100,83.0
5906,D2,296.2,0.25,100,83.0
5907,F#4,296.25,0.25,100,83.0
5908,G#2,296.45,0.25,100,83.0
5909,G4,296.5,1.0,100,83.0
5910,B-2,296.517,0.5,100,83.0
5911,B2,296.525,29/500,100,83.0
5912,B3,296.525,29/500,100,83.0
5913,F#3,296.525,29/500,100,83.0
5914,G2,296.583,2.0,100,83.0
5915,D3,296.583,2.0,100,83.0
5916,G3,296.583,2.0,100,83.0
5917,D2,296.7,0.25,100,83.0
5918,C2,296.767,0.25,100,83.0
5919,B2,296.917,83/1000,100,83.0
5920,B3,296.917,83/1000,100,83.0
5921,F#3,296.917,83/1000,100,83.0
5922,D2,296.95,0.25,100,83.0
5923,G2,297.0,2.0,100,83.0
5924,D3,297.0,2.0,100,83.0
5925,G3,297.0,2.0,100,83.0
5926,E2,297.017,0.5,100,83.0
5927,B-2,297.017,0.375,100,83.0
5928,D2,297.017,0.25,100,83.0
5929,B2,297.167,83/1000,100,83.0
5930,B3,297.167,83/1000,100,83.0
5931,F#3,297.167,83/1000,100,83.0
5932,D2,297.2,0.25,100,83.0
5933,G2,297.25,2.0,100,83.0
5934,D3,297.25,2.0,100,83.0
5935,G3,297.25,2.0,100,83.0
5936,C2,297.267,0.25,100,83.0
5937,G2,297.45,0.25,100,83.0
5938,B2,297.467,83/1000,100,83.0
5939,B3,297.467,83/1000,100,83.0
5940,F#3,297.467,83/1000,100,83.0
5941,A4,297.5,0.5,100,83.0
5942,B-2,297.517,0.5,100,83.0
5943,G2,297.55,2.0,100,83.0
5944,D3,297.55,2.0,100,83.0
5945,G3,297.55,2.0,100,83.0
5946,B2,297.592,83/1000,100,83.0
5947,B3,297.592,83/1000,100,83.0
5948,F#3,297.592,83/1000,100,83.0
5949,G2,297.675,2.0,100,83.0
5950,D3,297.675,2.0,100,83.0
5951,G3,297.675,2.0,100,83.0
5952,D2,297.7,0.25,100,83.0
5953,B2,297.717,83/1000,100,83.0
5954,B3,297.717,83/1000,100,83.0
5955,F#3,297.717,83/1000,100,83.0
5956,G2,297.8,2.0,100,83.0
5957,D3,297.8,2.0,100,83.0
5958,G3,297.8,2.0,100,83.0
5959,D2,297.95,0.25,100,83.0
5960,F#4,298.0,1.0,100,83.0
5961,D2,298.017,0.5,100,83.0
5962,B-2,298.017,0.5,100,83.0
5963,C2,298.017,0.5,100,83.0
5964,E4,298.083,1917/1000,100,83.0
5965,E4,298.083,1917/1000,100,83.0
5966,E4,298.083,1917/1000,100,83.0
5967,D2,298.2,0.25,100,83.0
5968,G#2,298.45,0.25,100,83.0
5969,B-2,298.517,0.5,100,83.0
5970,C#3,298.583,971/500,100,83.0
5971,F#2,298.583,971/500,100,83.0
5972,F#3,298.583,971/500,100,83.0
5973,D2,298.7,0.25,100,83.0
5974,C2,298.767,0.25,100,83.0
5975,D2,298.95,0.25,100,83.0
5976,C#3,299.0,1917/1000,100,83.0
5977,F#2,299.0,1917/1000,100,83.0
5978,F#3,299.0,1917/1000,100,83.0
5979,B-2,299.017,0.375,100,83.0
5980,D2,299.2,0.25,100,83.0
5981,C2,299.25,267/1000,100,83.0
5982,D2,299.25,483/1000,100,83.0
5983,C2,299.25,483/1000,100,83.0
5984,C#3,299.25,1917/1000,100,83.0
5985,F#2,299.25,1917/1000,100,83.0
5986,F#3,299.25,1917/1000,100,83.0
5987,G2,299.45,0.25,100,83.0
5988,B-2,299.517,483/1000,100,83.0
5989,C#3,299.55,1917/1000,100,83.0
5990,F#2,299.55,1917/1000,100,83.0
5991,F#3,299.55,1917/1000,100,83.0
5992,C#3,299.675,1917/1000,100,83.0
5993,F#2,299.675,1917/1000,100,83.0
5994,F#3,299.675,1917/1000,100,83.0
5995,D2,299.7,0.25,100,83.0
5996,C#3,299.8,1917/1000,100,83.0
5997,F#2,299.8,1917/1000,100,83.0
5998,F#3,299.8,1917/1000,100,83.0
5999,D2,299.95,1/20,100,83.0
6000,C#3,300.0,1.0,100,83.0
6001,B-2,300.0,17/1000,100,83.0
6002,E4,300.0,83/1000,100,83.0
6003,E4,300.0,83/1000,100,83.0
6004,D2,300.0,1/5,100,83.0
6005,E4,300.0,83/1000,100,83.0
6006,D2,300.017,0.5,100,83.0
6007,C2,300.017,0.5,100,83.0
6008,E4,300.083,0.25,100,83.0
6009,E4,300.083,0.25,100,83.0
6010,E4,300.083,0.25,100,83.0
6011,D2,300.2,0.25,100,83.0
6012,F#4,300.333,0.25,100,83.0
6013,F#4,300.333,0.25,100,83.0
6014,F#4,300.333,0.25,100,83.0
6015,G#2,300.45,0.25,100,83.0
6016,B-2,300.517,0.5,100,83.0
6017,F#4,300.583,1.5,100,83.0
6018,F#4,300.583,1.5,100,83.0
6019,F#4,300.583,1.5,100,83.0
6020,C#3,300.583,29/500,100,83.0
6021,F#2,300.583,29/500,100,83.0
6022,F#3,300.583,29/500,100,83.0
6023,E3,300.642,2.0,100,83.0
6024,B2,300.642,2.0,100,83.0
6025,E2,300.642,2.0,100,83.0
6026,D2,300.7,0.25,100,83.0
6027,C2,300.767,0.25,100,83.0
6028,D2,300.95,0.25,100,83.0
6029,C#3,301.0,83/1000,100,83.0
6030,F#2,301.0,83/1000,100,83.0
6031,F#3,301.0,83/1000,100,83.0
6032,E2,301.017,0.5,100,83.0
6033,B-2,301.017,0.375,100,83.0
6034,D2,301.017,0.25,100,83.0
6035,E3,301.083,2.0,100,83.0
6036,B2,301.083,2.0,100,83.0
6037,E2,301.083,2.0,100,83.0
6038,D2,301.2,0.25,100,83.0
6039,C#3,301.25,83/1000,100,83.0
6040,F#2,301.25,83/1000,100,83.0
6041,F#3,301.25,83/1000,100,83.0
6042,C2,301.267,0.25,100,83.0
6043,E3,301.333,2.0,100,83.0
6044,B2,301.333,2.0,100,83.0
6045,E2,301.333,2.0,100,83.0
6046,G2,301.45,0.25,100,83.0
6047,B-2,301.517,0.5,100,83.0
6048,C#3,301.55,83/1000,100,83.0
6049,F#2,301.55,83/1000,100,83.0
6050,F#3,301.55,83/1000,100,83.0
6051,E3,301.633,2.0,100,83.0
6052,B2,301.633,2.0,100,83.0
6053,E2,301.633,2.0,100,83.0
6054,C#3,301.675,83/1000,100,83.0
6055,F#2,301.675,83/1000,100,83.0
6056,F#3,301.675,83/1000,100,83.0
6057,D2,301.7,0.25,100,83.0
6058,E3,301.758,2.0,100,83.0
6059,B2,301.758,2.0,100,83.0
6060,E2,301.758,2.0,100,83.0
6061,C#3,301.8,83/1000,100,83.0
6062,F#2,301.8,83/1000,100,83.0
6063,F#3,301.8,83/1000,100,83.0
6064,E3,301.883,2.0,100,83.0
6065,B2,301.883,2.0,100,83.0
6066,E2,301.883,2.0,100,83.0
6067,D2,301.95,0.25,100,83.0
6068,D2,302.017,0.5,100,83.0
6069,B-2,302.017,0.5,100,83.0
6070,C2,302.017,0.5,100,83.0
6071,G4,302.083,1917/1000,100,83.0
6072,G4,302.083,1917/1000,100,83.0
6073,G4,302.083,1917/1000,100,83.0
6074,D2,302.2,0.25,100,83.0
6075,G#2,302.45,0.25,100,83.0
6076,B-2,302.517,0.5,100,83.0
6077,B2,302.642,971/500,100,83.0
6078,B3,302.642,971/500,100,83.0
6079,F#3,302.642,971/500,100,83.0
6080,D2,302.7,0.25,100,83.0
6081,C2,302.767,0.25,100,83.0
6082,D2,302.95,0.25,100,83.0
6083,E2,303.017,0.5,100,83.0
6084,B-2,303.017,0.375,100,83.0
6085,D2,303.017,0.25,100,83.0
6086,B2,303.083,1917/1000,100,83.0
6087,B3,303.083,1917/1000,100,83.0
6088,F#3,303.083,1917/1000,100,83.0
6089,D2,303.2,0.25,100,83.0
6090,C2,303.267,0.25,100,83.0
6091,B2,303.333,1917/1000,100,83.0
6092,B3,303.333,1917/1000,100,83.0
6093,F#3,303.333,1917/1000,100,83.0
6094,G2,303.45,0.25,100,83.0
6095,B-2,303.517,483/1000,100,83.0
6096,B2,303.633,1917/1000,100,83.0
6097,B3,303.633,1917/1000,100,83.0
6098,F#3,303.633,1917/1000,100,83.0
6099,D2,303.7,0.25,100,83.0
6100,B2,303.758,1917/1000,100,83.0
6101,B3,303.758,1917/1000,100,83.0
6102,F#3,303.758,1917/1000,100,83.0
6103,B2,303.883,1917/1000,100,83.0
6104,B3,303.883,1917/1000,100,83.0
6105,F#3,303.883,1917/1000,100,83.0
6106,D2,303.95,1/20,100,83.0
6107,B-2,304.0,17/1000,100,83.0
6108,G4,304.0,83/1000,100,83.0
6109,G4,304.0,83/1000,100,83.0
6110,D2,304.0,1/5,100,83.0
6111,G4,304.0,83/1000,100,83.0
6112,E4,304.0,0.25,100,83.0
6113,D2,304.017,0.5,100,83.0
6114,B-2,304.017,0.5,100,83.0
6115,C2,304.017,0.5,100,83.0
6116,B4,304.083,2.0,100,83.0
6117,B4,304.083,2.0,100,83.0
6118,B4,304.083,2.0,100,83.0
6119,D2,304.2,0.25,100,83.0
6120,F#4,304.25,0.25,100,83.0
6121,G#2,304.45,0.25,100,83.0
6122,E2,304.5,0.25,100,83.0
6123,G4,304.5,1.0,100,83.0
6124,B2,304.642,29/500,100,83.0
6125,B3,304.642,29/500,100,83.0
6126,F#3,304.642,29/500,100,83.0
6127,D2,304.7,0.25,100,83.0
6128,G2,304.7,2.0,100,83.0
6129,D3,304.7,2.0,100,83.0
6130,G3,304.7,2.0,100,83.0
6131,D2,304.95,0.25,100,83.0
6132,E2,305.017,0.5,100,83.0
6133,B-2,305.017,0.375,100,83.0
6134,D2,305.017,0.25,100,83.0
6135,B2,305.083,83/1000,100,83.0
6136,B3,305.083,83/1000,100,83.0
6137,F#3,305.083,83/1000,100,83.0
6138,G2,305.167,2.0,100,83.0
6139,D3,305.167,2.0,100,83.0
6140,G3,305.167,2.0,100,83.0
6141,D2,305.2,0.25,100,83.0
6142,C2,305.267,0.25,100,83.0
6143,B2,305.333,83/1000,100,83.0
6144,B3,305.333,83/1000,100,83.0
6145,F#3,305.333,83/1000,100,83.0
6146,G2,305.417,2.0,100,83.0
6147,D3,305.417,2.0,100,83.0
6148,G3,305.417,2.0,100,83.0
6149,G2,305.45,0.25,100,83.0
6150,A4,305.5,0.5,100,83.0
6151,B-2,305.517,0.5,100,83.0
6152,B2,305.633,83/1000,100,83.0
6153,B3,305.633,83/1000,100,83.0
6154,F#3,305.633,83/1000,100,83.0
6155,D2,305.7,0.25,100,83.0
6156,G2,305.717,2.0,100,83.0
6157,D3,305.717,2.0,100,83.0
6158,G3,305.717,2.0,100,83.0
6159,B2,305.758,83/1000,100,83.0
6160,B3,305.758,83/1000,100,83.0
6161,F#3,305.758,83/1000,100,83.0
6162,G2,305.842,2.0,100,83.0
6163,D3,305.842,2.0,100,83.0
6164,G3,305.842,2.0,100,83.0
6165,B2,305.883,83/1000,100,83.0
6166,B3,305.883,83/1000,100,83.0
6167,F#3,305.883,83/1000,100,83.0
6168,D2,305.95,0.25,100,83.0
6169,G2,305.967,2.0,100,83.0
6170,D3,305.967,2.0,100,83.0
6171,G3,305.967,2.0,100,83.0
6172,F#4,306.0,1.0,100,83.0
6173,A1,306.0,0.5,100,83.0
6174,D2,306.0,0.5,100,83.0
6175,C2,306.0,0.5,100,83.0
6176,A4,306.083,1917/1000,100,83.0
6177,A4,306.083,1917/1000,100,83.0
6178,A4,306.083,1917/1000,100,83.0
6179,D2,306.2,0.25,100,83.0
6180,G#2,306.45,0.25,100,83.0
6181,D2,306.7,0.25,100,83.0
6182,C#3,306.7,971/500,100,83.0
6183,F#2,306.7,971/500,100,83.0
6184,F#3,306.7,971/500,100,83.0
6185,E2,306.75,0.25,100,83.0
6186,D2,306.95,0.25,100,83.0
6187,E2,307.0,0.25,100,83.0
6188,C#3,307.167,1917/1000,100,83.0
6189,F#2,307.167,1917/1000,100,83.0
6190,F#3,307.167,1917/1000,100,83.0
6191,D2,307.2,0.25,100,83.0
6192,A2,307.25,0.25,100,83.0
6193,C#3,307.417,1917/1000,100,83.0
6194,F#2,307.417,1917/1000,100,83.0
6195,F#3,307.417,1917/1000,100,83.0
6196,G2,307.45,0.25,100,83.0
6197,F2,307.5,0.25,100,83.0
6198,D2,307.7,0.25,100,83.0
6199,C#3,307.717,1917/1000,100,83.0
6200,F#2,307.717,1917/1000,100,83.0
6201,F#3,307.717,1917/1000,100,83.0
6202,F2,307.75,0.25,100,83.0
6203,C#3,307.842,1917/1000,100,83.0
6204,F#2,307.842,1917/1000,100,83.0
6205,F#3,307.842,1917/1000,100,83.0
6206,C#3,307.967,1917/1000,100,83.0
6207,F#2,307.967,1917/1000,100,83.0
6208,F#3,307.967,1917/1000,100,83.0
6209,A4,308.0,83/1000,100,83.0
6210,A4,308.0,83/1000,100,83.0
6211,A4,308.0,83/1000,100,83.0
6212,A1,308.0,1.0,100,83.0
6213,B1,308.0,1.0,100,83.0
6214,D2,308.0,1.0,100,83.0
6215,A3,308.0,1.0,100,83.0
6216,B4,308.5,0.25,100,83.0
6217,C#3,308.7,29/500,100,83.0
6218,F#2,308.7,29/500,100,83.0
6219,F#3,308.7,29/500,100,83.0
6220,C#5,308.75,0.25,100,83.0
6221,D5,309.0,1.0,100,83.0
6222,C#3,309.167,83/1000,100,83.0
6223,F#2,309.167,83/1000,100,83.0
6224,F#3,309.167,83/1000,100,83.0
6225,C#3,309.417,83/1000,100,83.0
6226,F#2,309.417,83/1000,100,83.0
6227,F#3,309.417,83/1000,100,83.0
6228,C#3,309.717,83/1000,100,83.0
6229,F#2,309.717,83/1000,100,83.0
6230,F#3,309.717,83/1000,100,83.0
6231,C#3,309.842,83/1000,100,83.0
6232,F#2,309.842,83/1000,100,83.0
6233,F#3,309.842,83/1000,100,83.0
6234,C#3,309.967,83/1000,100,83.0
6235,F#2,309.967,83/1000,100,83.0
6236,F#3,309.967,83/1000,100,83.0
6237,F#5,310.0,1.0,100,83.0
6238,B4,311.0,1.0,100,83.0
6239,E4,312.0,0.25,100,83.0
6240,F#4,312.25,0.25,100,83.0
6241,G4,312.5,1.0,100,83.0
6242,A4,313.5,0.5,100,83.0
6243,F#4,314.0,1.0,100,83.0
6244,B4,316.5,0.25,100,83.0
6245,C#5,316.75,0.25,100,83.0
6246,D5,317.0,1.0,100,83.0
6247,F#5,318.0,1.0,100,83.0
6248,B4,319.0,1.0,100,83.0
6249,E4,320.0,0.25,100,83.0
6250,F#4,320.25,0.25,100,83.0
6251,G4,320.5,1.0,100,83.0
6252,A4,321.5,0.5,100,83.0
6253,F#4,322.0,1.0,100,83.0
6254,F#4,324.0,1.0,100,83.0
6255,E4,325.0,0.25,100,83.0
6256,F#4,325.25,0.25,100,83.0
6257,G4,325.5,2.0,100,83.0
6258,B4,328.0,0.25,100,83.0
6259,C#5,328.25,0.25,100,83.0
6260,D5,328.5,1.0,100,83.0
6261,E5,329.5,0.5,100,83.0
6262,C#5,330.0,1.0,100,83.0
6263,F#4,332.0,1.0,100,83.0
6264,E4,333.0,0.25,100,83.0
6265,F#4,333.25,0.25,100,83.0
6266,G4,333.5,2.0,100,83.0
6267,B4,336.0,0.25,100,83.0
6268,C#5,336.25,0.25,100,83.0
6269,D5,336.5,1.0,100,83.0
6270,E5,337.5,0.5,100,83.0
6271,C#5,338.0,1.0,100,83.0
