,note_name,start_time,duration,velocity,tempo
0,B1,4.0,0.5,95,140.0
1,B2,4.0,4.0,95,140.0
2,B1,4.0,4.0,95,140.0
3,B1,4.5,0.5,95,140.0
4,B1,5.0,0.5,95,140.0
5,B1,5.5,0.5,95,140.0
6,B1,6.0,0.5,95,140.0
7,B1,6.5,0.5,95,140.0
8,B1,7.0,0.5,95,140.0
9,B1,7.5,0.5,95,140.0
10,B1,8.0,0.5,95,140.0
11,B1,8.5,0.5,95,140.0
12,B1,9.0,0.5,95,140.0
13,B1,9.5,0.5,95,140.0
14,B1,10.0,0.5,95,140.0
15,B2,10.0,2.0,95,140.0
16,B1,10.0,2.0,95,140.0
17,B1,10.5,0.5,95,140.0
18,B1,11.0,0.5,95,140.0
19,D2,11.5,0.5,95,140.0
20,D2,12.0,0.5,95,140.0
21,D2,12.5,0.5,95,140.0
22,D2,13.0,0.5,95,140.0
23,D2,13.5,0.5,95,140.0
24,D3,13.5,0.5,95,140.0
25,D2,13.5,0.5,95,140.0
26,D2,14.0,0.5,95,140.0
27,D3,14.0,3.0,95,140.0
28,D2,14.0,3.0,95,140.0
29,D2,14.5,0.5,95,140.0
30,D2,15.0,0.5,95,140.0
31,F2,15.5,0.5,95,140.0
32,F2,16.0,0.5,95,140.0
33,C2,16.5,0.5,95,140.0
34,C2,17.0,0.5,95,140.0
35,C2,17.5,0.5,95,140.0
36,F3,17.5,0.5,95,140.0
37,F2,17.5,0.5,95,140.0
38,C2,18.0,0.5,95,140.0
39,F3,18.0,0.5,95,140.0
40,F2,18.0,0.5,95,140.0
41,C2,18.5,0.5,95,140.0
42,C3,18.5,3.0,95,140.0
43,C2,18.5,3.0,95,140.0
44,C2,19.0,0.5,95,140.0
45,C2,19.5,0.5,95,140.0
46,B1,20.0,0.5,95,140.0
47,B1,20.5,0.5,95,140.0
48,B1,21.0,0.5,95,140.0
49,B1,21.5,0.5,95,140.0
50,B1,22.0,0.5,95,140.0
51,B2,22.0,4.0,95,140.0
52,B1,22.0,4.0,95,140.0
53,B1,22.5,0.5,95,140.0
54,B1,23.0,0.5,95,140.0
55,B1,23.5,0.5,95,140.0
56,B1,24.0,0.5,95,140.0
57,B1,24.5,0.5,95,140.0
58,B1,25.0,0.5,95,140.0
59,B1,25.5,0.5,95,140.0
60,B1,26.0,0.5,95,140.0
61,B1,26.5,0.5,95,140.0
62,B1,27.0,0.5,95,140.0
63,D2,27.5,0.5,95,140.0
64,D2,28.0,0.5,95,140.0
65,B2,28.0,2.0,95,140.0
66,B1,28.0,2.0,95,140.0
67,D2,28.5,0.5,95,140.0
68,D2,29.0,0.5,95,140.0
69,D2,29.5,0.5,95,140.0
70,D2,30.0,0.5,95,140.0
71,D2,30.5,0.5,95,140.0
72,D2,31.0,0.5,95,140.0
73,F2,31.5,0.5,95,140.0
74,D3,31.5,0.5,95,140.0
75,D2,31.5,0.5,95,140.0
76,F2,32.0,0.5,95,140.0
77,D3,32.0,3.0,95,140.0
78,D2,32.0,3.0,95,140.0
79,C2,32.5,0.5,95,140.0
80,C2,33.0,0.5,95,140.0
81,C2,33.5,0.5,95,140.0
82,C2,34.0,0.5,95,140.0
83,C2,34.5,0.5,95,140.0
84,C2,35.0,0.5,95,140.0
85,C2,35.5,0.5,95,140.0
86,G2,35.5,0.5,95,140.0
87,F2,35.5,0.5,95,140.0
88,C4,35.5,0.5,95,140.0
89,G3,35.5,0.5,95,140.0
90,F3,35.5,0.5,95,140.0
91,F2,35.5,0.5,95,140.0
92,B0,36.0,0.5,95,140.0
93,B2,36.0,0.5,95,140.0
94,F#2,36.0,0.5,95,140.0
95,B1,36.0,0.5,95,140.0
96,B2,36.0,0.5,95,140.0
97,F#2,36.0,0.5,95,140.0
98,B1,36.0,0.5,95,140.0
99,G2,36.0,0.5,95,140.0
100,F2,36.0,0.5,95,140.0
101,C4,36.0,0.5,95,140.0
102,G3,36.0,0.5,95,140.0
103,F3,36.0,0.5,95,140.0
104,F2,36.0,0.5,95,140.0
105,B0,36.5,0.5,95,140.0
106,B2,36.5,0.5,95,140.0
107,F#2,36.5,0.5,95,140.0
108,B1,36.5,0.5,95,140.0
109,B2,36.5,0.5,95,140.0
110,F#2,36.5,0.5,95,140.0
111,B1,36.5,0.5,95,140.0
112,G2,36.5,0.5,95,140.0
113,F2,36.5,0.5,95,140.0
114,C4,36.5,0.5,95,140.0
115,G3,36.5,0.5,95,140.0
116,C3,36.5,3.0,95,140.0
117,C2,36.5,3.0,95,140.0
118,B0,37.0,0.5,95,140.0
119,B2,37.0,0.5,95,140.0
120,F#2,37.0,0.5,95,140.0
121,B1,37.0,0.5,95,140.0
122,B2,37.0,0.5,95,140.0
123,F#2,37.0,0.5,95,140.0
124,B1,37.0,0.5,95,140.0
125,G2,37.0,0.5,95,140.0
126,F2,37.0,0.5,95,140.0
127,C4,37.0,0.5,95,140.0
128,G3,37.0,0.5,95,140.0
129,B0,37.5,0.5,95,140.0
130,B2,37.5,0.5,95,140.0
131,F#2,37.5,0.5,95,140.0
132,B1,37.5,0.5,95,140.0
133,B2,37.5,0.5,95,140.0
134,F#2,37.5,0.5,95,140.0
135,B1,37.5,0.5,95,140.0
136,B0,38.0,0.5,95,140.0
137,B2,38.0,0.5,95,140.0
138,F#2,38.0,0.5,95,140.0
139,B1,38.0,0.5,95,140.0
140,B2,38.0,0.5,95,140.0
141,F#2,38.0,0.5,95,140.0
142,B1,38.0,0.5,95,140.0
143,G2,38.0,0.5,95,140.0
144,F2,38.0,0.5,95,140.0
145,C4,38.0,0.5,95,140.0
146,G3,38.0,0.5,95,140.0
147,B0,38.5,0.5,95,140.0
148,B2,38.5,0.5,95,140.0
149,F#2,38.5,0.5,95,140.0
150,B1,38.5,0.5,95,140.0
151,B2,38.5,0.5,95,140.0
152,F#2,38.5,0.5,95,140.0
153,B1,38.5,0.5,95,140.0
154,G2,38.5,0.5,95,140.0
155,F2,38.5,0.5,95,140.0
156,C4,38.5,0.5,95,140.0
157,G3,38.5,0.5,95,140.0
158,B0,39.0,0.5,95,140.0
159,B2,39.0,0.5,95,140.0
160,F#2,39.0,0.5,95,140.0
161,B1,39.0,0.5,95,140.0
162,B2,39.0,0.5,95,140.0
163,F#2,39.0,0.5,95,140.0
164,B1,39.0,0.5,95,140.0
165,B0,39.5,0.5,95,140.0
166,B2,39.5,0.5,95,140.0
167,F#2,39.5,0.5,95,140.0
168,B1,39.5,0.5,95,140.0
169,B2,39.5,0.5,95,140.0
170,F#2,39.5,0.5,95,140.0
171,B1,39.5,0.5,95,140.0
172,G2,39.5,0.5,95,140.0
173,F2,39.5,0.5,95,140.0
174,C4,39.5,0.5,95,140.0
175,G3,39.5,0.5,95,140.0
176,B0,40.0,0.5,95,140.0
177,B2,40.0,0.5,95,140.0
178,F#2,40.0,0.5,95,140.0
179,B1,40.0,0.5,95,140.0
180,B2,40.0,0.5,95,140.0
181,F#2,40.0,0.5,95,140.0
182,B1,40.0,0.5,95,140.0
183,G2,40.0,0.5,95,140.0
184,F2,40.0,0.5,95,140.0
185,C4,40.0,0.5,95,140.0
186,G3,40.0,0.5,95,140.0
187,B2,40.0,4.0,95,140.0
188,B1,40.0,4.0,95,140.0
189,B0,40.5,0.5,95,140.0
190,B2,40.5,0.5,95,140.0
191,F#2,40.5,0.5,95,140.0
192,B1,40.5,0.5,95,140.0
193,B2,40.5,0.5,95,140.0
194,F#2,40.5,0.5,95,140.0
195,B1,40.5,0.5,95,140.0
196,G2,40.5,0.5,95,140.0
197,F2,40.5,0.5,95,140.0
198,C4,40.5,0.5,95,140.0
199,G3,40.5,0.5,95,140.0
200,B0,41.0,0.5,95,140.0
201,B2,41.0,0.5,95,140.0
202,F#2,41.0,0.5,95,140.0
203,B1,41.0,0.5,95,140.0
204,B2,41.0,0.5,95,140.0
205,F#2,41.0,0.5,95,140.0
206,B1,41.0,0.5,95,140.0
207,G2,41.0,0.5,95,140.0
208,F2,41.0,0.5,95,140.0
209,C4,41.0,0.5,95,140.0
210,G3,41.0,0.5,95,140.0
211,B0,41.5,0.5,95,140.0
212,B2,41.5,0.5,95,140.0
213,F#2,41.5,0.5,95,140.0
214,B1,41.5,0.5,95,140.0
215,B2,41.5,0.5,95,140.0
216,F#2,41.5,0.5,95,140.0
217,B1,41.5,0.5,95,140.0
218,B0,42.0,0.5,95,140.0
219,B2,42.0,0.5,95,140.0
220,F#2,42.0,0.5,95,140.0
221,B1,42.0,0.5,95,140.0
222,B2,42.0,0.5,95,140.0
223,F#2,42.0,0.5,95,140.0
224,B1,42.0,0.5,95,140.0
225,G2,42.0,0.5,95,140.0
226,F2,42.0,0.5,95,140.0
227,C4,42.0,0.5,95,140.0
228,G3,42.0,0.5,95,140.0
229,B0,42.5,0.5,95,140.0
230,B2,42.5,0.5,95,140.0
231,F#2,42.5,0.5,95,140.0
232,B1,42.5,0.5,95,140.0
233,B2,42.5,0.5,95,140.0
234,F#2,42.5,0.5,95,140.0
235,B1,42.5,0.5,95,140.0
236,G2,42.5,0.5,95,140.0
237,F2,42.5,0.5,95,140.0
238,C4,42.5,0.5,95,140.0
239,G3,42.5,0.5,95,140.0
240,B0,43.0,0.5,95,140.0
241,B2,43.0,0.5,95,140.0
242,F#2,43.0,0.5,95,140.0
243,B1,43.0,0.5,95,140.0
244,B2,43.0,0.5,95,140.0
245,F#2,43.0,0.5,95,140.0
246,B1,43.0,0.5,95,140.0
247,G2,43.0,0.5,95,140.0
248,F2,43.0,0.5,95,140.0
249,C4,43.0,0.5,95,140.0
250,G3,43.0,0.5,95,140.0
251,D1,43.5,0.5,95,140.0
252,D3,43.5,0.5,95,140.0
253,A2,43.5,0.5,95,140.0
254,D2,43.5,0.5,95,140.0
255,D3,43.5,0.5,95,140.0
256,A2,43.5,0.5,95,140.0
257,D2,43.5,0.5,95,140.0
258,D1,44.0,0.5,95,140.0
259,D3,44.0,0.5,95,140.0
260,A2,44.0,0.5,95,140.0
261,D2,44.0,0.5,95,140.0
262,D3,44.0,0.5,95,140.0
263,A2,44.0,0.5,95,140.0
264,D2,44.0,0.5,95,140.0
265,G2,44.0,0.5,95,140.0
266,F2,44.0,0.5,95,140.0
267,C4,44.0,0.5,95,140.0
268,G3,44.0,0.5,95,140.0
269,D1,44.5,0.5,95,140.0
270,D3,44.5,0.5,95,140.0
271,A2,44.5,0.5,95,140.0
272,D2,44.5,0.5,95,140.0
273,D3,44.5,0.5,95,140.0
274,A2,44.5,0.5,95,140.0
275,D2,44.5,0.5,95,140.0
276,G2,44.5,0.5,95,140.0
277,F2,44.5,0.5,95,140.0
278,C4,44.5,0.5,95,140.0
279,G3,44.5,0.5,95,140.0
280,D1,45.0,0.5,95,140.0
281,D3,45.0,0.5,95,140.0
282,A2,45.0,0.5,95,140.0
283,D2,45.0,0.5,95,140.0
284,D3,45.0,0.5,95,140.0
285,A2,45.0,0.5,95,140.0
286,D2,45.0,0.5,95,140.0
287,G2,45.0,0.5,95,140.0
288,F2,45.0,0.5,95,140.0
289,C4,45.0,0.5,95,140.0
290,G3,45.0,0.5,95,140.0
291,D1,45.5,0.5,95,140.0
292,D3,45.5,0.5,95,140.0
293,A2,45.5,0.5,95,140.0
294,D2,45.5,0.5,95,140.0
295,D3,45.5,0.5,95,140.0
296,A2,45.5,0.5,95,140.0
297,D2,45.5,0.5,95,140.0
298,D1,46.0,0.5,95,140.0
299,D3,46.0,0.5,95,140.0
300,A2,46.0,0.5,95,140.0
301,D2,46.0,0.5,95,140.0
302,D3,46.0,0.5,95,140.0
303,A2,46.0,0.5,95,140.0
304,D2,46.0,0.5,95,140.0
305,G2,46.0,0.5,95,140.0
306,F2,46.0,0.5,95,140.0
307,C4,46.0,0.5,95,140.0
308,G3,46.0,0.5,95,140.0
309,B2,46.0,2.0,95,140.0
310,B1,46.0,2.0,95,140.0
311,D1,46.5,0.5,95,140.0
312,D3,46.5,0.5,95,140.0
313,A2,46.5,0.5,95,140.0
314,D2,46.5,0.5,95,140.0
315,D3,46.5,0.5,95,140.0
316,A2,46.5,0.5,95,140.0
317,D2,46.5,0.5,95,140.0
318,G2,46.5,0.5,95,140.0
319,F2,46.5,0.5,95,140.0
320,C4,46.5,0.5,95,140.0
321,G3,46.5,0.5,95,140.0
322,D1,47.0,0.5,95,140.0
323,D3,47.0,0.5,95,140.0
324,A2,47.0,0.5,95,140.0
325,D2,47.0,0.5,95,140.0
326,D3,47.0,0.5,95,140.0
327,A2,47.0,0.5,95,140.0
328,D2,47.0,0.5,95,140.0
329,F1,47.5,0.5,95,140.0
330,F3,47.5,0.5,95,140.0
331,C3,47.5,0.5,95,140.0
332,F2,47.5,0.5,95,140.0
333,F3,47.5,0.5,95,140.0
334,C3,47.5,0.5,95,140.0
335,F2,47.5,0.5,95,140.0
336,G2,47.5,0.5,95,140.0
337,F2,47.5,0.5,95,140.0
338,C4,47.5,0.5,95,140.0
339,G3,47.5,0.5,95,140.0
340,F1,48.0,0.5,95,140.0
341,F3,48.0,0.5,95,140.0
342,C3,48.0,0.5,95,140.0
343,F2,48.0,0.5,95,140.0
344,F3,48.0,0.5,95,140.0
345,C3,48.0,0.5,95,140.0
346,F2,48.0,0.5,95,140.0
347,G2,48.0,0.5,95,140.0
348,F2,48.0,0.5,95,140.0
349,C4,48.0,0.5,95,140.0
350,G3,48.0,0.5,95,140.0
351,C1,48.5,0.5,95,140.0
352,C3,48.5,0.5,95,140.0
353,G2,48.5,0.5,95,140.0
354,C2,48.5,0.5,95,140.0
355,C3,48.5,0.5,95,140.0
356,G2,48.5,0.5,95,140.0
357,C2,48.5,0.5,95,140.0
358,G2,48.5,0.5,95,140.0
359,F2,48.5,0.5,95,140.0
360,C4,48.5,0.5,95,140.0
361,G3,48.5,0.5,95,140.0
362,C1,49.0,0.5,95,140.0
363,C3,49.0,0.5,95,140.0
364,G2,49.0,0.5,95,140.0
365,C2,49.0,0.5,95,140.0
366,C3,49.0,0.5,95,140.0
367,G2,49.0,0.5,95,140.0
368,C2,49.0,0.5,95,140.0
369,G2,49.0,0.5,95,140.0
370,F2,49.0,0.5,95,140.0
371,C4,49.0,0.5,95,140.0
372,G3,49.0,0.5,95,140.0
373,C1,49.5,0.5,95,140.0
374,C3,49.5,0.5,95,140.0
375,G2,49.5,0.5,95,140.0
376,C2,49.5,0.5,95,140.0
377,C3,49.5,0.5,95,140.0
378,G2,49.5,0.5,95,140.0
379,C2,49.5,0.5,95,140.0
380,D3,49.5,0.5,95,140.0
381,D2,49.5,0.5,95,140.0
382,C1,50.0,0.5,95,140.0
383,C3,50.0,0.5,95,140.0
384,G2,50.0,0.5,95,140.0
385,C2,50.0,0.5,95,140.0
386,C3,50.0,0.5,95,140.0
387,G2,50.0,0.5,95,140.0
388,C2,50.0,0.5,95,140.0
389,G2,50.0,0.5,95,140.0
390,F2,50.0,0.5,95,140.0
391,C4,50.0,0.5,95,140.0
392,G3,50.0,0.5,95,140.0
393,D3,50.0,3.0,95,140.0
394,D2,50.0,3.0,95,140.0
395,C1,50.5,0.5,95,140.0
396,C3,50.5,0.5,95,140.0
397,G2,50.5,0.5,95,140.0
398,C2,50.5,0.5,95,140.0
399,C3,50.5,0.5,95,140.0
400,G2,50.5,0.5,95,140.0
401,C2,50.5,0.5,95,140.0
402,G2,50.5,0.5,95,140.0
403,F2,50.5,0.5,95,140.0
404,C4,50.5,0.5,95,140.0
405,G3,50.5,0.5,95,140.0
406,C1,51.0,0.5,95,140.0
407,C3,51.0,0.5,95,140.0
408,G2,51.0,0.5,95,140.0
409,C2,51.0,0.5,95,140.0
410,C3,51.0,0.5,95,140.0
411,G2,51.0,0.5,95,140.0
412,C2,51.0,0.5,95,140.0
413,G2,51.0,0.5,95,140.0
414,F2,51.0,0.5,95,140.0
415,C4,51.0,0.5,95,140.0
416,G3,51.0,0.5,95,140.0
417,C1,51.5,0.5,95,140.0
418,C3,51.5,0.5,95,140.0
419,G2,51.5,0.5,95,140.0
420,C2,51.5,0.5,95,140.0
421,C3,51.5,0.5,95,140.0
422,G2,51.5,0.5,95,140.0
423,C2,51.5,0.5,95,140.0
424,B0,52.0,0.5,95,140.0
425,B2,52.0,0.5,95,140.0
426,F#2,52.0,0.5,95,140.0
427,B1,52.0,0.5,95,140.0
428,B2,52.0,0.5,95,140.0
429,F#2,52.0,0.5,95,140.0
430,B1,52.0,0.5,95,140.0
431,C#3,52.0,0.5,95,140.0
432,G2,52.0,0.5,95,140.0
433,F2,52.0,0.5,95,140.0
434,C4,52.0,0.5,95,140.0
435,G3,52.0,0.5,95,140.0
436,B0,52.5,0.5,95,140.0
437,B2,52.5,0.5,95,140.0
438,F#2,52.5,0.5,95,140.0
439,B1,52.5,0.5,95,140.0
440,B2,52.5,0.5,95,140.0
441,F#2,52.5,0.5,95,140.0
442,B1,52.5,0.5,95,140.0
443,G2,52.5,0.5,95,140.0
444,F2,52.5,0.5,95,140.0
445,C4,52.5,0.5,95,140.0
446,G3,52.5,0.5,95,140.0
447,B0,53.0,0.5,95,140.0
448,B2,53.0,0.5,95,140.0
449,F#2,53.0,0.5,95,140.0
450,B1,53.0,0.5,95,140.0
451,B2,53.0,0.5,95,140.0
452,F#2,53.0,0.5,95,140.0
453,B1,53.0,0.5,95,140.0
454,G2,53.0,0.5,95,140.0
455,F2,53.0,0.5,95,140.0
456,C4,53.0,0.5,95,140.0
457,G3,53.0,0.5,95,140.0
458,B0,53.5,0.5,95,140.0
459,B2,53.5,0.5,95,140.0
460,F#2,53.5,0.5,95,140.0
461,B1,53.5,0.5,95,140.0
462,B2,53.5,0.5,95,140.0
463,F#2,53.5,0.5,95,140.0
464,B1,53.5,0.5,95,140.0
465,F3,53.5,0.5,95,140.0
466,F2,53.5,0.5,95,140.0
467,B0,54.0,0.5,95,140.0
468,B2,54.0,0.5,95,140.0
469,F#2,54.0,0.5,95,140.0
470,B1,54.0,0.5,95,140.0
471,B2,54.0,0.5,95,140.0
472,F#2,54.0,0.5,95,140.0
473,B1,54.0,0.5,95,140.0
474,G2,54.0,0.5,95,140.0
475,F2,54.0,0.5,95,140.0
476,C4,54.0,0.5,95,140.0
477,G3,54.0,0.5,95,140.0
478,F3,54.0,0.5,95,140.0
479,F2,54.0,0.5,95,140.0
480,B0,54.5,0.5,95,140.0
481,B2,54.5,0.5,95,140.0
482,F#2,54.5,0.5,95,140.0
483,B1,54.5,0.5,95,140.0
484,B2,54.5,0.5,95,140.0
485,F#2,54.5,0.5,95,140.0
486,B1,54.5,0.5,95,140.0
487,G2,54.5,0.5,95,140.0
488,F2,54.5,0.5,95,140.0
489,C4,54.5,0.5,95,140.0
490,G3,54.5,0.5,95,140.0
491,C3,54.5,3.0,95,140.0
492,C2,54.5,3.0,95,140.0
493,B0,55.0,0.5,95,140.0
494,B2,55.0,0.5,95,140.0
495,F#2,55.0,0.5,95,140.0
496,B1,55.0,0.5,95,140.0
497,B2,55.0,0.5,95,140.0
498,F#2,55.0,0.5,95,140.0
499,B1,55.0,0.5,95,140.0
500,B0,55.5,0.5,95,140.0
501,B2,55.5,0.5,95,140.0
502,F#2,55.5,0.5,95,140.0
503,B1,55.5,0.5,95,140.0
504,B2,55.5,0.5,95,140.0
505,F#2,55.5,0.5,95,140.0
506,B1,55.5,0.5,95,140.0
507,G2,55.5,0.5,95,140.0
508,F2,55.5,0.5,95,140.0
509,C4,55.5,0.5,95,140.0
510,G3,55.5,0.5,95,140.0
511,B0,56.0,0.5,95,140.0
512,B2,56.0,0.5,95,140.0
513,F#2,56.0,0.5,95,140.0
514,B1,56.0,0.5,95,140.0
515,B2,56.0,0.5,95,140.0
516,F#2,56.0,0.5,95,140.0
517,B1,56.0,0.5,95,140.0
518,G2,56.0,0.5,95,140.0
519,F2,56.0,0.5,95,140.0
520,C4,56.0,0.5,95,140.0
521,G3,56.0,0.5,95,140.0
522,B0,56.5,0.5,95,140.0
523,B2,56.5,0.5,95,140.0
524,F#2,56.5,0.5,95,140.0
525,B1,56.5,0.5,95,140.0
526,B2,56.5,0.5,95,140.0
527,F#2,56.5,0.5,95,140.0
528,B1,56.5,0.5,95,140.0
529,G2,56.5,0.5,95,140.0
530,F2,56.5,0.5,95,140.0
531,C4,56.5,0.5,95,140.0
532,G3,56.5,0.5,95,140.0
533,B0,57.0,0.5,95,140.0
534,B2,57.0,0.5,95,140.0
535,F#2,57.0,0.5,95,140.0
536,B1,57.0,0.5,95,140.0
537,B2,57.0,0.5,95,140.0
538,F#2,57.0,0.5,95,140.0
539,B1,57.0,0.5,95,140.0
540,G2,57.0,0.5,95,140.0
541,F2,57.0,0.5,95,140.0
542,C4,57.0,0.5,95,140.0
543,G3,57.0,0.5,95,140.0
544,B0,57.5,0.5,95,140.0
545,B2,57.5,0.5,95,140.0
546,F#2,57.5,0.5,95,140.0
547,B1,57.5,0.5,95,140.0
548,B2,57.5,0.5,95,140.0
549,F#2,57.5,0.5,95,140.0
550,B1,57.5,0.5,95,140.0
551,B0,58.0,0.5,95,140.0
552,B2,58.0,0.5,95,140.0
553,F#2,58.0,0.5,95,140.0
554,B1,58.0,0.5,95,140.0
555,B2,58.0,0.5,95,140.0
556,F#2,58.0,0.5,95,140.0
557,B1,58.0,0.5,95,140.0
558,G2,58.0,0.5,95,140.0
559,F2,58.0,0.5,95,140.0
560,C4,58.0,0.5,95,140.0
561,G3,58.0,0.5,95,140.0
562,B2,58.0,4.0,95,140.0
563,B1,58.0,4.0,95,140.0
564,B0,58.5,0.5,95,140.0
565,B2,58.5,0.5,95,140.0
566,F#2,58.5,0.5,95,140.0
567,B1,58.5,0.5,95,140.0
568,B2,58.5,0.5,95,140.0
569,F#2,58.5,0.5,95,140.0
570,B1,58.5,0.5,95,140.0
571,G2,58.5,0.5,95,140.0
572,F2,58.5,0.5,95,140.0
573,C4,58.5,0.5,95,140.0
574,G3,58.5,0.5,95,140.0
575,B0,59.0,0.5,95,140.0
576,B2,59.0,0.5,95,140.0
577,F#2,59.0,0.5,95,140.0
578,B1,59.0,0.5,95,140.0
579,B2,59.0,0.5,95,140.0
580,F#2,59.0,0.5,95,140.0
581,B1,59.0,0.5,95,140.0
582,G2,59.0,0.5,95,140.0
583,F2,59.0,0.5,95,140.0
584,C4,59.0,0.5,95,140.0
585,G3,59.0,0.5,95,140.0
586,D1,59.5,0.5,95,140.0
587,D3,59.5,0.5,95,140.0
588,A2,59.5,0.5,95,140.0
589,D2,59.5,0.5,95,140.0
590,D3,59.5,0.5,95,140.0
591,A2,59.5,0.5,95,140.0
592,D2,59.5,0.5,95,140.0
593,D1,60.0,0.5,95,140.0
594,D3,60.0,0.5,95,140.0
595,A2,60.0,0.5,95,140.0
596,D2,60.0,0.5,95,140.0
597,D3,60.0,0.5,95,140.0
598,A2,60.0,0.5,95,140.0
599,D2,60.0,0.5,95,140.0
600,G2,60.0,0.5,95,140.0
601,F2,60.0,0.5,95,140.0
602,C4,60.0,0.5,95,140.0
603,G3,60.0,0.5,95,140.0
604,D1,60.5,0.5,95,140.0
605,D3,60.5,0.5,95,140.0
606,A2,60.5,0.5,95,140.0
607,D2,60.5,0.5,95,140.0
608,D3,60.5,0.5,95,140.0
609,A2,60.5,0.5,95,140.0
610,D2,60.5,0.5,95,140.0
611,G2,60.5,0.5,95,140.0
612,F2,60.5,0.5,95,140.0
613,C4,60.5,0.5,95,140.0
614,G3,60.5,0.5,95,140.0
615,D1,61.0,0.5,95,140.0
616,D3,61.0,0.5,95,140.0
617,A2,61.0,0.5,95,140.0
618,D2,61.0,0.5,95,140.0
619,D3,61.0,0.5,95,140.0
620,A2,61.0,0.5,95,140.0
621,D2,61.0,0.5,95,140.0
622,G2,61.0,0.5,95,140.0
623,F2,61.0,0.5,95,140.0
624,C4,61.0,0.5,95,140.0
625,G3,61.0,0.5,95,140.0
626,D1,61.5,0.5,95,140.0
627,D3,61.5,0.5,95,140.0
628,A2,61.5,0.5,95,140.0
629,D2,61.5,0.5,95,140.0
630,D3,61.5,0.5,95,140.0
631,A2,61.5,0.5,95,140.0
632,D2,61.5,0.5,95,140.0
633,D1,62.0,0.5,95,140.0
634,D3,62.0,0.5,95,140.0
635,A2,62.0,0.5,95,140.0
636,D2,62.0,0.5,95,140.0
637,D3,62.0,0.5,95,140.0
638,A2,62.0,0.5,95,140.0
639,D2,62.0,0.5,95,140.0
640,G2,62.0,0.5,95,140.0
641,F2,62.0,0.5,95,140.0
642,C4,62.0,0.5,95,140.0
643,G3,62.0,0.5,95,140.0
644,D1,62.5,0.5,95,140.0
645,D3,62.5,0.5,95,140.0
646,A2,62.5,0.5,95,140.0
647,D2,62.5,0.5,95,140.0
648,D3,62.5,0.5,95,140.0
649,A2,62.5,0.5,95,140.0
650,D2,62.5,0.5,95,140.0
651,G2,62.5,0.5,95,140.0
652,F2,62.5,0.5,95,140.0
653,C4,62.5,0.5,95,140.0
654,G3,62.5,0.5,95,140.0
655,D1,63.0,0.5,95,140.0
656,D3,63.0,0.5,95,140.0
657,A2,63.0,0.5,95,140.0
658,D2,63.0,0.5,95,140.0
659,D3,63.0,0.5,95,140.0
660,A2,63.0,0.5,95,140.0
661,D2,63.0,0.5,95,140.0
662,F1,63.5,0.5,95,140.0
663,F3,63.5,0.5,95,140.0
664,C3,63.5,0.5,95,140.0
665,F2,63.5,0.5,95,140.0
666,F3,63.5,0.5,95,140.0
667,C3,63.5,0.5,95,140.0
668,F2,63.5,0.5,95,140.0
669,G2,63.5,0.5,95,140.0
670,F2,63.5,0.5,95,140.0
671,C4,63.5,0.5,95,140.0
672,G3,63.5,0.5,95,140.0
673,F1,64.0,0.5,95,140.0
674,F3,64.0,0.5,95,140.0
675,C3,64.0,0.5,95,140.0
676,F2,64.0,0.5,95,140.0
677,F3,64.0,0.5,95,140.0
678,C3,64.0,0.5,95,140.0
679,F2,64.0,0.5,95,140.0
680,G2,64.0,0.5,95,140.0
681,F2,64.0,0.5,95,140.0
682,C4,64.0,0.5,95,140.0
683,G3,64.0,0.5,95,140.0
684,B2,64.0,2.0,95,140.0
685,B1,64.0,2.0,95,140.0
686,C1,64.5,0.5,95,140.0
687,E2,64.5,0.25,95,140.0
688,C3,64.5,0.5,95,140.0
689,G2,64.5,0.5,95,140.0
690,C2,64.5,0.5,95,140.0
691,C3,64.5,0.5,95,140.0
692,G2,64.5,0.5,95,140.0
693,C2,64.5,0.5,95,140.0
694,C4,64.5,0.5,95,140.0
695,G3,64.5,0.5,95,140.0
696,E2,64.75,0.25,95,140.0
697,C1,65.0,0.5,95,140.0
698,E2,65.0,0.25,95,140.0
699,C3,65.0,0.5,95,140.0
700,G2,65.0,0.5,95,140.0
701,C2,65.0,0.5,95,140.0
702,C3,65.0,0.5,95,140.0
703,G2,65.0,0.5,95,140.0
704,C2,65.0,0.5,95,140.0
705,C4,65.0,0.5,95,140.0
706,G3,65.0,0.5,95,140.0
707,E2,65.25,0.25,95,140.0
708,C1,65.5,0.5,95,140.0
709,E2,65.5,0.25,95,140.0
710,C3,65.5,0.5,95,140.0
711,G2,65.5,0.5,95,140.0
712,C2,65.5,0.5,95,140.0
713,C3,65.5,0.5,95,140.0
714,G2,65.5,0.5,95,140.0
715,C2,65.5,0.5,95,140.0
716,E2,65.75,0.25,95,140.0
717,C1,66.0,0.5,95,140.0
718,E2,66.0,0.25,95,140.0
719,C3,66.0,0.5,95,140.0
720,G2,66.0,0.5,95,140.0
721,C2,66.0,0.5,95,140.0
722,C3,66.0,0.5,95,140.0
723,G2,66.0,0.5,95,140.0
724,C2,66.0,0.5,95,140.0
725,C4,66.0,0.5,95,140.0
726,G3,66.0,0.5,95,140.0
727,E2,66.25,0.25,95,140.0
728,C1,66.5,0.5,95,140.0
729,E2,66.5,0.25,95,140.0
730,C3,66.5,0.5,95,140.0
731,G2,66.5,0.5,95,140.0
732,C2,66.5,0.5,95,140.0
733,C3,66.5,0.5,95,140.0
734,G2,66.5,0.5,95,140.0
735,C2,66.5,0.5,95,140.0
736,C4,66.5,0.5,95,140.0
737,G3,66.5,0.5,95,140.0
738,E2,66.75,0.25,95,140.0
739,C1,67.0,0.5,95,140.0
740,E2,67.0,0.25,95,140.0
741,C3,67.0,0.5,95,140.0
742,G2,67.0,0.5,95,140.0
743,C2,67.0,0.5,95,140.0
744,C3,67.0,0.5,95,140.0
745,G2,67.0,0.5,95,140.0
746,C2,67.0,0.5,95,140.0
747,C4,67.0,0.5,95,140.0
748,G3,67.0,0.5,95,140.0
749,E2,67.25,0.25,95,140.0
750,C1,67.5,0.5,95,140.0
751,E2,67.5,0.25,95,140.0
752,C3,67.5,0.5,95,140.0
753,G2,67.5,0.5,95,140.0
754,C2,67.5,0.5,95,140.0
755,C3,67.5,0.5,95,140.0
756,G2,67.5,0.5,95,140.0
757,C2,67.5,0.5,95,140.0
758,D3,67.5,0.5,95,140.0
759,D2,67.5,0.5,95,140.0
760,E2,67.75,0.25,95,140.0
761,B0,68.0,0.5,95,140.0
762,B2,68.0,0.5,95,140.0
763,F#2,68.0,0.5,95,140.0
764,B1,68.0,0.5,95,140.0
765,B2,68.0,0.5,95,140.0
766,F#2,68.0,0.5,95,140.0
767,B1,68.0,0.5,95,140.0
768,B-2,68.0,0.5,95,140.0
769,C2,68.0,0.5,95,140.0
770,D3,68.0,3.0,95,140.0
771,D2,68.0,3.0,95,140.0
772,B-2,68.5,0.25,95,140.0
773,B0,68.75,0.5,95,140.0
774,B2,68.75,0.5,95,140.0
775,F#2,68.75,0.5,95,140.0
776,B1,68.75,0.5,95,140.0
777,B2,68.75,0.5,95,140.0
778,F#2,68.75,0.5,95,140.0
779,B1,68.75,0.5,95,140.0
780,C#3,68.75,0.25,95,140.0
781,C2,68.75,0.25,95,140.0
782,B-2,69.0,0.5,95,140.0
783,B0,69.5,0.5,95,140.0
784,B2,69.5,0.5,95,140.0
785,F#2,69.5,0.5,95,140.0
786,B1,69.5,0.5,95,140.0
787,B2,69.5,0.5,95,140.0
788,F#2,69.5,0.5,95,140.0
789,B1,69.5,0.5,95,140.0
790,C#3,69.5,0.5,95,140.0
791,C2,69.5,0.5,95,140.0
792,B-2,70.0,0.5,95,140.0
793,C4,70.5,0.5,95,140.0
794,B-2,70.5,0.5,95,140.0
795,E2,70.5,0.5,95,140.0
796,B0,71.0,0.5,95,140.0
797,B2,71.0,0.5,95,140.0
798,F#2,71.0,0.5,95,140.0
799,B1,71.0,0.5,95,140.0
800,B2,71.0,0.5,95,140.0
801,F#2,71.0,0.5,95,140.0
802,B1,71.0,0.5,95,140.0
803,C#3,71.0,0.5,95,140.0
804,C2,71.0,0.5,95,140.0
805,B0,71.5,0.5,95,140.0
806,B2,71.5,0.5,95,140.0
807,F#2,71.5,0.5,95,140.0
808,B1,71.5,0.5,95,140.0
809,B2,71.5,0.5,95,140.0
810,F#2,71.5,0.5,95,140.0
811,B1,71.5,0.5,95,140.0
812,C#3,71.5,0.5,95,140.0
813,C2,71.5,0.5,95,140.0
814,F3,71.5,0.5,95,140.0
815,F2,71.5,0.5,95,140.0
816,B-2,72.0,0.5,95,140.0
817,F3,72.0,0.5,95,140.0
818,F2,72.0,0.5,95,140.0
819,B-2,72.5,0.5,95,140.0
820,E2,72.5,0.5,95,140.0
821,C3,72.5,3.0,95,140.0
822,C2,72.5,3.0,95,140.0
823,B0,73.0,0.5,95,140.0
824,B2,73.0,0.5,95,140.0
825,F#2,73.0,0.5,95,140.0
826,B1,73.0,0.5,95,140.0
827,B2,73.0,0.5,95,140.0
828,F#2,73.0,0.5,95,140.0
829,B1,73.0,0.5,95,140.0
830,B-2,73.0,0.5,95,140.0
831,C2,73.0,0.5,95,140.0
832,B-2,73.5,0.25,95,140.0
833,B0,73.75,0.5,95,140.0
834,B2,73.75,0.5,95,140.0
835,F#2,73.75,0.5,95,140.0
836,B1,73.75,0.5,95,140.0
837,B2,73.75,0.5,95,140.0
838,F#2,73.75,0.5,95,140.0
839,B1,73.75,0.5,95,140.0
840,C#3,73.75,0.25,95,140.0
841,C2,73.75,0.25,95,140.0
842,B-2,74.0,0.5,95,140.0
843,B0,74.5,0.5,95,140.0
844,B2,74.5,0.5,95,140.0
845,F#2,74.5,0.5,95,140.0
846,B1,74.5,0.5,95,140.0
847,B2,74.5,0.5,95,140.0
848,F#2,74.5,0.5,95,140.0
849,B1,74.5,0.5,95,140.0
850,C#3,74.5,0.5,95,140.0
851,C2,74.5,0.5,95,140.0
852,B-2,75.0,0.5,95,140.0
853,B-2,75.5,0.5,95,140.0
854,B0,76.0,0.5,95,140.0
855,B2,76.0,0.5,95,140.0
856,F#2,76.0,0.5,95,140.0
857,B1,76.0,0.5,95,140.0
858,B2,76.0,0.5,95,140.0
859,F#2,76.0,0.5,95,140.0
860,B1,76.0,0.5,95,140.0
861,C#3,76.0,0.5,95,140.0
862,C2,76.0,0.5,95,140.0
863,C1,76.5,0.5,95,140.0
864,C3,76.5,0.5,95,140.0
865,G2,76.5,0.5,95,140.0
866,C2,76.5,0.5,95,140.0
867,C3,76.5,0.5,95,140.0
868,G2,76.5,0.5,95,140.0
869,C2,76.5,0.5,95,140.0
870,C#3,76.5,0.5,95,140.0
871,C2,76.5,0.5,95,140.0
872,B0,77.0,0.5,95,140.0
873,B2,77.0,0.5,95,140.0
874,F#2,77.0,0.5,95,140.0
875,B1,77.0,0.5,95,140.0
876,B2,77.0,0.5,95,140.0
877,F#2,77.0,0.5,95,140.0
878,B1,77.0,0.5,95,140.0
879,B-2,77.0,0.25,95,140.0
880,C2,77.0,0.25,95,140.0
881,E2,77.25,0.25,95,140.0
882,D1,77.5,1.0,95,140.0
883,D3,77.5,1.0,95,140.0
884,A2,77.5,1.0,95,140.0
885,D2,77.5,1.0,95,140.0
886,D3,77.5,1.0,95,140.0
887,A2,77.5,1.0,95,140.0
888,D2,77.5,1.0,95,140.0
889,C#3,77.5,0.5,95,140.0
890,C2,77.5,0.5,95,140.0
891,B-2,78.0,0.5,95,140.0
892,A4,78.5,1.5,95,140.0
893,A4,78.5,1.5,95,140.0
894,A1,78.5,1.5,95,140.0
895,B-2,78.5,0.5,95,140.0
896,E2,78.5,0.5,95,140.0
897,B-2,79.0,0.5,95,140.0
898,C2,79.0,0.5,95,140.0
899,B-2,79.5,0.25,95,140.0
900,C2,79.75,0.25,95,140.0
901,B0,80.0,0.5,95,140.0
902,B2,80.0,0.5,95,140.0
903,F#2,80.0,0.5,95,140.0
904,B1,80.0,0.5,95,140.0
905,B2,80.0,0.5,95,140.0
906,F#2,80.0,0.5,95,140.0
907,B1,80.0,0.5,95,140.0
908,B-2,80.0,0.5,95,140.0
909,C2,80.0,0.5,95,140.0
910,B-2,80.5,0.25,95,140.0
911,B0,80.75,0.5,95,140.0
912,B2,80.75,0.5,95,140.0
913,F#2,80.75,0.5,95,140.0
914,B1,80.75,0.5,95,140.0
915,B2,80.75,0.5,95,140.0
916,F#2,80.75,0.5,95,140.0
917,B1,80.75,0.5,95,140.0
918,C#3,80.75,0.25,95,140.0
919,C2,80.75,0.25,95,140.0
920,B-2,81.0,0.5,95,140.0
921,B0,81.5,0.5,95,140.0
922,B2,81.5,0.5,95,140.0
923,F#2,81.5,0.5,95,140.0
924,B1,81.5,0.5,95,140.0
925,B2,81.5,0.5,95,140.0
926,F#2,81.5,0.5,95,140.0
927,B1,81.5,0.5,95,140.0
928,C#3,81.5,0.5,95,140.0
929,C2,81.5,0.5,95,140.0
930,B-2,82.0,0.5,95,140.0
931,C4,82.5,0.5,95,140.0
932,B-2,82.5,0.5,95,140.0
933,E2,82.5,0.5,95,140.0
934,B0,83.0,0.5,95,140.0
935,B2,83.0,0.5,95,140.0
936,F#2,83.0,0.5,95,140.0
937,B1,83.0,0.5,95,140.0
938,B2,83.0,0.5,95,140.0
939,F#2,83.0,0.5,95,140.0
940,B1,83.0,0.5,95,140.0
941,C#3,83.0,0.5,95,140.0
942,C2,83.0,0.5,95,140.0
943,B0,83.5,0.5,95,140.0
944,B2,83.5,0.5,95,140.0
945,F#2,83.5,0.5,95,140.0
946,B1,83.5,0.5,95,140.0
947,B2,83.5,0.5,95,140.0
948,F#2,83.5,0.5,95,140.0
949,B1,83.5,0.5,95,140.0
950,C#3,83.5,0.5,95,140.0
951,C2,83.5,0.5,95,140.0
952,B-2,84.0,0.5,95,140.0
953,B-2,84.5,0.5,95,140.0
954,E2,84.5,0.5,95,140.0
955,B0,85.0,0.5,95,140.0
956,B2,85.0,0.5,95,140.0
957,F#2,85.0,0.5,95,140.0
958,B1,85.0,0.5,95,140.0
959,B2,85.0,0.5,95,140.0
960,F#2,85.0,0.5,95,140.0
961,B1,85.0,0.5,95,140.0
962,B-2,85.0,0.5,95,140.0
963,C2,85.0,0.5,95,140.0
964,B-2,85.5,0.25,95,140.0
965,B0,85.75,0.5,95,140.0
966,B2,85.75,0.5,95,140.0
967,F#2,85.75,0.5,95,140.0
968,B1,85.75,0.5,95,140.0
969,B2,85.75,0.5,95,140.0
970,F#2,85.75,0.5,95,140.0
971,B1,85.75,0.5,95,140.0
972,C#3,85.75,0.25,95,140.0
973,C2,85.75,0.25,95,140.0
974,B-2,86.0,0.5,95,140.0
975,B0,86.5,0.5,95,140.0
976,B2,86.5,0.5,95,140.0
977,F#2,86.5,0.5,95,140.0
978,B1,86.5,0.5,95,140.0
979,B2,86.5,0.5,95,140.0
980,F#2,86.5,0.5,95,140.0
981,B1,86.5,0.5,95,140.0
982,C#3,86.5,0.5,95,140.0
983,C2,86.5,0.5,95,140.0
984,B-2,87.0,0.5,95,140.0
985,B-2,87.5,0.5,95,140.0
986,B0,88.0,0.5,95,140.0
987,B2,88.0,0.5,95,140.0
988,F#2,88.0,0.5,95,140.0
989,B1,88.0,0.5,95,140.0
990,B2,88.0,0.5,95,140.0
991,F#2,88.0,0.5,95,140.0
992,B1,88.0,0.5,95,140.0
993,C#3,88.0,0.5,95,140.0
994,C2,88.0,0.5,95,140.0
995,C1,88.5,0.5,95,140.0
996,C3,88.5,0.5,95,140.0
997,G2,88.5,0.5,95,140.0
998,C2,88.5,0.5,95,140.0
999,C3,88.5,0.5,95,140.0
1000,G2,88.5,0.5,95,140.0
1001,C2,88.5,0.5,95,140.0
1002,C#3,88.5,0.5,95,140.0
1003,C2,88.5,0.5,95,140.0
1004,B0,89.0,0.5,95,140.0
1005,B2,89.0,0.5,95,140.0
1006,F#2,89.0,0.5,95,140.0
1007,B1,89.0,0.5,95,140.0
1008,B2,89.0,0.5,95,140.0
1009,F#2,89.0,0.5,95,140.0
1010,B1,89.0,0.5,95,140.0
1011,B-2,89.0,0.25,95,140.0
1012,C2,89.0,0.25,95,140.0
1013,E2,89.25,0.25,95,140.0
1014,D1,89.5,1.0,95,140.0
1015,D3,89.5,1.0,95,140.0
1016,A2,89.5,1.0,95,140.0
1017,D2,89.5,1.0,95,140.0
1018,D3,89.5,1.0,95,140.0
1019,A2,89.5,1.0,95,140.0
1020,D2,89.5,1.0,95,140.0
1021,C#3,89.5,0.5,95,140.0
1022,C2,89.5,0.5,95,140.0
1023,B-2,90.0,0.5,95,140.0
1024,D3,90.5,1.5,95,140.0
1025,D3,90.5,1.5,95,140.0
1026,D1,90.5,1.5,95,140.0
1027,B-2,90.5,0.5,95,140.0
1028,E2,90.5,0.5,95,140.0
1029,B-2,91.0,0.5,95,140.0
1030,C2,91.0,0.5,95,140.0
1031,B-2,91.5,0.25,95,140.0
1032,C2,91.75,0.25,95,140.0
1033,B0,92.0,0.5,95,140.0
1034,B2,92.0,0.5,95,140.0
1035,F#2,92.0,0.5,95,140.0
1036,B1,92.0,0.5,95,140.0
1037,B2,92.0,0.5,95,140.0
1038,F#2,92.0,0.5,95,140.0
1039,B1,92.0,0.5,95,140.0
1040,B-2,92.0,0.5,95,140.0
1041,C2,92.0,0.5,95,140.0
1042,B-2,92.5,0.25,95,140.0
1043,B0,92.75,0.5,95,140.0
1044,B2,92.75,0.5,95,140.0
1045,F#2,92.75,0.5,95,140.0
1046,B1,92.75,0.5,95,140.0
1047,B2,92.75,0.5,95,140.0
1048,F#2,92.75,0.5,95,140.0
1049,B1,92.75,0.5,95,140.0
1050,C#3,92.75,0.25,95,140.0
1051,C2,92.75,0.25,95,140.0
1052,B-2,93.0,0.5,95,140.0
1053,B0,93.5,0.5,95,140.0
1054,B2,93.5,0.5,95,140.0
1055,F#2,93.5,0.5,95,140.0
1056,B1,93.5,0.5,95,140.0
1057,B2,93.5,0.5,95,140.0
1058,F#2,93.5,0.5,95,140.0
1059,B1,93.5,0.5,95,140.0
1060,C#3,93.5,0.5,95,140.0
1061,C2,93.5,0.5,95,140.0
1062,B-2,94.0,0.5,95,140.0
1063,C4,94.5,0.5,95,140.0
1064,B-2,94.5,0.5,95,140.0
1065,E2,94.5,0.5,95,140.0
1066,B0,95.0,0.5,95,140.0
1067,B2,95.0,0.5,95,140.0
1068,F#2,95.0,0.5,95,140.0
1069,B1,95.0,0.5,95,140.0
1070,B2,95.0,0.5,95,140.0
1071,F#2,95.0,0.5,95,140.0
1072,B1,95.0,0.5,95,140.0
1073,C#3,95.0,0.5,95,140.0
1074,C2,95.0,0.5,95,140.0
1075,B0,95.5,0.5,95,140.0
1076,B2,95.5,0.5,95,140.0
1077,F#2,95.5,0.5,95,140.0
1078,B1,95.5,0.5,95,140.0
1079,B2,95.5,0.5,95,140.0
1080,F#2,95.5,0.5,95,140.0
1081,B1,95.5,0.5,95,140.0
1082,C#3,95.5,0.5,95,140.0
1083,C2,95.5,0.5,95,140.0
1084,B-2,96.0,0.5,95,140.0
1085,B-2,96.5,0.5,95,140.0
1086,E2,96.5,0.5,95,140.0
1087,B0,97.0,0.5,95,140.0
1088,B2,97.0,0.5,95,140.0
1089,F#2,97.0,0.5,95,140.0
1090,B1,97.0,0.5,95,140.0
1091,B2,97.0,0.5,95,140.0
1092,F#2,97.0,0.5,95,140.0
1093,B1,97.0,0.5,95,140.0
1094,B-2,97.0,0.5,95,140.0
1095,C2,97.0,0.5,95,140.0
1096,B-2,97.5,0.25,95,140.0
1097,B0,97.75,0.5,95,140.0
1098,B2,97.75,0.5,95,140.0
1099,F#2,97.75,0.5,95,140.0
1100,B1,97.75,0.5,95,140.0
1101,B2,97.75,0.5,95,140.0
1102,F#2,97.75,0.5,95,140.0
1103,B1,97.75,0.5,95,140.0
1104,C#3,97.75,0.25,95,140.0
1105,C2,97.75,0.25,95,140.0
1106,B-2,98.0,0.5,95,140.0
1107,B0,98.5,0.5,95,140.0
1108,B2,98.5,0.5,95,140.0
1109,F#2,98.5,0.5,95,140.0
1110,B1,98.5,0.5,95,140.0
1111,B2,98.5,0.5,95,140.0
1112,F#2,98.5,0.5,95,140.0
1113,B1,98.5,0.5,95,140.0
1114,C#3,98.5,0.5,95,140.0
1115,C2,98.5,0.5,95,140.0
1116,B-2,99.0,0.5,95,140.0
1117,B-2,99.5,0.5,95,140.0
1118,B0,100.0,0.5,95,140.0
1119,B2,100.0,0.5,95,140.0
1120,F#2,100.0,0.5,95,140.0
1121,B1,100.0,0.5,95,140.0
1122,B2,100.0,0.5,95,140.0
1123,F#2,100.0,0.5,95,140.0
1124,B1,100.0,0.5,95,140.0
1125,C#3,100.0,0.5,95,140.0
1126,C2,100.0,0.5,95,140.0
1127,C1,100.5,0.5,95,140.0
1128,C3,100.5,0.5,95,140.0
1129,G2,100.5,0.5,95,140.0
1130,C2,100.5,0.5,95,140.0
1131,C3,100.5,0.5,95,140.0
1132,G2,100.5,0.5,95,140.0
1133,C2,100.5,0.5,95,140.0
1134,C#3,100.5,0.5,95,140.0
1135,C2,100.5,0.5,95,140.0
1136,B0,101.0,0.5,95,140.0
1137,B2,101.0,0.5,95,140.0
1138,F#2,101.0,0.5,95,140.0
1139,B1,101.0,0.5,95,140.0
1140,B2,101.0,0.5,95,140.0
1141,F#2,101.0,0.5,95,140.0
1142,B1,101.0,0.5,95,140.0
1143,B-2,101.0,0.25,95,140.0
1144,C2,101.0,0.25,95,140.0
1145,E2,101.25,0.25,95,140.0
1146,D1,101.5,1.0,95,140.0
1147,D3,101.5,1.0,95,140.0
1148,A2,101.5,1.0,95,140.0
1149,D2,101.5,1.0,95,140.0
1150,D3,101.5,1.0,95,140.0
1151,A2,101.5,1.0,95,140.0
1152,D2,101.5,1.0,95,140.0
1153,C#3,101.5,0.5,95,140.0
1154,C2,101.5,0.5,95,140.0
1155,B-2,102.0,0.5,95,140.0
1156,A4,102.5,1.5,95,140.0
1157,A4,102.5,1.5,95,140.0
1158,A1,102.5,1.5,95,140.0
1159,B-2,102.5,0.5,95,140.0
1160,E2,102.5,0.5,95,140.0
1161,B-2,103.0,0.5,95,140.0
1162,C2,103.0,0.5,95,140.0
1163,B-2,103.5,0.25,95,140.0
1164,C2,103.75,0.25,95,140.0
1165,B0,104.0,0.5,95,140.0
1166,B2,104.0,0.5,95,140.0
1167,F#2,104.0,0.5,95,140.0
1168,B1,104.0,0.5,95,140.0
1169,B2,104.0,0.5,95,140.0
1170,F#2,104.0,0.5,95,140.0
1171,B1,104.0,0.5,95,140.0
1172,C#3,104.0,0.5,95,140.0
1173,C2,104.0,0.5,95,140.0
1174,E2,104.5,0.25,95,140.0
1175,B0,104.75,0.5,95,140.0
1176,B2,104.75,0.5,95,140.0
1177,F#2,104.75,0.5,95,140.0
1178,B1,104.75,0.5,95,140.0
1179,B2,104.75,0.5,95,140.0
1180,F#2,104.75,0.5,95,140.0
1181,B1,104.75,0.5,95,140.0
1182,C#3,104.75,0.25,95,140.0
1183,C2,104.75,0.25,95,140.0
1184,C2,105.0,0.5,95,140.0
1185,B0,105.5,0.5,95,140.0
1186,C#3,105.5,0.5,95,140.0
1187,B2,105.5,0.5,95,140.0
1188,F#2,105.5,0.5,95,140.0
1189,B1,105.5,0.5,95,140.0
1190,B2,105.5,0.5,95,140.0
1191,F#2,105.5,0.5,95,140.0
1192,B1,105.5,0.5,95,140.0
1193,C2,106.0,0.125,95,140.0
1194,C2,106.125,0.25,95,140.0
1195,B1,106.375,0.125,95,140.0
1196,E2,106.5,0.5,95,140.0
1197,C4,106.5,0.5,95,140.0
1198,B0,107.0,0.5,95,140.0
1199,B2,107.0,0.5,95,140.0
1200,F#2,107.0,0.5,95,140.0
1201,B1,107.0,0.5,95,140.0
1202,B2,107.0,0.5,95,140.0
1203,F#2,107.0,0.5,95,140.0
1204,B1,107.0,0.5,95,140.0
1205,C#3,107.0,0.5,95,140.0
1206,C2,107.0,0.5,95,140.0
1207,B0,107.5,0.5,95,140.0
1208,B2,107.5,0.5,95,140.0
1209,F#2,107.5,0.5,95,140.0
1210,B1,107.5,0.5,95,140.0
1211,B2,107.5,0.5,95,140.0
1212,F#2,107.5,0.5,95,140.0
1213,B1,107.5,0.5,95,140.0
1214,C#3,107.5,0.5,95,140.0
1215,C2,107.5,0.5,95,140.0
1216,C2,108.0,0.125,95,140.0
1217,C2,108.125,0.25,95,140.0
1218,C2,108.375,0.125,95,140.0
1219,E2,108.5,0.5,95,140.0
1220,B0,109.0,0.5,95,140.0
1221,B2,109.0,0.5,95,140.0
1222,F#2,109.0,0.5,95,140.0
1223,B1,109.0,0.5,95,140.0
1224,B2,109.0,0.5,95,140.0
1225,F#2,109.0,0.5,95,140.0
1226,B1,109.0,0.5,95,140.0
1227,C#3,109.0,0.5,95,140.0
1228,C2,109.0,0.5,95,140.0
1229,B-2,109.5,0.25,95,140.0
1230,B0,109.75,0.5,95,140.0
1231,B2,109.75,0.5,95,140.0
1232,F#2,109.75,0.5,95,140.0
1233,B1,109.75,0.5,95,140.0
1234,B2,109.75,0.5,95,140.0
1235,F#2,109.75,0.5,95,140.0
1236,B1,109.75,0.5,95,140.0
1237,C#3,109.75,0.25,95,140.0
1238,C2,109.75,0.25,95,140.0
1239,B-2,110.0,0.5,95,140.0
1240,B0,110.5,0.5,95,140.0
1241,C#3,110.5,0.5,95,140.0
1242,B2,110.5,0.5,95,140.0
1243,F#2,110.5,0.5,95,140.0
1244,B1,110.5,0.5,95,140.0
1245,B2,110.5,0.5,95,140.0
1246,F#2,110.5,0.5,95,140.0
1247,B1,110.5,0.5,95,140.0
1248,B-2,111.0,0.5,95,140.0
1249,C2,111.0,0.5,95,140.0
1250,B-2,111.5,0.5,95,140.0
1251,C2,111.5,0.5,95,140.0
1252,B0,112.0,0.5,95,140.0
1253,C2,112.0,0.5,95,140.0
1254,B2,112.0,0.5,95,140.0
1255,F#2,112.0,0.5,95,140.0
1256,B1,112.0,0.5,95,140.0
1257,B2,112.0,0.5,95,140.0
1258,F#2,112.0,0.5,95,140.0
1259,B1,112.0,0.5,95,140.0
1260,C1,112.5,0.5,95,140.0
1261,E2,112.5,0.125,95,140.0
1262,C3,112.5,0.5,95,140.0
1263,G2,112.5,0.5,95,140.0
1264,C2,112.5,0.5,95,140.0
1265,C3,112.5,0.5,95,140.0
1266,G2,112.5,0.5,95,140.0
1267,C2,112.5,0.5,95,140.0
1268,E2,112.625,0.125,95,140.0
1269,E2,112.75,0.125,95,140.0
1270,E2,112.875,0.125,95,140.0
1271,B0,113.0,0.5,95,140.0
1272,E2,113.0,0.125,95,140.0
1273,B2,113.0,0.5,95,140.0
1274,F#2,113.0,0.5,95,140.0
1275,B1,113.0,0.5,95,140.0
1276,B2,113.0,0.5,95,140.0
1277,F#2,113.0,0.5,95,140.0
1278,B1,113.0,0.5,95,140.0
1279,E2,113.125,0.125,95,140.0
1280,E2,113.25,0.125,95,140.0
1281,E2,113.375,0.125,95,140.0
1282,D1,113.5,1.0,95,140.0
1283,C2,113.5,0.5,95,140.0
1284,D3,113.5,1.0,95,140.0
1285,A2,113.5,1.0,95,140.0
1286,D2,113.5,1.0,95,140.0
1287,D3,113.5,1.0,95,140.0
1288,A2,113.5,1.0,95,140.0
1289,D2,113.5,1.0,95,140.0
1290,C2,114.0,0.5,95,140.0
1291,D3,114.5,1.5,95,140.0
1292,D3,114.5,1.5,95,140.0
1293,D1,114.5,1.5,95,140.0
1294,E2,114.5,0.5,95,140.0
1295,C2,115.0,0.5,95,140.0
1296,E2,115.5,0.5,95,140.0
1297,C2,115.5,0.5,95,140.0
1298,F#2,116.0,0.25,95,140.0
1299,F#2,116.0,0.25,95,140.0
1300,B-2,116.0,0.5,95,140.0
1301,C2,116.0,0.5,95,140.0
1302,F#2,116.25,0.25,95,140.0
1303,F#2,116.25,0.25,95,140.0
1304,F#2,116.5,0.25,95,140.0
1305,F#2,116.5,0.25,95,140.0
1306,G#2,116.5,0.5,95,140.0
1307,F#2,116.75,0.25,95,140.0
1308,F#2,116.75,0.25,95,140.0
1309,F#2,117.0,0.25,95,140.0
1310,F#2,117.0,0.25,95,140.0
1311,F#2,117.25,0.25,95,140.0
1312,F#2,117.25,0.25,95,140.0
1313,A2,117.5,0.25,95,140.0
1314,A2,117.5,0.25,95,140.0
1315,A2,117.75,0.25,95,140.0
1316,A2,117.75,0.25,95,140.0
1317,E2,118.0,0.25,95,140.0
1318,E2,118.0,0.25,95,140.0
1319,E2,118.25,0.25,95,140.0
1320,E2,118.25,0.25,95,140.0
1321,E2,118.5,0.25,95,140.0
1322,E2,118.5,0.25,95,140.0
1323,E2,118.75,0.25,95,140.0
1324,E2,118.75,0.25,95,140.0
1325,F#2,119.0,0.25,95,140.0
1326,F#2,119.0,0.25,95,140.0
1327,F#2,119.25,0.25,95,140.0
1328,F#2,119.25,0.25,95,140.0
1329,F#2,119.5,0.25,95,140.0
1330,F#2,119.5,0.25,95,140.0
1331,F#2,119.75,0.25,95,140.0
1332,F#2,119.75,0.25,95,140.0
1333,D2,120.0,0.25,95,140.0
1334,D2,120.0,0.25,95,140.0
1335,D2,120.25,0.25,95,140.0
1336,D2,120.25,0.25,95,140.0
1337,D2,120.5,0.25,95,140.0
1338,D2,120.5,0.25,95,140.0
1339,D2,120.75,0.25,95,140.0
1340,D2,120.75,0.25,95,140.0
1341,E2,121.0,0.25,95,140.0
1342,E2,121.0,0.25,95,140.0
1343,E2,121.25,0.25,95,140.0
1344,E2,121.25,0.25,95,140.0
1345,C2,121.5,0.25,95,140.0
1346,C2,121.5,0.25,95,140.0
1347,C2,121.75,0.25,95,140.0
1348,C2,121.75,0.25,95,140.0
1349,C2,122.0,0.25,95,140.0
1350,C2,122.0,0.25,95,140.0
1351,C2,122.25,0.25,95,140.0
1352,C2,122.25,0.25,95,140.0
1353,B1,122.5,0.25,95,140.0
1354,B1,122.5,0.25,95,140.0
1355,C2,122.5,0.5,95,140.0
1356,B1,122.75,0.25,95,140.0
1357,B1,122.75,0.25,95,140.0
1358,B1,123.0,0.25,95,140.0
1359,B1,123.0,0.25,95,140.0
1360,E2,123.0,0.5,95,140.0
1361,B1,123.25,0.25,95,140.0
1362,B1,123.25,0.25,95,140.0
1363,B1,123.5,0.25,95,140.0
1364,B1,123.5,0.25,95,140.0
1365,C2,123.5,0.5,95,140.0
1366,B1,123.75,0.25,95,140.0
1367,B1,123.75,0.25,95,140.0
1368,F#2,124.0,0.25,95,140.0
1369,F#2,124.0,0.25,95,140.0
1370,F#1,124.0,1.5,95,140.0
1371,C#3,124.0,0.25,95,140.0
1372,C2,124.0,0.25,95,140.0
1373,F#2,124.25,0.25,95,140.0
1374,F#2,124.25,0.25,95,140.0
1375,C2,124.25,0.25,95,140.0
1376,F#2,124.5,0.25,95,140.0
1377,F#2,124.5,0.25,95,140.0
1378,C2,124.5,0.25,95,140.0
1379,F#2,124.75,0.25,95,140.0
1380,F#2,124.75,0.25,95,140.0
1381,C2,124.75,0.25,95,140.0
1382,F#2,125.0,0.25,95,140.0
1383,F#2,125.0,0.25,95,140.0
1384,B-2,125.0,0.5,95,140.0
1385,E2,125.0,0.5,95,140.0
1386,F#2,125.25,0.25,95,140.0
1387,F#2,125.25,0.25,95,140.0
1388,A2,125.5,0.25,95,140.0
1389,A2,125.5,0.25,95,140.0
1390,A1,125.5,0.5,95,140.0
1391,C2,125.5,0.5,95,140.0
1392,A2,125.75,0.25,95,140.0
1393,A2,125.75,0.25,95,140.0
1394,E2,126.0,0.25,95,140.0
1395,E2,126.0,0.25,95,140.0
1396,E1,126.0,1.0,95,140.0
1397,B-2,126.0,0.25,95,140.0
1398,E2,126.25,0.25,95,140.0
1399,E2,126.25,0.25,95,140.0
1400,E2,126.25,0.25,95,140.0
1401,E2,126.5,0.25,95,140.0
1402,E2,126.5,0.25,95,140.0
1403,C2,126.5,0.25,95,140.0
1404,E2,126.75,0.25,95,140.0
1405,E2,126.75,0.25,95,140.0
1406,C2,126.75,0.25,95,140.0
1407,F#2,127.0,0.25,95,140.0
1408,F#2,127.0,0.25,95,140.0
1409,F#1,127.0,1.0,95,140.0
1410,B-2,127.0,0.5,95,140.0
1411,E2,127.0,0.5,95,140.0
1412,F#2,127.25,0.25,95,140.0
1413,F#2,127.25,0.25,95,140.0
1414,F#2,127.5,0.25,95,140.0
1415,F#2,127.5,0.25,95,140.0
1416,C2,127.5,0.5,95,140.0
1417,F#2,127.75,0.25,95,140.0
1418,F#2,127.75,0.25,95,140.0
1419,D2,128.0,0.25,95,140.0
1420,D2,128.0,0.25,95,140.0
1421,D1,128.0,1.0,95,140.0
1422,B-2,128.0,0.75,95,140.0
1423,C2,128.0,0.75,95,140.0
1424,D2,128.25,0.25,95,140.0
1425,D2,128.25,0.25,95,140.0
1426,D2,128.5,0.25,95,140.0
1427,D2,128.5,0.25,95,140.0
1428,D2,128.75,0.25,95,140.0
1429,D2,128.75,0.25,95,140.0
1430,C2,128.75,0.25,95,140.0
1431,E2,129.0,0.25,95,140.0
1432,E2,129.0,0.25,95,140.0
1433,E1,129.0,0.5,95,140.0
1434,B-2,129.0,0.5,95,140.0
1435,E2,129.0,0.5,95,140.0
1436,E2,129.25,0.25,95,140.0
1437,E2,129.25,0.25,95,140.0
1438,C2,129.5,0.25,95,140.0
1439,C2,129.5,0.25,95,140.0
1440,C1,129.5,1.0,95,140.0
1441,C2,129.5,0.5,95,140.0
1442,C2,129.75,0.25,95,140.0
1443,C2,129.75,0.25,95,140.0
1444,C2,130.0,0.25,95,140.0
1445,C2,130.0,0.25,95,140.0
1446,B-2,130.0,0.25,95,140.0
1447,C2,130.25,0.25,95,140.0
1448,C2,130.25,0.25,95,140.0
1449,E2,130.25,0.25,95,140.0
1450,B1,130.5,0.25,95,140.0
1451,B1,130.5,0.25,95,140.0
1452,B0,130.5,1.5,95,140.0
1453,C2,130.5,0.25,95,140.0
1454,B1,130.75,0.25,95,140.0
1455,B1,130.75,0.25,95,140.0
1456,C2,130.75,0.25,95,140.0
1457,B1,131.0,0.25,95,140.0
1458,B1,131.0,0.25,95,140.0
1459,C#3,131.0,0.5,95,140.0
1460,E2,131.0,0.5,95,140.0
1461,B1,131.25,0.25,95,140.0
1462,B1,131.25,0.25,95,140.0
1463,B1,131.5,0.25,95,140.0
1464,B1,131.5,0.25,95,140.0
1465,A3,131.5,0.5,95,140.0
1466,C2,131.5,0.5,95,140.0
1467,B1,131.75,0.25,95,140.0
1468,B1,131.75,0.25,95,140.0
1469,F#2,132.0,0.25,95,140.0
1470,F#2,132.0,0.25,95,140.0
1471,F#1,132.0,1.5,95,140.0
1472,C#3,132.0,0.75,95,140.0
1473,C2,132.0,0.75,95,140.0
1474,F#2,132.25,0.25,95,140.0
1475,F#2,132.25,0.25,95,140.0
1476,F#2,132.5,0.25,95,140.0
1477,F#2,132.5,0.25,95,140.0
1478,F#2,132.75,0.25,95,140.0
1479,F#2,132.75,0.25,95,140.0
1480,C2,132.75,0.25,95,140.0
1481,F#2,133.0,0.25,95,140.0
1482,F#2,133.0,0.25,95,140.0
1483,B-2,133.0,0.5,95,140.0
1484,E2,133.0,0.5,95,140.0
1485,F#2,133.25,0.25,95,140.0
1486,F#2,133.25,0.25,95,140.0
1487,A2,133.5,0.25,95,140.0
1488,A2,133.5,0.25,95,140.0
1489,A1,133.5,0.5,95,140.0
1490,C2,133.5,0.5,95,140.0
1491,A2,133.75,0.25,95,140.0
1492,A2,133.75,0.25,95,140.0
1493,E2,134.0,0.25,95,140.0
1494,E2,134.0,0.25,95,140.0
1495,E1,134.0,1.0,95,140.0
1496,B-2,134.0,0.25,95,140.0
1497,E2,134.25,0.25,95,140.0
1498,E2,134.25,0.25,95,140.0
1499,E2,134.25,0.25,95,140.0
1500,E2,134.5,0.25,95,140.0
1501,E2,134.5,0.25,95,140.0
1502,C2,134.5,0.25,95,140.0
1503,E2,134.75,0.25,95,140.0
1504,E2,134.75,0.25,95,140.0
1505,C2,134.75,0.25,95,140.0
1506,F#2,135.0,0.25,95,140.0
1507,F#2,135.0,0.25,95,140.0
1508,F#1,135.0,1.0,95,140.0
1509,B-2,135.0,0.25,95,140.0
1510,E2,135.0,0.25,95,140.0
1511,F#2,135.25,0.25,95,140.0
1512,F#2,135.25,0.25,95,140.0
1513,C2,135.25,0.25,95,140.0
1514,F#2,135.5,0.25,95,140.0
1515,F#2,135.5,0.25,95,140.0
1516,C2,135.5,0.25,95,140.0
1517,F#2,135.75,0.25,95,140.0
1518,F#2,135.75,0.25,95,140.0
1519,E2,135.75,0.25,95,140.0
1520,D2,136.0,0.25,95,140.0
1521,D2,136.0,0.25,95,140.0
1522,D1,136.0,1.0,95,140.0
1523,B-2,136.0,0.75,95,140.0
1524,C2,136.0,0.75,95,140.0
1525,D2,136.25,0.25,95,140.0
1526,D2,136.25,0.25,95,140.0
1527,D2,136.5,0.25,95,140.0
1528,D2,136.5,0.25,95,140.0
1529,D2,136.75,0.25,95,140.0
1530,D2,136.75,0.25,95,140.0
1531,C2,136.75,0.25,95,140.0
1532,E2,137.0,0.25,95,140.0
1533,E2,137.0,0.25,95,140.0
1534,E1,137.0,0.5,95,140.0
1535,B-2,137.0,0.5,95,140.0
1536,E2,137.0,0.5,95,140.0
1537,E2,137.25,0.25,95,140.0
1538,E2,137.25,0.25,95,140.0
1539,C2,137.5,0.25,95,140.0
1540,C2,137.5,0.25,95,140.0
1541,C1,137.5,1.0,95,140.0
1542,C2,137.5,0.5,95,140.0
1543,C2,137.75,0.25,95,140.0
1544,C2,137.75,0.25,95,140.0
1545,C2,138.0,0.25,95,140.0
1546,C2,138.0,0.25,95,140.0
1547,B-2,138.0,0.5,95,140.0
1548,C2,138.25,0.25,95,140.0
1549,C2,138.25,0.25,95,140.0
1550,B1,138.5,0.25,95,140.0
1551,B1,138.5,0.25,95,140.0
1552,B0,138.5,1.5,95,140.0
1553,C2,138.5,0.5,95,140.0
1554,B1,138.75,0.25,95,140.0
1555,B1,138.75,0.25,95,140.0
1556,B1,139.0,0.25,95,140.0
1557,B1,139.0,0.25,95,140.0
1558,B-2,139.0,0.25,95,140.0
1559,B1,139.25,0.25,95,140.0
1560,B1,139.25,0.25,95,140.0
1561,E2,139.25,0.25,95,140.0
1562,B1,139.5,0.25,95,140.0
1563,B1,139.5,0.25,95,140.0
1564,E2,139.5,0.25,95,140.0
1565,B1,139.75,0.25,95,140.0
1566,B1,139.75,0.25,95,140.0
1567,E2,139.75,0.25,95,140.0
1568,F#2,140.0,0.25,95,140.0
1569,F#2,140.0,0.25,95,140.0
1570,F#1,140.0,1.5,95,140.0
1571,C#3,140.0,0.25,95,140.0
1572,C2,140.0,0.25,95,140.0
1573,F#2,140.25,0.25,95,140.0
1574,F#2,140.25,0.25,95,140.0
1575,C2,140.25,0.25,95,140.0
1576,F#2,140.5,0.25,95,140.0
1577,F#2,140.5,0.25,95,140.0
1578,C2,140.5,0.25,95,140.0
1579,F#2,140.75,0.25,95,140.0
1580,F#2,140.75,0.25,95,140.0
1581,C2,140.75,0.25,95,140.0
1582,F#2,141.0,0.25,95,140.0
1583,F#2,141.0,0.25,95,140.0
1584,B-2,141.0,0.5,95,140.0
1585,E2,141.0,0.5,95,140.0
1586,F#2,141.25,0.25,95,140.0
1587,F#2,141.25,0.25,95,140.0
1588,A2,141.5,0.25,95,140.0
1589,A2,141.5,0.25,95,140.0
1590,A1,141.5,0.5,95,140.0
1591,C2,141.5,0.5,95,140.0
1592,A2,141.75,0.25,95,140.0
1593,A2,141.75,0.25,95,140.0
1594,E2,142.0,0.25,95,140.0
1595,E2,142.0,0.25,95,140.0
1596,E1,142.0,1.0,95,140.0
1597,B-2,142.0,0.25,95,140.0
1598,E2,142.25,0.25,95,140.0
1599,E2,142.25,0.25,95,140.0
1600,E2,142.25,0.25,95,140.0
1601,E2,142.5,0.25,95,140.0
1602,E2,142.5,0.25,95,140.0
1603,C2,142.5,0.25,95,140.0
1604,E2,142.75,0.25,95,140.0
1605,E2,142.75,0.25,95,140.0
1606,C2,142.75,0.25,95,140.0
1607,F#2,143.0,0.25,95,140.0
1608,F#2,143.0,0.25,95,140.0
1609,F#1,143.0,1.0,95,140.0
1610,B-2,143.0,0.5,95,140.0
1611,E2,143.0,0.5,95,140.0
1612,F#2,143.25,0.25,95,140.0
1613,F#2,143.25,0.25,95,140.0
1614,F#2,143.5,0.25,95,140.0
1615,F#2,143.5,0.25,95,140.0
1616,C2,143.5,0.5,95,140.0
1617,F#2,143.75,0.25,95,140.0
1618,F#2,143.75,0.25,95,140.0
1619,D2,144.0,0.25,95,140.0
1620,D2,144.0,0.25,95,140.0
1621,D1,144.0,1.0,95,140.0
1622,B-2,144.0,0.75,95,140.0
1623,C2,144.0,0.75,95,140.0
1624,D2,144.25,0.25,95,140.0
1625,D2,144.25,0.25,95,140.0
1626,D2,144.5,0.25,95,140.0
1627,D2,144.5,0.25,95,140.0
1628,D2,144.75,0.25,95,140.0
1629,D2,144.75,0.25,95,140.0
1630,C2,144.75,0.25,95,140.0
1631,E2,145.0,0.25,95,140.0
1632,E2,145.0,0.25,95,140.0
1633,E1,145.0,0.5,95,140.0
1634,B-2,145.0,0.5,95,140.0
1635,E2,145.0,0.5,95,140.0
1636,E2,145.25,0.25,95,140.0
1637,E2,145.25,0.25,95,140.0
1638,C2,145.5,0.25,95,140.0
1639,C2,145.5,0.25,95,140.0
1640,C1,145.5,1.0,95,140.0
1641,C2,145.5,0.5,95,140.0
1642,C2,145.75,0.25,95,140.0
1643,C2,145.75,0.25,95,140.0
1644,C2,146.0,0.25,95,140.0
1645,C2,146.0,0.25,95,140.0
1646,B-2,146.0,0.25,95,140.0
1647,C2,146.25,0.25,95,140.0
1648,C2,146.25,0.25,95,140.0
1649,E2,146.25,0.25,95,140.0
1650,B1,146.5,0.25,95,140.0
1651,B1,146.5,0.25,95,140.0
1652,B0,146.5,1.5,95,140.0
1653,C2,146.5,0.25,95,140.0
1654,B1,146.75,0.25,95,140.0
1655,B1,146.75,0.25,95,140.0
1656,C2,146.75,0.25,95,140.0
1657,B1,147.0,0.25,95,140.0
1658,B1,147.0,0.25,95,140.0
1659,C#3,147.0,0.5,95,140.0
1660,E2,147.0,0.5,95,140.0
1661,B1,147.25,0.25,95,140.0
1662,B1,147.25,0.25,95,140.0
1663,B1,147.5,0.25,95,140.0
1664,B1,147.5,0.25,95,140.0
1665,A3,147.5,0.5,95,140.0
1666,C2,147.5,0.5,95,140.0
1667,B1,147.75,0.25,95,140.0
1668,B1,147.75,0.25,95,140.0
1669,F#2,148.0,0.25,95,140.0
1670,F#2,148.0,0.25,95,140.0
1671,F#1,148.0,1.5,95,140.0
1672,C#3,148.0,0.75,95,140.0
1673,C2,148.0,0.75,95,140.0
1674,F#2,148.25,0.25,95,140.0
1675,F#2,148.25,0.25,95,140.0
1676,F#2,148.5,0.25,95,140.0
1677,F#2,148.5,0.25,95,140.0
1678,F#2,148.75,0.25,95,140.0
1679,F#2,148.75,0.25,95,140.0
1680,C2,148.75,0.25,95,140.0
1681,F#2,149.0,0.25,95,140.0
1682,F#2,149.0,0.25,95,140.0
1683,B-2,149.0,0.5,95,140.0
1684,E2,149.0,0.5,95,140.0
1685,F#2,149.25,0.25,95,140.0
1686,F#2,149.25,0.25,95,140.0
1687,A2,149.5,0.25,95,140.0
1688,A2,149.5,0.25,95,140.0
1689,A1,149.5,0.5,95,140.0
1690,C2,149.5,0.5,95,140.0
1691,A2,149.75,0.25,95,140.0
1692,A2,149.75,0.25,95,140.0
1693,E2,150.0,0.25,95,140.0
1694,E2,150.0,0.25,95,140.0
1695,E1,150.0,1.0,95,140.0
1696,B-2,150.0,0.25,95,140.0
1697,E2,150.25,0.25,95,140.0
1698,E2,150.25,0.25,95,140.0
1699,E2,150.25,0.25,95,140.0
1700,E2,150.5,0.25,95,140.0
1701,E2,150.5,0.25,95,140.0
1702,C2,150.5,0.25,95,140.0
1703,E2,150.75,0.25,95,140.0
1704,E2,150.75,0.25,95,140.0
1705,C2,150.75,0.25,95,140.0
1706,F#2,151.0,0.25,95,140.0
1707,F#2,151.0,0.25,95,140.0
1708,F#1,151.0,1.0,95,140.0
1709,B-2,151.0,0.25,95,140.0
1710,E2,151.0,0.25,95,140.0
1711,F#2,151.25,0.25,95,140.0
1712,F#2,151.25,0.25,95,140.0
1713,C2,151.25,0.25,95,140.0
1714,F#2,151.5,0.25,95,140.0
1715,F#2,151.5,0.25,95,140.0
1716,C2,151.5,0.25,95,140.0
1717,F#2,151.75,0.25,95,140.0
1718,F#2,151.75,0.25,95,140.0
1719,E2,151.75,0.25,95,140.0
1720,D2,152.0,0.25,95,140.0
1721,D2,152.0,0.25,95,140.0
1722,D1,152.0,1.0,95,140.0
1723,B-2,152.0,0.75,95,140.0
1724,C2,152.0,0.75,95,140.0
1725,D2,152.25,0.25,95,140.0
1726,D2,152.25,0.25,95,140.0
1727,D2,152.5,0.25,95,140.0
1728,D2,152.5,0.25,95,140.0
1729,D2,152.75,0.25,95,140.0
1730,D2,152.75,0.25,95,140.0
1731,C2,152.75,0.25,95,140.0
1732,E2,153.0,0.25,95,140.0
1733,E2,153.0,0.25,95,140.0
1734,E1,153.0,0.5,95,140.0
1735,B-2,153.0,0.5,95,140.0
1736,E2,153.0,0.5,95,140.0
1737,E2,153.25,0.25,95,140.0
1738,E2,153.25,0.25,95,140.0
1739,C2,153.5,0.25,95,140.0
1740,C2,153.5,0.25,95,140.0
1741,C1,153.5,1.0,95,140.0
1742,C2,153.5,0.5,95,140.0
1743,C2,153.75,0.25,95,140.0
1744,C2,153.75,0.25,95,140.0
1745,C2,154.0,0.25,95,140.0
1746,C2,154.0,0.25,95,140.0
1747,B-2,154.0,0.5,95,140.0
1748,C2,154.25,0.25,95,140.0
1749,C2,154.25,0.25,95,140.0
1750,B1,154.5,0.25,95,140.0
1751,B1,154.5,0.25,95,140.0
1752,B0,154.5,1.5,95,140.0
1753,C2,154.5,0.5,95,140.0
1754,B1,154.75,0.25,95,140.0
1755,B1,154.75,0.25,95,140.0
1756,B1,155.0,0.25,95,140.0
1757,B1,155.0,0.25,95,140.0
1758,B-2,155.0,0.25,95,140.0
1759,B1,155.25,0.25,95,140.0
1760,B1,155.25,0.25,95,140.0
1761,E2,155.25,0.25,95,140.0
1762,B1,155.5,0.25,95,140.0
1763,B1,155.5,0.25,95,140.0
1764,E2,155.5,0.25,95,140.0
1765,B1,155.75,0.25,95,140.0
1766,B1,155.75,0.25,95,140.0
1767,E2,155.75,0.25,95,140.0
1768,F#3,156.0,0.25,95,140.0
1769,F#2,156.0,0.25,95,140.0
1770,F#1,156.0,1.5,95,140.0
1771,C#3,156.0,0.25,95,140.0
1772,C2,156.0,0.25,95,140.0
1773,F#3,156.25,0.25,95,140.0
1774,F#2,156.25,0.25,95,140.0
1775,C2,156.25,0.25,95,140.0
1776,F#3,156.5,0.25,95,140.0
1777,F#2,156.5,0.25,95,140.0
1778,C2,156.5,0.25,95,140.0
1779,F#3,156.75,0.25,95,140.0
1780,F#2,156.75,0.25,95,140.0
1781,C2,156.75,0.25,95,140.0
1782,F#3,157.0,0.25,95,140.0
1783,F#2,157.0,0.25,95,140.0
1784,B-2,157.0,0.5,95,140.0
1785,E2,157.0,0.5,95,140.0
1786,F#3,157.25,0.25,95,140.0
1787,F#2,157.25,0.25,95,140.0
1788,C#3,157.5,0.25,95,140.0
1789,A2,157.5,0.25,95,140.0
1790,A1,157.5,0.5,95,140.0
1791,C2,157.5,0.5,95,140.0
1792,C#3,157.75,0.25,95,140.0
1793,A2,157.75,0.25,95,140.0
1794,D3,158.0,0.25,95,140.0
1795,E2,158.0,0.25,95,140.0
1796,E1,158.0,1.0,95,140.0
1797,B-2,158.0,0.25,95,140.0
1798,D3,158.25,0.25,95,140.0
1799,E2,158.25,0.25,95,140.0
1800,E2,158.25,0.25,95,140.0
1801,D3,158.5,0.25,95,140.0
1802,E2,158.5,0.25,95,140.0
1803,C2,158.5,0.25,95,140.0
1804,D3,158.75,0.25,95,140.0
1805,E2,158.75,0.25,95,140.0
1806,C2,158.75,0.25,95,140.0
1807,B-2,159.0,0.25,95,140.0
1808,F#2,159.0,0.25,95,140.0
1809,F#1,159.0,1.0,95,140.0
1810,B-2,159.0,0.5,95,140.0
1811,E2,159.0,0.5,95,140.0
1812,B-2,159.25,0.25,95,140.0
1813,F#2,159.25,0.25,95,140.0
1814,B-2,159.5,0.25,95,140.0
1815,F#2,159.5,0.25,95,140.0
1816,C2,159.5,0.5,95,140.0
1817,B-2,159.75,0.25,95,140.0
1818,F#2,159.75,0.25,95,140.0
1819,C#3,160.0,0.25,95,140.0
1820,D2,160.0,0.25,95,140.0
1821,D1,160.0,1.0,95,140.0
1822,B-2,160.0,0.75,95,140.0
1823,C2,160.0,0.75,95,140.0
1824,C#3,160.25,0.25,95,140.0
1825,D2,160.25,0.25,95,140.0
1826,C#3,160.5,0.25,95,140.0
1827,D2,160.5,0.25,95,140.0
1828,C#3,160.75,0.25,95,140.0
1829,D2,160.75,0.25,95,140.0
1830,C2,160.75,0.25,95,140.0
1831,E3,161.0,0.25,95,140.0
1832,E2,161.0,0.25,95,140.0
1833,E1,161.0,0.5,95,140.0
1834,B-2,161.0,0.5,95,140.0
1835,E2,161.0,0.5,95,140.0
1836,E3,161.25,0.25,95,140.0
1837,E2,161.25,0.25,95,140.0
1838,D3,161.5,0.25,95,140.0
1839,C2,161.5,0.25,95,140.0
1840,C1,161.5,1.0,95,140.0
1841,C2,161.5,0.5,95,140.0
1842,D3,161.75,0.25,95,140.0
1843,C2,161.75,0.25,95,140.0
1844,D3,162.0,0.25,95,140.0
1845,C2,162.0,0.25,95,140.0
1846,B-2,162.0,0.25,95,140.0
1847,D3,162.25,0.25,95,140.0
1848,C2,162.25,0.25,95,140.0
1849,E2,162.25,0.25,95,140.0
1850,C#3,162.5,0.25,95,140.0
1851,B1,162.5,0.25,95,140.0
1852,B0,162.5,1.5,95,140.0
1853,C2,162.5,0.25,95,140.0
1854,C#3,162.75,0.25,95,140.0
1855,B1,162.75,0.25,95,140.0
1856,C2,162.75,0.25,95,140.0
1857,C#3,163.0,0.25,95,140.0
1858,B1,163.0,0.25,95,140.0
1859,C#3,163.0,0.5,95,140.0
1860,E2,163.0,0.5,95,140.0
1861,C#3,163.25,0.25,95,140.0
1862,B1,163.25,0.25,95,140.0
1863,C#3,163.5,0.25,95,140.0
1864,B1,163.5,0.25,95,140.0
1865,A3,163.5,0.5,95,140.0
1866,C2,163.5,0.5,95,140.0
1867,C#3,163.75,0.25,95,140.0
1868,B1,163.75,0.25,95,140.0
1869,F#3,164.0,0.25,95,140.0
1870,F#2,164.0,0.25,95,140.0
1871,F#1,164.0,1.5,95,140.0
1872,C#3,164.0,0.75,95,140.0
1873,C2,164.0,0.75,95,140.0
1874,F#3,164.25,0.25,95,140.0
1875,F#2,164.25,0.25,95,140.0
1876,F#3,164.5,0.25,95,140.0
1877,F#2,164.5,0.25,95,140.0
1878,F#3,164.75,0.25,95,140.0
1879,F#2,164.75,0.25,95,140.0
1880,C2,164.75,0.25,95,140.0
1881,F#3,165.0,0.25,95,140.0
1882,F#2,165.0,0.25,95,140.0
1883,B-2,165.0,0.5,95,140.0
1884,E2,165.0,0.5,95,140.0
1885,F#3,165.25,0.25,95,140.0
1886,F#2,165.25,0.25,95,140.0
1887,C#3,165.5,0.25,95,140.0
1888,A2,165.5,0.25,95,140.0
1889,A1,165.5,0.5,95,140.0
1890,C2,165.5,0.5,95,140.0
1891,C#3,165.75,0.25,95,140.0
1892,A2,165.75,0.25,95,140.0
1893,D3,166.0,0.25,95,140.0
1894,E2,166.0,0.25,95,140.0
1895,E1,166.0,1.0,95,140.0
1896,B-2,166.0,0.25,95,140.0
1897,D3,166.25,0.25,95,140.0
1898,E2,166.25,0.25,95,140.0
1899,E2,166.25,0.25,95,140.0
1900,D3,166.5,0.25,95,140.0
1901,E2,166.5,0.25,95,140.0
1902,C2,166.5,0.25,95,140.0
1903,D3,166.75,0.25,95,140.0
1904,E2,166.75,0.25,95,140.0
1905,C2,166.75,0.25,95,140.0
1906,B-2,167.0,0.25,95,140.0
1907,F#2,167.0,0.25,95,140.0
1908,F#1,167.0,1.0,95,140.0
1909,B-2,167.0,0.25,95,140.0
1910,E2,167.0,0.25,95,140.0
1911,B-2,167.25,0.25,95,140.0
1912,F#2,167.25,0.25,95,140.0
1913,C2,167.25,0.25,95,140.0
1914,B-2,167.5,0.25,95,140.0
1915,F#2,167.5,0.25,95,140.0
1916,C2,167.5,0.25,95,140.0
1917,B-2,167.75,0.25,95,140.0
1918,F#2,167.75,0.25,95,140.0
1919,E2,167.75,0.25,95,140.0
1920,C#3,168.0,0.25,95,140.0
1921,D2,168.0,0.25,95,140.0
1922,D1,168.0,1.0,95,140.0
1923,B-2,168.0,0.75,95,140.0
1924,C2,168.0,0.75,95,140.0
1925,C#3,168.25,0.25,95,140.0
1926,D2,168.25,0.25,95,140.0
1927,C#3,168.5,0.25,95,140.0
1928,D2,168.5,0.25,95,140.0
1929,C#3,168.75,0.25,95,140.0
1930,D2,168.75,0.25,95,140.0
1931,C2,168.75,0.25,95,140.0
1932,E3,169.0,0.25,95,140.0
1933,E2,169.0,0.25,95,140.0
1934,E1,169.0,0.5,95,140.0
1935,B-2,169.0,0.5,95,140.0
1936,E2,169.0,0.5,95,140.0
1937,E3,169.25,0.25,95,140.0
1938,E2,169.25,0.25,95,140.0
1939,D3,169.5,0.25,95,140.0
1940,C2,169.5,0.25,95,140.0
1941,C1,169.5,1.0,95,140.0
1942,C2,169.5,0.5,95,140.0
1943,D3,169.75,0.25,95,140.0
1944,C2,169.75,0.25,95,140.0
1945,D3,170.0,0.25,95,140.0
1946,C2,170.0,0.25,95,140.0
1947,B-2,170.0,0.5,95,140.0
1948,D3,170.25,0.25,95,140.0
1949,C2,170.25,0.25,95,140.0
1950,C#3,170.5,0.25,95,140.0
1951,B1,170.5,0.25,95,140.0
1952,B0,170.5,1.5,95,140.0
1953,C2,170.5,0.5,95,140.0
1954,C#3,170.75,0.25,95,140.0
1955,B1,170.75,0.25,95,140.0
1956,C#3,171.0,0.25,95,140.0
1957,B1,171.0,0.25,95,140.0
1958,B-2,171.0,0.25,95,140.0
1959,C#3,171.25,0.25,95,140.0
1960,B1,171.25,0.25,95,140.0
1961,E2,171.25,0.25,95,140.0
1962,C#3,171.5,0.25,95,140.0
1963,B1,171.5,0.25,95,140.0
1964,E2,171.5,0.25,95,140.0
1965,C#3,171.75,0.25,95,140.0
1966,B1,171.75,0.25,95,140.0
1967,E2,171.75,0.25,95,140.0
1968,F#3,172.0,0.25,95,140.0
1969,F#2,172.0,0.25,95,140.0
1970,F#1,172.0,1.5,95,140.0
1971,C#3,172.0,0.25,95,140.0
1972,C2,172.0,0.25,95,140.0
1973,F#3,172.25,0.25,95,140.0
1974,F#2,172.25,0.25,95,140.0
1975,C2,172.25,0.25,95,140.0
1976,F#3,172.5,0.25,95,140.0
1977,F#2,172.5,0.25,95,140.0
1978,C2,172.5,0.25,95,140.0
1979,F#3,172.75,0.25,95,140.0
1980,F#2,172.75,0.25,95,140.0
1981,C2,172.75,0.25,95,140.0
1982,F#3,173.0,0.25,95,140.0
1983,F#2,173.0,0.25,95,140.0
1984,B-2,173.0,0.5,95,140.0
1985,E2,173.0,0.5,95,140.0
1986,F#3,173.25,0.25,95,140.0
1987,F#2,173.25,0.25,95,140.0
1988,C#3,173.5,0.25,95,140.0
1989,A2,173.5,0.25,95,140.0
1990,A1,173.5,0.5,95,140.0
1991,C2,173.5,0.5,95,140.0
1992,C#3,173.75,0.25,95,140.0
1993,A2,173.75,0.25,95,140.0
1994,D3,174.0,0.25,95,140.0
1995,E2,174.0,0.25,95,140.0
1996,E1,174.0,1.0,95,140.0
1997,B-2,174.0,0.25,95,140.0
1998,D3,174.25,0.25,95,140.0
1999,E2,174.25,0.25,95,140.0
2000,E2,174.25,0.25,95,140.0
2001,D3,174.5,0.25,95,140.0
2002,E2,174.5,0.25,95,140.0
2003,C2,174.5,0.25,95,140.0
2004,D3,174.75,0.25,95,140.0
2005,E2,174.75,0.25,95,140.0
2006,C2,174.75,0.25,95,140.0
2007,B-2,175.0,0.25,95,140.0
2008,F#2,175.0,0.25,95,140.0
2009,F#1,175.0,1.0,95,140.0
2010,B-2,175.0,0.5,95,140.0
2011,E2,175.0,0.5,95,140.0
2012,B-2,175.25,0.25,95,140.0
2013,F#2,175.25,0.25,95,140.0
2014,B-2,175.5,0.25,95,140.0
2015,F#2,175.5,0.25,95,140.0
2016,C2,175.5,0.5,95,140.0
2017,B-2,175.75,0.25,95,140.0
2018,F#2,175.75,0.25,95,140.0
2019,C#3,176.0,0.25,95,140.0
2020,D2,176.0,0.25,95,140.0
2021,D1,176.0,1.0,95,140.0
2022,B-2,176.0,0.75,95,140.0
2023,C2,176.0,0.75,95,140.0
2024,C#3,176.25,0.25,95,140.0
2025,D2,176.25,0.25,95,140.0
2026,C#3,176.5,0.25,95,140.0
2027,D2,176.5,0.25,95,140.0
2028,C#3,176.75,0.25,95,140.0
2029,D2,176.75,0.25,95,140.0
2030,C2,176.75,0.25,95,140.0
2031,E3,177.0,0.25,95,140.0
2032,E2,177.0,0.25,95,140.0
2033,E1,177.0,0.5,95,140.0
2034,B-2,177.0,0.5,95,140.0
2035,E2,177.0,0.5,95,140.0
2036,E3,177.25,0.25,95,140.0
2037,E2,177.25,0.25,95,140.0
2038,D3,177.5,0.25,95,140.0
2039,C2,177.5,0.25,95,140.0
2040,C1,177.5,1.0,95,140.0
2041,C2,177.5,0.5,95,140.0
2042,D3,177.75,0.25,95,140.0
2043,C2,177.75,0.25,95,140.0
2044,D3,178.0,0.25,95,140.0
2045,C2,178.0,0.25,95,140.0
2046,B-2,178.0,0.25,95,140.0
2047,D3,178.25,0.25,95,140.0
2048,C2,178.25,0.25,95,140.0
2049,E2,178.25,0.25,95,140.0
2050,C#3,178.5,0.25,95,140.0
2051,B1,178.5,0.25,95,140.0
2052,B0,178.5,1.5,95,140.0
2053,C2,178.5,0.25,95,140.0
2054,C#3,178.75,0.25,95,140.0
2055,B1,178.75,0.25,95,140.0
2056,C2,178.75,0.25,95,140.0
2057,C#3,179.0,0.25,95,140.0
2058,B1,179.0,0.25,95,140.0
2059,C#3,179.0,0.5,95,140.0
2060,E2,179.0,0.5,95,140.0
2061,C#3,179.25,0.25,95,140.0
2062,B1,179.25,0.25,95,140.0
2063,C#3,179.5,0.25,95,140.0
2064,B1,179.5,0.25,95,140.0
2065,A3,179.5,0.5,95,140.0
2066,C2,179.5,0.5,95,140.0
2067,C#3,179.75,0.25,95,140.0
2068,B1,179.75,0.25,95,140.0
2069,F#3,180.0,0.25,95,140.0
2070,F#2,180.0,0.25,95,140.0
2071,F#1,180.0,1.5,95,140.0
2072,C#3,180.0,0.75,95,140.0
2073,C2,180.0,0.75,95,140.0
2074,F#3,180.25,0.25,95,140.0
2075,F#2,180.25,0.25,95,140.0
2076,F#3,180.5,0.25,95,140.0
2077,F#2,180.5,0.25,95,140.0
2078,F#3,180.75,0.25,95,140.0
2079,F#2,180.75,0.25,95,140.0
2080,C2,180.75,0.25,95,140.0
2081,F#3,181.0,0.25,95,140.0
2082,F#2,181.0,0.25,95,140.0
2083,B-2,181.0,0.5,95,140.0
2084,E2,181.0,0.5,95,140.0
2085,F#3,181.25,0.25,95,140.0
2086,F#2,181.25,0.25,95,140.0
2087,C#3,181.5,0.25,95,140.0
2088,A2,181.5,0.25,95,140.0
2089,A1,181.5,0.5,95,140.0
2090,C2,181.5,0.5,95,140.0
2091,C#3,181.75,0.25,95,140.0
2092,A2,181.75,0.25,95,140.0
2093,D3,182.0,0.25,95,140.0
2094,E2,182.0,0.25,95,140.0
2095,E1,182.0,1.0,95,140.0
2096,B-2,182.0,0.25,95,140.0
2097,D3,182.25,0.25,95,140.0
2098,E2,182.25,0.25,95,140.0
2099,E2,182.25,0.25,95,140.0
2100,D3,182.5,0.25,95,140.0
2101,E2,182.5,0.25,95,140.0
2102,C2,182.5,0.25,95,140.0
2103,D3,182.75,0.25,95,140.0
2104,E2,182.75,0.25,95,140.0
2105,C2,182.75,0.25,95,140.0
2106,B-2,183.0,0.25,95,140.0
2107,F#2,183.0,0.25,95,140.0
2108,F#1,183.0,1.0,95,140.0
2109,B-2,183.0,0.25,95,140.0
2110,E2,183.0,0.25,95,140.0
2111,B-2,183.25,0.25,95,140.0
2112,F#2,183.25,0.25,95,140.0
2113,C2,183.25,0.25,95,140.0
2114,B-2,183.5,0.25,95,140.0
2115,F#2,183.5,0.25,95,140.0
2116,C2,183.5,0.25,95,140.0
2117,B-2,183.75,0.25,95,140.0
2118,F#2,183.75,0.25,95,140.0
2119,E2,183.75,0.25,95,140.0
2120,C#3,184.0,0.25,95,140.0
2121,D2,184.0,0.25,95,140.0
2122,D1,184.0,1.0,95,140.0
2123,C2,184.0,0.5,95,140.0
2124,C#3,184.25,0.25,95,140.0
2125,D2,184.25,0.25,95,140.0
2126,C#3,184.5,0.25,95,140.0
2127,D2,184.5,0.25,95,140.0
2128,E2,184.5,0.125,95,140.0
2129,E2,184.625,0.125,95,140.0
2130,C#3,184.75,0.25,95,140.0
2131,D2,184.75,0.25,95,140.0
2132,E2,184.75,0.125,95,140.0
2133,E2,184.875,0.125,95,140.0
2134,E3,185.0,0.25,95,140.0
2135,E2,185.0,0.25,95,140.0
2136,E1,185.0,0.5,95,140.0
2137,E2,185.0,0.125,95,140.0
2138,E2,185.125,0.125,95,140.0
2139,E3,185.25,0.25,95,140.0
2140,E2,185.25,0.25,95,140.0
2141,E2,185.25,0.125,95,140.0
2142,E2,185.375,0.125,95,140.0
2143,D3,185.5,0.25,95,140.0
2144,C2,185.5,0.25,95,140.0
2145,C1,185.5,1.0,95,140.0
2146,E2,185.5,0.125,95,140.0
2147,E2,185.625,0.125,95,140.0
2148,D3,185.75,0.25,95,140.0
2149,C2,185.75,0.25,95,140.0
2150,E2,185.75,0.125,95,140.0
2151,E2,185.875,0.125,95,140.0
2152,D3,186.0,0.25,95,140.0
2153,C2,186.0,0.25,95,140.0
2154,E2,186.0,0.125,95,140.0
2155,E2,186.125,0.125,95,140.0
2156,D3,186.25,0.25,95,140.0
2157,C2,186.25,0.25,95,140.0
2158,E2,186.25,0.125,95,140.0
2159,E2,186.375,0.125,95,140.0
2160,C#3,186.5,0.25,95,140.0
2161,B1,186.5,0.25,95,140.0
2162,B0,186.5,1.5,95,140.0
2163,E2,186.5,0.125,95,140.0
2164,E2,186.625,0.125,95,140.0
2165,C#3,186.75,0.25,95,140.0
2166,B1,186.75,0.25,95,140.0
2167,E2,186.75,0.125,95,140.0
2168,E2,186.875,0.125,95,140.0
2169,C#3,187.0,0.25,95,140.0
2170,B1,187.0,0.25,95,140.0
2171,E2,187.0,0.125,95,140.0
2172,E2,187.125,0.125,95,140.0
2173,C#3,187.25,0.25,95,140.0
2174,B1,187.25,0.25,95,140.0
2175,E2,187.25,0.125,95,140.0
2176,E2,187.375,0.125,95,140.0
2177,C#3,187.5,0.25,95,140.0
2178,B1,187.5,0.25,95,140.0
2179,E2,187.5,0.125,95,140.0
2180,E2,187.625,0.125,95,140.0
2181,C#3,187.75,0.25,95,140.0
2182,B1,187.75,0.25,95,140.0
2183,E2,187.75,0.125,95,140.0
2184,E2,187.875,0.125,95,140.0
2185,D1,188.0,0.5,95,140.0
2186,A2,188.0,0.5,95,140.0
2187,D2,188.0,0.5,95,140.0
2188,A2,188.0,0.5,95,140.0
2189,D2,188.0,0.5,95,140.0
2190,A3,188.0,0.5,95,140.0
2191,C2,188.0,0.5,95,140.0
2192,D1,188.5,0.5,95,140.0
2193,A2,188.5,0.5,95,140.0
2194,D2,188.5,0.5,95,140.0
2195,A2,188.5,0.5,95,140.0
2196,D2,188.5,0.5,95,140.0
2197,A3,188.5,0.5,95,140.0
2198,C2,188.5,0.5,95,140.0
2199,D1,189.0,0.25,95,140.0
2200,A2,189.0,0.25,95,140.0
2201,D2,189.0,0.25,95,140.0
2202,A2,189.0,0.25,95,140.0
2203,D2,189.0,0.25,95,140.0
2204,A3,189.0,0.25,95,140.0
2205,E2,189.0,0.25,95,140.0
2206,D1,189.25,0.5,95,140.0
2207,C2,189.25,0.25,95,140.0
2208,A2,189.25,0.5,95,140.0
2209,D2,189.25,0.5,95,140.0
2210,A2,189.25,0.5,95,140.0
2211,D2,189.25,0.5,95,140.0
2212,A3,189.5,0.25,95,140.0
2213,D1,189.75,0.25,95,140.0
2214,C2,189.75,0.25,95,140.0
2215,A2,189.75,0.25,95,140.0
2216,D2,189.75,0.25,95,140.0
2217,A2,189.75,0.25,95,140.0
2218,D2,189.75,0.25,95,140.0
2219,D1,190.0,0.5,95,140.0
2220,A2,190.0,0.5,95,140.0
2221,D2,190.0,0.5,95,140.0
2222,A2,190.0,0.5,95,140.0
2223,D2,190.0,0.5,95,140.0
2224,A3,190.0,0.5,95,140.0
2225,C2,190.0,0.5,95,140.0
2226,D1,190.5,0.5,95,140.0
2227,A2,190.5,0.5,95,140.0
2228,D2,190.5,0.5,95,140.0
2229,A2,190.5,0.5,95,140.0
2230,D2,190.5,0.5,95,140.0
2231,A3,190.5,0.5,95,140.0
2232,C2,190.5,0.5,95,140.0
2233,D1,191.0,0.25,95,140.0
2234,A2,191.0,0.25,95,140.0
2235,D2,191.0,0.25,95,140.0
2236,A2,191.0,0.25,95,140.0
2237,D2,191.0,0.25,95,140.0
2238,A3,191.0,0.25,95,140.0
2239,E2,191.0,0.25,95,140.0
2240,D1,191.25,0.5,95,140.0
2241,C2,191.25,0.25,95,140.0
2242,A2,191.25,0.5,95,140.0
2243,D2,191.25,0.5,95,140.0
2244,A2,191.25,0.5,95,140.0
2245,D2,191.25,0.5,95,140.0
2246,A3,191.5,0.25,95,140.0
2247,D1,191.75,0.25,95,140.0
2248,C2,191.75,0.25,95,140.0
2249,A2,191.75,0.25,95,140.0
2250,D2,191.75,0.25,95,140.0
2251,A2,191.75,0.25,95,140.0
2252,D2,191.75,0.25,95,140.0
2253,D1,192.0,0.5,95,140.0
2254,A2,192.0,0.5,95,140.0
2255,D2,192.0,0.5,95,140.0
2256,A2,192.0,0.5,95,140.0
2257,D2,192.0,0.5,95,140.0
2258,A3,192.0,0.5,95,140.0
2259,C2,192.0,0.5,95,140.0
2260,D1,192.5,0.5,95,140.0
2261,A2,192.5,0.5,95,140.0
2262,D2,192.5,0.5,95,140.0
2263,A2,192.5,0.5,95,140.0
2264,D2,192.5,0.5,95,140.0
2265,A3,192.5,0.5,95,140.0
2266,C2,192.5,0.5,95,140.0
2267,D1,193.0,0.25,95,140.0
2268,A3,193.0,0.25,95,140.0
2269,A2,193.0,0.25,95,140.0
2270,D2,193.0,0.25,95,140.0
2271,A2,193.0,0.25,95,140.0
2272,D2,193.0,0.25,95,140.0
2273,D1,193.25,0.5,95,140.0
2274,C2,193.25,0.25,95,140.0
2275,A2,193.25,0.5,95,140.0
2276,D2,193.25,0.5,95,140.0
2277,A2,193.25,0.5,95,140.0
2278,D2,193.25,0.5,95,140.0
2279,A3,193.5,0.25,95,140.0
2280,D1,193.75,0.25,95,140.0
2281,C2,193.75,0.25,95,140.0
2282,A2,193.75,0.25,95,140.0
2283,D2,193.75,0.25,95,140.0
2284,A2,193.75,0.25,95,140.0
2285,D2,193.75,0.25,95,140.0
2286,D1,194.0,0.5,95,140.0
2287,C2,194.0,0.5,95,140.0
2288,A2,194.0,0.5,95,140.0
2289,D2,194.0,0.5,95,140.0
2290,A2,194.0,0.5,95,140.0
2291,D2,194.0,0.5,95,140.0
2292,D1,194.5,0.5,95,140.0
2293,C2,194.5,0.5,95,140.0
2294,A2,194.5,0.5,95,140.0
2295,D2,194.5,0.5,95,140.0
2296,A2,194.5,0.5,95,140.0
2297,D2,194.5,0.5,95,140.0
2298,C1,195.0,0.5,95,140.0
2299,E2,195.0,0.5,95,140.0
2300,G2,195.0,0.5,95,140.0
2301,C2,195.0,0.5,95,140.0
2302,G2,195.0,0.5,95,140.0
2303,C2,195.0,0.5,95,140.0
2304,C1,195.5,0.5,95,140.0
2305,C2,195.5,0.5,95,140.0
2306,G2,195.5,0.5,95,140.0
2307,C2,195.5,0.5,95,140.0
2308,G2,195.5,0.5,95,140.0
2309,C2,195.5,0.5,95,140.0
2310,B0,196.0,0.5,95,140.0
2311,B2,196.0,0.5,95,140.0
2312,F#2,196.0,0.5,95,140.0
2313,B1,196.0,0.5,95,140.0
2314,B2,196.0,0.5,95,140.0
2315,F#2,196.0,0.5,95,140.0
2316,B1,196.0,0.5,95,140.0
2317,A3,196.0,0.5,95,140.0
2318,C2,196.0,0.5,95,140.0
2319,C4,196.0,0.5,95,140.0
2320,G3,196.0,0.5,95,140.0
2321,B0,196.5,0.5,95,140.0
2322,C2,196.5,0.5,95,140.0
2323,B2,196.5,0.5,95,140.0
2324,F#2,196.5,0.5,95,140.0
2325,B1,196.5,0.5,95,140.0
2326,B2,196.5,0.5,95,140.0
2327,F#2,196.5,0.5,95,140.0
2328,B1,196.5,0.5,95,140.0
2329,C4,196.5,0.5,95,140.0
2330,G3,196.5,0.5,95,140.0
2331,B0,197.0,0.5,95,140.0
2332,B2,197.0,0.5,95,140.0
2333,F#2,197.0,0.5,95,140.0
2334,B1,197.0,0.5,95,140.0
2335,B2,197.0,0.5,95,140.0
2336,F#2,197.0,0.5,95,140.0
2337,B1,197.0,0.5,95,140.0
2338,B-2,197.0,0.5,95,140.0
2339,E2,197.0,0.5,95,140.0
2340,C2,197.0,0.5,95,140.0
2341,C4,197.0,0.5,95,140.0
2342,G3,197.0,0.5,95,140.0
2343,B0,197.5,0.5,95,140.0
2344,C2,197.5,0.5,95,140.0
2345,B2,197.5,0.5,95,140.0
2346,F#2,197.5,0.5,95,140.0
2347,B1,197.5,0.5,95,140.0
2348,B2,197.5,0.5,95,140.0
2349,F#2,197.5,0.5,95,140.0
2350,B1,197.5,0.5,95,140.0
2351,C4,197.5,0.5,95,140.0
2352,G3,197.5,0.5,95,140.0
2353,B0,198.0,0.5,95,140.0
2354,B2,198.0,0.5,95,140.0
2355,F#2,198.0,0.5,95,140.0
2356,B1,198.0,0.5,95,140.0
2357,B2,198.0,0.5,95,140.0
2358,F#2,198.0,0.5,95,140.0
2359,B1,198.0,0.5,95,140.0
2360,B-2,198.0,0.5,95,140.0
2361,C2,198.0,0.5,95,140.0
2362,C4,198.0,0.5,95,140.0
2363,G3,198.0,0.5,95,140.0
2364,B0,198.5,0.5,95,140.0
2365,C2,198.5,0.5,95,140.0
2366,B2,198.5,0.5,95,140.0
2367,F#2,198.5,0.5,95,140.0
2368,B1,198.5,0.5,95,140.0
2369,B2,198.5,0.5,95,140.0
2370,F#2,198.5,0.5,95,140.0
2371,B1,198.5,0.5,95,140.0
2372,C4,198.5,0.5,95,140.0
2373,G3,198.5,0.5,95,140.0
2374,B0,199.0,0.5,95,140.0
2375,B2,199.0,0.5,95,140.0
2376,F#2,199.0,0.5,95,140.0
2377,B1,199.0,0.5,95,140.0
2378,B2,199.0,0.5,95,140.0
2379,F#2,199.0,0.5,95,140.0
2380,B1,199.0,0.5,95,140.0
2381,B-2,199.0,0.5,95,140.0
2382,E2,199.0,0.5,95,140.0
2383,C2,199.0,0.5,95,140.0
2384,C4,199.0,0.5,95,140.0
2385,G3,199.0,0.5,95,140.0
2386,B0,199.5,0.5,95,140.0
2387,C2,199.5,0.5,95,140.0
2388,B2,199.5,0.5,95,140.0
2389,F#2,199.5,0.5,95,140.0
2390,B1,199.5,0.5,95,140.0
2391,B2,199.5,0.5,95,140.0
2392,F#2,199.5,0.5,95,140.0
2393,B1,199.5,0.5,95,140.0
2394,C4,199.5,0.5,95,140.0
2395,G3,199.5,0.5,95,140.0
2396,B0,200.0,0.5,95,140.0
2397,B2,200.0,0.5,95,140.0
2398,F#2,200.0,0.5,95,140.0
2399,B1,200.0,0.5,95,140.0
2400,B2,200.0,0.5,95,140.0
2401,F#2,200.0,0.5,95,140.0
2402,B1,200.0,0.5,95,140.0
2403,B-2,200.0,0.5,95,140.0
2404,C2,200.0,0.5,95,140.0
2405,C4,200.0,0.5,95,140.0
2406,G3,200.0,0.5,95,140.0
2407,B0,200.5,0.5,95,140.0
2408,C2,200.5,0.5,95,140.0
2409,B2,200.5,0.5,95,140.0
2410,F#2,200.5,0.5,95,140.0
2411,B1,200.5,0.5,95,140.0
2412,B2,200.5,0.5,95,140.0
2413,F#2,200.5,0.5,95,140.0
2414,B1,200.5,0.5,95,140.0
2415,C4,200.5,0.5,95,140.0
2416,G3,200.5,0.5,95,140.0
2417,B0,201.0,0.5,95,140.0
2418,B2,201.0,0.5,95,140.0
2419,F#2,201.0,0.5,95,140.0
2420,B1,201.0,0.5,95,140.0
2421,B2,201.0,0.5,95,140.0
2422,F#2,201.0,0.5,95,140.0
2423,B1,201.0,0.5,95,140.0
2424,B-2,201.0,0.5,95,140.0
2425,E2,201.0,0.5,95,140.0
2426,C2,201.0,0.5,95,140.0
2427,C4,201.0,0.5,95,140.0
2428,G3,201.0,0.5,95,140.0
2429,B0,201.5,0.5,95,140.0
2430,C2,201.5,0.5,95,140.0
2431,B2,201.5,0.5,95,140.0
2432,F#2,201.5,0.5,95,140.0
2433,B1,201.5,0.5,95,140.0
2434,B2,201.5,0.5,95,140.0
2435,F#2,201.5,0.5,95,140.0
2436,B1,201.5,0.5,95,140.0
2437,C4,201.5,0.5,95,140.0
2438,G3,201.5,0.5,95,140.0
2439,B0,202.0,0.5,95,140.0
2440,B2,202.0,0.5,95,140.0
2441,F#2,202.0,0.5,95,140.0
2442,B1,202.0,0.5,95,140.0
2443,B2,202.0,0.5,95,140.0
2444,F#2,202.0,0.5,95,140.0
2445,B1,202.0,0.5,95,140.0
2446,B-2,202.0,0.5,95,140.0
2447,C2,202.0,0.5,95,140.0
2448,C4,202.0,0.5,95,140.0
2449,G3,202.0,0.5,95,140.0
2450,B0,202.5,0.5,95,140.0
2451,C2,202.5,0.5,95,140.0
2452,B2,202.5,0.5,95,140.0
2453,F#2,202.5,0.5,95,140.0
2454,B1,202.5,0.5,95,140.0
2455,B2,202.5,0.5,95,140.0
2456,F#2,202.5,0.5,95,140.0
2457,B1,202.5,0.5,95,140.0
2458,C4,202.5,0.5,95,140.0
2459,G3,202.5,0.5,95,140.0
2460,B0,203.0,0.5,95,140.0
2461,B2,203.0,0.5,95,140.0
2462,F#2,203.0,0.5,95,140.0
2463,B1,203.0,0.5,95,140.0
2464,B2,203.0,0.5,95,140.0
2465,F#2,203.0,0.5,95,140.0
2466,B1,203.0,0.5,95,140.0
2467,B-2,203.0,0.5,95,140.0
2468,C2,203.0,0.5,95,140.0
2469,C4,203.0,0.5,95,140.0
2470,G3,203.0,0.5,95,140.0
2471,D1,203.5,0.5,95,140.0
2472,D3,203.5,0.5,95,140.0
2473,A2,203.5,0.5,95,140.0
2474,D2,203.5,0.5,95,140.0
2475,D3,203.5,0.5,95,140.0
2476,A2,203.5,0.5,95,140.0
2477,D2,203.5,0.5,95,140.0
2478,C#3,203.5,0.5,95,140.0
2479,C2,203.5,0.5,95,140.0
2480,C4,203.5,0.5,95,140.0
2481,G3,203.5,0.5,95,140.0
2482,D1,204.0,0.5,95,140.0
2483,D1,204.5,0.5,95,140.0
2484,C2,204.5,0.5,95,140.0
2485,D3,204.5,0.5,95,140.0
2486,A2,204.5,0.5,95,140.0
2487,D2,204.5,0.5,95,140.0
2488,D3,204.5,0.5,95,140.0
2489,A2,204.5,0.5,95,140.0
2490,D2,204.5,0.5,95,140.0
2491,C4,204.5,0.5,95,140.0
2492,G3,204.5,0.5,95,140.0
2493,D1,205.0,0.5,95,140.0
2494,D3,205.0,0.5,95,140.0
2495,A2,205.0,0.5,95,140.0
2496,D2,205.0,0.5,95,140.0
2497,D3,205.0,0.5,95,140.0
2498,A2,205.0,0.5,95,140.0
2499,D2,205.0,0.5,95,140.0
2500,B-2,205.0,0.5,95,140.0
2501,E2,205.0,0.5,95,140.0
2502,C2,205.0,0.5,95,140.0
2503,C4,205.0,0.5,95,140.0
2504,G3,205.0,0.5,95,140.0
2505,D1,205.5,0.5,95,140.0
2506,C2,205.5,0.5,95,140.0
2507,D3,205.5,0.5,95,140.0
2508,A2,205.5,0.5,95,140.0
2509,D2,205.5,0.5,95,140.0
2510,D3,205.5,0.5,95,140.0
2511,A2,205.5,0.5,95,140.0
2512,D2,205.5,0.5,95,140.0
2513,C4,205.5,0.5,95,140.0
2514,G3,205.5,0.5,95,140.0
2515,D1,206.0,0.5,95,140.0
2516,D3,206.0,0.5,95,140.0
2517,A2,206.0,0.5,95,140.0
2518,D2,206.0,0.5,95,140.0
2519,D3,206.0,0.5,95,140.0
2520,A2,206.0,0.5,95,140.0
2521,D2,206.0,0.5,95,140.0
2522,B-2,206.0,0.5,95,140.0
2523,C2,206.0,0.5,95,140.0
2524,C4,206.0,0.5,95,140.0
2525,G3,206.0,0.5,95,140.0
2526,D1,206.5,0.5,95,140.0
2527,C2,206.5,0.5,95,140.0
2528,D3,206.5,0.5,95,140.0
2529,A2,206.5,0.5,95,140.0
2530,D2,206.5,0.5,95,140.0
2531,D3,206.5,0.5,95,140.0
2532,A2,206.5,0.5,95,140.0
2533,D2,206.5,0.5,95,140.0
2534,C4,206.5,0.5,95,140.0
2535,G3,206.5,0.5,95,140.0
2536,D1,207.0,0.5,95,140.0
2537,D3,207.0,0.5,95,140.0
2538,A2,207.0,0.5,95,140.0
2539,D2,207.0,0.5,95,140.0
2540,D3,207.0,0.5,95,140.0
2541,A2,207.0,0.5,95,140.0
2542,D2,207.0,0.5,95,140.0
2543,B-2,207.0,0.5,95,140.0
2544,E2,207.0,0.5,95,140.0
2545,C2,207.0,0.5,95,140.0
2546,C4,207.0,0.5,95,140.0
2547,G3,207.0,0.5,95,140.0
2548,F1,207.5,0.5,95,140.0
2549,D3,207.5,0.5,95,140.0
2550,A2,207.5,0.5,95,140.0
2551,D2,207.5,0.5,95,140.0
2552,D3,207.5,0.5,95,140.0
2553,A2,207.5,0.5,95,140.0
2554,D2,207.5,0.5,95,140.0
2555,C#3,207.5,0.5,95,140.0
2556,C2,207.5,0.5,95,140.0
2557,C4,207.5,0.5,95,140.0
2558,G3,207.5,0.5,95,140.0
2559,F1,208.0,0.5,95,140.0
2560,F3,208.0,0.5,95,140.0
2561,C3,208.0,0.5,95,140.0
2562,F2,208.0,0.5,95,140.0
2563,F3,208.0,0.5,95,140.0
2564,C3,208.0,0.5,95,140.0
2565,F2,208.0,0.5,95,140.0
2566,C4,208.0,0.5,95,140.0
2567,G3,208.0,0.5,95,140.0
2568,C1,208.5,0.5,95,140.0
2569,C2,208.5,0.5,95,140.0
2570,C1,209.0,0.5,95,140.0
2571,F3,209.0,0.5,95,140.0
2572,C3,209.0,0.5,95,140.0
2573,F2,209.0,0.5,95,140.0
2574,F3,209.0,0.5,95,140.0
2575,C3,209.0,0.5,95,140.0
2576,F2,209.0,0.5,95,140.0
2577,B-2,209.0,0.5,95,140.0
2578,E2,209.0,0.5,95,140.0
2579,C2,209.0,0.5,95,140.0
2580,C4,209.0,0.5,95,140.0
2581,G3,209.0,0.5,95,140.0
2582,C1,209.5,0.5,95,140.0
2583,C2,209.5,0.5,95,140.0
2584,C3,209.5,0.5,95,140.0
2585,G2,209.5,0.5,95,140.0
2586,C2,209.5,0.5,95,140.0
2587,C3,209.5,0.5,95,140.0
2588,G2,209.5,0.5,95,140.0
2589,C2,209.5,0.5,95,140.0
2590,C4,209.5,0.5,95,140.0
2591,G3,209.5,0.5,95,140.0
2592,C1,210.0,0.5,95,140.0
2593,C3,210.0,0.5,95,140.0
2594,G2,210.0,0.5,95,140.0
2595,C2,210.0,0.5,95,140.0
2596,C3,210.0,0.5,95,140.0
2597,G2,210.0,0.5,95,140.0
2598,C2,210.0,0.5,95,140.0
2599,B-2,210.0,0.5,95,140.0
2600,C2,210.0,0.5,95,140.0
2601,C4,210.0,0.5,95,140.0
2602,G3,210.0,0.5,95,140.0
2603,D1,210.5,0.5,95,140.0
2604,E2,210.5,0.5,95,140.0
2605,C3,210.5,0.5,95,140.0
2606,G2,210.5,0.5,95,140.0
2607,C2,210.5,0.5,95,140.0
2608,C3,210.5,0.5,95,140.0
2609,G2,210.5,0.5,95,140.0
2610,C2,210.5,0.5,95,140.0
2611,C4,210.5,0.5,95,140.0
2612,G3,210.5,0.5,95,140.0
2613,C1,211.0,0.5,95,140.0
2614,E2,211.0,0.5,95,140.0
2615,C3,211.0,0.5,95,140.0
2616,G2,211.0,0.5,95,140.0
2617,C2,211.0,0.5,95,140.0
2618,C3,211.0,0.5,95,140.0
2619,G2,211.0,0.5,95,140.0
2620,C2,211.0,0.5,95,140.0
2621,C4,211.0,0.5,95,140.0
2622,G3,211.0,0.5,95,140.0
2623,B0,211.5,0.5,95,140.0
2624,D3,211.5,0.5,95,140.0
2625,A2,211.5,0.5,95,140.0
2626,D2,211.5,0.5,95,140.0
2627,D3,211.5,0.5,95,140.0
2628,A2,211.5,0.5,95,140.0
2629,D2,211.5,0.5,95,140.0
2630,C#3,211.5,0.5,95,140.0
2631,C2,211.5,0.5,95,140.0
2632,C4,211.5,0.5,95,140.0
2633,G3,211.5,0.5,95,140.0
2634,B0,212.0,0.5,95,140.0
2635,C3,212.0,0.5,95,140.0
2636,G2,212.0,0.5,95,140.0
2637,C2,212.0,0.5,95,140.0
2638,C3,212.0,0.5,95,140.0
2639,G2,212.0,0.5,95,140.0
2640,C2,212.0,0.5,95,140.0
2641,C4,212.0,0.5,95,140.0
2642,G3,212.0,0.5,95,140.0
2643,B0,212.5,0.5,95,140.0
2644,C2,212.5,0.5,95,140.0
2645,B2,212.5,0.5,95,140.0
2646,F#2,212.5,0.5,95,140.0
2647,B1,212.5,0.5,95,140.0
2648,B2,212.5,0.5,95,140.0
2649,F#2,212.5,0.5,95,140.0
2650,B1,212.5,0.5,95,140.0
2651,C4,212.5,0.5,95,140.0
2652,G3,212.5,0.5,95,140.0
2653,B0,213.0,0.5,95,140.0
2654,B-2,213.0,0.5,95,140.0
2655,E2,213.0,0.5,95,140.0
2656,C2,213.0,0.5,95,140.0
2657,C4,213.0,0.5,95,140.0
2658,G3,213.0,0.5,95,140.0
2659,B0,213.5,0.5,95,140.0
2660,C2,213.5,0.5,95,140.0
2661,B2,213.5,0.5,95,140.0
2662,F#2,213.5,0.5,95,140.0
2663,B1,213.5,0.5,95,140.0
2664,B2,213.5,0.5,95,140.0
2665,F#2,213.5,0.5,95,140.0
2666,B1,213.5,0.5,95,140.0
2667,C4,213.5,0.5,95,140.0
2668,G3,213.5,0.5,95,140.0
2669,B0,214.0,0.5,95,140.0
2670,B2,214.0,0.5,95,140.0
2671,F#2,214.0,0.5,95,140.0
2672,B1,214.0,0.5,95,140.0
2673,B2,214.0,0.5,95,140.0
2674,F#2,214.0,0.5,95,140.0
2675,B1,214.0,0.5,95,140.0
2676,B-2,214.0,0.5,95,140.0
2677,C2,214.0,0.5,95,140.0
2678,C4,214.0,0.5,95,140.0
2679,G3,214.0,0.5,95,140.0
2680,B0,214.5,0.5,95,140.0
2681,C2,214.5,0.5,95,140.0
2682,B2,214.5,0.5,95,140.0
2683,F#2,214.5,0.5,95,140.0
2684,B1,214.5,0.5,95,140.0
2685,B2,214.5,0.5,95,140.0
2686,F#2,214.5,0.5,95,140.0
2687,B1,214.5,0.5,95,140.0
2688,C4,214.5,0.5,95,140.0
2689,G3,214.5,0.5,95,140.0
2690,B0,215.0,0.5,95,140.0
2691,B2,215.0,0.5,95,140.0
2692,F#2,215.0,0.5,95,140.0
2693,B1,215.0,0.5,95,140.0
2694,B2,215.0,0.5,95,140.0
2695,F#2,215.0,0.5,95,140.0
2696,B1,215.0,0.5,95,140.0
2697,B-2,215.0,0.5,95,140.0
2698,E2,215.0,0.5,95,140.0
2699,C2,215.0,0.5,95,140.0
2700,C4,215.0,0.5,95,140.0
2701,G3,215.0,0.5,95,140.0
2702,B0,215.5,0.5,95,140.0
2703,C2,215.5,0.5,95,140.0
2704,B2,215.5,0.5,95,140.0
2705,F#2,215.5,0.5,95,140.0
2706,B1,215.5,0.5,95,140.0
2707,B2,215.5,0.5,95,140.0
2708,F#2,215.5,0.5,95,140.0
2709,B1,215.5,0.5,95,140.0
2710,C4,215.5,0.5,95,140.0
2711,G3,215.5,0.5,95,140.0
2712,B0,216.0,0.5,95,140.0
2713,B2,216.0,0.5,95,140.0
2714,F#2,216.0,0.5,95,140.0
2715,B1,216.0,0.5,95,140.0
2716,B2,216.0,0.5,95,140.0
2717,F#2,216.0,0.5,95,140.0
2718,B1,216.0,0.5,95,140.0
2719,B-2,216.0,0.5,95,140.0
2720,C2,216.0,0.5,95,140.0
2721,C4,216.0,0.5,95,140.0
2722,G3,216.0,0.5,95,140.0
2723,B0,216.5,0.5,95,140.0
2724,C2,216.5,0.5,95,140.0
2725,B2,216.5,0.5,95,140.0
2726,F#2,216.5,0.5,95,140.0
2727,B1,216.5,0.5,95,140.0
2728,B2,216.5,0.5,95,140.0
2729,F#2,216.5,0.5,95,140.0
2730,B1,216.5,0.5,95,140.0
2731,C4,216.5,0.5,95,140.0
2732,G3,216.5,0.5,95,140.0
2733,B0,217.0,0.5,95,140.0
2734,B2,217.0,0.5,95,140.0
2735,F#2,217.0,0.5,95,140.0
2736,B1,217.0,0.5,95,140.0
2737,B2,217.0,0.5,95,140.0
2738,F#2,217.0,0.5,95,140.0
2739,B1,217.0,0.5,95,140.0
2740,B-2,217.0,0.5,95,140.0
2741,E2,217.0,0.5,95,140.0
2742,C2,217.0,0.5,95,140.0
2743,C4,217.0,0.5,95,140.0
2744,G3,217.0,0.5,95,140.0
2745,B0,217.5,0.5,95,140.0
2746,C2,217.5,0.5,95,140.0
2747,B2,217.5,0.5,95,140.0
2748,F#2,217.5,0.5,95,140.0
2749,B1,217.5,0.5,95,140.0
2750,B2,217.5,0.5,95,140.0
2751,F#2,217.5,0.5,95,140.0
2752,B1,217.5,0.5,95,140.0
2753,C4,217.5,0.5,95,140.0
2754,G3,217.5,0.5,95,140.0
2755,B0,218.0,0.5,95,140.0
2756,B2,218.0,0.5,95,140.0
2757,F#2,218.0,0.5,95,140.0
2758,B1,218.0,0.5,95,140.0
2759,B2,218.0,0.5,95,140.0
2760,F#2,218.0,0.5,95,140.0
2761,B1,218.0,0.5,95,140.0
2762,B-2,218.0,0.5,95,140.0
2763,C2,218.0,0.5,95,140.0
2764,C4,218.0,0.5,95,140.0
2765,G3,218.0,0.5,95,140.0
2766,B0,218.5,0.5,95,140.0
2767,E2,218.5,0.5,95,140.0
2768,B2,218.5,0.5,95,140.0
2769,F#2,218.5,0.5,95,140.0
2770,B1,218.5,0.5,95,140.0
2771,B2,218.5,0.5,95,140.0
2772,F#2,218.5,0.5,95,140.0
2773,B1,218.5,0.5,95,140.0
2774,C4,218.5,0.5,95,140.0
2775,G3,218.5,0.5,95,140.0
2776,B0,219.0,0.5,95,140.0
2777,E2,219.0,0.5,95,140.0
2778,B2,219.0,0.5,95,140.0
2779,F#2,219.0,0.5,95,140.0
2780,B1,219.0,0.5,95,140.0
2781,B2,219.0,0.5,95,140.0
2782,F#2,219.0,0.5,95,140.0
2783,B1,219.0,0.5,95,140.0
2784,C4,219.0,0.5,95,140.0
2785,G3,219.0,0.5,95,140.0
2786,D1,219.5,0.5,95,140.0
2787,B2,219.5,0.5,95,140.0
2788,F#2,219.5,0.5,95,140.0
2789,B1,219.5,0.5,95,140.0
2790,B2,219.5,0.5,95,140.0
2791,F#2,219.5,0.5,95,140.0
2792,B1,219.5,0.5,95,140.0
2793,C#3,219.5,0.5,95,140.0
2794,C2,219.5,0.5,95,140.0
2795,C4,219.5,0.5,95,140.0
2796,G3,219.5,0.5,95,140.0
2797,D1,220.0,0.5,95,140.0
2798,B2,220.0,0.5,95,140.0
2799,F#2,220.0,0.5,95,140.0
2800,B1,220.0,0.5,95,140.0
2801,B2,220.0,0.5,95,140.0
2802,F#2,220.0,0.5,95,140.0
2803,B1,220.0,0.5,95,140.0
2804,C4,220.0,0.5,95,140.0
2805,G3,220.0,0.5,95,140.0
2806,D1,220.5,0.5,95,140.0
2807,C2,220.5,0.5,95,140.0
2808,B2,220.5,0.5,95,140.0
2809,F#2,220.5,0.5,95,140.0
2810,B1,220.5,0.5,95,140.0
2811,B2,220.5,0.5,95,140.0
2812,F#2,220.5,0.5,95,140.0
2813,B1,220.5,0.5,95,140.0
2814,C4,220.5,0.5,95,140.0
2815,G3,220.5,0.5,95,140.0
2816,D1,221.0,0.5,95,140.0
2817,D3,221.0,0.5,95,140.0
2818,A2,221.0,0.5,95,140.0
2819,D2,221.0,0.5,95,140.0
2820,D3,221.0,0.5,95,140.0
2821,A2,221.0,0.5,95,140.0
2822,D2,221.0,0.5,95,140.0
2823,B-2,221.0,0.5,95,140.0
2824,E2,221.0,0.5,95,140.0
2825,C2,221.0,0.5,95,140.0
2826,D1,221.5,0.5,95,140.0
2827,C2,221.5,0.5,95,140.0
2828,C4,221.5,0.5,95,140.0
2829,G3,221.5,0.5,95,140.0
2830,D1,222.0,0.5,95,140.0
2831,D3,222.0,0.5,95,140.0
2832,A2,222.0,0.5,95,140.0
2833,D2,222.0,0.5,95,140.0
2834,D3,222.0,0.5,95,140.0
2835,A2,222.0,0.5,95,140.0
2836,D2,222.0,0.5,95,140.0
2837,B-2,222.0,0.5,95,140.0
2838,C2,222.0,0.5,95,140.0
2839,C4,222.0,0.5,95,140.0
2840,G3,222.0,0.5,95,140.0
2841,D1,222.5,0.5,95,140.0
2842,C2,222.5,0.5,95,140.0
2843,D3,222.5,0.5,95,140.0
2844,A2,222.5,0.5,95,140.0
2845,D2,222.5,0.5,95,140.0
2846,D3,222.5,0.5,95,140.0
2847,A2,222.5,0.5,95,140.0
2848,D2,222.5,0.5,95,140.0
2849,C4,222.5,0.5,95,140.0
2850,G3,222.5,0.5,95,140.0
2851,D1,223.0,0.5,95,140.0
2852,D3,223.0,0.5,95,140.0
2853,A2,223.0,0.5,95,140.0
2854,D2,223.0,0.5,95,140.0
2855,D3,223.0,0.5,95,140.0
2856,A2,223.0,0.5,95,140.0
2857,D2,223.0,0.5,95,140.0
2858,B-2,223.0,0.5,95,140.0
2859,E2,223.0,0.5,95,140.0
2860,C2,223.0,0.5,95,140.0
2861,C4,223.0,0.5,95,140.0
2862,G3,223.0,0.5,95,140.0
2863,F1,223.5,0.5,95,140.0
2864,D3,223.5,0.5,95,140.0
2865,A2,223.5,0.5,95,140.0
2866,D2,223.5,0.5,95,140.0
2867,D3,223.5,0.5,95,140.0
2868,A2,223.5,0.5,95,140.0
2869,D2,223.5,0.5,95,140.0
2870,C#3,223.5,0.5,95,140.0
2871,C2,223.5,0.5,95,140.0
2872,C4,223.5,0.5,95,140.0
2873,G3,223.5,0.5,95,140.0
2874,F1,224.0,0.5,95,140.0
2875,D3,224.0,0.5,95,140.0
2876,A2,224.0,0.5,95,140.0
2877,D2,224.0,0.5,95,140.0
2878,D3,224.0,0.5,95,140.0
2879,A2,224.0,0.5,95,140.0
2880,D2,224.0,0.5,95,140.0
2881,C4,224.0,0.5,95,140.0
2882,G3,224.0,0.5,95,140.0
2883,C1,224.5,0.5,95,140.0
2884,C2,224.5,0.5,95,140.0
2885,D3,224.5,0.5,95,140.0
2886,A2,224.5,0.5,95,140.0
2887,D2,224.5,0.5,95,140.0
2888,D3,224.5,0.5,95,140.0
2889,A2,224.5,0.5,95,140.0
2890,D2,224.5,0.5,95,140.0
2891,C4,224.5,0.5,95,140.0
2892,G3,224.5,0.5,95,140.0
2893,C1,225.0,0.5,95,140.0
2894,D3,225.0,0.5,95,140.0
2895,A2,225.0,0.5,95,140.0
2896,D2,225.0,0.5,95,140.0
2897,D3,225.0,0.5,95,140.0
2898,A2,225.0,0.5,95,140.0
2899,D2,225.0,0.5,95,140.0
2900,B-2,225.0,0.5,95,140.0
2901,E2,225.0,0.5,95,140.0
2902,C4,225.0,0.5,95,140.0
2903,G3,225.0,0.5,95,140.0
2904,C1,225.5,0.5,95,140.0
2905,C2,225.5,0.5,95,140.0
2906,F3,225.5,0.5,95,140.0
2907,C3,225.5,0.5,95,140.0
2908,F2,225.5,0.5,95,140.0
2909,F3,225.5,0.5,95,140.0
2910,C3,225.5,0.5,95,140.0
2911,F2,225.5,0.5,95,140.0
2912,C1,226.0,0.5,95,140.0
2913,B-2,226.0,0.5,95,140.0
2914,E2,226.0,0.5,95,140.0
2915,C4,226.0,0.5,95,140.0
2916,G3,226.0,0.5,95,140.0
2917,D1,226.5,0.5,95,140.0
2918,E2,226.5,0.5,95,140.0
2919,F3,226.5,0.5,95,140.0
2920,C3,226.5,0.5,95,140.0
2921,F2,226.5,0.5,95,140.0
2922,F3,226.5,0.5,95,140.0
2923,C3,226.5,0.5,95,140.0
2924,F2,226.5,0.5,95,140.0
2925,C4,226.5,0.5,95,140.0
2926,G3,226.5,0.5,95,140.0
2927,C1,227.0,0.5,95,140.0
2928,E2,227.0,0.25,95,140.0
2929,C3,227.0,0.5,95,140.0
2930,G2,227.0,0.5,95,140.0
2931,C2,227.0,0.5,95,140.0
2932,C3,227.0,0.5,95,140.0
2933,G2,227.0,0.5,95,140.0
2934,C2,227.0,0.5,95,140.0
2935,C4,227.0,0.5,95,140.0
2936,G3,227.0,0.5,95,140.0
2937,E2,227.25,0.25,95,140.0
2938,B0,227.5,0.5,95,140.0
2939,E2,227.5,0.25,95,140.0
2940,C3,227.5,0.5,95,140.0
2941,G2,227.5,0.5,95,140.0
2942,C2,227.5,0.5,95,140.0
2943,C3,227.5,0.5,95,140.0
2944,G2,227.5,0.5,95,140.0
2945,C2,227.5,0.5,95,140.0
2946,C4,227.5,0.5,95,140.0
2947,G3,227.5,0.5,95,140.0
2948,E2,227.75,0.25,95,140.0
2949,F#1,228.0,1.5,95,140.0
2950,C3,228.0,0.5,95,140.0
2951,G2,228.0,0.5,95,140.0
2952,C2,228.0,0.5,95,140.0
2953,C3,228.0,0.5,95,140.0
2954,G2,228.0,0.5,95,140.0
2955,C2,228.0,0.5,95,140.0
2956,B-2,228.0,0.75,95,140.0
2957,C2,228.0,0.75,95,140.0
2958,C4,228.0,0.5,95,140.0
2959,G3,228.0,0.5,95,140.0
2960,C3,228.5,0.5,95,140.0
2961,G2,228.5,0.5,95,140.0
2962,C2,228.5,0.5,95,140.0
2963,C3,228.5,0.5,95,140.0
2964,G2,228.5,0.5,95,140.0
2965,C2,228.5,0.5,95,140.0
2966,C4,228.5,0.5,95,140.0
2967,G3,228.5,0.5,95,140.0
2968,C2,228.75,0.25,95,140.0
2969,C3,229.0,0.5,95,140.0
2970,G2,229.0,0.5,95,140.0
2971,C2,229.0,0.5,95,140.0
2972,C3,229.0,0.5,95,140.0
2973,G2,229.0,0.5,95,140.0
2974,C2,229.0,0.5,95,140.0
2975,B-2,229.0,0.5,95,140.0
2976,E2,229.0,0.5,95,140.0
2977,C4,229.0,0.5,95,140.0
2978,G3,229.0,0.5,95,140.0
2979,A1,229.5,0.5,95,140.0
2980,C2,229.5,0.5,95,140.0
2981,C3,229.5,0.5,95,140.0
2982,G2,229.5,0.5,95,140.0
2983,C2,229.5,0.5,95,140.0
2984,C3,229.5,0.5,95,140.0
2985,G2,229.5,0.5,95,140.0
2986,C2,229.5,0.5,95,140.0
2987,C4,229.5,0.5,95,140.0
2988,G3,229.5,0.5,95,140.0
2989,E1,230.0,1.0,95,140.0
2990,B-2,230.0,0.25,95,140.0
2991,B2,230.0,0.5,95,140.0
2992,F#2,230.0,0.5,95,140.0
2993,B1,230.0,0.5,95,140.0
2994,B2,230.0,0.5,95,140.0
2995,F#2,230.0,0.5,95,140.0
2996,B1,230.0,0.5,95,140.0
2997,E2,230.25,0.25,95,140.0
2998,F#2,230.5,0.25,95,140.0
2999,F#2,230.5,0.25,95,140.0
3000,C2,230.5,0.25,95,140.0
3001,F#2,230.75,0.25,95,140.0
3002,F#2,230.75,0.25,95,140.0
3003,C2,230.75,0.25,95,140.0
3004,F#2,231.0,0.25,95,140.0
3005,F#2,231.0,0.25,95,140.0
3006,F#1,231.0,1.0,95,140.0
3007,B-2,231.0,0.25,95,140.0
3008,E2,231.0,0.25,95,140.0
3009,F#2,231.25,0.25,95,140.0
3010,F#2,231.25,0.25,95,140.0
3011,C2,231.25,0.25,95,140.0
3012,F#2,231.5,0.25,95,140.0
3013,F#2,231.5,0.25,95,140.0
3014,C2,231.5,0.25,95,140.0
3015,F#2,231.75,0.25,95,140.0
3016,F#2,231.75,0.25,95,140.0
3017,E2,231.75,0.25,95,140.0
3018,A2,232.0,0.25,95,140.0
3019,A2,232.0,0.25,95,140.0
3020,D1,232.0,1.0,95,140.0
3021,B-2,232.0,0.75,95,140.0
3022,C2,232.0,0.75,95,140.0
3023,A2,232.25,0.25,95,140.0
3024,A2,232.25,0.25,95,140.0
3025,E2,232.5,0.25,95,140.0
3026,E2,232.5,0.25,95,140.0
3027,E2,232.75,0.25,95,140.0
3028,E2,232.75,0.25,95,140.0
3029,C2,232.75,0.25,95,140.0
3030,E2,233.0,0.25,95,140.0
3031,E2,233.0,0.25,95,140.0
3032,E1,233.0,0.5,95,140.0
3033,B-2,233.0,0.5,95,140.0
3034,E2,233.0,0.5,95,140.0
3035,E2,233.25,0.25,95,140.0
3036,E2,233.25,0.25,95,140.0
3037,F#2,233.5,0.25,95,140.0
3038,F#2,233.5,0.25,95,140.0
3039,C1,233.5,1.0,95,140.0
3040,C2,233.5,0.5,95,140.0
3041,F#2,233.75,0.25,95,140.0
3042,F#2,233.75,0.25,95,140.0
3043,F#2,234.0,0.25,95,140.0
3044,F#2,234.0,0.25,95,140.0
3045,B-2,234.0,0.25,95,140.0
3046,F#2,234.25,0.25,95,140.0
3047,F#2,234.25,0.25,95,140.0
3048,E2,234.25,0.25,95,140.0
3049,D2,234.5,0.25,95,140.0
3050,D2,234.5,0.25,95,140.0
3051,B0,234.5,1.5,95,140.0
3052,C2,234.5,0.125,95,140.0
3053,C2,234.625,0.25,95,140.0
3054,D2,234.75,0.25,95,140.0
3055,D2,234.75,0.25,95,140.0
3056,C2,234.875,0.125,95,140.0
3057,D2,235.0,0.25,95,140.0
3058,D2,235.0,0.25,95,140.0
3059,B-2,235.0,0.5,95,140.0
3060,E2,235.0,0.5,95,140.0
3061,D2,235.25,0.25,95,140.0
3062,D2,235.25,0.25,95,140.0
3063,E2,235.5,0.25,95,140.0
3064,E2,235.5,0.25,95,140.0
3065,C#3,235.5,0.5,95,140.0
3066,C2,235.5,0.5,95,140.0
3067,E2,235.75,0.25,95,140.0
3068,E2,235.75,0.25,95,140.0
3069,C2,236.0,0.25,95,140.0
3070,C2,236.0,0.25,95,140.0
3071,F#1,236.0,1.5,95,140.0
3072,A3,236.0,0.5,95,140.0
3073,C2,236.0,0.5,95,140.0
3074,C2,236.25,0.25,95,140.0
3075,C2,236.25,0.25,95,140.0
3076,C2,236.5,0.25,95,140.0
3077,C2,236.5,0.25,95,140.0
3078,C2,236.5,0.125,95,140.0
3079,C2,236.625,0.25,95,140.0
3080,C2,236.75,0.25,95,140.0
3081,C2,236.75,0.25,95,140.0
3082,C2,236.875,0.125,95,140.0
3083,B1,237.0,0.25,95,140.0
3084,B1,237.0,0.25,95,140.0
3085,B-2,237.0,0.5,95,140.0
3086,E2,237.0,0.5,95,140.0
3087,B1,237.25,0.25,95,140.0
3088,B1,237.25,0.25,95,140.0
3089,B1,237.5,0.25,95,140.0
3090,B1,237.5,0.25,95,140.0
3091,A1,237.5,0.5,95,140.0
3092,C2,237.5,0.5,95,140.0
3093,B1,237.75,0.25,95,140.0
3094,B1,237.75,0.25,95,140.0
3095,B1,238.0,0.25,95,140.0
3096,B1,238.0,0.25,95,140.0
3097,E1,238.0,1.0,95,140.0
3098,E2,238.0,0.125,95,140.0
3099,E2,238.125,0.125,95,140.0
3100,B1,238.25,0.25,95,140.0
3101,B1,238.25,0.25,95,140.0
3102,E2,238.25,0.125,95,140.0
3103,E2,238.375,0.125,95,140.0
3104,F#2,238.5,0.25,95,140.0
3105,F#2,238.5,0.25,95,140.0
3106,B2,238.5,0.125,95,140.0
3107,B2,238.625,0.125,95,140.0
3108,F#2,238.75,0.25,95,140.0
3109,F#2,238.75,0.25,95,140.0
3110,B2,238.75,0.125,95,140.0
3111,B2,238.875,0.125,95,140.0
3112,F#2,239.0,0.25,95,140.0
3113,F#2,239.0,0.25,95,140.0
3114,F#1,239.0,1.0,95,140.0
3115,F2,239.0,0.125,95,140.0
3116,F2,239.125,0.125,95,140.0
3117,F#2,239.25,0.25,95,140.0
3118,F#2,239.25,0.25,95,140.0
3119,F2,239.25,0.125,95,140.0
3120,F2,239.375,0.125,95,140.0
3121,F#2,239.5,0.25,95,140.0
3122,F#2,239.5,0.25,95,140.0
3123,G2,239.5,0.125,95,140.0
3124,G2,239.625,0.125,95,140.0
3125,F#2,239.75,0.25,95,140.0
3126,F#2,239.75,0.25,95,140.0
3127,G2,239.75,0.125,95,140.0
3128,G2,239.875,0.125,95,140.0
3129,A2,240.0,0.25,95,140.0
3130,A2,240.0,0.25,95,140.0
3131,C1,240.0,0.75,95,140.0
3132,C#3,240.0,0.75,95,140.0
3133,E2,240.0,0.75,95,140.0
3134,C2,240.0,0.75,95,140.0
3135,A2,240.25,0.25,95,140.0
3136,A2,240.25,0.25,95,140.0
3137,E2,240.5,0.25,95,140.0
3138,E2,240.5,0.25,95,140.0
3139,E2,240.75,0.25,95,140.0
3140,E2,240.75,0.25,95,140.0
3141,D1,240.75,0.75,95,140.0
3142,A3,240.75,0.75,95,140.0
3143,E2,240.75,0.75,95,140.0
3144,C2,240.75,0.75,95,140.0
3145,E2,241.0,0.25,95,140.0
3146,E2,241.0,0.25,95,140.0
3147,E2,241.25,0.25,95,140.0
3148,E2,241.25,0.25,95,140.0
3149,F#2,241.5,0.25,95,140.0
3150,F#2,241.5,0.25,95,140.0
3151,B0,241.5,0.75,95,140.0
3152,C#3,241.5,0.75,95,140.0
3153,E2,241.5,0.75,95,140.0
3154,C2,241.5,0.75,95,140.0
3155,F#2,241.75,0.25,95,140.0
3156,F#2,241.75,0.25,95,140.0
3157,F#2,242.0,0.25,95,140.0
3158,F#2,242.0,0.25,95,140.0
3159,F#2,242.25,0.25,95,140.0
3160,F#2,242.25,0.25,95,140.0
3161,B0,242.25,1.0,95,140.0
3162,A3,242.25,1.0,95,140.0
3163,E2,242.25,1.0,95,140.0
3164,C2,242.25,1.0,95,140.0
3165,C3,242.5,0.75,95,140.0
3166,G2,242.5,0.75,95,140.0
3167,C2,242.5,0.75,95,140.0
3168,C3,242.5,0.75,95,140.0
3169,G2,242.5,0.75,95,140.0
3170,C2,242.5,0.75,95,140.0
3171,D3,243.25,0.75,95,140.0
3172,A2,243.25,0.75,95,140.0
3173,D2,243.25,0.75,95,140.0
3174,D3,243.25,0.75,95,140.0
3175,A2,243.25,0.75,95,140.0
3176,D2,243.25,0.75,95,140.0
3177,F#1,244.0,1.5,95,140.0
3178,B2,244.0,0.75,95,140.0
3179,F#2,244.0,0.75,95,140.0
3180,B1,244.0,0.75,95,140.0
3181,B2,244.0,0.75,95,140.0
3182,F#2,244.0,0.75,95,140.0
3183,B1,244.0,0.75,95,140.0
3184,C#3,244.0,0.25,95,140.0
3185,C2,244.0,0.25,95,140.0
3186,C2,244.25,0.25,95,140.0
3187,C2,244.5,0.25,95,140.0
3188,C2,244.75,0.25,95,140.0
3189,B2,244.75,1.0,95,140.0
3190,F#2,244.75,1.0,95,140.0
3191,B1,244.75,1.0,95,140.0
3192,B2,244.75,1.0,95,140.0
3193,F#2,244.75,1.0,95,140.0
3194,B1,244.75,1.0,95,140.0
3195,B-2,245.0,0.5,95,140.0
3196,E2,245.0,0.5,95,140.0
3197,A1,245.5,0.5,95,140.0
3198,C2,245.5,0.5,95,140.0
3199,E1,246.0,1.0,95,140.0
3200,B-2,246.0,0.25,95,140.0
3201,E2,246.25,0.25,95,140.0
3202,F#2,246.5,0.25,95,140.0
3203,F#2,246.5,0.25,95,140.0
3204,C2,246.5,0.25,95,140.0
3205,F#2,246.75,0.25,95,140.0
3206,F#2,246.75,0.25,95,140.0
3207,C2,246.75,0.25,95,140.0
3208,F#2,247.0,0.25,95,140.0
3209,F#2,247.0,0.25,95,140.0
3210,F#1,247.0,1.0,95,140.0
3211,B-2,247.0,0.5,95,140.0
3212,E2,247.0,0.5,95,140.0
3213,F#2,247.25,0.25,95,140.0
3214,F#2,247.25,0.25,95,140.0
3215,F#2,247.5,0.25,95,140.0
3216,F#2,247.5,0.25,95,140.0
3217,C2,247.5,0.5,95,140.0
3218,F#2,247.75,0.25,95,140.0
3219,F#2,247.75,0.25,95,140.0
3220,A2,248.0,0.25,95,140.0
3221,A2,248.0,0.25,95,140.0
3222,D1,248.0,1.0,95,140.0
3223,B-2,248.0,0.75,95,140.0
3224,C2,248.0,0.75,95,140.0
3225,A2,248.25,0.25,95,140.0
3226,A2,248.25,0.25,95,140.0
3227,E2,248.5,0.25,95,140.0
3228,E2,248.5,0.25,95,140.0
3229,E2,248.75,0.25,95,140.0
3230,E2,248.75,0.25,95,140.0
3231,C2,248.75,0.25,95,140.0
3232,E2,249.0,0.25,95,140.0
3233,E2,249.0,0.25,95,140.0
3234,E1,249.0,0.5,95,140.0
3235,B-2,249.0,0.5,95,140.0
3236,E2,249.0,0.5,95,140.0
3237,E2,249.25,0.25,95,140.0
3238,E2,249.25,0.25,95,140.0
3239,F#2,249.5,0.25,95,140.0
3240,F#2,249.5,0.25,95,140.0
3241,C1,249.5,1.0,95,140.0
3242,C2,249.5,0.5,95,140.0
3243,F#2,249.75,0.25,95,140.0
3244,F#2,249.75,0.25,95,140.0
3245,F#2,250.0,0.25,95,140.0
3246,F#2,250.0,0.25,95,140.0
3247,B-2,250.0,0.25,95,140.0
3248,F#2,250.25,0.25,95,140.0
3249,F#2,250.25,0.25,95,140.0
3250,E2,250.25,0.25,95,140.0
3251,D2,250.5,0.25,95,140.0
3252,D2,250.5,0.25,95,140.0
3253,B0,250.5,1.5,95,140.0
3254,C2,250.5,0.25,95,140.0
3255,D2,250.75,0.25,95,140.0
3256,D2,250.75,0.25,95,140.0
3257,C2,250.75,0.25,95,140.0
3258,D2,251.0,0.25,95,140.0
3259,D2,251.0,0.25,95,140.0
3260,C#3,251.0,0.5,95,140.0
3261,E2,251.0,0.5,95,140.0
3262,D2,251.25,0.25,95,140.0
3263,D2,251.25,0.25,95,140.0
3264,E2,251.5,0.25,95,140.0
3265,E2,251.5,0.25,95,140.0
3266,A3,251.5,0.5,95,140.0
3267,C2,251.5,0.5,95,140.0
3268,E2,251.75,0.25,95,140.0
3269,E2,251.75,0.25,95,140.0
3270,C2,252.0,0.25,95,140.0
3271,C2,252.0,0.25,95,140.0
3272,F#1,252.0,1.5,95,140.0
3273,C#3,252.0,0.75,95,140.0
3274,C2,252.0,0.75,95,140.0
3275,C2,252.25,0.25,95,140.0
3276,C2,252.25,0.25,95,140.0
3277,C2,252.5,0.25,95,140.0
3278,C2,252.5,0.25,95,140.0
3279,C2,252.75,0.25,95,140.0
3280,C2,252.75,0.25,95,140.0
3281,C2,252.75,0.25,95,140.0
3282,B1,253.0,0.25,95,140.0
3283,B1,253.0,0.25,95,140.0
3284,B-2,253.0,0.5,95,140.0
3285,E2,253.0,0.5,95,140.0
3286,B1,253.25,0.25,95,140.0
3287,B1,253.25,0.25,95,140.0
3288,B1,253.5,0.25,95,140.0
3289,B1,253.5,0.25,95,140.0
3290,A1,253.5,0.5,95,140.0
3291,C2,253.5,0.5,95,140.0
3292,B1,253.75,0.25,95,140.0
3293,B1,253.75,0.25,95,140.0
3294,B1,254.0,0.25,95,140.0
3295,B1,254.0,0.25,95,140.0
3296,E1,254.0,1.0,95,140.0
3297,B-2,254.0,0.25,95,140.0
3298,B1,254.25,0.25,95,140.0
3299,B1,254.25,0.25,95,140.0
3300,E2,254.25,0.25,95,140.0
3301,F#2,254.5,0.25,95,140.0
3302,F#2,254.5,0.25,95,140.0
3303,C2,254.5,0.25,95,140.0
3304,F#2,254.75,0.25,95,140.0
3305,F#2,254.75,0.25,95,140.0
3306,C2,254.75,0.25,95,140.0
3307,F#2,255.0,0.25,95,140.0
3308,F#2,255.0,0.25,95,140.0
3309,F#1,255.0,1.0,95,140.0
3310,B-2,255.0,0.25,95,140.0
3311,E2,255.0,0.25,95,140.0
3312,F#2,255.25,0.25,95,140.0
3313,F#2,255.25,0.25,95,140.0
3314,C2,255.25,0.25,95,140.0
3315,F#2,255.5,0.25,95,140.0
3316,F#2,255.5,0.25,95,140.0
3317,C2,255.5,0.25,95,140.0
3318,F#2,255.75,0.25,95,140.0
3319,F#2,255.75,0.25,95,140.0
3320,E2,255.75,0.25,95,140.0
3321,A2,256.0,0.25,95,140.0
3322,A2,256.0,0.25,95,140.0
3323,D1,256.0,1.0,95,140.0
3324,B-2,256.0,0.75,95,140.0
3325,C2,256.0,0.75,95,140.0
3326,A2,256.25,0.25,95,140.0
3327,A2,256.25,0.25,95,140.0
3328,E2,256.5,0.25,95,140.0
3329,E2,256.5,0.25,95,140.0
3330,E2,256.75,0.25,95,140.0
3331,E2,256.75,0.25,95,140.0
3332,C2,256.75,0.25,95,140.0
3333,E2,257.0,0.25,95,140.0
3334,E2,257.0,0.25,95,140.0
3335,E1,257.0,0.5,95,140.0
3336,B-2,257.0,0.5,95,140.0
3337,E2,257.0,0.5,95,140.0
3338,E2,257.25,0.25,95,140.0
3339,E2,257.25,0.25,95,140.0
3340,F#2,257.5,0.25,95,140.0
3341,F#2,257.5,0.25,95,140.0
3342,C1,257.5,1.0,95,140.0
3343,C2,257.5,0.5,95,140.0
3344,F#2,257.75,0.25,95,140.0
3345,F#2,257.75,0.25,95,140.0
3346,F#2,258.0,0.25,95,140.0
3347,F#2,258.0,0.25,95,140.0
3348,B-2,258.0,0.5,95,140.0
3349,F#2,258.25,0.25,95,140.0
3350,F#2,258.25,0.25,95,140.0
3351,D2,258.5,0.25,95,140.0
3352,D2,258.5,0.25,95,140.0
3353,B0,258.5,1.5,95,140.0
3354,C2,258.5,0.5,95,140.0
3355,D2,258.75,0.25,95,140.0
3356,D2,258.75,0.25,95,140.0
3357,D2,259.0,0.25,95,140.0
3358,D2,259.0,0.25,95,140.0
3359,B-2,259.0,0.25,95,140.0
3360,D2,259.25,0.25,95,140.0
3361,D2,259.25,0.25,95,140.0
3362,E2,259.25,0.25,95,140.0
3363,E2,259.5,0.25,95,140.0
3364,E2,259.5,0.25,95,140.0
3365,E2,259.5,0.25,95,140.0
3366,E2,259.75,0.25,95,140.0
3367,E2,259.75,0.25,95,140.0
3368,E2,259.75,0.25,95,140.0
3369,C2,260.0,0.25,95,140.0
3370,C2,260.0,0.25,95,140.0
3371,F#1,260.0,1.5,95,140.0
3372,C#3,260.0,0.25,95,140.0
3373,C2,260.0,0.25,95,140.0
3374,C2,260.25,0.25,95,140.0
3375,C2,260.25,0.25,95,140.0
3376,C2,260.25,0.25,95,140.0
3377,C2,260.5,0.25,95,140.0
3378,C2,260.5,0.25,95,140.0
3379,C2,260.5,0.25,95,140.0
3380,C2,260.75,0.25,95,140.0
3381,C2,260.75,0.25,95,140.0
3382,C2,260.75,0.25,95,140.0
3383,B1,261.0,0.25,95,140.0
3384,B1,261.0,0.25,95,140.0
3385,B-2,261.0,0.5,95,140.0
3386,E2,261.0,0.5,95,140.0
3387,B1,261.25,0.25,95,140.0
3388,B1,261.25,0.25,95,140.0
3389,B1,261.5,0.25,95,140.0
3390,B1,261.5,0.25,95,140.0
3391,A1,261.5,0.5,95,140.0
3392,C2,261.5,0.5,95,140.0
3393,B1,261.75,0.25,95,140.0
3394,B1,261.75,0.25,95,140.0
3395,B1,262.0,0.25,95,140.0
3396,B1,262.0,0.25,95,140.0
3397,E1,262.0,1.0,95,140.0
3398,B-2,262.0,0.25,95,140.0
3399,B1,262.25,0.25,95,140.0
3400,B1,262.25,0.25,95,140.0
3401,E2,262.25,0.25,95,140.0
3402,F#3,262.5,0.25,95,140.0
3403,F#2,262.5,0.25,95,140.0
3404,C2,262.5,0.25,95,140.0
3405,F#3,262.75,0.25,95,140.0
3406,F#2,262.75,0.25,95,140.0
3407,C2,262.75,0.25,95,140.0
3408,F#3,263.0,0.25,95,140.0
3409,F#2,263.0,0.25,95,140.0
3410,F#1,263.0,1.0,95,140.0
3411,B-2,263.0,0.5,95,140.0
3412,E2,263.0,0.5,95,140.0
3413,F#3,263.25,0.25,95,140.0
3414,F#2,263.25,0.25,95,140.0
3415,F#3,263.5,0.25,95,140.0
3416,F#2,263.5,0.25,95,140.0
3417,C2,263.5,0.5,95,140.0
3418,F#3,263.75,0.25,95,140.0
3419,F#2,263.75,0.25,95,140.0
3420,C#3,264.0,0.25,95,140.0
3421,A2,264.0,0.25,95,140.0
3422,D1,264.0,1.0,95,140.0
3423,B-2,264.0,0.75,95,140.0
3424,C2,264.0,0.75,95,140.0
3425,C#3,264.25,0.25,95,140.0
3426,A2,264.25,0.25,95,140.0
3427,D3,264.5,0.25,95,140.0
3428,E2,264.5,0.25,95,140.0
3429,D3,264.75,0.25,95,140.0
3430,E2,264.75,0.25,95,140.0
3431,C2,264.75,0.25,95,140.0
3432,D3,265.0,0.25,95,140.0
3433,E2,265.0,0.25,95,140.0
3434,E1,265.0,0.5,95,140.0
3435,B-2,265.0,0.5,95,140.0
3436,E2,265.0,0.5,95,140.0
3437,D3,265.25,0.25,95,140.0
3438,E2,265.25,0.25,95,140.0
3439,B-2,265.5,0.25,95,140.0
3440,F#2,265.5,0.25,95,140.0
3441,C1,265.5,1.0,95,140.0
3442,C2,265.5,0.5,95,140.0
3443,B-2,265.75,0.25,95,140.0
3444,F#2,265.75,0.25,95,140.0
3445,B-2,266.0,0.25,95,140.0
3446,F#2,266.0,0.25,95,140.0
3447,B-2,266.0,0.25,95,140.0
3448,B-2,266.25,0.25,95,140.0
3449,F#2,266.25,0.25,95,140.0
3450,E2,266.25,0.25,95,140.0
3451,C#3,266.5,0.25,95,140.0
3452,D2,266.5,0.25,95,140.0
3453,B0,266.5,1.5,95,140.0
3454,C2,266.5,0.25,95,140.0
3455,C#3,266.75,0.25,95,140.0
3456,D2,266.75,0.25,95,140.0
3457,C2,266.75,0.25,95,140.0
3458,C#3,267.0,0.25,95,140.0
3459,D2,267.0,0.25,95,140.0
3460,C#3,267.0,0.5,95,140.0
3461,E2,267.0,0.5,95,140.0
3462,C#3,267.25,0.25,95,140.0
3463,D2,267.25,0.25,95,140.0
3464,E3,267.5,0.25,95,140.0
3465,E2,267.5,0.25,95,140.0
3466,A3,267.5,0.5,95,140.0
3467,C2,267.5,0.5,95,140.0
3468,E3,267.75,0.25,95,140.0
3469,E2,267.75,0.25,95,140.0
3470,D3,268.0,0.25,95,140.0
3471,C2,268.0,0.25,95,140.0
3472,F#1,268.0,1.5,95,140.0
3473,C#3,268.0,0.75,95,140.0
3474,C2,268.0,0.75,95,140.0
3475,D3,268.25,0.25,95,140.0
3476,C2,268.25,0.25,95,140.0
3477,D3,268.5,0.25,95,140.0
3478,C2,268.5,0.25,95,140.0
3479,D3,268.75,0.25,95,140.0
3480,C2,268.75,0.25,95,140.0
3481,C2,268.75,0.25,95,140.0
3482,C#3,269.0,0.25,95,140.0
3483,B1,269.0,0.25,95,140.0
3484,B-2,269.0,0.5,95,140.0
3485,E2,269.0,0.5,95,140.0
3486,C#3,269.25,0.25,95,140.0
3487,B1,269.25,0.25,95,140.0
3488,C#3,269.5,0.25,95,140.0
3489,B1,269.5,0.25,95,140.0
3490,A1,269.5,0.5,95,140.0
3491,C2,269.5,0.5,95,140.0
3492,C#3,269.75,0.25,95,140.0
3493,B1,269.75,0.25,95,140.0
3494,C#3,270.0,0.25,95,140.0
3495,B1,270.0,0.25,95,140.0
3496,E1,270.0,1.0,95,140.0
3497,B-2,270.0,0.25,95,140.0
3498,C#3,270.25,0.25,95,140.0
3499,B1,270.25,0.25,95,140.0
3500,E2,270.25,0.25,95,140.0
3501,F#3,270.5,0.25,95,140.0
3502,F#2,270.5,0.25,95,140.0
3503,C2,270.5,0.25,95,140.0
3504,F#3,270.75,0.25,95,140.0
3505,F#2,270.75,0.25,95,140.0
3506,C2,270.75,0.25,95,140.0
3507,F#3,271.0,0.25,95,140.0
3508,F#2,271.0,0.25,95,140.0
3509,F#1,271.0,1.0,95,140.0
3510,B-2,271.0,0.25,95,140.0
3511,E2,271.0,0.25,95,140.0
3512,F#3,271.25,0.25,95,140.0
3513,F#2,271.25,0.25,95,140.0
3514,C2,271.25,0.25,95,140.0
3515,F#3,271.5,0.25,95,140.0
3516,F#2,271.5,0.25,95,140.0
3517,C2,271.5,0.25,95,140.0
3518,F#3,271.75,0.25,95,140.0
3519,F#2,271.75,0.25,95,140.0
3520,E2,271.75,0.25,95,140.0
3521,C#3,272.0,0.25,95,140.0
3522,A2,272.0,0.25,95,140.0
3523,D1,272.0,1.0,95,140.0
3524,C2,272.0,0.5,95,140.0
3525,C#3,272.25,0.25,95,140.0
3526,A2,272.25,0.25,95,140.0
3527,D3,272.5,0.25,95,140.0
3528,E2,272.5,0.25,95,140.0
3529,E2,272.5,0.125,95,140.0
3530,E2,272.625,0.125,95,140.0
3531,D3,272.75,0.25,95,140.0
3532,E2,272.75,0.25,95,140.0
3533,E2,272.75,0.125,95,140.0
3534,E2,272.875,0.125,95,140.0
3535,D3,273.0,0.25,95,140.0
3536,E2,273.0,0.25,95,140.0
3537,E1,273.0,0.5,95,140.0
3538,E2,273.0,0.125,95,140.0
3539,E2,273.125,0.125,95,140.0
3540,D3,273.25,0.25,95,140.0
3541,E2,273.25,0.25,95,140.0
3542,E2,273.25,0.125,95,140.0
3543,E2,273.375,0.125,95,140.0
3544,B-2,273.5,0.25,95,140.0
3545,F#2,273.5,0.25,95,140.0
3546,C1,273.5,1.0,95,140.0
3547,E2,273.5,0.125,95,140.0
3548,E2,273.625,0.125,95,140.0
3549,B-2,273.75,0.25,95,140.0
3550,F#2,273.75,0.25,95,140.0
3551,E2,273.75,0.125,95,140.0
3552,E2,273.875,0.125,95,140.0
3553,B-2,274.0,0.25,95,140.0
3554,F#2,274.0,0.25,95,140.0
3555,E2,274.0,0.125,95,140.0
3556,E2,274.125,0.125,95,140.0
3557,B-2,274.25,0.25,95,140.0
3558,F#2,274.25,0.25,95,140.0
3559,E2,274.25,0.125,95,140.0
3560,E2,274.375,0.125,95,140.0
3561,C#3,274.5,0.25,95,140.0
3562,D2,274.5,0.25,95,140.0
3563,B0,274.5,1.5,95,140.0
3564,E2,274.5,0.125,95,140.0
3565,E2,274.625,0.125,95,140.0
3566,C#3,274.75,0.25,95,140.0
3567,D2,274.75,0.25,95,140.0
3568,E2,274.75,0.125,95,140.0
3569,E2,274.875,0.125,95,140.0
3570,C#3,275.0,0.25,95,140.0
3571,D2,275.0,0.25,95,140.0
3572,E2,275.0,0.125,95,140.0
3573,E2,275.125,0.125,95,140.0
3574,C#3,275.25,0.25,95,140.0
3575,D2,275.25,0.25,95,140.0
3576,E2,275.25,0.125,95,140.0
3577,E2,275.375,0.125,95,140.0
3578,E3,275.5,0.25,95,140.0
3579,E2,275.5,0.25,95,140.0
3580,E2,275.5,0.125,95,140.0
3581,E2,275.625,0.125,95,140.0
3582,E3,275.75,0.25,95,140.0
3583,E2,275.75,0.25,95,140.0
3584,E2,275.75,0.125,95,140.0
3585,E2,275.875,0.125,95,140.0
3586,D3,276.0,0.25,95,140.0
3587,C2,276.0,0.25,95,140.0
3588,D1,276.0,0.5,95,140.0
3589,A3,276.0,0.5,95,140.0
3590,C2,276.0,0.5,95,140.0
3591,D3,276.25,0.25,95,140.0
3592,C2,276.25,0.25,95,140.0
3593,D3,276.5,0.25,95,140.0
3594,C2,276.5,0.25,95,140.0
3595,D1,276.5,0.5,95,140.0
3596,A3,276.5,0.5,95,140.0
3597,C2,276.5,0.5,95,140.0
3598,D3,276.75,0.25,95,140.0
3599,C2,276.75,0.25,95,140.0
3600,C#3,277.0,0.25,95,140.0
3601,B1,277.0,0.25,95,140.0
3602,D1,277.0,0.25,95,140.0
3603,A3,277.0,0.25,95,140.0
3604,E2,277.0,0.25,95,140.0
3605,C#3,277.25,0.25,95,140.0
3606,B1,277.25,0.25,95,140.0
3607,D1,277.25,0.5,95,140.0
3608,C2,277.25,0.25,95,140.0
3609,C#3,277.5,0.25,95,140.0
3610,B1,277.5,0.25,95,140.0
3611,A3,277.5,0.25,95,140.0
3612,C#3,277.75,0.25,95,140.0
3613,B1,277.75,0.25,95,140.0
3614,D1,277.75,0.25,95,140.0
3615,C2,277.75,0.25,95,140.0
3616,C#3,278.0,0.25,95,140.0
3617,B1,278.0,0.25,95,140.0
3618,D1,278.0,0.5,95,140.0
3619,A3,278.0,0.5,95,140.0
3620,C2,278.0,0.5,95,140.0
3621,C#3,278.25,0.25,95,140.0
3622,B1,278.25,0.25,95,140.0
3623,D1,278.5,0.5,95,140.0
3624,A2,278.5,0.5,95,140.0
3625,D2,278.5,0.5,95,140.0
3626,A2,278.5,0.5,95,140.0
3627,D2,278.5,0.5,95,140.0
3628,A3,278.5,0.5,95,140.0
3629,C2,278.5,0.5,95,140.0
3630,D1,279.0,0.25,95,140.0
3631,A2,279.0,0.5,95,140.0
3632,D2,279.0,0.5,95,140.0
3633,A2,279.0,0.5,95,140.0
3634,D2,279.0,0.5,95,140.0
3635,A3,279.0,0.25,95,140.0
3636,E2,279.0,0.25,95,140.0
3637,D1,279.25,0.5,95,140.0
3638,C2,279.25,0.25,95,140.0
3639,A3,279.5,0.25,95,140.0
3640,A2,279.5,0.25,95,140.0
3641,D2,279.5,0.25,95,140.0
3642,A2,279.5,0.25,95,140.0
3643,D2,279.5,0.25,95,140.0
3644,D1,279.75,0.25,95,140.0
3645,C2,279.75,0.25,95,140.0
3646,A2,279.75,0.5,95,140.0
3647,D2,279.75,0.5,95,140.0
3648,A2,279.75,0.5,95,140.0
3649,D2,279.75,0.5,95,140.0
3650,D1,280.0,0.5,95,140.0
3651,A3,280.0,0.5,95,140.0
3652,C2,280.0,0.5,95,140.0
3653,A2,280.25,0.25,95,140.0
3654,D2,280.25,0.25,95,140.0
3655,A2,280.25,0.25,95,140.0
3656,D2,280.25,0.25,95,140.0
3657,D1,280.5,0.5,95,140.0
3658,A2,280.5,0.5,95,140.0
3659,D2,280.5,0.5,95,140.0
3660,A2,280.5,0.5,95,140.0
3661,D2,280.5,0.5,95,140.0
3662,A3,280.5,0.5,95,140.0
3663,C2,280.5,0.5,95,140.0
3664,D1,281.0,0.25,95,140.0
3665,A3,281.0,0.25,95,140.0
3666,A2,281.0,0.5,95,140.0
3667,D2,281.0,0.5,95,140.0
3668,A2,281.0,0.5,95,140.0
3669,D2,281.0,0.5,95,140.0
3670,D1,281.25,0.5,95,140.0
3671,C2,281.25,0.25,95,140.0
3672,A3,281.5,0.25,95,140.0
3673,A2,281.5,0.25,95,140.0
3674,D2,281.5,0.25,95,140.0
3675,A2,281.5,0.25,95,140.0
3676,D2,281.5,0.25,95,140.0
3677,D1,281.75,0.25,95,140.0
3678,C2,281.75,0.25,95,140.0
3679,A2,281.75,0.5,95,140.0
3680,D2,281.75,0.5,95,140.0
3681,A2,281.75,0.5,95,140.0
3682,D2,281.75,0.5,95,140.0
3683,D1,282.0,0.5,95,140.0
3684,C2,282.0,0.5,95,140.0
3685,A2,282.25,0.25,95,140.0
3686,D2,282.25,0.25,95,140.0
3687,A2,282.25,0.25,95,140.0
3688,D2,282.25,0.25,95,140.0
3689,D1,282.5,0.5,95,140.0
3690,C2,282.5,0.5,95,140.0
3691,A2,282.5,0.5,95,140.0
3692,D2,282.5,0.5,95,140.0
3693,A2,282.5,0.5,95,140.0
3694,D2,282.5,0.5,95,140.0
3695,C1,283.0,0.5,95,140.0
3696,E2,283.0,0.5,95,140.0
3697,A2,283.0,0.5,95,140.0
3698,D2,283.0,0.5,95,140.0
3699,A2,283.0,0.5,95,140.0
3700,D2,283.0,0.5,95,140.0
3701,C1,283.5,0.5,95,140.0
3702,C2,283.5,0.5,95,140.0
3703,A2,283.5,0.25,95,140.0
3704,D2,283.5,0.25,95,140.0
3705,A2,283.5,0.25,95,140.0
3706,D2,283.5,0.25,95,140.0
3707,A2,283.75,0.5,95,140.0
3708,D2,283.75,0.5,95,140.0
3709,A2,283.75,0.5,95,140.0
3710,D2,283.75,0.5,95,140.0
3711,B0,284.0,0.5,95,140.0
3712,A3,284.0,0.5,95,140.0
3713,C2,284.0,0.5,95,140.0
3714,A2,284.25,0.25,95,140.0
3715,D2,284.25,0.25,95,140.0
3716,A2,284.25,0.25,95,140.0
3717,D2,284.25,0.25,95,140.0
3718,B0,284.5,0.5,95,140.0
3719,C2,284.5,0.5,95,140.0
3720,A2,284.5,0.5,95,140.0
3721,D2,284.5,0.5,95,140.0
3722,A2,284.5,0.5,95,140.0
3723,D2,284.5,0.5,95,140.0
3724,B0,285.0,0.5,95,140.0
3725,A2,285.0,0.5,95,140.0
3726,D2,285.0,0.5,95,140.0
3727,A2,285.0,0.5,95,140.0
3728,D2,285.0,0.5,95,140.0
3729,B-2,285.0,0.5,95,140.0
3730,E2,285.0,0.5,95,140.0
3731,C2,285.0,0.5,95,140.0
3732,B0,285.5,0.5,95,140.0
3733,C2,285.5,0.5,95,140.0
3734,G2,285.5,0.5,95,140.0
3735,C2,285.5,0.5,95,140.0
3736,G2,285.5,0.5,95,140.0
3737,C2,285.5,0.5,95,140.0
3738,B0,286.0,0.5,95,140.0
3739,G2,286.0,0.5,95,140.0
3740,C2,286.0,0.5,95,140.0
3741,G2,286.0,0.5,95,140.0
3742,C2,286.0,0.5,95,140.0
3743,B-2,286.0,0.5,95,140.0
3744,C2,286.0,0.5,95,140.0
3745,C4,286.0,0.5,95,140.0
3746,G3,286.0,0.5,95,140.0
3747,B0,286.5,0.5,95,140.0
3748,C2,286.5,0.5,95,140.0
3749,B2,286.5,0.5,95,140.0
3750,F#2,286.5,0.5,95,140.0
3751,B1,286.5,0.5,95,140.0
3752,B2,286.5,0.5,95,140.0
3753,F#2,286.5,0.5,95,140.0
3754,B1,286.5,0.5,95,140.0
3755,C4,286.5,0.5,95,140.0
3756,G3,286.5,0.5,95,140.0
3757,B0,287.0,0.5,95,140.0
3758,B2,287.0,0.5,95,140.0
3759,F#2,287.0,0.5,95,140.0
3760,B1,287.0,0.5,95,140.0
3761,B2,287.0,0.5,95,140.0
3762,F#2,287.0,0.5,95,140.0
3763,B1,287.0,0.5,95,140.0
3764,B-2,287.0,0.5,95,140.0
3765,E2,287.0,0.5,95,140.0
3766,C2,287.0,0.5,95,140.0
3767,C4,287.0,0.5,95,140.0
3768,G3,287.0,0.5,95,140.0
3769,B0,287.5,0.5,95,140.0
3770,C2,287.5,0.5,95,140.0
3771,B2,287.5,0.5,95,140.0
3772,F#2,287.5,0.5,95,140.0
3773,B1,287.5,0.5,95,140.0
3774,B2,287.5,0.5,95,140.0
3775,F#2,287.5,0.5,95,140.0
3776,B1,287.5,0.5,95,140.0
3777,C4,287.5,0.5,95,140.0
3778,G3,287.5,0.5,95,140.0
3779,B0,288.0,0.5,95,140.0
3780,B2,288.0,0.5,95,140.0
3781,F#2,288.0,0.5,95,140.0
3782,B1,288.0,0.5,95,140.0
3783,B2,288.0,0.5,95,140.0
3784,F#2,288.0,0.5,95,140.0
3785,B1,288.0,0.5,95,140.0
3786,B-2,288.0,0.5,95,140.0
3787,C2,288.0,0.5,95,140.0
3788,C4,288.0,0.5,95,140.0
3789,G3,288.0,0.5,95,140.0
3790,B0,288.5,0.5,95,140.0
3791,C2,288.5,0.5,95,140.0
3792,B2,288.5,0.5,95,140.0
3793,F#2,288.5,0.5,95,140.0
3794,B1,288.5,0.5,95,140.0
3795,B2,288.5,0.5,95,140.0
3796,F#2,288.5,0.5,95,140.0
3797,B1,288.5,0.5,95,140.0
3798,C4,288.5,0.5,95,140.0
3799,G3,288.5,0.5,95,140.0
3800,B0,289.0,0.5,95,140.0
3801,B2,289.0,0.5,95,140.0
3802,F#2,289.0,0.5,95,140.0
3803,B1,289.0,0.5,95,140.0
3804,B2,289.0,0.5,95,140.0
3805,F#2,289.0,0.5,95,140.0
3806,B1,289.0,0.5,95,140.0
3807,B-2,289.0,0.5,95,140.0
3808,E2,289.0,0.5,95,140.0
3809,C2,289.0,0.5,95,140.0
3810,C4,289.0,0.5,95,140.0
3811,G3,289.0,0.5,95,140.0
3812,B0,289.5,0.5,95,140.0
3813,C2,289.5,0.5,95,140.0
3814,B2,289.5,0.5,95,140.0
3815,F#2,289.5,0.5,95,140.0
3816,B1,289.5,0.5,95,140.0
3817,B2,289.5,0.5,95,140.0
3818,F#2,289.5,0.5,95,140.0
3819,B1,289.5,0.5,95,140.0
3820,C4,289.5,0.5,95,140.0
3821,G3,289.5,0.5,95,140.0
3822,B0,290.0,0.5,95,140.0
3823,B2,290.0,0.5,95,140.0
3824,F#2,290.0,0.5,95,140.0
3825,B1,290.0,0.5,95,140.0
3826,B2,290.0,0.5,95,140.0
3827,F#2,290.0,0.5,95,140.0
3828,B1,290.0,0.5,95,140.0
3829,B-2,290.0,0.5,95,140.0
3830,C2,290.0,0.5,95,140.0
3831,C4,290.0,0.5,95,140.0
3832,G3,290.0,0.5,95,140.0
3833,B0,290.5,0.5,95,140.0
3834,C2,290.5,0.5,95,140.0
3835,B2,290.5,0.5,95,140.0
3836,F#2,290.5,0.5,95,140.0
3837,B1,290.5,0.5,95,140.0
3838,B2,290.5,0.5,95,140.0
3839,F#2,290.5,0.5,95,140.0
3840,B1,290.5,0.5,95,140.0
3841,C4,290.5,0.5,95,140.0
3842,G3,290.5,0.5,95,140.0
3843,B0,291.0,0.5,95,140.0
3844,B2,291.0,0.5,95,140.0
3845,F#2,291.0,0.5,95,140.0
3846,B1,291.0,0.5,95,140.0
3847,B2,291.0,0.5,95,140.0
3848,F#2,291.0,0.5,95,140.0
3849,B1,291.0,0.5,95,140.0
3850,B-2,291.0,0.5,95,140.0
3851,C2,291.0,0.5,95,140.0
3852,C4,291.0,0.5,95,140.0
3853,G3,291.0,0.5,95,140.0
3854,D1,291.5,0.5,95,140.0
3855,B2,291.5,0.5,95,140.0
3856,F#2,291.5,0.5,95,140.0
3857,B1,291.5,0.5,95,140.0
3858,B2,291.5,0.5,95,140.0
3859,F#2,291.5,0.5,95,140.0
3860,B1,291.5,0.5,95,140.0
3861,C#3,291.5,0.5,95,140.0
3862,C2,291.5,0.5,95,140.0
3863,C4,291.5,0.5,95,140.0
3864,G3,291.5,0.5,95,140.0
3865,D1,292.0,0.5,95,140.0
3866,B2,292.0,0.5,95,140.0
3867,F#2,292.0,0.5,95,140.0
3868,B1,292.0,0.5,95,140.0
3869,B2,292.0,0.5,95,140.0
3870,F#2,292.0,0.5,95,140.0
3871,B1,292.0,0.5,95,140.0
3872,C4,292.0,0.5,95,140.0
3873,G3,292.0,0.5,95,140.0
3874,D1,292.5,0.5,95,140.0
3875,C2,292.5,0.5,95,140.0
3876,B2,292.5,0.5,95,140.0
3877,F#2,292.5,0.5,95,140.0
3878,B1,292.5,0.5,95,140.0
3879,B2,292.5,0.5,95,140.0
3880,F#2,292.5,0.5,95,140.0
3881,B1,292.5,0.5,95,140.0
3882,C4,292.5,0.5,95,140.0
3883,G3,292.5,0.5,95,140.0
3884,D1,293.0,0.5,95,140.0
3885,B2,293.0,0.5,95,140.0
3886,F#2,293.0,0.5,95,140.0
3887,B1,293.0,0.5,95,140.0
3888,B2,293.0,0.5,95,140.0
3889,F#2,293.0,0.5,95,140.0
3890,B1,293.0,0.5,95,140.0
3891,B-2,293.0,0.5,95,140.0
3892,E2,293.0,0.5,95,140.0
3893,C2,293.0,0.5,95,140.0
3894,C4,293.0,0.5,95,140.0
3895,G3,293.0,0.5,95,140.0
3896,D1,293.5,0.5,95,140.0
3897,C2,293.5,0.5,95,140.0
3898,B2,293.5,0.5,95,140.0
3899,F#2,293.5,0.5,95,140.0
3900,B1,293.5,0.5,95,140.0
3901,B2,293.5,0.5,95,140.0
3902,F#2,293.5,0.5,95,140.0
3903,B1,293.5,0.5,95,140.0
3904,C4,293.5,0.5,95,140.0
3905,G3,293.5,0.5,95,140.0
3906,D1,294.0,0.5,95,140.0
3907,D3,294.0,0.5,95,140.0
3908,A2,294.0,0.5,95,140.0
3909,D2,294.0,0.5,95,140.0
3910,D3,294.0,0.5,95,140.0
3911,A2,294.0,0.5,95,140.0
3912,D2,294.0,0.5,95,140.0
3913,B-2,294.0,0.5,95,140.0
3914,C2,294.0,0.5,95,140.0
3915,D1,294.5,0.5,95,140.0
3916,C2,294.5,0.5,95,140.0
3917,C4,294.5,0.5,95,140.0
3918,G3,294.5,0.5,95,140.0
3919,D1,295.0,0.5,95,140.0
3920,D3,295.0,0.5,95,140.0
3921,A2,295.0,0.5,95,140.0
3922,D2,295.0,0.5,95,140.0
3923,D3,295.0,0.5,95,140.0
3924,A2,295.0,0.5,95,140.0
3925,D2,295.0,0.5,95,140.0
3926,B-2,295.0,0.5,95,140.0
3927,E2,295.0,0.5,95,140.0
3928,C2,295.0,0.5,95,140.0
3929,C4,295.0,0.5,95,140.0
3930,G3,295.0,0.5,95,140.0
3931,F1,295.5,0.5,95,140.0
3932,D3,295.5,0.5,95,140.0
3933,A2,295.5,0.5,95,140.0
3934,D2,295.5,0.5,95,140.0
3935,D3,295.5,0.5,95,140.0
3936,A2,295.5,0.5,95,140.0
3937,D2,295.5,0.5,95,140.0
3938,C#3,295.5,0.5,95,140.0
3939,C2,295.5,0.5,95,140.0
3940,C4,295.5,0.5,95,140.0
3941,G3,295.5,0.5,95,140.0
3942,F1,296.0,0.5,95,140.0
3943,D3,296.0,0.5,95,140.0
3944,A2,296.0,0.5,95,140.0
3945,D2,296.0,0.5,95,140.0
3946,D3,296.0,0.5,95,140.0
3947,A2,296.0,0.5,95,140.0
3948,D2,296.0,0.5,95,140.0
3949,C4,296.0,0.5,95,140.0
3950,G3,296.0,0.5,95,140.0
3951,C1,296.5,0.5,95,140.0
3952,C2,296.5,0.5,95,140.0
3953,D3,296.5,0.5,95,140.0
3954,A2,296.5,0.5,95,140.0
3955,D2,296.5,0.5,95,140.0
3956,D3,296.5,0.5,95,140.0
3957,A2,296.5,0.5,95,140.0
3958,D2,296.5,0.5,95,140.0
3959,C4,296.5,0.5,95,140.0
3960,G3,296.5,0.5,95,140.0
3961,C1,297.0,0.5,95,140.0
3962,D3,297.0,0.5,95,140.0
3963,A2,297.0,0.5,95,140.0
3964,D2,297.0,0.5,95,140.0
3965,D3,297.0,0.5,95,140.0
3966,A2,297.0,0.5,95,140.0
3967,D2,297.0,0.5,95,140.0
3968,B-2,297.0,0.5,95,140.0
3969,E2,297.0,0.5,95,140.0
3970,C2,297.0,0.5,95,140.0
3971,C4,297.0,0.5,95,140.0
3972,G3,297.0,0.5,95,140.0
3973,C1,297.5,0.5,95,140.0
3974,C2,297.5,0.5,95,140.0
3975,D3,297.5,0.5,95,140.0
3976,A2,297.5,0.5,95,140.0
3977,D2,297.5,0.5,95,140.0
3978,D3,297.5,0.5,95,140.0
3979,A2,297.5,0.5,95,140.0
3980,D2,297.5,0.5,95,140.0
3981,C4,297.5,0.5,95,140.0
3982,G3,297.5,0.5,95,140.0
3983,C1,298.0,0.5,95,140.0
3984,D3,298.0,0.5,95,140.0
3985,A2,298.0,0.5,95,140.0
3986,D2,298.0,0.5,95,140.0
3987,D3,298.0,0.5,95,140.0
3988,A2,298.0,0.5,95,140.0
3989,D2,298.0,0.5,95,140.0
3990,B-2,298.0,0.5,95,140.0
3991,C2,298.0,0.5,95,140.0
3992,C4,298.0,0.5,95,140.0
3993,G3,298.0,0.5,95,140.0
3994,D1,298.5,0.5,95,140.0
3995,E2,298.5,0.5,95,140.0
3996,F3,298.5,0.5,95,140.0
3997,C3,298.5,0.5,95,140.0
3998,F2,298.5,0.5,95,140.0
3999,F3,298.5,0.5,95,140.0
4000,C3,298.5,0.5,95,140.0
4001,F2,298.5,0.5,95,140.0
4002,C1,299.0,0.5,95,140.0
4003,E2,299.0,0.5,95,140.0
4004,C4,299.0,0.5,95,140.0
4005,G3,299.0,0.5,95,140.0
4006,B0,299.5,0.5,95,140.0
4007,F3,299.5,0.5,95,140.0
4008,C3,299.5,0.5,95,140.0
4009,F2,299.5,0.5,95,140.0
4010,F3,299.5,0.5,95,140.0
4011,C3,299.5,0.5,95,140.0
4012,F2,299.5,0.5,95,140.0
4013,C#3,299.5,0.5,95,140.0
4014,C2,299.5,0.5,95,140.0
4015,C4,299.5,0.5,95,140.0
4016,G3,299.5,0.5,95,140.0
4017,B0,300.0,0.5,95,140.0
4018,C3,300.0,0.5,95,140.0
4019,G2,300.0,0.5,95,140.0
4020,C2,300.0,0.5,95,140.0
4021,C3,300.0,0.5,95,140.0
4022,G2,300.0,0.5,95,140.0
4023,C2,300.0,0.5,95,140.0
4024,C4,300.0,0.5,95,140.0
4025,G3,300.0,0.5,95,140.0
4026,B0,300.5,0.5,95,140.0
4027,C2,300.5,0.5,95,140.0
4028,C3,300.5,0.5,95,140.0
4029,G2,300.5,0.5,95,140.0
4030,C2,300.5,0.5,95,140.0
4031,C3,300.5,0.5,95,140.0
4032,G2,300.5,0.5,95,140.0
4033,C2,300.5,0.5,95,140.0
4034,C4,300.5,0.5,95,140.0
4035,G3,300.5,0.5,95,140.0
4036,B0,301.0,0.5,95,140.0
4037,C3,301.0,0.5,95,140.0
4038,G2,301.0,0.5,95,140.0
4039,C2,301.0,0.5,95,140.0
4040,C3,301.0,0.5,95,140.0
4041,G2,301.0,0.5,95,140.0
4042,C2,301.0,0.5,95,140.0
4043,B-2,301.0,0.5,95,140.0
4044,E2,301.0,0.5,95,140.0
4045,C2,301.0,0.5,95,140.0
4046,C4,301.0,0.5,95,140.0
4047,G3,301.0,0.5,95,140.0
4048,B0,301.5,0.5,95,140.0
4049,C2,301.5,0.5,95,140.0
4050,C3,301.5,0.5,95,140.0
4051,G2,301.5,0.5,95,140.0
4052,C2,301.5,0.5,95,140.0
4053,C3,301.5,0.5,95,140.0
4054,G2,301.5,0.5,95,140.0
4055,C2,301.5,0.5,95,140.0
4056,C4,301.5,0.5,95,140.0
4057,G3,301.5,0.5,95,140.0
4058,B0,302.0,0.5,95,140.0
4059,D3,302.0,0.5,95,140.0
4060,A2,302.0,0.5,95,140.0
4061,D2,302.0,0.5,95,140.0
4062,D3,302.0,0.5,95,140.0
4063,A2,302.0,0.5,95,140.0
4064,D2,302.0,0.5,95,140.0
4065,B-2,302.0,0.5,95,140.0
4066,C2,302.0,0.5,95,140.0
4067,C4,302.0,0.5,95,140.0
4068,G3,302.0,0.5,95,140.0
4069,B0,302.5,0.5,95,140.0
4070,C2,302.5,0.5,95,140.0
4071,C3,302.5,0.5,95,140.0
4072,G2,302.5,0.5,95,140.0
4073,C2,302.5,0.5,95,140.0
4074,C3,302.5,0.5,95,140.0
4075,G2,302.5,0.5,95,140.0
4076,C2,302.5,0.5,95,140.0
4077,C4,302.5,0.5,95,140.0
4078,G3,302.5,0.5,95,140.0
4079,B0,303.0,0.5,95,140.0
4080,B2,303.0,0.5,95,140.0
4081,F#2,303.0,0.5,95,140.0
4082,B1,303.0,0.5,95,140.0
4083,B2,303.0,0.5,95,140.0
4084,F#2,303.0,0.5,95,140.0
4085,B1,303.0,0.5,95,140.0
4086,B-2,303.0,0.5,95,140.0
4087,E2,303.0,0.5,95,140.0
4088,C2,303.0,0.5,95,140.0
4089,B0,303.5,0.5,95,140.0
4090,C2,303.5,0.5,95,140.0
4091,C4,303.5,0.5,95,140.0
4092,G3,303.5,0.5,95,140.0
4093,B0,304.0,0.5,95,140.0
4094,B2,304.0,0.5,95,140.0
4095,F#2,304.0,0.5,95,140.0
4096,B1,304.0,0.5,95,140.0
4097,B2,304.0,0.5,95,140.0
4098,F#2,304.0,0.5,95,140.0
4099,B1,304.0,0.5,95,140.0
4100,B-2,304.0,0.5,95,140.0
4101,C2,304.0,0.5,95,140.0
4102,C4,304.0,0.5,95,140.0
4103,G3,304.0,0.5,95,140.0
4104,B0,304.5,0.5,95,140.0
4105,C2,304.5,0.5,95,140.0
4106,B2,304.5,0.5,95,140.0
4107,F#2,304.5,0.5,95,140.0
4108,B1,304.5,0.5,95,140.0
4109,B2,304.5,0.5,95,140.0
4110,F#2,304.5,0.5,95,140.0
4111,B1,304.5,0.5,95,140.0
4112,C4,304.5,0.5,95,140.0
4113,G3,304.5,0.5,95,140.0
4114,B0,305.0,0.5,95,140.0
4115,B2,305.0,0.5,95,140.0
4116,F#2,305.0,0.5,95,140.0
4117,B1,305.0,0.5,95,140.0
4118,B2,305.0,0.5,95,140.0
4119,F#2,305.0,0.5,95,140.0
4120,B1,305.0,0.5,95,140.0
4121,B-2,305.0,0.5,95,140.0
4122,E2,305.0,0.5,95,140.0
4123,C2,305.0,0.5,95,140.0
4124,C4,305.0,0.5,95,140.0
4125,G3,305.0,0.5,95,140.0
4126,B0,305.5,0.5,95,140.0
4127,C2,305.5,0.5,95,140.0
4128,B2,305.5,0.5,95,140.0
4129,F#2,305.5,0.5,95,140.0
4130,B1,305.5,0.5,95,140.0
4131,B2,305.5,0.5,95,140.0
4132,F#2,305.5,0.5,95,140.0
4133,B1,305.5,0.5,95,140.0
4134,C4,305.5,0.5,95,140.0
4135,G3,305.5,0.5,95,140.0
4136,B0,306.0,0.5,95,140.0
4137,B2,306.0,0.5,95,140.0
4138,F#2,306.0,0.5,95,140.0
4139,B1,306.0,0.5,95,140.0
4140,B2,306.0,0.5,95,140.0
4141,F#2,306.0,0.5,95,140.0
4142,B1,306.0,0.5,95,140.0
4143,B-2,306.0,0.5,95,140.0
4144,C2,306.0,0.5,95,140.0
4145,C4,306.0,0.5,95,140.0
4146,G3,306.0,0.5,95,140.0
4147,B0,306.5,0.5,95,140.0
4148,E2,306.5,0.5,95,140.0
4149,B2,306.5,0.5,95,140.0
4150,F#2,306.5,0.5,95,140.0
4151,B1,306.5,0.5,95,140.0
4152,B2,306.5,0.5,95,140.0
4153,F#2,306.5,0.5,95,140.0
4154,B1,306.5,0.5,95,140.0
4155,C4,306.5,0.5,95,140.0
4156,G3,306.5,0.5,95,140.0
4157,B0,307.0,0.5,95,140.0
4158,E2,307.0,0.5,95,140.0
4159,B2,307.0,0.5,95,140.0
4160,F#2,307.0,0.5,95,140.0
4161,B1,307.0,0.5,95,140.0
4162,B2,307.0,0.5,95,140.0
4163,F#2,307.0,0.5,95,140.0
4164,B1,307.0,0.5,95,140.0
4165,C4,307.0,0.5,95,140.0
4166,G3,307.0,0.5,95,140.0
4167,D1,307.5,0.5,95,140.0
4168,B2,307.5,0.5,95,140.0
4169,F#2,307.5,0.5,95,140.0
4170,B1,307.5,0.5,95,140.0
4171,B2,307.5,0.5,95,140.0
4172,F#2,307.5,0.5,95,140.0
4173,B1,307.5,0.5,95,140.0
4174,C#3,307.5,0.5,95,140.0
4175,C2,307.5,0.5,95,140.0
4176,C4,307.5,0.5,95,140.0
4177,G3,307.5,0.5,95,140.0
4178,D1,308.0,0.5,95,140.0
4179,B2,308.0,0.5,95,140.0
4180,F#2,308.0,0.5,95,140.0
4181,B1,308.0,0.5,95,140.0
4182,B2,308.0,0.5,95,140.0
4183,F#2,308.0,0.5,95,140.0
4184,B1,308.0,0.5,95,140.0
4185,C4,308.0,0.5,95,140.0
4186,G3,308.0,0.5,95,140.0
4187,D1,308.5,0.5,95,140.0
4188,C2,308.5,0.5,95,140.0
4189,B2,308.5,0.5,95,140.0
4190,F#2,308.5,0.5,95,140.0
4191,B1,308.5,0.5,95,140.0
4192,B2,308.5,0.5,95,140.0
4193,F#2,308.5,0.5,95,140.0
4194,B1,308.5,0.5,95,140.0
4195,C4,308.5,0.5,95,140.0
4196,G3,308.5,0.5,95,140.0
4197,D1,309.0,0.5,95,140.0
4198,B2,309.0,0.5,95,140.0
4199,F#2,309.0,0.5,95,140.0
4200,B1,309.0,0.5,95,140.0
4201,B2,309.0,0.5,95,140.0
4202,F#2,309.0,0.5,95,140.0
4203,B1,309.0,0.5,95,140.0
4204,B-2,309.0,0.5,95,140.0
4205,E2,309.0,0.5,95,140.0
4206,C2,309.0,0.5,95,140.0
4207,C4,309.0,0.5,95,140.0
4208,G3,309.0,0.5,95,140.0
4209,D1,309.5,0.5,95,140.0
4210,C2,309.5,0.5,95,140.0
4211,B2,309.5,0.5,95,140.0
4212,F#2,309.5,0.5,95,140.0
4213,B1,309.5,0.5,95,140.0
4214,B2,309.5,0.5,95,140.0
4215,F#2,309.5,0.5,95,140.0
4216,B1,309.5,0.5,95,140.0
4217,C4,309.5,0.5,95,140.0
4218,G3,309.5,0.5,95,140.0
4219,D1,310.0,0.5,95,140.0
4220,B2,310.0,0.5,95,140.0
4221,F#2,310.0,0.5,95,140.0
4222,B1,310.0,0.5,95,140.0
4223,B2,310.0,0.5,95,140.0
4224,F#2,310.0,0.5,95,140.0
4225,B1,310.0,0.5,95,140.0
4226,B-2,310.0,0.5,95,140.0
4227,C2,310.0,0.5,95,140.0
4228,C4,310.0,0.5,95,140.0
4229,G3,310.0,0.5,95,140.0
4230,D1,310.5,0.5,95,140.0
4231,C2,310.5,0.5,95,140.0
4232,B2,310.5,0.5,95,140.0
4233,F#2,310.5,0.5,95,140.0
4234,B1,310.5,0.5,95,140.0
4235,B2,310.5,0.5,95,140.0
4236,F#2,310.5,0.5,95,140.0
4237,B1,310.5,0.5,95,140.0
4238,C4,310.5,0.5,95,140.0
4239,G3,310.5,0.5,95,140.0
4240,D1,311.0,0.5,95,140.0
4241,B2,311.0,0.5,95,140.0
4242,F#2,311.0,0.5,95,140.0
4243,B1,311.0,0.5,95,140.0
4244,B2,311.0,0.5,95,140.0
4245,F#2,311.0,0.5,95,140.0
4246,B1,311.0,0.5,95,140.0
4247,B-2,311.0,0.5,95,140.0
4248,E2,311.0,0.5,95,140.0
4249,C2,311.0,0.5,95,140.0
4250,C4,311.0,0.5,95,140.0
4251,G3,311.0,0.5,95,140.0
4252,F1,311.5,0.5,95,140.0
4253,D3,311.5,0.5,95,140.0
4254,A2,311.5,0.5,95,140.0
4255,D2,311.5,0.5,95,140.0
4256,D3,311.5,0.5,95,140.0
4257,A2,311.5,0.5,95,140.0
4258,D2,311.5,0.5,95,140.0
4259,C#3,311.5,0.5,95,140.0
4260,C2,311.5,0.5,95,140.0
4261,F1,312.0,0.5,95,140.0
4262,C4,312.0,0.5,95,140.0
4263,G3,312.0,0.5,95,140.0
4264,C1,312.5,0.5,95,140.0
4265,C2,312.5,0.5,95,140.0
4266,D3,312.5,0.5,95,140.0
4267,A2,312.5,0.5,95,140.0
4268,D2,312.5,0.5,95,140.0
4269,D3,312.5,0.5,95,140.0
4270,A2,312.5,0.5,95,140.0
4271,D2,312.5,0.5,95,140.0
4272,C4,312.5,0.5,95,140.0
4273,G3,312.5,0.5,95,140.0
4274,C1,313.0,0.5,95,140.0
4275,D3,313.0,0.5,95,140.0
4276,A2,313.0,0.5,95,140.0
4277,D2,313.0,0.5,95,140.0
4278,D3,313.0,0.5,95,140.0
4279,A2,313.0,0.5,95,140.0
4280,D2,313.0,0.5,95,140.0
4281,B-2,313.0,0.5,95,140.0
4282,E2,313.0,0.5,95,140.0
4283,C2,313.0,0.5,95,140.0
4284,C4,313.0,0.5,95,140.0
4285,G3,313.0,0.5,95,140.0
4286,C1,313.5,0.5,95,140.0
4287,C2,313.5,0.5,95,140.0
4288,D3,313.5,0.5,95,140.0
4289,A2,313.5,0.5,95,140.0
4290,D2,313.5,0.5,95,140.0
4291,D3,313.5,0.5,95,140.0
4292,A2,313.5,0.5,95,140.0
4293,D2,313.5,0.5,95,140.0
4294,C4,313.5,0.5,95,140.0
4295,G3,313.5,0.5,95,140.0
4296,C1,314.0,0.5,95,140.0
4297,D3,314.0,0.5,95,140.0
4298,A2,314.0,0.5,95,140.0
4299,D2,314.0,0.5,95,140.0
4300,D3,314.0,0.5,95,140.0
4301,A2,314.0,0.5,95,140.0
4302,D2,314.0,0.5,95,140.0
4303,B-2,314.0,0.5,95,140.0
4304,C2,314.0,0.5,95,140.0
4305,C4,314.0,0.5,95,140.0
4306,G3,314.0,0.5,95,140.0
4307,D1,314.5,0.5,95,140.0
4308,C2,314.5,0.5,95,140.0
4309,D3,314.5,0.5,95,140.0
4310,A2,314.5,0.5,95,140.0
4311,D2,314.5,0.5,95,140.0
4312,D3,314.5,0.5,95,140.0
4313,A2,314.5,0.5,95,140.0
4314,D2,314.5,0.5,95,140.0
4315,C4,314.5,0.5,95,140.0
4316,G3,314.5,0.5,95,140.0
4317,C1,315.0,0.5,95,140.0
4318,D3,315.0,0.5,95,140.0
4319,A2,315.0,0.5,95,140.0
4320,D2,315.0,0.5,95,140.0
4321,D3,315.0,0.5,95,140.0
4322,A2,315.0,0.5,95,140.0
4323,D2,315.0,0.5,95,140.0
4324,B-2,315.0,0.5,95,140.0
4325,E2,315.0,0.5,95,140.0
4326,C2,315.0,0.5,95,140.0
4327,C4,315.0,0.5,95,140.0
4328,G3,315.0,0.5,95,140.0
4329,B0,315.5,0.5,95,140.0
4330,D3,315.5,0.5,95,140.0
4331,A2,315.5,0.5,95,140.0
4332,D2,315.5,0.5,95,140.0
4333,D3,315.5,0.5,95,140.0
4334,A2,315.5,0.5,95,140.0
4335,D2,315.5,0.5,95,140.0
4336,C#3,315.5,0.5,95,140.0
4337,C2,315.5,0.5,95,140.0
4338,C4,315.5,0.5,95,140.0
4339,G3,315.5,0.5,95,140.0
4340,B0,316.0,0.5,95,140.0
4341,F3,316.0,0.5,95,140.0
4342,C3,316.0,0.5,95,140.0
4343,F2,316.0,0.5,95,140.0
4344,F3,316.0,0.5,95,140.0
4345,C3,316.0,0.5,95,140.0
4346,F2,316.0,0.5,95,140.0
4347,B0,316.5,0.5,95,140.0
4348,C2,316.5,0.5,95,140.0
4349,C4,316.5,0.5,95,140.0
4350,G3,316.5,0.5,95,140.0
4351,B0,317.0,0.5,95,140.0
4352,F3,317.0,0.5,95,140.0
4353,C3,317.0,0.5,95,140.0
4354,F2,317.0,0.5,95,140.0
4355,F3,317.0,0.5,95,140.0
4356,C3,317.0,0.5,95,140.0
4357,F2,317.0,0.5,95,140.0
4358,B-2,317.0,0.5,95,140.0
4359,E2,317.0,0.5,95,140.0
4360,C2,317.0,0.5,95,140.0
4361,C4,317.0,0.5,95,140.0
4362,G3,317.0,0.5,95,140.0
4363,B1,317.5,0.5,95,140.0
4364,C2,317.5,0.5,95,140.0
4365,C3,317.5,0.5,95,140.0
4366,G2,317.5,0.5,95,140.0
4367,C2,317.5,0.5,95,140.0
4368,C3,317.5,0.5,95,140.0
4369,G2,317.5,0.5,95,140.0
4370,C2,317.5,0.5,95,140.0
4371,C4,317.5,0.5,95,140.0
4372,G3,317.5,0.5,95,140.0
4373,B1,318.0,0.5,95,140.0
4374,C3,318.0,0.5,95,140.0
4375,G2,318.0,0.5,95,140.0
4376,C2,318.0,0.5,95,140.0
4377,C3,318.0,0.5,95,140.0
4378,G2,318.0,0.5,95,140.0
4379,C2,318.0,0.5,95,140.0
4380,B-2,318.0,0.5,95,140.0
4381,C2,318.0,0.5,95,140.0
4382,C4,318.0,0.5,95,140.0
4383,G3,318.0,0.5,95,140.0
4384,D2,318.5,0.5,95,140.0
4385,C2,318.5,0.5,95,140.0
4386,C3,318.5,0.5,95,140.0
4387,G2,318.5,0.5,95,140.0
4388,C2,318.5,0.5,95,140.0
4389,C3,318.5,0.5,95,140.0
4390,G2,318.5,0.5,95,140.0
4391,C2,318.5,0.5,95,140.0
4392,C4,318.5,0.5,95,140.0
4393,G3,318.5,0.5,95,140.0
4394,D2,319.0,0.5,95,140.0
4395,C3,319.0,0.5,95,140.0
4396,G2,319.0,0.5,95,140.0
4397,C2,319.0,0.5,95,140.0
4398,C3,319.0,0.5,95,140.0
4399,G2,319.0,0.5,95,140.0
4400,C2,319.0,0.5,95,140.0
4401,B-2,319.0,0.5,95,140.0
4402,E2,319.0,0.5,95,140.0
4403,C2,319.0,0.5,95,140.0
4404,C4,319.0,0.5,95,140.0
4405,G3,319.0,0.5,95,140.0
4406,E2,319.5,0.5,95,140.0
4407,C2,319.5,0.5,95,140.0
4408,D3,319.5,0.5,95,140.0
4409,A2,319.5,0.5,95,140.0
4410,D2,319.5,0.5,95,140.0
4411,D3,319.5,0.5,95,140.0
4412,A2,319.5,0.5,95,140.0
4413,D2,319.5,0.5,95,140.0
4414,C4,319.5,0.5,95,140.0
4415,G3,319.5,0.5,95,140.0
4416,E2,320.0,0.5,95,140.0
4417,C3,320.0,0.5,95,140.0
4418,G2,320.0,0.5,95,140.0
4419,C2,320.0,0.5,95,140.0
4420,C3,320.0,0.5,95,140.0
4421,G2,320.0,0.5,95,140.0
4422,C2,320.0,0.5,95,140.0
4423,B-2,320.0,0.5,95,140.0
4424,C2,320.0,0.5,95,140.0
4425,C4,320.0,0.5,95,140.0
4426,G3,320.0,0.5,95,140.0
4427,F#2,320.5,0.5,95,140.0
4428,C2,320.5,0.5,95,140.0
4429,B2,320.5,0.5,95,140.0
4430,F#2,320.5,0.5,95,140.0
4431,B1,320.5,0.5,95,140.0
4432,B2,320.5,0.5,95,140.0
4433,F#2,320.5,0.5,95,140.0
4434,B1,320.5,0.5,95,140.0
4435,F#2,321.0,0.5,95,140.0
4436,B-2,321.0,0.5,95,140.0
4437,E2,321.0,0.5,95,140.0
4438,C2,321.0,0.5,95,140.0
4439,C4,321.0,0.5,95,140.0
4440,G3,321.0,0.5,95,140.0
4441,G2,321.5,0.5,95,140.0
4442,C2,321.5,0.5,95,140.0
4443,B2,321.5,0.5,95,140.0
4444,F#2,321.5,0.5,95,140.0
4445,B1,321.5,0.5,95,140.0
4446,B2,321.5,0.5,95,140.0
4447,F#2,321.5,0.5,95,140.0
4448,B1,321.5,0.5,95,140.0
4449,C4,321.5,0.5,95,140.0
4450,G3,321.5,0.5,95,140.0
4451,F#2,322.0,1.0,95,140.0
4452,B2,322.0,0.5,95,140.0
4453,F#2,322.0,0.5,95,140.0
4454,B1,322.0,0.5,95,140.0
4455,B2,322.0,0.5,95,140.0
4456,F#2,322.0,0.5,95,140.0
4457,B1,322.0,0.5,95,140.0
4458,B-2,322.0,0.5,95,140.0
4459,C2,322.0,0.5,95,140.0
4460,C4,322.0,0.5,95,140.0
4461,G3,322.0,0.5,95,140.0
4462,E2,322.5,0.5,95,140.0
4463,B2,322.5,0.5,95,140.0
4464,F#2,322.5,0.5,95,140.0
4465,B1,322.5,0.5,95,140.0
4466,B2,322.5,0.5,95,140.0
4467,F#2,322.5,0.5,95,140.0
4468,B1,322.5,0.5,95,140.0
4469,C4,322.5,0.5,95,140.0
4470,G3,322.5,0.5,95,140.0
4471,E2,323.0,0.5,95,140.0
4472,B2,323.0,0.5,95,140.0
4473,F#2,323.0,0.5,95,140.0
4474,B1,323.0,0.5,95,140.0
4475,B3,323.0,0.5,95,140.0
4476,B2,323.0,0.5,95,140.0
4477,C4,323.0,0.5,95,140.0
4478,G3,323.0,0.5,95,140.0
4479,D1,323.5,0.5,95,140.0
4480,B2,323.5,0.5,95,140.0
4481,F#2,323.5,0.5,95,140.0
4482,B1,323.5,0.5,95,140.0
4483,B3,323.5,0.5,95,140.0
4484,B2,323.5,0.5,95,140.0
4485,C#3,323.5,0.5,95,140.0
4486,C2,323.5,0.5,95,140.0
4487,C4,323.5,0.5,95,140.0
4488,G3,323.5,0.5,95,140.0
4489,D1,324.0,0.5,95,140.0
4490,B2,324.0,0.5,95,140.0
4491,F#2,324.0,0.5,95,140.0
4492,B1,324.0,0.5,95,140.0
4493,D4,324.0,0.5,95,140.0
4494,D3,324.0,0.5,95,140.0
4495,C4,324.0,0.5,95,140.0
4496,G3,324.0,0.5,95,140.0
4497,D1,324.5,0.5,95,140.0
4498,C2,324.5,0.5,95,140.0
4499,B2,324.5,0.5,95,140.0
4500,F#2,324.5,0.5,95,140.0
4501,B1,324.5,0.5,95,140.0
4502,D4,324.5,0.5,95,140.0
4503,D3,324.5,0.5,95,140.0
4504,C4,324.5,0.5,95,140.0
4505,G3,324.5,0.5,95,140.0
4506,D1,325.0,0.5,95,140.0
4507,B2,325.0,0.5,95,140.0
4508,F#2,325.0,0.5,95,140.0
4509,B1,325.0,0.5,95,140.0
4510,E4,325.0,0.5,95,140.0
4511,E3,325.0,0.5,95,140.0
4512,B-2,325.0,0.5,95,140.0
4513,E2,325.0,0.5,95,140.0
4514,C2,325.0,0.5,95,140.0
4515,C4,325.0,0.5,95,140.0
4516,G3,325.0,0.5,95,140.0
4517,D1,325.5,0.5,95,140.0
4518,C2,325.5,0.5,95,140.0
4519,B2,325.5,0.5,95,140.0
4520,F#2,325.5,0.5,95,140.0
4521,B1,325.5,0.5,95,140.0
4522,E4,325.5,0.5,95,140.0
4523,E3,325.5,0.5,95,140.0
4524,C4,325.5,0.5,95,140.0
4525,G3,325.5,0.5,95,140.0
4526,D1,326.0,0.5,95,140.0
4527,B2,326.0,0.5,95,140.0
4528,F#2,326.0,0.5,95,140.0
4529,B1,326.0,0.5,95,140.0
4530,F#4,326.0,0.5,95,140.0
4531,F#3,326.0,0.5,95,140.0
4532,B-2,326.0,0.5,95,140.0
4533,C2,326.0,0.5,95,140.0
4534,C4,326.0,0.5,95,140.0
4535,G3,326.0,0.5,95,140.0
4536,D1,326.5,0.5,95,140.0
4537,C2,326.5,0.5,95,140.0
4538,B2,326.5,0.5,95,140.0
4539,F#2,326.5,0.5,95,140.0
4540,B1,326.5,0.5,95,140.0
4541,F#4,326.5,0.5,95,140.0
4542,F#3,326.5,0.5,95,140.0
4543,C4,326.5,0.5,95,140.0
4544,G3,326.5,0.5,95,140.0
4545,D1,327.0,0.5,95,140.0
4546,B2,327.0,0.5,95,140.0
4547,F#2,327.0,0.5,95,140.0
4548,B1,327.0,0.5,95,140.0
4549,G4,327.0,0.5,95,140.0
4550,G3,327.0,0.5,95,140.0
4551,B-2,327.0,0.5,95,140.0
4552,E2,327.0,0.5,95,140.0
4553,C2,327.0,0.5,95,140.0
4554,C4,327.0,0.5,95,140.0
4555,G3,327.0,0.5,95,140.0
4556,F1,327.5,0.5,95,140.0
4557,B2,327.5,0.5,95,140.0
4558,F#2,327.5,0.5,95,140.0
4559,B1,327.5,0.5,95,140.0
4560,F#4,327.5,1.0,95,140.0
4561,F#3,327.5,1.0,95,140.0
4562,C#3,327.5,0.5,95,140.0
4563,C2,327.5,0.5,95,140.0
4564,C4,327.5,0.5,95,140.0
4565,G3,327.5,0.5,95,140.0
4566,F1,328.0,0.5,95,140.0
4567,B2,328.0,0.5,95,140.0
4568,F#2,328.0,0.5,95,140.0
4569,B1,328.0,0.5,95,140.0
4570,C4,328.0,0.5,95,140.0
4571,G3,328.0,0.5,95,140.0
4572,C1,328.5,0.5,95,140.0
4573,C2,328.5,0.5,95,140.0
4574,B2,328.5,0.5,95,140.0
4575,F#2,328.5,0.5,95,140.0
4576,B1,328.5,0.5,95,140.0
4577,C4,328.5,0.5,95,140.0
4578,G3,328.5,0.5,95,140.0
4579,C1,329.0,0.5,95,140.0
4580,D3,329.0,0.5,95,140.0
4581,A2,329.0,0.5,95,140.0
4582,D2,329.0,0.5,95,140.0
4583,D3,329.0,0.5,95,140.0
4584,A2,329.0,0.5,95,140.0
4585,D2,329.0,0.5,95,140.0
4586,B-2,329.0,0.5,95,140.0
4587,E2,329.0,0.5,95,140.0
4588,C2,329.0,0.5,95,140.0
4589,C1,329.5,0.5,95,140.0
4590,C2,329.5,0.5,95,140.0
4591,D3,329.5,0.5,95,140.0
4592,A2,329.5,0.5,95,140.0
4593,D2,329.5,0.5,95,140.0
4594,C4,329.5,0.5,95,140.0
4595,G3,329.5,0.5,95,140.0
4596,C1,330.0,0.5,95,140.0
4597,D3,330.0,0.5,95,140.0
4598,A2,330.0,0.5,95,140.0
4599,D2,330.0,0.5,95,140.0
4600,D3,330.0,0.5,95,140.0
4601,A2,330.0,0.5,95,140.0
4602,D2,330.0,0.5,95,140.0
4603,B-2,330.0,0.5,95,140.0
4604,C2,330.0,0.5,95,140.0
4605,C4,330.0,0.5,95,140.0
4606,G3,330.0,0.5,95,140.0
4607,D1,330.5,0.5,95,140.0
4608,C2,330.5,0.5,95,140.0
4609,D3,330.5,0.5,95,140.0
4610,A2,330.5,0.5,95,140.0
4611,D2,330.5,0.5,95,140.0
4612,D3,330.5,0.5,95,140.0
4613,A2,330.5,0.5,95,140.0
4614,D2,330.5,0.5,95,140.0
4615,C4,330.5,0.5,95,140.0
4616,G3,330.5,0.5,95,140.0
4617,C1,331.0,0.5,95,140.0
4618,D3,331.0,0.5,95,140.0
4619,A2,331.0,0.5,95,140.0
4620,D2,331.0,0.5,95,140.0
4621,D3,331.0,0.5,95,140.0
4622,A2,331.0,0.5,95,140.0
4623,D2,331.0,0.5,95,140.0
4624,B-2,331.0,0.5,95,140.0
4625,E2,331.0,0.5,95,140.0
4626,C2,331.0,0.5,95,140.0
4627,C4,331.0,0.5,95,140.0
4628,G3,331.0,0.5,95,140.0
4629,B0,331.5,0.5,95,140.0
4630,D3,331.5,0.5,95,140.0
4631,A2,331.5,0.5,95,140.0
4632,D2,331.5,0.5,95,140.0
4633,D3,331.5,0.5,95,140.0
4634,A2,331.5,0.5,95,140.0
4635,D2,331.5,0.5,95,140.0
4636,C#3,331.5,0.5,95,140.0
4637,C2,331.5,0.5,95,140.0
4638,C4,331.5,0.5,95,140.0
4639,G3,331.5,0.5,95,140.0
4640,B0,332.0,0.5,95,140.0
4641,D3,332.0,0.5,95,140.0
4642,A2,332.0,0.5,95,140.0
4643,D2,332.0,0.5,95,140.0
4644,D3,332.0,0.5,95,140.0
4645,A2,332.0,0.5,95,140.0
4646,D2,332.0,0.5,95,140.0
4647,B-2,332.0,0.5,95,140.0
4648,C2,332.0,0.5,95,140.0
4649,C4,332.0,0.5,95,140.0
4650,G3,332.0,0.5,95,140.0
4651,B0,332.5,0.5,95,140.0
4652,C2,332.5,0.5,95,140.0
4653,D3,332.5,0.5,95,140.0
4654,A2,332.5,0.5,95,140.0
4655,D2,332.5,0.5,95,140.0
4656,D3,332.5,0.5,95,140.0
4657,A2,332.5,0.5,95,140.0
4658,D2,332.5,0.5,95,140.0
4659,C4,332.5,0.5,95,140.0
4660,G3,332.5,0.5,95,140.0
4661,B0,333.0,0.5,95,140.0
4662,D3,333.0,0.5,95,140.0
4663,A2,333.0,0.5,95,140.0
4664,D2,333.0,0.5,95,140.0
4665,F3,333.0,0.5,95,140.0
4666,C3,333.0,0.5,95,140.0
4667,F2,333.0,0.5,95,140.0
4668,B-2,333.0,0.5,95,140.0
4669,E2,333.0,0.5,95,140.0
4670,C2,333.0,0.5,95,140.0
4671,C4,333.0,0.5,95,140.0
4672,G3,333.0,0.5,95,140.0
4673,B1,333.5,0.5,95,140.0
4674,C2,333.5,0.5,95,140.0
4675,F3,333.5,0.5,95,140.0
4676,C3,333.5,0.5,95,140.0
4677,F2,333.5,0.5,95,140.0
4678,B1,334.0,0.5,95,140.0
4679,F3,334.0,0.5,95,140.0
4680,C3,334.0,0.5,95,140.0
4681,F2,334.0,0.5,95,140.0
4682,B-2,334.0,0.5,95,140.0
4683,C2,334.0,0.5,95,140.0
4684,C4,334.0,0.5,95,140.0
4685,G3,334.0,0.5,95,140.0
4686,D2,334.5,0.5,95,140.0
4687,E2,334.5,0.5,95,140.0
4688,F3,334.5,0.5,95,140.0
4689,C3,334.5,0.5,95,140.0
4690,F2,334.5,0.5,95,140.0
4691,C3,334.5,0.5,95,140.0
4692,G2,334.5,0.5,95,140.0
4693,C2,334.5,0.5,95,140.0
4694,C4,334.5,0.5,95,140.0
4695,G3,334.5,0.5,95,140.0
4696,D2,335.0,0.5,95,140.0
4697,E2,335.0,0.5,95,140.0
4698,C3,335.0,0.5,95,140.0
4699,G2,335.0,0.5,95,140.0
4700,C2,335.0,0.5,95,140.0
4701,C3,335.0,0.5,95,140.0
4702,G2,335.0,0.5,95,140.0
4703,C2,335.0,0.5,95,140.0
4704,C4,335.0,0.5,95,140.0
4705,G3,335.0,0.5,95,140.0
4706,E2,335.5,0.5,95,140.0
4707,C3,335.5,0.5,95,140.0
4708,G2,335.5,0.5,95,140.0
4709,C2,335.5,0.5,95,140.0
4710,C3,335.5,0.5,95,140.0
4711,G2,335.5,0.5,95,140.0
4712,C2,335.5,0.5,95,140.0
4713,C#3,335.5,0.5,95,140.0
4714,C2,335.5,0.5,95,140.0
4715,C4,335.5,0.5,95,140.0
4716,G3,335.5,0.5,95,140.0
4717,E2,336.0,0.5,95,140.0
4718,C3,336.0,0.5,95,140.0
4719,G2,336.0,0.5,95,140.0
4720,C2,336.0,0.5,95,140.0
4721,C3,336.0,0.5,95,140.0
4722,G2,336.0,0.5,95,140.0
4723,C2,336.0,0.5,95,140.0
4724,C4,336.0,0.5,95,140.0
4725,G3,336.0,0.5,95,140.0
4726,F#2,336.5,0.5,95,140.0
4727,C2,336.5,0.5,95,140.0
4728,C3,336.5,0.5,95,140.0
4729,G2,336.5,0.5,95,140.0
4730,C2,336.5,0.5,95,140.0
4731,D3,336.5,0.5,95,140.0
4732,A2,336.5,0.5,95,140.0
4733,D2,336.5,0.5,95,140.0
4734,C4,336.5,0.5,95,140.0
4735,G3,336.5,0.5,95,140.0
4736,F#2,337.0,0.5,95,140.0
4737,D3,337.0,0.5,95,140.0
4738,A2,337.0,0.5,95,140.0
4739,D2,337.0,0.5,95,140.0
4740,C3,337.0,0.5,95,140.0
4741,G2,337.0,0.5,95,140.0
4742,C2,337.0,0.5,95,140.0
4743,B-2,337.0,0.5,95,140.0
4744,E2,337.0,0.5,95,140.0
4745,C2,337.0,0.5,95,140.0
4746,C4,337.0,0.5,95,140.0
4747,G3,337.0,0.5,95,140.0
4748,G2,337.5,0.5,95,140.0
4749,C2,337.5,0.5,95,140.0
4750,C3,337.5,0.5,95,140.0
4751,G2,337.5,0.5,95,140.0
4752,C2,337.5,0.5,95,140.0
4753,B2,337.5,0.5,95,140.0
4754,F#2,337.5,0.5,95,140.0
4755,B1,337.5,0.5,95,140.0
4756,C4,337.5,0.5,95,140.0
4757,G3,337.5,0.5,95,140.0
4758,F#2,338.0,1.0,95,140.0
4759,B2,338.0,0.5,95,140.0
4760,F#2,338.0,0.5,95,140.0
4761,B1,338.0,0.5,95,140.0
4762,B-2,338.0,0.5,95,140.0
4763,C2,338.0,0.5,95,140.0
4764,C4,338.0,0.5,95,140.0
4765,G3,338.0,0.5,95,140.0
4766,C2,338.5,0.5,95,140.0
4767,B2,338.5,0.5,95,140.0
4768,F#2,338.5,0.5,95,140.0
4769,B1,338.5,0.5,95,140.0
4770,C4,338.5,0.5,95,140.0
4771,G3,338.5,0.5,95,140.0
4772,B2,339.0,0.5,95,140.0
4773,F#2,339.0,0.5,95,140.0
4774,B1,339.0,0.5,95,140.0
4775,B2,339.0,0.5,95,140.0
4776,F#2,339.0,0.5,95,140.0
4777,B1,339.0,0.5,95,140.0
4778,B-2,339.0,0.5,95,140.0
4779,E2,339.0,0.5,95,140.0
4780,C2,339.0,0.5,95,140.0
4781,C4,339.0,0.5,95,140.0
4782,G3,339.0,0.5,95,140.0
4783,D1,339.5,0.5,95,140.0
4784,B2,339.5,0.5,95,140.0
4785,F#2,339.5,0.5,95,140.0
4786,B1,339.5,0.5,95,140.0
4787,B2,339.5,0.5,95,140.0
4788,F#2,339.5,0.5,95,140.0
4789,B1,339.5,0.5,95,140.0
4790,C#3,339.5,0.5,95,140.0
4791,C2,339.5,0.5,95,140.0
4792,C4,339.5,0.5,95,140.0
4793,G3,339.5,0.5,95,140.0
4794,D1,340.0,0.5,95,140.0
4795,B2,340.0,0.5,95,140.0
4796,F#2,340.0,0.5,95,140.0
4797,B1,340.0,0.5,95,140.0
4798,B3,340.0,0.5,95,140.0
4799,B2,340.0,0.5,95,140.0
4800,C4,340.0,0.5,95,140.0
4801,G3,340.0,0.5,95,140.0
4802,D1,340.5,0.5,95,140.0
4803,C2,340.5,0.5,95,140.0
4804,B2,340.5,0.5,95,140.0
4805,F#2,340.5,0.5,95,140.0
4806,B1,340.5,0.5,95,140.0
4807,B3,340.5,0.5,95,140.0
4808,B2,340.5,0.5,95,140.0
4809,C4,340.5,0.5,95,140.0
4810,G3,340.5,0.5,95,140.0
4811,D1,341.0,0.5,95,140.0
4812,B2,341.0,0.5,95,140.0
4813,F#2,341.0,0.5,95,140.0
4814,B1,341.0,0.5,95,140.0
4815,D4,341.0,0.5,95,140.0
4816,D3,341.0,0.5,95,140.0
4817,B-2,341.0,0.5,95,140.0
4818,E2,341.0,0.5,95,140.0
4819,C2,341.0,0.5,95,140.0
4820,C4,341.0,0.5,95,140.0
4821,G3,341.0,0.5,95,140.0
4822,D1,341.5,0.5,95,140.0
4823,C2,341.5,0.5,95,140.0
4824,B2,341.5,0.5,95,140.0
4825,F#2,341.5,0.5,95,140.0
4826,B1,341.5,0.5,95,140.0
4827,D4,341.5,0.5,95,140.0
4828,D3,341.5,0.5,95,140.0
4829,C4,341.5,0.5,95,140.0
4830,G3,341.5,0.5,95,140.0
4831,D1,342.0,0.5,95,140.0
4832,B2,342.0,0.5,95,140.0
4833,F#2,342.0,0.5,95,140.0
4834,B1,342.0,0.5,95,140.0
4835,E4,342.0,0.5,95,140.0
4836,E3,342.0,0.5,95,140.0
4837,B-2,342.0,0.5,95,140.0
4838,C2,342.0,0.5,95,140.0
4839,C4,342.0,0.5,95,140.0
4840,G3,342.0,0.5,95,140.0
4841,D1,342.5,0.5,95,140.0
4842,C2,342.5,0.5,95,140.0
4843,B2,342.5,0.5,95,140.0
4844,F#2,342.5,0.5,95,140.0
4845,B1,342.5,0.5,95,140.0
4846,E4,342.5,0.5,95,140.0
4847,E3,342.5,0.5,95,140.0
4848,C4,342.5,0.5,95,140.0
4849,G3,342.5,0.5,95,140.0
4850,D1,343.0,0.5,95,140.0
4851,B2,343.0,0.5,95,140.0
4852,F#2,343.0,0.5,95,140.0
4853,B1,343.0,0.5,95,140.0
4854,F#4,343.0,0.5,95,140.0
4855,F#3,343.0,0.5,95,140.0
4856,B-2,343.0,0.5,95,140.0
4857,E2,343.0,0.5,95,140.0
4858,C2,343.0,0.5,95,140.0
4859,C4,343.0,0.5,95,140.0
4860,G3,343.0,0.5,95,140.0
4861,F1,343.5,0.5,95,140.0
4862,B2,343.5,0.5,95,140.0
4863,F#2,343.5,0.5,95,140.0
4864,B1,343.5,0.5,95,140.0
4865,F#4,343.5,0.5,95,140.0
4866,F#3,343.5,0.5,95,140.0
4867,C#3,343.5,0.5,95,140.0
4868,C2,343.5,0.5,95,140.0
4869,C4,343.5,0.5,95,140.0
4870,G3,343.5,0.5,95,140.0
4871,F1,344.0,0.5,95,140.0
4872,E2,344.0,0.25,95,140.0
4873,B2,344.0,0.5,95,140.0
4874,F#2,344.0,0.5,95,140.0
4875,B1,344.0,0.5,95,140.0
4876,G4,344.0,0.5,95,140.0
4877,G3,344.0,0.5,95,140.0
4878,C4,344.0,0.5,95,140.0
4879,G3,344.0,0.5,95,140.0
4880,E2,344.25,0.25,95,140.0
4881,C1,344.5,0.5,95,140.0
4882,E2,344.5,0.25,95,140.0
4883,B2,344.5,0.5,95,140.0
4884,F#2,344.5,0.5,95,140.0
4885,B1,344.5,0.5,95,140.0
4886,F#4,344.5,1.0,95,140.0
4887,F#3,344.5,1.0,95,140.0
4888,C4,344.5,0.5,95,140.0
4889,G3,344.5,0.5,95,140.0
4890,E2,344.75,0.25,95,140.0
4891,C1,345.0,0.5,95,140.0
4892,E2,345.0,0.25,95,140.0
4893,B2,345.0,0.5,95,140.0
4894,F#2,345.0,0.5,95,140.0
4895,B1,345.0,0.5,95,140.0
4896,C4,345.0,0.5,95,140.0
4897,G3,345.0,0.5,95,140.0
4898,E2,345.25,0.25,95,140.0
4899,C1,345.5,0.5,95,140.0
4900,B2,345.5,0.5,95,140.0
4901,F#2,345.5,0.5,95,140.0
4902,B1,345.5,0.5,95,140.0
4903,F2,345.5,0.25,95,140.0
4904,C2,345.5,0.25,95,140.0
4905,C4,345.5,0.5,95,140.0
4906,G3,345.5,0.5,95,140.0
4907,F2,345.75,0.25,95,140.0
4908,C2,345.75,0.25,95,140.0
4909,C1,346.0,0.5,95,140.0
4910,E2,346.0,0.25,95,140.0
4911,B2,346.0,0.5,95,140.0
4912,F#2,346.0,0.5,95,140.0
4913,B1,346.0,0.5,95,140.0
4914,D3,346.0,0.5,95,140.0
4915,A2,346.0,0.5,95,140.0
4916,D2,346.0,0.5,95,140.0
4917,E2,346.25,0.25,95,140.0
4918,D1,346.5,0.5,95,140.0
4919,D3,346.5,0.5,95,140.0
4920,A2,346.5,0.5,95,140.0
4921,D2,346.5,0.5,95,140.0
4922,D3,346.5,0.5,95,140.0
4923,A2,346.5,0.5,95,140.0
4924,D2,346.5,0.5,95,140.0
4925,F2,346.5,0.25,95,140.0
4926,C2,346.5,0.25,95,140.0
4927,C4,346.5,0.5,95,140.0
4928,G3,346.5,0.5,95,140.0
4929,F2,346.75,0.25,95,140.0
4930,C2,346.75,0.25,95,140.0
4931,C1,347.0,0.5,95,140.0
4932,D3,347.0,0.5,95,140.0
4933,A2,347.0,0.5,95,140.0
4934,D2,347.0,0.5,95,140.0
4935,G2,347.0,0.25,95,140.0
4936,B2,347.0,0.25,95,140.0
4937,C4,347.0,0.5,95,140.0
4938,G3,347.0,0.5,95,140.0
4939,G2,347.25,0.25,95,140.0
4940,B2,347.25,0.25,95,140.0
4941,B0,347.5,0.5,95,140.0
4942,D3,347.5,0.5,95,140.0
4943,A2,347.5,0.5,95,140.0
4944,D2,347.5,0.5,95,140.0
4945,D3,347.5,0.5,95,140.0
4946,A2,347.5,0.5,95,140.0
4947,D2,347.5,0.5,95,140.0
4948,G2,347.5,0.25,95,140.0
4949,B2,347.5,0.25,95,140.0
4950,C4,347.5,0.5,95,140.0
4951,G3,347.5,0.5,95,140.0
4952,G2,347.75,0.25,95,140.0
4953,B2,347.75,0.25,95,140.0
4954,D3,348.0,0.5,95,140.0
4955,A2,348.0,0.5,95,140.0
4956,D2,348.0,0.5,95,140.0
4957,D3,348.0,0.5,95,140.0
4958,A2,348.0,0.5,95,140.0
4959,D2,348.0,0.5,95,140.0
4960,C4,348.0,0.5,95,140.0
4961,G3,348.0,0.5,95,140.0
4962,B0,348.25,0.5,95,140.0
4963,C2,348.25,0.5,95,140.0
4964,D3,348.5,0.5,95,140.0
4965,A2,348.5,0.5,95,140.0
4966,D2,348.5,0.5,95,140.0
4967,D3,348.5,0.5,95,140.0
4968,A2,348.5,0.5,95,140.0
4969,D2,348.5,0.5,95,140.0
4970,C4,348.5,0.5,95,140.0
4971,G3,348.5,0.5,95,140.0
4972,B0,349.0,0.5,95,140.0
4973,C2,349.0,0.5,95,140.0
4974,D3,349.0,0.5,95,140.0
4975,A2,349.0,0.5,95,140.0
4976,D2,349.0,0.5,95,140.0
4977,D3,349.0,0.5,95,140.0
4978,A2,349.0,0.5,95,140.0
4979,D2,349.0,0.5,95,140.0
4980,C4,349.0,0.5,95,140.0
4981,G3,349.0,0.5,95,140.0
4982,D3,349.5,0.5,95,140.0
4983,A2,349.5,0.5,95,140.0
4984,D2,349.5,0.5,95,140.0
4985,D3,349.5,0.5,95,140.0
4986,A2,349.5,0.5,95,140.0
4987,D2,349.5,0.5,95,140.0
4988,C4,349.5,0.5,95,140.0
4989,G3,349.5,0.5,95,140.0
4990,B0,349.75,0.5,95,140.0
4991,C2,349.75,0.5,95,140.0
4992,D3,350.0,0.5,95,140.0
4993,A2,350.0,0.5,95,140.0
4994,D2,350.0,0.5,95,140.0
4995,F3,350.0,0.5,95,140.0
4996,C3,350.0,0.5,95,140.0
4997,F2,350.0,0.5,95,140.0
4998,C4,350.0,0.5,95,140.0
4999,G3,350.0,0.5,95,140.0
5000,D3,350.5,0.5,95,140.0
5001,A2,350.5,0.5,95,140.0
5002,D2,350.5,0.5,95,140.0
5003,C4,351.0,0.5,95,140.0
5004,F3,351.0,0.5,95,140.0
5005,C3,351.0,0.5,95,140.0
5006,F2,351.0,0.5,95,140.0
5007,F3,351.0,0.5,95,140.0
5008,C3,351.0,0.5,95,140.0
5009,F2,351.0,0.5,95,140.0
5010,C4,351.0,0.5,95,140.0
5011,G3,351.0,0.5,95,140.0
5012,B0,351.5,0.5,95,140.0
5013,C2,351.5,0.5,95,140.0
5014,C3,351.5,0.5,95,140.0
5015,G2,351.5,0.5,95,140.0
5016,C2,351.5,0.5,95,140.0
5017,C4,351.5,0.5,95,140.0
5018,G3,351.5,0.5,95,140.0
5019,B0,352.0,0.5,95,140.0
5020,C2,352.0,0.5,95,140.0
5021,F3,352.0,0.5,95,140.0
5022,C3,352.0,0.5,95,140.0
5023,F2,352.0,0.5,95,140.0
5024,C3,352.0,0.5,95,140.0
5025,G2,352.0,0.5,95,140.0
5026,C2,352.0,0.5,95,140.0
5027,C4,352.0,0.5,95,140.0
5028,G3,352.0,0.5,95,140.0
5029,C3,352.5,0.5,95,140.0
5030,G2,352.5,0.5,95,140.0
5031,C2,352.5,0.5,95,140.0
5032,C3,352.5,0.5,95,140.0
5033,G2,352.5,0.5,95,140.0
5034,C2,352.5,0.5,95,140.0
5035,C4,352.5,0.5,95,140.0
5036,G3,352.5,0.5,95,140.0
5037,C3,353.0,0.5,95,140.0
5038,G2,353.0,0.5,95,140.0
5039,C2,353.0,0.5,95,140.0
5040,C3,353.0,0.5,95,140.0
5041,G2,353.0,0.5,95,140.0
5042,C2,353.0,0.5,95,140.0
5043,C4,353.0,0.5,95,140.0
5044,G3,353.0,0.5,95,140.0
5045,B0,353.5,0.5,95,140.0
5046,C2,353.5,0.5,95,140.0
5047,C3,353.5,0.5,95,140.0
5048,G2,353.5,0.5,95,140.0
5049,C2,353.5,0.5,95,140.0
5050,D3,353.5,0.5,95,140.0
5051,A2,353.5,0.5,95,140.0
5052,D2,353.5,0.5,95,140.0
5053,C4,353.5,0.5,95,140.0
5054,G3,353.5,0.5,95,140.0
5055,C3,354.0,0.5,95,140.0
5056,G2,354.0,0.5,95,140.0
5057,C2,354.0,0.5,95,140.0
5058,C3,354.0,0.5,95,140.0
5059,G2,354.0,0.5,95,140.0
5060,C2,354.0,0.5,95,140.0
5061,C4,354.0,0.5,95,140.0
5062,G3,354.0,0.5,95,140.0
5063,B0,354.25,0.5,95,140.0
5064,C2,354.25,0.5,95,140.0
5065,D3,354.5,0.5,95,140.0
5066,A2,354.5,0.5,95,140.0
5067,D2,354.5,0.5,95,140.0
5068,B2,354.5,0.5,95,140.0
5069,F#2,354.5,0.5,95,140.0
5070,B1,354.5,0.5,95,140.0
5071,C4,354.5,0.5,95,140.0
5072,G3,354.5,0.5,95,140.0
5073,B0,355.0,0.5,95,140.0
5074,C2,355.0,0.5,95,140.0
5075,C3,355.0,0.5,95,140.0
5076,G2,355.0,0.5,95,140.0
5077,C2,355.0,0.5,95,140.0
5078,B2,355.25,0.5,95,140.0
5079,F#2,355.25,0.5,95,140.0
5080,B1,355.25,0.5,95,140.0
5081,B2,355.5,0.5,95,140.0
5082,F#2,355.5,0.5,95,140.0
5083,B1,355.5,0.5,95,140.0
5084,B2,356.0,0.5,95,140.0
5085,F#2,356.0,0.5,95,140.0
5086,B1,356.0,0.5,95,140.0
5087,B2,356.25,0.5,95,140.0
5088,F#2,356.25,0.5,95,140.0
5089,B1,356.25,0.5,95,140.0
5090,B0,356.5,0.5,95,140.0
5091,F2,356.5,0.5,95,140.0
5092,C2,356.5,0.5,95,140.0
5093,B2,356.75,0.5,95,140.0
5094,F#2,356.75,0.5,95,140.0
5095,B1,356.75,0.5,95,140.0
5096,C1,357.0,0.5,95,140.0
5097,B2,357.0,0.5,95,140.0
5098,F#2,357.0,0.5,95,140.0
5099,B1,357.0,0.5,95,140.0
5100,E2,357.0,0.5,95,140.0
5101,F2,357.0,0.5,95,140.0
5102,C2,357.0,0.5,95,140.0
5103,B0,357.5,0.5,95,140.0
5104,G2,357.5,0.5,95,140.0
5105,F2,357.5,0.5,95,140.0
5106,C2,357.5,0.5,95,140.0
5107,B2,357.75,0.5,95,140.0
5108,F#2,357.75,0.5,95,140.0
5109,B1,357.75,0.5,95,140.0
5110,D1,358.0,1.0,95,140.0
5111,C#3,358.0,1.0,95,140.0
5112,F2,358.0,1.0,95,140.0
5113,C2,358.0,1.0,95,140.0
5114,B2,358.5,0.5,95,140.0
5115,F#2,358.5,0.5,95,140.0
5116,B1,358.5,0.5,95,140.0
5117,A1,359.0,1.0,95,140.0
5118,B2,359.0,0.5,95,140.0
5119,F#2,359.0,0.5,95,140.0
5120,B1,359.0,0.5,95,140.0
5121,A3,359.0,1.0,95,140.0
5122,F2,359.0,1.0,95,140.0
5123,C2,359.0,1.0,95,140.0
5124,B2,359.5,0.5,95,140.0
5125,F#2,359.5,0.5,95,140.0
5126,B1,359.5,0.5,95,140.0
5127,B2,360.0,0.5,95,140.0
5128,F#2,360.0,0.5,95,140.0
5129,B1,360.0,0.5,95,140.0
5130,B0,360.5,0.5,95,140.0
5131,C2,360.5,0.5,95,140.0
5132,B2,360.5,0.5,95,140.0
5133,F#2,360.5,0.5,95,140.0
5134,B1,360.5,0.5,95,140.0
5135,B0,361.25,0.5,95,140.0
5136,C2,361.25,0.5,95,140.0
5137,B2,361.25,0.5,95,140.0
5138,F#2,361.25,0.5,95,140.0
5139,B1,361.25,0.5,95,140.0
5140,B2,361.5,0.5,95,140.0
5141,F#2,361.5,0.5,95,140.0
5142,B1,361.5,0.5,95,140.0
5143,B0,362.0,0.5,95,140.0
5144,C2,362.0,0.5,95,140.0
5145,B2,362.0,0.5,95,140.0
5146,F#2,362.0,0.5,95,140.0
5147,B1,362.0,0.5,95,140.0
5148,B2,362.25,0.5,95,140.0
5149,F#2,362.25,0.5,95,140.0
5150,B1,362.25,0.5,95,140.0
5151,C2,362.5,0.125,95,140.0
5152,C2,362.625,0.25,95,140.0
5153,C2,362.875,0.125,95,140.0
5154,E2,363.0,0.5,95,140.0
5155,C4,363.0,0.5,95,140.0
5156,B2,363.0,0.5,95,140.0
5157,F#2,363.0,0.5,95,140.0
5158,B1,363.0,0.5,95,140.0
5159,B0,363.5,0.5,95,140.0
5160,B2,363.5,0.5,95,140.0
5161,F#2,363.5,0.5,95,140.0
5162,B1,363.5,0.5,95,140.0
5163,B2,363.5,0.5,95,140.0
5164,F2,363.5,0.5,95,140.0
5165,C2,363.5,0.5,95,140.0
5166,B0,364.0,0.5,95,140.0
5167,C3,364.0,0.5,95,140.0
5168,G2,364.0,0.5,95,140.0
5169,C2,364.0,0.5,95,140.0
5170,B2,364.0,0.5,95,140.0
5171,F2,364.0,0.5,95,140.0
5172,C2,364.0,0.5,95,140.0
5173,C2,364.5,0.125,95,140.0
5174,B2,364.5,0.5,95,140.0
5175,F#2,364.5,0.5,95,140.0
5176,B1,364.5,0.5,95,140.0
5177,B2,364.5,0.5,95,140.0
5178,F#2,364.5,0.5,95,140.0
5179,B1,364.5,0.5,95,140.0
5180,C2,364.625,0.25,95,140.0
5181,C2,364.875,0.125,95,140.0
5182,E2,365.0,0.5,95,140.0
5183,C3,365.0,0.5,95,140.0
5184,G2,365.0,0.5,95,140.0
5185,C2,365.0,0.5,95,140.0
5186,D3,365.0,1.0,95,140.0
5187,A2,365.0,1.0,95,140.0
5188,D2,365.0,1.0,95,140.0
5189,B0,365.5,0.5,95,140.0
5190,B2,365.5,0.5,95,140.0
5191,F#2,365.5,0.5,95,140.0
5192,B1,365.5,0.5,95,140.0
5193,B2,365.5,0.5,95,140.0
5194,F2,365.5,0.5,95,140.0
5195,C2,365.5,0.5,95,140.0
5196,A4,366.0,1.0,95,140.0
5197,D3,366.0,1.0,95,140.0
5198,A2,366.0,1.0,95,140.0
5199,D2,366.0,1.0,95,140.0
5200,B0,366.25,0.5,95,140.0
5201,B2,366.25,0.5,95,140.0
5202,F2,366.25,0.5,95,140.0
5203,C2,366.25,0.5,95,140.0
5204,A4,367.0,1.0,95,140.0
5205,A4,367.0,0.5,95,140.0
5206,B0,367.0,0.5,95,140.0
5207,B2,367.0,0.5,95,140.0
5208,F2,367.0,0.5,95,140.0
5209,C2,367.0,0.5,95,140.0
5210,B2,367.5,0.5,95,140.0
5211,F#2,367.5,0.5,95,140.0
5212,B1,367.5,0.5,95,140.0
5213,A4,368.0,0.5,95,140.0
5214,B2,368.25,0.5,95,140.0
5215,F#2,368.25,0.5,95,140.0
5216,B1,368.25,0.5,95,140.0
5217,B0,368.5,0.5,95,140.0
5218,B2,368.5,0.5,95,140.0
5219,F#2,368.5,0.5,95,140.0
5220,B1,368.5,0.5,95,140.0
5221,F2,368.5,0.5,95,140.0
5222,C2,368.5,0.5,95,140.0
5223,C1,369.0,0.5,95,140.0
5224,B2,369.0,0.5,95,140.0
5225,F#2,369.0,0.5,95,140.0
5226,B1,369.0,0.5,95,140.0
5227,E2,369.0,0.5,95,140.0
5228,F2,369.0,0.5,95,140.0
5229,C2,369.0,0.5,95,140.0
5230,B2,369.25,0.5,95,140.0
5231,F#2,369.25,0.5,95,140.0
5232,B1,369.25,0.5,95,140.0
5233,B0,369.5,0.5,95,140.0
5234,G2,369.5,0.5,95,140.0
5235,F2,369.5,0.5,95,140.0
5236,C2,369.5,0.5,95,140.0
5237,D1,370.0,1.0,95,140.0
5238,B2,370.0,0.5,95,140.0
5239,F#2,370.0,0.5,95,140.0
5240,B1,370.0,0.5,95,140.0
5241,C#3,370.0,1.0,95,140.0
5242,F2,370.0,1.0,95,140.0
5243,C2,370.0,1.0,95,140.0
5244,B2,370.5,0.5,95,140.0
5245,F#2,370.5,0.5,95,140.0
5246,B1,370.5,0.5,95,140.0
5247,D1,371.0,1.0,95,140.0
5248,B2,371.0,0.5,95,140.0
5249,F#2,371.0,0.5,95,140.0
5250,B1,371.0,0.5,95,140.0
5251,A3,371.0,1.0,95,140.0
5252,F2,371.0,1.0,95,140.0
5253,C2,371.0,1.0,95,140.0
5254,B2,371.5,0.5,95,140.0
5255,F#2,371.5,0.5,95,140.0
5256,B1,371.5,0.5,95,140.0
5257,C2,372.0,0.5,95,140.0
5258,B2,372.0,0.5,95,140.0
5259,F#2,372.0,0.5,95,140.0
5260,B1,372.0,0.5,95,140.0
5261,B0,372.25,0.5,95,140.0
5262,B2,372.5,0.5,95,140.0
5263,F#2,372.5,0.5,95,140.0
5264,B1,372.5,0.5,95,140.0
5265,B-2,372.5,0.5,95,140.0
5266,F2,372.5,0.5,95,140.0
5267,C2,372.5,0.5,95,140.0
5268,B0,373.0,0.5,95,140.0
5269,B-2,373.0,0.25,95,140.0
5270,C2,373.25,0.25,95,140.0
5271,B2,373.25,0.5,95,140.0
5272,F#2,373.25,0.5,95,140.0
5273,B1,373.25,0.5,95,140.0
5274,B-2,373.5,0.5,95,140.0
5275,B2,373.5,0.5,95,140.0
5276,F#2,373.5,0.5,95,140.0
5277,B1,373.5,0.5,95,140.0
5278,B0,373.75,0.5,95,140.0
5279,B2,374.0,0.5,95,140.0
5280,F#2,374.0,0.5,95,140.0
5281,B1,374.0,0.5,95,140.0
5282,B-2,374.0,0.5,95,140.0
5283,E2,374.0,0.5,95,140.0
5284,C2,374.0,0.5,95,140.0
5285,B2,374.25,0.5,95,140.0
5286,F#2,374.25,0.5,95,140.0
5287,B1,374.25,0.5,95,140.0
5288,B-2,374.5,0.5,95,140.0
5289,B-2,375.0,0.5,95,140.0
5290,C4,375.0,0.5,95,140.0
5291,B2,375.0,0.5,95,140.0
5292,F#2,375.0,0.5,95,140.0
5293,B1,375.0,0.5,95,140.0
5294,B0,375.5,0.5,95,140.0
5295,B2,375.5,0.5,95,140.0
5296,F#2,375.5,0.5,95,140.0
5297,B1,375.5,0.5,95,140.0
5298,B-2,375.5,0.5,95,140.0
5299,F2,375.5,0.5,95,140.0
5300,C2,375.5,0.5,95,140.0
5301,B0,376.0,0.5,95,140.0
5302,C3,376.0,0.5,95,140.0
5303,G2,376.0,0.5,95,140.0
5304,C2,376.0,0.5,95,140.0
5305,B-2,376.0,0.5,95,140.0
5306,F2,376.0,0.5,95,140.0
5307,C2,376.0,0.5,95,140.0
5308,B-2,376.5,0.5,95,140.0
5309,B2,376.5,0.5,95,140.0
5310,F#2,376.5,0.5,95,140.0
5311,B1,376.5,0.5,95,140.0
5312,B2,376.5,0.5,95,140.0
5313,F#2,376.5,0.5,95,140.0
5314,B1,376.5,0.5,95,140.0
5315,A2,377.0,2.0,95,140.0
5316,B-2,377.0,0.5,95,140.0
5317,C3,377.0,0.5,95,140.0
5318,G2,377.0,0.5,95,140.0
5319,C2,377.0,0.5,95,140.0
5320,D3,377.0,1.0,95,140.0
5321,D2,377.0,1.0,95,140.0
5322,B0,377.5,0.5,95,140.0
5323,B2,377.5,0.5,95,140.0
5324,F#2,377.5,0.5,95,140.0
5325,B1,377.5,0.5,95,140.0
5326,B-2,377.5,0.5,95,140.0
5327,F2,377.5,0.5,95,140.0
5328,C2,377.5,0.5,95,140.0
5329,A2,378.0,2.0,95,140.0
5330,D3,378.0,1.0,95,140.0
5331,B-2,378.0,0.25,95,140.0
5332,D3,378.0,1.0,95,140.0
5333,D2,378.0,1.0,95,140.0
5334,B0,378.25,0.5,95,140.0
5335,E2,378.25,0.25,95,140.0
5336,C2,378.25,0.25,95,140.0
5337,B-2,378.5,0.5,95,140.0
5338,C2,378.5,0.5,95,140.0
5339,D3,379.0,1.0,95,140.0
5340,D3,379.0,0.5,95,140.0
5341,A2,379.0,0.5,95,140.0
5342,B0,379.0,0.5,95,140.0
5343,B-2,379.0,0.5,95,140.0
5344,F2,379.0,0.5,95,140.0
5345,C2,379.0,0.5,95,140.0
5346,B-2,379.5,0.5,95,140.0
5347,B2,379.5,0.5,95,140.0
5348,F#2,379.5,0.5,95,140.0
5349,B1,379.5,0.5,95,140.0
5350,D3,380.0,0.5,95,140.0
5351,A2,380.0,0.5,95,140.0
5352,B-2,380.0,0.5,95,140.0
5353,B2,380.25,0.5,95,140.0
5354,F#2,380.25,0.5,95,140.0
5355,B1,380.25,0.5,95,140.0
5356,B0,380.5,0.5,95,140.0
5357,B2,380.5,0.5,95,140.0
5358,F#2,380.5,0.5,95,140.0
5359,B1,380.5,0.5,95,140.0
5360,B-2,380.5,0.5,95,140.0
5361,G2,380.5,0.5,95,140.0
5362,C2,380.5,0.5,95,140.0
5363,C1,381.0,0.5,95,140.0
5364,B2,381.0,0.5,95,140.0
5365,F#2,381.0,0.5,95,140.0
5366,B1,381.0,0.5,95,140.0
5367,B-2,381.0,0.5,95,140.0
5368,E2,381.0,0.5,95,140.0
5369,C2,381.0,0.5,95,140.0
5370,B2,381.25,0.5,95,140.0
5371,F#2,381.25,0.5,95,140.0
5372,B1,381.25,0.5,95,140.0
5373,B0,381.5,0.5,95,140.0
5374,B-2,381.5,0.25,95,140.0
5375,F2,381.5,0.25,95,140.0
5376,C2,381.5,0.25,95,140.0
5377,F2,381.75,0.25,95,140.0
5378,D1,382.0,1.0,95,140.0
5379,B2,382.0,0.5,95,140.0
5380,F#2,382.0,0.5,95,140.0
5381,B1,382.0,0.5,95,140.0
5382,C#3,382.0,0.5,95,140.0
5383,F2,382.0,0.5,95,140.0
5384,C2,382.0,0.5,95,140.0
5385,B-2,382.5,0.5,95,140.0
5386,B2,382.5,0.5,95,140.0
5387,F#2,382.5,0.5,95,140.0
5388,B1,382.5,0.5,95,140.0
5389,A1,383.0,1.0,95,140.0
5390,B2,383.0,0.5,95,140.0
5391,F#2,383.0,0.5,95,140.0
5392,B1,383.0,0.5,95,140.0
5393,A3,383.0,0.5,95,140.0
5394,C2,383.0,0.5,95,140.0
5395,B-2,383.5,0.25,95,140.0
5396,B2,383.5,0.5,95,140.0
5397,F#2,383.5,0.5,95,140.0
5398,B1,383.5,0.5,95,140.0
5399,C2,383.75,0.25,95,140.0
5400,B-2,384.0,0.5,95,140.0
5401,B2,384.0,0.5,95,140.0
5402,F#2,384.0,0.5,95,140.0
5403,B1,384.0,0.5,95,140.0
5404,B0,384.5,0.5,95,140.0
5405,B2,384.5,0.5,95,140.0
5406,F#2,384.5,0.5,95,140.0
5407,B1,384.5,0.5,95,140.0
5408,B-2,384.5,0.5,95,140.0
5409,F2,384.5,0.5,95,140.0
5410,C2,384.5,0.5,95,140.0
5411,B-2,385.0,0.25,95,140.0
5412,B0,385.25,0.5,95,140.0
5413,B2,385.25,0.5,95,140.0
5414,F#2,385.25,0.5,95,140.0
5415,B1,385.25,0.5,95,140.0
5416,F2,385.25,0.25,95,140.0
5417,C2,385.25,0.25,95,140.0
5418,B-2,385.5,0.5,95,140.0
5419,B2,385.5,0.5,95,140.0
5420,F#2,385.5,0.5,95,140.0
5421,B1,385.5,0.5,95,140.0
5422,B0,386.0,0.5,95,140.0
5423,B2,386.0,0.5,95,140.0
5424,F#2,386.0,0.5,95,140.0
5425,B1,386.0,0.5,95,140.0
5426,B-2,386.0,0.5,95,140.0
5427,E2,386.0,0.5,95,140.0
5428,C2,386.0,0.5,95,140.0
5429,B2,386.25,0.5,95,140.0
5430,F#2,386.25,0.5,95,140.0
5431,B1,386.25,0.5,95,140.0
5432,B-2,386.5,0.5,95,140.0
5433,B-2,387.0,0.5,95,140.0
5434,C4,387.0,0.5,95,140.0
5435,B2,387.0,0.5,95,140.0
5436,F#2,387.0,0.5,95,140.0
5437,B1,387.0,0.5,95,140.0
5438,B0,387.5,0.5,95,140.0
5439,B2,387.5,0.5,95,140.0
5440,F#2,387.5,0.5,95,140.0
5441,B1,387.5,0.5,95,140.0
5442,B-2,387.5,0.5,95,140.0
5443,F2,387.5,0.5,95,140.0
5444,C2,387.5,0.5,95,140.0
5445,B0,388.0,0.5,95,140.0
5446,C3,388.0,0.5,95,140.0
5447,G2,388.0,0.5,95,140.0
5448,C2,388.0,0.5,95,140.0
5449,B-2,388.0,0.5,95,140.0
5450,F2,388.0,0.5,95,140.0
5451,C2,388.0,0.5,95,140.0
5452,B-2,388.5,0.5,95,140.0
5453,B2,388.5,0.5,95,140.0
5454,F#2,388.5,0.5,95,140.0
5455,B1,388.5,0.5,95,140.0
5456,B2,388.5,0.5,95,140.0
5457,F#2,388.5,0.5,95,140.0
5458,B1,388.5,0.5,95,140.0
5459,B-2,389.0,0.5,95,140.0
5460,C3,389.0,0.5,95,140.0
5461,G2,389.0,0.5,95,140.0
5462,C2,389.0,0.5,95,140.0
5463,D3,389.0,1.0,95,140.0
5464,A2,389.0,1.0,95,140.0
5465,B0,389.5,0.5,95,140.0
5466,B2,389.5,0.5,95,140.0
5467,F#2,389.5,0.5,95,140.0
5468,B1,389.5,0.5,95,140.0
5469,B-2,389.5,0.5,95,140.0
5470,F2,389.5,0.5,95,140.0
5471,C2,389.5,0.5,95,140.0
5472,A4,390.0,1.0,95,140.0
5473,B-2,390.0,0.25,95,140.0
5474,D3,390.0,1.0,95,140.0
5475,A2,390.0,1.0,95,140.0
5476,B0,390.25,0.5,95,140.0
5477,E2,390.25,0.25,95,140.0
5478,C2,390.25,0.25,95,140.0
5479,B-2,390.5,0.5,95,140.0
5480,C2,390.5,0.5,95,140.0
5481,A4,391.0,1.0,95,140.0
5482,A4,391.0,0.5,95,140.0
5483,B0,391.0,0.5,95,140.0
5484,B-2,391.0,0.5,95,140.0
5485,F2,391.0,0.5,95,140.0
5486,C2,391.0,0.5,95,140.0
5487,B-2,391.5,0.5,95,140.0
5488,B2,391.5,0.5,95,140.0
5489,F#2,391.5,0.5,95,140.0
5490,B1,391.5,0.5,95,140.0
5491,A4,392.0,0.5,95,140.0
5492,B-2,392.0,0.5,95,140.0
5493,B2,392.25,0.5,95,140.0
5494,F#2,392.25,0.5,95,140.0
5495,B1,392.25,0.5,95,140.0
5496,B0,392.5,0.5,95,140.0
5497,B-2,392.5,0.5,95,140.0
5498,B2,392.5,0.5,95,140.0
5499,F#2,392.5,0.5,95,140.0
5500,B1,392.5,0.5,95,140.0
5501,C1,393.0,0.5,95,140.0
5502,B-2,393.0,0.5,95,140.0
5503,B2,393.0,0.5,95,140.0
5504,F#2,393.0,0.5,95,140.0
5505,B1,393.0,0.5,95,140.0
5506,B2,393.25,0.5,95,140.0
5507,F#2,393.25,0.5,95,140.0
5508,B1,393.25,0.5,95,140.0
5509,B0,393.5,0.5,95,140.0
5510,F2,393.5,0.25,95,140.0
5511,C2,393.5,0.25,95,140.0
5512,C2,393.75,0.25,95,140.0
5513,D1,394.0,1.0,95,140.0
5514,B2,394.0,0.5,95,140.0
5515,F#2,394.0,0.5,95,140.0
5516,B1,394.0,0.5,95,140.0
5517,E2,394.0,0.5,95,140.0
5518,F2,394.0,0.5,95,140.0
5519,C2,394.0,0.5,95,140.0
5520,E2,394.5,0.25,95,140.0
5521,B2,394.5,0.5,95,140.0
5522,F#2,394.5,0.5,95,140.0
5523,B1,394.5,0.5,95,140.0
5524,E2,394.75,0.5,95,140.0
5525,D1,395.0,1.0,95,140.0
5526,B2,395.0,0.5,95,140.0
5527,F#2,395.0,0.5,95,140.0
5528,B1,395.0,0.5,95,140.0
5529,E2,395.25,0.25,95,140.0
5530,E2,395.5,0.5,95,140.0
5531,B2,395.5,0.5,95,140.0
5532,F#2,395.5,0.5,95,140.0
5533,B1,395.5,0.5,95,140.0
5534,E2,396.0,0.5,95,140.0
5535,B2,396.0,0.5,95,140.0
5536,F#2,396.0,0.5,95,140.0
5537,B1,396.0,0.5,95,140.0
5538,C1,396.25,0.5,95,140.0
5539,B2,396.5,0.5,95,140.0
5540,F#2,396.5,0.5,95,140.0
5541,B1,396.5,0.5,95,140.0
5542,B-2,396.5,0.5,95,140.0
5543,F2,396.5,0.5,95,140.0
5544,C2,396.5,0.5,95,140.0
5545,C1,397.0,0.5,95,140.0
5546,B-2,397.0,0.25,95,140.0
5547,E2,397.0,0.25,95,140.0
5548,B2,397.25,0.5,95,140.0
5549,F#2,397.25,0.5,95,140.0
5550,B1,397.25,0.5,95,140.0
5551,F2,397.25,0.25,95,140.0
5552,C2,397.25,0.25,95,140.0
5553,B-2,397.5,0.5,95,140.0
5554,B2,397.5,0.5,95,140.0
5555,F#2,397.5,0.5,95,140.0
5556,B1,397.5,0.5,95,140.0
5557,C1,397.75,0.5,95,140.0
5558,B2,398.0,0.5,95,140.0
5559,F#2,398.0,0.5,95,140.0
5560,B1,398.0,0.5,95,140.0
5561,B-2,398.0,0.5,95,140.0
5562,F2,398.0,0.5,95,140.0
5563,C2,398.0,0.5,95,140.0
5564,B2,398.25,0.5,95,140.0
5565,F#2,398.25,0.5,95,140.0
5566,B1,398.25,0.5,95,140.0
5567,B-2,398.5,0.5,95,140.0
5568,C4,399.0,0.5,95,140.0
5569,B2,399.0,0.5,95,140.0
5570,F#2,399.0,0.5,95,140.0
5571,B1,399.0,0.5,95,140.0
5572,B-2,399.0,0.5,95,140.0
5573,E2,399.0,0.5,95,140.0
5574,C1,399.5,0.5,95,140.0
5575,B2,399.5,0.5,95,140.0
5576,F#2,399.5,0.5,95,140.0
5577,B1,399.5,0.5,95,140.0
5578,B-2,399.5,0.25,95,140.0
5579,F2,399.5,0.25,95,140.0
5580,C2,399.5,0.25,95,140.0
5581,C2,399.75,0.25,95,140.0
5582,C1,400.0,0.5,95,140.0
5583,C3,400.0,0.5,95,140.0
5584,G2,400.0,0.5,95,140.0
5585,C2,400.0,0.5,95,140.0
5586,B-2,400.0,0.25,95,140.0
5587,F2,400.0,0.25,95,140.0
5588,C2,400.0,0.25,95,140.0
5589,C2,400.25,0.25,95,140.0
5590,B-2,400.5,0.5,95,140.0
5591,B2,400.5,0.5,95,140.0
5592,F#2,400.5,0.5,95,140.0
5593,B1,400.5,0.5,95,140.0
5594,B2,400.5,0.5,95,140.0
5595,F#2,400.5,0.5,95,140.0
5596,B1,400.5,0.5,95,140.0
5597,C3,401.0,0.5,95,140.0
5598,G2,401.0,0.5,95,140.0
5599,C2,401.0,0.5,95,140.0
5600,D3,401.0,1.0,95,140.0
5601,A2,401.0,1.0,95,140.0
5602,D2,401.0,1.0,95,140.0
5603,B-2,401.0,0.5,95,140.0
5604,E2,401.0,0.5,95,140.0
5605,C1,401.5,0.5,95,140.0
5606,B2,401.5,0.5,95,140.0
5607,F#2,401.5,0.5,95,140.0
5608,B1,401.5,0.5,95,140.0
5609,B-2,401.5,0.5,95,140.0
5610,F2,401.5,0.5,95,140.0
5611,C2,401.5,0.5,95,140.0
5612,D3,402.0,1.0,95,140.0
5613,B-2,402.0,0.25,95,140.0
5614,D3,402.0,1.0,95,140.0
5615,A2,402.0,1.0,95,140.0
5616,D2,402.0,1.0,95,140.0
5617,C1,402.25,0.5,95,140.0
5618,F2,402.25,0.25,95,140.0
5619,C2,402.25,0.25,95,140.0
5620,B-2,402.5,0.5,95,140.0
5621,D3,403.0,1.0,95,140.0
5622,D3,403.0,0.5,95,140.0
5623,C1,403.0,0.5,95,140.0
5624,B-2,403.0,0.5,95,140.0
5625,E2,403.0,0.5,95,140.0
5626,C2,403.0,0.5,95,140.0
5627,B-2,403.5,0.5,95,140.0
5628,C3,403.5,0.5,95,140.0
5629,G2,403.5,0.5,95,140.0
5630,C2,403.5,0.5,95,140.0
5631,D3,404.0,0.5,95,140.0
5632,B-2,404.0,0.5,95,140.0
5633,C3,404.25,0.5,95,140.0
5634,G2,404.25,0.5,95,140.0
5635,C2,404.25,0.5,95,140.0
5636,B0,404.5,0.5,95,140.0
5637,C3,404.5,0.5,95,140.0
5638,G2,404.5,0.5,95,140.0
5639,C2,404.5,0.5,95,140.0
5640,B-2,404.5,0.5,95,140.0
5641,F2,404.5,0.5,95,140.0
5642,C2,404.5,0.5,95,140.0
5643,C1,405.0,0.5,95,140.0
5644,C3,405.0,0.5,95,140.0
5645,G2,405.0,0.5,95,140.0
5646,C2,405.0,0.5,95,140.0
5647,B-2,405.0,0.5,95,140.0
5648,E2,405.0,0.5,95,140.0
5649,C2,405.0,0.5,95,140.0
5650,C3,405.25,0.5,95,140.0
5651,G2,405.25,0.5,95,140.0
5652,C2,405.25,0.5,95,140.0
5653,B0,405.5,0.5,95,140.0
5654,B-2,405.5,0.25,95,140.0
5655,E2,405.5,0.25,95,140.0
5656,C2,405.5,0.25,95,140.0
5657,E2,405.75,0.25,95,140.0
5658,D1,406.0,1.0,95,140.0
5659,C3,406.0,0.5,95,140.0
5660,G2,406.0,0.5,95,140.0
5661,C2,406.0,0.5,95,140.0
5662,B-2,406.0,0.5,95,140.0
5663,F2,406.0,0.5,95,140.0
5664,C2,406.0,0.5,95,140.0
5665,B-2,406.5,0.5,95,140.0
5666,C3,406.5,0.5,95,140.0
5667,G2,406.5,0.5,95,140.0
5668,C2,406.5,0.5,95,140.0
5669,A1,407.0,1.0,95,140.0
5670,C3,407.0,0.5,95,140.0
5671,G2,407.0,0.5,95,140.0
5672,C2,407.0,0.5,95,140.0
5673,B-2,407.0,0.5,95,140.0
5674,E2,407.0,0.5,95,140.0
5675,B-2,407.5,0.5,95,140.0
5676,C3,407.5,0.5,95,140.0
5677,G2,407.5,0.5,95,140.0
5678,C2,407.5,0.5,95,140.0
5679,C3,408.0,0.5,95,140.0
5680,G2,408.0,0.5,95,140.0
5681,C2,408.0,0.5,95,140.0
5682,B-2,408.0,0.5,95,140.0
5683,C2,408.0,0.5,95,140.0
5684,C1,408.5,0.5,95,140.0
5685,C3,408.5,0.5,95,140.0
5686,G2,408.5,0.5,95,140.0
5687,C2,408.5,0.5,95,140.0
5688,B-2,408.5,0.5,95,140.0
5689,F2,408.5,0.5,95,140.0
5690,C2,408.5,0.5,95,140.0
5691,B-2,409.0,0.25,95,140.0
5692,E2,409.0,0.25,95,140.0
5693,C1,409.25,0.5,95,140.0
5694,C3,409.25,0.5,95,140.0
5695,G2,409.25,0.5,95,140.0
5696,C2,409.25,0.5,95,140.0
5697,F2,409.25,0.25,95,140.0
5698,C2,409.25,0.25,95,140.0
5699,B-2,409.5,0.5,95,140.0
5700,C3,409.5,0.5,95,140.0
5701,G2,409.5,0.5,95,140.0
5702,C2,409.5,0.5,95,140.0
5703,C1,410.0,0.5,95,140.0
5704,C3,410.0,0.5,95,140.0
5705,G2,410.0,0.5,95,140.0
5706,C2,410.0,0.5,95,140.0
5707,B-2,410.0,0.5,95,140.0
5708,F2,410.0,0.5,95,140.0
5709,C2,410.0,0.5,95,140.0
5710,C3,410.25,0.5,95,140.0
5711,G2,410.25,0.5,95,140.0
5712,C2,410.25,0.5,95,140.0
5713,B-2,410.5,0.5,95,140.0
5714,C4,411.0,0.5,95,140.0
5715,C3,411.0,0.5,95,140.0
5716,G2,411.0,0.5,95,140.0
5717,C2,411.0,0.5,95,140.0
5718,B-2,411.0,0.5,95,140.0
5719,E2,411.0,0.5,95,140.0
5720,C1,411.5,0.5,95,140.0
5721,B2,411.5,0.5,95,140.0
5722,F#2,411.5,0.5,95,140.0
5723,B1,411.5,0.5,95,140.0
5724,B-2,411.5,0.25,95,140.0
5725,F2,411.5,0.25,95,140.0
5726,C2,411.5,0.25,95,140.0
5727,C2,411.75,0.25,95,140.0
5728,C1,412.0,0.5,95,140.0
5729,C3,412.0,0.5,95,140.0
5730,G2,412.0,0.5,95,140.0
5731,C2,412.0,0.5,95,140.0
5732,B-2,412.0,0.25,95,140.0
5733,F2,412.0,0.25,95,140.0
5734,C2,412.0,0.25,95,140.0
5735,C2,412.25,0.25,95,140.0
5736,B-2,412.5,0.5,95,140.0
5737,B2,412.5,0.5,95,140.0
5738,F#2,412.5,0.5,95,140.0
5739,B1,412.5,0.5,95,140.0
5740,B2,412.5,0.5,95,140.0
5741,F#2,412.5,0.5,95,140.0
5742,B1,412.5,0.5,95,140.0
5743,C3,413.0,0.5,95,140.0
5744,G2,413.0,0.5,95,140.0
5745,C2,413.0,0.5,95,140.0
5746,D3,413.0,1.0,95,140.0
5747,A2,413.0,1.0,95,140.0
5748,D2,413.0,1.0,95,140.0
5749,B-2,413.0,0.5,95,140.0
5750,E2,413.0,0.5,95,140.0
5751,C1,413.5,0.5,95,140.0
5752,B2,413.5,0.5,95,140.0
5753,F#2,413.5,0.5,95,140.0
5754,B1,413.5,0.5,95,140.0
5755,B-2,413.5,0.5,95,140.0
5756,F2,413.5,0.5,95,140.0
5757,C2,413.5,0.5,95,140.0
5758,A4,414.0,1.0,95,140.0
5759,B-2,414.0,0.25,95,140.0
5760,D3,414.0,1.0,95,140.0
5761,A2,414.0,1.0,95,140.0
5762,D2,414.0,1.0,95,140.0
5763,C1,414.25,0.5,95,140.0
5764,F2,414.25,0.25,95,140.0
5765,C2,414.25,0.25,95,140.0
5766,B-2,414.5,0.5,95,140.0
5767,A4,415.0,1.0,95,140.0
5768,A4,415.0,0.5,95,140.0
5769,C1,415.0,0.5,95,140.0
5770,B-2,415.0,0.5,95,140.0
5771,E2,415.0,0.5,95,140.0
5772,C2,415.0,0.5,95,140.0
5773,B-2,415.5,0.5,95,140.0
5774,C3,415.5,0.5,95,140.0
5775,G2,415.5,0.5,95,140.0
5776,C2,415.5,0.5,95,140.0
5777,A4,416.0,0.5,95,140.0
5778,B-2,416.0,0.5,95,140.0
5779,C3,416.25,0.5,95,140.0
5780,G2,416.25,0.5,95,140.0
5781,C2,416.25,0.5,95,140.0
5782,B0,416.5,0.5,95,140.0
5783,C3,416.5,0.5,95,140.0
5784,G2,416.5,0.5,95,140.0
5785,C2,416.5,0.5,95,140.0
5786,B-2,416.5,0.5,95,140.0
5787,F2,416.5,0.5,95,140.0
5788,C2,416.5,0.5,95,140.0
5789,C1,417.0,0.5,95,140.0
5790,C3,417.0,0.5,95,140.0
5791,G2,417.0,0.5,95,140.0
5792,C2,417.0,0.5,95,140.0
5793,B-2,417.0,0.5,95,140.0
5794,E2,417.0,0.5,95,140.0
5795,C2,417.0,0.5,95,140.0
5796,C3,417.25,0.5,95,140.0
5797,G2,417.25,0.5,95,140.0
5798,C2,417.25,0.5,95,140.0
5799,B0,417.5,0.5,95,140.0
5800,B-2,417.5,0.25,95,140.0
5801,E2,417.5,0.25,95,140.0
5802,C2,417.5,0.25,95,140.0
5803,E2,417.75,0.25,95,140.0
5804,D1,418.0,1.0,95,140.0
5805,C3,418.0,0.5,95,140.0
5806,G2,418.0,0.5,95,140.0
5807,C2,418.0,0.5,95,140.0
5808,B-2,418.0,0.5,95,140.0
5809,F2,418.0,0.5,95,140.0
5810,C2,418.0,0.5,95,140.0
5811,B-2,418.5,0.5,95,140.0
5812,C3,418.5,0.5,95,140.0
5813,G2,418.5,0.5,95,140.0
5814,C2,418.5,0.5,95,140.0
5815,D1,419.0,1.0,95,140.0
5816,C3,419.0,0.5,95,140.0
5817,G2,419.0,0.5,95,140.0
5818,C2,419.0,0.5,95,140.0
5819,B-2,419.0,0.5,95,140.0
5820,E2,419.0,0.5,95,140.0
5821,B-2,419.5,0.5,95,140.0
5822,C3,419.5,0.5,95,140.0
5823,G2,419.5,0.5,95,140.0
5824,C2,419.5,0.5,95,140.0
5825,C3,420.0,0.5,95,140.0
5826,G2,420.0,0.5,95,140.0
5827,C2,420.0,0.5,95,140.0
5828,B-2,420.0,0.5,95,140.0
5829,C2,420.0,0.5,95,140.0
5830,C1,420.25,0.5,95,140.0
5831,C3,420.5,0.5,95,140.0
5832,G2,420.5,0.5,95,140.0
5833,C2,420.5,0.5,95,140.0
5834,B-2,420.5,0.5,95,140.0
5835,F2,420.5,0.5,95,140.0
5836,C2,420.5,0.5,95,140.0
5837,C1,421.0,0.5,95,140.0
5838,B-2,421.0,0.25,95,140.0
5839,E2,421.0,0.25,95,140.0
5840,C3,421.25,0.5,95,140.0
5841,G2,421.25,0.5,95,140.0
5842,C2,421.25,0.5,95,140.0
5843,F2,421.25,0.25,95,140.0
5844,C2,421.25,0.25,95,140.0
5845,B-2,421.5,0.5,95,140.0
5846,C3,421.5,0.5,95,140.0
5847,G2,421.5,0.5,95,140.0
5848,C2,421.5,0.5,95,140.0
5849,C1,421.75,0.5,95,140.0
5850,C3,422.0,0.5,95,140.0
5851,G2,422.0,0.5,95,140.0
5852,C2,422.0,0.5,95,140.0
5853,B-2,422.0,0.5,95,140.0
5854,F2,422.0,0.5,95,140.0
5855,C2,422.0,0.5,95,140.0
5856,C3,422.25,0.5,95,140.0
5857,G2,422.25,0.5,95,140.0
5858,C2,422.25,0.5,95,140.0
5859,B-2,422.5,0.5,95,140.0
5860,C4,423.0,0.5,95,140.0
5861,C3,423.0,0.5,95,140.0
5862,G2,423.0,0.5,95,140.0
5863,C2,423.0,0.5,95,140.0
5864,B-2,423.0,0.5,95,140.0
5865,E2,423.0,0.5,95,140.0
5866,C1,423.5,0.5,95,140.0
5867,B2,423.5,0.5,95,140.0
5868,F#2,423.5,0.5,95,140.0
5869,B1,423.5,0.5,95,140.0
5870,B-2,423.5,0.25,95,140.0
5871,F2,423.5,0.25,95,140.0
5872,C2,423.5,0.25,95,140.0
5873,C2,423.75,0.25,95,140.0
5874,C1,424.0,0.5,95,140.0
5875,C3,424.0,0.5,95,140.0
5876,G2,424.0,0.5,95,140.0
5877,C2,424.0,0.5,95,140.0
5878,B-2,424.0,0.25,95,140.0
5879,F2,424.0,0.25,95,140.0
5880,C2,424.0,0.25,95,140.0
5881,C2,424.25,0.25,95,140.0
5882,B-2,424.5,0.5,95,140.0
5883,B2,424.5,0.5,95,140.0
5884,F#2,424.5,0.5,95,140.0
5885,B1,424.5,0.5,95,140.0
5886,B2,424.5,0.5,95,140.0
5887,F#2,424.5,0.5,95,140.0
5888,B1,424.5,0.5,95,140.0
5889,D2,425.0,2.0,95,140.0
5890,C3,425.0,0.5,95,140.0
5891,G2,425.0,0.5,95,140.0
5892,C2,425.0,0.5,95,140.0
5893,D3,425.0,1.0,95,140.0
5894,A2,425.0,1.0,95,140.0
5895,B-2,425.0,0.5,95,140.0
5896,E2,425.0,0.5,95,140.0
5897,C1,425.5,0.5,95,140.0
5898,B2,425.5,0.5,95,140.0
5899,F#2,425.5,0.5,95,140.0
5900,B1,425.5,0.5,95,140.0
5901,B-2,425.5,0.5,95,140.0
5902,F2,425.5,0.5,95,140.0
5903,C2,425.5,0.5,95,140.0
5904,D2,426.0,2.0,95,140.0
5905,A4,426.0,1.0,95,140.0
5906,B-2,426.0,0.25,95,140.0
5907,D3,426.0,1.0,95,140.0
5908,A2,426.0,1.0,95,140.0
5909,C1,426.25,0.5,95,140.0
5910,F2,426.25,0.25,95,140.0
5911,C2,426.25,0.25,95,140.0
5912,B-2,426.5,0.25,95,140.0
5913,C2,426.75,0.25,95,140.0
5914,A4,427.0,1.0,95,140.0
5915,D2,427.0,0.5,95,140.0
5916,C1,427.0,0.5,95,140.0
5917,B-2,427.0,0.25,95,140.0
5918,E2,427.0,0.25,95,140.0
5919,C2,427.0,0.25,95,140.0
5920,C2,427.25,0.25,95,140.0
5921,C3,427.5,0.5,95,140.0
5922,G2,427.5,0.5,95,140.0
5923,C2,427.5,0.5,95,140.0
5924,B-2,427.5,0.25,95,140.0
5925,C2,427.5,0.25,95,140.0
5926,C2,427.75,0.25,95,140.0
5927,D2,428.0,0.5,95,140.0
5928,B-2,428.0,0.25,95,140.0
5929,C2,428.0,0.25,95,140.0
5930,C2,428.25,0.25,95,140.0
5931,C3,428.25,0.5,95,140.0
5932,G2,428.25,0.5,95,140.0
5933,C2,428.25,0.5,95,140.0
5934,B0,428.5,0.5,95,140.0
5935,C3,428.5,0.5,95,140.0
5936,G2,428.5,0.5,95,140.0
5937,C2,428.5,0.5,95,140.0
5938,B-2,428.5,0.5,95,140.0
5939,F2,428.5,0.5,95,140.0
5940,C2,428.5,0.5,95,140.0
5941,C1,429.0,0.5,95,140.0
5942,C3,429.0,0.5,95,140.0
5943,G2,429.0,0.5,95,140.0
5944,C2,429.0,0.5,95,140.0
5945,B-2,429.0,0.5,95,140.0
5946,E2,429.0,0.5,95,140.0
5947,F2,429.0,0.5,95,140.0
5948,C3,429.25,0.5,95,140.0
5949,G2,429.25,0.5,95,140.0
5950,C2,429.25,0.5,95,140.0
5951,B0,429.5,0.5,95,140.0
5952,B-2,429.5,0.25,95,140.0
5953,E2,429.5,0.25,95,140.0
5954,F2,429.5,0.25,95,140.0
5955,E2,429.75,0.25,95,140.0
5956,D1,430.0,1.0,95,140.0
5957,C3,430.0,0.5,95,140.0
5958,G2,430.0,0.5,95,140.0
5959,C2,430.0,0.5,95,140.0
5960,B-2,430.0,0.5,95,140.0
5961,F2,430.0,0.5,95,140.0
5962,C2,430.0,0.5,95,140.0
5963,B-2,430.5,0.5,95,140.0
5964,C3,430.5,0.5,95,140.0
5965,G2,430.5,0.5,95,140.0
5966,C2,430.5,0.5,95,140.0
5967,A1,431.0,1.0,95,140.0
5968,C3,431.0,0.5,95,140.0
5969,G2,431.0,0.5,95,140.0
5970,C2,431.0,0.5,95,140.0
5971,B-2,431.0,0.5,95,140.0
5972,E2,431.0,0.5,95,140.0
5973,C3,431.5,0.5,95,140.0
5974,G2,431.5,0.5,95,140.0
5975,C2,431.5,0.5,95,140.0
5976,B-2,431.5,0.5,95,140.0
5977,C2,431.5,0.5,95,140.0
5978,B-2,432.0,0.25,95,140.0
5979,C3,432.0,0.5,95,140.0
5980,G2,432.0,0.5,95,140.0
5981,C2,432.0,0.5,95,140.0
5982,C2,432.25,0.25,95,140.0
5983,C1,432.5,0.5,95,140.0
5984,C3,432.5,0.5,95,140.0
5985,G2,432.5,0.5,95,140.0
5986,C2,432.5,0.5,95,140.0
5987,B-2,432.5,0.5,95,140.0
5988,F2,432.5,0.5,95,140.0
5989,C2,432.5,0.5,95,140.0
5990,B-2,433.0,0.25,95,140.0
5991,E2,433.0,0.25,95,140.0
5992,C1,433.25,0.5,95,140.0
5993,C3,433.25,0.5,95,140.0
5994,G2,433.25,0.5,95,140.0
5995,C2,433.25,0.5,95,140.0
5996,F2,433.25,0.25,95,140.0
5997,C2,433.25,0.25,95,140.0
5998,B-2,433.5,0.5,95,140.0
5999,C3,433.5,0.5,95,140.0
6000,G2,433.5,0.5,95,140.0
6001,C2,433.5,0.5,95,140.0
6002,C1,434.0,0.5,95,140.0
6003,C3,434.0,0.5,95,140.0
6004,G2,434.0,0.5,95,140.0
6005,C2,434.0,0.5,95,140.0
6006,B-2,434.0,0.5,95,140.0
6007,F2,434.0,0.5,95,140.0
6008,C2,434.0,0.5,95,140.0
6009,C3,434.25,0.5,95,140.0
6010,G2,434.25,0.5,95,140.0
6011,C2,434.25,0.5,95,140.0
6012,B-2,434.5,0.25,95,140.0
6013,C2,434.75,0.25,95,140.0
6014,C4,435.0,0.5,95,140.0
6015,C3,435.0,0.5,95,140.0
6016,G2,435.0,0.5,95,140.0
6017,C2,435.0,0.5,95,140.0
6018,B-2,435.0,0.25,95,140.0
6019,E2,435.0,0.25,95,140.0
6020,C2,435.0,0.25,95,140.0
6021,C2,435.25,0.25,95,140.0
6022,C1,435.5,0.5,95,140.0
6023,B2,435.5,0.5,95,140.0
6024,F#2,435.5,0.5,95,140.0
6025,B1,435.5,0.5,95,140.0
6026,B-2,435.5,0.25,95,140.0
6027,F2,435.5,0.25,95,140.0
6028,E2,435.5,0.25,95,140.0
6029,C2,435.75,0.25,95,140.0
6030,C1,436.0,0.5,95,140.0
6031,C3,436.0,0.5,95,140.0
6032,G2,436.0,0.5,95,140.0
6033,C2,436.0,0.5,95,140.0
6034,B-2,436.0,0.25,95,140.0
6035,F2,436.0,0.25,95,140.0
6036,C2,436.0,0.25,95,140.0
6037,C2,436.25,0.25,95,140.0
6038,B-2,436.5,0.5,95,140.0
6039,B2,436.5,0.5,95,140.0
6040,F#2,436.5,0.5,95,140.0
6041,B1,436.5,0.5,95,140.0
6042,B2,436.5,0.5,95,140.0
6043,F#2,436.5,0.5,95,140.0
6044,B1,436.5,0.5,95,140.0
6045,C3,437.0,0.5,95,140.0
6046,G2,437.0,0.5,95,140.0
6047,C2,437.0,0.5,95,140.0
6048,D3,437.0,1.0,95,140.0
6049,A2,437.0,1.0,95,140.0
6050,D2,437.0,1.0,95,140.0
6051,B-2,437.0,0.5,95,140.0
6052,E2,437.0,0.5,95,140.0
6053,C1,437.5,0.5,95,140.0
6054,B2,437.5,0.5,95,140.0
6055,F#2,437.5,0.5,95,140.0
6056,B1,437.5,0.5,95,140.0
6057,B-2,437.5,0.5,95,140.0
6058,F2,437.5,0.5,95,140.0
6059,C2,437.5,0.5,95,140.0
6060,A4,438.0,1.0,95,140.0
6061,B-2,438.0,0.25,95,140.0
6062,D3,438.0,1.0,95,140.0
6063,A2,438.0,1.0,95,140.0
6064,D2,438.0,1.0,95,140.0
6065,C1,438.25,0.5,95,140.0
6066,F2,438.25,0.25,95,140.0
6067,C2,438.25,0.25,95,140.0
6068,B-2,438.5,0.5,95,140.0
6069,A4,439.0,1.0,95,140.0
6070,A4,439.0,0.5,95,140.0
6071,C1,439.0,0.5,95,140.0
6072,B-2,439.0,0.5,95,140.0
6073,E2,439.0,0.5,95,140.0
6074,C2,439.0,0.5,95,140.0
6075,B-2,439.5,0.5,95,140.0
6076,C3,439.5,0.5,95,140.0
6077,G2,439.5,0.5,95,140.0
6078,C2,439.5,0.5,95,140.0
6079,A4,440.0,0.5,95,140.0
6080,B-2,440.0,0.5,95,140.0
6081,C3,440.25,0.5,95,140.0
6082,G2,440.25,0.5,95,140.0
6083,C2,440.25,0.5,95,140.0
6084,B0,440.5,0.5,95,140.0
6085,C3,440.5,0.5,95,140.0
6086,G2,440.5,0.5,95,140.0
6087,C2,440.5,0.5,95,140.0
6088,B-2,440.5,0.25,95,140.0
6089,F2,440.5,0.25,95,140.0
6090,C2,440.5,0.25,95,140.0
6091,C2,440.75,0.25,95,140.0
6092,C1,441.0,0.5,95,140.0
6093,C3,441.0,0.5,95,140.0
6094,G2,441.0,0.5,95,140.0
6095,C2,441.0,0.5,95,140.0
6096,B-2,441.0,0.25,95,140.0
6097,E2,441.0,0.25,95,140.0
6098,C2,441.0,0.25,95,140.0
6099,C2,441.25,0.25,95,140.0
6100,C3,441.25,0.5,95,140.0
6101,G2,441.25,0.5,95,140.0
6102,C2,441.25,0.5,95,140.0
6103,B0,441.5,0.5,95,140.0
6104,B-2,441.5,0.25,95,140.0
6105,E2,441.5,0.25,95,140.0
6106,C2,441.5,0.25,95,140.0
6107,E2,441.75,0.25,95,140.0
6108,D1,442.0,1.0,95,140.0
6109,C3,442.0,0.5,95,140.0
6110,G2,442.0,0.5,95,140.0
6111,C2,442.0,0.5,95,140.0
6112,B-2,442.0,0.5,95,140.0
6113,F2,442.0,0.5,95,140.0
6114,C2,442.0,0.5,95,140.0
6115,C3,442.5,0.5,95,140.0
6116,G2,442.5,0.5,95,140.0
6117,C2,442.5,0.5,95,140.0
6118,B-2,442.5,0.5,95,140.0
6119,C2,442.5,0.5,95,140.0
6120,D1,443.0,1.0,95,140.0
6121,C3,443.0,0.5,95,140.0
6122,G2,443.0,0.5,95,140.0
6123,C2,443.0,0.5,95,140.0
6124,B-2,443.0,0.5,95,140.0
6125,E2,443.0,0.5,95,140.0
6126,C3,443.5,0.5,95,140.0
6127,G2,443.5,0.5,95,140.0
6128,C2,443.5,0.5,95,140.0
6129,B-2,443.5,0.5,95,140.0
6130,C2,443.5,0.5,95,140.0
6131,D1,444.0,0.5,95,140.0
6132,C3,444.0,0.5,95,140.0
6133,G2,444.0,0.5,95,140.0
6134,C2,444.0,0.5,95,140.0
6135,A3,444.0,0.5,95,140.0
6136,C2,444.0,0.5,95,140.0
6137,D1,444.5,0.5,95,140.0
6138,C3,444.5,0.5,95,140.0
6139,G2,444.5,0.5,95,140.0
6140,C2,444.5,0.5,95,140.0
6141,A3,444.5,0.5,95,140.0
6142,C2,444.5,0.5,95,140.0
6143,D1,445.0,0.25,95,140.0
6144,A3,445.0,0.25,95,140.0
6145,E2,445.0,0.25,95,140.0
6146,D1,445.25,0.5,95,140.0
6147,C2,445.25,0.25,95,140.0
6148,C3,445.25,0.5,95,140.0
6149,G2,445.25,0.5,95,140.0
6150,C2,445.25,0.5,95,140.0
6151,A3,445.5,0.25,95,140.0
6152,C3,445.5,0.5,95,140.0
6153,G2,445.5,0.5,95,140.0
6154,C2,445.5,0.5,95,140.0
6155,D1,445.75,0.25,95,140.0
6156,C2,445.75,0.25,95,140.0
6157,D1,446.0,0.5,95,140.0
6158,C3,446.0,0.5,95,140.0
6159,G2,446.0,0.5,95,140.0
6160,C2,446.0,0.5,95,140.0
6161,A3,446.0,0.5,95,140.0
6162,C2,446.0,0.5,95,140.0
6163,C3,446.25,0.5,95,140.0
6164,G2,446.25,0.5,95,140.0
6165,C2,446.25,0.5,95,140.0
6166,D1,446.5,0.5,95,140.0
6167,A3,446.5,0.5,95,140.0
6168,C2,446.5,0.5,95,140.0
6169,D1,447.0,0.25,95,140.0
6170,C3,447.0,0.5,95,140.0
6171,G2,447.0,0.5,95,140.0
6172,C2,447.0,0.5,95,140.0
6173,A3,447.0,0.25,95,140.0
6174,E2,447.0,0.25,95,140.0
6175,D1,447.25,0.5,95,140.0
6176,C2,447.25,0.25,95,140.0
6177,A3,447.5,0.25,95,140.0
6178,B2,447.5,0.5,95,140.0
6179,F#2,447.5,0.5,95,140.0
6180,B1,447.5,0.5,95,140.0
6181,D1,447.75,0.25,95,140.0
6182,C2,447.75,0.25,95,140.0
6183,D1,448.0,0.5,95,140.0
6184,C3,448.0,0.5,95,140.0
6185,G2,448.0,0.5,95,140.0
6186,C2,448.0,0.5,95,140.0
6187,A3,448.0,0.5,95,140.0
6188,C2,448.0,0.5,95,140.0
6189,D1,448.5,0.5,95,140.0
6190,B2,448.5,0.5,95,140.0
6191,F#2,448.5,0.5,95,140.0
6192,B1,448.5,0.5,95,140.0
6193,B2,448.5,0.5,95,140.0
6194,F#2,448.5,0.5,95,140.0
6195,B1,448.5,0.5,95,140.0
6196,A3,448.5,0.5,95,140.0
6197,C2,448.5,0.5,95,140.0
6198,D1,449.0,0.25,95,140.0
6199,A3,449.0,0.25,95,140.0
6200,C3,449.0,0.5,95,140.0
6201,G2,449.0,0.5,95,140.0
6202,C2,449.0,0.5,95,140.0
6203,D3,449.0,1.0,95,140.0
6204,A2,449.0,1.0,95,140.0
6205,D2,449.0,1.0,95,140.0
6206,D1,449.25,0.5,95,140.0
6207,C2,449.25,0.25,95,140.0
6208,A3,449.5,0.25,95,140.0
6209,B2,449.5,0.5,95,140.0
6210,F#2,449.5,0.5,95,140.0
6211,B1,449.5,0.5,95,140.0
6212,D1,449.75,0.25,95,140.0
6213,C2,449.75,0.25,95,140.0
6214,A4,450.0,1.0,95,140.0
6215,D1,450.0,0.5,95,140.0
6216,C2,450.0,0.5,95,140.0
6217,D3,450.0,1.0,95,140.0
6218,A2,450.0,1.0,95,140.0
6219,D2,450.0,1.0,95,140.0
6220,D1,450.5,0.5,95,140.0
6221,C2,450.5,0.5,95,140.0
6222,A4,451.0,1.0,95,140.0
6223,C1,451.0,0.5,95,140.0
6224,E2,451.0,0.5,95,140.0
6225,A2,451.0,0.5,95,140.0
6226,D2,451.0,0.5,95,140.0
6227,C1,451.5,0.5,95,140.0
6228,C2,451.5,0.5,95,140.0
6229,A2,451.5,0.5,95,140.0
6230,D2,451.5,0.5,95,140.0
6231,B0,452.0,0.75,95,140.0
6232,A2,452.0,0.5,95,140.0
6233,D2,452.0,0.5,95,140.0
6234,A2,452.0,0.25,95,140.0
6235,D2,452.0,0.25,95,140.0
6236,A3,452.0,0.25,95,140.0
6237,E2,452.0,0.25,95,140.0
6238,C2,452.0,0.25,95,140.0
6239,C2,452.25,0.25,95,140.0
6240,A2,452.25,0.5,95,140.0
6241,D2,452.25,0.5,95,140.0
6242,C2,452.5,0.25,95,140.0
6243,A2,452.5,0.5,95,140.0
6244,D2,452.5,0.5,95,140.0
6245,D1,452.75,0.75,95,140.0
6246,A2,452.75,0.25,95,140.0
6247,D2,452.75,0.25,95,140.0
6248,A3,452.75,0.25,95,140.0
6249,E2,452.75,0.25,95,140.0
6250,C2,452.75,0.25,95,140.0
6251,C2,453.0,0.25,95,140.0
6252,A2,453.0,0.25,95,140.0
6253,D2,453.0,0.25,95,140.0
6254,A2,453.0,0.5,95,140.0
6255,D2,453.0,0.5,95,140.0
6256,C2,453.25,0.25,95,140.0
6257,A2,453.25,0.5,95,140.0
6258,D2,453.25,0.5,95,140.0
6259,C1,453.5,0.75,95,140.0
6260,A2,453.5,0.5,95,140.0
6261,D2,453.5,0.5,95,140.0
6262,A3,453.5,0.25,95,140.0
6263,E2,453.5,0.25,95,140.0
6264,C2,453.5,0.25,95,140.0
6265,C2,453.75,0.25,95,140.0
6266,A2,453.75,0.25,95,140.0
6267,D2,453.75,0.25,95,140.0
6268,C2,454.0,0.25,95,140.0
6269,A2,454.0,0.5,95,140.0
6270,D2,454.0,0.5,95,140.0
6271,A2,454.0,0.25,95,140.0
6272,D2,454.0,0.25,95,140.0
6273,E1,454.25,0.75,95,140.0
6274,A2,454.25,0.5,95,140.0
6275,D2,454.25,0.5,95,140.0
6276,A3,454.25,0.25,95,140.0
6277,E2,454.25,0.25,95,140.0
6278,C2,454.25,0.25,95,140.0
6279,C2,454.5,0.25,95,140.0
6280,A2,454.5,0.5,95,140.0
6281,D2,454.5,0.5,95,140.0
6282,C2,454.75,0.25,95,140.0
6283,A2,454.75,0.25,95,140.0
6284,D2,454.75,0.25,95,140.0
6285,D1,455.0,0.5,95,140.0
6286,A2,455.0,0.25,95,140.0
6287,D2,455.0,0.25,95,140.0
6288,A2,455.0,0.5,95,140.0
6289,D2,455.0,0.5,95,140.0
6290,A3,455.0,0.25,95,140.0
6291,E2,455.0,0.25,95,140.0
6292,C2,455.0,0.25,95,140.0
6293,C2,455.25,0.25,95,140.0
6294,A2,455.25,0.5,95,140.0
6295,D2,455.25,0.5,95,140.0
6296,F#1,455.5,0.5,95,140.0
6297,A2,455.5,0.5,95,140.0
6298,D2,455.5,0.5,95,140.0
6299,A3,455.5,0.25,95,140.0
6300,E2,455.5,0.25,95,140.0
6301,C2,455.5,0.25,95,140.0
6302,C2,455.75,0.25,95,140.0
6303,A2,455.75,0.25,95,140.0
6304,D2,455.75,0.25,95,140.0
6305,E1,456.0,0.75,95,140.0
6306,A2,456.0,0.5,95,140.0
6307,D2,456.0,0.5,95,140.0
6308,A2,456.0,0.25,95,140.0
6309,D2,456.0,0.25,95,140.0
6310,A3,456.0,0.25,95,140.0
6311,E2,456.0,0.25,95,140.0
6312,C2,456.0,0.25,95,140.0
6313,C2,456.25,0.25,95,140.0
6314,A2,456.25,0.5,95,140.0
6315,D2,456.25,0.5,95,140.0
6316,C2,456.5,0.25,95,140.0
6317,A2,456.5,0.5,95,140.0
6318,D2,456.5,0.5,95,140.0
6319,A1,456.75,0.75,95,140.0
6320,A2,456.75,0.25,95,140.0
6321,D2,456.75,0.25,95,140.0
6322,A3,456.75,0.25,95,140.0
6323,E2,456.75,0.25,95,140.0
6324,C2,456.75,0.25,95,140.0
6325,C2,457.0,0.25,95,140.0
6326,A2,457.0,0.25,95,140.0
6327,D2,457.0,0.25,95,140.0
6328,A2,457.0,0.5,95,140.0
6329,D2,457.0,0.5,95,140.0
6330,C2,457.25,0.25,95,140.0
6331,A2,457.25,0.5,95,140.0
6332,D2,457.25,0.5,95,140.0
6333,F#1,457.5,0.75,95,140.0
6334,A2,457.5,0.5,95,140.0
6335,D2,457.5,0.5,95,140.0
6336,A3,457.5,0.25,95,140.0
6337,E2,457.5,0.25,95,140.0
6338,C2,457.5,0.25,95,140.0
6339,C2,457.75,0.25,95,140.0
6340,A2,457.75,0.25,95,140.0
6341,D2,457.75,0.25,95,140.0
6342,C2,458.0,0.25,95,140.0
6343,A2,458.0,0.5,95,140.0
6344,D2,458.0,0.5,95,140.0
6345,G2,458.0,0.5,95,140.0
6346,C2,458.0,0.5,95,140.0
6347,E1,458.25,0.75,95,140.0
6348,A3,458.25,0.25,95,140.0
6349,E2,458.25,0.25,95,140.0
6350,C2,458.25,0.25,95,140.0
6351,C2,458.5,0.25,95,140.0
6352,A2,458.5,0.5,95,140.0
6353,D2,458.5,0.5,95,140.0
6354,G2,458.5,0.5,95,140.0
6355,C2,458.5,0.5,95,140.0
6356,C2,458.75,0.25,95,140.0
6357,B1,459.0,0.25,95,140.0
6358,E1,459.0,0.5,95,140.0
6359,G2,459.0,0.5,95,140.0
6360,C2,459.0,0.5,95,140.0
6361,A3,459.0,0.5,95,140.0
6362,E2,459.0,0.5,95,140.0
6363,B1,459.25,0.25,95,140.0
6364,B1,459.5,0.25,95,140.0
6365,F#1,459.5,0.5,95,140.0
6366,G2,459.5,0.5,95,140.0
6367,C2,459.5,0.5,95,140.0
6368,A3,459.5,0.5,95,140.0
6369,E2,459.5,0.5,95,140.0
6370,D2,459.75,0.25,95,140.0
6371,B1,460.0,0.25,95,140.0
6372,D2,460.0,0.25,95,140.0
6373,B1,460.25,0.25,95,140.0
6374,D2,460.25,0.25,95,140.0
6375,B1,460.5,0.25,95,140.0
6376,C2,460.5,0.25,95,140.0
6377,D2,460.75,0.25,95,140.0
6378,C2,460.75,0.25,95,140.0
6379,D2,461.0,0.25,95,140.0
6380,C2,461.0,0.25,95,140.0
6381,D2,461.25,0.25,95,140.0
6382,E2,461.25,0.25,95,140.0
6383,C2,461.5,0.25,95,140.0
6384,E2,461.5,0.25,95,140.0
6385,C2,461.75,0.25,95,140.0
6386,E2,461.75,0.25,95,140.0
6387,C2,462.0,0.25,95,140.0
6388,D2,462.0,0.25,95,140.0
6389,F3,462.0,0.5,95,140.0
6390,E2,462.25,0.25,95,140.0
6391,D2,462.25,0.25,95,140.0
6392,E2,462.5,0.25,95,140.0
6393,F#2,462.5,0.25,95,140.0
6394,C2,462.5,0.5,95,140.0
6395,E2,462.75,0.25,95,140.0
6396,F#2,462.75,0.25,95,140.0
6397,D2,463.0,0.25,95,140.0
6398,E2,463.0,0.25,95,140.0
6399,E2,463.0,0.5,95,140.0
6400,D2,463.25,0.25,95,140.0
6401,E2,463.25,0.25,95,140.0
6402,F#2,463.5,0.25,95,140.0
6403,E2,463.5,0.25,95,140.0
6404,C2,463.5,0.5,95,140.0
6405,F#2,463.75,0.25,95,140.0
6406,A2,463.75,0.25,95,140.0
6407,E2,464.0,0.25,95,140.0
6408,A2,464.0,0.25,95,140.0
6409,B0,464.0,0.5,95,140.0
6410,A3,464.0,0.5,95,140.0
6411,C2,464.0,0.5,95,140.0
6412,E2,464.25,0.25,95,140.0
6413,A2,464.25,0.25,95,140.0
6414,E2,464.5,0.25,95,140.0
6415,F#2,464.5,0.25,95,140.0
6416,B0,464.5,0.5,95,140.0
6417,C2,464.5,0.5,95,140.0
6418,A2,464.75,0.25,95,140.0
6419,F#2,464.75,0.25,95,140.0
6420,A2,465.0,0.25,95,140.0
6421,F#2,465.0,0.25,95,140.0
6422,B0,465.0,0.5,95,140.0
6423,B-2,465.0,0.5,95,140.0
6424,E2,465.0,0.5,95,140.0
6425,C2,465.0,0.5,95,140.0
6426,A2,465.25,0.25,95,140.0
6427,E2,465.25,0.25,95,140.0
6428,F#2,465.5,0.25,95,140.0
6429,E2,465.5,0.25,95,140.0
6430,B0,465.5,0.5,95,140.0
6431,C2,465.5,0.5,95,140.0
6432,F#2,465.75,0.25,95,140.0
6433,E2,465.75,0.25,95,140.0
6434,F#2,466.0,0.25,95,140.0
6435,E2,466.0,0.5,95,140.0
6436,B0,466.0,0.5,95,140.0
6437,B-2,466.0,0.5,95,140.0
6438,C2,466.0,0.5,95,140.0
6439,E2,466.25,0.25,95,140.0
6440,E2,466.5,0.25,95,140.0
6441,F#2,466.5,0.5,95,140.0
6442,B0,466.5,0.5,95,140.0
6443,C2,466.5,0.5,95,140.0
6444,E2,466.75,0.25,95,140.0
6445,E2,467.0,0.5,95,140.0
6446,B0,467.0,0.5,95,140.0
6447,B-2,467.0,0.5,95,140.0
6448,E2,467.0,0.5,95,140.0
6449,C2,467.0,0.5,95,140.0
6450,F#2,467.5,0.5,95,140.0
6451,B0,467.5,0.5,95,140.0
6452,C2,467.5,0.5,95,140.0
6453,B0,468.0,0.5,95,140.0
6454,B-2,468.0,0.5,95,140.0
6455,C2,468.0,0.5,95,140.0
6456,B0,468.5,0.5,95,140.0
6457,C2,468.5,0.5,95,140.0
6458,B0,469.0,0.5,95,140.0
6459,B-2,469.0,0.5,95,140.0
6460,E2,469.0,0.5,95,140.0
6461,C2,469.0,0.5,95,140.0
6462,B0,469.5,0.5,95,140.0
6463,C2,469.5,0.5,95,140.0
6464,B0,470.0,0.5,95,140.0
6465,B-2,470.0,0.5,95,140.0
6466,C2,470.0,0.5,95,140.0
6467,B0,470.5,0.5,95,140.0
6468,C2,470.5,0.5,95,140.0
6469,B0,471.0,0.5,95,140.0
6470,B2,471.0,0.5,95,140.0
6471,F#2,471.0,0.5,95,140.0
6472,B1,471.0,0.5,95,140.0
6473,B-2,471.0,0.5,95,140.0
6474,C2,471.0,0.5,95,140.0
6475,C4,471.0,0.5,95,140.0
6476,G3,471.0,0.5,95,140.0
6477,D1,471.5,0.5,95,140.0
6478,B2,471.5,0.5,95,140.0
6479,F#2,471.5,0.5,95,140.0
6480,B1,471.5,0.5,95,140.0
6481,C#3,471.5,0.5,95,140.0
6482,C2,471.5,0.5,95,140.0
6483,C4,471.5,0.5,95,140.0
6484,G3,471.5,0.5,95,140.0
6485,D1,472.0,0.5,95,140.0
6486,B2,472.0,0.5,95,140.0
6487,F#2,472.0,0.5,95,140.0
6488,B1,472.0,0.5,95,140.0
6489,B2,472.0,0.5,95,140.0
6490,F#2,472.0,0.5,95,140.0
6491,B1,472.0,0.5,95,140.0
6492,C4,472.0,0.5,95,140.0
6493,G3,472.0,0.5,95,140.0
6494,D1,472.5,0.5,95,140.0
6495,C2,472.5,0.5,95,140.0
6496,B2,472.5,0.5,95,140.0
6497,F#2,472.5,0.5,95,140.0
6498,B1,472.5,0.5,95,140.0
6499,B2,472.5,0.5,95,140.0
6500,F#2,472.5,0.5,95,140.0
6501,B1,472.5,0.5,95,140.0
6502,C4,472.5,0.5,95,140.0
6503,G3,472.5,0.5,95,140.0
6504,D1,473.0,0.5,95,140.0
6505,B2,473.0,0.5,95,140.0
6506,F#2,473.0,0.5,95,140.0
6507,B1,473.0,0.5,95,140.0
6508,B2,473.0,0.5,95,140.0
6509,F#2,473.0,0.5,95,140.0
6510,B1,473.0,0.5,95,140.0
6511,B-2,473.0,0.5,95,140.0
6512,E2,473.0,0.5,95,140.0
6513,C2,473.0,0.5,95,140.0
6514,C4,473.0,0.5,95,140.0
6515,G3,473.0,0.5,95,140.0
6516,D1,473.5,0.5,95,140.0
6517,C2,473.5,0.5,95,140.0
6518,B2,473.5,0.5,95,140.0
6519,F#2,473.5,0.5,95,140.0
6520,B1,473.5,0.5,95,140.0
6521,B2,473.5,0.5,95,140.0
6522,F#2,473.5,0.5,95,140.0
6523,B1,473.5,0.5,95,140.0
6524,C4,473.5,0.5,95,140.0
6525,G3,473.5,0.5,95,140.0
6526,D1,474.0,0.5,95,140.0
6527,B2,474.0,0.5,95,140.0
6528,F#2,474.0,0.5,95,140.0
6529,B1,474.0,0.5,95,140.0
6530,B2,474.0,0.5,95,140.0
6531,F#2,474.0,0.5,95,140.0
6532,B1,474.0,0.5,95,140.0
6533,B-2,474.0,0.5,95,140.0
6534,C2,474.0,0.5,95,140.0
6535,C4,474.0,0.5,95,140.0
6536,G3,474.0,0.5,95,140.0
6537,D1,474.5,0.5,95,140.0
6538,C2,474.5,0.5,95,140.0
6539,B2,474.5,0.5,95,140.0
6540,F#2,474.5,0.5,95,140.0
6541,B1,474.5,0.5,95,140.0
6542,B2,474.5,0.5,95,140.0
6543,F#2,474.5,0.5,95,140.0
6544,B1,474.5,0.5,95,140.0
6545,C4,474.5,0.5,95,140.0
6546,G3,474.5,0.5,95,140.0
6547,D1,475.0,0.5,95,140.0
6548,B2,475.0,0.5,95,140.0
6549,F#2,475.0,0.5,95,140.0
6550,B1,475.0,0.5,95,140.0
6551,B2,475.0,0.5,95,140.0
6552,F#2,475.0,0.5,95,140.0
6553,B1,475.0,0.5,95,140.0
6554,B-2,475.0,0.5,95,140.0
6555,E2,475.0,0.5,95,140.0
6556,C2,475.0,0.5,95,140.0
6557,C4,475.0,0.5,95,140.0
6558,G3,475.0,0.5,95,140.0
6559,F1,475.5,0.5,95,140.0
6560,B2,475.5,0.5,95,140.0
6561,F#2,475.5,0.5,95,140.0
6562,B1,475.5,0.5,95,140.0
6563,B2,475.5,0.5,95,140.0
6564,F#2,475.5,0.5,95,140.0
6565,B1,475.5,0.5,95,140.0
6566,C#3,475.5,0.5,95,140.0
6567,C2,475.5,0.5,95,140.0
6568,C4,475.5,0.5,95,140.0
6569,G3,475.5,0.5,95,140.0
6570,F1,476.0,0.5,95,140.0
6571,B2,476.0,0.5,95,140.0
6572,F#2,476.0,0.5,95,140.0
6573,B1,476.0,0.5,95,140.0
6574,B2,476.0,0.5,95,140.0
6575,F#2,476.0,0.5,95,140.0
6576,B1,476.0,0.5,95,140.0
6577,C4,476.0,0.5,95,140.0
6578,G3,476.0,0.5,95,140.0
6579,C1,476.5,0.5,95,140.0
6580,C2,476.5,0.5,95,140.0
6581,B2,476.5,0.5,95,140.0
6582,F#2,476.5,0.5,95,140.0
6583,B1,476.5,0.5,95,140.0
6584,B2,476.5,0.5,95,140.0
6585,F#2,476.5,0.5,95,140.0
6586,B1,476.5,0.5,95,140.0
6587,C4,476.5,0.5,95,140.0
6588,G3,476.5,0.5,95,140.0
6589,C1,477.0,0.5,95,140.0
6590,B2,477.0,0.5,95,140.0
6591,F#2,477.0,0.5,95,140.0
6592,B1,477.0,0.5,95,140.0
6593,B2,477.0,0.5,95,140.0
6594,F#2,477.0,0.5,95,140.0
6595,B1,477.0,0.5,95,140.0
6596,B-2,477.0,0.5,95,140.0
6597,E2,477.0,0.5,95,140.0
6598,C2,477.0,0.5,95,140.0
6599,C4,477.0,0.5,95,140.0
6600,G3,477.0,0.5,95,140.0
6601,C1,477.5,0.5,95,140.0
6602,C2,477.5,0.5,95,140.0
6603,B2,477.5,0.5,95,140.0
6604,F#2,477.5,0.5,95,140.0
6605,B1,477.5,0.5,95,140.0
6606,B2,477.5,0.5,95,140.0
6607,F#2,477.5,0.5,95,140.0
6608,B1,477.5,0.5,95,140.0
6609,C4,477.5,0.5,95,140.0
6610,G3,477.5,0.5,95,140.0
6611,C1,478.0,0.5,95,140.0
6612,B2,478.0,0.5,95,140.0
6613,F#2,478.0,0.5,95,140.0
6614,B1,478.0,0.5,95,140.0
6615,B2,478.0,0.5,95,140.0
6616,F#2,478.0,0.5,95,140.0
6617,B1,478.0,0.5,95,140.0
6618,B-2,478.0,0.5,95,140.0
6619,C2,478.0,0.5,95,140.0
6620,C4,478.0,0.5,95,140.0
6621,G3,478.0,0.5,95,140.0
6622,D1,478.5,0.5,95,140.0
6623,E2,478.5,0.5,95,140.0
6624,B2,478.5,0.5,95,140.0
6625,F#2,478.5,0.5,95,140.0
6626,B1,478.5,0.5,95,140.0
6627,D3,478.5,0.5,95,140.0
6628,A2,478.5,0.5,95,140.0
6629,D2,478.5,0.5,95,140.0
6630,C4,478.5,0.5,95,140.0
6631,G3,478.5,0.5,95,140.0
6632,C1,479.0,0.5,95,140.0
6633,E2,479.0,0.5,95,140.0
6634,B2,479.0,0.5,95,140.0
6635,F#2,479.0,0.5,95,140.0
6636,B1,479.0,0.5,95,140.0
6637,B0,479.5,0.5,95,140.0
6638,D3,479.5,0.5,95,140.0
6639,A2,479.5,0.5,95,140.0
6640,D2,479.5,0.5,95,140.0
6641,D3,479.5,0.5,95,140.0
6642,A2,479.5,0.5,95,140.0
6643,D2,479.5,0.5,95,140.0
6644,C#3,479.5,0.5,95,140.0
6645,C2,479.5,0.5,95,140.0
6646,C4,479.5,0.5,95,140.0
6647,G3,479.5,0.5,95,140.0
6648,B0,480.0,0.5,95,140.0
6649,D3,480.0,0.5,95,140.0
6650,A2,480.0,0.5,95,140.0
6651,D2,480.0,0.5,95,140.0
6652,C4,480.0,0.5,95,140.0
6653,G3,480.0,0.5,95,140.0
6654,B0,480.5,0.5,95,140.0
6655,C2,480.5,0.5,95,140.0
6656,D3,480.5,0.5,95,140.0
6657,A2,480.5,0.5,95,140.0
6658,D2,480.5,0.5,95,140.0
6659,D3,480.5,0.5,95,140.0
6660,A2,480.5,0.5,95,140.0
6661,D2,480.5,0.5,95,140.0
6662,C4,480.5,0.5,95,140.0
6663,G3,480.5,0.5,95,140.0
6664,B0,481.0,0.5,95,140.0
6665,D3,481.0,0.5,95,140.0
6666,A2,481.0,0.5,95,140.0
6667,D2,481.0,0.5,95,140.0
6668,D3,481.0,0.5,95,140.0
6669,A2,481.0,0.5,95,140.0
6670,D2,481.0,0.5,95,140.0
6671,B-2,481.0,0.5,95,140.0
6672,E2,481.0,0.5,95,140.0
6673,C2,481.0,0.5,95,140.0
6674,C4,481.0,0.5,95,140.0
6675,G3,481.0,0.5,95,140.0
6676,B0,481.5,0.5,95,140.0
6677,C2,481.5,0.5,95,140.0
6678,D3,481.5,0.5,95,140.0
6679,A2,481.5,0.5,95,140.0
6680,D2,481.5,0.5,95,140.0
6681,D3,481.5,0.5,95,140.0
6682,A2,481.5,0.5,95,140.0
6683,D2,481.5,0.5,95,140.0
6684,C4,481.5,0.5,95,140.0
6685,G3,481.5,0.5,95,140.0
6686,B0,482.0,0.5,95,140.0
6687,D3,482.0,0.5,95,140.0
6688,A2,482.0,0.5,95,140.0
6689,D2,482.0,0.5,95,140.0
6690,D3,482.0,0.5,95,140.0
6691,A2,482.0,0.5,95,140.0
6692,D2,482.0,0.5,95,140.0
6693,B-2,482.0,0.5,95,140.0
6694,C2,482.0,0.5,95,140.0
6695,C4,482.0,0.5,95,140.0
6696,G3,482.0,0.5,95,140.0
6697,B0,482.5,0.5,95,140.0
6698,C2,482.5,0.5,95,140.0
6699,D3,482.5,0.5,95,140.0
6700,A2,482.5,0.5,95,140.0
6701,D2,482.5,0.5,95,140.0
6702,D3,482.5,0.5,95,140.0
6703,A2,482.5,0.5,95,140.0
6704,D2,482.5,0.5,95,140.0
6705,C4,482.5,0.5,95,140.0
6706,G3,482.5,0.5,95,140.0
6707,B0,483.0,0.5,95,140.0
6708,D3,483.0,0.5,95,140.0
6709,A2,483.0,0.5,95,140.0
6710,D2,483.0,0.5,95,140.0
6711,F3,483.0,0.5,95,140.0
6712,C3,483.0,0.5,95,140.0
6713,F2,483.0,0.5,95,140.0
6714,B-2,483.0,0.5,95,140.0
6715,E2,483.0,0.5,95,140.0
6716,C2,483.0,0.5,95,140.0
6717,C4,483.0,0.5,95,140.0
6718,G3,483.0,0.5,95,140.0
6719,B0,483.5,0.5,95,140.0
6720,C2,483.5,0.5,95,140.0
6721,D3,483.5,0.5,95,140.0
6722,A2,483.5,0.5,95,140.0
6723,D2,483.5,0.5,95,140.0
6724,B0,484.0,0.5,95,140.0
6725,F3,484.0,0.5,95,140.0
6726,C3,484.0,0.5,95,140.0
6727,F2,484.0,0.5,95,140.0
6728,F3,484.0,0.5,95,140.0
6729,C3,484.0,0.5,95,140.0
6730,F2,484.0,0.5,95,140.0
6731,B-2,484.0,0.5,95,140.0
6732,C2,484.0,0.5,95,140.0
6733,C4,484.0,0.5,95,140.0
6734,G3,484.0,0.5,95,140.0
6735,B0,484.5,0.5,95,140.0
6736,C2,484.5,0.5,95,140.0
6737,C3,484.5,0.5,95,140.0
6738,G2,484.5,0.5,95,140.0
6739,C2,484.5,0.5,95,140.0
6740,C4,484.5,0.5,95,140.0
6741,G3,484.5,0.5,95,140.0
6742,B0,485.0,0.5,95,140.0
6743,F3,485.0,0.5,95,140.0
6744,C3,485.0,0.5,95,140.0
6745,F2,485.0,0.5,95,140.0
6746,C3,485.0,0.5,95,140.0
6747,G2,485.0,0.5,95,140.0
6748,C2,485.0,0.5,95,140.0
6749,B-2,485.0,0.5,95,140.0
6750,E2,485.0,0.5,95,140.0
6751,C2,485.0,0.5,95,140.0
6752,C4,485.0,0.5,95,140.0
6753,G3,485.0,0.5,95,140.0
6754,B0,485.5,0.5,95,140.0
6755,C2,485.5,0.5,95,140.0
6756,C3,485.5,0.5,95,140.0
6757,G2,485.5,0.5,95,140.0
6758,C2,485.5,0.5,95,140.0
6759,C3,485.5,0.5,95,140.0
6760,G2,485.5,0.5,95,140.0
6761,C2,485.5,0.5,95,140.0
6762,C4,485.5,0.5,95,140.0
6763,G3,485.5,0.5,95,140.0
6764,B0,486.0,0.5,95,140.0
6765,C3,486.0,0.5,95,140.0
6766,G2,486.0,0.5,95,140.0
6767,C2,486.0,0.5,95,140.0
6768,C3,486.0,0.5,95,140.0
6769,G2,486.0,0.5,95,140.0
6770,C2,486.0,0.5,95,140.0
6771,B-2,486.0,0.5,95,140.0
6772,C2,486.0,0.5,95,140.0
6773,C4,486.0,0.5,95,140.0
6774,G3,486.0,0.5,95,140.0
6775,B0,486.5,0.5,95,140.0
6776,E2,486.5,0.5,95,140.0
6777,C3,486.5,0.5,95,140.0
6778,G2,486.5,0.5,95,140.0
6779,C2,486.5,0.5,95,140.0
6780,D3,486.5,0.5,95,140.0
6781,A2,486.5,0.5,95,140.0
6782,D2,486.5,0.5,95,140.0
6783,C4,486.5,0.5,95,140.0
6784,G3,486.5,0.5,95,140.0
6785,B0,487.0,0.5,95,140.0
6786,E2,487.0,0.5,95,140.0
6787,C3,487.0,0.5,95,140.0
6788,G2,487.0,0.5,95,140.0
6789,C2,487.0,0.5,95,140.0
6790,C3,487.0,0.5,95,140.0
6791,G2,487.0,0.5,95,140.0
6792,C2,487.0,0.5,95,140.0
6793,C4,487.0,0.5,95,140.0
6794,G3,487.0,0.5,95,140.0
6795,D1,487.5,0.5,95,140.0
6796,D3,487.5,0.5,95,140.0
6797,A2,487.5,0.5,95,140.0
6798,D2,487.5,0.5,95,140.0
6799,B2,487.5,0.5,95,140.0
6800,F#2,487.5,0.5,95,140.0
6801,B1,487.5,0.5,95,140.0
6802,C#3,487.5,0.5,95,140.0
6803,C2,487.5,0.5,95,140.0
6804,C4,487.5,0.5,95,140.0
6805,G3,487.5,0.5,95,140.0
6806,D1,488.0,0.5,95,140.0
6807,C3,488.0,0.5,95,140.0
6808,G2,488.0,0.5,95,140.0
6809,C2,488.0,0.5,95,140.0
6810,D1,488.5,0.5,95,140.0
6811,C2,488.5,0.5,95,140.0
6812,B2,488.5,0.5,95,140.0
6813,F#2,488.5,0.5,95,140.0
6814,B1,488.5,0.5,95,140.0
6815,B2,488.5,0.5,95,140.0
6816,F#2,488.5,0.5,95,140.0
6817,B1,488.5,0.5,95,140.0
6818,C4,488.5,0.5,95,140.0
6819,G3,488.5,0.5,95,140.0
6820,D1,489.0,0.5,95,140.0
6821,B2,489.0,0.5,95,140.0
6822,F#2,489.0,0.5,95,140.0
6823,B1,489.0,0.5,95,140.0
6824,B-2,489.0,0.5,95,140.0
6825,E2,489.0,0.5,95,140.0
6826,C2,489.0,0.5,95,140.0
6827,C4,489.0,0.5,95,140.0
6828,G3,489.0,0.5,95,140.0
6829,D1,489.5,0.5,95,140.0
6830,C2,489.5,0.5,95,140.0
6831,B2,489.5,0.5,95,140.0
6832,F#2,489.5,0.5,95,140.0
6833,B1,489.5,0.5,95,140.0
6834,B2,489.5,0.5,95,140.0
6835,F#2,489.5,0.5,95,140.0
6836,B1,489.5,0.5,95,140.0
6837,C4,489.5,0.5,95,140.0
6838,G3,489.5,0.5,95,140.0
6839,D1,490.0,0.5,95,140.0
6840,B2,490.0,0.5,95,140.0
6841,F#2,490.0,0.5,95,140.0
6842,B1,490.0,0.5,95,140.0
6843,B2,490.0,0.5,95,140.0
6844,F#2,490.0,0.5,95,140.0
6845,B1,490.0,0.5,95,140.0
6846,B-2,490.0,0.5,95,140.0
6847,C2,490.0,0.5,95,140.0
6848,C4,490.0,0.5,95,140.0
6849,G3,490.0,0.5,95,140.0
6850,D1,490.5,0.5,95,140.0
6851,C2,490.5,0.5,95,140.0
6852,B2,490.5,0.5,95,140.0
6853,F#2,490.5,0.5,95,140.0
6854,B1,490.5,0.5,95,140.0
6855,B2,490.5,0.5,95,140.0
6856,F#2,490.5,0.5,95,140.0
6857,B1,490.5,0.5,95,140.0
6858,C4,490.5,0.5,95,140.0
6859,G3,490.5,0.5,95,140.0
6860,D1,491.0,0.5,95,140.0
6861,B2,491.0,0.5,95,140.0
6862,F#2,491.0,0.5,95,140.0
6863,B1,491.0,0.5,95,140.0
6864,B2,491.0,0.5,95,140.0
6865,F#2,491.0,0.5,95,140.0
6866,B1,491.0,0.5,95,140.0
6867,B-2,491.0,0.5,95,140.0
6868,E2,491.0,0.5,95,140.0
6869,C2,491.0,0.5,95,140.0
6870,C4,491.0,0.5,95,140.0
6871,G3,491.0,0.5,95,140.0
6872,F1,491.5,0.5,95,140.0
6873,B2,491.5,0.5,95,140.0
6874,F#2,491.5,0.5,95,140.0
6875,B1,491.5,0.5,95,140.0
6876,B2,491.5,0.5,95,140.0
6877,F#2,491.5,0.5,95,140.0
6878,B1,491.5,0.5,95,140.0
6879,C#3,491.5,0.5,95,140.0
6880,C2,491.5,0.5,95,140.0
6881,C4,491.5,0.5,95,140.0
6882,G3,491.5,0.5,95,140.0
6883,F1,492.0,0.5,95,140.0
6884,B2,492.0,0.5,95,140.0
6885,F#2,492.0,0.5,95,140.0
6886,B1,492.0,0.5,95,140.0
6887,B2,492.0,0.5,95,140.0
6888,F#2,492.0,0.5,95,140.0
6889,B1,492.0,0.5,95,140.0
6890,C4,492.0,0.5,95,140.0
6891,G3,492.0,0.5,95,140.0
6892,C1,492.5,0.5,95,140.0
6893,C2,492.5,0.5,95,140.0
6894,B2,492.5,0.5,95,140.0
6895,F#2,492.5,0.5,95,140.0
6896,B1,492.5,0.5,95,140.0
6897,B2,492.5,0.5,95,140.0
6898,F#2,492.5,0.5,95,140.0
6899,B1,492.5,0.5,95,140.0
6900,C4,492.5,0.5,95,140.0
6901,G3,492.5,0.5,95,140.0
6902,C1,493.0,0.5,95,140.0
6903,B2,493.0,0.5,95,140.0
6904,F#2,493.0,0.5,95,140.0
6905,B1,493.0,0.5,95,140.0
6906,B2,493.0,0.5,95,140.0
6907,F#2,493.0,0.5,95,140.0
6908,B1,493.0,0.5,95,140.0
6909,B-2,493.0,0.5,95,140.0
6910,E2,493.0,0.5,95,140.0
6911,C2,493.0,0.5,95,140.0
6912,C4,493.0,0.5,95,140.0
6913,G3,493.0,0.5,95,140.0
6914,C1,493.5,0.5,95,140.0
6915,C2,493.5,0.5,95,140.0
6916,B2,493.5,0.5,95,140.0
6917,F#2,493.5,0.5,95,140.0
6918,B1,493.5,0.5,95,140.0
6919,B2,493.5,0.5,95,140.0
6920,F#2,493.5,0.5,95,140.0
6921,B1,493.5,0.5,95,140.0
6922,C4,493.5,0.5,95,140.0
6923,G3,493.5,0.5,95,140.0
6924,C1,494.0,0.5,95,140.0
6925,B2,494.0,0.5,95,140.0
6926,F#2,494.0,0.5,95,140.0
6927,B1,494.0,0.5,95,140.0
6928,B2,494.0,0.5,95,140.0
6929,F#2,494.0,0.5,95,140.0
6930,B1,494.0,0.5,95,140.0
6931,B-2,494.0,0.5,95,140.0
6932,C2,494.0,0.5,95,140.0
6933,C4,494.0,0.5,95,140.0
6934,G3,494.0,0.5,95,140.0
6935,D1,494.5,0.5,95,140.0
6936,C2,494.5,0.5,95,140.0
6937,B2,494.5,0.5,95,140.0
6938,F#2,494.5,0.5,95,140.0
6939,B1,494.5,0.5,95,140.0
6940,B2,494.5,0.5,95,140.0
6941,F#2,494.5,0.5,95,140.0
6942,B1,494.5,0.5,95,140.0
6943,C4,494.5,0.5,95,140.0
6944,G3,494.5,0.5,95,140.0
6945,C1,495.0,0.5,95,140.0
6946,B2,495.0,0.5,95,140.0
6947,F#2,495.0,0.5,95,140.0
6948,B1,495.0,0.5,95,140.0
6949,B2,495.0,0.5,95,140.0
6950,F#2,495.0,0.5,95,140.0
6951,B1,495.0,0.5,95,140.0
6952,B-2,495.0,0.5,95,140.0
6953,E2,495.0,0.5,95,140.0
6954,C2,495.0,0.5,95,140.0
6955,C4,495.0,0.5,95,140.0
6956,G3,495.0,0.5,95,140.0
6957,B0,495.5,0.5,95,140.0
6958,B2,495.5,0.5,95,140.0
6959,F#2,495.5,0.5,95,140.0
6960,B1,495.5,0.5,95,140.0
6961,B2,495.5,0.5,95,140.0
6962,F#2,495.5,0.5,95,140.0
6963,B1,495.5,0.5,95,140.0
6964,C#3,495.5,0.5,95,140.0
6965,C2,495.5,0.5,95,140.0
6966,C4,495.5,0.5,95,140.0
6967,G3,495.5,0.5,95,140.0
6968,B0,496.0,0.5,95,140.0
6969,B2,496.0,0.5,95,140.0
6970,F#2,496.0,0.5,95,140.0
6971,B1,496.0,0.5,95,140.0
6972,D3,496.0,0.5,95,140.0
6973,A2,496.0,0.5,95,140.0
6974,D2,496.0,0.5,95,140.0
6975,C4,496.0,0.5,95,140.0
6976,G3,496.0,0.5,95,140.0
6977,B0,496.5,0.5,95,140.0
6978,C2,496.5,0.5,95,140.0
6979,B2,496.5,0.5,95,140.0
6980,F#2,496.5,0.5,95,140.0
6981,B1,496.5,0.5,95,140.0
6982,B0,497.0,0.5,95,140.0
6983,D3,497.0,0.5,95,140.0
6984,A2,497.0,0.5,95,140.0
6985,D2,497.0,0.5,95,140.0
6986,D3,497.0,0.5,95,140.0
6987,A2,497.0,0.5,95,140.0
6988,D2,497.0,0.5,95,140.0
6989,B-2,497.0,0.5,95,140.0
6990,E2,497.0,0.5,95,140.0
6991,C2,497.0,0.5,95,140.0
6992,C4,497.0,0.5,95,140.0
6993,G3,497.0,0.5,95,140.0
6994,B1,497.5,0.5,95,140.0
6995,C2,497.5,0.5,95,140.0
6996,D3,497.5,0.5,95,140.0
6997,A2,497.5,0.5,95,140.0
6998,D2,497.5,0.5,95,140.0
6999,C4,497.5,0.5,95,140.0
7000,G3,497.5,0.5,95,140.0
7001,B1,498.0,0.5,95,140.0
7002,D3,498.0,0.5,95,140.0
7003,A2,498.0,0.5,95,140.0
7004,D2,498.0,0.5,95,140.0
7005,D3,498.0,0.5,95,140.0
7006,A2,498.0,0.5,95,140.0
7007,D2,498.0,0.5,95,140.0
7008,B-2,498.0,0.5,95,140.0
7009,C2,498.0,0.5,95,140.0
7010,C4,498.0,0.5,95,140.0
7011,G3,498.0,0.5,95,140.0
7012,D2,498.5,0.5,95,140.0
7013,C2,498.5,0.5,95,140.0
7014,D3,498.5,0.5,95,140.0
7015,A2,498.5,0.5,95,140.0
7016,D2,498.5,0.5,95,140.0
7017,D3,498.5,0.5,95,140.0
7018,A2,498.5,0.5,95,140.0
7019,D2,498.5,0.5,95,140.0
7020,C4,498.5,0.5,95,140.0
7021,G3,498.5,0.5,95,140.0
7022,D2,499.0,0.5,95,140.0
7023,D3,499.0,0.5,95,140.0
7024,A2,499.0,0.5,95,140.0
7025,D2,499.0,0.5,95,140.0
7026,D3,499.0,0.5,95,140.0
7027,A2,499.0,0.5,95,140.0
7028,D2,499.0,0.5,95,140.0
7029,B-2,499.0,0.5,95,140.0
7030,E2,499.0,0.5,95,140.0
7031,C2,499.0,0.5,95,140.0
7032,C4,499.0,0.5,95,140.0
7033,G3,499.0,0.5,95,140.0
7034,E2,499.5,0.5,95,140.0
7035,C2,499.5,0.5,95,140.0
7036,D3,499.5,0.5,95,140.0
7037,A2,499.5,0.5,95,140.0
7038,D2,499.5,0.5,95,140.0
7039,D3,499.5,0.5,95,140.0
7040,A2,499.5,0.5,95,140.0
7041,D2,499.5,0.5,95,140.0
7042,C4,499.5,0.5,95,140.0
7043,G3,499.5,0.5,95,140.0
7044,E2,500.0,0.5,95,140.0
7045,D3,500.0,0.5,95,140.0
7046,A2,500.0,0.5,95,140.0
7047,D2,500.0,0.5,95,140.0
7048,D3,500.0,0.5,95,140.0
7049,A2,500.0,0.5,95,140.0
7050,D2,500.0,0.5,95,140.0
7051,B-2,500.0,0.5,95,140.0
7052,C2,500.0,0.5,95,140.0
7053,C4,500.0,0.5,95,140.0
7054,G3,500.0,0.5,95,140.0
7055,F#2,500.5,0.5,95,140.0
7056,C2,500.5,0.5,95,140.0
7057,D3,500.5,0.5,95,140.0
7058,A2,500.5,0.5,95,140.0
7059,D2,500.5,0.5,95,140.0
7060,F3,500.5,0.5,95,140.0
7061,C3,500.5,0.5,95,140.0
7062,F2,500.5,0.5,95,140.0
7063,C4,500.5,0.5,95,140.0
7064,G3,500.5,0.5,95,140.0
7065,F#2,501.0,0.5,95,140.0
7066,D3,501.0,0.5,95,140.0
7067,A2,501.0,0.5,95,140.0
7068,D2,501.0,0.5,95,140.0
7069,B-2,501.0,0.5,95,140.0
7070,E2,501.0,0.5,95,140.0
7071,C2,501.0,0.5,95,140.0
7072,G2,501.5,0.5,95,140.0
7073,C2,501.5,0.5,95,140.0
7074,F3,501.5,0.5,95,140.0
7075,C3,501.5,0.5,95,140.0
7076,F2,501.5,0.5,95,140.0
7077,F3,501.5,0.5,95,140.0
7078,C3,501.5,0.5,95,140.0
7079,F2,501.5,0.5,95,140.0
7080,C4,501.5,0.5,95,140.0
7081,G3,501.5,0.5,95,140.0
7082,F#2,502.0,1.0,95,140.0
7083,C3,502.0,0.5,95,140.0
7084,G2,502.0,0.5,95,140.0
7085,C2,502.0,0.5,95,140.0
7086,B-2,502.0,0.5,95,140.0
7087,C2,502.0,0.5,95,140.0
7088,C4,502.0,0.5,95,140.0
7089,G3,502.0,0.5,95,140.0
7090,E2,502.5,0.5,95,140.0
7091,F3,502.5,0.5,95,140.0
7092,C3,502.5,0.5,95,140.0
7093,F2,502.5,0.5,95,140.0
7094,C3,502.5,0.5,95,140.0
7095,G2,502.5,0.5,95,140.0
7096,C2,502.5,0.5,95,140.0
7097,C4,502.5,0.5,95,140.0
7098,G3,502.5,0.5,95,140.0
7099,E2,503.0,0.5,95,140.0
7100,C3,503.0,0.5,95,140.0
7101,G2,503.0,0.5,95,140.0
7102,C2,503.0,0.5,95,140.0
7103,C3,503.0,0.5,95,140.0
7104,G2,503.0,0.5,95,140.0
7105,C2,503.0,0.5,95,140.0
7106,C4,503.0,0.5,95,140.0
7107,G3,503.0,0.5,95,140.0
7108,D1,503.5,0.5,95,140.0
7109,C3,503.5,0.5,95,140.0
7110,G2,503.5,0.5,95,140.0
7111,C2,503.5,0.5,95,140.0
7112,C3,503.5,0.5,95,140.0
7113,G2,503.5,0.5,95,140.0
7114,C2,503.5,0.5,95,140.0
7115,C#3,503.5,0.5,95,140.0
7116,C2,503.5,0.5,95,140.0
7117,C4,503.5,0.5,95,140.0
7118,G3,503.5,0.5,95,140.0
7119,D1,504.0,0.5,95,140.0
7120,C3,504.0,0.5,95,140.0
7121,G2,504.0,0.5,95,140.0
7122,C2,504.0,0.5,95,140.0
7123,D3,504.0,0.5,95,140.0
7124,A2,504.0,0.5,95,140.0
7125,D2,504.0,0.5,95,140.0
7126,C4,504.0,0.5,95,140.0
7127,G3,504.0,0.5,95,140.0
7128,D1,504.5,0.5,95,140.0
7129,C2,504.5,0.5,95,140.0
7130,C3,504.5,0.5,95,140.0
7131,G2,504.5,0.5,95,140.0
7132,C2,504.5,0.5,95,140.0
7133,C3,504.5,0.5,95,140.0
7134,G2,504.5,0.5,95,140.0
7135,C2,504.5,0.5,95,140.0
7136,C4,504.5,0.5,95,140.0
7137,G3,504.5,0.5,95,140.0
7138,D1,505.0,0.5,95,140.0
7139,D3,505.0,0.5,95,140.0
7140,A2,505.0,0.5,95,140.0
7141,D2,505.0,0.5,95,140.0
7142,B2,505.0,0.5,95,140.0
7143,F#2,505.0,0.5,95,140.0
7144,B1,505.0,0.5,95,140.0
7145,B-2,505.0,0.5,95,140.0
7146,E2,505.0,0.5,95,140.0
7147,C2,505.0,0.5,95,140.0
7148,C4,505.0,0.5,95,140.0
7149,G3,505.0,0.5,95,140.0
7150,D1,505.5,0.5,95,140.0
7151,C2,505.5,0.5,95,140.0
7152,C3,505.5,0.5,95,140.0
7153,G2,505.5,0.5,95,140.0
7154,C2,505.5,0.5,95,140.0
7155,D1,506.0,0.5,95,140.0
7156,B2,506.0,0.5,95,140.0
7157,F#2,506.0,0.5,95,140.0
7158,B1,506.0,0.5,95,140.0
7159,B2,506.0,0.5,95,140.0
7160,F#2,506.0,0.5,95,140.0
7161,B1,506.0,0.5,95,140.0
7162,B-2,506.0,0.5,95,140.0
7163,C2,506.0,0.5,95,140.0
7164,C4,506.0,0.5,95,140.0
7165,G3,506.0,0.5,95,140.0
7166,D1,506.5,0.5,95,140.0
7167,C2,506.5,0.5,95,140.0
7168,B2,506.5,0.5,95,140.0
7169,F#2,506.5,0.5,95,140.0
7170,B1,506.5,0.5,95,140.0
7171,C4,506.5,0.5,95,140.0
7172,G3,506.5,0.5,95,140.0
7173,D1,507.0,0.5,95,140.0
7174,B2,507.0,0.5,95,140.0
7175,F#2,507.0,0.5,95,140.0
7176,B1,507.0,0.5,95,140.0
7177,B2,507.0,0.5,95,140.0
7178,F#2,507.0,0.5,95,140.0
7179,B1,507.0,0.5,95,140.0
7180,B-2,507.0,0.5,95,140.0
7181,E2,507.0,0.5,95,140.0
7182,C2,507.0,0.5,95,140.0
7183,C4,507.0,0.5,95,140.0
7184,G3,507.0,0.5,95,140.0
7185,F1,507.5,0.5,95,140.0
7186,B2,507.5,0.5,95,140.0
7187,F#2,507.5,0.5,95,140.0
7188,B1,507.5,0.5,95,140.0
7189,B3,507.5,0.5,95,140.0
7190,B2,507.5,0.5,95,140.0
7191,C#3,507.5,0.5,95,140.0
7192,C2,507.5,0.5,95,140.0
7193,C4,507.5,0.5,95,140.0
7194,G3,507.5,0.5,95,140.0
7195,F1,508.0,0.5,95,140.0
7196,B2,508.0,0.5,95,140.0
7197,F#2,508.0,0.5,95,140.0
7198,B1,508.0,0.5,95,140.0
7199,B3,508.0,0.5,95,140.0
7200,B2,508.0,0.5,95,140.0
7201,C4,508.0,0.5,95,140.0
7202,G3,508.0,0.5,95,140.0
7203,C1,508.5,0.5,95,140.0
7204,C2,508.5,0.5,95,140.0
7205,B2,508.5,0.5,95,140.0
7206,F#2,508.5,0.5,95,140.0
7207,B1,508.5,0.5,95,140.0
7208,D4,508.5,0.5,95,140.0
7209,D3,508.5,0.5,95,140.0
7210,C4,508.5,0.5,95,140.0
7211,G3,508.5,0.5,95,140.0
7212,C1,509.0,0.5,95,140.0
7213,B2,509.0,0.5,95,140.0
7214,F#2,509.0,0.5,95,140.0
7215,B1,509.0,0.5,95,140.0
7216,D4,509.0,0.5,95,140.0
7217,D3,509.0,0.5,95,140.0
7218,B-2,509.0,0.5,95,140.0
7219,E2,509.0,0.5,95,140.0
7220,C2,509.0,0.5,95,140.0
7221,C4,509.0,0.5,95,140.0
7222,G3,509.0,0.5,95,140.0
7223,C1,509.5,0.5,95,140.0
7224,C2,509.5,0.5,95,140.0
7225,B2,509.5,0.5,95,140.0
7226,F#2,509.5,0.5,95,140.0
7227,B1,509.5,0.5,95,140.0
7228,E4,509.5,0.5,95,140.0
7229,E3,509.5,0.5,95,140.0
7230,C4,509.5,0.5,95,140.0
7231,G3,509.5,0.5,95,140.0
7232,C1,510.0,0.5,95,140.0
7233,B2,510.0,0.5,95,140.0
7234,F#2,510.0,0.5,95,140.0
7235,B1,510.0,0.5,95,140.0
7236,E4,510.0,0.5,95,140.0
7237,E3,510.0,0.5,95,140.0
7238,B-2,510.0,0.5,95,140.0
7239,C2,510.0,0.5,95,140.0
7240,C4,510.0,0.5,95,140.0
7241,G3,510.0,0.5,95,140.0
7242,D1,510.5,0.5,95,140.0
7243,C2,510.5,0.5,95,140.0
7244,B2,510.5,0.5,95,140.0
7245,F#2,510.5,0.5,95,140.0
7246,B1,510.5,0.5,95,140.0
7247,F#4,510.5,0.5,95,140.0
7248,F#3,510.5,0.5,95,140.0
7249,C4,510.5,0.5,95,140.0
7250,G3,510.5,0.5,95,140.0
7251,C1,511.0,0.5,95,140.0
7252,B2,511.0,0.5,95,140.0
7253,F#2,511.0,0.5,95,140.0
7254,B1,511.0,0.5,95,140.0
7255,F#4,511.0,0.5,95,140.0
7256,F#3,511.0,0.5,95,140.0
7257,B-2,511.0,0.5,95,140.0
7258,E2,511.0,0.5,95,140.0
7259,C2,511.0,0.5,95,140.0
7260,C4,511.0,0.5,95,140.0
7261,G3,511.0,0.5,95,140.0
7262,B0,511.5,0.5,95,140.0
7263,B2,511.5,0.5,95,140.0
7264,F#2,511.5,0.5,95,140.0
7265,B1,511.5,0.5,95,140.0
7266,G4,511.5,0.5,95,140.0
7267,G3,511.5,0.5,95,140.0
7268,C#3,511.5,0.5,95,140.0
7269,C2,511.5,0.5,95,140.0
7270,C4,511.5,0.5,95,140.0
7271,G3,511.5,0.5,95,140.0
7272,B0,512.0,0.5,95,140.0
7273,B2,512.0,0.5,95,140.0
7274,F#2,512.0,0.5,95,140.0
7275,B1,512.0,0.5,95,140.0
7276,F#4,512.0,1.0,95,140.0
7277,F#3,512.0,1.0,95,140.0
7278,B-2,512.0,0.5,95,140.0
7279,C2,512.0,0.5,95,140.0
7280,C4,512.0,0.5,95,140.0
7281,G3,512.0,0.5,95,140.0
7282,B0,512.5,0.5,95,140.0
7283,C2,512.5,0.5,95,140.0
7284,B2,512.5,0.5,95,140.0
7285,F#2,512.5,0.5,95,140.0
7286,B1,512.5,0.5,95,140.0
7287,C4,512.5,0.5,95,140.0
7288,G3,512.5,0.5,95,140.0
7289,B0,513.0,0.5,95,140.0
7290,B2,513.0,0.5,95,140.0
7291,F#2,513.0,0.5,95,140.0
7292,B1,513.0,0.5,95,140.0
7293,B-2,513.0,0.5,95,140.0
7294,E2,513.0,0.5,95,140.0
7295,C2,513.0,0.5,95,140.0
7296,C4,513.0,0.5,95,140.0
7297,G3,513.0,0.5,95,140.0
7298,B1,513.5,0.5,95,140.0
7299,C2,513.5,0.5,95,140.0
7300,B2,513.5,0.5,95,140.0
7301,F#2,513.5,0.5,95,140.0
7302,B1,513.5,0.5,95,140.0
7303,D3,513.5,0.5,95,140.0
7304,A2,513.5,0.5,95,140.0
7305,D2,513.5,0.5,95,140.0
7306,C4,513.5,0.5,95,140.0
7307,G3,513.5,0.5,95,140.0
7308,B1,514.0,0.5,95,140.0
7309,B2,514.0,0.5,95,140.0
7310,F#2,514.0,0.5,95,140.0
7311,B1,514.0,0.5,95,140.0
7312,D3,514.0,0.5,95,140.0
7313,A2,514.0,0.5,95,140.0
7314,D2,514.0,0.5,95,140.0
7315,B-2,514.0,0.5,95,140.0
7316,C2,514.0,0.5,95,140.0
7317,D2,514.5,0.5,95,140.0
7318,E2,514.5,0.5,95,140.0
7319,D3,514.5,0.5,95,140.0
7320,A2,514.5,0.5,95,140.0
7321,D2,514.5,0.5,95,140.0
7322,D3,514.5,0.5,95,140.0
7323,A2,514.5,0.5,95,140.0
7324,D2,514.5,0.5,95,140.0
7325,C4,514.5,0.5,95,140.0
7326,G3,514.5,0.5,95,140.0
7327,D2,515.0,0.5,95,140.0
7328,E2,515.0,0.5,95,140.0
7329,D3,515.0,0.5,95,140.0
7330,A2,515.0,0.5,95,140.0
7331,D2,515.0,0.5,95,140.0
7332,C4,515.0,0.5,95,140.0
7333,G3,515.0,0.5,95,140.0
7334,E2,515.5,0.5,95,140.0
7335,D3,515.5,0.5,95,140.0
7336,A2,515.5,0.5,95,140.0
7337,D2,515.5,0.5,95,140.0
7338,D3,515.5,0.5,95,140.0
7339,A2,515.5,0.5,95,140.0
7340,D2,515.5,0.5,95,140.0
7341,C#3,515.5,0.5,95,140.0
7342,C2,515.5,0.5,95,140.0
7343,C4,515.5,0.5,95,140.0
7344,G3,515.5,0.5,95,140.0
7345,E2,516.0,0.5,95,140.0
7346,D3,516.0,0.5,95,140.0
7347,A2,516.0,0.5,95,140.0
7348,D2,516.0,0.5,95,140.0
7349,D3,516.0,0.5,95,140.0
7350,A2,516.0,0.5,95,140.0
7351,D2,516.0,0.5,95,140.0
7352,C4,516.0,0.5,95,140.0
7353,G3,516.0,0.5,95,140.0
7354,F#2,516.5,0.5,95,140.0
7355,C2,516.5,0.5,95,140.0
7356,D3,516.5,0.5,95,140.0
7357,A2,516.5,0.5,95,140.0
7358,D2,516.5,0.5,95,140.0
7359,D3,516.5,0.5,95,140.0
7360,A2,516.5,0.5,95,140.0
7361,D2,516.5,0.5,95,140.0
7362,C4,516.5,0.5,95,140.0
7363,G3,516.5,0.5,95,140.0
7364,F#2,517.0,0.5,95,140.0
7365,D3,517.0,0.5,95,140.0
7366,A2,517.0,0.5,95,140.0
7367,D2,517.0,0.5,95,140.0
7368,D3,517.0,0.5,95,140.0
7369,A2,517.0,0.5,95,140.0
7370,D2,517.0,0.5,95,140.0
7371,B-2,517.0,0.5,95,140.0
7372,E2,517.0,0.5,95,140.0
7373,C2,517.0,0.5,95,140.0
7374,C4,517.0,0.5,95,140.0
7375,G3,517.0,0.5,95,140.0
7376,G2,517.5,0.5,95,140.0
7377,C2,517.5,0.5,95,140.0
7378,D3,517.5,0.5,95,140.0
7379,A2,517.5,0.5,95,140.0
7380,D2,517.5,0.5,95,140.0
7381,F3,517.5,0.5,95,140.0
7382,C3,517.5,0.5,95,140.0
7383,F2,517.5,0.5,95,140.0
7384,C4,517.5,0.5,95,140.0
7385,G3,517.5,0.5,95,140.0
7386,F#2,518.0,1.0,95,140.0
7387,D3,518.0,0.5,95,140.0
7388,A2,518.0,0.5,95,140.0
7389,D2,518.0,0.5,95,140.0
7390,B-2,518.0,0.5,95,140.0
7391,C2,518.0,0.5,95,140.0
7392,C4,518.0,0.5,95,140.0
7393,G3,518.0,0.5,95,140.0
7394,C2,518.5,0.5,95,140.0
7395,D3,518.5,0.5,95,140.0
7396,A2,518.5,0.5,95,140.0
7397,D2,518.5,0.5,95,140.0
7398,F3,518.5,0.5,95,140.0
7399,C3,518.5,0.5,95,140.0
7400,F2,518.5,0.5,95,140.0
7401,F3,519.0,0.5,95,140.0
7402,C3,519.0,0.5,95,140.0
7403,F2,519.0,0.5,95,140.0
7404,C3,519.0,0.5,95,140.0
7405,G2,519.0,0.5,95,140.0
7406,C2,519.0,0.5,95,140.0
7407,B-2,519.0,0.5,95,140.0
7408,E2,519.0,0.5,95,140.0
7409,C2,519.0,0.5,95,140.0
7410,C4,519.0,0.5,95,140.0
7411,G3,519.0,0.5,95,140.0
7412,D1,519.5,0.5,95,140.0
7413,C3,519.5,0.5,95,140.0
7414,G2,519.5,0.5,95,140.0
7415,C2,519.5,0.5,95,140.0
7416,C#3,519.5,0.5,95,140.0
7417,C2,519.5,0.5,95,140.0
7418,C4,519.5,0.5,95,140.0
7419,G3,519.5,0.5,95,140.0
7420,D1,520.0,0.5,95,140.0
7421,F3,520.0,0.5,95,140.0
7422,C3,520.0,0.5,95,140.0
7423,F2,520.0,0.5,95,140.0
7424,C3,520.0,0.5,95,140.0
7425,G2,520.0,0.5,95,140.0
7426,C2,520.0,0.5,95,140.0
7427,C4,520.0,0.5,95,140.0
7428,G3,520.0,0.5,95,140.0
7429,D1,520.5,0.5,95,140.0
7430,C2,520.5,0.5,95,140.0
7431,C3,520.5,0.5,95,140.0
7432,G2,520.5,0.5,95,140.0
7433,C2,520.5,0.5,95,140.0
7434,C3,520.5,0.5,95,140.0
7435,G2,520.5,0.5,95,140.0
7436,C2,520.5,0.5,95,140.0
7437,C4,520.5,0.5,95,140.0
7438,G3,520.5,0.5,95,140.0
7439,D1,521.0,0.5,95,140.0
7440,C3,521.0,0.5,95,140.0
7441,G2,521.0,0.5,95,140.0
7442,C2,521.0,0.5,95,140.0
7443,D3,521.0,0.5,95,140.0
7444,A2,521.0,0.5,95,140.0
7445,D2,521.0,0.5,95,140.0
7446,B-2,521.0,0.5,95,140.0
7447,E2,521.0,0.5,95,140.0
7448,C2,521.0,0.5,95,140.0
7449,C4,521.0,0.5,95,140.0
7450,G3,521.0,0.5,95,140.0
7451,D1,521.5,0.5,95,140.0
7452,C2,521.5,0.5,95,140.0
7453,C3,521.5,0.5,95,140.0
7454,G2,521.5,0.5,95,140.0
7455,C2,521.5,0.5,95,140.0
7456,C3,521.5,0.5,95,140.0
7457,G2,521.5,0.5,95,140.0
7458,C2,521.5,0.5,95,140.0
7459,C4,521.5,0.5,95,140.0
7460,G3,521.5,0.5,95,140.0
7461,D1,522.0,0.5,95,140.0
7462,C3,522.0,0.5,95,140.0
7463,G2,522.0,0.5,95,140.0
7464,C2,522.0,0.5,95,140.0
7465,B2,522.0,0.5,95,140.0
7466,F#2,522.0,0.5,95,140.0
7467,B1,522.0,0.5,95,140.0
7468,B-2,522.0,0.5,95,140.0
7469,C2,522.0,0.5,95,140.0
7470,C4,522.0,0.5,95,140.0
7471,G3,522.0,0.5,95,140.0
7472,D1,522.5,0.5,95,140.0
7473,C2,522.5,0.5,95,140.0
7474,D3,522.5,0.5,95,140.0
7475,A2,522.5,0.5,95,140.0
7476,D2,522.5,0.5,95,140.0
7477,C4,522.5,0.5,95,140.0
7478,G3,522.5,0.5,95,140.0
7479,D1,523.0,0.5,95,140.0
7480,C3,523.0,0.5,95,140.0
7481,G2,523.0,0.5,95,140.0
7482,C2,523.0,0.5,95,140.0
7483,B2,523.0,0.5,95,140.0
7484,F#2,523.0,0.5,95,140.0
7485,B1,523.0,0.5,95,140.0
7486,B-2,523.0,0.5,95,140.0
7487,E2,523.0,0.5,95,140.0
7488,C2,523.0,0.5,95,140.0
7489,C4,523.0,0.5,95,140.0
7490,G3,523.0,0.5,95,140.0
7491,F1,523.5,0.5,95,140.0
7492,B2,523.5,0.5,95,140.0
7493,F#2,523.5,0.5,95,140.0
7494,B1,523.5,0.5,95,140.0
7495,B2,523.5,0.5,95,140.0
7496,F#2,523.5,0.5,95,140.0
7497,B1,523.5,0.5,95,140.0
7498,C#3,523.5,0.5,95,140.0
7499,C2,523.5,0.5,95,140.0
7500,C4,523.5,0.5,95,140.0
7501,G3,523.5,0.5,95,140.0
7502,F1,524.0,0.5,95,140.0
7503,E2,524.0,0.125,95,140.0
7504,B2,524.0,0.5,95,140.0
7505,F#2,524.0,0.5,95,140.0
7506,B1,524.0,0.5,95,140.0
7507,C4,524.0,0.5,95,140.0
7508,G3,524.0,0.5,95,140.0
7509,E2,524.125,0.125,95,140.0
7510,E2,524.25,0.125,95,140.0
7511,E2,524.375,0.125,95,140.0
7512,C1,524.5,0.5,95,140.0
7513,F2,524.5,0.125,95,140.0
7514,B2,524.5,0.5,95,140.0
7515,F#2,524.5,0.5,95,140.0
7516,B1,524.5,0.5,95,140.0
7517,B3,524.5,0.5,95,140.0
7518,B2,524.5,0.5,95,140.0
7519,C4,524.5,0.5,95,140.0
7520,G3,524.5,0.5,95,140.0
7521,F2,524.625,0.125,95,140.0
7522,F2,524.75,0.125,95,140.0
7523,F2,524.875,0.125,95,140.0
7524,C1,525.0,0.5,95,140.0
7525,F2,525.0,0.125,95,140.0
7526,B2,525.0,0.5,95,140.0
7527,F#2,525.0,0.5,95,140.0
7528,B1,525.0,0.5,95,140.0
7529,B3,525.0,0.5,95,140.0
7530,B2,525.0,0.5,95,140.0
7531,C4,525.0,0.5,95,140.0
7532,G3,525.0,0.5,95,140.0
7533,F2,525.125,0.125,95,140.0
7534,F2,525.25,0.125,95,140.0
7535,F2,525.375,0.125,95,140.0
7536,C1,525.5,0.5,95,140.0
7537,F2,525.5,0.125,95,140.0
7538,B2,525.5,0.5,95,140.0
7539,F#2,525.5,0.5,95,140.0
7540,B1,525.5,0.5,95,140.0
7541,D4,525.5,0.5,95,140.0
7542,D3,525.5,0.5,95,140.0
7543,C4,525.5,0.5,95,140.0
7544,G3,525.5,0.5,95,140.0
7545,F2,525.625,0.125,95,140.0
7546,F2,525.75,0.125,95,140.0
7547,F2,525.875,0.125,95,140.0
7548,C1,526.0,0.5,95,140.0
7549,F2,526.0,0.125,95,140.0
7550,B2,526.0,0.5,95,140.0
7551,F#2,526.0,0.5,95,140.0
7552,B1,526.0,0.5,95,140.0
7553,D4,526.0,0.5,95,140.0
7554,D3,526.0,0.5,95,140.0
7555,C4,526.0,0.5,95,140.0
7556,G3,526.0,0.5,95,140.0
7557,F2,526.125,0.125,95,140.0
7558,F2,526.25,0.125,95,140.0
7559,F2,526.375,0.125,95,140.0
7560,D1,526.5,0.5,95,140.0
7561,F2,526.5,0.125,95,140.0
7562,B2,526.5,0.5,95,140.0
7563,F#2,526.5,0.5,95,140.0
7564,B1,526.5,0.5,95,140.0
7565,E4,526.5,0.5,95,140.0
7566,E3,526.5,0.5,95,140.0
7567,C4,526.5,0.5,95,140.0
7568,G3,526.5,0.5,95,140.0
7569,F2,526.625,0.125,95,140.0
7570,F2,526.75,0.125,95,140.0
7571,F2,526.875,0.125,95,140.0
7572,C1,527.0,0.5,95,140.0
7573,C2,527.0,0.5,95,140.0
7574,B2,527.0,0.5,95,140.0
7575,F#2,527.0,0.5,95,140.0
7576,B1,527.0,0.5,95,140.0
7577,E4,527.0,0.5,95,140.0
7578,E3,527.0,0.5,95,140.0
7579,C4,527.0,0.5,95,140.0
7580,G3,527.0,0.5,95,140.0
7581,B0,527.5,0.5,95,140.0
7582,E2,527.5,0.5,95,140.0
7583,B2,527.5,0.5,95,140.0
7584,F#2,527.5,0.5,95,140.0
7585,B1,527.5,0.5,95,140.0
7586,F#4,527.5,0.5,95,140.0
7587,F#3,527.5,0.5,95,140.0
7588,C4,527.5,0.5,95,140.0
7589,G3,527.5,0.5,95,140.0
7590,C2,528.0,0.5,95,140.0
7591,B2,528.0,0.5,95,140.0
7592,F#2,528.0,0.5,95,140.0
7593,B1,528.0,0.5,95,140.0
7594,F#4,528.0,0.5,95,140.0
7595,F#3,528.0,0.5,95,140.0
7596,C4,528.0,0.5,95,140.0
7597,G3,528.0,0.5,95,140.0
7598,B0,528.25,0.5,95,140.0
7599,B2,528.5,0.5,95,140.0
7600,F#2,528.5,0.5,95,140.0
7601,B1,528.5,0.5,95,140.0
7602,G4,528.5,0.5,95,140.0
7603,G3,528.5,0.5,95,140.0
7604,A3,528.5,0.5,95,140.0
7605,F2,528.5,0.5,95,140.0
7606,C2,528.5,0.5,95,140.0
7607,C4,528.5,0.5,95,140.0
7608,G3,528.5,0.5,95,140.0
7609,B0,529.0,0.5,95,140.0
7610,B-2,529.0,0.25,95,140.0
7611,B2,529.0,0.5,95,140.0
7612,F#2,529.0,0.5,95,140.0
7613,B1,529.0,0.5,95,140.0
7614,F#4,529.0,1.0,95,140.0
7615,F#3,529.0,1.0,95,140.0
7616,C4,529.0,0.5,95,140.0
7617,G3,529.0,0.5,95,140.0
7618,A3,529.25,0.25,95,140.0
7619,F2,529.25,0.25,95,140.0
7620,C2,529.25,0.25,95,140.0
7621,B-2,529.5,0.5,95,140.0
7622,B2,529.5,0.5,95,140.0
7623,F#2,529.5,0.5,95,140.0
7624,B1,529.5,0.5,95,140.0
7625,C4,529.5,0.5,95,140.0
7626,G3,529.5,0.5,95,140.0
7627,B0,529.75,0.5,95,140.0
7628,B2,530.0,0.5,95,140.0
7629,F#2,530.0,0.5,95,140.0
7630,B1,530.0,0.5,95,140.0
7631,A3,530.0,0.5,95,140.0
7632,F2,530.0,0.5,95,140.0
7633,C2,530.0,0.5,95,140.0
7634,C4,530.0,0.5,95,140.0
7635,G3,530.0,0.5,95,140.0
7636,B-2,530.5,0.5,95,140.0
7637,B2,530.5,0.5,95,140.0
7638,F#2,530.5,0.5,95,140.0
7639,B1,530.5,0.5,95,140.0
7640,D3,530.5,0.5,95,140.0
7641,A2,530.5,0.5,95,140.0
7642,D2,530.5,0.5,95,140.0
7643,C4,530.5,0.5,95,140.0
7644,G3,530.5,0.5,95,140.0
7645,C4,531.0,0.5,95,140.0
7646,B2,531.0,0.5,95,140.0
7647,F#2,531.0,0.5,95,140.0
7648,B1,531.0,0.5,95,140.0
7649,D3,531.0,0.5,95,140.0
7650,A2,531.0,0.5,95,140.0
7651,D2,531.0,0.5,95,140.0
7652,B-2,531.0,0.5,95,140.0
7653,E2,531.0,0.5,95,140.0
7654,B0,531.5,0.5,95,140.0
7655,B2,531.5,0.5,95,140.0
7656,F#2,531.5,0.5,95,140.0
7657,B1,531.5,0.5,95,140.0
7658,D3,531.5,0.5,95,140.0
7659,A2,531.5,0.5,95,140.0
7660,D2,531.5,0.5,95,140.0
7661,A3,531.5,0.25,95,140.0
7662,F2,531.5,0.25,95,140.0
7663,C2,531.5,0.25,95,140.0
7664,C4,531.5,0.5,95,140.0
7665,G3,531.5,0.5,95,140.0
7666,C2,531.75,0.25,95,140.0
7667,B0,532.0,0.5,95,140.0
7668,D3,532.0,0.5,95,140.0
7669,A2,532.0,0.5,95,140.0
7670,D2,532.0,0.5,95,140.0
7671,D3,532.0,0.5,95,140.0
7672,A2,532.0,0.5,95,140.0
7673,D2,532.0,0.5,95,140.0
7674,A3,532.0,0.25,95,140.0
7675,F2,532.0,0.25,95,140.0
7676,C2,532.0,0.25,95,140.0
7677,C4,532.0,0.5,95,140.0
7678,G3,532.0,0.5,95,140.0
7679,C2,532.25,0.25,95,140.0
7680,B-2,532.5,0.5,95,140.0
7681,D3,532.5,0.5,95,140.0
7682,A2,532.5,0.5,95,140.0
7683,D2,532.5,0.5,95,140.0
7684,C4,532.5,0.5,95,140.0
7685,G3,532.5,0.5,95,140.0
7686,D3,533.0,0.5,95,140.0
7687,A2,533.0,0.5,95,140.0
7688,D2,533.0,0.5,95,140.0
7689,D3,533.0,0.5,95,140.0
7690,A2,533.0,0.5,95,140.0
7691,D2,533.0,0.5,95,140.0
7692,B-2,533.0,0.5,95,140.0
7693,E2,533.0,0.5,95,140.0
7694,C4,533.0,0.5,95,140.0
7695,G3,533.0,0.5,95,140.0
7696,B0,533.5,0.5,95,140.0
7697,D3,533.5,0.5,95,140.0
7698,A2,533.5,0.5,95,140.0
7699,D2,533.5,0.5,95,140.0
7700,D3,533.5,0.5,95,140.0
7701,A2,533.5,0.5,95,140.0
7702,D2,533.5,0.5,95,140.0
7703,A3,533.5,0.5,95,140.0
7704,F2,533.5,0.5,95,140.0
7705,C2,533.5,0.5,95,140.0
7706,C4,533.5,0.5,95,140.0
7707,G3,533.5,0.5,95,140.0
7708,B-2,534.0,0.25,95,140.0
7709,D3,534.0,0.5,95,140.0
7710,A2,534.0,0.5,95,140.0
7711,D2,534.0,0.5,95,140.0
7712,D3,534.0,0.5,95,140.0
7713,A2,534.0,0.5,95,140.0
7714,D2,534.0,0.5,95,140.0
7715,C4,534.0,0.5,95,140.0
7716,G3,534.0,0.5,95,140.0
7717,B0,534.25,0.5,95,140.0
7718,A3,534.25,0.25,95,140.0
7719,F2,534.25,0.25,95,140.0
7720,C2,534.25,0.25,95,140.0
7721,B-2,534.5,0.5,95,140.0
7722,D3,534.5,0.5,95,140.0
7723,A2,534.5,0.5,95,140.0
7724,D2,534.5,0.5,95,140.0
7725,F3,534.5,0.5,95,140.0
7726,C3,534.5,0.5,95,140.0
7727,F2,534.5,0.5,95,140.0
7728,C4,534.5,0.5,95,140.0
7729,G3,534.5,0.5,95,140.0
7730,B0,535.0,0.5,95,140.0
7731,D3,535.0,0.5,95,140.0
7732,A2,535.0,0.5,95,140.0
7733,D2,535.0,0.5,95,140.0
7734,A3,535.0,0.5,95,140.0
7735,E2,535.0,0.5,95,140.0
7736,C2,535.0,0.5,95,140.0
7737,C4,535.0,0.5,95,140.0
7738,G3,535.0,0.5,95,140.0
7739,B-2,535.5,0.5,95,140.0
7740,D3,535.5,0.5,95,140.0
7741,A2,535.5,0.5,95,140.0
7742,D2,535.5,0.5,95,140.0
7743,F3,535.5,0.5,95,140.0
7744,C3,535.5,0.5,95,140.0
7745,F2,535.5,0.5,95,140.0
7746,B-2,536.0,0.5,95,140.0
7747,D3,536.0,0.5,95,140.0
7748,A2,536.0,0.5,95,140.0
7749,D2,536.0,0.5,95,140.0
7750,C3,536.0,0.5,95,140.0
7751,G2,536.0,0.5,95,140.0
7752,C2,536.0,0.5,95,140.0
7753,C4,536.0,0.5,95,140.0
7754,G3,536.0,0.5,95,140.0
7755,B0,536.5,0.5,95,140.0
7756,F3,536.5,0.5,95,140.0
7757,C3,536.5,0.5,95,140.0
7758,F2,536.5,0.5,95,140.0
7759,C3,536.5,0.5,95,140.0
7760,G2,536.5,0.5,95,140.0
7761,C2,536.5,0.5,95,140.0
7762,A3,536.5,0.5,95,140.0
7763,F2,536.5,0.5,95,140.0
7764,C2,536.5,0.5,95,140.0
7765,C4,536.5,0.5,95,140.0
7766,G3,536.5,0.5,95,140.0
7767,C1,537.0,0.5,95,140.0
7768,C3,537.0,0.5,95,140.0
7769,G2,537.0,0.5,95,140.0
7770,C2,537.0,0.5,95,140.0
7771,A3,537.0,0.5,95,140.0
7772,E2,537.0,0.5,95,140.0
7773,C2,537.0,0.5,95,140.0
7774,C4,537.0,0.5,95,140.0
7775,G3,537.0,0.5,95,140.0
7776,B0,537.5,0.5,95,140.0
7777,F3,537.5,0.5,95,140.0
7778,C3,537.5,0.5,95,140.0
7779,F2,537.5,0.5,95,140.0
7780,C3,537.5,0.5,95,140.0
7781,G2,537.5,0.5,95,140.0
7782,C2,537.5,0.5,95,140.0
7783,A3,537.5,0.25,95,140.0
7784,E2,537.5,0.25,95,140.0
7785,C2,537.5,0.25,95,140.0
7786,C4,537.5,0.5,95,140.0
7787,G3,537.5,0.5,95,140.0
7788,E2,537.75,0.25,95,140.0
7789,D1,538.0,1.0,95,140.0
7790,C3,538.0,0.5,95,140.0
7791,G2,538.0,0.5,95,140.0
7792,C2,538.0,0.5,95,140.0
7793,D3,538.0,0.5,95,140.0
7794,A2,538.0,0.5,95,140.0
7795,D2,538.0,0.5,95,140.0
7796,A3,538.0,0.5,95,140.0
7797,F2,538.0,0.5,95,140.0
7798,C2,538.0,0.5,95,140.0
7799,C4,538.0,0.5,95,140.0
7800,G3,538.0,0.5,95,140.0
7801,B-2,538.5,0.5,95,140.0
7802,C3,538.5,0.5,95,140.0
7803,G2,538.5,0.5,95,140.0
7804,C2,538.5,0.5,95,140.0
7805,C3,538.5,0.5,95,140.0
7806,G2,538.5,0.5,95,140.0
7807,C2,538.5,0.5,95,140.0
7808,C4,538.5,0.5,95,140.0
7809,G3,538.5,0.5,95,140.0
7810,A1,539.0,1.0,95,140.0
7811,C3,539.0,0.5,95,140.0
7812,G2,539.0,0.5,95,140.0
7813,C2,539.0,0.5,95,140.0
7814,B2,539.0,0.5,95,140.0
7815,F#2,539.0,0.5,95,140.0
7816,B1,539.0,0.5,95,140.0
7817,B-2,539.0,0.5,95,140.0
7818,E2,539.0,0.5,95,140.0
7819,C4,539.0,0.5,95,140.0
7820,G3,539.0,0.5,95,140.0
7821,B-2,539.5,0.5,95,140.0
7822,C3,539.5,0.5,95,140.0
7823,G2,539.5,0.5,95,140.0
7824,C2,539.5,0.5,95,140.0
7825,C4,539.5,0.5,95,140.0
7826,G3,539.5,0.5,95,140.0
7827,B2,539.75,0.25,95,140.0
7828,F#2,539.75,0.25,95,140.0
7829,B1,539.75,0.25,95,140.0
7830,A1,540.0,0.5,95,140.0
7831,D3,540.0,0.5,95,140.0
7832,A2,540.0,0.5,95,140.0
7833,D2,540.0,0.5,95,140.0
7834,B2,540.0,0.5,95,140.0
7835,F#2,540.0,0.5,95,140.0
7836,B1,540.0,0.5,95,140.0
7837,B-2,540.0,0.5,95,140.0
7838,C2,540.0,0.5,95,140.0
7839,B0,540.5,0.5,95,140.0
7840,C3,540.5,0.5,95,140.0
7841,G2,540.5,0.5,95,140.0
7842,C2,540.5,0.5,95,140.0
7843,A3,540.5,0.5,95,140.0
7844,F2,540.5,0.5,95,140.0
7845,C2,540.5,0.5,95,140.0
7846,B2,540.75,0.5,95,140.0
7847,F#2,540.75,0.5,95,140.0
7848,B1,540.75,0.5,95,140.0
7849,B-2,541.0,0.25,95,140.0
7850,B2,541.0,0.5,95,140.0
7851,F#2,541.0,0.5,95,140.0
7852,B1,541.0,0.5,95,140.0
7853,B0,541.25,0.5,95,140.0
7854,A3,541.25,0.25,95,140.0
7855,F2,541.25,0.25,95,140.0
7856,C2,541.25,0.25,95,140.0
7857,B-2,541.5,0.5,95,140.0
7858,B2,541.5,0.5,95,140.0
7859,F#2,541.5,0.5,95,140.0
7860,B1,541.5,0.5,95,140.0
7861,B2,541.75,0.25,95,140.0
7862,F#2,541.75,0.25,95,140.0
7863,B1,541.75,0.25,95,140.0
7864,B0,542.0,0.5,95,140.0
7865,B2,542.0,0.5,95,140.0
7866,F#2,542.0,0.5,95,140.0
7867,B1,542.0,0.5,95,140.0
7868,A3,542.0,0.5,95,140.0
7869,F2,542.0,0.5,95,140.0
7870,C2,542.0,0.5,95,140.0
7871,B-2,542.5,0.5,95,140.0
7872,B2,542.75,0.5,95,140.0
7873,F#2,542.75,0.5,95,140.0
7874,B1,542.75,0.5,95,140.0
7875,C4,543.0,0.5,95,140.0
7876,B-2,543.0,0.5,95,140.0
7877,E2,543.0,0.5,95,140.0
7878,B2,543.25,0.5,95,140.0
7879,F#2,543.25,0.5,95,140.0
7880,B1,543.25,0.5,95,140.0
7881,B0,543.5,0.5,95,140.0
7882,A3,543.5,0.25,95,140.0
7883,B2,543.5,0.5,95,140.0
7884,F#2,543.5,0.5,95,140.0
7885,B1,543.5,0.5,95,140.0
7886,C2,543.75,0.25,95,140.0
7887,B2,543.75,0.5,95,140.0
7888,F#2,543.75,0.5,95,140.0
7889,B1,543.75,0.5,95,140.0
7890,B0,544.0,0.5,95,140.0
7891,A3,544.0,0.25,95,140.0
7892,F2,544.0,0.25,95,140.0
7893,C2,544.0,0.25,95,140.0
7894,C2,544.25,0.25,95,140.0
7895,B-2,544.5,0.5,95,140.0
7896,B-2,545.0,0.5,95,140.0
7897,E2,545.0,0.5,95,140.0
7898,B2,545.25,0.5,95,140.0
7899,F#2,545.25,0.5,95,140.0
7900,B1,545.25,0.5,95,140.0
7901,B2,545.25,0.5,95,140.0
7902,F#2,545.25,0.5,95,140.0
7903,B1,545.25,0.5,95,140.0
7904,B0,545.5,0.5,95,140.0
7905,A3,545.5,0.5,95,140.0
7906,F2,545.5,0.5,95,140.0
7907,C2,545.5,0.5,95,140.0
7908,B2,545.75,0.5,95,140.0
7909,F#2,545.75,0.5,95,140.0
7910,B1,545.75,0.5,95,140.0
7911,B-2,546.0,0.25,95,140.0
7912,B2,546.0,0.5,95,140.0
7913,F#2,546.0,0.5,95,140.0
7914,B1,546.0,0.5,95,140.0
7915,B0,546.25,0.5,95,140.0
7916,A3,546.25,0.25,95,140.0
7917,F2,546.25,0.25,95,140.0
7918,C2,546.25,0.25,95,140.0
7919,B-2,546.5,0.5,95,140.0
7920,B2,546.75,0.5,95,140.0
7921,F#2,546.75,0.5,95,140.0
7922,B1,546.75,0.5,95,140.0
7923,B0,547.0,0.5,95,140.0
7924,A3,547.0,0.5,95,140.0
7925,E2,547.0,0.5,95,140.0
7926,C2,547.0,0.5,95,140.0
7927,B2,547.25,0.5,95,140.0
7928,F#2,547.25,0.5,95,140.0
7929,B1,547.25,0.5,95,140.0
7930,B-2,547.5,0.5,95,140.0
7931,F3,548.0,0.5,95,140.0
7932,B2,548.0,0.5,95,140.0
7933,F#2,548.0,0.5,95,140.0
7934,B1,548.0,0.5,95,140.0
7935,B2,548.25,0.5,95,140.0
7936,F#2,548.25,0.5,95,140.0
7937,B1,548.25,0.5,95,140.0
7938,B0,548.5,0.5,95,140.0
7939,B-2,548.5,0.5,95,140.0
7940,F2,548.5,0.5,95,140.0
7941,C2,548.5,0.5,95,140.0
7942,B2,548.75,0.5,95,140.0
7943,F#2,548.75,0.5,95,140.0
7944,B1,548.75,0.5,95,140.0
7945,C3,548.75,0.5,95,140.0
7946,G2,548.75,0.5,95,140.0
7947,C2,548.75,0.5,95,140.0
7948,C1,549.0,0.5,95,140.0
7949,B-2,549.0,0.5,95,140.0
7950,E2,549.0,0.5,95,140.0
7951,C2,549.0,0.5,95,140.0
7952,B2,549.25,0.5,95,140.0
7953,F#2,549.25,0.5,95,140.0
7954,B1,549.25,0.5,95,140.0
7955,B0,549.5,0.5,95,140.0
7956,B-2,549.5,0.25,95,140.0
7957,F2,549.5,0.25,95,140.0
7958,C2,549.5,0.25,95,140.0
7959,C2,549.75,0.25,95,140.0
7960,D3,549.75,1.0,95,140.0
7961,A2,549.75,1.0,95,140.0
7962,D2,549.75,1.0,95,140.0
7963,F1,550.0,333/1000,95,140.0
7964,E2,550.0,333/1000,95,140.0
7965,F2,550.0,333/1000,95,140.0
7966,C2,550.0,333/1000,95,140.0
7967,B2,550.25,0.5,95,140.0
7968,F#2,550.25,0.5,95,140.0
7969,B1,550.25,0.5,95,140.0
7970,E1,550.333,333/1000,95,140.0
7971,E2,550.333,333/1000,95,140.0
7972,F2,550.333,333/1000,95,140.0
7973,C2,550.333,333/1000,95,140.0
7974,E-1,550.667,333/1000,95,140.0
7975,E2,550.667,333/1000,95,140.0
7976,F2,550.667,333/1000,95,140.0
7977,C2,550.667,333/1000,95,140.0
7978,A4,550.75,1.0,95,140.0
7979,C3,550.75,0.5,95,140.0
7980,G2,550.75,0.5,95,140.0
7981,C2,550.75,0.5,95,140.0
7982,D1,551.0,333/1000,95,140.0
7983,E2,551.0,333/1000,95,140.0
7984,F2,551.0,333/1000,95,140.0
7985,C2,551.0,333/1000,95,140.0
7986,B2,551.25,0.5,95,140.0
7987,F#2,551.25,0.5,95,140.0
7988,B1,551.25,0.5,95,140.0
7989,C#1,551.333,333/1000,95,140.0
7990,E2,551.333,333/1000,95,140.0
7991,F2,551.333,333/1000,95,140.0
7992,C2,551.333,333/1000,95,140.0
7993,C1,551.667,333/1000,95,140.0
7994,E2,551.667,333/1000,95,140.0
7995,F2,551.667,333/1000,95,140.0
7996,C2,551.667,333/1000,95,140.0
7997,A4,551.75,0.5,95,140.0
7998,D3,551.75,1.0,95,140.0
7999,A2,551.75,1.0,95,140.0
8000,D2,551.75,1.0,95,140.0
8001,C1,552.0,0.5,95,140.0
8002,B2,552.0,0.5,95,140.0
8003,F2,552.0,0.5,95,140.0
8004,C2,552.0,0.5,95,140.0
8005,B2,552.25,0.5,95,140.0
8006,F#2,552.25,0.5,95,140.0
8007,B1,552.25,0.5,95,140.0
8008,A4,552.75,1.0,95,140.0
8009,C1,552.75,0.5,95,140.0
8010,B2,552.75,0.5,95,140.0
8011,F2,552.75,0.5,95,140.0
8012,C2,552.75,0.5,95,140.0
8013,B2,553.0,0.5,95,140.0
8014,F#2,553.0,0.5,95,140.0
8015,B1,553.0,0.5,95,140.0
8016,C1,553.5,1.0,95,140.0
8017,B2,553.5,0.5,95,140.0
8018,F2,553.5,0.5,95,140.0
8019,C2,553.5,0.5,95,140.0
8020,A4,553.75,0.5,95,140.0
8021,B2,553.75,0.5,95,140.0
8022,F#2,553.75,0.5,95,140.0
8023,B1,553.75,0.5,95,140.0
8024,B2,554.25,0.5,95,140.0
8025,F#2,554.25,0.5,95,140.0
8026,B1,554.25,0.5,95,140.0
8027,B-2,554.5,0.5,95,140.0
8028,B0,554.75,0.5,95,140.0
8029,B2,555.0,0.5,95,140.0
8030,F#2,555.0,0.5,95,140.0
8031,B1,555.0,0.5,95,140.0
8032,F2,555.0,0.5,95,140.0
8033,C2,555.0,0.5,95,140.0
8034,B2,555.25,0.5,95,140.0
8035,F#2,555.25,0.5,95,140.0
8036,B1,555.25,0.5,95,140.0
8037,B0,555.5,0.5,95,140.0
8038,B-2,555.5,0.5,95,140.0
8039,B2,555.75,0.5,95,140.0
8040,F#2,555.75,0.5,95,140.0
8041,B1,555.75,0.5,95,140.0
8042,B2,555.75,0.5,95,140.0
8043,F#2,555.75,0.5,95,140.0
8044,B1,555.75,0.5,95,140.0
8045,F2,556.0,0.5,95,140.0
8046,C2,556.0,0.5,95,140.0
8047,B0,556.25,1.0,95,140.0
8048,B-2,556.5,0.5,95,140.0
8049,C4,557.25,0.5,95,140.0
8050,B2,557.25,0.5,95,140.0
8051,F#2,557.25,0.5,95,140.0
8052,B1,557.25,0.5,95,140.0
8053,B2,557.25,0.5,95,140.0
8054,F#2,557.25,0.5,95,140.0
8055,B1,557.25,0.5,95,140.0
8056,B-2,557.5,0.25,95,140.0
8057,B0,557.75,0.5,95,140.0
8058,B2,557.75,0.5,95,140.0
8059,F#2,557.75,0.5,95,140.0
8060,B1,557.75,0.5,95,140.0
8061,B2,557.75,0.25,95,140.0
8062,F2,557.75,0.25,95,140.0
8063,C2,557.75,0.25,95,140.0
8064,C2,558.0,0.25,95,140.0
8065,B2,558.0,0.5,95,140.0
8066,F#2,558.0,0.5,95,140.0
8067,B1,558.0,0.5,95,140.0
8068,B0,558.25,1.0,95,140.0
8069,B-2,558.25,0.25,95,140.0
8070,E2,558.25,0.25,95,140.0
8071,C2,558.25,0.25,95,140.0
8072,C2,558.5,0.5,95,140.0
8073,B2,558.75,0.5,95,140.0
8074,F#2,558.75,0.5,95,140.0
8075,B1,558.75,0.5,95,140.0
8076,B-2,559.25,0.25,95,140.0
8077,B2,559.25,0.5,95,140.0
8078,F#2,559.25,0.5,95,140.0
8079,B1,559.25,0.5,95,140.0
8080,F2,559.5,0.5,95,140.0
8081,G2,559.5,0.5,95,140.0
8082,B0,559.75,0.25,95,140.0
8083,B0,560.0,0.25,95,140.0
8084,B2,560.0,0.5,95,140.0
8085,F#2,560.0,0.5,95,140.0
8086,B1,560.0,0.5,95,140.0
8087,B-2,560.25,0.25,95,140.0
8088,B2,560.25,0.5,95,140.0
8089,F#2,560.25,0.5,95,140.0
8090,B1,560.25,0.5,95,140.0
8091,B0,560.5,0.5,95,140.0
8092,B2,560.5,0.5,95,140.0
8093,F2,560.5,0.5,95,140.0
8094,C2,560.5,0.5,95,140.0
8095,B2,560.75,0.5,95,140.0
8096,F#2,560.75,0.5,95,140.0
8097,B1,560.75,0.5,95,140.0
8098,C3,560.75,0.5,95,140.0
8099,G2,560.75,0.5,95,140.0
8100,C2,560.75,0.5,95,140.0
8101,B-2,561.0,1.0,95,140.0
8102,E2,561.0,1.0,95,140.0
8103,C2,561.0,1.0,95,140.0
8104,B0,561.25,1.0,95,140.0
8105,B2,561.25,0.5,95,140.0
8106,F#2,561.25,0.5,95,140.0
8107,B1,561.25,0.5,95,140.0
8108,F3,561.75,333/1000,95,140.0
8109,C3,561.75,333/1000,95,140.0
8110,F2,561.75,333/1000,95,140.0
8111,B-2,562.0,0.5,95,140.0
8112,E3,562.083,333/1000,95,140.0
8113,B2,562.083,333/1000,95,140.0
8114,E2,562.083,333/1000,95,140.0
8115,B2,562.25,0.5,95,140.0
8116,F#2,562.25,0.5,95,140.0
8117,B1,562.25,0.5,95,140.0
8118,E-3,562.417,333/1000,95,140.0
8119,B-2,562.417,333/1000,95,140.0
8120,E-2,562.417,333/1000,95,140.0
8121,F2,562.5,0.5,95,140.0
8122,C2,562.5,0.5,95,140.0
8123,B0,562.75,0.5,95,140.0
8124,C3,562.75,0.5,95,140.0
8125,G2,562.75,0.5,95,140.0
8126,C2,562.75,0.5,95,140.0
8127,D3,562.75,333/1000,95,140.0
8128,A2,562.75,333/1000,95,140.0
8129,D2,562.75,333/1000,95,140.0
8130,B-2,563.0,0.5,95,140.0
8131,F2,563.0,0.5,95,140.0
8132,C2,563.0,0.5,95,140.0
8133,C#3,563.083,333/1000,95,140.0
8134,G#2,563.083,333/1000,95,140.0
8135,C#2,563.083,333/1000,95,140.0
8136,C1,563.25,0.5,95,140.0
8137,B2,563.25,0.5,95,140.0
8138,F#2,563.25,0.5,95,140.0
8139,B1,563.25,0.5,95,140.0
8140,C3,563.417,333/1000,95,140.0
8141,G2,563.417,333/1000,95,140.0
8142,C2,563.417,333/1000,95,140.0
8143,B2,563.5,0.5,95,140.0
8144,F2,563.5,0.5,95,140.0
8145,C2,563.5,0.5,95,140.0
8146,B0,563.75,0.25,95,140.0
8147,F3,563.75,333/1000,95,140.0
8148,C3,563.75,333/1000,95,140.0
8149,F2,563.75,333/1000,95,140.0
8150,C3,563.75,0.5,95,140.0
8151,G2,563.75,0.5,95,140.0
8152,C2,563.75,0.5,95,140.0
8153,B0,564.0,0.25,95,140.0
8154,E3,564.083,333/1000,95,140.0
8155,B2,564.083,333/1000,95,140.0
8156,E2,564.083,333/1000,95,140.0
8157,D1,564.25,1.0,95,140.0
8158,B-2,564.25,1.0,95,140.0
8159,E2,564.25,1.0,95,140.0
8160,F2,564.25,1.0,95,140.0
8161,E-3,564.417,333/1000,95,140.0
8162,B-2,564.417,333/1000,95,140.0
8163,E-2,564.417,333/1000,95,140.0
8164,C3,564.5,0.5,95,140.0
8165,G2,564.5,0.5,95,140.0
8166,C2,564.5,0.5,95,140.0
8167,D3,564.75,333/1000,95,140.0
8168,A2,564.75,333/1000,95,140.0
8169,D2,564.75,333/1000,95,140.0
8170,C#3,565.083,333/1000,95,140.0
8171,G#2,565.083,333/1000,95,140.0
8172,C#2,565.083,333/1000,95,140.0
8173,A1,565.25,1.5,95,140.0
8174,C3,565.25,1.0,95,140.0
8175,G2,565.25,1.0,95,140.0
8176,C2,565.25,1.0,95,140.0
8177,B-2,565.25,1.0,95,140.0
8178,E2,565.25,1.0,95,140.0
8179,F2,565.25,1.0,95,140.0
8180,C3,565.417,333/1000,95,140.0
8181,G2,565.417,333/1000,95,140.0
8182,C2,565.417,333/1000,95,140.0
8183,C3,565.75,0.5,95,140.0
8184,G2,565.75,0.5,95,140.0
8185,C2,565.75,0.5,95,140.0
8186,C2,566.25,0.5,95,140.0
8187,C3,566.5,0.5,95,140.0
8188,G2,566.5,0.5,95,140.0
8189,C2,566.5,0.5,95,140.0
8190,B2,566.5,0.5,95,140.0
8191,F#2,566.5,0.5,95,140.0
8192,B1,566.5,0.5,95,140.0
8193,B0,566.75,0.5,95,140.0
8194,B2,566.75,0.5,95,140.0
8195,F2,566.75,0.5,95,140.0
8196,C2,566.75,0.5,95,140.0
8197,C3,567.25,1.0,95,140.0
8198,G2,567.25,1.0,95,140.0
8199,C2,567.25,1.0,95,140.0
8200,B2,567.25,0.5,95,140.0
8201,F#2,567.25,0.5,95,140.0
8202,B1,567.25,0.5,95,140.0
8203,B-2,567.25,0.25,95,140.0
8204,E2,567.25,0.25,95,140.0
8205,B0,567.5,0.5,95,140.0
8206,F2,567.5,0.5,95,140.0
8207,G2,567.5,0.5,95,140.0
8208,B2,568.0,1.0,95,140.0
8209,F#2,568.0,1.0,95,140.0
8210,B1,568.0,1.0,95,140.0
8211,B0,568.25,1.0,95,140.0
8212,B-2,568.25,0.75,95,140.0
8213,B2,568.5,0.5,95,140.0
8214,F#2,568.5,0.5,95,140.0
8215,B1,568.5,0.5,95,140.0
8216,F2,569.0,0.25,95,140.0
8217,C2,569.0,0.25,95,140.0
8218,C4,569.25,0.5,95,140.0
8219,B2,569.25,0.5,95,140.0
8220,F#2,569.25,0.5,95,140.0
8221,B1,569.25,0.5,95,140.0
8222,B-2,569.25,0.5,95,140.0
8223,C2,569.25,0.5,95,140.0
8224,B2,569.5,0.5,95,140.0
8225,F#2,569.5,0.5,95,140.0
8226,B1,569.5,0.5,95,140.0
8227,B0,569.75,0.5,95,140.0
8228,C2,569.75,0.25,95,140.0
8229,E2,569.75,0.25,95,140.0
8230,C2,570.0,0.25,95,140.0
8231,B2,570.0,1.0,95,140.0
8232,F#2,570.0,1.0,95,140.0
8233,B1,570.0,1.0,95,140.0
8234,B2,570.0,1.0,95,140.0
8235,F#2,570.0,1.0,95,140.0
8236,B1,570.0,1.0,95,140.0
8237,B0,570.25,1.0,95,140.0
8238,B-2,570.25,0.5,95,140.0
8239,C2,570.75,0.25,95,140.0
8240,B-2,571.25,0.25,95,140.0
8241,E2,571.5,0.5,95,140.0
8242,B2,571.5,0.5,95,140.0
8243,F#2,571.5,0.5,95,140.0
8244,B1,571.5,0.5,95,140.0
8245,B2,571.5,0.25,95,140.0
8246,F#2,571.5,0.25,95,140.0
8247,B1,571.5,0.25,95,140.0
8248,B0,571.75,0.25,95,140.0
8249,B2,571.75,0.25,95,140.0
8250,F#2,571.75,0.25,95,140.0
8251,B1,571.75,0.25,95,140.0
8252,B0,572.0,0.25,95,140.0
8253,B2,572.0,1.0,95,140.0
8254,F#2,572.0,1.0,95,140.0
8255,B1,572.0,1.0,95,140.0
8256,B2,572.25,0.5,95,140.0
8257,F#2,572.25,0.5,95,140.0
8258,B1,572.25,0.5,95,140.0
8259,B-2,572.25,1.0,95,140.0
8260,E2,572.25,1.0,95,140.0
8261,F2,572.25,1.0,95,140.0
8262,B0,572.5,0.5,95,140.0
8263,B2,573.0,1.0,95,140.0
8264,F#2,573.0,1.0,95,140.0
8265,B1,573.0,1.0,95,140.0
8266,B0,573.25,1.0,95,140.0
8267,B-2,573.25,1.0,95,140.0
8268,E2,573.25,1.0,95,140.0
8269,F2,573.25,1.0,95,140.0
8270,B2,573.5,0.25,95,140.0
8271,F#2,573.5,0.25,95,140.0
8272,B1,573.5,0.25,95,140.0
8273,B2,573.75,0.25,95,140.0
8274,F#2,573.75,0.25,95,140.0
8275,B1,573.75,0.25,95,140.0
8276,C2,574.25,0.5,95,140.0
8277,B2,574.25,0.5,95,140.0
8278,F#2,574.25,0.5,95,140.0
8279,B1,574.25,0.5,95,140.0
8280,B2,574.5,0.5,95,140.0
8281,F#2,574.5,0.5,95,140.0
8282,B1,574.5,0.5,95,140.0
8283,B0,574.75,0.5,95,140.0
8284,B2,574.75,0.5,95,140.0
8285,F2,574.75,0.5,95,140.0
8286,C2,574.75,0.5,95,140.0
8287,B2,575.0,1.0,95,140.0
8288,F#2,575.0,1.0,95,140.0
8289,B1,575.0,1.0,95,140.0
8290,C3,575.0,0.5,95,140.0
8291,G2,575.0,0.5,95,140.0
8292,C2,575.0,0.5,95,140.0
8293,C1,575.25,0.5,95,140.0
8294,B-2,575.25,0.25,95,140.0
8295,E2,575.25,0.25,95,140.0
8296,B2,575.5,0.25,95,140.0
8297,F#2,575.5,0.25,95,140.0
8298,B1,575.5,0.25,95,140.0
8299,F2,575.5,0.5,95,140.0
8300,G2,575.5,0.5,95,140.0
8301,B0,575.75,0.25,95,140.0
8302,B2,575.75,0.25,95,140.0
8303,F#2,575.75,0.25,95,140.0
8304,B1,575.75,0.25,95,140.0
8305,B0,576.0,333/1000,95,140.0
8306,D3,576.0,1.0,95,140.0
8307,A2,576.0,1.0,95,140.0
8308,D2,576.0,1.0,95,140.0
8309,E2,576.0,333/1000,95,140.0
8310,F2,576.0,333/1000,95,140.0
8311,C2,576.0,333/1000,95,140.0
8312,B0,576.333,333/1000,95,140.0
8313,E2,576.333,333/1000,95,140.0
8314,F2,576.333,333/1000,95,140.0
8315,C2,576.333,333/1000,95,140.0
8316,B2,576.5,0.5,95,140.0
8317,F#2,576.5,0.5,95,140.0
8318,B1,576.5,0.5,95,140.0
8319,B0,576.667,333/1000,95,140.0
8320,E2,576.667,333/1000,95,140.0
8321,F2,576.667,333/1000,95,140.0
8322,C2,576.667,333/1000,95,140.0
8323,A4,577.0,1.5,95,140.0
8324,B0,577.0,333/1000,95,140.0
8325,C3,577.0,0.5,95,140.0
8326,G2,577.0,0.5,95,140.0
8327,C2,577.0,0.5,95,140.0
8328,E2,577.0,333/1000,95,140.0
8329,F2,577.0,333/1000,95,140.0
8330,C2,577.0,333/1000,95,140.0
8331,B0,577.333,333/1000,95,140.0
8332,E2,577.333,333/1000,95,140.0
8333,F2,577.333,333/1000,95,140.0
8334,C2,577.333,333/1000,95,140.0
8335,B2,577.5,0.25,95,140.0
8336,F#2,577.5,0.25,95,140.0
8337,B1,577.5,0.25,95,140.0
8338,B0,577.667,333/1000,95,140.0
8339,E2,577.667,333/1000,95,140.0
8340,F2,577.667,333/1000,95,140.0
8341,C2,577.667,333/1000,95,140.0
8342,B2,577.75,0.25,95,140.0
8343,F#2,577.75,0.25,95,140.0
8344,B1,577.75,0.25,95,140.0
8345,B0,578.0,0.5,95,140.0
8346,B-2,578.0,1.0,95,140.0
8347,D3,578.0,1.0,95,140.0
8348,A2,578.0,1.0,95,140.0
8349,D2,578.0,1.0,95,140.0
8350,B2,578.5,0.5,95,140.0
8351,F#2,578.5,0.5,95,140.0
8352,B1,578.5,0.5,95,140.0
8353,B0,578.75,0.5,95,140.0
8354,A4,579.0,1.5,95,140.0
8355,B-2,579.0,1.0,95,140.0
8356,B2,579.25,0.5,95,140.0
8357,F#2,579.25,0.5,95,140.0
8358,B1,579.25,0.5,95,140.0
8359,B0,579.5,0.5,95,140.0
8360,B0,580.0,1.0,95,140.0
8361,B-2,580.0,1.0,95,140.0
8362,B2,580.0,1.0,95,140.0
8363,F#2,580.0,1.0,95,140.0
8364,B1,580.0,1.0,95,140.0
8365,B2,580.5,0.5,95,140.0
8366,F#2,580.5,0.5,95,140.0
8367,B1,580.5,0.5,95,140.0
8368,C4,581.25,0.5,95,140.0
8369,B2,581.25,0.5,95,140.0
8370,F#2,581.25,0.5,95,140.0
8371,B1,581.25,0.5,95,140.0
8372,E2,581.25,0.5,95,140.0
8373,C2,581.25,0.5,95,140.0
8374,B2,581.5,0.5,95,140.0
8375,F#2,581.5,0.5,95,140.0
8376,B1,581.5,0.5,95,140.0
8377,B0,581.75,0.5,95,140.0
8378,E2,581.75,0.5,95,140.0
8379,B2,582.0,1.0,95,140.0
8380,F#2,582.0,1.0,95,140.0
8381,B1,582.0,1.0,95,140.0
8382,B2,582.0,1.0,95,140.0
8383,F#2,582.0,1.0,95,140.0
8384,B1,582.0,1.0,95,140.0
8385,B0,582.25,1.0,95,140.0
8386,E2,582.25,1.0,95,140.0
8387,B2,583.5,0.5,95,140.0
8388,F#2,583.5,0.5,95,140.0
8389,B1,583.5,0.5,95,140.0
8390,B2,583.5,0.25,95,140.0
8391,F#2,583.5,0.25,95,140.0
8392,B1,583.5,0.25,95,140.0
8393,B0,583.75,0.25,95,140.0
8394,F2,583.75,0.25,95,140.0
8395,B2,583.75,0.25,95,140.0
8396,F#2,583.75,0.25,95,140.0
8397,B1,583.75,0.25,95,140.0
8398,E2,583.75,0.25,95,140.0
8399,C2,583.75,0.25,95,140.0
8400,B0,584.0,0.5,95,140.0
8401,B2,584.0,1.0,95,140.0
8402,F#2,584.0,1.0,95,140.0
8403,B1,584.0,1.0,95,140.0
8404,E2,584.0,0.5,95,140.0
8405,C2,584.0,0.5,95,140.0
8406,B2,584.25,0.5,95,140.0
8407,F#2,584.25,0.5,95,140.0
8408,B1,584.25,0.5,95,140.0
8409,B0,584.5,0.5,95,140.0
8410,F2,584.5,0.5,95,140.0
8411,E2,584.5,0.5,95,140.0
8412,C2,584.5,0.5,95,140.0
8413,B2,585.0,1.0,95,140.0
8414,F#2,585.0,1.0,95,140.0
8415,B1,585.0,1.0,95,140.0
8416,B0,585.25,1.0,95,140.0
8417,F2,585.25,1.0,95,140.0
8418,E2,585.25,1.0,95,140.0
8419,C2,585.25,1.0,95,140.0
8420,B2,585.5,0.25,95,140.0
8421,F#2,585.5,0.25,95,140.0
8422,B1,585.5,0.25,95,140.0
8423,B2,585.75,0.25,95,140.0
8424,F#2,585.75,0.25,95,140.0
8425,B1,585.75,0.25,95,140.0
8426,B2,586.25,0.5,95,140.0
8427,F#2,586.25,0.5,95,140.0
8428,B1,586.25,0.5,95,140.0
8429,B2,586.5,0.5,95,140.0
8430,F#2,586.5,0.5,95,140.0
8431,B1,586.5,0.5,95,140.0
8432,B0,586.75,0.5,95,140.0
8433,F2,586.75,0.5,95,140.0
8434,E2,586.75,0.5,95,140.0
8435,C2,586.75,0.5,95,140.0
8436,B2,587.0,1.0,95,140.0
8437,F#2,587.0,1.0,95,140.0
8438,B1,587.0,1.0,95,140.0
8439,C3,587.0,0.5,95,140.0
8440,G2,587.0,0.5,95,140.0
8441,C2,587.0,0.5,95,140.0
8442,C1,587.25,0.5,95,140.0
8443,G2,587.25,0.5,95,140.0
8444,E2,587.25,0.5,95,140.0
8445,C2,587.25,0.5,95,140.0
8446,B2,587.5,0.25,95,140.0
8447,F#2,587.5,0.25,95,140.0
8448,B1,587.5,0.25,95,140.0
8449,B0,587.75,0.25,95,140.0
8450,B2,587.75,333/1000,95,140.0
8451,F#2,587.75,333/1000,95,140.0
8452,B1,587.75,333/1000,95,140.0
8453,F2,587.75,0.25,95,140.0
8454,E2,587.75,0.25,95,140.0
8455,C2,587.75,0.25,95,140.0
8456,B0,588.0,0.25,95,140.0
8457,F2,588.0,0.25,95,140.0
8458,E2,588.0,0.25,95,140.0
8459,C2,588.0,0.25,95,140.0
8460,B2,588.083,333/1000,95,140.0
8461,F#2,588.083,333/1000,95,140.0
8462,B1,588.083,333/1000,95,140.0
8463,D1,588.25,1.0,95,140.0
8464,A3,588.25,1.0,95,140.0
8465,B2,588.417,333/1000,95,140.0
8466,F#2,588.417,333/1000,95,140.0
8467,B1,588.417,333/1000,95,140.0
8468,B2,588.5,0.5,95,140.0
8469,F#2,588.5,0.5,95,140.0
8470,B1,588.5,0.5,95,140.0
8471,B2,588.75,333/1000,95,140.0
8472,F#2,588.75,333/1000,95,140.0
8473,B1,588.75,333/1000,95,140.0
8474,C3,589.0,0.5,95,140.0
8475,G2,589.0,0.5,95,140.0
8476,C2,589.0,0.5,95,140.0
8477,B2,589.083,333/1000,95,140.0
8478,F#2,589.083,333/1000,95,140.0
8479,B1,589.083,333/1000,95,140.0
8480,A1,589.25,1.5,95,140.0
8481,C#3,589.25,1.5,95,140.0
8482,B2,589.417,333/1000,95,140.0
8483,F#2,589.417,333/1000,95,140.0
8484,B1,589.417,333/1000,95,140.0
8485,B2,589.5,0.25,95,140.0
8486,F#2,589.5,0.25,95,140.0
8487,B1,589.5,0.25,95,140.0
8488,B2,589.75,333/1000,95,140.0
8489,F#2,589.75,333/1000,95,140.0
8490,B1,589.75,333/1000,95,140.0
8491,B2,589.75,0.5,95,140.0
8492,F#2,589.75,0.5,95,140.0
8493,B1,589.75,0.5,95,140.0
8494,B2,590.083,333/1000,95,140.0
8495,F#2,590.083,333/1000,95,140.0
8496,B1,590.083,333/1000,95,140.0
8497,B2,590.417,333/1000,95,140.0
8498,F#2,590.417,333/1000,95,140.0
8499,B1,590.417,333/1000,95,140.0
8500,B2,590.5,0.5,95,140.0
8501,F#2,590.5,0.5,95,140.0
8502,B1,590.5,0.5,95,140.0
8503,B0,590.75,0.5,95,140.0
8504,B2,590.75,333/1000,95,140.0
8505,F#2,590.75,333/1000,95,140.0
8506,B1,590.75,333/1000,95,140.0
8507,F2,590.75,0.5,95,140.0
8508,E2,590.75,0.5,95,140.0
8509,C2,590.75,0.5,95,140.0
8510,B2,591.083,333/1000,95,140.0
8511,F#2,591.083,333/1000,95,140.0
8512,B1,591.083,333/1000,95,140.0
8513,B2,591.25,0.5,95,140.0
8514,F#2,591.25,0.5,95,140.0
8515,B1,591.25,0.5,95,140.0
8516,B2,591.417,333/1000,95,140.0
8517,F#2,591.417,333/1000,95,140.0
8518,B1,591.417,333/1000,95,140.0
8519,B0,591.5,0.5,95,140.0
8520,F2,591.5,0.5,95,140.0
8521,E2,591.5,0.5,95,140.0
8522,C2,591.5,0.5,95,140.0
8523,B2,591.75,0.5,95,140.0
8524,F#2,591.75,0.5,95,140.0
8525,B1,591.75,0.5,95,140.0
8526,B2,591.75,1.0,95,140.0
8527,F#2,591.75,1.0,95,140.0
8528,B1,591.75,1.0,95,140.0
8529,B0,592.25,1.0,95,140.0
8530,F2,592.25,0.5,95,140.0
8531,E2,592.25,0.5,95,140.0
8532,C2,592.25,0.5,95,140.0
8533,B2,592.5,0.5,95,140.0
8534,F#2,592.5,0.5,95,140.0
8535,B1,592.5,0.5,95,140.0
8536,E2,593.25,0.5,95,140.0
8537,C4,593.25,0.5,95,140.0
8538,B2,593.25,0.5,95,140.0
8539,F#2,593.25,0.5,95,140.0
8540,B1,593.25,0.5,95,140.0
8541,B2,593.5,0.5,95,140.0
8542,F#2,593.5,0.5,95,140.0
8543,B1,593.5,0.5,95,140.0
8544,B0,593.75,0.5,95,140.0
8545,B2,593.75,1.0,95,140.0
8546,F#2,593.75,1.0,95,140.0
8547,B1,593.75,1.0,95,140.0
8548,F2,593.75,0.5,95,140.0
8549,E2,593.75,0.5,95,140.0
8550,C2,593.75,0.5,95,140.0
8551,B2,594.0,1.0,95,140.0
8552,F#2,594.0,1.0,95,140.0
8553,B1,594.0,1.0,95,140.0
8554,B0,594.25,1.0,95,140.0
8555,F2,594.25,0.5,95,140.0
8556,E2,594.25,0.5,95,140.0
8557,C2,594.25,0.5,95,140.0
8558,B2,595.5,0.5,95,140.0
8559,F#2,595.5,0.5,95,140.0
8560,B1,595.5,0.5,95,140.0
8561,B2,595.5,0.25,95,140.0
8562,F#2,595.5,0.25,95,140.0
8563,B1,595.5,0.25,95,140.0
8564,B0,595.75,0.25,95,140.0
8565,B2,595.75,0.5,95,140.0
8566,F#2,595.75,0.5,95,140.0
8567,B1,595.75,0.5,95,140.0
8568,E2,595.75,0.25,95,140.0
8569,F2,595.75,0.25,95,140.0
8570,C2,595.75,0.25,95,140.0
8571,B0,596.0,0.25,95,140.0
8572,B2,596.0,1.0,95,140.0
8573,F#2,596.0,1.0,95,140.0
8574,B1,596.0,1.0,95,140.0
8575,E2,596.0,0.25,95,140.0
8576,F2,596.0,0.25,95,140.0
8577,C2,596.0,0.25,95,140.0
8578,B2,596.25,0.5,95,140.0
8579,F#2,596.25,0.5,95,140.0
8580,B1,596.25,0.5,95,140.0
8581,B0,596.5,0.5,95,140.0
8582,E2,596.5,0.5,95,140.0
8583,F2,596.5,0.5,95,140.0
8584,C2,596.5,0.5,95,140.0
8585,B2,597.0,1.0,95,140.0
8586,F#2,597.0,1.0,95,140.0
8587,B1,597.0,1.0,95,140.0
8588,B0,597.25,1.0,95,140.0
8589,E2,597.25,1.0,95,140.0
8590,F2,597.25,1.0,95,140.0
8591,C2,597.25,1.0,95,140.0
8592,B2,597.5,0.25,95,140.0
8593,F#2,597.5,0.25,95,140.0
8594,B1,597.5,0.25,95,140.0
8595,B2,597.75,0.5,95,140.0
8596,F#2,597.75,0.5,95,140.0
8597,B1,597.75,0.5,95,140.0
8598,B2,598.25,0.5,95,140.0
8599,F#2,598.25,0.5,95,140.0
8600,B1,598.25,0.5,95,140.0
8601,B2,598.5,0.5,95,140.0
8602,F#2,598.5,0.5,95,140.0
8603,B1,598.5,0.5,95,140.0
8604,B0,598.75,0.5,95,140.0
8605,F2,598.75,0.5,95,140.0
8606,E2,598.75,0.5,95,140.0
8607,C2,598.75,0.5,95,140.0
8608,B2,599.0,1.0,95,140.0
8609,F#2,599.0,1.0,95,140.0
8610,B1,599.0,1.0,95,140.0
8611,C3,599.0,0.5,95,140.0
8612,G2,599.0,0.5,95,140.0
8613,C2,599.0,0.5,95,140.0
8614,C1,599.25,0.5,95,140.0
8615,F2,599.25,0.5,95,140.0
8616,E2,599.25,0.5,95,140.0
8617,C2,599.25,0.5,95,140.0
8618,B2,599.5,0.25,95,140.0
8619,F#2,599.5,0.25,95,140.0
8620,B1,599.5,0.25,95,140.0
8621,B0,599.75,0.25,95,140.0
8622,B2,599.75,0.25,95,140.0
8623,F#2,599.75,0.25,95,140.0
8624,B1,599.75,0.25,95,140.0
8625,E2,599.75,0.25,95,140.0
8626,F2,599.75,0.25,95,140.0
8627,C2,599.75,0.25,95,140.0
8628,B0,600.0,1.0,95,140.0
8629,D3,600.0,1.0,95,140.0
8630,A2,600.0,1.0,95,140.0
8631,D2,600.0,1.0,95,140.0
8632,A3,600.25,0.75,95,140.0
8633,E2,600.25,0.75,95,140.0
8634,C2,600.25,0.75,95,140.0
8635,B2,600.5,0.5,95,140.0
8636,F#2,600.5,0.5,95,140.0
8637,B1,600.5,0.5,95,140.0
8638,A4,601.0,1.5,95,140.0
8639,C1,601.0,1.0,95,140.0
8640,C3,601.0,0.5,95,140.0
8641,G2,601.0,0.5,95,140.0
8642,C2,601.0,0.5,95,140.0
8643,C#3,601.25,0.5,95,140.0
8644,E2,601.25,0.5,95,140.0
8645,C2,601.25,0.5,95,140.0
8646,B2,601.5,0.25,95,140.0
8647,F#2,601.5,0.25,95,140.0
8648,B1,601.5,0.25,95,140.0
8649,B2,601.75,0.25,95,140.0
8650,F#2,601.75,0.25,95,140.0
8651,B1,601.75,0.25,95,140.0
8652,D3,602.0,1.0,95,140.0
8653,A2,602.0,1.0,95,140.0
8654,D2,602.0,1.0,95,140.0
8655,B2,602.5,0.5,95,140.0
8656,F#2,602.5,0.5,95,140.0
8657,B1,602.5,0.5,95,140.0
8658,A4,603.0,1.5,95,140.0
8659,B2,603.25,0.5,95,140.0
8660,F#2,603.25,0.5,95,140.0
8661,B1,603.25,0.5,95,140.0
8662,B2,604.0,1.0,95,140.0
8663,F#2,604.0,1.0,95,140.0
8664,B1,604.0,1.0,95,140.0
8665,B2,604.5,0.5,95,140.0
8666,F#2,604.5,0.5,95,140.0
8667,B1,604.5,0.5,95,140.0
8668,B2,605.25,0.5,95,140.0
8669,F#2,605.25,0.5,95,140.0
8670,B1,605.25,0.5,95,140.0
8671,B2,605.5,0.5,95,140.0
8672,F#2,605.5,0.5,95,140.0
8673,B1,605.5,0.5,95,140.0
8674,B2,606.0,1.0,95,140.0
8675,F#2,606.0,1.0,95,140.0
8676,B1,606.0,1.0,95,140.0
8677,B2,606.0,1.0,95,140.0
8678,F#2,606.0,1.0,95,140.0
8679,B1,606.0,1.0,95,140.0
8680,B2,607.5,0.5,95,140.0
8681,F#2,607.5,0.5,95,140.0
8682,B1,607.5,0.5,95,140.0
8683,B2,607.5,0.25,95,140.0
8684,F#2,607.5,0.25,95,140.0
8685,B1,607.5,0.25,95,140.0
8686,B2,607.75,0.25,95,140.0
8687,F#2,607.75,0.25,95,140.0
8688,B1,607.75,0.25,95,140.0
8689,B2,608.0,1.0,95,140.0
8690,F#2,608.0,1.0,95,140.0
8691,B1,608.0,1.0,95,140.0
8692,B2,608.25,0.5,95,140.0
8693,F#2,608.25,0.5,95,140.0
8694,B1,608.25,0.5,95,140.0
8695,B2,609.0,1.0,95,140.0
8696,F#2,609.0,1.0,95,140.0
8697,B1,609.0,1.0,95,140.0
8698,B2,609.5,0.25,95,140.0
8699,F#2,609.5,0.25,95,140.0
8700,B1,609.5,0.25,95,140.0
8701,B2,609.75,0.25,95,140.0
8702,F#2,609.75,0.25,95,140.0
8703,B1,609.75,0.25,95,140.0
8704,B2,610.25,0.5,95,140.0
8705,F#2,610.25,0.5,95,140.0
8706,B1,610.25,0.5,95,140.0
8707,B2,610.5,0.5,95,140.0
8708,F#2,610.5,0.5,95,140.0
8709,B1,610.5,0.5,95,140.0
8710,B2,611.0,1.0,95,140.0
8711,F#2,611.0,1.0,95,140.0
8712,B1,611.0,1.0,95,140.0
8713,C3,611.0,0.5,95,140.0
8714,G2,611.0,0.5,95,140.0
8715,C2,611.0,0.5,95,140.0
8716,B2,611.5,0.25,95,140.0
8717,F#2,611.5,0.25,95,140.0
8718,B1,611.5,0.25,95,140.0
8719,B2,611.75,0.25,95,140.0
8720,F#2,611.75,0.25,95,140.0
8721,B1,611.75,0.25,95,140.0
8722,D3,612.0,1.0,95,140.0
8723,A2,612.0,1.0,95,140.0
8724,D2,612.0,1.0,95,140.0
8725,B2,612.5,0.5,95,140.0
8726,F#2,612.5,0.5,95,140.0
8727,B1,612.5,0.5,95,140.0
8728,D3,613.0,1.0,95,140.0
8729,C3,613.0,0.5,95,140.0
8730,G2,613.0,0.5,95,140.0
8731,C2,613.0,0.5,95,140.0
8732,B2,613.5,0.25,95,140.0
8733,F#2,613.5,0.25,95,140.0
8734,B1,613.5,0.25,95,140.0
8735,B2,613.75,0.25,95,140.0
8736,F#2,613.75,0.25,95,140.0
8737,B1,613.75,0.25,95,140.0
8738,D3,614.0,1.0,95,140.0
8739,A2,614.0,1.0,95,140.0
8740,D2,614.0,1.0,95,140.0
8741,D3,615.0,1.0,95,140.0
