,note_name,start_time,duration,velocity,tempo
0,G2,0.0,0.5,95,155.0
1,F#2,0.5,0.5,86,155.0
2,F#2,1.0,0.5,95,155.0
3,C#2,1.5,0.5,95,155.0
4,C#2,2.0,0.5,95,155.0
5,C2,2.5,0.5,86,155.0
6,G2,3.0,0.5,95,155.0
7,C3,3.5,0.5,86,155.0
8,C3,4.0,0.5,95,155.0
9,B1,4.5,0.5,95,155.0
10,B1,5.0,0.5,95,155.0
11,G2,5.5,0.5,95,155.0
12,C#2,6.0,0.5,95,155.0
13,C2,6.5,0.5,95,155.0
14,C2,7.0,0.5,95,155.0
15,F2,7.5,0.5,86,155.0
16,F2,8.0,0.5,95,155.0
17,B1,8.5,0.5,95,155.0
18,B1,9.0,0.5,95,155.0
19,G2,9.5,0.5,95,155.0
20,G2,10.0,0.5,95,155.0
21,B1,10.5,0.5,95,155.0
22,G2,11.0,0.5,95,155.0
23,C3,11.5,0.5,86,155.0
24,C3,12.0,0.5,95,155.0
25,B1,12.5,0.5,95,155.0
26,B1,13.0,0.5,95,155.0
27,G2,13.5,0.5,95,155.0
28,C#2,14.0,0.5,95,155.0
29,C#2,14.0,0.5,95,155.0
30,C2,14.5,0.5,95,155.0
31,C2,14.5,0.5,95,155.0
32,C2,15.0,0.5,95,155.0
33,C2,15.0,0.5,95,155.0
34,F2,15.5,0.5,86,155.0
35,F2,15.5,0.5,86,155.0
36,F2,16.0,0.5,95,155.0
37,F2,16.0,0.5,95,155.0
38,B1,16.5,0.5,95,155.0
39,B1,16.5,0.5,95,155.0
40,B1,17.0,0.5,95,155.0
41,B1,17.0,0.5,95,155.0
42,G2,17.5,0.5,95,155.0
43,G2,17.5,0.5,95,155.0
44,G2,18.0,0.5,95,155.0
45,G2,18.0,0.5,95,155.0
46,B1,18.5,0.5,95,155.0
47,B1,18.5,0.5,95,155.0
48,G2,19.0,0.5,95,155.0
49,G2,19.0,0.5,95,155.0
50,C3,19.5,0.5,86,155.0
51,C3,19.5,0.5,86,155.0
52,C3,20.0,0.5,95,155.0
53,C3,20.0,0.5,95,155.0
54,B1,20.5,0.5,95,155.0
55,B1,20.5,0.5,95,155.0
56,B1,21.0,0.5,95,155.0
57,B1,21.0,0.5,95,155.0
58,G2,21.5,0.5,95,155.0
59,G2,21.5,0.5,95,155.0
60,C#2,22.0,0.5,95,155.0
61,C#2,22.0,0.5,95,155.0
62,C2,22.5,0.5,95,155.0
63,C2,22.5,0.5,95,155.0
64,C2,23.0,0.5,95,155.0
65,C2,23.0,0.5,95,155.0
66,F2,23.5,0.5,86,155.0
67,F2,23.5,0.5,86,155.0
68,F2,24.0,0.5,95,155.0
69,F2,24.0,0.5,95,155.0
70,B1,24.5,0.5,95,155.0
71,B1,24.5,0.5,95,155.0
72,B1,25.0,0.5,95,155.0
73,B1,25.0,0.5,95,155.0
74,G2,25.5,0.5,95,155.0
75,G2,25.5,0.5,95,155.0
76,G2,26.0,0.5,95,155.0
77,G2,26.0,0.5,95,155.0
78,B1,26.5,0.5,95,155.0
79,B1,26.5,0.5,95,155.0
80,G2,27.0,0.5,95,155.0
81,G2,27.0,0.5,95,155.0
82,C3,27.5,0.5,86,155.0
83,C3,27.5,0.5,86,155.0
84,C3,28.0,0.5,95,155.0
85,C3,28.0,0.5,95,155.0
86,B1,28.5,0.5,95,155.0
87,B1,28.5,0.5,95,155.0
88,B1,29.0,0.5,95,155.0
89,B1,29.0,0.5,95,155.0
90,G2,29.5,0.5,95,155.0
91,G2,29.5,0.5,95,155.0
92,C#2,30.0,0.5,95,155.0
93,C#2,30.0,0.5,95,155.0
94,C2,30.5,0.5,95,155.0
95,C2,30.5,0.5,95,155.0
96,C2,31.0,0.5,95,155.0
97,C2,31.0,0.5,95,155.0
98,F2,31.5,0.5,86,155.0
99,F2,31.5,0.5,86,155.0
100,F2,32.0,0.5,95,155.0
101,F2,32.0,0.5,95,155.0
102,B1,32.5,0.5,95,155.0
103,B1,32.5,0.5,95,155.0
104,B1,33.0,0.5,95,155.0
105,B1,33.0,0.5,95,155.0
106,G2,33.5,0.5,95,155.0
107,G2,33.5,0.5,95,155.0
108,G2,34.0,0.5,95,155.0
109,G2,34.0,0.5,95,155.0
110,B1,34.5,0.5,95,155.0
111,B1,34.5,0.5,95,155.0
112,G2,35.0,0.5,95,155.0
113,G2,35.0,0.5,95,155.0
114,C3,35.5,0.5,86,155.0
115,C3,35.5,0.5,86,155.0
116,C3,36.0,0.5,95,155.0
117,C3,36.0,0.5,95,155.0
118,B1,36.5,0.5,95,155.0
119,B1,36.5,0.5,95,155.0
120,B1,37.0,0.5,95,155.0
121,B1,37.0,0.5,95,155.0
122,G2,37.5,0.5,95,155.0
123,G2,37.5,0.5,95,155.0
124,C#2,38.0,0.5,95,155.0
125,C#2,38.0,0.5,95,155.0
126,C2,38.5,0.5,95,155.0
127,C2,38.5,0.5,95,155.0
128,C2,39.0,0.5,95,155.0
129,C2,39.0,0.5,95,155.0
130,F2,39.5,0.5,86,155.0
131,F2,39.5,0.5,86,155.0
132,F2,40.0,0.5,95,155.0
133,F2,40.0,0.5,95,155.0
134,B1,40.5,0.5,95,155.0
135,B1,40.5,0.5,95,155.0
136,B1,41.0,0.5,95,155.0
137,B1,41.0,0.5,95,155.0
138,G2,41.5,0.5,95,155.0
139,G2,41.5,0.5,95,155.0
140,G2,42.0,0.5,95,155.0
141,G2,42.0,0.5,95,155.0
142,B1,42.5,0.5,95,155.0
143,B1,42.5,0.5,95,155.0
144,G2,43.0,0.5,95,155.0
145,G2,43.0,0.5,95,155.0
146,C3,43.5,0.5,86,155.0
147,C3,43.5,0.5,86,155.0
148,B2,44.0,21/500,95,155.0
149,C2,44.0,0.5,95,155.0
150,C4,44.0,0.5,95,155.0
151,G3,44.0,0.5,95,155.0
152,C3,44.0,0.5,95,155.0
153,C4,44.0,0.5,95,155.0
154,C3,44.0,0.5,95,155.0
155,B2,44.5,21/500,95,155.0
156,C2,44.5,0.5,95,155.0
157,C4,44.5,0.5,95,155.0
158,G3,44.5,0.5,95,155.0
159,C3,44.5,0.5,95,155.0
160,C4,44.5,0.5,95,155.0
161,C3,44.5,0.5,95,155.0
162,B2,45.0,21/500,95,155.0
163,C2,45.0,0.5,95,155.0
164,C4,45.0,0.5,95,155.0
165,G3,45.0,0.5,95,155.0
166,C3,45.0,0.5,95,155.0
167,C4,45.0,0.5,95,155.0
168,C3,45.0,0.5,95,155.0
169,B2,45.5,21/500,95,155.0
170,C2,45.5,0.5,95,155.0
171,C4,45.5,0.5,95,155.0
172,G3,45.5,0.5,95,155.0
173,C3,45.5,0.5,95,155.0
174,C4,45.5,0.5,95,155.0
175,C3,45.5,0.5,95,155.0
176,B2,46.0,21/500,95,155.0
177,C2,46.0,0.25,95,155.0
178,C4,46.0,0.25,95,155.0
179,G3,46.0,0.25,95,155.0
180,C3,46.0,0.25,95,155.0
181,C4,46.0,0.5,95,155.0
182,C3,46.0,0.5,95,155.0
183,C2,46.25,0.25,95,155.0
184,C4,46.25,0.25,95,155.0
185,G3,46.25,0.25,95,155.0
186,C3,46.25,0.25,95,155.0
187,B2,46.5,21/500,95,155.0
188,C2,46.5,0.25,95,155.0
189,C4,46.5,0.25,95,155.0
190,G3,46.5,0.25,95,155.0
191,C3,46.5,0.25,95,155.0
192,C4,46.5,0.5,95,155.0
193,C3,46.5,0.5,95,155.0
194,C2,46.75,0.25,95,155.0
195,C4,46.75,0.25,95,155.0
196,G3,46.75,0.25,95,155.0
197,C3,46.75,0.25,95,155.0
198,B2,47.0,21/500,95,155.0
199,C2,47.0,0.25,95,155.0
200,C4,47.0,0.25,95,155.0
201,G3,47.0,0.25,95,155.0
202,C3,47.0,0.25,95,155.0
203,C4,47.0,0.5,95,155.0
204,C3,47.0,0.5,95,155.0
205,C2,47.25,0.25,95,155.0
206,C4,47.25,0.25,95,155.0
207,G3,47.25,0.25,95,155.0
208,C3,47.25,0.25,95,155.0
209,B2,47.5,21/500,95,155.0
210,C2,47.5,0.25,95,155.0
211,C4,47.5,0.25,95,155.0
212,G3,47.5,0.25,95,155.0
213,C3,47.5,0.25,95,155.0
214,C4,47.5,0.5,95,155.0
215,C3,47.5,0.5,95,155.0
216,C2,47.75,0.25,95,155.0
217,C4,47.75,0.25,95,155.0
218,G3,47.75,0.25,95,155.0
219,C3,47.75,0.25,95,155.0
220,C1,48.0,0.5,95,155.0
221,C3,48.0,0.5,95,155.0
222,G2,48.0,0.5,95,155.0
223,C2,48.0,0.5,95,155.0
224,C3,48.0,0.5,95,155.0
225,G2,48.0,0.5,95,155.0
226,C2,48.0,0.5,95,155.0
227,B0,48.5,0.5,95,155.0
228,B2,48.5,0.5,95,155.0
229,F#2,48.5,0.5,95,155.0
230,B1,48.5,0.5,95,155.0
231,B2,48.5,0.5,95,155.0
232,F#2,48.5,0.5,95,155.0
233,B1,48.5,0.5,95,155.0
234,B0,49.0,0.5,95,155.0
235,B2,49.0,0.5,95,155.0
236,F#2,49.0,0.5,95,155.0
237,B1,49.0,0.5,95,155.0
238,B2,49.0,0.5,95,155.0
239,F#2,49.0,0.5,95,155.0
240,B1,49.0,0.5,95,155.0
241,F1,49.5,0.5,95,155.0
242,F3,49.5,0.5,95,155.0
243,C3,49.5,0.5,95,155.0
244,F2,49.5,0.5,95,155.0
245,F3,49.5,0.5,95,155.0
246,C3,49.5,0.5,95,155.0
247,F2,49.5,0.5,95,155.0
248,F1,50.0,0.5,95,155.0
249,F3,50.0,0.5,95,155.0
250,C3,50.0,0.5,95,155.0
251,F2,50.0,0.5,95,155.0
252,F3,50.0,0.5,95,155.0
253,C3,50.0,0.5,95,155.0
254,F2,50.0,0.5,95,155.0
255,B0,50.5,0.5,95,155.0
256,B2,50.5,0.5,95,155.0
257,F#2,50.5,0.5,95,155.0
258,B1,50.5,0.5,95,155.0
259,B2,50.5,0.5,95,155.0
260,F#2,50.5,0.5,95,155.0
261,B1,50.5,0.5,95,155.0
262,B0,51.0,0.5,95,155.0
263,B2,51.0,0.5,95,155.0
264,F#2,51.0,0.5,95,155.0
265,B1,51.0,0.5,95,155.0
266,B2,51.0,0.5,95,155.0
267,F#2,51.0,0.5,95,155.0
268,B1,51.0,0.5,95,155.0
269,B2,51.5,21/500,95,155.0
270,C1,51.5,0.5,95,155.0
271,C4,51.5,0.5,95,155.0
272,C3,51.5,0.5,95,155.0
273,C3,51.5,0.5,95,155.0
274,G2,51.5,0.5,95,155.0
275,C2,51.5,0.5,95,155.0
276,B2,52.0,21/500,95,155.0
277,C1,52.0,0.5,95,155.0
278,C4,52.0,0.5,95,155.0
279,C3,52.0,0.5,95,155.0
280,C3,52.0,0.5,95,155.0
281,G2,52.0,0.5,95,155.0
282,C2,52.0,0.5,95,155.0
283,B0,52.5,0.5,95,155.0
284,B3,52.5,0.5,86,155.0
285,B2,52.5,0.5,86,155.0
286,B2,52.5,0.5,95,155.0
287,F#2,52.5,0.5,95,155.0
288,B1,52.5,0.5,95,155.0
289,B0,53.0,0.5,95,155.0
290,B3,53.0,0.5,95,155.0
291,B2,53.0,0.5,95,155.0
292,B2,53.0,0.5,95,155.0
293,F#2,53.0,0.5,95,155.0
294,B1,53.0,0.5,95,155.0
295,F1,53.5,0.5,95,155.0
296,F3,53.5,0.5,95,155.0
297,C3,53.5,0.5,95,155.0
298,F2,53.5,0.5,95,155.0
299,F3,53.5,0.5,95,155.0
300,C3,53.5,0.5,95,155.0
301,F2,53.5,0.5,95,155.0
302,F1,54.0,0.5,95,155.0
303,F3,54.0,0.5,95,155.0
304,C3,54.0,0.5,95,155.0
305,F2,54.0,0.5,95,155.0
306,F3,54.0,0.5,95,155.0
307,C3,54.0,0.5,95,155.0
308,F2,54.0,0.5,95,155.0
309,B0,54.5,0.5,95,155.0
310,B2,54.5,0.5,95,155.0
311,F#2,54.5,0.5,95,155.0
312,B1,54.5,0.5,95,155.0
313,B2,54.5,0.5,95,155.0
314,F#2,54.5,0.5,95,155.0
315,B1,54.5,0.5,95,155.0
316,B0,55.0,0.5,95,155.0
317,B2,55.0,0.5,95,155.0
318,F#2,55.0,0.5,95,155.0
319,B1,55.0,0.5,95,155.0
320,B2,55.0,0.5,95,155.0
321,F#2,55.0,0.5,95,155.0
322,B1,55.0,0.5,95,155.0
323,C1,55.5,0.5,95,155.0
324,C3,55.5,0.5,95,155.0
325,G2,55.5,0.5,95,155.0
326,C2,55.5,0.5,95,155.0
327,C3,55.5,0.5,95,155.0
328,G2,55.5,0.5,95,155.0
329,C2,55.5,0.5,95,155.0
330,C1,56.0,0.5,95,155.0
331,C3,56.0,0.5,95,155.0
332,G2,56.0,0.5,95,155.0
333,C2,56.0,0.5,95,155.0
334,C3,56.0,0.5,95,155.0
335,G2,56.0,0.5,95,155.0
336,C2,56.0,0.5,95,155.0
337,B0,56.5,0.5,95,155.0
338,B2,56.5,0.5,95,155.0
339,F#2,56.5,0.5,95,155.0
340,B1,56.5,0.5,95,155.0
341,B2,56.5,0.5,95,155.0
342,F#2,56.5,0.5,95,155.0
343,B1,56.5,0.5,95,155.0
344,B0,57.0,0.5,95,155.0
345,B2,57.0,0.5,95,155.0
346,F#2,57.0,0.5,95,155.0
347,B1,57.0,0.5,95,155.0
348,B2,57.0,0.5,95,155.0
349,F#2,57.0,0.5,95,155.0
350,B1,57.0,0.5,95,155.0
351,F1,57.5,0.5,95,155.0
352,F3,57.5,0.5,95,155.0
353,C3,57.5,0.5,95,155.0
354,F2,57.5,0.5,95,155.0
355,F3,57.5,0.5,95,155.0
356,C3,57.5,0.5,95,155.0
357,F2,57.5,0.5,95,155.0
358,F1,58.0,0.5,95,155.0
359,F3,58.0,0.5,95,155.0
360,C3,58.0,0.5,95,155.0
361,F2,58.0,0.5,95,155.0
362,F3,58.0,0.5,95,155.0
363,C3,58.0,0.5,95,155.0
364,F2,58.0,0.5,95,155.0
365,B0,58.5,0.5,95,155.0
366,B2,58.5,0.5,95,155.0
367,F#2,58.5,0.5,95,155.0
368,B1,58.5,0.5,95,155.0
369,B2,58.5,0.5,95,155.0
370,F#2,58.5,0.5,95,155.0
371,B1,58.5,0.5,95,155.0
372,B0,59.0,0.5,95,155.0
373,B2,59.0,0.5,95,155.0
374,F#2,59.0,0.5,95,155.0
375,B1,59.0,0.5,95,155.0
376,B2,59.0,0.5,95,155.0
377,F#2,59.0,0.5,95,155.0
378,B1,59.0,0.5,95,155.0
379,B2,59.5,21/500,95,155.0
380,C1,59.5,0.5,95,155.0
381,C4,59.5,0.5,95,155.0
382,C3,59.5,0.5,95,155.0
383,C3,59.5,0.5,95,155.0
384,G2,59.5,0.5,95,155.0
385,C2,59.5,0.5,95,155.0
386,B2,60.0,21/500,95,155.0
387,C1,60.0,0.5,95,155.0
388,C4,60.0,0.5,95,155.0
389,C3,60.0,0.5,95,155.0
390,C3,60.0,0.5,95,155.0
391,G2,60.0,0.5,95,155.0
392,C2,60.0,0.5,95,155.0
393,B0,60.5,0.5,95,155.0
394,B3,60.5,0.5,86,155.0
395,B2,60.5,0.5,86,155.0
396,B2,60.5,0.5,95,155.0
397,F#2,60.5,0.5,95,155.0
398,B1,60.5,0.5,95,155.0
399,B0,61.0,0.5,95,155.0
400,B3,61.0,0.5,95,155.0
401,B2,61.0,0.5,95,155.0
402,B2,61.0,0.5,95,155.0
403,F#2,61.0,0.5,95,155.0
404,B1,61.0,0.5,95,155.0
405,D1,61.5,0.5,95,155.0
406,D3,61.5,0.5,95,155.0
407,A2,61.5,0.5,95,155.0
408,D2,61.5,0.5,95,155.0
409,D3,61.5,0.5,95,155.0
410,A2,61.5,0.5,95,155.0
411,D2,61.5,0.5,95,155.0
412,D1,62.0,0.5,95,155.0
413,D3,62.0,0.5,95,155.0
414,A2,62.0,0.5,95,155.0
415,D2,62.0,0.5,95,155.0
416,D3,62.0,0.5,95,155.0
417,A2,62.0,0.5,95,155.0
418,D2,62.0,0.5,95,155.0
419,D1,62.5,0.5,95,155.0
420,D3,62.5,0.5,95,155.0
421,A2,62.5,0.5,95,155.0
422,D2,62.5,0.5,95,155.0
423,D3,62.5,0.5,95,155.0
424,A2,62.5,0.5,95,155.0
425,D2,62.5,0.5,95,155.0
426,D1,63.0,0.5,95,155.0
427,D3,63.0,0.5,95,155.0
428,A2,63.0,0.5,95,155.0
429,D2,63.0,0.5,95,155.0
430,D3,63.0,0.5,95,155.0
431,A2,63.0,0.5,95,155.0
432,D2,63.0,0.5,95,155.0
433,C1,63.5,0.5,95,155.0
434,C3,63.5,0.5,95,155.0
435,G2,63.5,0.5,95,155.0
436,C2,63.5,0.5,95,155.0
437,C3,63.5,0.5,95,155.0
438,G2,63.5,0.5,95,155.0
439,C2,63.5,0.5,95,155.0
440,C1,64.0,0.5,95,155.0
441,C3,64.0,0.5,95,155.0
442,G2,64.0,0.5,95,155.0
443,C2,64.0,0.5,95,155.0
444,C3,64.0,0.5,95,155.0
445,G2,64.0,0.5,95,155.0
446,C2,64.0,0.5,95,155.0
447,B0,64.5,0.5,95,155.0
448,B2,64.5,0.5,95,155.0
449,F#2,64.5,0.5,95,155.0
450,B1,64.5,0.5,95,155.0
451,B2,64.5,0.5,95,155.0
452,F#2,64.5,0.5,95,155.0
453,B1,64.5,0.5,95,155.0
454,B0,65.0,0.5,95,155.0
455,B2,65.0,0.5,95,155.0
456,F#2,65.0,0.5,95,155.0
457,B1,65.0,0.5,95,155.0
458,B2,65.0,0.5,95,155.0
459,F#2,65.0,0.5,95,155.0
460,B1,65.0,0.5,95,155.0
461,F1,65.5,0.5,95,155.0
462,F3,65.5,0.5,95,155.0
463,C3,65.5,0.5,95,155.0
464,F2,65.5,0.5,95,155.0
465,F3,65.5,0.5,95,155.0
466,C3,65.5,0.5,95,155.0
467,F2,65.5,0.5,95,155.0
468,F1,66.0,0.5,95,155.0
469,F3,66.0,0.5,95,155.0
470,C3,66.0,0.5,95,155.0
471,F2,66.0,0.5,95,155.0
472,F3,66.0,0.5,95,155.0
473,C3,66.0,0.5,95,155.0
474,F2,66.0,0.5,95,155.0
475,B0,66.5,0.5,95,155.0
476,B2,66.5,0.5,95,155.0
477,F#2,66.5,0.5,95,155.0
478,B1,66.5,0.5,95,155.0
479,B2,66.5,0.5,95,155.0
480,F#2,66.5,0.5,95,155.0
481,B1,66.5,0.5,95,155.0
482,B0,67.0,0.5,95,155.0
483,B2,67.0,0.5,95,155.0
484,F#2,67.0,0.5,95,155.0
485,B1,67.0,0.5,95,155.0
486,B2,67.0,0.5,95,155.0
487,F#2,67.0,0.5,95,155.0
488,B1,67.0,0.5,95,155.0
489,B2,67.5,21/500,95,155.0
490,C1,67.5,0.5,95,155.0
491,C4,67.5,0.5,95,155.0
492,C3,67.5,0.5,95,155.0
493,C3,67.5,0.5,95,155.0
494,G2,67.5,0.5,95,155.0
495,C2,67.5,0.5,95,155.0
496,B2,68.0,21/500,95,155.0
497,C1,68.0,0.5,95,155.0
498,C4,68.0,0.5,95,155.0
499,C3,68.0,0.5,95,155.0
500,C3,68.0,0.5,95,155.0
501,G2,68.0,0.5,95,155.0
502,C2,68.0,0.5,95,155.0
503,B0,68.5,0.5,95,155.0
504,B3,68.5,0.5,86,155.0
505,B2,68.5,0.5,86,155.0
506,B2,68.5,0.5,95,155.0
507,F#2,68.5,0.5,95,155.0
508,B1,68.5,0.5,95,155.0
509,B0,69.0,0.5,95,155.0
510,B3,69.0,0.5,95,155.0
511,B2,69.0,0.5,95,155.0
512,B2,69.0,0.5,95,155.0
513,F#2,69.0,0.5,95,155.0
514,B1,69.0,0.5,95,155.0
515,F1,69.5,0.5,95,155.0
516,F3,69.5,0.5,95,155.0
517,C3,69.5,0.5,95,155.0
518,F2,69.5,0.5,95,155.0
519,F3,69.5,0.5,95,155.0
520,C3,69.5,0.5,95,155.0
521,F2,69.5,0.5,95,155.0
522,F1,70.0,0.5,95,155.0
523,F3,70.0,0.5,95,155.0
524,C3,70.0,0.5,95,155.0
525,F2,70.0,0.5,95,155.0
526,F3,70.0,0.5,95,155.0
527,C3,70.0,0.5,95,155.0
528,F2,70.0,0.5,95,155.0
529,B0,70.5,0.5,95,155.0
530,B2,70.5,0.5,95,155.0
531,F#2,70.5,0.5,95,155.0
532,B1,70.5,0.5,95,155.0
533,B2,70.5,0.5,95,155.0
534,F#2,70.5,0.5,95,155.0
535,B1,70.5,0.5,95,155.0
536,B0,71.0,0.5,95,155.0
537,B2,71.0,0.5,95,155.0
538,F#2,71.0,0.5,95,155.0
539,B1,71.0,0.5,95,155.0
540,B2,71.0,0.5,95,155.0
541,F#2,71.0,0.5,95,155.0
542,B1,71.0,0.5,95,155.0
543,C1,71.5,0.5,95,155.0
544,C3,71.5,0.5,95,155.0
545,G2,71.5,0.5,95,155.0
546,C2,71.5,0.5,95,155.0
547,C3,71.5,0.5,95,155.0
548,G2,71.5,0.5,95,155.0
549,C2,71.5,0.5,95,155.0
550,C1,72.0,0.5,95,155.0
551,C3,72.0,0.5,95,155.0
552,G2,72.0,0.5,95,155.0
553,C2,72.0,0.5,95,155.0
554,C3,72.0,0.5,95,155.0
555,G2,72.0,0.5,95,155.0
556,C2,72.0,0.5,95,155.0
557,B0,72.5,0.5,95,155.0
558,B2,72.5,0.5,95,155.0
559,F#2,72.5,0.5,95,155.0
560,B1,72.5,0.5,95,155.0
561,B2,72.5,0.5,95,155.0
562,F#2,72.5,0.5,95,155.0
563,B1,72.5,0.5,95,155.0
564,B0,73.0,0.5,95,155.0
565,B2,73.0,0.5,95,155.0
566,F#2,73.0,0.5,95,155.0
567,B1,73.0,0.5,95,155.0
568,B2,73.0,0.5,95,155.0
569,F#2,73.0,0.5,95,155.0
570,B1,73.0,0.5,95,155.0
571,F1,73.5,0.5,95,155.0
572,F3,73.5,0.5,95,155.0
573,C3,73.5,0.5,95,155.0
574,F2,73.5,0.5,95,155.0
575,F3,73.5,0.5,95,155.0
576,C3,73.5,0.5,95,155.0
577,F2,73.5,0.5,95,155.0
578,F1,74.0,0.5,95,155.0
579,F3,74.0,0.5,95,155.0
580,C3,74.0,0.5,95,155.0
581,F2,74.0,0.5,95,155.0
582,F3,74.0,0.5,95,155.0
583,C3,74.0,0.5,95,155.0
584,F2,74.0,0.5,95,155.0
585,B0,74.5,0.5,95,155.0
586,B2,74.5,0.5,95,155.0
587,F#2,74.5,0.5,95,155.0
588,B1,74.5,0.5,95,155.0
589,B2,74.5,0.5,95,155.0
590,F#2,74.5,0.5,95,155.0
591,B1,74.5,0.5,95,155.0
592,B0,75.0,0.5,95,155.0
593,B2,75.0,0.5,95,155.0
594,F#2,75.0,0.5,95,155.0
595,B1,75.0,0.5,95,155.0
596,B2,75.0,0.5,95,155.0
597,F#2,75.0,0.5,95,155.0
598,B1,75.0,0.5,95,155.0
599,B2,75.5,21/500,95,155.0
600,C1,75.5,0.5,95,155.0
601,C4,75.5,0.5,95,155.0
602,C3,75.5,0.5,95,155.0
603,C3,75.5,0.5,95,155.0
604,G2,75.5,0.5,95,155.0
605,C2,75.5,0.5,95,155.0
606,B2,76.0,21/500,95,155.0
607,C1,76.0,0.5,95,155.0
608,C4,76.0,0.5,95,155.0
609,C3,76.0,0.5,95,155.0
610,C3,76.0,0.5,95,155.0
611,G2,76.0,0.5,95,155.0
612,C2,76.0,0.5,95,155.0
613,B0,76.5,0.5,95,155.0
614,B3,76.5,0.5,86,155.0
615,B2,76.5,0.5,86,155.0
616,B2,76.5,0.5,95,155.0
617,F#2,76.5,0.5,95,155.0
618,B1,76.5,0.5,95,155.0
619,B0,77.0,0.5,95,155.0
620,B3,77.0,0.5,95,155.0
621,B2,77.0,0.5,95,155.0
622,B2,77.0,0.5,95,155.0
623,F#2,77.0,0.5,95,155.0
624,B1,77.0,0.5,95,155.0
625,D1,77.5,0.5,95,155.0
626,D3,77.5,0.5,95,155.0
627,A2,77.5,0.5,95,155.0
628,D2,77.5,0.5,95,155.0
629,D3,77.5,0.5,95,155.0
630,A2,77.5,0.5,95,155.0
631,D2,77.5,0.5,95,155.0
632,D1,78.0,0.5,95,155.0
633,D3,78.0,0.5,95,155.0
634,A2,78.0,0.5,95,155.0
635,D2,78.0,0.5,95,155.0
636,D3,78.0,0.5,95,155.0
637,A2,78.0,0.5,95,155.0
638,D2,78.0,0.5,95,155.0
639,D1,78.5,0.5,95,155.0
640,D3,78.5,0.5,95,155.0
641,A2,78.5,0.5,95,155.0
642,D2,78.5,0.5,95,155.0
643,D3,78.5,0.5,95,155.0
644,A2,78.5,0.5,95,155.0
645,D2,78.5,0.5,95,155.0
646,D1,79.0,0.5,95,155.0
647,D3,79.0,0.5,95,155.0
648,A2,79.0,0.5,95,155.0
649,D2,79.0,0.5,95,155.0
650,D3,79.0,0.5,95,155.0
651,A2,79.0,0.5,95,155.0
652,D2,79.0,0.5,95,155.0
653,C1,79.5,0.5,95,155.0
654,C3,79.5,0.5,95,155.0
655,G2,79.5,0.5,95,155.0
656,C2,79.5,0.5,95,155.0
657,C3,79.5,0.5,95,155.0
658,G2,79.5,0.5,95,155.0
659,C2,79.5,0.5,95,155.0
660,C1,80.0,0.5,95,155.0
661,C3,80.0,0.5,95,155.0
662,G2,80.0,0.5,95,155.0
663,C2,80.0,0.5,95,155.0
664,C3,80.0,0.5,95,155.0
665,G2,80.0,0.5,95,155.0
666,C2,80.0,0.5,95,155.0
667,B0,80.5,0.5,95,155.0
668,B2,80.5,0.5,95,155.0
669,F#2,80.5,0.5,95,155.0
670,B1,80.5,0.5,95,155.0
671,B2,80.5,0.5,95,155.0
672,F#2,80.5,0.5,95,155.0
673,B1,80.5,0.5,95,155.0
674,B0,81.0,0.5,95,155.0
675,B2,81.0,0.5,95,155.0
676,F#2,81.0,0.5,95,155.0
677,B1,81.0,0.5,95,155.0
678,B2,81.0,0.5,95,155.0
679,F#2,81.0,0.5,95,155.0
680,B1,81.0,0.5,95,155.0
681,F1,81.5,0.5,95,155.0
682,F3,81.5,0.5,95,155.0
683,C3,81.5,0.5,95,155.0
684,F2,81.5,0.5,95,155.0
685,F3,81.5,0.5,95,155.0
686,C3,81.5,0.5,95,155.0
687,F2,81.5,0.5,95,155.0
688,F1,82.0,0.5,95,155.0
689,F3,82.0,0.5,95,155.0
690,C3,82.0,0.5,95,155.0
691,F2,82.0,0.5,95,155.0
692,F3,82.0,0.5,95,155.0
693,C3,82.0,0.5,95,155.0
694,F2,82.0,0.5,95,155.0
695,B0,82.5,0.5,95,155.0
696,B2,82.5,0.5,95,155.0
697,F#2,82.5,0.5,95,155.0
698,B1,82.5,0.5,95,155.0
699,B2,82.5,0.5,95,155.0
700,F#2,82.5,0.5,95,155.0
701,B1,82.5,0.5,95,155.0
702,B0,83.0,0.5,95,155.0
703,B2,83.0,0.5,95,155.0
704,F#2,83.0,0.5,95,155.0
705,B1,83.0,0.5,95,155.0
706,B2,83.0,0.5,95,155.0
707,F#2,83.0,0.5,95,155.0
708,B1,83.0,0.5,95,155.0
709,B2,83.5,21/500,95,155.0
710,C1,83.5,0.5,95,155.0
711,C4,83.5,0.5,95,155.0
712,C3,83.5,0.5,95,155.0
713,C3,83.5,0.5,95,155.0
714,G2,83.5,0.5,95,155.0
715,C2,83.5,0.5,95,155.0
716,B2,84.0,21/500,95,155.0
717,C1,84.0,0.5,95,155.0
718,C4,84.0,0.5,95,155.0
719,C3,84.0,0.5,95,155.0
720,C3,84.0,0.5,95,155.0
721,G2,84.0,0.5,95,155.0
722,C2,84.0,0.5,95,155.0
723,B0,84.5,0.5,95,155.0
724,B3,84.5,0.5,86,155.0
725,B2,84.5,0.5,86,155.0
726,B2,84.5,0.5,95,155.0
727,F#2,84.5,0.5,95,155.0
728,B1,84.5,0.5,95,155.0
729,B0,85.0,0.5,95,155.0
730,B3,85.0,0.5,95,155.0
731,B2,85.0,0.5,95,155.0
732,B2,85.0,0.5,95,155.0
733,F#2,85.0,0.5,95,155.0
734,B1,85.0,0.5,95,155.0
735,F1,85.5,0.5,95,155.0
736,F3,85.5,0.5,95,155.0
737,C3,85.5,0.5,95,155.0
738,F2,85.5,0.5,95,155.0
739,F3,85.5,0.5,95,155.0
740,C3,85.5,0.5,95,155.0
741,F2,85.5,0.5,95,155.0
742,F1,86.0,0.5,95,155.0
743,F3,86.0,0.5,95,155.0
744,C3,86.0,0.5,95,155.0
745,F2,86.0,0.5,95,155.0
746,F3,86.0,0.5,95,155.0
747,C3,86.0,0.5,95,155.0
748,F2,86.0,0.5,95,155.0
749,B0,86.5,0.5,95,155.0
750,B2,86.5,0.5,95,155.0
751,F#2,86.5,0.5,95,155.0
752,B1,86.5,0.5,95,155.0
753,B2,86.5,0.5,95,155.0
754,F#2,86.5,0.5,95,155.0
755,B1,86.5,0.5,95,155.0
756,B0,87.0,0.5,95,155.0
757,B2,87.0,0.5,95,155.0
758,F#2,87.0,0.5,95,155.0
759,B1,87.0,0.5,95,155.0
760,B2,87.0,0.5,95,155.0
761,F#2,87.0,0.5,95,155.0
762,B1,87.0,0.5,95,155.0
763,C1,87.5,0.5,95,155.0
764,C3,87.5,0.5,95,155.0
765,G2,87.5,0.5,95,155.0
766,C2,87.5,0.5,95,155.0
767,C3,87.5,0.5,95,155.0
768,G2,87.5,0.5,95,155.0
769,C2,87.5,0.5,95,155.0
770,C1,88.0,0.5,95,155.0
771,C3,88.0,0.5,95,155.0
772,G2,88.0,0.5,95,155.0
773,C2,88.0,0.5,95,155.0
774,C3,88.0,0.5,95,155.0
775,G2,88.0,0.5,95,155.0
776,C2,88.0,0.5,95,155.0
777,B0,88.5,0.5,95,155.0
778,B2,88.5,0.5,95,155.0
779,F#2,88.5,0.5,95,155.0
780,B1,88.5,0.5,95,155.0
781,B2,88.5,0.5,95,155.0
782,F#2,88.5,0.5,95,155.0
783,B1,88.5,0.5,95,155.0
784,B0,89.0,0.5,95,155.0
785,B2,89.0,0.5,95,155.0
786,F#2,89.0,0.5,95,155.0
787,B1,89.0,0.5,95,155.0
788,B2,89.0,0.5,95,155.0
789,F#2,89.0,0.5,95,155.0
790,B1,89.0,0.5,95,155.0
791,F1,89.5,0.5,95,155.0
792,F3,89.5,0.5,95,155.0
793,C3,89.5,0.5,95,155.0
794,F2,89.5,0.5,95,155.0
795,F3,89.5,0.5,95,155.0
796,C3,89.5,0.5,95,155.0
797,F2,89.5,0.5,95,155.0
798,F1,90.0,0.5,95,155.0
799,F3,90.0,0.5,95,155.0
800,C3,90.0,0.5,95,155.0
801,F2,90.0,0.5,95,155.0
802,F3,90.0,0.5,95,155.0
803,C3,90.0,0.5,95,155.0
804,F2,90.0,0.5,95,155.0
805,B0,90.5,0.5,95,155.0
806,B2,90.5,0.5,95,155.0
807,F#2,90.5,0.5,95,155.0
808,B1,90.5,0.5,95,155.0
809,B2,90.5,0.5,95,155.0
810,F#2,90.5,0.5,95,155.0
811,B1,90.5,0.5,95,155.0
812,B0,91.0,0.5,95,155.0
813,B2,91.0,0.5,95,155.0
814,F#2,91.0,0.5,95,155.0
815,B1,91.0,0.5,95,155.0
816,B2,91.0,0.5,95,155.0
817,F#2,91.0,0.5,95,155.0
818,B1,91.0,0.5,95,155.0
819,B2,91.5,21/500,95,155.0
820,C1,91.5,0.5,95,155.0
821,C4,91.5,0.5,95,155.0
822,C3,91.5,0.5,95,155.0
823,C3,91.5,0.5,95,155.0
824,G2,91.5,0.5,95,155.0
825,C2,91.5,0.5,95,155.0
826,B2,92.0,21/500,95,155.0
827,C1,92.0,0.5,95,155.0
828,C4,92.0,0.5,95,155.0
829,C3,92.0,0.5,95,155.0
830,C3,92.0,0.5,95,155.0
831,G2,92.0,0.5,95,155.0
832,C2,92.0,0.5,95,155.0
833,B0,92.5,0.5,95,155.0
834,B3,92.5,0.5,86,155.0
835,B2,92.5,0.5,86,155.0
836,B2,92.5,0.5,95,155.0
837,F#2,92.5,0.5,95,155.0
838,B1,92.5,0.5,95,155.0
839,B0,93.0,0.5,95,155.0
840,B3,93.0,0.5,95,155.0
841,B2,93.0,0.5,95,155.0
842,B2,93.0,0.5,95,155.0
843,F#2,93.0,0.5,95,155.0
844,B1,93.0,0.5,95,155.0
845,D1,93.5,0.5,95,155.0
846,D3,93.5,0.5,95,155.0
847,A2,93.5,0.5,95,155.0
848,D2,93.5,0.5,95,155.0
849,D3,93.5,0.5,95,155.0
850,A2,93.5,0.5,95,155.0
851,D2,93.5,0.5,95,155.0
852,D1,94.0,0.5,95,155.0
853,D3,94.0,0.5,95,155.0
854,A2,94.0,0.5,95,155.0
855,D2,94.0,0.5,95,155.0
856,D3,94.0,0.5,95,155.0
857,A2,94.0,0.5,95,155.0
858,D2,94.0,0.5,95,155.0
859,D1,94.5,0.5,95,155.0
860,D3,94.5,0.5,95,155.0
861,A2,94.5,0.5,95,155.0
862,D2,94.5,0.5,95,155.0
863,D3,94.5,0.5,95,155.0
864,A2,94.5,0.5,95,155.0
865,D2,94.5,0.5,95,155.0
866,D1,95.0,0.5,95,155.0
867,D3,95.0,0.5,95,155.0
868,A2,95.0,0.5,95,155.0
869,D2,95.0,0.5,95,155.0
870,D3,95.0,0.5,95,155.0
871,A2,95.0,0.5,95,155.0
872,D2,95.0,0.5,95,155.0
873,C1,95.5,0.5,95,155.0
874,C3,95.5,0.5,95,155.0
875,G2,95.5,0.5,95,155.0
876,C2,95.5,0.5,95,155.0
877,C3,95.5,0.5,95,155.0
878,G2,95.5,0.5,95,155.0
879,C2,95.5,0.5,95,155.0
880,C1,96.0,0.5,95,155.0
881,C3,96.0,0.5,95,155.0
882,G2,96.0,0.5,95,155.0
883,C2,96.0,0.5,95,155.0
884,C3,96.0,0.5,95,155.0
885,G2,96.0,0.5,95,155.0
886,C2,96.0,0.5,95,155.0
887,B0,96.5,0.5,95,155.0
888,B2,96.5,0.5,95,155.0
889,F#2,96.5,0.5,95,155.0
890,B1,96.5,0.5,95,155.0
891,B2,96.5,0.5,95,155.0
892,F#2,96.5,0.5,95,155.0
893,B1,96.5,0.5,95,155.0
894,B0,97.0,0.5,95,155.0
895,B2,97.0,0.5,95,155.0
896,F#2,97.0,0.5,95,155.0
897,B1,97.0,0.5,95,155.0
898,B2,97.0,0.5,95,155.0
899,F#2,97.0,0.5,95,155.0
900,B1,97.0,0.5,95,155.0
901,F1,97.5,0.5,95,155.0
902,F3,97.5,0.5,95,155.0
903,C3,97.5,0.5,95,155.0
904,F2,97.5,0.5,95,155.0
905,F3,97.5,0.5,95,155.0
906,C3,97.5,0.5,95,155.0
907,F2,97.5,0.5,95,155.0
908,F1,98.0,0.5,95,155.0
909,F3,98.0,0.5,95,155.0
910,C3,98.0,0.5,95,155.0
911,F2,98.0,0.5,95,155.0
912,F3,98.0,0.5,95,155.0
913,C3,98.0,0.5,95,155.0
914,F2,98.0,0.5,95,155.0
915,B0,98.5,0.5,95,155.0
916,B2,98.5,0.5,95,155.0
917,F#2,98.5,0.5,95,155.0
918,B1,98.5,0.5,95,155.0
919,B2,98.5,0.5,95,155.0
920,F#2,98.5,0.5,95,155.0
921,B1,98.5,0.5,95,155.0
922,B0,99.0,0.5,95,155.0
923,B2,99.0,0.5,95,155.0
924,F#2,99.0,0.5,95,155.0
925,B1,99.0,0.5,95,155.0
926,B2,99.0,0.5,95,155.0
927,F#2,99.0,0.5,95,155.0
928,B1,99.0,0.5,95,155.0
929,B2,99.5,21/500,95,155.0
930,C1,99.5,0.5,95,155.0
931,C4,99.5,0.5,95,155.0
932,C3,99.5,0.5,95,155.0
933,C3,99.5,0.5,95,155.0
934,G2,99.5,0.5,95,155.0
935,C2,99.5,0.5,95,155.0
936,B2,100.0,21/500,95,155.0
937,C1,100.0,0.5,95,155.0
938,C4,100.0,0.5,95,155.0
939,C3,100.0,0.5,95,155.0
940,C3,100.0,0.5,95,155.0
941,G2,100.0,0.5,95,155.0
942,C2,100.0,0.5,95,155.0
943,B0,100.5,0.5,95,155.0
944,B3,100.5,0.5,86,155.0
945,B2,100.5,0.5,86,155.0
946,B2,100.5,0.5,95,155.0
947,F#2,100.5,0.5,95,155.0
948,B1,100.5,0.5,95,155.0
949,B0,101.0,0.5,95,155.0
950,B3,101.0,0.5,95,155.0
951,B2,101.0,0.5,95,155.0
952,B2,101.0,0.5,95,155.0
953,F#2,101.0,0.5,95,155.0
954,B1,101.0,0.5,95,155.0
955,F1,101.5,0.5,95,155.0
956,F3,101.5,0.5,95,155.0
957,C3,101.5,0.5,95,155.0
958,F2,101.5,0.5,95,155.0
959,F3,101.5,0.5,95,155.0
960,C3,101.5,0.5,95,155.0
961,F2,101.5,0.5,95,155.0
962,F1,102.0,0.5,95,155.0
963,F3,102.0,0.5,95,155.0
964,C3,102.0,0.5,95,155.0
965,F2,102.0,0.5,95,155.0
966,F3,102.0,0.5,95,155.0
967,C3,102.0,0.5,95,155.0
968,F2,102.0,0.5,95,155.0
969,B0,102.5,0.5,95,155.0
970,B2,102.5,0.5,95,155.0
971,F#2,102.5,0.5,95,155.0
972,B1,102.5,0.5,95,155.0
973,B2,102.5,0.5,95,155.0
974,F#2,102.5,0.5,95,155.0
975,B1,102.5,0.5,95,155.0
976,B0,103.0,0.5,95,155.0
977,B2,103.0,0.5,95,155.0
978,F#2,103.0,0.5,95,155.0
979,B1,103.0,0.5,95,155.0
980,B2,103.0,0.5,95,155.0
981,F#2,103.0,0.5,95,155.0
982,B1,103.0,0.5,95,155.0
983,C1,103.5,0.5,95,155.0
984,C3,103.5,0.5,95,155.0
985,G2,103.5,0.5,95,155.0
986,C2,103.5,0.5,95,155.0
987,C3,103.5,0.5,95,155.0
988,G2,103.5,0.5,95,155.0
989,C2,103.5,0.5,95,155.0
990,C1,104.0,0.5,95,155.0
991,C3,104.0,0.5,95,155.0
992,G2,104.0,0.5,95,155.0
993,C2,104.0,0.5,95,155.0
994,C3,104.0,0.5,95,155.0
995,G2,104.0,0.5,95,155.0
996,C2,104.0,0.5,95,155.0
997,B0,104.5,0.5,95,155.0
998,B2,104.5,0.5,95,155.0
999,F#2,104.5,0.5,95,155.0
1000,B1,104.5,0.5,95,155.0
1001,B2,104.5,0.5,95,155.0
1002,F#2,104.5,0.5,95,155.0
1003,B1,104.5,0.5,95,155.0
1004,B0,105.0,0.5,95,155.0
1005,B2,105.0,0.5,95,155.0
1006,F#2,105.0,0.5,95,155.0
1007,B1,105.0,0.5,95,155.0
1008,B2,105.0,0.5,95,155.0
1009,F#2,105.0,0.5,95,155.0
1010,B1,105.0,0.5,95,155.0
1011,F1,105.5,0.5,95,155.0
1012,F3,105.5,0.5,95,155.0
1013,C3,105.5,0.5,95,155.0
1014,F2,105.5,0.5,95,155.0
1015,F3,105.5,0.5,95,155.0
1016,C3,105.5,0.5,95,155.0
1017,F2,105.5,0.5,95,155.0
1018,F1,106.0,0.5,95,155.0
1019,F3,106.0,0.5,95,155.0
1020,C3,106.0,0.5,95,155.0
1021,F2,106.0,0.5,95,155.0
1022,F3,106.0,0.5,95,155.0
1023,C3,106.0,0.5,95,155.0
1024,F2,106.0,0.5,95,155.0
1025,B0,106.5,0.5,95,155.0
1026,B2,106.5,0.5,95,155.0
1027,F#2,106.5,0.5,95,155.0
1028,B1,106.5,0.5,95,155.0
1029,B2,106.5,0.5,95,155.0
1030,F#2,106.5,0.5,95,155.0
1031,B1,106.5,0.5,95,155.0
1032,B0,107.0,0.5,95,155.0
1033,B2,107.0,0.5,95,155.0
1034,F#2,107.0,0.5,95,155.0
1035,B1,107.0,0.5,95,155.0
1036,B2,107.0,0.5,95,155.0
1037,F#2,107.0,0.5,95,155.0
1038,B1,107.0,0.5,95,155.0
1039,B2,107.5,21/500,95,155.0
1040,C1,107.5,0.5,95,155.0
1041,C4,107.5,0.5,95,155.0
1042,C3,107.5,0.5,95,155.0
1043,C3,107.5,0.5,95,155.0
1044,G2,107.5,0.5,95,155.0
1045,C2,107.5,0.5,95,155.0
1046,B2,108.0,21/500,95,155.0
1047,C1,108.0,0.5,95,155.0
1048,C4,108.0,0.5,95,155.0
1049,C3,108.0,0.5,95,155.0
1050,C3,108.0,0.5,95,155.0
1051,G2,108.0,0.5,95,155.0
1052,C2,108.0,0.5,95,155.0
1053,B0,108.5,0.5,95,155.0
1054,B3,108.5,0.5,86,155.0
1055,B2,108.5,0.5,86,155.0
1056,B2,108.5,0.5,95,155.0
1057,F#2,108.5,0.5,95,155.0
1058,B1,108.5,0.5,95,155.0
1059,B0,109.0,0.5,95,155.0
1060,B3,109.0,0.5,95,155.0
1061,B2,109.0,0.5,95,155.0
1062,B2,109.0,0.5,95,155.0
1063,F#2,109.0,0.5,95,155.0
1064,B1,109.0,0.5,95,155.0
1065,D1,109.5,0.5,95,155.0
1066,D3,109.5,0.5,95,155.0
1067,A2,109.5,0.5,95,155.0
1068,D2,109.5,0.5,95,155.0
1069,D3,109.5,0.5,95,155.0
1070,A2,109.5,0.5,95,155.0
1071,D2,109.5,0.5,95,155.0
1072,D1,110.0,0.5,95,155.0
1073,D3,110.0,0.5,95,155.0
1074,A2,110.0,0.5,95,155.0
1075,D2,110.0,0.5,95,155.0
1076,D3,110.0,0.5,95,155.0
1077,A2,110.0,0.5,95,155.0
1078,D2,110.0,0.5,95,155.0
1079,D1,110.5,0.5,95,155.0
1080,D3,110.5,0.5,95,155.0
1081,A2,110.5,0.5,95,155.0
1082,D2,110.5,0.5,95,155.0
1083,D3,110.5,0.5,95,155.0
1084,A2,110.5,0.5,95,155.0
1085,D2,110.5,0.5,95,155.0
1086,D1,111.0,0.5,95,155.0
1087,D3,111.0,0.5,95,155.0
1088,A2,111.0,0.5,95,155.0
1089,D2,111.0,0.5,95,155.0
1090,D3,111.0,0.5,95,155.0
1091,A2,111.0,0.5,95,155.0
1092,D2,111.0,0.5,95,155.0
1093,C1,111.5,0.5,95,155.0
1094,C3,111.5,0.5,95,155.0
1095,G2,111.5,0.5,95,155.0
1096,C2,111.5,0.5,95,155.0
1097,C3,111.5,0.5,95,155.0
1098,G2,111.5,0.5,95,155.0
1099,C2,111.5,0.5,95,155.0
1100,B2,112.0,21/500,95,155.0
1101,G3,112.0,0.5,95,155.0
1102,G2,112.0,0.5,95,155.0
1103,B2,112.5,21/500,95,155.0
1104,G3,112.5,1.0,95,155.0
1105,G2,112.5,1.0,95,155.0
1106,B2,113.5,21/500,95,155.0
1107,C4,113.5,0.5,95,155.0
1108,C3,113.5,0.5,95,155.0
1109,B2,114.0,21/500,95,155.0
1110,C4,114.0,1.0,95,155.0
1111,C3,114.0,1.0,95,155.0
1112,B2,115.0,21/500,95,155.0
1113,G3,115.0,0.5,95,155.0
1114,G2,115.0,0.5,95,155.0
1115,B2,115.5,21/500,95,155.0
1116,G3,115.5,0.5,95,155.0
1117,G2,115.5,0.5,95,155.0
1118,G3,116.5,0.5,95,155.0
1119,G2,116.5,0.5,95,155.0
1120,B2,117.0,21/500,95,155.0
1121,C4,117.0,0.5,95,155.0
1122,C3,117.0,0.5,95,155.0
1123,B2,117.5,21/500,95,155.0
1124,C4,117.5,1.0,95,155.0
1125,C3,117.5,1.0,95,155.0
1126,B2,118.5,21/500,95,155.0
1127,G3,118.5,1.0,95,155.0
1128,G2,118.5,1.0,95,155.0
1129,B2,119.5,21/500,95,155.0
1130,C4,119.5,1.0,95,155.0
1131,C3,119.5,1.0,95,155.0
1132,F1,120.0,0.5,95,155.0
1133,F3,120.0,0.5,95,155.0
1134,C3,120.0,0.5,95,155.0
1135,F2,120.0,0.5,95,155.0
1136,F1,120.5,0.5,95,155.0
1137,F3,120.5,0.5,95,155.0
1138,C3,120.5,0.5,95,155.0
1139,F2,120.5,0.5,95,155.0
1140,F3,120.5,0.5,95,155.0
1141,C3,120.5,0.5,95,155.0
1142,F2,120.5,0.5,95,155.0
1143,F1,121.0,0.5,95,155.0
1144,F3,121.0,0.5,95,155.0
1145,C3,121.0,0.5,95,155.0
1146,F2,121.0,0.5,95,155.0
1147,F3,121.0,0.5,95,155.0
1148,C3,121.0,0.5,95,155.0
1149,F2,121.0,0.5,95,155.0
1150,B3,121.5,0.5,95,155.0
1151,F1,121.5,0.5,95,155.0
1152,F3,121.5,0.5,95,155.0
1153,C3,121.5,0.5,95,155.0
1154,F2,121.5,0.5,95,155.0
1155,B3,122.0,0.5,95,155.0
1156,F1,122.0,0.5,95,155.0
1157,F3,122.0,0.5,95,155.0
1158,C3,122.0,0.5,95,155.0
1159,F2,122.0,0.5,95,155.0
1160,B3,122.5,0.5,95,155.0
1161,F1,122.5,0.5,95,155.0
1162,F3,122.5,0.5,95,155.0
1163,C3,122.5,0.5,95,155.0
1164,F2,122.5,0.5,95,155.0
1165,B3,123.0,0.5,95,155.0
1166,F1,123.0,0.5,95,155.0
1167,F3,123.0,0.5,95,155.0
1168,C3,123.0,0.5,95,155.0
1169,F2,123.0,0.5,95,155.0
1170,B3,123.5,0.5,95,155.0
1171,F1,123.5,0.5,95,155.0
1172,F3,123.5,0.5,95,155.0
1173,C3,123.5,0.5,95,155.0
1174,F2,123.5,0.5,95,155.0
1175,B3,124.0,0.5,95,155.0
1176,C1,124.0,0.5,95,155.0
1177,C3,124.0,0.5,95,155.0
1178,G2,124.0,0.5,95,155.0
1179,C2,124.0,0.5,95,155.0
1180,C1,124.5,0.5,95,155.0
1181,C3,124.5,0.5,95,155.0
1182,G2,124.5,0.5,95,155.0
1183,C2,124.5,0.5,95,155.0
1184,C3,124.5,0.5,95,155.0
1185,G2,124.5,0.5,95,155.0
1186,C2,124.5,0.5,95,155.0
1187,C1,125.0,0.5,95,155.0
1188,C3,125.0,0.5,95,155.0
1189,G2,125.0,0.5,95,155.0
1190,C2,125.0,0.5,95,155.0
1191,C3,125.0,0.5,95,155.0
1192,G2,125.0,0.5,95,155.0
1193,C2,125.0,0.5,95,155.0
1194,F#3,125.5,0.5,95,155.0
1195,C1,125.5,0.5,95,155.0
1196,C3,125.5,0.5,95,155.0
1197,G2,125.5,0.5,95,155.0
1198,C2,125.5,0.5,95,155.0
1199,F#3,126.0,0.5,95,155.0
1200,C1,126.0,0.5,95,155.0
1201,C3,126.0,0.5,95,155.0
1202,G2,126.0,0.5,95,155.0
1203,C2,126.0,0.5,95,155.0
1204,F#3,126.5,0.5,95,155.0
1205,C1,126.5,0.5,95,155.0
1206,C3,126.5,0.5,95,155.0
1207,G2,126.5,0.5,95,155.0
1208,C2,126.5,0.5,95,155.0
1209,F#3,127.0,0.5,95,155.0
1210,C1,127.0,0.5,95,155.0
1211,C3,127.0,0.5,95,155.0
1212,G2,127.0,0.5,95,155.0
1213,C2,127.0,0.5,95,155.0
1214,F#3,127.5,0.5,95,155.0
1215,C1,127.5,0.5,95,155.0
1216,C3,127.5,0.5,95,155.0
1217,G2,127.5,0.5,95,155.0
1218,C2,127.5,0.5,95,155.0
1219,F#3,128.0,0.5,95,155.0
1220,G1,128.0,0.5,95,155.0
1221,G3,128.0,0.5,95,155.0
1222,D3,128.0,0.5,95,155.0
1223,G2,128.0,0.5,95,155.0
1224,B2,128.5,21/500,95,155.0
1225,G1,128.5,1.0,95,155.0
1226,G3,128.5,0.5,95,155.0
1227,G2,128.5,0.5,95,155.0
1228,G3,128.5,1.0,95,155.0
1229,D3,128.5,1.0,95,155.0
1230,G2,128.5,1.0,95,155.0
1231,B2,129.0,21/500,95,155.0
1232,G3,129.0,1.0,95,155.0
1233,G2,129.0,1.0,95,155.0
1234,C2,129.5,0.5,95,155.0
1235,C4,129.5,0.5,95,155.0
1236,G3,129.5,0.5,95,155.0
1237,C3,129.5,0.5,95,155.0
1238,B2,130.0,21/500,95,155.0
1239,C2,130.0,1.0,95,155.0
1240,C4,130.0,0.5,95,155.0
1241,C3,130.0,0.5,95,155.0
1242,C4,130.0,1.0,95,155.0
1243,G3,130.0,1.0,95,155.0
1244,C3,130.0,1.0,95,155.0
1245,B2,130.5,21/500,95,155.0
1246,C4,130.5,1.0,95,155.0
1247,C3,130.5,1.0,95,155.0
1248,G1,131.0,0.5,95,155.0
1249,G3,131.0,0.5,95,155.0
1250,D3,131.0,0.5,95,155.0
1251,G2,131.0,0.5,95,155.0
1252,B2,131.5,21/500,95,155.0
1253,G1,131.5,0.5,95,155.0
1254,G3,131.5,0.5,95,155.0
1255,G2,131.5,0.5,95,155.0
1256,G3,131.5,0.5,95,155.0
1257,D3,131.5,0.5,95,155.0
1258,G2,131.5,0.5,95,155.0
1259,B2,132.0,21/500,95,155.0
1260,G1,132.0,0.5,95,155.0
1261,G3,132.0,0.5,95,155.0
1262,G2,132.0,0.5,95,155.0
1263,C2,132.5,0.5,95,155.0
1264,G3,132.5,0.5,95,155.0
1265,D3,132.5,0.5,95,155.0
1266,G2,132.5,0.5,95,155.0
1267,C2,133.0,1.0,95,155.0
1268,G3,133.0,0.5,95,155.0
1269,G2,133.0,0.5,95,155.0
1270,C4,133.0,0.5,95,155.0
1271,G3,133.0,0.5,95,155.0
1272,C3,133.0,0.5,95,155.0
1273,B2,133.5,21/500,95,155.0
1274,C4,133.5,0.5,95,155.0
1275,C3,133.5,0.5,95,155.0
1276,C4,133.5,1.0,95,155.0
1277,G3,133.5,1.0,95,155.0
1278,C3,133.5,1.0,95,155.0
1279,B2,134.0,21/500,95,155.0
1280,G1,134.0,1.0,95,155.0
1281,C4,134.0,1.0,95,155.0
1282,C3,134.0,1.0,95,155.0
1283,G3,134.5,1.0,95,155.0
1284,D3,134.5,1.0,95,155.0
1285,G2,134.5,1.0,95,155.0
1286,B2,135.0,21/500,95,155.0
1287,C2,135.0,1.0,95,155.0
1288,G3,135.0,1.0,95,155.0
1289,G2,135.0,1.0,95,155.0
1290,C4,135.5,1.0,95,155.0
1291,G3,135.5,1.0,95,155.0
1292,C3,135.5,1.0,95,155.0
1293,B2,136.0,21/500,95,155.0
1294,F1,136.0,0.5,95,155.0
1295,C4,136.0,1.0,95,155.0
1296,C3,136.0,1.0,95,155.0
1297,F1,136.5,0.5,95,155.0
1298,F3,136.5,0.5,95,155.0
1299,C3,136.5,0.5,95,155.0
1300,F2,136.5,0.5,95,155.0
1301,F1,137.0,0.5,95,155.0
1302,F3,137.0,0.5,95,155.0
1303,C3,137.0,0.5,95,155.0
1304,F2,137.0,0.5,95,155.0
1305,F3,137.0,0.5,95,155.0
1306,C3,137.0,0.5,95,155.0
1307,F2,137.0,0.5,95,155.0
1308,F1,137.5,0.5,95,155.0
1309,F3,137.5,0.5,95,155.0
1310,C3,137.5,0.5,95,155.0
1311,F2,137.5,0.5,95,155.0
1312,F3,137.5,0.5,95,155.0
1313,C3,137.5,0.5,95,155.0
1314,F2,137.5,0.5,95,155.0
1315,B3,138.0,0.5,95,155.0
1316,F1,138.0,0.5,95,155.0
1317,F3,138.0,0.5,95,155.0
1318,C3,138.0,0.5,95,155.0
1319,F2,138.0,0.5,95,155.0
1320,B3,138.5,0.5,95,155.0
1321,F1,138.5,0.5,95,155.0
1322,F3,138.5,0.5,95,155.0
1323,C3,138.5,0.5,95,155.0
1324,F2,138.5,0.5,95,155.0
1325,B3,139.0,0.5,95,155.0
1326,F1,139.0,0.5,95,155.0
1327,F3,139.0,0.5,95,155.0
1328,C3,139.0,0.5,95,155.0
1329,F2,139.0,0.5,95,155.0
1330,B3,139.5,0.5,95,155.0
1331,F1,139.5,0.5,95,155.0
1332,F3,139.5,0.5,95,155.0
1333,C3,139.5,0.5,95,155.0
1334,F2,139.5,0.5,95,155.0
1335,B3,140.0,0.5,95,155.0
1336,C1,140.0,0.5,95,155.0
1337,F3,140.0,0.5,95,155.0
1338,C3,140.0,0.5,95,155.0
1339,F2,140.0,0.5,95,155.0
1340,B3,140.5,0.5,95,155.0
1341,C1,140.5,0.5,95,155.0
1342,C3,140.5,0.5,95,155.0
1343,G2,140.5,0.5,95,155.0
1344,C2,140.5,0.5,95,155.0
1345,C1,141.0,0.5,95,155.0
1346,C3,141.0,0.5,95,155.0
1347,G2,141.0,0.5,95,155.0
1348,C2,141.0,0.5,95,155.0
1349,C3,141.0,0.5,95,155.0
1350,G2,141.0,0.5,95,155.0
1351,C2,141.0,0.5,95,155.0
1352,C1,141.5,0.5,95,155.0
1353,C3,141.5,0.5,95,155.0
1354,G2,141.5,0.5,95,155.0
1355,C2,141.5,0.5,95,155.0
1356,C3,141.5,0.5,95,155.0
1357,G2,141.5,0.5,95,155.0
1358,C2,141.5,0.5,95,155.0
1359,F#3,142.0,0.5,95,155.0
1360,C1,142.0,0.5,95,155.0
1361,C3,142.0,0.5,95,155.0
1362,G2,142.0,0.5,95,155.0
1363,C2,142.0,0.5,95,155.0
1364,F#3,142.5,0.5,95,155.0
1365,C1,142.5,0.5,95,155.0
1366,C3,142.5,0.5,95,155.0
1367,G2,142.5,0.5,95,155.0
1368,C2,142.5,0.5,95,155.0
1369,F#3,143.0,0.5,95,155.0
1370,C1,143.0,0.5,95,155.0
1371,C3,143.0,0.5,95,155.0
1372,G2,143.0,0.5,95,155.0
1373,C2,143.0,0.5,95,155.0
1374,F#3,143.5,0.5,95,155.0
1375,C1,143.5,0.5,95,155.0
1376,C3,143.5,0.5,95,155.0
1377,G2,143.5,0.5,95,155.0
1378,C2,143.5,0.5,95,155.0
1379,F#3,144.0,0.5,95,155.0
1380,G1,144.0,0.5,95,155.0
1381,C3,144.0,0.5,95,155.0
1382,G2,144.0,0.5,95,155.0
1383,C2,144.0,0.5,95,155.0
1384,F#3,144.5,0.5,95,155.0
1385,G1,144.5,1.0,95,155.0
1386,G3,144.5,0.5,95,155.0
1387,D3,144.5,0.5,95,155.0
1388,G2,144.5,0.5,95,155.0
1389,B2,145.0,21/500,95,155.0
1390,G3,145.0,0.5,95,155.0
1391,G2,145.0,0.5,95,155.0
1392,G3,145.0,1.0,95,155.0
1393,D3,145.0,1.0,95,155.0
1394,G2,145.0,1.0,95,155.0
1395,B2,145.5,21/500,95,155.0
1396,C2,145.5,0.5,95,155.0
1397,G3,145.5,1.0,95,155.0
1398,G2,145.5,1.0,95,155.0
1399,C2,146.0,1.0,95,155.0
1400,C4,146.0,0.5,95,155.0
1401,G3,146.0,0.5,95,155.0
1402,C3,146.0,0.5,95,155.0
1403,B2,146.5,21/500,95,155.0
1404,C4,146.5,0.5,95,155.0
1405,C3,146.5,0.5,95,155.0
1406,C4,146.5,1.0,95,155.0
1407,G3,146.5,1.0,95,155.0
1408,C3,146.5,1.0,95,155.0
1409,B2,147.0,21/500,95,155.0
1410,G1,147.0,0.5,95,155.0
1411,C4,147.0,1.0,95,155.0
1412,C3,147.0,1.0,95,155.0
1413,G1,147.5,0.5,95,155.0
1414,G3,147.5,0.5,95,155.0
1415,D3,147.5,0.5,95,155.0
1416,G2,147.5,0.5,95,155.0
1417,B2,148.0,21/500,95,155.0
1418,G1,148.0,0.5,95,155.0
1419,G3,148.0,0.5,95,155.0
1420,G2,148.0,0.5,95,155.0
1421,G3,148.0,0.5,95,155.0
1422,D3,148.0,0.5,95,155.0
1423,G2,148.0,0.5,95,155.0
1424,B2,148.5,21/500,95,155.0
1425,C2,148.5,0.5,95,155.0
1426,G3,148.5,0.5,95,155.0
1427,G2,148.5,0.5,95,155.0
1428,C2,149.0,1.0,95,155.0
1429,G3,149.0,0.5,95,155.0
1430,D3,149.0,0.5,95,155.0
1431,G2,149.0,0.5,95,155.0
1432,G3,149.5,0.5,95,155.0
1433,G2,149.5,0.5,95,155.0
1434,C4,149.5,0.5,95,155.0
1435,G3,149.5,0.5,95,155.0
1436,C3,149.5,0.5,95,155.0
1437,B2,150.0,21/500,95,155.0
1438,G1,150.0,1.0,95,155.0
1439,C4,150.0,0.5,95,155.0
1440,C3,150.0,0.5,95,155.0
1441,C4,150.0,1.0,95,155.0
1442,G3,150.0,1.0,95,155.0
1443,C3,150.0,1.0,95,155.0
1444,B2,150.5,21/500,95,155.0
1445,C4,150.5,1.0,95,155.0
1446,C3,150.5,1.0,95,155.0
1447,C2,151.0,1.0,95,155.0
1448,G3,151.0,1.0,95,155.0
1449,D3,151.0,1.0,95,155.0
1450,G2,151.0,1.0,95,155.0
1451,B2,151.5,21/500,95,155.0
1452,G3,151.5,1.0,95,155.0
1453,G2,151.5,1.0,95,155.0
1454,F1,152.0,0.5,95,155.0
1455,C4,152.0,1.0,95,155.0
1456,G3,152.0,1.0,95,155.0
1457,C3,152.0,1.0,95,155.0
1458,B2,152.5,21/500,95,155.0
1459,F1,152.5,0.5,95,155.0
1460,C4,152.5,1.0,95,155.0
1461,C3,152.5,1.0,95,155.0
1462,F1,153.0,0.5,95,155.0
1463,F3,153.0,0.5,95,155.0
1464,C3,153.0,0.5,95,155.0
1465,F2,153.0,0.5,95,155.0
1466,F1,153.5,0.5,95,155.0
1467,F3,153.5,0.5,95,155.0
1468,C3,153.5,0.5,95,155.0
1469,F2,153.5,0.5,95,155.0
1470,F3,153.5,0.5,95,155.0
1471,C3,153.5,0.5,95,155.0
1472,F2,153.5,0.5,95,155.0
1473,F1,154.0,0.5,95,155.0
1474,F3,154.0,0.5,95,155.0
1475,C3,154.0,0.5,95,155.0
1476,F2,154.0,0.5,95,155.0
1477,F3,154.0,0.5,95,155.0
1478,C3,154.0,0.5,95,155.0
1479,F2,154.0,0.5,95,155.0
1480,B3,154.5,0.5,95,155.0
1481,F1,154.5,0.5,95,155.0
1482,F3,154.5,0.5,95,155.0
1483,C3,154.5,0.5,95,155.0
1484,F2,154.5,0.5,95,155.0
1485,B3,155.0,0.5,95,155.0
1486,F1,155.0,0.5,95,155.0
1487,F3,155.0,0.5,95,155.0
1488,C3,155.0,0.5,95,155.0
1489,F2,155.0,0.5,95,155.0
1490,B3,155.5,0.5,95,155.0
1491,F1,155.5,0.5,95,155.0
1492,F3,155.5,0.5,95,155.0
1493,C3,155.5,0.5,95,155.0
1494,F2,155.5,0.5,95,155.0
1495,B3,156.0,0.5,95,155.0
1496,C1,156.0,0.5,95,155.0
1497,F3,156.0,0.5,95,155.0
1498,C3,156.0,0.5,95,155.0
1499,F2,156.0,0.5,95,155.0
1500,B3,156.5,0.5,95,155.0
1501,C1,156.5,0.5,95,155.0
1502,F3,156.5,0.5,95,155.0
1503,C3,156.5,0.5,95,155.0
1504,F2,156.5,0.5,95,155.0
1505,B3,157.0,0.5,95,155.0
1506,C1,157.0,0.5,95,155.0
1507,C3,157.0,0.5,95,155.0
1508,G2,157.0,0.5,95,155.0
1509,C2,157.0,0.5,95,155.0
1510,C1,157.5,0.5,95,155.0
1511,C3,157.5,0.5,95,155.0
1512,G2,157.5,0.5,95,155.0
1513,C2,157.5,0.5,95,155.0
1514,C3,157.5,0.5,95,155.0
1515,G2,157.5,0.5,95,155.0
1516,C2,157.5,0.5,95,155.0
1517,C1,158.0,0.5,95,155.0
1518,C3,158.0,0.5,95,155.0
1519,G2,158.0,0.5,95,155.0
1520,C2,158.0,0.5,95,155.0
1521,C3,158.0,0.5,95,155.0
1522,G2,158.0,0.5,95,155.0
1523,C2,158.0,0.5,95,155.0
1524,F#3,158.5,0.5,95,155.0
1525,C1,158.5,0.5,95,155.0
1526,C3,158.5,0.5,95,155.0
1527,G2,158.5,0.5,95,155.0
1528,C2,158.5,0.5,95,155.0
1529,F#3,159.0,0.5,95,155.0
1530,C1,159.0,0.5,95,155.0
1531,C3,159.0,0.5,95,155.0
1532,G2,159.0,0.5,95,155.0
1533,C2,159.0,0.5,95,155.0
1534,F#3,159.5,0.5,95,155.0
1535,C1,159.5,0.5,95,155.0
1536,C3,159.5,0.5,95,155.0
1537,G2,159.5,0.5,95,155.0
1538,C2,159.5,0.5,95,155.0
1539,F#3,160.0,0.5,95,155.0
1540,G1,160.0,0.5,95,155.0
1541,C3,160.0,0.5,95,155.0
1542,G2,160.0,0.5,95,155.0
1543,C2,160.0,0.5,95,155.0
1544,F#3,160.5,0.5,95,155.0
1545,G1,160.5,1.0,95,155.0
1546,C3,160.5,0.5,95,155.0
1547,G2,160.5,0.5,95,155.0
1548,C2,160.5,0.5,95,155.0
1549,F#3,161.0,0.5,95,155.0
1550,G3,161.0,0.5,95,155.0
1551,D3,161.0,0.5,95,155.0
1552,G2,161.0,0.5,95,155.0
1553,B2,161.5,21/500,95,155.0
1554,C2,161.5,0.5,95,155.0
1555,G3,161.5,0.5,95,155.0
1556,G2,161.5,0.5,95,155.0
1557,G3,161.5,1.0,95,155.0
1558,D3,161.5,1.0,95,155.0
1559,G2,161.5,1.0,95,155.0
1560,B2,162.0,21/500,95,155.0
1561,C2,162.0,1.0,95,155.0
1562,G3,162.0,1.0,95,155.0
1563,G2,162.0,1.0,95,155.0
1564,C4,162.5,0.5,95,155.0
1565,G3,162.5,0.5,95,155.0
1566,C3,162.5,0.5,95,155.0
1567,B2,163.0,21/500,95,155.0
1568,G1,163.0,0.5,95,155.0
1569,C4,163.0,0.5,95,155.0
1570,C3,163.0,0.5,95,155.0
1571,C4,163.0,1.0,95,155.0
1572,G3,163.0,1.0,95,155.0
1573,C3,163.0,1.0,95,155.0
1574,B2,163.5,21/500,95,155.0
1575,G1,163.5,0.5,95,155.0
1576,C4,163.5,1.0,95,155.0
1577,C3,163.5,1.0,95,155.0
1578,G1,164.0,0.5,95,155.0
1579,G3,164.0,0.5,95,155.0
1580,D3,164.0,0.5,95,155.0
1581,G2,164.0,0.5,95,155.0
1582,B2,164.5,21/500,95,155.0
1583,C2,164.5,0.5,95,155.0
1584,G3,164.5,0.5,95,155.0
1585,G2,164.5,0.5,95,155.0
1586,G3,164.5,0.5,95,155.0
1587,D3,164.5,0.5,95,155.0
1588,G2,164.5,0.5,95,155.0
1589,B2,165.0,21/500,95,155.0
1590,C2,165.0,1.0,95,155.0
1591,G3,165.0,0.5,95,155.0
1592,G2,165.0,0.5,95,155.0
1593,G3,165.5,0.5,95,155.0
1594,D3,165.5,0.5,95,155.0
1595,G2,165.5,0.5,95,155.0
1596,G1,166.0,1.0,95,155.0
1597,G3,166.0,0.5,95,155.0
1598,G2,166.0,0.5,95,155.0
1599,C4,166.0,0.5,95,155.0
1600,G3,166.0,0.5,95,155.0
1601,C3,166.0,0.5,95,155.0
1602,B2,166.5,21/500,95,155.0
1603,C4,166.5,0.5,95,155.0
1604,C3,166.5,0.5,95,155.0
1605,C4,166.5,1.0,95,155.0
1606,G3,166.5,1.0,95,155.0
1607,C3,166.5,1.0,95,155.0
1608,B2,167.0,21/500,95,155.0
1609,C2,167.0,1.0,95,155.0
1610,C4,167.0,1.0,95,155.0
1611,C3,167.0,1.0,95,155.0
1612,G3,167.5,1.0,95,155.0
1613,D3,167.5,1.0,95,155.0
1614,G2,167.5,1.0,95,155.0
1615,B2,168.0,21/500,95,155.0
1616,F1,168.0,0.5,95,155.0
1617,G3,168.0,1.0,95,155.0
1618,G2,168.0,1.0,95,155.0
1619,F1,168.5,0.5,95,155.0
1620,C4,168.5,1.0,95,155.0
1621,G3,168.5,1.0,95,155.0
1622,C3,168.5,1.0,95,155.0
1623,B2,169.0,21/500,95,155.0
1624,F1,169.0,0.5,95,155.0
1625,C4,169.0,1.0,95,155.0
1626,C3,169.0,1.0,95,155.0
1627,F1,169.5,0.5,95,155.0
1628,F3,169.5,0.5,95,155.0
1629,C3,169.5,0.5,95,155.0
1630,F2,169.5,0.5,95,155.0
1631,F1,170.0,0.5,95,155.0
1632,F3,170.0,0.5,95,155.0
1633,C3,170.0,0.5,95,155.0
1634,F2,170.0,0.5,95,155.0
1635,F3,170.0,0.5,95,155.0
1636,C3,170.0,0.5,95,155.0
1637,F2,170.0,0.5,95,155.0
1638,F1,170.5,0.5,95,155.0
1639,F3,170.5,0.5,95,155.0
1640,C3,170.5,0.5,95,155.0
1641,F2,170.5,0.5,95,155.0
1642,F3,170.5,0.5,95,155.0
1643,C3,170.5,0.5,95,155.0
1644,F2,170.5,0.5,95,155.0
1645,B3,171.0,0.5,95,155.0
1646,F1,171.0,0.5,95,155.0
1647,F3,171.0,0.5,95,155.0
1648,C3,171.0,0.5,95,155.0
1649,F2,171.0,0.5,95,155.0
1650,B3,171.5,0.5,95,155.0
1651,F1,171.5,0.5,95,155.0
1652,F3,171.5,0.5,95,155.0
1653,C3,171.5,0.5,95,155.0
1654,F2,171.5,0.5,95,155.0
1655,B3,172.0,0.5,95,155.0
1656,C1,172.0,0.5,95,155.0
1657,F3,172.0,0.5,95,155.0
1658,C3,172.0,0.5,95,155.0
1659,F2,172.0,0.5,95,155.0
1660,B3,172.5,0.5,95,155.0
1661,C1,172.5,0.5,95,155.0
1662,F3,172.5,0.5,95,155.0
1663,C3,172.5,0.5,95,155.0
1664,F2,172.5,0.5,95,155.0
1665,B3,173.0,0.5,95,155.0
1666,C1,173.0,0.5,95,155.0
1667,F3,173.0,0.5,95,155.0
1668,C3,173.0,0.5,95,155.0
1669,F2,173.0,0.5,95,155.0
1670,B3,173.5,0.5,95,155.0
1671,C1,173.5,0.5,95,155.0
1672,C3,173.5,0.5,95,155.0
1673,G2,173.5,0.5,95,155.0
1674,C2,173.5,0.5,95,155.0
1675,C1,174.0,0.5,95,155.0
1676,C3,174.0,0.5,95,155.0
1677,G2,174.0,0.5,95,155.0
1678,C2,174.0,0.5,95,155.0
1679,C3,174.0,0.5,95,155.0
1680,G2,174.0,0.5,95,155.0
1681,C2,174.0,0.5,95,155.0
1682,C1,174.5,0.5,95,155.0
1683,C3,174.5,0.5,95,155.0
1684,G2,174.5,0.5,95,155.0
1685,C2,174.5,0.5,95,155.0
1686,C3,174.5,0.5,95,155.0
1687,G2,174.5,0.5,95,155.0
1688,C2,174.5,0.5,95,155.0
1689,F#3,175.0,0.5,95,155.0
1690,C1,175.0,0.5,95,155.0
1691,C3,175.0,0.5,95,155.0
1692,G2,175.0,0.5,95,155.0
1693,C2,175.0,0.5,95,155.0
1694,F#3,175.5,0.5,95,155.0
1695,C1,175.5,0.5,95,155.0
1696,C3,175.5,0.5,95,155.0
1697,G2,175.5,0.5,95,155.0
1698,C2,175.5,0.5,95,155.0
1699,F#3,176.0,0.5,95,155.0
1700,C3,176.0,0.5,95,155.0
1701,G2,176.0,0.5,95,155.0
1702,C2,176.0,0.5,95,155.0
1703,F#3,176.5,0.5,95,155.0
1704,C3,176.5,0.5,95,155.0
1705,G2,176.5,0.5,95,155.0
1706,C2,176.5,0.5,95,155.0
1707,F#3,177.0,0.5,95,155.0
1708,C3,177.0,0.5,95,155.0
1709,G2,177.0,0.5,95,155.0
1710,C2,177.0,0.5,95,155.0
1711,F#3,177.5,0.5,95,155.0
1712,G2,177.5,0.5,95,155.0
1713,G2,178.0,0.5,95,155.0
1714,F#2,178.0,0.5,86,155.0
1715,F#2,178.5,0.5,86,155.0
1716,F#2,178.5,0.5,95,155.0
1717,F#2,179.0,0.5,95,155.0
1718,C#2,179.0,0.5,95,155.0
1719,C#2,179.5,0.5,95,155.0
1720,C#2,179.5,0.5,95,155.0
1721,C#2,180.0,0.5,95,155.0
1722,C2,180.0,0.5,86,155.0
1723,C2,180.5,0.5,86,155.0
1724,G2,180.5,0.5,95,155.0
1725,G2,181.0,0.5,95,155.0
1726,C3,181.0,0.5,86,155.0
1727,C3,181.5,0.5,86,155.0
1728,C3,181.5,0.5,95,155.0
1729,C3,182.0,0.5,95,155.0
1730,B1,182.0,0.5,95,155.0
1731,B1,182.5,0.5,95,155.0
1732,B1,182.5,0.5,95,155.0
1733,B1,183.0,0.5,95,155.0
1734,G2,183.0,0.5,95,155.0
1735,G2,183.5,0.5,95,155.0
1736,C#2,183.5,0.5,95,155.0
1737,C#2,184.0,0.5,95,155.0
1738,C2,184.0,0.5,95,155.0
1739,C2,184.5,0.5,95,155.0
1740,C2,184.5,0.5,95,155.0
1741,C2,185.0,0.5,95,155.0
1742,F2,185.0,0.5,86,155.0
1743,F2,185.5,0.5,86,155.0
1744,F2,185.5,0.5,95,155.0
1745,F2,186.0,0.5,95,155.0
1746,B1,186.0,0.5,95,155.0
1747,B1,186.5,0.5,95,155.0
1748,B1,186.5,0.5,95,155.0
1749,B1,187.0,0.5,95,155.0
1750,G2,187.0,0.5,95,155.0
1751,G2,187.5,0.5,95,155.0
1752,G2,187.5,0.5,95,155.0
1753,G2,188.0,0.5,95,155.0
1754,B1,188.0,0.5,95,155.0
1755,C2,188.0,0.5,95,155.0
1756,B1,188.5,0.5,95,155.0
1757,G2,188.5,0.5,95,155.0
1758,C2,188.5,0.5,95,155.0
1759,G2,189.0,0.5,95,155.0
1760,C3,189.0,0.5,86,155.0
1761,C2,189.0,0.5,95,155.0
1762,C3,189.5,0.5,86,155.0
1763,B2,189.5,21/500,95,155.0
1764,C2,189.5,0.5,95,155.0
1765,C4,189.5,0.5,95,155.0
1766,C3,189.5,0.5,95,155.0
1767,B2,190.0,21/500,95,155.0
1768,C2,190.0,0.25,95,155.0
1769,C4,190.0,0.5,95,155.0
1770,G3,190.0,0.5,95,155.0
1771,C3,190.0,0.5,95,155.0
1772,C4,190.0,0.5,95,155.0
1773,C3,190.0,0.5,95,155.0
1774,C2,190.25,0.25,95,155.0
1775,B2,190.5,21/500,95,155.0
1776,C2,190.5,0.25,95,155.0
1777,C4,190.5,0.5,95,155.0
1778,G3,190.5,0.5,95,155.0
1779,C3,190.5,0.5,95,155.0
1780,C4,190.5,0.5,95,155.0
1781,C3,190.5,0.5,95,155.0
1782,C2,190.75,0.25,95,155.0
1783,B2,191.0,21/500,95,155.0
1784,C2,191.0,0.25,95,155.0
1785,C4,191.0,0.5,95,155.0
1786,G3,191.0,0.5,95,155.0
1787,C3,191.0,0.5,95,155.0
1788,C4,191.0,0.5,95,155.0
1789,C3,191.0,0.5,95,155.0
1790,C2,191.25,0.25,95,155.0
1791,B2,191.5,21/500,95,155.0
1792,C2,191.5,0.25,95,155.0
1793,C4,191.5,0.5,95,155.0
1794,G3,191.5,0.5,95,155.0
1795,C3,191.5,0.5,95,155.0
1796,C4,191.5,0.5,95,155.0
1797,C3,191.5,0.5,95,155.0
1798,C2,191.75,0.25,95,155.0
1799,B2,192.0,21/500,95,155.0
1800,C1,192.0,0.5,95,155.0
1801,C4,192.0,0.25,95,155.0
1802,G3,192.0,0.25,95,155.0
1803,C3,192.0,0.25,95,155.0
1804,C4,192.0,0.5,95,155.0
1805,C3,192.0,0.5,95,155.0
1806,C4,192.25,0.25,95,155.0
1807,G3,192.25,0.25,95,155.0
1808,C3,192.25,0.25,95,155.0
1809,B2,192.5,21/500,95,155.0
1810,B0,192.5,0.5,95,155.0
1811,C4,192.5,0.25,95,155.0
1812,G3,192.5,0.25,95,155.0
1813,C3,192.5,0.25,95,155.0
1814,C4,192.5,0.5,95,155.0
1815,C3,192.5,0.5,95,155.0
1816,C4,192.75,0.25,95,155.0
1817,G3,192.75,0.25,95,155.0
1818,C3,192.75,0.25,95,155.0
1819,B2,193.0,21/500,95,155.0
1820,B0,193.0,0.5,95,155.0
1821,C4,193.0,0.25,95,155.0
1822,G3,193.0,0.25,95,155.0
1823,C3,193.0,0.25,95,155.0
1824,C4,193.0,0.5,95,155.0
1825,C3,193.0,0.5,95,155.0
1826,C4,193.25,0.25,95,155.0
1827,G3,193.25,0.25,95,155.0
1828,C3,193.25,0.25,95,155.0
1829,F1,193.5,0.5,95,155.0
1830,C4,193.5,0.25,95,155.0
1831,G3,193.5,0.25,95,155.0
1832,C3,193.5,0.25,95,155.0
1833,C3,193.5,0.5,95,155.0
1834,G2,193.5,0.5,95,155.0
1835,C2,193.5,0.5,95,155.0
1836,C4,193.75,0.25,95,155.0
1837,G3,193.75,0.25,95,155.0
1838,C3,193.75,0.25,95,155.0
1839,F1,194.0,0.5,95,155.0
1840,C3,194.0,0.5,95,155.0
1841,G2,194.0,0.5,95,155.0
1842,C2,194.0,0.5,95,155.0
1843,B2,194.0,0.5,95,155.0
1844,F#2,194.0,0.5,95,155.0
1845,B1,194.0,0.5,95,155.0
1846,B0,194.5,0.5,95,155.0
1847,B2,194.5,0.5,95,155.0
1848,F#2,194.5,0.5,95,155.0
1849,B1,194.5,0.5,95,155.0
1850,B2,194.5,0.5,95,155.0
1851,F#2,194.5,0.5,95,155.0
1852,B1,194.5,0.5,95,155.0
1853,B0,195.0,0.5,95,155.0
1854,B2,195.0,0.5,95,155.0
1855,F#2,195.0,0.5,95,155.0
1856,B1,195.0,0.5,95,155.0
1857,F3,195.0,0.5,95,155.0
1858,C3,195.0,0.5,95,155.0
1859,F2,195.0,0.5,95,155.0
1860,C1,195.5,0.5,95,155.0
1861,F3,195.5,0.5,95,155.0
1862,C3,195.5,0.5,95,155.0
1863,F2,195.5,0.5,95,155.0
1864,F3,195.5,0.5,95,155.0
1865,C3,195.5,0.5,95,155.0
1866,F2,195.5,0.5,95,155.0
1867,C1,196.0,0.5,95,155.0
1868,F3,196.0,0.5,95,155.0
1869,C3,196.0,0.5,95,155.0
1870,F2,196.0,0.5,95,155.0
1871,B2,196.0,0.5,95,155.0
1872,F#2,196.0,0.5,95,155.0
1873,B1,196.0,0.5,95,155.0
1874,B0,196.5,0.5,95,155.0
1875,B2,196.5,0.5,95,155.0
1876,F#2,196.5,0.5,95,155.0
1877,B1,196.5,0.5,95,155.0
1878,B2,196.5,0.5,95,155.0
1879,F#2,196.5,0.5,95,155.0
1880,B1,196.5,0.5,95,155.0
1881,B0,197.0,0.5,95,155.0
1882,B2,197.0,0.5,95,155.0
1883,F#2,197.0,0.5,95,155.0
1884,B1,197.0,0.5,95,155.0
1885,C3,197.0,0.5,95,155.0
1886,G2,197.0,0.5,95,155.0
1887,C2,197.0,0.5,95,155.0
1888,B2,197.5,21/500,95,155.0
1889,F1,197.5,0.5,95,155.0
1890,C4,197.5,0.5,95,155.0
1891,C3,197.5,0.5,95,155.0
1892,C3,197.5,0.5,95,155.0
1893,G2,197.5,0.5,95,155.0
1894,C2,197.5,0.5,95,155.0
1895,B2,198.0,21/500,95,155.0
1896,F1,198.0,0.5,95,155.0
1897,C4,198.0,0.5,95,155.0
1898,C3,198.0,0.5,95,155.0
1899,B2,198.0,0.5,95,155.0
1900,F#2,198.0,0.5,95,155.0
1901,B1,198.0,0.5,95,155.0
1902,B0,198.5,0.5,95,155.0
1903,B3,198.5,0.5,86,155.0
1904,B2,198.5,0.5,86,155.0
1905,B2,198.5,0.5,95,155.0
1906,F#2,198.5,0.5,95,155.0
1907,B1,198.5,0.5,95,155.0
1908,B0,199.0,0.5,95,155.0
1909,B3,199.0,0.5,95,155.0
1910,B2,199.0,0.5,95,155.0
1911,F3,199.0,0.5,95,155.0
1912,C3,199.0,0.5,95,155.0
1913,F2,199.0,0.5,95,155.0
1914,C1,199.5,0.5,95,155.0
1915,F3,199.5,0.5,95,155.0
1916,C3,199.5,0.5,95,155.0
1917,F2,199.5,0.5,95,155.0
1918,F3,199.5,0.5,95,155.0
1919,C3,199.5,0.5,95,155.0
1920,F2,199.5,0.5,95,155.0
1921,C1,200.0,0.5,95,155.0
1922,F3,200.0,0.5,95,155.0
1923,C3,200.0,0.5,95,155.0
1924,F2,200.0,0.5,95,155.0
1925,B2,200.0,0.5,95,155.0
1926,F#2,200.0,0.5,95,155.0
1927,B1,200.0,0.5,95,155.0
1928,B0,200.5,0.5,95,155.0
1929,B2,200.5,0.5,95,155.0
1930,F#2,200.5,0.5,95,155.0
1931,B1,200.5,0.5,95,155.0
1932,B2,200.5,0.5,95,155.0
1933,F#2,200.5,0.5,95,155.0
1934,B1,200.5,0.5,95,155.0
1935,B0,201.0,0.5,95,155.0
1936,B2,201.0,0.5,95,155.0
1937,F#2,201.0,0.5,95,155.0
1938,B1,201.0,0.5,95,155.0
1939,C3,201.0,0.5,95,155.0
1940,G2,201.0,0.5,95,155.0
1941,C2,201.0,0.5,95,155.0
1942,F1,201.5,0.5,95,155.0
1943,C3,201.5,0.5,95,155.0
1944,G2,201.5,0.5,95,155.0
1945,C2,201.5,0.5,95,155.0
1946,C3,201.5,0.5,95,155.0
1947,G2,201.5,0.5,95,155.0
1948,C2,201.5,0.5,95,155.0
1949,F1,202.0,0.5,95,155.0
1950,C3,202.0,0.5,95,155.0
1951,G2,202.0,0.5,95,155.0
1952,C2,202.0,0.5,95,155.0
1953,B2,202.0,0.5,95,155.0
1954,F#2,202.0,0.5,95,155.0
1955,B1,202.0,0.5,95,155.0
1956,B0,202.5,0.5,95,155.0
1957,B2,202.5,0.5,95,155.0
1958,F#2,202.5,0.5,95,155.0
1959,B1,202.5,0.5,95,155.0
1960,B2,202.5,0.5,95,155.0
1961,F#2,202.5,0.5,95,155.0
1962,B1,202.5,0.5,95,155.0
1963,B0,203.0,0.5,95,155.0
1964,B2,203.0,0.5,95,155.0
1965,F#2,203.0,0.5,95,155.0
1966,B1,203.0,0.5,95,155.0
1967,F3,203.0,0.5,95,155.0
1968,C3,203.0,0.5,95,155.0
1969,F2,203.0,0.5,95,155.0
1970,C1,203.5,0.5,95,155.0
1971,F3,203.5,0.5,95,155.0
1972,C3,203.5,0.5,95,155.0
1973,F2,203.5,0.5,95,155.0
1974,F3,203.5,0.5,95,155.0
1975,C3,203.5,0.5,95,155.0
1976,F2,203.5,0.5,95,155.0
1977,C1,204.0,0.5,95,155.0
1978,F3,204.0,0.5,95,155.0
1979,C3,204.0,0.5,95,155.0
1980,F2,204.0,0.5,95,155.0
1981,B2,204.0,0.5,95,155.0
1982,F#2,204.0,0.5,95,155.0
1983,B1,204.0,0.5,95,155.0
1984,B0,204.5,0.5,95,155.0
1985,B2,204.5,0.5,95,155.0
1986,F#2,204.5,0.5,95,155.0
1987,B1,204.5,0.5,95,155.0
1988,B2,204.5,0.5,95,155.0
1989,F#2,204.5,0.5,95,155.0
1990,B1,204.5,0.5,95,155.0
1991,B0,205.0,0.5,95,155.0
1992,B2,205.0,0.5,95,155.0
1993,F#2,205.0,0.5,95,155.0
1994,B1,205.0,0.5,95,155.0
1995,C3,205.0,0.5,95,155.0
1996,G2,205.0,0.5,95,155.0
1997,C2,205.0,0.5,95,155.0
1998,B2,205.5,21/500,95,155.0
1999,D1,205.5,0.5,95,155.0
2000,C4,205.5,0.5,95,155.0
2001,C3,205.5,0.5,95,155.0
2002,C3,205.5,0.5,95,155.0
2003,G2,205.5,0.5,95,155.0
2004,C2,205.5,0.5,95,155.0
2005,B2,206.0,21/500,95,155.0
2006,D1,206.0,0.5,95,155.0
2007,C4,206.0,0.5,95,155.0
2008,C3,206.0,0.5,95,155.0
2009,B2,206.0,0.5,95,155.0
2010,F#2,206.0,0.5,95,155.0
2011,B1,206.0,0.5,95,155.0
2012,D1,206.5,0.5,95,155.0
2013,B3,206.5,0.5,86,155.0
2014,B2,206.5,0.5,86,155.0
2015,B2,206.5,0.5,95,155.0
2016,F#2,206.5,0.5,95,155.0
2017,B1,206.5,0.5,95,155.0
2018,D1,207.0,0.5,95,155.0
2019,B3,207.0,0.5,95,155.0
2020,B2,207.0,0.5,95,155.0
2021,D3,207.0,0.5,95,155.0
2022,A2,207.0,0.5,95,155.0
2023,D2,207.0,0.5,95,155.0
2024,C1,207.5,0.5,95,155.0
2025,D3,207.5,0.5,95,155.0
2026,A2,207.5,0.5,95,155.0
2027,D2,207.5,0.5,95,155.0
2028,D3,207.5,0.5,95,155.0
2029,A2,207.5,0.5,95,155.0
2030,D2,207.5,0.5,95,155.0
2031,C1,208.0,0.5,95,155.0
2032,D3,208.0,0.5,95,155.0
2033,A2,208.0,0.5,95,155.0
2034,D2,208.0,0.5,95,155.0
2035,D3,208.0,0.5,95,155.0
2036,A2,208.0,0.5,95,155.0
2037,D2,208.0,0.5,95,155.0
2038,B0,208.5,0.5,95,155.0
2039,D3,208.5,0.5,95,155.0
2040,A2,208.5,0.5,95,155.0
2041,D2,208.5,0.5,95,155.0
2042,D3,208.5,0.5,95,155.0
2043,A2,208.5,0.5,95,155.0
2044,D2,208.5,0.5,95,155.0
2045,B0,209.0,0.5,95,155.0
2046,D3,209.0,0.5,95,155.0
2047,A2,209.0,0.5,95,155.0
2048,D2,209.0,0.5,95,155.0
2049,C3,209.0,0.5,95,155.0
2050,G2,209.0,0.5,95,155.0
2051,C2,209.0,0.5,95,155.0
2052,F1,209.5,0.5,95,155.0
2053,C3,209.5,0.5,95,155.0
2054,G2,209.5,0.5,95,155.0
2055,C2,209.5,0.5,95,155.0
2056,C3,209.5,0.5,95,155.0
2057,G2,209.5,0.5,95,155.0
2058,C2,209.5,0.5,95,155.0
2059,F1,210.0,0.5,95,155.0
2060,C3,210.0,0.5,95,155.0
2061,G2,210.0,0.5,95,155.0
2062,C2,210.0,0.5,95,155.0
2063,B2,210.0,0.5,95,155.0
2064,F#2,210.0,0.5,95,155.0
2065,B1,210.0,0.5,95,155.0
2066,B0,210.5,0.5,95,155.0
2067,B2,210.5,0.5,95,155.0
2068,F#2,210.5,0.5,95,155.0
2069,B1,210.5,0.5,95,155.0
2070,B2,210.5,0.5,95,155.0
2071,F#2,210.5,0.5,95,155.0
2072,B1,210.5,0.5,95,155.0
2073,B0,211.0,0.5,95,155.0
2074,B2,211.0,0.5,95,155.0
2075,F#2,211.0,0.5,95,155.0
2076,B1,211.0,0.5,95,155.0
2077,F3,211.0,0.5,95,155.0
2078,C3,211.0,0.5,95,155.0
2079,F2,211.0,0.5,95,155.0
2080,C1,211.5,0.5,95,155.0
2081,F3,211.5,0.5,95,155.0
2082,C3,211.5,0.5,95,155.0
2083,F2,211.5,0.5,95,155.0
2084,F3,211.5,0.5,95,155.0
2085,C3,211.5,0.5,95,155.0
2086,F2,211.5,0.5,95,155.0
2087,C1,212.0,0.5,95,155.0
2088,F3,212.0,0.5,95,155.0
2089,C3,212.0,0.5,95,155.0
2090,F2,212.0,0.5,95,155.0
2091,B2,212.0,0.5,95,155.0
2092,F#2,212.0,0.5,95,155.0
2093,B1,212.0,0.5,95,155.0
2094,B0,212.5,0.5,95,155.0
2095,B2,212.5,0.5,95,155.0
2096,F#2,212.5,0.5,95,155.0
2097,B1,212.5,0.5,95,155.0
2098,B2,212.5,0.5,95,155.0
2099,F#2,212.5,0.5,95,155.0
2100,B1,212.5,0.5,95,155.0
2101,B0,213.0,0.5,95,155.0
2102,B2,213.0,0.5,95,155.0
2103,F#2,213.0,0.5,95,155.0
2104,B1,213.0,0.5,95,155.0
2105,C3,213.0,0.5,95,155.0
2106,G2,213.0,0.5,95,155.0
2107,C2,213.0,0.5,95,155.0
2108,B2,213.5,21/500,95,155.0
2109,F1,213.5,0.5,95,155.0
2110,C4,213.5,0.5,95,155.0
2111,C3,213.5,0.5,95,155.0
2112,C3,213.5,0.5,95,155.0
2113,G2,213.5,0.5,95,155.0
2114,C2,213.5,0.5,95,155.0
2115,B2,214.0,21/500,95,155.0
2116,F1,214.0,0.5,95,155.0
2117,C4,214.0,0.5,95,155.0
2118,C3,214.0,0.5,95,155.0
2119,B2,214.0,0.5,95,155.0
2120,F#2,214.0,0.5,95,155.0
2121,B1,214.0,0.5,95,155.0
2122,B0,214.5,0.5,95,155.0
2123,B3,214.5,0.5,86,155.0
2124,B2,214.5,0.5,86,155.0
2125,B2,214.5,0.5,95,155.0
2126,F#2,214.5,0.5,95,155.0
2127,B1,214.5,0.5,95,155.0
2128,B0,215.0,0.5,95,155.0
2129,B3,215.0,0.5,95,155.0
2130,B2,215.0,0.5,95,155.0
2131,F3,215.0,0.5,95,155.0
2132,C3,215.0,0.5,95,155.0
2133,F2,215.0,0.5,95,155.0
2134,C1,215.5,0.5,95,155.0
2135,F3,215.5,0.5,95,155.0
2136,C3,215.5,0.5,95,155.0
2137,F2,215.5,0.5,95,155.0
2138,F3,215.5,0.5,95,155.0
2139,C3,215.5,0.5,95,155.0
2140,F2,215.5,0.5,95,155.0
2141,C1,216.0,0.5,95,155.0
2142,F3,216.0,0.5,95,155.0
2143,C3,216.0,0.5,95,155.0
2144,F2,216.0,0.5,95,155.0
2145,B2,216.0,0.5,95,155.0
2146,F#2,216.0,0.5,95,155.0
2147,B1,216.0,0.5,95,155.0
2148,B0,216.5,0.5,95,155.0
2149,B2,216.5,0.5,95,155.0
2150,F#2,216.5,0.5,95,155.0
2151,B1,216.5,0.5,95,155.0
2152,B2,216.5,0.5,95,155.0
2153,F#2,216.5,0.5,95,155.0
2154,B1,216.5,0.5,95,155.0
2155,B0,217.0,0.5,95,155.0
2156,B2,217.0,0.5,95,155.0
2157,F#2,217.0,0.5,95,155.0
2158,B1,217.0,0.5,95,155.0
2159,C3,217.0,0.5,95,155.0
2160,G2,217.0,0.5,95,155.0
2161,C2,217.0,0.5,95,155.0
2162,F1,217.5,0.5,95,155.0
2163,C3,217.5,0.5,95,155.0
2164,G2,217.5,0.5,95,155.0
2165,C2,217.5,0.5,95,155.0
2166,C3,217.5,0.5,95,155.0
2167,G2,217.5,0.5,95,155.0
2168,C2,217.5,0.5,95,155.0
2169,F1,218.0,0.5,95,155.0
2170,C3,218.0,0.5,95,155.0
2171,G2,218.0,0.5,95,155.0
2172,C2,218.0,0.5,95,155.0
2173,B2,218.0,0.5,95,155.0
2174,F#2,218.0,0.5,95,155.0
2175,B1,218.0,0.5,95,155.0
2176,B0,218.5,0.5,95,155.0
2177,B2,218.5,0.5,95,155.0
2178,F#2,218.5,0.5,95,155.0
2179,B1,218.5,0.5,95,155.0
2180,B2,218.5,0.5,95,155.0
2181,F#2,218.5,0.5,95,155.0
2182,B1,218.5,0.5,95,155.0
2183,B0,219.0,0.5,95,155.0
2184,B2,219.0,0.5,95,155.0
2185,F#2,219.0,0.5,95,155.0
2186,B1,219.0,0.5,95,155.0
2187,F3,219.0,0.5,95,155.0
2188,C3,219.0,0.5,95,155.0
2189,F2,219.0,0.5,95,155.0
2190,C1,219.5,0.5,95,155.0
2191,F3,219.5,0.5,95,155.0
2192,C3,219.5,0.5,95,155.0
2193,F2,219.5,0.5,95,155.0
2194,F3,219.5,0.5,95,155.0
2195,C3,219.5,0.5,95,155.0
2196,F2,219.5,0.5,95,155.0
2197,C1,220.0,0.5,95,155.0
2198,F3,220.0,0.5,95,155.0
2199,C3,220.0,0.5,95,155.0
2200,F2,220.0,0.5,95,155.0
2201,B2,220.0,0.5,95,155.0
2202,F#2,220.0,0.5,95,155.0
2203,B1,220.0,0.5,95,155.0
2204,B0,220.5,0.5,95,155.0
2205,B2,220.5,0.5,95,155.0
2206,F#2,220.5,0.5,95,155.0
2207,B1,220.5,0.5,95,155.0
2208,B2,220.5,0.5,95,155.0
2209,F#2,220.5,0.5,95,155.0
2210,B1,220.5,0.5,95,155.0
2211,B0,221.0,0.5,95,155.0
2212,B2,221.0,0.5,95,155.0
2213,F#2,221.0,0.5,95,155.0
2214,B1,221.0,0.5,95,155.0
2215,C3,221.0,0.5,95,155.0
2216,G2,221.0,0.5,95,155.0
2217,C2,221.0,0.5,95,155.0
2218,B2,221.5,21/500,95,155.0
2219,D1,221.5,0.5,95,155.0
2220,C4,221.5,0.5,95,155.0
2221,C3,221.5,0.5,95,155.0
2222,C3,221.5,0.5,95,155.0
2223,G2,221.5,0.5,95,155.0
2224,C2,221.5,0.5,95,155.0
2225,B2,222.0,21/500,95,155.0
2226,D1,222.0,0.5,95,155.0
2227,C4,222.0,0.5,95,155.0
2228,C3,222.0,0.5,95,155.0
2229,B2,222.0,0.5,95,155.0
2230,F#2,222.0,0.5,95,155.0
2231,B1,222.0,0.5,95,155.0
2232,D1,222.5,0.5,95,155.0
2233,B3,222.5,0.5,86,155.0
2234,B2,222.5,0.5,86,155.0
2235,B2,222.5,0.5,95,155.0
2236,F#2,222.5,0.5,95,155.0
2237,B1,222.5,0.5,95,155.0
2238,D1,223.0,0.5,95,155.0
2239,B3,223.0,0.5,95,155.0
2240,B2,223.0,0.5,95,155.0
2241,D3,223.0,0.5,95,155.0
2242,A2,223.0,0.5,95,155.0
2243,D2,223.0,0.5,95,155.0
2244,C1,223.5,0.5,95,155.0
2245,D3,223.5,0.5,95,155.0
2246,A2,223.5,0.5,95,155.0
2247,D2,223.5,0.5,95,155.0
2248,D3,223.5,0.5,95,155.0
2249,A2,223.5,0.5,95,155.0
2250,D2,223.5,0.5,95,155.0
2251,G1,224.0,0.5,95,155.0
2252,D3,224.0,0.5,95,155.0
2253,A2,224.0,0.5,95,155.0
2254,D2,224.0,0.5,95,155.0
2255,D3,224.0,0.5,95,155.0
2256,A2,224.0,0.5,95,155.0
2257,D2,224.0,0.5,95,155.0
2258,G1,224.5,1.0,95,155.0
2259,D3,224.5,0.5,95,155.0
2260,A2,224.5,0.5,95,155.0
2261,D2,224.5,0.5,95,155.0
2262,D3,224.5,0.5,95,155.0
2263,A2,224.5,0.5,95,155.0
2264,D2,224.5,0.5,95,155.0
2265,D3,225.0,0.5,95,155.0
2266,A2,225.0,0.5,95,155.0
2267,D2,225.0,0.5,95,155.0
2268,C3,225.0,0.5,95,155.0
2269,G2,225.0,0.5,95,155.0
2270,C2,225.0,0.5,95,155.0
2271,B2,225.5,21/500,95,155.0
2272,C2,225.5,0.5,95,155.0
2273,C3,225.5,0.5,95,155.0
2274,G2,225.5,0.5,95,155.0
2275,C2,225.5,0.5,95,155.0
2276,G3,225.5,0.5,95,155.0
2277,G2,225.5,0.5,95,155.0
2278,B2,226.0,21/500,95,155.0
2279,B2,226.0,21/500,95,155.0
2280,C2,226.0,1.0,95,155.0
2281,G3,226.0,0.5,95,155.0
2282,G2,226.0,0.5,95,155.0
2283,G3,226.0,1.0,95,155.0
2284,G2,226.0,1.0,95,155.0
2285,B2,226.5,21/500,95,155.0
2286,G3,226.5,1.0,95,155.0
2287,G2,226.5,1.0,95,155.0
2288,B2,227.0,21/500,95,155.0
2289,G1,227.0,0.5,95,155.0
2290,C4,227.0,0.5,95,155.0
2291,C3,227.0,0.5,95,155.0
2292,B2,227.5,21/500,95,155.0
2293,B2,227.5,21/500,95,155.0
2294,G1,227.5,0.5,95,155.0
2295,C4,227.5,0.5,95,155.0
2296,C3,227.5,0.5,95,155.0
2297,C4,227.5,1.0,95,155.0
2298,C3,227.5,1.0,95,155.0
2299,B2,228.0,21/500,95,155.0
2300,G1,228.0,0.5,95,155.0
2301,C4,228.0,1.0,95,155.0
2302,C3,228.0,1.0,95,155.0
2303,B2,228.5,21/500,95,155.0
2304,C2,228.5,0.5,95,155.0
2305,G3,228.5,0.5,95,155.0
2306,G2,228.5,0.5,95,155.0
2307,B2,229.0,21/500,95,155.0
2308,B2,229.0,21/500,95,155.0
2309,C2,229.0,1.0,95,155.0
2310,G3,229.0,0.5,95,155.0
2311,G2,229.0,0.5,95,155.0
2312,G3,229.0,0.5,95,155.0
2313,G2,229.0,0.5,95,155.0
2314,B2,229.5,21/500,95,155.0
2315,G3,229.5,0.5,95,155.0
2316,G2,229.5,0.5,95,155.0
2317,G1,230.0,1.0,95,155.0
2318,G3,230.0,0.5,95,155.0
2319,G2,230.0,0.5,95,155.0
2320,B2,230.5,21/500,95,155.0
2321,G3,230.5,0.5,95,155.0
2322,G2,230.5,0.5,95,155.0
2323,C4,230.5,0.5,95,155.0
2324,C3,230.5,0.5,95,155.0
2325,B2,231.0,21/500,95,155.0
2326,B2,231.0,21/500,95,155.0
2327,C2,231.0,1.0,95,155.0
2328,C4,231.0,0.5,95,155.0
2329,C3,231.0,0.5,95,155.0
2330,C4,231.0,1.0,95,155.0
2331,C3,231.0,1.0,95,155.0
2332,B2,231.5,21/500,95,155.0
2333,C4,231.5,1.0,95,155.0
2334,C3,231.5,1.0,95,155.0
2335,B2,232.0,21/500,95,155.0
2336,F1,232.0,0.5,95,155.0
2337,G3,232.0,1.0,95,155.0
2338,G2,232.0,1.0,95,155.0
2339,B2,232.5,21/500,95,155.0
2340,F1,232.5,0.5,95,155.0
2341,G3,232.5,1.0,95,155.0
2342,G2,232.5,1.0,95,155.0
2343,B2,233.0,21/500,95,155.0
2344,F1,233.0,0.5,95,155.0
2345,C4,233.0,1.0,95,155.0
2346,C3,233.0,1.0,95,155.0
2347,B2,233.5,21/500,95,155.0
2348,F1,233.5,0.5,95,155.0
2349,C4,233.5,1.0,95,155.0
2350,C3,233.5,1.0,95,155.0
2351,F1,234.0,0.5,95,155.0
2352,F3,234.0,0.5,95,155.0
2353,C3,234.0,0.5,95,155.0
2354,F2,234.0,0.5,95,155.0
2355,F1,234.5,0.5,95,155.0
2356,F3,234.5,0.5,95,155.0
2357,C3,234.5,0.5,95,155.0
2358,F2,234.5,0.5,95,155.0
2359,F3,234.5,0.5,95,155.0
2360,C3,234.5,0.5,95,155.0
2361,F2,234.5,0.5,95,155.0
2362,F1,235.0,0.5,95,155.0
2363,F3,235.0,0.5,95,155.0
2364,C3,235.0,0.5,95,155.0
2365,F2,235.0,0.5,95,155.0
2366,F3,235.0,0.5,95,155.0
2367,C3,235.0,0.5,95,155.0
2368,F2,235.0,0.5,95,155.0
2369,B3,235.5,0.5,95,155.0
2370,F1,235.5,0.5,95,155.0
2371,F3,235.5,0.5,95,155.0
2372,C3,235.5,0.5,95,155.0
2373,F2,235.5,0.5,95,155.0
2374,B3,236.0,0.5,95,155.0
2375,C1,236.0,0.5,95,155.0
2376,F3,236.0,0.5,95,155.0
2377,C3,236.0,0.5,95,155.0
2378,F2,236.0,0.5,95,155.0
2379,B3,236.5,0.5,95,155.0
2380,C1,236.5,0.5,95,155.0
2381,F3,236.5,0.5,95,155.0
2382,C3,236.5,0.5,95,155.0
2383,F2,236.5,0.5,95,155.0
2384,B3,237.0,0.5,95,155.0
2385,C1,237.0,0.5,95,155.0
2386,F3,237.0,0.5,95,155.0
2387,C3,237.0,0.5,95,155.0
2388,F2,237.0,0.5,95,155.0
2389,B3,237.5,0.5,95,155.0
2390,C1,237.5,0.5,95,155.0
2391,F3,237.5,0.5,95,155.0
2392,C3,237.5,0.5,95,155.0
2393,F2,237.5,0.5,95,155.0
2394,B3,238.0,0.5,95,155.0
2395,C1,238.0,0.5,95,155.0
2396,C3,238.0,0.5,95,155.0
2397,G2,238.0,0.5,95,155.0
2398,C2,238.0,0.5,95,155.0
2399,C1,238.5,0.5,95,155.0
2400,C3,238.5,0.5,95,155.0
2401,G2,238.5,0.5,95,155.0
2402,C2,238.5,0.5,95,155.0
2403,C3,238.5,0.5,95,155.0
2404,G2,238.5,0.5,95,155.0
2405,C2,238.5,0.5,95,155.0
2406,C1,239.0,0.5,95,155.0
2407,C3,239.0,0.5,95,155.0
2408,G2,239.0,0.5,95,155.0
2409,C2,239.0,0.5,95,155.0
2410,C3,239.0,0.5,95,155.0
2411,G2,239.0,0.5,95,155.0
2412,C2,239.0,0.5,95,155.0
2413,F#3,239.5,0.5,95,155.0
2414,C1,239.5,0.5,95,155.0
2415,C3,239.5,0.5,95,155.0
2416,G2,239.5,0.5,95,155.0
2417,C2,239.5,0.5,95,155.0
2418,F#3,240.0,0.5,95,155.0
2419,G1,240.0,0.5,95,155.0
2420,C3,240.0,0.5,95,155.0
2421,G2,240.0,0.5,95,155.0
2422,C2,240.0,0.5,95,155.0
2423,F#3,240.5,0.5,95,155.0
2424,G1,240.5,1.0,95,155.0
2425,C3,240.5,0.5,95,155.0
2426,G2,240.5,0.5,95,155.0
2427,C2,240.5,0.5,95,155.0
2428,F#3,241.0,0.5,95,155.0
2429,C3,241.0,0.5,95,155.0
2430,G2,241.0,0.5,95,155.0
2431,C2,241.0,0.5,95,155.0
2432,F#3,241.5,0.5,95,155.0
2433,C2,241.5,0.5,95,155.0
2434,C3,241.5,0.5,95,155.0
2435,G2,241.5,0.5,95,155.0
2436,C2,241.5,0.5,95,155.0
2437,F#3,242.0,0.5,95,155.0
2438,C2,242.0,1.0,95,155.0
2439,G3,242.0,0.5,95,155.0
2440,D3,242.0,0.5,95,155.0
2441,G2,242.0,0.5,95,155.0
2442,B2,242.5,21/500,95,155.0
2443,G3,242.5,0.5,95,155.0
2444,G2,242.5,0.5,95,155.0
2445,G3,242.5,1.0,95,155.0
2446,D3,242.5,1.0,95,155.0
2447,G2,242.5,1.0,95,155.0
2448,B2,243.0,21/500,95,155.0
2449,G1,243.0,0.5,95,155.0
2450,G3,243.0,1.0,95,155.0
2451,G2,243.0,1.0,95,155.0
2452,G1,243.5,0.5,95,155.0
2453,C4,243.5,0.5,95,155.0
2454,G3,243.5,0.5,95,155.0
2455,C3,243.5,0.5,95,155.0
2456,B2,244.0,21/500,95,155.0
2457,G1,244.0,0.5,95,155.0
2458,C4,244.0,0.5,95,155.0
2459,C3,244.0,0.5,95,155.0
2460,C4,244.0,1.0,95,155.0
2461,G3,244.0,1.0,95,155.0
2462,C3,244.0,1.0,95,155.0
2463,B2,244.5,21/500,95,155.0
2464,C2,244.5,0.5,95,155.0
2465,C4,244.5,1.0,95,155.0
2466,C3,244.5,1.0,95,155.0
2467,C2,245.0,1.0,95,155.0
2468,G3,245.0,0.5,95,155.0
2469,D3,245.0,0.5,95,155.0
2470,G2,245.0,0.5,95,155.0
2471,B2,245.5,21/500,95,155.0
2472,G3,245.5,0.5,95,155.0
2473,G2,245.5,0.5,95,155.0
2474,G3,245.5,0.5,95,155.0
2475,D3,245.5,0.5,95,155.0
2476,G2,245.5,0.5,95,155.0
2477,B2,246.0,21/500,95,155.0
2478,G1,246.0,1.0,95,155.0
2479,G3,246.0,0.5,95,155.0
2480,G2,246.0,0.5,95,155.0
2481,G3,246.5,0.5,95,155.0
2482,D3,246.5,0.5,95,155.0
2483,G2,246.5,0.5,95,155.0
2484,C2,247.0,1.0,95,155.0
2485,G3,247.0,0.5,95,155.0
2486,G2,247.0,0.5,95,155.0
2487,C4,247.0,0.5,95,155.0
2488,G3,247.0,0.5,95,155.0
2489,C3,247.0,0.5,95,155.0
2490,B2,247.5,21/500,95,155.0
2491,C4,247.5,0.5,95,155.0
2492,C3,247.5,0.5,95,155.0
2493,C4,247.5,1.0,95,155.0
2494,G3,247.5,1.0,95,155.0
2495,C3,247.5,1.0,95,155.0
2496,B2,248.0,21/500,95,155.0
2497,F1,248.0,0.5,95,155.0
2498,C4,248.0,1.0,95,155.0
2499,C3,248.0,1.0,95,155.0
2500,F1,248.5,0.5,95,155.0
2501,G3,248.5,1.0,95,155.0
2502,D3,248.5,1.0,95,155.0
2503,G2,248.5,1.0,95,155.0
2504,B2,249.0,21/500,95,155.0
2505,F1,249.0,0.5,95,155.0
2506,G3,249.0,1.0,95,155.0
2507,G2,249.0,1.0,95,155.0
2508,F1,249.5,0.5,95,155.0
2509,C4,249.5,1.0,95,155.0
2510,G3,249.5,1.0,95,155.0
2511,C3,249.5,1.0,95,155.0
2512,B2,250.0,21/500,95,155.0
2513,F1,250.0,0.5,95,155.0
2514,C4,250.0,1.0,95,155.0
2515,C3,250.0,1.0,95,155.0
2516,F1,250.5,0.5,95,155.0
2517,F3,250.5,0.5,95,155.0
2518,C3,250.5,0.5,95,155.0
2519,F2,250.5,0.5,95,155.0
2520,F1,251.0,0.5,95,155.0
2521,F3,251.0,0.5,95,155.0
2522,C3,251.0,0.5,95,155.0
2523,F2,251.0,0.5,95,155.0
2524,F3,251.0,0.5,95,155.0
2525,C3,251.0,0.5,95,155.0
2526,F2,251.0,0.5,95,155.0
2527,F1,251.5,0.5,95,155.0
2528,F3,251.5,0.5,95,155.0
2529,C3,251.5,0.5,95,155.0
2530,F2,251.5,0.5,95,155.0
2531,F3,251.5,0.5,95,155.0
2532,C3,251.5,0.5,95,155.0
2533,F2,251.5,0.5,95,155.0
2534,B3,252.0,0.5,95,155.0
2535,C1,252.0,0.5,95,155.0
2536,F3,252.0,0.5,95,155.0
2537,C3,252.0,0.5,95,155.0
2538,F2,252.0,0.5,95,155.0
2539,B3,252.5,0.5,95,155.0
2540,C1,252.5,0.5,95,155.0
2541,F3,252.5,0.5,95,155.0
2542,C3,252.5,0.5,95,155.0
2543,F2,252.5,0.5,95,155.0
2544,B3,253.0,0.5,95,155.0
2545,C1,253.0,0.5,95,155.0
2546,F3,253.0,0.5,95,155.0
2547,C3,253.0,0.5,95,155.0
2548,F2,253.0,0.5,95,155.0
2549,B3,253.5,0.5,95,155.0
2550,C1,253.5,0.5,95,155.0
2551,F3,253.5,0.5,95,155.0
2552,C3,253.5,0.5,95,155.0
2553,F2,253.5,0.5,95,155.0
2554,B3,254.0,0.5,95,155.0
2555,C1,254.0,0.5,95,155.0
2556,F3,254.0,0.5,95,155.0
2557,C3,254.0,0.5,95,155.0
2558,F2,254.0,0.5,95,155.0
2559,B3,254.5,0.5,95,155.0
2560,C1,254.5,0.5,95,155.0
2561,C3,254.5,0.5,95,155.0
2562,G2,254.5,0.5,95,155.0
2563,C2,254.5,0.5,95,155.0
2564,C1,255.0,0.5,95,155.0
2565,C3,255.0,0.5,95,155.0
2566,G2,255.0,0.5,95,155.0
2567,C2,255.0,0.5,95,155.0
2568,C3,255.0,0.5,95,155.0
2569,G2,255.0,0.5,95,155.0
2570,C2,255.0,0.5,95,155.0
2571,C1,255.5,0.5,95,155.0
2572,C3,255.5,0.5,95,155.0
2573,G2,255.5,0.5,95,155.0
2574,C2,255.5,0.5,95,155.0
2575,C3,255.5,0.5,95,155.0
2576,G2,255.5,0.5,95,155.0
2577,C2,255.5,0.5,95,155.0
2578,F#3,256.0,0.5,95,155.0
2579,G1,256.0,0.5,95,155.0
2580,C3,256.0,0.5,95,155.0
2581,G2,256.0,0.5,95,155.0
2582,C2,256.0,0.5,95,155.0
2583,F#3,256.5,0.5,95,155.0
2584,G1,256.5,1.0,95,155.0
2585,C3,256.5,0.5,95,155.0
2586,G2,256.5,0.5,95,155.0
2587,C2,256.5,0.5,95,155.0
2588,F#3,257.0,0.5,95,155.0
2589,C3,257.0,0.5,95,155.0
2590,G2,257.0,0.5,95,155.0
2591,C2,257.0,0.5,95,155.0
2592,F#3,257.5,0.5,95,155.0
2593,C2,257.5,0.5,95,155.0
2594,C3,257.5,0.5,95,155.0
2595,G2,257.5,0.5,95,155.0
2596,C2,257.5,0.5,95,155.0
2597,F#3,258.0,0.5,95,155.0
2598,C2,258.0,1.0,95,155.0
2599,C3,258.0,0.5,95,155.0
2600,G2,258.0,0.5,95,155.0
2601,C2,258.0,0.5,95,155.0
2602,F#3,258.5,0.5,95,155.0
2603,G3,258.5,0.5,95,155.0
2604,D3,258.5,0.5,95,155.0
2605,G2,258.5,0.5,95,155.0
2606,B2,259.0,21/500,95,155.0
2607,G1,259.0,0.5,95,155.0
2608,G3,259.0,0.5,95,155.0
2609,G2,259.0,0.5,95,155.0
2610,G3,259.0,1.0,95,155.0
2611,D3,259.0,1.0,95,155.0
2612,G2,259.0,1.0,95,155.0
2613,B2,259.5,21/500,95,155.0
2614,G1,259.5,0.5,95,155.0
2615,G3,259.5,1.0,95,155.0
2616,G2,259.5,1.0,95,155.0
2617,G1,260.0,0.5,95,155.0
2618,C4,260.0,0.5,95,155.0
2619,G3,260.0,0.5,95,155.0
2620,C3,260.0,0.5,95,155.0
2621,B2,260.5,21/500,95,155.0
2622,C2,260.5,0.5,95,155.0
2623,C4,260.5,0.5,95,155.0
2624,C3,260.5,0.5,95,155.0
2625,C4,260.5,1.0,95,155.0
2626,G3,260.5,1.0,95,155.0
2627,C3,260.5,1.0,95,155.0
2628,B2,261.0,21/500,95,155.0
2629,C2,261.0,1.0,95,155.0
2630,C4,261.0,1.0,95,155.0
2631,C3,261.0,1.0,95,155.0
2632,G3,261.5,0.5,95,155.0
2633,D3,261.5,0.5,95,155.0
2634,G2,261.5,0.5,95,155.0
2635,B2,262.0,21/500,95,155.0
2636,G1,262.0,1.0,95,155.0
2637,G3,262.0,0.5,95,155.0
2638,G2,262.0,0.5,95,155.0
2639,G3,262.0,0.5,95,155.0
2640,D3,262.0,0.5,95,155.0
2641,G2,262.0,0.5,95,155.0
2642,B2,262.5,21/500,95,155.0
2643,G3,262.5,0.5,95,155.0
2644,G2,262.5,0.5,95,155.0
2645,C2,263.0,1.0,95,155.0
2646,G3,263.0,0.5,95,155.0
2647,D3,263.0,0.5,95,155.0
2648,G2,263.0,0.5,95,155.0
2649,G3,263.5,0.5,95,155.0
2650,G2,263.5,0.5,95,155.0
2651,C4,263.5,0.5,95,155.0
2652,G3,263.5,0.5,95,155.0
2653,C3,263.5,0.5,95,155.0
2654,B2,264.0,21/500,95,155.0
2655,F1,264.0,0.5,95,155.0
2656,C4,264.0,0.5,95,155.0
2657,C3,264.0,0.5,95,155.0
2658,C4,264.0,1.0,95,155.0
2659,G3,264.0,1.0,95,155.0
2660,C3,264.0,1.0,95,155.0
2661,B2,264.5,21/500,95,155.0
2662,F1,264.5,0.5,95,155.0
2663,C4,264.5,1.0,95,155.0
2664,C3,264.5,1.0,95,155.0
2665,F1,265.0,0.5,95,155.0
2666,G3,265.0,1.0,95,155.0
2667,D3,265.0,1.0,95,155.0
2668,G2,265.0,1.0,95,155.0
2669,B2,265.5,21/500,95,155.0
2670,F1,265.5,0.5,95,155.0
2671,G3,265.5,1.0,95,155.0
2672,G2,265.5,1.0,95,155.0
2673,F1,266.0,0.5,95,155.0
2674,C4,266.0,1.0,95,155.0
2675,G3,266.0,1.0,95,155.0
2676,C3,266.0,1.0,95,155.0
2677,B2,266.5,21/500,95,155.0
2678,F1,266.5,0.5,95,155.0
2679,C4,266.5,1.0,95,155.0
2680,C3,266.5,1.0,95,155.0
2681,F1,267.0,0.5,95,155.0
2682,F3,267.0,0.5,95,155.0
2683,C3,267.0,0.5,95,155.0
2684,F2,267.0,0.5,95,155.0
2685,F1,267.5,0.5,95,155.0
2686,F3,267.5,0.5,95,155.0
2687,C3,267.5,0.5,95,155.0
2688,F2,267.5,0.5,95,155.0
2689,F3,267.5,0.5,95,155.0
2690,C3,267.5,0.5,95,155.0
2691,F2,267.5,0.5,95,155.0
2692,C1,268.0,0.5,95,155.0
2693,F3,268.0,0.5,95,155.0
2694,C3,268.0,0.5,95,155.0
2695,F2,268.0,0.5,95,155.0
2696,F3,268.0,0.5,95,155.0
2697,C3,268.0,0.5,95,155.0
2698,F2,268.0,0.5,95,155.0
2699,B3,268.5,0.5,95,155.0
2700,C1,268.5,0.5,95,155.0
2701,F3,268.5,0.5,95,155.0
2702,C3,268.5,0.5,95,155.0
2703,F2,268.5,0.5,95,155.0
2704,B3,269.0,0.5,95,155.0
2705,C1,269.0,0.5,95,155.0
2706,F3,269.0,0.5,95,155.0
2707,C3,269.0,0.5,95,155.0
2708,F2,269.0,0.5,95,155.0
2709,B3,269.5,0.5,95,155.0
2710,C1,269.5,0.5,95,155.0
2711,F3,269.5,0.5,95,155.0
2712,C3,269.5,0.5,95,155.0
2713,F2,269.5,0.5,95,155.0
2714,B3,270.0,0.5,95,155.0
2715,C1,270.0,0.5,95,155.0
2716,F3,270.0,0.5,95,155.0
2717,C3,270.0,0.5,95,155.0
2718,F2,270.0,0.5,95,155.0
2719,B3,270.5,0.5,95,155.0
2720,C1,270.5,0.5,95,155.0
2721,F3,270.5,0.5,95,155.0
2722,C3,270.5,0.5,95,155.0
2723,F2,270.5,0.5,95,155.0
2724,B3,271.0,0.5,95,155.0
2725,C1,271.0,0.5,95,155.0
2726,C3,271.0,0.5,95,155.0
2727,G2,271.0,0.5,95,155.0
2728,C2,271.0,0.5,95,155.0
2729,C1,271.5,0.5,95,155.0
2730,C3,271.5,0.5,95,155.0
2731,G2,271.5,0.5,95,155.0
2732,C2,271.5,0.5,95,155.0
2733,C3,271.5,0.5,95,155.0
2734,G2,271.5,0.5,95,155.0
2735,C2,271.5,0.5,95,155.0
2736,G1,272.0,0.5,95,155.0
2737,C3,272.0,0.5,95,155.0
2738,G2,272.0,0.5,95,155.0
2739,C2,272.0,0.5,95,155.0
2740,C3,272.0,0.5,95,155.0
2741,G2,272.0,0.5,95,155.0
2742,C2,272.0,0.5,95,155.0
2743,F#3,272.5,0.5,95,155.0
2744,G1,272.5,1.0,95,155.0
2745,C3,272.5,0.5,95,155.0
2746,G2,272.5,0.5,95,155.0
2747,C2,272.5,0.5,95,155.0
2748,F#3,273.0,0.5,95,155.0
2749,C3,273.0,0.5,95,155.0
2750,G2,273.0,0.5,95,155.0
2751,C2,273.0,0.5,95,155.0
2752,F#3,273.5,0.5,95,155.0
2753,C2,273.5,0.5,95,155.0
2754,C3,273.5,0.5,95,155.0
2755,G2,273.5,0.5,95,155.0
2756,C2,273.5,0.5,95,155.0
2757,F#3,274.0,0.5,95,155.0
2758,C2,274.0,1.0,95,155.0
2759,C3,274.0,0.5,95,155.0
2760,G2,274.0,0.5,95,155.0
2761,C2,274.0,0.5,95,155.0
2762,F#3,274.5,0.5,95,155.0
2763,C3,274.5,0.5,95,155.0
2764,G2,274.5,0.5,95,155.0
2765,C2,274.5,0.5,95,155.0
2766,F#3,275.0,0.5,95,155.0
2767,G1,275.0,0.5,95,155.0
2768,G3,275.0,0.5,95,155.0
2769,D3,275.0,0.5,95,155.0
2770,G2,275.0,0.5,95,155.0
2771,B2,275.5,21/500,95,155.0
2772,G1,275.5,0.5,95,155.0
2773,G3,275.5,0.5,95,155.0
2774,G2,275.5,0.5,95,155.0
2775,G3,275.5,1.0,95,155.0
2776,D3,275.5,1.0,95,155.0
2777,G2,275.5,1.0,95,155.0
2778,B2,276.0,21/500,95,155.0
2779,G1,276.0,0.5,95,155.0
2780,G3,276.0,1.0,95,155.0
2781,G2,276.0,1.0,95,155.0
2782,C2,276.5,0.5,95,155.0
2783,C4,276.5,0.5,95,155.0
2784,G3,276.5,0.5,95,155.0
2785,C3,276.5,0.5,95,155.0
2786,B2,277.0,21/500,95,155.0
2787,C2,277.0,1.0,95,155.0
2788,C4,277.0,0.5,95,155.0
2789,C3,277.0,0.5,95,155.0
2790,C4,277.0,1.0,95,155.0
2791,G3,277.0,1.0,95,155.0
2792,C3,277.0,1.0,95,155.0
2793,B2,277.5,21/500,95,155.0
2794,C4,277.5,1.0,95,155.0
2795,C3,277.5,1.0,95,155.0
2796,G1,278.0,1.0,95,155.0
2797,G3,278.0,0.5,95,155.0
2798,D3,278.0,0.5,95,155.0
2799,G2,278.0,0.5,95,155.0
2800,B2,278.5,21/500,95,155.0
2801,G3,278.5,0.5,95,155.0
2802,G2,278.5,0.5,95,155.0
2803,G3,278.5,0.5,95,155.0
2804,D3,278.5,0.5,95,155.0
2805,G2,278.5,0.5,95,155.0
2806,B2,279.0,21/500,95,155.0
2807,C2,279.0,1.0,95,155.0
2808,G3,279.0,0.5,95,155.0
2809,G2,279.0,0.5,95,155.0
2810,G3,279.5,0.5,95,155.0
2811,D3,279.5,0.5,95,155.0
2812,G2,279.5,0.5,95,155.0
2813,F1,280.0,0.5,95,155.0
2814,G3,280.0,0.5,95,155.0
2815,G2,280.0,0.5,95,155.0
2816,C4,280.0,0.5,95,155.0
2817,G3,280.0,0.5,95,155.0
2818,C3,280.0,0.5,95,155.0
2819,B2,280.5,21/500,95,155.0
2820,F1,280.5,0.5,95,155.0
2821,C4,280.5,0.5,95,155.0
2822,C3,280.5,0.5,95,155.0
2823,C4,280.5,1.0,95,155.0
2824,G3,280.5,1.0,95,155.0
2825,C3,280.5,1.0,95,155.0
2826,B2,281.0,21/500,95,155.0
2827,F1,281.0,0.5,95,155.0
2828,C4,281.0,1.0,95,155.0
2829,C3,281.0,1.0,95,155.0
2830,F1,281.5,0.5,95,155.0
2831,G3,281.5,1.0,95,155.0
2832,D3,281.5,1.0,95,155.0
2833,G2,281.5,1.0,95,155.0
2834,B2,282.0,21/500,95,155.0
2835,F1,282.0,0.5,95,155.0
2836,G3,282.0,1.0,95,155.0
2837,G2,282.0,1.0,95,155.0
2838,F1,282.5,0.5,95,155.0
2839,C4,282.5,1.0,95,155.0
2840,G3,282.5,1.0,95,155.0
2841,C3,282.5,1.0,95,155.0
2842,B2,283.0,21/500,95,155.0
2843,F1,283.0,0.5,95,155.0
2844,C4,283.0,1.0,95,155.0
2845,C3,283.0,1.0,95,155.0
2846,F1,283.5,0.5,95,155.0
2847,F3,283.5,0.5,95,155.0
2848,C3,283.5,0.5,95,155.0
2849,F2,283.5,0.5,95,155.0
2850,C1,284.0,0.5,95,155.0
2851,F3,284.0,0.5,95,155.0
2852,C3,284.0,0.5,95,155.0
2853,F2,284.0,0.5,95,155.0
2854,F3,284.0,0.5,95,155.0
2855,C3,284.0,0.5,95,155.0
2856,F2,284.0,0.5,95,155.0
2857,C1,284.5,0.5,95,155.0
2858,F3,284.5,0.5,95,155.0
2859,C3,284.5,0.5,95,155.0
2860,F2,284.5,0.5,95,155.0
2861,F3,284.5,0.5,95,155.0
2862,C3,284.5,0.5,95,155.0
2863,F2,284.5,0.5,95,155.0
2864,B3,285.0,0.5,95,155.0
2865,C1,285.0,0.5,95,155.0
2866,F3,285.0,0.5,95,155.0
2867,C3,285.0,0.5,95,155.0
2868,F2,285.0,0.5,95,155.0
2869,B3,285.5,0.5,95,155.0
2870,C1,285.5,0.5,95,155.0
2871,F3,285.5,0.5,95,155.0
2872,C3,285.5,0.5,95,155.0
2873,F2,285.5,0.5,95,155.0
2874,B3,286.0,0.5,95,155.0
2875,C1,286.0,0.5,95,155.0
2876,F3,286.0,0.5,95,155.0
2877,C3,286.0,0.5,95,155.0
2878,F2,286.0,0.5,95,155.0
2879,B3,286.5,0.5,95,155.0
2880,C1,286.5,0.5,95,155.0
2881,F3,286.5,0.5,95,155.0
2882,C3,286.5,0.5,95,155.0
2883,F2,286.5,0.5,95,155.0
2884,B3,287.0,0.5,95,155.0
2885,C1,287.0,0.5,95,155.0
2886,F3,287.0,0.5,95,155.0
2887,C3,287.0,0.5,95,155.0
2888,F2,287.0,0.5,95,155.0
2889,B3,287.5,0.5,95,155.0
2890,C1,287.5,0.5,95,155.0
2891,C3,287.5,0.5,95,155.0
2892,G2,287.5,0.5,95,155.0
2893,C2,287.5,0.5,95,155.0
2894,C3,288.0,0.5,95,155.0
2895,G2,288.0,0.5,95,155.0
2896,C2,288.0,0.5,95,155.0
2897,C3,288.0,0.5,95,155.0
2898,G2,288.0,0.5,95,155.0
2899,C2,288.0,0.5,95,155.0
2900,C3,288.5,0.5,95,155.0
2901,G2,288.5,0.5,95,155.0
2902,C2,288.5,0.5,95,155.0
2903,C3,288.5,0.5,95,155.0
2904,G2,288.5,0.5,95,155.0
2905,C2,288.5,0.5,95,155.0
2906,F#3,289.0,0.5,95,155.0
2907,C3,289.0,0.5,95,155.0
2908,G2,289.0,0.5,95,155.0
2909,C2,289.0,0.5,95,155.0
2910,F#3,289.5,0.5,95,155.0
2911,C3,289.5,0.5,95,155.0
2912,G2,289.5,0.5,95,155.0
2913,C2,289.5,0.5,95,155.0
2914,F#3,290.0,0.5,95,155.0
2915,C3,290.0,0.5,95,155.0
2916,G2,290.0,0.5,95,155.0
2917,C2,290.0,0.5,95,155.0
2918,F#3,290.5,0.5,95,155.0
2919,C3,290.5,0.5,95,155.0
2920,G2,290.5,0.5,95,155.0
2921,C2,290.5,0.5,95,155.0
2922,F#3,291.0,0.5,95,155.0
2923,C3,291.0,0.5,95,155.0
2924,G2,291.0,0.5,95,155.0
2925,C2,291.0,0.5,95,155.0
2926,F#3,291.5,0.5,95,155.0
2927,G2,291.5,0.25,95,155.0
2928,G2,291.75,0.25,95,155.0
2929,E3,292.0,21/500,95,155.0
2930,G2,292.0,0.25,95,155.0
2931,G4,292.0,0.5,95,155.0
2932,G3,292.0,0.5,95,155.0
2933,G2,292.25,0.25,95,155.0
2934,G2,292.5,0.25,95,155.0
2935,G2,292.75,0.25,95,155.0
2936,C3,293.0,0.25,86,155.0
2937,C3,293.25,0.25,95,155.0
2938,C3,293.5,0.25,95,155.0
2939,C3,293.75,0.25,95,155.0
2940,C3,294.0,0.25,95,155.0
2941,C3,294.25,0.25,95,155.0
2942,G2,294.5,0.25,86,155.0
2943,G2,294.75,0.25,95,155.0
2944,G2,295.0,0.25,95,155.0
2945,G2,295.25,0.25,95,155.0
2946,G2,295.5,0.25,95,155.0
2947,G2,295.75,0.25,95,155.0
2948,C3,296.0,0.25,86,155.0
2949,C3,296.25,0.25,95,155.0
2950,C3,296.5,0.25,95,155.0
2951,C3,296.75,0.25,95,155.0
2952,C3,297.0,0.25,95,155.0
2953,C3,297.25,0.25,95,155.0
2954,G2,297.5,0.25,86,155.0
2955,G2,297.75,0.25,95,155.0
2956,G2,298.0,0.25,95,155.0
2957,G2,298.25,0.25,95,155.0
2958,C3,298.5,0.25,95,155.0
2959,C3,298.75,0.25,95,155.0
2960,C3,299.0,0.25,95,155.0
2961,C3,299.25,0.25,95,155.0
2962,F2,299.5,0.25,95,155.0
2963,F2,299.75,0.25,95,155.0
2964,F2,300.0,0.25,95,155.0
2965,F2,300.25,0.25,95,155.0
2966,F2,300.5,0.25,95,155.0
2967,F2,300.75,0.25,95,155.0
2968,F2,301.0,0.25,95,155.0
2969,F2,301.25,0.25,95,155.0
2970,F2,301.5,0.25,95,155.0
2971,F2,301.75,0.25,95,155.0
2972,F2,302.0,0.25,95,155.0
2973,F2,302.25,0.25,95,155.0
2974,F2,302.5,0.25,95,155.0
2975,F2,302.75,0.25,95,155.0
2976,F2,303.0,0.25,95,155.0
2977,F2,303.25,0.25,95,155.0
2978,C2,303.5,0.25,86,155.0
2979,C2,303.75,0.25,95,155.0
2980,C2,304.0,0.25,95,155.0
2981,C2,304.25,0.25,95,155.0
2982,C2,304.5,0.25,95,155.0
2983,C2,304.75,0.25,95,155.0
2984,C2,305.0,0.25,95,155.0
2985,C2,305.25,0.25,95,155.0
2986,C2,305.5,0.25,95,155.0
2987,C2,305.75,0.25,95,155.0
2988,C2,306.0,0.25,95,155.0
2989,C2,306.25,0.25,95,155.0
2990,C2,306.5,0.25,95,155.0
2991,C2,306.75,0.25,95,155.0
2992,C2,307.0,0.25,95,155.0
2993,C2,307.25,0.25,95,155.0
2994,G2,307.5,0.25,95,155.0
2995,G2,307.75,0.25,95,155.0
2996,G2,308.0,0.25,95,155.0
2997,G4,308.0,0.5,95,155.0
2998,C4,308.0,0.5,95,155.0
2999,G3,308.0,0.5,95,155.0
3000,G2,308.25,0.25,95,155.0
3001,G2,308.5,0.25,95,155.0
3002,G2,308.75,0.25,95,155.0
3003,C3,309.0,0.25,86,155.0
3004,C3,309.25,0.25,95,155.0
3005,C3,309.5,0.25,95,155.0
3006,C3,309.75,0.25,95,155.0
3007,C3,310.0,0.25,95,155.0
3008,C3,310.25,0.25,95,155.0
3009,G2,310.5,0.25,86,155.0
3010,G2,310.75,0.25,95,155.0
3011,G2,311.0,0.25,95,155.0
3012,G2,311.25,0.25,95,155.0
3013,G2,311.5,0.25,95,155.0
3014,G2,311.75,0.25,95,155.0
3015,C3,312.0,0.25,86,155.0
3016,C3,312.25,0.25,95,155.0
3017,C3,312.5,0.25,95,155.0
3018,C3,312.75,0.25,95,155.0
3019,C3,313.0,0.25,95,155.0
3020,C3,313.25,0.25,95,155.0
3021,G2,313.5,0.25,86,155.0
3022,G2,313.75,0.25,95,155.0
3023,G2,314.0,0.25,95,155.0
3024,G2,314.25,0.25,95,155.0
3025,C3,314.5,0.25,95,155.0
3026,C3,314.75,0.25,95,155.0
3027,C3,315.0,0.25,95,155.0
3028,C3,315.25,0.25,95,155.0
3029,G4,315.5,0.5,95,155.0
3030,F2,315.5,0.25,95,155.0
3031,F2,315.75,0.25,95,155.0
3032,G4,316.0,0.25,95,155.0
3033,F2,316.0,0.25,95,155.0
3034,G4,316.25,0.25,95,155.0
3035,F2,316.25,0.25,95,155.0
3036,G4,316.5,0.5,95,155.0
3037,F2,316.5,0.25,95,155.0
3038,F2,316.75,0.25,95,155.0
3039,G4,317.0,0.25,95,155.0
3040,F2,317.0,0.25,95,155.0
3041,G4,317.25,0.25,95,155.0
3042,F2,317.25,0.25,95,155.0
3043,G4,317.5,0.5,95,155.0
3044,F2,317.5,0.25,95,155.0
3045,F2,317.75,0.25,95,155.0
3046,G4,318.0,0.25,95,155.0
3047,F2,318.0,0.25,95,155.0
3048,G4,318.25,0.25,95,155.0
3049,F2,318.25,0.25,95,155.0
3050,G4,318.5,0.5,95,155.0
3051,F2,318.5,0.25,95,155.0
3052,F2,318.75,0.25,95,155.0
3053,G4,319.0,0.25,95,155.0
3054,F2,319.0,0.25,95,155.0
3055,G4,319.25,0.25,95,155.0
3056,F2,319.25,0.25,95,155.0
3057,G4,319.5,0.5,95,155.0
3058,C2,319.5,0.25,86,155.0
3059,C2,319.75,0.25,95,155.0
3060,C2,320.0,0.25,95,155.0
3061,G1,320.0,0.5,95,155.0
3062,G#4,320.0,0.25,95,155.0
3063,C#4,320.0,0.25,95,155.0
3064,G#3,320.0,0.25,95,155.0
3065,C2,320.25,0.25,95,155.0
3066,G#4,320.25,0.25,95,155.0
3067,C#4,320.25,0.25,95,155.0
3068,G#3,320.25,0.25,95,155.0
3069,C2,320.5,0.25,95,155.0
3070,G#4,320.5,0.25,95,155.0
3071,C#4,320.5,0.25,95,155.0
3072,G#3,320.5,0.25,95,155.0
3073,C2,320.75,0.25,95,155.0
3074,G#4,320.75,0.25,95,155.0
3075,C#4,320.75,0.25,95,155.0
3076,G#3,320.75,0.25,95,155.0
3077,C2,321.0,0.25,95,155.0
3078,G#4,321.0,0.25,95,155.0
3079,C#4,321.0,0.25,95,155.0
3080,G#3,321.0,0.25,95,155.0
3081,C2,321.25,0.25,95,155.0
3082,G#4,321.25,0.25,95,155.0
3083,C#4,321.25,0.25,95,155.0
3084,G#3,321.25,0.25,95,155.0
3085,C2,321.5,0.25,95,155.0
3086,C2,321.5,0.25,95,155.0
3087,G#4,321.5,0.25,95,155.0
3088,C#4,321.5,0.25,95,155.0
3089,G#3,321.5,0.25,95,155.0
3090,C2,321.75,0.25,95,155.0
3091,C2,321.75,0.25,95,155.0
3092,G#4,321.75,0.25,95,155.0
3093,C#4,321.75,0.25,95,155.0
3094,G#3,321.75,0.25,95,155.0
3095,C2,322.0,0.25,95,155.0
3096,C2,322.0,0.5,95,155.0
3097,G#4,322.0,0.25,95,155.0
3098,C#4,322.0,0.25,95,155.0
3099,G#3,322.0,0.25,95,155.0
3100,C2,322.25,0.25,95,155.0
3101,G#4,322.25,0.25,95,155.0
3102,C#4,322.25,0.25,95,155.0
3103,G#3,322.25,0.25,95,155.0
3104,C2,322.5,0.25,95,155.0
3105,G#4,322.5,0.25,95,155.0
3106,C#4,322.5,0.25,95,155.0
3107,G#3,322.5,0.25,95,155.0
3108,C2,322.75,0.25,95,155.0
3109,G#4,322.75,0.25,95,155.0
3110,C#4,322.75,0.25,95,155.0
3111,G#3,322.75,0.25,95,155.0
3112,C2,323.0,0.25,95,155.0
3113,G1,323.0,0.5,95,155.0
3114,G#4,323.0,0.25,95,155.0
3115,C#4,323.0,0.25,95,155.0
3116,G#3,323.0,0.25,95,155.0
3117,C2,323.25,0.25,95,155.0
3118,G#4,323.25,0.25,95,155.0
3119,C#4,323.25,0.25,95,155.0
3120,G#3,323.25,0.25,95,155.0
3121,A4,323.5,0.5,95,155.0
3122,G2,323.5,0.25,95,155.0
3123,G2,323.75,0.25,95,155.0
3124,E3,324.0,21/500,95,155.0
3125,G2,324.0,0.25,95,155.0
3126,G4,324.0,0.25,95,155.0
3127,G3,324.0,0.25,95,155.0
3128,E3,324.25,21/500,95,155.0
3129,G2,324.25,0.25,95,155.0
3130,G4,324.25,0.25,95,155.0
3131,G3,324.25,0.25,95,155.0
3132,E3,324.5,21/500,95,155.0
3133,G2,324.5,0.25,95,155.0
3134,C2,324.5,0.5,95,155.0
3135,G4,324.5,0.25,95,155.0
3136,G3,324.5,0.25,95,155.0
3137,E3,324.75,21/500,95,155.0
3138,G2,324.75,0.25,95,155.0
3139,G4,324.75,0.25,95,155.0
3140,G3,324.75,0.25,95,155.0
3141,E3,325.0,21/500,95,155.0
3142,C3,325.0,0.25,86,155.0
3143,G4,325.0,0.25,95,155.0
3144,G3,325.0,0.25,95,155.0
3145,E3,325.25,21/500,95,155.0
3146,C3,325.25,0.25,95,155.0
3147,G4,325.25,0.25,95,155.0
3148,G3,325.25,0.25,95,155.0
3149,E3,325.5,21/500,95,155.0
3150,C3,325.5,0.25,95,155.0
3151,G4,325.5,0.25,95,155.0
3152,G3,325.5,0.25,95,155.0
3153,E3,325.75,21/500,95,155.0
3154,C3,325.75,0.25,95,155.0
3155,G4,325.75,0.25,95,155.0
3156,G3,325.75,0.25,95,155.0
3157,E3,326.0,21/500,95,155.0
3158,C3,326.0,0.25,95,155.0
3159,G1,326.0,0.25,95,155.0
3160,G4,326.0,0.25,95,155.0
3161,G3,326.0,0.25,95,155.0
3162,E3,326.25,21/500,95,155.0
3163,C3,326.25,0.25,95,155.0
3164,G1,326.25,0.25,95,155.0
3165,G4,326.25,0.25,95,155.0
3166,G3,326.25,0.25,95,155.0
3167,E3,326.5,21/500,95,155.0
3168,G2,326.5,0.25,86,155.0
3169,G4,326.5,0.25,95,155.0
3170,G3,326.5,0.25,95,155.0
3171,E3,326.75,21/500,95,155.0
3172,G2,326.75,0.25,95,155.0
3173,G4,326.75,0.25,95,155.0
3174,G3,326.75,0.25,95,155.0
3175,E3,327.0,21/500,95,155.0
3176,G2,327.0,0.25,95,155.0
3177,G4,327.0,0.25,95,155.0
3178,G3,327.0,0.25,95,155.0
3179,E3,327.25,21/500,95,155.0
3180,G2,327.25,0.25,95,155.0
3181,G4,327.25,0.25,95,155.0
3182,G3,327.25,0.25,95,155.0
3183,E3,327.5,21/500,95,155.0
3184,G2,327.5,0.25,95,155.0
3185,G4,327.5,0.25,95,155.0
3186,G3,327.5,0.25,95,155.0
3187,E3,327.75,21/500,95,155.0
3188,G2,327.75,0.25,95,155.0
3189,G4,327.75,0.25,95,155.0
3190,G3,327.75,0.25,95,155.0
3191,E3,328.0,21/500,95,155.0
3192,C3,328.0,0.25,86,155.0
3193,F1,328.0,0.5,95,155.0
3194,G4,328.0,0.25,95,155.0
3195,G3,328.0,0.25,95,155.0
3196,E3,328.25,21/500,95,155.0
3197,C3,328.25,0.25,95,155.0
3198,G4,328.25,0.25,95,155.0
3199,G3,328.25,0.25,95,155.0
3200,E3,328.5,21/500,95,155.0
3201,C3,328.5,0.25,95,155.0
3202,G4,328.5,0.25,95,155.0
3203,G3,328.5,0.25,95,155.0
3204,E3,328.75,21/500,95,155.0
3205,C3,328.75,0.25,95,155.0
3206,G4,328.75,0.25,95,155.0
3207,G3,328.75,0.25,95,155.0
3208,E3,329.0,21/500,95,155.0
3209,C3,329.0,0.25,95,155.0
3210,G4,329.0,0.25,95,155.0
3211,G3,329.0,0.25,95,155.0
3212,E3,329.25,21/500,95,155.0
3213,C3,329.25,0.25,95,155.0
3214,G4,329.25,0.25,95,155.0
3215,G3,329.25,0.25,95,155.0
3216,E3,329.5,21/500,95,155.0
3217,G2,329.5,0.25,86,155.0
3218,F1,329.5,0.25,95,155.0
3219,G4,329.5,0.25,95,155.0
3220,G3,329.5,0.25,95,155.0
3221,E3,329.75,21/500,95,155.0
3222,G2,329.75,0.25,95,155.0
3223,F1,329.75,0.25,95,155.0
3224,G4,329.75,0.25,95,155.0
3225,G3,329.75,0.25,95,155.0
3226,G2,330.0,0.25,95,155.0
3227,F1,330.0,0.5,95,155.0
3228,G#3,330.0,21/500,95,155.0
3229,E3,330.0,21/500,95,155.0
3230,G2,330.25,0.25,95,155.0
3231,C3,330.5,0.25,95,155.0
3232,C3,330.75,0.25,95,155.0
3233,E3,331.0,21/500,95,155.0
3234,C3,331.0,0.25,95,155.0
3235,C1,331.0,0.5,95,155.0
3236,C#5,331.0,1.0,95,155.0
3237,C#4,331.0,1.0,95,155.0
3238,C3,331.25,0.25,95,155.0
3239,F2,331.5,0.25,95,155.0
3240,F2,331.75,0.25,95,155.0
3241,C#5,332.0,1.0,95,155.0
3242,F2,332.0,0.25,95,155.0
3243,F2,332.25,0.25,95,155.0
3244,F2,332.5,0.25,95,155.0
3245,C1,332.5,0.5,95,155.0
3246,F2,332.75,0.25,95,155.0
3247,C#4,333.0,1.0,95,155.0
3248,F2,333.0,0.25,95,155.0
3249,F2,333.25,0.25,95,155.0
3250,F2,333.5,0.25,95,155.0
3251,F2,333.75,0.25,95,155.0
3252,E3,334.0,21/500,95,155.0
3253,F2,334.0,0.25,95,155.0
3254,C5,334.0,0.25,95,155.0
3255,C4,334.0,0.25,95,155.0
3256,E3,334.25,21/500,95,155.0
3257,F2,334.25,0.25,95,155.0
3258,C5,334.25,0.25,95,155.0
3259,C4,334.25,0.25,95,155.0
3260,E3,334.5,21/500,95,155.0
3261,F2,334.5,0.25,95,155.0
3262,C5,334.5,0.25,95,155.0
3263,C4,334.5,0.25,95,155.0
3264,E3,334.75,21/500,95,155.0
3265,F2,334.75,0.25,95,155.0
3266,C5,334.75,0.25,95,155.0
3267,C4,334.75,0.25,95,155.0
3268,E3,335.0,21/500,95,155.0
3269,F2,335.0,0.25,95,155.0
3270,C5,335.0,0.25,95,155.0
3271,C4,335.0,0.25,95,155.0
3272,E3,335.25,21/500,95,155.0
3273,F2,335.25,0.25,95,155.0
3274,C5,335.25,0.25,95,155.0
3275,C4,335.25,0.25,95,155.0
3276,E3,335.5,21/500,95,155.0
3277,C2,335.5,0.25,86,155.0
3278,C5,335.5,0.25,95,155.0
3279,C4,335.5,0.25,95,155.0
3280,E3,335.75,21/500,95,155.0
3281,C2,335.75,0.25,95,155.0
3282,C5,335.75,0.25,95,155.0
3283,C4,335.75,0.25,95,155.0
3284,E3,336.0,21/500,95,155.0
3285,C2,336.0,0.25,95,155.0
3286,G1,336.0,0.5,95,155.0
3287,C5,336.0,0.25,95,155.0
3288,C4,336.0,0.25,95,155.0
3289,E3,336.25,21/500,95,155.0
3290,C2,336.25,0.25,95,155.0
3291,C5,336.25,0.25,95,155.0
3292,C4,336.25,0.25,95,155.0
3293,E3,336.5,21/500,95,155.0
3294,C2,336.5,0.25,95,155.0
3295,C5,336.5,0.25,95,155.0
3296,C4,336.5,0.25,95,155.0
3297,E3,336.75,21/500,95,155.0
3298,C2,336.75,0.25,95,155.0
3299,C5,336.75,0.25,95,155.0
3300,C4,336.75,0.25,95,155.0
3301,E3,337.0,21/500,95,155.0
3302,C2,337.0,0.25,95,155.0
3303,C5,337.0,0.25,95,155.0
3304,C4,337.0,0.25,95,155.0
3305,E3,337.25,21/500,95,155.0
3306,C2,337.25,0.25,95,155.0
3307,C5,337.25,0.25,95,155.0
3308,C4,337.25,0.25,95,155.0
3309,E3,337.5,21/500,95,155.0
3310,C2,337.5,0.25,95,155.0
3311,C2,337.5,0.25,95,155.0
3312,C5,337.5,0.25,95,155.0
3313,C4,337.5,0.25,95,155.0
3314,E3,337.75,21/500,95,155.0
3315,C2,337.75,0.25,95,155.0
3316,C2,337.75,0.25,95,155.0
3317,C5,337.75,0.25,95,155.0
3318,C4,337.75,0.25,95,155.0
3319,E3,338.0,21/500,95,155.0
3320,C2,338.0,0.25,95,155.0
3321,C2,338.0,0.5,95,155.0
3322,C5,338.0,0.25,95,155.0
3323,C4,338.0,0.25,95,155.0
3324,E3,338.25,21/500,95,155.0
3325,C2,338.25,0.25,95,155.0
3326,C5,338.25,0.25,95,155.0
3327,C4,338.25,0.25,95,155.0
3328,E3,338.5,21/500,95,155.0
3329,C2,338.5,0.25,95,155.0
3330,C5,338.5,0.25,95,155.0
3331,C4,338.5,0.25,95,155.0
3332,E3,338.75,21/500,95,155.0
3333,C2,338.75,0.25,95,155.0
3334,C5,338.75,0.25,95,155.0
3335,C4,338.75,0.25,95,155.0
3336,E3,339.0,21/500,95,155.0
3337,C2,339.0,0.25,95,155.0
3338,G1,339.0,0.5,95,155.0
3339,C5,339.0,0.25,95,155.0
3340,C4,339.0,0.25,95,155.0
3341,E3,339.25,21/500,95,155.0
3342,C2,339.25,0.25,95,155.0
3343,C5,339.25,0.25,95,155.0
3344,C4,339.25,0.25,95,155.0
3345,E3,339.5,21/500,95,155.0
3346,G2,339.5,0.25,95,155.0
3347,C5,339.5,0.25,95,155.0
3348,C4,339.5,0.25,95,155.0
3349,E3,339.75,21/500,95,155.0
3350,G2,339.75,0.25,95,155.0
3351,C5,339.75,0.25,95,155.0
3352,C4,339.75,0.25,95,155.0
3353,E3,340.0,21/500,95,155.0
3354,G2,340.0,0.25,95,155.0
3355,G4,340.0,0.25,86,155.0
3356,G3,340.0,0.25,86,155.0
3357,E3,340.25,21/500,95,155.0
3358,G2,340.25,0.25,95,155.0
3359,G4,340.25,0.25,95,155.0
3360,G3,340.25,0.25,95,155.0
3361,E3,340.5,21/500,95,155.0
3362,G2,340.5,0.25,95,155.0
3363,C2,340.5,0.5,95,155.0
3364,G4,340.5,0.25,95,155.0
3365,G3,340.5,0.25,95,155.0
3366,E3,340.75,21/500,95,155.0
3367,G2,340.75,0.25,95,155.0
3368,G4,340.75,0.25,95,155.0
3369,G3,340.75,0.25,95,155.0
3370,E3,341.0,21/500,95,155.0
3371,C3,341.0,0.25,86,155.0
3372,G4,341.0,0.25,95,155.0
3373,G3,341.0,0.25,95,155.0
3374,E3,341.25,21/500,95,155.0
3375,C3,341.25,0.25,95,155.0
3376,G4,341.25,0.25,95,155.0
3377,G3,341.25,0.25,95,155.0
3378,E3,341.5,21/500,95,155.0
3379,C3,341.5,0.25,95,155.0
3380,G4,341.5,0.25,95,155.0
3381,G3,341.5,0.25,95,155.0
3382,E3,341.75,21/500,95,155.0
3383,C3,341.75,0.25,95,155.0
3384,G4,341.75,0.25,95,155.0
3385,G3,341.75,0.25,95,155.0
3386,E3,342.0,21/500,95,155.0
3387,C3,342.0,0.25,95,155.0
3388,G1,342.0,0.25,95,155.0
3389,G4,342.0,0.25,95,155.0
3390,G3,342.0,0.25,95,155.0
3391,E3,342.25,21/500,95,155.0
3392,C3,342.25,0.25,95,155.0
3393,G1,342.25,0.25,95,155.0
3394,G4,342.25,0.25,95,155.0
3395,G3,342.25,0.25,95,155.0
3396,E3,342.5,21/500,95,155.0
3397,G2,342.5,0.25,86,155.0
3398,G4,342.5,0.25,95,155.0
3399,G3,342.5,0.25,95,155.0
3400,E3,342.75,21/500,95,155.0
3401,G2,342.75,0.25,95,155.0
3402,G4,342.75,0.25,95,155.0
3403,G3,342.75,0.25,95,155.0
3404,E3,343.0,21/500,95,155.0
3405,G2,343.0,0.25,95,155.0
3406,G4,343.0,0.25,95,155.0
3407,G3,343.0,0.25,95,155.0
3408,E3,343.25,21/500,95,155.0
3409,G2,343.25,0.25,95,155.0
3410,G4,343.25,0.25,95,155.0
3411,G3,343.25,0.25,95,155.0
3412,E3,343.5,21/500,95,155.0
3413,G2,343.5,0.25,95,155.0
3414,G4,343.5,0.25,95,155.0
3415,G3,343.5,0.25,95,155.0
3416,E3,343.75,21/500,95,155.0
3417,G2,343.75,0.25,95,155.0
3418,G4,343.75,0.25,95,155.0
3419,G3,343.75,0.25,95,155.0
3420,E3,344.0,21/500,95,155.0
3421,C3,344.0,0.25,86,155.0
3422,F1,344.0,0.5,95,155.0
3423,G4,344.0,0.25,95,155.0
3424,G3,344.0,0.25,95,155.0
3425,E3,344.25,21/500,95,155.0
3426,C3,344.25,0.25,95,155.0
3427,G4,344.25,0.25,95,155.0
3428,G3,344.25,0.25,95,155.0
3429,E3,344.5,21/500,95,155.0
3430,C3,344.5,0.25,95,155.0
3431,G4,344.5,0.25,95,155.0
3432,G3,344.5,0.25,95,155.0
3433,E3,344.75,21/500,95,155.0
3434,C3,344.75,0.25,95,155.0
3435,G4,344.75,0.25,95,155.0
3436,G3,344.75,0.25,95,155.0
3437,E3,345.0,21/500,95,155.0
3438,C3,345.0,0.25,95,155.0
3439,G4,345.0,0.25,95,155.0
3440,G3,345.0,0.25,95,155.0
3441,E3,345.25,21/500,95,155.0
3442,C3,345.25,0.25,95,155.0
3443,G4,345.25,0.25,95,155.0
3444,G3,345.25,0.25,95,155.0
3445,E3,345.5,21/500,95,155.0
3446,G2,345.5,0.25,86,155.0
3447,F1,345.5,0.25,95,155.0
3448,G4,345.5,0.25,95,155.0
3449,G3,345.5,0.25,95,155.0
3450,E3,345.75,21/500,95,155.0
3451,G2,345.75,0.25,95,155.0
3452,F1,345.75,0.25,95,155.0
3453,G4,345.75,0.25,95,155.0
3454,G3,345.75,0.25,95,155.0
3455,G2,346.0,0.25,95,155.0
3456,F1,346.0,0.5,95,155.0
3457,G#3,346.0,21/500,95,155.0
3458,E3,346.0,21/500,95,155.0
3459,G2,346.25,0.25,95,155.0
3460,C3,346.5,0.25,95,155.0
3461,C3,346.75,0.25,95,155.0
3462,E3,347.0,21/500,95,155.0
3463,C3,347.0,0.25,95,155.0
3464,C1,347.0,0.5,95,155.0
3465,C#5,347.0,1.0,95,155.0
3466,C#4,347.0,1.0,95,155.0
3467,C3,347.25,0.25,95,155.0
3468,F2,347.5,0.25,95,155.0
3469,F2,347.75,0.25,95,155.0
3470,E3,348.0,21/500,95,155.0
3471,F2,348.0,0.25,95,155.0
3472,C#5,348.0,0.25,95,155.0
3473,C#4,348.0,0.25,95,155.0
3474,E3,348.25,21/500,95,155.0
3475,F2,348.25,0.25,95,155.0
3476,C#5,348.25,0.25,95,155.0
3477,C#4,348.25,0.25,95,155.0
3478,E3,348.5,21/500,95,155.0
3479,F2,348.5,0.25,95,155.0
3480,C1,348.5,0.5,95,155.0
3481,C#5,348.5,0.25,95,155.0
3482,C#4,348.5,0.25,95,155.0
3483,C#5,348.75,0.25,95,155.0
3484,F2,348.75,0.25,95,155.0
3485,C#5,349.0,0.25,95,155.0
3486,F2,349.0,0.25,95,155.0
3487,C#5,349.25,0.25,95,155.0
3488,F2,349.25,0.25,95,155.0
3489,C#5,349.5,0.25,95,155.0
3490,F2,349.5,0.25,95,155.0
3491,C#5,349.75,0.25,95,155.0
3492,F2,349.75,0.25,95,155.0
3493,C5,350.0,0.25,95,155.0
3494,F2,350.0,0.25,95,155.0
3495,C5,350.25,0.25,95,155.0
3496,F2,350.25,0.25,95,155.0
3497,C5,350.5,0.25,95,155.0
3498,F2,350.5,0.25,95,155.0
3499,C5,350.75,0.25,95,155.0
3500,F2,350.75,0.25,95,155.0
3501,C5,351.0,0.25,95,155.0
3502,F2,351.0,0.25,95,155.0
3503,C5,351.25,0.25,95,155.0
3504,F2,351.25,0.25,95,155.0
3505,C5,351.5,0.25,95,155.0
3506,C2,351.5,0.25,86,155.0
3507,C5,351.75,0.25,95,155.0
3508,C2,351.75,0.25,95,155.0
3509,C5,352.0,0.25,95,155.0
3510,C2,352.0,0.25,95,155.0
3511,G1,352.0,0.5,95,155.0
3512,C5,352.25,0.25,95,155.0
3513,C2,352.25,0.25,95,155.0
3514,C5,352.5,0.25,95,155.0
3515,C2,352.5,0.25,95,155.0
3516,C5,352.75,0.25,95,155.0
3517,C2,352.75,0.25,95,155.0
3518,C5,353.0,0.25,95,155.0
3519,C2,353.0,0.25,95,155.0
3520,C5,353.25,0.25,95,155.0
3521,C2,353.25,0.25,95,155.0
3522,C5,353.5,0.25,95,155.0
3523,C2,353.5,0.25,95,155.0
3524,C2,353.5,0.25,95,155.0
3525,C5,353.75,0.25,95,155.0
3526,C2,353.75,0.25,95,155.0
3527,C2,353.75,0.25,95,155.0
3528,C5,354.0,0.25,95,155.0
3529,C2,354.0,0.25,95,155.0
3530,C2,354.0,0.5,95,155.0
3531,C5,354.25,0.25,95,155.0
3532,C2,354.25,0.25,95,155.0
3533,C5,354.5,0.25,95,155.0
3534,C2,354.5,0.25,95,155.0
3535,C5,354.75,0.25,95,155.0
3536,C2,354.75,0.25,95,155.0
3537,C5,355.0,0.25,95,155.0
3538,C2,355.0,0.25,95,155.0
3539,G1,355.0,0.5,95,155.0
3540,C5,355.25,0.25,95,155.0
3541,C2,355.25,0.25,95,155.0
3542,G2,355.5,0.25,95,155.0
3543,G#3,355.5,21/500,95,155.0
3544,E3,355.5,21/500,95,155.0
3545,G2,355.75,0.25,95,155.0
3546,E3,356.0,21/500,95,155.0
3547,G2,356.0,0.25,95,155.0
3548,G4,356.0,0.5,95,155.0
3549,G3,356.0,0.5,95,155.0
3550,G2,356.25,0.25,95,155.0
3551,G2,356.5,0.25,95,155.0
3552,C2,356.5,0.5,95,155.0
3553,G2,356.75,0.25,95,155.0
3554,C3,357.0,0.25,86,155.0
3555,C3,357.25,0.25,95,155.0
3556,C3,357.5,0.25,95,155.0
3557,C3,357.75,0.25,95,155.0
3558,C3,358.0,0.25,95,155.0
3559,G1,358.0,0.25,95,155.0
3560,C3,358.25,0.25,95,155.0
3561,G1,358.25,0.25,95,155.0
3562,G2,358.5,0.25,86,155.0
3563,G2,358.75,0.25,95,155.0
3564,E3,359.0,21/500,95,155.0
3565,G2,359.0,0.25,95,155.0
3566,G#4,359.0,0.5,95,155.0
3567,G#3,359.0,0.5,95,155.0
3568,G2,359.25,0.25,95,155.0
3569,G2,359.5,0.25,95,155.0
3570,G2,359.75,0.25,95,155.0
3571,C3,360.0,0.25,86,155.0
3572,F1,360.0,0.5,95,155.0
3573,C3,360.25,0.25,95,155.0
3574,E3,360.5,21/500,95,155.0
3575,C3,360.5,0.25,95,155.0
3576,G4,360.5,0.25,95,155.0
3577,G3,360.5,0.25,95,155.0
3578,E3,360.75,21/500,95,155.0
3579,C3,360.75,0.25,95,155.0
3580,G4,360.75,0.25,95,155.0
3581,G3,360.75,0.25,95,155.0
3582,C3,361.0,0.25,95,155.0
3583,C3,361.25,0.25,95,155.0
3584,G2,361.5,0.25,86,155.0
3585,F1,361.5,0.25,95,155.0
3586,G2,361.75,0.25,95,155.0
3587,F1,361.75,0.25,95,155.0
3588,G2,362.0,0.25,95,155.0
3589,F1,362.0,0.5,95,155.0
3590,G2,362.25,0.25,95,155.0
3591,C3,362.5,0.25,95,155.0
3592,C3,362.75,0.25,95,155.0
3593,E3,363.0,21/500,95,155.0
3594,C3,363.0,0.25,95,155.0
3595,C1,363.0,0.5,95,155.0
3596,C#5,363.0,1.0,95,155.0
3597,C#4,363.0,1.0,95,155.0
3598,C3,363.25,0.25,95,155.0
3599,F2,363.5,0.25,95,155.0
3600,F2,363.75,0.25,95,155.0
3601,E3,364.0,21/500,95,155.0
3602,F2,364.0,0.25,95,155.0
3603,C#5,364.0,1.0,95,155.0
3604,C#4,364.0,1.0,95,155.0
3605,F2,364.25,0.25,95,155.0
3606,F2,364.5,0.25,95,155.0
3607,C1,364.5,0.5,95,155.0
3608,F2,364.75,0.25,95,155.0
3609,E3,365.0,21/500,95,155.0
3610,F2,365.0,0.25,95,155.0
3611,C5,365.0,1.0,86,155.0
3612,C4,365.0,1.0,86,155.0
3613,F2,365.25,0.25,95,155.0
3614,F2,365.5,0.25,95,155.0
3615,F2,365.75,0.25,95,155.0
3616,C5,366.0,2.0,95,155.0
3617,F2,366.0,0.25,95,155.0
3618,F2,366.25,0.25,95,155.0
3619,F2,366.5,0.25,95,155.0
3620,F2,366.75,0.25,95,155.0
3621,F2,367.0,0.25,95,155.0
3622,F2,367.25,0.25,95,155.0
3623,C2,367.5,0.25,86,155.0
3624,C2,367.75,0.25,95,155.0
3625,C5,368.0,2.0,95,155.0
3626,C2,368.0,0.25,95,155.0
3627,G1,368.0,1.5,95,155.0
3628,C2,368.25,0.25,95,155.0
3629,C2,368.5,0.25,95,155.0
3630,C2,368.75,0.25,95,155.0
3631,C2,369.0,0.25,95,155.0
3632,C2,369.25,0.25,95,155.0
3633,C2,369.5,0.25,95,155.0
3634,C2,369.5,0.25,95,155.0
3635,C2,369.75,0.25,95,155.0
3636,C2,369.75,0.25,95,155.0
3637,C5,370.0,1.0,95,155.0
3638,C2,370.0,0.25,95,155.0
3639,C2,370.0,0.5,95,155.0
3640,C2,370.25,0.25,95,155.0
3641,C2,370.5,0.25,95,155.0
3642,C2,370.75,0.25,95,155.0
3643,C5,371.0,0.5,95,155.0
3644,C2,371.0,0.25,95,155.0
3645,G1,371.0,0.5,95,155.0
3646,C2,371.25,0.25,95,155.0
3647,C5,371.5,0.5,95,155.0
3648,G2,371.5,0.25,95,155.0
3649,G2,371.75,0.25,95,155.0
3650,E3,372.0,21/500,95,155.0
3651,G2,372.0,0.25,95,155.0
3652,G4,372.0,0.5,90,155.0
3653,G3,372.0,0.5,90,155.0
3654,G2,372.25,0.25,95,155.0
3655,G2,372.5,0.25,95,155.0
3656,C2,372.5,0.5,95,155.0
3657,G2,372.75,0.25,95,155.0
3658,C3,373.0,0.25,86,155.0
3659,C3,373.25,0.25,95,155.0
3660,C3,373.5,0.25,95,155.0
3661,G1,373.5,0.5,95,155.0
3662,C3,373.75,0.25,95,155.0
3663,C3,374.0,0.25,95,155.0
3664,C2,374.0,0.5,95,155.0
3665,C3,374.25,0.25,95,155.0
3666,G2,374.5,0.25,86,155.0
3667,G1,374.5,0.5,95,155.0
3668,G2,374.75,0.25,95,155.0
3669,E3,375.0,21/500,95,155.0
3670,G2,375.0,0.25,95,155.0
3671,C2,375.0,0.5,95,155.0
3672,G#4,375.0,0.5,95,155.0
3673,G#3,375.0,0.5,95,155.0
3674,G2,375.25,0.25,95,155.0
3675,G2,375.5,0.25,95,155.0
3676,G2,375.75,0.25,95,155.0
3677,C3,376.0,0.25,86,155.0
3678,F1,376.0,0.5,95,155.0
3679,C3,376.25,0.25,95,155.0
3680,E3,376.5,21/500,95,155.0
3681,C3,376.5,0.25,95,155.0
3682,F1,376.5,0.5,95,155.0
3683,G4,376.5,0.5,95,155.0
3684,G3,376.5,0.5,95,155.0
3685,C3,376.75,0.25,95,155.0
3686,C3,377.0,0.25,95,155.0
3687,F1,377.0,0.5,95,155.0
3688,C3,377.25,0.25,95,155.0
3689,G2,377.5,0.25,86,155.0
3690,F1,377.5,0.5,95,155.0
3691,G2,377.75,0.25,95,155.0
3692,G2,378.0,0.25,95,155.0
3693,F1,378.0,0.5,95,155.0
3694,G2,378.25,0.25,95,155.0
3695,C3,378.5,0.25,95,155.0
3696,F1,378.5,0.5,95,155.0
3697,C3,378.75,0.25,95,155.0
3698,C3,379.0,0.25,95,155.0
3699,F1,379.0,0.5,95,155.0
3700,C3,379.25,0.25,95,155.0
3701,F2,379.5,0.25,95,155.0
3702,F1,379.5,0.5,95,155.0
3703,F2,379.75,0.25,95,155.0
3704,E3,380.0,21/500,95,155.0
3705,F2,380.0,0.25,95,155.0
3706,C2,380.0,0.5,86,155.0
3707,C5,380.0,0.5,95,155.0
3708,C4,380.0,0.5,95,155.0
3709,F2,380.25,0.25,95,155.0
3710,E3,380.5,21/500,95,155.0
3711,F2,380.5,0.25,95,155.0
3712,C2,380.5,0.5,95,155.0
3713,C5,380.5,0.5,95,155.0
3714,C4,380.5,0.5,95,155.0
3715,F2,380.75,0.25,95,155.0
3716,E3,381.0,21/500,95,155.0
3717,F2,381.0,0.25,95,155.0
3718,C2,381.0,0.5,95,155.0
3719,C5,381.0,0.25,95,155.0
3720,C4,381.0,0.25,95,155.0
3721,E3,381.25,21/500,95,155.0
3722,F2,381.25,0.25,95,155.0
3723,C5,381.25,0.25,95,155.0
3724,C4,381.25,0.25,95,155.0
3725,E3,381.5,21/500,95,155.0
3726,F2,381.5,0.25,95,155.0
3727,C2,381.5,0.5,95,155.0
3728,C5,381.5,0.25,95,155.0
3729,C4,381.5,0.25,95,155.0
3730,E3,381.75,21/500,95,155.0
3731,F2,381.75,0.25,95,155.0
3732,C5,381.75,0.25,95,155.0
3733,C4,381.75,0.25,95,155.0
3734,E3,382.0,21/500,95,155.0
3735,F2,382.0,0.25,95,155.0
3736,C2,382.0,0.5,95,155.0
3737,C5,382.0,0.25,95,155.0
3738,C4,382.0,0.25,95,155.0
3739,E3,382.25,21/500,95,155.0
3740,F2,382.25,0.25,95,155.0
3741,C5,382.25,0.25,95,155.0
3742,C4,382.25,0.25,95,155.0
3743,E3,382.5,21/500,95,155.0
3744,F2,382.5,0.25,95,155.0
3745,C2,382.5,0.5,95,155.0
3746,C5,382.5,0.25,95,155.0
3747,C4,382.5,0.25,95,155.0
3748,E3,382.75,21/500,95,155.0
3749,F2,382.75,0.25,95,155.0
3750,C5,382.75,0.25,95,155.0
3751,C4,382.75,0.25,95,155.0
3752,E3,383.0,21/500,95,155.0
3753,F2,383.0,0.25,95,155.0
3754,C2,383.0,0.5,95,155.0
3755,C5,383.0,0.25,95,155.0
3756,C4,383.0,0.25,95,155.0
3757,E3,383.25,21/500,95,155.0
3758,F2,383.25,0.25,95,155.0
3759,C5,383.25,0.25,95,155.0
3760,C4,383.25,0.25,95,155.0
3761,E3,383.5,21/500,95,155.0
3762,C3,383.5,0.25,86,155.0
3763,C2,383.5,0.5,95,155.0
3764,C5,383.5,0.25,95,155.0
3765,C4,383.5,0.25,95,155.0
3766,E3,383.75,21/500,95,155.0
3767,C3,383.75,0.25,95,155.0
3768,C5,383.75,0.25,95,155.0
3769,C4,383.75,0.25,95,155.0
3770,C3,384.0,0.25,95,155.0
3771,C1,384.0,0.25,95,155.0
3772,B2,384.0,21/500,95,155.0
3773,F#2,384.0,21/500,95,155.0
3774,B1,384.0,21/500,95,155.0
3775,C3,384.25,0.25,95,155.0
3776,C1,384.25,0.25,95,155.0
3777,C3,384.5,0.25,95,155.0
3778,B2,384.5,21/500,95,155.0
3779,F#2,384.5,21/500,95,155.0
3780,B1,384.5,21/500,95,155.0
3781,C3,384.75,0.25,95,155.0
3782,C3,385.0,0.25,95,155.0
3783,C3,385.25,0.25,95,155.0
3784,C3,385.5,0.25,95,155.0
3785,F1,385.5,0.25,95,155.0
3786,B2,385.5,21/500,95,155.0
3787,F#2,385.5,21/500,95,155.0
3788,B1,385.5,21/500,95,155.0
3789,C3,385.75,0.25,95,155.0
3790,F1,385.75,0.25,95,155.0
3791,C3,386.0,0.25,95,155.0
3792,B2,386.0,21/500,95,155.0
3793,F#2,386.0,21/500,95,155.0
3794,B1,386.0,21/500,95,155.0
3795,C3,386.25,0.25,95,155.0
3796,C3,386.5,0.25,95,155.0
3797,B2,386.5,21/500,95,155.0
3798,F#2,386.5,21/500,95,155.0
3799,B1,386.5,21/500,95,155.0
3800,C3,386.75,0.25,95,155.0
3801,C3,387.0,0.25,95,155.0
3802,C1,387.0,0.25,95,155.0
3803,B2,387.0,21/500,95,155.0
3804,F#2,387.0,21/500,95,155.0
3805,B1,387.0,21/500,95,155.0
3806,C3,387.25,0.25,95,155.0
3807,C1,387.25,0.25,95,155.0
3808,B2,387.5,21/500,95,155.0
3809,F#2,387.5,21/500,95,155.0
3810,B1,387.5,21/500,95,155.0
3811,C3,387.5,0.25,95,155.0
3812,G2,387.5,0.25,95,155.0
3813,C2,387.5,0.25,95,155.0
3814,C3,387.75,0.25,95,155.0
3815,G2,387.75,0.25,95,155.0
3816,C2,387.75,0.25,95,155.0
3817,C3,388.0,0.25,95,155.0
3818,G2,388.0,0.25,95,155.0
3819,C2,388.0,0.25,95,155.0
3820,C3,388.25,0.25,95,155.0
3821,G2,388.25,0.25,95,155.0
3822,C2,388.25,0.25,95,155.0
3823,F1,388.5,0.25,95,155.0
3824,B2,388.5,21/500,95,155.0
3825,F#2,388.5,21/500,95,155.0
3826,B1,388.5,21/500,95,155.0
3827,F1,388.75,0.25,95,155.0
3828,F3,389.0,0.25,95,155.0
3829,C3,389.0,0.25,95,155.0
3830,F2,389.0,0.25,95,155.0
3831,F3,389.25,0.25,95,155.0
3832,C3,389.25,0.25,95,155.0
3833,F2,389.25,0.25,95,155.0
3834,F1,389.5,0.5,95,155.0
3835,F3,389.5,0.25,95,155.0
3836,C3,389.5,0.25,95,155.0
3837,F2,389.5,0.25,95,155.0
3838,F3,389.75,0.25,95,155.0
3839,C3,389.75,0.25,95,155.0
3840,F2,389.75,0.25,95,155.0
3841,F1,390.0,0.5,95,155.0
3842,B2,390.0,21/500,95,155.0
3843,F#2,390.0,21/500,95,155.0
3844,B1,390.0,21/500,95,155.0
3845,F1,390.5,0.5,95,155.0
3846,C3,390.5,0.25,95,155.0
3847,G2,390.5,0.25,95,155.0
3848,C2,390.5,0.25,95,155.0
3849,C3,390.75,0.25,95,155.0
3850,G2,390.75,0.25,95,155.0
3851,C2,390.75,0.25,95,155.0
3852,F1,391.0,0.5,95,155.0
3853,C3,391.0,0.25,95,155.0
3854,G2,391.0,0.25,95,155.0
3855,C2,391.0,0.25,95,155.0
3856,C3,391.25,0.25,95,155.0
3857,G2,391.25,0.25,95,155.0
3858,C2,391.25,0.25,95,155.0
3859,F1,391.5,0.5,95,155.0
3860,B2,391.5,21/500,95,155.0
3861,F#2,391.5,21/500,95,155.0
3862,B1,391.5,21/500,95,155.0
3863,F1,392.0,0.5,95,155.0
3864,B2,392.0,21/500,95,155.0
3865,F#2,392.0,21/500,95,155.0
3866,B1,392.0,21/500,95,155.0
3867,F3,392.0,0.25,95,155.0
3868,C3,392.0,0.25,95,155.0
3869,F2,392.0,0.25,95,155.0
3870,F3,392.25,0.25,95,155.0
3871,C3,392.25,0.25,95,155.0
3872,F2,392.25,0.25,95,155.0
3873,F1,392.5,0.5,95,155.0
3874,F3,392.5,0.25,95,155.0
3875,C3,392.5,0.25,95,155.0
3876,F2,392.5,0.25,95,155.0
3877,F3,392.75,0.25,95,155.0
3878,C3,392.75,0.25,95,155.0
3879,F2,392.75,0.25,95,155.0
3880,F1,393.0,0.5,95,155.0
3881,F3,393.0,0.5,95,155.0
3882,C3,393.0,0.5,95,155.0
3883,F2,393.0,0.5,95,155.0
3884,F1,393.5,0.5,95,155.0
3885,F3,393.5,0.5,95,155.0
3886,C3,393.5,0.5,95,155.0
3887,F2,393.5,0.5,95,155.0
3888,F1,394.0,0.5,95,155.0
3889,F3,394.0,0.5,95,155.0
3890,C3,394.0,0.5,95,155.0
3891,F2,394.0,0.5,95,155.0
3892,F3,394.0,0.5,95,155.0
3893,C3,394.0,0.5,95,155.0
3894,F2,394.0,0.5,95,155.0
3895,F1,394.5,0.5,95,155.0
3896,F3,394.5,0.5,95,155.0
3897,C3,394.5,0.5,95,155.0
3898,F2,394.5,0.5,95,155.0
3899,F3,394.5,0.5,95,155.0
3900,C3,394.5,0.5,95,155.0
3901,F2,394.5,0.5,95,155.0
3902,F1,395.0,0.5,95,155.0
3903,F3,395.0,0.5,95,155.0
3904,C3,395.0,0.5,95,155.0
3905,F2,395.0,0.5,95,155.0
3906,F3,395.0,0.5,95,155.0
3907,C3,395.0,0.5,95,155.0
3908,F2,395.0,0.5,95,155.0
3909,F1,395.5,0.5,95,155.0
3910,F3,395.5,0.5,95,155.0
3911,C3,395.5,0.5,95,155.0
3912,F2,395.5,0.5,95,155.0
3913,F3,395.5,0.5,95,155.0
3914,C3,395.5,0.5,95,155.0
3915,F2,395.5,0.5,95,155.0
3916,C1,396.0,0.5,95,155.0
3917,F3,396.0,0.5,95,155.0
3918,C3,396.0,0.5,95,155.0
3919,F2,396.0,0.5,95,155.0
3920,F3,396.0,0.5,95,155.0
3921,C3,396.0,0.5,95,155.0
3922,F2,396.0,0.5,95,155.0
3923,C1,396.5,0.5,95,155.0
3924,F3,396.5,0.5,95,155.0
3925,C3,396.5,0.5,95,155.0
3926,F2,396.5,0.5,95,155.0
3927,F3,396.5,0.5,95,155.0
3928,C3,396.5,0.5,95,155.0
3929,F2,396.5,0.5,95,155.0
3930,B3,397.0,0.5,95,155.0
3931,C1,397.0,0.5,95,155.0
3932,F3,397.0,0.5,95,155.0
3933,C3,397.0,0.5,95,155.0
3934,F2,397.0,0.5,95,155.0
3935,B3,397.5,0.5,95,155.0
3936,C1,397.5,0.5,95,155.0
3937,F3,397.5,0.5,95,155.0
3938,C3,397.5,0.5,95,155.0
3939,F2,397.5,0.5,95,155.0
3940,B3,398.0,0.5,95,155.0
3941,C1,398.0,0.5,95,155.0
3942,F3,398.0,0.5,95,155.0
3943,C3,398.0,0.5,95,155.0
3944,F2,398.0,0.5,95,155.0
3945,B3,398.5,0.5,95,155.0
3946,C1,398.5,0.5,95,155.0
3947,F3,398.5,0.5,95,155.0
3948,C3,398.5,0.5,95,155.0
3949,F2,398.5,0.5,95,155.0
3950,B3,399.0,0.5,95,155.0
3951,C1,399.0,0.5,95,155.0
3952,F3,399.0,0.5,95,155.0
3953,C3,399.0,0.5,95,155.0
3954,F2,399.0,0.5,95,155.0
3955,B3,399.5,0.5,95,155.0
3956,C1,399.5,0.5,95,155.0
3957,C3,399.5,0.5,95,155.0
3958,G2,399.5,0.5,95,155.0
3959,C2,399.5,0.5,95,155.0
3960,G1,400.0,0.5,95,155.0
3961,C3,400.0,0.5,95,155.0
3962,G2,400.0,0.5,95,155.0
3963,C2,400.0,0.5,95,155.0
3964,C3,400.0,0.5,95,155.0
3965,G2,400.0,0.5,95,155.0
3966,C2,400.0,0.5,95,155.0
3967,G1,400.5,1.0,95,155.0
3968,C3,400.5,0.5,95,155.0
3969,G2,400.5,0.5,95,155.0
3970,C2,400.5,0.5,95,155.0
3971,C3,400.5,0.5,95,155.0
3972,G2,400.5,0.5,95,155.0
3973,C2,400.5,0.5,95,155.0
3974,F#3,401.0,0.5,95,155.0
3975,C3,401.0,0.5,95,155.0
3976,G2,401.0,0.5,95,155.0
3977,C2,401.0,0.5,95,155.0
3978,F#3,401.5,0.5,95,155.0
3979,C2,401.5,0.5,95,155.0
3980,C3,401.5,0.5,95,155.0
3981,G2,401.5,0.5,95,155.0
3982,C2,401.5,0.5,95,155.0
3983,F#3,402.0,0.5,95,155.0
3984,C2,402.0,1.0,95,155.0
3985,C3,402.0,0.5,95,155.0
3986,G2,402.0,0.5,95,155.0
3987,C2,402.0,0.5,95,155.0
3988,F#3,402.5,0.5,95,155.0
3989,C3,402.5,0.5,95,155.0
3990,G2,402.5,0.5,95,155.0
3991,C2,402.5,0.5,95,155.0
3992,F#3,403.0,0.5,95,155.0
3993,G1,403.0,0.5,95,155.0
3994,C3,403.0,0.5,95,155.0
3995,G2,403.0,0.5,95,155.0
3996,C2,403.0,0.5,95,155.0
3997,F#3,403.5,0.5,95,155.0
3998,G1,403.5,0.5,95,155.0
3999,G3,403.5,0.5,95,155.0
4000,D3,403.5,0.5,95,155.0
4001,G2,403.5,0.5,95,155.0
4002,B2,404.0,21/500,95,155.0
4003,G1,404.0,0.5,95,155.0
4004,G3,404.0,0.5,95,155.0
4005,G2,404.0,0.5,95,155.0
4006,G3,404.0,1.0,95,155.0
4007,D3,404.0,1.0,95,155.0
4008,G2,404.0,1.0,95,155.0
4009,B2,404.5,21/500,95,155.0
4010,C2,404.5,0.5,95,155.0
4011,G3,404.5,1.0,95,155.0
4012,G2,404.5,1.0,95,155.0
4013,C2,405.0,1.0,95,155.0
4014,C4,405.0,0.5,95,155.0
4015,G3,405.0,0.5,95,155.0
4016,C3,405.0,0.5,95,155.0
4017,B2,405.5,21/500,95,155.0
4018,C4,405.5,0.5,95,155.0
4019,C3,405.5,0.5,95,155.0
4020,C4,405.5,1.0,95,155.0
4021,G3,405.5,1.0,95,155.0
4022,C3,405.5,1.0,95,155.0
4023,B2,406.0,21/500,95,155.0
4024,G1,406.0,1.0,95,155.0
4025,C4,406.0,1.0,95,155.0
4026,C3,406.0,1.0,95,155.0
4027,G3,406.5,0.5,95,155.0
4028,D3,406.5,0.5,95,155.0
4029,G2,406.5,0.5,95,155.0
4030,B2,407.0,21/500,95,155.0
4031,C2,407.0,1.0,95,155.0
4032,G3,407.0,0.5,95,155.0
4033,G2,407.0,0.5,95,155.0
4034,G3,407.0,0.5,95,155.0
4035,D3,407.0,0.5,95,155.0
4036,G2,407.0,0.5,95,155.0
4037,B2,407.5,21/500,95,155.0
4038,G3,407.5,0.5,95,155.0
4039,G2,407.5,0.5,95,155.0
4040,F1,408.0,0.5,95,155.0
4041,G3,408.0,0.5,95,155.0
4042,D3,408.0,0.5,95,155.0
4043,G2,408.0,0.5,95,155.0
4044,F1,408.5,0.5,95,155.0
4045,G3,408.5,0.5,95,155.0
4046,G2,408.5,0.5,95,155.0
4047,C4,408.5,0.5,95,155.0
4048,G3,408.5,0.5,95,155.0
4049,C3,408.5,0.5,95,155.0
4050,B2,409.0,21/500,95,155.0
4051,F1,409.0,0.5,95,155.0
4052,C4,409.0,0.5,95,155.0
4053,C3,409.0,0.5,95,155.0
4054,C4,409.0,1.0,95,155.0
4055,G3,409.0,1.0,95,155.0
4056,C3,409.0,1.0,95,155.0
4057,B2,409.5,21/500,95,155.0
4058,F1,409.5,0.5,95,155.0
4059,C4,409.5,1.0,95,155.0
4060,C3,409.5,1.0,95,155.0
4061,F1,410.0,0.5,95,155.0
4062,G3,410.0,1.0,95,155.0
4063,D3,410.0,1.0,95,155.0
4064,G2,410.0,1.0,95,155.0
4065,B2,410.5,21/500,95,155.0
4066,F1,410.5,0.5,95,155.0
4067,G3,410.5,1.0,95,155.0
4068,G2,410.5,1.0,95,155.0
4069,F1,411.0,0.5,95,155.0
4070,C4,411.0,1.0,95,155.0
4071,G3,411.0,1.0,95,155.0
4072,C3,411.0,1.0,95,155.0
4073,B2,411.5,21/500,95,155.0
4074,F1,411.5,0.5,95,155.0
4075,C4,411.5,1.0,95,155.0
4076,C3,411.5,1.0,95,155.0
4077,C1,412.0,0.5,95,155.0
4078,F3,412.0,0.5,95,155.0
4079,C3,412.0,0.5,95,155.0
4080,F2,412.0,0.5,95,155.0
4081,C1,412.5,0.5,95,155.0
4082,F3,412.5,0.5,95,155.0
4083,C3,412.5,0.5,95,155.0
4084,F2,412.5,0.5,95,155.0
4085,F3,412.5,0.5,95,155.0
4086,C3,412.5,0.5,95,155.0
4087,F2,412.5,0.5,95,155.0
4088,C1,413.0,0.5,95,155.0
4089,F3,413.0,0.5,95,155.0
4090,C3,413.0,0.5,95,155.0
4091,F2,413.0,0.5,95,155.0
4092,F3,413.0,0.5,95,155.0
4093,C3,413.0,0.5,95,155.0
4094,F2,413.0,0.5,95,155.0
4095,B3,413.5,0.5,95,155.0
4096,C1,413.5,0.5,95,155.0
4097,F3,413.5,0.5,95,155.0
4098,C3,413.5,0.5,95,155.0
4099,F2,413.5,0.5,95,155.0
4100,B3,414.0,0.5,95,155.0
4101,C1,414.0,0.5,95,155.0
4102,F3,414.0,0.5,95,155.0
4103,C3,414.0,0.5,95,155.0
4104,F2,414.0,0.5,95,155.0
4105,B3,414.5,0.5,95,155.0
4106,C1,414.5,0.5,95,155.0
4107,F3,414.5,0.5,95,155.0
4108,C3,414.5,0.5,95,155.0
4109,F2,414.5,0.5,95,155.0
4110,B3,415.0,0.5,95,155.0
4111,C1,415.0,0.5,95,155.0
4112,F3,415.0,0.5,95,155.0
4113,C3,415.0,0.5,95,155.0
4114,F2,415.0,0.5,95,155.0
4115,B3,415.5,0.5,95,155.0
4116,C1,415.5,0.5,95,155.0
4117,F3,415.5,0.5,95,155.0
4118,C3,415.5,0.5,95,155.0
4119,F2,415.5,0.5,95,155.0
4120,B3,416.0,0.5,95,155.0
4121,G1,416.0,0.5,95,155.0
4122,C3,416.0,0.5,95,155.0
4123,G2,416.0,0.5,95,155.0
4124,C2,416.0,0.5,95,155.0
4125,G1,416.5,1.0,95,155.0
4126,C3,416.5,0.5,95,155.0
4127,G2,416.5,0.5,95,155.0
4128,C2,416.5,0.5,95,155.0
4129,C3,416.5,0.5,95,155.0
4130,G2,416.5,0.5,95,155.0
4131,C2,416.5,0.5,95,155.0
4132,C3,417.0,0.5,95,155.0
4133,G2,417.0,0.5,95,155.0
4134,C2,417.0,0.5,95,155.0
4135,C3,417.0,0.5,95,155.0
4136,G2,417.0,0.5,95,155.0
4137,C2,417.0,0.5,95,155.0
4138,F#3,417.5,0.5,95,155.0
4139,C2,417.5,0.5,95,155.0
4140,C3,417.5,0.5,95,155.0
4141,G2,417.5,0.5,95,155.0
4142,C2,417.5,0.5,95,155.0
4143,F#3,418.0,0.5,95,155.0
4144,C2,418.0,1.0,95,155.0
4145,C3,418.0,0.5,95,155.0
4146,G2,418.0,0.5,95,155.0
4147,C2,418.0,0.5,95,155.0
4148,F#3,418.5,0.5,95,155.0
4149,C3,418.5,0.5,95,155.0
4150,G2,418.5,0.5,95,155.0
4151,C2,418.5,0.5,95,155.0
4152,F#3,419.0,0.5,95,155.0
4153,G1,419.0,0.5,95,155.0
4154,C3,419.0,0.5,95,155.0
4155,G2,419.0,0.5,95,155.0
4156,C2,419.0,0.5,95,155.0
4157,F#3,419.5,0.5,95,155.0
4158,G1,419.5,0.5,95,155.0
4159,C3,419.5,0.5,95,155.0
4160,G2,419.5,0.5,95,155.0
4161,C2,419.5,0.5,95,155.0
4162,F#3,420.0,0.5,95,155.0
4163,G1,420.0,0.5,95,155.0
4164,G3,420.0,0.5,95,155.0
4165,D3,420.0,0.5,95,155.0
4166,G2,420.0,0.5,95,155.0
4167,B2,420.5,21/500,95,155.0
4168,C2,420.5,0.5,95,155.0
4169,G3,420.5,0.5,95,155.0
4170,G2,420.5,0.5,95,155.0
4171,G3,420.5,1.0,95,155.0
4172,D3,420.5,1.0,95,155.0
4173,G2,420.5,1.0,95,155.0
4174,B2,421.0,21/500,95,155.0
4175,C2,421.0,1.0,95,155.0
4176,G3,421.0,1.0,95,155.0
4177,G2,421.0,1.0,95,155.0
4178,C4,421.5,0.5,95,155.0
4179,G3,421.5,0.5,95,155.0
4180,C3,421.5,0.5,95,155.0
4181,B2,422.0,21/500,95,155.0
4182,G1,422.0,1.0,95,155.0
4183,C4,422.0,0.5,95,155.0
4184,C3,422.0,0.5,95,155.0
4185,C4,422.0,1.0,95,155.0
4186,G3,422.0,1.0,95,155.0
4187,C3,422.0,1.0,95,155.0
4188,B2,422.5,21/500,95,155.0
4189,C4,422.5,1.0,95,155.0
4190,C3,422.5,1.0,95,155.0
4191,C2,423.0,1.0,95,155.0
4192,G3,423.0,0.5,95,155.0
4193,D3,423.0,0.5,95,155.0
4194,G2,423.0,0.5,95,155.0
4195,B2,423.5,21/500,95,155.0
4196,G3,423.5,0.5,95,155.0
4197,G2,423.5,0.5,95,155.0
4198,G3,423.5,0.5,95,155.0
4199,D3,423.5,0.5,95,155.0
4200,G2,423.5,0.5,95,155.0
4201,B2,424.0,21/500,95,155.0
4202,F1,424.0,0.5,95,155.0
4203,G3,424.0,0.5,95,155.0
4204,G2,424.0,0.5,95,155.0
4205,F1,424.5,0.5,95,155.0
4206,G3,424.5,0.5,95,155.0
4207,D3,424.5,0.5,95,155.0
4208,G2,424.5,0.5,95,155.0
4209,F1,425.0,0.5,95,155.0
4210,G3,425.0,0.5,95,155.0
4211,G2,425.0,0.5,95,155.0
4212,C4,425.0,0.5,95,155.0
4213,G3,425.0,0.5,95,155.0
4214,C3,425.0,0.5,95,155.0
4215,B2,425.5,21/500,95,155.0
4216,F1,425.5,0.5,95,155.0
4217,C4,425.5,0.5,95,155.0
4218,C3,425.5,0.5,95,155.0
4219,C4,425.5,1.0,95,155.0
4220,G3,425.5,1.0,95,155.0
4221,C3,425.5,1.0,95,155.0
4222,B2,426.0,21/500,95,155.0
4223,F1,426.0,0.5,95,155.0
4224,C4,426.0,1.0,95,155.0
4225,C3,426.0,1.0,95,155.0
4226,F1,426.5,0.5,95,155.0
4227,G3,426.5,1.0,95,155.0
4228,D3,426.5,1.0,95,155.0
4229,G2,426.5,1.0,95,155.0
4230,B2,427.0,21/500,95,155.0
4231,F1,427.0,0.5,95,155.0
4232,G3,427.0,1.0,95,155.0
4233,G2,427.0,1.0,95,155.0
4234,F1,427.5,0.5,95,155.0
4235,C4,427.5,1.0,95,155.0
4236,G3,427.5,1.0,95,155.0
4237,C3,427.5,1.0,95,155.0
4238,B2,428.0,21/500,95,155.0
4239,C1,428.0,0.5,95,155.0
4240,C4,428.0,1.0,95,155.0
4241,C3,428.0,1.0,95,155.0
4242,C1,428.5,0.5,95,155.0
4243,F3,428.5,0.5,95,155.0
4244,C3,428.5,0.5,95,155.0
4245,F2,428.5,0.5,95,155.0
4246,C1,429.0,0.5,95,155.0
4247,F3,429.0,0.5,95,155.0
4248,C3,429.0,0.5,95,155.0
4249,F2,429.0,0.5,95,155.0
4250,F3,429.0,0.5,95,155.0
4251,C3,429.0,0.5,95,155.0
4252,F2,429.0,0.5,95,155.0
4253,C1,429.5,0.5,95,155.0
4254,F3,429.5,0.5,95,155.0
4255,C3,429.5,0.5,95,155.0
4256,F2,429.5,0.5,95,155.0
4257,F3,429.5,0.5,95,155.0
4258,C3,429.5,0.5,95,155.0
4259,F2,429.5,0.5,95,155.0
4260,B3,430.0,0.5,95,155.0
4261,C1,430.0,0.5,95,155.0
4262,F3,430.0,0.5,95,155.0
4263,C3,430.0,0.5,95,155.0
4264,F2,430.0,0.5,95,155.0
4265,B3,430.5,0.5,95,155.0
4266,C1,430.5,0.5,95,155.0
4267,F3,430.5,0.5,95,155.0
4268,C3,430.5,0.5,95,155.0
4269,F2,430.5,0.5,95,155.0
4270,B3,431.0,0.5,95,155.0
4271,C1,431.0,0.5,95,155.0
4272,F3,431.0,0.5,95,155.0
4273,C3,431.0,0.5,95,155.0
4274,F2,431.0,0.5,95,155.0
4275,B3,431.5,0.5,95,155.0
4276,C1,431.5,0.5,95,155.0
4277,F3,431.5,0.5,95,155.0
4278,C3,431.5,0.5,95,155.0
4279,F2,431.5,0.5,95,155.0
4280,B3,432.0,0.5,95,155.0
4281,G1,432.0,0.5,95,155.0
4282,F3,432.0,0.5,95,155.0
4283,C3,432.0,0.5,95,155.0
4284,F2,432.0,0.5,95,155.0
4285,B3,432.5,0.5,95,155.0
4286,G1,432.5,1.0,95,155.0
4287,C3,432.5,0.5,95,155.0
4288,G2,432.5,0.5,95,155.0
4289,C2,432.5,0.5,95,155.0
4290,C3,433.0,0.5,95,155.0
4291,G2,433.0,0.5,95,155.0
4292,C2,433.0,0.5,95,155.0
4293,C3,433.0,0.5,95,155.0
4294,G2,433.0,0.5,95,155.0
4295,C2,433.0,0.5,95,155.0
4296,C2,433.5,0.5,95,155.0
4297,C3,433.5,0.5,95,155.0
4298,G2,433.5,0.5,95,155.0
4299,C2,433.5,0.5,95,155.0
4300,C3,433.5,0.5,95,155.0
4301,G2,433.5,0.5,95,155.0
4302,C2,433.5,0.5,95,155.0
4303,F#3,434.0,0.5,95,155.0
4304,C2,434.0,1.0,95,155.0
4305,C3,434.0,0.5,95,155.0
4306,G2,434.0,0.5,95,155.0
4307,C2,434.0,0.5,95,155.0
4308,F#3,434.5,0.5,95,155.0
4309,C3,434.5,0.5,95,155.0
4310,G2,434.5,0.5,95,155.0
4311,C2,434.5,0.5,95,155.0
4312,F#3,435.0,0.5,95,155.0
4313,G1,435.0,0.5,95,155.0
4314,C3,435.0,0.5,95,155.0
4315,G2,435.0,0.5,95,155.0
4316,C2,435.0,0.5,95,155.0
4317,F#3,435.5,0.5,95,155.0
4318,G1,435.5,0.5,95,155.0
4319,C3,435.5,0.5,95,155.0
4320,G2,435.5,0.5,95,155.0
4321,C2,435.5,0.5,95,155.0
4322,F#3,436.0,0.5,95,155.0
4323,G1,436.0,0.5,95,155.0
4324,C3,436.0,0.5,95,155.0
4325,G2,436.0,0.5,95,155.0
4326,C2,436.0,0.5,95,155.0
4327,F#3,436.5,0.5,95,155.0
4328,C2,436.5,0.5,95,155.0
4329,G3,436.5,0.5,95,155.0
4330,D3,436.5,0.5,95,155.0
4331,G2,436.5,0.5,95,155.0
4332,B2,437.0,21/500,95,155.0
4333,C2,437.0,1.0,95,155.0
4334,G3,437.0,0.5,95,155.0
4335,G2,437.0,0.5,95,155.0
4336,G3,437.0,1.0,95,155.0
4337,D3,437.0,1.0,95,155.0
4338,G2,437.0,1.0,95,155.0
4339,B2,437.5,21/500,95,155.0
4340,G3,437.5,1.0,95,155.0
4341,G2,437.5,1.0,95,155.0
4342,G1,438.0,1.0,95,155.0
4343,C4,438.0,0.5,95,155.0
4344,G3,438.0,0.5,95,155.0
4345,C3,438.0,0.5,95,155.0
4346,B2,438.5,21/500,95,155.0
4347,C4,438.5,0.5,95,155.0
4348,C3,438.5,0.5,95,155.0
4349,C4,438.5,1.0,95,155.0
4350,G3,438.5,1.0,95,155.0
4351,C3,438.5,1.0,95,155.0
4352,B2,439.0,21/500,95,155.0
4353,C2,439.0,1.0,95,155.0
4354,C4,439.0,1.0,95,155.0
4355,C3,439.0,1.0,95,155.0
4356,G3,439.5,0.5,95,155.0
4357,D3,439.5,0.5,95,155.0
4358,G2,439.5,0.5,95,155.0
4359,B2,440.0,21/500,95,155.0
4360,F1,440.0,0.5,95,155.0
4361,G3,440.0,0.5,95,155.0
4362,G2,440.0,0.5,95,155.0
4363,G3,440.0,0.5,95,155.0
4364,D3,440.0,0.5,95,155.0
4365,G2,440.0,0.5,95,155.0
4366,B2,440.5,21/500,95,155.0
4367,F1,440.5,0.5,95,155.0
4368,G3,440.5,0.5,95,155.0
4369,G2,440.5,0.5,95,155.0
4370,F1,441.0,0.5,95,155.0
4371,G3,441.0,0.5,95,155.0
4372,D3,441.0,0.5,95,155.0
4373,G2,441.0,0.5,95,155.0
4374,F1,441.5,0.5,95,155.0
4375,G3,441.5,0.5,95,155.0
4376,G2,441.5,0.5,95,155.0
4377,C4,441.5,0.5,95,155.0
4378,G3,441.5,0.5,95,155.0
4379,C3,441.5,0.5,95,155.0
4380,B2,442.0,21/500,95,155.0
4381,F1,442.0,0.5,95,155.0
4382,C4,442.0,0.5,95,155.0
4383,C3,442.0,0.5,95,155.0
4384,C4,442.0,1.0,95,155.0
4385,G3,442.0,1.0,95,155.0
4386,C3,442.0,1.0,95,155.0
4387,B2,442.5,21/500,95,155.0
4388,F1,442.5,0.5,95,155.0
4389,C4,442.5,1.0,95,155.0
4390,C3,442.5,1.0,95,155.0
4391,F1,443.0,0.5,95,155.0
4392,G3,443.0,1.0,95,155.0
4393,D3,443.0,1.0,95,155.0
4394,G2,443.0,1.0,95,155.0
4395,B2,443.5,21/500,95,155.0
4396,F1,443.5,0.5,95,155.0
4397,G3,443.5,1.0,95,155.0
4398,G2,443.5,1.0,95,155.0
4399,C1,444.0,0.5,95,155.0
4400,C4,444.0,1.0,95,155.0
4401,G3,444.0,1.0,95,155.0
4402,C3,444.0,1.0,95,155.0
4403,B2,444.5,21/500,95,155.0
4404,C1,444.5,0.5,95,155.0
4405,C4,444.5,1.0,95,155.0
4406,C3,444.5,1.0,95,155.0
4407,C1,445.0,0.5,95,155.0
4408,F3,445.0,0.5,95,155.0
4409,C3,445.0,0.5,95,155.0
4410,F2,445.0,0.5,95,155.0
4411,C1,445.5,0.5,95,155.0
4412,F3,445.5,0.5,95,155.0
4413,C3,445.5,0.5,95,155.0
4414,F2,445.5,0.5,95,155.0
4415,F3,445.5,0.5,95,155.0
4416,C3,445.5,0.5,95,155.0
4417,F2,445.5,0.5,95,155.0
4418,C1,446.0,0.5,95,155.0
4419,F3,446.0,0.5,95,155.0
4420,C3,446.0,0.5,95,155.0
4421,F2,446.0,0.5,95,155.0
4422,F3,446.0,0.5,95,155.0
4423,C3,446.0,0.5,95,155.0
4424,F2,446.0,0.5,95,155.0
4425,B3,446.5,0.5,95,155.0
4426,C1,446.5,0.5,95,155.0
4427,F3,446.5,0.5,95,155.0
4428,C3,446.5,0.5,95,155.0
4429,F2,446.5,0.5,95,155.0
4430,B3,447.0,0.5,95,155.0
4431,C1,447.0,0.5,95,155.0
4432,F3,447.0,0.5,95,155.0
4433,C3,447.0,0.5,95,155.0
4434,F2,447.0,0.5,95,155.0
4435,B3,447.5,0.5,95,155.0
4436,C1,447.5,0.5,95,155.0
4437,F3,447.5,0.5,95,155.0
4438,C3,447.5,0.5,95,155.0
4439,F2,447.5,0.5,95,155.0
4440,B3,448.0,0.5,95,155.0
4441,G1,448.0,0.5,95,155.0
4442,F3,448.0,0.5,95,155.0
4443,C3,448.0,0.5,95,155.0
4444,F2,448.0,0.5,95,155.0
4445,B3,448.5,0.5,95,155.0
4446,F#1,448.5,0.5,86,155.0
4447,F3,448.5,0.5,95,155.0
4448,C3,448.5,0.5,95,155.0
4449,F2,448.5,0.5,95,155.0
4450,B3,449.0,0.5,95,155.0
4451,F#1,449.0,0.5,95,155.0
4452,C3,449.0,0.5,95,155.0
4453,G2,449.0,0.5,95,155.0
4454,C2,449.0,0.5,95,155.0
4455,C#1,449.5,0.5,95,155.0
4456,C3,449.5,0.5,95,155.0
4457,G2,449.5,0.5,95,155.0
4458,C2,449.5,0.5,95,155.0
4459,C3,449.5,0.5,95,155.0
4460,G2,449.5,0.5,95,155.0
4461,C2,449.5,0.5,95,155.0
4462,C#1,450.0,0.5,95,155.0
4463,C3,450.0,0.5,95,155.0
4464,G2,450.0,0.5,95,155.0
4465,C2,450.0,0.5,95,155.0
4466,C3,450.0,0.5,95,155.0
4467,G2,450.0,0.5,95,155.0
4468,C2,450.0,0.5,95,155.0
4469,F#3,450.5,0.5,95,155.0
4470,C1,450.5,0.5,86,155.0
4471,C3,450.5,0.5,95,155.0
4472,G2,450.5,0.5,95,155.0
4473,C2,450.5,0.5,95,155.0
4474,F#3,451.0,0.5,95,155.0
4475,G1,451.0,0.5,95,155.0
4476,C3,451.0,0.5,95,155.0
4477,G2,451.0,0.5,95,155.0
4478,C2,451.0,0.5,95,155.0
4479,F#3,451.5,0.5,95,155.0
4480,C2,451.5,0.5,86,155.0
4481,C3,451.5,0.5,95,155.0
4482,G2,451.5,0.5,95,155.0
4483,C2,451.5,0.5,95,155.0
4484,F#3,452.0,0.5,95,155.0
4485,C2,452.0,0.5,95,155.0
4486,C3,452.0,0.5,95,155.0
4487,G2,452.0,0.5,95,155.0
4488,C2,452.0,0.5,95,155.0
4489,F#3,452.5,0.5,95,155.0
4490,B0,452.5,0.5,95,155.0
4491,C3,452.5,0.5,95,155.0
4492,G2,452.5,0.5,95,155.0
4493,C2,452.5,0.5,95,155.0
4494,F#3,453.0,0.5,95,155.0
4495,G2,453.0,0.5,95,155.0
4496,B0,453.0,0.5,95,155.0
4497,G2,453.5,0.5,95,155.0
4498,F#2,453.5,0.5,86,155.0
4499,G1,453.5,0.5,95,155.0
4500,F#2,454.0,0.5,86,155.0
4501,F#2,454.0,0.5,95,155.0
4502,C#1,454.0,0.5,95,155.0
4503,F#2,454.5,0.5,95,155.0
4504,C#2,454.5,0.5,95,155.0
4505,C1,454.5,0.5,95,155.0
4506,C#2,455.0,0.5,95,155.0
4507,C#2,455.0,0.5,95,155.0
4508,C1,455.0,0.5,95,155.0
4509,C#2,455.5,0.5,95,155.0
4510,C2,455.5,0.5,86,155.0
4511,F1,455.5,0.5,86,155.0
4512,C2,456.0,0.5,86,155.0
4513,G2,456.0,0.5,95,155.0
4514,F1,456.0,0.5,95,155.0
4515,G2,456.5,0.5,95,155.0
4516,C3,456.5,0.5,86,155.0
4517,B0,456.5,0.5,95,155.0
4518,C3,457.0,0.5,86,155.0
4519,C3,457.0,0.5,95,155.0
4520,B0,457.0,0.5,95,155.0
4521,C3,457.5,0.5,95,155.0
4522,B1,457.5,0.5,95,155.0
4523,G1,457.5,0.5,95,155.0
4524,B1,458.0,0.5,95,155.0
4525,B1,458.0,0.5,95,155.0
4526,G1,458.0,0.5,95,155.0
4527,B1,458.5,0.5,95,155.0
4528,G2,458.5,0.5,95,155.0
4529,B0,458.5,0.5,95,155.0
4530,G2,459.0,0.5,95,155.0
4531,C#2,459.0,0.5,95,155.0
4532,G1,459.0,0.5,95,155.0
4533,C#2,459.5,0.5,95,155.0
4534,C2,459.5,0.5,95,155.0
4535,C2,459.5,0.5,86,155.0
4536,C2,460.0,0.5,95,155.0
4537,C2,460.0,0.5,95,155.0
4538,C2,460.0,0.5,95,155.0
4539,C2,460.5,0.5,95,155.0
4540,F2,460.5,0.5,86,155.0
4541,B0,460.5,0.5,95,155.0
4542,F2,461.0,0.5,86,155.0
4543,F2,461.0,0.5,95,155.0
4544,B0,461.0,0.5,95,155.0
4545,F2,461.5,0.5,95,155.0
4546,B1,461.5,0.5,95,155.0
4547,G1,461.5,0.5,95,155.0
4548,B1,462.0,0.5,95,155.0
4549,B1,462.0,0.5,95,155.0
4550,C#1,462.0,0.5,95,155.0
4551,B1,462.5,0.5,95,155.0
4552,G2,462.5,0.5,95,155.0
4553,C1,462.5,0.5,95,155.0
4554,G2,463.0,0.5,95,155.0
4555,G2,463.0,0.5,95,155.0
4556,C1,463.0,0.5,95,155.0
4557,G2,463.5,0.5,95,155.0
4558,B1,463.5,0.5,95,155.0
4559,F1,463.5,0.5,86,155.0
4560,B1,464.0,0.5,95,155.0
4561,G2,464.0,0.5,95,155.0
4562,F1,464.0,0.5,95,155.0
4563,G2,464.5,0.5,95,155.0
4564,C3,464.5,0.5,86,155.0
4565,B0,464.5,0.5,95,155.0
4566,C3,465.0,0.5,86,155.0
4567,C3,465.0,0.5,95,155.0
4568,B0,465.0,0.5,95,155.0
4569,C3,465.5,0.5,95,155.0
4570,B1,465.5,0.5,95,155.0
4571,G1,465.5,0.5,95,155.0
4572,B1,466.0,0.5,95,155.0
4573,B1,466.0,0.5,95,155.0
4574,G1,466.0,0.5,95,155.0
4575,B1,466.5,0.5,95,155.0
4576,G2,466.5,0.5,95,155.0
4577,B0,466.5,0.5,95,155.0
4578,G2,467.0,0.5,95,155.0
4579,C#2,467.0,0.5,95,155.0
4580,G1,467.0,0.5,95,155.0
4581,C#2,467.5,0.5,95,155.0
4582,C2,467.5,0.5,95,155.0
4583,C2,467.5,0.5,86,155.0
4584,C2,468.0,0.5,95,155.0
4585,C2,468.0,0.5,95,155.0
4586,C2,468.0,0.5,95,155.0
4587,C2,468.5,0.5,95,155.0
4588,F2,468.5,0.5,86,155.0
4589,B0,468.5,0.5,95,155.0
4590,F2,469.0,0.5,86,155.0
4591,F2,469.0,0.5,95,155.0
4592,B0,469.0,0.5,95,155.0
4593,F2,469.5,0.5,95,155.0
4594,B1,469.5,0.5,95,155.0
4595,G1,469.5,0.5,95,155.0
4596,B1,470.0,0.5,95,155.0
4597,B1,470.0,0.5,95,155.0
4598,C#1,470.0,0.5,95,155.0
4599,B1,470.5,0.5,95,155.0
4600,G2,470.5,0.5,95,155.0
4601,C1,470.5,0.5,95,155.0
4602,G2,471.0,0.5,95,155.0
4603,G2,471.0,0.5,95,155.0
4604,C1,471.0,0.5,95,155.0
4605,G2,471.5,0.5,95,155.0
4606,B1,471.5,0.5,95,155.0
4607,F1,471.5,0.5,86,155.0
4608,B1,472.0,0.5,95,155.0
4609,G2,472.0,0.5,95,155.0
4610,F1,472.0,0.5,95,155.0
4611,G2,472.5,0.5,95,155.0
4612,C3,472.5,0.5,86,155.0
4613,B0,472.5,0.5,95,155.0
4614,C3,473.0,0.5,86,155.0
4615,C3,473.0,0.5,95,155.0
4616,B0,473.0,0.5,95,155.0
4617,C3,473.5,0.5,95,155.0
4618,B1,473.5,0.5,95,155.0
4619,G1,473.5,0.5,95,155.0
4620,B1,474.0,0.5,95,155.0
4621,B1,474.0,0.5,95,155.0
4622,G1,474.0,0.5,95,155.0
4623,B1,474.5,0.5,95,155.0
4624,G2,474.5,0.5,95,155.0
4625,B0,474.5,0.5,95,155.0
4626,G2,475.0,0.5,95,155.0
4627,C#2,475.0,0.5,95,155.0
4628,G1,475.0,0.5,95,155.0
4629,C#2,475.5,0.5,95,155.0
4630,C2,475.5,0.5,95,155.0
4631,C2,475.5,0.5,86,155.0
4632,C2,476.0,0.5,95,155.0
4633,C2,476.0,0.5,95,155.0
4634,C2,476.0,0.5,95,155.0
4635,C2,476.5,0.5,95,155.0
4636,F2,476.5,0.5,86,155.0
4637,C2,476.5,0.5,95,155.0
4638,F2,477.0,0.5,86,155.0
4639,F2,477.0,0.5,95,155.0
4640,C2,477.0,0.5,95,155.0
4641,F2,477.5,0.5,95,155.0
4642,B1,477.5,0.5,95,155.0
4643,C2,477.5,0.5,95,155.0
4644,B1,478.0,0.5,95,155.0
4645,B1,478.0,0.5,95,155.0
4646,C2,478.0,0.25,95,155.0
4647,C2,478.25,0.25,95,155.0
4648,B1,478.5,0.5,95,155.0
4649,G2,478.5,0.5,95,155.0
4650,C2,478.5,0.25,95,155.0
4651,C2,478.75,0.25,95,155.0
4652,G2,479.0,0.5,95,155.0
4653,G2,479.0,0.5,95,155.0
4654,C2,479.0,0.25,95,155.0
4655,C2,479.25,0.25,95,155.0
4656,G2,479.5,0.5,95,155.0
4657,B1,479.5,0.5,95,155.0
4658,C2,479.5,0.25,95,155.0
4659,C2,479.75,0.25,95,155.0
4660,B1,480.0,0.5,95,155.0
4661,G2,480.0,0.5,95,155.0
4662,F1,480.0,0.5,95,155.0
4663,G2,480.5,0.5,95,155.0
4664,C3,480.5,0.5,86,155.0
4665,B0,480.5,0.5,95,155.0
4666,C3,481.0,0.5,86,155.0
4667,B0,481.0,0.5,95,155.0
4668,C4,481.0,0.5,95,155.0
4669,G3,481.0,0.5,95,155.0
4670,C3,481.0,0.5,95,155.0
4671,G1,481.5,0.5,95,155.0
4672,C4,481.5,0.5,95,155.0
4673,G3,481.5,0.5,95,155.0
4674,C3,481.5,0.5,95,155.0
4675,C4,481.5,0.5,95,155.0
4676,G3,481.5,0.5,95,155.0
4677,C3,481.5,0.5,95,155.0
4678,G1,482.0,0.5,95,155.0
4679,C4,482.0,0.5,95,155.0
4680,G3,482.0,0.5,95,155.0
4681,C3,482.0,0.5,95,155.0
4682,C4,482.0,0.5,95,155.0
4683,G3,482.0,0.5,95,155.0
4684,C3,482.0,0.5,95,155.0
4685,B0,482.5,0.5,95,155.0
4686,C4,482.5,0.5,95,155.0
4687,G3,482.5,0.5,95,155.0
4688,C3,482.5,0.5,95,155.0
4689,C4,482.5,0.5,95,155.0
4690,G3,482.5,0.5,95,155.0
4691,C3,482.5,0.5,95,155.0
4692,G1,483.0,0.5,95,155.0
4693,C4,483.0,0.5,95,155.0
4694,G3,483.0,0.5,95,155.0
4695,C3,483.0,0.5,95,155.0
4696,C4,483.0,0.25,95,155.0
4697,G3,483.0,0.25,95,155.0
4698,C3,483.0,0.25,95,155.0
4699,C4,483.25,0.25,95,155.0
4700,G3,483.25,0.25,95,155.0
4701,C3,483.25,0.25,95,155.0
4702,C2,483.5,0.5,86,155.0
4703,C4,483.5,0.25,95,155.0
4704,G3,483.5,0.25,95,155.0
4705,C3,483.5,0.25,95,155.0
4706,C4,483.5,0.25,95,155.0
4707,G3,483.5,0.25,95,155.0
4708,C3,483.5,0.25,95,155.0
4709,C4,483.75,0.25,95,155.0
4710,G3,483.75,0.25,95,155.0
4711,C3,483.75,0.25,95,155.0
4712,C4,483.75,0.25,95,155.0
4713,G3,483.75,0.25,95,155.0
4714,C3,483.75,0.25,95,155.0
4715,C2,484.0,0.5,95,155.0
4716,C4,484.0,0.25,95,155.0
4717,G3,484.0,0.25,95,155.0
4718,C3,484.0,0.25,95,155.0
4719,C4,484.0,0.25,95,155.0
4720,G3,484.0,0.25,95,155.0
4721,C3,484.0,0.25,95,155.0
4722,C4,484.25,0.25,95,155.0
4723,G3,484.25,0.25,95,155.0
4724,C3,484.25,0.25,95,155.0
4725,C4,484.25,0.25,95,155.0
4726,G3,484.25,0.25,95,155.0
4727,C3,484.25,0.25,95,155.0
4728,B0,484.5,0.5,95,155.0
4729,C4,484.5,0.25,95,155.0
4730,G3,484.5,0.25,95,155.0
4731,C3,484.5,0.25,95,155.0
4732,C4,484.5,0.25,95,155.0
4733,G3,484.5,0.25,95,155.0
4734,C3,484.5,0.25,95,155.0
4735,C4,484.75,0.25,95,155.0
4736,G3,484.75,0.25,95,155.0
4737,C3,484.75,0.25,95,155.0
4738,C4,484.75,0.25,95,155.0
4739,G3,484.75,0.25,95,155.0
4740,C3,484.75,0.25,95,155.0
4741,F2,485.0,0.5,95,155.0
4742,B0,485.0,0.5,95,155.0
4743,C4,485.0,0.25,95,155.0
4744,G3,485.0,0.25,95,155.0
4745,C3,485.0,0.25,95,155.0
4746,C4,485.25,0.25,95,155.0
4747,G3,485.25,0.25,95,155.0
4748,C3,485.25,0.25,95,155.0
4749,F2,485.5,0.5,95,155.0
4750,B1,485.5,0.5,95,155.0
4751,G1,485.5,0.5,95,155.0
4752,B1,486.0,0.5,95,155.0
4753,B1,486.0,0.5,95,155.0
4754,C#1,486.0,0.5,95,155.0
4755,B1,486.5,0.5,95,155.0
4756,G2,486.5,0.5,95,155.0
4757,C1,486.5,0.5,95,155.0
4758,G2,487.0,0.5,95,155.0
4759,G2,487.0,0.5,95,155.0
4760,C1,487.0,0.5,95,155.0
4761,G2,487.5,0.5,95,155.0
4762,B1,487.5,0.5,95,155.0
4763,F1,487.5,0.5,86,155.0
4764,B1,488.0,0.5,95,155.0
4765,G2,488.0,0.5,95,155.0
4766,F1,488.0,0.5,95,155.0
4767,G2,488.5,0.5,95,155.0
4768,C3,488.5,0.5,86,155.0
4769,B0,488.5,0.5,95,155.0
4770,C3,489.0,0.5,86,155.0
4771,C3,489.0,0.5,95,155.0
4772,B0,489.0,0.5,95,155.0
4773,C3,489.5,0.5,95,155.0
4774,B1,489.5,0.5,95,155.0
4775,G1,489.5,0.5,95,155.0
4776,B1,490.0,0.5,95,155.0
4777,B1,490.0,0.5,95,155.0
4778,G1,490.0,0.5,95,155.0
4779,B1,490.5,0.5,95,155.0
4780,G2,490.5,0.5,95,155.0
4781,B0,490.5,0.5,95,155.0
4782,G2,491.0,0.5,95,155.0
4783,C#2,491.0,0.5,95,155.0
4784,G1,491.0,0.5,95,155.0
4785,C#2,491.5,0.5,95,155.0
4786,C2,491.5,0.5,95,155.0
4787,C2,491.5,0.5,86,155.0
4788,C2,492.0,0.5,95,155.0
4789,C2,492.0,0.5,95,155.0
4790,C2,492.0,0.5,95,155.0
4791,C2,492.5,0.5,95,155.0
4792,F2,492.5,0.5,86,155.0
4793,B0,492.5,0.5,95,155.0
4794,F2,493.0,0.5,86,155.0
4795,F2,493.0,0.5,95,155.0
4796,B0,493.0,0.5,95,155.0
4797,F2,493.5,0.5,95,155.0
4798,B1,493.5,0.5,95,155.0
4799,G1,493.5,0.5,95,155.0
4800,B1,494.0,0.5,95,155.0
4801,B1,494.0,0.5,95,155.0
4802,C#1,494.0,0.5,95,155.0
4803,B1,494.5,0.5,95,155.0
4804,G2,494.5,0.5,95,155.0
4805,C1,494.5,0.5,95,155.0
4806,G2,495.0,0.5,95,155.0
4807,G2,495.0,0.5,95,155.0
4808,C1,495.0,0.5,95,155.0
4809,G2,495.5,0.5,95,155.0
4810,B1,495.5,0.5,95,155.0
4811,F1,495.5,0.5,86,155.0
4812,B1,496.0,0.5,95,155.0
4813,G2,496.0,0.5,95,155.0
4814,F1,496.0,0.5,95,155.0
4815,G2,496.5,0.5,95,155.0
4816,C3,496.5,0.5,86,155.0
4817,B0,496.5,0.5,95,155.0
4818,C3,497.0,0.5,86,155.0
4819,C3,497.0,0.5,95,155.0
4820,B0,497.0,0.5,95,155.0
4821,C3,497.5,0.5,95,155.0
4822,B1,497.5,0.5,95,155.0
4823,G1,497.5,0.5,95,155.0
4824,B1,498.0,0.5,95,155.0
4825,B1,498.0,0.5,95,155.0
4826,G1,498.0,0.5,95,155.0
4827,B1,498.5,0.5,95,155.0
4828,G2,498.5,0.5,95,155.0
4829,B0,498.5,0.5,95,155.0
4830,G2,499.0,0.5,95,155.0
4831,C#2,499.0,0.5,95,155.0
4832,G1,499.0,0.5,95,155.0
4833,C#2,499.5,0.5,95,155.0
4834,C2,499.5,0.5,95,155.0
4835,C2,499.5,0.5,86,155.0
4836,C2,500.0,0.5,95,155.0
4837,C2,500.0,0.5,95,155.0
4838,C2,500.0,0.5,95,155.0
4839,C2,500.5,0.5,95,155.0
4840,F2,500.5,0.5,86,155.0
4841,B0,500.5,0.5,95,155.0
4842,F2,501.0,0.5,86,155.0
4843,F2,501.0,0.5,95,155.0
4844,B0,501.0,0.5,95,155.0
4845,F2,501.5,0.5,95,155.0
4846,B1,501.5,0.5,95,155.0
4847,G1,501.5,0.5,95,155.0
4848,B1,502.0,0.5,95,155.0
4849,B1,502.0,0.5,95,155.0
4850,C#1,502.0,0.5,95,155.0
4851,B1,502.5,0.5,95,155.0
4852,G2,502.5,0.5,95,155.0
4853,C1,502.5,0.5,95,155.0
4854,G2,503.0,0.5,95,155.0
4855,G2,503.0,0.5,95,155.0
4856,C1,503.0,0.5,95,155.0
4857,G2,503.5,0.5,95,155.0
4858,B1,503.5,0.5,95,155.0
4859,F1,503.5,0.5,86,155.0
4860,B1,504.0,0.5,95,155.0
4861,G2,504.0,0.5,95,155.0
4862,F1,504.0,0.5,95,155.0
4863,G2,504.5,0.5,95,155.0
4864,C3,504.5,0.5,86,155.0
4865,B0,504.5,0.5,95,155.0
4866,C3,505.0,0.5,86,155.0
4867,C3,505.0,0.5,95,155.0
4868,B0,505.0,0.5,95,155.0
4869,C3,505.5,0.5,95,155.0
4870,B1,505.5,0.5,95,155.0
4871,G1,505.5,0.5,95,155.0
4872,B1,506.0,0.5,95,155.0
4873,B1,506.0,0.5,95,155.0
4874,G1,506.0,0.5,95,155.0
4875,B1,506.5,0.5,95,155.0
4876,G2,506.5,0.5,95,155.0
4877,B0,506.5,0.5,95,155.0
4878,G2,507.0,0.5,95,155.0
4879,C#2,507.0,0.5,95,155.0
4880,G1,507.0,0.5,95,155.0
4881,C#2,507.5,0.5,95,155.0
4882,C2,507.5,0.5,95,155.0
4883,C2,507.5,0.5,86,155.0
4884,C2,508.0,0.5,95,155.0
4885,C2,508.0,0.5,95,155.0
4886,C2,508.0,0.5,95,155.0
4887,C2,508.5,0.5,95,155.0
4888,F2,508.5,0.5,86,155.0
4889,B0,508.5,0.5,95,155.0
4890,F2,509.0,0.5,86,155.0
4891,F2,509.0,0.5,95,155.0
4892,B0,509.0,0.5,95,155.0
4893,F2,509.5,0.5,95,155.0
4894,B1,509.5,0.5,95,155.0
4895,G1,509.5,0.5,95,155.0
4896,B1,510.0,0.5,95,155.0
4897,B1,510.0,0.5,95,155.0
4898,C#1,510.0,0.5,95,155.0
4899,B1,510.5,0.5,95,155.0
4900,G2,510.5,0.5,95,155.0
4901,C1,510.5,0.5,95,155.0
4902,G2,511.0,0.5,95,155.0
4903,G2,511.0,0.5,95,155.0
4904,C1,511.0,0.5,95,155.0
4905,G2,511.5,0.5,95,155.0
4906,B1,511.5,0.5,95,155.0
4907,F1,511.5,0.5,86,155.0
4908,B1,512.0,0.5,95,155.0
4909,G2,512.0,0.5,95,155.0
4910,B0,512.0,0.5,95,155.0
4911,G2,512.5,0.5,95,155.0
4912,C3,512.5,0.5,86,155.0
4913,B0,512.5,3.5,95,155.0
4914,C3,513.0,0.5,86,155.0
4915,C3,513.0,0.5,95,155.0
4916,C3,513.5,0.5,95,155.0
4917,B1,513.5,0.5,95,155.0
4918,B1,514.0,0.5,95,155.0
4919,B1,514.0,0.5,95,155.0
4920,B1,514.5,0.5,95,155.0
4921,G2,514.5,0.5,95,155.0
4922,G2,515.0,0.5,95,155.0
4923,C#2,515.0,0.5,95,155.0
4924,C#2,515.5,0.5,95,155.0
4925,C2,515.5,0.5,95,155.0
4926,C2,516.0,0.5,95,155.0
4927,C2,516.0,0.5,95,155.0
4928,B0,516.0,4.0,95,155.0
4929,C2,516.5,0.5,95,155.0
4930,F2,516.5,0.5,86,155.0
4931,F2,517.0,0.5,86,155.0
4932,F#2,517.0,0.5,95,155.0
4933,B1,517.0,0.5,95,155.0
4934,B1,517.5,0.5,95,155.0
4935,F#2,517.5,3.5,95,155.0
4936,B1,517.5,3.5,95,155.0
4937,B1,518.0,3.5,95,155.0
4938,B0,520.0,4.0,95,155.0
4939,B1,521.5,2.0,95,155.0
4940,C2,523.5,0.5,95,155.0
4941,C2,524.0,0.5,95,155.0
4942,B0,524.0,2.0,95,155.0
4943,F2,524.5,0.5,86,155.0
4944,F2,525.0,0.5,95,155.0
4945,B1,525.5,2.0,95,155.0
4946,C1,526.0,0.5,95,155.0
4947,C1,526.5,0.5,95,155.0
4948,F1,527.0,0.5,95,155.0
4949,C2,527.5,0.5,95,155.0
4950,F1,527.5,0.5,95,155.0
4951,C2,528.0,0.5,95,155.0
4952,B0,528.0,0.5,95,155.0
4953,F2,528.5,0.5,86,155.0
4954,B0,528.5,3.5,95,155.0
4955,F2,529.0,0.5,95,155.0
4956,B1,529.5,2.0,95,155.0
4957,F#2,531.0,4.0,95,155.0
4958,B1,531.0,4.0,95,155.0
4959,C2,531.5,0.5,95,155.0
4960,C2,532.0,0.5,95,155.0
4961,B0,532.0,4.0,95,155.0
4962,F2,532.5,0.5,86,155.0
4963,F2,533.0,0.5,95,155.0
4964,B1,533.5,0.5,95,155.0
4965,B1,534.0,1.5,95,155.0
4966,C2,535.5,0.5,95,155.0
4967,C2,536.0,0.5,95,155.0
4968,B0,536.0,4.0,95,155.0
4969,F2,536.5,0.5,86,155.0
4970,F2,537.0,0.5,95,155.0
4971,B1,537.5,2.0,95,155.0
4972,C2,539.5,0.5,95,155.0
4973,C2,540.0,0.5,95,155.0
4974,B0,540.0,2.0,95,155.0
4975,F2,540.5,0.5,86,155.0
4976,F2,541.0,0.5,95,155.0
4977,F#2,541.0,4.0,95,155.0
4978,B1,541.0,4.0,95,155.0
4979,B1,541.5,2.0,95,155.0
4980,C1,542.0,0.5,95,155.0
4981,C1,542.5,0.5,95,155.0
4982,F1,543.0,0.5,95,155.0
4983,C2,543.5,0.5,95,155.0
4984,F1,543.5,0.5,95,155.0
4985,C2,544.0,0.5,95,155.0
4986,B0,544.0,0.5,95,155.0
4987,F2,544.5,0.5,86,155.0
4988,B0,544.5,3.5,95,155.0
4989,F2,545.0,0.5,95,155.0
4990,B1,545.5,2.0,95,155.0
4991,F#2,547.0,2.0,95,155.0
4992,B1,547.0,2.0,95,155.0
4993,C2,547.5,0.5,95,155.0
4994,C2,548.0,0.5,95,155.0
4995,B0,548.0,4.0,95,155.0
4996,F2,548.5,0.5,86,155.0
4997,F2,549.0,0.5,95,155.0
4998,G2,549.0,0.5,95,155.0
4999,C2,549.0,0.5,95,155.0
5000,B1,549.5,0.5,95,155.0
5001,G2,549.5,0.5,95,155.0
5002,C2,549.5,0.5,95,155.0
5003,B1,550.0,1.5,95,155.0
5004,C3,550.0,0.5,95,155.0
5005,F2,550.0,0.5,95,155.0
5006,C3,550.5,0.5,95,155.0
5007,F2,550.5,0.5,95,155.0
5008,F#2,551.0,0.5,95,155.0
5009,B1,551.0,0.5,95,155.0
5010,C2,551.5,0.5,95,155.0
5011,F#2,551.5,3.5,95,155.0
5012,B1,551.5,3.5,95,155.0
5013,C2,552.0,0.5,95,155.0
5014,B0,552.0,4.0,95,155.0
5015,F2,552.5,0.5,86,155.0
5016,F2,553.0,0.5,95,155.0
5017,B1,553.5,2.0,95,155.0
5018,C2,555.5,0.5,95,155.0
5019,C2,556.0,0.5,95,155.0
5020,B0,556.0,2.0,95,155.0
5021,F2,556.5,0.5,86,155.0
5022,F2,557.0,0.5,95,155.0
5023,B1,557.5,2.0,95,155.0
5024,C1,558.0,0.5,95,155.0
5025,C1,558.5,0.5,95,155.0
5026,F1,559.0,0.5,95,155.0
5027,C2,559.5,0.5,95,155.0
5028,F1,559.5,0.5,95,155.0
5029,C2,560.0,0.5,95,155.0
5030,B0,560.0,0.5,95,155.0
5031,F2,560.5,0.5,86,155.0
5032,B0,560.5,3.5,95,155.0
5033,F2,561.0,0.5,95,155.0
5034,B1,561.5,2.0,95,155.0
5035,C2,563.5,0.5,95,155.0
5036,C2,564.0,0.5,95,155.0
5037,B0,564.0,4.0,95,155.0
5038,F2,564.5,0.5,86,155.0
5039,F2,565.0,0.5,95,155.0
5040,F#2,565.0,4.0,95,155.0
5041,B1,565.0,4.0,95,155.0
5042,B1,565.5,0.5,95,155.0
5043,B1,566.0,1.5,95,155.0
5044,C2,567.5,0.5,95,155.0
5045,C2,568.0,0.5,95,155.0
5046,B0,568.0,4.0,95,155.0
5047,F2,568.5,0.5,86,155.0
5048,F2,569.0,0.5,95,155.0
5049,B1,569.5,2.0,95,155.0
5050,C2,571.5,0.5,95,155.0
5051,C2,572.0,0.5,95,155.0
5052,B0,572.0,4.0,95,155.0
5053,F2,572.5,0.5,86,155.0
5054,F2,573.0,0.5,95,155.0
5055,B1,573.5,2.0,95,155.0
5056,F#2,575.0,4.0,95,155.0
5057,B1,575.0,4.0,95,155.0
5058,C2,575.5,0.5,95,155.0
5059,C2,576.0,0.5,95,155.0
5060,F2,576.5,0.5,86,155.0
5061,F2,577.0,0.5,95,155.0
5062,B1,577.5,4.0,95,155.0
5063,F#2,581.0,2.0,95,155.0
5064,B1,581.0,2.0,95,155.0
5065,G2,583.0,0.5,95,155.0
5066,C2,583.0,0.5,95,155.0
5067,G2,583.5,0.5,95,155.0
5068,C2,583.5,0.5,95,155.0
5069,C3,584.0,0.5,95,155.0
5070,F2,584.0,0.5,95,155.0
5071,C3,584.5,0.5,95,155.0
5072,F2,584.5,0.5,95,155.0
5073,F#2,585.0,0.5,95,155.0
5074,B1,585.0,0.5,95,155.0
5075,F#2,585.5,3.5,95,155.0
5076,B1,585.5,3.5,95,155.0
5077,F#2,599.0,4.0,95,155.0
5078,B1,599.0,4.0,95,155.0
5079,F#2,609.0,4.0,95,155.0
5080,B1,609.0,4.0,95,155.0
5081,F#2,615.0,2.0,95,155.0
5082,B1,615.0,2.0,95,155.0
5083,G2,617.0,0.5,95,155.0
5084,C2,617.0,0.5,95,155.0
5085,G2,617.5,0.5,95,155.0
5086,C2,617.5,0.5,95,155.0
5087,C3,618.0,0.5,95,155.0
5088,F2,618.0,0.5,95,155.0
5089,C3,618.5,0.5,95,155.0
5090,F2,618.5,0.5,95,155.0
5091,F#2,619.0,0.5,95,155.0
5092,B1,619.0,0.5,95,155.0
5093,F#2,619.5,3.5,95,155.0
5094,B1,619.5,3.5,95,155.0
5095,F#2,631.0,4.0,95,155.0
5096,B1,631.0,4.0,95,155.0
5097,F#2,639.0,4.0,95,155.0
5098,B1,639.0,4.0,95,155.0
5099,F#2,643.0,4.0,95,155.0
5100,B1,643.0,4.0,95,155.0
