,note_name,start_time,duration,velocity,tempo
0,G#4,2.25,1.75,127,103.0
1,G#4,4.0,0.75,127,103.0
2,G#4,4.75,0.25,127,103.0
3,G#4,5.5,0.5,127,103.0
4,E-4,6.5,0.5,127,103.0
5,F#4,7.25,0.75,127,103.0
6,G#4,8.0,0.5,127,103.0
7,B4,8.5,0.25,127,103.0
8,C#5,8.75,0.25,127,103.0
9,B4,9.0,0.25,127,103.0
10,G#4,9.25,0.25,127,103.0
11,G#4,9.5,0.5,127,103.0
12,E-4,10.5,0.5,127,103.0
13,F#4,11.25,0.75,127,103.0
14,G#4,12.0,0.75,127,103.0
15,G#4,12.75,0.25,127,103.0
16,G#4,13.5,0.5,127,103.0
17,E-4,14.5,0.5,127,103.0
18,F#4,15.25,0.75,127,103.0
19,G#4,16.0,0.5,127,103.0
20,B4,16.5,0.25,127,103.0
21,C#5,16.75,0.25,127,103.0
22,B4,17.0,0.25,127,103.0
23,G#4,17.25,0.25,127,103.0
24,G#4,17.5,0.5,127,103.0
25,E-4,18.5,0.5,127,103.0
26,F#4,19.25,0.75,127,103.0
27,E2,20.0,1.0,127,103.0
28,C2,20.0,0.25,109,103.0
29,E2,20.0,1.0,127,103.0
30,E-5,20.0,0.75,127,103.0
31,B4,20.0,0.75,127,103.0
32,G#4,20.0,0.75,127,103.0
33,E4,20.0,0.75,127,103.0
34,D2,21.0,0.25,96,103.0
35,C2,21.75,0.25,109,103.0
36,C2,22.25,0.25,49,103.0
37,F#2,22.5,1.0,127,103.0
38,C2,22.5,0.25,109,103.0
39,F#2,22.5,1.0,127,103.0
40,F#4,22.5,0.75,127,103.0
41,B-4,22.5,0.75,127,103.0
42,C#5,22.5,0.75,127,103.0
43,D2,23.0,0.25,96,103.0
44,C2,23.25,0.25,109,103.0
45,B1,24.0,1.0,127,103.0
46,C2,24.0,0.25,109,103.0
47,B1,24.0,1.0,127,103.0
48,B4,24.0,0.75,127,103.0
49,F#4,24.0,0.75,127,103.0
50,E-4,24.0,0.75,127,103.0
51,D2,25.0,0.25,96,103.0
52,C2,25.75,0.25,109,103.0
53,C2,26.25,0.25,49,103.0
54,B1,26.5,1.0,127,103.0
55,C2,26.5,0.25,109,103.0
56,B1,26.5,1.0,127,103.0
57,B4,26.5,0.75,127,103.0
58,F#4,26.5,0.75,127,103.0
59,E-4,26.5,0.75,127,103.0
60,D2,27.0,0.25,96,103.0
61,E2,28.0,1.0,127,103.0
62,C2,28.0,0.25,109,103.0
63,E2,28.0,1.0,127,103.0
64,E-5,28.0,0.75,127,103.0
65,B4,28.0,0.75,127,103.0
66,G#4,28.0,0.75,127,103.0
67,E4,28.0,0.75,127,103.0
68,D2,29.0,0.25,96,103.0
69,C2,29.75,0.25,109,103.0
70,C2,30.25,0.25,49,103.0
71,F#2,30.5,1.0,127,103.0
72,C2,30.5,0.25,109,103.0
73,F#2,30.5,1.0,127,103.0
74,C#5,30.5,0.75,127,103.0
75,B-4,30.5,0.75,127,103.0
76,F#4,30.5,0.75,127,103.0
77,D2,31.0,0.25,96,103.0
78,C2,31.25,0.25,109,103.0
79,G#1,32.0,1.0,127,103.0
80,C2,32.0,0.25,109,103.0
81,G#1,32.0,1.0,127,103.0
82,G#4,32.0,0.75,127,103.0
83,E-4,32.0,0.75,127,103.0
84,B3,32.0,0.75,127,103.0
85,G#3,32.0,0.75,127,103.0
86,D2,33.0,0.25,96,103.0
87,C2,33.75,0.25,109,103.0
88,C2,34.25,0.25,49,103.0
89,G#1,34.5,1.0,127,103.0
90,C2,34.5,0.25,109,103.0
91,G#1,34.5,1.0,127,103.0
92,G#3,34.5,0.75,127,103.0
93,B3,34.5,0.75,127,103.0
94,E-4,34.5,0.75,127,103.0
95,G#4,34.5,0.75,127,103.0
96,D2,35.0,0.25,96,103.0
97,E2,36.0,1.0,127,103.0
98,C2,36.0,0.25,109,103.0
99,E2,36.0,1.0,127,103.0
100,E4,36.0,0.75,127,103.0
101,G#4,36.0,0.75,127,103.0
102,B4,36.0,0.75,127,103.0
103,E-5,36.0,0.75,127,103.0
104,D2,37.0,0.25,96,103.0
105,E3,37.5,0.25,77,103.0
106,C2,37.75,0.25,109,103.0
107,E3,38.0,0.25,46,103.0
108,C2,38.25,0.25,49,103.0
109,F#2,38.5,1.0,127,103.0
110,C2,38.5,0.25,109,103.0
111,F#2,38.5,1.0,127,103.0
112,C#5,38.5,0.75,127,103.0
113,B-4,38.5,0.75,127,103.0
114,F#4,38.5,0.75,127,103.0
115,D2,39.0,0.25,96,103.0
116,C2,39.25,0.25,109,103.0
117,E3,39.5,0.25,77,103.0
118,B1,40.0,1.0,127,103.0
119,C2,40.0,0.25,109,103.0
120,B1,40.0,1.0,127,103.0
121,B4,40.0,0.75,127,103.0
122,F#4,40.0,0.75,127,103.0
123,E-4,40.0,0.75,127,103.0
124,D2,41.0,0.25,96,103.0
125,E3,41.5,0.25,77,103.0
126,C2,41.75,0.25,109,103.0
127,E3,42.0,0.25,46,103.0
128,C2,42.25,0.25,49,103.0
129,B1,42.5,1.0,127,103.0
130,C2,42.5,0.25,109,103.0
131,B1,42.5,1.0,127,103.0
132,B4,42.5,0.75,127,103.0
133,F#4,42.5,0.75,127,103.0
134,E-4,42.5,0.75,127,103.0
135,D2,43.0,0.25,96,103.0
136,E3,43.5,0.25,77,103.0
137,E2,44.0,1.0,127,103.0
138,C2,44.0,0.25,109,103.0
139,E2,44.0,1.0,127,103.0
140,E-5,44.0,0.75,127,103.0
141,B4,44.0,0.75,127,103.0
142,G#4,44.0,0.75,127,103.0
143,E4,44.0,0.75,127,103.0
144,D2,45.0,0.25,96,103.0
145,E3,45.5,0.25,77,103.0
146,C2,45.75,0.25,109,103.0
147,E3,46.0,0.25,46,103.0
148,C2,46.25,0.25,49,103.0
149,F#2,46.5,1.0,127,103.0
150,C2,46.5,0.25,109,103.0
151,F#2,46.5,1.0,127,103.0
152,F#4,46.5,0.75,127,103.0
153,B-4,46.5,0.75,127,103.0
154,C#5,46.5,0.75,127,103.0
155,D2,47.0,0.25,96,103.0
156,C2,47.25,0.25,109,103.0
157,E3,47.5,0.25,77,103.0
158,G#1,48.0,1.0,127,103.0
159,C2,48.0,0.25,109,103.0
160,G#1,48.0,1.0,127,103.0
161,G#3,48.0,0.75,127,103.0
162,B3,48.0,0.75,127,103.0
163,E-4,48.0,0.75,127,103.0
164,G#4,48.0,0.75,127,103.0
165,D2,49.0,0.25,96,103.0
166,E3,49.5,0.25,77,103.0
167,C2,49.75,0.25,109,103.0
168,E3,50.0,0.25,46,103.0
169,C2,50.25,0.25,49,103.0
170,G#1,50.5,1.0,127,103.0
171,C2,50.5,0.25,109,103.0
172,G#1,50.5,1.0,127,103.0
173,G#3,50.5,0.75,127,103.0
174,B3,50.5,0.75,127,103.0
175,E-4,50.5,0.75,127,103.0
176,G#4,50.5,0.75,127,103.0
177,D2,51.0,0.25,96,103.0
178,E3,51.5,0.25,77,103.0
179,E2,52.0,2.25,127,103.0
180,E2,52.0,2.25,127,103.0
181,E-5,52.0,0.75,127,103.0
182,B4,52.0,0.75,127,103.0
183,G#4,52.0,0.75,127,103.0
184,G#4,52.0,2.75,127,103.0
185,E-4,52.0,2.75,127,103.0
186,B3,52.0,2.75,127,103.0
187,D2,52.0,0.25,101,103.0
188,C2,52.0,0.25,101,103.0
189,C2,52.5,0.25,66,103.0
190,D2,52.75,0.25,93,103.0
191,D2,53.0,0.25,101,103.0
192,C2,53.0,0.25,101,103.0
193,D2,53.5,0.25,80,103.0
194,C2,53.5,0.25,80,103.0
195,C2,54.0,0.25,109,103.0
196,F#2,54.5,1.5,127,103.0
197,F#4,54.5,1.5,127,103.0
198,F#2,54.5,1.5,127,103.0
199,F#4,54.5,0.75,127,103.0
200,B-4,54.5,0.75,127,103.0
201,C#5,54.5,0.75,127,103.0
202,B-3,54.5,1.5,127,103.0
203,C#4,54.5,1.5,127,103.0
204,C2,54.5,0.25,80,103.0
205,D2,54.5,0.25,80,103.0
206,D2,55.0,0.25,101,103.0
207,C2,55.0,0.25,101,103.0
208,C2,55.5,0.25,66,103.0
209,D2,55.75,0.25,93,103.0
210,B1,56.0,2.5,127,103.0
211,F#4,56.0,4.0,127,103.0
212,B1,56.0,2.5,127,103.0
213,F#4,56.0,0.75,127,103.0
214,B4,56.0,0.75,127,103.0
215,E-5,56.0,0.75,127,103.0
216,B3,56.0,4.0,127,103.0
217,E-4,56.0,4.0,127,103.0
218,B-3,56.0,0.25,127,103.0
219,C#4,56.0,0.25,127,103.0
220,C2,56.0,0.25,101,103.0
221,D2,56.0,0.25,101,103.0
222,C2,56.5,0.25,66,103.0
223,D2,56.75,0.25,93,103.0
224,C2,57.0,0.25,101,103.0
225,D2,57.0,0.25,101,103.0
226,D2,57.5,0.25,80,103.0
227,C2,57.5,0.25,80,103.0
228,C2,58.0,0.25,109,103.0
229,B1,58.5,1.25,127,103.0
230,B1,58.5,1.25,127,103.0
231,E-5,58.5,0.75,127,103.0
232,B4,58.5,0.75,127,103.0
233,F#4,58.5,0.75,127,103.0
234,D2,58.5,0.25,80,103.0
235,C2,58.5,0.25,80,103.0
236,D2,59.0,0.25,101,103.0
237,C2,59.0,0.25,101,103.0
238,C2,59.5,0.25,66,103.0
239,E2,60.0,2.25,127,103.0
240,F#4,60.0,0.25,127,103.0
241,E2,60.0,2.25,127,103.0
242,G#4,60.0,0.75,127,103.0
243,B4,60.0,0.75,127,103.0
244,E-5,60.0,0.75,127,103.0
245,G#3,60.0,2.75,127,103.0
246,B3,60.0,2.75,127,103.0
247,E-4,60.0,2.75,127,103.0
248,G#4,60.0,2.75,127,103.0
249,C2,60.0,0.25,101,103.0
250,D2,60.0,0.25,101,103.0
251,C2,60.5,0.25,66,103.0
252,D2,60.75,0.25,93,103.0
253,C2,61.0,0.25,101,103.0
254,D2,61.0,0.25,101,103.0
255,C2,61.5,0.25,80,103.0
256,D2,61.5,0.25,80,103.0
257,C2,62.0,0.25,109,103.0
258,F#2,62.5,1.5,127,103.0
259,F#2,62.5,1.5,127,103.0
260,C#5,62.5,0.75,127,103.0
261,B-4,62.5,0.75,127,103.0
262,F#4,62.5,0.75,127,103.0
263,F#4,62.5,1.5,127,103.0
264,C#4,62.5,1.5,127,103.0
265,B-3,62.5,1.5,127,103.0
266,D2,62.5,0.25,80,103.0
267,C2,62.5,0.25,80,103.0
268,C2,63.0,0.25,101,103.0
269,D2,63.0,0.25,101,103.0
270,C2,63.5,0.25,66,103.0
271,D2,63.75,0.25,93,103.0
272,G#1,64.0,2.5,127,103.0
273,G#1,64.0,2.5,127,103.0
274,E-5,64.0,0.75,127,103.0
275,B4,64.0,0.75,127,103.0
276,G#4,64.0,0.75,127,103.0
277,E-4,64.0,4.0,127,103.0
278,B3,64.0,4.0,127,103.0
279,G#3,64.0,4.0,127,103.0
280,F#4,64.0,0.25,127,103.0
281,C#4,64.0,0.25,127,103.0
282,B-3,64.0,0.25,127,103.0
283,D2,64.0,0.25,101,103.0
284,C2,64.0,0.25,101,103.0
285,C2,64.5,0.25,66,103.0
286,D2,64.75,0.25,93,103.0
287,D2,65.0,0.25,101,103.0
288,C2,65.0,0.25,101,103.0
289,C2,65.5,0.25,80,103.0
290,D2,65.5,0.25,80,103.0
291,C2,66.0,0.25,109,103.0
292,G#1,66.5,1.5,127,103.0
293,G#1,66.5,1.5,127,103.0
294,E-5,66.5,0.75,127,103.0
295,B4,66.5,0.75,127,103.0
296,G#4,66.5,0.75,127,103.0
297,D2,66.5,0.25,80,103.0
298,C2,66.5,0.25,80,103.0
299,D2,67.0,0.25,101,103.0
300,C2,67.0,0.25,101,103.0
301,C2,67.5,0.25,66,103.0
302,G#1,68.0,0.75,127,103.0
303,C2,68.0,0.25,101,103.0
304,D2,68.0,0.25,101,103.0
305,D2,68.75,0.25,93,103.0
306,G#1,68.75,0.75,127,103.0
307,C2,69.0,0.25,109,103.0
308,D2,69.5,0.25,93,103.0
309,G#1,69.5,1.0,127,103.0
310,C2,70.0,0.25,109,103.0
311,D2,70.5,0.25,93,103.0
312,G#1,70.5,0.5,127,103.0
313,C2,71.0,0.25,109,103.0
314,G#1,72.0,0.75,127,103.0
315,C2,72.0,0.25,101,103.0
316,D2,72.0,0.25,101,103.0
317,D2,72.75,0.25,93,103.0
318,G#1,72.75,0.75,127,103.0
319,C2,73.0,0.25,109,103.0
320,D2,73.5,0.25,93,103.0
321,G#1,73.5,1.0,127,103.0
322,C2,74.0,0.25,109,103.0
323,D2,74.5,0.25,93,103.0
324,G#1,74.5,0.5,127,103.0
325,C2,75.0,0.25,109,103.0
326,G#1,76.0,0.75,127,103.0
327,C2,76.0,0.25,101,103.0
328,D2,76.0,0.25,101,103.0
329,D2,76.75,0.25,93,103.0
330,G#1,76.75,0.75,127,103.0
331,C2,77.0,0.25,109,103.0
332,D2,77.5,0.25,93,103.0
333,G#1,77.5,1.0,127,103.0
334,C2,78.0,0.25,109,103.0
335,D2,78.5,0.25,93,103.0
336,G#1,78.5,0.5,127,103.0
337,C2,79.0,0.25,109,103.0
338,B3,79.25,0.25,127,103.0
339,E-4,79.25,0.25,127,103.0
340,B3,79.5,0.5,127,103.0
341,E-4,79.5,0.5,127,103.0
342,G#1,80.0,0.75,127,103.0
343,C2,80.0,0.25,101,103.0
344,D2,80.0,0.25,101,103.0
345,B3,80.0,0.5,127,103.0
346,E-4,80.0,0.5,127,103.0
347,B3,80.5,0.5,127,103.0
348,E-4,80.5,0.5,127,103.0
349,D2,80.75,0.25,93,103.0
350,G#1,80.75,0.75,127,103.0
351,C2,81.0,0.25,109,103.0
352,B3,81.0,0.5,127,103.0
353,E-4,81.0,0.5,127,103.0
354,D2,81.5,0.25,93,103.0
355,G#1,81.5,1.0,127,103.0
356,B3,81.5,0.5,127,103.0
357,E-4,81.5,0.5,127,103.0
358,C2,82.0,0.25,109,103.0
359,B3,82.0,0.5,127,103.0
360,E-4,82.0,0.75,127,103.0
361,G#1,82.5,0.5,127,103.0
362,B3,82.5,0.5,127,103.0
363,G#3,82.5,0.75,127,103.0
364,G#2,82.5,0.25,110,103.0
365,D2,82.5,0.25,110,103.0
366,B3,83.0,0.5,127,103.0
367,E-4,83.0,0.75,127,103.0
368,E3,83.0,0.25,93,103.0
369,C2,83.0,0.25,93,103.0
370,E3,83.25,0.25,77,103.0
371,E3,83.5,0.25,77,103.0
372,B3,83.5,0.5,127,103.0
373,G#3,83.5,0.5,127,103.0
374,E3,83.75,0.25,77,103.0
375,G#4,84.0,0.75,127,103.0
376,G#1,84.0,0.75,127,103.0
377,C2,84.0,0.25,101,103.0
378,D2,84.0,0.25,101,103.0
379,C2,84.5,0.25,66,103.0
380,G#4,84.75,0.25,127,103.0
381,D2,84.75,0.25,93,103.0
382,G#1,84.75,0.75,127,103.0
383,F#2,85.0,0.25,97,103.0
384,E3,85.0,0.25,97,103.0
385,C2,85.0,0.25,97,103.0
386,G#4,85.5,0.5,127,103.0
387,G#1,85.5,1.0,127,103.0
388,C2,85.5,0.25,80,103.0
389,D2,85.5,0.25,80,103.0
390,C2,86.0,0.25,109,103.0
391,E-4,86.5,0.5,127,103.0
392,G#1,86.5,0.5,127,103.0
393,C2,86.5,0.25,80,103.0
394,D2,86.5,0.25,80,103.0
395,C2,87.0,0.25,97,103.0
396,E3,87.0,0.25,97,103.0
397,F#2,87.0,0.25,97,103.0
398,F#4,87.25,0.75,127,103.0
399,C2,87.5,0.25,66,103.0
400,G#4,88.0,0.5,127,103.0
401,G#1,88.0,0.75,127,103.0
402,C2,88.0,0.25,101,103.0
403,D2,88.0,0.25,101,103.0
404,B4,88.5,0.25,127,103.0
405,C2,88.5,0.25,66,103.0
406,C#5,88.75,0.25,127,103.0
407,D2,88.75,0.25,93,103.0
408,G#1,88.75,0.75,127,103.0
409,B4,89.0,0.25,127,103.0
410,C2,89.0,0.25,97,103.0
411,E3,89.0,0.25,97,103.0
412,F#2,89.0,0.25,97,103.0
413,G#4,89.25,0.25,127,103.0
414,G#4,89.5,0.5,127,103.0
415,G#1,89.5,1.0,127,103.0
416,C2,89.5,0.25,80,103.0
417,D2,89.5,0.25,80,103.0
418,C2,90.0,0.25,109,103.0
419,E-4,90.5,0.5,127,103.0
420,G#1,90.5,0.5,127,103.0
421,C2,90.5,0.25,80,103.0
422,D2,90.5,0.25,80,103.0
423,C2,91.0,0.25,97,103.0
424,E3,91.0,0.25,97,103.0
425,F#2,91.0,0.25,97,103.0
426,F#4,91.25,0.75,127,103.0
427,C2,91.5,0.25,66,103.0
428,G#4,92.0,0.75,127,103.0
429,G#1,92.0,0.75,127,103.0
430,C2,92.0,0.25,101,103.0
431,D2,92.0,0.25,101,103.0
432,C2,92.5,0.25,66,103.0
433,G#4,92.75,0.25,127,103.0
434,D2,92.75,0.25,93,103.0
435,G#1,92.75,0.75,127,103.0
436,C2,93.0,0.25,97,103.0
437,E3,93.0,0.25,97,103.0
438,F#2,93.0,0.25,97,103.0
439,G#4,93.5,0.5,127,103.0
440,G#1,93.5,1.0,127,103.0
441,C2,93.5,0.25,80,103.0
442,D2,93.5,0.25,80,103.0
443,C2,94.0,0.25,109,103.0
444,E-4,94.5,0.5,127,103.0
445,G#1,94.5,0.5,127,103.0
446,C2,94.5,0.25,80,103.0
447,D2,94.5,0.25,80,103.0
448,C2,95.0,0.25,97,103.0
449,E3,95.0,0.25,97,103.0
450,F#2,95.0,0.25,97,103.0
451,F#4,95.25,0.75,127,103.0
452,B3,95.25,0.25,127,103.0
453,E-4,95.25,0.25,127,103.0
454,C2,95.5,0.25,66,103.0
455,E-4,95.5,0.5,127,103.0
456,B3,95.5,0.5,127,103.0
457,B-2,95.75,0.25,92,103.0
458,G#4,96.0,0.5,127,103.0
459,G#1,96.0,0.75,127,103.0
460,C2,96.0,0.25,101,103.0
461,D2,96.0,0.25,101,103.0
462,B3,96.0,0.5,127,103.0
463,E-4,96.0,0.5,127,103.0
464,B4,96.5,0.25,127,103.0
465,C2,96.5,0.25,66,103.0
466,B3,96.5,0.5,127,103.0
467,E-4,96.5,0.5,127,103.0
468,C#5,96.75,0.25,127,103.0
469,D2,96.75,0.25,93,103.0
470,G#1,96.75,0.75,127,103.0
471,B4,97.0,0.25,127,103.0
472,C2,97.0,0.25,97,103.0
473,E3,97.0,0.25,97,103.0
474,F#2,97.0,0.25,97,103.0
475,B3,97.0,0.5,127,103.0
476,E-4,97.0,0.5,127,103.0
477,G#4,97.25,0.25,127,103.0
478,G#4,97.5,0.5,127,103.0
479,G#1,97.5,1.0,127,103.0
480,D2,97.5,0.25,80,103.0
481,C2,97.5,0.25,80,103.0
482,E-4,97.5,0.5,127,103.0
483,B3,97.5,0.5,127,103.0
484,C2,98.0,0.25,109,103.0
485,E-4,98.0,0.75,127,103.0
486,B3,98.0,0.5,127,103.0
487,E-4,98.5,0.5,127,103.0
488,G#1,98.5,0.5,127,103.0
489,G#3,98.5,0.75,127,103.0
490,B3,98.5,0.5,127,103.0
491,C2,98.5,0.25,95,103.0
492,D2,98.5,0.25,95,103.0
493,G#2,98.5,0.25,95,103.0
494,E-4,99.0,0.75,127,103.0
495,B3,99.0,0.5,127,103.0
496,C2,99.0,0.25,97,103.0
497,E3,99.0,0.25,97,103.0
498,F#2,99.0,0.25,97,103.0
499,F#4,99.25,0.75,127,103.0
500,E3,99.25,0.25,77,103.0
501,C2,99.5,0.25,72,103.0
502,E3,99.5,0.25,72,103.0
503,G#3,99.5,0.5,127,103.0
504,B3,99.5,0.5,127,103.0
505,E3,99.75,0.25,77,103.0
506,G#4,100.0,0.75,127,103.0
507,G#4,100.75,0.25,127,103.0
508,G#4,101.5,0.5,127,103.0
509,E-4,102.5,0.5,127,103.0
510,F#4,103.25,0.75,127,103.0
511,G#4,104.0,0.5,127,103.0
512,B4,104.5,0.25,127,103.0
513,C#5,104.75,0.25,127,103.0
514,B4,105.0,0.25,127,103.0
515,G#4,105.25,0.25,127,103.0
516,G#4,105.5,0.5,127,103.0
517,E-4,106.5,0.5,127,103.0
518,F#4,107.25,0.75,127,103.0
519,E2,108.0,0.5,127,103.0
520,C2,108.0,0.25,109,103.0
521,E2,108.0,0.5,127,103.0
522,E-5,108.0,0.75,127,103.0
523,B4,108.0,0.75,127,103.0
524,G#4,108.0,0.75,127,103.0
525,E4,108.0,0.75,127,103.0
526,D2,109.0,0.25,96,103.0
527,C2,109.75,0.25,109,103.0
528,C2,110.25,0.25,49,103.0
529,F#2,110.5,0.5,127,103.0
530,C2,110.5,0.25,109,103.0
531,F#2,110.5,0.5,127,103.0
532,F#4,110.5,0.75,127,103.0
533,B-4,110.5,0.75,127,103.0
534,C#5,110.5,0.75,127,103.0
535,D2,111.0,0.25,96,103.0
536,C2,111.25,0.25,109,103.0
537,B1,112.0,0.5,127,103.0
538,C2,112.0,0.25,109,103.0
539,B1,112.0,0.5,127,103.0
540,B4,112.0,0.75,127,103.0
541,F#4,112.0,0.75,127,103.0
542,E-4,112.0,0.75,127,103.0
543,D2,113.0,0.25,96,103.0
544,C2,113.75,0.25,109,103.0
545,C2,114.25,0.25,49,103.0
546,B1,114.5,0.5,127,103.0
547,C2,114.5,0.25,109,103.0
548,B1,114.5,0.5,127,103.0
549,B4,114.5,0.75,127,103.0
550,F#4,114.5,0.75,127,103.0
551,E-4,114.5,0.75,127,103.0
552,D2,115.0,0.25,96,103.0
553,E2,116.0,0.5,127,103.0
554,C2,116.0,0.25,109,103.0
555,E2,116.0,0.5,127,103.0
556,E4,116.0,0.75,127,103.0
557,G#4,116.0,0.75,127,103.0
558,B4,116.0,0.75,127,103.0
559,E-5,116.0,0.75,127,103.0
560,D2,117.0,0.25,96,103.0
561,C2,117.75,0.25,109,103.0
562,C2,118.25,0.25,49,103.0
563,F#2,118.5,0.5,127,103.0
564,C2,118.5,0.25,109,103.0
565,F#2,118.5,0.5,127,103.0
566,F#4,118.5,0.75,127,103.0
567,B-4,118.5,0.75,127,103.0
568,C#5,118.5,0.75,127,103.0
569,D2,119.0,0.25,96,103.0
570,C2,119.25,0.25,109,103.0
571,G#1,120.0,0.5,127,103.0
572,C2,120.0,0.25,109,103.0
573,G#1,120.0,0.5,127,103.0
574,G#3,120.0,0.75,127,103.0
575,B3,120.0,0.75,127,103.0
576,E-4,120.0,0.75,127,103.0
577,G#4,120.0,0.75,127,103.0
578,D2,121.0,0.25,96,103.0
579,C2,121.75,0.25,109,103.0
580,C2,122.25,0.25,49,103.0
581,G#1,122.5,0.5,127,103.0
582,C2,122.5,0.25,109,103.0
583,G#1,122.5,0.5,127,103.0
584,G#4,122.5,0.75,127,103.0
585,E-4,122.5,0.75,127,103.0
586,B3,122.5,0.75,127,103.0
587,G#3,122.5,0.75,127,103.0
588,D2,123.0,0.25,96,103.0
589,E2,124.0,0.5,127,103.0
590,C2,124.0,0.25,109,103.0
591,E2,124.0,0.5,127,103.0
592,E-5,124.0,0.75,127,103.0
593,B4,124.0,0.75,127,103.0
594,G#4,124.0,0.75,127,103.0
595,E4,124.0,0.75,127,103.0
596,D2,125.0,0.25,96,103.0
597,E3,125.5,0.25,77,103.0
598,C2,125.75,0.25,109,103.0
599,E3,126.0,0.25,46,103.0
600,C2,126.25,0.25,49,103.0
601,F#2,126.5,0.5,127,103.0
602,C2,126.5,0.25,109,103.0
603,F#2,126.5,0.5,127,103.0
604,C#5,126.5,0.75,127,103.0
605,B-4,126.5,0.75,127,103.0
606,F#4,126.5,0.75,127,103.0
607,D2,127.0,0.25,96,103.0
608,C2,127.25,0.25,109,103.0
609,E3,127.5,0.25,77,103.0
610,B1,128.0,0.5,127,103.0
611,C2,128.0,0.25,109,103.0
612,B1,128.0,0.5,127,103.0
613,E-4,128.0,0.75,127,103.0
614,F#4,128.0,0.75,127,103.0
615,B4,128.0,0.75,127,103.0
616,D2,129.0,0.25,96,103.0
617,E3,129.5,0.25,77,103.0
618,C2,129.75,0.25,109,103.0
619,E3,130.0,0.25,46,103.0
620,C2,130.25,0.25,49,103.0
621,B1,130.5,0.5,127,103.0
622,C2,130.5,0.25,109,103.0
623,B1,130.5,0.5,127,103.0
624,E-4,130.5,0.75,127,103.0
625,F#4,130.5,0.75,127,103.0
626,B4,130.5,0.75,127,103.0
627,D2,131.0,0.25,96,103.0
628,E3,131.5,0.25,77,103.0
629,E2,132.0,0.5,127,103.0
630,C2,132.0,0.25,109,103.0
631,E2,132.0,0.5,127,103.0
632,E-5,132.0,0.75,127,103.0
633,B4,132.0,0.75,127,103.0
634,G#4,132.0,0.75,127,103.0
635,E4,132.0,0.75,127,103.0
636,D2,133.0,0.25,96,103.0
637,E3,133.5,0.25,77,103.0
638,C2,133.75,0.25,109,103.0
639,E3,134.0,0.25,46,103.0
640,C2,134.25,0.25,49,103.0
641,F#2,134.5,0.5,127,103.0
642,C2,134.5,0.25,109,103.0
643,F#2,134.5,0.5,127,103.0
644,F#4,134.5,0.75,127,103.0
645,B-4,134.5,0.75,127,103.0
646,C#5,134.5,0.75,127,103.0
647,D2,135.0,0.25,96,103.0
648,C2,135.25,0.25,109,103.0
649,E3,135.5,0.25,77,103.0
650,G#1,136.0,0.5,127,103.0
651,C2,136.0,0.25,109,103.0
652,G#1,136.0,0.5,127,103.0
653,G#3,136.0,0.75,127,103.0
654,B3,136.0,0.75,127,103.0
655,E-4,136.0,0.75,127,103.0
656,G#4,136.0,0.75,127,103.0
657,D2,137.0,0.25,96,103.0
658,E3,137.5,0.25,77,103.0
659,C2,137.75,0.25,109,103.0
660,E3,138.0,0.25,46,103.0
661,C2,138.25,0.25,49,103.0
662,G#1,138.5,0.5,127,103.0
663,C2,138.5,0.25,109,103.0
664,G#1,138.5,0.5,127,103.0
665,G#3,138.5,0.75,127,103.0
666,B3,138.5,0.75,127,103.0
667,E-4,138.5,0.75,127,103.0
668,G#4,138.5,0.75,127,103.0
669,D2,139.0,0.25,96,103.0
670,E3,139.5,0.25,77,103.0
671,E2,140.0,2.5,127,103.0
672,E2,140.0,2.5,127,103.0
673,G#4,140.0,0.75,127,103.0
674,B4,140.0,0.75,127,103.0
675,E-5,140.0,0.75,127,103.0
676,B3,140.0,2.75,127,103.0
677,E-4,140.0,2.75,127,103.0
678,G#4,140.0,2.75,127,103.0
679,C2,140.0,0.25,101,103.0
680,D2,140.0,0.25,101,103.0
681,C2,140.5,0.25,66,103.0
682,D2,140.75,0.25,93,103.0
683,C2,141.0,0.25,101,103.0
684,D2,141.0,0.25,101,103.0
685,C2,141.5,0.25,80,103.0
686,D2,141.5,0.25,80,103.0
687,C2,142.0,0.25,109,103.0
688,F#2,142.5,1.5,127,103.0
689,F#4,142.5,1.5,127,103.0
690,F#2,142.5,1.5,127,103.0
691,C#5,142.5,0.75,127,103.0
692,B-4,142.5,0.75,127,103.0
693,F#4,142.5,0.75,127,103.0
694,C#4,142.5,1.5,127,103.0
695,B-3,142.5,1.5,127,103.0
696,D2,142.5,0.25,80,103.0
697,C2,142.5,0.25,80,103.0
698,C2,143.0,0.25,101,103.0
699,D2,143.0,0.25,101,103.0
700,C2,143.5,0.25,66,103.0
701,D2,143.75,0.25,93,103.0
702,B1,144.0,2.5,127,103.0
703,F#4,144.0,4.0,127,103.0
704,B1,144.0,2.5,127,103.0
705,E-5,144.0,0.75,127,103.0
706,B4,144.0,0.75,127,103.0
707,F#4,144.0,0.75,127,103.0
708,E-4,144.0,4.0,127,103.0
709,B3,144.0,4.0,127,103.0
710,C#4,144.0,0.25,127,103.0
711,B-3,144.0,0.25,127,103.0
712,D2,144.0,0.25,101,103.0
713,C2,144.0,0.25,101,103.0
714,C2,144.5,0.25,66,103.0
715,D2,144.75,0.25,93,103.0
716,D2,145.0,0.25,101,103.0
717,C2,145.0,0.25,101,103.0
718,D2,145.5,0.25,80,103.0
719,C2,145.5,0.25,80,103.0
720,C2,146.0,0.25,109,103.0
721,B1,146.5,1.5,127,103.0
722,B1,146.5,1.5,127,103.0
723,E-5,146.5,0.75,127,103.0
724,B4,146.5,0.75,127,103.0
725,F#4,146.5,0.75,127,103.0
726,D2,146.5,0.25,80,103.0
727,C2,146.5,0.25,80,103.0
728,D2,147.0,0.25,101,103.0
729,C2,147.0,0.25,101,103.0
730,C2,147.5,0.25,66,103.0
731,E2,148.0,2.5,127,103.0
732,F#4,148.0,0.25,127,103.0
733,E2,148.0,2.5,127,103.0
734,G#4,148.0,0.75,127,103.0
735,B4,148.0,0.75,127,103.0
736,E-5,148.0,0.75,127,103.0
737,G#3,148.0,2.75,127,103.0
738,B3,148.0,2.75,127,103.0
739,E-4,148.0,2.75,127,103.0
740,G#4,148.0,2.75,127,103.0
741,C2,148.0,0.25,101,103.0
742,D2,148.0,0.25,101,103.0
743,C2,148.5,0.25,66,103.0
744,D2,148.75,0.25,93,103.0
745,C2,149.0,0.25,101,103.0
746,D2,149.0,0.25,101,103.0
747,D2,149.5,0.25,80,103.0
748,C2,149.5,0.25,80,103.0
749,C2,150.0,0.25,109,103.0
750,F#2,150.5,1.5,127,103.0
751,F#2,150.5,1.5,127,103.0
752,F#4,150.5,0.75,127,103.0
753,B-4,150.5,0.75,127,103.0
754,C#5,150.5,0.75,127,103.0
755,B-3,150.5,1.5,127,103.0
756,C#4,150.5,1.5,127,103.0
757,F#4,150.5,1.5,127,103.0
758,C2,150.5,0.25,80,103.0
759,D2,150.5,0.25,80,103.0
760,D2,151.0,0.25,101,103.0
761,C2,151.0,0.25,101,103.0
762,C2,151.5,0.25,66,103.0
763,D2,151.75,0.25,93,103.0
764,G#1,152.0,2.5,127,103.0
765,G#1,152.0,2.5,127,103.0
766,G#4,152.0,0.75,127,103.0
767,B4,152.0,0.75,127,103.0
768,E-5,152.0,0.75,127,103.0
769,G#3,152.0,4.0,127,103.0
770,B3,152.0,4.0,127,103.0
771,E-4,152.0,4.0,127,103.0
772,B-3,152.0,0.25,127,103.0
773,C#4,152.0,0.25,127,103.0
774,F#4,152.0,0.25,127,103.0
775,C2,152.0,0.25,101,103.0
776,D2,152.0,0.25,101,103.0
777,C2,152.5,0.25,66,103.0
778,D2,152.75,0.25,93,103.0
779,C2,153.0,0.25,101,103.0
780,D2,153.0,0.25,101,103.0
781,D2,153.5,0.25,80,103.0
782,C2,153.5,0.25,80,103.0
783,C2,154.0,0.25,109,103.0
784,G#1,154.5,1.5,127,103.0
785,G#1,154.5,1.5,127,103.0
786,E-5,154.5,0.75,127,103.0
787,B4,154.5,0.75,127,103.0
788,G#4,154.5,0.75,127,103.0
789,D2,154.5,0.25,80,103.0
790,C2,154.5,0.25,80,103.0
791,C2,155.0,0.25,101,103.0
792,D2,155.0,0.25,101,103.0
793,C2,155.5,0.25,66,103.0
794,G#1,156.0,0.75,127,103.0
795,C2,156.0,0.25,101,103.0
796,D2,156.0,0.25,101,103.0
797,D2,156.75,0.25,93,103.0
798,G#1,156.75,0.75,127,103.0
799,C2,157.0,0.25,93,103.0
800,E3,157.0,0.25,93,103.0
801,D2,157.5,0.25,93,103.0
802,G#1,157.5,1.0,127,103.0
803,C2,158.0,0.25,109,103.0
804,D2,158.5,0.25,93,103.0
805,G#1,158.5,0.5,127,103.0
806,E3,159.0,0.25,93,103.0
807,C2,159.0,0.25,93,103.0
808,G#1,160.0,0.75,127,103.0
809,D2,160.0,0.25,101,103.0
810,C2,160.0,0.25,101,103.0
811,D2,160.75,0.25,93,103.0
812,G#1,160.75,0.75,127,103.0
813,E3,161.0,0.25,93,103.0
814,C2,161.0,0.25,93,103.0
815,D2,161.5,0.25,93,103.0
816,G#1,161.5,1.0,127,103.0
817,C2,162.0,0.25,109,103.0
818,D2,162.5,0.25,93,103.0
819,G#1,162.5,0.5,127,103.0
820,E3,163.0,0.25,93,103.0
821,C2,163.0,0.25,93,103.0
822,G#1,164.0,0.75,127,103.0
823,D2,164.0,0.25,101,103.0
824,C2,164.0,0.25,101,103.0
825,D2,164.75,0.25,93,103.0
826,G#1,164.75,0.75,127,103.0
827,B-2,165.0,0.25,100,103.0
828,C2,165.0,0.25,100,103.0
829,D2,165.5,0.25,93,103.0
830,G#1,165.5,1.0,127,103.0
831,C2,166.0,0.25,109,103.0
832,D2,166.5,0.25,93,103.0
833,G#1,166.5,0.5,127,103.0
834,B-2,167.0,0.25,100,103.0
835,C2,167.0,0.25,100,103.0
836,B3,167.25,0.25,127,103.0
837,E-4,167.25,0.25,127,103.0
838,E-4,167.5,0.5,127,103.0
839,B3,167.5,0.5,127,103.0
840,G#1,168.0,0.75,127,103.0
841,C2,168.0,0.25,101,103.0
842,D2,168.0,0.25,101,103.0
843,B3,168.0,0.5,127,103.0
844,E-4,168.0,0.5,127,103.0
845,B3,168.5,0.5,127,103.0
846,E-4,168.5,0.5,127,103.0
847,D2,168.75,0.25,93,103.0
848,G#1,168.75,0.75,127,103.0
849,B-2,169.0,0.25,100,103.0
850,C2,169.0,0.25,100,103.0
851,E-4,169.0,0.5,127,103.0
852,B3,169.0,0.5,127,103.0
853,D2,169.5,0.25,93,103.0
854,G#1,169.5,1.0,127,103.0
855,E-4,169.5,0.5,127,103.0
856,B3,169.5,0.5,127,103.0
857,C2,170.0,0.25,109,103.0
858,B3,170.0,0.5,127,103.0
859,E-4,170.0,0.75,127,103.0
860,G#1,170.5,0.5,127,103.0
861,G#3,170.5,0.75,127,103.0
862,B3,170.5,0.5,127,103.0
863,D2,170.5,0.25,110,103.0
864,G#2,170.5,0.25,110,103.0
865,E-4,171.0,0.75,127,103.0
866,B3,171.0,0.5,127,103.0
867,B-2,171.0,0.25,93,103.0
868,E3,171.0,0.25,93,103.0
869,C2,171.0,0.25,93,103.0
870,E3,171.25,0.25,77,103.0
871,E3,171.5,0.25,77,103.0
872,G#3,171.5,0.5,127,103.0
873,B3,171.5,0.5,127,103.0
874,E3,171.75,0.25,77,103.0
875,G#4,172.0,0.75,127,103.0
876,G#1,172.0,0.75,127,103.0
877,D2,172.0,0.25,101,103.0
878,C2,172.0,0.25,101,103.0
879,C2,172.5,0.25,66,103.0
880,G#4,172.75,0.25,127,103.0
881,D2,172.75,0.25,93,103.0
882,G#1,172.75,0.75,127,103.0
883,C2,173.0,0.25,97,103.0
884,E3,173.0,0.25,97,103.0
885,F#2,173.0,0.25,97,103.0
886,G#4,173.5,0.5,127,103.0
887,G#1,173.5,1.0,127,103.0
888,D2,173.5,0.25,80,103.0
889,C2,173.5,0.25,80,103.0
890,C2,174.0,0.25,109,103.0
891,E-4,174.5,0.5,127,103.0
892,G#1,174.5,0.5,127,103.0
893,C2,174.5,0.25,80,103.0
894,D2,174.5,0.25,80,103.0
895,F#2,175.0,0.25,97,103.0
896,E3,175.0,0.25,97,103.0
897,C2,175.0,0.25,97,103.0
898,F#4,175.25,0.75,127,103.0
899,C2,175.5,0.25,66,103.0
900,G#4,176.0,0.5,127,103.0
901,G#1,176.0,0.75,127,103.0
902,C2,176.0,0.25,101,103.0
903,D2,176.0,0.25,101,103.0
904,B4,176.5,0.25,127,103.0
905,C2,176.5,0.25,66,103.0
906,C#5,176.75,0.25,127,103.0
907,D2,176.75,0.25,93,103.0
908,G#1,176.75,0.75,127,103.0
909,B4,177.0,0.25,127,103.0
910,C2,177.0,0.25,97,103.0
911,E3,177.0,0.25,97,103.0
912,F#2,177.0,0.25,97,103.0
913,G#4,177.25,0.25,127,103.0
914,G#4,177.5,0.5,127,103.0
915,G#1,177.5,1.0,127,103.0
916,D2,177.5,0.25,80,103.0
917,C2,177.5,0.25,80,103.0
918,C2,178.0,0.25,109,103.0
919,E-4,178.5,0.5,127,103.0
920,G#1,178.5,0.5,127,103.0
921,C2,178.5,0.25,80,103.0
922,D2,178.5,0.25,80,103.0
923,F#2,179.0,0.25,97,103.0
924,E3,179.0,0.25,97,103.0
925,C2,179.0,0.25,97,103.0
926,F#4,179.25,0.75,127,103.0
927,C2,179.5,0.25,66,103.0
928,G#4,180.0,0.75,127,103.0
929,G#1,180.0,0.75,127,103.0
930,D2,180.0,0.25,101,103.0
931,C2,180.0,0.25,101,103.0
932,C2,180.5,0.25,66,103.0
933,G#4,180.75,0.25,127,103.0
934,D2,180.75,0.25,93,103.0
935,G#1,180.75,0.75,127,103.0
936,C2,181.0,0.25,97,103.0
937,E3,181.0,0.25,97,103.0
938,F#2,181.0,0.25,97,103.0
939,G#4,181.5,0.5,127,103.0
940,G#1,181.5,1.0,127,103.0
941,C2,181.5,0.25,80,103.0
942,D2,181.5,0.25,80,103.0
943,C2,182.0,0.25,109,103.0
944,E-4,182.5,0.5,127,103.0
945,G#1,182.5,0.5,127,103.0
946,C2,182.5,0.25,80,103.0
947,D2,182.5,0.25,80,103.0
948,C2,183.0,0.25,97,103.0
949,E3,183.0,0.25,97,103.0
950,F#2,183.0,0.25,97,103.0
951,F#4,183.25,0.75,127,103.0
952,B3,183.25,0.25,127,103.0
953,C2,183.5,0.25,66,103.0
954,B3,183.5,0.5,127,103.0
955,B-2,183.75,0.25,92,103.0
956,G#4,184.0,0.5,127,103.0
957,G#1,184.0,0.75,127,103.0
958,D2,184.0,0.25,101,103.0
959,C2,184.0,0.25,101,103.0
960,E-4,184.0,0.5,127,103.0
961,B3,184.0,0.5,127,103.0
962,B4,184.5,0.25,127,103.0
963,C2,184.5,0.25,66,103.0
964,E-4,184.5,0.5,127,103.0
965,B3,184.5,0.5,127,103.0
966,C#5,184.75,0.25,127,103.0
967,D2,184.75,0.25,93,103.0
968,G#1,184.75,0.75,127,103.0
969,C#4,184.75,0.5,127,103.0
970,B4,185.0,0.25,127,103.0
971,C2,185.0,0.25,97,103.0
972,E3,185.0,0.25,97,103.0
973,F#2,185.0,0.25,97,103.0
974,B3,185.0,0.5,127,103.0
975,E-4,185.0,0.5,127,103.0
976,G#4,185.25,0.25,127,103.0
977,C#4,185.25,0.5,127,103.0
978,G#4,185.5,0.5,127,103.0
979,G#1,185.5,1.0,127,103.0
980,D2,185.5,0.25,80,103.0
981,C2,185.5,0.25,80,103.0
982,E-4,185.5,0.5,127,103.0
983,B3,185.5,0.5,127,103.0
984,G#3,185.75,0.75,127,103.0
985,C2,186.0,0.25,109,103.0
986,B3,186.0,0.5,127,103.0
987,E-4,186.0,0.75,127,103.0
988,E-4,186.5,0.5,127,103.0
989,G#1,186.5,0.5,127,103.0
990,B3,186.5,0.5,127,103.0
991,G#3,186.5,0.75,127,103.0
992,G#2,186.5,0.25,95,103.0
993,D2,186.5,0.25,95,103.0
994,C2,186.5,0.25,95,103.0
995,E-4,187.0,0.75,127,103.0
996,B3,187.0,0.5,127,103.0
997,C2,187.0,0.25,97,103.0
998,E3,187.0,0.25,97,103.0
999,F#2,187.0,0.25,97,103.0
1000,F#4,187.25,0.75,127,103.0
1001,E3,187.25,0.25,77,103.0
1002,E3,187.5,0.25,72,103.0
1003,C2,187.5,0.25,72,103.0
1004,B3,187.5,0.5,127,103.0
1005,G#3,187.5,0.5,127,103.0
1006,E3,187.75,0.25,77,103.0
1007,G#4,188.0,0.75,127,103.0
1008,G#4,188.75,0.25,127,103.0
1009,G#4,189.5,0.5,127,103.0
1010,C#4,190.25,0.25,127,103.0
1011,E-4,190.5,0.5,127,103.0
1012,E-4,190.5,0.25,127,103.0
1013,C#4,190.75,0.25,127,103.0
1014,E4,191.0,0.5,127,103.0
1015,F#4,191.25,0.75,127,103.0
1016,G#4,192.0,0.5,127,103.0
1017,B4,192.5,0.25,127,103.0
1018,C#5,192.75,0.25,127,103.0
1019,B4,193.0,0.25,127,103.0
1020,G#4,193.25,0.25,127,103.0
1021,G#4,193.5,0.5,127,103.0
1022,E-4,193.5,0.5,127,103.0
1023,E-4,194.5,0.5,127,103.0
1024,C#4,194.5,0.25,127,103.0
1025,E-4,194.75,0.25,127,103.0
1026,E4,195.0,0.5,127,103.0
1027,F#4,195.25,0.75,127,103.0
1028,E4,196.0,0.5,127,103.0
1029,D2,196.0,0.25,100,103.0
1030,C2,196.0,0.25,100,103.0
1031,C2,196.5,0.25,66,103.0
1032,E-4,196.5,0.25,127,103.0
1033,D2,196.75,0.25,92,103.0
1034,E4,196.75,0.25,127,103.0
1035,E-4,197.0,0.25,127,103.0
1036,C2,197.0,0.25,100,103.0
1037,D2,197.0,0.25,100,103.0
1038,C#4,197.25,0.25,127,103.0
1039,B3,197.5,0.25,127,103.0
1040,C2,197.5,0.25,79,103.0
1041,D2,197.5,0.25,79,103.0
1042,B-3,197.75,0.25,127,103.0
1043,C2,198.0,0.25,109,103.0
1044,E-4,198.0,0.25,127,103.0
1045,E4,198.25,0.25,127,103.0
1046,C#4,198.5,0.25,127,103.0
1047,C2,198.5,0.25,79,103.0
1048,D2,198.5,0.25,79,103.0
1049,B3,198.75,0.25,127,103.0
1050,E4,199.0,0.5,127,103.0
1051,D2,199.0,0.25,100,103.0
1052,C2,199.0,0.25,100,103.0
1053,C2,199.5,0.25,66,103.0
1054,C#4,199.5,0.5,127,103.0
1055,D2,199.75,0.25,92,103.0
1056,C2,200.0,0.25,100,103.0
1057,D2,200.0,0.25,100,103.0
1058,B3,200.25,0.25,127,103.0
1059,C2,200.5,0.25,66,103.0
1060,E4,200.5,0.25,127,103.0
1061,D2,200.75,0.25,92,103.0
1062,E-4,200.75,0.5,127,103.0
1063,C2,201.0,0.25,100,103.0
1064,D2,201.0,0.25,100,103.0
1065,C#4,201.25,0.25,127,103.0
1066,B3,201.5,0.25,127,103.0
1067,D2,201.5,0.25,79,103.0
1068,C2,201.5,0.25,79,103.0
1069,B-3,201.75,0.25,127,103.0
1070,C2,202.0,0.25,109,103.0
1071,C#4,202.0,0.25,127,103.0
1072,E-4,202.25,0.25,127,103.0
1073,B3,202.5,0.25,127,103.0
1074,C2,202.5,0.25,79,103.0
1075,D2,202.5,0.25,79,103.0
1076,E-4,202.75,0.25,127,103.0
1077,E4,203.0,0.5,127,103.0
1078,C2,203.0,0.25,100,103.0
1079,D2,203.0,0.25,100,103.0
1080,C2,203.5,0.25,66,103.0
1081,B3,203.5,0.25,127,103.0
1082,B-3,203.75,0.25,127,103.0
1083,F#4,204.0,0.25,127,103.0
1084,C2,204.0,0.25,100,103.0
1085,D2,204.0,0.25,100,103.0
1086,E-4,204.25,0.25,127,103.0
1087,C2,204.5,0.25,66,103.0
1088,C#4,204.5,0.25,127,103.0
1089,D2,204.75,0.25,92,103.0
1090,B3,204.75,0.25,127,103.0
1091,E4,205.0,0.5,127,103.0
1092,D2,205.0,0.25,100,103.0
1093,C2,205.0,0.25,100,103.0
1094,C#4,205.5,0.25,127,103.0
1095,C2,205.5,0.25,79,103.0
1096,D2,205.5,0.25,79,103.0
1097,B3,205.75,0.25,127,103.0
1098,C2,206.0,0.25,109,103.0
1099,E4,206.0,0.25,127,103.0
1100,E4,206.25,0.25,127,103.0
1101,E-4,206.5,0.25,127,103.0
1102,C2,206.5,0.25,79,103.0
1103,D2,206.5,0.25,79,103.0
1104,E-4,206.75,0.25,127,103.0
1105,E4,207.0,0.5,127,103.0
1106,C2,207.0,0.25,100,103.0
1107,D2,207.0,0.25,100,103.0
1108,C2,207.5,0.25,66,103.0
1109,C#4,207.5,0.25,127,103.0
1110,D2,207.75,0.25,92,103.0
1111,B3,207.75,0.25,127,103.0
1112,E4,208.0,0.25,127,103.0
1113,C2,208.0,0.25,100,103.0
1114,D2,208.0,0.25,100,103.0
1115,E-4,208.25,0.5,127,103.0
1116,C2,208.5,0.25,66,103.0
1117,D2,208.75,0.25,92,103.0
1118,C#4,208.75,0.25,127,103.0
1119,B3,209.0,0.25,127,103.0
1120,C2,209.0,0.25,100,103.0
1121,D2,209.0,0.25,100,103.0
1122,C#4,209.25,0.25,127,103.0
1123,B-3,209.5,0.25,127,103.0
1124,D2,209.5,0.25,79,103.0
1125,C2,209.5,0.25,79,103.0
1126,C#4,209.75,0.25,127,103.0
1127,C2,210.0,0.25,109,103.0
1128,B-3,210.0,0.25,127,103.0
1129,B3,210.25,0.25,127,103.0
1130,C2,210.5,0.25,66,103.0
1131,C#4,210.5,0.25,127,103.0
1132,E-4,210.75,0.25,127,103.0
1133,C2,211.0,0.25,109,103.0
1134,E4,211.0,0.5,127,103.0
1135,C2,211.5,0.25,66,103.0
1136,C#4,211.5,0.5,127,103.0
1137,G#1,212.0,0.75,127,103.0
1138,C2,212.0,0.25,86,103.0
1139,D2,212.0,0.25,86,103.0
1140,B-2,212.0,0.25,86,103.0
1141,B-2,212.25,0.25,56,103.0
1142,E-4,212.5,0.25,127,103.0
1143,C2,212.5,0.25,61,103.0
1144,B-2,212.5,0.25,61,103.0
1145,G#1,212.75,0.75,127,103.0
1146,E4,212.75,0.25,127,103.0
1147,B-2,212.75,0.25,74,103.0
1148,D2,212.75,0.25,74,103.0
1149,E-4,213.0,0.25,127,103.0
1150,F#2,213.0,0.25,87,103.0
1151,B-2,213.0,0.25,87,103.0
1152,E3,213.0,0.25,87,103.0
1153,C2,213.0,0.25,87,103.0
1154,B-2,213.25,0.25,56,103.0
1155,E4,213.25,0.25,127,103.0
1156,G#1,213.5,1.0,127,103.0
1157,C#4,213.5,0.25,127,103.0
1158,C2,213.5,0.25,71,103.0
1159,D2,213.5,0.25,71,103.0
1160,B-2,213.5,0.25,71,103.0
1161,B-2,213.75,0.25,56,103.0
1162,E-4,213.75,0.25,127,103.0
1163,E4,214.0,0.25,127,103.0
1164,C2,214.0,0.25,82,103.0
1165,B-2,214.0,0.25,82,103.0
1166,B-2,214.25,0.25,56,103.0
1167,C#4,214.25,0.25,127,103.0
1168,G#1,214.5,0.5,127,103.0
1169,B3,214.5,0.25,127,103.0
1170,C2,214.5,0.25,71,103.0
1171,D2,214.5,0.25,71,103.0
1172,B-2,214.5,0.25,71,103.0
1173,B-2,214.75,0.25,56,103.0
1174,B-3,214.75,0.25,127,103.0
1175,E-4,215.0,0.25,127,103.0
1176,C2,215.0,0.25,87,103.0
1177,E3,215.0,0.25,87,103.0
1178,B-2,215.0,0.25,87,103.0
1179,F#2,215.0,0.25,87,103.0
1180,B-2,215.25,0.25,56,103.0
1181,E4,215.25,0.25,127,103.0
1182,C#4,215.5,0.25,127,103.0
1183,C2,215.5,0.25,61,103.0
1184,B-2,215.5,0.25,61,103.0
1185,B-2,215.75,0.25,56,103.0
1186,B3,215.75,0.25,127,103.0
1187,G#1,216.0,0.75,127,103.0
1188,E-4,216.0,0.25,127,103.0
1189,B-2,216.0,0.25,86,103.0
1190,D2,216.0,0.25,86,103.0
1191,C2,216.0,0.25,86,103.0
1192,B-2,216.25,0.25,56,103.0
1193,E4,216.25,0.25,127,103.0
1194,C#4,216.5,0.25,127,103.0
1195,B-2,216.5,0.25,61,103.0
1196,C2,216.5,0.25,61,103.0
1197,G#1,216.75,0.75,127,103.0
1198,B3,216.75,0.25,127,103.0
1199,B-2,216.75,0.25,74,103.0
1200,D2,216.75,0.25,74,103.0
1201,E4,217.0,0.25,127,103.0
1202,F#2,217.0,0.25,87,103.0
1203,B-2,217.0,0.25,87,103.0
1204,E3,217.0,0.25,87,103.0
1205,C2,217.0,0.25,87,103.0
1206,B-2,217.25,0.25,56,103.0
1207,C#4,217.25,0.25,127,103.0
1208,G#1,217.5,1.0,127,103.0
1209,B3,217.5,0.25,127,103.0
1210,C2,217.5,0.25,71,103.0
1211,D2,217.5,0.25,71,103.0
1212,B-2,217.5,0.25,71,103.0
1213,B-2,217.75,0.25,56,103.0
1214,E-4,217.75,0.25,127,103.0
1215,B-3,218.0,0.25,127,103.0
1216,C2,218.0,0.25,82,103.0
1217,B-2,218.0,0.25,82,103.0
1218,B-2,218.25,0.25,56,103.0
1219,B3,218.25,0.25,127,103.0
1220,G#1,218.5,0.5,127,103.0
1221,C#4,218.5,0.25,127,103.0
1222,C2,218.5,0.25,71,103.0
1223,D2,218.5,0.25,71,103.0
1224,B-2,218.5,0.25,71,103.0
1225,B-2,218.75,0.25,56,103.0
1226,E-4,218.75,0.25,127,103.0
1227,E4,219.0,0.25,127,103.0
1228,F#2,219.0,0.25,87,103.0
1229,B-2,219.0,0.25,87,103.0
1230,E3,219.0,0.25,87,103.0
1231,C2,219.0,0.25,87,103.0
1232,B-2,219.25,0.25,56,103.0
1233,C#4,219.25,0.25,127,103.0
1234,B3,219.5,0.25,127,103.0
1235,C2,219.5,0.25,61,103.0
1236,B-2,219.5,0.25,61,103.0
1237,B-2,219.75,0.25,56,103.0
1238,B-3,219.75,0.25,127,103.0
1239,G#1,220.0,0.75,127,103.0
1240,E-4,220.0,0.25,127,103.0
1241,B-2,220.0,0.25,86,103.0
1242,D2,220.0,0.25,86,103.0
1243,C2,220.0,0.25,86,103.0
1244,B-2,220.25,0.25,56,103.0
1245,E-4,220.5,0.5,127,103.0
1246,C2,220.5,0.25,61,103.0
1247,B-2,220.5,0.25,61,103.0
1248,G#1,220.75,0.75,127,103.0
1249,D2,220.75,0.25,74,103.0
1250,B-2,220.75,0.25,74,103.0
1251,E4,221.0,0.5,127,103.0
1252,F#2,221.0,0.25,87,103.0
1253,B-2,221.0,0.25,87,103.0
1254,E3,221.0,0.25,87,103.0
1255,C2,221.0,0.25,87,103.0
1256,B-2,221.25,0.25,56,103.0
1257,G#1,221.5,1.0,127,103.0
1258,C#4,221.5,0.25,127,103.0
1259,B-2,221.5,0.25,71,103.0
1260,D2,221.5,0.25,71,103.0
1261,C2,221.5,0.25,71,103.0
1262,B-2,221.75,0.25,56,103.0
1263,B3,221.75,0.25,127,103.0
1264,C#4,222.0,0.25,127,103.0
1265,C2,222.0,0.25,82,103.0
1266,B-2,222.0,0.25,82,103.0
1267,B-2,222.25,0.25,56,103.0
1268,E4,222.25,0.25,127,103.0
1269,G#1,222.5,0.5,127,103.0
1270,C#4,222.5,0.25,127,103.0
1271,C2,222.5,0.25,71,103.0
1272,D2,222.5,0.25,71,103.0
1273,B-2,222.5,0.25,71,103.0
1274,B-2,222.75,0.25,56,103.0
1275,B3,222.75,0.25,127,103.0
1276,C#4,223.0,0.25,127,103.0
1277,C2,223.0,0.25,87,103.0
1278,E3,223.0,0.25,87,103.0
1279,B-2,223.0,0.25,87,103.0
1280,F#2,223.0,0.25,87,103.0
1281,B-2,223.25,0.25,56,103.0
1282,E4,223.25,0.25,127,103.0
1283,C#4,223.5,0.25,127,103.0
1284,B-2,223.5,0.25,61,103.0
1285,C2,223.5,0.25,61,103.0
1286,B-2,223.75,0.25,56,103.0
1287,B-3,223.75,0.25,127,103.0
1288,G#1,224.0,0.75,127,103.0
1289,C#4,224.0,0.25,127,103.0
1290,C2,224.0,0.25,86,103.0
1291,D2,224.0,0.25,86,103.0
1292,B-2,224.0,0.25,86,103.0
1293,B-2,224.25,0.25,56,103.0
1294,E4,224.25,0.25,127,103.0
1295,C#4,224.5,0.25,127,103.0
1296,C2,224.5,0.25,61,103.0
1297,B-2,224.5,0.25,61,103.0
1298,G#1,224.75,0.75,127,103.0
1299,B-3,224.75,0.25,127,103.0
1300,D2,224.75,0.25,74,103.0
1301,B-2,224.75,0.25,74,103.0
1302,E4,225.0,0.5,127,103.0
1303,F#2,225.0,0.25,97,103.0
1304,E3,225.0,0.25,97,103.0
1305,C2,225.0,0.25,97,103.0
1306,D2,225.5,0.25,92,103.0
1307,G#1,225.5,1.0,127,103.0
1308,C#4,225.5,0.25,127,103.0
1309,B-3,225.75,0.25,127,103.0
1310,C#4,226.0,0.25,127,103.0
1311,E4,226.25,0.25,127,103.0
1312,G#1,226.5,0.5,127,103.0
1313,C#4,226.5,0.25,127,103.0
1314,D2,226.5,0.25,110,103.0
1315,G#2,226.5,0.25,110,103.0
1316,E-4,226.75,0.25,127,103.0
1317,E3,227.0,0.25,77,103.0
1318,E4,227.0,0.5,127,103.0
1319,E3,227.25,0.25,77,103.0
1320,E3,227.5,0.25,77,103.0
1321,B-3,227.5,0.25,127,103.0
1322,E3,227.75,0.25,77,103.0
1323,C#4,227.75,0.25,127,103.0
1324,G#4,228.0,0.75,127,103.0
1325,G#1,228.0,0.75,127,103.0
1326,G#3,228.0,0.75,101,103.0
1327,E4,228.0,0.25,127,103.0
1328,D2,228.0,0.25,100,103.0
1329,C2,228.0,0.25,100,103.0
1330,C2,228.5,0.25,66,103.0
1331,E-4,228.5,0.25,127,103.0
1332,G#4,228.75,0.25,127,103.0
1333,D2,228.75,0.25,92,103.0
1334,G#1,228.75,0.75,127,103.0
1335,G#3,228.75,0.25,101,103.0
1336,E4,228.75,0.25,127,103.0
1337,E-4,229.0,0.25,127,103.0
1338,F#2,229.0,0.25,97,103.0
1339,E3,229.0,0.25,97,103.0
1340,C2,229.0,0.25,97,103.0
1341,C#4,229.25,0.25,127,103.0
1342,G#4,229.5,0.5,127,103.0
1343,G#1,229.5,1.0,127,103.0
1344,G#3,229.5,0.5,101,103.0
1345,B3,229.5,0.25,127,103.0
1346,C2,229.5,0.25,79,103.0
1347,D2,229.5,0.25,79,103.0
1348,E-4,229.75,0.25,127,103.0
1349,C2,230.0,0.25,109,103.0
1350,E4,230.0,0.25,127,103.0
1351,C#4,230.25,0.25,127,103.0
1352,E-4,230.5,0.5,127,103.0
1353,G#1,230.5,0.5,127,103.0
1354,E-3,230.5,0.75,101,103.0
1355,E-4,230.5,0.25,127,103.0
1356,D2,230.5,0.25,79,103.0
1357,C2,230.5,0.25,79,103.0
1358,E4,230.75,0.25,127,103.0
1359,E-4,231.0,0.25,127,103.0
1360,C2,231.0,0.25,97,103.0
1361,E3,231.0,0.25,97,103.0
1362,F#2,231.0,0.25,97,103.0
1363,F#4,231.25,0.75,127,103.0
1364,F#3,231.25,0.75,101,103.0
1365,C#4,231.25,0.25,127,103.0
1366,C2,231.5,0.25,66,103.0
1367,B-3,231.5,0.25,127,103.0
1368,E4,231.75,0.25,127,103.0
1369,G#4,232.0,0.5,127,103.0
1370,G#1,232.0,0.75,127,103.0
1371,E-4,232.0,0.25,127,103.0
1372,D2,232.0,0.25,100,103.0
1373,C2,232.0,0.25,100,103.0
1374,C#4,232.25,0.25,127,103.0
1375,B4,232.5,0.25,127,103.0
1376,C2,232.5,0.25,66,103.0
1377,B3,232.5,0.25,127,103.0
1378,C#5,232.75,0.25,127,103.0
1379,D2,232.75,0.25,92,103.0
1380,G#1,232.75,0.75,127,103.0
1381,B-3,232.75,0.25,127,103.0
1382,B4,233.0,0.25,127,103.0
1383,E-4,233.0,0.25,127,103.0
1384,C2,233.0,0.25,97,103.0
1385,E3,233.0,0.25,97,103.0
1386,F#2,233.0,0.25,97,103.0
1387,G#4,233.25,0.25,127,103.0
1388,C#4,233.25,0.25,127,103.0
1389,G#4,233.5,0.5,127,103.0
1390,G#1,233.5,1.0,127,103.0
1391,B-3,233.5,0.25,127,103.0
1392,C2,233.5,0.25,79,103.0
1393,D2,233.5,0.25,79,103.0
1394,C#4,233.75,0.25,127,103.0
1395,C2,234.0,0.25,109,103.0
1396,B-3,234.0,0.25,127,103.0
1397,B3,234.25,0.25,127,103.0
1398,E-4,234.5,0.5,127,103.0
1399,G#1,234.5,0.5,127,103.0
1400,C#4,234.5,0.25,127,103.0
1401,C2,234.5,0.25,79,103.0
1402,D2,234.5,0.25,79,103.0
1403,E-4,234.75,0.25,127,103.0
1404,E4,235.0,0.25,127,103.0
1405,F#2,235.0,0.25,97,103.0
1406,E3,235.0,0.25,97,103.0
1407,C2,235.0,0.25,97,103.0
1408,F#4,235.25,0.75,127,103.0
1409,C#4,235.25,0.25,127,103.0
1410,C2,235.5,0.25,66,103.0
1411,B3,235.5,0.25,127,103.0
1412,B-3,235.75,0.25,127,103.0
1413,G#1,236.0,0.75,127,103.0
1414,G#3,236.0,0.75,110,103.0
1415,E-4,236.0,0.25,127,103.0
1416,D2,236.0,0.25,100,103.0
1417,C2,236.0,0.25,100,103.0
1418,E4,236.25,0.25,127,103.0
1419,C2,236.5,0.25,66,103.0
1420,E-4,236.5,0.5,127,103.0
1421,D2,236.75,0.25,92,103.0
1422,G#1,236.75,0.75,127,103.0
1423,G#3,236.75,0.75,110,103.0
1424,B-3,237.0,0.25,127,103.0
1425,F#2,237.0,0.25,97,103.0
1426,E3,237.0,0.25,97,103.0
1427,C2,237.0,0.25,97,103.0
1428,B3,237.25,0.25,127,103.0
1429,G#1,237.5,1.0,127,103.0
1430,G#3,237.5,1.0,110,103.0
1431,C#4,237.5,0.25,127,103.0
1432,C2,237.5,0.25,79,103.0
1433,D2,237.5,0.25,79,103.0
1434,E-4,237.75,0.25,127,103.0
1435,C2,238.0,0.25,109,103.0
1436,F#4,238.0,0.5,127,103.0
1437,G#1,238.5,0.5,127,103.0
1438,E-3,238.5,0.75,110,103.0
1439,G#4,238.5,0.25,127,103.0
1440,D2,238.5,0.25,79,103.0
1441,C2,238.5,0.25,79,103.0
1442,E-4,238.75,0.5,127,103.0
1443,C2,239.0,0.25,97,103.0
1444,E3,239.0,0.25,97,103.0
1445,F#2,239.0,0.25,97,103.0
1446,F#3,239.25,0.75,110,103.0
1447,F#4,239.25,0.25,127,103.0
1448,C2,239.5,0.25,66,103.0
1449,G#4,239.5,0.5,127,103.0
1450,B4,240.0,0.25,127,103.0
1451,G#4,240.25,0.25,127,103.0
1452,F#4,240.5,0.5,127,103.0
1453,G#4,241.0,0.25,127,103.0
1454,F#4,241.25,0.25,127,103.0
1455,E-4,241.5,0.25,127,103.0
1456,C#4,241.75,0.25,127,103.0
1457,D4,242.0,0.5,127,103.0
1458,C#4,242.5,0.25,127,103.0
1459,B3,242.75,0.75,127,103.0
1460,C#4,243.5,0.5,127,103.0
1461,E2,244.0,2.75,127,103.0
1462,C2,244.0,0.25,66,103.0
1463,E2,244.0,2.75,127,103.0
1464,E-4,244.0,0.5,77,103.0
1465,B3,244.0,0.5,77,103.0
1466,C2,244.25,0.25,43,103.0
1467,C2,244.5,0.25,87,103.0
1468,E-4,244.5,0.5,77,103.0
1469,B3,244.5,0.5,77,103.0
1470,C2,244.75,0.25,43,103.0
1471,C2,245.0,0.25,43,103.0
1472,E-4,245.0,0.5,77,103.0
1473,B3,245.0,0.5,77,103.0
1474,C2,245.25,0.25,43,103.0
1475,C2,245.5,0.25,87,103.0
1476,E-4,245.5,0.5,77,103.0
1477,B3,245.5,0.5,77,103.0
1478,C2,245.75,0.25,43,103.0
1479,C2,246.0,0.25,43,103.0
1480,E-4,246.0,0.5,77,103.0
1481,B3,246.0,0.5,77,103.0
1482,C2,246.25,0.25,43,103.0
1483,F#2,246.5,1.5,127,103.0
1484,C2,246.5,0.25,87,103.0
1485,F#2,246.5,1.5,127,103.0
1486,B3,246.5,1.0,127,103.0
1487,B-3,246.5,0.5,77,103.0
1488,C#4,246.5,0.5,77,103.0
1489,C2,246.75,0.25,43,103.0
1490,C2,247.0,0.25,43,103.0
1491,C#4,247.0,0.5,77,103.0
1492,B-3,247.0,0.5,77,103.0
1493,C2,247.25,0.25,43,103.0
1494,C#4,247.25,0.5,127,103.0
1495,C2,247.5,0.25,87,103.0
1496,B3,247.5,0.5,127,103.0
1497,C#4,247.5,0.5,77,103.0
1498,B-3,247.5,0.5,77,103.0
1499,C2,247.75,0.25,43,103.0
1500,B1,248.0,2.5,127,103.0
1501,F#2,248.0,0.25,127,103.0
1502,C2,248.0,0.25,43,103.0
1503,B1,248.0,2.5,127,103.0
1504,F#2,248.0,0.25,127,103.0
1505,E-4,248.0,0.5,77,103.0
1506,F#4,248.0,0.5,77,103.0
1507,B3,248.0,0.5,127,103.0
1508,E-4,248.0,0.5,127,103.0
1509,C2,248.25,0.25,43,103.0
1510,C2,248.5,0.25,87,103.0
1511,E-4,248.5,0.5,77,103.0
1512,F#4,248.5,0.5,77,103.0
1513,E-4,248.5,0.5,127,103.0
1514,B3,248.5,0.5,127,103.0
1515,C2,248.75,0.25,43,103.0
1516,C2,249.0,0.25,43,103.0
1517,E-4,249.0,0.5,77,103.0
1518,F#4,249.0,0.5,77,103.0
1519,B3,249.0,0.5,127,103.0
1520,E-4,249.0,0.5,127,103.0
1521,C2,249.25,0.25,43,103.0
1522,C2,249.5,0.25,87,103.0
1523,E-4,249.5,0.5,77,103.0
1524,F#4,249.5,0.5,77,103.0
1525,B3,249.5,0.5,127,103.0
1526,E-4,249.5,0.5,127,103.0
1527,C2,249.75,0.25,43,103.0
1528,C2,250.0,0.25,43,103.0
1529,E-4,250.0,0.75,127,103.0
1530,B3,250.0,0.5,127,103.0
1531,F#4,250.0,0.5,77,103.0
1532,E-4,250.0,0.5,77,103.0
1533,C2,250.25,0.25,43,103.0
1534,B1,250.5,1.5,127,103.0
1535,C2,250.5,0.25,87,103.0
1536,B1,250.5,1.5,127,103.0
1537,G#3,250.5,0.75,127,103.0
1538,B3,250.5,0.5,127,103.0
1539,F#4,250.5,0.5,77,103.0
1540,E-4,250.5,0.5,77,103.0
1541,C2,250.75,0.25,43,103.0
1542,C2,251.0,0.25,43,103.0
1543,E-4,251.0,0.75,127,103.0
1544,B3,251.0,0.5,127,103.0
1545,F#4,251.0,0.5,77,103.0
1546,E-4,251.0,0.5,77,103.0
1547,C2,251.25,0.25,43,103.0
1548,C2,251.5,0.25,87,103.0
1549,E-4,251.5,0.5,77,103.0
1550,F#4,251.5,0.5,77,103.0
1551,B3,251.5,0.5,127,103.0
1552,G#3,251.5,0.5,127,103.0
1553,C2,251.75,0.25,43,103.0
1554,E2,252.0,2.75,127,103.0
1555,B1,252.0,0.25,127,103.0
1556,C2,252.0,0.25,66,103.0
1557,E2,252.0,2.75,127,103.0
1558,B1,252.0,0.25,127,103.0
1559,E-4,252.0,0.5,77,103.0
1560,B3,252.0,0.5,77,103.0
1561,B3,252.0,0.25,127,103.0
1562,G#3,252.0,0.25,127,103.0
1563,C2,252.25,0.25,43,103.0
1564,C2,252.5,0.25,87,103.0
1565,E-4,252.5,0.5,77,103.0
1566,B3,252.5,0.5,77,103.0
1567,C2,252.75,0.25,43,103.0
1568,C2,253.0,0.25,43,103.0
1569,E-4,253.0,0.5,77,103.0
1570,B3,253.0,0.5,77,103.0
1571,C2,253.25,0.25,43,103.0
1572,C2,253.5,0.25,87,103.0
1573,B3,253.5,0.5,77,103.0
1574,E-4,253.5,0.5,77,103.0
1575,C2,253.75,0.25,43,103.0
1576,C2,254.0,0.25,43,103.0
1577,B3,254.0,0.5,77,103.0
1578,E-4,254.0,0.5,77,103.0
1579,C2,254.25,0.25,43,103.0
1580,F#2,254.5,1.5,127,103.0
1581,C2,254.5,0.25,87,103.0
1582,F#2,254.5,1.5,127,103.0
1583,C#4,254.5,0.5,77,103.0
1584,B-3,254.5,0.5,77,103.0
1585,C2,254.75,0.25,43,103.0
1586,C2,255.0,0.25,43,103.0
1587,B3,255.0,0.5,127,103.0
1588,B-3,255.0,0.5,77,103.0
1589,C#4,255.0,0.5,77,103.0
1590,C2,255.25,0.25,43,103.0
1591,C#4,255.25,0.5,127,103.0
1592,C2,255.5,0.25,87,103.0
1593,B-3,255.5,0.5,127,103.0
1594,B-3,255.5,0.5,77,103.0
1595,C#4,255.5,0.5,77,103.0
1596,C2,255.75,0.25,43,103.0
1597,B3,255.75,0.25,127,103.0
1598,G#1,256.0,2.5,127,103.0
1599,F#2,256.0,0.25,127,103.0
1600,C2,256.0,0.25,43,103.0
1601,G#1,256.0,2.5,127,103.0
1602,F#2,256.0,0.25,127,103.0
1603,G#3,256.0,1.25,127,103.0
1604,E-4,256.0,0.5,77,103.0
1605,B3,256.0,0.5,77,103.0
1606,B3,256.0,0.5,127,103.0
1607,E-4,256.0,0.5,127,103.0
1608,C2,256.25,0.25,43,103.0
1609,C2,256.5,0.25,87,103.0
1610,B3,256.5,0.5,77,103.0
1611,E-4,256.5,0.5,77,103.0
1612,B3,256.5,0.5,127,103.0
1613,E-4,256.5,0.5,127,103.0
1614,C2,256.75,0.25,43,103.0
1615,C2,257.0,0.25,43,103.0
1616,E-4,257.0,0.5,77,103.0
1617,B3,257.0,0.5,77,103.0
1618,E-4,257.0,0.5,127,103.0
1619,B3,257.0,0.5,127,103.0
1620,C2,257.25,0.25,43,103.0
1621,C2,257.5,0.25,87,103.0
1622,B3,257.5,0.5,77,103.0
1623,E-4,257.5,0.5,77,103.0
1624,B3,257.5,0.5,127,103.0
1625,E-4,257.5,0.5,127,103.0
1626,C2,257.75,0.25,43,103.0
1627,C2,258.0,0.25,43,103.0
1628,E-4,258.0,0.75,127,103.0
1629,B3,258.0,0.5,127,103.0
1630,B3,258.0,0.5,77,103.0
1631,E-4,258.0,0.5,77,103.0
1632,C2,258.25,0.25,43,103.0
1633,G#1,258.5,1.5,127,103.0
1634,C2,258.5,0.25,87,103.0
1635,G#1,258.5,1.5,127,103.0
1636,B3,258.5,0.5,127,103.0
1637,G#3,258.5,0.75,127,103.0
1638,B3,258.5,0.5,77,103.0
1639,E-4,258.5,0.5,77,103.0
1640,C2,258.75,0.25,43,103.0
1641,C2,259.0,0.25,43,103.0
1642,B3,259.0,0.5,127,103.0
1643,E-4,259.0,0.75,127,103.0
1644,B3,259.0,0.5,77,103.0
1645,E-4,259.0,0.5,77,103.0
1646,C2,259.25,0.25,43,103.0
1647,C2,259.5,0.25,87,103.0
1648,B3,259.5,0.5,77,103.0
1649,E-4,259.5,0.5,77,103.0
1650,B3,259.5,0.5,127,103.0
1651,G#3,259.5,0.5,127,103.0
1652,C2,259.75,0.25,43,103.0
1653,E2,260.0,2.75,127,103.0
1654,C2,260.0,0.25,66,103.0
1655,E2,260.0,2.75,127,103.0
1656,E-4,260.0,0.5,77,103.0
1657,B3,260.0,0.5,77,103.0
1658,B3,260.0,0.25,127,103.0
1659,G#3,260.0,0.25,127,103.0
1660,C2,260.25,0.25,43,103.0
1661,C2,260.5,0.25,87,103.0
1662,E-4,260.5,0.5,77,103.0
1663,B3,260.5,0.5,77,103.0
1664,C2,260.75,0.25,43,103.0
1665,C2,261.0,0.25,43,103.0
1666,E-4,261.0,0.5,77,103.0
1667,B3,261.0,0.5,77,103.0
1668,C2,261.25,0.25,43,103.0
1669,C2,261.5,0.25,87,103.0
1670,E-4,261.5,0.5,77,103.0
1671,B3,261.5,0.5,77,103.0
1672,C2,261.75,0.25,43,103.0
1673,C2,262.0,0.25,43,103.0
1674,E-4,262.0,0.5,77,103.0
1675,B3,262.0,0.5,77,103.0
1676,C2,262.25,0.25,43,103.0
1677,F#2,262.5,1.5,127,103.0
1678,C2,262.5,0.25,87,103.0
1679,F#2,262.5,1.5,127,103.0
1680,B-3,262.5,0.5,77,103.0
1681,C#4,262.5,0.5,77,103.0
1682,C2,262.75,0.25,43,103.0
1683,C2,263.0,0.25,43,103.0
1684,C#4,263.0,0.5,77,103.0
1685,B-3,263.0,0.5,77,103.0
1686,C2,263.25,0.25,43,103.0
1687,C2,263.5,0.25,87,103.0
1688,B-3,263.5,0.5,77,103.0
1689,C#4,263.5,0.5,77,103.0
1690,C2,263.75,0.25,43,103.0
1691,B1,264.0,2.5,127,103.0
1692,F#2,264.0,0.25,127,103.0
1693,C2,264.0,0.25,43,103.0
1694,B1,264.0,2.5,127,103.0
1695,F#2,264.0,0.25,127,103.0
1696,E-4,264.0,0.5,77,103.0
1697,F#4,264.0,0.5,77,103.0
1698,C2,264.25,0.25,43,103.0
1699,C2,264.5,0.25,87,103.0
1700,E-4,264.5,0.5,77,103.0
1701,F#4,264.5,0.5,77,103.0
1702,C2,264.75,0.25,43,103.0
1703,C2,265.0,0.25,43,103.0
1704,E-4,265.0,0.5,77,103.0
1705,F#4,265.0,0.5,77,103.0
1706,C2,265.25,0.25,43,103.0
1707,C2,265.5,0.25,87,103.0
1708,F#4,265.5,0.5,77,103.0
1709,E-4,265.5,0.5,77,103.0
1710,C2,265.75,0.25,43,103.0
1711,C2,266.0,0.25,43,103.0
1712,E-4,266.0,0.5,77,103.0
1713,F#4,266.0,0.5,77,103.0
1714,C2,266.25,0.25,43,103.0
1715,B1,266.5,1.5,127,103.0
1716,C2,266.5,0.25,87,103.0
1717,B1,266.5,1.5,127,103.0
1718,F#4,266.5,0.5,77,103.0
1719,E-4,266.5,0.5,77,103.0
1720,C2,266.75,0.25,43,103.0
1721,C2,267.0,0.25,43,103.0
1722,E-4,267.0,0.5,77,103.0
1723,F#4,267.0,0.5,77,103.0
1724,C2,267.25,0.25,43,103.0
1725,C2,267.5,0.25,87,103.0
1726,F#4,267.5,0.5,77,103.0
1727,E-4,267.5,0.5,77,103.0
1728,C2,267.75,0.25,43,103.0
1729,E2,268.0,2.75,127,103.0
1730,B1,268.0,0.25,127,103.0
1731,C2,268.0,0.25,66,103.0
1732,E2,268.0,2.75,127,103.0
1733,B1,268.0,0.25,127,103.0
1734,B3,268.0,0.5,77,103.0
1735,E-4,268.0,0.5,77,103.0
1736,C2,268.25,0.25,43,103.0
1737,C2,268.5,0.25,87,103.0
1738,B3,268.5,0.5,77,103.0
1739,E-4,268.5,0.5,77,103.0
1740,C2,268.75,0.25,43,103.0
1741,C2,269.0,0.25,43,103.0
1742,E-4,269.0,0.5,77,103.0
1743,B3,269.0,0.5,77,103.0
1744,C2,269.25,0.25,43,103.0
1745,C2,269.5,0.25,87,103.0
1746,E-4,269.5,0.5,77,103.0
1747,B3,269.5,0.5,77,103.0
1748,C2,269.75,0.25,43,103.0
1749,C2,270.0,0.25,43,103.0
1750,E-4,270.0,0.5,77,103.0
1751,B3,270.0,0.5,77,103.0
1752,C2,270.25,0.25,43,103.0
1753,F#2,270.5,1.5,127,103.0
1754,C2,270.5,0.25,87,103.0
1755,F#2,270.5,1.5,127,103.0
1756,C#4,270.5,0.5,77,103.0
1757,B-3,270.5,0.5,77,103.0
1758,C2,270.75,0.25,43,103.0
1759,C2,271.0,0.25,43,103.0
1760,C#4,271.0,0.5,77,103.0
1761,B-3,271.0,0.5,77,103.0
1762,C2,271.25,0.25,43,103.0
1763,C2,271.5,0.25,87,103.0
1764,B-3,271.5,0.5,77,103.0
1765,C#4,271.5,0.5,77,103.0
1766,C2,271.75,0.25,43,103.0
1767,G#1,272.0,2.5,127,103.0
1768,F#2,272.0,0.25,127,103.0
1769,C2,272.0,0.25,43,103.0
1770,G#1,272.0,2.5,127,103.0
1771,F#2,272.0,0.25,127,103.0
1772,E-4,272.0,0.5,77,103.0
1773,B3,272.0,0.5,77,103.0
1774,C2,272.25,0.25,43,103.0
1775,C2,272.5,0.25,87,103.0
1776,E-4,272.5,0.5,77,103.0
1777,B3,272.5,0.5,77,103.0
1778,C2,272.75,0.25,43,103.0
1779,C2,273.0,0.25,43,103.0
1780,E-4,273.0,0.5,77,103.0
1781,B3,273.0,0.5,77,103.0
1782,C2,273.25,0.25,43,103.0
1783,C2,273.5,0.25,87,103.0
1784,E-4,273.5,0.5,77,103.0
1785,B3,273.5,0.5,77,103.0
1786,C2,273.75,0.25,43,103.0
1787,C2,274.0,0.25,43,103.0
1788,E-4,274.0,0.5,77,103.0
1789,B3,274.0,0.5,77,103.0
1790,C2,274.25,0.25,43,103.0
1791,G#1,274.5,1.5,127,103.0
1792,C2,274.5,0.25,87,103.0
1793,G#1,274.5,1.5,127,103.0
1794,E-4,274.5,0.5,77,103.0
1795,B3,274.5,0.5,77,103.0
1796,C2,274.75,0.25,43,103.0
1797,C2,275.0,0.25,43,103.0
1798,E-4,275.0,0.5,77,103.0
1799,B3,275.0,0.5,77,103.0
1800,C2,275.25,0.25,43,103.0
1801,C2,275.5,0.25,87,103.0
1802,B3,275.5,0.5,77,103.0
1803,E-4,275.5,0.5,77,103.0
1804,C2,275.75,0.25,43,103.0
1805,B-2,276.0,0.25,92,103.0
1806,G#4,280.0,0.75,127,103.0
1807,G#1,280.0,0.75,127,103.0
1808,D2,280.0,0.25,118,103.0
1809,C2,280.0,0.25,118,103.0
1810,C2,280.5,0.25,66,103.0
1811,G#4,280.75,0.25,127,103.0
1812,D2,280.75,0.25,127,103.0
1813,G#1,280.75,0.75,127,103.0
1814,F#2,281.0,0.25,97,103.0
1815,E3,281.0,0.25,97,103.0
1816,C2,281.0,0.25,97,103.0
1817,G#4,281.5,0.5,127,103.0
1818,G#1,281.5,1.0,127,103.0
1819,C2,281.5,0.25,96,103.0
1820,D2,281.5,0.25,96,103.0
1821,C2,282.0,0.25,109,103.0
1822,E-4,282.5,0.5,127,103.0
1823,G#1,282.5,0.5,127,103.0
1824,D2,282.5,0.25,96,103.0
1825,C2,282.5,0.25,96,103.0
1826,C2,283.0,0.25,97,103.0
1827,E3,283.0,0.25,97,103.0
1828,F#2,283.0,0.25,97,103.0
1829,F#4,283.25,0.75,127,103.0
1830,C2,283.5,0.25,66,103.0
1831,G#4,284.0,0.5,127,103.0
1832,G#1,284.0,0.75,127,103.0
1833,D2,284.0,0.25,118,103.0
1834,C2,284.0,0.25,118,103.0
1835,B4,284.5,0.25,127,103.0
1836,C2,284.5,0.25,66,103.0
1837,C#5,284.75,0.25,127,103.0
1838,D2,284.75,0.25,127,103.0
1839,G#1,284.75,0.75,127,103.0
1840,B4,285.0,0.25,127,103.0
1841,C2,285.0,0.25,97,103.0
1842,E3,285.0,0.25,97,103.0
1843,F#2,285.0,0.25,97,103.0
1844,G#4,285.25,0.25,127,103.0
1845,G#4,285.5,0.5,127,103.0
1846,G#1,285.5,1.0,127,103.0
1847,C2,285.5,0.25,96,103.0
1848,D2,285.5,0.25,96,103.0
1849,C2,286.0,0.25,109,103.0
1850,E-4,286.5,0.5,127,103.0
1851,G#1,286.5,0.5,127,103.0
1852,C2,286.5,0.25,96,103.0
1853,D2,286.5,0.25,96,103.0
1854,F#2,287.0,0.25,97,103.0
1855,E3,287.0,0.25,97,103.0
1856,C2,287.0,0.25,97,103.0
1857,F#4,287.25,0.75,127,103.0
1858,C2,287.5,0.25,66,103.0
1859,G#4,288.0,0.75,127,103.0
1860,G#1,288.0,0.75,127,103.0
1861,D2,288.0,0.25,118,103.0
1862,C2,288.0,0.25,118,103.0
1863,C2,288.5,0.25,66,103.0
1864,G#4,288.75,0.25,127,103.0
1865,D2,288.75,0.25,127,103.0
1866,G#1,288.75,0.75,127,103.0
1867,F#2,289.0,0.25,97,103.0
1868,E3,289.0,0.25,97,103.0
1869,C2,289.0,0.25,97,103.0
1870,G#4,289.5,0.5,127,103.0
1871,G#1,289.5,1.0,127,103.0
1872,D2,289.5,0.25,96,103.0
1873,C2,289.5,0.25,96,103.0
1874,C2,290.0,0.25,109,103.0
1875,E-4,290.5,0.5,127,103.0
1876,G#1,290.5,0.5,127,103.0
1877,C2,290.5,0.25,96,103.0
1878,D2,290.5,0.25,96,103.0
1879,F#2,291.0,0.25,97,103.0
1880,E3,291.0,0.25,97,103.0
1881,C2,291.0,0.25,97,103.0
1882,F#4,291.25,0.75,127,103.0
1883,E-4,291.25,0.25,127,103.0
1884,B3,291.25,0.25,127,103.0
1885,C2,291.5,0.25,66,103.0
1886,B3,291.5,0.5,127,103.0
1887,E-4,291.5,0.5,127,103.0
1888,G#4,292.0,0.5,127,103.0
1889,G#1,292.0,0.75,127,103.0
1890,C2,292.0,0.25,118,103.0
1891,D2,292.0,0.25,118,103.0
1892,B3,292.0,0.5,127,103.0
1893,E-4,292.0,0.5,127,103.0
1894,B4,292.5,0.25,127,103.0
1895,C2,292.5,0.25,66,103.0
1896,B3,292.5,0.5,127,103.0
1897,E-4,292.5,0.5,127,103.0
1898,C#5,292.75,0.25,127,103.0
1899,D2,292.75,0.25,127,103.0
1900,G#1,292.75,0.75,127,103.0
1901,B4,293.0,0.25,127,103.0
1902,C2,293.0,0.25,97,103.0
1903,E3,293.0,0.25,97,103.0
1904,F#2,293.0,0.25,97,103.0
1905,B3,293.0,0.5,127,103.0
1906,E-4,293.0,0.5,127,103.0
1907,G#4,293.25,0.25,127,103.0
1908,G#4,293.5,0.5,127,103.0
1909,G#1,293.5,1.0,127,103.0
1910,D2,293.5,0.25,96,103.0
1911,C2,293.5,0.25,96,103.0
1912,E-4,293.5,0.5,127,103.0
1913,B3,293.5,0.5,127,103.0
1914,C2,294.0,0.25,109,103.0
1915,E-4,294.0,0.75,127,103.0
1916,B3,294.0,0.5,127,103.0
1917,E-4,294.5,0.5,127,103.0
1918,G#1,294.5,0.5,127,103.0
1919,B3,294.5,0.5,127,103.0
1920,G#3,294.5,0.75,127,103.0
1921,C2,294.5,0.25,107,103.0
1922,D2,294.5,0.25,107,103.0
1923,G#2,294.5,0.25,107,103.0
1924,E-4,295.0,0.75,127,103.0
1925,B3,295.0,0.5,127,103.0
1926,F#2,295.0,0.25,97,103.0
1927,E3,295.0,0.25,97,103.0
1928,C2,295.0,0.25,97,103.0
1929,F#4,295.25,0.75,127,103.0
1930,E3,295.25,0.25,77,103.0
1931,E3,295.5,0.25,72,103.0
1932,C2,295.5,0.25,72,103.0
1933,G#3,295.5,0.5,127,103.0
1934,B3,295.5,0.5,127,103.0
1935,E3,295.75,0.25,77,103.0
1936,G#4,296.0,0.75,127,103.0
1937,G#1,296.0,0.75,127,103.0
1938,C2,296.0,0.25,118,103.0
1939,D2,296.0,0.25,118,103.0
1940,C2,296.5,0.25,66,103.0
1941,G#4,296.75,0.25,127,103.0
1942,D2,296.75,0.25,127,103.0
1943,G#1,296.75,0.75,127,103.0
1944,F#2,297.0,0.25,97,103.0
1945,E3,297.0,0.25,97,103.0
1946,C2,297.0,0.25,97,103.0
1947,G#4,297.5,0.5,127,103.0
1948,G#1,297.5,1.0,127,103.0
1949,D2,297.5,0.25,96,103.0
1950,C2,297.5,0.25,96,103.0
1951,C2,298.0,0.25,109,103.0
1952,E-4,298.5,0.5,127,103.0
1953,G#1,298.5,0.5,127,103.0
1954,D2,298.5,0.25,96,103.0
1955,C2,298.5,0.25,96,103.0
1956,C2,299.0,0.25,97,103.0
1957,E3,299.0,0.25,97,103.0
1958,F#2,299.0,0.25,97,103.0
1959,F#4,299.25,0.75,127,103.0
1960,C2,299.5,0.25,66,103.0
1961,G#4,300.0,0.5,127,103.0
1962,G#1,300.0,0.75,127,103.0
1963,C2,300.0,0.25,118,103.0
1964,D2,300.0,0.25,118,103.0
1965,B4,300.5,0.25,127,103.0
1966,C2,300.5,0.25,66,103.0
1967,C#5,300.75,0.25,127,103.0
1968,D2,300.75,0.25,127,103.0
1969,G#1,300.75,0.75,127,103.0
1970,B4,301.0,0.25,127,103.0
1971,F#2,301.0,0.25,97,103.0
1972,E3,301.0,0.25,97,103.0
1973,C2,301.0,0.25,97,103.0
1974,G#4,301.25,0.25,127,103.0
1975,G#4,301.5,0.5,127,103.0
1976,G#1,301.5,1.0,127,103.0
1977,D2,301.5,0.25,96,103.0
1978,C2,301.5,0.25,96,103.0
1979,C2,302.0,0.25,109,103.0
1980,E-4,302.5,0.5,127,103.0
1981,G#1,302.5,0.5,127,103.0
1982,D2,302.5,0.25,96,103.0
1983,C2,302.5,0.25,96,103.0
1984,F#2,303.0,0.25,97,103.0
1985,E3,303.0,0.25,97,103.0
1986,C2,303.0,0.25,97,103.0
1987,F#4,303.25,0.75,127,103.0
1988,C2,303.5,0.25,66,103.0
1989,G#4,304.0,0.75,127,103.0
1990,G#1,304.0,0.75,127,103.0
1991,C2,304.0,0.25,118,103.0
1992,D2,304.0,0.25,118,103.0
1993,C2,304.5,0.25,66,103.0
1994,G#4,304.75,0.25,127,103.0
1995,D2,304.75,0.25,127,103.0
1996,G#1,304.75,0.75,127,103.0
1997,F#2,305.0,0.25,97,103.0
1998,E3,305.0,0.25,97,103.0
1999,C2,305.0,0.25,97,103.0
2000,G#4,305.5,0.5,127,103.0
2001,G#1,305.5,1.0,127,103.0
2002,D2,305.5,0.25,96,103.0
2003,C2,305.5,0.25,96,103.0
2004,C2,306.0,0.25,109,103.0
2005,E-4,306.5,0.5,127,103.0
2006,G#1,306.5,0.5,127,103.0
2007,C2,306.5,0.25,96,103.0
2008,D2,306.5,0.25,96,103.0
2009,C2,307.0,0.25,97,103.0
2010,E3,307.0,0.25,97,103.0
2011,F#2,307.0,0.25,97,103.0
2012,F#4,307.25,0.75,127,103.0
2013,E-4,307.25,0.25,127,103.0
2014,B3,307.25,0.25,127,103.0
2015,C2,307.5,0.25,66,103.0
2016,E-4,307.5,0.5,127,103.0
2017,B3,307.5,0.5,127,103.0
2018,G#4,308.0,0.5,127,103.0
2019,G#1,308.0,0.75,127,103.0
2020,C2,308.0,0.25,118,103.0
2021,D2,308.0,0.25,118,103.0
2022,E-4,308.0,0.5,127,103.0
2023,B3,308.0,0.5,127,103.0
2024,B4,308.5,0.25,127,103.0
2025,C2,308.5,0.25,66,103.0
2026,E-4,308.5,0.5,127,103.0
2027,B3,308.5,0.5,127,103.0
2028,C#5,308.75,0.25,127,103.0
2029,D2,308.75,0.25,127,103.0
2030,G#1,308.75,0.75,127,103.0
2031,B4,309.0,0.25,127,103.0
2032,C2,309.0,0.25,97,103.0
2033,E3,309.0,0.25,97,103.0
2034,F#2,309.0,0.25,97,103.0
2035,E-4,309.0,0.5,127,103.0
2036,B3,309.0,0.5,127,103.0
2037,G#4,309.25,0.25,127,103.0
2038,G#4,309.5,0.5,127,103.0
2039,G#1,309.5,1.0,127,103.0
2040,D2,309.5,0.25,96,103.0
2041,C2,309.5,0.25,96,103.0
2042,B3,309.5,0.5,127,103.0
2043,E-4,309.5,0.5,127,103.0
2044,C2,310.0,0.25,109,103.0
2045,B3,310.0,0.5,127,103.0
2046,E-4,310.0,0.75,127,103.0
2047,E-4,310.5,0.5,127,103.0
2048,G#1,310.5,0.5,127,103.0
2049,B3,310.5,0.5,127,103.0
2050,G#3,310.5,0.75,127,103.0
2051,C2,310.5,0.25,107,103.0
2052,D2,310.5,0.25,107,103.0
2053,G#2,310.5,0.25,107,103.0
2054,E-4,311.0,0.75,127,103.0
2055,B3,311.0,0.5,127,103.0
2056,C2,311.0,0.25,97,103.0
2057,E3,311.0,0.25,97,103.0
2058,F#2,311.0,0.25,97,103.0
2059,F#4,311.25,0.75,127,103.0
2060,E3,311.25,0.25,77,103.0
2061,C2,311.5,0.25,72,103.0
2062,E3,311.5,0.25,72,103.0
2063,G#3,311.5,0.5,127,103.0
2064,B3,311.5,0.5,127,103.0
2065,E3,311.75,0.25,77,103.0
2066,G#4,312.0,0.75,127,103.0
2067,G#1,312.0,0.75,127,103.0
2068,C2,312.0,0.25,118,103.0
2069,D2,312.0,0.25,118,103.0
2070,C2,312.5,0.25,66,103.0
2071,G#4,312.75,0.25,127,103.0
2072,D2,312.75,0.25,127,103.0
2073,G#1,312.75,0.75,127,103.0
2074,F#2,313.0,0.25,97,103.0
2075,E3,313.0,0.25,97,103.0
2076,C2,313.0,0.25,97,103.0
2077,G#4,313.5,0.5,127,103.0
2078,G#1,313.5,1.0,127,103.0
2079,D2,313.5,0.25,96,103.0
2080,C2,313.5,0.25,96,103.0
2081,C2,314.0,0.25,109,103.0
2082,E-4,314.5,0.5,127,103.0
2083,G#1,314.5,0.5,127,103.0
2084,C2,314.5,0.25,96,103.0
2085,D2,314.5,0.25,96,103.0
2086,C2,315.0,0.25,97,103.0
2087,E3,315.0,0.25,97,103.0
2088,F#2,315.0,0.25,97,103.0
2089,F#4,315.25,0.75,127,103.0
2090,C2,315.5,0.25,66,103.0
2091,G#4,316.0,0.5,127,103.0
2092,G#1,316.0,0.75,127,103.0
2093,C2,316.0,0.25,118,103.0
2094,D2,316.0,0.25,118,103.0
2095,B4,316.5,0.25,127,103.0
2096,C2,316.5,0.25,66,103.0
2097,C#5,316.75,0.25,127,103.0
2098,D2,316.75,0.25,127,103.0
2099,G#1,316.75,0.75,127,103.0
2100,B4,317.0,0.25,127,103.0
2101,F#2,317.0,0.25,97,103.0
2102,E3,317.0,0.25,97,103.0
2103,C2,317.0,0.25,97,103.0
2104,G#4,317.25,0.25,127,103.0
2105,G#4,317.5,0.5,127,103.0
2106,G#1,317.5,1.0,127,103.0
2107,C2,317.5,0.25,96,103.0
2108,D2,317.5,0.25,96,103.0
2109,C2,318.0,0.25,109,103.0
2110,E-4,318.5,0.5,127,103.0
2111,G#1,318.5,0.5,127,103.0
2112,C2,318.5,0.25,96,103.0
2113,D2,318.5,0.25,96,103.0
2114,C2,319.0,0.25,97,103.0
2115,E3,319.0,0.25,97,103.0
2116,F#2,319.0,0.25,97,103.0
2117,F#4,319.25,0.75,127,103.0
2118,C2,319.5,0.25,66,103.0
2119,G#4,320.0,0.75,127,103.0
2120,G#1,320.0,0.75,127,103.0
2121,D2,320.0,0.25,118,103.0
2122,C2,320.0,0.25,118,103.0
2123,C2,320.5,0.25,66,103.0
2124,G#4,320.75,0.25,127,103.0
2125,D2,320.75,0.25,127,103.0
2126,G#1,320.75,0.75,127,103.0
2127,C2,321.0,0.25,97,103.0
2128,E3,321.0,0.25,97,103.0
2129,F#2,321.0,0.25,97,103.0
2130,G#4,321.5,0.5,127,103.0
2131,G#1,321.5,1.0,127,103.0
2132,D2,321.5,0.25,96,103.0
2133,C2,321.5,0.25,96,103.0
2134,C2,322.0,0.25,109,103.0
2135,E-4,322.5,0.5,127,103.0
2136,G#1,322.5,0.5,127,103.0
2137,D2,322.5,0.25,96,103.0
2138,C2,322.5,0.25,96,103.0
2139,F#2,323.0,0.25,97,103.0
2140,E3,323.0,0.25,97,103.0
2141,C2,323.0,0.25,97,103.0
2142,F#4,323.25,0.75,127,103.0
2143,E-4,323.25,0.25,127,103.0
2144,B3,323.25,0.25,127,103.0
2145,C2,323.5,0.25,66,103.0
2146,E-4,323.5,0.25,127,103.0
2147,B3,323.5,0.5,127,103.0
2148,E-4,323.75,0.25,127,103.0
2149,G#4,324.0,0.5,127,103.0
2150,G#1,324.0,0.75,127,103.0
2151,C2,324.0,0.25,118,103.0
2152,D2,324.0,0.25,118,103.0
2153,E-4,324.0,0.5,127,103.0
2154,B3,324.0,0.5,127,103.0
2155,B4,324.5,0.25,127,103.0
2156,C2,324.5,0.25,66,103.0
2157,B3,324.5,0.5,127,103.0
2158,E-4,324.5,0.5,127,103.0
2159,C#5,324.75,0.25,127,103.0
2160,D2,324.75,0.25,127,103.0
2161,G#1,324.75,0.75,127,103.0
2162,B4,325.0,0.25,127,103.0
2163,C2,325.0,0.25,97,103.0
2164,E3,325.0,0.25,97,103.0
2165,F#2,325.0,0.25,97,103.0
2166,B3,325.0,0.5,127,103.0
2167,E-4,325.0,0.5,127,103.0
2168,G#4,325.25,0.25,127,103.0
2169,G#4,325.5,0.5,127,103.0
2170,G#1,325.5,1.0,127,103.0
2171,C2,325.5,0.25,96,103.0
2172,D2,325.5,0.25,96,103.0
2173,B3,325.5,0.5,127,103.0
2174,E-4,325.5,0.5,127,103.0
2175,C2,326.0,0.25,109,103.0
2176,B3,326.0,0.5,127,103.0
2177,E-4,326.0,0.75,127,103.0
2178,E-4,326.5,0.5,127,103.0
2179,G#1,326.5,0.5,127,103.0
2180,G#3,326.5,0.75,127,103.0
2181,B3,326.5,0.5,127,103.0
2182,G#2,326.5,0.25,107,103.0
2183,D2,326.5,0.25,107,103.0
2184,C2,326.5,0.25,107,103.0
2185,B3,327.0,0.5,127,103.0
2186,E-4,327.0,0.75,127,103.0
2187,F#2,327.0,0.25,97,103.0
2188,E3,327.0,0.25,97,103.0
2189,C2,327.0,0.25,97,103.0
2190,F#4,327.25,37/50,127,103.0
2191,E3,327.25,0.25,77,103.0
2192,C2,327.5,0.25,72,103.0
2193,E3,327.5,0.25,72,103.0
2194,G#3,327.5,0.5,127,103.0
2195,B3,327.5,0.5,127,103.0
2196,E3,327.75,0.25,77,103.0
