,note_name,start_time,duration,velocity,tempo
0,G#2,0.0,0.25,100,93.0
1,G#4,0.0,0.25,100,93.0
2,G#3,0.0,0.25,100,93.0
3,C2,0.0,0.125,100,93.0
4,F#2,0.0,0.125,100,93.0
5,G#2,0.5,0.25,100,93.0
6,F#2,0.5,0.125,100,93.0
7,G#4,0.5,0.25,100,93.0
8,G#3,0.5,0.25,100,93.0
9,E-4,1.0,0.312,100,93.0
10,G#3,1.0,0.5,100,93.0
11,A1,1.0,0.125,100,93.0
12,F#2,1.0,0.125,100,93.0
13,C#4,1.312,0.5,100,93.0
14,F#2,1.5,0.125,100,93.0
15,E-4,1.812,0.5,100,93.0
16,G#2,1.812,0.125,100,93.0
17,G#4,1.812,0.125,100,93.0
18,G#3,1.812,0.125,100,93.0
19,C2,1.812,0.125,100,93.0
20,F#2,1.812,0.125,100,93.0
21,G#2,2.0,0.25,100,93.0
22,G#4,2.0,0.25,100,93.0
23,G#3,2.0,0.25,100,93.0
24,F#2,2.0,0.125,100,93.0
25,C2,2.0,0.125,100,93.0
26,G#2,2.5,0.25,100,93.0
27,G#4,2.5,0.25,100,93.0
28,G#3,2.5,0.25,100,93.0
29,F#2,2.5,0.125,100,93.0
30,C2,2.5,0.125,100,93.0
31,E-4,3.0,0.312,100,93.0
32,F#2,3.0,0.125,100,93.0
33,A1,3.0,0.125,100,93.0
34,C#4,3.312,0.438,100,93.0
35,B2,3.5,0.5,100,93.0
36,F#2,3.5,0.125,100,93.0
37,C2,3.5,0.125,100,93.0
38,F#2,3.625,0.062,100,93.0
39,C#4,3.812,0.188,100,93.0
40,F#2,3.812,0.125,100,93.0
41,C#4,4.0,0.125,100,93.0
42,E2,4.0,0.25,100,93.0
43,E3,4.0,0.25,100,93.0
44,E4,4.0,0.25,100,93.0
45,C2,4.0,0.125,100,93.0
46,F#2,4.0,0.125,100,93.0
47,E2,4.5,0.25,100,93.0
48,F#2,4.5,0.125,100,93.0
49,E4,4.5,0.25,100,93.0
50,E3,4.5,0.25,100,93.0
51,E-4,5.0,0.25,100,93.0
52,E3,5.0,0.5,100,93.0
53,A1,5.0,0.125,100,93.0
54,F#2,5.0,0.125,100,93.0
55,C#4,5.312,0.125,100,93.0
56,C#4,5.5,0.25,100,93.0
57,F#2,5.5,0.125,100,93.0
58,C#4,5.812,0.125,100,93.0
59,E2,5.812,0.125,100,93.0
60,E3,5.812,0.125,100,93.0
61,E4,5.812,0.125,100,93.0
62,C2,5.812,0.125,100,93.0
63,F#2,5.812,0.125,100,93.0
64,C#4,6.0,0.25,100,93.0
65,E2,6.0,0.25,100,93.0
66,E4,6.0,0.25,100,93.0
67,E3,6.0,0.25,100,93.0
68,C2,6.0,0.125,100,93.0
69,F#2,6.0,0.125,100,93.0
70,B3,6.25,0.188,100,93.0
71,B3,6.5,0.188,100,93.0
72,E2,6.5,0.25,100,93.0
73,E3,6.5,0.25,100,93.0
74,E4,6.5,0.25,100,93.0
75,F#2,6.5,0.125,100,93.0
76,C2,6.5,0.125,100,93.0
77,E-4,7.0,0.25,100,93.0
78,F#2,7.0,0.125,100,93.0
79,A1,7.0,0.125,100,93.0
80,C#4,7.312,0.188,100,93.0
81,C#4,7.5,0.25,100,93.0
82,B1,7.5,0.5,100,93.0
83,E4,7.5,0.5,100,93.0
84,E3,7.5,0.5,100,93.0
85,F#2,7.5,0.125,100,93.0
86,C2,7.5,0.125,100,93.0
87,F#2,7.625,0.062,100,93.0
88,F#2,7.812,0.125,100,93.0
89,E-4,8.0,0.5,100,93.0
90,C#2,8.0,0.25,100,93.0
91,C#4,8.0,0.25,100,93.0
92,C#3,8.0,0.25,100,93.0
93,C2,8.0,0.125,100,93.0
94,F#2,8.0,0.125,100,93.0
95,F#4,8.5,0.5,100,93.0
96,C#2,8.5,0.25,100,93.0
97,F#2,8.5,0.125,100,93.0
98,C#4,8.5,0.25,100,93.0
99,C#3,8.5,0.25,100,93.0
100,E4,9.0,0.5,100,93.0
101,F#2,9.0,0.125,100,93.0
102,A1,9.0,0.125,100,93.0
103,E-4,9.5,0.5,100,93.0
104,F#2,9.5,0.125,100,93.0
105,B2,9.812,0.125,100,93.0
106,B3,9.812,0.125,100,93.0
107,C2,9.812,0.125,100,93.0
108,F#2,9.812,0.125,100,93.0
109,C#4,10.0,0.5,100,93.0
110,C#2,10.0,0.25,100,93.0
111,C#4,10.0,0.25,100,93.0
112,C#3,10.0,0.25,100,93.0
113,F#2,10.0,0.125,100,93.0
114,C2,10.0,0.125,100,93.0
115,B2,10.375,0.125,100,93.0
116,B3,10.375,0.125,100,93.0
117,C#2,10.5,0.25,100,93.0
118,C#4,10.5,0.25,100,93.0
119,C#3,10.5,0.25,100,93.0
120,C2,10.5,0.125,100,93.0
121,F#2,10.5,0.125,100,93.0
122,B3,11.0,0.5,100,93.0
123,A1,11.0,0.125,100,93.0
124,F#2,11.0,0.125,100,93.0
125,C#4,11.5,0.312,100,93.0
126,C#2,11.5,0.5,100,93.0
127,C#4,11.5,0.5,100,93.0
128,C#3,11.5,0.5,100,93.0
129,F#2,11.5,0.125,100,93.0
130,C2,11.5,0.125,100,93.0
131,F#2,11.625,0.062,100,93.0
132,F#2,11.812,0.125,100,93.0
133,E-4,12.0,0.5,100,93.0
134,E-2,12.0,0.25,100,93.0
135,E-3,12.0,0.25,100,93.0
136,B-3,12.0,0.25,100,93.0
137,C2,12.0,0.125,100,93.0
138,F#2,12.0,0.125,100,93.0
139,F#4,12.5,0.5,100,93.0
140,F#2,12.5,0.125,100,93.0
141,E4,13.0,0.5,100,93.0
142,A1,13.0,0.125,100,93.0
143,F#2,13.0,0.125,100,93.0
144,E-4,13.5,0.5,100,93.0
145,F#2,13.5,0.125,100,93.0
146,E-2,13.812,0.125,100,93.0
147,E-4,13.812,0.125,100,93.0
148,E-3,13.812,0.125,100,93.0
149,F#2,13.812,0.125,100,93.0
150,C2,13.812,0.125,100,93.0
151,C#4,14.0,1.0,100,93.0
152,C#2,14.0,1.0,100,93.0
153,C#3,14.0,1.0,100,93.0
154,C#4,14.0,1.0,100,93.0
155,F#2,14.0,0.125,100,93.0
156,C2,14.0,0.125,100,93.0
157,C2,14.5,0.125,100,93.0
158,F#2,14.5,0.125,100,93.0
159,B3,15.0,0.5,100,93.0
160,B1,15.0,1.0,100,93.0
161,B3,15.0,1.0,100,93.0
162,B2,15.0,1.0,100,93.0
163,A1,15.0,0.125,100,93.0
164,F#2,15.0,0.125,100,93.0
165,G#3,15.5,0.5,100,93.0
166,C2,15.5,0.125,100,93.0
167,F#2,15.5,0.125,100,93.0
168,F#2,15.625,0.062,100,93.0
169,F#2,15.812,0.125,100,93.0
170,G#2,16.0,0.25,100,93.0
171,G#4,16.0,0.25,100,93.0
172,G#3,16.0,0.25,100,93.0
173,C2,16.0,0.125,100,93.0
174,F#2,16.0,0.125,100,93.0
175,G#2,16.5,0.25,100,93.0
176,F#2,16.5,0.125,100,93.0
177,G#3,16.5,0.25,100,93.0
178,G#4,16.5,0.25,100,93.0
179,E-4,17.0,0.312,100,93.0
180,G#3,17.0,0.5,100,93.0
181,F#2,17.0,0.125,100,93.0
182,A1,17.0,0.125,100,93.0
183,C#4,17.312,0.5,100,93.0
184,F#2,17.5,0.125,100,93.0
185,E-4,17.812,0.5,100,93.0
186,G#2,17.812,0.125,100,93.0
187,G#3,17.812,0.125,100,93.0
188,G#4,17.812,0.125,100,93.0
189,F#2,17.812,0.125,100,93.0
190,C2,17.812,0.125,100,93.0
191,G#2,18.0,0.25,100,93.0
192,G#4,18.0,0.25,100,93.0
193,G#3,18.0,0.25,100,93.0
194,F#2,18.0,0.125,100,93.0
195,C2,18.0,0.125,100,93.0
196,G#2,18.5,0.25,100,93.0
197,G#3,18.5,0.25,100,93.0
198,G#4,18.5,0.25,100,93.0
199,F#2,18.5,0.125,100,93.0
200,C2,18.5,0.125,100,93.0
201,E-4,19.0,0.312,100,93.0
202,A1,19.0,0.125,100,93.0
203,F#2,19.0,0.125,100,93.0
204,C#4,19.312,0.438,100,93.0
205,B2,19.5,0.5,100,93.0
206,F#2,19.5,0.125,100,93.0
207,C2,19.5,0.125,100,93.0
208,F#2,19.625,0.062,100,93.0
209,C#4,19.812,0.188,100,93.0
210,F#2,19.812,0.125,100,93.0
211,C#4,20.0,0.125,100,93.0
212,E2,20.0,0.25,100,93.0
213,E3,20.0,0.25,100,93.0
214,E4,20.0,0.25,100,93.0
215,F#2,20.0,0.125,100,93.0
216,C2,20.0,0.125,100,93.0
217,E2,20.5,0.25,100,93.0
218,F#2,20.5,0.125,100,93.0
219,E3,20.5,0.25,100,93.0
220,E4,20.5,0.25,100,93.0
221,E-4,21.0,0.25,100,93.0
222,E3,21.0,0.5,100,93.0
223,A1,21.0,0.125,100,93.0
224,F#2,21.0,0.125,100,93.0
225,C#4,21.312,0.125,100,93.0
226,C#4,21.5,0.25,100,93.0
227,F#2,21.5,0.125,100,93.0
228,C#4,21.812,0.125,100,93.0
229,E2,21.812,0.125,100,93.0
230,E4,21.812,0.125,100,93.0
231,E3,21.812,0.125,100,93.0
232,C2,21.812,0.125,100,93.0
233,F#2,21.812,0.125,100,93.0
234,C#4,22.0,0.25,100,93.0
235,E2,22.0,0.25,100,93.0
236,E4,22.0,0.25,100,93.0
237,E3,22.0,0.25,100,93.0
238,C2,22.0,0.125,100,93.0
239,F#2,22.0,0.125,100,93.0
240,B3,22.25,0.188,100,93.0
241,B3,22.5,0.188,100,93.0
242,E2,22.5,0.25,100,93.0
243,E4,22.5,0.25,100,93.0
244,E3,22.5,0.25,100,93.0
245,F#2,22.5,0.125,100,93.0
246,C2,22.5,0.125,100,93.0
247,E-4,23.0,0.25,100,93.0
248,A1,23.0,0.125,100,93.0
249,F#2,23.0,0.125,100,93.0
250,C#4,23.312,0.188,100,93.0
251,C#4,23.5,0.25,100,93.0
252,B1,23.5,0.5,100,93.0
253,E4,23.5,0.5,100,93.0
254,E3,23.5,0.5,100,93.0
255,F#2,23.5,0.125,100,93.0
256,C2,23.5,0.125,100,93.0
257,F#2,23.625,0.062,100,93.0
258,F#2,23.812,0.125,100,93.0
259,E-4,24.0,0.5,100,93.0
260,C#2,24.0,0.25,100,93.0
261,C#4,24.0,0.25,100,93.0
262,C#3,24.0,0.25,100,93.0
263,C2,24.0,0.125,100,93.0
264,F#2,24.0,0.125,100,93.0
265,F#4,24.5,0.5,100,93.0
266,C#2,24.5,0.25,100,93.0
267,F#2,24.5,0.125,100,93.0
268,C#3,24.5,0.25,100,93.0
269,C#4,24.5,0.25,100,93.0
270,E4,25.0,0.5,100,93.0
271,A1,25.0,0.125,100,93.0
272,F#2,25.0,0.125,100,93.0
273,E-4,25.5,0.5,100,93.0
274,F#2,25.5,0.125,100,93.0
275,B3,25.812,0.125,100,93.0
276,B2,25.812,0.125,100,93.0
277,C2,25.812,0.125,100,93.0
278,F#2,25.812,0.125,100,93.0
279,C#4,26.0,0.5,100,93.0
280,C#2,26.0,0.25,100,93.0
281,C#4,26.0,0.25,100,93.0
282,C#3,26.0,0.25,100,93.0
283,C2,26.0,0.125,100,93.0
284,F#2,26.0,0.125,100,93.0
285,B2,26.375,0.125,100,93.0
286,B3,26.375,0.125,100,93.0
287,C#2,26.5,0.25,100,93.0
288,C#3,26.5,0.25,100,93.0
289,C#4,26.5,0.25,100,93.0
290,C2,26.5,0.125,100,93.0
291,F#2,26.5,0.125,100,93.0
292,B3,27.0,0.5,100,93.0
293,A1,27.0,0.125,100,93.0
294,F#2,27.0,0.125,100,93.0
295,C#4,27.5,0.312,100,93.0
296,C#2,27.5,0.5,100,93.0
297,C#3,27.5,0.5,100,93.0
298,C#4,27.5,0.5,100,93.0
299,C2,27.5,0.125,100,93.0
300,F#2,27.5,0.125,100,93.0
301,F#2,27.625,0.062,100,93.0
302,F#2,27.812,0.125,100,93.0
303,E-4,28.0,0.5,100,93.0
304,E-2,28.0,0.25,100,93.0
305,E-3,28.0,0.25,100,93.0
306,B-3,28.0,0.25,100,93.0
307,F#2,28.0,0.125,100,93.0
308,C2,28.0,0.125,100,93.0
309,F#4,28.5,0.5,100,93.0
310,F#2,28.5,0.125,100,93.0
311,E4,29.0,0.5,100,93.0
312,F#2,29.0,0.125,100,93.0
313,A1,29.0,0.125,100,93.0
314,E-4,29.5,0.5,100,93.0
315,F#2,29.5,0.125,100,93.0
316,E-2,29.812,0.125,100,93.0
317,E-3,29.812,0.125,100,93.0
318,E-4,29.812,0.125,100,93.0
319,F#2,29.812,0.125,100,93.0
320,C2,29.812,0.125,100,93.0
321,C#4,30.0,1.0,100,93.0
322,C#2,30.0,1.0,100,93.0
323,C#3,30.0,1.0,100,93.0
324,C#4,30.0,1.0,100,93.0
325,F#2,30.0,0.125,100,93.0
326,C2,30.0,0.125,100,93.0
327,C2,30.5,0.125,100,93.0
328,F#2,30.5,0.125,100,93.0
329,B3,31.0,0.5,100,93.0
330,B1,31.0,1.0,100,93.0
331,B2,31.0,1.0,100,93.0
332,B3,31.0,1.0,100,93.0
333,F#2,31.0,0.125,100,93.0
334,A1,31.0,0.125,100,93.0
335,G#3,31.5,0.5,100,93.0
336,C2,31.5,0.125,100,93.0
337,F#2,31.5,0.125,100,93.0
338,F#2,31.625,0.062,100,93.0
339,F#2,31.812,0.125,100,93.0
340,G#3,32.0,0.25,100,93.0
341,G#2,32.0,0.25,100,93.0
342,F#2,32.0,0.125,100,93.0
343,C2,32.0,0.125,100,93.0
344,B3,32.5,0.5,100,93.0
345,G#3,32.5,0.25,100,93.0
346,G#2,32.5,0.25,100,93.0
347,F#2,32.5,0.125,100,93.0
348,B-3,33.0,0.5,100,93.0
349,G#3,33.0,0.5,100,93.0
350,A1,33.0,0.125,100,93.0
351,F#2,33.0,0.125,100,93.0
352,F#2,33.5,0.125,100,93.0
353,G#3,33.812,0.188,100,93.0
354,G#3,33.812,0.125,100,93.0
355,G#2,33.812,0.125,100,93.0
356,F#2,33.812,0.125,100,93.0
357,C2,33.812,0.125,100,93.0
358,B-3,34.0,0.25,100,93.0
359,G#3,34.0,0.25,100,93.0
360,G#2,34.0,0.25,100,93.0
361,C2,34.0,0.125,100,93.0
362,F#2,34.0,0.125,100,93.0
363,B-3,34.312,0.312,100,93.0
364,G#3,34.5,0.25,100,93.0
365,G#2,34.5,0.25,100,93.0
366,F#2,34.5,0.125,100,93.0
367,C2,34.5,0.125,100,93.0
368,B-3,34.812,0.312,100,93.0
369,A1,35.0,0.125,100,93.0
370,F#2,35.0,0.125,100,93.0
371,G#3,35.5,0.312,100,93.0
372,G#3,35.5,0.5,100,93.0
373,B2,35.5,0.5,100,93.0
374,F#2,35.5,0.125,100,93.0
375,C2,35.5,0.125,100,93.0
376,F#2,35.625,0.062,100,93.0
377,F#2,35.812,0.125,100,93.0
378,E3,36.0,0.25,100,93.0
379,E2,36.0,0.25,100,93.0
380,C2,36.0,0.125,100,93.0
381,F#2,36.0,0.125,100,93.0
382,B3,36.5,0.5,100,93.0
383,E3,36.5,0.25,100,93.0
384,E2,36.5,0.25,100,93.0
385,F#2,36.5,0.125,100,93.0
386,B-3,37.0,0.5,100,93.0
387,E3,37.0,0.5,100,93.0
388,A1,37.0,0.125,100,93.0
389,F#2,37.0,0.125,100,93.0
390,F#2,37.5,0.125,100,93.0
391,G#3,37.812,0.188,100,93.0
392,E3,37.812,0.125,100,93.0
393,E2,37.812,0.125,100,93.0
394,C2,37.812,0.125,100,93.0
395,F#2,37.812,0.125,100,93.0
396,B-3,38.0,0.25,100,93.0
397,E3,38.0,0.25,100,93.0
398,E2,38.0,0.25,100,93.0
399,F#2,38.0,0.125,100,93.0
400,C2,38.0,0.125,100,93.0
401,B-3,38.312,0.312,100,93.0
402,E3,38.5,0.25,100,93.0
403,E2,38.5,0.25,100,93.0
404,F#2,38.5,0.125,100,93.0
405,C2,38.5,0.125,100,93.0
406,B-3,38.812,0.312,100,93.0
407,F#2,39.0,0.125,100,93.0
408,A1,39.0,0.125,100,93.0
409,G#3,39.5,0.312,100,93.0
410,B2,39.5,0.5,100,93.0
411,B1,39.5,0.5,100,93.0
412,F#2,39.5,0.125,100,93.0
413,C2,39.5,0.125,100,93.0
414,F#2,39.625,0.062,100,93.0
415,F#2,39.812,0.125,100,93.0
416,C#3,40.0,0.25,100,93.0
417,C#2,40.0,0.25,100,93.0
418,C2,40.0,0.125,100,93.0
419,F#2,40.0,0.125,100,93.0
420,B3,40.5,0.5,100,93.0
421,C#3,40.5,0.25,100,93.0
422,C#2,40.5,0.25,100,93.0
423,F#2,40.5,0.125,100,93.0
424,B-3,41.0,0.5,100,93.0
425,A1,41.0,0.125,100,93.0
426,F#2,41.0,0.125,100,93.0
427,F#2,41.5,0.125,100,93.0
428,G#3,41.812,0.188,100,93.0
429,C#3,41.812,0.125,100,93.0
430,C2,41.812,0.125,100,93.0
431,F#2,41.812,0.125,100,93.0
432,B-3,42.0,0.25,100,93.0
433,C#3,42.0,0.25,100,93.0
434,C#2,42.0,0.25,100,93.0
435,F#2,42.0,0.125,100,93.0
436,C2,42.0,0.125,100,93.0
437,B-3,42.312,0.312,100,93.0
438,C#3,42.5,0.25,100,93.0
439,C#2,42.5,0.25,100,93.0
440,F#2,42.5,0.125,100,93.0
441,C2,42.5,0.125,100,93.0
442,B-3,42.812,0.312,100,93.0
443,F#2,43.0,0.125,100,93.0
444,A1,43.0,0.125,100,93.0
445,G#3,43.5,0.312,100,93.0
446,C#3,43.5,0.5,100,93.0
447,C#2,43.5,0.5,100,93.0
448,F#2,43.5,0.125,100,93.0
449,C2,43.5,0.125,100,93.0
450,F#2,43.625,0.062,100,93.0
451,F#2,43.812,0.125,100,93.0
452,E-3,44.0,0.25,100,93.0
453,E-2,44.0,0.25,100,93.0
454,C2,44.0,0.125,100,93.0
455,F#2,44.0,0.125,100,93.0
456,F#2,44.5,0.125,100,93.0
457,A1,45.0,0.125,100,93.0
458,F#2,45.0,0.125,100,93.0
459,F#2,45.5,0.125,100,93.0
460,E-3,45.812,0.125,100,93.0
461,E-2,45.812,0.125,100,93.0
462,C2,45.812,0.125,100,93.0
463,F#2,45.812,0.125,100,93.0
464,C#3,46.0,1.0,100,93.0
465,C#2,46.0,1.0,100,93.0
466,F#2,46.0,0.125,100,93.0
467,C2,46.0,0.125,100,93.0
468,F#2,46.5,0.125,100,93.0
469,C2,46.5,0.125,100,93.0
470,B2,47.0,1.0,100,93.0
471,B1,47.0,1.0,100,93.0
472,F#2,47.0,0.125,100,93.0
473,A1,47.0,0.125,100,93.0
474,F#2,47.5,0.125,100,93.0
475,C2,47.5,0.125,100,93.0
476,F#2,47.625,0.062,100,93.0
477,F#2,47.812,0.125,100,93.0
478,E-5,48.0,0.312,100,93.0
479,G#3,48.0,0.25,100,93.0
480,G#2,48.0,0.25,100,93.0
481,C2,48.0,0.125,100,93.0
482,G#3,48.5,0.25,100,93.0
483,G#2,48.5,0.25,100,93.0
484,E-5,48.812,0.188,100,93.0
485,E-5,49.0,0.25,100,93.0
486,G#3,49.0,0.5,100,93.0
487,A1,49.0,0.125,100,93.0
488,E-5,49.5,0.25,100,93.0
489,G#3,49.75,0.219,100,93.0
490,G#2,49.75,0.219,100,93.0
491,C2,49.812,0.125,100,93.0
492,B4,50.0,1.0,100,93.0
493,G#3,50.0,0.25,100,93.0
494,G#2,50.0,0.25,100,93.0
495,C2,50.0,0.125,100,93.0
496,G#3,50.5,0.25,100,93.0
497,G#2,50.5,0.25,100,93.0
498,C2,50.5,0.125,100,93.0
499,G#4,51.0,0.5,100,93.0
500,A1,51.0,0.125,100,93.0
501,C#5,51.5,0.5,100,93.0
502,B2,51.5,0.5,100,93.0
503,C2,51.5,0.125,100,93.0
504,B4,52.0,0.5,100,93.0
505,E3,52.0,0.25,100,93.0
506,E2,52.0,0.25,100,93.0
507,C2,52.0,0.125,100,93.0
508,E3,52.5,0.25,100,93.0
509,E2,52.5,0.25,100,93.0
510,E3,53.0,0.5,100,93.0
511,A1,53.0,0.125,100,93.0
512,E3,53.75,0.219,100,93.0
513,E2,53.75,0.219,100,93.0
514,C2,53.812,0.125,100,93.0
515,E3,54.0,0.25,100,93.0
516,E2,54.0,0.25,100,93.0
517,C2,54.0,0.125,100,93.0
518,B4,54.312,0.188,100,93.0
519,E-5,54.5,0.25,100,93.0
520,E3,54.5,0.25,100,93.0
521,E2,54.5,0.25,100,93.0
522,C2,54.5,0.125,100,93.0
523,E-5,54.812,0.125,100,93.0
524,E-5,55.0,0.25,100,93.0
525,A1,55.0,0.125,100,93.0
526,E-5,55.312,0.25,100,93.0
527,B2,55.5,0.5,100,93.0
528,B1,55.5,0.5,100,93.0
529,C2,55.5,0.125,100,93.0
530,E-5,55.812,0.188,100,93.0
531,C#5,56.0,0.438,100,93.0
532,C#3,56.0,0.25,100,93.0
533,C#2,56.0,0.25,100,93.0
534,C2,56.0,0.125,100,93.0
535,C#3,56.5,0.25,100,93.0
536,C#2,56.5,0.25,100,93.0
537,A1,57.0,0.125,100,93.0
538,C2,57.812,0.125,100,93.0
539,C#3,58.0,0.25,100,93.0
540,C#2,58.0,0.25,100,93.0
541,C2,58.0,0.125,100,93.0
542,C#3,58.5,0.25,100,93.0
543,C#2,58.5,0.25,100,93.0
544,C2,58.5,0.125,100,93.0
545,A1,59.0,0.125,100,93.0
546,C#3,59.5,0.5,100,93.0
547,C#2,59.5,0.5,100,93.0
548,C2,59.5,0.125,100,93.0
549,C#5,59.562,0.438,100,93.0
550,E-5,60.0,1.0,100,93.0
551,E-3,60.0,0.25,100,93.0
552,E-2,60.0,0.25,100,93.0
553,C2,60.0,0.125,100,93.0
554,E-5,61.0,1.0,100,93.0
555,A1,61.0,0.125,100,93.0
556,E-3,61.75,0.25,100,93.0
557,E-2,61.75,0.25,100,93.0
558,C2,61.812,0.125,100,93.0
559,B-4,62.0,1.0,100,93.0
560,C#3,62.0,0.25,100,93.0
561,C#2,62.0,0.25,100,93.0
562,C2,62.0,0.125,100,93.0
563,C#3,62.5,0.25,100,93.0
564,B1,62.5,0.25,100,93.0
565,C2,62.5,0.125,100,93.0
566,B4,63.0,0.812,100,93.0
567,B2,63.0,0.25,100,93.0
568,B-1,63.0,0.25,100,93.0
569,A1,63.0,0.125,100,93.0
570,B-2,63.5,0.25,100,93.0
571,A1,63.5,0.25,100,93.0
572,C2,63.5,0.125,100,93.0
573,C#5,63.812,0.188,100,93.0
574,E-5,64.0,0.5,100,93.0
575,G#2,64.0,0.25,100,93.0
576,G#1,64.0,0.25,100,93.0
577,C2,64.0,0.125,100,93.0
578,F#2,64.0,0.125,100,93.0
579,F#2,64.5,0.125,100,93.0
580,E-5,64.812,0.125,100,93.0
581,E-5,65.0,0.312,100,93.0
582,A1,65.0,0.125,100,93.0
583,F#2,65.0,0.125,100,93.0
584,E-5,65.5,0.312,100,93.0
585,F#2,65.5,0.125,100,93.0
586,G#2,65.812,0.125,100,93.0
587,G#1,65.812,0.125,100,93.0
588,C2,65.812,0.125,100,93.0
589,F#2,65.812,0.125,100,93.0
590,B4,66.0,0.312,100,93.0
591,G#2,66.0,0.25,100,93.0
592,G#1,66.0,0.25,100,93.0
593,F#2,66.0,0.125,100,93.0
594,C2,66.0,0.125,100,93.0
595,G#2,66.5,0.25,100,93.0
596,G#1,66.5,0.25,100,93.0
597,F#2,66.5,0.125,100,93.0
598,C2,66.5,0.125,100,93.0
599,G#4,67.0,0.5,100,93.0
600,F#2,67.0,0.125,100,93.0
601,A1,67.0,0.125,100,93.0
602,C#5,67.5,0.5,100,93.0
603,G#2,67.5,0.25,100,93.0
604,G#1,67.5,0.25,100,93.0
605,F#2,67.5,0.125,100,93.0
606,C2,67.5,0.125,100,93.0
607,F#2,67.625,0.062,100,93.0
608,F#2,67.812,0.125,100,93.0
609,E-5,68.0,0.5,100,93.0
610,E2,68.0,0.25,100,93.0
611,E1,68.0,0.25,100,93.0
612,C2,68.0,0.125,100,93.0
613,F#2,68.0,0.125,100,93.0
614,F#2,68.5,0.125,100,93.0
615,A1,69.0,0.125,100,93.0
616,F#2,69.0,0.125,100,93.0
617,F#2,69.5,0.125,100,93.0
618,E2,69.812,0.125,100,93.0
619,E1,69.812,0.125,100,93.0
620,C2,69.812,0.125,100,93.0
621,F#2,69.812,0.125,100,93.0
622,E2,70.0,0.25,100,93.0
623,E1,70.0,0.25,100,93.0
624,F#2,70.0,0.125,100,93.0
625,C2,70.0,0.125,100,93.0
626,B4,70.312,0.188,100,93.0
627,E-5,70.5,0.25,100,93.0
628,E2,70.5,0.25,100,93.0
629,E1,70.5,0.25,100,93.0
630,F#2,70.5,0.125,100,93.0
631,C2,70.5,0.125,100,93.0
632,E-5,70.812,0.125,100,93.0
633,E-5,71.0,0.25,100,93.0
634,F#2,71.0,0.125,100,93.0
635,A1,71.0,0.125,100,93.0
636,E-5,71.312,0.25,100,93.0
637,E2,71.5,0.25,100,93.0
638,E1,71.5,0.25,100,93.0
639,F#2,71.5,0.125,100,93.0
640,C2,71.5,0.125,100,93.0
641,F#2,71.625,0.062,100,93.0
642,E-5,71.812,0.188,100,93.0
643,F#2,71.812,0.125,100,93.0
644,C#5,72.0,0.438,100,93.0
645,C#3,72.0,0.25,100,93.0
646,C#2,72.0,0.25,100,93.0
647,C2,72.0,0.125,100,93.0
648,F#2,72.0,0.125,100,93.0
649,F#2,72.5,0.125,100,93.0
650,A1,73.0,0.125,100,93.0
651,F#2,73.0,0.125,100,93.0
652,F#2,73.5,0.125,100,93.0
653,C#3,73.812,0.125,100,93.0
654,C#2,73.812,0.125,100,93.0
655,C2,73.812,0.125,100,93.0
656,F#2,73.812,0.125,100,93.0
657,C#3,74.0,0.25,100,93.0
658,C#2,74.0,0.25,100,93.0
659,F#2,74.0,0.125,100,93.0
660,C2,74.0,0.125,100,93.0
661,B4,74.5,0.5,100,93.0
662,C#3,74.5,0.25,100,93.0
663,C#2,74.5,0.25,100,93.0
664,F#2,74.5,0.125,100,93.0
665,C2,74.5,0.125,100,93.0
666,C#5,75.0,0.562,100,93.0
667,F#2,75.0,0.125,100,93.0
668,A1,75.0,0.125,100,93.0
669,C#3,75.5,0.25,100,93.0
670,C#2,75.5,0.25,100,93.0
671,F#2,75.5,0.125,100,93.0
672,C2,75.5,0.125,100,93.0
673,B4,75.562,0.438,100,93.0
674,F#2,75.625,0.062,100,93.0
675,F#2,75.812,0.125,100,93.0
676,E-5,76.0,1.0,100,93.0
677,E-3,76.0,0.25,100,93.0
678,E-2,76.0,0.25,100,93.0
679,C2,76.0,0.125,100,93.0
680,F#2,76.0,0.125,100,93.0
681,F#2,76.5,0.125,100,93.0
682,E-5,77.0,1.0,100,93.0
683,A1,77.0,0.125,100,93.0
684,F#2,77.0,0.125,100,93.0
685,F#2,77.5,0.125,100,93.0
686,C2,77.812,0.125,100,93.0
687,F#2,77.812,0.125,100,93.0
688,B-4,78.0,1.0,100,93.0
689,F#2,78.0,0.125,100,93.0
690,C2,78.0,0.125,100,93.0
691,F#2,78.5,0.125,100,93.0
692,C2,78.5,0.125,100,93.0
693,B4,79.0,1.0,100,93.0
694,F#2,79.0,0.125,100,93.0
695,A1,79.0,0.125,100,93.0
696,F#2,79.5,0.125,100,93.0
697,C2,79.5,0.125,100,93.0
698,F#2,79.625,0.062,100,93.0
699,F#2,79.812,0.125,100,93.0
700,B4,80.0,0.75,100,93.0
701,B5,80.0,0.5,100,93.0
702,B-5,80.5,0.5,100,93.0
703,G#5,81.0,0.5,100,93.0
704,G#2,81.0,0.25,100,93.0
705,F#2,81.0,0.125,100,93.0
706,A1,81.0,0.125,100,93.0
707,E-5,81.5,1.5,100,93.0
708,F#2,81.5,0.125,100,93.0
709,G#2,81.812,0.125,100,93.0
710,C2,81.812,0.125,100,93.0
711,F#2,81.812,0.125,100,93.0
712,G#2,82.0,0.25,100,93.0
713,C2,82.0,0.125,100,93.0
714,F#2,82.0,0.125,100,93.0
715,G#2,82.5,0.25,100,93.0
716,F#2,82.5,0.125,100,93.0
717,C2,82.5,0.125,100,93.0
718,B4,83.0,0.25,100,93.0
719,A1,83.0,0.125,100,93.0
720,F#2,83.0,0.125,100,93.0
721,B4,83.5,0.25,100,93.0
722,G#2,83.5,0.25,100,93.0
723,C2,83.5,0.125,100,93.0
724,F#2,83.5,0.125,100,93.0
725,F#2,83.625,0.062,100,93.0
726,F#2,83.812,0.125,100,93.0
727,E5,84.0,0.5,100,93.0
728,E2,84.0,0.25,100,93.0
729,F#2,84.0,0.125,100,93.0
730,C2,84.0,0.125,100,93.0
731,E-5,84.5,0.5,100,93.0
732,E2,84.5,0.25,100,93.0
733,F#2,84.5,0.125,100,93.0
734,B5,85.0,0.5,100,93.0
735,E2,85.0,0.25,100,93.0
736,F#2,85.0,0.125,100,93.0
737,A1,85.0,0.125,100,93.0
738,G#5,85.5,2.5,100,93.0
739,E2,85.5,0.25,100,93.0
740,F#2,85.5,0.125,100,93.0
741,E2,85.812,0.125,100,93.0
742,C2,85.812,0.125,100,93.0
743,F#2,85.812,0.125,100,93.0
744,E2,86.0,0.25,100,93.0
745,C2,86.0,0.125,100,93.0
746,F#2,86.0,0.125,100,93.0
747,E-5,86.5,0.5,100,93.0
748,E2,86.5,0.5,100,93.0
749,F#2,86.5,0.125,100,93.0
750,C2,86.5,0.125,100,93.0
751,C#5,87.0,0.5,100,93.0
752,F#2,87.0,0.125,100,93.0
753,A1,87.0,0.125,100,93.0
754,B4,87.5,0.5,100,93.0
755,B1,87.5,0.5,100,93.0
756,F#2,87.5,0.125,100,93.0
757,C2,87.5,0.125,100,93.0
758,F#2,87.625,0.062,100,93.0
759,F#2,87.812,0.125,100,93.0
760,C#5,88.0,0.5,100,93.0
761,B-5,88.0,0.5,100,93.0
762,C#2,88.0,0.25,100,93.0
763,F#2,88.0,0.125,100,93.0
764,C2,88.0,0.125,100,93.0
765,B5,88.5,0.5,100,93.0
766,C#2,88.5,0.25,100,93.0
767,F#2,88.5,0.125,100,93.0
768,C#5,89.0,1.0,100,93.0
769,C#6,89.0,3.0,100,93.0
770,C#2,89.0,0.25,100,93.0
771,F#2,89.0,0.125,100,93.0
772,A1,89.0,0.125,100,93.0
773,C#2,89.5,0.25,100,93.0
774,F#2,89.5,0.125,100,93.0
775,C#2,89.812,0.125,100,93.0
776,C2,89.812,0.125,100,93.0
777,F#2,89.812,0.125,100,93.0
778,G#4,90.0,1.688,100,93.0
779,C#2,90.0,0.25,100,93.0
780,C2,90.0,0.125,100,93.0
781,F#2,90.0,0.125,100,93.0
782,C#2,90.5,0.25,100,93.0
783,F#2,90.5,0.125,100,93.0
784,C2,90.5,0.125,100,93.0
785,C#2,91.0,0.25,100,93.0
786,F#2,91.0,0.125,100,93.0
787,A1,91.0,0.125,100,93.0
788,C#2,91.5,0.25,100,93.0
789,F#2,91.5,0.125,100,93.0
790,C2,91.5,0.125,100,93.0
791,F#2,91.625,0.062,100,93.0
792,F#2,91.812,0.125,100,93.0
793,B5,92.0,0.5,100,93.0
794,E-2,92.0,0.25,100,93.0
795,F#2,92.0,0.125,100,93.0
796,C2,92.0,0.125,100,93.0
797,C#6,92.5,0.5,100,93.0
798,E-2,92.5,0.25,100,93.0
799,F#2,92.5,0.125,100,93.0
800,E-6,93.0,1.5,100,93.0
801,E-2,93.0,0.25,100,93.0
802,F#2,93.0,0.125,100,93.0
803,A1,93.0,0.125,100,93.0
804,E-2,93.5,0.25,100,93.0
805,F#2,93.5,0.125,100,93.0
806,E-2,93.812,0.188,100,93.0
807,C2,93.812,0.125,100,93.0
808,F#2,93.812,0.125,100,93.0
809,C#2,94.0,0.25,100,93.0
810,C2,94.0,0.125,100,93.0
811,F#2,94.0,0.125,100,93.0
812,E6,94.5,0.5,100,93.0
813,B1,94.5,0.25,100,93.0
814,C2,94.5,0.125,100,93.0
815,F#2,94.5,0.125,100,93.0
816,E-6,95.0,0.438,100,93.0
817,B-1,95.0,0.25,100,93.0
818,A1,95.0,0.125,100,93.0
819,F#2,95.0,0.125,100,93.0
820,E-6,95.5,0.438,100,93.0
821,B-1,95.5,0.25,100,93.0
822,C2,95.5,0.125,100,93.0
823,F#2,95.5,0.125,100,93.0
824,F#2,95.625,0.062,100,93.0
825,F#2,95.812,0.125,100,93.0
826,G#2,96.0,0.25,100,93.0
827,G#4,96.0,0.25,100,93.0
828,G#3,96.0,0.25,100,93.0
829,C2,96.0,0.125,100,93.0
830,C2,96.0,0.125,100,93.0
831,F#2,96.0,0.125,100,93.0
832,G#2,96.5,0.25,100,93.0
833,F#2,96.5,0.125,100,93.0
834,G#4,96.5,0.25,100,93.0
835,G#3,96.5,0.25,100,93.0
836,E-4,97.0,0.312,100,93.0
837,G#3,97.0,0.5,100,93.0
838,A1,97.0,0.125,100,93.0
839,F#2,97.0,0.125,100,93.0
840,C#4,97.312,0.5,100,93.0
841,F#2,97.5,0.125,100,93.0
842,E-4,97.812,0.5,100,93.0
843,G#2,97.812,0.125,100,93.0
844,G#4,97.812,0.125,100,93.0
845,G#3,97.812,0.125,100,93.0
846,C2,97.812,0.125,100,93.0
847,F#2,97.812,0.125,100,93.0
848,G#2,98.0,0.25,100,93.0
849,G#4,98.0,0.25,100,93.0
850,G#3,98.0,0.25,100,93.0
851,F#2,98.0,0.125,100,93.0
852,C2,98.0,0.125,100,93.0
853,G#2,98.5,0.25,100,93.0
854,G#4,98.5,0.25,100,93.0
855,G#3,98.5,0.25,100,93.0
856,F#2,98.5,0.125,100,93.0
857,C2,98.5,0.125,100,93.0
858,E-4,99.0,0.312,100,93.0
859,F#2,99.0,0.125,100,93.0
860,A1,99.0,0.125,100,93.0
861,C#4,99.312,0.438,100,93.0
862,B2,99.5,0.5,100,93.0
863,F#2,99.5,0.125,100,93.0
864,C2,99.5,0.125,100,93.0
865,F#2,99.625,0.062,100,93.0
866,C#4,99.812,0.188,100,93.0
867,F#2,99.812,0.125,100,93.0
868,C#4,100.0,0.125,100,93.0
869,E2,100.0,0.25,100,93.0
870,E3,100.0,0.25,100,93.0
871,E4,100.0,0.25,100,93.0
872,C2,100.0,0.125,100,93.0
873,F#2,100.0,0.125,100,93.0
874,E2,100.5,0.25,100,93.0
875,F#2,100.5,0.125,100,93.0
876,E4,100.5,0.25,100,93.0
877,E3,100.5,0.25,100,93.0
878,E-4,101.0,0.25,100,93.0
879,E3,101.0,0.5,100,93.0
880,A1,101.0,0.125,100,93.0
881,F#2,101.0,0.125,100,93.0
882,C#4,101.312,0.125,100,93.0
883,C#4,101.5,0.25,100,93.0
884,F#2,101.5,0.125,100,93.0
885,C#4,101.812,0.125,100,93.0
886,E2,101.812,0.125,100,93.0
887,E3,101.812,0.125,100,93.0
888,E4,101.812,0.125,100,93.0
889,C2,101.812,0.125,100,93.0
890,F#2,101.812,0.125,100,93.0
891,C#4,102.0,0.25,100,93.0
892,E2,102.0,0.25,100,93.0
893,E4,102.0,0.25,100,93.0
894,E3,102.0,0.25,100,93.0
895,C2,102.0,0.125,100,93.0
896,F#2,102.0,0.125,100,93.0
897,B3,102.25,0.188,100,93.0
898,B3,102.5,0.188,100,93.0
899,E2,102.5,0.25,100,93.0
900,E3,102.5,0.25,100,93.0
901,E4,102.5,0.25,100,93.0
902,F#2,102.5,0.125,100,93.0
903,C2,102.5,0.125,100,93.0
904,E-4,103.0,0.25,100,93.0
905,F#2,103.0,0.125,100,93.0
906,A1,103.0,0.125,100,93.0
907,C#4,103.312,0.188,100,93.0
908,C#4,103.5,0.25,100,93.0
909,B1,103.5,0.5,100,93.0
910,E4,103.5,0.5,100,93.0
911,E3,103.5,0.5,100,93.0
912,F#2,103.5,0.125,100,93.0
913,C2,103.5,0.125,100,93.0
914,F#2,103.625,0.062,100,93.0
915,F#2,103.812,0.125,100,93.0
916,E-4,104.0,0.5,100,93.0
917,C#2,104.0,0.25,100,93.0
918,C#4,104.0,0.25,100,93.0
919,C#3,104.0,0.25,100,93.0
920,C2,104.0,0.125,100,93.0
921,F#2,104.0,0.125,100,93.0
922,F#4,104.5,0.5,100,93.0
923,C#2,104.5,0.25,100,93.0
924,F#2,104.5,0.125,100,93.0
925,C#4,104.5,0.25,100,93.0
926,C#3,104.5,0.25,100,93.0
927,E4,105.0,0.5,100,93.0
928,F#2,105.0,0.125,100,93.0
929,A1,105.0,0.125,100,93.0
930,E-4,105.5,0.5,100,93.0
931,F#2,105.5,0.125,100,93.0
932,B2,105.812,0.125,100,93.0
933,B3,105.812,0.125,100,93.0
934,C2,105.812,0.125,100,93.0
935,F#2,105.812,0.125,100,93.0
936,C#4,106.0,0.5,100,93.0
937,C#2,106.0,0.25,100,93.0
938,C#4,106.0,0.25,100,93.0
939,C#3,106.0,0.25,100,93.0
940,F#2,106.0,0.125,100,93.0
941,C2,106.0,0.125,100,93.0
942,B2,106.375,0.125,100,93.0
943,B3,106.375,0.125,100,93.0
944,C#2,106.5,0.25,100,93.0
945,C#4,106.5,0.25,100,93.0
946,C#3,106.5,0.25,100,93.0
947,C2,106.5,0.125,100,93.0
948,F#2,106.5,0.125,100,93.0
949,B3,107.0,0.5,100,93.0
950,A1,107.0,0.125,100,93.0
951,F#2,107.0,0.125,100,93.0
952,C#4,107.5,0.312,100,93.0
953,C#2,107.5,0.5,100,93.0
954,C#4,107.5,0.5,100,93.0
955,C#3,107.5,0.5,100,93.0
956,F#2,107.5,0.125,100,93.0
957,C2,107.5,0.125,100,93.0
958,F#2,107.625,0.062,100,93.0
959,F#2,107.812,0.125,100,93.0
960,E-4,108.0,0.5,100,93.0
961,E-2,108.0,0.25,100,93.0
962,E-3,108.0,0.25,100,93.0
963,B-3,108.0,0.25,100,93.0
964,C2,108.0,0.125,100,93.0
965,F#2,108.0,0.125,100,93.0
966,F#4,108.5,0.5,100,93.0
967,F#2,108.5,0.125,100,93.0
968,E4,109.0,0.5,100,93.0
969,A1,109.0,0.125,100,93.0
970,F#2,109.0,0.125,100,93.0
971,E-4,109.5,0.5,100,93.0
972,F#2,109.5,0.125,100,93.0
973,F#2,109.812,0.125,100,93.0
974,C2,109.812,0.125,100,93.0
975,C#4,110.0,1.0,100,93.0
976,F#2,110.0,0.125,100,93.0
977,C2,110.0,0.125,100,93.0
978,C2,110.5,0.125,100,93.0
979,F#2,110.5,0.125,100,93.0
980,B3,111.0,0.5,100,93.0
981,A1,111.0,0.125,100,93.0
982,F#2,111.0,0.125,100,93.0
983,G#3,111.5,0.5,100,93.0
984,C2,111.5,0.125,100,93.0
985,F#2,111.5,0.125,100,93.0
986,F#2,111.625,0.062,100,93.0
987,F#2,111.812,0.125,100,93.0
988,G#2,112.0,0.25,100,93.0
989,G#4,112.0,0.25,100,93.0
990,G#3,112.0,0.25,100,93.0
991,C2,112.0,0.125,100,93.0
992,F#2,112.0,0.125,100,93.0
993,G#2,112.5,0.25,100,93.0
994,F#2,112.5,0.125,100,93.0
995,G#3,112.5,0.25,100,93.0
996,G#4,112.5,0.25,100,93.0
997,E-4,113.0,0.312,100,93.0
998,G#3,113.0,0.5,100,93.0
999,F#2,113.0,0.125,100,93.0
1000,A1,113.0,0.125,100,93.0
1001,C#4,113.312,0.5,100,93.0
1002,F#2,113.5,0.125,100,93.0
1003,E-4,113.812,0.5,100,93.0
1004,G#2,113.812,0.125,100,93.0
1005,G#3,113.812,0.125,100,93.0
1006,G#4,113.812,0.125,100,93.0
1007,F#2,113.812,0.125,100,93.0
1008,C2,113.812,0.125,100,93.0
1009,G#2,114.0,0.25,100,93.0
1010,G#4,114.0,0.25,100,93.0
1011,G#3,114.0,0.25,100,93.0
1012,F#2,114.0,0.125,100,93.0
1013,C2,114.0,0.125,100,93.0
1014,G#2,114.5,0.25,100,93.0
1015,G#3,114.5,0.25,100,93.0
1016,G#4,114.5,0.25,100,93.0
1017,F#2,114.5,0.125,100,93.0
1018,C2,114.5,0.125,100,93.0
1019,E-4,115.0,0.312,100,93.0
1020,A1,115.0,0.125,100,93.0
1021,F#2,115.0,0.125,100,93.0
1022,C#4,115.312,0.438,100,93.0
1023,B2,115.5,0.5,100,93.0
1024,F#2,115.5,0.125,100,93.0
1025,C2,115.5,0.125,100,93.0
1026,F#2,115.625,0.062,100,93.0
1027,C#4,115.812,0.188,100,93.0
1028,F#2,115.812,0.125,100,93.0
1029,C#4,116.0,0.125,100,93.0
1030,E2,116.0,0.25,100,93.0
1031,E3,116.0,0.25,100,93.0
1032,E4,116.0,0.25,100,93.0
1033,F#2,116.0,0.125,100,93.0
1034,C2,116.0,0.125,100,93.0
1035,E2,116.5,0.25,100,93.0
1036,F#2,116.5,0.125,100,93.0
1037,E3,116.5,0.25,100,93.0
1038,E4,116.5,0.25,100,93.0
1039,E-4,117.0,0.25,100,93.0
1040,E3,117.0,0.5,100,93.0
1041,A1,117.0,0.125,100,93.0
1042,F#2,117.0,0.125,100,93.0
1043,C#4,117.312,0.125,100,93.0
1044,C#4,117.5,0.25,100,93.0
1045,F#2,117.5,0.125,100,93.0
1046,C#4,117.812,0.125,100,93.0
1047,E2,117.812,0.125,100,93.0
1048,E4,117.812,0.125,100,93.0
1049,E3,117.812,0.125,100,93.0
1050,C2,117.812,0.125,100,93.0
1051,F#2,117.812,0.125,100,93.0
1052,C#4,118.0,0.25,100,93.0
1053,E2,118.0,0.25,100,93.0
1054,E4,118.0,0.25,100,93.0
1055,E3,118.0,0.25,100,93.0
1056,C2,118.0,0.125,100,93.0
1057,F#2,118.0,0.125,100,93.0
1058,B3,118.25,0.188,100,93.0
1059,B3,118.5,0.188,100,93.0
1060,E2,118.5,0.25,100,93.0
1061,E4,118.5,0.25,100,93.0
1062,E3,118.5,0.25,100,93.0
1063,F#2,118.5,0.125,100,93.0
1064,C2,118.5,0.125,100,93.0
1065,E-4,119.0,0.25,100,93.0
1066,A1,119.0,0.125,100,93.0
1067,F#2,119.0,0.125,100,93.0
1068,C#4,119.312,0.188,100,93.0
1069,C#4,119.5,0.25,100,93.0
1070,B1,119.5,0.5,100,93.0
1071,E4,119.5,0.5,100,93.0
1072,E3,119.5,0.5,100,93.0
1073,F#2,119.5,0.125,100,93.0
1074,C2,119.5,0.125,100,93.0
1075,F#2,119.625,0.062,100,93.0
1076,F#2,119.812,0.125,100,93.0
1077,E-4,120.0,0.5,100,93.0
1078,C#2,120.0,0.25,100,93.0
1079,C#3,120.0,0.25,100,93.0
1080,C#4,120.0,0.25,100,93.0
1081,F#2,120.0,0.125,100,93.0
1082,C2,120.0,0.125,100,93.0
1083,F#4,120.5,0.5,100,93.0
1084,C#2,120.5,0.25,100,93.0
1085,F#2,120.5,0.125,100,93.0
1086,C#3,120.5,0.25,100,93.0
1087,C#4,120.5,0.25,100,93.0
1088,E4,121.0,0.5,100,93.0
1089,F#2,121.0,0.125,100,93.0
1090,A1,121.0,0.125,100,93.0
1091,E-4,121.5,0.5,100,93.0
1092,F#2,121.5,0.125,100,93.0
1093,B2,121.812,0.125,100,93.0
1094,B3,121.812,0.125,100,93.0
1095,F#2,121.812,0.125,100,93.0
1096,C2,121.812,0.125,100,93.0
1097,C#4,122.0,0.5,100,93.0
1098,C#2,122.0,0.25,100,93.0
1099,C#4,122.0,0.25,100,93.0
1100,C#3,122.0,0.25,100,93.0
1101,C2,122.0,0.125,100,93.0
1102,F#2,122.0,0.125,100,93.0
1103,B3,122.375,0.125,100,93.0
1104,B2,122.375,0.125,100,93.0
1105,C#2,122.5,0.25,100,93.0
1106,C#3,122.5,0.25,100,93.0
1107,C#4,122.5,0.25,100,93.0
1108,C2,122.5,0.125,100,93.0
1109,F#2,122.5,0.125,100,93.0
1110,B3,123.0,0.5,100,93.0
1111,A1,123.0,0.125,100,93.0
1112,F#2,123.0,0.125,100,93.0
1113,C#4,123.5,0.312,100,93.0
1114,C#2,123.5,0.5,100,93.0
1115,C#3,123.5,0.5,100,93.0
1116,C#4,123.5,0.5,100,93.0
1117,C2,123.5,0.125,100,93.0
1118,F#2,123.5,0.125,100,93.0
1119,F#2,123.625,0.062,100,93.0
1120,F#2,123.812,0.125,100,93.0
1121,E-4,124.0,0.5,100,93.0
1122,E-2,124.0,0.25,100,93.0
1123,B-3,124.0,0.25,100,93.0
1124,E-3,124.0,0.25,100,93.0
1125,C2,124.0,0.125,100,93.0
1126,F#2,124.0,0.125,100,93.0
1127,F#4,124.5,0.5,100,93.0
1128,F#2,124.5,0.125,100,93.0
1129,E4,125.0,0.5,100,93.0
1130,F#2,125.0,0.125,100,93.0
1131,A1,125.0,0.125,100,93.0
1132,E-4,125.5,0.5,100,93.0
1133,F#2,125.5,0.125,100,93.0
1134,E-2,125.812,0.125,100,93.0
1135,E-3,125.812,0.125,100,93.0
1136,E-4,125.812,0.125,100,93.0
1137,F#2,125.812,0.125,100,93.0
1138,C2,125.812,0.125,100,93.0
1139,C#4,126.0,1.0,100,93.0
1140,C#2,126.0,1.0,100,93.0
1141,C#3,126.0,1.0,100,93.0
1142,C#4,126.0,1.0,100,93.0
1143,F#2,126.0,0.125,100,93.0
1144,C2,126.0,0.125,100,93.0
1145,F#2,126.5,0.125,100,93.0
1146,C2,126.5,0.125,100,93.0
1147,B3,127.0,0.5,100,93.0
1148,B1,127.0,1.0,100,93.0
1149,B2,127.0,1.0,100,93.0
1150,B3,127.0,1.0,100,93.0
1151,F#2,127.0,0.125,100,93.0
1152,A1,127.0,0.125,100,93.0
1153,G#3,127.5,0.5,100,93.0
1154,C2,127.5,0.125,100,93.0
1155,F#2,127.5,0.125,100,93.0
1156,F#2,127.625,0.062,100,93.0
1157,F#2,127.812,0.125,100,93.0
1158,G#3,128.0,0.25,100,93.0
1159,G#2,128.0,0.25,100,93.0
1160,F#2,128.0,0.125,100,93.0
1161,C2,128.0,0.125,100,93.0
1162,B3,128.5,0.5,100,93.0
1163,G#3,128.5,0.25,100,93.0
1164,G#2,128.5,0.25,100,93.0
1165,F#2,128.5,0.125,100,93.0
1166,B-3,129.0,0.5,100,93.0
1167,G#3,129.0,0.5,100,93.0
1168,F#2,129.0,0.125,100,93.0
1169,A1,129.0,0.125,100,93.0
1170,F#2,129.5,0.125,100,93.0
1171,G#3,129.812,0.188,100,93.0
1172,G#3,129.812,0.125,100,93.0
1173,G#2,129.812,0.125,100,93.0
1174,F#2,129.812,0.125,100,93.0
1175,C2,129.812,0.125,100,93.0
1176,B-3,130.0,0.25,100,93.0
1177,G#3,130.0,0.25,100,93.0
1178,G#2,130.0,0.25,100,93.0
1179,F#2,130.0,0.125,100,93.0
1180,C2,130.0,0.125,100,93.0
1181,B-3,130.312,0.312,100,93.0
1182,G#3,130.5,0.25,100,93.0
1183,G#2,130.5,0.25,100,93.0
1184,F#2,130.5,0.125,100,93.0
1185,C2,130.5,0.125,100,93.0
1186,B-3,130.812,0.312,100,93.0
1187,F#2,131.0,0.125,100,93.0
1188,A1,131.0,0.125,100,93.0
1189,G#3,131.5,0.312,100,93.0
1190,G#3,131.5,0.5,100,93.0
1191,B2,131.5,0.5,100,93.0
1192,F#2,131.5,0.125,100,93.0
1193,C2,131.5,0.125,100,93.0
1194,F#2,131.625,0.062,100,93.0
1195,F#2,131.812,0.125,100,93.0
1196,E3,132.0,0.25,100,93.0
1197,E2,132.0,0.25,100,93.0
1198,F#2,132.0,0.125,100,93.0
1199,C2,132.0,0.125,100,93.0
1200,B3,132.5,0.5,100,93.0
1201,E3,132.5,0.25,100,93.0
1202,E2,132.5,0.25,100,93.0
1203,F#2,132.5,0.125,100,93.0
1204,B-3,133.0,0.5,100,93.0
1205,E3,133.0,0.5,100,93.0
1206,F#2,133.0,0.125,100,93.0
1207,A1,133.0,0.125,100,93.0
1208,F#2,133.5,0.125,100,93.0
1209,G#3,133.812,0.188,100,93.0
1210,E3,133.812,0.125,100,93.0
1211,E2,133.812,0.125,100,93.0
1212,F#2,133.812,0.125,100,93.0
1213,C2,133.812,0.125,100,93.0
1214,B-3,134.0,0.25,100,93.0
1215,E3,134.0,0.25,100,93.0
1216,E2,134.0,0.25,100,93.0
1217,F#2,134.0,0.125,100,93.0
1218,C2,134.0,0.125,100,93.0
1219,B-3,134.312,0.312,100,93.0
1220,E3,134.5,0.25,100,93.0
1221,E2,134.5,0.25,100,93.0
1222,F#2,134.5,0.125,100,93.0
1223,C2,134.5,0.125,100,93.0
1224,B-3,134.812,0.312,100,93.0
1225,F#2,135.0,0.125,100,93.0
1226,A1,135.0,0.125,100,93.0
1227,G#3,135.5,0.312,100,93.0
1228,B2,135.5,0.5,100,93.0
1229,B1,135.5,0.5,100,93.0
1230,F#2,135.5,0.125,100,93.0
1231,C2,135.5,0.125,100,93.0
1232,F#2,135.625,0.062,100,93.0
1233,F#2,135.812,0.125,100,93.0
1234,C#3,136.0,0.25,100,93.0
1235,C#2,136.0,0.25,100,93.0
1236,F#2,136.0,0.125,100,93.0
1237,C2,136.0,0.125,100,93.0
1238,B3,136.5,0.5,100,93.0
1239,C#3,136.5,0.25,100,93.0
1240,C#2,136.5,0.25,100,93.0
1241,F#2,136.5,0.125,100,93.0
1242,B-3,137.0,0.5,100,93.0
1243,F#2,137.0,0.125,100,93.0
1244,A1,137.0,0.125,100,93.0
1245,F#2,137.5,0.125,100,93.0
1246,G#3,137.812,0.188,100,93.0
1247,C#3,137.812,0.125,100,93.0
1248,F#2,137.812,0.125,100,93.0
1249,C2,137.812,0.125,100,93.0
1250,B-3,138.0,0.25,100,93.0
1251,C#3,138.0,0.25,100,93.0
1252,C#2,138.0,0.25,100,93.0
1253,F#2,138.0,0.125,100,93.0
1254,C2,138.0,0.125,100,93.0
1255,B-3,138.312,0.312,100,93.0
1256,C#3,138.5,0.25,100,93.0
1257,C#2,138.5,0.25,100,93.0
1258,F#2,138.5,0.125,100,93.0
1259,C2,138.5,0.125,100,93.0
1260,B-3,138.812,0.312,100,93.0
1261,F#2,139.0,0.125,100,93.0
1262,A1,139.0,0.125,100,93.0
1263,G#3,139.5,0.312,100,93.0
1264,C#3,139.5,0.5,100,93.0
1265,C#2,139.5,0.5,100,93.0
1266,F#2,139.5,0.125,100,93.0
1267,C2,139.5,0.125,100,93.0
1268,F#2,139.625,0.062,100,93.0
1269,F#2,139.812,0.125,100,93.0
1270,E-3,140.0,0.25,100,93.0
1271,E-2,140.0,0.25,100,93.0
1272,F#2,140.0,0.125,100,93.0
1273,C2,140.0,0.125,100,93.0
1274,F#2,140.5,0.125,100,93.0
1275,F#2,141.0,0.125,100,93.0
1276,A1,141.0,0.125,100,93.0
1277,F#2,141.5,0.125,100,93.0
1278,E-3,141.812,0.125,100,93.0
1279,E-2,141.812,0.125,100,93.0
1280,F#2,141.812,0.125,100,93.0
1281,C2,141.812,0.125,100,93.0
1282,C#3,142.0,1.0,100,93.0
1283,C#2,142.0,1.0,100,93.0
1284,F#2,142.0,0.125,100,93.0
1285,C2,142.0,0.125,100,93.0
1286,F#2,142.5,0.125,100,93.0
1287,C2,142.5,0.125,100,93.0
1288,B2,143.0,1.0,100,93.0
1289,B1,143.0,1.0,100,93.0
1290,F#2,143.0,0.125,100,93.0
1291,A1,143.0,0.125,100,93.0
1292,F#2,143.5,0.125,100,93.0
1293,C2,143.5,0.125,100,93.0
1294,F#2,143.625,0.062,100,93.0
1295,F#2,143.812,0.125,100,93.0
1296,E-5,144.0,0.312,100,93.0
1297,G#3,144.0,0.25,100,93.0
1298,G#2,144.0,0.25,100,93.0
1299,C2,144.0,0.125,100,93.0
1300,G#3,144.5,0.25,100,93.0
1301,G#2,144.5,0.25,100,93.0
1302,E-5,144.812,0.188,100,93.0
1303,E-5,145.0,0.25,100,93.0
1304,G#3,145.0,0.5,100,93.0
1305,A1,145.0,0.125,100,93.0
1306,E-5,145.5,0.25,100,93.0
1307,G#3,145.75,0.219,100,93.0
1308,G#2,145.75,0.219,100,93.0
1309,C2,145.812,0.125,100,93.0
1310,B4,146.0,1.0,100,93.0
1311,G#3,146.0,0.25,100,93.0
1312,G#2,146.0,0.25,100,93.0
1313,C2,146.0,0.125,100,93.0
1314,G#3,146.5,0.25,100,93.0
1315,G#2,146.5,0.25,100,93.0
1316,C2,146.5,0.125,100,93.0
1317,G#4,147.0,0.5,100,93.0
1318,A1,147.0,0.125,100,93.0
1319,C#5,147.5,0.5,100,93.0
1320,B2,147.5,0.5,100,93.0
1321,C2,147.5,0.125,100,93.0
1322,B4,148.0,0.5,100,93.0
1323,E3,148.0,0.25,100,93.0
1324,E2,148.0,0.25,100,93.0
1325,C2,148.0,0.125,100,93.0
1326,F#2,148.0,0.125,100,93.0
1327,E3,148.5,0.25,100,93.0
1328,E2,148.5,0.25,100,93.0
1329,F#2,148.5,0.125,100,93.0
1330,E3,149.0,0.5,100,93.0
1331,F#2,149.0,0.125,100,93.0
1332,A1,149.0,0.125,100,93.0
1333,F#2,149.5,0.125,100,93.0
1334,E3,149.75,0.219,100,93.0
1335,E2,149.75,0.219,100,93.0
1336,F#2,149.812,0.125,100,93.0
1337,C2,149.812,0.125,100,93.0
1338,E3,150.0,0.25,100,93.0
1339,E2,150.0,0.25,100,93.0
1340,F#2,150.0,0.125,100,93.0
1341,C2,150.0,0.125,100,93.0
1342,B4,150.312,0.188,100,93.0
1343,E-5,150.5,0.25,100,93.0
1344,E3,150.5,0.25,100,93.0
1345,E2,150.5,0.25,100,93.0
1346,F#2,150.5,0.125,100,93.0
1347,C2,150.5,0.125,100,93.0
1348,E-5,150.812,0.125,100,93.0
1349,E-5,151.0,0.25,100,93.0
1350,F#2,151.0,0.125,100,93.0
1351,A1,151.0,0.125,100,93.0
1352,E-5,151.312,0.25,100,93.0
1353,B2,151.5,0.5,100,93.0
1354,B1,151.5,0.5,100,93.0
1355,F#2,151.5,0.125,100,93.0
1356,C2,151.5,0.125,100,93.0
1357,F#2,151.625,0.062,100,93.0
1358,E-5,151.812,0.188,100,93.0
1359,F#2,151.812,0.125,100,93.0
1360,C#5,152.0,0.438,100,93.0
1361,C#3,152.0,0.25,100,93.0
1362,C#2,152.0,0.25,100,93.0
1363,F#2,152.0,0.125,100,93.0
1364,C2,152.0,0.125,100,93.0
1365,C#3,152.5,0.25,100,93.0
1366,C#2,152.5,0.25,100,93.0
1367,F#2,152.5,0.125,100,93.0
1368,F#2,153.0,0.125,100,93.0
1369,A1,153.0,0.125,100,93.0
1370,F#2,153.5,0.125,100,93.0
1371,F#2,153.812,0.125,100,93.0
1372,C2,153.812,0.125,100,93.0
1373,C#3,154.0,0.25,100,93.0
1374,C#2,154.0,0.25,100,93.0
1375,F#2,154.0,0.125,100,93.0
1376,C2,154.0,0.125,100,93.0
1377,C#3,154.5,0.25,100,93.0
1378,C#2,154.5,0.25,100,93.0
1379,F#2,154.5,0.125,100,93.0
1380,C2,154.5,0.125,100,93.0
1381,F#2,155.0,0.125,100,93.0
1382,A1,155.0,0.125,100,93.0
1383,C#3,155.5,0.5,100,93.0
1384,C#2,155.5,0.5,100,93.0
1385,F#2,155.5,0.125,100,93.0
1386,C2,155.5,0.125,100,93.0
1387,C#5,155.562,0.438,100,93.0
1388,F#2,155.625,0.062,100,93.0
1389,F#2,155.812,0.125,100,93.0
1390,E-5,156.0,1.0,100,93.0
1391,E-3,156.0,0.25,100,93.0
1392,E-2,156.0,0.25,100,93.0
1393,F#2,156.0,0.125,100,93.0
1394,C2,156.0,0.125,100,93.0
1395,F#2,156.5,0.125,100,93.0
1396,E-5,157.0,1.0,100,93.0
1397,F#2,157.0,0.125,100,93.0
1398,A1,157.0,0.125,100,93.0
1399,F#2,157.5,0.125,100,93.0
1400,E-3,157.75,0.25,100,93.0
1401,E-2,157.75,0.25,100,93.0
1402,F#2,157.812,0.125,100,93.0
1403,C2,157.812,0.125,100,93.0
1404,B-4,158.0,1.0,100,93.0
1405,C#3,158.0,0.25,100,93.0
1406,C#2,158.0,0.25,100,93.0
1407,F#2,158.0,0.125,100,93.0
1408,C2,158.0,0.125,100,93.0
1409,C#3,158.5,0.25,100,93.0
1410,B1,158.5,0.25,100,93.0
1411,F#2,158.5,0.125,100,93.0
1412,C2,158.5,0.125,100,93.0
1413,B4,159.0,0.812,100,93.0
1414,B2,159.0,0.25,100,93.0
1415,B-1,159.0,0.25,100,93.0
1416,F#2,159.0,0.125,100,93.0
1417,A1,159.0,0.125,100,93.0
1418,B-2,159.5,0.25,100,93.0
1419,A1,159.5,0.25,100,93.0
1420,F#2,159.5,0.125,100,93.0
1421,C2,159.5,0.125,100,93.0
1422,F#2,159.625,0.062,100,93.0
1423,C#5,159.812,0.188,100,93.0
1424,F#2,159.812,0.125,100,93.0
1425,E-5,160.0,0.5,100,93.0
1426,G#2,160.0,0.25,100,93.0
1427,G#1,160.0,0.25,100,93.0
1428,F#2,160.0,0.125,100,93.0
1429,C2,160.0,0.125,100,93.0
1430,F#2,160.5,0.125,100,93.0
1431,E-5,160.812,0.125,100,93.0
1432,E-5,161.0,0.312,100,93.0
1433,A1,161.0,0.125,100,93.0
1434,F#2,161.0,0.125,100,93.0
1435,E-5,161.5,0.312,100,93.0
1436,F#2,161.5,0.125,100,93.0
1437,G#2,161.812,0.125,100,93.0
1438,G#1,161.812,0.125,100,93.0
1439,C2,161.812,0.125,100,93.0
1440,F#2,161.812,0.125,100,93.0
1441,B4,162.0,0.312,100,93.0
1442,G#2,162.0,0.25,100,93.0
1443,G#1,162.0,0.25,100,93.0
1444,F#2,162.0,0.125,100,93.0
1445,C2,162.0,0.125,100,93.0
1446,G#2,162.5,0.25,100,93.0
1447,G#1,162.5,0.25,100,93.0
1448,F#2,162.5,0.125,100,93.0
1449,C2,162.5,0.125,100,93.0
1450,G#4,163.0,0.5,100,93.0
1451,F#2,163.0,0.125,100,93.0
1452,A1,163.0,0.125,100,93.0
1453,C#5,163.5,0.5,100,93.0
1454,G#2,163.5,0.25,100,93.0
1455,G#1,163.5,0.25,100,93.0
1456,F#2,163.5,0.125,100,93.0
1457,C2,163.5,0.125,100,93.0
1458,F#2,163.625,0.062,100,93.0
1459,F#2,163.812,0.125,100,93.0
1460,E-5,164.0,0.5,100,93.0
1461,E2,164.0,0.25,100,93.0
1462,E1,164.0,0.25,100,93.0
1463,C2,164.0,0.125,100,93.0
1464,F#2,164.0,0.125,100,93.0
1465,F#2,164.5,0.125,100,93.0
1466,A1,165.0,0.125,100,93.0
1467,F#2,165.0,0.125,100,93.0
1468,F#2,165.5,0.125,100,93.0
1469,E2,165.812,0.125,100,93.0
1470,E1,165.812,0.125,100,93.0
1471,C2,165.812,0.125,100,93.0
1472,F#2,165.812,0.125,100,93.0
1473,E2,166.0,0.25,100,93.0
1474,E1,166.0,0.25,100,93.0
1475,F#2,166.0,0.125,100,93.0
1476,C2,166.0,0.125,100,93.0
1477,B4,166.312,0.188,100,93.0
1478,E-5,166.5,0.25,100,93.0
1479,E2,166.5,0.25,100,93.0
1480,E1,166.5,0.25,100,93.0
1481,F#2,166.5,0.125,100,93.0
1482,C2,166.5,0.125,100,93.0
1483,E-5,166.812,0.125,100,93.0
1484,E-5,167.0,0.25,100,93.0
1485,F#2,167.0,0.125,100,93.0
1486,A1,167.0,0.125,100,93.0
1487,E-5,167.312,0.25,100,93.0
1488,E2,167.5,0.25,100,93.0
1489,E1,167.5,0.25,100,93.0
1490,F#2,167.5,0.125,100,93.0
1491,C2,167.5,0.125,100,93.0
1492,F#2,167.625,0.062,100,93.0
1493,E-5,167.812,0.188,100,93.0
1494,F#2,167.812,0.125,100,93.0
1495,C#5,168.0,0.438,100,93.0
1496,C#3,168.0,0.25,100,93.0
1497,C#2,168.0,0.25,100,93.0
1498,C2,168.0,0.125,100,93.0
1499,F#2,168.0,0.125,100,93.0
1500,F#2,168.5,0.125,100,93.0
1501,A1,169.0,0.125,100,93.0
1502,F#2,169.0,0.125,100,93.0
1503,F#2,169.5,0.125,100,93.0
1504,C#3,169.812,0.125,100,93.0
1505,C#2,169.812,0.125,100,93.0
1506,C2,169.812,0.125,100,93.0
1507,F#2,169.812,0.125,100,93.0
1508,C#3,170.0,0.25,100,93.0
1509,C#2,170.0,0.25,100,93.0
1510,F#2,170.0,0.125,100,93.0
1511,C2,170.0,0.125,100,93.0
1512,B4,170.5,0.5,100,93.0
1513,C#3,170.5,0.25,100,93.0
1514,C#2,170.5,0.25,100,93.0
1515,F#2,170.5,0.125,100,93.0
1516,C2,170.5,0.125,100,93.0
1517,C#5,171.0,0.562,100,93.0
1518,F#2,171.0,0.125,100,93.0
1519,A1,171.0,0.125,100,93.0
1520,C#3,171.5,0.25,100,93.0
1521,C#2,171.5,0.25,100,93.0
1522,F#2,171.5,0.125,100,93.0
1523,C2,171.5,0.125,100,93.0
1524,B4,171.562,0.438,100,93.0
1525,F#2,171.625,0.062,100,93.0
1526,F#2,171.812,0.125,100,93.0
1527,E-5,172.0,1.0,100,93.0
1528,E-3,172.0,0.25,100,93.0
1529,E-2,172.0,0.25,100,93.0
1530,C2,172.0,0.125,100,93.0
1531,F#2,172.0,0.125,100,93.0
1532,F#2,172.5,0.125,100,93.0
1533,E-5,173.0,1.0,100,93.0
1534,A1,173.0,0.125,100,93.0
1535,F#2,173.0,0.125,100,93.0
1536,F#2,173.5,0.125,100,93.0
1537,C2,173.812,0.125,100,93.0
1538,F#2,173.812,0.125,100,93.0
1539,B-4,174.0,1.0,100,93.0
1540,F#2,174.0,0.125,100,93.0
1541,C2,174.0,0.125,100,93.0
1542,F#2,174.5,0.125,100,93.0
1543,C2,174.5,0.125,100,93.0
1544,B4,175.0,1.0,100,93.0
1545,F#2,175.0,0.125,100,93.0
1546,A1,175.0,0.125,100,93.0
1547,F#2,175.5,0.125,100,93.0
1548,C2,175.5,0.125,100,93.0
1549,F#2,175.625,0.062,100,93.0
1550,F#2,175.812,0.125,100,93.0
1551,B4,176.0,0.75,100,93.0
1552,B5,176.0,0.5,100,93.0
1553,B-5,176.5,0.5,100,93.0
1554,G#5,177.0,0.5,100,93.0
1555,G#2,177.0,0.25,100,93.0
1556,F#2,177.0,0.125,100,93.0
1557,A1,177.0,0.125,100,93.0
1558,E-5,177.5,1.5,100,93.0
1559,F#2,177.5,0.125,100,93.0
1560,G#2,177.812,0.125,100,93.0
1561,C2,177.812,0.125,100,93.0
1562,F#2,177.812,0.125,100,93.0
1563,G#2,178.0,0.25,100,93.0
1564,C2,178.0,0.125,100,93.0
1565,F#2,178.0,0.125,100,93.0
1566,G#2,178.5,0.25,100,93.0
1567,F#2,178.5,0.125,100,93.0
1568,C2,178.5,0.125,100,93.0
1569,B4,179.0,0.25,100,93.0
1570,A1,179.0,0.125,100,93.0
1571,F#2,179.0,0.125,100,93.0
1572,B4,179.5,0.25,100,93.0
1573,G#2,179.5,0.25,100,93.0
1574,C2,179.5,0.125,100,93.0
1575,F#2,179.5,0.125,100,93.0
1576,F#2,179.625,0.062,100,93.0
1577,F#2,179.812,0.125,100,93.0
1578,E5,180.0,0.5,100,93.0
1579,E2,180.0,0.25,100,93.0
1580,F#2,180.0,0.125,100,93.0
1581,C2,180.0,0.125,100,93.0
1582,E-5,180.5,0.5,100,93.0
1583,E2,180.5,0.25,100,93.0
1584,F#2,180.5,0.125,100,93.0
1585,B5,181.0,0.5,100,93.0
1586,E2,181.0,0.25,100,93.0
1587,F#2,181.0,0.125,100,93.0
1588,A1,181.0,0.125,100,93.0
1589,G#5,181.5,2.5,100,93.0
1590,E2,181.5,0.25,100,93.0
1591,F#2,181.5,0.125,100,93.0
1592,E2,181.812,0.125,100,93.0
1593,C2,181.812,0.125,100,93.0
1594,F#2,181.812,0.125,100,93.0
1595,E2,182.0,0.25,100,93.0
1596,C2,182.0,0.125,100,93.0
1597,F#2,182.0,0.125,100,93.0
1598,E-5,182.5,0.5,100,93.0
1599,E2,182.5,0.5,100,93.0
1600,F#2,182.5,0.125,100,93.0
1601,C2,182.5,0.125,100,93.0
1602,C#5,183.0,0.5,100,93.0
1603,F#2,183.0,0.125,100,93.0
1604,A1,183.0,0.125,100,93.0
1605,B4,183.5,0.5,100,93.0
1606,B1,183.5,0.5,100,93.0
1607,F#2,183.5,0.125,100,93.0
1608,C2,183.5,0.125,100,93.0
1609,F#2,183.625,0.062,100,93.0
1610,F#2,183.812,0.125,100,93.0
1611,C#5,184.0,0.5,100,93.0
1612,B-5,184.0,0.5,100,93.0
1613,C#2,184.0,0.25,100,93.0
1614,F#2,184.0,0.125,100,93.0
1615,C2,184.0,0.125,100,93.0
1616,B5,184.5,0.5,100,93.0
1617,C#2,184.5,0.25,100,93.0
1618,F#2,184.5,0.125,100,93.0
1619,C#5,185.0,1.0,100,93.0
1620,C#6,185.0,3.0,100,93.0
1621,C#2,185.0,0.25,100,93.0
1622,F#2,185.0,0.125,100,93.0
1623,A1,185.0,0.125,100,93.0
1624,C#2,185.5,0.25,100,93.0
1625,F#2,185.5,0.125,100,93.0
1626,C#2,185.812,0.125,100,93.0
1627,C2,185.812,0.125,100,93.0
1628,F#2,185.812,0.125,100,93.0
1629,G#4,186.0,1.688,100,93.0
1630,C#2,186.0,0.25,100,93.0
1631,C2,186.0,0.125,100,93.0
1632,F#2,186.0,0.125,100,93.0
1633,C#2,186.5,0.25,100,93.0
1634,F#2,186.5,0.125,100,93.0
1635,C2,186.5,0.125,100,93.0
1636,C#2,187.0,0.25,100,93.0
1637,F#2,187.0,0.125,100,93.0
1638,A1,187.0,0.125,100,93.0
1639,C#2,187.5,0.25,100,93.0
1640,F#2,187.5,0.125,100,93.0
1641,C2,187.5,0.125,100,93.0
1642,F#2,187.625,0.062,100,93.0
1643,F#2,187.812,0.125,100,93.0
1644,B5,188.0,0.5,100,93.0
1645,E-2,188.0,0.25,100,93.0
1646,F#2,188.0,0.125,100,93.0
1647,C2,188.0,0.125,100,93.0
1648,E-4,188.5,0.5,100,93.0
1649,C#6,188.5,0.5,100,93.0
1650,E-2,188.5,0.25,100,93.0
1651,F#2,188.5,0.125,100,93.0
1652,G#4,189.0,0.5,100,93.0
1653,E-6,189.0,1.5,100,93.0
1654,E-2,189.0,0.25,100,93.0
1655,F#2,189.0,0.125,100,93.0
1656,A1,189.0,0.125,100,93.0
1657,B-4,189.5,0.5,100,93.0
1658,E-2,189.5,0.25,100,93.0
1659,F#2,189.5,0.125,100,93.0
1660,E-2,189.812,0.188,100,93.0
1661,C2,189.812,0.125,100,93.0
1662,F#2,189.812,0.125,100,93.0
1663,B4,190.0,0.5,100,93.0
1664,C#2,190.0,0.25,100,93.0
1665,C2,190.0,0.125,100,93.0
1666,F#2,190.0,0.125,100,93.0
1667,B-4,190.5,0.5,100,93.0
1668,E6,190.5,0.5,100,93.0
1669,B1,190.5,0.25,100,93.0
1670,C2,190.5,0.125,100,93.0
1671,F#2,190.5,0.125,100,93.0
1672,B-4,191.0,1.0,100,93.0
1673,E-6,191.0,0.438,100,93.0
1674,B-1,191.0,0.25,100,93.0
1675,A1,191.0,0.125,100,93.0
1676,F#2,191.0,0.125,100,93.0
1677,E-6,191.5,0.438,100,93.0
1678,B-1,191.5,0.25,100,93.0
1679,C2,191.5,0.125,100,93.0
1680,F#2,191.5,0.125,100,93.0
1681,F#2,191.625,0.062,100,93.0
1682,F#2,191.812,0.125,100,93.0
1683,B-4,192.0,1.0,100,93.0
1684,B-6,192.0,0.5,100,93.0
1685,C2,192.0,0.125,100,93.0
1686,C2,192.0,0.125,100,93.0
1687,F#2,192.0,0.125,100,93.0
1688,G#6,192.5,0.5,100,93.0
1689,F#2,192.5,0.125,100,93.0
1690,E-4,193.0,1.938,100,93.0
1691,B6,193.0,2.0,100,93.0
1692,G#2,193.0,0.25,100,93.0
1693,F#2,193.0,0.125,100,93.0
1694,A1,193.0,0.125,100,93.0
1695,F#2,193.5,0.125,100,93.0
1696,G#2,193.812,0.125,100,93.0
1697,F#2,193.812,0.125,100,93.0
1698,C2,193.812,0.125,100,93.0
1699,G#2,194.0,0.25,100,93.0
1700,F#2,194.0,0.125,100,93.0
1701,C2,194.0,0.125,100,93.0
1702,G#2,194.5,0.25,100,93.0
1703,F#2,194.5,0.125,100,93.0
1704,C2,194.5,0.125,100,93.0
1705,C#7,195.0,0.5,100,93.0
1706,F#2,195.0,0.125,100,93.0
1707,A1,195.0,0.125,100,93.0
1708,E-7,195.5,0.5,100,93.0
1709,G#2,195.5,0.25,100,93.0
1710,F#2,195.5,0.125,100,93.0
1711,C2,195.5,0.125,100,93.0
1712,F#2,195.625,0.062,100,93.0
1713,F#2,195.812,0.125,100,93.0
1714,G#6,196.0,0.5,100,93.0
1715,E2,196.0,0.25,100,93.0
1716,F#2,196.0,0.125,100,93.0
1717,C2,196.0,0.125,100,93.0
1718,E-6,196.5,0.375,100,93.0
1719,E2,196.5,0.25,100,93.0
1720,F#2,196.5,0.125,100,93.0
1721,E-6,197.0,2.0,100,93.0
1722,E2,197.0,0.25,100,93.0
1723,F#2,197.0,0.125,100,93.0
1724,A1,197.0,0.125,100,93.0
1725,E2,197.5,0.25,100,93.0
1726,F#2,197.5,0.125,100,93.0
1727,E2,197.812,0.125,100,93.0
1728,F#2,197.812,0.125,100,93.0
1729,C2,197.812,0.125,100,93.0
1730,E2,198.0,0.25,100,93.0
1731,F#2,198.0,0.125,100,93.0
1732,C2,198.0,0.125,100,93.0
1733,E-5,198.5,0.5,100,93.0
1734,E2,198.5,0.5,100,93.0
1735,F#2,198.5,0.125,100,93.0
1736,C2,198.5,0.125,100,93.0
1737,C#5,199.0,0.5,100,93.0
1738,C#6,199.0,0.5,100,93.0
1739,F#2,199.0,0.125,100,93.0
1740,A1,199.0,0.125,100,93.0
1741,B4,199.5,0.5,100,93.0
1742,B5,199.5,0.5,100,93.0
1743,B1,199.5,0.5,100,93.0
1744,F#2,199.5,0.125,100,93.0
1745,C2,199.5,0.125,100,93.0
1746,F#2,199.625,0.062,100,93.0
1747,F#2,199.812,0.125,100,93.0
1748,C#5,200.0,0.5,100,93.0
1749,C#6,200.0,0.5,100,93.0
1750,C#2,200.0,0.25,100,93.0
1751,C2,200.0,0.125,100,93.0
1752,C2,200.0,0.125,100,93.0
1753,F#2,200.0,0.125,100,93.0
1754,B5,200.5,0.5,100,93.0
1755,C#2,200.5,0.25,100,93.0
1756,F#2,200.5,0.125,100,93.0
1757,C#5,201.0,1.0,100,93.0
1758,G#5,201.0,2.5,100,93.0
1759,C#2,201.0,0.25,100,93.0
1760,F#2,201.0,0.125,100,93.0
1761,A1,201.0,0.125,100,93.0
1762,C#2,201.5,0.25,100,93.0
1763,F#2,201.5,0.125,100,93.0
1764,C#2,201.812,0.125,100,93.0
1765,F#2,201.812,0.125,100,93.0
1766,C2,201.812,0.125,100,93.0
1767,G#4,202.0,1.688,100,93.0
1768,C#2,202.0,0.25,100,93.0
1769,F#2,202.0,0.125,100,93.0
1770,C2,202.0,0.125,100,93.0
1771,C#2,202.5,0.25,100,93.0
1772,F#2,202.5,0.125,100,93.0
1773,C2,202.5,0.125,100,93.0
1774,C#2,203.0,0.25,100,93.0
1775,F#2,203.0,0.125,100,93.0
1776,A1,203.0,0.125,100,93.0
1777,B5,203.5,0.5,100,93.0
1778,C#2,203.5,0.25,100,93.0
1779,F#2,203.5,0.125,100,93.0
1780,C2,203.5,0.125,100,93.0
1781,F#2,203.625,0.062,100,93.0
1782,F#2,203.812,0.125,100,93.0
1783,B-5,204.0,1.5,100,93.0
1784,E-2,204.0,0.25,100,93.0
1785,F#2,204.0,0.125,100,93.0
1786,C2,204.0,0.125,100,93.0
1787,E-4,204.5,0.5,100,93.0
1788,E-2,204.5,0.25,100,93.0
1789,F#2,204.5,0.125,100,93.0
1790,G#4,205.0,0.5,100,93.0
1791,E-2,205.0,0.25,100,93.0
1792,F#2,205.0,0.125,100,93.0
1793,A1,205.0,0.125,100,93.0
1794,B-4,205.5,0.5,100,93.0
1795,B5,205.5,0.5,100,93.0
1796,E-2,205.5,0.25,100,93.0
1797,F#2,205.5,0.125,100,93.0
1798,E-2,205.812,0.188,100,93.0
1799,F#2,205.812,0.125,100,93.0
1800,C2,205.812,0.125,100,93.0
1801,B4,206.0,0.5,100,93.0
1802,B-5,206.0,0.5,100,93.0
1803,C#2,206.0,0.25,100,93.0
1804,F#2,206.0,0.125,100,93.0
1805,C2,206.0,0.125,100,93.0
1806,B-4,206.5,0.5,100,93.0
1807,B5,206.5,0.5,100,93.0
1808,B1,206.5,0.25,100,93.0
1809,F#2,206.5,0.125,100,93.0
1810,C2,206.5,0.125,100,93.0
1811,B-4,207.0,1.0,100,93.0
1812,B-5,207.0,0.438,100,93.0
1813,B-1,207.0,0.25,100,93.0
1814,F#2,207.0,0.125,100,93.0
1815,A1,207.0,0.125,100,93.0
1816,B-5,207.5,0.438,100,93.0
1817,B-1,207.5,0.25,100,93.0
1818,F#2,207.5,0.125,100,93.0
1819,C2,207.5,0.125,100,93.0
1820,F#2,207.625,0.062,100,93.0
1821,F#2,207.812,0.125,100,93.0
1822,B-4,208.0,1.0,100,93.0
1823,G#2,208.0,0.25,100,93.0
1824,G#4,208.0,0.25,100,93.0
1825,G#3,208.0,0.25,100,93.0
1826,G#2,208.5,0.25,100,93.0
1827,G#4,208.5,0.25,100,93.0
1828,G#3,208.5,0.25,100,93.0
1829,E-4,209.0,1.938,100,93.0
1830,G#3,209.0,0.5,100,93.0
1831,G#2,209.812,0.125,100,93.0
1832,G#4,209.812,0.125,100,93.0
1833,G#3,209.812,0.125,100,93.0
1834,G#2,210.0,0.25,100,93.0
1835,G#4,210.0,0.25,100,93.0
1836,G#3,210.0,0.25,100,93.0
1837,G#2,210.5,0.25,100,93.0
1838,G#4,210.5,0.25,100,93.0
1839,G#3,210.5,0.25,100,93.0
1840,B2,211.5,0.5,100,93.0
1841,E2,212.0,0.25,100,93.0
1842,E3,212.0,0.25,100,93.0
1843,E4,212.0,0.25,100,93.0
1844,E2,212.5,0.25,100,93.0
1845,E4,212.5,0.25,100,93.0
1846,E3,212.5,0.25,100,93.0
1847,E3,213.0,0.5,100,93.0
1848,E2,213.812,0.125,100,93.0
1849,E3,213.812,0.125,100,93.0
1850,E4,213.812,0.125,100,93.0
1851,E2,214.0,0.25,100,93.0
1852,E4,214.0,0.25,100,93.0
1853,E3,214.0,0.25,100,93.0
1854,E2,214.5,0.25,100,93.0
1855,E3,214.5,0.25,100,93.0
1856,E4,214.5,0.25,100,93.0
1857,B1,215.5,0.5,100,93.0
1858,E4,215.5,0.5,100,93.0
1859,E3,215.5,0.5,100,93.0
1860,C#2,216.0,0.25,100,93.0
1861,C#4,216.0,0.25,100,93.0
1862,C#3,216.0,0.25,100,93.0
1863,C#2,216.5,0.25,100,93.0
1864,C#4,216.5,0.25,100,93.0
1865,C#3,216.5,0.25,100,93.0
1866,B2,217.812,0.125,100,93.0
1867,B3,217.812,0.125,100,93.0
1868,C#2,218.0,0.25,100,93.0
1869,C#4,218.0,0.25,100,93.0
1870,C#3,218.0,0.25,100,93.0
1871,B2,218.375,0.125,100,93.0
1872,B3,218.375,0.125,100,93.0
1873,C#2,218.5,0.25,100,93.0
1874,C#4,218.5,0.25,100,93.0
1875,C#3,218.5,0.25,100,93.0
1876,C#2,219.5,0.5,100,93.0
1877,C#4,219.5,0.5,100,93.0
1878,C#3,219.5,0.5,100,93.0
1879,E-2,220.0,0.25,100,93.0
1880,E-3,220.0,0.25,100,93.0
1881,B-3,220.0,0.25,100,93.0
1882,E-2,221.812,0.125,100,93.0
1883,E-4,221.812,0.125,100,93.0
1884,E-3,221.812,0.125,100,93.0
1885,C#2,222.0,1.0,100,93.0
1886,C#3,222.0,1.0,100,93.0
1887,C#4,222.0,1.0,100,93.0
1888,B1,223.0,99/100,100,93.0
1889,B3,223.0,99/100,100,93.0
1890,B2,223.0,99/100,100,93.0
